<svg xmlns="http://www.w3.org/2000/svg" role="img" viewBox="-10.36 -12.86 824.72 360.22"><path fill="#000" d="M648.5724 331.1005c-.825-.34835-10.13265-5.72311-20.68366-11.94393-10.55101-6.22081-28.55101-16.77003-40-23.4427-11.44899-6.67267-31.39134-18.3128-44.31634-25.86695-12.925-7.55415-25.64084-14.95407-28.25741-16.44427-8.90667-5.07252-8.20622 1.81961-8.5227-83.85941-.26707-72.29956-.19283-76.0287 1.59341-80.04475 2.06906-4.6519.68998-3.74853 49.1867-32.21955 41.13657-24.15009 57.16024-33.59597 70.70659-41.6812C646.686 4.6114 651.85763 2.34138 655.54872 3.6281c1.60352.559 21.95234 12.12852 45.21959 25.71006 86.03128 50.21812 94.80417 55.54751 96.34566 58.52843 1.24133 2.40047 1.45843 14.43024 1.45843 80.8142v77.99389l-2.25 2.55648c-1.86628 2.12049-66.90394 40.78736-124.15534 73.81413-13.6249 7.85983-19.39333 9.82917-23.59466 8.05521zm-10.13446-84.65228c1.32904-1.60139 3.69534-9.21145 17.66545-56.81244 5.8674-19.99226 14.63175-49.62458 19.47633-65.84958 6.69422-22.41963 8.53043-29.78384 7.6505-30.68259-1.45726-1.48843-14.26376-6.31741-16.75383-6.31741-1.02183 0-2.4808 1.0125-3.24214 2.25-.76135 1.2375-4.79895 13.95-8.97245 28.25-36.03081 123.45531-35.84203 122.77628-34.50136 124.10165 1.43126 1.41494 13.31631 6.10083 15.93952 6.28444.89515.0627 2.12725-.48818 2.73798-1.22407zm72.63446-35.01897c4.4-3.35977 17.7875-13.89519 29.75-23.41206 26.3316-20.94834 26.24903-20.76566 13.75-30.41978-2.475-1.91166-15.075-11.80367-28-21.98224-28.53224-22.46943-27.48602-21.77152-29.54715-19.71039-2.466 2.466-2.43509 20.13858.04 22.87352.99815 1.10295 9.38387 7.74343 18.63494 14.75663 9.25106 7.0132 16.83184 12.99252 16.84616 13.28738.0143.29486-7.62623 6.72669-16.97903 14.29294-9.35279 7.56625-17.71689 14.84319-18.58689 16.17098-2.33277 3.56025-2.20706 19.44255.16763 21.17896 2.16496 1.58306 3.55978.87825 13.92434-7.03594zm-100.7 6.15696c1.8826-1.8826 1.58142-17.81043-.38999-20.62502-.8745-1.24852-9.41873-8.52972-18.98718-16.18045l-17.39718-13.91042 16.07226-12.22033c23.88754-18.16258 22.02851-15.76744 21.6878-27.94204-.36633-13.08993-1.39464-14.09141-8.59175-8.3676-2.72883 2.17022-15.02631 11.82085-27.32773 21.44585-23.79463 18.61762-31.86623 25.77232-31.86623 28.24636 0 .84265.7875 2.41973 1.75 3.50464 1.49484 1.68494 31.04492 24.88837 53.55977 42.05642 6.93667 5.28935 9.35363 6.12919 11.49023 3.99259zm-436.8 95.83121c-10.175-3.52533-37.4-13.16817-60.5-21.42853-23.1-8.26035-54.71624-19.55057-70.2583-25.08936-15.54206-5.5388-29.57724-10.75259-31.18929-11.58622-6.43283-3.32654-6.0524 2.24243-6.0524-88.60173V84.08196l2.28003-3.38336c2.14344-3.18064 4.46523-4.16657 38.75-16.4549 89.18138-31.96435 144.5983-51.47968 146.15463-51.46903 2.60119.0178 26.06151 8.53853 98.31533 35.7079 15.4 5.79082 35.14824 13.19478 43.88499 16.45325 20.88165 7.78806 22.25523 8.5579 21.05838 11.80237-1.21555 3.29518-11.84698 17.01298-12.44071 16.05232-.77009-1.24603-6.13129-3.35048-51.00266-20.02024-18.975-7.04923-45.47626-16.90442-58.89169-21.90042-13.41543-4.99601-24.77793-9.08365-25.25-9.08365-.47313 0-.85831 55.64702-.85831 124 0 93.44996.28598 124.00001 1.16078 124.00001.63842 0 20.10092-7.02553 43.25-15.6123 50.84927-18.86169 84.44909-31.06344 87.97786-31.94911l2.61136-.65541v10.15387c0 9.19863-.21167 10.36488-2.25 12.39699-2.15979 2.15319-11.26994 5.72404-66.75 26.16361-12.925 4.76173-35.425 13.09658-50 18.52187-14.575 5.4253-27.625 10.12455-29 10.44278-1.66026.38426-8.71404-1.57437-21-5.83109zm9.69245-272.2721c-.31293-.31293-24.60383 7.9374-34.19245 11.61336-2.75 1.05426-10.4 3.77616-17 6.04867-6.6 2.2725-16.275 5.65693-21.5 7.52093-5.225 1.86401-23.9 8.4036-41.5 14.53241-17.6 6.12882-33.9125 11.8116-36.25 12.6284l-4.25 1.48511v143.67723l2.25.66684c2.81882.83543 29.04187 9.87585 37.75 13.01436 3.575 1.28847 20.9 7.36999 38.5 13.51449 17.6 6.1445 38.975 13.6345 47.5 16.64444 8.525 3.00995 18.425 6.48679 22 7.72633l6.5 2.25369.25388-125.50549c.13963-69.02801.11198-125.64736-.0614-125.82078zm-38.02315 212.5954c-1.43022-1.12501-3.0634-3.71251-3.62928-5.75-1.44815-5.21416-1.42302-160.06347.0266-163.88942 2.30674-6.08816 8.47653-9.54704 13.93774-7.81372 5.00306 1.5879 4.99565 1.45625 4.99565 88.81728 0 55.45314-.34245 82.36527-1.07482 84.46614-2.08383 5.97766-9.28118 8.08282-14.25588 4.16972zm-43.20742-11.23364c-1.69817-1.4607-2.9594-3.88462-3.51222-6.75-1.22139-6.33075-1.19312-132.6352.0306-136.9022 1.51541-5.28394 5.69538-9.06868 10.01566-9.06868 5.51515 0 7.25991 1.85623 8.1027 8.62043.90172 7.23708 1.12753 128.85169.25278 136.13448-.80666 6.71582-3.82018 10.2451-8.74793 10.2451-2.19283 0-4.47776-.84793-6.14163-2.27913zm-42.7119-11.80098c-4.69267-2.73322-4.74998-3.46209-4.74998-60.40235 0-57.5462.0664-58.34937 5.11687-61.88686 2.38696-1.67189 6.46371-2.1126 9.33832-1.00951 4.43662 1.70249 4.54481 3.17552 4.54481 61.87883 0 58.7033-.10819 60.17633-4.5448 61.87882-2.44732.93912-7.73414.68912-9.70523-.45893zm299.25002 6.63682v-18.44329l28.25-25.71508c44.89055-40.86247 51.00539-47.25938 56.53062-59.13833 7.52899-16.18692-.72851-32.98515-17.83919-36.29025-7.48032-1.4449-13.84652-.37814-20.12176 3.37173-6.1634 3.68303-11.34938 11.33955-12.39261 18.29631l-.65415 4.36219h-35.0491l.67345-6.57323c3.29866-32.19689 29.5621-55.47601 62.5127-55.4094 47.3586.09572 76.13396 42.64244 57.15264 84.50484-3.36591 7.42335-11.44585 18.76064-19.51001 27.37528-5.72558 6.11641-37.58614 35.61563-44.80259 41.48206-2.6125 2.12376-4.75 4.24033-4.75 4.70349 0 .46316 17.10009.74646 38.00019.62954l38.00019-.21257-.00019 17.75-.00019 17.75h-126zm-117.88993 6.04778c-5.16547-2.863-5.03665-.85927-5.07463-78.93142l-.0354-72.82693 2.92308-2.92308c3.87937-3.87937 7.97296-3.88117 12.31114-.0054l3.26578 2.91767.26923 72.59483c.23847 64.30233.0902 72.94098-1.2979 75.62529-2.38495 4.61198-7.69358 6.13615-12.36126 3.54905zm46.38993-12.54985c-1.1-.45022-2.9-1.81868-4-3.04103-1.94295-2.15905-2.00863-3.85244-2.30257-59.36802-.20743-39.17652.0405-58.32293.7884-60.88978 1.14354-3.92462 4.94226-6.75582 9.06451-6.75582 1.18231 0 3.67966 1.53 5.54966 3.4l3.4 3.4v58.66574c0 40.1117-.34172 59.30427-1.08049 60.68467-.59427 1.1104-2.60482 2.65582-4.46788 3.43426-3.8084 1.59125-4.15487 1.61467-6.95163.46998z"/></svg>