<?xml version="1.0" encoding="utf-8"?>
<!-- Generator: Adobe Illustrator 21.1.0, SVG Export Plug-In . SVG Version: 6.00 Build 0)  -->
<svg version="1.1" id="Layer_1" xmlns="http://www.w3.org/2000/svg" xmlns:xlink="http://www.w3.org/1999/xlink" x="0px" y="0px"
	 viewBox="0 0 288 387.2" style="enable-background:new 0 0 288 387.2;" xml:space="preserve">
<style type="text/css">
	.st0{fill:#D2E4F4;}
	.st1{fill:#F3C887;}
	.st2{fill:#9DB57F;}
	.st3{fill:#829F60;}
	.st4{fill:#B5CA9C;}
	.st5{fill:#86AE4F;}
	.st6{fill:#89AC5F;}
	.st7{fill:#708E48;}
	.st8{fill:#739648;}
	.st9{fill:#485D2A;}
	.st10{fill:#A4C27F;}
	.st11{fill:#49652F;}
	.st12{fill:#648140;}
	.st13{fill:#557234;}
	.st14{fill:#7BA848;}
	.st15{fill:#456DAA;}
	.st16{fill:#34679A;}
	.st17{fill:#77C4D5;}
	.st18{fill:#666766;}
	.st19{fill:#CB9866;}
	.st20{fill:#DBB27B;}
</style>
<g>
	<g>
		<path id="XMLID_207_" class="st18" d="M21,321.6c2.8,0,5-1.1,6.7-3.3l3.6,3.7c-2.8,3.2-6.2,4.8-10.1,4.8c-3.9,0-7-1.2-9.5-3.7
			c-2.5-2.4-3.8-5.5-3.8-9.2c0-3.7,1.3-6.8,3.8-9.3c2.5-2.5,5.7-3.7,9.4-3.7c4.1,0,7.6,1.6,10.3,4.7l-3.5,3.9
			c-1.8-2.2-4-3.3-6.6-3.3c-2.1,0-3.9,0.7-5.4,2.1c-1.5,1.4-2.2,3.2-2.2,5.6s0.7,4.2,2.1,5.6C17.3,320.9,19,321.6,21,321.6z"/>
		<path id="XMLID_205_" class="st18" d="M35.8,326.6v-25.1h5.6v20.1h10.7v5H35.8z"/>
		<path id="XMLID_157_" class="st18" d="M76.6,323.1c-2.5,2.5-5.7,3.7-9.4,3.7c-3.7,0-6.8-1.2-9.4-3.7c-2.5-2.5-3.8-5.6-3.8-9.2
			c0-3.7,1.3-6.8,3.8-9.2c2.5-2.5,5.7-3.7,9.4-3.7c3.7,0,6.8,1.2,9.4,3.7c2.5,2.5,3.8,5.6,3.8,9.2C80.4,317.5,79.1,320.6,76.6,323.1
			z M74.7,313.9c0-2.2-0.7-4.1-2.2-5.7c-1.4-1.6-3.2-2.4-5.3-2.4c-2.1,0-3.9,0.8-5.3,2.4c-1.4,1.6-2.2,3.5-2.2,5.7
			c0,2.2,0.7,4.1,2.2,5.7c1.4,1.6,3.2,2.4,5.3,2.4c2.1,0,3.9-0.8,5.3-2.4C74,318,74.7,316.1,74.7,313.9z"/>
		<path id="XMLID_155_" class="st18" d="M91.8,320.1c0.9,1.2,2.2,1.7,3.8,1.7c1.6,0,2.8-0.6,3.8-1.7c0.9-1.2,1.4-2.7,1.4-4.8v-13.9
			h5.6v14c0,3.6-1,6.4-3,8.4c-2,2-4.6,2.9-7.7,2.9c-3.1,0-5.7-1-7.7-2.9c-2-2-3-4.8-3-8.4v-14h5.6v13.9
			C90.4,317.3,90.8,318.9,91.8,320.1z"/>
		<path id="XMLID_151_" class="st18" d="M131.3,304.7c2.4,2.2,3.6,5.2,3.6,9.1s-1.2,7-3.5,9.3c-2.3,2.3-5.9,3.4-10.7,3.4h-8.6v-25.1
			h8.9C125.4,301.5,128.9,302.6,131.3,304.7z M127.1,319.7c1.4-1.3,2.1-3.2,2.1-5.6c0-2.5-0.7-4.4-2.1-5.7c-1.4-1.3-3.5-2-6.3-2
			h-3.1v15.3h3.6C123.8,321.6,125.8,321,127.1,319.7z"/>
		<path id="XMLID_103_" class="st18" d="M166.7,301.5h5.6v25.1h-5.6l-12-15.7v15.7h-5.6v-25.1h5.2l12.3,16.2V301.5z"/>
		<path id="XMLID_100_" class="st18" d="M196.4,326.6l-2.3-5.4h-10.5l-2.3,5.4h-6l10.8-25.1h5.4l10.8,25.1H196.4z M188.8,308.9
			l-3.2,7.3h6.3L188.8,308.9z"/>
		<path id="XMLID_98_" class="st18" d="M214,306.3v20.2h-5.6v-20.2h-7.1v-4.8h19.8v4.8H214z"/>
		<path id="XMLID_96_" class="st18" d="M225.2,301.5h5.6v25.1h-5.6V301.5z"/>
		<path id="XMLID_94_" class="st18" d="M246.3,317.4l6.4-16h6.1l-10.1,25.1h-4.7l-10.1-25.1h6.1L246.3,317.4z"/>
		<path id="XMLID_12_" class="st18" d="M279.8,301.5v5h-12.5v5.2h11.2v4.8h-11.2v5.2h12.9v5h-18.5v-25.1H279.8z"/>
	</g>
	<g>
		<path class="st19" d="M8,367.3l2.5-2.9c3.7,3.3,7.2,5,12,5c4.7,0,7.8-2.5,7.8-6v-0.1c0-3.3-1.8-5.1-9.1-6.7
			c-8.1-1.8-11.8-4.4-11.8-10.1v-0.1c0-5.5,4.9-9.6,11.5-9.6c5.1,0,8.8,1.5,12.3,4.3l-2.3,3.1c-3.3-2.7-6.5-3.8-10.1-3.8
			c-4.6,0-7.5,2.5-7.5,5.7v0.1c0,3.3,1.8,5.2,9.5,6.8c7.8,1.7,11.4,4.6,11.4,9.9v0.1c0,6-5,9.9-12,9.9C16.7,372.9,12.2,371,8,367.3z
			"/>
		<path class="st19" d="M57.1,337.1h3.7l16,35.3h-4.3l-4.1-9.3H49.3l-4.2,9.3h-4.1L57.1,337.1z M66.8,359.6l-8-17.9l-8,17.9H66.8z"
			/>
		<path class="st19" d="M86.2,337.3h3.7l22.1,28.1v-28.1h3.9v35.1h-3.2L90,343.7v28.7h-3.9V337.3z"/>
		<path class="st19" d="M128.2,337.3h12.2c11,0,18.6,7.6,18.6,17.4v0.1c0,9.9-7.6,17.5-18.6,17.5h-12.2V337.3z M140.4,368.7
			c8.9,0,14.5-6,14.5-13.8v-0.1c0-7.8-5.7-13.9-14.5-13.9h-8.2v27.7H140.4z"/>
		<path class="st19" d="M169.9,337.3h14.9c4,0,7.2,1.2,9.2,3.1c1.5,1.5,2.3,3.4,2.3,5.6v0.1c0,4.6-2.8,6.9-5.6,8.1
			c4.2,1.3,7.5,3.7,7.5,8.5v0.1c0,6-5.1,9.6-12.7,9.6h-15.6V337.3z M184.2,353c4.8,0,8.1-2.2,8.1-6.3v-0.1c0-3.5-2.8-5.7-7.8-5.7
			h-10.7V353H184.2z M185.6,368.8c5.3,0,8.6-2.4,8.6-6.3v-0.1c0-3.8-3.2-6-9.3-6h-11.1v12.4H185.6z"/>
		<path class="st19" d="M207,355v-0.1c0-9.7,7.3-18.1,17.9-18.1c10.7,0,17.8,8.4,17.8,18v0.1c0,9.7-7.3,18.1-17.9,18.1
			C214.2,373,207,364.6,207,355z M238.7,355v-0.1c0-8-5.8-14.5-13.8-14.5c-8,0-13.7,6.4-13.7,14.4v0.1c0,8,5.8,14.5,13.8,14.5
			C233,369.3,238.7,362.9,238.7,355z"/>
		<path class="st19" d="M262,354.5l-13-17.2h4.7l10.8,14.3l10.7-14.3h4.6l-13,17.1l13.5,17.9h-4.7l-11.2-15.1L253,372.4h-4.6
			L262,354.5z"/>
	</g>
</g>
<g>
	<path class="st0" d="M98.2,47.3L97.9,47H46.4v51.5l0.3,0.4l-0.3,34.1V145c7-4.4,13.4-9.4,20.3-13.8c10.8-6.8,22.8-10.1,36.1-8.8
		l38.6,11.9c6.8,4.3,13.8,8.4,21.5,11.3c6.1,2.2,12.3,2,18.3-0.4c9.3-3.7,18.6-6.9,28.7-8.8c11.6-2.1,21.7,0.6,31.1,6v-4.6V99V47
		h-51.8h-56.8L98.2,47.3z"/>
	<path class="st20" d="M209.8,136.4c-10,1.8-19.4,5.1-28.7,8.8c-6,2.4-12.2,2.7-18.3,0.4c-7.7-2.9-14.6-7-21.5-11.3l-38.6-11.9
		c-13.3-1.3-25.3,2-36.1,8.8c-6.9,4.4-13.4,9.5-20.3,13.8v44.8v52h51.8h39h17.7l34.2-0.3l0.3,0.3h51.5V190l-0.3-0.3l0.3-34.1v-13.2
		C231.6,136.9,221.5,134.3,209.8,136.4z"/>
	<polygon class="st15" points="98.2,241.7 46.4,241.7 46.4,189.8 7.4,189.8 7.4,280.5 98.2,280.5 	"/>
	<polygon class="st15" points="240.6,189.8 240.9,190 240.9,241.7 189.4,241.7 189.1,241.4 189.1,280.5 279.9,280.5 279.9,189.8 	
		"/>
	<polygon class="st15" points="46.7,99 46.4,98.5 46.4,47 97.9,47 98.2,47.3 98.2,8 7.4,8 7.4,99 	"/>
	<polygon class="st16" points="189.1,8 189.1,47 240.9,47 240.9,99 279.9,99 279.9,8 	"/>
	<polygon class="st17" points="98.2,47.3 132.3,47 189.1,47 189.1,8 98.2,8 	"/>
	<polygon class="st17" points="189.1,241.4 154.9,241.7 137.2,241.7 98.2,241.7 98.2,280.5 189.1,280.5 	"/>
	<polygon class="st17" points="240.9,99 240.9,137.8 240.9,142.4 240.9,155.7 240.6,189.8 279.9,189.8 279.9,99 	"/>
	<polygon class="st17" points="46.4,189.8 46.4,145 46.4,133.1 46.7,99 7.4,99 7.4,189.8 	"/>
</g>
</svg>
