<svg xmlns="http://www.w3.org/2000/svg" viewBox="0 0 303.99 274.74"><defs><style>.cls-1{fill:#fff;}</style></defs><g id="图层_2" data-name="图层 2"><g id="图层_1-2" data-name="图层 1"><path class="cls-1" d="M41.44,169,4.68,190.19A9.34,9.34,0,0,0,0,198.29v42.45a9.34,9.34,0,0,0,4.68,8.1l36.76,21.23a9.37,9.37,0,0,0,9.36,0L90.06,247.4a9.31,9.31,0,0,1,4.68-1.26h56.75a9.36,9.36,0,0,0,9.36-9.36V202.25a9.36,9.36,0,0,0-9.36-9.36H94.74a9.4,9.4,0,0,1-4.68-1.25L50.8,169A9.37,9.37,0,0,0,41.44,169Z"/><path class="cls-1" d="M256.63,167.69l-24.42-39.26a9.37,9.37,0,0,0-12.63-3.17l-29.9,17.27a9.35,9.35,0,0,0-3.27,13L210.34,194a9.41,9.41,0,0,1,1.41,4.94v45.18a9.37,9.37,0,0,0,4.68,8.11l36.76,21.22a9.37,9.37,0,0,0,9.36,0l36.76-21.22a9.39,9.39,0,0,0,4.68-8.11V201.72a9.37,9.37,0,0,0-4.68-8.11L259.9,170.86A9.28,9.28,0,0,1,256.63,167.69Z"/><path class="cls-1" d="M154,103.9l39.43-22.77a9.34,9.34,0,0,0,4.68-8.1V30.58a9.34,9.34,0,0,0-4.68-8.1L156.67,1.25a9.37,9.37,0,0,0-9.36,0L110.55,22.48a9.37,9.37,0,0,0-4.68,8.1V75.73a9.37,9.37,0,0,1-1.43,5L79.35,120.59a9.36,9.36,0,0,0,3.24,13.09l29.9,17.26a9.37,9.37,0,0,0,12.6-3.12L150.76,107A9.31,9.31,0,0,1,154,103.9Z"/></g></g></svg>