<?xml version="1.0" encoding="utf-8"?>
<!-- Generator: Adobe Illustrator 21.1.0, SVG Export Plug-In . SVG Version: 6.00 Build 0)  -->
<svg version="1.1" id="Layer_1" xmlns="http://www.w3.org/2000/svg" xmlns:xlink="http://www.w3.org/1999/xlink" x="0px" y="0px"
	 viewBox="0 0 239 210" style="enable-background:new 0 0 239 210;" xml:space="preserve">
<g>
	<path d="M3.6,192.8v12.6H1.3v-31.2h8c3.7,0,6.4,0.8,8.3,2.4c1.9,1.6,2.8,3.9,2.8,6.9c0,1.4-0.3,2.6-0.8,3.8c-0.5,1.1-1.2,2.1-2.2,3
		c-1,0.8-2.1,1.5-3.5,1.9c-1.4,0.5-2.9,0.7-4.6,0.7L3.6,192.8L3.6,192.8z M3.6,191h5.8c1.4,0,2.6-0.2,3.7-0.6c1.1-0.4,2-0.9,2.8-1.6
		c0.8-0.7,1.3-1.5,1.7-2.4c0.4-0.9,0.6-1.9,0.6-3c0-2.4-0.7-4.2-2.2-5.5c-1.5-1.3-3.7-1.9-6.6-1.9H3.6L3.6,191L3.6,191z"/>
	<path d="M27.9,205.4v-21.9H29c0.2,0,0.4,0.1,0.5,0.2c0.1,0.1,0.2,0.3,0.2,0.5l0.2,4.6c0.7-1.8,1.6-3.2,2.8-4.2
		c1.2-1,2.6-1.5,4.3-1.5c0.7,0,1.3,0.1,1.8,0.2s1.1,0.3,1.6,0.6l-0.3,1.5c0,0.2-0.2,0.4-0.4,0.4c-0.1,0-0.2,0-0.4-0.1
		c-0.2-0.1-0.4-0.1-0.6-0.2c-0.2-0.1-0.5-0.1-0.9-0.2c-0.4-0.1-0.8-0.1-1.2-0.1c-1.7,0-3,0.5-4.1,1.5c-1.1,1-1.9,2.5-2.6,4.5v14.3
		L27.9,205.4L27.9,205.4z"/>
	<path d="M56,183.1c1.6,0,3,0.3,4.2,0.8c1.2,0.5,2.3,1.3,3.1,2.3s1.5,2.2,1.9,3.6c0.4,1.4,0.7,2.9,0.7,4.7c0,1.7-0.2,3.3-0.7,4.6
		c-0.4,1.4-1.1,2.6-1.9,3.5c-0.9,1-1.9,1.7-3.1,2.3c-1.2,0.5-2.6,0.8-4.2,0.8c-1.6,0-3-0.3-4.2-0.8c-1.2-0.5-2.3-1.3-3.1-2.3
		s-1.5-2.2-2-3.5c-0.4-1.4-0.7-2.9-0.7-4.6c0-1.7,0.2-3.3,0.7-4.7c0.4-1.4,1.1-2.6,2-3.6c0.9-1,1.9-1.7,3.1-2.3
		C53.1,183.4,54.5,183.1,56,183.1z M56,204c1.3,0,2.4-0.2,3.4-0.7c1-0.4,1.8-1.1,2.4-1.9c0.7-0.8,1.1-1.8,1.5-3
		c0.3-1.2,0.5-2.5,0.5-4c0-1.5-0.2-2.8-0.5-4s-0.8-2.2-1.5-3c-0.7-0.8-1.5-1.5-2.4-2c-1-0.5-2.1-0.7-3.4-0.7c-1.3,0-2.4,0.2-3.4,0.7
		c-1,0.5-1.8,1.1-2.4,2c-0.7,0.8-1.1,1.9-1.5,3c-0.3,1.2-0.5,2.5-0.5,4c0,1.5,0.2,2.8,0.5,4c0.3,1.2,0.8,2.2,1.5,3
		c0.7,0.8,1.5,1.5,2.4,1.9C53.6,203.8,54.7,204,56,204z"/>
	<path d="M73.3,205.4v-21.9h1.1c0.4,0,0.6,0.2,0.7,0.6l0.2,3.2c0.4-0.6,0.9-1.2,1.4-1.7c0.5-0.5,1-0.9,1.6-1.3
		c0.5-0.4,1.1-0.6,1.8-0.8c0.6-0.2,1.3-0.3,2-0.3c1.6,0,2.9,0.5,3.8,1.4c1,0.9,1.6,2.2,1.9,3.9c0.3-0.9,0.6-1.7,1.1-2.4
		c0.5-0.7,1-1.2,1.6-1.6c0.6-0.4,1.3-0.8,2-1c0.7-0.2,1.5-0.3,2.2-0.3c1.1,0,2.1,0.2,2.9,0.5c0.9,0.4,1.6,0.9,2.2,1.6
		c0.6,0.7,1.1,1.6,1.4,2.6c0.3,1,0.5,2.2,0.5,3.5v14h-2.1v-14c0-2.1-0.5-3.8-1.4-4.9c-0.9-1.1-2.2-1.7-4-1.7c-0.8,0-1.5,0.1-2.2,0.4
		s-1.3,0.7-1.9,1.2c-0.5,0.6-1,1.2-1.3,2.1c-0.3,0.8-0.5,1.8-0.5,2.9v14h-2.1v-14c0-2.1-0.4-3.8-1.3-4.9c-0.9-1.1-2.1-1.7-3.7-1.7
		c-1.2,0-2.3,0.4-3.3,1.1c-1,0.7-1.9,1.7-2.7,3v16.6L73.3,205.4L73.3,205.4z"/>
	<path d="M118.3,183.1c1.2,0,2.4,0.2,3.4,0.6c1.1,0.4,2,1,2.7,1.9s1.4,1.8,1.8,3c0.4,1.2,0.6,2.6,0.6,4.1c0,0.3,0,0.5-0.1,0.7
		c-0.1,0.1-0.2,0.2-0.4,0.2h-15.8v0.4c0,1.6,0.2,3.1,0.6,4.3c0.4,1.2,0.9,2.3,1.6,3.1c0.7,0.8,1.6,1.5,2.6,1.9
		c1,0.4,2.1,0.6,3.3,0.6c1.1,0,2.1-0.1,2.9-0.4c0.8-0.2,1.5-0.5,2-0.8c0.6-0.3,1-0.6,1.3-0.8c0.3-0.2,0.6-0.4,0.7-0.4
		c0.2,0,0.3,0.1,0.4,0.2l0.6,0.7c-0.4,0.4-0.8,0.9-1.4,1.2c-0.6,0.4-1.2,0.7-1.9,1c-0.7,0.3-1.5,0.5-2.3,0.6
		c-0.8,0.2-1.6,0.2-2.5,0.2c-1.5,0-2.9-0.3-4.1-0.8c-1.2-0.5-2.3-1.3-3.2-2.3c-0.9-1-1.6-2.2-2-3.7c-0.5-1.4-0.7-3.1-0.7-5
		c0-1.6,0.2-3,0.7-4.4c0.4-1.3,1.1-2.5,1.9-3.4c0.8-1,1.9-1.7,3.1-2.3C115.4,183.4,116.8,183.1,118.3,183.1z M118.4,184.7
		c-1.1,0-2.1,0.2-3,0.5c-0.9,0.4-1.7,0.9-2.3,1.5c-0.7,0.7-1.2,1.5-1.6,2.4c-0.4,0.9-0.7,2-0.8,3.1h14.4c0-1.2-0.2-2.2-0.5-3.2
		c-0.3-0.9-0.8-1.7-1.4-2.4c-0.6-0.6-1.3-1.1-2.1-1.5C120.3,184.9,119.4,184.7,118.4,184.7z"/>
	<path d="M139.4,205.7c-1.5,0-2.6-0.4-3.5-1.2s-1.2-2.1-1.2-3.8v-15h-3.1c-0.2,0-0.3,0-0.4-0.1c-0.1-0.1-0.2-0.2-0.2-0.4v-0.8
		l3.7-0.3l0.5-7.8c0-0.1,0.1-0.2,0.2-0.4c0.1-0.1,0.2-0.2,0.4-0.2h1v8.4h6.9v1.6h-6.9v14.9c0,0.6,0.1,1.1,0.2,1.6
		c0.2,0.4,0.4,0.8,0.6,1.1s0.6,0.5,1,0.6c0.4,0.1,0.8,0.2,1.2,0.2c0.5,0,1-0.1,1.4-0.2c0.4-0.2,0.7-0.3,1-0.5
		c0.3-0.2,0.5-0.4,0.7-0.5c0.2-0.2,0.3-0.2,0.4-0.2c0.1,0,0.2,0.1,0.4,0.2l0.6,0.9c-0.6,0.6-1.3,1.1-2.1,1.5
		C141.2,205.6,140.3,205.7,139.4,205.7z"/>
	<path d="M150.9,205.4v-32.1h2.1v13.9c1-1.2,2.2-2.2,3.5-3c1.3-0.7,2.8-1.1,4.4-1.1c1.2,0,2.3,0.2,3.2,0.6c0.9,0.4,1.7,0.9,2.3,1.7
		c0.6,0.7,1.1,1.6,1.4,2.6c0.3,1,0.5,2.2,0.5,3.4v14H166v-14c0-2.1-0.5-3.7-1.4-4.8c-0.9-1.2-2.4-1.8-4.3-1.8c-1.4,0-2.8,0.4-4,1.1
		c-1.2,0.7-2.3,1.8-3.3,3.1v16.4L150.9,205.4L150.9,205.4z"/>
	<path d="M184.8,183.1c1.2,0,2.4,0.2,3.4,0.6c1.1,0.4,2,1,2.7,1.9s1.4,1.8,1.8,3c0.4,1.2,0.6,2.6,0.6,4.1c0,0.3,0,0.5-0.1,0.7
		c-0.1,0.1-0.2,0.2-0.4,0.2H177v0.4c0,1.6,0.2,3.1,0.6,4.3c0.4,1.2,0.9,2.3,1.6,3.1c0.7,0.8,1.6,1.5,2.6,1.9c1,0.4,2.1,0.6,3.3,0.6
		c1.1,0,2.1-0.1,2.9-0.4c0.8-0.2,1.5-0.5,2-0.8c0.6-0.3,1-0.6,1.3-0.8c0.3-0.2,0.6-0.4,0.7-0.4c0.2,0,0.3,0.1,0.4,0.2l0.6,0.7
		c-0.4,0.4-0.8,0.9-1.4,1.2c-0.6,0.4-1.2,0.7-1.9,1c-0.7,0.3-1.5,0.5-2.3,0.6c-0.8,0.2-1.6,0.2-2.5,0.2c-1.5,0-2.9-0.3-4.1-0.8
		c-1.2-0.5-2.3-1.3-3.2-2.3c-0.9-1-1.6-2.2-2-3.7c-0.5-1.4-0.7-3.1-0.7-5c0-1.6,0.2-3,0.7-4.4c0.4-1.3,1.1-2.5,1.9-3.4
		c0.8-1,1.9-1.7,3.1-2.3C181.8,183.4,183.2,183.1,184.8,183.1z M184.8,184.7c-1.1,0-2.1,0.2-3,0.5c-0.9,0.4-1.7,0.9-2.3,1.5
		c-0.7,0.7-1.2,1.5-1.6,2.4c-0.4,0.9-0.7,2-0.8,3.1h14.4c0-1.2-0.2-2.2-0.5-3.2c-0.3-0.9-0.8-1.7-1.4-2.4c-0.6-0.6-1.3-1.1-2.1-1.5
		C186.7,184.9,185.8,184.7,184.8,184.7z"/>
	<path d="M201.4,183.5v14c0,2.1,0.5,3.7,1.4,4.8c0.9,1.2,2.4,1.8,4.3,1.8c1.4,0,2.8-0.4,4-1.1c1.2-0.7,2.4-1.7,3.3-3v-16.5h2.1v21.9
		h-1.2c-0.4,0-0.6-0.2-0.6-0.6l-0.2-3.3c-1,1.3-2.2,2.3-3.5,3c-1.3,0.8-2.8,1.1-4.4,1.1c-1.2,0-2.3-0.2-3.2-0.6
		c-0.9-0.4-1.7-0.9-2.3-1.7c-0.6-0.7-1.1-1.6-1.4-2.6c-0.3-1-0.5-2.2-0.5-3.4v-14L201.4,183.5L201.4,183.5z"/>
	<path d="M236.7,186.2c-0.1,0.2-0.3,0.3-0.5,0.3c-0.2,0-0.4-0.1-0.6-0.3c-0.3-0.2-0.6-0.4-1-0.6c-0.4-0.2-0.9-0.4-1.5-0.6
		s-1.4-0.3-2.2-0.3c-0.8,0-1.5,0.1-2.2,0.3s-1.2,0.5-1.7,0.9c-0.5,0.4-0.8,0.8-1.1,1.3c-0.3,0.5-0.4,1-0.4,1.6
		c0,0.7,0.2,1.3,0.5,1.7c0.4,0.5,0.8,0.8,1.4,1.2c0.6,0.3,1.2,0.6,2,0.8c0.7,0.2,1.5,0.5,2.2,0.7s1.5,0.5,2.2,0.8
		c0.7,0.3,1.4,0.6,2,1.1c0.6,0.4,1,0.9,1.4,1.6c0.4,0.6,0.5,1.4,0.5,2.2c0,1-0.2,1.8-0.5,2.7c-0.3,0.8-0.8,1.5-1.5,2.1
		c-0.7,0.6-1.5,1.1-2.4,1.4c-1,0.4-2,0.5-3.3,0.5c-1.5,0-2.9-0.2-4-0.7c-1.1-0.5-2.1-1.1-3-1.9l0.5-0.7c0.1-0.1,0.2-0.2,0.2-0.3
		c0.1-0.1,0.2-0.1,0.4-0.1c0.2,0,0.4,0.1,0.7,0.4c0.3,0.2,0.6,0.5,1.1,0.8c0.4,0.3,1,0.5,1.7,0.8c0.7,0.2,1.5,0.4,2.5,0.4
		c0.9,0,1.7-0.1,2.4-0.4c0.7-0.3,1.3-0.6,1.8-1c0.5-0.4,0.8-1,1.1-1.6c0.2-0.6,0.4-1.2,0.4-1.9c0-0.7-0.2-1.3-0.5-1.8
		c-0.4-0.5-0.8-0.9-1.4-1.2c-0.6-0.3-1.2-0.6-2-0.9c-0.7-0.2-1.5-0.5-2.2-0.7s-1.5-0.5-2.2-0.8c-0.7-0.3-1.4-0.6-2-1.1
		c-0.6-0.4-1-0.9-1.4-1.6c-0.4-0.6-0.5-1.4-0.5-2.3c0-0.8,0.2-1.5,0.5-2.2c0.3-0.7,0.8-1.4,1.4-1.9s1.4-1,2.3-1.3
		c0.9-0.3,1.9-0.5,3-0.5c1.3,0,2.5,0.2,3.6,0.6s2,1,2.9,1.8L236.7,186.2z"/>
</g>
<g>
	<path d="M119.6,2.4c41.5,0,75.5,33.6,75.5,74.5c-0.1,41.5-34,74.7-76.4,74.7c-41.4,0-75-33.7-74.9-75.3C43.9,35.7,78,2.4,119.6,2.4
		z M96.7,28.6c1,4.7,0,9-1.4,13.3c-1,3-2.3,5.8-3.1,8.8c-1.3,4.9-2.8,9.9-3.4,15c-0.8,7.3,2.1,13.7,7,20c-8-1.7-15.2-3.2-22.6-4.7
		c0,0.7,0,1,0.1,1.2c2.1,6.3,5.9,11.5,10.1,16.5c0.4,0.5,1.5,0.8,2.2,0.8c22.5,0,45,0,67.6,0c0.7,0,1.6-0.1,2.1-0.6
		c4.8-5,8.5-10.8,10.8-18c-8.3,1.6-16.1,3.1-23.9,4.7c1.6-3.1,3.4-5.8,4.4-8.7c3.5-10.2,2.1-20-3-29.2c-4.1-7.4-7.8-14.8-5.8-23.8
		c-4.3,4.2-6,9.6-7,15.2c-1,5.5-1.6,11-2.4,16.5c-0.1-0.2-0.3-0.3-0.3-0.4c-0.1-0.6-0.2-1.2-0.2-1.8c-0.5-9.1-2.3-17.8-6-26.2
		c-2.2-4.9-4.7-9.9-2.4-15.8c-1.5,0.8-2.9,1.6-3.9,2.8c-3,3.4-4.2,7.6-4.5,12.1c-0.3,3.9-0.6,7.7-1.4,11.5c-0.8,4-2,7.9-4.6,11.6
		C103.8,41.3,103.7,33.6,96.7,28.6z M154.8,106.3c-23.8,0-47.2,0-70.6,0c0,4.2,0,8.2,0,12.2c23.6,0,47.1,0,70.6,0
		C154.8,114.3,154.8,110.4,154.8,106.3z M98.1,124.8c-0.1,10.2,10.3,17.7,23.2,17.2c10.7-0.5,20.1-8.8,19.3-17.2
		C126.5,124.8,112.4,124.8,98.1,124.8z"/>
</g>
</svg>
