<?xml version="1.0" encoding="utf-8"?>
<!-- Generator: Adobe Illustrator 21.1.0, SVG Export Plug-In . SVG Version: 6.00 Build 0)  -->
<svg version="1.1" id="Layer_1" xmlns="http://www.w3.org/2000/svg" xmlns:xlink="http://www.w3.org/1999/xlink" x="0px" y="0px"
	 viewBox="0 0 351.3 79" style="enable-background:new 0 0 351.3 79;" xml:space="preserve">
<style type="text/css">
	.st0{fill:#FFFFFF;}
	.st1{fill:#666766;}
	.st2{fill:#CB9866;}
	.st3{fill:#D2E4F4;}
	.st4{fill:#DBB27B;}
	.st5{fill:#456DAA;}
	.st6{fill:#34679A;}
	.st7{fill:#77C4D5;}
	.st8{opacity:0.2;fill:#FFFFFF;}
	.st9{opacity:0.4;fill:#FFFFFF;}
	.st10{opacity:0.8;fill:#FFFFFF;}
	.st11{opacity:0.6;fill:#FFFFFF;}
</style>
<g>
	<path id="XMLID_207_" class="st0" d="M96.9,24.5c2.7,0,4.9-1.1,6.5-3.2l3.5,3.6c-2.8,3.1-6,4.7-9.8,4.7c-3.7,0-6.8-1.2-9.3-3.6
		c-2.4-2.4-3.6-5.4-3.6-9c0-3.6,1.2-6.6,3.7-9c2.5-2.4,5.5-3.6,9.1-3.6c4,0,7.3,1.5,10,4.6l-3.4,3.8c-1.7-2.1-3.9-3.2-6.4-3.2
		c-2,0-3.8,0.7-5.2,2c-1.5,1.3-2.2,3.1-2.2,5.4s0.7,4.1,2.1,5.4C93.3,23.9,94.9,24.5,96.9,24.5z"/>
	<path id="XMLID_205_" class="st0" d="M111.2,29.4V5h5.4v19.5H127v4.8H111.2z"/>
	<path id="XMLID_157_" class="st0" d="M150.8,26c-2.5,2.4-5.5,3.6-9.1,3.6c-3.6,0-6.6-1.2-9.1-3.6c-2.5-2.4-3.7-5.4-3.7-9
		c0-3.6,1.2-6.6,3.7-9c2.5-2.4,5.5-3.6,9.1-3.6c3.6,0,6.6,1.2,9.1,3.6c2.5,2.4,3.7,5.4,3.7,9C154.5,20.6,153.2,23.6,150.8,26z
		 M148.9,17c0-2.2-0.7-4-2.1-5.6c-1.4-1.5-3.1-2.3-5.1-2.3c-2,0-3.7,0.8-5.1,2.3c-1.4,1.5-2.1,3.4-2.1,5.6c0,2.2,0.7,4,2.1,5.5
		c1.4,1.5,3.1,2.3,5.1,2.3c2,0,3.7-0.8,5.1-2.3C148.2,21.1,148.9,19.2,148.9,17z"/>
	<path id="XMLID_155_" class="st0" d="M165.5,23.1c0.9,1.1,2.1,1.7,3.7,1.7c1.5,0,2.7-0.6,3.6-1.7c0.9-1.1,1.3-2.7,1.3-4.6V5h5.4
		v13.6c0,3.5-1,6.2-2.9,8.1c-2,1.9-4.4,2.8-7.5,2.8c-3,0-5.5-1-7.5-2.9c-2-1.9-2.9-4.6-2.9-8.1V5h5.4v13.4
		C164.1,20.4,164.6,21.9,165.5,23.1z"/>
	<path id="XMLID_151_" class="st0" d="M203.8,8.2c2.3,2.1,3.5,5.1,3.5,8.9s-1.1,6.8-3.4,9c-2.3,2.2-5.7,3.3-10.4,3.3h-8.3V5h8.6
		C198.1,5,201.5,6.1,203.8,8.2z M199.8,22.7c1.3-1.3,2-3.1,2-5.5c0-2.4-0.7-4.2-2-5.5c-1.3-1.3-3.4-1.9-6.1-1.9h-3v14.8h3.4
		C196.6,24.5,198.5,23.9,199.8,22.7z"/>
	<path id="XMLID_103_" class="st0" d="M238.2,5h5.4v24.3h-5.4l-11.6-15.3v15.3h-5.4V5h5.1l11.9,15.7V5z"/>
	<path id="XMLID_100_" class="st0" d="M267,29.4l-2.3-5.3h-10.2l-2.3,5.3h-5.8L257,5h5.3l10.5,24.3H267z M259.6,12.3l-3.1,7.1h6.1
		L259.6,12.3z"/>
	<path id="XMLID_98_" class="st0" d="M284.1,9.7v19.6h-5.4V9.7h-6.9V5H291v4.7H284.1z"/>
	<path id="XMLID_96_" class="st0" d="M295,5h5.4v24.3H295V5z"/>
	<path id="XMLID_94_" class="st0" d="M315.4,20.5L321.6,5h5.9l-9.8,24.3h-4.6L303.3,5h5.9L315.4,20.5z"/>
	<path id="XMLID_12_" class="st0" d="M347.9,5v4.8h-12.1v5h10.9v4.6h-10.9v5h12.5v4.8h-17.9V5H347.9z"/>
</g>
<g>
	<path class="st0" d="M84.2,68.9l2.4-2.8c3.5,3.2,6.9,4.8,11.7,4.8c4.6,0,7.6-2.4,7.6-5.8V65c0-3.2-1.7-5-8.8-6.5
		c-7.8-1.7-11.4-4.2-11.4-9.8v-0.1c0-5.3,4.7-9.3,11.2-9.3c5,0,8.5,1.4,12,4.2l-2.2,3c-3.2-2.6-6.3-3.7-9.8-3.7
		c-4.4,0-7.2,2.4-7.2,5.5v0.1c0,3.2,1.7,5,9.2,6.6c7.6,1.7,11.1,4.4,11.1,9.6v0.1c0,5.8-4.9,9.6-11.6,9.6
		C92.7,74.3,88.3,72.5,84.2,68.9z"/>
	<path class="st0" d="M131.8,39.6h3.6l15.5,34.2h-4.1l-4-9h-18.5l-4,9h-3.9L131.8,39.6z M141.3,61.4L133.6,44l-7.8,17.3H141.3z"/>
	<path class="st0" d="M160.1,39.8h3.6l21.4,27.3V39.8h3.7v34h-3.1l-22-27.9v27.9h-3.7V39.8z"/>
	<path class="st0" d="M200.9,39.8h11.8c10.7,0,18.1,7.3,18.1,16.9v0.1c0,9.6-7.4,17-18.1,17h-11.8V39.8z M212.7,70.3
		c8.6,0,14.1-5.8,14.1-13.4v-0.1c0-7.5-5.5-13.5-14.1-13.5h-8v26.9H212.7z"/>
	<path class="st0" d="M241.3,39.8h14.5c3.9,0,6.9,1.1,8.9,3c1.4,1.5,2.2,3.3,2.2,5.4v0.1c0,4.4-2.7,6.7-5.4,7.9
		c4,1.2,7.3,3.5,7.3,8.2v0.1c0,5.8-4.9,9.3-12.3,9.3h-15.1V39.8z M255.1,55c4.6,0,7.8-2.1,7.8-6.1v-0.1c0-3.4-2.7-5.5-7.5-5.5h-10.3
		V55H255.1z M256.5,70.4c5.1,0,8.4-2.3,8.4-6.1v-0.1c0-3.7-3.1-5.8-9-5.8h-10.7v12H256.5z"/>
	<path class="st0" d="M277.3,56.9L277.3,56.9c0-9.5,7-17.7,17.4-17.7c10.3,0,17.3,8.1,17.3,17.5v0.1c0,9.4-7,17.6-17.4,17.6
		S277.3,66.3,277.3,56.9z M308,56.9L308,56.9c0-7.8-5.6-14.1-13.4-14.1c-7.8,0-13.3,6.2-13.3,13.9v0.1c0,7.7,5.6,14,13.4,14
		C302.4,70.9,308,64.6,308,56.9z"/>
	<path class="st0" d="M330.6,56.5L318,39.8h4.5l10.4,13.9l10.3-13.9h4.5l-12.6,16.6l13.1,17.4h-4.6l-10.9-14.6l-10.9,14.6h-4.4
		L330.6,56.5z"/>
</g>
<g>
	<g>
		<polygon class="st0" points="13.6,14.1 13.6,16 13.6,14.1 		"/>
		<path class="st0" d="M29.7,65.4L29.7,65.4C29.8,65.4,29.7,65.4,29.7,65.4z"/>
		<path class="st8" d="M27.3,14.1l-13.7,0.1V16l0.1,11.8l-0.1,9v14.8c1.8-1.5,3.5-3.3,5.4-4.8c2.8-2.4,6-3.5,9.5-3.1l4.3,1.8
			c1.1-1.6,2.8-2.3,4.8-2.3c1.6,0,3.3,0.2,4.9,0.2c0,0,0,0,0,0c0.2-0.6,0.4-1.1,0.5-1.7l0,0c0.5-2.9,1.6-5.5,2.5-8.2
			c1.6-5.1,3-10.3,4.9-15.2c0.1-0.9,1-1.1,1.5-1.7c0.1,0,0.2,0,0.4,0c0.7,0,1.4,0,2.1,0c0.2,0.2,0.5,0.5,0.7,0.7v0c0,0,0,0,0,0
			c1,0.8,1.7,1.7,1.1,3.1c-2.9,7.6-5.8,15.2-8.7,22.8c0,0,0,0,0,0h0c0.2,1.1,1.1,0.7,1.7,0.7c2.8,0.1,3.4,0.8,3,3.5
			c-0.1,0.9,0,1.9,0,2.8c1.5-0.6,2.9-1.2,4.5-1.6c3-0.7,5.7,0.2,8.1,2l0.1-7.9V38V27.7V14H51.3h-15L27.3,14.1z"/>
		<path class="st0" d="M53,20.4C53,20.4,53,20.4,53,20.4C53,20.4,53,20.4,53,20.4C53,20.4,53,20.4,53,20.4z"/>
		<path class="st0" d="M32.2,57.2C32.3,57.2,32.3,57.2,32.2,57.2C32.3,57.2,32.3,57.2,32.2,57.2C32.2,57.2,32.2,57.2,32.2,57.2z"/>
		<polygon class="st9" points="65,65.3 65,65.2 65,65.3 		"/>
		<path class="st9" d="M51.3,65.4c5.8,0,7.8,4.3,13.5,4.3c0.3,0-0.1-4.5,0.1-4.5V51.8l-0.1-0.1l0-1.1c-2.5-1.9-5.1-2.8-8.1-2
			c-1.5,0.4-3,0.9-4.5,1.6c0,0.5-0.1,1-0.3,1.5l0,0c0,0,0,0,0,0c-1,2.6-2.7,4.9-3.9,7.4c-0.3,0.7-0.7,1.8-1.8,1.5c0,0,0,0,0,0
			c0,0,0,0,0,0c-0.1,0-0.2,0-0.3-0.1c-1.7,0.1-3.5,0.2-4.9-1.1c-0.5-0.5-1.2-0.2-1.8-0.3c0,0,0,0,0,0c-1.7,0.2-3.3,0.3-5,0.7
			c-1.4-0.1-2.9,1-4.2,1.1l0,0c-0.9,0.5-3.1,1-4.1-0.2c0,0,0,0-0.1,0c0,0,0,0,0,0c0,0-0.1,0-0.1-0.1l0.3-0.5
			c1.5-3.9,4.5-10.2,6.2-13.7c0.1-0.3,0.3-0.6,0.5-0.8l-4.3-1.8c-3.5-0.5-6.7,0.7-9.5,3.1c-1.8,1.5-3.5,3.3-5.4,4.8v0.1v13.7h1.2
			c0.1-0.1-1.6,1.3-1.5,1.2c4.9,0,9.1-1.2,14-1.2"/>
		<path class="st0" d="M46.7,65.4l4.6,0l13.7,0v-0.2c-0.2,0-0.5,0-0.8,0"/>
		<path class="st0" d="M25.8,60.7C25.9,60.7,25.9,60.7,25.8,60.7C25.9,60.7,25.9,60.7,25.8,60.7C25.8,60.6,25.8,60.7,25.8,60.7z"/>
		<path class="st0" d="M46.2,60.6C46.2,60.6,46.2,60.6,46.2,60.6C46.2,60.6,46.2,60.6,46.2,60.6C46.2,60.6,46.2,60.6,46.2,60.6z"/>
		<path class="st10" d="M53,20.3C53,20.4,53,20.4,53,20.3c0.3-0.4,0.5-0.9,0.7-1.3c0,0,0,0,0,0c0,0,0,0,0,0c0.2-1.2-0.6-1.9-1.4-2.5
			c-0.1,0-0.2,0-0.4,0c-0.5,0.6-1.4,0.8-1.5,1.7c0.1,0.2,0.2,0.4,0.2,0.4C52.8,18,52.9,18.1,53,20.3z"/>
		<path class="st10" d="M53.7,19C53.7,19,53.7,19,53.7,19c0.1,0.1,0.2,0.2,0.4,0.4c0.9-0.4-0.1-1.8,1-2.1v0
			c-0.2-0.2-0.5-0.5-0.7-0.7c-0.7,0-1.4,0-2.1,0C53.1,17.1,53.9,17.8,53.7,19z"/>
		<path class="st11" d="M43.4,41.5c2.1,0.4,2.3-1.2,2.8-2.5c2.7-6.1,5.1-12.2,6.8-18.6c0,0,0,0,0,0c0,0,0-0.1,0-0.1
			c-0.1-2.2-0.3-2.3-2.4-1.7c0,0-0.1-0.3-0.2-0.4c-1.9,5-3.3,10.2-4.9,15.2c-0.9,2.7-2,5.4-2.5,8.2C43.2,41.6,43.3,41.5,43.4,41.5z"
			/>
		<path class="st11" d="M26.1,60l3.8-6.7c1.1-2.3,2.1-4.6,3.3-6.7c0.7-1,1.6-1.9,2.9-2.1c0.2-0.1,0.4-0.1,0.6-0.2
			c2.1-0.5,4.1,0,6.2,0.2c2.3,0.1,4.7,0.2,7,0.3c1.4,0.1,2,1.1,1.5,2.4c-0.1,0.2-0.2,0.4-0.3,0.6c-0.9,2.1-1.4,3.1-3.1,3.1
			c1.3,0.3,1.4,1.1,0.7,2.7c-0.7,1.6-1.6,3.3-2.2,5c-0.2,0.6-0.4,1.1-0.4,1.7c0.1,0,0.2,0.1,0.3,0.1c1-3.3,2.8-6.1,4.3-9.6
			c0.8-1.3,0.8-1.7,1.5-2.5c0,1.1,0,2.1,0,3.2l0,0c0.2-0.5,0.3-1,0.3-1.5c0-0.9-0.2-1.9,0-2.8c0.4-2.7-0.2-3.4-3-3.5
			c-0.6,0-1.5,0.4-1.7-0.7h0c-0.4,0.4-0.7,1.1-1.3,0.3c-1.2,0.3-2.5,0.1-3.7-0.1c0,0,0,0,0,0c0,0,0,0,0,0c-1.6-0.1-3.3-0.3-4.9-0.2
			c-2,0-3.7,0.7-4.8,2.3c-0.2,0.3-0.4,0.5-0.5,0.8C30.6,49.8,27.6,56.1,26.1,60z"/>
		<path class="st11" d="M46.3,43.5c0.9-3.2,2.4-6.2,3.6-9.3c1.1-3.1,2.4-6.1,3.2-9.2c0.5-1.9,1.3-3.6,1.1-5.6h0
			c-0.1-0.1-0.2-0.2-0.4-0.4c0,0,0,0,0,0c-0.2,0.5-0.4,0.9-0.7,1.4c0,0,0,0,0,0c0,0,0,0,0,0C51.3,26.8,48.9,33,46.2,39
			c-0.6,1.3-0.8,2.9-2.8,2.5c-0.1,0-0.2,0.2-0.2,0.2l0,0c-0.2,0.6-0.4,1.1-0.5,1.7c0,0,0,0,0,0C43.8,43.5,45,43.8,46.3,43.5z"/>
		<path class="st10" d="M32.2,57.2C32.2,57.2,32.2,57.2,32.2,57.2c-0.1-0.1-0.1-0.2-0.2-0.3l-2.3-3.5c0,0,0-0.1,0-0.1L26.1,60
			l-0.3,0.5c0,0,0.1,0,0.1,0.1c0,0,0,0,0,0c1,1.1,3.2,0.7,4.1,0.2l2-3.2C32.1,57.5,32.2,57.4,32.2,57.2z"/>
		<path class="st10" d="M54.1,19.4L54.1,19.4c0.3,2-0.6,3.8-1.1,5.6c-0.8,3.2-2.1,6.2-3.2,9.2c-1.1,3.1-2.6,6.1-3.6,9.3
			c0.7,0.8,0.9,0,1.3-0.3c0,0,0,0,0,0c2.9-7.6,5.8-15.2,8.7-22.8c0.5-1.4-0.1-2.3-1.1-3.1c0,0,0,0,0,0C53.9,17.6,55,19,54.1,19.4z"
			/>
		<path class="st10" d="M50.5,51c-1.5,3.4-3.3,6.2-4.3,9.6c0,0,0,0,0.1,0c1.1,0.3,1.5-0.7,1.8-1.5c1.2-2.5,2.9-4.8,3.9-7.4
			c0,0,0,0,0,0c0-1.1,0-2.1,0-3.2C51.3,49.3,51.2,49.7,50.5,51z"/>
		<path class="st11" d="M48.5,53.8c0.8-1.7,0.6-2.5-0.7-2.7c-0.3,0-0.6,0-0.9-0.1c-2.8-0.1-5.5-0.3-8.3-0.4c-0.8,0-1.6-0.1-2,0.7
			c0,0,0,0,0,0c0,0,0,0,0,0c1.2,2.5,2.4,4.9,2.5,7.8v0c0.6,0.1,1.3-0.1,1.8,0.3c1.4,1.4,3.2,1.2,4.9,1.1c0-0.6,0.2-1.1,0.4-1.7
			C47,57.1,47.8,55.5,48.5,53.8z"/>
		<path class="st10" d="M34.6,53.5c0,0.1,0,0.1,0,0.2C34.6,53.6,34.6,53.6,34.6,53.5c0.9-1,1.3-1.5,2.1-2.2c0,0,0,0,0,0
			c0.5-0.8,1.3-0.7,2-0.7c2.8,0.1,5.5,0.3,8.3,0.4c0.3,0.1,0.6,0.1,0.9,0.1c1.7,0,2.2-1,3.1-3.1c0.1-0.2,0.2-0.4,0.3-0.6
			c0.5-1.3-0.1-2.3-1.5-2.4c-2.3-0.2-4.7-0.2-7-0.3c-2.1-0.2-4.1-0.7-6.2-0.2c-0.2,0-0.4,0.1-0.6,0.2c-1.3,0.2-2.1,1.1-2.9,2.1
			C35,48.6,36.1,50.8,34.6,53.5z"/>
		<path class="st10" d="M32.1,57c0,0.1,0.1,0.2,0.2,0.2c0,0,0,0,0,0c0.9-1.3,1.4-2.3,2.3-3.6c0-0.1,0-0.1,0-0.2
			c1.5-2.7,0.4-4.9-1.5-6.8c-1.2,2.1-2.2,4.4-3.3,6.7c0,0,0,0.1,0,0.1L32.1,57z"/>
		<path class="st11" d="M36.7,51.3C36.7,51.3,36.7,51.3,36.7,51.3c-0.8,0.7-1.2,1.2-2,2.3c0,0-0.1,0.1-0.1,0.1
			c-0.9,1.2-1.5,2.3-2.3,3.6c0,0,0,0,0,0c-0.1,0.1-0.2,0.2-0.3,0.4l-2,3.2l0,0c1.3-0.1,2.8-1.2,4.2-1.1c1.6-0.4,3.3-0.5,5-0.7
			c0,0,0,0,0,0v0C39.1,56.2,37.8,53.7,36.7,51.3z"/>
		<polygon class="st0" points="27.3,65.4 14.8,65.4 13.6,65.4 13.6,51.7 3.3,51.7 3.3,75.7 27.3,75.7 		"/>
		<polygon class="st0" points="64.9,51.7 65,65.2 65,65.3 65,65.3 51.3,65.4 51.3,75.7 75.3,75.7 75.3,51.7 64.9,51.7 		"/>
		<polygon class="st0" points="13.6,16 13.6,14.1 13.6,14.1 27.3,14.1 27.3,3.7 3.3,3.7 3.3,27.7 13.7,27.7 		"/>
		<polygon class="st0" points="51.3,3.7 51.3,14 65,14 65,27.7 75.3,27.7 75.3,3.7 		"/>
		<polygon class="st10" points="36.3,14 51.3,14 51.3,3.7 27.3,3.7 27.3,14.1 		"/>
		<polyline class="st10" points="64.9,51.7 75.3,51.7 75.3,27.7 65,27.7 65,38 65,42.7 		"/>
		<polygon class="st10" points="13.6,51.6 13.6,36.7 13.7,27.7 3.3,27.7 3.3,51.7 13.6,51.7 		"/>
		<polygon class="st10" points="36.3,75.7 51.3,75.7 51.3,65.4 27.3,65.4 27.3,75.7 		"/>
	</g>
</g>
</svg>
