<?xml version="1.0" encoding="utf-8"?>
<!-- Generator: Adobe Illustrator 26.3.1, SVG Export Plug-In . SVG Version: 6.00 Build 0)  -->
<svg version="1.1" id="Layer_1" xmlns="http://www.w3.org/2000/svg" xmlns:xlink="http://www.w3.org/1999/xlink" x="0px" y="0px"
	 viewBox="0 0 105 105" style="enable-background:new 0 0 105 105;" xml:space="preserve">
<style type="text/css">
	.st0{fill-rule:evenodd;clip-rule:evenodd;}
</style>
<g>
	<path d="M50.2,46.7c0-1.1,0.9-1.9,2-1.9c1.1,0,1.9,0.9,1.9,2c0,1.1-0.9,1.9-2,1.9C51,48.6,50.2,47.7,50.2,46.7z"/>
	<path class="st0" d="M52.4,6.6c12,0,23.3,4.7,31.9,13.2h0c8.5,8.5,13.2,19.9,13.2,31.9c0,6.3-1.3,12.6-3.9,18.3
		c-0.7,1.5-2.5,2.1-3.9,1.4c-1.4-0.7-1.9-2.3-1.3-3.7c2.2-5,3.4-10.5,3.4-16c0-3.7-0.5-7.3-1.5-10.7c-0.4-1.6-2.1-2.4-3.6-1.8h-0.1
		c-1.4,0.5-2.1,2-1.7,3.4c0.5,2,0.9,4,1.1,6c0.2,1.7-1.2,3.1-2.8,3.1c-1.5,0-2.7-1.1-2.8-2.6c-0.6-6.1-3.1-11.8-7-16.1
		c-1.1-1.2-3-1.2-4.1,0c0,0,0,0-0.1,0.1c0,0,0,0.1-0.1,0.1c-0.1,0.7-0.3,1.4-0.5,2.1c0,0.3,0.1,0.6,0.2,0.9l0.3,0.4l0.2,0.3
		c1,1.4,2.1,3,2.9,4.6c0.5,1.2,0.3,2.8-1.3,3.5c-1.3,0.6-3,0.1-3.7-1.2c-0.4-0.8-0.9-1.5-1.5-2.3c-0.2-0.3-0.5-0.6-0.7-1
		c-1,0.9-2,1.7-2.9,2.3c3.2,2.9,4.9,6.8,3.2,11.2c-0.4,1-0.9,2-1.6,2.8c2.3,1.1,4.2,3.3,5.6,5.5c1.2,1.8,3.7,6.4,2.2,10
		c-0.4,1-1.1,1.7-2,2.2c0.4,0.1,0.8,0.1,1.3,0.2c0.3,0,0.7,0.1,1.1,0.1c5.3,0.7,9.4,2.1,12.2,4.2c3.1,2.3,4.7,5.5,4.4,8.9
		c-0.3,4.3-3.4,8.6-8.6,11.8c-4.9,3.1-11,4.7-17.1,4.7c-5.6,0-11.1-1.5-15.6-4.1c-2.4-1.3-4.6-3.1-6.6-5c-7.5-2-14.5-6-20.1-11.7
		C12.1,75.2,7.3,63.8,7.3,51.9c0-12.2,4.7-23.6,13.3-32.2C29.1,11.3,40.4,6.6,52.4,6.6z M41.8,52.3c-1.1,0-3.1,1-4.1,2.6l0,0
		c-1,1.8-1,3.4-0.5,4.6c0.2,0.5,0.6,1,1,1.3c0,0.1,0.1,0.1,0.1,0.1c0.2,0.1,0.4,0.2,0.6,0.3c0.3,0.1,0.5,0.2,0.8,0.2
		c0.2,0,0.5,0,0.7-0.1c0.4-0.1,0.7-0.3,0.9-0.5c0.6-0.6,0.5-1.4,0.3-2.1c-0.1-0.7-0.3-1.4,0.3-1.8c0.2-0.2,0.4-0.2,0.5-0.2
		c0.2,0,0.4,0.1,0.6,0.1c0.2,0.1,0.3,0.1,0.5,0.1c0.5,0,0.8-0.3,1-0.7c0.1-0.2-0.3-0.7-0.8-1.4C43,54.1,42.3,53.2,41.8,52.3z
		 M46,74.8c0-0.1,0.1-0.2,0.1-0.2h0c0.1-0.4,0.1-0.8,0.1-1.2c0-0.7,0-1.5,0.5-2.1c0.3-0.3,0.8-0.5,1.4-0.6c0.8-0.2,1.5-0.4,1.8-1.2
		c0.2-0.7-0.4-1-1.3-1.4c-0.6-0.3-1.4-0.7-2-1.3c-0.3-0.3-0.9-0.5-1.6-0.5c-1.7,0-3.9,1.4-4.9,2.9c-0.2,0.5-0.4,1-0.5,1.5
		c-0.1,0.4-0.1,0.8-0.1,1.2v0.1c0,0.4,0.1,0.8,0.2,1.1v0.1c0.1,0.3,0.2,0.7,0.5,1v0.1c0.2,0.3,0.4,0.6,0.7,0.8
		c0.6,0.5,1.4,0.8,2.4,0.8h0.6c0.5-0.1,0.8-0.2,1.1-0.3c0.1,0,0.1,0,0.2-0.1c0,0,0.1-0.1,0.2-0.1c0.2-0.1,0.3-0.2,0.4-0.2
		c0,0,0.1-0.1,0.1-0.1c0,0,0.1-0.1,0.1-0.1c0,0,0-0.1,0.1-0.1C45.9,74.9,45.9,74.9,46,74.8z M30.4,62.7c-2.6,0-5.6,0.6-8.2,2.6
		C14.4,71.7,23,79.1,46.8,82c-0.6-1-1.1-2.1-1.2-3.4c-0.6,0.2-1.1,0.3-1.4,0.3c-0.3,0-0.7,0-1,0c-2.5,0-4.6-1.3-5.8-3.5
		c-0.1-0.1-0.1-0.3-0.2-0.4c0-0.1-0.1-0.2-0.1-0.4c-0.1,0-0.2,0-0.3,0c-0.1,0-0.2,0-0.3,0c-13.8-2.8-9.8-7.6-3-7.3
		c0.5,0,1.1,0,1.6,0.2l3.4-3.2C38.3,64.2,34.3,62.7,30.4,62.7z M62.9,100.4c18.7,0,33.4-18.2,8.5-21.6v0c-3.1-0.4-6.1-0.8-9-1.1
		c-0.6,0.4-1.3,0.7-2,0.9c-0.5,0.2-1.1,0.2-1.6,0.2c0,0.5-0.1,1.1-0.1,1.7c0,0.1,0,0.2,0,0.3c-0.3,0.9-0.6,1.7-1.2,2.4
		c10.5,1.2,11,3.5,5.7,5.2c-0.9,0.3-1.9,0.5-3,0.5c-5.4,0-11.8-3.5-11.8-3.5l-11.2-0.9C44.1,96.2,53.9,100.4,62.9,100.4z M67.5,72.1
		c2.4-0.5,1.8-4.3-0.6-8.3l0-0.1c-2.2-3.4-3.7-4.9-6.4-4.9c-0.2,0-0.3,0-0.5,0c-0.2,0-0.3,0-0.5,0c-0.8,0.1-1.5,0.2-2.1,0.3
		c-1,0.1-1.7,0.3-2.7,0.3c-0.8,0-2.3-0.1-3.7-0.4c-1.2-0.3-2.2-0.8-3-1.2c-0.7-0.3-1.2-0.6-1.6-0.6c-0.5,0-0.9,0.8-1.2,1.4
		c-1,1.9,1.4,6.4,5.8,7.7c0.7,0.2,1.3,0.4,1.8,0.5c2.1,0.5,3.2,0.8,2.9,2.1c-0.2,0.6-0.9,0.8-1.9,1.1c-1.2,0.3-2.7,0.8-3.9,2.1
		c-0.1,0.1-0.2,0.2-0.2,0.3c0,0.1-0.1,0.1-0.1,0.2c-0.2,0.3-0.5,0.7-0.6,1.1c-0.2,0.4-0.3,0.8-0.4,1.2c0,0.1,0,0.1,0,0.2
		c-0.1,0.3-0.1,0.6-0.2,0.9c-0.4,3.3,1.1,6.2,3.8,6.2C56,82,56,79,55.9,76.8c0,0,0-0.1,0-0.1c0-0.3-0.1-0.6-0.1-0.8v-1.1
		c0-0.2,0.1-0.3,0.3-0.3c0.3,0,0.6,0.2,0.9,0.4c0.4,0.3,1,0.7,1.9,0.7c0.3,0,0.6,0,0.9-0.1c0.6-0.1,1-0.4,1.4-0.8h0.1
		c0.4-0.3,0.7-0.8,0.9-1.3c0.6-1.3,0.6-3,0.1-4.6c-0.4-1.6-1.1-2.6-1.6-3.4C60,64.6,59.7,64,60,63.5c0.1-0.2,0.3-0.2,0.5-0.2
		c0.7,0,2,1.1,2.8,3.8c0.9,3.2,1.5,5.1,3.5,5.1C67,72.2,67.2,72.2,67.5,72.1z M56.6,41.8c0,0,5.4-0.3,8.5-6l-0.1,0
		c2.2-4.1,1.2-8.9-1.8-9.7c-0.2-0.1-0.4-0.1-0.6-0.1c-1.8,0-2.6,2.6-3.4,5.1c-0.3,1.1-0.7,2.1-1.1,3c-2.7,5.7-5.3,6-5.7,6h-0.1
		c0,0,3-2.1,4-7.7c1-5.4-0.6-9.2-4-9.2H52c-2,0.1-2.5,4.2-3.1,8.5c-0.5,3.6-0.9,7.3-2.3,8.8c-3.4,4-3.7,9.6-1.4,12.5
		c1.5,1.9,5.8,4.4,9.6,4.4c3.6,0,7.1-1.2,8.3-4.4C65.1,45.7,56.6,41.8,56.6,41.8z"/>
</g>
</svg>
