<svg id="Layer_1" data-name="Layer 1" xmlns="http://www.w3.org/2000/svg" viewBox="0 0 350 240"><title>Antrea Open Source Identity</title>
<metadata><?xpacket begin="﻿" id="W5M0MpCehiHzreSzNTczkc9d"?>
<x:xmpmeta xmlns:x="adobe:ns:meta/" x:xmptk="Adobe XMP Core 6.0-c002 79.164488, 2020/07/10-22:06:53        ">
   <rdf:RDF xmlns:rdf="http://www.w3.org/1999/02/22-rdf-syntax-ns#">
      <rdf:Description rdf:about=""
            xmlns:lr="http://ns.adobe.com/lightroom/1.0/"
            xmlns:dc="http://purl.org/dc/elements/1.1/"
            xmlns:xmp="http://ns.adobe.com/xap/1.0/"
            xmlns:xmpMM="http://ns.adobe.com/xap/1.0/mm/"
            xmlns:stEvt="http://ns.adobe.com/xap/1.0/sType/ResourceEvent#">
         <lr:hierarchicalSubject>
            <rdf:Bag>
               <rdf:li>open source identity</rdf:li>
               <rdf:li>open source identity|antrea</rdf:li>
            </rdf:Bag>
         </lr:hierarchicalSubject>
         <dc:subject>
            <rdf:Bag>
               <rdf:li>open source identity</rdf:li>
               <rdf:li>antrea</rdf:li>
            </rdf:Bag>
         </dc:subject>
         <dc:title>
            <rdf:Alt>
               <rdf:li xml:lang="x-default">Antrea Open Source Identity</rdf:li>
            </rdf:Alt>
         </dc:title>
         <xmp:MetadataDate>2021-05-17T14:26:11-07:00</xmp:MetadataDate>
         <xmpMM:InstanceID>xmp.iid:6f28e7f3-d1d7-4828-b035-bffb3c56b5ec</xmpMM:InstanceID>
         <xmpMM:DocumentID>xmp.did:8d030754-7253-4673-98ca-179242ff016f</xmpMM:DocumentID>
         <xmpMM:OriginalDocumentID>xmp.did:8d030754-7253-4673-98ca-179242ff016f</xmpMM:OriginalDocumentID>
         <xmpMM:History>
            <rdf:Seq>
               <rdf:li>
                  <rdf:Description>
                     <stEvt:action>saved</stEvt:action>
                     <stEvt:instanceID>xmp.iid:8d030754-7253-4673-98ca-179242ff016f</stEvt:instanceID>
                     <stEvt:when>2021-05-17T14:25:34-07:00</stEvt:when>
                     <stEvt:softwareAgent>Adobe Bridge 2021 (Macintosh)</stEvt:softwareAgent>
                     <stEvt:changed>/metadata</stEvt:changed>
                  </rdf:Description>
               </rdf:li>
               <rdf:li>
                  <rdf:Description>
                     <stEvt:action>saved</stEvt:action>
                     <stEvt:instanceID>xmp.iid:6f28e7f3-d1d7-4828-b035-bffb3c56b5ec</stEvt:instanceID>
                     <stEvt:when>2021-05-17T14:26:11-07:00</stEvt:when>
                     <stEvt:softwareAgent>Adobe Bridge 2021 (Macintosh)</stEvt:softwareAgent>
                     <stEvt:changed>/metadata</stEvt:changed>
                  </rdf:Description>
               </rdf:li>
            </rdf:Seq>
         </xmpMM:History>
      </rdf:Description>
   </rdf:RDF>
</x:xmpmeta>
                                                                                                    
                                                                                                    
                                                                                                    
                                                                                                    
                                                                                                    
                                                                                                    
                                                                                                    
                                                                                                    
                                                                                                    
                                                                                                    
                                                                                                    
                                                                                                    
                                                            
<?xpacket end="w"?></metadata>
<defs><style>.cls-1{fill:#717074;}.cls-2{fill:#00c1d5;}.cls-3{fill:#1d428a;}</style></defs><path class="cls-1" d="M87.52,194.6h-23L60.4,204H55.3l18.18-41.22h5.1L96.76,204h-5.1Zm-1.92-4.44L76.06,168.5l-9.6,21.66Z"/><path class="cls-1" d="M103,162.74h4.68l25.56,33.54V162.74h4.68V204h-4.68l-25.56-33.54V204H103Z"/><path class="cls-1" d="M158,167.18H144.16v-4.44h32.4v4.44H162.7V204H158Z"/><path class="cls-1" d="M213.07,182.18a13.1,13.1,0,0,1-4.59,4.62,15.81,15.81,0,0,1-6.6,2.22L212.38,204H207L196.6,189.14h-9.12V204H182.8V162.74h16.74a17.57,17.57,0,0,1,7.68,1.68,13.45,13.45,0,0,1,5.49,4.71,12.58,12.58,0,0,1,.36,13.05Zm-25.59,2.52H198.7a13.23,13.23,0,0,0,8.19-2.34,8.21,8.21,0,0,0,0-12.84,13.23,13.23,0,0,0-8.19-2.34H187.48Z"/><path class="cls-1" d="M227.14,167.18v13.56h22.38v4.44H227.14v14.34H252V204H222.4V162.74H252v4.44Z"/><path class="cls-1" d="M287.26,194.6h-23L260.14,204H255l18.18-41.22h5.1L296.5,204h-5.1Zm-1.92-4.44L275.8,168.5l-9.6,21.66Z"/><path class="cls-2" d="M151.85,107.82h0l-.06,0Z"/><path class="cls-2" d="M147.72,103.88l0,0,0,0Z"/><path class="cls-3" d="M200.48,88.24a47,47,0,0,1-3.65,10.2,44.24,44.24,0,0,1,8.94,3.87,62.23,62.23,0,0,0,6.16-14.74l.17-.59-5.41.58Z"/><path class="cls-3" d="M193.75,103.38c-5.28,7-13.77,11.56-26.17,12.2q-2.37.12-4.53.09a30.94,30.94,0,0,0,13,2.34c12.05-.63,19.55-4.21,24.86-9.51.48-.48.94-1,1.39-1.5h0A34.54,34.54,0,0,0,193.75,103.38Z"/><path class="cls-3" d="M203,70.74c-.1,1.19-.19,2.38-.31,3.55-.26,2.74-.58,5.46-1,8.1l4.72-.51,7.3-.8c1-4,1.92-8.2,2.94-12.37C212.16,69.48,207.57,70.11,203,70.74Z"/><path class="cls-3" d="M197.66,65.77c.24-3.74.45-7.53.73-11.32-3.61.46-7.23.86-10.8,1.28-.28,3.79-.58,7.6-1,11.35,0,.12,0,.24,0,.36l.32-.06C190.46,66.78,194.06,66.27,197.66,65.77Z"/><path class="cls-3" d="M182.28,50.66c.33-4.49.68-8.95,1.14-13.32-3.75,1.13-7.49,2.16-11.13,3.25-.07,1.85-.13,3.72-.2,5.61s-.16,4.08-.25,6.14c2.16-.43,4.36-.81,6.58-1.14C179.7,51,181,50.83,182.28,50.66Z"/><path class="cls-3" d="M197,74l.21-2.49c-3.27.46-6.51.94-9.68,1.47l-1.68.29a110.22,110.22,0,0,1-2.08,11.46c4-.67,8-1.22,12-1.7C196.34,80.19,196.73,77.16,197,74Z"/><path class="cls-3" d="M194.46,89c-4.2.54-8.37,1.16-12.45,1.91a50.56,50.56,0,0,1-2.69,6.39,44.78,44.78,0,0,1,11.85-.05A37.29,37.29,0,0,0,194.46,89Z"/><path class="cls-3" d="M181,66.79c.34-3.39.62-6.86.88-10.35-1,.13-1.93.25-2.89.4-2.56.38-5.05.83-7.43,1.35-.26,4.28-.61,8.58-1.13,12.9,3.33-1,6.81-1.86,10.38-2.58C180.85,67.94,180.92,67.37,181,66.79Z"/><path class="cls-3" d="M165.75,59.7a39.5,39.5,0,0,0-9.3,4.08A45.22,45.22,0,0,1,157,76.93a51.19,51.19,0,0,1,7.36-3.71C165,68.75,165.45,64.22,165.75,59.7Z"/><path class="cls-3" d="M150.71,81.75a49.1,49.1,0,0,0,.75-13.92h0c-4.16,4.41-6.62,10.61-6.62,20.39v1.7a30.86,30.86,0,0,1,6-8.16Z"/><path class="cls-3" d="M148,97a70.84,70.84,0,0,1,12.68-6.26,99.68,99.68,0,0,0,2.67-10.84,38.36,38.36,0,0,0-4.85,2.78A24.39,24.39,0,0,0,148,97Z"/><path class="cls-3" d="M168.53,109.82c9-.62,14.71-3.27,18.73-7.36a48,48,0,0,0-12.08,1.25A30.52,30.52,0,0,1,168.53,109.82Z"/><path class="cls-3" d="M147.74,103.91a10.59,10.59,0,0,0,4.08,3.89l.06,0c.29.15.57.3.86.43a70.42,70.42,0,0,0,5.32-10.36,57.34,57.34,0,0,0-10.35,6Z"/><path class="cls-3" d="M173.26,96.78a35.47,35.47,0,0,0,2.26-4.58,105.52,105.52,0,0,0-10.42,2.93,80.43,80.43,0,0,1-5.93,13.2C165.76,106.29,170,102.28,173.26,96.78Z"/><path class="cls-3" d="M199.52,43.35v0h0A43.52,43.52,0,0,0,189,38.05c-.42,3.89-.75,7.91-1.06,12,3.66-.44,7.32-.88,10.9-1.36C199,46.89,199.26,45.11,199.52,43.35Z"/><path class="cls-3" d="M166.1,53.7q.18-3.72.31-7.41c.05-1.31.09-2.6.13-3.89l-1.57.53a60.29,60.29,0,0,0-14.31,6.88,45.2,45.2,0,0,1,4.21,8.41A48.52,48.52,0,0,1,166.1,53.7Z"/><path class="cls-3" d="M150.12,61.51a34.81,34.81,0,0,0-3.94-8c-.47.46-.93.94-1.37,1.43-5,5.59-8.14,13.32-8.14,25.54a30.57,30.57,0,0,0,2.6,11.78c-.07-1.19-.1-2.43-.1-3.72C139.16,76,143.38,67.17,150.12,61.51Z"/><path class="cls-3" d="M209.47,52.72h0l-.09,0c-1.74.35-3.51.65-5.28.94-.3,3.73-.54,7.54-.8,11.36,4.14-.59,8.2-1.18,12.13-1.86A43.25,43.25,0,0,0,209.47,52.72Z"/><path class="cls-3" d="M180,74.46a91.54,91.54,0,0,0-10.5,2.86c-.62,3.75-1.4,7.48-2.39,11.18,3.43-1,7-1.88,10.53-2.61A97.22,97.22,0,0,0,180,74.46Z"/><path class="cls-2" d="M217.31,69.14c.14.57.26,1.14.38,1.72C217.57,70.28,217.45,69.71,217.31,69.14Z"/><path class="cls-2" d="M217.77,71.32c.09.52.19,1,.26,1.56C218,72.36,217.86,71.84,217.77,71.32Z"/><path class="cls-2" d="M216.76,67.07c.18.6.34,1.21.49,1.82C217.1,68.28,216.94,67.67,216.76,67.07Z"/><path class="cls-2" d="M218.3,83.41c-.14,1.36-.33,2.7-.58,4C218,86.11,218.17,84.77,218.3,83.41Z"/><path class="cls-2" d="M218.45,81.36c0,.56-.08,1.11-.12,1.66C218.37,82.47,218.42,81.92,218.45,81.36Z"/><path class="cls-2" d="M218.37,76.06c0,.33.06.67.08,1C218.43,76.73,218.4,76.39,218.37,76.06Z"/><path class="cls-2" d="M216.13,65.08c.22.62.42,1.25.6,1.88C216.55,66.33,216.35,65.7,216.13,65.08Z"/><path class="cls-2" d="M216.13,65.06c-.22-.63-.45-1.26-.7-1.88h0C215.68,63.8,215.91,64.43,216.13,65.06Z"/><path class="cls-2" d="M218.13,73.6c.05.45.11.9.16,1.35C218.24,74.5,218.18,74.05,218.13,73.6Z"/><path class="cls-2" d="M209.47,52.72a42.08,42.08,0,0,0-4.52-5,43,43,0,0,1,4.52,5Z"/><path class="cls-2" d="M202.33,45.4c.85.69,1.67,1.41,2.47,2.16C204,46.81,203.18,46.09,202.33,45.4Z"/><path class="cls-2" d="M202.2,45.3c-.87-.7-1.76-1.36-2.67-2h0C200.44,43.94,201.33,44.6,202.2,45.3Z"/><path class="cls-2" d="M218.45,77.07c0-.34,0-.68-.08-1s-.05-.74-.08-1.11-.11-.9-.16-1.35c0-.24-.06-.48-.1-.72-.07-.52-.17-1-.26-1.56,0-.15-.05-.31-.08-.46-.12-.58-.24-1.15-.38-1.72l-.06-.25c-.15-.61-.31-1.22-.49-1.82l0-.11c-.18-.63-.38-1.26-.6-1.88v0c-.22-.63-.45-1.26-.7-1.88-3.93.68-8,1.27-12.13,1.86.26-3.82.5-7.63.8-11.36,1.77-.29,3.54-.59,5.28-.94l.09,0a43,43,0,0,0-4.52-5l-.15-.15c-.8-.75-1.62-1.47-2.47-2.16l-.13-.1c-.87-.7-1.76-1.36-2.67-2v0c-.26,1.76-.48,3.54-.67,5.33-3.58.48-7.24.92-10.9,1.36.31-4.08.64-8.1,1.06-12a43.5,43.5,0,1,0,28.71,49.38c.25-1.32.44-2.66.58-4l0-.39c0-.55.09-1.1.12-1.66s.05-1.41.05-2.13S218.48,77.79,218.45,77.07Zm-31.82-10c.38-3.75.68-7.56,1-11.35,3.57-.42,7.19-.82,10.8-1.28-.28,3.79-.49,7.58-.73,11.32-3.6.5-7.2,1-10.75,1.61l-.32.06C186.6,67.32,186.61,67.2,186.63,67.08Zm-.75,6.22,1.68-.29c3.17-.53,6.41-1,9.68-1.47L197,74c-.3,3.13-.69,6.16-1.21,9-4,.48-8,1-12,1.7A110.22,110.22,0,0,0,185.88,73.3Zm-6.56,24A50.56,50.56,0,0,0,182,90.87c4.08-.75,8.25-1.37,12.45-1.91a37.29,37.29,0,0,1-3.29,8.25A44.78,44.78,0,0,0,179.32,97.26Zm7.94,5.2c-4,4.09-9.75,6.74-18.73,7.36a30.52,30.52,0,0,0,6.65-6.11A48,48,0,0,1,187.26,102.46ZM172.09,46.2c.07-1.89.13-3.76.2-5.61,3.64-1.09,7.38-2.12,11.13-3.25-.46,4.37-.81,8.83-1.14,13.32-1.29.17-2.58.34-3.86.54-2.22.33-4.42.71-6.58,1.14Q172,49.25,172.09,46.2Zm-.55,12c2.38-.52,4.87-1,7.43-1.35,1-.15,1.92-.27,2.89-.4-.26,3.49-.54,7-.88,10.35-.06.58-.13,1.15-.19,1.72-3.57.72-7,1.56-10.38,2.58C170.93,66.77,171.28,62.47,171.54,58.19Zm-2,19.13A91.54,91.54,0,0,1,180,74.46a97.22,97.22,0,0,1-2.36,11.43c-3.58.73-7.1,1.58-10.53,2.61C168.13,84.8,168.91,81.07,169.53,77.32ZM165,42.93l1.57-.53c0,1.29-.08,2.58-.13,3.89q-.14,3.69-.31,7.41a48.52,48.52,0,0,0-11.23,4.52,45.2,45.2,0,0,0-4.21-8.41A60.29,60.29,0,0,1,165,42.93Zm-7.93,34a45.22,45.22,0,0,0-.59-13.15,39.5,39.5,0,0,1,9.3-4.08c-.3,4.52-.72,9-1.35,13.52A51.19,51.19,0,0,0,157,76.93Zm6.28,2.92a99.68,99.68,0,0,1-2.67,10.84A70.84,70.84,0,0,0,148,97a24.39,24.39,0,0,1,10.5-14.32A38.36,38.36,0,0,1,163.32,79.85Zm-24,12.39a30.57,30.57,0,0,1-2.6-11.78c0-12.22,3.17-19.95,8.14-25.54.44-.49.9-1,1.37-1.43a34.81,34.81,0,0,1,3.94,8c-6.74,5.66-11,14.44-11,27C139.17,89.81,139.2,91.05,139.27,92.24Zm5.57-4c0-9.78,2.46-16,6.62-20.39h0a49.1,49.1,0,0,1-.75,13.92h.09a30.86,30.86,0,0,0-6,8.16Zm7.9,20c-.29-.13-.57-.28-.86-.43h0l0,0a10.59,10.59,0,0,1-4.08-3.89l0,0v0a57.34,57.34,0,0,1,10.35-6A70.42,70.42,0,0,1,152.74,108.26ZM165.1,95.13a105.52,105.52,0,0,1,10.42-2.93,35.47,35.47,0,0,1-2.26,4.58c-3.22,5.5-7.5,9.51-14.09,11.55A80.43,80.43,0,0,0,165.1,95.13ZM201,108.5c-5.31,5.3-12.81,8.88-24.86,9.51a30.94,30.94,0,0,1-13-2.34q2.16,0,4.53-.09c12.4-.64,20.89-5.25,26.17-12.2a34.54,34.54,0,0,1,8.6,3.62h0C201.9,107.51,201.44,108,201,108.5Zm11-20.93a62.23,62.23,0,0,1-6.16,14.74,44.24,44.24,0,0,0-8.94-3.87,47,47,0,0,0,3.65-10.2l6.21-.68L212.1,87Zm1.75-6.49-7.3.8-4.72.51c.43-2.64.75-5.36,1-8.1.12-1.17.21-2.36.31-3.55,4.59-.63,9.18-1.26,13.64-2C215.6,72.88,214.68,77,213.68,81.08Z"/><path class="cls-1" d="M217.69,70.86c0,.15.05.31.08.46C217.74,71.17,217.72,71,217.69,70.86Z"/><path class="cls-1" d="M217.25,68.89l.06.25Z"/><path class="cls-1" d="M216.13,65.06v0Z"/><path class="cls-1" d="M216.73,67l0,.11Z"/><path class="cls-1" d="M202.2,45.3l.13.1Z"/><path class="cls-1" d="M218.33,83l0,.39C218.31,83.28,218.31,83.15,218.33,83Z"/><path class="cls-1" d="M218,72.88c0,.24.06.48.1.72C218.09,73.36,218.07,73.12,218,72.88Z"/><path class="cls-1" d="M175,26.73a52.5,52.5,0,1,0,52.5,52.5A52.51,52.51,0,0,0,175,26.73ZM218.33,83c0,.13,0,.26,0,.39-.13,1.36-.33,2.7-.58,4a43.51,43.51,0,1,1-18.19-44.12c.91.63,1.8,1.29,2.67,2l.13.1c.85.69,1.67,1.41,2.47,2.16l.15.15a42.08,42.08,0,0,1,4.52,5,43.25,43.25,0,0,1,6,10.46c.25.62.48,1.25.7,1.88v0c.22.62.42,1.25.6,1.88l0,.11c.18.6.34,1.21.49,1.82l.06.25c.14.57.26,1.14.38,1.72,0,.15.05.31.08.46.09.52.19,1,.26,1.56,0,.24.06.48.1.72.05.45.11.9.16,1.35s.06.74.08,1.11.06.67.08,1c0,.72.05,1.44.05,2.16s0,1.43-.05,2.13S218.37,82.47,218.33,83Z"/><path class="cls-1" d="M204.8,47.56l.15.15Z"/><path class="cls-1" d="M218.5,79.23c0,.72,0,1.43-.05,2.13C218.48,80.66,218.5,80,218.5,79.23Z"/><path class="cls-1" d="M218.29,75c0,.37.06.74.08,1.11C218.35,75.69,218.32,75.32,218.29,75Z"/><path class="cls-1" d="M218.45,77.07c0,.72.05,1.44.05,2.16C218.5,78.51,218.48,77.79,218.45,77.07Z"/></svg>