<svg fill="none" height="371" viewBox="0 0 869 371" width="869" xmlns="http://www.w3.org/2000/svg"><g fill="#404040"><path d="m187.111 91.9117c-5.796 0-11.451.5484-16.947 1.5568-.212.0354-.388-.1238-.388-.3361v-19.8499c0-.46-.372-.8492-.849-.8492h-21.152c-.459 0-.848.3715-.848.8492v27.4925c0 .124-.07.248-.194.301-31.401 15.073-53.1007 47.219-53.1007 84.424s21.6997 69.333 53.1007 84.424c.124.053.194.177.194.301v27.492c0 .46.371.85.848.85h21.152c.46 0 .849-.372.849-.85v-19.867c0-.213.194-.372.388-.336 5.496 1.008 11.151 1.557 16.947 1.557 51.633 0 93.478-41.894 93.478-93.589 0-51.694-41.862-93.5703-93.478-93.5703zm-71.479 93.5883c0-24.326 12.193-45.839 30.765-58.789.23-.159.548 0 .548.283v117.012c0 .283-.318.442-.548.283-18.572-12.933-30.765-34.463-30.765-58.789zm79.395 71.138c-8.553.937-16.822.336-24.598-1.54-.388-.088-.653-.442-.653-.831v-137.516c0-.39.265-.743.653-.832 5.355-1.291 10.939-1.981 16.699-1.981 40.837 0 73.793 34.463 71.355 75.879-2.032 34.534-29.104 63.052-63.438 66.821z"/><path d="m344.257 202.572c.388-.495 1.131-.407 1.449.124 7.245 12.597 20.197 19.142 33.662 19.142 13.466 0 21.647-5.024 21.647-14.56 0-7.979-6.061-10.579-14.366-12.649l-22-5.025c-15.232-3.467-27.196-11.959-27.196-30.164 0-19.761 15.586-33.295 38.788-33.295 19.066 0 33.132 8.386 41.65 20.204.247.353.212.831-.089 1.132l-12.175 12.809c-.406.424-1.113.336-1.396-.177-5.301-9.359-14.472-16.277-28.008-16.277-10.903 0-18.537 5.202-18.537 14.224 0 7.802 5.885 10.226 13.854 12.137l20.269 4.847c18.695 4.335 29.616 13.004 29.616 31.385 0 21.159-18.537 33.119-42.092 33.119-20.339 0-37.126-8.103-46.562-21.637-.23-.319-.212-.761.035-1.079l11.415-14.242z"/><path d="m474.614 197.583v38.975c0 .495-.389.884-.884.884h-19.879c-.495 0-.884-.389-.884-.884v-107.459c0-.495.389-.884.884-.884h39.635c27.708 0 43.806 12.49 43.806 34.162s-16.098 34.339-43.806 34.339h-17.989c-.495 0-.883.39-.883.885zm18.006-18.576c15.586 0 23.555-5.201 23.555-16.648 0-11.446-7.969-16.47-23.555-16.47h-17.123c-.495 0-.883.389-.883.884v31.35c0 .495.388.884.883.884z"/><path d="m558.391 236.575v-17.125c0-.495.388-.884.883-.884h27.337c.495 0 .883-.39.883-.885v-69.687c0-.495-.388-.885-.883-.885h-27.337c-.495 0-.883-.389-.883-.884v-17.126c0-.495.388-.884.883-.884h78.246c.495 0 .884.389.884.884v17.126c0 .495-.389.884-.884.884h-27.319c-.495 0-.883.39-.883.885v69.669c0 .496.388.885.883.885h27.319c.495 0 .884.389.884.884v17.126c0 .495-.389.884-.884.884h-78.246c-.495 0-.883-.389-.883-.884z"/><path d="m732.836 199.6v-70.501c0-.495.389-.884.884-.884h17.971c.495 0 .883.389.883.884v107.459c0 .495-.388.884-.883.884h-18.519c-.318 0-.619-.177-.778-.46l-43.982-79.594c-.442-.796-1.661-.478-1.661.425v78.745c0 .495-.389.884-.884.884h-17.971c-.495 0-.883-.389-.883-.884v-107.459c0-.495.388-.884.883-.884h24.227c.318 0 .618.177.777.46l38.275 71.332c.442.814 1.661.495 1.661-.425z"/></g></svg>