<?xml version="1.0" encoding="utf-8"?>
<!-- Generator: Adobe Illustrator 21.1.0, SVG Export Plug-In . SVG Version: 6.00 Build 0)  -->
<svg version="1.1" id="Layer_1" xmlns="http://www.w3.org/2000/svg" xmlns:xlink="http://www.w3.org/1999/xlink" x="0px" y="0px"
	 viewBox="0 0 480.9 156.4" style="enable-background:new 0 0 480.9 156.4;" xml:space="preserve">
<style type="text/css">
	.st0{fill:#ACAEB1;}
	.st1{fill:url(#SVGID_1_);}
	.st2{fill:url(#SVGID_2_);}
	.st3{fill:url(#SVGID_3_);}
	.st4{fill:url(#SVGID_4_);}
	.st5{fill:#FFFFFF;}
	.st6{fill:url(#SVGID_5_);}
	.st7{fill:url(#SVGID_6_);}
	.st8{fill:url(#SVGID_7_);}
	.st9{fill:url(#SVGID_8_);}
	.st10{fill:url(#SVGID_9_);}
	.st11{fill:#48484A;}
	.st12{fill:#939598;}
	.st13{fill:#6D6E71;}
</style>
<g>
	<path d="M224.3,63c7.2,0,12.6,2.4,17.1,6.6c0.4,0.4,0.4,0.9,0.1,1.3l-1.1,1.2c-0.4,0.4-0.8,0.4-1.2-0.1c-4-3.6-9.1-5.8-14.9-5.8
		c-12.3,0-22,10.1-22,22.3c0,12.1,9.7,22.1,22,22.1c6.1,0,10.6-2.4,14.9-5.9c0.4-0.4,0.8-0.4,1.1-0.1l1.2,1.2c0.4,0.3,0.4,0.8,0,1.2
		c-4.8,4.7-10.9,6.8-17.2,6.8c-14.1,0-25.5-11.1-25.5-25.3C198.7,74.3,210.2,63,224.3,63z"/>
	<path d="M262.1,84.1c7.9,0,14.2,6.7,14.2,14.7c0,8.3-6.3,14.9-14.2,14.9c-8,0-14.2-6.6-14.2-14.9C247.9,90.8,254.1,84.1,262.1,84.1
		z M262.1,110.8c6.2,0,11.1-5.3,11.1-12c0-6.5-4.9-11.8-11.1-11.8c-6.3,0-11.1,5.3-11.1,11.8C250.9,105.6,255.8,110.8,262.1,110.8z"
		/>
	<path d="M284.9,85.7c0-0.5,0.4-0.9,0.9-0.9h0.8c0.4,0,0.8,0.3,0.8,0.8l0.3,2.9c0.7-1,3.5-4.4,8.8-4.4c2.3,0,3.8,0.6,4.4,0.8
		c0.6,0.2,1,0.7,0.8,1.3l-0.6,1.4c-0.2,0.5-0.6,0.6-1.1,0.4c-0.4-0.1-1.8-0.8-3.7-0.8c-5.5,0-8.2,4.4-8.4,4.9v20.1
		c0,0.6-0.3,0.9-0.9,0.9h-1.4c-0.5,0-0.8-0.4-0.8-0.9V85.7z"/>
	<path d="M319.3,84.1c7.4,0,12.8,5.4,12.8,12.9c0,1.1,0,2.8-1.1,2.8h-22.5c0.3,6.1,4.7,11.1,11,11.1c3.7,0,6.6-1.5,8.3-2.6
		c0.6-0.4,0.9-0.5,1.3,0l0.7,1c0.2,0.3,0.1,0.7-0.3,1.1c-1.4,1.4-5.9,3.3-10.2,3.3c-8.6,0-13.9-6.6-13.9-14.9
		C305.4,90.8,310.7,84.1,319.3,84.1z M329,97.2c0-5.5-3.3-10.3-9.7-10.3c-6.2,0-10.4,4.5-10.7,10.3H329z"/>
	<path class="st0" d="M341.4,64.6c0-0.5,0.4-0.9,0.8-0.9h15c13.7,0,24.8,11.1,24.8,24.6c0,13.8-11.1,24.8-24.8,24.8h-15
		c-0.4,0-0.8-0.4-0.8-0.9V64.6z M356.6,110c12.3,0,21.9-9.4,21.9-21.7c0-12.2-9.5-21.6-21.9-21.6h-11.9V110H356.6z"/>
	<path class="st0" d="M393.5,63.9c0-0.6,0.5-0.9,1.1-0.9h1.2l33.8,44.1c0.1,0,0.1,0,0.1,0V64.6c0-0.5,0.4-0.9,0.9-0.9h1.4
		c0.5,0,0.9,0.4,0.9,0.9v48.2c0,0.6-0.6,0.9-1.1,0.9h-0.9c-0.1,0-0.6-0.2-34.1-44.5h-0.1v42.9c0,0.5-0.4,0.9-0.9,0.9h-1.3
		c-0.5,0-0.9-0.4-0.9-0.9V63.9z"/>
	<path class="st0" d="M444.9,106.5l0.6-0.8c0.5-0.6,1-0.8,1.6-0.3c0.7,0.6,5.9,5.4,13,5.4c6.4,0,11.8-4.3,11.8-9.4
		c0-6.3-5.1-9.1-13.7-12c-8.2-2.9-13.6-5.8-13.6-13.9c0-5.3,4.2-12.5,15.2-12.5c7,0,12.1,3.6,12.1,3.6c0.3,0.2,0.8,0.7,0.3,1.5
		c-0.2,0.3-0.4,0.6-0.6,0.9c-0.4,0.6-0.8,0.8-1.6,0.4c-0.2-0.1-4.9-3.3-10.4-3.3c-8.7,0-11.9,5.4-11.9,9.4c0,6,4.6,8.6,11.7,10.9
		c9.7,3.3,15.8,6.7,15.8,14.9c0,7.1-7.3,12.6-15.4,12.6c-8.4,0-14-4.9-14.9-5.8C444.7,107.6,444.3,107.2,444.9,106.5z"/>
</g>
<g>
	
		<linearGradient id="SVGID_1_" gradientUnits="userSpaceOnUse" x1="1400.3927" y1="-3700.5876" x2="1517.5781" y2="-3700.5876" gradientTransform="matrix(0.7071 -0.7071 0.7071 0.7071 1655.4451 3712.1616)">
		<stop  offset="0" style="stop-color:#6D6E71"/>
		<stop  offset="0.7382" style="stop-color:#535456"/>
		<stop  offset="1" style="stop-color:#48484A"/>
	</linearGradient>
	<path class="st1" d="M51.8,81.9c-1.2,1.2-2.1,2.4-2.8,3.8C49.7,84.4,50.6,83.1,51.8,81.9L51.8,81.9z"/>
	
		<linearGradient id="SVGID_2_" gradientUnits="userSpaceOnUse" x1="1400.3927" y1="-3684.6721" x2="1517.5781" y2="-3684.6721" gradientTransform="matrix(0.7071 -0.7071 0.7071 0.7071 1655.4451 3712.1616)">
		<stop  offset="0" style="stop-color:#6D6E71"/>
		<stop  offset="0.7382" style="stop-color:#535456"/>
		<stop  offset="1" style="stop-color:#48484A"/>
	</linearGradient>
	<path class="st2" d="M99.3,48.2c2.2,0,4.3,0.8,6,2.5l4.9,4.9l0,0l-4.9-4.9C103.7,49.1,101.5,48.2,99.3,48.2z"/>
	
		<linearGradient id="SVGID_3_" gradientUnits="userSpaceOnUse" x1="1400.3927" y1="-3706.9207" x2="1517.5781" y2="-3706.9207" gradientTransform="matrix(0.7071 -0.7071 0.7071 0.7071 1655.4451 3712.1616)">
		<stop  offset="0" style="stop-color:#6D6E71"/>
		<stop  offset="0.7382" style="stop-color:#535456"/>
		<stop  offset="1" style="stop-color:#48484A"/>
	</linearGradient>
	<path class="st3" d="M51.7,54.1c5.4-5.4,14.2-5.4,19.6,0l4.1,4.1l12.7-12.7c6.2-6.2,16.2-6.2,22.3,0l4.9,4.9l12.2-12.2L101,11.5
		c-7.7-7.7-20.2-7.7-27.9,0l-55,55c-6.5,6.5-7.5,16.5-2.9,24.1l0.2-0.2L51.7,54.1z"/>
	
		<linearGradient id="SVGID_4_" gradientUnits="userSpaceOnUse" x1="1400.3925" y1="-3651.2397" x2="1517.578" y2="-3651.2397" gradientTransform="matrix(0.7071 -0.7071 0.7071 0.7071 1655.4451 3712.1616)">
		<stop  offset="0" style="stop-color:#6D6E71"/>
		<stop  offset="0.7382" style="stop-color:#535456"/>
		<stop  offset="1" style="stop-color:#48484A"/>
	</linearGradient>
	<path class="st4" d="M123.5,102c-5.4,5.4-14.2,5.4-19.6,0L99,97.1l-16,16c-6.2,6.2-16.2,6.2-22.3,0l-4.1-4.1l-11.9,11.9l24.5,24.5
		c7.7,7.7,20.2,7.7,27.9,0l55-55c5.7-5.7,7.2-14.2,4.4-21.3l-1.8,1.8L123.5,102z"/>
	<path class="st5" d="M77.8,107.9L77.8,107.9c-0.8,0.8-1.8,1.4-2.8,1.8c-1,0.4-2.1,0.6-3.2,0.6c-2.2,0-4.3-0.8-6-2.5l-4.1-4.1L57,99
		c-1.6-1.6-2.5-3.8-2.5-6c0-1.1,0.2-2.2,0.6-3.2s1-2,1.8-2.8l0,0l23.7-23.7l12.7-12.7l0,0c1.2-1.2,2.8-2,4.4-2.3
		c0.5-0.1,1.1-0.2,1.6-0.2c2.2,0,4.3,0.8,6,2.5l4.9,4.9l5.2-5.2l0,0l-4.9-4.9c-6.2-6.2-16.2-6.2-22.3,0L75.5,58.2L51.8,81.9
		c-1.2,1.2-2.1,2.4-2.8,3.8c-0.2,0.5-0.5,0.9-0.6,1.4c-1.7,4.3-1.5,9.2,0.6,13.3c0.7,1.4,1.7,2.7,2.8,3.8l4.8,4.8l4.1,4.1
		c6.2,6.2,16.2,6.2,22.3,0l16-16l-5.2-5.2L77.8,107.9z"/>
	<path d="M154.6,70.9l1.8-1.8c-0.6-1.6-1.5-3.2-2.6-4.6C154.1,66.6,154.4,68.8,154.6,70.9z"/>
	<path d="M15.4,90.5l-0.2,0.2c0.1,0.2,0.2,0.4,0.3,0.6C15.5,91,15.4,90.7,15.4,90.5z"/>
	
		<linearGradient id="SVGID_5_" gradientUnits="userSpaceOnUse" x1="1400.3927" y1="-3678.8582" x2="1517.5781" y2="-3678.8582" gradientTransform="matrix(0.7071 -0.7071 0.7071 0.7071 1655.4451 3712.1616)">
		<stop  offset="0" style="stop-color:#6D6E71"/>
		<stop  offset="0.7382" style="stop-color:#535456"/>
		<stop  offset="1" style="stop-color:#48484A"/>
	</linearGradient>
	<path class="st6" d="M93.7,72.1l16.5-16.5l-4.9-4.9c-1.6-1.6-3.8-2.5-6-2.5c-0.5,0-1.1,0.1-1.6,0.2c-1.6,0.3-3.1,1.1-4.4,2.3
		L80.7,63.4l0.9,0.9c5.4,5.4,5.4,14.2,0,19.6l-19.8,19.8l4.1,4.1c1.6,1.6,3.8,2.5,6,2.5c1.1,0,2.2-0.2,3.2-0.6c1-0.4,2-1,2.8-1.8
		l16-16l-0.1-0.1C88.2,86.3,88.2,77.6,93.7,72.1z"/>
	
		<linearGradient id="SVGID_6_" gradientUnits="userSpaceOnUse" x1="1389.2831" y1="-3678.8582" x2="1530.0183" y2="-3678.8582" gradientTransform="matrix(0.7071 -0.7071 0.7071 0.7071 1655.4451 3712.1616)">
		<stop  offset="0" style="stop-color:#6D6E71"/>
		<stop  offset="0.7382" style="stop-color:#535456"/>
		<stop  offset="1" style="stop-color:#48484A"/>
	</linearGradient>
	<path class="st7" d="M93.7,72.1l16.5-16.5l-4.9-4.9c-1.6-1.6-3.8-2.5-6-2.5c-0.5,0-1.1,0.1-1.6,0.2c-1.6,0.3-3.1,1.1-4.4,2.3
		L80.7,63.4l0.9,0.9c5.4,5.4,5.4,14.2,0,19.6l-19.8,19.8l4.1,4.1c1.6,1.6,3.8,2.5,6,2.5c1.1,0,2.2-0.2,3.2-0.6c1-0.4,2-1,2.8-1.8
		l16-16l-0.1-0.1C88.2,86.3,88.2,77.6,93.7,72.1z"/>
	<path class="st5" d="M77.8,107.9L77.8,107.9c-0.8,0.8-1.8,1.4-2.8,1.8C76,109.4,77,108.8,77.8,107.9z"/>
	
		<linearGradient id="SVGID_7_" gradientUnits="userSpaceOnUse" x1="1389.2831" y1="-3664.4668" x2="1530.0183" y2="-3664.4668" gradientTransform="matrix(0.7071 -0.7071 0.7071 0.7071 1655.4451 3712.1616)">
		<stop  offset="0" style="stop-color:#6D6E71"/>
		<stop  offset="0.7382" style="stop-color:#535456"/>
		<stop  offset="1" style="stop-color:#48484A"/>
	</linearGradient>
	<path class="st8" d="M77.8,107.9L77.8,107.9c-0.8,0.8-1.8,1.4-2.8,1.8C76,109.4,77,108.8,77.8,107.9z"/>
	<path class="st5" d="M61.7,103.8L61.7,103.8l4.1,4.1c1.6,1.6,3.8,2.5,6,2.5c-2.2,0-4.3-0.8-6-2.5L61.7,103.8z"/>
	
		<linearGradient id="SVGID_8_" gradientUnits="userSpaceOnUse" x1="1389.2831" y1="-3672.5083" x2="1530.0183" y2="-3672.5083" gradientTransform="matrix(0.7071 -0.7071 0.7071 0.7071 1655.4451 3712.1616)">
		<stop  offset="0" style="stop-color:#6D6E71"/>
		<stop  offset="0.7382" style="stop-color:#535456"/>
		<stop  offset="1" style="stop-color:#48484A"/>
	</linearGradient>
	<path class="st9" d="M61.7,103.8L61.7,103.8l4.1,4.1c1.6,1.6,3.8,2.5,6,2.5c-2.2,0-4.3-0.8-6-2.5L61.7,103.8z"/>
	<path class="st5" d="M93.4,50.7L93.4,50.7c1.2-1.2,2.8-2,4.4-2.3C96.1,48.7,94.6,49.5,93.4,50.7z"/>
	
		<linearGradient id="SVGID_9_" gradientUnits="userSpaceOnUse" x1="1389.2831" y1="-3692.8604" x2="1530.0183" y2="-3692.8604" gradientTransform="matrix(0.7071 -0.7071 0.7071 0.7071 1655.4451 3712.1616)">
		<stop  offset="0" style="stop-color:#6D6E71"/>
		<stop  offset="0.7382" style="stop-color:#535456"/>
		<stop  offset="1" style="stop-color:#48484A"/>
	</linearGradient>
	<path class="st10" d="M93.4,50.7L93.4,50.7c1.2-1.2,2.8-2,4.4-2.3C96.1,48.7,94.6,49.5,93.4,50.7z"/>
	<path class="st11" d="M18.1,94.4c-1-1-1.9-2.1-2.6-3.2c-0.1-0.2-0.2-0.4-0.3-0.6L10,95.9c-5.4,5.4-5.4,14.2,0,19.6l10.2,10.2
		c4.4,4.4,10.9,5.2,16.2,2.5c1.3-0.6,2.4-1.5,3.5-2.5l3.3-3.3l1.2-1.2l0.4-0.4L18.1,94.4z"/>
	<path d="M51.8,104.3c-1.2-1.2-2.1-2.4-2.8-3.8c-2.2-4.1-2.4-9-0.6-13.3c0.2-0.5,0.4-0.9,0.6-1.4c0.7-1.4,1.7-2.7,2.8-3.8l0,0
		l23.7-23.7l-4.1-4.1c-5.4-5.4-14.2-5.4-19.6,0L15.4,90.5c0,0.2,0.1,0.5,0.2,0.7c0.7,1.1,1.6,2.2,2.6,3.2l26.5,26.5L56.5,109
		L51.8,104.3z"/>
	<path d="M48.3,87.1c-1.7,4.3-1.5,9.2,0.6,13.3C46.8,96.3,46.6,91.4,48.3,87.1z"/>
	<path d="M61.7,103.8L81.6,84c5.4-5.4,5.4-14.2,0-19.6l-0.9-0.9L57,87.1c-0.8,0.8-1.4,1.8-1.8,2.8s-0.6,2.1-0.6,3.2
		c0,2.2,0.8,4.3,2.5,6L61.7,103.8z"/>
	<path d="M57,99c-1.6-1.6-2.5-3.8-2.5-6C54.5,95.2,55.3,97.4,57,99l4.8,4.8l0,0L57,99z"/>
	<path d="M57,87.1c-0.8,0.8-1.4,1.8-1.8,2.8C55.5,88.9,56.1,87.9,57,87.1L57,87.1z"/>
	<path d="M110.2,55.6L93.7,72.1c-5.4,5.4-5.4,14.2,0,19.6l0.1,0.1l20.4-20.4c1.2-1.2,2-2.8,2.3-4.4c0.1-0.5,0.2-1.1,0.2-1.6
		c0-2.2-0.8-4.3-2.5-6L110.2,55.6z"/>
	<path d="M114.2,71.5c1.2-1.2,2-2.8,2.3-4.4C116.2,68.8,115.4,70.3,114.2,71.5L114.2,71.5z"/>
	<path d="M114.2,59.6c1.6,1.6,2.5,3.8,2.5,6C116.7,63.4,115.9,61.2,114.2,59.6l-4-4l0,0L114.2,59.6z"/>
	<path d="M119.4,76.7c1.5-1.5,2.7-3.3,3.5-5.2C122.1,73.4,120.9,75.2,119.4,76.7L119.4,76.7z"/>
	<path class="st12" d="M122.9,71.5c0.2-0.5,0.4-1,0.5-1.4c1.6-5.4,0.3-11.4-4-15.7l-4-4l-5.2,5.2l4,4c1.6,1.6,2.5,3.8,2.5,6
		c0,0.5-0.1,1.1-0.2,1.6c-0.3,1.6-1.1,3.1-2.3,4.4l0,0L93.8,91.9l5.2,5.2l20.4-20.4C120.9,75.2,122.1,73.4,122.9,71.5z"/>
	<path class="st13" d="M165.3,40.6l-10.2-10.2c-5.1-5.1-13.2-5.4-18.6-0.9c-0.3,0.3-0.7,0.6-1,0.9l-6.6,6.6l-1.2,1.2l0,0L152,62.5
		c0.6,0.6,1.2,1.3,1.7,2c1.1,1.4,2,3,2.6,4.6l8.9-8.9C170.7,54.8,170.7,46,165.3,40.6z"/>
	<path d="M119.4,54.4c4.2,4.2,5.6,10.3,4,15.7c-0.1,0.5-0.3,1-0.5,1.4c-0.8,1.9-1.9,3.7-3.5,5.2l0,0L99,97.1l4.8,4.8
		c5.4,5.4,14.2,5.4,19.6,0l31-31c-0.2-2.1-0.5-4.3-0.9-6.4c-0.5-0.7-1.1-1.4-1.7-2l-24.4-24.4l-12.2,12.2L119.4,54.4z"/>
	<path d="M119.4,54.4c4.2,4.2,5.6,10.3,4,15.7C125,64.7,123.6,58.6,119.4,54.4l-4-4l0,0L119.4,54.4z"/>
</g>
</svg>
