<?xml version="1.0" encoding="utf-8"?>
<!-- Generator: Adobe Illustrator 21.1.0, SVG Export Plug-In . SVG Version: 6.00 Build 0)  -->
<svg version="1.1" id="Layer_1" xmlns="http://www.w3.org/2000/svg" xmlns:xlink="http://www.w3.org/1999/xlink" x="0px" y="0px"
	 viewBox="0 0 792 348" style="enable-background:new 0 0 792 348;" xml:space="preserve">
<style type="text/css">
	.st0{opacity:0.8;}
	.st1{clip-path:url(#SVGID_2_);fill:#FFFFFF;}
	.st2{clip-path:url(#SVGID_4_);fill:#FFFFFF;}
	.st3{fill:#FFFFFF;}
	.st4{fill-rule:evenodd;clip-rule:evenodd;fill:#FFFFFF;}
	.st5{opacity:0.8;fill:#FFFFFF;}
	.st6{clip-path:url(#SVGID_6_);fill:#FFFFFF;}
</style>
<g class="st0">
	<g>
		<defs>
			<rect id="SVGID_1_" x="625.4" y="317.6" width="159.6" height="1.3"/>
		</defs>
		<use xlink:href="#SVGID_1_"  style="overflow:visible;fill:#FFFFFF;"/>
		<clipPath id="SVGID_2_">
			<use xlink:href="#SVGID_1_"  style="overflow:visible;"/>
		</clipPath>
		<rect x="625.4" y="317.6" class="st1" width="159.6" height="1.3"/>
	</g>
</g>
<g class="st0">
	<g>
		<defs>
			<rect id="SVGID_3_" x="7" y="317.6" width="159.6" height="1.3"/>
		</defs>
		<use xlink:href="#SVGID_3_"  style="overflow:visible;fill:#FFFFFF;"/>
		<clipPath id="SVGID_4_">
			<use xlink:href="#SVGID_3_"  style="overflow:visible;"/>
		</clipPath>
		<rect x="7" y="317.6" class="st2" width="159.6" height="1.3"/>
	</g>
</g>
<path class="st3" d="M225.4,231.9c1.3-0.4,3-0.7,5.1-1.1c2.1-0.3,4.3-0.5,6.6-0.5c2.3,0,4.3,0.3,5.9,0.9c1.6,0.6,2.8,1.5,3.7,2.6
	c0.9,1.1,1.6,2.5,1.9,4c0.4,1.5,0.6,3.3,0.6,5.1v15.6h-7.8v-14.6c0-2.5-0.3-4.3-1-5.4c-0.7-1-1.9-1.6-3.7-1.6c-0.6,0-1.2,0-1.8,0.1
	c-0.6,0.1-1.2,0.1-1.7,0.2v21.3h-7.8V231.9z M211,244.7c0-2.4-0.5-4.3-1.4-5.7c-1-1.4-2.3-2.1-4.1-2.1s-3.2,0.7-4.1,2.1
	c-1,1.4-1.5,3.3-1.5,5.7c0,2.4,0.5,4.3,1.5,5.7c1,1.4,2.4,2.1,4.1,2.1s3.2-0.7,4.1-2.1C210.5,249,211,247.1,211,244.7 M219,244.7
	c0,2.2-0.3,4.2-0.9,6c-0.6,1.8-1.5,3.3-2.7,4.6c-1.2,1.3-2.6,2.3-4.3,3c-1.7,0.7-3.5,1-5.6,1c-2,0-3.9-0.3-5.5-1
	c-1.7-0.7-3.1-1.7-4.3-3c-1.2-1.3-2.1-2.8-2.8-4.6c-0.7-1.8-1-3.8-1-6s0.3-4.1,1-5.9c0.7-1.8,1.6-3.3,2.8-4.6
	c1.2-1.3,2.6-2.2,4.3-2.9c1.7-0.7,3.5-1,5.4-1c2,0,3.8,0.3,5.5,1c1.7,0.7,3.1,1.7,4.3,2.9c1.2,1.3,2.1,2.8,2.8,4.6
	C218.6,240.5,219,242.5,219,244.7 M176.5,259.3c-5.9,0-10.4-1.6-13.5-4.9c-3.1-3.3-4.6-8-4.6-14c0-3,0.5-5.7,1.4-8.1
	c0.9-2.4,2.2-4.4,3.9-6c1.6-1.6,3.6-2.9,5.9-3.7c2.3-0.8,4.7-1.3,7.4-1.3c1.5,0,2.9,0.1,4.2,0.3c1.3,0.2,2.4,0.5,3.3,0.8
	c0.9,0.3,1.7,0.6,2.4,0.9c0.6,0.3,1.1,0.6,1.4,0.7l-2.4,6.6c-1.1-0.6-2.4-1.1-3.9-1.5c-1.5-0.4-3.2-0.6-5.1-0.6
	c-1.3,0-2.5,0.2-3.7,0.6c-1.2,0.4-2.3,1.1-3.2,2c-0.9,0.9-1.7,2.1-2.2,3.6c-0.6,1.5-0.8,3.3-0.8,5.4c0,1.7,0.2,3.2,0.6,4.7
	c0.4,1.5,1,2.7,1.8,3.8c0.8,1,1.9,1.9,3.2,2.5c1.3,0.6,2.9,0.9,4.8,0.9c1.2,0,2.3-0.1,3.2-0.2c0.9-0.1,1.8-0.3,2.5-0.5
	c0.7-0.2,1.4-0.4,1.9-0.7c0.6-0.2,1.1-0.5,1.5-0.7l2.3,6.6c-1.2,0.7-2.8,1.3-4.9,1.9C181.7,259,179.2,259.3,176.5,259.3 M145.3,242
	c0-0.7-0.1-1.3-0.3-1.9c-0.2-0.6-0.5-1.2-0.9-1.7c-0.4-0.5-0.9-0.9-1.5-1.2c-0.6-0.3-1.4-0.5-2.3-0.5c-0.9,0-1.6,0.1-2.3,0.4
	c-0.6,0.3-1.2,0.7-1.6,1.2c-0.4,0.5-0.7,1.1-1,1.7c-0.2,0.6-0.4,1.3-0.5,2H145.3z M126.9,245c0-2.5,0.4-4.6,1.1-6.4
	c0.8-1.8,1.7-3.4,3-4.6c1.2-1.2,2.6-2.2,4.2-2.8c1.6-0.6,3.2-0.9,4.9-0.9c3.9,0,7,1.2,9.3,3.6c2.3,2.4,3.4,5.9,3.4,10.6
	c0,0.5,0,1-0.1,1.5c0,0.5-0.1,1-0.1,1.4H135c0.2,1.6,0.9,2.9,2.3,3.8c1.3,0.9,3.1,1.4,5.4,1.4c1.4,0,2.8-0.1,4.2-0.4
	c1.4-0.3,2.5-0.6,3.4-1l1.1,6.4c-0.4,0.2-1,0.4-1.7,0.6c-0.7,0.2-1.5,0.4-2.3,0.6c-0.9,0.2-1.8,0.3-2.8,0.4c-1,0.1-2,0.2-2.9,0.2
	c-2.5,0-4.6-0.4-6.5-1.1c-1.8-0.7-3.4-1.7-4.6-3c-1.2-1.3-2.1-2.8-2.7-4.5C127.2,248.9,126.9,247,126.9,245 M121.8,244.7
	c0,2.2-0.3,4.2-1,6c-0.6,1.8-1.6,3.3-2.8,4.6c-1.2,1.3-2.7,2.2-4.5,2.9c-1.8,0.7-3.8,1-6.1,1c-0.9,0-1.9,0-3-0.1c-1-0.1-2-0.2-3-0.3
	c-1-0.1-2-0.3-2.9-0.5c-0.9-0.2-1.7-0.4-2.4-0.6v-38.6l7.8-1.3v13.8c0.9-0.4,1.8-0.7,2.7-0.9c0.9-0.2,2-0.3,3-0.3c2,0,3.7,0.3,5.2,1
	c1.5,0.7,2.8,1.7,3.8,2.9c1,1.3,1.8,2.8,2.3,4.5C121.5,240.6,121.8,242.6,121.8,244.7 M113.8,244.5c0-5-1.9-7.6-5.6-7.6
	c-0.8,0-1.6,0.1-2.4,0.3c-0.8,0.2-1.4,0.5-1.9,0.8v14.2c0.4,0.1,0.9,0.1,1.5,0.2c0.6,0.1,1.2,0.1,1.9,0.1c2.1,0,3.7-0.7,4.8-2.2
	C113.3,248.9,113.8,247,113.8,244.5 M88.4,257.6c-1.3,0.4-3,0.7-5.1,1.1c-2.1,0.3-4.3,0.5-6.6,0.5c-2.3,0-4.3-0.3-5.9-0.9
	c-1.6-0.6-2.8-1.5-3.7-2.7c-0.9-1.1-1.6-2.5-1.9-4.1c-0.4-1.6-0.6-3.3-0.6-5.2v-15.4h7.8v14.4c0,2.5,0.3,4.3,1,5.5
	c0.7,1.1,1.9,1.7,3.7,1.7c0.6,0,1.2,0,1.8-0.1c0.6-0.1,1.2-0.1,1.7-0.2v-21.3h7.8V257.6z M52.2,258.6c-0.7-1.2-1.6-2.5-2.6-3.9
	c-1-1.4-2.1-2.8-3.3-4.1c-1.2-1.4-2.4-2.7-3.6-4c-1.3-1.3-2.5-2.4-3.8-3.4v15.4h-8.2v-36.4h8.2v13.8c2.1-2.2,4.3-4.6,6.4-7
	c2.2-2.4,4.2-4.7,6-6.7h9.7c-2.5,2.9-5,5.8-7.5,8.5c-2.5,2.7-5.1,5.5-7.9,8.2c2.9,2.4,5.7,5.3,8.4,8.6c2.7,3.3,5.3,7,7.8,11H52.2z"
	/>
<path class="st4" d="M117.9,98l-4.5,1c0-0.6-0.1-1.3-0.1-1.9c0-4.8,1.3-9.5,3.8-13.6l8.8,7.9c0.2,0.1,0.3,0.3,0.5,0.4
	c-0.5,1.3-0.9,2.7-1,4.2c-0.3,0.1-0.6,0.2-0.9,0.2L117.9,98z M135,71.2v12.4c-1.2,0.4-2.4,1-3.4,1.7c-0.4-0.3-0.8-0.6-1.2-0.9
	l-8.9-6.4C125.2,74.5,129.9,72.1,135,71.2 M73.6,99.7c4.3-18.9,7.9-34.7,12.2-53.6c1.9-8.5,3.2-10.7,10.9-15.1
	c10.6-6.1,18.5-10.6,29.9-17.2c7.1-4.1,8.4-3.8,8.4,4.9v43.7c-7.9,1-15.2,4.7-20.7,10.5l-3.8-2.7c-0.5-0.3-0.7-0.7-0.9-1.2
	c-0.5-1.3-0.8-2.1-2-3c-1.8-1.4-4.4-1.1-5.8,0.7c-1.4,1.8-1.1,4.4,0.7,5.8c0.6,0.5,1.3,0.9,2.1,1.1c0.5,0.1,1,0.2,1.5,0.2
	c0.5,0.1,0.8,0.2,1.1,0.5l3.5,3.2c-3.9,5.8-6,12.5-6,19.5c0,1.3,0.1,2.5,0.2,3.7l-7.6,1.6c-0.5,0-1,0-1.6,0.1
	c-0.4,0.1-0.8,0.2-1.1,0.4c-5,1.1-10.1,2.2-15.2,3.3C72.3,107.7,72.1,106.4,73.6,99.7 M144,83.6V71.2c5.1,0.9,9.8,3.2,13.5,6.8
	l-9.8,6.9c-0.1,0.1-0.3,0.2-0.4,0.3C146.3,84.6,145.2,84,144,83.6 M165.7,98.1l-12.1-2.8c-0.2-1.3-0.5-2.6-1-3.8
	c0.1-0.1,0.2-0.2,0.3-0.3l8.9-8c2.6,4.1,3.9,8.9,3.9,13.7C165.7,97.4,165.7,97.8,165.7,98.1 M149.9,31.4c6.5,3.1,11.3,5.4,17.8,8.6
	c9.1,4.4,18.2,8.8,27.3,13.2c2.3,9.9,4.5,19.7,6.8,29.6c1.3,5.9,2.1,9,3.4,14.9c2.1,9.2,1.9,10-7.6,7.8l-23.4-5.3
	c0.1-1,0.1-2,0.1-3.1c0-7-2.1-13.8-6-19.6l3.3-3c0.4-0.4,0.8-0.5,1.4-0.6c1.4-0.2,2.2-0.4,3.4-1.3c1.8-1.4,2.1-4.1,0.7-5.8
	c-1.4-1.8-4.1-2.1-5.8-0.7c-0.6,0.5-1.1,1.1-1.5,1.8c-0.2,0.5-0.4,0.9-0.6,1.4c-0.2,0.4-0.4,0.7-0.8,1l-3.8,2.7
	c-5.5-5.8-12.8-9.4-20.7-10.4V35.8C144,29.5,144.6,28.8,149.9,31.4 M141.9,110.9c-0.8,0.1-1.6,0.2-2.4,0.2c-0.8,0-1.5-0.1-2.2-0.2
	c-0.1,0.3-0.3,0.5-0.4,0.8l-5.6,10.2c2.7,0.9,5.5,1.3,8.3,1.3c2.9,0,5.7-0.5,8.4-1.4l-5.5-10C142.2,111.5,142.1,111.2,141.9,110.9
	 M151.7,104.1l12.1,2.8c-2,4.9-5.4,9-9.8,12l-4.8-11.6C150.2,106.3,151,105.3,151.7,104.1 M115.3,106.9l12.1-2.8
	c0.7,1.2,1.6,2.3,2.6,3.3c-0.1,0.3-0.2,0.5-0.3,0.8l-4.5,10.8C120.7,116,117.3,111.8,115.3,106.9 M214.4,128.1
	c-5.8,7.2-8.4,10.6-14.2,17.8c-6.6,8.2-11.9,14.9-18.4,23.1c-4.7,5.9-8,6.1-15.8,6.1h-26.4h-26.6c-10.2,0-10.8,0-17-7.8
	c-6.1-7.7-10.9-13.7-17.1-21.4c-4.8-6-6-7.6-10.8-13.6c-7.5-9.4-8.7-12.7,2.9-15.3l35.8-8.2c2.7,7.6,8.1,14.1,15.1,18.2l-1.6,3.8
	c-0.2,0.6-0.5,0.8-1,1.2c-1.2,0.8-1.8,1.3-2.5,2.6c-1,2.1-0.1,4.6,1.9,5.5c2.1,1,4.6,0.1,5.5-1.9c0.3-0.7,0.5-1.4,0.6-2.2
	c0-0.5-0.1-1-0.1-1.5c0-0.5,0-0.8,0.3-1.2l2-3.7c4,1.5,8.2,2.3,12.5,2.3c4.3,0,8.6-0.8,12.6-2.4l2,3.6c0.3,0.5,0.3,0.9,0.3,1.5
	c-0.1,1.4-0.2,2.2,0.5,3.6c1,2.1,3.5,2.9,5.5,1.9c2.1-1,2.9-3.5,1.9-5.5c-0.3-0.7-0.8-1.3-1.4-1.8c-0.4-0.3-0.8-0.6-1.2-0.9
	c-0.4-0.3-0.6-0.5-0.8-1l-1.7-4c6.9-4.1,12.2-10.6,15-18.1l39.5,9C219.5,119.6,219,122.4,214.4,128.1"/>
<path class="st4" d="M144,83.6V71.2c5.1,0.9,9.8,3.2,13.5,6.8l-9.8,6.9c-0.1,0.1-0.3,0.2-0.4,0.3C146.3,84.6,145.2,84,144,83.6
	 M165.7,98.1l-12.1-2.8c-0.2-1.3-0.5-2.6-1-3.8c0.1-0.1,0.2-0.2,0.3-0.3l8.9-8c2.6,4.1,3.9,8.9,3.9,13.7
	C165.7,97.4,165.7,97.8,165.7,98.1 M149.9,31.4c6.5,3.1,11.3,5.4,17.8,8.6c9.1,4.4,18.2,8.8,27.3,13.2c2.3,9.9,4.5,19.7,6.8,29.6
	c1.3,5.9,2.1,9,3.4,14.9c2.1,9.2,1.9,10-7.6,7.8l-23.4-5.3c0.1-1,0.1-2,0.1-3.1c0-7-2.1-13.8-6-19.6l3.3-3c0.4-0.4,0.8-0.5,1.4-0.6
	c1.4-0.2,2.2-0.4,3.4-1.3c1.8-1.4,2.1-4.1,0.7-5.8c-1.4-1.8-4.1-2.1-5.8-0.7c-0.6,0.5-1.1,1.1-1.5,1.8c-0.2,0.5-0.4,0.9-0.6,1.4
	c-0.2,0.4-0.4,0.7-0.8,1l-3.8,2.7c-5.5-5.8-12.8-9.4-20.7-10.4V35.8C144,29.5,144.6,28.8,149.9,31.4 M151.7,104.1l12.1,2.8
	c-2,4.9-5.4,9-9.8,12l-4.8-11.6C150.2,106.3,151,105.3,151.7,104.1 M139.5,123.2v-12.1c0.8,0,1.6-0.1,2.4-0.2
	c0.2,0.3,0.3,0.6,0.5,0.9l5.5,10C145.2,122.7,142.4,123.2,139.5,123.2 M214.4,128.1c-5.8,7.2-8.4,10.6-14.2,17.8
	c-6.6,8.2-11.9,14.9-18.4,23.1c-4.7,5.9-8,6.1-15.8,6.1h-26.4v-43.3c4.3,0,8.6-0.8,12.6-2.4l2,3.6c0.3,0.5,0.3,0.9,0.3,1.5
	c-0.1,1.4-0.2,2.2,0.5,3.6c1,2.1,3.5,2.9,5.5,1.9c2.1-1,2.9-3.5,1.9-5.5c-0.3-0.7-0.8-1.3-1.4-1.8c-0.4-0.3-0.8-0.6-1.2-0.9
	c-0.4-0.3-0.6-0.5-0.8-1l-1.7-4c6.9-4.1,12.2-10.6,15-18.1l39.5,9C219.5,119.6,219,122.4,214.4,128.1"/>
<polygon class="st3" points="507.3,126.6 486.3,126.6 486.3,175.6 535.2,175.6 535.2,154.6 507.3,154.6 "/>
<polygon class="st3" points="612.2,126.8 612.2,154.6 584.4,154.6 584.2,154.5 584.2,175.6 633.2,175.6 633.2,126.6 612,126.6 "/>
<polygon class="st3" points="486.3,77.7 507.4,77.7 507.3,77.5 507.3,49.7 507.3,49.7 535.1,49.7 535.2,49.8 535.2,28.7 486.3,28.7 
	"/>
<polygon class="st3" points="584.2,28.7 584.2,49.7 612.2,49.7 612.2,77.7 633.2,77.7 633.2,28.7 "/>
<polygon class="st5" points="581.6,77.7 553.6,49.7 584.2,49.7 584.2,28.7 535.2,28.7 535.2,49.8 563.1,77.7 "/>
<polygon class="st5" points="556.4,126.6 537.8,126.6 561,149.8 565.8,154.6 556.2,154.6 535.2,154.6 535.2,175.6 584.2,175.6 
	584.2,154.5 570.3,140.5 "/>
<polygon class="st5" points="612.2,77.7 612.2,98.7 612.2,108.2 607.4,103.4 584.2,80.3 584.2,98.8 598.1,112.7 612,126.6 
	633.2,126.6 633.2,77.7 "/>
<polygon class="st5" points="535.2,105.5 507.4,77.7 486.3,77.7 486.3,126.6 507.3,126.6 507.3,96.1 535.2,124 "/>
<path class="st3" d="M383.9,229l-5.3,6.3c-2.4-2.9-5.9-4.7-9.1-4.7c-5.7,0-10.1,4.5-10.1,10.5c0,6,4.3,10.6,10.1,10.6
	c3,0,6.6-1.7,9.1-4.2l5.4,5.7c-3.9,4-9.6,6.6-14.9,6.6c-10.9,0-19-8-19-18.6c0-10.4,8.3-18.3,19.3-18.3
	C374.7,222.9,380.2,225.3,383.9,229z"/>
<path class="st3" d="M388.3,259.4v-38.3h8.9v38.3H388.3z"/>
<path class="st3" d="M432.7,245.4c0,8.6-6.1,14.2-15.2,14.2c-9.1,0-15.2-5.7-15.2-14.2s6.1-14.2,15.2-14.2
	C426.6,231.2,432.7,236.9,432.7,245.4z M411.3,245.5c0,4.3,2.5,7.2,6.2,7.2c3.7,0,6.2-2.9,6.2-7.2c0-4.3-2.5-7.2-6.2-7.2
	C413.8,238.3,411.3,241.2,411.3,245.5z"/>
<path class="st3" d="M464.6,259.4h-8.9v-4.6c-1.9,3.3-5,5-9,5c-6,0-10-4.1-10-10.6v-17.5h8.9v15c0,3.3,1.8,5.3,4.6,5.3
	c3.4-0.1,5.4-2.8,5.4-6.6v-13.7h8.9V259.4z"/>
<path class="st3" d="M499.7,259.4h-8.9v-3.7c-2,2.6-4.8,4-8.4,4c-7.8,0-13-5.8-13-14.4c0-8.5,5.1-14.1,12.8-14.1
	c3.7,0,6.6,1.4,8.6,4v-14.1h8.9V259.4z M490.8,245.5c0-4.3-2.5-7.2-6.2-7.2c-3.7,0-6.2,2.9-6.2,7.2c0.1,4.3,2.5,7.3,6.2,7.3
	C488.3,252.8,490.8,249.8,490.8,245.5z"/>
<path class="st3" d="M532.4,259.4l-16.6-22.2v22.2h-8.6v-36.1h8.1l16.7,22.3v-22.3h8.6v36.1H532.4z"/>
<path class="st3" d="M572.3,241.2v18.2h-8.7v-3.2c-1.8,2.4-4.7,3.6-8.5,3.6c-5.9,0-9.5-3.6-9.5-8.7c0-5.3,3.8-8.4,10.7-8.4h7.3v-0.4
	c0-2.7-1.8-4.4-5.4-4.4c-2.3,0-5.4,0.8-8.3,2.3l-2.5-5.9c4.3-2,8.3-3.1,12.9-3.1C567.8,231.1,572.3,234.9,572.3,241.2z M563.5,249.9
	v-2.5h-5.6c-2.7,0-4,0.9-4,3c0,2,1.4,3.3,3.9,3.3C560.6,253.7,563,252.2,563.5,249.9z"/>
<path class="st3" d="M596.4,257.9c-2,1.2-4.7,1.9-7.4,1.9c-5.4,0-9.2-3-9.2-8.8v-12.3h-3.9v-5.8h3.9v-7.7h8.9v7.7h7.3v5.9h-7.3v10.9
	c0,2.2,0.9,3.1,2.6,3c0.9,0,2.1-0.4,3.5-0.9L596.4,257.9z"/>
<path class="st3" d="M610,223.5c0,2.8-2,4.7-4.7,4.7c-2.7,0-4.7-2-4.7-4.7c0-2.7,2-4.7,4.7-4.7C608.1,218.8,610,220.8,610,223.5z
	 M600.8,259.4v-27.8h8.9v27.8H600.8z"/>
<path class="st3" d="M623.6,259.4l-10.5-27.8h9.2l6,19.7l6-19.7h8.9l-10.5,27.8H623.6z"/>
<path class="st3" d="M672.6,247.8H653c0.9,3.3,3.3,5.2,6.6,5.2c2.4,0,4.8-1,6.7-2.8l4.7,4.6c-2.8,3.1-7,4.9-12.1,4.9
	c-9.1,0-14.8-5.7-14.8-14.1c0-8.6,5.9-14.3,14.5-14.3C668.4,231.2,673.2,237.7,672.6,247.8z M664,243c0-3.4-2.2-5.6-5.4-5.6
	c-3.1,0-5.2,2.3-5.8,5.6H664z"/>
<path class="st3" d="M709,229l-5.3,6.3c-2.4-2.9-5.9-4.7-9.1-4.7c-5.7,0-10.1,4.5-10.1,10.5c0,6,4.3,10.6,10.1,10.6
	c3,0,6.6-1.7,9.1-4.2l5.4,5.7c-3.9,4-9.6,6.6-14.9,6.6c-10.9,0-19-8-19-18.6c0-10.4,8.3-18.3,19.3-18.3
	C699.8,222.9,705.4,225.3,709,229z"/>
<path class="st3" d="M740.2,245.4c0,8.6-6.1,14.2-15.2,14.2c-9.1,0-15.2-5.7-15.2-14.2s6.1-14.2,15.2-14.2
	C734.1,231.2,740.2,236.9,740.2,245.4z M718.8,245.5c0,4.3,2.5,7.2,6.2,7.2c3.7,0,6.2-2.9,6.2-7.2c0-4.3-2.5-7.2-6.2-7.2
	C721.3,238.3,718.8,241.2,718.8,245.5z"/>
<path class="st3" d="M773.4,241.8v17.5h-8.9v-15.1c0-3.3-1.9-5.3-4.9-5.3c-3.3,0-5.3,2.3-5.7,5.6v14.7H745v-27.8h8.9v4.5
	c2-3.3,5.2-4.9,9.3-5C769.4,231.1,773.4,235.3,773.4,241.8z"/>
<g class="st0">
	<g>
		<defs>
			<rect id="SVGID_5_" x="302.5" y="12.4" width="1.3" height="256.8"/>
		</defs>
		<use xlink:href="#SVGID_5_"  style="overflow:visible;fill:#FFFFFF;"/>
		<clipPath id="SVGID_6_">
			<use xlink:href="#SVGID_5_"  style="overflow:visible;"/>
		</clipPath>
		<rect x="302.5" y="12.4" class="st6" width="1.3" height="256.8"/>
	</g>
</g>
<g class="st0">
	<path class="st3" d="M228.4,332.9h-7.6l-12.2-21.2h-0.2c0.2,3.7,0.4,6.4,0.4,8v13.2h-5.3v-28h7.5l12.2,21h0.1
		c-0.2-3.6-0.3-6.2-0.3-7.7v-13.3h5.3V332.9z"/>
	<path class="st3" d="M254.5,322.1c0,3.5-0.9,6.2-2.8,8.2c-1.8,2-4.4,3-7.7,3c-2.1,0-3.9-0.4-5.4-1.4c-1.6-0.9-2.8-2.2-3.6-3.9
		c-0.8-1.7-1.3-3.7-1.3-5.9c0-3.5,0.9-6.2,2.7-8.2s4.4-2.9,7.7-2.9c2.1,0,3.9,0.4,5.4,1.3c1.6,0.9,2.8,2.2,3.6,3.9
		S254.5,319.9,254.5,322.1z M239.7,322.1c0,2.1,0.3,3.7,1,4.8s1.8,1.6,3.4,1.6c1.6,0,2.7-0.5,3.4-1.6c0.7-1.1,1-2.7,1-4.8
		c0-2.1-0.3-3.7-1-4.8c-0.7-1.1-1.8-1.6-3.4-1.6c-1.6,0-2.7,0.5-3.4,1.6C240,318.4,239.7,320,239.7,322.1z"/>
	<path class="st3" d="M271.3,311c0.8,0,1.5,0.1,2,0.2l-0.4,5.5c-0.5-0.1-1-0.2-1.7-0.2c-1.9,0-3.3,0.5-4.4,1.4c-1,1-1.6,2.3-1.6,4
		v10.9h-5.8v-21.4h4.4l0.9,3.6h0.3c0.7-1.2,1.6-2.2,2.7-2.9C268.8,311.4,270,311,271.3,311z"/>
	<path class="st3" d="M286.2,328.6c1,0,2.2-0.2,3.7-0.7v4.4c-1.5,0.7-3.2,1-5.4,1c-2.3,0-4-0.6-5.1-1.8c-1.1-1.2-1.6-3-1.6-5.3
		v-10.3H275v-2.5l3.2-2l1.7-4.5h3.7v4.6h6v4.4h-6v10.3c0,0.8,0.2,1.4,0.7,1.8C284.8,328.4,285.4,328.6,286.2,328.6z"/>
	<path class="st3" d="M314,332.9h-5.8v-12.5c0-3.1-1.2-4.6-3.5-4.6c-1.6,0-2.8,0.6-3.5,1.7c-0.7,1.1-1.1,2.9-1.1,5.4v10.1h-5.8V303
		h5.8v6.1c0,0.5,0,1.6-0.1,3.3l-0.1,1.7h0.3c1.3-2.1,3.4-3.1,6.2-3.1c2.5,0,4.4,0.7,5.7,2c1.3,1.4,2,3.3,2,5.8V332.9z"/>
	<path class="st3" d="M347.9,332.9l-2-6.7h-10.2l-2,6.7h-6.4l9.9-28.1h7.3l9.9,28.1H347.9z M344.4,321.2c-1.9-6-2.9-9.5-3.2-10.3
		c-0.2-0.8-0.4-1.4-0.5-1.9c-0.4,1.6-1.6,5.7-3.6,12.1H344.4z"/>
	<path class="st3" d="M376.5,332.9h-5.8v-12.5c0-1.5-0.3-2.7-0.8-3.5c-0.5-0.8-1.3-1.2-2.4-1.2c-1.5,0-2.6,0.5-3.3,1.6s-1,2.9-1,5.4
		v10.1h-5.8v-21.4h4.5l0.8,2.7h0.3c0.6-1,1.4-1.8,2.5-2.3c1.1-0.6,2.3-0.8,3.7-0.8c3.2,0,5.4,1,6.5,3.1h0.5c0.6-1,1.4-1.8,2.5-2.3
		c1.1-0.5,2.4-0.8,3.8-0.8c2.4,0,4.3,0.6,5.5,1.9c1.2,1.2,1.9,3.2,1.9,6v14H384v-12.5c0-1.5-0.3-2.7-0.8-3.5
		c-0.5-0.8-1.3-1.2-2.4-1.2c-1.4,0-2.5,0.5-3.2,1.5c-0.7,1-1.1,2.6-1.1,4.9V332.9z"/>
	<path class="st3" d="M405.6,333.3c-3.5,0-6.1-1-8.1-2.9c-1.9-1.9-2.9-4.6-2.9-8.1c0-3.6,0.9-6.4,2.7-8.3c1.8-2,4.3-2.9,7.5-2.9
		c3,0,5.4,0.9,7.1,2.6s2.5,4.1,2.5,7.2v2.8h-13.8c0.1,1.7,0.6,3,1.5,3.9c0.9,0.9,2.2,1.4,3.9,1.4c1.3,0,2.5-0.1,3.7-0.4
		c1.2-0.3,2.4-0.7,3.6-1.3v4.5c-1,0.5-2.1,0.9-3.3,1.1C408.7,333.1,407.3,333.3,405.6,333.3z M404.8,315.2c-1.2,0-2.2,0.4-2.9,1.2
		c-0.7,0.8-1.1,1.9-1.2,3.3h8.2c0-1.4-0.4-2.6-1.1-3.3C407,315.6,406,315.2,404.8,315.2z"/>
	<path class="st3" d="M431.1,311c0.8,0,1.5,0.1,2,0.2l-0.4,5.5c-0.5-0.1-1-0.2-1.7-0.2c-1.9,0-3.3,0.5-4.4,1.4c-1,1-1.6,2.3-1.6,4
		v10.9h-5.8v-21.4h4.4l0.9,3.6h0.3c0.7-1.2,1.6-2.2,2.7-2.9C428.5,311.4,429.7,311,431.1,311z"/>
	<path class="st3" d="M436.7,305.9c0-1.9,1.1-2.9,3.2-2.9c2.1,0,3.2,1,3.2,2.9c0,0.9-0.3,1.6-0.8,2.1c-0.5,0.5-1.3,0.8-2.4,0.8
		C437.7,308.8,436.7,307.8,436.7,305.9z M442.8,332.9h-5.8v-21.4h5.8V332.9z"/>
	<path class="st3" d="M457.6,333.3c-6.7,0-10-3.7-10-11c0-3.6,0.9-6.4,2.7-8.4c1.8-1.9,4.4-2.9,7.8-2.9c2.5,0,4.7,0.5,6.7,1.5
		l-1.7,4.5c-0.9-0.4-1.8-0.7-2.6-0.9c-0.8-0.2-1.6-0.4-2.4-0.4c-3,0-4.6,2.2-4.6,6.5c0,4.2,1.5,6.3,4.6,6.3c1.1,0,2.2-0.2,3.1-0.5
		c1-0.3,1.9-0.8,2.9-1.4v5c-0.9,0.6-1.9,1-2.9,1.2C460.3,333.2,459.1,333.3,457.6,333.3z"/>
	<path class="st3" d="M482.7,332.9l-1.1-2.9h-0.2c-1,1.2-2,2.1-3,2.6c-1,0.5-2.4,0.7-4.1,0.7c-2.1,0-3.7-0.6-4.9-1.8
		c-1.2-1.2-1.8-2.8-1.8-5c0-2.3,0.8-4,2.4-5c1.6-1.1,4-1.7,7.2-1.8l3.7-0.1v-0.9c0-2.2-1.1-3.3-3.3-3.3c-1.7,0-3.7,0.5-6,1.6l-1.9-4
		c2.5-1.3,5.2-1.9,8.2-1.9c2.9,0,5.1,0.6,6.6,1.9c1.5,1.3,2.3,3.2,2.3,5.7v14.3H482.7z M481,323l-2.3,0.1c-1.7,0.1-3,0.4-3.8,0.9
		c-0.8,0.6-1.2,1.4-1.2,2.6c0,1.6,0.9,2.5,2.8,2.5c1.4,0,2.4-0.4,3.2-1.2c0.8-0.8,1.2-1.8,1.2-3.1V323z"/>
	<path class="st3" d="M521.1,332.9h-19.6v-4.1l7-7.1c2.1-2.1,3.4-3.6,4.1-4.4c0.6-0.8,1.1-1.6,1.4-2.3c0.3-0.7,0.4-1.4,0.4-2.2
		c0-1.1-0.3-2-0.9-2.5c-0.6-0.5-1.4-0.8-2.5-0.8c-1.1,0-2.1,0.2-3.2,0.7c-1,0.5-2.1,1.2-3.2,2.1l-3.2-3.8c1.4-1.2,2.5-2,3.4-2.5
		c0.9-0.5,1.9-0.9,3-1.1c1.1-0.3,2.3-0.4,3.6-0.4c1.8,0,3.3,0.3,4.6,1c1.3,0.6,2.4,1.5,3.1,2.7c0.7,1.2,1.1,2.5,1.1,3.9
		c0,1.3-0.2,2.5-0.7,3.6s-1.2,2.3-2.1,3.5c-1,1.2-2.6,2.9-5,5.1l-3.6,3.4v0.3h12.2V332.9z"/>
	<path class="st3" d="M543.4,318.9c0,4.9-0.8,8.5-2.4,10.9c-1.6,2.4-4.1,3.5-7.4,3.5c-3.2,0-5.7-1.2-7.3-3.6
		c-1.6-2.4-2.5-6-2.5-10.8c0-4.9,0.8-8.6,2.4-10.9c1.6-2.3,4.1-3.5,7.4-3.5c3.2,0,5.7,1.2,7.3,3.7
		C542.5,310.5,543.4,314.1,543.4,318.9z M529.7,318.9c0,3.4,0.3,5.9,0.9,7.4c0.6,1.5,1.6,2.2,3,2.2c1.4,0,2.4-0.8,3-2.3
		c0.6-1.5,0.9-4,0.9-7.4c0-3.4-0.3-5.9-0.9-7.4c-0.6-1.5-1.6-2.3-3-2.3c-1.4,0-2.4,0.8-3,2.3C530,313,529.7,315.4,529.7,318.9z"/>
	<path class="st3" d="M561,332.9h-5.9v-16.2l0.1-2.7l0.1-2.9c-1,1-1.7,1.6-2.1,1.9l-3.2,2.6l-2.9-3.6l9-7.2h4.9V332.9z"/>
	<path class="st3" d="M578.4,304.5c2.7,0,4.8,0.6,6.5,1.8c1.6,1.2,2.5,2.9,2.5,4.9c0,1.4-0.4,2.7-1.2,3.8c-0.8,1.1-2.1,2.1-3.8,3
		c2.1,1.1,3.6,2.3,4.5,3.5c0.9,1.2,1.4,2.6,1.4,4c0,2.3-0.9,4.2-2.7,5.6c-1.8,1.4-4.2,2.1-7.1,2.1c-3.1,0-5.5-0.7-7.2-2
		c-1.8-1.3-2.6-3.2-2.6-5.5c0-1.6,0.4-3,1.3-4.3c0.9-1.2,2.2-2.3,4.1-3.3c-1.6-1-2.7-2.1-3.5-3.2c-0.7-1.2-1.1-2.4-1.1-3.8
		c0-2,0.8-3.6,2.5-4.9C573.6,305.1,575.8,304.5,578.4,304.5z M574.1,325.4c0,1.1,0.4,2,1.2,2.6c0.8,0.6,1.8,0.9,3.1,0.9
		c1.5,0,2.6-0.3,3.3-0.9c0.7-0.6,1.1-1.5,1.1-2.5c0-0.9-0.4-1.7-1.1-2.4c-0.7-0.7-1.9-1.5-3.5-2.4
		C575.4,321.9,574.1,323.5,574.1,325.4z M578.4,308.8c-1,0-1.8,0.3-2.4,0.8c-0.6,0.5-0.9,1.2-0.9,2.1c0,0.8,0.2,1.5,0.7,2.1
		c0.5,0.6,1.4,1.2,2.7,1.9c1.3-0.6,2.1-1.2,2.6-1.8c0.5-0.6,0.7-1.3,0.7-2.1c0-0.9-0.3-1.6-1-2.1
		C580.2,309.1,579.4,308.8,578.4,308.8z"/>
</g>
</svg>
