<?xml version="1.0" encoding="utf-8"?>
<!-- Generator: Adobe Illustrator 21.1.0, SVG Export Plug-In . SVG Version: 6.00 Build 0)  -->
<svg version="1.1"
	 id="svg2" xmlns:cc="http://creativecommons.org/ns#" xmlns:dc="http://purl.org/dc/elements/1.1/" xmlns:rdf="http://www.w3.org/1999/02/22-rdf-syntax-ns#" xmlns:svg="http://www.w3.org/2000/svg"
	 xmlns="http://www.w3.org/2000/svg" xmlns:xlink="http://www.w3.org/1999/xlink" x="0px" y="0px" viewBox="0 0 360 360"
	 style="enable-background:new 0 0 360 360;" xml:space="preserve">
<style type="text/css">
	.st0{fill:none;}
</style>
<g>
	<path class="st0" d="M128.3369904,154.2253113c0-5.5709229,4.5576172-10.1289062,10.1286011-10.1289062
		c5.5709229,0,10.1272583,4.5579834,10.1272583,10.1289062v14.0494385h9.1490479v-32.8920898h-38.5543213v32.8920898h9.1494141
		V154.2253113z"/>
	<path class="st0" d="M321.1545715,169.3703918c-0.5093994-7.5687256-1.5945435-14.9743652-3.2518921-22.173584
		l-141.9797516,4.8342285l128.1482697-41.1816406l0.000061-0.000061c-0.0958862-0.175354-0.1785889-0.3572998-0.2745361-0.5292969
		c-4.7472534-8.5450439-10.3842773-16.5142822-16.7260742-23.8683472h-0.000061l-113.3806915,58.6768799l82.3401642-85.6318359
		l0.8431396-0.8768921c-21.744339-13.5755615-47.3844147-21.4631348-74.8509674-21.4631348
		c-78.2033691,0-141.8285522,63.6226196-141.8285522,141.8242798c0,49.2072144,25.1960411,92.6353149,63.3593712,118.0792847
		l2.1937866-24.7957153l68.6542969,30.2531128l1.4839478,18.1469116c2.0358276,0.0871582,4.0802002,0.1409912,6.137085,0.1409912
		c67.6506958,0,124.3568268-47.6256104,138.4362946-111.0991821l-2.0993042-0.7283325l-144.6692657-50.1911011
		l147.4646759,10.5834961l7.1852417,0.515625l23.9944458,1.7218018l-23.9944458-1.7218628L321.1545715,169.3703918z
		 M104.7028351,184.3927917v-16.118042h5.5553589v-32.8920898h-5.5553589v-9.4547119l30.8512573-30.1869507v-2.1239014
		c0-1.6011353,1.3103638-2.9111938,2.911499-2.9111938c1.6011963,0,2.9115601,1.3100586,2.9115601,2.9111938v2.1239014
		l30.8499146,30.1869507v9.4547119h-5.5543823v32.8920898h5.5543823v16.118042h-7.486084l3.9436646,48.2373047
		l-57.2001343-25.206543l2.0379028-23.0307617H104.7028351z M171.063858,261.7108459l0.9587402,11.7247925l-63.8875732-28.1557617
		l0.9613037-10.8742676L171.063858,261.7108459z M109.8099518,226.3535461l0.9626465-10.8768921l58.6229858,25.8334351
		l0.9587402,11.7208252L109.8099518,226.3535461z M106.4604645,264.2088318l0.9626465-10.8729248l65.31073,28.7810059
		l0.9560547,11.72052L106.4604645,264.2088318z"/>
	<path d="M111.4845123,207.4235535l57.2001343,25.206543l-3.9436646-48.2373047h7.486084v-16.118042h-5.5543823v-32.8920898
		h5.5543823v-9.4547119l-30.8499146-30.1869507v-2.1239014c0-1.6011353-1.3103638-2.9111938-2.9115601-2.9111938
		c-1.6011353,0-2.911499,1.3100586-2.911499,2.9111938v2.1239014l-30.8512573,30.1869507v9.4547119h5.5553589v32.8920898h-5.5553589
		v16.118042h8.8195801L111.4845123,207.4235535z M119.1875763,135.3826599h38.5543213v32.8920898h-9.1490479v-14.0494385
		c0-5.5709229-4.5563354-10.1289062-10.1272583-10.1289062c-5.5709839,0-10.1286011,4.5579834-10.1286011,10.1289062v14.0494385
		h-9.1494141V135.3826599z"/>
	<polygon points="108.135025,245.2798767 172.0225983,273.4356384 171.063858,261.7108459 109.0963287,234.4056091 	"/>
	<polygon points="107.423111,253.335907 106.4604645,264.2088318 173.6898956,293.8374329 172.7338409,282.1169128 	"/>
	<polygon points="110.7725983,215.4766541 109.8099518,226.3535461 170.3543243,253.0309143 169.3955841,241.3100891 	"/>
	<path d="M347.9243469,219.2353821c0.0574341-0.2420654,0.1207275-0.4818726,0.1771851-0.7243652
		c2.8977051-12.4466553,4.4326172-25.4107056,4.4326172-38.7268066c0-2.741333-0.0714722-5.4661865-0.1998901-8.1763306
		l-23.9944458-1.7218018l-7.1852417-0.515625l-147.4646759-10.5834961l144.6692657,50.1911011l2.0993042,0.7283325
		c-14.0794678,63.4735718-70.7855988,111.0991821-138.4362946,111.0991821c-2.0568848,0-4.1012573-0.053833-6.137085-0.1409912
		l-1.4839478-18.1469116l-68.6542969-30.2531128l-2.1937866,24.7957153
		c-38.1633301-25.4439697-63.3593712-68.8720703-63.3593712-118.0792847
		c0-78.2016602,63.6251793-141.8242798,141.8285522-141.8242798c27.4665527,0,53.1066284,7.8875732,74.8509674,21.4631348
		l-0.8431396,0.8768921l-82.3401642,85.6318359l113.3806915-58.6768799h0.000061
		c6.3417969,7.3540649,11.9788208,15.3233032,16.7260742,23.8683472c0.0959473,0.1719971,0.1786499,0.3539429,0.2745361,0.5292969
		l-0.000061,0.000061l-128.1482697,41.1816406l141.9797516-4.8342285c1.6573486,7.1992188,2.7424927,14.6048584,3.2518921,22.173584
		l7.1852417,0.515625l23.9944458,1.7218628c-0.4111938-8.6762085-1.4736328-17.184021-3.1383667-25.477417v-0.000061
		c-3.1712646-15.7991943-8.5299683-30.8153076-15.7462158-44.7210083
		c-5.3751831-10.3579712-11.7823486-20.0960693-19.0817261-29.083313
		c-10.4032593-12.80896-22.6194458-24.0861206-36.2579346-33.437439c-0.4552612-0.3121338-0.9095459-0.6253052-1.3679199-0.9331055
		c-27.1634674-18.2415142-59.8267975-28.8978863-94.9345245-28.8978863
		c-94.1391602,0-170.7265625,76.5874023-170.7265625,170.7265625s76.5874023,170.7265625,170.7265625,170.7265625
		C262.3712463,350.5107727,330.0715027,294.4162292,347.9243469,219.2353821z"/>
	<path d="M181.8075714,5.0576496c-96.3447266,0-174.7265625,78.3818359-174.7265625,174.7265625
		s78.3818359,174.7265625,174.7265625,174.7265625s174.7265778-78.3818359,174.7265778-174.7265625
		S278.1523132,5.0576496,181.8075714,5.0576496z M11.0810118,179.7842102
		c0-94.1391602,76.5874023-170.7265625,170.7265625-170.7265625c35.1077271,0,67.7710571,10.6563721,94.9345245,28.8978863
		c0.458374,0.3078003,0.9126587,0.6209717,1.3679199,0.9331055c13.6384888,9.3513184,25.8546753,20.628479,36.2579346,33.437439
		c7.2993774,8.9872437,13.706543,18.7253418,19.0817261,29.083313c7.2162476,13.9057007,12.5749512,28.921814,15.7462158,44.7210083
		v0.000061c1.6647339,8.293396,2.7271729,16.8012085,3.1383667,25.477417
		c0.128418,2.710144,0.1998901,5.4349976,0.1998901,8.1763306c0,13.3161011-1.5349121,26.2801514-4.4326172,38.7268066
		c-0.0564575,0.2424927-0.119751,0.4822998-0.1771851,0.7243652
		c-17.8528442,75.1808472-85.5531006,131.2753906-166.1167755,131.2753906
		C87.6684113,350.5107727,11.0810118,273.9233704,11.0810118,179.7842102z"/>
</g>
</svg>
