<svg xmlns="http://www.w3.org/2000/svg" role="img" viewBox="-6.03 9.46 443.82 411.57"><style>svg {enable-background:new 0 0 432 432}</style><path fill="#f9bb3d" d="M247 79.6c.1 1.9.3 3.7.3 5.6v138.3c0 6.7 0 6.7-6.5 6.8-12 0-23.9-.1-35.9 0-3.4 0-4.9-.9-4.9-4.6.1-47.8.1-95.7.1-143.5 0-.9.2-1.7.2-2.6H247zm-57.6 92.9v51.8c0 5.8 0 5.9-5.7 5.9-12.2 0-24.5-.1-36.7.1-3.8.1-5-1.3-4.9-5 .1-35.1.1-70.3 0-105.4 0-3.7 1-5.2 4.9-5.1 12.5.2 25.1.2 37.6 0 3.8-.1 4.9 1.3 4.9 5-.2 17.6-.1 35.2-.1 52.7zm-57.9 15.7c0 12.4-.1 24.8.1 37.1.1 3.7-1.1 5.1-4.9 5-12.5-.2-25-.2-37.6 0-3.9.1-4.9-1.4-4.9-5.1.1-24.8.1-49.5 0-74.3 0-3.6 1.2-4.9 4.7-4.8 12.7.1 25.3.1 38 0 3.6 0 4.7 1.4 4.6 4.9-.1 12.4 0 24.8 0 37.2z"/><path fill="#059bbe" d="M2.5 411.9v-6.4c9.6-28.2 19.6-56.3 28.7-84.7 3-9.5 7.6-12.5 17.5-12.5 111.5.3 223 .3 334.6 0 9.9 0 14.5 3.1 17.5 12.5 9 28.4 19 56.5 28.7 84.7v6.4c-4.2.3-8.5.8-12.7.8H15.4c-4.4 0-8.7-.5-12.9-.8zM217 18.3h156.8c17.4 0 23.5 5.6 23.6 22.7.2 75.7.2 151.5 0 227.2 0 17.1-6.2 22.7-23.6 22.7H58.1c-17.4 0-23.5-5.6-23.6-22.8-.2-75.7-.2-151.5 0-227.2 0-17.1 6.3-22.7 23.6-22.7 52.9.1 105.9.1 158.9.1zm-1.2 245.9h147.3c13.9 0 14.4-.5 14.4-14.5V59.8c0-14-.7-14.8-14.2-14.8H68.8c-13.7 0-14.4.8-14.4 14.6v189.9c0 14.3.4 14.6 15.3 14.6 48.7.1 97.4.1 146.1.1z"/></svg>