<?xml version="1.0" encoding="utf-8"?>
<!-- Generator: Adobe Illustrator 21.1.0, SVG Export Plug-In . SVG Version: 6.00 Build 0)  -->
<svg version="1.1" id="Layer_1" xmlns="http://www.w3.org/2000/svg" xmlns:xlink="http://www.w3.org/1999/xlink" x="0px" y="0px"
	 viewBox="0 0 432 169" enable-background="new 0 0 432 169" xml:space="preserve">
<g id="Page-1">
	<g id="primary">
		<g id="Logo-Symbol-72px">
			<g id="reverse-2" transform="translate(0.000000, 12.500000)">
				<polygon id="Fill-1" fill="#FFFFFF" points="166.013,87.876 178.117,94.863 178.117,29.234 166.013,22.244 				"/>
				<polygon id="Fill-2" fill="#FFFFFF" points="3.833,29.234 3.833,94.867 15.937,87.877 15.937,22.246 				"/>
				<polygon id="Fill-3" fill="#FFFFFF" points="57.094,146.631 69.197,153.618 98.015,136.98 85.912,129.993 				"/>
				<polygon id="shadow" fill="#FFFFFF" points="74.036,136.85 86.14,143.838 98.015,136.98 85.912,129.993 				"/>
			</g>
			<g id="reverse-1" transform="translate(24.500000, 37.500000)">
				<polygon id="Fill-5" fill="#FFFFFF" points="94.311,101.364 94.311,87.388 42.198,57.3 38.64,59.354 38.646,59.357 
					38.646,69.225 				"/>
				<polygon id="Fill-6" fill="#FFFFFF" points="38.645,99.972 88.262,128.619 100.368,121.632 38.645,85.995 				"/>
			</g>
			<g id="top-2">
				<polygon id="Fill-7" fill="#FFFFFF" points="136.395,51.847 148.497,58.834 178.117,41.734 166.011,34.748 				"/>
				<polygon id="Fill-8" fill="#FFFFFF" points="97.097,88.512 84.994,81.525 57.089,97.636 69.192,104.624 				"/>
				<polygon id="Fill-9" fill="#FFFFFF" points="151.495,26.363 139.39,19.376 109.773,36.477 121.876,43.465 				"/>
				<polygon id="Fill-10" fill="#FFFFFF" points="70.476,73.142 58.373,66.154 30.467,82.266 42.571,89.253 				"/>
				<polygon id="Fill-11" fill="#FFFFFF" points="83.152,21.107 95.255,28.094 124.874,10.994 112.769,4.007 				"/>
				<polygon id="Fill-12" fill="#FFFFFF" points="3.846,66.896 15.95,73.883 43.855,57.772 31.752,50.784 				"/>
			</g>
			<g id="gradient" transform="translate(0.000000, 26.000000)">
				<polygon id="Fill-13" fill="#FFFFFF" points="166.013,47.878 166.013,109.373 178.117,102.385 178.117,40.891 				"/>
				<polygon id="Fill-14" fill="#FFFFFF" points="151.489,117.758 151.489,56.264 139.386,63.251 139.386,124.746 				"/>
				<polygon id="Fill-15" fill="#FFFFFF" points="112.758,78.624 112.758,140.12 124.862,133.131 124.862,71.636 				"/>
				<polygon id="Fill-16" fill="#FFFFFF" points="57.094,133.131 69.197,140.118 69.197,78.626 57.094,71.636 				"/>
				<polygon id="Fill-17" fill="#FFFFFF" points="42.57,63.252 42.57,124.746 30.467,117.759 30.467,56.263 				"/>
				<polygon id="Fill-18" fill="#FFFFFF" points="3.84,102.385 15.943,109.372 15.943,47.878 3.84,40.89 				"/>
			</g>
			<g id="shadow_1_" transform="translate(7.000000, 19.000000)">
				<polygon id="Fill-19" fill="#FFFFFF" points="67.03,68.854 79.133,75.841 90.097,69.512 77.994,62.524 				"/>
				<polygon id="Fill-20" fill="#FFFFFF" points="13.788,38.114 25.891,45.101 36.854,38.771 24.752,31.784 				"/>
				<polygon id="Fill-21" fill="#FFFFFF" points="40.409,53.484 52.512,60.471 63.475,54.141 51.373,47.154 				"/>
			</g>
			<g id="top-1">
				<polygon id="Fill-22" fill="#FFFFFF" points="69.192,4 57.087,10.987 166.012,73.877 178.116,66.89 				"/>
				<polygon id="Fill-23" fill="#FFFFFF" points="42.564,19.374 30.461,26.361 139.384,89.25 151.489,82.263 				"/>
				<polygon id="Fill-24" fill="#FFFFFF" points="3.833,41.734 112.756,104.624 124.862,97.636 15.937,34.747 				"/>
			</g>
		</g>
	</g>
</g>
<path id="d" fill="#FFFFFF" d="M429.102,116.519c0.436,0,0.726-0.29,0.726-0.726V67.864c0-0.436-0.29-0.726-0.726-0.726h-6.681
	c-0.436,0-0.726,0.29-0.726,0.726v16.993h-0.073c-1.67-2.396-4.575-4.139-9.295-4.139c-5.955,0-10.312,2.832-12.127,8.424
	c-0.871,2.687-1.235,5.156-1.235,9.876c0,4.72,0.363,7.189,1.235,9.876c1.815,5.592,6.173,8.424,12.127,8.424
	c4.72,0,7.625-1.743,9.295-4.139h0.073v2.614c0,0.436,0.29,0.726,0.726,0.726H429.102z M414.433,110.056
	c-3.268,0-5.519-1.598-6.463-4.502c-0.508-1.598-0.726-3.34-0.726-6.536s0.218-4.938,0.726-6.536
	c0.944-2.905,3.195-4.502,6.463-4.502c3.34,0,5.592,1.598,6.536,4.502c0.508,1.598,0.726,3.34,0.726,6.536s-0.218,4.938-0.726,6.536
	C420.024,108.458,417.773,110.056,414.433,110.056L414.433,110.056z"/>
<path id="linker" fill="#FFFFFF" d="M227.946,116.955c0.436,0,0.726-0.29,0.726-0.726v-5.81c0-0.436-0.29-0.726-0.726-0.726h-1.598
	c-2.106,0-3.05-0.799-3.05-3.195V67.864c0-0.436-0.29-0.726-0.726-0.726h-6.681c-0.436,0-0.726,0.29-0.726,0.726v39.069
	c0,6.754,2.76,10.021,9.586,10.021H227.946z M243.85,74.908c0.436,0,0.726-0.29,0.726-0.726v-6.318c0-0.436-0.29-0.726-0.726-0.726
	h-6.681c-0.436,0-0.726,0.29-0.726,0.726v6.318c0,0.436,0.29,0.726,0.726,0.726H243.85z M243.85,116.519
	c0.436,0,0.726-0.29,0.726-0.726v-33.55c0-0.436-0.29-0.726-0.726-0.726h-6.681c-0.436,0-0.726,0.29-0.726,0.726v33.55
	c0,0.436,0.29,0.726,0.726,0.726H243.85z M284.008,116.519c0.436,0,0.726-0.29,0.726-0.726V93.717
	c0-7.48-4.648-12.999-12.127-12.999c-4.648,0-7.698,1.888-9.223,4.067h-0.073v-2.542c0-0.436-0.29-0.726-0.726-0.726h-6.681
	c-0.436,0-0.726,0.29-0.726,0.726v33.55c0,0.436,0.29,0.726,0.726,0.726h6.681c0.436,0,0.726-0.29,0.726-0.726V95.605
	c0-4.502,2.469-7.625,6.681-7.625c4.357,0,6.608,3.123,6.608,7.625v20.188c0,0.436,0.29,0.726,0.726,0.726H284.008z
	 M325.474,116.519c0.436,0,0.581-0.436,0.363-0.726l-12.781-20.769l11.111-12.781c0.29-0.29,0.145-0.726-0.29-0.726h-7.407
	c-0.581,0-0.944,0.218-1.38,0.726l-11.982,14.088V67.864c0-0.436-0.29-0.726-0.726-0.726H295.7c-0.436,0-0.726,0.29-0.726,0.726
	v47.929c0,0.436,0.29,0.726,0.726,0.726h6.681c0.436,0,0.726-0.29,0.726-0.726v-9.223l4.72-5.446l8.86,14.669
	c0.29,0.508,0.654,0.726,1.162,0.726H325.474z M345.735,117.318c6.463,0,11.401-2.469,14.379-5.955
	c0.29-0.363,0.29-0.726-0.073-1.017l-4.285-3.776c-0.363-0.29-0.726-0.218-1.089,0.145c-1.743,1.888-4.285,3.34-8.206,3.34
	s-6.681-1.888-7.843-5.301c-0.29-0.799-0.508-1.67-0.508-2.687c0-0.29,0.145-0.436,0.436-0.436h21.568
	c0.508,0,0.799-0.29,0.799-0.726c0-5.664-0.363-8.061-1.162-10.53c-1.961-5.955-7.189-9.658-14.379-9.658
	c-6.971,0-12.345,3.558-14.306,9.658c-0.726,2.251-1.162,5.011-1.162,8.642s0.508,6.318,1.235,8.569
	C333.099,113.687,338.328,117.318,345.735,117.318L345.735,117.318z M352.706,95.096c0,0.29-0.145,0.436-0.436,0.436h-13.725
	c-0.29,0-0.436-0.145-0.436-0.436c0-1.235,0.145-2.106,0.436-2.977c0.944-2.832,3.558-4.502,6.899-4.502
	c3.268,0,5.882,1.67,6.826,4.502C352.561,92.99,352.706,93.862,352.706,95.096L352.706,95.096z M377.034,116.519
	c0.436,0,0.726-0.29,0.726-0.726V96.839c0-5.592,2.033-8.86,6.608-8.86c1.888,0,3.558,0.654,5.156,1.67
	c0.363,0.29,0.726,0.218,1.017-0.145l3.849-4.865c0.29-0.363,0.218-0.654-0.145-1.017c-1.815-1.815-4.575-2.905-7.335-2.905
	c-4.43,0-7.407,1.815-9.077,4.502h-0.073v-2.977c0-0.436-0.29-0.726-0.726-0.726h-6.681c-0.436,0-0.726,0.29-0.726,0.726v33.55
	c0,0.436,0.29,0.726,0.726,0.726H377.034z"/>
</svg>
