<svg id="Layer_1" data-name="Layer 1" xmlns="http://www.w3.org/2000/svg" viewBox="0 0 459.90605 148.46482"><defs><style>.cls-1{fill:#654fef;}.cls-2{fill:#fff;}</style></defs><path class="cls-1" d="M137.53911,9.10022q-24.30714.07048-48.61462.03252a25.05025,25.05025,0,0,1-.89563,5.44513,14.8395,14.8395,0,0,1-28.898-4.4375c-.00824-.33592-.01836-.67175-.02758-1.00763H9.317c-.52859.28035-.23693.76741-.23706,1.1373q-.0249,64.25178-.01562,128.50364H122.66291c5.01232,0,10.02468.00683,15.03686-.01575.32807-.00145.78358.28547,1.011-.237q0-64.08031.02411-128.16063C138.73548,9.39478,138.62361,9.09706,137.53911,9.10022Z"/><path class="cls-2" d="M39.46407,75.08608a7.04431,7.04431,0,0,1-3.64394,2.17669,6.847,6.847,0,1,1-2.72491-13.41605A6.79969,6.79969,0,0,1,40.862,68.66027c.14607.48508.273.30831.51715.13127q7.34107-5.32314,14.68826-10.63785c2.72365-1.96843,5.462-3.91655,8.18392-5.88731,2.31328-1.67488,4.61269-3.36894,6.9171-5.056a.72637.72637,0,0,0,.10705-.12388,6.92992,6.92992,0,0,1-3.34416-8.26523,6.85746,6.85746,0,0,1,13.1096.33119,6.92183,6.92183,0,0,1-3.54,7.97078l29.21466,21.98812a6.83519,6.83519,0,0,1,4.87437-5.11868,6.53928,6.53928,0,0,1,5.40319.74655,6.85945,6.85945,0,1,1-8.60943,10.51472c-.20232.14587-.21754.39029-.28573.59317q-1.74868,5.20236-3.47913,10.41087-3.6162,10.95089-7.22259,21.905c-.14863.44926-.11086.541.39463.49095a6.74424,6.74424,0,0,1,7.56574,5.76242,6.547,6.547,0,0,1-1.51943,5.38531,6.83168,6.83168,0,0,1-11.74988-6.49977c.07028-.21755.14992-.43208.25386-.73021L55.94941,112.137a6.93893,6.93893,0,0,1-.31963,7.034,6.61,6.61,0,0,1-4.55339,3.01644,6.87524,6.87524,0,1,1-.36763-13.6034C46.96486,97.431,43.22932,86.30279,39.46407,75.08608Zm2.97562-3.7631c2.90327,1.17917,5.70977,2.3148,8.51243,3.45983a1.34554,1.34554,0,1,1-.98614,2.47608c-1.62734-.6583-3.24979-1.3287-4.8757-1.99057-1.02645-.41785-2.05549-.82932-3.19065-1.28689C45.7379,85.41449,49.53631,96.72885,53.362,108.12434c.26237-.30465.46252-.53554.66106-.76781q3.97415-4.649,7.949-9.2975a1.35,1.35,0,0,1,2.02544-.32542,1.36518,1.36518,0,0,1,.00816,2.04756q-3.35553,3.91909-6.71124,7.838c-.505.59031-1.00342,1.18634-1.57081,1.85775l36.69547.43666c-.23339-.344-.39336-.58317-.55668-.82q-3.25558-4.72148-6.51-9.4438a1.36761,1.36761,0,0,1,.23076-1.99415,1.35013,1.35013,0,0,1,1.98344.51039q2.51165,3.65262,5.031,7.3c.63109.9151,1.26393,1.829,1.96275,2.84005,3.79525-11.46051,7.55117-22.80223,11.3423-34.25033-1.11248.43441-2.11262.82267-3.111,1.2153q-2.58527,1.01668-5.16844,2.03867A1.33309,1.33309,0,0,1,96.16216,77.08a1.2532,1.2532,0,0,1-.3885-1.26545A1.45957,1.45957,0,0,1,96.825,74.76017q2.50253-.98493,5.0055-1.9687c1.14233-.44933,2.28458-.89889,3.511-1.38146L75.75939,49.14586c0,2.98033.00059,5.8005-.00033,8.62066-.0003.90845.015,1.81752-.01379,2.72514a1.31773,1.31773,0,0,1-2.5259.45887,2.48716,2.48716,0,0,1-.1177-1.028c-.00311-3.44119.00459-6.8824.00333-10.3236-.00005-.13476.09992-.31031-.13516-.42481Zm75.16684-.699a4.15261,4.15261,0,0,0-4.14674-4.22144,4.184,4.184,0,1,0,4.14674,4.22144Zm-79.13521-.03561a4.179,4.179,0,0,0-8.35783-.04218,4.179,4.179,0,1,0,8.35783.04218Zm35.98382-33.79a4.14958,4.14958,0,0,0-4.19869,4.16618,4.17968,4.17968,0,1,0,8.358-.08066A4.14335,4.14335,0,0,0,74.45514,36.79836Zm28.31574,78.559a4.18543,4.18543,0,1,0-8.3687.1875A4.25425,4.25425,0,0,0,98.718,119.639,4.20984,4.20984,0,0,0,102.77088,115.35733Zm-52.909-4.11585a4.19977,4.19977,0,0,0,.05288,8.39912,4.19966,4.19966,0,1,0-.05288-8.39912Z"/><path class="cls-2" d="M74.638,91.96c-3.90385,0-7.80832-.04186-11.71135.01495a10.04839,10.04839,0,0,1-6.86795-2.08318A9.18743,9.18743,0,0,1,53.02145,80.138a9.05286,9.05286,0,0,1,7.71612-6.61871,9.94382,9.94382,0,0,1,1.9094-.02984c.33067.01111.48654-.04559.60961-.40458A11.39639,11.39639,0,0,1,74.4598,65.26615a10.82665,10.82665,0,0,1,5.93013,1.892,1.37858,1.37858,0,0,0,1.12318.26586,7.42413,7.42413,0,0,1,8.57376,5.94076,1.11985,1.11985,0,0,0,.73325.952A9.24779,9.24779,0,0,1,88.43,91.84481a8.07489,8.07489,0,0,1-1.32494.11188c-2.08753.00486-4.17508.00155-6.26263.00139q-3.10218-.00024-6.20437,0Zm1.374-2.65515q2.66824,0,5.3365,0c1.798-.0001,3.596.00324,5.394-.00334a7.16928,7.16928,0,0,0,1.21437-.06489,6.60653,6.60653,0,0,0,.81232-12.8657,1.42143,1.42143,0,0,1-1.21023-1.64359,4.76862,4.76862,0,0,0-6.18142-4.55069,1.82345,1.82345,0,0,1-1.85593-.37053,8.51674,8.51674,0,0,0-7.09037-1.72163A8.73227,8.73227,0,0,0,65.49,75.03038c-.22753,1.15514-.81159,1.52673-1.93637,1.267a6.73464,6.73464,0,0,0-3.21757-.01091,6.64123,6.64123,0,0,0-5.007,7.019,6.57035,6.57035,0,0,0,6.65516,5.99309c.98387.00154,1.96711.029,2.95183.02033C68.62778,89.2864,72.32,89.30583,76.012,89.30487Z"/><path class="cls-1" d="M166.69227,90.53962,162.031,56.49982H167.613c.7865,7.34561,1.83574,18.6391,2.09673,25.06662h.09595c.78077-7.20653,2.2028-17.60922,3.16887-25.06662h5.10716c1.011,7.70827,2.42682,17.32226,3.11781,24.83072h.10827c.40139-6.64758,1.39738-17.118,2.18388-24.83072h5.307l-5.03014,34.0398h-5.35582c-.95991-7.63345-2.29435-16.71226-3.02231-23.71721h-.09595c-.79089,7.15284-2.2741,16.37952-3.29122,23.71721Z"/><path class="cls-1" d="M204.23983,85.13934c0,1.661.00616,4.39681.10211,5.40028h-4.79512c-.10827-.49558-.29356-1.55891-.33845-1.93389a4.52477,4.52477,0,0,1-4.35191,2.34144c-3.96461,0-5.56488-3.67324-5.56488-7.65369v-.45861c0-6.49882,4.37876-8.22673,9.13206-8.22673h.60516V71.24122c0-2.06681-.24647-3.22873-1.8463-3.22873-1.55495,0-1.91541,1.213-1.91541,2.8511V71.294h-5.16041v-.34065c0-3.81761,1.4656-7.19773,7.26155-7.19773,5.09,0,6.8716,2.80885,6.8716,7.06921Zm-5.11508-6.556h-.87408c-2.3947,0-3.97253.90665-3.97253,4.19435v.41371c0,1.86083.67471,3.18471,2.31327,3.18471,1.75653,0,2.53334-1.21385,2.53334-4.77091Z"/><path class="cls-1" d="M212.599,82.28384v1.20505c0,1.62581.45816,3.03419,2.13766,3.03419,1.42643,0,2.036-.86792,2.036-2.62488,0-1.70326-.481-2.881-3.67545-4.93991-3.62615-2.33176-5.373-4.24364-5.373-8.01724,0-4.46018,2.39558-7.1854,6.986-7.1854,4.98568,0,6.96754,2.74987,6.96754,7.58327v1.05541h-5.07062V70.76765c0-1.83619-.61749-2.58791-1.86436-2.58791-1.29395,0-1.80757.9401-1.80757,2.33352,0,1.477.49514,2.14955,2.89423,3.68205,4.61555,2.9356,6.244,4.80347,6.244,9.12193,0,5.04907-2.53421,7.62993-7.48953,7.62993-5.928,0-7.28575-3.7243-7.28575-7.49085V82.28384Z"/><path class="cls-1" d="M225.16272,71.80985c0-5.24975,0-6.45569-.05106-7.64665h5.01342a16.5357,16.5357,0,0,1,.19145,2.32384,4.91084,4.91084,0,0,1,4.63315-2.73139,4.02407,4.02407,0,0,1,4.226,2.84582,5.52682,5.52682,0,0,1,5.06667-2.84582c2.86431,0,5.20839,1.44359,5.20839,6.59828V90.53962H244.201V71.31252c0-1.83883-.485-2.8511-1.96294-2.8511-1.84586,0-2.28422,1.43039-2.28422,4.03326V90.53962H234.6592V71.43839c0-2.40218-.713-2.977-1.97438-2.977-1.87316,0-2.27234,1.44271-2.27234,3.95932V90.53962h-5.24976Z"/><path class="cls-1" d="M266.18591,74.99016h-7.482V85.7115h8.62372l-.66458,4.82812H253.4541V56.49982h13.14552v4.873h-7.89576V70.162h7.482Z"/><path class="cls-1" d="M284.73963,55.01573v28.21c0,4.0183,0,5.88089.05105,7.31392h-5.013c-.09594-.66458-.19189-2.09145-.19189-2.50869a4.66151,4.66151,0,0,1-4.65119,2.91624c-4.73746,0-5.65291-3.78151-5.65291-8.89131V71.728c0-4.58606,1.7508-7.97234,6.0543-7.97234,1.75872,0,3.43206.51758,4.15385,1.85907v-10.599Zm-10.202,17.03883V82.48013c0,2.43475.57743,3.76127,2.389,3.76127,2.146,0,2.56326-1.92156,2.56326-4.93375V73.19183c0-2.85374-.26055-4.73041-2.49988-4.73041C275.16525,68.46142,274.53764,69.84515,274.53764,72.05456Z"/><path class="cls-1" d="M303.84086,89.06962c0,5.84832-.566,10.71957-8.07621,10.71957-6.27876,0-7.33681-3.94-7.33681-6.865v-.10827h5.25592v.11444a2.29812,2.29812,0,0,0,2.36257,2.52453c2.17859,0,2.54477-1.6707,2.54477-4.99713V87.57761a4.41093,4.41093,0,0,1-4.34311,2.4233c-4.807,0-5.85888-3.73662-5.85888-8.26546V71.77288c0-3.587,1.34941-8.01723,6.41344-8.01723,2.77187,0,3.91091,1.29219,4.35191,2.734a13.60925,13.60925,0,0,1,.24206-2.32648H303.943c-.05106,1.62668-.10211,3.80968-.10211,6.59036ZM293.645,72.09329v9.25926c0,2.67945.62761,4.03326,2.33176,4.03326,2.23933,0,2.62047-1.76224,2.62047-4.99537V72.66369c0-2.2455-.228-4.20227-2.3476-4.20227C294.5684,68.46142,293.645,69.53707,293.645,72.09329Z"/><path class="cls-1" d="M312.61246,78.74791v3.87482c0,2.03776.47093,3.90035,2.4638,3.90035,2.09057,0,2.34936-1.87139,2.34936-3.76831v-.12588h5.11508v.11972c0,2.76836-.59064,8.19856-7.34209,8.19856-6.71712,0-7.70211-4.1609-7.70211-9.49252v-8.644c0-3.60723,1.13727-9.055,7.6757-9.055,5.63178,0,7.46445,3.79736,7.46445,9.01631v5.97595Zm4.99889-4.10984V71.93749c0-2.43915-.56247-3.75775-2.44531-3.75775-1.69182,0-2.50869,1.20065-2.50869,3.76391v2.69442Z"/><path class="cls-1" d="M331.4593,75.31849V90.53962h-5.25064V56.49982h7.27168c5.18021,0,8.23729,2.07473,8.23729,8.20209V65.9985c0,5.23039-2.146,6.56132-3.46463,7.10179,1.985.93129,3.12046,2.36168,3.12046,6.98119a94.20268,94.20268,0,0,0,.3116,10.45814h-5.07019c-.45244-2.05624-.35649-7.64753-.35649-10.12013,0-4.14946-.53431-5.101-3.58082-5.101Zm0-4.33518h1.20329c2.778,0,3.79912-1.04661,3.79912-4.748V65.06721c0-2.631-.544-4.23308-3.5192-4.23308H331.4593Z"/><path class="cls-1" d="M360.31888,82.83663c0,3.87922,0,6.31925.05018,7.703h-5.013a19.19738,19.19738,0,0,1-.1919-2.50076c-.93129,2.30535-2.76219,2.90831-4.92054,2.90831-2.45588,0-5.24448-1.176-5.24448-6.86324V64.1632h5.24976v18.559c0,2.42506.69891,3.52537,2.27454,3.52537,1.71207,0,2.54478-1.07566,2.54478-4.50948V64.1632h5.25063Z"/><path class="cls-1" d="M364.72449,72.301c0-5.35891,0-6.9407-.051-8.13783h5.013a17.86838,17.86838,0,0,1,.19189,2.39954,4.96916,4.96916,0,0,1,4.86157-2.80709c3.20848,0,5.41789,1.94709,5.41789,6.931v19.853H374.908V71.67782c0-2.38106-.82127-3.2164-2.26838-3.2164-1.86875,0-2.66537.99291-2.66537,4.57461V90.53962h-5.24976Z"/><path class="cls-1" d="M382.23512,64.1632h2.80093V57.83251h5.2436V64.1632h3.30794v4.60366h-3.30794V84.363c0,1.2473.17164,2.24373,1.76312,2.24373a5.66313,5.66313,0,0,0,1.43039-.15316v3.95757a8.08276,8.08276,0,0,1-3.20232.52374c-3.2965,0-5.23479-1.06421-5.23479-5.63178V68.76686h-2.80093Z"/><path class="cls-1" d="M396.31458,64.1632h5.24976V90.53962h-5.24976Zm.04489-9.14747h5.24976v5.60978h-5.24976Z"/><path class="cls-1" d="M405.99547,71.80985c0-5.24975,0-6.45569-.05105-7.64665h5.013a16.46792,16.46792,0,0,1,.19189,2.32384,4.91017,4.91017,0,0,1,4.63359-2.73139,4.0237,4.0237,0,0,1,4.22516,2.84582,5.52829,5.52829,0,0,1,5.06754-2.84582c2.86431,0,5.20839,1.44359,5.20839,6.59828V90.53962H425.0342V71.31252c0-1.83883-.48589-2.8511-1.96293-2.8511-1.84587,0-2.28423,1.43039-2.28423,4.03326V90.53962h-5.29465V71.43839c0-2.40218-.71387-2.977-1.97526-2.977-1.87227,0-2.2719,1.44271-2.2719,3.95932V90.53962h-5.24976Z"/><path class="cls-1" d="M439.07757,78.74791v3.87482c0,2.03776.47005,3.90035,2.46379,3.90035,2.09058,0,2.34937-1.87139,2.34937-3.76831v-.12588h5.11508v.11972c0,2.76836-.59064,8.19856-7.34209,8.19856-6.71712,0-7.70211-4.1609-7.70211-9.49252v-8.644c0-3.60723,1.13727-9.055,7.6757-9.055,5.63178,0,7.46444,3.79736,7.46444,9.01631v5.97595Zm4.99889-4.10984V71.93749c0-2.43915-.56248-3.75775-2.44531-3.75775-1.69183,0-2.50869,1.20065-2.50869,3.76391v2.69442Z"/></svg>