<?xml version="1.0" encoding="utf-8"?>
<!-- Generator: Adobe Illustrator 21.1.0, SVG Export Plug-In . SVG Version: 6.00 Build 0)  -->
<svg version="1.1" id="Layer_1" xmlns="http://www.w3.org/2000/svg" xmlns:xlink="http://www.w3.org/1999/xlink" x="0px" y="0px"
	 viewBox="0 0 179 59.8" style="enable-background:new 0 0 179 59.8;" xml:space="preserve">
<style type="text/css">
	.st0{fill:none;}
	.st1{fill:#221F1F;}
	.st2{fill:#67CFE3;}
	.st3{fill:#DFCAA3;}
	.st4{fill:#648C1A;}
</style>
<g>
	<g>
		<path class="st0" d="M30,23.8c-2.5,0-4.6,2.1-4.6,4.6c0,2.5,2.1,4.6,4.6,4.6c2.5,0,4.6-2.1,4.6-4.6C34.6,25.8,32.6,23.8,30,23.8z
			 M29.4,31.3c-0.8,0-1.4-0.6-1.4-1.4c0-0.8,0.6-1.4,1.4-1.4c0.8,0,1.4,0.6,1.4,1.4C30.9,30.7,30.2,31.3,29.4,31.3z"/>
		<path class="st0" d="M29.2,34.7c-0.7-0.3-1.7-0.5-2.9-0.5l-0.5,0c-0.3-0.6-1.3-0.9-2.4-0.7c1.1-0.1,2.1,0.2,2.4,0.7
			c0,0.1,0.1,0.2,0.1,0.3c0,0,0,0.1,0,0.1c0,0.7-0.9,1.4-2.1,1.6c0,0-0.1,0-0.1,0c0,0-0.1,0-0.1,0c-1.3,0.2-2.4-0.2-2.6-0.8
			l-0.4,0.1c-0.3,0.1-2.6,0.9-2.8,2.5c-0.1,0.5,0.1,1,0.4,1.4c0.4,0.5,1.1,0.8,1.8,0.8c0.4,0,0.8-0.1,1.1-0.3
			c0.2-0.1,0.4-0.2,0.6-0.4c0.7-0.5,1.6-1,2.7-1.2c0.1,0,0.3,0,0.5,0c0.2,0,0.5,0,0.8,0c0.4,0,0.8,0,1.1,0c1.1,0,1.8-0.1,2.3-0.3
			c1-0.4,1.5-1.3,1.3-2.3C30.4,35.4,30,35,29.2,34.7z M28.9,37.6c-0.4,0.2-1.2,0.2-2,0.2c-0.7,0-1.4,0-2,0c-0.2,0-0.4,0-0.6,0
			c-1.6,0.2-2.8,1.2-3.5,1.6c-0.2,0.1-0.5,0.2-0.7,0.2c-0.8,0-1.7-0.5-1.6-1.4c0.2-1.2,2.3-2,2.3-2c0.3,0.3,0.8,0.7,2,0.7
			c0.3,0,0.7,0,1.1-0.1c2.3-0.3,2.4-1.9,2.4-1.9c2.4,0,3.4,0.7,3.5,1.1C29.9,36.4,29.9,37.1,28.9,37.6z"/>
		<path class="st0" d="M23.6,39.3c-0.6,0.2-1.1,0.5-1.6,0.8c0,0,0,0,0,0c0.1,0.5,0.5,1.6,1.4,1.3c0.5-0.1,0.5-0.8,0.4-1.3
			C23.8,39.8,23.7,39.4,23.6,39.3z"/>
		<path class="st0" d="M26.2,39c-0.1,0-0.2,0-0.3,0c-0.3,0-0.6,0-0.8,0c-0.3,0-0.4,0-0.4,0c-0.1,0-0.2,0-0.3,0.1
			c0,0.3,0.1,0.7,0.2,1c0.1,0.4,0.3,0.8,0.6,0.9c0.3,0.1,1.2,0.2,1.2-0.9c0,0,0-0.1,0-0.1C26.2,39.5,26.2,39.2,26.2,39z"/>
		<path class="st0" d="M19.1,34.9c0.8-0.8,1.3-2,1.3-3.2c0-2.5-2.1-4.6-4.6-4.6s-4.6,2.1-4.6,4.6s2.1,4.6,4.6,4.6
			c0.8,0,1.6-0.2,2.3-0.6C18.5,35.4,18.8,35.2,19.1,34.9z M15.4,34.7c-0.8,0-1.4-0.6-1.4-1.4c0-0.8,0.6-1.4,1.4-1.4
			c0.8,0,1.4,0.6,1.4,1.4C16.8,34.1,16.2,34.7,15.4,34.7z"/>
		<path class="st1" d="M15.6,51.7c-0.8,0.2-3.1,1.4-5.1,1.8c-2,0.4-3.7,0.6-4.3,0.8c-0.6,0.2-1.1,0.7,0.1,1.1c1.2,0.4,7,0.6,7.5,0
			c0.5-0.6-0.4-0.9-1.6-0.9c-0.9,0-0.8-0.3-0.8-0.3c0,0,0.1-0.4,1.4-0.6c1.4-0.2,7.5-0.8,7.4-1.4C20,51.6,16.4,51.5,15.6,51.7z"/>
		<ellipse transform="matrix(0.9771 -0.2127 0.2127 0.9771 -11.7439 3.766)" class="st1" cx="11.6" cy="56.5" rx="1.2" ry="0.3"/>
		
			<ellipse transform="matrix(0.9968 -7.935128e-02 7.935128e-02 0.9968 -4.4409 0.8809)" class="st1" cx="8.9" cy="56.3" rx="1.3" ry="0.3"/>
		<ellipse transform="matrix(0.9908 -0.135 0.135 0.9908 -7.504 1.4104)" class="st1" cx="6.6" cy="56" rx="0.8" ry="0.3"/>
		<ellipse transform="matrix(0.9896 -0.1437 0.1437 0.9896 -7.9634 1.2991)" class="st1" cx="5" cy="55.8" rx="0.8" ry="0.2"/>
		<ellipse transform="matrix(0.9896 -0.1437 0.1437 0.9896 -7.901 1.241)" class="st1" cx="4.6" cy="55.3" rx="0.8" ry="0.2"/>
		<ellipse transform="matrix(0.9896 -0.1437 0.1437 0.9896 -7.8278 1.2218)" class="st1" cx="4.5" cy="54.8" rx="0.7" ry="0.2"/>
		<path class="st1" d="M27.6,52.3c-1.4,0.1-4.5-0.1-4.9,0.6c-0.4,0.7,1.3,1,3.9,0.8c2.7-0.2,6.4-0.5,6.6-1.3s-0.7-0.7-0.8-1.2
			c-0.1-0.5,0.9-0.5,1.1-1.3c0.2-0.8-1.4-0.7-2.8-0.7c-1.4,0-3.8,0.1-4,0.9c-0.2,0.7,1.1,0.7,2,0.9c0.9,0.2,0.7,0.5,0.7,0.5
			C29.3,52,29,52.2,27.6,52.3z"/>
		<ellipse class="st1" cx="23.9" cy="54.3" rx="1.2" ry="0.4"/>
		<ellipse class="st1" cx="27" cy="54.2" rx="0.8" ry="0.4"/>
		<ellipse class="st1" cx="29.5" cy="53.9" rx="0.9" ry="0.3"/>
		<ellipse class="st1" cx="31.4" cy="53.6" rx="0.6" ry="0.3"/>
		<ellipse class="st1" cx="33" cy="53.3" rx="0.6" ry="0.3"/>
		<path class="st1" d="M5.1,45c0,0.4,0.8,0.7,2.3,1.1c-0.1-0.8,0-1.5,0.1-2.1C5.9,44.2,5.1,44.6,5.1,45z"/>
		<path class="st1" d="M48.9,44c0,0.1,0,0.1-0.1,0.2c-0.2,0.4-0.4,0.8-0.8,1.1c-0.7,0.6-1.3,1-1.8,1.2c2.9-0.4,4.6-0.9,4.6-1.5
			C50.9,44.6,50.2,44.3,48.9,44z"/>
		<path class="st2" d="M43.9,43.2c-0.2-1.4-0.8-2-1.3-2.5c-0.5-0.5-0.9-1-0.8-1.8c0.1-0.8,0.8-1.3,1.8-1.4
			c-0.6-4.3-1.6-9.6-2.7-14.2c-0.6-2.3-1.5-3.9-2.8-4.9C36.7,19,35,19.8,33,20.6c-1.4,0.6-2.8,1.2-4.2,1.7c-1.1,1.2-2.3,2.4-3.1,2.7
			c-0.5,0.2-1,0.3-1.4,0.3c-0.9,0-1.5-0.4-1.8-0.8c-0.3,0.1-0.6,0.1-0.8,0.2c-0.2,0-0.5,0-0.9,0.1c0.2,0.4,0.1,0.9-0.2,1.2
			c-0.3,0.4-0.8,0.6-1.6,0.6c-1.1,0-2.6-0.4-4.6-1.2c-0.3-0.1-0.6-0.2-0.8-0.3c-0.2,0-0.3,0-0.5,0h0c-1.9,0-3.4-0.1-4.6-0.2
			c-1.3,2.7-0.7,5.7-0.3,8.1c0.5,2.4,2,6.6,3.5,10.2c0.5,1.3,1.1,2.6,1.5,3.6c4,0.4,9.1,0.6,14.6,0.6c6.6,0,12.6-0.3,16.7-0.8
			C44.4,45.4,44,43.6,43.9,43.2C43.9,43.2,43.9,43.2,43.9,43.2z M11.2,31.7c0-2.5,2.1-4.6,4.6-4.6s4.6,2.1,4.6,4.6
			c0,1.3-0.5,2.4-1.3,3.2c-0.3,0.3-0.6,0.5-0.9,0.7c-0.7,0.4-1.5,0.6-2.3,0.6C13.3,36.3,11.2,34.2,11.2,31.7z M23.5,41.4
			c-1,0.3-1.3-0.8-1.4-1.3c0,0,0,0,0,0c0.5-0.3,1-0.6,1.6-0.8c0.1,0.2,0.2,0.5,0.2,0.8C24,40.6,24,41.3,23.5,41.4z M25,41
			c-0.2-0.1-0.4-0.5-0.6-0.9c-0.1-0.4-0.2-0.8-0.2-1c0.1,0,0.2,0,0.3-0.1c0.1,0,0.2,0,0.4,0c0.2,0,0.5,0,0.8,0c0.1,0,0.2,0,0.3,0
			c0,0.2,0.1,0.5,0.1,1c0,0,0,0.1,0,0.1C26.3,41.2,25.3,41.1,25,41z M29.2,38.2c-0.5,0.2-1.2,0.3-2.3,0.3c-0.4,0-0.8,0-1.1,0
			c-0.3,0-0.6,0-0.8,0c-0.2,0-0.4,0-0.5,0c-1.1,0.1-2,0.7-2.7,1.2c-0.2,0.1-0.4,0.3-0.6,0.4c-0.3,0.2-0.7,0.3-1.1,0.3
			c-0.7,0-1.4-0.3-1.8-0.8c-0.3-0.4-0.5-0.9-0.4-1.4c0.2-1.6,2.5-2.5,2.8-2.5l0.4-0.1c0,0,0-0.1,0-0.1c-0.1-0.8,0.9-1.6,2.2-1.8
			c0.1,0,0.1,0,0.2,0c1.1-0.1,2.1,0.2,2.4,0.7l0.5,0c1.2,0,2.2,0.2,2.9,0.5c0.7,0.3,1.2,0.7,1.3,1.2C30.7,36.9,30.2,37.8,29.2,38.2z
			 M30,33c-2.5,0-4.6-2.1-4.6-4.6c0-2.5,2.1-4.6,4.6-4.6c2.5,0,4.6,2.1,4.6,4.6C34.6,30.9,32.6,33,30,33z"/>
		<path d="M35.9,12.9L35.9,12.9l-0.1-0.1c0-0.1-0.2-0.2-0.2-0.2l0,0l0,0l0,0l0,0l0,0l0,0l-0.1,0c-0.1,0-0.1,0-0.2,0
			c-0.1,0-0.1,0-0.2,0c-0.1,0-0.1,0-0.2,0c-0.3,0-0.5,0.2-0.7,0.3c-0.2,0.2-0.3,0.3-0.5,0.5c-0.2,0.4-0.4,0.7-0.5,1.1
			C33.1,14.7,33,15,33,15.2c0,0.1,0,0.2,0,0.2c0,0.1,0,0.1,0,0.1s0.1-0.1,0.1-0.3c0.1-0.2,0.2-0.4,0.4-0.7c0.2-0.3,0.3-0.6,0.6-0.9
			c0.1-0.1,0.2-0.3,0.4-0.4c0.1-0.1,0.3-0.2,0.4-0.2c0,0,0.1,0,0.1,0c0,0,0.1,0,0.1,0c0,0,0.1,0,0.1,0l0.1,0l0,0c0,0,0,0,0,0
			c0,0,0,0,0,0c0,0,0,0,0,0l0,0l0,0l0,0c0,0,0,0,0,0c0,0,0,0,0,0c0,0,0,0.1,0,0.2c0,0.2,0,0.3,0,0.5c0,0.2-0.1,0.3-0.1,0.5
			c-0.1,0.3-0.1,0.6-0.2,0.7c0,0.2-0.1,0.3-0.1,0.3s0.1-0.1,0.2-0.2c0.1-0.1,0.3-0.4,0.4-0.7c0.1-0.1,0.2-0.3,0.2-0.5
			c0.1-0.2,0.1-0.4,0.2-0.6c0-0.1,0-0.3,0-0.4C36,13,36,12.9,35.9,12.9z"/>
		<polygon points="35.3,13.2 35.3,13.2 35.4,13.2 35.4,13.2 35.4,13.2 		"/>
		<path class="st1" d="M7.4,21.7L7.4,21.7c0,0,0-0.1,0-0.1V21.7z"/>
		<path class="st1" d="M8,19.9c0.1,0.3,0.3,0.5,0.4,0.6c0.1,0.1,0.1,0.1,0.1,0.2c0,0,0,0.1,0,0.1s0-0.1-0.1-0.3
			c0-0.2-0.1-0.4-0.1-0.7c0-0.1,0-0.3-0.1-0.4c0-0.1,0-0.3,0-0.4c0-0.1,0-0.1,0.1-0.1c0,0,0,0,0.1,0l0,0l0,0c0,0,0,0,0,0
			c0,0,0,0,0,0c0,0,0,0,0,0l0,0c0,0,0,0,0,0c0,0,0.1,0,0.1,0.1C8.8,18.9,8.9,19,9,19.2c0.1,0.1,0.2,0.3,0.3,0.4
			c0.2,0.3,0.4,0.6,0.6,0.8c0.2,0.2,0.3,0.4,0.4,0.6c0.1,0.1,0.2,0.2,0.2,0.2s0,0,0-0.1c0,0,0-0.1,0-0.2c0-0.2-0.1-0.4-0.2-0.7
			c-0.1-0.3-0.2-0.6-0.4-0.9c-0.1-0.2-0.2-0.3-0.3-0.5c-0.1-0.2-0.3-0.3-0.5-0.5c-0.1-0.1-0.2-0.1-0.4-0.2c0,0-0.1,0-0.1,0l0,0l0,0
			c0,0-0.1,0-0.1,0c0,0-0.1,0-0.1,0l0,0l0,0l0,0l0,0l0,0c-0.1,0.1-0.3,0.2-0.4,0.3c-0.1,0.1-0.1,0.3-0.1,0.4c0,0.2,0,0.4,0.1,0.6
			C7.8,19.6,7.9,19.7,8,19.9z"/>
		<path class="st3" d="M10.1,48.1c1.1,0,1.8-0.6,2.4-1.3c-0.6-1.4-1.6-3.8-2.6-6.3c-0.3,0.2-0.6,0.5-0.9,1c-0.8,1.2-1.5,4.1-0.6,5.7
			C8.7,47.8,9.3,48.1,10.1,48.1z"/>
		<path class="st3" d="M48.1,41c-0.6-1.6-2-2.8-3.3-2.8l0,0c0,0-0.3,0-0.6,0c-0.7,0-1.6,0.2-1.7,0.9c-0.1,0.5,0.1,0.8,0.6,1.2
			c0.5,0.6,1.2,1.3,1.5,2.9c0.2,1.8,0.7,2.7,1.3,2.7h0c0.3,0,0.8-0.2,1.7-1C48.7,43.8,48.6,42.1,48.1,41z"/>
		<circle class="st1" cx="15.4" cy="33.3" r="1.4"/>
		<circle class="st1" cx="29.4" cy="29.9" r="1.4"/>
		<path class="st4" d="M11.4,17.1c1.1,0.3,2.4,0.5,3.8,0.5c2.2,0,7-0.4,13.7-3.3l0.2-0.1c0-0.3,0-0.7,0.1-1.1
			c0.1-0.7,0.4-1.2,0.8-1.6c-0.1-0.3-0.1-0.4-0.2-0.5c-0.8-0.4-7.1-2.8-10.4-2.8c-0.3,0-0.6,0-0.9,0.1c-2.9,0.6-7.4,5.7-7.6,6.4
			c0,0.3,0,1.3,0,2.4L11.4,17.1z"/>
		<path class="st4" d="M11.4,24.3c-0.2,0-0.3,0-0.3,0c-0.6,0-1.2-0.4-1.3-1c0-0.1,0-0.1,0-0.2c-0.3,0.2-0.7,0.4-1,0.6l-0.6,0.4
			l-0.4-0.5c-0.1-0.2-0.7-0.9-1.2-1.9c-1,0.5-1.7,1-1.9,1.4c0,0.1,0,0.1,0,0.2C4.9,23.5,5.8,24.2,11.4,24.3z"/>
		<path class="st4" d="M22.9,22.8c0.5-0.3,1.1-0.2,1.5,0.1c0.1,0,0.2,0,0.3-0.1c0.6-0.3,2.8-2.6,4.5-4.6c0.1-0.1,0.1-0.1,0.2-0.2
			c-3.8,1.6-9.1,3.4-14.2,3.4c-0.8,0-1.6,0-2.3-0.1l0.1,0.3l-0.6,0.2c0,0-0.1,0-0.3,0.1c0.8,0.2,1.9,0.6,3.3,1.1
			c2.5,1,3.5,1.1,3.7,1c0.3-0.2,0.8-0.2,1.1,0c0.7,0,1.2-0.1,1.5-0.1c0.1,0,0.3-0.1,0.6-0.1C22.3,23.5,22.5,23,22.9,22.8z"/>
		<path class="st4" d="M37.7,15.2c-0.2,1.1-0.5,2.3-0.8,2.6l-0.2,0.3c1-0.5,1.9-0.9,2.6-1.4c2.6-1.5,3-2.1,3-2.3c0-0.1,0-0.1,0-0.2
			c0,0-0.2-0.2-1-0.2c-0.9,0-2.2,0.2-3.5,0.5C37.7,14.8,37.7,15,37.7,15.2z"/>
		<path class="st4" d="M36.6,18.2l-0.4,0c0,0-0.7-0.1-1.6-0.1c-1,0-2.3,0.1-3.3,0.3c0.2,0.4,0.2,0.9-0.2,1.3
			c-0.3,0.3-0.7,0.8-1.2,1.4c0.9-0.4,1.9-0.8,2.9-1.2C34.2,19.4,35.5,18.8,36.6,18.2z"/>
		<path class="st3" d="M29.2,14.9c-2.7,1.2-8.5,3.4-13.9,3.4c-1.4,0-2.7-0.1-4-0.5c0.1,0.2,0.3,0.4,0.4,0.6c0.5,0.8,0.8,1.6,1,2.1
			c0.7,0.1,1.5,0.2,2.6,0.2c3.1,0,8-0.7,14.7-3.7c0.1-0.3,0.2-0.7,0.4-1.2c0,0,0,0,0,0c-0.1,0-0.1,0-0.2,0
			C29.7,15.7,29.3,15.3,29.2,14.9z"/>
		<path class="st2" d="M7.5,21.7c0.5,0.9,0.9,1.5,0.9,1.5c1.6-1.1,3.7-1.9,3.7-1.9S12.1,21,12,20.8c0,0,0-0.1-0.1-0.2c0,0,0,0,0-0.1
			c0,0,0-0.1-0.1-0.1c0,0,0-0.1,0-0.1c0,0,0-0.1,0-0.1c0,0,0-0.1-0.1-0.1c0,0,0-0.1-0.1-0.1c0,0,0-0.1-0.1-0.1c0-0.1,0-0.1-0.1-0.2
			c0,0,0-0.1,0-0.1c0-0.1-0.1-0.1-0.1-0.2c0,0,0,0,0-0.1c0-0.1-0.1-0.2-0.1-0.2c0,0,0,0,0,0c-0.2-0.3-0.3-0.6-0.5-0.9
			c-0.6-1-1.5-1.8-2.4-1.8c-0.3,0-0.6,0.1-0.9,0.3c-1.7,1-0.8,3.4,0.1,4.9C7.4,21.6,7.5,21.6,7.5,21.7z M7.7,18.8
			c0-0.1,0-0.3,0.1-0.4c0.1-0.1,0.2-0.3,0.4-0.3l0,0l0,0l0,0l0,0l0,0c0,0,0.1,0,0.1,0c0,0,0.1,0,0.1,0l0,0l0,0c0,0,0.1,0,0.1,0
			c0.1,0,0.3,0.1,0.4,0.2c0.2,0.2,0.3,0.3,0.5,0.5c0.1,0.2,0.2,0.3,0.3,0.5c0.2,0.3,0.3,0.7,0.4,0.9c0.1,0.3,0.1,0.5,0.2,0.7
			c0,0.1,0,0.2,0,0.2c0,0,0,0.1,0,0.1s-0.1-0.1-0.2-0.2c-0.1-0.1-0.2-0.3-0.4-0.6c-0.2-0.2-0.4-0.5-0.6-0.8
			c-0.1-0.1-0.2-0.3-0.3-0.4c-0.1-0.1-0.2-0.3-0.3-0.3c-0.1,0-0.1-0.1-0.1-0.1c0,0,0,0,0,0l0,0c0,0,0,0,0,0c0,0,0,0,0,0c0,0,0,0,0,0
			l0,0l0,0c0,0,0,0-0.1,0c0,0,0,0.1-0.1,0.1c0,0.1,0,0.3,0,0.4c0,0.2,0,0.3,0.1,0.4c0,0.3,0.1,0.5,0.1,0.7c0,0.2,0.1,0.3,0.1,0.3
			s0,0,0-0.1c0,0-0.1-0.1-0.1-0.2c-0.1-0.1-0.3-0.3-0.4-0.6c-0.1-0.1-0.1-0.3-0.2-0.5C7.7,19.2,7.7,19,7.7,18.8z"/>
		<polygon class="st2" points="8.3,16 8.3,16 8.3,16.3 		"/>
		<path class="st3" d="M30.9,10.9c0.1,0,0.1,0,0.2,0c0.5,0.1,0.9,0.6,1,1.3c1-1.4,2.1-2.1,3.2-2.1c0.5,0,0.9,0.1,1.3,0.3
			c0.6-0.7,1-1.2,1-1.2c-0.5,0.1-1.4,0.2-1.4,0.2c3.6-1.3,3.3-4.9,3.3-4.9c0,0.6-1.9,2.1-1.9,2.1c0.1-0.5-0.2-1.2-0.2-1.2
			c0.1,0.7-2.2,2.5-2.2,2.5c0.2-0.3,0-0.9,0-0.9c-0.1,0.7-1.1,0.9-1.1,0.9C34.8,7.2,36,3.3,35.1,3C34.2,2.8,33,5.6,33,5.6
			c0-0.7-0.4-0.7-0.4-0.7c0.2,2.1-1.5,3.7-1.5,3.7C31,8.2,30.3,8,30.3,8c0.2,0.5,0,2.6-0.1,3.2C30.4,11,30.7,10.9,30.9,10.9z"/>
		<path d="M30,15C30,15,30,15,30,15C30.1,15,30.1,15,30,15C30.1,15,30.1,15,30,15c0.1,0.1,0.1,0.1,0.1,0.1c0,0,0,0,0.1,0l0,0
			c0,0,0,0,0,0c0,0,0,0,0.1,0c0.1,0,0.2-0.1,0.3-0.2c0.1-0.3,0.2-0.5,0.4-0.8c0.1-0.2,0.2-0.5,0.4-0.7c0.2-0.9-0.1-1.7-0.4-1.8
			c0,0,0,0-0.1,0c-0.4,0-0.9,0.6-1.1,1.6c-0.1,0.7-0.1,1.3,0.1,1.6c0,0,0,0,0,0C30,14.9,30,14.9,30,15z"/>
		<ellipse transform="matrix(0.367 -0.9302 0.9302 0.367 10.091 41.2355)" class="st2" cx="35.3" cy="13.2" rx="0" ry="0"/>
		<polygon class="st2" points="35.4,13.2 35.4,13.2 35.3,13.2 35.4,13.2 35.4,13.2 35.4,13.2 		"/>
		<path class="st2" d="M35.3,10.9c-2.1,0-3.6,3.1-4.3,5.2c-0.1,0.2-0.1,0.4-0.2,0.5c0,0,0,0.1,0,0.1c-0.1,0.2-0.1,0.4-0.2,0.5
			c-0.1,0.2-0.1,0.4-0.2,0.6c0.1,0,0.2,0.1,0.3,0.1c1.2-0.4,2.7-0.4,3.9-0.4c1,0,1.7,0.1,1.7,0.1C36.6,17,38.4,10.9,35.3,10.9z
			 M36,13.4c0,0.2-0.1,0.4-0.2,0.6c-0.1,0.2-0.2,0.3-0.2,0.5c-0.2,0.3-0.3,0.5-0.4,0.7c-0.1,0.1-0.2,0.2-0.2,0.2s0-0.1,0.1-0.3
			c0-0.2,0.1-0.4,0.2-0.7c0-0.2,0.1-0.3,0.1-0.5c0-0.2,0-0.3,0-0.5c0-0.1,0-0.1,0-0.2c0,0,0,0,0,0l0,0c0,0,0,0,0,0l0,0l-0.1,0
			c0,0-0.1,0-0.1,0c0,0-0.1,0-0.1,0c0,0-0.1,0-0.1,0c-0.1,0-0.3,0.1-0.4,0.2c-0.1,0.1-0.3,0.2-0.4,0.4c-0.2,0.3-0.4,0.6-0.6,0.9
			c-0.2,0.3-0.3,0.5-0.4,0.7c-0.1,0.2-0.1,0.3-0.1,0.3s0,0,0-0.1c0-0.1,0-0.1,0-0.2c0-0.2,0.1-0.5,0.1-0.8c0.1-0.3,0.2-0.7,0.5-1.1
			c0.1-0.2,0.3-0.4,0.5-0.5c0.2-0.2,0.4-0.3,0.7-0.3c0.1,0,0.1,0,0.2,0c0.1,0,0.1,0,0.2,0c0.1,0,0.1,0,0.2,0l0.1,0l0,0l0,0l0,0l0,0
			l0,0l0,0c0,0,0.2,0.1,0.2,0.2l0,0.1l0,0.1c0,0,0,0.1,0.1,0.1C36,13.2,36,13.3,36,13.4z"/>
		<path d="M24.4,24.6c0.3,0,0.7-0.1,1.1-0.3c0.8-0.4,2.8-2.4,5.1-5.1c0.1-0.1,0.1-0.2,0.1-0.4c0-0.1-0.1-0.2-0.2-0.3
			c-0.1-0.1-0.2-0.1-0.3-0.1c-0.1,0-0.3,0.1-0.4,0.2c-1,1.2-3.8,4.4-4.7,4.8l0,0c-0.2,0.1-0.4,0.1-0.5,0.2l-0.4,0.1l-0.3-0.3
			c-0.1-0.1-0.2-0.1-0.3-0.1c-0.1,0-0.2,0-0.3,0.1c-0.1,0.1-0.2,0.2-0.2,0.3c0,0.1,0,0.3,0.1,0.4C23.2,24.1,23.6,24.6,24.4,24.6z"/>
		<path d="M19.7,24.7c-0.1,0-0.2,0-0.2,0.1l-0.1,0.1l-0.2,0c0,0-0.1,0-0.1,0c-0.5,0-1.6-0.1-4-1.1c-2.6-1.1-3.7-1.2-4-1.2
			c-0.1,0-0.1,0-0.1,0c-0.1,0-0.2,0.1-0.3,0.2c-0.1,0.1-0.1,0.2-0.1,0.4c0,0.2,0.2,0.4,0.5,0.4c0,0,0,0,0,0l0.1,0l0.1,0
			c0.3,0,1.2,0.2,3.6,1.1c1.9,0.8,3.4,1.2,4.3,1.2c0.5,0,0.8-0.1,1-0.3c0.1-0.1,0.1-0.2,0.1-0.4c0-0.1-0.1-0.2-0.2-0.3
			C19.9,24.8,19.8,24.7,19.7,24.7z"/>
		<path class="st3" d="M26.3,34.9c0,0-0.1,1.6-2.4,1.9c-0.4,0.1-0.8,0.1-1.1,0.1c-1.2,0-1.7-0.4-2-0.7c0,0-2.2,0.7-2.3,2
			c-0.1,0.9,0.8,1.4,1.6,1.4c0.3,0,0.5-0.1,0.7-0.2c0.8-0.4,2-1.4,3.5-1.6c0.1,0,0.3,0,0.6,0c0.5,0,1.3,0,2,0c0.8,0,1.6,0,2-0.2
			c1-0.4,1-1.2,0.9-1.6C29.7,35.6,28.8,34.9,26.3,34.9z"/>
		<path class="st1" d="M23.7,36.2C23.7,36.2,23.7,36.2,23.7,36.2c0.1,0,0.1,0,0.2,0c1.2-0.2,2-0.9,2.1-1.6c0,0,0-0.1,0-0.1
			c0-0.1,0-0.2-0.1-0.3c-0.3-0.6-1.3-0.9-2.4-0.7c-0.1,0-0.1,0-0.2,0c-1.3,0.2-2.3,1-2.2,1.8c0,0,0,0.1,0,0.1
			C21.3,36.1,22.4,36.4,23.7,36.2z"/>
	</g>
	<path class="st1" d="M67.8,40.2c0,1-0.2,2-0.7,2.9c-1,2-2.8,3-5.3,3c-1.7,0-3-0.5-3.9-1.4c-1.5-1.5-1.4-3.8-1.4-3.8l-1.1,0
		c0,0.1-0.1,2.7,1.7,4.6c1.1,1.2,2.7,1.7,4.6,1.7c3.7,0,5.4-1.9,6.2-3.5c0.5-1,0.8-2.2,0.8-3.4V19.6h-1.1V40.2z"/>
	<path class="st1" d="M82.2,19.6L82.2,19.6c-0.3,0-0.5,0.2-0.6,0.4l-8.8,26.7l1.1,0l2.6-7.6H88l2.6,7.6h1.1L82.8,20
		C82.7,19.8,82.4,19.6,82.2,19.6z M76.8,38.1l5.4-16.5l5.4,16.5H76.8z"/>
	<polygon class="st1" points="96.8,46.7 109.7,46.7 109.7,45.6 97.8,45.6 97.8,33.6 109,33.6 109,32.5 97.8,32.5 97.8,20.4 
		109.7,20.4 109.7,19.4 96.8,19.4 	"/>
	<path class="st1" d="M131.8,26.8c0-0.1,0.1-3.1-2-5.3c-1.4-1.4-3.4-2.2-5.9-2.2c-2.6,0-4.6,0.7-6,2.2c-2.1,2.1-2,5.1-2,5.2v13.2
		c0,1.6,0.4,3.1,1.3,4.3c1,1.5,2.9,3.2,6.6,3.2c1.2,0,2.3-0.1,3.3-0.4c2.7-0.7,4.6-3.1,4.6-6v-6.6H125v1.1h5.8V41
		c0,2.4-1.6,4.4-3.8,5c-0.9,0.2-1.9,0.3-3,0.3c-2.6,0-4.5-0.9-5.7-2.7c-0.7-1.1-1.1-2.3-1.1-3.7l0-13.2c0,0-0.1-2.6,1.7-4.4
		c1.2-1.2,2.9-1.8,5.2-1.8c2.2,0,4,0.6,5.2,1.8c1.8,1.8,1.7,4.4,1.7,4.5L131.8,26.8z"/>
	<polygon class="st1" points="138.9,46.7 152,46.7 152,45.6 140,45.6 140,33.6 151,33.6 151,32.5 140,32.5 140,20.4 152,20.4 
		152,19.4 138.9,19.4 	"/>
	<path class="st1" d="M174,46.7L168.2,35c1.1-0.3,2.1-0.8,2.9-1.6c1.2-1.2,1.8-2.9,1.8-5c0-5.3-2.7-7.8-4.3-8.5
		c-0.7-0.3-1.6-0.5-2.4-0.5h-7.8v27.3h1.1V35.5c0.4,0,0.9,0,1.4,0c2.1,0,4.3,0.1,6.3-0.3l5.7,11.5H174z M160.9,34.4
		c-0.5,0-1,0-1.4,0v-14h6.7c0.7,0,1.4,0.1,2,0.4c1.7,0.8,3.7,3,3.7,7.5c0,1.9-0.5,3.3-1.5,4.2C168.4,34.6,164.4,34.5,160.9,34.4z"/>
</g>
</svg>
