<svg xmlns="http://www.w3.org/2000/svg" role="img" viewBox="6.40 8.90 411.70 707.20"><defs><style>.cls-1{fill:#fff}.cls-2{fill:#cccccb}.cls-3{fill:#666766}.cls-4{fill:none;stroke:#666766;stroke-miterlimit:10;stroke-width:2px}</style></defs><path d="M384.504 385.911c1.533-14.57-8.746-74.532-11.163-91.376-2.398-16.825 5.122-58.302 5.122-58.302.162-8.368.288-13.219.288-13.219 3.012-10.82 5.753-27.05 5.753-27.05l-3.769 4.797c3.769-4.797 0-10.82 0-10.82s-6.78 3.011-3.174 0c3.607-2.994 4.797-7.81 0-7.214-4.815.613-52.297 7.213-52.297 7.213l-.108-.054c-14.914 36.645-92.008 41.297-103.387 41.784h-.036l-14.824-.577s-90.366-2.29-105.262-42.974c-3.462-.487-47.464-6.6-52.08-7.195-4.816-.595-3.607 4.22 0 7.213 3.606 3.012-3.175 0-3.175 0s-3.769 6.023 0 10.82l-3.769-4.797s2.723 16.23 5.735 27.05c0 0 .126 4.852.289 13.22 0 0 7.52 41.477 5.121 58.302-2.398 16.843-12.677 76.805-11.145 91.376s-8.097 60.106-16.5 94.983c-8.422 34.859-1.209 67.32 14.427 70.926a3.188 3.188 0 0 0 .36.072l-.216 1.1s-6.312 37.87-5.104 52.298c1.19 14.426 5.104 7.213 5.104 8.421v1.19s-4.815 18.034 10.82 28.854c0 0-2.399 15.635 33.669 37.276 0 0 33.813 13.128 53.722 16.266 70.114 11.036 167.117 6.005 203.184-15.635s33.669-37.276 33.669-37.276c15.617-10.82 10.82-28.853 10.82-28.853v-1.19c0-1.209 3.895 6.005 5.103-8.422s-5.103-52.298-5.103-52.298c15.617-3.606 22.83-36.067 14.427-70.926-8.422-34.877-18.034-80.411-16.501-94.983z" class="cls-1"/><path d="M125.87 648.87s3.605 22.783 53.368 30.402 101.623-6.387 101.623-6.387 21.08-11.899 22.944-17.781l1.865-5.883s7.67-3.67 6-16c0 0-27.049 17.216-76.337 23.336-51 6.334-87.92-8.333-97.793-14s-20.5-15.016-20.5-15.016-1.128 5.089 2.83 5.33c0 0-1.907 10.157 3.112 13.421s2.888 2.579 2.888 2.579zm-7.719-149.323c-.395-2.39-7.368 5.448-7.368 5.448l-5.994-20.895-11.667 5.536s9.047 9.348-5.281 22.272c0 0 9.717 9.317-13.126 15.93 0 0 6.505 9.016-13.579 9.617 0 0-3.302 4.631-7.468 10.561-6.276 3.842-14.052 3.836-14.052 3.836v16.652c-3.103 4.778-4.068 6.767 0 2.013 3.743-4.374 41.11-22.241 44.717-31.258s17.878-5.41 16.453-19.837.379-13.225 6.991-7.514 18.707-.631 18.707-.631-7.937-9.339-8.333-11.73zm80.509-7.617s12.823 17.134 14.85 17.99 1.74 2.192 8.785-6.337l9.625-11.652s1.187 10.293-3.2 16.293-9.387 14.333-16.053 11-17.014-16.92-14.007-27.293zm69.167 79.106c.219-1.325 4.086 3.021 4.086 3.021l3.323-11.586 6.47 3.07s-5.017 5.183 2.928 12.35c0 0-5.388 5.166 7.279 8.833 0 0-3.607 5 7.53 5.333 0 0 1.83 2.568 4.14 5.856a16.847 16.847 0 0 0 7.793 2.128v9.233c1.72 2.65 2.256 3.753 0 1.117-2.076-2.426-22.797-12.334-24.797-17.334s-9.913-3-9.123-11-.21-7.333-3.877-4.166-10.373-.35-10.373-.35 4.401-5.179 4.62-6.505zm61.913-319.118c12.48 12.028 7.07 28.854-12.172 42.09 0 0 22.235 31.252-1.209 52.893s-63.712 16.825-69.717-26.456c-.253-1.785-5.41-15.617 6.6-25.247 12.028-9.611 64.02-55.29 76.498-43.28zm-44.038 91.971c15.04 4.22 25.247-16.23 22.254-28.24-3.012-12.029-7.087-18.034-17.078-18.034 0 0-14.192 1.19-17.186 15.617-3.012 14.427-3.012 26.455 12.01 30.657z" class="cls-2"/><path d="M100.57 188.782a33.403 33.403 0 0 1-1.587-6.077s.45-27.591 33.813-13.165 4.508-30.657-6.312-51.395c-8.368-16.032-9.72-48.925 19.206-72.135.018-.018.054-.036.072-.072 8.494-6.798 19.62-12.768 33.92-17.222a107.408 107.408 0 0 1 36.375-4.96.87.87 0 0 1 .216 0 126.695 126.695 0 0 1 29.16 5.591 119.58 119.58 0 0 1 8.043 2.796.063.063 0 0 1 .036.018 113.962 113.962 0 0 1 32.66 20.612c.125.144.252.252.324.343.126.108.198.18.198.18 21.352 22.488 19.53 50.927 11.938 65.48-10.82 20.738-39.673 65.822-6.311 51.396s33.813 13.164 33.813 13.164a31.656 31.656 0 0 1-2.056 7.214c-14.914 36.644-92.008 41.296-103.387 41.783h-.036l-14.823-.577s-90.367-2.29-105.262-42.974zm135.342-42.054l-7.304-22.849s-26.978 14.175-32.46-6.005c-3.319-12.172 15.022-27.501 24.038-18.033 1.317 1.37 11.416-22.236 11.416-22.236s-42.92-13.236-55.418 36.067c-12.497 49.286 53.813 42.668 59.728 33.056zm72.044 168.92c2.993 12.01-7.214 32.46-22.254 28.241-15.022-4.202-15.022-16.23-12.01-30.657 2.994-14.427 17.186-15.617 17.186-15.617 9.99 0 14.066 6.005 17.078 18.033zm-17.439-.018c0-4.815-3.354-8.728-7.502-8.728-4.13 0-7.484 3.914-7.484 8.728s3.355 8.729 7.484 8.729c4.148 0 7.502-3.914 7.502-8.729z" class="cls-1"/><path d="M283.015 306.902c4.148 0 7.502 3.913 7.502 8.728s-3.354 8.729-7.502 8.729c-4.13 0-7.484-3.914-7.484-8.729s3.355-8.728 7.484-8.728z" class="cls-3"/><path d="M214.325 323.836l27.357 35.76-26.798 32.443a4.05 4.05 0 0 1-6.401 0l-26.78-32.443 27.357-35.76a3.319 3.319 0 0 1 5.265 0zm14.283-199.956l7.304 22.848c-5.915 9.612-72.225 16.23-59.728-33.056 12.498-49.303 55.418-36.067 55.418-36.067s-10.1 23.606-11.416 22.236c-9.016-9.468-27.357 5.86-24.038 18.033 5.482 20.18 32.46 6.005 32.46 6.005z" class="cls-1"/><path d="M168.25 294.567c12.028 9.63 6.87 23.462 6.618 25.247-6.005 43.28-46.292 48.096-69.736 26.455s-1.19-52.892-1.19-52.892C84.7 280.14 79.29 263.315 91.769 251.287c12.461-12.01 64.47 33.668 76.48 43.28zm-32.46 48.69c15.04-4.2 15.04-16.23 12.028-30.656s-17.204-15.617-17.204-15.617c-9.973 0-14.049 6.005-17.06 18.033-3.012 12.01 7.213 32.46 22.235 28.24z" class="cls-2"/><path d="M147.818 312.6c3.011 14.428 3.011 26.456-12.029 30.658-15.022 4.22-25.247-16.23-22.235-28.24 3.011-12.03 7.087-18.034 17.06-18.034 0 0 14.192 1.19 17.204 15.617zm-1.84 2.4c0-4.816-3.354-8.729-7.502-8.729-4.13 0-7.484 3.913-7.484 8.728s3.354 8.729 7.484 8.729c4.148 0 7.502-3.914 7.502-8.729z" class="cls-1"/><path d="M138.476 306.271c4.148 0 7.502 3.913 7.502 8.728s-3.354 8.728-7.502 8.728c-4.13 0-7.484-3.913-7.484-8.728s3.354-8.728 7.484-8.728z" class="cls-3"/><path d="M353.635 430.757s-5.41 8.115 0 22.542c0 0-5.41 5.41-9.919 0 0 0 .902 11.722 4.96 18.033 0 0-13.075 3.607-16.681 0 0 0 5.41 7.214 0 18.936a.928.928 0 0 1-.253-.127c-.487-.234-1.875-1.027-5.753-3.48l-4.22-2.651a.942.942 0 0 0-1.46.721c-.163 2.543-1.263 8.35-6.348 19.964 0 0-.307-2.399-6.618-6.907 0 0-.595 9.612-8.71 14.12m-7.755-214.293s-14.192 1.19-17.186 15.617c-3.012 14.427-3.012 26.455 12.01 30.657 15.04 4.22 25.247-16.23 22.254-28.24-3.012-12.029-7.087-18.034-17.078-18.034zM216.057 23.757c-43.624-2.867-68.853 20.793-70.295 22.181m107.714-13.795c-2.56-.992-5.23-1.93-8.043-2.796a126.695 126.695 0 0 0-29.16-5.59m70.223 29.359a1.931 1.931 0 0 0-.325-.343c-7.682-7.935-18.322-15.112-32.659-20.612m-32.821 200.172c11.38-.487 88.473-5.14 103.387-41.783a31.656 31.656 0 0 0 2.056-7.214s-.451-27.591-33.813-13.164-4.509-30.658 6.311-51.396c7.593-14.553 9.414-42.992-11.938-65.48m-67.409 179.091l1.37-.054M39.616 551.852s-6.312 37.87-5.103 52.298c1.19 14.427 5.103 7.213 5.103 8.421v1.19s-4.815 18.034 10.82 28.854c0 0-2.398 15.635 33.669 37.276 0 0 33.813 13.128 53.722 16.266 70.115 11.037 167.117 6.005 203.184-15.635s33.669-37.275 33.669-37.275c15.617-10.82 10.82-28.854 10.82-28.854v-1.19c0-1.209 3.895 6.005 5.104-8.422s-5.104-52.297-5.104-52.297M71.481 430.126s5.41 8.115 0 22.542c0 0 5.41 5.41 9.919 0 0 0-.902 11.722-4.96 18.033 0 0 13.075 3.607 16.682 0 0 0-5.41 7.214 0 18.936a3.261 3.261 0 0 0 .613-.325c.703-.379 2.2-1.262 5.392-3.282l4.202-2.651a.94.94 0 0 1 1.46.721c.18 2.543 1.28 8.35 6.366 19.963 0 0 .289-2.398 6.6-6.906 0 0 .614 9.611 8.729 14.12m4.13-214.293s14.192 1.19 17.204 15.617 3.011 26.455-12.029 30.657c-15.022 4.22-25.247-16.23-22.235-28.24 3.011-12.03 7.087-18.034 17.06-18.034z" class="cls-4"/><path d="M145.978 315c0-4.816-3.354-8.729-7.502-8.729-4.13 0-7.484 3.913-7.484 8.728s3.354 8.729 7.484 8.729c4.148 0 7.502-3.914 7.502-8.729zM286.694 53.296s-.072-.072-.198-.18c-.072-.09-.199-.199-.325-.343a113.962 113.962 0 0 0-32.659-20.612.063.063 0 0 0-.036-.018 107.314 107.314 0 0 0-37.203-8.386.87.87 0 0 0-.216 0 107.408 107.408 0 0 0-36.374 4.96c-14.3 4.453-25.427 10.423-33.921 17.221-.018.036-.054.054-.072.072-28.926 23.21-27.574 56.103-19.206 72.135 10.82 20.738 39.674 65.822 6.312 51.395s-33.813 13.165-33.813 13.165a33.403 33.403 0 0 0 1.587 6.077c14.895 40.684 105.262 42.974 105.262 42.974l14.823.577h.036l1.299.054" class="cls-4"/><path fill="none" stroke="#666766" stroke-linecap="round" stroke-miterlimit="10" stroke-width="2" d="M181.703 359.596l27.357-35.76a3.319 3.319 0 0 1 5.265 0l27.357 35.76m-59.979 0l26.78 32.443a4.05 4.05 0 0 0 6.401 0l26.798-32.443M220.186 99.84c1.317 1.371 11.416-22.235 11.416-22.235s-42.92-13.236-55.418 36.067c-12.497 49.286 53.813 42.668 59.728 33.056l-7.304-22.849s-26.978 14.175-32.46-6.005c-3.319-12.172 15.022-27.501 24.038-18.033z"/><path d="M332.59 488.77a11.297 11.297 0 0 0-.848 1.371c-6.564 11.632 5.663 23.877 5.663 23.877-9.612 10.82 13.218 15.617 13.218 15.617-3.606 14.427 13.237 4.815 13.2 8.422-.017 3.606 6.042 18.033 21.677 14.427 15.617-3.607 22.83-36.068 14.427-70.927-8.422-34.877-18.034-80.411-16.5-94.982s-8.747-74.533-11.163-91.377c-2.399-16.825 5.121-58.302 5.121-58.302.162-8.368.289-13.219.289-13.219 3.011-10.82 5.752-27.05 5.752-27.05l-3.769 4.797c3.77-4.797 0-10.82 0-10.82s-6.78 3.011-3.174 0c3.607-2.994 4.797-7.809 0-7.214-4.815.613-52.297 7.214-52.297 7.214M92.364 486.968a15.81 15.81 0 0 1 1.37 2.344c5.393 11.325-6.185 22.903-6.185 22.903 9.63 10.82-13.218 15.617-13.218 15.617 3.606 14.426-13.219 4.815-13.2 8.421.035 3.571-5.952 17.817-21.299 14.5a3.185 3.185 0 0 1-.36-.073c-15.635-3.607-22.849-36.067-14.427-70.926 8.404-34.877 18.034-80.412 16.5-94.983s8.747-74.533 11.145-91.376c2.399-16.825-5.121-58.303-5.121-58.303-.162-8.367-.289-13.218-.289-13.218-3.011-10.82-5.734-27.05-5.734-27.05l3.769 4.796c-3.77-4.797 0-10.82 0-10.82s6.78 3.012 3.174 0c-3.607-2.993-4.815-7.808 0-7.213 4.616.595 48.618 6.708 52.08 7.195a.992.992 0 0 1 .217.018" class="cls-4"/></svg>