<?xml version="1.0" encoding="utf-8"?>
<!-- Generator: Adobe Illustrator 21.1.0, SVG Export Plug-In . SVG Version: 6.00 Build 0)  -->
<svg version="1.1" id="Layer_1" xmlns="http://www.w3.org/2000/svg" xmlns:xlink="http://www.w3.org/1999/xlink" x="0px" y="0px"
	 viewBox="0 0 82.7 77.3" style="enable-background:new 0 0 82.7 77.3;" xml:space="preserve">
<style type="text/css">
	.st0{fill:#FFFFFF;}
</style>
<g id="Logo-Symbol-72px" transform="translate(9.000000, 0.000000)">
	<g id="reverse-2" transform="translate(0.000000, 12.500000)">
		<polygon id="Fill-1" class="st0" points="63.3,32.7 68.3,35.6 68.3,8.4 63.3,5.6 		"/>
		<polygon id="Fill-2" class="st0" points="-3.7,8.4 -3.7,35.6 1.3,32.7 1.3,5.6 		"/>
		<polygon id="Fill-3" class="st0" points="18.3,56.9 23.3,59.8 35.2,53 30.2,50.1 		"/>
		<polygon id="shadow" class="st0" points="25.3,52.9 30.3,55.8 35.2,53 30.2,50.1 		"/>
	</g>
	<g id="reverse-1" transform="translate(24.500000, 37.500000)">
		<polygon id="Fill-5" class="st0" points="19.3,23.6 19.3,17.8 -2.2,5.4 -3.7,6.2 -3.7,6.2 -3.7,10.3 		"/>
		<polygon id="Fill-6" class="st0" points="-3.7,23 16.8,34.8 21.8,31.9 -3.7,17.2 		"/>
	</g>
	<g id="top-2">
		<polygon id="Fill-7" class="st0" points="51.1,25.1 56.1,28 68.3,20.9 63.3,18.1 		"/>
		<polygon id="Fill-8" class="st0" points="34.9,40.3 29.9,37.4 18.3,44 23.3,46.9 		"/>
		<polygon id="Fill-9" class="st0" points="57.3,14.6 52.3,11.7 40.1,18.8 45.1,21.7 		"/>
		<polygon id="Fill-10" class="st0" points="23.9,33.9 18.9,31 7.3,37.7 12.3,40.6 		"/>
		<polygon id="Fill-11" class="st0" points="29.1,12.4 34.1,15.3 46.3,8.2 41.3,5.4 		"/>
		<polygon id="Fill-12" class="st0" points="-3.7,31.3 1.3,34.2 12.9,27.6 7.9,24.7 		"/>
	</g>
	<g id="gradient" transform="translate(0.000000, 26.000000)">
		<polygon id="Fill-13" class="st0" points="63.3,8.2 63.3,33.6 68.3,30.7 68.3,5.3 		"/>
		<polygon id="Fill-14" class="st0" points="57.3,37.1 57.3,11.7 52.3,14.6 52.3,40 		"/>
		<polygon id="Fill-15" class="st0" points="41.3,20.9 41.3,46.3 46.3,43.4 46.3,18 		"/>
		<polygon id="Fill-16" class="st0" points="18.3,43.4 23.3,46.3 23.3,20.9 18.3,18 		"/>
		<polygon id="Fill-17" class="st0" points="12.3,14.6 12.3,40 7.3,37.1 7.3,11.7 		"/>
		<polygon id="Fill-18" class="st0" points="-3.7,30.7 1.3,33.6 1.3,8.2 -3.7,5.3 		"/>
	</g>
	<g id="shadow_1_" transform="translate(7.000000, 19.000000)">
		<polygon id="Fill-19" class="st0" points="18.3,21 23.3,23.9 27.9,21.3 22.9,18.4 		"/>
		<polygon id="Fill-20" class="st0" points="-3.7,8.3 1.3,11.2 5.9,8.6 0.9,5.7 		"/>
		<polygon id="Fill-21" class="st0" points="7.3,14.7 12.3,17.5 16.9,14.9 11.9,12 		"/>
	</g>
	<g id="top-1">
		<polygon id="Fill-22" class="st0" points="23.3,5.4 18.3,8.2 63.3,34.2 68.3,31.3 		"/>
		<polygon id="Fill-23" class="st0" points="12.3,11.7 7.3,14.6 52.3,40.6 57.3,37.7 		"/>
		<polygon id="Fill-24" class="st0" points="-3.7,20.9 41.3,46.9 46.3,44 1.3,18.1 		"/>
	</g>
</g>
</svg>
