<?xml version="1.0" encoding="utf-8"?>
<svg viewBox="0 0 709 199" xmlns="http://www.w3.org/2000/svg">
  <defs>
    <style>.e{fill:#032e49;}.f,.g,.h,.i{fill:#fff;}.j{fill:#294c64;}.k{stroke-width:2.91px;}.k,.g,.l,.m,.i,.n{stroke:#fff;}.k,.l,.m,.i,.n{stroke-linecap:round;}.k,.l,.m,.n{fill:none;}.k,.m{stroke-linejoin:round;}.g{stroke-width:.97px;}.g,.l{stroke-miterlimit:10;}.l{stroke-width:4.85px;}.h{font-family:Asap-Bold, Asap;font-size:25.18px;letter-spacing:.1em;}.m,.i,.n{stroke-width:3.87px;}</style>
  </defs>
  <g id="a"/>
  <g id="b">
    <g id="c">
      <g>
        <rect class="e" width="709" height="199"/>
        <g>
          <g id="d">
            <path class="j" d="M205.72,155.15c-15.71-5.51-31.42-11.02-47.28-16.59,3.25,8.91,6.45,17.7,9.65,26.48l-.07,.05c-4.87-3.86-9.75-7.73-14.75-11.69,.43,11.04,.86,21.94,1.3,33.01-8.92-12.39-17.75-24.67-26.66-37.04-3.5,9.09-6.96,18.09-10.43,27.09h-.11c-1.42-6.04-2.85-12.07-4.31-18.25-7.09,9.1-14.09,18.09-21.1,27.09l-.09-.03c1.12-13.87,2.24-27.74,3.38-41.77-8.9,5.52-17.68,10.96-26.46,16.4l-.09-.06c3.24-6.19,6.48-12.39,9.72-18.58l-.06-.12c-12.14,3.82-24.28,7.65-36.42,11.47l-.04-.07c9.85-10.18,19.7-20.36,29.66-30.65-10.42-.08-20.68-.15-30.95-.22l-.04-.08c7.45-3.67,14.9-7.34,22.35-11.01v-.13c-13.11-3.27-26.2-6.54-39.44-9.84,14.5-3.13,28.86-6.23,43.22-9.34l.04-.13c-7.66-4.91-15.32-9.82-22.98-14.72l.02-.12c8.9,.87,17.79,1.74,26.69,2.6l.08-.11c-8.82-9.81-17.64-19.63-26.46-29.44l.07-.1,40.85,14.33-8.1-22.23,.08-.08c6.57,5.21,13.15,10.42,19.86,15.74-.51-13.05-1.02-25.96-1.53-39.03,8.02,11.14,15.95,22.16,23.96,33.28,2.77-7.2,5.5-14.29,8.23-21.39h.1c1.69,7.14,3.38,14.29,5.1,21.58,8.45-10.85,16.84-21.61,25.22-32.37l.09,.03c-1.09,13.49-2.18,26.97-3.29,40.62,7.24-4.49,14.37-8.91,21.49-13.32l.07,.06c-3.17,6.05-6.33,12.1-9.57,18.28,13.82-4.35,27.51-8.66,41.2-12.97l.06,.07c-10.47,10.82-20.95,21.65-31.42,32.47l.02,.15c9.27,.06,18.54,.13,27.81,.19l.03,.08c-6.03,2.97-12.07,5.94-18.1,8.91v.12c13.32,3.32,29,10.89,29,10.89,0,0-21.73,6.21-38.25,9.77,8.13,5.21,16.14,10.35,24.15,15.48l-.03,.12c-6.46-.63-12.93-1.26-19.39-1.89l-.07,.11,24.07,26.77-.07,.1Z"/>
          </g>
          <path class="n" d="M125.62,56.76c4.76,0,8.62,3.86,8.62,8.62"/>
          <path class="m" d="M101.64,73.5c0-12.26,9.94-22.2,22.2-22.2s22.2,9.94,22.2,22.2"/>
          <g>
            <path class="f" d="M117.51,108.33c-.2,.28-.41,.42-.63,.42s-.43-.09-.64-.28c-.21-.19-.32-.37-.32-.54s.08-.36,.25-.54l1.55-2.19-2.08-.67c-.41-.13-.61-.34-.61-.64,0-.17,.03-.31,.08-.44,.11-.39,.34-.58,.69-.58,.07,0,.2,.02,.39,.06l2.14,.69v-2.28c0-.56,.28-.83,.83-.83s.83,.28,.83,.83v2.28l2.08-.69c.19-.04,.34-.06,.47-.06s.28,.09,.44,.28c.17,.19,.25,.43,.25,.74s-.2,.52-.61,.65l-2.11,.67,1.58,2.19c.15,.17,.22,.34,.22,.53s-.11,.37-.32,.56c-.21,.19-.42,.28-.62,.28s-.41-.14-.61-.42l-1.64-2.3-1.64,2.3Z"/>
            <path class="f" d="M108.14,108.33c-.2,.28-.41,.42-.63,.42s-.43-.09-.64-.28c-.21-.19-.32-.37-.32-.54s.08-.36,.25-.54l1.55-2.19-2.08-.67c-.41-.13-.61-.34-.61-.64,0-.17,.03-.31,.08-.44,.11-.39,.34-.58,.69-.58,.07,0,.2,.02,.39,.06l2.14,.69v-2.28c0-.56,.28-.83,.83-.83s.83,.28,.83,.83v2.28l2.08-.69c.19-.04,.34-.06,.47-.06s.28,.09,.44,.28c.17,.19,.25,.43,.25,.74s-.2,.52-.61,.65l-2.11,.67,1.58,2.19c.15,.17,.22,.34,.22,.53s-.11,.37-.32,.56c-.21,.19-.42,.28-.62,.28s-.41-.14-.61-.42l-1.64-2.3-1.64,2.3Z"/>
            <path class="f" d="M126.89,108.33c-.2,.28-.41,.42-.63,.42s-.43-.09-.64-.28c-.21-.19-.32-.37-.32-.54s.08-.36,.25-.54l1.55-2.19-2.08-.67c-.41-.13-.61-.34-.61-.64,0-.17,.03-.31,.08-.44,.11-.39,.34-.58,.69-.58,.07,0,.2,.02,.39,.06l2.14,.69v-2.28c0-.56,.28-.83,.83-.83s.83,.28,.83,.83v2.28l2.08-.69c.19-.04,.34-.06,.47-.06s.28,.09,.44,.28c.17,.19,.25,.43,.25,.74s-.2,.52-.61,.65l-2.11,.67,1.58,2.19c.15,.17,.22,.34,.22,.53s-.11,.37-.32,.56c-.21,.19-.42,.28-.62,.28s-.41-.14-.61-.42l-1.64-2.3-1.64,2.3Z"/>
            <path class="f" d="M136.26,108.33c-.2,.28-.41,.42-.63,.42s-.43-.09-.64-.28c-.21-.19-.32-.37-.32-.54s.08-.36,.25-.54l1.55-2.19-2.08-.67c-.41-.13-.61-.34-.61-.64,0-.17,.03-.31,.08-.44,.11-.39,.34-.58,.69-.58,.07,0,.2,.02,.39,.06l2.14,.69v-2.28c0-.56,.28-.83,.83-.83s.83,.28,.83,.83v2.28l2.08-.69c.19-.04,.34-.06,.47-.06s.28,.09,.44,.28c.17,.19,.25,.43,.25,.74s-.2,.52-.61,.65l-2.11,.67,1.58,2.19c.15,.17,.22,.34,.22,.53s-.11,.37-.32,.56c-.21,.19-.42,.28-.62,.28s-.41-.14-.61-.42l-1.64-2.3-1.64,2.3Z"/>
          </g>
          <rect class="k" x="99.41" y="97.4" width="48.85" height="14.46" rx=".84" ry=".84"/>
          <g>
            <path class="n" d="M73.83,110.92c0-4.76,3.86-8.62,8.62-8.62"/>
            <path class="n" d="M67.81,117.81c0-3.33,2.7-6.02,6.02-6.02s6.02,2.7,6.02,6.02"/>
            <line class="m" x1="86.56" y1="93.95" x2="86.56" y2="112.12"/>
          </g>
          <g>
            <path class="n" d="M173.76,110.92c0-4.76-3.86-8.62-8.62-8.62"/>
            <path class="n" d="M179.78,117.81c0-3.33-2.7-6.02-6.02-6.02s-6.02,2.7-6.02,6.02"/>
            <line class="m" x1="161.03" y1="93.95" x2="161.03" y2="112.12"/>
          </g>
          <g>
            <circle class="g" cx="123.84" cy="31.37" r="4.16"/>
            <line class="i" x1="123.84" y1="33.05" x2="123.84" y2="50.44"/>
          </g>
          <g>
            <polyline class="m" points="120.41 130.21 92.37 130.49 92.37 78.76 155.23 78.76 155.23 130.49 131.67 130.26"/>
            <polygon class="f" points="132.84 126.41 126.11 130.21 132.76 134.14 132.84 126.41"/>
          </g>
          <path class="l" d="M 669.18 130.21 L 686.07 130.21 C 687.41 130.21 688.49 129.12 688.49 127.79 L 688.49 78.71 C 688.49 77.37 687.4 76.29 686.07 76.29 L 669.18 76.29"/>
          <text class="h" transform="translate(233.07 113.55)" style="white-space: pre;"><tspan x="0" y="0">EXTERNAL SECRETS OPERATOR</tspan></text>
          <path class="l" d="M225.69,76.28h-16.89c-1.34,0-2.42,1.09-2.42,2.42v49.08c0,1.34,1.09,2.42,2.42,2.42h16.89"/>
        </g>
      </g>
    </g>
  </g>
</svg>