<?xml version="1.0" encoding="UTF-8" standalone="no"?>
<svg
   xmlns:dc="http://purl.org/dc/elements/1.1/"
   xmlns:cc="http://creativecommons.org/ns#"
   xmlns:rdf="http://www.w3.org/1999/02/22-rdf-syntax-ns#"
   xmlns:svg="http://www.w3.org/2000/svg"
   xmlns="http://www.w3.org/2000/svg"
   viewBox="0 0 2143.168 2184.7681"
   height="2184.7681"
   width="2143.168"
   xml:space="preserve"
   id="svg2"
   version="1.1"><metadata
     id="metadata8"><rdf:RDF><cc:Work
         rdf:about=""><dc:format>image/svg+xml</dc:format><dc:type
           rdf:resource="http://purl.org/dc/dcmitype/StillImage" /><dc:title></dc:title></cc:Work></rdf:RDF></metadata><defs
     id="defs6"><clipPath
       id="clipPath20"
       clipPathUnits="userSpaceOnUse"><path
         id="path18"
         d="M 0,40.964 H 40.184 V 0 H 0 Z" /></clipPath><clipPath
       clipPathUnits="userSpaceOnUse"
       id="clipPath920"><path
         d="M 0,40.964 H 40.184 V 0 H 0 Z"
         id="path918" /></clipPath><clipPath
       clipPathUnits="userSpaceOnUse"
       id="clipPath1014"><path
         d="M 0,40.964 H 40.184 V 0 H 0 Z"
         id="path1012" /></clipPath><clipPath
       clipPathUnits="userSpaceOnUse"
       id="clipPath1102"><path
         d="M 0,40.964 H 40.184 V 0 H 0 Z"
         id="path1100" /></clipPath><clipPath
       clipPathUnits="userSpaceOnUse"
       id="clipPath1234"><path
         d="M 0,40.964 H 40.184 V 0 H 0 Z"
         id="path1232" /></clipPath><clipPath
       clipPathUnits="userSpaceOnUse"
       id="clipPath1326"><path
         d="M 0,40.964 H 40.184 V 0 H 0 Z"
         id="path1324" /></clipPath></defs><g
     transform="translate(0,-2184.7681)"
     id="layer1" /><g
     transform="matrix(1.3333333,0,0,-1.3333333,0,2184.7679)"
     id="g10"><g
       id="g1316"
       transform="matrix(35.50708,0,0,35.50708,90.272656,92.031916)"><path
         d="m 15.761,29.553 h -3.014 v 8.394 h 3.014 z"
         style="fill:#d1d2d9;fill-opacity:1;fill-rule:nonzero;stroke:none"
         id="path1318" /><g
         id="g1320"><g
           id="g1322"
           clip-path="url(#clipPath1326)"><path
             d="m 27.436,16.416 h -8.952 v 3.013 h 8.952 z m -11.675,0 h -3.014 v 21.53 h 3.014 z M 9.939,40.965 V 15.749 c 0,-1.291 1.047,-2.338 2.338,-2.338 h 15.658 c 1.276,0 2.311,1.034 2.311,2.311 v 25.243 z"
             style="fill:#ffffff;fill-opacity:1;fill-rule:nonzero;stroke:none"
             id="path1328" /><g
             id="g1330"
             transform="translate(7.1411,9.5371)"><path
               d="m 0,0 c -0.253,0 -0.473,-0.094 -0.653,-0.278 -0.179,-0.184 -0.269,-0.403 -0.269,-0.651 0,-0.248 0.09,-0.467 0.269,-0.649 0.179,-0.185 0.401,-0.278 0.659,-0.278 0.257,0 0.478,0.09 0.657,0.27 0.18,0.18 0.272,0.4 0.272,0.657 0,0.257 -0.092,0.479 -0.272,0.658 C 0.484,-0.091 0.261,0 0,0"
               style="fill:#ffffff;fill-opacity:1;fill-rule:nonzero;stroke:none"
               id="path1332" /></g><g
             id="g1334"
             transform="translate(32.5317,4.4932)"><path
               d="m 0,0 c 0,-0.845 -0.036,-1.411 -0.108,-1.683 -0.07,-0.264 -0.199,-0.518 -0.383,-0.755 -0.184,-0.235 -0.407,-0.421 -0.664,-0.553 -0.512,-0.264 -1.096,-0.235 -1.457,-0.079 -0.178,0.077 -0.32,0.19 -0.435,0.346 -0.118,0.162 -0.21,0.366 -0.272,0.604 -0.064,0.244 -0.097,0.724 -0.097,1.425 v 3.282 h -1.316 v -3.522 c 0,-0.919 0.098,-1.586 0.301,-2.04 0.205,-0.456 0.517,-0.819 0.926,-1.079 0.409,-0.259 0.87,-0.391 1.372,-0.391 0.802,0 1.518,0.299 2.133,0.893 V -4.277 H 1.329 V 2.587 H 0 Z"
               style="fill:#ffffff;fill-opacity:1;fill-rule:nonzero;stroke:none"
               id="path1336" /></g><g
             id="g1338"
             transform="translate(23.0532,7.248)"><path
               d="m 0,0 c -0.482,0 -0.946,-0.129 -1.379,-0.383 -0.346,-0.203 -0.648,-0.483 -0.902,-0.835 -0.175,0.342 -0.421,0.619 -0.737,0.825 C -3.415,-0.132 -3.863,0 -4.35,0 -5.095,0 -5.741,-0.272 -6.279,-0.812 v 0.644 h -1.317 v -6.864 h 1.317 v 2.947 c 0,0.796 0.072,1.368 0.215,1.701 0.138,0.325 0.354,0.591 0.642,0.791 0.285,0.199 0.59,0.3 0.905,0.3 0.316,0 0.568,-0.078 0.771,-0.239 0.203,-0.161 0.331,-0.363 0.391,-0.614 0.064,-0.274 0.096,-0.737 0.096,-1.376 v -3.51 h 1.306 v 2.743 c 0,0.786 0.061,1.385 0.184,1.778 0.118,0.379 0.322,0.671 0.623,0.891 0.295,0.217 0.616,0.327 0.949,0.327 0.331,0 0.598,-0.079 0.795,-0.233 0.2,-0.159 0.326,-0.347 0.384,-0.577 0.065,-0.248 0.097,-0.653 0.097,-1.204 V -7.032 H 2.42 v 3.725 c 0,1.273 -0.232,2.123 -0.708,2.599 C 1.243,-0.238 0.667,0 0,0"
               style="fill:#ffffff;fill-opacity:1;fill-rule:nonzero;stroke:none"
               id="path1340" /></g><g
             id="g1342"
             transform="translate(38.5043,4.252)"><path
               d="m 0,0 c -0.465,0.244 -0.789,0.449 -0.965,0.61 -0.153,0.14 -0.227,0.295 -0.227,0.476 0,0.181 0.064,0.328 0.198,0.452 0.366,0.341 0.992,0.225 1.689,-0.425 L 0.815,1.001 1.68,1.898 1.561,2.015 c -0.668,0.651 -1.319,0.981 -1.932,0.981 -0.613,0 -1.116,-0.184 -1.494,-0.55 -0.38,-0.367 -0.573,-0.816 -0.573,-1.337 0,-0.512 0.136,-0.936 0.405,-1.256 0.258,-0.309 0.637,-0.591 1.131,-0.839 0.46,-0.233 0.786,-0.436 0.968,-0.604 0.162,-0.147 0.241,-0.327 0.241,-0.548 0,-0.22 -0.089,-0.41 -0.271,-0.578 -0.185,-0.172 -0.402,-0.255 -0.665,-0.255 -0.394,0 -0.795,0.235 -1.19,0.697 l -0.125,0.145 -0.844,-0.942 0.087,-0.111 c 0.557,-0.71 1.267,-1.07 2.108,-1.07 0.611,0 1.132,0.21 1.55,0.624 0.418,0.414 0.631,0.93 0.631,1.532 0,0.479 -0.145,0.89 -0.43,1.224 C 0.886,-0.554 0.496,-0.261 0,0"
               style="fill:#ffffff;fill-opacity:1;fill-rule:nonzero;stroke:none"
               id="path1344" /></g><g
             id="g1346"
             transform="translate(1.3774,9.5371)"><path
               d="m 0,0 h -1.377 v -9.321 h 4.684 v 1.329 H 0 Z"
               style="fill:#ffffff;fill-opacity:1;fill-rule:nonzero;stroke:none"
               id="path1348" /></g><path
             d="M 6.483,0.216 H 7.812 V 7.08 H 6.483 Z"
             style="fill:#ffffff;fill-opacity:1;fill-rule:nonzero;stroke:none"
             id="path1350" /><g
             id="g1352"
             transform="translate(12.2446,9.5371)"><path
               d="m 0,0 h -1.329 v -2.457 h -1.126 v -1.197 h 1.126 v -4.541 c 0,-0.451 0.109,-0.791 0.324,-1.01 0.215,-0.221 0.542,-0.332 0.97,-0.332 0.209,0 0.513,0.033 0.902,0.098 l 0.14,0.023 v 1.16 H 0.265 c -0.168,0 -0.236,0.017 -0.246,0.011 C 0.013,-8.228 0,-8.179 0,-8.063 v 4.409 h 1.295 v 1.197 H 0 Z"
               style="fill:#ffffff;fill-opacity:1;fill-rule:nonzero;stroke:none"
               id="path1354" /></g></g></g></g></g></svg>