<svg width="227" height="256" viewBox="0 0 227 256" fill="none" xmlns="http://www.w3.org/2000/svg">
<g clip-path="url(#clip0)">
<path d="M89.9488 60.4629H73.8995V15.995H89.9488V60.4629Z" fill="#D1D2D9"/>
<path d="M152.127 130.081H104.451V114.12H152.127V130.081ZM89.949 130.081H73.8997V15.9944H89.949V130.081ZM58.944 -8.31473e-06V133.621C58.944 140.459 64.5208 146 71.3931 146H154.777C161.582 146 167.083 140.526 167.083 133.764V-8.31473e-06H58.944Z" fill="white"/>
<path d="M30.2561 248.335V255.455H0V187.94H8.90042V248.335H30.2561Z" fill="white"/>
<path d="M49.8179 255.456H40.9297V205.59H49.8179V255.456ZM45.3686 196.78C43.9044 196.78 42.6311 196.307 41.5489 195.361C40.5303 194.353 40.0385 193.03 40.0385 191.391C40.0385 189.752 40.5303 188.459 41.5489 187.513C42.6311 186.504 43.9044 186 45.3686 186C46.8329 186 48.074 186.504 49.0932 187.513C50.1754 188.459 50.7163 189.751 50.7163 191.39C50.7163 193.029 50.1754 194.353 49.0932 195.361C48.074 196.307 46.8329 196.78 45.3686 196.78Z" fill="white"/>
<path d="M69.4095 205.593H81.8663V212.59H69.4095L69.4045 239.01C69.4045 242.414 70.0096 244.809 71.2191 246.196C72.4924 247.52 74.1797 248.182 76.2806 248.182C77.3629 248.182 78.3815 248.024 79.3364 247.709C80.3551 247.394 81.2143 247.015 81.9146 246.574L83.5382 253.099C80.928 254.612 77.4776 255.368 74.5491 255.368C69.838 255.368 66.3045 254.076 63.9489 251.492C61.657 248.844 60.5111 244.494 60.5111 238.442L60.5161 192.26L69.4095 190.842V205.593Z" fill="white"/>
<path d="M92.5444 204.566C94.8178 203.851 97.2865 203.265 99.9496 202.81C102.613 202.289 105.048 202.029 107.257 202.029C109.53 202.029 111.576 202.322 113.395 202.907C115.279 203.493 116.935 204.469 118.364 205.835C120.053 204.729 121.872 203.818 123.82 203.103C125.769 202.387 127.913 202.029 130.251 202.029C132.589 202.029 134.7 202.387 136.584 203.103C138.533 203.753 140.189 204.891 141.553 206.518C142.917 208.144 143.989 210.356 144.768 213.153C145.548 215.885 145.938 219.3 145.938 223.398V255.457H137.559V224.082C137.559 219.007 136.974 215.3 135.804 212.958C134.635 210.616 132.427 209.445 129.179 209.445C127.945 209.445 126.679 209.673 125.379 210.128C124.145 210.583 122.976 211.202 121.872 211.982C122.391 213.478 122.781 215.17 123.041 217.056C123.301 218.943 123.43 221.057 123.43 223.398V255.457H115.051V224.082C115.051 219.007 114.467 215.3 113.298 212.958C112.129 210.616 109.92 209.445 106.673 209.445C104.983 209.445 103.067 209.77 100.924 210.421L100.924 255.457H92.5444V204.566Z" fill="white"/>
<path d="M188.551 253C187.723 253.316 186.704 253.631 185.494 253.946C184.348 254.198 183.107 254.419 181.77 254.608C180.497 254.86 179.192 255.049 177.855 255.175C176.582 255.364 175.404 255.459 174.321 255.459C171.711 255.459 169.324 255.144 167.159 254.513C164.994 253.946 163.148 252.906 161.62 251.393C160.092 249.88 158.915 247.831 158.087 245.247C157.259 242.599 156.845 239.29 156.845 235.318V205.593H165.058V235.034C165.058 239.888 165.79 243.324 167.255 245.341C168.783 247.295 171.074 248.272 174.13 248.272C175.149 248.272 176.167 248.241 177.186 248.178C178.205 248.052 179.255 247.831 180.338 247.516V205.593H188.551V253Z" fill="white"/>
<path d="M209.288 248.281C211.874 248.281 213.813 247.603 215.106 246.245C216.467 244.823 217.147 242.981 217.147 240.718C217.147 239.296 216.875 238.1 216.331 237.13C215.787 236.096 215.072 235.191 214.187 234.415C213.303 233.64 212.282 232.961 211.125 232.379C209.969 231.733 208.812 231.054 207.655 230.343C206.499 229.697 205.376 228.953 204.287 228.113C203.198 227.208 202.212 226.206 201.327 225.107C200.511 223.943 199.83 222.65 199.286 221.228C198.81 219.741 198.571 218.028 198.571 216.089C198.571 211.887 199.932 208.494 202.654 205.908C205.444 203.322 209.186 202.029 213.881 202.029C215.855 202.029 217.726 202.288 219.495 202.805C221.264 203.257 222.727 203.775 223.884 204.357L221.945 211.047C220.72 210.401 219.495 209.916 218.27 209.593C217.046 209.269 215.718 209.108 214.29 209.108C212.112 209.108 210.377 209.722 209.084 210.95C207.791 212.114 207.145 213.827 207.145 216.089C207.145 217.382 207.383 218.513 207.859 219.483C208.336 220.388 208.948 221.228 209.697 222.004C210.513 222.715 211.398 223.394 212.35 224.04C213.371 224.687 214.426 225.301 215.514 225.883C216.807 226.594 218.066 227.369 219.291 228.21C220.584 229.05 221.706 230.052 222.659 231.216C223.679 232.315 224.496 233.64 225.108 235.191C225.721 236.678 226.027 238.488 226.027 240.621C226.027 245.081 224.632 248.669 221.842 251.384C219.121 254.099 215.106 255.457 209.799 255.457C207.077 255.457 204.627 255.101 202.45 254.39C200.272 253.679 198.639 253.033 197.551 252.451L199.388 245.566C200.409 246.084 201.769 246.665 203.47 247.312C205.239 247.958 207.179 248.281 209.288 248.281Z" fill="white"/>
</g>
<defs>
<clipPath id="clip0">
<rect width="226.027" height="255.459" fill="white"/>
</clipPath>
</defs>
</svg>
