<svg width="800" height="112" viewBox="0 0 800 112" fill="none" xmlns="http://www.w3.org/2000/svg">
<g clip-path="url(#clip0_1_116)">
<path d="M199.5 21.6H112.8V0H199.5V21.6ZM199.5 66.5H112.8V44.9H199.5V66.5ZM199.5 111.3H112.8V89.7H199.5V111.3Z" fill="white"/>
<path d="M311 0V21.6H272C272 21.6 241.9 23.4 241.9 55.7C241.9 88 272 89.8 272 89.8H289.4V49H311V89.7V111.3H289.4H271C271 111.3 220.1 109.7 220.1 55.6C220.1 1.6 271 0 271 0H311Z" fill="white"/>
<path d="M353 0.300003H331.4V111.6H353V0.300003Z" fill="white"/>
<path d="M466.1 0V21.6H409.1C409.1 21.6 395.1 21.4 395.1 33.2C395.1 45 409.1 44.8 409.1 44.8H437.6C437.6 44.8 470.3 45.5 470.3 78C470.3 110.5 437.6 111.2 437.6 111.2H377.5V89.7H434.5C434.5 89.7 448.5 89.9 448.5 78.1C448.5 66.3 434.5 66.5 434.5 66.5H406C406 66.5 373.3 65.8 373.3 33.3C373.3 0.700001 406 0 406 0H466.1Z" fill="white"/>
<path d="M526.2 111.3V21.6H490.9V0H526.2H547.9H583.2V21.6H547.9V111.3H526.2Z" fill="white"/>
<path d="M671.4 111.3L649.1 66.4H625.2V111.3H603.6V50.5H603.7V44.9H657.7C657.7 44.9 671.7 45.1 671.7 33.3C671.7 21.5 657.7 21.7 657.7 21.7H603.6V0H660.7C660.7 0 693.4 0.700001 693.4 33.2C693.4 52.9 681.4 60.9 671.9 64.2L695.3 111.3H671.4Z" fill="white"/>
<path d="M724.8 0L751.2 46.3L777.5 0H800L762 71.6V111.3H740.4V71.6L702.3 0H724.8Z" fill="white"/>
<path d="M68.3 111.3H92.2L68.8 64.2C78.3 60.9 90.3 52.9 90.3 33.2C90.3 0.700001 57.6 0 57.6 0H0.5L11.25 21.6H54.5C54.5 21.6 68.5 21.4 68.5 33.2C68.5 45 54.5 44.8 54.5 44.8H54.3L44 62.5L68.3 111.3Z" fill="white"/>
<path d="M54.9 44.9H39.3L37.3 48.2L27.5 65L15.6 44.9H0L19.6 78.2L0 111.6H15.6L27.5 91.5L39.3 111.6H54.9L35.3 78.2L44.4 62.6L54.9 44.9Z" fill="#0066FF"/>
</g>
<defs>
<clipPath id="clip0_1_116">
<rect width="800" height="111.6" fill="white"/>
</clipPath>
</defs>
</svg>
