<svg id="Layer_1" data-name="Layer 1" xmlns="http://www.w3.org/2000/svg" viewBox="0 0 360 360"><defs><style>.cls-1{fill:#1c77c8;}.cls-2{fill:#fff;}</style></defs><title>kubeedge-icon-color</title><path class="cls-1" d="M99.5887,251.10769a4.57532,4.57532,0,1,0,4.72053,4.57365A4.65425,4.65425,0,0,0,99.5887,251.10769Z"/><path class="cls-1" d="M249.95066,260.25371a4.57531,4.57531,0,1,0-4.72052-4.57237A4.65348,4.65348,0,0,0,249.95066,260.25371Z"/><path class="cls-1" d="M233.86419,222.3254c20.69253,0,37.56639-16.14889,37.56639-35.987,0-14.9654-9.61842-27.8196-23.127-33.24881,0-1.06742.09547-2.15783.09547-3.2484,0-30.00058-25.37041-54.38628-56.77927-54.38628-22.64951,0-42.02939,12.69168-51.17045,30.9984a27.21627,27.21627,0,0,0-16.03858-5.267c-14.55878,0-26.2057,11.25307-26.2057,25.10492a24.56009,24.56009,0,0,0,1.1217,7.42483,36.54589,36.54589,0,0,0-18.831,31.71746c0,20.1165,16.96933,35.61562,37.85295,36.79894H231.81158C232.47987,222.23248,233.12422,222.3254,233.86419,222.3254ZM87.68777,185.43354A29.34884,29.34884,0,0,1,102.885,159.96605l5.03471-2.86635-1.72868-5.52963a17.3688,17.3688,0,0,1-.7941-5.27882c0-9.84655,8.39805-17.91286,19.0138-17.91286a20.01951,20.01951,0,0,1,11.78663,3.87534l6.87723,5.0411,3.80908-7.6287c8.17375-16.36937,25.37106-27.01913,44.73609-27.01913,27.47237,0,49.58737,21.20564,49.58737,47.19422,0,.31467-.0099.61226-.04087,1.31664-.04071.92453-.0546,1.346-.0546,1.93176v4.86053l4.50979,1.81251c11.18506,4.49557,18.61707,14.95934,18.61707,26.57577,0,15.78936-13.58028,28.79491-30.37432,28.79491-.0969,0-.22255-.00623-.55941-.02938-.32489-.02267-.52972-.03576-.77255-.04661-.33334-.0131-.33334-.0131-.72065-.01677H118.34866C101.14273,214.05411,87.68777,201.21859,87.68777,185.43354Z"/><path class="cls-1" d="M175.96258,267.64358a4.57531,4.57531,0,1,0,4.72053,4.57364A4.65424,4.65424,0,0,0,175.96258,267.64358Z"/><path class="cls-1" d="M267.594,339.92915l81.98621-102.80741a27.30821,27.30821,0,0,0,5.27307-23.10276L325.59271,85.8204a27.30718,27.30718,0,0,0-14.77479-18.527L192.34456,10.2395a27.30863,27.30863,0,0,0-23.697,0L50.17423,67.29337a27.30762,27.30762,0,0,0-14.77478,18.527L6.139,214.019a27.30771,27.30771,0,0,0,5.27307,23.10276L93.39812,339.92915a27.30807,27.30807,0,0,0,21.35028,10.28176H246.24391A27.30773,27.30773,0,0,0,267.594,339.92915Zm-31.10951-89.02166a14.17362,14.17362,0,1,1-.00032,9.54674h-26.924V258.043h-.18343V229.43125q-11.45479-.00479-28.64021-.00878V258.8713a14.31968,14.31968,0,1,1-9.54674-.00032V229.42055q-12.94863-.00262-28.6402-.00479V258.043h-.1836v2.41119H113.05532a14.17355,14.17355,0,1,1-.00032-9.54674h19.94775V229.41465c-4.84856-.00064-9.85741-.00128-15.061-.00176-24.922-1.4121-44.63791-20.22028-44.63791-43.97935A43.46308,43.46308,0,0,1,91.2676,150.38723a32.57665,32.57665,0,0,1-.25464-4.096c0-17.92308,14.96476-32.29682,33.39776-32.29682a34.27206,34.27206,0,0,1,13.37211,2.72777A64.3697,64.3697,0,0,1,191.61975,88.263c34.84308,0,63.25243,26.82339,63.95777,60.30258a43.089,43.089,0,0,1,23.045,37.77281c0,23.87594-20.1561,43.17887-44.75829,43.17887-.52285,0-.89579-.01852-1.547-.06338-.11144-.0067-4.58514-.01261-13.39366-.01788v21.47145Z"/><path class="cls-2" d="M232.53223,215.05735c.24283.01085.44766.02394.77255.04661.33686.02315.46251.02938.55941.02938,16.794,0,30.37432-13.00555,30.37432-28.79491,0-11.61643-7.432-22.0802-18.61707-26.57577l-4.50979-1.81251v-4.86053c0-.58576.01389-1.00723.0546-1.93176.031-.70438.04087-1.002.04087-1.31664,0-25.98858-22.115-47.19422-49.58737-47.19422-19.365,0-36.56234,10.64976-44.73609,27.01913l-3.80908,7.6287-6.87723-5.0411a20.01951,20.01951,0,0,0-11.78663-3.87534c-10.61575,0-19.0138,8.06631-19.0138,17.91286a17.3688,17.3688,0,0,0,.7941,5.27882l1.72868,5.52963-5.03471,2.86635a29.34884,29.34884,0,0,0-15.19722,25.46749c0,15.78505,13.455,28.62057,30.66089,29.607H231.81158C232.19889,215.04425,232.19889,215.04425,232.53223,215.05735Z"/><path class="cls-2" d="M218.92353,222.6099V229.436c8.80852.00527,13.28222.01118,13.39366.01788.65121.04486,1.02415.06338,1.547.06338,24.60219,0,44.75829-19.30293,44.75829-43.17887a43.089,43.089,0,0,0-23.045-37.77281c-.70534-33.47919-29.11469-60.30258-63.95777-60.30258a64.3697,64.3697,0,0,0-53.83692,28.45916,34.27206,34.27206,0,0,0-13.37211-2.72777c-18.433,0-33.39776,14.37374-33.39776,32.29682a32.57665,32.57665,0,0,0,.25464,4.096,43.46308,43.46308,0,0,0-17.96379,35.04631c0,23.75907,19.71594,42.56725,44.63791,43.97935,5.20362.00048,10.21247.00112,15.061.00176V222.6099h9.5469v6.80586q15.69229.00192,28.6402.00479v-4.44848h9.54674v4.4504q17.17894.00382,28.64021.00878V222.6099Zm-100.57487-.37742C97.465,221.04916,80.49571,205.55,80.49571,185.43354a36.54589,36.54589,0,0,1,18.831-31.71746,24.56009,24.56009,0,0,1-1.1217-7.42483c0-13.85185,11.64692-25.10492,26.2057-25.10492a27.21627,27.21627,0,0,1,16.03858,5.267c9.14106-18.30672,28.52094-30.9984,51.17045-30.9984,31.40886,0,56.77927,24.3857,56.77927,54.38628,0,1.09057-.09547,2.181-.09547,3.2484,13.50861,5.42921,23.127,18.28341,23.127,33.24881,0,19.83808-16.87386,35.987-37.56639,35.987-.74,0-1.38432-.09292-2.05261-.09292Z"/><path class="cls-2" d="M218.92353,222.6099H209.3768V258.043h.18343v2.41119h26.924a13.77265,13.77265,0,0,1,.00032-9.54674h-17.561V222.6099Z"/><path class="cls-2" d="M171.18985,224.97207V258.871a14.18956,14.18956,0,0,1,9.54674.00032V224.97207Z"/><path class="cls-2" d="M133.00275,222.6099v28.29759H113.055a13.77507,13.77507,0,0,1,.00032,9.54674h29.31073V258.043h.1836V222.6099Z"/><path class="cls-2" d="M113.055,250.90749a14.17362,14.17362,0,1,0,.00032,9.54674,13.77507,13.77507,0,0,0-.00032-9.54674Zm-13.4663,9.34622a4.57532,4.57532,0,1,1,4.72053-4.57237A4.65318,4.65318,0,0,1,99.5887,260.25371Z"/><path class="cls-2" d="M171.18985,258.871a14.32061,14.32061,0,1,0,9.54674.00032,14.18956,14.18956,0,0,0-9.54674-.00032Zm4.77273,17.91861a4.57531,4.57531,0,1,1,4.72053-4.57237A4.65318,4.65318,0,0,1,175.96258,276.78959Z"/><path class="cls-2" d="M236.4842,260.45423a14.17355,14.17355,0,1,0,.00032-9.54674,13.77265,13.77265,0,0,0-.00032,9.54674Zm13.46646-9.34654a4.57531,4.57531,0,1,1-4.72052,4.57365A4.65455,4.65455,0,0,1,249.95066,251.10769Z"/></svg>