<svg xmlns="http://www.w3.org/2000/svg" role="img" viewBox="0.59 4.09 489.32 170.32"><defs><style>.cls-1,.cls-3{fill:#212121}.cls-3{fill-rule:evenodd}</style></defs><path d="M121.41342 108.46606a40.14548 40.14548 0 1 1 1.58889-34.5116h37.37629a75.98009 75.98009 0 1 0-.76856 34.5116z" class="cls-1"/><path d="M159.61 108.46606h-38.19658a40.15138 40.15138 0 0 1-75.56837-18.67463c-.001.14137-.00608.28169-.00608.42331 0 38.33751 33.02888 66.6416 74.089 67.34721A76.16108 76.16108 0 0 0 159.61 108.46606z" class="cls-1"/><path fill="#212121" d="M45.86854 88.38114c-.003.09912-.005.19853-.00753.29777q.00315-.14904.00753-.29777z" opacity=".59"/><path d="M62.0324 121.773c.081.06032.16552.1159.247.17565-.08148-.05974-.16602-.1154-.247-.17565zm1.5688 1.11143c.10415.07012.21255.13429.31742.20348-.10487-.06915-.21323-.13336-.31742-.20348zm3.29967 1.99802c.15328.083.31167.1577.46617.23876-.1545-.0811-.31289-.15571-.46617-.23876zm-1.67582-.96056c.12687.07684.2584.1466.3862.22206-.12776-.07546-.25933-.14522-.3862-.22206zm3.40122 1.8417c.18294.0879.37126.166.55573.25127-.18447-.08519-.37279-.16337-.55573-.25127zm-10.8921-7.69172c-.01815-.018-.03739-.03492-.05554-.05294.01815.01807.03737.03491.05554.05294zm2.78672 2.51813c.05772.04744.11828.09143.17629.13854-.05801-.04714-.11857-.09113-.17629-.13854zm-4.16845-3.95451l.01244.013zm2.71631 2.70226c.03707.0335.07612.06477.1133.09815-.03718-.03338-.07623-.06465-.1133-.09815zm63.89625 36.61202q-.32738.18272-.65667.36215.32935-.17957.65667-.36215zm-41.07115-26.45255c.4368.04427.8789.07016 1.31975.10034-.44085-.03018-.88291-.05607-1.31975-.10034zm2.03577.15462q1.02457.05183 2.06227.05213-1.03746.00003-2.06227-.05213z" class="cls-1"/><path d="M119.928 157.562c-41.06014-.70561-74.089-29.0097-74.089-67.34721 0-.14162.00506-.28194.00608-.42331v.00048c-.00049-.08065-.00608-.16009-.00608-.24086a40.16 40.16 0 0 1 33.84789-39.65638v-.28485c-33.01212 5.635-56.4132 33.82989-56.4132 70.80252a47.72639 47.72639 0 0 0 2.602 15.62166 76.03824 76.03824 0 0 0 94.05465 21.52665z" class="cls-1"/><path d="M70.39923 126.563c.21149.0892.42862.16742.64193.2531-.21331-.08567-.43044-.16389-.64193-.2531zm9.48977 2.67987c.38025.058.76593.0988 1.14958.14607-.38367-.04723-.76931-.08811-1.14958-.14607zm-1.97256-.35165c.32722.06684.65992.118.99.17677-.33008-.05881-.66278-.10993-.99-.17677zm-5.69929-1.61316c.24333.08892.49246.16544.738.24969-.24554-.08425-.49467-.16081-.738-.24969zm3.76069 1.16656c.29972.077.60511.1393.90746.20946-.30239-.07008-.60774-.1325-.90746-.20946zm-1.90064-.53862c.27671.08584.55914.15806.83836.23807-.27922-.07999-.56169-.15221-.83836-.23807zm76.9818.91246c.10977-.18151.21676-.36465.325-.54714-.10825.18245-.21532.36568-.325.54714zm-1.72489 2.71654c.09787-.14737.198-.29292.2949-.441-.09685.1481-.19701.29369-.2949.441zm3.23421-5.33093c.07214-.13076.147-.25978.21834-.391-.07138.13126-.14624.26024-.21834.391zm1.46899-2.79716c.0975-.19558.19261-.3924.28845-.58891-.09576.19651-.19095.39337-.28845.58891zm1.33931-2.83148c.04622-.10317.095-.20489.14081-.30831-.04577.10342-.09459.20514-.14081.30831zm-13.69526 20.67007c.14778-.15912.29677-.31686.4432-.47727-.14639.16037-.29546.31819-.4432.47727zm2.19822-2.4667c.12606-.1481.24892-.29879.37385-.44786-.12489.14906-.24779.29984-.37385.44786zm1.81905-2.22572c.1225-.15539.24682-.30916.36814-.46556-.12132.15636-.24564.31017-.36814.46556zm1.96699-2.60337c.11946-.16564.23588-.33343.354-.50008-.11812.16657-.23462.33448-.354.50008zm10.99289-22.12046q.099-.32351.19488-.64817-.09624.32465-.19488.64817zm-2.08025 5.90697c.08263-.20679.16345-.4144.2443-.62208-.08089.20768-.16167.41533-.2443.62208zM133.178 149.11428c-.18764.14886-.377.29566-.5661.44279.1891-.14717.37837-.29389.5661-.44279zm-2.46538 1.87572c-.103.07515-.204.153-.30741.22762.10345-.07462.20436-.15247.30741-.22762zm-2.49262 1.74153q-.30751.206-.61767.40836.30977-.20313.61767-.40836zm7.36461-5.60884c-.11986.10334-.23742.20927-.35789.31184.12051-.10261.23803-.20853.35789-.31184zm-10.08615 7.35166c-.07239.04411-.14319.09057-.21574.13448.07255-.04395.14335-.09033.21574-.13448zm12.32102-9.3547c-.1675.15628-.33714.31021-.50606.465.16892-.15483.33858-.30865.50606-.465zm19.91228-30.45504c.02208-.063.04606-.12505.068-.18812-.02194.06307-.04596.12513-.068.18812zm-18.00515 28.61545c.12634-.12635.24948-.25573.37494-.383-.12541.12723-.24864.25669-.37494.383z" class="cls-1"/><path d="M111.44774 90.54131a10.432 10.432 0 0 0-4.10586-4.12611 37.76733 37.76733 0 0 0-9.34246-3.28825A7.51343 7.51343 0 0 1 94.662 81.7558a2.19127 2.19127 0 0 1-.72457-1.59967 2.7725 2.7725 0 0 1 .87826-2.0694 3.61687 3.61687 0 0 1 2.61281-.85063 4.58905 4.58905 0 0 1 3.30445 1.14262 6.18386 6.18386 0 0 1 1.56989 3.65642l9.37543-.6348q-.61479-5.78935-3.85337-8.44274t-9.40837-2.6534a17.75939 17.75939 0 0 0-7.91528 1.46 9.9606 9.9606 0 0 0-4.32545 4.01188 10.87291 10.87291 0 0 0-1.43816 5.42112 9.74771 9.74771 0 0 0 2.81049 7.1858q2.7885 2.81846 9.33152 4.51969 3.99609 1.01571 5.0939 2.15831a3.64127 3.64127 0 0 1 1.09781 2.58993 3.68008 3.68008 0 0 1-1.1527 2.67884 4.43482 4.43482 0 0 1-3.28249 1.15529 4.99434 4.99434 0 0 1-4.39132-2.25986 9.191 9.191 0 0 1-1.2515-4.06264l-9.46326.68556a15.53291 15.53291 0 0 0 3.57889 9.29332q3.16176 3.65643 11.37346 3.65643a17.04463 17.04463 0 0 0 7.75066-1.56159 11.25053 11.25053 0 0 0 4.78651-4.58321 13.15975 13.15975 0 0 0 1.7126-6.60181 11.73414 11.73414 0 0 0-1.28447-5.50995z" class="cls-3"/><path d="M85.4014 88.611a10.84057 10.84057 0 0 1-1.79228-3.167H71.60451v-6.49019h11.4919a13.1114 13.1114 0 0 1 5.29413-7.98593H61.6285v37.16634h9.976v-15.186h13.7969z" class="cls-3"/><path d="M208.05164 82.40921c-1.26835-4.90842-4.79794-7.721-9.20991-7.721-6.50785 0-11.747 5.23913-11.747 16.32431 0 8.49288 5.515 14.50429 13.84286 14.50429 5.51461 0 10.47826-2.31647 15.2762-8.10692v9.81647c-3.36386 4.08126-9.15468 6.50785-17.31683 6.50785-13.23594 0-21.72918-9.59623-21.72918-23.21812 0-13.84249 8.71384-22.72169 21.06738-22.72169 10.47827 0 17.37207 5.07377 19.30222 14.61477zm36.40098 30.33217V93.32867c0-4.412-2.26122-6.67284-7.16928-6.67284h-4.90842v26.08555h-9.70635V65.58845h9.70635v14.78013h8.32752c9.20992 0 13.4013 4.3015 13.4013 11.52638v20.84642zm24.54353-31.65577V99.6708c0 5.46009 2.09551 7.5556 6.618 7.5556h5.51461V81.08561h9.70635v32.428h-18.53034c-9.32 0-13.015-3.6953-13.015-13.12581V81.08561zm27.7969 32.48328v-48.201h9.70636v15.00069h5.68033c12.07806 0 17.59267 5.57021 17.59267 16.76551 0 10.86459-5.07341 16.4348-17.59267 16.4348zm9.70636-26.91306v20.62581h3.80542c6.34213 0 9.48575-3.14362 9.48575-9.98219 0-7.44512-2.923-10.64362-9.70635-10.64362zm40.09592 27.02317c-9.37527 0-13.62189-3.86066-13.62189-9.70635 0-7.83144 3.6397-11.14006 16.87564-11.14006h6.72844c0-3.52959-2.53706-5.6807-6.949-5.6807-3.4191 0-6.06629 1.5442-7.335 4.19138h-9.04419c1.985-7.16928 7.83108-10.9747 16.43444-10.9747 11.02994 0 16.159 3.75018 16.159 13.62189V113.679zm3.309-14.83536c-5.846 0-7.50037 1.32359-7.50037 4.30185 0 2.70207 1.82 4.24662 6.89381 4.24662h7.38988v-8.54846zM386.9115 113.679c-10.09267 0-17.15184-6.618-17.15184-16.60016 0-9.927 6.39773-16.76551 17.3172-16.76551 11.47114 0 17.09623 7.22488 17.09623 16.76551 0 10.09232-6.67284 16.60016-17.26159 16.60016zm0-26.582c-4.68782 0-7.22453 3.41911-7.22453 9.98183 0 6.83857 3.19851 9.7616 7.22453 9.7616 4.63258 0 7.335-2.97791 7.335-9.7616 0-6.5627-2.75766-9.98183-7.335-9.98183zm31.76768-12.464v13.07058h20.79154v6.28689h-20.79154v18.91627h-9.70635v-44.561H440.629V74.633zm25.53604 22.72169c5.90093 5.34962 12.79474 8.10692 18.47507 8.32752 5.90093.16536 8.32752-1.489 8.32752-5.07377 0-2.86779-2.81255-5.515-8.43764-6.56273-14.22881-2.75767-17.37243-6.45261-17.37243-14.06309 0-6.949 5.23913-12.07806 16.54492-12.07806 9.76159 0 16.60015 4.63294 18.08911 13.67713h-9.37528c-1.43407-4.46686-4.52246-6.89344-8.438-6.89344-4.52245 0-6.83856 1.82-6.83856 5.18389 0 3.08838 1.43371 5.23913 7.83144 6.45261C475.92623 88.75134 481 94.21107 481 100.77416c0 8.76871-4.85318 12.96009-17.09623 12.96009-7.88669 0-15.16645-2.75766-19.68855-7.44548z" class="cls-1"/></svg>