<svg id="Layer_1" data-name="Layer 1" xmlns="http://www.w3.org/2000/svg" viewBox="0 0 442.51999 107.27"><defs><style>.cls-1{fill:#fff;}.cls-2{fill:#326ce5;}</style></defs><title>kubernetes-horizontal-reverse-newsvg</title><g id="its-pronounced"><g id="kyoob-cuttle"><path id="kkkkkkk" d="M141.302,55.604c.823-.926,1.646-1.852,2.572-2.778.926-1.029,1.75-1.955,2.572-2.88.823-1.03,1.646-1.956,2.367-2.779s1.44-1.646,1.954-2.263h9.98c-1.955,2.263-3.91,4.527-5.864,6.584q-2.778,3.087-6.173,6.482a41.55359,41.55359,0,0,1,3.498,3.704c1.234,1.44,2.366,2.88,3.498,4.32a43.936,43.936,0,0,1,3.086,4.528c.926,1.543,1.75,2.88,2.367,4.115h-9.671c-.618-1.029-1.338-2.058-2.058-3.19a37.45741,37.45741,0,0,0-2.47-3.6,29.58289,29.58289,0,0,0-2.777-3.498,17.67839,17.67839,0,0,0-2.778-2.778V74.534h-8.436V32.044l8.436-1.338V55.604"/><path id="uuuuuuu" d="M190.48,73.608a40.03706,40.03706,0,0,1-5.555,1.132,39.771,39.771,0,0,1-7.1.514,16.577,16.577,0,0,1-6.378-1.028,9.45,9.45,0,0,1-5.967-7.202,24.19456,24.19456,0,0,1-.618-5.556V44.904h8.437V60.439c0,2.675.309,4.63,1.029,5.865s2.057,1.852,4.012,1.852a13.118,13.118,0,0,0,1.955-.103c.72-.103,1.235-.103,1.852-.206V44.904h8.436l-.103,28.704"/><path id="bbbbbbb" d="M217.539,59.513c0-5.452-1.955-8.127-5.968-8.127a10.988,10.988,0,0,0-2.572.308,7.775,7.775,0,0,0-2.057.823v15.33c.411.103.926.103,1.543.206.617,0,1.337.103,2.058.103a6.37,6.37,0,0,0,5.247-2.367,10.55006,10.55006,0,0,0,1.749-6.276m8.539.206a18.63,18.63,0,0,1-1.029,6.482,13.24215,13.24215,0,0,1-2.983,4.938,15.823,15.823,0,0,1-4.836,3.19,18.829,18.829,0,0,1-6.585,1.028c-1.028,0-2.057-.103-3.189-.205s-2.16-.206-3.292-.31c-1.029-.102-2.058-.308-3.087-.514a13.00421,13.00421,0,0,1-2.572-.72V32.043l8.437-1.337V45.521a14.37026,14.37026,0,0,1,2.983-.926,17.02771,17.02771,0,0,1,3.293-.308,13.03617,13.03617,0,0,1,5.555,1.131,11.14214,11.14214,0,0,1,4.116,3.087,12.40813,12.40813,0,0,1,2.469,4.938,29.21589,29.21589,0,0,1,.72,6.276"/><path id="eeeeeee0" d="M231.12,60.028a17.55731,17.55731,0,0,1,1.234-6.893,15.74391,15.74391,0,0,1,3.19-4.939,11.991,11.991,0,0,1,4.526-2.983,13.75006,13.75006,0,0,1,5.35-1.03,13.168,13.168,0,0,1,9.98,3.91c2.469,2.572,3.703,6.38,3.703,11.317a9.41287,9.41287,0,0,1-.102,1.647c0,.514-.103,1.028-.103,1.543H239.76a5.64,5.64,0,0,0,2.47,4.115,9.789,9.789,0,0,0,5.761,1.543,21.80536,21.80536,0,0,0,4.527-.411,18.45509,18.45509,0,0,0,3.704-1.029l1.131,6.893c-.411.206-1.028.412-1.851.72a10.37141,10.37141,0,0,1-2.573.515,23.22542,23.22542,0,0,1-2.983.411c-1.029.103-2.16.206-3.19.206a18.09008,18.09008,0,0,1-6.996-1.234,15.14807,15.14807,0,0,1-4.938-3.19,14.84978,14.84978,0,0,1-2.88-4.938,24.16529,24.16529,0,0,1-.824-6.173m19.857-3.292a6.65163,6.65163,0,0,0-.412-2.058,6.25406,6.25406,0,0,0-.926-1.852,4.915,4.915,0,0,0-4.115-1.852,6.21609,6.21609,0,0,0-2.47.514,4.092,4.092,0,0,0-1.645,1.235,5.3949,5.3949,0,0,0-1.03,1.852,15.0445,15.0445,0,0,0-.514,2.058h11.112"/><path id="rrrrrrr" d="M283.487,52.312a15.45871,15.45871,0,0,0-2.675-.515,17.02725,17.02725,0,0,0-3.292-.309,18.14042,18.14042,0,0,0-1.955.206,16.15981,16.15981,0,0,0-1.646.309V74.74h-8.437V46.447a43.76242,43.76242,0,0,1,5.35-1.44,28.942,28.942,0,0,1,6.893-.72,10.01507,10.01507,0,0,1,1.646.102,14.05921,14.05921,0,0,1,1.955.206c.618.103,1.235.206,1.955.309.617.103,1.235.309,1.646.411l-1.44,6.997"/><path id="nnnnnnn" d="M289.454,45.933a49.7458,49.7458,0,0,1,12.655-1.646,15.69309,15.69309,0,0,1,6.276,1.028,8.81307,8.81307,0,0,1,4.012,2.778,12.018,12.018,0,0,1,2.058,4.321,22.95026,22.95026,0,0,1,.617,5.556V74.74h-8.437V59c0-2.675-.308-4.63-1.028-5.762s-2.058-1.646-4.013-1.646a13.11634,13.11634,0,0,0-1.955.103,10.19344,10.19344,0,0,0-1.851.206V74.844h-8.334V45.934"/><path id="eeeeeee1" d="M321.348,60.028a17.55606,17.55606,0,0,1,1.234-6.893,15.74441,15.74441,0,0,1,3.19-4.939,11.99018,11.99018,0,0,1,4.527-2.983,13.75007,13.75007,0,0,1,5.35-1.03,13.168,13.168,0,0,1,9.98,3.91c2.468,2.572,3.703,6.38,3.703,11.317a9.41315,9.41315,0,0,1-.103,1.647c0,.514-.103,1.028-.103,1.543H329.99a5.64,5.64,0,0,0,2.47,4.115,9.78889,9.78889,0,0,0,5.76,1.543,21.8043,21.8043,0,0,0,4.528-.411,18.45539,18.45539,0,0,0,3.703-1.029l1.132,6.893c-.411.206-1.029.412-1.852.72a10.37,10.37,0,0,1-2.572.515,23.22747,23.22747,0,0,1-2.984.411c-1.028.103-2.16.206-3.189.206a18.09011,18.09011,0,0,1-6.996-1.234,15.14777,15.14777,0,0,1-4.938-3.19,14.84986,14.84986,0,0,1-2.881-4.938,24.15981,24.15981,0,0,1-.823-6.173m19.856-3.292a6.65225,6.65225,0,0,0-.411-2.058,6.255,6.255,0,0,0-.926-1.852,4.915,4.915,0,0,0-4.116-1.852,6.21619,6.21619,0,0,0-2.469.514,4.0922,4.0922,0,0,0-1.646,1.235,5.39615,5.39615,0,0,0-1.029,1.852,15.03575,15.03575,0,0,0-.514,2.058h11.111"/><path id="ttttttt" d="M355.608,37.496l8.436-1.337v8.745h10.083V51.9H364.044V62.394a8.27287,8.27287,0,0,0,.926,4.218c.618,1.03,1.955,1.544,3.807,1.544a25.22732,25.22732,0,0,0,2.778-.206,16.72706,16.72706,0,0,0,2.675-.72l1.234,6.584a16.38386,16.38386,0,0,1-3.395,1.029,19.77873,19.77873,0,0,1-4.63.411,15.72294,15.72294,0,0,1-5.76-.925,9.52189,9.52189,0,0,1-3.602-2.573,10.20776,10.20776,0,0,1-1.955-4.115,26.66549,26.66549,0,0,1-.514-5.247V37.496"/><path id="eeeeeee2" d="M378.448,60.028a17.55574,17.55574,0,0,1,1.235-6.893,15.74422,15.74422,0,0,1,3.189-4.939,11.9901,11.9901,0,0,1,4.527-2.983,13.75,13.75,0,0,1,5.35-1.03,13.168,13.168,0,0,1,9.98,3.91c2.469,2.572,3.703,6.38,3.703,11.317a9.41316,9.41316,0,0,1-.103,1.647c0,.514-.103,1.028-.103,1.543H387.09a5.64,5.64,0,0,0,2.47,4.115,9.78889,9.78889,0,0,0,5.76,1.543,21.80414,21.80414,0,0,0,4.528-.411,18.4553,18.4553,0,0,0,3.703-1.029l1.132,6.893c-.411.206-1.029.412-1.852.72a10.37115,10.37115,0,0,1-2.572.515,23.2259,23.2259,0,0,1-2.983.411c-1.03.103-2.16.206-3.19.206a18.09008,18.09008,0,0,1-6.996-1.234,15.14767,15.14767,0,0,1-4.938-3.19,14.85,14.85,0,0,1-2.88-4.938,20.343,20.343,0,0,1-.824-6.173m19.754-3.292a6.65218,6.65218,0,0,0-.412-2.058,6.25384,6.25384,0,0,0-.926-1.852,4.915,4.915,0,0,0-4.115-1.852,6.216,6.216,0,0,0-2.47.514,4.0922,4.0922,0,0,0-1.646,1.235,5.39522,5.39522,0,0,0-1.028,1.852,15.037,15.037,0,0,0-.515,2.058h11.112"/><path id="sssssss" d="M421.35,68.567a8.454,8.454,0,0,0,3.293-.411,1.802,1.802,0,0,0,.925-1.75c0-.72-.411-1.234-1.234-1.748a19.5149,19.5149,0,0,0-3.807-1.75c-1.337-.514-2.572-1.028-3.6-1.543a10.28562,10.28562,0,0,1-2.676-1.852,8.04592,8.04592,0,0,1-1.749-2.675,9.96757,9.96757,0,0,1-.617-3.703,7.828,7.828,0,0,1,3.086-6.585c2.058-1.646,4.939-2.47,8.54-2.47a29.26634,29.26634,0,0,1,5.247.515,19.022,19.022,0,0,1,3.91,1.03l-1.441,6.584c-1.029-.309-2.058-.618-3.19-.926a14.394,14.394,0,0,0-3.806-.412c-2.675,0-3.91.72-3.91,2.16a3.00419,3.00419,0,0,0,.206.927,1.72815,1.72815,0,0,0,.72.823c.309.206.823.514,1.338.823.617.308,1.337.514,2.263.926a33.93957,33.93957,0,0,1,4.63,2.057,7.68183,7.68183,0,0,1,2.778,2.161,5.374,5.374,0,0,1,1.44,2.572,10.677,10.677,0,0,1,.412,3.292,7.669,7.669,0,0,1-3.293,6.688c-2.16,1.543-5.247,2.263-9.362,2.263a23.78307,23.78307,0,0,1-6.584-.72,18.77882,18.77882,0,0,1-3.601-1.132l1.44-6.893a31.4418,31.4418,0,0,0,4.424,1.337,18.93215,18.93215,0,0,0,4.218.412"/></g></g><path class="cls-1" d="M6.952,63.77h4.881v3.876H6.952Z"/><path class="cls-1" d="M64.023,60.578a1.65025,1.65025,0,0,0-.393-.03,1.69412,1.69412,0,0,0-.655.17,1.712,1.712,0,0,0-.829,2.218l-.012.017,3.92,9.47a20.008,20.008,0,0,0,8.087-10.159L64.04,60.557ZM48.306,61.92a1.71,1.71,0,0,0-1.64-1.33,1.67935,1.67935,0,0,0-.337.03l-.017-.021-10.013,1.7a20.084,20.084,0,0,0,8.062,10.087l3.88-9.376-.03-.037A1.693,1.693,0,0,0,48.306,61.92Zm8.386,3.677a1.709,1.709,0,0,0-3.014.004H53.67l-4.924,8.904a20.057,20.057,0,0,0,10.946.563q1.01-.23,1.973-.551l-4.936-8.92ZM72.28,44.914l-7.576,6.78.004.022a1.712,1.712,0,0,0,.671,2.939l.009.041,9.814,2.827A20.35194,20.35194,0,0,0,72.28,44.914Zm-14.075.759a1.712,1.712,0,0,0,2.718,1.305l.03.013,8.29-5.878A20.155,20.155,0,0,0,57.62,35.51l.576,10.16Zm-8.779,1.343a1.71,1.71,0,0,0,2.714-1.31l.042-.02.576-10.176a20.533,20.533,0,0,0-2.069.356,19.979,19.979,0,0,0-9.623,5.244l8.344,5.915Zm-4.448,7.689a1.71,1.71,0,0,0,.672-2.94l.008-.04L38.04,44.911a19.973,19.973,0,0,0-2.835,12.645l9.765-2.818Zm7.399,2.993,2.81,1.351,2.802-1.348.696-3.025-1.939-2.425H53.625L51.68,54.672Z"/><path class="cls-1" d="M101.644,63.658,93.636,28.875a6.252,6.252,0,0,0-3.352-4.17L57.87,9.229a6.246,6.246,0,0,0-5.38,0L20.083,24.713a6.25,6.25,0,0,0-3.353,4.17L8.735,63.665a6.12,6.12,0,0,0-.002,2.67,6.207,6.207,0,0,0,.226.79,6.02187,6.02187,0,0,0,.617,1.253c.11.168.226.331.352.489L32.36,96.757c.098.121.206.232.313.345a6.17014,6.17014,0,0,0,1.183.98,6.39969,6.39969,0,0,0,1.773.771,6.112,6.112,0,0,0,1.576.217h.349l35.624-.008a5.9707,5.9707,0,0,0,.648-.038,6.19119,6.19119,0,0,0,.914-.174,6.36927,6.36927,0,0,0,.635-.203c.162-.062.324-.124.48-.199a6.41088,6.41088,0,0,0,.68-.378,6.11516,6.11516,0,0,0,1.488-1.317l.684-.85,21.74-27.045a6.06008,6.06008,0,0,0,.969-1.74,6.2845,6.2845,0,0,0,.23-.792,6.1051,6.1051,0,0,0-.002-2.67ZM68.023,77.186a6.66924,6.66924,0,0,0,.323.783,1.523,1.523,0,0,0-.15,1.144,18.09693,18.09693,0,0,0,1.72,3.08,16.12144,16.12144,0,0,1,1.04,1.546c.078.145.18.369.254.522a1.949,1.949,0,1,1-3.507,1.658c-.074-.152-.177-.354-.24-.497a16.20884,16.20884,0,0,1-.563-1.778,18.06776,18.06776,0,0,0-1.331-3.262,1.533,1.533,0,0,0-.99-.601c-.062-.107-.292-.528-.415-.746a25.104,25.104,0,0,1-17.902-.046l-.439.796a1.57611,1.57611,0,0,0-.836.407,13.5676,13.5676,0,0,0-1.502,3.485,16.03853,16.03853,0,0,1-.56,1.778c-.062.142-.166.342-.24.493v.004l-.003.004a1.948,1.948,0,1,1-3.502-1.662c.073-.154.171-.377.248-.522a16.16713,16.16713,0,0,1,1.04-1.55,18.95083,18.95083,0,0,0,1.756-3.156,1.92506,1.92506,0,0,0-.173-1.097l.353-.846A25.24393,25.24393,0,0,1,31.217,63.156l-.845.144a2.151,2.151,0,0,0-1.116-.393,18.16635,18.16635,0,0,0-3.381.995,16.35743,16.35743,0,0,1-1.741.667c-.14.038-.342.077-.502.112-.013.004-.024.01-.037.013l-.03.003a1.947,1.947,0,1,1-.861-3.78l.028-.007.017-.005c.162-.038.37-.092.518-.12a16.21172,16.21172,0,0,1,1.861-.15,18.10511,18.10511,0,0,0,3.477-.571,2.682,2.682,0,0,0,.834-.841l.812-.237a25.102,25.102,0,0,1,3.959-17.5l-.622-.554a2.155,2.155,0,0,0-.39-1.12,18.09389,18.09389,0,0,0-2.885-2.027,16.20487,16.20487,0,0,1-1.608-.94c-.118-.088-.274-.22-.402-.324l-.029-.02a2.056,2.056,0,0,1-.477-2.86,1.869,1.869,0,0,1,1.546-.684,2.312,2.312,0,0,1,1.352.51c.132.104.313.242.43.343a16.20671,16.20671,0,0,1,1.278,1.356,18.10219,18.10219,0,0,0,2.615,2.363,1.532,1.532,0,0,0,1.152.112c.111.082.486.35.7.497a24.95293,24.95293,0,0,1,12.675-7.241,25.30282,25.30282,0,0,1,3.507-.539l.046-.82a2.115,2.115,0,0,0,.63-1.004,18.14244,18.14244,0,0,0-.216-3.518,16.3054,16.3054,0,0,1-.265-1.845c-.005-.141.003-.336.005-.497,0-.018-.005-.036-.005-.054a1.95,1.95,0,1,1,3.88-.002c0,.17.01.396.004.552a16.14022,16.14022,0,0,1-.266,1.844,18.16984,18.16984,0,0,0-.22,3.519,1.537,1.537,0,0,0,.634.97c.007.14.03.608.047.866a25.422,25.422,0,0,1,16.102,7.78l.738-.527a2.156,2.156,0,0,0,1.177-.128,18.17027,18.17027,0,0,0,2.615-2.366,16.09349,16.09349,0,0,1,1.281-1.356c.119-.102.299-.239.43-.343a1.95,1.95,0,1,1,2.417,3.033c-.13.105-.302.252-.427.345a16.13286,16.13286,0,0,1-1.612.94,18.15392,18.15392,0,0,0-2.885,2.027,1.534,1.534,0,0,0-.364,1.099c-.108.099-.487.435-.688.617a25.205,25.205,0,0,1,4.041,17.458l.783.228a2.181,2.181,0,0,0,.837.842,18.13931,18.13931,0,0,0,3.478.572,16.38369,16.38369,0,0,1,1.86.149c.163.03.399.095.565.133a1.947,1.947,0,1,1-.863,3.78l-.028-.004c-.013-.003-.025-.01-.038-.013-.16-.035-.361-.07-.501-.107a16.155,16.155,0,0,1-1.74-.672,18.14463,18.14463,0,0,0-3.384-.995,1.534,1.534,0,0,0-1.086.403q-.413-.079-.829-.145A25.243,25.243,0,0,1,68.023,77.186Z"/><path class="cls-2" d="M105.872,64.55,97.136,26.602a6.82,6.82,0,0,0-3.658-4.55L58.116,5.169a6.814,6.814,0,0,0-5.87,0L16.887,22.062a6.82,6.82,0,0,0-3.659,4.548L4.507,64.56a6.742,6.742,0,0,0,.917,5.141c.12.184.247.362.385.534l24.474,30.43a6.885,6.885,0,0,0,5.285,2.522l39.247-.009a6.888,6.888,0,0,0,5.286-2.519l24.465-30.433a6.766,6.766,0,0,0,1.306-5.675Zm-4.227,1.777a6.2843,6.2843,0,0,1-.229.792,6.06,6.06,0,0,1-.97,1.74L78.706,95.903l-.683.851a6.11527,6.11527,0,0,1-1.489,1.317,6.41094,6.41094,0,0,1-.678.378q-.236.109-.48.198a6.37333,6.37333,0,0,1-.636.204,6.19249,6.19249,0,0,1-.914.174,5.9707,5.9707,0,0,1-.648.038l-35.624.008h-.349a6.11165,6.11165,0,0,1-1.576-.217,6.39993,6.39993,0,0,1-1.772-.771,6.16961,6.16961,0,0,1-1.184-.98c-.107-.113-.215-.224-.313-.345L9.928,68.868q-.188-.236-.352-.49a6.02155,6.02155,0,0,1-.617-1.253,6.20663,6.20663,0,0,1-.226-.79,6.1199,6.1199,0,0,1,.002-2.67L16.73,28.882a6.25,6.25,0,0,1,3.353-4.169L52.491,9.23a6.246,6.246,0,0,1,5.38,0L90.284,24.706a6.252,6.252,0,0,1,3.352,4.17l8.008,34.783a6.105,6.105,0,0,1,.001,2.669Z"/><path class="cls-2" d="M87.674,60.872c-.166-.038-.402-.103-.564-.133a16.37994,16.37994,0,0,0-1.86-.15,18.13986,18.13986,0,0,1-3.479-.571,2.181,2.181,0,0,1-.837-.842l-.783-.228a25.205,25.205,0,0,0-4.04-17.458c.2-.182.58-.518.687-.617a1.534,1.534,0,0,1,.364-1.099,18.15327,18.15327,0,0,1,2.885-2.027,16.12787,16.12787,0,0,0,1.612-.94c.125-.093.296-.24.427-.345a1.95,1.95,0,1,0-2.416-3.033c-.132.104-.312.241-.43.343a16.08969,16.08969,0,0,0-1.282,1.356,18.17086,18.17086,0,0,1-2.615,2.366,2.15606,2.15606,0,0,1-1.177.128l-.738.527a25.422,25.422,0,0,0-16.102-7.78c-.018-.258-.04-.725-.047-.866a1.537,1.537,0,0,1-.633-.97,18.17137,18.17137,0,0,1,.22-3.519,16.13786,16.13786,0,0,0,.264-1.844c.006-.156-.003-.383-.003-.552a1.95,1.95,0,1,0-3.88.002c0,.018.004.036.005.054-.002.161-.01.356-.005.497a16.3054,16.3054,0,0,0,.265,1.845,18.144,18.144,0,0,1,.216,3.518,2.11506,2.11506,0,0,1-.63,1.003l-.046.821a25.30259,25.30259,0,0,0-3.507.539,24.953,24.953,0,0,0-12.674,7.241q-.354-.244-.701-.497a1.532,1.532,0,0,1-1.152-.112,18.10171,18.10171,0,0,1-2.615-2.363,16.20432,16.20432,0,0,0-1.277-1.356c-.118-.101-.299-.239-.431-.344a2.312,2.312,0,0,0-1.352-.51,1.869,1.869,0,0,0-1.546.684,2.056,2.056,0,0,0,.477,2.86l.03.021c.127.104.283.237.401.323a16.20206,16.20206,0,0,0,1.608.941,18.09435,18.09435,0,0,1,2.885,2.028,2.15494,2.15494,0,0,1,.39,1.119l.621.555a25.102,25.102,0,0,0-3.958,17.5l-.812.236a2.682,2.682,0,0,1-.834.84,18.1042,18.1042,0,0,1-3.477.573,16.20965,16.20965,0,0,0-1.861.15c-.149.027-.356.08-.518.12l-.017.004-.028.008a1.947,1.947,0,1,0,.862,3.78l.029-.004c.013-.003.024-.01.037-.012.16-.036.361-.075.502-.113a16.35828,16.35828,0,0,0,1.74-.667,18.16613,18.16613,0,0,1,3.382-.995,2.15094,2.15094,0,0,1,1.115.394l.846-.145A25.244,25.244,0,0,0,42.404,77.123l-.353.846a1.92489,1.92489,0,0,1,.173,1.097,18.94853,18.94853,0,0,1-1.756,3.155,16.17211,16.17211,0,0,0-1.04,1.55c-.077.146-.175.37-.249.523a1.948,1.948,0,1,0,3.503,1.662l.003-.004v-.004c.074-.152.178-.351.24-.493a16.03853,16.03853,0,0,0,.56-1.778,13.5676,13.5676,0,0,1,1.502-3.485,1.57594,1.57594,0,0,1,.836-.408l.44-.795a25.104,25.104,0,0,0,17.901.045c.123.22.353.64.414.746a1.53306,1.53306,0,0,1,.99.602A18.06708,18.06708,0,0,1,66.9,83.644a16.21662,16.21662,0,0,0,.563,1.778c.063.143.166.345.24.497a1.949,1.949,0,1,0,3.507-1.658c-.074-.153-.176-.377-.253-.522a16.12144,16.12144,0,0,0-1.04-1.546,18.09518,18.09518,0,0,1-1.72-3.08,1.523,1.523,0,0,1,.149-1.144,6.671,6.671,0,0,1-.323-.783A25.243,25.243,0,0,0,79.205,63.119c.251.04.688.116.83.145a1.53406,1.53406,0,0,1,1.085-.403,18.14572,18.14572,0,0,1,3.383.995,16.15163,16.15163,0,0,0,1.741.672c.14.037.34.072.501.107.013.004.025.01.038.013l.028.004a1.947,1.947,0,1,0,.863-3.78ZM69.242,41.114l-8.29,5.877-.029-.013a1.7114,1.7114,0,0,1-2.718-1.305l-.009-.004-.576-10.16A20.155,20.155,0,0,1,69.242,41.114ZM53.625,52.25h3.12l1.94,2.425L57.989,57.7l-2.802,1.348-2.81-1.351-.697-3.026ZM50.689,35.865a20.53576,20.53576,0,0,1,2.07-.356l-.577,10.175-.042.02a1.71,1.71,0,0,1-2.714,1.311l-.016.009-8.344-5.916A19.98,19.98,0,0,1,50.689,35.865ZM38.04,44.911l7.618,6.813-.008.042a1.71,1.71,0,0,1-.672,2.939l-.008.033-9.765,2.818A19.973,19.973,0,0,1,38.04,44.911Zm10.2,18.1-3.88,9.375A20.084,20.084,0,0,1,36.3,62.298l10.012-1.7.017.022a1.67963,1.67963,0,0,1,.336-.03,1.71,1.71,0,0,1,1.546,2.383ZM59.692,75.068a20.057,20.057,0,0,1-10.946-.563l4.924-8.904h.008a1.712,1.712,0,0,1,3.014-.003h.037l4.936,8.919Q60.704,74.838,59.692,75.068Zm6.362-2.644-3.92-9.471.012-.017a1.712,1.712,0,0,1,.829-2.217,1.69393,1.69393,0,0,1,.655-.17,1.65045,1.65045,0,0,1,.393.029l.017-.021,10.101,1.707A20.008,20.008,0,0,1,66.054,72.424Zm9.148-14.901-9.814-2.827-.009-.041a1.712,1.712,0,0,1-.671-2.94l-.004-.02,7.576-6.78A20.352,20.352,0,0,1,75.202,57.523Z"/></svg>