<?xml version="1.0" encoding="utf-8"?>
<!-- Generator: Adobe Illustrator 21.1.0, SVG Export Plug-In . SVG Version: 6.00 Build 0)  -->
<svg version="1.1" id="Layer_1" xmlns="http://www.w3.org/2000/svg" xmlns:xlink="http://www.w3.org/1999/xlink" x="0px" y="0px"
	 viewBox="0 0 432 432" style="enable-background:new 0 0 432 432;" xml:space="preserve">
<style type="text/css">
	.st0{fill:#FFFFFF;}
</style>
<g>
	<polygon class="st0" points="216,39.5 216,39.5 361.6,109.1 397.6,265.4 296.8,390.8 135.2,390.8 135.2,390.8 296.9,390.8 
		397.6,265.4 397.6,265.4 361.6,109.1 	"/>
	<path class="st0" d="M413.8,256.9l-34.1-148.1c-1.8-7.6-7.2-14.4-14.3-17.8l-138-65.9c-4-1.9-8.4-2.8-12.8-2.6
		c-3.5,0.2-7,1.1-10.1,2.6l-138,65.9c-7.1,3.4-12.5,10.1-14.3,17.8L18.2,257c-1.6,6.8-0.2,14.2,3.6,20.1c0.5,0.7,1,1.4,1.5,2.1
		l95.5,118.7c4.9,6.1,12.7,9.8,20.6,9.8l153.1,0c7.9,0,15.7-3.7,20.6-9.8l95.5-118.8C413.6,273,415.5,264.6,413.8,256.9z
		 M397.6,265.4L296.9,390.8l-161.7,0l0,0h0L34.4,265.4l27.7-120.4l8.3-36L216,39.5l0,0l0,0l145.7,69.6L397.6,265.4L397.6,265.4z"/>
	<path class="st0" d="M218.8,163.4c-0.3-0.6-0.8-1.1-1.5-1.4c-0.5-0.2-1-0.3-1.5-0.3c-1.1,0-2.2,0.7-2.7,1.7h0l-9.3,16.9
		c6.4,2.2,13.6,2.7,20.7,1.1c1.3-0.3,2.5-0.6,3.7-1L218.8,163.4L218.8,163.4z"/>
	<path class="st0" d="M221.7,125.7c0,0.7,0.3,1.3,0.7,1.9c1.1,1.4,3,1.6,4.4,0.6l0.1,0l15.7-11.1c-5.9-5.8-13.6-9.6-22-10.6
		L221.7,125.7L221.7,125.7z"/>
	<path class="st0" d="M192.8,231.6c-0.3-0.4-0.7-0.7-1.2-0.9c-0.5-0.2-1-0.4-1.7-0.4c-0.7,0-1.2,0.1-1.7,0.3
		c-0.5,0.2-0.9,0.5-1.2,0.9c-0.3,0.4-0.6,0.8-0.7,1.3c-0.2,0.5-0.3,1-0.4,1.5h7.8c0-0.5-0.1-1-0.3-1.5S193.1,232,192.8,231.6z"/>
	<path class="st0" d="M232.7,153.9c-0.2,0-0.5-0.1-0.7-0.1c-0.4,0-0.8,0.1-1.2,0.3c-1.6,0.8-2.3,2.6-1.6,4.2l0,0l7.4,17.9
		c7.2-4.6,12.5-11.4,15.3-19.2L232.7,153.9L232.7,153.9z"/>
	<path class="st0" d="M296.9,232.9c-0.1-0.5-0.4-0.9-0.7-1.3c-0.3-0.4-0.7-0.7-1.2-0.9s-1-0.4-1.7-0.4c-0.7,0-1.2,0.1-1.7,0.3
		c-0.5,0.2-0.9,0.5-1.2,0.9s-0.6,0.8-0.7,1.3c-0.2,0.5-0.3,1-0.4,1.5h7.8C297.1,233.9,297,233.4,296.9,232.9z"/>
	<path class="st0" d="M356.7,113L216,45.8L75.2,113l-7.7,33.3L40.5,264l97.4,121.1l156.2,0L391.5,264L356.7,113z M315.5,240.1
		c-0.6-0.4-1.5-0.8-2.7-1.2c-0.9-0.4-1.8-0.7-2.5-1.1c-0.8-0.4-1.4-0.8-1.9-1.4c-0.5-0.5-0.9-1.2-1.2-1.9c-0.3-0.7-0.4-1.6-0.4-2.7
		c0-2,0.7-3.6,2.2-4.8c1.5-1.2,3.5-1.8,6-1.8c1.3,0,2.5,0.1,3.7,0.3c1.2,0.2,2.1,0.5,2.8,0.8l-1,4.8c-0.7-0.2-1.4-0.5-2.2-0.7
		c-0.8-0.2-1.7-0.3-2.7-0.3c-1.9,0-2.8,0.5-2.8,1.6c0,0.2,0,0.5,0.1,0.7c0.1,0.2,0.2,0.4,0.5,0.6c0.2,0.2,0.6,0.4,1,0.6
		c0.4,0.2,0.9,0.4,1.6,0.7c1.3,0.5,2.4,1,3.2,1.5c0.8,0.5,1.5,1,2,1.6c0.5,0.6,0.8,1.2,1,1.9c0.2,0.7,0.3,1.5,0.3,2.4
		c0,2.1-0.8,3.7-2.3,4.8c-1.5,1.1-3.7,1.6-6.6,1.6c-1.9,0-3.4-0.2-4.6-0.5s-2.1-0.6-2.6-0.8l1-5c1,0.4,2,0.7,3.1,1s2.1,0.3,3.1,0.3
		c1.1,0,1.9-0.1,2.3-0.3s0.7-0.6,0.7-1.3C316.4,240.9,316.1,240.5,315.5,240.1z M284.1,231.8c0.6-1.4,1.3-2.6,2.2-3.6
		c0.9-1,2-1.7,3.2-2.2c1.2-0.5,2.4-0.7,3.7-0.7c3,0,5.3,0.9,7,2.8c1.7,1.9,2.6,4.6,2.6,8.3c0,0.4,0,0.7,0,1.2c0,0.4-0.1,0.8-0.1,1.1
		h-13.4c0.1,1.3,0.7,2.3,1.7,3c1,0.7,2.4,1.1,4,1.1c1.1,0,2.1-0.1,3.2-0.3c1-0.2,1.9-0.5,2.6-0.8l0.8,5c-0.3,0.2-0.7,0.3-1.3,0.5
		s-1.1,0.3-1.8,0.4s-1.3,0.2-2.1,0.3c-0.7,0.1-1.5,0.1-2.2,0.1c-1.9,0-3.5-0.3-4.9-0.9c-1.4-0.6-2.5-1.4-3.5-2.4
		c-0.9-1-1.6-2.2-2-3.5c-0.4-1.4-0.7-2.8-0.7-4.4C283.2,234.9,283.5,233.2,284.1,231.8z M280.2,225.8v5.1h-7.1v7.6
		c0,1.3,0.2,2.3,0.7,3.1c0.4,0.8,1.3,1.1,2.6,1.1c0.6,0,1.3-0.1,2-0.2s1.3-0.3,1.8-0.5l0.8,4.8c-0.7,0.3-1.5,0.6-2.4,0.8
		s-1.9,0.3-3.2,0.3c-1.6,0-3-0.2-4-0.7c-1.1-0.5-1.9-1.1-2.5-1.9c-0.6-0.8-1.1-1.8-1.3-2.9c-0.3-1.1-0.4-2.4-0.4-3.8v-18.1l5.9-1
		v6.4H280.2z M154.5,154.6C154.5,154.6,154.6,154.6,154.5,154.6C154.6,154.6,154.6,154.5,154.5,154.6c0.4-0.1,0.8-0.2,1.1-0.3
		c1.3-0.2,2.3-0.2,3.5-0.3c2.6-0.3,4.7-0.5,6.6-1.1c0.6-0.2,1.2-1.1,1.6-1.6l1.5-0.4c-1.7-11.9,1.2-23.6,7.5-33.1l-1.2-1.1
		c-0.1-0.5-0.2-1.5-0.7-2.1c-1.4-1.4-3.3-2.5-5.5-3.8c-1-0.6-2-1-3-1.8c-0.2-0.2-0.5-0.4-0.8-0.6c0,0,0,0-0.1,0
		c-1.8-1.4-2.2-3.8-0.9-5.4c0.7-0.9,1.8-1.3,2.9-1.3c0.9,0,1.8,0.4,2.6,1c0.3,0.2,0.6,0.5,0.8,0.7c1,0.8,1.6,1.7,2.4,2.6
		c1.8,1.8,3.3,3.4,4.9,4.5c0.9,0.5,1.5,0.3,2.2,0.2c0.2,0.2,0.9,0.7,1.3,0.9c6.2-6.6,14.5-11.5,24-13.7c2.2-0.5,4.4-0.8,6.6-1
		l0.1-1.6c0.5-0.5,1-1.2,1.2-1.9c0.2-2-0.1-4.1-0.4-6.7c-0.2-1.2-0.5-2.2-0.5-3.5c0-0.3,0-0.6,0-0.9c0,0,0-0.1,0-0.1
		c0-2.3,1.6-4.1,3.7-4.1c2,0,3.7,1.8,3.7,4.1c0,0.3,0,0.7,0,1c0,1.3-0.3,2.3-0.5,3.5c-0.3,2.6-0.6,4.7-0.4,6.7
		c0.1,1,0.7,1.4,1.2,1.8c0,0.3,0.1,1.1,0.1,1.6c11.7,1,22.5,6.4,30.5,14.7l1.4-1c0.5,0,1.5,0.2,2.2-0.2c1.6-1.1,3.1-2.6,4.9-4.5
		c0.8-0.9,1.4-1.7,2.4-2.6c0.2-0.2,0.6-0.5,0.8-0.7c1.8-1.4,4.2-1.3,5.5,0.3c1.3,1.6,0.9,4-0.9,5.4c-0.2,0.2-0.6,0.5-0.8,0.7
		c-1,0.8-2,1.2-3.1,1.8c-2.2,1.4-4,2.5-5.5,3.8c-0.7,0.7-0.6,1.4-0.7,2.1c-0.2,0.2-0.9,0.8-1.3,1.2c3.2,4.7,5.5,10.1,6.9,15.9
		c1.3,5.8,1.5,11.6,0.8,17.1l1.5,0.4c0.3,0.4,0.8,1.3,1.6,1.6c1.9,0.6,4,0.8,6.6,1.1c1.2,0.1,2.2,0,3.5,0.3c0.3,0.1,0.8,0.2,1.1,0.3
		c2.2,0.5,3.6,2.5,3.1,4.5s-2.6,3.2-4.7,2.7c0,0,0,0-0.1,0c0,0,0,0-0.1,0c-0.3-0.1-0.7-0.1-0.9-0.2c-1.3-0.3-2.2-0.8-3.3-1.3
		c-2.4-0.9-4.4-1.6-6.4-1.9c-1-0.1-1.5,0.4-2.1,0.8c-0.3-0.1-1.1-0.2-1.6-0.3c-3.5,11.1-11,20.6-21.2,26.6c0.2,0.4,0.5,1.3,0.6,1.5
		c-0.2,0.6-0.6,1.2-0.3,2.2c0.7,1.8,1.9,3.7,3.3,5.8c0.7,1,1.4,1.8,2,2.9c0.1,0.3,0.3,0.7,0.5,1c0.9,2,0.3,4.3-1.6,5.2
		c-1.8,0.9-4.1,0-5.1-2.1c-0.1-0.3-0.3-0.7-0.5-0.9c-0.5-1.2-0.7-2.2-1.1-3.4c-0.8-2.4-1.5-4.5-2.5-6.2c-0.6-0.8-1.2-0.9-1.9-1.1
		c-0.1-0.2-0.6-1-0.8-1.4c-2,0.8-4.1,1.4-6.3,1.9c-9.5,2.2-19.1,1.3-27.6-2l-0.8,1.5c-0.6,0.2-1.2,0.3-1.6,0.8
		c-1.3,1.6-1.9,4.2-2.8,6.6c-0.4,1.2-0.5,2.2-1.1,3.4c-0.1,0.3-0.3,0.6-0.5,0.9c0,0,0,0,0,0c0,0,0,0,0,0c-1,2-3.2,2.9-5.1,2.1
		c-1.8-0.9-2.5-3.2-1.6-5.2c0.1-0.3,0.3-0.7,0.5-1c0.6-1.1,1.3-1.9,2-2.9c1.4-2.2,2.6-4.1,3.3-6c0.2-0.6-0.1-1.5-0.3-2.1l0.7-1.6
		c-9.8-5.8-17.5-15-21.2-26.4l-1.6,0.3c-0.4-0.2-1.3-0.8-2.1-0.7c-2,0.3-4,1-6.4,1.9c-1.1,0.4-2,0.9-3.3,1.3c-0.3,0.1-0.6,0.1-1,0.2
		c0,0,0,0-0.1,0c0,0,0,0-0.1,0c-2.2,0.5-4.3-0.7-4.7-2.7C151,157.1,152.4,155.1,154.5,154.6z M251,241.6c1,0.7,2.4,1.1,4,1.1
		c1.1,0,2.1-0.1,3.2-0.3c1-0.2,1.9-0.5,2.6-0.8l0.8,5c-0.3,0.2-0.7,0.3-1.3,0.5s-1.1,0.3-1.8,0.4s-1.3,0.2-2.1,0.3
		c-0.7,0.1-1.5,0.1-2.2,0.1c-1.9,0-3.5-0.3-4.9-0.9c-1.4-0.6-2.5-1.4-3.5-2.4c-0.9-1-1.6-2.2-2-3.5c-0.4-1.4-0.7-2.8-0.7-4.4
		c0-1.9,0.3-3.6,0.9-5s1.3-2.6,2.2-3.6c0.9-1,2-1.7,3.2-2.2c1.2-0.5,2.4-0.7,3.7-0.7c3,0,5.3,0.9,7,2.8c1.7,1.9,2.6,4.6,2.6,8.3
		c0,0.4,0,0.7,0,1.2c0,0.4-0.1,0.8-0.1,1.1h-13.4C249.4,239.9,250,240.9,251,241.6z M232.2,231.8c-0.5-0.8-1.4-1.2-2.8-1.2
		c-0.4,0-0.9,0-1.3,0.1s-0.9,0.1-1.3,0.1v16.6h-5.9v-20.8c1-0.3,2.3-0.6,3.9-0.8s3.3-0.4,5-0.4c1.8,0,3.2,0.2,4.4,0.7s2.1,1.2,2.8,2
		c0.7,0.9,1.2,1.9,1.5,3.1c0.3,1.2,0.4,2.5,0.4,4v12.2h-5.9V236C232.9,234,232.7,232.6,232.2,231.8z M217.6,226.2l-1,5
		c-0.5-0.1-1.2-0.3-1.9-0.4c-0.7-0.1-1.5-0.2-2.3-0.2c-0.4,0-0.8,0-1.3,0.1c-0.5,0.1-0.9,0.1-1.2,0.2v16.5h-5.9V227
		c1.1-0.4,2.3-0.7,3.8-1.1c1.4-0.3,3-0.5,4.8-0.5c0.3,0,0.7,0,1.2,0.1c0.4,0,0.9,0.1,1.3,0.2c0.4,0.1,0.9,0.2,1.3,0.2
		C216.9,226,217.3,226.1,217.6,226.2z M187.7,241.6c1,0.7,2.4,1.1,4,1.1c1.1,0,2.1-0.1,3.2-0.3c1-0.2,1.9-0.5,2.6-0.8l0.8,5
		c-0.3,0.2-0.7,0.3-1.3,0.5c-0.5,0.2-1.1,0.3-1.8,0.4s-1.3,0.2-2.1,0.3c-0.7,0.1-1.5,0.1-2.2,0.1c-1.9,0-3.5-0.3-4.9-0.9
		s-2.5-1.4-3.5-2.4c-0.9-1-1.6-2.2-2-3.5c-0.4-1.4-0.7-2.8-0.7-4.4c0-1.9,0.3-3.6,0.9-5c0.6-1.4,1.3-2.6,2.2-3.6
		c0.9-1,2-1.7,3.2-2.2c1.2-0.5,2.4-0.7,3.7-0.7c3,0,5.3,0.9,7,2.8c1.7,1.9,2.6,4.6,2.6,8.3c0,0.4,0,0.7,0,1.2c0,0.4-0.1,0.8-0.1,1.1
		h-13.4C186.1,239.9,186.7,240.9,187.7,241.6z M164.9,225.6c0.7-0.2,1.5-0.2,2.3-0.2c1.5,0,2.8,0.3,3.9,0.8c1.1,0.5,2.1,1.3,2.9,2.3
		c0.8,1,1.3,2.2,1.7,3.5s0.6,2.9,0.6,4.6c0,1.7-0.2,3.3-0.7,4.7c-0.5,1.4-1.2,2.6-2.1,3.6c-0.9,1-2.1,1.7-3.4,2.3s-2.9,0.8-4.6,0.8
		c-0.7,0-1.5,0-2.2-0.1c-0.8-0.1-1.5-0.2-2.3-0.3c-0.8-0.1-1.5-0.2-2.2-0.4c-0.7-0.1-1.3-0.3-1.8-0.5v-30.1l5.9-1v10.7
		C163.5,226,164.2,225.8,164.9,225.6z M133.3,225.8h5.9v11.3c0,2,0.3,3.4,0.8,4.3c0.5,0.9,1.4,1.3,2.8,1.3c0.4,0,0.9,0,1.3-0.1
		c0.5,0,0.9-0.1,1.3-0.1v-16.6h5.9v20.8c-1,0.3-2.3,0.6-3.9,0.8s-3.3,0.4-5,0.4c-1.8,0-3.2-0.2-4.4-0.7c-1.2-0.5-2.1-1.2-2.8-2.1
		c-0.7-0.9-1.2-1.9-1.5-3.2c-0.3-1.2-0.4-2.6-0.4-4.1V225.8z M110.9,216.6l5.9-1v18c0.6-0.7,1.2-1.3,1.8-2c0.6-0.7,1.2-1.4,1.8-2.1
		c0.6-0.7,1.1-1.4,1.6-2s1-1.2,1.3-1.6h7c-1.4,1.7-2.8,3.3-4.1,4.8s-2.8,3.1-4.4,4.7c0.8,0.7,1.6,1.6,2.5,2.6c0.8,1,1.7,2.1,2.5,3.2
		s1.5,2.2,2.2,3.3c0.7,1.1,1.2,2.1,1.7,3h-6.8c-0.4-0.7-0.9-1.5-1.4-2.4c-0.5-0.9-1.1-1.7-1.7-2.6c-0.6-0.9-1.2-1.7-1.9-2.5
		c-0.7-0.8-1.3-1.5-2-2v9.5h-5.9V216.6z M322.9,325.3H109.1v-69.4h213.8V325.3z"/>
	<path class="st0" d="M256.2,231.6c-0.3-0.4-0.7-0.7-1.2-0.9s-1-0.4-1.7-0.4c-0.7,0-1.2,0.1-1.7,0.3c-0.5,0.2-0.9,0.5-1.2,0.9
		s-0.6,0.8-0.7,1.3c-0.2,0.5-0.3,1-0.4,1.5h7.8c0-0.5-0.1-1-0.3-1.5S256.5,232,256.2,231.6z"/>
	<path class="st0" d="M162.8,242.5c0.3,0.1,0.7,0.1,1.1,0.1c0.4,0,0.9,0.1,1.5,0.1c1.6,0,2.8-0.6,3.7-1.7c0.8-1.1,1.2-2.7,1.2-4.6
		c0-3.9-1.4-5.9-4.2-5.9c-0.6,0-1.2,0.1-1.8,0.2c-0.6,0.2-1.1,0.4-1.4,0.6V242.5z"/>
	<path class="st0" d="M203,156.5c-0.3-1.5-1.6-2.5-3.1-2.5c-0.2,0-0.4,0-0.6,0.1l0,0l-19,3.2c2.9,8.1,8.4,14.7,15.3,19.1l7.3-17.7
		l-0.1-0.1C203.1,157.9,203.1,157.2,203,156.5z"/>
	<polygon class="st0" points="210.7,148.5 216,151 221.3,148.5 222.6,142.8 218.9,138.2 213,138.2 209.4,142.7 	"/>
	<path class="st0" d="M205.1,128.3c0.5,0.4,1.2,0.6,1.9,0.6c1.7,0,3.2-1.4,3.2-3.1l0.1,0l1.1-19.3c-1.3,0.2-2.6,0.4-3.9,0.7
		c-7.2,1.6-13.4,5.2-18.2,9.9L205.1,128.3L205.1,128.3z"/>
	<path class="st0" d="M234,137.2c-0.5,0.4-0.9,1-1,1.7c-0.4,1.7,0.6,3.4,2.3,3.8l0,0.1l18.6,5.4c0.4-4,0.2-8.2-0.8-12.3
		c-1-4.2-2.6-8.1-4.7-11.6L234,137.2L234,137.2z"/>
	<path class="st0" d="M196.7,142.9L196.7,142.9c0.7-0.2,1.3-0.6,1.7-1.2c1.1-1.4,0.9-3.3-0.4-4.5l0-0.1l-14.4-12.9
		c-4.3,7-6.3,15.3-5.4,23.9L196.7,142.9z"/>
	<path class="st0" d="M132,292.1c4.6,0,7.3-1.6,9.7-4.2l-3.3-3.4c-1.9,1.7-3.5,2.8-6.2,2.8c-4.1,0-6.9-3.4-6.9-7.4v-0.1
		c0-4.1,2.9-7.4,6.9-7.4c2.4,0,4.2,1,6.1,2.7l3.3-3.8c-2.2-2.2-4.9-3.7-9.3-3.7c-7.3,0-12.4,5.5-12.4,12.3v0.1
		C119.9,286.8,125,292.1,132,292.1z"/>
	<polygon class="st0" points="164.8,287.1 151.9,287.1 151.9,282.1 163.1,282.1 163.1,277.5 151.9,277.5 151.9,272.7 164.6,272.7 
		164.6,268 146.8,268 146.8,291.7 164.8,291.7 	"/>
	<path class="st0" d="M175.5,284.2h4.1l5.1,7.6h6.1l-5.8-8.5c3-1.1,5.1-3.5,5.1-7.3v-0.1c0-2.2-0.7-4.1-2-5.4
		c-1.6-1.6-3.9-2.4-6.9-2.4h-10.8v23.7h5.2V284.2z M175.5,272.7h5.2c2.5,0,4.1,1.2,4.1,3.4v0.1c0,2-1.5,3.4-4,3.4h-5.3V272.7z"/>
	<polygon class="st0" points="201.1,291.7 206.3,291.7 206.3,272.8 213.6,272.8 213.6,268 193.9,268 193.9,272.8 201.1,272.8 	"/>
	<rect x="218.6" y="268" class="st0" width="5.2" height="23.7"/>
	<polygon class="st0" points="235.8,282.6 247.1,282.6 247.1,277.8 235.8,277.8 235.8,272.8 248.6,272.8 248.6,268 230.6,268 
		230.6,291.7 235.8,291.7 	"/>
	<rect x="253.9" y="268" class="st0" width="5.2" height="23.7"/>
	<polygon class="st0" points="283.9,287.1 271,287.1 271,282.1 282.2,282.1 282.2,277.5 271,277.5 271,272.7 283.7,272.7 283.7,268 
		265.8,268 265.8,291.7 283.9,291.7 	"/>
	<path class="st0" d="M311.2,279.9L311.2,279.9c0-6.7-5.1-11.9-12.6-11.9h-9.2v23.7h9.2C306,291.7,311.2,286.6,311.2,279.9z
		 M294.6,272.7h4c4.3,0,7.1,2.9,7.1,7.1v0.1c0,4.2-2.9,7.1-7.1,7.1h-4V272.7z"/>
	<path class="st0" d="M127.2,304.5c-2.3-0.6-2.8-0.9-2.8-1.7v0c0-0.6,0.6-1.1,1.7-1.1c1.1,0,2.2,0.5,3.4,1.3l1.5-2.2
		c-1.3-1.1-2.9-1.7-4.8-1.7c-2.7,0-4.6,1.6-4.6,3.9v0c0,2.6,1.7,3.3,4.3,4c2.2,0.6,2.6,0.9,2.6,1.7v0c0,0.8-0.7,1.2-1.9,1.2
		c-1.5,0-2.7-0.6-3.9-1.6l-1.7,2c1.6,1.4,3.6,2.1,5.5,2.1c2.8,0,4.8-1.5,4.8-4v0C131.3,306.2,129.8,305.2,127.2,304.5z"/>
	<polygon class="st0" points="143.6,301.8 143.6,299.3 133.8,299.3 133.8,312.3 143.7,312.3 143.7,309.8 136.6,309.8 136.6,307 
		142.8,307 142.8,304.5 136.6,304.5 136.6,301.8 	"/>
	<path class="st0" d="M149.1,308.2h2.3l2.8,4.2h3.4l-3.2-4.7c1.7-0.6,2.8-1.9,2.8-4v0c0-1.2-0.4-2.3-1.1-3c-0.9-0.9-2.1-1.3-3.8-1.3
		h-6v13h2.9V308.2z M149.1,301.9h2.8c1.4,0,2.3,0.6,2.3,1.9v0c0,1.1-0.8,1.8-2.2,1.8h-2.9V301.9z"/>
	<polygon class="st0" points="158.6,299.3 163.9,312.4 166.4,312.4 171.7,299.3 168.6,299.3 165.2,308.5 161.8,299.3 	"/>
	<rect x="173.8" y="299.3" class="st0" width="2.9" height="13"/>
	<path class="st0" d="M186.1,301.7c1.3,0,2.3,0.6,3.3,1.5l1.8-2.1c-1.2-1.2-2.7-2-5.1-2c-4,0-6.8,3-6.8,6.7v0c0,3.7,2.8,6.7,6.7,6.7
		c2.5,0,4-0.9,5.3-2.3l-1.8-1.8c-1,0.9-1.9,1.5-3.4,1.5c-2.2,0-3.8-1.9-3.8-4.1v0C182.4,303.5,183.9,301.7,186.1,301.7z"/>
	<polygon class="st0" points="203.6,309.8 196.5,309.8 196.5,307 202.7,307 202.7,304.5 196.5,304.5 196.5,301.8 203.5,301.8 
		203.5,299.3 193.7,299.3 193.7,312.3 203.6,312.3 	"/>
	<path class="st0" d="M211.7,312.3h2.9v-3.9h2.2c2.9,0,5.3-1.6,5.3-4.6v0c0-2.7-1.9-4.5-5-4.5h-5.3V312.3z M214.6,301.9h2.2
		c1.4,0,2.3,0.7,2.3,2v0c0,1.1-0.8,2-2.3,2h-2.3V301.9z"/>
	<path class="st0" d="M227,308.2h2.3l2.8,4.2h3.4l-3.2-4.7c1.7-0.6,2.8-1.9,2.8-4v0c0-1.2-0.4-2.3-1.1-3c-0.9-0.9-2.1-1.3-3.8-1.3
		h-6v13h2.9V308.2z M227,301.9h2.8c1.4,0,2.3,0.6,2.3,1.9v0c0,1.1-0.8,1.8-2.2,1.8H227V301.9z"/>
	<path class="st0" d="M237,305.8L237,305.8c0,3.7,2.9,6.7,6.9,6.7c4,0,6.9-3,6.9-6.7v0c0-3.7-2.9-6.7-6.9-6.7
		C240,299.1,237,302.1,237,305.8z M247.9,305.8L247.9,305.8c0,2.3-1.6,4.1-3.9,4.1c-2.3,0-3.9-1.9-3.9-4.1v0c0-2.2,1.6-4.1,3.9-4.1
		C246.3,301.7,247.9,303.6,247.9,305.8z"/>
	<polygon class="st0" points="260.1,312.4 265.4,299.3 262.3,299.3 258.9,308.5 255.5,299.3 252.3,299.3 257.6,312.4 	"/>
	<rect x="267.5" y="299.3" class="st0" width="2.9" height="13"/>
	<path class="st0" d="M278.7,299.3h-5.1v13h5.1c4.1,0,6.9-2.8,6.9-6.5v0C285.7,302.1,282.8,299.3,278.7,299.3z M282.7,305.8
		c0,2.3-1.6,3.9-3.9,3.9h-2.2v-7.9h2.2C281.1,301.9,282.7,303.5,282.7,305.8L282.7,305.8z"/>
	<polygon class="st0" points="298.1,309.8 291.1,309.8 291.1,307 297.2,307 297.2,304.5 291.1,304.5 291.1,301.8 298,301.8 
		298,299.3 288.2,299.3 288.2,312.3 298.1,312.3 	"/>
	<path class="st0" d="M311.5,303.6L311.5,303.6c0-1.3-0.4-2.3-1.1-3c-0.9-0.9-2.1-1.3-3.8-1.3h-6v13h2.9v-4.2h2.3l2.8,4.2h3.4
		l-3.2-4.7C310.4,307.1,311.5,305.7,311.5,303.6z M308.6,303.8c0,1.1-0.8,1.8-2.2,1.8h-2.9v-3.7h2.8
		C307.8,301.9,308.6,302.5,308.6,303.8L308.6,303.8z"/>
</g>
</svg>
