<svg xmlns="http://www.w3.org/2000/svg" role="img" viewBox="-4.73 0.77 440.96 428.46"><style>svg {enable-background:new 0 0 432 432}</style><style>.st0{fill:#fff}</style><path d="M216 27.5l155.6 74.3 38.5 167-107.7 134H129.6h172.8l107.7-134-38.5-167z" class="st0"/><path d="M427.3 259.8l-36.4-158.2c-1.9-8.2-7.7-15.3-15.3-19L228.2 12.2c-4.2-2-9-3-13.7-2.7-3.7.2-7.4 1.1-10.8 2.7L56.3 82.6c-7.6 3.6-13.4 10.8-15.3 19L4.7 259.8c-1.7 7.3-.3 15.2 3.8 21.5.5.8 1 1.5 1.6 2.2l102 126.9c5.3 6.5 13.6 10.5 22 10.5h163.6c8.4 0 16.8-4 22-10.5l102-126.9c5.4-6.6 7.5-15.6 5.6-23.7zm-17.2 9l-107.7 134H129.7L21.9 268.9l29.6-128.6 8.8-38.4L216 27.5l155.6 74.3 38.5 167z" class="st0"/><path d="M219 159.9c-.3-.6-.9-1.1-1.6-1.5-.5-.3-1.1-.4-1.6-.3-1.2 0-2.3.7-2.9 1.8l-10 18c6.9 2.3 14.5 2.9 22.1 1.1 1.4-.3 2.7-.7 4-1.1l-10-18zm3.1-40.3c0 .7.3 1.4.8 2 1.2 1.5 3.3 1.7 4.7.6h.1l16.8-11.9c-6.3-6.2-14.6-10.2-23.5-11.3l1.1 20.6zm-30.8 113.2c-.3-.4-.7-.7-1.2-1-.5-.3-1.1-.4-1.8-.4s-1.3.1-1.8.4c-.5.2-.9.6-1.3 1-.3.4-.6.9-.8 1.4-.2.5-.3 1.1-.4 1.6h8.4c0-.6-.1-1.1-.3-1.6-.3-.6-.5-1-.8-1.4zm42.6-83.1c-.3 0-.5-.1-.8-.1-.4 0-.9.1-1.3.3-1.7.8-2.4 2.8-1.7 4.5l7.9 19.2c7.6-4.9 13.4-12.1 16.4-20.5l-20.5-3.4zm68.5 84.5c-.2-.5-.4-1-.7-1.4-.3-.4-.7-.7-1.2-1-.5-.3-1.1-.4-1.8-.4s-1.3.1-1.8.4c-.5.2-.9.6-1.3 1s-.6.9-.8 1.4c-.2.5-.3 1.1-.4 1.6h8.4c-.1-.6-.2-1.1-.4-1.6z" class="st0"/><path d="M366.4 106L216 34.2 65.6 106.1l-8.2 35.6-28.9 125.7 104.1 129.4h166.9l104-129.4L366.4 106zm-44.1 135.8c-.6-.4-1.6-.8-2.8-1.3-1-.4-1.9-.8-2.7-1.2-.8-.4-1.5-.9-2.1-1.5-.6-.6-1-1.2-1.3-2-.3-.8-.5-1.7-.5-2.8 0-2.2.8-3.9 2.3-5.1 1.6-1.3 3.7-1.9 6.4-1.9 1.4 0 2.7.1 3.9.4 1.2.2 2.2.5 3 .8l-1.1 5.1c-.7-.3-1.5-.5-2.4-.7-.9-.2-1.8-.3-2.9-.3-2 0-3 .6-3 1.7 0 .3 0 .5.1.7.1.2.3.4.5.6.3.2.6.4 1 .6.4.2 1 .5 1.7.7 1.4.5 2.5 1.1 3.4 1.6.9.5 1.6 1.1 2.1 1.7.5.6.9 1.3 1.1 2 .2.7.3 1.6.3 2.5 0 2.3-.8 4-2.5 5.2-1.7 1.2-4 1.7-7 1.7-2 0-3.6-.2-4.9-.5-1.3-.4-2.2-.6-2.7-.9l1.1-5.3c1.1.4 2.2.8 3.3 1s2.2.4 3.4.4c1.2 0 2-.1 2.5-.3.5-.2.7-.7.7-1.4.1-.6-.2-1.1-.9-1.5zm-33.5-8.9c.6-1.5 1.4-2.8 2.4-3.8s2.1-1.8 3.4-2.3c1.3-.5 2.6-.8 4-.8 3.2 0 5.7 1 7.5 3 1.8 2 2.8 4.9 2.8 8.8v1.2c0 .5-.1.9-.1 1.2h-14.3c.1 1.3.7 2.4 1.8 3.2 1.1.8 2.5 1.2 4.3 1.2 1.2 0 2.3-.1 3.4-.3 1.1-.2 2-.5 2.7-.8l.8 5.3c-.3.2-.8.4-1.4.5s-1.2.3-1.9.5c-.7.1-1.4.2-2.2.3-.8.1-1.6.1-2.4.1-2 0-3.8-.3-5.2-.9-1.5-.6-2.7-1.5-3.7-2.5-1-1.1-1.7-2.3-2.2-3.8-.5-1.5-.7-3-.7-4.7 0-2.1.4-3.9 1-5.4zm-4.2-6.3v5.4H277v8.1c0 1.4.2 2.5.7 3.3.5.8 1.4 1.2 2.8 1.2.7 0 1.4-.1 2.1-.2s1.4-.3 2-.5l.9 5.1c-.8.3-1.6.6-2.5.8-.9.2-2.1.4-3.4.4-1.7 0-3.2-.2-4.3-.7-1.1-.5-2-1.2-2.7-2-.7-.9-1.2-1.9-1.4-3.1-.3-1.2-.4-2.6-.4-4.1v-19.4l6.3-1.1v6.8h7.5zm-134.3-76.2c.1 0 .1 0 0 0 .4-.1.8-.2 1.1-.3 1.4-.3 2.5-.2 3.8-.3 2.7-.3 5-.5 7-1.2.6-.3 1.3-1.1 1.7-1.7l1.6-.5c-1.8-12.7 1.3-25.3 8-35.4l-1.3-1.1c-.1-.5-.2-1.6-.8-2.3-1.5-1.4-3.5-2.7-5.8-4.1-1.1-.7-2.1-1.1-3.3-1.9-.2-.2-.6-.4-.8-.7h-.1c-1.9-1.5-2.3-4.1-1-5.8.8-1 1.9-1.4 3.1-1.4.9 0 1.9.4 2.7 1 .3.2.6.5.9.7 1.1.9 1.7 1.8 2.6 2.7 1.9 2 3.5 3.6 5.3 4.8.9.5 1.6.3 2.3.2.2.2 1 .7 1.4 1 6.7-7.1 15.4-12.3 25.6-14.6 2.4-.5 4.7-.9 7.1-1.1l.1-1.7c.5-.5 1.1-1.2 1.3-2 .2-2.1-.1-4.4-.4-7.1-.2-1.3-.5-2.3-.5-3.7v-1.1c0-2.4 1.8-4.4 3.9-4.4 2.2 0 3.9 2 3.9 4.4v1.1c-.1 1.4-.4 2.5-.5 3.7-.3 2.7-.6 5-.4 7.1.2 1.1.8 1.5 1.3 2 0 .3.1 1.2.1 1.8 12.5 1.1 24.1 6.8 32.6 15.7l1.5-1.1c.5 0 1.6.2 2.4-.3 1.8-1.2 3.4-2.8 5.3-4.8.9-.9 1.5-1.8 2.6-2.7.2-.2.6-.5.9-.7 1.9-1.5 4.5-1.3 5.9.4 1.4 1.7.9 4.3-1 5.8-.3.2-.6.5-.9.7-1.1.8-2.1 1.2-3.3 1.9-2.3 1.4-4.3 2.7-5.8 4.1-.7.8-.7 1.5-.7 2.2-.2.2-1 .9-1.4 1.2 3.4 5 5.9 10.7 7.3 17 1.4 6.2 1.6 12.4.8 18.3l1.6.5c.3.4.9 1.4 1.7 1.7 2 .6 4.3.9 7 1.2 1.3.1 2.4 0 3.8.3.3.1.8.2 1.1.3 2.3.6 3.8 2.7 3.3 4.8s-2.7 3.4-5.1 2.9h-.2c-.3-.1-.7-.1-1-.2-1.3-.4-2.3-.9-3.5-1.4-2.6-.9-4.7-1.7-6.8-2-1.1-.1-1.6.4-2.2.8-.3-.1-1.2-.2-1.7-.3-3.8 11.8-11.8 22-22.6 28.4.2.5.5 1.4.7 1.6-.2.7-.6 1.3-.3 2.3.8 2 2 3.9 3.5 6.2.7 1.1 1.5 1.9 2.1 3.1.2.3.4.7.5 1.1 1 2.2.3 4.6-1.7 5.6-2 .9-4.4-.1-5.4-2.2-.1-.3-.4-.7-.5-1-.6-1.3-.7-2.4-1.1-3.6-.9-2.6-1.6-4.8-2.7-6.6-.6-.9-1.3-1-2-1.2-.1-.2-.6-1.1-.8-1.5-2.2.8-4.4 1.5-6.7 2-10.2 2.3-20.4 1.4-29.5-2.1l-.9 1.6c-.7.2-1.3.4-1.7.8-1.4 1.7-2 4.4-3 7-.4 1.2-.6 2.3-1.1 3.6-.1.3-.3.7-.5 1-1 2.2-3.5 3.2-5.4 2.2-1.9-.9-2.7-3.4-1.7-5.6.1-.3.3-.8.5-1.1.6-1.2 1.4-2.1 2.1-3.1 1.5-2.3 2.8-4.4 3.6-6.4.2-.7-.1-1.6-.3-2.2l.7-1.7c-10.4-6.2-18.7-16-22.6-28.2l-1.7.3c-.5-.3-1.4-.9-2.3-.8-2.1.3-4.2 1.1-6.8 2-1.2.5-2.2 1-3.5 1.4-.3.1-.7.2-1 .2h-.2c-2.3.5-4.6-.8-5.1-2.9-.5-1.9 1-4 3.3-4.6zm103.1 93c1.1.8 2.5 1.2 4.3 1.2 1.2 0 2.3-.1 3.4-.3 1.1-.2 2-.5 2.7-.8l.8 5.3c-.3.2-.8.4-1.4.5-.6.2-1.2.3-1.9.5-.7.1-1.4.2-2.2.3-.8.1-1.6.1-2.4.1-2 0-3.8-.3-5.2-.9-1.5-.6-2.7-1.5-3.7-2.5-1-1.1-1.7-2.3-2.2-3.8-.5-1.5-.7-3-.7-4.7 0-2 .3-3.8.9-5.4.6-1.5 1.4-2.8 2.4-3.8s2.1-1.8 3.4-2.3c1.3-.5 2.6-.8 4-.8 3.2 0 5.7 1 7.5 3 1.8 2 2.8 4.9 2.8 8.8v1.2c0 .5-.1.9-.1 1.2h-14.3c.2 1.4.8 2.5 1.9 3.2zm-20.1-10.5c-.5-.9-1.5-1.3-3-1.3-.5 0-.9 0-1.4.1-.5 0-1 .1-1.4.2v17.8h-6.3v-22.3c1.1-.3 2.5-.6 4.2-.9 1.7-.3 3.5-.4 5.3-.4 1.9 0 3.5.3 4.7.8 1.3.5 2.3 1.2 3 2.2.7.9 1.3 2 1.6 3.3.3 1.3.5 2.7.5 4.3v13h-6.3v-12.2c-.1-2.2-.4-3.7-.9-4.6zm-15.6-5.9l-1.1 5.4c-.6-.1-1.2-.3-2-.5s-1.6-.2-2.5-.2c-.4 0-.9 0-1.4.1-.6.1-1 .2-1.3.2v17.6h-6.3v-21.8c1.1-.4 2.5-.8 4-1.2 1.5-.4 3.3-.5 5.2-.5.3 0 .7 0 1.2.1.5 0 1 .1 1.4.2.5.1 1 .2 1.4.3.7 0 1.1.1 1.4.3zm-32 16.4c1.1.8 2.5 1.2 4.3 1.2 1.2 0 2.3-.1 3.4-.3 1.1-.2 2-.5 2.7-.8l.8 5.3c-.3.2-.8.4-1.4.5-.6.2-1.2.3-1.9.5-.7.1-1.4.2-2.2.3-.8.1-1.6.1-2.4.1-2 0-3.8-.3-5.2-.9s-2.7-1.5-3.7-2.5c-1-1.1-1.7-2.3-2.2-3.8-.5-1.5-.7-3-.7-4.7 0-2 .3-3.8.9-5.4.6-1.5 1.4-2.8 2.4-3.8s2.1-1.8 3.4-2.3c1.3-.5 2.6-.8 4-.8 3.2 0 5.7 1 7.5 3 1.8 2 2.8 4.9 2.8 8.8v1.2c0 .5-.1.9-.1 1.2h-14.3c.2 1.4.8 2.5 1.9 3.2zm-24.3-17c.8-.2 1.6-.3 2.5-.3 1.6 0 3 .3 4.2.9 1.2.6 2.2 1.4 3.1 2.4.8 1.1 1.4 2.3 1.9 3.8.4 1.5.6 3.1.6 4.9 0 1.8-.3 3.5-.8 5s-1.3 2.8-2.3 3.8c-1 1.1-2.2 1.9-3.6 2.4s-3.1.9-4.9.9c-.8 0-1.6 0-2.4-.1-.8-.1-1.7-.2-2.5-.3-.8-.1-1.6-.3-2.3-.4-.7-.2-1.4-.3-2-.5v-32.2l6.3-1.1v11.5c.7-.3 1.4-.6 2.2-.7zm-33.7.2h6.3v12c0 2.1.3 3.6.8 4.6.5.9 1.5 1.4 3 1.4.5 0 .9 0 1.4-.1.5 0 1-.1 1.4-.2v-17.8h6.3v22.3c-1.1.3-2.5.6-4.2.9-1.7.3-3.5.4-5.3.4-1.9 0-3.5-.3-4.7-.8-1.3-.5-2.3-1.3-3-2.2-.7-.9-1.3-2.1-1.6-3.4-.3-1.3-.5-2.8-.5-4.3v-12.8zm-24-9.9l6.3-1.1v19.2c.6-.7 1.3-1.4 1.9-2.2.7-.8 1.3-1.5 1.9-2.2l1.8-2.1c.6-.7 1-1.2 1.4-1.7h7.5c-1.5 1.8-3 3.5-4.4 5.1-1.4 1.6-3 3.3-4.7 5 .8.8 1.7 1.7 2.6 2.8.9 1.1 1.8 2.2 2.6 3.4.8 1.2 1.6 2.3 2.3 3.5.7 1.2 1.3 2.2 1.8 3.2h-7.3c-.5-.8-1-1.6-1.5-2.5-.6-.9-1.2-1.8-1.8-2.8-.6-.9-1.3-1.8-2.1-2.7-.7-.8-1.4-1.6-2.1-2.2v10.1h-6.3v-32.8zm226.5 116.1H101.8v-74.1h228.4v74.1z" class="st0"/><path d="M258.9 232.8c-.3-.4-.7-.7-1.2-1s-1.1-.4-1.8-.4-1.3.1-1.8.4c-.5.2-.9.6-1.3 1s-.6.9-.8 1.4c-.2.5-.3 1.1-.4 1.6h8.4c0-.6-.1-1.1-.3-1.6-.2-.6-.5-1-.8-1.4zm-99.7 11.6c.3.1.7.1 1.2.2.5 0 1 .1 1.6.1 1.7 0 3-.6 3.9-1.8.9-1.2 1.3-2.8 1.3-4.9 0-4.2-1.5-6.3-4.5-6.3-.7 0-1.3.1-1.9.3-.6.2-1.2.4-1.5.7v11.7zm42.9-92c-.4-1.6-1.8-2.7-3.3-2.7-.2 0-.5 0-.7.1l-20.3 3.4c3.1 8.6 9 15.7 16.3 20.4l7.8-19-.1-.1c.4-.6.5-1.3.3-2.1zm8.2-8.5l5.7 2.7 5.7-2.7 1.4-6.1-3.9-4.9h-6.4l-3.9 4.9zm-6-21.6c.6.4 1.3.7 2 .7 1.9 0 3.4-1.5 3.5-3.3h.1l1.2-20.6c-1.4.2-2.8.4-4.2.7-7.6 1.7-14.3 5.5-19.5 10.6l16.9 11.9zm31 9.5c-.5.5-.9 1.1-1.1 1.8-.4 1.8.7 3.6 2.5 4.1v.1l19.8 5.7c.4-4.3.2-8.7-.9-13.2-1-4.5-2.8-8.6-5.1-12.3l-15.2 13.8zm-40 6.1c.7-.3 1.3-.7 1.8-1.2 1.2-1.5 1-3.6-.4-4.8v-.1L181.3 118c-4.6 7.4-6.7 16.4-5.7 25.6l19.7-5.7zm-69 159.5c4.9 0 7.8-1.7 10.4-4.5l-3.5-3.6c-2 1.8-3.8 3-6.7 3-4.3 0-7.3-3.6-7.3-8v-.1c0-4.3 3.1-7.9 7.3-7.9 2.5 0 4.5 1.1 6.5 2.9l3.5-4.1c-2.4-2.3-5.2-3.9-10-3.9-7.8 0-13.2 5.9-13.2 13.1v.1c0 7.3 5.5 13 13 13zm35-5.4h-13.8v-5.3h12v-4.9h-12v-5.2h13.6v-4.9H142V297h19.3zm11.4-3.1h4.4l5.4 8.1h6.5l-6.2-9c3.2-1.2 5.4-3.8 5.4-7.9v-.1c0-2.4-.8-4.4-2.2-5.8-1.7-1.7-4.2-2.6-7.4-2.6H167V297h5.6v-8.1zm0-12.2h5.5c2.7 0 4.4 1.2 4.4 3.6v.1c0 2.1-1.6 3.6-4.3 3.6h-5.6v-7.3zm27.4 20.3h5.6v-20.2h7.7v-5.1h-21v5.1h7.7zm18.7-25.3h5.6V297h-5.6zm18.4 15.5h12v-5.1h-12v-5.4h13.7v-5h-19.3V297h5.6zm19.3-15.5h5.6V297h-5.6zm32 20.3h-13.7v-5.3h11.9v-4.9h-11.9v-5.2h13.6v-4.9h-19.1V297h19.2zm29.2-7.7c0-7.2-5.5-12.7-13.5-12.7h-9.9V297h9.9c8 0 13.5-5.6 13.5-12.7zm-17.8-7.6h4.3c4.6 0 7.6 3.1 7.6 7.6v.1c0 4.5-3.1 7.6-7.6 7.6h-4.3v-15.3zm-178.8 33.9c-2.4-.6-3-.9-3-1.8 0-.7.6-1.2 1.8-1.2 1.2 0 2.4.5 3.6 1.4l1.6-2.3c-1.4-1.1-3.1-1.8-5.2-1.8-2.8 0-4.9 1.7-4.9 4.2 0 2.8 1.8 3.5 4.6 4.3 2.3.6 2.8 1 2.8 1.8s-.8 1.3-2 1.3c-1.6 0-2.9-.7-4.2-1.7l-1.8 2.2c1.7 1.5 3.8 2.2 5.9 2.2 3 0 5.1-1.6 5.1-4.3.1-2.5-1.5-3.5-4.3-4.3zm17.6-2.8v-2.7h-10.5V319h10.6v-2.7h-7.6v-3h6.6v-2.7h-6.6v-2.8zm5.9 6.7h2.4l3 4.5h3.6l-3.4-5c1.8-.7 3-2.1 3-4.3 0-1.3-.4-2.4-1.2-3.2-.9-.9-2.3-1.4-4.1-1.4h-6.4V319h3.1v-4.5zm0-6.7h3c1.5 0 2.4.7 2.4 2 0 1.2-.9 2-2.3 2h-3.1v-4zm10.1-2.7l5.6 14h2.7l5.6-14h-3.3l-3.6 9.8-3.6-9.8zm16.2 0h3.1V319h-3.1zm13.2 2.5c1.4 0 2.5.6 3.6 1.6l1.9-2.2c-1.3-1.3-2.9-2.1-5.5-2.1-4.3 0-7.3 3.2-7.3 7.2s3 7.2 7.1 7.2c2.7 0 4.3-1 5.7-2.5l-1.9-2c-1.1 1-2.1 1.6-3.7 1.6-2.4 0-4-2-4-4.4.1-2.4 1.7-4.4 4.1-4.4zm18.6 8.7h-7.5v-3h6.6v-2.7h-6.6v-2.8h7.4v-2.7h-10.5V319h10.6zm8.7 2.7h3.1v-4.2h2.3c3.1 0 5.6-1.7 5.6-4.9 0-2.8-2-4.8-5.3-4.8h-5.7V319zm3.1-11.2h2.4c1.5 0 2.5.7 2.5 2.1 0 1.2-.9 2.1-2.4 2.1h-2.4v-4.2zm13.3 6.7h2.4l3 4.5h3.6l-3.4-5c1.8-.7 3-2.1 3-4.3 0-1.3-.4-2.4-1.2-3.2-.9-.9-2.3-1.4-4.1-1.4h-6.4V319h3.1v-4.5zm0-6.7h3c1.5 0 2.4.7 2.4 2 0 1.2-.9 2-2.3 2h-3.1v-4zm10.7 4.2c0 4 3.1 7.2 7.4 7.2 4.3 0 7.4-3.2 7.4-7.2s-3.1-7.2-7.4-7.2c-4.3 0-7.4 3.3-7.4 7.2zm11.6 0c0 2.4-1.7 4.4-4.2 4.4s-4.2-2-4.2-4.4c0-2.4 1.7-4.3 4.2-4.3 2.4-.1 4.2 1.9 4.2 4.3zm13 7.1l5.7-14h-3.3l-3.7 9.8-3.6-9.8h-3.4l5.6 14zm8-14h3.1V319h-3.1zm11.9 0h-5.4V319h5.4c4.4 0 7.4-3 7.4-7 0-3.9-3-6.9-7.4-6.9zm4.2 7c0 2.5-1.7 4.2-4.2 4.2h-2.4v-8.4h2.4c2.5-.1 4.2 1.6 4.2 4.2zm16.6 4.2h-7.6v-3h6.6v-2.7h-6.6v-2.8h7.5v-2.7h-10.5V319h10.6zm14.3-6.6c0-1.4-.4-2.4-1.2-3.2-.9-.9-2.3-1.4-4.1-1.4h-6.4V319h3.1v-4.5h2.4l3 4.5h3.6l-3.4-5c1.8-.7 3-2.1 3-4.3zm-3.1.1c0 1.2-.9 2-2.3 2h-3.1v-4h3c1.5 0 2.4.7 2.4 2z" class="st0"/></svg>