<svg id="Layer_1" data-name="Layer 1" xmlns="http://www.w3.org/2000/svg" viewBox="0 0 449 319"><defs><style>.cls-1{fill:#0d0d0c;}.cls-2{fill:#e1ba35;}.cls-3{fill:#53524f;}</style></defs><path class="cls-1" d="M237.46951,150.88677c.91575.37322,1.8445.71784,2.74465,1.12543,2.07685.94041,3.5374,2.42956,3.58631,4.815a5.85382,5.85382,0,0,1-3.38571,5.45441c-3.67071,2.05273-7.78727,2.422-11.78643,3.24767-4.28576.88487-8.58383,1.71767-12.84514,2.70828-1.166.27107-2.68636.70732-2.60966,2.30611.06913,1.44108,1.38012,2.05549,2.599,2.46451,4.03439,1.35387,8.10849.63166,12.18125.17448.93673-.10516,2.184-.71427,2.77868.22451.61827.97613-.0331,2.18259-.433,3.231a3.08748,3.08748,0,0,1-.68261,1.06526c-3.93407,3.90191-8.85074,3.13487-13.59057,2.62333-4.14451-.44729-7.59216-2.2573-9.09108-6.54767-1.67959-4.8076-.45922-8.21544,3.9434-10.78367,3.34528-1.95144,7.09942-2.71442,10.83949-3.47449,1.8884-.38377,3.78476-.72828,5.87216-1.1278-1.08387-1.89924-2.48948-1.17666-3.59183-1.20584-5.51021-.14582-11.05781.06729-16.46683-1.17241-3.529-.80885-7.037-2.1259-7.27627-6.52-.243-4.46364,2.85966-6.53561,6.57311-7.71181,6.54461-2.073,13.41748-1.80534,20.149-2.531a66.43123,66.43123,0,0,0,12.83744-2.62715,6.17663,6.17663,0,0,0,4.71737-5.50329c-6.41137,2.47386-12.537,4.40358-18.95418,5.08335a54.11252,54.11252,0,0,1-25.4416-2.9299c-3.36608-1.29075-6.65937-3.04843-6.80785-7.253-.14467-4.09662,2.83731-6.29381,5.99305-8.03889,4.515-2.49673,9.49426-3.55662,14.57037-4.197q5.49888-.13356,10.99774-.26708a36.75415,36.75415,0,0,1,17.82973,4.59957c4.84678,2.75911,6.198,2.35186,8.1752-2.98764a14.24181,14.24181,0,0,0,.15081-9.54478c-.6564-2.05713-1.40926-2.28186-3.236-1.0046-6.898,4.82321-14.75856,6.83213-23.05009,7.41847-3.68174-.06037-7.38027-.52427-11.01867.45812-6.10138-.18859-12.14015-.86193-17.67581-3.61045-2.049-1.01737-3.04493-.71739-4.46515,1.03559-14.31988,17.675-31.99447,31.26791-51.855,42.13453a43.294,43.294,0,0,1-15.03083,5.43542c-3.48643.46131-6.95034.08385-9.07779-3.14476-1.98095-3.00635-.65129-6.03226.89933-8.77214,3.85931-6.8193,9.7649-11.76473,15.64726-16.71317q7.5436-4.71613,15.08715-9.43226c7.483-3.25857,14.39584-8.52388,23.301-6.93865a5.307,5.307,0,0,1-2.17469,2.0796c-9.54436,5.22238-18.99021,10.61471-27.98938,16.74048-6.07327,4.1341-12.205,8.243-16.78767,14.14-.99317,1.278-2.71709,2.86433-1.56748,4.44873,1.11875,1.54191,3.2149.494,4.75531.00837,7.20275-2.27063,13.70688-5.991,19.97033-10.11806,14.44723-9.5194,27.94265-20.18756,39.2587-33.38234,1.27982-1.49231,3.31344-2.78358,2.66631-5.39495a8.71126,8.71126,0,0,1,3.11388-9.10821c2.55162-2.21392,1.48791-3.87342-.53558-5.475a12.27394,12.27394,0,0,0-7.14263-2.30493,39.711,39.711,0,0,0-14.1908,2.04275c-23.70119,7.3084-44.61757,19.64874-63.58379,35.45281a65.027,65.027,0,0,0-11.84707,12.64715c-.69215.991-2.12278,2.02941-1.17678,3.286.8957,1.1898,2.41344.28587,3.56082-.0505a53.81932,53.81932,0,0,0,8.00043-2.73,270.70032,270.70032,0,0,0,64.4514-43.37959c.83133-.74393,1.29-2.734,2.80908-1.755,1.40726.907.73271,2.55651.18368,3.85747a26.559,26.559,0,0,1-5.71668,7.81815c-6.1815,6.46527-13.43546,11.64067-20.549,16.98252q-7.04664,4.604-14.09331,9.208c-6.82891,3.28566-13.10469,7.613-20.11078,10.57767-5.46567,2.31285-10.90042,4.68835-16.799,5.679-3.25068.54593-6.76583,1.09642-8.91006-2.11521-2.08494-3.12286-.58087-6.3181,1.0944-9.15778,4.97687-8.4362,12.2656-14.715,19.819-20.68579a198.71938,198.71938,0,0,1,30.17951-19.568,34.11282,34.11282,0,0,0,3.41218-2.36109c1.12109.42455,1.772-.3125,2.44686-.99048l.35561-.09673a3.41322,3.41322,0,0,0,2.49468-1.29876c9.58443-3.742,18.92649-8.20146,29.21511-9.85737,5.50513-.886,10.966-1.031,16.33535.83326,2.31985.80547,4.90747,1.79513,5.84539,3.9429,2.06279,4.72385,5.29761,4.42618,9.1564,3.07688.92705-.32414,1.92058-.45808,3.53231-.82864-6.03235-3.77666-9.91124-8.19107-6.00748-15.199-.58242-.25194-.88409-.50323-1.0407-.43264-4.70989,2.12317-4.97682,1.97266-5.4118-3.19393a18.55245,18.55245,0,0,1,5.4985-15.45513c2.08151-2.04444,2.23693-3.91375,1.05894-6.351-3.2477-6.71924-8.62548-11.44612-14.48391-15.74447-1.03734-.76111-1.97046-.44412-3.1368-.032a11.91033,11.91033,0,0,1-10.239-.743c-2.94473-1.69536-4.82285-4.174-3.42763-7.7152,1.45879-3.70249,4.64039-3.393,7.52841-2.26948,12.3896,4.81991,22.395,12.531,28.42708,24.65893.99032,1.99112,1.5552,2.59651,3.8849,1.79858a32.10754,32.10754,0,0,1,22.021.13308c2.15617.79869,2.71419.26322,3.59652-1.61122C243.6065,31.231,252.358,23.47421,263.49353,18.381c3.11973-1.4269,6.7952-3.13634,9.789.1873,2.05619,2.28271.88679,4.79681-.77312,6.93833-2.94944,3.80519-8.0006,5.99287-11.06951,3.89593-3.3665-2.30031-5.27855-.66626-7.54574,1.20461-4.2867,3.53736-8.14862,7.431-10.51648,12.57243-1.25772,2.73109-1.50573,5.01584.9588,7.61582,4.56941,4.82057,6.36909,10.94811,6.2073,17.54465-.17366,7.07946-3.90711,11.89243-10.12989,14.93661-1.3502.66053-2.72885,1.26275-4.62318,2.13536,3.60921,1.47627,6.69692,2.73924,9.78837,4.00372,5.10085-11.17449,8.60831-13.29167,21.234-12.38619,10.74712.77072,20.58238,4.75781,30.32356,8.9878,2.71616,1.17947,5.39817,2.43735,8.09588,3.65927a3.98172,3.98172,0,0,0,2.545,1.304c13.733,7.82958,27.234,16.00168,39.01216,26.6855,4.92424,4.46671,9.6414,9.13526,12.92842,15.00391,1.6239,2.8994,3.01141,6.09688.80659,9.14821-2.11737,2.93019-5.45687,2.459-8.57961,1.91539-9.31081-1.62081-17.62086-5.85367-25.89294-10.113-4.95268-2.55013-9.74025-5.42085-14.60205-8.14746a72.44536,72.44536,0,0,0-10.31262-6.78884c-.86606-.69923-1.70907-1.42961-2.60186-2.09281-7.48927-5.563-14.97093-11.13682-21.0012-18.3627-1.63431-1.95833-3.1577-4.0162-3.52813-6.649a2.05468,2.05468,0,0,1,.84306-2.24319c.83389-.46963,1.20473.40313,1.66582.8505C292.976,106.159,312.05,118.489,331.83756,129.80622a69.56027,69.56027,0,0,0,18.28291,7.70714c1.13126.27017,2.60912,1.33579,3.45384-.11946.74577-1.285-.55475-2.3548-1.30171-3.31338a56.41326,56.41326,0,0,0-4.89191-5.84518,174.40577,174.40577,0,0,0-72.27792-42.57251c-4.8759-1.47605-9.92224-2.30684-15.0551-.97263-5.981,1.55467-8.08438,5.37477-5.97759,11.17149a33.24311,33.24311,0,0,0,6.57425,10.30534c13.78153,15.83424,30.1069,28.51764,48.34733,38.79361a51.18938,51.18938,0,0,0,11.6265,5.05667c1.37.37171,3.21946,1.4052,4.26442-.25289.8471-1.34416-.45938-2.66939-1.23162-3.80532a32.35233,32.35233,0,0,0-6.44825-6.69488C306.5534,130.536,294.7046,123.662,282.77477,116.90116c-2.2444-1.27192-4.82974-2.08508-7.02031-4.46453,3.19123-1.33242,5.84205-.60212,8.49827.21958,5.97152,1.84722,11.255,5.17214,16.84867,7.83083l9.2228,6.17074c4.00647,3.285,8.102,6.46857,11.99257,9.88556a33.82378,33.82378,0,0,1,8.48671,10.467c2.91012,6.00167-.2766,10.84338-7.02854,10.58119a28.3004,28.3004,0,0,1-10.59289-2.74885c-19.54857-8.88243-36.17821-21.80407-51.17477-36.991-1.15116-1.16578-1.93936-2.77842-3.89493-3.38314-1.21452,4.29473-2.9827,8.23845-6.29179,11.26456a2.68947,2.68947,0,0,0-.792,2.67449c1.16545,7.3828-2.22611,12.17622-8.671,15.22554-11.21054,4.05306-23.36814,2.16086-34.74376,5.37456C217.54524,150.68306,227.58327,149.48239,237.46951,150.88677ZM244.883,98.1146c-.35627-.47458-.53175-.92584-.85829-1.112-13.72454-7.82287-28.0975-6.95164-42.56309-2.808-2.77941.79613-3.13173,4.34274-3.525,6.76343-.3427,2.10976,2.48766,2.24968,4.12625,2.72507,7.7259,2.24146,15.62991,2.04714,23.50618,1.20481C232.47352,104.14955,239.14237,102.51068,244.883,98.1146Zm-1.33714-31.68077c-.58247-9.026-6.49467-14.843-16.32449-16.69326-9.11639-1.71594-18.882,2.32022-21.965,8.97559-1.39537,3.01226-.57456,6.4721-2.08542,9.44394a1.12387,1.12387,0,0,0,.29478,1.04888c.757.51621,1.22372-.12447,1.76288-.58062,5.24287-4.43563,11.59582-5.49617,18.15018-5.88675A46.31841,46.31841,0,0,1,243.54584,66.43383Zm-2.25378,59.41946c-11.37658-7.39858-33.96491-6.92617-41.15883.62665C213.83293,131.81246,227.06157,129.82116,241.29206,125.85329ZM224.50511,79.72282c5.14517-.232,10.43667-.88538,14.93095-4.25.91212-.68283,3.00385-1.59884.29349-2.85938-9.38308-4.36389-18.8696-3.84841-28.2673-.28431-3.02308,1.14649-2.87367,3.00676.1338,4.70755C215.51027,79.25031,219.86377,79.61116,224.50511,79.72282ZM178.95828,23.05168c2.18694,2.17978,4.77508,3.31095,8.77513,4.02493C184.37121,24.82284,181.94938,23.27312,178.95828,23.05168Zm89.66624-.57587a17.5105,17.5105,0,0,0-8.33538,4.27963C262.99058,25.90754,265.918,25.5191,268.62452,22.47581Z"/><path class="cls-2" d="M237.46951,150.88677c-9.88624-1.40438-19.92427-.20371-29.85574-1.87911,11.37562-3.2137,23.53322-1.3215,34.74376-5.37456C242.1288,146.99609,239.89062,149.00306,237.46951,150.88677Z"/><path class="cls-3" d="M224.88978,113.51916q-5.49886.13353-10.99774.26708l-.15127-1.32794c3.6384-.98239,7.33693-.51849,11.01867-.45812C224.27934,112.55143,224.69268,113.026,224.88978,113.51916Z"/><path class="cls-2" d="M244.883,98.1146c-5.74061,4.39608-12.40946,6.035-19.3139,6.77333-7.87627.84233-15.78028,1.03665-23.50618-1.20481-1.63859-.47539-4.469-.61531-4.12625-2.72507.39322-2.42069.74554-5.9673,3.525-6.76343,14.46559-4.14364,28.83855-5.01487,42.56309,2.808C244.35123,97.18876,244.52671,97.64,244.883,98.1146Z"/><path class="cls-2" d="M241.29206,125.85329c-14.23049,3.96787-27.45913,5.95917-41.15883.62665C207.32715,118.92712,229.91548,118.45471,241.29206,125.85329Z"/><path d="M16.43454,254.08624V231.6413H8.816v-5.50895H30.77v5.50895H23.15144v22.44494Z"/><path d="M34.88231,254.08624,43.893,226.13235H52.0844l8.96993,27.95389H53.90748l-1.82308-6.45078H43.42179l-1.82258,6.45078Zm12.75808-21.93306-2.96945,10.62867h6.20552l-2.92875-10.62867Z"/><path d="M84.49918,234.99951a4.78183,4.78183,0,0,0-.53272-1.51527,4.41369,4.41369,0,0,0-1.02375-1.22879,4.55844,4.55844,0,0,0-1.485-.81919,5.97113,5.97113,0,0,0-1.91493-.28647,4.85238,4.85238,0,0,0-4.11633,1.89408,8.72394,8.72394,0,0,0-1.43334,5.35554v3.27628a11.88007,11.88007,0,0,0,.563,3.78865,5.42814,5.42814,0,0,0,1.82308,2.65221,5.2973,5.2973,0,0,0,3.32742.97261,5.85181,5.85181,0,0,0,2.82647-.61415,4.08894,4.08894,0,0,0,1.6791-1.618,4.42257,4.42257,0,0,0,.55308-2.17061v-1.22879h-4.874v-4.73048H91.11381v5.44739a11.47533,11.47533,0,0,1-.67572,3.92171,9.38213,9.38213,0,0,1-2.07876,3.33785,9.79023,9.79023,0,0,1-3.5841,2.3141,16.21489,16.21489,0,0,1-10.74089-.13306,10.26411,10.26411,0,0,1-3.85021-2.73363,11.28161,11.28161,0,0,1-2.24261-4.096,17.10825,17.10825,0,0,1-.72685-5.08893v-3.3587a14.539,14.539,0,0,1,1.43335-6.6047,10.5781,10.5781,0,0,1,4.19824-4.47429,13.17707,13.17707,0,0,1,6.75811-1.618,14.14889,14.14889,0,0,1,4.83325.75763,10.322,10.322,0,0,1,3.52254,2.07877,9.34147,9.34147,0,0,1,2.20139,3.00024,10.00286,10.00286,0,0,1,.89069,3.522Z"/><path d="M119.83725,241.7169a11.24347,11.24347,0,0,0,.62457,3.9932,5.16352,5.16352,0,0,0,1.82259,2.47794,4.885,4.885,0,0,0,2.8776.84,4.9861,4.9861,0,0,0,2.54944-.62458,4.36937,4.36937,0,0,0,1.66917-1.71037,5.80548,5.80548,0,0,0,.67571-2.47794h6.41007v.79884a9.01511,9.01511,0,0,1-1.546,5.02737,9.88634,9.88634,0,0,1-4.02448,3.35869,13.37623,13.37623,0,0,1-5.77507,1.198,12.98184,12.98184,0,0,1-6.62505-1.57682,10.18594,10.18594,0,0,1-4.11633-4.46436,15.55061,15.55061,0,0,1-1.40256-6.86038v-3.11294a15.57877,15.57877,0,0,1,1.413-6.89117,10.23711,10.23711,0,0,1,4.12676-4.47479,12.94118,12.94118,0,0,1,6.6042-1.57682,14.05252,14.05252,0,0,1,4.48521.68614,10.65836,10.65836,0,0,1,3.56325,1.976,9.27638,9.27638,0,0,1,3.29713,7.08579v.77848h-6.41007a6.082,6.082,0,0,0-.68614-2.55986,4.53425,4.53425,0,0,0-1.66917-1.77144,4.80369,4.80369,0,0,0-2.539-.64543,4.71883,4.71883,0,0,0-2.86718.87033,5.45152,5.45152,0,0,0-1.82258,2.50872,11.14884,11.14884,0,0,0-.635,4.01406Z"/><path d="M168.23576,248.57728a10.39519,10.39519,0,0,1-4.239,4.45444,15.22944,15.22944,0,0,1-13.45465,0,10.3621,10.3621,0,0,1-4.25981-4.45444,14.855,14.855,0,0,1-1.46413-6.79882V238.522a15.06905,15.06905,0,0,1,1.46413-6.87081,10.288,10.288,0,0,1,4.25981-4.45393,13.63038,13.63038,0,0,1,6.72733-1.55647,13.4204,13.4204,0,0,1,6.72732,1.57682,10.47262,10.47262,0,0,1,4.239,4.45444,14.93672,14.93672,0,0,1,1.46462,6.85v3.25642A14.855,14.855,0,0,1,168.23576,248.57728ZM162.133,234.37493a5.38656,5.38656,0,0,0-1.95564-2.44716,5.60772,5.60772,0,0,0-5.83664,0,5.38972,5.38972,0,0,0-1.95564,2.44716,10.23627,10.23627,0,0,0-.70649,4.06519v3.3587a10.24929,10.24929,0,0,0,.70649,4.05477,5.38389,5.38389,0,0,0,1.95564,2.45758,5.60772,5.60772,0,0,0,5.83664,0,5.38076,5.38076,0,0,0,1.95564-2.45758,10.24929,10.24929,0,0,0,.70649-4.05477v-3.3587A10.23627,10.23627,0,0,0,162.133,234.37493Z"/><path d="M179.28049,254.08624V226.13235h5.32427l11.20261,16.6083h.26611v-16.6083h6.2656v27.95389h-5.28257L185.81319,237.3141h-.26611v16.77214Z"/><path d="M218.18677,254.08624V231.6413h-7.618v-5.50895h21.95342v5.50895h-7.618v22.44494Z"/><path d="M258.17736,227.26879a8.00343,8.00343,0,0,1,3.48233,3.19486,9.48483,9.48483,0,0,1,1.18758,4.82282,8.33738,8.33738,0,0,1-.79934,3.75787,8.52057,8.52057,0,0,1-1.95514,2.63135,8.18267,8.18267,0,0,1-2.2431,1.47455l5.57052,10.936H255.966l-4.73047-9.99367H247.365v9.99367h-6.61512V226.13235h11.81626A12.5503,12.5503,0,0,1,258.17736,227.26879Zm-6.67569,12.05209a4.92138,4.92138,0,0,0,3.19436-.99346,3.62752,3.62752,0,0,0,1.22929-3.00024,3.84023,3.84023,0,0,0-1.24914-3.09208,4.63225,4.63225,0,0,0-3.11294-1.065H247.365v8.15074Z"/><path d="M272.38567,254.08624V226.13235h6.73825v27.95389Z"/><path d="M289.8092,226.13235h12.36934a9.93837,9.93837,0,0,1,6.22588,1.81215,6.01017,6.01017,0,0,1,2.3553,5.04823,6.34344,6.34344,0,0,1-.68613,3.05137,5.60892,5.60892,0,0,1-1.81216,2.02763,6.7236,6.7236,0,0,1-2.47844,1.02375v.30732a7.3696,7.3696,0,0,1,3.00074.87033,6.30218,6.30218,0,0,1,2.37517,2.23218,6.68076,6.68076,0,0,1,.93139,3.6556,7.08936,7.08936,0,0,1-1.28985,4.29009,8.12428,8.12428,0,0,1-3.49126,2.70335,12.517,12.517,0,0,1-4.9251.93189H289.8092ZM296.465,237.4983h3.27678a6.52263,6.52263,0,0,0,2.539-.42,3.01555,3.01555,0,0,0,1.44377-1.16722,3.26352,3.26352,0,0,0,.46074-1.75109,3.06308,3.06308,0,0,0-.96219-2.37567,3.9228,3.9228,0,0,0-2.74455-.88026H296.465Zm0,11.81626h3.64516a6.23913,6.23913,0,0,0,3.953-.993,3.32618,3.32618,0,0,0,1.20844-2.71377,3.85572,3.85572,0,0,0-.50244-1.99685,3.284,3.284,0,0,0-1.49441-1.31022,5.91237,5.91237,0,0,0-2.48837-.46123H296.465Z"/><path d="M336.27292,247.63546a5.32032,5.32032,0,0,0,1.39312-3.9937V226.13235h6.71641v18.28789a9.91546,9.91546,0,0,1-1.43285,5.36548,9.50626,9.50626,0,0,1-4.05526,3.55282,15.9896,15.9896,0,0,1-12.44083,0,9.42627,9.42627,0,0,1-4.05527-3.55282,9.96237,9.96237,0,0,1-1.42291-5.36548V226.13235h6.71739v17.50941a5.331,5.331,0,0,0,1.38221,4.014,5.49934,5.49934,0,0,0,7.198-.02035Z"/><path d="M359.92232,254.08624V231.6413h-7.618v-5.50895h21.95342v5.50895h-7.618v22.44494Z"/><path d="M404.28592,248.57728a10.40093,10.40093,0,0,1-4.239,4.45444,15.23156,15.23156,0,0,1-13.45564,0,10.35987,10.35987,0,0,1-4.25882-4.45444,14.84236,14.84236,0,0,1-1.46462-6.79882V238.522a15.05624,15.05624,0,0,1,1.46462-6.87081,10.28582,10.28582,0,0,1,4.25882-4.45393,13.63435,13.63435,0,0,1,6.72733-1.55647,13.42425,13.42425,0,0,1,6.72831,1.57682,10.47845,10.47845,0,0,1,4.239,4.45444,14.93662,14.93662,0,0,1,1.46363,6.85v3.25642A14.85486,14.85486,0,0,1,404.28592,248.57728Zm-6.10275-14.20235a5.39056,5.39056,0,0,0-1.95613-2.44716,5.60772,5.60772,0,0,0-5.83664,0,5.38251,5.38251,0,0,0-1.95515,2.44716,10.22708,10.22708,0,0,0-.707,4.06519v3.3587a10.24008,10.24008,0,0,0,.707,4.05477,5.37673,5.37673,0,0,0,1.95515,2.45758,5.60772,5.60772,0,0,0,5.83664,0,5.38472,5.38472,0,0,0,1.95613-2.45758,10.25852,10.25852,0,0,0,.706-4.05477v-3.3587A10.24546,10.24546,0,0,0,398.18317,234.37493Z"/><path d="M432.75715,227.26879a8.00343,8.00343,0,0,1,3.48233,3.19486,9.48483,9.48483,0,0,1,1.18758,4.82282,8.33738,8.33738,0,0,1-.79933,3.75787,8.52075,8.52075,0,0,1-1.95515,2.63135,8.18267,8.18267,0,0,1-2.2431,1.47455L438,254.08624h-7.45417l-4.73048-9.99367h-3.87057v9.99367h-6.61512V226.13235h11.81626A12.5503,12.5503,0,0,1,432.75715,227.26879Zm-6.67569,12.05209a4.92141,4.92141,0,0,0,3.19437-.99346,3.62754,3.62754,0,0,0,1.22928-3.00024,3.84023,3.84023,0,0,0-1.24914-3.09208,4.63225,4.63225,0,0,0-3.11294-1.065h-4.19825v8.15074Z"/><path d="M114.98613,296.42867a3.15189,3.15189,0,0,0,.46073,1.29036,3.66522,3.66522,0,0,0,1.03417,1.07488,5.28205,5.28205,0,0,0,1.55647.72734,7.23707,7.23707,0,0,0,2.048.26612,6.83046,6.83046,0,0,0,2.59064-.42,3.246,3.246,0,0,0,1.50484-1.14688,2.87356,2.87356,0,0,0,.49151-1.64832,2.26718,2.26718,0,0,0-1.0441-2.00727,9.05662,9.05662,0,0,0-3.09258-1.126l-3.95249-.8604a12.49967,12.49967,0,0,1-3.90135-1.43335,7.11551,7.11551,0,0,1-2.60057-2.59064,7.69626,7.69626,0,0,1-.9319-3.9217,7.83047,7.83047,0,0,1,1.38221-4.63863,8.8459,8.8459,0,0,1,3.82985-3.01017,14.25843,14.25843,0,0,1,5.68273-1.055,13.29789,13.29789,0,0,1,5.86742,1.1573,8.74782,8.74782,0,0,1,3.594,3.041,7.84784,7.84784,0,0,1,1.31071,4.05526h-6.22588a3.35566,3.35566,0,0,0-.66528-1.55647,3.92228,3.92228,0,0,0-1.51576-1.16773,5.6648,5.6648,0,0,0-2.38559-.45031,4.74936,4.74936,0,0,0-3.10252.89069,2.79236,2.79236,0,0,0-1.07538,2.24261,2.13116,2.13116,0,0,0,.99346,1.82258,7.25037,7.25037,0,0,0,2.75448,1.0446l4.05477.83955a13.64845,13.64845,0,0,1,3.881,1.33107,7.2114,7.2114,0,0,1,2.754,2.5395,7.69866,7.69866,0,0,1,1.02424,4.17789,8.49482,8.49482,0,0,1-1.31071,4.6997,8.65332,8.65332,0,0,1-3.86015,3.18443,15.395,15.395,0,0,1-6.31772,1.14687,16.24044,16.24044,0,0,1-5.05865-.69607,9.661,9.661,0,0,1-3.461-1.9045,7.76782,7.76782,0,0,1-2.00678-2.73412,8.77959,8.77959,0,0,1-.71691-3.16408Z"/><path d="M145.96707,304.41557V281.97063h-7.61851v-5.509h21.95392v5.509H152.684v22.44494Z"/><path d="M185.95866,277.59812a8.00481,8.00481,0,0,1,3.48183,3.19486,9.48481,9.48481,0,0,1,1.18758,4.82282,8.33738,8.33738,0,0,1-.79933,3.75787,8.52087,8.52087,0,0,1-1.95515,2.63135,8.18813,8.18813,0,0,1-2.24261,1.47455l5.57,10.936h-7.45417l-4.73048-9.99368h-3.87057v9.99368h-6.61462v-27.9539h11.81626A12.55178,12.55178,0,0,1,185.95866,277.59812Zm-6.67619,12.05209a4.92279,4.92279,0,0,0,3.19486-.99346,3.62724,3.62724,0,0,0,1.22879-3.00024,3.839,3.839,0,0,0-1.24964-3.09209,4.63006,4.63006,0,0,0-3.11244-1.065h-4.19825v8.15074Z"/><path d="M197.62747,304.41557l9.01114-27.9539h8.19095L223.8,304.41557h-7.14735l-1.82308-6.45079H206.167l-1.82209,6.45079Zm12.75858-21.93307-2.97,10.62868h6.205l-2.92824-10.62868Z"/><path d="M235.52986,304.41557V281.97063h-7.618v-5.509h21.95342v5.509h-7.618v22.44494Z"/><path d="M276.83216,304.41557H258.094v-27.9539h18.73821v5.34512H264.74979v6.0819h11.34559v4.91517H264.74979v6.26659h12.08237Z"/><path d="M302.93915,285.32883a4.79337,4.79337,0,0,0-.53223-1.51526,4.42615,4.42615,0,0,0-1.02474-1.22879,4.55612,4.55612,0,0,0-1.48448-.8192,5.97473,5.97473,0,0,0-1.91443-.28646,4.85149,4.85149,0,0,0-4.11683,1.89407,8.72734,8.72734,0,0,0-1.43284,5.35555V292.005a11.85216,11.85216,0,0,0,.563,3.78865,5.4331,5.4331,0,0,0,1.82208,2.65221,5.30033,5.30033,0,0,0,3.32842.9726,5.84982,5.84982,0,0,0,2.826-.61414,4.08894,4.08894,0,0,0,1.6791-1.618,4.42787,4.42787,0,0,0,.55308-2.17062v-1.22879H298.3308v-4.73047h11.22247v5.44739a11.46324,11.46324,0,0,1-.67521,3.92171,9.37644,9.37644,0,0,1-2.07927,3.33785,9.78406,9.78406,0,0,1-3.5836,2.3141,16.21486,16.21486,0,0,1-10.74088-.13306,10.26594,10.26594,0,0,1-3.85071-2.73363,11.28774,11.28774,0,0,1-2.24211-4.096,17.108,17.108,0,0,1-.72685-5.08894v-3.3587a14.53251,14.53251,0,0,1,1.43384-6.60469,10.56909,10.56909,0,0,1,4.19824-4.47429,13.17326,13.17326,0,0,1,6.75811-1.618,14.14991,14.14991,0,0,1,4.83275.75763,10.31474,10.31474,0,0,1,3.522,2.07876,9.31954,9.31954,0,0,1,2.2014,3.00024,10.0043,10.0043,0,0,1,.89168,3.522Z"/><path d="M324.62248,304.41557V294.6468l-9.35868-18.18513h7.37276l5.32426,11.52979h.26612l5.366-11.52979h7.1265L331.36073,294.483v9.93261Z"/></svg>