<?xml version="1.0" encoding="UTF-8"?><svg id="Layer_1" xmlns="http://www.w3.org/2000/svg" viewBox="0 0 271.73366 191.47104"><defs><style>.cls-1{fill:#0086ff;}.cls-2{fill:#fff;}.cls-3{fill:#93eaff;}</style></defs><polygon class="cls-1" points="182.62949 36.34995 178.24285 40.61113 182.24691 42.44139 182.62949 36.34995"/><polygon class="cls-1" points="99.07551 38.78066 94.92048 34.30983 94.99172 40.42555 99.07551 38.78066"/><path class="cls-1" d="m212.40215,58.95324c2.21599-2.50508,1.8848-5.94188-.77367-8.29356l-2.40278-2.12553-7.57483,8.56302,2.40278,2.12543c2.65817,2.35158,6.13272,2.23552,8.34851-.26936Z"/><path class="cls-1" d="m232.55631,85.49956c2.82301-1.72968,3.78276-5.52024,2.10711-8.25562-1.67606-2.73558-5.48907-3.60164-8.31178-1.87226-2.85205,1.74739-3.81211,5.53744-2.13646,8.27322,1.67595,2.73568,5.48907,3.60194,8.34112,1.85465Z"/><path class="cls-1" d="m245.4655,111.90989c1.22051-.3243,1.82197-1.64944,1.41894-3.16674l-1.04243-3.92513-4.22222,1.12145,1.04243,3.92513c.40303,1.51729,1.58317,2.36939,2.80328,2.04529Z"/><path class="cls-1" d="m61.33339,175.45006c-6.20264-11.93355-9.49424-25.26075-9.49424-39.09559,0-22.68372,8.8335-44.00962,24.8733-60.04943,16.03981-16.03981,37.36591-24.8732,60.04953-24.8732s44.00983,8.83339,60.04963,24.8732c16.03981,16.03981,24.8732,37.36571,24.8732,60.04943,0,13.83485-3.2916,27.16204-9.49424,39.09559h49.00642c3.96136-12.594,5.96566-25.69544,5.96566-39.09559,0-17.59393-3.45107-34.67353-10.25709-50.76454-6.56874-15.53074-15.96817-29.47386-27.93653-41.44242-11.96846-11.96836-25.91158-21.36769-41.44232-27.93663-16.09101-6.80592-33.17071-10.25679-50.76475-10.25679s-34.67364,3.45087-50.76475,10.25679c-15.53064,6.56894-29.47386,15.96827-41.44232,27.93663-11.96846,11.96856-21.36759,25.91168-27.93653,41.44242-6.80592,16.09101-10.25689,33.17061-10.25689,50.76454,0,13.40015,2.0042,26.5016,5.96546,39.09559h49.00642Zm191.49648-67.721c1.34922,5.07977-.96127,9.54241-5.61212,10.7778-3.36466.89368-6.46947-.29415-8.46983-2.90578l-6.14294,7.31681-1.93641-7.28969,5.55758-6.59626-.41173-1.55038-6.82767,1.81367-1.69973-6.39915,22.66055-6.01889,2.8823,10.85187Zm-30.04445-38.17793c5.61687-3.44106,13.38052-1.35297,17.00007,4.55502,3.61955,5.90778,1.95371,13.77272-3.66306,17.21388-5.61707,3.44116-13.40976,1.37108-17.02901-4.53701-3.61955-5.90778-1.92467-13.79073,3.692-17.23189Zm-14.53891-29.90218l6.54354,5.78848c6.13454,5.42664,7.26935,12.90029,2.72455,18.03824-4.545,5.13755-12.12388,4.94884-18.25843-.47801l-6.54384-5.78828,15.53418-17.56044Zm-24.98774-13.70553l6.79721,3.10684-1.552,25.0691-6.79742-3.10694.21877-3.35211-7.4181-3.39046-2.39165,2.35896-6.79772-3.10694,17.9409-17.57845Zm-31.24857,6.45288c-4.8518-1.91334-8.53105-3.82051-7.79583-8.64478.70456-4.622,4.80616-7.0692,10.30536-6.23087,4.01448.61188,6.98755,2.16975,9.23753,4.61846l-3.97694,4.12315c-1.92255-1.88106-4.16606-3.01698-6.25738-3.33572-1.5859-.24184-2.45954.281-2.59311,1.15798-.17991,1.18085.57332,1.67555,3.77133,2.88787,5.22305,1.9699,8.37563,3.93485,7.70172,8.35428-.74564,4.89197-4.92739,7.18881-10.73024,6.30423-4.18336-.63768-7.9299-2.55517-10.46908-5.60028l4.30691-3.79663c2.07908,2.21558,4.4935,3.58464,7.22614,4.00102,1.78837.2727,2.82554-.19053,2.97954-1.2027.16969-1.11326-.6141-1.40518-3.70596-2.63601Zm-28.58402-15.54581c4.03927-.42519,7.30993.32815,10.10764,2.12704l-2.80236,4.9967c-2.3368-1.33243-4.79483-1.86275-6.89931-1.64115-1.59511.16797-2.30787.8952-2.21477,1.77765.12497,1.18783.97898,1.4755,4.38037,1.83785,5.55211.58182,9.09982,1.68354,9.56841,6.12999.51838,4.92162-2.94524,8.20341-8.783,8.81832-4.20866.4434-8.31937-.46182-11.54763-2.76442l3.20468-4.76427c2.57227,1.61646,5.25574,2.32901,8.00488,2.03921,1.7988-.18962,2.68489-.90036,2.57753-1.9187-.11798-1.12024-.95065-1.20412-4.25369-1.6112-5.17873-.62108-9.22124-1.53338-9.73274-6.38721-.48954-4.64993,2.85761-8.05689,8.38999-8.63982Zm-28.68855,7.04715l17.11664,18.38329-6.93331,2.79194-2.28085-2.46622-7.56613,3.04734.06466,3.35859-6.93301,2.79235-.40131-25.11524,6.93331-2.79204Zm-31.26375,17.14193c3.50288-2.77838,7.48437-2.75632,9.60525-.08226,1.42096,1.79151,1.71522,4.08501.72551,6.13262,2.86075-.78733,5.49585-.04594,7.10776,1.98599,2.33286,2.9416,1.24955,7.06799-2.49425,10.03721l-10.26822,8.14401-14.57007-18.37054,9.89403-7.84703Zm-30.46427,33.54196l12.78716,1.11204-5.71654-11.49238,3.72751-5.47197,19.37826,13.1998-3.72762,5.47218-10.37993-7.07062,5.71644,11.49207-12.78736-1.11224,10.38034,7.07092-3.72762,5.47207-19.37806-13.2,3.72741-5.47187Zm-11.53548,25.46777l25.0263-2.1315-2.07918,7.17859-3.34817.27371-2.26911,7.83438,2.68377,2.021-2.07949,7.17859-20.01331-15.17618,2.07918-7.17859Z"/><polygon class="cls-1" points="34.63883 110.04421 35.86339 105.81541 29.78156 106.32802 34.63883 110.04421"/><path class="cls-1" d="m74.10558,55.43305c1.12307-.89065,1.43756-2.14212.7588-2.99776-.67856-.85574-1.96869-.83439-3.09186.05616l-4.25146,3.37225,2.33276,2.9415,4.25176-3.37215Z"/><path class="cls-1" d="m68.62197,46.3222c-.63657-.80251-1.87843-.7757-2.94828.07265l-3.47596,2.75734,2.20546,2.78071,3.47637-2.75713c1.06964-.84815,1.37857-2.05156.74241-2.85357Z"/><path class="cls-1" d="m128.44069,138.15235c-.14621.0001-.29243.0001-.43864.0002-.69535-.0001-1.39081-.0001-2.08617-.0002-1.27546-.0002-2.55092-.0003-3.82637-.0004-.02955,1.77522-.01113,3.5558.00688,5.2783.01831,1.7399.03714,3.53941.00445,5.28549-.05019,2.68499-.03774,5.39618-.0259,8.01783.00536,1.17225.01083,2.3445.01073,3.51644l-.00071,4.85392c-.0004,2.67426-.00091,5.34822-.0004,8.02218-.27543.04189-.54853.08439-.81941.12658-.52617.08186-1.05224.16362-1.57912.2391-1.42228.20369-2.63642.92566-3.42385,1.95827-.4688.61471-.78663,1.33941-.90643,2.13079-.33776,2.23015.73168,4.20744,2.79103,5.16032.73441.33968,1.4324.43247,2.01908.43247.44451,0,.82518-.05353,1.10911-.09309,1.80112-.25206,3.61763-.53052,5.37423-.80018l.93618-.14338c2.5321-.38734,4.23325-2.36989,4.23325-4.93315l-.0001-1.75377-.00233-27.63681c-.0001-2.14617.00091-4.29254.00172-6.43871l.00111-3.2234h-.8444c-.84461.0004-1.68931.00081-2.53392.00121Z"/><path class="cls-1" d="m143.00763,138.15113c-.16706,0-.33402-.0001-.50108-.0001h-3.26378l.00445,37.29903.0002,1.70722c.0004,2.57803,1.70287,4.57849,4.23608,4.97768l.68099.10928c.70183.11333,1.42774.23071,2.1741.32521.39696.04999.81668.12223,1.26129.19883.99183.17121,2.11288.36458,3.33683.36458.02489,0,.04968,0,.07457-.0003,2.57166-.0171,4.57091-1.91344,4.75395-4.50908.08307-1.1766-.27907-2.28996-.94903-3.17342-.69859-.9211-1.73221-1.59227-2.95445-1.81812-.15178-.02803-.30386-.06122-.45585-.0939-.39149-.08439-.84268-.18153-1.34629-.2385-.39776-.20844-.78248-.32693-1.14037-.38532.00607-9.93764.00405-19.87478.00202-29.81273l-.00101-4.95056c-1.51203.0001-3.02406.0001-4.536.0001-.45888,0-.91776,0-1.37664.0001Z"/><path class="cls-1" d="m103.83756,138.15326c-.92727-.00192-1.85617.0174-2.78435.02783l-.94832,1.54897c-1.28659,2.10124-2.57328,4.20259-3.85602,6.30616-1.41267-.04503-2.58168-.07478-3.69746-.09451-2.21933-.04968-3.90085,1.49544-3.98483,3.6496-.07953,2.04792,1.44211,3.7945,3.5386,4.06244.48074.06162.89601.03005,1.19937.00668.07174-.00546.16493-.01245.21897-.01447.66925.12436,1.30753.1538,1.90261.1538.27928,0,.54924-.00668.80838-.01275.22049-.00546.44077-.01093.66024-.01123.29445-.00607.54803.00435.76649.0089,2.66202.05555,3.33268-.68078,4.72228-2.96558l.08834-.1449c1.64196-2.69764,3.28836-5.39244,4.93467-8.08694l2.70877-4.43663-2.80277-.0003c-1.15828.00101-2.31657.00202-3.47495.00293Z"/><path class="cls-1" d="m169.23046,151.6895c1.0491,1.72544,2.55031,2.10964,3.67854,2.10964.05171,0,.10291-.00081.15289-.00233.44927-.01386.89763-.04017,1.34629-.06678.55096-.03258,1.07126-.06324,1.57892-.0679.2388,0,.50098.00982.77934.02226.81577.03582,1.83016.08156,2.91195-.20723,1.74891-.4686,2.94828-2.11086,2.85174-3.9055-.09603-1.77492-1.57082-3.63715-3.58636-3.60569-.53538.01073-1.07794.00061-1.65238-.01012-.8102-.01498-1.63933-.03036-2.49445.01275-.52091-.86201-1.04789-1.71805-1.56242-2.55345-.39058-.63393-.78086-1.26787-1.1682-1.90383-.64436-1.05781-1.28204-2.11986-1.91971-3.18192l-.10402-.17293c-.93152-.00111-1.86295-.00405-2.79437-.00334-1.16091-.00081-2.32183-.00162-3.48274-.00253-.93405.0001-1.86811.0001-2.80216.0001l1.475,2.42251c.55845.91786,1.117,1.83563,1.67747,2.75228l1.70469,2.78415c1.13875,1.8585,2.27741,3.71729,3.40999,5.57984Z"/><path class="cls-3" d="m167.24821,138.15315c.93142-.00071,1.86285.00223,2.79437.00334,1.13127.00142,2.26243.0003,3.3935-.01315,1.91698-.02277,3.83386.00445,5.75216-.05019,1.11336-.03177,2.23127-.0597,3.31862-.22372,3.53182-.53295,6.77485-1.88582,9.67557-3.94193,2.45398-1.7395,4.52395-3.89194,6.16257-6.44903,2.10185-3.27976,3.32854-6.85772,3.62623-10.72123.18568-2.41087.03177-4.82104-.53973-7.20075-.64587-2.68954-1.72159-5.17934-3.22694-7.48518-1.18348-1.81276-2.61628-3.41485-4.25024-4.83875-1.66766-1.45324-3.50814-2.64047-5.52206-3.54265-2.32689-1.04243-4.75314-1.6886-7.30507-1.978-2.1742-.24649-4.3061-.11758-6.43395.23384-.60945.10058-.79168-.09562-.92019-.58698-.15097-.57757-.29759-1.15697-.4521-1.73353-.83246-3.10663-2.14637-6.00371-3.79784-8.74587-1.93772-3.21743-4.33797-6.05784-7.171-8.53155-2.31272-2.01948-4.83875-3.71901-7.57746-5.10112-2.68468-1.35479-5.49889-2.34794-8.43239-3.01678-2.02859-.46242-4.08319-.74757-6.15488-.81081-2.1912-.06688-4.37582-.03015-6.56934.28879-2.17875.31682-4.32452.74463-6.40198,1.42005-4.06517,1.3215-7.78308,3.3341-11.16059,5.9689-1.46518,1.14311-2.77191,2.45064-4.07114,3.77001-1.59167,1.61636-2.92581,3.43144-4.13762,5.34104-.19418.30589-.39028.40191-.78329.29567-1.95047-.52749-3.94446-.81516-5.96293-.88063-2.56154-.08307-5.11033.03663-7.62442.60135-2.11136.47426-4.16596,1.11852-6.11845,2.05368-2.5324,1.21303-4.87952,2.70684-6.98876,4.58052-2.01473,1.78979-3.81454,3.76425-5.26596,6.02799-1.28426,2.00319-2.3366,4.13115-3.11058,6.39581-.87729,2.56711-1.41752,5.20211-1.56576,7.89964-.21725,3.95488.33776,7.81819,1.66705,11.55865.26703.75141.59295,1.47915.9127,2.21093.83509,1.91172,1.89168,3.69513,3.12131,5.3636,1.35084,1.833,2.90699,3.49549,4.65965,4.96098,1.2108,1.01247,2.47766,1.95584,3.84115,2.74863,1.799,1.04597,3.68451,1.91,5.65461,2.60171,2.3534.82629,4.78117,1.31178,7.24851,1.48431,1.16982.08176,2.3452.08348,3.5217.07032.92819-.01042,1.85708-.02975,2.78435-.02783,1.15838-.00091,2.31667-.00192,3.47495-.00293l2.80277.0003c3.99141.0004,7.98282.00091,11.97423.00132,1.27546.0001,2.55092.0002,3.82637.0004.69535.0001,1.39081.0001,2.08617.0002.14621-.0001.29243-.0001.43864-.0002.84461-.0004,1.68931-.00081,2.53392-.00121h.8444c2.47462-.0001,4.94924-.0001,7.42376-.0001h3.26378c.16706,0,.33402.0001.50108.0001.45888-.0001.91776-.0001,1.37664-.0001,1.51193,0,3.02396,0,4.536-.0001,4.01428,0,8.02866-.0001,12.04304-.0002.93405,0,1.86811,0,2.80216-.0001,1.16091.00091,2.32183.00172,3.48274.00253Zm-41.51365-29.08661c-.24396,2.42656-1.63234,4.11213-3.25497,5.03252-.70537.40019-1.45446.65761-2.17389.76527l-.04543.01356c-.04179.01336-.08348.026-.12557.03764l-.17819.0344c-.21755.02368-.43814.03552-.66287.03552-.54418,0-1.11295-.06992-1.7221-.21108-1.10142-.25499-1.97294-.79937-2.64978-1.37401-.40637-.34495-.74251-.70082-1.01612-1.01166l-.08621-.111c-.65883-.96937-1.05406-1.91546-1.20493-2.8647-.06344-.39928-.08823-.79897-.06395-1.20129.20339-3.3683,2.59857-5.97608,5.82441-6.34147,2.0546-.23131,4.0416.43247,5.45143,1.8249.48671.48084.88609,1.02897,1.19532,1.62182.58982,1.13066.84572,2.42706.71286,3.74957Zm20.26324,10.87605c-.71903,2.71939-2.30574,4.67654-4.72147,5.84788-.65751.31884-1.3729.58284-2.15325.7841-.70284.18133-1.36025.18942-2.05632.19802-.13984.00182-.28444.00354-.4352.00698-.08014.00263-.16079.00405-.24103.00405-2.40369,0-4.88185-1.24328-6.61599-3.121-.88447-.95773-1.57892-2.07756-1.96383-3.28786-.5716-1.79718.19094-3.52595,1.85414-4.2038.82993-.33847,1.72635-.3238,2.52339.04139.81992.37581,1.43898,1.08077,1.74314,1.98538.47902,1.42511,1.78675,2.14435,2.77848,2.08485,1.83279-.09805,2.57065-.30558,3.05118-2.11035.19954-.74989.70132-1.38616,1.41317-1.79141.75941-.43298,1.66725-.54813,2.49101-.3154,1.72291.4863,2.76938,2.2254,2.33256,3.87717Zm14.91613-9.84718c-.52303,1.85607-1.76712,3.16502-3.16502,3.91562-.6653.35729-1.3642.59194-2.0378.69283l-.04361.01336c-.04361.01386-.08763.02712-.13154.03926l-.17434.03329c-.21735.02368-.43824.03582-.66338.03582-.54378,0-1.11245-.06992-1.72179-.21128-1.06742-.2473-1.91769-.76639-2.58532-1.3213-.4347-.36114-.7927-.73725-1.08047-1.06388l-.08611-.11131c-.93608-1.37745-1.35115-2.70755-1.26908-4.06619.05464-.90522.27209-1.75255.61683-2.51904.9382-2.08617,2.84851-3.55519,5.20747-3.82223,2.05449-.23324,4.0417.43278,5.45153,1.8247,1.4153,1.39769,2.11086,3.35535,1.90818,5.37139-.04209.41871-.12001.81425-.22555,1.18894Z"/><path class="cls-1" d="m143.66524,116.06542c-.82376-.23273-1.73161-.11758-2.49101.3154-.71185.40525-1.21363,1.04151-1.41317,1.79141-.48054,1.80477-1.21839,2.0123-3.05118,2.11035-.99173.0595-2.29947-.65974-2.77848-2.08485-.30417-.90461-.92323-1.60958-1.74314-1.98538-.79705-.36518-1.69346-.37985-2.52339-.04139-1.66321.67785-2.42575,2.40662-1.85414,4.2038.38491,1.21029,1.07936,2.33013,1.96383,3.28786,1.73414,1.87772,4.2123,3.121,6.61599,3.121.08024,0,.16089-.00142.24103-.00405.15077-.00344.29536-.00516.4352-.00698.69606-.0086,1.35347-.0167,2.05632-.19802.78035-.20126,1.49574-.46526,2.15325-.7841,2.41573-1.17134,4.00244-3.12849,4.72147-5.84788.43682-1.65177-.60965-3.39087-2.33256-3.87717Z"/><path class="cls-1" d="m123.82638,103.69515c-1.40983-1.39243-3.39684-2.05621-5.45143-1.8249-3.22583.36539-5.62102,2.97317-5.82441,6.34147-.02428.40232.00051.80201.06395,1.20129.15087.94923.5461,1.89533,1.20493,2.8647l.08621.111c.27361.31085.60975.66672,1.01612,1.01166.67684.57464,1.54836,1.11902,2.64978,1.37401.60914.14116,1.17791.21108,1.7221.21108.22474,0,.44532-.01184.66287-.03552l.17819-.0344c.04209-.01164.08378-.02428.12557-.03764l.04543-.01356c.71944-.10766,1.46852-.36508,2.17389-.76527,1.62263-.92039,3.01101-2.60596,3.25497-5.03252.13286-1.32251-.12304-2.61891-.71286-3.74957-.30923-.59285-.70861-1.14098-1.19532-1.62182Z"/><path class="cls-1" d="m153.77976,101.71037c-2.35896.26703-4.26927,1.73606-5.20747,3.82223-.34474.76649-.56219,1.61383-.61683,2.51904-.08206,1.35863.33301,2.68873,1.26908,4.06619l.08611.11131c.28777.32663.64577.70274,1.08047,1.06388.66763.55491,1.5179,1.074,2.58532,1.3213.60935.14136,1.17802.21128,1.72179.21128.22514,0,.44603-.01214.66338-.03582l.17434-.03329c.04392-.01214.08793-.0254.13154-.03926l.04361-.01336c.6736-.10088,1.3725-.33553,2.0378-.69283,1.39789-.7506,2.64198-2.05955,3.16502-3.91562.10554-.37469.18345-.77023.22555-1.18894.20268-2.01604-.49288-3.9737-1.90818-5.37139-1.40983-1.39192-3.39704-2.05793-5.45153-1.8247Z"/><path class="cls-2" d="m41.48775,115.22547l-2.68377-2.021,2.26911-7.83438,3.34817-.27371,2.07918-7.17859-25.0263,2.1315-2.07918,7.17859,20.01331,15.17618,2.07949-7.17859Zm-6.84892-5.18126l-4.85726-3.71618,6.08182-.51261-1.22456,4.22879Z"/><polygon class="cls-2" points="52.38788 87.78132 42.00754 80.71039 54.79491 81.82264 49.07847 70.33056 59.4584 77.40118 63.18602 71.92901 43.80776 58.72921 40.08024 64.20118 45.79678 75.69356 33.00962 74.58152 29.28221 80.05339 48.66026 93.25339 52.38788 87.78132"/><path class="cls-2" d="m78.41815,59.11311c3.74381-2.96922,4.82711-7.09561,2.49425-10.03721-1.6119-2.03193-4.24701-2.77332-7.10776-1.98599.98971-2.04761.69546-4.34111-.72551-6.13262-2.12087-2.67406-6.10237-2.69612-9.60525.08226l-9.89403,7.84703,14.57007,18.37054,10.26822-8.14401Zm-16.22043-9.96092l3.47596-2.75734c1.06985-.84835,2.31171-.87516,2.94828-.07265.63616.80201.32724,2.00542-.74241,2.85357l-3.47637,2.75713-2.20546-2.78071Zm9.57479,3.33926c1.12317-.89054,2.4133-.91189,3.09186-.05616.67876.85563.36427,2.10711-.7588,2.99776l-4.25176,3.37215-2.33276-2.9415,4.25146-3.37225Z"/><path class="cls-2" d="m95.13864,49.01256l-.06466-3.35859,7.56613-3.04734,2.28085,2.46622,6.93331-2.79194-17.11664-18.38329-6.93331,2.79204.40131,25.11524,6.93301-2.79235Zm3.93687-10.23189l-4.08379,1.64489-.07124-6.11572,4.15503,4.47083Z"/><path class="cls-2" d="m124.76893,31.8775c3.30304.40707,4.1357.49096,4.25369,1.6112.10736,1.01834-.77873,1.72908-2.57753,1.9187-2.74914.2898-5.43261-.42276-8.00488-2.03921l-3.20468,4.76427c3.22826,2.3026,7.33897,3.20782,11.54763,2.76442,5.83776-.61491,9.30138-3.8967,8.783-8.81832-.4686-4.44645-4.0163-5.54817-9.56841-6.12999-3.40139-.36235-4.25541-.65002-4.38037-1.83785-.09309-.88245.61967-1.60968,2.21477-1.77765,2.10448-.2216,4.56251.30872,6.89931,1.64115l2.80236-4.9967c-2.79771-1.7989-6.06837-2.55223-10.10764-2.12704-5.53238.58294-8.87954,3.98989-8.38999,8.63982.5115,4.85382,4.55401,5.76612,9.73274,6.38721Z"/><path class="cls-2" d="m152.73662,36.23501c-2.73265-.41638-5.14706-1.78544-7.22614-4.00102l-4.30691,3.79663c2.53918,3.04511,6.28572,4.9626,10.46908,5.60028,5.80285.88457,9.98459-1.41226,10.73024-6.30423.6739-4.41943-2.47867-6.38437-7.70172-8.35428-3.198-1.21232-3.95124-1.70702-3.77133-2.88787.13357-.87698,1.00721-1.39982,2.59311-1.15798,2.09133.31874,4.33484,1.45466,6.25738,3.33572l3.97694-4.12315c-2.24999-2.44872-5.22305-4.00659-9.23753-4.61846-5.49919-.83833-9.60079,1.60887-10.30536,6.23087-.73522,4.82428,2.94403,6.73144,7.79583,8.64478,3.09186,1.23083,3.87565,1.52276,3.70596,2.63601-.15401,1.01217-1.19117,1.4754-2.97954,1.2027Z"/><path class="cls-2" d="m174.50724,44.26984l7.4181,3.39046-.21877,3.35211,6.79742,3.10694,1.552-25.0691-6.79721-3.10684-17.9409,17.57845,6.79772,3.10694,2.39165-2.35896Zm8.12225-7.91988l-.38259,6.09144-4.00406-1.83026,4.38664-4.26117Z"/><path class="cls-2" d="m217.51461,63.47567c4.5448-5.13796,3.40999-12.6116-2.72455-18.03824l-6.54354-5.78848-15.53418,17.56044,6.54384,5.78828c6.13454,5.42684,13.71342,5.61556,18.25843.47801Zm-8.28891-14.94153l2.40278,2.12553c2.65848,2.35168,2.98966,5.78848.77367,8.29356-2.21579,2.50488-5.69033,2.62094-8.34851.26936l-2.40278-2.12543,7.57483-8.56302Z"/><path class="cls-2" d="m219.09342,86.78301c3.61924,5.90809,11.41193,7.97816,17.02901,4.53701,5.61677-3.44116,7.28261-11.30609,3.66306-17.21388-3.61955-5.90799-11.3832-7.99607-17.00007-4.55502-5.61667,3.44116-7.31155,11.3241-3.692,17.23189Zm7.25822-11.41133c2.8227-1.72938,6.63572-.86332,8.31178,1.87226,1.67565,2.73538.7159,6.52593-2.10711,8.25562-2.85205,1.74729-6.66517.88103-8.34112-1.85465-1.67565-2.73578-.71559-6.52583,2.13646-8.27322Z"/><path class="cls-2" d="m228.98675,109.29522l6.82767-1.81367.41173,1.55038-5.55758,6.59626,1.93641,7.28969,6.14294-7.31681c2.00036,2.61163,5.10517,3.79946,8.46983,2.90578,4.65084-1.23539,6.96134-5.69802,5.61212-10.7778l-2.8823-10.85187-22.66055,6.01889,1.69973,6.39915Zm16.85527-4.47721l1.04243,3.92513c.40303,1.51729-.19843,2.84243-1.41894,3.16674-1.22011.3241-2.40025-.52799-2.80328-2.04529l-1.04243-3.92513,4.22222-1.12145Z"/></svg>