<svg id="Layer_1" data-name="Layer 1" xmlns="http://www.w3.org/2000/svg" viewBox="0 0 408 202"><defs><style>.cls-1{fill:none;}.cls-2{fill:#326ce4;}.cls-3{fill:#fcdeb7;}.cls-4{fill:#e2c4a3;}.cls-5{fill:#b08c67;}.cls-6{fill:#9a7957;}.cls-7{fill:#d6ad80;}</style></defs><path class="cls-1" d="M236.99391,129.91838c-.23456,2.30371-.821,6.11582-1.38955,9.62269H238.551c-.54556-3.50478-1.07122-7.41427-1.3749-9.62269Z"/><path class="cls-1" d="M313.89475,134.31585c-1.71626,0-1.87123,1.78327-1.87123,3.51h3.64718C315.6707,136.007,315.589,134.31585,313.89475,134.31585Z"/><path class="cls-1" d="M272.24271,134.62056c-1.555,0-1.86077,1.38537-1.86077,5.12313,0,4.18489.19058,5.61162,1.82307,5.61162,1.38013,0,2.01155-1.33929,2.01155-5.51057C274.21656,135.5321,273.60189,134.62056,272.24271,134.62056Z"/><path class="cls-1" d="M295.12165,129.54351h-1.06076v15.58771H295.086c2.56759,0,3.32048-1.8126,3.32048-8.36664C298.40652,131.27914,297.73007,129.54351,295.12165,129.54351Z"/><path class="cls-1" d="M255.0246,134.62056c-1.555,0-1.86077,1.38537-1.86077,5.12313,0,4.18489.19058,5.61162,1.82307,5.61162,1.38013,0,2.01156-1.33929,2.01156-5.51057C256.99846,135.5321,256.38379,134.62056,255.0246,134.62056Z"/><path class="cls-1" d="M363.13123,134.31585c-1.71626,0-1.87124,1.78327-1.87124,3.51h3.64719C364.90718,136.007,364.8255,134.31585,363.13123,134.31585Z"/><path class="cls-2" d="M260.47275,70.51429C250.13757,67.97862,247.681,66.5687,247.681,62.93592c0-3.62762,2.76254-5.32456,7.25984-5.32456,6.9688,0,8.8124,3.662,9.328,7.25754h18.97457c-.93956-10.57122-8.85938-20.41084-28.25446-20.41084-18.656,0-26.92074,9.42083-26.92074,20.66865,0,9.02208,3.94043,16.23952,23.71477,21.029,10.58726,2.53052,13.55948,4.19824,13.55948,8.60444,0,3.89059-2.73848,5.97138-8.68063,5.97138-6.342,0-10.43258-2.45719-11.55088-8.29908H226c1.48382,12.8909,11.30568,21.54461,29.84025,21.54461,19.68039,0,29.38881-8.74538,29.38881-21.33436C285.22906,83.11015,281.12822,75.66928,260.47275,70.51429Z"/><rect class="cls-2" x="299.19989" y="45.7047" width="19.69757" height="67.02571"/><path class="cls-2" d="M385.11824,106.62784a49.74718,49.74718,0,0,0,1.23632,6.10257h13.19282V74.28571H368.2657V88.02108h12.28649v.44744c0,4.42682-1.74162,11.67348-11.63681,11.67348-10.83017,0-14.02927-10.24524-14.02927-20.83249,0-10.71846,2.75682-21.017,13.97083-21.017,7.93128,0,10.43028,4.46922,11.39276,8.0258h19.4581c-1.2157-10.29794-10.51164-21.86028-30.75919-21.86028-22.33866,0-34.31464,14.97685-34.31464,35.53263,0,18.59645,10.34779,34.1124,30.87263,34.1124C374.81743,114.10309,381.32791,111.62069,385.11824,106.62784Z"/><path class="cls-2" d="M233.30065,125.30417l-4.7383,24.02032h5.51947l.81781-5.14145h4.38228l.8419,5.14145h5.73309l-4.799-24.02032Zm2.30371,14.2369c.5686-3.50687,1.155-7.319,1.38955-9.62269h.1822c.30368,2.20842.82934,6.11791,1.3749,9.62269Z"/><path class="cls-2" d="M257.22569,130.30792a4.1925,4.1925,0,0,0-4.09118,2.22884,16.99989,16.99989,0,0,0-.15393-1.921h-5.20847c.03561,1.14871.04817,2.89534.04817,5.398v19.75009h5.4357V147.9208A3.58387,3.58387,0,0,0,256.656,149.668c3.6074,0,5.85141-2.54874,5.85141-9.98656C262.50745,133.00012,260.53988,130.30792,257.22569,130.30792Zm-2.23879,15.04739c-1.63249,0-1.82307-1.42673-1.82307-5.61162,0-3.73776.30577-5.12313,1.86077-5.12313,1.35919,0,1.97386.91154,1.97386,5.22418C256.99846,144.016,256.367,145.35531,254.9869,145.35531Z"/><path class="cls-2" d="M274.44379,130.30792a4.1925,4.1925,0,0,0-4.09117,2.22884,17.00222,17.00222,0,0,0-.15393-1.921h-5.20847c.0356,1.14871.04817,2.89534.04817,5.398v19.75009h5.4357V147.9208a3.58386,3.58386,0,0,0,3.40006,1.74715c3.60739,0,5.85141-2.54874,5.85141-9.98656C279.72556,133.00012,277.758,130.30792,274.44379,130.30792ZM272.205,145.35531c-1.63249,0-1.82307-1.42673-1.82307-5.61162,0-3.73776.30576-5.12313,1.86077-5.12313,1.35918,0,1.97385.91154,1.97385,5.22418C274.21656,144.016,273.58514,145.35531,272.205,145.35531Z"/><path class="cls-2" d="M295.37924,125.30417h-6.8619v24.02032h6.66609c6.49854,0,9.02319-3.9629,9.02319-12.47247C304.20662,128.86339,301.64846,125.30417,295.37924,125.30417Zm-.2932,19.82705h-1.02515V129.54351h1.06076c2.60842,0,3.28487,1.73563,3.28487,7.22107C298.40652,143.31862,297.65363,145.13122,295.086,145.13122Z"/><path class="cls-2" d="M313.90732,130.30792c-4.81684,0-7.34359,3.22-7.34359,9.52635,0,5.08229,1.01678,9.83368,7.23469,9.83368,6.421,0,6.97394-4.9425,7.108-6.197h-5.198c-.05864.85237-.28273,2.10318-1.80108,2.10318-1.69218,0-1.92988-1.86495-1.92988-4.30269h9.00016c.023-.38483.04608-1.40945.04608-2.04611C321.02368,134.05249,319.43412,130.30792,313.90732,130.30792Zm-1.8838,7.51794c0-1.72674.155-3.51,1.87123-3.51,1.69428,0,1.776,1.69112,1.776,3.51Z"/><rect class="cls-2" x="323.55985" y="124.16959" width="5.4357" height="25.1549"/><rect class="cls-2" x="332.22806" y="124.16959" width="5.4357" height="4.40427"/><rect class="cls-2" x="332.20503" y="130.61578" width="5.4357" height="18.70871"/><path class="cls-2" d="M347.34038,143.99612h-.12252c-.35184-3.16026-1.24295-8.89335-2.03459-13.38034h-5.81895l4.5362,18.70871h6.36661l4.70794-18.70871h-5.41162C348.65244,135.7965,347.67127,140.84737,347.34038,143.99612Z"/><path class="cls-2" d="M363.1438,130.30792c-4.81684,0-7.34359,3.22-7.34359,9.52635,0,5.08229,1.01677,9.83368,7.23468,9.83368,6.42106,0,6.974-4.9425,7.108-6.197h-5.198c-.05864.85237-.28273,2.10318-1.80108,2.10318-1.69218,0-1.92988-1.86495-1.92988-4.30269h9.00016c.023-.38483.04607-1.40945.04607-2.04611C370.26015,134.05249,368.6706,130.30792,363.1438,130.30792ZM361.26,137.82586c0-1.72674.155-3.51,1.87124-3.51,1.69427,0,1.77595,1.69112,1.77595,3.51Z"/><path class="cls-2" d="M378.06448,133.65353a29.19756,29.19756,0,0,0-.11833-3.03775h-5.198c.0356,1.266.04816,3.18854.04816,6.36032v12.34839h5.4357v-9.06875c0-3.32152,1.39479-4.13672,4.58333-4.06709v-5.88073A4.61428,4.61428,0,0,0,378.06448,133.65353Z"/><path class="cls-2" d="M392.338,142.94794h-.12356c-.18848-2.376-1.23353-7.72-2.12988-12.33216h-5.93833l5.40952,18.87206c-.289,1.56548-.85865,2.12674-2.33616,2.12674-.377,0-.96546-.0356-1.3016-.0712v4.2896a15.033,15.033,0,0,0,2.243.167c3.71,0,5.3404-.99845,6.87865-6.8441l4.88805-18.54012h-5.46083C393.55271,135.37817,392.70244,140.13427,392.338,142.94794Z"/><path class="cls-2" d="M205.1507,125.77435c-.57734-3.16046-1.39466-6.27728-2.11353-9.41162q-3.74076-16.31-7.48791-32.61841c-2.404-10.45581-4.87519-20.89661-7.19611-31.37073-1.063-4.7973-3.49988-8.37249-8.00641-10.48779-5.44287-2.55505-10.8587-5.168-16.28491-7.75867Q137.9747,21.67286,111.88605,9.22241a12.7751,12.7751,0,0,0-11.44812-.03522Q81.48633,18.1948,62.567,27.27026c-10.44123,4.99048-20.89264,9.9599-31.31507,14.98938a12.35265,12.35265,0,0,0-6.90655,8.5224c-1.88666,7.84125-3.65149,15.712-5.45948,23.57221-3.81848,16.59991-7.60479,33.20727-11.46624,49.7973-1.02979,4.42383-.46619,8.47143,2.37866,12.05151,5.33417,6.71265,10.73022,13.37616,16.10528,20.0564q1.49982,1.864,3.00055,3.72742H183.35626q9.6374-11.97684,19.2511-23.97254A12.30455,12.30455,0,0,0,205.1507,125.77435Z"/><path class="cls-2" d="M52.71429,97.33A13.04079,13.04079,0,0,1,48.288,92.2406c-.02014.045-.04608.07922-.06518.12622-.82807,2.03509.28973,3.4599,1.60492,4.81317a5.76034,5.76034,0,0,0,3.22937,1.87573A13.57424,13.57424,0,0,0,58.09393,106.22q8.1048,6.15966,17.0683,2.23163c-1.021-3.32636-1.96533-6.67829-3.96313-9.67981Q61.46311,103.46148,52.71429,97.33Z"/><path class="cls-2" d="M151.37274,70.56445a15.017,15.017,0,0,0-1.67493-1.01434,10.28549,10.28549,0,0,1,.23316,1.32727Z"/><path class="cls-2" d="M130.37152,68.20837c.12592-.2539.26013-.50311.37415-.76379v-.00006C130.63159,67.70526,130.49738,67.9544,130.37152,68.20837Z"/><path class="cls-2" d="M65.92383,76.89343a13.76571,13.76571,0,0,0,.2091,1.80817l.00074.00042A13.751,13.751,0,0,1,65.92383,76.89343Z"/><path class="cls-3" d="M109.66589,166.09936c6.16285-5.80407,12.62238-11.33972,17.83545-17.9657.75647-.96148,1.46265-1.94586,2.1474-2.94006a88.814,88.814,0,0,0,8.68854-16.689q3.34131-8.0842,6.201-16.33661a99.15592,99.15592,0,0,0,5.50909-23.46216c.53669-5.97888.08539-11.87049-.11248-17.802l-.00391-.02643a10.28549,10.28549,0,0,0-.23316-1.32727A8.23053,8.23053,0,0,0,145.9931,64.363c-5.01019-3.23175-9.48242-2.59063-14.66577,2.09082a.98026.98026,0,0,1-.58172.99463l.00006-.00384c-.114.26068-.24823.50989-.37415.76379-.19055.38422-.38989.76349-.6037,1.1344a35.547,35.547,0,0,1-2.358,3.51557c-1.28339,1.71612-2.64184,3.38995-3.79681,5.18188-2.96649,4.60242-6.259,9.02655-9.47187,13.49017a11.372,11.372,0,0,1-1.95953,1.70642c-2.6665,4.46528-6.635,7.92145-10.56372,11.36274a97.75643,97.75643,0,0,1-20.98486,13.96923c-.06391.0318-.126.066-.18994.09766a5.21844,5.21844,0,0,1-1.03.26849q-1.5012.70038-3.00257,1.40094-3.9904,1.86183-7.98108,3.72376-.21359.4736-.42627.94647c-.07659,1.915-.36572,3.80261.44983,5.70538,2.076,4.84339,4.17463,9.67768,6.34748,14.48212,2.96454,6.55487,6.07165,13.05237,9.48791,19.42572,2.12342,3.96149,3.96308,8.07636,6.91883,11.61762,2.54864-1.447,5.58056-1.74768,8.2-3.18018A48.53425,48.53425,0,0,0,109.66589,166.09936Z"/><path class="cls-4" d="M153.65179,88.01483c-.2832-5.83856-.72509-11.73554-3.71691-17.111.19787,5.93151.64917,11.82312.11248,17.802a99.15592,99.15592,0,0,1-5.50909,23.46216q-2.84106,8.24569-6.201,16.33661a88.814,88.814,0,0,1-8.68854,16.689c-.68475.9942-1.39093,1.97858-2.1474,2.94006-5.21307,6.626-11.6726,12.16163-17.83545,17.9657a48.53425,48.53425,0,0,1-10.2586,6.9574c-2.61945,1.4325-5.65137,1.73315-8.2,3.18018a58.69,58.69,0,0,0,12.91516,17.02569c4.53326,4.04285,8.66986,4.16522,13.4508.42395,4.9693-3.88855,8.30591-8.88269,11.32019-14.08264a173.412,173.412,0,0,0,14.88269-34.41034c1.64246-5.13251,3.11518-10.32056,4.47168-15.5451C151.79846,115.97357,154.33728,102.14825,153.65179,88.01483Z"/><path class="cls-3" d="M52.71429,97.33q8.74338,6.14393,18.48481,1.44178A10.55234,10.55234,0,0,0,72.545,88.71557a40.66484,40.66484,0,0,0-4.05584-7.40826q-.32089-.51984-.63147-1.04511-.86171-.78039-1.72406-1.56018l-.00074-.00042q-1.986-1.10889-3.97094-2.21869a7.70029,7.70029,0,0,0-3.15088.63592c-3.94281,1.84388-7.9187,3.62732-11.88226,5.43323,3.6975,1.66846,3.95587,5.50983.54858,8.15387A11.74669,11.74669,0,0,0,48.288,92.2406,13.04079,13.04079,0,0,0,52.71429,97.33Z"/><path class="cls-5" d="M81.86273,111.46759a15.07979,15.07979,0,0,1-2.61181,2.4104,4.37331,4.37331,0,0,1-1.54017.58972c-.05566,1.69208,1.3252,2.91614,1.70234,4.467l.00006.00024a5.21844,5.21844,0,0,0,1.03-.26849c.064-.03168.126-.06586.18994-.09766a97.75643,97.75643,0,0,0,20.98486-13.96923c3.92871-3.44129,7.89722-6.89746,10.56372-11.36274a12.36679,12.36679,0,0,1-4.94446-6.40228q-.56038-.576-1.12042-1.15344c-3.95074,5.33124-8.65387,10.09436-13.15363,15.01666C89.48767,104.49951,85.52075,107.84271,81.86273,111.46759Z"/><path class="cls-6" d="M88.60272,58.64526c.29114-1.56378.38562-3.1579.62665-4.73071,1.095-7.14728,3.16827-13.87854,8.49207-19.52265a45.18843,45.18843,0,0,1,4.18689-4.46948c.27325-.2232.537-.42883.80188-.63641-.64917-1.40546-2.48267-1.56323-4.09107-.75672A28.02886,28.02886,0,0,0,85.97125,40.36822c-3.57672,6.689-3.68426,13.79-2.84594,20.996C85.57294,61.52459,88.04126,61.66052,88.60272,58.64526Z"/><path class="cls-4" d="M112.18164,93.23681a11.372,11.372,0,0,0,1.95953-1.70642c3.21283-4.46362,6.50538-8.88775,9.47187-13.49017,1.155-1.79193,2.51342-3.46576,3.79681-5.18188a35.547,35.547,0,0,0,2.358-3.51557c.21381-.37091.41315-.75018.6037-1.1344.12586-.254.26007-.50311.37415-.76385v.00006l-.00006.00384a.98026.98026,0,0,0,.58172-.99463.86513.86513,0,0,0-.58148.96888c-.8158-.10376-1.26868.36615-1.83112.83306-3.84106,3.18836-7.84753,6.21338-11.57788,9.5066-3.39331,2.99566-7.35663,5.45923-10.09967,9.0722A12.36679,12.36679,0,0,0,112.18164,93.23681Z"/><path class="cls-4" d="M76.41058,120.33587q1.50129-.70047,3.00257-1.40094l-.00006-.00024c-.37714-1.55084-1.758-2.7749-1.70234-4.467l-.20721-.31641q-.39807-.60791-.79626-1.21582c-.96808.98163-1.99677,1.9184-2.89185,2.95386-2.16925,2.50928-4.83228,4.75177-5.39868,8.16943a.84958.84958,0,0,0-.41352.94733q.21232-.4725.42627-.94647Q72.4202,122.19764,76.41058,120.33587Z"/><path class="cls-6" d="M47.12885,82.55206c-1.81482-.06042-3.49616.17517-4.28571,1.9693-.82806,1.88165.28973,3.199,1.60492,4.45026a5.8781,5.8781,0,0,0,3.22937,1.73431C51.08472,88.06189,50.82635,84.22052,47.12885,82.55206Z"/><path class="cls-6" d="M67.85773,80.2622c1.80554-1.47326,2.95233-3.13385,1.82684-5.44891a1.84,1.84,0,0,0-1.80933-1.25854c-.90985.02526-1.14465.68615-1.47815,1.27484a3.54084,3.54084,0,0,0-.22424.47375,3.73133,3.73133,0,0,0-.22619.95935,4.96624,4.96624,0,0,0-.02442.60578l.00159.025a13.751,13.751,0,0,0,.20984,1.80859Q66.99637,79.48151,67.85773,80.2622Z"/><path class="cls-6" d="M112.57251,33.1867c.2641-1.60656.98633-3.84771-.36353-4.6878-.88415-.55017-2.76617,1.33093-3.98608,2.423-9.59216,8.58673-12.73114,19.54151-13.81818,31.893a24.09516,24.09516,0,0,0,2.62885-1.95227C104.77838,52.87188,110.79053,44.02966,112.57251,33.1867Z"/><path class="cls-7" d="M79.25092,113.878a15.07979,15.07979,0,0,0,2.61181-2.4104c3.658-3.62488,7.62494-6.96808,11.1004-10.76984,4.49976-4.9223,9.20289-9.68542,13.15363-15.01666a77.29147,77.29147,0,0,1-5.5329-18.1604,4.513,4.513,0,0,1,1.29364-4.07825c5.06708-5.969,9.87152-12.11145,13.2049-19.10168,2.29956-4.82233,4.14685-9.75086,2.60187-15.143-1.207-4.21289-2.76392-5.85583-7.10364-4.36114a25.88943,25.88943,0,0,0-7.87042,4.44934c-.2649.20758-.52863.41321-.80188.63641a45.18843,45.18843,0,0,0-4.18689,4.46948c-5.3238,5.64411-7.397,12.37537-8.49207,19.52265-.241,1.57281-.33551,3.16693-.62665,4.73071-.56146,3.01526-3.02978,2.87933-5.47741,2.719-.90735-.00843-1.816-.051-2.72168-.0196-7.45447.2591-13.04352,3.1269-15.91645,9.7713q-1.16061,2.68424-2.32519,5.367,1.98513,1.10961,3.97094,2.21869a13.76571,13.76571,0,0,1-.2091-1.80817l-.00159-.025a4.96624,4.96624,0,0,1,.02442-.60578,3.73133,3.73133,0,0,1,.22619-.95935,3.54084,3.54084,0,0,1,.22424-.47375c.3335-.58869.5683-1.24958,1.47815-1.27484a1.84,1.84,0,0,1,1.80933,1.25854c1.12549,2.31506-.0213,3.97565-1.82684,5.44891q.30934.52588.63147,1.04511A40.66484,40.66484,0,0,1,72.545,88.71557,10.55234,10.55234,0,0,1,71.1991,98.77179c1.9978,3.00152,2.94214,6.35345,3.96313,9.67981.464,1.51159.94226,3.01843,1.54517,4.48388l.79614,1.21582.20721.31641A4.37331,4.37331,0,0,0,79.25092,113.878Zm28.972-82.95606c1.21991-1.0921,3.10193-2.9732,3.98608-2.423,1.34986.84009.62763,3.08124.36353,4.6878-1.782,10.843-7.79413,19.68518-15.53894,27.67591a24.09516,24.09516,0,0,1-2.62885,1.95227C95.49176,50.46344,98.63074,39.50866,108.2229,30.92193Z"/></svg>