<svg width="301" height="300" viewBox="0 0 301 300" fill="none" xmlns="http://www.w3.org/2000/svg">
<path d="M60.8867 243.821C49.7854 227.981 43.1208 212.452 43.2693 204.151C51.1219 206.844 63.4461 218.407 74.5474 234.247C85.6487 250.086 92.3113 265.615 92.1648 273.916C84.3102 271.222 71.988 259.66 60.8867 243.821Z" fill="#3A3A3A"/>
<path d="M160.194 214.134C188.423 220.655 209.978 237.45 216.114 255.571C202.651 269.166 175.914 274.804 147.685 268.283C119.456 261.762 97.8935 244.966 91.7577 226.844C105.215 213.249 131.958 207.611 160.194 214.134Z" fill="#C2C2C2"/>
<path d="M59.9226 118.869C69.8905 73.354 100.716 37.6072 135.706 26.3019C163.775 46.591 177.549 88.6933 167.58 134.208C157.61 179.723 126.791 215.472 91.7976 226.777C63.7284 206.486 49.9529 164.385 59.9226 118.869Z" fill="#3A3A3A"/>
<path d="M137.469 120.835C174.633 89.0025 221.106 76.4231 254.778 86.0833C262.655 117.844 245.571 159.713 208.407 191.55C171.243 223.386 124.767 235.96 91.0964 226.302C83.2199 194.544 100.306 152.67 137.469 120.835Z" fill="#9A9A9A"/>
<path d="M92.0078 226.555C105.574 213.172 132.128 207.66 160.163 214.13C163.305 214.856 166.363 215.705 169.336 216.678C150.96 225.119 132.178 229.476 114.997 229.476C107.238 229.529 99.5069 228.546 92.0078 226.555Z" fill="#868686"/>
<path opacity="0.999" d="M90.971 225.789C83.4023 194.093 100.506 152.501 137.47 120.835C147.652 112.093 158.836 104.592 170.787 98.4877C170.998 109.556 169.927 120.612 167.595 131.434C157.643 178.149 126.837 214.846 91.8608 226.46C91.5619 226.238 91.2652 226.015 90.971 225.789Z" fill="#232323"/>
</svg>
