<?xml version="1.0" encoding="UTF-8" standalone="no"?>
<!-- Generator: Adobe Illustrator 21.0.0, SVG Export Plug-In . SVG Version: 6.00 Build 0)  -->

<svg
   xmlns:dc="http://purl.org/dc/elements/1.1/"
   xmlns:cc="http://creativecommons.org/ns#"
   xmlns:rdf="http://www.w3.org/1999/02/22-rdf-syntax-ns#"
   xmlns:svg="http://www.w3.org/2000/svg"
   xmlns="http://www.w3.org/2000/svg"
   xmlns:sodipodi="http://sodipodi.sourceforge.net/DTD/sodipodi-0.dtd"
   xmlns:inkscape="http://www.inkscape.org/namespaces/inkscape"
   version="1.1"
   id="Layer_1"
   x="0px"
   y="0px"
   viewBox="0 0 2513 896"
   style="enable-background:new 0 0 2513 896;"
   xml:space="preserve"
   inkscape:version="0.91 r13725"
   sodipodi:docname="fluentd_logo_horizontal_white.svg"><metadata
     id="metadata7259"><rdf:RDF><cc:Work
         rdf:about=""><dc:format>image/svg+xml</dc:format><dc:type
           rdf:resource="http://purl.org/dc/dcmitype/StillImage" /><dc:title></dc:title></cc:Work></rdf:RDF></metadata><defs
     id="defs7257" /><sodipodi:namedview
     pagecolor="#ffffff"
     bordercolor="#666666"
     borderopacity="1"
     objecttolerance="10"
     gridtolerance="10"
     guidetolerance="10"
     inkscape:pageopacity="0"
     inkscape:pageshadow="2"
     inkscape:window-width="1961"
     inkscape:window-height="1262"
     id="namedview7255"
     showgrid="false"
     inkscape:zoom="0.17087624"
     inkscape:cx="-494.0469"
     inkscape:cy="840.77315"
     inkscape:window-x="0"
     inkscape:window-y="41"
     inkscape:window-maximized="0"
     inkscape:current-layer="Layer_1" /><style
     type="text/css"
     id="style6985">
	.st0{fill:#FFFFFF;}
	.st1{fill:url(#SVGID_1_);}
	.st2{fill:url(#SVGID_2_);}
	.st3{fill:url(#SVGID_3_);}
	.st4{fill:url(#SVGID_4_);}
	.st5{fill:url(#SVGID_5_);}
	.st6{fill:url(#SVGID_6_);}
	.st7{fill:url(#SVGID_7_);}
	.st8{fill:url(#SVGID_8_);}
	.st9{fill:url(#SVGID_9_);}
	.st10{fill:url(#SVGID_10_);}
	.st11{fill:url(#SVGID_11_);}
	.st12{fill:url(#SVGID_12_);}
	.st13{fill:url(#SVGID_13_);}
	.st14{fill:url(#SVGID_14_);}
	.st15{fill:url(#SVGID_15_);}
	.st16{fill:url(#SVGID_16_);}
	.st17{fill:url(#SVGID_17_);}
	.st18{fill:url(#SVGID_18_);}
	.st19{fill:url(#SVGID_19_);}
	.st20{fill:url(#SVGID_20_);}
	.st21{fill:url(#SVGID_21_);}
	.st22{fill:url(#SVGID_22_);}
	.st23{fill:url(#SVGID_23_);}
	.st24{fill:url(#SVGID_24_);}
	.st25{fill:url(#SVGID_25_);}
	.st26{fill:url(#SVGID_26_);}
	.st27{fill:url(#SVGID_27_);}
	.st28{fill:url(#SVGID_28_);}
</style><g
     id="g6987"><g
       id="g6989"><g
         id="g6991"><path
           class="st0"
           d="M1657.1,556.7c-64.6,0-117.1,52.5-117.1,117.2v34.8c0,64.6,52.5,117.2,117.1,117.2h74.5v-42.5h-74.5     c-39.8,0-72.5-31.4-74.5-70.7h153c21.3,0,38.7-17.4,38.7-38.7C1774.3,609.2,1721.7,556.7,1657.1,556.7z M1582.6,669.9     c2-39.3,34.7-70.7,74.5-70.7s72.5,31.4,74.5,70.7H1582.6z"
           id="path6993" /><path
           class="st0"
           d="M965.5,498.4c-16.6,17.2-25.7,39.7-25.7,63.4v5.7h-24.6V610h24.6v215.7h42.5V610h57.3v-42.5h-57.3v-5.7     c0-26,21.2-48,46.2-48h31.4v-42.5h-31.4C1004.7,471.3,982.4,480.9,965.5,498.4z"
           id="path6995" /><rect
           x="1126.7"
           y="470.9"
           class="st0"
           width="42.5"
           height="354.8"
           id="rect6997" /><path
           class="st0"
           d="M1427.6,716.3c0,36.9-30,66.9-66.9,66.9s-66.9-30-66.9-66.9V556.7h-42.5v159.6     c0,60.4,49.1,109.4,109.4,109.4s109.4-49.1,109.4-109.4V556.7h-42.5V716.3z"
           id="path6999" /><path
           class="st0"
           d="M1926.5,556.7c-60.4,0-109.4,49.1-109.4,109.4v159.6h42.5V666.1c0-36.9,30-66.9,66.9-66.9s66.9,30,66.9,66.9     v159.6h42.5V666.1C2035.9,605.7,1986.8,556.7,1926.5,556.7z"
           id="path7001" /><path
           class="st0"
           d="M2159,735.1v-136h57.6V599v-42.5H2159v-85.7h-42.5v85.7h-37.8V599h37.8v136c0,48.9,39.8,88.8,88.8,88.8h18.8     v-42.5h-18.9C2179.7,781.4,2159,760.6,2159,735.1z"
           id="path7003" /><path
           class="st0"
           d="M2436.6,470.9v108.7c-18.5-14.3-41.7-22.9-66.9-22.9c-60.3,0-109.4,49.1-109.4,109.4v17.6v6.4v26.3     c0,60.3,49.1,109.4,109.4,109.4c60.4,0,109.4-49.1,109.4-109.4v-7.7V690v-6.4V666V470.8L2436.6,470.9L2436.6,470.9z M2436.6,690     v18.6v7.7c0,36.9-30,66.9-66.9,66.9s-66.9-30-66.9-66.9V690v-6.4V666c0-36.9,30-66.9,66.9-66.9s66.9,30,66.9,66.9v17.6V690z"
           id="path7005" /></g><g
         id="g7007"><circle
           class="st0"
           cx="913.4"
           cy="325.1"
           r="21.5"
           id="circle7009" /><g
           id="g7011"><g
             id="g7013"><linearGradient
               id="SVGID_1_"
               gradientUnits="userSpaceOnUse"
               x1="-7.6401"
               y1="506.7929"
               x2="1076.4784"
               y2="506.7929"
               gradientTransform="matrix(1 0 0 -1 0 778.6)"><stop
                 offset="0"
                 style="stop-color:#FFFFFF;stop-opacity:0.75"
                 id="stop7016" /><stop
                 offset="0.32"
                 style="stop-color:#FFFFFF;stop-opacity:0.57"
                 id="stop7018" /><stop
                 offset="0.68"
                 style="stop-color:#FFFFFF;stop-opacity:0.55"
                 id="stop7020" /><stop
                 offset="0.9"
                 style="stop-color:#FFFFFF;stop-opacity:0.45"
                 id="stop7022" /></linearGradient><path
               class="st1"
               d="M404.1,194.8c-34.2-26.2-69.1-53.2-103.3-77.9l0,0c-7.9-5.6-15.9-11.1-23-16.7l0,0       C185.6,36.7,99.8-3.1,52.1,52.6c-36.5,42.9-16.7,142.2,58,262.2l2.4,4c38.9,61.2,152.5,205,421.9,198.6       c17.5-19.1,44.5-54.8,79.5-93.8C557.4,331.4,472.4,251.2,404.1,194.8z"
               id="path7024" /><linearGradient
               id="SVGID_2_"
               gradientUnits="userSpaceOnUse"
               x1="33.834"
               y1="308.1332"
               x2="1066.3086"
               y2="308.1332"
               gradientTransform="matrix(1 0 0 -1 0 778.6)"><stop
                 offset="0"
                 style="stop-color:#FFFFFF;stop-opacity:0.4"
                 id="stop7027" /><stop
                 offset="0.67"
                 style="stop-color:#FFFFFF;stop-opacity:0.5"
                 id="stop7029" /></linearGradient><path
               class="st2"
               d="M613.9,423.6c-35,38.9-62,74.7-79.5,93.8c40.5-0.8,81-4,120.8-10.3c-4-11.9-8.7-23-14.3-34.2       C632.9,456.2,623.4,439.5,613.9,423.6z"
               id="path7031" /><linearGradient
               id="SVGID_3_"
               gradientUnits="userSpaceOnUse"
               x1="403.9197"
               y1="469.0229"
               x2="1072.188"
               y2="469.0229"
               gradientTransform="matrix(1 0 0 -1 0 778.6)"><stop
                 offset="0"
                 style="stop-color:#FFFFFF;stop-opacity:0.38"
                 id="stop7034" /><stop
                 offset="0.97"
                 style="stop-color:#FFFFFF;stop-opacity:0.5"
                 id="stop7036" /></linearGradient><path
               class="st3"
               d="M815.7,275.8c-73.1,22.2-145.4,59.6-238.4,30.2c-46.9-14.3-108.1-60.4-174-110.4       c69.1,55.6,154.1,135.9,210.5,228C665.5,365.6,734.6,302,815.7,275.8z"
               id="path7038" /><linearGradient
               id="SVGID_4_"
               gradientUnits="userSpaceOnUse"
               x1="787.0565"
               y1="631.9966"
               x2="787.0565"
               y2="-102.0576"
               gradientTransform="matrix(1 0 0 -1 0 778.6)"><stop
                 offset="0"
                 style="stop-color:#4FAAC4"
                 id="stop7041" /><stop
                 offset="0"
                 style="stop-color:#FFFFFF;stop-opacity:0.35"
                 id="stop7043" /><stop
                 offset="0.9644"
                 style="stop-color:#FFFFFF;stop-opacity:0.38"
                 id="stop7045" /><stop
                 offset="1"
                 style="stop-color:#FFFFFF;stop-opacity:0.26"
                 id="stop7047" /></linearGradient><path
               class="st4"
               d="M655.2,507c3.2,8.7,6.4,17.5,8.7,26.2c5.6,21.5,9.5,42.9,11.1,65.2c0.8,9.5,0.8,19.1,0.8,28.6       c-1.6,61.2-29.4,96.1-36.5,102.5c99.3-93,143.8-205,240.7-290c16.7-14.3,35-26.2,54.8-35l0,0       C871.3,431.5,802.2,484.8,655.2,507z"
               id="path7049" /><linearGradient
               id="SVGID_5_"
               gradientUnits="userSpaceOnUse"
               x1="-77.5838"
               y1="1550.5211"
               x2="682.564"
               y2="1550.5211"
               gradientTransform="matrix(1 0 0 1 0 -972)"><stop
                 offset="0"
                 style="stop-color:#FFFFFF;stop-opacity:0.6"
                 id="stop7052" /><stop
                 offset="0.93"
                 style="stop-color:#FFFFFF;stop-opacity:0.47"
                 id="stop7054" /></linearGradient><path
               class="st5"
               d="M112.5,319.5c73.9,116,189.1,208.2,166.8,336.9C250.8,822.4,33.9,837.5,33.9,837.5s0.8,0,2.4,0       c0.8,0,1.6,0,2.4,0c21.5,0,117.6-7.2,263-105.7c124.7-85,200.2-179.6,232.8-214.5c-30.2,0.8-58-0.8-84.2-3.2       C241.2,492.7,147.5,373.5,112.5,319.5z"
               id="path7056" /><linearGradient
               id="SVGID_6_"
               gradientUnits="userSpaceOnUse"
               x1="33.8544"
               y1="90.1262"
               x2="1066.3291"
               y2="90.1262"
               gradientTransform="matrix(1 0 0 -1 0 778.6)"><stop
                 offset="0"
                 style="stop-color:#FFFFFF;stop-opacity:0.38"
                 id="stop7059" /><stop
                 offset="0.98"
                 style="stop-color:#FFFFFF;stop-opacity:0.5"
                 id="stop7061" /></linearGradient><path
               class="st6"
               d="M675,627c0.8-40.5-6.4-81.8-20.7-120c-6.4,0.8-11.9,1.6-18.3,2.4c-34.2,4-68.3,7.2-102.5,7.2       c-33.4,35-108.1,129.5-232.8,214.5c-165.3,113.6-267,106.5-267,106.5S277,913,474,833.6c61.2-23.8,117.6-59.6,165.3-104.1       C646.4,722.3,674.2,688.2,675,627z"
               id="path7063" /><linearGradient
               id="SVGID_7_"
               gradientUnits="userSpaceOnUse"
               x1="836.3331"
               y1="1595.6116"
               x2="836.3331"
               y2="1226.374"
               gradientTransform="matrix(1 0 0 1 0 -972)"><stop
                 offset="0"
                 style="stop-color:#FFFFFF;stop-opacity:0.3"
                 id="stop7066" /><stop
                 offset="1"
                 style="stop-color:#FFFFFF;stop-opacity:0.35"
                 id="stop7068" /></linearGradient><path
               class="st7"
               d="M1039.7,362.4c-11.1-5.6-21.5-12.7-30.2-20.7c-8.7-8.7-18.3-31.8-22.2-38.1       c-11.9-19.9-29.4-35.8-65.9-40.5c-36.5-4.8-70.7,2.4-104.9,12.7c-81.8,26.2-151,89.8-202.6,147.8c10.3,15.9,19.1,32.6,27,49.3       c5.6,11.1,10.3,23,14.3,34.2c147-22.2,216.1-75.5,279.7-102.5c31.8-13.5,65.9-19.9,100.1-19.1h18.3       C1066.7,386.2,1053.2,370.4,1039.7,362.4z"
               id="path7070" /></g></g><g
           id="g7072"><g
             id="g7074"><linearGradient
               id="SVGID_8_"
               gradientUnits="userSpaceOnUse"
               x1="-7.6401"
               y1="506.7929"
               x2="1076.4784"
               y2="506.7929"
               gradientTransform="matrix(1 0 0 -1 0 778.6)"><stop
                 offset="0"
                 style="stop-color:#FFFFFF;stop-opacity:0.75"
                 id="stop7077" /><stop
                 offset="0.32"
                 style="stop-color:#FFFFFF;stop-opacity:0.57"
                 id="stop7079" /><stop
                 offset="0.68"
                 style="stop-color:#FFFFFF;stop-opacity:0.55"
                 id="stop7081" /><stop
                 offset="0.9"
                 style="stop-color:#FFFFFF;stop-opacity:0.45"
                 id="stop7083" /></linearGradient><path
               class="st8"
               d="M404.1,194.8c-34.2-26.2-69.1-53.2-103.3-77.9l0,0c-7.9-5.6-15.9-11.1-23-16.7l0,0       C185.6,36.7,99.8-3.1,52.1,52.6c-36.5,42.9-16.7,142.2,58,262.2l2.4,4c38.9,61.2,152.5,205,421.9,198.6       c17.5-19.1,44.5-54.8,79.5-93.8C557.4,331.4,472.4,251.2,404.1,194.8z"
               id="path7085" /><linearGradient
               id="SVGID_9_"
               gradientUnits="userSpaceOnUse"
               x1="33.834"
               y1="308.1332"
               x2="1066.3086"
               y2="308.1332"
               gradientTransform="matrix(1 0 0 -1 0 778.6)"><stop
                 offset="0"
                 style="stop-color:#FFFFFF;stop-opacity:0.4"
                 id="stop7088" /><stop
                 offset="0.67"
                 style="stop-color:#FFFFFF;stop-opacity:0.5"
                 id="stop7090" /></linearGradient><path
               class="st9"
               d="M613.9,423.6c-35,38.9-62,74.7-79.5,93.8c40.5-0.8,81-4,120.8-10.3c-4-11.9-8.7-23-14.3-34.2       C632.9,456.2,623.4,439.5,613.9,423.6z"
               id="path7092" /><linearGradient
               id="SVGID_10_"
               gradientUnits="userSpaceOnUse"
               x1="403.9197"
               y1="469.0229"
               x2="1072.188"
               y2="469.0229"
               gradientTransform="matrix(1 0 0 -1 0 778.6)"><stop
                 offset="0"
                 style="stop-color:#FFFFFF;stop-opacity:0.38"
                 id="stop7095" /><stop
                 offset="0.97"
                 style="stop-color:#FFFFFF;stop-opacity:0.5"
                 id="stop7097" /></linearGradient><path
               class="st10"
               d="M815.7,275.8c-73.1,22.2-145.4,59.6-238.4,30.2c-46.9-14.3-108.1-60.4-174-110.4       c69.1,55.6,154.1,135.9,210.5,228C665.5,365.6,734.6,302,815.7,275.8z"
               id="path7099" /><linearGradient
               id="SVGID_11_"
               gradientUnits="userSpaceOnUse"
               x1="787.0565"
               y1="631.9966"
               x2="787.0565"
               y2="-102.0576"
               gradientTransform="matrix(1 0 0 -1 0 778.6)"><stop
                 offset="0"
                 style="stop-color:#4FAAC4"
                 id="stop7102" /><stop
                 offset="0"
                 style="stop-color:#FFFFFF;stop-opacity:0.35"
                 id="stop7104" /><stop
                 offset="0.9644"
                 style="stop-color:#FFFFFF;stop-opacity:0.38"
                 id="stop7106" /><stop
                 offset="1"
                 style="stop-color:#FFFFFF;stop-opacity:0.26"
                 id="stop7108" /></linearGradient><path
               class="st11"
               d="M655.2,507c3.2,8.7,6.4,17.5,8.7,26.2c5.6,21.5,9.5,42.9,11.1,65.2c0.8,9.5,0.8,19.1,0.8,28.6       c-1.6,61.2-29.4,96.1-36.5,102.5c99.3-93,143.8-205,240.7-290c16.7-14.3,35-26.2,54.8-35l0,0       C871.3,431.5,802.2,484.8,655.2,507z"
               id="path7110" /><linearGradient
               id="SVGID_12_"
               gradientUnits="userSpaceOnUse"
               x1="-77.5838"
               y1="1550.5211"
               x2="682.564"
               y2="1550.5211"
               gradientTransform="matrix(1 0 0 1 0 -972)"><stop
                 offset="0"
                 style="stop-color:#FFFFFF;stop-opacity:0.6"
                 id="stop7113" /><stop
                 offset="0.93"
                 style="stop-color:#FFFFFF;stop-opacity:0.47"
                 id="stop7115" /></linearGradient><path
               class="st12"
               d="M112.5,319.5c73.9,116,189.1,208.2,166.8,336.9C250.8,822.4,33.9,837.5,33.9,837.5s0.8,0,2.4,0       c0.8,0,1.6,0,2.4,0c21.5,0,117.6-7.2,263-105.7c124.7-85,200.2-179.6,232.8-214.5c-30.2,0.8-58-0.8-84.2-3.2       C241.2,492.7,147.5,373.5,112.5,319.5z"
               id="path7117" /><linearGradient
               id="SVGID_13_"
               gradientUnits="userSpaceOnUse"
               x1="33.8544"
               y1="90.1262"
               x2="1066.3291"
               y2="90.1262"
               gradientTransform="matrix(1 0 0 -1 0 778.6)"><stop
                 offset="0"
                 style="stop-color:#FFFFFF;stop-opacity:0.38"
                 id="stop7120" /><stop
                 offset="0.98"
                 style="stop-color:#FFFFFF;stop-opacity:0.5"
                 id="stop7122" /></linearGradient><path
               class="st13"
               d="M675,627c0.8-40.5-6.4-81.8-20.7-120c-6.4,0.8-11.9,1.6-18.3,2.4c-34.2,4-68.3,7.2-102.5,7.2       c-33.4,35-108.1,129.5-232.8,214.5c-165.3,113.6-267,106.5-267,106.5S277,913,474,833.6c61.2-23.8,117.6-59.6,165.3-104.1       C646.4,722.3,674.2,688.2,675,627z"
               id="path7124" /><linearGradient
               id="SVGID_14_"
               gradientUnits="userSpaceOnUse"
               x1="836.3331"
               y1="1595.6116"
               x2="836.3331"
               y2="1226.374"
               gradientTransform="matrix(1 0 0 1 0 -972)"><stop
                 offset="0"
                 style="stop-color:#FFFFFF;stop-opacity:0.3"
                 id="stop7127" /><stop
                 offset="1"
                 style="stop-color:#FFFFFF;stop-opacity:0.35"
                 id="stop7129" /></linearGradient><path
               class="st14"
               d="M1039.7,362.4c-11.1-5.6-21.5-12.7-30.2-20.7c-8.7-8.7-18.3-31.8-22.2-38.1       c-11.9-19.9-29.4-35.8-65.9-40.5c-36.5-4.8-70.7,2.4-104.9,12.7c-81.8,26.2-151,89.8-202.6,147.8c10.3,15.9,19.1,32.6,27,49.3       c5.6,11.1,10.3,23,14.3,34.2c147-22.2,216.1-75.5,279.7-102.5c31.8-13.5,65.9-19.9,100.1-19.1h18.3       C1066.7,386.2,1053.2,370.4,1039.7,362.4z"
               id="path7131" /></g></g><g
           id="g7133"><g
             id="g7135"><linearGradient
               id="SVGID_15_"
               gradientUnits="userSpaceOnUse"
               x1="-7.6401"
               y1="506.7929"
               x2="1076.4784"
               y2="506.7929"
               gradientTransform="matrix(1 0 0 -1 0 778.6)"><stop
                 offset="0"
                 style="stop-color:#FFFFFF;stop-opacity:0.75"
                 id="stop7138" /><stop
                 offset="0.32"
                 style="stop-color:#FFFFFF;stop-opacity:0.57"
                 id="stop7140" /><stop
                 offset="0.68"
                 style="stop-color:#FFFFFF;stop-opacity:0.55"
                 id="stop7142" /><stop
                 offset="0.9"
                 style="stop-color:#FFFFFF;stop-opacity:0.45"
                 id="stop7144" /></linearGradient><path
               class="st15"
               d="M404.1,194.8c-34.2-26.2-69.1-53.2-103.3-77.9l0,0c-7.9-5.6-15.9-11.1-23-16.7l0,0       C185.6,36.7,99.8-3.1,52.1,52.6c-36.5,42.9-16.7,142.2,58,262.2l2.4,4c38.9,61.2,152.5,205,421.9,198.6       c17.5-19.1,44.5-54.8,79.5-93.8C557.4,331.4,472.4,251.2,404.1,194.8z"
               id="path7146" /><linearGradient
               id="SVGID_16_"
               gradientUnits="userSpaceOnUse"
               x1="33.834"
               y1="308.1332"
               x2="1066.3086"
               y2="308.1332"
               gradientTransform="matrix(1 0 0 -1 0 778.6)"><stop
                 offset="0"
                 style="stop-color:#FFFFFF;stop-opacity:0.4"
                 id="stop7149" /><stop
                 offset="0.67"
                 style="stop-color:#FFFFFF;stop-opacity:0.5"
                 id="stop7151" /></linearGradient><path
               class="st16"
               d="M613.9,423.6c-35,38.9-62,74.7-79.5,93.8c40.5-0.8,81-4,120.8-10.3c-4-11.9-8.7-23-14.3-34.2       C632.9,456.2,623.4,439.5,613.9,423.6z"
               id="path7153" /><linearGradient
               id="SVGID_17_"
               gradientUnits="userSpaceOnUse"
               x1="403.9197"
               y1="469.0229"
               x2="1072.188"
               y2="469.0229"
               gradientTransform="matrix(1 0 0 -1 0 778.6)"><stop
                 offset="0"
                 style="stop-color:#FFFFFF;stop-opacity:0.38"
                 id="stop7156" /><stop
                 offset="0.97"
                 style="stop-color:#FFFFFF;stop-opacity:0.5"
                 id="stop7158" /></linearGradient><path
               class="st17"
               d="M815.7,275.8c-73.1,22.2-145.4,59.6-238.4,30.2c-46.9-14.3-108.1-60.4-174-110.4       c69.1,55.6,154.1,135.9,210.5,228C665.5,365.6,734.6,302,815.7,275.8z"
               id="path7160" /><linearGradient
               id="SVGID_18_"
               gradientUnits="userSpaceOnUse"
               x1="787.0565"
               y1="631.9966"
               x2="787.0565"
               y2="-102.0576"
               gradientTransform="matrix(1 0 0 -1 0 778.6)"><stop
                 offset="0"
                 style="stop-color:#4FAAC4"
                 id="stop7163" /><stop
                 offset="0"
                 style="stop-color:#FFFFFF;stop-opacity:0.35"
                 id="stop7165" /><stop
                 offset="0.9644"
                 style="stop-color:#FFFFFF;stop-opacity:0.38"
                 id="stop7167" /><stop
                 offset="1"
                 style="stop-color:#FFFFFF;stop-opacity:0.26"
                 id="stop7169" /></linearGradient><path
               class="st18"
               d="M655.2,507c3.2,8.7,6.4,17.5,8.7,26.2c5.6,21.5,9.5,42.9,11.1,65.2c0.8,9.5,0.8,19.1,0.8,28.6       c-1.6,61.2-29.4,96.1-36.5,102.5c99.3-93,143.8-205,240.7-290c16.7-14.3,35-26.2,54.8-35l0,0       C871.3,431.5,802.2,484.8,655.2,507z"
               id="path7171" /><linearGradient
               id="SVGID_19_"
               gradientUnits="userSpaceOnUse"
               x1="-77.5838"
               y1="1550.5211"
               x2="682.564"
               y2="1550.5211"
               gradientTransform="matrix(1 0 0 1 0 -972)"><stop
                 offset="0"
                 style="stop-color:#FFFFFF;stop-opacity:0.6"
                 id="stop7174" /><stop
                 offset="0.93"
                 style="stop-color:#FFFFFF;stop-opacity:0.47"
                 id="stop7176" /></linearGradient><path
               class="st19"
               d="M112.5,319.5c73.9,116,189.1,208.2,166.8,336.9C250.8,822.4,33.9,837.5,33.9,837.5s0.8,0,2.4,0       c0.8,0,1.6,0,2.4,0c21.5,0,117.6-7.2,263-105.7c124.7-85,200.2-179.6,232.8-214.5c-30.2,0.8-58-0.8-84.2-3.2       C241.2,492.7,147.5,373.5,112.5,319.5z"
               id="path7178" /><linearGradient
               id="SVGID_20_"
               gradientUnits="userSpaceOnUse"
               x1="33.8544"
               y1="90.1262"
               x2="1066.3291"
               y2="90.1262"
               gradientTransform="matrix(1 0 0 -1 0 778.6)"><stop
                 offset="0"
                 style="stop-color:#FFFFFF;stop-opacity:0.38"
                 id="stop7181" /><stop
                 offset="0.98"
                 style="stop-color:#FFFFFF;stop-opacity:0.5"
                 id="stop7183" /></linearGradient><path
               class="st20"
               d="M675,627c0.8-40.5-6.4-81.8-20.7-120c-6.4,0.8-11.9,1.6-18.3,2.4c-34.2,4-68.3,7.2-102.5,7.2       c-33.4,35-108.1,129.5-232.8,214.5c-165.3,113.6-267,106.5-267,106.5S277,913,474,833.6c61.2-23.8,117.6-59.6,165.3-104.1       C646.4,722.3,674.2,688.2,675,627z"
               id="path7185" /><linearGradient
               id="SVGID_21_"
               gradientUnits="userSpaceOnUse"
               x1="836.3331"
               y1="1595.6116"
               x2="836.3331"
               y2="1226.374"
               gradientTransform="matrix(1 0 0 1 0 -972)"><stop
                 offset="0"
                 style="stop-color:#FFFFFF;stop-opacity:0.3"
                 id="stop7188" /><stop
                 offset="1"
                 style="stop-color:#FFFFFF;stop-opacity:0.35"
                 id="stop7190" /></linearGradient><path
               class="st21"
               d="M1039.7,362.4c-11.1-5.6-21.5-12.7-30.2-20.7c-8.7-8.7-18.3-31.8-22.2-38.1       c-11.9-19.9-29.4-35.8-65.9-40.5c-36.5-4.8-70.7,2.4-104.9,12.7c-81.8,26.2-151,89.8-202.6,147.8c10.3,15.9,19.1,32.6,27,49.3       c5.6,11.1,10.3,23,14.3,34.2c147-22.2,216.1-75.5,279.7-102.5c31.8-13.5,65.9-19.9,100.1-19.1h18.3       C1066.7,386.2,1053.2,370.4,1039.7,362.4z"
               id="path7192" /></g></g><g
           id="g7194"><g
             id="g7196"><linearGradient
               id="SVGID_22_"
               gradientUnits="userSpaceOnUse"
               x1="-7.6401"
               y1="506.7929"
               x2="1076.4784"
               y2="506.7929"
               gradientTransform="matrix(1 0 0 -1 0 778.6)"><stop
                 offset="0"
                 style="stop-color:#FFFFFF;stop-opacity:0.75"
                 id="stop7199" /><stop
                 offset="0.32"
                 style="stop-color:#FFFFFF;stop-opacity:0.57"
                 id="stop7201" /><stop
                 offset="0.68"
                 style="stop-color:#FFFFFF;stop-opacity:0.55"
                 id="stop7203" /><stop
                 offset="0.9"
                 style="stop-color:#FFFFFF;stop-opacity:0.45"
                 id="stop7205" /></linearGradient><path
               class="st22"
               d="M404.1,194.8c-34.2-26.2-69.1-53.2-103.3-77.9l0,0c-7.9-5.6-15.9-11.1-23-16.7l0,0       C185.6,36.7,99.8-3.1,52.1,52.6c-36.5,42.9-16.7,142.2,58,262.2l2.4,4c38.9,61.2,152.5,205,421.9,198.6       c17.5-19.1,44.5-54.8,79.5-93.8C557.4,331.4,472.4,251.2,404.1,194.8z"
               id="path7207" /><linearGradient
               id="SVGID_23_"
               gradientUnits="userSpaceOnUse"
               x1="33.834"
               y1="308.1332"
               x2="1066.3086"
               y2="308.1332"
               gradientTransform="matrix(1 0 0 -1 0 778.6)"><stop
                 offset="0"
                 style="stop-color:#FFFFFF;stop-opacity:0.4"
                 id="stop7210" /><stop
                 offset="0.67"
                 style="stop-color:#FFFFFF;stop-opacity:0.5"
                 id="stop7212" /></linearGradient><path
               class="st23"
               d="M613.9,423.6c-35,38.9-62,74.7-79.5,93.8c40.5-0.8,81-4,120.8-10.3c-4-11.9-8.7-23-14.3-34.2       C632.9,456.2,623.4,439.5,613.9,423.6z"
               id="path7214" /><linearGradient
               id="SVGID_24_"
               gradientUnits="userSpaceOnUse"
               x1="403.9197"
               y1="469.0229"
               x2="1072.188"
               y2="469.0229"
               gradientTransform="matrix(1 0 0 -1 0 778.6)"><stop
                 offset="0"
                 style="stop-color:#FFFFFF;stop-opacity:0.38"
                 id="stop7217" /><stop
                 offset="0.97"
                 style="stop-color:#FFFFFF;stop-opacity:0.5"
                 id="stop7219" /></linearGradient><path
               class="st24"
               d="M815.7,275.8c-73.1,22.2-145.4,59.6-238.4,30.2c-46.9-14.3-108.1-60.4-174-110.4       c69.1,55.6,154.1,135.9,210.5,228C665.5,365.6,734.6,302,815.7,275.8z"
               id="path7221" /><linearGradient
               id="SVGID_25_"
               gradientUnits="userSpaceOnUse"
               x1="787.0565"
               y1="631.9966"
               x2="787.0565"
               y2="-102.0576"
               gradientTransform="matrix(1 0 0 -1 0 778.6)"><stop
                 offset="0"
                 style="stop-color:#4FAAC4"
                 id="stop7224" /><stop
                 offset="0"
                 style="stop-color:#FFFFFF;stop-opacity:0.35"
                 id="stop7226" /><stop
                 offset="0.9644"
                 style="stop-color:#FFFFFF;stop-opacity:0.38"
                 id="stop7228" /><stop
                 offset="1"
                 style="stop-color:#FFFFFF;stop-opacity:0.26"
                 id="stop7230" /></linearGradient><path
               class="st25"
               d="M655.2,507c3.2,8.7,6.4,17.5,8.7,26.2c5.6,21.5,9.5,42.9,11.1,65.2c0.8,9.5,0.8,19.1,0.8,28.6       c-1.6,61.2-29.4,96.1-36.5,102.5c99.3-93,143.8-205,240.7-290c16.7-14.3,35-26.2,54.8-35l0,0       C871.3,431.5,802.2,484.8,655.2,507z"
               id="path7232" /><linearGradient
               id="SVGID_26_"
               gradientUnits="userSpaceOnUse"
               x1="-77.5838"
               y1="1550.5211"
               x2="682.564"
               y2="1550.5211"
               gradientTransform="matrix(1 0 0 1 0 -972)"><stop
                 offset="0"
                 style="stop-color:#FFFFFF;stop-opacity:0.6"
                 id="stop7235" /><stop
                 offset="0.93"
                 style="stop-color:#FFFFFF;stop-opacity:0.47"
                 id="stop7237" /></linearGradient><path
               class="st26"
               d="M112.5,319.5c73.9,116,189.1,208.2,166.8,336.9C250.8,822.4,33.9,837.5,33.9,837.5s0.8,0,2.4,0       c0.8,0,1.6,0,2.4,0c21.5,0,117.6-7.2,263-105.7c124.7-85,200.2-179.6,232.8-214.5c-30.2,0.8-58-0.8-84.2-3.2       C241.2,492.7,147.5,373.5,112.5,319.5z"
               id="path7239" /><linearGradient
               id="SVGID_27_"
               gradientUnits="userSpaceOnUse"
               x1="33.8544"
               y1="90.1262"
               x2="1066.3291"
               y2="90.1262"
               gradientTransform="matrix(1 0 0 -1 0 778.6)"><stop
                 offset="0"
                 style="stop-color:#FFFFFF;stop-opacity:0.38"
                 id="stop7242" /><stop
                 offset="0.98"
                 style="stop-color:#FFFFFF;stop-opacity:0.5"
                 id="stop7244" /></linearGradient><path
               class="st27"
               d="M675,627c0.8-40.5-6.4-81.8-20.7-120c-6.4,0.8-11.9,1.6-18.3,2.4c-34.2,4-68.3,7.2-102.5,7.2       c-33.4,35-108.1,129.5-232.8,214.5c-165.3,113.6-267,106.5-267,106.5S277,913,474,833.6c61.2-23.8,117.6-59.6,165.3-104.1       C646.4,722.3,674.2,688.2,675,627z"
               id="path7246" /><linearGradient
               id="SVGID_28_"
               gradientUnits="userSpaceOnUse"
               x1="836.3331"
               y1="1595.6116"
               x2="836.3331"
               y2="1226.374"
               gradientTransform="matrix(1 0 0 1 0 -972)"><stop
                 offset="0"
                 style="stop-color:#FFFFFF;stop-opacity:0.3"
                 id="stop7249" /><stop
                 offset="1"
                 style="stop-color:#FFFFFF;stop-opacity:0.35"
                 id="stop7251" /></linearGradient><path
               class="st28"
               d="M1039.7,362.4c-11.1-5.6-21.5-12.7-30.2-20.7c-8.7-8.7-18.3-31.8-22.2-38.1       c-11.9-19.9-29.4-35.8-65.9-40.5c-36.5-4.8-70.7,2.4-104.9,12.7c-81.8,26.2-151,89.8-202.6,147.8c10.3,15.9,19.1,32.6,27,49.3       c5.6,11.1,10.3,23,14.3,34.2c147-22.2,216.1-75.5,279.7-102.5c31.8-13.5,65.9-19.9,100.1-19.1h18.3       C1066.7,386.2,1053.2,370.4,1039.7,362.4z"
               id="path7253" /></g></g></g></g></g></svg>