<?xml version="1.0" encoding="UTF-8"?><svg id="Layer_1" xmlns="http://www.w3.org/2000/svg" viewBox="0 0 315.44999 243.06551"><defs><style>.cls-1{fill:#fff;}</style></defs><polygon class="cls-1" points="203.4082 36.34991 199.02155 40.61114 203.02557 42.4414 203.4082 36.34991"/><polygon class="cls-1" points="119.85419 38.78064 115.69916 34.30981 115.77039 40.42553 119.85419 38.78064"/><path class="cls-1" d="m233.18085,58.95324c2.216-2.50513,1.88483-5.94189-.77368-8.29358l-2.40277-2.12555-7.57483,8.56305,2.40277,2.12543c2.6582,2.35156,6.13275,2.23553,8.34851-.26935Z"/><path class="cls-1" d="m253.33502,85.49957c2.823-1.72974,3.78271-5.52026,2.10712-8.25562-1.67609-2.7356-5.48907-3.60168-8.31183-1.87231-2.85205,1.74744-3.81207,5.53748-2.13641,8.27325,1.67596,2.73566,5.48907,3.60193,8.34113,1.85468Z"/><path class="cls-1" d="m266.2442,111.90985c1.22052-.32428,1.82196-1.64941,1.41895-3.16669l-1.04242-3.92517-4.22223,1.12146,1.04242,3.92511c.40302,1.51733,1.58319,2.36938,2.80328,2.04529Z"/><path class="cls-1" d="m82.11206,175.45007c-6.20264-11.93359-9.4942-25.2608-9.4942-39.09564,0-22.68372,8.8335-44.00958,24.87329-60.04944,16.03979-16.03979,37.36591-24.87317,60.0495-24.87317s44.00983,8.83337,60.04968,24.87317c16.03979,16.03986,24.87317,37.36572,24.87317,60.04944,0,13.83484-3.29163,27.16205-9.49426,39.09564h49.00647c3.96136-12.59406,5.96564-25.6955,5.96564-39.09564,0-17.59393-3.45105-34.67352-10.25708-50.76453-6.56873-15.53076-15.9682-29.47388-27.93652-41.44244-11.96844-11.96832-25.91156-21.36768-41.44232-27.93658-16.091-6.80591-33.17072-10.25677-50.76477-10.25677s-34.67358,3.45087-50.76471,10.25677c-15.53064,6.56891-29.47388,15.96826-41.44232,27.93658-11.96844,11.96857-21.36761,25.91168-27.93652,41.44244-6.80591,16.091-10.2569,33.17059-10.2569,50.76453,0,13.40015,2.00421,26.50159,5.96545,39.09564h49.00641Zm191.49652-67.72101c1.34918,5.07977-.9613,9.54236-5.61212,10.77777-3.36469.89368-6.46948-.29413-8.46985-2.90576l-6.14294,7.31677-1.9364-7.28967,5.55756-6.59625-.41168-1.55035-6.8277,1.81366-1.69971-6.39917,22.66052-6.01886,2.88232,10.85187Zm-30.04449-38.17798c5.61688-3.44104,13.38055-1.35297,17.00012,4.55505,3.61951,5.90778,1.95367,13.77271-3.66309,17.21387-5.61707,3.44116-13.40979,1.37109-17.02899-4.53699-3.61957-5.90778-1.92468-13.79077,3.69196-17.23193Zm-14.53888-29.90216l6.54352,5.78851c6.13458,5.42664,7.26935,12.90027,2.72455,18.03821-4.54498,5.13757-12.12384,4.94885-18.25842-.47797l-6.54382-5.78833,15.53418-17.56042Zm-24.98773-13.70551l6.79718,3.10681-1.552,25.06909-6.79736-3.10693.21875-3.35211-7.41809-3.39044-2.39166,2.35895-6.79773-3.10693,17.94092-17.57843Zm-31.2486,6.45288c-4.85181-1.91339-8.53101-3.82056-7.79584-8.64484.70459-4.62195,4.80621-7.06915,10.30536-6.23083,4.01453.61188,6.98755,2.16974,9.23755,4.61847l-3.97693,4.12317c-1.92255-1.8811-4.16608-3.01703-6.25739-3.33575-1.58588-.24182-2.45953.28101-2.59314,1.15796-.17987,1.18085.57336,1.6756,3.77136,2.88788,5.22302,1.96991,8.37561,3.93488,7.70172,8.35431-.74567,4.89197-4.92737,7.18878-10.73022,6.3042-4.18335-.63763-7.92993-2.55518-10.46912-5.60028l4.30695-3.79663c2.07904,2.21564,4.49347,3.58466,7.22614,4.00104,1.78839.27271,2.8255-.19055,2.97955-1.2027.16968-1.11328-.61414-1.40515-3.70599-2.63599Zm-28.58398-15.54584c4.03925-.42517,7.30994.32812,10.1076,2.12701l-2.80237,4.9967c-2.33679-1.3324-4.7948-1.86273-6.89929-1.64111-1.59509.16797-2.30786.8952-2.21478,1.77765.125,1.18781.979,1.47546,4.38037,1.83783,5.55212.58185,9.09985,1.68353,9.56842,6.13.51837,4.92163-2.94525,8.20343-8.78302,8.8183-4.20862.44342-8.31934-.46179-11.54761-2.7644l3.20465-4.76428c2.57233,1.61646,5.25574,2.32904,8.00488,2.03925,1.79883-.18964,2.68494-.90039,2.57758-1.9187-.11798-1.12024-.95068-1.20416-4.25372-1.61121-5.17871-.62109-9.22125-1.53339-9.73273-6.38721-.48956-4.64996,2.8576-8.05688,8.39001-8.63983Zm-28.68854,7.04712l17.11664,18.3833-6.93335,2.79193-2.28082-2.46619-7.56616,3.0473.0647,3.35864-6.93304,2.7923-.40131-25.11523,6.93335-2.79205Zm-31.26379,17.14197c3.50293-2.77838,7.48438-2.75635,9.60529-.08228,1.42096,1.7915,1.71521,4.08502.72546,6.13263,2.86078-.78735,5.49585-.04596,7.10779,1.98596,2.33282,2.94159,1.24957,7.06799-2.49426,10.03723l-10.26819,8.14398-14.57013-18.37048,9.89404-7.84705Zm-30.46423,33.54193l12.78717,1.11206-5.71655-11.49237,3.72748-5.47198,19.3783,13.19983-3.72766,5.47217-10.37988-7.07062,5.71643,11.49207-12.78735-1.11224,10.38031,7.07092-3.7276,5.47205-19.37805-13.19995,3.72742-5.47192Zm-11.53552,25.46777l25.02631-2.13147-2.07916,7.17859-3.34814.27368-2.26917,7.83441,2.68378,2.021-2.07947,7.17859-20.01331-15.17621,2.07916-7.17859Z"/><polygon class="cls-1" points="55.41754 110.04419 56.64209 105.81543 50.56024 106.328 55.41754 110.04419"/><path class="cls-1" d="m94.88428,55.43304c1.12305-.89062,1.43756-2.14215.75879-2.99774-.67859-.85577-1.96869-.83441-3.09186.05615l-4.25146,3.37225,2.33276,2.94147,4.25177-3.37213Z"/><path class="cls-1" d="m89.40063,46.3222c-.63654-.80255-1.87842-.7757-2.94824.07263l-3.47595,2.75732,2.20544,2.78076,3.47638-2.75714c1.06964-.84814,1.37854-2.05157.74237-2.85358Z"/><polygon class="cls-1" points="265.13257 225.27899 268.78326 225.27899 268.78326 235.35791 271.56085 235.35791 271.56085 225.27899 275.13214 225.27899 275.13214 222.89807 265.13257 222.89807 265.13257 225.27899"/><path class="cls-1" d="m153.31226,191.471h-4.99969v12.38043c.07935,1.50775-.31744,2.93634-1.19049,4.20612-.31738.4762-.87292.95239-1.42841,1.19037-.55554.3175-1.19049.39685-1.82532.39685-.63495,0-1.34924-.15875-1.90479-.39685-.55548-.23798-1.11102-.63489-1.50775-1.19037-.87305-1.19049-1.34924-2.69836-1.34924-4.20612v-12.38043h-4.99969v12.53906c0,3.25385.87292,5.71405,2.69824,7.46002.87305.87292,1.98407,1.50787,3.1745,1.98407,1.19037.47614,2.46014.63483,3.72998.63483s2.53955-.15869,3.72992-.63483c1.19043-.39685,2.22217-1.11115,3.1745-1.98407,1.82532-1.74597,2.69824-4.20618,2.69824-7.46002v-12.53906Z"/><path class="cls-1" d="m166.56573,191.3916h-7.93622v22.45929h7.7774c4.20618,0,7.46002-.95227,9.52344-3.01569s3.09509-4.84106,3.09509-8.33301-1.11115-6.19019-3.25391-8.17413c-2.1427-1.98407-5.23779-2.93646-9.20581-2.93646Zm5.55524,16.2691c-1.42847,1.26978-3.33319,1.82532-5.23785,1.66663h-3.1745v-13.65015h2.77765c2.53961,0,4.44421.63483,5.6347,1.82526,1.19043,1.19049,1.82532,2.85706,1.82532,5.07916s-.63489,3.96808-1.82532,5.0791Z"/><path class="cls-1" d="m129.34509,206.94653c.5556-1.34924.87305-2.93646.79364-4.44434.07941-1.50787-.23804-3.01569-.79364-4.44421-.55548-1.42847-1.42847-2.69824-2.53949-3.72992-2.30157-2.14288-5.23792-3.33319-8.41235-3.33319s-6.11084,1.19031-8.41235,3.33319c-1.11102,1.03168-1.98395,2.30145-2.53949,3.72992-.5556,1.34912-.87299,2.93634-.7937,4.44421,0,.66559.06519,1.33081.18207,1.98956.14795.83362.38068,1.65668.69098,2.45477.55554,1.42847,1.42847,2.69824,2.53961,3.72992,2.30145,2.14276,5.23779,3.33319,8.41223,3.33319,1.20422,0,2.37396-.17212,3.48804-.50177,1.82263-.53931,3.49585-1.50153,4.92432-2.83142,1.11102-1.03168,1.98407-2.30145,2.46014-3.72992Zm-4.68231-1.66669c-.31738.87299-.87292,1.66669-1.50787,2.38086-.55548.71429-1.34912,1.19043-2.1427,1.58722-.87299.39685-1.74597.5556-2.61896.5556-.87292,0-1.82532-.15875-2.6189-.5556-.79358-.39679-1.50787-.95227-2.1427-1.58722-1.26984-1.42847-1.98407-3.25378-1.98407-5.15851s.71423-3.72992,1.98407-5.15851c.55548-.71417,1.34912-1.19037,2.1427-1.58722.87292-.39673,1.74597-.55548,2.6189-.55548.87299,0,1.82532.15875,2.61896.55548.79358.39685,1.50787.95239,2.1427,1.58722,1.26978,1.42859,1.98407,3.25385,1.98407,5.15851.07935.95239-.07935,1.82532-.4762,2.77765Z"/><path class="cls-1" d="m251.35193,226.91876c-.03357-.09784-.06927-.19489-.10767-.29065-.31738-.79358-.79358-1.58722-1.42841-2.1427-1.11108-1.11115-2.85706-1.66663-5.15851-1.66663h-4.44421v12.61847h4.28546c2.46021,0,4.28552-.63495,5.39655-1.74597.55554-.63489,1.03174-1.34912,1.34912-2.14276.31744-.79358.4762-1.58722.39685-2.46021.06976-.69781-.0448-1.45691-.28918-2.16956Zm-2.57855,2.59418c-.02332.40973-.09711.8515-.22736,1.242-.15875.4762-.47614.87292-.79358,1.26978-.73364.58691-1.73792.89978-2.70056,1.00684-.07874.00879-.15778.0188-.2359.02484h-1.82532v-7.61871h1.58734c.55554-.07935,1.11102,0,1.66656.15875.55548.15869,1.03168.39673,1.50787.79358.31744.39679.63483.87299.79358,1.34918.15875.47614.2381.95233.2381,1.50787,0,.08557-.00555.17596-.01074.26587Z"/><path class="cls-1" d="m306.71796,222.81878s.07941,8.09479,0,8.09479l-6.19019-8.09479h-2.61896v12.61847h2.85706v-7.85687l5.95209,7.85687h2.77765v-12.61847h-2.77765Z"/><path class="cls-1" d="m291.48053,222.97753c-.79358-.31757-1.6665-.4762-2.53955-.4762-1.74591,0-3.41254.71429-4.68231,1.90466-1.19037,1.19043-1.90466,2.85699-1.90466,4.60297s.71429,3.41254,1.90466,4.60297c.63495.63483,1.34912,1.11102,2.14282,1.42847.79358.3175,1.66656.4762,2.53961.4762,1.74585,0,3.41241-.71429,4.68231-1.90466,1.19031-1.19043,1.9046-2.85699,1.9046-4.60297s-.71429-3.41254-1.9046-4.60297c-.63495-.63489-1.34924-1.11108-2.14288-1.42847Zm.2381,8.88843c-.31738.39685-.71423.71429-1.19037.95239-.39685.23804-.95233.31738-1.42853.31738-.47607,0-.95227-.07935-1.42847-.31738-.4762-.2381-.87305-.4762-1.19043-.87305-.63489-.79364-1.03174-1.82532-1.03174-2.85699,0-.47614.07947-.95227.2381-1.50793.15875-.55548.39685-.95227.79364-1.34912.31738-.39673.71423-.71417,1.19043-.95227.39685-.2381.95227-.3175,1.42847-.3175s.95239.07941,1.42853.3175.87299.47614,1.19037.87299c.63489.79358,1.03174,1.82526,1.03174,2.85699,0,1.11102-.39685,2.1427-1.03174,2.85699Z"/><rect class="cls-1" x="277.11609" y="222.81878" width="2.77771" height="12.61847"/><polygon class="cls-1" points="309.01947 209.40667 297.43268 209.40667 297.43268 204.72436 307.51154 204.72436 307.51154 200.43878 297.43268 200.43878 297.43268 195.83593 308.62268 195.83593 308.62268 191.42511 308.62268 191.3916 292.51233 191.471 292.51233 213.85089 309.01947 213.85089 309.01947 209.40667"/><polygon class="cls-1" points="284.41742 191.3916 278.70343 205.67675 274.35834 194.34179 273.22748 191.3916 267.75159 191.3916 271.26642 200.19445 276.71936 213.85089 280.9256 213.85089 289.89331 191.3916 284.41742 191.3916"/><path class="cls-1" d="m262.43024,213.85089h2.38489v-22.45929h-4.99969v22.45929h2.61481Z"/><polygon class="cls-1" points="234.34033 222.81878 234.41968 230.91357 228.22949 222.81878 225.61053 222.81878 225.61053 235.43725 228.38824 235.43725 228.38824 227.58038 234.34033 235.43725 237.11804 235.43725 237.11804 222.81878 234.37384 222.81878 234.34033 222.81878"/><path class="cls-1" d="m68.95105,226.15197c.71423-.63489,1.66663-1.03174,2.6983-1.03174.71429,0,1.34912.07935,1.90466.39685.5556.31744,1.03168.71417,1.42853,1.26971l1.74597-1.98395c-.71423-.71429-1.50787-1.34924-2.38092-1.74597-.87292-.39691-1.9046-.55554-2.85699-.55554-.87292,0-1.74585.15863-2.53949.4762-.79358.31738-1.50787.79358-2.14282,1.42847-.63483.63489-1.11102,1.34912-1.42841,2.1427-.20764.5191-.34033,1.07336-.41217,1.63812-.03802.29871-.06403.59943-.06403.90149,0,.87299.15863,1.74597.4762,2.53955.31738.79364.79358,1.50787,1.42841,2.06342.63495.63495,1.42859,1.11102,2.22217,1.42853.79364.31744,1.66656.39679,2.53961.39679.38611,0,.77203-.04089,1.15289-.11395.55835-.10693,1.10577-.28503,1.62463-.52094.95239-.39685,1.66669-1.03168,2.30151-1.74597l-1.82532-1.9046c-.39673.55548-.95227.95227-1.50787,1.26965-.63483.2381-1.26978.39685-1.9046.39685-.4762,0-.87299-.2381-1.34918-.39685-.47614-.15863-.87299-.47607-1.19043-.79358-.31744-.31744-.63483-.79364-.79358-1.26971-.15869-.4762-.2381-1.03168-.2381-1.50787-.07935-.4762.07941-1.03168.2381-1.50787.15875-.4762.47614-.95239.87292-1.26978Z"/><path class="cls-1" d="m205.61151,222.97753c-.79358-.31757-1.66663-.4762-2.53955-.4762-1.74597,0-3.41254.71429-4.68231,1.90466-1.19049,1.19043-1.90466,2.85699-1.90466,4.60297s.71417,3.41254,1.90466,4.60297c.63483.63483,1.34912,1.11102,2.1427,1.42847.79364.3175,1.66663.4762,2.53961.4762,1.74597,0,3.41248-.71429,4.68231-1.90466,1.19043-1.19043,1.90472-2.85699,1.90472-4.60297s-.71429-3.41254-1.90472-4.60297c-.63489-.63489-1.34912-1.11108-2.14276-1.42847Zm.87292,7.53931c-.15863.55548-.39673.95239-.79358,1.34912-.31744.39685-.71429.71429-1.19037.95239-.39685.23804-.95239.31738-1.42853.31738-.4762,0-.95239-.07935-1.42847-.31738-.4762-.2381-.87305-.4762-1.19049-.87305-.63495-.79364-1.03168-1.82532-1.03168-2.85699,0-.47614.07935-.95227.2381-1.50793.15863-.55548.39673-.95227.79358-1.34912.31744-.39673.71429-.71417,1.19049-.95227.39673-.2381.95227-.3175,1.42847-.3175.47614,0,.95233.07941,1.42853.3175.47607.2381.87292.47614,1.19037.87299.71429.79358,1.03168,1.82526,1.03168,2.85699.07935.55548-.07928.95233-.2381,1.50787Z"/><path class="cls-1" d="m176.08899,228.92962h-.2381v3.57117c-.71417.39685-1.50775.63495-2.3808.5556-.4762,0-.95239-.07941-1.34912-.23804-.39685-.15881-.79364-.4762-1.11102-.79364-.71429-.79358-1.03174-1.82532-1.03174-2.85699-.07928-.55554.07935-1.03168.2381-1.58734.15869-.55548.4762-.95227.87292-1.34912.71429-.63483,1.66656-1.03168,2.6983-1.03168.47614,0,1.03168.15875,1.50787.31744.63495.15875,1.19043.47614,1.58722.95233l1.42853-2.1427c-1.26978-1.19049-2.93634-1.82532-4.68231-1.82532-.87292,0-1.74597.15863-2.53961.4762-.79358.31738-1.50787.79358-2.1427,1.42847-.63495.63489-1.11115,1.34912-1.42853,2.1427-.31744.79358-.4762,1.66663-.4762,2.53961s.15875,1.74597.4762,2.53955c.31738.79364.79358,1.50787,1.42853,2.06342,1.26978,1.19043,2.93634,1.82532,4.68231,1.82532.95239.07928,1.98407-.07935,2.85699-.4762.87292-.31744,1.74597-.87292,2.38086-1.58722v-4.44421h-2.77771v-.07935Z"/><path class="cls-1" d="m186.16791,235.43725h2.77765v-4.92041h5.47595v-2.53961h-5.47595v-2.69824h5.79346v-2.46021s-8.65045,0-8.57111,0v12.61847Z"/><polygon class="cls-1" points="161.96271 222.81878 162.04205 230.91357 155.85187 222.81878 153.23297 222.81878 153.23297 235.43725 156.01062 235.43725 156.01062 227.58038 161.96271 235.43725 164.7403 235.43725 164.7403 222.81878 161.99622 222.81878 161.96271 222.81878"/><polygon class="cls-1" points="249.89514 213.85089 249.89514 195.75647 256.32343 195.75647 256.32343 191.471 238.54645 191.471 238.54645 195.75647 244.89545 195.75647 244.89545 213.85089 249.89514 213.85089"/><polygon class="cls-1" points="207.51617 205.83538 207.12115 205.31811 196.48486 191.3916 191.80255 191.3916 191.80255 213.85089 192.37207 213.85089 196.80243 213.85089 196.80243 211.69696 196.80243 199.80395 203.09674 208.05651 207.51617 213.85089 212.51587 213.85089 212.51587 201.08367 212.51587 191.3916 207.51617 191.3916 207.51617 205.03216 207.51617 205.83538"/><path class="cls-1" d="m86.56934,209.80352l-3.25385-3.33319c-.71429.95227-1.66656,1.74585-2.69824,2.22205-1.11115.4762-2.22217.71429-3.41254.71429-1.66663,0-3.33319-.63483-4.60297-1.66656-.71429-.63495-1.19043-1.42853-1.50787-2.30145-.31744-.87305-.4762-1.74597-.39685-2.69836,0-.87292.15875-1.82532.4762-2.69824.39685-.87292.87292-1.66663,1.58722-2.30151,1.34912-1.19043,3.09509-1.82532,4.84106-1.82532,1.19043,0,2.30145.31744,3.33319.79364,1.03168.4762,1.9046,1.19043,2.6189,2.1427l3.09509-3.57123c-1.11102-1.26971-2.3808-2.30151-3.88873-3.01569-1.50787-.71429-3.09509-1.11115-4.7616-1.19049-1.66669-.07928-3.33319.15875-4.84106.71429-1.50793.55554-2.93646,1.42847-4.12683,2.53961-1.11102,1.11102-1.98407,2.3808-2.53955,3.80933-.55554,1.42847-.87299,3.01569-.79364,4.52356-.07935,1.50787.2381,3.01581.79364,4.44421.55548,1.34912,1.42853,2.69836,2.53955,3.73004,1.19037,1.03174,2.53961,1.90466,3.96802,2.46014,1.50793.63495,3.01581.87299,4.60303.79364,3.49194,0,6.42828-1.42847,8.96783-4.28546Z"/><path class="cls-1" d="m86.96613,222.97753c-.79364-.31757-1.66656-.4762-2.53961-.4762-1.74585,0-3.41254.71429-4.68231,1.90466-1.19037,1.19043-1.9046,2.85699-1.9046,4.60297s.71423,3.41254,1.9046,4.60297c.63495.63483,1.34924,1.11102,2.14282,1.42847.79364.3175,1.66656.4762,2.53949.4762,1.74597,0,3.41266-.71429,4.68243-1.90466,1.19037-1.19043,1.9046-2.85699,1.9046-4.60297s-.71423-3.41254-1.9046-4.60297c-.63495-.63489-1.34924-1.11108-2.14282-1.42847Zm.2381,8.88843c-.31744.39685-.71429.71429-1.19037.95239-.39685.23804-.95239.31738-1.42859.31738s-.95233-.07935-1.42853-.31738c-.47607-.2381-.87292-.4762-1.19037-.87305-.63495-.79364-1.03168-1.82532-1.03168-2.85699,0-.47614.07928-1.03174.2381-1.50793.15863-.55548.39673-.95227.79358-1.34912.31744-.39673.71429-.71417,1.19037-.95227.39685-.2381.95233-.3175,1.42853-.3175s.95239.07941,1.42859.3175c.47607.2381.87292.47614,1.19037.87299.71423.79358,1.03168,1.82526,1.03168,2.85699,0,1.11102-.39673,2.1427-1.03168,2.85699Z"/><path class="cls-1" d="m133.47192,222.73944h-2.77759v6.98376c0,.79364-.2381,1.66656-.71429,2.38086-.2381.2381-.55548.4762-.87292.63483-.3175.15875-.63495.2381-1.03168.2381-.31757,0-.71429-.07935-1.03174-.2381-.39685-.15863-.63495-.31738-.87305-.63483-.55548-.71429-.79358-1.58722-.63483-2.46014v-6.98395h-2.77765v6.98395c-.07935.79358.07928,1.58722.31738,2.30139.2381.71423.63495,1.42853,1.19049,1.98407,1.03168.95233,2.3808,1.50787,3.80939,1.50787,1.42841,0,2.85699-.4762,3.88867-1.42859.55554-.55548.95227-1.26978,1.19037-1.98395.2381-.79358.39685-1.50787.31744-2.30151v-6.98376Z"/><rect class="cls-1" x="147.28082" y="222.81878" width="2.77771" height="12.61847"/><polygon class="cls-1" points="100.45764 229.7232 97.2038 222.81878 93.39441 222.81878 93.39441 235.35791 96.17206 235.35791 96.17206 227.42175 99.58459 234.32623 101.25122 234.32623 104.66376 227.42175 104.7431 235.43725 107.52075 235.43725 107.52075 222.81878 103.71136 222.81878 100.45764 229.7232"/><path class="cls-1" d="m135.2973,225.27899h3.57117v10.07892h2.77771v-10.07892h3.65057v-2.38092h-9.99945v2.38092Z"/><path class="cls-1" d="m222.67426,222.73944h-2.77771v6.98376c0,.79364-.2381,1.66656-.71429,2.38086-.2381.2381-.55548.4762-.87292.63483-.31738.15875-.71429.2381-1.03168.2381-.31744,0-.71429-.07935-1.03174-.2381-.39685-.15863-.63489-.31738-.87292-.63483-.5556-.63483-.79358-1.58722-.63495-2.46014v-6.98395h-2.77765v6.98395c-.07935.79358.07941,1.58722.3175,2.30139.23798.71423.63483,1.42853,1.19037,1.98407,1.03168.95233,2.3808,1.50787,3.80939,1.50787,1.42847,0,2.85699-.4762,3.88867-1.42859.55554-.55548.95239-1.26978,1.19049-1.98395.23798-.79358.39673-1.50787.31744-2.30151v-6.98376Z"/><path class="cls-1" d="m119.26624,224.00921c-.95227-.79358-2.30139-1.19043-4.20618-1.19043h-4.44421v12.61847h2.85699v-3.49194h1.66656c1.82544,0,3.25385-.2381,4.12683-1.03174.87299-.71417,1.34918-1.82526,1.34918-3.41248.07935-.63489,0-1.26984-.23816-1.90466-.23804-.63495-.63489-1.19043-1.11102-1.58722Zm-2.06342,4.92041c-.23798.15869-.55554.31744-.87292.4762-.31744.07935-.71429.07935-1.03174.07935h-1.9046v-4.20618h1.58722c.71423,0,1.42841.15869,2.06335.47614.2381.15875.39679.39685.55554.63489.15875.31744.15875.55554.15875.87299,0,.63495-.15875,1.19043-.5556,1.66663Z"/><polygon class="cls-1" points="95.37848 191.3916 92.86377 191.3916 90.37872 191.3916 90.37872 213.77154 104.9812 213.77154 104.9812 209.32733 95.37848 209.32733 95.37848 194.20709 95.37848 191.3916"/><polygon class="cls-1" points="20.77869 229.64379 11.57275 229.64379 11.57275 220.43792 4.66833 220.43792 4.66833 236.54827 20.77869 236.54827 20.77869 229.64392 20.77869 229.64379"/><polygon class="cls-1" points="46.17432 229.64392 36.96844 229.64392 36.96844 236.54827 53.0788 236.54827 53.0788 220.43792 46.17432 220.51727 46.17432 229.64392"/><polygon class="cls-1" points="11.57275 204.32751 11.57275 195.20098 20.77869 195.20098 20.77869 188.2965 4.66833 188.2965 4.66833 204.40692 11.65216 204.40692 11.57275 204.32751"/><path class="cls-1" d="m36.96844,188.2965v6.90448h9.20587v9.20593h6.90448v-16.11041h-16.11035Z"/><polygon class="cls-1" points="29.98468 204.40692 36.01611 204.40692 26.81012 195.20098 36.88904 195.20098 36.88904 188.2965 20.77869 188.2965 20.77869 195.20098 29.98468 204.40692"/><polygon class="cls-1" points="36.96844 229.56445 32.36548 225.04089 27.76251 220.43792 21.73108 220.43792 29.34973 228.05658 30.8576 229.64392 20.77869 229.64392 20.77869 236.54827 36.96844 236.54827 36.96844 229.64392 36.96844 229.56445"/><polygon class="cls-1" points="46.17432 204.40692 46.17432 214.40643 44.5871 212.81921 36.96844 205.20056 36.96844 211.3114 41.492 215.83496 46.09497 220.43792 53.0788 220.43792 53.0788 214.4306 53.0788 204.40692 46.28229 204.40692 46.17432 204.40692"/><polygon class="cls-1" points="11.57275 210.43835 20.77869 219.64434 20.77869 213.53344 11.65216 204.40692 4.66833 204.40692 4.66833 220.43792 11.57275 220.43792 11.57275 210.43835"/><path class="cls-1" d="m149.21936,138.15234c-.14618.00012-.29242.00012-.4386.00018-.69537-.00006-1.39081-.00006-2.08618-.00018-1.27545-.00018-2.5509-.00031-3.82635-.00043-.0296,1.77521-.01117,3.55579.00684,5.27832.01831,1.73993.03717,3.53943.00446,5.28546-.05017,2.685-.03772,5.39618-.02588,8.01782.00537,1.1723.0108,2.34454.01074,3.51648l-.00073,4.85388c-.00043,2.67432-.00092,5.34827-.00043,8.02222-.27539.04187-.54852.08441-.8194.12659-.52618.08185-1.05225.16364-1.5791.23907-1.4223.20374-2.63641.92566-3.42389,1.95831-.46875.61469-.78662,1.33936-.90643,2.13074-.33771,2.23016.73169,4.20746,2.79108,5.16034.73438.33966,1.43237.4325,2.01904.4325.44452,0,.8252-.05353,1.10913-.09314,1.80115-.25201,3.61761-.53052,5.37421-.80017l.93622-.14337c2.53204-.38733,4.23322-2.36987,4.23322-4.93317l-.00012-1.75372-.00232-27.63684c-.00006-2.14618.00092-4.29254.00177-6.43872l.0011-3.22339h-.84442c-.8446.00043-1.68933.00079-2.53394.00122Z"/><path class="cls-1" d="m163.78632,138.15112c-.16705,0-.33405-.00012-.5011-.00012h-3.26373l.00446,37.29907.00018,1.70721c.00043,2.578,1.70288,4.57849,4.23608,4.97766l.68097.10925c.70184.11334,1.42773.23071,2.17413.32526.39691.04999.81665.12219,1.26129.19879.99182.1712,2.11285.36462,3.33679.36462.0249,0,.04968,0,.07458-.00031,2.57166-.01715,4.57092-1.91345,4.75397-4.50909.08307-1.17664-.27911-2.28998-.94904-3.1734-.69861-.92114-1.73224-1.59229-2.95447-1.81818-.15179-.02802-.30383-.06122-.45581-.09387-.39154-.08441-.84271-.18152-1.34631-.23853-.39777-.20844-.78247-.3269-1.14038-.38531.0061-9.93762.00403-19.87476.00201-29.81268l-.00098-4.95056c-1.51202.00006-3.02411.00006-4.53601.00006-.45886,0-.91779,0-1.37665.00012Z"/><path class="cls-1" d="m124.61627,138.15325c-.92731-.00195-1.8562.0174-2.78436.02783l-.94836,1.54895c-1.28656,2.10126-2.57324,4.20258-3.85602,6.30615-1.41266-.04504-2.58167-.07477-3.69745-.09448-2.2193-.04968-3.90082,1.49542-3.9848,3.6496-.07953,2.04791,1.44208,3.79449,3.53857,4.06244.48077.06158.896.03003,1.1994.00665.07172-.00543.16492-.01245.21893-.01447.66925.12439,1.30756.15381,1.90259.15381.2793,0,.54926-.00665.80841-.01276.22046-.00543.4408-.01093.66022-.01123.29449-.00604.54803.00433.76654.00891,2.66199.05554,3.33264-.68079,4.72223-2.96558l.08838-.1449c1.64197-2.69763,3.28833-5.39246,4.93463-8.08698l2.7088-4.43658c-.93427-.00012-1.86853-.00024-2.8028-.00031-1.15826.00098-2.31653.00201-3.47491.00293Z"/><path class="cls-1" d="m190.00916,151.68951c1.04907,1.7254,2.55029,2.10962,3.67853,2.10962.0517,0,.10291-.00079.15289-.00232.44928-.01385.89764-.04016,1.34631-.06677.55096-.03259,1.07123-.06323,1.57892-.06793.23877,0,.50098.00983.7793.02228.8158.03583,1.8302.08154,2.91199-.20721,1.7489-.46863,2.94824-2.1109,2.85175-3.90552-.09607-1.7749-1.57086-3.63715-3.58636-3.60571-.5354.01074-1.07794.00061-1.6524-.01007-.81018-.01501-1.63928-.0304-2.49445.01276-.52087-.86206-1.04791-1.71808-1.56244-2.55347-.39056-.63391-.78082-1.26788-1.16815-1.90381-.64441-1.0578-1.28204-2.11987-1.91974-3.18195l-.104-.17291c-.93152-.0011-1.86298-.00403-2.79437-.00336-1.16095-.00079-2.32184-.00159-3.48279-.0025-.93402.00006-1.8681.00006-2.80212.00006l1.47498,2.42255c.55847.91785,1.117,1.83563,1.67749,2.75226l1.70471,2.78418c1.13873,1.85846,2.2774,3.71729,3.40997,5.57983Z"/><path class="cls-1" d="m188.02692,138.15313c.9314-.00067,1.86285.00226,2.79437.00336,1.13123.0014,2.26239.00031,3.39349-.01318,1.91699-.02277,3.83386.00446,5.75214-.05017,1.11334-.0318,2.23126-.05969,3.3186-.22369,3.53186-.53296,6.7749-1.88586,9.6756-3.94196,2.45398-1.7395,4.52393-3.89197,6.16254-6.44904,2.10187-3.27979,3.32855-6.85773,3.62628-10.72125.18567-2.41083.03174-4.82104-.53973-7.20074-.64587-2.68951-1.72162-5.17932-3.22699-7.48517-1.18347-1.81274-2.61627-3.41486-4.25024-4.83875-1.6676-1.45325-3.50812-2.64044-5.52203-3.54266-2.3269-1.04242-4.75317-1.6886-7.30505-1.97797-2.17419-.24652-4.30609-.11761-6.43396.23383-.60944.10059-.79169-.09564-.92023-.58698-.15094-.57758-.29755-1.15698-.45209-1.73352-.83246-3.10663-2.14636-6.00372-3.79785-8.74585-1.93768-3.21747-4.33795-6.05786-7.17096-8.53156-2.31274-2.01953-4.83875-3.71906-7.57745-5.10114-2.68469-1.3548-5.4989-2.34796-8.43243-3.01678-2.02856-.46246-4.08319-.74756-6.15485-.81079-2.19122-.06689-4.37585-.03021-6.56934.28876-2.17877.31683-4.32452.74463-6.40198,1.42004-4.06519,1.32153-7.78308,3.33411-11.16064,5.96893-1.46515,1.14307-2.77185,2.45062-4.07111,3.77002-1.59167,1.61633-2.92584,3.4314-4.13763,5.341-.19415.30591-.39026.40192-.78326.29565-1.9505-.52747-3.94446-.81512-5.96295-.88062-2.56152-.08307-5.11035.03662-7.62439.60138-2.11139.47424-4.16595,1.11847-6.11847,2.05365-2.53241,1.21301-4.87952,2.70685-6.98877,4.58051-2.01471,1.78979-3.81451,3.76428-5.26593,6.02802-1.2843,2.00317-2.33661,4.13116-3.1106,6.39581-.87732,2.56708-1.41754,5.20209-1.5658,7.89966-.21722,3.95483.33777,7.81818,1.66705,11.55865.26703.7514.59296,1.47913.91272,2.21094.83508,1.91168,1.89166,3.69513,3.12128,5.36359,1.35089,1.83301,2.90704,3.49548,4.65967,4.961,1.21082,1.01245,2.47766,1.95581,3.84113,2.7486,1.79901,1.04596,3.68451,1.91003,5.65466,2.60175,2.35339.82629,4.78113,1.31177,7.24847,1.48425,1.16986.08179,2.34521.0835,3.52173.07037.92816-.01044,1.85706-.02979,2.78436-.02783,1.15839-.00092,2.31665-.00195,3.47491-.00293.93427.00006,1.86853.00018,2.8028.00031,3.99139.00037,7.98279.00092,11.97424.00128,1.27545.00012,2.5509.00024,3.82635.00043.69537.00012,1.39081.00012,2.08618.00018.14618-.00006.29242-.00006.4386-.00018.8446-.00043,1.68933-.00079,2.53394-.00122h.84442c2.47461-.00012,4.94922-.00012,7.42377-.00012h3.26373c.16705,0,.33405.00012.5011.00012.45886-.00012.91779-.00012,1.37665-.00012,1.5119,0,3.02399,0,4.53601-.00006,4.01428,0,8.02863-.00012,12.04303-.00024.93402,0,1.8681,0,2.80212-.00006,1.16095.00092,2.32184.00171,3.48279.0025Zm-41.51367-29.08661c-.24396,2.42657-1.63232,4.11212-3.25494,5.03253-.70538.40021-1.45447.65759-2.17395.76526l-.04541.01355c-.04181.01337-.0835.026-.12555.03766l-.17822.03442c-.21753.02368-.43811.03552-.66284.03552-.54419,0-1.11298-.06995-1.72211-.21112-1.10144-.255-1.97296-.79938-2.64978-1.37402-.40637-.34491-.74249-.70081-1.01611-1.01166l-.08624-.11096c-.65881-.96936-1.05402-1.91547-1.2049-2.86475-.06348-.39923-.08826-.79895-.06396-1.20123.20337-3.36835,2.59857-5.97614,5.8244-6.34149,2.05463-.23132,4.04163.4325,5.45142,1.82489.48676.48083.88611,1.02899,1.19537,1.62183.58978,1.13068.8457,2.42706.71283,3.74957Zm20.26324,10.87604c-.71906,2.71942-2.30573,4.67657-4.7215,5.8479-.65747.31885-1.37286.58282-2.15326.78412-.70282.18127-1.36023.18939-2.05627.198-.13983.00183-.28442.00354-.43524.00696-.08014.00262-.16077.00409-.24103.00409-2.40369,0-4.88184-1.24329-6.61597-3.12103-.88446-.9577-1.57892-2.07758-1.96381-3.28784-.57166-1.79718.19092-3.52594,1.85413-4.2038.82996-.3385,1.72632-.32379,2.52338.04138.81995.37579,1.43896,1.08075,1.74316,1.98535.479,1.42511,1.78674,2.14435,2.7785,2.0849,1.83276-.09808,2.57062-.3056,3.05115-2.11035.19952-.74994.70135-1.38617,1.41321-1.79144.7594-.43298,1.66724-.5481,2.49097-.31537,1.7229.48627,2.76941,2.2254,2.33258,3.87714Zm15.14166-11.03613c-.04211.4187-.12.81427-.22552,1.18896-.52307,1.85608-1.76715,3.16504-3.16504,3.91559-.66528.3573-1.3642.59198-2.03778.69287l-.04364.01337c-.04358.01385-.08759.0271-.13153.03925l-.17432.03326c-.21735.02368-.43823.03583-.66339.03583-.54376,0-1.11243-.06989-1.7218-.21124-1.06744-.24731-1.91766-.76642-2.58533-1.32135-.43469-.36108-.79266-.73724-1.08044-1.06384l-.08612-.11133c-.9361-1.37744-1.35114-2.70752-1.2691-4.06616.05463-.90521.27209-1.75256.61682-2.51904.93823-2.08618,2.84851-3.55518,5.20752-3.8222,2.05444-.23328,4.04169.43274,5.45154,1.82465,1.41528,1.39771,2.11084,3.35535,1.90814,5.3714Z"/><path class="cls-1" d="m224.57886,191.31225l-9.68207,22.45929h5.39648l2.14288-4.84106h9.44391l2.14288,4.84106h5.15845l-9.76147-22.45929h-4.84106Zm-.07935,13.25336l2.77771-6.50763,2.77759,6.50763h-5.5553Z"/><path class="cls-1" d="m257.59326,222.73944l-5.47595,12.61847h3.01581l1.11102-2.69836h5.31714l1.11115,2.69836h3.09509l-5.47595-12.61847h-2.6983Zm-.31744,7.45996l1.58722-3.6507,1.58722,3.6507h-3.17444Z"/></svg>