<svg width="1500" height="1610" viewBox="0 0 1500 1610" fill="none" xmlns="http://www.w3.org/2000/svg">
<path d="M1021.8 741.91C989.643 802.072 937.987 849.512 875.311 876.44C812.635 903.367 742.666 908.18 676.893 890.09C611.121 871.999 553.455 832.079 513.366 776.887C473.278 721.694 453.149 654.51 456.286 586.367C459.424 518.224 485.64 453.173 530.631 401.898C575.621 350.622 636.711 316.17 703.867 304.2C771.024 292.229 840.255 303.451 900.191 336.023C960.128 368.595 1007.21 420.581 1033.7 483.443H1313.62C1284.93 346.77 1206.98 225.418 1094.62 142.491C982.253 59.5635 843.317 20.852 704.26 33.726C565.202 46.5999 435.735 110.16 340.504 212.307C245.274 314.453 190.932 448.052 187.822 587.67C184.713 727.287 233.054 863.173 323.643 969.458C414.232 1075.74 540.741 1145 679.088 1164.05C817.434 1183.11 957.956 1150.62 1073.9 1072.78C1189.85 994.933 1273.12 877.171 1307.86 741.91H1021.8Z" fill="white"/>
<path d="M1307.86 741.91H1021.8C990.284 800.918 939.997 847.735 878.889 874.952C817.782 902.169 749.343 908.233 684.402 892.185C619.461 876.136 561.725 838.892 520.329 786.344C478.934 733.795 456.241 668.944 455.843 602.051C455.836 603.11 455.798 604.16 455.798 605.221C455.798 892.341 703.16 1104.32 1010.67 1109.6C1083.62 1073.12 1147.89 1021.43 1199.16 957.998C1250.42 894.568 1287.49 820.883 1307.86 741.91Z" fill="white"/>
<path opacity="0.59" d="M456.02 591.488C455.997 592.231 455.982 592.975 455.963 593.718C455.979 592.974 455.998 592.231 456.02 591.488Z" fill="white"/>
<path d="M577.075 841.57C577.682 842.021 578.315 842.438 578.925 842.885C578.315 842.438 577.682 842.021 577.075 841.57ZM588.824 849.894C589.604 850.419 590.416 850.9 591.202 851.418C590.416 850.9 589.605 850.419 588.824 849.894ZM613.536 864.858C614.684 865.479 615.871 866.039 617.028 866.646C615.871 866.038 614.684 865.479 613.536 864.858ZM600.986 857.664C601.936 858.239 602.921 858.761 603.878 859.327C602.921 858.761 601.936 858.239 600.986 857.664ZM626.458 871.456C627.829 872.115 629.239 872.7 630.621 873.338C629.239 872.7 627.829 872.115 626.458 871.456ZM544.885 813.851C544.749 813.716 544.605 813.59 544.469 813.455C544.605 813.59 544.749 813.716 544.885 813.851ZM565.755 832.71C566.187 833.065 566.641 833.395 567.075 833.748C566.641 833.395 566.187 833.065 565.755 832.71ZM534.536 803.094L534.629 803.191L534.536 803.094ZM554.88 823.332C555.157 823.583 555.45 823.817 555.728 824.067C555.45 823.817 555.157 823.583 554.88 823.332ZM1033.42 1097.53C1031.78 1098.44 1030.14 1099.35 1028.5 1100.24C1030.14 1099.34 1031.78 1098.44 1033.42 1097.53ZM725.823 899.419C729.094 899.75 732.405 899.944 735.707 900.17C732.405 899.944 729.095 899.75 725.823 899.419ZM741.07 900.577C746.185 900.836 751.333 900.966 756.514 900.967C751.335 900.967 746.186 900.837 741.07 900.577Z" fill="white"/>
<path d="M1010.67 1109.6C703.16 1104.32 455.798 892.341 455.798 605.221C455.798 604.161 455.836 603.11 455.843 602.051V602.054C455.84 601.451 455.798 600.856 455.798 600.251C455.806 528.681 481.335 459.46 527.798 405.023C574.262 350.586 638.614 314.502 709.294 303.253V301.12C462.057 343.322 286.8 554.482 286.8 831.38C286.735 871.191 293.322 910.734 306.288 948.375C386.919 1052.59 501.196 1125.62 629.642 1155.02C758.088 1184.42 892.754 1168.36 1010.69 1109.59L1010.67 1109.6Z" fill="white"/>
<path d="M639.737 877.443C641.32 878.111 642.947 878.697 644.544 879.338C642.947 878.697 641.32 878.111 639.737 877.443ZM710.808 897.513C713.656 897.947 716.544 898.253 719.418 898.607C716.544 898.253 713.656 897.947 710.808 897.513ZM696.035 894.879C698.486 895.38 700.977 895.763 703.449 896.203C700.977 895.763 698.486 895.38 696.035 894.879ZM653.351 882.798C655.174 883.464 657.04 884.037 658.878 884.668C657.04 884.037 655.174 883.464 653.351 882.798ZM681.516 891.535C683.761 892.111 686.048 892.578 688.313 893.103C686.048 892.578 683.761 892.111 681.516 891.535ZM667.282 887.501C669.354 888.144 671.469 888.685 673.561 889.284C671.469 888.685 669.354 888.144 667.282 887.501ZM1243.82 894.334C1244.64 892.975 1245.44 891.603 1246.25 890.237C1245.44 891.603 1244.64 892.976 1243.82 894.334ZM1230.9 914.679C1231.63 913.576 1232.38 912.486 1233.11 911.377C1232.38 912.486 1231.63 913.576 1230.9 914.679ZM1255.12 874.755C1255.66 873.775 1256.22 872.809 1256.76 871.826C1256.22 872.809 1255.66 873.775 1255.12 874.755ZM1266.13 853.806C1266.86 852.341 1267.57 850.867 1268.29 849.395C1267.57 850.867 1266.86 852.341 1266.13 853.806ZM1276.16 832.6C1276.5 831.827 1276.87 831.066 1277.21 830.291C1276.87 831.066 1276.5 831.827 1276.16 832.6ZM1173.59 987.404C1174.69 986.212 1175.81 985.031 1176.91 983.83C1175.81 985.031 1174.69 986.213 1173.59 987.404ZM1190.05 968.93C1191 967.821 1191.92 966.692 1192.85 965.576C1191.92 966.692 1191 967.822 1190.05 968.93ZM1203.67 952.261C1204.59 951.097 1205.52 949.946 1206.43 948.774C1205.52 949.945 1204.59 951.097 1203.67 952.261ZM1218.41 932.764C1219.3 931.523 1220.17 930.267 1221.06 929.019C1220.17 930.266 1219.3 931.524 1218.41 932.764ZM1300.73 767.098C1301.23 765.482 1301.72 763.864 1302.19 762.243C1301.71 763.864 1301.23 765.482 1300.73 767.098ZM1285.16 811.336C1285.77 809.788 1286.38 808.233 1286.98 806.678C1286.38 808.233 1285.77 809.788 1285.16 811.336ZM1109.9 1046.34C1108.5 1047.45 1107.08 1048.55 1105.66 1049.65C1107.08 1048.55 1108.5 1047.45 1109.9 1046.34ZM1091.44 1060.38C1090.67 1060.95 1089.91 1061.53 1089.14 1062.09C1089.91 1061.53 1090.67 1060.95 1091.44 1060.38ZM1072.77 1073.43C1071.24 1074.45 1069.69 1075.47 1068.15 1076.48C1069.69 1075.47 1071.24 1074.45 1072.77 1073.43ZM1127.93 1031.42C1127.03 1032.19 1126.15 1032.99 1125.25 1033.76C1126.15 1032.99 1127.03 1032.19 1127.93 1031.42ZM1052.39 1086.48C1051.85 1086.81 1051.32 1087.16 1050.77 1087.49C1051.32 1087.16 1051.85 1086.81 1052.39 1086.48ZM1144.67 1016.42C1143.41 1017.59 1142.14 1018.74 1140.88 1019.9C1142.14 1018.74 1143.41 1017.59 1144.67 1016.42ZM1293.79 788.332C1293.96 787.861 1294.14 787.396 1294.3 786.924C1294.14 787.396 1293.96 787.861 1293.79 788.332ZM1158.95 1002.64C1159.89 1001.7 1160.82 1000.73 1161.76 999.773C1160.82 1000.73 1159.89 1001.7 1158.95 1002.64Z" fill="white"/>
<path fill-rule="evenodd" clip-rule="evenodd" d="M947.16 607.667C940.05 594.657 929.385 583.939 916.41 576.765C902.324 568.461 879.001 560.252 846.442 552.139C833.287 548.969 824.955 545.546 821.448 541.87C819.766 540.355 818.415 538.509 817.482 536.447C816.548 534.385 816.05 532.152 816.021 529.889C815.974 526.99 816.536 524.113 817.668 521.444C818.801 518.774 820.481 516.372 822.599 514.391C828.029 509.776 835.06 507.487 842.167 508.02C851.222 507.495 860.118 510.571 866.915 516.578C872.889 522.283 876.808 531.411 878.672 543.962L948.887 539.208C945.818 510.302 936.198 489.225 920.028 475.978C903.858 462.73 880.371 456.106 849.566 456.105C824.462 456.105 804.702 459.75 790.287 467.04C776.702 473.554 765.408 484.029 757.892 497.086C750.813 509.445 747.099 523.444 747.121 537.686C746.783 547.617 748.475 557.512 752.094 566.766C755.713 576.02 761.183 584.437 768.17 591.503C782.092 605.575 805.388 616.858 838.056 625.352C858.008 630.424 870.724 635.812 876.206 641.516C878.794 644.043 880.854 647.059 882.265 650.389C883.677 653.719 884.412 657.296 884.427 660.913C884.431 664.669 883.668 668.386 882.183 671.836C880.699 675.286 878.525 678.396 875.794 680.976C872.492 684.001 868.612 686.327 864.387 687.814C860.162 689.301 855.68 689.918 851.211 689.628C844.732 689.9 838.294 688.482 832.529 685.515C826.763 682.548 821.868 678.133 818.323 672.703C812.864 663.433 809.654 653.012 808.95 642.277L738.077 647.411C740.16 675.556 749.095 698.756 764.881 717.012C780.667 735.267 809.06 744.395 850.06 744.396C873.41 744.396 892.759 740.497 908.107 732.7C923.231 725.117 935.722 713.157 943.954 698.375C952.5 683.308 956.924 666.254 956.78 648.933C956.987 634.599 953.685 620.432 947.16 607.667V607.667Z" fill="white"/>
<path fill-rule="evenodd" clip-rule="evenodd" d="M752.092 593.21C746.313 586.117 741.775 578.098 738.669 569.492H648.763V520.885H734.829C740.027 496.661 754.19 475.297 774.478 461.076H574.05V739.425H648.763V625.693H752.092V593.21Z" fill="white"/>
<path d="M287.115 1558.13C313.615 1558.13 330.762 1545.39 338.556 1519.92L376.26 1537.42C370.999 1555.5 360.671 1569.7 345.278 1580.01C329.885 1590.31 310.789 1595.47 287.992 1595.47C266.168 1595.47 246.781 1590.22 229.829 1579.72C212.876 1569.41 199.724 1554.82 190.371 1535.96C181.018 1517.1 176.342 1495.32 176.342 1470.62C176.342 1446.12 181.018 1424.43 190.371 1405.57C199.724 1386.71 212.876 1372.02 229.829 1361.52C246.781 1351.02 266.168 1345.77 287.992 1345.77C310.789 1345.77 329.885 1350.92 345.278 1361.23C360.671 1371.34 370.999 1385.44 376.26 1403.53L338.556 1421.32C330.762 1395.85 313.615 1383.11 287.115 1383.11C274.45 1383.11 263.148 1386.8 253.211 1394.19C243.468 1401.39 235.869 1411.6 230.413 1424.82C224.957 1438.05 222.229 1453.31 222.229 1470.62C222.229 1487.93 224.957 1503.19 230.413 1516.42C235.869 1529.64 243.468 1539.95 253.211 1547.34C263.148 1554.53 274.45 1558.13 287.115 1558.13Z" fill="white"/>
<path d="M523.702 1591.38C522.533 1584.58 521.851 1575.73 521.656 1564.84C508.211 1585.26 487.46 1595.47 459.401 1595.47C440.306 1595.47 425.302 1589.73 414.39 1578.26C403.479 1566.78 398.023 1550.74 398.023 1530.13V1411.99H440.403V1523.13C440.403 1547.63 451.997 1559.88 475.184 1559.88C488.239 1559.88 498.566 1555.6 506.165 1547.05C513.765 1538.29 517.564 1526.43 517.564 1511.46V1411.99H559.944V1550.25C559.944 1566.98 560.432 1580.69 561.406 1591.38H523.702Z" fill="white"/>
<path d="M767.546 1501.83C767.546 1520.11 764.136 1536.35 757.316 1550.55C750.496 1564.74 741.241 1575.73 729.55 1583.51C717.859 1591.48 704.998 1595.47 690.969 1595.47C678.304 1595.47 667.002 1592.84 657.065 1587.59C647.128 1582.54 638.846 1575.15 632.221 1565.42C632.027 1575.92 631.345 1584.58 630.175 1591.38H592.472C593.446 1580.69 593.933 1566.98 593.933 1550.25V1339.35H636.313V1432.7C642.743 1424.73 650.635 1418.6 659.988 1414.32C669.341 1410.04 679.668 1407.9 690.969 1407.9C704.998 1407.9 717.859 1411.89 729.55 1419.86C741.241 1427.64 750.496 1438.73 757.316 1453.12C764.136 1467.31 767.546 1483.55 767.546 1501.83ZM724.873 1501.83C724.873 1483.55 720.781 1468.97 712.598 1458.08C704.414 1446.99 693.697 1441.45 680.447 1441.45C667.197 1441.45 656.48 1446.99 648.297 1458.08C640.308 1469.16 636.313 1483.75 636.313 1501.83C636.313 1519.92 640.308 1534.5 648.297 1545.59C656.48 1556.48 667.197 1561.92 680.447 1561.92C693.697 1561.92 704.414 1556.48 712.598 1545.59C720.781 1534.5 724.873 1519.92 724.873 1501.83Z" fill="white"/>
<path d="M951.642 1513.21H829.178C830.541 1529.15 835.218 1541.31 843.207 1549.67C851.391 1557.84 862.01 1561.92 875.065 1561.92C885.197 1561.92 893.186 1559.78 899.032 1555.5C905.072 1551.03 909.749 1544.71 913.061 1536.54L948.134 1553.17C936.248 1581.37 912.087 1595.47 875.65 1595.47C857.528 1595.47 841.745 1591.48 828.301 1583.51C814.856 1575.73 804.529 1564.74 797.319 1550.55C790.11 1536.35 786.505 1520.11 786.505 1501.83C786.505 1483.55 790.11 1467.31 797.319 1453.12C804.724 1438.92 814.759 1427.84 827.424 1419.86C840.089 1411.89 854.313 1407.9 870.096 1407.9C886.854 1407.9 901.37 1411.79 913.646 1419.57C926.116 1427.35 935.664 1438.34 942.289 1452.53C948.914 1466.54 952.226 1482.97 952.226 1501.83C952.226 1505.92 952.031 1509.71 951.642 1513.21ZM830.054 1482.87H908.969C907.41 1469.26 903.319 1458.95 896.694 1451.95C890.069 1444.95 881.105 1441.45 869.804 1441.45C859.282 1441.45 850.514 1445.05 843.499 1452.24C836.484 1459.44 832.003 1469.65 830.054 1482.87Z" fill="white"/>
<path d="M1025.91 1388.07V1448.74H1119.14V1487.25H1025.91V1591.38H980.018V1349.56H1125.86V1388.07H1025.91Z" fill="white"/>
<path d="M1151.87 1415.78C1151.87 1402.17 1155.18 1390.11 1161.81 1379.61C1168.63 1368.91 1178.37 1360.65 1191.04 1354.81C1203.7 1348.79 1218.61 1345.77 1235.75 1345.77C1257.58 1345.77 1275.5 1350.15 1289.53 1358.9C1303.56 1367.45 1313.21 1380 1318.47 1396.53L1281.93 1413.45C1278.23 1403.92 1272.78 1396.72 1265.57 1391.86C1258.55 1387 1249 1384.57 1236.92 1384.57C1223.87 1384.57 1214.03 1387.1 1207.4 1392.15C1200.97 1397.01 1197.76 1404.21 1197.76 1413.74C1197.76 1422.88 1201.17 1429.88 1207.99 1434.74C1214.81 1439.6 1226.79 1443.59 1243.94 1446.7C1271.41 1451.56 1291.38 1460.02 1303.85 1472.08C1316.32 1484.14 1322.56 1500.86 1322.56 1522.25C1322.56 1536.25 1318.76 1548.89 1311.16 1560.17C1303.76 1571.26 1293.23 1579.91 1279.6 1586.13C1266.15 1592.36 1250.85 1595.47 1233.71 1595.47C1209.94 1595.47 1190.16 1590.61 1174.38 1580.88C1158.59 1571.16 1148.07 1557.35 1142.81 1539.46L1179.64 1522.25C1183.14 1533.53 1189.48 1542.09 1198.63 1547.92C1207.79 1553.75 1219.39 1556.67 1233.42 1556.67C1247.44 1556.67 1258.06 1553.85 1265.27 1548.21C1272.68 1542.38 1276.38 1534.11 1276.38 1523.42C1276.38 1513.31 1272.48 1505.33 1264.69 1499.5C1257.09 1493.66 1243.84 1489 1224.94 1485.5C1200 1481.02 1181.58 1473.05 1169.7 1461.58C1157.81 1450.1 1151.87 1434.84 1151.87 1415.78Z" fill="white"/>
</svg>
