<?xml version="1.0" encoding="utf-8"?>
<!-- Generator: Adobe Illustrator 21.1.0, SVG Export Plug-In . SVG Version: 6.00 Build 0)  -->
<svg version="1.1" id="Layer_1" xmlns="http://www.w3.org/2000/svg" xmlns:xlink="http://www.w3.org/1999/xlink" x="0px" y="0px"
	 viewBox="0 0 432 432" enable-background="new 0 0 432 432" xml:space="preserve">
<g>
	<path d="M216.199,7.102c116.369,0.024,211.887,94.34,211.74,209.076c-0.148,116.479-95.275,209.487-214.174,209.403
		C97.524,425.5,3.54,331.086,3.622,214.477C3.702,100.451,99.418,7.078,216.199,7.102z M151.873,80.536
		c2.667,13.055,0.076,25.231-3.868,37.207c-2.732,8.293-6.508,16.278-8.763,24.684c-3.716,13.851-7.931,27.783-9.477,41.949
		c-2.223,20.37,5.83,38.312,19.609,56.152c-22.381-4.685-42.679-8.933-63.339-13.257c0.111,1.99-0.007,2.743,0.211,3.381
		c6.003,17.533,16.568,32.305,28.411,46.23c1.253,1.473,4.106,2.23,6.219,2.234c63.154,0.116,126.309,0.109,189.464,0.028
		c1.959-0.003,4.573-0.371,5.775-1.627c13.536-14.147,23.887-30.257,30.358-50.554c-23.198,4.516-45.159,8.791-67.053,13.053
		c4.423-8.617,9.472-16.195,12.375-24.522c9.928-28.483,5.813-56.02-8.437-81.992c-11.436-20.843-21.984-41.594-16.279-66.713
		C255,78.644,250.363,93.737,247.419,109.292c-2.899,15.32-4.607,30.866-6.852,46.409c-0.319-0.469-0.732-0.816-0.797-1.219
		c-0.26-1.631-0.502-3.274-0.59-4.922c-1.364-25.46-6.366-49.991-16.922-73.419c-6.214-13.791-13.067-27.891-6.661-44.342
		c-4.335,2.273-8.253,4.531-11.062,7.756c-8.383,9.626-11.849,21.187-12.741,33.845c-0.762,10.814-1.806,21.679-3.823,32.314
		c-2.119,11.175-5.48,22.129-13.032,32.4C171.886,116.173,171.547,94.475,151.873,80.536z M314.709,298.342
		c-66.621,0-132.245,0-198.081,0c0,11.73,0,22.944,0,34.208c66.322,0,132.155,0,198.081,0
		C314.709,320.895,314.709,309.846,314.709,298.342z M155.903,350.222c-0.163,28.485,29.022,49.707,65.092,48.167
		c29.892-1.276,56.348-24.656,54.073-48.167C235.514,350.222,195.924,350.222,155.903,350.222z"/>
</g>
</svg>
