<?xml version="1.0" encoding="UTF-8"?>
<svg id="Layer_1" data-name="Layer 1" xmlns="http://www.w3.org/2000/svg" viewBox="0 0 835.0872828 340.9717666">
  <defs>
    <style>
      .cls-1 {
        fill: none;
      }

      .cls-2 {
        fill: #0028aa;
      }

      .cls-3 {
        fill: #4279f4;
      }

      .cls-4 {
        fill: #fff;
      }

      .cls-5 {
        fill: #326ce5;
      }
    </style>
  </defs>
  <g>
    <g>
      <g>
        <path class="cls-3" d="M361.4499742,171.6933351v-71.9588106h9.2238401v37.6184919l32.9101492-37.6184919h10.2844241l-27.9447009,31.6567304,30.5318767,40.2859951h-10.8147144l-25.5824989-33.4243752-9.384535,10.6861716v22.7542887h-9.2238409ZM425.7597464,155.9613702v-35.6901432h8.7256895v35.9794298c-.0806278,2.7693837,1.3711568,5.3578591,3.7763086,6.7330862,5.4690817,3.1575839,12.207268,3.1575839,17.6763497,0,2.3875587-1.3887131,3.8242022-3.9721864,3.7441691-6.7330862v-35.9794298h8.7256895v35.658022c.1536421,5.0747024-2.3416451,9.8644337-6.5884552,12.6466169-8.8888086,6.1181744-20.6306998,6.1181744-29.5195084,0-4.2209047-2.7854198-6.6962572-7.5597525-6.5402428-12.6144957ZM483.3525078,171.6933351v-77.1331622h8.7256895v27.0126723c4.8081703-1.7337091,9.8666283-2.6726524,14.9766885-2.7800009,3.4566908-.0743691,6.8784774.7037968,9.9630285,2.2657925,2.7331432,1.3710587,5.0516537,3.4455219,6.7170134,6.0099677,1.6045747,2.5104773,2.8132132,5.2529381,3.5834836,8.1311169.7866252,2.9237369,1.1811025,5.939056,1.1730722,8.966733.0000123,9.0310244-2.3461322,15.8819046-7.0383966,20.5527631-4.6922644,4.6708094-12.0949052,6.995548-22.2079347,6.9741175h-15.8926443ZM492.0781972,163.8675409h7.3115859c7.2526522,0,12.4591494-1.5801651,15.6194673-4.7404952s4.7672588-8.2543543,4.8208226-15.2819989c.07394-4.2486491-1.0390828-8.4336443-3.2138818-12.0842023-1.9943197-3.3911121-5.7133128-5.3869643-9.6416453-5.1743516-5.0672116-.1306424-10.1126372.7093383-14.8642031,2.4746782l-.0321457,34.8063699ZM539.4347469,145.8858685c.0000123-8.2596751,2.1907859-14.8481426,6.5723823-19.7653777,4.3927039-4.9277052,10.7586158-7.6332144,17.3549664-7.3758528,14.3017885,0,21.4580159,10.102302,21.4687311,30.306906h-36.6703904c.3077502,4.1857554,1.9399221,8.1648564,4.660131,11.3610838,2.7746432,3.3317247,7.006251,4.9922172,12.6948231,4.9815265,5.8174859.1734052,11.6028507-.9233241,16.9532312-3.2138818v8.0347044c-5.0548658,1.9566447-10.4241757,2.9749592-15.8444381,3.0049716-4.2297319.0948433-8.4359983-.6535553-12.3734399-2.2015012-3.2829177-1.2840619-6.1975578-3.3596775-8.4846459-6.0421134-2.1447497-2.5471837-3.7812371-5.4819301-4.8208226-8.6453498-1.0524095-3.37998-1.5622532-6.9054616-1.5105283-10.4451157ZM548.4657591,142.4791617h27.735803c-.2732996-4.0761266-1.5843089-8.0146716-3.808442-11.4414112-2.0332696-2.9529402-5.4500787-4.6431019-9.0310122-4.4672937-3.8011228-.0507073-7.4389549,1.542674-9.9791014,4.3708812-2.8599482,3.1996111-4.5779891,7.2573477-4.8851017,11.5378237h-.0321457Z"/>
        <path class="cls-3" d="M565.8695351,175.8000564c-4.2910255,0-8.5248146-.8024422-12.5596932-2.3891922-3.660859-1.4314752-6.9476984-3.7719315-9.5006658-6.7663555-2.3767249-2.8232817-4.1584185-6.0183162-5.3065455-9.5114331-1.1452935-3.6767265-1.6927223-7.4531916-1.6388861-11.2647919.0034002-8.863699,2.4339612-16.0822783,7.2242462-21.4579608,4.9211919-5.5224568,11.9765626-8.5282148,19.3742179-8.2352327,19.7544713-.0017001,23.9315907,17.8770059,23.9395245,32.8757607l.0011334,2.5728018h-36.2515714c.6244995,2.6147374,1.8542308,5.0401982,3.6274239,7.1233743,2.290587,2.7496111,5.779737,4.0768142,10.6833613,4.0768142h.0487359c5.481088.1473411,10.9729432-.8783795,15.9457045-3.0068913l3.5832216-1.534614v13.6936528l-1.642853.6358334c-5.3637818,2.0775092-11.0018447,3.147432-16.7577805,3.179167-.2567135.0068004-.513427.0090671-.7695738.0090671ZM562.5719285,121.3002929c-5.6533637,0-10.9225072,2.3546237-14.6451361,6.5311765-3.9289064,4.4088983-5.9208444,10.4833175-5.9208444,18.0549486v.037402c-.0481692,3.2732386.4210555,6.5181425,1.3940732,9.6429067.9293822,2.8255485,2.391459,5.4482196,4.332961,7.7535407,1.9942048,2.3393229,4.5755071,4.1776862,7.454325,5.3031453,3.6415913,1.4326086,7.4628254,2.105844,11.3798312,2.0265065,4.5817407-.026068,9.0478754-.7775075,13.3304004-2.2350508v-2.5274661c-4.6531445,1.5085459-9.5890705,2.2237168-14.458693,2.0763758-.0204011.0011334-.0408021.0011334-.0612032.0011334-6.3521004,0-11.268192-1.9879711-14.5323635-5.9061103-3.0777284-3.6166567-4.8990907-8.0561566-5.2493091-12.8186735l-.2028773-2.7586783h36.8222347c-.8681789-25.1658556-14.3323197-25.1658556-18.8534239-25.1658556-.2640805-.0102005-.5275944-.0153008-.7899748-.0153008ZM447.0746602,175.7048514c-5.6850987.0011334-11.3758644-1.6683543-16.2324529-5.0107299-4.9500934-3.2664383-7.8243778-8.7973956-7.6538021-14.7715094v-38.2225416h13.8681953v38.5500921c-.0538362,1.8995665.8970805,3.5962556,2.480997,4.5007031,4.669012,2.6963417,10.4566827,2.6963417,15.1154942.005667,1.5669157-.9112479,2.5121653-2.6113372,2.4594626-4.4315662l-.0011334-38.6248961h13.8676286v38.229342c.1779427,5.8483073-2.79098,11.5481401-7.7507072,14.7964441-4.8191865,3.317441-10.4838842,4.9789949-16.1536821,4.9789949ZM428.3306087,122.8422739l-.0011334,33.1982109c-.1292068,4.1935537,1.8842657,8.0776911,5.3864497,10.3898126,7.9989203,5.5048892,18.6890819,5.5026224,26.6460667.0272014,3.5220184-2.3075879,5.6017943-6.300531,5.4759877-10.4498824l-.0011334-33.1653426h-3.5832216v33.4078886c.1059722,3.6325242-1.8179622,7.0927727-5.0226306,8.9560706-6.2534952,3.6098563-14.0115695,3.6098563-20.2548642.0045336-3.2262028-1.8440302-5.1688382-5.3088123-5.0605992-9.0354081l-.0011334-33.3330847h-3.5837883ZM499.3813084,174.2654425c-.0476025,0-.0940716,0-.1416741-.0011334h-18.4584365v-82.2752562h13.8681953v26.062936c4.0195779-1.1271592,8.1592954-1.7414582,12.3511489-1.8298628,3.8813039-.0770707,7.7314396.7967752,11.1792207,2.5433336,3.1287311,1.5691824,5.798438,3.9578079,7.7116052,6.9029294,1.7590258,2.7524446,3.0714947,5.7304344,3.9107721,8.8665325.8443777,3.1394983,1.2688333,6.3832687,1.2603329,9.6378064,0,9.6916425-2.6226711,17.2196381-7.7954763,22.3686419-5.1490039,5.1252026-13.1853261,7.7240725-23.8856883,7.7240725ZM485.9234013,169.1232389h13.4539402c9.2966551,0,16.1111798-2.09451,20.2616646-6.2268605,4.1680523-4.148218,6.2812634-10.4498824,6.2812634-18.7304508.0073671-2.8057141-.3575855-5.5955607-1.084657-8.298136-.703837-2.6294715-1.8026614-5.1229358-3.267005-7.4146562-1.4054072-2.163647-3.380911-3.9311732-5.703233-5.0963011-2.7065422-1.370272-5.7123001-2.0486076-8.75546-1.9936381-4.8418544.1020054-9.6055047.9860518-14.1594773,2.6283381l-3.4432476,1.2416319v-28.1019098h-3.5837883v71.9919826ZM373.2448811,174.2643091h-14.3657548v-77.100751h14.3657548v33.345552l29.1723994-33.345552h17.1505011l-30.3239266,34.3520049,32.3861349,42.7317452h-17.2593068l-24.4489846-31.9424116-6.6768175,7.6027995v24.3566131ZM364.0213298,169.1232389h4.0813478v-21.1536448l12.0921687-13.7684567,26.7157703,34.9051006h4.370363l-28.6776734-37.8388881,25.5659433-28.9615883h-3.4183129l-36.6482589,41.8907677v-41.8907677h-4.0813478v66.8174773ZM499.3898089,166.4393646h-9.884886l.0362686-39.1660912,1.6740213-.6222327c5.0509654-1.8757652,10.3450435-2.7581116,15.7269596-2.6374052,4.8707559-.2119445,9.4162281,2.2378842,11.8904247,6.4439052,2.4141268,4.0524463,3.6506585,8.7016239,3.5679208,13.4329725-.057803,7.6685362-1.9330016,13.4148382-5.5734595,17.0541627-3.6438581,3.6449915-9.5108664,5.4946887-17.4372495,5.4946887ZM494.6516599,161.2960277h4.7381489c6.5124755,0,11.1559862-1.3408038,13.8007584-3.9872762,2.6521393-2.651006,4.0207113-7.1879777,4.0683138-13.4828417.0663035-3.7985662-.9197483-7.5070278-2.8516165-10.7490981-1.5210132-2.5858359-4.3091597-4.0824812-7.2939499-3.9232395l-.1025721.005667-.1025721-.0022668c-4.1674856-.1088057-8.2743347.476025-12.2281758,1.7369246l-.0283348,30.4021307ZM578.9505891,145.0511075h-30.4848684v-2.5739352l-2.5319997-.1819096c.3456848-4.8225867,2.3104214-9.4632639,5.5320907-13.0674532,3.0221921-3.3650435,7.3523196-5.2493091,11.8513227-5.2289081,4.4780353-.1926768,8.652888,1.891066,11.1939548,5.5808266,2.4957311,3.8444687,3.9544078,8.2255989,4.2558903,12.7280021l.1836096,2.7433775ZM551.4947132,139.9083373h21.7770109c-.5287278-2.6515727-1.5578485-5.1943396-3.0352261-7.4707592-1.5000455-2.1772477-4.0167444-3.4415475-6.7487879-3.29874l-.0799042.0039669-.0804709-.0011334c-3.0856621-.0481692-5.9865812,1.2410652-8.031222,3.5174848-1.8428968,2.0616417-3.1491321,4.5698401-3.8013997,7.2491809Z"/>
      </g>
      <g>
        <path class="cls-2" d="M595.6134108,128.1291669v-7.8579399h8.0347044v-12.1966754c-.1604832-3.6145871,1.1833584-7.1341839,3.7120295-9.7219972,2.4190669-2.4194837,5.723035-3.7433906,9.1434975-3.6638232h12.6305563v7.9061462h-8.0347044c-3.5513501,0-5.8974701.7231185-7.0223238,2.1532949s-1.7033534,4.0977041-1.7033534,8.0347044v7.4883504h13.5947306v7.8257942h-13.5947306v43.5963139h-8.7417623v-43.5481076l-8.0186438-.0160606ZM640.5113184,171.6933351v-77.1331622h8.7256772v77.1331622h-8.7256772ZM671.2842265,165.3458991c-11.5018284-10.9063364-11.9845531-29.0717369-1.0782167-40.5735653,10.9063364-11.5018039,29.0717369-11.9845531,40.5735408-1.0782167,11.5018284,10.9063364,11.9845776,29.0717614,1.0782412,40.5735408-5.4037114,5.6987848-12.9066267,8.934195-20.7599813,8.9522417-7.4129515.2495152-14.593993-2.6042662-19.813584-7.8740005ZM677.4548735,132.1625797c-6.8536999,7.9385125-6.8536999,19.7009147,0,27.6394027,7.561567,7.5003161,19.7564279,7.5003161,27.3179949,0,6.9022495-7.9203923,6.9022495-19.7190105,0-27.6393782-7.561567-7.5003161-19.7564279-7.5003161-27.3179949,0v-.0000245ZM725.9844832,120.271227h9.2399101l11.7306733,40.6877548,11.939559-40.6877548h8.6132041l11.7949402,40.719876,11.8431955-40.719876h9.223825l-16.1337002,51.4221081h-9.8344703l-10.9754091-39.4986098-10.8468264,39.4986098h-10.3969095l-16.1979915-51.4221081Z"/>
        <path class="cls-2" d="M690.1454981,175.8079902c-7.6787368,0-15.1840645-3.1111635-20.6600522-8.6251198-6.0426842-5.7440351-9.4921654-13.4964425-9.7137437-21.8325471-.2215783-8.3497054,2.8215816-16.2857223,8.5690169-22.3471075,11.86379-12.5126574,31.6947653-13.0396851,44.2079894-1.1747617,12.5120907,11.8643567,13.0391184,31.6958987,1.1747617,44.2085561-5.8596412,6.179258-14.1045077,9.7347115-22.6202552,9.7551125-.3190501.0102005-.6392336.0158675-.957717.0158675ZM691.0386117,118.4033407c-6.9250305,0-13.837027,2.7286434-18.9667632,8.1383276-4.8021856,5.0639994-7.3449526,11.6954812-7.1596428,18.6726478.1853097,6.9760332,3.076595,13.4635741,8.1411611,18.2657597l.057803.0566696c4.7001803,4.7443826,11.242124,7.3443859,17.8996738,7.1143071,7.1959114-.0181343,14.0846734-2.988757,18.9814973-8.152495,9.9132209-10.454416,9.472331-27.0251866-.9820849-36.9389742-5.0447317-4.7834847-11.5135716-7.1562427-17.9716443-7.1562427ZM786.1240409,174.2643091h-13.6766519l-9.0065065-32.4133364-8.901101,32.4133364h-14.2433484l-17.8175028-56.5642386h14.6802713l9.8174492,34.0539226,9.9931251-34.0539226h12.4701552l9.8678851,34.0675233,9.9086873-34.0675233h14.65477l-17.7472325,56.5642386ZM779.6155323,169.1221056h2.7320435l14.5204629-46.2798316h-3.7923326l-13.4601739,46.2798316ZM776.3553277,169.1221056h2.6260713l-13.4052043-46.2798316h-2.0803426l12.8594757,46.2798316ZM747.2390312,169.1221056h3.3803443l12.7087344-46.2798316h-2.5081985l-13.5808802,46.2798316ZM744.0683646,169.1221056h2.5643014l-13.3428677-46.2798316h-3.7996996l14.578266,46.2798316ZM651.8079171,174.2643091h-13.8676286v-82.2752562h13.8676286v82.2752562ZM643.082492,169.1221056h3.5832216v-71.9908492h-3.5832216v71.9908492ZM614.9448803,174.2643091h-13.8840628v-43.5528883l-8.0187546-.0164342v-12.9949161h8.0351888v-9.6253391c-.1892766-4.1935537,1.4297751-8.4335764,4.4440335-11.5192386,2.9235869-2.9235869,6.9590323-4.5352716,11.0426469-4.4372331l15.1415622-.0005667v13.0481856h-10.6057239c-3.7855322,0-4.7851848.8970805-5.0016628,1.1719282-.3468182.4408898-1.1532273,1.9517025-1.1532273,6.4450386v4.917225h13.5950476v12.9682814h-13.5950476v43.5959573ZM606.203021,169.1221056h3.5996558v-43.5959573h13.5950476v-2.6838743h-13.5950476v-10.0594285c0-4.5477389.7372721-7.6957377,2.2537517-9.6242057,1.6587205-2.1092442,4.6168759-3.1349647,9.0433418-3.1349647h5.4635204v-2.7637785h-10.0594285c-2.7949469-.0742372-5.4130844.9973857-7.3256849,2.9105529-2.0032719,2.0503077-3.0901957,4.8973906-2.9615556,7.7898093l.0028335,14.8820153h-8.0351888v2.7207096l8.0187546.0164342v43.5426878ZM691.1139823,167.9728452c-5.6034944,0-11.2041553-2.1149111-15.4696795-6.3447334l-.1354404-.1462077c-7.6288675-8.8359309-7.6288675-22.1629311,0-30.9994288l.1354404-.1450743c8.5299148-8.4607779,22.4094441-8.4607779,30.9393589,0l.1275067.1360071c7.7048048,8.8415979,7.7048048,22.1759652,0,31.017563l-.1275067.1371405c-4.2649574,4.2286888-9.8684518,6.3447334-15.4696795,6.3447334ZM679.3363302,158.0465903c6.515309,6.3878023,17.0433955,6.3878023,23.5598379-.0045336,5.944079-6.8921621,5.944079-17.2275718,0-24.1191673-6.515309-6.3912025-17.0433955-6.3923359-23.5598379-.0045336-5.887976,6.8955623-5.887976,17.2326721,0,24.1282344Z"/>
      </g>
    </g>
    <g>
      <rect class="cls-2" x="358.8785063" y="191.9311676" width="444.9933871" height="58.987"/>
      <g>
        <path class="cls-4" d="M454.8140045,207.3361474h13.3272137c6.3507721,0,10.9038778,4.0521168,10.9038778,9.8588284,0,5.8078451-4.5531057,9.8599619-10.9038778,9.8599619h-6.1830201v8.9826644h-7.1441935v-28.7014547ZM467.5144152,220.5375471c2.4652738,0,4.1779307-1.3363484,4.1779307-3.3425713,0-2.0050894-1.7126569-3.3414378-4.1779307-3.3414378h-5.5562172v6.6840091h5.5562172Z"/>
        <path class="cls-4" d="M487.7817998,207.3361474h7.1441935v28.7014547h-7.1441935v-28.7014547Z"/>
        <path class="cls-4" d="M505.3730871,207.3361474h13.3272137c6.3507721,0,10.9038778,4.0521168,10.9038778,9.8588284,0,5.8078451-4.5531057,9.8599619-10.9038778,9.8599619h-6.1830201v8.9826644h-7.1441935v-28.7014547ZM518.0734978,220.5375471c2.4652738,0,4.1779307-1.3363484,4.1779307-3.3425713,0-2.0050894-1.7126569-3.3414378-4.1779307-3.3414378h-5.5562172v6.6840091h5.5562172Z"/>
        <path class="cls-4" d="M545.4839425,213.727724v4.4703632h14.0367591v6.3927101h-14.0367591v5.0552282h15.458117v6.3915766h-22.6023106v-28.7014547h22.6023106v6.3915766h-15.458117Z"/>
        <path class="cls-4" d="M591.3595715,229.6460255v6.3915766h-20.9723962v-28.7014547h7.1441935v22.3098781h13.8282026Z"/>
        <path class="cls-4" d="M599.8865853,207.3361474h7.1441935v28.7014547h-7.1441935v-28.7014547Z"/>
        <path class="cls-4" d="M617.4778726,207.3361474h7.1441935l12.5337922,16.9622174v-16.9622174h7.1022556v28.7014547h-7.1022556l-12.5337922-16.9622174v16.9622174h-7.1441935v-28.7014547Z"/>
        <path class="cls-4" d="M661.8913392,213.727724v4.4703632h14.0367591v6.3927101h-14.0367591v5.0552282h15.458117v6.3915766h-22.6023106v-28.7014547h22.6023106v6.3915766h-15.458117Z"/>
        <path class="cls-4" d="M684.7883492,231.7338574l4.0532502-4.8036002c2.7985108,2.2975219,5.9325256,3.6338703,9.4417154,3.6338703,2.6738303,0,4.0521168-1.0858539,4.0521168-2.6318923,0-1.7126569-1.3363484-2.0889654-5.5142792-3.0909433-6.1410821-1.3794199-10.6953213-3.0501388-10.6953213-8.8160459,0-5.5142792,4.4284252-9.1912209,10.9458158-9.1912209,4.8466717,0,8.606356,1.4213579,11.6564948,3.9274362l-3.6350038,5.0971662c-2.6318923-2.0050894-5.5142792-3.0501388-8.1881095-3.0501388-2.2986553,0-3.5930658,1.0869874-3.5930658,2.5072118,0,1.7545949,1.3782864,2.3394599,5.6400931,3.2586953,6.4335146,1.3782864,10.5695074,3.2167573,10.5695074,8.606356,0,5.7647737-4.3864872,9.3578394-11.4887428,9.3578394-5.0971662,0-9.7341479-1.6707189-13.2444711-4.8047337Z"/>
      </g>
    </g>
  </g>
  <g>
    <g>
      <path class="cls-1" d="M239.7105636,295.5612549c-3.4957514,4.3374164-8.7920439,6.8609149-14.3906717,6.8568457l-106.8407142.0246489c-5.6007793.0010758-10.8973525-2.5271467-14.3906717-6.8691l-66.6231094-82.8356972c-.3724-.46702-.7216945-.9517667-1.0462933-1.452603-2.3661101-3.620025-3.3522544-7.9358795-2.8212968-12.1785355-.536009,4.2483155.4493869,8.5712325,2.8188647,12.196309.3246923.5008363.6738933.985583,1.0463868,1.452603l66.6230159,82.8356972c3.4933192,4.3419533,8.7899859,6.8701758,14.3906717,6.8690533l106.8407142-.0246489c5.5987213.0040692,10.8949203-2.5194293,14.3906717-6.8567989l66.5985073-82.848045c2.1848212-2.7154982,3.5155828-5.9556397,3.9017338-9.3268836-.3887702,3.3649296-1.7182221,6.5985231-3.8993016,9.3092973l-66.5985073,82.8478579Z"/>
      <path class="cls-5" d="M309.8643164,197.2816237l-23.7834573-103.3076386c-1.2468523-5.4159357-4.9123866-9.9740232-9.9590094-12.3840992l-96.2661832-45.9665115c-2.777331-1.3268795-5.8461461-1.9406705-8.9249704-1.784966l.0000935.0000935c-2.4475872.1232914-4.8457831.7301602-7.0538033,1.784966l-96.2538353,45.9911137c-5.0466227,2.4101227-8.7120635,6.9682102-9.9590094,12.3840992l-23.7464137,103.3076854c-.1376037.597187-.2439636,1.1980689-.3199216,1.8004476-.5309576,4.242656.4551867,8.5585105,2.8212968,12.1785355.3245988.5008363.6738933.985583,1.0462933,1.452603l66.6231094,82.8356972c3.4933192,4.3419533,8.7898924,6.8701758,14.3906717,6.8691l106.8407142-.0246489c5.5986278.0040692,10.8949203-2.5194293,14.3906717-6.8568457l66.5985073-82.8478579c2.1810795-2.7107742,3.5105314-5.9443676,3.8993016-9.3092973.2316157-2.0219606.1234785-4.0910675-.344056-6.122476Z"/>
      <path class="cls-2" d="M317.5458021,198.9064886l-25.1005614-109.0687529c-1.3195362-5.7127051-5.1885295-10.5193866-10.5128853-13.061173l-101.621128-48.5393078c-2.9343919-1.4017617-6.1769188-2.0494158-9.429642-1.883515-2.5809814.1352183-5.1088297.7797387-7.4354641,1.895816l-101.621128,48.5393078c-5.3273493,2.5443588-9.1967167,7.3561853-10.5129788,13.0734741l-25.0636581,109.0565921c-1.1730458,5.0787552-.222729,10.4121848,2.634442,14.7845869.3439625.5263739.7137432,1.0358163,1.1077519,1.5264095l70.3284937,87.452016c3.6877979,4.5831574,9.278755,7.2518366,15.1908499,7.2507609l112.7865785-.0246489c5.9100368.0040692,11.5006198-2.6598861,15.1908499-7.238413l70.3037979-87.4643639c3.6862076-4.5836251,5.0680444-10.5822484,3.7546821-16.2987888ZM306.3066387,212.7309833l-66.5985073,82.848045c-3.4957514,4.3373697-8.7919504,6.8608681-14.3906717,6.8567989l-106.8407142.0246489c-5.6006858.0011225-10.8973525-2.5270999-14.3906717-6.8690533l-66.6230159-82.8356972c-.3724935-.46702-.7216945-.9517667-1.0463868-1.452603-2.3694777-3.6250764-3.3548736-7.9479935-2.8188647-12.196309.075958-.6023787.1823179-1.2032606.3199216-1.8004476l23.7464137-103.3076854c1.2469458-5.415889,4.9123866-9.9739765,9.9590094-12.3840992l96.2538353-45.9911137c2.2080202-1.0548058,4.6062161-1.6616746,7.0538033-1.784966l-.0000935-.0000935c3.0788243-.1557045,6.1476394.4580866,8.9249704,1.784966l96.2661832,45.9665115c5.0466227,2.410076,8.7121571,6.9681635,9.9590094,12.3840992l23.7834573,103.3076386c.4675345,2.0314085.5756718,4.1005154.344056,6.122476-.386151,3.3712439-1.7169125,6.6113854-3.9017338,9.3268836Z"/>
    </g>
    <g>
      <path class="cls-4" d="M239.7366288,225.2679378h-4.9999991v-8.8461899c0-11.4658183-4.1152337-20.2568324-12.2304666-26.1298782l-31.9755803-23.1391561,2.9316401-4.0507805,31.9755803,23.1391561c9.3544906,6.7695301,14.2988256,17.2060517,14.2988256,30.1806588v8.8461899Z"/>
      <polygon class="cls-4" points="237.2405355 232.1224288 223.2131942 218.748896 227.3538185 214.4061233 237.2385824 223.8314146 247.1174869 214.4080764 251.2581112 218.7498725 237.2405355 232.1224288"/>
      <path class="cls-4" d="M149.2532462,227.9769217h-4.9999991v-14.2309545c0-10.7431622,5.3457022-21.0253869,14.2988256-27.504878l31.9755803-23.1391561,2.9316401,4.0507805-31.9755803,23.1391561c-7.6582018,5.5419912-12.2304666,14.3100561-12.2304666,23.4540975v14.2309545Z"/>
      <polygon class="cls-4" points="146.7581294 232.1224288 132.7307881 218.748896 136.8714124 214.4061233 146.7561763 223.8314146 156.6350808 214.4080764 160.7757051 218.7498725 146.7581294 232.1224288"/>
      <g>
        <circle class="cls-3" cx="237.2357234" cy="250.5281658" r="16.2063524" pointer-events="all"/>
        <path class="cls-4" d="M237.2357208,268.8956231c10.1276139,0,18.3673781-8.2397643,18.3673781-18.3673781s-8.2397643-18.3673781-18.3673781-18.3673781-18.3673781,8.2397643-18.3673781,18.3673781,8.2397643,18.3673781,18.3673781,18.3673781ZM237.2357208,236.4828276c7.7446908,0,14.0454174,6.3007266,14.0454174,14.0454174s-6.3007266,14.0454174-14.0454174,14.0454174-14.0454174-6.3007266-14.0454174-14.0454174,6.3007266-14.0454174,14.0454174-14.0454174Z"/>
      </g>
      <g>
        <circle class="cls-3" cx="146.7512756" cy="250.5281658" r="16.2063524" pointer-events="all"/>
        <path class="cls-4" d="M146.7512781,268.8956231c-10.1276139,0-18.3673781-8.2397643-18.3673781-18.3673781s8.2397643-18.3673781,18.3673781-18.3673781,18.3673781,8.2397643,18.3673781,18.3673781-8.2397643,18.3673781-18.3673781,18.3673781ZM146.7512781,236.4828276c-7.7446908,0-14.0454174,6.3007266-14.0454174,14.0454174s6.3007266,14.0454174,14.0454174,14.0454174,14.0454174-6.3007266,14.0454174-14.0454174-6.3007266-14.0454174-14.0454174-14.0454174Z"/>
      </g>
      <g>
        <circle class="cls-2" cx="191.9944695" cy="165.1275276" r="16.2063524" pointer-events="all"/>
        <path class="cls-4" d="M191.9944721,183.494985c-10.1276139,0-18.3673781-8.2397643-18.3673781-18.3673781s8.2397643-18.3673781,18.3673781-18.3673781,18.3673781,8.2397643,18.3673781,18.3673781-8.2397643,18.3673781-18.3673781,18.3673781ZM191.9944721,151.0821894c-7.7446908,0-14.0454174,6.3007266-14.0454174,14.0454174s6.3007266,14.0454174,14.0454174,14.0454174,14.0454174-6.3007266,14.0454174-14.0454174-6.3007266-14.0454174-14.0454174-14.0454174Z"/>
      </g>
      <path class="cls-4" d="M194.4944492,139.9002769h-4.9999991v-8.8461899c0-11.4658183-4.1152337-20.2568324-12.2304666-26.1298782l-31.9755803-23.1396444,2.9316401-4.0507805,31.9755803,23.1396444c9.3544906,6.7695301,14.2988256,17.2060517,14.2988256,30.1806588v8.8461899Z"/>
      <polygon class="cls-4" points="191.9983559 146.7542796 177.9710146 133.3807468 182.1116389 129.0379741 191.9964028 138.4632655 201.8753073 129.0399273 206.0159316 133.3817234 191.9983559 146.7542796"/>
      <path class="cls-4" d="M104.0110666,142.6087726h-4.9999991v-14.2309545c0-10.7426739,5.3457022-21.0248987,14.2988256-27.5043897l31.9755803-23.1396444,2.9316401,4.0507805-31.9755803,23.1396444c-7.6582018,5.5419912-12.2304666,14.3095678-12.2304666,23.4536092v14.2309545Z"/>
      <g>
        <circle class="cls-3" cx="101.5112262" cy="165.127177" r="16.2063524" pointer-events="all"/>
        <path class="cls-4" d="M101.5112288,183.4946343c-10.1276139,0-18.3673781-8.2397643-18.3673781-18.3673781s8.2397643-18.3673781,18.3673781-18.3673781,18.3673781,8.2397643,18.3673781,18.3673781-8.2397643,18.3673781-18.3673781,18.3673781ZM101.5112288,151.0818388c-7.7446908,0-14.0454174,6.3007266-14.0454174,14.0454174s6.3007266,14.0454174,14.0454174,14.0454174,14.0454174-6.3007266,14.0454174-14.0454174-6.3007266-14.0454174-14.0454174-14.0454174Z"/>
      </g>
      <g>
        <circle class="cls-2" cx="146.7513311" cy="79.7592669" r="16.2063524" pointer-events="all"/>
        <path class="cls-4" d="M146.7513337,98.1267242c-10.1276139,0-18.3673781-8.2397643-18.3673781-18.3673781s8.2397643-18.3673781,18.3673781-18.3673781,18.3673781,8.2397643,18.3673781,18.3673781-8.2397643,18.3673781-18.3673781,18.3673781ZM146.7513337,65.7139287c-7.7446908,0-14.0454174,6.3007266-14.0454174,14.0454174s6.3007266,14.0454174,14.0454174,14.0454174,14.0454174-6.3007266,14.0454174-14.0454174-6.3007266-14.0454174-14.0454174-14.0454174Z"/>
      </g>
      <polygon class="cls-4" points="101.5159498 146.7542796 87.4886085 133.3807468 91.6292328 129.0379741 101.5139967 138.4632655 111.3929012 129.0399273 115.5335255 133.3817234 101.5159498 146.7542796"/>
    </g>
  </g>
</svg>