<svg id="Layer_1" data-name="Layer 1" xmlns="http://www.w3.org/2000/svg" viewBox="0 0 180.3 180.3"><defs><style>.cls-1{fill:#00254f;}.cls-2{fill:#0087ac;}.cls-3{fill:#ffd100;}</style></defs><circle class="cls-1" cx="90.15" cy="90.15" r="90.15"/><path class="cls-2" d="M383.74,342.61c-1-.87-2.82.95-3.43,2.47a10.8,10.8,0,0,1-4.1,6.18c-1.2.88,1.49-5,.1-6.6-.87-1-1.93-1.26-2.78.95-.5,3.25-4.95,11.93-6,13.33-.42.58-.79,1.17-1.15,1.77.58-1.69,2.36-5.94,2.58-6.45a48.1,48.1,0,0,0,2.85-9.9,46.15,46.15,0,0,0,.55-6c.41-1.07.81-2.21,1.18-3.38a38.13,38.13,0,0,1-.07,4.3,10.88,10.88,0,0,0,.34,4c.94,1,2.56.5,3.41-.76a11.15,11.15,0,0,0,1.37-4.56,70.62,70.62,0,0,0-1.43-23.85,68,68,0,0,0-6.6-17.07c-4.56-7.76-7.62-17-8.09-17.34-.81-.59-.7-1.76-.95-2.73-.43-1.69-3.37-4.86-4.7-5.91s-8.59-5.22-5,.1a6.87,6.87,0,0,1,2.5,4.66c-.1-.05-.21-.08-.32-.14-1.62-.82-2.49-2.61-3.74-3.95a19.25,19.25,0,0,0-3.8-3c-1.42-.82-3-1.43-4.47-2.12s-3-1.26-4.31-2a15.63,15.63,0,0,1-3.59-2.75,6.77,6.77,0,0,0-4.65.08,4,4,0,0,0-.46.25l-.78-.69a2.49,2.49,0,0,0-.33-.65,4.48,4.48,0,0,0-2.35-1.44l-.11-.08c-.59-.41-1.15-.86-1.76-1.23a81.22,81.22,0,0,1-6.62-5.07c-1-1.08-2.92-2.06-7-2.59-1.42-.19-5-1.42-5.69-.53s-.9,2,.19,2.61c1.68.22,5.92,3.13,6.59,3.8a5.79,5.79,0,0,0,.57.44c-.94-.08-1.87-.17-2.82-.2a67.24,67.24,0,0,0-12.45.75c-1.15.16-2.29.36-3.43.61-3.2.62-6.34,1.48-9.65,1.49-1.16,0-2.45-.1-3.34.67-.58.48-.92,1.24-1.49,1.7-1,.83-2.38.62-3.64.81-2.19.34-4,1.86-5.75,3.25s-7.83,4.9-8.05,6.18a1.81,1.81,0,0,0-.27-.1,2.38,2.38,0,0,0-2,.65,56.62,56.62,0,0,0-7.52,6.83,55,55,0,0,0-4.76,6.13c-.4.6-.82,1.19-1.19,1.81-1.09,1.71-6.19,8.55-6.9,12.81-.23,1.41-1.09,8.51.39,6.37a5.17,5.17,0,0,1,1.84-2.94,2.71,2.71,0,0,0-.35,1.66c.11.71.56,1.37.67,2.06.18,1.19-.72,2.2-1.22,3.29a53.15,53.15,0,0,0-1.91,8.48c.11,3.85-1.19,6.92-.37,10.67a2.44,2.44,0,0,0-.54.33,4.44,4.44,0,0,0-1.17,2.81c-.24,1.78-.55,3.46-.54,2.64a22.25,22.25,0,0,0-1.7-7.51c-.86-2.42-1.74-4.93-1.63-7.42a30.94,30.94,0,0,1,.95-4.77c.16-.8.27-1.62.38-2.44l.25-1.66c.37-2.47.5-8.89.74-9.62.89-2.64,4.24-7.46,3-10.34-.67-2.16-2.82.27-3.7.84A3.68,3.68,0,0,0,232,295c-1.15,4.24-2.1,8.46-2.82,12.75-.54,3.29-1,6.56-1.21,10a26.94,26.94,0,0,0,0,3c.14,2.77.6,5.4.09,8.11-.18,1,1.4,4.79,1.58,7.14.27,3.6,4.73,12.44,4.42,13.06a3.46,3.46,0,0,0,0,2.59c.75,2.6,5.85,17.21,12.42,23.12,1.36,1.66,6.33,7.72,6.89,7.94.94.38,1.14,1.56,1.64,2.44a3.79,3.79,0,0,0,.34.45c5.66-7,11.14-13.78,12.49-15.52,4.55-5.85,7.23-7.49,11.56-13.5,3.19-4.44,6.62-9.88,9.52-9,1.53.49,1.31,1,2.4,2,1.42,1.4.47,4.1-1.9,7.08-4.64,5.81-7.55,9.65-12.26,15.4-1.84,2.25-4.61,5.81-8.31,10.42.89.55,1.77,1.13,2.69,1.61a2.73,2.73,0,0,0-.18,1.44,3.91,3.91,0,0,0,1.82,2.28,40.12,40.12,0,0,0,13,6.17c1.32.36,2.66.63,4,.87,2.52.5,2.32,2.17,4.69,2.39.56.06,1.51,1.31,1.88,1.76-4.07,1.47-6.55-2.48-8.51-.79a4.64,4.64,0,0,0-.33,3.28l0,.06a10.48,10.48,0,0,1-2.83-1c-1.08-.6-2-1.47-3-2.14-.5-.31-1-.59-1.55-.88l-1.06-.58c-1.21-1-4.06-3.53-5.06-3.57s-2.32-1.8-3.49-2.5c-2.5-1.48-4.37-2.72-5.82-3.76-.8,1-1.64,2-2.48,3a37.33,37.33,0,0,1,4.54,3.88,87.86,87.86,0,0,0,7.71,5.76,55.75,55.75,0,0,0,6.68,3.48l1.93.8a14.65,14.65,0,0,1,4.71,2.63c.57.48,4.82,1.63,5.41,2.19,2.05,1.9,11.21,2.12,8-1.24-1.53-2-4.81-3.11-5.57-3.68-.15-.12-.32-.2-.47-.3.58.07,1.17.18,1.76.22a51.47,51.47,0,0,0,6.21,0l1.73-.11a76.34,76.34,0,0,1,9.33.08c1.66.63,5-1.62,6.5-1.86.47-.07,5.13-.86,6.39-1.2,2-.61,8.41-2.47,9.88-2.81a1.9,1.9,0,0,0,1.33-.72,19.4,19.4,0,0,1,4.32-1.91c3.25-.76,4.82-2.08,8.06-2.83a3,3,0,0,0,2.21-1.29c.16-.35.18-.75.37-1.08a2.38,2.38,0,0,1,1.21-.89c3.73-1.68,8-3.72,9-7.68,0-1.4-1-2-2.3-1.13s-4.36,3.13-5.88,3.34h0c.16-.16.33-.32.48-.49.94-1,1.93-1.93,2.78-3,1.22-1.47,2.52-2.89,3.71-4.39a53.49,53.49,0,0,1,4-4.13c1-.91,2.23-1.78,2.48-3.13a29,29,0,0,1,7.9-10.4c1.61-1.29,2.38-3.31,3.23-5.2s1.18-3.54,3.12-5C384.25,346.77,384.74,343.46,383.74,342.61ZM244.58,360a33.34,33.34,0,0,1-1.69-5.24l-.84-2.53-.52-1.74c-.72-2.58-2.58-9.28-2.49-10.12a15.32,15.32,0,0,1,.6-3c.27.7.54,1.4.8,2.1.17.38,2.14,9,3.59,12.64.43,1.07.86,2.14,1.37,3.17,1.36,2.94,2.37,2.78,3.16,6a35,35,0,0,0,4,7,4.61,4.61,0,0,1,1.36,2.53C252.67,369.35,248,367,244.58,360Zm27-81.91c-.63.52-1.31,1-1.9,1.56a21.76,21.76,0,0,1-5.58,4.1c-.78.35-1.73.64-1.93,1.51-.12.56-2.73,1.69-3.51,2.2a20.66,20.66,0,0,0-4.78,4.5,45.44,45.44,0,0,0-3.53,5,47.81,47.81,0,0,0-4,8.37c0-.45.11-.9.17-1.36a24.83,24.83,0,0,1,2.24-8.48,36.88,36.88,0,0,1,3.21-4.65l1.57-2.24,1.12-1.47c1.7-2.14,7.23-5.19,8.73-6.43,1.69-2.14,5.67-3.06,8.48-3.17v0a2.37,2.37,0,0,0,.52,0C272.19,277.67,271.9,277.87,271.63,278.09Zm30-15.16a44.52,44.52,0,0,0-5.78.55c-1.16.19-2.32.42-3.46.68-3.22.75-6.34,1.75-9.66,1.9-.4,0-.82,0-1.23.08l3.17-1.44a30,30,0,0,1,9-3,21,21,0,0,1,3.07-.17l3.06,0,3-.15h.13A4.49,4.49,0,0,0,301.61,262.93Zm33.19,131a54,54,0,0,1-6.82,1.64c-2.4.64-9.5,4.42-16.09.57l-.24-.08a6.18,6.18,0,0,1,1.1-.91c1-.53,2.1.05,3.18.23,1.89.32,3.66-.53,5.49-1.24s9.58-2,10-2.28c.76-.44,1.62.21,2.46.45a4.57,4.57,0,0,0,3.07-.37A2.83,2.83,0,0,1,334.8,393.9Zm26.66-101.68a59.82,59.82,0,0,1-4.67-7.54c1.87,1.61,4.35,2.42,6.12,6.84.1.87.21,2.33.23,3.21Z" transform="translate(-215.97 -239.77)"/><path class="cls-3" d="M341.07,313.28A7.79,7.79,0,0,1,336,310a1.77,1.77,0,0,1,.14-1.5,5.25,5.25,0,0,1,2.92-2.32,2.63,2.63,0,0,1,2.77.09c.76.66,1.5,1.34,2.21,2,1.05,1,.72,3.05-.69,4.4A2.55,2.55,0,0,1,341.07,313.28Z" transform="translate(-215.97 -239.77)"/><path class="cls-3" d="M320.69,359.59c1.57,2.36,1.6,2.58,1.39,5.35a3.25,3.25,0,0,1-1.32,1.79,4.21,4.21,0,0,1-3.82.43,3,3,0,0,1-2.09-2.52c-1-4,.84-6.06,2.95-6.44C318,358.16,320,358.32,320.69,359.59Z" transform="translate(-215.97 -239.77)"/><path class="cls-3" d="M321.1,289a3.68,3.68,0,0,1,.23,4,4,4,0,0,1-4.22,1.65,1.42,1.42,0,0,1-.58-.36,5.73,5.73,0,0,1-1.61-5.8,2.94,2.94,0,0,1,2.81-1.69A4,4,0,0,1,321.1,289Z" transform="translate(-215.97 -239.77)"/><path class="cls-3" d="M271.62,325.23c-.44.47-1.32.12-2.22.28a1.67,1.67,0,0,1-1.75-1.12c-.69-1.74.13-3.16,1.41-4.37a3.41,3.41,0,0,1,3.68-.88,2.47,2.47,0,0,1,1.35,3.85,10.05,10.05,0,0,1-.93,1A16.52,16.52,0,0,1,271.62,325.23Z" transform="translate(-215.97 -239.77)"/><path class="cls-3" d="M290.66,295.9c.37.41,1,1.08,1.58,1.79a1.42,1.42,0,0,1-.17,1.9,3.65,3.65,0,0,1-4.36,1.09,3.75,3.75,0,0,1-2.75-2.87,2.44,2.44,0,0,1,2.75-3,12.6,12.6,0,0,1,1.35.32A17.07,17.07,0,0,1,290.66,295.9Z" transform="translate(-215.97 -239.77)"/><path class="cls-3" d="M345,343.41c-.27.47-.46,1.26-1,1.64-1.29,1-4.21.62-5-.94a2.62,2.62,0,0,1,0-2.69,3,3,0,0,1,2.93-1.55A3.62,3.62,0,0,1,345,343.41Z" transform="translate(-215.97 -239.77)"/><path class="cls-3" d="M343.68,365.89a40.21,40.21,0,0,0-3.19-3.81c-2.05-2-2.1-2.4-8-9.16-.71-.81-1.92-1.62-2.6-2.38s-1.36-2-2-2.72c-2.12-2.38-3.32-3.76-4.18-4.57-1.07-1-4.79-3.42-5.24-4.86-.35-1.14-2.47-2.77-2.57-3.87-.06-.35,2.05-.6,3-1.18h0c1.39-.42,6.4-.58,7.74-1.21a18,18,0,0,1,6.1-1.34c3.72-.12,17.4-6.15,21-6.66,2.4-.33,3.69-1.86,4.73-3.76a1.56,1.56,0,0,0-.12-1.31,2,2,0,0,0-1.07-.73,3.19,3.19,0,0,0-1.41,0c-7.17,1.19-24.5,7.12-31.62,8.64-.81.18-4.7,1.37-6.52,1.9-1.58.37-4.38-.85-3.18-3.07,1.28-1.9,4.35-3.85,5.1-5.67.54-1.32,2.38-3.06,2.92-3.82,1.51-2.11,12.69-18.08,14.32-20.1a24.48,24.48,0,0,0,3.79-6.45,5.92,5.92,0,0,0,.23-2.08c0-.57-1-1.33-1.49-1.06a7,7,0,0,0-2.3,1.51c-1.75,2.53-3.29,3.24-5.25,6.18-1.15,1.72-12.05,17.37-13.41,19-2.46,2.94-3.79,3.95-6,7.13l-.85,1s-4.08,3.08-4.41.06h0a34.89,34.89,0,0,0-.19-7.21c-.47-2.51-.1-5.17-.27-7.75-.24-3.81-1.06-19.7-.13-25.5,0-.22-.11-.47-.12-.7a1.82,1.82,0,0,0-1.81-1.66,4.23,4.23,0,0,0-3.38,2.27,13.73,13.73,0,0,0-1.56,7c0,3.46.83,21.75,1.27,25.18a60.33,60.33,0,0,1,.44,7.36c-.1,1,.6,4.27-1,3.5a11.08,11.08,0,0,1-2.71-1.86c-1.75-1.35-2-2.53-8.27-7.71-4.87-4-8.33-7.78-9.54-8.83-1.61-1.42-3.74-3.82-5.62-4.82a2.78,2.78,0,0,0-3.19.79c-1.15,1.17-1.33,3.5-.27,4.55,1.68,1.66,4.3,3.36,6,5a38.58,38.58,0,0,0,5.4,5.14c1.09.91,3.11,2.21,4.27,3.18,5.88,4.94,5.12,4.07,5.12,4.07s5.44,3.94,4.31,5.26c-1.4.66-2.34,1.89-4.59,2.45-.81.2-24.55,4.07-27.23,3.85-1.84-.15-4.68-.28-6.05.72a11,11,0,0,0-2.37,2.58,2.19,2.19,0,0,0,.88,3.52l.35.12c5.41,1.79,18.93-1.89,26.4-3.33,5.67-1.1,10.79-2.11,12-2.14.68,0,3.83-1.12,5.57.59.76.74.38,5.23.37,5.56a39.8,39.8,0,0,1-.5,4.92c-.7,5.09-.6,27-.66,31.48,0,1.06.8,2.18,1.33,3.23.36.69,2,1.29,2.48.9a4.34,4.34,0,0,0,1.24-1.58,6.86,6.86,0,0,0,.47-2.07l-.24-6a11.57,11.57,0,0,1,0-2.82,80,80,0,0,0,.38-16.43,93.23,93.23,0,0,1,.62-9.69c.19-1.51,2.43-5.56,5.27-4.73l0,0a11.92,11.92,0,0,1,2.51,2.16,54,54,0,0,1,4.67,5.58c.49.74,2.39,2.09,3,2.82s2.48,3.24,3,3.86c5.27,6.28,5.61,6.79,7,8.5,2.54,3.21,2.42,2.2,5.3,5a8,8,0,0,0,3.21,1.34,2.85,2.85,0,0,0,2.6-.72A2,2,0,0,0,343.68,365.89Z" transform="translate(-215.97 -239.77)"/></svg>