<svg id="Layer_1" data-name="Layer 1" xmlns="http://www.w3.org/2000/svg" xmlns:xlink="http://www.w3.org/1999/xlink" viewBox="0 0 171.17 184.9"><defs><style>.cls-1{fill:#00b0ad;}.cls-2{fill:url(#linear-gradient);}.cls-3{fill:url(#linear-gradient-3);}.cls-4{fill:url(#linear-gradient-4);}</style><linearGradient id="linear-gradient" x1="312.69" y1="479.33" x2="312.69" y2="298.24" gradientUnits="userSpaceOnUse"><stop offset="0" stop-color="#d1e1d7"/><stop offset="1" stop-color="#00b0ad"/></linearGradient><linearGradient id="linear-gradient-3" x1="229.75" y1="306.57" x2="229.75" y2="306.57" xlink:href="#linear-gradient"/><linearGradient id="linear-gradient-4" x1="2.65" y1="235.48" x2="2.65" y2="54.39" xlink:href="#linear-gradient"/></defs><title>CNI_Icon</title><path class="cls-1" d="M363.08,281.11l-.75-.41-50.16-36.62-84.25,63.29L244,319.14l0,0,69.11,50.41,84.35-63.36ZM250.87,295.36l45.4-34.11,12.65,9.23L263.52,304.6Zm74.47,35.83-12.51,9.4-45.77-33.41,45.38-34.09L342,294.69l-32.87,24.69Zm20.24-33.91,12.63,9.22-29.37,22.06-12.63-9.22Zm18.59,10.14.85-.76.28-.2-16.2-11.82,12.51-9.4,28.81,21L345,340.37l-12.54-9.15ZM345.57,292l-45.79-33.42,12.42-9.33L358,282.71Zm-98.2,6L260,307.23l-12.42,9.33L235,307.32Zm16.19,11.82,45.87,33.48L297,352.62l-45.87-33.48Zm65.42,24L341.52,343l-28.44,21.36-12.54-9.15Z" transform="translate(-227.1 -243.84)"/><path class="cls-2" d="M312.69,428.74a2.27,2.27,0,0,1-1.33-.44l-82.93-59.44a3.73,3.73,0,0,1,0-5.7l41.47-29.72,2.65,5.7L235.06,366l77.62,55.63L390.31,366l-37.49-26.87,2.65-5.7,41.47,29.72a3.73,3.73,0,0,1,0,5.7L314,428.3A2.27,2.27,0,0,1,312.69,428.74Z" transform="translate(-227.1 -243.84)"/><path class="cls-2" d="M312.69,369.31a2.27,2.27,0,0,1-1.33-.44l-82.93-59.44a3.73,3.73,0,0,1,0-5.7l82.93-59.44a2.21,2.21,0,0,1,2.65,0l82.93,59.44a3.73,3.73,0,0,1,0,5.7L314,368.86A2.27,2.27,0,0,1,312.69,369.31Zm-77.62-62.73,77.62,55.63,77.63-55.63-77.63-55.63Z" transform="translate(-227.1 -243.84)"/><path class="cls-3" d="M229.75,306.57" transform="translate(-227.1 -243.84)"/><rect class="cls-4" y="62.73" width="5.31" height="59.44"/></svg>