<svg width="301" height="300" viewBox="0 0 301 300" fill="none" xmlns="http://www.w3.org/2000/svg">
<path d="M36.1108 265V223H57.4468L56.7748 229.552H44.3428V239.576H53.1908L53.1348 246.632H44.3428V258.448H57.8908L57.2228 265H36.1108ZM67.8108 265.728C66.4893 265.736 65.2048 265.291 64.1708 264.468C63.0453 263.571 62.1761 262.392 61.6508 261.052C61.0328 259.513 60.7269 257.866 60.7508 256.208C60.7508 252.141 62.1415 249.275 64.9228 247.608C67.8849 245.893 71.219 244.923 74.6388 244.78C74.6889 243.276 74.5573 241.772 74.2468 240.3C74.1651 239.866 73.926 239.477 73.5754 239.209C73.2248 238.94 72.7873 238.81 72.3468 238.844C71.9605 238.826 71.5761 238.909 71.2321 239.086C70.8881 239.263 70.5966 239.527 70.3868 239.852C69.9031 240.63 69.6149 241.514 69.5468 242.428L61.8708 241.088C62.2442 238.213 63.4202 236.16 65.3988 234.928C67.491 233.665 69.8996 233.024 72.3428 233.08C75.7428 233.08 78.2908 233.976 79.9868 235.768C81.7284 237.673 82.6446 240.19 82.5348 242.768V259.068C82.5557 260.964 82.8384 262.849 83.3748 264.668L75.7028 265.336L74.8028 261.472C74.0863 262.715 73.0666 263.757 71.8388 264.5C70.6402 265.287 69.2407 265.713 67.8068 265.728H67.8108ZM71.4508 260.128C72.0178 260.149 72.5771 259.992 73.0508 259.68C73.6302 259.248 74.1661 258.76 74.6508 258.224V249.488C73.0158 249.403 71.4097 249.944 70.1588 251C69.5592 251.618 69.099 252.357 68.8092 253.168C68.5194 253.979 68.4067 254.842 68.4788 255.7C68.4105 256.842 68.673 257.979 69.2348 258.976C69.4691 259.346 69.7971 259.648 70.1856 259.85C70.5741 260.052 71.0093 260.148 71.4468 260.128H71.4508ZM98.4388 265.728C95.7779 265.854 93.1474 265.117 90.9388 263.628C89.019 262.207 87.6994 260.12 87.2388 257.776L93.3388 255.76C93.4792 256.446 93.7657 257.094 94.1788 257.66C94.5943 258.263 95.1573 258.749 95.8141 259.073C96.4709 259.396 97.1997 259.546 97.9308 259.508C98.8626 259.512 99.7831 259.304 100.623 258.9C101.006 258.753 101.335 258.492 101.565 258.152C101.795 257.812 101.916 257.41 101.911 257C101.911 255.843 101.108 254.947 99.5028 254.312L92.8908 251.612C91.228 250.942 89.8175 249.767 88.8588 248.252C87.8814 246.592 87.3959 244.689 87.4588 242.764C87.4099 240.917 87.9278 239.1 88.9428 237.556C89.9216 236.109 91.2771 234.957 92.8628 234.224C94.5007 233.456 96.2897 233.063 98.0988 233.076C100.425 233.067 102.697 233.781 104.599 235.12C106.55 236.444 107.961 238.424 108.575 240.7L102.075 242.716C101.91 242.047 101.646 241.406 101.291 240.816C100.983 240.25 100.53 239.776 99.9793 239.443C99.4284 239.109 98.7989 238.927 98.1548 238.916C97.3067 238.893 96.4701 239.116 95.7468 239.56C95.4261 239.754 95.1633 240.03 94.986 240.36C94.8086 240.69 94.7233 241.062 94.7388 241.436C94.7388 242.407 95.6535 243.303 97.4828 244.124L103.083 246.424C104.886 247.222 106.477 248.43 107.731 249.952C108.925 251.609 109.518 253.624 109.411 255.664C109.471 257.621 108.924 259.548 107.843 261.18C106.819 262.667 105.406 263.843 103.759 264.58C102.089 265.343 100.274 265.735 98.4388 265.728ZM124.311 265.728C122.618 265.802 120.935 265.429 119.431 264.648C117.928 263.866 116.656 262.704 115.743 261.276C113.764 258.308 112.775 254.36 112.775 249.432C112.775 244.432 113.783 240.456 115.799 237.504C116.757 236.07 118.071 234.909 119.612 234.133C121.153 233.358 122.868 232.995 124.591 233.08C126.257 233.011 127.911 233.383 129.387 234.16C130.862 234.937 132.106 236.091 132.991 237.504C134.932 240.453 135.903 244.429 135.903 249.432C135.923 249.66 135.864 249.887 135.735 250.076C135.661 250.147 135.604 250.233 135.567 250.328H120.615C120.589 252.576 120.91 254.814 121.567 256.964C122.202 258.964 123.172 259.964 124.479 259.964C125.935 259.964 127.018 259.124 127.727 257.444C128.436 255.764 128.81 254.887 128.847 254.812L134.783 257.052C134.152 259.478 132.852 261.678 131.031 263.4C129.169 265.003 126.766 265.836 124.311 265.728ZM128.175 245.792C128.25 243.975 127.943 242.163 127.275 240.472C127.07 239.894 126.69 239.395 126.189 239.044C125.687 238.693 125.088 238.507 124.475 238.512C124.117 238.533 123.768 238.629 123.45 238.793C123.132 238.957 122.851 239.185 122.627 239.464C121.958 240.228 121.463 241.127 121.175 242.1C120.79 243.295 120.601 244.545 120.615 245.8L128.175 245.792ZM151.359 274.8C147.178 274.8 143.93 274.212 141.615 273.036C139.3 271.86 138.143 270.245 138.143 268.192C138.133 267.513 138.268 266.84 138.538 266.217C138.809 265.595 139.208 265.036 139.711 264.58C140.863 263.526 142.217 262.716 143.691 262.2C142.522 261.918 141.43 261.383 140.491 260.632C140.124 260.28 139.839 259.852 139.655 259.378C139.472 258.904 139.394 258.395 139.427 257.888C139.427 256.431 139.965 255.026 140.938 253.941C142.044 252.692 143.4 251.69 144.919 251C141.559 249.059 139.879 246.352 139.879 242.88C139.825 240.955 140.427 239.069 141.587 237.532C142.739 236.047 144.266 234.897 146.011 234.2C147.813 233.455 149.745 233.074 151.695 233.08C154.489 233.033 157.228 233.855 159.535 235.432C160.578 234.481 161.712 233.637 162.923 232.912C164.234 232.197 165.714 231.849 167.207 231.904V237.112C165.51 237.032 163.814 237.299 162.223 237.896C162.584 238.792 162.893 239.708 163.147 240.64C163.32 241.355 163.405 242.088 163.399 242.824C163.429 245.286 162.506 247.663 160.823 249.46C159.106 251.345 156.306 252.288 152.423 252.288L150.351 252.232C149.941 252.191 149.53 252.172 149.119 252.176C148.571 252.368 148.087 252.707 147.719 253.156C147.301 253.585 147.061 254.157 147.047 254.756C147.043 255.006 147.091 255.255 147.188 255.486C147.284 255.717 147.427 255.926 147.607 256.1C147.984 256.475 148.478 256.712 149.007 256.772L157.967 257.78C163.156 258.38 165.751 260.9 165.751 265.34C165.751 268.812 164.418 271.257 161.751 272.676C158.511 274.218 154.944 274.947 151.359 274.8ZM151.583 247.808C152.105 247.831 152.625 247.723 153.095 247.493C153.564 247.263 153.969 246.919 154.271 246.492C154.97 245.381 155.303 244.078 155.223 242.768C155.321 241.456 154.965 240.149 154.215 239.068C153.911 238.676 153.52 238.361 153.073 238.147C152.626 237.933 152.135 237.826 151.639 237.836C151.101 237.82 150.567 237.939 150.087 238.184C149.608 238.429 149.197 238.791 148.895 239.236C148.197 240.256 147.843 241.473 147.887 242.708C147.875 243.926 148.163 245.128 148.727 246.208C148.993 246.726 149.406 247.154 149.914 247.438C150.422 247.723 151.002 247.851 151.583 247.808ZM151.695 269.088C155.951 269.088 158.079 267.931 158.079 265.616C158.101 265.36 158.068 265.103 157.982 264.861C157.896 264.62 157.758 264.4 157.579 264.216C157.113 263.862 156.56 263.639 155.979 263.572C154.8 263.39 153.614 263.269 152.423 263.208L147.775 262.816C147.095 263.045 146.493 263.461 146.039 264.016C145.569 264.552 145.31 265.24 145.311 265.952C145.316 266.455 145.472 266.944 145.757 267.358C146.042 267.772 146.443 268.091 146.911 268.276C148.423 268.901 150.057 269.178 151.691 269.088H151.695ZM170.455 234.144L178.295 233.472V238.572C179.39 236.99 180.813 235.663 182.467 234.68C184.413 233.621 186.609 233.108 188.823 233.196V240.868C187.04 240.923 185.267 241.158 183.531 241.568C181.603 241.911 179.797 242.749 178.291 244V264.664L170.451 265.336L170.455 234.144ZM203.103 265.728C201.41 265.802 199.727 265.429 198.223 264.648C196.72 263.866 195.448 262.704 194.535 261.276C192.556 258.308 191.567 254.36 191.567 249.432C191.567 244.432 192.575 240.456 194.591 237.504C195.549 236.07 196.863 234.909 198.404 234.133C199.945 233.358 201.66 232.995 203.383 233.08C205.049 233.011 206.703 233.383 208.179 234.16C209.654 234.937 210.898 236.091 211.783 237.504C213.724 240.453 214.695 244.429 214.695 249.432C214.715 249.66 214.656 249.887 214.527 250.076C214.453 250.147 214.396 250.233 214.359 250.328H199.407C199.381 252.576 199.702 254.814 200.359 256.964C200.994 258.964 201.964 259.964 203.271 259.964C204.727 259.964 205.81 259.124 206.519 257.444C207.228 255.764 207.602 254.887 207.639 254.812L213.575 257.052C212.944 259.478 211.644 261.678 209.823 263.4C207.961 265.003 205.558 265.836 203.103 265.728ZM206.967 245.792C207.042 243.975 206.735 242.163 206.067 240.472C205.862 239.895 205.482 239.395 204.98 239.044C204.478 238.693 203.879 238.507 203.267 238.512C202.909 238.533 202.56 238.629 202.242 238.793C201.924 238.957 201.643 239.185 201.419 239.464C200.749 240.226 200.253 241.124 199.963 242.096C199.578 243.291 199.389 244.541 199.403 245.796L206.967 245.792ZM228.863 265.728C226.202 265.854 223.571 265.117 221.363 263.628C219.443 262.207 218.123 260.12 217.663 257.776L223.763 255.76C223.903 256.446 224.19 257.094 224.603 257.66C225.018 258.263 225.581 258.749 226.238 259.073C226.895 259.396 227.624 259.546 228.355 259.508C229.286 259.509 230.205 259.298 231.043 258.892C231.426 258.745 231.755 258.484 231.985 258.144C232.215 257.804 232.336 257.402 232.331 256.992C232.331 255.835 231.528 254.939 229.923 254.304L223.315 251.616C221.652 250.946 220.242 249.771 219.283 248.256C218.305 246.596 217.82 244.693 217.883 242.768C217.834 240.921 218.352 239.104 219.367 237.56C220.346 236.113 221.701 234.961 223.287 234.228C224.925 233.46 226.714 233.067 228.523 233.08C230.849 233.071 233.121 233.785 235.023 235.124C236.972 236.446 238.383 238.423 238.999 240.696L232.499 242.712C232.334 242.043 232.07 241.402 231.715 240.812C231.407 240.246 230.954 239.772 230.403 239.439C229.852 239.105 229.223 238.923 228.579 238.912C227.731 238.889 226.894 239.112 226.171 239.556C225.85 239.75 225.587 240.026 225.41 240.356C225.233 240.686 225.147 241.058 225.163 241.432C225.163 242.403 226.078 243.299 227.907 244.12L233.507 246.42C235.31 247.218 236.901 248.426 238.155 249.948C239.349 251.605 239.942 253.62 239.835 255.66C239.895 257.617 239.348 259.544 238.267 261.176C237.243 262.663 235.83 263.839 234.183 264.576C232.513 265.339 230.698 265.731 228.863 265.724V265.728ZM254.119 265.728C251.458 265.854 248.827 265.117 246.619 263.628C244.699 262.207 243.379 260.12 242.919 257.776L249.019 255.76C249.159 256.446 249.446 257.094 249.859 257.66C250.274 258.263 250.837 258.749 251.494 259.073C252.151 259.396 252.88 259.546 253.611 259.508C254.542 259.509 255.461 259.298 256.299 258.892C256.682 258.745 257.011 258.484 257.241 258.144C257.471 257.804 257.592 257.402 257.587 256.992C257.587 255.835 256.784 254.939 255.179 254.304L248.571 251.616C246.908 250.946 245.498 249.771 244.539 248.256C243.561 246.596 243.076 244.693 243.139 242.768C243.09 240.921 243.608 239.104 244.623 237.56C245.602 236.113 246.957 234.961 248.543 234.228C250.181 233.46 251.97 233.067 253.779 233.08C256.105 233.071 258.377 233.785 260.279 235.124C262.228 236.446 263.639 238.423 264.255 240.696L257.755 242.712C257.59 242.043 257.326 241.402 256.971 240.812C256.663 240.246 256.21 239.772 255.659 239.439C255.108 239.105 254.479 238.923 253.835 238.912C252.987 238.889 252.15 239.112 251.427 239.556C251.106 239.75 250.843 240.026 250.666 240.356C250.489 240.686 250.403 241.058 250.419 241.432C250.419 242.403 251.334 243.299 253.163 244.12L258.763 246.42C260.566 247.218 262.157 248.426 263.411 249.948C264.605 251.605 265.198 253.62 265.091 255.66C265.151 257.617 264.604 259.544 263.523 261.176C262.499 262.663 261.086 263.839 259.439 264.576C257.769 265.339 255.954 265.731 254.119 265.724V265.728Z" fill="#2F54EB"/>
<path d="M98.6518 179.033C90.8781 167.941 86.2112 157.067 86.3152 151.254C91.814 153.14 100.444 161.237 108.218 172.328C115.991 183.42 120.657 194.294 120.554 200.107C115.054 198.221 106.425 190.124 98.6518 179.033Z" fill="#2F54EB"/>
<path d="M168.191 158.245C187.959 162.811 203.053 174.571 207.349 187.261C197.922 196.78 179.199 200.729 159.432 196.162C139.665 191.596 124.566 179.834 120.269 167.145C129.692 157.624 148.419 153.677 168.191 158.245Z" fill="#39D1FF"/>
<path d="M97.9767 91.5351C104.957 59.6632 126.543 34.6314 151.044 26.7149C170.7 40.9224 180.345 70.4046 173.364 102.276C166.383 134.148 144.802 159.182 120.297 167.098C100.642 152.889 90.9955 123.408 97.9767 91.5351Z" fill="#2F54EB"/>
<path d="M152.279 92.9117C178.303 70.621 210.846 61.8123 234.424 68.5769C239.94 90.8171 227.977 120.136 201.953 142.43C175.928 164.723 143.384 173.528 119.806 166.765C114.29 144.527 126.255 115.205 152.279 92.9117Z" fill="#8DA3FF"/>
<path d="M120.444 166.942C129.944 157.571 148.538 153.711 168.17 158.242C170.37 158.75 172.511 159.345 174.593 160.026C161.725 165.937 148.573 168.988 136.542 168.988C131.109 169.025 125.696 168.336 120.444 166.942Z" fill="#4AA3F0"/>
<path opacity="0.999" d="M119.718 166.406C114.418 144.211 126.395 115.086 152.279 92.912C159.409 86.7905 167.24 81.5374 175.609 77.2631C175.757 85.0139 175.007 92.7557 173.374 100.334C166.405 133.046 144.833 158.743 120.341 166.876C120.132 166.721 119.924 166.564 119.718 166.406Z" fill="#2F36EB"/>
</svg>
