<?xml version="1.0" encoding="utf-8"?>
<!-- Generator: Adobe Illustrator 26.1.0, SVG Export Plug-In . SVG Version: 6.00 Build 0)  -->
<svg version="1.1" id="a" xmlns="http://www.w3.org/2000/svg" xmlns:xlink="http://www.w3.org/1999/xlink" x="0px" y="0px"
	 viewBox="0 0 300 300" style="enable-background:new 0 0 300 300;" xml:space="preserve">
<style type="text/css">
	.st0{fill:none;}
	.st1{fill:url(#SVGID_1_);}
	.st2{fill:url(#SVGID_00000064337900918839357210000009727534478058780079_);}
	.st3{fill:url(#SVGID_00000045590054709055691150000010886941976140483996_);}
	.st4{fill:url(#SVGID_00000127726018591735700020000002806145564500235912_);}
	.st5{fill:url(#SVGID_00000099647679414699044990000009494617030396880816_);}
	.st6{fill:url(#SVGID_00000170979999153500186550000009334388445650455702_);}
	.st7{fill:url(#SVGID_00000057135102003348943040000001681393288441310103_);}
	.st8{fill:url(#SVGID_00000019663034171824004760000003126113559889693840_);}
	.st9{fill:url(#SVGID_00000152251338002073609400000017234665192102281135_);}
	.st10{fill:url(#SVGID_00000178883280536146793160000014634973072446940302_);}
	.st11{fill:url(#SVGID_00000152977196786244048390000010586328882903497624_);}
	.st12{fill:url(#SVGID_00000067949809365759766660000016496319792843219355_);}
	.st13{fill:url(#SVGID_00000115500295370157857180000003644196082485338758_);}
	.st14{fill:url(#SVGID_00000055678784568756240620000018021366536547392670_);}
	.st15{fill:url(#SVGID_00000103264684807471395450000005021989454183302844_);}
	.st16{fill:#799EC4;}
	.st17{fill:#77A9C6;}
</style>
<g>
	<g>
		<g>
			<path class="st0" d="M98.7,125.4c23.4-0.2,36-16.6,36.2-47c0.1-14.6-18.8-29.8-36.9-29.6c-21.2,0.2-38.1,17.5-38,38.7
				C60.1,108.5,77.5,125.5,98.7,125.4z M110.2,79.5c8.2,0.3,14.9,7.3,14.8,15.6c-0.2,8.2-7.1,15-15.3,15c-8.6,0-15.7-7.4-15.2-16
				C94.9,85.7,102,79.2,110.2,79.5L110.2,79.5z"/>
			<path class="st0" d="M197.9,125.4c21.1-0.1,38.3-17.4,38.2-38.5c-0.1-21.1-17.4-38.2-38.5-38.1c-18.2,0.1-36.8,15.5-36.4,30.2
				C162.2,110,174.4,125.5,197.9,125.4L197.9,125.4z M185.6,79.5c8.6-0.4,16,6.6,16.1,15.2c0,8.2-6.8,15.2-15,15.3
				c-8.2,0.2-15.3-6.5-15.6-14.8C170.8,87,177.3,79.9,185.6,79.5z"/>
			
				<linearGradient id="SVGID_1_" gradientUnits="userSpaceOnUse" x1="-34.2837" y1="299.5863" x2="222.453" y2="26.8035" gradientTransform="matrix(1 0 0 -1 0 300)">
				<stop  offset="0" style="stop-color:#426BA8"/>
				<stop  offset="1" style="stop-color:#73C2D3"/>
			</linearGradient>
			<path class="st1" d="M234.4,141.1c-2.7-5.4-5.6-8.3-12.6-4.7c-11.2,5.7-23.6,6.2-35.4,1.9c-6.6-2.4-9.4,0.2-12.1,5.1
				c-10,18.1-8.9,36.8-2.3,55.5c5.3,15.1,12.8,29.2,21.4,42.6c2.8,4.4,2.5,6.9-1.8,10.1c-12.4,9-25.3,17.1-38.7,24.5
				c-3.4,1.9-6.3,1.9-9.7,0c-13.1-7.2-25.8-15.2-38-23.9c-4.5-3.2-5.4-5.6-2.1-10.7c9.2-14.2,17.2-29.1,22.5-45.2
				c5.7-17.5,6.3-35-2.4-52c-2.5-5-5.3-7.7-11.9-5.5c-12.3,4.1-24.8,2.5-36.1-3.6c-6.3-3.4-9.1-1.2-12.2,3.8
				c-10.7,17.1-13.6,36.2-14.6,54.6C48.1,222,60,244.3,77,264.7c4.4,5.3,6.9,5.8,11.1-0.3c7.4-10.8,7.7-10.6,18.5-3
				c0.8,0.6,1.5,1.2,2.3,1.7c48.1,29.1,30.3,29.1,78.3,0c4.3-2.6,8.3-8.1,12.5-8.2c5.4-0.2,7,7.2,10,11.4c3.5,4.8,5.6,3.3,8.5-0.3
				c5.5-6.6,10.8-13.4,15.1-20.9C253.6,210.6,251.5,175.9,234.4,141.1L234.4,141.1z"/>
			
				<linearGradient id="SVGID_00000109714937650006893870000009949846638628619441_" gradientUnits="userSpaceOnUse" x1="19.1804" y1="349.9055" x2="275.9172" y2="77.1226" gradientTransform="matrix(1 0 0 -1 0 300)">
				<stop  offset="0" style="stop-color:#426BA8"/>
				<stop  offset="1" style="stop-color:#73C2D3"/>
			</linearGradient>
			<path style="fill:url(#SVGID_00000109714937650006893870000009949846638628619441_);" d="M242.4,76.4
				c-4.8-19.1-20.5-33.8-39.7-34.9c-17.5-1-35.2-1.8-51.8,5.5c-1.8,0.8-3.3,1.2-5.4,0.2c-15.9-7.4-33-6.6-49.8-6
				C75.9,42,59.2,55.9,54,75c-5.2,19.1,2.3,39.3,18.8,50.3c16.6,11,37.7,10.2,53.7-2.1c1.9-1.5,3.1-4.1,6.8-4
				c1.7,7.6,4,15.2,7.9,22.1c1.8,3.2,2.9,8.6,6.6,8.7c4.3,0,5.3-5.7,7.3-9.1c3.8-6.6,5.8-14.1,8.1-22.9c3.5,2.8,5.8,4.8,8.4,6.7
				c15.5,11,36.3,11.1,52.2,0.3C239.5,114.3,247,94.7,242.4,76.4L242.4,76.4z M98.7,125.4c-21.2,0.2-38.6-16.8-38.7-37.9
				c-0.2-21.2,16.8-38.5,38-38.7c18.1-0.2,37,15,36.9,29.6C134.7,108.8,122.1,125.2,98.7,125.4L98.7,125.4z M197.9,125.4
				c-23.5,0.1-35.7-15.4-36.7-46.4c-0.4-14.6,18.2-30.1,36.4-30.2c21.1-0.1,38.4,17,38.5,38.1C236.2,108,219,125.3,197.9,125.4
				L197.9,125.4z"/>
			
				<linearGradient id="SVGID_00000098939586476172547150000012653763533447896766_" gradientUnits="userSpaceOnUse" x1="5.9831" y1="337.4846" x2="262.72" y2="64.7017" gradientTransform="matrix(1 0 0 -1 0 300)">
				<stop  offset="0" style="stop-color:#426BA8"/>
				<stop  offset="1" style="stop-color:#73C2D3"/>
			</linearGradient>
			<path style="fill:url(#SVGID_00000098939586476172547150000012653763533447896766_);" d="M60.5,7v40.8
				c10.7-8.6,21.9-13.5,37.5-15C84.2,23.4,72.7,15.5,60.5,7z"/>
			
				<linearGradient id="SVGID_00000183934684001681303430000012238452706190425761_" gradientUnits="userSpaceOnUse" x1="89.7109" y1="416.2872" x2="346.4477" y2="143.5043" gradientTransform="matrix(1 0 0 -1 0 300)">
				<stop  offset="0" style="stop-color:#426BA8"/>
				<stop  offset="1" style="stop-color:#73C2D3"/>
			</linearGradient>
			<path style="fill:url(#SVGID_00000183934684001681303430000012238452706190425761_);" d="M235.7,46.9V7
				c-12.6,8.6-24.1,16.5-36.4,25c7.5,2.1,13.5,3.2,19,5.5C224.1,39.9,229.4,43.4,235.7,46.9z"/>
			
				<linearGradient id="SVGID_00000087397107333353787600000018125253456322628028_" gradientUnits="userSpaceOnUse" x1="-102.7803" y1="235.119" x2="153.9565" y2="-37.6639" gradientTransform="matrix(1 0 0 -1 0 300)">
				<stop  offset="0" style="stop-color:#426BA8"/>
				<stop  offset="1" style="stop-color:#73C2D3"/>
			</linearGradient>
			<path style="fill:url(#SVGID_00000087397107333353787600000018125253456322628028_);" d="M101.8,271.2
				c-8.1,0.2-12.8,5.5-14.8,13.3c8.9-1.3,17.4,5.5,25.8-0.3c0.6-0.4,2.3,0.6,4.8,1.5C114.8,276.5,110.1,271,101.8,271.2L101.8,271.2
				z"/>
			
				<linearGradient id="SVGID_00000073721559345242696450000004085930039435427490_" gradientUnits="userSpaceOnUse" x1="-55.0494" y1="280.0422" x2="201.6874" y2="7.2593" gradientTransform="matrix(1 0 0 -1 0 300)">
				<stop  offset="0" style="stop-color:#426BA8"/>
				<stop  offset="1" style="stop-color:#73C2D3"/>
			</linearGradient>
			<path style="fill:url(#SVGID_00000073721559345242696450000004085930039435427490_);" d="M194.2,271.2
				c-8.3-0.2-12.9,5.3-16.4,16.2c6.3-5.2,10-4.7,13.2-0.4c1.6,2.1,3.9,2.7,5.5,0.3c3.2-4.9,7.4-4.3,12.8-1.6
				C207.1,276.7,202.4,271.4,194.2,271.2L194.2,271.2z"/>
			
				<linearGradient id="SVGID_00000055706861484465930140000016710138800922877832_" gradientUnits="userSpaceOnUse" x1="-34.0704" y1="299.7871" x2="222.6664" y2="27.0043" gradientTransform="matrix(1 0 0 -1 0 300)">
				<stop  offset="0" style="stop-color:#426BA8"/>
				<stop  offset="1" style="stop-color:#73C2D3"/>
			</linearGradient>
			<path style="fill:url(#SVGID_00000055706861484465930140000016710138800922877832_);" d="M160,198.4c-4.9-0.2-7.8,2.6-7.9,7.5
				c-0.1,4.4,2.7,7.2,7,7.4c4.9,0.3,7.4-2.8,8.1-7.4C166.6,201.5,164.4,198.6,160,198.4L160,198.4z"/>
			
				<linearGradient id="SVGID_00000140011874563008368740000004569943806337005460_" gradientUnits="userSpaceOnUse" x1="-61.9201" y1="273.5757" x2="194.8167" y2="0.7928" gradientTransform="matrix(1 0 0 -1 0 300)">
				<stop  offset="0" style="stop-color:#426BA8"/>
				<stop  offset="1" style="stop-color:#73C2D3"/>
			</linearGradient>
			<path style="fill:url(#SVGID_00000140011874563008368740000004569943806337005460_);" d="M132.7,224.7c-0.8-4.3-3.1-7.2-7.5-7.1
				c-4.9,0-7.7,3-7.6,7.8c0.1,4.4,3,7.1,7.3,7.1C129.8,232.5,132.2,229.4,132.7,224.7z"/>
			
				<linearGradient id="SVGID_00000008861956967260221500000014291636540335357569_" gradientUnits="userSpaceOnUse" x1="-37.5364" y1="296.525" x2="219.2005" y2="23.7421" gradientTransform="matrix(1 0 0 -1 0 300)">
				<stop  offset="0" style="stop-color:#426BA8"/>
				<stop  offset="1" style="stop-color:#73C2D3"/>
			</linearGradient>
			<path style="fill:url(#SVGID_00000008861956967260221500000014291636540335357569_);" d="M171.7,217.5c-4.8-0.3-7.9,2.4-8.2,7.2
				c-0.2,4.4,2.5,7.3,6.8,7.7c4.9,0.4,7.5-2.5,8.4-7.6C178.1,221,176.1,217.9,171.7,217.5L171.7,217.5z"/>
			
				<linearGradient id="SVGID_00000135658275269093529620000011972522557000316310_" gradientUnits="userSpaceOnUse" x1="-51.6292" y1="283.2612" x2="205.1076" y2="10.4783" gradientTransform="matrix(1 0 0 -1 0 300)">
				<stop  offset="0" style="stop-color:#426BA8"/>
				<stop  offset="1" style="stop-color:#73C2D3"/>
			</linearGradient>
			<path style="fill:url(#SVGID_00000135658275269093529620000011972522557000316310_);" d="M155.5,228.9c0-4.9-3.1-7.3-7.8-7.7
				c-4.3,0.8-7.2,3.1-7.1,7.5c0,4.9,3,7.7,7.8,7.6C152.8,236.1,155.5,233.3,155.5,228.9L155.5,228.9z"/>
			
				<linearGradient id="SVGID_00000009565548072023132070000015137126882122072733_" gradientUnits="userSpaceOnUse" x1="-75.4755" y1="260.8176" x2="181.2613" y2="-11.9653" gradientTransform="matrix(1 0 0 -1 0 300)">
				<stop  offset="0" style="stop-color:#426BA8"/>
				<stop  offset="1" style="stop-color:#73C2D3"/>
			</linearGradient>
			<path style="fill:url(#SVGID_00000009565548072023132070000015137126882122072733_);" d="M113.8,245.4c-0.4,3.3,1.5,5.6,4.6,6.1
				c3.7,0.6,6.1-1.6,6.4-5.3c0.2-3.3-2-5.1-5.4-5.9C116.5,240.7,114.2,242.2,113.8,245.4L113.8,245.4z"/>
			
				<linearGradient id="SVGID_00000088109945090266643460000017961371821658611350_" gradientUnits="userSpaceOnUse" x1="-45.009" y1="289.492" x2="211.7279" y2="16.7091" gradientTransform="matrix(1 0 0 -1 0 300)">
				<stop  offset="0" style="stop-color:#426BA8"/>
				<stop  offset="1" style="stop-color:#73C2D3"/>
			</linearGradient>
			<path style="fill:url(#SVGID_00000088109945090266643460000017961371821658611350_);" d="M171.3,245.8c-0.1,3.7,2.2,6,5.9,5.8
				c3.2-0.2,4.9-2.4,5.2-5.7c-0.6-3.2-2.3-5.3-5.6-5.3C173.5,240.5,171.4,242.5,171.3,245.8z"/>
			
				<linearGradient id="SVGID_00000075149024917518560030000012673586145407205013_" gradientUnits="userSpaceOnUse" x1="-67.2285" y1="268.5795" x2="189.5083" y2="-4.2034" gradientTransform="matrix(1 0 0 -1 0 300)">
				<stop  offset="0" style="stop-color:#426BA8"/>
				<stop  offset="1" style="stop-color:#73C2D3"/>
			</linearGradient>
			<path style="fill:url(#SVGID_00000075149024917518560030000012673586145407205013_);" d="M138.4,255.4c3.3,0.2,5.1-2,5.7-5.2
				c-0.2-3.3-1.9-5.5-5.1-5.8c-3.3-0.4-5.6,1.6-6,4.7C132.5,252.8,134.7,255.2,138.4,255.4L138.4,255.4z"/>
			
				<linearGradient id="SVGID_00000005956727680172653620000006762650775490265773_" gradientUnits="userSpaceOnUse" x1="-57.061" y1="278.1489" x2="199.6758" y2="5.366" gradientTransform="matrix(1 0 0 -1 0 300)">
				<stop  offset="0" style="stop-color:#426BA8"/>
				<stop  offset="1" style="stop-color:#73C2D3"/>
			</linearGradient>
			<path style="fill:url(#SVGID_00000005956727680172653620000006762650775490265773_);" d="M157.2,255.4c3.7,0.2,6-2,6-5.7
				c-0.1-3.3-2.3-5-5.5-5.4c-3.2,0.4-5.4,2.1-5.5,5.4C151.9,253,154,255.2,157.2,255.4z"/>
			
				<linearGradient id="SVGID_00000032623458570496563520000002769630674339128238_" gradientUnits="userSpaceOnUse" x1="-4.9943" y1="327.1528" x2="251.7425" y2="54.37" gradientTransform="matrix(1 0 0 -1 0 300)">
				<stop  offset="0" style="stop-color:#426BA8"/>
				<stop  offset="1" style="stop-color:#73C2D3"/>
			</linearGradient>
			<path style="fill:url(#SVGID_00000032623458570496563520000002769630674339128238_);" d="M110.2,79.5C102,79.2,94.9,85.7,94.5,94
				c-0.4,8.6,6.6,16,15.2,16c8.2,0,15.2-6.8,15.3-15C125.2,86.8,118.5,79.7,110.2,79.5L110.2,79.5z"/>
		</g>
		<circle class="st16" cx="186.8" cy="94.9" r="15.1"/>
	</g>
	<circle class="st17" cx="136.6" cy="205.8" r="7.5"/>
</g>
</svg>
