<svg xmlns="http://www.w3.org/2000/svg" viewBox="0 0 290.86 335.57"><defs><style>.cls-1{fill:#fff;}.cls-2{fill:#006eff;}.cls-3{fill:#414042;}</style></defs><g id="Layer_2" data-name="Layer 2"><g id="Layer_1-2" data-name="Layer 1"><path class="cls-1" d="M144.65,54a5.14,5.14,0,0,1,0-2A5.33,5.33,0,0,0,144.65,54Z"/><path class="cls-1" d="M144.59,79.8c-.08.15-.17.3-.26.45.1-.15.18-.3.27-.45s.09-.18.13-.27Zm0-9.54c-.09-.15-.17-.3-.27-.45.09.15.18.3.26.45s.19.36.28.55C144.79,70.62,144.69,70.44,144.6,70.26Z"/><path class="cls-2" d="M259,64.49,149.66,1.36a10.11,10.11,0,0,0-10.12,0L30.18,64.49a10.12,10.12,0,0,0-5.08,8.78V199.58a10.11,10.11,0,0,0,5.08,8.79L139.54,271.5a10.06,10.06,0,0,0,10.12,0L259,208.37a10.11,10.11,0,0,0,5.08-8.79V73.27A10.21,10.21,0,0,0,259,64.49Z"/><path class="cls-1" d="M79.16,137.09a5.31,5.31,0,0,0,3.84-9l-18.53-19.5,21.6-37.23h32.72a5.5,5.5,0,1,0,0-11H83.3a5.5,5.5,0,0,0-5.06,3.34s0,0,0,0l-25,43a5.59,5.59,0,0,0-.3.6,5,5,0,0,0-.18.5c0,.17-.09.34-.13.52a5.28,5.28,0,0,0,0,2c0,.12.05.24.08.36s0,.12,0,.16l.15.43a4.84,4.84,0,0,0,.21.47,4.1,4.1,0,0,0,.23.4l.06.1a4.77,4.77,0,0,0,.6.76l.13.14,21.15,22.23A5.28,5.28,0,0,0,79.16,137.09Z"/><path class="cls-1" d="M119.8,167.53a5.32,5.32,0,0,0-7.26,1.93L99.41,192.11H60a5.5,5.5,0,1,0,0,11h42a.22.22,0,0,0,.11,0,.62.62,0,0,0,.19,0,5.27,5.27,0,0,0,4.6-2.65l14.9-25.66A5.32,5.32,0,0,0,119.8,167.53Z"/><path class="cls-1" d="M225.25,192.11h-70L128.53,146l.09-.09a20,20,0,0,0,5-8.51H185a5.5,5.5,0,1,0,0-11H133.68a19.94,19.94,0,0,0-5.06-8.72l-.09-.1,26.8-46.18h69.95a5.5,5.5,0,1,0,0-11H152.72a4.83,4.83,0,0,0-.94.1l-.28,0a.07.07,0,0,0-.06,0,5.25,5.25,0,0,0-3.58,2.54L119.31,112.3a19.3,19.3,0,0,0-5-.65,20.13,20.13,0,0,0,0,40.25,19.73,19.73,0,0,0,5-.64l28.55,49.2a5.28,5.28,0,0,0,4.6,2.65.3.3,0,0,0,.13,0s0,0,0,0a.22.22,0,0,0,.11,0h72.53a5.52,5.52,0,0,0,5.21-7.31A5.45,5.45,0,0,0,225.25,192.11ZM124,133.88c0,.2-.1.4-.17.61s-.2.57-.32.85-.17.37-.26.55l-.14.28-.26.44a10,10,0,0,1-8.53,4.78h-.23a10,10,0,0,1,0-20h.23a9.94,9.94,0,0,1,7,2.82c.08.09.16.15.23.23a9.48,9.48,0,0,1,1.34,1.74c.09.14.18.3.26.44s.19.37.28.56.16.35.24.55a11.24,11.24,0,0,1,.38,1.16,10.25,10.25,0,0,1,.31,2.5A9.71,9.71,0,0,1,124,133.88Z"/><path class="cls-3" d="M10.59,278.42A7.26,7.26,0,0,0,7,281.58a17.7,17.7,0,0,0-1.76,5.59l-1,5.71a39.59,39.59,0,0,0-.68,5.21,4.53,4.53,0,0,0,1.55,3.75c1,.77,2.5,1.15,4.68,1.15h8.57c2.52,0,3.61.31,4.08.57.32.17.75.54.75,1.73a34.6,34.6,0,0,1-.71,5.52l-.54,3.07a11.31,11.31,0,0,1-1.27,4,3.84,3.84,0,0,1-2.11,1.63,19.24,19.24,0,0,1-5.35.52H0l.92,4.88H13.15a25.71,25.71,0,0,0,7.6-.83A8.18,8.18,0,0,0,25,321a15.22,15.22,0,0,0,2.17-6l.72-4a44.71,44.71,0,0,0,.8-6.65,5.46,5.46,0,0,0-2.2-4.81c-1.37-.95-3.7-1.41-7.14-1.41H11.1a4.25,4.25,0,0,1-1.88-.26s-.18-.11-.18-.54a34.46,34.46,0,0,1,.59-4.44l.9-4.87a16.22,16.22,0,0,1,.81-3.1,3.83,3.83,0,0,1,1.06-1.55,4.06,4.06,0,0,1,1.78-.75,17.83,17.83,0,0,1,3.34-.25H31.33l2.05-4.82h-16A18,18,0,0,0,10.59,278.42Z"/><path class="cls-3" d="M61.57,288.87l-5.52,31.32H45.31a16.72,16.72,0,0,1-4.25-.38,2.2,2.2,0,0,1-1.34-.84,3.73,3.73,0,0,1-.37-1.86,40.71,40.71,0,0,1,.76-5.65L44,288.87H38.82L35,311.12A45.54,45.54,0,0,0,34.1,318a7.06,7.06,0,0,0,.84,3.7,5.45,5.45,0,0,0,2.41,2.13,11.36,11.36,0,0,0,3.46.89,37.64,37.64,0,0,0,4.08.22H60.42l6.36-36Z"/><path class="cls-3" d="M98.09,290.8c-1.79-1.3-4.69-1.93-8.86-1.93H74.77l-8.28,46.64H71.7l1.86-10.62H83.71a25.56,25.56,0,0,0,7.75-.92,8.72,8.72,0,0,0,4.66-3.55c1.09-1.65,1.94-4.31,2.61-8.12l1.44-8.1a40.05,40.05,0,0,0,.73-6.53C100.9,294.46,100,292.15,98.09,290.8ZM83.88,320.25H74.4l4.74-26.68h9.48c3.14,0,4.52.34,5.13.62a2.78,2.78,0,0,1,1.51,1.39,6.83,6.83,0,0,1,.41,2.51,39.16,39.16,0,0,1-.65,5.77L93.58,312a21.63,21.63,0,0,1-1.3,4.91,5.88,5.88,0,0,1-1.47,2,5.64,5.64,0,0,1-2.4,1A22.59,22.59,0,0,1,83.88,320.25Z"/><path class="cls-3" d="M129.66,289a23.58,23.58,0,0,0-5.4-.51H121a23.84,23.84,0,0,0-7.62.9,8.33,8.33,0,0,0-4.22,3.23,16,16,0,0,0-2.16,6.24l-2.52,14.43a21.78,21.78,0,0,0-.44,4.22,7.69,7.69,0,0,0,.86,3.95,5.48,5.48,0,0,0,2.2,2.18,10.31,10.31,0,0,0,2.92,1,23.9,23.9,0,0,0,4.32.32h12.56l1.88-4.7h-14a14.82,14.82,0,0,1-3.79-.35,2.3,2.3,0,0,1-1.37-.89,3.69,3.69,0,0,1-.44-2,20.11,20.11,0,0,1,.35-3.43l.57-3.25h14.76c2.8,0,4.79-.56,6.07-1.69s2.13-3.1,2.66-6l.72-3.87a21.84,21.84,0,0,0,.31-3.33,6.34,6.34,0,0,0-1.36-4.36A6.89,6.89,0,0,0,129.66,289Zm-9.24,4.13h3.36c2.88,0,4.14.34,4.7.64.39.2.9.62.9,2a12.63,12.63,0,0,1-.27,2.61l-.61,3.58c-.35,2-.86,2.78-1.23,3.1a4.63,4.63,0,0,1-3,.69H110.94l1.17-6.51a12.13,12.13,0,0,1,1.22-3.89,3.73,3.73,0,0,1,2-1.64A16.73,16.73,0,0,1,120.42,293.09Z"/><path class="cls-3" d="M153.6,288.87a43.68,43.68,0,0,0-5.06.27,10.71,10.71,0,0,0-4.21,1.34,8.13,8.13,0,0,0-3,3.37,24.8,24.8,0,0,0-1.93,6.82l-4.29,24.22h5.21l4.23-23.75c.57-3.3,1.18-4.75,1.59-5.38a3.93,3.93,0,0,1,2.32-1.69,20.21,20.21,0,0,1,5.19-.5H159l2-4.7Z"/><polygon class="cls-3" points="190.39 282.29 192.44 277.47 167.4 277.47 159.07 324.89 183.78 324.89 185.91 320.01 165.36 320.01 168.36 303.17 184.98 303.17 187.05 298.41 169.19 298.41 172.02 282.29 190.39 282.29"/><path class="cls-3" d="M217.87,288.87H208c-4,0-6.81.4-8.66,1.23a8.55,8.55,0,0,0-4.26,4.06,26.89,26.89,0,0,0-2.1,7.36l-1.38,7.91a42.24,42.24,0,0,0-.8,6.6c0,3.12,1,5.42,2.94,6.84s4.77,2,8.86,2h14.16L225.54,275h-5.21Zm-14.71,31.32c-3.51,0-5.09-.58-5.79-1.06-.92-.62-1.37-1.78-1.37-3.52a34,34,0,0,1,.71-5.77l1.38-8a18,18,0,0,1,1.72-5.76,4.44,4.44,0,0,1,2.52-2,19.12,19.12,0,0,1,5.45-.58H217l-4.69,26.62Z"/><path class="cls-3" d="M254,290.38c-1.79-1.3-4.69-1.93-8.87-1.93h-2.34a25.52,25.52,0,0,0-7.75.92,8.54,8.54,0,0,0-4.64,3.56c-1.06,1.64-1.9,4.3-2.57,8.1l-.78,4.24a35,35,0,0,0-.8,6.56c0,3.21,1,5.52,2.85,6.87s4.7,1.93,8.83,1.93h10l-.57,3.2a14.84,14.84,0,0,1-1.34,4.41,4.36,4.36,0,0,1-2.1,2,13.48,13.48,0,0,1-4.94.66H225.85l.84,4.7h12.77a17.82,17.82,0,0,0,6.75-1,8.58,8.58,0,0,0,4-3.42,17.52,17.52,0,0,0,2.12-6.18l3.72-21.18a40.05,40.05,0,0,0,.73-6.53C256.78,294.05,255.84,291.73,254,290.38Zm-11.33,2.71h1.86a19.37,19.37,0,0,1,4.15.33,4.45,4.45,0,0,1,1.88.85,2.76,2.76,0,0,1,.81,1.33,7.93,7.93,0,0,1,.26,2.07,45.43,45.43,0,0,1-.7,5.77l-2.2,12.49H238.56c-3.14,0-4.54-.34-5.16-.63a2.74,2.74,0,0,1-1.53-1.38,6.83,6.83,0,0,1-.41-2.51,31.39,31.39,0,0,1,.71-5.76l.78-4.27a17.24,17.24,0,0,1,1.75-5.75,4.51,4.51,0,0,1,2.55-2A18.83,18.83,0,0,1,242.64,293.09Z"/><path class="cls-3" d="M289.49,291a6.82,6.82,0,0,0-3.59-2,23.58,23.58,0,0,0-5.4-.51h-3.3a23.84,23.84,0,0,0-7.62.9,8.33,8.33,0,0,0-4.22,3.23,16,16,0,0,0-2.16,6.24l-2.52,14.43a21.78,21.78,0,0,0-.44,4.22,7.69,7.69,0,0,0,.86,3.95,5.48,5.48,0,0,0,2.2,2.18,10.35,10.35,0,0,0,2.91,1,24,24,0,0,0,4.33.32H283.1l1.88-4.7H271a14.82,14.82,0,0,1-3.79-.35,2.32,2.32,0,0,1-1.38-.89,3.79,3.79,0,0,1-.43-2,20.11,20.11,0,0,1,.35-3.43l.57-3.25H281.1c2.8,0,4.78-.56,6.07-1.69s2.13-3.1,2.65-6l.73-3.87a22.17,22.17,0,0,0,.31-3.33A6.3,6.3,0,0,0,289.49,291Zm-12.83,2.12H280c2.87,0,4.14.34,4.7.64.39.2.9.62.9,2a12,12,0,0,1-.28,2.61l-.6,3.58c-.35,2-.86,2.78-1.23,3.1a4.63,4.63,0,0,1-3,.69H267.18l1.17-6.51a11.88,11.88,0,0,1,1.22-3.89,3.7,3.7,0,0,1,2-1.64A16.73,16.73,0,0,1,276.66,293.09Z"/></g></g></svg>