<svg width="1415" height="405" viewBox="0 0 1415 405" fill="none" xmlns="http://www.w3.org/2000/svg">
<path d="M568.215 254.752H535.785V196.293H476.33V254.752H444V111.208H476.33V168.465H535.785V111.208H568.215V254.752Z" fill="black"/>
<path d="M695.633 152.249L653.995 262.96C643.985 289.587 628.905 302.9 608.753 302.9C601.079 302.9 594.773 302.032 589.835 300.297V275.072C594.039 277.541 598.61 278.776 603.548 278.776C611.689 278.776 617.361 274.939 620.564 267.264L625.969 254.552L584.33 152.249H619.363L638.48 214.612C639.681 218.482 640.616 223.053 641.283 228.325H641.683C642.284 224.455 643.385 219.95 644.986 214.812L664.304 152.249H695.633Z" fill="black"/>
<path d="M740.375 242.84H739.974V301.899H708.345V152.249H739.974V167.665H740.375C748.182 155.719 759.159 149.747 773.305 149.747C786.584 149.747 796.827 154.318 804.034 163.46C811.307 172.536 814.944 184.915 814.944 200.598C814.944 217.681 810.707 231.395 802.232 241.739C793.824 252.082 782.614 257.254 768.601 257.254C756.256 257.254 746.847 252.449 740.375 242.84ZM739.474 200.798V209.006C739.474 216.08 741.342 221.852 745.079 226.323C748.816 230.794 753.72 233.03 759.793 233.03C766.999 233.03 772.571 230.261 776.508 224.722C780.512 219.116 782.514 211.208 782.514 200.998C782.514 182.98 775.507 173.971 761.494 173.971C755.022 173.971 749.717 176.44 745.58 181.378C741.509 186.25 739.474 192.723 739.474 200.798Z" fill="black"/>
<path d="M927.548 212.51H860.686C861.754 227.391 871.129 234.832 888.812 234.832C900.089 234.832 909.999 232.162 918.54 226.824V249.647C909.064 254.718 896.753 257.254 881.606 257.254C865.057 257.254 852.212 252.683 843.07 243.541C833.928 234.331 829.357 221.519 829.357 205.102C829.357 188.085 834.295 174.605 844.171 164.662C854.047 154.718 866.191 149.747 880.605 149.747C895.552 149.747 907.096 154.185 915.237 163.06C923.444 171.936 927.548 183.981 927.548 199.196V212.51ZM898.221 193.09C898.221 178.409 892.282 171.068 880.405 171.068C875.333 171.068 870.929 173.17 867.192 177.374C863.522 181.579 861.287 186.817 860.486 193.09H898.221Z" fill="black"/>
<path d="M1013.23 180.778C1009.42 178.709 1004.99 177.675 999.915 177.675C993.042 177.675 987.671 180.211 983.8 185.282C979.93 190.287 977.995 197.127 977.995 205.803V254.752H946.366V152.249H977.995V171.268H978.395C983.4 157.388 992.408 150.447 1005.42 150.447C1008.76 150.447 1011.36 150.848 1013.23 151.649V180.778Z" fill="black"/>
<path d="M1047.76 254.752H1031.34V103H1047.76V254.752Z" fill="#848484"/>
<path d="M1089.4 126.223C1086.46 126.223 1083.96 125.222 1081.89 123.22C1079.82 121.218 1078.79 118.682 1078.79 115.613C1078.79 112.543 1079.82 110.007 1081.89 108.005C1083.96 105.936 1086.46 104.902 1089.4 104.902C1092.4 104.902 1094.94 105.936 1097.01 108.005C1099.14 110.007 1100.21 112.543 1100.21 115.613C1100.21 118.549 1099.14 121.051 1097.01 123.12C1094.94 125.189 1092.4 126.223 1089.4 126.223ZM1097.41 254.752H1080.99V152.249H1097.41V254.752Z" fill="#848484"/>
<path d="M1218.12 246.544C1218.12 284.181 1200.1 303 1164.07 303C1151.39 303 1140.31 300.598 1130.84 295.793V279.376C1142.38 285.783 1153.39 288.986 1163.87 288.986C1189.09 288.986 1201.7 275.573 1201.7 248.746V237.535H1201.3C1193.49 250.614 1181.75 257.154 1166.07 257.154C1153.32 257.154 1143.05 252.616 1135.24 243.541C1127.5 234.398 1123.63 222.152 1123.63 206.804C1123.63 189.386 1127.8 175.539 1136.14 165.262C1144.55 154.985 1156.03 149.847 1170.57 149.847C1184.39 149.847 1194.63 155.386 1201.3 166.463H1201.7V152.249H1218.12V246.544ZM1201.7 208.405V193.29C1201.7 185.149 1198.93 178.175 1193.39 172.369C1187.92 166.564 1181.08 163.661 1172.88 163.661C1162.73 163.661 1154.79 167.364 1149.05 174.772C1143.31 182.112 1140.45 192.423 1140.45 205.703C1140.45 217.114 1143.18 226.257 1148.65 233.13C1154.19 239.937 1161.5 243.34 1170.57 243.34C1179.78 243.34 1187.26 240.07 1192.99 233.531C1198.8 226.991 1201.7 218.616 1201.7 208.405Z" fill="#848484"/>
<path d="M1336.43 254.752H1320.01V195.693C1320.01 174.338 1312.07 163.661 1296.19 163.661C1288.18 163.661 1281.44 166.764 1275.97 172.97C1270.5 179.109 1267.76 187.017 1267.76 196.694V254.752H1251.35V103H1267.76V169.266H1268.16C1276.04 156.32 1287.25 149.847 1301.8 149.847C1324.88 149.847 1336.43 163.761 1336.43 191.589V254.752Z" fill="#848484"/>
<path d="M1415 253.751C1411.13 255.886 1406.03 256.954 1399.69 256.954C1381.74 256.954 1372.76 246.944 1372.76 226.924V166.263H1355.14V152.249H1372.76V127.224L1389.18 121.919V152.249H1415V166.263H1389.18V224.021C1389.18 230.895 1390.34 235.799 1392.68 238.736C1395.01 241.672 1398.89 243.14 1404.29 243.14C1408.43 243.14 1412 242.006 1415 239.737V253.751Z" fill="#848484"/>
<path d="M160.824 2.94706C152.064 2.7554 143.549 5.86446 136.974 11.6578C126.468 21.072 127.887 30.072 118.51 43.3021C115.89 47.5301 112.431 51.1767 108.346 54.0157C104.261 56.8546 99.638 58.8265 94.7617 59.8091L94.3978 59.896C87.8085 61.719 81.9475 65.5433 77.6258 70.841C73.304 76.1387 70.7348 82.6475 70.2724 89.4686C62.1259 153.347 84.0794 252.649 137.075 307.013C151.534 320.727 167.294 332.996 184.133 343.652C201.452 349.633 220.275 349.633 237.593 343.652C254.617 333.129 270.48 320.834 284.917 306.974C336.218 254.355 360.028 154.616 351.719 89.4318C351.323 82.5256 348.736 75.9256 344.332 70.5912C339.927 65.2568 333.937 61.4658 327.23 59.7704C322.354 58.7878 317.73 56.8159 313.645 53.977C309.561 51.1379 306.102 47.4929 303.482 43.2649C294.996 31.2901 295.108 20.6709 285.016 11.6208C278.441 5.82726 269.928 2.71671 261.167 2.90825L160.824 2.94706Z" fill="#E6E6E6" stroke="#1A1A1A" stroke-width="4"/>
<path d="M260.154 21.7747H209.834L169.488 177.659L209.834 335.581C234.938 335.581 234.938 329.305 260.043 310.477C260.043 310.477 341.632 253.992 335.356 97.0883C335.356 97.0883 335.386 81.398 322.804 78.2599C291.423 71.9838 278.871 34.327 278.871 34.327C277.214 30.1336 272.595 21.7747 260.154 21.7747Z" fill="#AEDDFF"/>
<path d="M159.858 21.7747H210.179V335.581C185.074 335.581 185.074 329.305 159.97 310.477C159.97 310.477 78.3798 253.992 84.6559 97.0883C84.6559 97.0883 84.6259 81.398 97.2082 78.2599C128.589 71.9838 141.141 34.327 141.141 34.327C142.797 30.1336 147.418 21.7747 159.858 21.7747Z" fill="#00A6ED"/>
<path d="M127.967 30.3281C119.207 30.1364 110.692 33.2455 104.117 39.0388C93.6115 48.453 95.0298 57.453 85.6532 70.6831C83.0326 74.9111 79.5737 78.5578 75.4889 81.3967C71.4043 84.2356 66.7811 86.2075 61.9048 87.1901L61.5409 87.277C54.9516 89.1 49.0906 92.9243 44.7688 98.222C40.4471 103.52 37.8779 110.028 37.4154 116.85C29.269 180.728 51.2224 280.03 104.218 334.394C118.677 348.108 134.438 360.377 151.276 371.033C168.595 377.014 187.418 377.014 204.736 371.033C221.76 360.51 237.623 348.216 252.06 334.355C303.361 281.736 327.171 181.997 318.862 116.813C318.466 109.907 315.879 103.307 311.475 97.9722C307.07 92.6378 301.08 88.8468 294.374 87.1514C289.497 86.1688 284.873 84.197 280.788 81.358C276.704 78.5189 273.245 74.8739 270.625 70.6459C262.139 58.6711 262.251 48.0519 252.159 39.0018C245.584 33.2083 237.071 30.0977 228.31 30.2893L127.967 30.3281Z" fill="#E6E6E6" stroke="#1A1A1A" stroke-width="4"/>
<path d="M227.297 49.1557H176.976L136.631 205.04L176.976 362.962C202.081 362.962 202.081 356.686 227.185 337.858C227.185 337.858 308.775 281.373 302.499 124.469C302.499 124.469 302.529 108.779 289.947 105.641C258.566 99.3648 246.014 61.708 246.014 61.708C244.357 57.5147 239.738 49.1557 227.297 49.1557Z" fill="#AEDDFF"/>
<path d="M127.001 49.1557H177.322V362.962C152.217 362.962 152.217 356.686 127.113 337.858C127.113 337.858 45.5228 281.373 51.799 124.469C51.799 124.469 51.7689 108.779 64.3512 105.641C95.7319 99.3648 108.285 61.708 108.285 61.708C109.94 57.5147 114.561 49.1557 127.001 49.1557Z" fill="#00A6ED"/>
<path d="M95.1094 57.7091C86.3492 57.5174 77.835 60.6265 71.2601 66.4198C60.7541 75.834 62.1724 84.834 52.7958 98.0641C50.1752 102.292 46.7163 105.939 42.6315 108.778C38.5469 111.617 33.9236 113.588 29.0473 114.571L28.6835 114.658C22.0942 116.481 16.2331 120.305 11.9114 125.603C7.58965 130.901 5.02043 137.409 4.55801 144.231C-3.58841 208.109 18.365 307.411 71.3605 361.775C85.8195 375.489 101.58 387.758 118.419 398.414C135.737 404.395 154.561 404.395 171.879 398.414C188.902 387.891 204.766 375.596 219.202 361.736C270.504 309.117 294.314 209.378 286.004 144.194C285.609 137.288 283.022 130.688 278.617 125.353C274.213 120.019 268.223 116.228 261.516 114.532C256.64 113.55 252.015 111.578 247.931 108.739C243.846 105.9 240.388 102.255 237.767 98.0269C229.282 86.0521 229.394 75.4329 219.302 66.3828C212.727 60.5892 204.214 57.4787 195.452 57.6702L95.1094 57.7091Z" fill="#E6E6E6" stroke="#1A1A1A" stroke-width="4"/>
<path d="M194.44 76.5367H144.119L103.774 232.421L144.119 390.343C169.224 390.343 169.224 384.067 194.328 365.239C194.328 365.239 275.918 308.754 269.642 151.85C269.642 151.85 269.672 136.16 257.09 133.022C225.709 126.746 213.157 89.089 213.157 89.089C211.5 84.8957 206.881 76.5367 194.44 76.5367Z" fill="#AEDDFF"/>
<path d="M94.1438 76.5367H144.465V390.343C119.36 390.343 119.36 384.067 94.2555 365.239C94.2555 365.239 12.6654 308.754 18.9415 151.85C18.9415 151.85 18.9115 136.16 31.4938 133.022C62.8745 126.746 75.4271 89.089 75.4271 89.089C77.0828 84.8957 81.7032 76.5367 94.1438 76.5367Z" fill="#00A6ED"/>
<g clip-path="url(#clip0_5998_38)">
<path d="M171.923 115.186L190.891 128.715C214.998 145.911 232.187 171.074 239.468 199.738C247.132 229.98 241.094 262.114 222.957 287.541L212.413 302.324C212.413 302.324 212.613 300.407 212.812 297.049C211.988 299.07 211.489 300.155 211.489 300.155L210.775 301.156L192.945 288.437C183.484 281.689 175.911 273.062 170.501 263.232C169.87 262.096 170.844 260.732 172.123 260.958L185.271 263.404C185.992 263.644 186.361 262.741 185.77 262.319L165.165 247.622C164.21 246.941 163.559 245.928 163.253 244.817C160.903 235.317 160.35 225.315 161.844 215.331C162.426 211.629 163.305 204.913 163.777 201.269C163.964 199.755 164.951 198.468 166.366 197.831L179.82 192.055C180.826 191.606 180.962 190.261 180.097 189.645L167.998 181.015C166.815 180.171 166.133 178.723 166.255 177.301C167.762 158.062 168.093 137.778 166.015 119.139C165.878 118.08 166.176 116.989 166.793 116.124C167.948 114.409 170.286 114.018 171.923 115.186Z" fill="url(#paint0_linear_5998_38)"/>
<path d="M171.923 115.186L190.891 128.715C214.998 145.911 232.187 171.074 239.468 199.738C247.132 229.98 241.094 262.114 222.957 287.541L212.413 302.324C212.413 302.324 212.613 300.407 212.812 297.049C211.988 299.07 211.489 300.155 211.489 300.155L210.775 301.156L192.945 288.437C183.484 281.689 175.911 273.062 170.501 263.232C169.87 262.096 170.844 260.732 172.123 260.958L185.271 263.404C185.992 263.644 186.361 262.741 185.77 262.319L165.165 247.622C164.21 246.941 163.559 245.928 163.253 244.817C160.903 235.317 160.35 225.315 161.844 215.331C162.426 211.629 163.305 204.913 163.777 201.269C163.964 199.755 164.951 198.468 166.366 197.831L179.82 192.055C180.826 191.606 180.962 190.261 180.097 189.645L167.998 181.015C166.815 180.171 166.133 178.723 166.255 177.301C167.762 158.062 168.093 137.778 166.015 119.139C165.878 118.08 166.176 116.989 166.793 116.124C167.948 114.409 170.286 114.018 171.923 115.186Z" fill="url(#paint1_radial_5998_38)"/>
<path d="M171.923 115.186L190.891 128.715C214.998 145.911 232.187 171.074 239.468 199.738C247.132 229.98 241.094 262.114 222.957 287.541L212.413 302.324C212.413 302.324 212.613 300.407 212.812 297.049C211.988 299.07 211.489 300.155 211.489 300.155L210.775 301.156L192.945 288.437C183.484 281.689 175.911 273.062 170.501 263.232C169.87 262.096 170.844 260.732 172.123 260.958L185.271 263.404C185.992 263.644 186.361 262.741 185.77 262.319L165.165 247.622C164.21 246.941 163.559 245.928 163.253 244.817C160.903 235.317 160.35 225.315 161.844 215.331C162.426 211.629 163.305 204.913 163.777 201.269C163.964 199.755 164.951 198.468 166.366 197.831L179.82 192.055C180.826 191.606 180.962 190.261 180.097 189.645L167.998 181.015C166.815 180.171 166.133 178.723 166.255 177.301C167.762 158.062 168.093 137.778 166.015 119.139C165.878 118.08 166.176 116.989 166.793 116.124C167.948 114.409 170.286 114.018 171.923 115.186Z" fill="url(#paint2_radial_5998_38)"/>
<path d="M171.923 115.186L190.891 128.715C214.998 145.911 232.187 171.074 239.468 199.738C247.132 229.98 241.094 262.114 222.957 287.541L212.413 302.324C212.413 302.324 212.613 300.407 212.812 297.049C211.988 299.07 211.489 300.155 211.489 300.155L210.775 301.156L192.945 288.437C183.484 281.689 175.911 273.062 170.501 263.232C169.87 262.096 170.844 260.732 172.123 260.958L185.271 263.404C185.992 263.644 186.361 262.741 185.77 262.319L165.165 247.622C164.21 246.941 163.559 245.928 163.253 244.817C160.903 235.317 160.35 225.315 161.844 215.331C162.426 211.629 163.305 204.913 163.777 201.269C163.964 199.755 164.951 198.468 166.366 197.831L179.82 192.055C180.826 191.606 180.962 190.261 180.097 189.645L167.998 181.015C166.815 180.171 166.133 178.723 166.255 177.301C167.762 158.062 168.093 137.778 166.015 119.139C165.878 118.08 166.176 116.989 166.793 116.124C167.948 114.409 170.286 114.018 171.923 115.186Z" fill="url(#paint3_radial_5998_38)"/>
<path d="M171.923 115.186L190.891 128.715C214.998 145.911 232.187 171.074 239.468 199.738C247.132 229.98 241.094 262.114 222.957 287.541L212.413 302.324C212.413 302.324 212.613 300.407 212.812 297.049C211.988 299.07 211.489 300.155 211.489 300.155L210.775 301.156L192.945 288.437C183.484 281.689 175.911 273.062 170.501 263.232C169.87 262.096 170.844 260.732 172.123 260.958L185.271 263.404C185.992 263.644 186.361 262.741 185.77 262.319L165.165 247.622C164.21 246.941 163.559 245.928 163.253 244.817C160.903 235.317 160.35 225.315 161.844 215.331C162.426 211.629 163.305 204.913 163.777 201.269C163.964 199.755 164.951 198.468 166.366 197.831L179.82 192.055C180.826 191.606 180.962 190.261 180.097 189.645L167.998 181.015C166.815 180.171 166.133 178.723 166.255 177.301C167.762 158.062 168.093 137.778 166.015 119.139C165.878 118.08 166.176 116.989 166.793 116.124C167.948 114.409 170.286 114.018 171.923 115.186Z" fill="url(#paint4_radial_5998_38)" fill-opacity="0.6"/>
<path d="M171.923 115.186L190.891 128.715C214.998 145.911 232.187 171.074 239.468 199.738C247.132 229.98 241.094 262.114 222.957 287.541L212.413 302.324C212.413 302.324 212.613 300.407 212.812 297.049C211.988 299.07 211.489 300.155 211.489 300.155L210.775 301.156L192.945 288.437C183.484 281.689 175.911 273.062 170.501 263.232C169.87 262.096 170.844 260.732 172.123 260.958L185.271 263.404C185.992 263.644 186.361 262.741 185.77 262.319L165.165 247.622C164.21 246.941 163.559 245.928 163.253 244.817C160.903 235.317 160.35 225.315 161.844 215.331C162.426 211.629 163.305 204.913 163.777 201.269C163.964 199.755 164.951 198.468 166.366 197.831L179.82 192.055C180.826 191.606 180.962 190.261 180.097 189.645L167.998 181.015C166.815 180.171 166.133 178.723 166.255 177.301C167.762 158.062 168.093 137.778 166.015 119.139C165.878 118.08 166.176 116.989 166.793 116.124C167.948 114.409 170.286 114.018 171.923 115.186Z" fill="url(#paint5_radial_5998_38)"/>
<path d="M171.923 115.186L190.891 128.715C214.998 145.911 232.187 171.074 239.468 199.738C247.132 229.98 241.094 262.114 222.957 287.541L212.413 302.324C212.413 302.324 212.613 300.407 212.812 297.049C211.988 299.07 211.489 300.155 211.489 300.155L210.775 301.156L192.945 288.437C183.484 281.689 175.911 273.062 170.501 263.232C169.87 262.096 170.844 260.732 172.123 260.958L185.271 263.404C185.992 263.644 186.361 262.741 185.77 262.319L165.165 247.622C164.21 246.941 163.559 245.928 163.253 244.817C160.903 235.317 160.35 225.315 161.844 215.331C162.426 211.629 163.305 204.913 163.777 201.269C163.964 199.755 164.951 198.468 166.366 197.831L179.82 192.055C180.826 191.606 180.962 190.261 180.097 189.645L167.998 181.015C166.815 180.171 166.133 178.723 166.255 177.301C167.762 158.062 168.093 137.778 166.015 119.139C165.878 118.08 166.176 116.989 166.793 116.124C167.948 114.409 170.286 114.018 171.923 115.186Z" fill="url(#paint6_radial_5998_38)"/>
<path d="M171.923 115.186L190.891 128.715C214.998 145.911 232.187 171.074 239.468 199.738C247.132 229.98 241.094 262.114 222.957 287.541L212.413 302.324C212.413 302.324 212.613 300.407 212.812 297.049C211.988 299.07 211.489 300.155 211.489 300.155L210.775 301.156L192.945 288.437C183.484 281.689 175.911 273.062 170.501 263.232C169.87 262.096 170.844 260.732 172.123 260.958L185.271 263.404C185.992 263.644 186.361 262.741 185.77 262.319L165.165 247.622C164.21 246.941 163.559 245.928 163.253 244.817C160.903 235.317 160.35 225.315 161.844 215.331C162.426 211.629 163.305 204.913 163.777 201.269C163.964 199.755 164.951 198.468 166.366 197.831L179.82 192.055C180.826 191.606 180.962 190.261 180.097 189.645L167.998 181.015C166.815 180.171 166.133 178.723 166.255 177.301C167.762 158.062 168.093 137.778 166.015 119.139C165.878 118.08 166.176 116.989 166.793 116.124C167.948 114.409 170.286 114.018 171.923 115.186Z" fill="url(#paint7_radial_5998_38)" fill-opacity="0.6"/>
<path d="M171.923 115.186L190.891 128.715C214.998 145.911 232.187 171.074 239.468 199.738C247.132 229.98 241.094 262.114 222.957 287.541L212.413 302.324C212.413 302.324 212.613 300.407 212.812 297.049C211.988 299.07 211.489 300.155 211.489 300.155L210.775 301.156L192.945 288.437C183.484 281.689 175.911 273.062 170.501 263.232C169.87 262.096 170.844 260.732 172.123 260.958L185.271 263.404C185.992 263.644 186.361 262.741 185.77 262.319L165.165 247.622C164.21 246.941 163.559 245.928 163.253 244.817C160.903 235.317 160.35 225.315 161.844 215.331C162.426 211.629 163.305 204.913 163.777 201.269C163.964 199.755 164.951 198.468 166.366 197.831L179.82 192.055C180.826 191.606 180.962 190.261 180.097 189.645L167.998 181.015C166.815 180.171 166.133 178.723 166.255 177.301C167.762 158.062 168.093 137.778 166.015 119.139C165.878 118.08 166.176 116.989 166.793 116.124C167.948 114.409 170.286 114.018 171.923 115.186Z" fill="url(#paint8_radial_5998_38)" fill-opacity="0.6"/>
<path d="M171.923 115.186L190.891 128.715C214.998 145.911 232.187 171.074 239.468 199.738C247.132 229.98 241.094 262.114 222.957 287.541L212.413 302.324C212.413 302.324 212.613 300.407 212.812 297.049C211.988 299.07 211.489 300.155 211.489 300.155L210.775 301.156L192.945 288.437C183.484 281.689 175.911 273.062 170.501 263.232C169.87 262.096 170.844 260.732 172.123 260.958L185.271 263.404C185.992 263.644 186.361 262.741 185.77 262.319L165.165 247.622C164.21 246.941 163.559 245.928 163.253 244.817C160.903 235.317 160.35 225.315 161.844 215.331C162.426 211.629 163.305 204.913 163.777 201.269C163.964 199.755 164.951 198.468 166.366 197.831L179.82 192.055C180.826 191.606 180.962 190.261 180.097 189.645L167.998 181.015C166.815 180.171 166.133 178.723 166.255 177.301C167.762 158.062 168.093 137.778 166.015 119.139C165.878 118.08 166.176 116.989 166.793 116.124C167.948 114.409 170.286 114.018 171.923 115.186Z" fill="url(#paint9_radial_5998_38)"/>
<path d="M171.923 115.186L190.891 128.715C214.998 145.911 232.187 171.074 239.468 199.738C247.132 229.98 241.094 262.114 222.957 287.541L212.413 302.324C212.413 302.324 212.613 300.407 212.812 297.049C211.988 299.07 211.489 300.155 211.489 300.155L210.775 301.156L192.945 288.437C183.484 281.689 175.911 273.062 170.501 263.232C169.87 262.096 170.844 260.732 172.123 260.958L185.271 263.404C185.992 263.644 186.361 262.741 185.77 262.319L165.165 247.622C164.21 246.941 163.559 245.928 163.253 244.817C160.903 235.317 160.35 225.315 161.844 215.331C162.426 211.629 163.305 204.913 163.777 201.269C163.964 199.755 164.951 198.468 166.366 197.831L179.82 192.055C180.826 191.606 180.962 190.261 180.097 189.645L167.998 181.015C166.815 180.171 166.133 178.723 166.255 177.301C167.762 158.062 168.093 137.778 166.015 119.139C165.878 118.08 166.176 116.989 166.793 116.124C167.948 114.409 170.286 114.018 171.923 115.186Z" fill="url(#paint10_radial_5998_38)" fill-opacity="0.8"/>
<path d="M171.923 115.186L190.891 128.715C214.998 145.911 232.187 171.074 239.468 199.738C247.132 229.98 241.094 262.114 222.957 287.541L212.413 302.324C212.413 302.324 212.613 300.407 212.812 297.049C211.988 299.07 211.489 300.155 211.489 300.155L210.775 301.156L192.945 288.437C183.484 281.689 175.911 273.062 170.501 263.232C169.87 262.096 170.844 260.732 172.123 260.958L185.271 263.404C185.992 263.644 186.361 262.741 185.77 262.319L165.165 247.622C164.21 246.941 163.559 245.928 163.253 244.817C160.903 235.317 160.35 225.315 161.844 215.331C162.426 211.629 163.305 204.913 163.777 201.269C163.964 199.755 164.951 198.468 166.366 197.831L179.82 192.055C180.826 191.606 180.962 190.261 180.097 189.645L167.998 181.015C166.815 180.171 166.133 178.723 166.255 177.301C167.762 158.062 168.093 137.778 166.015 119.139C165.878 118.08 166.176 116.989 166.793 116.124C167.948 114.409 170.286 114.018 171.923 115.186Z" fill="url(#paint11_radial_5998_38)" fill-opacity="0.8"/>
<path d="M171.923 115.186L190.891 128.715C214.998 145.911 232.187 171.074 239.468 199.738C247.132 229.98 241.094 262.114 222.957 287.541L212.413 302.324C212.413 302.324 212.613 300.407 212.812 297.049C211.988 299.07 211.489 300.155 211.489 300.155L210.775 301.156L192.945 288.437C183.484 281.689 175.911 273.062 170.501 263.232C169.87 262.096 170.844 260.732 172.123 260.958L185.271 263.404C185.992 263.644 186.361 262.741 185.77 262.319L165.165 247.622C164.21 246.941 163.559 245.928 163.253 244.817C160.903 235.317 160.35 225.315 161.844 215.331C162.426 211.629 163.305 204.913 163.777 201.269C163.964 199.755 164.951 198.468 166.366 197.831L179.82 192.055C180.826 191.606 180.962 190.261 180.097 189.645L167.998 181.015C166.815 180.171 166.133 178.723 166.255 177.301C167.762 158.062 168.093 137.778 166.015 119.139C165.878 118.08 166.176 116.989 166.793 116.124C167.948 114.409 170.286 114.018 171.923 115.186Z" fill="url(#paint12_radial_5998_38)" fill-opacity="0.8"/>
<path d="M171.923 115.186L190.891 128.715C214.998 145.911 232.187 171.074 239.468 199.738C247.132 229.98 241.094 262.114 222.957 287.541L212.413 302.324C212.413 302.324 212.613 300.407 212.812 297.049C211.988 299.07 211.489 300.155 211.489 300.155L210.775 301.156L192.945 288.437C183.484 281.689 175.911 273.062 170.501 263.232C169.87 262.096 170.844 260.732 172.123 260.958L185.271 263.404C185.992 263.644 186.361 262.741 185.77 262.319L165.165 247.622C164.21 246.941 163.559 245.928 163.253 244.817C160.903 235.317 160.35 225.315 161.844 215.331C162.426 211.629 163.305 204.913 163.777 201.269C163.964 199.755 164.951 198.468 166.366 197.831L179.82 192.055C180.826 191.606 180.962 190.261 180.097 189.645L167.998 181.015C166.815 180.171 166.133 178.723 166.255 177.301C167.762 158.062 168.093 137.778 166.015 119.139C165.878 118.08 166.176 116.989 166.793 116.124C167.948 114.409 170.286 114.018 171.923 115.186Z" fill="url(#paint13_radial_5998_38)"/>
<path d="M171.923 115.186L190.891 128.715C214.998 145.911 232.187 171.074 239.468 199.738C247.132 229.98 241.094 262.114 222.957 287.541L212.413 302.324C212.413 302.324 212.613 300.407 212.812 297.049C211.988 299.07 211.489 300.155 211.489 300.155L210.775 301.156L192.945 288.437C183.484 281.689 175.911 273.062 170.501 263.232C169.87 262.096 170.844 260.732 172.123 260.958L185.271 263.404C185.992 263.644 186.361 262.741 185.77 262.319L165.165 247.622C164.21 246.941 163.559 245.928 163.253 244.817C160.903 235.317 160.35 225.315 161.844 215.331C162.426 211.629 163.305 204.913 163.777 201.269C163.964 199.755 164.951 198.468 166.366 197.831L179.82 192.055C180.826 191.606 180.962 190.261 180.097 189.645L167.998 181.015C166.815 180.171 166.133 178.723 166.255 177.301C167.762 158.062 168.093 137.778 166.015 119.139C165.878 118.08 166.176 116.989 166.793 116.124C167.948 114.409 170.286 114.018 171.923 115.186Z" fill="url(#paint14_radial_5998_38)" fill-opacity="0.8"/>
<path d="M171.923 115.186L190.891 128.715C214.998 145.911 232.187 171.074 239.468 199.738C247.132 229.98 241.094 262.114 222.957 287.541L212.413 302.324C212.413 302.324 212.613 300.407 212.812 297.049C211.988 299.07 211.489 300.155 211.489 300.155L210.775 301.156L192.945 288.437C183.484 281.689 175.911 273.062 170.501 263.232C169.87 262.096 170.844 260.732 172.123 260.958L185.271 263.404C185.992 263.644 186.361 262.741 185.77 262.319L165.165 247.622C164.21 246.941 163.559 245.928 163.253 244.817C160.903 235.317 160.35 225.315 161.844 215.331C162.426 211.629 163.305 204.913 163.777 201.269C163.964 199.755 164.951 198.468 166.366 197.831L179.82 192.055C180.826 191.606 180.962 190.261 180.097 189.645L167.998 181.015C166.815 180.171 166.133 178.723 166.255 177.301C167.762 158.062 168.093 137.778 166.015 119.139C165.878 118.08 166.176 116.989 166.793 116.124C167.948 114.409 170.286 114.018 171.923 115.186Z" fill="url(#paint15_radial_5998_38)" fill-opacity="0.8"/>
<path d="M171.923 115.186L190.891 128.715C214.998 145.911 232.187 171.074 239.468 199.738C247.132 229.98 241.094 262.114 222.957 287.541L212.413 302.324C212.413 302.324 212.613 300.407 212.812 297.049C211.988 299.07 211.489 300.155 211.489 300.155L210.775 301.156L192.945 288.437C183.484 281.689 175.911 273.062 170.501 263.232C169.87 262.096 170.844 260.732 172.123 260.958L185.271 263.404C185.992 263.644 186.361 262.741 185.77 262.319L165.165 247.622C164.21 246.941 163.559 245.928 163.253 244.817C160.903 235.317 160.35 225.315 161.844 215.331C162.426 211.629 163.305 204.913 163.777 201.269C163.964 199.755 164.951 198.468 166.366 197.831L179.82 192.055C180.826 191.606 180.962 190.261 180.097 189.645L167.998 181.015C166.815 180.171 166.133 178.723 166.255 177.301C167.762 158.062 168.093 137.778 166.015 119.139C165.878 118.08 166.176 116.989 166.793 116.124C167.948 114.409 170.286 114.018 171.923 115.186Z" fill="url(#paint16_radial_5998_38)"/>
<path d="M167.436 146.299L202.87 171.573L216.237 152.833C222.633 160.896 228.043 169.764 232.271 179.231L209.754 210.798L167.953 180.981C166.77 180.138 166.087 178.69 166.21 177.268C167.028 167.076 167.482 156.626 167.436 146.299Z" fill="url(#paint17_linear_5998_38)"/>
<path d="M167.436 146.299L202.87 171.573L216.237 152.833C222.633 160.896 228.043 169.764 232.271 179.231L209.754 210.798L167.953 180.981C166.77 180.138 166.087 178.69 166.21 177.268C167.028 167.076 167.482 156.626 167.436 146.299Z" fill="url(#paint18_radial_5998_38)"/>
<path d="M167.436 146.299L202.87 171.573L216.237 152.833C222.633 160.896 228.043 169.764 232.271 179.231L209.754 210.798L167.953 180.981C166.77 180.138 166.087 178.69 166.21 177.268C167.028 167.076 167.482 156.626 167.436 146.299Z" fill="url(#paint19_linear_5998_38)"/>
<path d="M171.923 115.186L190.891 128.715C214.998 145.911 232.187 171.074 239.468 199.738C247.132 229.98 241.094 262.114 222.957 287.541L212.413 302.324C212.413 302.324 212.613 300.407 212.812 297.049C211.988 299.07 211.489 300.155 211.489 300.155L210.775 301.156L192.945 288.437C183.484 281.689 175.911 273.062 170.501 263.232C169.87 262.096 170.844 260.732 172.123 260.958L185.271 263.404C185.992 263.644 186.361 262.741 185.77 262.319L165.165 247.622C164.21 246.941 163.559 245.928 163.253 244.817C160.903 235.317 160.35 225.315 161.844 215.331C162.426 211.629 163.305 204.913 163.777 201.269C163.964 199.755 164.951 198.468 166.366 197.831L179.82 192.055C180.826 191.606 180.962 190.261 180.097 189.645L167.998 181.015C166.815 180.171 166.133 178.723 166.255 177.301C167.762 158.062 168.093 137.778 166.015 119.139C165.878 118.08 166.176 116.989 166.793 116.124C167.948 114.409 170.286 114.018 171.923 115.186Z" fill="url(#paint20_radial_5998_38)" fill-opacity="0.8"/>
<path d="M171.923 115.186L190.891 128.715C214.998 145.911 232.187 171.074 239.468 199.738C247.132 229.98 241.094 262.114 222.957 287.541L212.413 302.324C212.413 302.324 212.613 300.407 212.812 297.049C211.988 299.07 211.489 300.155 211.489 300.155L210.775 301.156L192.945 288.437C183.484 281.689 175.911 273.062 170.501 263.232C169.87 262.096 170.844 260.732 172.123 260.958L185.271 263.404C185.992 263.644 186.361 262.741 185.77 262.319L165.165 247.622C164.21 246.941 163.559 245.928 163.253 244.817C160.903 235.317 160.35 225.315 161.844 215.331C162.426 211.629 163.305 204.913 163.777 201.269C163.964 199.755 164.951 198.468 166.366 197.831L179.82 192.055C180.826 191.606 180.962 190.261 180.097 189.645L167.998 181.015C166.815 180.171 166.133 178.723 166.255 177.301C167.762 158.062 168.093 137.778 166.015 119.139C165.878 118.08 166.176 116.989 166.793 116.124C167.948 114.409 170.286 114.018 171.923 115.186Z" fill="url(#paint21_radial_5998_38)" fill-opacity="0.2"/>
<path d="M171.923 115.186L190.891 128.715C214.998 145.911 232.187 171.074 239.468 199.738C247.132 229.98 241.094 262.114 222.957 287.541L212.413 302.324C212.413 302.324 212.613 300.407 212.812 297.049C211.988 299.07 211.489 300.155 211.489 300.155L210.775 301.156L192.945 288.437C183.484 281.689 175.911 273.062 170.501 263.232C169.87 262.096 170.844 260.732 172.123 260.958L185.271 263.404C185.992 263.644 186.361 262.741 185.77 262.319L165.165 247.622C164.21 246.941 163.559 245.928 163.253 244.817C160.903 235.317 160.35 225.315 161.844 215.331C162.426 211.629 163.305 204.913 163.777 201.269C163.964 199.755 164.951 198.468 166.366 197.831L179.82 192.055C180.826 191.606 180.962 190.261 180.097 189.645L167.998 181.015C166.815 180.171 166.133 178.723 166.255 177.301C167.762 158.062 168.093 137.778 166.015 119.139C165.878 118.08 166.176 116.989 166.793 116.124C167.948 114.409 170.286 114.018 171.923 115.186Z" fill="url(#paint22_linear_5998_38)"/>
<path d="M171.923 115.186L190.891 128.715C214.998 145.911 232.187 171.074 239.468 199.738C247.132 229.98 241.094 262.114 222.957 287.541L212.413 302.324C212.413 302.324 212.613 300.407 212.812 297.049C211.988 299.07 211.489 300.155 211.489 300.155L210.775 301.156L192.945 288.437C183.484 281.689 175.911 273.062 170.501 263.232C169.87 262.096 170.844 260.732 172.123 260.958L185.271 263.404C185.992 263.644 186.361 262.741 185.77 262.319L165.165 247.622C164.21 246.941 163.559 245.928 163.253 244.817C160.903 235.317 160.35 225.315 161.844 215.331C162.426 211.629 163.305 204.913 163.777 201.269C163.964 199.755 164.951 198.468 166.366 197.831L179.82 192.055C180.826 191.606 180.962 190.261 180.097 189.645L167.998 181.015C166.815 180.171 166.133 178.723 166.255 177.301C167.762 158.062 168.093 137.778 166.015 119.139C165.878 118.08 166.176 116.989 166.793 116.124C167.948 114.409 170.286 114.018 171.923 115.186Z" fill="url(#paint23_radial_5998_38)"/>
<path d="M171.923 115.186L190.891 128.715C214.998 145.911 232.187 171.074 239.468 199.738C247.132 229.98 241.094 262.114 222.957 287.541L212.413 302.324C212.413 302.324 212.613 300.407 212.812 297.049C211.988 299.07 211.489 300.155 211.489 300.155L210.775 301.156L192.945 288.437C183.484 281.689 175.911 273.062 170.501 263.232C169.87 262.096 170.844 260.732 172.123 260.958L185.271 263.404C185.992 263.644 186.361 262.741 185.77 262.319L165.165 247.622C164.21 246.941 163.559 245.928 163.253 244.817C160.903 235.317 160.35 225.315 161.844 215.331C162.426 211.629 163.305 204.913 163.777 201.269C163.964 199.755 164.951 198.468 166.366 197.831L179.82 192.055C180.826 191.606 180.962 190.261 180.097 189.645L167.998 181.015C166.815 180.171 166.133 178.723 166.255 177.301C167.762 158.062 168.093 137.778 166.015 119.139C165.878 118.08 166.176 116.989 166.793 116.124C167.948 114.409 170.286 114.018 171.923 115.186Z" fill="url(#paint24_radial_5998_38)"/>
<path d="M171.923 115.186L190.891 128.715C214.998 145.911 232.187 171.074 239.468 199.738C247.132 229.98 241.094 262.114 222.957 287.541L212.413 302.324C212.413 302.324 212.613 300.407 212.812 297.049C211.988 299.07 211.489 300.155 211.489 300.155L210.775 301.156L192.945 288.437C183.484 281.689 175.911 273.062 170.501 263.232C169.87 262.096 170.844 260.732 172.123 260.958L185.271 263.404C185.992 263.644 186.361 262.741 185.77 262.319L165.165 247.622C164.21 246.941 163.559 245.928 163.253 244.817C160.903 235.317 160.35 225.315 161.844 215.331C162.426 211.629 163.305 204.913 163.777 201.269C163.964 199.755 164.951 198.468 166.366 197.831L179.82 192.055C180.826 191.606 180.962 190.261 180.097 189.645L167.998 181.015C166.815 180.171 166.133 178.723 166.255 177.301C167.762 158.062 168.093 137.778 166.015 119.139C165.878 118.08 166.176 116.989 166.793 116.124C167.948 114.409 170.286 114.018 171.923 115.186Z" fill="url(#paint25_radial_5998_38)"/>
<path d="M183.583 138.19C184.908 137.487 186.551 137.973 187.286 139.252C201.493 163.593 211.013 190.079 215.74 218.089C220.722 247.858 219.93 277.833 213.422 307.162C211.816 314.32 209.905 321.329 207.655 328.235C207.091 329.892 205.312 330.75 203.786 330.004C202.441 329.388 201.868 327.882 202.328 326.563C204.526 319.826 206.418 312.94 207.972 305.951C214.364 277.362 215.15 248.07 210.253 219.047C205.675 191.693 196.351 165.895 182.482 142.139C181.643 140.717 182.116 138.996 183.583 138.19C183.551 138.235 183.551 138.235 183.583 138.19Z" fill="url(#paint26_linear_5998_38)"/>
<path d="M183.583 138.19C184.908 137.487 186.551 137.973 187.286 139.252C201.493 163.593 211.013 190.079 215.74 218.089C220.722 247.858 219.93 277.833 213.422 307.162C211.816 314.32 209.905 321.329 207.655 328.235C207.091 329.892 205.312 330.75 203.786 330.004C202.441 329.388 201.868 327.882 202.328 326.563C204.526 319.826 206.418 312.94 207.972 305.951C214.364 277.362 215.15 248.07 210.253 219.047C205.675 191.693 196.351 165.895 182.482 142.139C181.643 140.717 182.116 138.996 183.583 138.19C183.551 138.235 183.551 138.235 183.583 138.19Z" fill="url(#paint27_linear_5998_38)"/>
<path d="M183.583 138.19C184.908 137.487 186.551 137.973 187.286 139.252C201.493 163.593 211.013 190.079 215.74 218.089C220.722 247.858 219.93 277.833 213.422 307.162C211.816 314.32 209.905 321.329 207.655 328.235C207.091 329.892 205.312 330.75 203.786 330.004C202.441 329.388 201.868 327.882 202.328 326.563C204.526 319.826 206.418 312.94 207.972 305.951C214.364 277.362 215.15 248.07 210.253 219.047C205.675 191.693 196.351 165.895 182.482 142.139C181.643 140.717 182.116 138.996 183.583 138.19C183.551 138.235 183.551 138.235 183.583 138.19Z" fill="url(#paint28_radial_5998_38)" fill-opacity="0.8"/>
<path d="M183.583 138.19C184.908 137.487 186.551 137.973 187.286 139.252C201.493 163.593 211.013 190.079 215.74 218.089C220.722 247.858 219.93 277.833 213.422 307.162C211.816 314.32 209.905 321.329 207.655 328.235C207.091 329.892 205.312 330.75 203.786 330.004C202.441 329.388 201.868 327.882 202.328 326.563C204.526 319.826 206.418 312.94 207.972 305.951C214.364 277.362 215.15 248.07 210.253 219.047C205.675 191.693 196.351 165.895 182.482 142.139C181.643 140.717 182.116 138.996 183.583 138.19C183.551 138.235 183.551 138.235 183.583 138.19Z" fill="url(#paint29_radial_5998_38)"/>
<path d="M183.583 138.19C184.908 137.487 186.551 137.973 187.286 139.252C201.493 163.593 211.013 190.079 215.74 218.089C220.722 247.858 219.93 277.833 213.422 307.162C211.816 314.32 209.905 321.329 207.655 328.235C207.091 329.892 205.312 330.75 203.786 330.004C202.441 329.388 201.868 327.882 202.328 326.563C204.526 319.826 206.418 312.94 207.972 305.951C214.364 277.362 215.15 248.07 210.253 219.047C205.675 191.693 196.351 165.895 182.482 142.139C181.643 140.717 182.116 138.996 183.583 138.19C183.551 138.235 183.551 138.235 183.583 138.19Z" fill="url(#paint30_radial_5998_38)"/>
<path d="M183.583 138.19C184.908 137.487 186.551 137.973 187.286 139.252C201.493 163.593 211.013 190.079 215.74 218.089C220.722 247.858 219.93 277.833 213.422 307.162C211.816 314.32 209.905 321.329 207.655 328.235C207.091 329.892 205.312 330.75 203.786 330.004C202.441 329.388 201.868 327.882 202.328 326.563C204.526 319.826 206.418 312.94 207.972 305.951C214.364 277.362 215.15 248.07 210.253 219.047C205.675 191.693 196.351 165.895 182.482 142.139C181.643 140.717 182.116 138.996 183.583 138.19C183.551 138.235 183.551 138.235 183.583 138.19Z" fill="url(#paint31_radial_5998_38)"/>
<path d="M183.583 138.19C184.908 137.487 186.551 137.973 187.286 139.252C201.493 163.593 211.013 190.079 215.74 218.089C220.722 247.858 219.93 277.833 213.422 307.162C211.816 314.32 209.905 321.329 207.655 328.235C207.091 329.892 205.312 330.75 203.786 330.004C202.441 329.388 201.868 327.882 202.328 326.563C204.526 319.826 206.418 312.94 207.972 305.951C214.364 277.362 215.15 248.07 210.253 219.047C205.675 191.693 196.351 165.895 182.482 142.139C181.643 140.717 182.116 138.996 183.583 138.19C183.551 138.235 183.551 138.235 183.583 138.19Z" fill="url(#paint32_radial_5998_38)" fill-opacity="0.6"/>
<path d="M183.583 138.19C184.908 137.487 186.551 137.973 187.286 139.252C201.493 163.593 211.013 190.079 215.74 218.089C220.722 247.858 219.93 277.833 213.422 307.162C211.816 314.32 209.905 321.329 207.655 328.235C207.091 329.892 205.312 330.75 203.786 330.004C202.441 329.388 201.868 327.882 202.328 326.563C204.526 319.826 206.418 312.94 207.972 305.951C214.364 277.362 215.15 248.07 210.253 219.047C205.675 191.693 196.351 165.895 182.482 142.139C181.643 140.717 182.116 138.996 183.583 138.19C183.551 138.235 183.551 138.235 183.583 138.19Z" fill="url(#paint33_radial_5998_38)"/>
<path d="M183.583 138.19C184.908 137.487 186.551 137.973 187.286 139.252C201.493 163.593 211.013 190.079 215.74 218.089C220.722 247.858 219.93 277.833 213.422 307.162C211.816 314.32 209.905 321.329 207.655 328.235C207.091 329.892 205.312 330.75 203.786 330.004C202.441 329.388 201.868 327.882 202.328 326.563C204.526 319.826 206.418 312.94 207.972 305.951C214.364 277.362 215.15 248.07 210.253 219.047C205.675 191.693 196.351 165.895 182.482 142.139C181.643 140.717 182.116 138.996 183.583 138.19C183.551 138.235 183.551 138.235 183.583 138.19Z" fill="url(#paint34_radial_5998_38)"/>
</g>
<path d="M99.6361 153.313L51.8765 229.456C50.7841 231.197 52.0122 233.464 54.0677 233.5L77.542 233.914C79.2923 233.945 80.686 235.389 80.6552 237.139L79.789 286.273L76.9981 286.224L76.7634 299.538L81.0411 299.614C81.5817 299.662 82.1493 299.438 82.5049 298.878L135.611 215.222C136.274 214.178 135.538 212.81 134.301 212.788L107.516 212.316C106.057 212.29 104.896 211.087 104.921 209.628L105.995 148.712C106.012 147.773 105.299 147.169 104.534 147.102L99.7472 147.014L99.6361 153.313Z" fill="url(#paint35_linear_5998_38)"/>
<path d="M99.6361 153.313L51.8765 229.456C50.7841 231.197 52.0122 233.464 54.0677 233.5L77.542 233.914C79.2923 233.945 80.686 235.389 80.6552 237.139L79.789 286.273L76.9981 286.224L76.7634 299.538L81.0411 299.614C81.5817 299.662 82.1493 299.438 82.5049 298.878L135.611 215.222C136.274 214.178 135.538 212.81 134.301 212.788L107.516 212.316C106.057 212.29 104.896 211.087 104.921 209.628L105.995 148.712C106.012 147.773 105.299 147.169 104.534 147.102L99.7472 147.014L99.6361 153.313Z" fill="url(#paint36_linear_5998_38)"/>
<path d="M98.4166 147.76L47.2251 229.374C46.1328 231.115 47.3608 233.382 49.4162 233.418L72.8904 233.832C74.6407 233.863 76.0346 235.307 76.0037 237.057L74.9307 297.918C74.9025 299.519 76.9952 300.147 77.8533 298.796L130.96 215.14C131.623 214.096 130.887 212.728 129.65 212.706L102.864 212.234C101.406 212.208 100.244 211.005 100.27 209.546L101.344 148.63C101.372 147.025 99.2698 146.4 98.4166 147.76Z" fill="url(#paint37_linear_5998_38)"/>
<path d="M98.4166 147.76L47.2251 229.374C46.1328 231.115 47.3608 233.382 49.4162 233.418L72.8904 233.832C74.6407 233.863 76.0346 235.307 76.0037 237.057L74.9307 297.918C74.9025 299.519 76.9952 300.147 77.8533 298.796L130.96 215.14C131.623 214.096 130.887 212.728 129.65 212.706L102.864 212.234C101.406 212.208 100.244 211.005 100.27 209.546L101.344 148.63C101.372 147.025 99.2698 146.4 98.4166 147.76Z" fill="url(#paint38_linear_5998_38)" fill-opacity="0.8"/>
<path d="M98.4166 147.76L47.2251 229.374C46.1328 231.115 47.3608 233.382 49.4162 233.418L72.8904 233.832C74.6407 233.863 76.0346 235.307 76.0037 237.057L74.9307 297.918C74.9025 299.519 76.9952 300.147 77.8533 298.796L130.96 215.14C131.623 214.096 130.887 212.728 129.65 212.706L102.864 212.234C101.406 212.208 100.244 211.005 100.27 209.546L101.344 148.63C101.372 147.025 99.2698 146.4 98.4166 147.76Z" fill="url(#paint39_radial_5998_38)"/>
<path d="M98.4166 147.76L47.2251 229.374C46.1328 231.115 47.3608 233.382 49.4162 233.418L72.8904 233.832C74.6407 233.863 76.0346 235.307 76.0037 237.057L74.9307 297.918C74.9025 299.519 76.9952 300.147 77.8533 298.796L130.96 215.14C131.623 214.096 130.887 212.728 129.65 212.706L102.864 212.234C101.406 212.208 100.244 211.005 100.27 209.546L101.344 148.63C101.372 147.025 99.2698 146.4 98.4166 147.76Z" fill="url(#paint40_linear_5998_38)"/>
<path d="M98.4166 147.76L47.2251 229.374C46.1328 231.115 47.3608 233.382 49.4162 233.418L72.8904 233.832C74.6407 233.863 76.0346 235.307 76.0037 237.057L74.9307 297.918C74.9025 299.519 76.9952 300.147 77.8533 298.796L130.96 215.14C131.623 214.096 130.887 212.728 129.65 212.706L102.864 212.234C101.406 212.208 100.244 211.005 100.27 209.546L101.344 148.63C101.372 147.025 99.2698 146.4 98.4166 147.76Z" fill="url(#paint41_radial_5998_38)"/>
<path d="M98.4166 147.76L47.2251 229.374C46.1328 231.115 47.3608 233.382 49.4162 233.418L72.8904 233.832C74.6407 233.863 76.0346 235.307 76.0037 237.057L74.9307 297.918C74.9025 299.519 76.9952 300.147 77.8533 298.796L130.96 215.14C131.623 214.096 130.887 212.728 129.65 212.706L102.864 212.234C101.406 212.208 100.244 211.005 100.27 209.546L101.344 148.63C101.372 147.025 99.2698 146.4 98.4166 147.76Z" fill="url(#paint42_radial_5998_38)"/>
<path d="M98.4166 147.76L47.2251 229.374C46.1328 231.115 47.3608 233.382 49.4162 233.418L72.8904 233.832C74.6407 233.863 76.0346 235.307 76.0037 237.057L74.9307 297.918C74.9025 299.519 76.9952 300.147 77.8533 298.796L130.96 215.14C131.623 214.096 130.887 212.728 129.65 212.706L102.864 212.234C101.406 212.208 100.244 211.005 100.27 209.546L101.344 148.63C101.372 147.025 99.2698 146.4 98.4166 147.76Z" fill="url(#paint43_linear_5998_38)"/>
<path d="M98.4166 147.76L47.2251 229.374C46.1328 231.115 47.3608 233.382 49.4162 233.418L72.8904 233.832C74.6407 233.863 76.0346 235.307 76.0037 237.057L74.9307 297.918C74.9025 299.519 76.9952 300.147 77.8533 298.796L130.96 215.14C131.623 214.096 130.887 212.728 129.65 212.706L102.864 212.234C101.406 212.208 100.244 211.005 100.27 209.546L101.344 148.63C101.372 147.025 99.2698 146.4 98.4166 147.76Z" fill="url(#paint44_radial_5998_38)" fill-opacity="0.7"/>
<path d="M98.4166 147.76L47.2251 229.374C46.1328 231.115 47.3608 233.382 49.4162 233.418L72.8904 233.832C74.6407 233.863 76.0346 235.307 76.0037 237.057L74.9307 297.918C74.9025 299.519 76.9952 300.147 77.8533 298.796L130.96 215.14C131.623 214.096 130.887 212.728 129.65 212.706L102.864 212.234C101.406 212.208 100.244 211.005 100.27 209.546L101.344 148.63C101.372 147.025 99.2698 146.4 98.4166 147.76Z" fill="url(#paint45_radial_5998_38)" fill-opacity="0.7"/>
<path d="M98.4166 147.76L47.2251 229.374C46.1328 231.115 47.3608 233.382 49.4162 233.418L72.8904 233.832C74.6407 233.863 76.0346 235.307 76.0037 237.057L74.9307 297.918C74.9025 299.519 76.9952 300.147 77.8533 298.796L130.96 215.14C131.623 214.096 130.887 212.728 129.65 212.706L102.864 212.234C101.406 212.208 100.244 211.005 100.27 209.546L101.344 148.63C101.372 147.025 99.2698 146.4 98.4166 147.76Z" fill="url(#paint46_radial_5998_38)" fill-opacity="0.7"/>
<path d="M98.4166 147.76L47.2251 229.374C46.1328 231.115 47.3608 233.382 49.4162 233.418L72.8904 233.832C74.6407 233.863 76.0346 235.307 76.0037 237.057L74.9307 297.918C74.9025 299.519 76.9952 300.147 77.8533 298.796L130.96 215.14C131.623 214.096 130.887 212.728 129.65 212.706L102.864 212.234C101.406 212.208 100.244 211.005 100.27 209.546L101.344 148.63C101.372 147.025 99.2698 146.4 98.4166 147.76Z" fill="url(#paint47_radial_5998_38)" fill-opacity="0.7"/>
<path d="M98.4166 147.76L47.2251 229.374C46.1328 231.115 47.3608 233.382 49.4162 233.418L72.8904 233.832C74.6407 233.863 76.0346 235.307 76.0037 237.057L74.9307 297.918C74.9025 299.519 76.9952 300.147 77.8533 298.796L130.96 215.14C131.623 214.096 130.887 212.728 129.65 212.706L102.864 212.234C101.406 212.208 100.244 211.005 100.27 209.546L101.344 148.63C101.372 147.025 99.2698 146.4 98.4166 147.76Z" fill="url(#paint48_radial_5998_38)" fill-opacity="0.7"/>
<path d="M98.4166 147.76L47.2251 229.374C46.1328 231.115 47.3608 233.382 49.4162 233.418L72.8904 233.832C74.6407 233.863 76.0346 235.307 76.0037 237.057L74.9307 297.918C74.9025 299.519 76.9952 300.147 77.8533 298.796L130.96 215.14C131.623 214.096 130.887 212.728 129.65 212.706L102.864 212.234C101.406 212.208 100.244 211.005 100.27 209.546L101.344 148.63C101.372 147.025 99.2698 146.4 98.4166 147.76Z" fill="url(#paint49_radial_5998_38)" fill-opacity="0.7"/>
<path d="M98.4166 147.76L47.2251 229.374C46.1328 231.115 47.3608 233.382 49.4162 233.418L72.8904 233.832C74.6407 233.863 76.0346 235.307 76.0037 237.057L74.9307 297.918C74.9025 299.519 76.9952 300.147 77.8533 298.796L130.96 215.14C131.623 214.096 130.887 212.728 129.65 212.706L102.864 212.234C101.406 212.208 100.244 211.005 100.27 209.546L101.344 148.63C101.372 147.025 99.2698 146.4 98.4166 147.76Z" fill="url(#paint50_radial_5998_38)" fill-opacity="0.7"/>
<path d="M98.4166 147.76L47.2251 229.374C46.1328 231.115 47.3608 233.382 49.4162 233.418L72.8904 233.832C74.6407 233.863 76.0346 235.307 76.0037 237.057L74.9307 297.918C74.9025 299.519 76.9952 300.147 77.8533 298.796L130.96 215.14C131.623 214.096 130.887 212.728 129.65 212.706L102.864 212.234C101.406 212.208 100.244 211.005 100.27 209.546L101.344 148.63C101.372 147.025 99.2698 146.4 98.4166 147.76Z" fill="url(#paint51_radial_5998_38)" fill-opacity="0.7"/>
<path d="M98.4166 147.76L47.2251 229.374C46.1328 231.115 47.3608 233.382 49.4162 233.418L72.8904 233.832C74.6407 233.863 76.0346 235.307 76.0037 237.057L74.9307 297.918C74.9025 299.519 76.9952 300.147 77.8533 298.796L130.96 215.14C131.623 214.096 130.887 212.728 129.65 212.706L102.864 212.234C101.406 212.208 100.244 211.005 100.27 209.546L101.344 148.63C101.372 147.025 99.2698 146.4 98.4166 147.76Z" fill="url(#paint52_radial_5998_38)" fill-opacity="0.7"/>
<path d="M98.4166 147.76L47.2251 229.374C46.1328 231.115 47.3608 233.382 49.4162 233.418L72.8904 233.832C74.6407 233.863 76.0346 235.307 76.0037 237.057L74.9307 297.918C74.9025 299.519 76.9952 300.147 77.8533 298.796L130.96 215.14C131.623 214.096 130.887 212.728 129.65 212.706L102.864 212.234C101.406 212.208 100.244 211.005 100.27 209.546L101.344 148.63C101.372 147.025 99.2698 146.4 98.4166 147.76Z" fill="url(#paint53_radial_5998_38)" fill-opacity="0.7"/>
<path d="M98.4166 147.76L47.2251 229.374C46.1328 231.115 47.3608 233.382 49.4162 233.418L72.8904 233.832C74.6407 233.863 76.0346 235.307 76.0037 237.057L74.9307 297.918C74.9025 299.519 76.9952 300.147 77.8533 298.796L130.96 215.14C131.623 214.096 130.887 212.728 129.65 212.706L102.864 212.234C101.406 212.208 100.244 211.005 100.27 209.546L101.344 148.63C101.372 147.025 99.2698 146.4 98.4166 147.76Z" fill="url(#paint54_radial_5998_38)" fill-opacity="0.7"/>
<path d="M98.4166 147.76L47.2251 229.374C46.1328 231.115 47.3608 233.382 49.4162 233.418L72.8904 233.832C74.6407 233.863 76.0346 235.307 76.0037 237.057L74.9307 297.918C74.9025 299.519 76.9952 300.147 77.8533 298.796L130.96 215.14C131.623 214.096 130.887 212.728 129.65 212.706L102.864 212.234C101.406 212.208 100.244 211.005 100.27 209.546L101.344 148.63C101.372 147.025 99.2698 146.4 98.4166 147.76Z" fill="url(#paint55_radial_5998_38)" fill-opacity="0.7"/>
<path d="M98.4166 147.76L47.2251 229.374C46.1328 231.115 47.3608 233.382 49.4162 233.418L72.8904 233.832C74.6407 233.863 76.0346 235.307 76.0037 237.057L74.9307 297.918C74.9025 299.519 76.9952 300.147 77.8533 298.796L130.96 215.14C131.623 214.096 130.887 212.728 129.65 212.706L102.864 212.234C101.406 212.208 100.244 211.005 100.27 209.546L101.344 148.63C101.372 147.025 99.2698 146.4 98.4166 147.76Z" fill="url(#paint56_radial_5998_38)"/>
<path d="M98.4166 147.76L47.2251 229.374C46.1328 231.115 47.3608 233.382 49.4162 233.418L72.8904 233.832C74.6407 233.863 76.0346 235.307 76.0037 237.057L74.9307 297.918C74.9025 299.519 76.9952 300.147 77.8533 298.796L130.96 215.14C131.623 214.096 130.887 212.728 129.65 212.706L102.864 212.234C101.406 212.208 100.244 211.005 100.27 209.546L101.344 148.63C101.372 147.025 99.2698 146.4 98.4166 147.76Z" fill="url(#paint57_radial_5998_38)"/>
<path d="M98.4166 147.76L47.2251 229.374C46.1328 231.115 47.3608 233.382 49.4162 233.418L72.8904 233.832C74.6407 233.863 76.0346 235.307 76.0037 237.057L74.9307 297.918C74.9025 299.519 76.9952 300.147 77.8533 298.796L130.96 215.14C131.623 214.096 130.887 212.728 129.65 212.706L102.864 212.234C101.406 212.208 100.244 211.005 100.27 209.546L101.344 148.63C101.372 147.025 99.2698 146.4 98.4166 147.76Z" fill="url(#paint58_radial_5998_38)"/>
<path d="M98.4166 147.76L47.2251 229.374C46.1328 231.115 47.3608 233.382 49.4162 233.418L72.8904 233.832C74.6407 233.863 76.0346 235.307 76.0037 237.057L74.9307 297.918C74.9025 299.519 76.9952 300.147 77.8533 298.796L130.96 215.14C131.623 214.096 130.887 212.728 129.65 212.706L102.864 212.234C101.406 212.208 100.244 211.005 100.27 209.546L101.344 148.63C101.372 147.025 99.2698 146.4 98.4166 147.76Z" fill="url(#paint59_radial_5998_38)"/>
<path d="M98.4166 147.76L47.2251 229.374C46.1328 231.115 47.3608 233.382 49.4162 233.418L72.8904 233.832C74.6407 233.863 76.0346 235.307 76.0037 237.057L74.9307 297.918C74.9025 299.519 76.9952 300.147 77.8533 298.796L130.96 215.14C131.623 214.096 130.887 212.728 129.65 212.706L102.864 212.234C101.406 212.208 100.244 211.005 100.27 209.546L101.344 148.63C101.372 147.025 99.2698 146.4 98.4166 147.76Z" fill="url(#paint60_radial_5998_38)"/>
<path d="M98.4166 147.76L47.2251 229.374C46.1328 231.115 47.3608 233.382 49.4162 233.418L72.8904 233.832C74.6407 233.863 76.0346 235.307 76.0037 237.057L74.9307 297.918C74.9025 299.519 76.9952 300.147 77.8533 298.796L130.96 215.14C131.623 214.096 130.887 212.728 129.65 212.706L102.864 212.234C101.406 212.208 100.244 211.005 100.27 209.546L101.344 148.63C101.372 147.025 99.2698 146.4 98.4166 147.76Z" fill="url(#paint61_radial_5998_38)"/>
<path d="M98.4166 147.76L47.2251 229.374C46.1328 231.115 47.3608 233.382 49.4162 233.418L72.8904 233.832C74.6407 233.863 76.0346 235.307 76.0037 237.057L74.9307 297.918C74.9025 299.519 76.9952 300.147 77.8533 298.796L130.96 215.14C131.623 214.096 130.887 212.728 129.65 212.706L102.864 212.234C101.406 212.208 100.244 211.005 100.27 209.546L101.344 148.63C101.372 147.025 99.2698 146.4 98.4166 147.76Z" fill="url(#paint62_radial_5998_38)"/>
<path d="M98.4166 147.76L47.2251 229.374C46.1328 231.115 47.3608 233.382 49.4162 233.418L72.8904 233.832C74.6407 233.863 76.0346 235.307 76.0037 237.057L74.9307 297.918C74.9025 299.519 76.9952 300.147 77.8533 298.796L130.96 215.14C131.623 214.096 130.887 212.728 129.65 212.706L102.864 212.234C101.406 212.208 100.244 211.005 100.27 209.546L101.344 148.63C101.372 147.025 99.2698 146.4 98.4166 147.76Z" fill="url(#paint63_radial_5998_38)"/>
<path d="M98.4166 147.76L47.2251 229.374C46.1328 231.115 47.3608 233.382 49.4162 233.418L72.8904 233.832C74.6407 233.863 76.0346 235.307 76.0037 237.057L74.9307 297.918C74.9025 299.519 76.9952 300.147 77.8533 298.796L130.96 215.14C131.623 214.096 130.887 212.728 129.65 212.706L102.864 212.234C101.406 212.208 100.244 211.005 100.27 209.546L101.344 148.63C101.372 147.025 99.2698 146.4 98.4166 147.76Z" fill="url(#paint64_radial_5998_38)"/>
<path d="M98.4166 147.76L47.2251 229.374C46.1328 231.115 47.3608 233.382 49.4162 233.418L72.8904 233.832C74.6407 233.863 76.0346 235.307 76.0037 237.057L74.9307 297.918C74.9025 299.519 76.9952 300.147 77.8533 298.796L130.96 215.14C131.623 214.096 130.887 212.728 129.65 212.706L102.864 212.234C101.406 212.208 100.244 211.005 100.27 209.546L101.344 148.63C101.372 147.025 99.2698 146.4 98.4166 147.76Z" fill="url(#paint65_radial_5998_38)"/>
<defs>
<linearGradient id="paint0_linear_5998_38" x1="215.898" y1="324.128" x2="188.77" y2="121.726" gradientUnits="userSpaceOnUse">
<stop stop-color="#CE9270"/>
<stop offset="1" stop-color="#D78C55"/>
</linearGradient>
<radialGradient id="paint1_radial_5998_38" cx="0" cy="0" r="1" gradientUnits="userSpaceOnUse" gradientTransform="translate(173.8 252.062) rotate(-34.0198) scale(64.12 324.542)">
<stop stop-color="#E6A180"/>
<stop offset="0.496561" stop-color="#E6A180" stop-opacity="0.652038"/>
<stop offset="1" stop-color="#E6A180" stop-opacity="0"/>
</radialGradient>
<radialGradient id="paint2_radial_5998_38" cx="0" cy="0" r="1" gradientUnits="userSpaceOnUse" gradientTransform="translate(166.788 266.075) rotate(10.647) scale(48.0734 18.4635)">
<stop stop-color="#F2C48E"/>
<stop offset="0.746586" stop-color="#F2C48E" stop-opacity="0.171201"/>
<stop offset="1" stop-color="#F2C48E" stop-opacity="0"/>
</radialGradient>
<radialGradient id="paint3_radial_5998_38" cx="0" cy="0" r="1" gradientUnits="userSpaceOnUse" gradientTransform="translate(141.758 231.932) rotate(9.8916) scale(68.4509 55.3666)">
<stop stop-color="#F2C48E"/>
<stop offset="1" stop-color="#F2C48E" stop-opacity="0"/>
</radialGradient>
<radialGradient id="paint4_radial_5998_38" cx="0" cy="0" r="1" gradientUnits="userSpaceOnUse" gradientTransform="translate(158.81 249.843) rotate(-19.2082) scale(45.5006 44.1617)">
<stop stop-color="#D07480"/>
<stop offset="0.215225" stop-color="#D07480" stop-opacity="0.855736"/>
<stop offset="0.662403" stop-color="#D07480" stop-opacity="0.219296"/>
<stop offset="0.844671" stop-color="#D07480" stop-opacity="0.161874"/>
<stop offset="1" stop-color="#D07480" stop-opacity="0"/>
</radialGradient>
<radialGradient id="paint5_radial_5998_38" cx="0" cy="0" r="1" gradientUnits="userSpaceOnUse" gradientTransform="translate(159.995 192.034) rotate(-21.6239) scale(34.0946 19.4346)">
<stop stop-color="#F2C48E"/>
<stop offset="1" stop-color="#F2C48E" stop-opacity="0"/>
</radialGradient>
<radialGradient id="paint6_radial_5998_38" cx="0" cy="0" r="1" gradientUnits="userSpaceOnUse" gradientTransform="translate(141.836 233.126) rotate(-1.12147) scale(96.5888 177.104)">
<stop offset="0.685432" stop-color="#C68A61" stop-opacity="0"/>
<stop offset="1" stop-color="#C68A61"/>
</radialGradient>
<radialGradient id="paint7_radial_5998_38" cx="0" cy="0" r="1" gradientUnits="userSpaceOnUse" gradientTransform="translate(189.822 290.267) rotate(-59.4939) scale(22.205 257.76)">
<stop stop-color="#D07480"/>
<stop offset="0.559083" stop-color="#D07480" stop-opacity="0.219296"/>
<stop offset="0.744534" stop-color="#D07480" stop-opacity="0.161874"/>
<stop offset="1" stop-color="#D07480" stop-opacity="0"/>
</radialGradient>
<radialGradient id="paint8_radial_5998_38" cx="0" cy="0" r="1" gradientUnits="userSpaceOnUse" gradientTransform="translate(172.904 270.928) rotate(-43.3625) scale(11.4735 133.186)">
<stop stop-color="#D07480"/>
<stop offset="0.557828" stop-color="#D07480" stop-opacity="0.219296"/>
<stop offset="1" stop-color="#D07480" stop-opacity="0"/>
</radialGradient>
<radialGradient id="paint9_radial_5998_38" cx="0" cy="0" r="1" gradientUnits="userSpaceOnUse" gradientTransform="translate(175.586 258.272) rotate(27.0109) scale(23.6554 5.48213)">
<stop stop-color="#F2C48E"/>
<stop offset="1" stop-color="#F2C48E" stop-opacity="0"/>
</radialGradient>
<radialGradient id="paint10_radial_5998_38" cx="0" cy="0" r="1" gradientUnits="userSpaceOnUse" gradientTransform="translate(172.429 252.536) rotate(-56.849) scale(13.6311 56.9022)">
<stop stop-color="#D07480"/>
<stop offset="0.322015" stop-color="#D07480" stop-opacity="0.259666"/>
<stop offset="0.497134" stop-color="#D07480" stop-opacity="0.04"/>
<stop offset="1" stop-color="#D07480" stop-opacity="0"/>
</radialGradient>
<radialGradient id="paint11_radial_5998_38" cx="0" cy="0" r="1" gradientUnits="userSpaceOnUse" gradientTransform="translate(181.812 258.836) rotate(-51.6377) scale(10.2405 25.1896)">
<stop stop-color="#D07480"/>
<stop offset="0.322015" stop-color="#D07480" stop-opacity="0.259666"/>
<stop offset="0.497134" stop-color="#D07480" stop-opacity="0.04"/>
<stop offset="1" stop-color="#D07480" stop-opacity="0"/>
</radialGradient>
<radialGradient id="paint12_radial_5998_38" cx="0" cy="0" r="1" gradientUnits="userSpaceOnUse" gradientTransform="translate(161.117 242.995) rotate(-23.4247) scale(15.631 70.6802)">
<stop stop-color="#D07480"/>
<stop offset="0.290201" stop-color="#D07480" stop-opacity="0.259666"/>
<stop offset="0.420966" stop-color="#D07480" stop-opacity="0.04"/>
<stop offset="1" stop-color="#D07480" stop-opacity="0"/>
</radialGradient>
<radialGradient id="paint13_radial_5998_38" cx="0" cy="0" r="1" gradientUnits="userSpaceOnUse" gradientTransform="translate(171.245 261.449) rotate(16.5777) scale(26.518 6.14555)">
<stop stop-color="#F2C48E"/>
<stop offset="0.709179" stop-color="#F2C48E" stop-opacity="0.177268"/>
<stop offset="1" stop-color="#F2C48E" stop-opacity="0"/>
</radialGradient>
<radialGradient id="paint14_radial_5998_38" cx="0" cy="0" r="1" gradientUnits="userSpaceOnUse" gradientTransform="translate(157.587 211.914) rotate(5.4809) scale(9.78929 53.7189)">
<stop stop-color="#B07749"/>
<stop offset="0.664814" stop-color="#B07749" stop-opacity="0.287718"/>
<stop offset="0.833333" stop-color="#B07749" stop-opacity="0.107298"/>
<stop offset="1" stop-color="#B07749" stop-opacity="0"/>
</radialGradient>
<radialGradient id="paint15_radial_5998_38" cx="0" cy="0" r="1" gradientUnits="userSpaceOnUse" gradientTransform="translate(157.39 228.648) rotate(-16.2891) scale(7.14563 39.2117)">
<stop stop-color="#B07749"/>
<stop offset="0.533615" stop-color="#B07749" stop-opacity="0.287718"/>
<stop offset="0.833333" stop-color="#B07749" stop-opacity="0.107298"/>
<stop offset="1" stop-color="#B07749" stop-opacity="0"/>
</radialGradient>
<radialGradient id="paint16_radial_5998_38" cx="0" cy="0" r="1" gradientUnits="userSpaceOnUse" gradientTransform="translate(171.207 189.729) rotate(70.7539) scale(16.7703 22.0066)">
<stop stop-color="#F2C48E"/>
<stop offset="0.481511" stop-color="#F2C48E" stop-opacity="0.770711"/>
<stop offset="0.732955" stop-color="#F2C48E" stop-opacity="0.150173"/>
<stop offset="0.907088" stop-color="#F2C48E" stop-opacity="0"/>
</radialGradient>
<linearGradient id="paint17_linear_5998_38" x1="207.703" y1="209.335" x2="184.205" y2="155.686" gradientUnits="userSpaceOnUse">
<stop stop-color="#9F6562"/>
<stop offset="1" stop-color="#BC755B"/>
</linearGradient>
<radialGradient id="paint18_radial_5998_38" cx="0" cy="0" r="1" gradientUnits="userSpaceOnUse" gradientTransform="translate(165.814 184.175) rotate(8.17091) scale(29.2837 11.8936)">
<stop stop-color="#934E4C"/>
<stop offset="1" stop-color="#934E4C" stop-opacity="0"/>
</radialGradient>
<linearGradient id="paint19_linear_5998_38" x1="206.574" y1="220.54" x2="199.9" y2="195.62" gradientUnits="userSpaceOnUse">
<stop stop-color="#9C6361"/>
<stop offset="1" stop-color="#9C6361" stop-opacity="0"/>
</linearGradient>
<radialGradient id="paint20_radial_5998_38" cx="0" cy="0" r="1" gradientUnits="userSpaceOnUse" gradientTransform="translate(68.8976 245.252) rotate(-7.44004) scale(153.794 187.444)">
<stop stop-color="#995E44" stop-opacity="0"/>
<stop offset="0.955438" stop-color="#995E44" stop-opacity="0"/>
<stop offset="0.968729" stop-color="#995E44"/>
<stop offset="0.980177" stop-color="#995E44" stop-opacity="0.360619"/>
<stop offset="0.985975" stop-color="#995E44" stop-opacity="0.207532"/>
<stop offset="0.992365" stop-color="#995E44" stop-opacity="0.0546294"/>
<stop offset="1" stop-color="#995E44" stop-opacity="0"/>
</radialGradient>
<radialGradient id="paint21_radial_5998_38" cx="0" cy="0" r="1" gradientUnits="userSpaceOnUse" gradientTransform="translate(68.8976 245.252) rotate(-7.46589) scale(148.995 186.46)">
<stop stop-color="#995E44" stop-opacity="0"/>
<stop offset="0.955438" stop-color="#995E44" stop-opacity="0"/>
<stop offset="0.968729" stop-color="#995E44"/>
<stop offset="0.980177" stop-color="#995E44" stop-opacity="0.360619"/>
<stop offset="0.985975" stop-color="#995E44" stop-opacity="0.207532"/>
<stop offset="0.992365" stop-color="#995E44" stop-opacity="0.0546294"/>
<stop offset="1" stop-color="#995E44" stop-opacity="0"/>
</radialGradient>
<linearGradient id="paint22_linear_5998_38" x1="190.387" y1="129.06" x2="181.009" y2="162.478" gradientUnits="userSpaceOnUse">
<stop stop-color="#CE8646"/>
<stop offset="0.308437" stop-color="#CE8646"/>
<stop offset="0.54386" stop-color="#CE8646" stop-opacity="0.27"/>
<stop offset="0.715824" stop-color="#CE8646" stop-opacity="0"/>
<stop offset="1" stop-color="#CE8646" stop-opacity="0"/>
</linearGradient>
<radialGradient id="paint23_radial_5998_38" cx="0" cy="0" r="1" gradientUnits="userSpaceOnUse" gradientTransform="translate(150.716 217.388) rotate(-12.0685) scale(91.4474 109.285)">
<stop stop-color="#B07749" stop-opacity="0"/>
<stop offset="0.922379" stop-color="#B07749" stop-opacity="0"/>
<stop offset="0.938682" stop-color="#B07749" stop-opacity="0.085242"/>
<stop offset="0.952942" stop-color="#B07749" stop-opacity="0.303401"/>
<stop offset="0.986331" stop-color="#B07749"/>
</radialGradient>
<radialGradient id="paint24_radial_5998_38" cx="0" cy="0" r="1" gradientUnits="userSpaceOnUse" gradientTransform="translate(167.745 142.588) rotate(-4.30573) scale(4.73832 54.2305)">
<stop stop-color="#B07749"/>
<stop offset="0.534456" stop-color="#B07749" stop-opacity="0.27444"/>
<stop offset="1" stop-color="#B07749" stop-opacity="0"/>
</radialGradient>
<radialGradient id="paint25_radial_5998_38" cx="0" cy="0" r="1" gradientUnits="userSpaceOnUse" gradientTransform="translate(168.256 114.071) rotate(68.1961) scale(15.5145 7.49669)">
<stop stop-color="#EFA86F"/>
<stop offset="1" stop-color="#E39C62" stop-opacity="0"/>
</radialGradient>
<linearGradient id="paint26_linear_5998_38" x1="191.524" y1="175.492" x2="197.48" y2="342.732" gradientUnits="userSpaceOnUse">
<stop offset="0.00558659" stop-color="#D38750"/>
<stop offset="1" stop-color="#EEA374"/>
</linearGradient>
<linearGradient id="paint27_linear_5998_38" x1="154.138" y1="52.3155" x2="214.402" y2="273.306" gradientUnits="userSpaceOnUse">
<stop stop-color="#D77D2C"/>
<stop offset="1" stop-color="#D77D2C" stop-opacity="0"/>
</linearGradient>
<radialGradient id="paint28_radial_5998_38" cx="0" cy="0" r="1" gradientUnits="userSpaceOnUse" gradientTransform="translate(102.977 242.083) rotate(-8.16638) scale(114.028 163.37)">
<stop stop-color="#FAAD7C" stop-opacity="0"/>
<stop offset="0.961329" stop-color="#FAAD7C" stop-opacity="0"/>
<stop offset="0.981307" stop-color="#FAAD7C"/>
<stop offset="0.995115" stop-color="#FAAD7C" stop-opacity="0.12"/>
<stop offset="1" stop-color="#FAAD7C" stop-opacity="0"/>
</radialGradient>
<radialGradient id="paint29_radial_5998_38" cx="0" cy="0" r="1" gradientUnits="userSpaceOnUse" gradientTransform="translate(182.639 142.445) rotate(55.4221) scale(100.418 89.6781)">
<stop stop-color="#D38750"/>
<stop offset="0.723831" stop-color="#D38750" stop-opacity="0.575789"/>
<stop offset="1" stop-color="#D38750" stop-opacity="0"/>
</radialGradient>
<radialGradient id="paint30_radial_5998_38" cx="0" cy="0" r="1" gradientUnits="userSpaceOnUse" gradientTransform="translate(150.999 235.248) rotate(-7.27352) scale(67.2065 131.967)">
<stop stop-color="#AE7145" stop-opacity="0"/>
<stop offset="0.954853" stop-color="#AE7145" stop-opacity="0"/>
<stop offset="0.965823" stop-color="#AE7145" stop-opacity="0.234332"/>
<stop offset="0.987806" stop-color="#AE7145"/>
</radialGradient>
<radialGradient id="paint31_radial_5998_38" cx="0" cy="0" r="1" gradientUnits="userSpaceOnUse" gradientTransform="translate(203.805 329.354) rotate(-79.5171) scale(3.85332 11.2018)">
<stop stop-color="#D07480"/>
<stop offset="1" stop-color="#D07480" stop-opacity="0"/>
</radialGradient>
<radialGradient id="paint32_radial_5998_38" cx="0" cy="0" r="1" gradientUnits="userSpaceOnUse" gradientTransform="translate(140.753 240.24) rotate(-5.82198) scale(73.426 135.573)">
<stop stop-color="#D86443" stop-opacity="0"/>
<stop offset="0.969001" stop-color="#D86443"/>
<stop offset="0.988258" stop-color="#D86443" stop-opacity="0.443584"/>
<stop offset="0.999307" stop-color="#D86443" stop-opacity="0"/>
<stop offset="1" stop-color="#D86443" stop-opacity="0"/>
</radialGradient>
<radialGradient id="paint33_radial_5998_38" cx="0" cy="0" r="1" gradientUnits="userSpaceOnUse" gradientTransform="translate(190.609 172.265) rotate(-20.4808) scale(8.42607 42.3464)">
<stop stop-color="#BB3CCF"/>
<stop offset="1" stop-color="#BB3CCF" stop-opacity="0"/>
</radialGradient>
<radialGradient id="paint34_radial_5998_38" cx="0" cy="0" r="1" gradientUnits="userSpaceOnUse" gradientTransform="translate(183.232 138.158) rotate(59.3892) scale(4.74253 3.52221)">
<stop stop-color="#F3A963"/>
<stop offset="1" stop-color="#F3A963" stop-opacity="0"/>
</radialGradient>
<linearGradient id="paint35_linear_5998_38" x1="108.792" y1="177.162" x2="107.213" y2="266.733" gradientUnits="userSpaceOnUse">
<stop stop-color="#FFBD61"/>
<stop offset="1" stop-color="#EB5C74"/>
</linearGradient>
<linearGradient id="paint36_linear_5998_38" x1="103.287" y1="142.712" x2="103.05" y2="156.177" gradientUnits="userSpaceOnUse">
<stop stop-color="#C76C38" stop-opacity="0.78"/>
<stop offset="0.596593" stop-color="#C76C38" stop-opacity="0.135201"/>
<stop offset="1" stop-color="#C76C38" stop-opacity="0"/>
</linearGradient>
<linearGradient id="paint37_linear_5998_38" x1="89.5096" y1="194.371" x2="87.9515" y2="282.748" gradientUnits="userSpaceOnUse">
<stop stop-color="#FFA547"/>
<stop offset="1" stop-color="#F14B49"/>
</linearGradient>
<linearGradient id="paint38_linear_5998_38" x1="90.3474" y1="146.848" x2="89.2377" y2="209.792" gradientUnits="userSpaceOnUse">
<stop stop-color="#DF9844"/>
<stop offset="1" stop-color="#DF9844" stop-opacity="0"/>
</linearGradient>
<radialGradient id="paint39_radial_5998_38" cx="0" cy="0" r="1" gradientUnits="userSpaceOnUse" gradientTransform="translate(101.354 176.791) rotate(91.01) scale(36.7312 8.01408)">
<stop stop-color="#FE9052"/>
<stop offset="1" stop-color="#FE9052" stop-opacity="0"/>
</radialGradient>
<linearGradient id="paint40_linear_5998_38" x1="78.3501" y1="178.938" x2="81.5072" y2="180.944" gradientUnits="userSpaceOnUse">
<stop stop-color="#C76C38"/>
<stop offset="0.729244" stop-color="#C76C38" stop-opacity="0.135201"/>
<stop offset="1" stop-color="#C76C38" stop-opacity="0"/>
</linearGradient>
<radialGradient id="paint41_radial_5998_38" cx="0" cy="0" r="1" gradientUnits="userSpaceOnUse" gradientTransform="translate(101.704 175.615) rotate(91.01) scale(49.1581 19.9641)">
<stop stop-color="#FFB54B"/>
<stop offset="0.452058" stop-color="#FFB54B" stop-opacity="0.767787"/>
<stop offset="0.666597" stop-color="#FFB54B" stop-opacity="0.425441"/>
<stop offset="0.878406" stop-color="#FFB54B" stop-opacity="0.0875269"/>
<stop offset="1" stop-color="#FFB54B" stop-opacity="0"/>
</radialGradient>
<radialGradient id="paint42_radial_5998_38" cx="0" cy="0" r="1" gradientUnits="userSpaceOnUse" gradientTransform="translate(117.969 209.229) rotate(91.01) scale(16.1173 36.4131)">
<stop stop-color="#FFB54B"/>
<stop offset="0.352008" stop-color="#FFB54B" stop-opacity="0.425441"/>
<stop offset="0.745956" stop-color="#FFB54B" stop-opacity="0.10675"/>
<stop offset="1" stop-color="#FFB54B" stop-opacity="0"/>
</radialGradient>
<linearGradient id="paint43_linear_5998_38" x1="106.347" y1="254.261" x2="104.36" y2="252.989" gradientUnits="userSpaceOnUse">
<stop stop-color="#F76E56"/>
<stop offset="0.536961" stop-color="#F76E56" stop-opacity="0.255981"/>
<stop offset="1" stop-color="#F76E56" stop-opacity="0"/>
</linearGradient>
<radialGradient id="paint44_radial_5998_38" cx="0" cy="0" r="1" gradientUnits="userSpaceOnUse" gradientTransform="translate(101.114 210.83) rotate(-178.99) scale(3.2729)">
<stop stop-color="#F76E56"/>
<stop offset="0.536961" stop-color="#F76E56" stop-opacity="0.255981"/>
<stop offset="0.736799" stop-color="#F76E56" stop-opacity="0.109481"/>
<stop offset="1" stop-color="#F76E56" stop-opacity="0"/>
</radialGradient>
<radialGradient id="paint45_radial_5998_38" cx="0" cy="0" r="1" gradientUnits="userSpaceOnUse" gradientTransform="translate(100.775 204.433) rotate(-178.99) scale(3.26591 9.57656)">
<stop stop-color="#F76E56"/>
<stop offset="0.536961" stop-color="#F76E56" stop-opacity="0.255981"/>
<stop offset="0.736799" stop-color="#F76E56" stop-opacity="0.109481"/>
<stop offset="1" stop-color="#F76E56" stop-opacity="0"/>
</radialGradient>
<radialGradient id="paint46_radial_5998_38" cx="0" cy="0" r="1" gradientUnits="userSpaceOnUse" gradientTransform="translate(100.712 208.017) rotate(-178.99) scale(2.42951 3.38539)">
<stop stop-color="#F76E56"/>
<stop offset="0.536961" stop-color="#F76E56" stop-opacity="0.255981"/>
<stop offset="0.736799" stop-color="#F76E56" stop-opacity="0.109481"/>
<stop offset="1" stop-color="#F76E56" stop-opacity="0"/>
</radialGradient>
<radialGradient id="paint47_radial_5998_38" cx="0" cy="0" r="1" gradientUnits="userSpaceOnUse" gradientTransform="translate(101.659 187.508) rotate(-178.99) scale(2.09507 16.0622)">
<stop stop-color="#F76E56"/>
<stop offset="0.536961" stop-color="#F76E56" stop-opacity="0.255981"/>
<stop offset="0.736799" stop-color="#F76E56" stop-opacity="0.109481"/>
<stop offset="1" stop-color="#F76E56" stop-opacity="0"/>
</radialGradient>
<radialGradient id="paint48_radial_5998_38" cx="0" cy="0" r="1" gradientUnits="userSpaceOnUse" gradientTransform="translate(101.363 195.938) rotate(-178.99) scale(3.30554 15.0021)">
<stop stop-color="#F76E56"/>
<stop offset="0.536961" stop-color="#F76E56" stop-opacity="0.255981"/>
<stop offset="0.736799" stop-color="#F76E56" stop-opacity="0.109481"/>
<stop offset="1" stop-color="#F76E56" stop-opacity="0"/>
</radialGradient>
<radialGradient id="paint49_radial_5998_38" cx="0" cy="0" r="1" gradientUnits="userSpaceOnUse" gradientTransform="translate(101.575 174.564) rotate(-178.99) scale(3.27962 39.4866)">
<stop stop-color="#F76E56"/>
<stop offset="0.536961" stop-color="#F76E56" stop-opacity="0.255981"/>
<stop offset="0.736799" stop-color="#F76E56" stop-opacity="0.109481"/>
<stop offset="1" stop-color="#F76E56" stop-opacity="0"/>
</radialGradient>
<radialGradient id="paint50_radial_5998_38" cx="0" cy="0" r="1" gradientUnits="userSpaceOnUse" gradientTransform="translate(103.993 212.104) rotate(91.01) scale(3.68035 6.8086)">
<stop stop-color="#F76E56"/>
<stop offset="0.536961" stop-color="#F76E56" stop-opacity="0.255981"/>
<stop offset="0.736799" stop-color="#F76E56" stop-opacity="0.109481"/>
<stop offset="1" stop-color="#F76E56" stop-opacity="0"/>
</radialGradient>
<radialGradient id="paint51_radial_5998_38" cx="0" cy="0" r="1" gradientUnits="userSpaceOnUse" gradientTransform="translate(107.122 212.188) rotate(91.01) scale(2.72403 5.03942)">
<stop stop-color="#F76E56"/>
<stop offset="0.536961" stop-color="#F76E56" stop-opacity="0.255981"/>
<stop offset="0.736799" stop-color="#F76E56" stop-opacity="0.109481"/>
<stop offset="1" stop-color="#F76E56" stop-opacity="0"/>
</radialGradient>
<radialGradient id="paint52_radial_5998_38" cx="0" cy="0" r="1" gradientUnits="userSpaceOnUse" gradientTransform="translate(114.274 211.904) rotate(91.01) scale(2.83303 5.24107)">
<stop stop-color="#F76E56"/>
<stop offset="0.536961" stop-color="#F76E56" stop-opacity="0.255981"/>
<stop offset="0.736799" stop-color="#F76E56" stop-opacity="0.109481"/>
<stop offset="1" stop-color="#F76E56" stop-opacity="0"/>
</radialGradient>
<radialGradient id="paint53_radial_5998_38" cx="0" cy="0" r="1" gradientUnits="userSpaceOnUse" gradientTransform="translate(110.688 212.343) rotate(91.01) scale(2.86973 5.30896)">
<stop stop-color="#F76E56"/>
<stop offset="0.536961" stop-color="#F76E56" stop-opacity="0.255981"/>
<stop offset="0.736799" stop-color="#F76E56" stop-opacity="0.109481"/>
<stop offset="1" stop-color="#F76E56" stop-opacity="0"/>
</radialGradient>
<radialGradient id="paint54_radial_5998_38" cx="0" cy="0" r="1" gradientUnits="userSpaceOnUse" gradientTransform="translate(119.927 212.463) rotate(91.01) scale(3.56135 17.4676)">
<stop stop-color="#F76E56"/>
<stop offset="0.536961" stop-color="#F76E56" stop-opacity="0.255981"/>
<stop offset="0.736799" stop-color="#F76E56" stop-opacity="0.109481"/>
<stop offset="1" stop-color="#F76E56" stop-opacity="0"/>
</radialGradient>
<radialGradient id="paint55_radial_5998_38" cx="0" cy="0" r="1" gradientUnits="userSpaceOnUse" gradientTransform="translate(128.726 212.509) rotate(91.01) scale(2.87046 14.0789)">
<stop stop-color="#F76E56"/>
<stop offset="0.536961" stop-color="#F76E56" stop-opacity="0.255981"/>
<stop offset="0.736799" stop-color="#F76E56" stop-opacity="0.109481"/>
<stop offset="1" stop-color="#F76E56" stop-opacity="0"/>
</radialGradient>
<radialGradient id="paint56_radial_5998_38" cx="0" cy="0" r="1" gradientUnits="userSpaceOnUse" gradientTransform="translate(50.0985 234.292) rotate(-88.99) scale(4.73665 25.499)">
<stop stop-color="#C76C38"/>
<stop offset="0.729244" stop-color="#C76C38" stop-opacity="0.135201"/>
<stop offset="1" stop-color="#C76C38" stop-opacity="0"/>
</radialGradient>
<radialGradient id="paint57_radial_5998_38" cx="0" cy="0" r="1" gradientUnits="userSpaceOnUse" gradientTransform="translate(46.3924 232.178) rotate(-34.6837) scale(4.60845 24.8088)">
<stop stop-color="#C76C38"/>
<stop offset="0.729244" stop-color="#C76C38" stop-opacity="0.135201"/>
<stop offset="1" stop-color="#C76C38" stop-opacity="0"/>
</radialGradient>
<radialGradient id="paint58_radial_5998_38" cx="0" cy="0" r="1" gradientUnits="userSpaceOnUse" gradientTransform="translate(67.2032 234.599) rotate(-88.99) scale(4.74908 11.6632)">
<stop stop-color="#C76C38"/>
<stop offset="0.74702" stop-color="#C76C38" stop-opacity="0.135201"/>
<stop offset="1" stop-color="#C76C38" stop-opacity="0"/>
</radialGradient>
<radialGradient id="paint59_radial_5998_38" cx="0" cy="0" r="1" gradientUnits="userSpaceOnUse" gradientTransform="translate(60.0358 234.271) rotate(-88.99) scale(3.96253 9.73152)">
<stop stop-color="#C76C38"/>
<stop offset="0.74702" stop-color="#C76C38" stop-opacity="0.135201"/>
<stop offset="1" stop-color="#C76C38" stop-opacity="0"/>
</radialGradient>
<radialGradient id="paint60_radial_5998_38" cx="0" cy="0" r="1" gradientUnits="userSpaceOnUse" gradientTransform="translate(51.9073 234.311) rotate(-88.99) scale(4.2602 10.4625)">
<stop stop-color="#C76C38"/>
<stop offset="0.74702" stop-color="#C76C38" stop-opacity="0.135201"/>
<stop offset="1" stop-color="#C76C38" stop-opacity="0"/>
</radialGradient>
<radialGradient id="paint61_radial_5998_38" cx="0" cy="0" r="1" gradientUnits="userSpaceOnUse" gradientTransform="translate(73.1938 236.251) rotate(-50.2158) scale(5.54065 5.92711)">
<stop stop-color="#C76C38"/>
<stop offset="0.74702" stop-color="#C76C38" stop-opacity="0.135201"/>
<stop offset="1" stop-color="#C76C38" stop-opacity="0"/>
</radialGradient>
<radialGradient id="paint62_radial_5998_38" cx="0" cy="0" r="1" gradientUnits="userSpaceOnUse" gradientTransform="translate(75.2907 240.042) rotate(1.01002) scale(3.77401 6.81516)">
<stop stop-color="#C76C38"/>
<stop offset="0.74702" stop-color="#C76C38" stop-opacity="0.135201"/>
<stop offset="1" stop-color="#C76C38" stop-opacity="0"/>
</radialGradient>
<radialGradient id="paint63_radial_5998_38" cx="0" cy="0" r="1" gradientUnits="userSpaceOnUse" gradientTransform="translate(75.1984 248.966) rotate(1.01002) scale(4.16799 19.0953)">
<stop stop-color="#C76C38"/>
<stop offset="0.74702" stop-color="#C76C38" stop-opacity="0.135201"/>
<stop offset="1" stop-color="#C76C38" stop-opacity="0"/>
</radialGradient>
<radialGradient id="paint64_radial_5998_38" cx="0" cy="0" r="1" gradientUnits="userSpaceOnUse" gradientTransform="translate(74.7928 264.023) rotate(1.01002) scale(4.08013 26.7319)">
<stop stop-color="#C76C38"/>
<stop offset="0.74702" stop-color="#C76C38" stop-opacity="0.135201"/>
<stop offset="1" stop-color="#C76C38" stop-opacity="0"/>
</radialGradient>
<radialGradient id="paint65_radial_5998_38" cx="0" cy="0" r="1" gradientUnits="userSpaceOnUse" gradientTransform="translate(74.4555 283.154) rotate(1.01002) scale(4.50221 29.4973)">
<stop stop-color="#C76C38"/>
<stop offset="0.74702" stop-color="#C76C38" stop-opacity="0.135201"/>
<stop offset="1" stop-color="#C76C38" stop-opacity="0"/>
</radialGradient>
<clipPath id="clip0_5998_38">
<rect width="178.789" height="178.789" fill="white" transform="matrix(-0.814117 -0.580701 -0.580701 0.814117 312.875 202)"/>
</clipPath>
</defs>
</svg>
