<?xml version="1.0" encoding="UTF-8"?>
<svg id="Layer_1" data-name="Layer 1" xmlns="http://www.w3.org/2000/svg" viewBox="0 0 353.85 97.11">
  <defs>
    <style>
      .cls-1 {
        fill: #000;
      }
    </style>
  </defs>
  <g>
    <path class="cls-1" d="M175.65,48.32c-1.97-1.25-4.25-1.87-6.85-1.87s-5.12,.58-7.28,1.73c-.94,.49-1.77,1.09-2.52,1.77v-2.77h-11.03v35.03h11.03v-19.96c0-1.2,.26-2.26,.79-3.17,.53-.96,1.25-1.68,2.16-2.16,.91-.53,1.97-.79,3.17-.79,1.73,0,3.15,.58,4.25,1.73,1.15,1.11,1.73,2.57,1.73,4.4v19.96h10.42v-22.42c0-2.4,.03-4.61-1.12-6.63-1.15-2.02-2.74-3.63-4.76-4.83Z"/>
    <path class="cls-1" d="M131.96,48.75c-2.64-1.49-5.69-2.23-9.15-2.23s-6.75,.79-9.59,2.38c-2.83,1.59-5.09,3.77-6.77,6.56-1.63,2.74-2.45,5.86-2.45,9.37s.84,6.66,2.52,9.44c1.68,2.79,3.99,4.97,6.92,6.56,2.98,1.54,6.37,2.31,10.16,2.31,2.93,0,5.62-.5,8.07-1.51,2.45-1.01,4.54-2.52,6.27-4.54l-6.05-6.05c-1.06,1.2-2.28,2.11-3.68,2.74-1.39,.58-2.96,.87-4.68,.87-1.87,0-3.51-.38-4.9-1.15-1.35-.82-2.4-1.95-3.17-3.39-.24-.5-.43-1.04-.59-1.6l25.09-.06c.19-.91,.31-1.71,.36-2.38,.1-.72,.14-1.39,.14-2.02,0-3.41-.77-6.44-2.31-9.08-1.49-2.64-3.56-4.71-6.2-6.2Zm-13.62,7.42c1.3-.82,2.81-1.23,4.54-1.23,1.63,0,3,.36,4.11,1.08,1.15,.67,2.02,1.68,2.59,3.03,.24,.54,.42,1.15,.57,1.82l-15.28,.04c.14-.5,.31-.98,.51-1.43,.72-1.44,1.71-2.55,2.96-3.32Z"/>
    <path class="cls-1" d="M90.01,48.96c-2.55-1.59-5.48-2.38-8.79-2.38-2.35,0-4.52,.48-6.49,1.44-.98,.48-1.87,1.04-2.67,1.7v-2.42h-11.03v49.8h10.88v-17.16c.84,.67,1.77,1.25,2.81,1.73,1.97,.91,4.13,1.37,6.49,1.37,3.32,0,6.25-.79,8.79-2.38,2.59-1.59,4.61-3.75,6.05-6.49,1.49-2.74,2.23-5.86,2.23-9.37s-.74-6.63-2.23-9.37c-1.44-2.74-3.46-4.9-6.05-6.49Zm-3.89,20.11c-.67,1.25-1.61,2.23-2.81,2.96-1.15,.72-2.52,1.08-4.11,1.08-1.49,0-2.83-.36-4.04-1.08-1.2-.72-2.14-1.71-2.81-2.96-.62-1.25-.94-2.67-.94-4.25s.34-3.08,1.01-4.32c.67-1.25,1.59-2.21,2.74-2.88,1.2-.72,2.57-1.08,4.11-1.08s2.88,.36,4.04,1.08c1.2,.67,2.14,1.63,2.81,2.88,.67,1.25,1.01,2.69,1.01,4.32s-.34,3-1.01,4.25Z"/>
    <path class="cls-1" d="M45.77,38.81c-2.4-2.4-5.24-4.25-8.5-5.55-3.22-1.35-6.73-2.02-10.52-2.02s-7.4,.67-10.67,2.02c-3.22,1.3-6.03,3.15-8.43,5.55-2.4,2.35-4.28,5.12-5.62,8.29C.67,50.27,0,53.73,0,57.47s.67,7.16,2.02,10.38c1.35,3.17,3.24,5.96,5.69,8.36,2.45,2.4,5.29,4.28,8.5,5.62,3.27,1.35,6.82,2.02,10.67,2.02s7.23-.67,10.45-2.02c3.27-1.35,6.1-3.19,8.5-5.55,2.4-2.4,4.28-5.19,5.62-8.36,1.35-3.22,2.02-6.68,2.02-10.38s-.67-7.21-2.02-10.38c-1.35-3.22-3.24-6.01-5.69-8.36Zm-5.77,27.1c-1.25,2.4-3.03,4.28-5.33,5.62-2.26,1.35-4.9,2.02-7.93,2.02-2.26,0-4.32-.38-6.2-1.15-1.87-.77-3.48-1.85-4.83-3.24-1.3-1.44-2.31-3.15-3.03-5.12-.72-1.97-1.08-4.16-1.08-6.56,0-3.22,.62-6.01,1.87-8.36,1.25-2.4,3-4.25,5.26-5.55,2.31-1.35,4.97-2.02,8-2.02,2.26,0,4.3,.38,6.13,1.15,1.87,.72,3.48,1.8,4.83,3.24,1.35,1.39,2.38,3.08,3.1,5.05,.72,1.92,1.08,4.08,1.08,6.49,0,3.17-.62,5.98-1.87,8.43Z"/>
    <path class="cls-1" d="M315.46,47.27v20.18c0,1.83-.48,3.27-1.44,4.32-.96,1.01-2.26,1.51-3.89,1.51-1.15,0-2.14-.24-2.96-.72-.82-.48-1.44-1.15-1.87-2.02-.38-.87-.58-1.9-.58-3.1v-20.18h-11.03v20.33c0,3.03,.7,5.72,2.09,8.07,1.39,2.31,3.32,4.13,5.77,5.48,2.5,1.3,5.36,1.95,8.58,1.95s6.05-.65,8.5-1.95c2.45-1.35,4.37-3.17,5.77-5.48,1.39-2.35,2.09-5.07,2.09-8.14v-20.25h-11.03Z"/>
    <path class="cls-1" d="M278.32,43.89c0-1.49,.43-2.67,1.3-3.53,.86-.86,2.04-1.3,3.53-1.3,.82,0,1.51,.14,2.09,.43,.62,.24,1.18,.6,1.66,1.08l6.92-6.92c-1.35-1.39-2.93-2.47-4.76-3.24-1.78-.82-3.87-1.23-6.27-1.23-3.17,0-5.91,.67-8.22,2.02-2.31,1.3-4.11,3.1-5.41,5.41-1.25,2.26-1.87,4.8-1.87,7.64v3.03h-7.71v9.37h7.71v25.66h11.03v-25.66h10.09v-9.37h-10.09v-3.39Z"/>
    <path class="cls-1" d="M245.39,48.83c-2.88-1.59-6.15-2.38-9.8-2.38s-6.92,.82-9.8,2.45c-2.88,1.59-5.16,3.75-6.85,6.49-1.68,2.74-2.52,5.84-2.52,9.3s.84,6.58,2.52,9.37c1.68,2.79,3.96,5,6.85,6.63,2.93,1.59,6.2,2.38,9.8,2.38s6.92-.79,9.8-2.38c2.88-1.63,5.17-3.84,6.85-6.63,1.68-2.79,2.52-5.91,2.52-9.37s-.84-6.56-2.52-9.3c-1.68-2.79-3.96-4.97-6.85-6.56Zm-2.88,20.25c-.62,1.25-1.54,2.23-2.74,2.96-1.2,.67-2.59,1.01-4.18,1.01s-2.91-.34-4.11-1.01c-1.2-.72-2.14-1.71-2.81-2.96-.67-1.3-1.01-2.74-1.01-4.32s.34-3.08,1.01-4.32c.67-1.25,1.61-2.21,2.81-2.88,1.2-.72,2.57-1.08,4.11-1.08s2.96,.36,4.11,1.08c1.2,.67,2.14,1.63,2.81,2.88,.67,1.2,1.01,2.62,1.01,4.25s-.34,3.1-1.01,4.4Z"/>
    <polygon class="cls-1" points="221.9 41.11 221.9 31.24 179.22 31.24 179.22 41.11 195.15 41.11 195.15 82.12 206.46 82.12 206.46 41.11 221.9 41.11"/>
  </g>
  <g>
    <path class="cls-1" d="M352.36,9.21l-1.86-1.02s-.03-.02-.04-.02l-14.2-7.81c-.86-.47-1.91-.47-2.77,0l-14.2,7.81s-.02,.01-.03,.02l-1.87,1.03c-.92,.51-1.49,1.47-1.49,2.52V29.28c0,1.05,.57,2.02,1.49,2.52l14.34,7.88s.04,.02,.06,.03l1.71,.94c.86,.47,1.91,.47,2.77,0l1.72-.94s.03-.02,.05-.03l14.34-7.88c.92-.51,1.49-1.47,1.49-2.52V11.73c0-1.05-.57-2.02-1.49-2.52Zm-18.6,13.17v14.79h0v.02c0,.1-.04,.19-.08,.27,0,.01,0,.03-.01,.05-.06,.1-.14,.18-.23,.23,0,0-.01,0-.02,0-.09,.05-.19,.08-.3,.09-.03,0-.06-.02-.1-.02-.07,0-.15,0-.22-.05l-3.58-1.97-10.79-5.93c-.21-.12-.34-.34-.34-.58V13.67h0c0-.51,.54-.83,.98-.58l14.34,7.88c.21,.12,.34,.34,.34,.58v.83Zm15.89-11.37s-.04,.03-.05,.05c-.05,.07-.1,.14-.19,.19l-13.43,7.38h0s-.79,.43-.79,.43c-.2,.11-.44,.11-.64,0l-.79-.43h0s-13.43-7.38-13.43-7.38c-.07-.04-.12-.11-.17-.17-.02-.03-.06-.05-.08-.08-.04-.08-.06-.17-.07-.26,0-.07,0-.13,.01-.19,.01-.07,.02-.14,.05-.2,.02-.04,.07-.07,.11-.11,.04-.05,.07-.1,.13-.14h.01s0,0,0-.01l14.2-7.81c.2-.11,.44-.11,.64,0l14.2,7.81s0,0,0,0h.02c.07,.05,.11,.11,.15,.17,.03,.03,.07,.05,.09,.09,.11,.2,.11,.45,0,.65Z"/>
    <path class="cls-1" d="M322.58,23.14c-.93-.49-1.74-.04-1.82,1.01,0,0,0,.01,0,.02l3.36,1.77s0-.01,0-.02c.08-1.05-.61-2.29-1.54-2.78Z"/>
    <path class="cls-1" d="M327.87,26.2c-.93-.49-1.74-.04-1.82,1.01,0,0,0,.01,0,.02l3.36,1.77s0-.01,0-.02c.08-1.05-.61-2.29-1.54-2.78Z"/>
  </g>
</svg>
