<svg xmlns="http://www.w3.org/2000/svg" role="img" viewBox="-29.10 -31.10 1721.20 394.20"><path fill="#000" d="M647 330.31429c-.825-.34835-10.13265-5.72311-20.68366-11.94393-10.55101-6.22081-28.55101-16.77003-40-23.4427-11.44899-6.67267-31.39134-18.3128-44.31634-25.86695-12.925-7.55415-25.64084-14.95407-28.25741-16.44427-8.90667-5.07252-8.20622 1.81961-8.5227-83.85941-.26707-72.29955-.19283-76.0287 1.59341-80.04474 2.06906-4.6519.68998-3.74853 49.1867-32.21955 41.13657-24.15008 57.16024-33.59596 70.70659-41.6812C645.1136 3.8252 650.28523 1.55518 653.97632 2.8419c1.60352.559 21.95234 12.12852 45.21959 25.71006 86.03128 50.21812 94.80417 55.54751 96.34566 58.52843C796.7829 89.48086 797 101.51063 797 167.89458v77.99389l-2.25 2.55648c-1.86628 2.12049-66.90394 40.78736-124.15534 73.81413-13.6249 7.85983-19.39333 9.82917-23.59466 8.05521zm-10.13446-84.65228c1.32904-1.60139 3.69534-9.21145 17.66545-56.81244 5.8674-19.99226 14.63175-49.62457 19.47633-65.84957 6.69422-22.41963 8.53043-29.78384 7.6505-30.68259C680.20056 90.82898 667.39406 86 664.90399 86c-1.02183 0-2.4808 1.0125-3.24214 2.25-.76135 1.2375-4.79895 13.95-8.97245 28.25-36.03081 123.4553-35.84203 122.77627-34.50136 124.10164 1.43126 1.41494 13.31631 6.10083 15.93952 6.28444.89515.0627 2.12725-.48818 2.73798-1.22407zM709.5 210.64304c4.4-3.35977 17.7875-13.89519 29.75-23.41206 26.3316-20.94833 26.24903-20.76565 13.75-30.41977-2.475-1.91166-15.075-11.80367-28-21.98224-28.53224-22.46943-27.48602-21.77152-29.54715-19.71039-2.466 2.466-2.43509 20.13858.04 22.87352.99815 1.10295 9.38387 7.74343 18.63494 14.75663 9.25106 7.0132 16.83184 12.99252 16.84616 13.28738.0143.29486-7.62623 6.72668-16.97903 14.29293-9.35279 7.56625-17.71689 14.84319-18.58689 16.17098-2.33277 3.56025-2.20706 19.44255.16763 21.17896 2.16496 1.58306 3.55978.87825 13.92434-7.03594zM608.8 216.8c1.8826-1.8826 1.58142-17.81043-.38999-20.62502-.8745-1.24852-9.41873-8.52972-18.98718-16.18045l-17.39718-13.91041 16.07226-12.22033c23.88754-18.16258 22.02851-15.76744 21.6878-27.94204-.36633-13.08993-1.39464-14.09141-8.59175-8.3676-2.72883 2.17022-15.02631 11.82085-27.32773 21.44585C550.0716 157.61762 542 164.77232 542 167.24636c0 .84264.7875 2.41972 1.75 3.50463 1.49484 1.68494 31.04492 24.88837 53.55977 42.05642 6.93667 5.28935 9.35363 6.12919 11.49023 3.99259zM172 312.63121c-10.175-3.52533-37.4-13.16817-60.5-21.42853-23.1-8.26035-54.71623-19.55057-70.2583-25.08936-15.54206-5.5388-29.57724-10.75259-31.1893-11.58622C3.61959 251.20056 4 256.76953 4 165.92538V83.29577l2.28005-3.38337c2.14343-3.18063 4.46523-4.16657 38.75-16.4549 89.18137-31.96435 144.59829-51.47967 146.15462-51.46903 2.60119.0178 26.06151 8.53854 98.31533 35.7079 15.4 5.79082 35.14824 13.19478 43.88499 16.45325 20.88165 7.78807 22.25523 8.5579 21.05838 11.80237-1.21555 3.29518-11.84698 17.01298-12.44071 16.05232-.77009-1.24603-6.13129-3.35048-51.00266-20.02024-18.975-7.04923-45.47626-16.90442-58.89169-21.90042C218.69288 45.08765 207.33038 41 206.85831 41 206.38518 41 206 96.64703 206 165c0 93.44995.28598 124 1.16078 124 .63842 0 20.10092-7.02553 43.25-15.6123 50.84927-18.86169 84.44909-31.06344 87.97786-31.94911L341 240.78318v10.15387c0 9.19863-.21167 10.36488-2.25 12.39699-2.15979 2.15319-11.26994 5.72404-66.75 26.16361-12.925 4.76173-35.425 13.09658-50 18.52187-14.575 5.4253-27.625 10.12455-29 10.44278-1.66026.38426-8.71404-1.57437-21-5.83109zm9.69245-272.2721c-.31293-.31292-24.60383 7.93742-34.19245 11.61337-2.75 1.05426-10.4 3.77616-17 6.04867-6.6 2.2725-16.275 5.65693-21.5 7.52094-5.225 1.864-23.9 8.40359-41.5 14.5324-17.6 6.12882-33.9125 11.8116-36.25 12.62841L27 94.188v143.67722l2.25.66684c2.81883.83543 29.04187 9.87585 37.75 13.01436 3.575 1.28847 20.9 7.36999 38.5 13.51449 17.6 6.1445 38.975 13.6345 47.5 16.64444 8.525 3.00995 18.425 6.48679 22 7.72633l6.5 2.25369.25388-125.50548c.13963-69.028.11198-125.64736-.0614-125.82078zm-38.02315 212.5954c-1.43022-1.12501-3.0634-3.71251-3.62928-5.75-1.44815-5.21416-1.42302-160.06346.0266-163.88941 2.30674-6.08816 8.47653-9.54704 13.93774-7.81372 5.00306 1.5879 4.99565 1.45625 4.99565 88.81728 0 55.45313-.34245 82.36526-1.07482 84.46613-2.08383 5.97766-9.28118 8.08282-14.25588 4.16972zm-43.20742-11.23364c-1.69816-1.4607-2.9594-3.88462-3.51221-6.75-1.2214-6.33075-1.19313-132.63519.03063-136.9022C98.49572 92.78475 102.67568 89 106.99596 89c5.51515 0 7.25991 1.85623 8.1027 8.62043.90172 7.23708 1.12753 128.85168.25278 136.13447-.80666 6.71582-3.82018 10.2451-8.74793 10.2451-2.19283 0-4.47776-.84793-6.14163-2.27913zm-42.7119-11.80098C53.05732 227.18667 53 226.4578 53 169.51754c0-57.54619.06641-58.34936 5.11687-61.88685 2.38696-1.67189 6.46371-2.1126 9.33833-1.00951C71.8918 108.32367 72 109.7967 72 168.5s-.10819 60.17633-4.5448 61.87882c-2.44731.93912-7.73413.68912-9.70522-.45893zM357 236.55671v-18.44329l28.25-25.71508c44.89055-40.86246 51.00539-47.25937 56.53062-59.13832 7.52899-16.18692-.72851-32.98515-17.83919-36.29025-7.48032-1.4449-13.84652-.37814-20.12176 3.37173-6.1634 3.68303-11.34938 11.33955-12.39261 18.29631L390.77291 123h-35.0491l.67345-6.57323c3.29866-32.19689 29.5621-55.47601 62.5127-55.4094 47.3586.09572 76.13396 42.64244 57.15264 84.50484-3.36591 7.42335-11.44585 18.76064-19.51001 27.37527-5.72558 6.11641-37.58614 35.61563-44.80259 41.48206-2.6125 2.12376-4.75 4.24033-4.75 4.70349 0 .46316 17.10009.74646 38.00019.62954l38.00019-.21257-.00019 17.75L483 255H357zm-117.88993 6.04778c-5.16547-2.863-5.03665-.85927-5.07463-78.93141L234 90.84615l2.92308-2.92307c3.87937-3.87938 7.97296-3.88118 12.31114-.0054L252.5 90.83534l.26923 72.59482c.23847 64.30233.0902 72.94098-1.2979 75.62529-2.38495 4.61198-7.69358 6.13615-12.36126 3.54905zM285.5 230.05464c-1.1-.45022-2.9-1.81868-4-3.04103-1.94295-2.15905-2.00863-3.85244-2.30257-59.36802-.20743-39.17651.0405-58.32292.7884-60.88977C281.12937 102.8312 284.92809 100 289.05034 100c1.18231 0 3.67966 1.53 5.54966 3.4l3.4 3.4v58.66574c0 40.11169-.34172 59.30426-1.08049 60.68466-.59427 1.1104-2.60482 2.65582-4.46788 3.43426-3.8084 1.59125-4.15487 1.61467-6.95163.46998zm798.2212-25.45157c-2.6283-.71968-5.8654-2.3294-7.1936-3.57717-7.5962-7.13621-7.221-19.39376.8009-26.16557 3.2699-2.76037 11.1464-4.83643 21.0268-5.54221l8.8554-.63256-.5716-3.59278c-.7214-4.53437-4.6577-8.09406-8.9449-8.08904-3.9289.005-9.724 3.39434-10.4321 6.10205-.4742 1.81323-1.0627 1.9412-6.1433 1.33581-3.0903-.36825-6.0415-1.06351-6.5582-1.54502-1.7998-1.67717 2.7132-10.14251 7.0212-13.17029 8.6418-6.07364 24.7338-6.02592 32.3718.096 5.8112 4.65773 6.842 9.44189 7.2203 33.51044l.3261 20.74928-6.5-.291c-6.198-.27748-6.5142-.41385-6.8062-2.93553l-.3063-2.64452-5.0442 3.39452c-2.7744 1.86699-6.2366 3.40067-7.6938 3.40818-1.4572.008-3.5495.21262-4.6495.45579-1.1.24317-4.1504-.1467-6.7788-.86637zm15.5609-11.96505c4.88-2.06546 7.0347-5.05583 7.1324-9.89849.084-4.14654.01-4.24535-3.4145-4.50503-5.7884-.43908-13.0615 1.93692-15.3465 5.01349-2.5028 3.36973-1.4643 7.52946 2.3631 9.46601 3.2023 1.62023 5.2986 1.60304 9.2655-.076zm-236.39703 10.98236c-17.76798-6.34958-23.72432-31.75636-11.26911-48.06845 6.91753-9.05962 20.39113-12.93046 31.43964-9.03231 6.3768 2.24986 10.42055 5.78815 13.36279 11.69245l2.62515 5.26799-4.77177 1.68247c-6.74726 2.379-8.01745 2.22995-9.76302-1.1456-3.5374-6.84059-14.41803-8.04047-19.66459-2.16855-6.87779 7.69758-6.03104 21.92646 1.66507 27.98022 5.01074 3.94145 13.28938 2.48745 18.20257-3.19696 2.17623-2.51783 2.28877-2.53562 7-1.10613 2.63351.79906 5.1257 1.45771 5.5382 1.46367 1.45626.021.72169 3.09512-1.62029 6.78069-3.09377 4.86866-5.20708 6.68534-10.64769 9.15318-5.25615 2.38417-16.3932 2.73563-22.09695.69733zM920 202.92146c-21.22395-9.59613-22.83056-41.85774-2.70416-54.30094 3.76398-2.32709 6.20122-3.01354 11.96547-3.37005 10.0339-.6206 17.02601 2.05076 23.12591 8.83531 5.96474 6.63424 7.9911 12.87108 7.40372 22.78759-.75184 12.69283-5.96489 20.93867-16.29094 25.76845-6.61319 3.09318-17.00378 3.21682-23.5.27964zm19.47322-13.31195c5.53249-3.62503 7.35907-16.19306 3.50923-24.14577-5.29628-10.94065-20.28853-9.39861-23.83906 2.45199-2.07729 6.9334-.93021 15.66972 2.63152 20.04181 3.84296 4.71732 11.87568 5.4671 17.69831 1.65197zM1043.5 203.58836c-7.7989-3.46623-9.4869-8.68228-9.4944-29.33836L1034 159h-8v-13h8v-15l5-.17857c2.75-.0982 5.9447-.21072 7.0993-.25 1.9538-.0665 2.1029.46573 2.15 7.67857l.051 7.75h14.7v13H1048.0044l.248 14.39615c.2201 12.78475.4716 14.64319 2.2463 16.60323 1.7 1.87751 2.7826 2.14205 7.25 1.77158l5.2513-.43551v6.20728c0 6.15214-.028 6.21282-3.125 6.83227-5.1244 1.02487-13.1687.63843-16.375-.78664zm192.9532.0856c-12.6964-4.8919-19.5323-16.83687-18.1786-31.76528 1.3669-15.07495 11.3017-25.54305 25.3089-26.6674 16.6025-1.33269 27.8513 9.40153 28.5656 27.25876l.24 6-19.6946.27114c-14.7934.20366-19.6825.57695-19.6465 1.5.1117 2.85732 3.6958 8.32153 6.8499 10.4432 5.6082 3.77251 11.4982 2.93436 17.2854-2.45976l2.6834-2.50105 5.5666 2.30725c3.0617 1.26899 5.5667 2.60692 5.5667 2.9732 0 .36627-1.3088 2.47267-2.9084 4.6809-4.4655 6.16445-11.6371 9.30372-21.0379 9.20904-4.1546-.0418-8.9248-.60434-10.6005-1.25zM1258 167.64788c0-.74366-1.029-2.88116-2.2866-4.75-5.5975-8.31815-17.9247-6.40705-21.622 3.35212l-1.0419 2.75h12.4753c9.816 0 12.4752-.28822 12.4752-1.35212zm217.5 35.77953c-7.0634-3.67361-10.1157-9.27229-9.2487-16.9643 1.2774-11.33298 11.7632-17.43508 29.9987-17.45732 4.7312-.006 4.75-.0192 4.75-3.39501 0-4.49711-2.6591-7.53697-7.2335-8.26936-4.8944-.78362-9.3728 1.14794-10.9565 4.72558-1.2372 2.7952-1.3896 2.84235-7.2868 2.254-3.3128-.33051-6.1897-.74196-6.3932-.91433-.2036-.17238-.05-2.01782.3405-4.10098 1.6173-8.62093 13.5208-15.06183 25.9867-14.06119 7.8894.63328 13.8165 3.70126 17.2917 8.9505 2.604 3.93331 2.765 4.85456 3.0116 17.23025.1433 7.19111.3683 17.46269.5 22.82573l.2395 9.75097-6.75-.00097L1503 204V196.60767l-3.25 3.13483c-1.7875 1.72416-4.5168 3.61243-6.0651 4.19617-4.2174 1.59001-14.712 1.29496-18.1849-.51126zm21.2148-12.04638c2.9218-1.82187 4.1238-4.22622 4.4867-8.97464L1501.5 178.5l-6.1773.16857c-7.4979.2046-13.1073 2.62519-13.9605 6.02426-1.8359 7.31519 7.691 11.46553 15.3526 6.6882zm40.9188 12.58838c-4.7383-1.41949-10.1405-5.74725-12.5701-10.07023-2.4973-4.4434-2.2358-5.06711 2.8357-6.7627 5.3053-1.77375 6.9906-1.39568 10.536 2.36352 2.9015 3.07648 3.895 3.5 8.2104 3.5 5.8019 0 9.3544-2.10148 9.3544-5.53365 0-3.18129-2.9289-4.97172-11.2713-6.89025-12.4355-2.85981-17.7872-7.12415-19.3552-15.42256-1.9852-10.50663 8.4375-20.16489 21.7425-20.14796 6.4385.008 11.4837 1.70406 15.4624 5.19742 3.9234 3.44476 6.8204 8.31532 6.0854 10.23085-.7003 1.82495-12.026 3.97948-12.5563 2.38863-.2216-.66486-1.441-2.24691-2.7098-3.51566-4.1758-4.1758-14.3977-2.22347-14.3977 2.74988 0 3.37312 3.3165 5.45522 11.5331 7.24053 14.2699 3.10057 19.6952 8.00865 19.6198 17.74924-.061 7.8498-4.7917 13.93232-13.0521 16.7812-3.8786 1.33766-15.1999 1.42009-19.4672.14174zM967 175v-29h15V153.39233l3.25-3.13483c10.52947-10.15634 27.6994-5.38123 31.7773 8.83757.535 1.86545.9727 12.7322.9727 24.14833V204h-14v-18.03212c0-19.40589-.7528-23.28044-5.11687-26.33719-3.23446-2.2655-8.09856-2.03567-11.36945.53721C982.69739 163.95639 982 167.28293 982 186.46788V204h-15zm165 0v-29h15v58h-15zm27 0v-29h7c7.1295 0 7.4641.20162 7.0523 4.25-.2247 2.20905 1.2857 2.254 3.0753.0915 2.2681-2.74085 9.0675-5.2962 14.1545-5.31956 8.4617-.0389 13.9073 3.56631 17.3582 11.49169 1.4194 3.25991 1.8126 7.94989 2.1578 25.73635l.4221 21.75h-15.1036l-.3083-20.08407-.3083-20.08407-3.2658-2.91593c-3.6655-3.27288-6.9003-3.65707-11.3626-1.34951-5.0715 2.62255-5.8716 6.22019-5.8716 26.40146V204h-15zm122 0v-29h14v9.5l1.9871-3.25914c2.721-4.46279 7.6028-7.23259 12.7554-7.23712L1314 145v15l-3.75.002c-5.1616.002-10.2934 2.82589-12.697 6.98643-1.7487 3.02691-2.0659 5.70374-2.3994 20.25L1294.7692 204H1281zm38 23.28612v-5.71388l16.9545-17.05515c10.4013-10.46305 17.5519-18.48481 18.5-20.754 1.7783-4.25597 2.0105-10.02578.5159-12.81848-2.7219-5.08586-12.929-6.60461-17.5683-2.61405-2.2007 1.89299-2.7982 3.40127-3.1824 8.0333l-.4729 5.70274-7.6234-.2833-7.6234-.2833.2415-4.5c.4231-7.88167 1.2314-10.66252 4.351-14.96901 4.5264-6.24854 12.0825-9.45068 22.4075-9.49593 12.6061-.0553 20.0139 3.97721 24.232 13.19079 2.026 4.42535 2.4166 6.59913 2.0946 11.65664-.6627 10.40721-4.2445 16.22984-18.6805 30.36751L1340.6376 191H1373v13h-54zm74.7461 3.96388c-.268-.9625-4.1455-13.78025-8.6167-28.48388-4.4712-14.70364-8.1294-26.98507-8.1294-27.29207 0-.307 3.4756-.42675 7.7235-.26611l7.7235.29206 1.7255 6c.9491 3.3 3.1631 11.53799 4.9199 18.30665 1.7569 6.76866 3.5196 11.94366 3.9171 11.5.6078-.67825 3.9842-12.74418 8.9703-32.05665l1.0973-4.25 7.2114.0124 7.2115.0124 4.8929 17.73762c2.6911 9.7557 5.2054 18.33833 5.5873 19.07252.3828.7359 2.8093-6.66796 5.4077-16.5 2.5924-9.80919 4.9015-18.39739 5.1314-19.08489.2857-.85461 2.8371-1.25 8.0659-1.25 6.7973 0 7.5955.19467 7.1753 1.75-.26.9625-4.224 14.0293-8.8089 29.03734l-8.3362 27.28733-8.0577-.28733L1430.5 203.5l-4.9696-16.75c-4.4329-14.94116-6.5304-19.82915-6.5304-15.21834 0 .84242-1.3909 6.12992-3.0909 11.75-1.7 5.62009-3.7877 12.58084-4.6394 15.46834l-1.5484 5.25h-7.744c-6.523 0-7.8209-.27593-8.2312-1.75zM1578 175v-29h14l.036 3.75.036 3.75 2.2141-2.69855c6.3617-7.75391 21.1201-7.58153 26.9581.31488l2.0769 2.80906 3.5167-3.08779c4.6322-4.06705 9.0792-5.8376 14.6623-5.8376 8.5343 0 14.1584 3.94612 16.9662 11.9042 1.195 3.3869 1.5338 9.06903 1.5338 25.72153V204h-14.8104l.1149-19.48066c.1074-18.21196-.019-19.66101-1.947-22.25-4.2893-5.76119-10.9528-5.47755-15.0766.64174-2.1742 3.22634-2.2809 4.26663-2.2809 22.2368V204h-14l-.1183-17.75c-.065-9.7625-.4026-18.95924-.75-20.43721-2.291-9.74602-13.8421-10.53676-17.7373-1.21422-1.0176 2.43536-1.3944 8.21013-1.3944 21.36931V204h-14zm-445.3333-37.66667c-.3667-.36666-.6667-3.51666-.6667-7V124h15v12.72142l-5.25.6306c-6.7073.80564-8.2622.80244-9.0833-.0187z"/></svg>