<?xml version="1.0" encoding="UTF-8" standalone="no"?>
<svg
   role="img"
   viewBox="5.41 5.41 238.68 71.68"
   version="1.1"
   id="svg29"
   sodipodi:docname="podman-horizontal-black.svg"
   inkscape:export-filename="podman-horizontal-black.png"
   inkscape:export-xdpi="300"
   inkscape:export-ydpi="300"
   inkscape:version="1.4 (e7c3feb1, 2024-10-09)"
   xmlns:inkscape="http://www.inkscape.org/namespaces/inkscape"
   xmlns:sodipodi="http://sodipodi.sourceforge.net/DTD/sodipodi-0.dtd"
   xmlns="http://www.w3.org/2000/svg"
   xmlns:svg="http://www.w3.org/2000/svg">
  <defs
     id="defs29" />
  <sodipodi:namedview
     id="namedview29"
     pagecolor="#ffffff"
     bordercolor="#000000"
     borderopacity="0.25"
     inkscape:showpageshadow="2"
     inkscape:pageopacity="0.0"
     inkscape:pagecheckerboard="0"
     inkscape:deskcolor="#d1d1d1"
     inkscape:zoom="2.0343133"
     inkscape:cx="81.8458"
     inkscape:cy="81.354234"
     inkscape:window-width="1440"
     inkscape:window-height="812"
     inkscape:window-x="30"
     inkscape:window-y="38"
     inkscape:window-maximized="0"
     inkscape:current-layer="svg29" />
  <g
     transform="translate(517.33 -6.659)"
     id="g29">
    <g
       fill="#000"
       fill-opacity="1"
       stroke="none"
       stroke-opacity="1"
       stroke-width=".265"
       transform="translate(-57.542 131.094)"
       id="g6">
      <path
         d="M-358.34296-93.07437c-2.93217 0-5.48843 1.12776-7.10488 3.34568v-3.15772h-3.45847v27.2166h3.60883V-75.97c1.65405 2.14274 4.13512 3.2329 6.95452 3.2329 5.82676 0 10.07466-4.05993 10.07466-10.18742 0-6.0899-4.2479-10.14984-10.07466-10.14984zm-.30073 17.17954c-3.79679 0-6.69138-2.7818-6.69138-7.0297 0-4.2103 2.89459-6.99212 6.69138-6.99212 3.83438 0 6.72897 2.78181 6.72897 6.99212 0 4.2479-2.89459 7.0297-6.72897 7.0297z"
         id="path1" />
      <path
         d="M-335.33997-72.7371c5.97712 0 10.3378-4.2479 10.3378-10.18743 0-5.93954-4.36068-10.14984-10.3378-10.14984-5.97713 0-10.3754 4.2103-10.3754 10.14984 0 5.93953 4.39827 10.18743 10.3754 10.18743zm0-3.15773c-3.83439 0-6.72897-2.7818-6.72897-7.0297s2.89458-6.99212 6.72897-6.99212c3.83438 0 6.69137 2.74422 6.69137 6.99212s-2.85699 7.0297-6.69137 7.0297z"
         id="path2" />
      <path
         d="M-305.4201-89.87905c-1.65405-2.14275-4.13512-3.19532-6.95452-3.19532-5.82676 0-10.07465 4.05993-10.07465 10.14984 0 6.0899 4.24789 10.18743 10.07465 10.18743 2.93218 0 5.48843-1.12776 7.10489-3.38328v3.15773h3.45846v-27.89327h-3.60883zm-6.65378 13.98422c-3.83439 0-6.72897-2.7818-6.72897-7.0297s2.89458-6.99212 6.72897-6.99212c3.79679 0 6.69137 2.74422 6.69137 6.99212s-2.89458 7.0297-6.69137 7.0297z"
         id="path3" />
      <path
         d="M-272.16273-93.07437c-3.38328 0-6.16509 1.4285-7.66877 3.68401-1.31572-2.48107-3.87197-3.68401-6.91692-3.68401-3.00736 0-5.45084 1.12776-6.87934 3.15772v-2.96976h-3.45846v19.92376h3.60883v-10.26262c0-4.32308 2.36829-6.6162 5.97713-6.6162 3.2705 0 5.1501 1.9172 5.1501 5.82677v11.05205h3.60883v-10.26262c0-4.32308 2.3683-6.6162 5.97713-6.6162 3.2705 0 5.1501 1.9172 5.1501 5.82677v11.05205h3.60884v-11.46556c0-5.86436-3.3081-8.64616-8.15747-8.64616z"
         id="path4" />
      <path
         d="M-252.21292-93.07437c-3.19532 0-6.16509.9022-8.23265 2.55625l1.50368 2.70663c1.54128-1.31572 3.94716-2.14275 6.31546-2.14275 3.57124 0 5.33806 1.76683 5.33806 4.81178v.71425h-5.71398c-5.93954 0-8.0071 2.63144-8.0071 5.82676 0 3.45846 2.857 5.86435 7.36804 5.86435 3.12013 0 5.33806-1.05258 6.541-2.857v2.63145h3.42088V-84.9921c0-5.45084-3.08255-8.08228-8.53339-8.08228zm-.82702 17.55546c-2.74422 0-4.39827-1.24054-4.39827-3.23291 0-1.69164 1.01499-3.08255 4.58623-3.08255h5.56361v2.78181c-.9022 2.29311-3.04495 3.53365-5.75157 3.53365z"
         id="path5" />
      <path
         d="M-228.46632-93.07437c-3.15773 0-5.71398 1.16535-7.18007 3.19532v-3.00736h-3.45846v19.92376h3.60883v-10.26262c0-4.32308 2.48107-6.6162 6.31545-6.6162 3.42088 0 5.37566 1.9172 5.37566 5.82677v11.05205h3.60883v-11.46556c0-5.86436-3.42087-8.64616-8.27024-8.64616z"
         id="path6" />
    </g>
    <g
       transform="translate(-.497 202.438)"
       id="g28">
      <g
         fill="none"
         fill-opacity="1"
         stroke="#000"
         stroke-dasharray="none"
         stroke-linejoin="round"
         stroke-miterlimit="4"
         stroke-opacity="1"
         stroke-width="1.374"
         id="g10">
        <path
           d="M-455.9013-124.32208c-5.5554.61207-10.15838.72756-15.08432.0139"
           id="path7" />
        <path
           d="M-458.77064-127.6947c-12.41384.25266-18.71067-.70982-29.09162-3.23324"
           id="path8" />
        <path
           d="M-505.35243-134.46781c4.78315 1.26171 8.33422 1.63659 13.39134 1.65487"
           id="path9" />
        <path
           d="M-444.08179-150.6252c-2.77363.65127-4.83282.84476-7.76516.85419"
           id="path10" />
      </g>
      <g
         stroke-dasharray="none"
         stroke-width="1.073"
         transform="matrix(1.61304 0 0 1.6122 -2404.495 261.954)"
         id="g16">
        <path
           stroke-linejoin="round"
           stroke-width="0"
           d="M1179.65012-254.99804l-.6054.5998c.52344.52828 1.41932.80097 2.63461 1.05163 1.21528.25067 2.74666.43317 4.4669.56795.63912.05005 1.31054.09134 1.99427.12853.31121-.38175.77333-.6337 1.29787-.65195.61831-.02152 1.17346.2868 1.50803.76554 2.20352.06808 4.48131.09368 6.65076.08512 3.80658-.01501 7.73884.05372 11.2112-.06652.77815-.02692 1.5282-.06442 2.25344-.11274l-.08959-.11021c-.2158-.26755-.5669-.43863-.9105-.44111-.32452-.00249-.65924.14296-.87924.38164l-.19241.2083-.4178-.3839.19242-.20971c.06474-.07023.1352-.13441.20988-.19251-.06594.00248-.12893.0062-.19523.00843-2.3296.08066-4.89315.07713-7.48577.07019l.1941.1818-.3899.41433-.20593-.19505c-.23621-.22264-.58078-.3438-.9043-.3185-.34259.0268-.68163.22052-.87812.50256l-.16198.23395-.46624-.3247.16226-.23396c.06668-.09572.14293-.18332.2265-.26297-.42685 0-.85148-.0031-1.27646-.00124-3.80616.015-7.98188-.05812-11.3805-.32443-1.29198-.10122-2.46958-.23127-3.46933-.39235l-.0955.09781-.1434-.14093c-.22367-.0384-.4503-.07651-.6533-.11839-.10579-.02183-.1926-.04788-.29242-.0713-.1015.05229-.1923.12544-.25974.21309l-.17326.22407-.45018-.3464.17297-.22408c.0119-.0155.02436-.03046.03689-.0454-.62858-.1941-1.07562-.40507-1.23561-.56655zm37.33871.46423c-1.41045.5651-3.52232.88203-6.00958 1.05162.16406.10213.31188.23129.43497.3839l.17918.22154-.28679.23113c2.40834-.17146 4.48032-.4891 5.99831-1.09729z"
           id="path11" />
        <path
           stroke-linejoin="round"
           stroke-width="0"
           d="M1196.4004-277.71472c-6.5447 0-11.8594 5.31344-11.8594 11.85733 0 2.8087.032 5.51327-.4181 7.53133-.2248 1.00903-.5672 1.83923-1.0623 2.43923-.495.60001-1.1345.98783-2.0585 1.13675a.42598.42598 0 0 0-.306.56287l.1533-.19843c.2358-.30641.5973-.49754.9832-.51975.3737-.0215.7421.11629 1.0099.37798l.2034.19871-.3972.40701-.2023-.19872c-.1493-.14586-.3728-.22985-.5811-.21788-.2147.0123-.4343.12858-.5654.29906l-.1733.22408-.3888-.29906a.42598.42598 0 0 0 .069.12008c.2283.17984.504.27995.8632.38079.3593.10083.7979.18917 1.3108.26946 1.0257.16059 2.3477.28696 3.8691.38671.4759.0312 1.0008.0549 1.5122.0806.2922-.25214.6652-.41072 1.077-.42505.5059-.0176.9692.18568 1.3044.52229 2.1527.0693 4.4537.1037 6.7507.0958.3855-.001.7624-.008 1.1455-.0115l-.1578-.10965.1623-.23394c.087-.12552.1912-.23749.3068-.33485-3.3961.0359-6.9226.001-9.9857-.13304a8.23516 7.24297 0 0 1 .4059-.74524c-.099-.0445-.2068-.0695-.3121-.0696-.2076-.00031-.4248.0941-.5665.24578l-.1939.20717-.4141-.38756.1938-.20717c.2534-.27116.6108-.42587.9818-.42533.2127.00031.4206.0519.6068.14657a8.23516 7.24297 0 0 1 6.9939-3.45364 8.23516 7.24297 0 0 1 7.7064 4.70031c-1.012.0399-2.0971.0676-3.1944.091.037.0297.074.0602.1084.093l.2071.19392-.3634.38615c2.4407-.0513 4.7375-.14174 6.5978-.27482.3498-.025.6364-.0556.9547-.0834l.088-.0958c.3327-.36098.8096-.56688 1.3004-.56316.3854.003.7598.1359 1.0609.36896.3859-.0691.7009-.14213.9477-.23395.1293-.0481.2431-.0972.3536-.18152.1106-.0844.2499-.2426.2499-.46873a.42598.42598 0 0 0-.3829-.42195c-.9039-.0939-1.5268-.41144-2.0154-.93155-.4886-.52011-.8407-1.26913-1.0899-2.23459-.4985-1.93093-.5656-4.68784-.6874-7.90621-.2518-6.64548-5.557-11.95683-12.1017-11.95683zm-5.9972 6.38303c.5412-.0133 1.0767.18958 1.4717.56203l.2051.19533-.3885.41208-.207-.19505c-.3004-.28313-.7351-.4347-1.1466-.4025-.4359.0341-.8636.27796-1.1134.63673l-.162.23451-.4668-.32443.164-.23422c.3512-.50445.9223-.83085 1.5351-.87885.036-.003.072-.005.1084-.006zm12.1983.0465c.6147.005 1.2078.29096 1.5937.76949l.1797.22267-.4434.35542-.1777-.22069c-.2744-.34036-.719-.55537-1.1562-.55837-.4128-.003-.8356.17874-1.1153.48226l-.1913.20914-.4181-.38502.1916-.20886c.3924-.42587.9578-.67004 1.537-.66604zm-12.076 1.92765c.039-.00069.079-.00027.1183.001 1.2709.0447 2.2558 1.15446 2.2104 2.44825-.045 1.29378-1.1057 2.33171-2.3766 2.28702-1.2709-.0447-2.2558-1.15446-2.2103-2.44825.044-1.25335 1.0405-2.26668 2.2582-2.28815zm12.3169.005c1.2177.0215 2.2142 1.0348 2.2582 2.28815.045 1.29379-.9394 2.40355-2.2103 2.44825-1.2709.0447-2.3311-.99323-2.3766-2.28702-.045-1.29379.9395-2.40355 2.2104-2.44825.04-.001.079-.002.1183-.001zm-12.5166.87857a.76622.80691 2.00226 0 1 .2735.15925.76622.80691 2.00226 0 0-.2735-.15925zm.2949.1801a.76622.80691 2.00226 0 1 .1764.25706.76622.80691 2.00226 0 0-.1764-.25706zm.1876.28243a.76622.80691 2.00226 0 1 .06.33344.76622.80691 2.00226 0 0-.06-.33344zm.06.33344a.76622.80691 2.00226 0 1-.02.15672.76622.80691 2.00226 0 0 .02-.15672zm-.02.15672a.76622.80691 2.00226 0 1-.049.14995.76622.80691 2.00226 0 0 .049-.14995zm-.049.14995a.76622.80691 2.00226 0 1-.076.13698.76622.80691 2.00226 0 0 .076-.13698zm-.076.13698a.76622.80691 2.00226 0 1-.1.11895.76622.80691 2.00226 0 0 .1-.11895zm-.1.11895a.76622.80691 2.00226 0 1-.1197.0961.76622.80691 2.00226 0 0 .1197-.0961zm-.1197.0961a.76622.80691 2.00226 0 1-.1349.0699.76622.80691 2.00226 0 0 .1349-.0699zm-.1349.0699a.76622.80691 2.00226 0 1-.1454.0409.76622.80691 2.00226 0 0 .1454-.0409zm-.1454.0409a.76622.80691 2.00226 0 1-.1499.0102.76622.80691 2.00226 0 0 .1499-.0102zm-.1499.0102a.76622.80691 2.00226 0 1-.3642-.11669.76622.80691 2.00226 0 0 .3642.11669zm6.6739-.98849c2.2278.0279 4.1089 1.61271 4.1868 3.67829.014.37593-.036.73809-.1363 1.08235 1.6376.2143 2.9503.86879 3.982 1.62915l-.3391.4569c-1.0015-.73808-2.2605-1.3611-3.8556-1.54122-.058.12068-.1173.24086-.1882.35487 1.7074.53661 2.8313 1.6539 3.7113 2.71094l-.4363.36247c-.8881-1.06669-1.955-2.12265-3.6277-2.58833-.087.10059-.1791.19749-.2766.28975 1.6077.85909 2.3829 2.32555 2.9461 3.66617l-.5242.21901c-.5759-1.37065-1.314-2.7439-2.9073-3.49536-.6876.47939-1.5386.77809-2.4634.80838-1.0092.033-1.9554-.25781-2.7118-.76949-1.5886.84241-2.2524 2.2768-2.7506 3.69802l-.5384-.18687c.4902-1.39811 1.1925-2.9409 2.8081-3.89222-.09-.0827-.1796-.16629-.2614-.25621-1.6362.56701-2.6351 1.68327-3.4555 2.79972l-.4575-.33541c.8157-1.11005 1.8719-2.29507 3.5482-2.93333-.073-.11111-.1425-.22446-.2031-.34274-1.5881.27462-2.8113.97492-3.7691 1.77459l-.3662-.43575c.9922-.82846 2.2764-1.56655 3.9181-1.87494-.094-.29353-.1541-.60066-.1662-.92141-.081-2.1322 1.7961-3.87934 4.1172-3.95535.073-.002.1448-.003.2167-.002zm-4.9636.0846v0zm-2.4475.0705a.76622.80691 2.00226 0 0 .085.39263.76622.80691 2.00226 0 1-.085-.39263zm.096.4149a.76622.80691 2.00226 0 0 .2541.28778.76622.80691 2.00226 0 1-.2541-.28778zm-1.5129 2.42428a1.27844 1.21857 88.00547 0 1 1.2627 1.23484 1.27844 1.21857 88.00547 0 1-1.1728 1.32052 1.27844 1.21857 88.00547 0 1-1.2629-1.23484 1.27844 1.21857 88.00547 0 1 1.173-1.32052zm17.6941 0a1.27844 1.21857 88.00547 0 1 1.2626 1.23484 1.27844 1.21857 88.00547 0 1-1.1728 1.32052 1.27844 1.21857 88.00547 0 1-1.2629-1.23484 1.27844 1.21857 88.00547 0 1 1.1731-1.32052zm-5.5645 11.67328c-.02.00045-.041.002-.061.003-.3426.0268-.6817.22052-.8782.50256l-.01.0144c.6665-.007 1.3205-.017 1.9697-.0304l-.1774-.16798c-.2215-.20873-.5382-.32832-.8435-.32161z"
           id="path12" />
        <path
           fill-rule="evenodd"
           stroke="none"
           stroke-width="0"
           d="M1196.9566-264.39645l-.28933.01578-.29045-.01353-.05716 1.22498c-.06228.05075-.2056.178-.44482.25987-.14285.0489-.28314.06632-.40624.03552-.10353-.0259-.20798-.11957-.31552-.2565.0069-.05648.00924-.07716.02115-.1663.02186-.16303.05343-.3595.06734-.41602l-.55329-.13558c-.03117.12659-.05538.30849-.07804.4772-.02267.1687-.03947.31342-.03947.31342l-.01185.1012.05467.08483c.19288.2993.45195.48178.7164.54794.26446.06617.5177.0236.72994-.04904.26882-.09201.48813-.23847.6133-.33372.12636.09419.34739.2389.61696.32865.21285.07085.46661.11124.7305.04284s.52126-.25322.71162-.55414l.05382-.08512-.0127-.1012s-.01788-.14463-.04197-.31314c-.02408-.16851-.05086-.35003-.0831-.47635l-.55077.14009c.0144.0564.04747.25262.0707.41546.01272.08904.01496.1096.02227.16602-.10639.13783-.20997.23254-.31328.25931-.12283.03184-.26466.01556-.40792-.03213-.2398-.07983-.38258-.20565-.4454-.25593z"
           id="path13" />
        <path
           stroke-linecap="square"
           stroke-width="0"
           d="M1196.6604-266.32048l-.0002.00028c-.2092.001-.3804.0661-.5235.115-.143.0489-.2588.0836-.3476.084-.1565.001-.3077.087-.3908.18772-.083.10072-.122.20599-.1521.30469-.06.19741-.091.3965-.1172.46677v-.002c-.062.15805-.0002.28606.045.36896.049.0829.1085.14792.1758.21506.1345.13429.3047.26736.4767.39235.344.24998.6952.4631.6952.4631l.1485.0896.1465-.0916s.3496-.21611.6913-.46901c.1708-.12645.3394-.261.4728-.3963.067-.0677.1257-.13379.1738-.21675.048-.083.1067-.20928.045-.36727-.027-.0695-.059-.26782-.1211-.46478-.031-.0985-.07-.20258-.1544-.30272-.084-.10014-.2359-.1864-.3924-.18575-.088.00059-.2024-.0322-.3459-.0801-.1434-.0478-.3154-.11225-.5252-.11133z"
           id="path14" />
        <path
           stroke="none"
           stroke-linecap="square"
           stroke-width=".654"
           d="M1202.82553-268.50224a1.37713 1.37713 0 0 0-.07403.0006c-.7928.02788-1.41908.71429-1.38916 1.56545.02992.85117.70281 1.49384 1.49562 1.46596.7928-.02789 1.41911-.71627 1.3892-1.56743-.01-.2842-.0922-.54476-.22572-.76497a.76622.80691-2.00272 0 1 .01255.07254.76622.80691-2.00272 0 1-.73728.83318.76622.80691-2.00272 0 1-.79417-.77934.76622.80691-2.00272 0 1 .55845-.80274c-.07554-.01391-.15217-.02204-.23047-.0234z"
           id="path15" />
        <path
           stroke-linecap="square"
           stroke-width="0"
           d="M1190.29989-268.48814a1.39639 1.39639 0 0 0-.23037.0234.76622.80691 2.00383 0 1 .55836.80245.76622.80691 2.00383 0 1-.79417.77963.76622.80691 2.00383 0 1-.73728-.83346.76622.80691 2.00383 0 1 .01254-.07226c-.13391.2202-.21572.48077-.2257.76497-.02992.85117.59638 1.53955 1.3892 1.56742.7928.02788 1.4657-.61479 1.4956-1.46596.02993-.85117-.59635-1.53757-1.38916-1.56545a1.44005 1.44005 0 0 0-.07402-.0006z"
           id="path16" />
      </g>
      <path
         stroke-dasharray="none"
         stroke-linejoin="round"
         stroke-width="0"
         d="M-461.07036-154.08218c-9.05336-.00002-16.43948 7.05429-16.43948 16.80666 0 1.74289.00016 3.45606-.0291 5.08812a.68694.68694 0 0 0 .56257.68753c10.99504 2.01772 21.97869 2.06018 32.31049.0309a.68694.68694 0 0 0 .55439-.70707c-.0723-1.5422-.12224-3.19841-.18358-4.95089-.34698-9.90538-7.72212-16.95524-16.7753-16.95525zm-7.72329 6.87717c.73933-.0181 1.46829.2604 2.00853.76933l.334.31264-.62892.66799-.33218-.31446c-.38102-.35894-.93682-.55429-1.45868-.51349-.55259.0432-1.09948.35552-1.41642.81023l-.26129.37717-.75206-.52349.26174-.37717c.48054-.68943 1.25978-1.13553 2.09759-1.20103.0493-.004.0984-.007.14769-.008zm16.17819.0645c.84034.007 1.64845.39482 2.17621 1.0488l.28901.35717-.71298.57439-.28901-.35536c-.34809-.43134-.91443-.70716-1.46868-.71116-.52345-.004-1.06336.23048-1.41824.61528l-.31037.33582-.6739-.61892.31037-.33809c.53673-.58197 1.30592-.91393 2.09759-.90793zm-16.05095 2.57883c1.75418-.0445 3.20253 1.40142 3.24772 3.18047.0452 1.77904-1.32768 3.29816-3.08186 3.3427-1.75419.0445-3.20298-1.40326-3.24818-3.18229-.0452-1.77905 1.32813-3.29636 3.08232-3.34088zm16.37813 0c1.68019.0296 3.05445 1.42709 3.11504 3.15002.0626 1.77852-1.29548 3.30924-3.04914 3.37088-1.75366.0616-3.21654-1.37015-3.27909-3.14867-.0625-1.77851 1.29595-3.30923 3.0496-3.37087.0548-.002.1094-.002.16359-.001zm-8.09 3.01824c2.82494.0369 5.23477 1.9734 5.67795 4.57736 1.61923.27498 2.94149.92951 3.98889 1.68498l-.5503.72661c-.90716-.65431-2.01185-1.21452-3.36543-1.4814-.001.094-.005.18756-.0109.28038 1.41984.63967 2.42825 1.64316 3.23273 2.58882l-.7148.57756c-.71685-.84264-1.55654-1.64233-2.68152-2.19075-.0384.14259-.0825.28332-.13269.42125.99201.89087 1.59933 2.00969 2.04806 3.05505l-.85476.35081c-.39698-.92479-.86069-1.83441-1.5841-2.57155-.9618 1.66129-2.8188 2.81018-4.95725 2.88328-2.20991.0755-4.20281-1.01508-5.25762-2.69879-.67135.77621-1.07511 1.70755-1.41278 2.65017l-.87476-.29765c.38729-1.08113.9069-2.26141 1.84994-3.22137-.0492-.12562-.0933-.25352-.13269-.38352-1.03095.62049-1.77548 1.46312-2.42114 2.32298l-.74934-.53439c.7288-.97057 1.64945-2.00807 2.98008-2.72924-.0107-.10128-.0189-.20326-.0236-.30628-1.29706.35065-2.33786.9665-3.18547 1.65908l-.59393-.69298c.9873-.80672 2.24876-1.53054 3.82211-1.90493.36263-2.62041 2.72929-4.66398 5.60525-4.7623.0998-.003.19924-.004.2981-.003zm9.35556 1.53775c-.001.001-.002.002-.003.004.001-.001.002-.002.003-.004zm-22.07018 1.45732a2.0611 1.9656 87.98382 0 1 2.0367 1.99081 2.0611 1.9656 87.98382 0 1-1.89219 2.12849 2.0611 1.9656 87.98382 0 1-2.03671-1.9908 2.0611 1.9656 87.98382 0 1 1.8922-2.1285zm25.20157 0a2.0611 1.9656 87.98382 0 1 2.03671 1.99081 2.0611 1.9656 87.98382 0 1-1.89175 2.12849 2.0611 1.9656 87.98382 0 1-2.0367-1.9908 2.0611 1.9656 87.98382 0 1 1.89174-2.1285z"
         id="path17" />
      <path
         stroke-dasharray="none"
         stroke-linejoin="round"
         stroke-width="0"
         d="M-481.09747-133.66426l-.25039 1.35189 4.3715.8125a.68694.68694 0 0 0 .002 0c10.99504 2.01768 21.97944 2.06008 32.41773.0154a.68694.68694 0 0 0 .0568-.0154l2.87692-.8284-.3808-1.32009-2.83966.81841c-2.70021.52812-5.4391.9129-8.20634 1.15922.0565.12299.11149.2458.16359.36717l-.85476.35081c-.0918-.21373-.18752-.42633-.28856-.63664-1.15744.089-2.32036.15062-3.48675.19086-.81752.4512-1.76068.72314-2.76604.75751-1.15695.0395-2.25352-.24197-3.1882-.75933-1.04507-.0354-2.09203-.0875-3.14139-.16177-.12374.28702-.23571.57907-.34081.87248l-.87476-.29765c.077-.21478.15996-.43372.24948-.6539-3.03949-.24815-6.09246-.64753-9.14835-1.2083z"
         id="path18" />
      <path
         stroke-linecap="square"
         d="M-452.3099-143.18812c-.03044-.00093-.06102.00014-.0918.00122-.98289.03455-1.76285.8861-1.72543 1.95037.03742 1.06427.87521 1.85902 1.8581 1.82448.98289-.03455 1.76285-.88609 1.72543-1.95036-.00955-.2716-.0716-.52532-.1745-.75251a.82929.87288-2.0191 0 1-.77977.68344.82929.87288-2.0191 0 1-.8593-.8434.82929.87288-2.0191 0 1 .51985-.83795c-.15091-.04592-.30924-.07218-.47259-.07494z"
         id="path19" />
      <path
         stroke-dasharray="none"
         stroke-linecap="square"
         stroke-width="0"
         d="M-468.63059-143.188c-.17305.0044-.33962.03454-.49713.08635a.90724.95492-1.46427 0 1 .67935.9002.90724.95492-1.46427 0 1-.88295.97745.90724.95492-1.46427 0 1-.91655-.7875c-.08706.23095-.13226.4858-.12542.75478.02704 1.06458.85537 1.86763 1.83856 1.84267.98318-.02495 1.77156-.86896 1.74452-1.93354-.02704-1.06458-.8572-1.86536-1.84038-1.8404z"
         id="path20" />
      <path
         stroke-dasharray="none"
         stroke-linecap="square"
         stroke-width="0"
         d="M-460.50188-139.60169l-1.50412.34172c-.2269.0515-.41803.19604-.53712.3499-.11909.15386-.18278.31369-.23221.46487-.0983.30063-.14493.58874-.19358.71844-.0994.25501-.006.4603.0722.59392.0786.13361.17507.2394.28356.34763.21697.21648.49196.4315.76933.63301.55474.40301 1.12104.74615 1.12104.74615l.23857.14451.23812-.14678s.56411-.34797 1.11514-.7557c.27552-.20387.54868-.42079.76388-.63891.1076-.10907.20144-.21569.27901-.34945.0776-.13376.17018-.33681.0704-.59165-.05-.12779-.10004-.41918-.20131-.72071-.0507-.15077-.11584-.31014-.2363-.46305-.12045-.15292-.31339-.29626-.54076-.34581z"
         id="path21" />
      <path
         stroke-linejoin="round"
         d="M-460.37695-136.26367c-.10767-.0342-.2618-.0218-.36133.0273-.19907.0983-.21894.20107-.24805.26172-.0291.0607-.0455.10801-.0625.1582-.0271.0802-.0574.17398-.0918.27149-.0712.10416-.17217.19671-.28907.24805-.13387.0584-.30062.0777-.46289.0527-.10965-.0169-.22475-.0571-.33398-.11719a.45775.45775 0 0 0-.67774.40039v.0254c0 1.32221 1.0802 2.4043 2.40235 2.4043 1.32214 0 2.40429-1.08214 2.40429-2.4043.0001-.0106.0002-.022 0-.0312a.45775.45775 0 0 0-.67578-.39257c-.11127.0601-.22128.0987-.33008.11523-.16357.0249-.33034.005-.46289-.0527-.11992-.0527-.22478-.14669-.29687-.25586-.0632-.15519-.11729-.28572-.16992-.38672-.0307-.0589-.0535-.11342-.13477-.19532-.0406-.0409-.10132-.0947-.20898-.1289zm-.12305 1.32031c.15998.19498.33202.3822.56445.48438.22362.0981.45908.0868.69141.0859-.23264.51606-.65095.92578-1.25781.92578-.60674 0-1.0231-.4099-1.25586-.92578.23387.001.47138.0118.69531-.0859.23127-.10157.40265-.29023.5625-.48438z"
         id="path22" />
      <g
         stroke-dasharray="none"
         id="g27">
        <path
           stroke-linejoin="round"
           stroke-width="0"
           d="M-492.24617-153.62503c-3.11696 0-6.12541.92597-8.37083 2.89282s-3.6817 4.97644-3.6817 8.93932c0 1.40777-.001 2.79043-.0236 4.10748a.68694.68694 0 0 0 .54894.68526c7.95818 1.636 15.91336 1.67052 23.39844.0236a.68694.68694 0 0 0 .53894-.69935c-.05-1.24717-.0894-2.5855-.13269-3.99978-.12585-4.02499-1.61584-7.05758-3.88482-9.03929-2.26897-1.98171-5.27571-2.91009-8.39265-2.91009zm-5.79701 4.61552c.56358-.003 1.11092.21749 1.51594.61301l.32809.32037-.64073.65618-.32627-.32037c-.2408-.23516-.60144-.37056-.93747-.35126-.34628.0199-.70043.20729-.91202.48213l-.27946.36127-.72616-.55848.27901-.36127c.38033-.494.9635-.80214 1.58592-.83794.0377-.002.0756-.003.11315-.004zm11.54495.0309c.6298.00092 1.2338.27898 1.64272.75797l.29673.34763-.69707.59574-.29674-.34763c-.2281-.26718-.59616-.43891-.94746-.43942-.33479-.00049-.68523.15168-.91384.39625l-.31264.334-.66799-.62482.31264-.334c.40864-.43717.98524-.68659 1.58365-.68572zm.75887 2.55701c1.51534.0267 2.76114 1.27763 2.81603 2.82194.0567 1.59411-1.17486 2.96417-2.75604 3.01915-1.58118.055-2.9066-1.22646-2.96326-2.82057-.0567-1.59412 1.17441-2.96417 2.75559-3.01915.0494-.002.0988-.002.14768-.001zm-12.66599.001c1.58163-.0397 2.89459 1.25279 2.93554 2.84738.041 1.5946-1.20395 2.95308-2.78558 2.9928-1.58165.0397-2.89278-1.2546-2.93373-2.8492-.041-1.5946 1.20213-2.95126 2.78377-2.99098zm6.29233 3.1423c2.29232.0304 4.23575 1.73218 4.31606 3.94571v.002c.0157.45989-.045 1.02871-.17177 1.60546-.12681.57675-.2935 1.14172-.65027 1.60546l-.19722.25357-.32037.0141c-2.01449.0806-4.08418.0674-6.16599-.045l-.32446-.0177-.19131-.26174c-.31761-.43233-.4525-.93471-.56848-1.45096-.11601-.51626-.1812-1.02241-.1954-1.40233v-.002c.10866-2.47345 1.8856-4.06201 4.24609-4.24382v-.00045c.0746-.003.14917-.003.22312-.002zm-7.6674.11587c.001.007.003.0134.004.02-.001-.007-.003-.0133-.004-.02zm.33309 2.99417a1.69682 1.61819 87.98382 0 1 1.6768 1.63908 1.69682 1.61819 87.98382 0 1-1.55774 1.75269 1.69682 1.61819 87.98382 0 1-1.67681-1.63908 1.69682 1.61819 87.98382 0 1 1.55775-1.75269zm14.65316 0a1.69682 1.61819 87.98382 0 1 1.67681 1.63908 1.69682 1.61819 87.98382 0 1-1.55775 1.75269 1.69682 1.61819 87.98382 0 1-1.6768-1.63908 1.69682 1.61819 87.98382 0 1 1.55774-1.75269z"
           id="path23" />
        <path
           stroke-linecap="square"
           stroke-width="0"
           d="M-485.76301-145.04935c-.02532-.00012-.05074-.00023-.07633.00066-.8186.02846-1.4615.72506-1.4305 1.59726.031.8722.72186 1.5226 1.54046 1.49415.8186-.02847 1.46333-.7251 1.43234-1.59728a1.63752 1.63752 0 0 0-.0327-.27265.78476.81721-2.55856 0 1-.70345.52076.78476.81721-2.55856 0 1-.81295-.78979.78476.81721-2.55856 0 1 .64255-.83112c-.17284-.07574-.36182-.11895-.55939-.12225z"
           id="path24" />
        <path
           stroke-linecap="square"
           stroke-width="0"
           d="M-498.37023-145.04397a1.45552 1.45552 0 0 0-.45624.08539.78483.81728-1.85018 0 1 .65118.78341.78483.81728-1.85018 0 1-.76342.8366.78483.81728-1.85018 0 1-.79478-.68117c-.05817.17342-.08775.36159-.08267.55938.0224.87246.70663 1.5315 1.52548 1.51093.81886-.02057 1.47063-.71302 1.44823-1.58547-.0224-.87244-.7089-1.52969-1.52775-1.50912z"
           id="path25" />
        <path
           stroke-linecap="square"
           stroke-width="0"
           d="M-492.21072-140.85543l-1.13514.25402c-.1949.0436-.36331.16736-.46487.29674-.10155.12938-.15404.25929-.19312.37716-.0781.23572-.11519.44822-.14269.5194l.002-.002c-.0953.2428-.003.43249.0641.5453.0674.11281.14415.19598.22858.27901.16886.16606.37452.32386.58211.4726.41518.29747.83613.54894.83613.54894l.23811.14087.23448-.14269s.41955-.2557.83204-.55666c.20625-.15048.41057-.31115.57802-.47851.0837-.0837.15983-.16641.2263-.27946.0665-.11305.15712-.30062.0609-.54303-.0282-.0717-.0664-.2843-.14678-.5194-.0402-.11755-.0923-.24651-.19494-.3749-.10263-.12839-.27195-.25107-.46714-.2931z"
           id="path26" />
        <path
           fill="none"
           fill-opacity="1"
           stroke="#000"
           stroke-linejoin="round"
           stroke-miterlimit="4"
           stroke-opacity="1"
           stroke-width="1.381"
           d="M-506.66289-138.35461c9.56518 2.55164 20.5033 2.36061 28.38075.17513"
           id="path27" />
      </g>
    </g>
  </g>
</svg>
