<svg width="18429" height="3982" viewBox="0 0 18429 3982" fill="none" xmlns="http://www.w3.org/2000/svg">
<g filter="url(#filter0_d_2079_207)">
<mask id="path-1-outside-1_2079_207" maskUnits="userSpaceOnUse" x="5329" y="910" width="12856" height="1815" fill="black">
<rect fill="white" x="5329" y="910" width="12856" height="1815"/>
<path d="M5334.6 2691V1431H5689.8V1704.6H5701.8C5708.2 1669.4 5719.4 1635.8 5735.4 1603.8C5751.4 1570.2 5772.2 1540.6 5797.8 1515C5825 1489.4 5857 1469.4 5893.8 1455C5930.6 1439 5973.8 1431 6023.4 1431H6085.8V1762.2H5997C5893 1762.2 5815.4 1775.8 5764.2 1803C5714.6 1830.2 5689.8 1880.6 5689.8 1954.2V2691H5334.6ZM7168.91 2479.8H7156.91C7145.71 2511.8 7130.51 2542.2 7111.31 2571C7093.71 2599.8 7070.51 2625.4 7041.71 2647.8C7012.91 2670.2 6978.51 2687.8 6938.51 2700.6C6900.11 2713.4 6855.31 2719.8 6804.11 2719.8C6674.51 2719.8 6576.11 2677.4 6508.91 2592.6C6443.31 2506.2 6410.51 2383 6410.51 2223V1431H6765.71V2191.8C6765.71 2268.6 6779.31 2327.8 6806.51 2369.4C6833.71 2411 6880.11 2431.8 6945.71 2431.8C6972.91 2431.8 7000.11 2427.8 7027.31 2419.8C7054.51 2411.8 7078.51 2400.6 7099.31 2386.2C7120.11 2370.2 7136.91 2351 7149.71 2328.6C7162.51 2306.2 7168.91 2279.8 7168.91 2249.4V1431H7524.11V2691H7168.91V2479.8ZM7974.6 2691V1431H8329.8V1644.6H8344.2C8366.6 1579 8405.8 1522.2 8461.8 1474.2C8517.8 1426.2 8595.4 1402.2 8694.6 1402.2C8824.2 1402.2 8921.8 1445.4 8987.4 1531.8C9054.6 1618.2 9088.2 1741.4 9088.2 1901.4V2691H8733V1930.2C8733 1848.6 8720.2 1788.6 8694.6 1750.2C8669 1710.2 8623.4 1690.2 8557.8 1690.2C8529 1690.2 8501 1694.2 8473.8 1702.2C8446.6 1708.6 8421.8 1719.8 8399.4 1735.8C8378.6 1751.8 8361.8 1771.8 8349 1795.8C8336.2 1818.2 8329.8 1844.6 8329.8 1875V2691H7974.6ZM9524.29 2691V1431H9879.49V1644.6H9893.89C9916.29 1577.4 9954.69 1520.6 10009.1 1474.2C10063.5 1426.2 10137.9 1402.2 10232.3 1402.2C10318.7 1402.2 10392.3 1423.8 10453.1 1467C10513.9 1510.2 10557.9 1573.4 10585.1 1656.6H10592.3C10603.5 1621.4 10620.3 1588.6 10642.7 1558.2C10666.7 1526.2 10695.5 1499 10729.1 1476.6C10762.7 1454.2 10800.3 1436.6 10841.9 1423.8C10883.5 1409.4 10928.3 1402.2 10976.3 1402.2C11097.9 1402.2 11190.7 1445.4 11254.7 1531.8C11320.3 1618.2 11353.1 1741.4 11353.1 1901.4V2691H10997.9V1930.2C10997.9 1770.2 10940.3 1690.2 10825.1 1690.2C10772.3 1690.2 10724.3 1705.4 10681.1 1735.8C10637.9 1766.2 10616.3 1812.6 10616.3 1875V2691H10261.1V1930.2C10261.1 1770.2 10203.5 1690.2 10088.3 1690.2C10062.7 1690.2 10037.1 1694.2 10011.5 1702.2C9987.49 1708.6 9965.09 1719.8 9944.29 1735.8C9925.09 1751.8 9909.09 1771.8 9896.29 1795.8C9885.09 1818.2 9879.49 1844.6 9879.49 1875V2691H9524.29ZM12314.4 2719.8C12218.4 2719.8 12132.8 2704.6 12057.6 2674.2C11982.4 2642.2 11918.4 2598.2 11865.6 2542.2C11814.4 2484.6 11775.2 2415 11748 2333.4C11722.4 2251.8 11709.6 2160.6 11709.6 2059.8C11709.6 1960.6 11722.4 1871 11748 1791C11773.6 1709.4 11811.2 1639.8 11860.8 1582.2C11912 1524.6 11974.4 1480.6 12048 1450.2C12121.6 1418.2 12205.6 1402.2 12300 1402.2C12404 1402.2 12492.8 1419.8 12566.4 1455C12641.6 1490.2 12702.4 1537.4 12748.8 1596.6C12796.8 1655.8 12831.2 1724.6 12852 1803C12874.4 1879.8 12885.6 1960.6 12885.6 2045.4V2151H12076.8V2170.2C12076.8 2253.4 12099.2 2319.8 12144 2369.4C12188.8 2417.4 12259.2 2441.4 12355.2 2441.4C12428.8 2441.4 12488.8 2427 12535.2 2398.2C12581.6 2367.8 12624.8 2331.8 12664.8 2290.2L12842.4 2511C12786.4 2576.6 12712.8 2627.8 12621.6 2664.6C12532 2701.4 12429.6 2719.8 12314.4 2719.8ZM12307.2 1663.8C12235.2 1663.8 12178.4 1687.8 12136.8 1735.8C12096.8 1782.2 12076.8 1844.6 12076.8 1923V1942.2H12518.4V1920.6C12518.4 1843.8 12500.8 1782.2 12465.6 1735.8C12432 1687.8 12379.2 1663.8 12307.2 1663.8ZM13427.7 2717.4C13355.7 2717.4 13302.1 2699.8 13266.9 2664.6C13233.3 2627.8 13216.5 2581.4 13216.5 2525.4V2477.4C13216.5 2421.4 13233.3 2375.8 13266.9 2340.6C13302.1 2303.8 13355.7 2285.4 13427.7 2285.4C13499.7 2285.4 13552.5 2303.8 13586.1 2340.6C13621.3 2375.8 13638.9 2421.4 13638.9 2477.4V2525.4C13638.9 2581.4 13621.3 2627.8 13586.1 2664.6C13552.5 2699.8 13499.7 2717.4 13427.7 2717.4ZM14821.9 2479.8H14809.9C14800.3 2513.4 14785.1 2545.4 14764.3 2575.8C14743.5 2604.6 14717.9 2630.2 14687.5 2652.6C14658.7 2673.4 14625.1 2689.4 14586.7 2700.6C14549.9 2713.4 14511.5 2719.8 14471.5 2719.8C14311.5 2719.8 14190.7 2663.8 14109.1 2551.8C14027.5 2438.2 13986.7 2274.2 13986.7 2059.8C13986.7 1845.4 14027.5 1682.2 14109.1 1570.2C14190.7 1458.2 14311.5 1402.2 14471.5 1402.2C14553.1 1402.2 14625.1 1424.6 14687.5 1469.4C14751.5 1514.2 14792.3 1571.8 14809.9 1642.2H14821.9V915H15177.1V2691H14821.9V2479.8ZM14589.1 2431.8C14656.3 2431.8 14711.5 2415.8 14754.7 2383.8C14799.5 2350.2 14821.9 2304.6 14821.9 2247V1875C14821.9 1817.4 14799.5 1772.6 14754.7 1740.6C14711.5 1707 14656.3 1690.2 14589.1 1690.2C14521.9 1690.2 14465.9 1714.2 14421.1 1762.2C14377.9 1808.6 14356.3 1871.8 14356.3 1951.8V2170.2C14356.3 2250.2 14377.9 2314.2 14421.1 2362.2C14465.9 2408.6 14521.9 2431.8 14589.1 2431.8ZM16154.9 2719.8C16058.9 2719.8 15973.3 2704.6 15898.1 2674.2C15822.9 2642.2 15758.9 2598.2 15706.1 2542.2C15654.9 2484.6 15615.7 2415 15588.5 2333.4C15562.9 2251.8 15550.1 2160.6 15550.1 2059.8C15550.1 1960.6 15562.9 1871 15588.5 1791C15614.1 1709.4 15651.7 1639.8 15701.3 1582.2C15752.5 1524.6 15814.9 1480.6 15888.5 1450.2C15962.1 1418.2 16046.1 1402.2 16140.5 1402.2C16244.5 1402.2 16333.3 1419.8 16406.9 1455C16482.1 1490.2 16542.9 1537.4 16589.3 1596.6C16637.3 1655.8 16671.7 1724.6 16692.5 1803C16714.9 1879.8 16726.1 1960.6 16726.1 2045.4V2151H15917.3V2170.2C15917.3 2253.4 15939.7 2319.8 15984.5 2369.4C16029.3 2417.4 16099.7 2441.4 16195.7 2441.4C16269.3 2441.4 16329.3 2427 16375.7 2398.2C16422.1 2367.8 16465.3 2331.8 16505.3 2290.2L16682.9 2511C16626.9 2576.6 16553.3 2627.8 16462.1 2664.6C16372.5 2701.4 16270.1 2719.8 16154.9 2719.8ZM16147.7 1663.8C16075.7 1663.8 16018.9 1687.8 15977.3 1735.8C15937.3 1782.2 15917.3 1844.6 15917.3 1923V1942.2H16358.9V1920.6C16358.9 1843.8 16341.3 1782.2 16306.1 1735.8C16272.5 1687.8 16219.7 1663.8 16147.7 1663.8ZM17342.3 2691L16929.5 1431H17279.9L17435.9 1939.8L17553.5 2395.8H17572.7L17690.3 1939.8L17841.5 1431H18177.5L17764.7 2691H17342.3Z"/>
</mask>
<path d="M5334.6 2691V1431H5689.8V1704.6H5701.8C5708.2 1669.4 5719.4 1635.8 5735.4 1603.8C5751.4 1570.2 5772.2 1540.6 5797.8 1515C5825 1489.4 5857 1469.4 5893.8 1455C5930.6 1439 5973.8 1431 6023.4 1431H6085.8V1762.2H5997C5893 1762.2 5815.4 1775.8 5764.2 1803C5714.6 1830.2 5689.8 1880.6 5689.8 1954.2V2691H5334.6ZM7168.91 2479.8H7156.91C7145.71 2511.8 7130.51 2542.2 7111.31 2571C7093.71 2599.8 7070.51 2625.4 7041.71 2647.8C7012.91 2670.2 6978.51 2687.8 6938.51 2700.6C6900.11 2713.4 6855.31 2719.8 6804.11 2719.8C6674.51 2719.8 6576.11 2677.4 6508.91 2592.6C6443.31 2506.2 6410.51 2383 6410.51 2223V1431H6765.71V2191.8C6765.71 2268.6 6779.31 2327.8 6806.51 2369.4C6833.71 2411 6880.11 2431.8 6945.71 2431.8C6972.91 2431.8 7000.11 2427.8 7027.31 2419.8C7054.51 2411.8 7078.51 2400.6 7099.31 2386.2C7120.11 2370.2 7136.91 2351 7149.71 2328.6C7162.51 2306.2 7168.91 2279.8 7168.91 2249.4V1431H7524.11V2691H7168.91V2479.8ZM7974.6 2691V1431H8329.8V1644.6H8344.2C8366.6 1579 8405.8 1522.2 8461.8 1474.2C8517.8 1426.2 8595.4 1402.2 8694.6 1402.2C8824.2 1402.2 8921.8 1445.4 8987.4 1531.8C9054.6 1618.2 9088.2 1741.4 9088.2 1901.4V2691H8733V1930.2C8733 1848.6 8720.2 1788.6 8694.6 1750.2C8669 1710.2 8623.4 1690.2 8557.8 1690.2C8529 1690.2 8501 1694.2 8473.8 1702.2C8446.6 1708.6 8421.8 1719.8 8399.4 1735.8C8378.6 1751.8 8361.8 1771.8 8349 1795.8C8336.2 1818.2 8329.8 1844.6 8329.8 1875V2691H7974.6ZM9524.29 2691V1431H9879.49V1644.6H9893.89C9916.29 1577.4 9954.69 1520.6 10009.1 1474.2C10063.5 1426.2 10137.9 1402.2 10232.3 1402.2C10318.7 1402.2 10392.3 1423.8 10453.1 1467C10513.9 1510.2 10557.9 1573.4 10585.1 1656.6H10592.3C10603.5 1621.4 10620.3 1588.6 10642.7 1558.2C10666.7 1526.2 10695.5 1499 10729.1 1476.6C10762.7 1454.2 10800.3 1436.6 10841.9 1423.8C10883.5 1409.4 10928.3 1402.2 10976.3 1402.2C11097.9 1402.2 11190.7 1445.4 11254.7 1531.8C11320.3 1618.2 11353.1 1741.4 11353.1 1901.4V2691H10997.9V1930.2C10997.9 1770.2 10940.3 1690.2 10825.1 1690.2C10772.3 1690.2 10724.3 1705.4 10681.1 1735.8C10637.9 1766.2 10616.3 1812.6 10616.3 1875V2691H10261.1V1930.2C10261.1 1770.2 10203.5 1690.2 10088.3 1690.2C10062.7 1690.2 10037.1 1694.2 10011.5 1702.2C9987.49 1708.6 9965.09 1719.8 9944.29 1735.8C9925.09 1751.8 9909.09 1771.8 9896.29 1795.8C9885.09 1818.2 9879.49 1844.6 9879.49 1875V2691H9524.29ZM12314.4 2719.8C12218.4 2719.8 12132.8 2704.6 12057.6 2674.2C11982.4 2642.2 11918.4 2598.2 11865.6 2542.2C11814.4 2484.6 11775.2 2415 11748 2333.4C11722.4 2251.8 11709.6 2160.6 11709.6 2059.8C11709.6 1960.6 11722.4 1871 11748 1791C11773.6 1709.4 11811.2 1639.8 11860.8 1582.2C11912 1524.6 11974.4 1480.6 12048 1450.2C12121.6 1418.2 12205.6 1402.2 12300 1402.2C12404 1402.2 12492.8 1419.8 12566.4 1455C12641.6 1490.2 12702.4 1537.4 12748.8 1596.6C12796.8 1655.8 12831.2 1724.6 12852 1803C12874.4 1879.8 12885.6 1960.6 12885.6 2045.4V2151H12076.8V2170.2C12076.8 2253.4 12099.2 2319.8 12144 2369.4C12188.8 2417.4 12259.2 2441.4 12355.2 2441.4C12428.8 2441.4 12488.8 2427 12535.2 2398.2C12581.6 2367.8 12624.8 2331.8 12664.8 2290.2L12842.4 2511C12786.4 2576.6 12712.8 2627.8 12621.6 2664.6C12532 2701.4 12429.6 2719.8 12314.4 2719.8ZM12307.2 1663.8C12235.2 1663.8 12178.4 1687.8 12136.8 1735.8C12096.8 1782.2 12076.8 1844.6 12076.8 1923V1942.2H12518.4V1920.6C12518.4 1843.8 12500.8 1782.2 12465.6 1735.8C12432 1687.8 12379.2 1663.8 12307.2 1663.8ZM13427.7 2717.4C13355.7 2717.4 13302.1 2699.8 13266.9 2664.6C13233.3 2627.8 13216.5 2581.4 13216.5 2525.4V2477.4C13216.5 2421.4 13233.3 2375.8 13266.9 2340.6C13302.1 2303.8 13355.7 2285.4 13427.7 2285.4C13499.7 2285.4 13552.5 2303.8 13586.1 2340.6C13621.3 2375.8 13638.9 2421.4 13638.9 2477.4V2525.4C13638.9 2581.4 13621.3 2627.8 13586.1 2664.6C13552.5 2699.8 13499.7 2717.4 13427.7 2717.4ZM14821.9 2479.8H14809.9C14800.3 2513.4 14785.1 2545.4 14764.3 2575.8C14743.5 2604.6 14717.9 2630.2 14687.5 2652.6C14658.7 2673.4 14625.1 2689.4 14586.7 2700.6C14549.9 2713.4 14511.5 2719.8 14471.5 2719.8C14311.5 2719.8 14190.7 2663.8 14109.1 2551.8C14027.5 2438.2 13986.7 2274.2 13986.7 2059.8C13986.7 1845.4 14027.5 1682.2 14109.1 1570.2C14190.7 1458.2 14311.5 1402.2 14471.5 1402.2C14553.1 1402.2 14625.1 1424.6 14687.5 1469.4C14751.5 1514.2 14792.3 1571.8 14809.9 1642.2H14821.9V915H15177.1V2691H14821.9V2479.8ZM14589.1 2431.8C14656.3 2431.8 14711.5 2415.8 14754.7 2383.8C14799.5 2350.2 14821.9 2304.6 14821.9 2247V1875C14821.9 1817.4 14799.5 1772.6 14754.7 1740.6C14711.5 1707 14656.3 1690.2 14589.1 1690.2C14521.9 1690.2 14465.9 1714.2 14421.1 1762.2C14377.9 1808.6 14356.3 1871.8 14356.3 1951.8V2170.2C14356.3 2250.2 14377.9 2314.2 14421.1 2362.2C14465.9 2408.6 14521.9 2431.8 14589.1 2431.8ZM16154.9 2719.8C16058.9 2719.8 15973.3 2704.6 15898.1 2674.2C15822.9 2642.2 15758.9 2598.2 15706.1 2542.2C15654.9 2484.6 15615.7 2415 15588.5 2333.4C15562.9 2251.8 15550.1 2160.6 15550.1 2059.8C15550.1 1960.6 15562.9 1871 15588.5 1791C15614.1 1709.4 15651.7 1639.8 15701.3 1582.2C15752.5 1524.6 15814.9 1480.6 15888.5 1450.2C15962.1 1418.2 16046.1 1402.2 16140.5 1402.2C16244.5 1402.2 16333.3 1419.8 16406.9 1455C16482.1 1490.2 16542.9 1537.4 16589.3 1596.6C16637.3 1655.8 16671.7 1724.6 16692.5 1803C16714.9 1879.8 16726.1 1960.6 16726.1 2045.4V2151H15917.3V2170.2C15917.3 2253.4 15939.7 2319.8 15984.5 2369.4C16029.3 2417.4 16099.7 2441.4 16195.7 2441.4C16269.3 2441.4 16329.3 2427 16375.7 2398.2C16422.1 2367.8 16465.3 2331.8 16505.3 2290.2L16682.9 2511C16626.9 2576.6 16553.3 2627.8 16462.1 2664.6C16372.5 2701.4 16270.1 2719.8 16154.9 2719.8ZM16147.7 1663.8C16075.7 1663.8 16018.9 1687.8 15977.3 1735.8C15937.3 1782.2 15917.3 1844.6 15917.3 1923V1942.2H16358.9V1920.6C16358.9 1843.8 16341.3 1782.2 16306.1 1735.8C16272.5 1687.8 16219.7 1663.8 16147.7 1663.8ZM17342.3 2691L16929.5 1431H17279.9L17435.9 1939.8L17553.5 2395.8H17572.7L17690.3 1939.8L17841.5 1431H18177.5L17764.7 2691H17342.3Z" fill="white"/>
<path d="M5334.6 2691H5329.6V2696H5334.6V2691ZM5334.6 1431V1426H5329.6V1431H5334.6ZM5689.8 1431H5694.8V1426H5689.8V1431ZM5689.8 1704.6H5684.8V1709.6H5689.8V1704.6ZM5701.8 1704.6V1709.6H5705.97L5706.72 1705.49L5701.8 1704.6ZM5735.4 1603.8L5739.87 1606.04L5739.89 1605.99L5739.91 1605.95L5735.4 1603.8ZM5797.8 1515L5794.37 1511.36L5794.32 1511.41L5794.26 1511.46L5797.8 1515ZM5893.8 1455L5895.62 1459.66L5895.71 1459.62L5895.79 1459.59L5893.8 1455ZM6085.8 1431H6090.8V1426H6085.8V1431ZM6085.8 1762.2V1767.2H6090.8V1762.2H6085.8ZM5764.2 1803L5761.85 1798.58L5761.82 1798.6L5761.8 1798.62L5764.2 1803ZM5689.8 2691V2696H5694.8V2691H5689.8ZM5339.6 2691V1431H5329.6V2691H5339.6ZM5334.6 1436H5689.8V1426H5334.6V1436ZM5684.8 1431V1704.6H5694.8V1431H5684.8ZM5689.8 1709.6H5701.8V1699.6H5689.8V1709.6ZM5706.72 1705.49C5713.03 1670.76 5724.08 1637.61 5739.87 1606.04L5730.93 1601.56C5714.72 1633.99 5703.37 1668.04 5696.88 1703.71L5706.72 1705.49ZM5739.91 1605.95C5755.68 1572.85 5776.15 1543.72 5801.34 1518.54L5794.26 1511.46C5768.25 1537.48 5747.12 1567.55 5730.89 1601.65L5739.91 1605.95ZM5801.23 1518.64C5827.94 1493.5 5859.38 1473.84 5895.62 1459.66L5891.98 1450.34C5854.62 1464.96 5822.06 1485.3 5794.37 1511.36L5801.23 1518.64ZM5895.79 1459.59C5931.83 1443.92 5974.33 1436 6023.4 1436V1426C5973.27 1426 5929.37 1434.08 5891.81 1450.41L5895.79 1459.59ZM6023.4 1436H6085.8V1426H6023.4V1436ZM6080.8 1431V1762.2H6090.8V1431H6080.8ZM6085.8 1757.2H5997V1767.2H6085.8V1757.2ZM5997 1757.2C5892.74 1757.2 5814.14 1770.81 5761.85 1798.58L5766.55 1807.42C5816.66 1780.79 5893.26 1767.2 5997 1767.2V1757.2ZM5761.8 1798.62C5710.1 1826.96 5684.8 1879.41 5684.8 1954.2H5694.8C5694.8 1881.79 5719.1 1833.44 5766.6 1807.38L5761.8 1798.62ZM5684.8 1954.2V2691H5694.8V1954.2H5684.8ZM5689.8 2686H5334.6V2696H5689.8V2686ZM7168.91 2479.8H7173.91V2474.8H7168.91V2479.8ZM7156.91 2479.8V2474.8H7153.37L7152.19 2478.15L7156.91 2479.8ZM7111.31 2571L7107.15 2568.23L7107.1 2568.31L7107.05 2568.39L7111.31 2571ZM7041.71 2647.8L7038.64 2643.85L7038.64 2643.85L7041.71 2647.8ZM6938.51 2700.6L6936.99 2695.84L6936.96 2695.85L6936.93 2695.86L6938.51 2700.6ZM6508.91 2592.6L6504.93 2595.62L6504.96 2595.66L6504.99 2595.71L6508.91 2592.6ZM6410.51 1431V1426H6405.51V1431H6410.51ZM6765.71 1431H6770.71V1426H6765.71V1431ZM6806.51 2369.4L6810.7 2366.66L6810.7 2366.66L6806.51 2369.4ZM7027.31 2419.8L7028.72 2424.6L7028.72 2424.6L7027.31 2419.8ZM7099.31 2386.2L7102.16 2390.31L7102.26 2390.24L7102.36 2390.16L7099.31 2386.2ZM7149.71 2328.6L7154.05 2331.08L7154.05 2331.08L7149.71 2328.6ZM7168.91 1431V1426H7163.91V1431H7168.91ZM7524.11 1431H7529.11V1426H7524.11V1431ZM7524.11 2691V2696H7529.11V2691H7524.11ZM7168.91 2691H7163.91V2696H7168.91V2691ZM7168.91 2474.8H7156.91V2484.8H7168.91V2474.8ZM7152.19 2478.15C7141.13 2509.74 7126.12 2539.77 7107.15 2568.23L7115.47 2573.77C7134.9 2544.63 7150.29 2513.86 7161.63 2481.45L7152.19 2478.15ZM7107.05 2568.39C7089.79 2596.64 7067.01 2621.79 7038.64 2643.85L7044.78 2651.75C7074.02 2629.01 7097.64 2602.96 7115.58 2573.61L7107.05 2568.39ZM7038.64 2643.85C7010.37 2665.84 6976.51 2683.19 6936.99 2695.84L6940.04 2705.36C6980.51 2692.41 7015.45 2674.56 7044.78 2651.75L7038.64 2643.85ZM6936.93 2695.86C6899.16 2708.45 6854.91 2714.8 6804.11 2714.8V2724.8C6855.71 2724.8 6901.07 2718.35 6940.09 2705.34L6936.93 2695.86ZM6804.11 2714.8C6675.7 2714.8 6578.89 2672.86 6512.83 2589.49L6504.99 2595.71C6573.33 2681.94 6673.32 2724.8 6804.11 2724.8V2714.8ZM6512.89 2589.58C6448.2 2504.37 6415.51 2382.4 6415.51 2223H6405.51C6405.51 2383.6 6438.42 2508.03 6504.93 2595.62L6512.89 2589.58ZM6415.51 2223V1431H6405.51V2223H6415.51ZM6410.51 1436H6765.71V1426H6410.51V1436ZM6760.71 1431V2191.8H6770.71V1431H6760.71ZM6760.71 2191.8C6760.71 2269.08 6774.38 2329.39 6802.33 2372.14L6810.7 2366.66C6784.25 2326.21 6770.71 2268.12 6770.71 2191.8H6760.71ZM6802.33 2372.14C6830.74 2415.59 6879.03 2436.8 6945.71 2436.8V2426.8C6881.2 2426.8 6836.69 2406.41 6810.7 2366.66L6802.33 2372.14ZM6945.71 2436.8C6973.41 2436.8 7001.08 2432.73 7028.72 2424.6L7025.9 2415C6999.14 2422.87 6972.42 2426.8 6945.71 2426.8V2436.8ZM7028.72 2424.6C7056.37 2416.46 7080.87 2405.05 7102.16 2390.31L7096.47 2382.09C7076.15 2396.15 7052.65 2407.14 7025.9 2415L7028.72 2424.6ZM7102.36 2390.16C7123.68 2373.77 7140.92 2354.07 7154.05 2331.08L7145.37 2326.12C7132.91 2347.93 7116.55 2366.63 7096.26 2382.24L7102.36 2390.16ZM7154.05 2331.08C7167.36 2307.8 7173.91 2280.51 7173.91 2249.4H7163.91C7163.91 2279.09 7157.67 2304.6 7145.37 2326.12L7154.05 2331.08ZM7173.91 2249.4V1431H7163.91V2249.4H7173.91ZM7168.91 1436H7524.11V1426H7168.91V1436ZM7519.11 1431V2691H7529.11V1431H7519.11ZM7524.11 2686H7168.91V2696H7524.11V2686ZM7173.91 2691V2479.8H7163.91V2691H7173.91ZM7974.6 2691H7969.6V2696H7974.6V2691ZM7974.6 1431V1426H7969.6V1431H7974.6ZM8329.8 1431H8334.8V1426H8329.8V1431ZM8329.8 1644.6H8324.8V1649.6H8329.8V1644.6ZM8344.2 1644.6V1649.6H8347.78L8348.93 1646.22L8344.2 1644.6ZM8461.8 1474.2L8458.55 1470.4L8458.55 1470.4L8461.8 1474.2ZM8987.4 1531.8L8983.42 1534.82L8983.44 1534.85L8983.45 1534.87L8987.4 1531.8ZM9088.2 2691V2696H9093.2V2691H9088.2ZM8733 2691H8728V2696H8733V2691ZM8694.6 1750.2L8690.39 1752.9L8690.41 1752.93L8690.44 1752.97L8694.6 1750.2ZM8473.8 1702.2L8474.95 1707.07L8475.08 1707.04L8475.21 1707L8473.8 1702.2ZM8399.4 1735.8L8396.49 1731.73L8396.42 1731.78L8396.35 1731.84L8399.4 1735.8ZM8349 1795.8L8353.34 1798.28L8353.38 1798.22L8353.41 1798.15L8349 1795.8ZM8329.8 2691V2696H8334.8V2691H8329.8ZM7979.6 2691V1431H7969.6V2691H7979.6ZM7974.6 1436H8329.8V1426H7974.6V1436ZM8324.8 1431V1644.6H8334.8V1431H8324.8ZM8329.8 1649.6H8344.2V1639.6H8329.8V1649.6ZM8348.93 1646.22C8371.02 1581.52 8409.69 1525.45 8465.05 1478L8458.55 1470.4C8401.91 1518.95 8362.18 1576.48 8339.47 1642.98L8348.93 1646.22ZM8465.05 1478C8519.88 1431.01 8596.18 1407.2 8694.6 1407.2V1397.2C8594.62 1397.2 8515.72 1421.39 8458.55 1470.4L8465.05 1478ZM8694.6 1407.2C8822.98 1407.2 8918.95 1449.92 8983.42 1534.82L8991.38 1528.78C8924.65 1440.88 8825.42 1397.2 8694.6 1397.2V1407.2ZM8983.45 1534.87C9049.72 1620.07 9083.2 1742.02 9083.2 1901.4H9093.2C9093.2 1740.78 9059.48 1616.33 8991.35 1528.73L8983.45 1534.87ZM9083.2 1901.4V2691H9093.2V1901.4H9083.2ZM9088.2 2686H8733V2696H9088.2V2686ZM8738 2691V1930.2H8728V2691H8738ZM8738 1930.2C8738 1848.28 8725.19 1787.07 8698.76 1747.43L8690.44 1752.97C8715.21 1790.13 8728 1848.92 8728 1930.2H8738ZM8698.81 1747.5C8671.96 1705.55 8624.39 1685.2 8557.8 1685.2V1695.2C8622.41 1695.2 8666.04 1714.85 8690.39 1752.9L8698.81 1747.5ZM8557.8 1685.2C8528.53 1685.2 8500.05 1689.27 8472.39 1697.4L8475.21 1707C8501.95 1699.13 8529.47 1695.2 8557.8 1695.2V1685.2ZM8472.65 1697.33C8444.83 1703.88 8419.43 1715.35 8396.49 1731.73L8402.31 1739.87C8424.17 1724.25 8448.37 1713.32 8474.95 1707.07L8472.65 1697.33ZM8396.35 1731.84C8374.97 1748.29 8357.71 1768.84 8344.59 1793.45L8353.41 1798.15C8365.89 1774.76 8382.23 1755.31 8402.45 1739.76L8396.35 1731.84ZM8344.66 1793.32C8331.36 1816.6 8324.8 1843.89 8324.8 1875H8334.8C8334.8 1845.31 8341.04 1819.8 8353.34 1798.28L8344.66 1793.32ZM8324.8 1875V2691H8334.8V1875H8324.8ZM8329.8 2686H7974.6V2696H8329.8V2686ZM9524.29 2691H9519.29V2696H9524.29V2691ZM9524.29 1431V1426H9519.29V1431H9524.29ZM9879.49 1431H9884.49V1426H9879.49V1431ZM9879.49 1644.6H9874.49V1649.6H9879.49V1644.6ZM9893.89 1644.6V1649.6H9897.49L9898.63 1646.18L9893.89 1644.6ZM10009.1 1474.2L10012.3 1478L10012.4 1477.98L10012.4 1477.95L10009.1 1474.2ZM10453.1 1467L10456 1462.92L10456 1462.92L10453.1 1467ZM10585.1 1656.6L10580.3 1658.15L10581.5 1661.6H10585.1V1656.6ZM10592.3 1656.6V1661.6H10595.9L10597.1 1658.12L10592.3 1656.6ZM10642.7 1558.2L10638.7 1555.2L10638.7 1555.22L10638.7 1555.23L10642.7 1558.2ZM10729.1 1476.6L10731.9 1480.76L10731.9 1480.76L10729.1 1476.6ZM10841.9 1423.8L10843.4 1428.58L10843.4 1428.55L10843.5 1428.52L10841.9 1423.8ZM11254.7 1531.8L11250.7 1534.78L11250.7 1534.8L11250.7 1534.82L11254.7 1531.8ZM11353.1 2691V2696H11358.1V2691H11353.1ZM10997.9 2691H10992.9V2696H10997.9V2691ZM10681.1 1735.8L10678.2 1731.71L10678.2 1731.71L10681.1 1735.8ZM10616.3 2691V2696H10621.3V2691H10616.3ZM10261.1 2691H10256.1V2696H10261.1V2691ZM10011.5 1702.2L10012.8 1707.03L10012.9 1707L10013 1706.97L10011.5 1702.2ZM9944.29 1735.8L9941.24 1731.84L9941.16 1731.9L9941.09 1731.96L9944.29 1735.8ZM9896.29 1795.8L9891.88 1793.45L9891.84 1793.51L9891.82 1793.56L9896.29 1795.8ZM9879.49 2691V2696H9884.49V2691H9879.49ZM9529.29 2691V1431H9519.29V2691H9529.29ZM9524.29 1436H9879.49V1426H9524.29V1436ZM9874.49 1431V1644.6H9884.49V1431H9874.49ZM9879.49 1649.6H9893.89V1639.6H9879.49V1649.6ZM9898.63 1646.18C9920.74 1579.85 9958.62 1523.82 10012.3 1478L10005.8 1470.4C9950.76 1517.38 9911.83 1574.95 9889.14 1643.02L9898.63 1646.18ZM10012.4 1477.95C10065.6 1430.97 10138.7 1407.2 10232.3 1407.2V1397.2C10137 1397.2 10061.3 1421.43 10005.8 1470.45L10012.4 1477.95ZM10232.3 1407.2C10317.8 1407.2 10390.4 1428.57 10450.2 1471.08L10456 1462.92C10394.2 1419.03 10319.6 1397.2 10232.3 1397.2V1407.2ZM10450.2 1471.08C10510 1513.55 10553.4 1575.79 10580.3 1658.15L10589.8 1655.05C10562.4 1571.01 10517.8 1506.85 10456 1462.92L10450.2 1471.08ZM10585.1 1661.6H10592.3V1651.6H10585.1V1661.6ZM10597.1 1658.12C10608.1 1623.45 10624.6 1591.14 10646.7 1561.17L10638.7 1555.23C10615.9 1586.06 10598.9 1619.35 10587.5 1655.08L10597.1 1658.12ZM10646.7 1561.2C10670.3 1529.66 10698.7 1502.85 10731.9 1480.76L10726.3 1472.44C10692.2 1495.15 10663 1522.74 10638.7 1555.2L10646.7 1561.2ZM10731.9 1480.76C10765 1458.65 10802.2 1441.25 10843.4 1428.58L10840.4 1419.02C10798.4 1431.95 10760.3 1449.75 10726.3 1472.44L10731.9 1480.76ZM10843.5 1428.52C10884.6 1414.32 10928.8 1407.2 10976.3 1407.2V1397.2C10927.8 1397.2 10882.4 1404.48 10840.3 1419.08L10843.5 1428.52ZM10976.3 1407.2C11096.5 1407.2 11187.7 1449.83 11250.7 1534.78L11258.7 1528.82C11193.6 1440.97 11099.2 1397.2 10976.3 1397.2V1407.2ZM11250.7 1534.82C11315.4 1620.03 11348.1 1742 11348.1 1901.4H11358.1C11358.1 1740.8 11325.2 1616.37 11258.7 1528.78L11250.7 1534.82ZM11348.1 1901.4V2691H11358.1V1901.4H11348.1ZM11353.1 2686H10997.9V2696H11353.1V2686ZM11002.9 2691V1930.2H10992.9V2691H11002.9ZM11002.9 1930.2C11002.9 1849.75 10988.4 1788.51 10958.7 1747.28C10928.8 1705.74 10884 1685.2 10825.1 1685.2V1695.2C10881.4 1695.2 10922.9 1714.66 10950.6 1753.12C10978.5 1791.89 10992.9 1850.65 10992.9 1930.2H11002.9ZM10825.1 1685.2C10771.3 1685.2 10722.3 1700.72 10678.2 1731.71L10684 1739.89C10726.3 1710.08 10773.3 1695.2 10825.1 1695.2V1685.2ZM10678.2 1731.71C10633.4 1763.23 10611.3 1811.31 10611.3 1875H10621.3C10621.3 1813.89 10642.3 1769.17 10684 1739.89L10678.2 1731.71ZM10611.3 1875V2691H10621.3V1875H10611.3ZM10616.3 2686H10261.1V2696H10616.3V2686ZM10266.1 2691V1930.2H10256.1V2691H10266.1ZM10266.1 1930.2C10266.1 1849.75 10251.6 1788.51 10221.9 1747.28C10192 1705.74 10147.2 1685.2 10088.3 1685.2V1695.2C10144.6 1695.2 10186.1 1714.66 10213.8 1753.12C10241.7 1791.89 10256.1 1850.65 10256.1 1930.2H10266.1ZM10088.3 1685.2C10062.2 1685.2 10036.1 1689.28 10010 1697.43L10013 1706.97C10038.1 1699.12 10063.2 1695.2 10088.3 1695.2V1685.2ZM10010.2 1697.37C9985.53 1703.95 9962.53 1715.46 9941.24 1731.84L9947.34 1739.76C9967.64 1724.14 9989.45 1713.25 10012.8 1707.03L10010.2 1697.37ZM9941.09 1731.96C9921.35 1748.41 9904.95 1768.93 9891.88 1793.45L9900.7 1798.15C9913.22 1774.67 9928.83 1755.19 9947.49 1739.64L9941.09 1731.96ZM9891.82 1793.56C9880.2 1816.79 9874.49 1843.99 9874.49 1875H9884.49C9884.49 1845.21 9889.97 1819.61 9900.76 1798.04L9891.82 1793.56ZM9874.49 1875V2691H9884.49V1875H9874.49ZM9879.49 2686H9524.29V2696H9879.49V2686ZM12057.6 2674.2L12055.7 2678.8L12055.7 2678.82L12055.7 2678.84L12057.6 2674.2ZM11865.6 2542.2L11861.9 2545.52L11861.9 2545.58L11862 2545.63L11865.6 2542.2ZM11748 2333.4L11743.2 2334.9L11743.3 2334.94L11743.3 2334.98L11748 2333.4ZM11748 1791L11752.8 1792.52L11752.8 1792.51L11752.8 1792.5L11748 1791ZM11860.8 1582.2L11857.1 1578.88L11857.1 1578.91L11857 1578.94L11860.8 1582.2ZM12048 1450.2L12049.9 1454.82L12050 1454.8L12050 1454.79L12048 1450.2ZM12566.4 1455L12564.3 1459.51L12564.3 1459.52L12564.3 1459.53L12566.4 1455ZM12748.8 1596.6L12744.9 1599.68L12744.9 1599.72L12744.9 1599.75L12748.8 1596.6ZM12852 1803L12847.2 1804.28L12847.2 1804.34L12847.2 1804.4L12852 1803ZM12885.6 2151V2156H12890.6V2151H12885.6ZM12076.8 2151V2146H12071.8V2151H12076.8ZM12144 2369.4L12140.3 2372.75L12140.3 2372.78L12140.4 2372.81L12144 2369.4ZM12535.2 2398.2L12537.9 2402.45L12537.9 2402.42L12538 2402.38L12535.2 2398.2ZM12664.8 2290.2L12668.7 2287.07L12665.2 2282.64L12661.2 2286.73L12664.8 2290.2ZM12842.4 2511L12846.2 2514.25L12848.9 2511.09L12846.3 2507.87L12842.4 2511ZM12621.6 2664.6L12619.7 2659.96L12619.7 2659.97L12619.7 2659.97L12621.6 2664.6ZM12136.8 1735.8L12133 1732.53L12133 1732.54L12136.8 1735.8ZM12076.8 1942.2H12071.8V1947.2H12076.8V1942.2ZM12518.4 1942.2V1947.2H12523.4V1942.2H12518.4ZM12465.6 1735.8L12461.5 1738.67L12461.6 1738.75L12461.6 1738.82L12465.6 1735.8ZM12314.4 2714.8C12218.9 2714.8 12134 2699.68 12059.5 2669.56L12055.7 2678.84C12131.6 2709.52 12217.9 2724.8 12314.4 2724.8V2714.8ZM12059.6 2669.6C11985 2637.85 11921.6 2594.24 11869.3 2538.77L11862 2545.63C11915.3 2602.16 11979.9 2646.55 12055.7 2678.8L12059.6 2669.6ZM11869.4 2538.88C11818.7 2481.84 11779.8 2412.85 11752.8 2331.82L11743.3 2334.98C11770.7 2417.15 11810.2 2487.36 11861.9 2545.52L11869.4 2538.88ZM11752.8 2331.9C11727.4 2250.87 11714.6 2160.18 11714.6 2059.8H11704.6C11704.6 2161.02 11717.5 2252.73 11743.2 2334.9L11752.8 2331.9ZM11714.6 2059.8C11714.6 1961.03 11727.4 1871.95 11752.8 1792.52L11743.3 1789.48C11717.5 1870.05 11704.6 1960.17 11704.6 2059.8H11714.6ZM11752.8 1792.5C11778.2 1711.46 11815.5 1642.49 11864.6 1585.46L11857 1578.94C11806.9 1637.11 11769 1707.34 11743.2 1789.5L11752.8 1792.5ZM11864.6 1585.52C11915.2 1528.51 11977 1484.94 12049.9 1454.82L12046.1 1445.58C11971.8 1476.26 11908.8 1520.69 11857.1 1578.88L11864.6 1585.52ZM12050 1454.79C12122.9 1423.1 12206.2 1407.2 12300 1407.2V1397.2C12205.1 1397.2 12120.4 1413.3 12046 1445.61L12050 1454.79ZM12300 1407.2C12403.5 1407.2 12491.5 1424.71 12564.3 1459.51L12568.6 1450.49C12494.1 1414.89 12404.6 1397.2 12300 1397.2V1407.2ZM12564.3 1459.53C12638.9 1494.43 12699 1541.16 12744.9 1599.68L12752.8 1593.52C12705.8 1533.64 12644.4 1485.97 12568.5 1450.47L12564.3 1459.53ZM12744.9 1599.75C12792.5 1658.37 12826.6 1726.52 12847.2 1804.28L12856.9 1801.72C12835.9 1722.68 12801.2 1653.23 12752.7 1593.45L12744.9 1599.75ZM12847.2 1804.4C12869.5 1880.72 12880.6 1961.05 12880.6 2045.4H12890.6C12890.6 1960.15 12879.4 1878.88 12856.8 1801.6L12847.2 1804.4ZM12880.6 2045.4V2151H12890.6V2045.4H12880.6ZM12885.6 2146H12076.8V2156H12885.6V2146ZM12071.8 2151V2170.2H12081.8V2151H12071.8ZM12071.8 2170.2C12071.8 2254.32 12094.5 2322.02 12140.3 2372.75L12147.7 2366.05C12103.9 2317.58 12081.8 2252.48 12081.8 2170.2H12071.8ZM12140.4 2372.81C12186.5 2422.22 12258.5 2446.4 12355.2 2446.4V2436.4C12260 2436.4 12191.2 2412.58 12147.7 2365.99L12140.4 2372.81ZM12355.2 2446.4C12429.4 2446.4 12490.4 2431.88 12537.9 2402.45L12532.6 2393.95C12487.2 2422.12 12428.2 2436.4 12355.2 2436.4V2446.4ZM12538 2402.38C12584.7 2371.77 12628.2 2335.53 12668.4 2293.67L12661.2 2286.73C12621.5 2328.07 12578.6 2363.83 12532.5 2394.02L12538 2402.38ZM12660.9 2293.33L12838.5 2514.13L12846.3 2507.87L12668.7 2287.07L12660.9 2293.33ZM12838.6 2507.75C12783.2 2572.66 12710.3 2623.42 12619.7 2659.96L12623.5 2669.24C12715.3 2632.18 12789.6 2580.54 12846.2 2514.25L12838.6 2507.75ZM12619.7 2659.97C12530.8 2696.49 12429.1 2714.8 12314.4 2714.8V2724.8C12430.1 2724.8 12533.2 2706.31 12623.5 2669.23L12619.7 2659.97ZM12307.2 1658.8C12234 1658.8 12175.7 1683.28 12133 1732.53L12140.6 1739.07C12181.1 1692.32 12236.5 1668.8 12307.2 1668.8V1658.8ZM12133 1732.54C12092.1 1780.07 12071.8 1843.75 12071.8 1923H12081.8C12081.8 1845.45 12101.6 1784.33 12140.6 1739.06L12133 1732.54ZM12071.8 1923V1942.2H12081.8V1923H12071.8ZM12076.8 1947.2H12518.4V1937.2H12076.8V1947.2ZM12523.4 1942.2V1920.6H12513.4V1942.2H12523.4ZM12523.4 1920.6C12523.4 1843.06 12505.6 1780.29 12469.6 1732.78L12461.6 1738.82C12496 1784.11 12513.4 1844.54 12513.4 1920.6H12523.4ZM12469.7 1732.93C12435 1683.28 12380.4 1658.8 12307.2 1658.8V1668.8C12378 1668.8 12429.1 1692.32 12461.5 1738.67L12469.7 1732.93ZM13266.9 2664.6L13263.2 2667.97L13263.3 2668.06L13263.4 2668.14L13266.9 2664.6ZM13266.9 2340.6L13263.3 2337.14L13263.3 2337.15L13266.9 2340.6ZM13586.1 2340.6L13582.4 2343.97L13582.5 2344.06L13582.6 2344.14L13586.1 2340.6ZM13586.1 2664.6L13582.5 2661.14L13582.5 2661.15L13586.1 2664.6ZM13427.7 2712.4C13356.5 2712.4 13304.4 2694.98 13270.5 2661.06L13263.4 2668.14C13299.9 2704.62 13355 2722.4 13427.7 2722.4V2712.4ZM13270.6 2661.23C13238 2625.47 13221.5 2580.32 13221.5 2525.4H13211.5C13211.5 2582.48 13228.7 2630.13 13263.2 2667.97L13270.6 2661.23ZM13221.5 2525.4V2477.4H13211.5V2525.4H13221.5ZM13221.5 2477.4C13221.5 2422.48 13238 2378.18 13270.5 2344.05L13263.3 2337.15C13228.7 2373.42 13211.5 2420.32 13211.5 2477.4H13221.5ZM13270.5 2344.06C13304.5 2308.59 13356.5 2290.4 13427.7 2290.4V2280.4C13354.9 2280.4 13299.8 2299.01 13263.3 2337.14L13270.5 2344.06ZM13427.7 2290.4C13498.9 2290.4 13550.1 2308.6 13582.4 2343.97L13589.8 2337.23C13554.9 2299 13500.5 2280.4 13427.7 2280.4V2290.4ZM13582.6 2344.14C13616.7 2378.28 13633.9 2422.55 13633.9 2477.4H13643.9C13643.9 2420.25 13625.9 2373.32 13589.7 2337.06L13582.6 2344.14ZM13633.9 2477.4V2525.4H13643.9V2477.4H13633.9ZM13633.9 2525.4C13633.9 2580.25 13616.7 2625.37 13582.5 2661.14L13589.7 2668.06C13625.9 2630.23 13643.9 2582.55 13643.9 2525.4H13633.9ZM13582.5 2661.15C13550.2 2694.97 13499 2712.4 13427.7 2712.4V2722.4C13500.4 2722.4 13554.8 2704.63 13589.7 2668.05L13582.5 2661.15ZM14821.9 2479.8H14826.9V2474.8H14821.9V2479.8ZM14809.9 2479.8V2474.8H14806.2L14805.1 2478.43L14809.9 2479.8ZM14764.3 2575.8L14768.4 2578.73L14768.4 2578.68L14768.5 2578.62L14764.3 2575.8ZM14687.5 2652.6L14690.5 2656.65L14690.5 2656.64L14690.5 2656.63L14687.5 2652.6ZM14586.7 2700.6L14585.3 2695.8L14585.2 2695.84L14585.1 2695.88L14586.7 2700.6ZM14109.1 2551.8L14105.1 2554.72L14105.1 2554.73L14105.1 2554.74L14109.1 2551.8ZM14109.1 1570.2L14105.1 1567.26L14105.1 1567.26L14109.1 1570.2ZM14687.5 1469.4L14684.6 1473.46L14684.6 1473.48L14684.7 1473.5L14687.5 1469.4ZM14809.9 1642.2L14805.1 1643.41L14806 1647.2H14809.9V1642.2ZM14821.9 1642.2V1647.2H14826.9V1642.2H14821.9ZM14821.9 915V910H14816.9V915H14821.9ZM15177.1 915H15182.1V910H15177.1V915ZM15177.1 2691V2696H15182.1V2691H15177.1ZM14821.9 2691H14816.9V2696H14821.9V2691ZM14754.7 2383.8L14757.7 2387.82L14757.7 2387.81L14757.7 2387.8L14754.7 2383.8ZM14754.7 1740.6L14751.7 1744.55L14751.7 1744.61L14751.8 1744.67L14754.7 1740.6ZM14421.1 1762.2L14417.5 1758.79L14417.5 1758.79L14421.1 1762.2ZM14421.1 2362.2L14417.4 2365.54L14417.5 2365.61L14417.5 2365.67L14421.1 2362.2ZM14821.9 2474.8H14809.9V2484.8H14821.9V2474.8ZM14805.1 2478.43C14795.7 2511.48 14780.7 2543 14760.2 2572.98L14768.5 2578.62C14789.5 2547.8 14805 2515.32 14814.7 2481.17L14805.1 2478.43ZM14760.3 2572.87C14739.8 2601.23 14714.6 2626.46 14684.6 2648.57L14690.5 2656.63C14721.3 2633.94 14747.3 2607.97 14768.4 2578.73L14760.3 2572.87ZM14684.6 2648.55C14656.3 2668.97 14623.3 2684.74 14585.3 2695.8L14588.1 2705.4C14627 2694.06 14661.1 2677.83 14690.5 2656.65L14684.6 2648.55ZM14585.1 2695.88C14548.8 2708.49 14511 2714.8 14471.5 2714.8V2724.8C14512.1 2724.8 14551 2718.31 14588.4 2705.32L14585.1 2695.88ZM14471.5 2714.8C14312.8 2714.8 14193.7 2659.35 14113.2 2548.86L14105.1 2554.74C14187.8 2668.25 14310.2 2724.8 14471.5 2724.8V2714.8ZM14113.2 2548.88C14032.4 2436.48 13991.7 2273.68 13991.7 2059.8H13981.7C13981.7 2274.72 14022.6 2439.92 14105.1 2554.72L14113.2 2548.88ZM13991.7 2059.8C13991.7 1845.92 14032.5 1683.94 14113.2 1573.14L14105.1 1567.26C14022.6 1680.46 13981.7 1844.88 13981.7 2059.8H13991.7ZM14113.2 1573.14C14193.7 1462.65 14312.8 1407.2 14471.5 1407.2V1397.2C14310.2 1397.2 14187.8 1453.75 14105.1 1567.26L14113.2 1573.14ZM14471.5 1407.2C14552.2 1407.2 14623.1 1429.31 14684.6 1473.46L14690.4 1465.34C14627.1 1419.89 14554.1 1397.2 14471.5 1397.2V1407.2ZM14684.7 1473.5C14747.8 1517.66 14787.8 1574.27 14805.1 1643.41L14814.8 1640.99C14796.9 1569.33 14755.3 1510.74 14690.4 1465.3L14684.7 1473.5ZM14809.9 1647.2H14821.9V1637.2H14809.9V1647.2ZM14826.9 1642.2V915H14816.9V1642.2H14826.9ZM14821.9 920H15177.1V910H14821.9V920ZM15172.1 915V2691H15182.1V915H15172.1ZM15177.1 2686H14821.9V2696H15177.1V2686ZM14826.9 2691V2479.8H14816.9V2691H14826.9ZM14589.1 2436.8C14657.1 2436.8 14713.5 2420.6 14757.7 2387.82L14751.8 2379.78C14709.6 2411 14655.5 2426.8 14589.1 2426.8V2436.8ZM14757.7 2387.8C14803.8 2353.22 14826.9 2306.12 14826.9 2247H14816.9C14816.9 2303.08 14795.2 2347.18 14751.7 2379.8L14757.7 2387.8ZM14826.9 2247V1875H14816.9V2247H14826.9ZM14826.9 1875C14826.9 1815.87 14803.8 1769.52 14757.6 1736.53L14751.8 1744.67C14795.2 1775.68 14816.9 1818.93 14816.9 1875H14826.9ZM14757.8 1736.65C14713.5 1702.23 14657.2 1685.2 14589.1 1685.2V1695.2C14655.5 1695.2 14709.5 1711.77 14751.7 1744.55L14757.8 1736.65ZM14589.1 1685.2C14520.6 1685.2 14463.2 1709.75 14417.5 1758.79L14424.8 1765.61C14468.6 1718.65 14523.3 1695.2 14589.1 1695.2V1685.2ZM14417.5 1758.79C14373.2 1806.34 14351.3 1870.88 14351.3 1951.8H14361.3C14361.3 1872.72 14382.7 1810.86 14424.8 1765.61L14417.5 1758.79ZM14351.3 1951.8V2170.2H14361.3V1951.8H14351.3ZM14351.3 2170.2C14351.3 2251.13 14373.2 2316.42 14417.4 2365.54L14424.8 2358.86C14382.7 2311.98 14361.3 2249.27 14361.3 2170.2H14351.3ZM14417.5 2365.67C14463.3 2413.09 14520.6 2436.8 14589.1 2436.8V2426.8C14523.2 2426.8 14468.5 2404.11 14424.7 2358.73L14417.5 2365.67ZM15898.1 2674.2L15896.1 2678.8L15896.2 2678.82L15896.2 2678.84L15898.1 2674.2ZM15706.1 2542.2L15702.4 2545.52L15702.4 2545.58L15702.4 2545.63L15706.1 2542.2ZM15588.5 2333.4L15583.7 2334.9L15583.7 2334.94L15583.7 2334.98L15588.5 2333.4ZM15588.5 1791L15593.2 1792.52L15593.3 1792.51L15593.3 1792.5L15588.5 1791ZM15701.3 1582.2L15697.6 1578.88L15697.5 1578.91L15697.5 1578.94L15701.3 1582.2ZM15888.5 1450.2L15890.4 1454.82L15890.4 1454.8L15890.5 1454.79L15888.5 1450.2ZM16406.9 1455L16404.7 1459.51L16404.7 1459.52L16404.8 1459.53L16406.9 1455ZM16589.3 1596.6L16585.4 1599.68L16585.4 1599.72L16585.4 1599.75L16589.3 1596.6ZM16692.5 1803L16687.7 1804.28L16687.7 1804.34L16687.7 1804.4L16692.5 1803ZM16726.1 2151V2156H16731.1V2151H16726.1ZM15917.3 2151V2146H15912.3V2151H15917.3ZM15984.5 2369.4L15980.8 2372.75L15980.8 2372.78L15980.8 2372.81L15984.5 2369.4ZM16375.7 2398.2L16378.3 2402.45L16378.4 2402.42L16378.4 2402.38L16375.7 2398.2ZM16505.3 2290.2L16509.2 2287.07L16505.6 2282.64L16501.7 2286.73L16505.3 2290.2ZM16682.9 2511L16686.7 2514.25L16689.4 2511.09L16686.8 2507.87L16682.9 2511ZM16462.1 2664.6L16460.2 2659.96L16460.2 2659.97L16460.2 2659.97L16462.1 2664.6ZM15977.3 1735.8L15973.5 1732.53L15973.5 1732.54L15977.3 1735.8ZM15917.3 1942.2H15912.3V1947.2H15917.3V1942.2ZM16358.9 1942.2V1947.2H16363.9V1942.2H16358.9ZM16306.1 1735.8L16302 1738.67L16302 1738.75L16302.1 1738.82L16306.1 1735.8ZM16154.9 2714.8C16059.4 2714.8 15974.5 2699.68 15900 2669.56L15896.2 2678.84C15972.1 2709.52 16058.4 2724.8 16154.9 2724.8V2714.8ZM15900 2669.6C15825.4 2637.85 15762 2594.24 15709.7 2538.77L15702.4 2545.63C15755.8 2602.16 15820.3 2646.55 15896.1 2678.8L15900 2669.6ZM15709.8 2538.88C15659.1 2481.84 15620.2 2412.85 15593.2 2331.82L15583.7 2334.98C15611.1 2417.15 15650.7 2487.36 15702.4 2545.52L15709.8 2538.88ZM15593.3 2331.9C15567.8 2250.87 15555.1 2160.18 15555.1 2059.8H15545.1C15545.1 2161.02 15557.9 2252.73 15583.7 2334.9L15593.3 2331.9ZM15555.1 2059.8C15555.1 1961.03 15567.8 1871.95 15593.2 1792.52L15583.7 1789.48C15557.9 1870.05 15545.1 1960.17 15545.1 2059.8H15555.1ZM15593.3 1792.5C15618.7 1711.46 15656 1642.49 15705.1 1585.46L15697.5 1578.94C15647.4 1637.11 15609.5 1707.34 15583.7 1789.5L15593.3 1792.5ZM15705 1585.52C15755.7 1528.51 15817.5 1484.94 15890.4 1454.82L15886.6 1445.58C15812.3 1476.26 15749.3 1520.69 15697.6 1578.88L15705 1585.52ZM15890.5 1454.79C15963.4 1423.1 16046.7 1407.2 16140.5 1407.2V1397.2C16045.5 1397.2 15960.8 1413.3 15886.5 1445.61L15890.5 1454.79ZM16140.5 1407.2C16243.9 1407.2 16332 1424.71 16404.7 1459.51L16409 1450.49C16334.6 1414.89 16245 1397.2 16140.5 1397.2V1407.2ZM16404.8 1459.53C16479.3 1494.43 16539.5 1541.16 16585.4 1599.68L16593.2 1593.52C16546.3 1533.64 16484.8 1485.97 16409 1450.47L16404.8 1459.53ZM16585.4 1599.75C16632.9 1658.37 16667 1726.52 16687.7 1804.28L16697.3 1801.72C16676.4 1722.68 16641.6 1653.23 16593.2 1593.45L16585.4 1599.75ZM16687.7 1804.4C16709.9 1880.72 16721.1 1961.05 16721.1 2045.4H16731.1C16731.1 1960.15 16719.8 1878.88 16697.3 1801.6L16687.7 1804.4ZM16721.1 2045.4V2151H16731.1V2045.4H16721.1ZM16726.1 2146H15917.3V2156H16726.1V2146ZM15912.3 2151V2170.2H15922.3V2151H15912.3ZM15912.3 2170.2C15912.3 2254.32 15935 2322.02 15980.8 2372.75L15988.2 2366.05C15944.4 2317.58 15922.3 2252.48 15922.3 2170.2H15912.3ZM15980.8 2372.81C16026.9 2422.22 16098.9 2446.4 16195.7 2446.4V2436.4C16100.4 2436.4 16031.6 2412.58 15988.1 2365.99L15980.8 2372.81ZM16195.7 2446.4C16269.9 2446.4 16330.9 2431.88 16378.3 2402.45L16373.1 2393.95C16327.7 2422.12 16268.7 2436.4 16195.7 2436.4V2446.4ZM16378.4 2402.38C16425.2 2371.77 16468.6 2335.53 16508.9 2293.67L16501.7 2286.73C16461.9 2328.07 16419 2363.83 16372.9 2394.02L16378.4 2402.38ZM16501.4 2293.33L16679 2514.13L16686.8 2507.87L16509.2 2287.07L16501.4 2293.33ZM16679.1 2507.75C16623.7 2572.66 16550.8 2623.42 16460.2 2659.96L16464 2669.24C16555.8 2632.18 16630.1 2580.54 16686.7 2514.25L16679.1 2507.75ZM16460.2 2659.97C16371.3 2696.49 16269.6 2714.8 16154.9 2714.8V2724.8C16270.6 2724.8 16373.7 2706.31 16464 2669.23L16460.2 2659.97ZM16147.7 1658.8C16074.5 1658.8 16016.2 1683.28 15973.5 1732.53L15981.1 1739.07C16021.6 1692.32 16076.9 1668.8 16147.7 1668.8V1658.8ZM15973.5 1732.54C15932.5 1780.07 15912.3 1843.75 15912.3 1923H15922.3C15922.3 1845.45 15942.1 1784.33 15981.1 1739.06L15973.5 1732.54ZM15912.3 1923V1942.2H15922.3V1923H15912.3ZM15917.3 1947.2H16358.9V1937.2H15917.3V1947.2ZM16363.9 1942.2V1920.6H16353.9V1942.2H16363.9ZM16363.9 1920.6C16363.9 1843.06 16346.1 1780.29 16310.1 1732.78L16302.1 1738.82C16336.5 1784.11 16353.9 1844.54 16353.9 1920.6H16363.9ZM16310.2 1732.93C16275.4 1683.28 16220.9 1658.8 16147.7 1658.8V1668.8C16218.5 1668.8 16269.5 1692.32 16302 1738.67L16310.2 1732.93ZM17342.3 2691L17337.6 2692.56L17338.7 2696H17342.3V2691ZM16929.5 1431V1426H16922.6L16924.8 1432.56L16929.5 1431ZM17279.9 1431L17284.7 1429.53L17283.6 1426H17279.9V1431ZM17435.9 1939.8L17440.7 1938.55L17440.7 1938.44L17440.7 1938.33L17435.9 1939.8ZM17553.5 2395.8L17548.7 2397.05L17549.6 2400.8H17553.5V2395.8ZM17572.7 2395.8V2400.8H17576.6L17577.5 2397.05L17572.7 2395.8ZM17690.3 1939.8L17685.5 1938.38L17685.5 1938.46L17685.5 1938.55L17690.3 1939.8ZM17841.5 1431V1426H17837.8L17836.7 1429.58L17841.5 1431ZM18177.5 1431L18182.3 1432.56L18184.4 1426H18177.5V1431ZM17764.7 2691V2696H17768.3L17769.5 2692.56L17764.7 2691ZM17347.1 2689.44L16934.3 1429.44L16924.8 1432.56L17337.6 2692.56L17347.1 2689.44ZM16929.5 1436H17279.9V1426H16929.5V1436ZM17275.1 1432.47L17431.1 1941.27L17440.7 1938.33L17284.7 1429.53L17275.1 1432.47ZM17431.1 1941.05L17548.7 2397.05L17558.3 2394.55L17440.7 1938.55L17431.1 1941.05ZM17553.5 2400.8H17572.7V2390.8H17553.5V2400.8ZM17577.5 2397.05L17695.1 1941.05L17685.5 1938.55L17567.9 2394.55L17577.5 2397.05ZM17695.1 1941.22L17846.3 1432.42L17836.7 1429.58L17685.5 1938.38L17695.1 1941.22ZM17841.5 1436H18177.5V1426H17841.5V1436ZM18172.8 1429.44L17760 2689.44L17769.5 2692.56L18182.3 1432.56L18172.8 1429.44ZM17764.7 2686H17342.3V2696H17764.7V2686Z" fill="white" mask="url(#path-1-outside-1_2079_207)"/>
</g>
<rect x="70" y="70" width="4183" height="3841.71" rx="340" stroke="white" stroke-width="140"/>
<path d="M3000.1 2096.75L1461.29 2976.97C1381.24 3022.76 1281.61 2964.9 1281.71 2872.68L1283.53 1109.05C1283.63 1016.83 1383.38 959.179 1463.33 1005.13L3000.32 1888.55C3080.68 1934.74 3080.56 2050.72 3000.1 2096.75Z" fill="white" stroke="white" stroke-width="60"/>
<defs>
<filter id="filter0_d_2079_207" x="5325.6" y="910" width="12862.8" height="1822.8" filterUnits="userSpaceOnUse" color-interpolation-filters="sRGB">
<feFlood flood-opacity="0" result="BackgroundImageFix"/>
<feColorMatrix in="SourceAlpha" type="matrix" values="0 0 0 0 0 0 0 0 0 0 0 0 0 0 0 0 0 0 127 0" result="hardAlpha"/>
<feOffset dy="4"/>
<feGaussianBlur stdDeviation="2"/>
<feComposite in2="hardAlpha" operator="out"/>
<feColorMatrix type="matrix" values="0 0 0 0 0 0 0 0 0 0 0 0 0 0 0 0 0 0 0.25 0"/>
<feBlend mode="normal" in2="BackgroundImageFix" result="effect1_dropShadow_2079_207"/>
<feBlend mode="normal" in="SourceGraphic" in2="effect1_dropShadow_2079_207" result="shape"/>
</filter>
</defs>
</svg>
