<svg xmlns="http://www.w3.org/2000/svg" role="img" viewBox="-32.05 -24.55 2056.60 524.10"><style>svg {enable-background:new 0 0 2000 474}</style><style>.st0{fill:#231f20}</style><path d="M429.5 244.8l-83.6 142.7H177.5L93.4 243.1l55.9-103.8H65.2L9 243.8l126.3 218.1H388l125.9-217.1z" class="st0"/><path d="M388 15.2H131.7L92.1 89.7h129v248.1h74.5V89.7h50.3l56.8 105.4h84z" class="st0"/><g><path d="M625.5 246.1v-.4c0-34.4 25.8-64.5 63.8-64.5s63.5 29.8 63.5 64.2v.4c0 34.4-25.8 64.5-63.8 64.5-38-.1-63.5-29.8-63.5-64.2zm112.7 0v-.4c0-28.3-20.7-51.5-49.2-51.5s-48.8 22.8-48.8 51.2v.4c0 28.3 20.7 51.5 49.2 51.5s48.8-22.9 48.8-51.2zm44.3-62.8h46.7c28.2 0 46.7 15 46.7 39.6v.4c0 26.9-22.5 40.8-49 40.8h-30.3v44h-14.1V183.3zm45 67.9c20.7 0 34.2-11.1 34.2-27.4v-.4c0-17.8-13.4-27.1-33.5-27.1h-31.5v54.9h30.8zm74.1-67.9h90.2v12.8h-76.1v42.6h68.1v12.8h-68.1v43.7h77V308h-91.1V183.3zm119.4 0h13.2l78.6 100v-100h13.7v124.8h-11.2l-80.6-102.3v102.3H1021V183.3z" class="st0"/><path d="M1208.9 196.3H1167v-13h98v13h-41.9v111.8h-14.3l.1-111.8zm82.5-13h53.7c15.3 0 27.6 4.6 35.5 12.5 6.1 6.1 9.6 14.8 9.6 24.6v.4c0 20.7-14.3 32.8-33.9 36.4l38.3 51h-17.3l-36.2-48.5h-35.6v48.5h-14.1V183.3zm52.4 63.7c18.7 0 32.1-9.6 32.1-25.7v-.4c0-15.3-11.8-24.6-31.9-24.6h-38.5V247h38.3zm122.6-64.6h13.2l56.9 125.7h-15.2l-14.6-33h-67.9l-14.8 33h-14.4l56.8-125.7zm34.8 79.9l-28.3-63.4-28.5 63.4h56.8zm47-16.2v-.4c0-35.3 26.4-64.5 63.1-64.5 22.6 0 36.2 8 48.7 19.8l-9.6 10.3c-10.5-10-22.3-17.1-39.2-17.1-27.6 0-48.3 22.5-48.3 51.2v.4c0 28.9 20.9 51.5 48.3 51.5 17.1 0 28.3-6.6 40.3-18l9.3 9.1c-13 13.2-27.3 21.9-49.9 21.9-36.1-.1-62.7-28.4-62.7-64.2zm138.4-62.8h14.1v124.8h-14.1V183.3zm50.6 0h13.2l78.6 100v-100h13.7v124.8h-11.2l-80.6-102.3v102.3h-13.7V183.3zm135.3 62.8v-.4c0-34.2 25.1-64.5 62.6-64.5 21 0 34 6.1 46.5 16.6l-9.1 10.7c-9.6-8.4-20.3-14.3-38-14.3-27.6 0-47.4 23.3-47.4 51.2v.4c0 29.8 19.1 51.9 49.4 51.9 14.3 0 27.4-5.5 36-12.5v-31h-38v-12.7h51.5v49.7c-11.6 10.3-29.1 19.1-50.1 19.1-39.2-.1-63.4-28.6-63.4-64.2z" class="st0"/></g></svg>