<svg height="200" viewBox="0 0 720 200" width="720" xmlns="http://www.w3.org/2000/svg"><g fill="#fff" transform="translate(14.190865 12.5)"><g fill-rule="evenodd"><g fill-rule="nonzero"><path d="m60.608247 127.70573 25.61523 40.25723h47.105533l33.7947-40.31564-55.10148-17.61028zm53.144273-22.4982 60.25769 19.23232c1.84039.58739 2.54764 2.19874 1.50847 3.43678l-36.89883 43.95959c-.60618.72219-1.69532 1.16378-2.87032 1.16378h-51.389495c-1.311331 0-2.502143-.54885-3.047339-1.40454l-28.008625-43.9596c-.759927-1.1927-.04737-2.60232 1.60151-3.16821l56.039259-19.23232c.88508-.30375 1.91125-.31392 2.80768-.0278z"/><path d="m2.9787234 175c-1.6451035 0-2.9787234-1.34227-2.9787234-2.99805v-137.053516c0-.831568.34315657-1.62578.94746574-2.192845l34.04255326-31.94444996c1.90446-1.78708477 5.009981-.42781309 5.009981 2.19284476v168.9979662c0 1.65578-1.33362 2.99805-2.978723 2.99805zm31.0638296-5.99609v-159.1058745l-28.0851062 26.3541715v132.751703z"/><path d="m150.5808 31.140041-113.216159-25.4280595 1.334783-5.7119815 138.977676 31.21403c3.46975.779296 2.89224 5.78597-.66739 5.78597h-173.00971v-5.859959z"/><path d="m79.565074 117.23897c0 1.52487-1.245784 2.76103-2.782537 2.76103s-2.782537-1.23616-2.782537-2.76103v-18.477939c0-1.524875 1.245784-2.761031 2.782537-2.761031h30.434923c1.53676 0 2.78254 1.236156 2.78254 2.761031v8.166429c0 1.52487-1.24578 2.76103-2.78254 2.76103-1.53675 0-2.78253-1.23616-2.78253-2.76103v-5.4054h-24.869856z"/><path d="m120.56507 120.15665c0 1.57034-1.24578 2.84335-2.78253 2.84335-1.53676 0-2.78254-1.27301-2.78254-2.84335v-21.313304c0-1.570337 1.24578-2.843346 2.78254-2.843346h30.43492c1.53676 0 2.78254 1.273009 2.78254 2.843346v11.646344c0 1.57034-1.24578 2.84335-2.78254 2.84335-1.53675 0-2.78253-1.27301-2.78253-2.84335v-8.803h-24.86986z" transform="matrix(-1 0 0 1 266 0)"/><path d="m121.49316 85.466146h24.01368v-22.932292h-24.01368zm-3.29589-28.466146h30.60546c1.21352 0 2.19727.991036 2.19727 2.213542v29.572916c0 1.222506-.98375 2.213542-2.19727 2.213542h-30.60546c-1.21352 0-2.19727-.991036-2.19727-2.213542v-29.572916c0-1.222506.98375-2.213542 2.19727-2.213542z"/></g><path d="m133.33297 168 35.66703-42.4968-57-17.5032v60z"/><path d="m90.5 91c-9.664983 0-17.5-7.835017-17.5-17.5s7.835017-17.5 17.5-17.5c9.66498 0 17.5 7.835017 17.5 17.5s-7.83502 17.5-17.5 17.5zm0-5.46875c6.644676 0 12.03125-5.386574 12.03125-12.03125s-5.386574-12.03125-12.03125-12.03125-12.03125 5.386574-12.03125 12.03125 5.386574 12.03125 12.03125 12.03125z" fill-rule="nonzero"/></g><g stroke-width="1.26441"><path d="m227.61208 117.04119q6.71654 0 11.81463-1.78028 5.17901-1.78029 8.65866-4.93625 3.56057-3.23688 5.34086-7.6876 1.78029-4.450714 1.78029-9.791574 0-11.08633-6.87838-17.31733-6.79746-6.231-20.71606-6.231h-18.61208v47.744034zm0-60.125114q11.00541 0 19.09761 2.589507 8.17314 2.508585 13.514 7.202067 5.34085 4.693476 7.93036 11.329096 2.67043 6.63561 2.67043 14.80874 0 8.092214-2.83227 14.808744-2.83228 6.71653-8.33498 11.57186-5.42178 4.85533-13.51399 7.60668-8.01129 2.67043-18.53116 2.67043h-18.61208v43.37424h-15.61796v-115.961364z"/><path d="m301.89822 90.903356v81.974084h-14.40413v-81.974084zm3.07504-25.733226q0 2.103974-.89014 3.965186-.80922 1.78028-2.26582 3.23688-1.37568 1.37567-3.31781 2.1849-1.86121.80922-3.96518.80922-2.10397 0-3.96518-.80922-1.78029-.80923-3.15596-2.1849-1.37568-1.4566-2.1849-3.23688-.80922-1.861212-.80922-3.965186 0-2.103975.80922-3.965183.80922-1.94213 2.1849-3.317806 1.37567-1.456597 3.15596-2.265818 1.86121-.809221 3.96518-.809221 2.10397 0 3.96518.809221 1.94213.809221 3.31781 2.265818 1.4566 1.375676 2.26582 3.317806.89014 1.861208.89014 3.965183z"/><path d="m339.20327 107.33054q3.88426-8.415894 9.5488-13.109384 5.66455-4.7744 13.83768-4.7744 2.58951 0 4.93625.56646 2.42766.56645 4.28887 1.78028l-1.05199 10.762644q-.48553 2.02305-2.42766 2.02305-1.13291 0-3.31781-.48553-2.18489-.48553-4.93624-.48553-3.88426 0-6.9593 1.13291-2.99412 1.13291-5.42178 3.39872-2.34674 2.1849-4.28887 5.50271-1.86121 3.23688-3.39873 7.44483v51.79014h-14.48505v-81.974084h8.25405q2.34674 0 3.23688.89014.89015.89014 1.21383 3.07504z"/><path d="m427.56972 135.97696q-9.95341.32369-16.99363 1.61845-6.9593 1.21383-11.41002 3.23688-4.36979 2.02305-6.39285 4.7744-1.94213 2.75135-1.94213 6.15008 0 3.23689 1.05199 5.58363 1.05199 2.34674 2.83228 3.88426 1.8612 1.45659 4.28887 2.18489 2.50858.64738 5.34085.64738 3.80334 0 6.9593-.7283 3.15597-.80922 5.90732-2.26582 2.83227-1.4566 5.34085-3.47965 2.58951-2.02305 5.01717-4.61256zm-46.5302-33.50174q6.79746-6.554694 14.6469-9.791584 7.84944-3.23688 17.39825-3.23688 6.87838 0 12.21924 2.26582 5.34085 2.26582 8.98235 6.31192 3.64149 4.046114 5.5027 9.791584 1.86121 5.74546 1.86121 12.62384v52.43752h-6.39285q-2.10397 0-3.23688-.64738-1.13291-.7283-1.78029-2.75135l-1.61844-7.76852q-3.23688 2.99412-6.31192 5.34086-3.07504 2.26582-6.47377 3.88426-3.39873 1.53752-7.28299 2.34674-3.80334.89014-8.49682.89014-4.7744 0-8.98235-1.29475-4.20795-1.37568-7.36391-4.04611-3.07504-2.67043-4.93625-6.71653-1.78028-4.12703-1.78028-9.71065 0-4.85533 2.67043-9.30604 2.67042-4.53164 8.65866-8.01129 5.98823-3.47965 15.61796-5.66455 9.62973-2.26581 23.62925-2.5895v-6.39285q0-9.54881-4.12702-14.40413-4.12703-4.93625-12.05739-4.93625-5.34086 0-8.98236 1.37568-3.56057 1.29475-6.231 2.99411-2.5895 1.61845-4.53163 2.99412-1.86121 1.29476-3.72242 1.29476-1.4566 0-2.50859-.7283-1.05198-.80922-1.78028-1.94213z"/><path d="m518.4452 122.94851q0-5.01717-1.4566-9.1442-1.37568-4.20795-4.12703-7.20207-2.67043-3.07504-6.55469-4.69348-3.88426-1.69936-8.82051-1.69936-10.35802 0-16.42718 6.06916-5.98823 5.98823-7.44483 16.66995zm11.65278 38.43799q-2.67043 3.23688-6.39285 5.66455-3.72241 2.34674-8.01128 3.88426-4.20795 1.53752-8.73959 2.26582-4.53164.80922-8.98235.80922-8.49682 0-15.69889-2.83228-7.12114-2.91319-12.38108-8.41589-5.17901-5.58363-8.09221-13.75676-2.91319-8.17313-2.91319-18.77392 0-8.57775 2.5895-16.02258 2.67043-7.44483 7.60668-12.86661 4.93625-5.502704 12.05739-8.577744 7.12115-3.15597 16.02258-3.15597 7.36391 0 13.59491 2.50859 6.31192 2.42766 10.84356 7.12114 4.61256 4.612564 7.20206 11.490944 2.58951 6.79746 2.58951 15.53704 0 3.39873-.7283 4.53164-.7283 1.13291-2.75135 1.13291h-54.78425q.24276 7.76852 2.10397 13.51399 1.94213 5.74547 5.34086 9.62973 3.39873 3.80334 8.09221 5.74547 4.69348 1.8612 10.51987 1.8612 5.42178 0 9.30604-1.21383 3.96518-1.29475 6.79746-2.75135 2.83227-1.4566 4.69348-2.67043 1.94213-1.29475 3.3178-1.29475 1.78029 0 2.75135 1.37567z"/><path d="m616.44183 90.903356v81.974084h-8.57775q-3.07504 0-3.88426-2.99412l-1.13291-8.82051q-5.34085 5.90732-11.97647 9.54881-6.63561 3.56057-15.21335 3.56057-6.71653 0-11.89555-2.18489-5.09809-2.26582-8.57774-6.31193-3.47965-4.0461-5.25993-9.79157-1.69937-5.74547-1.69937-12.70477v-52.275674h14.40413v52.275674q0 9.30604 4.20795 14.40413 4.28887 5.09809 13.02846 5.09809 6.39285 0 11.89555-2.99411 5.58362-3.07504 10.2771-8.4159v-60.367884z"/><path d="m687.00571 104.41735q-.97106 1.78028-2.99411 1.78028-1.21383 0-2.75135-.89014-1.53752-.89014-3.80334-1.94213-2.1849-1.13291-5.25994-2.02305-3.07504-.97107-7.28299-.97107-3.64149 0-6.55469.97107-2.91319.89014-5.01717 2.50858-2.02305 1.61844-3.15596 3.80334-1.05199 2.10398-1.05199 4.61256 0 3.15596 1.78029 5.25994 1.86121 2.10397 4.85533 3.64149 2.99411 1.53752 6.79745 2.75135 3.80334 1.13291 7.76852 2.50859 4.04611 1.29475 7.84945 2.91319 3.80333 1.61844 6.79745 4.04611 2.99412 2.42766 4.77441 5.98823 1.8612 3.47965 1.8612 8.4159 0 5.66455-2.02305 10.51987-2.02305 4.7744-5.98823 8.33498-3.96519 3.47965-9.71066 5.5027-5.74546 2.02305-13.27122 2.02305-8.57774 0-15.53704-2.75135-6.9593-2.83227-11.81463-7.20207l3.39873-5.5027q.64738-1.05199 1.53752-1.61844.89015-.56645 2.26582-.56645 1.4566 0 3.07504 1.1329 1.61844 1.13291 3.88426 2.50859 2.34674 1.37568 5.66455 2.50858 3.3178 1.13291 8.25405 1.13291 4.20795 0 7.36391-1.05198 3.15596-1.13291 5.25994-2.99412 2.10397-1.86121 3.07504-4.28887 1.05198-2.42766 1.05198-5.17902 0-3.39872-1.8612-5.58362-1.78029-2.26582-4.77441-3.80334-2.99412-1.61844-6.87838-2.75135-3.80333-1.21383-7.84944-2.50858-3.96518-1.29476-7.84944-2.9132-3.80334-1.69936-6.79746-4.20795-2.99411-2.50858-4.85532-6.15008-1.78029-3.72241-1.78029-8.98235 0-4.69348 1.94213-8.98235 1.94213-4.3698 5.66455-7.606684 3.72241-3.3178 9.14419-5.25994 5.42178-1.94213 12.38108-1.94213 8.09221 0 14.48506 2.58951 6.47377 2.50859 11.16725 6.9593z"/></g></g></svg>