<svg xmlns="http://www.w3.org/2000/svg" role="img" viewBox="0.68 1.68 484.64 118.14"><defs><style>.cls-1{fill:#fff}</style></defs><path d="M125.166 30.038h58.297v11.688h-22.715v64.032H147.88V41.726h-22.714zm82.024 22.715h33.31v53.005h-12.332V64.44H207.19v41.317h-12.33v-75.72h12.33zm50.984 10.816V52.753h38.832v53.005H272.77c-11.793 0-19.253-6.703-19.253-16.877s8.005-16.879 19.253-16.879h12.118V63.57zm26.72 31.585V82.611h-12.332c-4.764 0-7.896 1.946-7.896 6.27s3.136 6.271 7.896 6.271zm27.281-42.401h45.64v53.005h-12.33V64.44h-20.983v41.317h-12.33zm85.487-1.295a27.746 27.746 0 11-27.359 28.127l-.002-.33a27.161 27.161 0 0126.518-27.79q.421-.01.843-.007zm0 44.347c8.544 0 14.708-6.924 14.708-16.55s-6.164-16.55-14.708-16.55c-8.658 0-14.824 6.923-14.824 16.55s6.166 16.55 14.824 16.55zm53.461-11.793c-9.944-2.485-16.117-7.567-16.117-16.762 0-9.847 8.226-15.792 19.367-15.792a26.091 26.091 0 0119.792 8.87l-7.68 8.437a15.377 15.377 0 00-12.437-6.71c-4.544 0-7.248 2.28-7.248 4.976 0 2.597 2.28 4.333 5.195 4.975l8.323 1.948c9.09 2.165 15.793 7.248 15.793 16.548 0 9.195-7.135 16.444-21.085 16.444a26.798 26.798 0 01-22.073-10.278l7.786-7.998a18.39 18.39 0 0015.256 7.68c6.385 0 8.217-2.817 8.217-5.416 0-2.264-1.404-3.999-6.05-5.187z" class="cls-1" id="Layer_1-2" data-name="Layer 1-2"/><path d="M10.24 11.298v99.712h70.62a29.092 29.092 0 0029.09-29.091v-70.62zm77.72 62.854h3.722v3.722H87.96zM86.79 58.13h6.047v6.049H86.79zm-.93-15.793h7.908v7.916H85.86zM73.093 89.013h3.719v3.722H73.09zM71.93 72.801h6.049v6.054H71.93zM71 57.2h7.917v7.909H71.01zm.93-7.882V43.27h6.049v6.047zM43.374 89.013h3.721v3.722h-3.721zM42.21 72.991h6.049v6.04H42.21zm1.164-9.976v-3.722h3.721v3.722zM42.21 43.271h6.049v6.047H42.21zM28.513 89.013h3.729v3.722h-3.73zm0-14.86h3.729v3.721h-3.73zM27.35 58.13h6.047v6.049H27.35zm-.932-15.793h7.91v7.916h-7.91zm-3.477-18.333H97.24v14.86H67.524v59.44h-14.86v-59.44H22.943z" class="cls-1"/></svg>