<?xml version="1.0" encoding="utf-8"?>
<!-- Generator: Adobe Illustrator 21.1.0, SVG Export Plug-In . SVG Version: 6.00 Build 0)  -->
<svg version="1.1" id="Layer_1" xmlns="http://www.w3.org/2000/svg" xmlns:xlink="http://www.w3.org/1999/xlink" x="0px" y="0px"
	 viewBox="0 0 612 792" style="enable-background:new 0 0 612 792;" xml:space="preserve">
<path d="M363.1,281.1l-0.8-0.4l-50.2-36.6l-84.3,63.3l16.1,11.8l0,0l69.1,50.4l84.3-63.4L363.1,281.1z M250.9,295.4l45.4-34.1
	l12.7,9.2l-45.4,34.1L250.9,295.4z M325.3,331.2l-12.5,9.4l-45.8-33.4l45.4-34.1l29.6,21.6l-32.9,24.7L325.3,331.2z M345.6,297.3
	l12.6,9.2l-29.4,22.1l-12.6-9.2L345.6,297.3z M364.2,307.4l0.9-0.8l0.3-0.2l-16.2-11.8l12.5-9.4l28.8,21L345,340.4l-12.5-9.2
	L364.2,307.4z M345.6,292l-45.8-33.4l12.4-9.3l45.8,33.4L345.6,292z M247.4,298l12.7,9.2l-12.4,9.3l-12.6-9.2L247.4,298z
	 M263.6,309.8l45.9,33.5l-12.4,9.3l-45.9-33.5L263.6,309.8z M329,333.8l12.5,9.2l-28.4,21.4l-12.5-9.2L329,333.8z"/>
<g>
	<g>
		<path d="M312.7,428.7c-0.5,0-0.9-0.1-1.3-0.4l-82.9-59.4c-0.8-0.6-1.3-1.7-1.3-2.9s0.5-2.3,1.3-2.9l41.5-29.7l2.7,5.7L235.1,366
			l77.6,55.6l77.6-55.6l-37.5-26.9l2.7-5.7l41.5,29.7c0.8,0.6,1.3,1.7,1.3,2.9s-0.5,2.3-1.3,2.9L314,428.3
			C313.6,428.6,313.1,428.7,312.7,428.7z"/>
	</g>
	<g>
		<path d="M312.7,369.3c-0.5,0-0.9-0.1-1.3-0.4l-82.9-59.4c-0.8-0.6-1.3-1.7-1.3-2.9s0.5-2.3,1.3-2.9l82.9-59.4
			c0.8-0.6,1.8-0.6,2.7,0l82.9,59.4c0.8,0.6,1.3,1.7,1.3,2.9s-0.5,2.3-1.3,2.9L314,368.9C313.6,369.2,313.1,369.3,312.7,369.3z
			 M235.1,306.6l77.6,55.6l77.6-55.6l-77.6-55.6L235.1,306.6z"/>
	</g>
	<g>
		<path d="M229.8,306.6"/>
	</g>
	<g>
		<rect x="227.1" y="306.6" width="5.3" height="59.4"/>
	</g>
</g>
</svg>
