<svg id="Layer_1" data-name="Layer 1" xmlns="http://www.w3.org/2000/svg" viewBox="0 0 360 166.75513"><title>argo-horizontal-black</title><path d="M69.6,1.79a77.32478,77.32478,0,0,1,8.75728,1.25484c11.31717,2.58491,21.0272,8.17254,29.53044,15.93649a54.20711,54.20711,0,0,1,15.73885,26.16005c.59905,2.16149,1.45383,3.7745,3.94909,4.20571,1.38288.239,1.60567,1.64835,1.61131,2.89837.01968,4.3588.01324,8.71771.013,13.07659q-.0002,4.07894-.01288,8.15787c-.01136,2.39565-.78079,3.22481-3.13752,3.19027-1.42479-.02088-1.97859.80594-2.32638,1.96569a63.90557,63.90557,0,0,1-3.716,9.60778c-5.51157,11.33809-14.046,19.79782-24.85813,26.08537-.51829.3014-1.04277.59245-1.56891.88-1.69825.92821-1.73808.987-1.04378,2.79565a7.05608,7.05608,0,0,0,4.47386,4.21755c1.814.65,3.72545.90373,5.57235,1.41667a4.611,4.611,0,0,1,1.596.628c-.44581.556-1.05369.45549-1.56279.55781-2.42241.48685-4.80187,1.23647-7.321,1.14083a8.63178,8.63178,0,0,1-2.94777-.42739c-.76669-.30728-1.02846-.04383-1.18549.73658a35.72347,35.72347,0,0,0-.56813,6.19679c-.10154,4.15574-.47389,8.29192-.75877,12.43281-.27679,4.02362-.11883,4.38693,3.76406,5.67447,1.89632.6288,3.79249,1.25914,5.67582,1.92527.46417.1642,1.011.25993,1.29422.78728-.26835.38176-.66029.23914-.98749.24037-3.319.01257-6.63835.02963-9.95722.00164-3.536-.02982-5.4371-1.89956-5.69465-5.41175-.3767-5.137-.811-10.26972-1.22541-15.40388a8.00077,8.00077,0,0,0-.17709-.8129A65.82618,65.82618,0,0,0,81.962,140.659c-.15855,3.55222-.05348,7.11652-.04894,10.67558a2.92653,2.92653,0,0,0,2.25575,3.24659c2.425.92,4.79477,1.992,7.51122,1.76858a5.15411,5.15411,0,0,1,2.71176.87315c.20837.11049.49146.21786.465.48742-.02891.29457-.335.31782-.5663.31067-4.43124-.137-8.87683.43049-13.29431-.19209a4.942,4.942,0,0,1-4.25713-3.7194,27.74608,27.74608,0,0,1-.9176-6.2695c-.31086-4.22133-.53041-8.44941-.785-12.67485a1.49461,1.49461,0,0,0-.40561-1.14844,1.91785,1.91785,0,0,0-.21454,1.30009q-.01226,9.65759-.00433,19.31515c.00169,2.6196.82766,3.88,3.33148,4.77557,3.238,1.15812,6.571,2.00876,9.90351,2.85016.74355.18774,1.51965.31636,1.633,1.2923H76.8c-.34939-.067-.69673-.14837-1.04851-.19869-4.72861-.67629-6.74574-2.513-7.70327-7.0271-.15709-.7406-.29871-1.48445-.4502-2.22624q-.75951-3.71874-1.521-7.43707a8.2598,8.2598,0,0,0-.976,2.60269c-.55989,2.69116-1.01872,5.40474-1.63486,8.08246-.76477,3.32372-2.99826,5.14778-6.28329,5.78071-.74064.14271-1.4819.28225-2.22288.42324H42.48c.38767-1.15595,1.456-1.2452,2.39709-1.49483a78.91081,78.91081,0,0,0,9.55339-2.74774,4.07408,4.07408,0,0,0,2.67248-3.51726c.39348-2.92554.01275-5.82667-.08884-8.73554a10.32472,10.32472,0,0,0-.52546-2.12279,2.7786,2.7786,0,0,0-.47929,1.39906c-.17906,1.98884-.33238,3.98-.50652,5.96932a5.648,5.648,0,0,1-4.57446,5.45709,11.48367,11.48367,0,0,1-2.491.30775c-3.759.0196-7.51829-.0085-11.27738-.03324-.32764-.00216-.73588.13116-.99677-.43455a9.57071,9.57071,0,0,1,3.92377-1.26552,38.34593,38.34593,0,0,0,6.32749-1.2987c2.8283-.76887,3.51711-1.67881,3.44531-4.63182-.15247-6.27132-.60965-12.53486-.45941-18.81421.02957-1.23581.00426-2.47293.00426-3.70945a16.33671,16.33671,0,0,0-.33852,2.59377c-.20491,5.90982-.66253,11.8011-1.2548,17.683-.34781,3.45426-1.99391,5.03691-5.41535,5.42511a54.92057,54.92057,0,0,1-8.97574-.14163,3.88314,3.88314,0,0,1-2.28408-.43249c.28658-.44064.71137-.46378,1.07669-.58011,2.437-.77609,4.88715-1.51216,7.3143-2.31767a3.16189,3.16189,0,0,0,2.39847-3.32362c.01-.51942.01464-1.04166-.02564-1.55893-.37546-4.82084-.554-9.65073-.70272-14.4826-.03314-1.07687-.11041-2.15616-.24143-3.22525-.15535-1.26751-.87729-1.93709-1.98392-1.73719-3.405.615-6.67529-.04019-9.92684-.93634-.4011-.11055-.90143-.0537-1.19788-.58856a6.47788,6.47788,0,0,1,1.91372-.61375,37.83823,37.83823,0,0,0,5.08064-1.39894,8.0651,8.0651,0,0,0,4.68342-4.3888c.59956-1.36885.37352-2.13754-.759-2.68328-9.55344-4.60339-16.92942-11.65489-22.84878-20.335A54.93648,54.93648,0,0,1,8.34457,78.342c-.45645-1.65666-1.05238-2.02242-2.58021-1.75319-2.06656.36417-2.702.04-3.60436-1.83882V51.23c.96674-2.045,1.38123-2.30052,3.59512-2.216,1.58267.06042,1.66466-.03531,2.08585-1.63886,2.66834-10.15881,7.28862-19.27817,14.63165-26.87322C31.30888,11.36235,42.25139,6.04172,54.49488,3.15573A79.04447,79.04447,0,0,1,63.84,1.79ZM123.34611,62.0996a49.85172,49.85172,0,0,0-.32309-6.32235c-.17716-1.46565-.38292-2.93253-.67458-4.379-4.02771-19.97465-15.79378-33.83562-34.041-42.24485C77.84034,4.32967,66.67229,3.52018,55.4329,5.7088,33.53616,9.9727,19.06019,23.11538,11.36017,43.80473c-2.94148,7.90353-3.33494,16.211-2.49523,24.595a53.7071,53.7071,0,0,0,5.01613,18.156A61.12679,61.12679,0,0,0,30.5849,107.17246a35.839,35.839,0,0,0,7.55061,4.84845c1.5833.74332,1.66152.70119,1.65506-.98783a27.61157,27.61157,0,0,0-.0677-3.23652c-.84125-6.87169-.95792-13.78257-1.13537-20.68837a2.64466,2.64466,0,0,0-1.24088-2.37584,18.16755,18.16755,0,0,1-6.21007-6.86715,17.11185,17.11185,0,0,1,5.48222-21.66735,2.48114,2.48114,0,0,0,1.33168-2.51663,11.83183,11.83183,0,0,1,.21475-2.97956A27.7185,27.7185,0,0,1,49.76474,31.56a26.501,26.501,0,0,1,15.40995-5.27348,32.80139,32.80139,0,0,1,9.53518,1.64765c10.83724,3.1513,19.182,13.955,19.17218,24.91995a4.32089,4.32089,0,0,0,1.80285,3.80873,16.54521,16.54521,0,0,1,6.35862,9.61281c1.48252,7.25621-.55721,13.356-6.59782,17.752a4.92475,4.92475,0,0,0-2.24729,4.7003c.01454.31906.00319.64-.01043.95952q-.20655,4.84879-.41826,9.69736c-.17109,3.94792-.92445,7.856-.787,11.82644.05181,1.497.03982,1.52072,1.35166.86034a50.40541,50.40541,0,0,0,16.13059-12.82689C118.36254,88.6098,123.4467,76.51851,123.34611,62.0996ZM46.25049,83.36243a13.04328,13.04328,0,1,0,.11184-26.08513A12.80016,12.80016,0,0,0,33.167,69.95484C33.13648,77.687,38.644,83.331,46.25049,83.36243Zm39.048-.001A12.699,12.699,0,0,0,98.3427,70.44106,12.89321,12.89321,0,0,0,85.40747,57.31648,13.10049,13.10049,0,0,0,72.30992,70.22437,12.807,12.807,0,0,0,85.29851,83.36144ZM75.3821,96.41419a48.14169,48.14169,0,0,1-4.24615,2.588,10.68012,10.68012,0,0,1-10.64741-.32741c-1.064-.63-2.07276-1.35265-3.1248-2.00384-.31559-.19535-.61852-.697-1.01462-.41962-.29486.20651-.06065.6694-.005,1.01859A33.82511,33.82511,0,0,1,56.9,100.93543a11.01862,11.01862,0,0,0,5.00663,8.82883,6.6171,6.6171,0,0,0,5.32395,1.25305,10.02628,10.02628,0,0,0,7.57731-8.21054c.29358-1.79477.031-3.66338.73685-5.4085A.90227.90227,0,0,0,75.3821,96.41419Z"/><path d="M357.36,73.55c-1.09028,4.42216-2.616,8.66507-5.50184,12.26471-5.923,7.388-13.64276,10.9534-23.10509,10.30869a26.18132,26.18132,0,0,1-2.088-51.97565,26.66978,26.66978,0,0,1,30.03536,20.36366c.24978,1.00543.44106,2.02539.65956,3.03859ZM330.85623,84.33921a14.24363,14.24363,0,0,0,14.567-14.2364c.06539-8.23185-6.45691-14.31808-14.54259-14.446a14.34212,14.34212,0,1,0-.02446,28.68244Z"/><path d="M300.5528,82.77525c-.02364,4.8755.13559,9.76239-.27562,14.62113a25.21355,25.21355,0,0,1-11.7189,19.67912c-5.7714,3.83583-12.18527,5.53033-19.06318,4.25133a27.03026,27.03026,0,0,1-12.57038-6.16356,22.89518,22.89518,0,0,1-6.47652-8.51556c-1.70387-4.022.44145-7.6866,4.75049-8.30287a5.05855,5.05855,0,0,1,4.1398,1.495c1.38152,1.19956,2.1972,2.83931,3.34731,4.21882,5.4605,6.54974,14.81153,7.85181,21.23191,1.8483,3.72238-3.48066,4.87061-7.83692,4.50542-12.74663-.05282-.71048-.40916-.9436-1.03954-.64229-.79169.37842-1.53908.85182-2.33789,1.21277A26.13892,26.13892,0,1,1,270.26651,44.182c8.4327-1.04152,15.89658,1.11108,22.06266,7.00948a25.20856,25.20856,0,0,1,7.99772,17.55939C300.55066,73.4245,300.52948,78.09964,300.5528,82.77525ZM274.00148,84.3391a14.2206,14.2206,0,0,0,14.55317-14.37288c.01008-8.30305-6.67049-14.25622-14.53655-14.32751a14.351,14.351,0,1,0-.01662,28.70039Z"/><path d="M213.19075,79.24973c-.0017,3.79836.05613,7.59784-.01831,11.39474a5.75459,5.75459,0,0,1-7.2417,5.30334,4.84564,4.84564,0,0,1-2.52-1.7391c-1.57846-2.02646-1.74768-2.05626-4.06168-.86515a26.92664,26.92664,0,0,1-34.14376-8.81013C155.16233,69.44933,163.785,48.49121,181.596,44.69422c14.862-3.16831,28.293,5.71964,31.2308,20.66817a41.414,41.414,0,0,1,.36525,8.00985Q213.19525,76.311,213.19075,79.24973Zm-25.8547,5.0896c8.26811.00594,14.20956-5.81076,14.21623-13.91774.00672-8.17063-6.14743-14.59569-14.004-14.62049a14.94281,14.94281,0,0,0-14.917,14.60649C172.62315,78.17675,179.12146,84.33343,187.33605,84.33933Z"/><path d="M217.61005,79.04917c-.00139-3.07879-.0267-6.15782.00305-9.23633a26.20191,26.20191,0,0,1,21.269-25.38468,15.08259,15.08259,0,0,1,6.29809-.224,5.40993,5.40993,0,0,1,4.54746,4.76693,5.73094,5.73094,0,0,1-2.92289,5.72718,8.36049,8.36049,0,0,1-3.87107,1.15059,13.7664,13.7664,0,0,0-13.442,14.06654c-.03436,6.15771-.03262,12.31564-.03945,18.47347a13.586,13.586,0,0,1-.46428,3.6741,5.342,5.342,0,0,1-5.36184,4.1275,5.217,5.217,0,0,1-5.55224-3.99318,11.47284,11.47284,0,0,1-.46543-3.43122C217.6172,85.5271,217.61145,82.28813,217.61005,79.04917Z"/><path d="M16.20342,63.25326c-.08448-7.42676.96239-13.85319,3.63942-19.95869A49.61781,49.61781,0,0,1,39.92558,20.55519a2.55269,2.55269,0,0,1,3.09516.4478c.40856.40845.24293.79587.07194,1.20537A7.323,7.323,0,0,1,39.856,25.63941c-7.27358,4.31037-12.32767,10.58973-15.88265,18.123a42.486,42.486,0,0,0-4.17151,20.12205,43.57949,43.57949,0,0,0,8.17646,24.18064,5.36121,5.36121,0,0,1,1.167,2.46091c.06828.54181.39411,1.1354-.20741,1.53722a2.106,2.106,0,0,1-1.94459.28114,3.38555,3.38555,0,0,1-1.57518-1.24955A45.29815,45.29815,0,0,1,16.4489,69.031C16.20155,66.8366,16.416,64.63425,16.20342,63.25326Z"/><path d="M45.0548,17.56316a2.52524,2.52524,0,0,1,2.55076-2.5788,3.21021,3.21021,0,0,1,2.80126,3.19456c.024.92467-2.07915,2.62715-3.20721,2.59616C45.93043,20.7402,45.05491,19.42908,45.0548,17.56316Z"/><path d="M41.91953,67.98031a4.11958,4.11958,0,0,1,3.95818-4.25844,4.33645,4.33645,0,0,1,4.545,4.269,4.11073,4.11073,0,0,1-4.30719,4.18292A3.92108,3.92108,0,0,1,41.91953,67.98031Z"/><path d="M85.71081,72.17434a3.98282,3.98282,0,0,1-4.18709-4.34859,4.26649,4.26649,0,0,1,4.01272-4.13541,4.42691,4.42691,0,0,1,4.51469,4.33481A4.13276,4.13276,0,0,1,85.71081,72.17434Z"/></svg>