<svg id="tikv_1" data-name="tikv 1" xmlns="http://www.w3.org/2000/svg" viewBox="0 0 360 360"><defs><style>.cls-1{fill:#353558;}.cls-2{fill:#ec1a3b;}.cls-3{fill:#fff;}</style></defs><title>tikv-icon-color</title><polygon class="cls-1" points="177.733 355.5 145.727 355.5 113.467 309.198 101.322 321.469 101.322 355.373 75.641 355.373 75.641 248.094 101.322 248.094 101.322 292.752 143.45 248.094 174.065 248.094 130.925 291.74 177.733 355.5"/><polygon class="cls-1" points="219.481 355.5 183.932 248.094 212.144 248.094 233.397 324.126 235.042 324.126 255.03 248.094 283.621 248.094 247.313 355.5 219.481 355.5"/><polygon class="cls-2" points="179.824 4.927 74.5 59.711 74.5 169.15 179.824 223.805 284.762 169.15 284.762 59.711 179.824 4.927"/><polygon class="cls-3" points="172.622 76.943 172.622 179.181 146.902 165.806 146.902 90.317 113.852 107.55 113.852 80.158 179.695 45.95 205.93 59.582 172.622 76.943"/><polygon class="cls-3" points="225.22 159.119 199.114 172.751 199.114 90.446 225.22 76.943 225.22 159.119"/></svg>