<?xml version="1.0" encoding="UTF-8" standalone="no"?>
<svg
   xmlns:dc="http://purl.org/dc/elements/1.1/"
   xmlns:cc="http://creativecommons.org/ns#"
   xmlns:rdf="http://www.w3.org/1999/02/22-rdf-syntax-ns#"
   xmlns:svg="http://www.w3.org/2000/svg"
   xmlns="http://www.w3.org/2000/svg"
   viewBox="0 0 2143.168 2184.7681"
   height="2184.7681"
   width="2143.168"
   xml:space="preserve"
   id="svg2"
   version="1.1"><metadata
     id="metadata8"><rdf:RDF><cc:Work
         rdf:about=""><dc:format>image/svg+xml</dc:format><dc:type
           rdf:resource="http://purl.org/dc/dcmitype/StillImage" /><dc:title></dc:title></cc:Work></rdf:RDF></metadata><defs
     id="defs6"><clipPath
       id="clipPath20"
       clipPathUnits="userSpaceOnUse"><path
         id="path18"
         d="M 0,40.964 H 40.184 V 0 H 0 Z" /></clipPath><clipPath
       clipPathUnits="userSpaceOnUse"
       id="clipPath920"><path
         d="M 0,40.964 H 40.184 V 0 H 0 Z"
         id="path918" /></clipPath><clipPath
       clipPathUnits="userSpaceOnUse"
       id="clipPath1014"><path
         d="M 0,40.964 H 40.184 V 0 H 0 Z"
         id="path1012" /></clipPath><clipPath
       clipPathUnits="userSpaceOnUse"
       id="clipPath1102"><path
         d="M 0,40.964 H 40.184 V 0 H 0 Z"
         id="path1100" /></clipPath><clipPath
       clipPathUnits="userSpaceOnUse"
       id="clipPath1234"><path
         d="M 0,40.964 H 40.184 V 0 H 0 Z"
         id="path1232" /></clipPath></defs><g
     transform="translate(0,-2184.7681)"
     id="layer1" /><g
     transform="matrix(1.3333333,0,0,-1.3333333,0,2184.7679)"
     id="g10"><g
       id="g1306"><rect
         transform="matrix(0.75000002,0,0,-0.75000002,0,3277.1521)"
         style="opacity:1;fill:#ffffff;fill-opacity:1;stroke:none;stroke-width:3.71905518;stroke-miterlimit:4;stroke-dasharray:none;stroke-opacity:1"
         id="rect1284"
         width="803.55029"
         height="729.49036"
         x="666.53943"
         y="2810.5745"
         rx="16.6675"
         ry="16.6675" /><g
         transform="matrix(35.506726,0,0,35.506726,90.28687,92.032065)"
         id="g1224"><path
           id="path1226"
           style="fill:#1be0e6;fill-opacity:1;fill-rule:nonzero;stroke:none"
           d="m 15.76,29.553 h -3.013 v 8.394 h 3.013 z" /><g
           id="g1228"><g
             clip-path="url(#clipPath1234)"
             id="g1230"><path
               id="path1236"
               style="fill:#001959;fill-opacity:1;fill-rule:nonzero;stroke:none"
               d="m 27.436,16.416 h -8.953 v 3.013 h 8.953 z m -11.676,0 h -3.013 v 21.53 H 15.76 Z M 9.939,40.964 V 15.749 c 0,-1.291 1.047,-2.337 2.338,-2.337 h 15.658 c 1.276,0 2.31,1.034 2.31,2.309 v 25.243 z" /><g
               transform="translate(7.1414,9.5366)"
               id="g1238"><path
                 id="path1240"
                 style="fill:#001959;fill-opacity:1;fill-rule:nonzero;stroke:none"
                 d="m 0,0 c -0.254,0 -0.474,-0.094 -0.653,-0.278 -0.179,-0.183 -0.27,-0.402 -0.27,-0.65 0,-0.248 0.091,-0.467 0.27,-0.65 0.179,-0.185 0.401,-0.278 0.659,-0.278 0.257,0 0.477,0.091 0.657,0.271 0.18,0.179 0.271,0.4 0.271,0.657 0,0.257 -0.091,0.478 -0.271,0.657 C 0.483,-0.091 0.261,0 0,0" /></g><g
               transform="translate(32.532,4.4927)"
               id="g1242"><path
                 id="path1244"
                 style="fill:#001959;fill-opacity:1;fill-rule:nonzero;stroke:none"
                 d="m 0,0 c 0,-0.844 -0.036,-1.41 -0.108,-1.683 -0.07,-0.264 -0.2,-0.517 -0.384,-0.754 -0.184,-0.235 -0.406,-0.421 -0.663,-0.553 -0.513,-0.264 -1.096,-0.236 -1.457,-0.079 -0.178,0.077 -0.32,0.19 -0.435,0.346 -0.119,0.162 -0.211,0.365 -0.272,0.603 -0.065,0.244 -0.097,0.724 -0.097,1.426 v 3.282 h -1.317 v -3.523 c 0,-0.919 0.098,-1.586 0.302,-2.04 0.204,-0.455 0.516,-0.818 0.926,-1.078 0.408,-0.26 0.87,-0.392 1.371,-0.392 0.803,0 1.519,0.3 2.134,0.893 V -4.277 H 1.329 V 2.588 H 0 Z" /></g><g
               transform="translate(23.0535,7.2485)"
               id="g1246"><path
                 id="path1248"
                 style="fill:#001959;fill-opacity:1;fill-rule:nonzero;stroke:none"
                 d="M 0,0 C -0.483,0 -0.947,-0.129 -1.379,-0.383 -1.726,-0.587 -2.028,-0.867 -2.282,-1.218 -2.456,-0.876 -2.703,-0.6 -3.018,-0.393 -3.415,-0.132 -3.863,0 -4.35,0 -5.095,0 -5.742,-0.273 -6.279,-0.812 v 0.644 h -1.318 v -6.865 h 1.318 v 2.947 c 0,0.797 0.072,1.369 0.215,1.702 0.138,0.324 0.354,0.591 0.642,0.791 0.285,0.198 0.59,0.3 0.904,0.3 0.317,0 0.569,-0.079 0.772,-0.24 0.203,-0.161 0.33,-0.362 0.39,-0.614 0.065,-0.274 0.097,-0.737 0.097,-1.375 v -3.511 h 1.306 v 2.743 c 0,0.787 0.061,1.385 0.183,1.778 0.119,0.38 0.322,0.671 0.623,0.892 0.296,0.217 0.616,0.327 0.95,0.327 0.331,0 0.598,-0.079 0.795,-0.234 0.199,-0.158 0.325,-0.346 0.384,-0.576 0.064,-0.249 0.097,-0.654 0.097,-1.204 V -7.033 H 2.42 v 3.726 c 0,1.273 -0.232,2.122 -0.708,2.599 C 1.242,-0.238 0.666,0 0,0" /></g><g
               transform="translate(38.5046,4.2514)"
               id="g1250"><path
                 id="path1252"
                 style="fill:#001959;fill-opacity:1;fill-rule:nonzero;stroke:none"
                 d="m 0,0 c -0.465,0.244 -0.79,0.449 -0.966,0.61 -0.152,0.14 -0.226,0.296 -0.226,0.476 0,0.181 0.064,0.329 0.198,0.453 0.366,0.34 0.992,0.225 1.688,-0.426 L 0.815,1.001 1.68,1.898 1.561,2.015 C 0.893,2.667 0.242,2.997 -0.371,2.997 -0.985,2.997 -1.487,2.812 -1.865,2.446 -2.245,2.08 -2.438,1.63 -2.438,1.11 c 0,-0.513 0.136,-0.936 0.405,-1.257 0.257,-0.308 0.637,-0.59 1.131,-0.839 0.46,-0.233 0.786,-0.435 0.968,-0.603 0.162,-0.148 0.24,-0.327 0.24,-0.548 0,-0.22 -0.088,-0.41 -0.27,-0.578 -0.185,-0.172 -0.403,-0.256 -0.665,-0.256 -0.394,0 -0.795,0.235 -1.191,0.698 l -0.124,0.144 -0.845,-0.941 0.087,-0.111 c 0.558,-0.711 1.267,-1.07 2.109,-1.07 0.611,0 1.132,0.209 1.549,0.623 0.419,0.414 0.631,0.93 0.631,1.533 0,0.479 -0.145,0.89 -0.43,1.223 C 0.885,-0.554 0.495,-0.26 0,0" /></g><g
               transform="translate(1.3767,9.5366)"
               id="g1254"><path
                 id="path1256"
                 style="fill:#001959;fill-opacity:1;fill-rule:nonzero;stroke:none"
                 d="m 0,0 h -1.377 v -9.321 h 4.685 v 1.329 H 0 Z" /></g><path
               id="path1258"
               style="fill:#001959;fill-opacity:1;fill-rule:nonzero;stroke:none"
               d="m 6.482,0.215 h 1.33 V 7.08 h -1.33 z" /><g
               transform="translate(12.2449,9.5366)"
               id="g1260"><path
                 id="path1262"
                 style="fill:#001959;fill-opacity:1;fill-rule:nonzero;stroke:none"
                 d="m 0,0 h -1.329 v -2.456 h -1.126 v -1.197 h 1.126 v -4.542 c 0,-0.451 0.109,-0.79 0.323,-1.01 0.216,-0.22 0.542,-0.331 0.971,-0.331 0.209,0 0.513,0.032 0.902,0.098 l 0.14,0.023 v 1.159 H 0.265 c -0.168,0 -0.236,0.018 -0.246,0.011 C 0.013,-8.228 0,-8.178 0,-8.063 v 4.41 h 1.294 v 1.197 H 0 Z" /></g></g></g></g></g></g></svg>