<?xml version="1.0" encoding="utf-8"?>
<!-- Generator: Adobe Illustrator 21.1.0, SVG Export Plug-In . SVG Version: 6.00 Build 0)  -->
<svg version="1.1" id="Layer_1" xmlns="http://www.w3.org/2000/svg" xmlns:xlink="http://www.w3.org/1999/xlink" x="0px" y="0px"
	 viewBox="0 0 188 157" style="enable-background:new 0 0 188 157;" xml:space="preserve">
<style type="text/css">
	.st0{fill:#446CA9;}
	.st1{fill:#76C4D5;}
	.st2{fill:#375194;}
	.st3{fill:#5B7DB3;}
	.st4{fill:#303F7F;}
	.st5{fill:#FFFFFF;}
</style>
<g>
	<g>
		<path class="st0" d="M38.6,142.1h1.1l4.8,10.7h-1.3L42,150h-5.8l-1.3,2.8h-1.2L38.6,142.1z M41.5,148.9l-2.4-5.4l-2.4,5.4H41.5z"
			/>
		<path class="st0" d="M47.3,142.1h1.2l3.9,5.8l3.9-5.8h1.2v10.6h-1.2v-8.6l-3.9,5.7h-0.1l-3.9-5.7v8.6h-1.2L47.3,142.1L47.3,142.1z
			"/>
		<path class="st0" d="M61,142.1h4.5c1.2,0,2.2,0.3,2.8,0.9c0.4,0.5,0.7,1,0.7,1.7l0,0c0,1.4-0.8,2.1-1.7,2.5
			c1.3,0.4,2.3,1.1,2.3,2.6l0,0c0,1.8-1.5,2.9-3.9,2.9H61V142.1z M67.8,144.9c0-1-0.8-1.7-2.4-1.7h-3.2v3.7h3.1
			C66.8,146.9,67.8,146.2,67.8,144.9L67.8,144.9z M65.6,147.9h-3.4v3.7h3.6c1.6,0,2.6-0.7,2.6-1.9l0,0
			C68.4,148.6,67.4,147.9,65.6,147.9z"/>
		<path class="st0" d="M76.3,142.1h1.1l4.8,10.7H81l-1.2-2.8H74l-1.3,2.8h-1.2L76.3,142.1z M79.3,148.9l-2.4-5.4l-2.4,5.4H79.3z"/>
		<path class="st0" d="M84.1,151.2l0.7-0.9c1.1,1,2.2,1.5,3.6,1.5c1.4,0,2.4-0.8,2.4-1.8l0,0c0-1-0.5-1.5-2.8-2
			c-2.4-0.5-3.6-1.3-3.6-3.1l0,0c0-1.7,1.5-2.9,3.5-2.9c1.5,0,2.7,0.4,3.7,1.3l-0.7,0.9c-1-0.8-2-1.2-3.1-1.2
			c-1.4,0-2.3,0.8-2.3,1.7l0,0c0,1,0.5,1.6,2.9,2.1s3.5,1.4,3.5,3l0,0c0,1.8-1.5,3-3.6,3C86.7,152.9,85.4,152.3,84.1,151.2z"/>
		<path class="st0" d="M94.3,151.2l0.7-0.9c1.1,1,2.2,1.5,3.6,1.5c1.4,0,2.4-0.8,2.4-1.8l0,0c0-1-0.5-1.5-2.8-2
			c-2.4-0.5-3.6-1.3-3.6-3.1l0,0c0-1.7,1.5-2.9,3.5-2.9c1.5,0,2.7,0.4,3.7,1.3l-0.7,0.9c-1-0.8-2-1.2-3.1-1.2
			c-1.4,0-2.3,0.8-2.3,1.7l0,0c0,1,0.5,1.6,2.9,2.1s3.5,1.4,3.5,3l0,0c0,1.8-1.5,3-3.6,3C96.9,152.9,95.5,152.3,94.3,151.2z"/>
		<path class="st0" d="M109,142.1h1.1l4.8,10.7h-1.3l-1.2-2.8h-5.8l-1.3,2.8h-1.2L109,142.1z M111.9,148.9l-2.4-5.4l-2.4,5.4H111.9z
			"/>
		<path class="st0" d="M117.6,142.1h3.7c3.3,0,5.6,2.3,5.6,5.3l0,0c0,3-2.3,5.3-5.6,5.3h-3.7V142.1z M118.8,143.2v8.4h2.5
			c2.7,0,4.4-1.8,4.4-4.2l0,0c0-2.4-1.7-4.2-4.4-4.2H118.8z"/>
		<path class="st0" d="M129.6,147.5L129.6,147.5c0-3,2.2-5.5,5.4-5.5s5.4,2.5,5.4,5.5l0,0c0,2.9-2.2,5.5-5.4,5.5
			S129.6,150.4,129.6,147.5z M139.2,147.5L139.2,147.5c0-2.4-1.8-4.4-4.2-4.4s-4.2,1.9-4.2,4.4l0,0c0,2.4,1.8,4.4,4.2,4.4
			S139.2,149.9,139.2,147.5z"/>
		<path class="st0" d="M143.6,142.1h4.6c1.3,0,2.4,0.4,3,1.1c0.5,0.5,0.8,1.3,0.8,2.1l0,0c0,1.8-1.2,2.8-2.9,3.1l3.3,4.3h-1.5
			l-3.1-4.1h-3v4.1h-1.2L143.6,142.1L143.6,142.1z M148.1,147.6c1.6,0,2.7-0.8,2.7-2.2l0,0c0-1.3-1-2.1-2.7-2.1h-3.3v4.3H148.1z"/>
	</g>
	<g>
		<g id="XMLID_1284_">
			<g>
				<path id="XMLID_3421_" d="M62.1,121.7c1,0,1.7-0.4,2.4-1.1l1.3,1.3c-1,1.1-2.2,1.7-3.5,1.7s-2.5-0.4-3.3-1.3
					c-0.9-0.9-1.3-1.9-1.3-3.2s0.4-2.4,1.3-3.2c0.9-0.9,2-1.3,3.3-1.3c1.4,0,2.6,0.5,3.6,1.6l-1.2,1.4c-0.6-0.8-1.4-1.2-2.3-1.2
					c-0.7,0-1.4,0.2-1.9,0.7s-0.8,1.1-0.8,1.9c0,0.8,0.2,1.5,0.7,2C60.8,121.5,61.4,121.7,62.1,121.7z"/>
				<path id="XMLID_3419_" d="M67.3,123.4v-8.7h2v7H73v1.7H67.3z"/>
				<path id="XMLID_3416_" d="M81.5,122.2c-0.9,0.9-2,1.3-3.3,1.3s-2.4-0.4-3.3-1.3c-0.9-0.9-1.3-1.9-1.3-3.2s0.4-2.4,1.3-3.2
					c0.9-0.9,2-1.3,3.3-1.3s2.4,0.4,3.3,1.3c0.9,0.9,1.3,1.9,1.3,3.2S82.4,121.4,81.5,122.2z M80.8,119c0-0.8-0.3-1.4-0.8-2
					s-1.1-0.8-1.8-0.8s-1.3,0.3-1.8,0.8c-0.5,0.6-0.8,1.2-0.8,2s0.3,1.4,0.8,2c0.5,0.5,1.1,0.8,1.8,0.8c0.7,0,1.3-0.3,1.8-0.8
					C80.6,120.5,80.8,119.8,80.8,119z"/>
				<path id="XMLID_3414_" d="M86.8,121.2c0.3,0.4,0.8,0.6,1.3,0.6c0.6,0,1-0.2,1.3-0.6c0.3-0.4,0.5-1,0.5-1.7v-4.8h2v4.9
					c0,1.3-0.4,2.2-1.1,2.9c-0.7,0.7-1.6,1-2.7,1c-1.1,0-2-0.3-2.7-1s-1.1-1.7-1.1-2.9v-4.9h2v4.8C86.3,120.2,86.5,120.8,86.8,121.2
					z"/>
				<path id="XMLID_3411_" d="M100.6,115.8c0.8,0.8,1.3,1.8,1.3,3.2s-0.4,2.4-1.2,3.2s-2.1,1.2-3.7,1.2h-3v-8.7h3.1
					C98.5,114.7,99.7,115.1,100.6,115.8z M99.1,121c0.5-0.5,0.7-1.1,0.7-2s-0.2-1.5-0.7-2s-1.2-0.7-2.2-0.7h-1.1v5.3H97
					C98,121.7,98.7,121.5,99.1,121z"/>
				<path id="XMLID_3409_" d="M112.9,114.7h2v8.7h-2l-4.2-5.5v5.5h-2v-8.7h1.8l4.3,5.6L112.9,114.7L112.9,114.7z"/>
				<path id="XMLID_3406_" d="M123.3,123.4l-0.8-1.9h-3.7l-0.8,1.9h-2.1l3.8-8.7h1.9l3.8,8.7H123.3z M120.6,117.3l-1.1,2.5h2.2
					L120.6,117.3z"/>
				<path id="XMLID_3404_" d="M129.4,116.4v7.1h-2v-7.1H125v-1.7h6.9v1.7H129.4z"/>
				<path id="XMLID_3402_" d="M133.3,114.7h2v8.7h-2V114.7z"/>
				<path id="XMLID_3400_" d="M140.7,120.3l2.2-5.6h2.1l-3.5,8.7h-1.7l-3.5-8.7h2.1L140.7,120.3z"/>
				<path id="XMLID_3398_" d="M152.4,114.7v1.7H148v1.8h3.9v1.7H148v1.8h4.5v1.7h-6.4v-8.7H152.4z"/>
				<path id="XMLID_3396_" d="M59.9,130.9c0.5,0,1-0.2,1.3-0.6l0.7,0.7c-0.6,0.6-1.2,0.9-2,0.9s-1.4-0.2-1.9-0.7s-0.7-1.1-0.7-1.8
					s0.2-1.3,0.7-1.8s1.1-0.7,1.8-0.7c0.8,0,1.5,0.3,2,0.9l-0.7,0.8c-0.3-0.4-0.8-0.6-1.3-0.6c-0.4,0-0.8,0.1-1.1,0.4
					c-0.3,0.3-0.4,0.6-0.4,1.1s0.1,0.8,0.4,1.1C59.2,130.8,59.5,130.9,59.9,130.9z"/>
				<path id="XMLID_3393_" d="M66.8,131.2c-0.5,0.5-1.1,0.7-1.8,0.7c-0.7,0-1.3-0.2-1.8-0.7s-0.7-1.1-0.7-1.8s0.2-1.3,0.7-1.8
					s1.1-0.7,1.8-0.7c0.7,0,1.3,0.2,1.8,0.7s0.7,1.1,0.7,1.8S67.3,130.7,66.8,131.2z M66.4,129.4c0-0.4-0.1-0.8-0.4-1.1
					s-0.6-0.5-1-0.5s-0.8,0.2-1,0.5c-0.3,0.3-0.4,0.7-0.4,1.1s0.1,0.8,0.4,1.1s0.6,0.5,1,0.5s0.8-0.2,1-0.5
					C66.3,130.2,66.4,129.8,66.4,129.4z"/>
				<path id="XMLID_3391_" d="M72.9,128.8l-1.3,2.7h-0.7l-1.3-2.7v3.1h-1.1V127H70l1.3,2.7l1.3-2.7h1.5v4.9H73v-3.1H72.9z"/>
				<path id="XMLID_3388_" d="M78.5,127.4c0.3,0.3,0.5,0.7,0.5,1.3s-0.2,1-0.5,1.3c-0.4,0.3-0.9,0.4-1.6,0.4h-0.7v1.4h-1.1V127h1.7
					C77.6,127,78.2,127.1,78.5,127.4z M77.7,129.3c0.1-0.1,0.2-0.4,0.2-0.6s-0.1-0.5-0.3-0.6c-0.2-0.1-0.4-0.2-0.8-0.2h-0.6v1.6h0.7
					C77.4,129.5,77.6,129.5,77.7,129.3z"/>
				<path id="XMLID_3386_" d="M81.2,130.6c0.2,0.2,0.4,0.3,0.7,0.3s0.6-0.1,0.7-0.3c0.2-0.2,0.3-0.5,0.3-0.9V127H84v2.7
					c0,0.7-0.2,1.3-0.6,1.6c-0.4,0.4-0.9,0.6-1.5,0.6s-1.1-0.2-1.5-0.6c-0.4-0.4-0.6-0.9-0.6-1.6V127h1.1v2.7
					C80.9,130.1,81,130.4,81.2,130.6z"/>
				<path id="XMLID_3384_" d="M87.3,127.9v4h-1.1v-4h-1.4V127h3.9v0.9H87.3z"/>
				<path id="XMLID_3382_" d="M89.4,127h1.1v4.9h-1.1V127z"/>
				<path id="XMLID_3380_" d="M95.2,127h1.1v4.9h-1.1l-2.3-3.1v3.1h-1.1V127h1l2.4,3.2L95.2,127L95.2,127z"/>
				<path id="XMLID_3378_" d="M100.7,129.4h1.1v1.7c-0.5,0.5-1.2,0.8-2,0.8c-0.7,0-1.3-0.2-1.8-0.7s-0.7-1.1-0.7-1.8
					s0.2-1.3,0.7-1.8s1.1-0.7,1.8-0.7s1.3,0.2,1.8,0.7l-0.6,0.8c-0.2-0.2-0.4-0.3-0.6-0.4c-0.2-0.1-0.4-0.1-0.6-0.1
					c-0.4,0-0.8,0.1-1.1,0.4c-0.3,0.3-0.4,0.7-0.4,1.1c0,0.5,0.1,0.8,0.4,1.1c0.3,0.3,0.6,0.4,1,0.4s0.7-0.1,0.9-0.2v-1.3H100.7z"/>
				<path id="XMLID_3376_" d="M108,127v1h-2.3v1.1h2.2v1h-2.2v1.9h-1.1v-5H108z"/>
				<path id="XMLID_3373_" d="M113,131.2c-0.5,0.5-1.1,0.7-1.8,0.7s-1.3-0.2-1.8-0.7s-0.7-1.1-0.7-1.8s0.2-1.3,0.7-1.8
					s1.1-0.7,1.8-0.7s1.3,0.2,1.8,0.7s0.7,1.1,0.7,1.8S113.5,130.7,113,131.2z M112.6,129.4c0-0.4-0.1-0.8-0.4-1.1
					c-0.3-0.3-0.6-0.5-1-0.5s-0.8,0.2-1,0.5c-0.3,0.3-0.4,0.7-0.4,1.1s0.1,0.8,0.4,1.1c0.3,0.3,0.6,0.5,1,0.5s0.8-0.2,1-0.5
					C112.5,130.2,112.6,129.8,112.6,129.4z"/>
				<path id="XMLID_3371_" d="M116,130.6c0.2,0.2,0.4,0.3,0.7,0.3s0.6-0.1,0.7-0.3c0.2-0.2,0.3-0.5,0.3-0.9V127h1.1v2.7
					c0,0.7-0.2,1.3-0.6,1.6c-0.4,0.4-0.9,0.6-1.5,0.6s-1.1-0.2-1.5-0.6c-0.4-0.4-0.6-0.9-0.6-1.6V127h1.1v2.7
					C115.7,130.1,115.8,130.4,116,130.6z"/>
				<path id="XMLID_3369_" d="M123.4,127h1.1v4.9h-1.1l-2.3-3.1v3.1H120V127h1l2.4,3.2V127z"/>
				<path id="XMLID_3366_" d="M129.4,127.6c0.5,0.4,0.7,1,0.7,1.8s-0.2,1.4-0.7,1.8c-0.5,0.4-1.2,0.7-2.1,0.7h-1.7V127h1.7
					C128.3,127,129,127.2,129.4,127.6z M128.6,130.5c0.3-0.3,0.4-0.6,0.4-1.1s-0.1-0.9-0.4-1.1c-0.3-0.3-0.7-0.4-1.2-0.4h-0.6v3h0.7
					C128,130.9,128.4,130.8,128.6,130.5z"/>
				<path id="XMLID_3363_" d="M134.4,131.9l-0.5-1.1h-2.1l-0.5,1.1h-1.2l2.1-4.9h1.1l2.1,4.9H134.4z M133,128.4l-0.6,1.4h1.2
					L133,128.4z"/>
				<path id="XMLID_3361_" d="M137.9,127.9v4h-1.1v-4h-1.4V127h3.9v0.9H137.9z"/>
				<path id="XMLID_3359_" d="M140.1,127h1.1v4.9h-1.1V127z"/>
				<path id="XMLID_3356_" d="M146.5,131.2c-0.5,0.5-1.1,0.7-1.8,0.7s-1.3-0.2-1.8-0.7s-0.7-1.1-0.7-1.8s0.2-1.3,0.7-1.8
					s1.1-0.7,1.8-0.7s1.3,0.2,1.8,0.7s0.7,1.1,0.7,1.8S147,130.7,146.5,131.2z M146.1,129.4c0-0.4-0.1-0.8-0.4-1.1
					c-0.3-0.3-0.6-0.5-1-0.5s-0.8,0.2-1,0.5c-0.3,0.3-0.4,0.7-0.4,1.1s0.1,0.8,0.4,1.1c0.3,0.3,0.6,0.5,1,0.5s0.8-0.2,1-0.5
					C146,130.2,146.1,129.8,146.1,129.4z"/>
				<path id="XMLID_3354_" d="M151.6,127h1.1v4.9h-1.1l-2.3-3.1v3.1h-1.1V127h1l2.4,3.2L151.6,127L151.6,127z"/>
			</g>
		</g>
		<g id="XMLID_1279_">
			<polygon id="XMLID_1283_" class="st0" points="36.6,126.1 33.9,126.1 33.9,132.3 40.2,132.3 40.2,129.6 36.6,129.6 			"/>
			<polygon id="XMLID_1282_" class="st0" points="50.1,126.1 50.1,129.6 46.5,129.6 46.5,129.6 46.5,132.3 52.8,132.3 52.8,126.1 
							"/>
			<polygon id="XMLID_1281_" class="st0" points="33.9,119.8 36.6,119.8 36.6,119.7 36.6,116.2 36.6,116.2 40.2,116.2 40.2,116.2 
				40.2,113.5 33.9,113.5 			"/>
			<polygon id="XMLID_1280_" class="st0" points="46.5,113.5 46.5,116.2 50.1,116.2 50.1,119.8 52.8,119.8 52.8,113.5 			"/>
		</g>
		<g id="XMLID_1274_">
			<polygon id="XMLID_1278_" class="st1" points="46.2,119.8 42.6,116.2 46.5,116.2 46.5,113.5 40.2,113.5 40.2,116.2 43.8,119.8 
							"/>
			<polygon id="XMLID_1277_" class="st1" points="42.9,126.1 40.5,126.1 43.5,129 44.1,129.6 42.9,129.6 40.2,129.6 40.2,132.3 
				46.5,132.3 46.5,129.6 44.7,127.8 			"/>
			<polygon id="XMLID_1276_" class="st1" points="50.1,119.8 50.1,122.5 50.1,123.7 49.5,123.1 46.5,120.1 46.5,122.5 48.3,124.3 
				50.1,126.1 52.8,126.1 52.8,119.8 			"/>
			<polygon id="XMLID_1275_" class="st1" points="40.2,123.3 36.6,119.8 33.9,119.8 33.9,126.1 36.6,126.1 36.6,122.1 40.2,125.7 
							"/>
		</g>
	</g>
	<g>
		<path class="st2" d="M7.8,55.1c-1.4,2.3-2.5,4.7-3.3,7.3l15.3-4.5L7.8,55.1z"/>
		<path class="st3" d="M20.1,57.9l0.4-0.1l-0.1-14.4c-5.1,2.7-9.5,6.7-12.5,11.7l-0.1,0.1l12,2.9L20.1,57.9z"/>
		<path class="st0" d="M43,51.2l0.3,0.1l-0.1-10.5c-2.6-0.7-5.3-1-8.1-1c-5.3,0-10.4,1.3-14.8,3.6l0.1,14.4L43,51.2z"/>
		<path class="st3" d="M43.7,51.4l27.6,6.5l0.4-0.1l-0.1-14.6l-0.2-22.4l-14.9-3.5c-5.9,6.6-9.7,15-10.6,24.3
			c-0.9-0.3-1.8-0.6-2.7-0.8l0.1,10.5L43.7,51.4z"/>
		<path class="st0" d="M72.3,54.8c0-2.6,2.1-4.6,4.6-4.6c2.6,0,4.6,2.1,4.6,4.6v0.1l12.6-3.7l0.3,0.1l-0.3-37.1L76,19.5l-4.7,1.4
			l0.2,22.4l0.1,14.6l1.4-0.4C72.6,56.7,72.3,55.8,72.3,54.8z"/>
		<path class="st4" d="M76.1,19.4l18.1-5.3V14l16.3-4.8c-6.5-4-14.1-6.3-22.2-6.3C84,2.9,79.9,3.5,76,4.7
			C68.4,7,61.7,11.4,56.5,17.1l14.9,3.5L76.1,19.4z"/>
		<path class="st3" d="M94.8,51.4l10.5,2.5c0.4-2.1,2.3-3.7,4.6-3.7c2.6,0,4.6,2.1,4.6,4.6c0,0.4-0.1,0.8-0.2,1.2l8.1,1.9l0.4-0.1
			l-0.1-14.6l-0.2-22.4l-28.3-6.7h-0.1v0.1l0.3,37.1L94.8,51.4z"/>
		<path class="st0" d="M122.7,43.2l0.1,14.6l22.5-6.6l-0.2-24.7c-5.6-0.1-12.6,1.9-17.1,4c-0.2-0.6-0.4-1.1-0.7-1.6
			c-1.2-2.9-2.8-5.6-4.6-8.1l-0.2,0.1L122.7,43.2z"/>
		<path class="st2" d="M94.2,14.1l28.3,6.7l0.2-0.1c-3.3-4.6-7.5-8.4-12.3-11.4c0,0,0,0-0.1,0L94.2,14.1L94.2,14.1z"/>
		<path class="st3" d="M15.6,74.3L3.2,71.4c0,0.1,0,0.3,0,0.4C3.2,82,7.9,91,15.3,96.9c0.2,0.1,0.3,0.3,0.5,0.4v-0.5L15.6,74.3z"/>
		<path class="st0" d="M20.3,72.9l-4.7,1.4l0.2,22.4v0.5c5.3,4.1,12,6.5,19.2,6.5h3.7l-0.3-36.1L20.3,72.9z"/>
		<path class="st4" d="M20.3,72.9l18.1-5.3v-0.1L71,58l0.3-0.1l-27.6-6.5l-0.4-0.1L43,51.2l-22.5,6.6l-0.4,0.1L19.8,58L4.5,62.5
			c0,0,0,0,0,0.1c-0.8,2.8-1.3,5.7-1.3,8.8l12.4,2.9L20.3,72.9z"/>
		<polygon class="st3" points="66.7,74.3 38.5,67.6 38.4,67.5 38.4,67.6 38.7,103.7 42.8,103.7 67,103.7 66.9,96.7 		"/>
		<path class="st0" d="M73.6,72.3l-2.2,0.6l-4.7,1.4l0.2,22.4l0.1,7.1h22.9l-0.2-17.2C82.1,85.1,75.9,79.6,73.6,72.3z"/>
		<path class="st2" d="M94.2,66.2l28-8.2l0.3-0.1l-8.1-1.9v0.1c-0.6,1.9-2.3,3.3-4.4,3.3c-2.6,0-4.6-2.1-4.6-4.6
			c0-0.3,0-0.5,0.1-0.8v-0.1L95,51.4l-0.4-0.1l-0.3-0.1l-12.6,3.7c0,0.1,0,0.2,0,0.4c-0.2,2.3-2.2,4.2-4.6,4.2
			c-1.5,0-2.8-0.7-3.6-1.8c-0.1-0.1-0.2-0.2-0.2-0.3l-1.4,0.4l-0.4,0.1L71,58l-32.6,9.6h0.1l28.3,6.7l4.7-1.4l2.2-0.6
			c-0.6-1.9-0.9-4-0.9-6.1H94.2z"/>
		<path class="st3" d="M117.9,74.3l-5-1.2c-2.8,8-10.5,13.8-19.5,13.8c-1.3,0-2.5-0.1-3.7-0.3l0.2,17.2H94h24.2l-0.1-7.1L117.9,74.3
			z"/>
		<path class="st0" d="M122.7,72.9l-4.7,1.4l0.2,22.4l0.1,7.1h22c0.2,0,0.3,0,0.5,0l-0.3-36L122.7,72.9z"/>
		<path class="st4" d="M145.3,51.4v-0.2l-22.5,6.6l-0.4,0.1l-0.3,0.1l-28,8.2h0.2H114c0,2.4-0.4,4.7-1.2,6.9l5,1.2l4.7-1.4l17.7-5.2
			v-0.1L173,58l-27.4-6.5L145.3,51.4z"/>
		<path class="st3" d="M145.3,51.4l0.3,0.1L173,58l0.4-0.1l0.2-0.1l-0.1-14.5l-0.1-6.4c-5.9-5.5-14.6-9.3-27-10.3
			c-0.5,0-0.9-0.1-1.4-0.1l0.2,24.7L145.3,51.4z"/>
		<path class="st0" d="M173.7,57.8l9.9-2.9c-1.1-4.6-2.8-9-5.6-12.9c-1.3-1.8-2.8-3.5-4.5-5.1l0.1,6.4L173.7,57.8z"/>
		<path class="st3" d="M169,96.8l-0.2-22.5l-28.1-6.7l-0.3-0.1v0.1l0.3,36c1,0,2.5,0,4.5,0c0.2,0,0.4,0,0.6,0c0.1,0,0.2,0,0.2,0
			c1.8,0,3.4,0,5,0c10.8-0.2,15.7-2,17.5-3c0.2-0.1,0.4-0.2,0.5-0.3l0,0V96.8z"/>
		<path class="st0" d="M168.8,74.3l0.2,22.5v3.7l0,0c0.2-0.1,0.4-0.2,0.4-0.3l0,0l0,0c6-3.9,13.6-11.5,15-25.9
			c0.2-1.5,0.3-3.1,0.3-4.7l-11,3.2L168.8,74.3z"/>
		<path class="st2" d="M183.6,55.2c0-0.1,0-0.2-0.1-0.3l-9.9,2.9l-0.2,0.1L173,58l-32.6,9.6l0.3,0.1l28.1,6.7l5.1-1.5l11-3.2
			C185,64.8,184.7,59.9,183.6,55.2z"/>
		<path class="st5" d="M109.9,50.2c-2.2,0-4.1,1.6-4.6,3.7V54c0,0.3-0.1,0.5-0.1,0.8c0,2.6,2.1,4.6,4.6,4.6c2.1,0,3.9-1.4,4.4-3.3
			V56c0.1-0.4,0.2-0.8,0.2-1.2C114.6,52.2,112.5,50.2,109.9,50.2z"/>
		<path class="st5" d="M76.9,50.2c-2.6,0-4.6,2.1-4.6,4.6c0,1,0.3,1.8,0.8,2.6c0.1,0.1,0.2,0.2,0.2,0.3c0.9,1.1,2.2,1.8,3.6,1.8
			c2.4,0,4.4-1.8,4.6-4.2c0-0.1,0-0.2,0-0.4v-0.1C81.6,52.2,79.5,50.2,76.9,50.2z"/>
		<path class="st5" d="M94.4,66.2h-0.2H72.8c0,2.1,0.3,4.1,0.9,6.1c2.2,7.3,8.4,12.9,16.1,14.3c1.2,0.2,2.4,0.3,3.7,0.3
			c9,0,16.6-5.8,19.5-13.8c0.8-2.2,1.2-4.5,1.2-6.9L94.4,66.2L94.4,66.2z"/>
	</g>
</g>
</svg>
