<svg id="Layer_1" data-name="Layer 1" xmlns="http://www.w3.org/2000/svg" xmlns:xlink="http://www.w3.org/1999/xlink" viewBox="0 0 360 360"><defs><style>.cls-1{fill:url(#linear-gradient);}.cls-2{fill:url(#linear-gradient-2);}.cls-3{fill:#62269e;}.cls-4{fill:#fff;}.cls-5{fill:#2c256c;}.cls-6{fill:#5b2d82;}.cls-7{fill:url(#linear-gradient-3);}.cls-8{fill:url(#linear-gradient-4);}.cls-9{fill:url(#linear-gradient-5);}.cls-10{fill:url(#linear-gradient-6);}.cls-11{fill:#250671;}.cls-12{fill:#8547ad;}.cls-13{fill:#623393;}</style><linearGradient id="linear-gradient" x1="1175.09794" y1="3721.95473" x2="1426.07866" y2="3721.95473" gradientTransform="matrix(0.7071, -0.7071, -0.7071, -0.7071, 1855.54371, 3701.59073)" gradientUnits="userSpaceOnUse"><stop offset="0" stop-color="#623393"/><stop offset="0.5738" stop-color="#452b7c"/><stop offset="1" stop-color="#2c256c"/></linearGradient><linearGradient id="linear-gradient-2" x1="1175.09794" y1="3687.80552" x2="1426.07866" y2="3687.80552" xlink:href="#linear-gradient"/><linearGradient id="linear-gradient-3" x1="1175.09794" y1="3675.41908" x2="1426.07866" y2="3675.41908" xlink:href="#linear-gradient"/><linearGradient id="linear-gradient-4" x1="1151.30398" y1="3644.62596" x2="1452.72217" y2="3644.62596" xlink:href="#linear-gradient"/><linearGradient id="linear-gradient-5" x1="1151.30398" y1="3661.78707" x2="1452.72217" y2="3661.78707" xlink:href="#linear-gradient"/><linearGradient id="linear-gradient-6" x1="1151.30398" y1="3705.41641" x2="1452.72217" y2="3705.41641" xlink:href="#linear-gradient"/></defs><title>coredns-icon-solid-color</title><path class="cls-1" d="M103.46909,189.00069a35.00732,35.00732,0,0,0-6.06731,8.22022,35.74045,35.74045,0,0,1,6.06731-8.22022Z"/><path class="cls-2" d="M205.439,116.878a18.15774,18.15774,0,0,1,12.81965,5.28443l10.471,10.471h0l-10.471-10.471A18.32675,18.32675,0,0,0,205.439,116.878Z"/><path class="cls-3" d="M103.46909,129.40405a29.70913,29.70913,0,0,1,42.07973,0l8.70952,8.70953,27.205-27.205a33.84345,33.84345,0,0,1,47.85345,0l10.471,10.471,26.22642-26.22644L208.962,38.10083a42.28977,42.28977,0,0,0-59.69449,0L31.54212,155.92407a42.29213,42.29213,0,0,0-6.263,51.67l.39144-.39143Z"/><path class="cls-3" d="M257.20689,231.86329a29.70915,29.70915,0,0,1-42.07973,0L204.754,221.49014l-34.3488,34.3488a33.84345,33.84345,0,0,1-47.85345,0l-8.80739-8.80738L88.30082,272.47511,140.75369,324.928a42.2898,42.2898,0,0,0,59.6945,0L318.17355,207.20261a42.4215,42.4215,0,0,0,9.29668-45.60267l-3.81653,3.81653Z"/><path class="cls-4" d="M159.24919,244.68293h0a18.07336,18.07336,0,0,1-25.54142,0l-8.80738-8.80738-10.27528-10.27529a17.9345,17.9345,0,0,1-5.28443-12.72177,17.71079,17.71079,0,0,1,1.37-6.75233,18.03136,18.03136,0,0,1,3.9144-5.96945h0l50.78924-50.78925,27.205-27.205h0a18.10513,18.10513,0,0,1,9.29668-4.99085,20.23663,20.23663,0,0,1,3.4251-.29358,18.15773,18.15773,0,0,1,12.81964,5.28443l10.471,10.471,11.156-11.156h0l-10.471-10.471a33.84345,33.84345,0,0,0-47.85345,0l-27.205,27.205-50.78925,50.78926a35.00732,35.00732,0,0,0-6.06731,8.22022,28.55079,28.55079,0,0,0-1.37,3.03366,33.76309,33.76309,0,0,0,7.43734,36.69744l10.17742,10.17742,8.80738,8.80738a33.84345,33.84345,0,0,0,47.85345,0L204.65615,221.588l-11.156-11.156Z"/><path class="cls-5" d="M323.6537,165.41647l3.81653-3.81653a39.84734,39.84734,0,0,0-5.67586-9.88385A128.037,128.037,0,0,1,323.6537,165.41647Z"/><path class="cls-6" d="M25.57266,207.30048l-.39143.39143c.19572.39144.4893.78288.685,1.17432A4.05682,4.05682,0,0,0,25.57266,207.30048Z"/><path class="cls-7" d="M193.3044,167.96083l35.42527-35.42525-10.471-10.471a17.99138,17.99138,0,0,0-12.81965-5.28443,19.40118,19.40118,0,0,0-3.42509.29358,18.105,18.105,0,0,0-9.29668,4.99085l-27.205,27.205,1.95719,1.9572a29.70913,29.70913,0,0,1,0,42.07973l-42.569,42.569,8.80738,8.80738a17.99137,17.99137,0,0,0,12.81965,5.28442,17.71047,17.71047,0,0,0,6.75232-1.37,18.03122,18.03122,0,0,0,5.96945-3.91439L193.598,210.33412l-.29357-.29358A29.7091,29.7091,0,0,1,193.3044,167.96083Z"/><path class="cls-3" d="M193.3044,167.96083l35.42527-35.42525-10.471-10.471a17.99138,17.99138,0,0,0-12.81965-5.28443,19.40118,19.40118,0,0,0-3.42509.29358,18.105,18.105,0,0,0-9.29668,4.99085l-27.205,27.205,1.95719,1.9572a29.70913,29.70913,0,0,1,0,42.07973l-42.569,42.569,8.80738,8.80738a17.99137,17.99137,0,0,0,12.81965,5.28442,17.71047,17.71047,0,0,0,6.75232-1.37,18.03122,18.03122,0,0,0,5.96945-3.91439L193.598,210.33412l-.29357-.29358A29.7091,29.7091,0,0,1,193.3044,167.96083Z"/><path class="cls-4" d="M159.24919,244.68293h0a18.03092,18.03092,0,0,1-5.96945,3.91439A16.62894,16.62894,0,0,0,159.24919,244.68293Z"/><path class="cls-8" d="M159.24919,244.68293h0a18.03092,18.03092,0,0,1-5.96945,3.91439A16.62894,16.62894,0,0,0,159.24919,244.68293Z"/><path class="cls-4" d="M124.90039,235.87555h0l8.80738,8.80738a17.99137,17.99137,0,0,0,12.81965,5.28442,18.15777,18.15777,0,0,1-12.81965-5.28442Z"/><path class="cls-9" d="M124.90039,235.87555h0l8.80738,8.80738a17.99137,17.99137,0,0,0,12.81965,5.28442,18.15777,18.15777,0,0,1-12.81965-5.28442Z"/><path class="cls-4" d="M192.6194,122.16243h0a18.10513,18.10513,0,0,1,9.29668-4.99085A18.49218,18.49218,0,0,0,192.6194,122.16243Z"/><path class="cls-10" d="M192.6194,122.16243h0a18.10513,18.10513,0,0,1,9.29668-4.99085A18.49218,18.49218,0,0,0,192.6194,122.16243Z"/><path class="cls-11" d="M31.54212,215.71641a40.716,40.716,0,0,1-5.578-6.85018,7.299,7.299,0,0,1-.685-1.17432l-11.156,11.156a29.70912,29.70912,0,0,0,0,42.07972L35.94582,282.7504a29.89931,29.89931,0,0,0,42.07975,0l6.948-6.94806,2.4465-2.44649.88073-.88074Z"/><path class="cls-12" d="M103.46909,236.75628a35.00732,35.00732,0,0,1-6.06731-8.22022,34.09819,34.09819,0,0,1-1.37-28.47722c.39144-.9786.88074-2.05506,1.37-3.03366a34.29761,34.29761,0,0,1,6.06731-8.22022h0l50.78925-50.78925-8.70952-8.70953a29.70913,29.70913,0,0,0-42.07973,0L25.67053,207.10475c.09786.4893.19571,1.07646.29358,1.56576a37.1614,37.1614,0,0,0,5.578,6.85019l56.7587,56.7587,25.44355-25.44356Z"/><path class="cls-6" d="M96.1296,200.15671a34.09814,34.09814,0,0,0,1.37,28.47721A33.77223,33.77223,0,0,1,96.1296,200.15671Z"/><path class="cls-12" d="M124.90039,235.87555l42.47116-42.47116a29.70915,29.70915,0,0,0,0-42.07973l-1.9572-1.9572-50.78924,50.78925a18.55939,18.55939,0,0,0-5.28443,12.72178,17.7694,17.7694,0,0,0,5.28443,12.72177Z"/><path class="cls-6" d="M114.62511,225.60026a17.9345,17.9345,0,0,1-5.28443-12.72177,17.9345,17.9345,0,0,0,5.28443,12.72177l10.17741,10.17742h0Z"/><path class="cls-6" d="M114.62511,200.05884a18.03119,18.03119,0,0,0-3.9144,5.96946,18.03129,18.03129,0,0,1,3.9144-5.96946Z"/><path class="cls-11" d="M228.63181,132.53557l-35.42527,35.42526a29.70913,29.70913,0,0,0,0,42.07973l.29356.29358,43.64549-43.64548a18.105,18.105,0,0,0,4.99086-9.29668,20.23547,20.23547,0,0,0,.29357-3.42509,18.15769,18.15769,0,0,0-5.28443-12.81964Z"/><path class="cls-5" d="M237.24346,166.68865a18.10515,18.10515,0,0,0,4.99086-9.29668,18.10493,18.10493,0,0,1-4.99086,9.29668Z"/><path class="cls-13" d="M237.24346,141.14723a17.99136,17.99136,0,0,1,5.28442,12.81964,17.99125,17.99125,0,0,0-5.28442-12.81964l-8.61165-8.61167h0Z"/><path class="cls-13" d="M248.3995,177.84466a34.28467,34.28467,0,0,0,7.43736-11.156,33.28634,33.28634,0,0,1-7.43736,11.156Z"/><path class="cls-3" d="M255.83683,166.68865a29.41668,29.41668,0,0,0,1.07646-3.13151,33.75052,33.75052,0,0,0-8.51382-33.56593l-8.61165-8.61166-11.156,11.156,8.61165,8.61167a17.99134,17.99134,0,0,1,5.28442,12.81963,19.40433,19.40433,0,0,1-.29356,3.4251,18.10515,18.10515,0,0,1-4.99086,9.29668h0L193.598,210.33412l11.156,11.156,43.64549-43.64549A33.2853,33.2853,0,0,0,255.83683,166.68865Z"/><path class="cls-3" d="M346.5529,100.43754,324.73017,78.6148a29.7577,29.7577,0,0,0-39.9268-1.9572,20.44124,20.44124,0,0,0-2.15293,1.9572L268.55863,92.70661l-2.44649,2.4465-.09787.09786,52.15928,52.15928a50.90657,50.90657,0,0,1,3.71866,4.30583,43.70336,43.70336,0,0,1,5.67586,9.88385l19.08266-19.08267A29.79787,29.79787,0,0,0,346.5529,100.43754Z"/><path class="cls-11" d="M248.3995,129.99121a33.75058,33.75058,0,0,1,8.51382,33.56593c-.29357,1.07646-.685,2.05506-1.07646,3.13151a32.34526,32.34526,0,0,1-7.43736,11.156h0L204.754,221.49014l10.37315,10.37315a29.70915,29.70915,0,0,0,42.07973,0l66.44681-66.44682a128.037,128.037,0,0,0-1.85933-13.70038,50.91514,50.91514,0,0,0-3.71866-4.30583L265.91644,95.251,239.69,121.47741Z"/><path class="cls-5" d="M248.3995,129.99121a33.75058,33.75058,0,0,1,8.51382,33.56593,33.80363,33.80363,0,0,0-8.51382-33.56593l-8.61165-8.61166h0Z"/></svg>