<svg id="Layer_1" data-name="Layer 1" xmlns="http://www.w3.org/2000/svg" xmlns:xlink="http://www.w3.org/1999/xlink" viewBox="0 0 800 800"><defs><style>.cls-1,.cls-3{fill:#183d54;}.cls-2{fill:none;}.cls-3{fill-rule:evenodd;}.cls-4{clip-path:url(#clip-path);}.cls-5{clip-path:url(#clip-path-2);}.cls-6{clip-path:url(#clip-path-3);}.cls-7{clip-path:url(#clip-path-4);}.cls-8{clip-path:url(#clip-path-5);}.cls-9{clip-path:url(#clip-path-6);}.cls-10{clip-path:url(#clip-path-7);}.cls-11{clip-path:url(#clip-path-8);}.cls-12{clip-path:url(#clip-path-9);}.cls-13{clip-path:url(#clip-path-10);}.cls-14{clip-path:url(#clip-path-11);}.cls-15{fill:#f7d186;}.cls-16{clip-path:url(#clip-path-12);}.cls-17{isolation:isolate;}.cls-18{clip-path:url(#clip-path-13);}.cls-19{clip-path:url(#clip-path-14);}.cls-20{clip-path:url(#clip-path-15);}.cls-21{fill:#ffcd3c;}.cls-22{clip-path:url(#clip-path-17);}.cls-23{clip-path:url(#clip-path-18);}.cls-24{fill:#f3807b;}.cls-25{clip-path:url(#clip-path-21);}.cls-26{clip-path:url(#clip-path-22);}.cls-27{fill:#35d0ba;}.cls-28{clip-path:url(#clip-path-24);}.cls-29{fill:#d8ae64;}</style><clipPath id="clip-path"><path class="cls-1" d="M110.43,723.13a46.31,46.31,0,1,1,34.78-76.81,7.67266,7.67266,0,0,1-.66,10.8,7.56458,7.56458,0,0,1-10.8-.66,30.89512,30.89512,0,1,0,0,40.71008,7.56513,7.56513,0,0,1,10.8-.66,7.6733,7.6733,0,0,1,.66,10.8A46.171,46.171,0,0,1,110.43,723.13"/></clipPath><clipPath id="clip-path-2"><path class="cls-1" d="M196.72,659.76a7.67458,7.67458,0,0,1-7.77,7.64c-8.43,0-14.76,6.85-14.76,16.21v31.88a7.64,7.64,0,1,1-15.28,0v-57.31a7.64059,7.64059,0,0,1,15.02-1.98,29.47451,29.47451,0,0,1,15.02-4.08,7.68089,7.68089,0,0,1,7.77,7.64"/></clipPath><clipPath id="clip-path-3"><path class="cls-1" d="M235.58,723.53a36.295,36.295,0,1,1,36.36-36.23,36.29324,36.29324,0,0,1-36.36,36.23m0-57.31006a21.01512,21.01512,0,1,0,20.95,21.08,21.03609,21.03609,0,0,0-20.95-21.08"/></clipPath><clipPath id="clip-path-4"><path class="cls-1" d="M284.59,709.83a7.63671,7.63671,0,1,1,13.84-6.46c1.05,2.11,3.95,4.48,9.09,4.48,7.11,0,9.62-4.35,9.62-7.25,0-3.95-1.05-5.14-11.33-7.77-4.61-1.05-9.36-2.24-13.44-4.87a18.55053,18.55053,0,0,1-8.56-16.07,20.84729,20.84729,0,0,1,6.45-14.76,24.41824,24.41824,0,0,1,17.26-6.59c9.75,0,18.05,4.74,21.61,12.51a7.63007,7.63007,0,1,1-13.83,6.45c-.79-1.71-3.29-3.69-7.77-3.69-6.06,0-8.3,3.82-8.3,6.06,0,2.64.53,3.69,10.28,6.19,8.56,2.11,22.92,5.66,22.92,22.53a22.208,22.208,0,0,1-6.59,15.55c-3.29,3.16-9.09,6.98-18.31,6.98C297.11,723.13,288.28,718,284.59,709.83"/></clipPath><clipPath id="clip-path-5"><path class="cls-1" d="M345.06,709.83a7.63671,7.63671,0,1,1,13.84-6.46c1.05,2.11,3.95,4.48,9.09,4.48,7.12,0,9.62-4.35,9.62-7.25,0-3.95-1.05-5.14-11.33-7.77-4.61-1.05-9.36-2.24-13.44-4.87a18.55053,18.55053,0,0,1-8.56-16.07,20.81721,20.81721,0,0,1,6.46-14.76,24.41824,24.41824,0,0,1,17.26-6.59c9.75,0,18.05,4.74,21.61,12.51a7.6346,7.6346,0,0,1-13.84,6.45c-.79-1.71-3.29-3.69-7.77-3.69-6.06,0-8.3,3.82-8.3,6.06,0,2.64.53,3.69,10.28,6.19,8.56,2.11,22.92,5.66,22.92,22.53a22.208,22.208,0,0,1-6.59,15.55c-3.29,3.16-9.09,6.98-18.31,6.98C357.58,723.13,348.75,718,345.06,709.83"/></clipPath><clipPath id="clip-path-6"><path class="cls-1" d="M473.78,686.77a37.03328,37.03328,0,0,1-9.49,25.43,33.6663,33.6663,0,0,1-25.03,10.93,34.343,34.343,0,0,1-19.1-5.8v31.09a7.75786,7.75786,0,0,1-7.77,7.64,7.6393,7.6393,0,0,1-7.64-7.64V658.17a7.63934,7.63934,0,0,1,7.64-7.64,7.7498,7.7498,0,0,1,7.51,5.93,34.62243,34.62243,0,0,1,19.37-5.93,33.54822,33.54822,0,0,1,25.03,10.8,37.34935,37.34935,0,0,1,9.48,25.44m-15.28,0c0-12.12-8.04-20.95-19.24-20.95-11.07,0-19.1,8.83-19.1,20.95s8.04,20.95,19.1,20.95c11.2-.00006,19.24-8.83,19.24-20.95"/></clipPath><clipPath id="clip-path-7"><path class="cls-1" d="M493.94,723.13a7.64571,7.64571,0,0,1-7.64-7.64v-77.2a7.64574,7.64574,0,0,1,7.64-7.64,7.75132,7.75132,0,0,1,7.77,7.64v77.2a7.75782,7.75782,0,0,1-7.77,7.64"/></clipPath><clipPath id="clip-path-8"><path class="cls-1" d="M583.26,658.18v57.31a7.67561,7.67561,0,0,1-15.15,1.71,33.98116,33.98116,0,0,1-19.37,5.93,33.19931,33.19931,0,0,1-25.03-10.93,38.67358,38.67358,0,0,1,0-50.73,33.21489,33.21489,0,0,1,25.03-10.93,34.0279,34.0279,0,0,1,19.37,5.93,7.67561,7.67561,0,0,1,15.15,1.71M567.98,686.9c0-12.25-8.17-21.08-19.23-21.08-11.2,0-19.24,8.83-19.24,21.08,0,12.12,8.04,20.95,19.24,20.95,11.06-.00006,19.23-8.83,19.23-20.95"/></clipPath><clipPath id="clip-path-9"><path class="cls-1" d="M656.64,682.03v33.46a7.70529,7.70529,0,0,1-15.41,0V682.03c0-7.77-4.35-16.21-14.1-16.21-8.83,0-15.41,6.98-15.41,16.21v33.47a7.64,7.64,0,1,1-15.28,0V658.19012a7.6547,7.6547,0,0,1,14.62-3.16,30.04665,30.04665,0,0,1,16.07-4.48C643.86,650.54,656.64,664.11,656.64,682.03"/></clipPath><clipPath id="clip-path-10"><path class="cls-1" d="M703.02,723.79a33.57184,33.57184,0,0,1-25.03-11.33c-6.19-6.59-9.48-15.68-9.48-25.3,0-20.82,14.62-36.36,33.86-36.36,19.37,0,33.46,15.28,33.46,36.36a7.6683,7.6683,0,0,1-7.77,7.64H684.98c2.64,8.04,9.49,13.7,18.05,13.7,5.16,0,9.54-1.09,12.67-4.09a13.4058,13.4058,0,0,0,2.48-3.28,7.67884,7.67884,0,1,1,13.17,7.9C725.41,719.71,715.14,723.79,703.02,723.79m-18.19-44.4h34.65c-2.64-9.09-9.88-13.31-17.13-13.31a18.1583,18.1583,0,0,0-17.52,13.31"/></clipPath><clipPath id="clip-path-11"><path class="cls-2" d="M396.75865,219.28336a33.54642,33.54642,0,0,0-33.54657,33.54656V568.52344a33.54657,33.54657,0,0,0,67.09314,0V252.83708a33.54337,33.54337,0,0,0-33.54657-33.55372"/></clipPath><clipPath id="clip-path-12"><path class="cls-2" d="M264.67444,165.30467q-.1399,3.08849-.1435,6.22721c0,2.28857.05023,4.55562.17218,6.81549-.05023,1.112-.17218,2.20966-.17218,3.34318V401.35021a76.60388,76.60388,0,0,0,76.37653,76.37655h114.945a76.59923,76.59923,0,0,0,76.37656-76.37655V181.68337c0-1.277-.12914-2.51814-.2009-3.77363.10045-2.11638.15781-4.24712.15781-6.37786,0-2.09486-.05023-4.161-.14349-6.2272a133.82835,133.82835,0,0,0-267.36805,0Z"/></clipPath><clipPath id="clip-path-13"><rect class="cls-2" x="177.6514" y="66.6666" width="434.83544" height="434.83543"/></clipPath><clipPath id="clip-path-14"><rect class="cls-2" x="162.68003" y="216.34997" width="469.46081" height="140.26863" transform="translate(-86.17616 364.92092) rotate(-45)"/></clipPath><clipPath id="clip-path-15"><rect class="cls-2" x="262.73024" y="33.57916" width="274.13338" height="444.29103"/></clipPath><clipPath id="clip-path-17"><rect class="cls-2" x="59.49231" y="-51.49966" width="458.46726" height="458.46728"/></clipPath><clipPath id="clip-path-18"><rect class="cls-2" x="51.90887" y="89.14645" width="469.46798" height="173.02569" transform="translate(-40.25413 254.13653) rotate(-45)"/></clipPath><clipPath id="clip-path-21"><rect class="cls-2" x="276.90646" y="165.92165" width="434.83547" height="434.83547"/></clipPath><clipPath id="clip-path-22"><rect class="cls-2" x="261.20142" y="315.42554" width="469.47391" height="139.0489" transform="translate(-126.94291 463.43741) rotate(-45.00062)"/></clipPath><clipPath id="clip-path-24"><polygon class="cls-2" points="371.814 477.72 430.312 537.187 430.312 477.72 371.814 477.72"/></clipPath></defs><path id="SVGID" class="cls-3" d="M110.43,723.13a46.31,46.31,0,1,1,34.78-76.81,7.67266,7.67266,0,0,1-.66,10.8,7.56458,7.56458,0,0,1-10.8-.66,30.89512,30.89512,0,1,0,0,40.71008,7.56513,7.56513,0,0,1,10.8-.66,7.6733,7.6733,0,0,1,.66,10.8A46.171,46.171,0,0,1,110.43,723.13"/><path class="cls-1" d="M110.43,723.13a46.31,46.31,0,1,1,34.78-76.81,7.67266,7.67266,0,0,1-.66,10.8,7.56458,7.56458,0,0,1-10.8-.66,30.89512,30.89512,0,1,0,0,40.71008,7.56513,7.56513,0,0,1,10.8-.66,7.6733,7.6733,0,0,1,.66,10.8A46.171,46.171,0,0,1,110.43,723.13"/><g class="cls-4"><rect class="cls-1" x="57.12" y="623.45001" width="97.05" height="106.73999"/></g><path id="SVGID-2" data-name="SVGID" class="cls-3" d="M196.72,659.76a7.67458,7.67458,0,0,1-7.77,7.64c-8.43,0-14.76,6.85-14.76,16.21v31.88a7.64,7.64,0,1,1-15.28,0v-57.31a7.64059,7.64059,0,0,1,15.02-1.98,29.47451,29.47451,0,0,1,15.02-4.08,7.68089,7.68089,0,0,1,7.77,7.64"/><path class="cls-1" d="M196.72,659.76a7.67458,7.67458,0,0,1-7.77,7.64c-8.43,0-14.76,6.85-14.76,16.21v31.88a7.64,7.64,0,1,1-15.28,0v-57.31a7.64059,7.64059,0,0,1,15.02-1.98,29.47451,29.47451,0,0,1,15.02-4.08,7.68089,7.68089,0,0,1,7.77,7.64"/><g class="cls-5"><rect class="cls-1" x="151.85001" y="643.47998" width="51.92999" height="86.71002"/></g><path id="SVGID-3" data-name="SVGID" class="cls-3" d="M235.58,723.53a36.295,36.295,0,1,1,36.36-36.23,36.29324,36.29324,0,0,1-36.36,36.23m0-57.31006a21.01512,21.01512,0,1,0,20.95,21.08,21.03609,21.03609,0,0,0-20.95-21.08"/><path class="cls-1" d="M235.58,723.53a36.295,36.295,0,1,1,36.36-36.23,36.29324,36.29324,0,0,1-36.36,36.23m0-57.31006a21.01512,21.01512,0,1,0,20.95,21.08,21.03609,21.03609,0,0,0-20.95-21.08"/><g class="cls-6"><rect class="cls-1" x="192.28999" y="643.88" width="86.71001" height="86.71002"/></g><path id="SVGID-4" data-name="SVGID" class="cls-3" d="M284.59,709.83a7.63671,7.63671,0,1,1,13.84-6.46c1.05,2.11,3.95,4.48,9.09,4.48,7.11,0,9.62-4.35,9.62-7.25,0-3.95-1.05-5.14-11.33-7.77-4.61-1.05-9.36-2.24-13.44-4.87a18.55053,18.55053,0,0,1-8.56-16.07,20.84729,20.84729,0,0,1,6.45-14.76,24.41824,24.41824,0,0,1,17.26-6.59c9.75,0,18.05,4.74,21.61,12.51a7.63007,7.63007,0,1,1-13.83,6.45c-.79-1.71-3.29-3.69-7.77-3.69-6.06,0-8.3,3.82-8.3,6.06,0,2.64.53,3.69,10.28,6.19,8.56,2.11,22.92,5.66,22.92,22.53a22.208,22.208,0,0,1-6.59,15.55c-3.29,3.16-9.09,6.98-18.31,6.98C297.11,723.13,288.28,718,284.59,709.83"/><path class="cls-1" d="M284.59,709.83a7.63671,7.63671,0,1,1,13.84-6.46c1.05,2.11,3.95,4.48,9.09,4.48,7.11,0,9.62-4.35,9.62-7.25,0-3.95-1.05-5.14-11.33-7.77-4.61-1.05-9.36-2.24-13.44-4.87a18.55053,18.55053,0,0,1-8.56-16.07,20.84729,20.84729,0,0,1,6.45-14.76,24.41824,24.41824,0,0,1,17.26-6.59c9.75,0,18.05,4.74,21.61,12.51a7.63007,7.63007,0,1,1-13.83,6.45c-.79-1.71-3.29-3.69-7.77-3.69-6.06,0-8.3,3.82-8.3,6.06,0,2.64.53,3.69,10.28,6.19,8.56,2.11,22.92,5.66,22.92,22.53a22.208,22.208,0,0,1-6.59,15.55c-3.29,3.16-9.09,6.98-18.31,6.98C297.11,723.13,288.28,718,284.59,709.83"/><g class="cls-7"><rect class="cls-1" x="276.73999" y="643.47998" width="62.73999" height="86.71002"/></g><path id="SVGID-5" data-name="SVGID" class="cls-3" d="M345.06,709.83a7.63671,7.63671,0,1,1,13.84-6.46c1.05,2.11,3.95,4.48,9.09,4.48,7.12,0,9.62-4.35,9.62-7.25,0-3.95-1.05-5.14-11.33-7.77-4.61-1.05-9.36-2.24-13.44-4.87a18.55053,18.55053,0,0,1-8.56-16.07,20.81721,20.81721,0,0,1,6.46-14.76,24.41824,24.41824,0,0,1,17.26-6.59c9.75,0,18.05,4.74,21.61,12.51a7.6346,7.6346,0,0,1-13.84,6.45c-.79-1.71-3.29-3.69-7.77-3.69-6.06,0-8.3,3.82-8.3,6.06,0,2.64.53,3.69,10.28,6.19,8.56,2.11,22.92,5.66,22.92,22.53a22.208,22.208,0,0,1-6.59,15.55c-3.29,3.16-9.09,6.98-18.31,6.98C357.58,723.13,348.75,718,345.06,709.83"/><path class="cls-1" d="M345.06,709.83a7.63671,7.63671,0,1,1,13.84-6.46c1.05,2.11,3.95,4.48,9.09,4.48,7.12,0,9.62-4.35,9.62-7.25,0-3.95-1.05-5.14-11.33-7.77-4.61-1.05-9.36-2.24-13.44-4.87a18.55053,18.55053,0,0,1-8.56-16.07,20.81721,20.81721,0,0,1,6.46-14.76,24.41824,24.41824,0,0,1,17.26-6.59c9.75,0,18.05,4.74,21.61,12.51a7.6346,7.6346,0,0,1-13.84,6.45c-.79-1.71-3.29-3.69-7.77-3.69-6.06,0-8.3,3.82-8.3,6.06,0,2.64.53,3.69,10.28,6.19,8.56,2.11,22.92,5.66,22.92,22.53a22.208,22.208,0,0,1-6.59,15.55c-3.29,3.16-9.09,6.98-18.31,6.98C357.58,723.13,348.75,718,345.06,709.83"/><g class="cls-8"><rect class="cls-1" x="337.20999" y="643.47998" width="62.73999" height="86.71002"/></g><path id="SVGID-6" data-name="SVGID" class="cls-3" d="M473.78,686.77a37.03328,37.03328,0,0,1-9.49,25.43,33.6663,33.6663,0,0,1-25.03,10.93,34.343,34.343,0,0,1-19.1-5.8v31.09a7.75786,7.75786,0,0,1-7.77,7.64,7.6393,7.6393,0,0,1-7.64-7.64V658.17a7.63934,7.63934,0,0,1,7.64-7.64,7.7498,7.7498,0,0,1,7.51,5.93,34.62243,34.62243,0,0,1,19.37-5.93,33.54822,33.54822,0,0,1,25.03,10.8,37.34935,37.34935,0,0,1,9.48,25.44m-15.28,0c0-12.12-8.04-20.95-19.24-20.95-11.07,0-19.1,8.83-19.1,20.95s8.04,20.95,19.1,20.95c11.2-.00006,19.24-8.83,19.24-20.95"/><path class="cls-1" d="M473.78,686.77a37.03328,37.03328,0,0,1-9.49,25.43,33.6663,33.6663,0,0,1-25.03,10.93,34.343,34.343,0,0,1-19.1-5.8v31.09a7.75786,7.75786,0,0,1-7.77,7.64,7.6393,7.6393,0,0,1-7.64-7.64V658.17a7.63934,7.63934,0,0,1,7.64-7.64,7.7498,7.7498,0,0,1,7.51,5.93,34.62243,34.62243,0,0,1,19.37-5.93,33.54822,33.54822,0,0,1,25.03,10.8,37.34935,37.34935,0,0,1,9.48,25.44m-15.28,0c0-12.12-8.04-20.95-19.24-20.95-11.07,0-19.1,8.83-19.1,20.95s8.04,20.95,19.1,20.95c11.2-.00006,19.24-8.83,19.24-20.95"/><g class="cls-9"><rect class="cls-1" x="397.67999" y="643.47998" width="83.14999" height="119.65002"/></g><path id="SVGID-7" data-name="SVGID" class="cls-3" d="M493.94,723.13a7.64571,7.64571,0,0,1-7.64-7.64v-77.2a7.64574,7.64574,0,0,1,7.64-7.64,7.75132,7.75132,0,0,1,7.77,7.64v77.2a7.75782,7.75782,0,0,1-7.77,7.64"/><path class="cls-1" d="M493.94,723.13a7.64571,7.64571,0,0,1-7.64-7.64v-77.2a7.64574,7.64574,0,0,1,7.64-7.64,7.75132,7.75132,0,0,1,7.77,7.64v77.2a7.75782,7.75782,0,0,1-7.77,7.64"/><g class="cls-10"><rect class="cls-1" x="479.23001" y="623.59003" width="29.54001" height="106.60999"/></g><path id="SVGID-8" data-name="SVGID" class="cls-3" d="M583.26,658.18v57.31a7.67561,7.67561,0,0,1-15.15,1.71,33.98116,33.98116,0,0,1-19.37,5.93,33.19931,33.19931,0,0,1-25.03-10.93,38.67358,38.67358,0,0,1,0-50.73,33.21489,33.21489,0,0,1,25.03-10.93,34.0279,34.0279,0,0,1,19.37,5.93,7.67561,7.67561,0,0,1,15.15,1.71M567.98,686.9c0-12.25-8.17-21.08-19.23-21.08-11.2,0-19.24,8.83-19.24,21.08,0,12.12,8.04,20.95,19.24,20.95,11.06-.00006,19.23-8.83,19.23-20.95"/><path class="cls-1" d="M583.26,658.18v57.31a7.67561,7.67561,0,0,1-15.15,1.71,33.98116,33.98116,0,0,1-19.37,5.93,33.19931,33.19931,0,0,1-25.03-10.93,38.67358,38.67358,0,0,1,0-50.73,33.21489,33.21489,0,0,1,25.03-10.93,34.0279,34.0279,0,0,1,19.37,5.93,7.67561,7.67561,0,0,1,15.15,1.71M567.98,686.9c0-12.25-8.17-21.08-19.23-21.08-11.2,0-19.24,8.83-19.24,21.08,0,12.12,8.04,20.95,19.24,20.95,11.06-.00006,19.23-8.83,19.23-20.95"/><g class="cls-11"><rect class="cls-1" x="507.16" y="643.47998" width="83.16" height="86.71002"/></g><path id="SVGID-9" data-name="SVGID" class="cls-3" d="M656.64,682.03v33.46a7.70529,7.70529,0,0,1-15.41,0V682.03c0-7.77-4.35-16.21-14.1-16.21-8.83,0-15.41,6.98-15.41,16.21v33.47a7.64,7.64,0,1,1-15.28,0V658.19012a7.6547,7.6547,0,0,1,14.62-3.16,30.04665,30.04665,0,0,1,16.07-4.48C643.86,650.54,656.64,664.11,656.64,682.03"/><path class="cls-1" d="M656.64,682.03v33.46a7.70529,7.70529,0,0,1-15.41,0V682.03c0-7.77-4.35-16.21-14.1-16.21-8.83,0-15.41,6.98-15.41,16.21v33.47a7.64,7.64,0,1,1-15.28,0V658.19012a7.6547,7.6547,0,0,1,14.62-3.16,30.04665,30.04665,0,0,1,16.07-4.48C643.86,650.54,656.64,664.11,656.64,682.03"/><g class="cls-12"><rect class="cls-1" x="589.37" y="643.47998" width="74.33002" height="86.71002"/></g><path id="SVGID-10" data-name="SVGID" class="cls-3" d="M703.02,723.79a33.57184,33.57184,0,0,1-25.03-11.33c-6.19-6.59-9.48-15.68-9.48-25.3,0-20.82,14.62-36.36,33.86-36.36,19.37,0,33.46,15.28,33.46,36.36a7.6683,7.6683,0,0,1-7.77,7.64H684.98c2.64,8.04,9.49,13.7,18.05,13.7,5.16,0,9.54-1.09,12.67-4.09a13.4058,13.4058,0,0,0,2.48-3.28,7.67884,7.67884,0,1,1,13.17,7.9C725.41,719.71,715.14,723.79,703.02,723.79m-18.19-44.4h34.65c-2.64-9.09-9.88-13.31-17.13-13.31a18.1583,18.1583,0,0,0-17.52,13.31"/><path class="cls-1" d="M703.02,723.79a33.57184,33.57184,0,0,1-25.03-11.33c-6.19-6.59-9.48-15.68-9.48-25.3,0-20.82,14.62-36.36,33.86-36.36,19.37,0,33.46,15.28,33.46,36.36a7.6683,7.6683,0,0,1-7.77,7.64H684.98c2.64,8.04,9.49,13.7,18.05,13.7,5.16,0,9.54-1.09,12.67-4.09a13.4058,13.4058,0,0,0,2.48-3.28,7.67884,7.67884,0,1,1,13.17,7.9C725.41,719.71,715.14,723.79,703.02,723.79m-18.19-44.4h34.65c-2.64-9.09-9.88-13.31-17.13-13.31a18.1583,18.1583,0,0,0-17.52,13.31"/><g class="cls-13"><rect class="cls-1" x="661.44" y="643.73999" width="81.44" height="87.10999"/></g><g id="Layer_1-2" data-name="Layer 1"><g class="cls-14"><rect class="cls-15" x="339.58027" y="195.65154" width="114.36393" height="430.05029"/></g><g class="cls-16"><g class="cls-17"><g class="cls-18"><g class="cls-19"><g class="cls-20"><rect class="cls-21" x="158.5178" y="47.52581" width="477.55781" height="477.55779"/></g></g></g></g></g><g class="cls-16"><g class="cls-17"><g class="cls-22"><g class="cls-23"><g class="cls-20"><rect class="cls-24" x="35.85333" y="-75.13148" width="501.57704" height="501.57707"/></g></g></g></g></g><g class="cls-16"><g class="cls-17"><g class="cls-25"><g class="cls-26"><g class="cls-20"><rect class="cls-27" x="257.15588" y="146.17108" width="477.55781" height="477.5578"/></g></g></g></g></g><g class="cls-28"><rect class="cls-29" x="348.66281" y="453.97295" width="105.48224" height="105.9414"/></g></g></svg>