<svg id="Layer_1" data-name="Layer 1" xmlns="http://www.w3.org/2000/svg" xmlns:xlink="http://www.w3.org/1999/xlink" viewBox="0 0 537.70001 166.2"><defs><style>.cls-1{fill:url(#linear-gradient);}.cls-2{fill:url(#linear-gradient-2);}.cls-14,.cls-3,.cls-4,.cls-5,.cls-7{opacity:0.8;}.cls-10,.cls-11,.cls-13,.cls-14,.cls-3,.cls-4,.cls-5,.cls-7,.cls-8,.cls-9{isolation:isolate;}.cls-3{fill:url(#linear-gradient-3);}.cls-4{fill:url(#linear-gradient-4);}.cls-5{fill:url(#linear-gradient-5);}.cls-6{fill:url(#linear-gradient-6);}.cls-7{fill:url(#linear-gradient-7);}.cls-10,.cls-11,.cls-13,.cls-8,.cls-9{opacity:0.3;}.cls-8{fill:url(#linear-gradient-8);}.cls-9{fill:url(#linear-gradient-9);}.cls-10{fill:url(#linear-gradient-10);}.cls-11{fill:url(#linear-gradient-11);}.cls-12{fill:url(#linear-gradient-12);}.cls-13{fill:url(#linear-gradient-13);}.cls-14{fill:url(#linear-gradient-14);}.cls-15{fill:url(#linear-gradient-15);}.cls-16{fill:url(#linear-gradient-16);}.cls-17{fill:#fff;}.cls-18{fill:#181c1d;}.cls-19{fill:#30b99e;}</style><linearGradient id="linear-gradient" x1="220.86197" y1="472.17498" x2="44.4475" y2="536.3846" gradientTransform="matrix(0.9642, 0.2653, -0.2653, 0.9642, 112.9824, -433.58191)" gradientUnits="userSpaceOnUse"><stop offset="0.2986" stop-color="#0097ce"/><stop offset="0.3791" stop-color="#0999c5"/><stop offset="0.5119" stop-color="#229dad"/><stop offset="0.6469" stop-color="#42a38f"/><stop offset="0.7352" stop-color="#5dad82"/><stop offset="0.9239" stop-color="#a1c661"/><stop offset="1" stop-color="#bed153"/></linearGradient><linearGradient id="linear-gradient-2" x1="18.68811" y1="477.33118" x2="206.47854" y2="477.33118" gradientTransform="matrix(0.9642, 0.2653, -0.2653, 0.9642, 112.9824, -433.58191)" gradientUnits="userSpaceOnUse"><stop offset="0.08199" stop-color="#3d65af"/><stop offset="0.2305" stop-color="#2372b8"/><stop offset="0.5058" stop-color="#00b8bb"/></linearGradient><linearGradient id="linear-gradient-3" x1="18.61123" y1="456.46572" x2="120.62153" y2="456.46572" gradientTransform="matrix(0.9642, 0.2653, -0.2653, 0.9642, 112.9824, -433.58191)" gradientUnits="userSpaceOnUse"><stop offset="0.1297"/><stop offset="0.3277" stop-color="#00334b"/><stop offset="0.5276" stop-color="#006190"/><stop offset="0.6723" stop-color="#007fbb"/><stop offset="0.7457" stop-color="#008acc"/></linearGradient><linearGradient id="linear-gradient-4" x1="18.61123" y1="452.87186" x2="120.62153" y2="452.87186" xlink:href="#linear-gradient-3"/><linearGradient id="linear-gradient-5" x1="18.61123" y1="453.2696" x2="120.62153" y2="453.2696" xlink:href="#linear-gradient-3"/><linearGradient id="linear-gradient-6" x1="33.90604" y1="473.45023" x2="120.54156" y2="473.45023" gradientTransform="matrix(0.9642, 0.2653, -0.2653, 0.9642, 112.9824, -433.58191)" gradientUnits="userSpaceOnUse"><stop offset="0.1297" stop-color="#2483c5"/><stop offset="0.1672" stop-color="#2486c7"/><stop offset="0.676" stop-color="#29b1df"/><stop offset="0.9352" stop-color="#2bc2e8"/></linearGradient><linearGradient id="linear-gradient-7" x1="18.61123" y1="461.18743" x2="120.62153" y2="461.18743" xlink:href="#linear-gradient-3"/><linearGradient id="linear-gradient-8" x1="18.90633" y1="457.03094" x2="18.90643" y2="457.03094" gradientTransform="matrix(0.9642, 0.2653, -0.2653, 0.9642, 112.9824, -433.58191)" gradientUnits="userSpaceOnUse"><stop offset="0" stop-color="#682c90"/><stop offset="0.496" stop-color="#817cb9"/><stop offset="1" stop-color="#fff"/></linearGradient><linearGradient id="linear-gradient-9" x1="105.37593" y1="452.61672" x2="53.70673" y2="452.61672" xlink:href="#linear-gradient-8"/><linearGradient id="linear-gradient-10" x1="105.37593" y1="458.73501" x2="53.70673" y2="458.73501" xlink:href="#linear-gradient-8"/><linearGradient id="linear-gradient-11" x1="105.37593" y1="453.56772" x2="53.70673" y2="453.56772" xlink:href="#linear-gradient-8"/><linearGradient id="linear-gradient-12" x1="21.80443" y1="491.36155" x2="104.55713" y2="491.36155" gradientTransform="matrix(0.9642, 0.2653, -0.2653, 0.9642, 112.9824, -433.58191)" gradientUnits="userSpaceOnUse"><stop offset="0.1297" stop-color="#3b67ad"/><stop offset="0.5697" stop-color="#227caa"/><stop offset="0.9352" stop-color="#118aa8"/></linearGradient><linearGradient id="linear-gradient-13" x1="105.37593" y1="453.07347" x2="53.70673" y2="453.07347" xlink:href="#linear-gradient-8"/><linearGradient id="linear-gradient-14" x1="18.60703" y1="473.02291" x2="120.61733" y2="473.02291" xlink:href="#linear-gradient-3"/><linearGradient id="linear-gradient-15" x1="18.60703" y1="473.02291" x2="101.60543" y2="473.02291" gradientTransform="matrix(0.9642, 0.2653, -0.2653, 0.9642, 112.9824, -433.58191)" gradientUnits="userSpaceOnUse"><stop offset="0.1297" stop-color="#3a67b0"/><stop offset="0.5622" stop-color="#357fbd"/><stop offset="0.9352" stop-color="#3290c6"/></linearGradient><linearGradient id="linear-gradient-16" x1="120.65913" y1="461.4064" x2="206.50302" y2="461.4064" gradientTransform="matrix(0.9642, 0.2653, -0.2653, 0.9642, 112.9824, -433.58191)" gradientUnits="userSpaceOnUse"><stop offset="0.1724" stop-color="#4e5ca8"/><stop offset="0.9937" stop-color="#1fc3f3"/></linearGradient></defs><path class="cls-1" d="M196.8,37.7c-4.3-.6-13.8-.8-32.6,3.1a26.209,26.209,0,0,1-6.8.7,36.61216,36.61216,0,0,1-7.3-1.6c-10.3-3.5-18.8-2.4-23.8.2h0a21.55673,21.55673,0,0,0-7.4,6.6c-3.1,4.2-9.6,17-18.5,20.4h0c-5,3.2-10.4,6.5-15.1,11.2-3,3.1-3.8,10.4-11.7,17.5h0a106.41545,106.41545,0,0,1-29.2,28.9C29.5,135.1,17,138.3,17,138.3s33.1,9.1,69.4-7.9c27.6-13,41.9-38.3,45.2-43.9l18-30.6c1.6-2.8,4.5-6.4,7.2-7.8.9-.5,1.7-.8,1.9-1,2-1,4.1-1.8,6.2-2.6,12.6-4.5,25.7-4.9,31.8-5.6C197.5,38.7,197.4,37.8,196.8,37.7Z"/><path class="cls-2" d="M196.8,37.7c-4.3-.6-13.8-.8-32.6,3.1a26.209,26.209,0,0,1-6.8.7,36.61216,36.61216,0,0,1-7.3-1.6c-10.6-3.5-18.7-2.6-23.8.2a21.55673,21.55673,0,0,0-7.4,6.6c-3.1,4.2-9.6,17-18.5,20.4h0c-10-9.4-18.8-17.3-27.3-24.3-4.8-3.8-9.5-7.4-13.5-10A229.76645,229.76645,0,0,0,28.8,14.6c-4.6-2.1-9.4-4-14.7-6-2.3-.7-3.6.4-4,2.2-.2.6-.4,2.2.6,5a144.07664,144.07664,0,0,0,9.8,20.5h0c1.5,2.7,3.2,5.5,5,8.3A209.4919,209.4919,0,0,0,54.8,81c2.3,2.2,4.5,4.2,6.9,6.1a99.53522,99.53522,0,0,0,9,6.7c.3.2,1.8,1.1,2.8,1.7,2,1.1,4.7,2.4,6.4,3.1a51.75311,51.75311,0,0,0,22.1,4.7c11.1.3,20.1-3.2,24.5-9.1a80.36365,80.36365,0,0,0,5.1-7.8l18-30.6c1.6-2.8,4.5-6.4,7.2-7.8.9-.5,1.7-.8,1.9-1,1.9-.9,1.9-.6,3.9-1.4,12.8-4.5,28.1-6.1,34.2-6.8A.554.554,0,0,0,196.8,37.7Z"/><path class="cls-3" d="M9.9,11.9c0-.3.1-.6,0-.8A1.09543,1.09543,0,0,1,9.9,11.9Z"/><path class="cls-4" d="M18.3,10h0a.90151.90151,0,0,0-.5-.1c.3.1.6.3.9.4C18.7,10.2,18.5,10.1,18.3,10Z"/><path class="cls-5" d="M21.4,11.3c-.1,0-.3-.1-.4-.1a4.11623,4.11623,0,0,0,.8.3C21.6,11.4,21.5,11.3,21.4,11.3Z"/><path class="cls-6" d="M80.1,68.9a41.33887,41.33887,0,0,0,20.2-2h0c-6-5.6-11.7-10.7-17-15.3h0c-2.7-2.3-5.3-4.6-7.8-6.7-.1-.1-.3-.2-.3-.3-.7-.6-1.3-1.1-1.9-1.6-.2-.1-.3-.3-.4-.3-4.8-3.8-9.5-7.3-13.3-10C49.4,25.8,39.2,19.4,28.9,14.5c-.9-.5-1.8-.8-2.8-1.3a4.11618,4.11618,0,0,0-.8-.3C65.1,34.4,77.8,53.9,80.1,68.9Z"/><path class="cls-7" d="M11.4,17.7h0c-.3-.6-.5-1.3-.8-2C10.9,16.3,11.1,17,11.4,17.7Z"/><path class="cls-8" d="M9.9,12.2c0-.1,0-.1.1-.2C10,12.1,10,12.1,9.9,12.2Z"/><path class="cls-9" d="M14.2,8.5c1.3.5,2.5.9,3.7,1.4C16.6,9.4,15.4,8.9,14.2,8.5Z"/><path class="cls-10" d="M9.9,12.2a11.77291,11.77291,0,0,0,.7,3.5h0A11.77291,11.77291,0,0,1,9.9,12.2Z"/><path class="cls-11" d="M24.7,12.7l.6.3h0c-1.1-.5-2.3-1-3.5-1.5.4.2.7.3,1.1.5A13.35526,13.35526,0,0,1,24.7,12.7Z"/><path class="cls-12" d="M36.5,47.9C25.8,39.3,15.7,27.3,11.4,17.8c10,25.3,36,61.2,59.2,76,.4.3,1.8,1.1,2.9,1.7,3-4.6,8.5-14.1,6.6-26.6C65.8,67,50.4,59.2,36.5,47.9Z"/><path class="cls-13" d="M21,11.2l-2.1-.9c.1,0,.2.1.3.1C19.7,10.6,20.3,10.9,21,11.2Z"/><path class="cls-14" d="M36.5,47.9c13.9,11.3,29.3,19,43.6,20.9C77.8,53.9,65.1,34.3,25.3,13a3.32912,3.32912,0,0,1-.6-.3c-.6-.3-1.2-.5-1.7-.8-.4-.2-.7-.3-1.1-.5a4.11623,4.11623,0,0,0-.8-.3,10.66239,10.66239,0,0,0-1.9-.7c-.1,0-.2-.1-.3-.1-.3-.1-.6-.3-.9-.4-1.2-.4-2.4-1-3.7-1.4-2.3-.7-3.6.4-4.1,2.1a3.536,3.536,0,0,0-.1.6c-.1.2,0,.5,0,.8,0,.1,0,.1-.1.2h0a11.77291,11.77291,0,0,0,.7,3.5h0a18.02773,18.02773,0,0,0,.8,2.1C15.7,27.3,25.9,39.3,36.5,47.9Z"/><path class="cls-15" d="M36.5,47.9c13.9,11.3,29.3,19,43.6,20.9C77.8,53.9,65.1,34.3,25.3,13a3.32912,3.32912,0,0,1-.6-.3c-.6-.3-1.2-.5-1.7-.8-.4-.2-.7-.3-1.1-.5a4.11623,4.11623,0,0,0-.8-.3,10.66239,10.66239,0,0,0-1.9-.7c-.1,0-.2-.1-.3-.1-.3-.1-.6-.3-.9-.4-1.2-.4-2.4-1-3.7-1.4-2.3-.7-3.6.4-4.1,2.1a3.536,3.536,0,0,0-.1.6c-.1.2,0,.5,0,.8,0,.1,0,.1-.1.2h0a11.77291,11.77291,0,0,0,.7,3.5h0a18.02773,18.02773,0,0,0,.8,2.1C15.7,27.3,25.9,39.3,36.5,47.9Z"/><path class="cls-16" d="M196.8,37.7c-4.3-.6-13.8-.8-32.6,3.1a26.209,26.209,0,0,1-6.8.7,36.61216,36.61216,0,0,1-7.3-1.6,39.50566,39.50566,0,0,0-15.2-2.3A20.24451,20.24451,0,0,0,125,41a21.72269,21.72269,0,0,0-6,5.8c-3.1,4.2-9.6,17-18.5,20.4h0c7,6.6,17.8,12.1,27.9,8.8,9.7-3.2,15.7-11.8,17.6-14.6a77.19069,77.19069,0,0,1,6.4-8.4,28.08707,28.08707,0,0,1,11.9-7.4c11.4-3.8,28.6-6.1,32.7-6.5C197.5,38.7,197.4,37.8,196.8,37.7Z"/><circle class="cls-17" cx="140.85966" cy="48.62231" r="3.0001"/><path class="cls-18" d="M310.8,107.9a22.53389,22.53389,0,0,0-22.5,22.5v6.7a22.5339,22.5339,0,0,0,22.5,22.5h14.3v-8.2H310.8a14.34914,14.34914,0,0,1-14.3-13.5h29.3a7.38329,7.38329,0,0,0,7.4-7.4A22.47047,22.47047,0,0,0,310.8,107.9Zm-14.3,21.7a14.32369,14.32369,0,0,1,28.6,0Z"/><path class="cls-18" d="M190.4,99.7h6V91.5h-6a16.80108,16.80108,0,0,0-12.1,5.2,17.86884,17.86884,0,0,0-5,12.2v1h-4.8v8.2h4.8v41.3h8.2V118.1h11V110h-11v-1C181.6,104,185.7,99.7,190.4,99.7Z"/><rect class="cls-18" x="209.2" y="91.6" width="8.2" height="68.00001"/><rect class="cls-19" x="482" y="107.9" width="8.20001" height="51.49999"/><path class="cls-18" d="M266.8,138.5a12.9,12.9,0,0,1-25.8,0V107.9h-8v30.6a21,21,0,0,0,42,0V107.9h-8.2Z"/><path class="cls-18" d="M362.4,107.9a21.0617,21.0617,0,0,0-21,21v30.6h8.2V128.9a12.9,12.9,0,1,1,25.8,0v30.6h8.2V128.9A21.366,21.366,0,0,0,362.4,107.9Z"/><path class="cls-18" d="M406.9,142.1v-26h11V108h-11V91.6h-8.1V108h-7.2v8.2h7.2v26a17.04993,17.04993,0,0,0,17,17h3.6V151h-3.6A8.9197,8.9197,0,0,1,406.9,142.1Z"/><path class="cls-19" d="M516.5,142.1v-26h11V108h-11V91.6h-8.2V108h-7.2v8.2h7.2v26a17.04991,17.04991,0,0,0,17,17h3.6V151h-3.6A8.89922,8.89922,0,0,1,516.5,142.1Z"/><path class="cls-19" d="M436.6,91.6v20.9a20.53365,20.53365,0,0,1,12.9-4.4,21.0617,21.0617,0,0,1,21,21v9.5a21,21,0,0,1-42,0v-47Zm0,41.9v5a12.9,12.9,0,0,0,25.8,0V129a12.9,12.9,0,1,0-25.8,0v4.5Z"/></svg>