<?xml version="1.0" encoding="utf-8"?>
<!-- Generator: Adobe Illustrator 21.1.0, SVG Export Plug-In . SVG Version: 6.00 Build 0)  -->
<svg version="1.1" xmlns="http://www.w3.org/2000/svg" xmlns:xlink="http://www.w3.org/1999/xlink" x="0px" y="0px"
	 viewBox="0 0 360 360" style="enable-background:new 0 0 360 360;" xml:space="preserve">
<style type="text/css">
	.st0{fill-rule:evenodd;clip-rule:evenodd;fill:#FFFFFF;}
	.st1{fill:#FFFFFF;}
	.st2{fill-rule:evenodd;clip-rule:evenodd;fill:#BCD918;}
	.st3{fill-rule:evenodd;clip-rule:evenodd;fill:#04BDD9;}
	.st4{fill:#191919;}
</style>
<g id="BG">
</g>
<g id="LOGO">
	<g>
		<path class="st2" d="M12.1,8.9h28.3c2.7,0,5,2.2,5,5v28.3c0,2.7-2.2,5-5,5H12.1c-2.7,0-5-2.2-5-5V13.9C7.2,11.2,9.4,8.9,12.1,8.9z
			"/>
		<path class="st3" d="M88.7,8.9h258c2.7,0,5,2.2,5,5v28.3c0,2.7-2.2,5-5,5h-258c-2.7,0-5-2.2-5-5V13.9C83.7,11.2,85.9,8.9,88.7,8.9
			z"/>
		<path class="st2" d="M346.7,85.5h-28.3c-2.7,0-5,2.2-5,5v28.3c0,2.8,2.2,5,5,5h28.3c2.7,0,5-2.2,5-5V90.5
			C351.7,87.7,349.4,85.5,346.7,85.5z"/>
		<path class="st3" d="M193.6,85.5H12.1c-2.7,0-5,2.3-5,5v28.3c0,2.7,2.2,5,5,5h181.5c2.7,0,5-2.2,5-5V90.5
			C198.6,87.7,196.4,85.5,193.6,85.5z"/>
		<path class="st2" d="M270.2,85.5h-28.3c-2.7,0-5,2.2-5,5v28.3c0,2.8,2.2,5,5,5h28.3c2.7,0,5-2.2,5-5V90.5
			C275.1,87.7,272.9,85.5,270.2,85.5z"/>
		<path class="st3" d="M270.2,162H88.7c-2.7,0-5,2.2-5,5v28.3c0,2.7,2.2,5,5,5h181.5c2.7,0,5-2.2,5-5V167
			C275.1,164.2,272.9,162,270.2,162z"/>
		<path class="st2" d="M346.7,162h-28.3c-2.7,0-5,2.2-5,5v28.3c0,2.8,2.2,5,5,5h28.3c2.7,0,5-2.2,5-5V167
			C351.7,164.2,349.4,162,346.7,162z"/>
		<path class="st2" d="M40.4,162H12.1c-2.7,0-5,2.2-5,5v28.3c0,2.8,2.2,5,5,5h28.3c2.7,0,5-2.2,5-5V167
			C45.4,164.2,43.2,162,40.4,162z"/>
		<path class="st2" d="M12.1,238.5h28.3c2.7,0,5,2.2,5,5v28.3c0,2.7-2.2,5-5,5H12.1c-2.7,0-5-2.2-5-5v-28.3
			C7.2,240.8,9.4,238.5,12.1,238.5z"/>
		<path class="st3" d="M165.2,238.5h181.5c2.7,0,5,2.2,5,5v28.3c0,2.7-2.2,5-5,5H165.2c-2.7,0-5-2.2-5-5v-28.3
			C160.2,240.8,162.4,238.5,165.2,238.5z"/>
		<path class="st2" d="M88.7,238.5H117c2.7,0,5,2.2,5,5v28.3c0,2.7-2.2,5-5,5H88.7c-2.7,0-5-2.2-5-5v-28.3
			C83.7,240.8,85.9,238.5,88.7,238.5z"/>
		<path class="st2" d="M346.7,315.2h-28.3c-2.7,0-5,2.2-5,5v28.3c0,2.8,2.2,5,5,5h28.3c2.7,0,5-2.2,5-5v-28.3
			C351.7,317.4,349.4,315.2,346.7,315.2z"/>
		<path class="st3" d="M270.2,315.2h-258c-2.7,0-5,2.2-5,5v28.3c0,2.7,2.2,5,5,5h258c2.7,0,5-2.2,5-5v-28.3
			C275.1,317.4,272.9,315.2,270.2,315.2z"/>
	</g>
</g>
</svg>
