<svg width="841" height="256" viewBox="0 0 841 256" fill="none" xmlns="http://www.w3.org/2000/svg">
<path d="M104.02 4.55959L2.68726 62.4643C1.02553 63.4139 0 65.1811 0 67.095V188.756C0 190.668 1.02344 192.433 2.68249 193.384L104.016 251.427C107.571 253.463 112 250.896 112 246.799V221.929L19.8353 184.13C16.707 182.847 14.6641 179.801 14.6641 176.42V77.9162C14.6641 74.5285 16.7149 71.4779 19.852 70.1992L112 32.6402V9.19021C112 5.09515 107.576 2.52787 104.02 4.55959Z" fill="white" style="fill:white;fill-opacity:1;"/>
<path d="M112 35.8798L20.9843 72.9773C18.9766 73.7957 17.6641 75.748 17.6641 77.9162V176.42C17.6641 178.584 18.9716 180.534 20.9736 181.355L112 218.687V197.751L45.9123 177.686C42.4007 176.62 40 173.382 40 169.712V84.6301C40 80.9535 42.4095 77.7113 45.9299 76.6509L112 56.7503V35.8798Z" fill="white" style="fill:white;fill-opacity:1;"/>
<path d="M112 72.3045V59.8835L46.7952 79.5234C44.5421 80.2021 43 82.2771 43 84.6301V169.712C43 172.061 44.5365 174.133 46.7839 174.815L112 194.616V182.129L78.4235 174.224C74.6598 173.338 72 169.979 72 166.112V88.2363C72 84.3622 74.6699 80.9991 78.443 80.1202L112 72.3045Z" fill="white" style="fill:white;fill-opacity:1;"/>
<path d="M112 75.3848L79.1235 83.042C76.7087 83.6045 75 85.7569 75 88.2363V166.112C75 168.587 76.7023 170.737 79.111 171.304L112 179.047V75.3848Z" fill="white" style="fill:white;fill-opacity:1;"/>
<path d="M189 197.177L200.111 199.792C203.459 200.581 206.666 198.041 206.666 194.601V60.0542C206.666 56.6199 203.468 54.0809 200.123 54.8599L189 57.4506V197.177Z" fill="white" style="fill:white;fill-opacity:1;"/>
<path d="M157 208.279L174.45 213.577C177.876 214.617 181.333 212.054 181.333 208.474V198.453L157 192.724V208.279Z" fill="white" style="fill:white;fill-opacity:1;"/>
<path d="M157 189.642V64.9038L181.333 59.2364V195.371L157 189.642Z" fill="white" style="fill:white;fill-opacity:1;"/>
<path d="M157 61.8235V46.3292L174.461 41.0697C177.885 40.0387 181.333 42.6014 181.333 46.1765V56.1561L157 61.8235Z" fill="white" style="fill:white;fill-opacity:1;"/>
<path d="M120 221.968L141.973 230.98C145.483 232.419 149.33 229.839 149.33 226.046V209.085L120 200.18V221.968Z" fill="white" style="fill:white;fill-opacity:1;"/>
<path d="M120 197.045L149.33 205.95V190.919L120 184.013V197.045Z" fill="white" style="fill:white;fill-opacity:1;"/>
<path d="M120 70.4412V57.4738L149.33 48.6394V63.6098L120 70.4412Z" fill="white" style="fill:white;fill-opacity:1;"/>
<path d="M120 180.931V73.5215L149.33 66.6901V187.837L120 180.931Z" fill="white" style="fill:white;fill-opacity:1;"/>
<path d="M120 54.3407V32.619L141.984 23.6584C145.492 22.2287 149.33 24.8092 149.33 28.5973V45.5062L120 54.3407Z" fill="white" style="fill:white;fill-opacity:1;"/>
<path d="M256.666 45.2949H281.855C284.564 45.2949 286.769 45.9526 288.471 47.2682C290.174 48.5837 291.451 50.2862 292.302 52.3756L331.768 154.756C333.084 158.083 334.322 161.759 335.483 165.783C336.721 169.73 337.882 173.909 338.965 178.32C340.745 169.42 342.951 161.566 345.582 154.756L384.932 52.3756C385.628 50.5957 386.866 48.9706 388.646 47.5003C390.426 46.03 392.632 45.2949 395.263 45.2949H420.452L352.662 213.143H324.455L256.666 45.2949Z" fill="white" style="fill:white;fill-opacity:1;"/>
<path d="M456.426 94.0474V213.143H427.755V94.0474H456.426ZM460.721 59.3402C460.721 61.8165 460.218 64.1381 459.212 66.3049C458.206 68.4717 456.852 70.3676 455.15 71.9927C453.525 73.6178 451.59 74.9333 449.346 75.9393C447.102 76.8679 444.703 77.3322 442.149 77.3322C439.673 77.3322 437.312 76.8679 435.068 75.9393C432.901 74.9333 431.006 73.6178 429.38 71.9927C427.755 70.3676 426.44 68.4717 425.434 66.3049C424.505 64.1381 424.041 61.8165 424.041 59.3402C424.041 56.7865 424.505 54.3876 425.434 52.1434C426.44 49.8993 427.755 47.9646 429.38 46.3396C431.006 44.7145 432.901 43.4376 435.068 42.509C437.312 41.503 439.673 41 442.149 41C444.703 41 447.102 41.503 449.346 42.509C451.59 43.4376 453.525 44.7145 455.15 46.3396C456.852 47.9646 458.206 49.8993 459.212 52.1434C460.218 54.3876 460.721 56.7865 460.721 59.3402Z" fill="white" style="fill:white;fill-opacity:1;"/>
<path d="M517.596 215C507.303 215 499.371 212.098 493.8 206.294C488.228 200.413 485.442 192.326 485.442 182.034V115.522H473.37C471.822 115.522 470.468 115.019 469.307 114.013C468.224 113.007 467.682 111.498 467.682 109.486V98.1101L486.835 94.976L492.871 62.4743C493.181 60.9266 493.877 59.7272 494.961 58.8759C496.121 58.0247 497.553 57.5991 499.255 57.5991H514.113V95.0921H545.454V115.522H514.113V180.061C514.113 183.775 515.042 186.677 516.899 188.767C518.756 190.856 521.233 191.901 524.328 191.901C526.108 191.901 527.578 191.707 528.739 191.32C529.977 190.856 531.022 190.392 531.873 189.927C532.802 189.463 533.614 189.037 534.311 188.65C535.007 188.186 535.704 187.954 536.4 187.954C537.251 187.954 537.948 188.186 538.49 188.65C539.031 189.037 539.612 189.657 540.231 190.508L548.82 204.437C544.642 207.919 539.844 210.55 534.427 212.33C529.01 214.11 523.4 215 517.596 215Z" fill="white" style="fill:white;fill-opacity:1;"/>
<path d="M607.026 92.1902C614.532 92.1902 621.42 93.3896 627.688 95.7886C634.033 98.1875 639.489 101.709 644.055 106.352C648.62 110.917 652.18 116.566 654.734 123.299C657.288 129.954 658.564 137.576 658.564 146.166C658.564 148.333 658.448 150.151 658.216 151.622C658.061 153.015 657.713 154.137 657.172 154.988C656.707 155.762 656.049 156.342 655.198 156.729C654.347 157.039 653.264 157.194 651.948 157.194H578.355C579.206 169.42 582.495 178.397 588.222 184.123C593.948 189.85 601.532 192.713 610.973 192.713C615.616 192.713 619.601 192.172 622.929 191.088C626.334 190.005 629.274 188.805 631.751 187.49C634.304 186.174 636.51 184.975 638.367 183.891C640.302 182.808 642.159 182.266 643.939 182.266C645.099 182.266 646.105 182.498 646.957 182.963C647.808 183.427 648.543 184.085 649.162 184.936L657.52 195.383C654.347 199.097 650.787 202.232 646.841 204.785C642.894 207.262 638.754 209.274 634.42 210.821C630.164 212.292 625.792 213.336 621.304 213.955C616.893 214.574 612.598 214.884 608.419 214.884C600.139 214.884 592.439 213.53 585.32 210.821C578.2 208.035 572.009 203.973 566.747 198.633C561.485 193.216 557.345 186.561 554.327 178.668C551.309 170.697 549.8 161.488 549.8 151.041C549.8 142.916 551.115 135.294 553.747 128.174C556.378 120.977 560.131 114.748 565.006 109.486C569.959 104.146 575.956 99.9286 582.998 96.8332C590.117 93.7379 598.127 92.1902 607.026 92.1902ZM607.606 112.736C599.249 112.736 592.71 115.096 587.989 119.817C583.269 124.537 580.251 131.231 578.935 139.898H632.795C632.795 136.184 632.292 132.701 631.286 129.451C630.28 126.123 628.733 123.222 626.643 120.745C624.554 118.269 621.923 116.334 618.75 114.941C615.577 113.471 611.863 112.736 607.606 112.736Z" fill="white" style="fill:white;fill-opacity:1;"/>
<path d="M742.066 117.263C741.292 118.501 740.479 119.391 739.628 119.933C738.777 120.397 737.694 120.629 736.378 120.629C734.985 120.629 733.476 120.242 731.851 119.468C730.303 118.695 728.485 117.843 726.395 116.915C724.306 115.909 721.907 115.019 719.199 114.245C716.568 113.471 713.433 113.084 709.796 113.084C704.147 113.084 699.698 114.284 696.447 116.682C693.197 119.081 691.572 122.216 691.572 126.085C691.572 128.638 692.385 130.805 694.01 132.585C695.712 134.288 697.918 135.797 700.626 137.112C703.412 138.428 706.546 139.627 710.028 140.711C713.511 141.717 717.071 142.839 720.708 144.077C724.345 145.315 727.904 146.747 731.387 148.372C734.869 149.919 737.964 151.931 740.673 154.408C743.459 156.807 745.664 159.709 747.289 163.113C748.992 166.518 749.843 170.62 749.843 175.418C749.843 181.144 748.798 186.445 746.709 191.32C744.62 196.118 741.563 200.297 737.539 203.857C733.515 207.339 728.523 210.086 722.565 212.098C716.684 214.033 709.912 215 702.251 215C698.15 215 694.126 214.613 690.179 213.839C686.31 213.143 682.557 212.137 678.92 210.821C675.36 209.506 672.032 207.958 668.937 206.178C665.919 204.398 663.249 202.464 660.928 200.374L667.544 189.463C668.395 188.148 669.401 187.142 670.562 186.445C671.723 185.749 673.193 185.4 674.973 185.4C676.753 185.4 678.417 185.903 679.964 186.909C681.59 187.915 683.447 188.999 685.536 190.16C687.626 191.32 690.063 192.404 692.849 193.41C695.712 194.416 699.311 194.919 703.644 194.919C707.049 194.919 709.951 194.532 712.35 193.758C714.826 192.907 716.838 191.823 718.386 190.508C720.011 189.192 721.172 187.683 721.868 185.981C722.642 184.201 723.029 182.382 723.029 180.525C723.029 177.739 722.178 175.456 720.475 173.677C718.85 171.897 716.645 170.349 713.859 169.033C711.151 167.718 708.016 166.557 704.457 165.551C700.974 164.468 697.376 163.307 693.662 162.069C690.024 160.831 686.426 159.399 682.866 157.774C679.384 156.071 676.25 153.943 673.464 151.39C670.756 148.836 668.55 145.702 666.848 141.987C665.223 138.273 664.41 133.785 664.41 128.522C664.41 123.647 665.377 119.004 667.312 114.593C669.247 110.182 672.071 106.352 675.786 103.101C679.578 99.7739 684.259 97.1428 689.831 95.2082C695.48 93.1962 701.98 92.1902 709.332 92.1902C717.535 92.1902 725.002 93.5444 731.735 96.2529C738.467 98.9613 744.078 102.521 748.566 106.932L742.066 117.263Z" fill="white" style="fill:white;fill-opacity:1;"/>
<path d="M832.96 117.263C832.186 118.501 831.374 119.391 830.522 119.933C829.671 120.397 828.588 120.629 827.272 120.629C825.879 120.629 824.37 120.242 822.745 119.468C821.197 118.695 819.379 117.843 817.289 116.915C815.2 115.909 812.801 115.019 810.093 114.245C807.462 113.471 804.327 113.084 800.69 113.084C795.041 113.084 790.592 114.284 787.341 116.682C784.091 119.081 782.466 122.216 782.466 126.085C782.466 128.638 783.279 130.805 784.904 132.585C786.606 134.288 788.812 135.797 791.52 137.112C794.306 138.428 797.44 139.627 800.923 140.711C804.405 141.717 807.965 142.839 811.602 144.077C815.239 145.315 818.799 146.747 822.281 148.372C825.763 149.919 828.859 151.931 831.567 154.408C834.353 156.807 836.558 159.709 838.183 163.113C839.886 166.518 840.737 170.62 840.737 175.418C840.737 181.144 839.692 186.445 837.603 191.32C835.514 196.118 832.457 200.297 828.433 203.857C824.409 207.339 819.418 210.086 813.459 212.098C807.578 214.033 800.806 215 793.145 215C789.044 215 785.02 214.613 781.073 213.839C777.204 213.143 773.451 212.137 769.814 210.821C766.254 209.506 762.927 207.958 759.831 206.178C756.813 204.398 754.143 202.464 751.822 200.374L758.438 189.463C759.289 188.148 760.295 187.142 761.456 186.445C762.617 185.749 764.087 185.4 765.867 185.4C767.647 185.4 769.311 185.903 770.859 186.909C772.484 187.915 774.341 188.999 776.43 190.16C778.52 191.32 780.957 192.404 783.743 193.41C786.606 194.416 790.205 194.919 794.538 194.919C797.943 194.919 800.845 194.532 803.244 193.758C805.72 192.907 807.732 191.823 809.28 190.508C810.905 189.192 812.066 187.683 812.763 185.981C813.536 184.201 813.923 182.382 813.923 180.525C813.923 177.739 813.072 175.456 811.37 173.677C809.744 171.897 807.539 170.349 804.753 169.033C802.045 167.718 798.911 166.557 795.351 165.551C791.869 164.468 788.27 163.307 784.556 162.069C780.919 160.831 777.32 159.399 773.76 157.774C770.278 156.071 767.144 153.943 764.358 151.39C761.65 148.836 759.444 145.702 757.742 141.987C756.117 138.273 755.304 133.785 755.304 128.522C755.304 123.647 756.271 119.004 758.206 114.593C760.141 110.182 762.965 106.352 766.68 103.101C770.472 99.7739 775.153 97.1428 780.725 95.2082C786.374 93.1962 792.875 92.1902 800.226 92.1902C808.429 92.1902 815.897 93.5444 822.629 96.2529C829.362 98.9613 834.972 102.521 839.46 106.932L832.96 117.263Z" fill="white" style="fill:white;fill-opacity:1;"/>
</svg>
