<svg xmlns="http://www.w3.org/2000/svg" role="img" viewBox="-2.76 -2.26 507.52 116.02"><path fill="#f15a29" d="M408.09844 42.85818a15.187 15.187 0 0 1 8.0497 4.47205 10.247 10.247 0 0 1 2.79951 7.01218q.08052 7.87083 0 15.73866c-.06857 6.4964-4.02485 10.99231-10.96848 12.38461a30.11188 30.11188 0 0 1-5.85243.55751c-18.53519.04175-37.07034 0-55.60553.05069-1.24623 0-1.62483-.313-1.62185-1.595q.05372-35.73471 0-71.47239c0-1.25814.3369-1.6159 1.607-1.61292 17.921.03876 35.845 0 53.766.03876a22.77437 22.77437 0 0 1 9.34062 1.70832c4.53764 1.99454 7.24176 5.39032 7.45342 10.34536a124.11772 124.11772 0 0 1-.167 14.403c-.36372 4.70162-2.242 6.77964-7.838 7.75156-.32793.05959-.64397.15202-.96296.21761zm-29.4291 31.18214c6.85716 0 13.71431.05963 20.57146-.03875a20.42839 20.42839 0 0 0 5.51255-.85864 4.87981 4.87981 0 0 0 3.64621-4.77019c.11628-4.36473.18783-8.7384.0626-13.10312-.09838-3.37491-1.72325-5.122-5.06833-5.90013a14.65059 14.65059 0 0 0-3.2318-.42634c-14.60871-.02981-29.19359 0-43.79036-.04174-1.124 0-1.3953.40249-1.38933 1.446.03279 7.38784.04771 14.77269 0 22.15754 0 1.32075.45616 1.58013 1.66657 1.57118 7.3342-.06264 14.67732-.03581 22.02043-.03581zm-.68871-34.02632v-.11627c7.15529 0 14.32848.08049 21.49269-.02684 4.6241-.06857 7.26559-2.59379 7.31032-6.66634.02981-2.9277.04473-5.85839 0-8.78312a6.11348 6.11348 0 0 0-4.71356-6.29665 15.30357 15.30357 0 0 0-4.24249-.65888c-13.762-.0477-27.527 0-41.292-.05367-1.23429 0-1.55328.40249-1.54437 1.58013.04772 6.42187.02086 12.84672.02384 19.26859 0 1.74112 0 1.75007 1.73514 1.75305zm-98.34048 9.12294v15.363c.02684 5.7779 3.65516 9.41517 9.442 9.42113q24.73046.02683 49.45793 0c2.6087 0 2.28971-.28323 2.31057 2.31056.01492 1.78883-.07155 3.57765.02682 5.36647.06558 1.19255-.38759 1.46087-1.50561 1.44894-5.42309-.05069-10.84622-.02385-16.26637-.02385-12.07157 0-24.1491-.20273-36.20874.06858-8.646.19677-16.27531-6.395-17.19655-14.4835a20.65416 20.65416 0 0 1-.12521-2.3523V25.32474a16.578 16.578 0 0 1 16.9312-16.92523q26.38512 0 52.73746-.02982c1.2313 0 1.70235.28025 1.63975 1.58609-.10434 2.18236-.0507 4.37367-.01791 6.559 0 .77814-.2534 1.14485-1.05243 1.09119-.39058-.02386-.78708 0-1.19255 0h-49.72032c-4.788.0298-8.0675 2.59378-9.08414 7.08969a10.93915 10.93915 0 0 0-.167 2.34336c0 3.7595.04473 7.522-.03578 11.2815-.0298 1.288.39056 1.598 1.6308 1.595q23.8092-.05664 47.62142-.02683c1.71131 0 1.71131 0 1.71131 1.69938 0 2.01243-.06857 4.02485.02682 6.0343.05663 1.19255-.29814 1.54733-1.52945 1.54137q-22.43484-.05666-44.86663-.02683zm144.4921 24.86165h51.44949c5.61092 0 9.24225-3.37193 9.52248-8.97095a70.57625 70.57625 0 0 0-.08647-7.86187 8.5297 8.5297 0 0 0-8.61617-8.0169c-12.55156-.02385-25.10017 0-37.65173 0a16.57057 16.57057 0 0 1-8.20772-1.923c-4.99977-2.77864-8.38063-6.85716-8.79505-12.68573a61.39627 61.39627 0 0 1 .18485-12.8199c1.0703-7.516 8.0497-13.22535 15.849-13.26709 16.967-.09243 33.93692-.02385 50.90391-.05069.97492 0 1.30883.322 1.285 1.288-.0507 2.087-.07155 4.20075 0 6.29665.04473 1.15379-.3369 1.47578-1.49069 1.4728q-23.81216-.05367-47.6244-.01491a9.01264 9.01264 0 0 0-7.92447 4.07255c-2.0661 3.047-2.01242 11.24573.1431 14.23008a9.022 9.022 0 0 0 7.77839 3.85193c12.37567-.01789 24.74537 0 37.127-.01491a16.27172 16.27172 0 0 1 8.54163 2.087c5.49763 3.27951 8.47307 8.06759 8.58338 14.51629.05961 3.45243.02682 6.90784 0 10.36324a16.49894 16.49894 0 0 1-16.29917 16.46909c-17.79876.07453-35.59756.01789-53.39633.03876-.92421 0-1.33863-.18484-1.30882-1.22236.08054-2.52827.03279-5.05647.03279-7.83808zM99.16291 104.2595c-3.0887 0-6.00448.0149-8.91728-.03279-.24448 0-.59628-.40249-.69466-.69168a3.61628 3.61628 0 0 1-.04472-1.16871V29.97269c0-1.91106 0-1.914 1.917-1.914h37.768a16.70589 16.70589 0 0 1 12.29219 4.94907 13.39089 13.39089 0 0 1 4.03975 9.78486q.06261 12.71852 0 25.44a15.12659 15.12659 0 0 1-14.9307 14.73989c-7.82013.18484-15.64921.05664-23.47233.06559-2.18534 0-4.37069.04472-6.559-.01789-1.09417-.02982-1.43106.36969-1.42211 1.44894.03876 6.03132.01789 12.06262.01789 18.09394zm0-48.84677V72.979c0 .89441.08049 1.49069 1.23429 1.49069 9.26312 0 18.52921.07155 27.79233 0a7.8107 7.8107 0 0 0 7.57865-7.58759q.11626-11.32921-.02088-22.68226a7.20879 7.20879 0 0 0-1.00174-3.31529c-1.78882-3.13938-4.794-4.17392-8.20771-4.20373-8.6102-.03876-17.21741 0-25.82761-.03578-1.19255 0-1.57118.39652-1.55926 1.59205.04174 5.72423.01193 11.44846.01193 17.17568zm82.70917 5.16969c-7.21194 0-14.42686.02683-21.64178-.02385-1.29688 0-1.78882.35478-1.72025 1.70236.10137 2.48945.02684 4.98187.0298 7.4743 0 3.1841 1.78883 5.01466 5.02957 5.03255 5.596.02982 11.19206 0 16.7881 0 6.079 0 12.15505.02683 18.23108-.02385 1.10013 0 1.44895.32795 1.4072 1.41018-.07453 1.923-.05068 3.849 0 5.77194.01789.85864-.316 1.127-1.15677 1.124-12.59032-.02385-25.18364.03577-37.774-.06261-5.55131-.04174-10.4348-3.69988-11.70487-8.46411a13.43447 13.43447 0 0 1-.39651-3.366q-.04472-13.90212 0-27.80723a15.05889 15.05889 0 0 1 13.73815-15.041c2.3016-.20572 4.62709-.20572 6.94063-.19677 7.15529.02683 14.34636-.11329 21.50164.22062a15.015 15.015 0 0 1 13.598 11.59753 14.98147 14.98147 0 0 1 .23552 2.98137c.02087 5.33367-.03577 10.66734.04174 16.001.02088 1.38038-.47106 1.67851-1.74112 1.66957-7.15221-.02683-14.27172 0-21.40613 0zm-4.97591-8.62809c5.64075 0 11.27853-.02683 16.91629.02386 1.124 0 1.57119-.27131 1.51454-1.45789-.08943-1.83056 0-3.67007-.02684-5.50659a7.93389 7.93389 0 0 0-7.6323-8.12424q-10.67926-.2385-21.37046 0a8.03759 8.03759 0 0 0-7.75156 8.0497c-.04769 1.87827.04175 3.76249-.02684 5.63777-.04174 1.115.40248 1.39827 1.4579 1.38932 5.64373-.03279 11.28149-.01193 16.91927-.01193zm88.37974 9.49267c0 6.6902-.02386 13.38039.02385 20.07059 0 1.17764-.29813 1.60993-1.52646 1.55627-2.22411-.0954-4.47205-.08944-6.68721 0-1.17167.0477-1.4728-.33988-1.46981-1.49068.03876-11.92548.02385-23.87482.02385-35.81222 0-5.283-2.78162-8.73541-8.02882-8.94411-7.24473-.29814-14.51629-.26236-21.764.03578-4.89839.20273-7.70982 3.61938-7.72473 8.53864-.0298 10.05915 0 20.11531 0 30.17147 0 2.05416-.0298 4.11131 0 6.16547.01789.9123-.21465 1.35056-1.24621 1.32672-2.44771-.06261-4.8954-.05069-7.34311 0-.89441.01788-1.10311-.322-1.10311-1.15081.02385-13.16274-.03876-26.3255.04472-39.48526.04473-6.90784 5.75106-13.02263 12.8855-14.078a21.14962 21.14962 0 0 1 2.99925-.26535c8.39553-.02086 16.79108-.05366 25.18661 0a15.97762 15.97762 0 0 1 13.57715 7.15529 11.27845 11.27845 0 0 1 2.11082 6.51131c.03876 6.559 0 13.118 0 19.67705zM83.87444 45.41321c0 6.85715.05665 13.7143-.0149 20.57145a16.49593 16.49593 0 0 1-13.08226 16.03083 16.15892 16.15892 0 0 1-3.47031.36074c-.81093 0-1.62187 0-2.4328.01789-10.17542.28323-20.35083.04472-30.52625.11925-2.94559.02088-5.89119-.02384-8.8338.03578a19.38668 19.38668 0 0 1-6.01044-.62311A16.41816 16.41816 0 0 1 7.766 70.17349a15.29744 15.29744 0 0 1-.5605-4.17392c0-1.63081-.01789-3.2646-.01789-4.89839q-.02087-16.22163-.04472-32.46712c0-1.765-.03876-3.53292.08646-5.289a16.05764 16.05764 0 0 1 3.08572-8.479 16.24848 16.24848 0 0 1 10.84029-6.67824 43.06806 43.06806 0 0 1 4.92224-.21466c5.5304-.29816 11.06386-.07453 16.59729-.11627s11.08771 0 16.63306 0c2.76671 0 5.53342-.06857 8.29716 0a16.29917 16.29917 0 0 1 10.876 4.41243 15.8519 15.8519 0 0 1 5.08622 9.20647 20.05852 20.05852 0 0 1 .29814 3.30038c.02683 6.881.0149 13.759.0149 20.64zM45.8739 73.52455h17.35157a26.30013 26.30013 0 0 0 3.55976-.22062 8.646 8.646 0 0 0 5.915-3.38088 7.61749 7.61749 0 0 0 1.69938-4.28124c.04174-.84075 0-1.68746 0-2.53119q-.03279-3.00522-.07155-6.00746c-.01789-1.46385-.04771-2.93069-.06858-4.39752-.02683-1.71429-.0477-3.43155-.07453-5.14584-.02087-1.52646-.04771-3.04994-.06858-4.57641-.02683-1.64273-.0477-3.2795-.07453-4.93118-.02087-1.56224-.05069-3.1215-.06858-4.68374-.02981-2.19428-.03577-4.38559-.08646-6.57988a18.48389 18.48389 0 0 0-.21764-2.66236 8.55654 8.55654 0 0 0-2.58187-4.94311 9.20459 9.20459 0 0 0-6.06709-2.42386c-.322 0-.64994.11926-.97491.1282-.54857 0-1.09416-.02981-1.64273-.0328q-3.30931-.02086-6.61864-.02683h-28.3677a23.30136 23.30136 0 0 0-3.02311.20572 8.73239 8.73239 0 0 0-5.4708 2.74286 7.92289 7.92289 0 0 0-2.3046 5.42609c0 1.7292.03876 3.45541.06559 5.1846.02087 1.595.04771 3.19305.06858 4.79107.02683 1.70236.0477 3.4077.07453 5.11006.02087 1.57417.0477 3.14535.06857 4.71951.02683 1.65466.04771 3.3123.07454 4.967.02087 1.53839.0477 3.07678.06857 4.61218.02683 1.66957.05366 3.33616.07155 5.00573 0 1.37143-.02385 2.74286.04472 4.11131a17.21471 17.21471 0 0 0 .3846 3.21093c1.121 4.55554 4.77019 6.59181 8.82187 6.73492.14609 0 .29814-.155.45019-.155.91528 0 1.83354.02982 2.75181.0328z"/></svg>