<svg id="Layer_1" data-name="Layer 1" xmlns="http://www.w3.org/2000/svg" viewBox="0 0 672 241"><defs><style>.cls-1{fill:#419eda;}</style></defs><title>etcd-horizontal-color-01</title><path class="cls-1" d="M99.34164,126.31543a13.3988,13.3988,0,1,1-13.40452-13.39538A13.40614,13.40614,0,0,1,99.34164,126.31543Z"/><path class="cls-1" d="M116.66713,126.31543a13.40452,13.40452,0,1,0,13.40452-13.39538A13.39639,13.39639,0,0,0,116.66713,126.31543Z"/><path class="cls-1" d="M207.89228,140.854c-.97168.07773-1.93192.11205-2.96074.11205a38.68112,38.68112,0,0,1-17.01225-3.95983,157.9752,157.9752,0,0,0,2.29086-30.09439,155.71254,155.71254,0,0,0-19.47688-23.08007,38.695,38.695,0,0,1,13.7246-14.70081l2.5195-1.56157-1.96621-2.22a102.56584,102.56584,0,0,0-35.817-26.12311l-2.72525-1.18431-.69274,2.87384A38.58963,38.58963,0,0,1,136.064,58.54531a155.76214,155.76214,0,0,0-28.06189-11.55947A155.217,155.217,0,0,0,79.98142,58.527a38.49394,38.49394,0,0,1-9.67329-17.5907l-.70417-2.883-2.71612,1.1797A103.53991,103.53991,0,0,0,31.07317,65.347l-1.96391,2.22,2.51493,1.55926A38.6336,38.6336,0,0,1,45.31676,83.74938a156.8942,156.8942,0,0,0-19.44258,22.99551,157.86878,157.86878,0,0,0,2.23141,30.2933,38.57753,38.57753,0,0,1-16.90937,3.92558c-1.04026,0-2.01878-.03433-2.96761-.11205l-2.954-.231L5.549,143.57a101.94053,101.94053,0,0,0,13.77717,42.16368L20.826,188.2875l2.2497-1.91594a38.55125,38.55125,0,0,1,18.256-8.54615A156.61718,156.61718,0,0,0,56.95616,203.2718a158.18686,158.18686,0,0,0,29.60514,7.27951,38.47473,38.47473,0,0,1-2.46462,20.19933l-1.12487,2.739,2.88989.64016a103.17294,103.17294,0,0,0,22.18155,2.45318l22.177-2.45318,2.89216-.64016-1.1203-2.739a38.42657,38.42657,0,0,1-2.45775-20.22221,158.21532,158.21532,0,0,0,29.48625-7.2567,155.91793,155.91793,0,0,0,15.63593-25.46928,38.627,38.627,0,0,1,18.34744,8.5553l2.252,1.9068,1.50208-2.53321a101.70238,101.70238,0,0,0,13.76116-42.16145l.27434-2.947ZM139.74263,176.8927a119.72754,119.72754,0,0,1-63.50165,0,121.503,121.503,0,0,1-19.32369-60.0493A120.89667,120.89667,0,0,1,79.93335,94.93389a122.735,122.735,0,0,1,28.071-15.27008,123.11612,123.11612,0,0,1,28.01389,15.229,121.8224,121.8224,0,0,1,23.11664,22.06035,122.39505,122.39505,0,0,1-5.78661,31.27639A123.01176,123.01176,0,0,1,139.74263,176.8927Z"/><path d="M292.32711,61.0968c33.6656,0,52.67148,24.16377,52.67148,61.899a78.73851,78.73851,0,0,1-.8162,12.2156H255.13148c1.63015,28.51,18.73844,46.43,43.9813,46.43,12.48772,0,23.07324-4.0742,32.8494-10.318l7.87168,14.65741c-11.40172,7.33213-25.51951,13.57595-43.43486,13.57595-35.29344,0-63.257-25.78932-63.257-68.96127C233.142,87.4348,262.187,61.0968,292.32711,61.0968Zm33.12375,59.45491c0-26.87762-11.94587-41.80477-32.5796-41.80477-18.46179,0-35.29567,15.19926-38.00952,41.80477Z"/><path d="M370.24152,82.54449H350.69379V65.71284l20.63143-1.358,2.71838-36.92122h18.727V64.3548h35.56779v18.192H392.7706v73.303c0,16.29209,5.16473,25.5195,20.364,25.5195,4.61828,0,10.59006-1.89989,14.93406-3.53234l4.33709,16.83625c-7.32752,2.44174-16.28519,4.88808-24.43358,4.88808-28.231,0-37.73748-17.91764-37.73748-43.9813V82.54449Z"/><path d="M501.104,61.0968c17.3758,0,29.5891,7.33212,38.54684,15.748l-11.12737,14.3853c-7.874-6.78114-16.01776-11.66922-26.60781-11.66922-23.88713,0-41.26746,20.62919-41.26746,51.03678,0,30.13786,16.56184,50.49954,40.72561,50.49954,12.48771,0,23.08007-6.24382,30.94944-13.3016l10.046,14.65965c-11.94586,10.58782-27.152,17.10368-42.89991,17.10368-35.01449,0-61.89434-25.24977-61.89434-68.96127C437.57724,86.34657,467.16871,61.0968,501.104,61.0968Z"/><path d="M605.35875,61.0968c15.20149,0,25.24517,5.702,36.92122,15.2061l-1.0883-22.53362V3h22.53369V196.29641H645.27047l-1.9068-15.4736H642.552c-10.318,10.046-24.43127,18.73384-39.90941,18.73384-33.12144,0-54.56683-24.97766-54.56683-68.96127C548.07354,87.70461,575.2232,61.0968,605.35875,61.0968Zm2.1697,119.726c12.2156,0,22.808-5.97178,33.66559-18.18515V93.67409c-11.13421-10.04367-21.17558-13.84576-32.03544-13.84576-21.17788,0-38.00722,20.35939-38.00722,50.49954C571.15131,161.82147,584.45061,180.82281,607.52845,180.82281Z"/></svg>