<?xml version="1.0" encoding="utf-8"?>
<!-- Generator: Adobe Illustrator 21.1.0, SVG Export Plug-In . SVG Version: 6.00 Build 0)  -->
<svg version="1.1" id="Layer_1" xmlns="http://www.w3.org/2000/svg" xmlns:xlink="http://www.w3.org/1999/xlink" x="0px" y="0px"
	 viewBox="0 0 432 432" enable-background="new 0 0 432 432" xml:space="preserve">
<g>
	<path fill="#54A3DA" d="M285.351,428.998c0,0,10.083-48.702,52.236-107.159c29.299-16.928,58.681-37.669,83.569-62.552
		c23.009-114.103-11.92-236.524-11.92-236.524S286.814-12.161,172.717,10.848c-24.893,24.898-45.624,54.28-62.552,83.569
		C51.691,136.559,3,146.642,3,146.642s38.946,26.741,57.736,57.082c-8.002,23.082-11.764,37.955-11.764,37.955
		c3.046,14.245,12.06,30.861,24.499,47.628c-8.588,6.808-18.656,13.892-29.595,19.813c-1.308,0.721-2.647,1.412-3.98,2.086
		c9.387,30.965,50.85,69.962,81.052,80.471c0.612-1.209,1.251-2.403,1.899-3.591c6.092-11.235,13.404-21.556,20.378-30.3
		c16.922,12.278,33.461,21.427,47.088,25.225c0,0,14.888-3.757,37.965-11.759C258.61,390.047,285.351,428.998,285.351,428.998z
		 M199.291,325.865c-17.369-7.525-40.435-26.05-56.159-41.784c-21.261-21.261-32.781-39.371-37.202-50.643
		c7.467-25.454,36.154-113.381,91.249-172.493c66.444-11.282,136.048,0.846,166.343,7.525c6.673,30.285,18.816,99.905,7.524,166.343
		C312.299,289.618,225.642,318.118,199.291,325.865z"/>
	<circle fill="#F1616E" cx="257.551" cy="174.452" r="45.505"/>
</g>
</svg>
