<svg id="图层_1" data-name="图层 1" xmlns="http://www.w3.org/2000/svg" viewBox="0 0 248.39 100.48"><defs><style>.cls-1{fill:#323333;}.cls-2{fill:#fff;}</style></defs><title>画板 1 副本</title><path class="cls-1" d="M129.42,78.56c-15-7.2-36.95,4.5-37.79,5-3.79,1.95-6.81,2.56-8.06,1.6s-2.19-3.28-2.2-6h0l0-.24a8.55,8.55,0,0,1,.07-1l.92-14V47.24a4.56,4.56,0,0,0-.14-1.11,40.91,40.91,0,0,0-81.56,0,4.56,4.56,0,0,0-.15,1.1v26.6a4.75,4.75,0,0,0,9.5,0V66.11A4.07,4.07,0,0,1,14.08,62h.17a4.07,4.07,0,0,1,4.07,4.07h0V87.6a4.75,4.75,0,0,0,9.49,0V66.38A4.34,4.34,0,0,1,32.15,62h.2a4.34,4.34,0,0,1,4.34,4.34V95.74a4.75,4.75,0,0,0,4.75,4.74h0a4.76,4.76,0,0,0,4.75-4.74V76s-.1-1.29-.13-1.52,0-.26,0-.4V66.38A4.34,4.34,0,0,1,50.38,62h.2a4.35,4.35,0,0,1,4.34,4.34V74.1a3.25,3.25,0,0,1,0,.44c0,.19-.11,1.78-.11,1.78V87.6a4.75,4.75,0,0,0,9.5,0V77s-.16-2.5-.16-2.89V66.38A4.34,4.34,0,0,1,68.46,62h.19A4.35,4.35,0,0,1,73,66.38V74l0,.38c0,.07,0,.15,0,.22v0c-.35,5.8.3,13.51,5.38,17.39a10.92,10.92,0,0,0,6.83,2.22q4.57,0,10.51-3c5.23-2.84,20.81-9.23,30-4.8a4.32,4.32,0,0,0,3.87-7.73l-.13-.07Z"/><path class="cls-2" d="M28.41,36.73c-.78,6.05,5.81,10.21,11.32,9,6.34-1.43,7.43-10.86,2.84-14.71a8.24,8.24,0,0,0-11.51.56,9.26,9.26,0,0,0-2.65,5.17Z"/><path class="cls-1" d="M36.49,40.91A1.67,1.67,0,0,0,38,38.13c-.88-.88-2.42-.79-2.71.45a1.75,1.75,0,0,0,1.26,2.33Z"/><path class="cls-2" d="M48.57,38.1c-.63,4.82,4.63,8.13,9,7.16,5.06-1.14,5.93-8.67,2.26-11.74a6.56,6.56,0,0,0-9.18.45A7.39,7.39,0,0,0,48.57,38.1Z"/><path class="cls-1" d="M54.16,40.73a1.34,1.34,0,0,0,1.17-2.22c-.71-.7-1.94-.63-2.17.36A1.39,1.39,0,0,0,54.16,40.73Z"/><path class="cls-1" d="M39.68,3.68h0a2,2,0,0,1,2,2v5.68a2,2,0,0,1-2,2h0a2,2,0,0,1-2-2V5.67A2,2,0,0,1,39.68,3.68Z"/><circle class="cls-1" cx="39.68" cy="3.43" r="3.43"/><path class="cls-1" d="M179.87,60.8v-.21a2.29,2.29,0,0,0-1.75-2l-.12,0a2.19,2.19,0,0,0-.51,0l-10,.54a2.27,2.27,0,1,0,.24,4.54l10-.54a2.28,2.28,0,0,0,2.15-2.19A.22.22,0,0,0,179.87,60.8Z"/><path class="cls-1" d="M145.71,58.45a9.45,9.45,0,0,0-1.17-3.38A5,5,0,0,0,143,53.43a6,6,0,0,0-2.06-.87,7.45,7.45,0,0,0-2.26-.13,6.85,6.85,0,0,0-2.17.58c-.24.12-.47.24-.7.34s-.45.23-.67.35q.07-1.59.09-2.67c0-.73,0-1.36,0-1.9,0-.22,0-.43,0-.62v-2a2.34,2.34,0,0,0-4.67,0v2.06c0,4.13-.11,13.94,0,14.65l0,.08c.15,2.35,1.27,6.78,7.68,5.91h0l.82-.13a6.62,6.62,0,0,0,1.8-.51c.3-.11.6-.23.89-.37a5.85,5.85,0,0,0,2.69-2.42,9.85,9.85,0,0,0,1.26-3.52A12,12,0,0,0,145.71,58.45Zm-6.94,6.29c-1.84,0-3.34-1.82-3.34-4.07s1.5-4.07,3.34-4.07,3.35,1.82,3.35,4.07S140.63,64.74,138.77,64.74Z"/><path class="cls-1" d="M163.78,64a2.11,2.11,0,0,0-2.58-.76h0a2.21,2.21,0,0,0-.34.18l-.18.12a22.21,22.21,0,0,1-2.27,1.18,7.8,7.8,0,0,1-1.77.45,5.38,5.38,0,0,1-2-.09,3.32,3.32,0,0,1-1.74-1.1c.75-.24,1.53-.45,2.33-.65a22.15,22.15,0,0,0,2.37-.7,18.39,18.39,0,0,0,2.23-1,7.74,7.74,0,0,0,2-1.46A4,4,0,0,0,163,58.16a4.93,4.93,0,0,0,0-2.26,5.5,5.5,0,0,0-1.07-2.08A5.27,5.27,0,0,0,160,52.36a6.28,6.28,0,0,0-3-.53c-.33,0-.67.06-1,.11h0c-5,.52-7,3.38-7.71,5.54h0a8.44,8.44,0,0,0-.36,1.42c-.34,1.8-.56,5,1.39,7.26a8.56,8.56,0,0,0,2.22,2.19,7,7,0,0,0,2.6,1.05,9.31,9.31,0,0,0,3,0,18.54,18.54,0,0,0,3.36-.91,12.55,12.55,0,0,0,1.55-.68l.23-.13h0a3.85,3.85,0,0,0,1.38-1.07h0A2.12,2.12,0,0,0,163.78,64Zm-8.58-8.1c1.35-.58,2.76-.32,3.15.59s-.39,2.11-1.74,2.69-2.76.32-3.15-.59S153.85,56.52,155.2,55.94Z"/><path class="cls-1" d="M122.78,67.75h0s1.81,2.51,4.71,0l.77-.77a1.9,1.9,0,0,0-2.46-2.86c0-.14-.11-.29-.15-.44a10.79,10.79,0,0,1-.41-2.17,16.78,16.78,0,0,1-.08-2.24c0-.75.06-1.46.11-2.13,0-.36.07-.75.13-1.18a8.52,8.52,0,0,0,.09-1.24,3.85,3.85,0,0,0-.18-1.16l0,0a2.23,2.23,0,0,0-4.42.45v6.23h0c0,1,0,2,0,2.63a2.91,2.91,0,0,1-5.68-.9V58.81a10.34,10.34,0,0,1,.07-1.11,30.81,30.81,0,0,0,.09-3.72.68.68,0,0,0,0-.14A2.17,2.17,0,1,0,111,54h0v.24a4.74,4.74,0,0,0,0,.84c0,.3,0,.61,0,.92s0,.8-.07,1.18,0,.75,0,1.13c0,1.11,0,2.28.06,3.51a7.88,7.88,0,0,0,.88,3.36,7.8,7.8,0,0,0,2.13,2.58,6.28,6.28,0,0,0,2.71,1.21,6.41,6.41,0,0,0,3-.2,8.49,8.49,0,0,0,2.87-1.58Z"/><path class="cls-1" d="M204.24,53.49a9.41,9.41,0,0,0-3.89-6.34,13.63,13.63,0,0,0-1.79-1,9,9,0,0,0-2.47-.75,11.63,11.63,0,0,0-2.57-.1A10.32,10.32,0,0,0,189,46.81a13.27,13.27,0,0,0-3.5,3.18,15.46,15.46,0,0,0-2.25,4.27,15.07,15.07,0,0,0-.85,4.71,15.37,15.37,0,0,0,.22,2.79,11.16,11.16,0,0,0,.84,2.78A8.63,8.63,0,0,0,185,66.92a6.45,6.45,0,0,0,2.4,1.63,8.23,8.23,0,0,0,1.65.76,14.44,14.44,0,0,0,2.37.49,8.9,8.9,0,0,0,4.24-.54,11.15,11.15,0,0,0,3.41-2.14,14.86,14.86,0,0,0,2.65-3.21,25.53,25.53,0,0,0,1.49-2.78l.64-1.84a22.59,22.59,0,0,0,.41-2.44A13.49,13.49,0,0,0,204.24,53.49ZM198.43,59c-1.09,3.33-4.21,5.29-7,4.39s-4.18-4.34-3.1-7.66,4.21-5.29,7-4.39S199.5,55.69,198.43,59Z"/><path class="cls-1" d="M225.12,45.34a2.09,2.09,0,0,0-2.78,1h0L216,59.92l-5.23-13a2.09,2.09,0,1,0-3.87,1.56L212,61.05l2.11,5.59a1.45,1.45,0,0,0,.11.29h0A2,2,0,0,0,216,68.07h.15a2,2,0,0,0,.59-.12,1.92,1.92,0,0,0,.46-.27,2,2,0,0,0,.69-1l.15-.34,5.52-12.75,2.57-5.51A2.09,2.09,0,0,0,225.12,45.34Z"/><path class="cls-1" d="M246.12,43.74H246a2.34,2.34,0,0,0-2.4,2.27l-.34,13.72c-.52-.74-1-1.49-1.58-2.24l-.2-.27-.57-.71L233,45.6h0a2.37,2.37,0,0,0-3.34-.35,2.34,2.34,0,0,0-.88,1.85V68.48a2.38,2.38,0,0,0,4.76,0V54.64l3,4.14,6.93,10.27h0a2.32,2.32,0,0,0,1.93,1.13h.1a2.35,2.35,0,0,0,2.39-2.27l.11-4.69q.13-3,.21-5.93c0-1.65.06-3.3.07-4.95l.16-6.21A2.33,2.33,0,0,0,246.12,43.74Z"/><path class="cls-1" d="M108.23,65.26a76.39,76.39,0,0,0-5.43-5.68c-.23-.23-.47-.5-.7-.75l-1.77-1.92c.84-.78,1.4-1.33,1.4-1.33.51-.46,1-.94,1.48-1.43s.94-1,1.38-1.52l.27-.33h0A10,10,0,0,0,107.14,49,2.17,2.17,0,0,0,104,46.25l-8.27,8c0-1,0-2,0-3v-4a2.21,2.21,0,0,0-4.42,0v3.43q0,1.14,0,2.1c0,.64,0,1,0,1.08v7.55c0,.14,0,.54,0,1.17s0,1.33,0,2.08c0,.22,0,.44,0,.66h0l.07,2.83v.19h0a2.17,2.17,0,0,0,4.31.15V66c0-1-.06-1.91-.08-2.86l0-2.34c.44-.3.9-.65,1.37-1l2.78,2.95,3.36,3.61a6.18,6.18,0,0,1,.43.49l.52.64c.18.21.38.42.58.63a7.45,7.45,0,0,0,.6.52,2,2,0,0,0,1.32.43,2.1,2.1,0,0,0,.65-.14,2,2,0,0,0,.94-.54A2.19,2.19,0,0,0,108.23,65.26Z"/></svg>