<svg id="Layer_1" data-name="Layer 1" xmlns="http://www.w3.org/2000/svg" viewBox="0 0 432 540.05401"><defs><style>.cls-1{fill:#fff;}</style></defs><title>cortex-stacked-white</title><path class="cls-1" d="M390.83633,189.36156c0-97.52295-79.34015-176.863-176.86291-176.863s-176.863,79.34009-176.863,176.863c0,97.52271,79.34015,176.86292,176.863,176.86292S390.83633,286.88426,390.83633,189.36156Zm-345.93115,0c0-93.22461,75.84369-169.06836,169.06824-169.06836S383.04165,96.13695,383.04165,189.36156,307.198,358.42974,213.97341,358.42974,44.90517,282.586,44.90517,189.36156Z"/><circle class="cls-1" cx="309.58492" cy="193.37007" r="29.27167"/><circle class="cls-1" cx="213.2803" cy="305.09436" r="29.27165"/><path class="cls-1" d="M209.26662,195.45751l18.21179-45.23462,16.51428,47.18323h14.83087a50.949,50.949,0,0,0,21.33887,37.34851L232.307,282.61009l3.67407,3.67407,48.67932-48.67932a50.93361,50.93361,0,1,0,1.67389-89.72034L236.378,100.426a29.27681,29.27681,0,1,0-3.67706,3.6759l48.96313,46.515a50.93672,50.93672,0,0,0-23.00311,41.59277H247.67947l-19.861-56.74646-22.061,54.79773H181.12118l-20.93439,48.448-18.46552-46.16565-.05328.02136v-.49585H123a29.28012,29.28012,0,1,0-.23285,5.19653h15.24457l21.98981,54.97278,24.53485-56.78064Zm100.31763-48.00024a45.74005,45.74005,0,1,1-45.73938,45.7395A45.792,45.792,0,0,1,309.58425,147.45726Z"/><path class="cls-1" d="M59.40267,512.47057q-5.32837,4.95355-14.78253,4.95288a21.115,21.115,0,0,1-10.35492-2.40161,20.104,20.104,0,0,1-7.05249-6.37756,28.09332,28.09332,0,0,1-3.97736-9.0799,43.094,43.094,0,0,1-1.275-10.50464,52.69357,52.69357,0,0,1,1.20013-11.33051,28.35362,28.35362,0,0,1,3.97729-9.67993,20.61315,20.61315,0,0,1,7.428-6.75317A23.7858,23.7858,0,0,1,46.121,458.74486q8.10489,0,12.90619,4.05212a19.45041,19.45041,0,0,1,6.30273,11.40533H78.53683A30.74688,30.74688,0,0,0,74.935,462.27178a26.68832,26.68832,0,0,0-7.27838-8.32886,30.19182,30.19182,0,0,0-10.20514-4.87677,46.90532,46.90532,0,0,0-12.381-1.57568,37.55656,37.55656,0,0,0-16.05762,3.22626,32.06357,32.06357,0,0,0-11.48016,8.854,37.65494,37.65494,0,0,0-6.828,13.20563,56.94752,56.94752,0,0,0-2.25189,16.28339,52.20866,52.20866,0,0,0,2.32672,15.98273,35.00058,35.00058,0,0,0,6.90289,12.53064,30.37017,30.37017,0,0,0,11.40533,8.10431,40.44229,40.44229,0,0,0,15.68329,2.85071q14.85681,0,23.48566-7.80359,8.6283-7.80048,10.73047-22.21063H65.93Q64.72729,507.51894,59.40267,512.47057Z"/><path class="cls-1" d="M154.77,459.27007a34.12714,34.12714,0,0,0-11.77966-8.62823,39.24224,39.24224,0,0,0-16.28339-3.15137,39.36334,39.36334,0,0,0-16.20728,3.15137A33.92788,33.92788,0,0,0,98.644,459.27007a36.19274,36.19274,0,0,0-7.20355,12.90619A51.66892,51.66892,0,0,0,89.03884,488.159a50.9524,50.9524,0,0,0,2.40161,15.9079A36.25475,36.25475,0,0,0,98.644,516.89824a33.07946,33.07946,0,0,0,11.85571,8.55334,40.20975,40.20975,0,0,0,16.20728,3.07654,40.086,40.086,0,0,0,16.28339-3.07654A33.26065,33.26065,0,0,0,154.77,516.89824a36.31474,36.31474,0,0,0,7.20349-12.83136,50.98986,50.98986,0,0,0,2.40155-15.9079,51.7071,51.7071,0,0,0-2.40155-15.98273A36.252,36.252,0,0,0,154.77,459.27007Zm-5.77753,41.41962a26.23253,26.23253,0,0,1-5.17749,9.15472,22.45028,22.45028,0,0,1-7.72876,5.62781,23.518,23.518,0,0,1-18.75854,0,22.41481,22.41481,0,0,1-7.72876-5.62781,26.17218,26.17218,0,0,1-5.17743-9.15472,42.80622,42.80622,0,0,1,0-25.06134,27.03659,27.03659,0,0,1,5.17743-9.22961,22.06765,22.06765,0,0,1,7.72876-5.7027,23.51864,23.51864,0,0,1,18.75854,0,22.10193,22.10193,0,0,1,7.72876,5.7027,27.10044,27.10044,0,0,1,5.17749,9.22961,42.77959,42.77959,0,0,1,0,25.06134Z"/><path class="cls-1" d="M186.73714,465.649h-.29938V449.2907H174.43227v77.58691h12.75525V492.36083a53.02376,53.02376,0,0,1,1.50079-13.28046,25.43719,25.43719,0,0,1,4.80322-9.82965,20.56651,20.56651,0,0,1,8.70306-6.15308,36.08552,36.08552,0,0,1,13.05719-2.10089V447.49047q-10.35617-.29883-17.10931,4.20184Q191.39065,456.19478,186.73714,465.649Z"/><path class="cls-1" d="M247.0621,426.02959H234.30556V449.2907H221.09994v11.25568h13.20563v49.37286a29.47642,29.47642,0,0,0,1.05048,8.70435,10.55888,10.55888,0,0,0,3.2262,5.1026,12.45956,12.45956,0,0,0,5.7027,2.47644,45.78373,45.78373,0,0,0,8.4798.675h9.75482V515.62193h-5.85364a42.608,42.608,0,0,1-4.87677-.22455,6.27672,6.27672,0,0,1-2.92688-.97559,3.6996,3.6996,0,0,1-1.426-2.101,13.935,13.935,0,0,1-.37421-3.60175V460.54637h15.45746V449.2907H247.0621Z"/><path class="cls-1" d="M337.02737,462.64726a34.0033,34.0033,0,0,0-10.955-10.88013q-6.82983-4.27789-17.18286-4.27667a35.29144,35.29144,0,0,0-14.63159,3.00043,34.404,34.404,0,0,0-11.55634,8.40491,38.73589,38.73589,0,0,0-7.57782,12.75525,46.68052,46.68052,0,0,0-2.70227,16.20856,62.09571,62.09571,0,0,0,2.6275,16.35693,35.65708,35.65708,0,0,0,6.97766,12.90619,31.75711,31.75711,0,0,0,11.48016,8.40375,39.8536,39.8536,0,0,0,16.13251,3.00165q13.20493,0,21.91119-6.60345,8.70062-6.6015,11.25439-19.6593H330.19936q-1.65372,7.6539-6.82794,11.40533-5.17813,3.75467-13.28174,3.75275a26.39651,26.39651,0,0,1-10.955-2.10089,21.45555,21.45555,0,0,1-7.65387-5.62787,21.88379,21.88379,0,0,1-4.35156-8.10425,30.73942,30.73942,0,0,1-1.2002-9.68h58.07733A61.82916,61.82916,0,0,0,342.73,477.05431,43.04449,43.04449,0,0,0,337.02737,462.64726ZM285.929,480.65605a26.54208,26.54208,0,0,1,1.95-8.4798,22.62723,22.62723,0,0,1,4.50256-6.97766,20.604,20.604,0,0,1,6.828-4.72711,22.22716,22.22716,0,0,1,8.92889-1.72662,21.84447,21.84447,0,0,1,8.77917,1.72662,22.105,22.105,0,0,1,6.90417,4.65222,21.8717,21.8717,0,0,1,4.65216,6.97772A26.19957,26.19957,0,0,1,330.5,480.65605Z"/><polygon class="cls-1" points="389.48 485.008 416.193 449.291 400.885 449.291 381.525 476.454 362.916 449.291 346.558 449.291 373.571 486.058 344.457 526.878 359.915 526.878 381.525 494.762 403.136 526.878 419.494 526.878 389.48 485.008"/></svg>