<svg xmlns="http://www.w3.org/2000/svg" role="img" viewBox="-1.98 0.02 362.70 361.45"><defs><style>.cls-1{fill:#fff}</style></defs><path d="M200.96362 88.17007l.00013-.017-.00721.00018.00708.017zm-2.60156 171.54413a37.64469 37.64469 0 0 1-28.25561 4.75238 75.68813 75.68813 0 0 1-20.12256-8.06562c-1.25428-.69012-2.501-1.39386-3.81183-2.12518a.961.961 0 0 0 .34112.7655 43.36664 43.36664 0 0 0 19.98407 14.23194 33.33818 33.33818 0 0 0 19.3003 1.1737 32.89855 32.89855 0 0 0 18.41-12.02087 17.04987 17.04987 0 0 0 2.94891-4.51734 1.16944 1.16944 0 0 0-.79364.37708 86.59521 86.59521 0 0 1-8.00076 5.42841z"/><path d="M128.92108 117.70016c.85108 1.50329.726 2.06317-.43036 3.16516a46.58883 46.58883 0 0 0-12.88122 21.037c-1.80963 6.22387-1.51416 12.541-.95209 18.88262q.75549 8.52421 1.41821 17.05652c.287 3.70862.33289 7.44214.76441 11.132.81152 6.93891 1.28949 13.90027 1.76654 20.86444a78.86214 78.86214 0 0 0 1.851 14.41986c1.63129 6.32386 4.17249 12.32227 6.61639 18.35321 1.11261 2.74561 2.306 5.4585 3.55591 8.40564.16712-.58117.26361-.91662.36-1.252a86.55555 86.55555 0 0 1 2.579-10.353 59.72534 59.72534 0 0 1 9.64838-17.12573c4.43109-5.55456 9.26825-10.71081 15.24994-14.65375a29.923 29.923 0 0 1 13.34082-5.10766 29.36061 29.36061 0 0 1 9.78558.6466c7.18939 1.67518 13.3913 5.28711 19.10876 9.78681a68.032 68.032 0 0 1 19.2793 24.08136c.52264 1.07605.952 2.19739 1.42468 3.29767a101.80039 101.80039 0 0 0 6.82312-21.38941c1.23163-6.86743 2.26917-13.76965 3.39722-20.65576 1.11078-6.78052 2.25775-13.55475 3.21014-20.3609q1.57628-11.26557 2.92347-22.56a51.44843 51.44843 0 0 0-.12787-15.982c-1.60291-8.33087-5.24213-15.44354-12.07508-20.71753-1.40484-1.08435-1.514-1.79724-.57879-3.37274a224.70106 224.70106 0 0 0 12.535-24.81806c5.82385-13.32708 10.94776-26.89221 12.75757-41.45471a59.37455 59.37455 0 0 0-.30469-18.95215 28.121 28.121 0 0 0-22.309-22.5108c-6.5238-1.17127-12.31836.41131-17.0141 5.28033a39.45762 39.45762 0 0 0-8.1502 12.96747c-5.63556 14.118-8.17322 28.92035-9.57721 43.96155-.56311 6.033-1.03437 12.07458-1.54749 18.1123h.00006a14.98718 14.98718 0 0 1 3.77057-.99878c.26-.04547.635-.16394.78412.09827.13147.23126-.05042.54059-.20422.78668a15.17909 15.17909 0 0 0-2.24329 5.23005 9.83318 9.83318 0 0 0 .11725 4.30737c.1897.73181.59381.96661 1.33972.623a6.49022 6.49022 0 0 0 3.29-4.205 23.54955 23.54955 0 0 0 .82184-6.16162c.08471-1.15284.01526-2.317.20239-3.52558q.85473 2.0571 1.70947 4.11432l.00721-.00018c.06311-2.75629-.20636-5.49957-.32667-8.24878-.09448-2.1601.02955-4.315.11255-6.47363.40162-10.444 1.48883-20.79841 4.33124-30.88654 1.84107-6.53418 4.28839-12.851 8.51605-18.27081 2.29993-2.94837 5.136-5.36664 8.92572-6.15045 4.93775-1.02131 9.41681.38348 13.37513 3.29443 3.71283 2.73047 5.53289 6.735 6.59423 11.09314a35.26676 35.26676 0 0 1 .282 13.57818 123.2355 123.2355 0 0 1-8.37018 30.03412 141.24477 141.24477 0 0 1-17.2995 30.63782 44.51837 44.51837 0 0 1-6.63269 7.161c-1.744 1.48474-2.76215 1.36267-3.89044-.61792a37.50707 37.50707 0 0 1-3.66217-9.80774c-.05786-.23718-.16-.4635-.24164-.69488-.41107.85412-.80725 1.71594-1.23987 2.559a.95063.95063 0 0 0 .04767 1.06817c1.91284 3.09845 2.0708 6.48945 1.71368 10.00116a37.005 37.005 0 0 1-1.77429 7.69184h-.00006c-.01965.1961-.036.46863-.2619.45727-.278-.014-.12189-.29974-.155-.46753-.49622-3.20092-.69135-6.48895-2.71393-9.244a2.24764 2.24764 0 0 0-1.33722-1.06788c.44367 7.14679-2.065 13.49158-5.04016 19.71119a30.59544 30.59544 0 0 0 .49445-4.59675 18.65212 18.65212 0 0 0-1.233-5.98931 30.16261 30.16261 0 0 0-8.078-11.43653c-.04217-.03875-.127-.03106-.31573-.07171 1.5404 8.20819-1.57245 15.001-6.24945 21.37078a.55169.55169 0 0 1-.23706-.6651c.6242-4.44824-.89814-8.50207-2.30848-12.57324-.3009-.86859-.732-1.69262-1.02215-2.56408-.30145-.90558-.75537-.85193-1.43341-.409a6.40033 6.40033 0 0 0-2.33655 3.08868 31.43161 31.43161 0 0 0-1.82861 8.34827 80.96451 80.96451 0 0 0-.46485 8.98682c-.01007.95245-.01666 1.90533-.02777 2.85852-.3479-.9162-.66852-1.83625-.96869-2.75916a54.0213 54.0213 0 0 1-2.56482-21.12323 20.30177 20.30177 0 0 0-3.21112 12.02521c-.49408-1.16034-1.00976-2.312-1.47815-3.48267a39.04477 39.04477 0 0 1-2.52429-9.38842 9.33417 9.33417 0 0 1 .12421-3.80085 1.11778 1.11778 0 0 0-.51148-1.429 7.19468 7.19468 0 0 1-2.48083-2.845 31.92268 31.92268 0 0 1-2.88458-8.26673l-.00013-.00012a42.227 42.227 0 0 1-4.60724 14.5719c-1.11438 1.98376-2.1206 2.05755-3.88067.53039-4.63025-4.01757-8.14618-8.935-11.42645-14.04644a144.06542 144.06542 0 0 1-16.21888-33.9173 113.912 113.912 0 0 1-4.60913-19.78058 47.25844 47.25844 0 0 1-.56732-7.39209A26.6335 26.6335 0 0 1 112.478 25.974c2.53955-4.42493 6.56909-6.84174 11.46356-7.8623 6.81866-1.42182 11.67834 1.79364 15.47436 6.97161 4.00769 5.4668 6.31244 11.76178 8.11921 18.23407a107.82041 107.82041 0 0 1 3.031 16.43634c.56726 4.81452.92249 9.63654 1.10852 14.48328.11017 2.8703.02246 5.72388-.03277 8.585q1.14522-3.00073 2.29058-6.00146c.16907 5.3739.33783 10.69385 2.03156 15.85907a71.25116 71.25116 0 0 1 3.94366-12.4458l.00025.00006q.20727-.09422.41443-.18805l.00006-.00012c-.00879-.5304.00781-1.06262-.03015-1.591-.56183-7.81146-1.19678-15.615-2.522-23.34429-1.40063-8.16907-2.883-16.32062-5.54181-24.19959a52.33419 52.33419 0 0 0-8.89946-16.80038 18.36983 18.36983 0 0 0-20.45709-6.06C116.32458 10.10586 110.75 13.537 106.977 19.44265c-4.1759 6.53619-5.46741 13.86017-5.39435 21.43457a88.16184 88.16184 0 0 0 2.89246 19.9361c2.63385 10.84417 6.7301 21.159 11.30487 31.30212 3.94695 8.75116 8.41368 17.2345 13.1411 25.58472zm55.02792 49.71307a37.19851 37.19851 0 0 1 10.6128-18.03046 17.06147 17.06147 0 0 1 10.85626-4.73761 11.61716 11.61716 0 0 1 6.6062 1.6 27.28667 27.28667 0 0 1 13.257 17.02869 13.22288 13.22288 0 0 1-3.376 13.04675 36.52687 36.52687 0 0 1-21.228 11.28589 53.25016 53.25016 0 0 1-5.79841.36639 22.93011 22.93011 0 0 1-4.15826-.05591 6.92874 6.92874 0 0 1-5.22211-4.21637 22.74165 22.74165 0 0 1-1.54948-16.28737zm-46.53564-19.93542a15.899 15.899 0 0 1 8.14478-3.02869 10.90486 10.90486 0 0 1 5.62054 1.27026 30.15138 30.15138 0 0 1 15.73523 19.33155 30.92281 30.92281 0 0 1 1.51648 9.17053 20.44005 20.44005 0 0 1-2.11731 9.10065 7.78252 7.78252 0 0 1-7.68311 4.80474c-10.40808-.098-19.82043-2.93127-27.49261-10.32055a16.48775 16.48775 0 0 1-5.15888-8.36359 12.39445 12.39445 0 0 1 .28388-6.39117 28.55979 28.55979 0 0 1 11.15097-15.57373z"/><path d="M220.73254 239.50423a62.61989 62.61989 0 0 0-10.01147-16.359 65.14513 65.14513 0 0 0-17.26447-14.81739 38.37616 38.37616 0 0 0-15.84491-5.52368 26.30852 26.30852 0 0 0-13.51013 2.10742 43.92217 43.92217 0 0 0-12.1463 8.28668 78.17166 78.17166 0 0 0-11.85626 13.86725 52.11069 52.11069 0 0 0-8.127 19.39881c-.20849 1.12005-.19451 2.33929-.98205 3.30029a15.43559 15.43559 0 0 1 .37482 3.62708 22.26859 22.26859 0 0 0 5.69152 13.22351 28.8777 28.8777 0 0 0 12.72559 7.59253c8.65454 2.79925 17.64459 3.3095 26.62781 3.736a97.56581 97.56581 0 0 0 11.57049-.26471 40.61326 40.61326 0 0 0 23.88239-9.46008 30.89322 30.89322 0 0 0 9.2337-12.15516c2.07172-5.19781 1.79633-10.45312.31018-15.7268v-.00006c-.52706-.02946-.54396-.50847-.67391-.83269zm-71.24493-11.10015a9.15582 9.15582 0 0 1 6.34113-2.57526 7.65831 7.65831 0 0 1 7.67443 7.53375 24.43758 24.43758 0 0 0 3.00586 10.822 22.64011 22.64011 0 0 0 2.42859 3.50635c.65863.78046.99182 1.88355 1.662 2.74335.42773.54877.86816 1.243.30127 1.93548a2.284 2.284 0 0 1-2.262.89588 8.47692 8.47692 0 0 1-2.02808-.618 86.1609 86.1609 0 0 1-11.79309-6.451c-.7959-.54865-1.58142-1.11512-2.34137-1.72553a20.63739 20.63739 0 0 1-4.41956-4.71 8.54162 8.54162 0 0 1 1.43082-11.35702zm54.71991 30.022a32.89855 32.89855 0 0 1-18.41 12.02087 33.33818 33.33818 0 0 1-19.3003-1.1737 43.36664 43.36664 0 0 1-19.98407-14.23194.961.961 0 0 1-.34112-.7655c1.31085.73132 2.55755 1.43506 3.81183 2.12518a75.68813 75.68813 0 0 0 20.12256 8.06562 37.64469 37.64469 0 0 0 28.25561-4.75238 86.59521 86.59521 0 0 0 8.00073-5.42841 1.16944 1.16944 0 0 1 .79364-.37708 17.04987 17.04987 0 0 1-2.94888 4.51726zm4.76086-22.06262a12.84731 12.84731 0 0 1-4.36676 7.00579 47.30487 47.30487 0 0 1-4.59308 3.44251 72.54333 72.54333 0 0 1-12.12933 6.32269 2.46353 2.46353 0 0 1-2.06274.00769 1.63779 1.63779 0 0 1-.78333-2.668c1.21124-1.8316 2.49164-3.61938 3.65222-5.48217.09742-.15638.18287-.31659.27649-.47419a23.35242 23.35242 0 0 0 3.32294-10.83581c.25543-4.79242 3.4295-7.89984 7.89728-7.85163 3.1983.03449 7.7445 3.06665 8.91907 6.03717a7.484 7.484 0 0 1-.13276 4.49592z" class="cls-1"/><path d="M179.71094 279.01846c-1.10254 0-2.22461-.02247-3.34864-.0752-10.08691-.47949-18.47265-1.0625-26.88769-3.78418-5.708-1.8457-9.88672-4.34473-13.15137-7.86426a23.13959 23.13959 0 0 1-5.95215-13.7959c-.04785-.43847-.05859-.88183-.06933-1.32421a6.71849 6.71849 0 0 0-.25391-2.07618l-.18847-.53125.35742-.43652a3.99921 3.99921 0 0 0 .64843-2.05566c.03711-.26661.0752-.53223.12305-.793a52.73157 52.73157 0 0 1 8.27734-19.77051 79.65564 79.65564 0 0 1 12.00684-14.04395 44.854 44.854 0 0 1 12.42285-8.46972 27.39218 27.39218 0 0 1 14.01563-2.18848 39.14223 39.14223 0 0 1 16.25683 5.6582 66.44872 66.44872 0 0 1 17.52637 15.04395 63.47371 63.47371 0 0 1 10.167 16.62012c.02735.07031.05274.14453.07617.22168l.4375.02441.19434.6875c1.72266 6.11231 1.61035 11.4668-.34375 16.36816a31.741 31.741 0 0 1-9.51953 12.55079 41.78694 41.78694 0 0 1-24.4541 9.6914c-2.36232.16995-5.27638.34281-8.34083.34281zm-47.625-29.07422a9.8662 9.8662 0 0 1 .21582 2.18554c.00879.38575.0166.77149.05762 1.1543a21.21419 21.21419 0 0 0 5.43062 12.65039c3.02246 3.25879 6.93066 5.58594 12.2998 7.32227 8.18067 2.6455 16.43164 3.21679 26.36817 3.68847a97.66216 97.66216 0 0 0 11.45117-.26367 39.83693 39.83693 0 0 0 23.30957-9.22851 29.79582 29.79582 0 0 0 8.94922-11.75977c1.73242-4.34863 1.86816-9.12793.41015-14.59473a1.90779 1.90779 0 0 1-.73437-1.09863c-.0127-.043-.02441-.08594-.04-.124a61.50351 61.50351 0 0 0-9.85644-16.09668 64.438 64.438 0 0 0-17.001-14.59082 37.16725 37.16725 0 0 0-15.43457-5.38867 25.39231 25.39231 0 0 0-13.00391 2.02636 42.89981 42.89981 0 0 0-11.87011 8.10254 77.69639 77.69639 0 0 0-11.70604 13.69037 50.76429 50.76429 0 0 0-7.97656 19.02832c-.043.23145-.07617.4668-.1084.7041a6.49592 6.49592 0 0 1-.76074 2.59282zm46.13476 22.4082a36.18323 36.18323 0 0 1-12.0557-2.13574 44.5399 44.5399 0 0 1-20.43551-14.5547 1.87656 1.87656 0 0 1-.55664-1.43359l.07715-1.61036 2.71582 1.51465c.84375.47266 1.6709.93555 2.501 1.39258 7.417 4.08008 13.72656 6.61133 19.85547 7.96485a36.87112 36.87112 0 0 0 27.53027-4.63672 85.47291 85.47291 0 0 0 7.9082-5.36524 2.06015 2.06015 0 0 1 1.38281-.5791h.0254l1.42382.01758-.5 1.334a15.93948 15.93948 0 0 1-2.75879 4.35645l-.34375.43066a34.05724 34.05724 0 0 1-18.957 12.3711 33.12117 33.12117 0 0 1-7.81255.93358zm-28.17578-14.77832A42.54746 42.54746 0 0 0 166.8291 268.33a32.11785 32.11785 0 0 0 18.7334 1.14551 31.68363 31.68363 0 0 0 17.86133-11.67188l.27929-.34961c-1.66015 1.15528-3.25878 2.1875-4.83105 3.12012a38.82319 38.82319 0 0 1-28.98145 4.86914 75.33764 75.33764 0 0 1-19.8457-7.86916zm36.76563-3.207a3.35741 3.35741 0 0 1-1.41114-.31543 2.83532 2.83532 0 0 1-1.68359-1.77442 2.78721 2.78721 0 0 1 .4834-2.35449c.44922-.67969.9082-1.35351 1.36719-2.02734.76171-1.11817 1.54882-2.27442 2.2705-3.43262.05176-.083.09864-.166.14551-.249l.11914-.20606a22.48462 22.48462 0 0 0 3.18457-10.37988c.28125-5.27539 3.8086-8.79883 8.792-8.79883.03809 0 .07618.001.11426.001 3.65039.04 8.52344 3.34375 9.83887 6.66894a8.07236 8.07236 0 0 1-.04785 4.91211l-.03906.17286a13.84848 13.84848 0 0 1-4.69239 7.54492 47.94088 47.94088 0 0 1-4.68945 3.51562 72.59249 72.59249 0 0 1-12.2959 6.41211 3.74657 3.74657 0 0 1-1.45606.31048zM200.0791 226.829c-3.9082 0-6.57129 2.70117-6.79492 6.90528a24.46887 24.46887 0 0 1-3.46289 11.29394l-.09863.17285c-.06153.10742-.123.21485-.18946.32129-.74218 1.19043-1.541 2.36426-2.31347 3.499-.45411.666-.90821 1.332-1.35254 2.00488a.98184.98184 0 0 0-.22754.7041 1.0401 1.0401 0 0 0 .5957.50391 1.46407 1.46407 0 0 0 1.25586-.02149 70.6408 70.6408 0 0 0 11.96387-6.23437 45.97921 45.97921 0 0 0 4.49609-3.36914 11.88514 11.88514 0 0 0 4.042-6.4668l.04-.17383a6.3742 6.3742 0 0 0 .13868-3.73437c-1.00684-2.54493-5.19434-5.37305-8.001-5.4043-.03023.00005-.06147-.00095-.09175-.00095zm-31.0039 27.47949a3.29067 3.29067 0 0 1-.62891-.06152 9.45493 9.45493 0 0 1-2.26758-.69824 87.67852 87.67852 0 0 1-11.92871-6.5293c-.93945-.64648-1.70215-1.209-2.39941-1.76953a21.57816 21.57816 0 0 1-4.62989-4.93945 9.56279 9.56279 0 0 1 1.59082-12.64258 10.13107 10.13107 0 0 1 7.00977-2.83887h.00879a8.629 8.629 0 0 1 8.6709 8.47754 23.30563 23.30563 0 0 0 2.8789 10.38672 21.54608 21.54608 0 0 0 2.32227 3.35352 8.247 8.247 0 0 1 .97461 1.57226 7.84548 7.84548 0 0 0 .71191 1.20117c.93555 1.2002 1.03223 2.27149.28711 3.18262a3.34766 3.34766 0 0 1-2.60058 1.30566zM155.82129 226.829a8.194 8.194 0 0 0-5.6582 2.31153 7.52909 7.52909 0 0 0-1.27051 10.07031 19.61313 19.61313 0 0 0 4.21 4.48047c.65918.52832 1.38379 1.0625 2.28223 1.68164a86.27081 86.27081 0 0 0 11.65918 6.373 7.60919 7.60919 0 0 0 1.78808.53809 1.29805 1.29805 0 0 0 1.2959-.54785c.04395-.08887.03809-.23145-.31738-.6875a9.475 9.475 0 0 1-.91016-1.50879 6.63226 6.63226 0 0 0-.72656-1.20313 23.85517 23.85517 0 0 1-2.53613-3.66113 25.24825 25.24825 0 0 1-3.13282-11.25781 6.67659 6.67659 0 0 0-6.67676-6.58887z"/><path d="M200.70245 212.95791c-5.71746-4.4997-11.91937-8.11163-19.10876-9.78681a29.36061 29.36061 0 0 0-9.78558-.6466 29.923 29.923 0 0 0-13.34082 5.10766c-5.98169 3.94294-10.81885 9.09919-15.24994 14.65375a59.72534 59.72534 0 0 0-9.64838 17.12573 86.55555 86.55555 0 0 0-2.579 10.353c.78754-.961.77356-2.18024.98205-3.30029a52.11069 52.11069 0 0 1 8.127-19.39881 78.17166 78.17166 0 0 1 11.85626-13.86725 43.92217 43.92217 0 0 1 12.1463-8.28668 26.30852 26.30852 0 0 1 13.51013-2.10742 38.37616 38.37616 0 0 1 15.84491 5.52368 65.14513 65.14513 0 0 1 17.26447 14.81739 62.61989 62.61989 0 0 1 10.01147 16.359c.13.32422.14685.80323.67389.83271-.47265-1.10028-.902-2.22162-1.42468-3.29767a68.032 68.032 0 0 0-19.27932-24.08139z"/><path d="M160.07825 80.89223a.64862.64862 0 0 0 .02881-.388 5.6971 5.6971 0 0 0-.0221.12214 60.68485 60.68485 0 0 0-3.51788 11.23022c-.071.38428-.14112.90338-.56494.92725-.50153.02826-.6001-.533-.71-.92322a36.10492 36.10492 0 0 1-1.18628-6.79028 47.37741 47.37741 0 0 1-.1889-7.389c-.58874 1.54333-1.14862 2.9552-1.65662 4.38678-.11413.32165-.18548.70257-.61389.79242l-.01145-.01254a39.90206 39.90206 0 0 0-1.54688 12.98218c.06147.98212.18848 1.96015.286 2.94025.51618.116.46235.61023.53754.96918a29.22284 29.22284 0 0 0 2.19336 6.31628 8.99778 8.99778 0 0 0 2.74762 3.59009 1.39637 1.39637 0 0 1 .71674 1.43292c-.59015 3.09772.14123 6.0611.91412 9.02087a54.3769 54.3769 0 0 0 2.46832 6.79371 17.40127 17.40127 0 0 1 .86389-6.27076 19.96438 19.96438 0 0 1 1.5835-3.82934 2.17183 2.17183 0 0 1 .63184-.84271c.36181-.24988.60473-.17157.65112.28106a8.352 8.352 0 0 1-.075 1.27271 55.33019 55.33019 0 0 0 2.54779 19.56927c.1737-.01806.34814-.03491.52246-.05206-.02466-1.9671-.01257-3.93323.13269-5.90692a61.85633 61.85633 0 0 1 1.09833-8.31946 14.82511 14.82511 0 0 1 1.63946-4.47858 5.31688 5.31688 0 0 1 1.97364-2.04284c.75921-.422 1.31085-.28669 1.65411.5028a41.98065 41.98065 0 0 1 3.61792 12.851 9.28543 9.28543 0 0 1-.1673 2.31457 1.095 1.095 0 0 0 .51776-.50134 30.513 30.513 0 0 0 5.53449-12.77576 23.18905 23.18905 0 0 0 .03052-5.62329c-.05182-.57855-.428-1.393.11975-1.67865.65728-.34265 1.07666.49 1.50836.91248a28.43608 28.43608 0 0 1 7.0097 10.29675c1.24878 3.32825 1.88538 6.75134.86658 10.10193a86.8054 86.8054 0 0 0 3.20441-8.70038 28.19806 28.19806 0 0 0 1.2525-8.80957c-.01959-.51062-.1886-1.23981.372-1.4447.6532-.23877 1.067.40411 1.42645.88684a9.87494 9.87494 0 0 1 1.52722 2.905 26.82168 26.82168 0 0 1 1.21686 6.34723c.01111.07849-.03882.16754.0257.245a.67473.67473 0 0 1-.00348-.295 37.52748 37.52748 0 0 0 1.69061-7.54541c.3031-3.288.17615-6.50745-1.56873-9.45026a1.63324 1.63324 0 0 1 .00373-1.8847c.45654-.69623.50366-1.63166 1.25805-2.15381.02106.0072.03949.01593.05915.02405.92755-3.79828.29925-7.50116-.69983-11.17737-.31433-1.15686-.675-2.30115-1.01447-3.451l-.00708-.017c-.41546.00934-.51648-.35577-.62658-.64606-.32581-.85919-.69568-1.70239-.95734-2.494a30.35658 30.35658 0 0 1-.87579 8.79241 7.59218 7.59218 0 0 1-2.26484 3.65131 3.58616 3.58616 0 0 1-1.16986.71661c-.921.31958-1.43127.10993-1.71991-.827a9.11036 9.11036 0 0 1-.1051-4.62506 12.618 12.618 0 0 1 1.50385-3.8454 8.16035 8.16035 0 0 0 .80969-1.6391 11.62692 11.62692 0 0 0-3.08008.54041c-.35412.10565-.70544.38476-1.10193.10717h-.00012a10.83648 10.83648 0 0 0-3.38306 2.35779c-.41766.64319-.83538 1.28632-1.35492 2.08618a45.66676 45.66676 0 0 0-4.5816-9.77313 27.39378 27.39378 0 0 1 .44263 4.22864 16.48647 16.48647 0 0 1-2.93732 8.177c-.43256.66657-.61621.24317-.82544-.17425a32.276 32.276 0 0 1-2.85-9.27979c-.08954-.53894-.17914-1.07782-.29621-1.78229a40.739 40.739 0 0 0-3.75659 10.7464c-.434-1.04443-.75147-1.83044-1.08588-2.60919a30.8886 30.8886 0 0 0-3.29-5.56763c-.20062-.28412-.48834-.52453-.52124-.90728v-.00007c-.87536-.79351-1.43945-1.89794-2.621-2.64294.91779 3.5882-.09735 6.76074-1.33508 10.06287a21.08165 21.08165 0 0 1-2.21393-5.51709c-.78442-1.153-.645-2.52167-.8244-3.80078a5.37966 5.37966 0 0 1 .14378-2.59676z" class="cls-1"/><path d="M165.44727 138.15517l-.2461-.78027a56.664 56.664 0 0 1-2.64258-18.61816 19.65391 19.65391 0 0 0-1.61132 8.043l.63671 6.73437-2.834-6.93652a49.04136 49.04136 0 0 1-2.23438-6.24512c-.73925-2.83594-1.57812-6.04883-.92871-9.46094.01563-.081.03321-.17285-.33007-.44238a9.895 9.895 0 0 1-3.0586-3.97217 29.88075 29.88075 0 0 1-2.26465-6.53223c-.01757-.08056-.03027-.168-.043-.25781l-.44042-.09912-.166-1.61767c-.07617-.6919-.15039-1.38379-.19434-2.07764a40.892 40.892 0 0 1 1.58008-13.30567l.4502-1.667.36133.36035c.33007-.91064.68066-1.82031 1.04492-2.7666l2.8623-7.49267-.47461 6.731a46.557 46.557 0 0 0 .1875 7.23536 36.52613 36.52613 0 0 0 .792 5.19384 67.8058 67.8058 0 0 1 3.22559-9.832l.82129-4.26221 1.13184 4.15479a1.63774 1.63774 0 0 1-.05372.99219 4.4713 4.4713 0 0 0-.09375 2.1167c.04883.35009.07715.707.10352 1.06494a4.59451 4.59451 0 0 0 .55762 2.312l.09961.14648.043.17139a20.92379 20.92379 0 0 0 1.08105 3.2207 12.69086 12.69086 0 0 0 .5293-7.27392l-.623-2.4336 2.125 1.33985a8.10834 8.10834 0 0 1 1.93652 1.83935 8.89612 8.89612 0 0 0 .82325.9087l.29.26367.03418.39062.001-.00049a1.02158 1.02158 0 0 1 .13867.15528c.07032.08642.13965.17334.20313.26318a32.635 32.635 0 0 1 3.30273 5.5459 39.88711 39.88711 0 0 1 3.126-8.00244l1.38574-2.65723.7832 4.73731a31.91544 31.91544 0 0 0 2.37989 8.21045 14.66 14.66 0 0 0 2.24707-6.82178 12.24991 12.24991 0 0 0-.23047-2.57715c-.0791-.49805-.1582-.99609-.208-1.499l-.39844-3.99659 2.22559 3.34327a40.961 40.961 0 0 1 3.99121 8.11914l.43652-.61475a11.75144 11.75144 0 0 1 3.70215-2.55518l.49512-.18945.291.20361.04394-.019c.11523-.04687.22949-.09228.34375-.12646a12.75066 12.75066 0 0 1 3.33789-.58155l1.44043-.041-.46582 1.36377a8.92883 8.92883 0 0 1-.87305 1.78711 11.68987 11.68987 0 0 0-1.4082 3.582 8.04631 8.04631 0 0 0 .082 4.123 1.18688 1.18688 0 0 0 .11328.27294c.02539-.01562.13379-.03076.32422-.09668a2.60378 2.60378 0 0 0 .84277-.52832 6.61578 6.61578 0 0 0 1.9629-3.187 27.99355 27.99355 0 0 0 .8291-8.03711l.0459-6.543 1.90625 5.76563c.16113.48584.36425.99121.57128 1.5083.124.30957.249.62305.36915.939l.41015-.00928.582 1.85888c.23633.78565.47364 1.57129.68848 2.3628.92676 3.40967 1.73535 7.46289.706 11.67724l-.27929 1.14356-.4795-.20362c-.0664.13282-.13085.29395-.20605.48633a5.38589 5.38589 0 0 1-.48828 1.01514.64742.64742 0 0 0 .02051.82471c2.00586 3.38427 1.9873 6.981 1.70508 10.05322a38.16964 38.16964 0 0 1-1.67969 7.58008l1.957 5.27148-3.72844-4.46202a1.15463 1.15463 0 0 1-.25781-.88281 26.22081 26.22081 0 0 0-1.16894-6.0459 8.84174 8.84174 0 0 0-1.37207-2.60547 29.05381 29.05381 0 0 1-1.292 9.03515 73.97472 73.97472 0 0 1-2.77343 7.65137l-.46485 1.15039-1.88476-.66406c.82617-2.71582.55664-5.72168-.84668-9.46a27.24044 27.24044 0 0 0-6.69532-9.85742 23.77446 23.77446 0 0 1-.04785 5.75195 31.12593 31.12593 0 0 1-5.70117 13.19434 2.02135 2.02135 0 0 1-.97363.86035l-1.62793.64062.27441-1.72851a8.46343 8.46343 0 0 0 .15918-2.06446 40.75891 40.75891 0 0 0-3.53906-12.54589 1.043 1.043 0 0 0-.05859-.11622 1.23086 1.23086 0 0 0-.19239.08985 4.32737 4.32737 0 0 0-1.59765 1.6748 13.64929 13.64929 0 0 0-1.52344 4.17969 60.64568 60.64568 0 0 0-1.0791 8.18555c-.15332 2.08886-.15235 4.11426-.12989 5.82031l.01172.916zm-2.06641-23.34472a1.24657 1.24657 0 0 1 .52344.11426 1.38418 1.38418 0 0 1 .77246 1.206 4.71812 4.71812 0 0 1-.03516 1.041c-.01367.12793-.0293.25488-.03515.38378a54.08022 54.08022 0 0 0 1.1621 14.16309c.0127-.22559.02833-.45117.04493-.67676a62.537 62.537 0 0 1 1.11621-8.4541 15.82512 15.82512 0 0 1 1.75586-4.77734 6.2546 6.2546 0 0 1 2.35058-2.41016 2.2074 2.2074 0 0 1 1.82129-.2666 2.102 2.102 0 0 1 1.23535 1.24316 43.76968 43.76968 0 0 1 3.61524 12.38379 27.26023 27.26023 0 0 0 3.98242-10.249 22.30636 22.30636 0 0 0 .02246-5.38086 3.28954 3.28954 0 0 0-.06348-.35449c-.10937-.51953-.36425-1.73535.7168-2.29981a1.96121 1.96121 0 0 1 2.44531.82813 3.35838 3.35838 0 0 0 .22461.25586 29.284 29.284 0 0 1 7.24707 10.66015 23.56587 23.56587 0 0 1 1.22461 4.416c.34473-.96484.667-1.94336.94824-2.93555a27.10391 27.10391 0 0 0 1.21485-8.499l-.01563-.21875a1.91531 1.91531 0 0 1 1.043-2.20313c1.31348-.48046 2.14844.65137 2.50293 1.13575l.06934.09277a10.78514 10.78514 0 0 1 1.67773 3.19922q.29736.92579.52735 1.86914a25.08165 25.08165 0 0 0 .4541-2.90527c.2539-2.75293.28125-5.957-1.43262-8.84913a2.6215 2.6215 0 0 1 .02734-2.94287 3.67525 3.67525 0 0 0 .29688-.646 3.80277 3.80277 0 0 1 .97949-1.58692c.77149-3.63134.041-7.21631-.78711-10.26367-.21094-.77392-.44238-1.542-.67383-2.31006l-.07226-.24072a20.93038 20.93038 0 0 1-.81446 4.76514 8.55017 8.55017 0 0 1-2.56542 4.11523 4.53463 4.53463 0 0 1-1.49708.90527 2.35833 2.35833 0 0 1-1.90234-.00683 2.27136 2.27136 0 0 1-1.10156-1.46973 10.12542 10.12542 0 0 1-.12793-5.12793 13.64835 13.64835 0 0 1 1.56933-4.05761c-.33593.07275-.68847.16552-1.07128.27978a1.48534 1.48534 0 0 0-.15137.05859 2.02276 2.02276 0 0 1-1.22559.1709 10.71788 10.71788 0 0 0-2.625 1.92774l-2.374 3.65576-.68848-1.87549c-.666-1.812-1.376-3.67969-2.22461-5.49805a17.47529 17.47529 0 0 1-3.07422 8.33008 1.45556 1.45556 0 0 1-1.30273.80176 1.535 1.535 0 0 1-1.2334-1.02686 31.97783 31.97783 0 0 1-2.71972-8.25634 41.69987 41.69987 0 0 0-2.333 7.65234l-.66309 3.1626-1.62207-3.91162c-.25293-.61328-.47265-1.144-.69824-1.67139a30.20294 30.20294 0 0 0-3.18848-5.38477c-.03711-.05322-.0791-.103-.12011-.15332a2.59984 2.59984 0 0 1-.49024-.814c-.126-.127-.24609-.25732-.36133-.38867a21.57426 21.57426 0 0 1-1.752 7.64306l-.74316 1.981-1.0586-1.83154a21.81531 21.81531 0 0 1-2.27734-5.61182 4.95542 4.95542 0 0 1-.64649-1.77148 44.78765 44.78765 0 0 0-1.63281 6.11377c-.084.46045-.30469 1.67724-1.49219 1.74463-1.24707.08544-1.59375-1.14844-1.70117-1.54883l-.02734-.10108a36.7583 36.7583 0 0 1-1.2207-6.979c-.0586-.6958-.11426-1.40576-.16016-2.12793a1.69229 1.69229 0 0 1-.4707.5415 38.45512 38.45512 0 0 0-1.39258 12.2002c.042.66308.11426 1.32471.18554 1.98584l.043.40381a1.97215 1.97215 0 0 1 .55469 1.23193c.00586.04932.01172.09766.02148.14307a27.89407 27.89407 0 0 0 2.12208 6.10254 7.98384 7.98384 0 0 0 2.43652 3.20849 2.35456 2.35456 0 0 1 1.10254 2.42334c-.56543 2.96875.21289 5.9502.89941 8.58008.23926.916.53028 1.81152.84863 2.69141.16114-.76172.35645-1.49707.55372-2.18946a20.91192 20.91192 0 0 1 1.66113-4.02148 3.07194 3.07194 0 0 1 .95019-1.2002 1.6006 1.6006 0 0 1 .91598-.31634z"/><path d="M166.71582 139.28127q-.02325-1.13058-.03839-2.25964c-.17432.01715-.34876.034-.52246.05206.09088.28833.17084.57819.26636.86591a4.694 4.694 0 0 1 .29449 1.34167zm-15.0694-56.42071c.42841-.08985.49976-.47077.61389-.79242.508-1.43158 1.06788-2.84345 1.65662-4.38678a47.37741 47.37741 0 0 0 .1889 7.389 36.10492 36.10492 0 0 0 1.18628 6.79028c.10993.39026.2085.95148.71.92322.42382-.02387.494-.543.56494-.92725a60.68485 60.68485 0 0 1 3.51795-11.23024 5.5754 5.5754 0 0 1 .0221-.12214.468.468 0 0 0-.19947-.2702l.00031-.00018-.00025-.00006a71.25116 71.25116 0 0 0-3.94366 12.4458c-1.69373-5.16522-1.86249-10.48517-2.03156-15.85907q-1.14533 3.00074-2.29058 6.00146l-.0069.026z"/><path d="M163.60718 117.50442a8.352 8.352 0 0 0 .075-1.27271c-.04639-.45263-.28931-.53094-.65112-.28106a2.17183 2.17183 0 0 0-.63184.84271 19.96438 19.96438 0 0 0-1.5835 3.82934 17.40127 17.40127 0 0 0-.86389 6.27076 54.3769 54.3769 0 0 1-2.46832-6.79371c-.77289-2.95977-1.50427-5.92315-.91412-9.02087a1.39637 1.39637 0 0 0-.71674-1.43292 8.99778 8.99778 0 0 1-2.74762-3.59009 29.22284 29.22284 0 0 1-2.19336-6.31628c-.07519-.359-.02136-.85321-.53754-.96918l.00177.017-.00006.00018.00013.00012a31.92268 31.92268 0 0 0 2.88458 8.26673 7.19468 7.19468 0 0 0 2.48083 2.845 1.11778 1.11778 0 0 1 .51148 1.429 9.33417 9.33417 0 0 0-.12421 3.80085 39.04477 39.04477 0 0 0 2.52429 9.38842c.46839 1.17066.98407 2.32233 1.47815 3.48267a20.30177 20.30177 0 0 1 3.21112-12.02521 54.0213 54.0213 0 0 0 2.56482 21.12323c.08234-.00879.16553-.01617.248-.02472a55.33019 55.33019 0 0 1-2.54785-19.56926z" class="cls-1"/><path d="M165.207 138.17959l-.251-.77149a55.76084 55.76084 0 0 1-2.77343-16.76562 18.63884 18.63884 0 0 0-1.05274 7.30664l.08887 1.71875.36523 3.86621-.18847-.46094.02734.5166-2.67871-6.28222c-.34766-.80274-.69531-1.60645-1.01953-2.41895a40.22719 40.22719 0 0 1-2.58691-9.62793 10.40832 10.40832 0 0 1 .15332-4.207.7299.7299 0 0 0 .03808-.2168c-.00586-.001-.042-.04-.13086-.09765a8.13814 8.13814 0 0 1-2.82715-3.22754 33.09955 33.09955 0 0 1-2.97461-8.52393l-.01757-.12207-.11817-1.3623 1.333.2915a1.69027 1.69027 0 0 1 1.27539 1.59424c.00586.04932.01172.09766.02148.14307a27.89407 27.89407 0 0 0 2.12208 6.10254 7.98384 7.98384 0 0 0 2.43652 3.20849 2.35456 2.35456 0 0 1 1.10254 2.42334c-.56543 2.96875.21289 5.9502.89941 8.58008.23926.916.53028 1.81152.84863 2.69141.16114-.76172.35645-1.49707.55372-2.18946a20.91192 20.91192 0 0 1 1.66113-4.02148 3.07194 3.07194 0 0 1 .95019-1.2002 2.04246 2.04246 0 0 1 .34473-.19336l1.84961-2.99316-.26465 3.3916a1.61512 1.61512 0 0 1 .28223.79883 4.71812 4.71812 0 0 1-.03516 1.041c-.01367.12793-.0293.25488-.03515.38378a54.561 54.561 0 0 0 2.50293 19.21778l.37207 1.18066z"/><path d="M202.61877 102.77456c-.75439.52215-.80151 1.45758-1.25805 2.15381a1.63324 1.63324 0 0 0-.00373 1.8847c1.74488 2.94281 1.87183 6.16229 1.56873 9.45026a37.52748 37.52748 0 0 1-1.69061 7.54541.67473.67473 0 0 0 .00348.295c-.06452-.07745-.01459-.1665-.0257-.245a26.82168 26.82168 0 0 0-1.21686-6.34723 9.87494 9.87494 0 0 0-1.52722-2.905c-.35943-.48273-.77325-1.12561-1.42645-.88684-.56061.20489-.3916.93408-.372 1.4447a28.19806 28.19806 0 0 1-1.2525 8.80957 86.8054 86.8054 0 0 1-3.20441 8.70038c1.0188-3.35059.3822-6.77368-.86658-10.10193a28.43608 28.43608 0 0 0-7.0097-10.29675c-.4317-.42249-.85108-1.25513-1.50836-.91248-.54779.28565-.17157 1.1001-.11975 1.67865a23.18905 23.18905 0 0 1-.03052 5.62329 30.513 30.513 0 0 1-5.53449 12.77576 1.095 1.095 0 0 1-.51776.50134 9.28543 9.28543 0 0 0 .1673-2.31457 41.98065 41.98065 0 0 0-3.61792-12.851c-.34326-.78949-.8949-.9248-1.65411-.5028a5.31688 5.31688 0 0 0-1.97364 2.04284 14.82511 14.82511 0 0 0-1.63946 4.47858 61.85633 61.85633 0 0 0-1.09833 8.31946c-.14526 1.97369-.15735 3.93982-.13269 5.90692.07538-.00745.15051-.01532.226-.02258a80.96451 80.96451 0 0 1 .46485-8.98682 31.43161 31.43161 0 0 1 1.82861-8.34827 6.40033 6.40033 0 0 1 2.33655-3.08868c.678-.44293 1.132-.49658 1.43341.409.29016.87146.72125 1.69549 1.02215 2.56408 1.41034 4.07117 2.93268 8.125 2.30848 12.57324a.55169.55169 0 0 0 .23706.6651c4.677-6.36975 7.78985-13.16259 6.24945-21.37078.18872.04065.27356.033.31573.07171a30.16261 30.16261 0 0 1 8.078 11.43653 18.65212 18.65212 0 0 1 1.233 5.98931 30.59544 30.59544 0 0 1-.49445 4.59675c2.97516-6.21961 5.48383-12.5644 5.04016-19.71119a2.24764 2.24764 0 0 1 1.33722 1.06788c2.02258 2.75506 2.21771 6.04309 2.71393 9.244l.41693.0102v.00006h.00006a37.005 37.005 0 0 0 1.77429-7.69184c.35712-3.51171.19916-6.90271-1.71368-10.00116a.95063.95063 0 0 1-.04767-1.06817c.43262-.84308.8288-1.7049 1.23987-2.559l.00055-.00238c-.01968-.00813-.03811-.01686-.05917-.02406z"/><path d="M166.71582 139.28127a4.694 4.694 0 0 0-.29449-1.34167c-.09552-.28772-.17548-.57758-.26636-.86591-.08246.00855-.16565.01593-.248.02472.30017.92291.62079 1.843.96869 2.75916.01111-.95319.0177-1.90607.02777-2.85852-.0755.00726-.15063.01513-.226.02258q.01419 1.12937.03839 2.25964zm25.75476-51.5039a11.62692 11.62692 0 0 1 3.08008-.54041 8.16035 8.16035 0 0 1-.80969 1.6391 12.618 12.618 0 0 0-1.50385 3.8454 9.11036 9.11036 0 0 0 .1051 4.62506c.28864.93689.79889 1.14654 1.71991.827a3.58616 3.58616 0 0 0 1.16986-.71661 7.59218 7.59218 0 0 0 2.26484-3.65131 30.35658 30.35658 0 0 0 .87579-8.79241c.26166.79162.63153 1.63482.95734 2.494.1101.29029.21112.6554.62658.64606q-.85473-2.05719-1.70947-4.11432c-.18713 1.20862-.11768 2.37274-.20239 3.52558a23.54955 23.54955 0 0 1-.82184 6.16162 6.49022 6.49022 0 0 1-3.29 4.205c-.74591.34363-1.15.10883-1.33972-.623a9.83318 9.83318 0 0 1-.11725-4.30737 15.17909 15.17909 0 0 1 2.24329-5.23005c.1538-.24609.33569-.55542.20422-.78668-.14911-.26221-.52411-.14374-.78412-.09827a14.98718 14.98718 0 0 0-3.77057.99878c.39645.27759.74777-.00154 1.10189-.10717zm102.8479 224.58819c-.976-.65576-2.08044-1.04132-3.17865-1.64337.12207-.03027.243-.06555.36621-.09015 3.84442-.76831 5.11212-2.20355 5.3216-6.117q.25589-4.77951.062-9.56519a7.97084 7.97084 0 0 0-4.46033-7.09674 16.13912 16.13912 0 0 0-7.92181-1.674q-18.786-.02508-37.572-.00684c-1.512.00007-1.62433.11029-1.62232 1.64185.00867 6.66962.03162 13.33923.03021 20.00891q-.003 15.007-.03051 30.01392c-.00165 1.68573.05493 1.74084 1.73986 1.7395q19.47731-.0152 38.95466-.02808a21.94825 21.94825 0 0 0 4.43719-.4212c4.03876-.832 7.60919-3.291 7.7572-8.4942.113-3.96857.07678-7.94385.00507-11.91437-.0511-2.83094-1.62196-4.83052-3.88838-6.35304zm-40.48309-19.67523c9.89868.03589 19.79742.034 29.69617.053a8.31279 8.31279 0 0 1 3.20733.67193 4.13 4.13 0 0 1 2.70593 3.96039c.05378 2.01935.08735 4.03784.01532 6.0597-.12609 3.5401-1.8139 5.22692-5.36865 5.23437-5.03772.0105-10.0755.00269-15.11322.00269v.06665c-5.14441 0-10.28894-.01032-15.43329.01141-.75067.00317-.975-.27594-.97284-1.00415q.02015-6.865-.03131-13.73c-.00714-.93632.30188-1.32959 1.29456-1.32599zm36.81885 36.04352a3.59064 3.59064 0 0 1-3.01044 3.81451 23.87091 23.87091 0 0 1-6.33545.50464c-3.9704.05048-7.94183.01453-11.9129.01453q-7.65839 0-15.31678-.00171c-1.40637-.00122-1.52478-.11975-1.52581-1.50733q-.00569-7.49788.00061-14.99578c.00128-1.27143.15374-1.43555 1.39392-1.43262q15.527.03643 31.05389.09729a9.1014 9.1014 0 0 1 1.99372.26819c2.7041.627 3.69555 1.8739 3.69628 4.62567.0008 2.87091-.00048 5.74206-.03704 8.61261zM59.85413 296.56911a11.82588 11.82588 0 0 0-10.303-10.66888 104.40332 104.40332 0 0 0-10.95-.11847c-7.16162-.00317-14.32367-.05731-21.48725.1098a11.85148 11.85148 0 0 0-11.98449 12.0091c-.01008 4.64721-.0019 9.29455-.0019 13.94177q0 7.5575.00135 15.11493a11.8854 11.8854 0 0 0 12.13946 12.2204c5.07318.03546 10.14685.007 15.22028.007v-.03357c3.72467 0 7.44977.03466 11.17383-.01288a35.75742 35.75742 0 0 0 6.78894-.308 11.77647 11.77647 0 0 0 9.51147-11.93109q.01841-10.00562-.005-20.01123c-.01367-3.4396.13758-6.88168-.10369-10.31888zm-12.591 36.0196c-3.89911.25567-7.79834.10449-11.69708.1333-4.753.03509-9.50641.00964-14.25958.00738a24.396 24.396 0 0 1-3.38153-.04333 6.0921 6.0921 0 0 1-5.547-6.22705c-.14276-4.7829-.18213-9.569-.25629-14.35382-.067-4.3241.02594-8.657-.22717-12.96985a6.427 6.427 0 0 1 6.64526-6.81818c4.64637-.02081 9.29291-.00476 13.93933-.00476l.00007-.08337q7.02 0 14.03991-.0008a6.20634 6.20634 0 0 1 6.10724 5.43555 72.1735 72.1735 0 0 1 .2107 7.86237c.12377 6.9118.11907 13.82666.31707 20.736a6.34015 6.34015 0 0 1-5.89094 6.32656zm306.2777-13.24012a11.582 11.582 0 0 0-10.28735-10.774 71.9144 71.9144 0 0 0-8.39984-.09931c-6.70343.0019-13.40686.02527-20.11017.00086a6.36822 6.36822 0 0 1-5.06061-2.2926 5.651 5.651 0 0 1-1.16577-2.35444 13.85563 13.85563 0 0 1-.16949-5.80334c.59643-3.35364 3.01373-5.30725 6.64941-5.3136q16.2291-.0282 32.45819-.00543c.46082.00006.92175.01239 1.38232.02777.8169.02722 1.147-.38989 1.13355-1.1767-.02313-1.34741-.073-2.69726-.01617-4.04205.04333-1.02521-.34833-1.36249-1.36078-1.35889-12.05988.0423-24.11994.028-36.17969.08374a11.385 11.385 0 0 0-11.11084 9.45764 42.51868 42.51868 0 0 0-.07929 9.54987 10.347 10.347 0 0 0 4.16938 7.361 13.05879 13.05879 0 0 0 8.61419 2.74866c8.69-.05249 17.38044-.02252 26.07074-.01569a5.99024 5.99024 0 0 1 6.202 5.26795 25.98584 25.98584 0 0 1 .03809 6.898 5.93993 5.93993 0 0 1-5.19672 5.39941 10.40246 10.40246 0 0 1-1.80206.09888q-17.55936.008-35.11872.00647c-1.43872.00055-1.33868-.22241-1.34485 1.38715q-.007 1.86236.00013 3.72473c.00543 1.37665.0769 1.4508 1.441 1.45129q9.47141.00339 18.94281.001v-.03327c6.2785 0 12.55706.01557 18.83544-.0047a11.7016 11.7016 0 0 0 11.35749-9.89025 48.23707 48.23707 0 0 0 .10761-10.30015zm-111.38012-33.18676c-12.52216.01507-25.04462-.043-37.56635.03112a11.68534 11.68534 0 0 0-12.05463 11.94715c-.12225 9.82391-.02691 19.65045-.025 29.47589a11.99624 11.99624 0 0 0 11.97327 11.96045q9.20489.00375 18.40979.00055 9.52413 0 19.04821-.00073c1.47138-.00037 1.5376-.0705 1.5409-1.57911q.004-1.80908 0-3.61828c-.00318-1.39984-.00507-1.40149-1.428-1.40155q-17.66583-.00074-35.33161-.0008c-4.42645-.00048-6.96466-2.5111-6.97229-6.8991-.00549-3.19184.034-6.38422-.02319-9.575-.01648-.91571.18933-1.19018 1.15613-1.18689 11.13855.03809 22.27728.02436 33.416.02393.31922 0 .63855 0 .95764-.00885.54346-.015.86609-.25623.86469-.84168q-.00587-2.50084-.001-5.00177c.00073-.50793-.19391-.80719-.752-.7918-.38928.01074-.7796-.0221-1.1695-.02173q-16.44122.01464-32.8825.03149c-1.46247.00122-1.60486-.14142-1.60016-1.566q.013-3.99022.03375-7.98041a6.04783 6.04783 0 0 1 5.817-6.25232c1.27075-.09118 2.55212-.04388 3.82861-.04412q16.28238-.00386 32.5647-.00208c1.498-.00012 1.579-.03668 1.50659-1.56708a34.07421 34.07421 0 0 1 .02-3.82061c.06287-.97211-.38782-1.31183-1.33105-1.31067zm-138.62018 21.64373c-1.33533-4.4107-5.93665-7.57452-11.07672-7.57971q-13.51675-.01363-27.03363-.00213c-1.50751.00018-1.50824.0028-1.5083 1.56738q-.00038 12.7718-.00013 25.54364h-.02148q0 13.09076-.00751 26.18146c-.00122.87311.3858 1.19867 1.2273 1.18457 1.596-.02667 3.19488-.05622 4.78845.01233.818.03521.9978-.22852.9909-1.01081-.03826-4.32788-.00262-8.65637-.03118-12.98437-.0058-.87879.31945-1.18878 1.1867-1.184q8.72553.04815 17.45142.03247a39.52665 39.52665 0 0 0 5.205-.18555 10.69006 10.69006 0 0 0 9.22571-10.1311c.04322-6.2757.011-12.55194.00977-18.828a8.99085 8.99085 0 0 0-.4063-2.61618zm-6.62853 20.2082a5.44563 5.44563 0 0 1-5.38715 5.347c-6.4898.02643-12.97986-.0022-19.46966.02057-.87342.00305-1.19232-.30884-1.1864-1.18323.02783-4.11413.01239-8.22857.01232-12.34289q0-6.01191.00141-12.02375c.00116-1.26556.153-1.4295 1.39416-1.43072 5.92322-.006 11.8465-.02155 17.7696.006 2.64965.01233 4.98858.70618 6.30688 3.30554a4.88077 4.88077 0 0 1 .56995 2.24134c-.00435 5.35338.02001 10.70699-.01111 16.06014z"/><path fill="none" d="M133.66949 306.5798q-7.28557-.01539-14.57116.00164a5.72029 5.72029 0 0 0-5.81378 5.78217c-.01618 1.20538.06823 2.41663-.02393 3.61517-.08325 1.08289.39923 1.34772 1.35828 1.34186 3.89929-.02368 7.79889-.00983 11.69836-.00983l.00006-.05536c1.34741 0 2.695-.00622 4.0423.00129q3.82809.02142 7.65619.05548c1.31146.01 1.45093-.12665 1.45263-1.44525.00159-1.20563.02747-2.412-.00549-3.61664a5.64534 5.64534 0 0 0-5.79346-5.67053z"/><path d="M146.40631 310.83785a10.49362 10.49362 0 0 0-9.891-10.40539q-9.884-.41317-19.77387-.04a10.68242 10.68242 0 0 0-10.39092 10.89554q-.02517 9.73764.00092 19.4754a9.65374 9.65374 0 0 0 .43781 3.14276 8.81331 8.81331 0 0 0 8.35846 5.634c2.62445.02881 5.24926.03009 7.8739.03223 6.24347.00513 12.487-.00385 18.7304.01331.81049.00219 1.16889-.28687 1.13349-1.12555-.04486-1.06171-.03308-2.127-.01105-3.19007.03369-1.62634-.01-1.68738-1.62311-1.68756q-12.078-.00147-24.15594-.00171c-2.62506-.0011-3.81012-1.20538-3.81336-3.85528-.00183-1.56086.00922-3.12183-.00555-4.68262-.01318-1.38684.09949-1.52191 1.4892-1.52283q7.50283-.00493 15.00567-.00134 7.50275 0 15.00562-.001c1.53387-.00085 1.6889-.1571 1.6828-1.72216-.01422-3.65258-.04645-7.30514-.05347-10.95773zm-6.93787 5.02912c-.0017 1.3186-.14117 1.4552-1.45263 1.44525q-3.82809-.02921-7.65619-.05548c-1.34735-.00751-2.69489-.00129-4.0423-.00129l-.00006.05536c-3.89947 0-7.79907-.01385-11.69836.00983-.959.00586-1.44153-.259-1.35828-1.34186.09216-1.19854.00775-2.40979.02393-3.61517a5.72029 5.72029 0 0 1 5.81378-5.78217q7.28548-.0249 14.57116-.00164a5.64534 5.64534 0 0 1 5.79346 5.67053c.03296 1.20467.00705 2.41101.00549 3.61667zm49.5058-8.58405a11.532 11.532 0 0 0-10.82446-7.05627c-3.90259-.01642-7.80554-.0307-11.70782.0061a78.72718 78.72718 0 0 0-8.07892.158c-5.02161.56354-9.42865 4.976-9.4715 9.78979-.08392 9.43628-.03772 18.87372-.06488 28.31055-.00244.849.35333 1.11768 1.15735 1.09461 1.453-.04181 2.90814-.03681 4.36188-.01642 1.35656.019 1.48181-.07447 1.4823-1.40235q.00311-8.51486.00219-17.02966c.00238-3.0509-.05383-6.10413.04792-9.15192a5.30492 5.30492 0 0 1 5.111-5.38739 153.90287 153.90287 0 0 1 16.26385-.01251 5.24586 5.24586 0 0 1 5.04621 4.2547 24.05515 24.05515 0 0 1 .24231 5.509c.03949 7.23645-.01636 14.47333-.03138 21.71-.0028 1.34393.19385 1.52966 1.41694 1.51727q2.0744-.02088 4.14917-.00055c1.2564.0141 1.42212-.12555 1.423-1.38342q.00522-7.07795.0014-14.156c0-3.76068.03235-7.52185-.01385-11.282-.02247-1.83121.16805-3.68645-.51271-5.47153zM167.55505 85.95266a29.52206 29.52206 0 0 1 4.19184 7.7489 40.35782 40.35782 0 0 1 3.07531-9.16913.351.351 0 0 0 .02137-.05316c.00451-.00665.01178-.01782.02618-.04175.178-.29455.28381-.76355.67615-.72992.42529.0365.40545.52936.45984.85413a43.83721 43.83721 0 0 0 1.37927 6.11145 22.15051 22.15051 0 0 0 1.41132 3.55084c.29962.57434.57849.549.88977.02942 1.90893-3.18628 3.06646-6.53516 2.29028-10.32318-.09216-.44983-.44647-.92847-.02594-1.4.034.00207.06537.00683.09705.01135l-.02478-.227h.00012l-.00012-.00006a1.90462 1.90462 0 0 0-.97229-.76923 12.73667 12.73667 0 0 0-3.70191-.90094v.00031q-.93585-.00091-1.87176-.00159v-.0003a11.84326 11.84326 0 0 0-8.54786 4.74407v.00013a2.14413 2.14413 0 0 1 .62616.56566z"/><path d="M181.95044 82.5303c-.42053.47149-.06622.95013.02594 1.4.77618 3.788-.38135 7.1369-2.29028 10.32318-.31128.51959-.59015.54492-.88977-.02942a22.15051 22.15051 0 0 1-1.41132-3.55084 43.83721 43.83721 0 0 1-1.37927-6.11145c-.05439-.32477-.03455-.81763-.45984-.85413-.39234-.03363-.49811.43537-.67615.72992-.0144.02393-.02167.0351-.02618.04175a.351.351 0 0 1-.02137.05316 40.35782 40.35782 0 0 0-3.07531 9.16913 29.52206 29.52206 0 0 0-4.19184-7.7489 2.14413 2.14413 0 0 0-.62616-.56567c.0329.38275.32062.62316.52124.90728a30.8886 30.8886 0 0 1 3.29 5.56763c.33441.77875.65192 1.56476 1.08588 2.60919a40.739 40.739 0 0 1 3.75659-10.7464c.11707.70447.20667 1.24335.29621 1.78229a32.276 32.276 0 0 0 2.85 9.27979c.20923.41742.39288.84082.82544.17425a16.48647 16.48647 0 0 0 2.93732-8.177 27.39378 27.39378 0 0 0-.44263-4.22864l-.00146-.01373c-.03167-.00456-.06304-.00932-.09704-.01139zm-4.63294-15.14222l.00141-.00055c.45886-.17492.92078-.34234 1.3761-.526a5.437 5.437 0 1 0-7.53443-5.26159c-.07592 2.77936 1.26355 4.53051 4.3277 5.65783a4.15586 4.15586 0 0 1 1.82922.13031zm.03101 13.25635l-.02948-13.2558-.00153-.00055a1.719 1.719 0 0 1-1.82922-.13031l-.01153 13.38508a1.7162 1.7162 0 0 1 1.87176.00158z"/><path d="M177.34851 80.64474v-.00031a1.7162 1.7162 0 0 0-1.87176-.00158v.0003q.93585.00101 1.87176.00159zm-.03101-13.25666a4.15586 4.15586 0 0 0-1.82922-.13031 1.719 1.719 0 0 0 1.82922.13031zm4.7439 15.15522c.66846.10315.8103.73925 1.05219 1.21447a46.96861 46.96861 0 0 1 3.49444 7.88715c.61395-.44244.76258-1.17267 1.37744-1.40259-.21258-.18139-.17785-.44885-.23181-.683a11.54589 11.54589 0 0 0-3.7138-6.129c-.57477-.51141-1.1225-1.14893-2.017-1.11566a.16226.16226 0 0 1 .06628.15509.15192.15192 0 0 1-.02774.07354z"/><path d="M186.608 91.64492a46.96861 46.96861 0 0 0-3.49444-7.88715c-.24189-.47522-.38373-1.11132-1.05219-1.21447-.00409.00451-.00793.01208-.01245.01208a45.66676 45.66676 0 0 1 4.5816 9.77313c.51954-.79986.93726-1.443 1.35492-2.08618-.61483.22992-.76344.96015-1.37744 1.40259zm-4.56051-9.10327l.01391.00165a.15192.15192 0 0 0 .02771-.07355.16226.16226 0 0 0-.06628-.15509h-.00012z"/><path d="M182.04749 82.54165l.00146.01373c.00452 0 .00836-.00757.01245-.01208zm-21.83985-1.34833a27.43568 27.43568 0 0 0 .55121 6.09644 63.51534 63.51534 0 0 0-.43646-7.244l-.00006.00006a.67177.67177 0 0 0-.179.30829c.2451.2158.06779.57969.06431.83921z"/><path d="M160.14331 80.35409a.67177.67177 0 0 1 .179-.30829q-.20719.09393-.41443.18805a.60951.60951 0 0 1 .23543.12024zm0 0c-.01465.049-.02637.09918-.03625.15014a.64862.64862 0 0 1-.02881.388 5.37966 5.37966 0 0 0-.1438 2.59675c.17938 1.27911.04 2.64782.8244 3.80078a27.43568 27.43568 0 0 1-.55121-6.09644c.00348-.25952.18079-.62341-.06433-.83923z"/><path d="M160.10706 80.50423c.00988-.051.0216-.10113.03625-.15014a.60951.60951 0 0 0-.23541-.12024l-.00031.00018a.468.468 0 0 1 .19947.2702zm-9.79645 18.25287a28.30837 28.30837 0 0 0-.895 3.69733 38.31255 38.31255 0 0 1-3.89893 10.76092c-.97717 1.69129-1.81042 1.78779-3.30975.54511a40.10882 40.10882 0 0 1-6.27-6.6319 140.95518 140.95518 0 0 1-16.29754-27.85174 129.92166 129.92166 0 0 1-8.45313-25.83936 76.7015 76.7015 0 0 1-1.83893-13.039 28.43061 28.43061 0 0 1 1.81574-10.94171c2.33032-6.42633 6.93658-10.06464 13.55127-11.16492a12.32672 12.32672 0 0 1 9.94464 2.372 26.92525 26.92525 0 0 1 7.53985 9.49225 74.06741 74.06741 0 0 1 6.62049 20.0293 160.13154 160.13154 0 0 1 2.33789 18.97821c.11786 1.84192.03277 3.68658.22253 5.51922a31.02385 31.02385 0 0 1 .00379 6.46985c-.06012.5708-.236 1.18408.24047 1.68335l.01777-.014c.05523-2.86114.14294-5.71472.03277-8.585-.186-4.84674-.54126-9.66876-1.10852-14.48328a107.82041 107.82041 0 0 0-3.031-16.43634c-1.80677-6.47229-4.11152-12.76727-8.11921-18.23407-3.796-5.178-8.6557-8.39343-15.47436-6.97161-4.89447 1.02056-8.924 3.43737-11.46356 7.8623a26.6335 26.6335 0 0 0-3.41187 12.77948 47.25844 47.25844 0 0 0 .56732 7.39209 113.912 113.912 0 0 0 4.60913 19.78058 144.06542 144.06542 0 0 0 16.21888 33.9173c3.28027 5.11139 6.7962 10.02887 11.42645 14.04644 1.76007 1.52716 2.76629 1.45337 3.88067-.53039a42.227 42.227 0 0 0 4.60724-14.5719l-.01635-.0202c-.01622-.00347-.0313-.00768-.04875-.01031z"/><path d="M151.004 84.11184a39.18151 39.18151 0 0 0-1.17835 12.47589 3.34639 3.34639 0 0 0 .53382 2.17963l.01464.00305c-.09753-.9801-.22454-1.95813-.286-2.94025A39.90206 39.90206 0 0 1 151.635 82.848l-.01087-.012c-.44847.3055-.49313.8149-.62013 1.27584zm-.62992 14.65857l-.01464-.00305.01635.0202.00006-.00018z"/><path d="M151.635 82.848l.0069-.026-.01777.014zm49.58985 2.48778c-.25579-2.329-.2146-4.66968-.32885-7.00189-.14551-2.969.21923-5.94086.35-8.91187.19666-4.46814.713-8.89911 1.32385-13.32166a84.46691 84.46691 0 0 1 5.77454-21.95422c1.91357-4.45636 4.09174-8.74939 7.73859-12.09149a13.242 13.242 0 0 1 7.3388-3.82794 16.66587 16.66587 0 0 1 16.79059 8.87616 28.72659 28.72659 0 0 1 2.5835 16.56634 117.62908 117.62908 0 0 1-7.08448 28.42438 144.683 144.683 0 0 1-16.18339 30.82764 52.88135 52.88135 0 0 1-8.94977 10.48962c-2.00464 1.70544-2.777 1.5863-4.03656-.76776a39.55743 39.55743 0 0 1-3.18555-8.5556c-.12628-.47272-.10718-1.05329-.67718-1.28846l-.00159.002c.0816.23138.18378.4577.24164.69488a37.50707 37.50707 0 0 0 3.66217 9.80774c1.12829 1.98059 2.14648 2.10266 3.89044.61792a44.51837 44.51837 0 0 0 6.63269-7.161 141.24477 141.24477 0 0 0 17.2995-30.63782 123.2355 123.2355 0 0 0 8.37021-30.03417 35.26676 35.26676 0 0 0-.282-13.57818c-1.06134-4.35816-2.8814-8.36267-6.59423-11.09314-3.95832-2.91095-8.43738-4.31574-13.37513-3.29443-3.78967.78381-6.62579 3.20208-8.92572 6.15045-4.22766 5.4198-6.675 11.73663-8.51605 18.27081-2.84241 10.08813-3.92962 20.44257-4.33124 30.88654-.083 2.15863-.207 4.31353-.11255 6.47363.12031 2.74921.38978 5.49249.32667 8.24878a.66989.66989 0 0 0 .07183-.00134 4.84567 4.84567 0 0 0 .18927-2.81592z"/><path d="M203.41107 99.58871c.1557-3.7265-.86706-7.25806-1.94745-10.77094a.9335.9335 0 0 0-.5-.64752c.33948 1.14984.70014 2.29413 1.01447 3.451.99908 3.67621 1.62738 7.37909.69983 11.17737l.001.00042c.80908-.93873.68656-2.1189.73215-3.21033z"/><path d="M202.678 102.799l-.001.002.002-.002h-.001zm-1.67043 21.31192c.03314.16779-.123.45356.155.46753.22589.01136.24225-.26117.2619-.45727a.27267.27267 0 0 1-.4169-.01026z"/><path d="M201.00757 124.11092a.27267.27267 0 0 0 .41693.01026v-.00006zm8.09357 107.75653c-1.17457-2.97052-5.72077-6.00268-8.91907-6.03717-4.46778-.04821-7.64185 3.05921-7.89728 7.85163a23.35242 23.35242 0 0 1-3.32294 10.83581c-.09362.1576-.17907.31781-.27649.47419-1.16058 1.86279-2.441 3.65057-3.65222 5.48217a1.63779 1.63779 0 0 0 .78333 2.668 2.46353 2.46353 0 0 0 2.06274-.00769 72.54333 72.54333 0 0 0 12.12933-6.32269 47.30487 47.30487 0 0 0 4.59308-3.44251 12.84731 12.84731 0 0 0 4.36676-7.00579 7.484 7.484 0 0 0 .13276-4.49595zm-40.16352 15.82349a22.64011 22.64011 0 0 1-2.42859-3.50635 24.43758 24.43758 0 0 1-3.00586-10.822 7.65831 7.65831 0 0 0-7.67443-7.53375 9.15582 9.15582 0 0 0-6.34113 2.57526 8.54162 8.54162 0 0 0-1.43073 11.35693 20.63739 20.63739 0 0 0 4.41956 4.71c.76.61041 1.54547 1.17688 2.34137 1.72553a86.1609 86.1609 0 0 0 11.79309 6.451 8.47692 8.47692 0 0 0 2.02808.618 2.284 2.284 0 0 0 2.262-.89588c.56689-.69244.12646-1.38671-.30127-1.93548-.67027-.85971-1.00346-1.9628-1.66209-2.74326zM146.954 185.76089c2.09479 1.02264 4.32385.95239 6.63733 1.133a11.52818 11.52818 0 0 0 9.54443-4.50238 10.48218 10.48218 0 0 0 2.4-8.52636c-.31464-2.13959-1.942-2.8014-3.72949-1.65186-.35688.22949-.69971.48407-1.0705.68793-2.06146 1.13348-3.902.70386-5.41168-1.24939-1.2862-1.66406-1.12525-3.50543.45416-5.16327.19568-.20538.39319-.41052.60492-.59876a2.44555 2.44555 0 0 0 .94385-2.72741 2.88546 2.88546 0 0 0-2.35541-2.05066 13.12027 13.12027 0 0 0-15.04761 11.54112 13.2413 13.2413 0 0 0 7.03 13.10804zm42.14958-2.46424c2.52612 2.727 5.8183 3.46186 9.15039 3.52552.73773 0 1.27.00824 1.80182-.00122 6.05828-.10816 11.76092-5.96686 11.696-12.01337-.02753-2.56525-1.77569-3.65253-4.07916-2.518a12.75374 12.75374 0 0 1-2.411 1.08149 3.99512 3.99512 0 0 1-4.42072-1.97321 3.51008 3.51008 0 0 1 .24079-4.50317c.38727-.4607.83667-.86994 1.21533-1.337a2.59336 2.59336 0 0 0-1.666-4.39392 12.90874 12.90874 0 0 0-11.32617 3.55719c-3.26971 3.01684-3.83416 6.98688-3.318 11.15692a12.86133 12.86133 0 0 0 3.11672 7.41877z"/></svg>