<svg id="Layer_1" data-name="Layer 1" xmlns="http://www.w3.org/2000/svg" xmlns:xlink="http://www.w3.org/1999/xlink" viewBox="0 0 279.44 227.71"><defs><style>.cls-1{fill:#434343;}.cls-2{fill:#9a9a9a;}.cls-3{fill:url(#linear-gradient);}.cls-4{fill:url(#linear-gradient-2);}.cls-5{fill:url(#linear-gradient-3);}.cls-6{fill:url(#linear-gradient-4);}.cls-7{fill:#fff;}.cls-8{fill:#2c256c;}.cls-9{fill:#5b2d82;}.cls-10{fill:url(#linear-gradient-5);}.cls-11{fill:url(#linear-gradient-6);}.cls-12{fill:url(#linear-gradient-7);}.cls-13{fill:url(#linear-gradient-8);}.cls-14{fill:url(#linear-gradient-9);}.cls-15{fill:#623393;}</style><linearGradient id="linear-gradient" x1="1602.93" y1="-3303.66" x2="1721.33" y2="-3303.66" gradientTransform="translate(1450.4 3852.09) rotate(-45)" gradientUnits="userSpaceOnUse"><stop offset="0" stop-color="#623393"/><stop offset="0.6" stop-color="#432b7d"/><stop offset="1" stop-color="#2c256c"/></linearGradient><linearGradient id="linear-gradient-2" x1="1602.93" y1="-3287.58" x2="1721.33" y2="-3287.58" xlink:href="#linear-gradient"/><linearGradient id="linear-gradient-3" x1="1602.93" y1="-3310.05" x2="1721.33" y2="-3310.05" gradientTransform="translate(1450.4 3852.09) rotate(-45)" gradientUnits="userSpaceOnUse"><stop offset="0" stop-color="#754fa0"/><stop offset="0.21" stop-color="#6d4b9b"/><stop offset="0.52" stop-color="#583e8b"/><stop offset="0.9" stop-color="#362b73"/><stop offset="1" stop-color="#2c256c"/></linearGradient><linearGradient id="linear-gradient-4" x1="1602.93" y1="-3253.8" x2="1721.33" y2="-3253.8" xlink:href="#linear-gradient-3"/><linearGradient id="linear-gradient-5" x1="1602.93" y1="-3281.7" x2="1721.33" y2="-3281.7" xlink:href="#linear-gradient"/><linearGradient id="linear-gradient-6" x1="1591.71" y1="-3281.7" x2="1733.9" y2="-3281.7" xlink:href="#linear-gradient-3"/><linearGradient id="linear-gradient-7" x1="1591.71" y1="-3267.16" x2="1733.9" y2="-3267.16" xlink:href="#linear-gradient"/><linearGradient id="linear-gradient-8" x1="1591.71" y1="-3275.29" x2="1733.9" y2="-3275.29" xlink:href="#linear-gradient"/><linearGradient id="linear-gradient-9" x1="1591.71" y1="-3295.85" x2="1733.9" y2="-3295.85" xlink:href="#linear-gradient"/></defs><title>CoreDNS_Colour</title><path class="cls-1" d="M192.07,458.57a24.41,24.41,0,0,1,17.31,6.62.91.91,0,0,1,.07,1.28l-1.14,1.21c-.43.43-.78.36-1.21-.07a22.36,22.36,0,1,0-15,39c6.13,0,10.76-2.42,15-6a.89.89,0,0,1,1.14-.14l1.21,1.21a.82.82,0,0,1,0,1.21,24.62,24.62,0,0,1-17.38,6.91,25.64,25.64,0,1,1,0-51.28Z" transform="translate(-166.28 -282.14)"/><path class="cls-1" d="M230.25,479.94c8,0,14.32,6.77,14.32,14.89,0,8.33-6.34,15-14.32,15s-14.32-6.7-14.32-15C215.93,486.71,222.2,479.94,230.25,479.94Zm0,27c6.27,0,11.18-5.34,11.18-12.11,0-6.55-4.91-11.9-11.18-11.9S219,488.27,219,494.83C219,501.59,223.91,506.94,230.25,506.94Z" transform="translate(-166.28 -282.14)"/><path class="cls-1" d="M253.25,481.58a.94.94,0,0,1,.93-.93H255a.85.85,0,0,1,.85.78l.29,2.92a10.93,10.93,0,0,1,8.9-4.42,11.77,11.77,0,0,1,4.42.86c.64.21,1,.71.78,1.28l-.57,1.42c-.21.5-.64.57-1.14.36a9.06,9.06,0,0,0-3.7-.85,10,10,0,0,0-8.48,4.91v20.3a.83.83,0,0,1-.93.93H254a.83.83,0,0,1-.78-.93Z" transform="translate(-166.28 -282.14)"/><path class="cls-1" d="M288.09,479.94c7.48,0,12.89,5.48,12.89,13,0,1.14,0,2.78-1.07,2.78H277.19c.29,6.13,4.7,11.25,11.11,11.25a15.2,15.2,0,0,0,8.4-2.63c.64-.43.93-.5,1.28,0l.71,1c.21.29.14.71-.29,1.14-1.42,1.42-5.91,3.35-10.33,3.35-8.69,0-14-6.7-14-15C274.05,486.71,279.4,479.94,288.09,479.94Zm9.76,13.25c0-5.56-3.35-10.4-9.76-10.4s-10.47,4.56-10.83,10.4Z" transform="translate(-166.28 -282.14)"/><path class="cls-2" d="M310.38,460.21a.93.93,0,0,1,.85-.93h15.1a24.93,24.93,0,1,1,0,49.86h-15.1a.93.93,0,0,1-.85-.93Zm15.39,45.87a21.63,21.63,0,0,0,22.08-21.94c0-12.32-9.62-21.8-22.08-21.8h-12v43.73Z" transform="translate(-166.28 -282.14)"/><path class="cls-2" d="M362.95,459.5a1,1,0,0,1,1.07-.93h1.21l34.19,44.52h.07V460.21a.94.94,0,0,1,.93-.93h1.42a.94.94,0,0,1,.93.93v48.72c0,.64-.57.93-1.14.93h-.93c-.07,0-.64-.21-34.47-44.94h-.07v43.31a.94.94,0,0,1-.92.93h-1.35a.94.94,0,0,1-.93-.93Z" transform="translate(-166.28 -282.14)"/><path class="cls-2" d="M414.88,502.52l.64-.86c.5-.57,1-.78,1.57-.28s6,5.48,13.18,5.48c6.48,0,12-4.35,12-9.54,0-6.34-5.2-9.19-13.82-12.11-8.26-2.92-13.75-5.84-13.75-14,0-5.34,4.27-12.61,15.39-12.61a23.39,23.39,0,0,1,12.25,3.63,1,1,0,0,1,.29,1.5,6.56,6.56,0,0,0-.57.93,1,1,0,0,1-1.57.36A20.89,20.89,0,0,0,430,461.64c-8.76,0-12,5.41-12,9.47,0,6.06,4.63,8.69,11.82,11,9.76,3.35,16,6.77,16,15,0,7.12-7.34,12.68-15.53,12.68a23.19,23.19,0,0,1-15.1-5.84C414.66,503.66,414.31,503.3,414.88,502.52Z" transform="translate(-166.28 -282.14)"/><path class="cls-3" d="M270.85,359.05a15.91,15.91,0,0,0-2.84,3.86,15.91,15.91,0,0,1,2.84-3.86Z" transform="translate(-166.28 -282.14)"/><path class="cls-4" d="M318.93,325a8.49,8.49,0,0,1,6,2.49l4.94,4.94h0L325,327.52A8.49,8.49,0,0,0,318.93,325Z" transform="translate(-166.28 -282.14)"/><path class="cls-5" d="M270.83,331a14,14,0,0,1,19.84,0l4.13,4.13,12.84-12.84a16,16,0,0,1,22.57,0l4.94,4.94,12.35-12.35L320.6,288a20,20,0,0,0-28.18,0L236.88,343.5a20,20,0,0,0-2.95,24.38l.17-.17Z" transform="translate(-166.28 -282.14)"/><path class="cls-6" d="M343.34,379.31a14,14,0,0,1-19.85,0l-4.89-4.89-16.19,16.19a16,16,0,0,1-22.57,0l-4.17-4.17-12,12,24.73,24.73a20,20,0,0,0,28.18,0l55.54-55.54a20,20,0,0,0,4.4-21.49l-1.8,1.8Z" transform="translate(-166.28 -282.14)"/><path class="cls-7" d="M297.15,385.35h0a8.47,8.47,0,0,1-2.82,1.87,8.54,8.54,0,0,1-9.23-1.87l-4.17-4.17-4.82-4.82a8.52,8.52,0,0,1,0-12h0l23.95-23.95,12.84-12.84h0a8.48,8.48,0,0,1,4.4-2.34,8.6,8.6,0,0,1,1.63-.16,8.49,8.49,0,0,1,6,2.49l4.94,4.94,5.26-5.26h0l-4.94-4.94a16,16,0,0,0-22.57,0L294.8,335.11l-23.95,23.95a15.91,15.91,0,0,0-2.84,3.86q-.36.69-.66,1.42a15.95,15.95,0,0,0,3.5,17.29l4.82,4.82,4.17,4.17a16,16,0,0,0,22.57,0l16.19-16.19-5.26-5.26Z" transform="translate(-166.28 -282.14)"/><path class="cls-8" d="M374.7,347.95l1.8-1.8a19.72,19.72,0,0,0-2.66-4.68C374.22,343.62,374.52,345.78,374.7,347.95Z" transform="translate(-166.28 -282.14)"/><path class="cls-9" d="M234.11,367.7l-.17.17c.11.19.21.38.33.56C234.22,368.19,234.16,367.94,234.11,367.7Z" transform="translate(-166.28 -282.14)"/><path class="cls-10" d="M313.19,349.16l16.7-16.7L325,327.52a8.49,8.49,0,0,0-6-2.49,8.6,8.6,0,0,0-1.63.16,8.48,8.48,0,0,0-4.4,2.34l-12.84,12.84.92.92a14,14,0,0,1,0,19.84l-20.05,20.05,4.17,4.17a8.52,8.52,0,0,0,12.05,0l16.19-16.19-.15-.15A14,14,0,0,1,313.19,349.16Z" transform="translate(-166.28 -282.14)"/><path class="cls-11" d="M313.19,349.16l16.7-16.7L325,327.52a8.49,8.49,0,0,0-6-2.49,8.6,8.6,0,0,0-1.63.16,8.48,8.48,0,0,0-4.4,2.34l-12.84,12.84.92.92a14,14,0,0,1,0,19.84l-20.05,20.05,4.17,4.17a8.52,8.52,0,0,0,12.05,0l16.19-16.19-.15-.15A14,14,0,0,1,313.19,349.16Z" transform="translate(-166.28 -282.14)"/><path class="cls-7" d="M297.15,385.35h0a8.48,8.48,0,0,1-2.82,1.87A8.47,8.47,0,0,0,297.15,385.35Z" transform="translate(-166.28 -282.14)"/><path class="cls-12" d="M297.15,385.35h0a8.48,8.48,0,0,1-2.82,1.87A8.47,8.47,0,0,0,297.15,385.35Z" transform="translate(-166.28 -282.14)"/><path class="cls-7" d="M280.93,381.18h0l4.17,4.17a8.49,8.49,0,0,0,6,2.49,8.49,8.49,0,0,1-6-2.49Z" transform="translate(-166.28 -282.14)"/><path class="cls-13" d="M280.93,381.18h0l4.17,4.17a8.49,8.49,0,0,0,6,2.49,8.49,8.49,0,0,1-6-2.49Z" transform="translate(-166.28 -282.14)"/><path class="cls-7" d="M312.9,327.53h0a8.48,8.48,0,0,1,4.4-2.34A8.48,8.48,0,0,0,312.9,327.53Z" transform="translate(-166.28 -282.14)"/><path class="cls-14" d="M312.9,327.53h0a8.48,8.48,0,0,1,4.4-2.34A8.48,8.48,0,0,0,312.9,327.53Z" transform="translate(-166.28 -282.14)"/><path class="cls-8" d="M236.88,371.67a19.79,19.79,0,0,1-2.62-3.24c-.12-.18-.22-.37-.33-.56l-5.28,5.28a14,14,0,0,0,0,19.84L239,403.3a14,14,0,0,0,19.84,0l3.29-3.29,1.17-1.17.39-.39Z" transform="translate(-166.28 -282.14)"/><path class="cls-9" d="M270.85,381.62a15.95,15.95,0,0,1-3.5-17.29q.29-.72.66-1.42a15.91,15.91,0,0,1,2.84-3.86h0l23.95-23.95L290.67,331a14,14,0,0,0-19.84,0L234.11,367.7c0,.24.11.49.16.73a19.8,19.8,0,0,0,2.62,3.24l26.77,26.77,12-12Z" transform="translate(-166.28 -282.14)"/><path class="cls-9" d="M267.35,364.33a16,16,0,0,0,.66,13.43A16,16,0,0,1,267.35,364.33Z" transform="translate(-166.28 -282.14)"/><path class="cls-9" d="M280.93,381.18,301,361.13a14,14,0,0,0,0-19.84l-.92-.92-23.95,23.95a8.53,8.53,0,0,0,0,12Z" transform="translate(-166.28 -282.14)"/><path class="cls-9" d="M276.11,376.36a8.49,8.49,0,0,1-2.49-6,8.49,8.49,0,0,0,2.49,6l4.82,4.82h0Z" transform="translate(-166.28 -282.14)"/><path class="cls-9" d="M276.11,364.31a8.48,8.48,0,0,0-1.87,2.82,8.48,8.48,0,0,1,1.87-2.82Z" transform="translate(-166.28 -282.14)"/><path class="cls-8" d="M329.89,332.46l-16.7,16.7a14,14,0,0,0,0,19.85l.15.15,20.6-20.6a8.48,8.48,0,0,0,2.34-4.4,8.61,8.61,0,0,0,.16-1.63,8.49,8.49,0,0,0-2.49-6Z" transform="translate(-166.28 -282.14)"/><path class="cls-8" d="M333.94,348.56a8.48,8.48,0,0,0,2.34-4.4,8.48,8.48,0,0,1-2.34,4.4Z" transform="translate(-166.28 -282.14)"/><path class="cls-15" d="M333.94,336.51a8.49,8.49,0,0,1,2.49,6,8.49,8.49,0,0,0-2.49-6l-4-4h0Z" transform="translate(-166.28 -282.14)"/><path class="cls-15" d="M339.2,353.82a15.87,15.87,0,0,0,3.5-5.28,15.87,15.87,0,0,1-3.5,5.28Z" transform="translate(-166.28 -282.14)"/><path class="cls-15" d="M342.7,348.55q.29-.72.51-1.46a16,16,0,0,0-4-15.83l-4-4-5.26,5.26,4,4a8.49,8.49,0,0,1,2.49,6,8.61,8.61,0,0,1-.16,1.63,8.48,8.48,0,0,1-2.34,4.4h0l-20.6,20.6,5.26,5.26,20.6-20.6A15.87,15.87,0,0,0,342.7,348.55Z" transform="translate(-166.28 -282.14)"/><path class="cls-15" d="M385.51,317.29,375.21,307a14,14,0,0,0-18.83-.92c-.35.29-.69.59-1,.92l-6.65,6.65-1.17,1.17,0,0,24.61,24.61a20.91,20.91,0,0,1,4.4,6.69l9-9A14,14,0,0,0,385.51,317.29Z" transform="translate(-166.28 -282.14)"/><path class="cls-8" d="M339.2,331.25a16,16,0,0,1,4,15.83q-.22.74-.51,1.46a15.87,15.87,0,0,1-3.5,5.28h0l-20.6,20.6,4.89,4.89a14,14,0,0,0,19.85,0l31.36-31.36c-.18-2.17-.48-4.33-.86-6.48a19.82,19.82,0,0,0-1.73-2L347.5,314.85,335.15,327.2Z" transform="translate(-166.28 -282.14)"/><path class="cls-8" d="M339.2,331.25a16,16,0,0,1,4,15.83,16,16,0,0,0-4-15.83l-4-4h0Z" transform="translate(-166.28 -282.14)"/></svg>