<?xml version="1.0" encoding="UTF-8"?><svg id="Layer_1" xmlns="http://www.w3.org/2000/svg" viewBox="0 0 500 500"><defs><style>.cls-1{fill:#fff;stroke-width:0px;}</style></defs><path class="cls-1" d="M233.23294,327.3277c.19391-1.42645.17804-2.888.17737-4.33344-.00421-9.09485-.01813-18.18976-.0285-27.28461h25.66217c-.00745,9.57489.00378,19.14984.0116,28.72473.00641,7.8205,2.29102,10.08502,10.18365,10.15411,6.51868.05707,13.04053.11957,19.55615-.02917,2.45245-.05597,3.79144.60004,4.98627,2.94482,3.46655,6.80304,10.95166,10.33112,18.17212,9.0401,7.37433-1.31854,13.34607-7.33276,14.35431-14.45636.96411-6.81195-3.64441-15.65674-9.72339-18.66119-7.10205-3.51019-17.16693-1.75476-20.96832,5.10925-2.82849,5.1073-6.24591,5.55048-10.93103,5.19067-2.64081-.20276-5.32941-.25378-7.96002.00183-3.25262.31604-4.44775-.71954-4.43518-4.13715.02936-7.96039.02118-15.92102-.00519-23.88165h8.70538v-30.53839l-3.34943-3.3045-16.69562-16.4715-19.776-19.91052h-26.36792l33.09448,33.229,3.16907,3.30115,3.28839,3.42542h-43.72241v30.26935h9.44379c-.00275,8.25439.00439,16.50879.03131,24.76306.00739,2.26862-.51642,3.30591-2.99243,3.24005-4.94604-.13159-9.89868-.05286-14.8479.00269-1.41949.01587-2.26282-.3291-3.16443-1.67365-2.03162-3.02997-4.14185-6.23145-7.37469-8.05701-5.82202-3.28772-11.85333-3.0238-17.57239.35156-6.01959,3.55273-8.24475,9.49701-8.1745,15.98303.08752,8.07709,6.18591,14.56915,14.1015,16.16357,7.38867,1.48834,15.22052-2.27045,18.68915-9.31921,1.04138-2.11621,2.25854-2.6286,4.43585-2.59845,7.36206.10211,14.72864.07666,22.09039-.06323,4.84991-.09216,7.28571-2.38751,7.9364-7.17438Z"/><polygon class="cls-1" points="210.63089 274.06082 210.63089 265.44031 170.67532 265.44031 170.67532 225.48476 159.7341 225.48476 140.94414 225.48476 140.94414 295.84418 211.03452 295.84418 211.03452 295.70966 210.63089 295.70966 210.63089 274.06082"/><path class="cls-1" d="M281.39389,115.16975h-.13452v.2691h40.22461v39.95551h30.00031v-70.49396c0,.26257-66.84106.26892-70.09039.2691v30.00026Z"/><polygon class="cls-1" points="321.48398 225.88838 321.48398 265.44031 281.25937 265.44031 281.25937 274.06082 281.25937 295.70966 351.34976 295.70966 351.34976 225.88838 332.69437 225.88838 321.48398 225.88838"/><polygon class="cls-1" points="171.21347 155.39436 170.94443 155.12532 170.94443 115.43886 210.89993 115.43886 210.89993 101.10048 210.89993 85.16951 140.94414 85.16951 140.94414 155.39436 159.7341 155.39436 171.21347 155.39436"/><path class="cls-1" d="M170.94443,216.31538v-34.55304l3.57263,3.57263,29.14832,29.14832,7.50366,7.50366v-26.77155h-.2691l-1.12921-1.133-34.88892-35.00726-3.66833-3.68079h-30.26935v8.81708c-8.41101-.00684-16.82208-.00391-25.23303.00793-2.4024.00336-3.12054-1.0011-3.05743-3.29553.12939-4.70465.11768-9.41772-.01044-14.12262-.04944-1.81622.48029-2.84198,2.19135-3.57544,2.9444-1.26215,5.26953-3.36646,7.03638-6.05444,5.27069-8.01843,3.65753-15.92834-4.8493-23.21606-1.54297-1.32178-2.86749-2.87909-5.11823-3.42389-7.98956-1.93396-17.24811,2.02588-19.91199,8.75989-4.02136,10.16541-1.61224,18.7829,6.90295,23.41974,2.37646,1.29407,3.11877,2.63654,3.03601,5.263-.21289,6.75336-.13312,13.5188-.04639,20.27783.08209,6.39368,2.56793,8.91315,8.96777,9.32239,1.20294.0769,2.41351.05011,3.62042.04565,8.82397-.03284,17.64795-.05554,26.47192-.08862v25.70996c-9.66986-.00525-19.33978.00562-29.00958.01471-7.41376.00702-9.93146,2.49078-10.05597,10.02496-.10376,6.27594-.1698,12.56.0437,18.83038.10016,2.94153-.59808,4.63367-3.40521,6.18536-8.3233,4.60077-11.09381,16.02429-6.20667,23.91322,5.35913,8.65094,16.13104,11.1156,24.59229,5.62677,10.81409-7.01501,10.46948-22.92529-.92474-29.64105-2.80701-1.65442-3.48505-3.32135-3.33063-6.18689.19452-3.61145.27893-7.25928-.00958-10.85773-.2934-3.65955.98254-4.78918,4.66241-4.75952,7.88092.06354,15.76244.09015,23.64397.08893v8.86987h30.00031v-9.03485l.00002-.00002Z"/><path class="cls-1" d="M321.48398,155.39436v43.85693l-3.78168-3.63623-3.21387-3.09027-29.69434-29.69434-3.40015-3.40015v26.63702l3.48926,3.48926,16.28668,16.28674,16.44189,16.44189,3.60315,3.60315h30.26935v-9.43707c8.23352.00842,16.46704.00708,24.7005-.01587,2.54285-.00708,3.44391.96021,3.42212,3.38849-.04114,4.58563-.03284,9.17627.14703,13.75732.08203,2.08734-.52637,3.23895-2.54749,4.07355-7.56372,3.12323-10.58514,13.93414-9.17798,19.51997,1.94568,7.72388,8.64252,13.36493,16.3208,13.52649,8.40375.17676,15.29681-4.88977,17.53864-12.89142,2.14441-7.65387-1.18811-15.96082-8.34558-19.73102-2.45288-1.29199-3.09277-2.75433-3.02216-5.33038.17188-6.27271-.09406-12.55731.07574-18.83014.15991-5.91162-3.89935-11.02728-10.7774-10.85297-9.44098.23926-18.8869.27295-28.33423.26282v-25.86823c9.86713.00037,19.7348.06354,29.6012-.02258,6.58649-.0575,9.04584-2.23376,9.33954-8.80103.30719-6.86768.22052-13.76044.07092-20.63715-.05573-2.56079.57037-3.97937,3.0014-5.31677,6.6723-3.67078,9.50171-9.64618,8.88422-17.23322-.62335-7.65991-5.99927-11.84662-12.10193-14.49329-7.13934-3.09625-16.22864.6853-19.79486,7.08405-4.66943,8.37799-3.89362,18.25275,3.60864,22.63683,6.00159,3.50708,5.84863,7.82922,5.65973,13.08014-.0824,2.29083-.11731,4.59271.00989,6.87933.14563,2.61829-.83014,3.60895-3.55542,3.59882-8.24103-.03052-16.48218-.03479-24.72333-.0285v-8.81219h-30.00031v-.00002Z"/><path class="cls-1" d="M210.89993,115.43886l3.43237,3.40942,36.79224,36.54608h26.23346l-36.59137-36.71411-3.49872-3.5105h44.12598v-30.00024h-9.17328c.02966-8.03876.05542-16.07758.00659-24.11591-.01843-3.03705.87946-4.34186,4.16412-4.12891,4.32776.28064,8.69061.15723,13.03253.02155,2.03558-.0636,3.17145.46783,4.1593,2.44574,3.33533,6.67767,10.5448,10.52332,17.21613,9.54388,7.85181-1.15277,13.94745-6.61676,15.40442-13.80817,1.46851-7.24811-1.75006-14.61658-8.12445-18.59985-8.68817-5.42908-20.47614-1.96283-24.38892,7.37122-.78729,1.87817-1.72986,2.20782-3.46509,2.19379-7.36371-.05981-14.72876-.07275-22.09229.00305-5.94672.06122-8.3313,2.23468-8.99878,8.1026-.19006,1.67114-.10828,3.37622-.10693,5.06567.00702,8.63501-.00415,17.27026.00177,25.90533h-25.64819c.00476-9.70538.00183-19.41071-.02374-29.11603-.01721-6.51825-3.45056-9.92053-9.84833-9.96747-6.88098-.05048-13.7627.00128-20.6438-.04034-1.03107-.00629-2.68427.54199-2.97607-.56122-.81622-3.08594-4.08429-3.88397-5.40314-6.32465-1.45312-2.68915-3.85022-3.76483-6.52289-4.55774-9.41418-2.79297-19.21356,3.85706-21.05945,11.67798-2.02057,8.56134.47736,16.35547,7.87433,20.46997,7.453,4.14569,17.2666,2.98029,21.6615-4.23309,3.40955-5.59607,7.48462-5.90631,12.69965-5.55725,2.28375.15289,4.59845.18384,6.87653-.0036,2.87939-.23694,4.0415.63702,4.02509,3.77197-.04272,8.14697-.04669,16.29419-.03705,24.44147h-9.10352v30.26936Z"/><polygon class="cls-1" points="97.22915 452.91382 91.64205 435.94464 86.98635 435.94464 81.36513 452.91382 76.29531 435.94464 71.57064 435.94464 79.08889 459.63867 83.36532 459.63867 89.33162 442.04907 95.26388 459.63867 99.54024 459.63867 107.02364 435.94464 102.33382 435.94464 97.22915 452.91382"/><path class="cls-1" d="M125.64174,435.53204c-6.72485,0-12.41589,5.5871-12.41589,12.24219,0,6.65656,5.69104,12.27856,12.41589,12.27856,6.7597,0,12.44995-5.62201,12.44995-12.27856,0-6.65509-5.69025-12.24219-12.44995-12.24219ZM125.64174,456.12073c-4.34546,0-8.03558-3.79401-8.03558-8.3465,0-4.51764,3.69012-8.31165,8.03558-8.31165,4.38031,0,8.03552,3.79401,8.03552,8.31165,0,4.55249-3.65521,8.3465-8.03552,8.3465Z"/><path class="cls-1" d="M165.71322,443.80878c0-4.62079-3.82819-7.86414-8.8631-7.86414h-10.31177v23.69403h4.27643v-7.96729h3.79321l5.58716,7.96729h4.89758l-5.79413-8.24341c3.79401-.86163,6.41461-3.75909,6.41461-7.58649ZM160.93508,445.43591c-.23651.47845-.58246.8902-1.01996,1.2265-.87506.67261-2.11646,1.04352-3.58228,1.04352h-5.51807v-7.79431h5.51807c1.09937,0,2.07251.20862,2.85956.59668s1.38794.95563,1.74268,1.67334c.23651.47852.36365,1.02374.36365,1.62714s-.12714,1.14868-.36365,1.62714Z"/><polygon class="cls-1" points="194.09316 435.94464 188.78219 435.94464 178.40139 447.53302 178.40139 435.94464 174.12496 435.94464 174.12496 459.63867 178.40139 459.63867 178.40139 452.87891 181.6083 449.43079 189.47164 459.63867 194.74849 459.63867 184.60891 446.39526 194.09316 435.94464"/><rect class="cls-1" x="202.2986" y="435.94464" width="4.27643" height="23.69403"/><polygon class="cls-1" points="233.36977 452.60278 220.85073 435.94464 216.5743 435.94464 216.5743 459.63867 220.85073 459.63867 220.85073 442.98053 233.36977 459.63867 237.64614 459.63867 237.64614 435.94464 233.36977 435.94464 233.36977 452.60278"/><path class="cls-1" d="M258.57619,439.46259c2.31036,0,4.89685,1.03461,6.38043,2.7594l3.06891-2.86255c-2.31036-2.37866-5.96637-3.82739-9.44934-3.82739-6.75977,0-12.48492,5.5871-12.48492,12.24219,0,6.65656,5.72516,12.27856,12.48492,12.27856,3.48297,0,7.13898-1.48364,9.44934-3.8623v-9.58893h-10.13885v3.51794h5.93073v4.31128c-1.48212,1.06952-3.44812,1.68994-5.24121,1.68994-4.37958,0-8.10461-3.79401-8.10461-8.3465,0-4.51764,3.72504-8.31165,8.10461-8.31165Z"/><path class="cls-1" d="M300.81844,439.46259c2.31042,0,4.89691,1.03461,6.38049,2.7594l3.06891-2.86255c-2.31042-2.37866-5.96637-3.82739-9.4494-3.82739-6.7597,0-12.48486,5.5871-12.48486,12.24219,0,6.65656,5.72516,12.27856,12.48486,12.27856,3.48303,0,7.13898-1.48364,9.4494-3.8623v-9.58893h-10.13959v3.51794h5.93146v4.31128c-1.48212,1.06952-3.44818,1.68994-5.24127,1.68994-4.37958,0-8.10529-3.79401-8.10529-8.3465,0-4.51764,3.72571-8.31165,8.10529-8.31165Z"/><path class="cls-1" d="M338.44149,443.80878c0-4.62079-3.82886-7.86414-8.86377-7.86414h-10.31104v23.69403h4.27637v-7.96729h3.79254l5.5871,7.96729h4.89838l-5.79492-8.24341c3.79401-.86163,6.41534-3.75909,6.41534-7.58649ZM333.66341,445.43591c-.23651.47845-.58246.8902-1.02002,1.2265-.87512.67261-2.11682,1.04352-3.58301,1.04352h-5.51733v-7.79431h5.51733c1.09967,0,2.07294.20862,2.86011.59668.78711.38806,1.38812.95563,1.74292,1.67334.23651.47852.36365,1.02374.36365,1.62714s-.12714,1.14868-.36365,1.62714Z"/><path class="cls-1" d="M357.71645,435.53204c-6.72485,0-12.41663,5.5871-12.41663,12.24219,0,6.65656,5.69177,12.27856,12.41663,12.27856,6.75977,0,12.45001-5.62201,12.45001-12.27856,0-6.65509-5.69025-12.24219-12.45001-12.24219ZM357.71645,456.12073c-4.34619,0-8.03552-3.79401-8.03552-8.3465,0-4.51764,3.68933-8.31165,8.03552-8.31165,4.37958,0,8.03552,3.79401,8.03552,8.31165,0,4.55249-3.65594,8.3465-8.03552,8.3465Z"/><path class="cls-1" d="M394.64925,449.39587c0,3.93207-2.55157,6.75977-6.17267,6.75977-3.58765,0-6.13928-2.8277-6.13928-6.75977v-13.45123h-4.31128v13.58929c0,6.17267,4.34619,10.51886,10.45056,10.51886,6.13782,0,10.4491-4.34619,10.4491-10.51886v-13.58929h-4.27643v13.45123Z"/><path class="cls-1" d="M418.64968,435.94464h-10.31256v23.69403h4.27643v-7.96729h6.03613c5.03491,0,8.8623-3.24182,8.8623-7.86261s-3.82739-7.86414-8.8623-7.86414ZM422.73385,445.43591c-.23645.47845-.58234.8902-1.01984,1.2265-.87494.67261-2.11621,1.04352-3.5816,1.04352h-5.51886v-7.79431h5.51886c1.09906,0,2.07202.20862,2.85895.59668s1.38776.95563,1.74249,1.67334c.23651.47852.36365,1.02374.36365,1.62714s-.12714,1.14868-.36365,1.62714Z"/><path class="cls-1" d="M33.09127,385.00391c2.93005,0,5.65765,1.46545,7.42566,3.73792l6.31378-5.60535c-3.43524-3.63776-8.33441-5.96179-13.73944-5.96179-10.15253,0-18.68866,8.1842-18.68866,17.93243s8.53613,17.98248,18.68866,17.98248c5.40503,0,10.3042-2.32404,13.73944-6.01184l-6.26367-5.55524c-1.81812,2.27246-4.49567,3.73785-7.47577,3.73785-5.30341,0-9.79907-4.64807-9.79907-10.15326,0-5.45514,4.49567-10.10321,9.79907-10.10321Z"/><polygon class="cls-1" points="77.80019 404.75519 61.08059 404.75519 61.08059 377.78149 52.44356 377.78149 52.44356 412.48279 77.80019 412.48279 77.80019 404.75519"/><path class="cls-1" d="M100.38295,413.0896c10.10248,0,18.63861-8.23425,18.63861-17.98248s-8.53613-17.93243-18.63861-17.93243c-10.15247,0-18.68866,8.1842-18.68866,17.93243s8.53619,17.98248,18.68866,17.98248ZM100.38295,385.00391c5.3042,0,9.74896,4.64807,9.74896,10.10321,0,5.50519-4.44476,10.15326-9.74896,10.15326-5.30341,0-9.79901-4.64807-9.79901-10.15326,0-5.45514,4.49561-10.10321,9.79901-10.10321Z"/><path class="cls-1" d="M156.75991,397.27948v-19.49799h-8.58698v19.0929c0,4.8999-3.1311,8.38599-7.52582,8.38599-4.34393,0-7.47577-3.48608-7.47577-8.38599v-19.0929h-8.63702v19.49799c0,9.29309,6.66718,15.81012,16.11279,15.81012,9.4964,0,16.11279-6.51703,16.11279-15.81012Z"/><path class="cls-1" d="M176.81991,377.78149h-12.67834v34.70129h12.67834c11.92053,0,20.35583-7.22241,20.35583-17.37567s-8.4353-17.32562-20.35583-17.32562ZM178.13283,404.65356h-5.35425v-19.04285h5.35425c5.96033,0,10.15253,3.93964,10.15253,9.4964s-4.1922,9.54645-10.15253,9.54645Z"/><polygon class="cls-1" points="249.41274 377.78149 240.82576 377.78149 240.82576 398.28979 225.67251 377.78149 217.03475 377.78149 217.03475 412.48279 225.67251 412.48279 225.67251 391.97449 240.82576 412.48279 249.41274 412.48279 249.41274 377.78149"/><path class="cls-1" d="M278.20913,377.78149h-9.69812l-13.73798,34.70129h9.69818l2.12079-5.30341h13.53766l2.12079,5.30341h9.69812l-13.73944-34.70129ZM269.16781,400.66388l4.19299-10.65845,4.19299,10.65845h-8.38599Z"/><polygon class="cls-1" points="324.6368 377.78149 294.93557 377.78149 294.93557 385.50909 305.44228 385.50909 305.44228 412.48279 314.08004 412.48279 314.08004 385.50909 324.6368 385.50909 324.6368 377.78149"/><rect class="cls-1" x="330.39992" y="377.78149" width="8.63776" height="34.70129"/><polygon class="cls-1" points="367.88186 412.48279 381.56972 377.78149 371.87154 377.78149 363.03353 400.15869 354.14242 377.78149 344.44423 377.78149 358.13363 412.48279 367.88186 412.48279"/><polygon class="cls-1" points="414.30806 404.75519 395.61861 404.75519 395.61861 398.64325 412.59078 398.64325 412.59078 390.91412 395.61861 390.91412 395.61861 385.50909 414.30806 385.50909 414.30806 377.78149 386.98086 377.78149 386.98086 412.48279 414.30806 412.48279 414.30806 404.75519"/><path class="cls-1" d="M445.83425,377.78149l-13.73944,34.70129h9.69818l2.12225-5.30341h13.53619l2.12225,5.30341h9.69818l-13.73944-34.70129h-9.69818ZM446.49111,400.66388l4.19147-10.65845,4.19299,10.65845h-8.38446Z"/><rect class="cls-1" x="474.58138" y="377.78149" width="8.6377" height="34.70129"/></svg>