<?xml version="1.0" encoding="utf-8"?>
<!-- Generator: Adobe Illustrator 21.1.0, SVG Export Plug-In . SVG Version: 6.00 Build 0)  -->
<svg version="1.1" id="Layer_1" xmlns="http://www.w3.org/2000/svg" xmlns:xlink="http://www.w3.org/1999/xlink" x="0px" y="0px"
	 viewBox="0 0 358.4 400.5" style="enable-background:new 0 0 358.4 400.5;" xml:space="preserve">
<g>
	<polygon points="65,114.9 65,114.9 65,114.9 65,114.9 65,114.9 71.1,126.2 74.4,132.1 109.3,196.1 114.9,206.6 144.1,260.3 
		177,320.7 177,320.7 177.1,320.7 245.5,196.8 281.6,131.4 321.2,59.7 352.4,3.1 282.9,3.1 282.9,3.2 282.9,3.2 282.9,3.1 
		282.9,3.2 282.9,3.2 271.3,24.4 247.5,67.7 247.5,67.7 247.5,67.7 235.1,90.2 212.3,131.6 186.9,178.3 178.2,194.3 188.7,213.6 
		188.9,213.9 166.4,172.5 150.7,143.6 123.4,93.2 109.3,67.3 74.3,3.2 74.3,3.2 74.3,3.1 74.3,3.1 4.5,3.1 	"/>
	<polygon points="82.7,380.8 81.9,384.2 81.6,384.2 80.8,380.7 66.9,333.8 53.3,333.8 75.2,398.1 88.4,398.1 110.3,333.8 
		96.7,333.8 	"/>
	<rect x="116.2" y="350.3" width="12.9" height="47.8"/>
	<rect x="116.2" y="329.2" width="12.9" height="9.7"/>
	<path d="M161.2,388.8c-0.5,0.1-1.1,0.1-1.8,0.1c-1.3,0-2.3-0.4-3.1-1.2c-0.8-0.8-1.2-2.1-1.2-4v-24.3h8.1v-9.1h-8.1v-11.7h-12.9
		v11.7h-7v9.1h7v24.4c0,5.3,1.2,9.2,3.6,11.6c2.4,2.4,5.8,3.7,10.3,3.7c1.4,0,2.8-0.1,4-0.3c1.2-0.2,2.5-0.6,3.8-1l-1.1-9.3
		C162.2,388.6,161.7,388.7,161.2,388.8z"/>
	<path d="M191.1,349.4c-6.8,0-12.1,2.2-16,6.8c-3.9,4.6-5.8,10.4-5.8,17.6v1.8c0,6.9,2,12.5,6,16.9c4,4.4,9.6,6.6,16.7,6.6
		c3.9,0,7.4-0.5,10.7-1.6c3.3-1.1,5.9-2.4,7.8-3.9l-3.5-8c-2.2,1.2-4.2,2.1-6.3,2.7c-2,0.6-4.5,0.9-7.4,0.9c-3.5,0-6.1-1-7.9-3
		c-1.8-2-2.8-4.7-3-8l0.1-0.3H211v-6.7c0-6.7-1.7-11.9-5.1-15.9C202.4,351.4,197.5,349.4,191.1,349.4z M198.4,369.3h-15.7l-0.1-0.2
		c0.3-2.9,1.1-5.3,2.5-7.1c1.4-1.8,3.4-2.7,6-2.7c2.6,0,4.4,0.8,5.6,2.4c1.1,1.6,1.7,3.8,1.7,6.6V369.3z"/>
	<path d="M252.6,374.9c-2.9-2.3-7.2-4-13.1-5.2c-3.8-0.7-6.4-1.6-7.6-2.5c-1.3-0.9-1.9-2.1-1.9-3.6c0-1.5,0.6-2.8,1.8-3.8
		c1.2-1,2.8-1.5,4.9-1.5c2.3,0,4.1,0.6,5.3,1.8c1.2,1.2,1.9,2.8,1.9,4.7h12.5l0.1-0.3c0.1-4.3-1.6-7.9-5.2-10.8
		c-3.6-2.9-8.5-4.3-14.5-4.3c-5.8,0-10.4,1.4-13.9,4.3c-3.5,2.9-5.2,6.4-5.2,10.5c0,3.9,1.5,7,4.4,9.2c2.9,2.3,7.1,4,12.7,5.1
		c3.7,0.8,6.3,1.7,7.6,2.7c1.4,1,2.1,2.2,2.1,3.6c0,1.6-0.6,3-1.9,3.9c-1.3,1-3.1,1.4-5.5,1.4c-2.6,0-4.6-0.6-6.2-1.7
		c-1.6-1.1-2.4-3-2.5-5.6h-11.8l-0.1,0.3c-0.2,4.1,1.6,7.8,5.3,11c3.7,3.2,8.7,4.8,15.1,4.8c6,0,10.9-1.4,14.6-4.1
		c3.7-2.7,5.5-6.3,5.5-10.6C256.9,380.4,255.4,377.2,252.6,374.9z"/>
	<path d="M299.2,374.9c-2.9-2.3-7.2-4-13.1-5.2c-3.8-0.7-6.4-1.6-7.6-2.5c-1.3-0.9-1.9-2.1-1.9-3.6c0-1.5,0.6-2.8,1.8-3.8
		c1.2-1,2.8-1.5,4.9-1.5c2.3,0,4.1,0.6,5.3,1.8c1.2,1.2,1.9,2.8,1.9,4.7H303l0.1-0.3c0.1-4.3-1.6-7.9-5.2-10.8
		c-3.6-2.9-8.5-4.3-14.5-4.3c-5.8,0-10.4,1.4-13.9,4.3c-3.5,2.9-5.2,6.4-5.2,10.5c0,3.9,1.5,7,4.4,9.2c2.9,2.3,7.1,4,12.7,5.1
		c3.7,0.8,6.3,1.7,7.6,2.7c1.4,1,2.1,2.2,2.1,3.6c0,1.6-0.6,3-1.9,3.9c-1.3,1-3.1,1.4-5.5,1.4c-2.6,0-4.6-0.6-6.2-1.7
		c-1.6-1.1-2.4-3-2.5-5.6h-11.8l-0.1,0.3c-0.2,4.1,1.6,7.8,5.3,11c3.7,3.2,8.7,4.8,15.1,4.8c6,0,10.9-1.4,14.6-4.1
		c3.7-2.7,5.5-6.3,5.5-10.6C303.5,380.4,302.1,377.2,299.2,374.9z"/>
</g>
</svg>
