<?xml version="1.0" encoding="utf-8"?>
<!-- Generator: Adobe Illustrator 21.1.0, SVG Export Plug-In . SVG Version: 6.00 Build 0)  -->
<svg version="1.1" id="Layer_1" xmlns="http://www.w3.org/2000/svg" xmlns:xlink="http://www.w3.org/1999/xlink" x="0px" y="0px"
	 viewBox="0 0 400 164" style="enable-background:new 0 0 400 164;" xml:space="preserve">
<style type="text/css">
	.st0{fill:#FFFFFF;}
</style>
<path class="st0" d="M115.5,37.1l-0.6-0.3l-41.1-30l-69,51.8L18,68.2l0,0l56.6,41.3l69.1-51.9L115.5,37.1z M23.7,48.8l37.2-27.9
	l10.4,7.6L34,56.3L23.7,48.8z M84.6,78.1l-10.2,7.7L36.9,58.4l37.2-27.9l24.2,17.7L71.4,68.4L84.6,78.1z M101.2,50.3l10.3,7.5
	l-24,18.1l-10.3-7.5L101.2,50.3z M116.4,58.6l0.7-0.6l0.2-0.2L104,48.1l10.2-7.7l23.6,17.2l-37.2,27.9L90.3,78L116.4,58.6z
	 M101.2,46.1L63.7,18.7l10.2-7.6l37.5,27.4L101.2,46.1z M20.8,50.9l10.4,7.6L21,66.1l-10.4-7.6L20.8,50.9z M34.1,60.6L71.7,88
	l-10.2,7.6L23.9,68.2L34.1,60.6z M87.6,80.3l10.3,7.5l-23.3,17.5l-10.3-7.5L87.6,80.3z"/>
<g>
	<g>
		<path class="st0" d="M242.4,111.6c0,0-8,9.9-24.8,9.9c-22,0-37.3-17.1-37.3-39.2c0-22.3,15.3-39.3,37.3-39.3
			c16.8,0,24.8,9.8,24.8,9.8l-4,5.5c0,0-7.6-8.5-20.6-8.5c-17.8,0-30,14.8-30,32.5c0,17.6,12.3,32.4,30,32.4c13,0,20.6-8.5,20.6-8.5
			L242.4,111.6z"/>
		<path class="st0" d="M338.5,119.8H333l-49.2-62.9v62.9h-7.1V44.7h5.8l48.9,62.6V44.7h7.1L338.5,119.8L338.5,119.8z"/>
		<path class="st0" d="M394.5,119.8h-7.1V44.7h7.1V119.8z"/>
	</g>
</g>
<g>
	<g>
		<path class="st0" d="M74.3,158c-0.4,0-0.7-0.1-1.1-0.4L5.3,109c-0.7-0.5-1.1-1.4-1.1-2.3c0-1,0.4-1.9,1.1-2.3l33.9-24.3l2.2,4.7
			l-30.7,22l63.5,45.5l63.6-45.5l-30.7-22l2.2-4.7l33.9,24.3c0.7,0.5,1.1,1.4,1.1,2.3c0,1-0.4,1.9-1.1,2.3l-67.9,48.7
			C75,157.9,74.7,158,74.3,158z"/>
	</g>
	<g>
		<path class="st0" d="M74.3,109.3c-0.4,0-0.7-0.1-1.1-0.4L5.3,60.2c-0.7-0.5-1.1-1.4-1.1-2.3s0.4-1.9,1.1-2.3L73.2,6.9
			c0.7-0.5,1.5-0.5,2.2,0l67.9,48.7c0.7,0.5,1.1,1.4,1.1,2.3s-0.4,1.9-1.1,2.3L75.4,109C75,109.2,74.7,109.3,74.3,109.3z M10.7,58
			l63.5,45.5L137.8,58L74.2,12.5L10.7,58z"/>
	</g>
	<g>
		<rect x="4.2" y="58" class="st0" width="4.3" height="48.7"/>
	</g>
</g>
</svg>
