<?xml version="1.0" encoding="utf-8"?>
<!-- Generator: Adobe Illustrator 21.1.0, SVG Export Plug-In . SVG Version: 6.00 Build 0)  -->
<svg version="1.1" id="Layer_1" xmlns="http://www.w3.org/2000/svg" xmlns:xlink="http://www.w3.org/1999/xlink" x="0px" y="0px"
	 viewBox="0 0 612 792" style="enable-background:new 0 0 612 792;" xml:space="preserve">
<style type="text/css">
	.st0{fill:#FFFFFF;}
</style>
<path class="st0" d="M214.5,321.1l-0.6-0.3l-41.1-30l-69,51.8l13.2,9.6l0,0l56.6,41.3l69.1-51.9L214.5,321.1z M122.7,332.8
	l37.2-27.9l10.4,7.6L133,340.3L122.7,332.8z M183.6,362.1l-10.2,7.7l-37.5-27.4l37.2-27.9l24.2,17.7l-26.9,20.2L183.6,362.1z
	 M200.2,334.3l10.3,7.5l-24,18.1l-10.3-7.5L200.2,334.3z M215.4,342.6l0.7-0.6l0.2-0.2l-13.3-9.7l10.2-7.7l23.6,17.2l-37.2,27.9
	l-10.3-7.5L215.4,342.6z M200.2,330.1l-37.5-27.4l10.2-7.6l37.5,27.4L200.2,330.1z M119.8,334.9l10.4,7.6l-10.2,7.6l-10.4-7.6
	L119.8,334.9z M133.1,344.6l37.6,27.4l-10.2,7.6l-37.6-27.4L133.1,344.6z M186.6,364.3l10.3,7.5l-23.3,17.5l-10.3-7.5L186.6,364.3z"
	/>
<g>
	<g>
		<path class="st0" d="M341.4,395.6c0,0-8,9.9-24.8,9.9c-22,0-37.3-17.1-37.3-39.2c0-22.3,15.3-39.3,37.3-39.3
			c16.8,0,24.8,9.8,24.8,9.8l-4,5.5c0,0-7.6-8.5-20.6-8.5c-17.8,0-30,14.8-30,32.5c0,17.6,12.3,32.4,30,32.4c13,0,20.6-8.5,20.6-8.5
			L341.4,395.6z"/>
		<path class="st0" d="M437.5,403.8H432l-49.2-62.9v62.9h-7.1v-75.1h5.8l48.9,62.6v-62.6h7.1V403.8z"/>
		<path class="st0" d="M493.5,403.8h-7.1v-75.1h7.1V403.8z"/>
	</g>
</g>
<g>
	<g>
		<path class="st0" d="M173.3,442c-0.4,0-0.7-0.1-1.1-0.4L104.3,393c-0.7-0.5-1.1-1.4-1.1-2.3c0-1,0.4-1.9,1.1-2.3l33.9-24.3
			l2.2,4.7l-30.7,22l63.5,45.5l63.6-45.5l-30.7-22l2.2-4.7l33.9,24.3c0.7,0.5,1.1,1.4,1.1,2.3c0,1-0.4,1.9-1.1,2.3l-67.9,48.7
			C174,441.9,173.7,442,173.3,442z"/>
	</g>
	<g>
		<path class="st0" d="M173.3,393.3c-0.4,0-0.7-0.1-1.1-0.4l-67.9-48.7c-0.7-0.5-1.1-1.4-1.1-2.3s0.4-1.9,1.1-2.3l67.9-48.7
			c0.7-0.5,1.5-0.5,2.2,0l67.9,48.7c0.7,0.5,1.1,1.4,1.1,2.3s-0.4,1.9-1.1,2.3L174.4,393C174,393.2,173.7,393.3,173.3,393.3z
			 M109.7,342l63.5,45.5l63.6-45.5l-63.6-45.5L109.7,342z"/>
	</g>
	<g>
		<path class="st0" d="M105.4,342"/>
	</g>
	<g>
		<rect x="103.2" y="342" class="st0" width="4.3" height="48.7"/>
	</g>
</g>
</svg>
