<svg xmlns="http://www.w3.org/2000/svg" role="img" viewBox="-3.80 -1.30 405.86 166.86"><style>svg {enable-background:new 0 0 400 164}</style><style>.st0{fill:#fff}</style><path d="M115.5 37.1l-.6-.3-41.1-30-69 51.8L18 68.2l56.6 41.3 69.1-51.9-28.2-20.5zM23.7 48.8l37.2-27.9 10.4 7.6L34 56.3l-10.3-7.5zm60.9 29.3l-10.2 7.7-37.5-27.4 37.2-27.9 24.2 17.7-26.9 20.2 13.2 9.7zm16.6-27.8l10.3 7.5-24 18.1-10.3-7.5 24-18.1zm15.2 8.3l.7-.6.2-.2-13.3-9.7 10.2-7.7 23.6 17.2-37.2 27.9L90.3 78l26.1-19.4zm-15.2-12.5L63.7 18.7l10.2-7.6 37.5 27.4-10.2 7.6zm-80.4 4.8l10.4 7.6L21 66.1l-10.4-7.6 10.2-7.6zm13.3 9.7L71.7 88l-10.2 7.6-37.6-27.4 10.2-7.6zm53.5 19.7l10.3 7.5-23.3 17.5-10.3-7.5 23.3-17.5zm154.8 31.3s-8 9.9-24.8 9.9c-22 0-37.3-17.1-37.3-39.2 0-22.3 15.3-39.3 37.3-39.3 16.8 0 24.8 9.8 24.8 9.8l-4 5.5s-7.6-8.5-20.6-8.5c-17.8 0-30 14.8-30 32.5 0 17.6 12.3 32.4 30 32.4 13 0 20.6-8.5 20.6-8.5l4 5.4zm96.1 8.2H333l-49.2-62.9v62.9h-7.1V44.7h5.8l48.9 62.6V44.7h7.1v75.1zm56 0h-7.1V44.7h7.1v75.1z" class="st0"/><path d="M74.3 158c-.4 0-.7-.1-1.1-.4L5.3 109c-.7-.5-1.1-1.4-1.1-2.3 0-1 .4-1.9 1.1-2.3l33.9-24.3 2.2 4.7-30.7 22 63.5 45.5 63.6-45.5-30.7-22 2.2-4.7 33.9 24.3c.7.5 1.1 1.4 1.1 2.3 0 1-.4 1.9-1.1 2.3l-67.9 48.7c-.3.2-.6.3-1 .3z" class="st0"/><path d="M74.3 109.3c-.4 0-.7-.1-1.1-.4L5.3 60.2c-.7-.5-1.1-1.4-1.1-2.3s.4-1.9 1.1-2.3L73.2 6.9c.7-.5 1.5-.5 2.2 0l67.9 48.7c.7.5 1.1 1.4 1.1 2.3s-.4 1.9-1.1 2.3L75.4 109c-.4.2-.7.3-1.1.3zM10.7 58l63.5 45.5L137.8 58 74.2 12.5 10.7 58z" class="st0"/><path d="M4.2 58h4.3v48.7H4.2z" class="st0"/></svg>