<?xml version="1.0" encoding="UTF-8"?><svg id="Layer_1" xmlns="http://www.w3.org/2000/svg" xmlns:xlink="http://www.w3.org/1999/xlink" viewBox="0 0 400 245"><defs><style>.cls-1{fill-rule:evenodd;}.cls-2{opacity:.8;}.cls-3{clip-path:url(#clippath);}</style><clipPath id="clippath"><rect x="147.60001" y="35.9053" width=".7" height="136.60001"/></clipPath></defs><path d="M106.6,152.6053c.7-.2,1.6-.39999,2.8-.60001,1.2-.2,2.3-.3,3.5-.3,1,0,2.1.10001,3.1.5.8.3,1.4.8,1.9,1.39999.5.60001.8,1.39999,1,2.10001.2.89999.3,1.8.3,2.8v8.3h-4.1v-7.89999c.1-1-.1-1.89999-.5-2.8-.3-.5-1-.8-2-.8-.3,0-.6,0-.9.10001-.3,0-.6.10001-.9.10001v11.3h-4.2s0-14.20001,0-14.20001ZM99,159.40531c0-1.10001-.2-2.10001-.7-3-1-1.2-2.7-1.39999-4-.5-.2.10001-.3.3-.5.5-.6.89999-.9,2-.8,3,0,1.10001.2,2.2.8,3.10001.9,1.2,2.6,1.5,3.8.60001.2-.2.5-.39999.6-.60001.49999-.90001.8-2.00002.8-3.10001M103.2,159.40531c0,1.10001-.1,2.10001-.5,3.2-.3.89999-.8,1.8-1.5,2.5-1.3,1.5-3.3,2.2-5.2,2.10001-1,0-2-.2-3-.5-.9-.39999-1.6-.89999-2.3-1.60001-.7-.7-1.2-1.60001-1.5-2.5-.7-2-.7-4.3,0-6.3.3-.89999.8-1.7,1.5-2.39999.6-.7,1.4-1.2,2.3-1.5.9-.39999,1.9-.60001,2.9-.5,1,0,2,.2,2.9.5.8.39999,1.6.89999,2.3,1.5.6.7,1.1,1.5,1.5,2.39999.39999,1,.59999,2,.59999,3.10001M80.6,167.20531c-3.2,0-5.6-.89999-7.2-2.60001-1.7-1.7-2.5-4.2-2.5-7.5,0-1.5.2-2.89999.7-4.3.9-2.39999,2.8-4.3,5.2-5.10001,1.3-.5,2.6-.7,4-.7.7,0,1.5.10001,2.2.2.7.10001,1.3.3,1.7.39999.4.10001.9.3,1.3.5.3.10001.5.2.7.39999l-1.3,3.5c-.7-.39999-1.4-.60001-2.1-.8-.9-.2-1.8-.3-2.7-.3-.7,0-1.3.10001-1.9.3s-1.2.60001-1.7,1.10001c-.5.60001-.9,1.2-1.2,1.89999-.3.89999-.5,1.89999-.5,2.8,0,.8.1,1.7.3,2.5.2.7.5,1.39999.9,2,.5.60001,1.1,1,1.7,1.3.8.3,1.7.5,2.6.5.6,0,1.1-.10001,1.7-.10001.5,0,.9-.10001,1.3-.3.3-.10001.7-.2,1-.3s.5-.3.8-.3l1.2,3.5c-.8.5-1.7.8-2.6,1-1.1.30003-2.3.40004-3.6.40004M64,158.0053c0-.3-.1-.7-.2-1-.1-.3-.3-.60001-.5-.89999-.2-.3-.5-.5-.8-.7-.4-.2-.8-.3-1.2-.3s-.8.10001-1.2.3c-.3.10001-.6.3-.8.60001s-.4.60001-.5.89999c-.1.3-.2.7-.3,1.10001l5.5-.00002h0ZM54.2,159.5053c0-1.2.2-2.3.6-3.39999.3-.89999.9-1.7,1.6-2.39999.6-.60001,1.4-1.10001,2.2-1.5.8-.3,1.7-.5,2.6-.5,1.8-.10001,3.7.60001,5,1.89999,1.2,1.3,1.8,3.2,1.8,5.60001v.8c0,.3-.1.5-.1.7h-9.5c0,.8.5,1.60001,1.2,2,.8.5,1.8.8,2.8.7.7,0,1.5-.10001,2.2-.2.6-.10001,1.2-.3,1.8-.5l.5,3.39999c-.3.10001-.6.2-.9.3-.4.10001-.8.2-1.3.3s-.9.10001-1.5.2c-.5.10001-1,.10001-1.5.10001-1.2,0-2.3-.2-3.4-.60001-.9-.3-1.7-.89999-2.4-1.60001-.7-.7-1.2-1.5-1.4-2.39999-.09999-.90001-.29999-1.90001-.29999-2.90001M51.5,159.5053c0,1.10001-.2,2.10001-.5,3.2-.3.89999-.8,1.7-1.5,2.39999s-1.5,1.2-2.4,1.5c-1,.39999-2.1.5-3.2.5-.5,0-1.1,0-1.6-.10001l-1.6-.2c-.5-.10001-1-.10001-1.5-.3-.5-.10001-.9-.2-1.3-.3v-20.5l4.1-.59998v7.3c.5-.2,1-.39999,1.5-.5s1.1-.2,1.6-.10001c.9,0,1.9.2,2.8.5.8.3,1.5.89999,2,1.5.6.7,1,1.5,1.2,2.39999.3,1.10001.4,2.20001.4,3.3M47.3,159.3053c0-2.7-1-4-3-4-.4,0-.9.10001-1.3.10001-.3.10001-.7.2-1,.39999v7.60001c.3.10001.5.10001.8.10001s.7.10001,1,.10001c1,.10001,1.9-.39999,2.6-1.10001.6-1.00002.9-2.10001.9-3.20001M33.7,166.3053c-.7.2-1.6.39999-2.8.60001-1.2.2-2.3.3-3.5.3-1.1,0-2.1-.10001-3.1-.5-.8-.3-1.4-.8-1.9-1.39999-.5-.60001-.8-1.39999-1-2.10001-.2-.89999-.3-1.8-.3-2.8v-8.2h4.1v7.7c-.1,1,.1,2,.5,2.89999.3.60001,1,.89999,2,.89999.3,0,.6,0,.9-.10001.3,0,.6-.10001.9-.10001v-11.3h4.2v14.10002ZM14.5,166.8053c-.4-.60001-.9-1.3-1.4-2.10001s-1.1-1.5-1.7-2.2c-.6-.7-1.3-1.39999-1.9-2.10001-.6-.60001-1.3-1.2-2-1.8v8.2H3v-19.3h4.4v7.3c1.1-1.2,2.3-2.39999,3.4-3.8,1.1-1.3,2.2-2.5,3.2-3.60001h5.2c-1.3,1.5-2.6,3.10001-4,4.5-1.3,1.5-2.8,2.89999-4.2,4.39999,1.6,1.39999,3.1,2.89999,4.5,4.60001,1.5,1.89999,2.9,3.8,4.2,5.8h-5.2v.10002Z"/><path class="cls-1" d="M49.4,81.40531l-2.4.6c0-.3-.1-.7-.1-1,0-2.6.7-5.1,2-7.2l4.7,4.2c.1.1.2.2.3.2-.3.7-.5,1.5-.5,2.2-.1.1-.3.1-.5.1l-3.5.90001ZM58.5,67.2053v6.6c-.7.2-1.3.5-1.8.9-.2-.1-.4-.3-.6-.5l-4.8-3.4c2-1.89999,4.5-3.2,7.2-3.6M25.9,82.40531c2.3-10,4.2-18.5,6.5-28.5,1-4.5,1.7-5.7,5.8-8.1,5.6-3.3,9.9-5.6,15.9-9.1,3.8-2.1,4.5-2,4.5,2.6v23.2c-4.2.5-8.1,2.5-11,5.6l-2-1.4c-.2-.1-.4-.4-.5-.7-.2-.6-.6-1.2-1.1-1.6-.9-.8-2.3-.6-3.1.3s-.6,2.3.3,3.1c.3.3.7.5,1.1.5.3.1.5.1.8.1.2,0,.4.1.6.3l1.9,1.7c-2.1,3.1-3.2,6.7-3.2,10.3,0,.7.1,1.3.1,2l-4.1.9c-.3,0-.6,0-.9.1l-.5.29999c-2.7.5-5.4,1.1-8.1,1.7-3.7.9-3.9.1-3-3.3M63.3,73.8053v-6.6c2.7.5,5.2,1.7,7.2,3.6l-5.2,3.7q-.1.1-.2.1c-.50001-.3-1.10001-.59999-1.80001-.8M74.9,81.5053l-6.4-1.5c-.1-.7-.2-1.4-.5-2q.1-.1.2-.1l4.8-4.2c1.4,2.2,2.1,4.7,2.1,7.3-.2.09999-.3.29999-.2.49999M66.5,46.0053c3.5,1.7,6,2.9,9.5,4.6,4.8,2.3,9.7,4.7,14.6,7,1.2,5.2,2.4,10.5,3.6,15.7.7,3.2,1.1,4.8,1.8,7.9,1.1,4.9,1,5.3-4,4.2l-12.4-2.8c.1-.5.1-1.1.1-1.6,0-3.7-1.1-7.4-3.2-10.4l1.7-1.6c.2-.2.5-.3.7-.3.7,0,1.3-.3,1.8-.7.9-.8,1.1-2.1.3-3.1-.8-.9-2.1-1.1-3.1-.3h0c-.3.2-.6.6-.8.9-.1.3-.2.5-.3.7-.1.2-.2.4-.4.5l-2,1.4c-2.9-3.1-6.8-5-11-5.6v-14.19999c-.09999-3.3.2-3.7,3.10001-2.3M62.2,88.3053c-.4.1-.8.1-1.3.1-.4,0-.8,0-1.2-.1l-.2.4-3,5.4c1.4.5,2.9.7,4.4.7s3-.3,4.5-.7l-3-5.4c0-.1-.1-.2-.2-.4M67.4,84.7053l6.4,1.5c-1.1,2.6-2.9,4.8-5.2,6.4l-2.6-6.2c.59999-.5.99999-1.10001,1.39999-1.7M48,86.1053l6.4-1.5c.4.6.9,1.2,1.4,1.7l-.2.4-2.3,5.8c-2.4-1.5-4.2-3.7-5.3-6.4M100.8,97.5053c-3.1,3.8-4.5,5.6-7.6,9.5-3.5,4.4-6.3,7.9-9.8,12.3-2.5,3.2-4.3,3.2-8.4,3.2h-28.2c-5.4,0-5.8,0-9.1-4.2-3.3-4.1-5.8-7.3-9.1-11.4-2.6-3.2-3.2-4-5.8-7.2-4-5-4.6-6.8,1.5-8.1l19.1-4.3c1.5,4,4.3,7.4,8,9.7l-.9,2c-.1.3-.3.5-.5.6-.6.3-1.1.8-1.3,1.4-.5,1.1-.1,2.4,1,3,1.1.5,2.4.1,3-1h0c.2-.4.3-.8.3-1.2,0-.3,0-.5-.1-.8,0-.2,0-.5.1-.7l1.1-1.9c2.1.8,4.4,1.2,6.6,1.2,2.3,0,4.6-.4,6.7-1.3l1.1,1.9c.1.2.2.5.1.8-.1.6,0,1.3.3,1.9.5,1.1,1.9,1.5,3,1s1.5-1.9,1-3h0c-.2-.4-.4-.7-.7-1-.2-.2-.4-.3-.7-.5-.2-.1-.3-.3-.4-.5l-.9-2.1c3.7-2.2,6.5-5.6,7.9-9.7l21,4.8c4.40001.99999,4.10001,2.49999,1.70001,5.59999"/><path class="cls-1" d="M63.3,73.8053v-6.6c2.7.5,5.2,1.7,7.2,3.6l-5.2,3.7q-.1.1-.2.1c-.50001-.3-1.10001-.59999-1.80001-.8M74.9,81.5053l-6.4-1.5c-.1-.7-.2-1.4-.5-2q.1-.1.2-.1l4.8-4.2c1.4,2.2,2.1,4.7,2.1,7.3-.2.09999-.3.29999-.2.49999M66.5,46.0053c3.5,1.7,6,2.9,9.5,4.6,4.8,2.3,9.7,4.7,14.6,7,1.2,5.2,2.4,10.5,3.6,15.7.7,3.2,1.1,4.8,1.8,7.9,1.1,4.9,1,5.3-4,4.2l-12.4-2.8c.1-.5.1-1.1.1-1.6,0-3.7-1.1-7.4-3.2-10.4l1.7-1.6c.2-.2.5-.3.7-.3.7,0,1.3-.3,1.8-.7.9-.8,1.1-2.1.3-3.1-.8-.9-2.1-1.1-3.1-.3h0c-.3.2-.6.6-.8.9-.1.3-.2.5-.3.7-.1.2-.2.4-.4.5l-2,1.4c-2.9-3.1-6.8-5-11-5.6v-14.19999c-.09999-3.3.2-3.7,3.10001-2.3M67.4,84.7053l6.4,1.5c-1.1,2.6-2.9,4.8-5.2,6.4l-2.6-6.2c.59999-.5.99999-1.10001,1.39999-1.7M60.9,94.8053v-6.4c.4,0,.9-.1,1.3-.1.1.2.2.3.3.5l3,5.4c-1.6.4-3.1.6-4.6.6M100.8,97.5053c-3.1,3.8-4.5,5.6-7.6,9.5-3.5,4.4-6.3,7.9-9.8,12.3-2.5,3.2-4.3,3.2-8.4,3.2h-14v-23c2.3,0,4.6-.4,6.7-1.3l1.1,1.9c.1.2.2.5.1.8-.1.6,0,1.3.3,1.9.5,1.1,1.9,1.5,3,1s1.5-1.9,1-2.9c-.2-.4-.4-.7-.7-1-.2-.2-.4-.3-.7-.5-.2-.1-.3-.3-.4-.5l-.9-2.1c3.7-2.2,6.5-5.6,7.9-9.7l21,4.8c4.1.99999,3.8,2.49999,1.4,5.59999"/><path d="M256.5,96.7053h-11.10001v26h26v-11.1h-14.79999c-.10001,0-.10001-14.9-.10001-14.9ZM312.29999,96.7053v14.8h-14.79999l-.10001-.1v11.3h26v-26h-11.10001ZM245.3,70.6053h11.2l-.10001-.1v-14.8h14.79999l.10001.1v-11.2h-26s.00002,26,.00002,26ZM297.39999,44.6053v11.1h14.89999v14.9h11.10001v-26h-26Z"/><g class="cls-2"><path d="M296,70.6053l-14.89999-14.9h16.20001v-11.1h-26v11.3l14.79999,14.8c.10001-.1,9.89999-.1,9.89999-.1ZM282.60001,96.7053h-9.89999l12.39999,12.4,2.60001,2.6h-16.29999v11.1h26v-11.3l-7.39999-7.4-7.40002-7.39999ZM312.29999,70.6053v16.2l-2.60001-2.6-12.39999-12.3v9.9l7.5,7.4,7.39999,7.4h11.20001v-26h-11.10001ZM271.29999,85.40531l-14.79999-14.8h-11.3v26h11.2v-16.2l14.79999,14.8v-9.8h.10001Z"/></g><path d="M190.8,151.1053l-2.8,3.39999c-1.2-1.5-2.89999-2.39999-4.8-2.5-3,0-5.39999,2.39999-5.39999,5.39999v.2c0,3.2,2.3,5.60001,5.39999,5.60001,1.8-.10001,3.60001-.89999,4.8-2.3l2.89999,3c-2.10001,2.10001-4.89999,3.39999-7.89999,3.5-5.8,0-10.10001-4.2-10.10001-9.89999,0-5.60001,4.39999-9.7,10.3-9.7,2.90001.10001,5.60001,1.3,7.60001,3.3h0ZM193.2,167.20531v-20.3h4.8v20.3h-4.8ZM216.8,159.8053c0,4.60001-3.2,7.60001-8.10001,7.60001s-8.10001-3-8.10001-7.60001,3.2-7.5,8.10001-7.5,8.10001,3,8.10001,7.5h0ZM205.39999,159.90531c0,2.3,1.3,3.8,3.3,3.8,1.89999,0,3.3-1.5,3.3-3.8s-1.3-3.8-3.3-3.8c-1.89999,0-3.3,1.5-3.3,3.8h0ZM233.8,167.20531h-4.8v-2.39999c-1,1.7-2.89999,2.7-4.8,2.60001-3.2,0-5.3-2.2-5.3-5.60001v-9.3h4.8v8c0,1.7.89999,2.8,2.5,2.8,1.8,0,2.89999-1.5,2.89999-3.5v-7.3h4.8v14.7h-.09999ZM252.5,167.20531h-4.8v-1.89999c-1.10001,1.39999-2.7,2.2-4.39999,2.10001-4.2,0-6.89999-3.10001-6.89999-7.7,0-4.5,2.7-7.5,6.8-7.5,1.8-.10001,3.5.7,4.60001,2.10001v-7.5h4.8v20.39998h-.10002ZM247.7,159.90531c0-2.3-1.3-3.8-3.3-3.8-1.89999,0-3.3,1.5-3.3,3.8s1.3,3.89999,3.3,3.89999c2-.09999,3.3-1.59999,3.3-3.89999ZM269.79999,167.20531l-8.89999-11.8v11.8h-4.60001v-19.2h4.29999l8.89999,11.89999v-11.89999h4.60001v19.2h-4.29999ZM291.10001,157.5053v9.7h-4.60001v-1.7c-.89999,1.3-2.60001,1.89999-4.5,1.89999-3.20001,0-5.10001-1.89999-5.10001-4.60001,0-2.8,2-4.39999,5.70001-4.5h3.89999v-.19998c0-1.5-.89999-2.3-2.89999-2.3-1.5.10001-3.10001.5-4.39999,1.2l-1.29999-3.2c2.10001-1.10001,4.5-1.7,6.79999-1.7,4,.10001,6.39999,2.10001,6.39999,5.39999ZM286.39999,162.20531v-1.3h-3c-1.39999,0-2.10001.5-2.10001,1.60001s.70001,1.7,2.10001,1.7c1.30002.09999,2.60001-.70001,3-2ZM303.89999,166.5053c-1.20001.7-2.60001,1-4,1-2.89999,0-4.89999-1.60001-4.89999-4.7v-6.5h-2.10001v-3.10001h2.10001v-4.09999h4.70001v4.10001h3.89999v3.2h-3.89999v5.8c0,1.10001.5,1.7,1.29999,1.60001.60001-.10001,1.20001-.2,1.79999-.5l1.10001,3.19998ZM311.10001,148.20531c.10001,1.39999-1,2.5-2.39999,2.5h-.10001c-1.39999,0-2.5-1.2-2.5-2.60001s1.10001-2.5,2.5-2.5c1.29999-.10001,2.39999.89999,2.5,2.2v.40001h0ZM306.20001,167.20531v-14.8h4.70001v14.8h-4.70001ZM318.29999,167.20531l-5.60001-14.8h4.89999l3.20001,10.5,3.20001-10.5h4.70001l-5.60001,14.8h-4.80002ZM344.39999,161.1053h-10.39999c.29999,1.60001,1.79999,2.8,3.5,2.8,1.29999,0,2.60001-.60001,3.60001-1.5l2.5,2.39999c-1.70001,1.8-4,2.7-6.39999,2.60001-4.79999,0-7.89999-3-7.89999-7.5,0-4.60001,3.20001-7.60001,7.70001-7.60001,5.09998,0,7.69998,3.40001,7.39996,8.8h0ZM339.89999,158.5053c.10001-1.5-1-2.89999-2.5-3h-.29999c-1.70001,0-2.79999,1.2-3.10001,3h5.89999ZM363.79999,151.1053l-2.79999,3.39999c-1.20001-1.5-2.89999-2.39999-4.79999-2.5-3,0-5.39999,2.39999-5.39999,5.39999v.2c0,3.2,2.29999,5.60001,5.39999,5.60001,1.79999-.10001,3.60001-.89999,4.79999-2.3l2.89999,3c-2.10001,2.10001-4.89999,3.39999-7.89999,3.5-5.79999,0-10.10001-4.2-10.10001-9.89999,0-5.60001,4.39999-9.7,10.29999-9.7,2.80002.10001,5.50003,1.3,7.60001,3.3ZM380.29999,159.8053c0,4.60001-3.20001,7.60001-8.10001,7.60001-4.79999,0-8.10001-3-8.10001-7.60001s3.20001-7.5,8.10001-7.5,8.10001,3,8.10001,7.5ZM369,159.90531c0,2.3,1.29999,3.8,3.29999,3.8,1.89999,0,3.29999-1.5,3.29999-3.8s-1.29999-3.8-3.29999-3.8-3.29999,1.5-3.29999,3.8h0ZM398,157.90531v9.3h-4.70001v-8c0-1.7-1-2.8-2.60001-2.8-1.70001,0-2.79999,1.2-3,3v7.89999h-4.79999v-14.8h4.79999v2.39999c1-1.7,3-2.7,5-2.60001,3.10001-.09998,5.30002,2.10002,5.30002,5.60002h0Z"/><g id="b"><path d="M147.60001,35.9053h.7v136.60001h-.7V35.9053Z"/></g><path d="M147.60001,35.9053h.7v136.60001h-.7V35.9053Z"/><path d="M147.60001,35.9053h.7v136.60001h-.7V35.9053Z"/><rect id="SVGID" x="147.60001" y="35.9053" width=".7" height="136.60001"/><rect x="147.60001" y="35.9053" width=".7" height="136.60001"/><g class="cls-3"><path d="M147.60001,35.9053h.7v136.60001h-.7V35.9053Z"/></g><path d="M271.40002,196.5053h126.59998v.5h-126.59998v-.5Z"/><path d="M2,196.5053h125.56668v.5H2v-.5Z"/><path d="M131.3457,200.64404l2.54785-2.47949c.45508.90967,1.43359,1.54688,2.36621,1.54688,1.22852,0,2.11572-.91016,2.11572-2.20654v-10.16992h3.86768v10.53369c0,3.13965-2.2749,5.36914-5.50537,5.36914-2.07031,0-4.3003-1.06934-5.39209-2.59375Z"/><path d="M155.8457,195.98047v6.98438h-3.7085v-1.02393c-.81885.8418-2.04736,1.29688-3.25342,1.29688-2.52539,0-4.43652-1.52441-4.43652-3.75391,0-2.29785,2.16162-3.91309,4.93701-3.91309.86475,0,1.84277.20459,2.75293.56885v-.15918c0-1.1377-.8418-1.97949-2.5708-1.97949-1.04639,0-2.0249.2959-2.93506.75098l-1.22852-2.47998c1.63818-.81885,3.32178-1.34229,5.14209-1.34229,3.02588,0,5.30078,1.91113,5.30078,5.05078ZM152.13721,199.25635v-.81885c-.63672-.2959-1.41064-.45508-2.20654-.45508-1.02393,0-1.82031.59131-1.82031,1.3877s.72803,1.31982,1.68359,1.31982c1.16016,0,2.18408-.54639,2.34326-1.43359Z"/><path d="M171.63184,197.07227c0,3.61768-2.25244,6.16553-5.39209,6.16553-1.59277,0-2.93506-.65967-3.86768-1.79736v5.4375h-3.84473v-15.67529h3.84473v1.52441c.93262-1.1377,2.2749-1.79736,3.86768-1.79736,3.13965,0,5.39209,2.54785,5.39209,6.14258ZM167.92334,197.07227c0-1.70605-1.18311-2.93457-2.8667-2.93457-1.56982,0-2.68457,1.22852-2.68457,2.93457,0,1.729,1.11475,2.95752,2.68457,2.95752,1.68359,0,2.8667-1.22852,2.8667-2.95752Z"/><path d="M184.3916,195.98047v6.98438h-3.7085v-1.02393c-.81885.8418-2.04736,1.29688-3.25342,1.29688-2.52539,0-4.43652-1.52441-4.43652-3.75391,0-2.29785,2.16162-3.91309,4.93701-3.91309.86475,0,1.84277.20459,2.75293.56885v-.15918c0-1.1377-.8418-1.97949-2.5708-1.97949-1.04639,0-2.0249.2959-2.93506.75098l-1.22852-2.47998c1.63818-.81885,3.32178-1.34229,5.14209-1.34229,3.02588,0,5.30078,1.91113,5.30078,5.05078ZM180.68311,199.25635v-.81885c-.63672-.2959-1.41064-.45508-2.20654-.45508-1.02393,0-1.82031.59131-1.82031,1.3877s.72803,1.31982,1.68359,1.31982c1.16016,0,2.18408-.54639,2.34326-1.43359Z"/><path d="M198.69873,195.47998v7.48486h-3.7085v-6.62061c0-1.29688-.81885-2.20654-2.00195-2.20654s-2.07031.88721-2.07031,2.04736v6.77979h-3.84473v-11.76221h3.84473v1.31934c.72803-.97803,1.95654-1.59229,3.43555-1.59229,2.54785,0,4.34521,1.88818,4.34521,4.55029Z"/><path d="M207.08984,199.80225l5.77832-4.32227c1.75195-1.31982,2.25244-2.18408,2.25244-3.13965,0-1.06934-.93262-1.75195-2.07031-1.75195-1.45605,0-2.54785.70508-3.73096,1.95654l-2.43457-2.41162c1.66113-2.00195,3.68555-3.07129,6.25635-3.07129,3.50391,0,5.96094,2.13867,5.96094,5.11914,0,2.07031-.86475,3.68555-3.59473,5.55078l-2.45703,1.75195h6.21094v3.48096h-12.17139v-3.1626Z"/><path d="M221.35156,195.13867c0-4.73242,2.98047-8.07666,7.18945-8.07666,4.23145,0,7.21191,3.34424,7.21191,8.07666,0,4.75488-2.98047,8.09912-7.21191,8.09912-4.20898,0-7.18945-3.34424-7.18945-8.09912ZM231.74854,195.13867c0-2.66211-1.31934-4.55029-3.20752-4.55029-1.86572,0-3.18506,1.88818-3.18506,4.55029,0,2.66162,1.31934,4.57275,3.18506,4.57275,1.88818,0,3.20752-1.91113,3.20752-4.57275Z"/><path d="M237.729,199.80225l5.77832-4.32227c1.75195-1.31982,2.25244-2.18408,2.25244-3.13965,0-1.06934-.93262-1.75195-2.07031-1.75195-1.45605,0-2.54785.70508-3.73096,1.95654l-2.43457-2.41162c1.66113-2.00195,3.68555-3.07129,6.25635-3.07129,3.50391,0,5.96094,2.13867,5.96094,5.11914,0,2.07031-.86475,3.68555-3.59473,5.55078l-2.45703,1.75195h6.21094v3.48096h-12.17139v-3.1626Z"/><path d="M265.04932,197.75488c0,3.29883-2.66211,5.48291-6.14258,5.48291-4.66406,0-6.89355-3.20801-6.89355-7.80371,0-4.95947,2.88916-8.37207,7.48486-8.37207,1.95654,0,3.57178.61426,4.91406,1.63818l-1.79736,2.93457c-.95557-.75049-1.84277-1.18311-3.09375-1.18311-1.86572,0-3.04883,1.31982-3.39014,3.54932.93311-.77344,2.27539-1.25146,3.64014-1.25146,2.88965,0,5.27832,1.88867,5.27832,5.00537ZM261.04492,197.91406c0-1.29688-1.13721-2.04736-2.47949-2.04736-1.06934,0-1.97949.59131-2.43457,1.52441.25049,1.70605.95557,2.54785,2.52539,2.54785,1.45605,0,2.38867-.91016,2.38867-2.0249Z"/></svg>