<?xml version="1.0" encoding="UTF-8"?><svg id="_层_1" xmlns="http://www.w3.org/2000/svg" xmlns:xlink="http://www.w3.org/1999/xlink" viewBox="0 0 367.53 309"><defs><style>.cls-1{fill:#152138;}.cls-2{fill:url(#_命名的渐变_32);}.cls-3{fill:url(#_命名的渐变_6);}</style><linearGradient id="_命名的渐变_6" x1="221.1" y1="63.3" x2="78.06" y2="288.81" gradientTransform="matrix(1, 0, 0, 1, 0, 0)" gradientUnits="userSpaceOnUse"><stop offset="0" stop-color="#d32f2f"/><stop offset="1" stop-color="#9b1f1f"/></linearGradient><linearGradient id="_命名的渐变_32" x1="167.02" y1="160.36" x2="282.29" y2="322.78" gradientTransform="matrix(1, 0, 0, 1, 0, 0)" gradientUnits="userSpaceOnUse"><stop offset="0" stop-color="#313951"/><stop offset="1" stop-color="#465079"/></linearGradient></defs><path class="cls-3" d="M37.51,309c-29.42,0-47.35-32.35-31.76-57.29L152.11,17.6c14.67-23.46,48.83-23.46,63.49,0l54.93,87.86c-15.18-21.95-48.19-21.44-62.52,1.54l-44.77,202H37.51Z"/><path class="cls-2" d="M330.03,308.99H149.42c-20.23,0-35.04-15.31-37.23-32.98-.96-7.79,.51-16.03,5.04-23.63,.14-.22,.27-.45,.41-.67L207.96,106.99c1.83-2.93,3.97-5.5,6.34-7.71,.89-.82,1.8-1.6,2.75-2.32,1.59-1.21,3.25-2.27,4.96-3.18,1.04-.55,2.08-1.05,3.16-1.5,.71-.3,1.44-.57,2.16-.82,1.1-.37,2.2-.71,3.32-.99,.75-.19,1.5-.34,2.25-.47,2.26-.41,4.54-.62,6.84-.62,.62,0,1.25,.01,1.87,.05,.14,0,.27,.01,.41,.02,.22,.01,.44,.02,.66,.04,.24,.02,.46,.05,.69,.06,.41,.04,.81,.09,1.21,.14,10.52,1.35,20.57,7.11,26.92,17.31l90.3,144.72c15.56,24.95-2.37,57.28-31.76,57.28Z"/><path class="cls-1" d="M120.59,276.02c-.96-7.79,.51-16.03,5.04-23.63,.14-.22,.27-.45,.41-.67L216.36,106.99c1.83-2.93,3.97-5.5,6.34-7.71,.89-.82,1.8-1.6,2.75-2.32,1.59-1.21,3.25-2.27,4.96-3.18,1.04-.55,2.08-1.05,3.16-1.5,.71-.3,1.44-.57,2.16-.82,1.1-.37,2.2-.71,3.32-.99,.75-.19,1.5-.34,2.25-.47,.89-.16,1.78-.28,2.67-.38-.2-.02-.39-.05-.59-.07-.22-.01-.45-.04-.69-.06-.22-.01-.44-.02-.66-.04-.14-.01-.27-.02-.41-.02-.62-.04-1.25-.05-1.87-.05-2.3,0-4.58,.21-6.84,.62-.75,.14-1.5,.29-2.25,.47-1.12,.27-2.22,.61-3.32,.99-.72,.25-1.45,.52-2.16,.82-1.07,.45-2.12,.95-3.16,1.5-1.71,.91-3.37,1.97-4.96,3.18-.95,.72-1.86,1.5-2.75,2.32-2.37,2.21-4.51,4.78-6.34,7.71L117.65,251.71c-.14,.22-.27,.45-.41,.67-4.53,7.6-6,15.84-5.04,23.63,2.2,17.66,17,32.98,37.23,32.98h8.39c-20.23,0-35.04-15.31-37.23-32.98Z"/></svg>