<svg width="3669" height="1064" viewBox="0 0 3669 1064" fill="none" xmlns="http://www.w3.org/2000/svg">
<path fill-rule="evenodd" clip-rule="evenodd" d="M879.175 595.051L824.283 355.776C819.859 336.875 807.594 321.393 790.101 312.948L568.117 206.38C559.873 202.559 550.423 200.146 541.375 200.146C532.327 200.146 522.876 202.358 514.23 206.38L291.242 312.948C273.547 321.192 261.282 336.674 257.059 355.776L201.765 595.051C197.341 613.952 201.765 633.456 214.03 648.737L368.051 840.359C379.914 855.238 398.011 863.683 416.71 863.683H663.626C682.527 863.683 700.423 855.439 712.286 840.359L866.307 648.737C878.572 633.858 882.996 613.952 878.572 595.051H878.974H879.175ZM491.308 384.328H509.404C514.632 384.328 519.056 380.106 519.056 374.677V289.221C519.056 283.993 523.278 279.57 528.707 279.57H551.831C557.058 279.57 561.482 283.792 561.482 289.221V374.677C561.482 379.905 565.705 384.328 571.133 384.328H589.23C596.67 384.328 601.294 392.371 597.675 398.805L548.613 483.658C544.994 490.092 535.544 490.092 531.924 483.658L482.863 398.805C479.244 392.371 483.868 384.328 491.308 384.328ZM394.19 562.277C388.962 562.277 384.539 566.499 384.539 571.928V590.025C384.539 597.464 376.496 602.089 370.062 598.47L285.209 549.408C278.775 545.789 278.775 536.338 285.209 532.719L370.062 483.658C376.496 480.038 384.539 484.663 384.539 492.103V510.199C384.539 515.427 388.761 519.85 394.19 519.85H479.646C484.874 519.85 489.297 524.073 489.297 529.502V552.625C489.297 557.853 485.075 562.277 479.646 562.277H394.19ZM589.23 697.799H571.334C566.107 697.799 561.683 702.021 561.683 707.45V792.906C561.683 798.134 557.461 802.557 552.032 802.557H528.908C523.681 802.557 519.257 798.335 519.257 792.906V707.45C519.257 702.223 515.034 697.799 509.606 697.799H491.509C484.069 697.799 479.445 689.756 483.064 683.322L532.126 598.47C535.745 592.035 545.195 592.035 548.814 598.47L597.876 683.322C601.495 689.756 596.871 697.799 589.431 697.799H589.23ZM795.328 549.408L710.476 598.47C704.042 602.089 695.999 597.464 695.999 590.025V571.928C695.999 566.7 691.776 562.277 686.348 562.277H600.892C595.664 562.277 591.241 558.054 591.241 552.625V529.502C591.241 524.274 595.463 519.85 600.892 519.85H686.348C691.575 519.85 695.999 515.628 695.999 510.199V492.103C695.999 484.663 704.042 480.038 710.476 483.658L795.328 532.719C801.763 536.338 801.763 545.789 795.328 549.408Z" fill="#002DC9"/>
<path d="M1176.74 508.792L1179.55 505.776C1187.59 496.929 1195.23 488.484 1202.88 480.039L1206.09 476.419C1210.72 471.191 1215.14 465.964 1219.56 460.937C1223.18 456.714 1226.8 452.492 1230.22 448.47C1237.86 439.824 1244.3 432.183 1249.52 425.347H1352.27C1333.37 447.465 1314.27 468.175 1296.17 488.081L1292.35 492.304C1273.05 513.416 1251.33 535.735 1228.21 558.255C1239.87 568.912 1251.94 580.977 1264 595.856C1266.82 599.274 1269.63 602.893 1272.45 606.312C1281.7 617.572 1290.74 628.832 1299.59 640.695C1311.25 656.177 1321.71 671.459 1331.36 686.941C1341.01 702.424 1349.26 716.298 1355.49 729.367H1256.16L1253.75 725.547C1248.12 716.499 1242.08 706.646 1234.85 695.99C1227.2 683.925 1218.36 671.459 1209.71 659.394C1201.07 647.33 1191.41 635.266 1181.76 624.207C1172.11 613.148 1162.06 603.497 1152.81 595.856V729.367H1066.35V294.851L1152.81 280.978V534.931C1160.65 526.687 1168.49 518.041 1176.53 508.993L1176.74 508.792Z" fill="#151927"/>
<path fill-rule="evenodd" clip-rule="evenodd" d="M1586.32 802.155C1611.86 778.027 1624.52 741.03 1624.52 691.365H1624.92V436.004C1617.28 433.591 1608.03 431.178 1598.38 429.167C1588.73 427.157 1578.08 425.347 1567.42 423.94L1564 423.537C1554.15 422.331 1544.5 420.923 1534.64 420.119C1523.58 418.712 1512.93 418.712 1502.27 418.712C1477.74 418.712 1456.02 422.13 1436.72 429.368C1417.42 436.607 1401.53 446.661 1388.06 459.73C1374.59 472.8 1364.94 488.685 1357.7 506.982C1350.46 525.28 1347.04 545.99 1347.04 568.108C1347.04 612.947 1358.71 647.531 1380.82 672.665C1402.94 697.196 1435.31 709.662 1477.34 709.662C1489 709.662 1500.06 708.255 1509.71 706.244C1519.36 703.831 1529.01 701.016 1538.26 696.593V707.652C1538.26 724.542 1533.04 738.416 1522.78 749.072C1512.12 760.131 1494.83 765.359 1470.1 765.359C1451.2 765.359 1434.31 763.349 1419.43 760.534C1404.55 757.719 1390.48 753.295 1377 748.067L1362.12 820.252C1378.01 825.48 1395.5 829.903 1413.8 833.321C1432.1 836.74 1451 838.147 1469.3 838.147C1522.38 838.147 1560.98 826.083 1586.52 801.954L1586.32 802.155ZM1493.02 639.689C1454.01 639.689 1434.71 615.561 1434.71 567.505C1434.71 544.381 1440.54 525.079 1451.6 510.199C1463.26 495.32 1480.15 487.478 1502.67 487.478C1510.31 487.478 1517.15 487.88 1522.98 488.484C1528.81 488.886 1533.64 489.489 1537.86 490.494V628.228C1532.63 631.647 1525.8 634.059 1518.16 636.472C1510.52 638.885 1501.67 639.891 1493.02 639.891V639.689Z" fill="#151927"/>
<path fill-rule="evenodd" clip-rule="evenodd" d="M1789 417.103C1814.54 417.103 1835.85 419.918 1852.74 425.749C1869.63 431.58 1883.1 439.623 1893.76 450.883C1903.81 461.54 1911.05 475.012 1915.47 490.293C1919.9 505.776 1921.71 523.068 1921.71 541.768V720.922C1909.84 723.737 1894.16 726.351 1873.65 729.971L1870.03 730.574C1847.91 734.394 1821.37 735.802 1790 735.802C1770.3 735.802 1752.4 733.791 1736.52 730.574C1720.64 727.357 1706.56 721.325 1695.1 713.684C1683.44 706.043 1674.79 695.386 1668.56 682.92C1662.32 670.453 1659.31 654.569 1659.31 636.271C1659.31 617.974 1662.73 603.497 1669.96 591.03C1677.2 578.564 1686.85 568.912 1698.52 561.674C1710.58 554.435 1724.05 549.207 1739.54 545.789C1755.02 542.371 1770.9 540.963 1787.79 540.963C1798.85 540.963 1809.11 540.963 1817.75 542.371C1826.4 543.376 1833.64 544.784 1839.07 546.191V537.947C1839.07 523.47 1834.64 511.406 1825.59 502.76C1816.95 494.114 1801.47 489.288 1779.35 489.288C1764.87 489.288 1750.39 490.293 1735.92 492.706C1721.44 495.119 1709.37 497.934 1698.72 501.955L1687.66 432.586H1688.46C1693.09 430.977 1699.12 429.167 1706.56 427.76C1714.2 425.749 1722.44 424.342 1731.09 422.934C1739.74 421.527 1749.39 420.521 1759.04 419.516C1768.69 418.511 1778.74 418.108 1789 418.108L1789.4 417.103H1789ZM1795.63 669.046C1804.28 669.046 1812.12 669.046 1819.76 668.644C1827.4 668.242 1833.84 667.638 1838.06 666.633V601.084C1835.65 600.48 1832.23 599.877 1828.01 599.475C1826.4 599.274 1824.59 599.073 1822.58 598.671C1815.74 597.665 1809.11 597.665 1803.28 597.665C1795.03 597.665 1787.39 597.665 1780.55 599.073C1773.32 600.078 1767.08 601.888 1761.65 604.301C1756.43 607.116 1752 610.534 1749.19 615.36C1746.37 620.185 1744.36 626.017 1744.36 632.652C1744.36 646.124 1748.78 655.373 1757.83 660.601C1767.08 665.829 1779.55 668.242 1795.03 668.242L1795.43 668.644L1795.63 669.046Z" fill="#151927"/>
<path d="M2044.16 335.669L1957.7 349.543H1958.1V605.306C1958.1 625.011 1959.51 642.907 1963.33 659.193C1966.75 675.48 1973.38 689.153 1982.63 700.614C1991.88 711.673 2004.35 720.922 2019.83 727.156C2035.31 733.389 2054.62 736.807 2078.14 736.807C2096.44 736.807 2112.32 734.796 2124.99 731.981C2137.46 728.563 2149.12 725.145 2159.78 720.922L2147.71 653.966C2139.47 656.781 2130.42 659.193 2120.77 661.204C2111.12 662.612 2101.46 663.617 2092.22 663.617C2072.91 663.617 2059.84 657.786 2053.61 647.33C2047.38 636.673 2043.96 622.196 2043.96 603.899V496.929H2147.71V425.146H2043.96V335.468L2044.16 335.669Z" fill="#151927"/>
<path fill-rule="evenodd" clip-rule="evenodd" d="M2159.98 579.569C2159.98 552.625 2164.4 528.899 2172.44 508.792C2180.69 488.484 2191.75 471.795 2205.22 458.122C2218.69 444.65 2234.17 434.596 2252.07 427.358C2269.36 420.521 2287.86 416.701 2306.16 416.701C2349.59 416.701 2383.37 429.771 2408.5 456.111C2433.64 482.652 2446.1 521.057 2446.1 572.733C2446.1 577.558 2446.1 583.389 2445.7 589.019C2445.7 592.035 2445.5 594.85 2445.1 597.665C2444.9 600.279 2444.69 602.491 2444.69 604.904H2248.85C2250.86 622.799 2258.9 636.673 2273.98 647.33C2288.46 657.987 2308.17 662.813 2332.9 662.813C2348.78 662.813 2364.27 661.405 2379.75 658.389C2395.23 655.574 2407.29 652.156 2416.95 647.732L2428.61 717.504C2423.78 719.917 2417.95 722.33 2410.31 724.341C2408.1 724.944 2405.89 725.547 2403.68 725.949C2397.84 727.558 2391.41 729.166 2384.77 730.574C2375.12 732.585 2365.07 733.992 2354.41 734.997C2343.76 736.003 2332.7 737.008 2322.04 737.008C2294.49 737.008 2270.97 733.188 2250.66 724.944C2230.35 716.7 2213.46 705.641 2200.39 691.767C2186.92 677.893 2177.27 661.003 2171.04 641.7C2164.8 622.397 2161.38 601.687 2161.38 579.167L2160.38 579.569H2159.98ZM2362.86 546.794C2362.86 539.556 2361.45 532.317 2359.04 525.682C2357.03 518.845 2353.81 512.612 2349.39 507.384C2344.96 502.156 2339.33 497.733 2332.5 493.912C2325.66 490.494 2317.62 488.685 2307.36 488.685C2297.11 488.685 2289.47 490.092 2282.23 493.51C2275.39 496.929 2269.76 501.151 2264.94 506.58C2260.11 511.808 2256.69 518.041 2254.28 525.28C2251.87 532.518 2249.86 539.757 2249.05 546.995H2362.86V546.794Z" fill="#151927"/>
<path d="M2641.74 642.102C2650.39 613.148 2658.63 584.194 2666.28 554.837C2673.92 584.194 2682.76 613.148 2691.81 642.102C2698.65 663.818 2705.89 685.534 2713.12 707.652C2715.54 714.89 2717.75 722.129 2720.16 729.367H2787.32C2794.56 713.081 2802.2 693.778 2810.44 671.459C2818.69 648.738 2827.33 624.81 2835.98 598.269C2844.22 573.336 2852.47 546.995 2860.91 519.449L2862.52 514.422C2871.77 485.065 2880.42 455.106 2889.06 425.347H2799.38C2796.57 439.221 2793.15 454.301 2789.33 470.588C2787.32 480.24 2785.11 490.092 2782.7 499.945C2781.09 506.982 2779.28 514.02 2777.87 521.057C2774.05 538.349 2769.63 556.245 2764.8 573.537C2762.99 579.77 2761.38 586.003 2759.77 592.237C2756.76 603.094 2753.94 613.751 2750.93 624.207C2746.1 607.317 2741.27 590.025 2736.45 572.129C2731.62 554.234 2727.2 536.942 2722.98 519.65C2719.96 508.189 2717.35 496.929 2714.73 485.87C2713.53 480.642 2712.32 475.213 2710.91 470.186C2709.91 466.366 2709.1 462.344 2708.1 458.725C2705.28 447.063 2702.47 436.004 2700.26 425.548H2637.52C2635.31 436.004 2632.7 447.264 2629.68 458.725C2628.67 462.545 2627.87 466.366 2626.87 470.186C2624.65 479.636 2622.04 489.288 2619.63 499.14C2618.02 505.776 2616.21 512.813 2614.4 519.65C2610.98 533.121 2607.36 546.794 2603.54 560.467C2602.54 564.288 2601.33 568.309 2600.32 572.129C2597.31 583.59 2593.89 594.85 2590.67 605.909C2588.86 611.942 2587.05 617.974 2585.44 624.006C2583.84 617.974 2582.23 611.942 2580.62 605.909C2577.8 595.253 2574.79 584.395 2571.97 573.537C2567.15 555.641 2562.72 538.349 2558.9 521.057C2555.08 503.765 2551.26 486.875 2547.24 470.387C2543.42 454.1 2540 439.02 2537.19 425.146H2446.5C2451.53 442.639 2456.76 460.132 2462.19 477.626C2465.81 489.891 2469.63 501.955 2473.05 514.221C2481.69 543.376 2490.74 570.923 2499.39 597.062V597.867C2508.43 624.408 2516.68 648.939 2524.72 671.057C2532.96 693.175 2540.61 712.477 2547.44 728.965H2614.6C2624.25 699.609 2633.5 670.654 2642.15 641.7L2641.74 642.102Z" fill="#151927"/>
<path fill-rule="evenodd" clip-rule="evenodd" d="M3018.75 417.103C3044.29 417.103 3065.6 419.918 3082.49 425.749C3099.38 431.58 3112.86 439.623 3123.51 450.883C3133.57 461.54 3140.8 475.012 3145.23 490.293C3149.45 505.776 3151.46 523.068 3151.46 541.768V720.922C3139.6 723.737 3123.71 726.351 3103.2 729.971L3099.79 730.574C3077.67 734.394 3051.13 735.802 3019.76 735.802C3000.05 735.802 2982.16 733.791 2966.07 730.574C2950.19 727.156 2936.11 721.325 2924.65 713.684C2913.19 706.043 2904.34 695.386 2898.11 682.92C2891.88 670.453 2888.86 654.569 2888.86 636.271C2888.86 617.974 2892.28 603.497 2899.52 591.03C2906.76 578.564 2916.41 568.912 2928.07 561.674C2940.13 554.435 2953.61 549.207 2969.09 545.789C2984.57 542.371 3000.46 540.963 3017.35 540.963C3028.41 540.963 3038.66 540.963 3047.31 542.371C3055.95 543.376 3063.19 544.784 3068.62 546.191V537.947C3068.62 523.47 3064.2 511.406 3055.15 502.76C3046.5 494.114 3031.02 489.288 3008.9 489.288C2994.42 489.288 2979.95 490.293 2965.47 492.706C2950.99 495.119 2938.93 497.934 2928.27 501.955L2917.21 432.586H2918.02C2922.64 430.977 2928.67 429.167 2936.11 427.76C2943.75 425.749 2952 424.342 2960.64 422.934C2969.29 421.527 2978.94 420.521 2988.59 419.516C2998.24 418.511 3008.3 418.108 3018.55 418.108L3018.95 417.103H3018.75ZM3025.99 669.046C3034.64 669.046 3042.48 669.046 3050.12 668.644C3057.76 668.242 3064.2 667.638 3068.42 666.633V601.084C3066.01 600.48 3062.59 599.877 3058.36 599.475C3056.76 599.274 3054.95 599.073 3052.94 598.671C3046.1 597.665 3039.46 597.665 3033.63 597.665C3025.39 597.665 3017.75 597.665 3010.91 599.073C3003.67 600.078 2997.44 601.888 2992.01 604.301C2986.78 607.116 2982.36 610.534 2979.54 615.36C2976.73 620.185 2974.72 626.017 2974.72 632.652C2974.72 646.124 2979.14 655.373 2988.19 660.601C2997.44 665.829 3009.91 668.242 3025.39 668.242L3025.79 668.644L3025.99 669.046Z" fill="#151927"/>
<path d="M3468.35 425.749H3380.08C3376.26 440.628 3371.84 457.116 3367.01 474.409C3362.18 491.701 3357.36 509.194 3352.13 527.491C3346.9 545.789 3341.47 563.081 3336.25 579.971C3330.41 596.861 3325.19 612.344 3320.36 626.218C3314.53 612.344 3308.7 596.861 3303.07 579.971C3296.84 562.679 3291 545.186 3285.17 527.491C3280.75 513.819 3276.53 500.146 3272.51 486.674C3271.3 482.652 3270.09 478.631 3268.89 474.61C3263.66 457.317 3259.24 440.83 3255.42 425.95H3163.73C3181.02 485.669 3199.92 539.556 3219.22 587.411C3238.53 635.065 3258.23 678.496 3278.14 716.901C3272.31 731.378 3265.07 742.839 3256.82 751.083C3248.58 759.327 3236.51 763.55 3221.03 763.55C3213.39 763.55 3205.55 762.544 3198.71 761.539C3192.08 760.534 3183.83 758.121 3174.99 755.306L3160.11 824.273C3167.35 827.088 3176.6 830.104 3188.06 832.517C3199.72 834.93 3212.18 836.338 3225.66 836.338C3241.54 836.338 3256.02 834.93 3268.08 831.11C3280.15 827.289 3291.21 821.458 3300.86 813.818C3310.51 806.177 3319.15 795.922 3327.4 783.858C3335.04 771.794 3343.28 756.914 3351.53 739.622C3374.25 691.365 3394.96 641.298 3413.86 590.226C3432.56 539.355 3450.86 484.462 3468.35 425.95V425.749Z" fill="#151927"/>
</svg>
