<?xml version="1.0" encoding="UTF-8"?><svg id="a" xmlns="http://www.w3.org/2000/svg" viewBox="0 0 570 653"><defs><style>.b{fill:#fff;}</style></defs><path class="b" d="M35.89941,620.69043c-7.78906,0-13.72298-2.16602-17.80175-6.49805-4.07862-4.33197-6.11801-10.48499-6.11817-18.45898-.06111-3.62384,.57254-7.22589,1.8667-10.61133,1.14087-2.95325,2.88293-5.63727,5.11572-7.88184,2.1991-2.16394,4.84044-3.82629,7.74268-4.87299,3.12475-1.12866,6.42587-1.69049,9.74805-1.65918,1.8531-.01471,3.70383,.13562,5.53027,.44922,1.47198,.25476,2.92662,.6012,4.35547,1.03711,1.06683,.32184,2.10693,.72644,3.11084,1.21002,.82959,.41406,1.42887,.73663,1.79785,.96777l-3.11133,8.71002c-1.64125-.84814-3.36766-1.5202-5.15039-2.00488-2.1752-.58038-4.4198-.85938-6.6709-.8291-1.65975,.00006-3.30758,.2804-4.874,.8291-1.59048,.55396-3.03307,1.46454-4.21729,2.66211-1.30395,1.35229-2.30544,2.96649-2.938,4.73535-.79154,2.26453-1.16626,4.65369-1.106,7.05176-.01529,2.08459,.22844,4.16302,.72559,6.1875,.42695,1.79456,1.22794,3.4787,2.35058,4.94238,1.13165,1.42169,2.59049,2.54846,4.252,3.28418,2.00779,.8576,4.17743,1.27039,6.35987,1.21002,1.41061,.01068,2.82013-.08167,4.21728-.27637,1.11725-.15857,2.22502-.37793,3.31836-.65723,.87375-.22101,1.7289-.51001,2.55762-.86426,.73682-.32129,1.40511-.62079,2.00488-.89844l2.97266,8.6416c-2.01886,1.12024-4.18219,1.95752-6.4292,2.48828-3.1419,.78229-6.37193,1.15411-9.6094,1.1062Z"/><path class="b" d="M91.34375,601.47168c.03074,2.66705-.39008,5.32007-1.24463,7.84668-.76039,2.25671-1.98491,4.32916-3.59473,6.08398-1.57739,1.68945-3.49865,3.02118-5.63427,3.90527-2.33666,.95013-4.84062,1.42041-7.3628,1.38281-2.49934,.03351-4.97983-.43677-7.29345-1.38281-2.13589-.88361-4.05725-2.21539-5.63428-3.90527-1.61613-1.76239-2.86209-3.83124-3.66406-6.08398-.90038-2.51678-1.34515-5.17389-1.31348-7.84668-.03372-2.66449,.42328-5.31244,1.34815-7.81152,.82711-2.23566,2.09692-4.28137,3.73339-6.01465,1.60241-1.6676,3.53229-2.9859,5.66846-3.87207,2.26797-.93695,4.7015-1.40729,7.15527-1.38281,2.47661-.02869,4.93364,.44159,7.22461,1.38281,2.12881,.88135,4.04846,2.20062,5.63428,3.87207,1.61448,1.73724,2.86083,3.7832,3.66406,6.01465,.90181,2.50427,1.34669,5.15009,1.31348,7.81152Zm-10.5083,0c.14531-2.63556-.51791-5.25269-1.90088-7.50098-1.21107-1.79211-3.2664-2.82617-5.42725-2.73047-2.16918-.09094-4.23254,.94061-5.46142,2.73047-1.40594,2.23975-2.08222,4.8606-1.93555,7.50098-.13926,2.6615,.53591,5.30225,1.93554,7.57031,1.20627,1.82336,3.27681,2.88483,5.46142,2.7998,2.17638,.08978,4.23895-.97424,5.42725-2.7998,1.3767-2.27643,2.03886-4.91351,1.90088-7.57031Z"/><path class="b" d="M119.27246,600.43457c0-3.31836-.42627-5.66895-1.27881-7.05176-.97206-1.44403-2.65688-2.23981-4.38965-2.07324-.646,0-1.31429,.03448-2.00488,.10352-.69141,.06934-1.3597,.15009-2.00488,.24219v28.06738h-10.30078v-35.11914c.875-.23047,1.90039-.47266,3.07617-.72656,1.17529-.25195,2.41976-.48212,3.7334-.69043,1.31347-.20801,2.66145-.36945,4.04394-.48438,1.38282-.11426,2.74252-.17188,4.0791-.17285,2.17585-.07465,4.34602,.26575,6.39454,1.00293,1.46928,.56879,2.83549,1.37439,4.0444,2.38477,3.05773-2.10553,6.65907-3.28204,10.37012-3.3877,2.44202-.08167,4.87543,.3299,7.15479,1.21002,1.76276,.7265,3.30148,1.90723,4.45947,3.42188,1.1427,1.55927,1.92215,3.35437,2.28125,5.25391,.43381,2.23193,.6422,4.50177,.62207,6.77539v20.53223h-10.3007v-19.28815c0-3.31836-.42627-5.66895-1.27881-7.05176-.97227-1.44409-2.65724-2.23981-4.39014-2.07324-.78641,.03918-1.56464,.17834-2.31592,.41406-.86478,.22253-1.6918,.57208-2.4541,1.03711,.3278,1.0921,.53638,2.21649,.62207,3.35352,.0918,1.1748,.13785,2.43066,.13818,3.76758v19.84082h-10.30083v-19.28809Z"/><path class="b" d="M178.86475,600.43457c0-3.31836-.42627-5.66895-1.27881-7.05176-.97206-1.44403-2.65689-2.23981-4.38965-2.07324-.646,0-1.31429,.03448-2.00488,.10352-.69141,.06934-1.3597,.15009-2.00488,.24219v28.06738h-10.30078v-35.11914c.875-.23047,1.90039-.47266,3.07617-.72656,1.17534-.25195,2.4198-.48212,3.7334-.69043,1.31348-.20801,2.66145-.36945,4.04395-.48438,1.38281-.11426,2.74251-.17188,4.0791-.17285,2.17586-.07465,4.34601,.26575,6.39453,1.00293,1.46928,.56879,2.83551,1.37439,4.04443,2.38477,3.05774-2.10553,6.65907-3.28204,10.37012-3.3877,2.44202-.08167,4.87543,.3299,7.15479,1.21002,1.76276,.7265,3.30148,1.90723,4.45947,3.42188,1.1427,1.5592,1.92216,3.35431,2.2813,5.25378,.43381,2.23193,.6422,4.50177,.62207,6.77539v20.53223h-10.30083v-19.28802c0-3.31836-.42627-5.66895-1.27881-7.05176-.97227-1.44409-2.65724-2.23981-4.39014-2.07324-.78641,.03918-1.56462,.17834-2.3159,.41406-.86478,.22253-1.6918,.57208-2.45412,1.03711,.3278,1.0921,.53638,2.21649,.62207,3.35352,.0918,1.1748,.13786,2.43066,.13818,3.76758v19.84082h-10.30078v-19.28809Z"/><path class="b" d="M249.51855,618.47852c-2.22763,.60864-4.49007,1.08185-6.7749,1.41699-2.88197,.44672-5.79457,.66644-8.71094,.65723-2.62511,.07855-5.24113-.34406-7.70801-1.24512-1.90053-.72028-3.58043-1.92358-4.87399-3.49121-1.23674-1.57568-2.11024-3.40503-2.55811-5.35742-.52621-2.24261-.78145-4.54028-.76025-6.84375v-20.25586h10.3008v19.01074c0,3.31836,.43782,5.71515,1.31348,7.19043,.875,1.47559,2.51106,2.21289,4.9082,2.21191,.73682,0,1.52034-.03448,2.35059-.10352,.82959-.06934,1.56705-.15009,2.2124-.24219v-28.06738h10.30078l-.00005,35.11914Z"/><path class="b" d="M259.19629,584.60352c2.22769-.60773,4.4899-1.08093,6.77441-1.41699,2.88199-.44666,5.79456-.66644,8.71094-.65723,2.62234-.07623,5.23611,.33405,7.70901,1.21002,1.89447,.69708,3.57416,1.87659,4.87299,3.42188,1.23065,1.54071,2.10446,3.33502,2.55859,5.25391,.52811,2.21912,.78323,4.49445,.75977,6.77539v20.53223h-10.30075v-19.28815c0-3.31836-.4375-5.66895-1.3125-7.05176-.87695-1.38184-2.51303-2.07294-4.9082-2.07324-.73828,0-1.52213,.03448-2.35156,.10352-.83005,.06934-1.56769,.15009-2.21289,.24219v28.06738h-10.2998v-35.11914Z"/><path class="b" d="M311.18262,572.85059c.08551,1.68524-.5864,3.32062-1.832,4.45898-2.47275,2.16669-6.16788,2.16669-8.64062,0-2.44275-2.47089-2.44275-6.44714,0-8.91803,2.47324-2.16534,6.16739-2.16534,8.64062,0,1.24496,1.13885,1.91672,2.77386,1.832,4.45905Zm-.96777,46.87207h-10.30078v-36.36328h10.30078v36.36328Z"/><path class="b" d="M319.54688,574.30273l10.30078-1.65918v10.71582h12.375v8.57227h-12.375v12.78906c-.08514,1.79895,.30844,3.58838,1.14062,5.18555,.76074,1.29004,2.2933,1.93524,4.59766,1.93555,1.14755-.00354,2.29257-.10779,3.42188-.31152,1.09665-.18518,2.17316-.47461,3.21484-.86426l1.45215,8.01953c-1.34808,.54071-2.73477,.9798-4.14844,1.31348-1.83865,.40173-3.7179,.58759-5.59961,.55371-2.37936,.07416-4.75055-.31354-6.98242-1.1416-1.71936-.66956-3.24121-1.76343-4.42383-3.17969-1.14728-1.44446-1.94058-3.13739-2.31641-4.94336-.45679-2.11188-.67722-4.26807-.65723-6.42871v-30.55664Z"/><path class="b" d="M383.63184,583.35937c-2.0791,7.00586-4.25064,13.57324-6.51465,19.70215-2.26367,6.12988-4.73599,12.0752-7.41699,17.83594-.83621,1.83289-1.80798,3.60077-2.90723,5.28906-.87881,1.34875-1.95227,2.56006-3.18555,3.59473-1.15356,.94403-2.4834,1.64911-3.91211,2.07422-1.65482,.46442-3.36841,.68549-5.08691,.65625-1.50079,.01208-2.99847-.13855-4.4668-.44922-1.14639-.23468-2.2699-.56995-3.35742-1.00195l1.79782-8.22656c.92218,.33179,1.87048,.58594,2.83499,.75977,.86905,.14178,1.74835,.21136,2.62891,.20801,1.56067,.10278,3.09601-.43378,4.25293-1.48633,1.11267-1.18518,1.97198-2.58478,2.52539-4.11328-2.35254-4.6084-4.70444-9.78192-7.05566-15.52051-2.552-6.31921-4.76797-12.76898-6.63867-19.32227h10.92285c.46191,1.79688,1.00586,3.74384,1.63184,5.84082,.625,2.09863,1.28482,4.21875,1.97949,6.36035,.69336,2.14355,1.39908,4.22919,2.11719,6.25684,.7168,2.02832,1.39975,3.87177,2.04883,5.53027,.60059-1.65918,1.22525-3.50262,1.87399-5.53027,.64844-2.02734,1.28482-4.11298,1.90918-6.25684,.62402-2.14258,1.22559-4.2627,1.80469-6.36035,.57812-2.09668,1.09863-4.04364,1.56152-5.84082h10.65237Z"/><path class="b" d="M448.33887,595.7334c.07968,3.71063-.57822,7.40015-1.93555,10.85449-1.1973,2.95746-3.08121,5.58752-5.49609,7.67285-2.53806,2.11603-5.49503,3.67126-8.67676,4.56348-3.73199,1.05688-7.59714,1.56903-11.47559,1.52051-1.93555,0-4.194-.08075-6.77539-.24219-2.55496-.15771-5.09589-.49255-7.60449-1.00195v-46.66498c2.57095-.4696,5.16827-.78107,7.77734-.93262,2.69629-.16113,5.01236-.24182,6.94824-.24219,3.76688-.04236,7.52228,.42273,11.16501,1.38281,3.14609,.82281,6.08029,2.30768,8.60645,4.35547,2.4404,2.04199,4.34015,4.65381,5.53125,7.60449,1.37265,3.54608,2.03046,7.32855,1.93558,11.12982Zm-31.17871,15.20898c.50684,.04688,1.09439,.08173,1.7627,.10449,.668,.02344,1.46292,.03485,2.38477,.03418,5.39258,0,9.39096-1.35968,11.99512-4.0791,2.60254-2.71875,3.9043-6.47491,3.90527-11.26855,0-5.02246-1.24414-8.82452-3.73242-11.40625-2.48926-2.58105-6.43002-3.87177-11.82227-3.87207-.7373,0-1.49771,.01172-2.28125,.03516-.73978,.01996-1.47803,.07764-2.21191,.17285v30.2793Z"/><path class="b" d="M469.70117,582.39062c2.57419-.06702,5.14227,.2832,7.60449,1.03711,1.84296,.57819,3.51633,1.59882,4.87399,2.97266,1.241,1.32764,2.13202,2.94324,2.59277,4.70117,.52692,2.008,.78244,4.07751,.75977,6.15332v21.43066c-1.47559,.32324-3.52637,.70343-6.15234,1.14062-3.15704,.47614-6.34747,.69592-9.54001,.65723-2.14786,.0199-4.29175-.1886-6.39551-.62207-1.76419-.35297-3.44284-1.04584-4.94238-2.03998-1.36942-.92889-2.46713-2.20526-3.18066-3.69824-.78625-1.75922-1.16418-3.67358-1.10547-5.59961-.05881-1.87897,.38232-3.73993,1.27832-5.39258,.82443-1.44568,2.00211-2.65863,3.42285-3.52539,1.51538-.90961,3.17551-1.55273,4.9082-1.90137,1.8866-.39624,3.80957-.59332,5.7373-.58789,1.18912-.0069,2.37772,.05078,3.56055,.17285,.85184,.08179,1.69571,.23199,2.52344,.44922v-.96777c.07147-1.56427-.50342-3.08911-1.58984-4.2168-1.06055-1.05957-2.90396-1.58948-5.53027-1.58984-1.7355-.0011-3.46872,.12592-5.18555,.37988-1.50723,.20544-2.98956,.56433-4.42383,1.07117l-1.31348-8.2959c.59766-.18359,1.34634-.37927,2.24609-.58691,.89941-.20801,1.87891-.39258,2.93848-.55371s2.17709-.29944,3.35254-.41498c1.17578-.11426,2.36264-.17188,3.56055-.17285Zm.83008,30.14258c1.0127,0,1.98047-.02313,2.90332-.06934,.74063-.02777,1.4791-.09723,2.21191-.20801v-7.81152c-.41504-.0918-1.03711-.1839-1.86621-.27637-.75732-.08783-1.51886-.13409-2.28125-.13867-.9133-.00305-1.82581,.05469-2.73145,.17285-.77966,.09442-1.53851,.31647-2.24609,.65723-.61469,.29517-1.13977,.74847-1.52148,1.31348-.38766,.62048-.58023,1.34308-.55273,2.07422-.13992,1.33533,.48941,2.63458,1.62399,3.35254,1.38168,.68945,2.91779,1.01105,4.45999,.93359Z"/><path class="b" d="M526.32129,583.35937c-2.0791,7.00586-4.25067,13.57324-6.51465,19.70215-2.26367,6.12988-4.73602,12.0752-7.41699,17.83594-.83621,1.83289-1.80798,3.60077-2.90723,5.28906-.87881,1.34875-1.95227,2.56006-3.18555,3.59473-1.15356,.94403-2.4834,1.64911-3.91211,2.07422-1.65482,.46442-3.36841,.68549-5.08691,.65625-1.50079,.01208-2.99847-.13855-4.4668-.44922-1.14639-.23468-2.2699-.57001-3.35742-1.00195l1.79785-8.22656c.92218,.33179,1.87048,.58594,2.83499,.75977,.86905,.14178,1.74835,.21136,2.62891,.20801,1.56067,.10278,3.09601-.43378,4.25293-1.48633,1.11267-1.18518,1.97198-2.58478,2.52539-4.11328-2.35254-4.6084-4.70441-9.78192-7.05566-15.52051-2.552-6.31921-4.76797-12.76898-6.63867-19.32227h10.92285c.46191,1.79688,1.00586,3.74384,1.63184,5.84082,.625,2.09863,1.28485,4.21875,1.97949,6.36035,.69333,2.14355,1.39905,4.22919,2.11719,6.25684,.7168,2.02832,1.39975,3.87177,2.04883,5.53027,.60059-1.65918,1.22522-3.50262,1.87399-5.53027,.64844-2.02734,1.28482-4.11298,1.90918-6.25684,.62396-2.14258,1.22552-4.2627,1.80469-6.36035,.57812-2.09668,1.09863-4.04364,1.56152-5.84082h10.65234Z"/><path class="b" d="M542.22168,612.3252c1.35999,.08331,2.72302-.10455,4.00977-.55273,.80219-.39764,1.27124-1.25342,1.1748-2.14355-.07587-.94739-.65723-1.78009-1.52051-2.17773-1.47919-.83722-3.02905-1.54272-4.63184-2.1084-1.49396-.54712-2.95905-1.16998-4.38965-1.86621-1.2337-.58923-2.36572-1.37115-3.35352-2.31641-.93024-.9104-1.65997-2.00507-2.14258-3.21387-.54108-1.43494-.79944-2.96106-.76074-4.49414-.12164-3.15369,1.29645-6.1698,3.80273-8.08789,2.5332-1.98145,6.0127-2.97266,10.43848-2.97363,2.13397-.00659,4.26373,.19025,6.36035,.58789,1.646,.28986,3.26465,.71783,4.83887,1.2793l-1.79688,8.01953c-1.28143-.43811-2.58539-.8075-3.90625-1.10645-1.55536-.33826-3.14374-.50079-4.73535-.48438-3.22656,0-4.83984,.89874-4.83984,2.69629-.0069,.37915,.06384,.75568,.20801,1.10645,.18713,.38025,.47363,.70282,.8291,.93359,.53656,.37079,1.10333,.6958,1.69434,.97168,.71387,.34863,1.62402,.73175,2.73047,1.14941,1.92395,.68829,3.79541,1.51538,5.59961,2.47461,1.30023,.68066,2.47968,1.57043,3.49121,2.63379,.82703,.89819,1.44147,1.97089,1.79785,3.13867,.36603,1.30109,.54071,2.64856,.51855,4,.17615,3.23584-1.35962,6.32654-4.04492,8.14062-2.69629,1.83887-6.51007,2.75848-11.44141,2.75879-4.27625,.09906-8.52954-.65283-12.5127-2.21191l1.72852-8.36523c1.74878,.69098,3.55225,1.2345,5.3916,1.625,1.79504,.38629,3.62573,.58301,5.46191,.58691Z"/><path class="b" d="M119.34375,547.11328c-.97119-1.55859-2.11556-3.24347-3.43311-5.05469-1.31738-1.80957-2.73697-3.63446-4.25878-5.47461-1.522-1.83887-3.11462-3.60223-4.77784-5.28998-1.56342-1.59778-3.22974-3.09155-4.98828-4.47168v20.29102h-10.78467v-47.90924h10.78467v18.00592c2.77296-2.91211,5.58969-5.95831,8.4502-9.13867,2.86035-3.17868,5.50211-6.13443,7.92529-8.86719h12.79834c-3.26025,3.88382-6.54004,7.61722-9.83936,11.2002-3.29933,3.58398-6.7715,7.19012-10.4165,10.81836,4.05556,3.42517,7.76968,7.23529,11.09029,11.37689,3.72347,4.61871,7.15402,9.46606,10.27148,14.51367h-12.82173Z"/><path class="b" d="M166.38574,545.86914c-2.22763,.60864-4.49007,1.08185-6.7749,1.41699-2.88197,.44672-5.79457,.66644-8.71094,.65723-2.62511,.07855-5.24113-.34406-7.70801-1.24512-1.90053-.72028-3.58043-1.92358-4.87399-3.49121-1.23674-1.57568-2.11024-3.40503-2.55811-5.35742-.5262-2.24261-.78145-4.54028-.76025-6.84375v-20.25586h10.30078v19.01074c0,3.31836,.43782,5.71515,1.31348,7.19043,.875,1.47559,2.51106,2.21289,4.9082,2.21191,.73682,0,1.52034-.03448,2.35059-.10352,.82959-.06934,1.56706-.15009,2.2124-.24219v-28.06738h10.30078l-.00003,35.11914Z"/><path class="b" d="M209.86963,528.93164c.03645,2.6814-.39633,5.34857-1.27881,7.88086-.78885,2.24622-2.05009,4.29718-3.69873,6.01465-1.67596,1.70001-3.70583,3.01007-5.94531,3.83691-2.56824,.93604-5.28642,1.39282-8.01953,1.34766-1.24414,0-2.54607-.05762-3.90578-.17285-1.35986-.11523-2.69646-.26495-4.00977-.44922-1.31348-.18457-2.56934-.40332-3.76758-.65625-1.19922-.25293-2.25928-.51788-3.18018-.79492v-50.81247l10.3008-1.65918v18.1123c1.15685-.50848,2.36087-.90198,3.59473-1.1748,1.31737-.2847,2.66202-.42386,4.00977-.41501,2.35159-.04605,4.68565,.41351,6.84424,1.34766,1.93942,.86707,3.64536,2.18207,4.97754,3.83691,1.39568,1.77509,2.42908,3.80707,3.0415,5.98047,.71893,2.52887,1.06825,5.14844,1.03711,7.77728Zm-10.5083-.27637c0-6.63672-2.44255-9.95508-7.32764-9.95508-1.06209,0-2.1196,.13922-3.14551,.41406-.88918,.21484-1.74019,.56458-2.52344,1.03711v18.73535c.50635,.09277,1.15154,.17352,1.93555,.24219,.7832,.06836,1.63591,.10284,2.55811,.10352,2.47246,.15759,4.85974-.93262,6.35986-2.9043,1.52397-2.25916,2.27579-4.95093,2.14307-7.67285Z"/><path class="b" d="M216.09033,529.20801c-.0605-2.89276,.44438-5.76947,1.48633-8.46875,.88486-2.25702,2.2131-4.31378,3.90625-6.04883,1.58162-1.59308,3.47652-2.84073,5.56494-3.66406,2.05588-.82217,4.24968-1.24475,6.46387-1.24512,5.16113,0,9.24007,1.57877,12.23682,4.73633,2.99512,3.15723,4.493,7.80048,4.49365,13.92969,0,.59961-.02312,1.25653-.06934,1.9707-.04639,.71484-.09245,1.34863-.13818,1.90137h-23.36667c.1841,2.0426,1.27525,3.89478,2.97266,5.0459,2.09814,1.34259,4.56363,1.99548,7.05127,1.86719,1.86729,.00201,3.73065-.17157,5.56543-.51855,1.52905-.26031,3.02452-.68933,4.459-1.2793l1.38232,8.36523c-.71304,.33722-1.4529,.6145-2.21191,.8291-1.01157,.29797-2.03865,.54053-3.07666,.72656-1.12988,.20703-2.33969,.37988-3.62939,.51855-1.28595,.13757-2.57829,.20667-3.87158,.20697-2.91234,.06354-5.81003-.42932-8.5376-1.45215-2.27148-.86896-4.32465-2.22571-6.01463-3.97461-1.6049-1.70685-2.80937-3.74982-3.52588-5.98047-.77711-2.41156-1.16223-4.93219-1.14069-7.46576Zm24.19629-3.94043c-.04509-.86761-.19595-1.72656-.44922-2.55762-.24251-.80774-.64189-1.55969-1.17529-2.21289-.55203-.66199-1.23451-1.20319-2.00488-1.58984-.93872-.44348-1.96968-.65674-3.00732-.62207-1.02217-.02637-2.03746,.17444-2.97266,.58789-.79385,.36499-1.50081,.89502-2.07373,1.55469-.56293,.66254-.99669,1.42474-1.27881,2.24707-.2972,.84253-.51701,1.71039-.65674,2.59277h13.61865Z"/><path class="b" d="M280.10742,519.875c-.92188-.23047-2.00522-.47235-3.25-.72559-1.32047-.2608-2.66379-.38843-4.00977-.38086-.77432,.00983-1.54727,.06757-2.31445,.17285-.689,.07507-1.37128,.20239-2.04099,.38086v27.79102h-10.29984v-34.42773c2.14233-.72995,4.32321-1.34152,6.53271-1.832,2.7587-.60226,5.57639-.89218,8.3999-.86426,.55273,0,1.2207,.03452,2.00391,.10352,.7832,.06934,1.56705,.16147,2.35156,.27637,.7832,.11621,1.56641,.25452,2.34961,.41501,.68558,.13263,1.35715,.32947,2.00586,.58789l-1.72852,8.50293Z"/><path class="b" d="M287.36523,511.99414c2.228-.60785,4.49054-1.08102,6.77539-1.41699,2.88196-.44672,5.79456-.66647,8.71094-.65723,2.62201-.07617,5.23544,.33408,7.70801,1.20999,1.8949,.69681,3.57498,1.87637,4.87399,3.42191,1.22998,1.54102,2.10342,3.33527,2.55762,5.25391,.52893,2.21899,.78442,4.49438,.76074,6.77539v20.53223h-10.30075v-19.28815c0-3.31836-.43784-5.66895-1.31348-7.05176-.87601-1.38184-2.51205-2.07294-4.9082-2.07324-.73828,0-1.52182,.03448-2.35059,.10352-.83008,.06934-1.56772,.15009-2.21289,.24219v28.06738h-10.30078v-35.11914Z"/><path class="b" d="M326.35645,529.20801c-.06076-2.89276,.44415-5.76953,1.48633-8.46875,.88452-2.25696,2.21243-4.31372,3.90527-6.04883,1.58188-1.59302,3.47693-2.84061,5.56543-3.66406,2.05588-.82217,4.24969-1.24475,6.46387-1.24512,5.16113,0,9.2399,1.57877,12.23633,4.73633,2.99609,3.15723,4.49414,7.80048,4.49414,13.92969,0,.59961-.02441,1.25684-.06934,1.9707-.04688,.71484-.09311,1.34863-.13867,1.90137h-23.36621c.18411,2.0426,1.27524,3.89478,2.97266,5.0459,2.0983,1.34265,4.56396,1.99554,7.05176,1.86719,1.86697,.00201,3.73001-.17163,5.56445-.51855,1.52908-.26019,3.02457-.68921,4.45901-1.2793l1.38281,8.36523c-.71307,.3371-1.45294,.61444-2.21191,.8291-1.01141,.29797-2.03833,.54053-3.07617,.72656-1.12988,.20703-2.33984,.37988-3.62988,.51855-1.2858,.13757-2.57797,.2066-3.87109,.20697-2.91251,.06354-5.81036-.42932-8.53809-1.45215-2.27155-.86884-4.32474-2.22559-6.01465-3.97461-1.6051-1.70667-2.80945-3.74969-3.52539-5.98047-.77734-2.4115-1.16245-4.93219-1.14066-7.46576Zm24.19629-3.94043c-.04581-.86755-.19666-1.72638-.44922-2.55762-.24268-.80774-.64224-1.55969-1.17578-2.21289-.55215-.66187-1.23459-1.20306-2.00488-1.58984-.9386-.44342-1.96936-.65668-3.00684-.62207-1.02219-.02649-2.03751,.17426-2.97266,.58789-.79416,.36475-1.50131,.89478-2.07422,1.55469-.56256,.6629-.9964,1.42499-1.2793,2.24707-.29703,.84253-.51669,1.71039-.65625,2.59277h13.61914Z"/><path class="b" d="M368.11133,501.69336l10.30078-1.65918v10.71582h12.375v8.57227h-12.375v12.78906c-.08514,1.79895,.30844,3.58832,1.14062,5.18555,.76074,1.28998,2.2933,1.93518,4.59766,1.93555,1.14755-.00354,2.29257-.10779,3.42188-.31152,1.09668-.18518,2.17316-.47455,3.21484-.86426l1.45215,8.01953c-1.34811,.54071-2.7348,.9798-4.14844,1.31348-1.83865,.40173-3.7179,.58759-5.59961,.55371-2.37936,.0741-4.75055-.31354-6.98242-1.1416-1.71933-.66956-3.24121-1.76343-4.42383-3.17969-1.14728-1.44446-1.94058-3.13739-2.31641-4.94336-.45679-2.11188-.67722-4.26807-.65723-6.42871v-30.55664Z"/><path class="b" d="M396.04199,529.20801c-.06076-2.89276,.44415-5.76953,1.48633-8.46875,.88452-2.25696,2.21243-4.31372,3.90527-6.04883,1.58188-1.59296,3.47693-2.84061,5.56543-3.66406,2.05588-.82217,4.24969-1.24475,6.46387-1.24512,5.16113,0,9.2399,1.57877,12.23633,4.73633,2.99609,3.15723,4.49414,7.80048,4.49414,13.92969,0,.59961-.02441,1.25684-.06934,1.9707-.04688,.71484-.09311,1.34863-.13867,1.90137h-23.36621c.18408,2.0426,1.27524,3.89478,2.97266,5.0459,2.0983,1.34265,4.56396,1.99554,7.05176,1.86719,1.86697,.00201,3.73001-.17163,5.56445-.51855,1.52908-.26019,3.02457-.68921,4.45901-1.2793l1.38281,8.36523c-.71307,.3371-1.45294,.61444-2.21191,.8291-1.01141,.29797-2.03833,.54053-3.07617,.72656-1.12988,.20703-2.33984,.37988-3.62988,.51855-1.2858,.13751-2.57797,.2066-3.87109,.20697-2.91251,.06354-5.81036-.42932-8.53809-1.45215-2.27155-.86884-4.32474-2.22559-6.01465-3.97461-1.6051-1.7066-2.80945-3.74969-3.52539-5.98047-.77734-2.4115-1.16245-4.93219-1.14066-7.46576Zm24.19629-3.94043c-.04581-.86755-.19666-1.72638-.44922-2.55762-.24268-.80774-.64224-1.55969-1.17578-2.21289-.55215-.66187-1.23459-1.20306-2.00488-1.58984-.9386-.44342-1.96936-.65668-3.00684-.62207-1.02219-.02649-2.03751,.17426-2.97266,.58789-.79416,.36475-1.50131,.89478-2.07422,1.55469-.56256,.6629-.99643,1.42499-1.2793,2.24707-.29703,.84253-.51669,1.71039-.65625,2.59277h13.61914Z"/><path class="b" d="M448.582,539.71582c1.36002,.08331,2.72302-.10455,4.00977-.55273,.80222-.39764,1.27124-1.25342,1.1748-2.14355-.07587-.94739-.65723-1.78009-1.52051-2.17773-1.47916-.83722-3.02908-1.54272-4.63184-2.1084-1.49396-.54712-2.95908-1.16998-4.38965-1.86621-1.23373-.58923-2.36572-1.37115-3.35352-2.31641-.93021-.9104-1.65997-2.00507-2.14258-3.21387-.54108-1.43494-.79941-2.96106-.76074-4.49414-.12164-3.15363,1.29648-6.1698,3.80273-8.08789,2.5332-1.98145,6.0127-2.97266,10.43848-2.97363,2.13397-.00662,4.26373,.19025,6.36035,.58789,1.646,.28989,3.26468,.71783,4.83887,1.2793l-1.79688,8.01953c-1.28143-.43811-2.58539-.8075-3.90625-1.10645-1.55533-.33826-3.14374-.50073-4.73535-.48438-3.22656,0-4.83984,.89874-4.83984,2.69629-.00693,.37915,.06387,.75568,.20801,1.10645,.18713,.38025,.47363,.70282,.8291,.93359,.53656,.37079,1.10333,.6958,1.69434,.97168,.71387,.34863,1.62402,.73175,2.73047,1.14941,1.92395,.68835,3.79538,1.51538,5.59961,2.47461,1.30023,.68066,2.47971,1.57043,3.49121,2.63379,.827,.89819,1.44144,1.97089,1.79785,3.13867,.36603,1.30109,.54071,2.64856,.51855,4,.17612,3.23584-1.35962,6.32654-4.04492,8.14062-2.69629,1.83887-6.5101,2.75848-11.44141,2.75879-4.27625,.09906-8.52954-.65283-12.51266-2.21191l1.72852-8.36523c1.74878,.69098,3.55228,1.2345,5.3916,1.625,1.79507,.38629,3.62573,.58301,5.46188,.58691Z"/><path class="b" d="M503.34,282.71619l.00201,.01257,.00031,.00101-.00232-.01358Z"/><path class="b" d="M503.34201,282.72876l-39.15381-170.07063c-2.13205-8.90946-8.14749-16.39307-16.39029-20.39064L289.30936,16.59773c-8.31927-3.96999-17.98657-3.96999-26.30585,0L104.54649,92.308c-8.24483,3.99495-14.26236,11.47823-16.39484,20.38831l-39.09116,170.06718c-.96418,4.29871-.96724,8.75732-.00894,13.05734,.28215,1.30994,.65076,2.59976,1.10342,3.86099,.76502,2.15231,1.77792,4.20828,3.01826,6.12643,.53714,.82025,1.10341,1.61816,1.71934,2.3912l56.35463,70.06577c.11985-.92578,.223-1.853,.34859-2.77826,.98392-7.24838-1.27807-13.63046-3.66857-20.12-4.06811-11.04379-9.58234-21.5405-11.15507-33.496-1.78591-13.57581-1.34712-27.1748-1.13408-40.75351,.11927-7.60663-1.96312-14.50381-4.24081-21.48343-3.036-9.30316-7.10476-18.293-8.47994-28.09601-.68686-4.89642-.85055-9.74646,.679-14.57001,.967-3.04967,2.68051-5.43291,5.93005-5.49651,3.28676-.06439,5.3105,2.41833,6.097,5.33855,1.62041,6.01633,2.9788,12.10985,4.24771,18.21259,1.82489,8.73276,4.58237,17.24429,8.225,25.38815,2.37268,5.3273,4.333,5.41138,7.94615,.81421,1.71935-2.35013,2.62823-5.19543,2.58965-8.10709,.78586-16.46819,1.73038-32.92886,2.50592-49.39755,.38262-5.3416,1.5078-10.60381,3.34309-15.63478,1.26222-3.75885,4.11652-7.00592,8.399-6.32378,4.45415,.70946,4.72131,4.98232,4.42049,8.5596-1.23735,16.45888-1.61133,32.97128-1.12042,49.4693,.073,3.50983-.15729,7.09793,2.60834,11.74767,.13963-22.0051,6.52257-41.61052,9.13846-61.8299,.23518-2.66512,.98555-5.25922,2.20944-7.63834,1.948-3.4583,5.19667-5.13284,9.0085-4.36649,3.991,.80251,4.12822,4.42535,3.75978,7.53964-1.33345,11.27034-3.19423,22.48328-4.32838,33.7709-1.20015,11.94405-1.79834,23.94856-2.73509,36.97707,3.3542-2.55142,3.36621-5.61766,4.0724-8.08411,3.062-10.69469,6.20786-21.37979,7.29128-32.543,.40797-2.86639,1.16508-5.67212,2.25444-8.35464,1.42838-3.9814,4.6772-6.63219,8.64574-6.03079,4.2531,.64456,3.61951,4.99664,3.71552,8.2773,.42033,14.36414-2.658,28.33459-4.65176,42.44594-2.49556,16.77313-2.73804,33.8046-.72099,50.642,.3064,1.98431,.82434,3.93011,1.545,5.80417,2.49785,7.02628,5.70131,8.13507,12.13747,4.21216,1.75221-.9873,3.39297-2.16052,4.89388-3.4993,9.82808-9.43262,20.94994-8.05612,32.45833-4.12201,2.58052,.79974,4.76662,2.5394,6.12535,4.87445,3.0256,5.19507,1.65028,8.91626-4.19479,8.38385-16.65091-1.51669-26.28717,8.31714-35.41765,19.79681-5.67958,7.14099-14.21309,9.95871-22.35178,12.72745-6.91092,2.3511-9.06795,6.20377-8.94855,13.25467,.44208,26.1022,.33211,52.21341,.50305,78.32077,.00174,.26712,.02478,.534,.03416,.80106l1.34225,1.66882c.4787,.59323,1.00682,1.13501,1.53058,1.68552,1.72096,1.83267,3.66425,3.44305,5.78468,4.7937,2.68192,1.6879,5.60464,2.95871,8.66818,3.76889,2.51225,.68878,5.10378,1.04617,7.70869,1.06308h1.70573l67.98468-.77075c.18491-12.8923,.36896-25.78458,.55219-38.67691,.2576-19.27682,6.1319-37.72528,8.36758-56.69058,2.93503-25.38452,2.87689-51.02603-.17322-76.397-.94278-8.03708-4.1496-13.53488-12.53693-16.67227-8.67938-3.24658-13.07973-12.19307-19.27007-18.69688-18.52237-19.46078-32.10828-43.10255-51.88008-61.53218-2.07323-1.93259-2.92587-4.39323-1.60478-7.0262,1.67833-3.66205,5.48253-5.86871,9.49461-5.50746,8.18774,.41016,14.75247,4.30679,20.31969,10.07935,6.27988,6.51166,12.39534,13.20671,19.63136,18.69681,7.79425,5.91356,10.2998,5.04462,14.34335-3.63135,7.44057-15.96463,7.79758-32.24957,3.49181-49.05701-4.46889-17.44411-10.86501-34.50691-9.98784-53.03219,.51154-10.80487,2.95853-17.19865,8.54819-16.96,9.33188,.39845,8.2,8.99963,9.26639,14.65493,3.49652,18.54352,6.82632,37.0826,13.74615,54.73792,.93979,2.39769,1.01031,6.69926,4.84109,5.70618,3.05353-.79152,1.59177-4.39119,1.41589-6.83823-1.57187-21.8704-3.7291-43.74022,.23666-65.58932,.68985-3.80056,.98959-7.72621,3.70135-10.85343,2.34106-2.69984,5.11795-4.62545,8.78549-3.52727,3.35501,1.00463,4.83209,3.87688,4.89517,7.18362,.15729,8.24983,.53555,16.53251,.01257,24.75035-1.00916,15.85611,1.94473,31.37759,3.32199,47.02851,.17776,2.02075,.00342,5.46959,2.86432,5.52534,2.36151,.04608,3.61783-2.92036,4.13419-5.112,3.90756-16.58171,10.08508-32.59591,12.36264-49.58582,.5817-4.33966,1.12012-8.68339,3.23093-12.70127,1.80328-3.43264,4.22372-4.94751,8.13187-4.31146,4.21747,.68643,6.46268,3.01347,6.63129,7.24229,.16864,2.05486,.1073,4.12212-.18286,6.16336-3.91483,20.81024-5.72421,42.03178-12.11777,62.3607-.27786,.9971-.4809,2.01353-.60742,3.04086-.35565,2.28314-1.25467,5.29199,.9725,6.42946,2.78714,1.42329,4.62189-1.42569,6.23511-3.37071,8.41599-10.14774,16.50647-20.51411,22.01416-32.64162,.92642-2.12814,2.21133-4.08145,3.79874-5.7748,2.40656-2.45272,5.392-4.283,9.02158-2.685,4.28195,1.88541,2.79456,5.433,2.24347,8.72182-.73639,5.41101-2.74075,10.5715-5.84973,15.061-17.86139,24.14664-23.72034,51.76451-23.58209,81.03325-.0253,8.79803-2.08917,17.47052-6.02963,25.33684-3.69067,7.69792-3.89401,15.62062-3.40842,24.09743,1.58429,27.65125,7.19016,54.7489,10.40576,82.1669,3.81335,32.51392,5.29929,65.0184,2.78619,97.58981l23.6239-.00552c1.0589-.00464,2.11676-.06693,3.16888-.18658,1.50925-.17059,3.00351-.45456,4.47012-.84946,1.05112-.27682,2.08707-.6084,3.10358-.99338,.79327-.30344,1.5845-.60684,2.34848-.97308,1.14435-.54797,2.25436-1.16492,3.32391-1.84741,2.75974-1.73535,5.2171-3.91031,7.27484-6.43878l1.36871-3.08478c2.8226-33.65039-.58911-67.25516-2.27057-100.75635-.89859-17.90128-17.47812-38.73376-39.68649-39.25208-4.05887-.09464-9.61365,1.16901-9.673-5.4097-.05023-5.56235,3.65207-8.84357,9.04666-9.69101,6.94897-1.0546,14.05167-.34192,20.65259,2.0723,13.63583,4.77249,21.40741-2.02301,17.64914-16.604-4.01978-15.61249-6.66791-31.5463-7.91425-47.61972-.33801-4.30299-1.11859-8.556,.10968-12.81763,1.19043-4.1312,3.10361-7.73392,8.10721-7.50729,5.38464,.24377,4.9324,4.90259,5.54425,8.4034,2.35843,13.493,5.37701,26.75874,12.134,40.38747,3.08551-5.27087,3.47348-10.10071,3.77985-14.51662,.71194-10.2652,4.11667-20.005,5.14999-30.1772,.284-1.85931,.95023-3.6396,1.95663-5.22858,1.69818-2.91032,4.06339-5.24393,7.79993-4.451,4.19989,.89125,5.48312,4.19887,5.21426,7.97777-.68658,9.64738-1.65326,19.27457-2.44299,28.91513-.4606,5.62216-.79645,11.2545,.21405,17.31465,3.77115-10.81076,7.54028-21.62233,11.30728-32.43469,1.8764-5.41429,2.40677-13.41991,10.69177-10.9211,7.41235,2.2356,3.38983,9.23665,2.42755,13.978-2.61835,12.90334-5.99945,25.65039-8.94345,38.49026-.69574,3.03448-2.17572,6.82986,1.64062,8.63483,3.44092,1.62747,5.32068-1.89066,7.17026-3.94165,7.57022-8.39447,14.79813-17.1001,22.45282-25.41417,2.13058-2.31412,4.5495-6.57541,8.58847-3.73238,3.66238,2.57787,2.68311,6.69279,1.10043,10.3123-2.96939,6.64308-6.936,12.79366-11.76263,18.239-7.1467,8.23486-12.43329,17.33813-14.18634,28.48352-1.00021,7.20386-3.02307,14.22815-6.00745,20.8606-8.72626,18.30316-9.1673,37.08578-6.2215,56.6745,.1868,1.242,.35956,2.48615,.54056,3.729l54.10556-67.30734c2.03741-2.55487,3.63821-5.42917,4.73761-8.50647,.45898-1.2655,.83435-2.55978,1.12369-3.87448,.95938-4.29553,.957-8.75009-.00699-13.04459Z"/></svg>