<?xml version="1.0" encoding="UTF-8"?>
<svg xmlns="http://www.w3.org/2000/svg" version="1.1" viewBox="0 0 179.48 87.42">
  <path d="M66.92,13.13v9.39c1.27-.09,2.54-.16,3.83-.2v-10.93h-.33c10.442-4.778,21.759-7.345,33.24-7.54v23.27c1.3.44,2.57.91,3.83,1.4V3.85c11.936.208,23.686,2.988,34.45,8.15v43.77h3.83V14c16.8,9.42,28.2,24.59,29.68,41.89h3.84C176.83,24.73,144.71,0,105.58,0c-26,0-48.84,10.89-62,27.31,2.27-.79,4.6-1.49,7-2.11,4.804-4.827,10.314-8.897,16.34-12.07Z"/>
  <path d="M144.69,59.61c3.919,6.966,6.239,14.716,6.79,22.69l28-22.6-34.79-.09Z"/>
  <path d="M147.81,84.33c-.32-8.759-2.919-17.283-7.54-24.73-7-11.59-18.58-21.08-32.78-27-1.25-.52-2.53-1-3.83-1.48-9.559-3.366-19.625-5.068-29.76-5.03-1.05,0-2.11,0-3.15.06-1.29,0-2.56.11-3.83.21-7.173.532-14.253,1.946-21.08,4.21-2.15.72-4.24,1.51-6.29,2.38C16.58,42.75.67,62.05,0,84.33v1.25c0,1.22.7,1.83,2.09,1.83.361.005.721-.039,1.07-.13.249-.056.494-.133.73-.23v-2.72h0c0-.47,0-.93.06-1.4.09-1.43.25-2.84.47-4.24.374-2.319.925-4.606,1.65-6.84.43-1.34.93-2.65,1.47-3.95.37-.87.77-1.72,1.18-2.57.847-1.699,1.785-3.352,2.81-4.95,1.574-2.437,3.336-4.748,5.27-6.91.32-.36.66-.72,1-1.08,1-1.08,2.07-2.12,3.17-3.14s2.25-2,3.44-2.94c1.58-1.273,3.247-2.477,5-3.61.87-.57,1.75-1.13,2.65-1.66.45-.27.9-.54,1.36-.8l1.86-1v45.1h0v1.25c0,1.22.69,1.83,2.09,1.83.361.005.721-.039,1.07-.13.248-.059.492-.136.73-.23v-2.73h0v-46.84h-.33l1.8-.82c.53-.23,1.08-.44,1.62-.66s.93-.39,1.4-.57c1.533-.587,3.093-1.133,4.68-1.64,6.072-1.895,12.338-3.099,18.68-3.59,1.27-.1,2.54-.17,3.83-.22h1.24v29.43l-.06,24.91h0v1.25c0,1.22.7,1.83,2.09,1.83.361.005.721-.039,1.07-.13.249-.058.493-.135.73-.23v-2.72h0V29.94c8.023.165,15.982,1.465,23.64,3.86,1.39.44,2.76.92,4.1,1.43.2.07.39.13.58.21,1,.39,2,.8,3,1.23l.23.11c.91.4,1.82.81,2.71,1.24h.07v46.31h0v1.25c-.005.026-.005.054,0,.08v.14h0c.08,1.07.77,1.61,2.07,1.61.361.005.721-.039,1.07-.13.249-.058.493-.135.73-.23v-2.72h0l-.06-24.8v-19.47l.33.18,1.37.8c.89.53,1.78,1.09,2.64,1.66,1.727,1.14,3.393,2.343,5,3.61,1.19.94,2.33,1.93,3.44,2.94s2.16,2.06,3.16,3.14l1,1.08c1.722,1.926,3.306,3.971,4.74,6.12l.52.79c1.029,1.596,1.967,3.249,2.81,4.95.42.85.81,1.7,1.18,2.57.55,1.3,1.05,2.61,1.48,3.95.722,2.234,1.27,4.521,1.64,6.84.231,1.404.391,2.82.48,4.24,0,.61,0,1.23.06,1.85v.8c0,1.22.7,1.83,2.09,1.83.361.005.721-.039,1.07-.13.249-.056.493-.133.73-.23v-2.72h.01Z"/>
</svg>
