<?xml version="1.0" encoding="UTF-8"?>
<svg id="Layer_1" xmlns="http://www.w3.org/2000/svg" version="1.1" viewBox="0 0 435.215 437.333">
  <!-- Generator: Adobe Illustrator 30.1.0, SVG Export Plug-In . SVG Version: 2.1.1 Build 136)  -->
  <defs>
    <style>
      .st0 {
        fill: #e7f2fb;
      }

      .st0, .st1, .st2, .st3, .st4, .st5, .st6, .st7, .st8, .st9, .st10, .st11, .st12 {
        fill-rule: evenodd;
      }

      .st1 {
        fill: #bc4d26;
      }

      .st2 {
        fill: #fff;
      }

      .st13 {
        fill: none;
      }

      .st3 {
        fill: #5085c4;
      }

      .st4 {
        fill: #efa689;
      }

      .st5 {
        fill: #c7c8c8;
      }

      .st6 {
        fill: #7ba5d4;
      }

      .st7 {
        fill: #baceeb;
      }

      .st8 {
        fill: #cc5632;
      }

      .st9 {
        fill: #3f6eac;
      }

      .st10 {
        fill: #e27246;
      }

      .st11 {
        fill: #595858;
      }
    </style>
  </defs>
  <g>
    <g>
      <path class="st12" d="M264.745,341.344c6.228.29,12.495.434,18.719.587,21.098.502,42.17.847,63.25,1.807,20.177.918,41.205,2.249,61.039,5.5,5.873.96,12.476,2.116,18.056,3.945,4.656,1.525,9.636,4.106,9.397,8.904-.222,4.485-4.919,6.827-9.379,8.229-19.038,5.994-60.764,6.486-82.094,8.82,13.608,3.655,36.972,8.429,49.659,13.793,6.295,2.666,14.36,6.882,14.555,13.517.163,5.849-5.747,9.594-11.394,11.948-8.289,3.451-19.017,5.615-28.028,7.251-28.793,5.218-58.576,8.279-87.949,10.022-22.064,1.313-44.248,1.867-66.369,1.599-19.699-.234-39.582-1.105-59.148-3.09-14.714-1.492-30.694-3.681-44.719-7.753-9.002-2.61-20.891-7.099-24.563-15.076-.955-2.075-1.315-4.298-.974-6.508,1.547-10.048,16.874-16.459,28.255-20.267-2.044.081-4.083.157-6.124.238-25.498,1.004-81.23-1.557-100.159-12.885-9.16-5.486-15.359-14.816,25.093-23.387,33.875-7.178,31.363-6.022,79.748-7.654-.739-.484-1.431-.914-1.845-1.156-3.659-2.168-6.616-5.274-6.09-9.249.669-5.064,6.379-7.686,11.538-9.207,5.827-1.722,12.515-2.67,18.626-3.37,17.155-1.974,35.376-2.428,52.681-2.283,17.198.141,35.434.885,52.404,3.265,9.111,1.279,28.532,4.084,30.013,13.724.528,3.447-1.382,6.41-4.198,8.735Z"/>
      <path class="st3" d="M113.79,333.468c33.444,20.118-25.601,12.409-71.266,19.43-97.978,15.064,47.264,25.93,64.085,25.257,116.892-4.663-25.637,5.823-14.36,30.694,11.282,24.864,169.189,30.305,274.806,10.881,105.608-19.43-72.805-38.856-29.737-44.3,43.065-5.437,132.155-11.264,69.098-21.755-63.058-10.49-179.189-4.098-157.28-12.436,70.126-26.689-168.801-27.889-135.346-7.771Z"/>
      <path class="st9" d="M40.271,353.395c-95.726,15.074,49.633,25.422,66.337,24.76,27.039-1.079,40.175-1.347,44.57-.811,20.54-5.811,35.749-12.404-28.339-12.404s-106.701,3.546-82.569-11.544h0ZM117.273,388.697c-15.25,5.078-28.806,11.803-25.024,20.152,11.282,24.864,169.189,30.305,274.806,10.881,45.106-8.297,38.39-16.596,19.257-23.803-1.059,2.852-6.427,6.321-19.019,10.592-41.278,13.985-204.55,13.985-240.78,4.659-25.377-6.529-21.731-15.536-9.24-22.48h0ZM330.67,377.284c.602-.728,2.683-1.349,6.647-1.854,41.137-5.195,124.269-10.744,76.647-20.372-5.925,3.939-16.57,7.876-35.667,9.104-42.195,2.721-45.861,8.162-47.693,12.046-.186.387-.151.744.065,1.077Z"/>
      <path class="st6" d="M347.677,352.15c29.644,1.123,50.058,3.715,45.609,5.786-4.452,2.069-27.483.696-57.121-.43-29.637-1.127-54.663-1.569-50.209-3.642,4.446-2.071,32.085-2.84,61.722-1.714Z"/>
      <path class="st6" d="M219.763,323.394c19.611,1.123,33.119,3.717,30.176,5.79-2.946,2.071-18.183.692-37.795-.428-19.614-1.127-36.176-1.573-33.225-3.644,2.942-2.075,21.232-2.838,40.843-1.718Z"/>
      <path class="st6" d="M230.887,420.172c36.185-1.587,87.516-4.32,114.951-9.382,24.484-4.518,9.266-13.109-3.276-12.395-21.235,1.212-57.825,8.884-107.349,9.405-58.361.617-124.156-7.327-120.37-2.009,8.107,11.375,62.088,16.742,116.044,14.38Z"/>
    </g>
    <g>
      <path class="st12" d="M316.746,251.974c1.653,1.055,3.619,1.7,5.96,1.894,5.409.44,9.672-.623,14.029-3.903,3.888-2.926,7.028-6.785,11.707-8.572,3.659-1.402,7.317-1.156,10.951.183,4.62,1.7,7.939,5.347,10.115,9.671,1.005,1.997,1.9,4.366,2.326,6.563.351,1.821-.36,3.606-1.867,4.687-1.502,1.077-3.43,1.178-5.035.262-2.164-1.232-6.409-3.469-8.903-2.253-1.263.619-2.421,2.084-3.23,3.203-1.625,2.245-3.004,4.665-4.507,6.992-4.605,7.121-9.65,12.642-17.356,16.455-6.09,3.013-12.52,3.62-18.748,1.89.039,1.958.109,3.915.256,5.869.119,1.599.286,3.203.61,4.77.24,1.162.667,2.832,1.563,3.66.935.865,2.824,1.366,4.039,1.66,1.455.357,2.928.629,4.398.9,1.971.363,3.948.716,5.916,1.099,7.933,1.555,16.027,3.178,22.746,7.976,11.94,8.529,12.935,22.764,10.58,36.109-.423,2.408-2.412,4.243-4.863,4.387-2.437.145-4.645-1.462-5.336-3.792-.25-.843-.653-1.682-1.041-2.471-1.066-2.146-2.431-4.159-4.037-5.938-5.453-6.044-12.905-8.436-20.893-8.283-3.873.074-7.747.06-11.615-.163-3.355-.188-6.706-.533-10.004-1.186-5.766-1.141-11.22-3.225-15.66-7.164,1.377,3.372,3.361,6.597,6.189,8.083,2.523,1.325,6.673,1.502,9.499,1.563,5.013.109,10.026-.157,15.043-.038,7.141.174,14.486,1.059,20.855,4.522,5.145,2.799,8.966,6.93,11.552,12.168,3.049,6.184,3.321,13.563,1.128,20.065-.642,1.908-2.284,3.298-4.283,3.566-2,.264-3.947-.649-5.054-2.329-.324-.494-.795-.976-1.209-1.398-1.395-1.43-3.023-2.654-4.741-3.673-6.8-4.038-15.071-4.879-22.811-4.126-4.503.442-9.017.805-13.539.954-4.039.137-8.088.105-12.114-.279-6.429-.611-12.764-2.15-18.223-5.613,3.748,4.58,8.712,7.747,15.221,8.392,4.498.446,9.042.323,13.549.139,6.038-.248,12.075-.682,18.12-.345,5.995.337,12.049,1.48,17.167,4.792,6.099,3.947,9.429,10.038,11.042,16.986.437,1.876-.154,3.852-1.567,5.167-1.398,1.303-3.382,1.747-5.189,1.133-.222-.062-.554-.081-.776-.111-2.008-.268-4.043-.327-6.066-.371-4.57-.091-9.141.05-13.705.258-7.93.361-15.844.966-23.749,1.672-29.62,2.636-55.234-8.858-62.729-37.745-7.495,28.887-33.113,40.381-62.732,37.745-7.904-.706-15.817-1.311-23.747-1.672-4.565-.208-9.135-.349-13.705-.258-2.022.044-4.058.103-6.066.371-.219.026-.543.048-.758.103-1.818.619-3.801.184-5.208-1.125-1.414-1.315-2.004-3.291-1.568-5.167,1.614-6.948,4.944-13.039,11.041-16.986,5.117-3.312,11.174-4.455,17.168-4.792,6.046-.337,12.082.097,18.121.345,4.507.184,9.05.307,13.548-.139,6.509-.645,11.472-3.812,15.221-8.392-5.457,3.463-11.794,5.002-18.222,5.613-4.026.385-8.075.416-12.115.279-4.522-.149-9.036-.512-13.536-.954-7.742-.754-16.013.087-22.814,4.126-1.718,1.019-3.344,2.243-4.74,3.673-.415.422-.885.904-1.209,1.398-1.107,1.68-3.055,2.592-5.052,2.329-2.002-.268-3.644-1.658-4.285-3.566-2.193-6.502-1.922-13.88,1.128-20.065,2.586-5.238,6.408-9.37,11.552-12.168,6.368-3.463,13.716-4.348,20.854-4.522,5.016-.119,10.031.147,15.044.038,2.823-.061,6.976-.238,9.497-1.563,2.829-1.486,4.814-4.711,6.189-8.083-4.44,3.939-9.892,6.024-15.659,7.164-3.297.653-6.649.998-10.003,1.186-3.867.222-7.743.236-11.615.163-7.987-.153-15.44,2.239-20.893,8.283-1.607,1.779-2.972,3.792-4.036,5.938-.39.789-.792,1.628-1.042,2.471-.69,2.33-2.899,3.937-5.336,3.792-2.454-.145-4.441-1.979-4.866-4.387-2.352-13.345-1.359-27.58,10.583-36.109,6.718-4.798,14.813-6.42,22.745-7.976,1.971-.383,3.944-.736,5.916-1.099,1.473-.272,2.945-.544,4.398-.9,1.214-.294,3.105-.795,4.038-1.66.898-.827,1.323-2.497,1.565-3.66.323-1.567.488-3.171.608-4.77.147-1.954.218-3.911.257-5.869-6.228,1.73-12.655,1.123-18.748-1.89-7.704-3.812-12.75-9.334-17.354-16.455-1.504-2.327-2.883-4.746-4.506-6.992-.81-1.123-1.968-2.584-3.231-3.203-2.495-1.216-6.739,1.021-8.901,2.253-1.608.916-3.534.815-5.037-.262-1.507-1.081-2.218-2.866-1.866-4.687.424-2.198,1.319-4.566,2.325-6.563,2.175-4.324,5.494-7.971,10.115-9.671,3.633-1.339,7.29-1.585,10.95-.183,4.679,1.787,7.821,5.647,11.708,8.572,4.357,3.283,8.62,4.344,14.028,3.903,2.076-.173,3.914-.694,5.527-1.626-2.127-2.987-3.429-6.381-3.429-10.215,0-4.135,2.099-7.638,5.245-10.57-1.405-1.152-2.786-2.33-4.142-3.539-16.779-14.945-29.213-33.643-36.453-54.309-1.595-.02-3.169-.284-4.681-.795-14.523-4.915-17.594-29.2-17.594-42.263s3.071-37.344,17.594-42.261c1.507-.512,3.082-.778,4.674-.795.988-2.825,2.072-5.613,3.258-8.372,9.941-23.131,26.449-42.985,47.339-57.03C181.056,7.63,206.191,0,232.084,0c25.61,0,50.499,7.436,71.879,21.592,20.758,13.743,37.25,33.209,47.359,55.965,1.451,3.261,2.762,6.577,3.934,9.937,1.579.024,3.143.289,4.642.795,14.522,4.917,17.593,29.2,17.593,42.261s-3.071,37.348-17.593,42.263c-1.491.504-3.046.77-4.617.793-1.989,5.722-4.384,11.319-7.178,16.752-8.16,15.878-19.52,29.958-33.276,41.292,3.032,2.89,5.039,6.329,5.039,10.375,0,1.341-.161,2.676-.476,3.977-.521,2.15-1.433,4.134-2.643,5.97Z"/>
      <g>
        <path class="st12" d="M109.135,88.829c7.327,0,11.947,7.466,14.382,13.448,3.506,8.622,4.802,19.023,4.802,28.274s-1.296,19.654-4.802,28.276c-2.435,5.98-7.055,13.448-14.382,13.448-1.512,0-3.003-.242-4.436-.726-13.847-4.685-16.687-28.768-16.687-40.998s2.84-36.311,16.687-40.996c1.433-.486,2.924-.726,4.436-.726h0ZM355.033,88.829c1.513,0,3.004.24,4.437.726,13.847,4.685,16.686,28.766,16.686,40.996s-2.839,36.313-16.686,40.998c-1.433.484-2.924.726-4.437.726-7.324,0-11.946-7.468-14.38-13.448-3.508-8.622-4.804-19.023-4.804-28.276s1.296-19.652,4.804-28.274c2.434-5.982,7.056-13.448,14.38-13.448Z"/>
        <path class="st0" d="M109.135,92.55c-23.201,0-23.201,76.002,0,76.002,8.539,0,15.463-17.014,15.463-38.001s-6.924-38.001-15.463-38.001Z"/>
        <path class="st0" d="M355.033,92.55c23.202,0,23.202,76.002,0,76.002-8.539,0-15.461-17.014-15.461-38.001s6.922-38.001,15.461-38.001Z"/>
        <path class="st12" d="M232.084,1.337c24.998,0,49.675,7.156,71.142,21.368,19.971,13.226,36.593,32.243,46.876,55.392,7.281,16.389,11.081,34.207,11.081,52.466,0,46.841-24.825,87.567-61.279,110.141-20.538,12.72-43.951,18.847-67.44,18.823-26.175-.024-52.277-7.739-74.42-23.296-33.115-23.264-55.059-61.794-55.059-105.668,0-17.672,3.584-34.948,10.444-50.913,10.116-23.536,26.764-42.94,46.858-56.449C181.896,8.674,206.82,1.337,232.084,1.337Z"/>
        <path class="st0" d="M232.084,5.185c-69.371,0-125.608,56.356-125.608,125.378,0,42.301,21.121,79.713,53.442,102.42,21.627,15.195,47.089,22.671,72.55,22.693,22.834.026,45.668-5.907,65.73-18.329,35.713-22.115,59.497-61.751,59.497-106.783,0-69.242-56.237-125.378-125.61-125.378Z"/>
        <path class="st2" d="M170.632,33.602c22.445-12.809,45.04-13.204,47.599-7.749,2.559,5.458-15.891,14.705-38.339,27.514-22.446,12.809-40.389,24.331-42.947,18.873-2.556-5.456,11.241-25.829,33.687-38.638Z"/>
        <path class="st2" d="M232.455,30.218c4.592,0,8.337-2.307,8.337-5.135s-3.746-5.135-8.337-5.135-8.337,2.307-8.337,5.135,3.746,5.135,8.337,5.135Z"/>
        <path class="st2" d="M232.084,11.52c27.327,0,52.617,8.924,73.247,24.081,18.136,13.325,32.668,31.465,41.816,52.597.569,1.317,1.119,2.646,1.646,3.985,4.994,12.676,8.076,26.352,8.88,40.657.014-.758.021-1.515.021-2.277,0-14.17-2.355-27.79-6.696-40.492-.445-1.307-.912-2.602-1.4-3.889-8.819-23.25-24.365-43.2-44.267-57.484-20.618-14.794-45.913-23.512-73.247-23.512-53.688,0-99.51,33.756-117.485,81.014-.488,1.287-.958,2.582-1.404,3.889-4.357,12.708-6.719,26.324-6.719,40.474,0,.766.005,1.531.019,2.289.808-14.281,3.899-27.957,8.907-40.639.529-1.337,1.08-2.668,1.649-3.983,19.566-45.108,63.71-76.71,115.033-76.71Z"/>
        <path class="st2" d="M347.7,173.465c-8.217,19.295-21.125,36.125-37.288,49.029-.052.042-.102.079-.151.119v6.24c.049-.042.099-.079.151-.121.159-.127.317-.254.476-.379,0-.002.002-.002.002-.004.95-.766,1.888-1.547,2.816-2.338,15.901-13.605,28.365-31.128,35.903-51.054.486-1.287.953-2.587,1.398-3.894,4.103-12.032,6.428-24.879,6.665-38.223-.04-.72-.085-1.436-.139-2.156-.681,13.622-3.537,26.685-8.233,38.84-.512,1.325-1.046,2.64-1.601,3.941Z"/>
        <path class="st12" d="M160.98,283.673c-1.257.857-2.547,1.609-3.75,2.208-7.37,3.658-15.252,3.741-22.664.075-7.504-3.711-12.36-9.074-16.826-15.983-1.507-2.334-2.92-4.802-4.545-7.047-.961-1.325-2.227-2.888-3.727-3.62-3.058-1.493-7.537.803-10.148,2.293-1.16.66-2.513.589-3.599-.188-1.084-.777-1.584-2.037-1.332-3.348.397-2.043,1.282-4.377,2.209-6.22,2.016-4.006,5.082-7.43,9.382-9.017,3.33-1.224,6.658-1.47,10.01-.191,4.407,1.69,7.671,5.601,11.382,8.398,4.625,3.483,9.157,4.637,14.941,4.161,4.307-.351,7.728-2.128,10.263-5.645.828-1.144,1.505-2.398,2.064-3.697,1.671-3.88,2.395-8.378,2.607-12.581.102-2.051.126-4.366-.084-6.419-.012-.119-.018-.22-.018-.339v-2.184c0-.978.375-1.819,1.101-2.475.726-.657,1.602-.942,2.577-.845,2.134.22,4.265.466,6.393.748,1.554.204,2.727,1.418,2.882,2.977,1.599,15.999,3.212,42.819-4.116,57.736-.76,1.549-2.555,2.261-4.17,1.654-.303-.115-.582-.266-.832-.452h0ZM303.93,283.673c-.248.186-.526.337-.83.452-1.615.607-3.411-.105-4.171-1.654-7.326-14.917-5.715-41.738-4.115-57.736.157-1.559,1.329-2.773,2.882-2.977,2.127-.282,4.259-.527,6.393-.748.975-.097,1.85.188,2.577.845.727.656,1.101,1.497,1.101,2.475v2.184c0,.119-.005.22-.018.339-.209,2.053-.187,4.368-.083,6.419.212,4.203.936,8.701,2.607,12.581,2.35,5.456,6.2,8.842,12.326,9.342,5.785.476,10.316-.678,14.942-4.161,3.712-2.797,6.974-6.708,11.381-8.398,3.353-1.279,6.68-1.033,10.011.191,4.299,1.587,7.365,5.01,9.382,9.017.926,1.843,1.813,4.177,2.209,6.22.253,1.311-.248,2.571-1.334,3.348-1.083.777-2.436.849-3.597.188-2.61-1.49-7.089-3.786-10.146-2.293-1.501.732-2.771,2.295-3.729,3.62-1.625,2.245-3.038,4.713-4.546,7.047-4.465,6.908-9.321,12.272-16.826,15.983-7.412,3.665-15.294,3.582-22.662-.075-1.204-.599-2.493-1.351-3.754-2.208Z"/>
        <g>
          <path class="st10" d="M160.485,224.33v2.184s3.098,30.289-17.899,32.011c-20.997,1.722-21.795-17.591-35.453-12.565-7.533,2.773-9.465,12.738-9.465,12.738,21.486-12.238,16.638,13.513,38.379,24.266,15.661,7.745,27.709-6.024,27.709-6.024,0,0-.136,1.698-.77,4.062,4.545-9.255,6.703-26.814,3.79-55.933-2.132-.286-4.227-.528-6.291-.738Z"/>
          <path class="st10" d="M304.426,224.33v2.184s-3.1,30.289,17.9,32.011c20.996,1.722,21.796-17.591,35.452-12.565,7.533,2.773,9.465,12.738,9.465,12.738-21.487-12.238-16.637,13.513-38.378,24.266-15.661,7.745-27.71-6.024-27.71-6.024,0,0,.136,1.698.771,4.062-4.544-9.255-6.702-26.814-3.791-55.933,2.133-.286,4.227-.528,6.291-.738Z"/>
        </g>
        <path class="st8" d="M154.117,283.61c.006-2.636-.014-5.27-.044-7.904-7.847,2.85-13.8,2.144-19.21-1.007-5.429-3.164-10.242-8.777-15.88-15.719-7.367-9.072-12.904-7.113-16.682-4.048-1.148.934-2.155,1.978-3.004,2.858-.016.016-.034.034-.051.052,19.68-10.088,15.609,14.644,36.8,25.122,6.994,3.461,13.268,2.626,18.07.647Z"/>
        <path class="st8" d="M310.839,275.706c-.032,2.634-.052,5.268-.044,7.904,4.802,1.979,11.076,2.814,18.071-.647,21.191-10.479,17.12-35.21,36.798-25.122-.015-.018-.033-.036-.049-.052-.849-.881-1.856-1.924-3.004-2.858-3.78-3.064-9.316-5.024-16.683,4.048-5.638,6.942-10.452,12.555-15.878,15.719-5.412,3.152-11.364,3.858-19.212,1.007Z"/>
        <path class="st12" d="M199.558,353.09c-1.359,1.631-2.902,3.124-4.658,4.449-5.678,4.274-12.558,6.026-19.475,6.686-3.968.379-7.963.408-11.943.276-4.494-.151-8.978-.51-13.453-.948-8.009-.783-16.555.107-23.623,4.304-1.811,1.075-3.535,2.372-5.015,3.888-.465.476-1.004,1.041-1.369,1.597-.833,1.266-2.283,1.936-3.759,1.74-1.482-.2-2.711-1.224-3.196-2.668-2.082-6.176-1.833-13.18,1.06-19.045,2.481-5.028,6.12-8.939,10.992-11.587,6.176-3.358,13.359-4.191,20.251-4.362,5.014-.121,10.026.147,15.036.038,3.053-.064,7.341-.272,10.091-1.714,4.641-2.44,7.277-8.866,8.763-14.925-1.111,1.63-2.4,3.14-3.9,4.498-4.308,3.898-9.637,5.909-15.214,7.015-3.238.641-6.528.976-9.819,1.162-3.834.218-7.677.232-11.515.161-8.341-.161-16.15,2.339-21.91,8.723-1.68,1.862-3.12,3.981-4.242,6.242-.416.843-.856,1.779-1.125,2.684-.524,1.767-2.175,2.947-3.977,2.84-1.811-.111-3.307-1.464-3.63-3.291-2.276-12.906-1.399-26.616,10.043-34.786,6.539-4.671,14.546-6.248,22.227-7.749,1.965-.387,3.934-.738,5.902-1.101,1.495-.276,2.993-.555,4.473-.914,1.476-.359,3.478-.912,4.629-1.977,1.144-1.059,1.652-2.872,1.962-4.368.337-1.622.511-3.293.635-4.945.179-2.38.247-4.77.282-7.156.111-7.291-.044-14.58-.145-21.872-.158-11.306-.278-22.613-.278-33.923,0-1.224.537-2.366,1.475-3.13.931-.76,2.152-1.047,3.313-.776l64.01,14.902c1.74.403,2.985,1.95,3.047,3.773.026.821.046,1.646.061,2.469,2.299.23,4.599.484,6.894.754,2.296-.27,4.594-.524,6.894-.754.014-.823.033-1.648.062-2.469.059-1.823,1.304-3.37,3.044-3.773l64.011-14.902c1.161-.272,2.382.016,3.312.776.937.763,1.475,1.906,1.475,3.13,0,11.31-.119,22.617-.277,33.923-.102,7.291-.257,14.58-.147,21.872.036,2.386.104,4.776.282,7.156.125,1.652.299,3.322.636,4.945.309,1.495.818,3.308,1.964,4.368,1.15,1.065,3.152,1.618,4.63,1.977,1.477.359,2.974.639,4.471.914,1.967.363,3.936.714,5.902,1.101,7.68,1.501,15.688,3.078,22.225,7.749,11.444,8.17,12.32,21.88,10.044,34.786-.322,1.827-1.818,3.179-3.629,3.291-1.803.107-3.453-1.073-3.977-2.84-.269-.905-.706-1.841-1.126-2.684-1.122-2.261-2.562-4.38-4.243-6.242-5.759-6.385-13.569-8.884-21.908-8.723-3.841.071-7.682.057-11.516-.161-3.291-.186-6.581-.522-9.818-1.162-5.578-1.107-10.906-3.118-15.214-7.015-1.501-1.359-2.79-2.868-3.902-4.498,1.487,6.059,4.123,12.486,8.764,14.925,2.748,1.442,7.039,1.65,10.089,1.714,5.013.109,10.025-.159,15.04-.038,6.893.171,14.075,1.004,20.251,4.362,4.871,2.648,8.51,6.559,10.991,11.587,2.894,5.865,3.143,12.869,1.062,19.045-.487,1.444-1.718,2.468-3.198,2.668-1.478.196-2.927-.474-3.759-1.74-.365-.555-.904-1.121-1.369-1.597-1.481-1.515-3.205-2.813-5.015-3.888-7.069-4.197-15.615-5.087-23.624-4.304-4.476.438-8.958.797-13.453.948-3.98.133-7.975.103-11.943-.276-6.916-.66-13.798-2.412-19.476-6.686-1.754-1.325-3.3-2.818-4.654-4.449,4.101,8.761,10.712,15.566,20.871,16.572,4.555.45,9.17.333,13.734.143,5.993-.246,11.994-.678,17.992-.343,5.728.321,11.594,1.39,16.516,4.58,5.765,3.731,8.921,9.505,10.466,16.163.332,1.424-.117,2.906-1.175,3.889-1.06.986-2.544,1.303-3.878.835-.285-.085-.707-.123-1.004-.161-2.05-.272-4.145-.337-6.212-.379-4.597-.095-9.199.046-13.793.256-7.947.363-15.88.97-23.804,1.676-30.654,2.727-57.484-9.844-62.612-43.051-5.128,33.207-31.958,45.778-62.613,43.051-7.924-.706-15.859-1.313-23.804-1.676-4.594-.21-9.195-.351-13.794-.256-2.067.042-4.161.107-6.212.379-.296.038-.718.076-.982.155-1.355.474-2.839.157-3.901-.829-1.056-.984-1.503-2.465-1.173-3.889,1.544-6.658,4.701-12.432,10.465-16.163,4.921-3.189,10.788-4.259,16.517-4.58,5.998-.335,11.998.097,17.989.343,4.567.191,9.182.308,13.736-.143,10.16-1.006,16.771-7.811,20.874-16.572Z"/>
        <path class="st10" d="M230.835,334.182c-.254,5.899-.653,11.841-1.475,17.678-4.507,32.082-30.028,43.735-59.235,41.135-7.964-.708-15.953-1.321-23.941-1.686-4.651-.212-9.345-.355-14.003-.26-2.164.044-4.418.123-6.566.409-.469.061-1.164.147-1.616.305-.231.079-.47.03-.651-.139-.18-.167-.253-.407-.196-.649,1.346-5.8,4.011-10.861,9.037-14.116,4.413-2.856,9.814-3.777,14.948-4.064,5.858-.327,11.82.105,17.682.347,4.705.192,9.485.309,14.18-.159,12.922-1.279,20.895-10.816,25.241-22.623,1.324-3.602,2.299-7.351,3.021-11.125,1.662-8.697,2.114-18.22,1.397-27.058.106-1.462-1.201-1.777-1.664-.879-.216.418-.135.968-.138.978-.147,5.405.092,10.895-.962,16.195-.807,4.058-1.895,8.009-3.201,11.929-1.909,5.74-4.902,10.814-9.729,14.447-5.174,3.897-11.543,5.452-17.842,6.053-3.823.365-7.697.391-11.535.264-4.42-.147-8.843-.508-13.246-.936-8.709-.849-17.897.184-25.575,4.74-2.051,1.216-4.009,2.699-5.687,4.415-.593.611-1.297,1.376-1.768,2.096-.142.214-.376.321-.627.288-.252-.034-.449-.198-.533-.442-1.799-5.341-1.614-11.379.89-16.455,2.177-4.415,5.332-7.819,9.608-10.143,5.675-3.086,12.465-3.814,18.797-3.969,5.012-.123,10.021.145,15.029.036,3.637-.079,8.228-.357,11.511-2.083,7.996-4.199,10.845-16.802,11.906-25.106.801-6.258.984-12.829.6-19.132-.039-.597.031-1.42-.101-2.057-.169-.829-1.163-1.01-1.322-.073-.437,2.598-.336,6.079-.715,8.957-.467,3.56-1.176,7.109-2.29,10.413-1.432,4.247-3.55,8.096-6.871,11.101-3.852,3.487-8.685,5.252-13.67,6.236-3.085.613-6.242.932-9.38,1.111-3.749.212-7.519.224-11.272.153-9.319-.176-17.964,2.695-24.37,9.8-1.882,2.083-3.501,4.463-4.755,6.994-.488.986-1.022,2.164-1.338,3.227-.089.3-.356.492-.663.474-.304-.018-.55-.242-.604-.549-2.041-11.569-1.578-24.117,8.698-31.458,6.058-4.326,13.845-5.813,20.972-7.208,1.952-.381,3.91-.73,5.868-1.091,1.551-.288,3.112-.579,4.647-.952,2.106-.514,4.422-1.234,6.062-2.749,1.726-1.595,2.497-3.886,2.968-6.153.365-1.761.56-3.586.695-5.381.183-2.444.255-4.911.293-7.361.11-7.309-.048-14.66-.149-21.971-.157-11.292-.276-22.58-.276-33.875,0-.208.085-.389.246-.52.162-.133.353-.176.552-.131l64.009,14.9c.295.067.5.323.509.629.058,1.801.081,3.608.095,5.409,3.38.3,6.755.667,10.123,1.069,3.368-.403,6.741-.77,10.122-1.069.014-1.801.037-3.608.096-5.409.01-.305.213-.561.509-.629l64.008-14.9c.2-.046.393-.002.553.131.16.131.246.311.246.52,0,11.296-.12,22.583-.276,33.875-.102,7.311-.26,14.662-.149,21.971.038,2.449.107,4.917.293,7.361.134,1.795.329,3.62.694,5.381.471,2.267,1.244,4.558,2.969,6.153,1.639,1.515,3.955,2.235,6.062,2.749,1.532.373,3.094.665,4.648.952,1.955.361,3.914.71,5.866,1.091,7.128,1.394,14.914,2.882,20.972,7.208,10.276,7.341,10.741,19.888,8.698,31.458-.053.307-.3.532-.605.549-.303.018-.572-.174-.662-.474-.315-1.063-.85-2.241-1.337-3.227-1.257-2.531-2.873-4.911-4.755-6.994-6.408-7.105-15.051-9.977-24.37-9.8-3.754.071-7.524.06-11.273-.153-3.137-.179-6.294-.498-9.38-1.111-4.984-.984-9.816-2.749-13.67-6.236-3.317-3.005-5.439-6.855-6.87-11.101-1.114-3.305-1.823-6.853-2.291-10.413-.378-2.878-.278-6.359-.716-8.957-.157-.936-1.152-.756-1.321.073-.132.637-.063,1.46-.1,2.057-.385,6.303-.201,12.875.599,19.132,1.061,8.305,3.909,20.908,11.906,25.106,3.284,1.726,7.875,2.003,11.511,2.083,5.007.109,10.016-.159,15.03-.036,6.331.155,13.121.883,18.796,3.969,4.274,2.325,7.432,5.728,9.608,10.143,2.505,5.076,2.691,11.113.891,16.455-.084.244-.282.408-.533.442-.252.034-.485-.073-.628-.288-.472-.72-1.174-1.486-1.766-2.096-1.679-1.716-3.637-3.199-5.689-4.415-7.677-4.556-16.864-5.589-25.574-4.74-4.403.428-8.825.789-13.248.936-3.836.127-7.707.101-11.532-.264-6.299-.601-12.667-2.156-17.842-6.053-4.83-3.634-7.82-8.707-9.732-14.447-1.304-3.919-2.391-7.87-3.199-11.929-1.053-5.3-.814-10.79-.962-16.195-.002-.01.078-.559-.137-.978-.464-.899-1.771-.583-1.666.879-.716,8.838-.264,18.361,1.397,27.058.723,3.775,1.697,7.523,3.025,11.125,4.343,11.808,12.316,21.344,25.235,22.623,4.696.468,9.477.351,14.183.159,5.861-.242,11.822-.674,17.681-.347,5.135.288,10.535,1.208,14.951,4.064,5.022,3.255,7.688,8.317,9.034,14.116.057.242-.014.482-.196.649-.18.169-.419.218-.65.139-.452-.159-1.147-.244-1.616-.305-2.148-.286-4.402-.365-6.566-.409-4.659-.095-9.352.048-14.005.26-7.987.365-15.976.978-23.941,1.686-29.204,2.6-54.725-9.052-59.233-41.135-.822-5.837-1.222-11.78-1.473-17.678-.074-1.742-.85-2.612-1.623-2.614-.774.002-1.549.873-1.621,2.614Z"/>
        <g>
          <path class="st12" d="M232.084,214.272c10.941,0,21.948.607,32.78,1.967,9.073,1.141,18.287,2.826,26.988,5.413,9.726,2.888,26.679,9.354,26.679,20.374,0,1.232-.147,2.458-.439,3.663-2.843,11.714-18.426,18.635-29.945,22.247-17.014,5.339-36.918,7.472-54.901,7.483-19.209.016-40.931-2.384-58.984-8.408-11.894-3.967-28.623-11.869-28.623-24.986,0-11.02,16.956-17.486,26.68-20.374,8.701-2.587,17.913-4.272,26.988-5.413,10.834-1.361,21.841-1.967,32.778-1.967Z"/>
          <path class="st7" d="M232.084,217.372c-45.815,0-82.955,11.038-82.955,24.654,0,18.468,42.253,30.323,84.113,30.291,41.09-.026,81.798-11.593,81.798-30.291,0-13.616-37.142-24.654-82.957-24.654Z"/>
          <path class="st2" d="M232.084,217.372c-40.447,0-74.126,8.602-81.465,19.989,10.31,15.866,46.618,25.62,82.644,25.591,35.331-.028,70.385-9.538,80.367-25.47-7.176-11.445-40.953-20.11-81.546-20.11Z"/>
        </g>
        <path class="st12" d="M153.908,231.318v-113.941c0-20.767,7.596-39.433,23.615-52.92,15.036-12.658,35.09-18.629,54.561-18.629s39.523,5.97,54.563,18.629c16.017,13.487,23.615,32.154,23.615,52.92v113.941c0,.996-.389,1.853-1.137,2.509-9.347,8.204-21.955,13.7-33.793,17.159-13.962,4.082-28.952,5.996-43.494,5.819-15.094-.183-30.706-2.549-45.145-6.966-10.572-3.231-23.453-8.509-31.701-16.06-.717-.657-1.083-1.494-1.083-2.461Z"/>
        <path class="st10" d="M157.245,231.318c12.808,11.726,43.442,21.77,74.634,22.147,29.291.357,59.073-8.13,75.043-22.147v-113.941c0-90.945-149.677-90.945-149.677,0v113.941Z"/>
        <path class="st8" d="M288.47,242.679c7.198-3.187,13.491-7.008,18.453-11.361v-113.941c0-35.412-22.694-57.028-50.405-64.865,17.961,8.763,31.953,27.074,31.953,67.142v123.026Z"/>
        <g>
          <path class="st1" d="M161.013,94.022c-2.425,6.97-3.768,14.755-3.768,23.355v78.34c5.607,2.001,11.645,3.094,17.938,3.094,29.462,0,53.348-23.887,53.348-53.349s-23.886-53.347-53.348-53.347c-4.908,0-9.657.667-14.171,1.906Z"/>
          <path class="st1" d="M306.922,195.717v-78.34c0-8.6-1.342-16.385-3.766-23.355-4.512-1.24-9.265-1.906-14.173-1.906-29.461,0-53.348,23.885-53.348,53.347s23.887,53.349,53.348,53.349c6.294,0,12.332-1.093,17.938-3.094Z"/>
        </g>
        <path class="st12" d="M175.184,194.571c29.384,0,53.348-23.966,53.348-53.349s-23.964-53.347-53.348-53.347-53.348,23.964-53.348,53.347,23.965,53.349,53.348,53.349Z"/>
        <path class="st10" d="M175.184,191.08c27.461,0,49.858-22.395,49.858-49.858s-22.397-49.858-49.858-49.858-49.859,22.397-49.859,49.858,22.397,49.858,49.859,49.858Z"/>
        <path class="st8" d="M175.184,99.077c-23.277,0-42.146,18.868-42.146,42.144s18.87,42.146,42.146,42.146,42.145-18.869,42.145-42.146-18.868-42.144-42.145-42.144Z"/>
        <path class="st12" d="M175.184,179.475c21.07,0,38.253-17.183,38.253-38.253s-17.183-38.255-38.253-38.255-38.256,17.187-38.256,38.255,17.187,38.253,38.256,38.253Z"/>
        <path class="st2" d="M175.184,177.416c19.935,0,36.193-16.26,36.193-36.194s-16.258-36.192-36.193-36.192-36.194,16.258-36.194,36.192,16.258,36.194,36.194,36.194Z"/>
        <path class="st12" d="M288.984,194.571c29.385,0,53.351-23.966,53.351-53.349s-23.966-53.347-53.351-53.347-53.348,23.964-53.348,53.347,23.967,53.349,53.348,53.349Z"/>
        <path class="st10" d="M288.984,191.08c27.463,0,49.86-22.395,49.86-49.858s-22.397-49.858-49.86-49.858-49.856,22.397-49.856,49.858,22.397,49.858,49.856,49.858Z"/>
        <path class="st8" d="M288.984,99.077c-23.276,0-42.143,18.868-42.143,42.144s18.867,42.146,42.143,42.146,42.146-18.869,42.146-42.146-18.87-42.144-42.146-42.144Z"/>
        <path class="st12" d="M288.984,179.475c21.07,0,38.256-17.183,38.256-38.253s-17.186-38.255-38.256-38.255-38.253,17.187-38.253,38.255,17.184,38.253,38.253,38.253Z"/>
        <path class="st2" d="M288.984,177.416c19.937,0,36.196-16.26,36.196-36.194s-16.259-36.192-36.196-36.192-36.192,16.258-36.192,36.192,16.258,36.194,36.192,36.194Z"/>
        <g>
          <path class="st2" d="M168.073,123.629c-6.413,1.662-11.567,9.806-11.932,19.491-.194,5.159,1.006,9.814,3.124,13.243,5.197,8.422,22.287,8.138,24.887,2.745,2.183-4.53.283-11.137-1.286-19.158-.182-3.536-1.029-6.758-2.37-9.404-1.639-5.456-3.256-9.445-3.256-9.445,0,0-4.533-.196-9.167,2.527Z"/>
          <path class="st5" d="M168.073,123.629c-6.413,1.662-11.567,9.806-11.932,19.491-.215,5.708,1.278,10.8,3.831,14.297.107-.9.038-2.009-.254-3.354-3.059-14.146,7.561-24.422,20.344-24.926-1.479-4.719-2.823-8.035-2.823-8.035,0,0-4.533-.196-9.167,2.527Z"/>
          <path class="st12" d="M184.653,126.126c-11.361-7.458-24.196.92-26.304,14.195-1.032,6.512.264,11.016,2.03,16.431.549,1.682.516,2.055.227,1.783-3.894-3.646-5.593-12.89-5.276-17.847,1.128-17.657,17.955-26.87,31.549-17.437.807.597,2.723,3.059,2.109,3.852-.614.795-3.529-.379-4.336-.978Z"/>
          <path class="st12" d="M177.907,120.737c-8.466.992-14.934,11.078-14.443,22.53.491,11.448,7.754,19.928,16.221,18.936,8.469-.996,14.936-11.08,14.446-22.532-.492-11.448-7.754-19.926-16.224-18.934Z"/>
          <path class="st2" d="M172.696,123.878c3.813-.438,7.106.988,7.356,3.188.249,2.196-2.639,4.332-6.451,4.77-3.813.436-7.105-.992-7.355-3.191-.25-2.196,2.638-4.332,6.45-4.766Z"/>
          <path class="st11" d="M168.782,147.013c-.09-1.055.685-1.985,1.729-2.075,1.047-.091,1.969.692,2.059,1.745.187,2.222.941,3.771,1.986,4.76.85.803,1.923,1.269,3.053,1.444,1.181.181,2.416.05,3.529-.331,1.419-.488,2.601-1.366,3.151-2.491.462-.952,1.604-1.343,2.548-.875.943.47,1.332,1.621.868,2.573-1.01,2.081-3.01,3.636-5.341,4.435-1.67.577-3.533.768-5.328.492-1.847-.288-3.631-1.069-5.086-2.45-1.688-1.597-2.894-3.963-3.168-7.228Z"/>
        </g>
        <g>
          <path class="st2" d="M294.598,123.629c6.414,1.662,11.568,9.806,11.934,19.491.194,5.159-1.008,9.814-3.125,13.243-5.197,8.422-22.288,8.138-24.886,2.745-2.184-4.53-.285-11.137,1.284-19.158.183-3.536,1.03-6.758,2.369-9.404,1.642-5.456,3.257-9.445,3.257-9.445,0,0,4.533-.196,9.166,2.527Z"/>
          <path class="st5" d="M294.598,123.629c6.414,1.662,11.568,9.806,11.934,19.491.213,5.708-1.28,10.8-3.833,14.297-.107-.9-.037-2.009.254-3.354,3.059-14.146-7.559-24.422-20.344-24.926,1.481-4.719,2.823-8.035,2.823-8.035,0,0,4.533-.196,9.166,2.527Z"/>
          <path class="st12" d="M278.019,126.126c11.362-7.458,24.196.92,26.303,14.195,1.032,6.512-.262,11.016-2.03,16.431-.547,1.682-.516,2.055-.227,1.783,3.894-3.646,5.593-12.89,5.279-17.847-1.13-17.657-17.958-26.87-31.552-17.437-.807.597-2.723,3.059-2.109,3.852.614.795,3.529-.379,4.336-.978Z"/>
          <path class="st12" d="M284.764,120.737c8.468.992,14.936,11.078,14.444,22.53-.491,11.448-7.752,19.928-16.222,18.936-8.468-.996-14.936-11.08-14.444-22.532.49-11.448,7.754-19.926,16.222-18.934Z"/>
          <path class="st2" d="M289.974,123.878c-3.811-.438-7.104.988-7.355,3.188-.249,2.196,2.64,4.332,6.451,4.77,3.813.436,7.105-.992,7.355-3.191.25-2.196-2.638-4.332-6.451-4.766Z"/>
          <path class="st11" d="M293.889,147.013c.09-1.055-.683-1.985-1.729-2.075-1.047-.091-1.968.692-2.059,1.745-.186,2.222-.941,3.771-1.985,4.76-.85.803-1.924,1.269-3.055,1.444-1.182.181-2.416.05-3.529-.331-1.418-.488-2.601-1.366-3.149-2.491-.464-.952-1.606-1.343-2.549-.875-.944.47-1.333,1.621-.87,2.573,1.013,2.081,3.012,3.636,5.342,4.435,1.671.577,3.533.768,5.328.492,1.846-.288,3.631-1.069,5.087-2.45,1.688-1.597,2.894-3.963,3.167-7.228Z"/>
        </g>
        <path class="st12" d="M219.313,204.508c-1.268-2.331-2.126-4.961-2.754-7.529-.824-3.376-1.303-6.89-1.575-10.351-.124-1.607-.222-3.271-.222-4.885,0-.871.51-1.613,1.321-1.924.813-.313,1.688-.103,2.271.541,5.414,6,22.048,6,27.464,0,.583-.645,1.458-.855,2.269-.541.813.311,1.321,1.053,1.321,1.924,0,1.614-.098,3.279-.223,4.885-.271,3.461-.751,6.976-1.574,10.351-.626,2.569-1.488,5.199-2.754,7.529-6.927,12.736-18.617,12.736-25.544,0Z"/>
        <path class="st12" d="M221.123,203.526c-4.302-7.91-4.302-21.784-4.302-21.784,6.242,6.916,24.284,6.916,30.525,0,0,0,0,13.874-4.301,21.784-6.14,11.29-15.78,11.29-21.922,0Z"/>
        <path class="st4" d="M207.825,55.505c-9.35,2.804-15.356,8.497-13.413,12.708,1.943,4.209,11.096,5.345,20.447,2.537,9.35-2.804,15.354-8.493,13.414-12.706-1.942-4.211-11.096-5.348-20.448-2.539Z"/>
        <path class="st2" d="M217.531,190.983c6.549,5.966,22.558,5.966,29.108,0,.707-5.072.707-9.241.707-9.241-6.241,6.916-24.282,6.916-30.525,0,0,0,0,4.169.71,9.241Z"/>
        <path class="st5" d="M211.377,141.222c0-19.989-16.203-36.192-36.193-36.192-6.371,0-12.355,1.646-17.555,4.532-.041.026-.081.048-.124.069-1.257.706-2.469,1.486-3.628,2.33-9.023,6.581-14.888,17.236-14.888,29.26,0,.752.023,1.497.069,2.237.673-11.048,6.305-20.761,14.7-26.935,1.127-.829,2.305-1.597,3.528-2.291.007-.006.015-.008.022-.012,5.272-3.003,11.372-4.715,17.875-4.715,19.238,0,34.97,15.007,36.125,33.953.045-.74.068-1.486.068-2.237Z"/>
        <path class="st5" d="M288.984,105.03c-19.986,0-36.192,16.203-36.192,36.192,0,.752.023,1.497.067,2.237,1.155-18.946,16.888-33.953,36.125-33.953,6.503,0,12.603,1.712,17.878,4.715.007.004.012.006.019.012,1.224.694,2.4,1.462,3.529,2.291,8.394,6.175,14.026,15.888,14.702,26.935.045-.74.068-1.486.068-2.237,0-12.022-5.864-22.679-14.888-29.26-1.159-.845-2.37-1.624-3.628-2.33-.042-.022-.084-.044-.125-.069-5.199-2.886-11.185-4.532-17.555-4.532Z"/>
        <path class="st4" d="M183.611,70.27c-2.625,1.624-3.658,4.516-2.303,6.458,1.354,1.942,4.58,2.196,7.207.573,2.625-1.624,3.658-4.514,2.303-6.456-1.353-1.942-4.581-2.2-7.207-.575Z"/>
        <path class="st12" d="M108.599,351.019c0,.369-.3.666-.667.666s-.668-.298-.668-.666c0-1.718.51-11.635,7.403-18.813,3.763-3.919,9.41-7.019,17.879-7.529,1.44-.085,2.934-.173,4.424-.256,21.715-1.206,42.845-2.386,45.447-24.129.043-.365.374-.627.739-.583.368.044.627.375.585.742-2.733,22.853-24.415,24.061-46.698,25.303-1.454.079-2.913.161-4.418.252-8.077.488-13.44,3.417-16.996,7.122-6.544,6.817-7.028,16.254-7.028,17.891Z"/>
        <path class="st12" d="M357.359,351.019c0,.369-.299.666-.667.666s-.667-.298-.667-.666c0-1.636-.485-11.074-7.027-17.891-3.557-3.705-8.919-6.635-16.997-7.122-1.504-.091-2.964-.173-4.419-.252-22.282-1.242-43.964-2.45-46.697-25.303-.045-.367.218-.698.583-.742.368-.044.698.218.742.583,2.601,21.743,23.731,22.923,45.446,24.129,1.49.083,2.982.171,4.425.256,8.467.51,14.114,3.61,17.878,7.529,6.893,7.178,7.402,17.095,7.402,18.813Z"/>
        <path class="st12" d="M116.906,373.244c-.177.323-.581.442-.903.268-.324-.176-.441-.581-.268-.902.842-1.549,1.545-3.09,2.228-4.588,4.164-9.118,7.524-16.481,35.381-14.842,15.694.922,28.462-1.678,37.547-7.015,9.221-5.421,14.642-13.678,15.458-23.936.029-.371.35-.643.717-.615.367.03.642.351.612.718-.851,10.713-6.504,19.331-16.114,24.98-9.307,5.47-22.334,8.14-38.299,7.198-26.944-1.583-30.138,5.407-34.091,14.068-.692,1.514-1.406,3.078-2.269,4.667Z"/>
        <path class="st12" d="M349.174,372.609c.178.321.056.726-.264.902-.324.175-.727.056-.904-.268-.863-1.589-1.578-3.154-2.269-4.667-3.954-8.662-7.144-15.651-34.092-14.068-15.967.942-28.991-1.728-38.299-7.198-9.61-5.649-15.263-14.267-16.115-24.98-.028-.367.247-.688.613-.718.368-.028.688.244.717.615.817,10.258,6.238,18.515,15.458,23.936,9.084,5.337,21.853,7.938,37.548,7.015,27.856-1.638,31.216,5.724,35.38,14.842.683,1.497,1.387,3.039,2.226,4.588Z"/>
        <path class="st12" d="M122.71,393.322c-.338.149-.73-.008-.874-.345-.147-.337.009-.73.346-.875,1.016-.44,2.249-.982,3.403-1.488,14.051-6.166,14.703-6.452,44.527-4.693,15.816.934,29.433-1.154,39.893-8.249,10.446-7.079,17.788-19.19,21.087-38.311.062-.363.407-.607.771-.545.363.063.606.407.545.772-3.37,19.509-10.909,31.9-21.658,39.189-10.735,7.277-24.622,9.427-40.716,8.477-29.505-1.743-30.146-1.462-43.918,4.58-.951.419-1.975.869-3.405,1.488Z"/>
        <path class="st12" d="M342.73,392.102c.338.145.493.538.348.875-.147.337-.538.494-.875.345-1.43-.619-2.455-1.069-3.406-1.488-13.772-6.042-14.412-6.323-43.917-4.58-16.095.95-29.985-1.2-40.717-8.477-10.748-7.289-18.29-19.68-21.657-39.189-.063-.365.181-.708.545-.772.364-.062.708.182.77.545,3.299,19.121,10.641,31.232,21.088,38.311,10.46,7.095,24.076,9.183,39.893,8.249,29.823-1.759,30.476-1.474,44.526,4.693,1.153.506,2.387,1.047,3.403,1.488Z"/>
        <path class="st8" d="M192.963,354.847c4.827-3.634,7.82-8.707,9.729-14.447.772-2.317,1.469-4.645,2.075-7.002-2.705,5.661-7.177,10.37-13.202,13.912-9.307,5.47-22.334,8.14-38.299,7.198-26.944-1.583-30.138,5.407-34.091,14.068-.207.452-.416.913-.632,1.375.182-.198.365-.389.537-.567,1.678-1.716,3.636-3.199,5.687-4.415,7.678-4.556,16.865-5.589,25.575-4.74,4.402.428,8.825.789,13.246.936,3.838.127,7.712.101,11.535-.264,6.299-.601,12.668-2.156,17.842-6.053Z"/>
        <path class="st8" d="M159.524,329.051c4.984-.984,9.818-2.749,13.67-6.236,3.32-3.005,5.439-6.855,6.871-11.101.029-.085.057-.173.086-.26-7.568,12.321-25.144,13.299-43.109,14.301-1.454.079-2.913.161-4.418.252-8.077.488-13.44,3.417-16.996,7.122-5.434,5.661-6.69,13.124-6.96,16.433.309-.839.709-1.702,1.08-2.454,1.255-2.531,2.873-4.911,4.755-6.994,6.406-7.105,15.051-9.977,24.37-9.8,3.753.071,7.523.06,11.272-.153,3.138-.179,6.294-.498,9.38-1.111Z"/>
        <path class="st8" d="M291.717,322.815c3.854,3.487,8.686,5.252,13.67,6.236,3.085.613,6.243.932,9.38,1.111,3.749.212,7.519.224,11.273.153,9.319-.176,17.962,2.695,24.37,9.8,1.882,2.083,3.499,4.463,4.755,6.994.23.466.471.976.693,1.494-.424-3.64-1.903-10.308-6.862-15.473-3.557-3.705-8.919-6.635-16.997-7.122-1.504-.091-2.964-.173-4.419-.252-17.495-.976-34.624-1.932-42.495-13.359,1.424,3.977,3.494,7.575,6.633,10.419Z"/>
        <path class="st8" d="M311.646,354.508c-15.967.942-28.991-1.728-38.299-7.198-6.027-3.542-10.495-8.251-13.201-13.912.605,2.356,1.302,4.685,2.072,7.002,1.912,5.74,4.902,10.814,9.732,14.447,5.175,3.897,11.543,5.452,17.842,6.053,3.825.365,7.696.391,11.532.264,4.423-.147,8.845-.508,13.248-.936,8.709-.849,17.897.184,25.574,4.74,2.052,1.216,4.01,2.699,5.689,4.415.171.179.353.369.535.567-.214-.462-.422-.922-.631-1.375-3.954-8.662-7.144-15.651-34.092-14.068Z"/>
        <path class="st8" d="M294.88,387.255c-16.095.95-29.985-1.2-40.717-8.477-8.175-5.544-14.493-14.037-18.533-26.372,4.72,31.672,30.116,43.174,59.154,40.589,7.966-.708,15.954-1.321,23.941-1.686,4.653-.212,9.346-.355,14.005-.26,1.565.032,3.178.081,4.762.216-12.54-5.49-14.069-5.698-42.614-4.011Z"/>
        <path class="st8" d="M170.126,392.995c29.041,2.585,54.437-8.92,59.156-40.589-4.039,12.335-10.359,20.828-18.533,26.372-10.735,7.277-24.622,9.427-40.716,8.477-28.547-1.688-30.073-1.48-42.614,4.011,1.584-.135,3.197-.184,4.762-.216,4.658-.095,9.352.048,14.003.26,7.988.365,15.978.978,23.941,1.686Z"/>
        <path class="st12" d="M98.046,259.047c-.269.25-.69.234-.942-.034-.249-.27-.234-.692.035-.94.354-.331.756-.746,1.2-1.206.873-.908,1.908-1.981,3.123-2.967,4.262-3.461,10.471-5.718,18.556,4.241,5.55,6.835,10.278,12.355,15.512,15.404,5.155,3.007,10.866,3.626,18.483.764.344-.129.729.044.857.389.131.343-.042.728-.387.857-8.05,3.027-14.116,2.354-19.619-.855-5.429-3.164-10.242-8.777-15.88-15.719-7.367-9.072-12.904-7.113-16.682-4.048-1.148.934-2.155,1.978-3.004,2.858-.46.476-.878.908-1.252,1.257Z"/>
        <path class="st12" d="M367.773,258.073c.27.248.284.67.034.94-.251.268-.671.284-.943.034-.374-.349-.788-.782-1.248-1.257-.849-.881-1.856-1.924-3.004-2.858-3.78-3.064-9.316-5.024-16.683,4.048-5.638,6.942-10.452,12.555-15.878,15.719-5.504,3.209-11.571,3.882-19.62.855-.344-.129-.519-.514-.39-.857.129-.345.515-.518.859-.389,7.616,2.862,13.328,2.243,18.483-.764,5.232-3.049,9.961-8.569,15.512-15.404,8.087-9.959,14.295-7.702,18.557-4.241,1.213.986,2.249,2.059,3.122,2.967.445.46.846.875,1.2,1.206Z"/>
        <path class="st2" d="M153.908,222.448c-14.573-12.266-28.457-31.073-38.827-51.992-.557-1.127-1.107-2.259-1.643-3.394-1.346-2.852-2.625-5.734-3.831-8.642.728,3.183,1.578,6.321,2.545,9.407.376,1.2.769,2.388,1.178,3.57,7.868,22.675,22.104,42.404,40.578,57.092v-6.042Z"/>
        <path class="st7" d="M372.397,133.213c-3.652,1.375-7.45,2.692-11.378,3.955-.546,10.881-2.434,21.389-5.486,31.374,10.735-.512,16.355-17.53,16.864-35.329Z"/>
        <path class="st7" d="M108.683,168.542c-3.08-9.985-4.98-20.493-5.531-31.372-3.931-1.266-7.727-2.582-11.38-3.957.51,17.825,6.146,34.863,16.911,35.329Z"/>
        <path class="st8" d="M297.63,264.436c-1.075.468-2.149.904-3.215,1.319-2.154.833-4.272,1.557-6.269,2.182-17.014,5.339-36.918,7.472-54.901,7.483-19.209.016-40.931-2.386-58.984-8.408-1.209-.403-2.468-.847-3.753-1.331-1.059-.401-2.137-.829-3.221-1.287-3.471-1.466-7.001-3.233-10.179-5.326.014,1.295.033,2.587.049,3.88,2.779,1.912,5.998,3.725,9.563,5.417,1.023.484,2.075.96,3.154,1.424,19.423,8.366,47.383,13.273,70.802,11.5,19.809-1.502,38.282-5.871,49.081-8.846,4.686-1.289,9.913-.413,10.605,4.762.288,2.136.668,4.574,1.164,7.111,1.515,7.74,4.121,16.441,8.492,20.564-.73-1.291-1.162-2.765-1.466-4.231-.365-1.761-.56-3.586-.694-5.381-.186-2.444-.255-4.911-.293-7.361-.01-.7-.018-1.398-.025-2.098-.011-1.271-.015-2.549-.012-3.822.006-5.349.11-10.713.186-16.05.031-2.346.06-4.693.09-7.041-3.112,2.164-6.633,4.001-10.175,5.54Z"/>
        <path class="st8" d="M271.056,239.823c-9.251,3.614-18.747,5.68-28.139,6.619-1.169.115-2.336.214-3.501.296-4.69.333-9.34.395-13.911.236-1.098-.038-2.193-.089-3.282-.153-20.246-1.166-38.642-6.47-51.229-11.282-1.203-.46-2.35-.916-3.443-1.361-.889-.365-1.739-.722-2.55-1.071-1.612-.694-3.069-1.359-4.358-1.974-.574-.274-1.115-.537-1.619-.793h-.004c-.622-.311-1.193-.609-1.706-.887-.023-.01-.047-.022-.07-.038v1.902c.014.01.026.024.039.036,0,0,.001,0,.003.002.009.006.018.016.029.024.016.016.034.032.052.048.961.873,2.021,1.736,3.171,2.582,2.129,1.573,4.572,3.102,7.278,4.564,1.103.597,2.25,1.18,3.437,1.753,1.182.569,2.404,1.127,3.664,1.672,15.223,6.579,35.966,11.214,56.962,11.467,20.19.246,40.617-3.711,56.59-10.786v-11.819c-1.267.829-2.544,1.62-3.831,2.376-4.436,2.612-8.978,4.79-13.583,6.587Z"/>
      </g>
    </g>
  </g>
  <rect class="st13" x="24.707" y="-80.333" width="400" height="400"/>
  <rect class="st13" x="26.374" y="380" width="400" height="400"/>
  <metadata>
    <sfw xmlns="http://ns.adobe.com/SaveForWeb/1.0/">
      <slices/>
      <sliceSourceBounds x="-2051.88" y="-4498.52" width="4384.6" height="3952.85" bottomLeftOrigin="true"/>
      <optimizationSettings>
        <targetSettings fileFormat="PNG24Format" targetSettingsID="0">
          <PNG24Format filtered="false" interlaced="false" matteColor="#FFFFFF" noMatteColor="false" transparency="true"/>
        </targetSettings>
      </optimizationSettings>
    </sfw>
  </metadata>
</svg>