<?xml version="1.0" encoding="UTF-8"?>
<svg id="Layer_1" xmlns="http://www.w3.org/2000/svg" version="1.1" viewBox="0 0 308.601 456.202">
  <!-- Generator: Adobe Illustrator 30.1.0, SVG Export Plug-In . SVG Version: 2.1.1 Build 136)  -->
  <defs>
    <style>
      .st0 {
        fill: #dad1b7;
      }

      .st0, .st1, .st2, .st3, .st4, .st5, .st6, .st7, .st8, .st9, .st10, .st11, .st12, .st13, .st14, .st15, .st16, .st17 {
        fill-rule: evenodd;
      }

      .st1 {
        fill: #c40019;
      }

      .st2 {
        fill: #83171c;
      }

      .st3 {
        fill: #c3b894;
      }

      .st4 {
        fill: #243a61;
      }

      .st5 {
        fill: #fff;
      }

      .st18 {
        fill: none;
      }

      .st6 {
        fill: #4a6785;
      }

      .st7 {
        fill: #9d9d9d;
      }

      .st8 {
        fill: #c7c8c8;
      }

      .st9 {
        fill: #9a8b6d;
      }

      .st10 {
        fill: #97b88f;
      }

      .st11 {
        fill: #717070;
      }

      .st12 {
        fill: #849e7e;
      }

      .st13 {
        fill: #595858;
      }

      .st15 {
        fill: #7c90a5;
      }

      .st16 {
        fill: #bcd8bd;
      }

      .st17 {
        fill: #d6e7d8;
      }
    </style>
  </defs>
  <g>
    <path class="st14" d="M278.292,373.372c7.91,15.496,9.799,32.129,10.278,55.401,1.181,3.621,3.213,7.605,5.342,10.719,2.036,2.977,2.766,6.548.873,9.799-1.874,3.213-5.976,4.963-9.527,5.448l-.188.025c-.079.012-.146.016-.224.019l-67.376.979c-3.385.053-6.601-1.187-8.413-4.18-2.374-3.925-1.144-8.988,1.316-12.553.679-.982,1.464-1.684,2.426-2.377.562-.407,1.15-.789,1.669-1.259.012-.009.028-.025.042-.037-.011-.096-.033-.202-.047-.273-2.028-10.651-7.771-24.229-15.427-32.763-6.447,1.221-13.041,1.712-19.609,1.51-5.417-.168-10.775-.78-16.026-1.834-3.734,2.909-7.15,6.185-9.934,9.905-4.143,5.538-6.373,11.39-7.844,18.1-.926,4.214-2.006,8.438-3.409,12.519-1.386,4.034-4.099,11.042-8.3,12.845-1.478.631-3.812.622-5.434.677-2.775.09-5.551.115-8.328.134-8.029.056-16.055.016-24.083-.037-11.979-.081-23.959-.202-35.938-.376l-2.004-.028c-.737-.009-1.361-.42-1.663-1.097l-.813-1.831c-.723-1.622-1.1-3.664-1.167-5.439-.152-4.05,1.262-7.907,3.927-10.952,2.842-3.248,6.836-5.156,10.979-6.132.146-.034.289-.068.435-.099-.746-4.879-1.456-9.768-2.054-14.669-.668-5.46-1.209-10.952-1.361-16.459-.252-9.028.564-18.057,4.401-26.358,3.621-7.835,9.411-13.905,16.186-19.12,2.856-2.2,5.854-4.252,8.938-6.188-7.434-16.528-10.376-34.64-9.6-52.734.151-3.503.392-7.002.721-10.489.196-2.076.423-4.152.684-6.234-6.791,4.55-13.906,8.239-20.212,9.348-13.998,2.464-28.582-5.42-38.816-14.324-13.174-11.462-22.983-27.387-27.746-44.157-1.534-5.398-1.294-10.862,1.102-15.971.948-2.312,2.179-4.497,3.646-6.52,3.531-4.879,8.325-8.724,13.56-11.636,6.8-3.789,14.837-6.306,22.579-7.105,5.381-.559,13.762-.578,17.488,4.018,1.857,2.291,3.338,4.998,4.677,7.617,1.602,3.13,3.041,6.34,4.413,9.575,1.549,3.652,3.026,7.341,4.429,11.052.134.168.252.348.354.544.037.072.065.137.093.211.342.923.699,2.005,1.057,3.204,1.42-.606,2.844-1.2,4.27-1.79,6.71-2.769,13.494-5.367,20.384-7.652,4.082-1.352,8.296-2.663,12.553-3.689,1.308-1.728,2.685-3.388,4.134-4.963-3.273-1.523-6.502-3.142-9.706-4.777-8.488-4.329-16.814-8.988-24.897-14.029-11.829-7.381-31.95-20.978-37.251-34.125-6.23-15.449,6.623-41.217,13.902-54.941,3.795-7.155,7.854-14.163,11.999-21.12,1.468-2.465,2.952-4.918,4.435-7.375l-.056-.218c-1.692-6.771-.923-13.717,4.14-18.876,1.51-1.54,3.496-2.934,5.498-3.869,2.623-5.638,5.417-11.201,8.373-16.672,1.772-3.28,3.608-6.528,5.628-9.661,5.268-8.164,16.221-13.609,25.276-16.372,15.592-4.761,32.737-4.468,48.644-1.476,19.113,3.593,37.754,11.804,50.475,26.972,3.767,4.491,7.409,9.269,8.814,15.076.566,2.345.762,4.732.848,7.137.099,2.795.093,5.594.171,8.391l.848,30.232c2.881,1.357,5.675,2.934,8.385,4.561,4.628,2.781,9.091,5.842,13.358,9.15,7.636,5.924,18.209,15.443,20.929,24.959.482,1.686.564,3.433.194,5.15-1.987,9.23-15.995,13.174-23.949,15.07-1.615.385-3.24.74-4.872,1.063-.168,3.499-.839,6.946-2.377,10.181-3.03,6.381-8.873,10.759-14.654,14.498-2.67,1.725-5.401,3.357-8.152,4.954,25.556,6.629,48.318,20.916,64.482,42.777,21.845,29.537,27.083,66.664,18.482,101.954-3.493,14.337-9.771,27.71-18.541,39.572-2.433,3.294-5.055,6.464-7.838,9.488Z"/>
    <g>
      <path class="st14" d="M73.253,226.283c2.02-.879,4.057-1.734,6.085-2.573,6.66-2.75,13.423-5.339,20.262-7.608,6.609-2.191,13.918-4.36,20.837-5.212,4.836-.597,12.13-.852,14.853,4.155,3.22,5.92-3.231,15.754-6.517,20.456-6.269,8.972-14.352,17.591-22.358,25.034-9.404,8.746-26.308,22.653-39.207,24.925-13.407,2.359-27.509-5.395-37.282-13.898-12.902-11.226-22.518-26.846-27.18-43.265-1.417-4.991-1.206-10.013,1.016-14.725.893-2.194,2.059-4.261,3.45-6.178,3.369-4.656,7.966-8.326,12.96-11.107,6.554-3.649,14.402-6.107,21.87-6.881,4.583-.472,12.634-.637,15.861,3.344,1.739,2.145,3.213,4.839,4.471,7.294,1.577,3.086,3.002,6.268,4.354,9.457,2.325,5.482,4.522,11.136,6.526,16.783Z"/>
      <path class="st16" d="M55.509,194.692c6.39,7.882,15.937,35.765,15.937,35.765,0,0,55.086-25.068,61.136-13.942,6.051,11.126-42.525,61.794-65.91,65.909-21.085,3.714-51.191-20.559-60.962-54.969-1.357-4.777-.876-8.979.873-12.64,8.522-21.124,43.899-26.324,48.926-20.123Z"/>
      <path class="st10" d="M90.337,270.02c-8.691,6.505-17.154,11.26-23.665,12.404-21.085,3.714-51.191-20.559-60.962-54.969-1.357-4.777-.876-8.979.873-12.64,7.913-19.617,38.973-25.497,47.398-21.276-1.439,7.611-17.326,15.117-27.349,20.291-11.092,5.728,12.208,49.481,26.249,59.472,14.041,9.992,37.891-4.895,37.891-4.895,0,0-.14.587-.435,1.613Z"/>
      <path class="st10" d="M81.573,276c-4.359,2.663-8.494,4.668-12.158,5.762-5.805-3.807-9.436-11.937,3.111-16.702,7.176-.295,9.515,5.681,9.047,10.94Z"/>
      <path class="st10" d="M85.893,252.52c5.156,8.301-2.103,12.708-6.685,6.592-4.037-5.389,1.896-8.743,6.685-6.592Z"/>
      <path class="st10" d="M73.92,255.826c5.229,3.695-4.12,9.737-5.332,3.357-.642-3.381,2.684-3.9,5.332-3.357Z"/>
      <path class="st10" d="M94.595,246.727c5.231,3.695-4.12,9.74-5.33,3.357-.643-3.378,2.685-3.897,5.33-3.357Z"/>
      <path class="st10" d="M91.055,269.479c-1.628,1.234-3.251,2.412-4.854,3.518-.954-.283-1.753-1.1-2.051-2.679-.643-3.384,2.682-3.9,5.33-3.356,1.106.78,1.559,1.666,1.576,2.517Z"/>
      <path class="st14" d="M71.572,221.23c2.303,6.197,5.523,20.876,3.779,27.132-1.315-8.046-3.562-18.287-6.771-25.696-.384-.734.235-1.688.968-2.07.735-.382,1.641-.099,2.023.634Z"/>
      <path class="st17" d="M74.879,234.196c11.54-7.872,23.715-10.716,35.288-16.537,1.058-.531,2.017-1.967,2.207-2.25-.692.211-8.968,2.713-9.661,2.934-11.857,3.785-23.797,8.836-28.81,11.027.358,1.557.69,3.189.976,4.827Z"/>
      <path class="st14" d="M71.923,431.667c-.842-5.448-1.65-10.905-2.318-16.375-.659-5.395-1.195-10.85-1.346-16.285-.243-8.739.517-17.497,4.23-25.528,3.493-7.565,9.1-13.401,15.636-18.436,8.828-6.8,19.429-12.36,29.393-17.298l1.809-.895,1.562,1.277c5.314,4.342,10.554,8.817,15.758,13.289,13.474,11.574,26.745,23.402,39.823,35.427l3.251,2.987-3.894,2.079c-8.84,4.714-17.768,10.778-23.837,18.886-4.32,5.771-6.638,11.822-8.174,18.812-1.156,5.277-4.963,21.631-10.629,24.055-1.119.482-3.53.491-4.766.531-2.757.09-5.521.115-8.281.134-8.015.059-16.04.016-24.055-.037-11.975-.081-23.952-.205-35.926-.373l-2.003-.028-.814-1.831c-.62-1.395-.951-3.254-1.008-4.758-.135-3.608,1.095-6.949,3.47-9.665,2.583-2.949,6.253-4.665,10.014-5.551.665-.158,1.38-.301,2.107-.416Z"/>
      <path class="st16" d="M174.349,389.145c-24.459,13.044-30.656,26.417-33.591,39.79-2.935,13.37-6.522,20.869-8.806,21.851-2.281.976-71.748,0-71.748,0,0,0-2.611-5.874,1.955-11.089,4.567-5.218,13.373-5.218,13.373-5.218-8.73-55.659-7.863-68.547,43.375-93.929,0,0,23.157,18.914,55.443,48.595Z"/>
      <path class="st10" d="M137.369,441.217c-1.995,5.7-3.969,8.944-5.417,9.569-2.281.976-71.748,0-71.748,0,0,0-1.476-3.325-.264-7.195.985-.286,1.959-.447,2.884-.447,6.85,0,11.09,5.383,16.145,5.056,5.053-.326,6.359-6.197,13.861-6.036,7.499.165,8.643,3.751,17.284,5.709,8.641,1.955,12.231-1.305,15.982-9.622,4.466.929,8.217,1.924,11.272,2.965Z"/>
      <path class="st10" d="M174.349,389.145c-24.459,13.044-30.656,26.417-33.591,39.79-2.935,13.37-6.522,20.869-8.806,21.851-.527.224-4.659.345-10.686.401,1.786-3.276,3.198-7.248,3.198-11.956,0-14.675.979-35.874,16.958-61.642,8.108-1.831,14.352-1.911,19.148-.97,4.36,3.919,8.968,8.102,13.78,12.525Z"/>
      <g>
        <path class="st12" d="M121.948,417.616c11.589,1.697,12.118-14.539,7.195-17.631-6.446-4.053-25.034,8.64-7.195,17.631Z"/>
        <path class="st12" d="M133.936,431.477c5.992-7.72-.769-12.857-5.962-7.247-4.575,4.941.976,8.891,5.962,7.247Z"/>
        <path class="st12" d="M142.035,399.102c-12.592-.261-6.949,13.28,1.347,9.482,3.35-1.535,4.783-6.39.982-8.491l-2.329-.991Z"/>
        <path class="st12" d="M122.373,426.946c5.585-3.133-3.086-10.113-4.954-3.891-.991,3.297,2.263,4.155,4.954,3.891Z"/>
        <path class="st12" d="M139.007,417.486c5.585-3.13-3.088-10.11-4.954-3.888-.991,3.294,2.263,4.155,4.954,3.888Z"/>
        <path class="st12" d="M133.677,379.644c-19.608-.41-10.818,20.677,2.098,14.759,5.218-2.387,7.45-9.948,1.529-13.218l-3.627-1.542Z"/>
      </g>
      <path class="st14" d="M166.828,178.412c10.547-1.569,21.822-1.678,32.428-.774,75.733,6.443,121.583,72.531,103.619,146.235-3.44,14.113-9.597,27.234-18.231,38.91-6.15,8.314-13.522,15.863-21.705,22.193-3.282,2.539-7.176,5.324-10.871,7.266l-1.672.876-1.557-1.066c-1.666-1.144-3.302-2.409-4.886-3.655-4.133-3.254-8.121-6.722-11.968-10.306-12.882-11.999-24.487-25.649-34.308-40.25-31.666-47.097-42.721-100.826-33.478-156.845l.373-2.25,2.256-.336Z"/>
      <path class="st4" d="M167.288,181.508c143.867-21.426,176.777,158.874,83.322,207.963,0,0-105.675-72.482-83.322-207.963Z"/>
      <path class="st14" d="M192.624,185.983c25.662,6.654,47.308,20.643,62.93,42.161,13.757,18.946,21.446,41.875,23.87,65.051,2.163,20.649.28,43.252-6.889,62.829-5.363,14.65-15.208,31.094-30.741,36.52-4.724,1.65-8.581-5.218-10.436-8.5-1.725-3.052-3.27-6.241-4.733-9.426-1.868-4.056-3.619-8.167-5.314-12.301-4.207-10.253-8.096-20.664-11.866-31.088-4.314-11.925-8.46-23.912-12.519-35.924-7.565-22.386-14.831-44.878-21.923-67.419-3.257-10.355-6.492-20.726-9.642-31.116l-.623-2.057,1.697-1.321c2.317-1.8,5.349-3.481,8-4.684,5.585-2.53,11.894-3.953,18.002-2.766l.095.019.093.022Z"/>
      <path class="st6" d="M191.837,189.017c110.342,28.608,98.61,183.212,48.921,200.573-12.375,4.323-72.401-193.726-72.401-193.726,0,0,11.739-9.131,23.48-6.847Z"/>
      <path class="st14" d="M126.153,201.597c9.771,6.321,21.923,4.339,32.131.264,4.396-1.756,8.666-3.975,12.688-6.474,1.691-1.051,3.475-2.207,5.056-3.425l1.377-1.063,1.628.609c56.19,20.969,89.385,89.923,80.258,147.59-1.927,12.167-6.763,23.626-14.265,33.403-7.316,9.532-16.839,17.044-27.735,22.078-11.819,5.461-24.826,7.801-37.807,7.4-16.863-.522-33.994-5.426-48.169-14.616-14.357-9.305-25.637-22.401-33.152-37.739-8.354-17.056-10.79-35.98-9.981-54.888.148-3.472.387-6.94.713-10.399,1.532-16.17,5.007-32.816,10.902-47.979,4.862-12.506,12.167-25.892,22.663-34.547l1.768-1.461,1.924,1.246Z"/>
      <path class="st3" d="M124.452,204.227c-19.687,16.242-31.573,54.021-33.142,90.644-2.555,59.668,37.232,102.404,88.27,103.98,40.558,1.252,71.038-25,76.615-60.24,8.96-56.585-23.809-123.849-78.256-144.168,0,0-31.309,24.133-53.486,9.784Z"/>
      <path class="st0" d="M122.422,206.007c-18.472,17.1-29.598,53.518-31.111,88.863-1.122,26.165,5.902,49.073,18.445,66.686-.155-.311-.289-.609-.452-.926-30.658-59.354-5.871-120.02,14.351-151.325-.401-1.162-.814-2.253-1.232-3.298Z"/>
      <path class="st9" d="M106.896,357.295c15.842,25.052,42.264,40.617,72.684,41.555,40.558,1.252,71.038-25,76.615-60.24,2.632-16.624,1.66-34.171-2.405-51.18-29.276,8.115-62.406,23.34-71.107,33.736,10.764,21.202,14.024,20.546,32.94,17.612,18.916-2.934-4.893,40.766-52.835,41.092-25.366.174-43.063-10.43-55.892-22.576Z"/>
      <path class="st0" d="M124.452,204.227c-1.762,1.455-3.459,3.083-5.094,4.864.037,7.596,1.855,20.655,22.557,18.476,23.909-2.517,36.894-17.171,43.635-29.913-2.486-1.172-5.024-2.244-7.611-3.21,0,0-31.309,24.133-53.486,9.784Z"/>
      <path class="st14" d="M195.02,229.155c-.59-4.612.416-9.395,3.484-12.994,3.958-4.643,9.939-5.79,15.731-4.715,8.435,1.566,16.504,7.577,22.602,13.333,6.663,6.293,11.897,14.138,15.834,22.38,5.139,10.762,8.525,23.163,9.345,35.075.578,8.366.023,19.999-5.271,26.948-5.417,7.108-15.94,13.873-23.626,18.349-6.298,3.664-12.915,7.058-19.604,9.955-3.229,1.399-9.899,4.239-13.4,4.239-6.516,0-15.793-12.758-19.053-17.622-3.604-5.383-9.729-15.754-8.836-22.451.931-6.983,13.389-15.452,18.849-19.117,6.014-4.031,12.449-7.931,18.869-11.443-5.596-11.005-15.252-31.974-14.926-41.938Z"/>
      <path class="st14" d="M94.474,329.732c-.267-.205-.317-.594-.112-.861.208-.267.594-.317.861-.109,9.485,7.353,23.449,11.869,39.566,13.544-.948-3.201-1.809-6.48-2.58-9.815-4.211-18.209-5.805-38.177-4.842-57.52-12.309-1.852-23.368-6.194-32.244-13.075-.267-.205-.317-.594-.109-.861.208-.271.594-.317.861-.112,8.679,6.732,19.5,10.983,31.559,12.817.758-13.653,2.794-26.964,6.087-39.088,1.119-4.121,2.387-8.115,3.798-11.937.118-.32.472-.482.792-.367.317.118.483.469.365.789-1.397,3.785-2.654,7.742-3.767,11.841-3.28,12.074-5.304,25.335-6.053,38.939,9.902,1.361,20.605,1.116,31.621-.712,24.401-4.05,50.323-15.847,72.449-35.088.258-.224.647-.196.867.062.224.255.194.643-.062.864-22.302,19.396-48.442,31.293-73.057,35.374-11.098,1.84-21.889,2.095-31.887.73-.945,19.191.64,39.004,4.82,57.07.802,3.478,1.703,6.89,2.701,10.219,11.316,1.063,23.648.743,36.207-.954,29.197-3.95,59.587-15.356,81.285-34.224.256-.224.645-.196.866.062.224.255.196.643-.062.867-21.886,19.03-52.514,30.535-81.923,34.513-12.463,1.684-24.709,2.017-35.992.998,8.006,25.951,21.935,46.73,41.987,54.139,1.28.475,2.595.895,3.938,1.259.329.09.522.429.435.758-.09.326-.429.522-.757.432-1.371-.373-2.718-.805-4.042-1.293-20.574-7.602-34.793-28.897-42.882-55.42-16.559-1.663-30.939-6.275-40.694-13.843Z"/>
      <path class="st16" d="M198.159,229.012c-1.956-13.697,13.044-24.133,36.527-1.958,23.483,22.181,30.003,66.533,19.57,80.233-10.439,13.696-47.619,31.306-54.141,31.306s-26.092-26.74-24.787-36.527c1.305-9.784,38.811-29.677,38.811-29.677,0,0-16.633-31.635-15.981-43.376Z"/>
      <g>
        <path class="st10" d="M229.772,222.784c1.594,1.268,3.231,2.682,4.914,4.27,2.561,2.421,4.92,5.103,7.08,7.981-8.379,2.897-12.725-6.412-11.993-12.251Z"/>
        <path class="st10" d="M234.151,251.149c-7.686-6.036-2.374-12.658,4.025-8.481,5.639,3.683,1.212,8.864-4.025,8.481Z"/>
        <path class="st10" d="M218.434,221.708c12.152-3.31,9.964,11.195.995,9.526-3.624-.674-6.191-5.035-3.015-7.996l2.02-1.529Z"/>
        <path class="st10" d="M243.686,237.732c1.172,1.719,2.275,3.496,3.31,5.321-.794.454-1.778.752-2.729.889-3.782-1.029-2.729-4.755-.581-6.21Z"/>
        <path class="st10" d="M225.836,238.808c-6.177-1.681.539-10.557,3.861-4.976,1.762,2.956-1.187,4.581-3.861,4.976Z"/>
        <path class="st10" d="M247.847,268.432c-7.686-6.029-2.373-12.658,4.025-8.478,5.641,3.683,1.214,8.86-4.025,8.478Z"/>
      </g>
      <path class="st14" d="M228.827,90.268c3.922,1.546,7.841,3.703,11.452,5.872,4.553,2.736,8.976,5.771,13.174,9.026,7.226,5.605,17.696,14.952,20.285,24.007.398,1.396.469,2.831.165,4.252-1.776,8.25-15.561,11.992-22.569,13.661-5.168,1.234-10.455,2.138-15.721,2.844-2.432.326-4.901.631-7.348.833l-2.963.249-.399-2.946c-1.228-9.028-2.151-18.298-2.73-27.387-.378-5.941-.654-12.138-.294-18.081.217-3.625.71-10.014,4.189-12.101l1.324-.794,1.436.567Z"/>
      <path class="st2" d="M227.677,93.178c12.393,4.893,39.136,23.157,43.05,36.854,3.913,13.697-42.724,17.612-42.724,17.612,0,0-6.85-50.553-.326-54.466Z"/>
      <path class="st14" d="M113.314,175.466c16.363,10.029,34.619,12.31,53.129,7.85,6.076-1.464,12.055-3.621,17.674-6.356,2.21-1.075,4.649-2.34,6.701-3.711l9.488-6.353-4.923,10.306c-1.628,3.406-3.807,6.94-5.846,10.1-5.321,8.261-11.493,16.083-18.162,23.287-7.555,8.158-18.305,13.41-29.435,14.048-3.72.211-7.807-.102-11.325-1.402-3.021-1.119-5.973-3.151-6.834-6.43-.155-.597-.233-1.206-.233-1.818,0-13.411-5.821-24.701-14.278-34.849l-12.18-14.616,16.223,9.942Z"/>
      <path class="st10" d="M111.676,178.136c13.044,15.654,15.003,28.375,15.003,36.853s26.091,11.089,42.398-6.523c16.307-17.609,23.481-32.614,23.481-32.614,0,0-40.44,27.07-80.882,2.284Z"/>
      <path class="st14" d="M81.865,60.247c11.881-11.241,26.244-17.771,42.366-20.109,14.352-2.082,29.173-.726,43.258,2.472,11.515,2.614,22.871,6.517,33.669,11.291,4.629,2.045,9.519,4.345,13.906,6.893l.866.5.413.914c1.978,4.357,3.882,8.763,5.761,13.162,4.081,9.563,8.014,19.203,11.664,28.938,2.499,6.673,4.89,13.424,6.957,20.242,1.63,5.377,3.268,11.272,3.924,16.857.706,6.004.85,12.341-1.806,17.926-2.862,6.02-8.043,11.322-13.494,14.849-9.025,5.84-19.315,9.883-28.633,15.303-13.709,7.978-29.547,15.922-45.133,19.35-10.197,2.244-20.733,2.592-30.616-1.197-6.107-2.337-12.309-5.153-18.131-8.121-8.425-4.295-17.842-9.193-25.865-14.197-11.286-7.039-30.3-20.58-35.406-33.245-5.948-14.753,6.949-40.429,13.821-53.386,3.779-7.126,7.826-14.11,11.953-21.039,3.316-5.566,6.725-11.09,9.967-16.696l.228-.395.331-.314Z"/>
      <path class="st16" d="M84.018,62.522c-12.068,20.872-43.703,68.163-35.549,88.382,8.155,20.22,62.293,47.942,77.621,53.813,15.328,5.871,37.18,2.934,73.055-17.936,35.874-20.876,45.005-22.83,42.398-45.008-2.611-22.178-28.048-78.272-28.048-78.272,0,0-80.882-46.963-129.475-.979Z"/>
      <path class="st10" d="M84.018,62.522c-1.869,3.235-4.21,7.103-6.799,11.407,21.513-7.097,47.103-11.634,70.85-9.583,26.417,2.283,60.336,22.178,70.772,33.267,9.857,10.47,19.937,60.97,2.253,76.55,17.723-10.464,22.408-15.701,20.447-32.39-2.611-22.178-28.048-78.272-28.048-78.272,0,0-80.882-46.963-129.475-.979Z"/>
      <path class="st14" d="M85.15,47.777c2.682-5.798,5.59-11.599,8.615-17.204,1.745-3.227,3.568-6.453,5.557-9.538,5.018-7.777,15.706-12.994,24.26-15.605,15.3-4.671,32.17-4.36,47.765-1.428,18.686,3.513,36.962,11.513,49.4,26.344,3.559,4.244,7.105,8.839,8.433,14.322.539,2.225.716,4.488.797,6.769.101,2.788.093,5.585.172,8.376l.99,35.321-5.001-3.243c-1.507-.976-3.071-1.907-4.62-2.816-3.992-2.343-8.073-4.556-12.206-6.645-11.916-6.026-24.801-11.314-37.804-14.417-1.821-.435-2.763-2.379-3.614-3.872-.211-.371-.469-.869-.73-1.29-17.538-6.296-41.487-4.587-59.556-.998-.224.235-.462.528-.64.73-1.001,1.153-2.064,2.41-3.664,2.67-4.917.799-9.951,1.523-14.814,2.586-2.488.541-5.675,1.318-7.843,2.704l-3.667,2.342-1.057-4.222c-1.535-6.143-.929-12.449,3.666-17.131,1.441-1.468,3.506-2.901,5.562-3.756Z"/>
      <path class="st1" d="M78.963,67.904c4.202-2.685,11.477-3.731,23.837-5.739.895-.146,2.681-3.075,3.593-3.259,19.471-3.944,44.523-5.527,62.642,1.297.584.221,2.601,4.621,3.201,4.764,28.701,6.85,55.608,24.297,55.608,24.297l-.824-29.363c-.378-13.48.875-16.161-8.673-27.545-9.526-11.358-24.891-21.012-47.58-25.278C132.611-.095,108.477,12.622,101.953,22.734c-6.522,10.11-14.512,27.559-14.512,27.559,0,0-12.068,3.26-8.478,17.611Z"/>
      <path class="st14" d="M167.329,61.551c-17.811-6.289-41.883-4.576-60.196-.907-.57.113-1.11-.023-1.554-.396s-.674-.878-.659-1.459c.106-4.552.886-9.286,3.646-13.039,5.865-7.973,18.831-10.021,28.039-10.458,6.788-.323,13.929.073,20.641,1.153,2.401.384,4.897.87,7.22,1.596,1.382.432,3.517,1.156,4.21,2.541,1.716,3.434,1.298,15.107,1.119,19.304-.026.606-.311,1.114-.811,1.453-.503.339-1.082.413-1.653.213Z"/>
      <path class="st7" d="M106.769,58.83c19.028-3.81,43.269-5.346,61.177.976.16-3.76.53-15.49-.925-18.399-1.739-3.478-45.658-10.001-56.964,5.436-2.632,3.51-3.199,8.099-3.288,11.987Z"/>
      <path class="st5" d="M168.093,86.029c-6.573,2.121-11.429,11.061-11.201,21.366.208,9.345,4.538,16.922,10.303,19.056,5.485,2.031,15.177.216,19.567-3.621,4.289-3.753-.095-11.863-2.238-20.296-.41-3.745-1.495-7.119-3.058-9.853-2.051-5.703-3.984-9.849-3.984-9.849,0,0-4.733.044-9.389,3.196Z"/>
      <path class="st8" d="M168.093,86.029c-6.573,2.121-11.431,11.063-11.201,21.366.137,6.073,2.014,11.4,4.892,14.971.054-.963-.087-2.135-.474-3.545-4.079-14.854,6.334-26.365,19.618-27.613-1.84-4.929-3.447-8.376-3.447-8.376,0,0-4.733.044-9.389,3.196Z"/>
      <path class="st14" d="M185.519,87.755c-12.304-7.288-25.143,2.329-26.501,16.544-.665,6.974.967,11.684,3.148,17.339.678,1.754.665,2.152.348,1.879-4.283-3.653-6.637-13.375-6.618-18.655.064-18.819,17.008-29.544,31.758-20.286.879.589,3.032,3.099,2.44,3.975-.589.879-3.698-.208-4.575-.796Z"/>
      <path class="st14" d="M178.153,82.405c-8.758,1.503-14.871,12.334-13.656,24.191,1.215,11.857,9.302,20.251,18.06,18.747,8.758-1.503,14.871-12.335,13.656-24.192-1.217-11.857-9.302-20.249-18.06-18.746Z"/>
      <path class="st5" d="M172.926,86.033c3.941-.678,7.459.656,7.86,2.976.398,2.32-2.477,4.75-6.421,5.426-3.941.678-7.459-.656-7.858-2.976-.398-2.32,2.475-4.749,6.419-5.426Z"/>
      <path class="st13" d="M170.305,110.824c-.16-1.116.586-2.144,1.67-2.301,1.085-.154,2.095.626,2.256,1.742.334,2.349,1.215,3.95,2.368,4.943.934.81,2.081,1.239,3.269,1.361,1.242.127,2.519-.081,3.655-.548,1.445-.597,2.623-1.596,3.123-2.82.423-1.037,1.585-1.517,2.598-1.072,1.013.446,1.49,1.647,1.066,2.682-.923,2.266-2.906,4.031-5.283,5.011-1.703.703-3.633,1.013-5.52.819-1.939-.199-3.847-.931-5.451-2.317-1.857-1.604-3.26-4.048-3.753-7.499Z"/>
      <path class="st5" d="M92.438,85.054c-5.795,1.106-11.272,9.159-12.752,19.304-1.307,8.947.889,16.829,5.086,19.968,4.194,3.139,13.111,2.795,17.438-.365,4.169-3.046,1.583-11.681,1.176-20.273.267-3.734-.085-7.206-.939-10.122-.777-5.902-1.708-10.256-1.708-10.256,0,0-3.931-.659-8.303,1.744Z"/>
      <path class="st8" d="M92.438,85.054c-5.795,1.106-11.272,9.159-12.752,19.304-.873,5.98-.18,11.484,1.625,15.413.202-.934.275-2.107.183-3.546-.971-15.18,9.529-24.931,20.745-24.185-.727-5.109-1.499-8.73-1.499-8.73,0,0-3.931-.659-8.303,1.744Z"/>
      <path class="st14" d="M106.607,89.332c-9.019-8.974-21.227-1.444-24.656,12.305-1.683,6.743-1.093,11.608-.2,17.479.277,1.823.202,2.211-.019,1.897-2.957-4.222-3.333-14.11-2.461-19.291,3.105-18.454,18.893-26.464,29.624-15.191.631.707,2.011,3.489,1.378,4.261-.631.774-3.032-.754-3.666-1.461Z"/>
      <path class="st14" d="M101.367,82.991c-7.506.177-14.333,9.899-15.247,21.712-.914,11.813,4.43,21.248,11.936,21.071,7.507-.174,14.332-9.894,15.249-21.71.914-11.814-4.43-21.249-11.937-21.074Z"/>
      <path class="st5" d="M96.444,85.777c3.378-.079,6.082,1.75,6.034,4.085-.045,2.334-2.822,4.294-6.202,4.371-3.381.079-6.082-1.75-6.036-4.085s2.825-4.292,6.203-4.371Z"/>
      <path class="st13" d="M90.252,109.711c.045-1.117.833-2.017,1.758-2.006.925.008,1.635.921,1.588,2.04-.106,2.354.367,4.057,1.161,5.201.645.932,1.526,1.526,2.491,1.821,1.01.309,2.104.295,3.12.005,1.296-.371,2.433-1.176,3.046-2.304.519-.954,1.562-1.252,2.329-.665.768.584.968,1.835.451,2.789-1.133,2.084-3.066,3.523-5.195,4.132-1.526.437-3.175.455-4.708-.014-1.577-.483-3.04-1.486-4.146-3.083-1.28-1.849-2.048-4.454-1.894-7.916Z"/>
      <path class="st14" d="M108.963,48.17c9.128-2.701,17.472-3.838,24.978-4.046,7.701-.211,16.764.743,33.601,3.661,3.576.62,2.286-19.365-3.902-23.269-7.039-4.438-22.401-7.634-36.595-2.252-8.32,3.154-15.838,10.456-18.082,25.906Z"/>
      <path class="st14" d="M99.963,154.616c7.596,3.378,15.657,5.597,24.027,5.196,6.262-.302,11.779-2.02,17.569-4.27,3.834-1.492,29.694-13.815,32.375-8.957.454.824-2.872-1.091-5.51,2.231-.478.345-1.209,1.197-1.6,1.678-1.775,2.166-3.266,4.774-4.514,7.269-4.396,8.792-11.749,22.498-21.852,25.41-11.379,3.279-19.769-2.135-26.021-11.512-4.34-6.508-11.324-13.075-18.181-16.559-.667-.298-3.599-2.43-6.174-4.015l.667-.734c1.747.684,3.431,1.455,3.848,1.653,1.796.861,3.594,1.709,5.367,2.608Z"/>
      <path class="st14" d="M93.796,153.674c8.153,3.916,15.654,7.176,22.178,16.963,6.523,9.78,14.349,13.535,23.971,10.759,9.622-2.772,16.96-16.96,20.708-24.459,3.751-7.502,6.688-9.622,6.688-9.622,0,0-13.373,5.383-25.115,9.948-11.74,4.566-25.438,8.478-48.43-3.589Z"/>
      <path class="st14" d="M131.113,136.329c1.582-.74,3.217-.584,3.652.345.435.932-.494,2.287-2.076,3.027-1.582.737-3.217.581-3.652-.351-.435-.929.494-2.281,2.076-3.021Z"/>
      <path class="st14" d="M116.22,136.329c-1.585-.74-3.22-.584-3.653.345-.437.932.494,2.287,2.074,3.027,1.585.737,3.22.581,3.655-.351.435-.929-.494-2.281-2.076-3.021Z"/>
      <path class="st5" d="M160.653,156.937c3.751-7.499,6.688-9.622,6.688-9.622,0,0-13.373,5.383-25.115,9.948-6.094,2.371-12.716,4.566-20.891,4.438-5.647-.087-9.426-.628-16.897-3.636-.354-.143-.544-.314,5.79,5.684,8.292,7.854,45.434,3.17,50.425-6.813Z"/>
      <path class="st1" d="M153.828,169.036c-15.283-3.785-24.531,2.468-28.694,10.825,4.412,2.576,9.319,3.12,14.811,1.535,5.432-1.566,10.139-6.772,13.883-12.36Z"/>
      <path class="st14" d="M286.727,429.081c1.212,3.826,3.456,8.236,5.659,11.456,1.622,2.371,2.328,5.206.803,7.822-1.565,2.682-5.21,4.143-8.181,4.55l-.19.025-67.373.982c-2.716.037-5.342-.87-6.806-3.294-1.98-3.269-.777-7.599,1.255-10.542,1.113-1.613,2.483-2.113,3.81-3.31.696-.628.752-1.109.575-2.032-2.294-12.046-9.184-27.651-18.299-36.145-4.385-4.084-.009-16.354,1.778-20.891,4.724-11.99,13.017-22.492,24.3-28.922,7.192-4.099,21.637-10.828,28.838-4.158,28.709,26.588,33.068,46.466,33.829,84.459Z"/>
      <path class="st16" d="M200.117,396.305c10.526,9.808,17.162,26.933,19.241,37.848.945,4.969-3.459,5.638-4.883,7.704-2.508,3.627-2.819,9.01,2.925,8.929l67.184-.982s9.459-1.302,5.217-7.499c-4.239-6.197-6.194-12.72-6.194-12.72-.743-38.525-5.243-57.11-32.838-82.666-5.367-4.969-17.855.42-25.16,4.581-12.206,6.959-19.286,18.088-22.938,27.355-3.369,8.55-4.382,15.748-2.555,17.451Z"/>
      <path class="st10" d="M200.117,396.305c10.526,9.808,17.162,26.933,19.241,37.848.945,4.969-3.459,5.638-4.883,7.704-2.508,3.627-2.819,9.01,2.925,8.929l67.184-.982s7.655-1.054,6.102-5.781c-2.048-.792-4.221-1.675-6.415-2.673-10.762-4.892-9.131,7.338-16.96,5.38-7.829-1.955-7.502-5.544-15.328-5.544s-7.176,6.85-15.981,6.85-12.068-2.608-12.394-12.394c-.326-9.784-1.958-23.154-11.415-40.44-8.916-16.298-4.497-21,5.602-38.152-7.548,6.561-12.335,14.725-15.124,21.805-3.369,8.55-4.382,15.748-2.555,17.451Z"/>
      <g>
        <path class="st10" d="M265.435,362.548c-3.543-4.525-7.773-9.094-12.817-13.892-3.913,4.295.55,19.719,11.325,15.285.544-.472,1.038-.935,1.492-1.392Z"/>
        <path class="st10" d="M255.676,380.297c-7.686-6.032-2.374-12.658,4.025-8.478,5.638,3.683,1.212,8.86-4.025,8.478Z"/>
        <path class="st10" d="M239.96,350.862c12.149-3.313,9.964,11.195.995,9.523-3.624-.674-6.191-5.038-3.015-7.997l2.02-1.526Z"/>
        <path class="st10" d="M270.072,369.046c-.457-.709-.932-1.42-1.423-2.132-3.458-2.785-8.457,4.656-2.856,6.178,2.381-.351,4.976-1.675,4.28-4.046Z"/>
        <path class="st10" d="M247.363,367.958c-6.178-1.681.538-10.561,3.86-4.979,1.762,2.959-1.187,4.584-3.86,4.979Z"/>
        <path class="st10" d="M269.376,397.586c-7.687-6.036-2.377-12.658,4.022-8.481,5.639,3.683,1.212,8.864-4.022,8.481Z"/>
      </g>
      <path class="st14" d="M205.988,273.252c11.333-4.522,18.464-6.813,30.612-3.357-13.721-.32-16.983.41-29.4,6.101-.758.336-1.644-.006-1.978-.765-.333-.758.011-1.644.766-1.98Z"/>
      <path class="st14" d="M115.782,53.096c.808,0,1.467-.66,1.467-1.468s-.659-1.469-1.467-1.469-1.467.661-1.467,1.469.659,1.468,1.467,1.468Z"/>
      <path class="st14" d="M125.404,51.791c.808,0,1.467-.659,1.467-1.467s-.659-1.469-1.467-1.469-1.469.66-1.469,1.469.659,1.467,1.469,1.467Z"/>
      <path class="st14" d="M136.654,51.301c.808,0,1.467-.659,1.467-1.467s-.659-1.468-1.467-1.468-1.467.659-1.467,1.468.659,1.467,1.467,1.467Z"/>
      <path class="st14" d="M147.253,51.791c.807,0,1.469-.659,1.469-1.467s-.662-1.469-1.469-1.469-1.465.66-1.465,1.469.657,1.467,1.465,1.467Z"/>
      <path class="st14" d="M157.853,53.095c.808,0,1.468-.659,1.468-1.467s-.66-1.469-1.468-1.469-1.467.661-1.467,1.469.659,1.467,1.467,1.467Z"/>
      <path class="st14" d="M89.815,149.547c-1.141-.242-4.811-.569-5.137,1.796-.326,2.362,3.018.653,7.176.898.174.009.345.022.51.037,3.372,1.989,6.921,4.466,11.634,6.564,5.838,2.608,16.933,3.792,27.312,2.197,13.653-2.098,26.735-11.073,36.491-13.46-.932.74-1.486,1.28-1.695,1.318-.172.028,4.004-2.315,9.608-1.647,1.989.236,3.549.283,3.03-1.125-1.678-4.547-10.557-.578-12.776.124-7.928,2.508-12.205,3.981-21.362,8.174-11.243,5.15-25.8,6.903-37.946,3.142-4.05-1.256-9.14-4.407-13.923-6.707-.848-.469-1.821-.923-2.921-1.311Z"/>
      <path class="st14" d="M85.75,75.072c7.224-10.083,18.813-11.39,23.157.816l-1.973-1.639c-8.192-7.086-12.152-3.848-21.183.824Z"/>
      <path class="st14" d="M186.201,74.304c-7.224-10.085-18.814-11.39-23.155.817l1.97-1.641c8.192-7.086,12.155-3.848,21.185.824Z"/>
      <path class="st14" d="M121.716,174.176c7.669,1.989,15.494,1.607,22.806-1.486.519-.221,5.036-2.34,8.986-5.038,2.609-1.781,5.201-4.687,5.408-4.348.783,1.283-6.34,12.348-7.981,14.156-3.186,3.512-7.148,5.638-11.779,6.592-4.238.876-8.721.929-12.68-1.029-2.822-1.392-4.799-3.478-6.688-5.93-.491-.637-3.458-5.063-3.012-5.734.441-.671,4.161,2.614,4.94,2.816Z"/>
      <path class="st5" d="M121.253,175.967c3.016,3.913,7.255,8.398,17.53,6.278,8.657-1.787,12.217-7.453,14.296-10.999.388-.659-.5.261-.193-.211,1.958-3.018-9.619,10.638-31.633,4.932Z"/>
      <path class="st10" d="M128.227,189.554c4.365,2.328,14.842,1.165,19.791-2.328,4.946-3.493-7.277,19.207-19.791,2.328Z"/>
      <path class="st14" d="M232.619,208.195c-.329.078-.662-.127-.738-.46-.076-.33.129-.662.458-.74,2.371-.556,4.053-1.442,5.069-2.542.848-.917,1.235-1.995,1.175-3.161-.065-1.212-.603-2.533-1.6-3.891-2-2.719-5.793-5.519-11.263-7.829-14.456-6.104-17.653-4.879-17.662-4.876-.32.112-.668-.059-.78-.379-.113-.32.056-.671.376-.783.012-.003,3.646-1.383,18.542,4.907,5.687,2.402,9.656,5.349,11.779,8.233,1.144,1.554,1.762,3.102,1.837,4.556.078,1.501-.416,2.881-1.501,4.056-1.184,1.28-3.074,2.294-5.691,2.909h0ZM250.219,196.23c-.19-.283-.112-.665.171-.855.28-.186.662-.112.85.171,1.504,2.25,3.454,5.004,5.506,7.468,2.029,2.436,4.158,4.59,6.048,5.681,1.389.805,2.847,1.427,4.267,1.902,1.427.479,2.819.814,4.07,1.051.334.062.555.382.493.718-.062.333-.385.553-.718.491-1.297-.246-2.744-.594-4.234-1.094-1.493-.503-3.03-1.156-4.496-2.004-2.022-1.169-4.259-3.425-6.373-5.961-2.09-2.508-4.064-5.296-5.583-7.568h0ZM284.573,228.751c.333.065.55.388.483.724-.067.333-.39.55-.726.482-1.964-.392-4.488-.752-6.356-.525-.774.093-1.417.286-1.824.615-.342.273-.517.681-.452,1.259.07.612.381,1.392,1.005,2.381,2.704,4.298,5.858,11.94,8.617,20.095,2.948,8.718,5.453,18.044,6.471,24.493.483,3.052,1.807,3.876,3.458,3.496,1.902-.438,4.245-2.244,6.376-4.261.247-.23.636-.221.865.025.236.246.224.634-.023.867-2.264,2.145-4.795,4.075-6.945,4.569-2.404.553-4.31-.497-4.945-4.506-1.004-6.371-3.49-15.62-6.424-24.288-2.73-8.077-5.841-15.626-8.491-19.834-.73-1.156-1.1-2.113-1.187-2.903-.118-1.047.233-1.809.904-2.353.604-.485,1.459-.755,2.446-.876,2.028-.249,4.687.127,6.747.541h0ZM302.91,292.185c.298-.168.671-.059.839.233.168.298.059.674-.236.839l-7.855,4.419c-.612,3.664-6.83,40.934-7.46,43.768-.099.444.264,1.193.893,2.088.699,1.001,1.717,2.132,2.827,3.251.239.239.238.628-.003.867-.239.239-.629.239-.869-.003-1.148-1.156-2.214-2.343-2.96-3.409-.82-1.168-1.271-2.235-1.088-3.058.637-2.869,7.353-43.153,7.493-43.976.025-.186.132-.357.308-.457l8.111-4.562Z"/>
      <path class="st2" d="M163.251,5.894c28.248,12.184,38.552,16.438,41.844,27.638.892,3.03,2.34,44.474,4.294,45.445,5.916,2.942,10.764,5.669,14.003,7.575,2.847,1.672,4.452,2.713,4.452,2.713l-.005-.13-.819-29.233c-.378-13.48.875-16.161-8.673-27.545-9.526-11.358-24.891-21.012-47.58-25.278-2.569-.483-5.075-.876-7.516-1.186Z"/>
      <path class="st6" d="M225.719,189.573c-9.982-4.214-14.594-4.935-16.496-4.979-2.435,1.389-4.867,2.781-7.291,4.189,11.95,4.102,22.896,9.939,32.608,17.528,1.246-.506,2.2-1.134,2.869-1.858.848-.917,1.235-1.995,1.175-3.161-.065-1.212-.603-2.533-1.6-3.891-2-2.719-5.793-5.519-11.263-7.829Z"/>
      <path class="st6" d="M276.704,233.686c2.704,4.298,5.858,11.94,8.617,20.095,2.948,8.718,5.453,18.044,6.471,24.493.483,3.052,1.807,3.876,3.458,3.496,1.902-.438,4.245-2.244,6.376-4.261.098-.093.219-.146.343-.162-2.402-16.758-8.152-33.105-17.177-47.479-.13.084-.294.121-.46.087-1.964-.392-4.488-.752-6.356-.525-.774.093-1.417.286-1.824.615-.342.273-.517.681-.452,1.259.07.612.381,1.392,1.005,2.381Z"/>
      <path class="st6" d="M262.793,208.696c1.389.805,2.847,1.427,4.267,1.902,1.122.376,2.219.662,3.245.883-5.442-5.541-11.549-10.533-18.315-14.828,1.377,2.011,3.03,4.289,4.755,6.362,2.029,2.436,4.158,4.59,6.048,5.681Z"/>
      <path class="st6" d="M303.239,293.413l-7.582,4.264c-.612,3.664-6.83,40.934-7.46,43.768-.099.444.264,1.193.893,2.088.67.96,1.636,2.042,2.693,3.114,7.959-16.263,11.745-34.696,11.456-53.235Z"/>
      <path class="st10" d="M182.256,299.271c-1.339-.308-2.611-.389-3.776-.292-.733.062-1.43.193-2.076.385-.591.96-.963,1.868-1.075,2.701-.737,5.535,5.204,16.497,11.682,24.975.277.361.553.715.827,1.066,4.727,5.986,9.6,10.486,12.278,10.486.594,0,1.437-.143,2.494-.42.945-.246,2.057-.594,3.307-1.035,1.681-.591,3.608-1.349,5.709-2.247.929-.398,1.896-.82,2.887-1.271,13.74-6.216,32.748-17.156,39.743-26.333.047-.062.093-.127.14-.19,1.206-1.644,2.182-3.705,2.921-6.098,1.417-4.59,1.975-10.405,1.675-16.845-.534,2.076-1.444,4.23-2.656,6.412-.769,1.383-1.658,2.775-2.653,4.168-9.864,13.802-30.003,27.402-43.245,27.921-1.198.047-2.342-.012-3.414-.193-.096-.012-.19-.031-.283-.05-.721-.13-1.408-.32-2.057-.566-2.415-.914-4.329-2.608-5.538-5.243-5.209-11.35-11.586-16.12-16.891-17.332Z"/>
      <path class="st10" d="M211.467,253.704c-4.827-5.905-9.774-12.842-12.825-19.539,1.248,6.396,4.626,14.999,7.911,22.42.168.379.336.755.503,1.128,2.496,5.566,4.87,10.346,6.135,12.839,4.009-1.349,7.672-2.197,11.603-2.312-1.91-1.855-7.075-7.005-12.539-13.581-.261-.314-.525-.634-.789-.954Z"/>
      <path class="st11" d="M163.54,47.104c-.197,4.722-1.234,8.94-11.185,8.099-10.604-.895-30.097-2.204-45.58,3.346-.003.095-.006.188-.006.281,19.028-3.81,43.269-5.346,61.177.976.098-2.311.275-7.63.061-12.065-.146.056-.3.071-.465.043-1.385-.239-2.718-.466-4.001-.681Z"/>
      <path class="st15" d="M194.491,193.016c19.117,2.977,56.299,26.432,69.445,64.308,13.696,39.464,8.806,70.12,6.85,78.601-.581,2.517.591,4.631,2.654,6.129,12.261-51.7-4.295-128.66-75.139-151.176-1.256.718-2.524,1.43-3.81,2.138Z"/>
      <path class="st17" d="M51.949,146.274c-1.246-12.776,11.801-43.419,27.758-73.148-.834.263-1.664.53-2.488.803-14.117,23.471-35.641,59.888-28.751,76.975,3.938,9.768,18.613,21.292,34.457,31.25-13.429-11.157-30.153-27.427-30.976-35.88Z"/>
      <path class="st17" d="M53.91,193.868c2.126,4.211,7.052,15.325,8.293,18.775,1.176,3.263,8.881,21.73,11.908,28.968-.914-4.472-2.067-9.165-3.465-13.432-.404-1.131-.945-2.632-1.591-4.379-.155-.385-.314-.761-.474-1.134-.076-.143-.113-.295-.116-.451-3.335-8.876-8.809-22.411-12.955-27.523-.418-.513-1.043-.948-1.842-1.305l.003.006c.106.05.211.096.311.146-.019.109-.043.218-.071.329Z"/>
      <path class="st17" d="M178.262,299.001c.516-.286,1.066-.553,1.713-.864,2.454-1.19,6.29-3.027,14.943-8.798.454-.305.926-.622,1.411-.951.435-.295.866-.584,1.287-.876,12.655-8.69,19.306-15.241,28.274-17.463-5.523.472-9.501,1.818-16.466,4.942-3.42,1.93-8.306,4.78-13.317,8-.906.581-1.813,1.175-2.719,1.778-5.496,3.658-10.846,7.642-14.285,11.232-.942.982-1.742,1.939-2.36,2.847-.12.174-.232.348-.337.519.162-.047.328-.09.497-.131.432-.106.889-.183,1.361-.233Z"/>
      <path class="st17" d="M72.887,393.406c.755-20.531,17.718-30.861,28.515-37.717-.822-1.417-1.61-2.859-2.362-4.326-27.714,17.137-30.597,31.936-25.798,67.652-.43-6.785-.718-15.673-.354-25.609Z"/>
    </g>
  </g>
  <rect class="st18" x="-69.065" y="-144.987" width="400" height="400"/>
  <rect class="st18" x="-69.065" y="300.346" width="400" height="400"/>
  <metadata>
    <sfw xmlns="http://ns.adobe.com/SaveForWeb/1.0/">
      <slices/>
      <sliceSourceBounds x="-2051.88" y="-4498.52" width="4384.6" height="3952.85" bottomLeftOrigin="true"/>
      <optimizationSettings>
        <targetSettings fileFormat="PNG24Format" targetSettingsID="0">
          <PNG24Format filtered="false" interlaced="false" matteColor="#FFFFFF" noMatteColor="false" transparency="true"/>
        </targetSettings>
      </optimizationSettings>
    </sfw>
  </metadata>
</svg>