<?xml version="1.0" encoding="UTF-8"?>
<svg id="Layer_1" xmlns="http://www.w3.org/2000/svg" version="1.1" viewBox="0 0 280.291 411">
  <!-- Generator: Adobe Illustrator 30.1.0, SVG Export Plug-In . SVG Version: 2.1.1 Build 136)  -->
  <defs>
    <style>
      .st0 {
        fill: #34302f;
      }

      .st0, .st1, .st2, .st3, .st4, .st5, .st6, .st7, .st8, .st9, .st10 {
        fill-rule: evenodd;
      }

      .st1 {
        fill: #efde97;
      }

      .st2 {
        fill: #fff;
      }

      .st3 {
        fill: #302f2f;
      }

      .st4 {
        fill: #e9d171;
      }

      .st11 {
        fill: none;
      }

      .st5 {
        fill: #c7c8c8;
      }

      .st6 {
        fill: #b2832a;
      }

      .st7 {
        fill: #717070;
      }

      .st8 {
        fill: #595858;
      }

      .st10 {
        fill: #e0c040;
      }
    </style>
  </defs>
  <g>
    <path class="st9" d="M86.076,76.367c-.804-3.105-1.567-6.224-2.297-9.343-2.131-9.075-4.093-18.289-5.156-27.557-1.122-9.75.304-19.575,7.392-26.896C97.027,1.204,117.799.589,132.655.218c1.581-.038,3.162-.073,4.741-.107,4.62-.097,9.236-.157,13.855-.064,14.252.286,32.784,1.958,43.09,12.993,6.806,7.285,8.393,16.806,7.287,26.428-1.065,9.268-3.026,18.482-5.156,27.557-.732,3.119-1.493,6.238-2.297,9.343,2.79-1.997,5.663-3.869,8.661-5.541,3.657-2.04,7.857-4.016,12.001-4.745,2.948-.518,5.977-.014,8.375,1.854,1.276.993,2.262,2.244,2.937,3.712,2.276,4.956.568,11.526-1.665,16.221-.197.418-.405.833-.618,1.243.286-.114.572-.225.857-.343,9.929-3.976,19.725-8.314,29.354-12.969l17.382-8.407-10.079,16.467c-1.031,1.683-1.976,3.426-2.905,5.17-2.387,4.48-4.573,9.068-6.567,13.737-5.563,13.03-9.957,27.407-10.922,41.602-.407,5.984-.196,12.051.954,17.95,2.29,11.737,7.803,23.452,12.816,34.26,6.381,13.755,12.919,27.432,17.821,41.809,6.469,18.957,8.628,41.055,7.374,60.984-1.508,23.995-8.439,51.02-25.385,68.916-3.366,3.555-7.428,6.735-12.03,8.503-1.919.732-4.316,1.361-6.377,1.283l-5.227-.2-.161-3.834c-3.048,3.791-6.588,7.435-10.415,10.661,3.294,1.354,6.51,3.248,9.064,5.666,3.03,2.873,5.374,6.906,4.487,11.215-1.544,7.539-10.509,9.071-16.935,9.218-7.149.157-14.302.225-21.451.193-.493-.003-.986-.011-1.479-.025-3.476.029-6.956.039-10.436.025-.496-.003-.986-.011-1.481-.025-3.478.029-6.958.039-10.438.025-7.131-.032-12.305-4.055-14.348-10.354-11.283.407-23.155.379-34.356-.082-2.026,6.342-7.213,10.404-14.38,10.436-3.476.014-6.956.004-10.434-.025-.495.014-.984.021-1.481.025-3.48.014-6.956.004-10.436-.025-.493.014-.986.021-1.479.025-7.149.032-14.298-.036-21.448-.193-6.429-.147-15.395-1.679-16.939-9.218-.886-4.309,1.458-8.342,4.487-11.215,2.946-2.79,6.767-4.88,10.579-6.249-.411-.354-.815-.711-1.215-1.072-3.851-3.491-7.512-7.535-10.643-11.851l-.275,6.674-5.227.204c-1.962.075-4.23-.489-6.07-1.168-4.355-1.604-8.246-4.495-11.506-7.764C8.739,351.33,1.749,323.262.307,298.824c-1.161-19.701.908-41.42,7.271-60.163,4.898-14.434,11.458-28.164,17.862-41.97,5.029-10.84,10.57-22.601,12.871-34.374,1.147-5.899,1.36-11.962.952-17.946-.963-14.195-5.361-28.572-10.924-41.605-1.994-4.67-4.177-9.257-6.563-13.737-.929-1.743-1.874-3.487-2.906-5.17l-10.077-16.467,17.382,8.407c9.627,4.655,19.425,8.993,29.351,12.969.286.118.575.229.861.343-.214-.411-.422-.825-.62-1.243-1.034-2.179-1.86-4.545-2.329-6.91-.942-4.734-.461-9.857,3.601-13.023,2.399-1.869,5.429-2.372,8.378-1.854,4.143.729,8.341,2.705,11.996,4.745,2.998,1.672,5.874,3.544,8.664,5.541Z"/>
    <path class="st9" d="M88.341,385.311c1.769-.611,3.544-1.204,5.334-1.758,7.149-2.211,19.522-5.638,25.231,1.143,2.651,3.144,3.258,8.693,2.655,12.619-1.068,6.935-5.781,11.519-12.966,11.551-3.483.014-6.965.007-10.45-.025-.518.014-1.008.025-1.465.025-3.485.014-6.967.007-10.45-.025-.518.014-1.011.025-1.468.025-7.131.032-14.263-.039-21.39-.196-5.241-.114-13.605-1.175-14.904-7.514-.731-3.566,1.388-6.899,3.871-9.246,2.785-2.64,6.477-4.62,10.082-5.877,4.498-1.568,9.582-1.518,14.295-.672,3.769-.833,7.81-.707,11.626-.05Z"/>
    <path class="st8" d="M63.446,405.129c8.425.186,15.678.218,21.301.193,28.75-.129-3.819-21.994-21.16-15.945-12.242,4.27-18.63,15.345-.141,15.753Z"/>
    <path class="st9" d="M75.333,406.548c-4.019-.089-11.835-.775-12.866-5.817-.575-2.79,1.333-5.466,3.25-7.278,2.563-2.433,6.004-4.259,9.32-5.416,4.791-1.668,10.375-1.304,15.245-.168,4.634,1.079,9.579,3.066,13.527,5.745,2.447,1.665,6.313,4.87,5.599,8.268-.963,4.591-9.218,4.841-12.737,4.859-7.114.032-14.227-.039-21.337-.193Z"/>
    <path class="st8" d="M75.365,405.129c8.421.186,15.677.218,21.297.193,28.75-.129-3.816-21.994-21.158-15.945-12.242,4.27-18.632,15.345-.139,15.753Z"/>
    <path class="st9" d="M87.251,406.548c-4.023-.089-11.837-.775-12.869-5.817-.572-2.79,1.336-5.466,3.251-7.278,2.562-2.433,6.002-4.259,9.318-5.416,2.44-.85,4.884-1.686,7.349-2.451,3.887-1.204,8.096-2.333,12.155-2.673,3.326-.275,7.189-.043,9.864,2.194.348.29.672.611.963.958,2.226,2.644,2.683,7.642,2.178,10.926-.911,5.902-4.741,9.722-10.872,9.75-7.114.032-14.229-.039-21.337-.193Z"/>
    <path class="st8" d="M87.28,405.129c8.425.186,15.678.218,21.298.193,11.508-.05,10.851-14.513,7.623-18.343-4.839-5.745-18.38-1.233-28.781,2.397-12.24,4.27-18.629,15.345-.139,15.753Z"/>
    <path class="st3" d="M62.947,396.483c-2.492,1.711-7.748,2.122-10.249.532-2.351,4.023-.02,7.878,10.747,8.114,1.186.029,2.347.05,3.483.068-2.208-.85-4.005-2.23-4.462-4.466-.336-1.636.179-3.23,1.05-4.638-.186.125-.373.257-.57.389Z"/>
    <path class="st3" d="M64.232,397.762c-1.643,3.741,1.033,7.146,11.133,7.367,1.183.029,2.344.05,3.48.068-2.208-.85-4.005-2.23-4.462-4.466-.263-1.279-.004-2.54.543-3.702-3.744,2.301-9.432,2.044-10.693.732Z"/>
    <path class="st3" d="M75.835,398.666c-.849,3.369,2.167,6.259,11.445,6.463.413.007.822.018,1.229.029,3.398.068,6.599.114,9.568.143,2.915.021,5.609.036,8.05.029.847-.003,1.665-.003,2.451-.007,5.477-.021,8.2-3.312,9.2-7.167-3.251-.129-6.445-.293-9.55-.493-.65-.043-1.295-.089-1.936-.136-.264-.018-.53-.036-.793-.054-2.476,1.175-5.932,1.887-9.625,2.269-8.46.872-18.146-.011-20.038-1.075Z"/>
    <path class="st9" d="M191.952,385.311c-1.769-.611-3.544-1.204-5.332-1.758-7.151-2.211-19.523-5.638-25.237,1.143-2.644,3.144-3.255,8.693-2.651,12.619,1.072,6.935,5.781,11.519,12.966,11.551,3.483.014,6.965.007,10.45-.025.514.014,1.008.025,1.465.025,3.483.014,6.97.007,10.45-.025.518.014,1.011.025,1.469.025,7.131.032,14.263-.039,21.392-.196,5.241-.114,13.603-1.175,14.902-7.514.731-3.566-1.391-6.899-3.869-9.246-2.787-2.64-6.478-4.62-10.084-5.877-4.502-1.568-9.58-1.518-14.295-.672-3.769-.833-7.81-.707-11.626-.05Z"/>
    <path class="st8" d="M216.844,405.129c-8.421.186-15.674.218-21.294.193-28.752-.129,3.816-21.994,21.157-15.945,12.242,4.27,18.63,15.345.138,15.753Z"/>
    <path class="st9" d="M204.961,406.548c4.021-.089,11.835-.775,12.866-5.817.572-2.79-1.336-5.466-3.248-7.278-2.565-2.433-6.006-4.259-9.321-5.416-4.791-1.668-10.375-1.304-15.245-.168-4.634,1.079-9.579,3.066-13.527,5.745-2.451,1.665-6.313,4.87-5.599,8.268.961,4.591,9.218,4.841,12.737,4.859,7.11.032,14.227-.039,21.337-.193Z"/>
    <path class="st8" d="M204.929,405.129c-8.421.186-15.677.218-21.298.193-28.75-.129,3.816-21.994,21.158-15.945,12.24,4.27,18.632,15.345.139,15.753Z"/>
    <path class="st9" d="M193.042,406.548c4.023-.089,11.837-.775,12.869-5.817.572-2.79-1.336-5.466-3.251-7.278-2.562-2.433-6.002-4.259-9.318-5.416-2.44-.85-4.884-1.686-7.349-2.451-3.887-1.204-8.096-2.333-12.155-2.673-3.326-.275-7.189-.043-9.865,2.194-.348.29-.672.611-.965.958-2.226,2.644-2.681,7.642-2.176,10.926.911,5.902,4.741,9.722,10.876,9.75,7.11.032,14.223-.039,21.333-.193Z"/>
    <path class="st8" d="M193.014,405.129c-8.425.186-15.677.218-21.298.193-11.506-.05-10.851-14.513-7.621-18.343,4.838-5.745,18.379-1.233,28.779,2.397,12.24,4.27,18.628,15.345.139,15.753Z"/>
    <path class="st3" d="M217.348,396.483c2.49,1.711,7.746,2.122,10.247.532,2.351,4.023.021,7.878-10.75,8.114-1.183.029-2.342.05-3.48.068,2.208-.85,4.005-2.23,4.463-4.466.336-1.636-.179-3.23-1.05-4.638.186.125.375.257.572.389Z"/>
    <path class="st3" d="M216.062,397.762c1.645,3.741-1.032,7.146-11.133,7.367-1.183.029-2.344.05-3.48.068,2.208-.85,4.003-2.23,4.462-4.466.263-1.279.004-2.54-.543-3.702,3.744,2.301,9.432,2.044,10.693.732Z"/>
    <path class="st3" d="M204.461,398.666c.847,3.369-2.169,6.259-11.447,6.463-.411.007-.822.018-1.229.029-3.398.068-6.599.114-9.568.143-2.916.021-5.609.036-8.05.029-.849-.003-1.665-.003-2.451-.007-5.477-.021-8.2-3.312-9.2-7.167,3.251-.129,6.445-.293,9.55-.493.65-.043,1.295-.089,1.936-.136.266-.018.531-.036.793-.054,2.476,1.175,5.933,1.887,9.625,2.269,8.46.872,18.146-.011,20.04-1.075Z"/>
    <path class="st9" d="M232.643,367.915c-6.76,10.093-17.003,19.172-26.778,23.734-20.386,9.511-108.828,9.511-129.214,0-5.461-2.547-10.529-6.145-14.988-10.182-5.002-4.527-10.165-10.54-13.916-16.992l-.472,11.347-3.266.125c-1.654.064-3.726-.475-5.252-1.036-4.059-1.493-7.707-4.234-10.736-7.267-17.389-17.428-24.184-45.082-25.592-68.945-1.14-19.347.908-40.941,7.16-59.355,4.893-14.409,11.387-27.982,17.778-41.755,5.048-10.876,10.726-23.062,13.026-34.863,1.186-6.081,1.408-12.33.99-18.5-.977-14.388-5.445-29.075-11.09-42.295-2.013-4.72-4.23-9.375-6.644-13.902-.942-1.765-1.92-3.569-2.967-5.281l-6.299-10.293,10.863,5.256c9.616,4.652,19.581,9.061,29.488,13.034,5.477,2.194,11.087,4.319,16.739,6.013l.632.189.472.368c1.25.715,5.699,1.426,7.124,1.654,5.223.833,10.558,1.375,15.824,1.865,14.813,1.379,29.74,2.24,44.599,3.012,14.856-.772,29.787-1.633,44.599-3.012,5.266-.49,10.597-1.032,15.82-1.865,1.429-.229,5.879-.94,7.128-1.654l.468-.368.632-.189c5.656-1.694,11.265-3.819,16.742-6.013,9.907-3.973,19.868-8.382,29.486-13.034l10.865-5.256-6.302,10.293c-1.043,1.711-2.024,3.512-2.965,5.281-2.415,4.527-4.629,9.179-6.644,13.902-5.643,13.219-10.111,27.904-11.09,42.295-.42,6.167-.198,12.419.988,18.5,2.297,11.762,7.946,23.906,12.975,34.749,6.368,13.723,12.842,27.243,17.737,41.595,12.787,37.486,11.011,97.605-17.543,127.756-3.137,3.308-6.953,6.327-11.247,7.978-1.597.615-3.791,1.211-5.534,1.143l-3.266-.125-.332-7.907Z"/>
    <path class="st10" d="M70.456,100.151c-18.332-5.499-46.75-19.25-46.75-19.25,0,0,27.5,44.914,20.169,82.5-4.332,22.194-20.804,47.254-30.93,77.083-12.355,36.389-10.499,96.512,17.585,124.655,7.478,7.492,13.344,7.271,13.344,7.271.236-5.724-.246-9.843-.518-16.174-.286-6.635-.654-14.605-.948-17.807-.445-4.834.686-12.223,4.925-4.656,1.586,2.833,7.603,11.226,11.326,15.413,1.929,2.169,2.022.804,1.954-1.058-.229-6.503-1.736-17.542-.772-21.898.44-1.986,1.951-2.504,3.501-.697,9.632,11.233,12.319,18.847,13.466,13.502,1.758-8.167-.166-17.51.861-25.399.3-2.287,1.175-3.151,1.842-.193l.034,2.069c.036,11.322.368,20.587-.514,25.41-.49,2.658-1.476,3.637-2.78,3.633-2.344-.004-6.095-5.477-13.309-14.516.145,4.859.786,12.487.904,16.471.238,7.889-.789,9.664-3.115,8.903-3.523-1.154-9.423-8.86-13.627-15.727.255,5.152.547,10.232.974,15.47.052.425.077,1.24.045,2.154,4.852,11.515,16.828,24.97,30.026,31.126,19.377,9.043,106.841,9.043,126.22,0,10.972-5.12,21.103-15.285,26.996-25.185,1.55-2.605,1.625-19.493,1.827-23.566-4.203,6.867-10.106,14.573-13.628,15.727-2.326.761-3.351-1.015-3.115-8.903.12-3.984.759-11.612.904-16.471-7.212,9.039-10.965,14.513-13.309,14.516-1.304.003-2.294-.975-2.78-3.633-.882-4.823-.55-14.088-.513-25.41l.034-2.069c.663-2.958,1.54-2.094,1.84.193,1.025,7.889-.897,17.232.858,25.399,1.152,5.345,3.841-2.269,13.47-13.502,1.549-1.808,3.062-1.29,3.501.697.965,4.355-.543,15.395-.775,21.898-.064,1.861.029,3.226,1.958,1.058,3.723-4.187,9.739-12.58,11.326-15.413,4.239-7.567,5.37-.179,4.927,4.656-.343,3.698-.783,13.78-1.075,20.794-.243,5.745-.657,7.857-.436,13.187,0,0,6.252.239,14.073-8.021,27.425-28.961,29.225-87.634,16.763-124.173-10.134-29.711-26.521-54.692-30.837-76.815-7.335-37.582,20.168-82.5,20.168-82.5,0,0-28.418,13.752-46.752,19.25-3.964,3.083-36.712,5.531-69.668,7.242-32.956-1.711-65.704-4.159-69.67-7.242Z"/>
    <path class="st6" d="M70.456,100.151c-2.072-.622-4.273-1.351-6.549-2.151,3.839,8.339,10.761,15.467,17.81,20.615,31.446,22.948,85.415,22.948,116.859,0,7.056-5.148,13.984-12.287,17.818-20.633-2.294.807-4.512,1.54-6.601,2.169-3.964,3.083-36.712,5.531-69.668,7.242-32.956-1.711-65.704-4.159-69.67-7.242Z"/>
    <path class="st6" d="M79.523,314.294l.021,1.218c.036,11.322.368,20.587-.514,25.41-.49,2.658-1.476,3.637-2.78,3.633-2.344-.004-6.095-5.477-13.309-14.516.145,4.859.786,12.487.904,16.471.238,7.889-.789,9.664-3.115,8.903-3.523-1.154-9.423-8.86-13.627-15.727.255,5.152.547,10.232.974,15.47.052.425.077,1.24.045,2.154,4.852,11.515,16.828,24.97,30.026,31.126,19.377,9.043,106.841,9.043,126.22,0,10.972-5.12,21.103-15.285,26.996-25.185,1.55-2.605,1.625-19.493,1.827-23.566-4.203,6.867-10.106,14.573-13.628,15.727-2.326.761-3.351-1.015-3.115-8.903.12-3.984.759-11.612.904-16.471-7.212,9.039-10.965,14.513-13.309,14.516-1.304.003-2.294-.975-2.78-3.633-.882-4.823-.55-14.088-.513-25.41l.02-1.218c-.958,1.261-2.526,2.808-4.205,2.29-2.715-.847-3.748-1.126-3.748-1.126,0,0-.143,11.53-3.187,15.746-3.046,4.219-6.56,3.14-7.639,2.111-1.075-1.032-3.048-4.548-3.048-4.548,0,0-1.265,5.202-3.512,6.656-2.254,1.454-3.798.7-4.83-.139-1.031-.847-2.671-2.251-2.671-2.251,0,0-.327,3.326-8.108,6.513,4.127,1.222,7.689,1.69,8.814.75,1.124-.936,2.061,2.158,5.809,1.222,3.751-.94,5.438-3.941,5.438-3.941,0,0,2.061,3.844,7.403,2.815,5.345-1.033,8.06-8.907,8.06-8.907,0,0-.936,18.089,5.063,19.215,5.999,1.129,9.375-3.748,9.375-3.748-1.883,18.732-3.716,37.682-49.303,38.99-30.062.861-14.543.382-20.335.486-5.791-.104-12.516-.261-20.333-.486-29.661-.847-45.028-10.561-49.305-38.99,0,0,3.376,4.877,9.375,3.748,5.999-1.126,5.059-19.215,5.059-19.215,0,0,2.719,7.874,8.06,8.907,5.345,1.029,7.407-2.815,7.407-2.815,0,0,1.688,3.001,5.438,3.941,3.748.936,4.686-2.158,5.809-1.222,1.125.94,4.688.472,8.811-.75-7.778-3.187-8.105-6.513-8.105-6.513,0,0-1.642,1.404-2.671,2.251-1.033.84-2.58,1.593-4.83.139-2.247-1.454-3.512-6.656-3.512-6.656,0,0-1.968,3.516-3.048,4.548-1.075,1.029-4.591,2.108-7.639-2.111-3.046-4.216-3.187-15.746-3.187-15.746,0,0-1.033.279-3.75,1.126-1.677.518-3.246-1.029-4.203-2.29Z"/>
    <path class="st9" d="M140.125,104.177l-38.347,1.436c-2.969.111-4.573-2.78-5.663-5.081-1.291-2.729-2.333-5.727-3.283-8.592-2.74-8.285-4.991-16.91-6.985-25.403-2.086-8.889-4.073-18.243-5.114-27.314-1.045-9.103.191-18.339,6.808-25.174,10.486-10.822,31.053-11.354,45.167-11.708,1.576-.038,3.155-.072,4.734-.104,4.587-.097,9.179-.157,13.766-.064,13.541.271,31.753,1.797,41.58,12.315,6.363,6.813,7.76,15.749,6.728,24.735-1.043,9.071-3.026,18.425-5.113,27.314-1.995,8.492-4.244,17.117-6.988,25.403-.947,2.865-1.99,5.863-3.283,8.592-1.09,2.301-2.69,5.191-5.659,5.081l-38.347-1.436Z"/>
    <path class="st3" d="M137.514,5.779c27.536-.575,62.29-.1,58.483,33.041-2.405,20.933-13.75,63.392-17.392,63.253l-38.479-1.44-38.483,1.44c-3.641.139-14.984-42.32-17.391-63.253-3.65-31.759,25.783-32.47,53.262-33.041Z"/>
    <path class="st9" d="M203.1,109.676c-33.892,22.952-92.061,22.948-125.952,0-7.764-5.256-15.385-14.148-19.461-22.719-2.369-4.984-4.541-13.291.657-17.346,1.929-1.501,4.345-1.851,6.702-1.436,3.861.679,7.932,2.608,11.331,4.505,2.953,1.651,5.754,3.48,8.505,5.445,2.269,1.626,4.484,3.33,6.767,4.934,5.784,4.066,10.904,6.353,17.85,7.892,4.23.943,8.887,1.361,13.209,1.665,5.788.411,11.615.572,17.417.572s11.629-.161,17.414-.572c4.323-.304,8.98-.722,13.212-1.665,6.942-1.54,12.065-3.826,17.85-7.892,2.283-1.604,4.498-3.308,6.767-4.934,2.751-1.965,5.549-3.794,8.503-5.445,3.401-1.897,7.471-3.826,11.329-4.505,2.362-.415,4.777-.064,6.703,1.436,5.202,4.055,3.03,12.362.661,17.346-4.077,8.571-11.697,17.46-19.465,22.719Z"/>
    <path class="st3" d="M201.117,105.185c22.573-15.288,24.802-35.299,14.699-33.524-2.622.461-6.059,1.794-10.215,4.112-13.287,7.41-17.203,14.888-34.081,18.636-13.927,3.094-48.862,3.094-62.79,0-16.876-3.748-20.792-11.226-34.077-18.636-4.159-2.319-7.598-3.651-10.22-4.112-10.104-1.776-7.871,18.236,14.702,33.524,32.691,22.134,89.292,22.134,121.983,0Z"/>
    <path class="st9" d="M140.125,211.751c-13.198,10.082-24.309,11.458-13.891,29.333,10.418,17.875,13.891,17.875,13.891,17.875,0,0,3.473,0,13.891-17.875s-.697-19.25-13.891-29.333Z"/>
    <path class="st9" d="M89.113,316.988c-.054,2.208.897,16.063,5.436,15.942,1.742-.05,3.262-1.969,3.771-3.612.997-3.223,3.094-3.998,4.212.018,2.29,8.235,5.484,6.392,7.174,4.355,1.804-2.179,2.594-3.783,4.082-.2,1.288,3.105,4.275,4.455,7.483,5.816-4.237-.196-7.567-1.7-9.311-5.23-4.414,6.824-8.886,4.159-11.751-1.919-1.083,1.836-2.63,3.348-4.784,3.341-8.396-.029-9.164-13.559-9.27-19.304.195-2.269,3.128-2.322,2.956.793Z"/>
    <path class="st9" d="M190.92,316.988c.054,2.208-.893,16.063-5.431,15.942-1.745-.05-3.265-1.969-3.773-3.612-1-3.223-3.096-3.998-4.214.018-2.292,8.235-5.484,6.392-7.176,4.355-1.804-2.179-2.594-3.783-4.08-.2-1.29,3.105-4.275,4.455-7.481,5.816,4.234-.196,7.564-1.7,9.307-5.23,4.416,6.824,8.886,4.159,11.751-1.919,1.086,1.836,2.63,3.348,4.788,3.341,8.393-.029,9.163-13.559,9.268-19.304-.195-2.269-3.126-2.322-2.958.793Z"/>
    <path class="st9" d="M58.455,74.93c2.841,3.63,6.213,6.938,10.032,9.922,17.625,13.78,44.619,20.672,71.638,20.672s54.01-6.892,71.635-20.672c3.819-2.983,7.196-6.292,10.036-9.922l1.667,1.304c-2.946,3.769-6.443,7.196-10.399,10.286-18.014,14.084-45.489,21.13-72.939,21.13s-54.927-7.046-72.942-21.13c-3.948-3.091-7.449-6.517-10.397-10.286l1.668-1.304Z"/>
    <path class="st8" d="M195.711,27.887c-11.738,7.428-32.255,12.348-55.596,12.348s-43.935-4.938-55.661-12.391c3.852-20.963,29.19-21.567,53.06-22.066,24.102-.502,53.739-.202,58.197,22.109Z"/>
    <path class="st7" d="M137.514,5.779c27.536-.575,62.29-.1,58.483,33.041-.1.854-.214,1.751-.34,2.669-.071-16.524-7.764-28.275-32.298-30.89-13.666-1.458-32.823-1.458-46.489,0-24.465,2.608-32.184,14.302-32.295,30.751-.121-.872-.229-1.715-.323-2.53-3.65-31.759,25.783-32.47,53.262-33.041Z"/>
    <path class="st9" d="M86.251,51.371c3.83,14.488,6.283,16.61,12.34,29.433-2.07-2.144-8.596-11.508-12.637-19.393-1.665-3.255-.847-4.009-1.186-6.152-.261-1.665-2.037-5.063-.975-5.409,1.052-.339,2.154.34,2.458,1.522Z"/>
    <path class="st9" d="M193.978,51.371c-3.83,14.488-6.283,16.61-12.34,29.433,2.151-2.226,9.116-12.255,13.101-20.322,1.445-2.922-.314-2.683-.021-4.627.246-1.636,2.765-5.663,1.718-6.006-1.052-.339-2.151.34-2.458,1.522Z"/>
    <path class="st8" d="M206.837,78.771c4.237-2.319,7.739-3.648,10.411-4.109,1.736-.3,3.115.018,4.098.832.018-.025.039-.05.057-.071-.543-2.798-2.483-4.309-5.588-3.762-2.622.461-6.059,1.794-10.215,4.112-7.088,3.951-11.508,7.924-16.651,11.34-1.445.957-2.942,1.872-4.575,2.73-3.455,1.815-7.503,3.38-12.855,4.566-13.927,3.094-48.862,3.094-62.79,0-5.35-1.186-9.398-2.751-12.855-4.566-1.631-.858-3.132-1.772-4.575-2.73-5.141-3.416-9.564-7.389-16.648-11.34-4.159-2.319-7.598-3.651-10.22-4.112-3.101-.547-5.041.965-5.588,3.762.021.021.039.046.061.071.983-.815,2.36-1.133,4.098-.832,2.669.461,6.174,1.79,10.409,4.109,8.266,4.527,12.971,9.075,19.295,12.787,1.418.833,2.916,1.619,4.552,2.358,3.028,1.361,6.531,2.547,10.876,3.494,14.193,3.094,49.787,3.094,63.98,0,4.346-.947,7.848-2.133,10.876-3.494,1.638-.74,3.135-1.526,4.554-2.358,6.324-3.712,11.029-8.26,19.293-12.787Z"/>
    <path class="st4" d="M43.874,163.4c-4.332,22.194-20.804,47.254-30.93,77.083-12.355,36.389-10.499,96.512,17.585,124.655,7.478,7.492,13.344,7.271,13.344,7.271.236-5.724-.246-9.843-.518-16.174-.157-3.626-.336-7.649-.518-11.076-1.004,11.858-4.705,23.645-17.685-6.971-8.084-19.065-10.561-50.859-4.527-80.692,8.796-43.52,29.786-86.24,28.897-107.148-1.39-32.623-7.596-45.007-23.679-65.701,6.319,11.544,24.097,47.658,18.03,78.752Z"/>
    <path class="st4" d="M236.423,163.4c4.33,22.194,20.801,47.254,30.926,77.083,12.355,36.389,10.501,96.512-17.585,124.655-7.478,7.492-13.341,7.271-13.341,7.271-.239-5.724.243-9.843.514-16.174.157-3.626.336-7.649.518-11.076,1.004,11.858,4.705,23.645,17.685-6.971,8.082-19.065,10.561-50.859,4.53-80.692-8.8-43.52-29.788-86.24-28.899-107.148,1.388-32.623,7.594-45.007,23.679-65.701-6.32,11.544-24.099,47.658-18.028,78.752Z"/>
    <path class="st1" d="M55.839,133.103c32.863,35.474,49.566,54.728,56.936,62.849,6.646,7.324,6.656,15.359,1.729,24.427-7.34,13.516-21.439,18.675-33.166,14.902-5.559-1.79-11.815-4.984-16.749-11.144-5.965-7.449-10.082-18.807-9.807-31.644.204-9.611,2.169-19.011,5.084-25.821,0,0-15.081-14.645-4.027-33.57Z"/>
    <path class="st9" d="M63.46,163.672c-1.379-1.504-2.705-3.219-3.855-4.831-2.838-3.984-5.331-8.575-6.52-13.341-1.39-5.588-.872-11.144,2.451-15.999l1.225-1.79,1.476,1.59c12.508,13.502,25.006,27.014,37.468,40.562,6.134,6.667,12.265,13.341,18.352,20.051,7.38,8.132,7.03,17.11,1.972,26.417-3.196,5.884-7.919,10.783-13.911,13.83-5.352,2.719-11.515,3.794-17.457,2.823-1.304-.207-2.594-.522-3.852-.925-7.228-2.326-12.662-7.574-16.253-14.152-4.709-8.643-6.092-19.111-5.884-28.825.175-8.289,1.661-17.61,4.788-25.41Z"/>
    <path class="st9" d="M56.965,130.48c32.863,35.471,48.44,52.474,55.811,60.598,6.646,7.328,6.656,15.36,1.729,24.427-7.34,13.516-21.437,18.675-33.166,14.902-12.282-3.952-21.433-17.839-20.933-41.291.202-9.607,2.171-19.007,5.084-25.821,0,0-18.268-18.579-8.525-32.816Z"/>
    <path class="st2" d="M75.922,167.541c8.032,8.703,16.051,17.425,24.038,26.167,2.451,2.687,5.098,5.466,7.592,8.264-1.836,10.629-11.672,22.28-23.427,17.571-6.059-2.429-10.265-8.685-12.19-16.571-2.787-11.415.107-26.367,3.905-35.246l.082-.186Z"/>
    <path class="st5" d="M75.922,167.541c8.032,8.703,16.051,17.425,24.038,26.167,2.451,2.687,5.098,5.466,7.592,8.264-1.515,8.76-8.462,18.214-17.439,18.629,10.09-2.851,12.587-10.011,9.752-19.386-1.449-4.795-5.225-9.875-11.603-16.374-7.503-7.642-11.71-12.087-15.676-6.853.881-3.844,2.019-7.371,3.253-10.261l.082-.186Z"/>
    <path class="st9" d="M89.324,182.854c6.095.357,10.89,6.503,10.708,13.73-.179,7.228-5.266,12.794-11.361,12.44-6.095-.361-10.89-6.506-10.708-13.734.18-7.224,5.266-12.791,11.361-12.437Z"/>
    <path class="st2" d="M85.912,181.461c-2.744-.157-5.084.865-5.231,2.287-.147,1.426,1.96,2.712,4.704,2.873,2.746.157,5.086-.865,5.232-2.29.145-1.422-1.962-2.708-4.705-2.869Z"/>
    <path class="st1" d="M224.454,133.103c-32.863,35.474-49.569,54.728-56.933,62.849-6.649,7.324-6.66,15.359-1.733,24.427,7.342,13.516,21.439,18.675,33.166,14.902,5.559-1.79,11.815-4.984,16.749-11.144,5.963-7.449,10.082-18.807,9.807-31.644-.204-9.611-2.169-19.011-5.084-25.821,0,0,15.081-14.645,4.026-33.57Z"/>
    <path class="st9" d="M216.835,163.672c1.377-1.504,2.703-3.219,3.853-4.831,2.839-3.984,5.331-8.575,6.517-13.341,1.393-5.588.875-11.144-2.447-15.999l-1.225-1.79-1.475,1.59c-12.507,13.502-25.006,27.014-37.468,40.562-6.135,6.667-12.264,13.341-18.35,20.051-7.381,8.132-7.03,17.11-1.974,26.417,3.196,5.884,7.919,10.783,13.911,13.83,5.352,2.719,11.517,3.794,17.457,2.823,1.304-.207,2.594-.522,3.855-.925,7.224-2.326,12.658-7.574,16.249-14.152,4.709-8.643,6.092-19.111,5.884-28.825-.175-8.289-1.661-17.61-4.786-25.41Z"/>
    <path class="st9" d="M223.329,130.48c-32.863,35.471-48.444,52.474-55.807,60.598-6.649,7.328-6.66,15.36-1.733,24.427,7.342,13.516,21.439,18.675,33.166,14.902,12.28-3.952,21.433-17.839,20.933-41.291-.204-9.607-2.169-19.007-5.084-25.821,0,0,18.268-18.579,8.525-32.816Z"/>
    <path class="st2" d="M204.372,167.541c-8.032,8.703-16.051,17.425-24.038,26.167-2.451,2.687-5.098,5.466-7.59,8.264,1.835,10.629,11.672,22.28,23.425,17.571,6.06-2.429,10.265-8.685,12.19-16.571,2.787-11.415-.107-26.367-3.905-35.246l-.082-.186Z"/>
    <path class="st5" d="M204.372,167.541c-8.032,8.703-16.051,17.425-24.038,26.167-2.451,2.687-5.098,5.466-7.59,8.264,1.513,8.76,8.459,18.214,17.433,18.629-10.086-2.851-12.583-10.011-9.748-19.386,1.449-4.795,5.225-9.875,11.599-16.374,7.506-7.642,11.712-12.087,15.677-6.853-.879-3.844-2.019-7.371-3.251-10.261l-.082-.186Z"/>
    <path class="st9" d="M190.97,182.854c-6.095.357-10.89,6.503-10.711,13.73.184,7.228,5.27,12.794,11.365,12.44,6.095-.361,10.89-6.506,10.708-13.734-.181-7.224-5.266-12.791-11.362-12.437Z"/>
    <path class="st2" d="M194.382,181.461c2.744-.157,5.084.865,5.23,2.287.147,1.426-1.96,2.712-4.703,2.873-2.744.157-5.086-.865-5.232-2.29-.143-1.422,1.962-2.708,4.705-2.869Z"/>
    <path class="st8" d="M141.569,216.149c0,10.122,0,7.685,0,7.685,4.219-1.09,12.312,2.766,12.562,1.551.375-1.826-12.562-9.236-12.562-9.236Z"/>
    <path class="st1" d="M159.051,174.39c23.28-23.548,11.376-12.037,35.714-34.542v.004c-20.621,25.956-10.029,13.223-31.766,38.197-1.015,1.09-2.717,1.154-3.805.143-1.091-1.011-1.154-2.715-.143-3.802Z"/>
    <path class="st1" d="M121.243,174.39c-23.278-23.548-11.374-12.037-35.717-34.542v.004c20.622,25.956,10.032,13.223,31.769,38.197,1.011,1.09,2.717,1.154,3.805.143,1.092-1.011,1.154-2.715.143-3.802Z"/>
    <path class="st0" d="M142.894,83.987c-34.301,0-42.241-5.023-49.662-13.916,1.479,2.912,3.185,6.134,5.359,10.733-1.468-1.518-5.17-6.66-8.643-12.337,1.397,5.763,2.905,11.408,4.379,16.378,4.754,2.976,9.316,4.809,15.172,6.106,4.23.943,8.887,1.361,13.209,1.665,5.788.411,11.615.572,17.417.572s11.629-.161,17.414-.572c4.323-.304,8.98-.722,13.212-1.665,5.856-1.297,10.415-3.13,15.17-6.106,1.479-4.988,2.99-10.651,4.391-16.435-3.48,5.699-7.203,10.872-8.675,12.394,1.447-3.058,2.687-5.513,3.791-7.667-7.699,8.982-17.314,10.851-42.534,10.851Z"/>
  </g>
  <rect class="st11" x="-341.331" y="-67.825" width="400" height="400"/>
  <rect class="st11" x="99.78" y="-67.825" width="400" height="400"/>
  <rect class="st11" x="-341.331" y="377.508" width="400" height="400"/>
  <rect class="st11" x="99.78" y="377.508" width="400" height="400"/>
  <metadata>
    <sfw xmlns="http://ns.adobe.com/SaveForWeb/1.0/">
      <slices/>
      <sliceSourceBounds x="-2051.88" y="-4498.52" width="4384.6" height="3952.85" bottomLeftOrigin="true"/>
      <optimizationSettings>
        <targetSettings fileFormat="PNG24Format" targetSettingsID="0">
          <PNG24Format filtered="false" interlaced="false" matteColor="#FFFFFF" noMatteColor="false" transparency="true"/>
        </targetSettings>
      </optimizationSettings>
    </sfw>
  </metadata>
</svg>