<?xml version="1.0" encoding="UTF-8"?>
<svg id="Layer_1" xmlns="http://www.w3.org/2000/svg" version="1.1" viewBox="0 0 392.817 420.684">
  <!-- Generator: Adobe Illustrator 30.1.0, SVG Export Plug-In . SVG Version: 2.1.1 Build 136)  -->
  <defs>
    <style>
      .st0 {
        fill: #2a518a;
      }

      .st0, .st1, .st2, .st3, .st4, .st5, .st6, .st7, .st8, .st9, .st10, .st11, .st12, .st13 {
        fill-rule: evenodd;
      }

      .st1 {
        fill: #d78514;
      }

      .st2 {
        fill: #f6e05c;
      }

      .st3 {
        fill: #fff;
      }

      .st14 {
        fill: none;
      }

      .st4 {
        fill: #eabd20;
      }

      .st5 {
        fill: #244170;
      }

      .st6 {
        fill: #c7c8c8;
      }

      .st7 {
        fill: #6f8cc2;
      }

      .st8 {
        fill: #baceeb;
      }

      .st9 {
        fill: #244474;
      }

      .st10 {
        fill: #595858;
      }

      .st12 {
        fill: #4f6fa1;
      }

      .st13 {
        fill: #b3b3b4;
      }
    </style>
  </defs>
  <g>
    <path class="st11" d="M71.956,232.184c4.786-6.85,9.705-13.61,14.881-20.171,7.039-8.921,14.748-17.94,23.538-25.181,2.162-1.781,4.596-3.128,7.243-3.975-1.752-8.539-3.244-17.132-4.314-25.784-2.856-23.091-2.67-46.432,2.654-69.167,4.502-19.226,16.205-34.529,32.261-45.483-2.619-2.095-5.218-4.224-7.668-6.514-.907-.848-1.802-1.691-2.604-2.643-1.971-2.34-3.204-5.24-1.517-8.127.866-1.482,2.322-2.454,4-2.77,1.395-.262,2.994-.308,4.606-.257-.854-.574-1.704-1.153-2.531-1.767-2.347-1.74-4.208-4.027-3.498-7.149.274-1.205.88-2.247,1.817-3.055,1.821-1.57,4.348-1.849,6.649-2.017,2.241-.163,4.809.282,6.997.76.37.08.74.165,1.109.252-1.059-1.545-1.561-3.286-.745-5.403,1.154-2.994,3.926-3.818,6.856-3.725,1.885.06,3.76.302,5.631.52,5.852.682,12.256,3.454,17.414,6.244,6.794,3.677,13.239,8.401,18.675,13.896,1.357,1.372,2.657,2.8,3.887,4.286.789.076,1.576.174,2.359.298,14.387,1.688,28.166,6.056,40.747,13.268,24.663,14.138,41.603,37.251,52.314,63.194,2.697,6.534,5.01,13.244,6.976,20.08.316-.705.632-1.411.949-2.116,5.632-12.579,11.185-25.197,16.386-37.962,4.466-10.963,8.743-22.046,12.144-33.391,1.197-3.992,2.437-7.971,3.799-11.91,1.064-3.077,2.193-6.139,3.534-9.108,1.998-4.42,5.217-10.514,10.92-10.184,6.567.38,8.869,8.852,10.145,14.07,1.719,7.032,1.764,14.796,1.325,21.992-.289,4.732-.817,9.453-1.517,14.145,3.141-2.262,6.804-3.837,10.604-3.015,5.981,1.295,8.308,7.368,9.237,12.76.847,4.917.98,9.952.672,14.924-.574,9.27-2.653,18.562-5.445,27.405.479.024.959.082,1.436.178,7.451,1.502,8.837,10.047,8.928,16.386.065,4.603-.557,9.21-1.59,13.69-1.917,8.327-5.259,16.44-9.191,24.008-1.094,2.106-2.23,4.195-3.436,6.24,2.263,1.922,4.431,4.208,6.02,6.611,2.402,3.635,3.713,7.798,2.887,12.156-.923,4.872-4.27,8.75-8.18,11.595-6.424,4.676-14.013,8.591-21.977,9.606-.221.028-.443.053-.665.077.409,1.786.717,3.607.875,5.411.369,4.215-.082,8.673-2.477,12.276-4.47,6.725-12.805,6.811-19.891,5.235-6.725-1.496-13.436-3.782-19.567-7.067-5.007,26.48-15.764,51.532-33.974,72.21-8.218,9.332-17.613,17.332-27.895,23.845-1.784,5.482-4.085,10.641-7.064,14.793l2.242,11.867c.094.005.188.01.281.017,6.267.438,12.557.486,18.835.625,5.494.122,10.991.231,16.476.588,3.37.22,8.95.545,11.832,2.244,2.269,1.337,3.881,3.582,3.638,6.31-.098,1.101-.461,2.063-1.032,2.899,2.02,1.877,3.375,4.323,2.743,7.237-.812,3.743-4.403,5.491-7.853,6.624.544,1.208.798,2.494.554,3.964-.828,4.978-6.02,6.077-10.237,6.435-.789.067-2.628.278-3.584.678-.014.874.086,1.749.082,2.624-.005,1.391-.265,2.608-.907,3.85-.563,1.091-1.377,2.01-2.385,2.709-3.443,2.386-8.451.622-11.985-.713-4.343-1.639-8.546-3.669-12.675-5.783-3.506-1.795-6.966-3.682-10.356-5.689-2.418-1.431-4.965-2.922-7.125-4.723-7.076-5.9-8.447-15.176-7.095-23.822l-3.806-12.539c-1.259-.624-2.423-1.409-3.444-2.354-.83-.769-1.648-1.55-2.456-2.341-5.911,1.589-11.966,2.767-18.131,3.512-9.371,1.132-18.851,1.228-28.234.318-2.455,2.721-4.946,5.409-7.529,8.008-.467.47-.988.885-1.55,1.249l-4.012,13.688c-.088.3-.464,1.673-.287,1.98.114.199.641.526.83.64.888.544,1.811,1.029,2.7,1.579,3.099,1.917,6.004,3.982,8.999,6.047,3.683,2.539,7.37,5.188,10.671,8.214,1.067.978,2.102,1.994,3.008,3.125,1.923,2.402,3.225,5.416,2.004,8.456-1.506,3.749-5.412,4.632-9.047,4.557-1.372-.028-2.767-.007-4.129.179-.837.114-2.788.478-3.3,1.243-.319.477-.534,1.355-.685,1.904-.484,1.758-.967,3.314-2.075,4.802-1.06,1.423-2.471,2.45-4.135,3.056-2.085.76-4.288.982-6.47.54-2.932-.596-5.305-2.241-7.563-4.118-1.947-1.618-3.808-3.36-5.86-4.844-.174-.127-.369-.262-.593-.251-1.01.053-3.067,1.369-3.935,1.903-1.307.805-2.606,1.613-3.996,2.27-3.284,1.554-6.862,2.079-10.245.499-4.654-2.172-7.375-7.588-9.057-12.293-1.017-.333-3.245-.587-4.025-.661-4.398-.417-10.545-.33-12.806-4.987-1.331-2.743-.548-5.603,1.118-7.984,3.587-5.13,13.907-9.109,19.73-11.249,3.638-1.338,7.314-2.574,11.018-3.717,1.382-.426,3.774-1.066,4.892-2.01.912-.769,1.558-2.186,2.034-3.287l3.332-13.675c-2.428-4.622-4.483-9.291-6.204-14.05-.353-.145-.706-.291-1.058-.439-22.588-9.49-41.766-24.955-56.421-44.533-2.549-3.406-5.018-7.017-7.304-10.768-.536-.039-1.067-.103-1.589-.195-2.499-.439-4.703-1.701-6.021-3.918-.414-.696-.715-1.447-.902-2.236-.611-2.576.027-5.323,1.144-7.899-.178-.423-.354-.846-.525-1.27-.217-.184-.421-.387-.608-.606-.669-.781-1.437-1.505-2.177-2.225-9.789-5.637-19.452-11.519-28.692-18.025-8.991-6.331-19.874-14.671-26.021-23.843-.522-.778-1.003-1.584-1.444-2.41-3.144-5.886-5.588-15.984.342-20.987,1.5-1.265,3.327-1.961,5.277-2.108.721-.054,1.441-.055,2.156-.003-.052-.691-.055-1.386-.004-2.083.33-4.542,2.591-8.96,6.614-11.281,3.088-1.781,6.635-1.982,9.986-.855,3.78,1.27,6.928,4.055,9.424,7.091.217.264.429.531.637.802,1.58-4.38,4.435-8.481,9.181-9.315,1.596-.28,3.18-.142,4.7.419,4.472,1.65,7.449,6.584,9.32,10.723,5.126,11.341,8.538,23.907,11.047,36.142Z"/>
    <g>
      <path class="st11" d="M364.54,72.402c3.332-3.322,8.192-7.19,13.024-6.144,5.07,1.097,6.926,6.665,7.699,11.155.819,4.758.945,9.652.647,14.464-.563,9.092-2.637,18.329-5.38,27.004-.293.928-.598,1.867-.913,2.81,1.262-.326,2.571-.424,3.876-.161,6.324,1.275,7.259,9.234,7.333,14.466.063,4.438-.544,8.896-1.539,13.215-1.871,8.125-5.179,16.148-9.018,23.538-1.307,2.516-2.739,5.127-4.266,7.611,2.677,2.072,5.27,4.703,6.956,7.253,5.326,8.057,2.707,15.581-4.804,21.048-6.134,4.464-13.44,8.27-21.059,9.241-.88.112-1.887.193-2.932.217.702,2.498,1.21,5.094,1.413,7.416.327,3.741-.022,7.795-2.153,11.002-3.958,5.955-11.589,5.777-17.804,4.395-9.781-2.176-19.584-6.075-27.457-12.391-2.681-2.151-6.194-5.507-7.941-8.547-.306-.533-.445-1.062-.44-1.677l.552-70.273c.004-.484.094-.897.294-1.338,3.947-8.738,7.912-17.468,11.831-26.219,5.64-12.596,11.205-25.243,16.412-38.025,4.471-10.974,8.804-22.216,12.208-33.57,1.188-3.962,2.421-7.92,3.773-11.83,1.04-3.008,2.156-6.037,3.467-8.939,1.58-3.495,4.392-9.285,8.994-9.019,5.32.307,7.324,8.447,8.329,12.557,1.656,6.771,1.695,14.468,1.272,21.399-.394,6.457-1.247,12.947-2.373,19.338Z"/>
      <path class="st7" d="M303.644,148.073c15.159-33.558,32.495-71.172,40.606-98.225,8.111-27.052,13.502-36.494,18.173-17.396,4.67,19.099-3.928,52.677-3.928,52.677,0,0,19.577-29.947,23.503-7.154,3.926,22.793-9.021,51.829-9.021,51.829,0,0,14.235-14.877,14.535,6.24.301,21.117-16.028,45.213-16.028,45.213,0,0,21.076,12.821,4.719,24.728-16.357,11.906-26.87,8.309-26.87,8.309,0,0,12.366,29.048-12.995,23.407-25.362-5.641-33.246-19.354-33.246-19.354l.552-70.274Z"/>
      <path class="st12" d="M381.718,192.415c1.555,4.115.885,8.912-5.514,13.57-16.357,11.906-26.87,8.309-26.87,8.309,0,0,12.366,29.048-12.995,23.407-25.362-5.641-33.246-19.354-33.246-19.354l.319-40.646c2.743-1.767,5.758-3.397,9.074-4.867,12.847,29.366,45.06,34.859,69.232,19.581Z"/>
      <path class="st0" d="M320.322,110.954c.971.013,1.926.103,2.857.28,4.01.765,7.358,2.944,9.551,6.983,1.817,3.345,2.644,7.953,2.027,14.101l-.792,7.896c8.63-5.352,19.42-8.613,25.124,2.947,4.426,8.971,1.81,21.135-1.282,29.981,5.198.213,10.659,2.073,13.776,7.97l-.097.146s.091.056.255.161c7.461,14.831,2.868,35.781-22.406,32.876-4.977-.573,15.822-5.715,13.681-19.211-.871-5.491-5.189-10.455-13.428-7.434-1.783.757-3.881.728-5.719-.263-3.21-1.73-4.411-5.735-2.681-8.946.031-.057,10.786-19.806,6.044-29.416-2.091-4.239-16.62,10.734-16.662,10.777l-.009-.009c-1.352,1.389-3.3,2.173-5.379,1.969-3.628-.357-6.281-3.587-5.924-7.216l2.36-23.519c.331-3.299.101-5.377-.517-6.513-.086-.159-.226-.247-.397-.279-.915-.174-2.229.055-3.742.558-1.149.382-2.322.896-3.482,1.506,2.298-5.109,4.59-10.24,6.841-15.344Z"/>
      <path class="st9" d="M374.945,196.066c-.575,10.87-8.165,20.233-25.612,18.228-4.338-.499,10.903-4.471,13.472-14.419,4.112-.755,8.192-2.027,12.14-3.81Z"/>
      <path class="st11" d="M230.173,364.46l-11.511-37.919,21.405-4.221,7.069,37.415c.03.159.085.438.154.674.551.072,1.389.085,1.782.113,6.263.439,12.65.49,18.93.63,5.455.121,10.946.23,16.39.585,2.862.186,8.485.518,10.952,1.972,1.6.943,2.843,2.452,2.667,4.422-.132,1.473-.947,2.498-2.019,3.283.24.151.468.304.672.459,1.939,1.472,3.664,3.529,3.096,6.148-.781,3.599-5.575,4.921-8.925,5.876,1.038,1.43,1.923,2.911,1.608,4.807-.642,3.86-5.291,4.512-8.445,4.78-1.339.113-3.768.415-4.911,1.217-.326.229-.407.393-.457.784-.014.106-.021.213-.026.321-.092,2.142.491,3.761-.612,5.899-.414.802-1.01,1.473-1.751,1.987-2.699,1.87-7.399.1-10.15-.939-4.234-1.599-8.444-3.631-12.471-5.693-3.465-1.774-6.9-3.647-10.25-5.63-2.234-1.323-4.873-2.879-6.865-4.539-6.651-5.546-7.69-14.352-6.332-22.431Z"/>
      <path class="st4" d="M233.573,364.259c-1.63,8.629-.065,15.821,5.053,20.089,5.117,4.267,32.369,18.949,35.727,16.622,3.359-2.328-3.858-9.663,9.364-10.786,13.222-1.123-2.721-6.816,5.251-9.195,5.446-1.626,10.418-2.892,5.693-6.478-.457-.347-2.703-1.534-4.111-2.432-1.787-1.141-1.286-1.035.447-1.808,2.46-1.098,5.295-2.159,2.665-3.708-4.125-2.431-31.543-1.806-44.822-2.736-2.947-.207-4.299.022-4.959-3.476l-6.45-34.134-14.535,2.866,10.678,35.175Z"/>
      <path class="st1" d="M233.573,364.259c-1.63,8.629-.065,15.821,5.053,20.089,5.117,4.267,32.369,18.949,35.727,16.622,3.359-2.328-3.858-9.663,9.364-10.786,13.222-1.123-2.721-6.816,5.251-9.195,4.365-1.302,8.424-2.375,7.432-4.596-2.221,1.753-5.559,2.09-9.337,2.93-6.311,1.402,1.578,7.188-3.681,8.064-5.259.877-10.693-.701-11.394,4.909-.701,5.61-7.187,2.98-23.14-5.61-15.952-8.59-11.394-21.562-11.394-21.562l-3.681-15.075c-1.844-.872-3.591-1.689-5.26-2.464l5.062,16.674Z"/>
      <path class="st11" d="M196.808,320.557c-.591-.538-.984-1.276-1.06-2.109-.105-1.143.362-2.089,1.107-2.722.548-.49,1.251-.795,2.019-.861,1.086-.201,2.301-.553,3.366-.821,2.545-.638,5.089-1.284,7.635-1.92,7.287-1.822,14.592-3.588,21.932-5.204,6.971-1.536,14.093-3.008,21.175-3.982,1.097-.151,2.108.163,2.904.902.796.739,1.154,1.696,1.03,2.749-1.455,12.309-4.813,30.404-12.999,40.421-4.94,6.046-15.973,6.517-21.679,1.234-3.641-3.371-7.094-7.039-10.438-10.68-3.414-3.717-6.754-7.498-10.059-11.305-1.153-1.328-2.3-2.659-3.448-3.991-.483-.56-.977-1.167-1.484-1.712Z"/>
      <path class="st0" d="M253.474,306.217c-2.203,18.634-6.621,31.819-12.286,38.752-3.661,4.48-12.302,4.821-16.543.895-9.831-9.102-25.471-27.938-25.448-27.706.03.294,34.426-9.211,54.277-11.941Z"/>
      <path class="st11" d="M161.172,380.027c3.659,2.264,5.412,3.577,8.916,5.994,3.562,2.455,7.266,5.118,10.456,8.042,2.401,2.2,5.958,5.772,4.511,9.374-1.16,2.889-4.436,3.367-7.162,3.311-2.37-.048-7.563-.025-9.121,2.304-.474.709-.725,1.666-.949,2.482-.411,1.491-.809,2.875-1.753,4.141-.828,1.112-1.921,1.902-3.222,2.376-1.747.637-3.564.831-5.394.459-2.578-.523-4.706-2.05-6.688-3.698-1.994-1.657-3.857-3.401-5.966-4.926-.573-.415-1.148-.662-1.863-.624-1.521.08-3.601,1.412-4.873,2.195-1.243.765-2.483,1.542-3.804,2.166-9.309,4.403-14.122-3.461-16.813-11.33-.593-.798-4.527-1.216-5.477-1.306-3.505-.332-9.425-.21-11.205-3.877-1.007-2.074-.28-4.206.958-5.977,3.254-4.653,13.543-8.596,18.787-10.522,3.559-1.307,7.227-2.544,10.918-3.683,5.165-1.594,6.28-2.024,8.232-6.564l7.585-31.134c.162-.903.624-1.622,1.379-2.143.755-.521,1.591-.699,2.492-.53l12.342,2.259c.954.178,1.707.697,2.214,1.524.507.827.628,1.733.355,2.664l-8.96,30.574c-1.229,4.194.361,4.133,4.105,6.448Z"/>
      <path class="st4" d="M150.74,340.047l-9.284,37.463s-32.033,8.393-37.018,15.521c-4.985,7.129,14.019,2.009,16.125,8.152,3.787,11.047,8.054,11.443,12.281,9.444,4.51-2.133,9.009-6.964,13.899-3.426,6.303,4.56,9.434,9.755,14.972,7.737,5.538-2.018-1.071-11.857,16.247-11.504,17.318.354-25.801-24.892-25.801-24.892l10.104-36.471-11.524-2.025Z"/>
      <path class="st1" d="M149.984,409.777c4.317,3.677,7.228,6.802,11.73,5.162,5.538-2.018-1.071-11.857,16.247-11.504,17.318.354-25.801-24.892-25.801-24.892l7.262-26.212c-1.724,1.005-3.522,2.133-5.412,3.404l-5.026,24.191s13.673,10.051,18.231,15.777c4.558,5.727-2.22,5.259-4.324,9.232-2.104,3.974-2.104,10.869-10.051,6.428-1.089-.608-2.034-1.134-2.857-1.587Z"/>
      <path class="st11" d="M188.137,324.228c.893.606,1.499,1.639,1.411,2.938-.06.889-.467,1.677-1.084,2.235-.504.538-.999,1.146-1.478,1.702-1.143,1.326-2.282,2.654-3.424,3.981-3.272,3.8-6.56,7.588-9.893,11.336-3.424,3.851-6.91,7.724-10.542,11.38-4.403,4.43-16.784,3.858-19.897-1.971-6.697-12.539-10.549-25.26-12.426-39.37-.14-1.051.184-2.016.931-2.769.747-.754,1.707-1.086,2.76-.956,6.794.841,13.635,2.18,20.334,3.584,7.053,1.479,14.076,3.107,21.082,4.791,2.448.589,4.894,1.186,7.341,1.777,1.027.248,2.199.579,3.244.759.603.044,1.166.249,1.642.584Z"/>
      <path class="st0" d="M134.087,316.021c2.473,18.589,7.977,30.593,12.064,38.247,1.977,3.701,11.7,4.14,14.625,1.196,9.226-9.284,25.484-28.755,25.466-28.522-.022.294-33.112-8.563-52.156-10.92Z"/>
      <path class="st11" d="M209.657,25.252c14.387,1.688,28.166,6.056,40.747,13.268,24.663,14.138,41.603,37.251,52.314,63.194,13.158,31.868,17.169,67.957,16.249,102.215-1.017,37.876-11.915,75.24-37.322,104.089-21.027,23.876-49.757,39.036-81.347,42.856-22.479,2.717-45.589-.537-66.461-9.307-22.588-9.49-41.766-24.955-56.421-44.533-6.978-9.323-13.352-20.181-17.032-31.261-1.934-5.823-5.145-17.696,2.049-21.19,4.797-2.33,9.375,1.371,12.418,4.775,3.759,4.206,8.687,7.62,13.784,9.999,7.545,3.521,17.505,5.6,25.439,2.193,6.104-2.621,9.504-7.919,11.263-14.133,3.201-11.306,1.131-25.7-1.466-36.989-1.834-7.971-3.778-15.917-5.488-23.916-2.083-9.74-3.857-19.551-5.08-29.439-2.856-23.091-2.67-46.432,2.654-69.167,4.502-19.226,16.205-34.529,32.261-45.483-2.619-2.095-5.218-4.224-7.668-6.514-.907-.848-1.802-1.691-2.604-2.643-1.971-2.34-3.204-5.24-1.517-8.127.866-1.482,2.322-2.454,4-2.77,1.395-.262,2.994-.308,4.606-.257-.854-.574-1.704-1.153-2.531-1.767-2.347-1.74-4.208-4.027-3.498-7.149.274-1.205.88-2.247,1.817-3.055,1.821-1.57,4.348-1.849,6.649-2.017,2.241-.163,4.809.282,6.997.76.37.08.74.165,1.109.252-1.059-1.545-1.561-3.286-.745-5.403,1.154-2.994,3.926-3.818,6.856-3.725,1.885.06,3.76.302,5.631.52,5.852.682,12.256,3.454,17.414,6.244,6.794,3.677,13.239,8.401,18.675,13.896,1.357,1.372,2.657,2.8,3.887,4.286.789.076,1.576.174,2.359.298Z"/>
      <path class="st11" d="M209.385,27.222c14.147,1.654,27.66,5.931,40.031,13.023,24.278,13.918,40.926,36.7,51.466,62.228,13.037,31.576,17.01,67.479,16.099,101.402-1.005,37.424-11.737,74.341-36.826,102.83-20.709,23.515-48.987,38.435-80.094,42.196-22.174,2.68-44.864-.515-65.453-9.166-22.266-9.356-41.152-24.592-55.6-43.892-6.8-9.084-13.145-19.883-16.737-30.697-1.5-4.516-4.851-15.918,1.032-18.775,3.83-1.86,7.711,1.676,10.068,4.312,3.934,4.401,9.092,7.986,14.426,10.475,8.079,3.771,18.573,5.864,27.064,2.219,6.664-2.862,10.464-8.608,12.392-15.417,3.303-11.668,1.223-26.392-1.442-37.976-1.832-7.964-3.772-15.891-5.482-23.886-2.072-9.689-3.835-19.433-5.051-29.268-2.828-22.872-2.659-45.943,2.616-68.469,4.626-19.756,17.024-35.105,33.705-45.787-.391-.31-.782-.619-1.172-.93-2.885-2.298-5.824-4.666-8.518-7.185-2.076-1.942-5.608-5.157-3.762-8.316.576-.985,1.542-1.61,2.652-1.819,2.517-.474,6.454-.103,9.036.12.522.046,1.045.093,1.569.143-1.069-1.082-2.202-2.044-3.269-2.779-1.473-1.016-3.009-1.993-4.444-3.057-1.652-1.226-3.265-2.818-2.744-5.112.69-3.038,4.149-3.347,6.672-3.531,3.363-.245,8.986,1.183,14.388,2.934-.967-1.045-1.978-2.022-3.011-3.021-1.527-1.477-3.218-3.204-2.305-5.572.831-2.158,2.936-2.516,4.938-2.453,1.799.057,3.676.299,5.464.507,5.539.646,11.831,3.385,16.698,6.019,6.604,3.573,12.925,8.205,18.208,13.546,1.508,1.525,2.946,3.123,4.291,4.795,1.036.08,2.071.196,3.096.361Z"/>
      <path class="st0" d="M208.929,30.504c-.57-.093-1.164-.172-1.782-.238.764,2.507,1.053,5.314,1.191,9.698-3.758-9.462-4.675-12.343-12.491-19.118-10.008-8.675-22.048-14.229-29.139-15.055-11.154-1.3-6.777-.271-1.384,5.991,5.393,6.262,7.092,8.615,7.092,8.615,0,0-18.195-7.45-24.558-6.988-6.363.463-3.752,1.596,2.156,5.669,5.907,4.073,8.421,9.652,8.421,9.652,0,0-6.661-.903-11.853-1.204-4.897-.284-8.029-.89-2.929,4.021.173.059.341.144.496.259,7.399,5.777,16.973,11.906,19.709,21.366-3.043-3.788-5.789-6.541-8.657-8.942-15.54,9.453-29.198,24.023-34.083,44.887-11.004,46.993,1.553,92.451,7.919,120.125,16.986,73.831-37.874,66.317-58.138,43.65-12.117-13.554-10.723,12.269,10.759,40.967,70.913,94.729,227.986,59.839,232.01-90.071,2.637-98.244-37.353-165.446-104.74-173.282Z"/>
      <path class="st5" d="M132.187,237.052c-1.641,40.336-38.227,36.044-57.244,19.775-3.899,1.508-6.596,2.626-7.294,3.075-.674.433-1.675,1.233-2.844,2.253,2.456,8.316,7.914,19.759,16.855,31.703,4.743,6.336,9.881,12.072,15.323,17.252,26.689-5.352,60.326-23.621,64.86-50.04,4.7-27.383-17.577-26.538-29.656-24.018Z"/>
      <path class="st5" d="M157.907,46.642c-.898-.854-1.795-1.651-2.705-2.413-15.54,9.453-29.198,24.023-34.083,44.887-9.412,40.195-1.587,79.265,4.857,107.045,6.277,2.439,10.857,4.139,10.857,4.139,0,0-11.219-28.515-12.621-78.534-1.356-48.364,24.384-68.756,33.695-75.123Z"/>
      <path class="st7" d="M203.506,29.223c-1.662-2.678-3.834-5.061-7.66-8.377-10.008-8.675-22.048-14.229-29.139-15.055-11.154-1.3-6.777-.271-1.384,5.991,5.393,6.262,7.092,8.615,7.092,8.615,0,0-18.195-7.45-24.558-6.988-6.363.463-3.752,1.596,2.156,5.669,5.907,4.073,8.421,9.652,8.421,9.652,0,0-6.661-.903-11.853-1.204-4.897-.284-8.029-.89-2.929,4.021.173.059.341.144.496.259,5.196,4.057,11.465,8.287,15.685,13.723-5.706-8.531-11.982-14.77-8.807-14.213,3.331.584,11.453,2.279,11.453,2.279,0,0-2.829-6.168-5.8-11.013-2.414-3.936-7.673-7.551,3.438-3.87,3.642,1.207,7.862,2.768,10.66,3.897q6.661,2.688,6.661,2.688s-1.066-4.795-4.487-9.287c-3.163-4.153-6.596-7.485,2.823-4.645,4.729,1.425,11.219,4.395,17.323,8.906,5.157,3.811,8.385,6.762,10.407,8.951Z"/>
      <path class="st7" d="M277.961,105.582c5.85-2.57,11.813-1.874,13.319,1.553,1.505,3.427-2.017,8.289-7.867,10.859-5.85,2.569-11.813,1.874-13.319-1.553-1.505-3.428,2.017-8.289,7.867-10.859Z"/>
      <path class="st7" d="M107.298,319.981c51.317,39.627,123.776,34.406,167.798-12.639,11.691-12.493,20.67-40.361,19.196-57.322-1.398-16.085-15.404-6.721-19.518-3.904-4.939,3.382-6.238-7.497-13.558-9.917-7.32-2.421-12.102,14.567-19.074,7.484-6.972-7.082-11.906-16.356-20.233-5.258-8.328,11.098-12.697,13.116-24.261,4.753-11.565-8.362-14.556.322-30.438,31.013-13,25.121-39.564,42.633-59.911,45.79Z"/>
      <g>
        <path class="st3" d="M146.355,91.739c-5.113,4.402-5.789,15.448-1.625,26.408,1.84,4.842,4.449,8.911,7.368,11.847,6.565,6.605,22.495,2.955,26.143-5.274,2.393-5.396-5.095-12.481-10.401-20.763-1.868-3.854-4.198-7.094-6.706-9.497-4.137-5.404-7.545-9.189-7.545-9.189,0,0-4.273,1.59-7.233,6.466Z"/>
        <path class="st6" d="M146.355,91.738c-5.113,4.403-5.946,15.51-1.625,26.408,2.548,6.426,6.375,11.485,10.409,14.349-.334-1.042-.931-2.246-1.845-3.622-9.625-14.489-4.782-30.143,6.762-35.806-3.635-4.65-6.468-7.796-6.468-7.796,0,0-4.273,1.589-7.233,6.466Z"/>
        <path class="st11" d="M162.839,87.892c-14.062-3.749-21.861,10.682-17.417,26.265,2.18,7.645,5.54,12.129,9.775,17.439,1.314,1.648,1.462,2.075,1.066,1.89-5.342-2.496-11.357-12.083-13.449-17.714-7.454-20.063,3.625-37.011,20.693-31.961,1.031.34,3.983,2.31,3.798,3.436-.184,1.127-3.436.984-4.467.644Z"/>
        <path class="st11" d="M154.028,84.598c-7.339,4.458-8.558,17.987-2.723,30.219,5.835,12.231,16.516,18.533,23.854,14.075,7.339-4.458,8.558-17.988,2.723-30.218-5.835-12.232-16.515-18.534-23.854-14.075Z"/>
        <path class="st3" d="M150.736,90.168c3.304-2.007,7.026-1.737,8.313.605,1.287,2.341-.348,5.866-3.652,7.872-3.304,2.007-7.026,1.737-8.313-.605-1.287-2.341.348-5.866,3.652-7.872Z"/>
        <path class="st10" d="M158.258,117.425c-.591-1.135-.324-2.476.596-2.995.921-.518,2.147-.017,2.738,1.118,1.241,2.393,2.68,3.811,4.121,4.494,1.169.554,2.381.639,3.507.382,1.178-.269,2.253-.907,3.095-1.776,1.072-1.107,1.74-2.554,1.704-4.022-.031-1.242.833-2.133,1.929-1.99,1.095.144,2.008,1.267,2.039,2.509.067,2.713-1.028,5.24-2.791,7.06-1.264,1.305-2.887,2.264-4.674,2.673-1.839.42-3.861.262-5.867-.689-2.325-1.102-4.573-3.247-6.396-6.763Z"/>
      </g>
      <g>
        <path class="st3" d="M252.595,64.573c6.339.212,13.341,7.905,16.748,18.386,1.505,4.63,1.991,9.147,1.584,13.018-.917,8.706-14.735,15.417-22.255,11.54-4.931-2.543-3.621-12.142-4.614-21.335-.902-3.924-1.104-7.669-.683-10.907-.153-6.396.113-11.175.113-11.175,0,0,4.067-1.353,9.108.475Z"/>
        <path class="st6" d="M252.595,64.573c6.339.212,13.492,7.857,16.748,18.386,1.919,6.207,2.097,12.167.829,16.642-.369-.96-.641-2.193-.782-3.739-1.487-16.283-14.256-24.895-26.047-22.242-.077-5.548.144-9.521.144-9.521,0,0,4.067-1.353,9.108.475Z"/>
        <path class="st11" d="M238.256,71.468c8.091-11.03,22.305-5.055,28.23,8.977,2.907,6.883,3.088,12.147,3.114,18.532.008,1.981.152,2.38.332,2.012,2.442-4.975,1.2-15.541-.585-20.897-6.36-19.086-24.46-24.973-33.986-11.218-.555.856-1.556,4.038-.757,4.755.799.716,3.096-1.304,3.651-2.16Z"/>
        <path class="st11" d="M242.769,63.863c8.002-1.058,16.866,8.133,19.797,20.529,2.932,12.397-1.178,23.304-9.18,24.363-8.002,1.058-16.866-8.133-19.797-20.529-2.932-12.397,1.178-23.304,9.18-24.363Z"/>
        <path class="st3" d="M248.46,66.004c-3.602.477-6.169,2.868-5.732,5.341.436,2.473,3.71,4.092,7.313,3.615,3.602-.477,6.169-2.868,5.732-5.341-.437-2.473-3.71-4.091-7.313-3.615Z"/>
        <path class="st10" d="M259.01,90.399c-.236-1.18-1.222-2.005-2.201-1.842-.98.163-1.583,1.252-1.347,2.432.501,2.484.282,4.37-.371,5.719-.53,1.095-1.368,1.871-2.344,2.346-1.021.497-2.184.663-3.313.522-1.438-.179-2.779-.845-3.618-1.942-.709-.928-1.867-1.071-2.584-.321-.718.751-.725,2.111-.015,3.038,1.549,2.026,3.84,3.233,6.204,3.527,1.694.211,3.448-.043,4.998-.797,1.595-.775,2.982-2.083,3.891-3.961,1.053-2.177,1.436-5.073.7-8.722Z"/>
      </g>
      <path class="st11" d="M281.287,126.383c-.474,9.994-16.02,15.732-23.997,18.577-3.186,1.137-6.585,2.858-7.522,6.379-.809,3.038.018,8.961.236,12.121.365,5.298-.253,10.004-3.751,14.285-2.018,2.469-4.563,4.388-7.83,4.685-9.533.868-23.688-16.563-33.612-21.153-6.719-3.107-20.413-11.125-23.371-18.415-2.17-5.351-1.532-11.902,4.198-14.154,8.334-3.276,17.432-3.755,22.364-14.219,3.912-8.3,10.373-10.823,15.654-10.306,5.468.535,9.772,4.346,14.694,9.379,4.46,4.561,8.261,5.442,15.398,4.894,7.325-.562,27.981-1.368,27.54,7.927Z"/>
      <path class="st4" d="M236.826,115.319c-3.065-2.991-6.918-7.729-12.757-8.024-4.566-.232-11.07,2.707-14.006,8.607-7.806,15.688-21.287,11.173-25.083,17.54-3.796,6.368,1.283,15.608,21.221,24.829,19.938,9.221,28.459,26.966,37.486,15.92,9.027-11.046-6.532-25.566,12.49-32.351,11.732-4.185,18.745-8.914,20.841-12.965.76-1.468,2.752-2.695,1.435-3.99-.939-.924-2.462-1.793-4.647-2.591-13.69-5.005-31.115,2.369-36.981-6.976Z"/>
      <path class="st2" d="M236.826,115.319c-3.065-2.991-6.918-7.729-12.757-8.024-1.581-.08-3.41.213-5.242.877,4.28-.364,9.645,1.266,13.068,5.716,4.675,6.077,8.415,9.115,22.205,8.181,7.99-.541,15.822-.651,21.498.965-.539-.252-1.135-.499-1.791-.739-13.69-5.005-31.115,2.369-36.981-6.976Z"/>
      <path class="st1" d="M276.143,130.217c-6.942.91-23.75,4.341-29.406,6.226-3.506,1.169-15.426,9.817-26.645,11.453-11.219,1.636-21.178-9.71-22.906-8.414-1.692,1.268-11.532,2.184-13.348-2.498-.456,6.017,5.868,13.659,22.362,21.288,19.938,9.221,28.459,26.966,37.486,15.92,9.027-11.046-6.532-25.566,12.49-32.351,5.533-1.974,17.041-6.478,19.966-11.624Z"/>
      <path class="st11" d="M196.96,138.225c9.317,7.39,23.517,8.118,34.05,3.318,6.866-3.129,10.997-4.899,14.756-5.994,10.69-3.114,29.963-2.787,32.431-11.596.641.573,1.466.235,1.515.912.146,2.005-2.432,5.186-4.29,5.924-7.856,3.116-21.904,4.352-28.918,6.707-3.06,1.027-6.468,2.827-14.255,6.639-11.872,5.81-27.154,4.909-37.854-3.229-.74-.709-.766-1.883-.058-2.623.708-.74,1.883-.765,2.623-.057Z"/>
      <path class="st11" d="M198.432,143.245c5.98,3.827,10.393,6.399,15.15,11.635,7.529,8.287,16.578,12.917,22.737,11.262,8.852-2.379,5.833-14.508,9.367-21.042,3.534-6.533,18.143-12.268,18.143-12.268,0,0-20.043,4.341-25.236,6.85-8.663,4.187-21.142,9.816-30.044,5.427-2.973-1.466-10.654-2.208-10.116-1.864Z"/>
      <path class="st11" d="M217.435,117.576c.874.599.654,2.438-.491,4.106-1.145,1.668-2.781,2.534-3.655,1.934-.874-.6-.654-2.438.491-4.106,1.145-1.668,2.781-2.534,3.655-1.934Z"/>
      <path class="st11" d="M232.357,114.276c-.499.872.446,2.35,2.11,3.302,1.664.952,3.417,1.018,3.916.146.499-.872-.446-2.35-2.11-3.302-1.664-.952-3.417-1.017-3.916-.145Z"/>
      <path class="st11" d="M64.924,269.939c-.681-.151-1.316-.519-1.803-1.089-.725-.847-1.652-1.721-2.479-2.531-9.803-5.641-19.507-11.54-28.756-18.053-8.648-6.089-19.598-14.496-25.515-23.324-.485-.723-.932-1.472-1.342-2.24-2.641-4.943-5.213-14.243-.13-18.531,1.18-.995,2.612-1.53,4.145-1.645,1.505-.113,2.991.043,4.432.449-.377-1.425-.555-2.887-.447-4.374.282-3.878,2.178-7.715,5.625-9.704,2.593-1.495,5.549-1.638,8.36-.693,3.407,1.146,6.276,3.738,8.522,6.47,1.098,1.336,2.066,2.76,2.955,4.239.989-5.22,3.606-11.154,8.742-12.055,5.936-1.042,9.82,5.479,11.865,10.004,5.314,11.754,8.869,25.317,11.359,37.952,2.547,12.93,4.361,26.849,4.392,40.041.004,1.567-1.05,2.891-2.578,3.238-1.529.347-3.051-.39-3.725-1.806-.454-.951-1.093-1.975-1.623-2.892-.665-1.152-1.332-2.303-1.998-3.455Z"/>
      <path class="st7" d="M66.346,265.767l-1.153-.658c.152.533.302,1.063.444,1.586-.399-.467-1.448-1.517-2.974-3.035-14.111-8.108-43.484-25.559-53.541-40.563-4.566-6.814-5.659-16.83.169-17.269,8.919-.671,14.303,11.493,17.931,14.173-2.847-6.521-11.409-14.02-10.89-21.16.527-7.252,8.091-12.466,16.644-2.063,4.116,5.007,6.015,11.038,9.943,17.67-.828-3.25-1.377-6.321-1.554-9.107-.705-11.089,7.057-24.053,14.714-7.115,9.385,20.762,15.404,54.343,15.456,76.636-.472-.989-2.452-4.311-5.189-9.094Z"/>
      <path class="st0" d="M65.629,265.358l-.436-.248.158.556-.329.368c-.542-.561-1.345-1.364-2.359-2.373-2.879-1.654-6.395-3.699-10.252-6.031-15.196-12.212-25.537-21.108-28.366-27.054-4.684-9.845,7.409-11.134,17.538,1.165,0,0-16.829-18.231-10.752-22.204,6.077-3.974,18.932,16.127,18.932,16.127-1.877-6.983-1.436-11.607-.886-14.526,2.639-14.011,12.916,12.375,19.537,30.92,1.025,6.044,1.815,12.039,2.344,17.731-1.594,1.709-3.568,3.84-5.13,5.571Z"/>
      <path class="st7" d="M155.006,139.319c7.297.544,12.954,4.451,12.635,8.726-.319,4.276-6.493,7.301-13.79,6.756-7.297-.544-12.954-4.451-12.635-8.726.319-4.275,6.493-7.3,13.79-6.756Z"/>
      <path class="st3" d="M120.741,170.926c13.666-6.317,25.08-1.55,33.464,7.828,19.883,22.244,16.077,1.351,32.827-1.05,8.009-.08,12.588,10.016,18.57,15.391,10.693,9.607,22.517,10.802,32.739-1.131,11.16-13.028,13.599-15.024,21.361-11.98,2.669,1.047,3.495,2.279,8.887,4.424,14.591,5.805,19.281-5.365,25.441-16.842,4.407-8.213,8.691-16.192,15.471-20.207.974,5.113,1.787,10.385,2.435,15.813-2.147,2.917-4.191,6.725-6.275,10.608-4.285,7.984-8.697,16.203-15.861,21.174-11.11,7.709-18.21,4.884-26.073,1.756-11.256-4.478-7.772-4.987-15.334,3.841-20.106,23.474-40.69,12.428-58.166-5.741-3.136-3.26-5.582-2.892-13.492,4.595-9.313,6.423-16.082,6.394-32.374-11.833-5.688-6.364-12.286-9.044-20.941-2.867-.933-4.397-1.844-8.999-2.679-13.778Z"/>
      <path class="st13" d="M120.741,170.926c2.777-1.284,5.462-2.11,8.047-2.532.847,4.822,1.737,9.129,2.602,12.899-2.459.29-5.101,1.363-7.97,3.41l-.044-.206-.044-.206-.004-.017-.171-.813-.044-.208-.043-.209-.043-.209c-.072-.348-.144-.697-.216-1.047l-.043-.211-.043-.21-.172-.845-.043-.212-.043-.212-.043-.213c-.071-.355-.142-.711-.212-1.068l-.042-.214c-.085-.429-.169-.86-.253-1.292l-.042-.217c-.084-.433-.167-.868-.249-1.304l-.041-.218c-.082-.437-.164-.875-.245-1.315l-.041-.22c-.081-.441-.162-.882-.242-1.327l-.04-.222c-.08-.444-.159-.89-.237-1.338l-.039-.224Z"/>
      <path class="st11" d="M67.907,266.998c-3.64.199-7.72-.468-9.689-3.525-2.098-3.254-.901-8.254,1.104-11.094,3.921-5.553,7.658-11.275,11.522-16.875,5.5-7.97,11.555-14.657,17.554-22.259,6.866-8.703,14.672-17.82,23.242-24.879,2.338-1.926,5.014-3.291,7.961-4.002,9.124-2.201,14.712,8.198,21.731,13.754,8.344,6.605,15.107,16.041,19.042,25.902,1.504,3.771,2.638,7.698,3.302,11.705,1.916,11.55,4.295,16.859-1.64,27.048-11.747,20.167-37.991,32.222-58.969,40.407-5.39,2.103-13.156,3.436-17.976-.658-3.576-3.038-3.99-8.532-3.187-12.873.552-2.979,1.724-6.069,3.151-9.01-5.286,2.44-11.292,4.334-16.187,3.473-1.921-.338-3.638-1.263-4.657-2.977-2.525-4.246,1.094-10.262,3.472-13.804.075-.112.15-.223.226-.334Z"/>
      <path class="st7" d="M62.426,255.482c-7.442,10.54,9.214,9.359,14.605,5.308,0,0-16.844,18.432-7.59,20.06,6.289,1.106,15.612-3.625,20.94-6.769,2.013-1.188,1.154,1.762,1.132,1.797-2.369,3.767-5.424,9.357-6.353,14.375-2.165,11.7,7.938,12.467,16.702,9.047,32.348-12.622,68.887-29.889,62.401-68.993-4.65-28.039-34.026-52.969-50.518-39.383-20.418,16.819-43.12,52.947-51.32,64.559Z"/>
      <path class="st0" d="M99.26,205.332c.003.304-.015.612-.055.921-.331,2.539-2.698,16.875,2.406,16.222,6.019-.769,10.425-1.316,14.198,1.024,4.79,2.97,5.93,7.867,2.88,16.979-.55,1.643-.7,2.746-.534,3.386.065.032.179.075.337.128,1.584.53,4.038.338,6.93-.508,7.555-2.208,13.099-2.038,16.608,1.381,3.763,3.667,3.918,9.307.196,17.596-.587,1.307-.771,2.497-.61,3.489.128.793.51,1.503,1.101,2.055.699.653,1.728,1.122,3.042,1.318,2.172.326,4.928-.077,8.154-1.484.241-.104.485-.193.73-.268-4.087,4.958-9.169,9.301-14.857,13.171-3.457-.815-5.224-2.269-6.094-3.081-2.728-2.549-4.498-5.873-5.104-9.621-.562-3.479-.095-7.253,1.585-10.995,1.423-3.169,3.599-2.249-1.076-.882-5.454,1.594-10.664,1.761-14.759.391-2.056-.688-3.883-1.762-5.407-3.235-1.599-1.545-2.775-3.455-3.442-5.737-.925-3.162-.812-6.924.638-11.259.761-2.275-.114-1.096-2.845-.746-15.577,1.993-14.909-7.033-16.101-15.343,3.869-5.096,7.941-10.182,12.08-14.901h0ZM112.411,295.034c4.114-1.739,8.213-3.58,12.205-5.559-1.385-.487-2.975-1.199-3.571-1.276-1.572-.203-2.841-.766-3.743-1.575-.812-.729-1.349-1.689-1.548-2.778-.223-1.223-.042-2.657.614-4.2,3.164-7.442,3.023-12.369-.198-15.384-3.026-2.833-7.932-2.816-14.676-.697-5.559,1.746-10.471,2.22-8.356-4.545,2.534-8.105,1.56-12.34-2.474-14.732-3.237-1.918-6.808-.984-12.326-.166-4.67.692-6.048-.801-6.17-2.921-1.731,2.529-3.33,4.892-4.77,7.018.723,5.309,6.629,6.139,11.922,5.355,6.401-.949,5.53-1.306,4.346,2.482-1.231,3.938-1.276,7.297-.406,10.067.609,1.939,1.648,3.55,3.043,4.846,1.342,1.247,2.936,2.142,4.718,2.699,3.719,1.163,8.46.904,13.429-.657,3.177-.997,4.924-1.533,4.952-1.507.167.157-.855,1.186-2.165,4.269-1.437,3.38-1.79,6.755-1.229,9.838.599,3.285,2.22,6.181,4.673,8.384.536.481,1.118.82,1.732,1.04Z"/>
      <path class="st1" d="M138.651,382.062c-5.077,6.761-6.84,9.436-14.109,13.782-2.124,1.27-1.456,1.206-2.72,1.177.118-1.259-.023-.603,1.487-2.564,5.17-6.709,8.03-8.146,15.341-12.395Z"/>
      <path class="st1" d="M146.13,384.399c.445,6.652.848,9.119-1.952,15.306-.812,1.795-.415,1.482-1.32,1.99-.658-.804-.402-.368-.502-2.334-.346-6.783.93-8.932,3.775-14.962Z"/>
      <path class="st1" d="M151.74,385.567c6.663,4.805,9.286,6.447,13.569,13.486,1.25,2.055,1.187,1.41,1.156,2.642-1.229-.081-.593.041-2.526-1.391-6.622-4.905-8.02-7.666-12.2-14.738Z"/>
      <path class="st1" d="M244.59,376.569c8.571,1.686,14.322,3.927,21.652,8.767,2.426,1.602,1.983.924,2.656,2.218-1.417.35-.615.235-3.421-.528-8.476-2.303-13.958-5.138-20.887-10.457Z"/>
      <path class="st1" d="M249.557,372.86c9.288-.399,15.843.421,24.702,3.382,2.935.98,2.279.409,3.346,1.526-1.383.689-.572.375-3.666.301-9.338-.224-15.781-1.679-24.382-5.209Z"/>
      <path class="st11" d="M195.449,133.484c4.413,4.314.899,9.863-4.534,9.554l-2.945-.789c6.097-4.114,5.738-2.626,7.479-8.765Z"/>
      <path class="st7" d="M208.047,35.048c7.35.139,44.186,9.844,65.052,35.296,14.834,18.093,26.598,38.803,33.787,62.522.329,1.085.648,2.176.958,3.274-.265-1.202-.538-2.396-.819-3.581-13.911-58.547-48.619-96.303-98.095-102.055-.57-.093-1.164-.172-1.782-.238.433,1.42.713,2.937.9,4.782Z"/>
      <path class="st8" d="M381.998,77.975c-1.736-10.078-6.531-9.845-11.341-6.45,2.911-.627,5.684.812,6.339,7.583,1.402,14.492-5.843,39.968-8.414,47.682-1.956,5.868,1.161,5.987,4.411,2.98.495-1.122,12.853-29.456,9.005-51.794Z"/>
      <path class="st8" d="M358.52,85.032c.5-1.989,8.427-34.079,3.903-52.581-2.713-11.095-5.67-12.558-9.262-6.531,5.956,5.222,7.773,16.758,6.071,28.294-2.104,14.258-6.077,33.424-3.973,33.891.841.187,2.038-1.197,3.261-3.074Z"/>
      <path class="st8" d="M117.791,194.342c9.603-5.793,16.186-3.574,23.076-1.268-9.336-6.516-19.577-8.365-27.122-2.15-15.861,13.065-33.1,37.782-43.849,53.607-3.296,4.854,33.22-41.336,47.894-50.189Z"/>
      <path class="st1" d="M254.132,368.122c9.431-.86,16.209-.798,25.577.413,3.104.401,2.371.097,3.584.706-1.334.511-.542.265-3.706.426-9.551.485-16.287.029-25.455-1.544Z"/>
    </g>
  </g>
  <rect class="st14" x="-3.58" y="-85.838" width="400" height="400"/>
  <rect class="st14" x="-6.247" y="360.829" width="400" height="400"/>
  <metadata>
    <sfw xmlns="http://ns.adobe.com/SaveForWeb/1.0/">
      <slices/>
      <sliceSourceBounds x="-2051.88" y="-4498.52" width="4384.6" height="3952.85" bottomLeftOrigin="true"/>
      <optimizationSettings>
        <targetSettings fileFormat="PNG24Format" targetSettingsID="0">
          <PNG24Format filtered="false" interlaced="false" matteColor="#FFFFFF" noMatteColor="false" transparency="true"/>
        </targetSettings>
      </optimizationSettings>
    </sfw>
  </metadata>
</svg>