<?xml version="1.0" encoding="UTF-8"?>
<svg id="Layer_1" xmlns="http://www.w3.org/2000/svg" version="1.1" viewBox="0 0 266.349 386.493">
  <!-- Generator: Adobe Illustrator 30.1.0, SVG Export Plug-In . SVG Version: 2.1.1 Build 136)  -->
  <defs>
    <style>
      .st0 {
        fill: #fff;
      }

      .st0, .st1, .st2, .st3, .st4, .st5, .st6, .st7, .st8, .st9, .st10, .st11, .st12, .st13, .st14 {
        fill-rule: evenodd;
      }

      .st1 {
        fill: #8964a2;
      }

      .st2 {
        fill: #c7c8c8;
      }

      .st3 {
        fill: #c38c34;
      }

      .st4 {
        fill: #b2832a;
      }

      .st5 {
        fill: #68388b;
      }

      .st6 {
        fill: #5b2282;
      }

      .st7 {
        fill: #727a7f;
      }

      .st8 {
        fill: #a0a7a9;
      }

      .st9 {
        fill: #595858;
      }

      .st11 {
        fill: #e0c040;
      }

      .st12 {
        fill: #333537;
      }

      .st13 {
        fill: #52595a;
      }

      .st14 {
        fill: #b3b3b4;
      }
    </style>
  </defs>
  <path class="st10" d="M7.374,78.789c-.296-.447-.582-.911-.864-1.372C1.393,68.986-.59,59.627.15,49.825c.655-8.666,3.446-17.208,7.533-24.849,3.224-6.031,7.688-12.317,12.919-16.763L29.695.482c.696-.59,1.661-.644,2.417-.133.753.509,1.066,1.425.776,2.288l-3.775,11.326c-1.435,4.303-2.669,8.713-3.395,13.195-1.227,7.607-1.025,15.833,3.523,22.379,4.79,6.895,13.658,11.191,21.242,14.267,5.463,2.215,11.06,4.098,16.657,5.947,1.479.487,2.958.972,4.438,1.462.904-.531,1.819-1.049,2.75-1.556,17.931-9.819,38.441-14.664,58.846-14.664s40.915,4.844,58.849,14.664c.928.508,1.842,1.025,2.746,1.556,1.479-.491,2.962-.975,4.441-1.462,5.594-1.849,11.188-3.732,16.654-5.947,7.584-3.076,16.449-7.372,21.242-14.267,1.331-1.916,2.32-4.017,2.992-6.249,2.797-9.275.111-20.392-2.864-29.324l-3.775-11.326c-.289-.862.024-1.778.777-2.288.756-.511,1.721-.457,2.417.133l9.097,7.73c5.227,4.446,9.688,10.732,12.916,16.763,4.091,7.641,6.881,16.183,7.534,24.849.74,9.803-1.244,19.162-6.357,27.593-.282.461-.571.924-.867,1.372-.965,11.766-2.599,23.407-6.938,34.545-2.605,6.683-5.977,12.589-10.058,17.803,2.958,9.786,4.656,20.18,5.083,30.991.195,4.784.138,9.574-.134,14.361,2.525,3.375,4.639,7.066,6.33,10.895,9.352,21.192,5.833,45.591-2.205,66.591-9.07,23.69-24.473,44.966-45.178,59.794-3.241,2.323-6.656,4.518-10.196,6.491.424.417.844.83,1.264,1.247,4.404,4.32,8.865,8.596,13.44,12.737,2.239,2.027,4.501,4.027,6.696,6.101,1.731,1.64,3.54,3.382,4.895,5.355,2.35,3.429,3.718,7.9.955,11.547-3.779,4.989-11.242,3.385-15.928.76-.709-.4-2.894-1.556-3.879-1.721-.286.256-.649.672-.84.884-.309.333-.619.669-.925.998-2.272,2.42-4.77,4.626-8.122,5.305-.881.178-1.741.235-2.582.182,3.012,2.36,4.454,6.327,3.869,10.334l-.417,2.851c-.141.988-.978,1.711-1.977,1.711h-2.881c-.682,0-1.361-.003-2.044-.007-.34,2.393-1.614,4.504-3.425,6.081l-1.567,1.368c-.595.514-1.375.639-2.098.333l-21.663-9.194c-2.535-.353-4.901-1.133-6.495-3.294-1.59-2.155-1.677-4.683-.982-7.157l-.414-6.118c-.733.387-1.489.743-2.286,1.042-3.567,1.338-7.883,1.445-11.524.195-3.644,1.251-7.96,1.143-11.527-.195-1.758-.659-3.308-1.587-4.898-2.558-.077-.05-.168-.104-.259-.158-.918.894-1.842,1.768-2.861,2.545-.511.387-1.025.736-1.546,1.042l-.286,4.206c.696,2.474.612,5.002-.982,7.157-1.597,2.161-3.957,2.941-6.495,3.294l-21.663,9.194c-.723.306-1.499.182-2.091-.333l-1.573-1.368c-1.812-1.577-3.083-3.688-3.426-6.081-.679.003-1.361.007-2.04.007h-2.884c-.998,0-1.832-.723-1.977-1.711l-.417-2.851c-.693-4.75,1.459-9.443,5.698-11.47-2.461-1.234-4.407-3.284-6.306-5.348-.192-.212-.555-.629-.837-.884-.985.165-3.173,1.321-3.886,1.721-4.686,2.625-12.146,4.229-15.921-.76-2.767-3.647-1.398-8.118.951-11.547,1.351-1.973,3.163-3.715,4.898-5.355,2.192-2.074,4.458-4.074,6.696-6.101,4.155-3.762,8.213-7.634,12.223-11.551-5.221-2.528-10.223-5.597-14.865-8.925-20.708-14.828-36.111-36.104-45.181-59.794-8.034-21-11.557-45.399-2.205-66.591,1.691-3.829,3.805-7.52,6.327-10.895-.269-4.787-.323-9.577-.131-14.361.427-10.811,2.125-21.205,5.083-30.991-4.081-5.214-7.449-11.12-10.055-17.803-4.343-11.137-5.974-22.779-6.942-34.545h0ZM184.709,361.374c-.551-.4-1.082-.847-1.587-1.324-.753-.713-1.819-1.893-2.713-2.383-.803-.44-1.778-.42-2.662-.343-.891.077-1.856.249-2.666.652-.773.387-1.402.935-2.024,1.536-.373.36-.729.716-1.096,1.066,2.303.027,4.602.108,6.902.242,1.903.114,3.91.242,5.846.555h0ZM96.872,357.478c-.373-.074-.753-.121-1.119-.155-.887-.077-1.859-.098-2.659.343-.898.491-1.963,1.671-2.716,2.383-.242.229-.487.45-.74.659,1.698-.074,3.395-.118,5.093-.134l2.262-1.829c-.04-.42-.077-.847-.121-1.267Z"/>
  <path class="st10" d="M136.751,359.667c-3.378,1.372-7.537,1.301-10.828.067-1.651-.619-3.059-1.479-4.552-2.39-.296-.182-1.123-.699-1.637-.908-.353.299-.75.719-1.002.961-.881.861-1.758,1.701-2.74,2.447-3.758,2.861-7.886,3.281-11.813.37-1.772-1.318-2.817-3.009-4.871-4.031-1.045-.518-2.229-.753-3.378-.854-3.651-.326-4.532.992-6.928,3.267-2.296,2.175-5.12,3.567-8.34,2.918-3.348-.679-5.759-3.291-7.971-5.698-.387-.417-1.045-1.17-1.553-1.435-1.133-.595-4.716,1.378-5.621,1.882-3.715,2.081-10.267,3.849-13.353-.222-2.205-2.908-.82-6.538,1.012-9.211,1.234-1.798,3.035-3.533,4.619-5.033,2.182-2.061,4.438-4.054,6.666-6.068,4.592-4.162,9.073-8.458,13.494-12.798,9.577-9.396,19.014-19.081,28.181-28.883l1.526-1.63,29.089,11.006,29.085-11.006,1.526,1.63c9.167,9.803,18.607,19.487,28.181,28.883,4.421,4.34,8.902,8.636,13.494,12.798,2.229,2.014,4.485,4.007,6.666,6.068,1.583,1.499,3.385,3.234,4.619,5.033,1.832,2.672,3.217,6.303,1.012,9.211-3.086,4.071-9.638,2.303-13.356.222-.898-.504-4.488-2.477-5.614-1.882-.511.266-1.17,1.019-1.556,1.435-.303.329-.605.662-.911.988-1.953,2.077-4.169,4.125-7.06,4.71-3.22.649-6.044-.743-8.34-2.918-2.4-2.276-3.278-3.594-6.925-3.267-1.153.101-2.336.336-3.378.854-2.054,1.022-3.099,2.713-4.874,4.031-2.343,1.738-5.046,2.461-7.9,1.667-1.435-.4-2.733-1.14-3.913-2.037-.982-.746-1.859-1.587-2.74-2.447-.252-.242-.652-.662-.998-.961-.518.208-1.345.726-1.64.908-1.489.911-2.901,1.772-4.552,2.39-3.295,1.234-7.45,1.304-10.825-.067Z"/>
  <path class="st13" d="M136.751,355.939s-4.269,2.693-9.655.676c-3.509-1.318-5.859-4.034-8.186-3.536-2.306.491-6.623,9.003-12.744,4.458-1.536-1.14-2.656-2.982-5.375-4.337-1.15-.571-2.602-1.015-4.569-1.187-5.446-.487-7.436,2.192-9.517,4.169-4.922,4.669-8.407.817-11.561-2.615-2.424-2.642-4.145-4.189-11.255-.208-6.078,3.405-12.563,2.067-7.964-4.639,1.664-2.427,5.843-6.058,10.771-10.515,17.736-16.055,41.876-41.876,41.876-41.876l28.178,10.667,28.178-10.667s24.133,25.821,41.873,41.876c4.928,4.458,9.107,8.088,10.771,10.515,4.595,6.707-1.882,8.044-7.964,4.639-7.11-3.98-8.831-2.434-11.255.208-3.157,3.432-6.636,7.285-11.561,2.615-2.084-1.977-4.071-4.656-9.517-4.169-1.967.172-3.419.615-4.569,1.187-2.723,1.355-3.836,3.197-5.375,4.337-6.122,4.545-10.438-3.967-12.748-4.458-2.319-.498-4.673,2.219-8.182,3.536-5.385,2.017-9.651-.676-9.651-.676Z"/>
  <path class="st12" d="M57.395,346.916c2.098-2.286,5.473-5.248,9.302-8.713,9.591-8.68,21.044-20.207,29.546-28.971,6.723-6.387,11.843-11.416,13.067-12.627l27.441,10.388,27.438-10.388c1.227,1.21,6.343,6.243,13.067,12.627,8.502,8.764,19.958,20.294,29.546,28.971,3.829,3.466,7.204,6.428,9.302,8.713-.454,2.444-4.895,2.464-9.137.266-6.851-3.55-8.508-2.168-10.845.185-3.042,3.062-6.397,6.498-11.144,2.333-2.007-1.765-3.923-4.148-9.171-3.718-1.893.155-3.295.551-4.404,1.059-2.622,1.207-3.698,2.854-5.177,3.869-5.906,4.051-10.061-3.536-12.287-3.977-2.239-.444-4.505,1.98-7.886,3.15-5.19,1.805-9.302-.598-9.302-.598,0,0-4.111,2.404-9.305.598-3.382-1.17-5.651-3.593-7.89-3.15-2.222.44-6.381,8.028-12.284,3.977-1.479-1.015-2.555-2.662-5.18-3.869-1.106-.508-2.504-.904-4.401-1.059-5.248-.43-7.164,1.953-9.171,3.718-4.747,4.165-8.102.729-11.14-2.333-2.34-2.353-4.001-3.735-10.845-.185-4.243,2.198-8.687,2.178-9.14-.266Z"/>
  <path class="st10" d="M137.245,358.06c0,.37-.299.669-.669.669-.366,0-.666-.299-.666-.669v-24.164c0-.37.299-.666.666-.666.37,0,.669.296.669.666v24.164Z"/>
  <g>
    <g>
      <path class="st10" d="M72.157,352.237c-.225.286-.642.336-.931.108-.286-.225-.336-.649-.108-.935l20.14-25.337c.229-.289.645-.336.934-.104.286.225.333.645.108.931l-20.143,25.337Z"/>
      <path class="st10" d="M92.384,353.747c-.148.336-.541.484-.877.336-.336-.151-.484-.545-.336-.881l9.527-21.34c.148-.336.541-.487.874-.34.336.151.487.545.336.881l-9.524,21.343Z"/>
      <path class="st10" d="M119.428,353.71c-.037.366-.36.635-.723.602-.366-.03-.635-.356-.602-.723l1.94-20.634c.03-.366.353-.635.719-.602.366.03.635.353.602.719l-1.936,20.637Z"/>
    </g>
    <g>
      <path class="st10" d="M201.82,351.131c.229.289.181.706-.104.935-.289.229-.709.182-.938-.108l-19.918-25.058c-.229-.286-.178-.706.108-.931.286-.232.706-.185.935.104l19.918,25.058Z"/>
      <path class="st10" d="M181.989,353.202c.151.336-.003.73-.34.881-.333.148-.726,0-.874-.336l-9.527-21.343c-.148-.336.003-.73.336-.881.336-.148.729.003.877.34l9.527,21.34Z"/>
      <path class="st10" d="M155.055,353.589c.034.366-.239.692-.602.723-.366.034-.689-.235-.723-.602l-1.94-20.637c-.034-.366.239-.689.602-.719.363-.034.689.235.723.602l1.94,20.634Z"/>
    </g>
  </g>
  <g>
    <g>
      <path class="st10" d="M113.357,366.908c.605,1.936.716,3.997-.571,5.742-1.301,1.758-3.375,2.279-5.419,2.538l-21.911,9.298-1.573-1.368c-1.456-1.267-2.498-2.962-2.763-4.895-.077-.582-.087-1.146-.027-1.691-1.331.013-2.659.02-3.987.02h-2.884l-.413-2.854c-.635-4.34,1.573-8.707,6.014-9.897,2.383-.639,5.318-.837,7.786-.985,2.595-.155,5.227-.235,7.839-.252l3.634-2.931c0-.013-.007-.027-.007-.027-.128-1.503-.272-2.995-.42-4.488-.773-7.819-1.603-15.635-2.424-23.451l-.42-3.987,20.079,1.587-2.531,37.641Z"/>
      <g>
        <path class="st11" d="M99.544,331.318c3.143,29.865,2.918,29.865,2.918,29.865l-5.836,4.716s-11.625-.037-15.941,1.123c-4.316,1.156-3.58,6.199-3.58,6.199,3.116,0,6.444-.044,9.981-.134-1.691,1.045-2.299,2.531-2.541,3.741-.293,1.486.276,2.686,1.526,3.775l20.436-8.673c3.19-.35,4.831-1.002,3.479-4.575l2.357-35.022-12.798-1.015Z"/>
        <path class="st3" d="M99.544,331.318c.612,5.819,1.096,10.498,1.479,14.27,4.525,2.138,6.72,1.405,6.72,1.405l-.793,21.521s-14.196,6.965-17.02,6.878c-2.82-.087-.615-4.938-.615-4.938l-12.085.303c-.293,1.321-.124,2.464-.124,2.464,3.116,0,6.444-.044,9.981-.134-1.691,1.045-2.299,2.531-2.541,3.741-.293,1.486.276,2.686,1.526,3.775l20.436-8.673c3.19-.35,4.831-1.002,3.479-4.575l2.357-35.022-12.798-1.015Z"/>
        <path class="st10" d="M82.255,376.24c2.182-5.812,7.937-6.945,13.665-6.865-4.367,1.587-9.984,2.528-11.379,7.419-.155.629-.79,1.015-1.422.864-.629-.151-1.015-.787-.864-1.419Z"/>
      </g>
    </g>
    <g>
      <path class="st10" d="M152.991,366.908c-.605,1.936-.716,3.997.572,5.742,1.301,1.758,3.375,2.279,5.419,2.538l21.915,9.298,1.57-1.368c1.456-1.267,2.498-2.962,2.763-4.895.081-.582.087-1.146.03-1.691,1.328.013,2.656.02,3.987.02h2.881l.417-2.854c.632-4.34-1.577-8.707-6.017-9.897-2.383-.639-5.318-.837-7.786-.985-2.595-.155-5.227-.235-7.836-.252l-3.634-2.931c0-.013.003-.027.003-.027.128-1.503.276-2.995.424-4.488.77-7.819,1.6-15.635,2.424-23.451l.417-3.987-20.079,1.587,2.531,37.641Z"/>
      <g>
        <path class="st11" d="M166.804,331.318c-3.143,29.865-2.918,29.865-2.918,29.865l5.836,4.716s11.625-.037,15.944,1.123c4.316,1.156,3.58,6.199,3.58,6.199-3.12,0-6.448-.044-9.984-.134,1.694,1.045,2.299,2.531,2.538,3.741.296,1.486-.269,2.686-1.523,3.775l-20.432-8.673c-3.194-.35-4.831-1.002-3.483-4.575l-2.356-35.022,12.798-1.015Z"/>
        <path class="st3" d="M166.804,331.318c-.612,5.819-1.096,10.498-1.479,14.27-4.525,2.138-6.72,1.405-6.72,1.405l.793,21.521s14.2,6.965,17.023,6.878c2.82-.087.615-4.938.615-4.938l12.082.303c.292,1.321.128,2.464.128,2.464-3.12,0-6.448-.044-9.984-.134,1.694,1.045,2.299,2.531,2.538,3.741.296,1.486-.269,2.686-1.523,3.775l-20.432-8.673c-3.194-.35-4.831-1.002-3.483-4.575l-2.356-35.022,12.798-1.015Z"/>
        <path class="st10" d="M184.094,376.24c-2.182-5.812-7.934-6.945-13.665-6.865,4.367,1.587,9.987,2.528,11.383,7.419.151.629.787,1.015,1.419.864.629-.151,1.019-.787.864-1.419Z"/>
      </g>
    </g>
  </g>
  <path class="st10" d="M45.122,165.365c3.627,7.964,7.187,15.965,10.724,23.972,7.692,17.42,15.238,34.921,22.506,52.523,3.93,9.507,7.779,19.051,11.473,28.648,3.227,8.387,6.364,16.842,9.174,25.377,1.98,6.001,4.054,12.542,5.133,18.771.635,3.657,1.489,10.119-3.193,11.551-4.864,1.486-11.863-.299-16.519-1.906-8.044-2.777-15.877-7.214-22.779-12.156-20.389-14.6-35.546-35.56-44.475-58.886-7.843-20.493-11.376-44.364-2.242-65.068,2.915-6.599,7.147-12.801,12.6-17.568,3.849-3.365,8.982-6.532,14.149-7.181l2.43-.306,1.019,2.229h0ZM224.679,163.443c5.164.649,10.297,3.816,14.149,7.181,5.453,4.767,9.685,10.969,12.6,17.568,9.134,20.705,5.601,44.576-2.245,65.068-8.929,23.327-24.086,44.287-44.475,58.886-6.902,4.942-14.734,9.379-22.779,12.156-4.656,1.607-11.655,3.392-16.519,1.906-4.68-1.432-3.826-7.893-3.194-11.551,1.079-6.229,3.157-12.771,5.133-18.771,2.81-8.535,5.947-16.99,9.174-25.377,3.695-9.597,7.547-19.141,11.473-28.648,7.271-17.602,14.815-35.103,22.506-52.523,3.536-8.008,7.096-16.008,10.727-23.972l1.015-2.229,2.434.306Z"/>
  <g>
    <path class="st7" d="M42.09,166.75c-14.264,1.795-42.781,30.537-21.81,85.316,20.97,54.788,67.943,74.545,79.688,70.951,11.742-3.59-57.878-156.267-57.878-156.267Z"/>
    <path class="st7" d="M224.262,166.75c14.26,1.795,42.777,30.537,21.807,85.316-20.97,54.788-67.943,74.545-79.685,70.951-11.742-3.59,57.878-156.267,57.878-156.267Z"/>
  </g>
  <path class="st10" d="M122.609,341.547c-1.725.612-3.348,1.301-5.117,1.835-2.696.82-5.466,1.314-8.29,1.298-8.602-.047-15.212-4.764-20.13-11.537-21.222-29.233-42.112-61.428-54.957-95.303-9.07-23.912-15.185-49.921-14.166-75.631,1.536-38.757,20.926-71.963,55.336-90.799,17.642-9.658,37.822-14.418,57.888-14.418s40.249,4.76,57.888,14.418c34.41,18.836,53.4,52.042,54.933,90.799,1.019,25.71-5.096,51.719-14.163,75.631-12.845,33.875-33.331,66.07-54.553,95.303-4.922,6.774-11.531,11.49-20.133,11.537-2.824.017-5.59-.477-8.29-1.298-1.768-.535-3.392-1.224-5.117-1.835-2.8-.992-18.324-.995-21.131,0Z"/>
  <path class="st7" d="M121.496,338.407c-4.602,1.63-18.227,8.616-29.727-7.224-262.19-361.143,345.005-361.143,82.811,0-11.504,15.84-25.125,8.855-29.727,7.224-3.516-1.25-19.787-1.267-23.357,0Z"/>
  <path class="st13" d="M31.904,123.64c21.054,39.637,40.478,42.868,70.874,63.485,38.864,26.359,21.928,26.359,60.792,0,30.4-20.617,49.823-23.848,70.871-63.485l-101.267,17.155-101.27-17.155Z"/>
  <path class="st13" d="M121.496,338.407c-4.602,1.63-18.227,8.616-29.727-7.224-16.644-22.923-29.751-44.377-39.832-64.393,2.763,2.958,5.392,4.881,7.244,4.659,4.411-.531,5.644-2.999,5.644-2.999,0,0,2.027,16.933,6.263,17.286,4.232.353,6.438-5.117,6.438-5.117,0,0,3.792,9.524,6.878,8.381,3.09-1.15,4.498-4.851,4.498-4.851,0,0,1.059,7.231,10.761,7.584,9.702.353,12.347-6.35,12.347-6.35,0,0,1.587,5.291,5.116,4.76,3.527-.524,6.878-5.994,6.878-5.994,4.78,13.379,13.551,13.42,18.341,0,0,0,3.355,5.469,6.881,5.994,3.527.531,5.113-4.76,5.113-4.76,0,0,2.646,6.703,12.348,6.35,9.702-.353,10.761-7.584,10.761-7.584,0,0,1.409,3.701,4.498,4.851,3.086,1.143,6.878-8.381,6.878-8.381,0,0,2.209,5.47,6.441,5.117,4.232-.353,6.259-17.286,6.259-17.286,0,0,1.237,2.467,5.648,2.999,1.849.222,4.478-1.701,7.241-4.659-10.082,20.015-23.189,41.469-39.832,64.393-11.504,15.84-25.125,8.855-29.727,7.224-3.516-1.25-19.787-1.267-23.357,0Z"/>
  <path class="st12" d="M79.529,313.652c1.076.679,2.111,1.301,3.109,1.869,5.359,7.187,9.675,7.954,10.872,7.745,1.876-.333-1.916-5.843-.521-6.575,1.261-.662,6.522,10.199,9.715,10.233,4.629.054.632-12.27,10.737-.504,3.049,3.55,10.579,8.34,8.129-.376-2.286-8.139,2.511,5.006,7.426,3.822,1.499-.36,2.921-2.414,3.674-7.792,0,0,.104.262.306.693.198-.43.303-.693.303-.693.753,5.379,2.175,7.433,3.674,7.792,4.915,1.183,9.712-11.961,7.426-3.822-2.451,8.717,5.083,3.926,8.129.376,10.105-11.766,6.112.558,10.737.504,3.197-.034,8.455-10.895,9.715-10.233,1.395.733-2.393,6.243-.521,6.575,1.197.208,5.513-.558,10.875-7.745,1.214-.693,2.481-1.462,3.806-2.313-3.937,5.886-8.112,11.88-12.539,17.975-11.504,15.84-25.125,8.855-29.727,7.224-3.516-1.25-19.787-1.267-23.357,0-4.602,1.63-18.227,8.616-29.727-7.224-4.316-5.943-8.391-11.786-12.24-17.531Z"/>
  <path class="st10" d="M133.174,124.262c1.953-1.133,3.93-2.236,5.9-3.335,7.392-4.118,14.865-8.108,22.369-12.028,30.053-15.692,60.755-30.353,91.592-44.428,1.096-.501,2.283-.397,3.274.286.992.682,1.513,1.755,1.435,2.955-.968,15.238-1.963,30.507-7.574,44.895-5.661,14.526-15.023,25.256-27.556,33.146-4.868,3.066-26.147,10.562-34.935,12.7-8.572,2.081-15.749,11.08-23.727,14.842-5.1,2.403-19.599,9.13-22.533,14.021-1.755,2.928-3.506,5.859-5.268,8.784-.225.447-.551.837-.955,1.14-.578.447-1.284.686-2.024.682-.736.003-1.446-.235-2.024-.682-.403-.303-.729-.693-.955-1.14-1.761-2.925-3.513-4.922-5.268-7.85-2.935-4.891-17.43-11.618-22.533-14.025-7.278-3.429-14.657-7.618-22.002-10.905-4.78-1.213-9.389-4.31-14.694-6.064-6.804-2.246-14.606-6.196-20.567-9.621-11.944-6.868-21.703-16.425-28.954-35.029-5.611-14.388-6.606-29.657-7.574-44.895-.077-1.2.444-2.272,1.435-2.955.995-.682,2.178-.787,3.274-.286,30.837,14.075,61.539,28.736,91.592,44.428,7.503,3.92,14.976,7.91,22.369,12.028,1.97,1.099,3.947,2.202,5.9,3.335Z"/>
  <g>
    <path class="st13" d="M11.929,67.504c1.536,24.157,3.069,52.247,27.815,71.402,8.71,6.74,18.607,15.689,33.492,23.068,23.905,11.847,34.387,9.066,54.55,23.629,1.244.898.292,3.318,1.079,4.085,4.424,4.323,4.31,4.975,4.31,4.898v-66.46s-38.619-22.903-121.245-60.621Z"/>
    <path class="st13" d="M254.42,67.504c-1.671,26.285-3.338,57.222-34.908,76.246-6.908,4.162-25.828,19.347-30.645,20.547-26.88,6.683-46.109,14.317-50.304,21.306l-5.389,8.982v-66.46s38.619-22.903,121.245-60.621Z"/>
  </g>
  <g>
    <path class="st10" d="M115.015,165.268c-.703-10.055-4.057-11.991-9.171-7.937-5.117,4.057-8.29,4.938-8.29,4.938l7.759-37.042s20.11,6.528,9.702,40.041Z"/>
    <path class="st0" d="M78.12,118.79c-8.754,1.674-16.082,11.016-16.997,22.365-1.543,19.182,22.658,29.368,38.333,19.706,5.991-3.698-.242-12.805-2.017-22.288-.094-4.158-1.103-7.974-2.804-11.137-1.983-6.471-3.997-11.221-3.997-11.221,0,0-6.128-.427-12.519,2.575Z"/>
    <path class="st2" d="M93.812,118.79c8.75,1.674,16.271,13.346,17,22.365.316,3.94-2.172,10.132-3.16,11.016-.306.279-1.664,4.125-1.21,1.983,1.93-9.161-11.292-28.346-28.621-28.393,1.802-5.601,3.476-9.547,3.476-9.547,0,0,6.125-.427,12.516,2.575Z"/>
    <path class="st10" d="M71.478,122.427c15.057-9.241,32.793.047,36.222,15.538.578,2.622.672,6.623.084,9.766-1.052,5.594-3.422,9.964-2.992,9.682,5.217-3.459,7.655-13.339,7.013-19.145-2.296-20.674-25.472-30.769-43.463-19.121-1.069.736-3.553,3.708-2.689,4.612.867.904,4.76-.598,5.826-1.331Z"/>
    <path class="st10" d="M89.899,115.811c11.507.777,20.688,12.072,20.51,25.226-.182,13.154-9.655,23.189-21.158,22.409-11.504-.78-20.688-12.072-20.506-25.226.178-13.154,9.651-23.186,21.155-22.409Z"/>
    <path class="st9" d="M103.39,146.264c.081-1.244-1.009-2.299-2.43-2.36-1.419-.064-2.632.894-2.709,2.135-.158,2.615-1.113,4.464-2.481,5.671-1.116.982-2.551,1.57-4.071,1.822-1.593.266-3.271.165-4.794-.239-1.94-.511-3.58-1.489-4.37-2.787-.669-1.096-2.229-1.506-3.486-.918s-1.735,1.96-1.066,3.056c1.459,2.393,4.232,4.138,7.423,4.982,2.286.598,4.817.75,7.234.346,2.484-.417,4.864-1.408,6.78-3.093,2.212-1.946,3.742-4.774,3.97-8.616Z"/>
    <path class="st10" d="M102.835,120.914c-9.813-7.9-25.112-8.633-31.627-7.486-6.508,1.143-13.921-.383-15.938-1.338-2.024-.955,1.345,5.917,6.508,7.443s-11.675.955-17.514-4.77c-5.836-5.725,2.249,16.6,14.371,16.025,12.126-.568,15.01-15.407,44.199-9.873Z"/>
    <path class="st0" d="M87.563,119.277c-5.177-.35-9.571,1.466-9.816,4.054-.239,2.592,3.758,4.975,8.942,5.325,5.177.35,9.571-1.466,9.813-4.054.245-2.588-3.758-4.975-8.939-5.325Z"/>
    <path class="st10" d="M68.351,127.163c-7.557,7.853-7.11,15.023-5.298,25.051-2.165-2.703-2.239-2.272-3.22-5.769-2.474-8.824-.232-15.934,5.328-22.799.972-.881,2.474-.807,3.355.161.881.972.81,2.474-.165,3.355Z"/>
  </g>
  <g>
    <path class="st10" d="M151.334,165.268c.706-10.055,4.058-11.991,9.171-7.937,5.116,4.057,8.29,4.938,8.29,4.938l-7.759-37.042s-20.11,6.528-9.702,40.041Z"/>
    <path class="st0" d="M188.228,118.79c8.754,1.674,16.086,11.016,16.997,22.365,1.546,19.182-22.661,29.368-38.333,19.706-5.991-3.698.242-12.805,2.02-22.288.091-4.158,1.099-7.974,2.797-11.137,1.987-6.471,4.001-11.221,4.001-11.221,0,0,6.128-.427,12.519,2.575Z"/>
    <path class="st2" d="M172.536,118.79c-8.754,1.674-16.27,13.346-17,22.365-.316,3.94,2.172,10.132,3.16,11.016.306.279,1.664,4.125,1.214,1.983-1.933-9.161,11.292-28.346,28.618-28.393-1.798-5.601-3.476-9.547-3.476-9.547,0,0-6.125-.427-12.516,2.575Z"/>
    <path class="st10" d="M194.871,122.427c-15.057-9.241-32.793.047-36.219,15.538-.582,2.622-.676,6.623-.087,9.766,1.056,5.594,3.422,9.964,2.995,9.682-5.217-3.459-7.658-13.339-7.016-19.145,2.293-20.674,25.471-30.769,43.463-19.121,1.066.736,3.557,3.708,2.689,4.612-.864.904-4.76-.598-5.826-1.331Z"/>
    <path class="st10" d="M176.449,115.811c-11.507.777-20.684,12.072-20.506,25.226.178,13.154,9.651,23.189,21.155,22.409,11.507-.78,20.688-12.072,20.506-25.226-.178-13.154-9.651-23.186-21.155-22.409Z"/>
    <path class="st9" d="M162.959,146.264c-.077-1.244,1.012-2.299,2.43-2.36,1.419-.064,2.635.894,2.709,2.135.161,2.615,1.113,4.464,2.484,5.671,1.113.982,2.545,1.57,4.068,1.822,1.597.266,3.271.165,4.794-.239,1.94-.511,3.58-1.489,4.37-2.787.669-1.096,2.229-1.506,3.49-.918,1.254.588,1.735,1.96,1.062,3.056-1.459,2.393-4.232,4.138-7.419,4.982-2.289.598-4.817.75-7.234.346-2.488-.417-4.871-1.408-6.781-3.093-2.215-1.946-3.745-4.774-3.973-8.616Z"/>
    <path class="st10" d="M163.513,120.914c9.813-7.9,25.115-8.633,31.623-7.486,6.515,1.143,13.924-.383,15.944-1.338,2.02-.955-1.348,5.917-6.512,7.443-5.164,1.526,11.675.955,17.514-4.77,5.836-5.725-2.246,16.6-14.371,16.025-12.122-.568-15.01-15.407-44.199-9.873Z"/>
    <path class="st0" d="M178.782,119.277c5.184-.35,9.577,1.466,9.819,4.054.242,2.592-3.762,4.975-8.939,5.325-5.18.35-9.574-1.466-9.816-4.054-.242-2.588,3.762-4.975,8.935-5.325Z"/>
    <path class="st10" d="M197.997,127.163c7.56,7.853,7.11,15.023,5.301,25.051,2.158-2.703,2.239-2.272,3.217-5.769,2.474-8.824.232-15.934-5.328-22.799-.972-.881-2.474-.807-3.355.161-.881.972-.807,2.474.165,3.355Z"/>
  </g>
  <path class="st10" d="M133.174,110.974c1.731-2.831,3.819-5.517,5.587-7.497,10.771-12.042,26.793-20.12,41.809-25.387,6.391-2.242,12.835-4.316,19.266-6.441,5.631-1.862,11.285-3.762,16.778-5.994,7.987-3.237,17.084-7.705,22.137-14.98,7.527-10.828,4.232-25.801.38-37.345l-3.775-11.326,9.097,7.732c5.009,4.256,9.366,10.418,12.452,16.183,3.95,7.392,6.67,15.672,7.302,24.053,1.819,24.14-13.712,40.253-34.501,49.756-12.216,5.584-24.611,10.508-37.382,14.667-4.253,1.382-8.525,2.669-12.805,3.953-3.187.958-6.404,1.909-9.537,3.029-10.028,3.583-17.188,10.687-19.679,21.182-.42,1.768-.437,4.034-.407,5.846.03,1.762.141,3.533.329,5.285.02.222.047.477.074.746h.608v6.666h-35.462v-6.666h.605c.03-.269.057-.524.077-.746.185-1.751.296-3.523.329-5.285.03-1.812.01-4.078-.41-5.846-2.494-10.495-9.651-17.598-19.679-21.182-3.133-1.119-6.347-2.071-9.537-3.029-4.279-1.284-8.552-2.572-12.801-3.953-12.774-4.159-25.169-9.083-37.382-14.667C15.855,90.225.324,74.113,2.146,49.973c.632-8.381,3.345-16.66,7.302-24.053,3.083-5.765,7.439-11.927,12.448-16.183l9.097-7.732-3.775,11.326c-3.849,11.544-7.147,26.517.38,37.345,5.056,7.275,14.153,11.742,22.137,14.98,5.493,2.232,11.151,4.132,16.778,5.994,6.431,2.125,12.875,4.199,19.266,6.441,15.02,5.268,31.035,13.346,41.806,25.387,1.775,1.98,3.859,4.666,5.591,7.497Z"/>
  <path class="st5" d="M133.174,157.771h-14.395c.397,0,1.738-10.808.511-15.981-2.77-11.665-10.781-19.615-21.801-23.552-11.184-3.994-28.816-7.534-59.458-21.538C-15.011,72.449,8.897,25.157,24.054,12.275c-16.67,50.015,17.43,53.804,60.624,68.958,43.191,15.158,48.495,37.752,48.495,37.752,0,0,5.308-22.594,48.499-37.752,43.191-15.154,77.292-18.943,60.621-68.958,15.158,12.882,39.069,60.174-13.974,84.425-30.645,14.005-48.277,17.545-59.461,21.538-11.02,3.937-19.031,11.887-21.8,23.552-1.227,5.174.118,15.981.514,15.981h-14.398Z"/>
  <path class="st6" d="M119.099,156.622c.511-2.915,1.177-10.684.192-14.832-2.77-11.665-10.781-19.615-21.801-23.552-11.184-3.994-28.816-7.534-59.458-21.538C-13.953,72.933,7.972,27.046,23.133,13.095c-7.423,10.902-16.812,31.109-7.13,48.284,10.935,19.404,27.868,30.692,69.849,41.981,41.981,11.289,47.975,27.519,47.272,40.216l-.706,12.7s-5.214.168-13.319.346h0ZM243.215,13.095c7.423,10.902,16.808,31.109,7.133,48.284-10.939,19.404-27.872,30.692-69.852,41.981-41.981,11.289-47.974,27.519-47.265,40.216l.703,12.7s5.214.168,13.319.346c-.511-2.915-1.177-10.684-.195-14.832,2.77-11.665,10.781-19.615,21.8-23.552,11.184-3.994,28.816-7.534,59.461-21.538,51.981-23.767,30.057-69.654,14.896-83.605Z"/>
  <path class="st1" d="M20.787,24.562c-7.258,38.488,24.54,42.865,63.892,56.671,43.191,15.158,48.495,37.752,48.495,37.752,0,0,5.308-22.594,48.499-37.752,39.352-13.806,71.146-18.183,63.888-56.671,4.996,12.3,9.712,32.121-12.552,43.698-26.46,13.756-55.74,16.933-76.199,31.398-20.459,14.462-23.636,25.397-23.636,25.397,0,0-3.174-10.935-23.636-25.397-20.459-14.465-49.742-17.642-76.199-31.398-22.264-11.578-17.548-31.398-12.553-43.698Z"/>
  <path class="st10" d="M135.39,141.353c2.901,2.578,6.001,4.78,9.026,7.187,2.689,2.145,5.328,4.511,6.861,7.651,3.15,6.451.323,13.806-2.656,19.743-1.869,3.728-3.839,7.456-6.014,11.019-1.237,2.03-2.588,4.101-4.108,5.93-1.274,1.533-3.16,3.533-5.325,3.533s-4.051-2-5.322-3.533c-1.523-1.829-2.871-3.899-4.111-5.93-2.175-3.563-4.142-7.291-6.014-11.019-2.978-5.937-5.806-13.292-2.656-19.743,1.536-3.14,4.172-5.507,6.865-7.651,3.025-2.407,6.122-4.609,9.023-7.187l2.215-1.967,2.215,1.967Z"/>
  <path class="st11" d="M133.174,143.844c-11.843,10.519-21.817,11.951-12.465,30.595,9.349,18.647,12.465,18.647,12.465,18.647,0,0,3.116,0,12.465-18.647,9.352-18.644-.622-20.076-12.465-30.595Z"/>
  <path class="st10" d="M198.303,271.423c.047,2.232-.783,13.238-5.389,12.885-.76-.061-1.479-.84-2.064-1.761-2.35-3.708-3.704-4.71-5.446.662-2.326,7.187-5.036,4.468-6.656,2.481-1.409-1.724-2.867-2.955-3.95.098-1.19,3.351-3.879,4.999-7.48,5.913,4.293.252,7.375-1.597,9.039-5.153,4.387,6.848,8.761,4.088,11.517-2.01,1.045,1.859,2.562,3.432,4.706,3.422,8.088-.034,9.957-11.914,10.051-17.413-.104-1.183-1.153-1.95-2.346-1.708-1.2.245-2.084,1.402-1.983,2.585Z"/>
  <path class="st10" d="M139.158,86.901c0,1.809-.494,3.748-1.103,5.439-.676,1.906-3.086,7.534-5.52,7.534s-4.848-5.628-5.527-7.534c-.605-1.691-1.096-3.631-1.096-5.439,0-2.504,1.123-4.699,3.325-5.89,1.012-.545,2.155-.814,3.298-.814,3.788,0,6.622,2.777,6.622,6.703Z"/>
  <path class="st0" d="M138.482,85.358c0,4.451-4.232,11.241-5.947,11.241s-5.95-6.791-5.95-11.241c0-6.982,11.897-6.982,11.897,0Z"/>
  <path class="st10" d="M67.615,271.423c-.05,2.232.78,13.238,5.385,12.885.763-.061,1.483-.84,2.064-1.761,2.353-3.708,3.708-4.71,5.446.662,2.326,7.187,5.036,4.468,6.656,2.481,1.409-1.724,2.867-2.955,3.95.098,1.193,3.351,3.879,4.999,7.48,5.913-4.293.252-7.375-1.597-9.039-5.153-4.384,6.848-8.761,4.088-11.517-2.01-1.046,1.859-2.562,3.432-4.703,3.422-8.088-.034-9.957-11.914-10.051-17.413.101-1.183,1.153-1.95,2.35-1.708,1.193.245,2.081,1.402,1.98,2.585Z"/>
  <path class="st13" d="M35.02,236.7c2.662,14.613,1.701,26.857-3.755,37.698,14.129,22.977,32.733,37.096,47.41,43.964-17.128-25.176-32.511-52.264-43.224-80.522-.145-.38-.289-.76-.43-1.14Z"/>
  <path class="st13" d="M231.365,236.7c-2.666,14.613-1.698,26.857,3.755,37.698-14.132,22.977-32.736,37.096-47.41,43.964,17.128-25.176,32.514-52.264,43.228-80.522.145-.38.282-.76.427-1.14Z"/>
  <path class="st8" d="M22.108,250.819c-8.882-33.297-5.786-53.481-1.224-65.166-.057-.494-.114-.988-.165-1.486-8.31,14.153-12.331,36.841-.44,67.899,1.691,4.424,3.553,8.616,5.55,12.586-1.066-3.923-2.299-8.498-3.721-13.833Z"/>
  <path class="st8" d="M244.244,250.819c9.08-34.054,5.638-54.392.911-65.949.047-.424.094-.851.134-1.274,8.539,14.109,12.832,36.989.78,68.471-1.691,4.424-3.553,8.616-5.55,12.586,1.066-3.923,2.303-8.498,3.725-13.833Z"/>
  <path class="st8" d="M83.973,77.458c29.754-19.081,68.649-19.081,98.406,0,2.629-.908,5.268-1.792,7.91-2.662-34.498-19.292-79.729-19.292-114.23,0,2.642.871,5.281,1.755,7.913,2.662Z"/>
  <path class="st4" d="M133.174,161.103v31.983s.444,0,1.503-1.005c1.271-1.207,3.432-3.873,6.77-9.745,1.234-2.165,2.625-4.767,4.192-7.897,2.955-5.883,3.98-10.051,3.627-13.336-.219-2.061-.978-3.772-2.151-5.338-2.867-3.842-8.182-6.807-13.941-11.921v17.259Z"/>
  <path class="st8" d="M110.251,239.178c6.438,10.72,6.723,16.704-.534,27.189-7.107-10.596-6.525-16.889.534-27.189Z"/>
  <path class="st8" d="M84.975,250.587c5.157,8.589,5.385,13.379-.43,21.777-5.688-8.488-5.227-13.527.43-21.777Z"/>
  <path class="st8" d="M99.262,263.288c5.157,8.586,5.385,13.38-.427,21.777-5.691-8.488-5.231-13.527.427-21.777Z"/>
  <path class="st8" d="M156.097,239.178c-6.438,10.72-6.723,16.704.535,27.189,7.107-10.596,6.528-16.889-.535-27.189Z"/>
  <path class="st8" d="M181.377,250.587c-5.157,8.589-5.389,13.379.424,21.777,5.691-8.488,5.231-13.527-.424-21.777Z"/>
  <path class="st8" d="M167.087,263.288c-5.153,8.586-5.385,13.38.43,21.777,5.688-8.488,5.231-13.527-.43-21.777Z"/>
  <path class="st8" d="M122.326,256.282c5.308,8.848,5.547,13.783-.44,22.432-5.863-8.744-5.385-13.934.44-22.432Z"/>
  <path class="st8" d="M143.844,256.282c5.311,8.848,5.547,13.783-.44,22.432-5.859-8.744-5.385-13.934.44-22.432Z"/>
  <g>
    <path class="st8" d="M54.326,240.27c6.932,7.009,8.266,11.54,4.666,20.923-7.419-6.791-8.149-11.719-4.666-20.923Z"/>
    <path class="st8" d="M212.022,240.27c-6.932,7.009-8.266,11.54-4.663,20.923,7.416-6.791,8.145-11.719,4.663-20.923Z"/>
  </g>
  <g>
    <path class="st10" d="M43.7,269.645c1.24,2.4,4.35,9.318,1.805,10.979-.417.276-1.214-.252-2.014-.992-3.22-2.975-4.461-3.459-2.417,3.136,1.298,4.192,1.331,6.001.807,6.589-1.012,1.126-.568,4.656,1.287,3.042,1.23-1.072,1.019-4.676-.111-9.285,1.55,1.546,3.18,2.578,4.269,1.617,4.108-3.631.524-11.87-2.427-17.877-.699-1.237-1.651-1.597-2.128-.8-.477.793.229,2.35.928,3.59Z"/>
    <path class="st10" d="M222.652,269.645c-1.24,2.4-4.35,9.318-1.812,10.979.424.276,1.213-.252,2.02-.992,3.22-2.975,4.458-3.459,2.414,3.136-1.298,4.192-1.331,6.001-.803,6.589,1.009,1.126.565,4.656-1.287,3.042-1.234-1.072-1.022-4.676.108-9.285-1.55,1.546-3.18,2.578-4.269,1.617-4.108-3.631-.521-11.87,2.43-17.877.696-1.237,1.647-1.597,2.125-.8.481.793-.225,2.35-.924,3.59Z"/>
  </g>
  <path class="st12" d="M78.675,318.362c-11.964-17.588-23.078-36.111-32.346-55.31-.437,1.445-1.213,2.531-1.956,3.076.182.192.36.434.528.726,2.951,6.007,6.535,14.247,2.427,17.877-1.089.961-2.72-.071-4.269-1.617.888,3.624,1.21,6.626.706,8.266,11.568,13.211,24.275,21.999,34.911,26.981Z"/>
  <path class="st12" d="M187.707,318.362c11.964-17.588,23.078-36.111,32.346-55.31.434,1.445,1.214,2.531,1.96,3.076-.185.192-.363.434-.531.726-2.951,6.007-6.535,14.247-2.427,17.877,1.089.961,2.719-.071,4.266-1.617-.888,3.624-1.207,6.626-.706,8.266-11.568,13.211-24.268,21.999-34.908,26.981Z"/>
  <path class="st8" d="M28.599,169.716c.155-11.591,1.472-22.049,3.926-31.378-1.24-1.19-2.447-2.451-3.62-3.802-3.278,11.601-4.841,24.56-4.29,38.881.061,1.566.148,3.15.259,4.75,1.069,15.319,4.508,32.134,10.781,50.439-4.542-20.224-6.871-38.373-7.06-54.456-.017-1.493-.017-2.972.003-4.434Z"/>
  <path class="st8" d="M237.749,169.716c-.158-11.995-1.567-22.779-4.189-32.353,1.261-1.177,2.477-2.404,3.641-3.678,3.442,11.816,5.096,25.061,4.535,39.732-.064,1.566-.151,3.15-.262,4.75-1.069,15.319-4.508,32.134-10.781,50.439,4.541-20.224,6.871-38.373,7.059-54.456.017-1.493.017-2.972-.003-4.434Z"/>
  <path class="st14" d="M138.187,83.573c-1.651,6.938-9.655,6.938-11.305,0-.192.531-.296,1.129-.296,1.785,0,4.451,4.236,11.241,5.95,11.241s5.947-6.791,5.947-11.241c0-.656-.104-1.254-.296-1.785Z"/>
  <g>
    <path class="st7" d="M28.149,126.101c-8.935-15.343-6.996-27.764-6.996-27.764,0,0,7.033,3.143,17.45,6.7,1.062.36,2.155.726,3.278,1.096,8.502,2.767,18.782,5.621,29.196,7.318.024-.003.044-.01.061-.013-9.194-3.086-18.2-6.575-27.092-10.414-1.049-.454-2.091-.911-3.136-1.375-1.422-.629-2.844-1.271-4.263-1.919-9.241-4.222-17.444-9.756-23.545-16.714,1.52,15.107,4.777,30.665,14.751,43.91.78,1.029,1.593,2.044,2.454,3.046.471.548.955,1.092,1.452,1.63-.474-.642-.924-1.284-1.358-1.919-.82-1.207-1.57-2.404-2.252-3.58Z"/>
    <path class="st7" d="M238.136,126.101c8.935-15.343,6.992-27.764,6.992-27.764,0,0-7.029,3.143-17.447,6.7-1.059.36-2.155.726-3.281,1.096-8.498,2.767-18.775,5.621-29.193,7.318-.024-.003-.04-.01-.064-.013,9.197-3.086,18.207-6.575,27.095-10.414,1.049-.454,2.091-.911,3.136-1.375,1.425-.629,2.844-1.271,4.263-1.919,9.245-4.222,17.447-9.756,23.545-16.714-1.523,15.107-4.777,30.665-14.751,43.91-.777,1.029-1.593,2.044-2.451,3.046-.474.548-.958,1.092-1.452,1.63.471-.642.921-1.284,1.355-1.919.82-1.207,1.567-2.404,2.252-3.58Z"/>
  </g>
  <metadata>
    <sfw xmlns="http://ns.adobe.com/SaveForWeb/1.0/">
      <slices/>
      <sliceSourceBounds x="-2051.88" y="-4498.52" width="4384.6" height="3952.85" bottomLeftOrigin="true"/>
      <optimizationSettings>
        <targetSettings fileFormat="PNG24Format" targetSettingsID="0">
          <PNG24Format filtered="false" interlaced="false" matteColor="#FFFFFF" noMatteColor="false" transparency="true"/>
        </targetSettings>
      </optimizationSettings>
    </sfw>
  </metadata>
</svg>