<?xml version="1.0" encoding="UTF-8"?>
<svg id="Layer_1" xmlns="http://www.w3.org/2000/svg" version="1.1" viewBox="0 0 410.493 740.642">
  <!-- Generator: Adobe Illustrator 30.1.0, SVG Export Plug-In . SVG Version: 2.1.1 Build 136)  -->
  <defs>
    <style>
      .st0 {
        fill: #735834;
      }

      .st0, .st1, .st2, .st3, .st4, .st5, .st6, .st7, .st8, .st9, .st10, .st11, .st12, .st13 {
        fill-rule: evenodd;
      }

      .st1 {
        fill: #efde97;
      }

      .st2 {
        fill: #908d84;
      }

      .st3 {
        fill: #fff;
      }

      .st4 {
        fill: #302f2f;
      }

      .st5 {
        fill: #74716d;
      }

      .st14 {
        fill: none;
      }

      .st6 {
        fill: #bdbab8;
      }

      .st7 {
        fill: #c7c8c8;
      }

      .st8 {
        fill: #b2832a;
      }

      .st9 {
        fill: #5d4728;
      }

      .st10 {
        fill: #595858;
      }

      .st12 {
        fill: #49361f;
      }

      .st13 {
        fill: #e0c040;
      }
    </style>
  </defs>
  <g>
    <path class="st11" d="M72.697,232.509c-2.877-1.525-6.019-2.795-9.789-4.052-12.741-4.246-21.921-11.98-25.305-24.464-6.871-3.865-12.809-7.961-15.305-11.642-4.959-7.308-4.632-18.149-3.659-26.58,1.277-11.06,4.048-21.998,6.904-32.739,2.096-7.887,4.338-15.735,6.394-23.633,1.116-4.27,2.219-8.561,3.065-12.897-11.528-2.074-23.985-9.546-29.08-20.102-1.602-3.318-2.742-6.861-3.588-10.444C.937,60.051.288,53.927.08,47.867c-.097-2.852-.13-5.722.04-8.572l.27-4.531c.04-.683.356-1.255.918-1.652.558-.397,1.204-.507,1.861-.319l4.364,1.25c5.993,1.712,12.211,2.481,18.326,3.615,5.175.96,10.24,2.18,15.078,4.302.165.072.33.145.493.218.158.072.314.145.468.216.163.077.323.151.481.228,7.177,3.472,12.69,9.686,16.043,16.848.545-.365,1.103-.721,1.672-1.07-1.747-7.087-3.601-14.145-5.572-21.17-.916-3.259-1.859-6.507-2.857-9.739-2.839-.431-5.351-1.793-6.544-4.665-1.009-2.439-.538-5.074.848-7.262.907-1.431,2.143-2.655,3.454-3.72,2.896-2.356,6.432-4.215,9.871-5.641,2.701-1.121,5.626-2.068,8.497-2.626,4.771-.929,11.081-.965,13.279,4.34.962,2.316.602,4.621-.529,6.682l18.392,30.962c6.97-1.152,13.734-1.854,19.695-2.202,6.974-.407,14.931-.468,23.046.081l13.885-30.937c-1.362-1.92-1.975-4.173-1.285-6.588.345-1.191.95-2.252,1.824-3.131,4.426-4.448,14.204-2.602,19.617-1.053,3.579,1.028,7.3,2.47,10.449,4.479.87.558,1.707,1.176,2.474,1.87,2.455,2.232,4.012,5.182,3.046,8.55-.855,2.989-3.193,4.63-5.968,5.381-.624,3.325-1.189,6.66-1.729,10.001-.723,4.516-1.406,9.038-2.037,13.571,3.267-5.403,7.671-9.895,13.411-13.363,1.971-1.189,4.026-2.224,6.144-3.123,13.279-5.647,27.861-5.783,41.555-9.697l4.364-1.244c.657-.189,1.303-.079,1.861.316.562.396.877.969.918,1.653l.272,4.529c.213,3.551.173,7.129.055,10.684-.257,7.552-1.053,15.186-2.782,22.548-2.199,9.399-6.28,19.599-14.274,25.538-6.919,5.14-15.085,9.434-23.541,11.536.481,1.659.929,3.327,1.351,5.003,2.888,11.455,6.375,22.748,9.444,34.157,2.096,7.794,4.085,15.63,5.593,23.561,1.211,6.363,2.331,13.384,1.879,19.864-1.053,15.129-21.515,28.015-33.833,34.917-2.187,6.05-4.048,12.224-5.832,18.405-3.417,11.813-6.471,23.728-9.4,35.668-3.817,15.527-6.07,31.463-6.929,47.424-1.56,29.064,1.435,60.052,10.982,87.643,7.803,22.55,21.071,45.379,42.238,57.675,8.614,5.006,18.006,7.924,27.927,8.823,6.896.628,13.819.943,20.737,1.325,6.456.352,12.919.782,19.32,1.758,6.39.972,12.64,2.503,18.7,4.768,18.799,7.029,34.207,19.06,45.453,34.46,2.147-.283,4.283-.646,6.382-1.101,6.643-1.45,14.622-4.265,18.814-9.935,2.195-2.977,3.648-6.43,3.542-10.174-.183-6.203-4.448-11.796-8.816-15.852-6.878-6.379-16.028-11.055-24.763-14.318-11.943-4.459-24.903-12.714-26.011-26.701-.209-2.639.033-5.278.675-7.847.099-.393.209-.789.323-1.182-2.041-1.563-3.887-3.388-5.48-5.469-4.445-5.821-6.287-13.081-5.531-20.337.76-7.289,3.579-13.991,8.691-19.295,9.15-9.495,22.943-11.96,35.572-10.26,5.142.692,12.644,1.228,17.371-1.246,2.782-1.457,4.169-3.771,5.41-6.557l3.3-7.434c.385-.861,1.222-1.362,2.162-1.292.936.072,1.692.69,1.942,1.597l2.162,7.842c5.054,18.313,1.075,37.453-10.647,52.369-7.884,10.031-19.214,16.659-32.111,17.1-2.364.077-4.745-.07-7.094-.437.962,2.918,3.105,5.48,5.322,7.594,3.167,3.017,7.638,5.146,11.646,6.816,5.392,2.25,10.952,4.063,16.406,6.148,8.394,3.215,16.902,7.124,23.325,13.58,8.008,8.045,10.82,18.245,10.277,29.384-.995,20.524-14.835,34.053-32.654,42.171-1.901.866-3.835,1.666-5.795,2.408.936,2.665,1.777,5.381,2.525,8.141,3.483,12.912,4.702,26.654,2.793,39.874.051.36.048.741-.004,1.119-.719,5.208-1.582,10.409-2.499,15.584-1.119,6.324-2.345,12.633-3.674,18.913-.675,3.186-1.376,6.364-2.114,9.532-7.322,31.399-16.85,63.176-30.463,92.45-1.971,4.243-4.192,8.621-6.874,12.46l-.778,1.119c-.316.448-.727.734-1.259.866l-1.138.283c-1.244.536-2.683.738-4.199.917-.04.004-.081.011-.121.015-4.188.752-8.684,1.16-12.908,1.13-2.433.136-4.874.22-7.311.246-7.608.081-20.575-.184-25.938-6.317-.991-1.134-1.688-2.448-2.077-3.901-1.252-4.713.914-10.093,3.278-14.123,1.993-3.395,5.648-8.354,9.326-10.126.077-7.631-.25-15.279-.727-22.884-.11-1.776-.231-3.549-.363-5.322-5.076,17.643-11.396,35.04-18.972,51.736-1.699,3.744-6.819,4.793-10.482,5.388-2.782.452-5.667.679-8.537.661-3.803.389-7.631.595-11.444.642-7.675.092-20.66-.323-26.059-6.5-.991-1.134-1.684-2.448-2.074-3.901-1.252-4.713.914-10.093,3.278-14.123,2.059-3.505,5.894-8.684,9.693-10.291.169-.073.338-.143.51-.206.125-5.582.198-11.169.238-16.747-4.969,13.411-10.783,26.543-17.331,39.199-2.206,4.268-4.709,8.68-7.656,12.479l-.804,1.031c-.323.418-.73.675-1.244.789l-1.274.29c-.209.048-.422.092-.635.139-1.101.375-2.338.547-3.63.697-.055.004-.103.011-.158.018-4.188.686-8.618,1.083-12.879,1.131-2.433.132-4.867.216-7.3.242-7.616.081-20.583-.184-25.941-6.317-.995-1.134-1.685-2.448-2.074-3.901-1.255-4.713.91-10.093,3.277-14.123,1.38-2.356,3.564-5.465,6.001-7.741.202-8.5-.187-17.041-.782-25.512-.334-4.735-.749-9.466-1.252-14.189-.169.572-.341,1.138-.518,1.703-6.089,19.867-13.954,39.459-23.449,57.946-.811,1.567-2.008,2.731-3.417,3.604-.918,1.281-2.287,2.114-3.898,2.342-7.663,1.083-15.514,1.685-23.251,1.765-7.616.077-20.572-.184-25.938-6.324-.991-1.134-1.685-2.448-2.074-3.901-1.252-4.713.914-10.093,3.278-14.123,1.319-2.246,3.369-5.182,5.667-7.417.283-8.812.4-17.628.437-26.441.066-16.013-.194-32.034-.932-48.033-.576-12.497-1.406-25.017-2.885-37.451-1.085-1.541-2.111-3.109-3.065-4.713-5.476-9.194-9.748-19.03-12.861-29.259-12.811-42.083-5.794-89.411,2.966-131.649,5.671-27.347,12.692-54.406,17.639-81.898,2.05-11.384,3.758-22.846,4.784-34.371,1.136-12.756,1.448-25.699.24-38.463-1.329-14.033-4.555-26.96-9.95-39.655Z"/>
    <path class="st11" d="M53.316,25.457c-2.569-.099-5.116-.908-6.177-3.467-.745-1.793-.334-3.665.672-5.258.774-1.219,1.872-2.287,2.988-3.193,2.705-2.2,6.12-3.986,9.332-5.318,4.423-1.835,16.27-5.862,18.924.532.87,2.099.163,4.116-1.075,5.808l23.365,39.333-35.884,17.698-1.053-4.544c-2.36-10.167-4.966-20.363-7.781-30.408-1.053-3.74-2.138-7.476-3.309-11.183Z"/>
    <path class="st0" d="M56.067,21.918c5.777,17.72,11.941,44.293,11.941,44.293l28.116-13.865-22.741-38.281c1.773-1.514,2.657-2.922,2.255-3.894-.857-2.065-7.166-1.408-14.092,1.464-6.926,2.872-11.849,6.874-10.991,8.935.466,1.131,2.573,1.446,5.52,1.028-.009.107-.013.213-.009.319Z"/>
    <path class="st12" d="M78.492,54.734l17.632-2.387-22.741-38.281c1.773-1.514,2.657-2.922,2.255-3.894-.534-1.286-3.18-1.514-6.768-.815,1.481,3.103-2.344,6.421-2.344,6.421,0,0,19.166,28.8,11.965,38.956Z"/>
    <path class="st11" d="M158.1,12.17c-1.431-1.534-2.36-3.45-1.729-5.652,1.908-6.658,14.138-4.004,18.74-2.687,3.34.958,6.933,2.344,9.873,4.221,2.661,1.699,5.604,4.459,4.602,7.979-.763,2.661-3.204,3.755-5.747,4.146-.734,3.815-1.391,7.653-2.008,11.49-1.652,10.297-3.083,20.73-4.265,31.096l-.529,4.634-37.668-13.492,18.729-41.735Z"/>
    <path class="st0" d="M180.705,16.978c-3.718,18.26-6.812,45.365-6.812,45.365l-29.516-10.57,18.234-40.624c-1.938-1.301-2.977-2.599-2.683-3.612.613-2.149,6.955-2.215,14.164-.149,7.208,2.063,12.556,5.478,11.939,7.625-.338,1.176-2.393,1.727-5.37,1.646.022.107.037.213.044.319Z"/>
    <path class="st12" d="M180.705,16.978c-3.718,18.26-6.812,45.365-6.812,45.365l-10.284-3.683c1.376-3.199-20.025-6.909-5.032-7.834,14.993-.923,14.923-37.657,16.56-37.165,1.641.49,4.023-1.556,4.309-4.355,4.309,1.899,7.032,4.14,6.584,5.707-.338,1.176-2.393,1.727-5.37,1.646.022.107.037.213.044.319Z"/>
    <path class="st11" d="M342.054,406.417c1.839-1.277,3.703-2.536,5.579-3.762,1.31-.859,2.643-1.718,4.001-2.499.528-.301,1.075-.606,1.63-.848,1.409-.617,3.01-.617,4.074.745.829,1.057.815,2.419.151,3.535-.209.349-.466.664-.73.965-.683.76-1.464,1.483-2.217,2.169-10.471,9.557-20.961,19.28-7.274,32.331,3.373,3.215,8.053,5.48,12.314,7.256,5.399,2.254,10.996,4.078,16.465,6.17,8.067,3.087,16.384,6.871,22.557,13.077,7.572,7.608,10.159,17.203,9.649,27.744-.958,19.713-14.376,32.541-31.381,40.288-6.405,2.914-13.235,5.098-20.095,6.643-2.995.675-6.214,1.318-9.271,1.652l-1.857.206-17.826-29.711,5.803.609c3.226.338,6.661.426,9.899.437,6.933.018,14.108-.503,20.887-1.982,7.212-1.571,15.555-4.617,20.102-10.772,2.503-3.388,4.092-7.274,3.968-11.536-.202-6.845-4.683-12.905-9.513-17.386-7.073-6.566-16.502-11.411-25.483-14.765-11.051-4.125-23.567-11.785-24.598-24.826-.8-10.082,5.718-19.159,12.901-25.531l.129-.11.139-.099Z"/>
    <path class="st13" d="M343.717,408.806c-16.946,15.022-18.098,34.666,10.783,45.449,28.889,10.783,45.449,30.427,32.353,48.147-13.096,17.717-53.538,13.477-53.538,13.477l13.87,23.112s56.232-6.162,58.155-45.834c1.927-39.672-43.518-36.203-60.082-51.997-16.56-15.79-1.541-28.5,7.318-36.585,8.86-8.093-8.86,4.232-8.86,4.232Z"/>
    <path class="st8" d="M352.18,538.198c13.807-2.599,51.589-12.648,53.16-45.042.874-17.937-7.946-27.057-19.397-33.124,33.638,26.36,10.629,65.166-30.75,63.958-1.472,5.259-2.455,9.98-3.013,14.208Z"/>
    <path class="st11" d="M213.206,549.01c1.196-14.795,8.082-29.3,22.88-34.515,13.984-4.933,28.742.804,39.059,10.607,15.063,14.318,21.24,36.16,22.506,56.328.984,15.665.176,31.454-1.883,47.005-1.912,14.442-4.904,28.756-8.713,42.817-5.278,19.504-12.207,39.121-20.564,57.539-1.285,2.833-6.096,3.689-8.842,4.136-4.272.694-8.886.837-13.18.323-10.937-1.303-19.775-7.128-19.306-19.243.444-11.477.609-23.002.65-34.486.062-16.024-.165-32.074-.819-48.088-.642-15.786-1.648-31.759-3.7-47.424-.844-6.456-1.879-12.952-3.34-19.302-1.064-4.61-2.419-9.565-4.423-13.866l-.407-.874.081-.958Z"/>
    <path class="st13" d="M216.832,549.304c14.362,30.812,13.165,134.035,11.965,164.847-.826,21.328,33.223,15.69,34.379,13.14,9.256-20.403,34.776-83.022,30.845-145.633-4.79-76.261-73.002-83.965-77.189-32.353Z"/>
    <path class="st8" d="M228.742,634.142c.349,9.297.551,18.557.65,27.402,16.175,3.388,32.497,3.377,35.873,12.461,3.197,8.603.114,32.097-8.53,55.381,3.586-.554,6.14-1.428,6.441-2.096,7.509-16.553,25.717-60.883,30.225-110.453-20.877-1.244-46.179,6.251-64.659,17.305Z"/>
    <path class="st11" d="M64.662,547.513c1.241-13.492,7.506-25.721,19.856-32.115,15.07-7.799,33.084-3.931,46.308,5.744,18.619,13.624,26.921,36.486,28.507,58.801,1.116,15.701.195,31.546-2.132,47.097-2.176,14.509-5.586,28.852-9.88,42.873-6.016,19.617-13.921,39.312-23.31,57.586-1.483,2.885-4.889,4.026-7.862,4.621-3.175.642-6.57.84-9.803.998-2.118.099-4.239.165-6.361.272-5.102.257-10.956.264-15.347-2.716-5.904-4.001-6.722-11.598-6.432-18.142.503-11.48.69-23.027.738-34.522.066-16.043-.191-32.115-.934-48.139-.729-15.742-1.874-31.715-4.19-47.31-.956-6.441-2.129-12.923-3.773-19.225-1.204-4.61-2.749-9.565-4.977-13.789l-.506-.954.099-1.079Z"/>
    <path class="st13" d="M68.285,547.847c16.267,30.812,14.909,134.035,13.554,164.847-.72,16.369,7.262,17.603,17.962,17.063,8.056-.407,19.119-.319,20.972-3.92,10.486-20.407,39.382-83.022,34.93-145.636-5.421-76.257-82.673-83.961-87.418-32.353Z"/>
    <path class="st8" d="M114.156,728.78c3.274-.514,5.814-1.384,6.618-2.944,8.32-16.201,28.246-58.996,33.884-107.271-12.64-9.73-32.779-16.861-64.255-18.894,15.789,38.13,33.121,29.659,33.51,55.85.312,21.203-3.417,49.985-9.756,73.258Z"/>
    <path class="st11" d="M209.932,94.96c.481,1.659.929,3.327,1.351,5.003,2.888,11.455,6.375,22.748,9.444,34.157,2.096,7.794,4.085,15.63,5.593,23.561,1.211,6.363,2.331,13.384,1.879,19.864-1.053,15.129-21.515,28.015-33.833,34.917-2.187,6.05-4.048,12.224-5.832,18.405-3.417,11.813-6.471,23.728-9.4,35.668-3.817,15.527-6.07,31.463-6.929,47.424-1.56,29.064,1.435,60.052,10.982,87.643,7.803,22.55,21.071,45.379,42.238,57.675,8.614,5.006,18.006,7.924,27.927,8.823,6.896.628,13.819.943,20.737,1.325,6.456.352,12.919.782,19.32,1.758,6.39.972,12.64,2.503,18.7,4.768,31.623,11.822,53.659,37.811,62.395,70.172,5.983,22.183,5.285,46.825-6.496,67.052-1.648,2.83-3.491,5.546-5.505,8.126-16.098,20.612-41.834,31.106-66.843,35.976-29.138,5.678-60.603,4.68-89.826.022-27.986-4.467-56.467-12.662-81.943-25.185-20.187-9.928-42.293-24.631-54.012-44.307-5.476-9.194-9.748-19.03-12.861-29.259-12.811-42.083-5.794-89.411,2.966-131.649,5.671-27.347,12.692-54.406,17.639-81.898,2.05-11.384,3.758-22.846,4.784-34.371,1.136-12.756,1.448-25.699.24-38.463-1.585-16.755-5.876-31.928-13.334-47.014-1.347-2.723-2.769-5.408-4.25-8.058-10.983-4.691-36.771-15.909-42.764-24.741-4.959-7.308-4.632-18.149-3.659-26.58,1.277-11.06,4.048-21.998,6.904-32.739,2.096-7.887,4.338-15.735,6.394-23.633,1.116-4.27,2.219-8.561,3.065-12.897-11.528-2.074-23.985-9.546-29.08-20.102-1.602-3.318-2.742-6.861-3.588-10.444C.937,60.051.288,53.927.08,47.867c-.097-2.852-.13-5.722.04-8.572l.27-4.531c.04-.683.356-1.255.918-1.652.558-.397,1.204-.507,1.861-.319l4.364,1.25c5.993,1.712,12.211,2.481,18.326,3.615,5.175.96,10.24,2.18,15.078,4.302.165.072.33.145.493.218.158.072.314.145.468.216.163.077.323.151.481.228,7.177,3.472,12.69,9.686,16.043,16.848,15.92-10.629,41.883-15.039,60.205-16.111,18.238-1.066,43.181.24,60.141,8.625,3.355-8.322,8.717-15.006,16.593-19.764,1.971-1.189,4.026-2.224,6.144-3.123,13.279-5.647,27.861-5.783,41.555-9.697l4.364-1.244c.657-.189,1.303-.079,1.861.316.562.396.877.969.918,1.653l.272,4.529c.213,3.551.173,7.129.055,10.684-.257,7.552-1.053,15.186-2.782,22.548-2.199,9.399-6.28,19.599-14.274,25.538-6.919,5.14-15.085,9.434-23.541,11.536Z"/>
    <path class="st11" d="M207.168,93.342c.73,2.364,1.391,4.753,1.997,7.153,2.885,11.44,6.383,22.787,9.451,34.192,2.081,7.726,4.063,15.544,5.56,23.403,1.149,6.05,2.275,13.141,1.85,19.302-.995,14.264-21.658,27.011-33.432,33.559-2.32,6.318-4.291,12.853-6.159,19.309-3.421,11.829-6.485,23.792-9.422,35.752-3.839,15.643-6.126,31.748-6.988,47.827-1.571,29.284,1.475,60.669,11.099,88.477,7.979,23.06,21.552,46.271,43.206,58.849,8.897,5.168,18.579,8.177,28.819,9.106,6.937.631,13.87.95,20.818,1.332,6.39.349,12.783.771,19.111,1.736,6.261.951,12.329,2.433,18.267,4.654,30.951,11.569,52.496,37,61.048,68.696,5.832,21.618,5.208,45.676-6.272,65.386-1.597,2.742-3.384,5.377-5.34,7.88-15.757,20.175-41.081,30.412-65.54,35.18-28.797,5.608-60.189,4.606-89.059.004-27.666-4.412-56.144-12.611-81.33-24.991-19.735-9.704-41.613-24.18-53.098-43.463-5.388-9.051-9.583-18.7-12.648-28.775-12.675-41.647-5.65-88.795,3.017-130.574,5.669-27.34,12.706-54.482,17.65-81.952,4.269-23.731,7.328-49.313,5.047-73.427-1.622-17.14-5.927-32.357-13.551-47.776-1.472-2.98-3.035-5.913-4.665-8.809-11.18-4.768-36.91-16.013-42.5-24.249-4.606-6.792-4.195-17.305-3.296-25.105,1.252-10.836,4.045-21.891,6.845-32.43,2.098-7.887,4.342-15.742,6.397-23.64,1.292-4.948,2.621-10.145,3.509-15.272-11.642-1.373-24.659-8.838-29.672-19.227-1.529-3.168-2.622-6.579-3.43-9.996-1.354-5.74-1.991-11.771-2.195-17.661-.095-2.747-.125-5.623.039-8.368l.27-4.531,4.364,1.248c10.983,3.14,22.447,3.136,33.124,7.816.158.07.316.138.47.209.15.068.297.136.444.206.152.07.305.143.457.216,7.493,3.624,13.059,10.493,16.046,18.227,15.606-11.778,43.669-16.248,61.279-17.276,17.808-1.042,44.374.16,61.191,9.53,3.035-8.774,8.229-15.956,16.546-20.979,13.995-8.453,31.762-8.187,47.17-12.589l4.364-1.246.268,4.529c.206,3.439.165,7.04.048,10.481-.246,7.377-1.035,14.933-2.716,22.124-2.074,8.847-5.917,18.684-13.455,24.281-7.208,5.357-15.988,9.882-25.002,11.672Z"/>
    <path class="st13" d="M69.162,212.51c17.823,31.261,26.751,63.747,14.193,133.518-13.866,77.03-49.305,170.236-8.475,238.797,40.824,68.557,241.878,104.76,288.094,25.42,10.754-18.461,11.635-41.371,5.906-62.604-9.594-35.569-33.825-56.897-58.812-66.237-18.333-6.856-34.945-5.48-57.245-7.506-76.264-6.929-100.91-120.935-79.344-208.751,7.322-29.81,12.512-47.007,16.175-56.728,17.254-9.484,31.997-20.627,32.739-31.278,1.189-17.129-11.591-55.256-16.759-75.756-.98-3.9-2.066-7.57-3.277-11.013,4.999-.462,15.452-2.566,27.644-11.622,17.1-12.705,14.659-53.749,14.659-53.749-23.908,6.83-54.434,2.78-62.589,35.723-26.841-19.562-105.219-13.719-126.452,8.574-1.782-8.39-7.159-17.265-15.775-21.432-.138-.066-.277-.132-.415-.196-.134-.062-.266-.125-.402-.187-.143-.062-.286-.127-.429-.191-10.255-4.496-21.959-4.592-32.665-7.649,0,0-1.239,20.821,5.234,34.229,4.808,9.968,18.586,17.184,29.806,17.393h.468l.035-.002h.011l.062-.002h.011l.037-.004h.059c.062-.004.095-.007.095-.007-3.215,25.743-26.213,80.764-14.633,97.831,4.412,6.504,25.78,16.511,42.045,23.429Z"/>
    <path class="st8" d="M80.03,235.058c9.95,25.908,12.952,57.484,3.325,110.97-13.866,77.03-49.305,170.236-8.475,238.797,35.781,60.09,194.653,95.317,264.472,49.677-8.375-.433,30.456-25.674-40.281-16.575-70.737,9.099-166.388,13.095-214.142-37.745-31.412-33.436-28.21-91.019-17.652-147.119,7.636-40.582,19.122-80.386,24.138-109.724,10.589-61.934-5.373-61.367,20.473-62.064,28.5-.771,40.057-20.799,49.299-47.759-28.254,9.207-55.329,15.989-81.157,21.543Z"/>
    <path class="st8" d="M170.307,280.07c.918-5.039,1.967-10.023,3.171-14.923,7.322-29.81,12.512-47.007,16.175-56.728,17.254-9.484,31.997-20.627,32.739-31.278.661-9.55-3.017-25.626-7.296-41.536,2.393,17.261,7.671,37.305-4.617,51.916-12.284,14.61-30.999,21.568-33.121,27.923-.173.519,2,5.994,1.087,12.89-1.868,14.035-7.458,36.371-8.137,51.736Z"/>
    <path class="st1" d="M168.307,54.061c-33.612-10.972-94.385-3.982-112.688,15.237-.143-.679-.312-1.362-.503-2.044-4.058,4.135-10.602,11.679-13.67,19.988-.528,1.428-1.002,2.756-1.422,3.988.317.017.633.028.949.035h.468l.035-.002h.011l.062-.002h.011l.037-.004h.059c.062-.004.095-.007.095-.007-3.215,25.743-26.213,80.764-14.633,97.831,2.364,3.485,9.594,7.974,18.298,12.457,1.613-1.119,2.577-1.831,2.577-1.831,0,0-17.333-10.4-19.645-20.412-2.309-10.014,7.706-38.518,13.866-67.788,4.94-23.457,12.068-36.317,25.811-44.831,24.473-15.16,63.235-13.586,100.283-12.615Z"/>
    <path class="st11" d="M145.056,594.103c.591-6.115,12.699,26.87,15.353,21.339,3.806-7.946,9.458-14.938,16.157-20.631,7.931-6.739,17.54-11.837,27.637-14.387,9.653-2.441,3.109-5.667,12.552-2.25,20.179,7.304,11.139-5.12,12.637,14.85.272,3.696-.558,14.696,1.975,17.048,1.563,1.45,3.399-5.138,7.344-4.217,1.607.374,1.042,2.899,1.042,4.412.004,10.934-8.42,43.482-11.697,54.294-6.052,19.948-14.138,39.727-23.721,58.251-2.066,3.989-4.672,8.57-7.447,12.141l-.8,1.035-1.274.283c-6.709,1.508-15.008,2.235-21.809,1.809-5.913-.363-12.505-1.699-17.191-5.553-1.127-.925-2.008-2.055-2.577-3.402-1.108-2.617-.8-5.439-.363-8.163.455-2.837.995-5.546,1.127-8.438.455-9.785.04-19.871-.65-29.637-.862-12.251-2.287-24.525-4.257-36.651-1.809-11.139-4.103-22.319-7.19-33.179-1.321-4.661,4.423-2.98,5.671-.338,1.109,2.338.073-12.629-2.081-16.501l-.547-.984.11-1.13Z"/>
    <path class="st13" d="M134.812,584.825c17.118,30.812,24.253,97.057,22.825,127.868-.393,8.431-3.494,13.749.484,17.026,10.581,8.691,35.892,3.002,35.892,3.002,0,0,3.259-4.188,7.087-11.583,12.501-24.158,38.655-82.548,34.288-140.938-5.707-76.257-95.585-46.99-100.576,4.625Z"/>
    <path class="st11" d="M295.614,604.718c3.223-11.359-4.364,18.704,7.487,9.664,6.203-4.731,13.36-8.405,20.928-10.354,7.201-1.853,14.817-2.132,22.022-.136,19.122,5.3-2.199-4.246-1.454,6.878.484,7.183,31.517-31.087,30.533-23.948-1.45,10.53-4.599,28.155-8.251,43.827-7.245,31.061-16.894,63.158-30.316,92.025-1.846,3.971-4.162,8.519-6.683,12.13l-.782,1.119-1.321.33c-6.082,1.52-13.789,2.268-19.981,1.817-5.524-.404-11.425-1.835-15.617-5.667-.907-.829-1.63-1.813-2.132-2.936-1.163-2.613-.921-5.476-.532-8.225.411-2.929.925-5.726,1.046-8.699.407-9.726.044-19.691-.562-29.399-.763-12.145-2.019-24.305-3.762-36.347-1.626-11.249-3.689-22.535-6.489-33.554-2.089-8.229,9.161,1.556,5.549-6.232-2.646-5.685,8.273-3.96,11.635-2.635,2.973,1.174-1.725,1.78-1.318.341Z"/>
    <path class="st13" d="M273.684,584.825c15.386,30.812,21.798,97.057,20.513,127.868-.349,8.431-3.142,13.749.437,17.026,9.506,8.691,32.262,3.002,32.262,3.002,0,0,2.929-4.188,6.368-11.583,6.375-13.716,16.711-38.468,23.736-67.984,4.845-20.352,13.378-47.317,14.945-72.631,1.237-20.095-2.019-39.169-14.241-52.951-7.895-8.897-22.579,37.602-42.307,48.014-21.233,11.205-39.72-13.694-41.713,9.238Z"/>
    <path class="st8" d="M305.069,734.095c10.123,1.552,21.827-1.373,21.827-1.373,0,0,2.929-4.188,6.368-11.583,6.375-13.716,16.711-38.468,23.736-67.984,4.845-20.352,13.378-47.317,14.945-72.631.121-2.048.202-4.085.231-6.111-3.329,39.129-30.36,112.175-49.85,139.32-6.581,9.165-12.442,15.672-17.258,20.363Z"/>
    <path class="st11" d="M391.203,361.43c4.87,17.661,1.035,36.068-10.258,50.441-7.484,9.521-18.219,15.848-30.47,16.259-9.972.338-20.337-3.542-26.507-11.624-4.136-5.414-5.803-12.039-5.102-18.784.712-6.805,3.318-13.055,8.093-18.01,8.651-8.976,21.794-11.213,33.708-9.609,5.63.758,13.448,1.261,18.678-1.474,3.259-1.707,4.94-4.342,6.39-7.607l3.303-7.434,2.165,7.842Z"/>
    <path class="st0" d="M388.395,362.205c-3.079,6.933-8.086,13.481-28.118,10.785-20.025-2.696-36.589,6.546-38.512,25.033-2.789,26.764,35.605,39.129,56.889,12.049,9.121-11.605,15.019-28.731,9.741-47.868Z"/>
    <path class="st12" d="M388.395,362.205c-.305.686-.628,1.373-.987,2.044-.47,2.096-1.039,3.986-1.688,5.707-2.118,9.946-12.89,10.42-30.03,16.494-17.144,6.071-17.14,15.213-17.14,15.213,0,0-10.372-2.011,3.648-15.162-6.691.976-17.471,6.067-18.623,23.673,7.829,17.654,37.371,22.425,55.08-.103,9.121-11.605,15.019-28.731,9.741-47.868Z"/>
    <path class="st11" d="M81.201,703.576c1.476-.624,3.028-1.035,4.617-1.233,19.985-2.488,26.525,15.613,33.304,28.489.569,1.083,2.499-1.585,1.942-.499-.554,1.09-1.52,1.776-2.727,1.949-7.458,1.053-15.463,1.666-22.968,1.743-6.724.07-19.493-.11-24.271-5.579-3.836-4.386-1.09-11.161,1.442-15.481,1.762-2.999,5.377-7.997,8.662-9.389Z"/>
    <path class="st10" d="M82.617,706.931c12.842-5.439,28.969,9.943,34.776,20.976,0,0-36.688,6.005-43.557-1.853-4.039-4.621,5.236-17.621,8.781-19.122Z"/>
    <path class="st4" d="M98.183,708.678c8.376,4.43,15.911,12.563,19.5,19.372,0,0-26.323,4.36-38.696.789,26.543-.202,27.255-11.818,19.195-20.161Z"/>
    <path class="st11" d="M156.496,708.01c1.475-.628,3.028-1.042,4.621-1.241,14.707-1.828,26.341,14.211,31.539,25.876.488,1.09.995-.896,2.096-.595,1.274.349,2.25.719,1.611,2.217-1.028,2.4-3.391,2.547-5.586,2.804-6.643.782-13.426,1.307-20.109,1.376-6.72.07-19.5-.11-24.271-5.572-3.835-4.39-1.094-11.165,1.442-15.481,1.758-2.999,5.373-7.997,8.658-9.385Z"/>
    <path class="st10" d="M157.917,711.357c11.337-4.801,25.578,7.234,32.75,17.713,2.852,4.162,3.586,3.927-.316,4.386-8.739,1.031-35.491,3.575-41.217-2.973-4.037-4.621,5.237-17.621,8.783-19.126Z"/>
    <path class="st4" d="M173.875,713.317c6.636,3.63,12.806,9.928,16.792,15.753,2.852,4.162,3.586,3.927-.316,4.386-7.109.837-26.121,2.679-36.057-.187,26.503-.147,27.443-11.605,19.581-19.952Z"/>
    <path class="st11" d="M223.706,703.576c7.183-3.039,16.369-.44,23.038,2.833,7.095,3.491,16.564,13.349,15.837,22.033-.099,1.16-2.555,1.263-2.958,2.408-.723,2.052,1.571.631-.323,1.119-1.798.462-3.692.778-5.531,1.042-5.179.745-10.548,1.127-15.782,1.189-6.794.081-19.559-.239-24.385-5.755-3.835-4.386-1.09-11.161,1.446-15.481,1.758-2.999,5.373-7.997,8.658-9.389Z"/>
    <path class="st10" d="M225.123,706.931c12.842-5.439,38.655,11.356,35.4,20.59-.716,2.03-37.308,6.39-44.179-1.468-4.041-4.621,5.234-17.621,8.779-19.122Z"/>
    <path class="st4" d="M242.212,708.366c10.655,4.316,22.807,13.345,20.528,19.155-.591,1.501-16.92,3.417-29.322,2.995,21.064-2.474,18.406-14.666,8.794-22.15Z"/>
    <path class="st11" d="M289.76,708.01c1.475-.628,3.028-1.042,4.621-1.241,18.502-2.305,25.64,13.694,33.051,25.303.888,1.387,2.907.532,2.195,2.195-1.028,2.4-3.391,2.547-5.586,2.804-6.64.782-13.426,1.307-20.109,1.376-6.72.07-19.496-.11-24.271-5.572-3.839-4.39-1.094-11.165,1.442-15.481,1.758-2.999,5.373-7.997,8.658-9.385Z"/>
    <path class="st10" d="M291.177,711.357c11.341-4.801,25.578,7.234,32.754,17.713,2.848,4.162,3.586,3.927-.316,4.386-8.743,1.031-35.491,3.575-41.217-2.973-4.041-4.621,5.234-17.621,8.779-19.126Z"/>
    <path class="st4" d="M306.184,712.814c6.999,3.527,15.834,9.866,20.01,15.966,2.848,4.162,1.321,4.217-2.58,4.676-6.008.708-20.52,2.132-30.867.829,23.765-1.446,22.502-13.54,13.437-21.471Z"/>
    <path class="st11" d="M169.276,87.165c-2.65.088-5.329.057-7.983-.07-2.448-.117-4.981-.312-7.392-.747-1.773-.321-4.279-.89-5.454-2.36-1.23-1.543-1.883-3.437-1.674-5.417.29-2.749,2.125-4.951,4.489-6.252,2.888-1.593,6.364-1.819,9.568-1.286,3.825.635,7.814,2.173,10.893,4.571,2.371,1.846,4.834,4.801,4.151,8.03-.785,3.696-3.549,3.432-6.599,3.531Z"/>
    <path class="st0" d="M173.783,82.173c-.393-3.487-6.06-7.785-13.308-8.987-9.183-1.525-13.987,4.839-10.321,9.438,1.857,2.327,14.843,2.61,20.374,2.301,1.942-.106,3.553-.088,3.255-2.753Z"/>
    <path class="st11" d="M60.607,88.196c-1.121-2.69.363-5.632,2.044-7.717,2.114-2.619,5.138-4.766,8.141-6.249,3.12-1.541,6.737-2.026,10.057-.844,2.749.976,5.138,3.123,5.751,6.06.183.863.191,1.751.033,2.621-.804,4.397-7.715,6.54-11.418,7.484-2.437.617-5.006,1.086-7.509,1.312-2.909.263-5.792.464-7.098-2.666Z"/>
    <path class="st0" d="M62.534,87.106c-.907-2.958,3.046-7.869,9.227-10.919,7.072-3.491,13.58.796,12.725,5.487-.72,3.94-11.07,6.482-16.995,7.016-1.661.149-4.259.692-4.957-1.584Z"/>
    <path class="st11" d="M67.72,167.362c6.768-10.304,16.153-18.555,27.986-22.589,9.344-3.184,20.216-3.566,29.447.226,6.32,2.597,11.921,6.838,16.571,11.802,1.472,1.571,3.046,3.404,4.401,5.267,6.507-1.341,14.45-1.429,20.407.411,1.868.576,3.667,1.354,5.337,2.375,8.768,5.359,12.615,11.301,12.538,20.06-.095,11.016-6.926,18.089-14.248,25.661-1.101,1.138-2.386,2.507-3.09,3.933-5.667,11.42-12.321,24.152-22.888,31.768-8.566,6.173-18.351,8.038-28.753,7.219-10.258-.807-21.926-6.621-29.333-13.69-7.374-7.038-12.974-10.244-22.495-13.418-13.483-4.492-22.818-12.991-24.835-27.654-1.384-10.066,2.371-19.392,10.372-25.639,4.838-3.778,12.176-6.794,18.585-5.731Z"/>
    <path class="st2" d="M69.39,171.654c-9.246-3.854-29.709,6.601-26.964,26.575,2.118,15.406,13.097,21.568,22.339,24.65,9.247,3.081,15.408,6.164,23.882,14.25,5.111,4.88,15.87,11.8,27.068,12.681,26.804,2.109,37.415-15.525,48.036-36.945,2.723-5.493,8.445-9.528,12.534-15.423,4.672-6.726,6.893-16.013,1.42-22.928-1.967-2.485-4.691-4.626-7.77-6.507-9.913-6.058-25.446-1.745-25.446-1.745,0,0-7.608-12.444-20.744-17.841-8.754-3.597-21.298-3.641-33.223,2.591-7.7,4.024-15.14,10.66-21.133,20.644Z"/>
    <path class="st5" d="M45.443,208.016c4.401,8.464,12.356,12.539,19.322,14.863,9.247,3.081,15.408,6.164,23.882,14.25,5.111,4.88,15.87,11.8,27.068,12.681,26.804,2.109,37.415-15.525,48.036-36.945,2.723-5.493,8.445-9.528,12.534-15.423,4.672-6.726,6.893-16.013,1.42-22.928-1.967-2.485-4.691-4.626-7.77-6.507-2-1.222-4.228-2.02-6.507-2.52,10.262,6.226,4.5,12.956-9.99,27.709-6.779,6.9-18.417,17.815-31.572,21.603-26.745,7.7-60.37,2.844-76.424-6.783Z"/>
    <path class="st6" d="M69.39,171.654c-9.246-3.854-29.709,6.601-26.964,26.575.127.912.283,1.793.47,2.641-.117-15.033,9.803-23.596,18.674-25.813,10.014-2.503,14.059-.963,14.059-.963l-2.503-2.888c15.47-22.332,35.172-26.097,54.184-21.089-1.138-.615-2.327-1.187-3.564-1.696-8.754-3.597-21.298-3.641-33.223,2.591-7.7,4.024-15.14,10.66-21.133,20.644Z"/>
    <path class="st11" d="M62.097,188.174c-1.196-1.006-2.25-2.309-2.83-3.769-.528-1.336-.668-2.863.033-4.166,1.252-2.327,4.188-2.426,6.474-2.004,2.154.398,4.324,1.556,6.025,2.907,2.721,2.154,4.681,5.058,5.97,8.262.18.453.136.921-.126,1.332-.263.409-.673.646-1.158.666-2.712.121-5.915-.127-8.548-.699-2.026-.439-4.228-1.18-5.839-2.529h0ZM151.978,180.087c-1.608,1.347-3.813,2.09-5.839,2.529-2.632.571-5.836.82-8.544.699-.488-.022-.899-.257-1.16-.668-.264-.409-.308-.877-.129-1.33,1.288-3.204,3.248-6.109,5.972-8.264,1.699-1.349,3.868-2.507,6.023-2.905,2.287-.422,5.223-.323,6.475,2.002.701,1.303.561,2.832.033,4.166-.58,1.464-1.633,2.765-2.83,3.771Z"/>
    <g>
      <path class="st11" d="M63.036,187.06c3.953,3.316,13.382,2.887,13.382,2.887-2.91-7.238-8.181-9.778-10.904-10.28-6.57-1.211-6.434,4.076-2.478,7.394Z"/>
      <path class="st11" d="M151.042,178.971c-3.956,3.316-13.385,2.889-13.385,2.889,2.91-7.238,8.181-9.778,10.908-10.281,6.566-1.211,6.434,4.074,2.477,7.392Z"/>
    </g>
    <path class="st11" d="M114.354,215.331c6.705-1.729,14.762-5.025,20.792-8.432,3.909-2.21,8.937-4.828,12.281-7.834.848-.767,2.907-3.094,4.382-4.889,1.149-1.398,1.754-2.472,2.389-2.228,1.204.459.69,4.296.613,5.586-.822,13.996-6.405,28.063-18.605,35.877-7.146,4.573-15.485,6.192-23.871,5.362-7.194-.708-11.708-2.896-16.613-8.089-3.021-3.2-7.585-8.818-11.784-10.618-1.297-.554-5.949-2.083-4.54-2.046,2.322.061,3.874.046,4.94-.005,12.09-.587,17.511.54,30.016-2.683Z"/>
    <path class="st3" d="M87.591,220.471c10.78,4.621,9.906,13.912,25.031,15.406,22.029,2.173,37.837-13.896,39.287-38.516,0,0-19.258,24.264-64.318,23.11Z"/>
    <path class="st0" d="M168.986,287.998c-14.303,5.469-21.075,8.339-20.007,23.941,1.152,16.946-1.16,14.633-6.552,28.501-5.392,13.866.771,27.347,18.102,21.57,2.521-.841,4.936-1.885,7.234-3.05-2.723-23.134-2.287-47.535,1.222-70.962Z"/>
    <path class="st0" d="M103.145,350.84c3.23-10.778-5.259-19.209-17.041-21.857-.767,5.426-1.681,11.102-2.749,17.046-4.25,23.609-10.526,48.736-16.01,74.207,3.206-.128,7.26-.58,12.304-1.607,16.944-3.468,24.266-32.739,19.642-47.376-4.621-14.635.385-8.856,3.854-20.412h0ZM56.213,493.835c9.077-5.087,20.014-3.38,23.049,6.827,4.235,14.251,11.554,10.016,16.947,26.191,4.006,12.024-11.134,32.551-30.399,39.298-8.721-22.488-10.956-46.998-9.598-72.315h0ZM118.546,581.544c-17.258-10.831-32.159-3.292-38.688,10.504,13.022,16.601,35.429,30.981,62.248,41.812-.4-1.92,3.311-13.338-8.923-21.31-12.233-7.972,2.624-20.176-14.637-31.006Z"/>
    <path class="st9" d="M90.171,330.173c-1.301-.474-2.657-.876-4.067-1.191-.117.848-.244,1.703-.371,2.562v.006c-.114.773-.231,1.549-.352,2.331v.005c-.117.781-.242,1.568-.367,2.361v.002l-.002.005-.002.007c-.125.787-.253,1.578-.382,2.371l-.004.017v.002l-.004.017c-.128.796-.264,1.6-.4,2.409h-.002c-.138.815-.281,1.635-.422,2.459l-.002.002h0v.004c-.143.824-.292,1.653-.44,2.487-.215,1.187-.433,2.376-.657,3.567l-.026.136c-.216,1.16-.439,2.321-.664,3.489l-.029.154c-.228,1.167-.459,2.342-.692,3.516l-.027.13c-.485,2.426-.986,4.869-1.501,7.322l-.007.044c-.253,1.209-.514,2.422-.771,3.639l-.026.117c-.261,1.211-.521,2.426-.787,3.643l-.017.081c-.268,1.233-.54,2.47-.811,3.709l-.011.051c-.829,3.758-1.679,7.542-2.538,11.345l-.029.128c-.263,1.167-.53,2.342-.795,3.513l-.04.183-.492,2.166-.268,1.174-.112.495-.156.683-.264,1.178-.27,1.178-.182.807s-.084.374,17.988-68.305ZM90.171,330.173c-4.852,25.23-13.507,56.963-20.322,89.908-.886.073-1.721.121-2.503.154.169-.782.338-1.567.506-2.345l.011-.044v-.004l.011-.059c.279-1.274.558-2.551.837-3.821l.007-.026c.279-1.266.558-2.536.841-3.799l.027-.129c.274-1.222.545-2.437.817-3.659l.037-.154.055-.246c.268-1.186.532-2.367.8-3.553l.015-.066,18.861-72.158ZM79.868,592.03c.268.341.521.686.795,1.024l.09.11c.705.866,1.435,1.725,2.191,2.58l.062.07c.767.863,1.56,1.718,2.375,2.569l.088.092c.813.844,1.648,1.681,2.509,2.511l.066.062c.868.837,1.76,1.666,2.674,2.488l.099.088c.91.815,1.844,1.622,2.797,2.419l.072.062c.965.807,1.947,1.608,2.956,2.4l.11.084c.998.785,2.019,1.564,3.061,2.334l.081.055c1.057.778,2.132,1.549,3.226,2.309l.099.07c1.086.756,2.198,1.501,3.325,2.242l.085.055c1.138.749,2.297,1.486,3.476,2.217l.092.051c1.171.727,2.364,1.442,3.571,2.151l.081.048c1.218.716,2.455,1.42,3.711,2.114l.081.044c1.255.697,2.525,1.384,3.813,2.059l.051.026c1.303.686,2.617,1.358,3.953,2.022l.037.022c1.336.661,2.687,1.317,4.052,1.964l.029.011c1.373.65,2.764,1.288,4.169,1.919h.004c1.406.631,2.826,1.248,4.261,1.857l.007.007c1.351.573,2.712,1.134,4.085,1.688-.393-1.931,3.311-13.338-8.919-21.306-1.6-1.046-2.738-2.166-3.542-3.34-16.245-6.283-30.794-15.008-42.623-26.874-2.929,2.595-5.355,5.906-7.15,9.693h0ZM72.752,563.053c-10.493-19.786-13.653-44.44-12.71-70.928-1.296.44-2.578,1.009-3.828,1.71-.062,1.164-.117,2.327-.165,3.487l-.005.176c-.156,3.861-.222,7.7-.189,11.517v.194c.013,1.108.03,2.217.057,3.322l.005.253c.03,1.112.066,2.224.114,3.336l.002.062c.677,16.197,3.265,31.891,8.579,46.748l.059.169c.367,1.02.749,2.037,1.142,3.05h0c2.386-.833,4.709-1.883,6.94-3.098Z"/>
    <path class="st0" d="M105.465,450.981c6.122,16.296,5.619,16.535,5.249,33.425-.36,16.197,19.775,20.109,30.364,8.225,11.906-13.36,15.499-17.742,27.039-20.619,7.359-1.835,10.677-.521,13.374-9.352,4.335-14.208-7.157-26.151-22.257-27.655-10.592-1.057-23.112-1.49-31.337-9.04-7.942-7.286-31.992-.635-23.226,22.891l.793,2.125Z"/>
    <path class="st0" d="M251.593,473.759c-15.639,7.645-7.05,19.405-.165,21.126,9.242,2.312,29.27,12.325,37.741,23.879,8.475,11.554,30.43,22.726,48.914-2.69,3.068-4.217,5.454-7.957,7.26-11.282-10.398-11-22.737-18.7-35.275-23.387-18.333-6.856-34.945-5.48-57.245-7.506-.411-.037-.818-.095-1.23-.14Z"/>
    <path class="st0" d="M331.884,550.512c-23.269,19.757-22.4,30.592-15.367,43.904,6.177,11.69,30.614,22.121,39.789,6.375,6.717-11.539,22.796-37.316,6.419-47.064-8.442-5.025-22.22-7.19-30.841-3.215Z"/>
    <path class="st0" d="M160.941,519.641c-2.606,27.788,18.238,42.986,32.13,42.986s33.003-11.723,31.263-26.052c-1.736-14.329-20.407-6.948-24.749-21.71-4.342-14.765-30.397-12.593-38.644,4.775Z"/>
    <path class="st11" d="M69.118,217.324c-.396-.073-.657-.451-.583-.846.072-.393.451-.653.844-.582,15.243,2.81,32.548,2.635,48.392-1.877,13.514-3.852,25.96-10.86,35.128-21.869.257-.312,1.075-.448,1.384-.193.308.255-.011.809-.268,1.118-9.381,11.259-22.073,18.417-35.848,22.343-16.061,4.577-33.601,4.755-49.05,1.907Z"/>
    <path class="st11" d="M193.559,206.379c.708-.451,1.589-.275,1.967.393.382.668.121,1.576-.587,2.026-4.081,2.622-8.409,4.982-12.295,7.104-1.387.758-2.716,1.477-4.305,2.375-.73.409-1.593.182-1.93-.516-.334-.695-.018-1.589.712-2,1.105-.622,2.687-1.486,4.349-2.391,3.791-2.068,8.012-4.369,12.09-6.99Z"/>
    <path class="st11" d="M112.526,237.321c18.388,1.815,33.693-8.216,38.872-29.177-13.176,16.233-34.317,21.932-57.363,16.582,4.36,7.113,7.234,11.484,18.491,12.594Z"/>
    <path class="st11" d="M59.21,20.744c-.314.25-.769.196-1.022-.117-.246-.314-.194-.771.117-1.02,4.753-3.769,9.26-4.874,10.611-5.205.037-.011.073-.016.114-.02.141-.099.319-.149.507-.127.501.064.723.312.675.778v.04c-.062.51-.367.595-.921.73l-.029.007c-1.279.314-5.549,1.362-10.051,4.933h0ZM68.927,14.446l.004.018v-.002l-.004-.026v.009h0ZM68.931,14.464l-.004-.018-.004.027.007-.009Z"/>
    <path class="st11" d="M177.989,14.816c.345.207.455.653.246.995-.209.343-.653.453-.998.246-4.911-2.977-9.282-3.479-10.589-3.632-.583-.066-.895-.097-1.031-.604l-.004-.015h-.004c-.11-.47.073-.767.573-.892.228-.057.451-.002.62.13l.008-.031c-.004-.022-.004-.033-.004-.033,1.387.162,5.99.692,11.183,3.835h0ZM166.817,11.056l-.007-.042-.008.031.015.011Z"/>
    <path class="st11" d="M333.044,420.367c.198.345.081.789-.268.991-.345.202-.789.084-.991-.264-1.509-2.61-2.58-5.318-3.212-8.038-1.174-5.102-.796-10.236,1.141-14.832,1.938-4.595,5.425-8.64,10.464-11.554,2.694-1.56,5.828-2.797,9.407-3.622.962-.224,2.243-.514,3.501-.8,18.08-4.122,32.008-7.296,34.46-20.957.07-.394.448-.657.841-.585.393.068.657.448.587.841-2.624,14.609-16.96,17.876-35.572,22.119-1.039.238-2.099.477-3.494.8-3.432.789-6.434,1.975-9.003,3.461-4.753,2.753-8.038,6.555-9.855,10.86-1.817,4.309-2.169,9.139-1.061,13.943.598,2.58,1.615,5.157,3.054,7.638Z"/>
    <path class="st11" d="M338.901,423.95c-.073.393-.455.653-.844.576-.397-.077-.657-.455-.58-.851,1.908-9.946,12.108-15.98,22.862-22.348,14.586-8.632,30.225-17.885,26.437-38.235-.073-.394.191-.774.584-.846.393-.072.771.189.844.583,3.971,21.346-12.119,30.867-27.123,39.753-10.464,6.192-20.388,12.064-22.179,21.368Z"/>
    <path class="st0" d="M343.291,622.306c8.133,6.907,7.829,10.695,5.373,15.349-2.162,4.085-10.702,7.733-13.91,2.224-2.349-4.03-7.968-13.04-2.242-16.446,2.951-1.758,7.766-2.514,10.78-1.127Z"/>
    <path class="st0" d="M238.123,571.902c-6.192,10.313-10.457,10.669-16.087,8.79-4.936-1.652-10.563-10.486-5.028-15.063,4.056-3.355,13.048-11.257,17.885-5.516,2.499,2.962,4.225,8.181,3.23,11.789Z"/>
    <path class="st8" d="M31.368,55.263c-5.006-1.54-18.102-5.006-18.102-5.006,0,0-2.888,14.443,8.089,23.879,10.978,9.436,19.834,10.978,19.834,10.978l5.972-11.171s-6.933-13.481-15.793-18.68Z"/>
    <path class="st8" d="M201.997,85.304c10.783-4.235,24.646-9.627,29.652-26.189,5.006-16.562,2.698-16.948,2.698-16.948,0,0-21.857,4.14-26.668,7.511-4.819,3.369-12.618,14.635-13.099,16.081-.481,1.442,6.937,15.694,7.418,19.544Z"/>
    <path class="st11" d="M41.307,93.781c-.182.782-.963,1.268-1.745,1.084-.784-.18-1.268-.962-1.084-1.745,2.415-10.201,6.687-17.234,8.13-19.46-1.563-3.063-9.128-16-19.684-18.562-12.765-3.094-13.963-3.492-13.963-3.492-.769-.246-1.187-1.062-.945-1.826.25-.763,1.064-1.184,1.828-.94,0,0,1.108.371,13.763,3.439,12.934,3.134,21.291,19.418,21.834,20.561.235.437-.242.787-.517,1.242-.015.022-4.819,7.886-7.616,19.698Z"/>
    <path class="st11" d="M208.941,103.666c.158.785-.356,1.549-1.138,1.707-.785.158-1.549-.352-1.707-1.138-3.622-17.907-13.33-37.132-13.356-37.189-.206-.413-.198-.879-.015-1.266l-.004-.002c.026-.048,7.994-17.186,21.387-20.432,12.655-3.068,13.76-3.437,13.763-3.439.763-.244,1.578.176,1.824.94.246.763-.173,1.58-.94,1.824,0,0-1.2.402-13.965,3.494-10.625,2.578-17.632,15.279-19.137,18.238,1.729,3.531,9.979,20.904,13.286,37.264Z"/>
    <path class="st1" d="M34.318,49.113c11.745,3.467,15.213,12.325,17.14,19.065,1.165,4.081,2.261,2.936,4.013.459-1.921-8.192-7.236-16.713-15.628-20.772-.138-.066-.277-.132-.415-.196-.134-.062-.266-.125-.402-.187-.143-.062-.286-.127-.429-.191-9.546-4.184-20.344-4.555-30.43-7.054,5.48,4.101,16.527,6.038,26.151,8.876Z"/>
    <path class="st11" d="M43.659,85.761c-.299.745-1.145,1.106-1.888.807-.743-.297-1.107-1.143-.807-1.887,1.455-3.643,3.386-6.928,5.59-9.864,2.523-3.366,5.397-6.261,8.332-8.709,3.182-2.655,6.5-4.825,9.95-6.713,3.423-1.874,6.963-3.463,10.625-4.981.742-.305,1.589.05,1.894.789.305.742-.048,1.589-.789,1.896-3.582,1.485-7.03,3.032-10.339,4.843-3.281,1.795-6.438,3.859-9.477,6.395-2.788,2.327-5.507,5.063-7.875,8.22-2.057,2.738-3.858,5.803-5.215,9.203Z"/>
    <path class="st3" d="M53.69,136.684c2.358,6.871,11.78,15.114,23.359,8.245,11.58-6.871,1.373-43.183,1.373-43.183,0,0-26.107-4.122-24.732,34.937Z"/>
    <path class="st7" d="M80.279,109.597c-.962-4.665-1.857-7.851-1.857-7.851,0,0-24.387-3.848-24.778,31.164,1.681-13.334,15.779-26.015,26.635-23.314Z"/>
    <path class="st3" d="M155.112,102.064c-7.509,1.041-14.42,9.559-16.087,20.423-1.784,11.635,3.105,21.713,11.004,23.097,4.004,1.703,8.988,1.778,14.442-1.455,5.337-3.169,6.1-12.517,5.351-21.763.25-4.008-.297-7.748-1.479-10.904-1.164-6.36-2.489-11.066-2.489-11.066,0,0-5.124-.807-10.743,1.668Z"/>
    <path class="st7" d="M155.112,102.064c-7.509,1.041-14.42,9.559-16.087,20.423-.984,6.406.059,12.339,2.51,16.61.239-1,.305-2.259.147-3.81-1.652-16.34,11.748-26.552,26.349-25.468-1.072-5.511-2.176-9.423-2.176-9.423,0,0-5.124-.807-10.743,1.668Z"/>
    <path class="st11" d="M173.64,107.017c-11.954-9.875-27.634-2.086-31.74,12.604-2.015,7.205-1.123,12.45.187,18.781,1.131,5.476-1.563-1.083-1.883-2.494-7.285-31.972,18.557-47.312,36.339-31.841.837.774,2.698,3.799,1.901,4.614-.804.815-3.964-.885-4.804-1.663Z"/>
    <path class="st11" d="M85.33,109.212c-9.734-10.659-24.319-4.241-29.252,9.88-2.538,7.265-2.054,12.661-1.395,19.419.066.686-1.222-1.828-1.281-2.121-3.903-19.407,6.172-34.332,17.973-36.719,6.669-1.349,15.373.457,19.039,10.686.145.407-2.112-1.288-2.443-.978-.782.738-1.964.663-2.643-.167Z"/>
    <path class="st11" d="M166.667,100.069c-9.756,0-18.381,10.277-19.265,22.952-.888,12.675,6.302,22.95,16.057,22.95s18.377-10.275,19.265-22.95c.885-12.675-6.302-22.952-16.057-22.952Z"/>
    <path class="st11" d="M80.1,102.738c-8.313-.743-16.533,8.315-18.359,20.234-1.828,11.917,3.432,22.18,11.749,22.921,8.313.745,16.531-8.315,18.357-20.23,1.83-11.919-3.43-22.183-11.747-22.924Z"/>
    <path class="st3" d="M160.332,112.027c4.386,0,7.953-2.042,7.953-4.544s-3.567-4.544-7.953-4.544-7.95,2.041-7.95,4.544,3.575,4.544,7.95,4.544Z"/>
    <path class="st3" d="M74.304,112.875c4.324,0,7.851-2.015,7.851-4.485s-3.527-4.487-7.851-4.487-7.851,2.015-7.851,4.487,3.525,4.485,7.851,4.485Z"/>
    <path class="st11" d="M83.937,105.461c-.356-.184-.497-.62-.314-.978.183-.356.622-.497.98-.314,2.349,1.218,3.876,2.811,4.867,4.316.991,1.508,1.45,2.925,1.663,3.791,4.089,16.457-5.227,29.072-11.752,37.91-1.644,2.228-3.109,4.21-4.111,5.927-.202.349-.646.466-.995.266-.345-.2-.462-.646-.263-.993,1.041-1.784,2.531-3.799,4.201-6.065,6.36-8.61,15.435-20.899,11.512-36.697-.191-.767-.593-2.019-1.47-3.344-.872-1.329-2.224-2.736-4.318-3.821Z"/>
    <path class="st11" d="M60.853,171.43c-.789.147-1.549-.372-1.696-1.162-.147-.787.371-1.547,1.16-1.694,3.525-.662,6.577-.374,9.077.382,3.465,1.05,5.916,3.028,7.139,4.647.488.64.358,1.553-.283,2.037-.639.484-1.552.356-2.037-.286-.932-1.237-2.859-2.764-5.663-3.611-2.107-.639-4.691-.877-7.697-.312Z"/>
    <path class="st11" d="M159.275,161.739c.789.147,1.31.905,1.16,1.694-.143.789-.903,1.307-1.692,1.16-3.083-.58-6.361-.209-9.231.587-3.733,1.033-6.687,2.711-7.598,3.916-.484.642-1.395.769-2.037.284-.639-.484-.767-1.395-.283-2.035,1.219-1.619,4.801-3.762,9.146-4.964,3.245-.899,6.974-1.312,10.534-.642Z"/>
    <path class="st10" d="M65.165,128.367c.033-1.2,1.031-2.147,2.235-2.114,1.2.033,2.147,1.031,2.114,2.235-.092,3.145.642,5.322,1.758,6.702.673.833,1.486,1.369,2.323,1.648.822.274,1.674.303,2.444.125.833-.196,1.534-.627,1.921-1.248.637-1.017,1.976-1.325,2.993-.69,1.017.637,1.329,1.977.69,2.995-1.024,1.639-2.705,2.745-4.617,3.19-1.508.35-3.182.294-4.795-.242-1.598-.532-3.125-1.527-4.355-3.046-1.71-2.114-2.837-5.245-2.712-9.554Z"/>
    <path class="st10" d="M152.899,128.51c.033-1.202,1.031-2.149,2.232-2.116,1.204.033,2.151,1.033,2.114,2.235-.07,2.527.584,4.369,1.648,5.621.859,1.017,2.022,1.675,3.281,2.019,1.321.358,2.742.371,4.059.083,1.674-.365,3.134-1.202,3.902-2.399.65-1.015,2-1.307,3.01-.659,1.017.652,1.31,1.999.661,3.011-1.42,2.213-3.898,3.709-6.651,4.309-1.971.433-4.118.411-6.122-.132-2.063-.56-3.986-1.674-5.465-3.417-1.714-2.022-2.778-4.841-2.668-8.555Z"/>
    <path class="st12" d="M82.258,76.589c-1.285,3.419-7.744,6.803-13.514,8.675-3.323,1.077-5.159,1.653-6.173,1.96.749,2.14,3.29,1.611,4.92,1.466,5.926-.534,16.276-3.076,16.995-7.016.352-1.938-.547-3.806-2.228-5.085Z"/>
    <path class="st12" d="M173.816,82.806c-11.653-.945-20.451-3.459-23.365-7.148-1.85,1.971-2.118,4.685-.297,6.966,1.857,2.327,14.843,2.61,20.374,2.301,1.78-.099,3.27-.09,3.289-2.12Z"/>
    <path class="st8" d="M225.343,641.186c-1.486,3.968-3.094,8.078-4.808,12.24v.004c-.481,1.163-.965,2.331-1.457,3.498-9.308,22.018-21.277,44.693-32.709,54.493-1.626,1.395-3.289,2.793-4.959,4.188,4.272,4.419,7.744,9.84,10.181,14.773,1.145,1.578,1.696,2.224,1.351,2.562.088-.018.176-.033.253-.048.334-.231.738-.888,1.343-.874,1.068-1.483,3.652-5.252,6.562-10.882,6.577-12.706,16.927-34.886,24.631-61.554.18-.628.36-1.259.54-1.894.334-1.182.661-2.371.984-3.571v-.004c.65-2.422,1.277-4.885,1.875-7.37v-.004c1.141-4.764,2.18-9.638,3.079-14.593.532-2.911,1.017-5.854,1.439-8.823.642-4.448,1.16-8.952,1.538-13.492-.708,3.388-1.975,8.052-3.7,13.543-.837,2.679-1.784,5.557-2.83,8.585-1.017,2.951-2.129,6.041-3.314,9.224Z"/>
    <path class="st7" d="M142.535,205.624c-.664,5.786-2.694,10.8-6.79,15.248,5.19-2.659,9.873-6.225,13.907-10.688,1.215-3.935,1.986-8.231,2.257-12.824,0,0-2.991,3.769-9.374,8.263Z"/>
  </g>
  <rect class="st14" x="-213.596" y="-162.692" width="400" height="400"/>
  <rect class="st14" x="227.515" y="-162.692" width="400" height="400"/>
  <rect class="st14" x="-210.374" y="283.975" width="400" height="400"/>
  <rect class="st14" x="228.293" y="281.975" width="400" height="400"/>
  <metadata>
    <sfw xmlns="http://ns.adobe.com/SaveForWeb/1.0/">
      <slices/>
      <sliceSourceBounds x="-2051.88" y="-4498.52" width="4384.6" height="3952.85" bottomLeftOrigin="true"/>
      <optimizationSettings>
        <targetSettings fileFormat="PNG24Format" targetSettingsID="0">
          <PNG24Format filtered="false" interlaced="false" matteColor="#FFFFFF" noMatteColor="false" transparency="true"/>
        </targetSettings>
      </optimizationSettings>
    </sfw>
  </metadata>
</svg>