<?xml version="1.0" encoding="UTF-8"?>
<svg id="Layer_1" xmlns="http://www.w3.org/2000/svg" version="1.1" viewBox="0 0 506.52 597.871">
  <!-- Generator: Adobe Illustrator 30.1.0, SVG Export Plug-In . SVG Version: 2.1.1 Build 136)  -->
  <defs>
    <style>
      .st0 {
        fill: #efde97;
      }

      .st0, .st1, .st2, .st3, .st4, .st5, .st6, .st7, .st8, .st9, .st10, .st11, .st12, .st13 {
        fill-rule: evenodd;
      }

      .st1 {
        fill: #fff;
      }

      .st2 {
        fill: #302f2f;
      }

      .st14 {
        fill: none;
      }

      .st3 {
        fill: #bc6368;
      }

      .st4 {
        fill: #e0b6b4;
      }

      .st5 {
        fill: #c7c8c8;
      }

      .st6 {
        fill: #b2832a;
      }

      .st7 {
        fill: #d58b8d;
      }

      .st8 {
        fill: #214381;
      }

      .st9 {
        fill: #595858;
      }

      .st11 {
        fill: #1e1e1e;
      }

      .st12 {
        fill: #e0c040;
      }

      .st13 {
        fill: #2354a0;
      }
    </style>
  </defs>
  <g>
    <path class="st10" d="M387.76,554.613c.192-.043.387-.086.582-.129,5.283-1.15,10.586-2.225,15.928-3.075,6.995-1.111,14.394-2.162,21.485-1.795,5.24.278,10.235,1.435,14.497,4.635.955.714,1.848,1.514,2.671,2.38,2.79,2.926,5.091,8.966,6.179,12.87,1.544,5.527,2.579,13.214-1.98,17.647-1.293,1.256-2.88,2.079-4.635,2.466-2.281.503-4.648.711-6.976.843-.053.003-.106.007-.159.007-.027.04-.053.079-.083.122-2.374,3.352-6.632,4.166-10.48,4.166-3.577,0-7.29-.43-10.758-1.435-.311.456-.694.87-1.147,1.226-2.965,2.321-6.569,3.329-10.298,3.329-4.489,0-8.979-.245-13.458-.503-6.906-.403-13.806-.959-20.682-1.729-8.288-.929-16.824-2.073-24.847-4.384-5.313-1.531-13.035-4.321-13.872-10.685-.102-.754-.093-1.521.023-2.271.823-5.349,2.926-11.819,5.842-16.546-1.134-6.39-2.599-12.725-4.09-19.032-1.636-6.89-4.205-13.693-6.923-20.226-3.521-8.473-7.554-16.748-12.05-24.748-5.686-10.123-12.47-20.626-20.619-28.937-4.099-4.185-10.939-10.123-17.307-10.252-.314.033-.631.066-.949.103-7.478,10.767-15.931,20.86-25.343,29.638-6.698,6.245-14.13,12.014-22.153,16.659-1.464,2.453-2.929,4.906-4.407,7.352-8.47,14.02-14.9,29.419-19.472,45.132-.453,1.551-.886,3.104-1.299,4.665,2.804,4.694,4.82,10.976,5.623,16.192.116.751.122,1.517.023,2.271-.836,6.364-8.559,9.154-13.872,10.685-8.023,2.311-16.559,3.455-24.847,4.384-6.876.77-13.776,1.326-20.682,1.729-4.48.258-8.969.503-13.458.503-3.729,0-7.332-1.008-10.298-3.329-.453-.357-.836-.77-1.147-1.226-3.468,1.005-7.18,1.435-10.754,1.435-3.851,0-8.109-.813-10.483-4.166-.03-.043-.056-.083-.083-.122-.053,0-.106-.003-.159-.007-2.327-.132-4.695-.34-6.976-.843-1.752-.387-3.346-1.21-4.635-2.466-4.562-4.433-3.524-12.12-1.984-17.647,1.091-3.904,3.392-9.944,6.182-12.87.823-.866,1.716-1.666,2.668-2.38,4.261-3.2,9.263-4.357,14.497-4.635,7.095-.367,14.493.684,21.489,1.795,4.357.694,8.691,1.537,13.009,2.446-.162-3.527-.278-7.062-.347-10.589-.202-10.341-.02-20.705.559-31.033.202-3.584.453-7.164.757-10.744-4.661-3.412-9.005-7.266-13.035-11.382-11.313-11.561-21.571-24.087-30.722-37.423-7.134-10.397-13.524-21.257-19.67-32.256-2.433-4.357-4.833-8.728-7.329-13.049-2.03-3.514-4.123-7.005-6.46-10.328-2.913-4.149-6.814-8.939-11.69-10.787-6.056-2.304-13.194.278-18.731,2.916-6.533,3.108-14.341,5.861-21.657,5.58-5.637-.215-10.996-2.327-14.182-7.184-2.496-3.805-3.028-8.417-2.265-12.834.823-4.744,3.084-9.233,5.984-13.045,7.604-9.994,19.588-15.815,31.793-17.816,13.343-2.188,27.036-2.132,39.334,4.149,4.139,2.109,7.848,4.78,11.23,7.828-2.37-3.57-4.341-7.227-5.62-10.84-1.25-3.521-2.007-7.171-2.126-10.913-.393-12.381,6.351-23.502,13.706-32.92,5.253-6.728,11.108-12.979,17.085-19.062,7.819-7.951,15.911-15.614,24.051-23.228,8.232-7.701,16.665-15.209,25.509-22.203,6.361-5.032,12.953-9.807,19.912-13.977,1.365-.818,2.747-1.612,4.142-2.377-5.266-2.742-10.41-5.746-15.32-9.079-3.656-2.48-7.524-5.276-10.549-8.504-8.073-8.614-8.586-23.629-7.66-34.765,1.316-15.797,5.875-32.053,11.465-47.205-2.701-.636-5.322-1.532-7.782-2.633-8.734-3.901-16.725-10.903-19.872-20.15-3.418-10.034-.208-19.793,6.245-27.783,2.972-3.679,6.202-7.237,9.805-10.308,5.273-4.49,11.627-8.106,18.424-7.987.026-.546.076-1.091.149-1.636,1.17-8.648,7.835-14.05,15.369-17.399,7.266-3.23,15.29-5.346,23.026-7.128,9.789-2.256,19.72-3.934,29.691-5.154,13.164-1.616,26.857-2.61,40.104-1.653,8.377.603,21.683,2.327,26.543,10.083,1.974,3.147,3.131,6.647,3.547,10.333.096.863.152,1.731.172,2.599,2.519-2.544,5.428-4.57,8.784-5.708,2.704-.917,5.504-1.193,8.338-.848,10.288,1.261,19.333,10.468,25.542,18.155,6.453,7.989,9.663,17.749,6.245,27.783-3.144,9.247-11.134,16.249-19.869,20.15-1.524.681-3.098,1.279-4.698,1.782.539.823,1.048,1.613,1.521,2.357,6.02,9.442,11.518,19.369,15.961,29.651,1.514,3.494,2.926,7.056,4.066,10.691,1.207,3.845,2.384,8.59,2.063,12.639-.34,4.202-2.112,8.901-4.552,13.544,10.45-7.109,20.361-15.275,29.73-24.646,6.057-6.057,11.009-13.541,15.188-20.989,5.775-10.301,10.463-21.284,14.454-32.388,1.481-4.129,2.909-8.288,4.159-12.495-.899-.96-1.719-2.022-2.453-3.091-4.771-6.941-7.997-16.288-10.45-24.32-1.62-5.299-2.575-11.376-1.15-16.821,1.174-4.506,3.984-8.313,8.394-10.055,4.506-1.779,9.505-.891,13.581,1.541.946.56,1.835,1.198,2.675,1.899,1.289-4.354,2.879-8.625,5.051-12.615.602-1.107,1.24-2.192,1.908-3.26,2.737-4.39,6.47-7.949,10.979-10.486,10.771-6.053,24.355-5.508,35.522-.828,12.106,5.076,21.687,15.007,24.712,27.973,2.268,9.705,2.46,20.084,1.835,29.995-.876,14.006-3.435,27.952-6.658,41.592-13.977,59.255-75.534,112.878-124.306,145.395-8.5,5.666-19.158,14.536-21.931,25.162,1.537,5.888,2.8,11.842,3.795,17.849.268.694.387,1.435.347,2.169.36,2.324.678,4.652.962,6.982,3.071,25.442,1.56,51.381-3.227,76.536,1.134,1.326,2.192,2.721,3.227,4.119,3.345,4.523,6.354,9.296,9.111,14.196,9.779,17.35,16.523,36.583,20.688,56.026,2.169,10.116,3.286,20.46,3.799,30.785.972,19.541-.172,39.275-2.456,58.69-.529,4.519-1.131,9.032-1.802,13.534h0ZM168.538,418.614c-5.636,2.354-11.468,2.665-17.386.81-4.301-1.349-8.662-2.582-12.821-4.337-3.911-1.653-8.265-4.129-9.025-8.728-.456-2.761.645-5.392,2.443-7.448.36-.413.754-.794,1.17-1.14-1.607-1.074-3.184-2.185-4.751-3.316-7.422-5.379-14.503-11.293-21.151-17.601-1.415-1.345-2.886-2.78-4.38-4.291,3.656,5.441,6.946,11.124,10.103,16.867,3.941,7.184,7.663,14.48,11.369,21.786,7.898,15.577,17.71,31.535,29.816,44.246.222-.76.446-1.517.681-2.271,2.684-8.718,5.848-17.3,9.673-25.585,1.392-3.005,2.807-6.007,4.258-8.992h0ZM195.937,370.516c.189-.374.42-.721.691-1.035.536-4.01.258-8.348-.129-11.997-.827-7.805-2.493-15.604-3.799-23.347-1.61-9.538-3.537-19.022-5.636-28.464-.433-1.931-.87-3.861-1.312-5.789l-34.068,21.955c2.198,1.603,4.4,3.213,6.602,4.817,3.653,2.665,6.956,5.964,10.076,9.227,3.828,4.01,7.468,8.205,10.996,12.48,4.784,5.795,9.395,11.749,13.696,17.918.959,1.375,1.944,2.79,2.883,4.235Z"/>
    <path class="st10" d="M197.868,90.802c.291,10.26-2.757,20.518-12.202,25.822-8.906,5-20.374,3.761-29.39-.266-8.222-3.673-15.845-10.27-18.807-18.986-3.197-9.395-.122-18.444,5.911-25.915,7.118-8.814,19.065-20.966,31.717-16.682,12.695,4.298,19.208,23.355,22.646,35.192l.116.41.01.425Z"/>
    <path class="st2" d="M194.542,90.896c-6.245-21.51-19.429-53.427-48.567-17.346-29.142,36.079,49.953,66.608,48.567,17.346Z"/>
    <path class="st9" d="M189.652,76.806c-7.544-17.766-20.612-31.82-43.678-3.256-.714.881-1.346,1.759-1.931,2.632,10.225-10.034,25.423-15.485,34.762-8.658,5.018,3.666,8.463,6.888,10.847,9.283Z"/>
    <path class="st10" d="M295.452,73.315c1.193-4.103,2.513-8.182,4.083-12.159,3.408-8.658,9.121-19.835,18.56-23.032,12.652-4.284,24.603,7.868,31.717,16.682,6.037,7.471,9.111,16.52,5.914,25.913-2.965,8.719-10.589,15.315-18.807,18.988-9.019,4.027-20.49,5.266-29.39.268-9.448-5.308-12.493-15.564-12.206-25.826l.013-.425.116-.408Z"/>
    <path class="st2" d="M298.652,74.244c6.245-21.512,19.432-53.427,48.571-17.346,29.139,36.079-49.959,66.608-48.571,17.346Z"/>
    <path class="st9" d="M300.223,69.12c6.8-20.902,20.103-45.523,47-12.222,3.643,4.514,5.597,8.941,6.225,13.136-4.966-8.493-12.824-17.126-22.457-21.477-12.926-5.838-24.54,8.809-30.768,20.563Z"/>
    <path class="st4" d="M152.031,94.833c1.527,7.493,9.3,12.905,16.513,13.045,7.217.139,6.662,1.526,7.217.139.555-1.388,3.746-10.825,3.746-10.825,0,0-9.161-6.384-4.579-8.187,4.579-1.805,6.662-2.498,6.662-2.498,0,0-6.8-11.657-14.847-10.407-8.047,1.248-14.847,8.743-14.711,18.733Z"/>
    <path class="st4" d="M320.633,90.533c5.273-1.111,16.791-4.025,17.763-12.351.969-8.328-5.97-17.624-13.462-18.596-7.491-.972-14.017,1.803-15.819,7.494-1.805,5.688-2.774,6.245-.972,6.106,1.805-.14,8.883.97,8.05,3.885s-6.939,7.911-6.939,9.298,4.579,4.023,11.379,4.164Z"/>
    <path class="st10" d="M311.84,84.774c2.942-2.58,10.192-10.45,3.61-13.121-1.567-.636-4.483-.493-6.771-.352,4.79-10.643,12.189-15.936,22.9-7.371,8.248,6.595,7.723,17.029-.694,23.535,10.953-4.136,10.083-18.437,2.165-25.302-12.725-11.034-22.834-3.375-28.576,10.379l2.427,2.291c2.182.851,14.381-3.078,2.549,6.817-.86.66-1.028,1.893-.367,2.757.661.863,1.894,1.026,2.757.367Z"/>
    <path class="st10" d="M180.128,99.979c-3.372-1.98-11.977-8.349-6.01-12.207,1.418-.921,4.311-1.327,6.582-1.62-6.701-9.554-14.963-13.364-23.875-2.939-6.863,8.03-4.387,18.179,5.101,22.986-11.534-2.003-13.366-16.212-6.88-24.444,10.427-13.225,21.799-7.605,30.021,4.828l-1.957,2.703c-1.98,1.25-14.701-.321-1.223,7.175.972.488,1.365,1.668.879,2.64-.486.97-1.666,1.365-2.638.878Z"/>
    <path class="st10" d="M427.207,34.527c1.408-5.329,3.16-10.592,5.779-15.402.582-1.071,1.2-2.122,1.848-3.157,2.562-4.116,6.05-7.437,10.272-9.812,10.238-5.754,23.201-5.172,33.796-.731,11.521,4.83,20.679,14.254,23.561,26.606,2.212,9.471,2.397,19.759,1.788,29.426-.866,13.832-3.431,27.793-6.605,41.261-13.868,58.756-75.332,112.106-123.493,144.214-10.298,6.866-23.178,17.989-23.485,31.524-.073,3.21.595,6.423,1.934,9.343.519,1.131,1.306,2.585,2.112,3.547.972,1.144,1.051,2.737.205,3.974s-2.364,1.736-3.779,1.246l-52.039-18.044c-.334-.112-.599-.255-.886-.466-2.893-2.155-5.739-4.519-8.476-6.866-5.904-5.058-11.64-10.503-16.781-16.343-7.088-8.053-16.768-21.077-14.004-32.517,2.265-9.381,11.759-13.772,20.275-15.99,40.048-10.424,74.605-28.062,103.971-57.427,6.156-6.156,11.267-13.848,15.508-21.419,5.809-10.351,10.579-21.523,14.589-32.686,1.61-4.471,3.193-9.114,4.526-13.723-1.217-1.141-2.301-2.556-3.045-3.64-4.569-6.648-7.858-16.146-10.192-23.783-1.504-4.919-2.456-10.682-1.131-15.749,1.015-3.891,3.395-7.21,7.217-8.721,3.931-1.552,8.304-.716,11.852,1.398,1.772,1.056,3.332,2.4,4.681,3.937Z"/>
    <path class="st12" d="M428.539,42.99c-6.939-17.346-28.448-15.264-20.818,9.713,5.594,18.308,16.712,36.98,28.524,43.946-1.577-.532-6.39-1.944-10.979-5.961-3.65-3.195-5.332-5.336-5.385-5.175-4.248,13.529-16.275,47.63-34.362,65.717-22.897,22.897-54.812,45.099-105.462,58.284-50.653,13.182,20.12,65.911,20.12,65.911l52.039,18.044s-19.429-22.897,20.123-49.263c39.549-26.367,107.545-80.485,122.114-142.237.559-2.372,1.081-4.691,1.567-6.959-3.656,4.557-5.428,5.44-10.814,7.314,8.347-8.62,12.48-14.093,14.172-25.882,2.668-18.593,2.397-32.942-.106-43.665-6.513-27.892-47.658-37.534-61.659-15.077-3.865,6.202-5.99,11.676-9.075,25.29Z"/>
    <path class="st6" d="M348.982,270.184c2.661-7.633,9.263-16.586,23.356-25.98,39.549-26.367,107.545-80.485,122.114-142.237.559-2.372,1.081-4.691,1.567-6.959-3.656,4.557-5.428,5.44-10.814,7.314.198-.203.393-.405.585-.607-.413.225-.827.43-1.233.615-2.936,1.332-20.087,69.991-112.911,117.732-14.84,7.633-28.404,13.738-28.404,22.885,0,10.994,2.668,20.237,5.739,27.236Z"/>
    <g>
      <path class="st10" d="M374.113,161.858c-4.053,3.511-8.364,6.976-12.969,10.357,3.587,4.344,9.428,10.529,11.805,12.487,8.205,6.757,6.959-9.114,1.164-22.844Z"/>
      <path class="st10" d="M393.093,142.333c-2.39,3.233-4.916,6.238-7.574,8.896-1.57,1.57-3.184,3.137-4.843,4.699,4.787,6.283,12.88,16.108,15.958,18.644,9.785,8.062,5.62-17.981-3.541-32.239Z"/>
    </g>
    <path class="st10" d="M302.242,397.294c-3.673,10.827-8.133,21.416-13.27,31.628-10.579,21.032-24.722,41.827-42.002,57.94-15.029,14.017-33.863,25.667-54.829,27.109-22.781,1.567-42.17-9.366-57.705-25.237-11.26-11.501-21.406-23.892-30.51-37.162-7.124-10.387-13.435-21.118-19.574-32.104-2.436-4.361-4.843-8.744-7.346-13.072-2.053-3.554-4.185-7.111-6.546-10.473-3.17-4.509-7.299-9.481-12.602-11.495-6.655-2.529-14.196.083-20.279,2.975-6.195,2.952-13.772,5.66-20.738,5.395-4.982-.189-9.782-1.984-12.609-6.298-2.222-3.385-2.651-7.501-1.97-11.422.764-4.423,2.906-8.635,5.607-12.186,7.296-9.59,18.847-15.151,30.547-17.069,12.923-2.119,26.203-2.126,38.124,3.96,10.06,5.134,17.551,13.739,23.826,22.93,3.871,5.67,7.346,11.65,10.649,17.664,3.931,7.157,7.646,14.444,11.339,21.726,8.086,15.948,18.361,32.55,30.844,45.437,9.052,9.342,21.376,18.764,34.947,19.168,10.844.324,20.047-5.26,27.495-12.708,8.592-8.592,16.801-17.545,24.963-26.543,7.27-8.014,14.513-16.136,22.117-23.832,5.762-5.838,12.381-12.186,19.366-16.536,5.286-3.293,11.759-5.908,18.014-3.984.879.274,1.537.827,1.954,1.643.42.817.483,1.673.188,2.546Z"/>
    <path class="st12" d="M299.135,396.239c-26.365,77.712-98.523,155.421-162.357,90.199-63.834-65.219-56.895-122.809-100.606-101.991-43.711,20.814-39.549-28.448,2.774-35.39,42.322-6.936,55.51,15.267,80.486,64.528,24.98,49.265,63.14,88.12,98.527,52.733,35.383-35.387,63.14-75.63,81.177-70.079Z"/>
    <path class="st6" d="M295.998,404.907c-28.593,74.628-97.763,144.327-159.22,81.531-63.834-65.219-56.895-122.809-100.606-101.991-27.456,13.072-36.018-1.501-28.11-15.868.82,10.675,10.854,14.632,22.956,11.865,16.189-3.699,37.466-16.189,60.594,26.368,23.128,42.554,40.706,70.77,61.057,68.919,3.967-.36,7.227-2.43,9.934-5.571,17.697,12.867,36.901,14.609,55.354-3.841,26.9-26.9,49.387-56.604,66.555-66.862,3.699,1.603,7.584,3.418,11.485,5.451Z"/>
    <g>
      <path class="st10" d="M106.34,388.718c2.625,4.655,5.306,9.706,8.116,15.135-6.06,3.038-11.409,5.151-14.84,6.037-10.807,2.79-4.671-11.528,6.724-21.171Z"/>
      <path class="st10" d="M50.609,347.86c6.351-.212,11.964.43,17.042,1.914-5.151,8-10.91,16.06-13.505,16.358-4.07.473-5.613-8.652-3.537-18.272Z"/>
      <path class="st10" d="M123.987,422.177c2.648,4.78,5.418,9.422,8.295,13.855-4.969,2.351-9.293,4-12.219,4.754-9.888,2.552-5.597-9.204,3.924-18.609Z"/>
      <path class="st10" d="M140.728,448.026c3.375,4.387,6.86,8.457,10.433,12.119-5.322,2.565-9.967,4.361-13.058,5.157-9.425,2.433-5.967-8.139,2.625-17.277Z"/>
      <path class="st10" d="M85.539,360.109c3.881,3.567,7.521,7.908,11.111,13.002-5.97,3.964-11.343,6.857-14.794,8.185-10.222,3.937-6.126-10.364,3.683-21.188Z"/>
    </g>
    <path class="st10" d="M187.031,296.721l-38.821,25.019c2.975,2.165,5.944,4.334,8.916,6.503,3.494,2.549,6.83,5.878,9.815,8.999,3.789,3.97,7.405,8.142,10.9,12.374,4.731,5.733,9.349,11.686,13.597,17.789,1.226,1.755,3.888,5.518,5.432,8.638,4.48-9.875.496-26.09-2.228-42.233-1.613-9.564-3.55-19.095-5.66-28.563-.632-2.843-1.276-5.686-1.951-8.526h0ZM195.845,386.635c-1.901,3.825-4.559,7.805-5.984,9.901-1.848,2.721-3.808,5.405-5.891,7.951-1.438,1.755-3.352,4.013-5.207,5.319-1.385.975-2.711,2.043-4.09,3.028-1.864,1.329-3.795,2.542-5.871,3.511-5.524,2.582-11.217,3.035-17.065,1.2-4.185-1.312-8.599-2.566-12.639-4.271-3.197-1.349-7.223-3.441-7.852-7.237-.36-2.188.569-4.215,1.984-5.828.939-1.074,2.089-1.851,3.352-2.404-2.476-1.56-4.896-3.233-7.256-4.946-7.323-5.303-14.401-11.214-20.953-17.435-8.476-8.047-19.521-19.918-23.479-31.063-1.183-3.332-1.898-6.774-2.013-10.318-.377-11.885,6.242-22.616,13.293-31.648,5.184-6.642,11.039-12.89,16.94-18.894,7.785-7.921,15.878-15.584,23.991-23.171,8.179-7.652,16.596-15.145,25.383-22.095,6.285-4.967,12.827-9.715,19.703-13.832,5.141-3.081,10.457-5.784,16.034-7.982,4.632-1.824,9.333-3.246,14.143-4.494,2.231-.58,4.473-1.121,6.711-1.665,9.511-2.306,19.072-4.541,28.676-6.432,7.18-1.413,14.473-2.661,21.76-3.336,10.529-.974,20.831-.711,30.785,3.213,3.296,1.298-9.766,4.322-6.761,6.195,18.636,11.628,46.597,29.812,53.85,50.975,13.356,38.957,13.201,81.18,4.847,121.152l-.334,1.607-1.478.711c-1.286.622-2.622,1.193-3.937,1.752-3.603,1.521-6.109,3.151-9.795,4.466-13.455,4.81-27.403,8.605-41.364,11.617-11.961,2.579-25.406,2.413-37.565,1.474-13.736-1.064-27.542-3.289-41.023-6.109-6.238-1.306-12.599-2.734-18.748-4.43l-2.698-.744.268-2.784c.096-.985.188-1.97.284-2.959Z"/>
    <path class="st12" d="M219.865,213.501c-20.818,4.857-37.47,9.019-80.486,49.264-43.02,40.243-58.978,58.974-51.344,80.483,6.294,17.743,34.537,41.737,50.177,51.642,6.979,4.423,13.382,8.751,24.133,10.202-7.808,1.739-15.009-.251-20.629-5.131-2.324.212-4.602.866-5.98,2.436-4.86,5.554,5.375,8.328,16.999,11.971,11.624,3.643,19.429-3.99,24.11-7.286,4.685-3.293,18.212-22.897,17.869-27.406-.35-4.509-26.715-39.374-39.552-48.743-10.708-7.815-18.692-9.947-34.081-13.313,8.437-1.319,15.779-.615,22.874,2.899l45.209-29.135s15.148,58.168,13.065,79.676c-2.079,21.508-3.352,18.847-3.352,18.847,0,0,60.363,16.655,95.749,9.022,35.387-7.63,53.887-17.346,53.887-17.346,6.566-31.416,7.98-78.423-3.769-116.584-.734-2.394-2.565-11.46-2.83-15.28-.393-5.695,1.005-1.727-.658-6.185-.202-.532-1.028.188-1.342-.382-6.714-12.227-20.698-24.786-31.948-31.807-18.421-11.493-36.233-10.61-88.1,2.155Z"/>
    <path class="st0" d="M193.795,383.138c.632-1.488.975-2.694.919-3.461-.35-4.509-26.715-39.374-39.552-48.743-9.2-6.714-16.387-9.233-27.988-11.944,6.44,2.86,20.609,10.387,35.906,26.53,17.221,18.176,27.631,33.03,30.715,37.618Z"/>
    <path class="st6" d="M219.865,213.501c-12.814,2.991-24.051,5.722-40.825,16.76,10.83-3.473,22.887-2.109,37,1.124,22.203,5.09,64.294-6.476,89.276-20.817.238-.139.44-.278.651-.418-17.756-10.217-36.111-8.956-86.103,3.351Z"/>
    <path class="st6" d="M88.475,321.568c-2.903,7.531-3.005,14.45-.44,21.68,6.294,17.743,34.537,41.737,50.177,51.642,6.979,4.423,13.382,8.751,24.133,10.202-7.808,1.739-15.009-.251-20.629-5.131-2.324.212-4.602.866-5.98,2.436-4.86,5.554,5.375,8.328,16.999,11.971,11.624,3.643,19.429-3.99,24.11-7.286,3.435-2.413,11.62-13.591,15.611-21.165-4.39,1.689-10.176,3.719-17.581,5.977-30.99,9.428-83.881-29.334-86.4-70.327h0ZM134.192,317.419c3.488-3.25,25.7-22.669,63.808-27.75,12.49,29.139,7.832,80.618,12.258,88.001,4.427,7.379,7.346,14.82,7.838,16.751-2.314-.479-4.476-.949-6.453-1.392-2.255-3.276-4.989-7.283-7.703-11.362-.132,1.527-.456,4.939-1.065,9.283-2.562-.641-4-1.041-4-1.041,0,0,.754,1.58,2.056-7.557,1.276-.595,2.126-1.038,2.605-1.296-.688-1.031-1.369-2.066-2.043-3.094.235-1.964.479-4.248.734-6.899,2.083-21.508-13.065-79.676-13.065-79.676l-45.209,29.135c-3.18-1.574-6.407-2.585-9.762-3.101Z"/>
    <path class="st10" d="M142.695,259.684c-1.088,1.005-2.192,2.026-3.316,3.081-3.448,3.223-6.718,6.308-9.819,9.266,7.471,5.723,14.553,9.977,18.768,11.749,10.976,4.615,5.699-12.817-5.633-24.097Z"/>
    <path class="st10" d="M117.392,283.913c-4.691,4.718-8.843,9.091-12.46,13.191,10.03,5.306,16.546,7.422,21.009,9.296,11.597,4.88,4.123-11.402-8.549-22.487Z"/>
    <path class="st10" d="M487.48,28.457c.562.172,1.091.423,1.58.745,3.002,1.985,3.789,6.035,2.853,9.331-.893,3.165-3.494,6.073-6.939,6.271-.711.043-1.425-.041-2.106-.25-.562-.17-1.091-.421-1.58-.745-3.002-1.985-3.789-6.037-2.856-9.331.899-3.165,3.498-6.071,6.946-6.273.711-.041,1.422.043,2.103.251Z"/>
    <path class="st10" d="M468.114,23.763c.43.066.853.179,1.26.332,3.752,1.415,5.491,5.797,5.147,9.566-.304,3.336-2.278,6.78-5.699,7.67-.817.212-1.656.251-2.489.122-.43-.068-.85-.179-1.26-.332-3.749-1.415-5.491-5.797-5.147-9.569.304-3.332,2.281-6.777,5.703-7.666.813-.212,1.653-.253,2.486-.122Z"/>
    <path class="st10" d="M450.269,22.412c.347.028.691.088,1.028.173,3.987,1.018,6.185,5.405,6.185,9.27,0,3.312-1.6,6.924-4.906,8.106-.813.291-1.669.4-2.526.329-.344-.028-.691-.088-1.028-.174-3.987-1.018-6.185-5.405-6.185-9.27,0-3.313,1.597-6.924,4.906-8.106.81-.291,1.666-.4,2.526-.329Z"/>
    <path class="st10" d="M445.809,47.902c1.498-.112,3.002-.188,4.503-.228,4.628-.122,9.29.083,13.888.608,4.123.473,8.288,1.21,12.282,2.339,4.245,1.198,12.731,4.109,13.485,9.295.321,2.205-.42,4.88-1.263,6.901-1.223,2.949-3.104,5.688-5.356,7.951-2.767,2.789-6.106,4.871-9.822,6.152-4.681,1.612-9.64,1.851-14.523,1.182-7.567-1.035-14.576-5.587-19.207-11.571-2.007-2.589-3.713-5.646-4.523-8.837-.698-2.757-.747-5.766.588-8.348,1.934-3.742,5.98-5.146,9.948-5.445Z"/>
    <path class="st7" d="M445.908,49.21c19.945-1.504,41.727,3.762,42.762,10.895.879,6.057-7.716,23.684-29.489,20.7-19.756-2.706-33.165-30.095-13.273-31.595Z"/>
    <path class="st7" d="M450.16,23.72c3.319.278,6.01,3.921,6.01,8.136s-2.691,7.407-6.01,7.128c-3.319-.278-6.013-3.921-6.013-8.136s2.694-7.405,6.013-7.128Z"/>
    <path class="st7" d="M467.912,25.059c3.309.516,5.683,4.314,5.303,8.485-.38,4.169-3.372,7.131-6.681,6.613-3.306-.517-5.683-4.316-5.303-8.485.38-4.17,3.372-7.131,6.681-6.613Z"/>
    <path class="st7" d="M487.097,29.712c3.028.922,4.618,4.713,3.557,8.465-1.061,3.752-4.377,6.046-7.402,5.124s-4.618-4.713-3.554-8.465c1.061-3.754,4.374-6.048,7.399-5.124Z"/>
    <path class="st10" d="M168.64,112.35c13.68-28.469,34.963-48.05,67.084-51.566,11.075-1.212,22.193-.388,33.158,1.423,4.476.741,8.913,1.65,13.353,2.595,3.289.701,6.632,1.468,9.957,1.987,15.108,2.36,33.033,27.889,40.693,39.907,5.918,9.291,11.435,19.262,15.816,29.375,2.556,5.909,6.486,15.883,5.967,22.391-.81,10.133-10.83,23.786-17.184,31.297-23.773,28.09-35.026,32.814-68.152,40.829-12.067,2.919-24.738,2.686-36.927.645-15.713-2.625-30.51-4.642-44.683-11.868-5.703-2.906-11.319-6.137-16.616-9.73-3.441-2.334-7.369-5.182-10.219-8.222-7.637-8.149-8.004-22.822-7.131-33.258,1.547-18.616,7.845-38.369,14.797-55.609l.043-.099.043-.098Z"/>
    <path class="st12" d="M171.645,113.793c-17.35,43.017-18.735,74.239-8.328,85.342,10.407,11.1,63.14,42.323,106.157,31.916,43.02-10.407,80.489-55.507,81.874-72.854,1.389-17.346-37.469-84.648-59.672-88.118-22.202-3.47-86.037-27.059-120.031,43.713Z"/>
    <path class="st6" d="M333.46,113.973c-12.764-21.307-29.727-42.01-41.784-43.893-18.487-2.889-65.834-19.718-100.791,15.586-1.468,4.109-2.916,8.44-4.447,12.963,4.162,14.802,24.976,21.046,57.821,18.272,32.841-2.777,52.961-21.973,54.349-31.687.787-5.493,18.94,9.819,34.851,28.76Z"/>
    <path class="st1" d="M169.159,204.161c17.693,13.277,62.713,35.989,100.315,26.891,27.075-6.552,51.949-26.842,67.011-45.309-17.568-19.555-54.551-32.248-97.885-26.985-43.301,5.258-60.958,26.783-69.441,45.402Z"/>
    <path class="st10" d="M221.664,188.094c5.593-4.374,12.374-8.09,18.771-11.159,6.84-3.281,14.487-6.427,21.842-8.321,3.789-.975,11.349-2.805,13.832,1.453.334.572.539,1.203.612,1.861.569,5.126-3.114,15.523-5.012,20.335-2.003,5.086-6.1,14.463-10.467,17.834-3.065,2.365-6.781,4.139-10.506,5.174-5.104,1.417-10.847,1.606-15.739-.656-5.422-2.503-8.457-7.342-9.653-13.057-.698-3.299-2.473-6.276-4.364-9.02-.985-1.431-.688-3.375.684-4.443Z"/>
    <path class="st10" d="M223.681,190.676c2.995,4.349,4.268,7.351,4.866,10.207,3.461,16.481,21.634,13.607,30.692,6.619,6.07-4.683,14.916-28.967,14.222-35.211-.694-6.245-34.692,6.59-49.781,18.386Z"/>
    <path class="st7" d="M237.268,212.012c6.956,2.638,14.377.319,19.237-2.891,5.706-3.767,8.453-9.195,11.22-15.764-13.475.104-22.546,3.408-32.186,14.887-1.911,2.271-.565,2.898,1.729,3.769Z"/>
    <path class="st1" d="M281.395,108.383c-6.764.967-12.989,8.868-14.49,18.945-1.603,10.794,2.797,20.14,9.911,21.422,3.61,1.58,8.093,1.65,13.009-1.349,4.807-2.939,5.498-11.612,4.82-20.186.225-3.718-.268-7.187-1.332-10.113-1.045-5.901-2.238-10.263-2.238-10.263,0,0-4.618-.751-9.68,1.544Z"/>
    <path class="st5" d="M281.395,108.383c-6.764.967-12.989,8.868-14.49,18.945-.883,5.944.056,11.445,2.261,15.406.215-.927.274-2.094.132-3.534-1.488-15.154,10.582-24.629,23.733-23.622-.965-5.109-1.957-8.738-1.957-8.738,0,0-4.618-.751-9.68,1.544Z"/>
    <path class="st10" d="M298.084,112.978c-10.771-9.159-24.89-1.936-28.59,11.69-1.815,6.683-1.012,11.546.169,17.421.367,1.825.288,2.208.023,1.894-3.561-4.279-4.228-14.148-3.329-19.29,3.21-18.326,21.518-25.941,34.342-14.452.757.719,2.433,3.524,1.712,4.279-.721.757-3.57-.823-4.327-1.542Z"/>
    <path class="st10" d="M291.802,106.533c-8.787,0-16.556,9.531-17.353,21.289-.8,11.758,5.676,21.288,14.46,21.288s16.559-9.531,17.356-21.288c.797-11.758-5.676-21.289-14.463-21.289Z"/>
    <path class="st5" d="M237.883,220.99c4.605,1.334,13.809,1.694,19.938-2.283,8.761-5.679,5.19,1.345-2.579,6.463-5.66,3.726-13.191,1.926-17.402-.708-3.114-1.949-4.989-4.929.043-3.473Z"/>
    <path class="st1" d="M286.1,117.625c3.944,0,7.161-1.894,7.161-4.215s-3.217-4.213-7.161-4.213-7.164,1.893-7.164,4.213,3.22,4.215,7.164,4.215Z"/>
    <path class="st9" d="M279.402,132.915c.03-1.116.929-1.994,2.013-1.964,1.081.031,1.934.959,1.901,2.073-.063,2.346.529,4.053,1.484,5.213.777.944,1.822,1.555,2.959,1.873,1.19.332,2.47.345,3.653.078,1.507-.339,2.82-1.114,3.514-2.225.588-.941,1.798-1.213,2.711-.612.912.605,1.18,1.855.595,2.793-1.279,2.053-3.508,3.441-5.99,3.999-1.775.402-3.706.38-5.514-.124-1.858-.519-3.593-1.554-4.926-3.17-1.541-1.873-2.499-4.49-2.4-7.934Z"/>
    <path class="st1" d="M187.107,123.126c-5.151,2.129-8.39,10.731-7.418,20.546,1.045,10.508,6.539,18.569,12.454,18.507,3.203.846,6.774.109,10.023-3.617,3.184-3.646,1.868-11.984-.509-19.984-.618-3.561-1.752-6.757-3.223-9.336-2.099-5.402-3.98-9.319-3.98-9.319,0,0-3.825.121-7.346,3.203Z"/>
    <path class="st5" d="M187.107,123.126c-5.151,2.129-8.39,10.731-7.418,20.546.575,5.785,2.499,10.829,5.101,14.182-.03-.917-.235-2.033-.658-3.37-4.43-14.085,3.108-25.226,13.749-26.637-1.865-4.668-3.428-7.924-3.428-7.924,0,0-3.825.121-7.346,3.203Z"/>
    <path class="st10" d="M201.329,124.478c-10.506-6.739-20.15,2.64-20.16,16.207-.003,6.656,1.676,11.119,3.875,16.47.681,1.661.701,2.04.423,1.787-3.742-3.412-6.39-12.637-6.781-17.67-1.388-17.931,11.491-28.434,24.127-19.857.754.544,2.688,2.901,2.275,3.746-.407.846-3.005-.137-3.759-.683Z"/>
    <path class="st10" d="M194.965,119.504c-6.966,1.579-11.082,12.002-9.19,23.279,1.891,11.28,9.072,19.141,16.037,17.563,6.966-1.579,11.082-12.002,9.19-23.279-1.891-11.28-9.071-19.141-16.037-17.563Z"/>
    <path class="st1" d="M191.015,123.05c3.137-.711,6.083.499,6.582,2.704.503,2.202-1.636,4.566-4.774,5.276-3.134.711-6.08-.499-6.582-2.704-.499-2.203,1.64-4.565,4.774-5.276Z"/>
    <path class="st9" d="M190.793,146.715c-.215-1.06.311-2.055,1.174-2.22.87-.165,1.742.56,1.957,1.62.453,2.235,1.286,3.746,2.294,4.673.817.754,1.778,1.146,2.747,1.241,1.015.101,2.033-.117,2.916-.583,1.121-.593,1.997-1.564,2.307-2.739.261-.995,1.167-1.473,2.02-1.064.853.407,1.329,1.542,1.068,2.537-.575,2.174-2.043,3.889-3.891,4.863-1.322.699-2.856,1.026-4.397.874-1.584-.159-3.184-.827-4.589-2.119-1.623-1.497-2.942-3.802-3.607-7.083Z"/>
    <path class="st0" d="M342.234,253.598c.608,7.078,2.182,14.883,4.364,35.373.093.856.182,1.736.271,2.642.112,1.157.221,2.35.331,3.583,2.288,26.285,3.329,68.443,1.425,81.941.069-.043.139-.079.212-.122.202-.119.413-.215.628-.284,4.129-22.57,5.65-51.883,1.983-80.076-.155-1.21-.324-2.42-.502-3.627-.089-.628-.185-1.256-.284-1.884-.81-5.213-1.808-10.374-3.008-15.429-.863-3.633-1.828-7.214-2.909-10.715-.453-1.471-1.316-5.458-1.977-9.2-.192-.751-.37-1.481-.532-2.202Z"/>
    <path class="st1" d="M232.937,409.006c-16.649-61.057-32.656-136.548,19.521-157.64,52.177-21.092,99.822,26.92,85.389,136.822-14.43,109.905-104.91,20.817-104.91,20.817Z"/>
    <path class="st10" d="M338.899,572.336c.03-.397-.007-.903-.033-1.296-.099-1.557-.307-3.131-.532-4.675-1.177-8.033-3.048-16.202-4.919-24.097-1.633-6.896-4.298-13.987-7.015-20.527-3.547-8.526-7.63-16.91-12.153-24.96-5.716-10.169-12.744-20.996-20.93-29.35-4.85-4.946-12.715-11.587-20.196-10.777-5.458.592-10.556,2.066-15.323,4.814-7.511,4.324-13.273,11.293-18.189,18.292-3.233,4.599-6.218,9.399-9.134,14.202-3.501,5.756-6.919,11.564-10.407,17.33-8.539,14.136-15.065,29.75-19.673,45.599-1.468,5.042-2.757,10.152-3.805,15.293-.393,1.931-.784,3.914-1.058,5.865-.208,1.488-1.349,2.612-2.84,2.797-2.648.331-5.405.499-8.07.608-5.719.235-11.587.102-17.264-.665-10.596-1.428-17.796,2.86-19.039-9.577-3.412-34.124-2.079-84.179,8.166-117.443,2.665-8.645,5.809-17.171,9.581-25.337,5.861-12.682,12.275-25.433,19.836-37.198,1.967-3.058,4.023-6.03,6.132-8.992,1.266-1.775,2.625-3.613,3.703-5.511.813-1.422,1.359-2.774,1.646-4.397.198-1.111.883-1.977,1.921-2.43,1.035-.45.86-8.916,1.812-8.308,1.709,7.468,5.098,11.174,8.387,13.009,14.487,8.1,30.596,14.202,47.374,17.042,15.475,2.632,31.238,2.592,46.733.139,11.174-1.769,22.288-4.79,32.801-8.986,2.202-.876,4.539-1.851,6.827-2.909,1.944-.899,5.875-4.407,7.101-7.042,1.349-.78,1.511,3.636,2.562,4.787,1.392,1.521,2.717,3.266,3.941,4.916,3.289,4.447,6.268,9.174,8.979,13.991,9.666,17.155,16.358,36.256,20.477,55.474,2.142,9.99,3.25,20.269,3.759,30.467.962,19.35-.182,39.132-2.443,58.363-.764,6.483-1.666,12.953-2.728,19.389-.416,2.532-.85,5.078-1.352,7.59-.278,1.388-1.345,2.4-2.744,2.605l-38.16,5.551c-1.055.152-2.033-.172-2.79-.926-.737-.737-1.064-1.686-.939-2.721Z"/>
    <path class="st2" d="M200.612,372.909c-.36,2.017-1.022,3.676-2.027,5.445-3.845,6.761-12.774,15.161-29.545,51.45-21.158,45.797-20.236,115.41-18.153,136.224,2.079,20.817,41.397,11.564,41.397,11.564,0,0,4.86-34.692,24.98-67.996,20.12-33.304,29.836-53.424,55.507-56.201,25.67-2.774,57.589,61.752,63.834,88.12,6.245,26.365,5.551,31.221,5.551,31.221l38.16-5.551s13.184-65.914,2.777-114.484c-10.41-48.567-32.613-72.853-32.613-72.853,0,0-73.13,42.465-149.868-6.939Z"/>
    <path class="st11" d="M200.612,372.909c-.36,2.017-1.022,3.676-2.027,5.445-3.845,6.761-12.774,15.161-29.545,51.45-3.398,7.362-6.228,15.34-8.576,23.631,11.802-30.636,26.881-54.402,33.787-59.004,9.716-6.476,16.652-2.083,24.517,1.62,7.865,3.699,21.74,6.242,21.74,6.242,0,0-24.517-4.625-28.219-16.88-.701-2.334-1.283-4.552-1.755-6.612-3.299-1.802-6.605-3.755-9.921-5.891Z"/>
    <path class="st9" d="M386.887,485.393c-.426-11.148-1.573-22.315-3.795-32.692-10.41-48.567-32.613-72.853-32.613-72.853,0,0-.807.466-2.318,1.24,1.501,3.613,2.013,7.475-2.367,10.394-4.86,3.236-3.471,1.62-3.471,1.62,0,0,8.791-5.898,10.063-5.203,1.018.556,27.753,41.998,34.501,97.495Z"/>
    <path class="st11" d="M170.052,579.5c10.843.77,22.232-1.908,22.232-1.908,0,0,4.86-34.692,24.98-67.996,17.254-28.557,26.854-47.42,45.427-53.966-7.742,1.17-15.458,2.784-22.13,4.546-20.12,5.319-36.309,46.256-50.65,76.783-14.338,30.53-17.112,25.905-29.142,25.442,2.612,6.347,5.742,12.007,9.283,17.098h0ZM278.787,453.904c24.411,6.414,52.052,63.269,57.817,87.61,6.245,26.365,5.551,31.221,5.551,31.221l32.167-4.678c-9.336-9.62-17.74-24.305-23.208-42.197-10.179-33.307-38.16-64.3-49.493-69.616-4.926-2.311-13.293-2.876-22.834-2.341Z"/>
    <path class="st10" d="M324.244,116.758c1.663,12.768-3.884,28.864-22.758,37.19-18.874,8.326,51.619,2.775,22.758-37.19Z"/>
    <path class="st10" d="M321.192,158.39c13.878-.278,21.089-13.045,19.7-20.54-1.385-7.493,17.211,35.803-19.7,20.54Z"/>
    <path class="st10" d="M168.379,137.849c-1.418,10.873,3.312,24.585,19.386,31.676,16.073,7.093-43.969,2.365-19.386-31.676Z"/>
    <path class="st10" d="M175.976,174.972c-11.819-.236-18.893-12.498-17.71-18.88,1.18-6.384-13.733,31.882,17.71,18.88Z"/>
    <path class="st10" d="M350.053,222.638c-4.294,15.151-7.009,18.989-2.698,38.931,1.702,7.885-.549,1.074-.843,9.012-5.858-17.564-7.676-32.937,3.541-47.943Z"/>
    <path class="st10" d="M166.138,308.397c5.441-7.428,23.852-17.988,31.393-21.541,1.891-.889,1.488-.628,2.929-.526-2.522,4.205-29.178,19.786-34.322,22.067Z"/>
    <path class="st10" d="M230.987,462.288c21.535-7.247,51.85-13.842,73.825-5.547-10.741-.618,1.699.152-8.698-.668-21.964-1.729-43.354,4.886-65.127,6.215Z"/>
    <path class="st10" d="M194.35,376.251c1.59,1.448,3.164,2.827,4.741,4.136,16.192,13.478,31.975,19.806,53.867,22.837,12.569,1.746,27.208,2.357,41.919,1.217,21.538-1.67,43.245-8.024,58.859-19.145l3.253-2.384c-.975,1.088.734,4.397-.007,4.215-1.217-.294-3.709-.192-6,1.541-33.747,25.538-114.342,26.791-149.319-4.493-.879-.787-4.156-2.747-6.595-2.185-2.39.549.731-3.808-.718-5.739Z"/>
    <path class="st10" d="M222.973,195.701l7.114.116c.714.013,1.289.597,1.289,1.312,0,1.564-.053,3.174-.178,4.731-.053.674-.327,1.302-.912,1.684-2.608,1.711-7.138-4.071-8.387-5.749-.304-.412-.347-.926-.112-1.38.235-.456.678-.722,1.187-.714Z"/>
    <path class="st1" d="M222.953,197.013c3.355,4.509,6.764,6.88,6.939,4.741.172-2.139.172-4.625.172-4.625l-7.111-.116Z"/>
    <path class="st10" d="M263.021,191.413c-.929,2.232-2.116,4.628-3.564,6.569-.896,1.203-2.509,3.065-4.218,2.469-.717-.246-1.16-.841-1.395-1.534-.605-1.782-1.131-3.633-1.593-5.46-.175-.694.238-1.403.932-1.589l8.285-2.225c.496-.132.988.016,1.326.402.337.384.423.894.228,1.367Z"/>
    <path class="st1" d="M261.811,190.91c-2.598,6.261-5.894,10.037-6.728,7.587-.83-2.453-1.56-5.362-1.56-5.362l8.288-2.225Z"/>
    <path class="st10" d="M207.101,157.818c8.318-5.238,37.013-8.493,47.486-8.997,7.326-.352,16.917.271,21.66,6.769,2.919,3.994,3.137,8.096,2.357,12.811-3.524,21.34-15.541,25.771-35.155,28.897-9.604,1.527-21.234,2.691-29.995-2.46-5.167-3.035-8.612-7.742-11.131-13.086-3.66-7.782-4.294-16.27,2.721-22.406.645-.562,1.332-1.073,2.056-1.527Z"/>
    <path class="st1" d="M208.847,159.674c-5.488,3.455-8.242,10.723-3.554,20.68,5.799,12.325,14.506,15.802,28.652,14.789,1.279-.091,2.142-5.367,3.514-5.529,1.213-.142,2.929,4.833,4.218,4.64.417-.063.833-.127,1.256-.195,19.601-3.122,29.314-7.285,32.438-26.191,1.997-12.106-4.718-17.455-20.626-16.69-9.62.463-38.359,3.747-45.9,8.496Z"/>
    <path class="st5" d="M206.437,182.603c5.789,10.5,14.262,13.488,27.509,12.541,1.279-.091,2.142-5.367,3.514-5.529,1.213-.142,2.929,4.833,4.218,4.64.417-.063.833-.127,1.256-.195,18.341-2.921,28.024-6.756,31.753-22.727-3.779,3.673-8.622,6.966-13.667,8.903-24.097,9.25-20.12-14.381-18.645-14.619l-12.949,2.081s7.861,12.488-1.273,17.231c-6.271,3.255-15.868,3.403-21.717-2.326Z"/>
    <path class="st10" d="M221.727,153.639c-2.165,1.365-3.253,4.235-1.405,8.167,7.627,16.206,24.666,13.325,27.681-4.931.79-4.782-1.861-6.896-8.149-6.594-3.792.183-15.148,1.481-18.126,3.357Z"/>
    <path class="st10" d="M236.798,171.962l.119,1.281c.241,2.6.466,5.009.615,7.045.783,10.524.162,16.609-6.5,17.103l-.136-1.959c4.966-.369,5.366-5.724,4.678-15.006-.169-2.265-.38-4.546-.612-7.009l-.119-1.279,1.954-.177Z"/>
    <path class="st10" d="M236.821,171.443l.106,1.281c.271,3.281.519,6.251.817,8.824.942,8.103,2.4,12.576,7.012,12.04l.225,1.95c-6.235.724-8.103-4.417-9.187-13.769-.307-2.653-.552-5.613-.823-8.883l-.106-1.283,1.957-.16Z"/>
    <path class="st10" d="M184.859,108.117c2.086-4.9,13.478-5.091,16.589,2.231,3.111,7.326-15.587,3.339-16.589-2.231Z"/>
    <path class="st10" d="M294.533,97.67c-2.083-4.899-13.475-5.091-16.589,2.232-3.111,7.323,15.587,3.339,16.589-2.232Z"/>
    <path class="st10" d="M190.886,75.443c22.966,5.309,45.03,3.98,67.652-2.005,3.99-1.055,7.934-2.235,11.875-3.468,3.18-.995,6.354-2.037,9.551-2.969,3.898-1.136,10.453-3.192,13.806.096,1.917,1.883,2.03,4.579,1.6,7.068-.777,4.494-1.584,9.012-3.25,13.277-3.303,8.438-9.247,13.692-17.412,17.378-5.739,2.59-12.093,4.194-18.275,5.314-8.956,1.623-18.206,2.362-27.294,2.745-10.288.438-24.312.412-34.005-3.539-5.875-2.395-10.433-6.412-11.399-12.938-.347-2.326-.189-4.698.228-7.004.403-2.236,1.041-4.407,1.706-6.579.443-1.458,1.018-3.141,1.23-4.647.136-.942.608-1.702,1.395-2.241.784-.537,1.663-.702,2.592-.489Z"/>
    <path class="st2" d="M190.148,78.636c-1.392,9.731-18.044,33.38,38.855,30.968,56.895-2.41,60.013-17.921,63.137-35.998,3.124-18.077-39.202,19.548-101.991,5.03Z"/>
    <path class="st10" d="M187.375,82.945c-1.368-2.037-2.899-4.007-4.357-5.98-1.841-2.486-3.643-5.005-5.27-7.638-3.375-5.466-6.466-12.141-5.57-18.773,1.071-7.919,7.329-12.806,14.219-15.867,7.028-3.122,15.197-5.288,22.665-7.009,9.706-2.236,19.621-3.909,29.489-5.119,12.897-1.58,26.781-2.577,39.724-1.643,7.554.546,20.599,2.119,25.019,9.167,1.815,2.896,2.876,6.106,3.26,9.508.344,3.03.139,6.109-.423,9.109-1.074,5.754-3.484,11.437-6.347,16.543-1.362,2.425-2.962,5.022-4.661,7.242l-.41.536-.585.341c-2.886,1.666-6.116,3.164-9.154,4.503-7.574,3.339-15.482,6.065-23.482,8.136-24.018,6.215-49.077,6.513-72.492-1.795l-1.022-.362-.602-.897Z"/>
    <path class="st1" d="M188.39,78.581c-8.073-10.999-24.434-30.294-.671-40.853,25.67-11.407,103.036-21.348,112.749-5.851,9.713,15.496-7.98,38.603-7.98,38.603,0,0-47.258,27.287-97.551,12.154-4.129-1.241-4.099-.711-6.546-4.053Z"/>
    <path class="st10" d="M212.576,52.514c6.986-4.387,15.376-5.939,23.528-5.754,2.86.064,5.736.339,8.552.818,1.147.197,2.357.423,3.478.729.589.159.975.676.969,1.283-.04,2.924-.159,5.883-.357,8.799-.149,2.091-.327,4.308-.734,6.364-.446,2.255-3.703,3.4-5.613,3.977-3.121.939-6.582,1.461-9.822,1.795-2.86.291-5.795.453-8.671.387-1.772-.043-4.486-.172-6.123-.878-.278-.121-.483-.307-.628-.575-.741-1.351-1.388-2.904-1.95-4.334-1.418-3.627-2.496-7.428-3.217-11.255-.103-.54.122-1.061.588-1.355Z"/>
    <path class="st13" d="M213.273,53.625c1.732,9.174,5.032,15.206,5.032,15.206,4.618,1.998,27.562.038,28.421-4.332.936-4.754,1.068-14.926,1.068-14.926,0,0-19.601-5.318-34.521,4.053Z"/>
    <path class="st5" d="M287.131,64.257c-.152.4-.314.793-.483,1.178-.043.096-.086.19-.129.288-.486,1.068-1.031,2.084-1.627,3.05-.079.126-.159.251-.238.375-2.255,3.509-5.17,6.336-8.169,8.572,8.635-3.261,14.288-6.288,15.67-7.055.218-.121.331-.185.331-.185,0,0,.056-.073.159-.21.278-.377.903-1.243,1.719-2.491.086-.134.175-.274.271-.418,4.39-6.83,13.372-23.45,5.832-35.484-9.713-15.497-87.078-5.556-112.749,5.851-2.969,1.317-5.306,2.772-7.114,4.326,47.516-10.597,122.723-20.153,106.527,22.203Z"/>
    <path class="st11" d="M268.863,87.154c5.848-2.127,5.174,11.237-13.164,19.781,10.291-1.855,17.478-4.498,22.579-7.731,2.169-1.377,3.961-2.856,5.458-4.431,5.475-5.766,6.939-12.763,8.242-20.232-2.288,1.203-4.701,2.309-7.005,3.324-7.574,3.339-15.482,6.065-23.482,8.136-12.414,3.213-25.105,4.843-37.704,4.522,17.402,3.283,38.759-1.071,45.076-3.369Z"/>
    <path class="st7" d="M153.158,90.541c4.853-6.445,13.121-8.685,22.394-3.413,1.507-.488,3.494-.762,5.147-.975-6.701-9.554-14.963-13.364-23.875-2.939-1.987,2.324-3.19,4.828-3.666,7.328Z"/>
    <path class="st7" d="M317.327,72.9c4.294-5.524,9.554-9.194,15.981-7.407-.526-.542-1.104-1.064-1.729-1.564-10.711-8.566-18.11-3.273-22.9,7.371,2.288-.14,5.203-.284,6.771.352.84.339,1.451.764,1.878,1.248Z"/>
    <path class="st9" d="M232.798,152.697c3.924-.498,7.256.294,7.445,1.772.185,1.478-2.84,3.08-6.767,3.577-3.921.499-7.256-.294-7.445-1.772-.188-1.478,2.843-3.078,6.767-3.577Z"/>
    <path class="st10" d="M206.84,179.492c.327-.154.718-.013.873.312.152.327.013.717-.314.871-4.225,1.992-8.437,5.739-11.733,10.238-3.174,4.331-5.488,9.349-6.136,14.146-.046.357-.377.608-.734.562-.36-.05-.608-.378-.562-.737.678-5.022,3.081-10.248,6.377-14.744,3.418-4.668,7.812-8.564,12.229-10.649h0ZM206.103,167.873c.337.127.509.504.38.841-.129.341-.503.511-.843.384-6.288-2.388-14.374-3.012-22.322-1.932-7.657,1.038-15.161,3.651-20.781,7.781-.291.213-.701.149-.912-.142-.215-.291-.152-.699.139-.912,5.802-4.261,13.521-6.956,21.379-8.022,8.153-1.106,16.474-.461,22.96,2.003h0ZM206.989,173.485c-5.898-.412-12.84,1.112-19.214,4.023-6.139,2.805-11.772,6.906-15.452,11.812-.218.288-.159.698.129.912.291.218.701.159.916-.129,3.547-4.724,8.995-8.686,14.949-11.405,6.182-2.823,12.896-4.304,18.586-3.908.36.023.671-.25.694-.61.023-.36-.248-.673-.608-.696Z"/>
    <path class="st10" d="M267.854,160.407c-.278.23-.691.189-.919-.089-.232-.278-.192-.689.089-.919,5.656-4.669,13.934-8.321,22.751-10.285,8.493-1.893,17.502-2.225,25.171-.4.354.084.572.437.489.79-.086.352-.44.569-.79.486-7.478-1.778-16.282-1.451-24.59.4-8.625,1.921-16.702,5.478-22.203,10.017h0ZM270.833,171.802c-.36-.02-.635-.327-.618-.689.02-.36.327-.636.691-.616,5.369.311,11.448,2.317,16.844,5.392,5.21,2.967,9.802,6.939,12.536,11.361.188.308.096.709-.215.899-.304.19-.707.094-.896-.213-2.615-4.227-7.038-8.043-12.067-10.911-5.233-2.98-11.105-4.921-16.275-5.222h0ZM268.889,166.152c-.331.144-.714-.008-.86-.341-.139-.331.013-.714.344-.858,5.881-2.544,13.617-3.675,21.33-3.311,7.438.35,14.87,2.089,20.632,5.289.314.177.426.575.251.889-.175.317-.572.43-.889.255-5.577-3.101-12.807-4.787-20.057-5.127-7.524-.355-15.052.741-20.751,3.203Z"/>
    <path class="st0" d="M218.708,147.542c3.25-4.686,4.979-5.82,11.105-7.642,4.721-1.403,13.412-.438,17.554,2.441l2.099,2.193c-12.242-3.104-18.976-1.008-30.758,3.007Z"/>
    <path class="st10" d="M219.171,146.618c3.25-4.688,4.516-6.513,10.642-8.336,4.721-1.403,11.908-.785,16.054,2.094l2.443,2.425c-12.238-3.106-18.05-2.397-29.138,3.817Z"/>
    <path class="st8" d="M246.115,49.19c-1.934,4.832-4.433,8.521-8.202,11.381-2.516,1.909-5.597,3.448-9.448,4.711-.026.007-.05.015-.073.023-2.205.717-4.665,1.347-7.412,1.904-.033.005-.063.012-.093.017-.995.202-2.027.393-3.101.575.073.149.139.284.195.402l.007.008c.198.407.317.62.317.62,4.618,1.998,27.562.038,28.421-4.332.06-.297.112-.615.165-.95v-.003c.155-.994.284-2.136.393-3.331.433-4.876.509-10.642.509-10.642,0,0-.605-.162-1.679-.382Z"/>
    <g>
      <path class="st10" d="M123.458,590.879c-3.742,1.346-7.937,1.901-11.888,1.901-3.151,0-6.919-.565-8.877-3.332-.251-.354-.416-.711-.512-1.107-.38.122-.79.175-1.223.152-2.192-.122-4.523-.327-6.665-.8-1.395-.307-2.661-.955-3.686-1.954-3.934-3.825-2.777-10.992-1.458-15.71.972-3.484,3.187-9.399,5.709-12.043.747-.787,1.56-1.511,2.423-2.165,3.941-2.956,8.592-3.984,13.422-4.238,6.82-.357,14.344.704,21.075,1.772,5.309.843,10.563,1.908,15.816,3.055,4.645,1.008,9.28,2.073,13.951,2.952,11.69,2.205,22.067,2.704,33.915,1.22,1.263-.159,2.43.374,3.137,1.435,3.012,4.516,5.25,11.303,6.063,16.583.089.569.093,1.147.02,1.719-.704,5.326-8.093,7.789-12.47,9.048-7.772,2.238-16.483,3.418-24.52,4.318-6.837.77-13.71,1.322-20.579,1.722-4.407.255-8.926.499-13.343.499-3.289,0-6.47-.866-9.085-2.913-.694-.542-1.114-1.269-1.226-2.113Z"/>
      <path class="st12" d="M131.263,556.59c-19.627-3.114-28.302-2.357-34.035,3.656-3.319,3.484-10.447,22.434-2.231,24.246,1.841.403,4.189.615,6.149.727-1.137-13.789,5.108-22.285,18.364-18.893-4.156,1.061-.827.337-4.999.903-8.893,1.203-11.015,9.27-9.561,18.113h.023s-.003.02-.017.059c.099.582.212,1.167.337,1.752.036.132.056.268.073.4.704.995,2.377,1.95,6.202,1.95,5.217,0,8.949-1.038,10.91-1.759-1.392-17.931,9.177-18.841,24.738-13.019-14.774-.668-24.186-3.729-20.559,15.201.033.162.046.324.046.483,1.504,1.177,3.765,2.218,7.065,2.218,10.453,0,69.286-2.903,67.653-13.531-1.388-9.019-5.554-15.264-5.554-15.264-26.593,3.322-40.521-3.422-64.604-7.243Z"/>
      <path class="st6" d="M198.674,569.357c-1.431-3.465-2.807-5.524-2.807-5.524-11.743,1.468-21.019.969-29.79-.37.926.81,2.036,1.689,3.365,2.638,10.225,1.676,21.055.955,29.231,3.256Z"/>
      <path class="st1" d="M92.399,570.587c-1.779,6.169-2.119,12.863,2.599,13.905,1.841.403,4.189.615,6.149.727-.347-4.195-.01-7.898,1.002-10.926-2.886.522-8.285-.387-9.749-3.706h0ZM105.543,574.174c-1.174,3.154-1.266,7.078-.592,11.167h.023s-.003.02-.017.059c.099.582.212,1.167.337,1.752.036.132.056.268.073.4.704.995,2.377,1.95,6.202,1.95,5.217,0,8.949-1.038,10.91-1.759-.572-7.389.886-11.885,3.888-14.212-2.665,1.098-4.612,2.784-5.842,3.091-1.851.463-13.415,3.355-14.688-.46-.228-.688-.311-1.352-.294-1.99h0ZM128.797,575.632c-.595.846-.949,1.927-.873,3.306.347,6.245,3.355,5.088,23.475,5.088,17.968,0,41.46-2.212,48.924-9.931.44,1.541.82,3.22,1.098,5.002,1.633,10.629-57.199,13.531-67.653,13.531-3.299,0-5.56-1.041-7.065-2.218,0-.159-.013-.321-.046-.483-1.597-8.334-.665-12.404,2.139-14.295Z"/>
      <path class="st10" d="M132.655,553.631c11.627,2.923,37.727,6.41,43.704,18.116l.946,2.797-1.772-2.235c-9.329-10.698-33.41-13.65-46.667-16.404-1.137-.311-.423-.446-.109-1.583.311-1.14,2.757-1.002,3.898-.691Z"/>
    </g>
    <g>
      <path class="st10" d="M412.902,590.879c3.739,1.346,7.934,1.901,11.888,1.901,3.144,0,6.913-.565,8.873-3.332.251-.354.417-.711.512-1.107.38.122.79.175,1.223.152,2.189-.122,4.523-.327,6.665-.8,1.395-.307,2.658-.955,3.686-1.954,3.931-3.825,2.774-10.992,1.458-15.71-.972-3.484-3.187-9.399-5.709-12.043-.747-.787-1.557-1.511-2.427-2.165-3.937-2.956-8.585-3.984-13.419-4.238-6.82-.357-14.344.704-21.075,1.772-5.313.843-10.562,1.908-15.815,3.055-4.645,1.008-9.28,2.073-13.951,2.952-11.69,2.205-22.067,2.704-33.919,1.22-1.259-.159-2.423.374-3.131,1.435-3.015,4.516-5.253,11.303-6.063,16.583-.089.569-.099,1.147-.023,1.719.701,5.326,8.093,7.789,12.47,9.048,7.772,2.238,16.483,3.418,24.52,4.318,6.837.77,13.71,1.322,20.579,1.722,4.407.255,8.926.499,13.343.499,3.289,0,6.473-.866,9.088-2.913.691-.542,1.111-1.269,1.226-2.113Z"/>
      <path class="st12" d="M405.09,556.59c19.627-3.114,28.305-2.357,34.038,3.656,3.319,3.484,10.447,22.434,2.232,24.246-1.841.403-4.189.615-6.146.727,1.134-13.789-5.111-22.285-18.368-18.893,4.155,1.061.826.337,4.999.903,8.89,1.203,11.015,9.27,9.561,18.113h-.026l.02.059c-.099.582-.212,1.167-.337,1.752-.036.132-.063.268-.073.4-.704.995-2.377,1.95-6.199,1.95-5.22,0-8.956-1.038-10.913-1.759,1.392-17.931-9.177-18.841-24.738-13.019,14.771-.668,24.183-3.729,20.56,15.201-.033.162-.05.324-.043.483-1.507,1.177-3.769,2.218-7.068,2.218-10.45,0-69.286-2.903-67.649-13.531,1.385-9.019,5.551-15.264,5.551-15.264,26.593,3.322,40.521-3.422,64.601-7.243Z"/>
      <path class="st6" d="M337.682,569.357c1.431-3.465,2.807-5.524,2.807-5.524,11.743,1.468,21.019.969,29.79-.37-.926.81-2.04,1.689-3.362,2.638-10.232,1.676-21.059.955-29.234,3.256Z"/>
      <path class="st1" d="M443.958,570.587c1.775,6.169,2.119,12.863-2.598,13.905-1.841.403-4.189.615-6.146.727.344-4.195.003-7.898-1.005-10.926,2.886.522,8.281-.387,9.749-3.706h0ZM430.81,574.174c1.177,3.154,1.269,7.078.595,11.167h-.026l.02.059c-.099.582-.212,1.167-.337,1.752-.036.132-.063.268-.073.4-.704.995-2.377,1.95-6.199,1.95-5.22,0-8.956-1.038-10.913-1.759.572-7.389-.886-11.885-3.888-14.212,2.665,1.098,4.612,2.784,5.841,3.091,1.851.463,13.415,3.355,14.688-.46.225-.688.311-1.352.291-1.99h0ZM407.556,575.632c.598.846.952,1.927.876,3.306-.347,6.245-3.356,5.088-23.475,5.088-17.968,0-41.463-2.212-48.924-9.931-.436,1.541-.823,3.22-1.094,5.002-1.636,10.629,57.199,13.531,67.649,13.531,3.299,0,5.561-1.041,7.068-2.218-.007-.159.01-.321.043-.483,1.597-8.334.665-12.404-2.142-14.295Z"/>
      <path class="st10" d="M403.705,553.631c-11.63,2.923-37.731,6.41-43.711,18.116l-.942,2.797,1.772-2.235c9.333-10.698,33.41-13.65,46.666-16.404,1.14-.311.423-.446.109-1.583-.311-1.14-2.757-1.002-3.894-.691Z"/>
    </g>
    <path class="st10" d="M136.659,397.439c3.643,3.065,11.855,6.305,11.855,6.305,0,0-9.772-6.88-11.855-6.305Z"/>
    <path class="st3" d="M450.16,38.983c3.319.279,6.01-2.913,6.01-7.128,0-.433-.026-.863-.083-1.279-.476,3.57-2.949,6.113-5.928,5.863-2.979-.25-5.451-3.207-5.928-6.857-.056.41-.086.831-.086,1.265,0,4.215,2.694,7.858,6.013,8.136Z"/>
    <path class="st3" d="M461.231,31.672c-.38,4.169,1.997,7.967,5.303,8.485,3.309.517,6.301-2.445,6.681-6.613.066-.732.046-1.453-.043-2.146-.529,3.957-3.435,6.714-6.638,6.215-2.727-.426-4.82-3.083-5.256-6.339-.017.132-.033.265-.046.398Z"/>
    <path class="st3" d="M479.467,35.897c-.519,3.382,1.045,6.569,3.785,7.404,3.025.922,6.341-1.372,7.402-5.124.347-1.232.413-2.468.228-3.607-.053.354-.129.709-.228,1.063-1.061,3.754-4.377,6.048-7.402,5.126-2.033-.621-3.418-2.534-3.785-4.861Z"/>
    <path class="st3" d="M488.67,60.105c-.357-2.453-3.17-4.688-7.514-6.499,2.291,4.737.185,10.546-5.726,15.011-8.761,6.618-24.725,7.012-37.145-2.817,3.663,6.956,11.574,13.728,20.897,15.006,21.773,2.984,30.368-14.643,29.489-20.7Z"/>
    <path class="st10" d="M239.952,215.649c-7.075.117-8.599,3.869-2.638,7.297l3.398,1.693-4-.03c-7.18-1.428-10.576-10.499.179-12.742.122.048.248.096.377.145,1.144.433,2.301.732,3.458.917.079.218.129.455.136.701.016,1.159.248,2-.909,2.018Z"/>
  </g>
  <rect class="st14" x="-262.199" y="-289.328" width="400" height="400"/>
  <rect class="st14" x="178.912" y="-289.328" width="400" height="400"/>
  <rect class="st14" x="-261.422" y="155.339" width="400" height="400"/>
  <rect class="st14" x="183.912" y="156.672" width="400" height="400"/>
  <metadata>
    <sfw xmlns="http://ns.adobe.com/SaveForWeb/1.0/">
      <slices/>
      <sliceSourceBounds x="-2051.88" y="-4498.52" width="4384.6" height="3952.85" bottomLeftOrigin="true"/>
      <optimizationSettings>
        <targetSettings fileFormat="PNG24Format" targetSettingsID="0">
          <PNG24Format filtered="false" interlaced="false" matteColor="#FFFFFF" noMatteColor="false" transparency="true"/>
        </targetSettings>
      </optimizationSettings>
    </sfw>
  </metadata>
</svg>