<?xml version="1.0" encoding="UTF-8"?>
<svg id="Layer_1" xmlns="http://www.w3.org/2000/svg" version="1.1" viewBox="0 0 556.255 533.393">
  <!-- Generator: Adobe Illustrator 30.1.0, SVG Export Plug-In . SVG Version: 2.1.1 Build 136)  -->
  <defs>
    <style>
      .st0 {
        fill: #c40019;
      }

      .st0, .st1, .st2, .st3, .st4, .st5, .st6, .st7, .st8, .st9, .st10, .st11 {
        fill-rule: evenodd;
      }

      .st1 {
        fill: #83171c;
      }

      .st2 {
        fill: #fff;
      }

      .st3 {
        fill: #c7c8c8;
      }

      .st4 {
        fill: #595858;
      }

      .st6 {
        fill: #d06d70;
      }

      .st7 {
        fill: #bbbbbc;
      }

      .st8 {
        fill: #878787;
      }

      .st9 {
        fill: #dbdbdb;
      }

      .st10 {
        fill: #cb5335;
      }

      .st11 {
        fill: #b3b3b4;
      }
    </style>
  </defs>
  <path class="st5" d="M490.712,448.772c1.154-.729,2.319-1.384,3.477-1.925.059-.049.122-.098.185-.147.195-.15.384-.247.617-.328,8.432-2.786,17.202-2.497,24.518,2.964,9.509,7.103,13.352,20.675,12.571,32.102-.31,4.537-1.37,9.23-3.564,13.237-1.939,3.553-6.598,4.244-10.235,4.593-4.666.446-9.405.373-14.081.216-7.895-.265-15.772-.886-23.618-1.744-.289-.035-.572-.07-.858-.108-8.442-.663-17.526-2.605-25.118-6.029-6.413-2.863-12.759-5.879-18.987-9.129-5.576-2.912-11.079-5.998-16.334-9.464-6.42-4.233-18.231-12.481-16.041-21.474.478-1.963,2.34-4.467,3.459-6.204,2.029-3.128,3.996-6.298,5.83-9.544,5.534-9.799,9.952-20.267,12.606-31.22.31-1.276.875-2.462,1.688-3.491,1.765-2.242,4.282-3.382,7.128-3.797l.418-7.246c-3.693-1.043-7.41-1.946-11.18-2.696-3.372-.673-6.758-1.21-10.148-1.778-.471-.08-.945-.16-1.416-.244-12.874,10.165-28.294,16.588-44.652,20.218-.778,11.947-1.154,23.922-1.227,35.858-.011,1.743-.017,3.484-.011,5.227,5.37.746,12.435,2.232,15.873,5.356,3.33,3.023,3.539,7.63,3.02,11.8-.453,3.651-1.402,7.215-2.294,10.779.24.474.422.987.533,1.527.53.262,1.071.516,1.587.753,1.58.743,3.184,1.423,4.781,2.127.551.24,1.106.481,1.656.725,8.428-4.418,17.879-5.712,26.527-.872,10.632,5.953,16.368,19.256,17.104,30.997.29,4.652-.157,9.579-1.852,13.952-1.489,3.857-6.137,5.178-9.778,6.019-4.694,1.081-9.534,1.642-14.322,2.113-13.527,1.325-27.2,1.646-40.782,1.437-7.222-.108-14.444-.401-21.641-.952-6.451-.499-12.902-1.189-19.273-2.34-6.908-1.252-19.183-3.783-22.865-10.953-8.114.676-16.274,1.011-24.427,1.102-.282,1.22-.645,2.417-1.091,3.574-1.493,3.857-6.137,5.178-9.778,6.019-4.694,1.081-9.537,1.642-14.325,2.113-13.523,1.325-27.196,1.646-40.778,1.437-7.222-.108-14.444-.401-21.644-.952-6.448-.499-12.899-1.189-19.27-2.34-7.748-1.405-22.241-4.418-23.803-13.774-.338-2.04.408-5.161.767-7.243.652-3.783,1.231-7.574,1.653-11.389,1.273-11.507,1.217-23.203-.704-34.638-.223-1.322-.167-2.668.181-3.961.833-3.093,3.058-5.307,5.942-6.877-1.492-4.687-2.954-9.387-4.394-14.091-2.214-7.232-4.394-14.479-6.737-21.672-3.093-9.495-6.538-18.872-10.433-28.071-2.148-5.07-4.617-10.005-7.027-14.953-2.786-5.729-5.544-11.48-7.989-17.362-3.864-9.293-7.142-19.259-7.825-29.358-1.618-23.876-.181-47.397,9.973-69.429.279-.6.562-1.199.848-1.792-1.043.014-2.082,0-3.117-.049-8.442-.387-16.097-2.964-22.516-8.564-6.671-5.82-10.845-13.879-14.074-21.983-3.327-8.359-5.782-17.024-8.861-25.47-1.806-4.945-3.808-9.903-6.81-14.262-.45-.649-.914-1.283-1.398-1.911-2.504-.732-5.07-1.28-7.501-1.712-9.76-1.743-18.576.739-27.419,4.694-1.782.795-3.536,1.635-5.304,2.465-1.517.715-3.058,1.433-4.624,2.036-2.532.969-5.715,1.866-8.139.136-1.472-1.053-2.483-2.497-2.702-4.317-.209-1.709.328-3.396,1.137-4.892-.38.077-.76.143-1.126.202-2.849.453-6.427.547-8.728-1.489-1.053-.931-1.663-2.159-1.89-3.532-.907-5.431,6.308-9.408,10.332-11.361.959-.466,1.953-.917,2.968-1.355-.711-.176-1.395-.389-2.044-.643-2.319-.912-4.484-2.561-4.749-5.218-.269-2.664,1.548-4.992,3.546-6.53,2.27-1.751,5.189-2.861,8.031-3.194,2.071-.244,4.198-.195,6.273-.023,2.723.225,5.398.676,8.09,1.112.324.056.959.166,1.653.27-2.319-2.805-7.093-8.878-4.882-12.479,1.719-2.8,5.949-2.049,8.582-1.39,6.294,1.571,13.272,6.718,18.032,10.985,6.828,6.116,12.906,13.669,17.181,21.782.136.256.272.514.405.772,1.064.788,2.078,1.637,2.919,2.546,6.964,7.532,11.34,15.891,15.483,25.174,4.188,9.384,7.958,18.447,14.58,26.464,3.348,4.056,12.843,3.397,17.491,2.678,9.415-1.454,19.113-5.234,27.977-9.767,7.058-6.748,14.995-11.926,24.839-14.07,10.692-2.333,22.018-.736,32.695.907,6.626,1.018,13.237,2.127,19.877,3.041,8.062,1.116,16.163,1.963,24.284,2.445,22.345,1.325,46.33-2.326,65.579-14.332,3.776-2.357,6.866-5.402,9.314-9.122,6.315-9.6,7.895-22.94,8.889-34.163.9-10.174,1.266-20.463,3.365-30.489,1.43-6.838,2.957-13.661,4.774-20.41.722-2.685,1.492-5.358,2.343-8.006-.042-.005-.077-.009-.119-.014-2.654-.326-5.318-.572-7.965-.98-7.937-1.224-14.848-3.766-21.707-7.937-7.877-4.788-14.356-12.772-19.169-20.532-4.652-7.506-8.655-16.166-10.887-24.72-1.58-6.061-3.281-15.999,3.055-19.978.82-.516,1.726-.882,2.675-1.09,2.179-.474,4.509-.56,6.737-.581,2.999-.026,5.998.122,8.986.359,7.497.593,14.988,1.745,22.314,3.444,10.695,2.479,25.268,7.163,32.388,15.945,3.079,3.797,5.862,7.856,7.87,12.327,1.221,2.706,2.023,5.506,2.982,8.301.136.394.279.785.432,1.173,7.013-3.82,15.225-6.211,22.956-7.686,11.755-2.247,24.092-2.729,36.011-1.691,6.849.595,14.105,1.771,21.23,3.708.014-1.916.028-3.82.244-5.742.481-4.23,1.709-8.32,3.254-12.275,3.588-9.194,14.311-16.881,22.544-21.782,5.558-3.307,11.392-6.211,17.376-8.657,3.881-1.587,8.92-3.567,13.077-3.963.914-.087,1.834-.017,2.723.211,6.608,1.702,7.937,10.435,8.247,16.165.415,7.625-.6,15.793-2.458,23.188-1.928,7.693-5.178,15.976-10.43,22.018-4.558,5.245-9.593,9.169-15.814,12.271-.621.31-1.242.607-1.873.9.516.671,1.018,1.357,1.496,2.061,2.312,3.389,4.09,6.995,5.356,10.775.199.46.363.934.45,1.409,1.011,3.404,1.615,6.941,1.824,10.58.24,4.23.805,8.477,1.569,12.693,2.873,4.952,4.54,10.97,5.335,16.534.265,1.846.471,4.463.513,7.24,1.89,6.369,3.986,12.681,6.218,18.939.715,2.002,1.681,5.219,2.42,7.21,13.582-7.701,27.995,1.942,24.347,17.178,5.255,3.756,7.344,4.781,10.242,11.741,2.748,6.598,3.595,14.234,3.878,21.327.174,4.376-.6,10.608-3.1,14.252-2.34,3.41-5.607,5.757-9.234,7.633-1.322.683-2.668,1.283-4.01,1.921-.363.174-1.346.631-1.737.941-.425,1.336-.809,2.675-1.165,4.028-.289,1.105-.565,2.211-.889,3.302-.722,2.403-1.736,4.509-2.95,6.646,1.942,4.226,1.873,9.53-1.046,13.307-.028.031-.049.063-.077.094-7.55,8.652-22.136,11.459-33.651,11.87-1.029.073-2.061.112-3.093.112-10.447,0-23.081-6.939-31.911-12.205-6.029-3.595-11.888-7.473-17.809-11.243-2.071-1.322-4.15-2.636-6.287-3.853.101.725.209,1.444.317,2.134.875,5.736,1.953,11.441,2.825,17.178,2.284,15.092,3.369,30.153,2.58,45.326.453.418.914.837,1.374,1.245,6.817,6.096,14.332,11.379,21.624,16.885,7.741,5.845,15.431,11.968,21.854,19.277,6.116,6.971,11.713,15.047,11.619,24.731-.052,5.398-1.824,10.486-3.961,15.378-2.549,5.834-5.517,11.469-8.163,17.258-.485,1.067-.973,2.134-1.461,3.201,4.083,2.633,8.529,6.096,10.14,9.621,1.827,3.993.255,8.209-1.813,11.755-1.207,2.064-3.062,4.132-4.645,5.921-.739.837-1.52,1.684-2.284,2.542.886,1.454,1.168,3.271.617,5.018-.024.077-.052.153-.08.23.398.544.698,1.151.896,1.792h0ZM304.73,462.567c-.143-1.182-.066-2.375.244-3.529.788-2.929,2.825-5.067,5.489-6.622-3.41-7.476-6.556-15.071-9.433-22.767-2.863-7.658-5.464-15.424-7.752-23.284-.823-.136-1.643-.272-2.455-.418-7.654-1.332-15.329-3.041-22.935-5.126-.391,8.453-.589,16.912-.645,25.351-.014,2.525-.014,5.053-.003,7.581,5.011.823,10.841,2.302,13.865,5.049,3.327,3.027,3.539,7.63,3.016,11.8-.453,3.651-1.398,7.218-2.291,10.779.237.478.418.987.53,1.527.534.265,1.074.516,1.59.757,1.583.739,3.18,1.423,4.781,2.124.547.244,1.105.485,1.656.725,4.575-2.399,9.457-3.874,14.343-3.947Z"/>
  <path class="st5" d="M484.226,444.723c1.44,2.082,5.067,5.845,6.211,7.061.711.764,1.437,1.527,2.155,2.298-3.198.708-4.774.401-9.161,2.657-1.391-1.022-2.765-2.064-4.122-3.128-4.181-3.288-15.94-12.7-16.787-18.098-1.269-8.083,5.028-5.701,9.652-12.118.959-1.335,2.703-1.778,4.188-1.064,1.583.767,4.007-12.47,6.256-11.194,5.454,3.096,11.748,7.368,13.516,11.235,1.51,3.299-.031,6.95-1.719,9.848-1.841,3.156-6.779,7.978-8.983,10.89-.405.537-.809,1.071-1.207,1.611Z"/>
  <path class="st1" d="M488.944,455.112c-4.446-4.743-6.713-11.675-5.855-12.86,5.084-7.041,11.825-14.461,9.987-18.482-1.238-2.703-5.914-5.984-10.168-8.537-4.035-2.42-6.378,21.404-6.378,21.404,0,0-12.093-10.615-10.688-1.646.568,3.616,8.903,15.089,18.485,21.927,1.618-.715,3.17-1.318,4.617-1.806Z"/>
  <path class="st5" d="M188.184,299.586c4.526-3.801,10.151-7.138,15.343-9.931,6.821-3.668,13.997-6.887,21.271-9.541,13.446-4.903,37.49-11.501,49.712-.813,9.659,8.449,7.351,23.454,4.143,34.327-3.55,12.038-6.078,24.445-7.989,36.841-3.832,24.891-5.335,50.511-5.496,75.688-.052,8.474.052,16.958.345,25.428.115,3.281.244,6.587.457,9.865.059.976-.24,1.834-.9,2.556-.659.722-1.489,1.102-2.465,1.123l-31.245.806c-1.269.031-2.371-.568-3.034-1.646-2.79-4.53-5.37-9.408-7.794-14.137-6.047-11.804-11.424-24.033-16.072-36.454-6.27-16.773-11.281-34.125-14.499-51.746-3.606-19.758-4.976-40.043-2.996-60.062.094-.931.502-1.702,1.217-2.305Z"/>
  <path class="st9" d="M190.408,302.233c-8.01,80.922,40.862,160.244,40.862,160.244l31.248-.799s-5.611-86.533,12.819-149.029c18.429-62.496-64.899-27.241-84.929-10.416Z"/>
  <path class="st7" d="M242.248,439.228c-1.817-17.23-3.306-38.784,6.762-46.633-9.22-3.404-18.189-7.389-26.69-11.954-.342,1.538-.663,3.09-.955,4.701l-7.023,43.481c1.468,3.4,2.912,6.591,4.296,9.548,4.028-.798,8.156-.966,10.932-.921,3.424.056,8.296.46,12.679,1.778Z"/>
  <g>
    <path class="st5" d="M279.166,463.519c2.207,1.388,7.156,3.48,8.728,4.171,2.647,1.161,5.339,2.302,7.919,3.588,2.284,1.14,5.537,2.734,5.412,5.75-.073,1.813-1.531,3.253-3.344,3.309-3.044.098-6.504-.436-9.499-.966-4.014-.708-8.017-1.639-11.947-2.692-5.29-1.416-20.211-5.562-23.196-10.325-4.47-7.131,2.448-7.421,4.223-15.357.37-1.653,1.841-2.779,3.532-2.703,1.81.084-1.252-13.411,1.391-13.115,6.409.722,14.088,2.218,17.321,5.158,2.765,2.514,2.786,6.587,2.357,10.008-.464,3.728-1.499,7.522-2.406,11.166-.167.67-.331,1.339-.492,2.009Z"/>
    <path class="st1" d="M297.77,476.882c.098-2.277-22.973-9.764-22.359-12.47,1.963-8.718,5.335-18.461,1.974-21.516-2.263-2.058-8.01-3.271-13.07-3.965-4.795-.652,2.622,22.82,2.622,22.82,0,0-15.727-5.147-10.768,2.765,2.936,4.687,32.217,12.665,41.601,12.365Z"/>
    <path class="st5" d="M274.082,463.721c.69.767,2.825,1.925,3.578,2.305,2.546,1.301,5.29,2.385,7.972,3.369,4.826,1.771,9.896,3.369,14.865,4.704.973.262,1.712.854,2.172,1.751.464.893.523,1.841.174,2.783l-9.164,24.856c-.377,1.015-1.119,1.733-2.145,2.078-1.025.345-2.054.216-2.968-.366l-40.001-25.623c-.659-.422-1.105-.976-1.374-1.716-1.283-3.473-2.598-6.936-3.881-10.409-.931-2.521-1.866-5.067-2.647-7.637-1.088-3.599-2.026-7.644-.499-11.263,1.175-2.793,3.529-4.701,5.984-6.34,4.341-2.891,9.802-4.289,15.002-3.961,4.767.296,9.837,2.145,12.536,6.319.502.774.9,1.601,1.193,2.476,1.628,4.885-1.196,11.392-.799,16.675Z"/>
    <path class="st1" d="M250.436,476.665c-8.414-22.834-10.779-25.965-2.368-31.572,8.414-5.611,21.128-4.164,23.531,3.048,1.227,3.675-1.52,10.758-.921,16.337.579,5.363,28.922,12.958,28.922,12.958l-9.168,24.853-39.997-25.623Z"/>
    <path class="st5" d="M257.797,471.288c4.045,3.689,12.435,10.447,17.889,11.923.813-1.433,1.684-2.765,2.772-4.16,3.257-4.199,7.372-7.647,12.013-10.228,8.024-4.453,17.115-6.022,25.425-1.37,9.994,5.59,15.357,18.286,16.055,29.316.269,4.345-.136,8.99-1.716,13.073-1.168,3.009-5.492,4.097-8.313,4.746-4.547,1.05-9.419,1.618-14.056,2.071-13.352,1.304-27.14,1.636-40.548,1.43-7.173-.112-14.363-.397-21.515-.948-6.361-.492-12.78-1.179-19.061-2.315-6.528-1.179-20.776-3.972-22.126-12.069-.262-1.569.485-4.934.764-6.552.663-3.829,1.245-7.647,1.67-11.514,1.294-11.703,1.234-23.576-.718-35.206-.174-1.029-.136-2.071.136-3.079,2.145-7.961,16.491-9.06,23.102-8.955,6.755.108,19.158,1.59,22.293,8.721,1.231,2.797,2.155,5.789,2.919,8.742,1.353,5.21,2.403,10.95,3.016,16.375Z"/>
    <path class="st0" d="M248.696,447.565c4.188,9.516,5.803,25.376,5.803,25.376,0,0,14.698,14.015,23.113,14.015.101,0,3.515-8.986,14.541-15.11,22.136-12.289,35.269,8.052,36.343,25.139.269,4.258-.213,8.313-1.489,11.612-2.964,7.661-116.149,10.569-118.98-6.409-.38-2.288,6.371-25.592,1.712-53.28-1.677-9.987,34.774-10.862,38.958-1.343Z"/>
    <path class="st5" d="M268.231,470.218c-4.805,1.615-9.419,4.069-13.16,7.508-1.681,1.545-4.31,1.437-5.855-.248-1.548-1.681-1.44-4.31.244-5.855,4.892-4.491,10.96-7.63,17.275-9.604,2.106-.663,4.268-1.2,6.444-1.597.882-.161,1.796-.307,2.688-.391,2.263-.227,4.303,1.447,4.526,3.714.045.485.007.956-.105,1.398,1.308.321,2.437,1.269,2.926,2.629.272.75.307,1.527.154,2.253.265-.115.533-.227.802-.328,2.131-.823,4.533.241,5.353,2.368.823,2.131-.237,4.533-2.368,5.356-1.995.771-4.129,2.002-5.89,3.187-4.076,2.741-7.626,6.301-10.053,10.594-1.119,1.984-3.644,2.692-5.632,1.573-1.988-1.116-2.696-3.648-1.573-5.632,1.855-3.285,4.219-6.231,6.94-8.812-3.56,2.497-6.797,5.496-9.422,8.948-1.381,1.82-3.975,2.176-5.792.795-1.82-1.377-2.176-3.975-.795-5.796,3.633-4.784,8.236-8.826,13.293-12.062Z"/>
    <g>
      <path class="st2" d="M270.009,490.523c-.746,1.325-2.424,1.792-3.745,1.05-1.329-.746-1.796-2.427-1.05-3.752,6.838-12.104,19.42-16.818,19.455-16.832,1.419-.551,3.016.157,3.567,1.576.548,1.423-.16,3.016-1.58,3.567-.031.011-10.8,4.049-16.647,14.391Z"/>
      <path class="st2" d="M260.423,486.447c-.917,1.21-2.643,1.447-3.857.527-1.21-.917-1.447-2.643-.527-3.857,9.032-11.884,22.314-16.529,22.353-16.543,1.43-.513,3.009.234,3.522,1.667.513,1.43-.234,3.006-1.663,3.522-.035.01-11.807,4.125-19.828,14.684Z"/>
      <path class="st2" d="M254.135,476.707c-1.123,1.029-2.87.959-3.902-.164-1.032-1.123-.963-2.866.16-3.902,10.751-9.875,25.564-11.232,25.606-11.235,1.517-.147,2.866.959,3.013,2.476.15,1.517-.955,2.866-2.472,3.013-.035.003-13.028,1.193-22.405,9.813Z"/>
    </g>
    <path class="st5" d="M291.479,470.636c7.379-4.094,15.737-5.663,23.405-1.374,9.352,5.234,14.346,17.331,14.991,27.639.255,4.035-.108,8.397-1.58,12.191-.757,1.963-4.394,2.88-6.211,3.327-1.806.443-3.651.778-5.489,1.067-2.294.363-4.607.652-6.918.9-5.694.617-11.427.997-17.15,1.259-6.601.303-13.213.432-19.817.415-.708,0-3.002-1.381-3.079-2.085-1.914-17.345,6.078-34.582,21.847-43.338Z"/>
    <path class="st2" d="M292.152,471.846c22.136-12.289,35.269,8.052,36.343,25.139.269,4.258-.213,8.313-1.489,11.612-1.391,3.599-27.116,6.151-54.291,6.082-.802-7.278-.6-16.212,2.58-23.849,2.884-6.929,10.496-15.451,16.857-18.984Z"/>
    <path class="st5" d="M329.942,498.369c.084,3.585-.345,7.368-1.646,10.723-.805,2.082-4.92,3.034-6.835,3.477-2.016.464-4.069.809-6.116,1.109-2.552.373-5.119.666-7.682.917-6.27.614-12.582.976-18.876,1.203-7.142.255-14.297.324-21.439.216-7.131-.108-14.276-.394-21.39-.941-6.291-.485-12.641-1.168-18.848-2.288-2.584-.471-5.164-1.018-7.696-1.719-2.089-.575-4.195-1.266-6.169-2.162-2.723-1.238-6.047-3.271-6.584-6.49-.07-.425.045-1.214.098-1.649.094-.82.202-1.639.321-2.455.126-.872.262-1.747.425-2.608.059-.31.122-.628.206-.935.042-.146.087-.293.153-.432.324-.697,1.116-1.071,1.859-.75,7.522,3.219,16.006,5.14,24.065,6.437,9.516,1.527,19.238,2.28,28.87,2.58,11.755.363,23.632.056,35.356-.903,5.021-.411,10.046-.948,15.04-1.67,3.944-.572,7.926-1.259,11.804-2.197,1.133-.275,2.27-.537,3.41-.781.415-.087.813,0,1.147.265.335.265.513.628.527,1.053Z"/>
    <path class="st2" d="M328.558,498.404c.091,3.735-.418,7.26-1.552,10.193-2.964,7.661-116.149,10.569-118.98-6.409-.066-.405.882-7.449,1.154-7.334,30.6,13.098,91.914,10.169,116.003,4.321,1.172-.282,2.298-.541,3.375-.771Z"/>
    <path class="st5" d="M209.936,481.202c-.38.01-.697-.289-.711-.67-.01-.38.286-.698.666-.708.732-.024,1.444.024,2.131.139,2.856.481,5.391,2.117,7.236,4.575,1.824,2.427,3.644,5.904,3.77,9.624.045,1.367-.049,2.797-.296,4.272-.063.377-1.088.387-1.465.321-.377-.063-.628-.415-.568-.792.237-1.391.324-2.73.282-4.003-.115-3.421-1.165-6.385-2.825-8.596-1.635-2.176-3.86-3.62-6.361-4.042-.607-.101-1.227-.146-1.859-.122Z"/>
    <path class="st5" d="M241.627,455.509c1.813,0,3.295-1.482,3.295-3.295s-1.482-3.295-3.295-3.295-3.292,1.482-3.292,3.295,1.479,3.295,3.292,3.295Z"/>
    <path class="st5" d="M245.289,467.704c1.813,0,3.292-1.478,3.292-3.292s-1.478-3.295-3.292-3.295-3.292,1.478-3.292,3.295,1.475,3.292,3.292,3.292Z"/>
    <path class="st2" d="M220.98,493.961c-.115-3.421-1.165-6.385-2.825-8.596-1.635-2.176-3.86-3.62-6.361-4.042-.307-.049-.617-.087-.934-.108-.405,4.774-.987,8.927-1.52,12.261.129.017.255.052.384.108,3.525,1.507,7.267,2.734,11.075,3.742.16-1.165.216-2.287.181-3.365Z"/>
    <path class="st3" d="M293.564,493.801c-9.258-.69-15.026-2.838-15.905-6.929-.031-.132-.052-.268-.073-.408-.101.161-.199.324-.296.485-.795,1.322-1.472,2.626-1.995,3.881-.195.464-.377.935-.547,1.409-.412,1.126-.757,2.274-1.05,3.435-.593,2.326-.966,4.711-1.175,7.075,3.951-.003,7.909-.08,11.856-.23,1.991-.077,3.979-.174,5.966-.286.035,0,.073-.004.112-.007,1.259-.073,2.518-.154,3.776-.241,1.262-.087,2.521-.185,3.78-.286,5.021-.411,10.046-.948,15.04-1.67,3.944-.572,7.926-1.259,11.804-2.197,1.133-.275,2.27-.537,3.41-.781.077-.014.154-.028.23-.031,0-.01,0-.021-.003-.035-.147-2.34-.52-4.739-1.112-7.11-6.702,2.305-16.602,4.247-27.207,4.177-1.029-.007-2.026-.028-2.995-.059-1.259-.042-2.462-.105-3.616-.192Z"/>
    <path class="st3" d="M271.069,506.153c-26.725-.108-52.115-3.902-62.35-8.972-.021-.011-.042-.021-.063-.028-.136.847-.275,1.813-.387,2.668-.161,1.221-.269,2.221-.244,2.368,1.478,8.864,33.044,12.309,63.298,12.484.464.003.928.003,1.391.007,27.175.07,52.9-2.483,54.291-6.082.973-2.507,1.478-5.454,1.552-8.592-5.192,1.444-17.083,4.153-36.789,5.478-.75.049-1.507.094-2.277.143-1.597.094-3.236.181-4.927.258-4.069.181-8.163.269-12.229.269h-1.266Z"/>
    <path class="st10" d="M241.387,446.425c1.102.582,2.061,1.221,2.891,1.914.373.314.729.638,1.056.969,1.071,1.088,1.89,2.27,2.528,3.515,1.628,3.156,2.11,6.706,2.654,10.081.422,2.636,1.008,4.816,1.656,6.451.555-.422,1.123-.833,1.702-1.224-.056-.37-.112-.76-.178-1.158-.321-2.064-.75-4.502-1.29-7.051-.502-2.343-1.098-4.781-1.803-7.1-.366-1.214-.764-2.396-1.192-3.515-.227-.6-.464-1.182-.715-1.744-.307-.701-.788-1.342-1.416-1.932-.809-.76-1.866-1.426-3.107-1.998-6.737-3.128-18.928-3.539-26.861-1.416-1.217.328-2.333.711-3.316,1.158-2.804,1.269-4.505,3.02-4.296,5.241,1.656-.785,3.424-1.545,5.283-2.225,1.085-.398,2.197-.764,3.334-1.099,6.214-1.813,13.112-2.497,19.636-.324,1.283.429,2.424.917,3.435,1.454Z"/>
    <path class="st0" d="M258.564,449.135c.969-.174,1.918-.247,2.831-.223.415.011.826.038,1.227.091.342.038.68.094,1.011.16.425.091.848.199,1.259.335,1.81.586,3.397,1.59,4.652,2.915.764.809,1.412,1.59,1.963,2.315.391-2.587.642-4.934.091-6.587-.997-2.999-3.776-4.997-7.288-5.911-.192-.049-.38-.094-.572-.139-.342-.077-.687-.139-1.036-.199-.432-.066-.875-.119-1.322-.157-.202-.017-.404-.031-.614-.045-.676-.035-1.364-.038-2.061-.007-2.811.129-5.729.826-8.383,2.117.631.711,1.154,1.5,1.538,2.371.453,1.025.861,2.075,1.238,3.138.181.52.356,1.046.523,1.569,1.681-.886,3.344-1.458,4.941-1.744Z"/>
  </g>
  <path class="st5" d="M75.644,180.414c-6.284-21.526-27.05-39.624-38.268-42.43-11.218-2.804-5.904,5.663-.296,12.074,4.341,4.96-9.157-.631-18.677.483-9.942,1.166-17.554,12.709,4.551,12.282,0,0-22.032,6.409-20.832,13.619,1.203,7.211,15.626,1.203,15.626,1.203,0,0-8.763,7.473-3.152,11.483,5.607,4.003,22.213-13.697,44.642-9.691,22.44,4.007,22.607,12.229,26.213,17.837,3.606,5.611-9.806-16.86-9.806-16.86Z"/>
  <path class="st5" d="M455.879,62.226c1.255-2.716,1.796-4.891,1.862-7.865.056-2.523-.031-4.875.258-7.412.46-4.05,1.643-7.97,3.124-11.757,3.386-8.678,13.931-16.145,21.676-20.754,5.44-3.238,11.239-6.122,17.097-8.521,3.505-1.43,8.718-3.456,12.487-3.815.676-.066,1.356-.014,2.009.153,5.457,1.405,6.444,9.656,6.695,14.269.401,7.358-.61,15.438-2.399,22.57-1.841,7.342-4.966,15.387-9.984,21.162-4.408,5.067-9.182,8.784-15.172,11.776-2.037,1.018-4.122,1.901-6.19,2.851-1.59.731-3.208,1.522-4.634,2.547-1.914,1.374-3.208,3.011-4.209,5.143-1.133,2.411-2.975,4.542-5.799,4.793-5.461.487-9.61-6.847-11.776-10.936-1.928-3.648-3.721-7.677-5.151-11.56-.331-.894-.296-1.78.105-2.647Z"/>
  <path class="st2" d="M459.018,63.676c4.676-10.121-.603-12.031,5.325-27.226,5.935-15.197,40.349-30.143,48.37-30.906,8.027-.765,6.789,37.019-6.615,52.444-13.411,15.427-25.167,11.27-30.729,23.114-5.569,11.844-16.351-17.427-16.351-17.427Z"/>
  <path class="st5" d="M166.044,213.433c3.539,2.521,6.859,6.859,7.734,11.138,2.434,11.881-11.717,18.782-20.651,22.115-10.182,3.801-22.025,7.131-32.995,6.625-7.978-.37-15.186-2.765-21.25-8.055-6.399-5.583-10.416-13.415-13.509-21.188-3.316-8.327-5.768-16.993-8.84-25.411-1.873-5.129-3.94-10.214-7.054-14.73-2.877-4.174-6.629-8-10.123-11.664-.331-.345-.645-.717-.9-1.125-.802-1.299-.851-2.906.073-4.184,1.775-2.457,4.502-1.388,6.566-.3,1.482.779,2.936,1.672,4.334,2.586,1.754,1.147,4.045,2.692,5.464,4.226,6.852,7.414,11.04,15.493,15.11,24.609,4.317,9.673,8.027,18.653,14.873,26.938,3.993,4.833,13.959,4.251,19.413,3.41,13.021-2.012,26.701-8.421,37.908-15.145,1.227-.736,2.685-.676,3.846.153Z"/>
  <path class="st9" d="M164.008,216.293c-29.648,17.781-54.228,20.173-61.841,10.96-13.994-16.94-15.026-35.359-29.853-51.404-2.43-2.626-13.506-9.251-10.416-6.008,9.635,10.109,12.878,13.757,17.934,27.615,11.556,31.666,15.008,67.232,72.068,45.939,32.904-12.275,12.107-27.102,12.107-27.102Z"/>
  <path class="st5" d="M474.881,435.96c-.167.837-.638,1.555-1.367,2.082-.935.67-2.029.837-3.117.474l-33.55-11.218c-1.503-.502-2.445-1.901-2.354-3.48l2.051-35.317c-15.037-4.404-22.115-4.303-32.939-6.943-8.163-1.991-16.808-4.251-24.623-7.344-1.569-.621-2.957-1.555-4.08-2.814-10.835-12.163,10.51-45.629,17.519-55.947,4.763-7.002,9.956-13.837,15.556-20.19,4.422-5.028,9.575-10.371,15.033-14.269,1.123-.802,2.518-.875,3.714-.195,1.196.676,1.852,1.907,1.743,3.281-.39,4.962.328,9.718,2.242,14.318,2.992,7.176,8.55,13.195,14.276,18.314,6.838,6.106,14.444,11.466,21.76,16.993,7.602,5.74,15.242,11.814,21.54,18.994,5.757,6.552,11.194,14.241,11.106,23.336-.049,5.102-1.771,9.949-3.787,14.569-2.535,5.803-5.51,11.459-8.149,17.226-3.473,7.602-6.96,15.218-10.329,22.869-.614,1.395-1.227,2.786-1.813,4.191-.139.338-.307.711-.432,1.071Z"/>
  <path class="st2" d="M425.022,283.807c-2.577,32.657,38.857,46.33,60.669,71.169,17.516,19.953,9.516,27.583-1.381,51.418-12.815,28.04-12.815,28.842-12.815,28.842l-33.55-11.215,2.075-35.743c2.594.209,5.203.394,7.87.513-3.051-1.51-5.415-2.455-7.717-3.152v-.011l-.087-.017c-19.308-5.806-38.923-6.332-59.832-14.611-19.179-7.592,22.335-71.169,44.768-87.192Z"/>
  <path class="st9" d="M495.65,379.263c-1.182,7.372-5.897,15.228-11.34,27.13-12.815,28.04-12.815,28.842-12.815,28.842l-33.55-11.215,2.075-35.743c2.594.209,5.203.394,7.87.513-3.051-1.51-5.415-2.455-7.717-3.152v-.011l-.087-.017c-14.506-4.359-29.184-5.74-44.45-9.67,6.026-5.733,16.18-12.205,31.747-20.372,9.76,20.979,30.251,24.396,39.523,27.322,6.04,1.908,18.499.293,28.744-3.627Z"/>
  <path class="st5" d="M222.319,380.641c-.342,1.538-.663,3.09-.955,4.701l-12.564,77.777c-.31,1.684-3.452,2.88-5.164,2.88h-37.654c-1.541,0-2.845-.941-3.334-2.399-2.905-8.672-5.642-17.39-8.32-26.136-2.221-7.246-4.404-14.503-6.748-21.707-3.124-9.583-6.566-18.956-10.496-28.239-2.159-5.091-4.648-10.081-7.072-15.054-2.769-5.695-5.51-11.403-7.94-17.247-3.766-9.053-7.002-18.869-7.672-28.703-1.594-23.534-.216-46.71,9.788-68.417,6.382-13.844,15.601-25.759,26.021-36.789,7.574-8.02,16.058-14.357,27.018-16.745,10.36-2.26,21.582-.662,31.938.931,6.636,1.022,13.251,2.131,19.905,3.048,8.125,1.119,16.26,1.974,24.452,2.458,22.764,1.35,47.17-2.403,66.799-14.642,4.038-2.521,7.33-5.768,9.942-9.743,6.538-9.942,8.195-23.514,9.223-35.122.886-10.003,1.273-20.412,3.33-30.245,1.419-6.793,2.943-13.593,4.749-20.295.924-3.431,1.928-6.873,3.09-10.245-.872-.15-1.747-.269-2.615-.375-2.64-.323-5.272-.565-7.902-.971-7.693-1.187-14.283-3.606-20.947-7.658-7.57-4.603-13.861-12.402-18.485-19.856-4.505-7.264-8.481-15.859-10.639-24.15-1.29-4.948-3.156-14.363,2.148-17.697.617-.389,1.297-.663,2.016-.818,1.991-.432,4.279-.514,6.315-.533,2.929-.026,5.879.122,8.798.352,7.361.582,14.824,1.73,22.011,3.397,10.13,2.347,24.476,6.878,31.248,15.23,2.964,3.658,5.656,7.565,7.595,11.872,1.214,2.706,1.953,5.347,2.908,8.123.425,1.247.889,2.362,1.454,3.43,7.239-4.39,16.236-7.041,24.277-8.578,11.532-2.204,23.758-2.678,35.447-1.663,20.759,1.806,45.72,9.098,58.082,27.208,4.45,6.516,6.824,13.849,7.274,21.712.485,8.474,2.298,17.261,4.359,25.482,2.58,10.297,5.827,20.505,9.394,30.503,1.503,4.223,3.069,8.484,4.756,12.653.45.18.945.345,1.311.474,2.378.835,4.84,1.541,7.264,2.22,2.34.657,4.603,1.829,5.415,4.294.767,2.333-.199,4.568-1.325,6.584-1.119,2.002-2.385,3.909-3.48,5.935-3.32,6.134-4.833,12.327-4.589,19.329.321,9.321,1.796,18.053,4.226,27.029.837,3.086,1.775,6.144,2.598,9.23.635,2.389,1.273,5.018,1.273,7.501,0,6.193-6.057,12.24-10.737,15.577-7.169,5.112-16.016,7.965-24.825,7.965-9.949,0-22.461-6.911-30.847-11.912-6.019-3.588-11.849-7.449-17.756-11.211-2.256-1.437-4.544-2.88-6.88-4.192-.865-.485-1.907-1.064-2.922-1.52.045,2.009.509,5.06.663,6.061.875,5.733,1.956,11.431,2.825,17.171,2.696,17.802,3.71,35.349,1.928,53.315-2.253,22.715-9.719,44.276-26.987,59.57-32.04,28.364-84.043,29.114-124.121,22.119-9.617-1.681-17.599-1.646-27.14-4.53-13.893-4.202-29.173-11.996-41.723-18.736Z"/>
  <path class="st2" d="M355.311,88.217c-2.866,7.33-5.726,17.816-9.06,33.748-5.311,25.41.68,61.932-24.075,77.37-11.86,7.403-34.439,17.212-68.86,15.173-54.089-3.205-73.313-19.629-100.558,9.213-27.238,28.846-38.058,55.285-34.85,102.556,1.412,20.846,15.42,43.373,22.412,59.87,11.162,26.356,14.782,43.833,25.662,76.337h37.654l14.273-77.78c.924-5.032,1.587-7.675,2.873-12.229,4.823-17.09,5.827-26.345,8.352-46.096l.806-5.294c1.367,19.563-1.716,37.494-6.528,56.15,74.094,40.13,205.489,44.422,215.385-55.365,4.809-48.474-12.02-82.924-2.406-80.12s40.862,29.246,58.891,29.246,32.05-12.822,32.05-20.03-7.295-20.403-8.097-43.638c-.799-23.235,16.56-30.076,6.545-32.88-10.015-2.807-10.419-3.606-10.419-3.606,0,0-17.627-42.865-19.225-70.91-2.961-51.763-94.208-54.976-122.59-33.977-6.103-8.041-2.668-12.547-13.673-26.115-12.017-14.82-55.686-19.228-64.895-17.226-9.216,2.003,5.607,43.667,26.038,56.087,15.312,9.309,25.676,6.687,34.296,9.516Z"/>
  <path class="st9" d="M139.514,384.295c.279.624.548,1.245.806,1.852,11.162,26.356,14.782,43.833,25.662,76.337h37.654l14.273-77.78c.924-5.032,1.587-7.675,2.873-12.229,2.117-7.504,3.498-13.499,4.596-19.531-3.864,12.808-13.83,30.941-39.509,40.681-20.776,7.884-35.007,2.901-46.354-9.328h0ZM226.204,365.475l-.771,12.829c-.676-.356-1.357-.708-2.023-1.071,1.018-3.944,1.956-7.853,2.793-11.759h0ZM283.811,398.906c6.242,1.308,12.554,2.371,18.879,3.17-6.312-13.743-11.396-30.477-15.336-47.484-2.87,16.515-3.696,30.844-3.543,44.314h0ZM362.463,400.758c5.89-1.168,11.598-2.688,17.073-4.572-4.129-20.257-9.098-33.149-12.655-16.71-1.695,7.853-3.072,14.967-4.418,21.282h0ZM388.881,392.493c16.641-7.487,30.429-18.956,39.373-35.161-.3-.575-.589-1.161-.872-1.765-31.733,16.654-41.033,26.251-38.501,36.925Z"/>
  <path class="st9" d="M438.339,325.656c.882-6.336,1.304-12.913,1.364-19.549.108-11.821-.931-23.845-2.577-35.073-2.772-18.97-6.197-30.223-1.238-29.396-8.537-3.424-19.34-7.578-23.507-8.411-7.319-1.465-19.517-.976-43.917-15.127,7.811,11.71,17.568,19.029,28.302,30.251,4.352,4.551,4.212,13.75,1.824,24.999-3.142,14.813-7.703,37.661-17.659,54.152-5.827,9.649-15.106,16.159-22.771,20.155-21.052,10.978-51.393,12.658-80.116,7.326-20.013-3.71-36.27-7.947-48.377-11.602-1.029,11.364-3.32,22.471-6.252,33.846,73.142,39.614,202.099,44.304,214.925-51.571h0ZM439.905,243.259c2.919,1.51,6.671,3.874,10.911,6.605-1.991-2.242-3.306-3.466-3.306-3.466,0,0-3.152-1.325-7.605-3.138Z"/>
  <path class="st5" d="M417.657,53.539c-3.532.199-9.443,1.027-12.805,1.501,15.821,3.301,34.397,12.7,39.195,36.336,4.798,23.636,16.947,77.269,34.174,90.485,17.226,13.22,36.339-2.525,36.339-2.525,0,0-33.03-19.401-44.715-62.131-11.685-42.728-16.281-56.102-52.188-63.666Z"/>
  <path class="st5" d="M373.179,221.879c-1.248-11.989,12.369-28.919,22.544-33.619,10.416-4.805,10.015-16.02,10.015-16.02l-4.404-2.406,29.016-19.561s-.014,2.826-.69,5.64c-1.269,5.286-3.63,13.302-3.892,21.934-.401,13.216,9.216,21.634,9.617,39.258.188,8.286.199,16.839-.136,23.242-6.221-3.546-13.757-4.666-18.897-6.012-1.106-.293-2.253-.596-3.414-.907,2.64-6.022,5.618-15.626,5.618-28.34,0-22.837-3.606-24.438-3.606-24.438,0,0-8.411,11.214-16.825,26.84-4.003,7.441-5.559,15.246-6.085,21.38-4.366-.488-14.339-3.791-18.862-6.992Z"/>
  <g>
    <path class="st2" d="M497.421,110.677c3.815,2.078,7.654,10.841,8.955,20.939,1.395,10.813-.635,19.207-4.544,19.268-1.942.938-4.443.255-7.319-3.499-2.821-3.679-3.606-12.266-3.623-20.533-.296-3.67-.181-6.976.279-9.656.314-5.588.778-9.652.778-9.652,0,0,2.546.042,5.475,3.133Z"/>
    <path class="st3" d="M497.421,110.677c3.815,2.078,7.654,10.841,8.955,20.939.767,5.954.499,11.173-.551,14.672-.164-.942-.247-2.092-.237-3.473.132-14.558-7.04-25.839-14.332-27.061.303-4.833.69-8.21.69-8.21,0,0,2.546.042,5.475,3.133Z"/>
    <path class="st5" d="M488.317,112.369c5.59-7.143,13.802,2.282,16.494,16.215,1.322,6.836,1.095,11.452.708,16.993-.119,1.719-.059,2.108.073,1.843,1.789-3.583,1.709-13.112.973-18.287-2.636-18.443-13.202-28.954-19.831-19.878-.391.575-1.196,3.036-.76,3.895.439.86,1.956-.206,2.343-.781Z"/>
    <path class="st5" d="M491.528,107.126c4.903,1.473,9.677,12.088,10.664,23.71.987,11.619-2.19,19.844-7.093,18.37-4.903-1.473-9.677-12.085-10.664-23.706-.987-11.621,2.186-19.847,7.093-18.374Z"/>
    <path class="st2" d="M494.83,110.681c-2.207-.663-3.909.643-3.801,2.917.108,2.274,1.981,4.654,4.188,5.32,2.207.663,3.909-.643,3.805-2.917-.108-2.275-1.984-4.655-4.192-5.32Z"/>
    <path class="st4" d="M499.664,134.978c-.07-1.091-.614-2.103-1.217-2.254-.6-.152-1.036.612-.966,1.705.143,2.303-.108,3.871-.586,4.845-.391.793-.945,1.214-1.569,1.334-.645.126-1.36-.078-2.033-.537-.858-.586-1.622-1.564-2.064-2.764-.37-1.018-1.06-1.487-1.541-1.051-.481.436-.572,1.613-.202,2.631.809,2.216,2.117,3.947,3.525,4.91,1.011.689,2.089.992,3.072.802,1.015-.197,1.935-.915,2.601-2.27.778-1.571,1.193-3.968.98-7.351Z"/>
  </g>
  <path class="st5" d="M508.723,152.994l-14.388,2.11s1.538,1.667,3.456,2.971c3.606,2.448,9.332,5.928,14.147,10.903,5.646,5.832,6.291,13.162,10.444,21.064,2.315-5.405,5.203-9,6.176-11.466-1.419-1.628-2.608-3.083-3.609-4.362-9.209-2.615-9.59-3.372-9.59-3.372,0,0-2.999-7.302-6.636-17.847Z"/>
  <path class="st5" d="M380.704,111.549c6.81-21.631,28.441-22.032,36.855-15.223,2.661,2.153,3.613,4.366,1.618,5.131-4.317,1.662-19.416-1.512-38.473,10.092Z"/>
  <path class="st5" d="M474.849,95.526c4.021-20.441,16.801-17.066,21.77-8.787,4.966,8.28-5.206.464-21.77,8.787Z"/>
  <path class="st5" d="M353.372,193.728c14.796,26.6,26.638,30.606,55.724,37.487,14.301,3.382,24.605,6.542,36.705,15.141-4.115-1.712-5.538.683-8.495-1.099-8.006-4.826-16.839-8.376-28.427-10.597-30.823-5.907-44.339-10.803-60.536-38.233-.746-1.388-.223-3.117,1.165-3.864,1.388-.746,3.117-.227,3.864,1.165Z"/>
  <path class="st5" d="M539.734,180.246c5.872,4.296,7.776,4.669,10.705,11.696,2.633,6.329,3.449,13.823,3.721,20.612.174,4.45-.701,10.022-2.741,12.997-4.973,7.25-14.485,8.693-15.165,10.793-2.277,7.051-1.597,8.261-5.471,14.789,2.643,4.634,1.702,9.482-.321,12.104-8.875,10.168-28.068,11.215-35.182,11.215-16.536,0-33.529-16.902-47.885-25.177-.889-.513-6.047-2.64-6.256-3.644-7.211-11.34-.216-32.622,5.851-44.035-10.611-18.792,3.407-32.611,21.376-25.449,2.399-.826,4.844-1.587,7.264-2.308,6.179-1.848,12.494-3.472,18.834-4.652,5.328-.989,11.138-1.777,16.62-1.595,3.763-2.936,8.261-5.9,12.968-6.336,11.563-1.072,19.242,7.595,15.682,18.993Z"/>
  <path class="st8" d="M446.914,247.377c13.687,8.599,34.784,23.618,48.366,23.618,13.136,0,27.433-3.633,32.441-10.119,1.168-1.507,1.053-4.233.551-6.549-.303-1.388-.98-2.629-.941-3.362.269-5.412-.691-15.866,5.129-17.24,10.514-2.479,18.806-6.845,18.241-21.031-.889-22.415-4.296-23.789-12.355-29.686-1.761,1.674-3.843,2.483-4.474,1.796,5.06-3.818,4.648-18.344-4.896-20.054-3.592-.645-7.284.683-10.325,3.091-2.469,1.958-3.539,4.134-5.028,5.682-.066-1.126.14-2.155.527-3.107-13.049-.042-35.534,6.012-42.752,8.373,1.402,1.367,2.58,3.177,3.316,5.649-4.108-2.936-4.718-4.335-11.19-6.103-.154-.024-.296-.077-.432-.139-6.054-1.099-11.309.903-13.732,4.233-6.336,8.7,1.067,20.651,11.323,22.746-4.858,1.074-8.268.307-10.842-1.507-2.357,4.624-7.511,16.034-8.313,28.709-.289,4.582,1.179,12.351,5.387,14.998Z"/>
  <path class="st11" d="M550.635,211.146c-.987-20.93-4.422-22.38-12.289-28.137-.778.739-1.615,1.308-2.364,1.656,2.155,1.224,9.056,5.454,10.699,10.378,1.196,3.592,2.852,10.953,3.954,16.103h0ZM536.99,178.116c.607-5.53-1.712-12.238-8.013-13.366-3.592-.645-7.284.683-10.325,3.091-1.329,1.048-2.246,2.162-3.044,3.205,4.164-3.541,11.403-5.923,16.679-2.106,3.703,2.68,4.659,6.432,4.704,9.176Z"/>
  <path class="st4" d="M446.914,247.377c13.687,8.599,34.784,23.618,48.366,23.618,13.136,0,27.433-3.633,32.441-10.119,1.168-1.507,1.053-4.233.551-6.549-.303-1.388-.98-2.629-.941-3.362.269-5.412-.691-15.866,5.129-17.24,9.659-2.277,17.443-6.148,18.206-17.763-5.074.813-8.38-3.292-39.359,5.001-30.983,8.296-29.766-10.489-42.693-13.659-12.292-3.016-20.393-16.829-15.298-28.036-1.663.788-3.02,1.876-3.958,3.163-6.336,8.7,1.067,20.651,11.323,22.746-4.858,1.074-8.268.307-10.842-1.507-2.357,4.624-7.511,16.034-8.313,28.709-.289,4.582,1.179,12.351,5.387,14.998Z"/>
  <path class="st5" d="M529.064,251.119c-9.715,3.47-21.561,6.612-31.932,6.612-19.448,0-27.925-16.839-34.679-32.758-.687-1.618-.701-2.849.798-3.763,1.5-.91,2.064-.474,3.187.879,4.631,5.579,15.322,15.078,22.502,16.306,1.28.22,2.849.206,4.143.188,2.309-.035,4.631-.192,6.932-.397,5.97-.53,11.985-1.426,17.858-2.626,12.665-2.584,22.994-1.437,33.243-16.358.973-1.416-1.876,1.377-.453,2.34,1.423.959.478.935-.22,2.504-2.431,5.485-13.394,7.274-15.608,12.721-.921,2.263-.9,7.044-2.762,10.217-.349.593-.631,1.217-.837,1.876-.342,1.088-1.099,1.876-2.172,2.26Z"/>
  <path class="st2" d="M527.882,247.809c.017-.056.038-.115.056-.174,3.198-3.267,4.352-9.157,2.305-10.517-18.447,4.607-37.026,4.464-41.891,3.634-11.127-1.904-23.277-16.539-23.277-16.539,8.198,19.319,16.836,30.003,32.057,30.003,11.392,0,24.745-4.261,30.749-6.406Z"/>
  <path class="st5" d="M290.109,327.009c4.523-3.805,18.932,28.964,24.127,26.171.272-.146,42.986-32.127,56.83-30.721,3.491.356,7.888.317,6.096,6.392-3.55,12.038-6.078,24.445-7.986,36.841-3.836,24.891-5.339,50.514-5.499,75.688-.052,8.474.052,16.958.349,25.428.112,3.285.24,6.587.45,9.868.066.973-.237,1.838-.896,2.556-.656.718-1.489,1.099-2.462,1.123l-31.248.802c-1.266.035-2.368-.562-3.03-1.643-2.793-4.53-5.37-9.408-7.797-14.137-6.05-11.804-11.42-24.037-16.069-36.458-6.273-16.773-8.847-18.754-12.062-36.378-3.606-19.758-9.61-62.482-.066-63.961.928-.143-1.454-.973-.736-1.573Z"/>
  <path class="st2" d="M288.92,317.458c-8.017,80.922,40.862,160.244,40.862,160.244l31.245-.802s-5.607-86.529,12.822-149.029c18.426-62.493-64.899-27.238-84.929-10.412Z"/>
  <path class="st9" d="M290.217,366.11c8.592,61.324,39.565,111.591,39.565,111.591l31.245-.802s-2.096-32.402.495-71.87c-4.547,19.964-9.569,30.648-26.352,29.581-20.717-1.325-35.461-32.911-44.953-68.501Z"/>
  <path class="st5" d="M352.967,80.824c-5.213-8.261-5.14-13.279,4.572-16.262,0,0,.094-.038.108-.04l-.007.014c1.967-1.28-10.116-16.932-12.937-18.86-4.453-3.041-35.628-13.357-38.672-8.346-1.548,2.546.603,7.783,1.346,10.163-8.69-16.165,3.278-13.779,15.671-11.398,11.068,2.127,21.122,3.766,28.553,12.536,24.57,28.999-7.609,11.832,4.352,29.933.621.823.46,1.996-.363,2.619-.823.626-1.995.464-2.622-.359Z"/>
  <path class="st5" d="M482.423,67.36c1.953-8.085.523-12.113-8.121-11.87,0,0-.091-.003-.105-.003l.011.01c-1.935-.495,3.543-16.423,5.293-18.749,2.758-3.667,25.09-20.502,28.915-17.289,1.946,1.632,1.642,6.444,1.691,8.566,2.598-15.411-6.409-10.221-15.755-4.917-8.352,4.739-16.013,8.803-19.615,17.908-11.905,30.102,9.366,7.468,4.662,25.336-.279.833.174,1.737,1.008,2.016.833.279,1.74-.173,2.016-1.008Z"/>
  <path class="st5" d="M386.336,59.445c22.583,12.323,26.404,36.594,26.404,36.594l-20.166,2.291s-.837-21.024-17.669-33.332c3.198-2.134,7.068-3.993,11.431-5.553Z"/>
  <path class="st5" d="M466.166,61.99c13.035,11.194,22.004,23.803,22.004,23.803l-11.431,4.973s-8.432-24.002-31.433-34.936c7.34,1.339,14.426,3.37,20.86,6.16Z"/>
  <path class="st5" d="M494.325,450.965c7.633-3.013,15.891-3.463,22.736,1.649,8.352,6.235,11.626,18.531,10.936,28.546-.265,3.926-1.172,8.083-3.069,11.556-.983,1.792-4.603,2.214-6.409,2.413-1.799.199-3.623.286-5.426.335-2.263.056-4.53.038-6.786-.014-5.565-.132-11.145-.492-16.693-.966-6.399-.551-12.791-1.262-19.155-2.12-.683-.091-1.182-.67-1.168-1.36.359-16.965,8.718-33.602,25.034-40.039Z"/>
  <path class="st5" d="M482.284,443.688c.324.952,1.796,2.8,2.319,3.431,1.778,2.134,3.818,4.153,5.838,6.057.805.757,1.625,1.513,2.455,2.267-6.95,2.096-16.829,7.152-24.549,14.636l-14.932-21.965c-.429-.631-.617-1.301-.575-2.064.185-3.595.331-7.19.513-10.786.126-2.608.265-5.245.555-7.839.401-3.634,1.838-5.294,4.585-7.947,2.396-2.309,19.988-2.682,23.925-.697,4.146,2.092,6.022,2.877,6.842,7.64.147.882.188,1.775.115,2.664-.412,4.993-5.422,9.732-7.089,14.604Z"/>
  <path class="st1" d="M456.193,446.226c1.21-23.636-.802-23.315,10.447-25.111,11.249-1.799,19.992.328,19.381,7.696-.31,3.752-5.471,9.039-7.068,14.255-.788,2.577,4.76,8.491,10.339,13.628-5.688,2.232-12.491,6.001-18.436,11.1l-14.663-21.568Z"/>
  <path class="st5" d="M464.834,444.232c2.207,4.84,7.124,14.088,11.438,17.495,1.269-.973,2.56-1.827,4.063-2.661,4.519-2.507,9.52-4.017,14.653-4.547.729-.077,1.458-.132,2.186-.164-.143.056-.282.115-.418.174-18.004,2.8-13.788,41.075-13.809,41.221-16.323-.69-27.032-5.837-27.493-6.043-6.374-2.842-12.69-5.844-18.872-9.073-5.503-2.87-10.974-5.939-16.156-9.356-5.384-3.553-17.055-11.494-15.165-19.249.366-1.503,2.315-4.223,3.187-5.565,2.054-3.17,4.035-6.364,5.893-9.652,5.628-9.973,10.12-20.609,12.819-31.754.237-.987.67-1.9,1.301-2.699,4.959-6.298,18.203-1.799,24.075.823,5.998,2.682,16.518,8.749,16.595,16.323.031,2.971-.286,5.998-.732,8.931-.785,5.171-2.04,10.709-3.564,15.797Z"/>
  <path class="st0" d="M465.769,419.54c.105,10.109-4.519,24.905-4.519,24.905,0,0,6.343,14.789,13.112,20.03,2.535,1.297,3.926.38,4.516.457.101.014,4.533-8.216,15.94-12.718,22.907-9.032,32.978,12.247,31.841,28.856-.286,4.139-1.259,7.986-2.912,11.002-1.9,3.477-29.745,2.382-57.422-1.643.028-3.023-3.696-7.679-5.157-11.483-1.527,2.514-2.751,5.192-3.574,8.031-26.024-11.539-51.065-25.948-49.067-34.153.537-2.193,15.476-20.445,21.899-46.975,2.319-9.572,35.241,3.581,35.345,13.69Z"/>
  <path class="st5" d="M474.57,447.258c-4.913-.39-9.977.038-14.636,1.681-2.096.739-4.401-.363-5.143-2.455-.739-2.096.363-4.404,2.458-5.143,6.092-2.148,12.718-2.633,19.116-1.984,2.138.216,4.275.561,6.371,1.039.851.195,1.723.408,2.553.676,2.11.666,3.295,2.94,2.626,5.049-.139.45-.356.858-.628,1.214,1.05.785,1.698,2.064,1.611,3.466-.042.774-.307,1.485-.722,2.075.282-.003.565,0,.844.014,1.677.059,3.083,1.144,3.634,2.626-4.324,1.332-9.726,3.784-15.033,7.229-3.013,1.022-5.869,2.476-8.407,4.418-1.765,1.346-4.286,1.015-5.635-.746-1.349-1.761-1.015-4.296.746-5.642,2.912-2.225,6.155-3.951,9.569-5.224-4.136.875-8.174,2.315-11.842,4.401-1.928,1.099-4.383.425-5.482-1.503-1.102-1.928-.425-4.387,1.503-5.485,5.077-2.887,10.737-4.746,16.498-5.705Z"/>
  <path class="st5" d="M495.643,448.343c7.703-2.546,15.814-2.431,22.624,2.657,8.92,6.66,12.477,19.58,11.745,30.3-.289,4.219-1.273,8.648-3.316,12.386-1.503,2.751-5.81,3.25-8.61,3.515-4.519.432-9.286.363-13.819.213-7.762-.261-15.636-.879-23.458-1.736-4.802-.527-10.311-2.483-15.037-3.166-.021-.15-.049-.3-.059-.45-.24-2.629.61-3.892,1.025-6.444,2.884-17.756,19.957-33.079,28.549-36.995.115-.094.234-.185.356-.279Z"/>
  <path class="st2" d="M468.398,466.093c-1.172.9-2.852.676-3.756-.495-.896-1.172-.676-2.852.502-3.752,10.74-8.205,23.789-7.612,23.827-7.612,1.102.038,2.026.736,2.403,1.702-2.912.994-6.221,2.448-9.621,4.331-3.906.771-8.871,2.403-13.356,5.827Z"/>
  <path class="st2" d="M461.392,458.783c-1.29.732-2.922.286-3.655-1.001-.732-1.287-.282-2.919,1.001-3.651,12.616-7.173,26.268-6.246,26.31-6.246,1.475.091,2.602,1.36,2.511,2.835-.091,1.478-1.357,2.605-2.835,2.514-.035,0-12.128-.823-23.332,5.548Z"/>
  <path class="st2" d="M459.489,447.67c-1.398.495-2.933-.241-3.424-1.635-.495-1.398.234-2.933,1.636-3.424,13.384-4.722,27.147-.269,27.185-.258,1.412.45,2.197,1.956,1.751,3.365-.446,1.412-1.956,2.197-3.369,1.75-.031-.014-12.1-3.913-23.779.202Z"/>
  <path class="st5" d="M418.253,434.796c-.342-.136-.513-.527-.377-.872.132-.342.523-.516.868-.38.659.258,1.276.572,1.848.938,2.371,1.527,4.01,3.954,4.718,6.859.705,2.866.499,6.2-.812,9.572-.481,1.238-1.109,2.479-1.901,3.703-.199.314-.614.405-.924.202-.31-.199-.401-.614-.202-.924.739-1.154,1.332-2.319,1.778-3.473,1.207-3.1,1.402-6.151.76-8.76-.628-2.57-2.068-4.715-4.139-6.047-.506-.324-1.046-.6-1.618-.82Z"/>
  <path class="st5" d="M458.934,418.051c1.622.694,2.378,2.577,1.681,4.202-.698,1.625-2.577,2.382-4.202,1.684-1.625-.694-2.382-2.573-1.684-4.202.694-1.625,2.577-2.382,4.206-1.684Z"/>
  <path class="st5" d="M457.539,430.353c1.625.697,2.378,2.577,1.684,4.206-.694,1.625-2.577,2.378-4.202,1.684-1.625-.694-2.382-2.577-1.688-4.205.698-1.625,2.581-2.378,4.206-1.684Z"/>
  <path class="st2" d="M423.25,450.421c1.207-3.1,1.402-6.151.76-8.76-.628-2.57-2.068-4.715-4.139-6.047-.255-.164-.52-.314-.795-.457-2.186,4.115-4.296,7.605-6.047,10.381.108.066.209.146.304.24,2.573,2.699,5.45,5.224,8.47,7.581.586-.98,1.067-1.963,1.447-2.94Z"/>
  <path class="st5" d="M493.938,449.295c1.517.921,3.023,1.855,4.485,2.838,2.054,1.388,4.986,3.341,4.484,6.228-.303,1.74-1.89,2.943-3.644,2.769-2.95-.293-6.214-1.248-9.035-2.141-2.134-.673-4.261-1.419-6.364-2.207,3.613-3.358,7.19-5.938,10.074-7.487Z"/>
  <path class="st0" d="M499.594,457.783c.174-.997-4.192-3.665-8.885-6.51-1.266.861-2.598,1.859-3.961,2.981,5.196,1.879,9.945,3.24,12.847,3.529Z"/>
  <path class="st5" d="M491.818,450.543c3.522,1.754,7.159,3.41,10.758,4.903.903.377,1.541,1.046,1.873,1.963.335.921.272,1.841-.185,2.706l-11.992,22.795c-.492.931-1.301,1.531-2.333,1.733-1.036.202-2.009-.052-2.811-.729l-15.005-12.658c5.419-9.29,13.565-16.822,19.695-20.713Z"/>
  <path class="st5" d="M491.605,450.68c.3.411.527.889.656,1.416.523,2.155-.809,4.338-2.968,4.861-2.023.488-4.233,1.405-6.085,2.322-1.426.711-2.811,1.513-4.129,2.417,4.184-4.75,8.725-8.568,12.526-11.016Z"/>
  <path class="st2" d="M494.817,452.214c22.907-9.032,32.978,12.247,31.841,28.856-.286,4.139-1.259,7.986-2.912,11.002-1.799,3.295-26.921,2.479-53.109-1.039.15-7.117,1.482-15.702,5.52-22.659,3.658-6.312,12.079-13.558,18.659-16.159Z"/>
  <path class="st3" d="M493.39,473.558c-8.84-1.845-14.123-4.641-14.454-8.7-.011-.133-.014-.265-.014-.405-.119.146-.234.289-.349.432-.938,1.172-1.754,2.343-2.417,3.487-.248.422-.481.854-.711,1.29-.533,1.032-1.018,2.092-1.451,3.177-.861,2.166-1.527,4.415-2.026,6.671,3.808.499,7.63.928,11.459,1.283,1.932.181,3.857.338,5.785.485.038,0,.077.004.112.007,1.224.091,2.444.174,3.668.248,1.227.077,2.452.143,3.679.206,4.896.241,9.806.363,14.712.3,3.874-.049,7.801-.202,11.657-.617,1.13-.122,2.256-.227,3.39-.317.077-.007.15-.007.227-.004v-.031c.153-2.274.101-4.634-.167-6.995-6.758,1.37-16.546,1.984-26.757.565-.994-.136-1.953-.282-2.884-.436-1.207-.202-2.357-.415-3.459-.645Z"/>
  <path class="st5" d="M456.273,487.866c-6.332-2.825-12.613-5.813-18.761-9.021-5.436-2.838-10.855-5.872-15.978-9.251-2.131-1.405-4.23-2.884-6.224-4.477-1.646-1.311-3.267-2.734-4.687-4.289-1.96-2.148-4.157-5.241-3.404-8.324.098-.404.502-1.064.715-1.437.398-.694.809-1.384,1.231-2.071.439-.729.896-1.461,1.37-2.169.174-.255.352-.513.544-.753.094-.119.192-.23.304-.331.558-.499,1.405-.527,1.949.038,5.492,5.754,12.344,10.716,19.053,14.956,7.923,5.008,16.327,9.394,24.825,13.345.83.387,3.18,1.374,5.806,2.441,2.2.715,7.536,2.8,8.359,2.912,8.397,1.116,16.867,1.887,25.296,2.305,4.896.241,9.806.363,14.712.3,3.874-.049,7.801-.202,11.657-.617,1.13-.122,2.256-.227,3.39-.317.411-.035.781.105,1.071.401s.415.67.373,1.081c-.373,3.463-1.269,7.058-2.946,10.13-1.043,1.904-5.13,2.298-7.037,2.476-1.998.195-4.024.265-6.029.293-2.507.035-5.018-.004-7.529-.091-6.116-.206-12.25-.659-18.346-1.238-9.61-.921-20.968-2.396-29.714-6.291Z"/>
  <path class="st2" d="M452.783,484.808c-24.208-11.124-46.131-24.288-44.259-31.984.094-.384,3.637-6.322,3.836-6.116,10.465,10.967,28.302,21.359,46.748,29.724,9.74,4.418,10.172,4.212,19.598,5.231,17.798,1.921,34.327,2.186,44.482,1.095,1.158-.122,2.277-.227,3.348-.314-.387,3.613-1.322,6.946-2.79,9.628-1.726,3.163-24.926,2.542-49.932-.624-5.381-.683-18.803-5.614-21.031-6.639Z"/>
  <path class="st3" d="M459.349,478.695c-22.192-10.005-41.49-22.115-48.29-30.08-.017-.021-.031-.035-.045-.052-.446.704-.938,1.517-1.367,2.239-.61,1.029-1.088,1.883-1.123,2.023-1.684,6.911,15.835,18.238,36.96,28.532,20.204,9.848,22.98,9.956,44.074,11.772,18.28,1.576,32.835,1.423,34.188-1.056,1.255-2.295,2.12-5.067,2.588-8.083-5.189.732-16.996,1.831-36.161.603-.725-.049-1.465-.098-2.211-.15-1.548-.112-3.145-.237-4.788-.38-3.944-.342-7.898-.778-11.818-1.294-.408-.056-.816-.108-1.221-.164-.715-.094-7.616-2.779-10.786-3.909Z"/>
  <path class="st5" d="M465.992,188.852c-3.505-2.166-7.166-1.824-8.181.771-1.015,2.594-.826,6.458,2.678,8.624,3.508,2.172,9,1.827,10.015-.767,1.018-2.595-1.004-6.458-4.512-8.627Z"/>
  <path class="st5" d="M526.895,172.383c5.527-3.419,10.018,6.633,4.042,10.329-3.857,2.385-7.884,2.005-9-.844-1.116-2.852,1.105-7.096,4.959-9.485Z"/>
  <path class="st5" d="M390.548,249.413c-20.201-7.236-39.516-20.047-47.519-38.787-7.271-17.031-13.209,16.94,9.443,34.843,24.27,19.183,53.367,9.419,38.076,3.944Z"/>
  <path class="st5" d="M352.981,263.299c-10.967-9.387-20.047-22.063-20.588-35.76-.495-12.452-12.362,7.487-2.41,24.162,10.67,17.875,31.297,18.698,22.997,11.598Z"/>
  <path class="st5" d="M254.048,345.469c-.366-41.169,7.072-84.489,27.911-111.413,18.935-24.476-28.887-12.432-41.416,40.287-13.426,56.491,13.785,102.291,13.506,71.127Z"/>
  <path class="st5" d="M190.924,315.268c3.965-29.055,13.656-58.828,31.105-75.67,15.859-15.305-19.085-11.724-33.326,24.148-15.26,38.442-.781,73.515,2.221,51.522Z"/>
  <path class="st5" d="M295.482,313.684c-2.835-23.032-1.437-47.767,8.516-64.177,9.042-14.914-16.968-5.116-20.619,25.208-3.913,32.493,14.248,56.404,12.104,38.969Z"/>
  <path class="st6" d="M305.727,41.915c8.641,20.32,12.275,26.021,25.986,32.641,12.045,5.815,19.845,6.68,21.903,6.809-.244-.126-.467-.307-.649-.54-5.213-8.261-5.14-13.279,4.572-16.262,0,0,.094-.038.108-.04l-.007.014c1.967-1.28-10.116-16.932-12.937-18.86-4.453-3.041-35.628-13.357-38.672-8.346-.697,1.149-.641,2.849-.303,4.586Z"/>
  <path class="st6" d="M482.594,66.632c13.324-6.146,21.014-12.446,25.501-23.547,2.584-6.402,2.741-13.108,2.371-17.783-.077.826-.192,1.731-.359,2.723-.049-2.122.255-6.934-1.691-8.566-3.825-3.213-26.157,13.622-28.915,17.289-1.751,2.326-7.229,18.253-5.293,18.749l-.011-.01c.014,0,.105.003.105.003,8.379-.235,9.977,3.543,8.292,11.141Z"/>
  <path class="st2" d="M416.569,122.03c8.079,2.603,14.053,13.14,13.76,26.245-.474,21.299-23.8,34.552-33.745,25.859-5.328-4.657-2.828-21.47-.195-31.83.506-4.6,1.834-8.744,3.752-12.105,2.525-7.002,4.899-12.095,4.899-12.095,0,0,5.816.054,11.529,3.926Z"/>
  <path class="st3" d="M416.569,122.03c8.079,2.603,14.043,13.588,13.76,26.245-.167,7.461-2.472,14.001-6.005,18.386-.07-1.18.108-2.622.582-4.354,5.004-18.245-7.78-32.384-24.1-33.913,2.26-6.055,4.233-10.29,4.233-10.29,0,0,5.816.054,11.529,3.926Z"/>
  <path class="st5" d="M395.169,124.148c15.113-8.951,30.886,2.863,32.552,20.324.816,8.566-1.189,14.351-3.871,21.299-.83,2.155-.816,2.64-.425,2.309,5.262-4.49,8.153-16.431,8.132-22.917-.08-23.117-20.895-36.29-39.014-24.916-1.077.722-3.721,3.804-2.995,4.88.725,1.079,4.544-.256,5.621-.978Z"/>
  <path class="st5" d="M404.218,117.578c10.754,1.846,18.269,15.151,16.773,29.716-1.496,14.562-11.424,24.872-22.185,23.025-10.758-1.848-18.269-15.151-16.773-29.714,1.492-14.567,11.424-24.875,22.185-23.028Z"/>
  <path class="st2" d="M410.638,122.035c-4.844-.83-9.168.806-9.652,3.655-.492,2.849,3.037,5.835,7.885,6.667,4.84.832,9.164-.806,9.652-3.655.488-2.851-3.041-5.834-7.884-6.666Z"/>
  <path class="st4" d="M413.856,152.485c.195-1.369-.722-2.635-2.05-2.825-1.332-.188-2.573.767-2.772,2.138-.411,2.887-1.492,4.852-2.908,6.073-1.147.992-2.556,1.52-4.014,1.67-1.527.157-3.097-.096-4.491-.673-1.778-.734-3.222-1.956-3.836-3.465-.52-1.273-1.949-1.862-3.191-1.315-1.245.546-1.834,2.023-1.315,3.294,1.133,2.783,3.574,4.95,6.493,6.153,2.092.865,4.46,1.247,6.775,1.008,2.385-.244,4.729-1.144,6.699-2.846,2.284-1.97,4.007-4.971,4.61-9.213Z"/>
  <path class="st5" d="M387.577,169.215c12.425,7.506,19.716,7.963,32.81,1.707l-2.873,3.525c-4.701,4.09-12.362,5.394-18.234,3.752-6.737-1.883-8.104-3.878-11.703-8.985Z"/>
  <path class="st5" d="M471.906,220.788c-8.645,3.048-5.893.324-11.466,7.075-2.11-6.618,5.279-11.364,11.466-7.075Z"/>
  <path class="st5" d="M487.64,145.889c3.902,8.052,16.832,10.979,20.49,6.101,3.661-4.88,4.394,7.074,4.394,7.074,0,0-17.568,4.634-24.884-13.175Z"/>
  <path class="st5" d="M237.791,237.651c6.232-8.62,16.878-16.686,27.984-22.91-3.965.091-8.122.024-12.459-.234-2.996-.178-5.876-.398-8.662-.645-14.897,16.316-14.322,34.107-6.863,23.789Z"/>
  <path class="st5" d="M191.699,229.746c8.223-7.651,21.774-13.91,35.049-17.987-9.154-1.304-17.062-2.716-24.159-3.675-17.369,13.077-20.128,30.254-10.89,21.662Z"/>
  <path class="st5" d="M464.89,226.5c-.227-.307-.167-.739.143-.966.303-.227.736-.16.962.143,7.379,9.921,12.201,15.294,17.104,18.046,4.851,2.72,9.876,2.891,17.676,2.413,15.793-.973,31.534-5.091,31.583-5.102.363-.098.743.126.837.495.098.366-.126.743-.495.84-.042.011-15.922,4.164-31.844,5.144-8.059.495-13.279.303-18.429-2.587-5.102-2.86-10.036-8.345-17.537-18.426Z"/>
  <path class="st9" d="M353.616,81.365c-2.058-.129-9.858-.994-21.903-6.809-13.711-6.62-17.345-12.322-25.986-32.641.412,2.106,1.241,4.272,1.649,5.578-4.812-8.951-3.288-12.214,1.13-12.939-4.893-.384-9.792.131-15.071,2.144,3.574,13.851,14.412,33.999,27.58,42.002,14.956,9.091,25.187,6.805,33.682,9.325,1.402-2.697,1.182-5.215.795-6.772-.575.38-1.29.405-1.876.112Z"/>
  <path class="st9" d="M504.071,18.29c4.24-1.341,7.044-.223,6.395,7.013.37,4.675.213,11.38-2.371,17.783-4.488,11.101-12.177,17.401-25.501,23.547-.056.239-.112.483-.171.729-.007.031-.021.059-.031.087,1.541,1.217,3.009,2.514,4.397,3.89,5.513-2.478,12.177-5.145,19.308-13.349,9.08-10.449,12.575-31.157,11.392-43.193-5.37.254-9.855,1.74-13.418,3.494Z"/>
  <path class="st2" d="M146.506,225.324c-21.515,9.241-38.289,9.251-44.339,1.928-5.551-6.723-9.066-13.683-12.212-20.633,2.532,13.373,9.516,27.925,21.997,29.895,7.902,1.245,18.953-.499,27.025-2.239,2.399-3.065,4.917-6.04,7.529-8.951Z"/>
  <g>
    <path class="st5" d="M225.496,476.693c2.204,1.388,7.159,3.48,8.728,4.171,2.647,1.158,5.335,2.302,7.923,3.588,2.277,1.14,5.534,2.73,5.409,5.747-.077,1.817-1.527,3.257-3.348,3.313-3.041.098-6.497-.436-9.495-.966-4.01-.711-8.013-1.642-11.95-2.692-5.287-1.416-20.208-5.565-23.193-10.325-4.47-7.131,2.448-7.421,4.226-15.357.37-1.653,1.838-2.779,3.529-2.703,1.81.084-1.252-13.411,1.388-13.115,6.409.722,14.091,2.218,17.324,5.158,2.765,2.514,2.786,6.584,2.357,10.008-.464,3.728-1.5,7.518-2.406,11.166-.167.67-.331,1.339-.492,2.009Z"/>
    <path class="st1" d="M244.1,490.056c.094-2.277-22.97-9.767-22.363-12.473,1.967-8.714,5.339-18.457,1.974-21.516-2.26-2.054-8.01-3.267-13.07-3.961-4.791-.652,2.626,22.82,2.626,22.82,0,0-15.73-5.147-10.772,2.769,2.94,4.68,32.221,12.658,41.605,12.362Z"/>
    <path class="st5" d="M220.412,476.896c.69.767,2.825,1.921,3.578,2.305,2.546,1.301,5.29,2.385,7.975,3.369,4.819,1.768,9.893,3.369,14.862,4.704.973.261,1.712.854,2.176,1.75.464.893.52,1.838.171,2.783l-9.164,24.853c-.377,1.018-1.116,1.737-2.144,2.082-1.025.345-2.051.216-2.964-.366l-40.001-25.623c-.663-.422-1.109-.976-1.381-1.716-1.28-3.477-2.591-6.936-3.878-10.409-.931-2.521-1.866-5.067-2.643-7.637-1.091-3.599-2.033-7.644-.506-11.263,1.179-2.793,3.529-4.701,5.987-6.34,4.338-2.894,9.806-4.289,14.998-3.961,4.77.296,9.844,2.145,12.54,6.319.499.774.9,1.601,1.192,2.476,1.625,4.882-1.196,11.392-.798,16.676Z"/>
    <path class="st1" d="M196.762,489.843c-8.411-22.837-10.775-25.972-2.364-31.576,8.414-5.611,21.128-4.164,23.531,3.044,1.227,3.679-1.52,10.761-.917,16.341.575,5.363,28.919,12.958,28.919,12.958l-9.164,24.853-40.004-25.62Z"/>
    <path class="st5" d="M204.127,484.463c4.048,3.689,12.435,10.444,17.892,11.923.805-1.433,1.681-2.765,2.765-4.164,3.257-4.195,7.375-7.647,12.017-10.224,8.02-4.453,17.115-6.022,25.428-1.37,9.987,5.59,15.354,18.286,16.048,29.316.275,4.345-.136,8.99-1.716,13.073-1.165,3.009-5.489,4.097-8.31,4.746-4.547,1.046-9.412,1.615-14.06,2.071-13.349,1.304-27.133,1.636-40.545,1.426-7.173-.108-14.36-.394-21.516-.949-6.357-.488-12.78-1.175-19.061-2.312-6.528-1.182-20.776-3.972-22.129-12.072-.258-1.569.488-4.931.767-6.549.659-3.829,1.241-7.651,1.67-11.514,1.294-11.703,1.238-23.576-.718-35.209-.174-1.029-.132-2.068.136-3.076,2.144-7.961,16.487-9.063,23.102-8.958,6.758.108,19.158,1.593,22.293,8.725,1.231,2.797,2.155,5.785,2.922,8.742,1.346,5.206,2.396,10.95,3.013,16.375Z"/>
    <path class="st0" d="M195.025,460.74c4.192,9.516,5.799,25.376,5.799,25.376,0,0,14.702,14.015,23.113,14.015.105,0,3.518-8.986,14.545-15.11,22.136-12.292,35.269,8.052,36.343,25.139.269,4.258-.213,8.31-1.489,11.609-2.964,7.665-116.149,10.576-118.98-6.406-.38-2.291,6.367-25.592,1.712-53.28-1.677-9.987,34.77-10.862,38.958-1.343Z"/>
    <path class="st5" d="M214.56,483.392c-4.809,1.615-9.422,4.066-13.16,7.504-1.684,1.548-4.31,1.44-5.855-.244-1.548-1.681-1.44-4.31.244-5.855,4.893-4.495,10.96-7.63,17.275-9.607,2.106-.659,4.268-1.2,6.444-1.594.882-.157,1.796-.307,2.685-.391,2.267-.227,4.303,1.447,4.526,3.714.049.481.01.956-.101,1.398,1.308.321,2.438,1.269,2.926,2.629.269.746.307,1.527.153,2.253.265-.115.534-.227.802-.328,2.127-.823,4.53.237,5.356,2.368.819,2.127-.241,4.533-2.371,5.353-1.995.774-4.125,2.005-5.89,3.191-4.076,2.741-7.63,6.305-10.053,10.594-1.119,1.984-3.644,2.692-5.628,1.573-1.991-1.119-2.699-3.648-1.576-5.635,1.852-3.278,4.219-6.228,6.939-8.808-3.56,2.497-6.796,5.492-9.419,8.951-1.381,1.813-3.979,2.172-5.796.792-1.82-1.377-2.176-3.975-.795-5.796,3.63-4.784,8.233-8.829,13.293-12.062Z"/>
    <g>
      <path class="st2" d="M216.339,503.698c-.746,1.325-2.427,1.792-3.749,1.05-1.325-.75-1.796-2.427-1.05-3.752,6.842-12.104,19.423-16.818,19.458-16.832,1.419-.551,3.016.157,3.564,1.576.551,1.419-.157,3.016-1.576,3.567-.031.011-10.803,4.049-16.647,14.391Z"/>
      <path class="st2" d="M206.756,499.618c-.921,1.214-2.647,1.451-3.86.53-1.21-.917-1.447-2.643-.527-3.857,9.025-11.884,22.314-16.529,22.352-16.543,1.43-.513,3.009.23,3.522,1.667.513,1.43-.234,3.006-1.663,3.522-.035.01-11.804,4.122-19.824,14.681Z"/>
      <path class="st2" d="M200.462,489.878c-1.123,1.032-2.866.963-3.902-.16-1.029-1.123-.956-2.87.164-3.902,10.751-9.875,25.564-11.232,25.606-11.235,1.517-.147,2.866.959,3.016,2.472.15,1.517-.959,2.866-2.476,3.016-.038.003-13.028,1.196-22.408,9.809Z"/>
    </g>
    <path class="st5" d="M237.809,483.811c7.379-4.094,15.737-5.663,23.406-1.374,9.349,5.234,14.346,17.331,14.991,27.635.254,4.038-.112,8.397-1.58,12.194-.757,1.963-4.394,2.877-6.207,3.327-1.806.439-3.654.774-5.492,1.067-2.295.363-4.607.652-6.918.9-5.695.614-11.431.997-17.15,1.259-6.598.3-13.213.432-19.817.415-.708,0-3.003-1.381-3.079-2.085-1.914-17.345,6.078-34.582,21.847-43.338Z"/>
    <path class="st2" d="M238.482,485.021c22.136-12.292,35.269,8.052,36.343,25.139.269,4.258-.213,8.31-1.489,11.609-1.391,3.602-27.112,6.151-54.291,6.085-.805-7.278-.6-16.212,2.581-23.852,2.884-6.925,10.493-15.448,16.857-18.98Z"/>
    <path class="st5" d="M276.268,511.544c.087,3.581-.342,7.368-1.642,10.723-.802,2.082-4.917,3.03-6.838,3.473-2.016.464-4.069.809-6.109,1.112-2.552.37-5.123.666-7.689.917-6.266.614-12.582.976-18.876,1.2-7.138.258-14.29.328-21.435.22-7.131-.108-14.276-.397-21.386-.941-6.291-.485-12.641-1.168-18.851-2.291-2.584-.467-5.168-1.015-7.7-1.716-2.085-.575-4.192-1.266-6.165-2.162-2.723-1.238-6.047-3.271-6.58-6.493-.073-.422.042-1.21.091-1.646.098-.823.206-1.639.324-2.459.126-.868.258-1.743.425-2.605.059-.31.122-.628.206-.935.038-.146.087-.296.154-.432.324-.697,1.116-1.071,1.855-.753,7.525,3.222,16.009,5.143,24.068,6.437,9.516,1.531,19.238,2.284,28.87,2.584,11.759.363,23.632.056,35.352-.903,5.028-.411,10.05-.948,15.04-1.67,3.948-.572,7.93-1.259,11.807-2.197,1.133-.275,2.27-.537,3.41-.785.418-.087.813.003,1.147.269.335.261.513.628.523,1.053Z"/>
    <path class="st2" d="M274.887,511.578c.087,3.731-.418,7.26-1.552,10.189-2.964,7.665-116.149,10.573-118.98-6.406-.066-.405.882-7.449,1.154-7.333,30.6,13.098,91.914,10.168,116.003,4.321,1.168-.286,2.294-.541,3.375-.771Z"/>
    <path class="st5" d="M156.266,494.377c-.38.01-.697-.289-.711-.67-.011-.38.286-.701.67-.708.725-.028,1.437.021,2.127.139,2.856.481,5.391,2.117,7.236,4.575,1.824,2.427,3.648,5.904,3.773,9.624.045,1.367-.049,2.793-.296,4.268-.066.38-1.091.387-1.468.324-.373-.063-.628-.418-.565-.795.234-1.388.321-2.727.279-4-.115-3.424-1.165-6.385-2.825-8.596-1.632-2.176-3.86-3.62-6.361-4.042-.607-.101-1.231-.146-1.859-.122Z"/>
    <path class="st5" d="M187.957,468.68c1.817,0,3.295-1.478,3.295-3.292s-1.478-3.295-3.295-3.295-3.292,1.482-3.292,3.295,1.478,3.292,3.292,3.292Z"/>
    <path class="st5" d="M191.618,480.878c1.813,0,3.295-1.478,3.295-3.295s-1.482-3.292-3.295-3.292-3.295,1.482-3.295,3.292,1.482,3.295,3.295,3.295Z"/>
    <path class="st2" d="M167.31,507.136c-.115-3.424-1.165-6.385-2.825-8.596-1.632-2.176-3.86-3.62-6.361-4.042-.31-.052-.621-.087-.931-.108-.408,4.774-.99,8.927-1.524,12.261.126.017.255.049.38.105,3.533,1.513,7.271,2.734,11.075,3.745.16-1.165.22-2.287.185-3.365Z"/>
    <path class="st3" d="M239.894,506.975c-9.258-.69-15.023-2.838-15.905-6.932-.031-.129-.052-.265-.07-.401-.105.157-.202.321-.3.481-.795,1.318-1.472,2.626-1.994,3.878-.195.467-.38.938-.551,1.412-.405,1.123-.753,2.27-1.05,3.435-.589,2.326-.966,4.708-1.172,7.075,3.951-.003,7.909-.08,11.856-.234,1.991-.073,3.979-.167,5.966-.282.038-.004.073-.007.112-.007,1.259-.073,2.518-.154,3.777-.241,1.259-.087,2.521-.185,3.776-.286,5.028-.411,10.05-.948,15.04-1.67,3.948-.572,7.93-1.259,11.807-2.197,1.133-.275,2.27-.537,3.41-.785.077-.014.153-.024.23-.028-.004-.01-.004-.024-.004-.024-.146-2.347-.52-4.75-1.109-7.121-6.706,2.305-16.606,4.247-27.21,4.174-1.029-.004-2.026-.028-2.995-.059-1.255-.038-2.465-.105-3.616-.188Z"/>
    <path class="st3" d="M217.402,519.327c-26.729-.108-52.122-3.902-62.353-8.972-.021-.011-.042-.021-.063-.031-.136.851-.275,1.817-.387,2.671-.16,1.221-.269,2.221-.244,2.368,1.478,8.864,33.047,12.309,63.298,12.484.464.003.928.003,1.391.007,27.179.066,52.9-2.483,54.291-6.085.969-2.504,1.482-5.45,1.555-8.589-5.196,1.44-17.087,4.153-36.796,5.475-.746.052-1.503.098-2.274.147-1.594.094-3.236.181-4.931.258-4.066.178-8.16.269-12.226.269h-1.262Z"/>
    <path class="st10" d="M187.72,459.6c1.102.579,2.054,1.22,2.884,1.911.38.317.732.638,1.06.973,1.071,1.084,1.89,2.27,2.528,3.515,1.628,3.156,2.11,6.706,2.654,10.078.422,2.636,1.011,4.819,1.656,6.455.554-.422,1.123-.833,1.702-1.224-.056-.373-.115-.76-.178-1.158-.321-2.064-.75-4.502-1.29-7.051-.502-2.343-1.098-4.777-1.799-7.1-.373-1.214-.767-2.396-1.192-3.515-.23-.603-.471-1.186-.718-1.744-.307-.701-.788-1.346-1.416-1.932-.812-.76-1.866-1.423-3.103-1.998-6.744-3.128-18.932-3.54-26.865-1.416-1.214.328-2.333.711-3.313,1.158-2.807,1.269-4.509,3.02-4.3,5.241,1.656-.788,3.424-1.545,5.283-2.225,1.084-.398,2.197-.767,3.337-1.099,6.214-1.813,13.105-2.497,19.632-.324,1.28.429,2.424.917,3.438,1.454Z"/>
    <path class="st0" d="M204.897,462.309c.969-.174,1.914-.247,2.828-.223.418.007.823.038,1.224.087.342.042.68.097,1.011.164.432.091.851.199,1.259.331,1.813.589,3.4,1.59,4.655,2.919.764.809,1.412,1.587,1.963,2.315.39-2.591.641-4.934.091-6.591-.997-2.995-3.776-4.997-7.288-5.911-.188-.045-.38-.094-.572-.136-.338-.077-.687-.139-1.036-.199-.432-.066-.872-.122-1.318-.157-.206-.017-.408-.035-.614-.045-.68-.035-1.37-.042-2.064-.007-2.811.129-5.726.823-8.386,2.117.638.711,1.158,1.5,1.541,2.371.45,1.025.861,2.075,1.234,3.138.185.52.359,1.043.527,1.569,1.681-.886,3.341-1.458,4.945-1.744Z"/>
  </g>
  <g>
    <path class="st5" d="M379.675,476.693c2.207,1.388,7.159,3.48,8.728,4.171,2.647,1.158,5.339,2.302,7.923,3.588,2.28,1.14,5.537,2.73,5.409,5.747-.077,1.817-1.527,3.257-3.344,3.313-3.044.098-6.504-.436-9.499-.966-4.014-.711-8.013-1.642-11.947-2.692-5.29-1.416-20.211-5.565-23.196-10.325-4.47-7.131,2.452-7.421,4.223-15.357.373-1.653,1.841-2.779,3.536-2.703,1.806.084-1.255-13.411,1.388-13.115,6.409.722,14.088,2.218,17.324,5.158,2.762,2.514,2.783,6.584,2.354,10.008-.464,3.728-1.499,7.518-2.406,11.166-.167.67-.331,1.339-.492,2.009Z"/>
    <path class="st1" d="M398.279,490.056c.098-2.277-22.973-9.767-22.359-12.473,1.963-8.714,5.335-18.457,1.974-21.516-2.263-2.054-8.013-3.267-13.07-3.961-4.791-.652,2.622,22.82,2.622,22.82,0,0-15.727-5.147-10.768,2.769,2.94,4.68,32.218,12.658,41.601,12.362Z"/>
    <path class="st5" d="M374.591,476.896c.694.767,2.825,1.921,3.578,2.305,2.546,1.301,5.29,2.385,7.972,3.369,4.826,1.768,9.897,3.369,14.866,4.704.973.261,1.712.854,2.176,1.75.464.893.523,1.838.171,2.783l-9.164,24.853c-.377,1.018-1.119,1.737-2.145,2.082-1.025.345-2.05.216-2.964-.366l-40.001-25.623c-.663-.422-1.106-.976-1.381-1.716-1.28-3.477-2.591-6.936-3.878-10.409-.931-2.521-1.866-5.067-2.647-7.637-1.088-3.599-2.026-7.644-.502-11.263,1.182-2.793,3.532-4.701,5.987-6.34,4.338-2.894,9.806-4.289,15.002-3.961,4.767.296,9.841,2.145,12.536,6.319.502.774.903,1.601,1.196,2.476,1.625,4.882-1.2,11.392-.802,16.676Z"/>
    <path class="st1" d="M350.941,489.843c-8.411-22.837-10.775-25.972-2.364-31.576,8.411-5.611,21.128-4.164,23.531,3.044,1.227,3.679-1.52,10.761-.917,16.341.575,5.363,28.919,12.958,28.919,12.958l-9.164,24.853-40.004-25.62Z"/>
    <path class="st5" d="M358.306,484.463c4.049,3.689,12.435,10.444,17.892,11.923.809-1.433,1.681-2.765,2.765-4.164,3.26-4.195,7.375-7.647,12.016-10.224,8.024-4.453,17.115-6.022,25.428-1.37,9.991,5.59,15.357,18.286,16.048,29.316.275,4.345-.136,8.99-1.716,13.073-1.165,3.009-5.489,4.097-8.306,4.746-4.551,1.046-9.419,1.615-14.06,2.071-13.352,1.304-27.14,1.636-40.545,1.426-7.176-.108-14.363-.394-21.519-.949-6.357-.488-12.78-1.175-19.057-2.312-6.531-1.182-20.78-3.972-22.129-12.072-.262-1.569.488-4.931.764-6.549.659-3.829,1.245-7.651,1.67-11.514,1.294-11.703,1.238-23.576-.718-35.209-.174-1.029-.136-2.068.136-3.076,2.145-7.961,16.491-9.063,23.102-8.958,6.755.108,19.158,1.593,22.293,8.725,1.231,2.797,2.155,5.785,2.922,8.742,1.346,5.206,2.396,10.95,3.013,16.375Z"/>
    <path class="st0" d="M349.208,460.74c4.188,9.516,5.799,25.376,5.799,25.376,0,0,14.698,14.015,23.109,14.015.108,0,3.518-8.986,14.545-15.11,22.136-12.292,35.272,8.052,36.346,25.139.269,4.258-.216,8.31-1.492,11.609-2.964,7.665-116.149,10.576-118.98-6.406-.38-2.291,6.371-25.592,1.712-53.28-1.677-9.987,34.773-10.862,38.961-1.343Z"/>
    <path class="st5" d="M368.74,483.392c-4.805,1.615-9.419,4.066-13.164,7.504-1.677,1.548-4.303,1.44-5.848-.244-1.552-1.681-1.44-4.31.24-5.855,4.893-4.495,10.96-7.63,17.275-9.607,2.106-.659,4.268-1.2,6.444-1.594.882-.157,1.796-.307,2.688-.391,2.263-.227,4.303,1.447,4.526,3.714.045.481.007.956-.101,1.398,1.308.321,2.438,1.269,2.922,2.629.269.746.307,1.527.153,2.253.269-.115.533-.227.802-.328,2.127-.823,4.533.237,5.353,2.368.823,2.127-.237,4.533-2.364,5.353-1.998.774-4.129,2.005-5.893,3.191-4.073,2.741-7.626,6.305-10.053,10.594-1.119,1.984-3.641,2.692-5.632,1.573-1.988-1.119-2.696-3.648-1.573-5.635,1.855-3.278,4.219-6.228,6.939-8.808-3.56,2.497-6.797,5.492-9.422,8.951-1.377,1.813-3.972,2.172-5.792.792-1.82-1.377-2.176-3.975-.795-5.796,3.633-4.784,8.233-8.829,13.293-12.062Z"/>
    <g>
      <path class="st2" d="M370.518,503.698c-.746,1.325-2.424,1.792-3.749,1.05-1.325-.75-1.792-2.427-1.05-3.752,6.842-12.104,19.423-16.818,19.458-16.832,1.423-.551,3.016.157,3.564,1.576.551,1.419-.153,3.016-1.576,3.567-.031.011-10.803,4.049-16.647,14.391Z"/>
      <path class="st2" d="M360.936,499.618c-.917,1.214-2.647,1.451-3.857.53-1.213-.917-1.451-2.643-.53-3.857,9.025-11.884,22.314-16.529,22.352-16.543,1.43-.513,3.009.23,3.522,1.667.513,1.43-.234,3.006-1.663,3.522-.035.01-11.804,4.122-19.824,14.681Z"/>
      <path class="st2" d="M354.641,489.878c-1.119,1.032-2.866.963-3.899-.16s-.963-2.87.161-3.902c10.754-9.875,25.564-11.232,25.609-11.235,1.513-.147,2.863.959,3.013,2.472.15,1.517-.959,2.866-2.476,3.016-.038.003-13.028,1.196-22.408,9.809Z"/>
    </g>
    <path class="st5" d="M391.992,483.811c7.375-4.094,15.734-5.663,23.402-1.374,9.352,5.234,14.346,17.331,14.991,27.635.255,4.038-.108,8.397-1.576,12.194-.764,1.963-4.397,2.877-6.214,3.327-1.806.439-3.651.774-5.489,1.067-2.294.363-4.606.652-6.918.9-5.691.614-11.431.997-17.15,1.259-6.598.3-13.209.432-19.817.415-.708,0-3.003-1.381-3.079-2.085-1.914-17.345,6.078-34.582,21.85-43.338Z"/>
    <path class="st2" d="M392.661,485.021c22.136-12.292,35.272,8.052,36.346,25.139.269,4.258-.216,8.31-1.492,11.609-1.391,3.602-27.116,6.151-54.291,6.085-.806-7.278-.6-16.212,2.58-23.852,2.884-6.925,10.496-15.448,16.857-18.98Z"/>
    <path class="st5" d="M430.451,511.544c.084,3.581-.345,7.368-1.642,10.723-.806,2.082-4.92,3.03-6.842,3.473-2.012.464-4.066.809-6.109,1.112-2.553.37-5.119.666-7.686.917-6.27.614-12.581.976-18.876,1.2-7.142.258-14.297.328-21.435.22-7.135-.108-14.28-.397-21.39-.941-6.291-.485-12.641-1.168-18.848-2.291-2.587-.467-5.171-1.015-7.703-1.716-2.085-.575-4.188-1.266-6.165-2.162-2.72-1.238-6.047-3.271-6.58-6.493-.073-.422.042-1.21.094-1.646.094-.823.206-1.639.321-2.459.126-.868.258-1.743.425-2.605.059-.31.122-.628.206-.935.042-.146.087-.296.153-.432.324-.697,1.116-1.071,1.859-.753,7.522,3.222,16.006,5.143,24.065,6.437,9.52,1.531,19.238,2.284,28.87,2.584,11.755.363,23.632.056,35.356-.903,5.021-.411,10.05-.948,15.037-1.67,3.947-.572,7.93-1.259,11.807-2.197,1.133-.275,2.27-.537,3.41-.785.418-.087.813.003,1.147.269.335.261.513.628.527,1.053Z"/>
    <path class="st2" d="M429.067,511.578c.091,3.731-.418,7.26-1.552,10.189-2.964,7.665-116.149,10.573-118.98-6.406-.066-.405.882-7.449,1.154-7.333,30.603,13.098,91.91,10.168,116.006,4.321,1.168-.286,2.294-.541,3.372-.771Z"/>
    <path class="st5" d="M310.446,494.377c-.377.01-.697-.289-.711-.67-.011-.38.289-.701.67-.708.729-.028,1.44.021,2.127.139,2.856.481,5.391,2.117,7.236,4.575,1.824,2.427,3.648,5.904,3.773,9.624.045,1.367-.052,2.793-.296,4.268-.066.38-1.092.387-1.468.324-.373-.063-.628-.418-.565-.795.234-1.388.324-2.727.279-4-.112-3.424-1.165-6.385-2.825-8.596-1.632-2.176-3.86-3.62-6.361-4.042-.607-.101-1.227-.146-1.859-.122Z"/>
    <path class="st5" d="M342.14,468.68c1.813,0,3.292-1.478,3.292-3.292s-1.478-3.295-3.292-3.295-3.296,1.482-3.296,3.295,1.479,3.292,3.296,3.292Z"/>
    <path class="st5" d="M345.798,480.878c1.813,0,3.292-1.478,3.292-3.295s-1.478-3.292-3.292-3.292-3.295,1.482-3.295,3.292,1.482,3.295,3.295,3.295Z"/>
    <path class="st2" d="M321.489,507.136c-.112-3.424-1.165-6.385-2.825-8.596-1.632-2.176-3.86-3.62-6.361-4.042-.307-.052-.617-.087-.931-.108-.404,4.774-.99,8.927-1.524,12.261.129.017.258.049.384.105,3.525,1.513,7.267,2.734,11.075,3.745.16-1.165.22-2.287.181-3.365Z"/>
    <path class="st3" d="M394.077,506.975c-9.262-.69-15.03-2.838-15.908-6.932-.028-.129-.052-.265-.073-.401-.101.157-.199.321-.296.481-.795,1.318-1.472,2.626-1.995,3.878-.195.467-.377.938-.551,1.412-.408,1.123-.753,2.27-1.046,3.435-.593,2.326-.966,4.708-1.175,7.075,3.951-.003,7.909-.08,11.86-.234,1.991-.073,3.979-.167,5.963-.282.035-.004.077-.007.112-.007,1.259-.073,2.518-.154,3.776-.241,1.262-.087,2.521-.185,3.78-.286,5.021-.411,10.05-.948,15.037-1.67,3.947-.572,7.93-1.259,11.807-2.197,1.133-.275,2.27-.537,3.41-.785.077-.014.154-.024.23-.028v-.024c-.15-2.347-.523-4.75-1.116-7.121-6.702,2.305-16.602,4.247-27.203,4.174-1.032-.004-2.029-.028-2.999-.059-1.255-.038-2.462-.105-3.613-.188Z"/>
    <path class="st3" d="M371.582,519.327c-26.729-.108-52.118-3.902-62.35-8.972-.024-.011-.045-.021-.066-.031-.136.851-.275,1.817-.387,2.671-.16,1.221-.265,2.221-.244,2.368,1.478,8.864,33.044,12.309,63.298,12.484.464.003.928.003,1.391.007,27.175.066,52.9-2.483,54.291-6.085.969-2.504,1.482-5.45,1.552-8.589-5.192,1.44-17.083,4.153-36.789,5.475-.75.052-1.507.098-2.277.147-1.594.094-3.236.181-4.927.258-4.069.178-8.163.269-12.229.269h-1.262Z"/>
    <path class="st10" d="M341.899,459.6c1.102.579,2.057,1.22,2.887,1.911.377.317.729.638,1.057.973,1.071,1.084,1.89,2.27,2.532,3.515,1.628,3.156,2.106,6.706,2.65,10.078.422,2.636,1.011,4.819,1.653,6.455.558-.422,1.126-.833,1.705-1.224-.056-.373-.115-.76-.178-1.158-.321-2.064-.75-4.502-1.29-7.051-.502-2.343-1.098-4.777-1.799-7.1-.37-1.214-.767-2.396-1.193-3.515-.23-.603-.467-1.186-.715-1.744-.31-.701-.791-1.346-1.423-1.932-.809-.76-1.862-1.423-3.1-1.998-6.741-3.128-18.928-3.54-26.865-1.416-1.217.328-2.333.711-3.313,1.158-2.807,1.269-4.509,3.02-4.296,5.241,1.653-.788,3.424-1.545,5.28-2.225,1.084-.398,2.197-.767,3.337-1.099,6.214-1.813,13.108-2.497,19.636-.324,1.28.429,2.42.917,3.435,1.454Z"/>
    <path class="st0" d="M359.073,462.309c.973-.174,1.918-.247,2.835-.223.415.007.823.038,1.224.087.342.042.676.097,1.008.164.432.091.851.199,1.262.331,1.813.589,3.397,1.59,4.652,2.919.764.809,1.412,1.587,1.963,2.315.391-2.591.642-4.934.091-6.591-.997-2.995-3.776-4.997-7.288-5.911-.188-.045-.38-.094-.572-.136-.342-.077-.683-.139-1.036-.199-.432-.066-.872-.122-1.318-.157-.206-.017-.412-.035-.614-.045-.68-.035-1.367-.042-2.064-.007-2.811.129-5.729.823-8.383,2.117.631.711,1.154,1.5,1.538,2.371.453,1.025.861,2.075,1.234,3.138.185.52.363,1.043.527,1.569,1.681-.886,3.344-1.458,4.941-1.744Z"/>
  </g>
  <path class="st10" d="M438.942,406.839c6.8.882,14.479,3.522,19.849,8.156,1.161,1.001,2.05,2.127,2.723,3.334.6,1.091,1.025,2.249,1.308,3.449.704,3.006.52,6.259.031,9.314-.063.401-.132.795-.206,1.186-.091.495-.188.983-.289,1.458-.143.67-.293,1.318-.436,1.946-.412,1.747-.82,3.32-1.067,4.592.558-.136,1.116-.258,1.681-.37.199-.764.412-1.601.628-2.497.098-.394.192-.799.293-1.214.251-1.077.502-2.218.743-3.397.255-1.241.492-2.528.708-3.822.429-2.605.746-5.259.837-7.717.021-.586.031-1.158.024-1.719-.004-.579-.122-1.168-.328-1.765-2.347-6.64-16.637-13.921-26.258-15.085-1.241-.154-2.406-.199-3.456-.133-2.797.181-4.791,1.186-5.304,3.292-.07.3-.143.596-.22.893,1.58-.216,3.372-.286,5.29-.202,1.116.049,2.267.146,3.449.3Z"/>
  <path class="st0" d="M471.296,424.495c.185,2.706.467,4.544,2.35,5.569.795.439,1.883.732,3.372.882.066.007.136.014.206.017.038.003.073.007.108.01,3.539.3,5.841,1.015,7.002,2.169.907-1.58,1.583-3.048,1.688-4.331.293-3.55-1.583-5.883-4.865-7.145-.638-.248-1.329-.453-2.068-.621-.425-.094-.865-.174-1.322-.248-.031-.003-.066-.007-.101-.014-1.977-.293-4.23-.345-6.664-.178.154,1.454.213,2.748.293,3.888Z"/>
  <path class="st7" d="M389.739,383.671c-5.182.439-9.966-.265-13.753-2.075-3.442-1.639-6.061-4.185-7.417-7.609-.157-.394-.296-.799-.418-1.221-.164,1.196-.321,2.392-.474,3.588-1.004,7.895-1.792,15.842-2.392,23.81.956-.206,1.904-.429,2.853-.656,7.271-1.758,14.227-4.083,20.745-7.016,6.312-2.842,12.212-6.252,17.593-10.276,1.318-.987,2.601-2.009,3.857-3.069,4.607-3.892,8.77-8.289,12.414-13.22-2.002,1.792-4.282,3.825-6.887,6.13-2.887,2.549-5.977,4.673-9.143,6.381-1.813.983-3.651,1.824-5.492,2.532-3.888,1.492-7.787,2.389-11.483,2.699Z"/>
  <metadata>
    <sfw xmlns="http://ns.adobe.com/SaveForWeb/1.0/">
      <slices/>
      <sliceSourceBounds x="-2051.88" y="-4498.52" width="4384.6" height="3952.85" bottomLeftOrigin="true"/>
      <optimizationSettings>
        <targetSettings fileFormat="PNG24Format" targetSettingsID="0">
          <PNG24Format filtered="false" interlaced="false" matteColor="#FFFFFF" noMatteColor="false" transparency="true"/>
        </targetSettings>
      </optimizationSettings>
    </sfw>
  </metadata>
</svg>