<svg id="Layer_1" data-name="Layer 1" xmlns="http://www.w3.org/2000/svg" xmlns:xlink="http://www.w3.org/1999/xlink" viewBox="0 0 641.15997 280.16"><defs><style>.cls-1{clip-path:url(#clip-path);}.cls-2{clip-path:url(#clip-path-2);}.cls-3{fill-rule:evenodd;}.cls-4{opacity:0.8;}.cls-5{clip-path:url(#clip-path-3);}</style><clipPath id="clip-path"><rect x="502.53001" y="255.22998" width="126.5" height="1"/></clipPath><clipPath id="clip-path-2"><rect x="12.63" y="255.22998" width="126.5" height="1"/></clipPath><clipPath id="clip-path-3"><rect x="246.63" y="13.42998" width="1" height="203.50001"/></clipPath></defs><path id="SVGID" d="M502.53,255.23h126.5v1H502.53Z"/><rect x="502.53001" y="255.22998" width="126.5" height="1"/><g class="cls-1"><path d="M502.53,255.23h126.5v1H502.53Z"/></g><path id="SVGID-2" data-name="SVGID" d="M12.63,255.23h126.5v1H12.63Z"/><rect x="12.63" y="255.22998" width="126.5" height="1"/><g class="cls-2"><path d="M12.63,255.23h126.5v1H12.63Z"/></g><path d="M185.63,187.33c1.1-.3,2.4-.6,4.1-.9a29.60758,29.60758,0,0,1,5.2-.4,12.03117,12.03117,0,0,1,4.6.7,7.03052,7.03052,0,0,1,2.9,2.1,7.91362,7.91362,0,0,1,1.5,3.2,17.70552,17.70552,0,0,1,.5,4.1v12.4h-6.1v-11.7a8.34929,8.34929,0,0,0-.8-4.2q-.75-1.2-3-1.2a7.08417,7.08417,0,0,0-1.4.1c-.5,0-.9.1-1.3.1v16.9h-6.2v-21.2Zm-11.4,10.1a8.30843,8.30843,0,0,0-1.1-4.5,4.20311,4.20311,0,0,0-6.6,0,7.50919,7.50919,0,0,0-1.2,4.5,8.05889,8.05889,0,0,0,1.2,4.6,4.05294,4.05294,0,0,0,6.6,0,8.68558,8.68558,0,0,0,1.1-4.6m6.3,0a14.05486,14.05486,0,0,1-.7,4.7,10.70227,10.70227,0,0,1-2.2,3.7,10.00729,10.00729,0,0,1-7.8,3.2,12.30677,12.30677,0,0,1-4.4-.8,10.03715,10.03715,0,0,1-3.4-2.4,10.40249,10.40249,0,0,1-2.2-3.7,14.20608,14.20608,0,0,1,0-9.4,10.88744,10.88744,0,0,1,2.2-3.6,9.75572,9.75572,0,0,1,3.4-2.3,10.29415,10.29415,0,0,1,4.3-.8,11.758,11.758,0,0,1,4.3.8,11.3402,11.3402,0,0,1,3.4,2.3,10.88724,10.88724,0,0,1,2.2,3.6,11.933,11.933,0,0,1,.9,4.7m-33.7,11.6c-4.7,0-8.3-1.3-10.7-3.9-2.5-2.6-3.7-6.3-3.7-11.1a18.25929,18.25929,0,0,1,1.1-6.4,12.9246,12.9246,0,0,1,7.8-7.6,16.25515,16.25515,0,0,1,5.9-1,16.85763,16.85763,0,0,1,3.3.3c1,.2,1.9.4,2.6.6a19.68393,19.68393,0,0,1,1.9.7,3.58043,3.58043,0,0,1,1.1.6l-1.9,5.2a12.522,12.522,0,0,0-3.1-1.2,16.19932,16.19932,0,0,0-4-.5,9.29069,9.29069,0,0,0-2.9.5,5.98255,5.98255,0,0,0-2.5,1.6,9.65164,9.65164,0,0,0-1.8,2.8,13.17153,13.17153,0,0,0-.7,4.2,14.4827,14.4827,0,0,0,.4,3.7,9.22818,9.22818,0,0,0,1.4,3,7.52968,7.52968,0,0,0,2.6,2,8.897,8.897,0,0,0,3.8.7,18.09668,18.09668,0,0,0,2.5-.2,10.08519,10.08519,0,0,0,2-.4,13.08148,13.08148,0,0,0,1.5-.5,6.11763,6.11763,0,0,1,1.2-.5l1.8,5.2a12.19356,12.19356,0,0,1-3.9,1.5,19.32033,19.32033,0,0,1-5.7.7m-24.7-13.7a4.01256,4.01256,0,0,0-.3-1.5,5.388,5.388,0,0,0-.7-1.3,4.00141,4.00141,0,0,0-1.2-1,4.77643,4.77643,0,0,0-1.8-.4,3.42461,3.42461,0,0,0-1.8.4,2.73,2.73,0,0,0-1.2.9,4.67775,4.67775,0,0,0-.8,1.4,7.49111,7.49111,0,0,0-.4,1.6h8.2Zm-14.5,2.3a13.638,13.638,0,0,1,.9-5.1,9.47826,9.47826,0,0,1,2.4-3.6,10.04457,10.04457,0,0,1,3.3-2.2,10.72332,10.72332,0,0,1,3.9-.7,9.72437,9.72437,0,0,1,7.4,2.8q2.7,2.85,2.7,8.4v1.2c0,.4-.1.8-.1,1.1h-14.1a3.71721,3.71721,0,0,0,1.8,3,7.6981,7.6981,0,0,0,4.2,1.1,17.60962,17.60962,0,0,0,3.3-.3,12.54357,12.54357,0,0,0,2.7-.8l.8,5a8.93091,8.93091,0,0,1-1.3.5,10.62153,10.62153,0,0,1-1.9.4c-.7.1-1.4.2-2.2.3a18.482,18.482,0,0,1-2.3.1,12.92845,12.92845,0,0,1-5.1-.9,9.47813,9.47813,0,0,1-3.6-2.4,8.1782,8.1782,0,0,1-2.1-3.6,11.41459,11.41459,0,0,1-.7-4.3m-4.1-.1a14.03345,14.03345,0,0,1-.8,4.7,10.88738,10.88738,0,0,1-2.2,3.6,9.67247,9.67247,0,0,1-3.6,2.3,14.19413,14.19413,0,0,1-4.8.8,20.93223,20.93223,0,0,1-2.4-.1l-2.4-.3a18.45911,18.45911,0,0,1-2.3-.4c-.7-.2-1.4-.3-1.9-.5v-30.6l6.2-1v10.9a14.16125,14.16125,0,0,1,2.2-.7,9.34537,9.34537,0,0,1,2.4-.2,10.33021,10.33021,0,0,1,4.1.8,7.56065,7.56065,0,0,1,3,2.3,10.15193,10.15193,0,0,1,1.8,3.6,14.66063,14.66063,0,0,1,.7,4.8m-6.3-.2c0-4-1.5-6-4.4-6a12.25368,12.25368,0,0,0-1.9.2,11.638,11.638,0,0,0-1.5.6v11.3a4.12044,4.12044,0,0,0,1.2.1c.5,0,1,.1,1.5.1a4.452,4.452,0,0,0,3.8-1.7,7.84368,7.84368,0,0,0,1.3-4.6m-20.2,10.4c-1.1.3-2.4.6-4.1.9a29.60766,29.60766,0,0,1-5.2.4,12.03111,12.03111,0,0,1-4.6-.7,7.0305,7.0305,0,0,1-2.9-2.1,8.59293,8.59293,0,0,1-1.5-3.2,17.045,17.045,0,0,1-.5-4.1v-12.2h6.1v11.4a9.0769,9.0769,0,0,0,.8,4.3c.5.9,1.5,1.3,3,1.3a7.08348,7.08348,0,0,0,1.4-.1c.5,0,.9-.1,1.3-.1v-16.9h6.2v21.1Zm-28.6.7c-.6-.9-1.3-2-2.1-3.1a37.46268,37.46268,0,0,0-2.6-3.3c-.9-1.1-1.9-2.1-2.9-3.2a36.53174,36.53174,0,0,0-3-2.7v12.2H31.33v-28.8h6.5v10.9c1.7-1.8,3.4-3.6,5.1-5.6,1.7-1.9,3.3-3.7,4.8-5.3h7.7c-2,2.3-3.9,4.6-5.9,6.7-2,2.2-4.1,4.3-6.3,6.5a54.04431,54.04431,0,0,1,6.7,6.8,88.54617,88.54617,0,0,1,6.2,8.7h-7.7Z"/><path class="cls-3" d="M100.43,81.23l-3.6.8c0-.5-.1-1-.1-1.5a20.70777,20.70777,0,0,1,3-10.8l7,6.2a1.38046,1.38046,0,0,0,.4.3,11.40359,11.40359,0,0,0-.8,3.3c-.2.1-.5.1-.7.2Zm13.6-21.2v9.8a8.66969,8.66969,0,0,0-2.7,1.4c-.3-.2-.6-.5-.9-.7l-7.1-5a19.72778,19.72778,0,0,1,10.7-5.5m-48.7,22.6c3.4-14.9,6.3-27.5,9.7-42.4,1.5-6.7,2.5-8.5,8.6-12,8.4-4.9,14.7-8.4,23.7-13.6,5.6-3.2,6.7-3,6.7,3.9v34.6a27.03358,27.03358,0,0,0-16.4,8.3l-3-2.1a1.44539,1.44539,0,0,1-.7-1,4.87059,4.87059,0,0,0-1.6-2.4,3.27185,3.27185,0,0,0-4.1,5.1,3.46488,3.46488,0,0,0,1.6.8c.4.1.8.1,1.2.2a2.47075,2.47075,0,0,1,.9.4l2.8,2.5a27.37853,27.37853,0,0,0-4.7,15.4c0,1,.1,2,.2,3l-6.1,1.3a6.15153,6.15153,0,0,0-1.3.1l-.9.3c-4,.8-8,1.7-12.1,2.6-5.5,1.3-5.7.2-4.5-5m55.8-12.8v-9.8a21.0278,21.0278,0,0,1,10.7,5.4l-7.7,5.5c-.1.1-.2.2-.3.2a11.11313,11.11313,0,0,0-2.7-1.3m17.2,11.5-9.6-2.2a9.46887,9.46887,0,0,0-.8-3c.1-.1.2-.2.3-.2l7.1-6.3a20.89419,20.89419,0,0,1,3.1,10.9,1.94925,1.94925,0,0,0-.1.8m-12.5-52.9c5.2,2.5,8.9,4.3,14.1,6.8,7.2,3.5,14.4,7,21.7,10.4,1.8,7.8,3.6,15.6,5.3,23.4,1.1,4.7,1.6,7.2,2.7,11.8,1.7,7.3,1.5,7.9-6,6.2l-18.5-4.2a19.26681,19.26681,0,0,0,.1-2.4,26.80638,26.80638,0,0,0-4.8-15.5l2.6-2.4a2.21981,2.21981,0,0,1,1.1-.5,5.234,5.234,0,0,0,2.7-1,3.27185,3.27185,0,1,0-4.1-5.1,4.07145,4.07145,0,0,0-1.2,1.4c-.2.4-.3.7-.5,1.1a1.55511,1.55511,0,0,1-.6.8l-3,2.1a27.30412,27.30412,0,0,0-16.4-8.3V31.93c.1-4.9.5-5.5,4.8-3.5m-6.4,63a11.07592,11.07592,0,0,1-1.9.2,10.86882,10.86882,0,0,1-1.8-.1l-.3.6-4.4,8.1a20.76488,20.76488,0,0,0,6.6,1.1,21.8692,21.8692,0,0,0,6.7-1.1l-4.4-8a3.50823,3.50823,0,0,1-.5-.8m7.8-5.3,9.6,2.2a20.74277,20.74277,0,0,1-7.8,9.5l-3.8-9.2a15.6658,15.6658,0,0,0,2-2.5m-28.9,2.1,9.6-2.2a13.2904,13.2904,0,0,0,2.1,2.6l-.3.6-3.5,8.6a20.59851,20.59851,0,0,1-7.9-9.6m78.6,16.9c-4.6,5.7-6.7,8.4-11.3,14.1-5.2,6.5-9.4,11.8-14.6,18.3-3.7,4.7-6.4,4.8-12.5,4.8h-42c-8,0-8.6,0-13.5-6.2-4.9-6.1-8.7-10.9-13.5-17-3.8-4.8-4.8-6-8.6-10.8-5.9-7.4-6.9-10.1,2.3-12.1l28.4-6.4a28.08137,28.08137,0,0,0,11.9,14.4l-1.3,3a1.76459,1.76459,0,0,1-.8.9,4.53516,4.53516,0,0,0-2,2.1,3.2871,3.2871,0,1,0,5.9,2.9,5.3403,5.3403,0,0,0,.5-1.8,4.86852,4.86852,0,0,0-.1-1.2,1.803,1.803,0,0,1,.2-1l1.6-2.9a27.97333,27.97333,0,0,0,9.9,1.8,26.5201,26.5201,0,0,0,10-1.9l1.6,2.9a1.63657,1.63657,0,0,1,.2,1.2,4.49923,4.49923,0,0,0,.4,2.8,3.2871,3.2871,0,1,0,5.9-2.9,4.177,4.177,0,0,0-1.1-1.5,6.06986,6.06986,0,0,0-1-.7,1.242,1.242,0,0,1-.6-.8l-1.3-3.2a27.42738,27.42738,0,0,0,11.8-14.4l31.3,7.1c6.3,1.7,5.9,3.9,2.3,8.5"/><path class="cls-3" d="M121.13,69.83v-9.8a21.0278,21.0278,0,0,1,10.7,5.4l-7.7,5.5c-.1.1-.2.2-.3.2a11.11313,11.11313,0,0,0-2.7-1.3m17.2,11.5-9.6-2.2a9.46887,9.46887,0,0,0-.8-3c.1-.1.2-.2.3-.2l7.1-6.3a20.89419,20.89419,0,0,1,3.1,10.9,1.94925,1.94925,0,0,0-.1.8m-12.5-52.9c5.2,2.5,8.9,4.3,14.1,6.8,7.2,3.5,14.4,7,21.7,10.4,1.8,7.8,3.6,15.6,5.3,23.4,1.1,4.7,1.6,7.2,2.7,11.8,1.7,7.3,1.5,7.9-6,6.2l-18.5-4.2a19.26681,19.26681,0,0,0,.1-2.4,26.80638,26.80638,0,0,0-4.8-15.5l2.6-2.4a2.21981,2.21981,0,0,1,1.1-.5,5.234,5.234,0,0,0,2.7-1,3.27185,3.27185,0,1,0-4.1-5.1,4.07145,4.07145,0,0,0-1.2,1.4c-.2.4-.3.7-.5,1.1a1.55511,1.55511,0,0,1-.6.8l-3,2.1a27.30412,27.30412,0,0,0-16.4-8.3V31.93c.1-4.9.5-5.5,4.8-3.5m1.4,57.7,9.6,2.2a20.74274,20.74274,0,0,1-7.8,9.5l-3.8-9.2a15.66624,15.66624,0,0,0,2-2.5m-9.7,15.1v-9.6a12.25245,12.25245,0,0,0,1.9-.2,2.506,2.506,0,0,0,.4.7l4.4,8a21.86925,21.86925,0,0,1-6.7,1.1m59.4,3.9c-4.6,5.7-6.7,8.4-11.3,14.1-5.2,6.5-9.4,11.8-14.6,18.3-3.7,4.7-6.4,4.8-12.5,4.8h-20.9v-34.3a26.5201,26.5201,0,0,0,10-1.9l1.6,2.9a1.63655,1.63655,0,0,1,.2,1.2,4.49912,4.49912,0,0,0,.4,2.8,3.2871,3.2871,0,0,0,5.9-2.9,4.17681,4.17681,0,0,0-1.1-1.5,6.07088,6.07088,0,0,0-1-.7,1.242,1.242,0,0,1-.6-.8l-1.3-3.2a27.42739,27.42739,0,0,0,11.8-14.4l31.3,7.1c6.1,1.7,5.7,3.9,2.1,8.5"/><path d="M408.93,103.93h-16.6v38.8h38.7v-16.6h-22.1Zm83.1.1v22.1h-22l-.2-.2v16.8h38.8v-38.8h-16.7Zm-99.7-38.9h16.7l-.1-.1V42.93h22l.1.2V26.33h-38.7Zm77.5-38.8v16.6h22.2v22.2h16.6V26.33Z"/><path class="cls-4" d="M467.83,65.13l-22.2-22.2h24.2V26.33h-38.8v16.8l22.1,22Zm-20,38.8h-14.7l18.4,18.4,3.8,3.8h-24.3v16.6h38.8v-16.8l-11-11Zm44.2-38.8v24.2l-3.8-3.8-18.4-18.3v14.7l11.1,11,11,11h16.7V65.13Zm-61,22-22-22h-16.8v38.8h16.7V79.73l22.1,22.1Z"/><path d="M311.13,185.03l-4.2,5a9.83079,9.83079,0,0,0-7.2-3.7,8.03082,8.03082,0,0,0-8,8.3c0,4.8,3.4,8.4,8,8.4a10.57482,10.57482,0,0,0,7.2-3.4l4.3,4.5a17.50846,17.50846,0,0,1-11.8,5.2c-8.6,0-15-6.3-15-14.7,0-8.3,6.6-14.5,15.3-14.5a17.21026,17.21026,0,0,1,11.4,4.9Zm3.5,24v-30.3h7.1v30.3Zm35.2-11c0,6.8-4.8,11.3-12,11.3s-12.1-4.5-12.1-11.3,4.8-11.2,12.1-11.2C345.03,186.83,349.83,191.23,349.83,198.03Zm-17,.1c0,3.4,2,5.7,4.9,5.7s4.9-2.3,4.9-5.7-2-5.7-4.9-5.7S332.83,194.73,332.83,198.13Zm42.3,10.9h-7.1v-3.6a7.79643,7.79643,0,0,1-7.2,3.9c-4.8,0-7.9-3.3-7.9-8.4v-13.9h7.1v11.9c0,2.6,1.4,4.2,3.7,4.2,2.7,0,4.3-2.2,4.3-5.2v-10.9h7.1Zm27.8,0h-7.1v-2.9a8.15188,8.15188,0,0,1-6.6,3.2c-6.2,0-10.3-4.6-10.3-11.4,0-6.7,4-11.2,10.1-11.2a8.12756,8.12756,0,0,1,6.8,3.2v-11.2h7.1v30.3Zm-7.1-10.9c0-3.4-2-5.7-4.9-5.7s-4.9,2.3-4.9,5.7,2,5.8,4.9,5.8C393.93,203.83,395.83,201.53,395.83,198.13Z"/><path d="M428.83,209.03l-13.2-17.6v17.6h-6.8v-28.6h6.4l13.2,17.7v-17.7h6.8v28.6Zm31.6-14.4v14.4h-6.9v-2.5c-1.4,1.9-3.8,2.9-6.7,2.9-4.7,0-7.6-2.9-7.6-6.9,0-4.2,3-6.6,8.5-6.7h5.8v-.3c0-2.2-1.4-3.5-4.3-3.5a16.83678,16.83678,0,0,0-6.6,1.8l-2-4.7a22.92146,22.92146,0,0,1,10.2-2.5C456.93,186.73,460.43,189.73,460.43,194.63Zm-6.9,7v-2h-4.5c-2.1,0-3.2.7-3.2,2.4,0,1.6,1.1,2.6,3.1,2.6A4.57124,4.57124,0,0,0,453.53,201.63Zm26,6.3a12.58388,12.58388,0,0,1-5.9,1.5c-4.3,0-7.3-2.4-7.3-7v-9.7h-3.1v-4.6h3.1v-6.1h7v6.1h5.8v4.7h-5.8v8.6c0,1.7.7,2.5,2,2.4a8.28253,8.28253,0,0,0,2.7-.7Zm10.8-27.2a3.65445,3.65445,0,0,1-3.7,3.8,3.75033,3.75033,0,0,1,0-7.5A3.516,3.516,0,0,1,490.33,180.73Zm-7.3,28.3v-22h7v22Zm18,0-8.3-22h7.3l4.7,15.6,4.8-15.6h7l-8.3,22Zm38.9-9.1h-15.5a5.14479,5.14479,0,0,0,5.2,4.1,7.85686,7.85686,0,0,0,5.3-2.2l3.7,3.6a12.4865,12.4865,0,0,1-9.6,3.9c-7.2,0-11.7-4.5-11.7-11.2,0-6.8,4.7-11.3,11.5-11.3,7.7,0,11.5,5.1,11.1,13.1Zm-6.8-3.8a4.14947,4.14947,0,0,0-4.3-4.5c-2.5,0-4.1,1.8-4.6,4.5h8.9Z"/><path d="M568.73,185.03l-4.2,5a9.83081,9.83081,0,0,0-7.2-3.7,8.03082,8.03082,0,0,0-8,8.3c0,4.8,3.4,8.4,8,8.4a10.57476,10.57476,0,0,0,7.2-3.4l4.3,4.5a17.50838,17.50838,0,0,1-11.8,5.2c-8.6,0-15-6.3-15-14.7,0-8.3,6.6-14.5,15.3-14.5A17.41907,17.41907,0,0,1,568.73,185.03Zm24.7,13c0,6.8-4.8,11.3-12,11.3s-12.1-4.5-12.1-11.3,4.8-11.2,12.1-11.2c7.2,0,12,4.4,12,11.2Zm-16.9.1c0,3.4,2,5.7,4.9,5.7s4.9-2.3,4.9-5.7-2-5.7-4.9-5.7S576.53,194.73,576.53,198.13Zm43.2-3v13.9h-7v-11.9c0-2.6-1.5-4.2-3.9-4.2-2.6,0-4.2,1.8-4.5,4.5v11.7h-7.1v-22h7.1v3.6a8.11679,8.11679,0,0,1,7.4-3.9c4.8-.1,8,3.2,8,8.3Z"/><path id="SVGID-3" data-name="SVGID" d="M246.63,13.43h1v203.5h-1Z"/><rect x="246.63" y="13.42998" width="1" height="203.50001"/><g class="cls-5"><path d="M246.63,13.43h1v203.5h-1Z"/></g><path d="M180.16607,267.42006h-6.40692L163.40132,249.4807h-.10679c.21356,3.20346.32035,5.44589.32035,6.834v11.21208H159.13V243.71446H165.537L175.89479,261.547h.10679c-.21356-3.09666-.21356-5.2323-.21356-6.5137V243.82123h4.48483V267.42Zm22.10384-9.07646a9.60059,9.60059,0,0,1-2.3492,6.94082,8.38085,8.38085,0,0,1-6.5137,2.456,9.16506,9.16506,0,0,1-4.59162-1.17461,7.76762,7.76762,0,0,1-3.09667-3.31024,10.549,10.549,0,0,1-1.06782-5.01874,9.60059,9.60059,0,0,1,2.3492-6.94082,8.77644,8.77644,0,0,1,6.5137-2.456,9.16509,9.16509,0,0,1,4.59162,1.17461,7.76773,7.76773,0,0,1,3.09667,3.31024,10.54905,10.54905,0,0,1,1.06782,5.01875Zm-12.49348,0a7.91745,7.91745,0,0,0,.85426,4.05772,3.31134,3.31134,0,0,0,2.88311,1.38816,3.19472,3.19472,0,0,0,2.88311-1.38816,10.06426,10.06426,0,0,0,0-8.11543,3.68807,3.68807,0,0,0-5.76622,0A6.96062,6.96062,0,0,0,189.77643,258.3436Zm26.80226-9.39681a8.10269,8.10269,0,0,1,1.70851.10679l-.42712,4.6984a5.56552,5.56552,0,0,0-1.49494-.21356,5.79219,5.79219,0,0,0-3.73736,1.1746,4.50888,4.50888,0,0,0-1.28138,3.417v9.29h-4.912V249.26714h3.73736l.74747,3.09667h.21356a6.22264,6.22264,0,0,1,2.24243-2.456,5.64993,5.64993,0,0,1,3.20345-.961ZM229.179,263.78947a12.54964,12.54964,0,0,0,3.09667-.53391v3.73735a11.742,11.742,0,0,1-4.59163.85424,5.85458,5.85458,0,0,1-4.37806-1.49494,6.61227,6.61227,0,0,1-1.38817-4.48484v-8.75611h-2.34919v-2.13563l2.77633-1.70852,1.38817-3.84415h3.20345v3.84415h5.12554v3.73737h-5.12554v8.7561a2.01446,2.01446,0,0,0,.6407,1.60173,2.57345,2.57345,0,0,0,1.60173.42712Zm23.5988,3.63059h-4.912v-10.5714c0-2.66954-.961-3.95092-2.8831-3.95092a3.26523,3.26523,0,0,0-2.9899,1.38816,8.40086,8.40086,0,0,0-.961,4.59163v8.54253h-4.912v-25.3073h4.912v5.12553c0,.42713,0,1.38817-.10679,2.77634l-.21356,1.60173h.21356a5.63447,5.63447,0,0,1,5.23231-2.66955,6.56038,6.56038,0,0,1,4.912,1.70852,7.01537,7.01537,0,0,1,1.70852,4.912v11.85276Zm28.61752,0-1.70851-5.65944h-8.64934l-1.70852,5.65944H263.883l8.43576-23.81236h6.19334l8.43576,23.81236h-5.55261Zm-2.88312-9.93072c-1.60173-5.12553-2.456-8.00864-2.66955-8.64933s-.32033-1.17461-.42712-1.60173c-.32033,1.38817-1.38815,4.80518-3.09667,10.25106Zm27.22937,9.93072h-4.912v-10.5714a5.92116,5.92116,0,0,0-.6407-2.98989,2.34516,2.34516,0,0,0-2.02885-.961,3.01426,3.01426,0,0,0-2.77633,1.38816,9.69253,9.69253,0,0,0-.85424,4.59163v8.54253h-4.912V249.26714h3.73736l.6407,2.3492h.32033a4.67475,4.67475,0,0,1,2.13564-1.92208,7.84782,7.84782,0,0,1,3.20345-.74747c2.66955,0,4.59161.85426,5.55267,2.66955h.42712a4.67475,4.67475,0,0,1,2.13564-1.92208,7.84783,7.84783,0,0,1,3.20346-.74747,6.42436,6.42436,0,0,1,4.69839,1.60173q1.60173,1.60173,1.60173,5.12553v11.8528h-5.01873v-10.5714a5.92109,5.92109,0,0,0-.6407-2.9899,2.34518,2.34518,0,0,0-2.02884-.961,2.98026,2.98026,0,0,0-2.66955,1.28138c-.6407.85426-.85424,2.24243-.85424,4.16449v8.96967Zm24.55983.32033a8.51744,8.51744,0,0,1-9.29-9.29q0-4.645,2.24242-7.04761a7.91048,7.91048,0,0,1,6.30013-2.456,7.81082,7.81082,0,0,1,5.97979,2.24242,8.61828,8.61828,0,0,1,2.13563,6.08657v2.456h-11.746a4.87657,4.87657,0,0,0,1.2814,3.31025,4.625,4.625,0,0,0,3.31024,1.1746,14.49569,14.49569,0,0,0,3.09667-.32035,21.40412,21.40412,0,0,0,3.09666-1.06781v3.84413a12.19589,12.19589,0,0,1-2.77633.961c-.961,0-2.13564.10679-3.63058.10679Zm-.6407-15.26981a3.06382,3.06382,0,0,0-2.456.961,4.45053,4.45053,0,0,0-1.06782,2.88311h6.94083a4.27372,4.27372,0,0,0-.961-2.88311,3.06376,3.06376,0,0,0-2.456-.961Zm22.3174-3.5238a8.1027,8.1027,0,0,1,1.70852.10679l-.42712,4.69839a5.56539,5.56539,0,0,0-1.49494-.21356,5.79213,5.79213,0,0,0-3.73736,1.17461,4.50892,4.50892,0,0,0-1.2814,3.417v9.29h-4.912V249.26714h3.73736l.74749,3.09667h.21358a6.22276,6.22276,0,0,1,2.24242-2.456,5.64994,5.64994,0,0,1,3.20346-.961Zm4.6984-4.37806c0-1.60173.85424-2.456,2.66955-2.456s2.66954.85426,2.66954,2.456a2.51176,2.51176,0,0,1-.64069,1.81528,2.8908,2.8908,0,0,1-2.02885.6407C357.63748,247.0247,356.67645,246.17044,356.67645,244.56872Zm5.2323,22.85131h-4.912V249.26711h4.912Zm12.4935.32033c-5.65943,0-8.43577-3.09667-8.43577-9.29,0-3.09667.74749-5.44588,2.34922-7.04761a8.69938,8.69938,0,0,1,6.62049-2.456,12.26484,12.26484,0,0,1,5.65942,1.28137l-1.49494,3.84416c-.74748-.32035-1.49494-.53391-2.13563-.74747a6.70517,6.70517,0,0,0-2.02885-.32035q-3.84414,0-3.84416,5.44588c0,3.52381,1.2814,5.33909,3.84416,5.33909a7.37286,7.37286,0,0,0,2.66954-.42712,8.59028,8.59028,0,0,0,2.456-1.1746V266.459a8.18233,8.18233,0,0,1-2.456,1.06784,25.24081,25.24081,0,0,1-3.20345.21357Zm21.35637-.32033-.961-2.456h-.10679a6.4953,6.4953,0,0,1-2.56276,2.13562,7.80162,7.80162,0,0,1-3.417.6407,6.01974,6.01974,0,0,1-4.16449-1.49494,5.92794,5.92794,0,0,1-1.49494-4.27127,4.77834,4.77834,0,0,1,2.02885-4.27128c1.38815-.961,3.417-1.38817,6.08658-1.49494l3.20346-.10679v-.74747a2.483,2.483,0,0,0-2.77634-2.77633,12.86887,12.86887,0,0,0-5.12552,1.28138l-1.60172-3.31018a15.09,15.09,0,0,1,6.94082-1.60173,8.92183,8.92183,0,0,1,5.65942,1.60173,5.89731,5.89731,0,0,1,1.92206,4.80518v12.06634h-3.63057Zm-1.49494-8.43576-1.92206.10678a6.14444,6.14444,0,0,0-3.20346.74747,2.261,2.261,0,0,0-1.06782,2.13564c0,1.38817.85424,2.13564,2.456,2.13564a3.99217,3.99217,0,0,0,2.77634-.961,3.60846,3.60846,0,0,0,1.06782-2.66955v-1.49494ZM428.2203,267.42h-16.658v-3.52381l5.97979-5.97979c1.81531-1.81529,2.88313-3.09667,3.417-3.73736a10.33231,10.33231,0,0,0,1.1746-1.92208,5.42332,5.42332,0,0,0,.32033-1.81529,2.60939,2.60939,0,0,0-.74748-2.13564,3.21556,3.21556,0,0,0-2.13564-.74747,5.789,5.789,0,0,0-2.66955.6407,13.14062,13.14062,0,0,0-2.66954,1.81529l-2.77634-3.20346a24.11453,24.11453,0,0,1,2.88313-2.13563,9.12317,9.12317,0,0,1,2.56275-.961,13.79771,13.79771,0,0,1,3.09667-.32035,9.3366,9.3366,0,0,1,3.95094.85426,6.164,6.164,0,0,1,2.66955,2.24242,5.995,5.995,0,0,1,.961,3.31025,9.92127,9.92127,0,0,1-.53391,3.09666,13.16773,13.16773,0,0,1-1.8153,2.9899,52.033,52.033,0,0,1-4.27128,4.27127l-3.09666,2.88311v.21356h10.35785V267.42Zm18.9004-11.8528c0,4.16449-.6407,7.26117-2.02885,9.18325-1.38815,2.02885-3.417,2.98988-6.30012,2.98988a7.01145,7.01145,0,0,1-6.19334-3.09667c-1.38815-2.02885-2.13564-5.12553-2.13564-9.07646,0-4.16448.6407-7.26117,2.02885-9.29s3.417-2.9899,6.30013-2.9899a7.01144,7.01144,0,0,1,6.19333,3.09667C446.48,248.51962,447.1207,251.50952,447.1207,255.56723Zm-11.63922,0a18.19789,18.19789,0,0,0,.74749,6.30013,2.66954,2.66954,0,0,0,5.12551,0,17.50707,17.50707,0,0,0,.74749-6.19335,18.19789,18.19789,0,0,0-.74749-6.30013,2.66954,2.66954,0,0,0-5.12551,0A19.45509,19.45509,0,0,0,435.48148,255.56723Z"/><path d="M466.66177,266.993H450.00383v-3.5238l5.97979-5.9798c1.8153-1.81528,2.88312-3.09666,3.417-3.73736a10.33245,10.33245,0,0,0,1.17461-1.92208,5.42348,5.42348,0,0,0,.32033-1.81529,2.60935,2.60935,0,0,0-.74749-2.13563,3.21551,3.21551,0,0,0-2.13563-.74747,5.78892,5.78892,0,0,0-2.66955.6407,13.14088,13.14088,0,0,0-2.66955,1.81528l-2.77633-3.20345a24.11566,24.11566,0,0,1,2.88312-2.13564,9.12335,9.12335,0,0,1,2.56276-.961,13.79758,13.79758,0,0,1,3.09667-.32035,9.33663,9.33663,0,0,1,3.95094.85426,6.16391,6.16391,0,0,1,2.66955,2.24243,5.99509,5.99509,0,0,1,.961,3.31024,9.92128,9.92128,0,0,1-.53391,3.09667,13.16739,13.16739,0,0,1-1.81531,2.98989,52.03382,52.03382,0,0,1-4.27127,4.27128l-3.09667,2.8831v.21356H466.6618V266.993Z"/><path d="M486.63,266.993H469.972v-3.5238l5.97979-5.9798c1.8153-1.81528,2.88312-3.09666,3.417-3.73736a10.33245,10.33245,0,0,0,1.17461-1.92208,5.42348,5.42348,0,0,0,.32033-1.81529,2.60935,2.60935,0,0,0-.74749-2.13563,3.21554,3.21554,0,0,0-2.13564-.74747,5.78888,5.78888,0,0,0-2.66954.6407,13.14061,13.14061,0,0,0-2.66955,1.81528l-2.77633-3.20345a24.114,24.114,0,0,1,2.88312-2.13564,9.12335,9.12335,0,0,1,2.56276-.961,13.79758,13.79758,0,0,1,3.09667-.32035,9.33663,9.33663,0,0,1,3.95094.85426,6.16388,6.16388,0,0,1,2.66954,2.24243,5.995,5.995,0,0,1,.961,3.31024,9.92128,9.92128,0,0,1-.5339,3.09667,13.16812,13.16812,0,0,1-1.81531,2.98989,52.03545,52.03545,0,0,1-4.27127,4.27128l-3.09667,2.8831v.21356H486.63V266.993Z"/></svg>