<?xml version="1.0" encoding="UTF-8"?><svg id="a" xmlns="http://www.w3.org/2000/svg" viewBox="0 0 388.95999 388.95999"><defs><style>.b{fill:#6d6e71;isolation:isolate;opacity:.8;}</style></defs><path d="M73.68278,250.2292H25.97467v112.03505h111.66696v-48.17966h-63.95885v-63.85539Zm240.10936,.52429v63.3311h-63.96256v48.17966h111.66861v-112.03505h-48.23367l.52762,.52429ZM25.97467,138.77079h48.23243l-.52432-.5243v-63.33109h63.95885V26.73575H25.97467v112.03504ZM249.82958,26.73575v48.17966h63.96256v63.85538h47.70605V26.73575h-111.66861Z"/><path class="b" d="M243.56044,138.77079l-63.95844-63.85538h70.24831V26.73575h-112.19207v48.17966l63.96259,63.85538h41.93961Zm-57.66854,111.45799h-41.93961l52.94902,52.89831,10.48595,10.95708h-69.72903v48.17966h112.19207v-48.70398l-31.9771-31.45574-31.98131-31.87533Zm127.90023-111.45799v69.62224l-11.00938-11.00981-52.95318-52.89792v42.41281l31.45778,31.45574,31.97716,31.9277h48.23367v-111.51075h-47.70605Zm-176.1339,63.3311l-63.43494-63.3311H25.99087v111.45841h47.70814v-69.62224l63.95923,63.90774v-42.41281Z"/></svg>