<?xml version="1.0" encoding="UTF-8"?><svg id="a" xmlns="http://www.w3.org/2000/svg" xmlns:xlink="http://www.w3.org/1999/xlink" viewBox="0 0 369.501 355.50206"><defs><style>.s{fill:url(#e);}.t{fill:url(#d);}.u{fill:url(#g);}.v{fill:url(#f);}.w{fill:url(#p);}.x{fill:url(#o);}.y{fill:url(#q);}.a`{fill:url(#r);}.aa{fill:url(#i);}.ab{fill:url(#h);}.ac{fill:url(#k);}.ad{fill:url(#j);}.ae{fill:url(#m);}.af{fill:url(#l);}.ag{fill:url(#n);}.ah{fill:url(#c);}.ai{fill:url(#b);}.aj{fill:#416ba9;}</style><linearGradient id="b" x1="114.43036" y1="157.44036" x2="254.8664" y2="157.44036" gradientTransform="matrix(1, 0, 0, 1, 0, 0)" gradientUnits="userSpaceOnUse"><stop offset="0" stop-color="#416ba9"/><stop offset="1" stop-color="#74c3d5"/></linearGradient><linearGradient id="c" x1="117.2496" y1="77.36345" x2="251.95182" y2="77.36345" xlink:href="#b"/><linearGradient id="d" x1="122.95456" y1="29.48399" x2="149.32229" y2="29.48399" xlink:href="#b"/><linearGradient id="e" x1="220.67654" y1="29.18027" x2="246.27276" y2="29.18027" xlink:href="#b"/><linearGradient id="f" x1="141.66251" y1="206.49918" x2="163.20548" y2="206.49918" xlink:href="#b"/><linearGradient id="g" x1="205.58461" y1="207.35511" x2="227.76901" y2="207.35511" xlink:href="#b"/><linearGradient id="h" x1="171.25267" y1="155.08142" x2="181.88001" y2="155.08142" xlink:href="#b"/><linearGradient id="i" x1="187.43015" y1="155.08223" x2="198.05568" y2="155.08223" xlink:href="#b"/><linearGradient id="j" x1="163.15972" y1="168.56303" x2="173.78799" y2="168.56303" xlink:href="#b"/><linearGradient id="k" x1="195.50919" y1="168.56462" x2="206.20558" y2="168.56462" xlink:href="#b"/><linearGradient id="l" x1="179.3385" y1="171.20097" x2="189.8472" y2="171.20097" xlink:href="#b"/><linearGradient id="m" x1="160.44252" y1="183.33169" x2="168.25871" y2="183.33169" xlink:href="#b"/><linearGradient id="n" x1="200.93942" y1="183.3901" x2="208.788" y2="183.3901" xlink:href="#b"/><linearGradient id="o" x1="173.95306" y1="186.0734" x2="181.81857" y2="186.0734" xlink:href="#b"/><linearGradient id="p" x1="187.43908" y1="186.04593" x2="195.21186" y2="186.04593" xlink:href="#b"/><linearGradient id="q" x1="146.86103" y1="76.87808" x2="168.38559" y2="76.87808" xlink:href="#b"/><linearGradient id="r" x1="200.79783" y1="76.8762" x2="222.31477" y2="76.8762" xlink:href="#b"/></defs><g><path class="ai" d="M114.43385,146.39236c.71774-13.01394,2.76585-26.42755,10.26222-38.46145,2.1811-3.50132,4.18445-5.04318,8.59577-2.64438,7.95779,4.32727,16.74229,5.47318,25.41546,2.55304,4.66441-1.57045,6.5937,.37445,8.38592,3.86624,6.12964,11.94241,5.73877,24.24676,1.6937,36.59252-3.71998,11.35359-9.38266,21.8389-15.85505,31.81967-2.30039,3.54734-1.66701,5.23024,1.50642,7.50101,8.58988,6.14654,17.48874,11.75516,26.73146,16.85696,2.42709,1.33974,4.4351,1.32548,6.85839-.01358,9.43762-5.21501,18.52776-10.93976,27.25876-17.27868,3.01627-2.18988,3.26467-3.9753,1.28185-7.08083-6.0432-9.46502-11.30299-19.38802-15.06384-29.99133-4.67006-13.16677-5.44956-26.28969,1.60199-39.03548,1.90497-3.44326,3.84962-5.29282,8.52292-3.57523,8.28491,3.04494,16.99515,2.63236,24.88785-1.34699,4.92372-2.48244,6.99321-.4792,8.85999,3.33316,12.00919,24.52542,13.52671,48.96815-.71621,73.23984-3.07504,5.24023-6.781,10.02033-10.65038,14.69839-2.08609,2.52212-3.54186,3.549-6.00436,.2032-2.15158-2.92331-3.25493-8.11907-7.04585-8.00695-2.98774,.08836-5.75852,3.91691-8.81675,5.76859-33.83191,20.48414-21.258,20.47926-55.14282,.01204-.57457-.34705-1.09473-.78349-1.64529-1.17108-7.58046-5.3366-7.81392-5.49559-12.9985,2.09615-2.9323,4.29375-4.70651,3.90029-7.78762,.18349-11.91294-14.3709-20.33613-30.06003-20.13603-50.11829Z"/><path class="ah" d="M195.2254,93.31267c-1.62391,6.20111-2.99196,11.42896-5.69728,16.09352-1.39578,2.40665-2.05792,6.40953-5.113,6.38537-2.57361-.02036-3.33149-3.82664-4.62609-6.10262-2.76679-4.86424-4.3632-10.22111-5.56388-15.57888-2.60656-.01158-3.46415,1.82124-4.7977,2.84301-11.22904,8.60361-26.11316,9.20314-37.78418,1.44359-11.59456-7.70872-16.91444-21.92211-13.24715-35.39304,3.6711-13.48492,15.3916-23.22404,29.34292-23.76867,11.87716-.46366,23.87087-1.05004,35.08531,4.19265,1.43756,.67205,2.49808,.39454,3.77565-.1627,11.74684-5.1236,24.20805-4.60288,36.49458-3.86551,13.48227,.80913,24.55564,11.0962,27.92111,24.56707,3.2274,12.91819-2.06558,26.67495-13.17314,34.23783-11.14508,7.58842-25.77551,7.52557-36.70722-.2088-1.8058-1.27763-3.47688-2.74568-5.90993-4.68283Zm-45.91741-48.77839c-14.89132,.12767-26.84439,12.29884-26.72222,27.20979,.12164,14.84611,12.35119,26.82109,27.25949,26.69207,16.50006-.14278,25.3613-11.65052,25.45494-33.05732,.04498-10.28376-13.25995-20.95369-25.9922-20.84453Zm70.1742,.00069c-12.8044,.07491-25.90159,10.93859-25.59249,21.2281,.65596,21.83584,9.27255,32.73966,25.81838,32.67174,14.85186-.06097,26.94728-12.24144,26.88365-27.07274-.06374-14.85757-12.24714-26.91405-27.10954-26.8271Z"/><path class="t" d="M149.32229,33.29571c-10.96468,1.04222-18.80435,4.52431-26.36772,10.54659V15.12568c8.63346,5.94933,16.70988,11.5148,26.36772,18.17003Z"/><path class="s" d="M246.27276,43.23489c-4.43188-2.45805-8.15987-4.95638-12.22231-6.65462-3.86379-1.61519-8.07706-2.39435-13.37391-3.89059,8.62095-5.91566,16.72696-11.47798,25.59622-17.56402v28.10924Z"/><path class="v" d="M163.20548,211.25944c-1.77249-.57337-2.9274-1.3269-3.35999-1.02956-5.90915,4.06177-11.93397-.66933-18.18297,.21542,1.35341-5.50657,4.67137-9.20183,10.39234-9.34455,5.84097-.14572,9.11748,3.70984,11.15062,10.15869Z"/><path class="u" d="M205.58461,212.53806c2.42255-7.72184,5.70212-11.56749,11.53219-11.43745,5.71477,.12753,9.02348,3.82456,10.65221,10.2804-3.79868-1.8989-6.75172-2.31458-9.02303,1.13695-1.12033,1.70246-2.75977,1.25829-3.86151-.2289-2.2484-3.03498-4.87588-3.42986-9.29986,.249Z"/><path class="ab" d="M181.88001,154.98119c-.3937,3.26874-2.1127,5.43249-5.55637,5.35283-3.06813-.07098-5.02699-2.02382-5.07016-5.10137-.04794-3.41795,2.00731-5.45271,5.42239-5.40515,3.10043,.04314,4.72256,2.08533,5.20414,5.15368Z"/><path class="aa" d="M198.05568,155.12186c-.47892,3.25798-2.25122,5.38896-5.69177,5.20977-3.05079-.15891-4.98061-2.15042-4.93289-5.23925,.05271-3.41127,2.14982-5.41077,5.56534-5.26233,3.08227,.13393,4.68282,2.19554,5.05933,5.29181Z"/><path class="ad" d="M173.78799,168.33872c-.31919,3.30289-2.01089,5.48394-5.45017,5.47862-3.07603-.00475-5.06798-1.93214-5.17326-4.99893-.11709-3.41102,1.89789-5.48732,5.31818-5.50954,3.11055-.0202,4.75717,1.99814,5.30526,5.02985Z"/><path class="ac" d="M206.20558,168.42365c-.65057,3.59338-2.49752,5.68634-5.92074,5.38431-3.01059-.2656-4.92703-2.29376-4.76626-5.40204,.17607-3.40425,2.33576-5.33619,5.73753-5.09289,3.09644,.22141,4.50463,2.45024,4.94948,5.11062Z"/><path class="af" d="M184.35683,165.889c3.31739,.30012,5.49416,1.99201,5.49036,5.43354-.00338,3.07535-1.9359,5.07528-4.99337,5.18514-3.40511,.12237-5.48613-1.9004-5.51507-5.31784-.02635-3.11244,1.98639-4.76191,5.01808-5.30084Z"/><path class="ae" d="M164.41948,179.37174c2.44188,.56119,3.99366,1.82187,3.82701,4.14772-.18556,2.58962-1.8856,4.11102-4.49995,3.70779-2.19941-.33921-3.56225-1.97356-3.26299-4.29743,.29345-2.27878,1.94462-3.32416,3.93593-3.55808Z"/><path class="ag" d="M208.788,183.26775c-.21002,2.28333-1.41859,3.87535-3.68424,3.99832-2.62093,.14226-4.24082-1.44853-4.16156-4.08002,.06883-2.28479,1.59867-3.69984,3.90909-3.68055,2.31809,.01934,3.54615,1.52021,3.9367,3.76224Z"/><path class="x" d="M181.81857,186.32576c-.45914,2.20741-1.71936,3.75352-4.03258,3.64269-2.61015-.12504-4.1295-1.82605-3.78438-4.43535,.29264-2.21264,1.91272-3.60447,4.23717-3.32472,2.24294,.26998,3.45424,1.79733,3.57979,4.11738Z"/><path class="w" d="M191.32303,182.12033c2.26353,.29193,3.84347,1.49935,3.88769,3.79401,.05064,2.62766-1.58788,4.21818-4.20215,4.04424-2.23719-.14885-3.6674-1.69603-3.56426-4.02938,.10235-2.31536,1.61708-3.50804,3.87872-3.80886Z"/><path class="y" d="M168.38355,77.07345c-.1145,5.79744-5.00042,10.57939-10.79268,10.563-6.06722-.01717-11.02273-5.23971-10.71636-11.29385,.29391-5.80782,5.31012-10.41921,11.11335-10.21648,5.80515,.20281,10.51003,5.15735,10.39569,10.94732Z"/><path class="a`" d="M211.7553,87.63633c-5.79234,.11672-10.74515-4.58314-10.95085-10.39156-.20546-5.80235,4.40478-10.82104,10.21245-11.11717,6.04984-.30847,11.27846,4.64937,11.29782,10.71272,.01847,5.79364-4.75997,10.67914-10.55942,10.79601Z"/></g><g><path class="aj" d="M63.21031,317.2624c0,2.88827-.47678,5.56229-1.43034,8.02298-.95356,2.46161-2.30207,4.59126-4.04597,6.38896-1.74345,1.79862-3.84138,3.20092-6.29333,4.20965-2.45195,1.00782-5.17609,1.51172-8.17287,1.51172-2.97931,0-5.69425-.50391-8.1462-1.51172-2.45195-1.00873-4.55448-2.41103-6.30712-4.20965-1.75264-1.7977-3.11034-3.92735-4.07264-6.38896-.96322-2.46069-1.44414-5.13471-1.44414-8.02298,0-2.88735,.48092-5.56138,1.44414-8.02298,.9623-2.46069,2.32-4.59034,4.07264-6.38896,1.75264-1.7977,3.85517-3.20092,6.30712-4.20873,2.45195-1.00873,5.16689-1.51264,8.1462-1.51264,1.9977,0,3.87724,.23172,5.63954,.69517,1.76138,.46253,3.37793,1.11724,4.84919,1.96138s2.79264,1.87126,3.96413,3.07862c1.17149,1.20827,2.16598,2.55632,2.98299,4.04597,.81747,1.48965,1.43954,3.10529,1.86621,4.84873,.42667,1.74437,.64046,3.57885,.64046,5.50344Zm-7.49241,0c0-2.16092-.29057-4.10023-.87172-5.81609-.58115-1.71678-1.40782-3.17425-2.47908-4.37333-1.07172-1.19816-2.37471-2.11494-3.90942-2.75126-1.53517-.6354-3.26528-.95356-5.18988-.95356-1.92552,0-3.65563,.31816-5.19034,.95356-1.53471,.63632-2.84276,1.5531-3.92276,2.75126-1.08092,1.19908-1.91172,2.65655-2.49287,4.37333-.58161,1.71586-.87172,3.65517-.87172,5.81609,0,2.16184,.29011,4.10023,.87172,5.81701,.58115,1.71586,1.41195,3.16965,2.49287,4.35862,1.08,1.18988,2.38804,2.10299,3.92276,2.73839s3.26483,.95356,5.19034,.95356c1.9246,0,3.65471-.31816,5.18988-.95356,1.53471-.6354,2.8377-1.5485,3.90942-2.73839,1.07126-1.18896,1.89793-2.64276,2.47908-4.35862,.58115-1.71678,.87172-3.65517,.87172-5.81701Z"/><path class="aj" d="M74.89812,312.44034c1.12598-1.18069,2.37471-2.12046,3.7462-2.81931,1.37103-.69885,2.93747-1.04919,4.69977-1.04919,1.61609,0,3.07356,.31816,4.37241,.95356,1.29839,.63632,2.40643,1.5485,3.32368,2.73839,.91724,1.18896,1.62115,2.62896,2.11218,4.31816,.49011,1.68827,.73563,3.58712,.73563,5.69379,0,2.27034-.2823,4.33103-.84506,6.1839-.56322,1.85287-1.3669,3.43724-2.41103,4.75402-1.04506,1.31678-2.30253,2.33931-3.77333,3.06483-1.47126,.72644-3.1062,1.08965-4.9039,1.08965-.87218,0-1.66207-.08644-2.37057-.25839-.70805-.17287-1.36184-.41287-1.96138-.72184s-1.14896-.68598-1.64827-1.13103c-.49977-.44506-.97655-.93977-1.43034-1.48414l-.29977,1.87954c-.10897,.47264-.29517,.80828-.55862,1.00782-.26345,.20046-.62207,.29977-1.07586,.29977h-4.44092v-40.48457h6.72919v15.96505Zm0,17.27263c.76322,.92598,1.59402,1.57977,2.49287,1.96138,.89931,.38161,1.84781,.57195,2.84689,.57195,1.0354,0,1.96598-.18575,2.79264-.55816,.82621-.37241,1.53011-.95356,2.11172-1.74345,.58069-.78988,1.02575-1.79862,1.33471-3.02437,.30851-1.22575,.46299-2.69241,.46299-4.4,0-3.06942-.50851-5.28919-1.52552-6.66114-1.01747-1.37103-2.47908-2.05609-4.3862-2.05609-1.28965,0-2.41563,.29517-3.37839,.8846-.96276,.59126-1.87954,1.42161-2.75172,2.49287v12.5324Z"/><path class="aj" d="M116.14544,314.45689c-.18207,.29057-.37241,.49471-.57287,.61241-.19954,.11862-.45333,.17747-.7623,.17747-.32736,0-.67678-.09103-1.04919-.27218-.37241-.18207-.80368-.38621-1.29379-.61333-.49103-.22713-1.04919-.43126-1.6754-.61333-.62621-.18115-1.36644-.27218-2.22069-.27218-1.32598,0-2.36598,.28138-3.11908,.84414-.75402,.56368-1.13103,1.29931-1.13103,2.20689,0,.59954,.19494,1.10345,.58575,1.51172,.3908,.4092,.90851,.76782,1.5531,1.07678s1.37563,.58575,2.1931,.83034c.81747,.24552,1.64873,.51402,2.49287,.80368,.84506,.29149,1.6754,.62253,2.49287,.99494s1.5485,.84414,2.1931,1.41609c.6446,.57287,1.1623,1.25793,1.5531,2.05701,.38988,.8,.58575,1.76184,.58575,2.88827,0,1.34437-.24092,2.58391-.72184,3.71862-.48184,1.13563-1.19448,2.11586-2.13885,2.94253s-2.11126,1.47126-3.50069,1.93471c-1.38942,.46253-2.9931,.69425-4.80827,.69425-.96368,0-1.90345-.08644-2.82023-.25839-.9177-.17287-1.7977-.41287-2.64276-.72276-.84414-.30805-1.62575-.67126-2.34299-1.08965-.71724-.41747-1.34804-.87172-1.89333-1.36184l1.5531-2.56092c.19954-.30897,.43586-.54529,.70805-.70805,.27218-.16368,.61701-.24552,1.0354-.24552,.41747,0,.81287,.11862,1.18529,.35402,.37149,.23632,.80368,.49011,1.29379,.76322,.49011,.27218,1.06667,.5269,1.72965,.7623,.66299,.23632,1.50345,.35402,2.52046,.35402,.79908,0,1.48506-.09471,2.05701-.28598,.57195-.19034,1.0446-.43954,1.41701-.74851,.37149-.30897,.6446-.66759,.81655-1.07678,.17287-.40828,.25931-.83034,.25931-1.26621,0-.65379-.19586-1.18988-.58575-1.60736-.3908-.41839-.90851-.78069-1.5531-1.09057-.6446-.30805-1.38023-.58575-2.20689-.83034-.82667-.24552-1.6708-.5131-2.53333-.80368s-1.70758-.6308-2.53425-1.02161-1.56138-.88552-2.20598-1.48506c-.64552-.59954-1.16322-1.33517-1.5531-2.20689-.3908-.87172-.58575-1.9246-.58575-3.15954,0-1.14483,.22713-2.23448,.68138-3.26988,.45333-1.0354,1.12092-1.93839,2.00184-2.7108,.88092-.77149,1.97977-1.38942,3.29655-1.85195,1.31678-.46345,2.8377-.69517,4.56367-.69517,1.9246,0,3.67724,.31816,5.25793,.95356,1.57977,.63632,2.89655,1.47126,3.95034,2.50666l-1.52552,2.42483Z"/><path class="aj" d="M128.2144,323.82791c.10851,1.4354,.36322,2.67494,.7623,3.71954,.4,1.0446,.9269,1.90713,1.58069,2.58758,.65379,.68138,1.42988,1.18988,2.32919,1.52552,.89931,.33655,1.89333,.50391,2.98299,.50391s2.03034-.12598,2.82023-.38069,1.47954-.53609,2.0708-.84506c.58942-.30805,1.10713-.58942,1.55218-.84414s.87632-.38161,1.29471-.38161c.56276,0,.98023,.20874,1.25333,.62621l1.93379,2.45241c-.74483,.87172-1.57977,1.60276-2.50666,2.1931-.92598,.59034-1.89333,1.06207-2.90115,1.41701-1.00782,.35402-2.03402,.60322-3.07862,.74851s-2.05701,.21793-3.03724,.21793c-1.94391,0-3.7508-.32184-5.42161-.96644-1.67172-.6446-3.1246-1.59816-4.35954-2.86069s-2.20689-2.82391-2.91494-4.68597-1.06299-4.01839-1.06299-6.4708c0-1.90713,.30897-3.70023,.9269-5.38023,.61701-1.68,1.50253-3.14207,2.65655-4.3862,1.1531-1.24414,2.56092-2.22988,4.22253-2.95632s3.53655-1.08965,5.62574-1.08965c1.76184,0,3.38758,.28138,4.87632,.84414,1.48965,.56368,2.76965,1.38575,3.84184,2.46621,1.07126,1.08046,1.9108,2.40643,2.51954,3.97701,.60874,1.57149,.9131,3.3646,.9131,5.38115,0,1.01701-.10943,1.70207-.32736,2.05701-.21793,.35402-.6354,.53057-1.25241,.53057h-17.30022Zm12.83217-4.05885c0-.87172-.12322-1.69379-.36782-2.46621-.24552-.77149-.61333-1.44736-1.10345-2.02942-.49103-.58023-1.11264-1.03908-1.86667-1.37563-.75402-.33563-1.63034-.50391-2.62896-.50391-1.94391,0-3.4731,.55448-4.59034,1.66161-1.11724,1.10805-1.82988,2.67954-2.13885,4.71356h12.69608Z"/><path class="aj" d="M158.48196,313.85735c.87172-1.6708,1.90713-2.98299,3.10529-3.93655,1.19908-.95356,2.61609-1.4308,4.25011-1.4308,1.29011,0,2.32552,.2823,3.1062,.84506l-.43586,5.04c-.09103,.32644-.22253,.55816-.3954,.69425s-.40368,.20414-.69425,.20414c-.27218,0-.67678-.04506-1.21287-.13609-.53517-.09011-1.05747-.13609-1.56598-.13609-.74483,0-1.40782,.10943-1.98896,.32736s-1.10345,.53057-1.5669,.93977c-.46253,.40828-.87172,.90391-1.22575,1.48506s-.68598,1.24414-.99402,1.98804v17.21838h-6.72919v-27.95216h3.95034c.68965,0,1.17149,.1223,1.44368,.36782s.45333,.68598,.54437,1.32138l.4092,3.16046Z"/><path class="aj" d="M197.6571,309.00769l-11.08781,27.95216h-6.10298l-11.08781-27.95216h5.5577c.50759,0,.93057,.11862,1.26621,.35402,.33655,.23632,.55908,.53609,.66759,.89931l5.39494,14.92964c.28965,.87172,.54437,1.72598,.7623,2.56092,.21793,.83586,.4092,1.6708,.57195,2.50666,.18207-.83586,.38161-1.6708,.59954-2.50666,.21793-.83494,.48092-1.68919,.78988-2.56092l5.50344-14.92964c.1269-.36322,.35402-.66299,.68138-.89931,.32644-.2354,.71724-.35402,1.17149-.35402h5.31218Z"/><path class="aj" d="M199.89251,312.90378c3.21471-2.94253,7.08321-4.41379,11.60551-4.41379,1.63494,0,3.09609,.26851,4.3862,.80368,1.28919,.53609,2.37885,1.28092,3.26896,2.23448s1.5669,2.09287,2.03034,3.41885c.46253,1.32598,.69425,2.77885,.69425,4.35862v17.65424h-3.05103c-.63632,0-1.12644-.09563-1.47126-.28598s-.61793-.57655-.81747-1.1577l-.59954-2.01655c-.70805,.63632-1.39862,1.19448-2.06988,1.6754-.67218,.48184-1.37195,.88552-2.09839,1.21287-.72644,.32644-1.50253,.57655-2.32919,.74942-.82667,.17195-1.73885,.25839-2.73839,.25839-1.18069,0-2.27034-.15908-3.26896-.47632-.99862-.31816-1.86207-.79448-2.58758-1.4308-.72736-.6354-1.29011-1.42529-1.68919-2.37057-.4-.94345-.59954-2.04322-.59954-3.29563,0-.70896,.1177-1.41241,.35402-2.11218,.2354-.69885,.62161-1.36644,1.1577-2.00184,.53517-.6354,1.23034-1.23494,2.0846-1.79862,.85333-.56276,1.90253-1.05287,3.14666-1.47126,1.24322-.41747,2.69241-.7577,4.34482-1.02161,1.65241-.26299,3.54207-.42207,5.66712-.47632v-1.63494c0-1.87034-.4-3.25517-1.19908-4.15448s-1.95218-1.34804-3.45931-1.34804c-1.09057,0-1.99356,.1269-2.7108,.38069-.71816,.25471-1.34896,.54069-1.89425,.85885-.54437,.31724-1.04,.60414-1.48414,.85793-.44598,.25471-.93977,.38161-1.48506,.38161-.47264,0-.87172-.12322-1.19908-.36782-.32644-.24552-.59034-.53149-.78988-.85885l-1.19816-2.15172Zm15.41976,12.12321c-1.94391,.09103-3.57885,.25839-4.9039,.50391-1.32598,.24552-2.38896,.55816-3.18804,.93977s-1.37103,.82667-1.71586,1.33517c-.34575,.50851-.5177,1.06299-.5177,1.66161,0,1.18161,.34943,2.02575,1.04919,2.53425,.69885,.50851,1.61103,.7623,2.73747,.7623,1.38023,0,2.57471-.2492,3.58253-.74851,1.00873-.49931,1.99356-1.25793,2.95632-2.27494v-4.71356Z"/><path class="aj" d="M234.92788,312.44034c1.12552-1.18069,2.37425-2.12046,3.7462-2.81931,1.37103-.69885,2.93701-1.04919,4.69885-1.04919,1.61655,0,3.07402,.31816,4.37333,.95356,1.29839,.63632,2.40643,1.5485,3.32322,2.73839,.91678,1.18896,1.62115,2.62896,2.11126,4.31816,.49103,1.68827,.73563,3.58712,.73563,5.69379,0,2.27034-.28138,4.33103-.84414,6.1839-.56368,1.85287-1.36736,3.43724-2.41103,4.75402-1.0446,1.31678-2.30253,2.33931-3.77379,3.06483-1.47126,.72644-3.10529,1.08965-4.9039,1.08965-.87172,0-1.66161-.08644-2.36965-.25839-.70896-.17287-1.36276-.41287-1.9623-.72184-.59862-.30897-1.1485-.68598-1.64781-1.13103-.50023-.44506-.97655-.93977-1.42988-1.48414l-.29977,1.87954c-.10943,.47264-.29609,.80828-.55908,1.00782-.26299,.20046-.62253,.29977-1.07586,.29977h-4.44046v-40.48457h6.72919v15.96505Zm0,17.27263c.7623,.92598,1.59356,1.57977,2.49287,1.96138,.89839,.38161,1.84735,.57195,2.84689,.57195,1.0354,0,1.96598-.18575,2.79264-.55816,.82575-.37241,1.52919-.95356,2.11126-1.74345,.58115-.78988,1.02529-1.79862,1.33517-3.02437,.30805-1.22575,.46253-2.69241,.46253-4.4,0-3.06942-.50851-5.28919-1.52552-6.66114-1.01701-1.37103-2.47908-2.05609-4.3862-2.05609-1.29011,0-2.41563,.29517-3.37839,.8846-.96276,.59126-1.87954,1.42161-2.75126,2.49287v12.5324Z"/><path class="aj" d="M267.02073,300.86149c0,.58207-.11862,1.12644-.35402,1.63494-.23632,.50851-.54988,.95356-.94069,1.33517s-.84874,.68598-1.37563,.91218c-.5269,.22805-1.08965,.34115-1.68919,.34115-.58115,0-1.13011-.1131-1.64781-.34115-.5177-.22621-.96736-.53057-1.34896-.91218s-.68598-.82667-.91218-1.33517c-.22805-.50851-.34115-1.05287-.34115-1.63494,0-.59862,.1131-1.16138,.34115-1.68919,.22621-.52598,.53057-.98023,.91218-1.36184s.83126-.68506,1.34896-.9131c.5177-.22621,1.06667-.34023,1.64781-.34023,.59954,0,1.1623,.11402,1.68919,.34023,.5269,.22805,.98483,.53149,1.37563,.9131s.70437,.83586,.94069,1.36184c.2354,.52782,.35402,1.09057,.35402,1.68919Zm-.9269,8.1462v27.95216h-6.75586v-27.95216h6.75586Z"/><path class="aj" d="M279.77015,296.47529v40.48457h-6.73011v-40.48457h6.73011Z"/><path class="aj" d="M294.40002,300.86149c0,.58207-.11862,1.12644-.35402,1.63494-.23632,.50851-.54988,.95356-.94069,1.33517s-.84874,.68598-1.37563,.91218c-.5269,.22805-1.08965,.34115-1.68919,.34115-.58115,0-1.13011-.1131-1.64781-.34115-.5177-.22621-.96736-.53057-1.34896-.91218s-.68598-.82667-.91218-1.33517c-.22805-.50851-.34115-1.05287-.34115-1.63494,0-.59862,.1131-1.16138,.34115-1.68919,.22621-.52598,.53057-.98023,.91218-1.36184s.83126-.68506,1.34896-.9131c.5177-.22621,1.06667-.34023,1.64781-.34023,.59954,0,1.1623,.11402,1.68919,.34023,.5269,.22805,.98483,.53149,1.37563,.9131s.70437,.83586,.94069,1.36184c.2354,.52782,.35402,1.09057,.35402,1.68919Zm-.9269,8.1462v27.95216h-6.75586v-27.95216h6.75586Z"/><path class="aj" d="M309.6561,337.39572c-2.43402,0-4.29977-.68506-5.59816-2.05701-1.29931-1.37103-1.9485-3.26437-1.9485-5.68v-15.61102h-2.86069c-.36322,0-.67126-.1177-.92598-.35402-.25471-.2354-.38161-.59034-.38161-1.06207v-2.67034l4.49563-.73563,1.41701-7.6285c.09011-.36322,.26299-.6446,.5177-.84414,.25379-.19954,.58023-.29977,.98023-.29977h3.48689v8.79999h7.46574v4.79448h-7.46574v15.14757c0,.87172,.21333,1.5531,.64092,2.04322,.42667,.49011,1.01241,.73563,1.75724,.73563,.41747,0,.7669-.04966,1.04828-.14988,.28138-.09931,.5269-.20414,.73563-.31356,.20874-.10851,.3954-.21333,.55908-.31264,.16368-.10023,.32644-.14988,.49011-.14988,.19954,0,.36322,.04966,.49011,.14988,.1269,.09931,.26299,.2492,.4092,.44965l2.01563,3.26896c-.98023,.81747-2.10667,1.43448-3.37839,1.85287-1.2708,.41747-2.58758,.62621-3.95034,.62621Z"/><path class="aj" d="M345.99906,309.00769l-15.22941,35.63492c-.20046,.47172-.45885,.83126-.77701,1.07586-.31724,.24552-.80368,.36782-1.45747,.36782h-5.01241l5.23034-11.2239-11.30574-25.85469h5.91172c.5269,0,.93977,.1269,1.23954,.38161s.5223,.54437,.66759,.87172l5.93931,14.49378c.19954,.49011,.36782,.98023,.50391,1.47126,.13609,.49011,.26759,.98942,.3954,1.49793,.16276-.50851,.32644-1.01241,.49011-1.51172s.34483-.99494,.54437-1.48506l5.61287-14.4662c.14529-.36322,.38529-.66299,.72184-.89931,.33563-.2354,.71264-.35402,1.13011-.35402h5.39494Z"/></g><g><path class="aj" d="M164.95138,255.92051h-11.87815v33.37377h-7.32873v-33.37377h-11.87815v-6.02114h31.08503v6.02114Z"/><path class="aj" d="M200.04147,289.29428h-5.66666c-.63586,0-1.15356-.15862-1.5531-.47678-.39954-.3177-.69931-.71264-.89885-1.18529l-2.94253-8.03678h-16.31907l-2.94253,8.03678c-.14529,.41839-.42667,.79954-.8446,1.14437-.41793,.34529-.93563,.5177-1.55264,.5177h-5.72138l15.50206-39.39491h7.46482l15.47447,39.39491Zm-12.94068-14.87539l-4.79494-13.10436c-.23632-.58069-.48184-1.2708-.73563-2.07034-.25471-.79908-.50897-1.66207-.76322-2.58804-.23586,.92598-.48138,1.79356-.73517,2.60184-.25471,.80828-.49977,1.51172-.73563,2.11126l-4.76781,13.04965h12.5324Z"/><path class="aj" d="M235.43041,269.54257v15.93746c-1.99816,1.47126-4.12689,2.54758-6.38804,3.2285s-4.6823,1.02161-7.26068,1.02161c-3.21471,0-6.12505-.49931-8.73195-1.49839-2.60598-.99862-4.83126-2.38804-6.67402-4.16827-1.84368-1.77977-3.26574-3.90482-4.26436-6.37517-.99908-2.46988-1.49839-5.16689-1.49839-8.09149,0-2.96,.48092-5.67586,1.44414-8.14574,.9623-2.46988,2.32919-4.59494,4.10069-6.37517,1.77011-1.77977,3.91816-3.16046,6.44321-4.14115,2.52414-.98069,5.35724-1.47126,8.4993-1.47126,1.59816,0,3.09241,.12736,4.48184,.38161s2.67862,.60414,3.8685,1.04873c1.18988,.44552,2.27494,.98529,3.25609,1.62115,.98023,.63586,1.87954,1.33471,2.69701,2.09747l-2.09747,3.32414c-.32736,.5269-.75402,.84919-1.28092,.9669-.5269,.11862-1.09885-.01333-1.71678-.39494-.59862-.34483-1.19816-.69011-1.7977-1.0354-.59954-.34483-1.26713-.64414-2.00276-.89885-.73563-.25425-1.5623-.46299-2.47908-.62667s-1.97517-.24506-3.17333-.24506c-1.94391,0-3.70115,.3269-5.27172,.98069-1.57149,.65379-2.91126,1.58942-4.01839,2.80597-1.10805,1.21701-1.96138,2.67954-2.56092,4.3862-.59954,1.70758-.89931,3.61471-.89931,5.72138,0,2.25241,.32184,4.2639,.96736,6.03448,.6446,1.77103,1.5531,3.26942,2.7246,4.49517,1.17149,1.22621,2.58299,2.16184,4.23632,2.80643,1.65241,.6446,3.49609,.9669,5.53011,.9669,1.45287,0,2.75126-.15402,3.89609-.46299,1.14391-.30851,2.26115-.72644,3.3508-1.25333v-7.13793h-4.95908c-.47172,0-.83954-.13149-1.10253-.39494-.26391-.26299-.3954-.58575-.3954-.96736v-4.14069h13.07677Z"/></g></svg>