<?xml version="1.0" encoding="UTF-8"?><svg xmlns="http://www.w3.org/2000/svg" xmlns:xlink="http://www.w3.org/1999/xlink" viewBox="0 0 161.09 145.31"><defs><style>.e{fill:url(#d);}.f{fill:#006652;}.g{fill:#fff;}</style><linearGradient id="d" x1="18.18" y1="18.97" x2="142.28" y2="140.28" gradientTransform="matrix(1, 0, 0, 1, 0, 0)" gradientUnits="userSpaceOnUse"><stop offset="0" stop-color="#00c6a0"/><stop offset="1" stop-color="#009e80"/></linearGradient></defs><g id="a"/><g id="b"><g id="c"><polygon class="e" points="74.53 0 14.76 28.78 0 93.45 41.36 145.31 107.69 145.31 149.05 93.45 134.29 28.78 74.53 0"/><circle class="f" cx="134.3" cy="26.79" r="26.79"/><polygon class="g" points="80.22 47.25 68.83 47.25 39.93 104.18 55.13 104.18 74.53 65.97 93.92 104.18 109.12 104.18 80.22 47.25"/><g><path class="g" d="M128.16,22.23h3.97v1.15h-3.93v10.27c0,1.93,.58,2.24,3.32,2.3v.88c-1.93-.1-3.66-.17-5.19-.17-.71,0-2.14,.03-4.31,.17v-.88c2.14-.03,2.58-.51,2.58-2.3v-10.31h-2.51v-1.12h2.51v-1.76c0-2.07,0-3.76,.98-5.29,1.08-1.66,2.85-2.51,5.39-2.51,2.95,0,4.71,1.15,4.71,2.51,0,.75-.58,1.29-1.39,1.29s-1.25-.47-1.59-1.42c-.37-1.02-.71-1.42-1.86-1.42-1.86,0-2.68,1.22-2.68,3.76v4.85Z"/><path class="g" d="M144.77,21.48c3.49,0,4.92,1.73,4.92,5.32v7.02c0,1.63,.24,2.03,2.27,2.1v.92c-1.8-.1-3.15-.14-4.1-.14-1.25,0-2.61,.04-4.03,.14v-.92c1.93-.03,2.24-.47,2.24-2.1v-7.43c0-2.24-.92-3.36-2.75-3.36-2.2,0-3.93,1.9-3.93,4.68v6.04c0,1.63,.31,2.14,2.27,2.17v.92c-1.8-.1-3.19-.14-4.14-.14-1.22,0-2.58,.04-4.07,.14v-.92c2.07-.1,2.34-.51,2.34-2.1v-7.97c0-1.9-.37-2.44-2.17-2.44h-.17v-.88c1.56-.07,3.32-.51,5.29-1.32,.14,1.19,.3,2.31,.44,3.36,1.49-2.1,3.25-3.09,5.59-3.09Z"/></g></g></g></svg>