<?xml version="1.0" encoding="utf-8"?>
<!-- Generator: Adobe Illustrator 28.1.0, SVG Export Plug-In . SVG Version: 6.00 Build 0)  -->
<svg version="1.1" id="Layer_1" xmlns="http://www.w3.org/2000/svg" xmlns:xlink="http://www.w3.org/1999/xlink" x="0px" y="0px"
	 viewBox="0 0 532.6 512.7" style="enable-background:new 0 0 532.6 512.7;" xml:space="preserve">
<style type="text/css">
	.st0{fill:#231F20;}
	.st1{fill:#55ABDF;}
	.st2{fill:#FFFFFF;}
</style>
<g>
	<g>
		<path class="st2" d="M10,401.3c6.6-11.4,15.6-20.4,27-27c11.4-6.6,23.8-10,37.2-10c13.7,0,26.4,3.5,38,10.6
			c11.6,7.1,20.6,16.4,26.9,28l-23.6,12.5c-4.1-7.3-9.9-13.1-17.3-17.6c-7.4-4.4-15.4-6.7-24-6.7c-8.5,0-16.4,2.1-23.7,6.4
			c-7.3,4.2-13.1,10-17.4,17.3c-4.2,7.3-6.4,15.1-6.4,23.6c0,8.5,2.1,16.4,6.4,23.6c4.2,7.3,10,13,17.4,17.3
			c7.3,4.2,15.2,6.4,23.7,6.4c8.9,0,17-2.3,24.3-6.8c7.3-4.5,13-10.5,17.2-18.1l23.6,12.9c-6.3,11.8-15.3,21.2-26.9,28.2
			c-11.6,7.1-24.4,10.6-38.2,10.6c-13.4,0-25.8-3.3-37.2-10c-11.4-6.6-20.4-15.6-27-27c-6.6-11.4-10-23.8-10-37.2
			C0,425.1,3.3,412.7,10,401.3z"/>
		<path class="st2" d="M185.1,502.7c-11.4-6.6-20.4-15.6-27-27c-6.6-11.4-10-23.8-10-37.2c0-13.4,3.3-25.8,10-37.2
			c6.6-11.4,15.6-20.4,27-27c11.4-6.6,23.8-10,37.2-10c13.4,0,25.8,3.3,37.2,10c11.4,6.6,20.4,15.6,27,27c6.6,11.4,10,23.8,10,37.2
			c0,13.4-3.3,25.8-10,37.2c-6.6,11.4-15.6,20.4-27,27c-11.4,6.6-23.8,10-37.2,10C208.8,512.7,196.4,509.3,185.1,502.7z
			 M245.9,479.4c7.3-4.2,13-10,17.3-17.3c4.2-7.3,6.4-15.1,6.4-23.6c0-8.5-2.1-16.4-6.4-23.6c-4.2-7.3-10-13-17.3-17.3
			c-7.3-4.2-15.1-6.4-23.6-6.4c-8.5,0-16.4,2.1-23.7,6.4c-7.3,4.2-13.1,10-17.4,17.3c-4.2,7.3-6.4,15.1-6.4,23.6
			c0,8.5,2.1,16.4,6.4,23.6c4.2,7.3,10,13,17.4,17.3c7.3,4.2,15.2,6.4,23.7,6.4C230.7,485.7,238.6,483.6,245.9,479.4z"/>
		<path class="st2" d="M391.3,372.2c6.8,4,12.3,9.3,16.2,16.1c4,6.8,6,14.2,6,22.3c0,8.1-2,15.5-6,22.4c-4,6.8-9.4,12.3-16.2,16.2
			c-6.8,4-14.3,6-22.4,6h-33.3V510h-14.6V366.2h47.9C377,366.2,384.5,368.2,391.3,372.2z M368.9,441c5.5,0,10.5-1.4,15.2-4.1
			c4.7-2.7,8.4-6.4,11.1-11.1c2.7-4.7,4.1-9.7,4.1-15.2c0-5.5-1.4-10.5-4.1-15.1c-2.7-4.6-6.4-8.2-11.1-11
			c-4.7-2.7-9.7-4.1-15.2-4.1h-33.3V441H368.9z"/>
		<path class="st2" d="M532.6,510H517l-13.1-34.7h-67.2L423.6,510h-16l54.6-143.8H478L532.6,510z M470.2,386.7l-28.1,74.6h56.5
			L470.2,386.7z"/>
	</g>
	<path class="st1" d="M519.2,131.8L400.8,13.4C392.2,4.8,380.6,0,368.5,0H45.7C20.5,0,0,20.5,0,45.7v232.1
		c0,25.2,20.5,45.7,45.7,45.7h327.6c12.1,0,23.8-4.8,32.3-13.4l113.6-113.6C537.1,178.6,537.1,149.7,519.2,131.8z M422.3,74
		l31.9,31.9L446,114l-31.9-31.9L422.3,74z M348.2,19.7h1.5c11.8,0,22.9,4.6,31.3,13l9.4,9.4l-8.1,8.1l-9.4-9.4
		c-6.2-6.2-14.4-9.6-23.2-9.6h-1.5V19.7z M258,19.7h45.1v11.5H258V19.7z M167.9,19.7H213v11.5h-45.1V19.7z M122.8,19.7v11.5H77.8
		l-0.1-11.5H122.8z M33.5,138.8H45v45.1H33.5V138.8z M36.6,275.8c-2-5.2-3.1-10.6-3.1-16.2v-30.6H45v30.6c0,4.2,0.8,8.2,2.3,12
		L36.6,275.8z M45,64v29.7H33.5V64c0-5.9,1.2-11.7,3.4-17.1l10.6,4.5C45.8,55.3,45,59.6,45,64z M121.9,303.8H77.8
		c-0.4,0-0.7,0-1.1,0l0.3-11.5c0.3,0,0.6,0,0.8,0h44.1V303.8z M212,303.8h-45.1v-11.5H212V303.8z M302.1,303.8h-45.1v-11.5h45.1
		V303.8z M385,290.8c-8.4,8.4-19.5,13-31.3,13h-6.5v-11.5h6.5c8.8,0,17-3.4,23.2-9.6l5.9-5.9l8.1,8.1L385,290.8z M422.7,253.1
		l-8.1-8.1l31.9-31.9l8.1,8.1L422.7,253.1z M486.6,187.9l-9.6-6.3c3.5-5.3,5.3-11.5,5.3-17.8c0-6.6-1.9-12.9-5.6-18.3l9.5-6.4
		c5,7.3,7.6,15.9,7.6,24.8C493.7,172.4,491.3,180.7,486.6,187.9z"/>
</g>
</svg>
