<svg id="Layer_1" data-name="Layer 1" xmlns="http://www.w3.org/2000/svg" viewBox="0 0 809.4377 632.66395"><path d="M165.33543,487.53089c0-14.18175,2.12724-26.74272,6.38178-37.379,4.25454-10.73762,9.82594-19.65185,16.81548-26.74272a70.98892,70.98892,0,0,1,24.109-16.10641,74.0311,74.0311,0,0,1,27.857-5.36881q33.4284,0,52.0673,20.76613,18.6895,20.66484,18.74017,61.8932c0,2.026-.10128,4.35581-.20261,6.98957-.10127,2.53245-.30388,4.8623-.50649,6.98957H204.03136c1.013,12.96616,5.5714,22.9947,13.77653,30.18685,8.10386,7.09088,19.95576,10.63631,35.45438,10.63631a118.819,118.819,0,0,0,24.91933-2.43115,104.96268,104.96268,0,0,0,17.82846-5.26752L300.9737,562.289a56.45868,56.45868,0,0,1-8.50908,3.24155c-3.64671,1.11429-7.69864,2.12727-12.35839,3.14025-4.65969.91168-9.62333,1.72208-14.99212,2.32985a145.78645,145.78645,0,0,1-16.41032.91167c-14.18175,0-26.64142-2.12726-37.07512-6.38177a69.28383,69.28383,0,0,1-25.93232-17.62588,72.92958,72.92958,0,0,1-15.19473-26.64142A103.73732,103.73732,0,0,1,165.33543,487.53089Zm108.5917-16.71421a50.00723,50.00723,0,0,0-2.12724-14.68824,34.35836,34.35836,0,0,0-6.38178-12.05448,28.38066,28.38066,0,0,0-10.23109-8.00255,33.11888,33.11888,0,0,0-14.38436-2.93764,34.23723,34.23723,0,0,0-15.19473,3.24154,32.54167,32.54167,0,0,0-10.94019,8.509,39.59241,39.59241,0,0,0-6.98961,12.0545,75.12609,75.12609,0,0,0-3.44416,13.87787h69.69316Z"/><path d="M494.45334,486.92309a116.61669,116.61669,0,0,1-4.761,34.03621,80.96205,80.96205,0,0,1-13.77653,26.64141,62.0491,62.0491,0,0,1-22.38688,17.322c-9.01557,4.15324-19.14539,6.1792-30.49074,6.1792a76.86915,76.86915,0,0,1-21.07-2.73506,80.354,80.354,0,0,1-15.8025-6.1792v62.80489H348.78659V411.152c7.59736-2.026,17.01809-4.05193,28.16089-5.8753a218.20459,218.20459,0,0,1,35.25176-2.73505c12.76355,0,24.2103,1.92466,34.34012,5.8753a71.82471,71.82471,0,0,1,25.831,16.81551,74.84208,74.84208,0,0,1,16.41033,26.64143C492.52865,462.20634,494.45334,473.85563,494.45334,486.92309Zm-38.29071.6078c0-16.71421-3.748-29.68036-11.24408-38.99981s-19.65188-13.87785-36.36608-13.87785c-3.54544,0-7.19215.20259-10.94019.50649a59.43442,59.43442,0,0,0-11.24408,2.026v92.48527a63.9536,63.9536,0,0,0,13.16877,6.38178,51.99151,51.99151,0,0,0,17.4233,2.93764c13.574,0,23.5012-4.65973,29.883-13.87787C453.02235,515.59047,456.16263,503.13081,456.16263,487.53089Z"/><path d="M529.19861,363.13669l37.37907-6.1792v48.82573h57.53743v31.19985H566.679v65.84386c0,12.96615,2.026,22.2856,6.17917,27.857s11.1428,8.30647,21.07007,8.30647a70.15817,70.15817,0,0,0,18.13241-2.12727,102.99535,102.99535,0,0,0,12.561-4.05193l6.17916,29.68036a144.10312,144.10312,0,0,1-17.01814,5.67271,93.9583,93.9583,0,0,1-24.71679,2.93764c-11.548,0-21.17135-1.51947-28.87-4.65972a43.52147,43.52147,0,0,1-18.43629-13.47265c-4.55842-5.87529-7.69864-12.96616-9.62333-21.37393a134.7113,134.7113,0,0,1-2.73506-28.56611V363.13669Z"/><path d="M666.559,411.152a250.69055,250.69055,0,0,1,28.161-5.8753,246.90112,246.90112,0,0,1,38.392-2.73505c13.16876,0,24.21029,1.82337,33.12446,5.36881,8.81289,3.64674,15.90377,8.61035,21.17135,15.19473a56.937,56.937,0,0,1,11.1428,23.50118,133.90162,133.90162,0,0,1,3.2415,30.18687v90.96578H764.413V482.66856a124.44994,124.44994,0,0,0-1.722-22.083,40.123,40.123,0,0,0-5.5714-14.89083,21.49555,21.49555,0,0,0-10.535-8.30645,44.88247,44.88247,0,0,0-16.20771-2.63376,127.54473,127.54473,0,0,0-14.89079.91167c-5.16618.6078-9.01556,1.11429-11.44674,1.51948V567.65778H666.66023V411.152Z"/><path d="M152.87577,567.35387H109.11493L46.00616,492.39319v75.062H8.22194v-236.43l37.78422-6.28049V467.57516c4.761-4.96361,9.92721-10.33243,15.296-16.10641s10.73759-11.4467,15.90383-17.22069,10.12982-11.24411,14.89085-16.6129,8.71162-9.92723,12.05451-13.87786h44.67249c-10.4337,11.6493-21.3739,23.80508-32.92192,36.26477s-25.22328,28.87-36.87257,40.72189Z"/><path d="M532.98448,65.89949l-19.14536-9.31943L308.40634,312.05413l13.16877,16.71421c.70908.81037,1.41818,1.62078,2.12726,2.32985L535.82081,67.52026A15.77072,15.77072,0,0,0,532.98448,65.89949Z"/><polygon points="350.04 337.277 380.835 337.277 553.953 121.917 547.369 91.832 350.04 337.277"/><polygon points="469.268 35.004 373.541 154.029 373.541 154.029 373.541 154.029 277.713 273.156 292.908 292.504 491.351 45.741 469.268 35.004"/><path d="M469.0653,337.27738a22.64271,22.64271,0,0,0,17.52458-8.40774l81.849-101.906a22.50447,22.50447,0,0,0,4.45711-18.94276l-12.15578-55.61273L412.0344,337.27738Z"/><path d="M351.55938,111.07849a19.74353,19.74353,0,1,0,3.03894,27.75571h0A19.769,19.769,0,0,0,351.55938,111.07849Z"/><path d="M311.54658,160.81591a44.09092,44.09092,0,0,1,55.30883-68.68019,43.00215,43.00215,0,0,1,12.45969,16.00512L446.881,24.16462,416.39023,9.37508a22.56254,22.56254,0,0,0-19.44925,0L279.33375,65.89949a22.24642,22.24642,0,0,0-8.50905,7.09087,23.68619,23.68619,0,0,0-3.748,8.10386l-29.883,127.028a22.2048,22.2048,0,0,0,4.15322,18.94277l20.96873,26.54015,67.5659-84.07752A44.37249,44.37249,0,0,1,311.54658,160.81591Z"/></svg>