<?xml version="1.0" encoding="utf-8"?>
<!-- Generator: Adobe Illustrator 21.0.2, SVG Export Plug-In . SVG Version: 6.00 Build 0)  -->
<svg version="1.1" id="Layer_1" xmlns="http://www.w3.org/2000/svg" xmlns:xlink="http://www.w3.org/1999/xlink" x="0px" y="0px"
	 viewBox="0 0 290 350" style="enable-background:new 0 0 290 350;" xml:space="preserve">
<style type="text/css">
	.st0{fill:#0091BD;}
</style>
<g>
	<polygon class="st0" points="290,109.8 214.1,109.8 214.1,84.5 264.6,84.5 264.6,25.4 226,25.4 226,58.9 163.6,58.9 163.6,25.4 
		125.8,25.4 125.8,58.9 61.6,58.9 61.6,25.4 25.4,25.4 25.4,84.5 74.3,84.5 74.3,109.8 0,109.8 0,0 86.9,0 86.9,33.6 100.4,33.6 
		100.4,0 189,0 189,33.6 200.6,33.6 200.6,0 290,0 	"/>
	<path class="st0" d="M264,157.3v139.6c0,14.9-12.1,27-27,27H52.9c-14.9,0-27-12.1-27-27V157.3H264 M289.4,132H264H25.9H0.6v25.4
		v139.6c0,28.9,23.5,52.3,52.3,52.3H237c28.9,0,52.3-23.5,52.3-52.3V157.3V132L289.4,132z"/>
	<path class="st0" d="M145,208.4c15.1,0,27.5,12.3,27.5,27.5v28.8h-54.9v-28.8C117.5,220.7,129.8,208.4,145,208.4 M145,183
		c-29.1,0-52.8,23.7-52.8,52.8v28.8V290h25.4h54.9h25.4v-25.4v-28.8C197.8,206.7,174.1,183,145,183L145,183z"/>
</g>
</svg>
