<svg viewBox="0 0 1500 1420" fill="none" xmlns="http://www.w3.org/2000/svg">
<mask id="emissary-stacked-mask-black" mask-type="alpha" maskUnits="userSpaceOnUse" x="350" y="0" width="800" height="800">
<path d="M750 799.777C970.852 799.777 1149.89 620.741 1149.89 399.889C1149.89 179.036 970.852 0 750 0C529.148 0 350.111 179.036 350.111 399.889C350.111 620.741 529.148 799.777 750 799.777Z" fill="white"/>
</mask>
<g mask="url(#emissary-stacked-mask-black)">
<path d="M1149.89 399.888C1149.89 185.878 964.01 -0.000244141 749.999 -0.000244141C535.989 0.000252246 350.111 185.879 350.111 399.889C350.111 613.9 535.989 799.778 750 799.778C964.01 799.777 1149.89 613.899 1149.89 399.888Z" fill="white"/>
<path d="M750.322 166.756C602.779 166.756 459.059 254.135 459.059 428.893C459.059 535.186 512.994 573.968 512.994 643.775C512.994 713.581 481.969 679.621 481.969 679.621C481.969 679.621 568.28 789.432 750.322 789.432C932.364 789.432 1014.71 679.621 1014.71 679.621C1014.71 679.621 978.373 713.581 978.373 651.531C978.373 581.724 1041.59 527.43 1041.59 428.893C1041.59 254.135 897.865 166.756 750.322 166.756Z" fill="black"/>
<path d="M811.228 468.613L755.623 579.823V442.135C782.101 442.135 811.228 468.613 811.228 468.613Z" fill="white"/>
<path d="M697.365 468.614C697.365 468.614 729.139 442.136 755.618 442.136V579.824L697.365 468.614Z" fill="white"/>
<path d="M904.248 442.727C860.098 467.655 779.689 409.635 779.689 409.635C802.053 387.611 915.493 277.167 939.552 319.369C964.207 362.563 948.398 417.799 904.248 442.727Z" fill="white"/>
<path d="M603.438 440.519C559.67 414.963 544.681 359.509 569.964 316.669C594.667 274.797 706.427 386.949 728.489 409.284C728.489 409.284 647.206 466.103 603.438 440.519Z" fill="white"/>
<circle cx="853.54" cy="387.441" r="30.0341" fill="black"/>
<circle cx="658.195" cy="387.441" r="30.0341" fill="black"/>
<path d="M880.069 192.114C905.395 174.376 921.36 149.807 917.139 115.673C876.247 108.134 826.544 151.807 795.338 177.767C789.58 177.475 779.986 176.938 774.155 176.913C816.487 129.8 856.509 73.4637 811.225 72.9757C777.116 72.6098 749.502 118.064 726.494 163.275C746.403 111.257 757.596 54.8232 700.015 64.607C642.947 74.2933 672.589 138.071 689.424 187.283L880.069 192.114Z" fill="black"/>
<path fill-rule="evenodd" clip-rule="evenodd" d="M749.611 27.5057C544.164 27.5057 377.616 194.054 377.616 399.501C377.616 604.948 544.164 771.496 749.611 771.496C955.059 771.496 1121.61 604.948 1121.61 399.501C1121.61 194.054 955.059 27.5057 749.611 27.5057ZM346.591 399.501C346.591 176.919 527.029 -3.51953 749.611 -3.51953C972.193 -3.51953 1152.63 176.919 1152.63 399.501C1152.63 622.083 972.193 802.521 749.611 802.521C527.029 802.521 346.591 622.083 346.591 399.501Z" fill="black"/>
</g>
<path d="M0 1114.98H124.174V1080.02H43.0434V1043.41H117.826V1008.37H43.0434V971.846H124.174V936.89H0V1114.98Z" fill="black"/>
<path d="M185.412 936.89V1114.98H227.325V1004.98H228.803L271.586 1113.85H298.368L341.151 1005.59H342.629V1114.98H384.542V936.89H331.238L286.021 1047.15H283.934L238.716 936.89H185.412Z" fill="black"/>
<path d="M488.715 936.89H445.672V1114.98H488.715V936.89Z" fill="black"/>
<path d="M646.279 990.281H687.497C687.149 956.977 660.627 934.455 619.236 934.455C578.54 934.455 549.236 956.629 549.497 989.759C549.41 1016.8 568.366 1032.02 599.149 1039.06L617.758 1043.41C637.323 1047.93 646.105 1053.24 646.279 1063.24C646.105 1074.11 635.931 1081.67 618.627 1081.67C599.584 1081.67 587.062 1072.8 586.105 1055.67H544.888C545.41 1097.32 574.366 1117.24 619.149 1117.24C663.497 1117.24 689.757 1097.15 689.931 1063.32C689.757 1034.89 670.54 1017.5 635.41 1009.76L620.105 1006.28C603.931 1002.8 593.671 997.412 594.018 986.803C594.105 977.064 602.453 970.02 619.149 970.02C635.931 970.02 645.149 977.585 646.279 990.281Z" fill="black"/>
<path d="M842.213 990.281H883.43C883.082 956.977 856.561 934.455 815.169 934.455C774.474 934.455 745.17 956.629 745.43 989.759C745.343 1016.8 764.3 1032.02 795.083 1039.06L813.691 1043.41C833.256 1047.93 842.039 1053.24 842.213 1063.24C842.039 1074.11 831.865 1081.67 814.561 1081.67C795.517 1081.67 782.996 1072.8 782.039 1055.67H740.822C741.344 1097.32 770.3 1117.24 815.083 1117.24C859.43 1117.24 885.691 1097.15 885.865 1063.32C885.691 1034.89 866.474 1017.5 831.343 1009.76L816.039 1006.28C799.865 1002.8 789.604 997.412 789.952 986.803C790.039 977.064 798.387 970.02 815.083 970.02C831.865 970.02 841.082 977.585 842.213 990.281Z" fill="black"/>
<path d="M974.908 1114.98L986.647 1077.59H1048.12L1059.86 1114.98H1106.12L1046.04 936.89H988.734L928.647 1114.98H974.908ZM996.908 1044.89L1016.65 981.759H1018.04L1037.86 1044.89H996.908Z" fill="black"/>
<path d="M1159.58 1114.98H1202.62V1054.02H1224.71L1257.23 1114.98H1304.19L1267.23 1047.15C1286.8 1038.28 1298.1 1020.8 1298.1 996.194C1298.1 959.585 1273.15 936.89 1233.15 936.89H1159.58V1114.98ZM1202.62 1020.11V971.585H1223.84C1243.15 971.585 1253.49 979.672 1253.49 996.194C1253.49 1012.72 1243.15 1020.11 1223.84 1020.11H1202.62Z" fill="black"/>
<path d="M1326.96 936.89L1392.09 1055.5V1114.98H1434.87V1055.5L1500 936.89H1451.91L1414.26 1011.41H1412.7L1375.04 936.89H1326.96Z" fill="black"/>
<path d="M39.1086 1157.04H0.14775V1415.27H39.1086V1157.04Z" fill="black"/>
<path d="M304.269 1157.04H265.687V1346.68H263.291L131.908 1157.04H95.8476V1415.27H134.808V1225.89H137.204L268.46 1415.27H304.269V1157.04Z" fill="black"/>
<path d="M535.859 1238.62H575.829C567.129 1188.31 524.133 1153.51 468.403 1153.51C401.577 1153.51 352.781 1203.82 352.781 1286.28C352.781 1367.99 400.19 1418.8 470.168 1418.8C532.833 1418.8 577.594 1377.69 577.594 1312.51V1283.13H476.094V1315.28H539.894C539.011 1356.89 511.524 1383.24 470.168 1383.24C424.651 1383.24 391.49 1348.82 391.49 1286.03C391.49 1223.49 424.903 1189.07 468.655 1189.07C502.95 1189.07 526.15 1207.98 535.859 1238.62Z" fill="black"/>
<path d="M627.051 1415.27H666.012V1317.55H718.969C719.851 1317.55 720.608 1317.55 721.49 1317.55L773.943 1415.27H818.325L761.082 1310.74C792.73 1299.02 808.49 1272.66 808.49 1237.99C808.49 1190.45 778.986 1157.04 719.095 1157.04H627.051V1415.27ZM666.012 1284.01V1190.45H714.934C753.39 1190.45 769.277 1208.74 769.277 1237.99C769.277 1267.12 753.39 1284.01 715.438 1284.01H666.012Z" fill="black"/>
<path d="M855.899 1415.27H1019.31V1381.73H894.86V1302.67H1009.35V1269.26H894.86V1190.58H1017.79V1157.04H855.899V1415.27Z" fill="black"/>
<path d="M1210.68 1224.88H1248.25C1247.11 1183.52 1210.55 1153.51 1158.1 1153.51C1106.28 1153.51 1066.56 1183.14 1066.56 1227.65C1066.56 1263.59 1092.28 1284.64 1133.76 1295.86L1164.28 1304.19C1191.89 1311.5 1213.2 1320.58 1213.2 1343.52C1213.2 1368.74 1189.11 1385.39 1155.95 1385.39C1125.95 1385.39 1100.98 1372.02 1098.71 1343.9H1059.62C1062.15 1390.68 1098.33 1419.55 1156.21 1419.55C1216.85 1419.55 1251.78 1387.65 1251.78 1343.9C1251.78 1297.38 1210.3 1279.35 1177.51 1271.28L1152.3 1264.72C1132.12 1259.55 1105.27 1250.09 1105.39 1225.38C1105.39 1203.44 1125.44 1187.18 1157.21 1187.18C1186.85 1187.18 1207.9 1201.05 1210.68 1224.88Z" fill="black"/>
<path d="M1439.18 1224.88H1476.75C1475.62 1183.52 1439.05 1153.51 1386.6 1153.51C1334.78 1153.51 1295.06 1183.14 1295.06 1227.65C1295.06 1263.59 1320.78 1284.64 1362.26 1295.86L1392.78 1304.19C1420.39 1311.5 1441.7 1320.58 1441.7 1343.52C1441.7 1368.74 1417.62 1385.39 1384.45 1385.39C1354.45 1385.39 1329.48 1372.02 1327.21 1343.9H1288.12C1290.65 1390.68 1326.83 1419.55 1384.71 1419.55C1445.35 1419.55 1480.28 1387.65 1480.28 1343.9C1480.28 1297.38 1438.8 1279.35 1406.02 1271.28L1380.8 1264.72C1360.62 1259.55 1333.77 1250.09 1333.89 1225.38C1333.89 1203.44 1353.94 1187.18 1385.72 1187.18C1415.35 1187.18 1436.4 1201.05 1439.18 1224.88Z" fill="black"/>
</svg>
