<svg xmlns="http://www.w3.org/2000/svg" role="img" viewBox="-2.71 4.04 400.92 389.67"><defs><style>.cls-1{fill:#fff}</style></defs><path d="M10.62945 261.08887L103.4369 376.4931c4.86661 6.04803 12.24441 9.56972 20.0462 9.56827l148.8364-.03254c7.7992.0054 15.17668-3.51001 20.04636-9.552l92.77475-115.42042c4.86452-6.04875 6.68802-13.96467 4.95489-21.50839L356.97206 95.6178c-1.7412-7.53865-6.84702-13.88163-13.87301-17.23587L208.99684 14.32808c-3.87238-1.84976-8.15119-2.7045-12.44352-2.48558-3.40604.17849-6.74183 1.02903-9.81216 2.50185L52.63903 78.3982c-7.0301 3.35754-12.13625 9.70737-13.87317 17.25214L5.69115 239.56445c-1.54805 6.70204-.29398 13.7402 3.47643 19.51018a25.43598 25.43598 0 0 0 1.46187 2.01424zm154.08075 70.81878c-13.36478 0-24.23818-10.8734-24.23818-24.2381s10.8734-24.2381 24.23818-24.2381 24.23818 10.8734 24.23818 24.2381-10.8734 24.2381-24.23818 24.2381zm119.40572 0c-13.36461 0-24.23801-10.8734-24.23801-24.2381s10.8734-24.2381 24.23801-24.2381c13.36478 0 24.23818 10.8734 24.23818 24.2381s-10.8734 24.2381-24.23818 24.2381zM268.54715 222.8344c12.34445 8.93326 18.86913 22.70559 18.86913 39.82725v6.6335l9.74-9.2908 5.46408 5.72956-18.498 17.6468-18.51087-17.6481 5.46409-5.73084 9.74256 9.28967v-6.6298c0-15.13061-5.43058-26.73148-16.13967-34.48172l-22.76922-16.47699c-4.41557 4.61548-10.6184 7.50764-17.4949 7.50764-6.87618 0-13.07869-2.89184-17.49441-7.50707l-22.76842 16.47642c-10.10598 7.31337-16.13967 18.88396-16.13967 30.9507v10.16582l9.74128-9.29209 5.46408 5.72956-18.49799 17.6468-18.51087-17.6481 5.46408-5.73084 9.74128 9.28846v-10.15962c0-14.17698 7.05434-27.7457 18.86913-36.29621l22.75231-16.46475c-1.81996-3.40015-2.85898-7.2785-2.85898-11.39717 0-13.3647 10.87356-24.2381 24.23818-24.2381 13.36478 0 24.23818 10.8734 24.23818 24.2381 0 4.11836-1.03901 7.99646-2.85866 11.39645l22.75328 16.46547zM91.96957 147.34755l9.74128 9.28846v-10.15963c0-14.17633 7.05434-27.74505 18.86913-36.29557l22.75167-16.46466c-1.8203-3.4004-2.85947-7.27906-2.85947-11.39806 0-13.3647 10.8734-24.2381 24.23802-24.2381 13.36478 0 24.23818 10.8734 24.23818 24.2381 0 4.11828-1.03885 7.99622-2.8585 11.39613l22.7544 16.4666c12.34446 8.93326 18.86914 22.70559 18.86914 39.82725v6.63285l9.74-9.2908 5.46408 5.72956-18.498 17.6468-18.51087-17.64809 5.46408-5.73084 9.74257 9.28967v-6.62915c0-15.13062-5.43058-26.7315-16.13967-34.48173l-22.77035-16.47812c-4.41573 4.61564-10.61824 7.50797-17.49506 7.50797-6.87585 0-13.07804-2.89152-17.49345-7.50628l-22.7681 16.47643c-10.10597 7.31337-16.13966 18.8833-16.13966 30.95005v10.16582l9.74128-9.29209 5.46408 5.72956-18.49799 17.6468-18.51088-17.64809 5.46409-5.73084zm13.04067 23.38634c13.36462 0 24.23802 10.8734 24.23802 24.2381s-10.8734 24.2381-24.23802 24.2381c-13.36478 0-24.23818-10.8734-24.23818-24.2381s10.8734-24.2381 24.23818-24.2381z" class="cls-1"/><circle cx="224.414" cy="194.972" r="18.503" class="cls-1"/><path d="M105.01024 213.47457c10.21874 0 18.5025-8.28392 18.5025-18.50266s-8.28376-18.50266-18.5025-18.50266-18.50282 8.28392-18.50282 18.50266 8.28408 18.50266 18.50282 18.50266z" class="cls-1"/><circle cx="164.71" cy="82.318" r="18.535" class="cls-1" transform="rotate(-22.5 164.71 82.318)"/><circle cx="284.116" cy="307.669" r="18.535" class="cls-1"/><circle cx="164.71" cy="307.669" r="18.535" class="cls-1"/></svg>