<svg id="Layer_1" data-name="Layer 1" xmlns="http://www.w3.org/2000/svg" xmlns:xlink="http://www.w3.org/1999/xlink" viewBox="0 0 1312.18994 279.51001"><defs><style>.cls-1{fill:none;}.cls-2{clip-path:url(#clip-path);}.cls-3{fill:#f7d186;}.cls-4{clip-path:url(#clip-path-2);}.cls-5{fill:#ff9234;}.cls-6{clip-path:url(#clip-path-3);}.cls-7{isolation:isolate;}.cls-8{clip-path:url(#clip-path-4);}.cls-9{clip-path:url(#clip-path-5);}.cls-10{clip-path:url(#clip-path-6);}.cls-11{fill:#ffcd3c;}.cls-12{clip-path:url(#clip-path-8);}.cls-13{clip-path:url(#clip-path-9);}.cls-14{fill:#f3807b;}.cls-15{clip-path:url(#clip-path-12);}.cls-16{clip-path:url(#clip-path-13);}.cls-17{fill:#35d0ba;}.cls-18{clip-path:url(#clip-path-15);}.cls-19{fill:#d8ae64;}.cls-20,.cls-22{fill:#004680;}.cls-20{fill-rule:evenodd;}.cls-21{clip-path:url(#clip-path-16);}.cls-23{clip-path:url(#clip-path-17);}.cls-24{clip-path:url(#clip-path-18);}.cls-25{clip-path:url(#clip-path-19);}.cls-26{clip-path:url(#clip-path-20);}.cls-27{clip-path:url(#clip-path-21);}.cls-28{clip-path:url(#clip-path-22);}.cls-29{clip-path:url(#clip-path-23);}.cls-30{clip-path:url(#clip-path-24);}.cls-31{clip-path:url(#clip-path-25);}</style><clipPath id="clip-path"><path class="cls-1" d="M115.47,94.13a15.221,15.221,0,0,0-15.22,15.22v143.2a15.22,15.22,0,0,0,30.44,0V109.35a15.2274,15.2274,0,0,0-15.22-15.22"/></clipPath><clipPath id="clip-path-2"><path class="cls-1" d="M176.53,75.36c.05-.96.07-1.93.07-2.9,0-.95-.02-1.89-.07-2.82a60.70581,60.70581,0,0,0-121.28,0c-.04.94-.07,1.88-.07,2.82,0,1.04.03,2.07.08,3.09-.02.5-.08,1-.08,1.51V176.7a34.74865,34.74865,0,0,0,34.65,34.65h52.14a34.74864,34.74864,0,0,0,34.65-34.65V77.07c0-.58-.06-1.14-.09-1.71"/></clipPath><clipPath id="clip-path-3"><path class="cls-1" d="M55.55,69.64q-.06,1.395-.06,2.82c0,1.04.02,2.07.08,3.09-.02.51-.08,1-.08,1.52v99.64a34.74442,34.74442,0,0,0,34.64,34.64h52.14a34.74652,34.74652,0,0,0,34.65-34.64V77.07c0-.58-.06-1.14-.09-1.71.05-.96.07-1.93.07-2.89q0-1.425-.06-2.82a60.71129,60.71129,0,0,0-121.29-.01Z"/></clipPath><clipPath id="clip-path-4"><rect class="cls-1" x="16.08" y="24.9" width="197.24001" height="197.24"/></clipPath><clipPath id="clip-path-5"><rect class="cls-1" x="9.22885" y="92.99453" width="212.94794" height="63.06939" transform="translate(-54.16689 118.28802) rotate(-45)"/></clipPath><clipPath id="clip-path-6"><rect class="cls-1" x="54.67" y="9.88998" width="124.34999" height="201.53"/></clipPath><clipPath id="clip-path-8"><rect class="cls-1" x="-37.52" y="-28.7" width="207.96" height="207.96001"/></clipPath><clipPath id="clip-path-9"><rect class="cls-1" x="-40.94984" y="35.09626" width="212.94795" height="78.47925" transform="translate(-33.37183 68.10504) rotate(-45)"/></clipPath><clipPath id="clip-path-12"><rect class="cls-1" x="61.1" y="69.92" width="197.24" height="197.24001"/></clipPath><clipPath id="clip-path-13"><rect class="cls-1" x="53.9807" y="137.73784" width="212.94794" height="63.06938" transform="translate(-72.69767 163.03736) rotate(-45)"/></clipPath><clipPath id="clip-path-15"><path class="cls-1" d="M104.38,211.52l26.4,26.39V211.3s-27.06.22-26.4.22"/></clipPath><clipPath id="clip-path-16"><path class="cls-1" d="M307.52,195.1A70.31007,70.31007,0,1,1,360.33,78.48a11.65567,11.65567,0,0,1-1,16.4,11.48912,11.48912,0,0,1-16.4-1,46.90514,46.90514,0,1,0,0,61.81,11.48915,11.48915,0,0,1,16.4-1,11.65567,11.65567,0,0,1,1,16.4,70.15454,70.15454,0,0,1-52.81,24.01"/></clipPath><clipPath id="clip-path-17"><path class="cls-1" d="M438.53,98.89a11.65276,11.65276,0,0,1-11.8,11.6c-12.8,0-22.4,10.4-22.4,24.6V183.5a11.6,11.6,0,0,1-23.2,0V96.49a11.597,11.597,0,0,1,22.8-3,44.81157,44.81157,0,0,1,22.8-6.2,11.65276,11.65276,0,0,1,11.8,11.6"/></clipPath><clipPath id="clip-path-18"><path class="cls-1" d="M497.53,195.7a55.1051,55.1051,0,1,1,55.21-55,55.09711,55.09711,0,0,1-55.21,55m0-87.01a31.90016,31.90016,0,1,0,31.8,32,31.92326,31.92326,0,0,0-31.8-32"/></clipPath><clipPath id="clip-path-19"><path class="cls-1" d="M571.94,174.9a11.58706,11.58706,0,1,1,21-9.8c1.6,3.2,6,6.8,13.8,6.8,10.8,0,14.6-6.6,14.6-11,0-6-1.6-7.8-17.2-11.8-7-1.6-14.2-3.4-20.4-7.4a28.15864,28.15864,0,0,1-13-24.4,31.59133,31.59133,0,0,1,9.8-22.4c6.6-6.4,15.8-10,26.2-10,14.8,0,27.41,7.2,32.8,19a11.58706,11.58706,0,1,1-21,9.8c-1.2-2.6-5-5.6-11.8-5.6-9.2,0-12.6,5.8-12.6,9.2,0,4,.8,5.6,15.6,9.4,13,3.2,34.8,8.6,34.8,34.2a33.69707,33.69707,0,0,1-10,23.6c-5,4.8-13.8,10.6-27.8,10.6C590.94,195.1,577.54,187.3,571.94,174.9"/></clipPath><clipPath id="clip-path-20"><path class="cls-1" d="M663.75,174.9a11.58706,11.58706,0,1,1,21-9.8c1.6,3.2,6,6.8,13.8,6.8,10.8,0,14.6-6.6,14.6-11,0-6-1.6-7.8-17.2-11.8-7-1.6-14.2-3.4-20.4-7.4a28.15864,28.15864,0,0,1-13-24.4,31.59136,31.59136,0,0,1,9.8-22.4c6.6-6.4,15.8-10,26.2-10,14.81,0,27.41,7.2,32.8,19a11.58706,11.58706,0,1,1-21,9.8c-1.2-2.6-5-5.6-11.8-5.6-9.2,0-12.6,5.8-12.6,9.2,0,4,.8,5.6,15.6,9.4,13,3.2,34.8,8.6,34.8,34.2a33.697,33.697,0,0,1-10,23.6c-5,4.8-13.8,10.6-27.8,10.6-15.79993,0-29.2-7.8-34.79993-20.2"/></clipPath><clipPath id="clip-path-21"><path class="cls-1" d="M859.17,139.9c0,14.8-5,28.4-14.4,38.61a51.12174,51.12174,0,0,1-38,16.6,52.16317,52.16317,0,0,1-29-8.8v47.2a11.78094,11.78094,0,0,1-11.8,11.6,11.6083,11.6083,0,0,1-11.6-11.6V96.49a11.60834,11.60834,0,0,1,11.6-11.6,11.77394,11.77394,0,0,1,11.4,9,52.54274,52.54274,0,0,1,29.4-9,50.93984,50.93984,0,0,1,38,16.4c9.4,10.2,14.4,24,14.4,38.61m-23.21,0c0-18.4-12.2-31.8-29.2-31.8-16.8,0-29,13.4-29,31.8s12.2,31.8,29,31.8c17.01,0,29.2-13.4,29.2-31.8"/></clipPath><clipPath id="clip-path-22"><path class="cls-1" d="M889.77,195.1a11.60831,11.60831,0,0,1-11.6-11.6V66.29a11.60834,11.60834,0,0,1,11.6-11.6,11.78089,11.78089,0,0,1,11.8,11.6V183.5a11.78094,11.78094,0,0,1-11.8,11.6"/></clipPath><clipPath id="clip-path-23"><path class="cls-1" d="M1025.38,96.49V183.5a11.65306,11.65306,0,0,1-23,2.6,51.59288,51.59288,0,0,1-29.4,9,50.44017,50.44017,0,0,1-38.01-16.6c-9.2-10-14.4-23.8-14.4-38.4,0-14.8,5.2-28.6,14.4-38.61a50.42458,50.42458,0,0,1,38.01-16.6,51.593,51.593,0,0,1,29.4,9,11.65306,11.65306,0,0,1,23,2.6m-23.2,43.61c0-18.6-12.4-32-29.2-32-17,0-29.2,13.4-29.2,32,0,18.4,12.2,31.8,29.2,31.8,16.80005,0,29.2-13.4,29.2-31.8"/></clipPath><clipPath id="clip-path-24"><path class="cls-1" d="M1136.79,132.7v50.8a11.70044,11.70044,0,0,1-23.4,0V132.7c0-11.8-6.6-24.6-21.4-24.6-13.4,0-23.4,10.6-23.4,24.6v50.8a11.6,11.6,0,1,1-23.2,0V96.49a11.62414,11.62414,0,0,1,22.2-4.8,45.65959,45.65959,0,0,1,24.4-6.8c25.4,0,44.80005,20.6,44.80005,47.81"/></clipPath><clipPath id="clip-path-25"><path class="cls-1" d="M1207.2,196.1a51.0004,51.0004,0,0,1-38.01-17.2c-9.4-10-14.4-23.81-14.4-38.4,0-31.61,22.2-55.21,51.4-55.21,29.41,0,50.80005,23.2,50.80005,55.21a11.65276,11.65276,0,0,1-11.80005,11.6h-65.41c4,12.2,14.4,20.8,27.4,20.8,7.83,0,14.48-1.65,19.23-6.21a20.3259,20.3259,0,0,0,3.77-4.99,11.6619,11.6619,0,1,1,20,12c-8.98,16.2-24.58,22.4-42.98,22.4m-27.61-67.4h52.61c-4-13.8-15-20.2-26-20.2-10.79993-.01-22.40991,6.39-26.61,20.2"/></clipPath></defs><g class="cls-2"><rect class="cls-3" x="89.53" y="83.41" width="51.87" height="195.07001"/></g><g class="cls-4"><rect class="cls-5" x="44.47" y="1.04" width="142.87" height="221.03999"/></g><g class="cls-6"><g class="cls-7"><g class="cls-8"><g class="cls-9"><g class="cls-10"><rect class="cls-11" x="7.40001" y="16.21998" width="216.61999" height="216.62"/></g></g></g></g></g><g class="cls-6"><g class="cls-7"><g class="cls-12"><g class="cls-13"><g class="cls-10"><rect class="cls-14" x="-48.24" y="-39.42" width="227.50999" height="227.50999"/></g></g></g></g></g><g class="cls-6"><g class="cls-7"><g class="cls-15"><g class="cls-16"><g class="cls-10"><rect class="cls-17" x="52.14" y="60.95999" width="216.62001" height="216.61999"/></g></g></g></g></g><g class="cls-18"><rect class="cls-19" x="93.65" y="200.58" width="47.85" height="48.06"/></g><path id="SVGID" class="cls-20" d="M307.52,195.1A70.31007,70.31007,0,1,1,360.33,78.48a11.65567,11.65567,0,0,1-1,16.4,11.48912,11.48912,0,0,1-16.4-1,46.90514,46.90514,0,1,0,0,61.81,11.48915,11.48915,0,0,1,16.4-1,11.65567,11.65567,0,0,1,1,16.4,70.15454,70.15454,0,0,1-52.81,24.01"/><g class="cls-21"><rect class="cls-22" x="226.59" y="43.77" width="147.35001" height="162.05001"/></g><path id="SVGID-2" data-name="SVGID" class="cls-20" d="M438.53,98.89a11.65276,11.65276,0,0,1-11.8,11.6c-12.8,0-22.4,10.4-22.4,24.6V183.5a11.6,11.6,0,0,1-23.2,0V96.49a11.597,11.597,0,0,1,22.8-3,44.81157,44.81157,0,0,1,22.8-6.2,11.65276,11.65276,0,0,1,11.8,11.6"/><g class="cls-23"><rect class="cls-22" x="370.39999" y="74.17" width="78.84" height="131.64999"/></g><path id="SVGID-3" data-name="SVGID" class="cls-20" d="M497.53,195.7a55.1051,55.1051,0,1,1,55.21-55,55.09711,55.09711,0,0,1-55.21,55m0-87.01a31.90016,31.90016,0,1,0,31.8,32,31.92326,31.92326,0,0,0-31.8-32"/><g class="cls-24"><rect class="cls-22" x="431.81" y="74.77" width="131.64996" height="131.64999"/></g><path id="SVGID-4" data-name="SVGID" class="cls-20" d="M571.94,174.9a11.58706,11.58706,0,1,1,21-9.8c1.6,3.2,6,6.8,13.8,6.8,10.8,0,14.6-6.6,14.6-11,0-6-1.6-7.8-17.2-11.8-7-1.6-14.2-3.4-20.4-7.4a28.15864,28.15864,0,0,1-13-24.4,31.59133,31.59133,0,0,1,9.8-22.4c6.6-6.4,15.8-10,26.2-10,14.8,0,27.41,7.2,32.8,19a11.58706,11.58706,0,1,1-21,9.8c-1.2-2.6-5-5.6-11.8-5.6-9.2,0-12.6,5.8-12.6,9.2,0,4,.8,5.6,15.6,9.4,13,3.2,34.8,8.6,34.8,34.2a33.69707,33.69707,0,0,1-10,23.6c-5,4.8-13.8,10.6-27.8,10.6C590.94,195.1,577.54,187.3,571.94,174.9"/><g class="cls-25"><rect class="cls-22" x="560.02002" y="74.17" width="95.25" height="131.64999"/></g><path id="SVGID-5" data-name="SVGID" class="cls-20" d="M663.75,174.9a11.58706,11.58706,0,1,1,21-9.8c1.6,3.2,6,6.8,13.8,6.8,10.8,0,14.6-6.6,14.6-11,0-6-1.6-7.8-17.2-11.8-7-1.6-14.2-3.4-20.4-7.4a28.15864,28.15864,0,0,1-13-24.4,31.59136,31.59136,0,0,1,9.8-22.4c6.6-6.4,15.8-10,26.2-10,14.81,0,27.41,7.2,32.8,19a11.58706,11.58706,0,1,1-21,9.8c-1.2-2.6-5-5.6-11.8-5.6-9.2,0-12.6,5.8-12.6,9.2,0,4,.8,5.6,15.6,9.4,13,3.2,34.8,8.6,34.8,34.2a33.697,33.697,0,0,1-10,23.6c-5,4.8-13.8,10.6-27.8,10.6-15.79993,0-29.2-7.8-34.79993-20.2"/><g class="cls-26"><rect class="cls-22" x="651.83002" y="74.17" width="95.25" height="131.64999"/></g><path id="SVGID-6" data-name="SVGID" class="cls-20" d="M859.17,139.9c0,14.8-5,28.4-14.4,38.61a51.12174,51.12174,0,0,1-38,16.6,52.16317,52.16317,0,0,1-29-8.8v47.2a11.78094,11.78094,0,0,1-11.8,11.6,11.6083,11.6083,0,0,1-11.6-11.6V96.49a11.60834,11.60834,0,0,1,11.6-11.6,11.77394,11.77394,0,0,1,11.4,9,52.54274,52.54274,0,0,1,29.4-9,50.93984,50.93984,0,0,1,38,16.4c9.4,10.2,14.4,24,14.4,38.61m-23.21,0c0-18.4-12.2-31.8-29.2-31.8-16.8,0-29,13.4-29,31.8s12.2,31.8,29,31.8c17.01,0,29.2-13.4,29.2-31.8"/><g class="cls-27"><rect class="cls-22" x="743.64001" y="74.17" width="126.25" height="181.64999"/></g><path id="SVGID-7" data-name="SVGID" class="cls-20" d="M889.77,195.1a11.60831,11.60831,0,0,1-11.6-11.6V66.29a11.60834,11.60834,0,0,1,11.6-11.6,11.78089,11.78089,0,0,1,11.8,11.6V183.5a11.78094,11.78094,0,0,1-11.8,11.6"/><g class="cls-28"><rect class="cls-22" x="867.45001" y="43.97" width="44.84003" height="161.85001"/></g><path id="SVGID-8" data-name="SVGID" class="cls-20" d="M1025.38,96.49V183.5a11.65306,11.65306,0,0,1-23,2.6,51.59288,51.59288,0,0,1-29.4,9,50.44017,50.44017,0,0,1-38.01-16.6c-9.2-10-14.4-23.8-14.4-38.4,0-14.8,5.2-28.6,14.4-38.61a50.42458,50.42458,0,0,1,38.01-16.6,51.593,51.593,0,0,1,29.4,9,11.65306,11.65306,0,0,1,23,2.6m-23.2,43.61c0-18.6-12.4-32-29.2-32-17,0-29.2,13.4-29.2,32,0,18.4,12.2,31.8,29.2,31.8,16.80005,0,29.2-13.4,29.2-31.8"/><g class="cls-29"><rect class="cls-22" x="909.84998" y="74.17" width="126.25" height="131.64999"/></g><path id="SVGID-9" data-name="SVGID" class="cls-20" d="M1136.79,132.7v50.8a11.70044,11.70044,0,0,1-23.4,0V132.7c0-11.8-6.6-24.6-21.4-24.6-13.4,0-23.4,10.6-23.4,24.6v50.8a11.6,11.6,0,1,1-23.2,0V96.49a11.62414,11.62414,0,0,1,22.2-4.8,45.65959,45.65959,0,0,1,24.4-6.8c25.4,0,44.80005,20.6,44.80005,47.81"/><g class="cls-30"><rect class="cls-22" x="1034.66003" y="74.17" width="112.84998" height="131.64999"/></g><path id="SVGID-10" data-name="SVGID" class="cls-20" d="M1207.2,196.1a51.0004,51.0004,0,0,1-38.01-17.2c-9.4-10-14.4-23.81-14.4-38.4,0-31.61,22.2-55.21,51.4-55.21,29.41,0,50.80005,23.2,50.80005,55.21a11.65276,11.65276,0,0,1-11.80005,11.6h-65.41c4,12.2,14.4,20.8,27.4,20.8,7.83,0,14.48-1.65,19.23-6.21a20.3259,20.3259,0,0,0,3.77-4.99,11.6619,11.6619,0,1,1,20,12c-8.98,16.2-24.58,22.4-42.98,22.4m-27.61-67.4h52.61c-4-13.8-15-20.2-26-20.2-10.79993-.01-22.40991,6.39-26.61,20.2"/><g class="cls-31"><rect class="cls-22" x="1144.06995" y="74.57" width="123.65002" height="132.25001"/></g></svg>