<svg width="1076" height="360" viewBox="0 0 1076 360" fill="none" xmlns="http://www.w3.org/2000/svg">
<mask id="mask0_3933_32" style="mask-type:luminance" maskUnits="userSpaceOnUse" x="0" y="0" width="361" height="360">
<path d="M360 0H0V360H360V0Z" fill="white"/>
</mask>
<g mask="url(#mask0_3933_32)">
<path d="M360 180C360 80.5888 279.411 0 180 0C80.5888 0 0 80.5888 0 180C0 279.411 80.5888 360 180 360C279.411 360 360 279.411 360 180Z" fill="#3262DE"/>
<path fill-rule="evenodd" clip-rule="evenodd" d="M81.0017 102.795C81.0017 92.8541 89.0606 84.7952 99.0017 84.7952H197.706C199.363 84.7952 200.706 86.1383 200.706 87.7952C200.706 89.4521 199.363 90.7952 197.706 90.7952H99.0017C92.3743 90.7952 87.0017 96.1678 87.0017 102.795V259.203C87.0017 265.83 92.3743 271.203 99.0017 271.203H255.41C262.037 271.203 267.41 265.83 267.41 259.203V158.999C267.41 157.342 268.753 155.999 270.41 155.999C272.067 155.999 273.41 157.342 273.41 158.999V259.203C273.41 269.144 265.351 277.203 255.41 277.203H99.0017C89.0606 277.203 81.0017 269.144 81.0017 259.203V102.795Z" fill="white"/>
<path d="M150.874 220C150.874 220 150.496 220.797 149.836 222.1C146.808 228.397 138.795 246.469 148.449 242.776C153.078 241.004 156.585 236.213 157.941 234.125C158.276 233.512 158.553 233.129 158.553 233.129C158.553 233.129 158.34 233.51 157.941 234.125C156.805 236.2 155.003 240.914 161.065 242.286C165.293 243.242 167.847 240.584 169.304 237.926C168.626 235.597 170.996 233.371 170.996 233.371C170.996 233.371 170.553 235.648 169.304 237.926C167.847 240.584 165.293 243.242 161.065 242.286C155.003 240.914 156.805 236.2 157.941 234.125C156.585 236.213 153.078 241.004 148.449 242.776C138.795 246.469 146.808 228.397 149.836 222.1C150.461 220.798 150.874 220 150.874 220Z" fill="white"/>
<path d="M104.908 239.788C103.259 239.95 102.054 241.418 102.215 243.067C102.377 244.716 103.845 245.921 105.494 245.759L104.908 239.788ZM133.089 226.161L135.573 227.842C136.485 226.495 136.157 224.666 134.833 223.72C133.509 222.774 131.673 223.055 130.693 224.354L133.089 226.161ZM150.872 219.998L153.582 221.284C154.284 219.805 153.671 218.037 152.204 217.31C150.737 216.583 148.958 217.166 148.207 218.621L150.872 219.998ZM158.551 233.127L161.169 234.592C161.945 233.205 161.504 231.454 160.165 230.599C158.825 229.744 157.052 230.082 156.12 231.369L158.551 233.127ZM170.994 233.369L173.939 233.942C174.188 232.665 173.584 231.372 172.444 230.743C171.305 230.114 169.889 230.291 168.941 231.183L170.994 233.369ZM198.862 245.903C200.516 245.816 201.787 244.403 201.699 242.749C201.612 241.094 200.2 239.824 198.545 239.911L198.862 245.903ZM105.201 242.774C105.494 245.759 105.494 245.759 105.494 245.759C105.497 245.758 105.506 245.758 105.51 245.758C105.517 245.757 105.528 245.756 105.541 245.754C105.567 245.752 105.603 245.748 105.649 245.743C105.741 245.733 105.872 245.718 106.039 245.698C106.372 245.658 106.846 245.597 107.431 245.511C108.597 245.34 110.214 245.068 112.021 244.663C115.528 243.876 120.167 242.502 123.509 240.128L120.035 235.237C117.719 236.882 114.072 238.054 110.708 238.808C109.08 239.173 107.615 239.42 106.559 239.575C106.032 239.653 105.609 239.707 105.323 239.741C105.18 239.758 105.072 239.77 105.001 239.778C104.966 239.782 104.94 239.785 104.924 239.786C104.916 239.787 104.911 239.788 104.908 239.788C104.908 239.788 104.908 239.788 105.201 242.774ZM123.509 240.128C126.615 237.922 129.621 234.843 131.791 232.412C132.891 231.179 133.807 230.077 134.45 229.281C134.772 228.883 135.026 228.56 135.202 228.334C135.29 228.221 135.358 228.132 135.406 228.07C135.429 228.039 135.448 228.015 135.461 227.997C135.467 227.989 135.473 227.982 135.476 227.977C135.475 227.978 135.478 227.974 135.476 227.977C135.477 227.976 135.482 227.969 135.483 227.969C135.483 227.968 135.484 227.967 133.089 226.161C130.693 224.354 130.692 224.354 130.693 224.354C130.692 224.356 130.688 224.362 130.683 224.368C130.675 224.379 130.661 224.397 130.642 224.422C130.603 224.472 130.545 224.548 130.467 224.648C130.311 224.849 130.079 225.143 129.782 225.511C129.187 226.247 128.335 227.272 127.314 228.417C125.239 230.742 122.587 233.423 120.035 235.237L123.509 240.128ZM133.089 226.161C130.604 224.479 130.604 224.48 130.603 224.481C130.604 224.48 130.602 224.483 130.603 224.481C130.601 224.484 130.595 224.493 130.592 224.497C130.587 224.505 130.579 224.516 130.57 224.529C130.553 224.556 130.529 224.592 130.499 224.638C130.439 224.73 130.356 224.858 130.255 225.021C130.051 225.346 129.771 225.809 129.45 226.379C128.811 227.514 127.99 229.11 127.288 230.928C126.593 232.729 125.97 234.861 125.81 237.043C125.651 239.227 125.945 241.666 127.319 243.841L132.391 240.634C131.919 239.888 131.694 238.857 131.794 237.48C131.895 236.099 132.311 234.577 132.886 233.089C133.454 231.618 134.133 230.291 134.678 229.323C134.948 228.843 135.181 228.46 135.342 228.203C135.422 228.074 135.484 227.978 135.524 227.916C135.544 227.885 135.559 227.864 135.567 227.851C135.571 227.845 135.572 227.843 135.573 227.842C135.572 227.843 135.573 227.842 133.089 226.161ZM127.319 243.841C128.251 245.314 129.592 246.495 131.396 246.875C133.131 247.24 134.741 246.744 136.013 246.068C138.465 244.765 140.808 242.184 142.804 239.56C146.909 234.162 150.749 226.929 152.51 223.453L147.157 220.742C145.415 224.181 141.78 230.995 138.029 235.927C136.096 238.468 134.416 240.122 133.198 240.769C132.635 241.069 132.498 240.976 132.631 241.004C132.834 241.046 132.716 241.149 132.391 240.634L127.319 243.841ZM152.51 223.453C152.847 222.788 153.113 222.25 153.295 221.877C153.387 221.69 153.457 221.544 153.505 221.444C153.53 221.394 153.548 221.355 153.561 221.328C153.567 221.315 153.572 221.305 153.576 221.297C153.578 221.294 153.581 221.287 153.582 221.284C153.582 221.284 153.582 221.284 150.872 219.998C148.162 218.712 148.162 218.712 148.162 218.712C148.163 218.71 148.162 218.713 148.162 218.712C148.159 218.717 148.153 218.73 148.147 218.741C148.137 218.763 148.121 218.797 148.099 218.841C148.056 218.931 147.991 219.066 147.905 219.241C147.734 219.592 147.48 220.104 147.157 220.742L152.51 223.453ZM150.872 219.998C148.207 218.621 148.207 218.621 148.207 218.621C148.208 218.62 148.206 218.622 148.207 218.621C148.206 218.623 148.202 218.63 148.2 218.634C148.196 218.641 148.191 218.652 148.184 218.665C148.17 218.693 148.15 218.732 148.124 218.782C148.073 218.883 147.998 219.029 147.905 219.217C147.717 219.592 147.45 220.131 147.13 220.798L152.537 223.397C152.842 222.763 153.095 222.252 153.27 221.903C153.357 221.728 153.425 221.594 153.471 221.504C153.494 221.459 153.511 221.426 153.522 221.404C153.528 221.393 153.532 221.386 153.534 221.381C153.533 221.382 153.535 221.378 153.534 221.381C153.534 221.381 153.537 221.375 150.872 219.998ZM147.13 220.798C145.616 223.947 142.727 230.292 141.469 235.475C141.15 236.789 140.913 238.119 140.849 239.36C140.787 240.552 140.867 241.938 141.418 243.193C142.039 244.607 143.23 245.754 144.969 246.135C146.493 246.468 148.073 246.129 149.519 245.575L147.375 239.972C146.407 240.342 146.126 240.246 146.252 240.273C146.593 240.348 146.85 240.64 146.912 240.781C146.917 240.792 146.883 240.718 146.858 240.513C146.833 240.313 146.822 240.035 146.841 239.671C146.879 238.933 147.031 237.997 147.3 236.89C148.393 232.385 151.024 226.546 152.537 223.397L147.13 220.798ZM149.519 245.575C152.403 244.472 154.795 242.495 156.577 240.652C158.38 238.788 159.713 236.899 160.455 235.756L155.423 232.489C154.809 233.435 153.71 234.985 152.264 236.481C150.796 237.999 149.119 239.304 147.375 239.972L149.519 245.575ZM160.455 235.756C160.676 235.416 160.848 235.137 160.968 234.937C161.028 234.837 161.075 234.757 161.108 234.698C161.125 234.669 161.139 234.646 161.149 234.628C161.154 234.619 161.158 234.611 161.162 234.605C161.163 234.602 161.168 234.595 161.169 234.592C161.168 234.593 161.17 234.591 161.169 234.592C161.169 234.592 161.169 234.592 158.551 233.127C155.933 231.663 155.933 231.663 155.933 231.663C155.93 231.668 155.924 231.678 155.915 231.694C155.896 231.727 155.865 231.78 155.822 231.852C155.735 231.996 155.601 232.214 155.423 232.489L160.455 235.756ZM158.551 233.127C156.12 231.369 156.12 231.369 156.12 231.369C156.118 231.372 156.11 231.384 156.107 231.388C156.101 231.396 156.095 231.405 156.087 231.416C156.071 231.438 156.052 231.466 156.029 231.499C155.983 231.566 155.922 231.657 155.85 231.769C155.706 231.992 155.515 232.303 155.307 232.683L160.571 235.562C160.698 235.33 160.813 235.143 160.892 235.022C160.931 234.961 160.96 234.918 160.976 234.894C160.984 234.883 160.989 234.876 160.99 234.874C160.989 234.875 160.985 234.882 160.984 234.883C160.984 234.884 160.982 234.886 158.551 233.127ZM155.307 232.683C154.684 233.821 153.554 236.207 153.817 238.773C153.961 240.17 154.52 241.624 155.734 242.841C156.913 244.022 158.51 244.782 160.401 245.21L161.725 239.358C160.585 239.1 160.134 238.756 159.981 238.603C159.864 238.485 159.808 238.373 159.786 238.161C159.758 237.891 159.8 237.49 159.961 236.968C160.118 236.461 160.349 235.967 160.571 235.562L155.307 232.683ZM160.401 245.21C163.319 245.87 165.841 245.285 167.857 243.974C169.776 242.727 171.074 240.933 171.933 239.367L166.672 236.482C166.073 237.573 165.366 238.437 164.586 238.944C163.904 239.388 163.035 239.654 161.725 239.358L160.401 245.21ZM171.933 239.367C172.681 238.002 173.174 236.666 173.48 235.688C173.635 235.193 173.745 234.776 173.819 234.475C173.856 234.324 173.884 234.201 173.904 234.111C173.914 234.066 173.921 234.029 173.927 234.001C173.93 233.987 173.933 233.975 173.935 233.965C173.936 233.96 173.936 233.956 173.937 233.952C173.937 233.95 173.939 233.943 173.939 233.942C173.938 233.943 173.939 233.941 173.939 233.942C173.939 233.942 173.939 233.942 170.994 233.369C168.049 232.796 168.05 232.796 168.05 232.795C168.05 232.796 168.05 232.794 168.05 232.795C168.048 232.801 168.046 232.811 168.042 232.832C168.032 232.876 168.016 232.948 167.992 233.047C167.943 233.244 167.865 233.538 167.753 233.898C167.525 234.628 167.172 235.569 166.672 236.482L171.933 239.367ZM170.994 233.369C168.941 231.183 168.942 231.182 168.941 231.183C168.943 231.182 168.94 231.184 168.941 231.183C168.939 231.185 168.93 231.193 168.927 231.195C168.922 231.2 168.917 231.205 168.911 231.211C168.898 231.223 168.884 231.237 168.867 231.254C168.833 231.287 168.791 231.329 168.741 231.38C168.642 231.482 168.512 231.621 168.364 231.793C168.072 232.131 167.685 232.622 167.32 233.232C166.644 234.36 165.738 236.413 166.422 238.763L172.183 237.086C172.183 237.085 172.18 237.079 172.18 237.059C172.18 237.036 172.183 236.991 172.2 236.92C172.236 236.767 172.321 236.559 172.468 236.315C172.61 236.077 172.774 235.866 172.905 235.714C172.969 235.641 173.019 235.588 173.046 235.559C173.06 235.545 173.068 235.537 173.069 235.536C173.068 235.537 173.06 235.545 173.058 235.547C173.057 235.547 173.046 235.559 173.046 235.559C173.046 235.56 173.048 235.556 170.994 233.369ZM166.422 238.763C167.341 241.921 170.53 243.838 175.184 244.912C180.008 246.026 187.47 246.505 198.862 245.903L198.545 239.911C187.345 240.503 180.542 239.991 176.533 239.066C174.534 238.604 173.392 238.076 172.773 237.655C172.475 237.452 172.325 237.293 172.255 237.204C172.22 237.159 172.202 237.128 172.194 237.112C172.186 237.096 172.183 237.087 172.183 237.086L166.422 238.763Z" fill="white"/>
<path fill-rule="evenodd" clip-rule="evenodd" d="M204.077 242.907C204.077 241.25 205.42 239.907 207.077 239.907H207.577C209.234 239.907 210.577 241.25 210.577 242.907C210.577 244.564 209.234 245.907 207.577 245.907H207.077C205.42 245.907 204.077 244.564 204.077 242.907Z" fill="white"/>
<path d="M144.658 135.996L223.149 214.487C225.882 217.22 225.882 221.652 223.149 224.386L220.32 227.215C217.587 229.948 213.154 229.948 210.421 227.215L131.93 148.724C129.197 145.99 129.197 141.558 131.93 138.825L134.759 135.996C137.492 133.262 141.925 133.262 144.658 135.996Z" fill="white"/>
<path fill-rule="evenodd" clip-rule="evenodd" d="M142.89 137.763C141.134 136.006 138.284 136.006 136.528 137.763L133.698 140.593C131.942 142.349 131.941 145.198 133.698 146.956L212.189 225.447C213.946 227.204 216.796 227.204 218.553 225.447L221.381 222.618C223.138 220.86 223.138 218.011 221.382 216.255L142.89 137.763ZM146.427 134.228C142.717 130.518 136.701 130.518 132.992 134.228L130.163 137.057M130.163 137.057C126.453 140.767 126.454 146.781 130.162 150.491L208.654 228.983C212.363 232.692 218.379 232.692 222.088 228.983L224.917 226.154C228.626 222.444 228.627 216.429 224.917 212.719L146.427 134.228" fill="white"/>
<path fill-rule="evenodd" clip-rule="evenodd" d="M255.648 124.893L259.763 127.732C265.214 131.492 272.747 130.94 277.595 126.091L290.323 113.364C291.885 111.801 291.885 109.269 290.323 107.707L250.725 68.1093C249.163 66.5472 246.63 66.5472 245.068 68.1093L232.34 80.8372C227.381 85.7961 226.918 93.5601 230.961 99.0351L234.029 103.189L213.953 123.265L235.615 144.926L255.648 124.893ZM242.24 160.034L197.69 115.488L195.552 113.345C191.889 109.682 186.08 109.464 182.166 112.691L244.634 175.159C247.861 171.245 247.643 165.436 243.98 161.773L242.24 160.034ZM170.115 109.121L175.771 114.778L243.651 182.662L248.605 187.611C250.168 189.174 250.168 191.706 248.605 193.268L241.534 200.339C239.972 201.901 237.44 201.901 235.877 200.339L157.387 121.849C155.825 120.287 155.825 117.754 157.387 116.192L164.458 109.121C166.02 107.559 168.553 107.559 170.115 109.121ZM256.356 132.671C264.148 138.046 274.905 137.267 281.838 130.334L294.566 117.606C298.471 113.701 298.471 107.369 294.566 103.464L254.968 63.8667C251.062 59.9614 244.731 59.9614 240.826 63.8667L228.098 76.5946C221.008 83.6841 220.354 94.7718 226.134 102.599L209.713 119.02L199.795 109.102C193.788 103.095 184.187 102.873 177.914 108.434L174.358 104.878C170.452 100.973 164.121 100.973 160.215 104.878L153.144 111.949C149.239 115.855 149.239 122.186 153.144 126.091L231.635 204.582C235.54 208.487 241.872 208.487 245.777 204.582L252.848 197.511C256.753 193.606 256.753 187.274 252.848 183.369L248.891 179.412C254.452 173.138 254.23 163.537 248.223 157.53L239.86 149.167L256.356 132.671Z" fill="white"/>
</g>
<path d="M465.392 247.5V105.75H514.397C526.074 105.75 535.288 107.775 542.038 111.825C548.788 115.875 553.58 121.174 556.415 127.721C559.318 134.269 560.769 141.255 560.769 148.68C560.769 153.945 559.892 159.075 558.137 164.07C556.382 168.998 553.749 173.486 550.239 177.536C546.729 181.519 542.308 184.793 536.975 187.358C531.71 189.923 525.534 191.475 518.447 192.015H489.489V247.5H465.392ZM533.837 247.5L504.879 189.18L530.597 186.548L560.567 247.5H533.837ZM489.489 169.335H514.802C520.202 169.335 524.454 168.356 527.559 166.399C530.664 164.441 532.858 161.91 534.14 158.805C535.423 155.7 536.064 152.393 536.064 148.883C536.064 145.71 535.457 142.571 534.242 139.466C533.027 136.294 530.867 133.661 527.762 131.569C524.724 129.476 520.404 128.43 514.802 128.43H489.489V169.335Z" fill="#3262DE"/>
<path d="M606.982 249.93C599.759 249.93 593.246 248.648 587.441 246.083C581.703 243.518 577.147 239.704 573.772 234.641C570.397 229.511 568.709 223.133 568.709 215.505C568.709 207.54 570.734 201.06 574.784 196.065C578.834 191.003 583.998 187.29 590.276 184.928C596.621 182.498 603.202 181.283 610.019 181.283C615.284 181.283 619.976 181.755 624.093 182.7C628.211 183.578 632.092 184.928 635.737 186.75V180.675C635.737 176.085 634.927 172.44 633.307 169.74C631.687 166.973 629.324 165.015 626.219 163.868C623.182 162.653 619.537 162.045 615.284 162.045C609.547 162.045 603.843 162.99 598.173 164.88C592.571 166.77 587.339 169.335 582.479 172.575L575.392 153.54C580.387 150.368 586.529 147.6 593.819 145.238C601.109 142.808 608.939 141.593 617.309 141.593C621.899 141.593 626.591 142.065 631.383 143.01C636.243 143.888 640.698 145.676 644.748 148.376C648.866 151.009 652.173 154.924 654.671 160.121C657.168 165.251 658.417 172.035 658.417 180.473V247.5H635.737V239.4C632.902 242.1 629.156 244.53 624.498 246.69C619.908 248.85 614.069 249.93 606.982 249.93ZM611.234 229.478C616.904 229.478 621.731 228.431 625.713 226.339C629.763 224.246 633.104 221.85 635.737 219.15V205.785C632.902 204.368 629.561 203.254 625.713 202.444C621.933 201.566 617.917 201.128 613.664 201.128C607.724 201.128 602.493 202.275 597.971 204.57C593.448 206.798 591.187 210.443 591.187 215.505C591.187 219.623 592.942 222.998 596.452 225.63C599.962 228.195 604.889 229.478 611.234 229.478Z" fill="#3262DE"/>
<path d="M726.905 249.93C716.105 249.93 708.342 247.5 703.617 242.64C698.892 237.713 696.53 230.76 696.53 221.783V164.475H674.862V144.023H696.53V112.433L719.817 101.295V144.023H755.052V164.475H719.817V217.328C719.817 219.893 720.29 222.086 721.235 223.909C722.247 225.664 723.8 227.014 725.892 227.959C728.052 228.836 730.887 229.275 734.397 229.275C737.84 229.275 740.978 228.836 743.813 227.959C746.716 227.014 749.517 225.833 752.217 224.415L749.382 245.273C746.48 246.758 743.206 247.905 739.561 248.715C735.916 249.525 731.697 249.93 726.905 249.93Z" fill="#3262DE"/>
<path d="M809.162 247.5V144.023H832.45V247.5H809.162ZM780.61 247.5V227.048H861.002V247.5H780.61ZM780.61 164.475V144.023H824.35V164.475H780.61ZM820.705 129.645C816.857 129.645 813.584 128.295 810.884 125.595C808.251 122.828 806.935 119.52 806.935 115.673C806.935 111.825 808.251 108.585 810.884 105.953C813.584 103.253 816.857 101.903 820.705 101.903C824.687 101.903 827.995 103.253 830.627 105.953C833.327 108.585 834.677 111.825 834.677 115.673C834.677 119.52 833.327 122.828 830.627 125.595C827.995 128.295 824.687 129.645 820.705 129.645Z" fill="#3262DE"/>
<path d="M906.405 247.5V164.475H884.13V144.023H906.405V129.848C906.405 124.448 907.485 120.026 909.645 116.584C911.805 113.074 914.64 110.374 918.15 108.484C921.728 106.526 925.575 105.176 929.693 104.434C933.878 103.691 937.928 103.32 941.843 103.32C947.108 103.32 951.664 103.725 955.511 104.535C959.359 105.278 963.038 106.56 966.548 108.383V127.62C962.903 126.068 959.46 125.089 956.22 124.684C953.048 124.211 949.943 123.975 946.905 123.975C943.8 123.975 940.931 124.346 938.299 125.089C935.734 125.831 933.641 126.979 932.021 128.531C930.469 130.016 929.693 131.94 929.693 134.303V144.023H964.523V164.475H929.693V247.5H906.405ZM884.13 247.5V227.048H957.233V247.5H884.13Z" fill="#3262DE"/>
<path d="M997.168 286.785L1012.96 245.678L974.285 144.023H997.978L1021.67 207.203C1022.21 208.688 1022.75 210.274 1023.29 211.961C1023.83 213.649 1024.3 215.303 1024.71 216.923C1025.25 215.168 1025.79 213.48 1026.33 211.86C1026.87 210.24 1027.41 208.688 1027.95 207.203L1051.64 144.023H1075.54L1021.27 286.785H997.168Z" fill="#3262DE"/>
</svg>
