<svg xmlns="http://www.w3.org/2000/svg" role="img" viewBox="-1.19 -2.19 529.88 274.38"><defs><style>.cls-1{fill:#fff}</style></defs><path d="M186.121 63.268L103.377 9.474a7.386 7.386 0 00-8.052 0L12.581 63.268a7.386 7.386 0 000 12.385l78.06 50.75V89.5a4.355 4.355 0 00-4.355-4.355h-5.74a4.355 4.355 0 01-3.77-6.532l18.804-32.57a4.355 4.355 0 017.543 0l18.804 32.57a4.355 4.355 0 01-3.771 6.532h-5.74a4.355 4.355 0 00-4.355 4.355v36.9l78.06-50.748a7.386 7.386 0 000-12.385zm-87.92 67.276a7.38 7.38 0 002.3 0 8.92 8.92 0 01-2.3 0zm-2.876 130.438a7.347 7.347 0 002.507 1.017 86.37 86.37 0 00-4.804-2.51zm32.693-103.954l-19.957-12.974v6.149a156.595 156.595 0 0019.957 6.825zm-19.957 4.229v8.632c6.595 2.013 13.267 3.666 19.872 5.294 21.568 5.316 41.94 10.338 58.322 26.721.83.83 1.612 1.679 2.386 2.53a7.394 7.394 0 00-2.521-9.632l-32.412-21.072c-7.866-2.598-15.884-4.582-23.806-6.534-7.468-1.841-14.776-3.68-21.84-5.939zm-17.42-7.079a80.513 80.513 0 01-8.208-4.787l-7.412 4.818a90.18 90.18 0 0015.62 9.155zm24.802 27.477q-3.717-.917-7.382-1.841v8.483q2.711.68 5.413 1.345c21.568 5.316 41.94 10.338 58.323 26.72l.08.086 7.008-4.555c-.428-.448-.829-.905-1.271-1.348-18.004-18.003-40.457-23.538-62.17-28.89zm-24.802-6.893c-9.373-3.21-18.255-7.341-26.36-13.57l-7.257 4.717c10.32 8.512 21.808 13.676 33.617 17.504zm0 18.745c-16.133-4.228-31.304-9.389-44.266-20.674l-7.134 4.638c15.224 14.026 33.334 19.889 51.4 24.533zm17.42 12.863c16.877 4.356 32.747 9.567 46.189 21.538l7.094-4.612c-15.706-14.763-34.556-20.658-53.283-25.417zm-79.359-22.048l-7.041 4.578c.247.254.472.516.725.769 18.004 18.004 40.457 23.539 62.17 28.891 18.804 4.635 36.696 9.051 51.83 20.962l7.216-4.691c-17.05-14.356-37.362-19.4-57.077-24.258-21.352-5.263-41.525-10.255-57.823-26.25zM13.744 198.31a72.03 72.03 0 01-2.354-2.495 7.366 7.366 0 001.193 11.374l24.364 15.84c10.784 4.465 22.062 7.257 33.15 9.99 17.314 4.267 33.852 8.36 48.18 18.277l7.37-4.792c-16.295-12.248-35.197-16.941-53.58-21.473-21.568-5.316-41.94-10.338-58.323-26.72z" class="cls-1"/><path d="M93.028 259.489a86.392 86.392 0 014.804 2.51 7.37 7.37 0 005.546-1.017l4.09-2.66c-13.137-8.786-27.743-13.235-42.298-16.944zM259.755 67.357q-12.41 0-19.996 8.077-7.586 8.08-7.584 22.85v7.289h-15.759v13.198h15.76v81.95h14.774v-81.95h19.306v-13.198H246.95v-7.288q0-9.059 3.842-13.888 3.84-4.826 11.13-4.827a15.31 15.31 0 014.826.69 17.195 17.195 0 013.644 1.674l3.743-11.228a19.297 19.297 0 00-6.5-2.562 38.393 38.393 0 00-7.88-.787zm30.251 1.969h14.775V200.72h-14.775zm105.629 106.18a36.192 36.192 0 01-11.82 10.047 32.756 32.756 0 01-16.35 4.333 35.625 35.625 0 01-8.668-.984 15.675 15.675 0 01-6.796-3.546 16.021 16.021 0 01-4.334-6.698 31.436 31.436 0 01-1.477-10.441v-62.644h-14.775v67.175q0 15.565 7.683 22.949 7.683 7.387 22.654 7.387a40.802 40.802 0 0019.503-4.727 50.227 50.227 0 0014.38-11.032v13.396h14.774v-95.148h-14.774zm86.479-23.64l34.474-46.293h-17.139l-26.397 36.247-26.397-36.247h-17.138l34.474 46.293-36.444 48.855h16.942l28.563-39.005 28.565 39.005h17.138l-36.641-48.855z" class="cls-1"/></svg>