<?xml version="1.0" encoding="utf-8"?>
<!-- Generator: Adobe Illustrator 25.2.3, SVG Export Plug-In . SVG Version: 6.00 Build 0)  -->
<svg version="1.1" id="图层_1" xmlns="http://www.w3.org/2000/svg" xmlns:xlink="http://www.w3.org/1999/xlink" x="0px" y="0px"
	 viewBox="0 0 567.8 130.4" style="enable-background:new 0 0 567.8 130.4;" xml:space="preserve">
<path d="M154.4,37.6v55.2h-10V37.6H154.4z"/>
<path d="M208,37.6v55.2h-9.5l-23.2-35.4v35.4h-10V37.6h9.5L198.1,73V37.6H208z"/>
<path d="M269.5,52.2H258c-1.2-2.2-3-4-5.3-5c-2.5-1-5.3-1.5-8-1.4c-4.7-0.2-9.2,1.6-12.5,4.9c-3.2,3.3-4.9,8.1-4.9,14.5
	s1.6,11.3,4.9,14.5c3.3,3.3,7.8,5.1,12.5,4.9c2.7,0.1,5.5-0.4,8-1.5c2.2-1,4.1-2.7,5.2-4.9h11.6c-1.3,4.9-4.6,9.1-9,11.6
	c-4.4,2.5-9.8,3.8-16.2,3.8c-4.9,0.1-9.8-0.9-14.3-3c-4.2-2-7.6-5.3-9.8-9.4c-2.4-4.3-3.6-9.6-3.6-15.9c0-6.4,1.2-11.7,3.6-15.9
	c2.2-4.1,5.6-7.4,9.8-9.4c4.5-2.1,9.4-3.2,14.3-3.1C257.9,36.8,266.3,41.9,269.5,52.2z"/>
<path d="M286.5,37.6v46.6h22.1v8.7h-32V37.6H286.5z"/>
<path d="M340.7,37.6l19.1,55.2h-10.6l-3.5-10.7h-19.7l-3.5,10.7h-10.6l19.1-55.2L340.7,37.6z M328.8,73.4h13.9l-7-20.8L328.8,73.4z"
	/>
<path d="M407,37.6l-18.6,55.2h-8.7l-18.6-55.2h10.6l12.3,37.9l12.3-37.9H407z"/>
<path d="M437.3,37.6l19.1,55.2h-10.6l-3.5-10.7h-19.7L419,92.8h-10.6l19.1-55.2L437.3,37.6z M425.4,73.4h13.9l-6.9-20.8L425.4,73.4z
	"/>
<path d="M504.5,42.2c3.1,2.9,4.7,7.3,4.7,13.2c0,5.5-1.4,9.7-4.2,12.6c-3,3-7,4.8-11.2,5l14,19.9h-12.2l-18.9-28.7h14.4
	c2.1,0.1,4-0.8,5.4-2.3c1.5-1.8,2.2-4.1,2.1-6.5c0.1-2.3-0.6-4.7-2.1-6.5c-1.4-1.5-3.4-2.3-5.4-2.3h-18.5v46.2h-9.9V37.6H492
	C497.2,37.8,501.3,39.3,504.5,42.2z"/>
<path d="M553.9,37.6v8.7h-26.8v14.6h22.1v8.7h-22.1v14.6h26.8v8.7h-36.8V37.6H553.9z"/>
<path d="M96.9,63.2h17.8v-33L64.3,8.5L13.9,30.2v47.6c0,9.3,4.9,17.9,13,22.5l37.4,21.6l37.4-21.6c8.1-4.6,13-13.2,13-22.5v-2.1
	L96.9,63.2v9.3c0,5.9-3.1,11.4-8.3,14.3l-24.3,14l-24.3-14c-5.1-2.9-8.3-8.4-8.3-14.3V41.6l32.6-13l32.2,12.9L64.3,63.2H96.9z"/>
</svg>
