<?xml version="1.0" encoding="UTF-8"?><svg id="Layer_1" xmlns="http://www.w3.org/2000/svg" xmlns:xlink="http://www.w3.org/1999/xlink" viewBox="0 0 400 245"><defs><style>.cls-1{fill:none;}.cls-2{fill-rule:evenodd;}.cls-2,.cls-3{fill:#2ba8e0;}.cls-4{clip-path:url(#clippath-1);}.cls-5{opacity:.8;}.cls-6{clip-path:url(#clippath);}</style><clipPath id="clippath"><rect class="cls-1" x="244.27504" y="41.741" width="76.60057" height="76.59913"/></clipPath><clipPath id="clippath-1"><rect class="cls-1" x="148.67191" y="33.21876" width=".68609" height="133.80456"/></clipPath></defs><path class="cls-3" d="M108.51089,147.5305c.68609-.19626,1.56839-.39244,2.74289-.58721,1.17596-.19626,2.25304-.29514,3.429-.29514.97969,0,2.05682.09887,3.03651.48991.78348.29505,1.37073.78348,1.86058,1.37218.48985.58721.7835,1.37069.97972,2.05678.19622.88086.29361,1.76321.29361,2.74286v8.12989h-4.01621v-7.73885c.09883-.97965-.09739-1.8606-.48987-2.74286-.29361-.48843-.97825-.78348-1.95799-.78348-.29361,0-.58866,0-.88231.09879-.29361,0-.58724.09739-.88086.09739v11.06902h-4.11506v-13.90927ZM101.06711,154.19083c0-1.07713-.19622-2.05686-.68609-2.93773-.97969-1.17591-2.64406-1.37218-3.91738-.48983-.19624.09739-.29363.29356-.48987.48983-.58868.88086-.88231,1.95799-.78348,2.93773,0,1.07852.1948,2.15556.78348,3.03651.88089,1.17591,2.54667,1.46956,3.7226.58861.1948-.19617.48843-.39244.58726-.58861.48987-.88095.78348-1.95799.78348-3.03651M105.18075,154.19083c0,1.07852-.09741,2.05678-.48987,3.1353-.29361.88086-.78348,1.76321-1.46956,2.44782-1.27332,1.46956-3.23131,2.15565-5.09333,2.05826-.97969,0-1.95797-.19617-2.93768-.48983-.88231-.39244-1.56839-.88235-2.25304-1.56844-.68609-.6846-1.17593-1.56695-1.46956-2.44782-.68609-1.95939-.68609-4.21243,0-6.1719.29363-.88086.78348-1.66434,1.46956-2.35043.58726-.68609,1.37073-1.17591,2.25304-1.46956.88089-.39095,1.8606-.58721,2.8403-.48983.97972,0,1.95941.19626,2.8403.48983.78348.39252,1.56695.88235,2.25304,1.46956.58726.68609,1.0771,1.46956,1.46956,2.35043.39102.97974.58726,1.95948.58726,3.0366M83.04422,161.8322c-3.13537,0-5.48579-.88226-7.05275-2.54809-1.6658-1.66434-2.44928-4.11364-2.44928-7.34633,0-1.46816.19624-2.84034.68609-4.21103.88089-2.35191,2.74147-4.21251,5.09333-4.99599,1.27332-.48983,2.54667-.68609,3.9174-.68609.68609,0,1.46956.09887,2.15565.19626.68607.09739,1.27332.29365,1.66434.39244.39246.09739.88231.29365,1.27334.48843.29505.09887.48985.19626.68609.39244l-1.27334,3.42904c-.68609-.39252-1.37073-.5887-2.05682-.78496-.88086-.19478-1.76317-.29365-2.64406-.29365-.68609,0-1.27477.09887-1.86202.29365-.58726.19626-1.17593.5887-1.66436,1.07852-.48985.5873-.88231,1.17451-1.17593,1.8606-.29363.88235-.48985,1.8606-.48985,2.74286,0,.78348.09739,1.66583.29363,2.4493.19622.68469.48985,1.37078.88231,1.95799.48985.5887,1.0771.97974,1.66436,1.2733.78348.29505,1.66578.48991,2.54667.48991.58868,0,1.07852-.09739,1.66578-.09739.48987,0,.88089-.09748,1.27334-.29365.29361-.09887.68609-.19626.97969-.29365.29363-.09879.48987-.29365.78348-.29365l1.17596,3.42755c-.78492.48991-1.6658.78348-2.54811.97974-1.0771.29365-2.25162.39244-3.52494.39244M66.78308,152.82005c0-.29365-.09741-.68609-.19624-.97974-.09739-.29356-.29363-.58721-.48985-.88226-.1948-.29365-.48985-.48843-.78348-.68469-.39102-.19617-.7835-.29356-1.17451-.29356-.39246,0-.78348.09739-1.17593.29356-.29363.09739-.58726.29365-.78348.5873-.19622.29356-.39246.58721-.48985.88226-.09741.29365-.19624.68469-.29363,1.07713h5.38696ZM57.18364,154.28961c0-1.17591.19624-2.25304.58726-3.33156.29507-.88086.88231-1.66434,1.56839-2.35043.58726-.5873,1.37073-1.07713,2.15421-1.46956.78348-.29365,1.6658-.48991,2.54667-.48991,1.76319-.09739,3.62521.5887,4.89854,1.86209,1.17451,1.2733,1.76319,3.1339,1.76319,5.48573v.78348c0,.29365-.09883.48991-.09883.68469h-9.30578c0,.78348.48985,1.56835,1.17593,1.95939.78348.48991,1.76319.78348,2.74289.68609.68609,0,1.46956-.09879,2.15421-.19617.5887-.09748,1.17596-.29365,1.76319-.48991l.48985,3.33016c-.29361.09887-.58724.19626-.88086.29365-.39246.09879-.78348.19617-1.27334.29505-.48985.09739-.88231.09739-1.46956.19478-.48985.09887-.97969.09887-1.46956.09887-1.17449,0-2.25304-.19626-3.33014-.5887-.88231-.29365-1.66578-.88086-2.35043-1.56695-.68609-.68469-1.17593-1.46956-1.37218-2.35043-.09739-.88235-.29363-1.8606-.29363-2.84034M54.53959,154.28961c0,1.07713-.19624,2.05678-.48985,3.1339-.29507.88235-.78348,1.66583-1.46956,2.35043-.68609.68609-1.46956,1.176-2.35045,1.46956-.97972.39252-2.05824.48991-3.13535.48991-.48985,0-1.0771,0-1.56697-.09739l-1.56695-.19626c-.48985-.09739-.97972-.09739-1.46956-.29365-.48985-.09879-.88231-.19617-1.27332-.29356v-20.08118l4.01623-.5873v7.15016c.48985-.19617.97969-.39095,1.46956-.48983.4884-.09739,1.07708-.19626,1.56695-.09739.88086,0,1.86058.19626,2.74289.48983.7835.29365,1.46814.88086,1.95799,1.46956.58868.68469.97972,1.46816,1.17593,2.35043.29363,1.07713.39246,2.15425.39246,3.23278M50.42453,154.09335c0-2.64548-.97972-3.91878-2.93768-3.91878-.39246,0-.88231.09879-1.27334.09879-.29505.09739-.68609.19626-.97969.39104v7.4452c.29361.09739.48985.09739.78348.09739s.68609.09887.97969.09887c.97972.09739,1.8606-.39244,2.54667-1.07852.58726-.97974.88089-2.05686.88089-3.13399M37.10393,160.94994c-.68607.19617-1.56839.39244-2.74289.58721-1.17593.19626-2.25304.29505-3.42897.29505-1.0771,0-2.05682-.09879-3.03654-.48983-.78348-.29505-1.37073-.78348-1.86058-1.37218-.48985-.58721-.78348-1.37069-.97972-2.05678-.19622-.88095-.29361-1.76321-.29361-2.74295v-8.03242h4.01621v7.54259c-.09883.97974.09741,1.95939.48843,2.84025.29507.5887.97972.88235,1.95943.88235.29361,0,.58868,0,.88231-.09739.29361,0,.58724-.09887.88086-.09887v-11.06893h4.11506v13.81188ZM18.29612,161.43977c-.39246-.58721-.88089-1.2733-1.37073-2.05678s-1.07855-1.46956-1.66578-2.15565c-.58726-.68469-1.27334-1.37078-1.8606-2.05686-.58868-.58721-1.27332-1.17591-1.95941-1.76313v8.03242h-4.40869v-18.90517h4.30986v7.15016c1.07855-1.17451,2.25304-2.35051,3.33159-3.7212,1.0771-1.27339,2.15421-2.4493,3.13392-3.52643h5.09333c-1.27334,1.46956-2.54667,3.0366-3.9174,4.40729-1.27334,1.46956-2.74291,2.84034-4.11506,4.30982,1.56839,1.37218,3.03651,2.84034,4.40869,4.50617,1.46956,1.86051,2.8403,3.7226,4.11362,5.68199h-5.09333v.09739Z"/><path class="cls-2" d="M52.48277,77.78805l-2.35187.5873c0-.29365-.09741-.68609-.09741-.97974,0-2.54669.68609-4.9959,1.95943-7.05277l4.60347,4.11364c.09741.09879.19624.19626.29363.19626-.29363.68609-.48985,1.46956-.48985,2.15565-.09739.09739-.29363.09739-.48985.09739l-3.42755.88226ZM61.39611,63.87738v6.46547c-.68609.19626-1.27334.48983-1.76319.88235-.19624-.09887-.39246-.29505-.58726-.48991l-4.70232-3.33156c1.95943-1.8606,4.40727-3.1339,7.05277-3.52634M29.46249,78.7663c2.25304-9.79414,4.11508-18.1203,6.36812-27.91593.97825-4.40869,1.66434-5.5832,5.68057-7.93503,5.48579-3.23129,9.69682-5.48433,15.57508-8.91337,3.72116-2.05678,4.40725-1.95939,4.40725,2.54669v22.72525c-4.11362.48983-7.93363,2.44921-10.77393,5.48573l-1.95941-1.37218c-.19624-.09739-.39246-.39095-.48985-.6846-.19624-.5887-.5887-1.17591-1.07713-1.56695-.88231-.78496-2.25304-.5887-3.03651.29356-.78492.88095-.58868,2.25313.29363,3.0366.29363.29356.68467.48983,1.0771.48983.29363.09739.48987.09739.78348.09739.19624,0,.39246.09739.58726.29365l1.86202,1.66574c-2.05682,3.03651-3.13535,6.56294-3.13535,10.08928,0,.68609.09883,1.27339.09883,1.95948l-4.01623.88086c-.29363,0-.5887,0-.88231.09739l-.48987.29505c-2.64406.48983-5.28955,1.07713-7.93363,1.66434-3.62377.88235-3.81999.09887-2.93913-3.23278M66.09699,70.34285v-6.46547c2.6455.48983,5.09476,1.66574,7.05275,3.52634l-5.09333,3.62521q-.09739.09739-.19622.09739c-.48843-.29365-1.07713-.58721-1.76319-.78348M77.45959,77.88544l-6.26785-1.46956c-.09883-.68609-.19622-1.37069-.48985-1.95939q.09739-.09739.1948-.09739l4.70232-4.11364c1.37215,2.15425,2.0568,4.60347,2.0568,7.15016-.19622.09739-.29363.29365-.19622.48983M69.23233,43.1116c3.42755,1.66574,5.87681,2.84025,9.30578,4.50608,4.7009,2.25304,9.5006,4.60347,14.30031,6.8565,1.17593,5.09329,2.35187,10.28546,3.52638,15.37883.68607,3.1339,1.07852,4.70225,1.76317,7.73885,1.07855,4.79964.97972,5.19068-3.9174,4.11355l-12.14608-2.74286c.09739-.48983.09739-1.07713.09739-1.56695,0-3.62382-1.0771-7.24894-3.1339-10.18667l1.66436-1.56844c.19622-.19478.48985-.29356.68607-.29356.68609,0,1.27334-.29365,1.76319-.68469.88089-.78487,1.0771-2.05826.29363-3.03651-.78348-.88226-2.05682-1.07852-3.03651-.29505-.29363.19626-.58726.5887-.78348.88235-.09741.29356-.19624.48983-.29363.686-.09883.19486-.19624.39104-.39246.48843l-1.95799,1.37218c-2.84172-3.03651-6.66173-4.89851-10.77535-5.48573v-13.90927c-.09883-3.23278.19622-3.62382,3.03651-2.25304M65.01989,84.54577c-.39104.09879-.78348.09879-1.27334.09879-.39102,0-.78348,0-1.17593-.09879l-.1948.39244-2.93913,5.28955c1.37218.48991,2.8403.68609,4.30986.68609s2.93913-.29505,4.40869-.68609l-2.93913-5.28955c0-.09879-.09739-.19626-.19622-.39244M70.11322,81.01934l6.26927,1.46956c-1.0771,2.54669-2.8403,4.70234-5.09333,6.26929l-2.54667-6.07303c.58726-.48983.97969-1.07713,1.37073-1.66583M51.11061,82.39152l6.26927-1.46956c.39102.5873.88086,1.176,1.37073,1.66583l-.1948.39104-2.25304,5.68199c-2.35187-1.46956-4.11506-3.62521-5.19217-6.26929M102.8303,93.55792c-3.03651,3.7226-4.40725,5.48582-7.44378,9.30581-3.42897,4.30982-6.17186,7.73885-9.60083,12.04867-2.44784,3.1339-4.21103,3.1339-8.22726,3.1339h-27.62377c-5.28955,0-5.68057,0-8.91332-4.11364-3.23275-4.01617-5.68059-7.15155-8.91332-11.16781-2.54669-3.1339-3.13537-3.91738-5.68203-7.05128-3.9174-4.89851-4.50608-6.66173,1.46956-7.93503l18.70898-4.21251c1.46956,3.91886,4.21247,7.24903,7.83624,9.50207l-.88089,1.95939c-.09883.29365-.29363.48983-.48985.58721-.58726.29365-1.0771.78348-1.27334,1.37218-.48985,1.07713-.09883,2.35043.97972,2.93773,1.0771.48983,2.35043.09879,2.93768-.97974.19624-.39104.29363-.78348.29363-1.17451,0-.29356,0-.48983-.09739-.78348,0-.19617,0-.48983.09739-.68609l1.07855-1.86051c2.05682.78348,4.30986,1.17443,6.46407,1.17443,2.25304,0,4.50608-.39095,6.5629-1.2733l1.07852,1.8606c.09741.19617.1948.48983.09741.78487-.09741.5873,0,1.27339.29363,1.8606.48985,1.07713,1.862,1.46956,2.93913.97974,1.0771-.48991,1.46954-1.862.97969-2.93913-.19622-.39104-.39246-.68609-.68609-.97974-.19622-.19478-.39244-.29365-.68607-.48983-.1948-.09739-.29363-.29365-.39104-.48991l-.88231-2.05678c3.62521-2.15416,6.36668-5.48433,7.73883-9.50058l20.56958,4.70085c4.30984.97974,4.01623,2.4493,1.66578,5.48582"/><path class="cls-2" d="M66.09699,70.34285v-6.46547c2.6455.48983,5.09476,1.66574,7.05275,3.52634l-5.09333,3.62521q-.09739.09739-.19622.09739c-.48843-.29365-1.07713-.58721-1.76319-.78348M77.45959,77.88544l-6.26785-1.46956c-.09883-.68609-.19622-1.37069-.48985-1.95939q.09739-.09739.1948-.09739l4.70232-4.11364c1.37215,2.15425,2.0568,4.60347,2.0568,7.15016-.19622.09739-.29363.29365-.19622.48983M69.23233,43.1116c3.42755,1.66574,5.87681,2.84025,9.30578,4.50608,4.7009,2.25304,9.5006,4.60347,14.30031,6.8565,1.17593,5.09329,2.35187,10.28546,3.52638,15.37883.68607,3.1339,1.07852,4.70225,1.76317,7.73885,1.07855,4.79964.97972,5.19068-3.9174,4.11355l-12.14608-2.74286c.09739-.48983.09739-1.07713.09739-1.56695,0-3.62382-1.0771-7.24894-3.1339-10.18667l1.66436-1.56844c.19622-.19478.48985-.29356.68607-.29356.68609,0,1.27334-.29365,1.76319-.68469.88089-.78487,1.0771-2.05826.29363-3.03651-.78348-.88226-2.05682-1.07852-3.03651-.29505-.29363.19626-.58726.5887-.78348.88235-.09741.29356-.19624.48983-.29363.686-.09883.19486-.19624.39104-.39246.48843l-1.95799,1.37218c-2.84172-3.03651-6.66173-4.89851-10.77535-5.48573v-13.90927c-.09883-3.23278.19622-3.62382,3.03651-2.25304M70.11322,81.01934l6.26927,1.46956c-1.0771,2.54669-2.8403,4.70234-5.09333,6.26929l-2.54667-6.07303c.58726-.48983.97969-1.07713,1.37073-1.66583M63.74654,90.91385v-6.26929c.39246,0,.88231-.09879,1.27334-.09879.09883.19617.19622.29365.29361.48983l2.93913,5.28955c-1.56695.39252-3.03651.5887-4.50608.5887M102.8303,93.55792c-3.03651,3.7226-4.40725,5.48582-7.44378,9.30581-3.42897,4.30982-6.17186,7.73885-9.60083,12.04867-2.44784,3.1339-4.21103,3.1339-8.22726,3.1339h-13.71305v-22.52899c2.25162,0,4.50466-.39244,6.5629-1.2733l1.0771,1.8606c.09741.19617.19624.48983.09741.78348-.09741.5887,0,1.2733.29361,1.862.48987,1.07713,1.86202,1.46816,2.93913.97825,1.07713-.48843,1.46956-1.8606.97972-2.84025-.19622-.39104-.39246-.68609-.68609-.97974-.19622-.19478-.39102-.29365-.68607-.48983-.1948-.09739-.29363-.29365-.39104-.48991l-.88231-2.05678c3.62521-2.15416,6.3681-5.48433,7.73883-9.50058l20.571,4.70085c4.01479.97974,3.72118,2.4493,1.37073,5.48582"/><path class="cls-3" d="M255.34375,92.77401h-10.87276v25.46812h25.46812v-10.87276h-14.49653c-.09883,0-.09883-14.59536-.09883-14.59536M310.00259,92.77401v14.49797h-14.49797l-.09739-.09887v11.06902h25.46812v-25.46812h-10.87276ZM244.37361,67.20851h10.97015l-.09739-.09739v-14.49797h14.49653l.09883.09739v-10.97015h-25.46812v25.46812ZM295.40723,41.74039v10.87276h14.59536v14.59536h10.87276v-25.46812h-25.46812Z"/><g class="cls-5"><g class="cls-6"><path class="cls-3" d="M294.03606,67.20903l-14.59536-14.59536h15.8687v-10.87276h-25.46812v11.06893l14.49653,14.49657c.09883-.09739,9.69824-.09739,9.69824-.09739M280.91026,92.77453h-9.69824l12.1475,12.14606,2.54669,2.54669h-15.96753v10.87276h25.46812v-11.06902l-7.24754-7.24754-7.24899-7.24894ZM310.00215,67.20903v15.86717l-2.54669-2.5466-12.14606-12.04727v9.69684l7.34637,7.24894,7.24899,7.24754h10.97015v-25.46663h-10.87276ZM269.84129,81.70552l-14.49653-14.49649h-11.06898v25.46663h10.97015v-15.86726l14.49797,14.49657v-9.59946h.09739Z"/></g></g><path class="cls-3" d="M190.98869,146.06163l-2.74286,3.33016c-1.17596-1.46956-2.84034-2.35043-4.70234-2.44921-2.93768,0-5.28955,2.35043-5.28955,5.28955v.19617c0,3.1339,2.25304,5.48582,5.28955,5.48582,1.76321-.09879,3.52638-.88235,4.70234-2.25304l2.84025,2.93773c-2.05678,2.05678-4.79968,3.33008-7.73737,3.42895-5.68203,0-9.89451-4.11364-9.89451-9.69684,0-5.48582,4.3099-9.50198,10.08928-9.50198,2.84174.09739,5.48582,1.2733,7.4452,3.23269M193.33911,141.94659h4.70234v19.88491h-4.70234v-19.88491ZM216.4568,154.58256c0,4.50608-3.13535,7.4452-7.93503,7.4452s-7.93363-2.93913-7.93363-7.4452c0-4.50468,3.1339-7.34642,7.93363-7.34642s7.93503,2.93913,7.93503,7.34642M205.29044,154.68135c0,2.25304,1.27334,3.7226,3.23133,3.7226,1.862,0,3.23273-1.46956,3.23273-3.7226s-1.27334-3.7226-3.23273-3.7226c-1.8606,0-3.23133,1.46956-3.23133,3.7226M233.10898,161.83151h-4.7023v-2.35043c-.97974,1.66434-2.8403,2.64408-4.7009,2.54669-3.13535,0-5.19217-2.15565-5.19217-5.48582v-9.10954h4.7023v7.83624c0,1.66574.88091,2.74286,2.44786,2.74286,1.76317,0,2.84169-1.46956,2.84169-3.42895v-7.15016h4.7009l-.09739,14.3991ZM251.4255,161.83151h-4.70085v-1.8606c-1.07857,1.37078-2.64552,2.15425-4.30986,2.05686-4.11508,0-6.75916-3.03651-6.75916-7.54259,0-4.40729,2.64408-7.34642,6.66033-7.34642,1.76317-.09739,3.42895.68609,4.50608,2.05686v-7.34642h4.7023v19.9823h-.09883ZM246.72465,154.68135c0-2.25304-1.27334-3.7226-3.23278-3.7226-1.8606,0-3.23273,1.46956-3.23273,3.7226s1.27334,3.81999,3.23273,3.81999c1.95943-.09739,3.23278-1.56695,3.23278-3.81999M268.37129,161.83151l-8.71711-11.55884v11.55884h-4.50608v-18.80639h4.21247l8.71711,11.65623v-11.65623h4.50608v18.80639h-4.21247ZM289.23594,152.33092v9.50058h-4.50608v-1.66434c-.88086,1.2733-2.54669,1.8606-4.40729,1.8606-3.1353,0-4.9959-1.8606-4.9959-4.50608,0-2.74295,1.95939-4.3099,5.5832-4.40729h3.81999v-.19617c0-1.46956-.88086-2.25304-2.8403-2.25304-1.46956.09739-3.03656.48983-4.30986,1.17591l-1.27334-3.13539c2.05682-1.07713,4.40725-1.66434,6.66029-1.66434,3.91886.09739,6.26929,2.05678,6.26929,5.28955M284.63247,156.93439v-1.2733h-2.93913c-1.37078,0-2.05682.48983-2.05682,1.56695s.68604,1.66434,2.05682,1.66434c1.2733.09887,2.54665-.6846,2.93913-1.95799M301.77448,161.14542c-1.17596.68609-2.54665.97974-3.91882.97974-2.8403,0-4.79973-1.56695-4.79973-4.60347v-6.36668h-2.05682v-3.03651h2.05682v-4.01625h4.60491v4.01625h3.82003v3.1339h-3.82003v5.68199c0,1.07713.48843,1.66443,1.27334,1.56695.58726-.09739,1.17451-.19617,1.76317-.48983l1.07713,3.1339ZM308.8272,143.21998c.09743,1.37209-.97969,2.44921-2.35183,2.44921h-.09743c-1.37073,0-2.44926-1.17591-2.44926-2.54669,0-1.37069,1.07852-2.44921,2.44926-2.44921,1.27334-.09739,2.35047.88226,2.44926,2.15565v.39104ZM304.02752,147.33502h4.60347v14.49649h-4.60347v-14.49649ZM315.87997,161.83151l-5.48577-14.49649h4.79968l3.13395,10.28406,3.13535-10.28406h4.60347l-5.48577,14.49649h-4.7009ZM341.44547,155.85586h-10.18667c.29365,1.56844,1.76321,2.74295,3.42755,2.74295,1.27334,0,2.54669-.5873,3.52638-1.46816l2.44926,2.35043c-1.66578,1.76321-3.91882,2.64408-6.26929,2.54669-4.7023,0-7.73881-2.93913-7.73881-7.34642,0-4.50608,3.13535-7.4452,7.54259-7.4452,4.99595,0,7.54264,3.33016,7.24899,8.61972M337.03822,153.30917c.09739-1.46808-.97969-2.84025-2.44926-2.93764h-.29365c-1.66578,0-2.74286,1.17451-3.03651,2.93764h5.77942ZM360.44808,146.06163l-2.74291,3.33016c-1.17447-1.46956-2.84025-2.35043-4.70085-2.44921-2.93913,0-5.28955,2.35043-5.28955,5.28955v.19617c0,3.1339,2.25304,5.48582,5.28955,5.48582,1.76317-.09879,3.52638-.88235,4.70085-2.25304l2.84174,2.93773c-2.05822,2.05678-4.79968,3.33008-7.73881,3.42895-5.68059,0-9.89306-4.11364-9.89306-9.69684,0-5.48582,4.30986-9.50198,10.08928-9.50198,2.74291.09739,5.38694,1.2733,7.44376,3.23269M376.61039,154.58256c0,4.50608-3.1339,7.4452-7.93363,7.4452-4.7023,0-7.93503-2.93913-7.93503-7.4452,0-4.50468,3.13535-7.34642,7.93503-7.34642s7.93363,2.93913,7.93363,7.34642M365.54141,154.68135c0,2.25304,1.27334,3.7226,3.23278,3.7226,1.862,0,3.23273-1.46956,3.23273-3.7226s-1.27334-3.7226-3.23273-3.7226-3.23278,1.46956-3.23278,3.7226M393.94866,152.72196v9.10954h-4.60347v-7.83624c0-1.66434-.97974-2.74286-2.54669-2.74286-1.66578,0-2.74291,1.17591-2.93913,2.93913v7.73737h-4.7023v-14.49649h4.7023v2.35043c.97974-1.66434,2.93913-2.64408,4.89712-2.54669,3.03651-.09739,5.19217,2.05686,5.19217,5.48582"/><rect class="cls-3" x="148.67191" y="33.21867" width=".68609" height="133.80465"/><rect class="cls-3" x="148.67191" y="33.21867" width=".68609" height="133.80465"/><rect class="cls-3" x="148.67191" y="33.21867" width=".68609" height="133.80465"/><rect class="cls-3" x="148.67191" y="33.21867" width=".68609" height="133.80465"/><rect class="cls-3" x="148.67191" y="33.21867" width=".68609" height="133.80465"/><g class="cls-4"><rect class="cls-3" x="148.67191" y="33.21867" width=".68609" height="133.80465"/></g><rect class="cls-3" x="269.93937" y="190.53196" width="124.00898" height=".48983"/><rect class="cls-3" x="6.05134" y="190.53196" width="123.02926" height=".48983"/><path class="cls-3" d="M134.86116,194.64613l2.74291-2.64408c.39099.78348,1.2733,1.27339,1.95939,1.27339.9783,0,1.76321-.68609,1.76321-1.76321v-9.50207h4.21103v9.99189c0,2.93773-2.25304,5.09338-5.38699,5.09338-2.05682.09739-4.21243-.97974-5.28955-2.4493"/><path class="cls-3" d="M158.46811,190.33631v6.56285h-4.01621v-.78348c-.78348.68609-1.76317,1.07713-2.8403,1.07713-2.35187,0-4.21247-1.46956-4.21247-3.52634,0-2.15425,2.05682-3.7226,4.79973-3.7226.68609,0,1.56695.19617,2.35043.48983v-.09739c0-.97974-.88086-1.56695-2.25304-1.56695-.97825,0-1.86056.19478-2.64408.58721l-1.2733-2.64408c1.56695-.78487,3.23273-1.2733,5.09333-1.2733,2.64548.09739,4.9959,1.8606,4.9959,4.89712M154.4519,193.37283v-.58721c-.48987-.29514-1.07713-.39252-1.76317-.39252-.78352,0-1.37073.48991-1.37073,1.07713,0,.5887.58721.97974,1.2733.97974.9783,0,1.76321-.39104,1.8606-1.07713"/><path class="cls-3" d="M173.55347,191.3157c0,3.42895-2.15565,5.87685-5.09478,5.87685-1.46812,0-2.64403-.5873-3.52634-1.56704v4.99599h-4.11364v-14.88901h4.11364v1.27339c.88231-.97974,2.15561-1.56704,3.52634-1.56704,3.03656.09748,5.09478,2.4479,5.09478,5.87685M169.63465,191.3157c0-1.37069-.97969-2.35043-2.44926-2.35043-1.27334,0-2.25304.97974-2.25304,2.35043s.88231,2.35043,2.25304,2.35043c1.37213,0,2.44926-.97974,2.44926-2.35043"/><path class="cls-3" d="M185.79766,190.33631v6.56285h-4.01621v-.78348c-.78492.68609-1.76321,1.07713-2.84174,1.07713-2.35043,0-4.21103-1.46956-4.21103-3.52634,0-2.15425,2.05682-3.7226,4.79973-3.7226.68465,0,1.56695.19617,2.35043.48983v-.09739c0-.97974-.88231-1.56695-2.25304-1.56695-.97969,0-1.8606.19478-2.64408.58721l-1.27334-2.64408c1.567-.78487,3.23133-1.2733,5.09333-1.2733,2.64408.09739,4.99595,1.8606,4.99595,4.89712M181.87884,193.37283v-.58721c-.48987-.29514-1.07713-.39252-1.76317-.39252-.78352,0-1.37073.48991-1.37073,1.07713,0,.5887.58721.97974,1.2733.97974.97974,0,1.76321-.39104,1.8606-1.07713"/><path class="cls-3" d="M199.51058,189.84649v7.05277h-3.91882v-6.07303c0-1.07713-.68465-1.8606-1.66438-1.8606-.88231,0-1.56695.6846-1.56695,1.66434v6.26929h-4.11504v-11.16641h4.11504v1.07713c.68465-.88235,1.76321-1.37078,3.13395-1.37078,2.35043.09748,4.01621,1.8606,4.01621,4.40729"/><path class="cls-3" d="M207.34678,193.47083l5.48577-3.91886c1.567-1.07704,1.95799-1.76173,1.95799-2.5466,0-.78348-.68465-1.37078-1.66434-1.37078-1.27334,0-2.25304.5873-3.429,1.76321l-2.54665-2.64548c1.66578-1.95799,3.62521-2.93773,6.07303-2.93773,3.52638,0,5.87825,2.15425,5.87825,4.9959,0,1.95799-.78492,3.42755-3.429,5.09338l-1.95939,1.2733h5.48577v3.7226h-11.85245v-3.42895Z"/><path class="cls-3" d="M221.06101,189.45475c0-4.50608,2.8403-7.63998,6.95389-7.63998s6.95538,3.1339,6.95538,7.63998-2.84174,7.63998-6.95538,7.63998-6.95389-3.1339-6.95389-7.63998M230.75781,189.45475c0-2.25304-1.07713-3.81999-2.64408-3.81999-1.56839,0-2.64548,1.56695-2.64548,3.81999s1.07708,3.91886,2.64548,3.91886c1.56695,0,2.64408-1.66583,2.64408-3.91886"/><path class="cls-3" d="M236.92884,193.47083l5.48577-3.91886c1.567-1.07704,1.95799-1.76173,1.95799-2.5466,0-.78348-.68465-1.37078-1.66434-1.37078-1.27334,0-2.25304.5873-3.429,1.76321l-2.54665-2.64548c1.66578-1.95799,3.62521-2.93773,6.07303-2.93773,3.52638,0,5.87825,2.15425,5.87825,4.9959,0,1.95799-.78492,3.42755-3.429,5.09338l-1.95939,1.2733h5.48577v3.7226h-11.85245v-3.42895Z"/><path class="cls-3" d="M250.34851,194.94004l2.35043-2.93913c1.07857.88235,2.4493,1.56844,3.7226,1.56844,1.46956,0,2.15565-.68609,2.15565-1.56844,0-.88086-.78492-1.46816-2.05822-1.46816-.9783,0-1.8606.29365-2.54669.88095l-2.74291-1.07713.19626-8.22868h10.57911v3.7226h-6.75912l-.09739,2.15416c.68604-.48983,1.56695-.78348,2.74286-.78348,2.54669,0,4.89712,1.66583,4.89712,4.70234,0,3.23278-2.44782,5.28955-6.26925,5.28955-2.74147,0-4.7009-.88235-6.17046-2.25304"/></svg>