<?xml version="1.0" encoding="utf-8"?>
<!-- Generator: Adobe Illustrator 21.1.0, SVG Export Plug-In . SVG Version: 6.00 Build 0)  -->
<svg version="1.1" id="Layer_1" xmlns="http://www.w3.org/2000/svg" xmlns:xlink="http://www.w3.org/1999/xlink" x="0px" y="0px"
	 viewBox="0 0 432 432" style="enable-background:new 0 0 432 432;" xml:space="preserve">
<style type="text/css">
	.st0{fill:url(#SVGID_1_);}
	.st1{fill:url(#SVGID_2_);}
	.st2{fill:url(#SVGID_3_);}
	.st3{fill:url(#SVGID_4_);}
	.st4{fill:url(#SVGID_5_);}
	.st5{fill:url(#SVGID_6_);}
	.st6{fill:url(#SVGID_7_);}
	.st7{fill:url(#SVGID_8_);}
	.st8{fill:#FFFFFF;}
</style>
<g>
	<g>
		<g>
			
				<linearGradient id="SVGID_1_" gradientUnits="userSpaceOnUse" x1="5" y1="-1063.2159" x2="427.6794" y2="-1063.2159" gradientTransform="matrix(1 0 0 1 0 1280)">
				<stop  offset="0" style="stop-color:#2A59A2"/>
				<stop  offset="1" style="stop-color:#2A59A2"/>
			</linearGradient>
			<path class="st0" d="M425.4,191.3c-2.2,0-5.6,0-7.5,0c-13.7-0.2-40.1,1.3-63.9,21.9c-57,49.3-70,122-167.5,161.2
				C105.2,407.1,5,376.2,5,376.2s89.4-6.2,101.2-74.4c9.3-53.3-39.3-91.2-69.7-139.3c-31-49-38.9-89.7-24-107.3
				c42.3-50,158.8,85.1,216.7,103.3c56.6,17.8,94.8-23.5,141.7-17.5c15,1.9,22.3,8.4,27.1,16.6c1.6,2.8,5.7,12.2,9.3,15.7
				c3.5,3.4,8.2,5.9,12.6,8.5C425.4,185.1,430.9,191.3,425.4,191.3z"/>
			
				<linearGradient id="SVGID_2_" gradientUnits="userSpaceOnUse" x1="-12.0668" y1="-1135.3821" x2="435.0021" y2="-1135.3821" gradientTransform="matrix(1 0 0 1 0 1280)">
				<stop  offset="0" style="stop-color:#91D3F2"/>
				<stop  offset="0.2664" style="stop-color:#6FB2DE"/>
				<stop  offset="0.5214" style="stop-color:#5598CE"/>
				<stop  offset="0.6729" style="stop-color:#4B8FC8"/>
			</linearGradient>
			<path class="st1" d="M157.7,113.2c-14-10.7-28.4-21.8-42.7-32l0,0c-3.2-2.3-6.4-4.5-9.6-6.7l0,0C67.3,48.4,32,32.1,12.5,55.2
				c-14.9,17.6-7,58.3,24,107.3c0.3,0.5,0.6,1,1,1.5c16.2,25,63,83.6,174.1,81.1c7.3-7.8,18.4-22.4,32.8-38.4
				C221,169.1,186,136.3,157.7,113.2z"/>
			
				<linearGradient id="SVGID_3_" gradientUnits="userSpaceOnUse" x1="5.0342" y1="-964.8164" x2="430.799" y2="-964.8164" gradientTransform="matrix(1 0 0 1 0 1280)">
				<stop  offset="0" style="stop-color:#2C9EC7"/>
				<stop  offset="0.4037" style="stop-color:#2C63A5"/>
				<stop  offset="1" style="stop-color:#395DA1"/>
			</linearGradient>
			<path class="st2" d="M269.6,289.9c0.4-16.7-2.6-33.1-8.4-49c-14.6,2.2-31,3.7-49.7,4.1c-13.6,14.4-44.6,53-96.1,87.8
				C47,379.1,5,376.2,5,376.2s100.2,30.9,181.4-1.7c29.1-11.7,50.7-26.4,68.2-42.6C257.5,329.1,269,314.9,269.6,289.9z"/>
			
				<linearGradient id="SVGID_4_" gradientUnits="userSpaceOnUse" x1="5.0271" y1="-1054.1458" x2="430.7919" y2="-1054.1458" gradientTransform="matrix(1 0 0 1 0 1280)">
				<stop  offset="0" style="stop-color:#4FAAC4"/>
				<stop  offset="1.554530e-03" style="stop-color:#2F75B1"/>
				<stop  offset="1" style="stop-color:#356EAC"/>
			</linearGradient>
			<path class="st3" d="M244.3,206.7c-14.3,15.9-25.5,30.6-32.8,38.4c18.7-0.4,35.1-1.9,49.7-4.1c-1.7-4.7-3.7-9.4-5.9-14
				C252.1,220,248.4,213.3,244.3,206.7z"/>
			
				<linearGradient id="SVGID_5_" gradientUnits="userSpaceOnUse" x1="157.6523" y1="-1120.056" x2="433.2406" y2="-1120.056" gradientTransform="matrix(1 0 0 1 0 1280)">
				<stop  offset="0" style="stop-color:#4FAAC4"/>
				<stop  offset="1.554530e-03" style="stop-color:#2F81B6"/>
				<stop  offset="1" style="stop-color:#3B5EA9"/>
			</linearGradient>
			<path class="st4" d="M327.6,146.3c-30,9.1-59.9,24.3-98.4,12.2c-19.1-6-44.5-24.7-71.5-45.2c28.3,23.1,63.4,55.8,86.7,93.5
				C265.6,183.1,293.9,156.9,327.6,146.3z"/>
			
				<linearGradient id="SVGID_6_" gradientUnits="userSpaceOnUse" x1="157.6416" y1="-1014.5483" x2="433.2298" y2="-1014.5483" gradientTransform="matrix(1 0 0 1 0 1280)">
				<stop  offset="0" style="stop-color:#4FAAC4"/>
				<stop  offset="1.554530e-03" style="stop-color:#1E3773"/>
				<stop  offset="1" style="stop-color:#203370"/>
			</linearGradient>
			<path class="st5" d="M261.3,240.9c5.8,15.9,8.8,32.3,8.4,49c-0.6,24.9-12.1,39.2-15,42c41-37.9,59.4-84,99.3-118.6
				c7.4-6.4,15.1-11,22.6-14.2h0C350.3,210,321.9,231.8,261.3,240.9z"/>
			
				<linearGradient id="SVGID_7_" gradientUnits="userSpaceOnUse" x1="336.0031" y1="-991.5303" x2="336.0031" y2="-1142.6512" gradientTransform="matrix(1 0 0 1 0 1280)">
				<stop  offset="0" style="stop-color:#4FAAC4"/>
				<stop  offset="1.554530e-03" style="stop-color:#2C5A9A"/>
				<stop  offset="1" style="stop-color:#374580"/>
			</linearGradient>
			<path class="st6" d="M425.4,191.3c5.5,0,0-6.3-5.6-9.5c-4.4-2.6-9-5.1-12.6-8.5c-3.6-3.5-7.6-12.9-9.3-15.7
				c-4.9-8.3-12.2-14.7-27.1-16.6c-15-1.9-29.2,1-43.3,5.3c-33.7,10.6-62.1,36.9-83.3,60.4c4.1,6.6,7.8,13.3,11.1,20.2
				c2.2,4.6,4.2,9.3,5.9,14c60.7-9.2,89.1-30.9,115.3-41.9h0c16.5-7.2,31.9-7.8,41.4-7.7C419.8,191.3,423.2,191.3,425.4,191.3z"/>
			
				<linearGradient id="SVGID_8_" gradientUnits="userSpaceOnUse" x1="-40.9341" y1="-1009.9024" x2="272.6806" y2="-1009.9024" gradientTransform="matrix(1 0 0 1 0 1280)">
				<stop  offset="0.1115" style="stop-color:#38B1DA"/>
				<stop  offset="1" style="stop-color:#326FB5"/>
			</linearGradient>
			<path class="st7" d="M115.5,332.8c51.4-34.8,82.5-73.4,96.1-87.8C100.5,247.5,53.6,189,37.5,164c30.5,47.4,77.9,85.1,68.8,137.8
				C94.4,370,5,376.2,5,376.2S47,379.1,115.5,332.8z"/>
			<ellipse class="st8" cx="367.8" cy="166.4" rx="8.9" ry="8.8"/>
		</g>
	</g>
</g>
</svg>
