<?xml version="1.0" encoding="UTF-8" standalone="no"?>
<svg
   role="img"
   viewBox="-16.25 -8.75 6426225 3950156.2"
   version="1.1"
   id="svg882"
   sodipodi:docname="kubeelasti-stacked-white.svg"
   width="6426225"
   height="3950156.2"
   xmlns:inkscape="http://www.inkscape.org/namespaces/inkscape"
   xmlns:sodipodi="http://sodipodi.sourceforge.net/DTD/sodipodi-0.dtd"
   xmlns="http://www.w3.org/2000/svg"
   xmlns:svg="http://www.w3.org/2000/svg">
  <defs
     id="defs882" />
  <sodipodi:namedview
     id="namedview882"
     pagecolor="#ffffff"
     bordercolor="#000000"
     borderopacity="0.25"
     inkscape:showpageshadow="2"
     inkscape:pageopacity="0.0"
     inkscape:pagecheckerboard="0"
     inkscape:deskcolor="#d1d1d1">
    <inkscape:page
       x="0"
       y="0"
       width="6426225"
       height="3950156.2"
       id="page2"
       margin="0"
       bleed="0" />
  </sodipodi:namedview>
  <path
     fill="#fefefe"
     d="m 1799.1477,356.11364 c 0.99,0 1.98,0 3,0 -0.33,1.32 -0.66,2.64 -1,4 0.66,0.33 1.32,0.66 2,1 0,0.66 0,1.32 0,2 0.5827,0.0812 1.1653,0.16242 1.7657,0.24609 2.9152,0.98363 4.0394,2.46009 5.9843,4.81641 0.6136,0.73347 1.2272,1.46695 1.8594,2.22265 0.4589,0.5659 0.9178,1.1318 1.3906,1.71485 0.33,-0.66 0.66,-1.32 1,-2 0.66,0 1.32,0 2,0 1.7647,3.08809 2,4.23312 2,8 -0.99,0 -1.98,0 -3,0 0.99,2.31 1.98,4.61999 3,6.99999 0.66,0 1.32,0 2,0 0.7785,3.40562 1.0998,6.50765 1,10 -1.485,0.495 -1.485,0.495 -3,1 0,1.32 0,2.64 0,4 0.66,0 1.32,0 2,0 0,1.65 0,3.3 0,5 -0.99,0 -1.98,0 -3,0 0,0.99 0,1.98 0,3 0.99,0 1.98,0 3,0 -0.33,1.32 -0.66,2.64 -1,4 -0.33,0 -0.66,0 -1,0 -0.33,3.96 -0.66,7.92 -1,12 1.485,-0.495 1.485,-0.495 3,-1 0,1.32 0,2.64 0,4 -0.99,0 -1.98,0 -3,0 0,4.29 0,8.58 0,13 0.99,0 1.98,0 3,0 -0.33,0.99 -0.66,1.98 -1,3 -0.33,0 -0.66,0 -1,0 -0.33,3.96 -0.66,7.92 -1,12 1.485,-0.495 1.485,-0.495 3,-1 0,2.64 0,5.28 0,8.00001 -0.66,0.33 -1.32,0.66 -2,1 -0.4652,1.89533 -0.4652,1.89533 -0.625,4.0625 -0.1237,1.29937 -0.2475,2.59875 -0.375,3.9375 0.99,0 1.98,0 3,0 1.2618,13.65372 1.1012,27.30032 1,41.00002 -0.99,0.33 -1.98,0.66 -3,1 0,1.32 0,2.64 0,4 0.66,0.33 1.32,0.66 2,1 -0.021,1.1137 -0.041,2.2275 -0.062,3.375 -0.01,4.9142 0.5028,9.74751 1.0625,14.62501 -0.99,0.33 -1.98,0.66 -3,1 0,1.65 0,3.3 0,5 0.66,0 1.32,0 2,0 -0.2062,0.6187 -0.4125,1.2375 -0.625,1.875 -0.1856,1.0519 -0.1856,1.0519 -0.375,2.125 0.66,0.66 1.32,1.32 2,2 0,4 0,4 -1.4375,5.5625 -0.5156,0.4744 -1.0312,0.9487 -1.5625,1.4375 -0.33,0.99 -0.66,1.98 -1,3 0.99,-0.33 1.98,-0.66 3,-1 0,0.99 0,1.98 0,3 -0.66,0 -1.32,0 -2,0 0,1.65 0,3.3 0,5 0.99,0.33 1.98,0.66 3,1 -0.33,0.66 -0.66,1.32 -1,2 -0.66,0 -1.32,0 -2,0 0,1.65 0,3.3 0,5 0.99,0.33 1.98,0.66 3,1 -1.485,2.475 -1.485,2.475 -3,5 0.66,0 1.32,0 2,0 0.33,1.32 0.66,2.64 1,4 -0.99,0.33 -1.98,0.66 -3,1 0,1.32 0,2.64 0,4 0.99,0.33 1.98,0.66 3,1 0.027,1.8957 0.047,3.7916 0.062,5.6875 0.012,1.0557 0.023,2.1115 0.035,3.1992 -0.089,2.8374 -0.4483,5.3572 -1.0977,8.1133 -0.33,-0.66 -0.66,-1.32 -1,-2 -0.66,0 -1.32,0 -2,0 0,2.31 0,4.62 0,7 1.32,0.33 2.64,0.66 4,1 -0.33,0.99 -0.66,1.98 -1,3 -0.66,0 -1.32,0 -2,0 0.5227,2.7627 1.1087,5.3261 2,8 0.2735,4.831 -0.2411,8.493 -2,13 0.66,0.33 1.32,0.66 2,1 0.054,1.6038 0.093,3.2081 0.125,4.8125 0.023,0.8933 0.046,1.7866 0.07,2.707 -0.1953,2.4805 -0.1953,2.4805 -2.1953,5.4805 0.66,0 1.32,0 2,0 -0.021,1.0725 -0.041,2.145 -0.062,3.25 -0.087,3.521 -0.087,3.521 0.625,5.9375 0.5409,2.2406 -0.01,3.6002 -0.5625,5.8125 0.165,0.66 0.33,1.32 0.5,2 0.5919,2.3676 0.1008,3.672 -0.5,6 0.33,0.99 0.66,1.98 1,3 -0.33,0.33 -0.66,0.66 -1,1 -0.1915,3.6319 -0.1915,3.6319 1,7 -0.2475,0.8972 -0.2475,0.8972 -0.5,1.8125 -0.6605,2.2016 -0.6605,2.2016 -0.039,4.4858 0.5548,2.7783 0.6689,5.2856 0.6723,8.1157 0,1.0081 0,2.0161 0,3.0547 0,1.0416 -0.01,2.0832 -0.012,3.1563 0.01,1.5739 0.01,1.5739 0.012,3.1797 0,1.0054 0,2.0109 0,3.0468 0,1.3741 0,1.3741 0,2.7759 -0.1294,2.3726 -0.1294,2.3726 -1.1294,5.3726 0.2475,1.2065 0.2475,1.2065 0.5,2.4375 0.5265,2.6982 0.2509,3.9761 -0.5,6.5625 0,1.32 0,2.64 0,4 -0.66,0 -1.32,0 -2,0 0.66,0.99 1.32,1.98 2,3 -0.3551,2.8412 -1.0935,5.2805 -2,8 0.66,0 1.32,0 2,0 -0.2062,1.0725 -0.4125,2.145 -0.625,3.25 -0.711,3.5445 -0.711,3.5445 0.625,5.5781 1.406,3.0536 0.962,5.3476 0.625,8.6719 -0.5814,6.5263 -0.7329,12.9519 -0.625,19.5 -0.33,0 -0.66,0 -1,0 0,-1.65 0,-3.3 0,-5 -0.66,0 -1.32,0 -2,0 0.072,0.6755 0.1444,1.3509 0.2188,2.0469 0.093,0.892 0.1856,1.784 0.2812,2.7031 0.093,0.8817 0.1857,1.7634 0.2813,2.6719 0.2187,2.5781 0.2187,2.5781 0.2187,6.5781 -0.66,0.66 -1.32,1.32 -2,2 -0.2863,2.0044 -0.5692,4.011 -0.7539,6.0273 -0.2461,1.9727 -0.2461,1.9727 -1.2461,4.9727 -1.32,-0.33 -2.64,-0.66 -4,-1 -0.33,1.32 -0.66,2.64 -1,4 -0.99,0 -1.98,0 -3,0 0,0.66 0,1.32 0,2 -0.66,0 -1.32,0 -2,0 0,0.66 0,1.32 0,2 -0.99,0 -1.98,0 -3,0 0,0.66 0,1.32 0,2 -1.65,0 -3.3,0 -5,0 0,0.66 0,1.32 0,2 -0.6032,0.026 -1.2065,0.052 -1.8281,0.078 -5.2772,0.3252 -5.2772,0.3252 -9.7344,2.9844 -0.4743,0.6393 -0.9487,1.2787 -1.4375,1.9375 -0.99,-0.33 -1.98,-0.66 -3,-1 0.33,-0.99 0.66,-1.98 1,-3 -2.97,-0.33 -5.94,-0.66 -9,-1 0,-0.66 0,-1.32 0,-2 -1.98,0.495 -1.98,0.495 -4,1 0,0.66 0,1.32 0,2 2.31,0.66 4.62,1.32 7,2 -3,2 -3,2 -5.6875,1.625 -1.1447,-0.3094 -1.1447,-0.3094 -2.3125,-0.625 0,-0.99 0,-1.98 0,-3 -0.99,-0.33 -1.98,-0.66 -3,-1 0,-2 0,-4 0,-6 -0.66,0 -1.32,0 -2,0 0,-0.66 0,-1.32 0,-2 -0.66,0 -1.32,0 -2,0 0,-0.66 0,-1.32 0,-2 -0.66,0 -1.32,0 -2,0 0,-0.66 0,-1.32 0,-2 -0.66,0 -1.32,0 -2,0 0,-0.66 0,-1.32 0,-2 -0.66,0 -1.32,0 -2,0 0,-0.66 0,-1.32 0,-2 -0.66,0.33 -1.32,0.66 -2,1 -1.9996,0.04 -4.0004,0.043 -6,0 0,-0.66 0,-1.32 0,-2 0.99,-0.33 1.98,-0.66 3,-1 0.33,-0.66 0.66,-1.32 1,-2 -1.32,-0.33 -2.64,-0.66 -4,-1 0,0.66 0,1.32 0,2 -0.99,0 -1.98,0 -3,0 0.041,-0.9488 0.082,-1.8975 0.125,-2.875 0.2248,-3.2275 0.2248,-3.2275 -2.125,-5.125 -0.99,0.33 -1.98,0.66 -3,1 -0.33,-0.99 -0.66,-1.98 -1,-3 0.33,-0.66 0.66,-1.32 1,-2 -0.5568,0.2681 -1.1137,0.5362 -1.6875,0.8125 -1.1447,0.093 -1.1447,0.093 -2.3125,0.1875 -2.8703,-2.4603 -4.9032,-4.8549 -7,-8 -0.125,-2.6875 -0.125,-2.6875 0,-5 -1.65,0 -3.3,0 -5,0 0,-0.99 0,-1.98 0,-3 -0.7425,0 -1.485,0 -2.25,0 -2.25,0 -4.5,0 -6.75,0 -1.054,-3.982 -0.841,-6.982 0,-11 -0.66,0 -1.32,0 -2,0 0,-0.66 0,-1.32 0,-2 -1.65,0.33 -3.3,0.66 -5,1 0,-0.66 0,-1.32 0,-2 -0.66,0 -1.32,0 -2,0 0,-1.32 0,-2.64 0,-4 -1.1447,0.093 -1.1447,0.093 -2.3125,0.1875 -2.6875,-0.1875 -2.6875,-0.1875 -4.4375,-1.25 -1.25,-1.9375 -1.25,-1.9375 -1.75,-5.5 -0.2475,-1.7016 -0.2475,-1.7016 -0.5,-3.4375 -0.99,-0.66 -1.98,-1.32 -3,-2 0,-0.66 0,-1.32 0,-2 -3.5832,-1.0022 -3.5832,-1.0022 -7,0 0,0.99 0,1.98 0,3 -1.32,-0.33 -2.64,-0.66 -4,-1 -0.9247,-4.716 -1.2292,-7.6727 1,-12 -0.66,0 -1.32,0 -2,0 0,-0.66 0,-1.32 0,-2 -1.65,0.33 -3.3,0.66 -5,1 -0.33,-1.32 -0.66,-2.64 -1,-4 -0.5568,-0.082 -1.1137,-0.165 -1.6875,-0.25 -3.1348,-1.0168 -4.987,-2.4245 -7.3125,-4.75 0,-1.6667 0,-3.3334 0,-5 -2.2474,-2.1484 -2.2474,-2.1484 -5,-4 -1.3514,-1.315 -2.6911,-2.6427 -4,-4 -0.3712,0.9281 -0.3712,0.9281 -0.75,1.875 -1.4563,2.4756 -2.6281,3.0762 -5.25,4.125 -0.8723,-2.9948 -1.1083,-5.6358 -1.0625,-8.75 0.01,-0.7993 0.018,-1.5985 0.027,-2.4219 0.012,-0.6033 0.023,-1.2066 0.035,-1.8281 -0.99,0.66 -1.98,1.32 -3,2 0,1.32 0,2.64 0,4 -1.32,0.66 -2.64,1.32 -4,2 -0.33,-0.66 -0.66,-1.32 -1,-2 -1.3246,1.216 -2.6343,2.4484 -3.9375,3.6875 -1.0963,1.0267 -1.0963,1.0267 -2.2148,2.0742 -2.042,2.4736 -2.5002,4.0887 -2.8477,7.2383 -1.32,-0.33 -2.64,-0.66 -4,-1 0,0.66 0,1.32 0,2 -1.875,2.125 -1.875,2.125 -4,4 -0.66,0 -1.32,0 -2,0 0,0.66 0,1.32 0,2 -0.66,0 -1.32,0 -2,0 0,0.66 0,1.32 0,2 -0.4537,0.4125 -0.9075,0.825 -1.375,1.25 -1.8717,1.7605 -1.8717,1.7605 -2.5625,4.8125 -1.0625,2.9375 -1.0625,2.9375 -2.9375,4.375 -2.4405,0.646 -3.7715,0.403 -6.125,-0.4375 -0.2552,0.5826 -0.5104,1.1653 -0.7734,1.7656 -1.344,2.4482 -2.8447,4.0518 -4.8516,5.9844 -0.9474,0.9204 -0.9474,0.9204 -1.914,1.8593 -0.4821,0.4589 -0.9642,0.9178 -1.461,1.3907 0.33,0.99 0.66,1.98 1,3 -1.0518,0.3918 -2.1037,0.7837 -3.1875,1.1875 -3.7404,1.5749 -6.0239,3.8646 -8.8125,6.8125 -0.66,0 -1.32,0 -2,0 0,0.99 0,1.98 0,3 -0.66,0 -1.32,0 -2,0 -0.33,1.65 -0.66,3.3 -1,5 -1.32,-0.33 -2.64,-0.66 -4,-1 -0.33,0.99 -0.66,1.98 -1,3 -0.66,0 -1.32,0 -2,0 -0.2681,0.5775 -0.5362,1.155 -0.8125,1.75 -1.7164,3.2522 -3.4271,5.6563 -6.3437,7.9336 -3.5759,2.9127 -6.7829,6.1101 -10.0313,9.3789 -0.6284,0.6245 -1.2568,1.2491 -1.9043,1.8925 -0.9039,0.9059 -0.9039,0.9059 -1.8261,1.8301 -0.5443,0.5454 -1.0885,1.0907 -1.6492,1.6526 -1.6431,1.7112 -1.6431,1.7112 -3.4329,4.5623 -0.6393,0.2887 -1.2787,0.5775 -1.9375,0.875 -2.7623,1.5067 -3.516,3.4187 -5.0625,6.125 -2.0625,2.3125 -2.0625,2.3125 -4,4 -0.66,0 -1.32,0 -2,0 -0.33,1.65 -0.66,3.3 -1,5 -1.32,-0.33 -2.64,-0.66 -4,-1 -0.2359,0.5684 -0.4718,1.1369 -0.7148,1.7226 -2.0609,3.652 -5.2255,6.1425 -8.2891,8.961 -2.1729,2.5216 -2.6676,4.0486 -2.9961,7.3164 -1.32,-0.66 -2.64,-1.32 -4,-2 0,0.66 0,1.32 0,2 -0.66,0 -1.32,0 -2,0 -0.2681,0.5981 -0.5362,1.1962 -0.8125,1.8125 -1.1875,2.1875 -1.1875,2.1875 -2.75,3.6875 -1.7006,1.7746 -2.0254,3.11 -2.4375,5.5 -1.32,0 -2.64,0 -4,0 0,0.66 0,1.32 0,2 -1.65,1.3538 -3.3174,2.6867 -5,4 -0.33,0.66 -0.66,1.32 -1,2 -0.66,0 -1.32,0 -2,0 0,0.66 0,1.32 0,2 -1.5283,1.2356 -3.0576,2.4702 -4.5976,3.6914 -1.7426,1.626 -2.2271,2.9426 -2.4024,5.3086 -0.5427,0.057 -1.0854,0.1134 -1.6445,0.1718 -3.4119,1.1996 -5.557,3.556 -8.043,6.0782 -0.4982,0.4782 -0.9964,0.9564 -1.5097,1.4492 -2.9536,2.9576 -4.4727,5.0941 -4.8028,9.3008 -0.66,-0.66 -1.32,-1.32 -2,-2 -0.5568,0.7425 -1.1137,1.485 -1.6875,2.25 -2.2443,2.6689 -4.5794,4.6078 -7.3125,6.75 -0.33,0.66 -0.66,1.32 -1,2 -0.66,0 -1.32,0 -2,0 -0.33,2.31 -0.66,4.62 -1,7 -0.5985,-0.215 -1.197,-0.4299 -1.8137,-0.6514 -0.7215,-0.1151 -1.4429,-0.2301 -2.1863,-0.3486 -2.2819,1.8542 -4.1878,3.6272 -6.1875,5.75 -0.5459,0.5517 -1.0918,1.1034 -1.6543,1.6718 -2.4059,2.4805 -4.053,4.2625 -5.1582,7.5782 -1.3327,0.6679 -2.6662,1.3342 -4,2 -2.0157,1.7516 -3.9182,3.5029 -5.8125,5.375 -0.5149,0.4821 -1.0299,0.9642 -1.5605,1.4609 -1.6601,1.5778 -1.6601,1.5778 -3.627,4.1641 0.1355,2.1582 0.1355,2.1582 1,4 -0.33,0.99 -0.66,1.98 -1,3 -5.75,1.125 -5.75,1.125 -8,0 0,0.66 0,1.32 0,2 -0.66,0 -1.32,0 -2,0 0,0.66 0,1.32 0,2 -0.66,0 -1.32,0 -2,0 0,0.66 0,1.32 0,2 -0.66,0 -1.32,0 -2,0 0,0.66 0,1.32 0,2 -0.66,0 -1.32,0 -2,0 0,0.66 0,1.32 0,2 -0.66,0 -1.32,0 -2,0 0,0.66 0,1.32 0,2 -1.4511,1.4365 -1.4511,1.4365 -3.4687,3.1093 -4.539,3.8626 -8.8025,7.9432 -13.0313,12.1407 -0.727,0.7064 -1.454,1.4128 -2.2031,2.1406 -0.6858,0.6806 -1.3716,1.3612 -2.0781,2.0625 -0.6194,0.61 -1.2388,1.2201 -1.877,1.8486 -1.6517,1.7299 -1.6517,1.7299 -1.3418,4.6983 -1.65,0.33 -3.3,0.66 -5,1 0,0.66 0,1.32 0,2 -0.66,0 -1.32,0 -2,0 0,0.66 0,1.32 0,2 -0.66,0 -1.32,0 -2,0 0.33,1.65 0.66,3.3 1,5 -0.66,0 -1.32,0 -2,0 0,0.66 0,1.32 0,2 -1.65,-0.33 -3.3,-0.66 -5,-1 0,0.66 0,1.32 0,2 -0.66,0 -1.32,0 -2,0 0,0.66 0,1.32 0,2 -1.539,1.5156 -1.539,1.5156 -3.625,3.25 -3.6485,3.1162 -7.1444,6.1963 -10.375,9.75 0,0.99 0,1.98 0,3 -0.9281,0.1546 -0.9281,0.1546 -1.875,0.3125 -2.4902,0.5627 -2.4902,0.5627 -4.125,3.6875 -1.5,1.6875 -1.5,1.6875 -3,3.00003 -0.66,0 -1.32,0 -2,0 0,0.66 0,1.32 0,2 -0.66,0 -1.32,0 -2,0 0,0.66 0,1.32 0,2 -0.66,0 -1.32,0 -2,0 -0.33,1.65 -0.66,3.3 -1,5 -0.99,0.33 -1.98,0.66 -3,1 0,0.99 0,1.98 0,3 -1.98,0.33 -3.96,0.66 -6,1 0,0.66 0,1.32 0,2 1.65,0 3.3,0 5,0 0,0.99 0,1.98 0,3 -1.65,0 -3.3,0 -5,0 -0.33,0.66 -0.66,1.32 -1,2 -1.65,0 -3.3,0 -5,0 -0.33,0.99 -0.66,1.98 -1,3 -1.6561,1.0173 -3.3248,2.0143 -5,3 -1.7749,1.6179 -3.5033,3.2878 -5.1875,4.9999 -0.8598,0.8663 -1.7196,1.7325 -2.6054,2.625 -2.3164,2.3656 -2.3164,2.3656 -4.2071,5.375 -1.9966,1.6707 -3.9965,3.3376 -6,5 -0.33,0.66 -0.66,1.32 -1,2 -0.66,0 -1.32,0 -2,0 -0.062,0.7838 -0.1237,1.5675 -0.1875,2.375 -0.2681,0.8663 -0.5362,1.7325 -0.8125,2.625 -1.6455,0.7173 -3.3142,1.3833 -5,2 -1.4757,2.2875 -2.1346,4.4041 -3,7 -2.31,0 -4.62,0 -7,0 -0.33,1.32 -0.66,2.64 -1,4 -0.99,0 -1.98,0 -3,0 -0.2887,0.5775 -0.5775,1.155 -0.875,1.75 -0.7208,1.4417 -1.4493,2.8796 -2.1875,4.3125 -1.0536,2.0716 -1.0536,2.0716 -1.9375,4.9375 -0.99,0.33 -1.98,0.66 -3,1 -0.33,-0.66 -0.66,-1.32 -1,-2 -0.6187,0.825 -1.2375,1.65 -1.875,2.5 -0.7012,0.825 -1.4025,1.65 -2.125,2.5 -0.66,0 -1.32,0 -2,0 0,0.66 0,1.32 0,2 -0.66,0 -1.32,0 -2,0 0,0.66 0,1.32 0,2 -0.66,0 -1.32,0 -2,0 0,0.66 0,1.32 0,2 -0.66,0 -1.32,0 -2,0 0,0.66 0,1.32 0,2 -0.66,0 -1.32,0 -2,0 0,0.66 0,1.32 0,2 -0.99,0 -1.98,0 -3,0 0,0.66 0,1.32 0,2 -0.99,0 -1.98,0 -3,0 0,0.66 0,1.32 0,2 -0.66,0 -1.32,0 -2,0 0,0.66 0,1.32 0,2 -0.66,0 -1.32,0 -2,0 0,0.66 0,1.32 0,2 -0.66,0 -1.32,0 -2,0 0,0.66 0,1.32 0,2 -0.66,0 -1.32,0 -2,0 0,0.66 0,1.32 0,2 -0.66,0 -1.32,0 -2,0 -0.33,1.32 -0.66,2.64 -1,4 -1.65,0 -3.3,0 -5,0 0,0.66 0,1.32 0,2 -1.65,0.66 -3.3,1.32 -5,2 0,1.32 0,2.64 0,4 -0.8662,0.1857 -0.8662,0.1857 -1.75,0.375 -3.6138,1.0039 -6.2657,2.6358 -9.375,4.75 -2.875,1.875 -2.875,1.875 -4.875,1.875 0,0.66 0,1.32 0,2 -0.66,0 -1.32,0 -2,0 0,0.66 0,1.32 0,2 -1.32,0 -2.64,0 -4,0 0,0.66 0,1.32 0,2 -0.66,0 -1.32,0 -2,0 0.33,0.99 0.66,1.98 1,3 -1.65,-0.33 -3.3,-0.66 -5,-1 0,0.66 0,1.32 0,2 -0.66,0 -1.32,0 -2,0 0,0.66 0,1.32 0,2 -1.32,0 -2.64,0 -4,0 0,0.66 0,1.32 0,2 -0.66,0 -1.32,0 -2,0 0,0.66 0,1.32 0,2 -3,2 -3,2 -6,2 0,0.66 0,1.32 0,2 -1.32,0 -2.64,0 -4,0 0.33,1.32 0.66,2.64 1,4 -3.0103,0.9343 -3.8665,1.0445 -7,0 0,0.66 0,1.32 0,2 -1.32,0 -2.64,0 -4,0 0,0.66 0,1.32 0,2 -5.3333,2.6667 -10.6666,5.3334 -16,8 0,0.66 0,1.32 0,2 -1.0828,-0.093 -1.0828,-0.093 -2.1875,-0.1875 -3.3609,0.2241 -4.979,1.4439 -7.8125,3.1875 -1.32,0 -2.64,0 -4,0 0,0.66 0,1.32 0,2 -8.4285,3.2858 -8.4285,3.2858 -13,4 0,0.66 0,1.32 0,2 -1.32,0 -2.64,0 -4,0 0,0.66 0,1.32 0,2 -1.65,0 -3.3,0 -5,0 -0.33,1.65 -0.66,3.3 -1,5 -2.97,-0.33 -5.94,-0.66 -9,-1 0,0.66 0,1.32 0,2 -1.98,0 -3.96,0 -6,0 0,0.66 0,1.32 0,2 -1.65,0.33 -3.3,0.66 -5,1 0,0.33 0,0.66 0,1 -2.31,0 -4.62,0 -7,0 0,0.66 0,1.32 0,2 -1.98,0 -3.96,0 -6,0 0,0.66 0,1.32 0,2 -1.98,0 -3.96,0 -6,0 0,0.66 0,1.32 0,2 -1.98,0 -3.96,0 -6,0 0.1857,0.6394 0.3713,1.2788 0.5625,1.9375 0.1444,0.6807 0.2888,1.3613 0.4375,2.0625 -1,1 -1,1 -3.375,1.25 -2.625,-0.25 -2.625,-0.25 -4.4375,-1.75 -0.3918,-0.495 -0.7837,-0.99 -1.1875,-1.5 0,0.66 0,1.32 0,2 -2.64,0 -5.28,0 -8,0 0,0.66 0,1.32 0,2 -0.7102,0.061 -1.4205,0.1212 -2.1523,0.1836 -0.9191,0.084 -1.8382,0.1676 -2.7852,0.2539 -0.9165,0.081 -1.833,0.1625 -2.7773,0.2461 -2.2468,0.077 -2.2468,0.077 -3.2852,1.3164 -1.3875,0.2473 -2.7845,0.4425 -4.1836,0.6133 -0.8449,0.1141 -1.6899,0.2282 -2.5605,0.3457 -1.7903,0.235 -3.582,0.459 -5.375,0.6719 -1.2694,0.1769 -1.2694,0.1769 -2.5645,0.3574 -0.7791,0.098 -1.5583,0.1968 -2.361,0.2981 -2.1528,0.5566 -2.1528,0.5566 -3.2251,2.7769 -0.241,0.6391 -0.482,1.2782 -0.7303,1.9367 -1.65,-0.33 -3.3,-0.66 -5,-1 0,-0.33 0,-0.66 0,-1 -4.2919,0.1384 -8.5834,0.287 -12.875,0.4375 -1.2233,0.039 -2.4466,0.079 -3.707,0.1192 -1.1666,0.042 -2.3332,0.084 -3.5352,0.1269 -1.6181,0.055 -1.6181,0.055 -3.269,0.1111 -2.5945,0.039 -2.5945,0.039 -4.6138,1.2053 -2.0009,0.1203 -4.0058,0.1774 -6.0102,0.2054 -1.2612,0.02 -2.5223,0.04 -3.8217,0.06 -1.3815,0.017 -2.7631,0.034 -4.1446,0.051 -1.4097,0.021 -2.8193,0.042 -4.2289,0.063 -3.712,0.055 -7.4242,0.1046 -11.1363,0.1529 -3.7872,0.05 -7.5743,0.1059 -11.3614,0.1611 -7.4322,0.1076 -14.8645,0.209 -22.2969,0.3066 1.32,0.66 2.64,1.32 4,2 -9.41,1.1481 -9.41,1.1481 -14,1 -0.33,-0.99 -0.66,-1.98 -1,-3 -7.4264,-1.6088 -14.405,-2.2644 -22,-2 0.66,0.66 1.32,1.32 2,2 -0.66,0.66 -1.32,1.32 -2,2 -3.4375,-0.8125 -3.4375,-0.8125 -7,-2 -0.33,-0.99 -0.66,-1.98 -1,-3 -2.8745,-0.3374 -5.7495,-0.6701 -8.625,-1 -0.8082,-0.095 -1.6165,-0.1907 -2.4492,-0.289 -6.448,-0.7612 -6.448,-0.7612 -12.9258,-0.711 -0.66,0.66 -1.32,1.32 -2,2 -3.125,0.125 -3.125,0.125 -6,0 -0.66,-1.32 -1.32,-2.64 -2,-4 -0.33,0.33 -0.66,0.66 -1,1 0.4512,0.7103 0.9024,1.4206 1.3672,2.1524 1.5874,2.7684 2.6966,5.4061 3.7578,8.4101 0.3326,0.9295 0.6652,1.8589 1.0078,2.8164 0.7272,2.1978 1.3475,4.367 1.8672,6.6211 0.66,0 1.32,0 2,0 0,1.32 0,2.64 0,4 0.66,0 1.32,0 2,0 2,3 2,3 2,6 0.66,0 1.32,0 2,0 0,1.32 0,2.64 0,4 0.66,0 1.32,0 2,0 0,0.66 0,1.32 0,2 0.66,0 1.32,0 2,0 0,1.32 0,2.64 0,4 0.66,0 1.32,0 2,0 0,0.99 0,1.98 0,3 0.66,0 1.32,0 2,0 0,0.99 0,1.98 0,3 1.32,0.33 2.64,0.66 4,1 0,1.32 0,2.64 0,4 1.32,-0.33 2.64,-0.66 4,-1 1.0445,3.1335 0.9343,3.9897 0,7 0.66,0 1.32,0 2,0 0,0.66 0,1.32 0,2 0.66,0 1.32,0 2,0 0,0.99 0,1.98 0,3 0.66,0 1.32,0 2,0 1.2891,1.461 1.2891,1.461 2.625,3.375 0.446,0.6265 0.8921,1.253 1.3516,1.8985 1.0234,1.7265 1.0234,1.7265 1.0234,3.7265 0.66,0 1.32,0 2,0 0,0.66 0,1.32 0,2 0.66,0 1.32,0 2,0 0,0.66 0,1.32 0,2 0.66,0 1.32,0 2,0 0,0.66 0,1.32 0,2 0.66,0 1.32,0 2,0 0,0.66 0,1.32 0,2 0.66,0 1.32,0 2,0 0,0.66 0,1.32 0,2 0.66,0 1.32,0 2,0 0,0.66 0,1.32 0,2 0.66,0 1.32,0 2,0 0,0.66 0,1.3201 0,2.0001 0.66,0 1.32,0 2,0 0,0.66 0,1.32 0,2 0.66,0 1.32,0 2,0 1.4375,1.4961 1.4375,1.4961 3,3.4375 2.1453,2.7144 2.1453,2.7144 5,4.5625 0,0.66 0,1.32 0,2 0.5363,0.2269 1.0725,0.4538 1.625,0.6875 3.1996,1.7682 5.6654,3.8492 8.375,6.3125 0,0.66 0,1.32 0,2 0.66,0 1.32,0 2,0 0,0.66 0,1.32 0,2 0.99,0 1.98,0 3,0 0,0.66 0,1.32 0,2 2.97,0.33 5.94,0.66 9,1 -0.33,1.65 -0.66,3.3 -1,5 0.66,0 1.32,0 2,0 0,0.66 0,1.32 0,2 0.66,0 1.32,0 2,0 0,0.66 0,1.32 0,2 1.32,0 2.64,0 4,0 0,0.66 0,1.32 0,2 0.66,0 1.32,0 2,0 0,0.66 0,1.32 0,2 0.6188,0.1444 1.2375,0.2888 1.875,0.4375 2.125,0.5625 2.125,0.5625 4.125,1.5625 0,0.66 0,1.32 0,2 0.5569,0.1032 1.1138,0.2063 1.6875,0.3125 2.7748,0.825 4.8523,2.1646 7.3125,3.6875 1.9925,1.015 3.9908,2.0188 6,3 0,0.66 0,1.32 0,2 1.32,0 2.64,0 4,0 0,0.66 0,1.32 0,2 0.5157,0.1032 1.0313,0.2063 1.5625,0.3125 3.2978,0.9302 6.3039,2.3015 9.4375,3.6875 0,0.66 0,1.32 0,2 1.32,0 2.64,0 4,0 0,0.66 0,1.32 0,2 1.1138,-0.093 1.1138,-0.093 2.25,-0.1875 3.2661,0.2227 4.2528,1.1736 6.75,3.1875 2.1474,0.7052 2.1474,0.7052 4,1 0,0.66 0,1.32 0,2 1.65,0 3.3,0 5,0 0,0.66 0,1.32 0,2 1.65,0 3.3,0 5,0 0,0.66 0,1.32 0,2 1.65,0 3.3,0 5,0 0,0.66 0,1.32 0,2 2.31,0 4.62,0 7,0 0,0.66 0,1.32 0,2 2.64,-0.66 5.28,-1.32 8,-2 0,0.99 0,1.98 0,2.9999 6.8224,3.8206 13.3694,4.2764 21,4 0,0.66 0,1.32 0,2 6.9413,1.7227 13.6878,2.5363 20.8125,3.0625 2.0276,0.1546 4.055,0.3121 6.0821,0.4727 0.8853,0.066 1.7707,0.1316 2.6828,0.1995 2.4226,0.2653 2.4226,0.2653 4.3047,0.7691 2.2018,0.5159 4.1688,0.6539 6.4275,0.7016 0.8406,0.02 1.6811,0.04 2.5472,0.06 0.898,0.017 1.7961,0.033 2.7214,0.051 0.9265,0.021 1.8531,0.042 2.8078,0.063 2.9546,0.065 5.9093,0.1243 8.864,0.1831 2.0053,0.043 4.0105,0.087 6.0157,0.1309 4.9113,0.107 9.8228,0.2083 14.7343,0.3066 0,-0.99 0,-1.98 0,-3 1.98,0.33 3.96,0.66 6,1 0,0.33 0,0.66 0,1 4.95,0.33 9.9,0.66 15,1 -0.33,-1.32 -0.66,-2.64 -1,-4 1.32,0 2.64,0 4,0 0,0.66 0,1.32 0,2 4.62,0 9.24,0 14,0 0,-0.66 0,-1.32 0,-2 -0.66,0 -1.32,0 -2,0 0,-0.66 0,-1.32 0,-2 1.65,-0.33 3.3,-0.66 5,-1 0.66,0.99 1.32,1.98 2,3 1.98,-0.3076 3.959,-0.6212 5.9375,-0.9375 1.1022,-0.174 2.2043,-0.348 3.3399,-0.5273 2.6269,-0.2536 2.6269,-0.2536 3.7226,-1.5352 2.6706,-0.1411 5.3244,-0.042 8,0 0,-0.66 0,-1.32 0,-2 2.31,0 4.62,0 7,0 0,-0.66 0,-1.32 0,-2 2.31,0 4.62,0 7,0 0,-0.66 0,-1.3199 0,-1.9999 2.31,0 4.62,0 7,0 0,-0.66 0,-1.32 0,-2 1.65,0 3.3,0 5,0 0,-0.66 0,-1.32 0,-2 1.65,0 3.3,0 5,0 0,-0.66 0,-1.32 0,-2 1.98,0 3.96,0 6,0 0,-0.66 0,-1.32 0,-2 1.32,0 2.64,0 4,0 0,-0.66 0,-1.32 0,-2 1.65,0 3.3,0 5,0 0,-0.66 0,-1.32 0,-2 1.32,0 2.64,0 4,0 0,-0.66 0,-1.32 0,-2 3,-2 3,-2 5,-3 2.125,0.4375 2.125,0.4375 4,1 0,-0.66 0,-1.32 0,-2 1.32,0 2.64,0 4,0 0,-0.66 0,-1.32 0,-2 0.99,0 1.98,0 3,0 0,-0.66 0,-1.32 0,-2 1.32,0 2.64,0 4,0 0,-0.66 0,-1.32 0,-2 2.6474,-1.4606 3.8945,-2 7,-2 0.33,-0.66 0.66,-1.32 1,-2 1.7422,-1.289 1.7422,-1.289 3.875,-2.625 0.6987,-0.446 1.3974,-0.892 2.1172,-1.3515 2.0078,-1.0235 2.0078,-1.0235 5.0078,-1.0235 0,-0.66 0,-1.32 0,-2 5.4118,-4 5.4118,-4 8,-4 0,-0.66 0,-1.32 0,-2 0.99,0 1.98,0 3,0 0,-0.66 0,-1.32 0,-2 0.99,0 1.98,0 3,0 0,-0.66 0,-1.32 0,-2 0.66,0 1.32,0 2,0 0,-0.66 0,-1.32 0,-2 0.99,0 1.98,0 3,0 -0.66,-1.98 -1.32,-3.96 -2,-6 3,0 6,0 9,0 0,-0.66 0,-1.32 0,-2 4.4706,-4 4.4706,-4 7,-4 0,-0.66 0,-1.32 0,-2 0.66,0 1.32,0 2,0 0,-0.66 0,-1.32 0,-2 0.66,0 1.32,0 2,0 0,-0.66 0,-1.32 0,-2 0.66,0 1.32,0 2,0 0,-0.66 0,-1.32 0,-2 1.32,-0.33 2.64,-0.66 4,-1 0,-0.99 0,-1.98 0,-3 0.66,0 1.32,0 2,0 0,-0.66 0,-1.32 0,-2 0.66,0 1.32,0 2,0 0,-0.66 0,-1.32 0,-2 0.66,0 1.32,0 2,0 0.33,-2.9701 0.66,-5.9401 1,-9.0001 1.32,0.33 2.64,0.66 4,1 1.6126,-1.157 1.6126,-1.157 2.9375,-2.875 2.5325,-2.7837 4.1748,-3.8963 8.0625,-4.125 0,-0.66 0,-1.32 0,-2 0.66,0 1.32,0 2,0 0,-0.66 0,-1.32 0,-2 0.66,0 1.32,0 2,0 0.33,-1.65 0.66,-3.3 1,-5 0.99,0.33 1.98,0.66 3,1 0.062,-0.5981 0.1238,-1.1962 0.1875,-1.8125 0.8125,-2.1875 0.8125,-2.1875 3.0625,-3.5 3.2088,-1.969 4.5129,-4.0009 6.4414,-7.164 1.6344,-1.9027 2.8739,-2.1425 5.3086,-2.5235 0,-0.66 0,-1.32 0,-2 0.66,0 1.32,0 2,0 0,-0.66 0,-1.32 0,-2 0.66,0 1.32,0 2,0 0,-0.66 0,-1.32 0,-2 0.66,0 1.32,0 2,0 0,-0.66 0,-1.32 0,-2 0.66,0 1.32,0 2,0 0,-0.66 0,-1.32 0,-2 0.66,0 1.32,0 2,0 0,-0.66 0,-1.32 0,-2 0.66,0 1.32,0 2,0 0,-0.66 0,-1.32 0,-2 0.66,0 1.32,0 2,0 0,-0.66 0,-1.32 0,-2 0.66,0 1.32,0 2,0 0,-0.66 0,-1.32 0,-2 0.66,0 1.32,0 2,0 0,-0.66 0,-1.32 0,-2 0.66,0 1.32,0 2,0 0,-0.66 0,-1.32 0,-2 0.66,0 1.32,0 2,0 0,-0.66 0,-1.32 0,-2 0.66,0 1.32,0 2,0 0,-0.66 0,-1.32 0,-2 0.66,0 1.32,0 2,0 0,-0.66 0,-1.32 0,-2 0.66,0 1.32,0 2,0 0,-0.66 0,-1.32 0,-2 0.66,0 1.32,0 2,0 -0.33,-1.32 -0.66,-2.64 -1,-4 1.32,0 2.64,0 4,0 0.33,-0.99 0.66,-1.98 1,-3 1.3165,-0.6993 2.6503,-1.3673 4,-2 0.33,-0.66 0.66,-1.32 1,-2 0.66,0 1.32,0 2,0 -0.33,-1.65 -0.66,-3.3 -1,-5 1.65,0.33 3.3,0.66 5,1 0,-0.66 0,-1.32 0,-2 0.66,0 1.32,0 2,0 0,-0.66 0,-1.32 0,-2 0.66,0 1.32,0 2,0 0,-0.66 0,-1.32 0,-2 0.66,0 1.32,0 2,0 0,-0.66 0,-1.32 0,-2 0.66,0 1.32,0 2,0 0,-0.66 0,-1.32 0,-2 0.66,0 1.32,0 2,0 0.2888,-1.2787 0.5775,-2.5575 0.875,-3.875 0.6661,-2.9495 0.9271,-3.927 3.125,-6.125 0.99,0.33 1.98,0.66 3,1 1.1582,-1.0527 1.1582,-1.0527 2,-3 0.99,0 1.98,0 3,0 0,-0.66 0,-1.32 0,-2 0.66,0 1.32,0 2,0 0,-0.66 0,-1.32 0,-2 0.66,0 1.32,0 2,0 0,-0.66 0,-1.32 0,-2 1.9676,-1.86 4.0556,-3.5339 6.1524,-5.2461 2.0956,-1.7139 2.0956,-1.7139 2.8476,-4.7539 2.0625,-0.6875 2.0625,-0.6875 4,-1 0,-0.66 0,-1.32 0,-2 0.66,0 1.32,0 2,0 0,-0.66 0,-1.32 0,-2 0.66,0 1.32,0 2,0 0,-0.66 0,-1.32 0,-2 0.66,0 1.32,0 2,0 0,-0.66 0,-1.32 0,-2 0.66,0 1.32,0 2,0 0,-0.66 0,-1.32 0,-2 0.66,0 1.32,0 2,0 0,-0.66 0,-1.32 0,-2 0.66,0 1.32,0 2,0 0,-0.66 0,-1.32 0,-2 0.66,0 1.32,0 2,0 0,-0.66 0,-1.32 0,-2 0.66,0 1.32,0 2,0 0,-0.66 0,-1.32 0,-2 0.66,0 1.32,0 2,0 0.33,-2.97 0.66,-5.94 1,-9 2.64,0 5.28,0 8,0 0.33,-0.66 0.66,-1.32 1,-2 1.32,0.33 2.64,0.66 4,1 0,-0.66 0,-1.32 0,-2 1.65,-0.33 3.3,-0.66 5,-1 0,-0.33 0,-0.66 0,-1 4.95,0 9.9,0 15,0 0,0.66 0,1.32 0,2 2.97,-0.33 5.94,-0.66 9,-1 0,0.66 0,1.32 0,2 1.1447,-0.1547 1.1447,-0.1547 2.3125,-0.3125 0.8869,0.1032 1.7738,0.2063 2.6875,0.3125 1.8189,2.3833 3,3.9582 3,7 0.66,0 1.32,0 2,0 0,0.66 0,1.32 0,2 0.66,0 1.32,0 2,0 0,0.66 0,1.32 0,2 0.66,0 1.32,0 2,0 0,0.66 0,1.32 0,2 0.66,0 1.32,0 2,0 0,0.66 0,1.32 0,2 0.66,0 1.32,0 2,0 0,0.66 0,1.32 0,2 0.66,0 1.32,0 2,0 0,0.66 0,1.32 0,2 0.66,0 1.32,0 2,0 0,0.66 0,1.32 0,2 0.66,0 1.32,0 2,0 0,0.66 0,1.32 0,2 0.66,0 1.32,0 2,0 0,0.66 0,1.32 0,2 0.66,0 1.32,0 2,0 0,0.66 0,1.32 0,2 0.66,0 1.32,0 2,0 0,0.66 0,1.32 0,2 1.65,-0.33 3.3,-0.66 5,-1 0,1.65 0,3.3 0,5 1.32,0.66 2.64,1.32 4,2 0,0.66 0,1.32 0,2 0.66,0.33 1.32,0.66 2,1 0,0.66 0,1.32 0,2 1.32,0.66 2.64,1.32 4,2 0,0.66 0,1.32 0,2 0.66,0 1.32,0 2,0 0,0.66 0,1.32 0,2 0.66,0 1.32,0 2,0 0,0.66 0,1.32 0,2 0.66,0 1.32,0 2,0 0,0.66 0,1.32 0,2 0.66,0 1.32,0 2,0 0,0.66 0,1.32 0,2 0.66,0 1.32,0 2,0 0,0.66 0,1.32 0,2 0.66,0 1.32,0 2,0 0,0.66 0,1.32 0,2 0.66,0 1.32,0 2,0 0,0.66 0,1.32 0,2 0.66,0 1.32,0 2,0 0,0.66 0,1.32 0,2 0.66,0 1.32,0 2,0 0,0.66 0,1.32 0,2 0.66,0 1.32,0 2,0 0,0.66 0,1.32 0,2 0.66,0 1.32,0 2,0 0,0.66 0,1.32 0,2 1.32,0.33 2.64,0.66 4,1 0,0.66 0,1.32 0,2 0.66,0 1.32,0 2,0 0.6188,0.7838 1.2375,1.5675 1.875,2.375 2.0136,2.4873 3.2115,3.4804 6.125,4.625 0,0.99 0,1.98 0,3 0.66,0 1.32,0 2,0 0.33,1.32 0.66,2.64 1,4 0.66,0 1.32,0 2,0 0,0.66 0,1.32 0,2 0.66,0 1.32,0 2,0 0,0.66 0,1.32 0,2 0.66,0 1.32,0 2,0 0,0.66 0,1.32 0,2 0.66,0 1.32,0 2,0 0,0.66 0,1.32 0,2 0.99,0 1.98,0 3,0 0,0.66 0,1.32 0,2 0.66,0 1.32,0 2,0 0.1238,0.9282 0.1238,0.9282 0.25,1.875 0.5426,2.2519 0.5426,2.2519 2.5,3.1875 0.7425,0.3094 1.485,0.6188 2.25,0.9375 0.8869,0.5363 1.7738,1.0725 2.6875,1.625 2.0074,1.4602 2.0074,1.4602 3.3125,1.375 0,1.65 0,3.3 0,5 1.32,0.33 2.64,0.66 4,1 0,0.66 0,1.32 0,2 0.66,0 1.32,0 2,0 0,0.66 0,1.32 0,2 0.66,0 1.32,0 2,0 0,0.99 0,1.98 0,3 0.66,0 1.32,0 2,0 0,0.66 0,1.32 0,2 0.66,0 1.32,0 2,0 0,0.99 0,1.98 0,3 0.66,0 1.32,0 2,0 0,0.99 0,1.98 0,3 0.66,0 1.32,0 2,0 0,-0.66 0,-1.32 0,-2 0.99,0.33 1.98,0.66 3,1 -0.5734,2.8673 -0.8614,3.8615 -3,6 0.66,0 1.32,0 2,0 2.7476,13.0113 2.4276,26.0076 -4,38.0001 -0.66,0 -1.32,0 -2,0 0,0.66 0,1.32 0,2 -0.66,0 -1.32,0 -2,0 -0.082,0.5775 -0.165,1.155 -0.25,1.75 -0.9557,2.8674 -2.6008,4.168 -4.75,6.25 -0.33,0.99 -0.66,1.98 -1,3 -1.32,0 -2.64,0 -4,0 -0.33,0.99 -0.66,1.98 -1,3 -0.99,0.33 -1.98,0.66 -3,1 0,0.66 0,1.32 0,2 -0.66,0 -1.32,0 -2,0 0,0.66 0,1.32 0,2 -0.66,0 -1.32,0 -2,0 0,0.66 0,1.32 0,2 -0.66,0 -1.32,0 -2,0 0,0.66 0,1.32 0,2 -0.66,0 -1.32,0 -2,0 0,0.66 0,1.32 0,2 -0.66,0 -1.32,0 -2,0 -0.33,1.65 -0.66,3.3 -1,5 -1.65,0.33 -3.3,0.66 -5,1 0,0.66 0,1.32 0,2 -0.66,0 -1.32,0 -2,0 0,0.66 0,1.32 0,2 -0.66,0 -1.32,0 -2,0 0,0.66 0,1.32 0,2 -0.66,0 -1.32,0 -2,0 0,0.66 0,1.32 0,2 -0.66,0 -1.32,0 -2,0 0,0.66 0,1.32 0,2 -0.66,0 -1.32,0 -2,0 0,0.66 0,1.32 0,2 -0.66,0 -1.32,0 -2,0 -0.2681,0.5775 -0.5362,1.155 -0.8125,1.75 -1.2168,2.3055 -2.4908,4.2706 -4.1875,6.25 -0.66,0 -1.32,0 -2,0 0,0.66 0,1.32 0,2 -1.32,0.33 -2.64,0.66 -4,1 0,0.66 0,1.32 0,2 -0.66,0 -1.32,0 -2,0 0,0.66 0,1.32 0,2 -0.66,0 -1.32,0 -2,0 0,0.66 0,1.3199 0,1.9999 -0.66,0 -1.32,0 -2,0 0,0.66 0,1.32 0,2 -0.66,0 -1.32,0 -2,0 0,0.66 0,1.32 0,2 -0.66,0 -1.32,0 -2,0 0,0.66 0,1.32 0,2 -0.66,0 -1.32,0 -2,0 0,0.66 0,1.32 0,2 -0.66,0 -1.32,0 -2,0 0,0.66 0,1.32 0,2 -0.66,0 -1.32,0 -2,0 0,0.66 0,1.32 0,2 -0.66,0 -1.32,0 -2,0 0,0.66 0,1.32 0,2 0.66,0 1.32,0 2,0 -0.33,0.99 -0.66,1.98 -1,3 -1.32,-0.33 -2.64,-0.66 -4,-1 0,0.66 0,1.32 0,2 -0.66,0 -1.32,0 -2,0 0,0.66 0,1.32 0,2 -0.66,0 -1.32,0 -2,0 0,0.66 0,1.32 0,2 -0.66,0 -1.32,0 -2,0 0,0.66 0,1.32 0,2 -1.32,0.66 -2.64,1.32 -4,2 0,0.66 0,1.32 0,2 -0.66,0 -1.32,0 -2,0 0,0.66 0,1.32 0,2 -0.66,0 -1.32,0 -2,0 0,0.66 0,1.32 0,2 -0.66,0 -1.32,0 -2,0 0,0.66 0,1.32 0,2 -0.66,0 -1.32,0 -2,0 0,0.66 0,1.32 0,2 -0.66,0 -1.32,0 -2,0 0,0.66 0,1.32 0,2 -0.66,0 -1.32,0 -2,0 0,0.66 0,1.32 0,2 -1.32,0.33 -2.64,0.66 -4,1 0,0.66 0,1.32 0,2 -0.66,0 -1.32,0 -2,0 0,0.99 0,1.98 0,3 -5.3488,5 -5.3488,5 -8,5 -0.33,1.32 -0.66,2.64 -1,4 -0.99,0 -1.98,0 -3,0 -0.33,1.32 -0.66,2.64 -1,4 -0.66,0 -1.32,0 -2,0 0.33,1.65 0.66,3.3 1,5 -1.65,-0.33 -3.3,-0.66 -5,-1 0,0.66 0,1.32 0,2 -0.66,0 -1.32,0 -2,0 0,0.66 0,1.32 0,2 -0.66,0 -1.32,0 -2,0 0,0.66 0,1.32 0,2 -0.66,0 -1.32,0 -2,0 0,0.66 0,1.32 0,2 -0.66,0 -1.32,0 -2,0 0,0.66 0,1.32 0,2 -0.66,0 -1.32,0 -2,0 0,0.66 0,1.32 0,2 -0.66,0 -1.32,0 -2,0 0.33,1.65 0.66,3.3 1,5 -1.65,-0.33 -3.3,-0.66 -5,-1 0,0.66 0,1.32 0,2 -0.66,0 -1.32,0 -2,0 -0.2475,0.6394 -0.495,1.2788 -0.75,1.9375 -1.25,2.0625 -1.25,2.0625 -3.375,2.8125 -0.9281,0.1238 -0.9281,0.1238 -1.875,0.25 0,0.66 0,1.32 0,2 -0.66,0 -1.32,0 -2,0 0.33,0.99 0.66,1.98 1,3 -1.65,0.33 -3.3,0.66 -5,1 0,0.66 0,1.32 0,2 -0.66,0 -1.32,0 -2,0 0,0.66 0,1.32 0,2 -0.66,0 -1.32,0 -2,0 0,0.66 0,1.32 0,2 -0.66,0 -1.32,0 -2,0 0,0.66 0,1.32 0,2 -0.66,0 -1.32,0 -2,0 0,0.66 0,1.32 0,2 -0.66,0 -1.32,0 -2,0 0,0.66 0,1.32 0,2 -0.66,0 -1.32,0 -2,0 0,0.66 0,1.32 0,2 -0.66,0 -1.32,0 -2,0 -0.33,1.32 -0.66,2.64 -1,4 -0.99,0 -1.98,0 -3,0 0,0.66 0,1.32 0,2 -0.66,0 -1.32,0 -2,0 0,0.66 0,1.32 0,2 -0.66,0 -1.32,0 -2,0 0,0.66 0,1.32 0,2 -0.99,0 -1.98,0 -3,0 0,0.66 0,1.32 0,2 -0.66,0 -1.32,0 -2,0 0,0.66 0,1.32 0,2 -0.66,0 -1.32,0 -2,0 -0.082,0.7838 -0.165,1.5675 -0.25,2.375 -0.75,2.625 -0.75,2.625 -2.5,3.8125 -0.7425,0.2682 -1.485,0.5363 -2.25,0.8125 -0.825,0.33 -1.65,0.66 -2.5,1 -0.825,0.33 -1.65,0.66 -2.5,1 -1.3405,0.6522 -2.6766,1.3138 -4,2 0,0.66 0,1.32 0,2 -0.66,0 -1.32,0 -2,0 0,0.66 0,1.32 0,2 -0.66,0 -1.32,0 -2,0 0,0.66 0,1.32 0,2 -0.99,0 -1.98,0 -3,0 0,0.66 0,1.32 0,2 -1.3178,1.0203 -2.6521,2.0198 -4,3 -0.33,0.66 -0.66,1.32 -1,2 -0.99,-0.33 -1.98,-0.66 -3,-1 0,0.66 0,1.32 0,2 -0.66,0 -1.32,0 -2,0 0,0.66 0,1.32 0,2 -0.99,0 -1.98,0 -3,0 0,0.66 0,1.32 0,2 -0.99,0 -1.98,0 -3,0 0,0.66 0,1.32 0,2 -0.66,0 -1.32,0 -2,0 0,0.66 0,1.32 0,2 -0.99,0 -1.98,0 -3,0 0,0.66 0,1.32 0,2 -0.99,0 -1.98,0 -3,0 0,0.66 0,1.32 0,2 -0.66,0 -1.32,0 -2,0 0,0.66 0,1.32 0,2 -6.75,4 -6.75,4 -9,4 0,0.66 0,1.32 0,2 -2.6474,1.4607 -3.8944,2 -7,2 0.495,0.6188 0.99,1.2375 1.5,1.875 1.5,2.125 1.5,2.125 1.5,4.125 -0.99,0 -1.98,0 -3,0 -0.66,0.66 -1.32,1.32 -2,2 -4.4009,0.8002 -8.5421,1 -13,1 0,0.66 0,1.32 0,2 -0.99,0 -1.98,0 -3,0 0,0.66 0,1.32 0,2 -0.99,0 -1.98,0 -3,0 0,0.66 0,1.32 0,2 -1.32,0 -2.64,0 -4,0 0.33,1.32 0.66,2.64 1,4 -0.66,0 -1.32,0 -2,0 0,-0.66 0,-1.32 0,-2 -0.66,0 -1.32,0 -2,0 -0.33,1.65 -0.66,3.3 -1,5 -1.98,-0.33 -3.96,-0.66 -6,-1 0,0.66 0,1.32 0,2 -1.32,0 -2.64,0 -4,0 0,0.66 0,1.32 0,2 -0.99,0.33 -1.98,0.66 -3,1 0.33,1.65 0.66,3.3 1,5 -0.99,0.33 -1.98,0.66 -3,1 -0.1856,-0.959 -0.1856,-0.959 -0.375,-1.9375 -0.2062,-0.6806 -0.4125,-1.3612 -0.625,-2.0625 -0.66,-0.33 -1.32,-0.66 -2,-1 0,1.65 0,3.3 0,5 -1.32,0 -2.64,0 -4,0 0,0.66 0,1.32 0,2 -2.64,-0.33 -5.28,-0.66 -8,-1 0,0.66 0,1.32 0,2 -1.32,0 -2.64,0 -4,0 0.33,1.32 0.66,2.64 1,4 -3.3333,0 -6.6666,0 -10,0 0,0.66 0,1.32 0,2 -0.8946,0.3146 -1.7892,0.6291 -2.7109,0.9532 -8.0512,2.8496 -16.0275,5.8111 -23.8906,9.1523 -2.6232,0.9784 -4.6221,1.0532 -7.3985,0.8945 0,0.66 0,1.32 0,2 -0.7824,0.205 -1.5649,0.41 -2.3711,0.6211 -1.0119,0.2694 -2.0238,0.5389 -3.0664,0.8164 -1.0093,0.2669 -2.0186,0.5337 -3.0586,0.8086 -2.4214,0.5137 -2.4214,0.5137 -3.5039,1.7539 -1.6661,0.041 -3.3338,0.043 -5,0 0,0.66 0,1.32 0,2 0.66,0 1.32,0 2,0 -0.33,0.99 -0.66,1.98 -1,3 -1.9995,0.043 -4.0004,0.041 -6,0 -0.33,-0.33 -0.66,-0.66 -1,-1 -2.3329,-0.041 -4.667,-0.042 -7,0 0,0.66 0,1.32 0,2 -1.65,0.33 -3.3,0.66 -5,1 0.33,0.99 0.66,1.98 1,3 -1,1 -1,1 -4.5625,1.0625 -1.1343,-0.021 -2.2687,-0.041 -3.4375,-0.062 0,-0.66 0,-1.32 0,-2 -0.99,-0.33 -1.98,-0.66 -3,-1 0,0.66 0,1.32 0,2 -2.64,0.33 -5.28,0.66 -8,1 0,0.33 0,0.66 0,1 -3.3,0 -6.6,0 -10,0 0,0.66 0,1.32 0,2 -3.63,0 -7.26,0 -11,0 0,0.66 0,1.32 0,2 -3.63,0 -7.26,0 -11,0 0,0.66 0,1.32 0,2 -4.29,0.33 -8.58,0.66 -13,1 0,0.33 0,0.66 0,1 -6.6,0.33 -13.2,0.66 -20,1 0,1.32 0,2.64 0,4 -2.31,0 -4.62,0 -7,0 -0.33,-0.66 -0.66,-1.32 -1,-2 -21.45,0 -42.9,0 -65,0 0,0.66 0,1.32 0,2 -3.3,0 -6.6,0 -10,0 -0.33,-0.99 -0.66,-1.98 -1,-3 0.33,-0.66 0.66,-1.32 1,-2 -5.94,0 -11.88,0 -18,0 0,-0.66 0,-1.32 0,-2 -2.9706,0.3423 -2.9706,0.3423 -6,1 -0.33,0.66 -0.66,1.32 -1,2 -1.6033,0.081 -3.2078,0.1393 -4.8125,0.1875 -0.8933,0.035 -1.7866,0.07 -2.707,0.1055 -2.8969,-0.3422 -3.706,-1.0469 -5.4805,-3.293 0,0.66 0,1.32 0,2 -2.4375,-0.375 -2.4375,-0.375 -5,-1 -0.33,-0.66 -0.66,-1.32 -1,-2 -2.0246,-0.6521 -2.0246,-0.6521 -4,-1 0,-0.66 0,-1.32 0,-2 -4.29,0 -8.58,0 -13,0 0,-0.33 0,-0.66 0,-1 -3.63,-0.33 -7.26,-0.66 -11,-1 0,-0.33 0,-0.66 0,-1 -5.61,0 -11.22,0 -17,0 0,-0.66 0,-1.32 0,-2 -0.9281,0.041 -1.8562,0.082 -2.8125,0.125 -3.1875,-0.125 -3.1875,-0.125 -6.1875,-2.125 0,-0.66 0,-1.32 0,-2 -1.65,-0.33 -3.3,-0.66 -5,-1 0,-0.66 0,-1.32 0,-2 -0.99,0.33 -1.98,0.66 -3,1 0.66,0.99 1.32,1.98 2,3 -3.1055,0 -4.3526,-0.5393 -7,-2 0,-0.99 0,-1.98 0,-3 -3.6508,-1.6106 -7.0507,-2.4489 -11,-3 0,-0.66 0,-1.32 0,-2 -0.7425,0.021 -1.485,0.041 -2.25,0.062 -2.4546,-0.056 -4.4111,-0.3695 -6.75,-1.0625 -0.33,0.99 -0.66,1.98 -1,3 -0.66,-0.33 -1.32,-0.66 -2,-1 0,-1.65 0,-3.3 0,-5 -1.1447,0.1238 -1.1447,0.1238 -2.3125,0.25 -5.2786,-0.3578 -9.8034,-2.3033 -14.6875,-4.25 0,0.99 0,1.98 0,3 -5.5,-1.4666 -5.5,-1.4666 -7.875,-4 -1.125,-2 -1.125,-2 -1.125,-4 -1.65,0 -3.3,0 -5,0 0,-0.66 0,-1.32 0,-2 -1.6397,0.062 -1.6397,0.062 -3.3125,0.125 -3.6875,-0.125 -3.6875,-0.125 -6.6875,-2.125 -0.33,0.66 -0.66,1.32 -1,2 -1.5,-1.3125 -1.5,-1.3125 -3,-3 0,-0.99 0,-1.98 0,-3 -0.8043,0.021 -1.6087,0.041 -2.4375,0.062 -2.5625,-0.062 -2.5625,-0.062 -3.5625,-1.0625 -0.33,1.32 -0.66,2.64 -1,4 -0.99,-0.33 -1.98,-0.66 -3,-1 0,-1.65 0,-3.3 0,-5 -0.99,-0.33 -1.98,-0.66 -3,-1 0,-0.66 0,-1.32 0,-2 -1.32,0 -2.64,0 -4,0 0,-0.66 0,-1.32 0,-2 -1.65,0 -3.3,0 -5,0 0,-0.66 0,-1.32 0,-2 -5.4844,-0.7433 -5.4844,-0.7433 -11,-1 -0.33,-1.65 -0.66,-3.3 -1,-5 -0.99,0 -1.98,0 -3,0 0,-0.66 0,-1.32 0,-2 -1.32,0 -2.64,0 -4,0 0,-0.66 0,-1.32 0,-2 -0.553,-0.1121 -1.106,-0.2243 -1.6757,-0.3398 -2.7128,-0.7705 -5.0095,-1.9253 -7.5118,-3.2227 -2.7662,-1.6724 -2.7662,-1.6724 -5.8125,-2.4375 -0.99,0.33 -1.98,0.66 -3,1 -0.99,-0.33 -1.98,-0.66 -3,-1 0,-0.66 0,-1.32 0,-2 -1.65,0 -3.3,0 -5,0 -0.33,-0.99 -0.66,-1.98 -1,-3 0.66,-0.33 1.32,-0.66 2,-1 -0.66,-0.33 -1.32,-0.66 -2,-1 0,-0.66 0,-1.32 0,-2 -0.5362,-0.1031 -1.0725,-0.2062 -1.625,-0.3125 -3,-0.8684 -5.6129,-2.2437 -8.375,-3.6875 0,-0.66 0,-1.32 0,-2 -0.6187,-0.1443 -1.2375,-0.2887 -1.875,-0.4375 -2.125,-0.5625 -2.125,-0.5625 -4.125,-1.5625 0,-0.66 0,-1.32 0,-2 -1.32,0 -2.64,0 -4,0 0,-0.66 0,-1.32 0,-2 -0.7425,0.1857 -1.485,0.3713 -2.25,0.5625 -3.5189,0.5599 -5.6083,0.01 -8.75,-1.5625 -0.3333,-2 -0.6666,-4 -1,-6 -0.66,-0.33 -1.32,-0.66 -2,-1 0,-0.66 0,-1.32 0,-2 -0.66,0 -1.32,0 -2,0 0,-0.66 0,-1.32 0,-2 -0.66,0.33 -1.32,0.66 -2,1 0,0.66 0,1.32 0,2 -0.99,0 -1.98,0 -3,0 0.33,-1.65 0.66,-3.3 1,-5 -0.66,0 -1.32,0 -2,0 0,0.66 0,1.32 0,2 -1.32,-0.33 -2.64,-0.66 -4,-1 0,-1.32 0,-2.64 0,-4 -0.66,1.32 -1.32,2.64 -2,4 -0.99,0 -1.98,0 -3,0 0,-1.32 0,-2.64 0,-4 -0.1576,-3.113 -0.1576,-3.113 -1,-6 -2.2576,-1.6723 -4.4095,-2.1146 -7.125,-2.875 -2.875,-1.125 -2.875,-1.125 -4.0625,-3.125 -0.2681,-0.66 -0.5362,-1.32 -0.8125,-2 -0.99,-0.66 -1.98,-1.32 -3,-2 0,-0.66 0,-1.32 0,-2 -0.99,0 -1.98,0 -3,0 0,-0.66 0,-1.32 0,-2 -0.99,0 -1.98,0 -3,0 0,-0.66 0,-1.32 0,-2 -0.66,0 -1.32,0 -2,0 0,-0.66 0,-1.32 0,-2 -1.65,0.33 -3.3,0.66 -5,1 0.33,-1.65 0.66,-3.3 1,-5 -0.99,0 -1.98,0 -3,0 0,-0.66 0,-1.32 0,-2 -1.98,0.33 -3.96,0.66 -6,1 0.33,-1.65 0.66,-3.3 1,-5 -0.66,0 -1.32,0 -2,0 0,-0.66 0,-1.32 0,-2 -0.66,0 -1.32,0 -2,0 0,-0.66 0,-1.32 0,-2 -0.66,0 -1.32,0 -2,0 0,-0.66 0,-1.32 0,-2 -0.66,0 -1.32,0 -2,0 0,-0.66 0,-1.32 0,-2 -0.5981,-0.062 -1.1962,-0.1237 -1.8125,-0.1875 -3.0641,-1.1381 -3.5946,-3.0249 -5.1875,-5.8125 -1.2973,-1.0462 -2.6326,-2.047 -4,-3 -2.25,-2.0625 -2.25,-2.0625 -4,-4 0,-0.66 0,-1.32 0,-2 -0.66,0 -1.32,0 -2,0 0,-0.66 0,-1.32 0,-2 -0.66,0 -1.32,0 -2,0 0,-0.66 0,-1.32 0,-2 -1.1756,0.3094 -1.1756,0.3094 -2.375,0.625 -0.8662,0.1238 -1.7325,0.2475 -2.625,0.375 -0.66,-0.66 -1.32,-1.32 -2,-2 0.375,-2.625 0.375,-2.625 1,-5 -0.66,0 -1.32,0 -2,0 0,-0.66 0,-1.32 0,-2 -0.66,0 -1.32,0 -2,0 0,-0.66 0,-1.32 0,-2 -0.66,0 -1.32,0 -2,0 0,-0.66 0,-1.32 0,-2 -0.66,0 -1.32,0 -2,0 -4,-4.4706 -4,-4.4706 -4,-7 -0.66,0 -1.32,0 -2,0 0,-0.99 0,-1.98 0,-3 -0.66,0 -1.32,0 -2,0 0,-0.66 0,-1.32 0,-2 -0.66,0 -1.32,0 -2,0 -1.2968,-1.5039 -1.2968,-1.5039 -2.75,-3.5625 -2.0716,-2.8396 -4.15,-5.653 -6.375,-8.375 -0.4563,-0.5659 -0.9126,-1.1318 -1.3828,-1.7148 -1.7847,-1.6119 -3.1734,-1.8444 -5.4922,-2.3477 -2.7311,-2.8323 -3.2838,-5.2147 -4,-9 -0.66,-0.33 -1.32,-0.66 -2,-1 0.33,-0.99 0.66,-1.98 1,-3 -0.66,0 -1.32,0 -2,0 0,-0.66 0,-1.32 0,-2 -0.66,0 -1.32,0 -2,0 0,-0.99 0,-1.98 0,-3 -0.66,0 -1.32,0 -2,0 0,-0.99 0,-1.98 0,-3 -0.66,0 -1.32,0 -2,0 0,-0.66 0,-1.32 0,-2 -0.5981,0.2063 -1.1962,0.4125 -1.8125,0.625 -2.1875,0.375 -2.1875,0.375 -5.1875,-1.625 0.33,-2.97 0.66,-5.94 1,-9 -0.66,0 -1.32,0 -2,0 0,-0.66 0,-1.32 0,-2 -0.66,0 -1.32,0 -2,0 -2,-2.9999 -2,-2.9999 -2,-5.9999 -0.66,0 -1.32,0 -2,0 0,-0.99 0,-1.98 0,-3 -0.66,0 -1.32,0 -2,0 0,-0.99 0,-1.98 0,-3 -2.31,-0.66 -4.62,-1.32 -7,-2 -0.3333,-1.3333 -0.6666,-2.6666 -1,-4 -0.2268,-0.6806 -0.4537,-1.3612 -0.6875,-2.0625 -0.3125,-1.9375 -0.3125,-1.9375 1.6875,-4.9375 -0.66,0 -1.32,0 -2,0 -4,-6.625 -4,-6.625 -4,-10 -1.65,0.33 -3.3,0.66 -5,1 -4,-6.75 -4,-6.75 -4,-9 0.66,0 1.32,0 2,0 0.33,-0.66 0.66,-1.32 1,-2 -0.66,0 -1.32,0 -2,0 0,-1.32 0,-2.64 0,-4 -0.66,0 -1.32,0 -2,0 0,-1.32 0,-2.64 0,-4 -0.66,0 -1.32,0 -2,0 0,-1.32 0,-2.64 0,-4 -0.66,0 -1.32,0 -2,0 0,-1.32 0,-2.64 0,-4 -0.66,0 -1.32,0 -2,0 0,0.66 0,1.32 0,2 -0.99,0 -1.98,0 -3,0 -0.6509,-1.2473 -1.2955,-2.498 -1.9375,-3.75 -0.3596,-0.6961 -0.7193,-1.3922 -1.0898,-2.1093 -0.9283,-2.0429 -1.5043,-3.9518 -1.9727,-6.1407 -0.99,0 -1.98,0 -3,0 0.99,-3.63 1.98,-7.26 3,-11.0001 -0.66,0 -1.32,0 -2,0 0,-1.65 0,-3.3 0,-5 -0.66,0 -1.32,0 -2,0 0,-1.65 0,-3.3 0,-5 -0.66,0 -1.32,0 -2,0 -0.66,-0.99 -1.32,-1.98 -2,-3 -0.9809,-1.0187 -1.977,-2.0235 -3,-3 1.485,-1.485 1.485,-1.485 3,-3 -1.98,0.66 -3.96,1.32 -6,2 0.3094,-0.5775 0.6188,-1.155 0.9375,-1.75 1.9356,-4.0674 1.9356,-4.0674 1.3907,-8.4062 -0.5337,-1.1602 -0.5337,-1.1602 -1.0782,-2.3438 -2.0773,-4.8328 -3.3318,-9.6249 -4.5234,-14.7382 -0.626,-2.3793 -1.3676,-4.4216 -2.4141,-6.6368 -1.3886,-3.3061 -1.5719,-5.5788 -1.3125,-9.125 -0.66,0 -1.32,0 -2,0 0,-2.31 0,-4.62 0,-7 -0.66,0 -1.32,0 -2,0 0,-2.31 0,-4.62 0,-7 -1.65,0.33 -3.3,0.66 -5,1 0,-2.64 0,-5.28 0,-8 0.66,0 1.32,0 2,0 0.33,-0.66 0.66,-1.32 1,-2 -1.65,0.33 -3.3,0.66 -5,1 -0.33,-1.65 -0.66,-3.3 -1,-5 0.99,0 1.98,0 3,0 -0.66,-4.29 -1.32,-8.58 -2,-13 -0.33,0 -0.66,0 -1,0 -0.33,-3.3 -0.66,-6.6 -1,-10 -0.33,0 -0.66,0 -1,0 -0.33,-3.3 -0.66,-6.6 -1,-10 -1.32,0 -2.64,0 -4,0 0,-1.98 0,-3.96 0,-6 0.66,0 1.32,0 2,0 -0.163,-0.5662 -0.3259,-1.1324 -0.4939,-1.7158 -0.5229,-2.3602 -0.62,-4.417 -0.6037,-6.831 0.01,-1.2665 0.01,-1.2665 0.01,-2.5586 0.01,-0.8727 0.017,-1.7454 0.025,-2.6446 0.01,-0.8881 0.01,-1.7763 0.014,-2.6914 0.012,-2.1862 0.028,-4.3724 0.049,-6.5586 -1.65,0 -3.3,0 -5,0 0,-2.97 0,-5.94 0,-9 0.66,-0.33 1.32,-0.66 2,-1 0.4652,-1.8953 0.4652,-1.8953 0.625,-4.0625 0.1237,-1.2993 0.2475,-2.5987 0.375,-3.9375 -1.32,0.33 -2.64,0.66 -4,1 -0.8697,-2.997 -1.1177,-5.6495 -1.0977,-8.7656 0,-0.8894 0.01,-1.7789 0.01,-2.6953 0.013,-1.3806 0.013,-1.3806 0.025,-2.7891 0.01,-1.4038 0.01,-1.4038 0.014,-2.8359 0.012,-2.3048 0.028,-4.6094 0.049,-6.9141 0.66,-0.33 1.32,-0.66 2,-1 0.495,-11.88 0.495,-11.88 1,-24 -0.66,0 -1.32,0 -2,0 0.244,-0.8595 0.244,-0.8595 0.4929,-1.7364 0.5039,-2.2491 0.6277,-4.1814 0.6206,-6.4813 0,-0.8206 -10e-5,-1.6411 -2e-4,-2.4865 -0.01,-0.8762 -0.01,-1.7524 -0.016,-2.6551 0,-0.9044 0,-1.8088 0,-2.7406 -0.01,-2.8834 -0.018,-5.7667 -0.031,-8.6501 0,-1.957 -0.01,-3.914 -0.014,-5.8711 -0.011,-4.7929 -0.028,-9.5859 -0.049,-14.3788 -0.66,-0.33 -1.32,-0.66 -2,-1 0,-2.31 0,-4.62 0,-7 0.99,-0.33 1.98,-0.66 3,-1 0.495,1.485 0.495,1.485 1,3 0.33,-5.94 0.66,-11.88 1,-18.00003 0.66,0 1.32,0 2,0 0,-4.95 0,-9.9 0,-15 0.66,0 1.32,0 2,0 0,-3.96 0,-7.92 0,-12 0.33,0 0.66,0 1,0 0.33,-3.63 0.66,-7.26 1,-11 0.66,0 1.32,0 2,0 -0.495,-4.455 -0.495,-4.455 -1,-9 0.66,0 1.32,0 2,0 0.33,-2.31 0.66,-4.62 1,-7 0.66,0 1.32,0 2,0 0,-2.97 0,-5.94 0,-9 0.66,0 1.32,0 2,0 0,-2.64 0,-5.28 0,-8 0.66,0 1.32,0 2,0 0,-1.98 0,-3.96 0,-6 0.66,0 1.32,0 2,0 -0.041,-1.0107 -0.082,-2.0213 -0.125,-3.0625 0.1307,-4.1183 0.8575,-7.0558 2.125,-10.9375 0.66,0 1.32,0 2,0 -0.041,-0.8663 -0.082,-1.7325 -0.125,-2.625 0.1296,-3.4986 0.8852,-6.1206 2.125,-9.375 0.66,0 1.32,0 2,0 -0.33,-0.99 -0.66,-1.98 -1,-3 -0.66,0.33 -1.32,0.66 -2,1 0,-1.65 0,-3.3 0,-5 1.65,0.33 3.3,0.66 5,1 0.082,-1.0932 0.165,-2.1863 0.25,-3.3125 0.665,-5.5288 2.7146,-10.5375 4.75,-15.6875 0.66,0 1.32,0 2,0 0,-1.65 0,-3.3 0,-5 0.66,0 1.32,0 2,0 0,-1.65 0,-3.3 0,-5 0.66,0 1.32,0 2,0 0,-1.65 0,-3.3 0,-5 0.66,0 1.32,0 2,0 0,-1.32 0,-2.64 0,-4 0.66,0 1.32,0 2,0 0,-1.65 0,-3.3 0,-5 0.66,0 1.32,0 2,0 0,-1.65 0,-3.3 0,-5 0.66,0 1.32,0 2,0 0,-1.32 0,-2.64 0,-4 0.66,0 1.32,0 2,0 0,-1.32 0,-2.64 0,-4 0.66,0 1.32,0 2,0 0,-1.32 0,-2.64 0,-4 0.66,0 1.32,0 2,0 0,-1.32 0,-2.64 0,-4 0.66,0 1.32,0 2,0 0,-1.32 0,-2.64 0,-4 0.66,0 1.32,0 2,0 0,-1.32 0,-2.64 0,-4 0.66,0 1.32,0 2,0 0,-0.99 0,-1.98 0,-3 0.66,0 1.32,0 2,0 0,-1.32 0,-2.64 0,-4 0.66,0 1.32,0 2,0 0,-0.99 0,-1.98 0,-3 0.66,0 1.32,0 2,0 0,-1.32 0,-2.64 0,-4 0.66,0 1.32,0 2,0 0.1121,-0.5621 0.2243,-1.1241 0.3398,-1.7032 0.7508,-2.612 1.8719,-4.6916 3.2227,-7.0468 0.455,-0.7993 0.9101,-1.5985 1.3789,-2.4219 0.3493,-0.6033 0.6987,-1.2066 1.0586,-1.8281 -0.33,-0.33 -0.66,-0.66 -1,-1 0.75,-1.9375 0.75,-1.9375 2,-4 2.125,-0.75 2.125,-0.75 4,-1 0,-0.99 0,-1.98 0,-3 0.66,0 1.32,0 2,0 -0.33,-1.98 -0.66,-3.96 -1,-6 0.6394,-0.1238 1.2788,-0.2475 1.9375,-0.375 1.0209,-0.3094 1.0209,-0.3094 2.0625,-0.625 0.33,-0.66 0.66,-1.32 1,-2 0.66,0 1.32,0 2,0 0,-0.99 0,-1.98 0,-3 0.66,0 1.32,0 2,0 0,-0.99 0,-1.98 0,-3 0.66,0 1.32,0 2,0 -0.2062,-0.6188 -0.4125,-1.2375 -0.625,-1.875 -0.1237,-0.7013 -0.2475,-1.4025 -0.375,-2.125 0.66,-0.66 1.32,-1.32 2,-2 0,-0.99 0,-1.98 0,-3 1.65,0.33 3.3,0.66 5,1 0,-0.99 0,-1.98 0,-3 0.66,0 1.32,0 2,0 0,-0.66 0,-1.32 0,-2 0.66,0 1.32,0 2,0 0,-0.66 0,-1.32 0,-2 0.66,0 1.32,0 2,0 -0.33,-1.65 -0.66,-3.3 -1,-5 4.75,-3 4.75,-3 7,-3 0,-0.66 0,-1.32 0,-2 0.66,0 1.32,0 2,0 -0.66,-1.32 -1.32,-2.64 -2,-4 1.98,-0.66 3.96,-1.32 6,-2 0,-0.66 0,-1.32 0,-2 0.66,0 1.32,0 2,0 0,-2.31 0,-4.62 0,-7 1.65,-0.33 3.3,-0.66 5,-1 0,-0.66 0,-1.32 0,-2 0.99,-0.33 1.98,-0.66 3,-1 0.33,-0.66 0.66,-1.32 1,-2 0.66,0 1.32,0 2,0 0,-0.66 0,-1.32 0,-2 0.66,0 1.32,0 2,0 0.33,-0.99 0.66,-1.98 1,-3 1.4375,-2.1875 1.4375,-2.1875 3,-4 0.66,0 1.32,0 2,0 0,-0.66 0,-1.32 0,-2 1.32,-0.33 2.64,-0.66 4,-1 0,-0.99 0,-1.98 0,-3 1.32,-0.33 2.64,-0.66 4,-1 -0.99,-3.465 -0.99,-3.465 -2,-7 0.9281,0.7425 0.9281,0.7425 1.875,1.5 1.9638,1.6922 1.9638,1.6922 4.125,1.5 0,-0.66 0,-1.32 0,-2 0.66,0 1.32,0 2,0 0,-0.66 0,-1.32 0,-2 0.66,0 1.32,0 2,0 0,-0.66 0,-1.32 0,-2 0.66,0 1.32,0 2,0 0,-0.66 0,-1.32 0,-2 0.66,0 1.32,0 2,0 0,-0.66 0,-1.32 0,-2 0.66,0 1.32,0 2,0 0.33,-1.32 0.66,-2.64 1,-4 0.99,0 1.98,0 3,0 0,-0.66 0,-1.32 0,-2 0.99,0 1.98,0 3,0 0,-0.66 0,-1.32 0,-2 0.66,0 1.32,0 2,0 0,-0.66 0,-1.32 0,-2 0.66,0 1.32,0 2,0 0,-0.66 0,-1.32 0,-2 0.66,0 1.32,0 2,0 0,-0.66 0,-1.32 0,-2 0.66,0 1.32,0 2,0 0,-0.66 0,-1.32 0,-2 0.66,-0.66 1.32,-1.32 2,-2 1.32,0 2.64,0 4,0 0,-0.66 0,-1.32 0,-2 0.66,0 1.32,0 2,0 -0.33,-1.65 -0.66,-3.3 -1,-5 1.0725,-0.1444 2.145,-0.2888 3.25,-0.4375 2.6666,-0.4 5.164,-0.8385 7.75,-1.5625 0,-0.66 0,-1.32 0,-2 0.66,0 1.32,0 2,0 0,-0.66 0,-1.32 0,-2 0.99,-0.33 1.98,-0.66 3,-1 -0.33,-1.65 -0.66,-3.3 -1,-5 2.3856,0.5758 4.6668,1.2222 7,2 0,-0.66 0,-1.32 0,-2 0.99,0 1.98,0 3,0 0,-0.66 0,-1.32 0,-2 0.66,0 1.32,0 2,0 0,-0.66 0,-1.32 0,-2 0.99,0 1.98,0 3,0 0,-0.66 0,-1.32 0,-2 0.99,0 1.98,0 3,0 0,-0.66 0,-1.32 0,-2 0.99,0 1.98,0 3,0 0,-0.66 0,-1.32 0,-2 1,-1 2,-2 3,-3 0,-0.66 0,-1.32 0,-2 1.98,0.33 3.96,0.66 6,1 0,-0.66 0,-1.32 0,-2 0.99,0 1.98,0 3,0 0,-1.65 0,-3.3 0,-5 0.9075,0.021 1.815,0.041 2.75,0.062 2.6767,-0.052 4.7199,-0.284 7.25,-1.0625 0,-0.66 0,-1.32 0,-2 1.32,0 2.64,0 4,0 0,-0.66 0,-1.32 0,-2 0.99,0 1.98,0 3,0 0,-0.66 0,-1.32 0,-2 -0.66,0 -1.32,0 -2,0 -0.33,-0.99 -0.66,-1.98 -1,-3 5.625,-2.125 5.625,-2.125 9,-1 0.33,0.33 0.66,0.66 1,1 0.33,-1.65 0.66,-3.3 1,-5 0.99,0.66 1.98,1.32 3,2 4.7501,-0.4822 9.0719,-3.5421 13.2227,-5.7227 2.7773,-1.2773 2.7773,-1.2773 5.7773,-1.2773 0,-0.66 0,-1.32 0,-2 1.32,-0.33 2.64,-0.66 4,-1 0,-1.32 0,-2.64 0,-4 1.32,0 2.64,0 4,0 0.33,0.33 0.66,0.66 1,1 0,-1.32 0,-2.64 0,-4 1.65,0.33 3.3,0.66 5,1 0,-0.66 0,-1.32 0,-2 3.3,0.33 6.6,0.66 10,1 0,-0.66 0,-1.32 0,-2 1.65,-0.33 3.3,-0.66 5,-1 0,-0.33 0,-0.66 0,-1 1.65,0 3.3,0 5,0 0,-1.65 0,-3.3 0,-5 0.99,0.33 1.98,0.66 3,1 0.33,0 0.66,0 1,0 3,0 6,0 9,0 0,-0.66 0,-1.32 0,-2 1.98,0 3.96,0 6,0 0,-0.66 0,-1.32 0,-2 1.98,0 3.96,0 6,0 0.66,-1.65 1.32,-3.3 2,-5 0.7103,0.012 1.4205,0.023 2.1523,0.035 0.9191,0.01 1.8382,0.018 2.7852,0.027 1.3748,0.017 1.3748,0.017 2.7773,0.035 2.2511,0.1618 2.2511,0.1618 3.2852,-1.0977 2.333,-0.041 4.6671,-0.042 7,0 -0.33,-1.32 -0.66,-2.64 -1,-4 4.5763,-0.1271 4.5763,-0.1271 6.875,0.5625 2.591,0.5335 4.3202,0.1387 6.875,-0.5 1.1988,-0.292 1.1988,-0.292 2.4219,-0.5898 0.9049,-0.234 0.9049,-0.234 1.8281,-0.4727 0.33,-1.32 0.66,-2.64 1,-4 0.66,0.33 1.32,0.66 2,1 0,0.66 0,1.32 0,2 4.1409,0.2097 4.1409,0.2097 8,-1 2.2981,-0.3087 4.5972,-0.5088 6.9063,-0.7187 2.1481,-0.1734 2.1481,-0.1734 4.0937,-1.2813 3.3733,-0.3158 6.7473,-0.5113 10.1289,-0.7187 2.7657,0.036 2.7657,0.036 3.8711,-1.2813 2.6547,-0.4546 5.3219,-0.7024 8,-1 -1.98,-0.33 -3.96,-0.66 -6,-1 0,-0.33 0,-0.66 0,-1 1.7909,-0.1947 3.5828,-0.3805 5.375,-0.5625 0.9978,-0.1044 1.9955,-0.2088 3.0235,-0.3164 2.6015,-0.1211 2.6015,-0.1211 4.6015,0.8789 2.9053,0.099 5.786,0.1398 8.6914,0.1328 0.8605,10e-4 1.7209,0 2.6074,0 1.82,7e-4 3.6399,0 5.4598,-0.01 2.796,0 5.5919,0 8.3879,0.01 1.765,-6e-4 3.53,0 5.2949,0 1.2625,0 1.2625,0 2.5505,0.01 3.8121,0.358 3.8121,0.358 7.0081,-1.1389 2.5114,-0.1 4.9891,-0.1388 7.5,-0.125 1.0538,-0.01 1.0538,-0.01 2.1289,-0.012 5.2445,0.01 5.2445,0.01 6.3711,1.1367 1.3448,0.1167 2.6954,0.1672 4.045,0.1895 0.8575,0.017 1.7151,0.033 2.5987,0.051 0.9323,0.014 1.8646,0.027 2.8251,0.041 1.426,0.028 1.426,0.028 2.8807,0.056 3.0501,0.059 6.1003,0.1116 9.1505,0.1629 4.0106,0.067 8.0209,0.1411 12.0313,0.2188 0.9323,0.014 1.8645,0.027 2.8251,0.041 0.8575,0.017 1.7151,0.033 2.5987,0.051 0.7587,0.013 1.5173,0.025 2.299,0.038 1.7459,0.1515 1.7459,0.1515 2.7459,1.1515 2.4835,0.2111 4.9496,0.3759 7.4375,0.5 7.294,0.3657 7.294,0.3657 9.5625,1.5 3.6339,0.3171 7.2685,0.5117 10.9102,0.7187 3.0898,0.2813 3.0898,0.2813 4.0898,1.2813 1.8472,0.3686 3.7053,0.6827 5.5664,0.9726 1.1247,0.1773 2.2495,0.3545 3.4082,0.5371 1.184,0.1824 2.3681,0.3648 3.5879,0.5528 1.1879,0.1862 2.3758,0.3725 3.5996,0.5644 2.9455,0.4613 5.8914,0.9189 8.8379,1.3731 0,-0.66 0,-1.32 0,-2 0.66,0 1.32,0 2,0 0.33,0.99 0.66,1.98 1,3 2.9484,0.9708 2.9484,0.9708 6.5,1.5625 1.2607,0.2449 2.5214,0.4898 3.8203,0.7421 1.8215,0.3442 1.8215,0.3442 3.6797,0.6954 1.7935,0.3874 3.5856,0.7816 5.375,1.1875 1.1963,0.2681 2.3925,0.5362 3.625,0.8125 0,0.66 0,1.32 0,2 2.31,0 4.62,0 7,0 0,0.66 0,1.32 0,2 2.31,0 4.62,0 7,0 0,0.66 0,1.32 0,2 1.9182,-0.031 1.9182,-0.031 3.875,-0.062 3.875,-0.062 3.875,-0.062 6.125,1.0625 0,-0.66 0,-1.32 0,-2 0.99,0 1.98,0 3,0 0,1.32 0,2.64 0,4 1.6088,0.1546 1.6088,0.1546 3.25,0.3125 3.7591,0.6891 4.8889,1.3985 7.75,3.6875 2.6494,0.7143 2.6494,0.7143 5,1 0,0.66 0,1.32 0,2 1.1138,-0.041 2.2275,-0.082 3.375,-0.125 3.625,0.125 3.625,0.125 5.625,2.125 0,-0.66 0,-1.32 0,-2 0.66,0 1.32,0 2,0 0,0.99 0,1.98 0,3 1.32,0.33 2.64,0.66 4,1 0,0.66 0,1.32 0,2 2.64,-0.33 5.28,-0.66 8,-1 0.33,0.66 0.66,1.32 1,2 1.32,0 2.64,0 4,0 -0.33,-1.65 -0.66,-3.3 -1,-5 1.32,0.33 2.64,0.66 4,1 -0.33,2.31 -0.66,4.62 -1,7 -0.66,0 -1.32,0 -2,0 0,0.66 0,1.32 0,2 1.32,0 2.64,0 4,0 0,0.66 0,1.32 0,2 1.65,0 3.3,0 5,0 0,0.66 0,1.32 0,2 1.0313,-0.3919 2.0625,-0.7838 3.125,-1.1875 4.5456,-0.9531 6.0388,-0.2453 9.875,2.1875 0,0.66 0,1.32 0,2 -1.32,-0.33 -2.64,-0.66 -4,-1 0,0.66 0,1.32 0,2 1.65,0.33 3.3,0.66 5,1 0.33,-0.66 0.66,-1.32 1,-2 0.66,0 1.32,0 2,0 0.33,1.32 0.66,2.64 1,4 0.33,-0.66 0.66,-1.32 1,-2 1.32,0.66 2.64,1.32 4,2 -0.33,1.32 -0.66,2.64 -1,4 1.65,0 3.3,0 5,0 0.66,1.32 1.32,2.64 2,4 1.98,-0.33 3.96,-0.66 6,-1 0,0.66 0,1.32 0,2 1.8389,2.2872 1.8389,2.2872 4.625,2.125 0.7838,-0.041 1.5675,-0.082 2.375,-0.125 0.33,1.65 0.66,3.3 1,5 0.99,0 1.98,0 3,0 0,0.66 0,1.32 0,2 0.99,0 1.98,0 3,0 0.33,-0.33 0.66,-0.66 1,-1 0.99,0.33 1.98,0.66 3,1 1.1875,3.0625 1.1875,3.0625 2,6 1.32,0 2.64,0 4,0 0,0.66 0,1.32 0,2 1.65,-0.33 3.3,-0.66 5,-1 1.32,1.65 2.64,3.3 4,5 1.32,-0.33 2.64,-0.66 4,-1 0,1.32 0,2.64 0,4 0.66,0.33 1.32,0.66 2,1 0.33,0.99 0.66,1.98 1,3 1.9673,1.3812 3.9687,2.7148 6,4 0.66,0.66 1.32,1.32 2,2 0.33,-0.66 0.66,-1.32 1,-2 0.66,0 1.32,0 2,0 0.33,-0.99 0.66,-1.98 1,-3 2.5625,-1.1875 2.5625,-1.1875 5,-2 0,-0.66 0,-1.32 0,-2 0.66,0 1.32,0 2,0 0,-0.66 0,-1.32 0,-2 0.66,0 1.32,0 2,0 0.33,-1.32 0.66,-2.64 1,-4 0.66,0 1.32,0 2,0 -0.33,-1.32 -0.66,-2.64 -1,-4 0.99,-0.33 1.98,-0.66 3,-1 0.66,0.33 1.32,0.66 2,1 0,-0.66 0,-1.32 0,-2 0.66,0 1.32,0 2,0 -0.165,-0.9282 -0.33,-1.8563 -0.5,-2.8125 -0.5,-3.1875 -0.5,-3.1875 -0.5,-6.1875 0.7219,0.1031 1.4438,0.2062 2.1875,0.3125 3.9198,-0.4356 5.1621,-2.5226 7.8125,-5.3125 1.6667,0 3.3334,0 5,0 0,-0.66 0,-1.32 0,-2 0.66,0 1.32,0 2,0 -0.33,-1.32 -0.66,-2.64 -1,-4 0.66,-0.33 1.32,-0.66 2,-1 0.99,0.33 1.98,0.66 3,1 -0.2681,-0.5569 -0.5362,-1.1138 -0.8125,-1.6875 -0.093,-1.1447 -0.093,-1.1447 -0.1875,-2.3125 2.4375,-2.75 2.4375,-2.75 5,-5 0.99,0.33 1.98,0.66 3,1 2.9118,-3.6698 2.9118,-3.6698 4,-8 1.98,-0.495 1.98,-0.495 4,-1 0.33,-1.65 0.66,-3.3 1,-5 1.65,0.33 3.3,0.66 5,1 0,-0.66 0,-1.32 0,-2 0.66,0 1.32,0 2,0 0,-0.66 0,-1.32 0,-2 0.66,0 1.32,0 2,0 0.66,-1.32 1.32,-2.64 2,-4 0.66,0 1.32,0 2,0 0.082,-0.5982 0.165,-1.1963 0.25,-1.8125 0.75,-2.1875 0.75,-2.1875 2.8125,-3.6875 0.6394,-0.495 1.2788,-0.99 1.9375,-1.5 0,-1.32 0,-2.64 0,-4 1.65,0.33 3.3,0.66 5,1 0,-0.66 0,-1.32 0,-2 0.66,0 1.32,0 2,0 0,-0.99 0,-1.98 0,-3 0.66,0 1.32,0 2,0 0,-2.31 0,-4.62 0,-7 0.5569,-0.062 1.1138,-0.1238 1.6875,-0.1875 2.5796,-0.719 2.5796,-0.719 4.8125,-3.3125 2.3656,-2.3656 3.2761,-3.1418 6.5,-3.5 0.33,-1.65 0.66,-3.3 1,-5 1.65,0.33 3.3,0.66 5,1 0,-0.66 0,-1.32 0,-2 0.66,0 1.32,0 2,0 -0.33,-1.65 -0.66,-3.3 -1,-5 0.99,-0.33 1.98,-0.66 3,-1 0.33,-0.99 0.66,-1.98 1,-3 1.65,0.33 3.3,0.66 5,1 0.33,-3.63 0.66,-7.26 1,-11 5,-2 5,-2 8,-2 0,-0.66 0,-1.32 0,-2 1.65,0.33 3.3,0.66 5,1 0,-0.66 0,-1.32 0,-2 0.66,0 1.32,0 2,0 0,-0.66 0,-1.32 0,-2 5.4762,-5.00001 5.4762,-5.00001 8,-5.00001 0,-0.66 0,-1.32 0,-2 -0.66,0 -1.32,0 -2,0 0.3125,-1.9375 0.3125,-1.9375 1,-4 0.99,-0.33 1.98,-0.66 3,-1 -4.4309,-1.8131 -4.4309,-1.8131 -9,-1 -0.1211,-0.6381 -0.2423,-1.2762 -0.3672,-1.9336 -0.2513,-1.2395 -0.2513,-1.2395 -0.5078,-2.5039 -0.1624,-0.8237 -0.3248,-1.6475 -0.4922,-2.4961 -0.2088,-0.6819 -0.4176,-1.3639 -0.6328,-2.0664 -0.66,-0.33 -1.32,-0.66 -2,-1 0,-0.66 0,-1.32 0,-2 -0.66,0 -1.32,0 -2,0 0,-1.32 0,-2.64 0,-4 -0.66,0.33 -1.32,0.66 -2,1 -2.34,-0.2825 -4.675,-0.6125 -7,-1 -0.66,-3.3 -1.32,-6.6 -2,-10 -0.99,-0.33 -1.98,-0.66 -3,-1 0.33,-1.32 0.66,-2.64 1,-4 -1.5778,0.031 -1.5778,0.031 -3.1875,0.062 -3.1395,-0.051 -5.7813,-0.3277 -8.8125,-1.0625 0.33,-1.65 0.66,-3.3 1,-5.00004 -0.66,0 -1.32,0 -2,0 0,-2.31 0,-4.62 0,-7 -0.99,-0.33 -1.98,-0.66 -3,-1 -0.66,-0.33 -1.32,-0.66 -2,-1 0,-0.66 0,-1.32 0,-2 -2.97,0.495 -2.97,0.495 -6,1 -1.6195,-2.57213 -2.0441,-3.6767 -1.625,-6.75 0.2063,-0.7425 0.4125,-1.485 0.625,-2.25 -0.66,0 -1.32,0 -2,0 0,-0.66 0,-1.32 0,-2 -0.66,0 -1.32,0 -2,0 0,-0.66 0,-1.32 0,-2 -1.32,0 -2.64,0 -4,0 -1.5,-1.37501 -1.5,-1.37501 -3,-3.00001 -0.6806,-0.26813 -1.3612,-0.53625 -2.0625,-0.8125 -2.8429,-1.74247 -2.9522,-4.10047 -3.9375,-7.1875 -0.99,-0.33 -1.98,-0.66 -3,-1 0,-0.99 0,-1.98 0,-3 -1.32,0.33 -2.64,0.66 -4,1 -0.165,-0.63938 -0.33,-1.27875 -0.5,-1.9375 -1.2817,-2.2237 -1.2817,-2.2237 -3.414,-2.55078 -2.0217,-0.23932 -4.0544,-0.38065 -6.086,-0.51172 0.66,-0.99 1.32,-1.98 2,-3 -0.33,-0.66 -0.66,-1.32 -1,-2 0.33,-0.99 0.66,-1.98 1,-3 -0.66,0 -1.32,0 -2,0 0,-0.66 0,-1.32 0,-2 -0.9281,-0.18563 -0.9281,-0.18563 -1.875,-0.375 -2.125,-0.625 -2.125,-0.625 -4.125,-2.625 -0.625,-2.625 -0.625,-2.625 -1,-5 -0.7425,0.2475 -1.485,0.495 -2.25,0.75 -2.75,0.25 -2.75,0.25 -5.0625,-1.5625 -1.6875,-2.1875 -1.6875,-2.1875 -1.6875,-4.1875 0.33,-0.33 0.66,-0.66 1,-1 -0.66,-0.33 -1.32,-0.66 -2,-1 0,-0.66 0,-1.32 0,-2 -1.32,0 -2.64,0 -4,0 -0.1856,-0.95907 -0.1856,-0.95907 -0.375,-1.9375 -0.2062,-0.68063 -0.4125,-1.36125 -0.625,-2.0625 -0.66,-0.33 -1.32,-0.66 -2,-1 0.33,-0.66 0.66,-1.32 1,-2 -1.32,0.66 -2.64,1.32 -4,2 -0.1237,-1.17563 -0.1237,-1.17563 -0.25,-2.375 -0.2475,-0.86625 -0.495,-1.7325 -0.75,-2.625 -1.32,-0.66 -2.64,-1.32 -4,-2 0,-3.63 0,-7.26 0,-11 -0.33,0 -0.66,0 -1,0 -0.2358,-5.77807 0.1322,-10.51324 2,-15.99999 0.66,0 1.32,0 2,0 0,-1.32 0,-2.64 0,-4 0.66,0 1.32,0 2,0 0.1032,-0.63938 0.2063,-1.27875 0.3125,-1.9375 0.2269,-0.68063 0.4538,-1.36125 0.6875,-2.0625 1.485,-0.495 1.485,-0.495 3,-1 0,-0.66 0,-1.32 0,-2 3,-2 3,-2 6,-2 0,-0.66 0,-1.32 0,-2 0.99,0 1.98,0 3,0 0,-0.66 0,-1.32 0,-2 1.65,0 3.3,0 5,0 0,-0.66 0,-1.32 0,-2 133.32,0 266.64,0 404,0 0,0.66 0,1.32 0,2 0.99,0 1.98,0 3,0 0,-0.99 0,-1.98 0,-3 z m -424,49.99999 c 1,2 1,2 1,2 z m 99,100.00003 c 0.66,0.66 1.32,1.32 2,2 0,-0.66 0,-1.32 0,-2 -0.66,0 -1.32,0 -2,0 z m 2,2 c 0.66,0.66 1.32,1.32 2,2 0,-0.66 0,-1.32 0,-2 -0.66,0 -1.32,0 -2,0 z m -10,36.00001 c 0.33,0.66 0.66,1.32 1,2 0.33,-0.66 0.66,-1.32 1,-2 -0.66,0 -1.32,0 -2,0 z m -197,71 c 0,0.66 0,1.32 0,2 0.66,-0.33 1.32,-0.66 2,-1 -0.66,-0.33 -1.32,-0.66 -2,-1 z m -435,2 c 0.33,0.66 0.66,1.32 1,2 0.33,-0.66 0.66,-1.32 1,-2 -0.66,0 -1.32,0 -2,0 z m 531,29 c 1,2 1,2 1,2 z m -31,8 c 0,0.66 0,1.32 0,2 0.66,0 1.32,0 2,0 0,-0.66 0,-1.32 0,-2 -0.66,0 -1.32,0 -2,0 z m 297,57 c 1,2 1,2 1,2 z m 40,5 c 0,0.66 0,1.32 0,2 0.66,-0.33 1.32,-0.66 2,-1 -0.66,-0.33 -1.32,-0.66 -2,-1 z m -997,40 c 1,2 1,2 1,2 z m -12,17 c 1,2 1,2 1,2 z m 373,22 c 0.99,1.485 0.99,1.485 2,3 -1.98,0.66 -3.96,1.32 -6,2 0.33,-0.99 0.66,-1.98 1,-3 -3.3,0 -6.6,0 -10,0 0,1.32 0,2.64 0,4 -1.98,0.33 -3.96,0.66 -6,1 0,-0.66 0,-1.32 0,-2 1.65,0 3.3,0 5,0 0,-0.33 0,-0.66 0,-1 -2.64,0 -5.28,0 -8,0 0,0.66 0,1.32 0,2 -2.64,0 -5.28,0 -8,0 0,0.33 0,0.66 0,1 -2.31,0.33 -4.62,0.66 -7,1 0,0.33 0,0.66 0,1 -1.65,0.33 -3.3,0.66 -5,1 0.99,2.475 0.99,2.475 2,5 -0.99,-0.99 -0.99,-0.99 -2,-2 0,-0.33 0,-0.66 0,-1 -4.4266,-0.305 -4.4266,-0.305 -8.375,1.5 -0.8043,0.7425 -0.8043,0.7425 -1.625,1.5 0.99,0.495 0.99,0.495 2,1 -1.98,1.485 -1.98,1.485 -4,3 0.33,-0.99 0.66,-1.98 1,-3 -1.32,0 -2.64,0 -4,0 0,0.66 0,1.32 0,2 -1.1137,0.2165 -1.1137,0.2165 -2.25,0.4375 -2.2702,0.4644 -4.5076,0.9811 -6.75,1.5625 0,0.66 0,1.32 0,2 -0.5981,0.1444 -1.1962,0.2887 -1.8125,0.4375 -1.749,0.4497 -3.4742,0.9914 -5.1875,1.5625 0,0.66 0,1.32 0,2 -0.7154,0.1044 -1.4308,0.2088 -2.1679,0.3164 -3.1437,0.7588 -5.3842,1.9485 -8.1446,3.6211 -0.883,0.5246 -1.766,1.0493 -2.6757,1.5898 -0.9959,0.729 -0.9959,0.729 -2.0118,1.4727 0,0.66 0,1.32 0,2 -0.6187,0.1444 -1.2375,0.2887 -1.875,0.4375 -2.1576,0.494 -2.1576,0.494 -4.125,1.5625 0,0.66 0,1.32 0,2 -1.65,0.66 -3.3,1.32 -5,2 0,0.66 0,1.32 0,2 -0.99,0 -1.98,0 -3,0 0,0.66 0,1.32 0,2 -0.66,0 -1.32,0 -2,0 0,0.66 0,1.32 0,2 -0.66,0 -1.32,0 -2,0 -0.33,0.99 -0.66,1.98 -1,3 0.33,0.66 0.66,1.32 1,2 -1.65,-0.33 -3.3,-0.66 -5,-1 0,0.66 0,1.32 0,2 -0.66,0 -1.32,0 -2,0 0,0.66 0,1.32 0,2 -0.66,0 -1.32,0 -2,0 0,0.66 0,1.32 0,2 -0.5775,0.2681 -1.155,0.5362 -1.75,0.8125 -2.3055,1.2168 -4.2705,2.4908 -6.25,4.1875 0,0.66 0,1.32 0,2 -0.66,0 -1.32,0 -2,0 0,0.66 0,1.32 0,2 -0.66,0 -1.32,0 -2,0 0,0.66 0,1.32 0,2 -0.66,0 -1.32,0 -2,0 0,0.66 0,1.32 0,2 -0.66,0 -1.32,0 -2,0 0,0.66 0,1.32 0,2 -0.66,0 -1.32,0 -2,0 0,0.66 0,1.32 0,2 -0.66,0 -1.32,0 -2,0 0,0.66 0,1.32 0,2 -0.66,0 -1.32,0 -2,0 -1.5589,1.9131 -1.5589,1.9131 -3.0625,4.3125 -0.5272,0.8005 -1.0544,1.601 -1.5976,2.4258 -1.4699,2.2995 -1.4699,2.2995 -2.3399,5.2617 -0.66,0 -1.32,0 -2,0 -0.66,1.65 -1.32,3.3 -2,5 -0.66,0 -1.32,0 -2,0 0,0.99 0,1.98 0,3 -0.66,0 -1.32,0 -2,0 0,0.99 0,1.98 0,3 -0.66,0 -1.32,0 -2,0 -0.66,0.66 -1.32,1.32 -2,2 0,1.32 0,2.64 0,4 -0.66,0 -1.32,0 -2,0 0,0.66 0,1.32 0,2 -0.66,0 -1.32,0 -2,0 0,0.99 0,1.98 0,3 -0.66,0 -1.32,0 -2,0 0,1.32 0,2.64 0,4 -0.66,0 -1.32,0 -2,0 0,0.99 0,1.98 0,3 -0.66,0 -1.32,0 -2,0 0,0.99 0,1.98 0,3 -0.66,0 -1.32,0 -2,0 0,0.99 0,1.98 0,3 -0.66,0 -1.32,0 -2,0 -0.9816,1.9362 -1.9602,3.874 -2.9375,5.8125 -0.8179,1.6184 -0.8179,1.6184 -1.6523,3.2695 -1.4687,2.8801 -1.4687,2.8801 -2.4102,5.918 -0.6283,1.3002 -1.2757,2.5914 -1.9375,3.875 -3.1759,6.2429 -3.1759,6.2429 -4.0625,13.125 -0.66,0 -1.32,0 -2,0 0,1.65 0,3.3 0,5 -0.66,0 -1.32,0 -2,0 0,1.65 0,3.3 0,5 -0.66,0 -1.32,0 -2,0 -0.33,1.65 -0.66,3.3 -1,5 -0.33,0 -0.66,0 -1,0 0,1.98 0,3.96 0,6 -0.66,0 -1.32,0 -2,0 0,1.98 0,3.96 0,6 -0.66,0 -1.32,0 -2,0 0,1.65 0,3.3 0,5 36.96,0 73.92,0 112,0 0,-1.32 0,-2.64 0,-4 0.66,-0.33 1.32,-0.66 2,-1 -0.33,0.99 -0.66,1.98 -1,3 5.61,0 11.22,0 17,0 0,-0.33 0,-0.66 0,-1 3.63,-0.33 7.26,-0.66 11,-1 0,-0.33 0,-0.66 0,-1 2.97,-0.33 5.94,-0.66 9,-1 0,-0.66 0,-1.32 0,-2 2.31,0 4.62,0 7,0 0,-0.66 0,-1.32 0,-2 2.31,0 4.62,0 7,0 0,-0.66 0,-1.32 0,-2 2.64,0 5.28,0 8,0 0,-0.66 0,-1.32 0,-2 1.65,0 3.3,0 5,0 0,-0.66 0,-1.32 0,-2 1.65,0 3.3,0 5,0 0,-0.66 0,-1.32 0,-2 1.65,0 3.3,0 5,0 0,-0.66 0,-1.32 0,-2 1.32,0 2.64,0 4,0 0,-0.66 0,-1.32 0,-2 1.32,0 2.64,0 4,0 0,-0.66 0,-1.32 0,-2 0.7013,-0.1238 1.4025,-0.2475 2.125,-0.375 3.0516,-0.6634 5.9284,-1.5971 8.875,-2.625 0,-0.66 0,-1.32 0,-2 1.3613,-0.4331 1.3613,-0.4331 2.75,-0.875 2.5721,-0.8903 4.8635,-1.84 7.25,-3.125 0,-0.66 0,-1.32 0,-2 0.66,-0.33 1.32,-0.66 2,-1 -0.6393,-0.2888 -1.2787,-0.5775 -1.9375,-0.875 -2.0625,-1.125 -2.0625,-1.125 -3.0625,-3.125 0.99,0 1.98,0 3,0 0,0.66 0,1.32 0,2 1.98,0.33 3.96,0.66 6,1 0,-0.66 0,-1.32 0,-2 0.66,0 1.32,0 2,0 0,-0.66 0,-1.32 0,-2 1.32,0 2.64,0 4,0 0,-0.66 0,-1.32 0,-2 0.66,0 1.32,0 2,0 0,-0.66 0,-1.32 0,-2 0.66,0 1.32,0 2,0 0,-1.65 0,-3.3 0,-5 1.98,0.33 3.96,0.66 6,1 0,-0.66 0,-1.32 0,-2 0.66,0 1.32,0 2,0 0,-0.66 0,-1.32 0,-2 2.475,-0.99 2.475,-0.99 5,-2 0,-0.66 0,-1.32 0,-2 0.66,0 1.32,0 2,0 0,-0.66 0,-1.32 0,-2 1.32,-0.33 2.64,-0.66 4,-1 0,-0.66 0,-1.32 0,-2 0.66,0 1.32,0 2,0 -0.33,-1.32 -0.66,-2.64 -1,-4 0.99,0.33 1.98,0.66 3,1 0.66,-0.33 1.32,-0.66 2,-1 0,-0.66 0,-1.32 0,-2 0.66,0 1.32,0 2,0 0,-0.66 0,-1.32 0,-2 0.66,0 1.32,0 2,0 0,-0.66 0,-1.32 0,-2 0.66,0 1.32,0 2,0 0,-0.66 0,-1.32 0,-2 0.66,0 1.32,0 2,0 0,-0.66 0,-1.32 0,-2 0.66,0 1.32,0 2,0 0,-0.66 0,-1.32 0,-2 0.66,0 1.32,0 2,0 0,-0.66 0,-1.32 0,-2 0.66,0 1.32,0 2,0 0,-0.66 0,-1.32 0,-2 0.66,0 1.32,0 2,0 0,-0.66 0,-1.32 0,-2 0.66,0 1.32,0 2,0 0,-0.66 0,-1.32 0,-2 0.66,0 1.32,0 2,0 0,-0.66 0,-1.32 0,-2 0.66,0 1.32,0 2,0 0,-0.66 0,-1.32 0,-2 0.66,0 1.32,0 2,0 0,-0.66 0,-1.32 0,-2 0.66,0 1.32,0 2,0 0,-0.66 0,-1.32 0,-2 0.66,0 1.32,0 2,0 0.66,-1.32 1.32,-2.64 2,-4 0.66,0 1.32,0 2,0 1.6667,-1.3334 1.6667,-1.3334 3,-3 0,-0.66 0,-1.32 0,-2 0.66,0 1.32,0 2,0 0,-0.66 0,-1.32 0,-2 0.66,0 1.32,0 2,0 0,-0.66 0,-1.32 0,-2 0.66,0 1.32,0 2,0 0,-0.66 0,-1.32 0,-2 0.66,0 1.32,0 2,0 0,-0.66 0,-1.32 0,-2 0.66,0 1.32,0 2,0 0,-0.66 0,-1.32 0,-2 0.66,0 1.32,0 2,0 0,-0.66 0,-1.32 0,-2 0.66,0 1.32,0 2,0 0,-0.66 0,-1.32 0,-2 0.66,0 1.32,0 2,0 0,-0.66 0,-1.32 0,-2 0.66,0 1.32,0 2,0 0,-0.66 0,-1.32 0,-2 0.66,0 1.32,0 2,0 0,-0.66 0,-1.32 0,-2 1.98,-0.99 1.98,-0.99 4,-2 0,-0.66 0,-1.32 0,-2 0.66,0 1.32,0 2,0 0.33,-0.99 0.66,-1.98 1,-3 -0.33,-0.66 -0.66,-1.32 -1,-2 0.66,0 1.32,0 2,0 0,-0.66 0,-1.32 0,-2 0.7632,-0.1238 1.5263,-0.2475 2.3125,-0.375 2.8902,-0.506 2.8902,-0.506 5.6875,-2.625 0,-0.66 0,-1.32 0,-2 -0.66,0 -1.32,0 -2,0 0.33,-0.99 0.66,-1.98 1,-3 0.6188,0.1856 1.2375,0.3712 1.875,0.5625 2.1666,0.6743 2.1666,0.6743 4.125,-0.5625 0,-0.66 0,-1.32 0,-2 0.66,0 1.32,0 2,0 -0.33,-0.66 -0.66,-1.32 -1,-2 0.99,0 1.98,0 3,0 0.66,-1.32 1.32,-2.64 2,-4 0.66,0 1.32,0 2,0 0,-0.66 0,-1.32 0,-2 0.66,0 1.32,0 2,0 0,-0.66 0,-1.32 0,-2 0.66,0 1.32,0 2,0 0,-0.66 0,-1.32 0,-2 -1.98,-0.66 -3.96,-1.32 -6,-2 0,0.99 0,1.98 0,3 -1.485,0.495 -1.485,0.495 -3,1 0,-0.66 0,-1.32 0,-2 -0.99,-0.33 -1.98,-0.66 -3,-1 -0.33,-0.66 -0.66,-1.32 -1,-2 0.66,0 1.32,0 2,0 0,-0.66 0,-1.32 0,-2 -0.99,0 -1.98,0 -3,0 0,-0.66 0,-1.32 0,-2 -1.32,0 -2.64,0 -4,0 0,-0.66 0,-1.32 0,-2 -2.64,0 -5.28,0 -8,0 1.485,-0.99 1.485,-0.99 3,-2 -1.65,0 -3.3,0 -5,0 0,-0.66 0,-1.32 0,-2 -1.98,0 -3.96,0 -6,0 0.33,-0.66 0.66,-1.32 1,-2 -1.32,0 -2.64,0 -4,0 0,-0.66 0,-1.32 0,-2 -1.65,0 -3.3,0 -5,0 0.66,0.66 1.32,1.32 2,2 -2.375,0.125 -2.375,0.125 -5,0 -0.66,-0.66 -1.32,-1.32 -2,-2 1.485,-0.99 1.485,-0.99 3,-2 -1.65,-0.33 -3.3,-0.66 -5,-1 0,-0.33 0,-0.66 0,-1 -1.98,0 -3.96,0 -6,0 0,-0.66 0,-1.32 0,-2 -2.31,-0.33 -4.62,-0.66 -7,-1 0,-0.33 0,-0.66 0,-1 -2.31,0 -4.62,0 -7,0 0,-0.66 0,-1.32 0,-2 -5.445,-0.495 -5.445,-0.495 -11,-1 0,-0.33 0,-0.66 0,-1 -3.63,0 -7.26,0 -11,0 0,-0.66 0,-1.32 0,-2 -19.47,0 -38.94,0 -59,0 z m 291,221.00003 c 0.33,0.66 0.66,1.32 1,2 0.33,-0.66 0.66,-1.32 1,-2 -0.66,0 -1.32,0 -2,0 z m -58,55.9999 c -0.33,0.66 -0.66,1.32 -1,2 0.66,0 1.32,0 2,0 -0.33,-0.66 -0.66,-1.32 -1,-2 z m 150,129 c 1,2 1,2 1,2 z m -537,49 c 1,2 1,2 1,2 z m -258,34.0001 c 1,3 1,3 1,3 z m 2,3 c 1,4 1,4 1,4 z m 2,5 c 1,3 1,3 1,3 z m 2,4 c 1,3 1,3 1,3 z m 11,23 c 0.99,1.485 0.99,1.485 2,3 0,-0.99 0,-1.98 0,-3 -0.66,0 -1.32,0 -2,0 z m 2,3 c 0.99,1.485 0.99,1.485 2,3 0,-0.99 0,-1.98 0,-3 -0.66,0 -1.32,0 -2,0 z m 12,21 c 1,2 1,2 1,2 z m 16,23.9999 c 1,2 1,2 1,2 z m 17,24 c 0.66,0.66 1.32,1.32 2,2 0,-0.66 0,-1.32 0,-2 -0.66,0 -1.32,0 -2,0 z m 111,107 c 0.66,0.66 1.32,1.32 2,2 0,-0.66 0,-1.32 0,-2 -0.66,0 -1.32,0 -2,0 z m 195,94 c 0,0.33 0,0.66 0,1 2.64,0 5.28,0 8,0 0,-0.33 0,-0.66 0,-1 -2.64,0 -5.28,0 -8,0 z m 11,2 c 0,0.33 0,0.66 0,1 1.65,0 3.3,0 5,0 0,-0.33 0,-0.66 0,-1 -1.65,0 -3.3,0 -5,0 z"
     id="path1" />
  <path
     fill="#ffffff"
     d="m 33,1556 c 29.7,0 59.4,0 90,0 0.33,52.14 0.66,104.28 1,158 7.59,-11.55 15.18,-23.1 23,-35 15.73996,-23.7774 15.73996,-23.7774 23.38281,-34.3281 5.44073,-7.5679 10.59631,-15.3417 15.8335,-23.0508 2.49973,-3.6733 5.01421,-7.3363 7.53369,-10.9961 0.4382,-0.6366 0.8764,-1.2733 1.32788,-1.9292 0.8704,-1.2642 1.74093,-2.5284 2.61157,-3.7925 2.73067,-3.9658 5.45748,-7.9342 8.18433,-11.9026 2.30058,-3.3475 4.60354,-6.6933 6.91138,-10.0359 0.46535,-0.6748 0.9307,-1.3496 1.41015,-2.0449 0.85713,-1.2428 1.71508,-2.4851 2.57422,-3.7265 0.40734,-0.5911 0.81469,-1.1821 1.23438,-1.7911 0.44566,-0.6048 0.89133,-1.2097 1.35051,-1.8328 1.80199,-2.6625 1.80199,-2.6625 3.23001,-6.2292 2.10558,-4.4799 4.37185,-8.3666 8.41557,-11.3403 8.04079,-2.7578 17.11699,-1.7402 25.47656,-1.4648 2.49671,0.028 4.99351,0.049 7.49033,0.064 5.88076,0.051 11.75717,0.1692 17.63615,0.3202 7.35682,0.1849 14.71419,0.2648 22.07274,0.3479 13.11022,0.1605 26.21695,0.4133 39.32422,0.7324 -0.93791,1.4233 -1.87804,2.8451 -2.81909,4.2664 -0.5233,0.7919 -1.04659,1.5838 -1.58574,2.3998 -2.29743,3.3612 -4.82634,6.5012 -7.40767,9.6463 -4.38336,5.4108 -8.63942,10.89 -12.79297,16.4805 -2.84576,3.8254 -5.74552,7.6093 -8.64453,11.3945 -0.55164,0.7204 -1.10328,1.4409 -1.67163,2.1831 -1.12949,1.4747 -2.25913,2.9493 -3.38892,4.4238 -2.73212,3.5668 -5.46064,7.1363 -8.18945,10.7056 -1.08332,1.4167 -2.16665,2.8333 -3.25,4.25 -0.53625,0.7013 -1.0725,1.4025 -1.625,2.125 -17.875,23.375 -17.875,23.375 -19.49927,25.499 -1.0858,1.4199 -2.17157,2.8398 -3.25732,4.2598 -2.67042,3.4923 -5.34122,6.9843 -8.01294,10.4756 -6.6385,8.676 -13.26507,17.3611 -19.88257,26.0532 -3.26391,4.2861 -6.53137,8.5694 -9.80884,12.8452 -0.59812,0.7805 -1.19625,1.5611 -1.8125,2.3653 -1.12157,1.4628 -2.24392,2.9251 -3.36719,4.3867 -0.49757,0.649 -0.99515,1.2981 -1.50781,1.9668 -0.64848,0.8442 -0.64848,0.8442 -1.31006,1.7055 -2.39807,2.8435 -2.39807,2.8435 -3.0415,6.3179 1.27867,3.288 3.06097,6.2375 4.875,9.25 0.43369,0.7286 0.86738,1.4571 1.31421,2.2078 7.84943,13.1439 15.84081,26.2041 23.80933,39.2761 2.08536,3.4211 4.16913,6.8432 6.25146,10.2661 0.34444,0.5661 0.68888,1.1321 1.04376,1.7154 6.3323,10.4137 12.55248,20.8923 18.75937,31.3811 4.5741,7.7266 9.17289,15.4285 13.98349,23.0109 4.24888,6.7276 8.31564,13.5651 12.40088,20.3926 6.07079,10.1456 12.16825,20.2738 18.3125,30.375 5.03583,8.2827 10.06624,16.5684 15.0625,24.875 0.49033,0.8129 0.98065,1.6258 1.48584,2.4634 0.44682,0.7442 0.89364,1.4885 1.354,2.2554 0.38406,0.6387 0.76812,1.2774 1.16382,1.9355 1.09435,1.9076 2.07532,3.8787 3.05884,5.8457 -35.31,0 -70.62,0 -107,0 -7.92,-13.86 -7.92,-13.86 -16,-28 -5.28369,-9.038 -5.28369,-9.038 -10.57031,-18.0742 -4.15403,-7.141 -8.16591,-14.3599 -12.18457,-21.5777 -4.51207,-8.0852 -9.14575,-16.0931 -13.83252,-24.0781 -3.27001,-5.5778 -6.50951,-11.1713 -9.70948,-16.7895 -0.36131,-0.6342 -0.72262,-1.2684 -1.09487,-1.9218 -1.76329,-3.0968 -3.52328,-6.1955 -5.27964,-9.2962 -0.63695,-1.1205 -1.27391,-2.2409 -1.93017,-3.3953 -0.56026,-0.9889 -1.12052,-1.9778 -1.69776,-2.9966 -1.80013,-3.0385 -3.71751,-5.9492 -5.70068,-8.8706 -3.48551,3.3902 -6.89165,6.8115 -10.0625,10.5 -4.12006,4.7849 -8.45512,9.365 -12.78735,13.957 -0.57678,0.6136 -1.15355,1.2272 -1.74781,1.8594 -0.76582,0.8113 -0.76582,0.8113 -1.54712,1.6389 -0.61222,0.6748 -1.22444,1.3495 -1.85522,2.0447 -0.48395,0.4576 -0.96789,0.9152 -1.4665,1.3867 -4.00802,4.0782 -5.22977,7.0104 -5.34348,12.7035 0.0122,0.8912 0.0244,1.7824 0.037,2.7006 -0.0106,0.9568 -0.0213,1.9137 -0.0322,2.8996 -0.028,3.1441 -0.014,6.2865 4.7e-4,9.4307 -0.0113,2.1872 -0.0251,4.3744 -0.0415,6.5615 -0.036,5.7426 -0.0364,11.4845 -0.0293,17.2271 0.001,6.8977 -0.0422,13.7952 -0.078,20.6927 -0.0494,10.4661 -0.0426,20.9309 -0.0464,31.3976 -29.7,0 -59.4,0 -90,0 0,-121.77 0,-243.54 0,-369 z"
     id="path2" />
  <path
     fill="#ffffff"
     d="m 1227,1556 c 84.15,0 168.3,0 255,0 0,22.77 0,45.54 0,69 -54.45,0 -108.9,0 -165,0 0,25.41 0,50.82 0,77 45.87,0 91.74,0 139,0 0,22.11 0,44.22 0,67 -45.87,0 -91.74,0 -139,0 0,28.71 0,57.42 0,87 54.45,0 108.9,0 165,0 0,22.77 0,45.54 0,69 -84.15,0 -168.3,0 -255,0 0,-121.77 0,-243.54 0,-369 z"
     id="path3" />
  <path
     fill="#ffffff"
     d="m 648,1536 c 28.71,0 57.42,0 87,0 0.33,43.89 0.66,87.78 1,133 3.96,-3.3 7.92,-6.6 12,-10 8.79157,-6.0752 17.59215,-9.6473 28,-12 0.7512,-0.1743 1.5024,-0.3487 2.27637,-0.5283 16.40325,-2.8407 35.94768,-1.5101 51.72363,3.5283 1.7383,0.5433 1.7383,0.5433 3.51172,1.0977 25.39662,8.8662 43.05518,28.2556 54.48828,51.9023 22.11988,47.3778 21.10665,113.1073 3.75,161.8125 -5.07499,13.5109 -12.013,25.4856 -21.75,36.1875 -0.62262,0.7038 -1.24523,1.4077 -1.88672,2.1328 -15.29263,16.3506 -37.47541,25.6827 -59.6167,27.0899 -3.73077,0.1163 -7.4515,0.1578 -11.18408,0.1523 -0.65758,-9e-4 -1.31517,0 -1.99268,0 -20.51219,-0.09 -37.51413,-4.7431 -53.31982,-18.372 -0.63551,-0.5156 -1.27102,-1.0312 -1.92578,-1.5625 -3.97706,-3.2702 -6.6462,-6.3239 -10.07422,-10.4375 -1.32,8.25 -2.64,16.5 -4,25 -25.74,0 -51.48,0 -78,0 0,-128.37 0,-256.74 0,-389 z m 94.5625,186.375 c -6.58802,6.7487 -8.30557,12.2439 -8.22534,21.5957 -0.0104,1.071 -0.0207,2.1419 -0.0314,3.2454 -0.027,3.5221 -0.0174,7.043 -0.005,10.5652 -0.006,2.458 -0.0132,4.9161 -0.0217,7.3741 -0.0119,5.1445 -0.005,10.2885 0.0141,15.433 0.0229,6.5842 -0.004,13.1671 -0.0451,19.7512 -0.0256,5.0737 -0.023,10.147 -0.0121,15.2207 10e-4,2.4272 -0.006,4.8545 -0.0232,7.2816 -0.02,3.3966 -0.002,6.7909 0.0267,10.1874 -0.0137,0.9966 -0.0274,1.9932 -0.0416,3.02 0.13305,8.0261 3.01623,12.137 8.54421,17.7057 9.46953,9.0151 22.39163,10.7451 34.98832,10.4911 10.18268,-0.7664 18.68267,-3.6592 25.98047,-10.957 12.0026,-14.4396 12.82552,-36.3122 13.28914,-54.2891 0.0329,-1.1962 0.0329,-1.1962 0.0664,-2.4165 0.94348,-40.1954 0.94348,-40.1954 -16.4336,-75.1226 -16.19623,-14.4913 -41.5804,-11.4954 -58.07031,0.9141 z"
     id="path4" />
  <path
     fill="#ffffff"
     d="m 1767.052,1645.609 c 2.448,0.016 4.8943,0 7.3423,-0.019 14.591,-0.02 29.3906,1.4209 43.293,6.0976 1.1601,0.3802 1.1601,0.3802 2.3437,0.7681 23.3075,7.9487 43.3357,22.5525 54.9688,44.5444 0.4795,0.8792 0.959,1.7583 1.4531,2.6641 7.4968,14.9484 8.6868,31.7845 8.7204,48.2148 0.01,1.3826 0.013,2.7652 0.02,4.1478 0.015,2.9628 0.026,5.9255 0.036,8.8883 0.016,4.7017 0.04,9.4034 0.065,14.105 0.071,13.3652 0.1308,26.7305 0.1821,40.0957 0.029,7.3931 0.064,14.7861 0.1067,22.1791 0.022,3.9 0.041,7.7999 0.05,11.6999 -0.2879,35.3392 -0.2879,35.3392 10.413,68.6381 0.9531,2.3672 0.9531,2.3672 0.9531,7.3672 -28.71,0 -57.42,0 -87,0 -2.7829,-5.5658 -4.6875,-9.6964 -6.25,-15.5 -0.3352,-1.2272 -0.6703,-2.4544 -1.0156,-3.7187 -0.2424,-0.9178 -0.4847,-1.8357 -0.7344,-2.7813 -0.5595,0.6175 -1.1189,1.2349 -1.6953,1.8711 -14.8703,15.707 -34.0059,24.8105 -55.8203,25.5625 -2.578,0.024 -5.1564,0.024 -7.7344,0 -0.6753,0 -1.3506,-0.01 -2.0464,-0.01 -17.5699,-0.1267 -32.0537,-3.5533 -47.7036,-11.4273 -1.0583,-0.5233 -2.1166,-1.0467 -3.207,-1.5859 -17.8464,-9.5898 -31.6547,-26.4533 -37.8594,-45.7266 -5.6715,-21.9189 -4.0428,-46.4256 6.6289,-66.6484 14.3818,-23.7699 36.9083,-35.0943 62.875,-42.1641 19.4079,-4.5207 38.642,-5.2883 58.5,-5.0625 2.3522,0.015 4.7044,0.029 7.0566,0.041 5.6689,0.033 11.3373,0.082 17.0059,0.1465 -0.1345,-3.6904 -0.2792,-7.3804 -0.4258,-11.0703 -0.057,-1.5591 -0.057,-1.5591 -0.1144,-3.1497 -0.4518,-11.1135 -1.6679,-21.1965 -9.4598,-29.78 -8.1384,-6.8747 -17.7142,-7.8062 -28,-7 -7.8096,1.1439 -14.086,3.6142 -19,10 -3.2295,6.2993 -4.1149,11.9194 -5,19 -28.38,0 -56.76,0 -86,0 0,-23.545 7.6126,-41.3269 23.875,-58.25 4.6866,-4.5289 9.6386,-8.2508 15.125,-11.75 0.767,-0.5117 1.534,-1.0235 2.3242,-1.5508 22.0871,-14.1285 49.9327,-19.0412 75.7281,-18.8404 z m -29.0522,171.3911 c -7.5561,8.3215 -8.7361,18.3921 -8.3516,29.2774 0.6949,7.3588 3.6988,11.9901 9.3516,16.7226 9.596,6.337 18.6463,6.9329 29.8125,4.875 11.2822,-2.5542 20.9781,-8.1707 27.8887,-17.5246 2.2847,-4.1346 2.0401,-8.1345 1.8847,-12.7566 -0.013,-1.448 -0.013,-1.448 -0.026,-2.9252 -0.033,-3.0574 -0.1086,-6.112 -0.1852,-9.1686 -0.03,-2.0833 -0.058,-4.1666 -0.082,-6.25 -0.066,-5.0844 -0.1692,-10.1667 -0.2929,-15.25 -4.5166,-0.05 -9.0331,-0.086 -13.5499,-0.1098 -1.5322,-0.01 -3.0644,-0.024 -4.5966,-0.041 -16.1791,-0.1796 -30.0603,0.9704 -41.8535,13.1508 z"
     id="path5" />
  <path
     fill="#ffffff"
     d="m 1063.625,1645.625 c 0.7802,-0.01 1.5603,-0.016 2.3641,-0.024 32.6315,-0.2549 63.8115,10.1333 87.3234,33.2116 10.4209,10.6028 17.5656,22.7271 23.6875,36.1875 0.4731,1.0338 0.9462,2.0677 1.4336,3.1328 12.8196,30.5914 10.5664,64.5141 10.5664,96.8672 -55.77,0.33 -111.54,0.66 -169,1 6.0309,18.0927 11.905,30.6047 28.4883,40.2734 17.9525,8.8265 38.62,8.2346 57.4687,2.625 13.5477,-4.6304 26.8909,-11.6703 35.043,-23.8984 3.7002,1.2334 4.547,2.6382 6.9375,5.6875 3.6033,4.5173 7.2835,8.9413 11.0625,13.3125 4.4046,5.1081 8.7211,10.2751 12.9492,15.5313 2.5023,3.0123 5.1773,5.8363 7.9336,8.6171 1.1172,1.8516 1.1172,1.8516 1.082,4.2305 -5.5569,15.0961 -28.1831,28.1559 -41.9648,34.6211 -17.726,7.8505 -36.1678,13.0931 -55.6445,13.2031 -0.8093,0.01 -1.6186,0.011 -2.4523,0.017 -1.7086,0.01 -3.4171,0.016 -5.1256,0.02 -2.5454,0.01 -5.0899,0.041 -7.635,0.072 -14.8981,0.097 -29.7356,-1.4156 -44.0176,-5.875 -1.2135,-0.3735 -1.2135,-0.3735 -2.4514,-0.7546 -19.681,-6.369 -36.75456,-16.3897 -51.6736,-30.6829 -0.74766,-0.6845 -1.49531,-1.369 -2.26563,-2.0742 C 961.1122,1884.6625 956.06029,1877.5278 951,1870 c -0.55559,-0.7979 -1.11117,-1.5959 -1.68359,-2.418 -14.62008,-22.3857 -18.74733,-49.927 -18.62891,-76.082 0.002,-0.8356 0.004,-1.6712 0.006,-2.5321 0.0483,-13.1724 0.58748,-26.0369 3.30698,-38.9679 0.16629,-0.7978 0.33258,-1.5955 0.50391,-2.4175 5.04031,-23.1527 14.47925,-44.9338 30.49609,-62.5825 0.70335,-0.7771 0.70335,-0.7771 1.4209,-1.5698 16.02959,-17.4775 36.60732,-28.7384 59.57862,-34.4302 0.644,-0.1637 1.2881,-0.3274 1.9517,-0.4961 11.733,-2.8092 23.6773,-2.8148 35.6733,-2.8789 z M 1034,1723 c -9.4922,11.4172 -12.079,23.3951 -15,38 28.05,0 56.1,0 85,0 0,-16.6934 -0.2822,-26.6515 -11.125,-38.6875 -8.0677,-7.6321 -19.0762,-10.0911 -29.9023,-10.3984 -10.5603,0.3053 -21.3411,3.4543 -28.9727,11.0859 z"
     id="path6" />
  <path
     fill="#ffffff"
     d="m 353,1651 c 28.38,0 56.76,0 86,0 0.049,12.7707 0.098,25.5415 0.14844,38.6992 0.0354,8.0983 0.0713,16.1966 0.10937,24.2949 0.0604,12.8494 0.11874,25.6987 0.16406,38.5481 0.033,9.3593 0.0729,18.7185 0.12092,28.0778 0.0252,4.9518 0.047,9.9036 0.0605,14.8554 0.0129,4.6695 0.0351,9.3389 0.064,14.0083 0.009,1.7055 0.0147,3.411 0.0168,5.1164 -0.28641,21.4627 -0.28641,21.4627 8.88219,40.2437 6.83999,6.4749 16.08827,8.178 25.26563,8.1406 14.06034,-0.8279 26.35172,-3.3436 36.41016,-14.0267 5.75161,-7.4626 4.86071,-15.7212 4.75781,-24.7179 0.008,-1.8931 0.0187,-3.7862 0.0331,-5.6793 0.0289,-5.1154 0.009,-10.2295 -0.02,-15.3448 -0.0219,-5.3546 10e-4,-10.7089 0.0199,-16.0634 0.0281,-10.1288 0.0157,-20.2572 -0.0114,-30.386 -0.0343,-13.6945 -0.006,-27.3889 0.0192,-41.0834 0.0376,-21.5612 -0.008,-43.1214 -0.0408,-64.6829 28.38,0 56.76,0 86,0 0,90.42 0,180.84 0,274 -26.73,0 -53.46,0 -81,0 -0.99,-10.395 -0.99,-10.395 -2,-21 -0.33,-1.65 -0.66,-3.3 -1,-5 -0.69223,0.7502 -1.38445,1.5005 -2.09766,2.2734 -16.92778,17.8952 -37.67426,28.3923 -62.58593,29.125 -2.58462,0.013 -5.16941,0 -7.75391,-0.023 -0.67505,0 -1.35009,-0.01 -2.04559,-0.013 -24.89347,-0.187 -47.2098,-6.7325 -65.51679,-24.3624 -9.9866,-10.9475 -16.04881,-24.3744 -19.875,-38.5625 -0.28666,-1.0588 -0.28666,-1.0588 -0.5791,-2.1389 -3.47769,-14.0733 -3.83437,-28.2468 -3.77295,-42.6482 5.6e-4,-1.8841 2.4e-4,-3.7682 -8.9e-4,-5.6523 -5.6e-4,-5.063 0.0111,-10.1259 0.0251,-15.1889 0.0126,-5.3103 0.0137,-10.6207 0.0161,-15.9311 0.006,-10.0329 0.0226,-20.0657 0.0427,-30.0985 0.0266,-13.5737 0.0374,-27.1474 0.049,-40.7212 0.0187,-21.3528 0.0586,-42.7056 0.095,-64.0584 z"
     id="path7" />
  <path
     fill="#ffffff"
     d="m 2027.828,1645.797 c 0.8228,-0.01 1.6457,-0.014 2.4934,-0.021 2.6429,-0.017 5.2856,-0.024 7.9285,-0.026 1.3512,-10e-4 1.3512,-10e-4 2.7298,0 12.8903,0.015 25.4207,0.2639 38.0202,3.252 1.1128,0.2495 1.1128,0.2495 2.248,0.5039 25.5966,5.8718 49.45,18.5325 64.752,40.4961 2.2128,3.5754 4.1661,7.2174 6,11 0.5704,1.166 0.5704,1.166 1.1523,2.3555 4.6007,10.3645 5.8477,21.4111 5.8477,32.6445 -28.71,0 -57.42,0 -87,0 -0.33,-3.63 -0.66,-7.26 -1,-11 -2.1062,-8.1562 -6.1421,-13.1905 -13,-18 -9.7139,-4.6557 -23.0208,-4.7409 -33.125,-1.3125 -1.6476,0.7214 -3.2763,1.4887 -4.875,2.3125 -0.6755,0.339 -1.351,0.6781 -2.0469,1.0274 -5.3767,3.2283 -8.0264,8.1156 -9.9531,13.9726 -0.988,5.746 -0.4479,11.0373 2.4961,16.125 9.7797,12.1929 27.7665,14.84 42.1494,17.9537 59.7724,13.0349 59.7724,13.0349 82.3545,32.9213 1.0312,0.7838 2.0625,1.5675 3.125,2.375 13.8686,12.6627 19.6116,29.2114 20.6875,47.5625 0.8819,20.5482 -5.0816,39.036 -18.7578,54.4805 -21.1797,22.7442 -52.7303,34.131 -83.3757,35.7009 -5.113,0.1775 -10.2232,0.2095 -15.3389,0.1968 -2.6392,0 -5.2773,0.02 -7.9163,0.046 -14.7819,0.056 -29.1684,-1.5897 -43.3613,-5.9238 -0.8179,-0.2491 -1.6358,-0.4981 -2.4785,-0.7547 -14.2014,-4.5882 -27.1649,-12.1274 -38.584,-21.6828 -0.8689,-0.7064 -1.7377,-1.4128 -2.6328,-2.1407 -15.7705,-13.4073 -25.3488,-31.7671 -29.3672,-51.8593 0,-3.63 0,-7.26 0,-11 26.4,0 52.8,0 80,0 1.32,4.95 2.64,9.9 4,15 4.6809,9.2352 11.2187,14.6316 21,18 12.6202,3.8831 28.7462,3.7173 40.5976,-2.3242 5.758,-3.5672 9.2316,-7.1634 11.4024,-13.6758 0.5663,-5.83 0.8699,-11.4823 -2.5742,-16.4532 -11.8537,-12.8603 -34.2422,-15.7375 -50.4244,-19.6487 -33.205,-8.069 -68.679,-19.8959 -87.6889,-50.5857 -9.3615,-16.5982 -10.889,-36.7568 -6.2871,-55.0935 3.5901,-12.7162 10.0345,-23.5271 18.9746,-33.219 0.5504,-0.6303 1.1008,-1.2607 1.6679,-1.9101 19.4075,-21.0368 52.4222,-31.1347 80.1602,-31.293 z"
     id="path8" />
  <path
     fill="#ffffff"
     d="m 2212,1583 c 28.38,0 56.76,0 86,0 0,22.44 0,44.88 0,68 14.85,0 29.7,0 45,0 0,19.8 0,39.6 0,60 -14.85,0 -29.7,0 -45,0 0.063,17.1685 0.1382,34.3367 0.2357,51.505 0.045,7.9723 0.084,15.9445 0.1107,23.9169 0.023,6.952 0.057,13.9039 0.1023,20.8558 0.024,3.678 0.043,7.3559 0.049,11.0339 0.01,4.115 0.038,8.2294 0.07,12.3442 0,1.2077 0,2.4154 0,3.6596 0.078,7.0693 0.999,13.0473 3.4367,19.6846 0.495,1.485 0.495,1.485 1,3 2.2953,1.1355 2.2953,1.1355 5,2 0.7631,0.3506 1.5262,0.7013 2.3125,1.0625 11.3517,3.9599 25.2418,1.7006 36.6875,0.9375 0,20.46 0,40.92 0,62 -5.2714,1.9768 -9.6211,3.5126 -15,4.625 -1.1344,0.2398 -2.2688,0.4795 -3.4375,0.7266 -6.5205,1.1868 -12.8914,1.8132 -19.5156,1.8867 -0.734,0.01 -1.468,0.02 -2.2243,0.03 -31.1662,0.3305 -31.1662,0.3305 -45.8226,-4.268 -1.0316,-0.3215 -1.0316,-0.3215 -2.084,-0.6494 -9.0262,-2.9445 -16.6585,-7.2168 -23.916,-13.3506 -1.0751,-0.8895 -1.0751,-0.8895 -2.1719,-1.7969 -13.2435,-12.0116 -20.0935,-32.1898 -21.0086,-49.647 -0.064,-3.9508 -0.068,-7.8988 -0.047,-11.8498 6e-4,-1.509 3e-4,-3.018 -8e-4,-4.527 -6e-4,-4.0633 0.011,-8.1265 0.025,-12.1898 0.013,-4.2587 0.014,-8.5174 0.016,-12.7762 0.01,-8.0497 0.023,-16.0994 0.043,-24.149 0.022,-9.1706 0.033,-18.3412 0.043,-27.5118 0.021,-18.8508 0.058,-37.7017 0.1006,-56.5525 -11.55,0 -23.1,0 -35,0 0,-19.8 0,-39.6 0,-60 11.55,0 23.1,0 35,0 0,-22.44 0,-44.88 0,-68 z"
     id="path9" />
  <path
     fill="#ffffff"
     d="m 1517,1536 c 28.71,0 57.42,0 87,0 0,128.37 0,256.74 0,389 -28.71,0 -57.42,0 -87,0 0,-128.37 0,-256.74 0,-389 z"
     id="path10" />
  <path
     fill="#ffffff"
     d="m 2380,1651 c 28.71,0 57.42,0 87,0 0,90.42 0,180.84 0,274 -28.71,0 -57.42,0 -87,0 0,-90.42 0,-180.84 0,-274 z"
     id="path11" />
  <path
     fill="#ffffff"
     d="m 2455.781,1548.082 c 9.322,8.0583 14.3857,17.2135 15.4414,29.5117 0.3893,11.7801 -2.4783,21.449 -10.2226,30.4063 -8.4699,8.997 -19.254,13.8462 -31.5743,14.3359 -17.3792,0.2585 -30.4587,-1.1102 -43.6797,-13.4375 -8.6125,-8.9773 -11.1476,-19.1577 -11.0234,-31.3476 0.9203,-11.783 5.5889,-20.2933 14.0274,-28.2383 18.166,-14.9905 48.3004,-15.4914 67.0312,-1.2305 z"
     id="path13" />
  <path
     fill="#919192"
     d="m 367,1585 c 2,1 2,1 2,1 z"
     id="path831" />
  <path
     fill="#919192"
     d="m 617,1565 c 2,1 2,1 2,1 z"
     id="path832" />
</svg>
