<svg xmlns="http://www.w3.org/2000/svg" role="img" viewBox="-7.30 0.70 1159.60 904.60"><path fill="rgba(254,254,254,1)" d="M192 882.7c-11.41-2.62-19.5-8.83-24.58-18.86-4.97-9.8-5.38-14.66-5.4-63.09L162 756h38.92l.29 44.3c.26 40.34.45 44.53 2.05 46.98 2.97 4.53 6.49 6.19 13.17 6.2 8.15.03 10.9-.88 15.6-5.12l3.97-3.59V756h39V882.05l-18.25-.28-18.25-.27-.3-6.25c-.16-3.44-.55-6.25-.86-6.25-.31 0-2.99 2.22-5.95 4.93-3.23 2.95-7.7 5.81-11.14 7.11-7.04 2.67-20.41 3.46-28.25 1.66zm161.93-.07c-5.73-1.54-12.54-5.51-16.37-9.54-3.3-3.47-4.52-2.78-4.54 2.58-.04 6.5.48 6.33-18.63 6.33h-17.4l.25-89.25.26-89.25 19.25-.27 19.25-.27v31.02c0 17.06.22 31.02.48 31.02s2.8-1.76 5.64-3.91c15.62-11.82 42.32-8.53 56.13 6.91 4.7 5.25 9.95 15.78 12.47 25 2.57 9.4 2.57 42.63 0 52-4.16 15.15-11.02 25.65-20.95 32.07-9.58 6.19-24.76 8.55-35.84 5.56zm7.13-29.63c1.95-.54 4.74-2.23 6.19-3.74 4.92-5.13 6.04-9.53 6.54-25.54.52-16.79-.63-24.95-4.46-31.56-6.23-10.74-24.3-10.85-31.63-.19-1.49 2.16-1.7 5.56-1.7 27.03 0 21.47.21 24.87 1.7 27.03 4.53 6.59 14.26 9.5 23.36 6.97zm115.44 29.59c-20.06-3.92-35.27-15.1-43.49-31.98-5.19-10.65-6.3-17.19-5.79-34.09.39-13.03.82-16.08 3.19-23.01 3.64-10.64 8.36-18.15 15.58-24.84 11.65-10.78 25.45-15.24 44.51-14.36 25.69 1.19 42.5 13.62 50.16 37.11 2.25 6.92 2.7 10.34 3.1 23.83l.48 15.75h-38.62c-43.4 0-40.44-.61-36.75 7.52 5.21 11.48 18.58 17.39 32.71 14.47 7.17-1.48 13.88-4.75 18.38-8.96 1.84-1.71 3.65-2.76 4.02-2.33 11.7 13.86 16.02 19.42 16.02 20.63 0 4.17-17.38 15.63-29 19.13-7.52 2.26-25.66 2.86-34.5 1.13zm29.5-79.44c0-8.21-3.56-14.06-10.5-17.26-7.84-3.62-18.9-1.36-23.23 4.74-2.27 3.21-5.27 11.4-5.27 14.4 0 1.89.78 1.97 19.5 1.97H506v-3.85zm279.11 79.77c-11.88-2.33-23.34-10.73-28.8-21.08-2.56-4.87-2.81-6.26-2.81-15.86 0-9.86.21-10.94 3.26-17.14 3.87-7.87 9.23-13 17.7-16.97 8.84-4.13 17.88-5.83 34.92-6.55l14.88-.63-.56-6.77c-.88-10.43-4.08-15.05-11.47-16.52-7.95-1.59-15.77 2.9-16.86 9.69l-.63 3.91H755.75l.46-4.8c2.01-20.97 25.01-36.24 54.5-36.18 25.8.05 43.99 10.94 50.54 30.26.67 1.98 1.33 18.67 1.72 43.22.59 37.92.74 40.31 2.83 45.97 1.21 3.28 2.2 6.54 2.2 7.25 0 1-4.26 1.28-19.38 1.28h-19.38l-1.08-2.75c-.6-1.51-1.38-3.99-1.73-5.5-.71-3.01-1.9-3.57-2.78-1.29-.99 2.58-10.97 8.41-17.11 10-6.43 1.66-14.43 1.83-21.43.46zm29.43-28.8c2.22-1.01 5.26-3.28 6.75-5.05 2.55-3.04 2.71-3.81 2.71-13.26v-10.04l-10.25.38c-8.66.32-10.86.75-14.12 2.77-9.12 5.64-10.24 20.97-1.87 25.51 3.77 2.05 11.92 1.9 16.78-.31zm103.74 28.46c-9.83-1.88-21.08-7.62-27.7-14.13-6.11-6.02-11.26-15.59-12.22-22.72l-.64-4.78 18.35.28 18.35.27.69 3.38c.89 4.34 3.72 8.1 7.99 10.62 5.13 3.02 18.19 2.86 22.58-.27 3.76-2.68 5.8-7.85 4.46-11.34-1.95-5.1-6.38-7.33-22.48-11.28-24.13-5.93-36.15-13.02-42.49-25.07-2.3-4.36-2.65-6.25-2.66-14.04-.01-11.11 2.64-17.58 10.29-25.11 9.17-9.03 20.38-13.27 37.26-14.09 31.39-1.52 54.3 12.04 57.77 34.2.64 4.06.57 5.79-.25 6.11-.63.24-9.45.31-19.6.16l-18.45-.27-.58-3.5c-1.37-8.28-6.29-11.47-16.71-10.8-5.97.38-6.77.71-9.87 4.09-2.4 2.62-3.37 4.63-3.37 6.97 0 6.57 5.03 10.26 18 13.21 24.78 5.64 36.09 10.5 43.46 18.7 5.9 6.56 7.84 12.65 7.38 23.14-.27 6.05-.98 9.45-2.73 13.02-4.95 10.1-16.52 18.5-30.61 22.21-8.38 2.21-27.26 2.75-36.22 1.04zm120.89-.11c-11.67-2.54-19.1-8.71-23.42-19.47-2.11-5.27-2.22-7.07-2.54-42.75l-.34-37.25H997v-27h16v-31h39v31h21v26.93l-10.25.29-10.25.28v64.68l2.81 2.41c2.48 2.14 3.76 2.41 11.25 2.41h8.44v13.46c0 15.47.54 14.6-10.08 16.41-8.53 1.46-17.83 1.32-25.75-.4zM15 797.5V713h40.98l.26 36.66.26 36.65 4.88-7.4c2.69-4.08 13.87-20.57 24.85-36.66L106.19 713h24.96c19.72 0 24.81.26 24.2 1.25-.42.69-13.05 17.32-28.06 36.96-15.01 19.63-27.29 35.88-27.29 36.1 0 .23 12.6 21.26 28 46.74 15.4 25.49 28 46.71 28 47.16 0 .46-10.69.71-23.75.56l-23.75-.27-17.95-31.34-17.95-31.34-8.25 8.84-8.26 8.84-.04 22.75L56 882H15v-84.5zm547 0V713h117v31h-76v36h64v30h-64v40h75v32H562v-84.5zm133.24-4.75l.26-89.25 19.25-.27 19.25-.27V882H694.99l.25-89.25zm395.45 88.6c-.38-.37-.69-28.74-.69-63.04v-62.35l19.75.27 19.75.27v125l-19.06.27c-10.49.15-19.37-.04-19.75-.42zm10.87-139.78c-5.85-2.18-8.8-4.68-11.31-9.59-4.01-7.86-2.52-15.9 4.02-21.64 4.74-4.17 9.65-5.65 17.08-5.14 11.81.79 18.63 6.52 19.44 16.33.25 2.96.16 6.52-.18 7.91-.82 3.24-6.07 9.23-9.79 11.15-4.28 2.22-14.54 2.74-19.26.98zM515 591.5c-71.92-7.15-143.86-50.67-184.61-111.66-11.59-17.36-28.01-51.94-29.89-62.96-.32-1.86-1.45-6.53-2.51-10.38-5.48-19.83-7-33.28-6.97-61.5.03-25.71 1.3-39.18 5.06-53.61 1.71-6.54 3.7-14.26 4.42-17.15.73-2.89 2.97-9.64 4.99-15 10.7-28.47 28.08-56.31 48.44-77.61 18.57-19.43 50.39-40.47 73.57-48.64 32.49-11.46 44.33-13.49 78.5-13.49 22.22 0 27.3.3 39.5 2.37 29.32 4.96 64.66 19.28 86.5 35.04l9.5 6.86 33.74-33.62 33.74-33.62-27.99-28.06L653 40.42v-4.99c0-2.9.65-5.92 1.56-7.21 3.8-5.43-.19-5.22 100.17-5.22 102.03 0 95.46-.4 98.78 6.01 1.29 2.51 1.49 15.41 1.48 96.69-.02 73.02-.3 94.35-1.27 96.27-2.9 5.73-10.83 8.45-17.4 5.97-1.55-.58-14.76-12.96-29.34-27.5C792.39 185.9 780.02 174 779.5 174c-.53 0-41.91 40.87-91.98 90.83-50.06 49.96-94.4 93.53-98.52 96.82-24.16 19.27-53.22 33.98-80.5 40.74-21.08 5.23-50.7 6.68-78 3.81-9.9-1.04-18.2-1.72-18.45-1.51-.25.2 1.03 3.4 2.85 7.09 11.06 22.56 31.26 43.95 54.43 57.65 13.41 7.93 23.44 11.69 43.17 16.18 9.57 2.18 37.35 2.65 48.1.81 19.19-3.27 42.1-12.57 57.91-23.5 4.37-3.01 20.78-18.64 43.5-41.41 20.07-20.11 38.52-38.09 41-39.95 2.48-1.86 6.17-3.69 8.19-4.07 7.51-1.41 9.64.15 36.62 26.9 13.92 13.81 26.12 26.46 27.12 28.11 2.58 4.31 3.21 8.99 1.91 14.34-1.04 4.31-3.96 7.51-38.74 42.53-41.37 41.66-53.91 53.04-71.11 64.53-47.14 31.51-94.76 43.29-152 37.6zm-47.5-283.97c17.81-2.91 34.83-9.66 46.54-18.47 2.6-1.96 16.1-14.69 30-28.3l25.27-24.74-9.4-4.41c-35.69-16.71-73.14-14.86-103.28 5.12-14.67 9.73-30.43 28.01-39.44 45.77-4.89 9.63-10.42 24.32-9.64 25.59.97 1.56 49.73 1.1 59.95-.56z"/></svg>