<svg xmlns="http://www.w3.org/2000/svg" role="img" xmlns:xlink="http://www.w3.org/1999/xlink" viewBox="-9.10 -9.10 655.20 198.70"><defs><linearGradient id="linear-gradient" x1="31.138" x2="32.376" y1="477.548" y2="477.548" gradientTransform="matrix(30.42866 0 0 -30.42866 -895.584 14684.897)" gradientUnits="userSpaceOnUse"><stop offset="0" stop-color="#60b932"/><stop offset=".282" stop-color="#60b932"/><stop offset="1" stop-color="#367c34"/></linearGradient><linearGradient id="linear-gradient-2" x1="30.81" x2="32.048" y1="476.94" y2="476.94" gradientTransform="matrix(27.2148 0 0 -27.2148 -785.193 13061.629)" xlink:href="#linear-gradient"/><linearGradient id="linear-gradient-3" x1="30.641" x2="31.879" y1="476.024" y2="476.024" gradientTransform="matrix(25.74947 0 0 -25.74947 -733.989 12385.194)" xlink:href="#linear-gradient"/><linearGradient id="linear-gradient-4" x1="30.802" x2="32.04" y1="476.5" y2="476.5" gradientTransform="matrix(27.09707 0 0 -27.09707 -780.482 13049.4)" xlink:href="#linear-gradient"/><linearGradient id="linear-gradient-5" x1="30.462" x2="31.7" y1="475.495" y2="475.495" gradientTransform="matrix(24.40187 0 0 -24.40187 -687.495 11720.986)" xlink:href="#linear-gradient"/><linearGradient id="linear-gradient-6" x1="30.575" x2="31.813" y1="484.412" y2="484.412" gradientTransform="scale(66.09006 -66.09006) rotate(36.523 751.65 197.343)" gradientUnits="userSpaceOnUse"><stop offset="0" stop-color="#4596d8"/><stop offset=".2" stop-color="#4596d8"/><stop offset="1" stop-color="#fff"/></linearGradient><linearGradient id="linear-gradient-7" x1="33.693" x2="34.931" y1="483.348" y2="483.348" gradientTransform="scale(77.79338 -77.79338) rotate(-11.535 -2380.534 402.374)" gradientUnits="userSpaceOnUse"><stop offset="0" stop-color="#4194d7"/><stop offset=".2" stop-color="#4194d7"/><stop offset="1" stop-color="#fff"/></linearGradient><linearGradient id="linear-gradient-8" x1="32.218" x2="33.456" y1="483.434" y2="483.434" gradientTransform="scale(71.35552 -71.35552) rotate(10.225 2724.536 68.095)" gradientUnits="userSpaceOnUse"><stop offset="0" stop-color="#4194d7"/><stop offset=".333" stop-color="#4496d8"/><stop offset="1" stop-color="#fff"/></linearGradient><clipPath id="clip-path"><path d="M88.068 152.07l-34.251-15.093-1.907 21.552 37.665 11.967-1.507-18.426z" class="cls-1"/></clipPath><clipPath id="clip-path-2"><path d="M60.523 68.689h19.234v16.409h-4.565v-7.009a5.053 5.053 0 1 0-10.105 0v7.009h-4.564zm-3.843 35.94l28.536 12.575-1.967-24.065h3.734v-8.041h-2.77v-16.41h2.77v-4.716l-15.39-15.06v-1.06a1.453 1.453 0 0 0-2.905 0v1.06l-15.392 15.06v4.717h2.772v16.409h-2.772v8.041h4.4z" class="cls-1"/></clipPath><clipPath id="clip-path-3"><path d="M55.009 123.515l31.872 14.046-.478-5.849-30.915-13.622-.479 5.425z" class="cls-1"/></clipPath><clipPath id="clip-path-4"><path d="M54.173 132.958l33.54 14.781-.477-5.847-32.582-14.358-.481 5.424z" class="cls-1"/></clipPath><clipPath id="clip-path-5"><path d="M56.325 108.646l-.481 5.427 30.205 13.309-.478-5.848-29.246-12.888z" class="cls-1"/></clipPath><clipPath id="clip-path-6"><path d="M157.275 34.867a87.46 87.46 0 0 0-14.842-14.035 89.613 89.613 0 0 0-2.388-1.706L128.791 30.83 87.713 73.55l56.564-29.272 14.502-7.505c-.502-.635-.985-1.285-1.504-1.906z" class="cls-1"/></clipPath><clipPath id="clip-path-7"><path d="M177.461 89.754c-.008-.992-.067-1.972-.109-2.956l-16.071-1.153-73.568-5.28 72.173 25.04 15.172 5.263c.045-.18.096-.356.139-.538a86.632 86.632 0 0 0 2.28-19.69c0-.23-.014-.457-.016-.686z" class="cls-1"/></clipPath><clipPath id="clip-path-8"><path d="M175.093 70.298a86.083 86.083 0 0 0-6.9-18.808l-15.435 4.96-63.931 20.544 70.832-2.411 16.215-.553c-.241-1.25-.487-2.5-.781-3.732z" class="cls-1"/></clipPath><style>.cls-1{fill:none}.cls-3{fill:#696566}</style></defs><g id="g10"><g id="g12"><path id="path14" fill="#fff" d="M16.471 90.44a74.268 74.268 0 1 1 74.269 74.267 74.268 74.268 0 0 1-74.27-74.268"/><path id="path16" d="M215.217 60.148a3.901 3.901 0 1 1 7.802 0v27.26h39.903v-27.26a3.901 3.901 0 1 1 7.801 0v62.224a3.901 3.901 0 1 1-7.801 0V94.717h-39.903v27.655a3.901 3.901 0 1 1-7.802 0V60.148" class="cls-3"/><path id="path18" d="M331.867 100.445l-15.901-35.358-15.902 35.358zm-48.89 20.25l28.05-61.336c.987-2.174 2.47-3.458 4.939-3.458h.396a4.977 4.977 0 0 1 4.839 3.458l28.048 61.235a5.262 5.262 0 0 1 .495 1.975 3.752 3.752 0 0 1-3.753 3.755 4.26 4.26 0 0 1-3.852-2.865l-7.209-15.902h-37.928l-7.21 16.1a3.91 3.91 0 0 1-3.755 2.667 3.542 3.542 0 0 1-3.555-3.557 4.5 4.5 0 0 1 .495-2.073" class="cls-3"/><path id="path20" d="M390.64 91.952c10.37 0 17.777-5.333 17.777-14.223v-.197c0-8.493-6.517-13.631-17.679-13.631h-21.334v28.05zm-29.038-31.309a3.943 3.943 0 0 1 3.852-3.951h25.875c8.496 0 15.31 2.568 19.656 6.913a19.094 19.094 0 0 1 5.334 13.63v.198c0 11.358-7.704 17.976-18.47 20.05l17.186 22.124a4.249 4.249 0 0 1 1.284 2.865 4.08 4.08 0 0 1-3.952 3.852 4.546 4.546 0 0 1-3.653-2.075l-19.458-25.285h-19.852v23.408a3.901 3.901 0 1 1-7.802 0V60.643" class="cls-3"/><path id="path22" d="M460.868 118.816c10.47 0 16.988-4.64 16.988-12.345v-.198c0-7.506-6.321-11.852-18.37-11.852h-21.827v24.395zm-2.766-31.309c9.384 0 15.902-4.246 15.902-12.346v-.198c0-6.814-5.432-11.259-15.308-11.259H437.66v23.803zm-28.147-26.864a3.943 3.943 0 0 1 3.852-3.951h25.58c7.901 0 14.123 2.27 18.074 6.123a15.358 15.358 0 0 1 4.445 11.063v.197c0 8.988-5.53 13.63-10.962 16 8.196 2.47 14.814 7.21 14.814 16.692v.197c0 11.852-9.977 18.865-25.088 18.865h-26.863a3.942 3.942 0 0 1-3.852-3.95V60.643" class="cls-3"/><path id="path24" d="M557.566 91.458v-.197c0-15.704-11.457-28.543-27.26-28.543s-27.062 12.641-27.062 28.345v.198c0 15.703 11.457 28.544 27.26 28.544s27.062-12.643 27.062-28.347zm-62.42 0v-.197c0-19.062 14.32-35.754 35.357-35.754 21.04 0 35.162 16.494 35.162 35.555v.198c0 19.063-14.322 35.755-35.36 35.755s-35.16-16.495-35.16-35.557" class="cls-3"/><path id="path26" d="M608.143 91.952c10.37 0 17.778-5.333 17.778-14.223v-.197c0-8.493-6.518-13.631-17.68-13.631h-21.334v28.05zm-29.037-31.309a3.943 3.943 0 0 1 3.852-3.951h25.875c8.496 0 15.31 2.568 19.656 6.913a19.094 19.094 0 0 1 5.334 13.63v.198c0 11.358-7.704 17.976-18.47 20.05l17.186 22.124a4.249 4.249 0 0 1 1.284 2.865 4.08 4.08 0 0 1-3.953 3.852 4.546 4.546 0 0 1-3.652-2.075L606.76 98.964h-19.854v23.408a3.901 3.901 0 1 1-7.801 0V60.643" class="cls-3"/><g id="g30" clip-path="url(#clip-path)"><g id="g32"><path id="path46" fill="url(#linear-gradient)" d="M88.068 152.07l-34.25-15.093-1.908 21.552 37.665 11.967-1.507-18.426"/></g></g><g id="g48" clip-path="url(#clip-path-2)"><g id="g50"><path id="path64" fill="url(#linear-gradient-2)" d="M60.523 68.689h19.234v16.409h-4.565v-7.009a5.053 5.053 0 1 0-10.105 0v7.009h-4.564zm-3.843 35.94l28.536 12.575-1.967-24.065h3.734v-8.041h-2.77v-16.41h2.77v-4.716l-15.39-15.06v-1.06a1.453 1.453 0 0 0-2.905 0v1.06l-15.392 15.06v4.717h2.772v16.409h-2.772v8.041h4.4l-1.016 11.49"/></g></g><g id="g66" clip-path="url(#clip-path-3)"><g id="g68"><path id="path82" fill="url(#linear-gradient-3)" d="M55.009 123.515L86.88 137.56l-.478-5.85-30.915-13.621-.48 5.425"/></g></g><g id="g84" clip-path="url(#clip-path-4)"><g id="g86"><path id="path100" fill="url(#linear-gradient-4)" d="M54.173 132.958l33.54 14.781-.477-5.847-32.582-14.358-.48 5.424"/></g></g><g id="g102" clip-path="url(#clip-path-5)"><g id="g104"><path id="path118" fill="url(#linear-gradient-5)" d="M56.325 108.646l-.48 5.427 30.204 13.309-.478-5.848-29.246-12.888"/></g></g><path id="path120" d="M152.758 56.45l15.435-4.96c-.056-.11-.103-.225-.159-.332a87.01 87.01 0 0 0-9.255-14.385l-14.502 7.505a71.197 71.197 0 0 1 8.344 11.907c.048.086.09.177.137.264" class="cls-3"/><path id="path122" d="M161.28 85.645l16.072 1.153a86.238 86.238 0 0 0-1.478-12.768l-16.215.552a70.327 70.327 0 0 1 1.622 11.063" class="cls-3"/><path id="path124" d="M90.74 161.193A70.754 70.754 0 1 1 128.79 30.83l11.254-11.704a86.723 86.723 0 1 0 35.013 91.542l-15.172-5.264a70.867 70.867 0 0 1-69.146 55.79" class="cls-3"/><g id="g126" clip-path="url(#clip-path-6)"><g id="g128"><path id="path142" fill="url(#linear-gradient-6)" d="M157.275 34.867a87.46 87.46 0 0 0-14.842-14.035 89.613 89.613 0 0 0-2.388-1.706L128.791 30.83 87.713 73.55l56.564-29.272 14.502-7.505c-.502-.635-.985-1.285-1.504-1.906"/></g></g><g id="g144" clip-path="url(#clip-path-7)"><g id="g146"><path id="path160" fill="url(#linear-gradient-7)" d="M177.461 89.754c-.008-.992-.067-1.972-.109-2.956l-16.071-1.153-73.568-5.28 72.173 25.04 15.172 5.263c.045-.18.096-.356.139-.538a86.632 86.632 0 0 0 2.28-19.69c0-.23-.014-.457-.016-.686"/></g></g><g id="g162" clip-path="url(#clip-path-8)"><g id="g164"><path id="path178" fill="url(#linear-gradient-8)" d="M175.093 70.298a86.083 86.083 0 0 0-6.9-18.808l-15.435 4.96-63.931 20.544 70.832-2.411 16.215-.553c-.241-1.25-.487-2.5-.781-3.732"/></g></g></g></g></svg>