<svg width="360" height="486" viewBox="0 0 360 486" fill="none" xmlns="http://www.w3.org/2000/svg">
<rect x="26" y="26" width="308" height="308" rx="66" fill="black" stroke="white" stroke-width="52"/>
<path fill-rule="evenodd" clip-rule="evenodd" d="M164 108C159.582 108 156 111.582 156 116V145.287C156 147.496 157.791 149.287 160 149.287H169C171.209 149.287 173 151.078 173 153.287V175.496C173 177.706 171.209 179.496 169 179.496H160C157.791 179.496 156 181.287 156 183.496V215.177C156 216.87 157.065 218.379 158.659 218.946L173 224.047C171.412 228.415 167 252 167 252H184L203.253 225.091C203.739 224.412 204 223.598 204 222.764V116C204 111.582 200.418 108 196 108H164Z" fill="white"/>
<path d="M90.2716 480.435C87.8585 481.981 84.9395 483.295 81.5144 484.377C78.0894 485.459 74.2363 486 69.955 486C61.8596 486 55.8464 483.952 51.9154 479.855C47.9844 475.72 46.0189 470.116 46.0189 463.043V435.101H33V422.464H46.0189V409.13L64.4673 406.928V422.464H84.4335L82.6237 435.101H64.4673V463.043C64.4673 466.097 65.1678 468.28 66.569 469.594C67.9701 470.908 70.208 471.565 73.2828 471.565C75.4623 471.565 77.4473 471.314 79.2376 470.812C81.0669 470.271 82.7015 469.594 84.1416 468.783L90.2716 480.435Z" fill="white"/>
<path d="M105.288 458.58C105.716 461.942 106.592 464.667 107.915 466.754C109.278 468.802 111.01 470.309 113.111 471.275C115.213 472.203 117.568 472.667 120.175 472.667C123.017 472.667 125.76 472.203 128.407 471.275C131.054 470.348 133.603 469.111 136.055 467.565L143.469 477.536C140.55 480.01 137.008 482.039 132.844 483.623C128.718 485.208 124.009 486 118.716 486C111.632 486 105.697 484.609 100.91 481.826C96.1224 479.005 92.5223 475.14 90.1092 470.232C87.6961 465.324 86.4896 459.681 86.4896 453.304C86.4896 447.237 87.6572 441.729 89.9924 436.783C92.3277 431.797 95.7332 427.836 100.209 424.899C104.724 421.923 110.231 420.435 116.731 420.435C122.647 420.435 127.765 421.691 132.085 424.203C136.444 426.715 139.811 430.329 142.185 435.043C144.598 439.758 145.804 445.42 145.804 452.029C145.804 453.072 145.766 454.193 145.688 455.391C145.649 456.589 145.571 457.652 145.454 458.58H105.288ZM116.731 432.725C113.423 432.725 110.757 433.903 108.733 436.261C106.709 438.618 105.483 442.386 105.055 447.565H127.823C127.784 443.082 126.909 439.488 125.196 436.783C123.484 434.077 120.662 432.725 116.731 432.725Z" fill="white"/>
<path d="M168.294 398V464.667C168.294 467.14 168.994 468.918 170.396 470C171.836 471.043 173.801 471.565 176.292 471.565C177.888 471.565 179.425 471.391 180.904 471.043C182.383 470.657 183.765 470.213 185.049 469.71L189.486 481.942C187.384 483.024 184.855 483.971 181.897 484.783C178.939 485.594 175.494 486 171.563 486C164.09 486 158.603 483.874 155.1 479.623C151.597 475.333 149.846 469.594 149.846 462.406V410.522H131.572V398H168.294Z" fill="white"/>
<path d="M209.115 398V464.667C209.115 467.14 209.815 468.918 211.217 470C212.657 471.043 214.622 471.565 217.113 471.565C218.709 471.565 220.246 471.391 221.725 471.043C223.204 470.657 224.586 470.213 225.87 469.71L230.307 481.942C228.205 483.024 225.675 483.971 222.718 484.783C219.76 485.594 216.315 486 212.384 486C204.911 486 199.424 483.874 195.921 479.623C192.418 475.333 190.666 469.594 190.666 462.406V410.522H172.393V398H209.115Z" fill="white"/>
<path d="M244.098 458.58C244.526 461.942 245.402 464.667 246.725 466.754C248.087 468.802 249.819 470.309 251.921 471.275C254.022 472.203 256.377 472.667 258.985 472.667C261.826 472.667 264.57 472.203 267.216 471.275C269.863 470.348 272.412 469.111 274.864 467.565L282.279 477.536C279.36 480.01 275.818 482.039 271.653 483.623C267.528 485.208 262.818 486 257.525 486C250.442 486 244.506 484.609 239.719 481.826C234.932 479.005 231.332 475.14 228.919 470.232C226.506 465.324 225.299 459.681 225.299 453.304C225.299 447.237 226.467 441.729 228.802 436.783C231.137 431.797 234.543 427.836 239.019 424.899C243.533 421.923 249.041 420.435 255.54 420.435C261.456 420.435 266.574 421.691 270.894 424.203C275.254 426.715 278.62 430.329 280.994 435.043C283.407 439.758 284.614 445.42 284.614 452.029C284.614 453.072 284.575 454.193 284.497 455.391C284.458 456.589 284.38 457.652 284.264 458.58H244.098ZM255.54 432.725C252.232 432.725 249.566 433.903 247.542 436.261C245.518 438.618 244.292 442.386 243.864 447.565H266.633C266.594 443.082 265.718 439.488 264.006 436.783C262.293 434.077 259.471 432.725 255.54 432.725Z" fill="white"/>
<path d="M287.02 484.029V471.739H295.194V434.638H287.02V422.464H309.263L312.65 436.319C314.868 431.024 317.69 427.082 321.115 424.493C324.579 421.903 328.802 420.609 333.783 420.609C335.885 420.609 337.753 420.783 339.388 421.13C341.023 421.44 342.56 421.884 344 422.464L338.395 437.594C337.267 437.285 336.138 437.053 335.009 436.899C333.881 436.744 332.635 436.667 331.273 436.667C327.225 436.667 323.664 438.309 320.589 441.594C317.554 444.879 315.238 449.053 313.642 454.116V471.739H325.902V484.029H287.02ZM328.996 448.203V430.232L331.74 422.464H344L340.556 448.203H328.996Z" fill="white"/>
</svg>
