<?xml version="1.0" encoding="utf-8"?>
<!-- Generator: Adobe Illustrator 21.1.0, SVG Export Plug-In . SVG Version: 6.00 Build 0)  -->
<svg version="1.1" id="Layer_1" xmlns="http://www.w3.org/2000/svg" xmlns:xlink="http://www.w3.org/1999/xlink" x="0px" y="0px"
	 viewBox="0 0 498 543.6" style="enable-background:new 0 0 498 543.6;" xml:space="preserve">
<g>
	<path d="M23.6,450.1c0,4.1,0.9,7.8,2.7,11.2c1.8,3.4,4.1,6.2,7,8.6c2.9,2.4,6.2,4.2,10.1,5.5c3.8,1.3,7.8,2,11.8,2
		c5.5,0,10.3-1.3,14.4-3.8c4.1-2.6,7.8-6,11.2-10.2l13.4,10.3c-9.9,12.8-23.7,19.1-41.4,19.1c-7.4,0-14-1.3-20-3.7
		c-6-2.5-11.1-6-15.2-10.4c-4.1-4.4-7.3-9.6-9.6-15.6c-2.2-6-3.4-12.5-3.4-19.4c0-7,1.2-13.4,3.7-19.4c2.4-6,5.8-11.2,10.1-15.6
		s9.4-7.9,15.3-10.4c5.9-2.5,12.4-3.7,19.3-3.7c8.3,0,15.3,1.4,21,4.3c5.7,2.9,10.4,6.7,14.1,11.3c3.7,4.7,6.3,9.9,8,15.8
		c1.6,5.9,2.5,11.8,2.5,17.9v6.3H23.6z M79.7,435.9c-0.1-3.9-0.8-7.6-1.9-10.9c-1.1-3.3-2.8-6.1-5-8.6c-2.2-2.4-5-4.3-8.4-5.7
		c-3.4-1.4-7.3-2.1-11.7-2.1c-4.3,0-8.3,0.8-11.9,2.5c-3.6,1.6-6.7,3.8-9.2,6.4c-2.5,2.6-4.4,5.6-5.8,8.8c-1.4,3.2-2.1,6.4-2.1,9.6
		H79.7z"/>
	<path d="M114,396.8h17.8v14.4h0.4c2.2-5,6.1-9,11.6-12.1c5.5-3.1,11.9-4.6,19.1-4.6c4.5,0,8.8,0.7,12.9,2.1
		c4.1,1.4,7.8,3.5,10.9,6.4c3.1,2.9,5.6,6.6,7.4,11.2c1.8,4.5,2.8,9.9,2.8,16.1v60.2h-17.8v-55.2c0-4.3-0.6-8.1-1.8-11.1
		c-1.2-3.1-2.8-5.6-4.7-7.5c-2-1.9-4.2-3.3-6.8-4.1c-2.6-0.9-5.2-1.3-8-1.3c-3.7,0-7.1,0.6-10.3,1.8c-3.2,1.2-5.9,3.1-8.3,5.6
		c-2.4,2.6-4.2,5.8-5.5,9.8c-1.3,3.9-2,8.6-2,14v48.1H114V396.8z"/>
	<path d="M202.6,396.8h20.5l28,71.6l26.8-71.6h18.9l-36.7,93.5h-19.5L202.6,396.8z"/>
	<path d="M298.1,443.6c0-6.8,1.3-13.2,3.8-19.1c2.6-5.9,6.1-11.1,10.6-15.6c4.5-4.5,9.7-8,15.8-10.6c6-2.6,12.6-3.8,19.5-3.8
		c7,0,13.5,1.3,19.5,3.8c6,2.6,11.3,6.1,15.8,10.6c4.5,4.5,8,9.7,10.6,15.6c2.6,5.9,3.8,12.3,3.8,19.1c0,6.8-1.3,13.3-3.8,19.2
		c-2.6,6-6.1,11.2-10.6,15.6c-4.5,4.4-9.7,7.9-15.8,10.5c-6.1,2.6-12.6,3.8-19.5,3.8c-7,0-13.5-1.3-19.5-3.8
		c-6.1-2.6-11.3-6.1-15.8-10.5c-4.5-4.4-8-9.6-10.6-15.6C299.4,456.9,298.1,450.4,298.1,443.6z M317.1,443.6c0,4.7,0.7,9.1,2.2,13.1
		c1.4,4,3.5,7.4,6.1,10.3c2.6,2.8,5.9,5.1,9.7,6.7c3.8,1.6,8.1,2.5,12.8,2.5c4.7,0,9-0.8,12.8-2.5c3.8-1.6,7-3.9,9.7-6.7
		c2.6-2.8,4.7-6.2,6.1-10.3c1.4-4,2.2-8.4,2.2-13.1c0-4.7-0.7-9.1-2.2-13.1c-1.5-4-3.5-7.4-6.1-10.3c-2.6-2.8-5.9-5.1-9.7-6.7
		c-3.8-1.6-8.1-2.5-12.8-2.5c-4.7,0-9,0.8-12.8,2.5c-3.8,1.6-7,3.9-9.7,6.7c-2.6,2.8-4.7,6.3-6.1,10.3
		C317.8,434.5,317.1,438.9,317.1,443.6z"/>
	<path d="M398.9,396.8h20.5l27.7,73h0.4l26.6-73h18.9l-44.4,113.7c-1.6,4.1-3.2,7.8-4.9,11.2c-1.7,3.4-3.7,6.2-6.1,8.6
		c-2.4,2.4-5.2,4.2-8.6,5.5c-3.3,1.3-7.4,2-12.3,2c-2.6,0-5.3-0.2-8-0.5c-2.7-0.3-5.3-1-7.8-2.1l2.2-16.2c3.5,1.4,7.1,2.2,10.6,2.2
		c2.7,0,5.1-0.4,7-1.1c1.9-0.7,3.5-1.8,4.9-3.2c1.4-1.4,2.5-3,3.4-4.8c0.9-1.8,1.8-3.9,2.7-6.3l5.7-14.8L398.9,396.8z"/>
</g>
<g>
	<polygon points="145.5,155.2 146.1,180 172.2,196.2 171.7,171.4 	"/>
	<path d="M209.3,258.2l-0.6-24.3l-22.9-14.2c-0.3-0.2-0.6-0.5-1-0.7l0.6,24.4L209.3,258.2z"/>
	<path d="M127.7,290.9L68,254l-1.5-62.1l29.3-12.6l-0.6-24.8l-46.7,20.1c-3.6,1.6-5.8,4.9-5.7,8.7l1.8,74.5c0.1,3.8,2.4,7.6,6.1,9.9
		l71.6,44.4c3.3,2.1,7.4,2.6,10.8,1.6c0.4-0.1,0.7-0.2,1-0.4l43.9-18.9l-23.8-14.8L127.7,290.9z"/>
	<path d="M320.7,153.8c-0.1-4.5-2.8-8.9-7.1-11.5l-86.9-53.9l-2.7,1.2l0.6,26.1l68.8,42.6L295,228l26.3,16.3l1.4-0.6L320.7,153.8z"
		/>
	<path d="M216.6,276.2l-80.8-50.1l-2-84l36.8-15.9l-0.7-28.9L112.8,122c-4.2,1.8-6.7,5.7-6.6,10.2l2.3,98.5
		c0.1,4.5,2.8,8.9,7.1,11.5l94.7,58.7c3.9,2.4,8.6,3.1,12.5,1.8c0.4-0.1,0.8-0.3,1.2-0.4l55.9-24.1l-27.8-17.2L216.6,276.2z"/>
	<path d="M443.8,84.8L322.4,9.5c-4.5-2.8-9.8-3.5-14.4-2.1c-0.4,0.1-0.9,0.3-1.3,0.5L188.3,59c-4.8,2.1-7.7,6.5-7.6,11.6l3,126.3
		c0.1,5.1,3.2,10.1,8.2,13.2l121.4,75.2c4.5,2.8,9.8,3.5,14.3,2.1c0.4-0.1,0.9-0.3,1.4-0.5l118.4-51c4.8-2.1,7.7-6.5,7.5-11.6
		l-3-126.2C451.8,92.8,448.7,87.8,443.8,84.8z M320.4,257.1l-105.5-65.4L212.3,82l102.9-44.4L420.7,103l2.6,109.7L320.4,257.1z"/>
</g>
</svg>
