<?xml version="1.0" encoding="utf-8"?>
<!-- Generator: Adobe Illustrator 21.1.0, SVG Export Plug-In . SVG Version: 6.00 Build 0)  -->
<svg version="1.1" id="Layer_1" xmlns="http://www.w3.org/2000/svg" xmlns:xlink="http://www.w3.org/1999/xlink" x="0px" y="0px"
	 viewBox="0 0 792 792" style="enable-background:new 0 0 792 792;" xml:space="preserve">
<style type="text/css">
	.st0{opacity:0.8;}
	.st1{clip-path:url(#SVGID_2_);fill:#231F20;}
	.st2{clip-path:url(#SVGID_4_);fill:#231F20;}
	.st3{fill:#231F20;}
	.st4{fill-rule:evenodd;clip-rule:evenodd;fill:#231F20;}
	.st5{opacity:0.8;fill:#231F20;}
	.st6{clip-path:url(#SVGID_6_);fill:#231F20;}
</style>
<g class="st0">
	<g>
		<defs>
			<rect id="SVGID_1_" x="537.5" y="537" width="246.6" height="1.3"/>
		</defs>
		<use xlink:href="#SVGID_1_"  style="overflow:visible;fill:#231F20;"/>
		<clipPath id="SVGID_2_">
			<use xlink:href="#SVGID_1_"  style="overflow:visible;"/>
		</clipPath>
		<rect x="537.5" y="537" class="st1" width="246.6" height="1.3"/>
	</g>
</g>
<g class="st0">
	<g>
		<defs>
			<rect id="SVGID_3_" x="7.1" y="537" width="241.1" height="1.3"/>
		</defs>
		<use xlink:href="#SVGID_3_"  style="overflow:visible;fill:#231F20;"/>
		<clipPath id="SVGID_4_">
			<use xlink:href="#SVGID_3_"  style="overflow:visible;"/>
		</clipPath>
		<rect x="7.1" y="537" class="st2" width="241.1" height="1.3"/>
	</g>
</g>
<path class="st3" d="M225.3,451.4c1.3-0.4,3-0.7,5.1-1.1c2.1-0.3,4.3-0.5,6.6-0.5c2.3,0,4.3,0.3,5.8,0.9c1.6,0.6,2.8,1.5,3.7,2.6
	c0.9,1.1,1.6,2.4,1.9,4s0.6,3.3,0.6,5.1V478h-7.8v-14.6c0-2.5-0.3-4.3-1-5.3c-0.7-1-1.9-1.6-3.7-1.6c-0.6,0-1.2,0-1.8,0.1
	c-0.6,0.1-1.2,0.1-1.7,0.2V478h-7.8V451.4z M210.8,464.2c0-2.4-0.5-4.3-1.4-5.7c-1-1.4-2.3-2.1-4.1-2.1s-3.2,0.7-4.1,2.1
	c-1,1.4-1.5,3.3-1.5,5.7c0,2.4,0.5,4.3,1.5,5.7s2.4,2.1,4.1,2.1s3.2-0.7,4.1-2.1C210.4,468.5,210.8,466.6,210.8,464.2 M218.8,464.2
	c0,2.2-0.3,4.2-0.9,6c-0.6,1.8-1.5,3.3-2.7,4.6c-1.2,1.3-2.6,2.3-4.3,3c-1.7,0.7-3.5,1-5.6,1c-2,0-3.9-0.3-5.5-1
	c-1.7-0.7-3.1-1.7-4.3-3c-1.2-1.3-2.1-2.8-2.8-4.6c-0.7-1.8-1-3.8-1-6c0-2.2,0.3-4.1,1-5.9c0.7-1.8,1.6-3.3,2.8-4.6
	c1.2-1.3,2.6-2.2,4.3-2.9c1.7-0.7,3.5-1,5.4-1c2,0,3.8,0.3,5.5,1c1.7,0.7,3.1,1.7,4.3,2.9c1.2,1.3,2.1,2.8,2.8,4.6
	C218.5,460.1,218.8,462,218.8,464.2 M176.3,478.8c-5.9,0-10.4-1.6-13.5-4.9c-3.1-3.3-4.6-8-4.6-14c0-3,0.5-5.7,1.4-8
	c0.9-2.4,2.2-4.4,3.9-6c1.6-1.6,3.6-2.9,5.9-3.7c2.3-0.8,4.7-1.3,7.4-1.3c1.5,0,2.9,0.1,4.2,0.3c1.3,0.2,2.4,0.5,3.3,0.8
	c0.9,0.3,1.7,0.6,2.4,0.9c0.6,0.3,1.1,0.6,1.4,0.7l-2.4,6.6c-1.1-0.6-2.4-1.1-3.9-1.5c-1.5-0.4-3.2-0.6-5.1-0.6
	c-1.3,0-2.5,0.2-3.7,0.6c-1.2,0.4-2.3,1.1-3.2,2c-0.9,0.9-1.7,2.1-2.2,3.6c-0.6,1.5-0.8,3.3-0.8,5.3c0,1.7,0.2,3.2,0.6,4.7
	c0.4,1.5,1,2.7,1.8,3.7c0.8,1,1.9,1.9,3.2,2.5c1.3,0.6,2.9,0.9,4.8,0.9c1.2,0,2.3-0.1,3.2-0.2c0.9-0.1,1.8-0.3,2.5-0.5
	c0.7-0.2,1.4-0.4,1.9-0.7c0.6-0.2,1.1-0.5,1.5-0.7l2.3,6.6c-1.2,0.7-2.8,1.3-4.9,1.9C181.5,478.5,179.1,478.8,176.3,478.8
	 M145.2,461.5c0-0.7-0.1-1.3-0.3-1.9c-0.2-0.6-0.5-1.2-0.9-1.7c-0.4-0.5-0.9-0.9-1.5-1.2c-0.6-0.3-1.4-0.5-2.3-0.5
	c-0.9,0-1.6,0.1-2.3,0.4c-0.6,0.3-1.2,0.7-1.6,1.2c-0.4,0.5-0.7,1.1-1,1.7c-0.2,0.6-0.4,1.3-0.5,2H145.2z M126.9,464.5
	c0-2.4,0.4-4.6,1.1-6.4c0.8-1.8,1.7-3.4,3-4.6c1.2-1.2,2.6-2.2,4.2-2.8c1.6-0.6,3.2-0.9,4.9-0.9c3.9,0,7,1.2,9.3,3.6
	c2.3,2.4,3.4,5.9,3.4,10.6c0,0.5,0,1-0.1,1.5c0,0.5-0.1,1-0.1,1.4h-17.7c0.2,1.6,0.9,2.9,2.3,3.8c1.3,0.9,3.1,1.4,5.3,1.4
	c1.4,0,2.8-0.1,4.2-0.4c1.4-0.3,2.5-0.6,3.4-1l1,6.3c-0.4,0.2-1,0.4-1.7,0.6c-0.7,0.2-1.5,0.4-2.3,0.6c-0.9,0.2-1.8,0.3-2.8,0.4
	c-1,0.1-2,0.2-2.9,0.2c-2.5,0-4.6-0.4-6.5-1.1c-1.8-0.7-3.4-1.7-4.6-3c-1.2-1.3-2.1-2.8-2.7-4.5
	C127.2,468.4,126.9,466.5,126.9,464.5 M121.8,464.2c0,2.2-0.3,4.2-1,6c-0.6,1.8-1.6,3.3-2.8,4.6c-1.2,1.3-2.7,2.2-4.5,2.9
	c-1.8,0.7-3.8,1-6.1,1c-0.9,0-1.9,0-3-0.1c-1-0.1-2-0.2-3-0.3c-1-0.1-1.9-0.3-2.9-0.5c-0.9-0.2-1.7-0.4-2.4-0.6v-38.5l7.8-1.3v13.7
	c0.9-0.4,1.8-0.7,2.7-0.9c0.9-0.2,2-0.3,3-0.3c2,0,3.7,0.3,5.2,1c1.5,0.7,2.8,1.7,3.8,2.9c1,1.3,1.8,2.8,2.3,4.5
	C121.5,460.1,121.8,462.1,121.8,464.2 M113.8,464c0-5-1.9-7.6-5.6-7.6c-0.8,0-1.6,0.1-2.4,0.3c-0.8,0.2-1.4,0.5-1.9,0.8v14.2
	c0.4,0.1,0.9,0.1,1.5,0.2c0.6,0.1,1.2,0.1,1.9,0.1c2.1,0,3.7-0.7,4.8-2.2C113.2,468.4,113.8,466.5,113.8,464 M88.4,477.1
	c-1.3,0.4-3,0.7-5.1,1.1c-2.1,0.3-4.3,0.5-6.6,0.5c-2.3,0-4.3-0.3-5.8-0.9c-1.6-0.6-2.8-1.5-3.7-2.6c-0.9-1.1-1.6-2.5-1.9-4.1
	c-0.4-1.6-0.6-3.3-0.6-5.2v-15.4h7.8v14.4c0,2.5,0.3,4.3,1,5.5c0.7,1.1,1.9,1.7,3.7,1.7c0.6,0,1.2,0,1.8-0.1
	c0.6-0.1,1.2-0.1,1.7-0.2v-21.3h7.8V477.1z M52.3,478c-0.7-1.2-1.6-2.5-2.6-3.9c-1-1.4-2.1-2.8-3.3-4.1c-1.2-1.4-2.4-2.7-3.6-4
	c-1.3-1.3-2.5-2.4-3.8-3.4V478h-8.2v-36.3H39v13.7c2.1-2.2,4.3-4.6,6.4-7c2.1-2.4,4.2-4.7,6-6.7h9.7c-2.5,2.9-5,5.8-7.5,8.5
	c-2.5,2.7-5.1,5.5-7.9,8.2c2.9,2.4,5.7,5.3,8.4,8.6c2.7,3.3,5.3,7,7.8,11H52.3z"/>
<path class="st4" d="M117.9,317.7l-4.5,1c0-0.6-0.1-1.3-0.1-1.9c0-4.8,1.3-9.5,3.8-13.6l8.8,7.8c0.2,0.1,0.3,0.3,0.5,0.4
	c-0.5,1.3-0.9,2.7-1,4.2c-0.3,0.1-0.6,0.2-0.9,0.2L117.9,317.7z M135,291v12.4c-1.2,0.4-2.4,1-3.4,1.7c-0.4-0.3-0.8-0.6-1.2-0.9
	l-8.9-6.3C125.2,294.2,129.9,291.8,135,291 M73.6,319.4c4.3-18.8,7.9-34.7,12.2-53.5c1.9-8.5,3.2-10.7,10.8-15.1
	c10.6-6.1,18.5-10.6,29.9-17.2c7.1-4.1,8.4-3.8,8.4,4.9v43.6c-7.9,1-15.2,4.7-20.7,10.5l-3.8-2.7c-0.5-0.3-0.7-0.7-0.9-1.2
	c-0.5-1.3-0.8-2.1-2-3c-1.8-1.4-4.4-1.1-5.8,0.7c-1.4,1.8-1.1,4.4,0.7,5.8c0.6,0.5,1.3,0.9,2.1,1.1c0.5,0.1,1,0.2,1.5,0.2
	c0.5,0.1,0.8,0.2,1.1,0.5l3.5,3.2c-3.9,5.8-5.9,12.5-5.9,19.5c0,1.2,0.1,2.5,0.2,3.7l-7.6,1.6c-0.5,0-1,0-1.6,0.1
	c-0.4,0.1-0.8,0.2-1.1,0.4c-5,1.1-10.1,2.2-15.2,3.3C72.3,327.4,72.1,326.1,73.6,319.4 M143.9,303.3V291c5.1,0.9,9.7,3.2,13.5,6.8
	l-9.7,6.9c-0.1,0.1-0.3,0.2-0.4,0.3C146.2,304.3,145.1,303.7,143.9,303.3 M165.6,317.8l-12.1-2.8c-0.2-1.3-0.5-2.6-1-3.8
	c0.1-0.1,0.2-0.2,0.3-0.3l8.9-8c2.6,4.1,3.9,8.9,3.9,13.7C165.6,317.1,165.6,317.5,165.6,317.8 M149.8,251.2
	c6.5,3.1,11.3,5.4,17.8,8.6c9.1,4.4,18.2,8.8,27.3,13.1c2.2,9.8,4.5,19.7,6.7,29.5c1.3,5.9,2.1,9,3.4,14.9c2.1,9.2,1.9,10-7.6,7.8
	l-23.3-5.3c0.1-1,0.1-2,0.1-3.1c0-7-2.1-13.8-6-19.6l3.3-3c0.4-0.4,0.8-0.5,1.4-0.6c1.4-0.2,2.2-0.4,3.4-1.3c1.8-1.4,2.1-4,0.7-5.8
	s-4-2.1-5.8-0.7c-0.6,0.5-1.1,1.1-1.5,1.8c-0.2,0.5-0.4,0.9-0.6,1.4c-0.2,0.4-0.4,0.7-0.8,1l-3.8,2.7c-5.5-5.8-12.8-9.4-20.6-10.4
	v-26.6C143.9,249.3,144.5,248.6,149.8,251.2 M141.8,330.6c-0.8,0.1-1.6,0.2-2.4,0.2c-0.8,0-1.5-0.1-2.2-0.2
	c-0.1,0.3-0.3,0.5-0.4,0.8l-5.6,10.2c2.7,0.9,5.5,1.3,8.3,1.3c2.9,0,5.7-0.5,8.4-1.4l-5.5-10C142.1,331.2,142,330.9,141.8,330.6
	 M151.6,323.8l12.1,2.8c-2,4.9-5.4,9-9.8,11.9l-4.8-11.6C150.1,326,150.9,325,151.6,323.8 M115.2,326.6l12.1-2.8
	c0.7,1.2,1.6,2.3,2.6,3.2c-0.1,0.3-0.2,0.5-0.3,0.8l-4.5,10.8C120.7,335.7,117.2,331.5,115.2,326.6 M214.2,347.8
	c-5.8,7.2-8.4,10.5-14.2,17.8c-6.6,8.2-11.9,14.9-18.4,23.1c-4.7,5.9-8,6.1-15.8,6.1h-26.4h-26.5c-10.1,0-10.8,0-17-7.8
	c-6.1-7.7-10.9-13.7-17.1-21.4c-4.8-6-6-7.6-10.8-13.6c-7.5-9.4-8.7-12.7,2.9-15.3l35.8-8.2c2.7,7.6,8.1,14.1,15,18.2l-1.6,3.8
	c-0.2,0.6-0.5,0.8-1,1.2c-1.2,0.8-1.8,1.3-2.5,2.6c-1,2.1-0.1,4.5,1.9,5.5c2.1,1,4.5,0.1,5.5-1.9c0.3-0.7,0.5-1.4,0.6-2.2
	c0-0.5-0.1-1-0.1-1.5c0-0.5,0-0.8,0.3-1.2l2-3.7c4,1.5,8.2,2.3,12.5,2.3c4.3,0,8.6-0.8,12.6-2.4l2,3.6c0.3,0.5,0.3,0.9,0.3,1.5
	c-0.1,1.4-0.2,2.2,0.5,3.6c1,2.1,3.5,2.9,5.5,1.9c2.1-1,2.9-3.5,1.9-5.5c-0.3-0.7-0.8-1.3-1.4-1.8c-0.4-0.3-0.8-0.6-1.2-0.9
	c-0.4-0.3-0.6-0.5-0.8-1l-1.7-4c6.9-4.1,12.2-10.5,14.9-18.1l39.5,9C219.3,339.3,218.8,342.1,214.2,347.8"/>
<path class="st4" d="M143.9,303.3V291c5.1,0.9,9.7,3.2,13.5,6.8l-9.7,6.9c-0.1,0.1-0.3,0.2-0.4,0.3
	C146.2,304.3,145.1,303.7,143.9,303.3 M165.6,317.8l-12.1-2.8c-0.2-1.3-0.5-2.6-1-3.8c0.1-0.1,0.2-0.2,0.3-0.3l8.9-8
	c2.6,4.1,3.9,8.9,3.9,13.7C165.6,317.1,165.6,317.5,165.6,317.8 M149.8,251.2c6.5,3.1,11.3,5.4,17.8,8.6c9.1,4.4,18.2,8.8,27.3,13.1
	c2.2,9.8,4.5,19.7,6.7,29.5c1.3,5.9,2.1,9,3.4,14.9c2.1,9.2,1.9,10-7.6,7.8l-23.3-5.3c0.1-1,0.1-2,0.1-3.1c0-7-2.1-13.8-6-19.6
	l3.3-3c0.4-0.4,0.8-0.5,1.4-0.6c1.4-0.2,2.2-0.4,3.4-1.3c1.8-1.4,2.1-4,0.7-5.8s-4-2.1-5.8-0.7c-0.6,0.5-1.1,1.1-1.5,1.8
	c-0.2,0.5-0.4,0.9-0.6,1.4c-0.2,0.4-0.4,0.7-0.8,1l-3.8,2.7c-5.5-5.8-12.8-9.4-20.6-10.4v-26.6C143.9,249.3,144.5,248.6,149.8,251.2
	 M151.6,323.8l12.1,2.8c-2,4.9-5.4,9-9.8,11.9l-4.8-11.6C150.1,326,150.9,325,151.6,323.8 M139.5,342.9v-12.1c0.8,0,1.6-0.1,2.4-0.2
	c0.2,0.3,0.3,0.6,0.5,0.9l5.5,10C145.1,342.4,142.3,342.9,139.5,342.9 M214.2,347.8c-5.8,7.2-8.4,10.5-14.2,17.8
	c-6.6,8.2-11.9,14.9-18.4,23.1c-4.7,5.9-8,6.1-15.8,6.1h-26.4v-43.2c4.3,0,8.6-0.8,12.6-2.4l2,3.6c0.3,0.5,0.3,0.9,0.3,1.5
	c-0.1,1.4-0.2,2.2,0.5,3.6c1,2.1,3.5,2.9,5.5,1.9c2.1-1,2.9-3.5,1.9-5.5c-0.3-0.7-0.8-1.3-1.4-1.8c-0.4-0.3-0.8-0.6-1.2-0.9
	c-0.4-0.3-0.6-0.5-0.8-1l-1.7-4c6.9-4.1,12.2-10.5,14.9-18.1l39.5,9C219.3,339.3,218.8,342.1,214.2,347.8"/>
<polygon class="st3" points="506.7,346.3 485.7,346.3 485.7,395.2 534.6,395.2 534.6,374.2 506.7,374.2 "/>
<polygon class="st3" points="611.5,346.4 611.5,374.2 583.7,374.2 583.5,374.1 583.5,395.2 632.4,395.2 632.4,346.3 611.3,346.3 "/>
<polygon class="st3" points="485.7,297.4 506.9,297.4 506.7,297.2 506.7,269.5 506.7,269.4 534.5,269.4 534.6,269.6 534.6,248.5 
	485.7,248.5 "/>
<polygon class="st3" points="583.5,248.5 583.5,269.4 611.5,269.4 611.5,297.4 632.4,297.4 632.4,248.5 "/>
<polygon class="st5" points="581,297.4 553,269.4 583.5,269.4 583.5,248.5 534.6,248.5 534.6,269.6 562.4,297.4 "/>
<polygon class="st5" points="555.8,346.3 537.2,346.3 560.4,369.4 565.2,374.2 555.6,374.2 534.6,374.2 534.6,395.2 583.5,395.2 
	583.5,374.1 569.6,360.2 "/>
<polygon class="st5" points="611.5,297.4 611.5,318.4 611.5,327.9 606.7,323.1 583.5,300 583.5,318.5 597.4,332.4 611.3,346.3 
	632.4,346.3 632.4,297.4 "/>
<polygon class="st5" points="534.6,325.2 506.9,297.4 485.7,297.4 485.7,346.3 506.7,346.3 506.7,315.8 534.6,343.7 "/>
<path class="st3" d="M383.5,448.5l-5.3,6.3c-2.4-2.9-5.9-4.7-9.1-4.7c-5.7,0-10.1,4.5-10.1,10.5c0,6,4.3,10.6,10.1,10.6
	c3,0,6.5-1.6,9.1-4.2l5.4,5.7c-3.9,4-9.6,6.6-14.9,6.6c-10.9,0-19-8-19-18.6c0-10.4,8.3-18.2,19.3-18.2
	C374.3,442.4,379.9,444.8,383.5,448.5z"/>
<path class="st3" d="M387.9,478.8v-38.2h8.9v38.2H387.9z"/>
<path class="st3" d="M432.2,464.9c0,8.6-6.1,14.2-15.2,14.2c-9.1,0-15.2-5.7-15.2-14.2s6.1-14.2,15.2-14.2
	C426.1,450.7,432.2,456.4,432.2,464.9z M410.8,465c0,4.3,2.5,7.2,6.2,7.2c3.7,0,6.2-2.9,6.2-7.2c0-4.3-2.5-7.2-6.2-7.2
	C413.4,457.8,410.8,460.7,410.8,465z"/>
<path class="st3" d="M464.1,478.8h-8.9v-4.6c-1.9,3.3-5,4.9-9,4.9c-6,0-9.9-4.1-9.9-10.6v-17.5h8.9v15c0,3.3,1.8,5.3,4.6,5.3
	c3.4-0.1,5.4-2.8,5.4-6.6v-13.7h8.9V478.8z"/>
<path class="st3" d="M499.2,478.8h-8.9v-3.7c-2,2.6-4.8,4-8.3,4c-7.8,0-13-5.8-13-14.4c0-8.5,5.1-14.1,12.8-14.1
	c3.7,0,6.6,1.4,8.6,4v-14.1h8.9V478.8z M490.3,465c0-4.3-2.5-7.2-6.2-7.2c-3.7,0-6.2,2.9-6.2,7.2c0.1,4.3,2.5,7.3,6.2,7.3
	C487.8,472.3,490.3,469.3,490.3,465z"/>
<path class="st3" d="M531.8,478.8l-16.6-22.2v22.2h-8.6v-36.1h8.1l16.6,22.3v-22.3h8.6v36.1H531.8z"/>
<path class="st3" d="M571.7,460.7v18.1h-8.7v-3.2c-1.8,2.4-4.7,3.6-8.5,3.6c-5.9,0-9.5-3.6-9.5-8.7c0-5.3,3.8-8.3,10.7-8.4h7.3v-0.4
	c0-2.7-1.8-4.4-5.4-4.4c-2.3,0-5.4,0.8-8.3,2.3l-2.5-5.9c4.3-2,8.2-3.1,12.9-3.1C567.2,450.6,571.6,454.4,571.7,460.7z M562.9,469.4
	v-2.5h-5.6c-2.7,0-4,0.9-4,3c0,2,1.4,3.3,3.9,3.3C560,473.2,562.3,471.7,562.9,469.4z"/>
<path class="st3" d="M595.7,477.3c-2,1.2-4.7,1.9-7.4,1.9c-5.4,0-9.2-3-9.2-8.8v-12.3h-3.9v-5.8h3.9v-7.7h8.9v7.7h7.3v5.9h-7.3V469
	c0,2.2,0.9,3.1,2.6,3c0.9,0,2.1-0.4,3.5-0.9L595.7,477.3z"/>
<path class="st3" d="M609.3,443.1c0,2.8-2,4.7-4.7,4.7c-2.7,0-4.7-2-4.7-4.7c0-2.7,2-4.7,4.7-4.7
	C607.4,438.4,609.3,440.3,609.3,443.1z M600.2,478.8v-27.8h8.9v27.8H600.2z"/>
<path class="st3" d="M622.8,478.8l-10.5-27.8h9.2l6,19.6l6-19.6h8.9L632,478.8H622.8z"/>
<path class="st3" d="M671.8,467.3h-19.5c0.9,3.3,3.2,5.2,6.5,5.2c2.4,0,4.8-1,6.6-2.8l4.7,4.6c-2.8,3.1-7,4.9-12.1,4.9
	c-9.1,0-14.7-5.7-14.7-14.1c0-8.6,5.9-14.3,14.5-14.3C667.6,450.7,672.4,457.2,671.8,467.3z M663.3,462.5c0-3.4-2.2-5.6-5.4-5.6
	c-3.1,0-5.2,2.3-5.8,5.6H663.3z"/>
<path class="st3" d="M708.1,448.5l-5.3,6.3c-2.4-2.9-5.9-4.7-9.1-4.7c-5.7,0-10.1,4.5-10.1,10.5c0,6,4.3,10.6,10.1,10.6
	c3,0,6.5-1.6,9.1-4.2l5.4,5.7c-3.9,4-9.6,6.6-14.9,6.6c-10.9,0-19-8-19-18.6c0-10.4,8.3-18.2,19.3-18.2
	C699,442.4,704.5,444.8,708.1,448.5z"/>
<path class="st3" d="M739.3,464.9c0,8.6-6.1,14.2-15.2,14.2c-9.1,0-15.2-5.7-15.2-14.2s6.1-14.2,15.2-14.2
	C733.2,450.7,739.3,456.4,739.3,464.9z M717.9,465c0,4.3,2.5,7.2,6.2,7.2c3.7,0,6.2-2.9,6.2-7.2c0-4.3-2.5-7.2-6.2-7.2
	C720.5,457.8,717.9,460.7,717.9,465z"/>
<path class="st3" d="M772.5,461.3v17.5h-8.9v-15c0-3.2-1.9-5.3-4.9-5.3c-3.2,0-5.3,2.3-5.7,5.6v14.7h-8.9v-27.8h8.9v4.5
	c2-3.2,5.2-4.9,9.3-4.9C768.5,450.6,772.5,454.8,772.5,461.3z"/>
<g class="st0">
	<g>
		<defs>
			<rect id="SVGID_5_" x="302.2" y="232.2" width="1.3" height="256.5"/>
		</defs>
		<use xlink:href="#SVGID_5_"  style="overflow:visible;fill:#231F20;"/>
		<clipPath id="SVGID_6_">
			<use xlink:href="#SVGID_5_"  style="overflow:visible;"/>
		</clipPath>
		<rect x="302.2" y="232.2" class="st6" width="1.3" height="256.5"/>
	</g>
</g>
<g class="st0">
	<path class="st3" d="M296.4,552.3h-16.1v-28h16.1v4.9h-10.2v6.1h9.5v4.9h-9.5v7.2h10.2V552.3z"/>
	<path class="st3" d="M317,552.3l-0.8-2.7h-0.3c-0.6,1-1.5,1.8-2.7,2.3c-1.1,0.5-2.5,0.8-3.9,0.8c-2.5,0-4.4-0.7-5.7-2
		s-1.9-3.3-1.9-5.8v-14h5.8v12.5c0,1.5,0.3,2.7,0.8,3.5c0.5,0.8,1.4,1.2,2.6,1.2c1.6,0,2.8-0.5,3.5-1.6c0.7-1.1,1.1-2.9,1.1-5.4
		v-10.1h5.8v21.4H317z"/>
	<path class="st3" d="M339.6,530.5c0.8,0,1.4,0.1,2,0.2l-0.4,5.5c-0.5-0.1-1-0.2-1.7-0.2c-1.9,0-3.3,0.5-4.4,1.4c-1,1-1.6,2.3-1.6,4
		v10.9h-5.8v-21.4h4.4l0.9,3.6h0.3c0.7-1.2,1.6-2.2,2.7-2.9S338.2,530.5,339.6,530.5z"/>
	<path class="st3" d="M364.9,541.5c0,3.5-0.9,6.2-2.8,8.2c-1.8,2-4.4,2.9-7.7,2.9c-2.1,0-3.9-0.4-5.4-1.4c-1.6-0.9-2.8-2.2-3.6-3.9
		c-0.8-1.7-1.3-3.6-1.3-5.9c0-3.5,0.9-6.2,2.7-8.2s4.4-2.9,7.7-2.9c2.1,0,3.9,0.4,5.4,1.3c1.6,0.9,2.8,2.2,3.6,3.8
		C364.4,537.3,364.9,539.3,364.9,541.5z M350.1,541.5c0,2.1,0.3,3.7,1,4.8c0.7,1.1,1.8,1.6,3.4,1.6c1.6,0,2.7-0.5,3.4-1.6
		c0.7-1.1,1-2.7,1-4.8c0-2.1-0.3-3.7-1-4.8s-1.8-1.6-3.4-1.6c-1.6,0-2.7,0.5-3.4,1.6C350.4,537.8,350.1,539.4,350.1,541.5z"/>
	<path class="st3" d="M381.5,552.6c-2.5,0-4.5-0.9-5.9-2.7h-0.3c0.2,1.8,0.3,2.8,0.3,3.1v8.7h-5.8v-30.8h4.7l0.8,2.8h0.3
		c1.4-2.1,3.4-3.2,6.1-3.2c2.5,0,4.5,1,5.9,2.9c1.4,2,2.1,4.7,2.1,8.1c0,2.3-0.3,4.3-1,6c-0.7,1.7-1.6,3-2.9,3.8
		C384.6,552.2,383.1,552.6,381.5,552.6z M379.7,535.1c-1.4,0-2.5,0.4-3.2,1.3c-0.7,0.9-1,2.4-1,4.4v0.6c0,2.3,0.3,3.9,1,4.9
		c0.7,1,1.8,1.5,3.2,1.5c2.6,0,3.9-2.2,3.9-6.5c0-2.1-0.3-3.7-1-4.7C382.1,535.7,381.1,535.1,379.7,535.1z"/>
	<path class="st3" d="M404.2,552.6c-3.4,0-6.1-1-8.1-2.9c-1.9-1.9-2.9-4.6-2.9-8.1c0-3.6,0.9-6.4,2.7-8.3s4.3-2.9,7.4-2.9
		c3,0,5.4,0.9,7.1,2.6c1.7,1.7,2.5,4.1,2.5,7.1v2.8h-13.8c0.1,1.7,0.6,3,1.5,3.9c0.9,0.9,2.2,1.4,3.9,1.4c1.3,0,2.5-0.1,3.7-0.4
		c1.1-0.3,2.3-0.7,3.6-1.3v4.5c-1,0.5-2.1,0.9-3.3,1.1C407.3,552.5,405.9,552.6,404.2,552.6z M403.4,534.6c-1.2,0-2.2,0.4-2.9,1.2
		c-0.7,0.8-1.1,1.9-1.2,3.3h8.2c0-1.4-0.4-2.6-1.1-3.3C405.6,535,404.6,534.6,403.4,534.6z"/>
	<path class="st3" d="M445.9,552.3h-19.6v-4.1l7-7.1c2.1-2.1,3.4-3.6,4.1-4.4c0.6-0.8,1.1-1.6,1.4-2.3c0.3-0.7,0.4-1.4,0.4-2.2
		c0-1.1-0.3-2-0.9-2.5c-0.6-0.5-1.4-0.8-2.5-0.8c-1.1,0-2.1,0.2-3.2,0.7c-1,0.5-2.1,1.2-3.2,2.1l-3.2-3.8c1.4-1.2,2.5-2,3.4-2.5
		c0.9-0.5,1.9-0.9,3-1.1c1.1-0.3,2.3-0.4,3.6-0.4c1.7,0,3.3,0.3,4.6,1c1.3,0.6,2.4,1.5,3.1,2.7c0.7,1.1,1.1,2.5,1.1,3.9
		c0,1.3-0.2,2.5-0.7,3.6s-1.2,2.3-2.1,3.5c-1,1.2-2.6,2.9-5,5.1l-3.6,3.4v0.3h12.2V552.3z"/>
	<path class="st3" d="M468.2,538.3c0,4.9-0.8,8.5-2.4,10.9c-1.6,2.3-4.1,3.5-7.4,3.5c-3.2,0-5.7-1.2-7.3-3.6
		c-1.6-2.4-2.5-6-2.5-10.7c0-4.9,0.8-8.6,2.4-10.9c1.6-2.3,4.1-3.5,7.4-3.5c3.2,0,5.7,1.2,7.3,3.7S468.2,533.5,468.2,538.3z
		 M454.5,538.3c0,3.4,0.3,5.9,0.9,7.4c0.6,1.5,1.6,2.2,3,2.2c1.4,0,2.4-0.8,3-2.3c0.6-1.5,0.9-4,0.9-7.4c0-3.4-0.3-5.9-0.9-7.4
		c-0.6-1.5-1.6-2.3-3-2.3c-1.4,0-2.4,0.7-3,2.3C454.8,532.4,454.5,534.8,454.5,538.3z"/>
	<path class="st3" d="M485.8,552.3h-5.9v-16.2l0.1-2.7l0.1-2.9c-1,1-1.7,1.6-2,1.9l-3.2,2.6l-2.9-3.6l9-7.2h4.9V552.3z"/>
	<path class="st3" d="M503.2,523.9c2.7,0,4.8,0.6,6.5,1.8c1.6,1.2,2.5,2.9,2.5,4.9c0,1.4-0.4,2.7-1.2,3.8c-0.8,1.1-2.1,2.1-3.8,3
		c2.1,1.1,3.6,2.3,4.5,3.5c0.9,1.2,1.4,2.6,1.4,4c0,2.3-0.9,4.1-2.7,5.5c-1.8,1.4-4.2,2.1-7.1,2.1c-3.1,0-5.5-0.7-7.2-2
		c-1.7-1.3-2.6-3.1-2.6-5.5c0-1.6,0.4-3,1.3-4.3c0.8-1.2,2.2-2.3,4.1-3.3c-1.6-1-2.7-2.1-3.4-3.2c-0.7-1.1-1.1-2.4-1.1-3.8
		c0-2,0.8-3.6,2.5-4.9C498.3,524.5,500.5,523.9,503.2,523.9z M498.8,544.8c0,1.1,0.4,2,1.1,2.6c0.8,0.6,1.8,0.9,3.1,0.9
		c1.5,0,2.6-0.3,3.3-0.9c0.7-0.6,1.1-1.5,1.1-2.5c0-0.9-0.4-1.7-1.1-2.4c-0.7-0.7-1.9-1.5-3.5-2.4
		C500.2,541.3,498.8,542.9,498.8,544.8z M503.1,528.2c-1,0-1.8,0.3-2.4,0.8c-0.6,0.5-0.9,1.2-0.9,2.1c0,0.8,0.2,1.5,0.7,2.1
		c0.5,0.6,1.4,1.2,2.7,1.9c1.3-0.6,2.1-1.2,2.6-1.8c0.5-0.6,0.7-1.3,0.7-2.1c0-0.9-0.3-1.6-1-2.1C505,528.5,504.1,528.2,503.1,528.2
		z"/>
</g>
</svg>
