<svg viewBox="0 0 878 389" fill="none" xmlns="http://www.w3.org/2000/svg">
<path d="M235.199 338.391L385.263 243.508L412.798 45.5947L235.199 116.394V338.391Z" fill="url(#paint0_linear_27_210)"/>
<path d="M60 45.5947L87.5904 243.531L235.199 338.391V116.394L60 45.5947Z" fill="url(#paint1_linear_27_210)"/>
<path d="M235.199 116.399L60 45.5994L235.199 0L412.798 45.5994L235.199 116.399Z" fill="#25225E"/>
<path d="M326.905 274.771C315.304 287.225 292.669 286.02 277.776 273.137C262.846 260.23 259.87 241.776 269.891 230.99C275.153 225.719 304.084 199.405 326.228 169.265C349.613 140.088 366.209 107.082 375.471 110.667C384.508 113.724 384.535 155.563 370.843 194.111C358.739 233.285 332.917 269.169 326.905 274.771Z" fill="#3553BF"/>
<path d="M299.618 219.767C311.229 215.933 371.773 187.577 373.277 186.762C372.52 189.217 371.709 191.669 370.842 194.108C358.738 233.283 332.916 269.167 326.904 274.767C315.302 287.222 292.668 286.016 277.774 273.133C272.152 268.273 268.227 262.626 266.051 256.898C266.622 254.118 267.609 230.335 299.618 219.767Z" fill="#213FAB"/>
<path d="M337.761 307.608C322.102 314.279 301.909 303.983 293.531 286.162C285.129 268.306 289.906 250.232 303.442 244.445C310.391 241.767 347.516 229.472 379.993 210.92C413.213 193.755 441.784 170.334 448.79 177.372C455.806 183.835 438.839 222.079 410.671 251.745C383.701 282.627 345.53 304.931 337.761 307.608Z" fill="#5271E1"/>
<path d="M405.927 219.977C404.181 224.919 402.214 229.88 400.011 234.765C384.723 272.809 356.032 306.447 349.58 311.533C336.993 322.991 314.535 319.926 300.752 305.86C286.935 291.77 285.49 273.131 296.364 263.207C297.444 262.29 400.17 222.767 405.927 219.977Z" fill="#3553BF"/>
<path d="M325.355 337.176C308.336 336.916 294.06 319.312 293.635 299.625C293.203 279.895 304.907 265.316 319.626 265.522C327.063 265.893 365.984 269.725 403.194 265.953C440.521 263.748 476.137 253.938 479.686 263.216C483.475 271.97 452.445 300.037 414.662 315.716C377.481 332.991 333.542 337.883 325.355 337.176Z" fill="#0086FF"/>
<path d="M153.094 274.771C164.695 287.225 187.329 286.02 202.223 273.137C217.153 260.23 220.128 241.776 210.108 230.989C204.846 225.719 175.915 199.405 153.771 169.265C130.385 140.088 113.79 107.082 104.528 110.667C95.4915 113.724 95.4638 155.563 109.156 194.111C121.259 233.285 147.082 269.17 153.094 274.771Z" fill="#3553BF"/>
<path d="M180.375 219.767C168.764 215.933 108.219 187.577 106.715 186.762C107.473 189.217 108.284 191.669 109.15 194.108C121.254 233.283 147.076 269.167 153.089 274.767C164.69 287.222 187.324 286.016 202.218 273.133C207.84 268.273 211.766 262.626 213.941 256.898C213.37 254.118 212.383 230.335 180.375 219.767Z" fill="#213FAB"/>
<path d="M142.235 307.608C157.895 314.278 178.088 303.983 186.467 286.162C194.868 268.306 190.091 250.231 176.554 244.444C169.607 241.766 132.481 229.471 100.004 210.92C66.784 193.754 38.2135 170.334 31.2067 177.372C24.1905 183.835 41.1582 222.079 69.3251 251.745C96.2959 282.626 134.468 304.93 142.235 307.608Z" fill="#5271E1"/>
<path d="M72.9473 219.977C74.6925 224.918 76.6606 229.879 78.8635 234.765C94.1515 272.809 122.842 306.446 129.295 311.532C141.882 322.989 164.339 319.924 178.122 305.858C191.939 291.768 193.384 273.129 182.51 263.205C181.43 262.288 78.7039 222.767 72.9473 219.977Z" fill="#3553BF"/>
<path d="M154.646 337.177C171.665 336.916 185.942 319.311 186.366 299.624C186.798 279.895 175.095 265.316 160.375 265.521C152.938 265.894 114.018 269.725 76.8079 265.952C39.4797 263.746 3.86239 253.939 0.31397 263.216C-3.47539 271.97 27.5548 300.037 65.3377 315.715C102.521 332.991 146.461 337.883 154.646 337.177Z" fill="#0086FF"/>
<path d="M359.703 313.514C359.703 379.623 306.11 388.379 240.001 388.379C173.892 388.379 120.299 379.622 120.299 313.514C120.299 247.405 173.89 185.351 240 185.351C306.11 185.351 359.703 247.405 359.703 313.514Z" fill="url(#paint2_linear_27_210)"/>
<path d="M217.105 217.558C206.876 221.084 197.911 226.556 190.458 233.822C187.552 236.655 182.902 236.596 180.068 233.69C177.236 230.784 177.296 226.133 180.201 223.3C189.218 214.511 200.022 207.905 212.314 203.665C216.15 202.343 220.338 204.378 221.654 208.215C223.428 213.379 218.163 217.193 217.105 217.558Z" fill="white"/>
<path d="M165.55 298.266C173.025 298.266 179.085 292.206 179.085 284.732C179.085 277.257 173.025 271.197 165.55 271.197C158.076 271.197 152.016 277.257 152.016 284.732C152.016 292.206 158.076 298.266 165.55 298.266Z" fill="#121212"/>
<path d="M316.131 298.266C323.605 298.266 329.665 292.206 329.665 284.731C329.665 277.256 323.605 271.197 316.131 271.197C308.656 271.197 302.596 277.256 302.596 284.731C302.596 292.206 308.656 298.266 316.131 298.266Z" fill="#121212"/>
<path d="M238.673 340.132C247.882 340.132 256.407 338.801 264.249 336.139C272.091 333.477 279.358 329.556 286.049 324.376L290.905 331.498C284.071 337.11 276.192 341.607 267.271 344.988C258.422 348.442 248.888 350.168 238.673 350.168C228.456 350.168 218.887 348.442 209.966 344.988C201.116 341.607 193.274 337.11 186.439 331.498L191.295 324.376C197.987 329.556 205.254 333.477 213.096 336.139C220.938 338.801 229.463 340.132 238.673 340.132Z" fill="#121212"/>
<path d="M598.605 216.79C598.605 227.027 596.878 235.968 593.425 243.615C590.095 251.262 585.1 257.243 578.44 261.56C571.903 265.753 563.887 267.85 554.39 267.85C545.263 267.85 537.432 265.753 530.895 261.56C524.358 257.367 519.302 251.447 515.725 243.8C512.272 236.153 510.545 227.15 510.545 216.79C510.545 200.757 514.492 188.238 522.385 179.235C530.402 170.232 541.317 165.73 555.13 165.73C564.503 165.73 572.397 167.888 578.81 172.205C585.347 176.398 590.28 182.318 593.61 189.965C596.94 197.612 598.605 206.553 598.605 216.79ZM521.46 216.79C521.46 229.37 524.112 239.545 529.415 247.315C534.718 254.962 543.043 258.785 554.39 258.785C565.86 258.785 574.247 254.962 579.55 247.315C584.977 239.545 587.69 229.37 587.69 216.79C587.69 208.65 586.58 201.435 584.36 195.145C582.14 188.855 578.625 183.922 573.815 180.345C569.005 176.768 562.715 174.98 554.945 174.98C543.722 174.98 535.335 178.68 529.785 186.08C524.235 193.48 521.46 203.717 521.46 216.79Z" fill="white"/>
<path d="M669.431 165.73C682.011 165.73 691.816 169.985 698.846 178.495C705.999 186.882 709.576 199.462 709.576 216.235C709.576 233.008 705.876 245.835 698.476 254.715C691.199 263.472 681.209 267.85 668.506 267.85C659.749 267.85 652.719 266 647.416 262.3C642.236 258.6 638.413 254.16 635.946 248.98H635.206C635.329 252.187 635.453 255.578 635.576 259.155C635.823 262.732 635.946 266.123 635.946 269.33V309.66H625.401V167.58H634.096L635.391 186.08H635.946C638.413 180.653 642.298 175.905 647.601 171.835C653.028 167.765 660.304 165.73 669.431 165.73ZM667.951 174.98C657.098 174.98 649.081 178.433 643.901 185.34C638.721 192.123 636.069 201.99 635.946 214.94V216.79C635.946 230.85 638.474 241.395 643.531 248.425C648.711 255.332 656.604 258.785 667.211 258.785C677.324 258.785 685.094 255.023 690.521 247.5C695.948 239.977 698.661 229.493 698.661 216.05C698.661 202.853 696.071 192.74 690.891 185.71C685.834 178.557 678.188 174.98 667.951 174.98Z" fill="white"/>
<path d="M775.553 267.85C761.123 267.85 749.961 263.472 742.068 254.715C734.298 245.835 730.413 233.378 730.413 217.345C730.413 206.368 732.386 197.057 736.333 189.41C740.28 181.64 745.768 175.782 752.798 171.835C759.951 167.765 768.215 165.73 777.588 165.73C782.398 165.73 786.838 166.162 790.908 167.025C795.101 167.888 798.801 169.06 802.008 170.54L799.048 179.79C792.141 176.707 784.988 175.165 777.588 175.165C765.995 175.165 757.053 178.927 750.763 186.45C744.473 193.973 741.328 204.21 741.328 217.16C741.328 229.493 744.103 239.483 749.653 247.13C755.203 254.777 763.775 258.6 775.368 258.6C780.301 258.6 784.926 258.107 789.243 257.12C793.56 256.133 797.445 254.838 800.898 253.235V262.67C797.691 264.273 793.991 265.507 789.798 266.37C785.605 267.357 780.856 267.85 775.553 267.85Z" fill="white"/>
<path d="M864.461 165.915C869.641 165.915 874.081 166.47 877.781 167.58L876.301 177.2C874.328 176.707 872.355 176.337 870.381 176.09C868.408 175.843 866.311 175.72 864.091 175.72C854.965 175.72 847.75 179.05 842.446 185.71C837.266 192.247 834.676 201.003 834.676 211.98V266H824.131V167.58H833.011L834.121 186.08H834.676C837.143 180.53 840.843 175.782 845.776 171.835C850.833 167.888 857.061 165.915 864.461 165.915Z" fill="white"/>
<defs>
<linearGradient id="paint0_linear_27_210" x1="328.799" y1="184.798" x2="351.598" y2="10.7998" gradientUnits="userSpaceOnUse">
<stop stop-color="#837BFF"/>
<stop offset="1" stop-color="#5371DD"/>
</linearGradient>
<linearGradient id="paint1_linear_27_210" x1="110.4" y1="191.998" x2="160.799" y2="122.398" gradientUnits="userSpaceOnUse">
<stop stop-color="#0086FF"/>
<stop offset="1" stop-color="#5371DD"/>
</linearGradient>
<linearGradient id="paint2_linear_27_210" x1="240.001" y1="185.351" x2="240.001" y2="388.379" gradientUnits="userSpaceOnUse">
<stop stop-color="#93EAFF"/>
<stop offset="1" stop-color="#0086FF"/>
</linearGradient>
</defs>
</svg>
