<svg xmlns="http://www.w3.org/2000/svg" viewBox="0 0 298.73 36.87"><defs><style>.cls-1{fill:none;}.cls-2,.cls-3,.cls-4,.cls-5,.cls-6{isolation:isolate;}.cls-3,.cls-4,.cls-5,.cls-6{font-size:20px;font-family:RedHatText-Medium, Red Hat Text;font-weight:500;}.cls-4{letter-spacing:-0.01em;}.cls-5{letter-spacing:-0.01em;}.cls-6{letter-spacing:-0.02em;}</style></defs><g id="Layer_2" data-name="Layer 2"><g id="Layer_1-2" data-name="Layer 1"><path id="path3055" class="cls-1" d="M18.88,1.94a2.33,2.33,0,0,0-.86.22L6.2,7.81A2.33,2.33,0,0,0,5,9.33L2.06,22a2.22,2.22,0,0,0,.3,1.72l.13.17,8.18,10.18a2.28,2.28,0,0,0,1.77.84H25.56a2.28,2.28,0,0,0,1.77-.84l8.18-10.18a2.2,2.2,0,0,0,.43-1.9L33,9.33a2.22,2.22,0,0,0-1.2-1.52L20,2.16A2.39,2.39,0,0,0,18.88,1.94Z"/><path d="M37.94,22.44,34.67,8.26a2.51,2.51,0,0,0-1.36-1.7L20.09.25A2.57,2.57,0,0,0,18.87,0a2.63,2.63,0,0,0-1,.25L4.69,6.56a2.55,2.55,0,0,0-1.37,1.7L.06,22.44a2.5,2.5,0,0,0,.35,1.92,1.43,1.43,0,0,0,.14.2L9.69,35.93a2.55,2.55,0,0,0,2,.94H26.33a2.54,2.54,0,0,0,2-.94l9.14-11.37A2.49,2.49,0,0,0,37.94,22.44Zm-8.38-3A10.57,10.57,0,0,1,10.29,25c2.19-.77,8.9-3.22,4.75-2.5a49.26,49.26,0,0,1-5.94.65H6.64a3.73,3.73,0,0,1-.83-.06c-1.57-.18-2.6-.62-2.55-1.44.14-2.1,5.16-3.22,5.16-3.22h0a10.57,10.57,0,0,1,19.2-5.55c-2.22.79-8.84,3.2-4.71,2.49a51.61,51.61,0,0,1,5.94-.65H31.3a3.73,3.73,0,0,1,.83.06c1.58.18,2.61.62,2.56,1.44-.12,2.1-5,3.22-5.13,3.24Z"/><g class="cls-2"><text class="cls-3" transform="translate(46.67 27.96)">O</text><text class="cls-3" transform="translate(62.89 27.96)">p</text><text class="cls-3" transform="translate(75.17 27.96)">en Clu</text><text class="cls-4" transform="translate(133.91 27.96)">s</text><text class="cls-5" transform="translate(143.29 27.96)">t</text><text class="cls-3" transform="translate(151.43 27.96)">er </text><text class="cls-4" transform="translate(175.25 27.96)">M</text><text class="cls-3" transform="translate(192.85 27.96)">anageme</text><text class="cls-6" transform="translate(279.11 27.96)">n</text><text class="cls-3" transform="translate(290.45 27.96)">t</text></g></g></g></svg>