<svg xmlns="http://www.w3.org/2000/svg" viewBox="0 0 214.77 42.03"><defs><style>.cls-1{fill:#788591;}.cls-2{fill:#00bc8e;}</style></defs><g id="Layer_2" data-name="Layer 2"><g id="Layer_1-2" data-name="Layer 1"><path class="cls-1" d="M133.22,29.39h-3.4v-.6c0-3,0-6,0-9a8.27,8.27,0,0,0-.19-1.86,3.19,3.19,0,0,0-5.39-1.67A4.83,4.83,0,0,0,122.64,20c0,2.92,0,5.84,0,8.77v.63h-3.36v-.54c0-3,0-6,0-9a9.12,9.12,0,0,0-.15-1.73,3,3,0,0,0-2.26-2.61,3.48,3.48,0,0,0-3.64,1.26,4.59,4.59,0,0,0-1.09,2.82c-.06,1.46,0,2.93-.06,4.4s0,3.24,0,4.86v.57h-3.4V12.62c.73,0,1.44,0,2.14,0,.12,0,.28.2.32.34.18.56.33,1.14.5,1.79a6.88,6.88,0,0,1,5.3-2.52,5.5,5.5,0,0,1,5,2.92l.4-.49a6.36,6.36,0,0,1,8.35-1.47,5.81,5.81,0,0,1,2.61,4.89c.09,3.71,0,7.43,0,11.15A.59.59,0,0,1,133.22,29.39Z"/><path class="cls-1" d="M63.81,24c.36-1.07.69-2,1-3,.89-2.63,1.79-5.25,2.65-7.89a.64.64,0,0,1,.74-.51c.94,0,1.88,0,2.89,0-.35,1.06-.68,2-1,3Q67.9,22.3,65.68,29c-.12.35-.27.49-.65.47-.63,0-1.26,0-1.89,0a.52.52,0,0,1-.59-.38q-1.95-4.63-3.94-9.25c-.06-.15-.13-.29-.25-.53l-1.18,2.8Q55.71,25.52,54.27,29c-.13.3-.26.45-.61.43a15.7,15.7,0,0,0-1.94,0c-.36,0-.48-.14-.59-.44Q48.6,21.36,46,13.76l-.37-1.14c1.17,0,2.26,0,3.35,0,.1,0,.25.22.3.37q1.56,4.57,3.08,9.15c.18.55.37,1.09.59,1.73.12-.25.2-.4.27-.56q2.19-5,4.36-10.1c.16-.4.4-.43.75-.44s.6.06.76.44C60.57,16.61,62,20,63.51,23.33Z"/><path class="cls-1" d="M89.43,29.38H86.71l-.35-2a8.73,8.73,0,0,1-7.79,2.26,8.22,8.22,0,0,1-5.14-3A9.25,9.25,0,0,1,73.82,15a8.91,8.91,0,0,1,12.6-.24c.12-.62.24-1.17.33-1.72,0-.28.16-.39.46-.38.62,0,1.25,0,1.88,0,.27,0,.39.06.39.36q0,8.13,0,16.25S89.45,29.29,89.43,29.38ZM75.06,21a5.48,5.48,0,1,0,11,0,5.48,5.48,0,1,0-11,0Z"/><path class="cls-1" d="M212.7,15.33V7.75h2.07V29.44h-1.6l-.32-2.74a8.68,8.68,0,0,1-7.48,3.11,8.14,8.14,0,0,1-5.58-2.58,9.3,9.3,0,0,1-.25-12,8.2,8.2,0,0,1,4.13-2.55,9.23,9.23,0,0,1,4.81,0A8.51,8.51,0,0,1,212.7,15.33Zm-6.47,12.46a6.53,6.53,0,0,0,6.62-6.74,6.63,6.63,0,1,0-13.25.09A6.49,6.49,0,0,0,206.23,27.79Z"/><path class="cls-1" d="M160.34,21.09a8.82,8.82,0,0,1,17.64,0,8.82,8.82,0,0,1-17.64,0Zm8.83,6.7a6.51,6.51,0,0,0,6.68-6.74,6.69,6.69,0,0,0-13.38,0A6.49,6.49,0,0,0,169.17,27.79Z"/><path class="cls-1" d="M153.07,18.12c-.62,0-1.19,0-1.75,0-.16,0-.36-.21-.46-.37a6.56,6.56,0,0,0-12.24,4,6.52,6.52,0,0,0,10.51,4.66,8.49,8.49,0,0,0,1.63-1.94.92.92,0,0,1,.93-.51c.45,0,.91,0,1.37,0-.16,2.91-4.07,5.79-7.91,5.87a8.53,8.53,0,0,1-8.7-8,8.58,8.58,0,0,1,7.14-9.38C147.93,11.76,152.14,14.23,153.07,18.12Z"/><path class="cls-1" d="M180.42,12.73h2.07v.74c0,2.82,0,5.64,0,8.46a9.22,9.22,0,0,0,.33,2.45,5.15,5.15,0,0,0,9.74-.13,9.14,9.14,0,0,0,.3-2.33c0-2.79,0-5.59,0-8.39v-.78H195c0,.22,0,.43,0,.64,0,2.95.05,5.9,0,8.84a11,11,0,0,1-.55,3.33,6.74,6.74,0,0,1-7,4.28c-4.33-.22-6.95-2.89-7-7.22-.05-3.14,0-6.29,0-9.44A4.37,4.37,0,0,1,180.42,12.73Z"/><path class="cls-1" d="M156,7.76h2V29.43h-2Z"/><path class="cls-1" d="M102.6,20a8.29,8.29,0,0,0-1.18-.33c-1-.2-2-.35-3-.57a7.89,7.89,0,0,1-1.78-.58,1.5,1.5,0,0,1-.43-2.42,2.57,2.57,0,0,1,.92-.65,4.81,4.81,0,0,1,3.54,0,2.19,2.19,0,0,1,1.49,1.85v.06a.13.13,0,0,0,.12.11h0l2.62-.79a.43.43,0,0,0,.3-.51,4.29,4.29,0,0,0-1.75-2.56,7.72,7.72,0,0,0-7.4-.91,5.39,5.39,0,0,0-3.54,5.65,4,4,0,0,0,3,3.23c1.21.38,2.48.57,3.71.88a10.92,10.92,0,0,1,2.21.69,1.67,1.67,0,0,1,.3,2.82,3.29,3.29,0,0,1-1,.56,5.15,5.15,0,0,1-3.13.08,2.71,2.71,0,0,1-2.07-1.95,1.87,1.87,0,0,0-.06-.22.13.13,0,0,0-.12-.11h0l-2.7.81a.42.42,0,0,0-.29.52,4.93,4.93,0,0,0,2.33,3,8.74,8.74,0,0,0,7.84.43,4.85,4.85,0,0,0,3.11-3.57A4.75,4.75,0,0,0,102.6,20Z"/><path class="cls-2" d="M35.57,9.59,19.79.38A2.74,2.74,0,0,0,17,.38L1.22,9.59A2.47,2.47,0,0,0,0,11.72V30.29a2.52,2.52,0,0,0,1.25,2.17L17,41.66a2.72,2.72,0,0,0,2.73,0l15.78-9.2a2.52,2.52,0,0,0,1.25-2.17V11.72A2.47,2.47,0,0,0,35.57,9.59ZM32.06,27.85a.49.49,0,0,1-.24.42L18.64,36a.45.45,0,0,1-.25.07.44.44,0,0,1-.24-.07L5,28.27a.48.48,0,0,1-.24-.43V14.17A.5.5,0,0,1,5,13.74L9.75,11a.5.5,0,0,1,.74.42V24.19l4.3-2.51V8.29A.47.47,0,0,1,15,7.87L18.15,6a.53.53,0,0,1,.49,0l3.12,1.83a.49.49,0,0,1,.24.42V21.68l4.3,2.5V11.35a.5.5,0,0,1,.74-.42l4.78,2.82a.47.47,0,0,1,.24.42Z"/></g></g></svg>