<svg id="Layer_1" data-name="Layer 1" xmlns="http://www.w3.org/2000/svg" viewBox="0 0 419.64001 115.79238"><defs><style>.cls-1{fill:none;}.cls-2{fill:#fff;}</style></defs><title>cncf-member-endusersupporter-white</title><polygon class="cls-1" points="40.819 61.082 38.707 58.972 28.5 48.764 36.665 48.764 42.79 54.889 48.916 61.014 48.984 61.082 61.233 61.082 61.233 48.833 61.164 48.764 55.039 42.64 48.916 36.517 48.916 28.352 59.123 38.557 61.233 40.668 61.233 36.449 61.233 27.211 61.233 14.891 48.916 14.891 35.456 14.891 47.775 27.211 39.609 27.211 27.359 14.96 27.291 14.891 15.042 14.891 15.042 14.894 15.042 27.14 15.111 27.211 27.359 39.456 27.359 47.622 15.042 35.306 15.042 48.764 15.042 61.082 27.359 61.082 36.599 61.082 40.819 61.082"/><path class="cls-1" d="M112.30566,54.75534a4.61175,4.61175,0,0,0-3.54943,1.58783,5.80841,5.80841,0,0,0,0,7.66394,4.78488,4.78488,0,0,0,7.09887,0,5.80693,5.80693,0,0,0,0-7.66394A4.612,4.612,0,0,0,112.30566,54.75534Z"/><path class="cls-1" d="M221.91339,15.64341h-3.73486V33.88767h4.24963q4.59339,0,7.0614-2.31812,2.46762-2.3182,2.46857-6.73944a9.02117,9.02117,0,0,0-2.46857-6.804Q227.02058,15.64362,221.91339,15.64341Z"/><path class="cls-1" d="M151.01129,55.09165v5.655H153.538a3.35184,3.35184,0,0,0,2.55091-.75745,3.23784,3.23784,0,0,0,.67358-2.21405,2.34477,2.34477,0,0,0-.87823-2.06915,4.82522,4.82522,0,0,0-2.73133-.61438Z"/><path class="cls-1" d="M157.84387,14.95646a8.22276,8.22276,0,0,0-6.3316,2.83343,9.8171,9.8171,0,0,0-2.57605,6.84692,9.7397,9.7397,0,0,0,2.57605,6.82569,8.53525,8.53525,0,0,0,12.66369,0,9.74145,9.74145,0,0,0,2.57557-6.82569,9.81887,9.81887,0,0,0-2.57557-6.84692A8.22448,8.22448,0,0,0,157.84387,14.95646Z"/><polygon class="cls-1" points="347.559 61.758 345.465 56.873 343.348 61.758 347.559 61.758"/><path class="cls-1" d="M326.38184,55.13993h-2.09278V65.36716h2.38172a5.56478,5.56478,0,0,0,3.95874-1.29986A4.93372,4.93372,0,0,0,332.01318,60.29a5.05775,5.05775,0,0,0-1.38366-3.81469A5.92029,5.92029,0,0,0,326.38184,55.13993Z"/><path class="cls-1" d="M380.66888,60.18155a5.45833,5.45833,0,0,0,1.44385,3.82556,4.78489,4.78489,0,0,0,7.09888,0,5.80693,5.80693,0,0,0,0-7.66394,4.76113,4.76113,0,0,0-7.09888,0A5.505,5.505,0,0,0,380.66888,60.18155Z"/><polygon class="cls-1" points="299.44 27.449 306.953 27.449 303.218 18.734 299.44 27.449"/><path class="cls-1" d="M265.81543,60.18155a5.45828,5.45828,0,0,0,1.44385,3.82556,4.78488,4.78488,0,0,0,7.09887,0,5.80693,5.80693,0,0,0,0-7.66394,4.76112,4.76112,0,0,0-7.09887,0A5.505,5.505,0,0,0,265.81543,60.18155Z"/><path class="cls-2" d="M103.04645,15.51468a9.75708,9.75708,0,0,1,7.89868,3.94934l4.16388-4.722A15.84983,15.84983,0,0,0,102.74615,9.1185a15.40035,15.40035,0,0,0-11.18292,4.46418,14.936,14.936,0,0,0-4.57214,11.13995,14.79519,14.79519,0,0,0,4.48639,11.05414,15.66975,15.66975,0,0,0,11.41858,4.37842q6.93219,0,12.04138-5.7522l-4.2926-4.42182a9.88179,9.88179,0,0,1-8.0708,3.9065A8.35652,8.35652,0,0,1,96.43573,31.355a9.07725,9.07725,0,0,1-2.53314-6.71821,8.60045,8.60045,0,0,1,2.683-6.65411A9.20727,9.20727,0,0,1,103.04645,15.51468Z"/><polygon class="cls-2" points="120.218 9.805 120.218 39.812 139.707 39.812 139.707 33.845 126.914 33.845 126.914 9.805 120.218 9.805"/><path class="cls-2" d="M157.82269,9.1185a15.41649,15.41649,0,0,0-11.20459,4.44294,14.82393,14.82393,0,0,0-4.55,11.0542,14.822,14.822,0,0,0,4.55,11.05365,16.35031,16.35031,0,0,0,22.40863,0,14.8242,14.8242,0,0,0,4.55048-11.05365,14.82615,14.82615,0,0,0-4.55048-11.0542A15.41767,15.41767,0,0,0,157.82269,9.1185Zm6.35327,22.344a8.53525,8.53525,0,0,1-12.66369,0,9.7397,9.7397,0,0,1-2.57605-6.82569,9.8171,9.8171,0,0,1,2.57605-6.84692,8.49158,8.49158,0,0,1,12.66369,0,9.81887,9.81887,0,0,1,2.57557,6.84692A9.74145,9.74145,0,0,1,164.176,31.4625Z"/><path class="cls-2" d="M178.8136,9.80539V26.59006q0,6.48249,3.62738,10.00232a13.92257,13.92257,0,0,0,18.48144.02124q3.60371-3.498,3.60566-10.02356V9.80539H197.8316V26.37552a8.91788,8.91788,0,0,1-1.653,5.68811,5.42516,5.42516,0,0,1-4.48737,2.08191,5.48133,5.48133,0,0,1-4.50653-2.08191,8.82877,8.82877,0,0,1-1.67413-5.68811V9.80539Z"/><path class="cls-2" d="M234.405,13.73307q-4.29309-3.92771-12.32-3.92768H211.481V39.81192h10.25976q8.58609,0,12.77167-4.07806,4.18506-4.07777,4.18555-11.07532Q238.698,17.66118,234.405,13.73307Zm-4.91541,17.83648q-2.469,2.31812-7.0614,2.31812h-4.24963V15.64341h3.73486q5.10819,0,7.57617,2.38269a9.02117,9.02117,0,0,1,2.46857,6.804Q231.95813,29.25193,229.48956,31.56955Z"/><polygon class="cls-2" points="276.818 29.123 262.093 9.805 255.826 9.805 255.826 39.812 262.523 39.812 262.523 21.009 276.818 39.812 283.515 39.812 283.515 9.805 276.818 9.805 276.818 29.123"/><path class="cls-2" d="M299.95575,9.80539l-12.965,30.00653h7.12653l2.79-6.482h12.57837l2.79,6.482h7.12652l-12.965-30.00653ZM299.44,27.44858l3.7782-8.71435,3.73486,8.71435Z"/><polygon class="cls-2" points="318.2 15.6 326.699 15.6 326.699 39.812 333.397 39.812 333.397 15.6 341.896 15.6 341.896 9.805 318.2 9.805 318.2 15.6"/><rect class="cls-2" x="346.78888" y="9.80539" width="6.69751" height="30.00653"/><polygon class="cls-2" points="371.945 28.908 364.304 9.805 357.049 9.805 369.112 39.812 374.778 39.812 386.842 9.805 379.586 9.805 371.945 28.908"/><polygon class="cls-2" points="412.039 15.772 412.039 9.805 390.403 9.805 390.403 39.812 412.511 39.812 412.511 33.888 397.1 33.888 397.1 27.663 410.537 27.663 410.537 21.954 397.1 21.954 397.1 15.772 412.039 15.772"/><path class="cls-2" d="M88.67609,66.42539a9.078,9.078,0,0,0,13.15039-.76929L99.42,63.17771a5.53954,5.53954,0,0,1-4.5238,2.18945,4.68469,4.68469,0,0,1-3.441-1.42016,5.087,5.087,0,0,1-1.41968-3.76545,4.82066,4.82066,0,0,1,1.504-3.72992A5.16023,5.16023,0,0,1,95.161,55.068,5.46857,5.46857,0,0,1,99.58868,57.282l2.33393-2.647A8.88545,8.88545,0,0,0,94.99237,51.482a8.63126,8.63126,0,0,0-6.26849,2.50305,8.88945,8.88945,0,0,0-.04779,12.44031Z"/><path class="cls-2" d="M112.29382,51.482a8.64128,8.64128,0,0,0-6.28082,2.49121,8.80164,8.80164,0,0,0,0,12.392,9.16258,9.16258,0,0,0,12.56116,0,8.80044,8.80044,0,0,0,0-12.392A8.64094,8.64094,0,0,0,112.29382,51.482Zm3.56128,12.52508a4.78488,4.78488,0,0,1-7.09887,0,5.80841,5.80841,0,0,1,0-7.66394,4.76112,4.76112,0,0,1,7.09887,0,5.80693,5.80693,0,0,1,0,7.66394Z"/><polygon class="cls-2" points="133.71 61.108 129.378 51.868 124.301 51.868 124.301 68.688 128.055 68.688 128.055 58.1 132.579 67.292 134.817 67.292 139.365 58.1 139.365 68.688 143.118 68.688 143.118 51.868 138.065 51.868 133.71 61.108"/><path class="cls-2" d="M147.25769,51.86765V68.68778h3.7536V63.99534h2.23822q3.72941,0,5.54657-1.44385a5.47275,5.47275,0,0,0,1.81665-4.55939,5.73274,5.73274,0,0,0-1.7688-4.62048q-1.7686-1.50448-5.64276-1.504Zm9.50476,5.90753a3.23784,3.23784,0,0,1-.67358,2.21405,3.35184,3.35184,0,0,1-2.55091.75745h-2.52667v-5.655h2.1416a4.82522,4.82522,0,0,1,2.73133.61438A2.34477,2.34477,0,0,1,156.76245,57.77518Z"/><path class="cls-2" d="M163.30762,51.86765v9.40863A7.45338,7.45338,0,0,0,165.3407,66.883a7.80176,7.80176,0,0,0,10.35937.01184,7.46778,7.46778,0,0,0,2.0213-5.61853V51.86765h-3.75408V61.156a4.9972,4.9972,0,0,1-.92609,3.18848,3.04023,3.04023,0,0,1-2.51489,1.16668,3.07334,3.07334,0,0,1-2.52674-1.16668,4.95312,4.95312,0,0,1-.93835-3.18848V51.86765Z"/><polygon class="cls-2" points="188.742 68.688 188.742 55.116 193.507 55.116 193.507 51.868 180.223 51.868 180.223 55.116 184.988 55.116 184.988 68.688 188.742 68.688"/><rect class="cls-2" x="196.24969" y="51.86765" width="3.75458" height="16.82013"/><polygon class="cls-2" points="204.141 51.868 204.141 68.688 207.896 68.688 207.896 58.148 215.909 68.688 219.663 68.688 219.663 51.868 215.909 51.868 215.909 62.696 207.655 51.868 204.141 51.868"/><path class="cls-2" d="M231.79047,54.94761a5.58673,5.58673,0,0,1,2.05725.3728,7.46289,7.46289,0,0,1,2.082,1.36l1.94879-2.81573A9.15076,9.15076,0,0,0,231.5863,51.482a8.52809,8.52809,0,0,0-6.18463,2.50305,8.88879,8.88879,0,0,0-.04834,12.44031,8.55389,8.55389,0,0,0,6.22016,2.45471,8.83042,8.83042,0,0,0,6.93023-2.791V60.12137H234.7265v4.62055a6.45264,6.45264,0,0,1-3.24866.74554,4.54493,4.54493,0,0,1-3.35711-1.432,5.81141,5.81141,0,0,1,.06012-7.65216A4.92682,4.92682,0,0,1,231.79047,54.94761Z"/><polygon class="cls-2" points="248.201 68.688 251.956 68.688 251.956 62.095 259.367 62.095 259.367 58.798 251.956 58.798 251.956 55.165 259.752 55.165 259.752 51.868 248.201 51.868 248.201 68.688"/><path class="cls-2" d="M264.51654,53.97324a8.79924,8.79924,0,0,0,0,12.392,9.162,9.162,0,0,0,12.56067,0,8.80164,8.80164,0,0,0,0-12.392,9.162,9.162,0,0,0-12.56067,0Zm9.84161,2.36993a5.80693,5.80693,0,0,1,0,7.66394,4.78488,4.78488,0,0,1-7.09887,0,5.80693,5.80693,0,0,1,0-7.66394,4.76112,4.76112,0,0,1,7.09887,0Z"/><path class="cls-2" d="M282.5636,51.86765v9.40863a7.45176,7.45176,0,0,0,2.03363,5.60669,7.80168,7.80168,0,0,0,10.35931.01184,7.46966,7.46966,0,0,0,2.02179-5.61853V51.86765h-3.75458V61.156a4.99684,4.99684,0,0,1-.92608,3.18848,3.04015,3.04015,0,0,1-2.51489,1.16668,3.07442,3.07442,0,0,1-2.52668-1.16668,4.95268,4.95268,0,0,1-.93792-3.18848V51.86765Z"/><polygon class="cls-2" points="304.389 51.868 300.875 51.868 300.875 68.688 304.63 68.688 304.63 58.148 312.643 68.688 316.396 68.688 316.396 51.868 312.643 51.868 312.643 62.696 304.389 51.868"/><path class="cls-2" d="M326.47845,51.86765h-5.944V68.68778h5.75165q4.81237,0,7.15906-2.28607a8.26659,8.26659,0,0,0,2.34625-6.20832,7.88834,7.88834,0,0,0-2.40637-6.12451Q330.97816,51.86768,326.47845,51.86765Zm4.15107,12.19965a5.56478,5.56478,0,0,1-3.95874,1.29986h-2.38172V55.13993h2.09278a5.92029,5.92029,0,0,1,4.24768,1.33539A5.05775,5.05775,0,0,1,332.01318,60.29,4.93372,4.93372,0,0,1,330.62952,64.0673Z"/><path class="cls-2" d="M336.36938,68.68778h3.99421l1.56421-3.63324h7.05053l1.56415,3.63324h3.99426L347.2702,51.86765h-3.6333Zm11.18976-6.93024H343.348l2.11743-4.88476Z"/><polygon class="cls-2" points="353.863 55.116 358.628 55.116 358.628 68.688 362.382 68.688 362.382 55.116 367.147 55.116 367.147 51.868 353.863 51.868 353.863 55.116"/><rect class="cls-2" x="369.88843" y="51.86765" width="3.75458" height="16.82013"/><path class="cls-2" d="M379.37,53.97324a8.79921,8.79921,0,0,0,0,12.392,9.16195,9.16195,0,0,0,12.56066,0,8.80147,8.80147,0,0,0,0-12.392,9.16195,9.16195,0,0,0-12.56066,0Zm9.84161,2.36993a5.80693,5.80693,0,0,1,0,7.66394,4.78489,4.78489,0,0,1-7.09888,0,5.80693,5.80693,0,0,1,0-7.66394,4.76113,4.76113,0,0,1,7.09888,0Z"/><polygon class="cls-2" points="409.424 62.696 401.171 51.868 397.657 51.868 397.657 68.688 401.411 68.688 401.411 58.148 409.424 68.688 413.178 68.688 413.178 51.868 409.424 51.868 409.424 62.696"/><polygon class="cls-2" points="27.359 61.082 15.042 61.082 15.042 48.764 5.802 48.764 5.802 70.322 27.359 70.322 27.359 61.082"/><polygon class="cls-2" points="61.233 48.833 61.233 61.082 48.984 61.082 48.916 61.014 48.916 70.322 70.472 70.322 70.472 48.764 61.164 48.764 61.233 48.833"/><polygon class="cls-2" points="15.042 27.14 15.042 14.894 15.042 14.891 27.291 14.891 27.359 14.96 27.359 5.652 5.802 5.652 5.802 27.211 15.111 27.211 15.042 27.14"/><polygon class="cls-2" points="61.233 14.891 61.233 27.211 70.472 27.211 70.472 5.652 48.916 5.652 48.916 14.891 61.233 14.891"/><polygon class="cls-2" points="39.609 27.211 47.775 27.211 35.456 14.891 48.916 14.891 48.916 5.652 27.359 5.652 27.359 14.96 39.609 27.211"/><polygon class="cls-2" points="42.79 54.889 36.665 48.764 28.5 48.764 38.707 58.972 40.819 61.082 36.599 61.082 27.359 61.082 27.359 70.322 48.916 70.322 48.916 61.014 42.79 54.889"/><polygon class="cls-2" points="61.233 36.449 61.233 40.668 59.123 38.557 48.916 28.352 48.916 36.517 55.039 42.64 61.164 48.764 70.472 48.764 70.472 27.211 61.233 27.211 61.233 36.449"/><polygon class="cls-2" points="15.042 35.306 27.359 47.622 27.359 39.456 15.111 27.211 5.802 27.211 5.802 48.764 15.042 48.764 15.042 35.306"/><path class="cls-2" d="M322.63379,94.28641v-.03808c0-1.25879-.87695-1.90723-2.30762-1.90723h-2.91894v3.834h2.97558C321.81348,96.17508,322.63379,95.41239,322.63379,94.28641Z"/><path class="cls-2" d="M158.49023,94.40067v-.03809c0-1.31543-.91552-2.02148-2.38427-2.02148h-2.26953v4.082h2.32714A2.0677,2.0677,0,0,0,158.49023,94.40067Z"/><path class="cls-2" d="M115.51465,100.5618A3.99317,3.99317,0,0,0,119.52,96.4036v-.03809a4.05654,4.05654,0,0,0-4.04395-4.19629,3.99317,3.99317,0,0,0-4.00537,4.15821v.03808A4.05653,4.05653,0,0,0,115.51465,100.5618Z"/><path class="cls-2" d="M172.75244,94.28641v-.03808c0-1.25879-.87744-1.90723-2.3081-1.90723h-2.918v3.834H170.502C171.93213,96.17508,172.75244,95.41239,172.75244,94.28641Z"/><path class="cls-2" d="M5.80219,111.4603H413.178V81.71457H5.80219ZM314.4707,89.68973h6.10352a5.31723,5.31723,0,0,1,3.89062,1.35449,4.19048,4.19048,0,0,1,1.14454,3.05176v.03809a4.14609,4.14609,0,0,1-2.86133,4.13867l3.26172,4.76855h-3.4336l-2.86035-4.27246h-2.30859v4.27246H314.4707Zm-13.72754,0h10.07032V92.303h-7.15235v2.708h6.29395V97.6243h-6.29395V100.428h7.248v2.61328h-10.166Zm-14.71972,0h6.19824a4.81949,4.81949,0,0,1,3.49023,1.18262,3.05912,3.05912,0,0,1,.916,2.26953V93.18a3.106,3.106,0,0,1-1.75488,2.88086c1.54492.59082,2.499,1.4873,2.499,3.28027v.03809c0,2.4414-1.98437,3.6621-4.99707,3.6621h-6.35156Zm-17.50293,0h3.166l3.50977,5.64551,3.50879-5.64551h3.167v13.35156h-2.91895V94.3245l-3.75683,5.70312h-.07715l-3.71875-5.64551v8.65918h-2.87988Zm-13.72754,0h10.07031V92.303h-7.15234v2.708h6.29394V97.6243h-6.29394V100.428h7.248v2.61328H254.793Zm-17.50391,0h3.166l3.50976,5.64551,3.50879-5.64551h3.166v13.35156h-2.918V94.3245l-3.75684,5.70312h-.07714L240.169,94.38211v8.65918h-2.87989Zm-20.93554,0H227.416v2.709h-4.0625v10.64257H220.416V92.39872h-4.0625Zm-6.272,0h2.937v13.35156h-2.937Zm-13.59375,0h10.166v2.66992h-7.22949v2.84278h6.37109v2.66992h-6.37109v5.16894h-2.93653Zm-17.75195,6.67578a7.09869,7.09869,0,0,1,14.19092-.03808v.03808a7.09869,7.09869,0,0,1-14.19092.03809Zm-14.147-6.67578h6.10351a5.31849,5.31849,0,0,1,3.89112,1.35449A4.19247,4.19247,0,0,1,175.728,94.096v.03809a4.14551,4.14551,0,0,1-2.86133,4.13867l3.26172,4.76855h-3.43311L169.834,98.76883h-2.30761v4.27246h-2.9375Zm-13.68994,0H156.354c3.18555,0,5.11182,1.88867,5.11182,4.61621V94.344c0,3.08984-2.40332,4.69141-5.398,4.69141h-2.23144v4.00585h-2.9375Zm-9.38086,6.04688h5.87451v2.78418h-5.87451Zm-15.36719-6.04688h2.7085l6.25634,8.22071V89.68973h2.89893v13.35156h-2.49854l-6.46582-8.4873v8.4873h-2.89941Zm-17.751,6.67578a7.09869,7.09869,0,0,1,14.19092-.03808v.03808a7.09869,7.09869,0,0,1-14.19092.03809ZM92.9751,89.68973h2.70849l6.25635,8.22071V89.68973h2.89893v13.35156h-2.49854L95.87451,94.554v8.4873H92.9751Z"/><path class="cls-2" d="M185.85059,100.5618a3.99317,3.99317,0,0,0,4.00537-4.1582v-.03809a4.05654,4.05654,0,0,0-4.044-4.19629,3.99317,3.99317,0,0,0-4.00537,4.15821v.03808A4.05653,4.05653,0,0,0,185.85059,100.5618Z"/><path class="cls-2" d="M293.71,93.67606V93.638c0-.87695-.68652-1.373-1.92676-1.373h-2.89941v2.82226h2.709C292.88965,95.08719,293.71,94.66825,293.71,93.67606Z"/><path class="cls-2" d="M294.45312,99.01688v-.03809c0-.89648-.667-1.45019-2.17382-1.45019h-3.39551v2.9375H292.375C293.67188,100.4661,294.45312,100.00907,294.45312,99.01688Z"/></svg>