<svg xmlns="http://www.w3.org/2000/svg" role="img" viewBox="-3.76 -6.26 611.52 549.02"><style>svg {enable-background:new 0 0 604.5 534.6}</style><path fill="none" d="M474.9 483.2c-2.8 0-5 1.1-6.6 3.4-1.5 2.2-2.3 5.6-2.3 10 0 3.9.8 6.9 2.3 9.2 1.6 2.2 3.7 3.3 6.5 3.3 3.5 0 6-1.5 7.7-4.5v-17c-1.6-2.9-4.2-4.4-7.6-4.4zm-436-8.4c-2.1-3.1-5.2-4.6-9.1-4.6-3.9 0-6.9 1.5-9 4.6-2.2 3.1-3.3 7.4-3.3 13v3c0 5.7 1.1 10.1 3.3 13.3 2.2 3.1 5.2 4.7 9.1 4.7 3.9 0 7-1.5 9.1-4.6 2.1-3 3.2-7.5 3.2-13.4v-2.7h-.1c0-5.8-1.1-10.2-3.2-13.3zm219.3 8.3c-2.8 0-5 1.1-6.7 3.4-1.6 2.2-2.4 5.5-2.4 10 0 4 .8 7.1 2.4 9.3 1.6 2.3 3.9 3.4 6.8 3.4s5.1-1.1 6.7-3.4c1.6-2.3 2.4-5.6 2.4-10 0-3.9-.8-7-2.5-9.3s-3.9-3.4-6.7-3.4zm-142.8-.1c-2.3 0-4.2.8-5.7 2.5-1.4 1.7-2.4 4-2.8 7h16.3v-.6c-.2-2.9-1-5.1-2.3-6.6-1.3-1.5-3.1-2.3-5.5-2.3zm307.8 13H438l-7.4-21.6zm-205.9-25.4h-11v18.2H217c3.2 0 5.6-.8 7.3-2.3 1.7-1.5 2.5-3.7 2.5-6.6 0-2.8-.8-5.1-2.5-6.7-1.7-1.7-4-2.5-7-2.6zM75.1 483.1c-3.5 0-6 1.5-7.5 4.4v17.2c1.6 3 4.1 4.5 7.6 4.5 2.7 0 4.9-1.1 6.4-3.3 1.5-2.3 2.3-5.6 2.3-10.2 0-3.9-.8-6.9-2.3-9.2s-3.7-3.4-6.5-3.4zm440.6-.1c-2.3 0-4.2.8-5.7 2.5-1.4 1.7-2.4 4-2.8 7h16.3v-.6c-.2-2.9-1-5.1-2.3-6.6s-3.1-2.3-5.5-2.3z"/><path d="M159.1 213.2c7.5-26.7 20.9-50.1 38.4-68.8-5.9-4.4-29.3-22.6-30.4-36.9-1.6-23.4 21.8-102.1 21.8-102.1s-70.7 86.1-75.6 120.9c-3.9 27.3 40.8 81.5 45.5 87v-.1h.3zm287.8-1.4v.2c0 .1.1.2.1.3 7.8-9.4 48.3-59.9 44.6-86C486.7 91.5 416 5.4 416 5.4s23.4 78.7 21.7 102.1c-1 13.7-22.3 30.8-29.4 36.2 17.5 18.5 30.9 41.7 38.6 68.1z" opacity=".6"/><path d="M159.4 213.2c1.5-3.9 10.5-26.6 16.5-37 6.4-11.1 23-30.8 23-30.8s-.5-.3-1.3-1c-17.5 18.6-30.9 42.1-38.4 68.8h.2zm287.5-.8v.7l.3-.1c-.1-.2-.1-.5-.2-.7 0 0-.1 0-.1.1zM429 176.2c5.5 9.5 13.4 29.3 15.9 35.6h1.9c-7.6-26.4-21.1-49.6-38.6-68.1-1.4 1.1-2.3 1.7-2.3 1.7s16.7 19.7 23.1 30.8z"/><path d="M446.9 212.4l.1-.1c0-.1-.1-.2-.1-.3v.4zm-143.7-22.1V97.6h-.1l.1 92.7c-.1 0 0 0 0 0zm-143.8 23.1l-.3-.1v-.1h-.3v.1c.3.3.4.5.4.5l.2-.4z"/><path d="M197.6 144.4c.8.6 1.3 1 1.3 1s-16.6 19.7-23 30.8c-6 10.4-14.9 33.1-16.5 37 0 .1 0 .1-.1.2-.1.3-.2.4-.2.4s-.1-.2-.4-.5v100.6s58.2 22.8 82.2 41.2c19.9 15.3 58.3 69.4 58.3 69.4h3.6v-.1h-.2l.2-163.4v-34.5c-8.3-.1-15.2-5.7-17.3-13.3-.4-1.5-.7-3.1-.7-4.8 0-10 8.1-18.1 18.1-18.1h.1V97.6c-40.4 0-77.9 17.5-105.4 46.8z" opacity=".71"/><path d="M159.1 213.2s0 .1 0 0l.2.2c0-.1 0-.1.1-.2h-.3zm287.8-1.4v.2-.2zm-1.2 2l.4-.4-.5.2c.1.1.1.2.1.2zm-142.6 12.7h-.2V261l.3.1v-.3h-.1v-34.3zm143-13.1l.8-.3v-.7c-.4.4-.6.7-.8 1z"/><path d="M446.1 213.4c-.2.3-.4.4-.4.4s0-.1-.1-.3c-.1-.3-.4-.9-.7-1.7-2.5-6.3-10.4-26.1-15.9-35.6-6.4-11.1-23-30.8-23-30.8s.9-.6 2.3-1.7c-27.5-29-64.9-46.4-105.2-46.4v.3h.1v92.7c9.9.1 17.9 8.2 17.9 18.1 0 1.2-.1 2.3-.3 3.4-1.6 8.3-8.8 14.6-17.6 14.7v34.6l-.3-.1v163.4h3.3s38-55 58.5-70.7c24-18.4 82.2-41.2 82.2-41.2v-99.4l-.8.3z" opacity=".85"/><path d="M446.9 211.8H445c.3.8.6 1.4.7 1.7l.5-.2c.2-.2.5-.6.8-1v-.3c-.1-.1-.1-.1-.1-.2zm-143.8 14.7v34.3h.1l-.1-34.3c.1 0 0 0 0 0zm-.2 34.5l-.2 163.4h.2V261zm0-34.5V261v-34.5zM40.8 465.9c-3.2-2.1-6.9-3.1-11.1-3.1s-7.9 1-11.1 3.1c-3.2 2-5.7 5-7.5 8.9-1.8 3.8-2.7 8.3-2.7 13.4v2.9c0 5 .9 9.4 2.7 13.2 1.7 3.8 4.2 6.7 7.5 8.8 3.2 2.1 6.9 3.1 11.1 3.1 4.3 0 8-1 11.2-3.1 3.3-2.1 5.8-5.1 7.5-8.9 1.7-3.8 2.6-8.3 2.6-13.4V488c0-5-.9-9.5-2.7-13.3s-4.3-6.8-7.5-8.8zm1.4 24.9c0 5.9-1.1 10.4-3.2 13.4-2.1 3.1-5.2 4.6-9.1 4.6-3.9 0-6.9-1.6-9.1-4.7-2.2-3.2-3.3-7.6-3.3-13.3v-3c0-5.6 1.1-9.9 3.3-13 2.1-3.1 5.1-4.6 9-4.6 3.9 0 7 1.5 9.1 4.6 2.1 3.1 3.2 7.5 3.2 13.3h.1v2.7zM77.6 476c-4.4 0-7.8 1.5-10.3 4.6l-.4-3.9H59v53.5h8.6v-18.3c2.5 2.8 5.8 4.2 10 4.2 4.5 0 8.1-1.7 10.8-5.3 2.7-3.5 4-8.3 4-14.3h.1v-.6c0-6.2-1.4-11.1-4-14.6s-6.2-5.3-10.9-5.3zm4 29.9c-1.5 2.2-3.7 3.3-6.4 3.3-3.5 0-6-1.5-7.6-4.5v-17.2c1.5-2.9 4-4.4 7.5-4.4 2.8 0 5 1.1 6.5 3.4s2.3 5.3 2.3 9.2c0 4.6-.8 7.9-2.3 10.2zm33.9-29.8c-3.3 0-6.2.8-8.9 2.5s-4.7 4.1-6.2 7.1-2.2 6.4-2.2 10.3v1.1c0 5.7 1.7 10.3 5.1 13.8 3.4 3.5 7.8 5.2 13.2 5.2 3.1 0 6-.6 8.6-1.7 2.5-1.3 4.6-3.1 6.1-5.4l-4.6-4.5c-2.5 3.2-5.7 4.8-9.6 4.8-2.8 0-5.2-.9-7-2.8-1.9-1.9-2.9-4.4-3.2-7.6h24.9v-3.5c0-6.2-1.4-10.9-4.2-14.3-2.8-3.3-6.8-5-12-5zm7.7 16.4h-16.3c.4-3 1.4-5.3 2.8-7 1.5-1.7 3.4-2.5 5.7-2.5 2.4 0 4.2.8 5.5 2.3 1.3 1.5 2.1 3.7 2.3 6.6v.6zm34.4-16.4c-4.6 0-8.3 1.7-11.1 5.2l-.2-4.5h-8.2v38.7h8.6V488c1.7-3.2 4.2-4.8 7.7-4.8 2.3 0 4.1.6 5.1 1.8 1.1 1.1 1.6 2.9 1.6 5.4v25h8.6v-25.5c-.1-9.2-4.2-13.8-12.1-13.8zm73.1-8.2c-3.4-3-8-4.5-13.7-4.5h-19.7v52h8.9v-19.3h10.7c6 0 10.6-1.5 13.9-4.3 3.3-2.8 5-6.8 5-11.9 0-5-1.7-9-5.1-12zm-6.4 18.6c-1.7 1.5-4.1 2.3-7.3 2.3h-10.7v-18.2h11c3 .1 5.3.9 7 2.6 1.7 1.6 2.5 3.9 2.5 6.7 0 2.9-.8 5.1-2.5 6.6zm33.9-10.4c-3.4 0-6.5.8-9.2 2.4-2.6 1.6-4.7 4-6.2 7s-2.2 6.4-2.2 10.2h-.1v.6c0 6 1.6 10.9 4.8 14.5 3.2 3.6 7.5 5.4 12.9 5.4 3.5 0 6.6-.9 9.3-2.5 2.7-1.7 4.8-4 6.2-7 1.5-3 2.2-6.4 2.2-10.2v-2c-.3-5.6-2-10-5.2-13.4-3.2-3.3-7.4-5-12.5-5zm6.8 29.7c-1.6 2.3-3.8 3.4-6.7 3.4-2.9 0-5.2-1.1-6.8-3.4-1.6-2.2-2.4-5.3-2.4-9.3 0-4.5.8-7.8 2.4-10 1.7-2.3 3.9-3.4 6.7-3.4 2.8 0 5 1.1 6.7 3.4s2.5 5.4 2.5 9.3c0 4.4-.8 7.7-2.4 10zm18.8-45.3h8.6v54.9h-8.6zm22.8 1.6c-1.6 0-2.8.4-3.6 1.3-.9.8-1.3 2-1.3 3.3s.4 2.4 1.3 3.3c.9.9 2 1.3 3.6 1.3s2.8-.4 3.6-1.3c.9-.9 1.3-2 1.3-3.3s-.5-2.4-1.3-3.3c-.9-.9-2-1.3-3.6-1.3zm-4.4 14.6h8.6v38.7h-8.6zm27.4 9.3c1.5-2.1 3.6-3.1 6.4-3.1 2.1 0 3.9.7 5.3 2.1 1.4 1.5 2.1 3.3 2.2 5.5h8.1c-.1-4.4-1.6-7.9-4.5-10.6-2.9-2.7-6.6-4-11.1-4-5.4 0-9.6 1.8-12.7 5.3-3.1 3.5-4.7 8.2-4.7 14.1v.9c0 6.2 1.6 11 4.7 14.5s7.4 5.3 12.7 5.3c2.8 0 5.4-.6 7.7-1.8 2.3-1.2 4.2-2.8 5.6-4.9 1.4-2 2.1-4.3 2.2-6.7h-8.1c-.1 1.9-.9 3.4-2.3 4.7-1.4 1.3-3.2 1.9-5.3 1.9-2.8 0-5-1-6.3-3.1-1.5-2.1-2.2-5.2-2.2-9.4v-1.4c0-4.2.8-7.3 2.3-9.3zm41.6 17l-8.1-26.2h-9.2l13.4 38.5-1.2 3.3c-.6 1.9-1.5 3.2-2.6 4-1.1.8-2.7 1.2-4.9 1.2l-1.6-.1v6.8c1.5.4 2.9.6 4.1.6 5.5 0 9.5-3.3 11.8-9.8l15.2-44.5H379l-7.8 26.2zm55.3-39.6l-19.4 52h9.3l4.2-12.1h19.9l4.1 12.1h9.3l-19.4-52h-8zm-3.3 32.6l7.4-21.6L438 496h-14.8zm59.9-15.4c-2.5-3.1-6-4.6-10.3-4.6-4.6 0-8.3 1.8-11.1 5.4-2.8 3.6-4.2 8.4-4.2 14.4 0 6.4 1.4 11.4 4.3 15 2.8 3.6 6.4 5.4 10.9 5.4 4.1 0 7.4-1.4 9.9-4.2v2.6c0 3-.9 5.3-2.5 6.9-1.6 1.5-3.9 2.3-6.7 2.3-3.8 0-7.1-1.6-9.7-4.8l-4.1 5.2c1.4 1.9 3.4 3.4 6.1 4.6s5.4 1.8 8.2 1.8c5.3 0 9.5-1.5 12.6-4.4 3.1-2.9 4.7-6.9 4.7-12v-37.5h-7.7l-.4 3.9zm-.6 24c-1.7 3-4.2 4.5-7.7 4.5-2.8 0-4.9-1.1-6.5-3.3-1.5-2.3-2.3-5.3-2.3-9.2 0-4.4.8-7.8 2.3-10 1.6-2.3 3.8-3.4 6.6-3.4 3.4 0 6 1.5 7.6 4.4v17zm33.2-28.5c-3.3 0-6.2.8-8.9 2.5s-4.7 4.1-6.2 7.1-2.2 6.4-2.2 10.3v1.1c0 5.7 1.7 10.3 5.1 13.8 3.4 3.5 7.8 5.2 13.2 5.2 3.2 0 6-.6 8.6-1.7 2.5-1.3 4.6-3.1 6.1-5.4l-4.6-4.5c-2.5 3.2-5.7 4.8-9.6 4.8-2.8 0-5.2-.9-7-2.8-1.9-1.9-2.9-4.4-3.2-7.6h24.9v-3.5c0-6.2-1.4-10.9-4.2-14.3-2.8-3.3-6.8-5-12-5zm7.8 16.4h-16.3c.4-3 1.4-5.3 2.8-7 1.5-1.7 3.4-2.5 5.7-2.5 2.4 0 4.2.8 5.5 2.3s2.1 3.7 2.3 6.6v.6zm34.4-16.4c-4.6 0-8.3 1.7-11.1 5.2l-.2-4.5h-8.2v38.7h8.6V488c1.7-3.2 4.2-4.8 7.7-4.8 2.3 0 4.1.6 5.1 1.8 1.1 1.1 1.6 2.9 1.6 5.4v25h8.6v-25.5c-.1-9.2-4.2-13.8-12.1-13.8zm35.6 32.9c-1.5 0-2.5-.3-3.1-1-.6-.7-.9-1.7-.9-3.2v-21.6h6.7v-6.4h-6.7v-9.4H581v9.4h-6.3v6.4h6.3v21.9c0 7.3 3.3 11 9.9 11 1.8 0 3.6-.3 5.6-.8v-6.7c-1 .3-2 .4-3 .4z"/></svg>