<?xml version="1.0" encoding="utf-8"?>
<!-- Generator: Adobe Illustrator 21.1.0, SVG Export Plug-In . SVG Version: 6.00 Build 0)  -->
<svg version="1.1" id="Layer_1" xmlns="http://www.w3.org/2000/svg" xmlns:xlink="http://www.w3.org/1999/xlink" x="0px" y="0px"
	 viewBox="0 0 432 432" style="enable-background:new 0 0 432 432;" xml:space="preserve">
<style type="text/css">
	.st0{fill:none;}
	.st1{fill:#274D64;}
	.st2{fill:#275D7E;}
	.st3{fill:#3889B8;}
	.st4{fill:#1F4D67;}
	.st5{fill:#409DD7;}
	.st6{fill:#2F719B;}
	.st7{fill:#2A4A5C;}
	.st8{fill:#3D98CF;}
	.st9{fill:#66B7E6;}
	.st10{fill:#2B6689;}
	.st11{fill:#1D5B82;}
	.st12{fill:#437C9E;}
	.st13{fill:#348CC3;}
	.st14{fill:#193C4F;}
	.st15{fill:#0B3044;}
</style>
<polygon class="st0" points="77.1,158.4 77.1,158.4 77.1,158.4 77.1,158.4 "/>
<polygon class="st1" points="244.2,259.2 244.2,259 257.9,178.9 "/>
<polygon class="st1" points="343,178.7 298.6,258.9 214.6,411 214.6,411 298.6,258.9 343,178.7 391.5,90.7 343,178.7 "/>
<polygon class="st1" points="344.5,21.2 330.3,47.3 344.5,21.2 "/>
<polygon class="st1" points="77.1,158.4 131.5,100 77.1,158.4 "/>
<polygon class="st1" points="88.7,179.6 88.7,179.6 148.8,131.8 "/>
<polygon class="st1" points="88.7,179.6 84.6,172.2 88.7,179.6 131.4,258.1 138.4,270.9 131.4,258.1 "/>
<polygon class="st1" points="103.7,151.7 131.5,100 148.8,131.8 182.3,193.6 148.8,131.8 131.5,100 88.5,21.2 88.5,21.2 131.5,100 
	"/>
<polygon class="st1" points="229,279.6 229.2,279.9 237.3,294.7 "/>
<polygon class="st1" points="285.9,128.1 257.9,178.8 226.7,236.2 257.9,178.9 "/>
<polygon class="st1" points="174.2,336.9 214.6,411 236.9,296.6 "/>
<polygon class="st2" points="237.3,294.7 229.2,279.9 201.6,229.1 174.2,336.9 236.9,296.6 "/>
<polygon class="st3" points="131.4,258.1 138.4,270.9 174.2,336.9 201.6,229.1 "/>
<polygon class="st4" points="131.4,258.1 201.6,229.1 182.3,193.6 148.8,131.8 "/>
<polygon class="st5" points="244.2,259.2 257.9,178.9 226.7,236.2 216.1,255.8 229,279.6 237.3,294.7 "/>
<polygon class="st6" points="88.7,179.6 131.4,258.1 148.8,131.8 "/>
<polygon class="st7" points="298.6,258.9 343,178.7 244.2,259 "/>
<polygon class="st8" points="131.5,100 103.7,151.7 88.7,179.6 148.8,131.8 "/>
<polygon class="st9" points="244.2,259 301.1,100.5 285.9,128.1 257.9,178.9 "/>
<polygon class="st4" points="88.7,179.6 103.7,151.7 131.5,100 77.1,158.4 77.1,158.4 84.6,172.2 88.7,179.6 "/>
<polygon class="st10" points="343,178.7 301.1,100.5 301.1,100.5 244.2,259 "/>
<polygon class="st11" points="77.1,158.4 131.5,100 88.5,21.2 88.5,21.2 88.5,21.2 77.1,158.4 "/>
<polygon class="st12" points="343,178.7 344.5,21.2 344.5,21.2 344.5,21.2 330.3,47.3 301.1,100.5 301.1,100.5 343,178.7 "/>
<polygon class="st13" points="88.5,21.2 2.8,21.2 77.1,158.4 77.1,158.4 "/>
<polygon class="st14" points="344.5,21.2 344.5,21.2 343,178.7 391.5,90.7 429.8,21.2 "/>
<polygon class="st15" points="244.2,259 244.2,259.2 237.3,294.7 236.9,296.6 214.6,411 214.6,411 298.6,258.9 "/>
</svg>
