<?xml version="1.0" encoding="UTF-8" standalone="no"?>
<svg
   width="1060"
   height="256"
   version="1.1"
   id="svg3"
   xmlns="http://www.w3.org/2000/svg"
   xmlns:svg="http://www.w3.org/2000/svg">
  <defs
     id="defs3" />
  <path
     d="m 337.00648,139.90814 -19.90905,20.73408 v 53.78971 H 286.57067 V 41.92294 h 30.52676 v 80.92235 l 16.89245,-20.49689 51.40078,-60.424247 h 36.92197 l -65.27416,76.421277 69.01788,96.08772 h -36.19794 z m 197.15688,30.09353 q 0,-11.37402 -8.20467,-17.53479 -8.08421,-6.16078 -29.32025,-12.44045 -21.23603,-6.27967 -33.78429,-13.98064 -24.01108,-14.80988 -24.01108,-38.624346 0,-20.85237 17.25447,-34.359245 17.37494,-13.506876 45.00618,-13.506876 18.34052,0 32.69886,6.635148 14.35834,6.63515 22.56302,18.956699 8.20467,12.203262 8.20467,27.131435 h -30.40629 q 0,-13.506875 -8.68716,-21.089556 -8.56669,-7.700969 -24.61465,-7.700969 -14.9619,0 -23.28705,6.279672 -8.20467,6.279672 -8.20467,17.534795 0,9.478349 8.92871,15.876313 8.92871,6.27967 29.44071,12.32154 20.512,5.92396 32.93979,13.62517 12.42779,7.58268 18.21943,17.5348 5.79165,9.83381 5.79165,23.10352 0,21.56331 -16.89245,34.35923 -16.77137,12.67704 -45.60914,12.67704 -19.06393,0 -35.11189,-6.87174 -15.92687,-6.99001 -24.85558,-19.19387 -8.80824,-12.20328 -8.80824,-28.43506 h 30.52676 q 0,14.69159 9.89429,22.74803 9.8943,8.05646 28.35466,8.05646 15.92688,0 23.89062,-6.27968 8.08421,-6.39796 8.08421,-16.82384 z m 111.97182,46.79908 q -27.87218,0 -45.24712,-17.17931 -17.25447,-17.29822 -17.25447,-45.96985 v -3.55438 q 0,-19.19389 7.48064,-34.24036 7.60173,-15.16535 21.23604,-23.577275 13.6343,-8.411922 30.40629,-8.411922 26.66566,0 41.14509,16.705557 14.59989,16.70555 14.59989,47.27346 v 11.61119 h -85.30863 q 1.32729,15.87631 10.7388,25.11749 9.53227,9.24116 23.89061,9.24116 20.14999,0 32.81933,-15.99461 l 15.8064,14.80989 q -7.84266,11.49231 -20.99448,17.89028 -13.03136,6.27966 -29.32025,6.27966 z M 642.6361,106.97323 q -12.06578,0 -19.54704,8.29363 -7.36018,8.29363 -9.41119,23.10351 h 55.86544 v -2.13261 q -0.96528,-14.45441 -7.84266,-21.80051 -6.8777,-7.46438 -19.06394,-7.46438 z m 146.96261,5.56854 q -5.79164,-0.94784 -11.9453,-0.94784 -20.14999,0 -27.14815,15.16536 v 87.67397 H 721.18502 V 86.237454 h 27.99264 l 0.72397,14.336116 q 10.61833,-16.705551 29.44071,-16.705551 6.27413,0 10.37678,1.658726 z m 66.72594,65.3991 27.63125,-91.701899 h 30.2852 L 868.99399,214.43477 H 843.53484 L 797.92571,86.238971 H 828.332 Z m 132.12364,38.86092 q -27.87217,0 -45.2471,-17.17932 -17.25447,-17.29821 -17.25447,-45.96985 v -3.55439 q 0,-19.19389 7.48064,-34.24035 7.60173,-15.16535 21.23603,-23.577273 13.6343,-8.411922 30.4063,-8.411922 26.66571,0 41.14511,16.705555 14.5999,16.70555 14.5999,47.27346 v 11.61121 h -85.30866 q 1.32723,15.8763 10.73875,25.11746 9.5323,9.24117 23.8907,9.24117 20.14991,0 32.81931,-15.9946 l 15.8064,14.80988 q -7.8427,11.4923 -20.9945,17.89027 -13.0314,6.27966 -29.32021,6.27966 z m -3.4991,-109.82753 q -12.0658,0 -19.54707,8.29363 -7.36017,8.29363 -9.41119,23.10352 h 55.86547 v -2.13262 q -0.9653,-14.4544 -7.8427,-21.80051 -6.87771,-7.46438 -19.06391,-7.46438 z"
     fill="#ffffff"
     stroke-opacity="0"
     style="fill:#000000;fill-opacity:1;stroke-width:6.12169;paint-order:stroke fill markers"
     aria-label="KServe"
     id="path3" />
  <path
     style="fill:#000000;fill-opacity:1;stroke-width:5.73235;paint-order:stroke markers fill"
     d="m 76.788423,235.67563 c -17.41221,-20.96832 -59.24125,-74.72145 -59.52037,-76.48767 -0.30863,-1.95293 22.05337,-101.846081 23.01429,-102.807001 0.25064,-0.25064 21.63493,-10.63106 47.52066,-23.06759 l 47.064937,-22.61187 5.67017,2.46749 c 6.81539,2.96584 89.17341,42.62949 89.78383,43.23991 0.94224,0.94225 23.28923,100.862501 22.98635,102.779061 -0.27912,1.76622 -42.10817,55.51935 -59.52038,76.48767 l -5.80762,6.99373 H 135.28817 82.596053 Z M 210.68863,178.70716 c 11.40781,-6.10108 18.33064,-19.50595 17.09742,-33.10616 -1.30045,-14.34159 -10.1065,-25.2637 -22.82683,-28.31204 -2.61157,-0.62584 -3.47079,-1.97663 -5.18948,-8.15841 -3.86644,-13.906811 -10.96433,-25.088961 -20.19441,-31.814671 -5.90859,-4.30543 -18.10111,-8.15511 -25.82846,-8.15511 -13.65097,0 -28.90924,7.46566 -36.30441,17.76325 -2.72571,3.79549 -4.41043,5.13052 -5.74555,4.55297 -5.3134,-2.29847 -14.020737,-3.93833 -17.442467,-3.28496 -10.66848,2.03712 -16.95849,7.14068 -22.57031,18.312991 -2.08316,4.14725 -3.88687,5.75649 -8.97361,8.00609 -7.72389,3.41587 -15.66174,12.00968 -18.33224,19.84716 -5.33166,15.64755 1.42762,35.71581 14.28748,42.41943 8.72235,4.54681 11.71734,4.72165 79.983357,4.66916 66.81675,-0.0514 67.02789,-0.0594 72.03951,-2.7397 z"
     id="path4" />
  <path
     style="fill:#000000;fill-opacity:1;stroke-width:5.73235;paint-order:stroke markers fill"
     d="m 91.209013,158.3863 c 8.22736,-7.0172 15.354317,-12.76443 15.837687,-12.77162 0.48337,-0.007 4.68522,3.26297 9.33744,7.26702 4.65222,4.00404 9.06809,7.28008 9.81304,7.28008 0.74495,0 8.82824,-6.44775 17.96287,-14.32833 9.13462,-7.88059 17.29392,-14.73975 18.13178,-15.24259 0.93114,-0.55882 3.65544,0.83282 7.00756,3.57962 3.0163,2.47163 5.67716,4.28024 5.91303,4.01913 1.17284,-1.29833 -1.72207,-25.8255 -3.15544,-26.73464 -0.86997,-0.55179 -5.13079,-1.01636 -9.46851,-1.03238 -4.33771,-0.016 -10.88979,-0.36669 -14.56016,-0.77927 l -6.67341,-0.75014 5.14924,5.34904 5.14924,5.34903 -11.99221,10.13018 c -6.59572,5.5716 -12.37884,10.12386 -12.85138,10.11613 -0.47255,-0.008 -4.63917,-3.12372 -9.25917,-6.92445 -4.61999,-3.80072 -8.89054,-6.7322 -9.49011,-6.51439 -0.59956,0.21781 -11.020687,8.85911 -23.158057,19.20289 -12.13737,10.34379 -22.41906,18.93934 -22.84819,19.10125 -0.42914,0.1619 -2.0577,-1.58133 -3.61903,-3.87384 -4.46869,-6.5614 -4.92397,-16.87658 -1.11234,-25.20228 3.70001,-8.08187 8.7108,-11.89293 16.98488,-12.91821 l 6.19126,-0.76718 1.39345,-6.98667 c 1.63162,-8.18082 6.08583,-13.60739 12.82696,-15.627081 5.737737,-1.71907 11.446617,0.831931 16.816977,7.514621 2.11523,2.63213 4.26568,4.78568 4.77878,4.78568 0.51309,0 2.17682,-3.00119 3.69718,-6.66932 3.67479,-8.866101 12.01558,-17.927861 20.17666,-21.920701 9.20344,-4.50282 20.57049,-3.9738 29.19573,1.35878 10.88585,6.73021 19.89733,22.900471 19.89733,35.703911 0,5.71603 1.40681,6.84524 9.44303,7.57974 7.23293,0.66108 11.16276,3.52684 14.94199,10.89622 4.74988,9.26209 1.68558,23.25655 -6.34676,28.98536 l -4.08477,2.91333 -63.49271,0.33482 -63.492707,0.33481 z"
     id="path5" />
</svg>
