<svg id="Layer_1" data-name="Layer 1" xmlns="http://www.w3.org/2000/svg" viewBox="0 0 382.20001 371.45001"><polygon points="374.473 224.437 374.475 224.444 374.475 224.447 374.473 224.437"/><path d="M286.69708,173.16785c-5.6159,1.14984-6.49713-1.46906-6.51562-6.33374-.0835-21.91254-5.30591-42.25037-18.248-60.43274-13.96655-19.62183-41.08679-32.29279-64.67279-17.205a78.78924,78.78924,0,0,0-18.603,16.80579c-8.801,10.72741-11.85046,24.14026-17.74084,38.20929h-.00006c-3.99768-5.94245-6.74066-10.59052-10.03516-14.80762-9.03473-11.565-21.034-13.63031-32.4798-5.71173-11.47546,7.93915-14.78582,20.08362-15.973,32.93017-.54126,5.85651-2.06866,8.60016-8.60528,8.04077-8.04712-.68865-14.50965,3.4654-19.89813,9.085-17.03425,17.765-19.42585,53.25164-5.199,73.2489,3.10248,4.3609,5.05939,6.28461,9.97723,1.20178,19.2818-19.92877,39.17933-39.26025,58.68982-58.97028,4.41944-4.46453,8.01349-6.81256,13.18647-.80773,5.10345,5.92413,11.37268,10.85137,16.40423,16.82751,4.27191,5.07373,7.35858,4.41882,11.50421.11908,12.948-13.42908,25.97864-26.78418,39.24024-39.902,4.71228-4.66125,12.06854-8.59179,13.13409-14.415,1.19415-6.52618-7.6759-10.07617-12.53-16.84692,14.23114,1.04852,26.98932,1.989,39.74756,2.92786,2.08.15307,3.38324,1.16888,3.51312,3.32769.76563,12.72834,1.50751,25.458,2.3805,40.27777-3.43537-3.57092-5.15271-5.6134-7.12781-7.36511-9.22382-8.18017-9.31293-8.2149-17.78729.29975-20.62427,20.72253-41.29,41.406-61.68122,62.35632-4.20147,4.31665-6.48028,5.35486-10.96191-.00305-6.14618-7.3479-14.02612-13.22913-20.34869-20.45191-3.6092-4.12311-5.41767-3.91607-8.96711-.27844-13.91558,14.26117-28.121,28.23914-42.16034,42.38037-1.11193,1.12-3.249,2.02625-1.803,4.74152q100.22424,0,200.813-.04083c5.351-.005,9.74573-2.67554,13.78516-6.03962,17.76947-14.79834,20.10175-49.59515,7.04779-69.26318C308.27759,177.27179,299.57959,170.53027,286.69708,173.16785Z"/><path d="M189.95105,312.326a8.59,8.59,0,0,0-3.45166.667,7.96733,7.96733,0,0,0-2.63916,1.82715A8.7351,8.7351,0,0,0,182.12,317.5174a10.24358,10.24358,0,0,0-.7544,3.27734h17.229a10.13512,10.13512,0,0,0-.7832-3.30664A8.39505,8.39505,0,0,0,189.95105,312.326Z"/><path d="M275.48425,314.79083a8.55073,8.55073,0,0,0-2.668-1.79785,8.44413,8.44413,0,0,0-3.39355-.667,8.58447,8.58447,0,0,0-3.45117.667,7.97,7.97,0,0,0-2.63965,1.82715,8.73531,8.73531,0,0,0-1.74024,2.69727,10.23043,10.23043,0,0,0-.7539,3.27734h17.22851a10.12286,10.12286,0,0,0-.7832-3.30664A8.45979,8.45979,0,0,0,275.48425,314.79083Z"/><path d="M374.47473,224.444,342.88745,87.24011a24.66182,24.66182,0,0,0-13.223-16.45025L201.8028,9.74274a24.63814,24.63814,0,0,0-21.22236,0L52.74414,70.82251A24.65433,24.65433,0,0,0,39.51758,87.27094L7.98053,224.47369a24.141,24.141,0,0,0-.00726,10.53412,24.48806,24.48806,0,0,0,.89019,3.11493,23.75483,23.75483,0,0,0,2.435,4.94251c.43335.6618.89026,1.30542,1.387,1.92913L101.17206,355.0097c.38623.47864.81232.91559,1.23474,1.35981a24.33972,24.33972,0,0,0,4.66693,3.86737,25.2448,25.2448,0,0,0,6.99316,3.04052,24.10789,24.10789,0,0,0,6.21894.85761h1.3761l140.52258-.03265a23.57161,23.57161,0,0,0,2.55646-.15046,24.42487,24.42487,0,0,0,3.60626-.68536,25.15662,25.15662,0,0,0,2.50391-.80139c.64-.24475,1.27819-.48956,1.89465-.7851a25.27591,25.27591,0,0,0,2.68158-1.49035,24.12054,24.12054,0,0,0,5.869-5.19458l2.69787-3.35425L369.75214,244.958a23.90466,23.90466,0,0,0,3.822-6.86261,24.786,24.786,0,0,0,.90655-3.1258A24.08,24.08,0,0,0,374.47473,224.444ZM129.68054,338.66193l-14.96679-20.94141L107.81091,324.16v14.502h-5.51074V297.243h5.51074v20.65137L128.81042,297.243h7.13477L118.4848,313.95l18.15668,24.71192Zm40.751-5.71393a12.17519,12.17519,0,0,1-3.79932,3.82812,16.50477,16.50477,0,0,1-5.19189,2.14649,25.21094,25.21094,0,0,1-5.71387.667,24.28014,24.28014,0,0,1-6.58447-.87012,16.2551,16.2551,0,0,1-5.45264-2.63867,12.50072,12.50072,0,0,1-3.71246-4.52539,14.55465,14.55465,0,0,1-1.36328-6.52539h5.2207a9.34488,9.34488,0,0,0,1.01514,4.49512,9.21152,9.21152,0,0,0,2.66845,3.10351,11.2451,11.2451,0,0,0,3.85743,1.79883,17.69991,17.69991,0,0,0,4.5249.58008,20.54289,20.54289,0,0,0,3.7417-.34863,11.02384,11.02384,0,0,0,3.39355-1.18848,6.36854,6.36854,0,0,0,3.36426-6.00391,5.20312,5.20312,0,0,0-1.13086-3.48144,8.3257,8.3257,0,0,0-3.0166-2.17481,22.08476,22.08476,0,0,0-4.26367-1.36328q-2.37965-.52147-4.84375-1.07324-2.46607-.55079-4.84375-1.27637a17.4991,17.4991,0,0,1-4.26367-1.91406,9.15735,9.15735,0,0,1-3.01661-3.07422,9.06,9.06,0,0,1-1.13134-4.72851,10.975,10.975,0,0,1,1.27636-5.42383,11.14861,11.14861,0,0,1,3.39356-3.77051,15.24513,15.24513,0,0,1,4.81494-2.2041,21.24552,21.24552,0,0,1,5.53955-.72461,22.172,22.172,0,0,1,5.917.7539,13.41818,13.41818,0,0,1,4.78565,2.37793,11.4806,11.4806,0,0,1,3.24853,4.08985,14.61465,14.61465,0,0,1,1.30518,5.88769h-5.22071q-.46507-4.46631-3.21923-6.46777v.00006a11.69829,11.69829,0,0,0-7.04834-2.001,16.81907,16.81907,0,0,0-3.42237.34766,9.10248,9.10248,0,0,0-2.98779,1.16016,6.10508,6.10508,0,0,0-2.08838,2.17578,6.72925,6.72925,0,0,0-.78271,3.39355,4.31964,4.31964,0,0,0,1.13086,3.10352,8.387,8.387,0,0,0,3.0166,1.94336,25.26763,25.26763,0,0,0,4.26367,1.24707q2.37817.49365,4.84375,1.07324,2.46543.58008,4.84375,1.36328a15.963,15.963,0,0,1,4.26373,2.11719,10.08849,10.08849,0,0,1,3.0166,3.36426A11.7949,11.7949,0,0,1,170.43158,332.948Zm33.38373-7.80255H181.3656a11.89491,11.89491,0,0,0,.46436,3.74218,8.45809,8.45809,0,0,0,1.68212,3.13282,8.29465,8.29465,0,0,0,2.9585,2.1748,10.202,10.202,0,0,0,4.23438.8125,8.53378,8.53378,0,0,0,5.13379-1.45019,7.01231,7.01231,0,0,0,2.63964-4.40918H203.351a11.988,11.988,0,0,1-4.35064,7.59948,13.61037,13.61037,0,0,1-8.46924,2.55176,15.402,15.402,0,0,1-6.23584-1.16015,12.26764,12.26764,0,0,1-4.438-3.248,13.78663,13.78663,0,0,1-2.69727-4.98926A23.9887,23.9887,0,0,1,176.1449,323.58a18.058,18.058,0,0,1,1.04394-6.26563,14.9759,14.9759,0,0,1,2.92969-4.93066,13.2922,13.2922,0,0,1,4.4668-3.248,13.63307,13.63307,0,0,1,5.65576-1.16016,12.30119,12.30119,0,0,1,6.64209,1.65333,13.14535,13.14535,0,0,1,4.23486,4.20507,16.64762,16.64762,0,0,1,2.2041,5.56934A23.875,23.875,0,0,1,203.81531,325.14545Zm20.709-11.94934a13.95264,13.95264,0,0,0-5.04687.81152,7.96338,7.96338,0,0,0-3.36524,2.37891,9.8331,9.8331,0,0,0-1.85547,3.7998,20.46356,20.46356,0,0,0-.58007,5.13379v13.3418H208.745V308.67072h4.6416V314.994h.11523a13.35151,13.35151,0,0,1,4.40918-5.39453,11.08248,11.08248,0,0,1,6.61328-1.624Zm17.22754,25.46582h-5.27832l-11.13769-29.99121h5.51074l8.41113,25.002h.11627l8.17871-25.002h5.163ZM283.287,325.14545H260.83777a11.87907,11.87907,0,0,0,.46387,3.74218,8.46316,8.46316,0,0,0,1.68164,3.13282,8.30052,8.30052,0,0,0,2.959,2.1748,10.20183,10.20183,0,0,0,4.23438.8125,8.53308,8.53308,0,0,0,5.13379-1.45019,7.0149,7.0149,0,0,0,2.63964-4.40918h4.873a11.9919,11.9919,0,0,1-4.35059,7.59948,13.61472,13.61472,0,0,1-8.46972,2.55176,15.40653,15.40653,0,0,1-6.23633-1.16015,12.2693,12.2693,0,0,1-4.4375-3.248,13.78063,13.78063,0,0,1-2.69727-4.98926,24.00939,24.00939,0,0,1-1.01562-6.32226,18.047,18.047,0,0,1,1.04492-6.26563,14.96567,14.96567,0,0,1,2.92871-4.93066,13.30184,13.30184,0,0,1,4.4668-3.248,13.63737,13.63737,0,0,1,5.65625-1.16016,12.29941,12.29941,0,0,1,6.6416,1.65333,13.14014,13.14014,0,0,1,4.23535,4.20507,16.6569,16.6569,0,0,1,2.2041,5.56934A23.87194,23.87194,0,0,1,283.287,325.14545ZM312.0661,270.8205a35.91214,35.91214,0,0,1-20.42145,6.07238c-32.90234-.16125-65.80584-.06933-98.70892-.06915-29.28076.00018-58.65234-1.446-87.81787.38727-32.29065,2.02978-52.03522-17.759-57.96234-46.45679C42.24,206.954,45.83331,184.60675,62.472,165.50336c4.88447-5.608,10.59491-10.307,17.44117-12.40021,6.31768-1.93152,8.92132-5.06036,10.77044-11.31818,3.80561-12.87909,10.1034-24.54614,22.36274-31.7561,12.26373-7.21259,24.68133-7.95422,36.63372.14508,5.48377,3.71588,7.69818,3.674,11.25306-2.68616,8.1856-14.64532,19.58953-26.5086,35.15753-33.81573,26.38818-12.38587,59.42267-1.85047,77.08044,23.803,11.58869,16.83624,17.66284,35.42273,20.8515,55.26068.44825,2.78869-.34912,5.782,4.12073,6.723,21.70325,4.569,31.57141,20.25159,36.8598,40.1001C342.19775,226.56189,332.20709,257.66187,312.0661,270.8205Z"/></svg>