<?xml version="1.0" encoding="UTF-8"?>
<svg id="Layer_1" xmlns="http://www.w3.org/2000/svg" version="1.1" viewBox="0 0 526.4 700.4">
  <!-- Generator: Adobe Illustrator 29.8.2, SVG Export Plug-In . SVG Version: 2.1.1 Build 3)  -->
  <defs>
    <style>
      .st0 {
        fill: #fff;
      }
    </style>
  </defs>
  <path class="st0" d="M480.5,323.3c1.9-24.7-4-50.6-29.4-59.9v-123.6c-.5-6.4-2.4-7.7-7.9-9.9-28-11.2-43.1-8.4-71.7-8.4-4.4,0-8.4-.4-13.7-1V30.4c0-1.7-4-4.8-5.6-5.7-5.2-2.6-26-9.5-31.6-9.9-45.7-4-97.1,3-143.5,0-4.5-.6-11.8,5.9-11.8,9.9v96.7c-21.9,1.1-45.8-3.1-67.5-.9-8,.8-13.8,4-14.7,12.7v131.1c-15.3,6.7-27.4,23.2-29.1,39.9-.6,6.1.6,12.3-.5,18.4-5.5,1.3-10.4,1.7-15.6,4.2-36.9,17.9-30.6,97.3,16,98.6-.5,5.2.7,11.4,0,16.5-.8,5.8-4.1,12.1-4.7,18.9-2.4,28.7,10.7,54.7,35.6,69.2,16.7,9.7,32.1,11.4,51.2,8.7v17.5c.2,5.4,2.3,8.7,2.9,10.3,4.8,11.2,17.8,20,30.1,19.5v47.5c-18.1,6.5-34.2,45.4-10.9,52.5,22,2.2,49.1,2.1,71.8,0,7.2-.7,11.9-6.7,12.7-13.7,1.7-15.1-7-28.4-17.9-37.8v-48.6h76.4v45.8c-4.3,5.4-10.5,8.8-14.6,14.7-8.1,11.9-13,35.8,5.6,39.6,23.7.9,47.8,2.1,69.9,0,17.7-1.7,14.3-23.5,8.5-35-3.2-6.4-9-12.2-14.6-16.6l.8-48.5h14.6c4.4-.4,9.3-2.9,11.2-3.9,11.9-6.4,17.5-21.7,15.7-34.8,33.4-.3,63.9-18.1,76.2-49.8,8.8-22.7,5.1-47.5,5.8-71.3,43.3-13.4,45.1-90.3.2-102.7h0ZM53.8,409.3c-20.9-1.8-24.9-24.7-23.6-42,1-14,8.2-27.8,23.6-28.7v70.8ZM419.3,260.2v-101s7.7,1.8,7.7,1.8l8.1,1.2,3.7.6v97.4M442.1,276.2c2.8.5,12.4,6.8,14.5,9.1,9.8,10.5,7.5,24.4,7.7,37.5-36.5,9.2-37.1,58.5-23.6,86.4l-9,5.4-8.9,9.7v-118.4c-.1-8.3-5.4-17.6-8.5-21.7-2.2-2.9-3.4-4.5-7.5-8,10.5-.5,25.2-1.7,35.4,0h0ZM399.2,498h17c.2,1.4-1.4,1.7-2.4,2-3.3,1.1-9.8,2.7-13.1,2.8-2.7,0-1.8-3.7-1.4-4.8h0ZM404.8,482.9c2.4-1.5,3.5-2.8,5.2-4.7,2.3-2.6,6.2-8.2,7.5-11.3,1.8-4.2,5.3-9.2,6.5-11,.2,4.6,3.2,8.4,4.1,12.6,1,4.9.9,9.4-.7,14.4h-22.6,0ZM328.6,30.3l14.7,5.5v7.4c.1,0-14.7-4.9-14.7-4.9v-8h0ZM343.5,50.8v8.2l.7,61.6h-14.8l-.7-73.6M270.8,135.6h138.6c0,2.2-.5,12.3-.5,12.3h-138v-12.3h138.5-138.5ZM243.9,161.1c1.6.1,11.7,2.7,11.8,3.5l.9,95.6h-14.1v-96.7c.1-1.4-.3-2.5,1.4-2.4h0ZM299.1,46.9h15.1v73.6c-12.7.9-25.6-.8-38.3,0-3.4.2-11.1.9-13.6,2.4-1.4.9-2.6,3.2-3.8,3.7-3.8,1.8-16.5-4.1-21.4-5-3.3-.6-9.4-1-13-1.2-14.5-.8-30.4-.1-44.8.9V46.9h10.4M271.8,46.9h26.4M215.2,46.9h-21.7s20.8,0,20.8,0M269.9,261.1v-101.9h135.9v101.9M185.9,38.4h-6.6v-9.3c1.4-.6,2.8-.9,4.2-1.1,20.3-1.9,43,0,63.2,0,24.4,0,48.9-.2,73.2,1v9.4h-129.3M97.7,135.6h132.6v11.3l-133,.8c-.7-.4-1.8-11.4.4-12.2ZM97.7,159.2h131.6l-1.4,101.9H96.3l1.4-101.9h0ZM72.7,498c-3.3-6.3-6.4-12.7-7.6-19.8l14.1,13.8c.3,1.3-5.4,6.8-6.6,6h0ZM98.6,518.8c-7.7-1.6-14.2-7.1-19.3-12.8l8-7.7c5.1,2.7,10.6,5.2,16.5,5.4l-5.2,15.1ZM110.4,523.5c-.2-3.3.7-6.4,1.2-9.6,2.1-12.1-2.9-7.9,16.7-11.1l7.6,17.9c-8.5,2-16.6,3.5-25.5,2.8ZM227.4,669.7c-10.2,0-20.5,0-30.7,0-4.8,0-9.3,0-14.1,0-5.9,0-18.5.3-19.9.2-1,0-1.5-.6-1.4-1.6.5-9.4,8.2-19.8,17-22.6,7.4-2.4,22.6-1.7,30.2,0,10.8,2.3,18,13.7,18.8,24.1h0ZM184.5,605.5h25.9v23.6h-26.4c-1-1-.7-19.5.5-23.6ZM184,585.7l26.4,1-1.4,5.7h-25v-6.6ZM165.6,569.7c-4.9,0-14.6-10.4-14.6-13.7v-56.2h75.5c-2.3,1.5-3.1,2.3-4.6,4.4-4.5,6.4-4,36.9-1.3,44.4,2,5.6,6.2,9.1,11.9,10.7,7.3,2,46,1.9,54.8.9,7.1-.8,14.4-6.4,15.5-13.7,1.1-6.9.8-27.5,0-34.9-.6-6.3-2.9-7.3-6.6-11.8h29.2v54.3c-.6,5.9-5.6,9.6-7.1,10.8-3.2,2.8-8,4.4-12.2,4.8h-140.7s0,0,0,0ZM233.6,512.1c.2-.9,1.2-2.2,2.4-2.4h50c1.6,0,3.1,1.2,3.6,3.2.6,2.3.3,28.8-.3,30.3-.4.9-.5,1.8-2.4,2.4l-51-.7c-2.4,0-2.7-2.8-2.8-5-.1-4,.2-26.6.5-27.9h0ZM315.2,592.3l.5-6.6c8.3.4,17.2.1,25.9.4v6.2h-26.4,0ZM341.6,605.5v23.6h-26.4v-23.6h26.4ZM359.6,670.3c-4.4,1-26.7.4-40.2.4-2.7,0-5,0-7.5,0-5.6-.1-8.8-.2-16,0-1.2,0-1.5-.2-1.5-2.4,0-10.4,10.4-22.1,20.5-23.8,5.6-.9,21-.6,26.7.6,9.3,2,18.4,15.3,17.9,25.2h0ZM377.9,565.9c-.9.9-3.2,3.2-6.6,3.8h-37.3c1.5-2.4,6-5.8,6.6-13.7v-56.2h11.3c-1.6,3.6-4,6.4-5.2,10.4-6.3,21.6,15.2,37.7,35.4,35.8.3,1.9,2.2,13.8-4.2,19.8h0ZM386.9,530c-11.1,1.8-32.4-4.5-23.5-19.2,6.6-10.9,15.4.7,24.4.3-.5,6.3-3.7,12.6-1,18.9h0ZM373.3,482.9c-28.5,2.5-64.1-.1-93.5,0-55.2.1-114,2.6-168.9,1-20.9-.6-35.3-12.9-40.9-32.7-.5-41.8.4-83.6,0-125.5,0-4.8-1.4-9.6-1-15.1,1.1-16.5,10.4-30.1,27.2-33.2l281-.3c14.1,2,26.2,13.5,29.3,27.4.2,44,4.4,92.7,1.4,136.4-1.3,19.4-13.4,40.2-34.5,42h0ZM398.2,530.6c-3.2-2.1-1.4-13.8-.8-17.3l16.9-3c.6,6,2.8,11.5,5.6,16.5-.1,2.2-19.5,5.2-21.7,3.8h0ZM442,476.1c6,1.5,16.2,2.7,22.6,2.1.9.9-3.6,16.4-5.8,16.9l-20.1-7.1-3.1,5.9,17,8.6c3.7,4.2-15.1,17.3-18.9,19.2-4.8,2.4-5-1.1-7.3-5.1-1-1.7-3.9-6.8-3.5-8.5,13.8-8.8,25.8-30,17.8-49.7l23.6.4.9,10.9h-22.9l-.4,6.4h0ZM436.9,447.5c-8.3-15.9,5-31.2,21.9-21.9,7.6,4.2,6,13.9,6.5,21.4l-28.3.5h0ZM449.2,384.3c-1.5-15.3-.9-42.2,18.6-45.5,33.6-5.8,38.7,55.2,14.7,68.5-17.9,9.9-31.7-5.8-33.3-23h0ZM241,135.6l16.5,7.3v9.9c.1,0-16.5-6.6-16.5-6.6v-10.7h0ZM417.9,136.5l21.8,7.9.2,10.7-22-7.1v-11.5h0Z"/>
  <path class="st0" d="M315.4,356.2c44.7-7,52.6,56.2,11.8,61.8s-50.4-55.8-11.8-61.8ZM310.7,363.8c-15.2,3.1-15.1,27.5,1.6,27.2,20-.4,18.3-31.2-1.6-27.2ZM331.9,406.7c5.1,4.8,15.4-3.3,8.7-9.2-6.5-5.8-14.4,3.9-8.7,9.2ZM157.7,355.4c42-1.1,43.9,59.1,5.5,62.9-44.5,4.3-49.1-61.7-5.5-62.9ZM147.4,363.8c-16.5,3.4-12.7,34.3,8.5,25.4,14.8-6.2,9.8-29.2-8.5-25.4ZM177.6,397.8c-4.9-5.3-14.8,0-10.2,7.9s15.8-1.9,10.2-7.9ZM211.6,395.8c5.6-1,7.6,5.1,10.7,7.8,10.2,8.8,23.6,10.5,34.3,1.5,4-3.3,8.4-13.3,14.6-8,8.4,7.2-6,20.7-12.5,24.2-15.4,8.2-35.5,5.1-46.9-8.2-3.7-4.4-10.1-15.5-.3-17.3h0ZM155,319.5c8.1-.8,31.9,0,32.2,11.5.3,12.4-18.6,3.8-25.7,3.7-8.5-.1-15.4,3.8-22,4.3-7.1.5-10.3-7.6-5.1-12.8,3.5-3.5,15.6-6.2,20.6-6.8h0ZM315.5,319.5c8.7-.9,34.5,1.1,35.6,12.8,1.1,12.1-17.9,3.4-23.5,2.9-3.1-.3-8.2-.2-11.3,0-5.9.5-19.3,7-20.3-3.4-.9-9.4,12.5-11.7,19.6-12.4h0ZM180.4,528.9c3.8-.8,27.2-.8,30.7,0,8.7,2.2,8.6,19-.8,20.5-3.6.6-27.8.4-30.9-.1-7.1-1.3-9.7-18.2,1-20.3ZM208.1,536.3h-25.5v2.8h25.5v-2.8ZM195.6,498.8s14.7-.5,18.2,2c5.6,4.1,4.6,16-1.9,18-3.2,1-26.6,1-30.8.5-7.9-1-10.7-13.4-4.3-18.5,4.1-3.3,18.8-2,18.8-2h0ZM208.1,506.1h-25.5v2.8h25.5v-2.8ZM308,30.3c5.9-2,6.4,5.5,4.2,7-5.4,3.8-8-5.7-4.2-7ZM182.9,30c5.9-2,6.4,5.5,4.2,7-5.4,3.8-8.1-5.7-4.2-7ZM100,138.5c5.9-2,6.4,5.5,4.2,7-5.3,3.8-8.1-5.7-4.2-7ZM219.2,138.1c5.9-2,6.4,5.5,4.2,7-5.4,3.8-8.1-5.7-4.2-7ZM275.8,138.2c5.9-2,6.4,5.5,4.2,7-5.4,3.8-8-5.7-4.2-7ZM396.3,138.2c5.9-2,6.4,5.5,4.2,7-5.4,3.8-8-5.7-4.2-7Z"/>
</svg>