<svg id="Layer_1" data-name="Layer 1" xmlns="http://www.w3.org/2000/svg" viewBox="0 0 396.07953 263.82314"><defs><style>.cls-1{fill:#009cdc;}.cls-2{fill:#fff;}.cls-3{fill:none;}.cls-4{fill:#717073;}</style></defs><path class="cls-1" d="M224.06332,6.89587a84.08187,84.08187,0,0,0-21.38936-3.981A197.0022,197.0022,0,0,1,148.4379,106.97454a209.83776,209.83776,0,0,1-24.51557,21.2021,84.86852,84.86852,0,0,0,6.81295,10.43226A230.52153,230.52153,0,0,0,165.666,111.61874C188.39,89.97294,214.60163,55.574,224.06332,6.89587Z"/><path class="cls-1" d="M252.52032,60.66555a181.54574,181.54574,0,0,0,11.40643-26.26988,85.33136,85.33136,0,0,0-14.92658-14.49061c-11.61953,45.895-38.71431,78.99629-62.36586,100.33932a242.50454,242.50454,0,0,1-43.67527,31.3119,85.1693,85.1693,0,0,0,7.1726,5.5419,252.02831,252.02831,0,0,0,51.89791-34.45174C223.42911,104.25854,240.41682,83.405,252.52032,60.66555Z"/><path class="cls-1" d="M245.33805,17.27143A84.423,84.423,0,0,0,226.67646,7.782c-9.64868,49.1675-36.14662,83.92517-59.12686,105.81467a226.17963,226.17963,0,0,1-34.99768,27.32265,85.29688,85.29688,0,0,0,7.12662,7.66457A236.45367,236.45367,0,0,0,183.83549,117.143C207.28608,95.98112,234.18709,63.03007,245.33805,17.27143Z"/><path class="cls-1" d="M274.08129,65.1749c1.22674-2.18614,2.3843-4.38882,3.51012-6.59888a84.42949,84.42949,0,0,0-9.59787-18.718,188.12682,188.12682,0,0,1-10.50883,23.44988c-12.43317,23.35924-29.85825,44.75881-51.79013,63.60439a259.976,259.976,0,0,1-50.01164,33.69366q3.44115,1.99875,7.078,3.67628a268.05687,268.05687,0,0,0,57.48332-36.14847C243.03612,109.405,261.14912,88.22249,274.08129,65.1749Z"/><path class="cls-1" d="M201.37618,2.86724c-1.10965-.04343-2.21991-.08475-3.34-.08475a84.57113,84.57113,0,0,0-74.72994,124.25137A208.55187,208.55187,0,0,0,147.524,106.0707,195.73511,195.73511,0,0,0,201.37618,2.86724Z"/><path class="cls-1" d="M280.247,68.63465c-13.3633,23.81657-32.04071,45.67311-55.51353,64.96186a278.41316,278.41316,0,0,1-52.99508,34.21428A84.55767,84.55767,0,0,0,280.44412,68.26533C280.37581,68.38779,280.31568,68.51228,280.247,68.63465Z"/><path class="cls-2" d="M202.674,2.91489c-.43069-.02339-.86534-.03086-1.29778-.04765A195.73511,195.73511,0,0,1,147.524,106.0707a208.55187,208.55187,0,0,1-24.21772,20.96316c.20361.38216.40695.764.6161,1.14278a209.83776,209.83776,0,0,0,24.51557-21.2021A197.0022,197.0022,0,0,0,202.674,2.91489Z"/><path class="cls-2" d="M226.67646,7.782c-.86366-.31165-1.73691-.60212-2.61314-.88608C214.60163,55.574,188.39,89.97294,165.666,111.61874a230.52153,230.52153,0,0,1-34.93068,26.99016c.59438.77927,1.19615,1.55273,1.81664,2.31037a226.17963,226.17963,0,0,0,34.99768-27.32265C190.52984,91.70712,217.02778,56.94945,226.67646,7.782Z"/><path class="cls-2" d="M249.00017,19.90506c-1.19826-.907-2.4156-1.79-3.66212-2.63363-11.151,45.75864-38.052,78.70969-61.50256,99.87154a236.45367,236.45367,0,0,1-44.15695,31.44087q1.60156,1.52824,3.2805,2.97244a242.50454,242.50454,0,0,0,43.67527-31.3119C210.28586,98.90135,237.38064,65.80005,249.00017,19.90506Z"/><path class="cls-2" d="M257.48471,63.30788A188.12682,188.12682,0,0,0,267.99354,39.858c-1.28072-1.87854-2.643-3.696-4.06679-5.46233a181.54574,181.54574,0,0,1-11.40643,26.26988c-12.1035,22.73945-29.09121,43.593-50.49077,61.98089a252.02831,252.02831,0,0,1-51.89791,34.45174q2.7,1.86174,5.5513,3.50775a259.976,259.976,0,0,0,50.01164-33.69366C227.62646,108.06669,245.05154,86.66712,257.48471,63.30788Z"/><path class="cls-2" d="M280.247,68.63465c.06866-.12237.12879-.24686.1971-.36932a83.88882,83.88882,0,0,0-2.85271-9.68931c-1.12582,2.21006-2.28338,4.41274-3.51012,6.59888-12.93217,23.04759-31.04517,44.23009-53.837,62.95884A268.05687,268.05687,0,0,1,162.761,164.28221a83.97885,83.97885,0,0,0,8.97746,3.52858,278.41316,278.41316,0,0,0,52.99508-34.21428C248.20631,114.30776,266.88372,92.45122,280.247,68.63465Z"/><path class="cls-3" d="M86.05273,208.05838c-11.89357,0-21.93894,10.44689-21.93894,22.742,0,12.37618,10.04537,22.82175,21.93894,22.82175s21.85776-10.44557,21.85776-22.82175C107.91049,218.50527,97.94629,208.05838,86.05273,208.05838Z"/><path class="cls-3" d="M252.72318,208.05838c-11.8935,0-21.93886,10.44689-21.93886,22.742,0,12.37618,10.04536,22.82175,21.93886,22.82175,11.89225,0,21.85784-10.44557,21.85784-22.82175C274.581,218.50527,264.61543,208.05838,252.72318,208.05838Z"/><path class="cls-3" d="M382.98842,220.91586c0-7.39273-6.10832-11.7313-15.10729-11.7313h-15.0275v23.464h15.0275C376.8801,232.64856,382.98842,228.30991,382.98842,220.91586Z"/><path class="cls-4" d="M35.02285,208.05838a21.55077,21.55077,0,0,1,15.5899,6.99114l4.25879-4.33858a27.8992,27.8992,0,0,0-19.84869-8.43781c-15.26815,0-28.28658,13.01842-28.28658,28.52723,0,15.51012,13.01843,28.60832,28.28658,28.60832a28.23531,28.23531,0,0,0,19.84869-8.43781L50.61275,246.631a21.54574,21.54574,0,0,1-15.5899,6.99113c-11.89357,0-21.93893-10.44557-21.93893-22.82175C13.08392,218.50527,23.12928,208.05838,35.02285,208.05838Z"/><path class="cls-4" d="M86.05273,202.27313c-15.26816,0-28.28659,13.01842-28.28659,28.52723,0,15.51012,13.01843,28.60832,28.28659,28.60832,15.34793,0,28.20548-13.0982,28.20548-28.60832C114.25821,215.29155,101.40066,202.27313,86.05273,202.27313Zm0,51.349c-11.89357,0-21.93894-10.44557-21.93894-22.82175,0-12.29509,10.04537-22.742,21.93894-22.742s21.85776,10.44689,21.85776,22.742C107.91049,243.17654,97.94629,253.62211,86.05273,253.62211Z"/><polygon class="cls-4" points="164.083 248.159 129.849 203.237 123.582 203.237 123.582 258.445 129.849 258.445 129.849 213.523 164.083 258.445 170.351 258.445 170.351 203.237 164.083 203.237 164.083 248.159"/><polygon class="cls-4" points="179.112 209.185 197.675 209.185 197.675 258.445 203.943 258.445 203.943 209.185 222.506 209.185 222.506 203.237 179.112 203.237 179.112 209.185"/><path class="cls-4" d="M252.72318,202.27313c-15.26816,0-28.28651,13.01842-28.28651,28.52723,0,15.51012,13.01835,28.60832,28.28651,28.60832,15.34793,0,28.20548-13.0982,28.20548-28.60832C280.92866,215.29155,268.07111,202.27313,252.72318,202.27313Zm0,51.349c-11.8935,0-21.93886-10.44557-21.93886-22.82175,0-12.29509,10.04536-22.742,21.93886-22.742,11.89225,0,21.85784,10.44689,21.85784,22.742C274.581,243.17654,264.61543,253.62211,252.72318,253.62211Z"/><path class="cls-4" d="M329.46817,235.54184c0,10.60776-6.99121,18.16137-16.79593,18.16137-9.8034,0-16.79454-7.55361-16.79454-18.16137V203.23712h-6.26794v32.30472c0,13.98235,9.56275,23.86684,23.06248,23.86684,13.50105,0,23.0638-9.88449,23.0638-23.86684V203.23712h-6.26787Z"/><path class="cls-4" d="M389.33606,220.91586c0-10.36579-8.91911-17.67874-20.33006-17.67874H346.58576v55.20757h6.26787V238.596H367.4783l13.98242,19.84869h7.15208l-14.30417-20.41116C383.06819,236.18533,389.33606,229.59572,389.33606,220.91586Zm-36.48243,11.7327v-23.464h15.0275c8.999,0,15.10729,4.33857,15.10729,11.7313,0,7.394-6.10832,11.7327-15.10729,11.7327Z"/></svg>