<svg width="348" height="125" viewBox="0 0 348 125" fill="none" xmlns="http://www.w3.org/2000/svg">
<rect width="24.8171" height="24.8171" transform="matrix(-0.86601 0.500028 -3.18907e-05 1 65.3137 12.8008)" fill="#A6A6A6"/>
<rect width="24.8171" height="24.8171" transform="matrix(-0.86601 -0.500028 3.18907e-05 1 43.8206 25.2109)" fill="#C9C9C9"/>
<rect width="24.8171" height="24.8171" transform="matrix(-0.866041 0.499972 0.866041 0.499972 43.8206 0.394531)" fill="#E2E2E2"/>
<rect width="24.8171" height="24.8171" transform="matrix(3.19859e-05 1 0.86601 0.500028 22.3257 37.6211)" fill="#C9C9C9"/>
<rect width="24.8171" height="24.8171" transform="matrix(-0.866041 0.499973 0.866041 0.499972 22.3257 62.4336)" fill="#E2E2E2"/>
<rect width="24.8171" height="24.8171" transform="matrix(-3.17834e-05 1 0.866009 -0.500028 0.834595 50.0312)" fill="#A6A6A6"/>
<rect width="24.8171" height="24.8171" transform="matrix(-0.86601 0.500028 -3.19781e-05 1 65.3159 87.2539)" fill="#A6A6A6"/>
<rect width="24.8171" height="24.8171" transform="matrix(-0.866009 -0.500028 3.18033e-05 1 43.8228 99.6641)" fill="#C9C9C9"/>
<rect width="24.8171" height="24.8171" transform="matrix(-0.866041 0.499972 0.866041 0.499973 43.8228 74.8477)" fill="#E2E2E2"/>
<rect width="24.8171" height="24.8171" transform="matrix(0.86601 -0.500028 3.18907e-05 -1 65.3104 112.082)" fill="#A6A6A6"/>
<rect width="24.8171" height="24.8171" transform="matrix(0.86601 0.500028 -3.18907e-05 -1 86.8036 99.6719)" fill="#C9C9C9"/>
<rect width="24.8171" height="24.8171" transform="matrix(0.866041 -0.499972 -0.866041 -0.499972 86.8036 124.488)" fill="#E2E2E2"/>
<rect width="24.8171" height="24.8171" transform="matrix(-0.86601 0.500028 -3.19781e-05 1 129.791 50.0273)" fill="#A6A6A6"/>
<rect width="24.8171" height="24.8171" transform="matrix(-0.866009 -0.500028 3.18033e-05 1 108.297 62.4375)" fill="#C9C9C9"/>
<rect width="24.8171" height="24.8171" transform="matrix(-0.866041 0.499972 0.866041 0.499973 108.297 37.6211)" fill="#E2E2E2"/>
<rect width="24.8171" height="24.8171" transform="matrix(0.86601 -0.500028 3.18907e-05 -1 65.312 37.6289)" fill="#A6A6A6"/>
<rect width="24.8171" height="24.8171" transform="matrix(0.86601 0.500028 -3.18907e-05 -1 86.8052 25.2188)" fill="#C9C9C9"/>
<rect width="24.8171" height="24.8171" transform="matrix(0.866041 -0.499972 -0.866041 -0.499972 86.8052 50.0352)" fill="#E2E2E2"/>
<path d="M190.051 82.9414L175.528 65.159V82.9414H167.523V43.031H175.528V60.9278L190.051 43.031H199.714L183.247 62.8147L200.172 82.9414H190.051ZM203.379 66.9887C203.379 63.7867 204.008 60.9468 205.266 58.4691C206.562 55.9914 208.296 54.0855 210.469 52.7513C212.68 51.4171 215.138 50.7501 217.845 50.7501C220.208 50.7501 222.267 51.2265 224.02 52.1795C225.812 53.1325 227.241 54.3332 228.308 55.7817V51.2647H236.371V82.9414H228.308V78.31C227.279 79.7966 225.85 81.0355 224.02 82.0266C222.228 82.9795 220.151 83.456 217.788 83.456C215.119 83.456 212.68 82.7699 210.469 81.3976C208.296 80.0253 206.562 78.1003 205.266 75.6226C204.008 73.1068 203.379 70.2288 203.379 66.9887ZM228.308 67.103C228.308 65.159 227.927 63.5008 227.165 62.1285C226.402 60.7181 225.373 59.6508 224.077 58.9265C222.781 58.1642 221.39 57.783 219.903 57.783C218.417 57.783 217.044 58.1451 215.786 58.8694C214.528 59.5936 213.499 60.661 212.699 62.0714C211.936 63.4436 211.555 65.0827 211.555 66.9887C211.555 68.8946 211.936 70.5718 212.699 72.0204C213.499 73.4308 214.528 74.5171 215.786 75.2795C217.082 76.0419 218.455 76.4231 219.903 76.4231C221.39 76.4231 222.781 76.061 224.077 75.3367C225.373 74.5743 226.402 73.507 227.165 72.1347C227.927 70.7243 228.308 69.0471 228.308 67.103ZM248.248 47.4909C246.838 47.4909 245.656 47.0525 244.703 46.1758C243.789 45.261 243.331 44.1364 243.331 42.8023C243.331 41.4681 243.789 40.3627 244.703 39.4859C245.656 38.5711 246.838 38.1137 248.248 38.1137C249.659 38.1137 250.821 38.5711 251.736 39.4859C252.689 40.3627 253.166 41.4681 253.166 42.8023C253.166 44.1364 252.689 45.261 251.736 46.1758C250.821 47.0525 249.659 47.4909 248.248 47.4909ZM252.194 51.2647V82.9414H244.189V51.2647H252.194ZM268.108 56.182C269.137 54.5048 270.471 53.1897 272.11 52.2367C273.787 51.2837 275.693 50.8072 277.828 50.8072V59.2124H275.712C273.196 59.2124 271.291 59.8033 269.994 60.985C268.737 62.1666 268.108 64.2251 268.108 67.1602V82.9414H260.103V51.2647H268.108V56.182ZM297.285 83.456C294.236 83.456 291.491 82.7889 289.052 81.4548C286.612 80.0825 284.687 78.1575 283.277 75.6798C281.905 73.202 281.218 70.3431 281.218 67.103C281.218 63.8629 281.924 61.004 283.334 58.5263C284.783 56.0486 286.746 54.1426 289.223 52.8085C291.701 51.4362 294.465 50.7501 297.514 50.7501C300.564 50.7501 303.327 51.4362 305.805 52.8085C308.283 54.1426 310.227 56.0486 311.637 58.5263C313.086 61.004 313.81 63.8629 313.81 67.103C313.81 70.3431 313.067 73.202 311.58 75.6798C310.132 78.1575 308.149 80.0825 305.634 81.4548C303.156 82.7889 300.373 83.456 297.285 83.456ZM297.285 76.4803C298.734 76.4803 300.087 76.1372 301.345 75.4511C302.641 74.7268 303.67 73.6595 304.433 72.2491C305.195 70.8387 305.576 69.1233 305.576 67.103C305.576 64.0916 304.776 61.7855 303.175 60.1845C301.612 58.5454 299.687 57.7258 297.4 57.7258C295.113 57.7258 293.188 58.5454 291.625 60.1845C290.1 61.7855 289.338 64.0916 289.338 67.103C289.338 70.1144 290.081 72.4397 291.568 74.0788C293.092 75.6798 294.998 76.4803 297.285 76.4803ZM331.804 83.456C329.212 83.456 326.886 82.9986 324.828 82.0837C322.77 81.1308 321.13 79.8538 319.911 78.2528C318.729 76.6518 318.081 74.8793 317.967 72.9352H326.029C326.181 74.155 326.772 75.1652 327.801 75.9657C328.869 76.7662 330.184 77.1664 331.747 77.1664C333.271 77.1664 334.453 76.8615 335.292 76.2516C336.168 75.6417 336.607 74.8602 336.607 73.9072C336.607 72.878 336.073 72.1157 335.006 71.6201C333.976 71.0865 332.318 70.5147 330.031 69.9048C327.668 69.333 325.724 68.7421 324.199 68.1322C322.712 67.5223 321.416 66.5884 320.311 65.3305C319.244 64.0726 318.71 62.3763 318.71 60.2416C318.71 58.4882 319.205 56.8872 320.197 55.4387C321.226 53.9902 322.674 52.8466 324.542 52.008C326.448 51.1694 328.678 50.7501 331.232 50.7501C335.006 50.7501 338.017 51.703 340.266 53.609C342.515 55.4768 343.754 58.0117 343.983 61.2137H336.321C336.206 59.9558 335.673 58.9647 334.72 58.2404C333.805 57.478 332.566 57.0968 331.003 57.0968C329.555 57.0968 328.43 57.3637 327.63 57.8973C326.867 58.431 326.486 59.1743 326.486 60.1273C326.486 61.1946 327.02 62.0142 328.087 62.586C329.154 63.1196 330.813 63.6723 333.062 64.2441C335.349 64.8159 337.236 65.4067 338.722 66.0166C340.209 66.6266 341.486 67.5795 342.553 68.8756C343.659 70.1335 344.23 71.8107 344.269 73.9072C344.269 75.7369 343.754 77.3761 342.725 78.8246C341.734 80.2731 340.285 81.4167 338.379 82.2553C336.511 83.0558 334.32 83.456 331.804 83.456Z" fill="black"/>
</svg>
