<svg id="Layer_1" data-name="Layer 1" xmlns="http://www.w3.org/2000/svg" viewBox="0 0 305.54001 482.04001"><defs><style>.cls-1{fill:#fff;}</style></defs><path class="cls-1" d="M264.3321,348.69027a6.62467,6.62467,0,0,1-1.92639.36358,6.6229,6.6229,0,0,0,1.92645-.36358,1.376,1.376,0,0,0,.757-1.381,1.64306,1.64306,0,0,0-.98-1.38,17.14966,17.14966,0,0,0-2.983-1.38c-.01715-.00635-.03217-.01313-.04926-.01947.01709.00641.032.01312.0492.01947a17.1466,17.1466,0,0,1,2.983,1.381,1.64306,1.64306,0,0,1,.98,1.38A1.37608,1.37608,0,0,1,264.3321,348.69027Zm6.324-17.724v-.00006a17.91633,17.91633,0,0,0-3.118-.802,20.40769,20.40769,0,0,0-4.08478-.39942,20.40445,20.40445,0,0,1,4.08484.40045A17.916,17.916,0,0,1,270.65608,330.96627Zm-11.162-.68152a10.653,10.653,0,0,0-2.77692,1.39447c-.13775.10553-.26312.223-.3905.33838.12738-.11542.25275-.23285.39056-.33832A10.65185,10.65185,0,0,1,259.494,330.28475Zm1.98706,7.89649c.11243.07464.24945.15753.393.24261-.14344-.08508-.28016-.168-.392-.24268a1.66315,1.66315,0,0,1-.50293-.5769A1.66321,1.66321,0,0,0,261.48109,338.18124Zm1.34979.73968c-.09015-.03815-.197-.08044-.27984-.11676-.04474-.0238-.07776-.04376-.12067-.067.04291.02326.07605.04322.12073.067C262.634,338.84054,262.74079,338.88277,262.83088,338.92092Zm-1.12579,15.51434a20.16289,20.16289,0,0,0,2.85809-.19494,20.17135,20.17135,0,0,1-2.8587.19494Zm7.34705-1.782-.00007.00006-.00006.00086a5.939,5.939,0,0,0,2.6189-4.48078A5.9389,5.9389,0,0,1,269.05214,352.65328Zm-27.51825,1.74823q.62362-.03351,1.24523-.10028c.20417-.02179.3938-.051.59089-.07648-.19709.02539-.38666.05463-.59089.07642Q242.15782,354.36791,241.53389,354.40151Zm-19.09882-5.8443a12.53129,12.53129,0,0,0,2.093-.579l.936,5.165-.936-5.166A12.52981,12.52981,0,0,1,222.43507,348.55721Zm23.66937,5.19855q.50122-.11133.99469-.25555c.02716-.0077.05322-.0185.08032-.02643-.0271.00793-.05322.01873-.08038.02643Q246.60595,353.64441,246.10444,353.75576Zm1.52875-6.17828-.00006-.00025a14.31244,14.31244,0,0,1-2.895.846,20.11608,20.11608,0,0,1-2.23089.25482,20.105,20.105,0,0,0,2.23187-.25488,14.29775,14.29775,0,0,0,2.89407-.8457Zm-12.69208-17.0113a11.39038,11.39038,0,0,1,3.90528-.78845,11.39127,11.39127,0,0,0-3.90528.78748,10.5207,10.5207,0,0,0-3.562,2.36,11.92048,11.92048,0,0,0-2.44062,3.70594,11.91917,11.91917,0,0,1,2.44062-3.705,10.52007,10.52007,0,0,1,3.562-2.36Zm-7.036,11.71106v.00043c-.00384-.17932.01148-.3576.01434-.53668C227.91658,341.91988,227.90132,342.098,227.9051,342.27724Zm.46753,3.901c.07536.30451.1518.60895.24548.909q.13416.40393.29914.79511-.16491-.39084-.29914-.79517C228.52443,346.78719,228.448,346.48275,228.37263,346.17824Zm9.11743,8.0362a15.33779,15.33779,0,0,1-2.29815-.57727A15.32173,15.32173,0,0,0,237.49006,354.21444Zm-59.40094-13.62921v-.00006c.00006-.00739-.00049-.01477-.00042-.02216C178.08863,340.5704,178.08918,340.57784,178.08912,340.58523Zm4.936,1.692v.00043c-.002-.09369.00763-.18677.00744-.28039C183.03273,342.09078,183.02308,342.18368,183.0251,342.27724Zm7.036-11.71106a11.39332,11.39332,0,0,1,3.91821-.78906,11.39056,11.39056,0,0,0-3.91821.78809,10.52074,10.52074,0,0,0-3.562,2.36,11.92181,11.92181,0,0,0-2.47131,3.7713,11.9216,11.9216,0,0,1,2.47131-3.77032,10.52129,10.52129,0,0,1,3.562-2.36Zm-6.56848,15.61206c.07537.30451.15179.60895.24548.909.01166.0351.02832.06806.04034.103-.012-.035-.02868-.068-.04034-.10309C183.64442,346.78719,183.568,346.48275,183.49263,346.17824Zm26.4295-21.624,6.635-1.069-6.635,1.069v19.683c-.00067.07727.01.154.01019.2312-.00018-.07721-.0108-.15393-.01014-.2312Zm-33.971,8.283v.00006a8.58942,8.58942,0,0,1,1.648,3.384c.01458.0611.02411.12317.038.18439-.01391-.06128-.02344-.12335-.038-.18445a8.5896,8.5896,0,0,0-1.647-3.384,7.27914,7.27914,0,0,0-3.162-2.182,7.27935,7.27935,0,0,1,3.161,2.182Zm20.70276,21.56433q.62364-.03351,1.24522-.10028c.192-.02051.36983-.04822.55556-.0719-.18573.02368-.36352.05139-.55556.07184Q197.27783,354.36791,196.65388,354.40151Zm38.56867-8.47723a4.39011,4.39011,0,0,1-.50324-1.64209h-.00024A4.3901,4.3901,0,0,0,235.22255,345.92428ZM167.44612,335.5082a13.73649,13.73649,0,0,0-1.50879.08972,13.726,13.726,0,0,1,1.50879-.08868,3.45086,3.45086,0,0,1,3.162,1.336,8.93288,8.93288,0,0,1,.4339,1.08642,8.9293,8.9293,0,0,0-.43384-1.08642A3.451,3.451,0,0,0,167.44612,335.5082Zm37.578,6.27966v-.00061a14.22241,14.22241,0,0,0-1.697-7.37164A14.22461,14.22461,0,0,1,205.02412,341.78786Zm-13.939-5.16565a3.72087,3.72087,0,0,1,1.336-.98,4.23868,4.23868,0,0,1,.93415-.312,4.23868,4.23868,0,0,0-.93415.312,3.721,3.721,0,0,0-1.336.979,4.76426,4.76426,0,0,0-.846,1.47,10.25454,10.25454,0,0,0-.4,1.648,10.25831,10.25831,0,0,1,.4-1.647A4.76317,4.76317,0,0,1,191.08509,336.62221Z"/><path class="cls-1" d="M222.43505,348.55721c-.04388.00714-.08836.0094-.13232.01612.044-.00672.08844-.009.13239-.01612Zm-17.45495-5.478c.00293-.04749.004-.08924.00659-.13581-.00262.04657-.00366.08826-.00659.13574Zm-14.20325,3.50531a4.387,4.387,0,0,1-.93756-2.30237h-.00018A4.38673,4.38673,0,0,0,190.77685,346.58456Zm3.55921-11.34235a4.23867,4.23867,0,0,0-.49378.0155,4.23963,4.23963,0,0,1,.49384-.0155Zm3.207,1.424a3.67269,3.67269,0,0,1,.757,1.426,6.21275,6.21275,0,0,1,.26868,1.29315,6.213,6.213,0,0,0-.26868-1.29425,3.67341,3.67341,0,0,0-.757-1.425,3.73335,3.73335,0,0,0-1.292-1.024,4.06834,4.06834,0,0,0-1.42066-.38812,4.06907,4.06907,0,0,1,1.42066.38818,3.7329,3.7329,0,0,1,1.292,1.024Zm-29.697-6.81305c-.0271-.00006-.05414.00141-.08124.00141.02728,0,.0545-.00153.08178-.00141ZM127.93939,280.3016l.04168-.08332c.11408-.22729.2306-.46112.31507-.65185-.08528.19067-.20093.42456-.316.65277Zm-4.03528,2.85357a3.61012,3.61012,0,0,1-1.572-.356,4.21,4.21,0,0,1-1.69-5.636c.056-.114.117-.247.18-.383q.0627-.135.12506-.26806-.06273.13349-.12512.26715c-.063.137-.124.27-.18.384a4.21,4.21,0,0,0,1.69,5.636,3.61012,3.61012,0,0,0,1.572.356,4.445,4.445,0,0,0,3.902-2.586.05506.05506,0,0,0,.013-.016v-.00007a.05419.05419,0,0,1-.01294.01593A4.445,4.445,0,0,1,123.90411,283.15517Zm125.955,59.93744.001-.01336c.00293-.04749.004-.08924.0066-.13581-.00263.04657-.00367.08826-.0066.13574ZM123.26,272.95437c-.09461.14209-.18952.26739-.28522.40277.09564-.13526.19086-.2608.28528-.40192ZM93.812,235.79421l-.05.01837.05108-.01831a36.29977,36.29977,0,0,1,6.73205-1.973H100.545A36.30531,36.30531,0,0,0,93.812,235.79421Zm6.75721-1.97027a3.90891,3.90891,0,0,1,2.04486.69233q.08166.04752.16376.09412-.08157-.04657-.16278-.09412A3.9086,3.9086,0,0,0,100.56921,233.82394ZM133.80407,268.144a3.1478,3.1478,0,0,1,.358-.08276l.013-.004v-.00006l-.014.004A3.16513,3.16513,0,0,0,133.80407,268.144Zm44.14826,11.14c.02588.06415.046.13043.07269.19427l.0025.00519-.00244-.00525C177.99835,279.41439,177.97827,279.348,177.95233,279.284Zm1.40185-16.20044c-.043-.11475-.08453-.22351-.121-.313l-.001.00061c.0371.0882.07868.19714.122.31238Zm.49628,1.34387c.009-.02313.01874-.046.02759-.06921l.00262-.00873-.00256.00769C179.8692,264.38076,179.85955,264.404,179.85046,264.42745Zm22.05164-30.17316q.82352.1326,1.64276.28852c-.29-.05872-1.13776-.209-1.64276-.28858Zm-66.843,32.20087-.00006.00006a50.96494,50.96494,0,0,0,36.288.093l.08392.15063c-.02763-.04962-.05949-.10736-.08386-.15069A50.96494,50.96494,0,0,1,135.05908,266.45516ZM180.663,282.65652c.08392.04144.16021.09527.247.13171a3.76051,3.76051,0,0,0,1.55.30347,3.761,3.761,0,0,1-1.55-.30353C180.8233,282.75173,180.747,282.6979,180.663,282.65652Zm-3.81292-6.87836a36.41658,36.41658,0,0,0-2.667-6.522,2.727,2.727,0,0,0-1.717-1.12c-.092-.028-.184-.055-.27405-.084l-.011-.004-.007-.012c-.04071-.06909-.11914-.21-.21173-.37707.09253.16742.171.30847.21167.37817l.007.011.011.004c.091.029.182.056.274.084a2.727,2.727,0,0,1,1.717,1.12,36.41833,36.41833,0,0,1,2.666,6.522l.03.089c.06225.19659.1109.38129.166.57245-.05463-.19086-.10266-.37549-.16486-.57147ZM89.447,237.35421l-.06922.01483.07025-.01477c.25-.053.51-.108.71-.162.01654-.0047.03241-.01123.049-.016-.01654.00476-.03247.01129-.049.016C89.957,237.24624,89.697,237.30123,89.447,237.35421Zm39.9941,38.583c-.09149.28894-.16524.56677-.24213.84619.077-.27942.15082-.55713.2431-.84711.31-.778.579-1.572.84-2.338a14.85425,14.85425,0,0,1,1.0744-2.80927,14.85742,14.85742,0,0,0-1.07532,2.80823c-.26.768-.53006,1.56-.84,2.33994Zm-28.721-102.94593H100.72a4.71525,4.71525,0,0,1,.95416.15259A4.71228,4.71228,0,0,0,100.72009,172.99123Zm56.397-21.75561c-.00128-.01264-.0061-.02393-.00751-.03656.00147.01281.00617.02464.00751.03747Zm-4.37781-3.56018-.02171.00445.02226-.00445ZM148.878,166.072v.001l.005-.005Zm98.5211,69.23825a12.32826,12.32826,0,0,1,.30738,3.08344,12.32313,12.32313,0,0,0-.30738-3.0835l-16.246-70.567c-.04828-.20827-.1203-.4071-.17883-.61146.05847.20434.13055.40326.17877.61152Zm-11.433,101.312a3.72009,3.72009,0,0,1,1.336-.98,4.23874,4.23874,0,0,1,1.915-.4,4.07046,4.07046,0,0,1,1.914.4,3.733,3.733,0,0,1,1.292,1.024v.00006a3.6738,3.6738,0,0,1,.757,1.426,6.2182,6.2182,0,0,1,.28515,1.42383,6.21439,6.21439,0,0,0-.28515-1.42493,3.67438,3.67438,0,0,0-.757-1.425,3.733,3.733,0,0,0-1.292-1.024,4.07046,4.07046,0,0,0-1.914-.4,4.23914,4.23914,0,0,0-1.915.4,3.721,3.721,0,0,0-1.336.979,4.76839,4.76839,0,0,0-.847,1.47,10.26805,10.26805,0,0,0-.4,1.648,10.26973,10.26973,0,0,1,.4-1.647A4.76772,4.76772,0,0,1,235.96612,336.62228Zm7.43231-6.16761a10.30558,10.30558,0,0,1,3.61164,2.38257q2.89389,3.02793,2.894,8.95062v-.00061q0-5.922-2.894-8.95A10.30517,10.30517,0,0,0,243.39843,330.45467ZM89.004,237.453l-.007.002.007-.002.026-.004.033-.005-.033.005Zm119.43766-63.45433c-.0508-.05151-.11059-.08734-.16339-.1355.05548.0506.1181.09082.171.1449ZM102.799,234.622l1.698-.292Zm-13.736,2.82222a.32426.32426,0,0,0,.044-.014l.00189-.00067-.00189.00061a.34059.34059,0,0,1-.044.014Zm-5.07857-2.54676.00318.00714c-.00831-.02539-.011-.05346-.0188-.0791C83.97608,234.84945,83.97669,234.87362,83.98443,234.89748Zm124.41583-55.25622c.053-.05231.09-.11383.13953-.16828-.05194.05719-.09338.1214-.149.17585ZM222.4862,234.1011c.00159-.01186-.0003-.0232.00116-.035-.01611.12848-.055.25653-.08423.385.02655-.11734.06687-.22849.08307-.35ZM179.884,264.338l-.005-.005.005.006Zm9.23111-231.86668a3.589,3.589,0,0,0-.522-.59613,4.15074,4.15074,0,0,0-1.29742-.77233,4.15071,4.15071,0,0,1,1.29742.7724A3.58592,3.58592,0,0,1,189.11511,32.47132Zm-31.03882-.00006a3.58643,3.58643,0,0,0-.52222-.59607,4.16749,4.16749,0,0,0-.6214-.4508,4.17214,4.17214,0,0,1,.6214.45087A3.58338,3.58338,0,0,1,158.07629,32.47126Zm26.33423-1.3684a4.1509,4.1509,0,0,0-1.29743.77233,3.58146,3.58146,0,0,0-.52232.596,3.58236,3.58236,0,0,1,.52232-.59588A4.15082,4.15082,0,0,1,184.41052,31.10286ZM164.23907,64.42622h.001v-24.288a9.8359,9.8359,0,0,1,2.52-7.102,9.83614,9.83614,0,0,0-2.521,7.102ZM152.69549,31.42438a4.16981,4.16981,0,0,0-.6214.45081,3.58307,3.58307,0,0,0-.52209.596,3.58266,3.58266,0,0,1,.52209-.59594A4.17356,4.17356,0,0,1,152.69549,31.42438ZM182.609,41.365h6.532v.001h-6.532Zm-7.71594-5.43579a5.32438,5.32438,0,0,0-1.995.33,5.32268,5.32268,0,0,1,1.996-.329,11.34487,11.34487,0,0,1,1.73.132,6.256,6.256,0,0,1,1.557.438,6.25653,6.25653,0,0,0-1.557-.439A11.35165,11.35165,0,0,0,174.89306,35.92922ZM153.252,336.016l1.062-5.227ZM151.57,41.365h6.532v.001H151.57ZM133.77105,62.21322a6.94371,6.94371,0,0,0,1.27564,1.1853,6.94072,6.94072,0,0,1-1.27558-1.1853v-.001a7.50169,7.50169,0,0,1-1.468-3.135,18.47783,18.47783,0,0,1-.417-4.077v-19.377l-.00006,19.378a18.47607,18.47607,0,0,0,.41706,4.077,7.50183,7.50183,0,0,0,1.46794,3.135Zm-10.87195-15.761a12.77493,12.77493,0,0,1,2.543.241q1.183.241,2.06.46-.876-.219-2.06-.461A12.779,12.779,0,0,0,122.8991,46.45223Zm-21.35,18.457q1.22606-.132,2.302-.33a18.29191,18.29191,0,0,0,1.95-.46,18.30967,18.30967,0,0,1-1.951.46Q102.77508,64.77718,101.54907,64.90926ZM113.605,64.425h6.532v.001h-6.532Zm.0001-21.83179v.001a39.28287,39.28287,0,0,1,4.143-1.16205A39.29881,39.29881,0,0,0,113.6051,42.59322Zm6.532,4.209a8.624,8.624,0,0,1,1.293-.24,8.63169,8.63169,0,0,0-1.293.24Zm2.937-5.918q.526,0,1.272.066Q123.60111,40.88421,123.07409,40.88424Zm-33.209,20.715a10.53444,10.53444,0,0,0,3.814,2.521,14.52947,14.52947,0,0,0,5.414.92,14.52867,14.52867,0,0,1-5.414-.921A10.5341,10.5341,0,0,1,89.86511,61.59926Zm140.933,3.397a14.50111,14.50111,0,0,1-2.61352-.19525,14.5071,14.5071,0,0,0,2.61352.19622q1.183-.001,2.476-.11,1.29291-.11,2.543-.285-1.25.174-2.543.284T230.79809,64.99624Zm-9.295-20.868a8.633,8.633,0,0,1,3.222-2.411,10.80887,10.80887,0,0,1,4.363-.833,10.26832,10.26832,0,0,1,2.433.263,13.19665,13.19665,0,0,1,2.17.745v-.001a13.19073,13.19073,0,0,0-2.17-.745,10.26936,10.26936,0,0,0-2.433-.263,10.80944,10.80944,0,0,0-4.363.833,8.63334,8.63334,0,0,0-3.222,2.41095,11.02234,11.02234,0,0,0-2.017,3.836v.001a17.0275,17.0275,0,0,0-.53619,2.4776,17.02331,17.02331,0,0,1,.53717-2.4776A11.02147,11.02147,0,0,1,221.50311,44.12826Zm12.188,3.201a5.69315,5.69315,0,0,0-1.6-.658,7.718,7.718,0,0,0-1.995-.263H230.096a7.7177,7.7177,0,0,1,1.995.263A5.69327,5.69327,0,0,1,233.6911,47.32924Zm-2.85,12.099q.877.001,1.622-.065.745-.065,1.228-.154-.482.088-1.228.154-.745.065-1.622.065a4.692,4.692,0,0,1-4.032-1.841,7.99983,7.99983,0,0,1-1.36-4.866c-.00049-2.92109.76355-4.80407,2.25611-5.69775-1.49274.89361-2.25708,2.77666-2.25708,5.69775a8,8,0,0,0,1.36,4.867A4.69217,4.69217,0,0,0,230.84112,59.42824Zm-11.74725-3.28833a14.35268,14.35268,0,0,0,.5022,1.86335,10.35164,10.35164,0,0,0,.94238,1.9646,10.3508,10.3508,0,0,1-.94135-1.96363A14.35928,14.35928,0,0,1,219.09387,56.13991ZM240.223,30.406l-6.532,1.052ZM203.8211,234.37319c-.082.056-.161.112-.243.166l-.01185.00694.00086.00014.011-.007c.082-.054.161-.11.243-.166a2.78919,2.78919,0,0,1,1.712-.654l.01319.00055-.01319-.00061a2.789,2.789,0,0,0-1.712.654Zm4.754-185.42194a4.07047,4.07047,0,0,0-.746-1.403,4.07051,4.07051,0,0,1,.745,1.403Zm-5.809-2.434a3.89689,3.89689,0,0,0-1.316.987,4.40712,4.40712,0,0,0-.81,1.425,4.40654,4.40654,0,0,1,.811-1.425,3.89542,3.89542,0,0,1,1.315-.987Zm1.885-.372a4.386,4.386,0,0,0-.96308.08156,4.38651,4.38651,0,0,1,.96314-.08156Zm-10.193,1.555.00037.00036a11.51348,11.51348,0,0,1,1.70667-2.96141,11.51287,11.51287,0,0,0-1.70705,2.96105Zm19.356,15.89343.00109-.00043-.87695-5.305a13.29008,13.29008,0,0,1-1.86133.591,13.28821,13.28821,0,0,0,1.86036-.59Z"/><path class="cls-1" d="M204.56311,40.75326a10.19,10.19,0,0,1,7.76,3.003q2.84976,3.00282,2.85,8.83246v-.00049q0-5.83-2.85-8.833a10.19011,10.19011,0,0,0-7.76-3.004,11.05441,11.05441,0,0,0-4.098.789,10.30472,10.30472,0,0,0-3.53,2.324l-.00043.00049a10.30357,10.30357,0,0,1,3.52942-2.32245A11.05284,11.05284,0,0,1,204.56311,40.75326Zm-2.455,17.492a7.57769,7.57769,0,0,0,4.472,1.184,18.8829,18.8829,0,0,0,3.06769-.26483,18.884,18.884,0,0,1-3.06665.26288,7.57807,7.57807,0,0,1-4.472-1.18305,4.3395,4.3395,0,0,1-1.88454-3.199h-.00146a4.34018,4.34018,0,0,0,1.88494,3.2Zm-31.336-18.019v.001a7.05613,7.05613,0,0,1,.197-1.71,3.47707,3.47707,0,0,1,.658-1.36,3.47662,3.47662,0,0,0-.658,1.359A7.05316,7.05316,0,0,0,170.77209,40.22622Zm-58.807,302.051v.00049c-.004-.18945.01172-.37781.01509-.56689C111.97681,341.89974,111.96107,342.08791,111.96508,342.27718Zm19.70264-8.743a12.22977,12.22977,0,0,1,2.2511,6.81806A12.22907,12.22907,0,0,0,131.66772,333.5342Zm-37.22662,2.242a8.08338,8.08338,0,0,1,2.048-.267A8.08338,8.08338,0,0,0,94.4411,335.77621Zm-3.785,18.213q-1.24695-.178-2.405-.4,1.158.222,2.405.4,1.291.178,2.582.268.668.06646,1.30274.09973-.63475-.03323-1.30274-.09979Q91.9471,354.16821,90.65606,353.98916Zm14.117-2.939a10.47264,10.47264,0,0,0,2.36-3.874,14.45749,14.45749,0,0,0,.429-1.4588,14.43825,14.43825,0,0,1-.429,1.45874A10.47351,10.47351,0,0,1,104.77307,351.05019Zm26.89465-17.516a8.64492,8.64492,0,0,0-.59863-.697,10.31089,10.31089,0,0,0-.81122-.74255,10.31748,10.31748,0,0,1,.81122.74261A8.65731,8.65731,0,0,1,131.66772,333.5342Zm-35.89062,20.856q-.6015,0-1.23626-.0332.63471.03323,1.23626.03326a14.729,14.729,0,0,0,5.166-.846,10.70258,10.70258,0,0,0,1.05426-.46582,10.70317,10.70317,0,0,1-1.05426.46576A14.72763,14.72763,0,0,1,95.7771,354.39016Zm23.402-16.29791a4.76474,4.76474,0,0,1,.846-1.47,3.72026,3.72026,0,0,1,1.336-.98,4.23555,4.23555,0,0,1,.83295-.28466,4.23536,4.23536,0,0,0-.83295.2846,3.72147,3.72147,0,0,0-1.336.979,4.76584,4.76584,0,0,0-.846,1.47,10.2691,10.2691,0,0,0-.401,1.648h.001A10.27011,10.27011,0,0,1,119.17907,338.09225Zm-.24182,6.96862a4.3803,4.3803,0,0,1-.159-.77868h-.0002A4.37719,4.37719,0,0,0,118.93725,345.06087Zm5.29535-15.29455a9.94086,9.94086,0,0,0-1.04553-.00214v.00006A9.94086,9.94086,0,0,1,124.2326,329.76632Zm-38.03052,23.2879q.891.267,2.049.535Q87.09308,353.32116,86.20208,353.05422Zm40.28-16.388a3.67424,3.67424,0,0,1,.758,1.426,6.21948,6.21948,0,0,1,.311,1.64691,6.22186,6.22186,0,0,0-.311-1.648,3.67362,3.67362,0,0,0-.758-1.425,3.73288,3.73288,0,0,0-1.291-1.024,4.06489,4.06489,0,0,0-.45777-.187,4.06526,4.06526,0,0,1,.45777.18707A3.7319,3.7319,0,0,1,126.48211,336.66622Z"/><path class="cls-1" d="M119.00109,330.56618a11.39892,11.39892,0,0,1,4.186-.802,11.39638,11.39638,0,0,0-4.186.801,10.518,10.518,0,0,0-3.562,2.36,11.92446,11.92446,0,0,0-2.539,3.92,11.92651,11.92651,0,0,1,2.539-3.919A10.52057,10.52057,0,0,1,119.00109,330.56618Zm-.32544,22.86768c.05.02026.097.04675.1474.06635a14.939,14.939,0,0,0,5.522.935,14.93969,14.93969,0,0,1-5.522-.935C118.7727,353.48061,118.7257,353.45412,118.67565,353.43386Zm-6.70678-11.03272a15.69493,15.69493,0,0,0,.70819,4.686,10.76686,10.76686,0,0,0,1.09827,2.3089,10.76257,10.76257,0,0,1-1.09723-2.3089A15.69569,15.69569,0,0,1,111.96887,342.40114ZM96.15606,46.51723a3.90034,3.90034,0,0,0-1.316.987,4.41633,4.41633,0,0,0-.81,1.425,4.41874,4.41874,0,0,1,.811-1.425A3.90027,3.90027,0,0,1,96.15606,46.51723Zm5.55158,12.83161c-.5774.05255-1.15711.0802-1.73754.0794a7.57706,7.57706,0,0,1-4.471-1.183,7.57619,7.57619,0,0,0,4.471,1.184C100.55053,59.42964,101.13031,59.40175,101.70764,59.34884Zm-22.95655.08038a15.94682,15.94682,0,0,0,2.542-.22,10.77215,10.77215,0,0,0,2.5-.701L83.95,59.419l-.15686-.91182a10.77,10.77,0,0,1-2.499.701,15.95071,15.95071,0,0,1-2.542.22q-3.333,0-4.67-1.71a7.66175,7.66175,0,0,1-1.337-4.823,7.66176,7.66176,0,0,0,1.337,4.824Q75.41914,59.42919,78.75109,59.42922Zm8.155-6.35754v.00055c-.00152.17956.0121.35833.017.53765C86.91815,53.43044,86.90454,53.25142,86.90606,53.07168Zm13.73-6.09351a3.97734,3.97734,0,0,0-.688-.439,4.13449,4.13449,0,0,0-.45661-.18323,4.1334,4.1334,0,0,1,.45654.18323A3.9777,3.9777,0,0,1,100.6361,46.97817Zm1.614,3.59509a6.7911,6.7911,0,0,0-.285-1.622A6.788,6.788,0,0,1,102.25013,50.57326Zm-6.751,7.672a4.338,4.338,0,0,1-1.88483-3.2H93.6131A4.33827,4.33827,0,0,0,95.49909,58.24526Z"/><path class="cls-1" d="M97.95306,40.75326a10.18981,10.18981,0,0,1,7.76,3.003q2.85,3.003,2.85,8.833,0-5.83006-2.849-8.833a10.19,10.19,0,0,0-7.76-3.004,11.05008,11.05008,0,0,0-4.099.789,10.30017,10.30017,0,0,0-3.53,2.324,10.29937,10.29937,0,0,1,3.53-2.323A11.04854,11.04854,0,0,1,97.95306,40.75326Zm-31.605,301.881v-.00006a9.49224,9.49224,0,0,0-.00855,1.19085A9.49124,9.49124,0,0,1,66.34808,342.63424Zm5.522,6.012c.505-.056.95227-.11249,1.35077-.16907C72.82238,348.53316,72.37506,348.58962,71.87011,348.6462Zm-10.2359,2.3595c.07324.10339.13819.21216.21588.31256.06513.0777.14093.14447.20893.2193-.068-.07489-.14379-.14166-.20893-.21936C61.7724,351.2178,61.70745,351.10909,61.63421,351.0057ZM80.94311,46.62624a10.53625,10.53625,0,0,0-2.455-.263,5.175,5.175,0,0,0-4.318,1.798,7.39983,7.39983,0,0,0-1.425,4.734,7.39951,7.39951,0,0,1,1.425-4.733,5.17484,5.17484,0,0,1,4.318-1.798,10.53846,10.53846,0,0,1,2.455.263,16.51541,16.51541,0,0,1,2.017.614l1.359-5.217-.00025-.00007L82.9601,47.24026A16.49344,16.49344,0,0,0,80.94311,46.62624ZM68.68444,354.3229q.6339.04156,1.27166.02337a34.10578,34.10578,0,0,0,5.61-.446,34.11128,34.11128,0,0,1-5.611.446Q69.31851,354.3645,68.68444,354.3229Zm.22467-292.79065a9.99258,9.99258,0,0,1-2.148-3.837,16.26356,16.26356,0,0,1-.679-4.8,13.58341,13.58341,0,0,1,.81-4.713,13.58229,13.58229,0,0,0-.811,4.714,16.26238,16.26238,0,0,0,.68,4.8A9.993,9.993,0,0,0,68.90911,61.53225Zm-9.196,281.903c-.00068.07422.00439.1482.00463.22235-.00025-.07421-.00531-.14819-.00463-.22241Zm54.571-160.899q.13971-.02314.28-.042c-.093.012-.187.027-.281.042a2.71614,2.71614,0,0,1-2.034-.264,2.71584,2.71584,0,0,0,2.035.26395Zm56.806,46.562-.01994-.004a3.40612,3.40612,0,0,0-.66254-.05328,3.44508,3.44508,0,0,1,.66247.05334Zm-2.04572.22613c-.09948.04395-.17877.11115-.2716.16315a3.41472,3.41472,0,0,1,1.55963-.44379A3.41116,3.41116,0,0,0,169.04435,229.32436Zm6.28376-56.62408a51.571,51.571,0,0,1,5.59185,3.16388,51.56584,51.56584,0,0,0-5.59088-3.16388,51.03555,51.03555,0,0,0-17.81-4.953l-.00622-.101c.002.03363.00317.06738.00525.101A51.03567,51.03567,0,0,1,175.32811,172.70028Zm-13.047,85.72595a40.7025,40.7025,0,0,1-4.06885.69043,40.70266,40.70266,0,0,0,4.06982-.69043q2.00859-.45429,3.96-1.104-1.95447.65-3.961,1.103Zm-12.164-19.157a3.373,3.373,0,0,1,.26324-.3656,3.37352,3.37352,0,0,0-.2633.3656l-.008.018h.00006Zm6.024-75.21894a2.715,2.715,0,0,0,1.063,1.747,2.71506,2.71506,0,0,1-1.063-1.748,35.93282,35.93282,0,0,1,.42-6.921,35.92618,35.92618,0,0,0-.42,6.922Zm1.287,1.969c.00134.03106.00348.062.00482.09308l-.00378-.09308v-.013l-.01-.01.009.009ZM191.643,182.46h.011l-.011-.001-1.483,1.058,1.483-1.057Zm-.08594,50.0502c-.02966.0832-.06384.16449-.09405.24744.03021-.083.06439-.16418.09411-.24744l-20.434-3.454Zm-92.995-52.245-.034-.024.034.024.025.018.042.0343-.04206-.03436Zm89.257,17.071q.54879.894,1.0495,1.81147-.50067-.91716-1.0495-1.81153l-15.327,13.718ZM171.43054,212.789c-.00586.0213-.00537.0426-.01081.0639.02271-.09045.05274-.17834.08266-.26617-.02325.0677-.05279.13281-.07184.20227ZM181.611,189.57h-.001l-15.782,11.19Zm20.31307-14.91374c.118-.10235.26544-.22.41742-.33972-.1521.11975-.29969.23737-.4184.33972a16.8845,16.8845,0,0,0-1.768,1.823A16.88058,16.88058,0,0,1,201.92407,174.65627Zm-48.775,62.796c-.042,0-.083,0-.126.002a3.44958,3.44958,0,0,0-1.30371.31128,3.44992,3.44992,0,0,1,1.30377-.31128Q153.08611,237.45174,153.14909,237.45223Zm6.81-36.76459.0061.00684a3.43411,3.43411,0,0,1-.29535-.489A3.43761,3.43761,0,0,0,159.95909,200.68764Zm8.673,28.88437a3.31071,3.31071,0,0,0-1.036,1.01581A3.42654,3.42654,0,0,1,168.63212,229.572Zm30.68305-52.15664-.12708.1289a35.98479,35.98479,0,0,1-4.82037,4.39246,35.98186,35.98186,0,0,0,4.82037-4.39148ZM88.34253,229.4584c-.20617.0404-.45417.10064-.69848.15985l-.31.075c.097-.022.202-.048.309-.074C87.88831,229.55909,88.13636,229.49885,88.34253,229.4584Zm-1.07353.25285.0282-.0094-.02918.0094-.028.007a3.98468,3.98468,0,0,0-.69977.15955c-.01325.00433-.02423.012-.03742.01648a3.99213,3.99213,0,0,1,.73719-.175Zm4.989-.574a36.4209,36.4209,0,0,0,6.954-1.15,4.6123,4.6123,0,0,0,1.20862-1.10852,4.61243,4.61243,0,0,1-1.20855,1.10748,36.41644,36.41644,0,0,1-6.954,1.15l-.094.01c-.41553.03467-.81629.04968-1.20722.06567.39081-.01519.79071-.031,1.20716-.06469Zm63.912,10.123.01.018-.009-.018a3.467,3.467,0,0,0-3.022-1.808,3.46694,3.46694,0,0,1,3.021,1.808Zm-20.353-10.14c-.01245,0-.02472.00324-.03717.00342.01253-.00018.02472-.00342.03723-.00342Zm-31.46-54.38793a16.48487,16.48487,0,0,1,1.748,1.808c.267.307.544.625.844.944l.00007.00007c-.3-.319-.577-.637-.843-.943a16.48466,16.48466,0,0,0-1.749-1.81c-.175-.15-.421-.342-.638-.512l-.186-.146.186.146c.21689.16992.463.36292.63794.51294Zm4.92163,14.36016c.00574.03894.01135.07788.0174.11683l.00135.00793-.00141-.009Zm1.26932,1.24384-1.24994-1.115,1.249,1.115a50.96118,50.96118,0,0,0-8.024,35.473l-.39337.11438.39434-.11444a50.96108,50.96108,0,0,1,8.024-35.47294Zm39.17807-33.35-.00726-.06171.00628.06171a36.53034,36.53034,0,0,1,.43,7.06A36.53086,36.53086,0,0,0,149.72607,156.98623ZM140.13,257.296h.001l3.546-6.412-3.547,6.412Zm16.99207-104.86075c.00305.13.00573.262.00677.38776-.001-.12573-.00372-.25775-.00671-.38776-.001-.134-.005-.265-.005-.382.001-.00928-.00091-.01862,0-.02789-.00091.00946.00092.01843-.00006.02789Zm-.535,4.483-.026.21.026-.209c.062-.435.138-.85.213-1.25a16.29611,16.29611,0,0,0,.325-2.496,16.29606,16.29606,0,0,1-.325,2.495C156.72509,156.07027,156.6491,156.48427,156.58709,156.91823ZM139.017,234.003l-.059-.076.008-.018-.009.018.06.076Zm10.17112-81.84088-.00135.07459c.00031-.02436.00135-.05072.00135-.07447ZM135.165,229.182l-.034-.042.033.042h.001Zm4.04715,3.69991c.00873-.09107.02942-.18054.03083-.27234.00006-.00464-.00122-.009-.00116-.01361C139.24078,232.691,139.22119,232.78652,139.21215,232.88192Zm33.2807-21.77942-.00775.00671a3.43566,3.43566,0,0,0-.36261.36945,3.39461,3.39461,0,0,1,.36359-.36939ZM61.32806,245.88021q-.382-.479-.715-.993a12.385,12.385,0,0,1-1.706-9.56l16.22-70.567-16.221,70.567a12.38514,12.38514,0,0,0,1.707,9.561q.333.51407.715.992ZM196.89453,189.22c.04065-.03668.09405-.08454.12054-.10877l.01-.009v-.00008l-.01.009c-.02649.02427-.07989.07219-.12054.10882ZM43.48809,345.75222q-.50554-.59574-1.06372-1.14258.557.54583,1.06269,1.1416a32.36592,32.36592,0,0,1,2.182,2.716c.19745.266.38294.536.57288.80444-.18964-.26819-.37482-.53778-.57184-.80347A32.3679,32.3679,0,0,0,43.48809,345.75222Zm170.31-109.515c-.379-.163-.772-.333-1.185-.493l-.11-.038c-.17114-.06878-.346-.12756-.51806-.19372.17212.06616.34686.125.518.19378l.109.038q.59774.234,1.185.493a16.1807,16.1807,0,0,0,2.35.871c.02222.00555.04486.00928.06714.01471-.02094-.00539-.04633-.01032-.0661-.01575A16.16783,16.16783,0,0,1,213.79809,236.2372Zm-16.773-47.14788.0014-.018-.0014.01788Zm20.25,48.26788-.033-.005a.29324.29324,0,0,1-.045-.015.25629.25629,0,0,0-.031-.01c-.118-.026-.246-.052-.376-.078l-.00545-.0011.00537.00116q.18843.03726.376.078a.26526.26526,0,0,1,.031.01.29221.29221,0,0,0,.045.015l.033.005.026.003a3.9796,3.9796,0,0,0,.71026.162c.01209.00159.02362-.00037.03571.00116a3.9861,3.9861,0,0,1-.746-.16321ZM207.467,180.39l.275-.225.007-.005-.007.005Zm11.46908,49.205q-.14859-.03548-.297-.07178c-.25122-.06258-.51092-.12671-.71521-.165q.35944.073.71424.16491C218.73718,229.54812,218.83667,229.57143,218.93609,229.595Zm-11.842-1.69979a36.51187,36.51187,0,0,0,6.97,1.15l.048.00488-.047-.00488a36.50716,36.50716,0,0,1-6.97-1.15,3.91805,3.91805,0,0,1-1.569-1.53A3.9179,3.9179,0,0,0,207.09411,227.89522Zm-163.829,108.726q1.06907-1.15695,2.049-2.27.979-1.158,1.826-2.183.89-1.024,1.514-1.78h7.87915l.00085-.001h-7.881q-.624.758-1.514,1.782-.846,1.024-1.826,2.182-.98009,1.113-2.049,2.271-1.02346,1.15641-2.003,2.22583v.00019Q42.24108,337.78016,43.26507,336.62124Zm3.75458,13.788c.18964.28748.38318.57373.56445.864q.93493,1.38107,1.648,2.538h.00037q-.71292-1.15769-1.6474-2.537C47.40338,350.98366,47.20965,350.6971,47.01965,350.40926ZM195.64007,190.34432c.05225-.04748.12067-.10876.182-.16388-.06128.05512-.1297.11633-.182.16382Zm1.63251-2.69409a2.71174,2.71174,0,0,1,.48151-.768c.11328-.09715.23216-.18719.34654-.28294-.11438.0957-.23328.18579-.34656.28288a2.71235,2.71235,0,0,0-.48151.76807ZM34.626,320.325l6.634-1.07v-.001l-6.635,1.069v33.488h.001ZM146.935,198.888l.001-.019.084-.042-.085.042Zm-5.47088,2.62123-.00061.0003.0166.01172a3.4228,3.4228,0,0,0,.53387.31146,3.43119,3.43119,0,0,1-.53387-.31152Zm1.88928.66595.01117-.00067a3.438,3.438,0,0,1-.58264-.077A3.43258,3.43258,0,0,0,143.35339,202.17519Zm61.31085-19.98492c.02387-.01251.04694-.02649.07086-.03894a15.83584,15.83584,0,0,0,2.14-1.287,15.83584,15.83584,0,0,1-2.14,1.287C204.71209,182.16347,204.68731,182.178,204.66424,182.19027Zm-46.54413-3.947c.02014.0025.04.00622.06018.00871-.02014-.00256-.04-.00629-.06024-.00877l1.166,20.55Zm-24.00775,37.81323.00385-.00543a3.42927,3.42927,0,0,1-.42121.404A3.43088,3.43088,0,0,0,134.11236,216.05648Z"/><path class="cls-1" d="M296.48408,81.02523v-25.806a45.717,45.717,0,0,0-45.583-45.583H55.40411a45.71691,45.71691,0,0,0-45.583,45.583v341.676h286.708v-315.87ZM218.9499,50.44185a17.03042,17.03042,0,0,1,.53619-2.4776v-.001a11.02234,11.02234,0,0,1,2.017-3.836,8.6336,8.6336,0,0,1,3.222-2.41095,10.80947,10.80947,0,0,1,4.363-.833,10.26938,10.26938,0,0,1,2.433.263,13.192,13.192,0,0,1,2.17.745V31.45821l6.532-1.052v.00018l.001-.00018v33.275q-.87708.264-2.017.504-1.14.241-2.39.417-1.25.175-2.543.285-1.29309.109-2.476.11a14.624,14.624,0,0,1-5.086-.833,10.20389,10.20389,0,0,1-3.77-2.39,10.48924,10.48924,0,0,1-2.346-3.771,15.40448,15.40448,0,0,1-.811-4.975,17.02953,17.02953,0,0,1,.16481-2.58636Zm-24.49184-2.74163a11.51325,11.51325,0,0,1,1.707-2.96106l.00824-.01148c.141-.17682.29791-.34082.44934-.5094.10492-.11682.2016-.24041.3114-.353l.00061-.00055.00042-.00049a10.30481,10.30481,0,0,1,3.53-2.324,11.05449,11.05449,0,0,1,4.098-.789,10.19009,10.19009,0,0,1,7.76,3.004q2.84994,3.003,2.85,8.833v.001q-.001.57-.044,1.25-.044.68-.088,1.206H200.22454a4.33953,4.33953,0,0,0,1.88454,3.199,7.578,7.578,0,0,0,4.472,1.18305,18.88275,18.88275,0,0,0,3.06665-.26288c.15338-.02515.3086-.0362.46137-.06513.3266-.05542.64654-.14049.96765-.22a13.29092,13.29092,0,0,0,1.86133-.591l.87695,5.305-.0011.00043.00012.00061a9.02218,9.02218,0,0,1-1.404.525,18.29006,18.29006,0,0,1-1.95.46q-1.075.19794-2.302.33a23.0146,23.0146,0,0,1-2.455.131,14.52453,14.52453,0,0,1-5.414-.921,10.53529,10.53529,0,0,1-3.815-2.52l.001.00006a9.99911,9.99911,0,0,1-2.236-3.793,15.01505,15.01505,0,0,1-.723-4.735,14.09479,14.09479,0,0,1,.942-5.37l.0003-.00067ZM182.59077,32.47115a3.58146,3.58146,0,0,1,.52232-.596,4.15756,4.15756,0,0,1,5.48,0,3.58886,3.58886,0,0,1,1.162,2.827,3.58686,3.58686,0,0,1-1.161,2.828,3.99752,3.99752,0,0,1-2.74,1.03h-.001a3.9951,3.9951,0,0,1-2.74-1.03,3.5829,3.5829,0,0,1-1.162-2.828,3.58486,3.58486,0,0,1,.63966-2.231Zm6.55035,8.89411v23.061h-6.532v-23.061Zm-22.381-8.32905q2.52-2.62993,7.475-2.63a12.66324,12.66324,0,0,1,3.047.307,14.74449,14.74449,0,0,1,2.039.657l-1.14,5.12994a6.25514,6.25514,0,0,0-1.557-.438,11.34382,11.34382,0,0,0-1.73-.132,5.32248,5.32248,0,0,0-1.996.329,3.08025,3.08025,0,0,0-1.271.898,3.47693,3.47693,0,0,0-.658,1.36,7.05607,7.05607,0,0,0-.197,1.71v1.139h8.067v5.436h-8.067v17.624h-6.533v-24.288a9.836,9.836,0,0,1,2.521-7.10194Zm-15.58289.12256a3.58349,3.58349,0,0,1,.89691-1.28357,4.15476,4.15476,0,0,1,5.48,0,3.58653,3.58653,0,0,1,1.162,2.827,3.5849,3.5849,0,0,1-1.162,2.828,4.15936,4.15936,0,0,1-5.48,0,3.583,3.583,0,0,1-1.161-2.828,3.58371,3.58371,0,0,1,.264-1.54343Zm6.92493,8.20649v23.061h-6.532v-23.061Zm-26.216-5.742v-.001l6.533-1.052v6.79505h7.847v5.438h-7.847v8.11a6.45076,6.45076,0,0,0,.723,3.288,2.0782,2.0782,0,0,0,.45306.53687,3.74329,3.74329,0,0,0,2.46192.69012,12.46191,12.46191,0,0,0,2.17-.197,11.13815,11.13815,0,0,0,2.039-.548l.92,5.086a18.48921,18.48921,0,0,1-2.63.833,15.33136,15.33136,0,0,1-3.551.351,11.6862,11.6862,0,0,1-4.428-.724,6.94433,6.94433,0,0,1-2.806-2.016,7.502,7.502,0,0,1-1.468-3.135,18.476,18.476,0,0,1-.41705-4.077Zm-18.281,28.802v-21.832a39.30147,39.30147,0,0,1,4.143-1.161,23.884,23.884,0,0,1,5.326-.548q.527,0,1.272.066.744.066,1.491.175.744.11005,1.49.263.32586.06334.64423.15679.318.0934.62677.21626l-1.096,5.392q-.877-.219-2.06-.46a12.77406,12.77406,0,0,0-2.543-.241,11.87746,11.87746,0,0,0-1.469.11,8.62552,8.62552,0,0,0-1.293.24006v17.624h-6.532Zm-26.699-11.35357v-.00043a14.09636,14.09636,0,0,1,.942-5.37,11.50693,11.50693,0,0,1,2.477-3.836,10.30024,10.30024,0,0,1,3.53-2.324,11.0502,11.0502,0,0,1,4.099-.789,10.19,10.19,0,0,1,7.76,3.004q2.849,3.003,2.849,8.833,0,.57-.044,1.25t-.087,1.206H93.61427a4.338,4.338,0,0,0,1.88483,3.2,7.57706,7.57706,0,0,0,4.471,1.183c.58043.0008,1.16014-.02686,1.73754-.0794q.90071-.0825,1.79145-.24958a13.29144,13.29144,0,0,0,2.828-.81l.877,5.305a9.02384,9.02384,0,0,1-1.403.525,18.29377,18.29377,0,0,1-1.95.46q-1.07592.19793-2.302.33a23.02,23.02,0,0,1-2.456.131,14.52967,14.52967,0,0,1-5.414-.92,10.5347,10.5347,0,0,1-3.814-2.521,10.00028,10.00028,0,0,1-2.236-3.793q-.18477-.57348-.32277-1.15893c-.02661-.11292-.04223-.22791-.06622-.34137-.05884-.27857-.11951-.55682-.16248-.83814-.014-.09161-.01867-.18444-.03094-.2763-.04077-.30493-.08069-.61005-.10272-.91712-.01587-.22088-.01484-.44287-.02094-.66449-.00489-.17932-.0185-.35809-.017-.53765Zm-20.014-4.88946a11.02921,11.02921,0,0,1,6.072-6.466,12.29843,12.29843,0,0,1,4.998-.965,16.13305,16.13305,0,0,1,3.376.329,16.47181,16.47181,0,0,1,2.981.943l-.00025.001.00025.00007-1.359,5.217a16.51541,16.51541,0,0,0-2.017-.614,10.53841,10.53841,0,0,0-2.455-.263,5.17485,5.17485,0,0,0-4.318,1.798,7.39954,7.39954,0,0,0-1.425,4.733,7.6618,7.6618,0,0,0,1.337,4.823q1.337,1.71,4.67,1.71a15.95168,15.95168,0,0,0,2.542-.22,10.76974,10.76974,0,0,0,2.499-.701L83.95,59.419l.76416,4.43718a15.31647,15.31647,0,0,1-2.85.834,18.82288,18.82288,0,0,1-3.77.35,14.19656,14.19656,0,0,1-5.437-.943,10.23063,10.23063,0,0,1-3.748-2.564v-.001a9.99293,9.99293,0,0,1-2.148-3.836,16.26234,16.26234,0,0,1-.68-4.8,13.582,13.582,0,0,1,.81093-4.714Zm221.114,341.293H17.21807V84.90224h270.788Z"/><path class="cls-1" d="M208.57507,48.95125h-.001a4.07051,4.07051,0,0,0-.745-1.403,3.97545,3.97545,0,0,0-1.271-1.009,4.14175,4.14175,0,0,0-1.907-.394,4.38722,4.38722,0,0,0-1.885.372,3.89532,3.89532,0,0,0-1.315.987,4.40638,4.40638,0,0,0-.811,1.425,9.3454,9.3454,0,0,0-.417,1.644h8.637a6.79143,6.79143,0,0,0-.285-1.622Zm-114.961,1.622h8.636a6.78736,6.78736,0,0,0-.285-1.622,4.06686,4.06686,0,0,0-.745-1.403,3.97933,3.97933,0,0,0-1.272-1.009,4.14052,4.14052,0,0,0-1.907-.394,4.38641,4.38641,0,0,0-1.885.372,3.9004,3.9004,0,0,0-1.315.987,4.41874,4.41874,0,0,0-.811,1.425h.001A9.309,9.309,0,0,0,93.61407,50.57326Zm131.835,2.148a7.99981,7.99981,0,0,0,1.36,4.866,4.692,4.692,0,0,0,4.032,1.841q.877,0,1.622-.065.746-.066,1.228-.154v-11.88a5.69368,5.69368,0,0,0-1.6-.658,7.71813,7.71813,0,0,0-1.995-.263,5.71909,5.71909,0,0,0-1.08936.09864,3.97919,3.97919,0,0,0-1.30151.5166c-1.49258.89369-2.25662,2.77668-2.25613,5.69776Z"/><path class="cls-1" d="M158.68737,35.37173a3.5864,3.5864,0,0,1-.15045.64508"/><path class="cls-1" d="M141.46307,201.50924l.00043.0003.00061-.0003.016.012a3.43213,3.43213,0,0,0,.53388.31153c.05774.02777.117.05181.176.07629a3.40629,3.40629,0,0,0,.41352.14056c.05951.01612.118.035.1784.048a3.35244,3.35244,0,0,0,1.25769.03814c.103-.01629.20154-.05243.30268-.078a3.451,3.451,0,0,0,.34344-.09057c.10523-.03852.203-.09626.30444-.14515.09992-.0484.20447-.08838.29877-.14593a3.46847,3.46847,0,0,0,.289-.21564c.08148-.06225.16968-.116.24524-.18518a3.35612,3.35612,0,0,0,.75305-1.00861c.02729-.05511.04889-.11254.07318-.169a3.39127,3.39127,0,0,0,.14734-.4112c.0177-.06164.03577-.12316.05-.18579a3.428,3.428,0,0,0,.0883-.61139l.00008-.00116v-.01886l.085-.042,1.165-20.58393a41.60563,41.60563,0,0,0-4.153.718,40.60642,40.60642,0,0,0-19.48,10.6l16.877,11.964Zm31.02905,9.545.008.042-.00727.00629-.00677.00677a3.39542,3.39542,0,0,0-.36359.36938c-.05224.06171-.09546.12977-.14312.19483-.054.07355-.11072.14526-.15857.2229-.04547.07373-.082.15247-.12171.22943-.0401.07776-.08246.15424-.11645.235-.03107.07343-.05432.15021-.08026.22589-.02991.08783-.05994.17572-.08266.26618a3.39753,3.39753,0,0,0-.06671.39489c-.01276.09406-.03186.18824-.03675.28168a3.38665,3.38665,0,0,0,.01453.43878c.00562.0727.00415.14655.01441.21826a3.41136,3.41136,0,0,0,.11279.48279c.01452.04908.02246.10034.03912.14868a3.45213,3.45213,0,0,0,.22363.49823c.0163.0304.02741.06354.04462.09345a3.45287,3.45287,0,0,0,.33917.48218c.01349.01629.02362.035.03742.051a3.42648,3.42648,0,0,0,.45428.43634c.00794.00635.01422.01435.02222.02063a3.42591,3.42591,0,0,0,1.21661.61341l.02.005.017.085,19.853,5.718q.07965-.83543.12506-1.67084.04543-.83523.057-1.66968a41.23375,41.23375,0,0,0-.57294-7.446q-.31082-1.83847-.78656-3.64277-.47534-1.80229-1.113-3.55914a41.23609,41.23609,0,0,0-1.6131-3.82922q-.45227-.93833-.953-1.85584-.50071-.91717-1.0495-1.81148Zm-33.3,20.95917c-.00543-.03339-.00305-.06806-.0094-.10126a3.40415,3.40415,0,0,0-.1864-.63452,3.44739,3.44739,0,0,0-.171-.33142c-.04608-.08618-.08283-.17816-.13593-.25983-.05194-.08026-.11975-.14978-.17846-.22564a2.72587,2.72587,0,0,0-.73987-.72437c-.0271-.01892-.059-.03064-.08661-.04877a3.43644,3.43644,0,0,0-.51392-.28405c-.0863-.03742-.18056-.05811-.27044-.08851a2.78408,2.78408,0,0,0-1.0409-.19482h-.042c-.01251,0-.0247.00324-.03723.00342a3.53694,3.53694,0,0,0-.59478.05462l-.02.004-.00014-.00018-.00085.00018-.033-.042-20.257,3.438q.57137,1.57507,1.2666,3.09007a40.72,40.72,0,0,0,5.203,8.44588q1.03227,1.29171,2.16761,2.49731a40.71633,40.71633,0,0,0,7.65782,6.35675l7.848-18.965-.06-.07605.009-.018a2.77891,2.77891,0,0,0,.246-1.02728c.009-.0954.02862-.19092.02966-.286a3.43567,3.43567,0,0,0-.0498-.58258Zm16.988,7.26483-.01-.018a3.467,3.467,0,0,0-3.021-1.808q-.063-.00056-.126.00195a3.29111,3.29111,0,0,0-2.64276,1.44942,3.373,3.373,0,0,0-.26324.3656l-.008.018h-.019l-6.41351,11.5965-3.546,6.41266a41.81489,41.81489,0,0,0,22.15051,1.12988v-.001q2.00657-.453,3.961-1.103l-9.985-18.044ZM147.476,223.194l5.672,2.728,5.655-2.72,1.406-6.107-3.915-4.893h-6.3l-3.924,4.885,1.406,6.107Zm23.6471,5.86221-.033.042-.02-.004a3.446,3.446,0,0,0-.66248-.05335c-.02508.00014-.05011.00214-.07519.00281a3.41472,3.41472,0,0,0-1.55963.44379c-.0481.02692-.09436.05548-.14063.08447a3.42643,3.42643,0,0,0-1.036,1.01581c-.05341.08282-.10541.166-.15137.25293a3.38206,3.38206,0,0,0-.152.31061,3.47479,3.47479,0,0,0-.20417.64868c-.01818.09491-.03027.1911-.04046.2876-.00629.05957-.0163.11883-.01935.17846a3.451,3.451,0,0,0,.00647.49323c.00622.069.0133.13776.02386.20672.01563.10738.03461.21413.06031.31972a3.40748,3.40748,0,0,0,.17865.54749l.008.017-.026.035,7.932,19.159a40.53064,40.53064,0,0,0,9.35113-8.27094c.18451-.22278.37317-.44189.553-.66878.19366-.24371.37854-.49426.56651-.74243.14325-.18908.29114-.37481.431-.56628.1897-.25977.37-.52649.55353-.79077.13293-.19147.27063-.3797.40021-.57337.178-.26611.34655-.53869.51831-.80908.12585-.19812.25659-.39313.379-.59338.17066-.27924.33149-.56482.49549-.84833.11383-.19678.23272-.39063.3432-.58923.1557-.28.30133-.56591.4505-.8498.10974-.2088.22467-.41485.33069-.62549.14917-.2962.28784-.5982.42981-.89843.09564-.20215.19665-.40161.28894-.60541.1474-.32544.28381-.65637.42273-.98615.07769-.18432.16107-.36621.236-.55174.17566-.43481.34-.87514.50091-1.317.03022-.083.0644-.16425.09406-.24744Zm-11.837-30.263.017.009.001.02c.00055.0119.00354.02337.00421.03526a3.44491,3.44491,0,0,0,.08374.567c.01587.06976.036.13825.05617.20685a3.40544,3.40544,0,0,0,.13855.38318c.0274.0639.05188.12884.08313.191a3.43009,3.43009,0,0,0,1.2912,1.40241c.04925.02978.10516.04815.15594.07556a3.44466,3.44466,0,0,0,.44818.21344c.02625.00952.05512.01233.08161.02124a3.32344,3.32344,0,0,0,1.82237.10376c.05584-.01209.11-.03.165-.0448a3.41011,3.41011,0,0,0,.42584-.145c.05733-.02386.11469-.0473.17066-.07428a3.43955,3.43955,0,0,0,.5354-.31268l.01495-.011.06.025.98645-.69934,15.783-11.19018q-1.19375-1.16721-2.47222-2.22766c-.11213-.093-.22864-.18042-.34174-.27228-.3147-.25549-.62933-.51117-.95091-.75678-.19483-.14874-.39557-.28936-.593-.43457-.24609-.181-.48968-.3656-.7395-.54089-.25018-.17548-.50671-.3418-.7608-.51164-.20288-.13562-.40277-.27594-.60791-.40784-.297-.19092-.60053-.37207-.90253-.55536-.16809-.102-.33337-.20911-.50293-.30865-.33124-.19446-.66864-.37868-1.00543-.56391-.14545-.07995-.28827-.16491-.43465-.2431-.38086-.20343-.76764-.39624-1.15515-.58771-.10583-.0523-.20953-.10888-.31585-.16028-.24054-.11657-.48537-.223-.728-.33471a40.83489,40.83489,0,0,0-11.91956-3.4123c-.02014-.0025-.04-.00622-.06018-.00871Zm-26.893,18.394.016-.068.019-.005.01221-.00433a3.42976,3.42976,0,0,0,.56244-.21668c.0603-.02887.11847-.06146.17688-.09381a3.40649,3.40649,0,0,0,.3576-.22833c.05286-.03847.10716-.07459.15778-.116a3.32115,3.32115,0,0,0,.81366-.95862c.04382-.07721.07153-.16247.10925-.24286a3.45476,3.45476,0,0,0,.16187-.36706c.03216-.09621.046-.1982.06958-.29732a3.44315,3.44315,0,0,0,.079-.35474c.01331-.10412.00708-.2113.01074-.31714a3.15015,3.15015,0,0,0-.3092-1.56756c-.02594-.0556-.05719-.10828-.08606-.16229a3.40041,3.40041,0,0,0-.22992-.37214c-.03711-.05212-.07367-.10449-.11365-.15454a3.43136,3.43136,0,0,0-.42316-.45056l-.014-.013.016-.084-15.411-13.785a40.50007,40.50007,0,0,0-5.73,25.56Z"/><path class="cls-1" d="M60.61309,244.88723q.333.514.715.993l45.509,56.583a12.60993,12.60993,0,0,0,9.83,4.692l72.98-.016a12.60965,12.60965,0,0,0,9.83-4.684l45.492-56.592a13.79709,13.79709,0,0,0,1.44068-2.24689q.197-.39567.36468-.80335a12.42492,12.42492,0,0,0,.73816-2.52673q.07791-.43237.12524-.87.055-.50886.06861-1.02247a12.32818,12.32818,0,0,0-.30738-3.08343l-16.246-70.567c-.04822-.20827-.1203-.40717-.17877-.61153a12.47538,12.47538,0,0,0-6.62317-7.84753l-65.75806-31.399a12.67112,12.67112,0,0,0-10.914,0l-65.749,31.415a12.49015,12.49015,0,0,0-6.803,8.46l-16.22,70.567a12.385,12.385,0,0,0,1.706,9.56Zm23.19855-11.6098a3.97029,3.97029,0,0,1,.81726-2.05756c.02753-.0354.06293-.06421.09168-.09875a3.99041,3.99041,0,0,1,.43036-.45368c.05725-.05011.1253-.08838.18566-.13531a3.94,3.94,0,0,1,.4449-.31458c.07617-.04388.16248-.07306.24219-.11212a3.90347,3.90347,0,0,1,.47917-.21112c.0132-.00446.02417-.01215.03743-.01648a3.98477,3.98477,0,0,1,.69976-.15955l.028-.007.02919-.0094.00177-.00061.015-.003.02-.005.31-.075c.24432-.0592.49231-.11944.69849-.15985l.04248-.00915a16.07635,16.07635,0,0,1,2.492-.233c.02576-.001.054-.00329.07983-.00427.39093-.016.79169-.031,1.20722-.06567l.094-.01a36.4163,36.4163,0,0,0,6.954-1.15,7.092,7.092,0,0,0,1.51392-1.486l.16-.208.006-.009.012-.004,1.22565-.35559.39337-.11438a50.96117,50.96117,0,0,1,8.024-35.473l-1.249-1.115-.00006-.00006-.00061-.004-.00134-.00793c-.006-.03894-.01166-.07788-.01741-.11682l-.00964-.06421a3.92283,3.92283,0,0,0-.754-2.072c-.17711-.152-.36139-.29486-.54168-.44287-.6214-.51-1.25512-1.00433-1.90673-1.47437-.6095-.43969-1.22748-.86743-1.8628-1.26928q-.75585-.478-1.53473-.9195c-.382-.225-.758-.425-1.123-.618a16.13762,16.13762,0,0,1-2.142-1.29206c-.06879-.05121-.147-.11335-.2256-.176q-.15169-.12048-.31047-.25159l-.052-.04242c-.06446-.053-.12622-.10364-.187-.15265l-.042-.0343-.025-.018-.034-.024a4.63528,4.63528,0,0,1-1.712-2.849,3.75317,3.75317,0,0,1,.74-3,3.803,3.803,0,0,1,3.016-1.403l.14605.002h.002a5.017,5.017,0,0,1,2.762,1.042l.051.04.186.146c.217.17.463.362.638.512a16.48469,16.48469,0,0,1,1.749,1.81c.266.306.543.624.843.943l.06793.06795a36.41471,36.41471,0,0,0,5.23207,4.72,2.71612,2.71612,0,0,0,2.034.264c.094-.015.188-.03.281-.04206l.013-.002.012.008c.11651.086.35949.26153.6264.4518s.55762.3952.76959.54022a50.64717,50.64717,0,0,1,25.711-14.68,51.35083,51.35083,0,0,1,7.089-1.09l.093-1.649.00006-.001.00488-.00391.00409-.00409a4.26689,4.26689,0,0,0,1.268-2.018,36.53034,36.53034,0,0,0-.43-7.06l-.00628-.0617-.00074-.00629c-.062-.434-.139-.85-.213-1.25a16.30436,16.30436,0,0,1-.326-2.495c-.007-.192-.002-.437.003-.672.00158-.09052.00354-.1781.0047-.26453l.00134-.07458q-.00183-.02356-.005-.04688a.61759.61759,0,0,1-.004-.062,4.00356,4.00356,0,0,1,0-.817v-.00061c.00085-.00838.00409-.01581.005-.02417a3.96,3.96,0,0,1,.155-.75244c.03394-.10937.08753-.20795.13025-.3128a3.99692,3.99692,0,0,1,.17027-.39881,3.91875,3.91875,0,0,1,.2273-.34151c.06756-.09892.1264-.20355.20251-.296.08264-.10022.18054-.18469.27234-.27618.09009-.09.173-.18647.27149-.2677.0935-.077.19914-.13648.29925-.20472a3.92891,3.92891,0,0,1,.33856-.22534,4.01686,4.01686,0,0,1,.40027-.1709c.10437-.04248.20239-.09588.31128-.12964a3.96463,3.96463,0,0,1,.755-.15551l.02171-.00446h.00055c.1333-.01355.27193-.00091.4082-.00091s.2749-.01264.4082.00091h.00062c.00836.00086.0158.004.0241.005a3.95818,3.95818,0,0,1,.75263.155c.10931.03388.20766.08747.31238.13013a4.00406,4.00406,0,0,1,.399.17035,3.90776,3.90776,0,0,1,.34088.22685c.09924.06775.20422.12677.29694.20313.09892.0816.18225.1784.2727.26886.09137.09118.189.17529.2713.27514.07654.093.13574.19812.20362.29767a3.92013,3.92013,0,0,1,.226.3396,3.99893,3.99893,0,0,1,.17017.39838c.04285.10516.09656.204.13061.31372a3.96628,3.96628,0,0,1,.15241.73981c.0014.01263.00623.02392.00751.03656v.00091a4.01073,4.01073,0,0,1,0,.78882c-.00092.00928.001.01862,0,.02789,0,.117.004.248.005.382.003.13.00568.262.00672.38775s.0003.24524-.00373.35022a16.2939,16.2939,0,0,1-.325,2.496c-.075.4-.151.815-.213,1.25l-.026.209a35.93207,35.93207,0,0,0-.42,6.921,2.71505,2.71505,0,0,0,1.063,1.748l.214.198.001.001.01.01v.013l.00378.09308q.03378.76711.08,1.53394l.00622.101a51.03556,51.03556,0,0,1,17.81,4.953,52.19621,52.19621,0,0,1,14.83063,10.81659l1.4834-1.05762.01123.001h.00073l.205.014a3.90717,3.90717,0,0,0,2.164-.27c.11676-.08643.228-.17969.34363-.26752a35.98608,35.98608,0,0,0,4.82038-4.39245l.12707-.12891.00794-.00812c.294-.313.568-.626.832-.928a16.88266,16.88266,0,0,1,1.768-1.823c.11871-.10236.2663-.22.4184-.33972.0708-.05579.14111-.11139.21258-.1673l.245-.192.00708-.00562a4.00121,4.00121,0,0,1,.64184-.511l.0094-.0075c.0625-.0398.13045-.06189.19428-.09778a3.98,3.98,0,0,1,.50348-.25348c.11334-.04419.23028-.06653.34582-.09973a4.01419,4.01419,0,0,1,.39746-.10816,3.91345,3.91345,0,0,1,.40522-.03589c.12048-.009.23991-.027.36065-.02508.13086.00226.25885.02514.38855.04016.12567.01434.25165.0202.37573.04645.12122.02581.23664.0711.35506.108a3.90389,3.90389,0,0,1,.37836.12292,4.00619,4.00619,0,0,1,.36883.19757c.10321.05744.21033.10437.30915.17164a3.98057,3.98057,0,0,1,.43829.3634c.0528.04816.11259.084.16339.1355l.00755.0094a4.06364,4.06364,0,0,1,.26044.32367c.08338.105.177.2041.24823.315l.00794.01007c.041.06439.06378.13428.10064.2a3.97763,3.97763,0,0,1,.25055.4978c.04437.11369.06671.231.1.34686a3.99512,3.99512,0,0,1,.10791.3963,3.9345,3.9345,0,0,1,.03577.40442c.009.12091.02716.24079.0252.36188-.00226.12988-.025.257-.03985.38574-.01435.12659-.02039.25348-.04682.37848-.02557.12036-.0706.23492-.10724.35254a3.9219,3.9219,0,0,1-.12376.38086,4.01016,4.01016,0,0,1-.196.366c-.05781.10418-.10529.21215-.17316.31189a3.977,3.977,0,0,1-.35925.43334c-.0495.05445-.08649.116-.13953.16828l-.00952.00755a4.00066,4.00066,0,0,1-.64148.51076l-.0072.00574-.275.225c-.206.171-.418.346-.592.474a15.835,15.835,0,0,1-2.14,1.287c-.02393.01246-.047.02643-.07086.03894-.34644.18366-.70221.37214-1.06318.585a37.102,37.102,0,0,0-5.50042,3.8241c-.11438.09576-.23328.18579-.34656.28294a2.71168,2.71168,0,0,0-.48151.768c-.01788.04193-.04352.08044-.05926.12323a2.70548,2.70548,0,0,0-.07514.28576c-.01825.07319-.04522.14379-.05731.21845a2.72609,2.72609,0,0,0-.01941.30115c-.00378.075-.01684.1488-.01434.22442-.00659.09-.01184.179-.02063.26813l-.0014.018v.013l-.01.009c-.02649.02423-.07989.07208-.12054.10876-.12189.11005-.28217.25373-.48243.43219-.201.17926-.40638.36286-.59008.5282-.06128.05512-.1297.1164-.182.16388.68591,1.0235,1.32074,2.07385,1.92755,3.13757a51.12839,51.12839,0,0,1,3.04688,6.30884c.19165.478.37829.95752.55523,1.44068q.767,2.09408,1.34986,4.245a51.04361,51.04361,0,0,1,1.77984,13.221c0,.01868.00135.03724.00135.05591a51.15971,51.15971,0,0,1-.46869,6.97992l1.573.457.007.01.114.165a3.918,3.918,0,0,0,1.569,1.53,36.50716,36.50716,0,0,0,6.97,1.15l.047.00488.03.00305q.64124.04961,1.284.07a16.02326,16.02326,0,0,1,2.493.234l.00476.0011c.20428.03827.464.10242.71521.165.10528.02581.20074.04877.297.07178.0431.01019.08594.02118.129.03113a3.98176,3.98176,0,0,1,.71027.162c.0116.00378.0211.01056.03265.01446a3.90345,3.90345,0,0,1,.45264.20008c.09064.0437.188.07708.27411.12689a3.92309,3.92309,0,0,1,.34082.2417c.09784.07147.203.13434.29315.21374.08746.07715.15918.16883.23944.25312a3.9778,3.9778,0,0,1,.28357.30535c.07636.09913.134.2107.20074.31659.06855.10883.14588.212.20357.32679a4.01409,4.01409,0,0,1,.14727.3753c.04315.1131.09643.22174.12927.33862.03143.11206.04187.2304.06341.34583a3.92011,3.92011,0,0,1,.07184.42255c.00739.097-.00458.19726-.00439.29577a3.90313,3.90313,0,0,1-.01612.501c-.00146.01184.00043.02319-.00116.035-.01623.12152-.05651.23267-.08306.34992-.02729.12024-.0398.24084-.07886.36035-.00379.01166-.01062.0213-.01453.0329a3.89452,3.89452,0,0,1-.19971.45166c-.04376.09088-.07739.18853-.12725.27478a3.93739,3.93739,0,0,1-.24414.34424c-.07068.09649-.13263.2005-.211.28942s-.17144.162-.25721.24335a3.99348,3.99348,0,0,1-.30157.28c-.1004.07739-.2135.13586-.32086.20343-.10736.06738-.20893.1438-.32208.20068a3.98626,3.98626,0,0,1-.38665.15174c-.10931.04138-.21418.09314-.327.12481-.11548.03241-.23731.04346-.35633.06537a3.93018,3.93018,0,0,1-.41211.07c-.0996.00757-.20227-.00446-.3034-.00446a3.88325,3.88325,0,0,1-.49341-.01593c-.01208-.00152-.02362.00043-.0357-.00115a3.97886,3.97886,0,0,1-.71027-.162l-.026-.003-.033-.005a.29209.29209,0,0,1-.045-.015.26727.26727,0,0,0-.031-.01q-.18768-.04074-.376-.078l-.00537-.00115c-.20062-.04059-.40051-.08167-.57049-.12513-.02228-.00544-.04493-.00915-.06714-.01471a16.17983,16.17983,0,0,1-2.35-.871q-.58722-.259-1.185-.493l-.109-.038c-.17114-.06879-.34589-.12762-.518-.19379a36.27757,36.27757,0,0,0-6.228-1.78326c-.07245-.00659-.14278-.009-.21082-.0094l-.01318-.00055a2.78922,2.78922,0,0,0-1.712.654c-.082.056-.161.112-.243.166l-.011.007-.00086-.00013-.00012.00006-.014-.002-.0072-.00141q-.81933-.15583-1.64276-.28851a51.25539,51.25539,0,0,1-22.66895,28.5163c.0365.08947.07807.19824.121.313l.07789.20765a5.97113,5.97113,0,0,0,.44,1.032l.0072.00958.00476.0055-.00018.00061.00024.0003-.00342.01032-.00262.00872c-.00885.0232-.01856.04609-.02759.06922q-.04019.10364-.08136.20678a2.68982,2.68982,0,0,0-.193,2.022,36.8617,36.8617,0,0,0,3.487,6.24q.35879.52908.74,1.042a16.17035,16.17035,0,0,1,1.371,2.097c.106.199.231.465.353.722q.07954.16947.161.338a4.212,4.212,0,0,1-1.69,5.637,3.76251,3.76251,0,0,1-3.08808.056c-.08679-.03644-.16308-.09028-.247-.13172a4.616,4.616,0,0,1-2.15094-2.16833c-.042-.088-.09-.185-.14-.285-.126-.253-.25463-.51251-.3446-.71978l-.0025-.00519c-.02674-.06385-.04682-.13013-.0727-.19428a16.5086,16.5086,0,0,1-.72222-2.20276c-.05658-.20733-.12378-.42724-.18512-.64154-.05506-.19116-.1037-.37585-.166-.57245l-.03-.089a36.41946,36.41946,0,0,0-2.666-6.522,2.727,2.727,0,0,0-1.717-1.12c-.092-.028-.183-.055-.274-.084l-.011-.004-.007-.011c-.04071-.0697-.11914-.21076-.21167-.37818l-.18426-.33288c-.11981-.21747-.241-.43671-.34711-.62732l-.08392-.15064a50.965,50.965,0,0,1-36.288-.093l-.88391,1.60193h.00011v.00006l-.013.004a3.38917,3.38917,0,0,0-1.679.81494,15.66948,15.66948,0,0,0-2.201,4.722c-.261.766-.53,1.56-.84,2.338-.09229.29-.16608.56769-.24311.84711-.03485.12677-.07617.25934-.10986.38385a16.12191,16.12191,0,0,1-.783,2.378l-.01.02124c-.08447.19074-.201.42456-.31507.65186l-.04168.08331c-.04053.0813-.08167.16333-.11731.23761l-.003.014-.00006.00006v.00006a.05492.05492,0,0,1-.013.016,4.445,4.445,0,0,1-3.902,2.586,3.61013,3.61013,0,0,1-1.572-.356,4.21,4.21,0,0,1-1.69-5.636c.056-.114.117-.247.18-.384q.0624-.13367.12512-.26715c.06971-.14874.1383-.29217.20093-.41a16.46158,16.46158,0,0,1,1.378-2.113c.14734-.20117.29834-.41943.44873-.63208.0957-.13537.19061-.26068.28522-.40277v-.00012a38.25112,38.25112,0,0,0,3.559-6.396,3.88141,3.88141,0,0,0-.35-2.2l-.005-.013.006-.012.703-1.689a51.26489,51.26489,0,0,1-22.676-28.314l-1.69794.292-.00031-.00018-.00074.00012-.01-.006-.01019-.00586q-.08214-.04657-.16376-.09412a3.90883,3.90883,0,0,0-2.04486-.69234l-.02411-.00268a36.299,36.299,0,0,0-6.73205,1.973l-.05108.01831-.07.02563c-.406.155-.79.32-1.162.48a16.59848,16.59848,0,0,1-2.323.858c-.01654.00476-.03241.01129-.049.016-.2.054-.46.109-.71.162l-.07025.01477c-.0816.01709-.16357.03412-.23877.05121l-.03009.00933-.0019.00068a.32408.32408,0,0,1-.044.014l-.033.005-.026.004-.0069.00152a3.97919,3.97919,0,0,1-.70349.16048c-.01392.00183-.02729-.00037-.04114.00134a3.90039,3.90039,0,0,1-.40088.01288c-.13434.00293-.26983.01579-.40161.00537-.07745-.00629-.15125-.02789-.22791-.0387a3.96894,3.96894,0,0,1-.545-.10083l-.01923-.00732a2.89832,2.89832,0,0,1-1.20478-.62,3.94979,3.94979,0,0,1-.43524-.32782,4.00464,4.00464,0,0,1-.284-.34485,3.87747,3.87747,0,0,1-.32531-.39868,3.95956,3.95956,0,0,1-.421-.892l-.00318-.00714c-.00775-.02387-.00837-.048-.01562-.072a3.96235,3.96235,0,0,1-.15-.63147c-.00311-.02325.00049-.04553-.00219-.06873-.007-.0592-.00141-.11731-.00568-.1764a4.01449,4.01449,0,0,1-.0083-.61866c.00171-.01741.00739-.03443.00916-.05232Z"/><path class="cls-1" d="M116.66705,307.15517a12.61663,12.61663,0,0,1-1.42017-.07843,12.61744,12.61744,0,0,0,1.42022.07849l72.98-.016a12.60935,12.60935,0,0,0,2.80865-.31176,12.60929,12.60929,0,0,1-2.80865.3117Zm82.81006-4.7,45.492-56.592a12.30177,12.30177,0,0,0,.72492-1.01136,12.30081,12.30081,0,0,1-.72492,1.0113ZM230.9743,164.13174a12.4756,12.4756,0,0,0-6.62323-7.84851l-65.758-31.398,65.75806,31.399a12.47531,12.47531,0,0,1,6.62316,7.8475ZM81.93011,156.30019l65.749-31.415-65.75,31.415a12.49016,12.49016,0,0,0-6.802,8.46A12.49014,12.49014,0,0,1,81.93011,156.30019Z"/><path class="cls-1" d="M168.63214,229.572c.04626-.029.09253-.05755.14062-.08447m-1.48,1.66379a3.4755,3.4755,0,0,0-.20416.64868m.3562-.95929c.046-.08691.098-.1701.15137-.25293"/><path class="cls-1" d="M133.83007,344.28121q.045-.534.089-1.202.045-.71192.045-1.292,0-.74-.04523-1.43493a12.22969,12.22969,0,0,0-2.2511-6.81806,8.653,8.653,0,0,0-.59863-.697,10.176,10.176,0,0,0-5.80475-2.964q-.51143-.07791-1.03174-.10687a9.94357,9.94357,0,0,0-1.04553-.00208v-.00006a11.39882,11.39882,0,0,0-4.186.802,10.52036,10.52036,0,0,0-3.562,2.36,11.9267,11.9267,0,0,0-2.539,3.919q-.24647.6503-.429,1.31976a14.43877,14.43877,0,0,0-.40612,2.21454c-.01893.17065-.05011.33972-.06293.511-.0204.27247-.01691.54657-.02185.82026-.00336.18908-.0191.37744-.01509.56689-.00035.0412.0038.08228.0038.12347a15.696,15.696,0,0,0,.70922,4.686,11.31043,11.31043,0,0,0,2.271,3.874,11.12681,11.12681,0,0,0,3.72656,2.47266c.05.02026.097.04675.14747.06634a14.93949,14.93949,0,0,0,5.522.935,23.39641,23.39641,0,0,0,2.494-.134q1.24694-.13293,2.315-.356a15.57,15.57,0,0,0,2.004-.445q.36676-.1039.72363-.23791.35651-.13385.70136-.29712l-.89-5.388a14.30445,14.30445,0,0,1-2.895.846,20.1262,20.1262,0,0,1-3.562.312,7.695,7.695,0,0,1-4.543-1.203,4.40877,4.40877,0,0,1-.74353-.63587c-.0841-.0899-.14386-.19775-.21991-.294a4.41605,4.41605,0,0,1-.35919-.48029c-.04981-.08453-.0766-.18066-.12067-.26831a4.39513,4.39513,0,0,1-.27594-.61359c-.01866-.05768-.02031-.12072-.03662-.17926a4.37717,4.37717,0,0,1-.15918-.77868h.00019l-.00019-.001Zm-14.651-6.19a4.76584,4.76584,0,0,1,.846-1.47,3.72147,3.72147,0,0,1,1.336-.979,4.39915,4.39915,0,0,1,1.89307-.399c.00732.00018.01458-.0011.02191-.00092h.00006a4.07,4.07,0,0,1,1.915.4,3.73288,3.73288,0,0,1,1.291,1.024,3.67369,3.67369,0,0,1,.758,1.425,6.22193,6.22193,0,0,1,.311,1.648v.00006h-8.773a10.26784,10.26784,0,0,1,.401-1.64816Zm58.79854.297a18.00674,18.00674,0,0,0-.34045-1.98261c-.01392-.06122-.02344-.12329-.038-.18439a8.5894,8.5894,0,0,0-1.648-3.384v-.00006a7.27935,7.27935,0,0,0-3.161-2.182,12.98321,12.98321,0,0,0-2.346-.62042,13.31281,13.31281,0,0,0-2.42-.17853c-.05926.001-.11822-.00488-.17757-.003-.02728-.00012-.0545.00141-.08178.00141a34.10907,34.10907,0,0,0-5.52875.44458,34.69091,34.69091,0,0,0-4.365.89v22.622h6.636v-18.08q.623-.089,1.425-.133l.00525-.00031a13.73649,13.73649,0,0,1,1.50879-.08972,3.451,3.451,0,0,1,3.162,1.337,8.94558,8.94558,0,0,1,.84594,4.542v12.424h6.635v-13.226c.00006-.00739-.00049-.01484-.00043-.02222a17.98925,17.98925,0,0,0-.11105-2.17474Z"/><path class="cls-1" d="M168.02417,329.85622a13.3127,13.3127,0,0,1,2.42.17853A13.30734,13.30734,0,0,0,168.02417,329.85622Zm96.08494,16.073a1.64306,1.64306,0,0,1,.98,1.38,1.376,1.376,0,0,1-.757,1.381,6.6229,6.6229,0,0,1-1.92645.36358q-.32766.01247-.65662-.00762a17.90305,17.90305,0,0,1-3.518-.355,23.49642,23.49642,0,0,1-3.473-1.07l-1.113,5.389a21.15842,21.15842,0,0,0,2.85.89,21.46124,21.46124,0,0,0,5.20935.535,20.17135,20.17135,0,0,0,2.8587-.19494,10.422,10.422,0,0,0,4.48889-1.5871v.00012l.00006-.00006a5.94017,5.94017,0,0,0,2.62787-5.25409,8.48826,8.48826,0,0,0-.356-2.583,4.73713,4.73713,0,0,0-1.158-2.004,7.55436,7.55436,0,0,0-.94611-.87586c-.08753-.06866-.17786-.13318-.26837-.19788a7.54772,7.54772,0,0,0-1.01251-.61822,25.17532,25.17532,0,0,0-3.608-1.603c-.58764-.22064-1.07422-.416-1.50018-.59625-.09009-.03815-.1969-.08038-.27978-.1167-.04468-.0238-.07782-.04376-.12073-.067-.20532-.11115-.39185-.216-.55628-.31336-.14355-.08508-.28058-.168-.393-.24261a1.663,1.663,0,0,1-.502-.577c-.009-.01666-.0227-.03009-.03106-.04706a1.7921,1.7921,0,0,1-.134-.712q0-1.7369,3.117-1.737a13.37821,13.37821,0,0,1,3.028.312q.5442.12048,1.08081.27008.53677.14859,1.067.32043c.13.04187.2619.0774.39117.12152l1.158-5.166a17.91561,17.91561,0,0,0-3.118-.801,20.40431,20.40431,0,0,0-4.08484-.40045l-.0122-.00055q-.44862-.02555-.89539-.01324a10.65427,10.65427,0,0,0-5.82855,1.92828c-.13782.10547-.26318.2229-.39057.33832a6.25247,6.25247,0,0,0-2.05847,4.87164,7.666,7.666,0,0,0,.49,2.895,6.27209,6.27209,0,0,0,1.38,2.092,8.76593,8.76593,0,0,0,2.138,1.47q1.26984.61276,2.80084,1.18354c.01709.00634.03211.01312.04926.01947a17.1504,17.1504,0,0,1,2.98315,1.38ZM202.8076,333.63949a8.65875,8.65875,0,0,0-.67851-.80225,10.30657,10.30657,0,0,0-7.882-3.073c-.0896.00006-.17834.01068-.26784.01288a11.39336,11.39336,0,0,0-3.91821.78906,10.52086,10.52086,0,0,0-3.562,2.36,11.9216,11.9216,0,0,0-2.47131,3.77032c-.02081.05042-.04755.098-.06769.14875a14.44866,14.44866,0,0,0-.92755,5.152c.00018.09363-.00946.18671-.00744.2804-.00147.17773.01171.35468.01629.53217.00586.22961.00513.45959.02106.68847.01984.28467.05719.56732.09247.85028.015.1203.02154.24158.0393.36151.04.27015.09748.5373.15155.80506.02643.1308.04425.26312.074.39331.02075.0907.05041.17938.07281.26977.07538.30451.1518.60895.24549.90894.01166.03509.02832.06811.04034.10309a10.77492,10.77492,0,0,0,2.23065,3.77093,11.1301,11.1301,0,0,0,3.874,2.539,14.93761,14.93761,0,0,0,5.522.935q.62484-.00018,1.24878-.03369.62366-.03351,1.24522-.10034c.192-.02045.36983-.04816.55556-.07184.61778-.07886,1.212-.1698,1.76044-.28412a15.56828,15.56828,0,0,0,2.004-.445,9.1615,9.1615,0,0,0,1.424-.535l-.88995-5.388a14.30858,14.30858,0,0,1-2.895.846q-.88176.157-1.774.23523-.89145.07809-1.788.07678a7.69689,7.69689,0,0,1-4.543-1.203,3.724,3.724,0,0,1-.52722-.43762,5.36029,5.36029,0,0,1-.449-.51008,4.3867,4.3867,0,0,1-.93774-2.30236h.00018l-.00018-.001h15.051q.045-.53394.089-1.202h.001v-.00006c.00293-.04748.004-.08917.00659-.13574.02271-.39935.03528-.76874.0365-1.10394l.00092-.05164a14.22458,14.22458,0,0,0-1.697-7.37225,9.08842,9.08842,0,0,0-.51948-.776Zm-12.96851,6.09973a10.2535,10.2535,0,0,1,.4-1.648,4.76406,4.76406,0,0,1,.846-1.47,3.721,3.721,0,0,1,1.336-.979,4.23959,4.23959,0,0,1,1.915-.4h.00006a4.0691,4.0691,0,0,1,1.915.4,3.73326,3.73326,0,0,1,1.292,1.024,3.67337,3.67337,0,0,1,.757,1.425,6.213,6.213,0,0,1,.26867,1.29425c.01294.11816.0362.23492.04236.35382Zm-36.816-9.306a13.50451,13.50451,0,0,0-1.514-.267,13.16873,13.16873,0,0,0-1.514-.178,11.32042,11.32042,0,0,0-1.292-.089,23.64242,23.64242,0,0,0-5.433.578,37.29612,37.29612,0,0,0-4.186,1.158v22.176h6.636v-17.902a7.52228,7.52228,0,0,1,1.291-.222,10.47,10.47,0,0,1,1.514-.134,11.90027,11.90027,0,0,1,2.583.267q1.203.223,2.093.446l.05078-.24982,1.062-5.22723a6.1907,6.1907,0,0,0-1.29079-.35593Zm-45.712,6.67895a11.08033,11.08033,0,0,0-1.96-3.874,8.42783,8.42783,0,0,0-3.206-2.45,10.34709,10.34709,0,0,0-4.409-.89,11.90037,11.90037,0,0,0-2.583.267,12.43476,12.43476,0,0,0-2.315.757v-11.668l-6.636,1.07v32.73q.891.267,2.049.535,1.158.22193,2.405.4,1.29108.179,2.582.268.66805.06648,1.30274.0998t1.23627.0332a14.72767,14.72767,0,0,0,5.166-.846,10.70959,10.70959,0,0,0,3.83-2.494,10.47341,10.47341,0,0,0,2.36-3.874,15.1007,15.1007,0,0,0,.846-5.077A17.33591,17.33591,0,0,0,107.31108,337.1122Zm-7.482,9.75306a4.768,4.768,0,0,1-4.097,1.87q-.89,0-1.647-.045-.757-.088-1.247-.178v-12.068a5.7889,5.7889,0,0,1,1.603-.668,8.08338,8.08338,0,0,1,2.048-.267q4.72,0,4.72,6.412a8.13034,8.13034,0,0,1-1.38,4.944Zm-65.203,6.946h6.634v-10.242q.60607.49336,1.1643,1.0404.55757.5463,1.06372,1.14258a32.3698,32.3698,0,0,1,2.182,2.716c.197.26569.3822.53528.57184.80347q.39972.56516.77771,1.13757c.19.28784.38373.5744.56543.865q.93466,1.37943,1.6474,2.537l7.61359-.00006q-.758-1.47006-1.87-3.25-1.11391-1.78207-2.44995-3.563t-2.76105-3.429a29.18307,29.18307,0,0,0-2.761-2.895q2.672-2.627,4.899-5.077,2.27059-2.49252,4.63018-5.209H48.65409q-.624.756-1.514,1.78-.847,1.02494-1.826,2.183-.98,1.113-2.049,2.27-1.024,1.159-2.004,2.227V338.848l-.001.00116V319.25536l-6.634,1.06983Zm187.809-5.254h.00008c-.044.00714-.08838.0094-.13239.01612a13.802,13.802,0,0,1-2.04968.16192,3.85392,3.85392,0,0,1-2.5127-.70148,2.16872,2.16872,0,0,1-.47027-.54553,6.72421,6.72421,0,0,1-.713-3.34v-8.239h7.972v-5.522h-7.972v-6.902l-6.635,1.069v19.683c-.00067.07727.01.154.01015.2312a19.80235,19.80235,0,0,0,.39079,3.90979,8.031,8.031,0,0,0,1.514,3.207,7.34538,7.34538,0,0,0,2.85,2.048,12.20828,12.20828,0,0,0,4.498.713,15.56137,15.56137,0,0,0,3.607-.357,18.87343,18.87343,0,0,0,2.672-.846l-.936-5.165a12.53168,12.53168,0,0,1-2.093.579Zm20.96338-18.10254a10.30532,10.30532,0,0,0-4.2713-.69043c-.09394.00013-.187.01111-.28077.01349a11.39037,11.39037,0,0,0-3.90527.78845,10.52043,10.52043,0,0,0-3.562,2.36,11.91917,11.91917,0,0,0-2.44062,3.705c-.03039.07238-.06836.14105-.09735.21411-.1131.29815-.21234.6004-.30139.90539s-.168.61273-.2406.92194c-.06586.2807-.13849.56-.18744.844-.01733.10065-.02222.20319-.03748.30414-.05351.35535-.1051.71106-.132,1.06976-.02118.28254-.01831.56678-.02283.85053-.00287.17908-.01818.35736-.01434.53668-.00146.17774.0117.35468.0163.53217.00586.22961.00512.45959.02105.68847.01978.28467.05719.56732.09247.85028.015.1203.02155.24158.03931.36151.04.27015.09747.5373.15155.80506.02643.1308.04426.26312.074.39331.02076.0907.05042.17938.07282.26977.07536.30451.15179.60895.24548.90894q.13413.40394.29914.79517.16488.39093.3598.76721a10.775,10.775,0,0,0,1.61206,2.31164,11.88444,11.88444,0,0,0,3.874,2.539c.14093.05242.2865.08886.42877.137a15.337,15.337,0,0,0,2.29816.57727c.11487.01984.22931.041.34467.05817a14.55476,14.55476,0,0,0,2.45037.16259q.62487-.00014,1.24878-.03369.62364-.03347,1.24524-.10034c.20423-.02179.3938-.051.59088-.07642.60474-.078,1.18714-.16742,1.7251-.27954q.50782-.07809,1.00934-.18945.50123-.11124.99463-.25555c.02716-.00769.05328-.0185.08038-.02643a9.16865,9.16865,0,0,0,1.34363-.50855l-.88989-5.38775a14.29849,14.29849,0,0,1-2.89411.8457,20.105,20.105,0,0,1-2.23187.25488c-.44324.02869-.8866.05786-1.33111.05719a7.69626,7.69626,0,0,1-4.542-1.203c-.11932-.08106-.215-.1864-.32476-.27777a4.40073,4.40073,0,0,1-.99787-1.13245c-.03668-.06232-.0553-.13373-.08893-.19775a4.39047,4.39047,0,0,1-.50348-1.64209h.00025l-.00018-.001H249.77q.04458-.52834.089-1.1886l.001-.01343c.00293-.04748.004-.08917.00659-.13574.01485-.2619.02392-.50659.03-.74225.00368-.14135.00738-.28289.00738-.41333q0-5.92281-2.894-8.95062a10.30546,10.30546,0,0,0-3.61159-2.3826Zm-8.67932,9.28461v-.00006a10.26805,10.26805,0,0,1,.4-1.648,4.76839,4.76839,0,0,1,.847-1.47,3.721,3.721,0,0,1,1.336-.979,4.23914,4.23914,0,0,1,1.915-.4,4.07046,4.07046,0,0,1,1.914.4,3.733,3.733,0,0,1,1.292,1.024,3.67438,3.67438,0,0,1,.757,1.425,6.21441,6.21441,0,0,1,.28515,1.42492c.00665.07471.023.1482.02686.22321Zm-161.424,8.72791v.00006l-.07422.00988c-.3985.05658-.84582.113-1.35077.16907q-.802.044-1.514.044a3.366,3.366,0,0,1-3.162-1.425,9.48986,9.48986,0,0,1-.846-4.631v-12.247h-6.635v13.048c-.00067.07422.00439.1482.00464.22241a18.56082,18.56082,0,0,0,.48535,4.18665,8.96568,8.96568,0,0,0,1.43115,3.16144c.07324.10339.13819.2121.21588.3125.06513.0777.14093.14447.20893.21936a7.642,7.642,0,0,0,2.90905,2.00671,13.50255,13.50255,0,0,0,3.71637.77863q.63338.04147,1.27063.02331a34.11137,34.11137,0,0,0,5.611-.446,34.66736,34.66736,0,0,0,4.364-.89v-22.623h-6.635Z"/><path class="cls-1" d="M198.61108,339.73916l-8.772.00006h8.772c-.00616-.1189-.02942-.23566-.04236-.35382C198.58166,339.50356,198.605,339.62032,198.61108,339.73916ZM127.551,339.739h0Zm-4.27494-4.4968c-.00733-.00018-.01459.0011-.02191.00091.00737.00019.01458-.00109.022-.00091Zm-1.08206.11536a4.24518,4.24518,0,0,1,1.06012-.11445A4.24233,4.24233,0,0,0,122.194,335.35757Zm121.29805,4.38159-8.773.00006v.00006h8.773c-.00391-.075-.02021-.1485-.02686-.22321C243.47184,339.59078,243.48812,339.66421,243.49205,339.73916Zm-150.654,8.77307q.49009.09,1.247.178Q93.32806,348.60133,92.83805,348.51223Zm2.89405.222q-.89008,0-1.647-.044.757.045,1.647.045a4.768,4.768,0,0,0,4.097-1.87,8.13041,8.13041,0,0,0,1.38-4.944,8.13022,8.13022,0,0,1-1.38,4.943A4.768,4.768,0,0,1,95.7321,348.73421ZM41.261,338.848V319.255H41.26v19.594Zm187.67747-2.21688c-.03039.07238-.06836.141-.09735.214-.1131.29816-.21234.60047-.30139.90546.089-.305.18829-.60724.30139-.90539.029-.073.067-.1417.09735-.21409ZM47.00409,340.67422a29.18512,29.18512,0,0,1,2.761,2.89495q1.425,1.64805,2.761,3.429t2.45,3.563q1.112,1.78,1.87,3.25l-7.61359.00006.00061.001h7.615q-.757-1.47-1.87-3.25t-2.45-3.563l-.001-.001q-1.336-1.781-2.761-3.43a29.18821,29.18821,0,0,0-2.761-2.894q2.67206-2.627,4.89905-5.076,2.27-2.494,4.62994-5.21h-.00079q-2.35959,2.71654-4.63019,5.209-2.227,2.45-4.899,5.077Zm194.172,8.061c.44452.00067.88788-.0285,1.33112-.05719-.44324.02869-.88654.05786-1.33112.05713a7.69588,7.69588,0,0,1-4.542-1.203c-.11932-.081-.215-.18634-.32476-.27771.1098.09137.20544.19671.32476.27777a7.69626,7.69626,0,0,0,4.542,1.203Zm-6.457-4.454.00019.001H249.771q.0436-.52937.08807-1.18958-.04461.6595-.089,1.1886Zm-193.459,9.53h-6.634v.001h6.635v-10.242q.60552.493,1.16327,1.03943-.55756-.54635-1.1643-1.0404Zm197.867-24.047v-.00006c-.09387.00012-.18695.01111-.2807.01355.09375-.00238.18683-.01336.28076-.01349Zm8.05237,23.70954a9.17523,9.17523,0,0,0,1.34466-.50861l-.89-5.388-.00092.00031.88989,5.38775A9.16579,9.16579,0,0,1,247.17944,353.47378Zm-13.85144-.66889a11.10448,11.10448,0,0,0,1.43506.69532c.14093.05242.28656.08886.42883.137-.14227-.0481-.28784-.08454-.42877-.137A11.10978,11.10978,0,0,1,233.328,352.80489Zm-65.56317-22.95031a34.10791,34.10791,0,0,0-5.52869.4436,34.69555,34.69555,0,0,0-4.365.891,34.69039,34.69039,0,0,1,4.365-.89,34.11278,34.11278,0,0,1,5.52869-.44462Zm.08227-.00141h-.00049c.05933-.00183.11829.00409.17757.003-.05917.0011-.11792-.00482-.17706-.003Zm37.177,11.93506v-.00037l-.00091.05164Zm-4.809,12.157c-.54846.11432-1.14264.20526-1.76043.28412C199.07281,354.15053,199.66705,354.05953,200.21508,353.94521Zm-35.708-18.214v18.08h.00006v-18.08q.62294-.089,1.425-.133l.00518-.00031-.00525.00031Q165.1301,335.64217,164.50709,335.73122Zm-13.399.089q1.202.223,2.093.446l.05078-.24988-.05078.24982Q152.311,336.04329,151.1081,335.82021Zm-19.22638,17.44208q.35652-.13384.70142-.29712l-.89-5.388.89,5.388Q132.23858,353.12833,131.88172,353.26229Zm-18.10638-3.86621a10.765,10.765,0,0,0,1.17279,1.56512,11.1238,11.1238,0,0,0,3.72753,2.47266,11.12676,11.12676,0,0,1-3.72656-2.47266A10.76813,10.76813,0,0,1,113.77534,349.39608Zm33.23578-13.70886a10.47848,10.47848,0,0,1,1.514-.134,11.90027,11.90027,0,0,1,2.583.267,11.90027,11.90027,0,0,0-2.583-.267A10.47,10.47,0,0,0,147.01112,335.68722Zm1.692-5.788a11.32041,11.32041,0,0,1,1.292.089,13.16873,13.16873,0,0,1,1.514.178,13.50468,13.50468,0,0,1,1.514.267,6.19062,6.19062,0,0,1,1.29077.3559l.00018-.00092a6.18164,6.18164,0,0,0-1.291-.356,13.50678,13.50678,0,0,0-1.514-.267v-.00006a13.16873,13.16873,0,0,0-1.514-.178,11.3347,11.3347,0,0,0-1.292-.09,23.64334,23.64334,0,0,0-5.433.58,37.29982,37.29982,0,0,0-4.186,1.157v.001a37.29824,37.29824,0,0,1,4.186-1.158,23.64337,23.64337,0,0,1,5.433-.57791Zm-14.73908,11.88794q0,.58008-.045,1.292-.04394.66807-.089,1.202h-15.052l.00019.001h15.05181q.045-.535.09-1.203.04395-.7119.044-1.291,0-.74066-.04529-1.436Q133.964,341.04717,133.96406,341.78719Zm70.926,2.494h-15.051l.00018.001h15.05079q.045-.535.09-1.20294h-.001Q204.93512,343.7472,204.89009,344.28121Zm17.41266,4.29212a13.80152,13.80152,0,0,1-2.04963.16186,3.85423,3.85423,0,0,1-2.51275-.70142,3.85389,3.85389,0,0,0,2.51269.70148A13.80227,13.80227,0,0,0,222.30275,348.57333Zm-28.94068-.25867a7.69846,7.69846,0,0,1-1.60895-.78247,3.72359,3.72359,0,0,1-.52722-.43756,3.724,3.724,0,0,0,.52722.43762A7.69527,7.69527,0,0,0,193.36207,348.31466Zm4.72194.34381q-.89145.07809-1.788.07672a7.687,7.687,0,0,1-1.19587-.03155,7.69443,7.69443,0,0,0,1.19587.03161Q197.19175,348.73663,198.084,348.65847Zm11.84825-4.19006a19.79282,19.79282,0,0,0,.38983,3.90979,8.03054,8.03054,0,0,0,1.515,3.207,8.03084,8.03084,0,0,1-1.514-3.207A19.80013,19.80013,0,0,1,209.93226,344.46841Zm7.80811,3.56536a2.16935,2.16935,0,0,1-.47028-.54559,6.71749,6.71749,0,0,1-.46881-1.20605,6.71748,6.71748,0,0,0,.46881,1.20611A2.16855,2.16855,0,0,0,217.74037,348.03377ZM224.529,330.387v0h0Zm-41.50392,11.8912c-.00146.17755.01178.35431.0163.53162-.00458-.17749-.01776-.35443-.0163-.53217Zm19.728,5.299.88995,5.388a9.16154,9.16154,0,0,1-1.424.535,9.16683,9.16683,0,0,0,1.425-.535l-.891-5.388a14.30445,14.30445,0,0,1-2.895.846q-.88174.15711-1.774.23529.89133-.07809,1.774-.23523A14.30717,14.30717,0,0,0,202.75311,347.57723Zm-8.506-17.813.00006-.00006c-.0896.00012-.17835.01074-.26784.01294.08948-.0022.17822-.01282.26784-.01288Zm-10.46863,17.426a10.773,10.773,0,0,0,2.22967,3.77093,11.13145,11.13145,0,0,0,3.875,2.539,11.13032,11.13032,0,0,1-3.874-2.539,10.77467,10.77467,0,0,1-2.23067-3.77093Zm.24933-10.49378c-.02082.05042-.04755.098-.06769.14869a14.44685,14.44685,0,0,0-.92755,5.1521,14.44846,14.44846,0,0,1,.92755-5.152C183.98022,336.79446,184.007,336.74691,184.02777,336.69649ZM271.68,347.39919a5.94638,5.94638,0,0,1-.00909.77423,5.94719,5.94719,0,0,0,.00922-.77417,8.48882,8.48882,0,0,0-.356-2.583,4.73607,4.73607,0,0,0-1.158-2.004l-.00006-.00006-.00006-.00006a4.73725,4.73725,0,0,1,1.158,2.004A8.48912,8.48912,0,0,1,271.68,347.39919Zm-15.54194-5.52295a6.27212,6.27212,0,0,1-1.38-2.092,7.666,7.666,0,0,1-.49-2.895,6.25243,6.25243,0,0,1,2.05847-4.87164,6.25241,6.25241,0,0,0-2.05943,4.87164,7.66756,7.66756,0,0,0,.49,2.895,6.26976,6.26976,0,0,0,1.381,2.093,8.77019,8.77019,0,0,0,2.138,1.47q1.26966.61272,2.80079,1.1825-1.52884-.57107-2.80085-1.18354a8.7664,8.7664,0,0,1-2.138-1.47Zm8.42509,12.36408a10.419,10.419,0,0,0,4.48889-1.587v-.00012A10.42205,10.42205,0,0,1,264.56315,354.24032Zm-1.10992-24.47553-.01215-.00055q-.44869-.02554-.89545-.01324.44641-.01218.89539.01324Zm.47775,5.34339q-3.117,0-3.117,1.737a1.79192,1.79192,0,0,0,.134.712c.00836.017.02209.0304.03107.04706-.00892-.01666-.02265-.03009-.031-.04706a1.79087,1.79087,0,0,1-.134-.712q0-1.737,3.117-1.737a13.37824,13.37824,0,0,1,3.028.312q.54418.12048,1.08075.27-.53687-.14859-1.08081-.27008A13.3777,13.3777,0,0,0,263.931,335.10818Zm4.008,6.012a7.54675,7.54675,0,0,1,1.01251.61823,7.55711,7.55711,0,0,0-1.01245-.61823,25.17837,25.17837,0,0,0-3.607-1.603c-.58825-.22064-1.07513-.41607-1.50122-.59631.426.18024.91254.37561,1.50018.59625A25.17528,25.17528,0,0,1,267.939,341.1202Zm-18.03489.668v-.00037c0,.13044-.00372.272-.00738.41333C249.90039,342.0599,249.90409,341.91848,249.90409,341.78823Zm-21.999.49c-.00146.17755.01178.35431.0163.53162-.00458-.17749-.01776-.35443-.0163-.53217Zm17.19,11.667c-.538.11212-1.12036.20154-1.72509.27954C243.975,354.14675,244.55748,354.05733,245.09507,353.94521Zm-133.13-11.667c-.00036.04108.00379.08185.00379.12292,0-.04119-.00415-.08227-.00379-.12347Zm-16.812-12.113a12.43019,12.43019,0,0,0-2.315.757v.00006A12.43505,12.43505,0,0,1,95.15306,330.16518ZM62.059,351.53756a7.63988,7.63988,0,0,0,2.90808,2.00665,13.50262,13.50262,0,0,0,3.71734.77869,13.50255,13.50255,0,0,1-3.71637-.77863A7.642,7.642,0,0,1,62.059,351.53756Zm40.08608-20.74933a8.42783,8.42783,0,0,1,3.206,2.45,11.08029,11.08029,0,0,1,1.96,3.874,11.08014,11.08014,0,0,0-1.96-3.875,8.4279,8.4279,0,0,0-3.206-2.449,10.34693,10.34693,0,0,0-4.409-.89,11.89974,11.89974,0,0,0-2.583.267,11.89974,11.89974,0,0,1,2.583-.267A10.34693,10.34693,0,0,1,102.14508,330.78823Zm5.834,11.311a14.45054,14.45054,0,0,1-.417,3.61823,14.44549,14.44549,0,0,0,.41706-3.61823,17.33386,17.33386,0,0,0-.668-4.987A17.33519,17.33519,0,0,1,107.97905,342.0992Zm145.666,10.911,1.113-5.389-1.114,5.389a21.15932,21.15932,0,0,0,2.85.89,21.46347,21.46347,0,0,0,5.21.535h.00031a21.46124,21.46124,0,0,1-5.20935-.535A21.15833,21.15833,0,0,1,253.64506,353.01021Zm8.104-3.964q.32859.02013.65662.00762-.32766.01247-.65655-.00762a17.9036,17.9036,0,0,1-3.518-.356,23.49207,23.49207,0,0,1-3.473-1.069,23.49646,23.49646,0,0,0,3.473,1.07,17.90244,17.90244,0,0,0,3.51794.355ZM59.71771,343.65761a18.56314,18.56314,0,0,0,.48535,4.18763,8.96551,8.96551,0,0,0,1.43115,3.16046,8.9655,8.9655,0,0,1-1.43115-3.16144A18.56025,18.56025,0,0,1,59.71771,343.65761Zm13.57739,4.80958-.07422.00994.07422-.00988ZM269.498,336.132l1.158-5.166ZM181.90979,449.70724a5.16042,5.16042,0,0,0,3.46093-.9961,3.30833,3.30833,0,0,0,1.14746-2.626,3.59587,3.59587,0,0,0-1.13769-2.5254,14.57964,14.57964,0,0,0-3.69238-2.50488q-4.28469,1.97163-4.28516,4.99024a3.26042,3.26042,0,0,0,1.207,2.69629A5.14213,5.14213,0,0,0,181.90979,449.70724Zm.08105-13.96485a7.85463,7.85463,0,0,0,2.75586-1.8916,3.43787,3.43787,0,0,0,.78516-2.2334A2.66081,2.66081,0,0,0,184.526,429.424a3.99782,3.99782,0,0,0-2.57619-.80468,3.87167,3.87167,0,0,0-2.56541.81445,2.701,2.701,0,0,0-.97559,2.18359,3.34223,3.34223,0,0,0,.77441,2.16309A8.51035,8.51035,0,0,0,181.99084,435.74239Z"/><path class="cls-1" d="M187.30121,429.64352a4.18932,4.18932,0,0,0-1.42871-1.626,3.95064,3.95064,0,0,0-2.21973-.59375,3.74963,3.74963,0,0,0-1.8457.43945,3.70856,3.70856,0,0,0-1.27442,1.14356,5.2706,5.2706,0,0,0-.72558,1.53808,5.83322,5.83322,0,0,0-.24121,1.626,4.732,4.732,0,0,0,1.16406,3.51562,5.28677,5.28677,0,0,0,3.80176,1.14258,11.90882,11.90882,0,0,0,2.10937-.19726,4.42025,4.42025,0,0,0,1.627-.54981v-.39551a2.84221,2.84221,0,0,1,.02148-.35156,2.51658,2.51658,0,0,0,.02246-.30762,23.38626,23.38626,0,0,0-.26367-2.96679A8.10511,8.10511,0,0,0,187.30121,429.64352Z"/><path class="cls-1" d="M9.5509,405.9772v32.921a34.255,34.255,0,0,0,34.254,34.256h218.1a34.255,34.255,0,0,0,34.255-34.255v-32.922Zm119.25421,47.20148h-6.54882V431.248a19.95929,19.95929,0,0,1-2.94434,1.60351q-1.6267.72657-3.16455,1.25293l-1.97754-5.05371q1.27368-.52734,2.65869-1.209,1.38428-.68117,2.70313-1.49414,1.31835-.813,2.52685-1.71387a17.38822,17.38822,0,0,0,2.17578-1.91211h4.5708Zm15.4917-.46191a4.4053,4.4053,0,0,1-5.66943,0,4.24264,4.24264,0,0,1,0-6.02051,4.4053,4.4053,0,0,1,5.66943,0,4.24379,4.24379,0,0,1,0,6.02051Zm20.28272.46191H158.0307V431.248a19.98424,19.98424,0,0,1-2.94434,1.60351q-1.62744.72657-3.165,1.25293l-1.97754-5.05371q1.27368-.52734,2.65869-1.209,1.38427-.68117,2.70361-1.49414,1.31837-.813,2.52735-1.71387a17.4133,17.4133,0,0,0,2.1748-1.91211h4.57129Zm29.2041-10.06445a13.53225,13.53225,0,0,1-3.47266,5.53808,15.25135,15.25135,0,0,1-5.999,3.40528,29.424,29.424,0,0,1-8.6582,1.209q-.04395-1.40625-.13184-2.72461t-.17578-2.72558a31.62592,31.62592,0,0,0,4.52734-.373,12.39219,12.39219,0,0,0,3.55957-1.09863,8.155,8.155,0,0,0,2.61524-2.04395,9.27339,9.27339,0,0,0,1.69238-3.208,7.94345,7.94345,0,0,1-2.04394.63672,11.283,11.283,0,0,1-1.91211.19824,15.33366,15.33366,0,0,1-4.87793-.68164,8.66531,8.66531,0,0,1-3.31836-1.93359,7.617,7.617,0,0,1-1.91211-3.01074,11.83637,11.83637,0,0,1-.02149-7.47071,9.87423,9.87423,0,0,1,1.86719-3.3623,10.13042,10.13042,0,0,1,3.23047-2.50586,10.3743,10.3743,0,0,1,4.72461-.98828q5.67041,0,8.54883,3.49414,2.877,3.49365,2.87793,10.042A23.59945,23.59945,0,0,1,193.78363,443.11423Z"/></svg>