<svg id="Layer_1" data-name="Layer 1" xmlns="http://www.w3.org/2000/svg" viewBox="0 0 650.26135 322.23603"><defs><style>.cls-1{fill:#458afe;}.cls-2{fill:#f97306;}.cls-3{fill:#333;}</style></defs><path class="cls-1" d="M253.64105,168.48432c.01038-1.77838-.57654-2.25074-2.27154-2.20557-4.08118.10767-8.17261-.03821-12.25379.06946a2.03572,2.03572,0,0,1-2.44861-1.9624A78.74087,78.74087,0,0,0,233.291,151.6944c-.54187-1.50739-.17713-2.17426,1.11145-2.88977,3.65741-2.02844,7.21051-4.24091,10.88879-6.2276,1.45874-.79193,1.49-1.46924.712-2.803-5.87335-10.03778-11.72924-20.08258-17.44976-30.20721-1.05591-1.87555-1.754-1.63593-3.15381-.50708-2.94184,2.36877-6.106,4.45965-8.98883,6.89447-1.63245,1.37542-2.61536,1.11145-4.036-.27094-3.14673-3.053-6.55756-5.84552-9.70087-8.90546-1.5907-1.54217-2.41046-1.70892-3.85535.29523-5.0119,6.957-10.24963,13.74726-15.404,20.60352-3.23016,4.29645-3.21979,4.28955.76062,7.64819a18.01034,18.01034,0,0,1,1.93115,1.95545c14.0564,16.31408,20.19367,35.14282,17.96735,56.61816-3.81714,36.78906-35.24353,65.5097-72.36261,65.48889-26.26147-.01739-47.459-10.993-61.835-32.9754-15.0116-22.94806-17.00183-47.3653-4.39026-72.3,3.86231-7.64124,10.03088-13.6153,15.19568-20.31183.80926-1.04547,1.35113-1.73663.31256-3.10162q-9.98739-13.18122-19.756-26.52552c-1.11847-1.52478-1.62555-1.23651-2.59455.0625-2.55633,3.43854-5.31414,6.73127-7.82531,10.20453-1.0802,1.50049-1.91388,1.5838-3.43512.63562-3.62952-2.27154-7.40851-4.3034-11.059-6.53326-1.23651-.75714-1.85468-.67731-2.59809.63214q-8.82036,15.40055-17.7727,30.72815c-.71558,1.233-.65308,1.86517.68072,2.5946,3.66779,2.00409,7.221,4.22,10.8888,6.2276,1.42053.77454,1.75738,1.53174,1.19476,3.11206a73.61615,73.61615,0,0,0-3.28577,12.39966c-.26043,1.54212-.94812,2.18122-2.63275,2.12567-3.97686-.132-7.96777.04169-11.94464-.07989-1.806-.0556-2.466.36816-2.45209,2.341q.14576,17.3074.0069,34.62177c-.01727,1.97632.64954,2.4,2.46607,2.341,3.97692-.12158,7.96429.05206,11.94464-.07641,1.67413-.05561,2.36883.54876,2.63623,2.11523A70.91284,70.91284,0,0,0,28.76282,220.021c.62866,1.70886,0,2.29236-1.34076,3.02869-3.574,1.9624-7.04029,4.1228-10.61438,6.08868-1.37189.75024-1.61505,1.36847-.778,2.79254q8.89344,15.18174,17.60614,30.46771c.80927,1.41364,1.44495,1.59424,2.81684.75714,3.57061-2.17425,7.26617-4.14361,10.83667-6.32135,1.29559-.78845,2.02844-.70507,3.0252.49317a67.86461,67.86461,0,0,0,9.08612,9.08618c1.50751,1.226,1.29212,2.18121.43769,3.58789-2.06311,3.40381-3.9317,6.91876-6.01569,10.30524-.92389,1.50049-.6496,2.209.844,3.05652q15.15051,8.63286,30.20019,17.44287c1.63245.96209,2.24036.46539,3.01135-.92737,1.98334-3.56708,4.12635-7.04389,6.09919-10.6109.72937-1.31641,1.43444-1.62555,2.91754-1.10456a71.95473,71.95473,0,0,0,12.69836,3.34131c1.63934.25354,1.86511,1.12537,1.84436,2.52857-.06958,3.98388.08332,7.97119-.06958,11.9516-.07641,2.00757.50373,2.62579,2.54248,2.58062,5.71363-.13195,11.4375-.04858,17.15467-.0451,5.61621.00348,11.236-.08337,16.85235.05206,2.0874.04865,2.87238-.44458,2.76819-2.67444-.17712-3.97338.00354-7.96771-.07642-11.94812-.03125-1.47613.36475-2.21246,1.93464-2.459a67.20517,67.20517,0,0,0,12.39971-3.26142c1.83735-.66339,2.54242-.066,3.34119,1.372,1.9278,3.48023,4.036,6.85627,5.929,10.35382.82666,1.52826,1.53869,1.695,3.053.81281q15.0412-8.82569,30.2038-17.44635c1.61157-.91693,1.54913-1.70191.712-3.08777-2.06311-3.39685-3.9386-6.91534-6.01923-10.29828-.91339-1.48315-.88562-2.38965.54889-3.57056a61.847,61.847,0,0,0,8.85681-8.87774c1.20868-1.50739,2.0979-1.33026,3.522-.4585,3.39,2.07361,6.91181,3.94568,10.3053,6.00879,1.38226.84058,2.14288.917,3.0564-.69464q8.61208-15.16086,17.44287-30.20721c.86493-1.47614.78149-2.21943-.75714-3.06342-3.66779-2.00409-7.22443-4.21313-10.88184-6.238-1.21564-.67035-1.45532-1.31292-.99335-2.65014a77.05375,77.05375,0,0,0,3.28919-12.39618c.27789-1.688.97949-2.3653,2.82031-2.28888,3.97687.16327,7.96778-.01734,11.94464.07989,1.64984.04169,2.334-.32306,2.32013-2.16736Q253.5229,185.95322,253.64105,168.48432Z"/><path class="cls-2" d="M135.09959,145.302c2.19159,3.24054,3.9885,6.80892,6.69766,9.6744,7.5683-10.50665,18.72765-26.105,26.32024-36.59441.81269-1.12182.64948-2.31665.653-3.52191.01037-20.93.059-41.86353-.06256-62.7901-.0174-2.72656.68774-3.59485,3.39-3.35175a79.046,79.046,0,0,0,8.26642.04169c.76752-.01044,1.79919.41675,2.25763-.36816.47931-.82318-.43414-1.47266-.87872-2.0979q-8.70594-12.212-17.45673-24.39289c-1.36853-1.90338-2.78223-3.78247-4.08807-5.73095-.8927-1.33722-1.5318-1.29206-2.45563.00348-7.56488,10.63867-15.16791,21.24267-23.28852,32.60376,4.16449,0,7.66559.22235,11.125-.06946,3.02875-.257,3.68866.77112,3.66431,3.69562-.14935,17.45672-.1076,34.91351-.04169,52.37719a8.47656,8.47656,0,0,1-1.74353,5.33844c-4.52221,6.17206-14.06983,19.82524-18.4983,26.06669"/><path class="cls-2" d="M118.614,150.49817q-.12807.17889-.256.35791c-5.73169,8.00525-11.44122,16.02631-17.218,23.99683a5.36481,5.36481,0,0,0-1.0177,3.39691c.02082,14.7962.05909,29.58893-.02777,44.38513-.014,2.18128.64594,2.77515,2.76123,2.70917q7.18972-.224,14.38288-.01038c2.04583.059,2.56677-.6391,2.54943-2.605-.08331-11.32641-.01043-22.64935-.07293-33.97571a7.41456,7.41456,0,0,1,1.47272-4.80706c3.59375-4.75672,7.09521-9.58265,10.62646-14.38794q.12954-.17625.25873-.35273Q125.34177,159.85349,118.614,150.49817Z"/><path class="cls-1" d="M143.05017,185.038a5.30162,5.30162,0,0,1,.69812,3.49762c.0105,11.32293.07642,22.64935-.05554,33.96533-.02777,2.334.639,2.921,2.90015,2.8446,4.8905-.17712,9.78784-.10418,14.6817-.02081,1.54211.02429,2.1325-.36127,2.12561-2.02844q-.08341-22.79865-.00348-45.59387a5.41527,5.41527,0,0,0-1.33722-3.29615l-46.5351-65.12079a5.38249,5.38249,0,0,1-1.21569-3.33776c.05206-8.47486.08679-16.94623-.0174-25.421-.02423-1.92078.56616-2.43824,2.42438-2.37574,3.84143.13544,7.69684.04169,11.42016.04169.51758-.96906-.09033-1.40668-.40979-1.85474q-10.8263-15.20782-21.69079-30.39477c-.85095-1.19483-1.45184-2.23682-2.7995-.32648C95.88635,56.0365,88.45355,66.40076,81.05542,76.786a1.05159,1.05159,0,0,0-.10071,1.40668c3.44556,0,7.09247.18756,10.70807-.0625,2.66065-.18414,3.15381.77454,3.126,3.24054-.14246,11.02075,0,22.045-.11469,33.06921a8.88077,8.88077,0,0,0,1.86176,5.60242"/><path class="cls-1" d="M118.614,150.49817q6.73133,9.35706,13.459,18.70715"/><path class="cls-3" d="M299.28062,137.60721c1.00931,0,1.70128.54764,2.56625,1.98994,1.84561,3.48854,5.13351,5.30548,9.834,5.30548,5.76715,0,9.401-2.73924,9.401-7.12243,0-3.66255-2.1916-5.88281-7.18078-7.2381l-6.34447-1.731c-6.20014-1.70128-9.28537-5.07517-9.28537-10.20869,0-6.63211,5.27683-11.044,13.14958-11.044a15.05526,15.05526,0,0,1,9.63238,3.08523,8.02647,8.02647,0,0,1,3.2009,5.79682,1.71961,1.71961,0,0,1-1.78829,1.87427,1.89463,1.89463,0,0,1-1.98994-1.44229c-1.09529-3.4609-4.58485-5.6525-8.968-5.6525-5.4795,0-8.99773,2.79759-8.99773,7.12346,0,3.28688,2.01861,5.4795,6.17148,6.60345l6.20014,1.731c7.2381,1.98892,10.29467,5.16115,10.29467,10.66932,0,6.92077-5.33415,11.24664-13.75557,11.24664-4.29618,0-8.07441-1.15363-10.46766-3.2009-2.1916-1.84561-3.48956-3.97988-3.48956-5.7958A1.8219,1.8219,0,0,1,299.28062,137.60721Z"/><path class="cls-3" d="M332.70324,130.42643c0-8.07441,5.0465-13.35226,12.2846-13.35226,7.03645,0,11.997,5.13352,11.997,12.91926,0,2.76893-.519,3.60523-2.30726,3.60523H336.71178v1.644c0,5.91147,3.40255,9.4297,8.88205,9.4297a8.80732,8.80732,0,0,0,6.71912-2.88358c1.298-1.298,1.6153-1.49962,2.30727-1.49962a1.66561,1.66561,0,0,1,1.61427,1.7586,4.972,4.972,0,0,1-1.61427,3.05657c-1.817,1.93262-5.27785,3.14357-9.19938,3.14357-7.90142,0-12.7176-4.95949-12.7176-13.23658Zm20.273-.28867v-.086c0-5.82549-3.11491-9.45938-7.98843-9.45938-4.93083,0-8.27606,3.74956-8.27606,9.45938v.086Z"/><path class="cls-3" d="M368.28878,148.01755a1.968,1.968,0,0,1-2.0186-2.22129V119.52577a1.98159,1.98159,0,0,1,2.0186-2.22026,1.95545,1.95545,0,0,1,1.96026,2.22026V121.573h.11567a7.71746,7.71746,0,0,1,7.12243-4.49886,4.07671,4.07671,0,0,1,2.04829.433,1.58536,1.58536,0,0,1,.92229,1.49962,1.50558,1.50558,0,0,1-.92229,1.55694,5.04724,5.04724,0,0,1-2.077.28867c-4.49887,0-7.20944,2.56624-7.20944,8.01708v16.92678C370.249,147.18124,369.5284,148.01755,368.28878,148.01755Z"/><path class="cls-3" d="M386.63022,120.88106a4.26123,4.26123,0,0,1-.31733-1.52828,1.95825,1.95825,0,0,1,1.96128-1.93262c1.09631,0,1.72994.606,2.1916,2.04829l7.69976,24.1659h.173l8.10308-24.1659c.49032-1.471,1.125-2.04829,2.16293-2.04829a1.88419,1.88419,0,0,1,1.87427,1.93262,4.235,4.235,0,0,1-.346,1.52828l-8.47772,23.3296c-1.125,3.11491-1.75962,3.80689-3.31657,3.80689-1.644,0-2.33592-.779-3.40255-3.80689Z"/><path class="cls-3" d="M416.47728,130.42643c0-8.07441,5.04651-13.35226,12.28461-13.35226,7.03645,0,11.997,5.13352,11.997,12.91926,0,2.76893-.519,3.60523-2.30727,3.60523H420.48583v1.644c0,5.91147,3.40255,9.4297,8.882,9.4297a8.80732,8.80732,0,0,0,6.71912-2.88358c1.298-1.298,1.6153-1.49962,2.30727-1.49962a1.66561,1.66561,0,0,1,1.61427,1.7586,4.972,4.972,0,0,1-1.61427,3.05657c-1.817,1.93262-5.27785,3.14357-9.19938,3.14357-7.90142,0-12.71761-4.95949-12.71761-13.23658Zm20.273-.28867v-.086c0-5.82549-3.11491-9.45938-7.98843-9.45938-4.93083,0-8.27606,3.74956-8.27606,9.45938v.086Z"/><path class="cls-3" d="M452.06283,148.01755a1.968,1.968,0,0,1-2.0186-2.22129V119.52577a1.98159,1.98159,0,0,1,2.0186-2.22026,1.95545,1.95545,0,0,1,1.96026,2.22026V121.573h.11567a7.71746,7.71746,0,0,1,7.12243-4.49886,4.07671,4.07671,0,0,1,2.04829.433,1.58536,1.58536,0,0,1,.92229,1.49962,1.50558,1.50558,0,0,1-.92229,1.55694,5.04724,5.04724,0,0,1-2.077.28867c-4.49887,0-7.20944,2.56624-7.20944,8.01708v16.92678C454.02309,147.18124,453.30245,148.01755,452.06283,148.01755Z"/><path class="cls-3" d="M472.15673,145.79626V108.36511a2.00189,2.00189,0,1,1,3.97988,0v37.43115a2.002,2.002,0,1,1-3.97988,0Z"/><path class="cls-3" d="M485.77,130.42643c0-8.07441,5.04651-13.35226,12.28461-13.35226,7.03645,0,11.997,5.13352,11.997,12.91926,0,2.76893-.519,3.60523-2.30727,3.60523H489.77855v1.644c0,5.91147,3.40256,9.4297,8.88206,9.4297a8.80734,8.80734,0,0,0,6.71912-2.88358c1.298-1.298,1.61529-1.49962,2.30727-1.49962a1.6656,1.6656,0,0,1,1.61426,1.7586,4.972,4.972,0,0,1-1.61426,3.05657c-1.817,1.93262-5.27785,3.14357-9.19938,3.14357-7.90142,0-12.71761-4.95949-12.71761-13.23658Zm20.273-.28867v-.086c0-5.82549-3.11491-9.45938-7.98842-9.45938-4.93084,0-8.27607,3.74956-8.27607,9.45938v.086Z"/><path class="cls-3" d="M519.27758,139.59715c.72064,0,1.24065.37465,2.04727,1.4986a8.76976,8.76976,0,0,0,7.6711,3.77822c4.15287,0,7.03644-1.87427,7.03644-5.10383,0-2.48026-1.90293-4.09555-4.75784-4.81619l-5.53682-1.32662c-5.10486-1.23962-7.69977-3.74854-7.69977-7.95874,0-5.27785,4.18154-8.59442,10.64066-8.59442a13.78675,13.78675,0,0,1,7.6711,2.10561c1.87427,1.32663,2.94089,3.11389,2.94089,4.49887a1.61965,1.61965,0,0,1-1.72993,1.72993c-.80765,0-1.211-.28866-2.16294-1.41261a7.7746,7.7746,0,0,0-6.86345-3.54791c-3.9502,0-6.54613,1.817-6.54613,4.93186,0,2.45058,1.61529,3.92154,4.87351,4.75784l5.33517,1.32663c5.10486,1.298,7.75709,3.6339,7.75709,7.95874,0,5.53785-4.46918,8.82473-11.15964,8.82473a15.83583,15.83583,0,0,1-7.87275-1.96128c-2.13428-1.23961-3.4609-3.14255-3.4609-4.81516A1.712,1.712,0,0,1,519.27758,139.59715Z"/><path class="cls-3" d="M548.95268,139.59715c.72063,0,1.24064.37465,2.04726,1.4986a8.76977,8.76977,0,0,0,7.6711,3.77822c4.15288,0,7.03645-1.87427,7.03645-5.10383,0-2.48026-1.90294-4.09555-4.75785-4.81619l-5.53682-1.32662c-5.10485-1.23962-7.69976-3.74854-7.69976-7.95874,0-5.27785,4.18154-8.59442,10.64065-8.59442a13.78675,13.78675,0,0,1,7.6711,2.10561c1.87427,1.32663,2.9409,3.11389,2.9409,4.49887a1.61965,1.61965,0,0,1-1.72994,1.72993c-.80765,0-1.211-.28866-2.16294-1.41261a7.77459,7.77459,0,0,0-6.86345-3.54791c-3.95019,0-6.54613,1.817-6.54613,4.93186,0,2.45058,1.6153,3.92154,4.87352,4.75784l5.33517,1.32663c5.10485,1.298,7.75708,3.6339,7.75708,7.95874,0,5.53785-4.46918,8.82473-11.15964,8.82473a15.83583,15.83583,0,0,1-7.87275-1.96128c-2.13427-1.23961-3.4609-3.14255-3.4609-4.81516A1.712,1.712,0,0,1,548.95268,139.59715Z"/><path class="cls-3" d="M296.42571,178.91383a5.93833,5.93833,0,0,1-.20165-1.471,2.12813,2.12813,0,0,1,2.22026-2.19159c1.09631,0,1.90293.89363,2.2786,2.48026l7.35275,31.0007h.23134l7.87276-30.82771c.432-1.72994,1.26828-2.59491,2.71057-2.59491,1.471,0,2.27759.865,2.71058,2.59491l7.84409,30.82771h.23032l7.38244-31.0007c.37465-1.58663,1.18229-2.48026,2.2786-2.48026a2.12871,2.12871,0,0,1,2.22026,2.19159,5.93792,5.93792,0,0,1-.20166,1.471l-9.11339,33.45128c-.605,2.13427-1.15261,2.74026-2.50893,2.74026-1.38395,0-2.10458-.75032-2.62356-2.74026L319.006,182.2304h-.23134l-8.10307,30.13471c-.519,2.0186-1.24064,2.74026-2.62459,2.74026-1.35529,0-1.93159-.606-2.50892-2.74026Z"/><path class="cls-3" d="M371.94929,197.54291v4.75785c0,8.45008-5.50817,13.20792-12.65926,13.20792-7.20944,0-12.68894-4.75784-12.68894-13.20792v-4.75785c0-8.47874,5.4795-13.20792,12.68894-13.20792C366.44112,184.335,371.94929,189.09385,371.94929,197.54291Zm-21.311.433v3.89287c0,6.28613,3.4609,10.06435,8.65174,10.06435,5.2195,0,8.65072-3.74956,8.65072-10.06435v-3.89287c0-6.17148-3.45988-10.06435-8.65072-10.06435S350.63829,191.77577,350.63829,197.97591Z"/><path class="cls-3" d="M383.36893,215.27836a1.968,1.968,0,0,1-2.0186-2.22128V186.78659a1.98159,1.98159,0,0,1,2.0186-2.22026,1.95544,1.95544,0,0,1,1.96025,2.22026v2.04726h.11567a7.71749,7.71749,0,0,1,7.12244-4.49886,4.07678,4.07678,0,0,1,2.04828.433,1.58537,1.58537,0,0,1,.9223,1.49963,1.50559,1.50559,0,0,1-.9223,1.55694,5.04724,5.04724,0,0,1-2.077.28866c-4.49886,0-7.20944,2.56625-7.20944,8.01709v16.92678C385.32918,214.44206,384.60855,215.27836,383.36893,215.27836Z"/><path class="cls-3" d="M405.27875,215.27836c-1.24064,0-1.96128-.8363-1.96128-2.22128V175.62593c0-1.35529.72064-2.22026,1.96128-2.22026a1.98211,1.98211,0,0,1,2.0186,2.22026v23.01329h.14433l13.35124-13.20792a2.75393,2.75393,0,0,1,1.93261-1.09631,1.61463,1.61463,0,0,1,1.64293,1.67261,2.40425,2.40425,0,0,1-.89363,1.731l-9.747,9.747,10.84333,14.01455a2.91094,2.91094,0,0,1,.72064,1.75962,1.898,1.898,0,0,1-1.84561,1.84561c-.66331,0-1.23962-.40434-1.90293-1.2693l-10.64168-13.72691-3.60421,3.37389v9.574A1.96848,1.96848,0,0,1,405.27875,215.27836Z"/><path class="cls-3" d="M436.99292,215.27836a1.9484,1.9484,0,0,1-1.98994-2.22128V188.28621h-2.99822a1.70135,1.70135,0,0,1-1.904-1.72994,1.6675,1.6675,0,0,1,1.904-1.7023H435.003v-3.22956c0-5.59415,2.7116-8.2474,8.19008-8.2474a6.12559,6.12559,0,0,1,3.31657.7493,1.75711,1.75711,0,0,1,.779,1.44229,1.45345,1.45345,0,0,1-1.558,1.557c-1.06662,0-1.55694-.23032-2.91223-.23032-2.59491,0-3.83555,1.38395-3.83555,4.49886V184.854h5.01784a1.7253,1.7253,0,1,1,0,3.43224h-5.01784v24.77087A1.9479,1.9479,0,0,1,436.99292,215.27836Z"/><path class="cls-3" d="M454.57278,213.05708V175.62593a2.00189,2.00189,0,1,1,3.97988,0v37.43115a2.002,2.002,0,1,1-3.97988,0Z"/><path class="cls-3" d="M493.53426,197.54291v4.75785c0,8.45008-5.50816,13.20792-12.65926,13.20792-7.20944,0-12.68894-4.75784-12.68894-13.20792v-4.75785c0-8.47874,5.4795-13.20792,12.68894-13.20792C488.0261,184.335,493.53426,189.09385,493.53426,197.54291Zm-21.311.433v3.89287c0,6.28613,3.4609,10.06435,8.65174,10.06435,5.2195,0,8.65072-3.74956,8.65072-10.06435v-3.89287c0-6.17148-3.45988-10.06435-8.65072-10.06435S472.22326,191.77577,472.22326,197.97591Z"/><path class="cls-3" d="M500.3107,188.17054a5.13172,5.13172,0,0,1-.20165-1.35529,2.029,2.029,0,0,1,2.10459-2.10459c1.038,0,1.81694.778,2.16293,2.30624l5.42116,22.782h.173l6.20014-21.33966c.866-3.17223,1.35529-3.80689,2.97058-3.80689,1.58663,0,2.04726.606,2.97058,3.80689l6.31479,21.33966h.20268l5.53682-22.8966c.346-1.4423,1.038-2.22128,2.0186-2.22128a1.79439,1.79439,0,0,1,1.90294,1.87529,4.69491,4.69491,0,0,1-.23032,1.29694l-6.34447,23.61826c-.80765,3.11492-1.384,3.80689-2.88357,3.80689-1.52829,0-2.16294-.66331-3.11492-3.80689l-6.31581-20.90768h-.11464L512.884,211.47147c-.89466,3.11492-1.41364,3.80689-2.97058,3.80689-1.644,0-2.22026-.66331-3.08523-3.80689Z"/><path class="cls-3" d="M299.28062,271.78285c1.00931,0,1.70128.54765,2.56625,1.98994,1.84561,3.48854,5.13351,5.30549,9.834,5.30549,5.76715,0,9.401-2.73924,9.401-7.12243,0-3.66256-2.1916-5.88282-7.18078-7.23811l-6.34447-1.731c-6.20014-1.70127-9.28537-5.07517-9.28537-10.20868,0-6.63211,5.27683-11.044,13.14958-11.044a15.05532,15.05532,0,0,1,9.63238,3.08523,8.02651,8.02651,0,0,1,3.2009,5.79683,1.71961,1.71961,0,0,1-1.78829,1.87427,1.89464,1.89464,0,0,1-1.98994-1.4423c-1.09529-3.4609-4.58485-5.65249-8.968-5.65249-5.4795,0-8.99773,2.79758-8.99773,7.12345,0,3.28688,2.01861,5.4795,6.17148,6.60345l6.20014,1.731c7.2381,1.98892,10.29467,5.16116,10.29467,10.66932,0,6.92078-5.33415,11.24665-13.75557,11.24665-4.29618,0-8.07441-1.15364-10.46766-3.2009-2.1916-1.84561-3.48956-3.97988-3.48956-5.79581A1.8219,1.8219,0,0,1,299.28062,271.78285Z"/><path class="cls-3" d="M335.99114,292.74786c-1.24064,0-1.96128-.866-1.96128-2.22128v-36.7965c0-1.41261.692-2.24892,1.87427-2.24892,1.211,0,1.904.83631,1.904,2.24892v3.08523h.20165c1.09529-2.9409,4.44052-5.56549,9.314-5.56549,7.00779,0,11.564,4.96052,11.564,12.77493v5.59517c0,8.01709-4.75784,12.80359-11.737,12.80359-4.61351,0-7.6711-2.27758-8.93938-5.27682h-.20166v13.37989A1.983,1.983,0,0,1,335.99114,292.74786ZM346.6318,278.848c5.01784,0,8.27606-3.57657,8.27606-10.18v-3.69122c0-6.51746-3.17121-10.15033-8.39173-10.15033-5.30549,0-8.50639,3.80586-8.50639,9.45836v5.56549C338.00974,275.0984,341.49931,278.848,346.6318,278.848Z"/><path class="cls-3" d="M367.10751,264.60207c0-8.07441,5.04651-13.35225,12.28461-13.35225,7.03644,0,11.997,5.13351,11.997,12.91926,0,2.76892-.519,3.60523-2.30727,3.60523H371.116v1.64395c0,5.91148,3.40256,9.4297,8.88206,9.4297a8.80737,8.80737,0,0,0,6.71912-2.88357c1.298-1.298,1.61529-1.49962,2.30727-1.49962a1.6656,1.6656,0,0,1,1.61426,1.7586,4.972,4.972,0,0,1-1.61426,3.05656c-1.81695,1.93262-5.27785,3.14358-9.19939,3.14358-7.90141,0-12.7176-4.9595-12.7176-13.23659Zm20.273-.28866v-.086c0-5.82549-3.11491-9.45938-7.98842-9.45938-4.93084,0-8.27607,3.74957-8.27607,9.45938v.086Z"/><path class="cls-3" d="M399.43381,264.16908c0-7.87276,4.52753-12.91926,12.19862-12.91926a13.527,13.527,0,0,1,7.09377,1.84561c2.01861,1.24064,3.71988,3.23058,3.71988,5.01784a1.72737,1.72737,0,0,1-1.7586,1.93262,2.63094,2.63094,0,0,1-2.19159-1.52828,7.84073,7.84073,0,0,0-6.86346-3.66256c-5.33517,0-8.19008,3.83555-8.19008,9.574v4.7865c0,5.70982,2.79759,9.574,8.24741,9.574a7.97976,7.97976,0,0,0,6.89211-3.57554,2.78921,2.78921,0,0,1,2.16294-1.52828,1.73378,1.73378,0,0,1,1.75962,1.90293c0,1.75962-1.58663,3.7209-3.74956,5.0465a13.47654,13.47654,0,0,1-6.9781,1.78829c-7.8441,0-12.343-5.01785-12.343-12.97659Z"/><path class="cls-3" d="M434.2414,241.35846a2.70692,2.70692,0,0,1,2.82624,2.74026,2.78329,2.78329,0,1,1-5.56651,0A2.70287,2.70287,0,0,1,434.2414,241.35846Zm.02866,40.83473a1.96259,1.96259,0,0,1-1.98994-2.22128V253.70142a1.96717,1.96717,0,0,1,2.0186-2.22026,1.94216,1.94216,0,0,1,1.96128,2.22026v26.27049A1.94839,1.94839,0,0,1,434.27006,282.19319Z"/><path class="cls-3" d="M450.91227,282.19319a1.9484,1.9484,0,0,1-1.98994-2.22128V255.201h-2.99822a1.70135,1.70135,0,0,1-1.904-1.72994,1.6675,1.6675,0,0,1,1.904-1.7023h2.99822v-3.22956c0-5.59415,2.7116-8.2474,8.19008-8.2474a6.12565,6.12565,0,0,1,3.31656.74929,1.75715,1.75715,0,0,1,.779,1.4423,1.45345,1.45345,0,0,1-1.558,1.557c-1.06662,0-1.55694-.23032-2.91223-.23032-2.59491,0-3.83555,1.38395-3.83555,4.49886v3.45988h5.01784a1.7253,1.7253,0,1,1,0,3.43224h-5.01784v24.77087A1.9479,1.9479,0,0,1,450.91227,282.19319Z"/><path class="cls-3" d="M470.24663,241.35846a2.70692,2.70692,0,0,1,2.82625,2.74026,2.78329,2.78329,0,1,1-5.56651,0A2.70287,2.70287,0,0,1,470.24663,241.35846Zm.02866,40.83473a1.96259,1.96259,0,0,1-1.98994-2.22128V253.70142a1.96717,1.96717,0,0,1,2.0186-2.22026,1.94215,1.94215,0,0,1,1.96128,2.22026v26.27049A1.94839,1.94839,0,0,1,470.27529,282.19319Z"/><path class="cls-3" d="M482.01533,264.16908c0-7.87276,4.52752-12.91926,12.19862-12.91926a13.527,13.527,0,0,1,7.09377,1.84561c2.0186,1.24064,3.71988,3.23058,3.71988,5.01784a1.72737,1.72737,0,0,1-1.7586,1.93262,2.631,2.631,0,0,1-2.1916-1.52828,7.8407,7.8407,0,0,0-6.86345-3.66256c-5.33517,0-8.19008,3.83555-8.19008,9.574v4.7865c0,5.70982,2.79759,9.574,8.24741,9.574a7.97977,7.97977,0,0,0,6.89211-3.57554,2.78921,2.78921,0,0,1,2.16293-1.52828,1.73378,1.73378,0,0,1,1.75963,1.90293c0,1.75962-1.58663,3.7209-3.74957,5.0465a13.4765,13.4765,0,0,1-6.9781,1.78829c-7.84409,0-12.34295-5.01785-12.34295-12.97659Z"/><path class="cls-3" d="M522.6484,282.42351c-5.88281,0-9.833-3.71988-9.833-9.19938,0-5.44982,3.92154-8.79505,10.46767-8.79505h8.39173v-3.31657c0-4.18153-2.50892-6.37313-7.15109-6.37313a7.60432,7.60432,0,0,0-6.57582,3.40255,2.189,2.189,0,0,1-1.93159,1.0093,1.51415,1.51415,0,0,1-1.58663-1.64293c0-1.58663,1.26931-3.31656,3.48956-4.64319a13.02141,13.02141,0,0,1,6.83479-1.61529c7.00779,0,10.90066,3.4609,10.90066,9.747v18.94641c0,1.385-.72063,2.22128-1.93261,2.22128-1.211,0-1.9316-.83631-1.9316-2.22128V277.637h-.173A9.94794,9.94794,0,0,1,522.6484,282.42351Zm.952-3.48956c4.58485,0,8.07441-3.17224,8.07441-7.32409V267.889h-8.30473c-4.12421,0-6.43148,1.87529-6.43148,5.24918C516.93858,276.598,519.59184,278.934,523.60038,278.934Z"/><path class="cls-3" d="M547.67928,255.201H544.939a1.69481,1.69481,0,0,1-1.90294-1.70128,1.67284,1.67284,0,0,1,1.90294-1.731h2.74026v-5.42116a2.00143,2.00143,0,1,1,3.97886,0v5.42116H556.59a1.67283,1.67283,0,0,1,1.90293,1.731A1.6948,1.6948,0,0,1,556.59,255.201h-4.93186v19.29239c0,3.37389,1.039,4.35453,4.09555,4.35453.98064,0,1.55694-.087,2.07592-.087a1.47751,1.47751,0,0,1,1.6153,1.52829,1.62074,1.62074,0,0,1-1.09631,1.58663,7.80381,7.80381,0,0,1-3.25823.49032c-5.39249,0-7.41109-2.01861-7.41109-8.1041Z"/><path class="cls-3" d="M569.2902,241.35846a2.70692,2.70692,0,0,1,2.82625,2.74026,2.78329,2.78329,0,1,1-5.56651,0A2.70287,2.70287,0,0,1,569.2902,241.35846Zm.02866,40.83473a1.96259,1.96259,0,0,1-1.98994-2.22128V253.70142a1.96717,1.96717,0,0,1,2.0186-2.22026,1.94216,1.94216,0,0,1,1.96128,2.22026v26.27049A1.94839,1.94839,0,0,1,569.31886,282.19319Z"/><path class="cls-3" d="M606.4071,264.45774v4.75784c0,8.45009-5.50817,13.20793-12.65926,13.20793-7.20944,0-12.68894-4.75784-12.68894-13.20793v-4.75784c0-8.47874,5.4795-13.20792,12.68894-13.20792C600.89893,251.24982,606.4071,256.00868,606.4071,264.45774Zm-21.311.433v3.89287c0,6.28613,3.4609,10.06435,8.65174,10.06435,5.2195,0,8.65071-3.74956,8.65071-10.06435v-3.89287c0-6.17148-3.45987-10.06435-8.65071-10.06435S585.0961,258.6906,585.0961,264.89074Z"/><path class="cls-3" d="M637.63811,282.19319a1.9479,1.9479,0,0,1-1.98994-2.22128v-17.4171c0-4.9032-2.53758-7.72842-7.18078-7.72842-5.42115,0-8.6804,3.95019-8.6804,9.92v15.2255a2.002,2.002,0,1,1-3.97988,0V253.73008a1.992,1.992,0,0,1,2.01963-2.24892c1.211,0,1.96025.865,1.96025,2.24892v3.66255h.20166c1.212-3.71988,4.4702-6.14281,9.37237-6.14281,6.4018,0,10.2957,3.69121,10.2957,10.1227v18.59939A1.96849,1.96849,0,0,1,637.63811,282.19319Z"/></svg>