<svg xmlns="http://www.w3.org/2000/svg" role="img" viewBox="-7.49 0.51 389.74 81.99"><style>svg {enable-background:new 0 0 379.1140137 78}</style><path fill="none" d="M26.03 30.228a12.234 12.234 0 0010.593 18.349c6.756 0 12.233-5.477 12.233-12.233s-5.477-12.232-12.233-12.232a12.23 12.23 0 00-10.593 6.116zm258.548 6.204c-2.817 0-4.897.948-6.24 2.844-1.344 1.897-2.016 4.631-2.016 8.206s.672 6.3 2.016 8.174c1.343 1.875 3.423 2.812 6.24 2.812 2.773 0 4.826-.932 6.158-2.795 1.333-1.863 2-4.594 2-8.19s-.667-6.337-2-8.223c-1.332-1.885-3.385-2.828-6.158-2.828zM167.157 26.13c-.78-.715-1.767-1.262-2.958-1.641s-2.59-.57-4.193-.57h-6.564v16.868h6.564c1.604 0 3.001-.2 4.193-.6s2.177-.976 2.958-1.724 1.365-1.657 1.755-2.73c.39-1.072.585-2.269.585-3.59 0-1.257-.196-2.394-.585-3.413s-.975-1.885-1.755-2.6zm-49.611 2.194a59.999 59.999 0 01-.926-3.072 111.093 111.093 0 01-.894 3.088c-.293.953-.58 1.787-.861 2.502l-5.72 15.568h14.982l-5.72-15.633a70.682 70.682 0 01-.86-2.453zM364.82 38.967c-.586-.845-1.296-1.462-2.13-1.852s-1.782-.585-2.843-.585c-1.668 0-3.093.352-4.274 1.056-1.18.705-2.28 1.696-3.299 2.974v14.95c.91 1.127 1.902 1.913 2.974 2.356a8.954 8.954 0 003.462.667c1.213 0 2.312-.227 3.298-.682.986-.455 1.82-1.149 2.503-2.08s1.208-2.108 1.576-3.527.553-3.093.553-5.021c0-1.95-.158-3.602-.472-4.956s-.764-2.455-1.349-3.3zm-43.29-2.535c-2.817 0-4.897.948-6.24 2.844-1.344 1.897-2.016 4.631-2.016 8.206s.672 6.3 2.016 8.174c1.343 1.875 3.423 2.812 6.24 2.812 2.773 0 4.826-.932 6.158-2.795 1.333-1.863 2-4.594 2-8.19s-.667-6.337-2-8.223c-1.332-1.885-3.385-2.828-6.158-2.828z"/><path d="M112.167 17.16l-18.46 46.995h6.793c.736 0 1.359-.206 1.869-.617.508-.412.85-.866 1.023-1.365l3.51-9.588h19.468l3.51 9.588c.216.563.569 1.035 1.056 1.414s1.11.568 1.87.568h6.759l-18.46-46.995h-8.938zm-3.022 29.25l5.72-15.568c.281-.715.568-1.549.861-2.502.292-.953.59-1.983.894-3.088.303 1.105.612 2.129.926 3.072.314.942.601 1.76.86 2.453l5.721 15.633h-14.982zm64.707-25.058c-1.495-1.321-3.392-2.35-5.687-3.087-2.297-.737-5.017-1.105-8.159-1.105H144.7v46.995h8.743V47.612h6.564c3.056 0 5.721-.379 7.995-1.137 2.276-.758 4.171-1.82 5.688-3.185s2.654-2.995 3.413-4.892c.758-1.895 1.137-3.98 1.137-6.256 0-2.188-.358-4.203-1.072-6.045a12.105 12.105 0 00-3.315-4.745zm-4.94 14.381c-.39 1.073-.975 1.983-1.755 2.73s-1.767 1.322-2.958 1.724-2.59.6-4.193.6h-6.564V23.92h6.564c1.604 0 3.001.19 4.193.569s2.177.926 2.958 1.64c.78.716 1.365 1.582 1.755 2.601s.585 2.156.585 3.412c0 1.322-.196 2.52-.585 3.591zm17.192-18.573h8.775v46.996h-8.775zm38.301 30.533a10.466 10.466 0 00-2.616-1.69 32.376 32.376 0 00-2.99-1.186 88.607 88.607 0 00-2.99-.959 17.967 17.967 0 01-2.617-.99c-.77-.369-1.386-.797-1.852-1.284s-.698-1.089-.698-1.804c0-1.083.455-1.96 1.364-2.633.91-.67 2.156-1.007 3.738-1.007 1.018 0 1.902.109 2.649.325.747.217 1.414.46 1.999.73.585.272 1.098.516 1.543.732.444.217.86.325 1.252.325.368 0 .67-.07.91-.211.237-.14.465-.384.681-.731l1.82-2.893c-1.256-1.235-2.827-2.231-4.711-2.99-1.886-.758-3.977-1.137-6.273-1.137-2.06 0-3.874.276-5.444.829-1.571.552-2.882 1.289-3.933 2.21s-1.847 1.998-2.388 3.234a9.6 9.6 0 00-.813 3.9c0 1.474.233 2.73.7 3.77.465 1.04 1.082 1.917 1.852 2.632.768.715 1.645 1.306 2.632 1.772s1.993.872 3.022 1.218 2.037.666 3.023.958c.986.293 1.863.624 2.632.992.769.369 1.387.801 1.853 1.3.466.499.7 1.137.7 1.917 0 .521-.104 1.025-.31 1.512s-.532.915-.975 1.283c-.444.37-1.008.667-1.69.895-.682.227-1.5.34-2.454.34-1.213 0-2.215-.14-3.006-.422a13.825 13.825 0 01-2.064-.91c-.585-.324-1.1-.628-1.544-.91s-.915-.422-1.413-.422c-.499 0-.91.097-1.235.293a2.611 2.611 0 00-.845.844l-1.852 3.055a13.492 13.492 0 002.258 1.625c.856.5 1.787.932 2.795 1.3 1.007.369 2.058.655 3.153.861a18.12 18.12 0 003.363.309c2.145 0 4.047-.276 5.704-.828s3.05-1.322 4.177-2.308c1.126-.985 1.982-2.155 2.567-3.51s.877-2.833.877-4.436c0-1.344-.232-2.491-.698-3.446a7.88 7.88 0 00-1.853-2.454zm35.165-13.877c-.943-1.116-2.119-1.983-3.527-2.6s-3.022-.926-4.843-.926c-1.126 0-2.166.108-3.119.325-.954.217-1.848.531-2.682.942-.834.412-1.625.9-2.373 1.463a18.259 18.259 0 00-2.128 1.885l-.552-2.633c-.325-.975-1.008-1.462-2.048-1.462h-4.907v33.345h8.027V40.04c1.083-1.083 2.231-1.939 3.445-2.568a8.36 8.36 0 013.9-.942c1.885 0 3.299.558 4.24 1.674.944 1.116 1.415 2.692 1.415 4.729v21.222h8.027V42.933c0-1.864-.243-3.57-.731-5.12-.487-1.548-1.202-2.88-2.145-3.997zm36.968 1.089c-1.43-1.473-3.158-2.611-5.184-3.413-2.026-.801-4.285-1.202-6.776-1.202-2.492 0-4.757.4-6.793 1.202-2.037.802-3.775 1.94-5.216 3.413-1.441 1.473-2.557 3.272-3.347 5.395-.791 2.124-1.187 4.496-1.187 7.118 0 2.644.396 5.026 1.187 7.15.79 2.123 1.906 3.932 3.347 5.427 1.44 1.495 3.179 2.644 5.216 3.445 2.036.801 4.3 1.203 6.793 1.203 2.491 0 4.75-.402 6.776-1.203s3.753-1.95 5.184-3.445c1.43-1.495 2.534-3.304 3.315-5.428.78-2.123 1.17-4.505 1.17-7.149 0-2.622-.39-4.994-1.17-7.118-.78-2.123-1.885-3.922-3.315-5.395zm-5.802 20.768c-1.332 1.863-3.385 2.795-6.158 2.795-2.817 0-4.897-.937-6.24-2.812-1.344-1.874-2.016-4.598-2.016-8.174s.672-6.31 2.016-8.206c1.343-1.896 3.423-2.844 6.24-2.844 2.773 0 4.826.943 6.158 2.828 1.333 1.886 2 4.626 2 8.222s-.667 6.328-2 8.19zm42.754-20.768c-1.43-1.473-3.158-2.611-5.184-3.413-2.026-.801-4.285-1.202-6.776-1.202-2.492 0-4.757.4-6.793 1.202-2.037.802-3.775 1.94-5.216 3.413-1.44 1.473-2.557 3.272-3.347 5.395-.791 2.124-1.187 4.496-1.187 7.118 0 2.644.396 5.026 1.187 7.15.79 2.123 1.906 3.932 3.347 5.427 1.44 1.495 3.18 2.644 5.216 3.445 2.036.801 4.301 1.203 6.793 1.203 2.491 0 4.75-.402 6.776-1.203s3.754-1.95 5.184-3.445c1.43-1.495 2.534-3.304 3.315-5.428.78-2.123 1.17-4.505 1.17-7.149 0-2.622-.39-4.994-1.17-7.118-.78-2.123-1.885-3.922-3.315-5.395zm-5.802 20.768c-1.332 1.863-3.385 2.795-6.158 2.795-2.817 0-4.897-.937-6.24-2.812-1.344-1.874-2.016-4.598-2.016-8.174s.672-6.31 2.016-8.206c1.343-1.896 3.423-2.844 6.24-2.844 2.773 0 4.826.943 6.158 2.828 1.333 1.886 2 4.626 2 8.222s-.667 6.328-2 8.19zm46.345-15.714c-.596-2.113-1.441-3.89-2.535-5.33-1.094-1.441-2.394-2.54-3.9-3.3-1.506-.757-3.168-1.137-4.989-1.137-2.34 0-4.381.477-6.126 1.43a16.86 16.86 0 00-4.631 3.738l-.65-3.088c-.108-.498-.347-.866-.715-1.105-.369-.238-.812-.357-1.333-.357h-4.907v44.233h8.027v-13.65a11.705 11.705 0 003.527 2.388c1.31.574 2.909.862 4.794.862 2.187 0 4.165-.439 5.93-1.317a13.28 13.28 0 004.518-3.656c1.246-1.56 2.205-3.401 2.877-5.524.67-2.125 1.007-4.431 1.007-6.923 0-2.73-.298-5.152-.894-7.264zm-7.946 12.285c-.368 1.42-.894 2.595-1.576 3.527s-1.517 1.625-2.503 2.08c-.986.455-2.085.682-3.298.682a8.954 8.954 0 01-3.462-.667c-1.072-.443-2.063-1.23-2.974-2.355V40.56c1.019-1.278 2.119-2.27 3.3-2.974 1.18-.704 2.605-1.056 4.273-1.056 1.061 0 2.01.195 2.843.585s1.544 1.007 2.13 1.852 1.034 1.945 1.348 3.3.472 3.005.472 4.956c0 1.928-.185 3.602-.553 5.021zM36.623 8.214c-15.51 0-28.13 12.619-28.13 28.13A27.96 27.96 0 0012.65 51.04L.48 63.21c-.64.64-.64 1.68 0 2.32l6.958 6.958c.64.64 1.679.64 2.319 0l12.17-12.169a27.955 27.955 0 0014.696 4.157c15.512 0 28.13-12.62 28.13-28.132 0-15.511-12.618-28.13-28.13-28.13zm0 48.518a20.388 20.388 0 010-40.775c11.26 0 20.388 9.128 20.388 20.387 0 11.26-9.128 20.388-20.388 20.388z"/><path fill="#5e5e5e" d="M36.623 24.112v-8.155a20.388 20.388 0 00-17.656 10.194l7.063 4.077a12.23 12.23 0 0110.593-6.116z"/><path fill="#282828" d="M26.03 42.461a12.234 12.234 0 010-12.233l-7.063-4.077a20.386 20.386 0 0017.656 30.581v-8.155c-4.37 0-8.408-2.332-10.593-6.116z"/><path fill="#494949" d="M36.623 15.957v8.155c6.756 0 12.233 5.476 12.233 12.232s-5.477 12.233-12.233 12.233v8.155c11.26 0 20.388-9.128 20.388-20.388 0-11.259-9.128-20.387-20.388-20.387z"/></svg>