<svg xmlns="http://www.w3.org/2000/svg" role="img" viewBox="-48.30 -40.80 3291.60 591.60"><style>svg {fill-rule:evenodd;clip-rule:evenodd;stroke-linejoin:round;stroke-miterlimit:2}</style><g transform="translate(-12 -1776)"><g id="ovn-kubernetes-horizontal-black" transform="matrix(1.96517 0 0 1.75462 -13.813 -259.883)"><path fill="none" d="M13.583 1160.37h1628.36v291.801H13.583z"/><path fill-rule="nonzero" d="M.328.008C.271.008.22-.004.176-.028.131-.052.096-.084.071-.126.045-.168.032-.216.032-.269c0-.054.013-.102.039-.144.025-.041.06-.074.105-.097C.22-.534.27-.546.328-.546c.057 0 .108.012.152.036.045.023.079.056.105.097.025.042.038.09.038.144 0 .054-.013.101-.038.143-.025.042-.06.074-.105.098C.435-.004.385.008.328.008zm0-.128c.026 0 .049-.006.07-.018.02-.012.037-.029.049-.051.012-.023.018-.05.018-.08 0-.031-.006-.058-.018-.08A.13366.13366 0 0 0 .398-.4C.377-.412.354-.418.328-.418c-.026 0-.05.006-.07.018-.021.012-.037.029-.049.051C.196-.327.19-.3.19-.269c0 .03.006.057.019.08.012.022.028.039.049.051.02.012.044.018.07.018z" transform="matrix(159.30096 0 0 194.63931 313.74 1365)"/><path fill-rule="nonzero" d="M.218 0l-.226-.538h.161l.188.463h-.08l.195-.463h.15L.379 0H.218z" transform="matrix(159.30096 0 0 194.63931 415.704 1365)"/><path fill-rule="nonzero" d="M.072 0v-.538h.149v.149L.193-.434C.212-.47.24-.498.276-.517c.036-.019.077-.029.123-.029.042 0 .081.009.114.026.034.016.06.042.08.077.019.035.029.08.029.135V0H.466v-.284c0-.044-.01-.076-.029-.096C.418-.401.392-.411.357-.411c-.025 0-.047.005-.067.016-.019.01-.034.026-.045.047-.011.021-.017.049-.017.082V0H.072z" transform="matrix(159.30096 0 0 194.63931 510.988 1365)"/><path fill-rule="nonzero" d="M.052-.344h.283v.125H.052z" transform="matrix(159.30096 0 0 194.63931 620.991 1365)"/><path fill-rule="nonzero" d="M.201-.11L.205-.3l.251-.238h.186l-.241.245-.081.066-.119.117zM.072 0v-.742h.156V0H.072zm.401 0L.291-.226l.098-.121L.662 0H.473z" transform="matrix(159.30096 0 0 194.63931 682.543 1365)"/><path fill-rule="nonzero" d="M.299.008C.254.008.214-.001.18-.018.145-.035.118-.062.098-.097.078-.133.069-.179.069-.234v-.304h.156v.281c0 .045.009.078.028.099.019.021.046.031.081.031.024 0 .045-.005.064-.016.019-.01.033-.026.044-.048.011-.021.016-.048.016-.081v-.266h.156V0H.466v-.148l.028.043C.475-.068.448-.04.413-.021.379-.002.34.008.299.008z" transform="matrix(159.30096 0 0 194.63931 784.676 1365)"/><path fill-rule="nonzero" d="M.39.008c-.047 0-.088-.01-.122-.03-.034-.02-.06-.05-.078-.091C.172-.154.163-.206.163-.269s.009-.115.028-.156c.019-.04.046-.071.08-.091.034-.02.074-.03.119-.03.05 0 .096.012.136.034.041.023.073.055.096.096.024.042.036.091.036.147 0 .056-.012.105-.036.146-.023.042-.055.074-.096.096C.486-.004.44.008.39.008zM.072 0v-.742h.156v.313l-.01.159.003.16V0H.072zm.291-.12c.026 0 .049-.006.07-.018.02-.012.037-.029.049-.051C.494-.212.5-.239.5-.269.5-.3.494-.327.482-.349A.13366.13366 0 0 0 .433-.4C.412-.412.389-.418.363-.418c-.026 0-.049.006-.07.018-.021.012-.037.029-.049.051-.012.022-.018.049-.018.08 0 .03.006.057.018.08.012.022.028.039.049.051.021.012.044.018.07.018z" transform="matrix(159.30096 0 0 194.63931 894.042 1365)"/><path fill-rule="nonzero" d="M.339.008C.277.008.224-.004.178-.028.131-.052.096-.085.07-.127.045-.168.032-.216.032-.269c0-.054.013-.102.038-.143.024-.042.059-.075.102-.098.043-.024.092-.036.147-.036.053 0 .1.012.142.034.043.022.076.054.101.096.024.041.037.091.037.149 0 .006 0 .013-.001.021 0 .007-.001.014-.002.021H.159v-.091h.355l-.06.027c0-.028-.006-.052-.017-.073C.425-.383.41-.399.39-.411.37-.422.346-.428.32-.428c-.027 0-.05.006-.071.017-.02.012-.036.028-.047.049-.011.021-.017.046-.017.075v.024c0 .03.007.055.02.077.013.023.031.04.055.051.024.012.051.018.083.018.029 0 .054-.004.075-.013.022-.008.042-.021.06-.039l.083.09a.2351.2351 0 0 1-.093.064C.431 0 .388.008.339.008z" transform="matrix(159.30096 0 0 194.63931 1004.014 1365)"/><path fill-rule="nonzero" d="M.072 0v-.538h.149v.152L.2-.43c.016-.038.042-.067.077-.086.035-.02.078-.03.129-.03v.144C.4-.403.393-.403.388-.404H.371c-.043 0-.077.012-.104.036-.026.025-.039.063-.039.114V0H.072z" transform="matrix(159.30096 0 0 194.63931 1104.58 1365)"/><path fill-rule="nonzero" d="M.072 0v-.538h.149v.149L.193-.434C.212-.47.24-.498.276-.517c.036-.019.077-.029.123-.029.042 0 .081.009.114.026.034.016.06.042.08.077.019.035.029.08.029.135V0H.466v-.284c0-.044-.01-.076-.029-.096C.418-.401.392-.411.357-.411c-.025 0-.047.005-.067.016-.019.01-.034.026-.045.047-.011.021-.017.049-.017.082V0H.072z" transform="matrix(159.30096 0 0 194.63931 1172.642 1365)"/><path fill-rule="nonzero" d="M.339.008C.277.008.224-.004.178-.028.131-.052.096-.085.07-.127.045-.168.032-.216.032-.269c0-.054.013-.102.038-.143.024-.042.059-.075.102-.098.043-.024.092-.036.147-.036.053 0 .1.012.142.034.043.022.076.054.101.096.024.041.037.091.037.149 0 .006 0 .013-.001.021 0 .007-.001.014-.002.021H.159v-.091h.355l-.06.027c0-.028-.006-.052-.017-.073C.425-.383.41-.399.39-.411.37-.422.346-.428.32-.428c-.027 0-.05.006-.071.017-.02.012-.036.028-.047.049-.011.021-.017.046-.017.075v.024c0 .03.007.055.02.077.013.023.031.04.055.051.024.012.051.018.083.018.029 0 .054-.004.075-.013.022-.008.042-.021.06-.039l.083.09a.2351.2351 0 0 1-.093.064C.431 0 .388.008.339.008z" transform="matrix(159.30096 0 0 194.63931 1283.281 1365)"/><path fill-rule="nonzero" d="M.292.008C.229.008.179-.008.144-.041.109-.073.091-.121.091-.185v-.472h.156v.47c0 .022.006.04.018.052.012.013.028.019.049.019.025 0 .046-.006.063-.02l.042.11c-.016.012-.035.02-.057.025C.339.005.316.008.292.008zM.008-.418v-.12h.373v.12H.008z" transform="matrix(159.30096 0 0 194.63931 1383.844 1365)"/><path fill-rule="nonzero" d="M.339.008C.277.008.224-.004.178-.028.131-.052.096-.085.07-.127.045-.168.032-.216.032-.269c0-.054.013-.102.038-.143.024-.042.059-.075.102-.098.043-.024.092-.036.147-.036.053 0 .1.012.142.034.043.022.076.054.101.096.024.041.037.091.037.149 0 .006 0 .013-.001.021 0 .007-.001.014-.002.021H.159v-.091h.355l-.06.027c0-.028-.006-.052-.017-.073C.425-.383.41-.399.39-.411.37-.422.346-.428.32-.428c-.027 0-.05.006-.071.017-.02.012-.036.028-.047.049-.011.021-.017.046-.017.075v.024c0 .03.007.055.02.077.013.023.031.04.055.051.024.012.051.018.083.018.029 0 .054-.004.075-.013.022-.008.042-.021.06-.039l.083.09a.2351.2351 0 0 1-.093.064C.431 0 .388.008.339.008z" transform="matrix(159.30096 0 0 194.63931 1450.472 1365)"/><path fill-rule="nonzero" d="M.253.008C.207.008.163.002.121-.009.079-.02.045-.034.02-.05l.052-.112c.024.016.053.028.087.038.034.009.067.014.1.014.036 0 .062-.005.077-.013.015-.009.022-.021.022-.036 0-.013-.006-.022-.017-.029C.329-.194.313-.199.294-.202.275-.206.254-.209.231-.212.207-.215.184-.22.161-.226.138-.232.116-.24.097-.251a.1268.1268 0 0 1-.046-.046C.039-.316.033-.341.033-.372c0-.034.01-.064.03-.09.02-.026.048-.047.085-.061.037-.015.082-.023.134-.023.037 0 .074.004.112.012.038.008.07.02.095.035l-.052.111C.411-.403.385-.414.358-.419.332-.425.307-.428.282-.428c-.035 0-.06.005-.076.014-.016.01-.024.021-.024.036 0 .013.006.023.017.03.012.007.028.012.047.016s.04.007.063.01c.024.004.047.008.07.014.023.006.044.014.063.025.02.011.035.026.047.046.012.019.018.044.018.074 0 .033-.01.063-.03.088-.02.026-.049.046-.087.061C.353 0 .307.008.253.008z" transform="matrix(159.30096 0 0 194.63931 1551.038 1365)"/><g id="ovn-k8s-black" transform="matrix(.0871 0 0 .09755 21.53 1115.23)"><path fill="#fff" fill-rule="nonzero" d="M1396.16 599.804c-24.79 1.249-49.08 7.396-71.45 18.079L349.785 1083.69c-51.082 24.39-88.251 70.61-100.872 125.43L8.391 2255.44c-11.216 48.68-2.079 99.86 25.311 141.76 3.289 5.07 6.826 9.98 10.599 14.71l674.807 838.98c35.36 43.95 89.068 69.58 145.76 69.57l1082.162-.25c56.67.04 110.37-25.54 145.76-69.45l674.56-839.1c35.37-43.97 48.65-101.63 36.03-156.47l-240.89-1046.32c-12.63-54.82-49.79-101.04-100.88-125.43l-975.05-465.557c-28.13-13.438-59.22-19.656-90.4-18.079z" transform="translate(-1.481 -1.608)" id="path3055-3"/><path fill-rule="nonzero" d="M1396.68 658.594c-23.48 1.183-46.49 7.006-67.67 17.126l-923.509 441.26c-48.388 23.11-83.596 66.89-95.551 118.82L82.115 2226.98c-10.625 46.12-1.97 94.6 23.976 134.29 3.116 4.81 6.466 9.46 10.04 13.94l639.212 794.76c33.495 41.63 84.37 65.92 138.071 65.91l1025.076-.24c53.68.04 104.56-24.2 138.07-65.79l638.98-794.88c33.51-41.65 46.09-96.27 34.13-148.23l-228.18-991.18c-11.96-51.93-47.17-95.71-95.56-118.82l-923.62-441.02c-26.64-12.73-56.09-18.619-85.63-17.126z" transform="translate(3.719 11.282)" id="path3055"/><g fill="#fff" transform="translate(-5.122)"><path id="path3059" d="M1409.45 750.419c38.62-.004 69.93 34.904 69.93 77.973.02 6.106.36 14.311.15 19.958-.92 24.841-6.33 43.848-9.57 66.735-5.89 48.985-10.96 89.595-7.92 127.335 2.76 18.89 13.76 26.34 22.86 35.09.21 5.08 1.02 22 1.64 31.35 222.35 19.83 428.85 121.88 580.52 281.51l26.6-19.05c9.02.53 28.88 3.27 42.44-4.65 31.3-21.15 59.8-50.47 94.29-85.63 15.8-16.82 27.4-32.84 46.17-49.06 4.29-3.7 10.77-8.65 15.54-12.44 33.55-26.86 80.21-23.99 104.3 6.31 24.08 30.3 16.36 76.61-17.18 103.47-4.74 3.82-10.89 9.11-15.4 12.45-19.92 14.76-38.27 22.33-58.12 34.05-41.83 25.93-76.51 47.42-104.01 73.34-12.99 13.95-12.01 27.14-13.14 39.74-3.88 3.58-17.56 15.73-24.81 22.35 60.28 90.04 105.48 192.26 131.05 304.01 25.34 110.72 29.28 221.38 14.64 327.7l28.25 8.24c5.07 7.21 15.51 24.74 30.18 30.45 35.98 11.37 76.48 15.56 125.37 20.7 22.95 1.91 42.75.77 67.08 5.39 5.83 1.11 14.33 3.43 20.32 4.8 41.22 9.98 67.7 48.03 59.19 85.5-8.52 37.47-48.8 60.24-90.27 51.28-.3-.07-.73-.08-1.05-.15-.47-.1-.87-.33-1.33-.45-5.78-1.27-13.03-2.53-18.08-3.89-23.93-6.43-41.25-16.03-62.76-24.3-46.27-16.66-84.59-30.57-121.93-35.99-18.96-1.5-28.64 7.58-39.15 14.55-5.11-1.03-20.85-3.83-29.89-5.25-67.01 211.36-209.69 394.37-403.14 509.01 3.34 8.1 9 25.31 11.65 28.36-4.42 11.84-11.05 23.16-5.37 41.38 13.57 35.33 35.52 69.86 62 111.43 12.82 19.21 25.94 33.97 37.51 55.95 2.77 5.26 6.43 13.33 9.11 18.89 17.98 38.59 4.79 83.05-29.73 99.74-34.8 16.83-78.06-.94-96.69-39.74-2.66-5.49-6.39-12.81-8.65-18-9.91-22.78-13.37-42.31-20.34-64.35-15.87-46.69-28.9-85.35-47.95-118.03-10.66-15.81-23.74-17.82-35.72-21.73-2.21-3.84-10.49-19.08-14.94-27-38.63 14.65-78.59 26.85-119.98 36.28-181.46 41.35-363.11 24.59-525.38-37.93l-15.85 28.79c-11.79 3.17-23.16 6.38-30.13 14.73-25.47 30.5-35.63 79.46-54.137 126.11-6.967 22.03-10.265 41.54-20.173 64.33-2.243 5.15-6.013 12.37-8.672 17.85-.018.05.019.11 0 .15-.026.05-.118.09-.145.14-18.662 38.68-61.782 56.38-96.524 39.6-34.525-16.69-47.719-61.13-29.746-99.73 2.672-5.56 6.209-13.64 8.977-18.91 11.568-21.98 24.681-36.88 37.5-56.09 26.474-41.57 49.714-78.86 63.288-114.19 3.41-11.73-1.632-27.79-6.21-39.67l12.709-30.6c-186.146-110.71-333.165-287.15-403.311-505.43l-30.47 5.25c-8.172-4.59-24.609-15.47-40.202-14.25-37.336 5.43-75.656 19.34-121.927 36-21.508 8.27-38.833 17.71-62.757 24.14-5.056 1.35-12.302 2.77-18.082 4.05-.465.11-.883.34-1.351.45-.312.07-.747.08-1.046.15-41.465 8.97-81.724-13.81-90.25-51.29-8.525-37.46 17.951-75.5 59.169-85.5.307-.06.727-.21 1.046-.29.204-.04.391-.1.595-.14 5.86-1.38 13.322-3.34 18.677-4.36 24.334-4.63 44.148-3.48 67.101-5.39 48.889-5.15 89.387-9.33 125.369-20.7 11.409-4.7 22.317-20.44 30.035-30.44l29.279-8.56c-32.816-228.1 22.725-451.96 142.712-633.2l-22.426-20.1c-1.429-8.76-3.305-29.01-14.044-40.5-27.502-25.92-62.165-47.41-103.989-73.34-19.852-11.72-38.055-19.27-57.979-34.04-4.238-3.14-9.885-7.95-14.495-11.7-.343-.27-.706-.47-1.046-.75-33.552-26.84-41.257-73.17-17.181-103.48 13.543-17.05 34.229-25.48 55.727-24.74 16.72.58 34.033 6.69 48.712 18.44 4.77 3.79 11.277 8.77 15.541 12.45 18.776 16.21 30.223 32.22 46.026 49.04 34.489 35.16 62.993 64.35 94.288 85.5 16.436 9.61 29.052 5.73 41.538 4.03 4.018 2.98 17.534 12.72 25.257 18.01 119.026-126.76 275.357-220.64 456.927-262.02 42.2-9.61 84.45-16 126.42-19.49l1.64-29.69c9.31-9.05 19.76-22.07 22.72-36.3 3.04-37.74-1.89-78.35-7.77-127.334-3.25-22.887-8.64-41.895-9.56-66.736-.19-5.095.09-12.151.14-18.004-.01-.657-.14-1.292-.14-1.953-.01-43.069 31.31-77.97 69.93-77.974zM895.184 1725.98c0-46.79-103.908-91-103.908-91-81.509 133.28-120.121 293.14-102.203 457.59 0 0 206.111-46.09 206.111-53.93 0-1.94.525-3.89.525-5.94 0-30.96-.525-298.35-.525-306.72zm0 511.08c0-5.11-166.665 27.07-166.665 27.07 55.715 154.72 159.872 280.83 290.631 365.05 0 0 46.44-92.63 38.8-92.63h-78.128c-39.544 0-84.638-38.59-84.638-78.13 0-29.19.292-95.83.292-123.7 0 0-.292-45.3-.292-97.66zm371.106 299.49c-22.59 0-89.04 169.28-89.04 169.28 122.85 42.01 258.51 51.41 394.62 20.39 24.28-5.53 48.02-12.19 71.12-19.96 0 0-67.99-169.6-90.23-169.71-64.09-.32-263.89 0-286.47 0zm498.06 0c-14.29 0 36.89 93.98 36.89 93.98 136.26-87.12 238.23-217.32 291.52-367.6 0 0-168.9-29.49-168.9-25.87v221.03c0 38.43-46.21 78.46-84.64 78.46h-74.87zm159.51-505.1c0 10.12 207.16 59.91 207.16 59.91 7.49-76.62 2.94-155.89-15.24-235.31-18.39-80.39-49.29-154.54-90.1-220.93 0 0-101.82 41.82-101.82 87.6v308.73zm-26.04-523.58c13.09 0 18.32-10.27 18.32-10.27-112.75-110.82-259.88-183.13-418.98-202.77 0 0-4.34 213.04 10.02 213.04h390.64zm-589.21 0c11.71 0 13.28-213.04 13.28-213.04-24.79 3.01-49.68 7.23-74.57 12.9-136.27 31.06-254.526 98.49-346.971 189.73 0 0 14.354 10.41 20.878 10.41h387.383zm-310.121 53.27c-28.192 0-51.39 23.49-51.39 52.03 0 28.54 23.198 52.02 51.39 52.02 28.191 0 51.391-23.48 51.391-52.02 0-28.54-23.2-52.03-51.391-52.03zm154.171 0c-28.19 0-51.39 23.49-51.39 52.03 0 28.54 23.2 52.02 51.39 52.02s51.39-23.48 51.39-52.02c0-28.54-23.2-52.03-51.39-52.03zm668.07 0c-28.19 0-51.39 23.49-51.39 52.03 0 28.54 23.2 52.02 51.39 52.02s51.39-23.48 51.39-52.02c0-28.54-23.2-52.03-51.39-52.03zm-411.12 0c-28.19 0-51.39 23.49-51.39 52.03 0 28.54 23.2 52.02 51.39 52.02s51.39-23.48 51.39-52.02c0-28.54-23.2-52.03-51.39-52.03zm-248.89 171.05c-51.93 0-93.71 42.3-93.71 94.87v503.89c0 52.57 41.78 94.91 93.71 94.91h497.74c51.93 0 93.75-42.34 93.75-94.91v-503.89c0-52.57-41.82-94.87-93.75-94.87h-497.74zm505.84-171.05c-28.19 0-51.39 23.49-51.39 52.03 0 28.54 23.2 52.02 51.39 52.02s51.39-23.48 51.39-52.02c0-28.54-23.2-52.03-51.39-52.03z"/><g fill-rule="nonzero" transform="matrix(17.13 0 0 17.3417 -2025.92 -1688.55)"><path id="rect5" d="M206.079 203c-.209-.141-.481-.156-.704-.039-.224.118-.365.347-.365.598v2.499c0 .179-.071.35-.199.477-.128.126-.302.197-.483.197h-18.087c-.181 0-.355.071-.484.198-.128.127-.2.299-.2.479v3.891c0 .179.072.35.2.477s.302.198.483.198h18.088c.377 0 .682.302.682.674v2.504c0 .254.143.488.37.607.228.119.503.104.716-.039 1.543-1.037 4.188-2.812 4.188-2.812s2.974-2 4.455-2.995c.184-.124.294-.33.294-.55 0-.22-.11-.426-.294-.549-1.482-.995-4.455-2.992-4.455-2.992s-2.664-1.788-4.205-2.823z"/><path id="rect6" d="M195.039 218.832c.209-.141.48-.155.703-.039.223.117.363.346.363.596v2.503c0 .179.072.35.2.476.128.127.301.198.482.198h18.088c.18 0 .354.071.482.197s.2.298.2.476v3.899c0 .178-.072.35-.2.476s-.302.197-.482.197h-18.074c-.184 0-.362.073-.492.202-.131.129-.204.304-.204.486v2.51c0 .25-.14.479-.363.596-.223.117-.494.102-.703-.038-1.54-1.035-4.207-2.825-4.207-2.825s-2.96-1.989-4.446-2.987c-.186-.126-.298-.334-.298-.558 0-.223.112-.431.299-.557 1.485-.997 4.445-2.983 4.445-2.983s2.667-1.791 4.207-2.825z"/></g></g></g></g></g></svg>