<svg xmlns="http://www.w3.org/2000/svg" role="img" viewBox="-16.86 -16.86 1032.72 1032.72"><style>svg {enable-background:new 0 0 1000 1000}</style><style>.st0{fill:#8162aa}.st1{fill:#1e2322}.st2{fill:#e8282b}.st3{fill:#98ca3f}.st4{fill:#cbdd72}.st5{fill:#f07525}.st6{fill:#f8c519}.st8{fill:#6389c6}</style><g><path d="M996.7 942.7L3.3 942.7 53 844.2 3.3 755.3 996.7 755.3 947 844.2z" class="st0"/><path d="M910.4 810L90.9 810 246 734 755.3 734z" class="st1"/><g><path d="M745.4 849L990.8 426.2 944.9 426.2 722.5 809.3" class="st2"/><path d="M471.2 809.3L277.5 809.3 55.1 426.2 9.2 426.2 254.6 849 472.9 849" class="st3"/><path d="M55.1 426.2L277.4 43.2 254.6 3.3 254.6 3.3 9.2 426.2 55.1 426.2z" class="st4"/><path d="M722.5 43.1L944.9 426.2 944.9 426.2 990.8 426.2 745.4 3.3 745 3.3 722.2 43.1z" class="st5"/><path d="M277.5 43.1L722.2 43.1 745 3.3 254.6 3.3 277.4 43.2z" class="st6"/><path fill="#e0e1e2" d="M277.5 809.3L722.5 809.3 944.9 426.2 55.1 426.2zM722.5 43.1L722.2 43.1 689.1 100.7 722.2 43.1 277.5 43.1 277.4 43.2 289.4 64.1 277.4 43.2 55.1 426.2 55.1 426.2 944.9 426.2 944.9 426.2z"/></g><path d="M91.5 809.3H908.5V996.6999999999999H91.5z" class="st8"/><g><path d="M297.2,581.4c4.6,0,9.1,0.5,13.6,1.5c3.9,0.8,7.6,2.3,11.1,4.2v13.4c-3.9-1.5-7.9-2.8-11.9-3.7 c-3.6-0.8-7.4-1.2-11.1-1.2c-4,0-8,0.7-11.9,2c-4,1.3-7.6,3.5-10.5,6.5c-3.3,3.4-5.9,7.4-7.5,11.9c-2,5.9-3,12.1-2.9,18.3 c0,5,0.7,9.9,2.1,14.7c1.3,4.3,3.4,8.2,6.3,11.6c2.8,3.3,6.4,5.9,10.5,7.6c4.6,1.9,9.6,2.9,14.5,2.8c4.1,0,8.1-0.5,12.1-1.3 c4.1-0.9,8-2.1,11.9-3.7v13.4c-1.5,0.8-3,1.5-4.6,2.1c-2,0.7-4.1,1.3-6.2,1.8c-2.4,0.5-4.8,1-7.2,1.2c-2.5,0.3-5.1,0.5-7.6,0.5 c-6.4,0-12.7-1-18.7-3c-5.7-1.9-11-5.1-15.4-9.2c-4.6-4.4-8.1-9.8-10.4-15.7c-2.7-7.2-4.1-14.8-3.9-22.5c-0.1-5.9,0.6-11.8,2-17.5 c1.2-4.8,3.1-9.4,5.5-13.7c2.2-3.8,5-7.2,8.2-10c6-5.3,13.2-9,21-10.6C289.7,581.8,293.5,581.4,297.2,581.4L297.2,581.4z M348.5,560.7v-17.8h16.6v17.8H348.5z M348.9,682v-98.3h16.7V682H348.9z M398.4,682V532.2h15.7V682H398.4z M447.6,560.7v-17.8h16 v17.8H447.6z M448,682v-98.3h16V682H448z M535,684.8c-4.7,0.1-9.3-0.5-13.9-1.7c-3.8-0.9-7.5-2.5-10.8-4.6c-3-1.9-5.7-4.4-7.8-7.2 c-2.2-2.8-3.9-5.9-5.1-9.2c-1-2.6-1.7-5.4-2.1-8.2c-0.4-3.2-0.6-6.5-0.6-9.7v-60.6h16.1v60.4c-0.1,4.7,0.6,9.3,2.2,13.7 c1.6,4,4.4,7.5,8.1,9.8c4.3,2.5,9.2,3.8,14.2,3.6c5.2,0.3,10.4-1.1,14.7-3.9c3.7-2.6,6.5-6.3,8-10.6c1.3-4.1,1.9-8.3,1.7-12.6 v-60.4h16.1v60.6c0,3.1-0.2,6.2-0.6,9.3c-0.3,2.7-1,5.4-1.8,8c-1.3,3.4-3,6.5-5.2,9.4c-2.2,2.9-5,5.4-8.1,7.4 c-3.5,2.2-7.2,3.8-11.2,4.8C544.5,684.3,539.8,684.9,535,684.8L535,684.8z M686.2,682h-16.1v-63c0.1-3.7-0.4-7.3-1.4-10.9 c-0.8-2.7-2.2-5.2-4-7.4c-1.7-1.9-3.9-3.3-6.3-4.2c-2.6-0.9-5.4-1.4-8.2-1.4c-5.5,0-11,1.6-15.6,4.6c-5,3.4-9.3,7.7-12.6,12.6V682 h-16.1v-98h12.4l3.1,13.6h0.3c1.8-2.3,3.8-4.4,5.9-6.3c2.1-2,4.5-3.7,7-5.1c2.7-1.5,5.6-2.7,8.5-3.5c3.3-0.8,6.7-1.3,10.1-1.2 c6.5-0.2,12.9,1.6,18.2,5.2c5,3.7,8.8,8.6,11.1,14.3h0.4c4-5.7,9-10.6,14.9-14.4c5.9-3.5,12.7-5.3,19.6-5.2c3.7,0,7.4,0.5,11,1.4 c3.9,1,7.5,2.8,10.7,5.3c3.5,2.9,6.3,6.5,8.1,10.7c2.3,5.5,3.4,11.5,3.2,17.5V682h-16.1v-63c0.1-3.7-0.4-7.3-1.4-10.9 c-0.8-2.7-2.2-5.3-4.1-7.4c-1.7-1.9-3.9-3.3-6.3-4.2c-2.6-0.9-5.4-1.4-8.2-1.4c-5.5,0-11,1.6-15.6,4.6c-5,3.3-9.3,7.6-12.7,12.6 V682z" class="st1"/><path d="M355.2,202h59.2l29.6,51.3l-29.6,51.3h-59.2l-29.6-51.3L355.2,202z" class="st4"/><path d="M355.2,334h59.2l29.6,51l-29.6,51h-59.2l-29.6-51L355.2,334z" class="st3"/><path d="M470.8,398.9H530l29.6,51l-29.6,51h-59.2l-29.6-51L470.8,398.9z" class="st8"/><path d="M470.8,266.9H530l29.6,51.3L530,369.6h-59.2l-29.6-51.3L470.8,266.9z" class="st2"/><path d="M470.8,135.7H530l29.6,51l-29.6,51h-59.2l-29.6-51L470.8,135.7z" class="st6"/><path d="M585.4,202h60.3l30.1,51.3l-30.1,51.3h-60.3l-30.1-51.3L585.4,202z" class="st5"/><path d="M585.4,334h60.3l30.1,51l-30.1,51h-60.3l-30.1-51L585.4,334z" class="st0"/><path fill="#373737" d="M535.2,257.7h-70.7L429,318.8l35.5,60.8h70.7l35.7-60.8L535.2,257.7z M526,363.3h-51.8l-26.4-44.4l26.2-45h52 l26.2,45L526,363.3z M535.2,388.9h-70.7L429,450l35.5,60.8h70.7L571,450L535.2,388.9z M526,494.5h-51.8l-26.4-44.4l26.2-45h52 l26.2,45L526,494.5z M535.2,126.4h-70.7L429,187.6l35.5,60.7h70.7l35.7-60.7L535.2,126.4z M526,232.1h-51.8l-26.4-44.5l26.2-44.9 h52l26.1,44.9L526,232.1z M650.7,323.3H580l-35.4,61.2l35.4,60.8h70.7l35.7-60.8L650.7,323.3z M641.4,428.9h-51.8l-26.2-44.4 l26.2-45h51.8l26.2,45L641.4,428.9z M650.7,192H580l-35.4,61.5l35.4,61.1h70.7l35.7-61.1L650.7,192z M641.4,298.3h-51.8 l-26.2-44.6l26.2-45.2h51.8l26.2,45.2L641.4,298.3z M419.9,323.3h-70.4l-35.3,61.2l35.3,60.8h70.4l35.6-60.8L419.9,323.3z M410.6,428.9H359l-26.1-44.4l26.1-45h51.6l26.1,45L410.6,428.9z M419.9,192h-70.4l-35.3,61.5l35.3,61.1h70.4l35.6-61.1L419.9,192 z M410.6,298.3H359l-26.1-44.7l26.1-45.2h51.6l26.1,45.2L410.6,298.3z"/></g><g><path fill="#fff" d="M301.9 852.2l-6.3 7.7c-3.3-3.8-8.1-6.3-12.6-6.3-8.3 0-14.7 6.4-14.7 14.8s6.4 14.9 14.7 14.9c4.3 0 9.1-2.2 12.6-5.7l6.4 7c-5.1 5.2-12.5 8.6-19.5 8.6-14.4 0-25.3-10.7-25.3-24.7 0-13.9 11.1-24.4 25.7-24.4C289.8 844.2 297.1 847.3 301.9 852.2zM335.9 853.6v10.5h23.3v9h-23.3v10.7h26.6v9H325v-48.3h36.8v9H335.9zM409.6 879h-1-10.1v13.8h-10.9v-48.3h21c12.6 0 19.8 6.1 19.8 16.8 0 7.5-3.2 12.8-9 15.6l10.3 15.9h-12.3L409.6 879zM408.6 869.9c6 0 9.5-2.8 9.5-8.3 0-5.4-3.4-8.1-9.5-8.1h-10.1v16.3H408.6zM475 853.8v39h-10.9v-39h-14.7v-9.2h40.4v9.2H475zM512.1 892.8v-48.3H523v48.3H512.1zM561.2 853.6v11.9H583v9.1h-21.8v18.3h-10.9v-48.3H585l-.1 9H561.2zM607.9 892.8v-48.3h10.9v48.3H607.9zM656.9 853.6v10.5h23.3v9h-23.3v10.7h26.6v9H646v-48.3h36.8v9H656.9zM729.2 844.5c15 0 25.4 9.9 25.4 24.1 0 14.2-10.6 24.1-25.8 24.1h-20.1v-48.3H729.2zM719.6 883.6h9.9c8.1 0 14-6.1 14-14.9 0-8.9-6.2-15-14.5-15h-9.4V883.6zM255.1 953.1l-3.8 9.4h-11.2l21-48.3h11.2l20.6 48.3h-11.7l-3.8-9.4H255.1zM266.4 925.5l-7.7 18.8H274L266.4 925.5zM350.3 918.9l-4.2 9c-5.1-3-11.2-5-15-5-3.7 0-6.1 1.3-6.1 3.9 0 8.9 25.7 3.9 25.7 21.3 0 9.5-8.2 14.6-18.9 14.6-7.9 0-15.9-3-21.3-7.7l4.3-8.9c5 4.4 12 7.2 17.1 7.2 4.5 0 7.2-1.7 7.2-4.6 0-9.1-25.7-3.8-25.7-20.9 0-8.8 7.5-14.3 18.7-14.3C338.7 913.7 345.4 915.7 350.3 918.9zM410.7 918.9l-4.2 9c-5.1-3-11.2-5-15-5-3.7 0-6.1 1.3-6.1 3.9 0 8.9 25.7 3.9 25.7 21.3 0 9.5-8.2 14.6-18.9 14.6-7.9 0-15.9-3-21.3-7.7l4.3-8.9c5 4.4 12 7.2 17.1 7.2 4.5 0 7.2-1.7 7.2-4.6 0-9.1-25.7-3.8-25.7-20.9 0-8.8 7.5-14.3 18.7-14.3C399.2 913.7 405.9 915.7 410.7 918.9zM483.7 938.3c0 13.9-11.2 24.6-25.9 24.6s-25.9-10.6-25.9-24.6c0-14.1 11.2-24.5 25.9-24.5S483.7 924.3 483.7 938.3zM443 938.3c0 8.5 6.8 15.1 14.9 15.1s14.6-6.6 14.6-15.1-6.6-15-14.6-15C449.7 923.3 443 929.8 443 938.3zM547.5 921.8l-6.3 7.7c-3.3-3.8-8.1-6.3-12.6-6.3-8.3 0-14.7 6.4-14.7 14.8s6.4 14.9 14.7 14.9c4.3 0 9.1-2.2 12.6-5.7l6.4 7c-5.1 5.2-12.5 8.6-19.5 8.6-14.4 0-25.3-10.7-25.3-24.7 0-13.9 11.1-24.4 25.7-24.4C535.4 913.8 542.7 916.9 547.5 921.8zM570.6 962.4v-48.3h10.9v48.3H570.6zM618.2 953.1l-3.8 9.4h-11.2l21-48.3h11.2l20.6 48.3h-11.7l-3.8-9.4H618.2zM629.5 925.5l-7.7 18.8h15.2L629.5 925.5zM693.4 923.4v39h-10.9v-39h-14.7v-9.2h40.4v9.2H693.4zM741.5 923.2v10.5h23.3v9h-23.3v10.7h26.6v9h-37.5v-48.3h36.8v9H741.5z"/></g></g></svg>