<svg xmlns="http://www.w3.org/2000/svg" role="img" viewBox="-0.32 -0.32 614.64 376.14"><defs><clipPath id="clip-path"><path d="M404.599 352.906h198.047v.972H404.599z" class="cls-1"/></clipPath><clipPath id="clip-path-2"><path d="M11.834 352.906h194.838v.972H11.834z" class="cls-1"/></clipPath><clipPath id="clip-path-3"><path d="M236.202 12.677h.972v195.018h-.972z" class="cls-1"/></clipPath><style>.cls-1,.cls-4{fill:#221f1f}.cls-4{fill-rule:evenodd}</style></defs><path d="M404.599 352.906h198.047v.972H404.599z" class="cls-1"/><path d="M404.599 352.906h198.047v.972H404.599z" class="cls-1"/><g clip-path="url(#clip-path)"><path d="M404.6 352.906h198.046v.972H404.6z" class="cls-1"/></g><path d="M11.834 352.906h194.838v.972H11.834z" class="cls-1"/><path d="M11.834 352.906h194.838v.972H11.834z" class="cls-1"/><g clip-path="url(#clip-path-2)"><path d="M11.834 352.906h194.837v.972H11.834z" class="cls-1"/></g><path d="M177.713 179.353a33.135 33.135 0 013.908-.818 32.22 32.22 0 015.024-.377 12.208 12.208 0 014.446.698 6.668 6.668 0 012.811 1.973 7.692 7.692 0 011.475 3.03 16.118 16.118 0 01.44 3.907v11.844h-5.943v-11.125a8.01 8.01 0 00-.757-4.068 3.092 3.092 0 00-2.83-1.195c-.426 0-.878.018-1.356.058q-.72.062-1.276.141v16.19h-5.942zm-10.963 9.73a7.471 7.471 0 00-1.097-4.327 3.586 3.586 0 00-3.13-1.574 3.636 3.636 0 00-3.15 1.574 7.367 7.367 0 00-1.116 4.327 7.56 7.56 0 001.117 4.366 3.607 3.607 0 003.15 1.614 3.558 3.558 0 003.13-1.614 7.667 7.667 0 001.096-4.366m6.061 0a13.629 13.629 0 01-.718 4.526 9.875 9.875 0 01-2.073 3.51 9.354 9.354 0 01-3.25 2.252 10.845 10.845 0 01-4.247.797 10.732 10.732 0 01-4.206-.797 9.345 9.345 0 01-3.25-2.253 10.344 10.344 0 01-2.114-3.509 13.009 13.009 0 01-.757-4.526 12.514 12.514 0 01.777-4.506 10.22 10.22 0 012.153-3.469 9.7 9.7 0 013.27-2.234 11.19 11.19 0 018.294 0 9.48 9.48 0 013.25 2.234 10.151 10.151 0 012.113 3.469 12.816 12.816 0 01.758 4.506m-32.296 11.085q-6.739 0-10.268-3.747-3.529-3.75-3.528-10.647a16.382 16.382 0 011.076-6.121 13.219 13.219 0 012.95-4.547 12.344 12.344 0 014.467-2.81 16.072 16.072 0 015.622-.957 18.101 18.101 0 013.19.259 21.2 21.2 0 012.512.597 12.42 12.42 0 011.794.699q.719.358 1.037.558l-1.794 5.024a15.043 15.043 0 00-2.97-1.156 14.153 14.153 0 00-3.849-.479 8.474 8.474 0 00-2.81.48 6.338 6.338 0 00-2.432 1.535 7.621 7.621 0 00-1.695 2.73 11.452 11.452 0 00-.639 4.067 14.485 14.485 0 00.42 3.57 7.557 7.557 0 001.355 2.85 6.5 6.5 0 002.453 1.894 8.718 8.718 0 003.668.699 16.904 16.904 0 002.431-.16 17.73 17.73 0 001.915-.38 10.14 10.14 0 001.476-.497c.425-.187.81-.359 1.155-.52l1.716 4.985a14.555 14.555 0 01-3.71 1.435 21.592 21.592 0 01-5.542.639m-23.643-13.159a6.082 6.082 0 00-.258-1.474 3.696 3.696 0 00-.679-1.277 3.591 3.591 0 00-1.155-.917 3.774 3.774 0 00-1.735-.36 3.98 3.98 0 00-1.715.34 3.537 3.537 0 00-1.197.897 4.025 4.025 0 00-.737 1.296 8.491 8.491 0 00-.38 1.495zm-13.956 2.273a12.803 12.803 0 01.858-4.884 10.447 10.447 0 012.253-3.489 9.347 9.347 0 013.21-2.113 10.04 10.04 0 013.728-.719 9.264 9.264 0 017.057 2.732q2.593 2.73 2.592 8.034 0 .517-.04 1.138-.033.548-.08 1.096h-13.477a3.948 3.948 0 001.715 2.91 6.886 6.886 0 004.067 1.076 17.18 17.18 0 003.21-.298 12.117 12.117 0 002.572-.738l.798 4.825a8.158 8.158 0 01-1.277.478 16.923 16.923 0 01-1.774.42q-.978.18-2.094.298a21.216 21.216 0 01-2.233.12 13.22 13.22 0 01-4.924-.838 9.57 9.57 0 01-3.47-2.292 9.092 9.092 0 01-2.032-3.45 13.62 13.62 0 01-.659-4.306m-3.905-.16a13.285 13.285 0 01-.737 4.547 9.59 9.59 0 01-2.134 3.468 9.36 9.36 0 01-3.429 2.213 12.854 12.854 0 01-4.625.777q-1.076 0-2.253-.098-1.176-.1-2.313-.26-1.135-.158-2.173-.38-1.036-.218-1.834-.457v-29.307l5.941-.958v10.446a11.206 11.206 0 012.074-.677 10.648 10.648 0 012.313-.238 9.468 9.468 0 013.946.776 7.727 7.727 0 012.87 2.213 9.925 9.925 0 011.757 3.45 15.744 15.744 0 01.597 4.486m-6.06-.16q0-5.743-4.228-5.741a7.009 7.009 0 00-1.813.239 5.16 5.16 0 00-1.456.598v10.805q.439.08 1.117.14t1.475.06a4.272 4.272 0 003.67-1.674 7.288 7.288 0 001.234-4.427m-19.335 9.929a33.154 33.154 0 01-3.909.818 32.206 32.206 0 01-5.024.378 11.936 11.936 0 01-4.446-.717 6.764 6.764 0 01-2.811-2.013 7.86 7.86 0 01-1.475-3.092 16.664 16.664 0 01-.438-3.948v-11.683h5.941v10.966a8.51 8.51 0 00.757 4.147 3.012 3.012 0 002.83 1.275c.426 0 .88-.018 1.357-.059q.718-.06 1.275-.14v-16.189h5.943zm-27.432.718q-.836-1.357-1.973-2.932-1.137-1.574-2.472-3.15-1.336-1.574-2.772-3.03a29.245 29.245 0 00-2.872-2.57v11.682h-6.219v-27.633h6.22v10.446q2.432-2.55 4.886-5.322 2.451-2.771 4.565-5.124h7.377q-2.833 3.348-5.682 6.459-2.851 3.112-6.002 6.26a47.52 47.52 0 016.4 6.54 78.407 78.407 0 015.921 8.374z" class="cls-1"/><path d="M96.053 77.667l-3.414.73q-.052-.727-.053-1.457a19.794 19.794 0 012.908-10.356l6.688 5.966.359.314a10.667 10.667 0 00-.756 3.165c-.221.06-.442.12-.662.184zM109.06 57.35v9.395a10.721 10.721 0 00-2.616 1.297q-.45-.338-.906-.665l-6.79-4.827a19.815 19.815 0 0110.312-5.2M62.417 78.993c3.268-14.315 6.017-26.363 9.284-40.68 1.476-6.465 2.422-8.11 8.246-11.457l22.711-13.053c5.38-3.093 6.403-2.86 6.403 3.729V50.69a26.392 26.392 0 00-15.751 7.993l-2.874-2.042a1.847 1.847 0 01-.705-.93 4.51 4.51 0 00-1.522-2.289 3.157 3.157 0 00-3.937 4.937 4.132 4.132 0 001.56.802c.377.097.755.124 1.135.187a1.54 1.54 0 01.862.399l2.69 2.4a26.348 26.348 0 00-4.518 14.793 26.72 26.72 0 00.153 2.843l-5.805 1.24a4.034 4.034 0 00-1.205.114 3.092 3.092 0 00-.836.323c-3.805.815-7.644 1.637-11.556 2.48-5.312 1.144-5.489.106-4.335-4.947m53.46-12.248V57.35a19.823 19.823 0 0110.253 5.145l-7.41 5.269c-.103.074-.208.149-.31.224a10.674 10.674 0 00-2.534-1.243m16.457 11.04l-9.215-2.103a10.595 10.595 0 00-.756-2.905c.085-.073.17-.148.253-.222l6.78-6.05a19.8 19.8 0 012.956 10.435q0 .422-.018.845m-11.988-50.698L133.87 33.6l20.76 9.998 5.127 22.463 2.586 11.327c1.589 6.968 1.432 7.574-5.757 5.932l-17.752-4.051q.102-1.162.103-2.33a26.346 26.346 0 00-4.57-14.868l2.529-2.256a1.829 1.829 0 011.063-.481 4.511 4.511 0 002.57-.975 3.157 3.157 0 10-3.937-4.937 4.172 4.172 0 00-1.13 1.343c-.177.345-.288.708-.435 1.066a1.54 1.54 0 01-.579.75l-2.874 2.044a26.398 26.398 0 00-15.698-7.934V30.436c0-4.751.422-5.297 4.469-3.349m-6.068 60.392a10.813 10.813 0 01-3.514.018c-.105.196-.211.394-.319.589l-4.257 7.722a19.957 19.957 0 0012.657-.031l-4.206-7.627q-.183-.334-.361-.67m7.443-5.15l9.173 2.094a19.963 19.963 0 01-7.431 9.085l-3.65-8.787a10.766 10.766 0 001.908-2.392m-27.676 2.094l9.174-2.094a10.718 10.718 0 001.991 2.468q-.125.286-.246.575l-3.402 8.192a19.957 19.957 0 01-7.517-9.14m75.288 16.13l-10.784 13.522-13.998 17.555c-3.588 4.499-6.094 4.637-12.015 4.637H92.288c-7.714 0-8.219-.022-12.928-5.927l-12.972-16.265c-3.646-4.572-4.58-5.745-8.228-10.317-5.673-7.116-6.596-9.64 2.19-11.645l27.21-6.21a26.55 26.55 0 0011.442 13.823l-1.199 2.886a1.841 1.841 0 01-.75.895 4.516 4.516 0 00-1.891 1.993 3.157 3.157 0 105.689 2.74 4.138 4.138 0 00.434-1.7c.01-.388-.047-.763-.07-1.148a1.544 1.544 0 01.196-.929l1.553-2.816a26.562 26.562 0 0019.099-.036l1.524 2.763a1.84 1.84 0 01.232 1.144 4.52 4.52 0 00.379 2.722 3.157 3.157 0 105.72-2.672l-.032-.068a4.12 4.12 0 00-1.058-1.4c-.295-.25-.626-.44-.94-.661a1.535 1.535 0 01-.604-.732l-1.26-3.034a26.547 26.547 0 0011.353-13.772l30.015 6.852c5.827 1.33 5.4 3.463 1.94 7.8" class="cls-4"/><path d="M115.876 66.745V57.35a19.823 19.823 0 0110.254 5.145l-7.41 5.269c-.103.074-.208.149-.31.224a10.674 10.674 0 00-2.534-1.243m16.457 11.04l-9.215-2.103a10.595 10.595 0 00-.756-2.905c.085-.073.17-.148.253-.222l6.78-6.05a19.8 19.8 0 012.956 10.435q0 .422-.018.845m-11.988-50.698L133.87 33.6l20.76 9.998 5.127 22.463 2.586 11.327c1.589 6.968 1.432 7.574-5.757 5.932l-17.752-4.051q.102-1.162.103-2.33a26.346 26.346 0 00-4.57-14.868l2.529-2.256a1.829 1.829 0 011.063-.481 4.511 4.511 0 002.57-.975 3.157 3.157 0 10-3.937-4.937 4.172 4.172 0 00-1.13 1.343c-.177.345-.288.708-.435 1.066a1.54 1.54 0 01-.579.75l-2.874 2.044a26.398 26.398 0 00-15.698-7.934V30.436c0-4.751.422-5.297 4.469-3.349m1.375 55.243l9.173 2.094a19.963 19.963 0 01-7.431 9.085l-3.65-8.787a10.766 10.766 0 001.908-2.392m-9.252 14.492v-9.19a10.862 10.862 0 001.809-.153c.12.225.239.448.361.671l4.206 7.626a19.882 19.882 0 01-6.376 1.046m56.864 3.734l-10.784 13.521-13.998 17.555c-3.588 4.499-6.094 4.637-12.015 4.637h-20.067v-32.862a26.417 26.417 0 009.595-1.794l1.524 2.763a1.84 1.84 0 01.232 1.144 4.52 4.52 0 00.379 2.722 3.157 3.157 0 005.72-2.672l-.032-.068a4.12 4.12 0 00-1.058-1.4c-.295-.25-.626-.44-.94-.661a1.535 1.535 0 01-.604-.732l-1.26-3.034a26.547 26.547 0 0011.353-13.772l30.015 6.852c5.827 1.33 5.4 3.463 1.94 7.8" class="cls-4"/><path d="M391.73 99.426h-15.94v37.186h37.184v-15.938H391.73zm79.678.119v21.129h-21.13l-.117-.117v16.055h37.183V99.426h-16.056l.12.119zM375.79 62.246h16.058l-.119-.121V40.994h21.129l.116.119V25.058H375.79zm74.371-37.188v15.936h21.247v21.252h15.937V25.058h-37.184z" class="cls-1"/><path fill="#221f1f" d="M448.193 62.246l-21.251-21.252h23.218V25.058h-37.186v16.055l21.132 21.133h14.087zm-19.165 37.18h-14.084l17.606 17.609 3.642 3.639h-23.219v15.938h37.188v-16.055l-10.568-10.567-10.565-10.564zm42.38-37.18V85.46l-3.641-3.641-17.606-17.605V78.3l10.562 10.561 10.565 10.565h16.056v-37.18h-15.936zM412.974 83.37l-21.126-21.124H375.79v37.18h15.94V76.211l21.244 21.245z" opacity=".8"/><path d="M298.022 177.169l-4.037 4.782a9.385 9.385 0 00-6.898-3.566 7.653 7.653 0 00-7.648 7.658q0 .149.006.297c0 4.586 3.292 8.073 7.642 8.073a10.28 10.28 0 006.898-3.213l4.076 4.31a16.563 16.563 0 01-11.327 5.017c-8.269 0-14.422-6.075-14.422-14.108 0-7.917 6.31-13.875 14.658-13.875a15.933 15.933 0 0111.052 4.625zm3.373 23.045v-29.08h6.78v29.08zm33.705-10.582c0 6.506-4.624 10.817-11.521 10.817-6.938 0-11.562-4.311-11.562-10.817s4.624-10.778 11.562-10.778c6.897 0 11.521 4.273 11.521 10.778zm-16.264.078c0 3.292 1.92 5.487 4.743 5.487 2.782 0 4.702-2.195 4.702-5.487 0-3.252-1.92-5.486-4.702-5.486-2.823 0-4.743 2.234-4.743 5.486zm40.487 10.504h-6.78v-3.488a7.418 7.418 0 01-6.858 3.762c-4.586 0-7.564-3.136-7.564-8.073V179.09h6.78v11.404c0 2.508 1.371 4.037 3.527 4.037 2.586-.039 4.115-2.155 4.115-5.016V179.09h6.78zm26.692 0h-6.781v-2.783a7.643 7.643 0 01-6.349 3.057c-5.957 0-9.876-4.39-9.876-10.935 0-6.466 3.88-10.738 9.72-10.738a7.839 7.839 0 016.505 3.057v-10.738h6.78zm-6.781-10.504c0-3.252-1.88-5.486-4.702-5.486-2.823 0-4.704 2.234-4.742 5.486.038 3.253 1.92 5.526 4.742 5.526 2.821 0 4.702-2.273 4.702-5.526zm31.591 10.504l-12.62-16.892v16.892h-6.544V172.78h6.153l12.658 16.93v-16.93h6.507v27.434zm30.298-13.795v13.795H434.5v-2.43c-1.371 1.802-3.605 2.743-6.466 2.743-4.507 0-7.25-2.743-7.25-6.623 0-3.998 2.86-6.35 8.111-6.388h5.566v-.314c0-2.077-1.372-3.331-4.116-3.331a14.848 14.848 0 00-6.309 1.764l-1.92-4.468a22.29 22.29 0 019.797-2.39c5.8 0 9.171 2.86 9.21 7.642zm-6.662 6.623v-1.882h-4.272c-2.038 0-3.057.706-3.057 2.274 0 1.528 1.097 2.508 2.98 2.508a4.278 4.278 0 004.35-2.9zm24.928 6.035a11.495 11.495 0 01-5.644 1.45c-4.076 0-7.015-2.312-7.015-6.701v-9.328h-2.939v-4.429h2.94v-5.878h6.74v5.84h5.526v4.467h-5.526v8.27c0 1.645.705 2.35 1.96 2.312a7.33 7.33 0 002.625-.706zm10.387-26.062a3.566 3.566 0 11-3.567-3.566 3.447 3.447 0 013.567 3.323q.004.121 0 .243zm-6.976 27.199V179.09h6.741v21.124zm17.245 0l-7.956-21.124h6.976l4.546 14.931 4.586-14.931h6.74l-7.956 21.124zm37.233-8.74h-14.853a4.883 4.883 0 004.977 3.919 7.136 7.136 0 005.056-2.155l3.567 3.488a12.142 12.142 0 01-9.21 3.723c-6.898 0-11.21-4.311-11.21-10.739 0-6.544 4.469-10.856 11.014-10.856 7.446 0 11.13 4.9 10.66 12.62zm-6.505-3.645a3.942 3.942 0 00-4.076-4.271c-2.352 0-3.959 1.724-4.39 4.271zm34.138-10.66l-4.037 4.782a9.385 9.385 0 00-6.897-3.566 7.653 7.653 0 00-7.648 7.658q0 .149.006.297c0 4.586 3.292 8.073 7.642 8.073a10.28 10.28 0 006.897-3.213l4.076 4.31a16.563 16.563 0 01-11.326 5.017c-8.269 0-14.422-6.075-14.422-14.108 0-7.917 6.31-13.875 14.657-13.875a15.933 15.933 0 0111.052 4.625zm23.713 12.463c0 6.506-4.624 10.817-11.522 10.817-6.937 0-11.562-4.311-11.562-10.817s4.625-10.778 11.562-10.778c6.898 0 11.522 4.273 11.522 10.778zm-16.264.078c0 3.292 1.92 5.487 4.742 5.487 2.783 0 4.703-2.195 4.703-5.487 0-3.252-1.92-5.486-4.703-5.486-2.822 0-4.742 2.234-4.742 5.486zm41.467-2.821v13.325h-6.741V188.77c0-2.469-1.45-3.998-3.723-3.998-2.47 0-4.037 1.764-4.311 4.272v11.17h-6.78V179.09h6.78v3.448a7.84 7.84 0 017.054-3.761c4.664 0 7.72 3.174 7.72 8.112zM236.202 12.677h.972v195.018h-.972z" class="cls-1"/><path d="M236.202 12.677h.972v195.018h-.972z" class="cls-1"/><g clip-path="url(#clip-path-3)"><path d="M236.202 12.677h.972v195.018h-.972z" class="cls-1"/></g><path d="M237.959 345.63a4.704 4.704 0 00-4.036 1.956 9.113 9.113 0 00-1.429 5.458q0 7.281 5.465 7.282a17.27 17.27 0 005.554-1.147v3.871a15.433 15.433 0 01-5.986 1.117q-4.75 0-7.266-2.881-2.517-2.881-2.517-8.271a13.51 13.51 0 011.236-5.949 8.93 8.93 0 013.551-3.917 10.51 10.51 0 015.428-1.362 14.657 14.657 0 016.374 1.534l-1.49 3.752a24.72 24.72 0 00-2.457-1.012 7.34 7.34 0 00-2.427-.432zm24.889 18.24h-4.54v-9.724q0-3.604-2.682-3.603a3.046 3.046 0 00-2.754 1.295 7.908 7.908 0 00-.849 4.2v7.831h-4.541v-23.17h4.541v4.721q0 .55-.105 2.591l-.103 1.34h.238a5.26 5.26 0 014.825-2.441 5.899 5.899 0 014.452 1.578 6.269 6.269 0 011.518 4.527zm4.177-20.95q0-2.22 2.472-2.22 2.471 0 2.472 2.22a2.16 2.16 0 01-.619 1.644 2.596 2.596 0 01-1.853.589q-2.473 0-2.472-2.234zm4.735 20.95h-4.541v-16.648h4.541zm19.827 0h-4.54v-9.724a4.674 4.674 0 00-.64-2.703 2.332 2.332 0 00-2.041-.9 3.065 3.065 0 00-2.754 1.273 7.892 7.892 0 00-.85 4.221v7.832h-4.541v-16.647h3.47l.61 2.129h.253a4.805 4.805 0 012.092-1.823 7.124 7.124 0 013.03-.618 5.823 5.823 0 014.408 1.57 6.304 6.304 0 011.503 4.535zm14.943 0l-.878-2.264h-.12a6.706 6.706 0 01-2.36 2.003 7.637 7.637 0 01-3.164.558 5.12 5.12 0 01-3.775-1.37 5.262 5.262 0 01-1.377-3.9 4.396 4.396 0 011.854-3.91 10.744 10.744 0 015.592-1.392l2.888-.089v-.73a2.264 2.264 0 00-2.59-2.531 11.805 11.805 0 00-4.691 1.206l-1.505-3.067a13.536 13.536 0 016.374-1.504 7.941 7.941 0 015.137 1.46 5.393 5.393 0 011.786 4.436v11.094zm-1.34-7.714l-1.757.06a5.628 5.628 0 00-2.948.714 2.244 2.244 0 00-.968 1.996q0 1.92 2.203 1.92a3.496 3.496 0 002.525-.907 3.192 3.192 0 00.945-2.412zM66.106 294.085a36.427 36.427 0 1136.33-36.524v.001l-12.943.034a23.484 23.484 0 10-23.423 23.545h.001z" class="cls-1"/><path d="M66.203 331.009a36.468 36.468 0 01-36.523-36.331l12.943-.035a23.484 23.484 0 1023.423-23.545h-.001l-.034-12.943a36.427 36.427 0 11.192 72.854zm68.4-71.465c21.01-.055 21.093 31.417.083 31.473-21.009.055-21.092-31.417-.083-31.473zm.017 6.278c-12.213.032-12.163 18.906.05 18.874s12.163-18.907-.05-18.874zm22.823 24.708l-.08-30.49 11.998-.032c11.872-.032 11.879 18.8.05 18.832l-5.893.015.03 11.658zm11.44-17.624c4.1-.01 4.082-6.843-.018-6.833l-5.38.015.017 6.832zm15.587 17.552l-.08-30.533 15.287-.04.016 6.107-9.18.024.016 6.106 8.027-.02.016 6.105-8.027.022.016 6.107 9.693-.026.016 6.106zm28.908-.076l-6.106.016-.082-31.173 1.621-.004 15.464 17.894-.046-17.252 6.15-.016.081 31.13-1.622.004-15.504-17.21zm37.979-8.471a13.706 13.706 0 008.718 2.412c1.793-.133 3.327-1.418 3.152-3.083-.133-1.75-1.46-2.516-3.169-3.109-4.787-1.738-9.064-4.161-9.077-9.285a8.949 8.949 0 018.551-9.33l.049-.002a18.048 18.048 0 017.605 1.26l-.753 5.896a13.871 13.871 0 00-6.237-1.265 3.022 3.022 0 00-3.023 3.425c.175 1.707 1.672 2.472 3.424 3.065 4.744 1.738 8.85 4.46 8.864 9.328.013 5.082-3.478 8.977-9.199 9.291a19.102 19.102 0 01-9.657-2.195zm39.138-22.778c21.01-.056 21.093 31.417.083 31.472s-21.093-31.417-.083-31.472zm.016 6.277c-12.212.032-12.162 18.907.05 18.875 12.213-.033 12.164-18.907-.05-18.875zm22.624 14.075l-.052-19.9 6.106-.015.052 19.857c.017 6.405 9.924 6.379 9.907-.026l-.052-19.857 6.064-.016.053 19.9c.038 14.518-22.04 14.576-22.078.057zm45.332 10.514l-6.18-11.642-2.946.008.031 11.658-6.107.016-.08-30.533 12.042-.031c10.889-.03 11.997 15.298 3.037 17.927l7.121 12.579zm-9.141-17.57l5.38-.013c4.142-.011 4.124-6.844-.018-6.833l-5.38.014z" class="cls-1"/><path d="M384.79 265.161c-12.086.032-12.036 18.651.048 18.62a13.074 13.074 0 005.89-1.383l.828 6.318a19.504 19.504 0 01-6.701 1.298c-20.711.055-20.75-30.947-.082-31.001a14.86 14.86 0 016.024 1.18l-.709 6.278a10.39 10.39 0 00-5.299-1.31zm12.915 24.734l-.08-30.532 15.287-.04.016 6.106-9.18.025.016 6.106 8.028-.021.016 6.106-8.028.02.016 6.108 9.693-.026.016 6.107zm35.545-8.464a13.706 13.706 0 008.719 2.412c1.793-.133 3.327-1.418 3.152-3.083-.133-1.75-1.46-2.516-3.169-3.109-4.786-1.738-9.063-4.161-9.077-9.285a8.949 8.949 0 018.551-9.33l.049-.002a18.048 18.048 0 017.605 1.26l-.753 5.896a13.87 13.87 0 00-6.237-1.265 3.022 3.022 0 00-3.023 3.425c.175 1.707 1.672 2.472 3.424 3.065 4.744 1.738 8.851 4.46 8.864 9.328.013 5.082-3.477 8.977-9.199 9.291a19.102 19.102 0 01-9.657-2.195zm24.334-2.327l-.053-19.9 6.106-.015.053 19.857c.017 6.405 9.923 6.378 9.906-.027l-.052-19.857 6.064-.016.053 19.9c.038 14.519-22.04 14.577-22.077.058zm56.096-20.517l1.922-.005.082 31.002-6.192.016-.003-17.038-7.792 8.22-7.836-8.179.045 17.038-6.192.017-.082-31.002 1.965-.005 12.077 13.377zm36.123-.095l1.922-.005.082 31.002-6.192.016-.003-17.038-7.792 8.22-7.837-8.179.045 17.038-6.191.016-.082-31.001 1.964-.005 12.078 13.376zm10.157 30.975l-.08-30.532 6.105-.017.08 30.533zm19.3-.051l-.065-24.425-7.6.02-.017-6.065 21.309-.056.016 6.064-7.602.02.065 24.426zM335.746 363.92h-15.42v-3.243l5.537-5.598q2.46-2.52 3.214-3.492a7.665 7.665 0 001.086-1.804 4.578 4.578 0 00.332-1.72 2.509 2.509 0 00-.732-1.976 2.839 2.839 0 00-1.954-.649 5.628 5.628 0 00-2.489.588 12.884 12.884 0 00-2.52 1.675l-2.535-3.002a16.51 16.51 0 012.702-1.962 9.96 9.96 0 012.337-.883 12.001 12.001 0 012.837-.308 8.401 8.401 0 013.652.754 5.825 5.825 0 012.459 2.112 5.615 5.615 0 01.875 3.108 7.624 7.624 0 01-.535 2.86 10.983 10.983 0 01-1.66 2.738 40.485 40.485 0 01-3.96 3.998l-2.837 2.671v.211h9.61zm17.517-11.028q0 5.778-1.894 8.554a6.57 6.57 0 01-5.831 2.777 6.493 6.493 0 01-5.756-2.867q-1.94-2.866-1.94-8.464 0-5.84 1.887-8.608a7.334 7.334 0 0111.58.128q1.954 2.898 1.954 8.48zm-10.789 0a17.156 17.156 0 00.703 5.816 2.43 2.43 0 002.36 1.758 2.455 2.455 0 002.354-1.78 23.552 23.552 0 00-.007-11.625 2.443 2.443 0 00-4.7 0 17.1 17.1 0 00-.71 5.83zm28.547 11.028h-15.42v-3.243l5.538-5.598q2.459-2.52 3.213-3.492a7.665 7.665 0 001.086-1.804 4.578 4.578 0 00.332-1.72 2.509 2.509 0 00-.731-1.976 2.839 2.839 0 00-1.954-.649 5.628 5.628 0 00-2.49.588 12.884 12.884 0 00-2.519 1.675l-2.535-3.002a16.51 16.51 0 012.701-1.962 9.96 9.96 0 012.338-.883 12.001 12.001 0 012.837-.308 8.401 8.401 0 013.651.754 5.825 5.825 0 012.46 2.112 5.615 5.615 0 01.874 3.108 7.624 7.624 0 01-.535 2.86 10.982 10.982 0 01-1.66 2.738 40.484 40.484 0 01-3.96 3.998l-2.837 2.671v.211h9.611zm17.517-11.028q0 5.778-1.894 8.554a6.57 6.57 0 01-5.83 2.777 6.493 6.493 0 01-5.757-2.867q-1.939-2.866-1.939-8.464 0-5.84 1.887-8.608a7.334 7.334 0 0111.579.128q1.954 2.898 1.954 8.48zm-10.788 0a17.156 17.156 0 00.702 5.816 2.43 2.43 0 002.361 1.758 2.455 2.455 0 002.354-1.78 23.552 23.552 0 00-.008-11.625 2.443 2.443 0 00-4.7 0 17.1 17.1 0 00-.71 5.83z" class="cls-1"/></svg>