<svg id="Layer_1" data-name="Layer 1" xmlns="http://www.w3.org/2000/svg" viewBox="0 0 419.64001 115.79238"><defs><style>.cls-1{fill:none;}.cls-2{fill:#fff;}</style></defs><title>cncf-member-endusersupporter-white</title><polygon class="cls-1" points="15.565 14.891 15.565 14.894 15.565 27.14 15.634 27.211 27.881 39.456 27.881 47.622 15.565 35.306 15.565 48.764 15.565 61.082 27.881 61.082 37.121 61.082 41.341 61.082 39.229 58.972 29.022 48.764 37.188 48.764 43.312 54.889 49.438 61.014 49.506 61.082 61.755 61.082 61.755 48.833 61.686 48.764 55.562 42.64 49.438 36.517 49.438 28.352 59.645 38.557 61.755 40.668 61.755 36.449 61.755 27.211 61.755 14.891 49.438 14.891 35.978 14.891 48.298 27.211 40.131 27.211 27.881 14.96 27.813 14.891 15.565 14.891"/><path class="cls-1" d="M112.82776,65.58316a4.62412,4.62412,0,0,0,3.5495-1.576,5.80722,5.80722,0,0,0,0-7.664,4.7612,4.7612,0,0,0-7.09894,0,5.80867,5.80867,0,0,0,0,7.664A4.62409,4.62409,0,0,0,112.82776,65.58316Z"/><path class="cls-1" d="M151.53339,55.09164v5.655h2.52673a3.35181,3.35181,0,0,0,2.5509-.75745,3.23774,3.23774,0,0,0,.67359-2.21405,2.34476,2.34476,0,0,0-.87824-2.06915,4.82574,4.82574,0,0,0-2.73138-.61438Z"/><path class="cls-1" d="M326.90393,55.13992h-2.09277V65.36715h2.38177a5.56469,5.56469,0,0,0,3.95874-1.29986,4.93367,4.93367,0,0,0,1.38367-3.77722,5.05781,5.05781,0,0,0-1.38367-3.81476A5.92044,5.92044,0,0,0,326.90393,55.13992Z"/><path class="cls-1" d="M158.366,14.95645a8.22259,8.22259,0,0,0-6.33161,2.83343,9.81711,9.81711,0,0,0-2.57605,6.84693,9.7397,9.7397,0,0,0,2.57605,6.82568,8.53526,8.53526,0,0,0,12.6637,0,9.7417,9.7417,0,0,0,2.5755-6.82568,9.81913,9.81913,0,0,0-2.5755-6.84693A8.22448,8.22448,0,0,0,158.366,14.95645Z"/><polygon class="cls-1" points="299.962 27.449 307.475 27.449 303.74 18.734 299.962 27.449"/><path class="cls-1" d="M386.18433,65.58316a4.62478,4.62478,0,0,0,3.54943-1.576,5.807,5.807,0,0,0,0-7.664,4.76112,4.76112,0,0,0-7.09887,0,5.807,5.807,0,0,0,0,7.664A4.62461,4.62461,0,0,0,386.18433,65.58316Z"/><polygon class="cls-1" points="345.987 56.873 343.87 61.758 348.081 61.758 345.987 56.873"/><path class="cls-1" d="M266.33752,60.18155a5.45886,5.45886,0,0,0,1.44385,3.82562,4.78508,4.78508,0,0,0,7.09894,0,5.80719,5.80719,0,0,0,0-7.664,4.7612,4.7612,0,0,0-7.09894,0A5.50524,5.50524,0,0,0,266.33752,60.18155Z"/><path class="cls-1" d="M222.43549,15.6434h-3.73487V33.88766h4.2497q4.59338,0,7.0614-2.31811,2.46753-2.31822,2.4685-6.73944a9.02139,9.02139,0,0,0-2.4685-6.804Q227.54272,15.64361,222.43549,15.6434Z"/><path class="cls-2" d="M115.45953,34.403,111.167,29.98123a9.882,9.882,0,0,1-8.07086,3.90643A8.35663,8.35663,0,0,1,96.95782,31.355a9.07721,9.07721,0,0,1-2.53308-6.7182,8.60025,8.60025,0,0,1,2.683-6.65412,9.20718,9.20718,0,0,1,6.46075-2.468,9.7571,9.7571,0,0,1,7.89875,3.94934l4.16387-4.72205A15.84993,15.84993,0,0,0,103.26825,9.1185a15.40013,15.40013,0,0,0-11.18286,4.46417,14.93577,14.93577,0,0,0-4.57215,11.13995,14.79527,14.79527,0,0,0,4.48633,11.05414,15.66986,15.66986,0,0,0,11.41858,4.37842Q110.35034,40.15518,115.45953,34.403Z"/><polygon class="cls-2" points="140.229 33.845 127.436 33.845 127.436 9.805 120.74 9.805 120.74 39.812 140.229 39.812 140.229 33.845"/><path class="cls-2" d="M174.09937,24.61563a14.82622,14.82622,0,0,0-4.55048-11.0542,16.34915,16.34915,0,0,0-22.40863,0,14.82375,14.82375,0,0,0-4.55,11.0542,14.82177,14.82177,0,0,0,4.55,11.05365,16.35031,16.35031,0,0,0,22.40863,0A14.82424,14.82424,0,0,0,174.09937,24.61563Zm-9.40125,6.84686a8.53526,8.53526,0,0,1-12.6637,0,9.7397,9.7397,0,0,1-2.57605-6.82568,9.81711,9.81711,0,0,1,2.57605-6.84693,8.49159,8.49159,0,0,1,12.6637,0,9.81913,9.81913,0,0,1,2.5755,6.84693A9.7417,9.7417,0,0,1,164.69812,31.46249Z"/><path class="cls-2" d="M205.05023,26.59005V9.80539H198.3537V26.37552a8.91819,8.91819,0,0,1-1.65289,5.68811,5.42526,5.42526,0,0,1-4.48737,2.0819,5.48145,5.48145,0,0,1-4.50659-2.0819,8.829,8.829,0,0,1-1.67414-5.68811V9.80539h-6.697V26.59005q0,6.48249,3.62732,10.00232a13.92266,13.92266,0,0,0,18.48151.02124Q205.04818,33.11566,205.05023,26.59005Z"/><path class="cls-2" d="M234.92706,13.73306q-4.293-3.92771-12.31994-3.92767h-10.604V39.812h10.25977q8.58618,0,12.77173-4.07807,4.18506-4.07784,4.18554-11.07537Q239.22015,17.66116,234.92706,13.73306Zm-4.91534,17.83649q-2.469,2.31812-7.0614,2.31811h-4.2497V15.6434h3.73487q5.10817,0,7.57623,2.38269a9.02139,9.02139,0,0,1,2.4685,6.804Q232.48022,29.25191,230.01172,31.56955Z"/><polygon class="cls-2" points="284.037 9.805 277.34 9.805 277.34 29.123 262.616 9.805 256.348 9.805 256.348 39.812 263.046 39.812 263.046 21.009 277.34 39.812 284.037 39.812 284.037 9.805"/><path class="cls-2" d="M306.95941,9.80539h-6.4815L287.51288,39.812h7.12652l2.79-6.48206h12.57843l2.79,6.48206h7.12647ZM299.9621,27.44857l3.77826-8.71435,3.73486,8.71435Z"/><polygon class="cls-2" points="342.418 9.805 318.722 9.805 318.722 15.6 327.221 15.6 327.221 39.812 333.919 39.812 333.919 15.6 342.418 15.6 342.418 9.805"/><rect class="cls-2" x="347.31104" y="9.80539" width="6.69751" height="30.00659"/><polygon class="cls-2" points="387.364 9.805 380.108 9.805 372.467 28.908 364.826 9.805 357.571 9.805 369.634 39.812 375.3 39.812 387.364 9.805"/><polygon class="cls-2" points="413.033 33.888 397.623 33.888 397.623 27.663 411.059 27.663 411.059 21.954 397.623 21.954 397.623 15.772 412.561 15.772 412.561 9.805 390.925 9.805 390.925 39.812 413.033 39.812 413.033 33.888"/><path class="cls-2" d="M95.68317,55.068a5.46876,5.46876,0,0,1,4.42767,2.21405l2.33392-2.647a8.88539,8.88539,0,0,0-6.93023-3.153,8.63118,8.63118,0,0,0-6.2685,2.50305,8.8894,8.8894,0,0,0-.04785,12.44031,9.078,9.078,0,0,0,13.15039-.76929L99.9422,63.1777a5.53957,5.53957,0,0,1-4.52387,2.18945A4.68465,4.68465,0,0,1,91.97742,63.947a5.08673,5.08673,0,0,1-1.41968-3.76544,4.82059,4.82059,0,0,1,1.504-3.72992A5.16024,5.16024,0,0,1,95.68317,55.068Z"/><path class="cls-2" d="M112.816,68.85641a8.64077,8.64077,0,0,0,6.28027-2.49121,8.80027,8.80027,0,0,0,0-12.392,9.16249,9.16249,0,0,0-12.56109,0,8.80147,8.80147,0,0,0,0,12.392A8.64115,8.64115,0,0,0,112.816,68.85641Zm-3.53766-12.51324a4.7612,4.7612,0,0,1,7.09894,0,5.80722,5.80722,0,0,1,0,7.664,4.78508,4.78508,0,0,1-7.09894,0,5.80867,5.80867,0,0,1,0-7.664Z"/><polygon class="cls-2" points="143.641 68.688 143.641 51.868 138.588 51.868 134.232 61.108 129.9 51.868 124.823 51.868 124.823 68.688 128.577 68.688 128.577 58.1 133.101 67.292 135.339 67.292 139.887 58.1 139.887 68.688 143.641 68.688"/><path class="cls-2" d="M147.77979,51.86764V68.68777h3.7536V63.99533h2.23828q3.72939,0,5.54651-1.44385a5.4727,5.4727,0,0,0,1.81665-4.55933,5.73263,5.73263,0,0,0-1.7688-4.62054q-1.76853-1.50448-5.6427-1.504Zm9.50482,5.90753a3.23774,3.23774,0,0,1-.67359,2.21405,3.35181,3.35181,0,0,1-2.5509.75745h-2.52673v-5.655h2.1416a4.82574,4.82574,0,0,1,2.73138.61438A2.34476,2.34476,0,0,1,157.28461,57.77517Z"/><path class="cls-2" d="M171.04846,68.85641a7.12146,7.12146,0,0,0,5.17377-1.96161,7.46765,7.46765,0,0,0,2.02124-5.61853V51.86764h-3.75409V61.156a4.99678,4.99678,0,0,1-.92609,3.18848,3.04008,3.04008,0,0,1-2.51483,1.16669,3.07322,3.07322,0,0,1-2.52673-1.16669,4.95273,4.95273,0,0,1-.93842-3.18848V51.86764h-3.7536v9.40863a7.45364,7.45364,0,0,0,2.03314,5.60675A7.13828,7.13828,0,0,0,171.04846,68.85641Z"/><polygon class="cls-2" points="189.264 68.688 189.264 55.116 194.029 55.116 194.029 51.868 180.746 51.868 180.746 55.116 185.51 55.116 185.51 68.688 189.264 68.688"/><rect class="cls-2" x="196.77179" y="51.86764" width="3.75458" height="16.82013"/><polygon class="cls-2" points="208.418 58.148 216.431 68.688 220.185 68.688 220.185 51.868 216.431 51.868 216.431 62.696 208.178 51.868 204.664 51.868 204.664 68.688 208.418 68.688 208.418 58.148"/><path class="cls-2" d="M232.31256,54.94766a5.58719,5.58719,0,0,1,2.05731.37274,7.4624,7.4624,0,0,1,2.08191,1.36005l1.94879-2.81568a9.15073,9.15073,0,0,0-6.29211-2.38275,8.52832,8.52832,0,0,0-6.18469,2.50305,8.88887,8.88887,0,0,0-.04828,12.44031,8.55381,8.55381,0,0,0,6.22015,2.45471,8.83044,8.83044,0,0,0,6.93024-2.791V60.12143H235.2486v4.62048a6.45235,6.45235,0,0,1-3.24866.74554,4.54517,4.54517,0,0,1-3.35712-1.432,5.81132,5.81132,0,0,1,.06018-7.65216A4.92662,4.92662,0,0,1,232.31256,54.94766Z"/><polygon class="cls-2" points="260.274 55.165 260.274 51.868 248.723 51.868 248.723 68.688 252.478 68.688 252.478 62.095 259.89 62.095 259.89 58.798 252.478 58.798 252.478 55.165 260.274 55.165"/><path class="cls-2" d="M265.0387,53.97323a8.79907,8.79907,0,0,0,0,12.392,9.16187,9.16187,0,0,0,12.5606,0,8.80147,8.80147,0,0,0,0-12.392,9.16187,9.16187,0,0,0-12.5606,0Zm9.84161,2.36994a5.80719,5.80719,0,0,1,0,7.664,4.78508,4.78508,0,0,1-7.09894,0,5.807,5.807,0,0,1,0-7.664,4.7612,4.7612,0,0,1,7.09894,0Z"/><path class="cls-2" d="M290.30493,68.85641a7.12057,7.12057,0,0,0,5.17377-1.96161,7.46979,7.46979,0,0,0,2.02179-5.61853V51.86764h-3.75458V61.156a4.9972,4.9972,0,0,1-.92609,3.18848,3.04018,3.04018,0,0,1-2.51489,1.16669,3.07457,3.07457,0,0,1-2.52673-1.16669,4.953,4.953,0,0,1-.93793-3.18848V51.86764h-3.75458v9.40863a7.452,7.452,0,0,0,2.03363,5.60675A7.13761,7.13761,0,0,0,290.30493,68.85641Z"/><polygon class="cls-2" points="304.911 51.868 301.397 51.868 301.397 68.688 305.152 68.688 305.152 58.148 313.165 68.688 316.918 68.688 316.918 51.868 313.165 51.868 313.165 62.696 304.911 51.868"/><path class="cls-2" d="M327.00061,51.86764h-5.944V68.68777h5.75171q4.81229,0,7.15906-2.28607a8.26683,8.26683,0,0,0,2.34625-6.20831,7.88821,7.88821,0,0,0-2.40643-6.12452Q331.50024,51.86768,327.00061,51.86764Zm4.15106,12.19965a5.56469,5.56469,0,0,1-3.95874,1.29986h-2.38177V55.13992h2.09277a5.92044,5.92044,0,0,1,4.24774,1.33539,5.05781,5.05781,0,0,1,1.38367,3.81476A4.93367,4.93367,0,0,1,331.15167,64.06729Z"/><path class="cls-2" d="M342.44989,65.05453h7.0506l1.56415,3.63324h3.9942L347.7923,51.86764h-3.63324l-7.26758,16.82013h3.99426Zm3.5376-8.18176,2.09381,4.88476h-4.21124Z"/><polygon class="cls-2" points="362.904 68.688 362.904 55.116 367.669 55.116 367.669 51.868 354.385 51.868 354.385 55.116 359.15 55.116 359.15 68.688 362.904 68.688"/><rect class="cls-2" x="370.41052" y="51.86764" width="3.75458" height="16.82013"/><path class="cls-2" d="M386.17249,68.85641a8.6408,8.6408,0,0,0,6.28027-2.49121,8.80149,8.80149,0,0,0,0-12.392,9.16188,9.16188,0,0,0-12.56061,0,8.79909,8.79909,0,0,0,0,12.392A8.63926,8.63926,0,0,0,386.17249,68.85641Zm-3.5376-12.51324a4.76112,4.76112,0,0,1,7.09887,0,5.807,5.807,0,0,1,0,7.664,4.785,4.785,0,0,1-7.09887,0,5.807,5.807,0,0,1,0-7.664Z"/><polygon class="cls-2" points="409.947 51.868 409.947 62.696 401.693 51.868 398.179 51.868 398.179 68.688 401.933 68.688 401.933 58.148 409.947 68.688 413.7 68.688 413.7 51.868 409.947 51.868"/><polygon class="cls-2" points="15.565 61.082 15.565 48.764 6.324 48.764 6.324 70.322 27.881 70.322 27.881 61.082 15.565 61.082"/><polygon class="cls-2" points="61.755 48.833 61.755 61.082 49.506 61.082 49.438 61.014 49.438 70.322 70.994 70.322 70.994 48.764 61.686 48.764 61.755 48.833"/><polygon class="cls-2" points="15.565 27.14 15.565 14.894 15.565 14.891 27.813 14.891 27.881 14.96 27.881 5.652 6.324 5.652 6.324 27.211 15.634 27.211 15.565 27.14"/><polygon class="cls-2" points="61.755 14.891 61.755 27.211 70.994 27.211 70.994 5.652 49.438 5.652 49.438 14.891 61.755 14.891"/><polygon class="cls-2" points="27.881 14.96 40.131 27.211 48.298 27.211 35.978 14.891 49.438 14.891 49.438 5.652 27.881 5.652 27.881 14.96"/><polygon class="cls-2" points="43.312 54.889 37.188 48.764 29.022 48.764 39.229 58.972 41.341 61.082 37.121 61.082 27.881 61.082 27.881 70.322 49.438 70.322 49.438 61.014 43.312 54.889"/><polygon class="cls-2" points="61.755 36.449 61.755 40.668 59.645 38.557 49.438 28.352 49.438 36.517 55.562 42.64 61.686 48.764 70.994 48.764 70.994 27.211 61.755 27.211 61.755 36.449"/><polygon class="cls-2" points="15.565 35.306 27.881 47.622 27.881 39.456 15.634 27.211 6.324 27.211 6.324 48.764 15.565 48.764 15.565 35.306"/><path class="cls-2" d="M6.32434,111.46029H413.70013V81.71457H6.32434ZM283.57227,89.68985h6.10351a5.31725,5.31725,0,0,1,3.89063,1.35449,4.19047,4.19047,0,0,1,1.14453,3.05176v.03808a4.14606,4.14606,0,0,1-2.86133,4.13867l3.26172,4.76856h-3.4336L288.81738,98.769h-2.30859v4.27246h-2.93652Zm-13.72754,0H279.915v2.61328H272.7627v2.708h6.29394v2.61328H272.7627v2.80371h7.248v2.61328h-10.166Zm-14.71973,0h6.19824a4.82367,4.82367,0,0,1,3.49121,1.18261,3.06579,3.06579,0,0,1,.915,2.26953v.03809a3.106,3.106,0,0,1-1.75488,2.88086c1.54492.59082,2.499,1.4873,2.499,3.28027v.03809c0,2.44141-1.98437,3.66211-4.99707,3.66211H255.125Zm-17.50293,0h3.166l3.50976,5.6455,3.50879-5.6455h3.166v13.35156h-2.918v-8.7168l-3.75684,5.70313h-.07715L240.502,94.38223v8.65918h-2.87988Zm-13.72852,0h10.07129v2.61328h-7.15332v2.708h6.29493v2.61328h-6.29493v2.80371h7.24805v2.61328h-10.166Zm-17.50341,0h3.1665l3.50977,5.6455,3.50976-5.6455h3.166v13.35156h-2.91895v-8.7168l-3.75683,5.70313h-.07618l-3.71972-5.64551v8.65918h-2.88037Zm-21.41162,0H191.082a5.31845,5.31845,0,0,1,3.89111,1.35449,4.19244,4.19244,0,0,1,1.14454,3.05176v.03808a4.1455,4.1455,0,0,1-2.86133,4.13867l3.26172,4.76856H193.085L190.22363,98.769H187.916v4.27246h-2.9375Zm-13.728,0h10.0708v2.61328H174.169v2.708h6.29394v2.61328H174.169v2.80371h7.248v2.61328h-10.1665Zm-13.15528,0,3.49073,9.40332,3.49023-9.40332h3.166l-5.39746,13.44726h-2.59424L154.853,89.68985Zm-12.66113,0h2.9375v10.68164h6.65674v2.66992h-9.59424Zm-7.22607,0h2.937v13.35156h-2.937ZM128.9624,97.644c-2.68945-.68653-4.42529-1.43067-4.42529-4.082v-.03809c0-2.42285,1.94531-4.02441,4.67285-4.02441a7.731,7.731,0,0,1,4.95947,1.69726l-1.52588,2.21289a6.265,6.265,0,0,0-3.47167-1.3164c-1.12549,0-1.71631.51465-1.71631,1.16308v.03907c0,.87695.57177,1.16308,2.87988,1.7539,2.7085.70606,4.23437,1.67871,4.23437,4.00586v.03809c0,2.65136-2.022,4.13867-4.90185,4.13867a8.49487,8.49487,0,0,1-5.665-2.13574l1.73584-2.07911a6.1228,6.1228,0,0,0,3.98633,1.6211c1.20166,0,1.92627-.47656,1.92627-1.25879v-.03809C131.65137,98.59707,131.19385,98.21621,128.9624,97.644Z"/><path class="cls-2" d="M291.73535,94.28653v-.03809c0-1.25879-.87695-1.90723-2.30762-1.90723h-2.91894v3.834h2.97559C290.915,96.1752,291.73535,95.4125,291.73535,94.28653Z"/><path class="cls-2" d="M263.55469,99.017v-.03808c0-.89649-.667-1.4502-2.17383-1.4502h-3.39551v2.9375h3.49121C262.77344,100.46621,263.55469,100.00918,263.55469,99.017Z"/><path class="cls-2" d="M193.14209,94.28653v-.03809c0-1.25879-.87744-1.90723-2.30811-1.90723h-2.918v3.834h2.97558C192.32178,96.1752,193.14209,95.4125,193.14209,94.28653Z"/><path class="cls-2" d="M262.81152,93.67617v-.03808c0-.877-.68652-1.37305-1.92675-1.37305h-2.89942v2.82227h2.709C261.99121,95.08731,262.81152,94.66836,262.81152,93.67617Z"/></svg>