<?xml version="1.0" encoding="UTF-8"?><svg id="Layer_1" xmlns="http://www.w3.org/2000/svg" viewBox="0 0 1066.16256 455.71673"><defs><style>.cls-1{fill:none;}.cls-2{fill:#fff;}</style></defs><path class="cls-1" d="M541.11698,320.38182c-8.96484,0-16.57812,7.82715-16.57812,17.14746,0,9.39258,7.61328,17.21875,16.57812,17.21875,9.03613,0,16.5791-7.82617,16.5791-17.21875,0-9.32031-7.54297-17.14746-16.5791-17.14746Z"/><polygon class="cls-1" points="291.1829 170.4558 288.52079 168.98741 266.99735 180.15624 261.39677 183.06273 275.49076 186.98778 269.56913 199.1118 272.59843 198.98534 278.39555 198.74291 280.99735 207.25145 281.25346 208.08812 284.00688 194.7058 293.40897 184.57835 283.73197 183.06322 283.73222 183.06273 283.73173 183.06273 291.1829 170.4558"/><path class="cls-1" d="M667.85038,321.30663h-11.38477v16.08008h11.38477c6.04785,0,10.24512-3.05957,10.24512-8.04004s-4.19727-8.04004-10.24512-8.04004Z"/><path class="cls-1" d="M706.98417,249.34667c0-4.98047-4.19727-8.04004-10.24512-8.04004h-11.38477v16.08008h11.38477c6.04785,0,10.24512-3.05957,10.24512-8.04004Z"/><polygon class="cls-1" points="605.39237 120.91405 592.93437 152.58495 617.85136 152.58495 605.39237 120.91405"/><polygon class="cls-1" points="136.91874 170.17259 140.16972 175.67284 144.53813 183.06297 134.86088 184.57811 144.26298 194.70604 145.05253 198.54295 147.01737 208.08592 149.1265 201.19212 149.87553 198.74291 153.07035 198.87645 158.70194 199.1118 152.78056 186.98778 166.87431 183.06273 139.39823 168.80504 136.91874 170.17259"/><polygon class="cls-1" points="784.47636 345.49803 801.69511 345.49803 793.08573 324.93553 784.47636 345.49803"/><path class="cls-1" d="M184.89677,177.12962l29.23853-.73096,29.23853.73096c.55078-.48364,1.13525-.98901,1.73779-1.50537,6.19922-5.31262,14.99951-12.20483,23.55591-17.58813l-54.87305-30.26843-54.51392,30.07007c8.65747,5.41199,17.60083,12.40686,23.87817,17.7865.60278.51636,1.18726,1.02173,1.73804,1.50537Z"/><polygon class="cls-1" points="885.59062 265.49803 902.80937 265.49803 894.19999 244.93553 885.59062 265.49803"/><path class="cls-1" d="M1010.25761,241.16405h-9.25v32.80176h9.25c10.31738,0,17.57422-6.83105,17.57422-16.43652s-7.25684-16.36523-17.57422-16.36523Z"/><polygon class="cls-2" points="139.39823 168.80504 134.65605 166.34422 136.91874 170.17259 139.39823 168.80504"/><path class="cls-2" d="M214.14384,18.93517h-.69873L33.55009,118.95335v108.23804l88.5813-48.86194c-.20142-4.43652-.08008-8.89441.37329-13.3385.22168-2.74487.35034-5.49854.63477-8.2373.53467-5.15234,3.58789-8.06763,8.87866-8.72046,4.7915-.59131,9.02856,1.20093,13.37085,2.71826,4.18018,1.46069,8.99072,4.02246,13.8916,7.0863l54.51392-30.07007,54.87305,30.26843c5.01245-3.15356,9.94165-5.79187,14.21387-7.28467,4.34204-1.51733,8.57935-3.30957,13.37085-2.71826,5.29053.65308,8.34375,3.56812,8.87866,8.7207.28442,2.73853.41309,5.49243.63501,8.2373.46558,4.56567.57715,9.146.35181,13.70288l88.13281,48.61475v-103.57544l-.05054-4.68933L214.14384,18.93517Z"/><polygon class="cls-2" points="291.1829 170.4558 293.61259 166.3452 288.52079 168.98741 291.1829 170.4558"/><path class="cls-2" d="M299.76786,283.55931l-64.00342,38.20386c1.35083-1.79578,3.21753-3.87988,5.10645-6.17358l-27.07642,14.93567-25.82178-14.24341c1.68872,2.02161,3.31958,3.8678,4.53345,5.48132l-64.00366-38.2041c-1.72681-.89307-3.4104-1.8374-5.02808-2.85474l-89.92432-49.60266v108.23804l179.89502,100.01819h.69873l180.05615-100.10547.05054-4.69287v-103.57544l-86.51416,47.72192c-2.47314,1.82092-5.16479,3.40332-7.96851,4.85327Z"/><polygon class="cls-2" points="35.93168 83.4475 35.93168 83.77342 36.46928 83.45433 35.93168 83.4475"/><path class="cls-2" d="M482.34257,275.17479c-6.4043,0-11.59766-2.56152-16.08105-6.61719l-5.19336,6.33301c5.40723,5.05176,12.59375,7.89746,20.91797,7.89746,11.74023,0,18.35742-6.19043,18.35742-14.94141,0-8.89453-6.83008-12.16699-17.00488-14.44434-7.75586-1.77832-11.31348-3.20117-11.31348-7.18652,0-3.41504,3.27344-6.33203,8.25391-6.33203,4.83789,0,9.74805,2.06348,13.94531,5.69238l4.83887-6.47461c-4.83887-4.19824-10.74414-6.83105-18.5-6.83105-10.24609,0-17.50293,6.19043-17.50293,14.72852,0,9.17871,6.97266,12.0957,17.07617,14.44336,7.82715,1.85059,11.31348,3.20215,11.31348,7.25781,0,3.48633-3.13086,6.47461-9.10742,6.47461Z"/><polygon class="cls-2" points="550.79374 273.89452 522.90214 273.89452 522.90214 261.15819 548.08964 261.15819 548.08964 253.04686 522.90214 253.04686 522.90214 241.23534 550.79374 241.23534 550.79374 233.12401 514.00858 233.12401 514.00858 282.00584 550.79374 282.00584 550.79374 273.89452"/><path class="cls-2" d="M606.01151,274.89061l-6.26172-5.83496c-3.13086,3.48633-7.4707,5.69238-12.23828,5.69238-8.96484,0-16.57812-7.82617-16.57812-17.21875,0-9.32031,7.61328-17.14746,16.57812-17.14746,4.76758,0,9.10742,2.20605,12.16699,5.69238l6.33301-5.90625c-4.69629-4.83789-11.31348-7.89746-18.5-7.89746-13.87402,0-25.61426,11.52637-25.61426,25.25879s11.74023,25.33008,25.61426,25.33008c7.18652,0,13.80371-3.05957,18.5-7.96875Z"/><path class="cls-2" d="M660.66093,261.15819v-28.03418h-8.82324v27.75c0,8.11035-5.26465,13.94531-12.73633,13.94531-7.39941,0-12.66504-5.83496-12.66504-13.94531v-27.75h-8.89355v28.03418c0,12.73633,8.96484,21.70117,21.55859,21.70117,12.66504,0,21.55957-8.96484,21.55957-21.70117Z"/><path class="cls-2" d="M714.81132,282.00584l-11.95312-17.00586c7.82617-1.77832,13.2334-7.75488,13.2334-15.65332,0-9.53418-7.89746-16.22266-18.28516-16.22266h-21.27441v48.88184h8.82227v-16.43652h7.82715l11.52637,16.43652h10.10352ZM685.35429,257.3867v-16.08008h11.38477c6.04785,0,10.24512,3.05957,10.24512,8.04004s-4.19727,8.04004-10.24512,8.04004h-11.38477Z"/><rect class="cls-2" x="729.90019" y="233.12401" width="8.82227" height="48.88184"/><polygon class="cls-2" points="775.65214 282.00584 775.65214 241.23534 791.23515 241.23534 791.23515 233.12401 751.10526 233.12401 751.10526 241.23534 766.75858 241.23534 766.75858 282.00584 775.65214 282.00584"/><polygon class="cls-2" points="835.99296 233.12401 822.33183 255.25292 808.88358 233.12401 798.4246 233.12401 817.77812 263.64842 817.77812 282.00584 826.81425 282.00584 826.81425 263.64842 846.09647 233.12401 835.99296 233.12401"/><path class="cls-2" d="M909.71171,282.00584h9.81836l-20.41992-48.88184h-9.89062l-20.4209,48.88184h9.89062l3.8418-9.25h23.33789l3.84277,9.25ZM885.59062,265.49803l8.60938-20.5625,8.60938,20.5625h-17.21875Z"/><polygon class="cls-2" points="975.10331 282.00584 975.10331 233.12401 966.28007 233.12401 966.28007 267.49022 940.45194 233.12401 931.62968 233.12401 931.62968 282.00584 940.45194 282.00584 940.45194 247.63963 966.28007 282.00584 975.10331 282.00584"/><path class="cls-2" d="M1009.3328,233.12401h-17.14746v48.88184h17.14746c16.15137,0,27.53516-10.1748,27.53516-24.47656s-11.38379-24.40527-27.53516-24.40527ZM1010.25761,273.96581h-9.25v-32.80176h9.25c10.31738,0,17.57422,6.75977,17.57422,16.36523s-7.25684,16.43652-17.57422,16.43652Z"/><path class="cls-2" d="M487.46562,320.38182c4.7666,0,9.10742,2.20605,12.16699,5.69238l6.33203-5.90625c-4.69629-4.83789-11.31348-7.89746-18.49902-7.89746-13.875,0-25.61523,11.52637-25.61523,25.25879s11.74023,25.33008,25.61523,25.33008c7.18555,0,13.80273-3.05957,18.49902-7.96875l-6.26172-5.83496c-3.12988,3.48633-7.4707,5.69238-12.2373,5.69238-8.96582,0-16.5791-7.82617-16.5791-17.21875,0-9.32031,7.61328-17.14746,16.5791-17.14746Z"/><path class="cls-2" d="M541.11698,312.27049c-13.87402,0-25.61426,11.52637-25.61426,25.25879s11.74023,25.33008,25.61426,25.33008c13.94629,0,25.68652-11.59766,25.68652-25.33008s-11.74023-25.25879-25.68652-25.25879ZM541.11698,354.74803c-8.96484,0-16.57812-7.82617-16.57812-17.21875,0-9.32031,7.61328-17.14746,16.57812-17.14746,9.03613,0,16.5791,7.82715,16.5791,17.14746,0,9.39258-7.54297,17.21875-16.5791,17.21875Z"/><polygon class="cls-2" points="605.65702 342.93651 589.50565 313.12401 580.68339 313.12401 580.68339 362.00584 589.50565 362.00584 589.50565 329.34667 605.65702 359.15917 621.73808 329.34667 621.73808 362.00584 630.63163 362.00584 630.63163 313.12401 621.73808 313.12401 605.65702 342.93651"/><path class="cls-2" d="M668.91776,313.12401h-21.27441v48.88184h8.82227v-16.43652h12.45215c10.3877,0,18.28516-6.68848,18.28516-16.22266s-7.89746-16.22266-18.28516-16.22266ZM667.85038,337.3867h-11.38477v-16.08008h11.38477c6.04785,0,10.24512,3.05957,10.24512,8.04004s-4.19727,8.04004-10.24512,8.04004Z"/><polygon class="cls-2" points="709.26347 313.12401 700.4412 313.12401 700.4412 362.00584 734.38065 362.00584 734.38065 353.89452 709.26347 353.89452 709.26347 313.12401"/><rect class="cls-2" x="746.76444" y="313.12401" width="8.82227" height="48.88184"/><path class="cls-2" d="M788.10526,313.12401l-20.4209,48.88184h9.89062l3.8418-9.25h23.33789l3.84277,9.25h9.81836l-20.41992-48.88184h-9.89062ZM784.47636,345.49803l8.60938-20.5625,8.60938,20.5625h-17.21875Z"/><polygon class="cls-2" points="865.16679 347.49022 839.33866 313.12401 830.5164 313.12401 830.5164 362.00584 839.33866 362.00584 839.33866 327.63963 865.16679 362.00584 873.99003 362.00584 873.99003 313.12401 865.16679 313.12401 865.16679 347.49022"/><path class="cls-2" d="M913.48417,320.38182c4.76758,0,9.10742,2.20605,12.16699,5.69238l6.33301-5.90625c-4.69629-4.83789-11.31348-7.89746-18.5-7.89746-13.87402,0-25.61426,11.52637-25.61426,25.25879s11.74023,25.33008,25.61426,25.33008c7.18652,0,13.80371-3.05957,18.5-7.96875l-6.26172-5.83496c-3.13086,3.48633-7.4707,5.69238-12.23828,5.69238-8.96484,0-16.57812-7.82617-16.57812-17.21875,0-9.32031,7.61328-17.14746,16.57812-17.14746Z"/><polygon class="cls-2" points="944.7244 362.00584 981.50956 362.00584 981.50956 353.89452 953.61796 353.89452 953.61796 341.15819 978.80546 341.15819 978.80546 333.04686 953.61796 333.04686 953.61796 321.23534 981.50956 321.23534 981.50956 313.12401 944.7244 313.12401 944.7244 362.00584"/><polygon class="cls-2" points="541.30155 84.58983 453.04276 84.58983 453.04276 107.55467 484.26347 107.55467 484.26347 187.70897 509.93046 187.70897 509.93046 107.55467 541.30155 107.55467 541.30155 84.58983"/><path class="cls-2" d="M585.27909,171.94823h40.22754l6.30371,15.76074h28.81934l-40.82715-103.11914h-28.81934l-40.82715,103.11914h28.81934l6.30371-15.76074ZM605.39237,120.91405l12.45898,31.6709h-24.91699l12.45801-31.6709Z"/><path class="cls-2" d="M726.97245,189.50975c15.76074,0,31.67188-6.60449,42.02832-17.86133v-43.0791h-46.83105v19.3623h21.91406v12.90918c-5.10352,3.45215-11.10742,5.40332-17.11133,5.40332-16.06055,0-29.71973-13.80859-29.71973-30.16992,0-16.21094,13.65918-30.02051,29.71973-30.02051,8.85645,0,17.71191,4.20312,23.26562,11.10742l18.7627-16.66113c-10.35645-11.10742-26.26758-17.71191-42.02832-17.71191-30.4707,0-56.1377,24.31641-56.1377,53.28613s25.66699,53.43555,56.1377,53.43555Z"/><path class="cls-2" d="M317.36771,267.81761c1.0564-1.95093,1.58521-4.1438,1.53345-6.36157-.01538-.51709.17554-1.19385-.48633-1.43994v-.00024c-.66968-.24902-.9834.39844-1.35229.76733-2.81567,3.28076-6.56958,5.61938-10.75586,6.70044-5.37061,1.19043-10.9895.43384-15.85376-2.13477-3.68848-1.80811-7.13696-4.06958-10.26514-6.73193-.68018-.61401-1.54004-1.36133-.97266-2.34985.61914-1.07788,1.66699-.38916,2.53784-.21631.55029.10889,1.07861.34302,1.63135.41772.5415.073,1.18188.18091,1.54248-.37573.45483-.70215-.05005-1.22168-.50171-1.68677-1.51733-1.67432-3.38379-2.99512-5.46753-3.86938-7.51343-2.823-23.0918-11.51538-36.90332-5.82446-13.46973,5.55005-12.39697,18.94116-12.48462,20.3418-.9165,14.62915,13.50146,23.96045,13.50146,23.96045,10.3186,9.42322,3.94043,19.11938-2.2002,26.5752l66.86548-36.88354c3.90991-2.87878,7.26978-6.3584,9.63135-10.88843ZM264.49882,259.4868c-1.28271,3.06665-3.49072,5.65649-6.31567,7.4082-3.05786,1.82788-6.56274,2.77222-10.12524,2.72778-3.88745.28247-7.66553-1.36328-10.10596-4.40259-.73608-.86646-.9502-2.06152-.56104-3.12964,1.91431-5.23975,6.3186-9.17749,11.73926-10.49585,1.57568-.40259,3.20068-.57837,4.82617-.52222,3.94727-.36426,7.81006,1.29858,10.25854,4.41626.83398,1.17505.9436,2.71704.28394,3.99805Z"/><path class="cls-2" d="M299.76786,283.55931c2.80371-1.44995,5.49536-3.03235,7.96851-4.85327l-66.86548,36.88354c-1.88892,2.2937-3.75562,4.37781-5.10645,6.17358l64.00342-38.20386Z"/><path class="cls-2" d="M185.19901,289.01439s14.41797-9.3313,13.50146-23.96045c-.0874-1.40063.98535-14.79175-12.48438-20.3418-13.81177-5.69092-29.38989,3.00146-36.90332,5.82446-2.08398.87402-3.9502,2.19482-5.46753,3.86938-.45166.46484-.95679.98438-.50171,1.68652.3606.55688,1.00098.44897,1.54248.37598.55273-.07471,1.08081-.30884,1.63135-.41797.87109-.17261,1.9187-.86133,2.5376.21655.56763.98853-.29199,1.73584-.97241,2.34985-3.12817,2.66235-6.57666,4.92383-10.26514,6.73193-4.8645,2.5686-10.48315,3.3252-15.85376,2.13452-4.18604-1.08081-7.94019-3.41943-10.75586-6.7002-.36865-.36914-.68286-1.0166-1.35229-.76733-.66187.24609-.47095.92285-.48657,1.43994-.05151,2.21802.47705,4.41089,1.53369,6.36182,2.9353,5.63062,7.4104,9.64062,12.57178,12.88672l64.49829,35.57751c-6.2998-7.54175-13.41431-17.55029-2.77368-27.26746ZM163.77128,259.4868c-.65942-1.28101-.5498-2.823.28418-3.9978,2.44824-3.11792,6.31128-4.78101,10.25879-4.41626,1.62524-.0564,3.25024.11963,4.82593.52197,5.42065,1.31836,9.82495,5.2561,11.7395,10.49585.38892,1.06812.1748,2.26318-.56152,3.12964-2.44019,3.03931-6.21826,4.68506-10.10571,4.40259-3.56226.04443-7.06738-.8999-10.12524-2.72778-2.82495-1.75195-5.03296-4.3418-6.31592-7.4082Z"/><path class="cls-2" d="M192.50614,321.76317c-1.21387-1.61353-2.84473-3.45972-4.53345-5.48132l-64.49829-35.57751c1.61768,1.01733,3.30127,1.96167,5.02808,2.85474l64.00366,38.2041Z"/><path class="cls-2" d="M195.12016,298.53905c-.03198,2.16113,1.177,4.14941,3.1106,5.11548.49707.30444,1.04785.51025,1.62256.60596,1.05322.08838,2.13794.03662,3.91504.03003h.01929c.10303-.00024.18384-.00195.29175-.00195,3.07178-.66284,5.78027,1.85571,7.90332,6.38721.74731,1.59448,1.45093,2.4585,2.15234,2.6748.70166-.21655,1.40527-1.08032,2.15234-2.6748,2.12329-4.53149,4.83154-7.05029,7.90332-6.38721.10815,0,.18896.00146.29199.00195h.01904c1.77734.00659,2.86182.05811,3.91528-.03003.57471-.09595,1.12573-.30151,1.62256-.60596,1.93335-.96606,3.14233-2.95435,3.1106-5.11548.32715-2.20093-.62988-4.39551-2.46558-5.65283h-.00024c-4.7749-3.63574-10.55225-5.71582-16.54932-5.95825-5.99683.24243-11.77417,2.32251-16.54932,5.95825-1.83569,1.25732-2.79297,3.4519-2.46558,5.65283Z"/><path class="cls-2" d="M283.73222,183.06273l9.67725,1.51538-.00049.00024.00049.00024-9.40234,10.12769-2.75342,13.38281-.00024-.00098-.00024.00024-.25586-.83691-2.60303-8.50781-5.7959.2417-3.02954.12695.00024-.00049-.00146.00024,5.92212-12.12427-14.09448-3.92456,5.60205-2.90698,21.52246-11.16943-19.85229-10.95068c-8.5564,5.3833-17.35669,12.27551-23.55591,17.58813-.60254.51636-1.18701,1.02173-1.73779,1.50537l-29.23853-.73096-29.23853.73096c-.55078-.48364-1.13525-.98901-1.73804-1.50537-6.27734-5.37964-15.2207-12.37451-23.87817-17.7865l-19.88184,10.96692,27.47559,14.25806.00049.00049-14.09424,3.92456,5.92188,12.12402h-.00049l.00024.00049-5.63184-.23584-3.19458-.1333-.74927,2.44897-2.10864,6.89624-.00049-.00244-.00098.00293-1.96387-9.5459-.79028-3.83716-9.40234-10.12769,9.67749-1.51538-4.36768-7.38989-3.25122-5.5-14.78711,8.15662c.43506,9.58057,2.38354,19.06067,5.80273,28.08093,2.73145,6.91748,2.52759,13.86572-2.57349,20.03564-1.59375,1.92822-3.05347,3.96143-4.61304,5.91699-1.61743,2.02832-3.29224,4.01294-4.91943,6.03394-.52612.65356-1.07617,1.43164-.64429,2.25171.521.9895,1.46851.44897,2.26831.31348,1.4812-.25049,2.95483-.58252,4.44678-.72021,1.63745-.15112,2.17578.59448,1.15283,1.94482-1.39526,1.8418-2.95093,3.56763-4.35205,5.40576h.00024c-1.40527,1.84351-3.50244,3.16699-4.59155,5.58398,2.82202-.00366,5.58203-.82983,7.94214-2.37769,4.00024-2.57153,7.82104-5.41211,11.43604-8.50195,1.11182-.95508,3.09302-1.87842,2.79614-3.1792-.30737-1.34741-2.50073-.99927-3.89087-1.3269-.61719-.14575-1.41724-.08154-1.51855-.92871-.09131-.76367.55518-1.11865,1.12354-1.43848,10.26001-5.77002,25.19336-11.76343,41.48511-7.65991l-2.70386-7.0354s20.2561,11.94556,38.95532,15.04126c1.48047.24487,2.95166.43848,4.40161.56226,1.4502-.12378,2.92139-.31738,4.40186-.56226,18.69922-3.0957,38.95508-15.04126,38.95508-15.04126l-2.70386,7.0354c16.29199-4.10352,31.2251,1.88989,41.48511,7.65991.56836.31982,1.21484.67505,1.12354,1.43872-.10107.84692-.90137.78271-1.51855.92847-1.39014.32788-3.5835-.02051-3.89087,1.32715-.29688,1.30054,1.68433,2.22388,2.79614,3.17896,3.61499,3.08984,7.43604,5.93042,11.43628,8.50195,2.35986,1.54785,5.11987,2.37402,7.94214,2.37769-1.08936-2.41699-3.18652-3.74023-4.59155-5.58398-1.40112-1.83813-2.95679-3.56396-4.35181-5.40576-1.02319-1.3501-.48462-2.0957,1.15283-1.94458,1.49194.13745,2.96582.46973,4.44678.72021.7998.13525,1.74707.67603,2.26807-.31372.43188-.82007-.11816-1.59814-.64404-2.25171-1.6272-2.021-3.302-4.00537-4.91943-6.03369-1.55981-1.95557-3.01929-3.98901-4.61328-5.91699-5.10107-6.16992-5.30469-13.11816-2.57324-20.03564,3.37573-8.90576,5.31396-18.26013,5.78149-27.71655l-14.93359-8.23755-7.4519,12.6062Z"/><path class="cls-2" d="M305.76591,164.9912c-.22192-2.74487-.35059-5.49878-.63501-8.2373-.53491-5.15259-3.58813-8.06763-8.87866-8.7207-4.7915-.59131-9.02881,1.20093-13.37085,2.71826-4.27222,1.4928-9.20142,4.1311-14.21387,7.28467l19.85229,10.95068,5.09399-2.6438-.00122.0022.00269-.00146-2.43115,4.11279,14.93359,8.23755c.22534-4.55688.11377-9.13721-.35181-13.70288Z"/><path class="cls-2" d="M134.65507,166.34374l.00098.00049-.00073-.00122,4.74341,2.46167,19.88184-10.96692c-4.90088-3.06384-9.71143-5.62561-13.8916-7.0863-4.34229-1.51733-8.57935-3.30957-13.37085-2.71826-5.29077.65283-8.34399,3.56812-8.87866,8.72046-.28442,2.73877-.41309,5.49243-.63477,8.2373-.45337,4.44409-.57471,8.90198-.37329,13.3385l14.78711-8.15662-2.26343-3.8291Z"/><rect class="cls-2" x="288.57038" y="178.92308" width=".00055" height="9.79504" transform="translate(-51.74186 148.45918) rotate(-26.56505)"/><polygon class="cls-2" points="166.87431 183.06273 139.39872 168.80467 139.39823 168.80504 166.87431 183.06273"/><rect class="cls-2" x="137.02657" y="164.90254" width=".00102" height="5.34339" transform="translate(-74.82769 212.01635) rotate(-62.5743)"/><polygon class="cls-2" points="158.70219 199.11229 158.70194 199.1118 153.07035 198.87645 158.70219 199.11229"/><polygon class="cls-2" points="269.56889 199.11229 272.59843 198.98534 269.56913 199.1118 269.56889 199.11229"/><polygon class="cls-2" points="288.52079 168.98741 288.51981 168.9868 266.99735 180.15624 288.52079 168.98741"/><rect class="cls-2" x="291.06583" y="164.79667" width=".00183" height="5.73786" transform="translate(3.14613 340.67811) rotate(-60.9454)"/><polygon class="cls-2" points="281.25321 208.08836 281.25346 208.08812 280.99735 207.25145 281.25321 208.08836"/><polygon class="cls-2" points="147.01786 208.08836 149.1265 201.19212 147.01737 208.08592 147.01786 208.08836"/><polygon class="cls-2" points="134.86088 184.57811 144.53813 183.06297 140.16972 175.67284 144.53739 183.06273 134.8599 184.57811 144.26225 194.7058 145.05253 198.54295 144.26298 194.70604 134.86088 184.57811"/><rect class="cls-2" x="287.45726" y="169.43737" width=".00096" height="14.64414"/><rect class="cls-2" x="290.01057" y="168.39919" width="4.77629" height=".00224" transform="translate(-1.35928 334.41814) rotate(-59.41184)"/><polygon class="cls-2" points="281.25346 208.08812 281.2537 208.0891 284.00712 194.70628 293.40946 184.5786 293.40897 184.57835 284.00688 194.7058 281.25346 208.08812"/><polygon class="cls-2" points="261.39677 183.06273 266.99735 180.15624 261.3953 183.06322 275.48979 186.98778 269.56767 199.11205 269.56913 199.1118 275.49076 186.98778 261.39677 183.06273"/><polygon class="cls-2" points="272.59843 198.98534 278.39433 198.74364 280.99735 207.25145 278.39555 198.74291 272.59843 198.98534"/><polygon class="cls-2" points="136.9185 170.17284 140.16972 175.67284 136.91874 170.17259 136.9185 170.17284"/><rect class="cls-2" x="133.56331" y="168.25799" width="4.44755" height=".00072" transform="translate(-75.43359 214.46259) rotate(-63.43495)"/><polygon class="cls-2" points="149.1265 201.19212 149.87577 198.74315 153.07035 198.87645 149.87553 198.74291 149.1265 201.19212"/><polygon class="cls-2" points="158.70243 199.1118 152.78056 186.98778 158.70194 199.1118 158.70243 199.1118"/><polygon class="cls-2" points="147.0164 208.08885 147.01737 208.08592 145.05253 198.54295 147.0164 208.08885"/><polygon class="cls-2" points="166.8748 183.06322 166.87431 183.06273 152.78056 186.98778 166.8748 183.06322"/></svg>