<?xml version="1.0" encoding="utf-8"?>
<!-- Generator: Adobe Illustrator 21.1.0, SVG Export Plug-In . SVG Version: 6.00 Build 0)  -->
<svg version="1.1" id="Layer_1" xmlns="http://www.w3.org/2000/svg" xmlns:xlink="http://www.w3.org/1999/xlink" x="0px" y="0px"
	 viewBox="0 0 286 238.1159973" style="enable-background:new 0 0 286 238.1159973;" xml:space="preserve">
<style type="text/css">
	.st0{opacity:0.6;}
	.st1{opacity:0.7;}
	.st2{opacity:0.8;}
</style>
<path d="M19.0532227,178.2753601L0.5927734,225.2695007h6.7924805c0.7363281,0,1.359375-0.2050781,1.8691406-0.6171875
	c0.5087891-0.4121094,0.8500977-0.8652344,1.0234375-1.3652344l3.5102539-9.5869141h19.4672852l3.5097656,9.5869141
	c0.2167969,0.5644531,0.5693359,1.0351562,1.0566406,1.4140625s1.1103516,0.5683594,1.8691406,0.5683594h6.7597656
	l-18.4599609-46.9941406H19.0532227z M16.0302734,207.5253601l5.7202148-15.5683594
	c0.28125-0.7148438,0.5683594-1.5488281,0.8613281-2.5019531c0.2919922-0.953125,0.5898438-1.9824219,0.8935547-3.0878906
	c0.3037109,1.1054688,0.6123047,2.1289062,0.9267578,3.0722656c0.3134766,0.9414062,0.6005859,1.7597656,0.8603516,2.453125
	l5.7207031,15.6328125H16.0302734z"/>
<path d="M80.737793,182.4667664c-1.4951172-1.3203125-3.3916016-2.3496094-5.6875-3.0869141
	c-2.296875-0.7363281-5.0166016-1.1044922-8.1582031-1.1044922H51.5844727v46.9941406h8.7431641v-16.5419922h6.5644531
	c3.0556641,0,5.7207031-0.3789062,7.9951172-1.1376953c2.2753906-0.7578125,4.1708984-1.8203125,5.6875-3.1855469
	c1.5166016-1.3642578,2.6542969-2.9941406,3.4130859-4.890625c0.7578125-1.8955078,1.1367188-3.9804688,1.1367188-6.2558594
	c0-2.1884766-0.3574219-4.203125-1.0722656-6.0449219S82.2319336,183.789032,80.737793,182.4667664z M75.7973633,196.8486023
	c-0.3896484,1.0732422-0.9746094,1.9824219-1.7548828,2.7294922c-0.7802734,0.7480469-1.7666016,1.3222656-2.9580078,1.7226562
	c-1.1914062,0.4023438-2.5888672,0.6015625-4.1923828,0.6015625h-6.5644531v-16.8671875h6.5644531
	c1.6035156,0,3.0009766,0.1894531,4.1923828,0.5683594s2.1777344,0.9257812,2.9580078,1.6416016
	c0.7802734,0.7148438,1.3652344,1.5810547,1.7548828,2.6005859c0.3896484,1.0175781,0.5849609,2.1552734,0.5849609,3.4121094
	C76.3823242,194.5800476,76.1870117,195.7763367,75.7973633,196.8486023z"/>
<rect x="92.9897461" y="178.2753601" width="8.7753906" height="46.9941406"/>
<path d="M131.2915039,208.8085632c-0.7695312-0.6816406-1.6416016-1.2460938-2.6162109-1.6894531
	c-0.9755859-0.4443359-1.9716797-0.8398438-2.9902344-1.1865234s-2.0146484-0.6669922-2.9902344-0.9589844
	c-0.9746094-0.2919922-1.8476562-0.6220703-2.6162109-0.9912109c-0.7695312-0.3681641-1.3867188-0.796875-1.8525391-1.2832031
	c-0.4658203-0.4882812-0.6982422-1.0898438-0.6982422-1.8046875c0-1.0820312,0.4550781-1.9599609,1.3642578-2.6318359
	c0.9101562-0.6708984,2.15625-1.0078125,3.7382812-1.0078125c1.0175781,0,1.9013672,0.1083984,2.6484375,0.3251953
	s1.4140625,0.4609375,1.9990234,0.7304688c0.5849609,0.2714844,1.0986328,0.515625,1.5429688,0.7324219
	s0.8613281,0.3242188,1.2519531,0.3242188c0.3681641,0,0.6708984-0.0703125,0.9101562-0.2109375
	c0.2373047-0.140625,0.4648438-0.3847656,0.6816406-0.7314453l1.8203125-2.8916016
	c-1.2568359-1.2363281-2.8271484-2.2324219-4.7119141-2.9902344c-1.8857422-0.7587891-3.9765625-1.1386719-6.2724609-1.1386719
	c-2.0595703,0-3.8740234,0.2773438-5.4443359,0.8300781c-1.5712891,0.5517578-2.8818359,1.2890625-3.9326172,2.2089844
	c-1.0507812,0.921875-1.8476562,1.9990234-2.3886719,3.234375c-0.5419922,1.234375-0.8125,2.5351562-0.8125,3.9003906
	c0,1.4726562,0.2324219,2.7294922,0.6992188,3.7695312c0.4658203,1.0400391,1.0830078,1.9179688,1.8525391,2.6328125
	c0.7685547,0.7148438,1.6455078,1.3046875,2.6318359,1.7714844c0.9863281,0.4648438,1.9931641,0.8710938,3.0224609,1.21875
	c1.0292969,0.3457031,2.0371094,0.6660156,3.0224609,0.9580078c0.9863281,0.2919922,1.8632812,0.6230469,2.6328125,0.9912109
	c0.7685547,0.3691406,1.3867188,0.8017578,1.8525391,1.3007812c0.4658203,0.4980469,0.6992188,1.1367188,0.6992188,1.9169922
	c0,0.5205078-0.1035156,1.0244141-0.3095703,1.5107422c-0.2060547,0.4882812-0.53125,0.9160156-0.9746094,1.2832031
	c-0.4443359,0.3691406-1.0078125,0.6679688-1.6904297,0.8945312c-0.6816406,0.2285156-1.5,0.3417969-2.453125,0.3417969
	c-1.2138672,0-2.2158203-0.140625-3.0068359-0.4238281c-0.7910156-0.28125-1.4785156-0.5839844-2.0634766-0.9082031
	c-0.5849609-0.3261719-1.0996094-0.6289062-1.5439453-0.9101562s-0.9150391-0.4238281-1.4130859-0.4238281
	c-0.4990234,0-0.9101562,0.0976562-1.2353516,0.2929688s-0.6064453,0.4765625-0.8447266,0.8457031l-1.8525391,3.0546875
	c0.6494141,0.5839844,1.4023438,1.1269531,2.2587891,1.625c0.8554688,0.4980469,1.7871094,0.9316406,2.7949219,1.2988281
	c1.0068359,0.3691406,2.0576172,0.65625,3.1523438,0.8613281c1.09375,0.2070312,2.2148438,0.3085938,3.3632812,0.3085938
	c2.1455078,0,4.046875-0.2753906,5.7041016-0.828125s3.0498047-1.3203125,4.1767578-2.3066406
	c1.1259766-0.9863281,1.9824219-2.15625,2.5673828-3.5097656c0.5849609-1.3554688,0.8769531-2.8339844,0.8769531-4.4375
	c0-1.3427734-0.2324219-2.4902344-0.6982422-3.4443359C132.6772461,210.3095398,132.0600586,209.4911804,131.2915039,208.8085632z"
	/>
<path d="M166.4560547,194.9316101c-0.9423828-1.1162109-2.1181641-1.9824219-3.5263672-2.6005859
	c-1.4082031-0.6171875-3.0224609-0.9267578-4.8427734-0.9267578c-1.1259766,0-2.1660156,0.109375-3.1191406,0.3261719
	c-0.9541016,0.2167969-1.8476562,0.53125-2.6816406,0.9414062c-0.8339844,0.4121094-1.625,0.9003906-2.3730469,1.4628906
	c-0.7470703,0.5644531-1.4570312,1.1914062-2.1279297,1.8847656l-0.5527344-2.6318359
	c-0.3251953-0.9755859-1.0078125-1.4628906-2.0478516-1.4628906h-4.9077148v33.3447266h8.027832v-24.1152344
	c1.0830078-1.0820312,2.2314453-1.9375,3.4453125-2.5664062c1.2128906-0.6289062,2.5126953-0.9433594,3.8994141-0.9433594
	c1.8857422,0,3.2988281,0.5585938,4.2412109,1.6738281c0.9433594,1.1171875,1.4140625,2.6933594,1.4140625,4.7285156v21.2226562
	h8.0273438v-21.2226562c0-1.8623047-0.2431641-3.5683594-0.7314453-5.1181641
	C168.1132812,197.3798523,167.3984375,196.0468445,166.4560547,194.9316101z"/>
<path d="M203.4248047,196.0195007c-1.4306641-1.4726562-3.1582031-2.6103516-5.1845703-3.4121094
	c-2.0253906-0.8007812-4.2841797-1.203125-6.7753906-1.203125c-2.4921875,0-4.7568359,0.4023438-6.7929688,1.203125
	c-2.0371094,0.8017578-3.7753906,1.9394531-5.2158203,3.4121094c-1.4414062,1.4746094-2.5576172,3.2724609-3.3476562,5.3955078
	c-0.7910156,2.1240234-1.1865234,4.4960938-1.1865234,7.1181641c0,2.6425781,0.3955078,5.0263672,1.1865234,7.1494141
	c0.7900391,2.1240234,1.90625,3.9326172,3.3476562,5.4267578c1.4404297,1.4960938,3.1787109,2.6445312,5.2158203,3.4453125
	c2.0361328,0.8007812,4.3007812,1.203125,6.7929688,1.203125c2.4912109,0,4.75-0.4023438,6.7753906-1.203125
	c2.0263672-0.8007812,3.7539062-1.9492188,5.1845703-3.4453125c1.4296875-1.4941406,2.5341797-3.3027344,3.3144531-5.4267578
	c0.7802734-2.1230469,1.1699219-4.5068359,1.1699219-7.1494141c0-2.6220703-0.3896484-4.9941406-1.1699219-7.1181641
	C205.9589844,199.2919617,204.8544922,197.4941101,203.4248047,196.0195007z M197.6230469,216.7870789
	c-1.3320312,1.8632812-3.3857422,2.7949219-6.1582031,2.7949219c-2.8173828,0-4.8974609-0.9355469-6.2402344-2.8105469
	c-1.34375-1.8740234-2.015625-4.5996094-2.015625-8.1738281c0-3.5751953,0.671875-6.3105469,2.015625-8.2070312
	c1.3427734-1.8945312,3.4228516-2.84375,6.2402344-2.84375c2.7724609,0,4.8261719,0.9433594,6.1582031,2.828125
	c1.3330078,1.8847656,1.9990234,4.6259766,1.9990234,8.2226562S198.9560547,214.9237976,197.6230469,216.7870789z"/>
<path d="M240.3769531,196.0195007c-1.4306641-1.4726562-3.1582031-2.6103516-5.1845703-3.4121094
	c-2.0253906-0.8007812-4.2841797-1.203125-6.7753906-1.203125c-2.4921875,0-4.7568359,0.4023438-6.7929688,1.203125
	c-2.0371094,0.8017578-3.7753906,1.9394531-5.2158203,3.4121094c-1.4414062,1.4746094-2.5576172,3.2724609-3.3476562,5.3955078
	c-0.7910156,2.1240234-1.1865234,4.4960938-1.1865234,7.1181641c0,2.6425781,0.3955078,5.0263672,1.1865234,7.1494141
	c0.7900391,2.1240234,1.90625,3.9326172,3.3476562,5.4267578c1.4404297,1.4960938,3.1787109,2.6445312,5.2158203,3.4453125
	c2.0361328,0.8007812,4.3007812,1.203125,6.7929688,1.203125c2.4912109,0,4.75-0.4023438,6.7753906-1.203125
	c2.0263672-0.8007812,3.7539062-1.9492188,5.1845703-3.4453125c1.4296875-1.4941406,2.5341797-3.3027344,3.3144531-5.4267578
	c0.7802734-2.1230469,1.1699219-4.5068359,1.1699219-7.1494141c0-2.6220703-0.3896484-4.9941406-1.1699219-7.1181641
	C242.9111328,199.2919617,241.8066406,197.4941101,240.3769531,196.0195007z M234.5751953,216.7870789
	c-1.3320312,1.8632812-3.3857422,2.7949219-6.1582031,2.7949219c-2.8173828,0-4.8974609-0.9355469-6.2402344-2.8105469
	c-1.34375-1.8740234-2.015625-4.5996094-2.015625-8.1738281c0-3.5751953,0.671875-6.3105469,2.015625-8.2070312
	c1.3427734-1.8945312,3.4228516-2.84375,6.2402344-2.84375c2.7724609,0,4.8261719,0.9433594,6.1582031,2.828125
	c1.3330078,1.8847656,1.9990234,4.6259766,1.9990234,8.2226562S235.9082031,214.9237976,234.5751953,216.7870789z"/>
<path d="M280.9199219,201.0741882c-0.5957031-2.1132812-1.4414062-3.8886719-2.5351562-5.3300781
	s-2.3945312-2.5410156-3.8994141-3.2988281c-1.5068359-0.7578125-3.1689453-1.1376953-4.9892578-1.1376953
	c-2.3398438,0-4.3818359,0.4765625-6.1259766,1.4296875c-1.7441406,0.9541016-3.2880859,2.2001953-4.6318359,3.7373047
	l-0.6494141-3.0869141c-0.1083984-0.4990234-0.3466797-0.8662109-0.7148438-1.1044922
	c-0.3691406-0.2382812-0.8125-0.3583984-1.3330078-0.3583984h-4.9072266v44.2333984h8.0273438V222.507782
	c1.0400391,1.0175781,2.2148438,1.8144531,3.5263672,2.3886719c1.3105469,0.5742188,2.9091797,0.8613281,4.7939453,0.8613281
	c2.1875,0,4.1650391-0.4394531,5.9306641-1.3164062s3.2714844-2.0957031,4.5175781-3.65625s2.2050781-3.4023438,2.8769531-5.5253906
	c0.6708984-2.1230469,1.0068359-4.4296875,1.0068359-6.921875
	C281.8134766,205.6073914,281.515625,203.1855164,280.9199219,201.0741882z M272.9736328,213.3593445
	c-0.3681641,1.4189453-0.8935547,2.59375-1.5761719,3.5253906s-1.5166016,1.625-2.5029297,2.0800781
	c-0.9853516,0.4550781-2.0849609,0.6835938-3.2978516,0.6835938c-1.2353516,0-2.3896484-0.2226562-3.4619141-0.6679688
	c-1.0722656-0.4433594-2.0634766-1.2285156-2.9736328-2.3554688v-14.9501953
	c1.0185547-1.2783203,2.1181641-2.2685547,3.2988281-2.9736328c1.1806641-0.703125,2.6054688-1.0566406,4.2734375-1.0566406
	c1.0615234,0,2.0097656,0.1953125,2.84375,0.5859375c0.8339844,0.3896484,1.5439453,1.0068359,2.1289062,1.8515625
	c0.5849609,0.8457031,1.0341797,1.9453125,1.3486328,3.2988281c0.3144531,1.3554688,0.4716797,3.0068359,0.4716797,4.9570312
	C273.5263672,210.2655945,273.3417969,211.9394226,272.9736328,213.3593445z"/>
<path d="M127.1905518,116.6144714c9.2539673,5.4790649,20.0370483,8.6374512,31.5487061,8.6374512
	c34.2568359,0,62.1269531-27.8696289,62.1269531-62.1259766S192.9960938,0.9999695,158.7392578,0.9999695
	S96.612793,28.8695984,96.612793,63.125946c0,11.5119629,3.1586304,22.2952881,8.6381226,31.5494385l-31.9819336,31.982666
	c-1.5139771,1.5130005-1.5139771,3.9709473,0,5.4839478l16.4539795,16.4550171c1.5140381,1.5130005,3.9710083,1.5130005,5.4850464,0
	L127.1905518,116.6144714z M116.9869995,39.019989c8.6119995-14.9160156,24.5279541-24.1049805,41.7519531-24.1049805
	c26.6270142,0,48.2120361,21.5849609,48.2120361,48.2110596c0,26.6269531-21.585022,48.2119751-48.2120361,48.2119751
	c-7.5178223,0-14.7856445-1.7520752-21.3065186-4.9654541c-8.4190063-4.1488037-15.5923462-10.734436-20.4454346-19.140564
	c-0.53125-0.920166-1.0284424-1.8539429-1.4941406-2.7988281C108.4090576,70.0604553,108.90625,53.0168152,116.9869995,39.019989z"
	/>
<path class="st0" d="M133.6879883,48.6630554c5.1669922-8.9500732,14.71698-14.4639893,25.0509644-14.4639893V14.9999695v-0.0849609
	c-17.223999,0-33.1399536,9.1889648-41.7519531,24.1049805l0.0939331,0.0542603L133.6879883,48.6630554z"/>
<path class="st1" d="M137.4324341,106.3725891c6.520874,3.2133789,13.7886963,4.9654541,21.3065186,4.9654541v-0.0861206V92.053009
	c-10.3339844,0-19.8839722-5.5130005-25.0509644-14.4629517c-5.1669922-8.9500732-5.1669922-19.9770508,0-28.927002
	l-16.6070557-9.5888062l-0.0939331-0.0542603c-8.0807495,13.9968262-8.5779419,31.0404663-1.4941406,45.413208
	c0.4656982,0.9448853,0.9628906,1.8786621,1.4941406,2.7988281
	C121.8400879,95.6381531,129.0134277,102.2237854,137.4324341,106.3725891z"/>
<path class="st2" d="M158.7389526,34.1990662c15.9760132,0,28.927002,12.9509277,28.927002,28.927002
	c0,15.9759521-12.9509888,28.9269409-28.927002,28.9269409v19.1989136v0.0861206
	c26.6270142,0,48.2120361-21.585022,48.2120361-48.2119751c0-26.6260986-21.585022-48.2110596-48.2120361-48.2110596v0.0849609
	V34.1990662z"/>
</svg>
