<?xml version="1.0" encoding="UTF-8"?><svg id="_层_1" xmlns="http://www.w3.org/2000/svg" xmlns:xlink="http://www.w3.org/1999/xlink" viewBox="0 0 752.1 727.7"><defs><style>.cls-1{fill:#fff;}.cls-2{stroke:#000;stroke-miterlimit:10;}.cls-3{fill:none;}.cls-4{fill:url(#_命名的渐变_21);}</style><linearGradient id="_命名的渐变_21" x1="376.34" y1="424.62" x2="377.3" y2="424.62" gradientTransform="matrix(1, 0, 0, 1, 0, 0)" gradientUnits="userSpaceOnUse"><stop offset="0" stop-color="#0054d4"/><stop offset="1" stop-color="#0069e7"/></linearGradient></defs><path class="cls-4" d="M377.3,424.75s-.26-.26-.63-.6l-.21,.84h-.12c.06,.06,.1,.09,.1,.1l.86-.33Z"/><path class="cls-3" d="M376.9,261.7c28.1,5.04,45.45,15.65,57.39,24.06,.17,.12,.33,.23,.49,.35l-18.56-15.81c-.07-.06-3.39-3.09-9.65-6.74-6.54-3.81-16.29-8.28-28.87-10.74-12.8-2.5-27.36-2.47-38.96-1.95-7.49,.34-13.75,.87-17.5,1.06,1.19,1.72,1.44,3.72,1.29,5.85,19.54-.28,36.76,.75,54.37,3.91Z"/><path class="cls-3" d="M457.65,313.03c-.06-.08-10.2-12.92-21.48-21.08-11.45-8.28-33.92-17.45-60.26-20.16-25.37-2.61-48.12-2.3-82.69,.77,7.39,3.08,14.85,6.46,21.26,9.87,22.29,11.87,87.23,55.04,87.23,55.04l10.99,8.34,47.88,33.93h0l88.89,62.99c-5.04-6.41-9.44-13.51-13.1-21.15-1.54-3.21-2.94-6.52-4.21-9.91l-58.66-48.42-23.64-17.28c-3.97-14.92-10.36-27.68-18.41-38.59-3.77-5.11-7.91-9.83-12.33-14.16-2.37-2.33-4.83-4.55-7.36-6.67,10.01,4.43,24.85,13.19,41.43,30.23,19.05,19.58,52.25,55.01,74.14,78.47-.11-.48-.22-.95-.32-1.43-.54-2.56-1-5.17-1.4-7.82l-60.94-65.45-7.01-7.54Z"/><path class="cls-3" d="M322.53,257.79c19.54-.28,36.76,.75,54.37,3.91,28.1,5.04,45.45,15.65,57.39,24.06,.17,.12,.33,.23,.49,.35l-18.56-15.81c-.07-.06-3.39-3.09-9.65-6.74-6.54-3.81-16.29-8.28-28.87-10.74-12.8-2.5-27.36-2.47-38.96-1.95-7.49,.34-13.75,.87-17.5,1.06,1.19,1.72,1.44,3.72,1.29,5.85Z"/><path d="M411.77,286.57c2.53,2.12,4.98,4.34,7.36,6.67,4.42,4.33,8.55,9.05,12.33,14.16,8.05,10.91,14.45,23.67,18.41,38.59l23.64,17.28,58.66,48.42c-1.97-5.29-3.58-10.78-4.84-16.42-21.89-23.46-55.08-58.89-74.14-78.47-16.58-17.04-31.42-25.79-41.43-30.23Z"/><path class="cls-2" d="M322.53,257.79c19.54-.28,36.76,.75,54.37,3.91,28.1,5.04,45.45,15.65,57.39,24.06,.17,.12,.33,.23,.49,.35l-18.56-15.81c-.07-.06-3.39-3.09-9.65-6.74-6.54-3.81-16.29-8.28-28.87-10.74-12.8-2.5-27.36-2.47-38.96-1.95-7.49,.34-13.75,.87-17.5,1.06,1.19,1.72,1.44,3.72,1.29,5.85Z"/><path d="M269.57,480.04h-.09s.07,.06,.07,.07l.61-.24s-.19-.18-.45-.42l-.15,.59Z"/><path d="M577.15,490.07c-1.28-1.6-3.05-2.71-5.05-3.17l-2.21-.51c-48.15-11.55-77.64-47.5-91.06-68.17-3.77-6.09-7.31-12.35-10.55-18.79l100.82,62.19-.35-.36c-6.09-4.37-11.78-9.64-16.98-15.72l-.05-.06-.05-.06c-.74-.88-1.47-1.78-2.19-2.7l-88.89-62.99h0l-47.88-33.93-10.99-8.34s-64.95-43.17-87.23-55.04c-6.41-3.41-13.88-6.79-21.26-9.87,34.57-3.07,57.32-3.38,82.69-.77,26.34,2.71,48.8,11.88,60.26,20.16,11.28,8.16,21.42,21,21.48,21.08l7.01,7.54,60.94,65.45c-.23-1.52-.43-3.06-.61-4.61l-71.04-78.02c-.3-.38-1.68-2.08-4.16-4.59l-3.15-4.69-28.39-26.06c-.4-.37-3.47-3.13-9.06-6.51-2.77-3.63-8.64-10.33-17.87-15.95-6.93-4.22-14.45-7.22-22.45-8.97-1.22-.27-2.45-.52-3.69-.73-11.57-2-23.99-1.54-36.91,1.35l-1.41,.32,4.85,9.25c-11.18,.12-19.3,.63-19.48,.64l-2.92,.19,1.83,2.28c1.15,1.43,3.36,4.77,4.75,8.01-13.83,.39-28.92,1.36-46.14,2.64-2.19,.16-4.48,.33-6.84,.51-3.61-1.25-5.78-1.96-5.78-1.96,0,0-55.03-16.61-72.85-4.51-17.82,12.1-6.83,30.19-6.83,30.19l15.33,28.42h0l2.9,5.37h0l39.47,73.15,25.84,42.69c1.96,2.54,3.44,4.56,4.69,6.28,.67,.92,1.27,1.74,1.84,2.52,1.83,2.48,3.38,4.42,5.9,6.88,11.55,11.28,34.23,29.84,62.8,35.24,41.91,7.92,94.54,6.95,94.54,6.95l48.66,.47,41.97,.11h3.68l54.43,.16h0l-2.36-2.96Z"/><path class="cls-1" d="M287.25,470l-8.48-8.94c37.75-40.29,77.52-162.37,77.9-163.6l1.65,4.23c-1.56,5.09-32.36,127.01-71.06,168.32Z"/><path class="cls-1" d="M353.05,491.74l-12.38-1.96c25.61-23.92,47.37-147.28,47.63-148.58l.18,2.8c-1.09,5.4-8.43,122.52-35.43,147.74Z"/><path class="cls-1" d="M240.84,416.15l-11.41-5.18c31.04-16.25,81.11-110.37,81.71-111.56l-4.59,13.36c-2.49,4.92-32.97,86.24-65.71,103.38Z"/><path class="cls-1" d="M410.52,475.88c-67.8-12.41-104.58-41.48-132.2-68.74-29.94-29.55-40.62-55.97-41.19-57.07l-4.7-10.78c.14,.26,20.11,35.42,49.54,64.42,27.11,26.71,77.45,61.84,143.91,74l-15.36-1.83Z"/><path class="cls-1" d="M417.79,443.78c-54.11-12.25-91.96-45.6-116.72-72.59-26.78-29.19-41.03-55.91-41.17-56.18l-.75-1.7c.14,.26,19.32,25.87,45.7,54.6,24.26,26.42,70.99,65.31,123.79,77.27l-10.85-1.4Z"/></svg>