<?xml version="1.0" encoding="UTF-8"?>
<svg id="Layer_1" data-name="Layer 1" xmlns="http://www.w3.org/2000/svg" viewBox="0 0 111.2198778 84.0547346">
  <defs>
    <style>
      .cls-1 {
        fill: #00b6c7;
        stroke-width: 0px;
      }
    </style>
  </defs>
  <path class="cls-1" d="m71.432298,1.1065572c-.5889654-.4005169-1.2840307-.6162289-1.9962694-.619531L59.5235463.0051718c-1.0151375-.0562339-2.0014687.3484189-2.6846255,1.1013855L1.0123937,59.5488781c-1.330611,1.303725-1.3524061,3.4392726-.0486844,4.7698869.016064.0163988.0322921.0326269.0486844.0486844l19.8249517,18.7235662c.62131.6191633,1.4633081.9658623,2.3404474.963709h58.2358127v-6.8836658h-20.6509973l8.1915659-8.6734205h0l4.7497331-5.0250729h0l27.5346631-29.2555795c1.3306143-1.303725,1.3524093-3.4392792.0486712-4.7698869-.0160574-.0163922-.0322856-.0326204-.0486712-.0486778L71.432298,1.1065572Zm-20.2379811,75.7203235h-26.6397858l-16.1766172-15.0752317,25.3318922-26.8462939,30.0816187,28.4983721-12.5971078,13.4231535Zm17.3468409-18.3793881l-30.0816252-28.4295404L60.5560935,6.6134846h6.8836658l26.1579247,24.7811994-25.0565261,27.0528086Zm14.6622023,18.5859028h8.2604042v6.8836658h-8.2604042v-6.8836658Zm9.7748059,0h8.2604042v6.8836658h-8.2604042v-6.8836658Zm18.2417117,0v6.8836658h-8.2604042v-6.8836658h8.2604042Zm-18.2417117-8.3292424h8.2604042v6.8836658h-8.2604042v-6.8836658Zm-9.4306279-8.1227277h8.2604042v6.8836658h-8.2604042v-6.8836658Zm9.4306279-8.0538895h8.2604042v6.8836658h-8.2604042v-6.8836658Z"/>
</svg>