<?xml version="1.0" encoding="utf-8"?>
<!-- Generator: Adobe Illustrator 21.1.0, SVG Export Plug-In . SVG Version: 6.00 Build 0)  -->
<svg version="1.1" id="Layer_1" xmlns="http://www.w3.org/2000/svg" xmlns:xlink="http://www.w3.org/1999/xlink" x="0px" y="0px"
	 viewBox="0 0 1072 460" style="enable-background:new 0 0 1072 460;" xml:space="preserve">
<style type="text/css">
	.st0{fill:#E4E4E4;}
	.st1{fill:none;stroke:#4A4A4A;stroke-width:12;stroke-linecap:square;}
	.st2{fill:url(#Shape_2_);stroke:#000000;stroke-width:2;}
	.st3{fill:#FFFFFF;}
	.st4{fill:#999999;}
</style>
<g>
	<path d="M389.5900269,206.7681885h-18.6429443v-12.6930389h51.9622192v12.6930389h-18.2462769v54.3421326h-15.072998V206.7681885z"
		/>
	<path d="M433.2224121,194.0751495h42.0457458v12.6930389h-26.9727783v13.4863739h23.0061951v12.6930542h-23.0061951v15.4696655
		h27.7660828v12.6930389h-42.8390503V194.0751495z"/>
	<path d="M489.547821,194.0751495h15.0730286v54.3421326h26.5760498v12.6930389H489.547821V194.0751495z"/>
	<path d="M542.3033447,194.0751495h42.0457764v12.6930389h-26.9727783v13.4863739h23.0061646v12.6930542h-23.0061646v15.4696655
		h27.7660522v12.6930389h-42.8390503V194.0751495z"/>
	<path d="M598.6287842,194.0751495h24.5927734c14.6763306,0,26.1794434,5.1565552,26.1794434,21.4195404
		c0,15.8663177-11.8997192,22.6094971-26.1794434,22.6094971h-9.5197754v22.6094971h-15.072998V194.0751495z
		 M622.0316162,226.2044373c8.329834,0,12.2963867-3.569931,12.2963867-10.7097473
		c0-7.1398621-4.3632202-9.5198059-12.2963867-9.5198059h-8.329834v20.2295532H622.0316162z"/>
	<path d="M697,261.110321l-12.6930542-24.1961212h-8.329834v24.1961212h-15.072998v-67.0351715h24.196167
		c14.2796631,0,25.7827759,4.7598724,25.7827759,21.0228882c0,9.9164429-4.7598877,16.26297-11.8997803,19.4362488
		l15.0730591,26.9727631H697V261.110321z M675.9771118,225.0144501h7.536499c7.9331665,0,12.2963867-3.569931,12.2963867-9.9164429
		c0-6.7431793-4.3632202-8.7264709-12.2963867-8.7264709h-7.536499V225.0144501z"/>
	<path d="M723.9727783,194.0751495h42.0457764v12.6930389h-26.9727783v13.4863739h23.0061646v12.6930542h-23.0061646v15.4696655
		h27.7660522v12.6930389h-43.2357178v-67.0351715H723.9727783z"/>
	<path d="M784.2647705,242.4674072c4.7598877,3.9665833,10.7097778,7.1398621,16.2630005,7.1398621
		c6.3465576,0,9.5197754-2.3799438,9.5197754-6.3465271c0-4.3632202-3.9666138-5.5532074-9.5197754-7.9331512l-8.7264404-3.569931
		c-7.1398926-2.7765961-13.4863892-8.7264709-13.4863892-18.2462616c0-11.1064453,9.9164429-19.832901,23.7994995-19.832901
		c7.536499,0,15.866333,3.1732788,21.4194946,8.7264557l-7.536438,9.5198059
		c-4.3632812-3.569931-8.7265015-5.1565704-13.8830566-5.1565704s-8.329834,2.3799438-8.329834,5.9498749
		c0,3.9665833,4.3632812,5.5532227,10.3131104,7.9331512l8.7265015,3.569931
		c7.9331665,3.1732788,13.0897217,8.7264709,13.0897217,18.2462616c0,11.1064453-9.1231689,20.6262207-24.989502,20.6262207
		c-8.7264404,0-17.8496094-3.1732788-24.9894409-9.5198059L784.2647705,242.4674072z"/>
	<path d="M837.0203247,194.0751495h42.0457764v12.6930389h-26.9727783v13.4863739h23.0061646v12.6930542h-23.0061646v15.4696655
		h27.7660522v12.6930389h-43.2357178v-67.0351715H837.0203247z"/>
	<path d="M892.9490356,194.0751495h15.4696655l17.4529419,33.3192749l6.7431641,14.6763306h0.3966675
		c-0.7932739-7.1398468-1.9832764-16.6596222-1.9832764-24.5927734v-23.7994843h14.2797241v67.0352173h-15.4696655
		l-17.4529419-33.3192902l-6.7431641-14.6763306h-0.3966675c0.7932739,7.536499,1.9832764,16.26297,1.9832764,24.1961365v23.7994843
		h-14.6763306v-66.6385651H892.9490356z"/>
	<path d="M989.7336426,192.8851624c8.329834,0,15.4696655,3.9665833,19.8328857,8.7264557l-8.329834,9.5198059
		c-3.5698853-3.1732788-6.7431641-5.1565704-11.5030518-5.1565704c-9.5197754,0-16.6596069,7.9331665-16.6596069,21.4195404
		c0,13.8830261,6.3465576,21.8161926,16.2630005,21.8161926c5.5531616,0,9.5197754-2.3799438,12.6930542-5.9498749
		l8.329834,9.1231537c-5.5532227,6.3465118-13.0897217,9.9164581-21.4194946,9.9164581
		c-17.4529419,0-31.732666-11.8997498-31.732666-34.5092468
		C958.0009766,205.974884,972.6773682,192.8851624,989.7336426,192.8851624z"/>
	<path d="M1020.6729736,194.0751495h42.0457764v12.6930389h-26.9727783v13.4863739h23.0062256v12.6930542h-23.0062256v15.4696655
		h27.7661133v12.6930389h-43.2357178v-67.0351715H1020.6729736z"/>
</g>
<g>
	<ellipse id="Oval-8-Copy-10_1_" class="st0" cx="179.5236969" cy="440.0080872" rx="78.3300705" ry="9.3610449"/>
	<path id="Combined-Shape-Copy-13_1_" d="M70.0818634,276.0155029l-17.0701675-22.7143555l3.7168922-2.7532501
		l15.1428947,19.9610748l1.6519547-5.2311707l-14.4545822-19.1351013l3.7168922-2.7532654l12.389637,16.5195312l1.6519547-5.2311859
		l-11.8389893-15.5558929l3.7168961-2.7532501l9.7740479,12.9402771l6.8831406-21.8883514
		c0,0-22.8520012-38.6832123-27.5325356-48.044281c-7.7091064-15.9688721-55.2027283-2.4779358-53.963768,26.4312286
		c1.2389522,28.4962006,59.1949387,93.0599823,59.1949387,93.0599823L70.0818634,276.0155029z"/>
	<path id="Combined-Shape-Copy-14_1_" d="M287.0382385,261.9739075l17.0701599-22.7143402l-3.7168884-2.7532654
		l-15.1429138,19.9611053l-1.651947-5.2312012l14.4545898-19.1351013l-3.7168884-2.7532501l-12.3896484,16.519516
		l-1.651947-5.2311859l11.8390198-15.5558777l-3.7168884-2.7532654l-9.7740784,12.9402924l-6.8831177-21.8883514
		c0,0,22.8519897-38.6832123,27.5325317-48.044281c7.7091064-15.9688721,55.2026978-2.4779358,53.9637451,26.4312439
		s-59.1949463,93.0599823-59.1949463,93.0599823L287.0382385,261.9739075z"/>
	<g id="Group-12-Copy-8_1_" transform="translate(60.000000, 164.000000)">
		<path id="Line-Copy-18_3_" d="M76.2976074,229.6157837c-1.5142822,0-2.7532501,1.3766174-2.7532501,2.8909149
			l1.1013031,32.6260529c0,1.5142822,1.3766251,2.7532349,2.8909073,2.7532349l13.0779572-0.4129944
			c1.5142899,0,2.7532501-1.3766174,2.7532501-2.8908997l-1.1012955-32.6260681
			c0-1.5142822-1.3766251-2.7532501-2.8909149-2.7532501L76.2976074,229.6157837z"/>
		<path id="Rectangle-7-Copy-15_3_" d="M57.5754852,269.5379639c0-2.8909302,2.3402672-5.2311707,5.2311783-5.2311707h24.7792816
			c2.8909149,0,5.2311783,2.3402405,5.2311783,4.4051819v-4.4051819c0,2.4779053-2.3402634,4.8181763-5.0935211,5.2311707
			l-12.6649628,2.0649414l-12.251976,2.8909302c-2.7532539,0.6882935-5.0935173-1.1013184-5.0935173-3.992218v-0.9636536H57.5754852
			z"/>
	</g>
	
		<g id="Group-12-Copy-9_1_" transform="translate(107.000000, 174.500000) scale(-1, 1) translate(-107.000000, -174.500000) translate(99.000000, 164.000000)">
		<path id="Line-Copy-18_2_" d="M-112.2926331,229.6157837c-1.5142899,0-2.7532578,1.3766174-2.7532578,2.8909149
			l1.1013031,32.6260529c0,1.5142822,1.3766251,2.7532349,2.8909149,2.7532349l13.0779572-0.4129944
			c1.5142822,0,2.7532501-1.3766174,2.7532501-2.8908997l-1.1013031-32.6260681
			c0-1.5142822-1.3766251-2.7532501-2.8909149-2.7532501L-112.2926331,229.6157837z"/>
		<path id="Rectangle-7-Copy-15_2_" d="M-131.15242,269.5379639c0-2.8909302,2.340271-5.2311707,5.2311859-5.2311707h24.7792816
			c2.8909149,0,5.2311783,2.3402405,5.2311783,4.4051819v-4.4051819c0,2.4779053-2.3402634,4.8181763-5.0935211,5.2311707
			l-12.6649628,2.0649414l-12.2519836,2.8909302c-2.7532578,0.6882935-5.0935135-1.1013184-5.0935135-3.992218v-0.9636536
			H-131.15242z"/>
	</g>
	<path id="Rectangle-2-Copy-16_1_" d="M53.0116959,132.2956696C44.7519341,62.913681,94.7234802,6.6096482,164.6561127,6.6096482
		h27.3948669c69.9326324,0,119.9041901,56.3040314,111.6444244,125.6860199l-25.7428894,215.9927216
		c-3.3039246,28.2208557-29.0468445,51.072876-57.5430145,51.072876h-84.2495575
		c-28.3584976,0-54.1014175-22.8520203-57.5429916-51.072876L53.0116959,132.2956696z"/>
	<path id="Line-Copy-3_1_" class="st1" d="M180.625,49.8357277V15.9707136"/>
	<g id="Group-2-Copy_1_" transform="translate(0.000000, 23.000000)">
		
			<radialGradient id="Shape_2_" cx="-756.9921265" cy="557.2182617" r="3.7233622" gradientTransform="matrix(-38.7286987 45.0998993 -45.0999985 -38.7285995 -4006.8544922 55792.9570312)" gradientUnits="userSpaceOnUse">
			<stop  offset="0" style="stop-color:#7F7F7F"/>
			<stop  offset="1" style="stop-color:#000000"/>
		</radialGradient>
		<path id="Shape_1_" class="st2" d="M73.1104431,46.6591568c-20.6494026,0-37.4442482,16.7948456-37.4442482,37.4442444v68.4183578
			c0,20.6493988,16.6571846,35.379303,37.1689186,32.9013672l88.5171051-10.875351
			c10.187027-1.2389679,26.844223-1.2389679,37.1689301,0l88.5170898,10.875351
			c20.5117493,2.4779358,37.1689148-12.2519684,37.1689148-32.9013672V84.1034012
			c0-20.6493988-16.7948303-37.4442444-37.4442139-37.4442444H73.1104431z"/>
		<ellipse id="Oval-9_1_" class="st3" cx="60.9961281" cy="74.3293533" rx="6.6078072" ry="6.7454729"/>
	</g>
	<path id="Rectangle-2-Copy-17_1_" class="st4" d="M70.7701797,294.5999451c0,0,32.3507309,25.4675903,96.5015182,21.2000427
		c64.0131378-4.4051819,119.6288452-35.6546021,119.6288452-35.6546021s7.4337769,33.8650208,5.2312012,54.6520691
		c-2.2026062,20.7870483-5.7818298,24.5039368-5.7818298,24.5039368
		c-5.0935059,13.2156372-19.8234253,28.6338196-32.7637177,34.4156799l-1.3766327,0.5506592l-10.0493774,20.2364197
		c-1.1013031,2.340271-4.1298828,3.992218-6.7454681,3.5792236l-28.3585205-3.5792236
		c-2.6155701-0.2753601-5.644165-2.4779053-6.8831329-4.680542l-3.303894-5.9194641
		c-1.2389526-2.2026062-4.4051971-3.992218-7.0207977-3.992218h-13.7662659c-2.6155853,0-5.9195099,1.6519775-7.5714569,3.7169189
		l-5.2311859,6.6077881c-1.651947,2.0649414-4.9558411,3.992218-7.5714417,4.4052124l-23.4026489,3.303894
		c-2.6156006,0.4129944-5.5065079-1.2389526-6.6078186-3.5792236l-6.0571594-12.664978
		c-1.1013031-2.340271-3.992218-4.9558716-6.4701385-5.7818604l-12.2519836-4.4052124
		c-9.7740479-3.5792542-20.787056-14.1792297-24.503952-23.678009l-1.3766251-3.4415588
		c-5.2311783-13.2156372-8.259758-35.379303-6.607811-49.4208984L70.7701797,294.5999451z"/>
	<path id="SR-71-Copy-11_1_" class="st3" d="M215.1783142,328.1896667l-0.4129944-1.5143127
		c-0.4129944-1.5142822-0.2753143-2.7532349,0.4129944-3.7168884c0.6883087-0.963623,1.651947-1.7896118,3.0285797-2.2026062
		c0.5506439-0.2753296,1.2389526-0.4129944,1.7896118-0.5506287c2.2026062-0.5506592,4.1298828-0.8259888,5.7818298-0.688324
		l0.9636383,3.5792236c-1.5142975,0.2753296-3.4415741,0.688324-5.7818298,1.2389526
		c-0.6883087,0.1376953-1.1013031,0.4129944-1.3766327,0.5506592c-0.2753143,0.1376343-0.2753143,0.5506287-0.1376648,0.963623
		l0.1376648,0.2753296c0.1376801,0.4129944,0.2753296,0.688324,0.5506439,0.8259888
		c0.2753296,0.1376648,0.6883087,0.1376648,1.2389526,0l2.2026215-0.5506592c1.9272614-0.5506287,3.4415588,0,4.5428619,1.3766479
		c0.5506439,0.6882935,0.9636383,1.5142822,1.2389679,2.4779358l0.2753143,0.8259583
		c0.9636383,3.5792542-0.1376648,5.7818298-3.4415588,6.6078186c-2.340271,0.688324-3.8545685,0.9636536-4.5428772,1.1013184
		s-1.7896271,0.1376648-3.0285797,0l-0.9636383-3.5792542c1.7896271-0.2752991,3.8545685-0.6882935,6.1948242-1.3766174
		c0.5506439-0.1376648,0.8259888-0.2753296,0.9636383-0.5506287c0.1376648-0.2753296,0.2753143-0.5506592,0.1376648-0.8259888
		l-0.1376648-0.4129944c-0.1376801-0.4129944-0.2753296-0.5506592-0.4129944-0.688324
		c-0.2753143-0.1376648-0.5506439-0.1376648-1.1013031,0l-2.2026062,0.5506592
		c-0.8259888,0.2752991-1.651947,0.2752991-2.340271,0.1376648c-0.6883087-0.1376648-1.2389526-0.2753296-1.651947-0.688324
		c-0.4129944-0.2753296-0.8259888-0.6882935-1.1013031-1.1012878
		C215.7289734,329.7039185,215.315979,329.015625,215.1783142,328.1896667z M232.523819,335.7611084l-4.6805267-17.4831543
		l7.8467712-2.0649414c1.651947-0.4129944,3.1662445-0.4129944,4.2675476,0.2753296
		c1.1013184,0.6882935,2.0649414,1.9272461,2.6155853,3.9921875c0.5506439,1.9272766,0.5506439,3.4415894,0.2753296,4.2675476
		c-0.2753296,0.4129944-0.4129944,0.688324-0.5506439,0.9636536c-0.1376801,0.2752991-0.4129944,0.4129944-0.8259888,0.6882935
		l4.8181915,5.7818298l-5.2311859,1.3766479l-3.8545532-5.5065308h-1.5142975l1.7896118,6.4701538L232.523819,335.7611084z
		 M234.5887604,324.6104126l2.6155853-0.6882935c0.5506439-0.1376953,0.8259735-0.4129944,0.963623-0.688324
		c0.1376801-0.2753296,0-0.8259888-0.1376648-1.3766174c-0.1376648-0.688324-0.4129944-1.1013184-0.6883087-1.2389832
		c-0.2753296-0.2752991-0.688324-0.2752991-1.1013031-0.1376648l-2.6155853,0.688324L234.5887604,324.6104126z
		 M245.4640961,326.9506836l-0.963623-3.7168884l7.4337769-2.0649414l0.963623,3.7168884L245.4640961,326.9506836z
		 M251.5212708,316.4883423l-1.1013031-4.1298828l11.4260101-3.028595l1.651947,1.5143127l-1.2389526,17.0701599
		l-4.9558716,1.3766174l1.1013184-14.5922546L251.5212708,316.4883423z M271.344696,306.7142639l4.6805115,17.4831543
		l-4.6805115,1.2389526l-3.4415894-13.0779419l-2.6155701,1.2389526l-0.8259888-2.8909302l2.340271-2.7532349
		L271.344696,306.7142639z"/>
	<path id="Rectangle-4-Copy-7_1_" class="st3" d="M175.256134,206.22052c1.7896271-1.7896118,4.8182068-1.7896118,6.6078186,0
		l23.1273346,23.1273346c1.7896118,1.7896118,2.4779358,5.2311859,1.3766174,7.5714417l-24.503952,52.4494781
		c-1.1013031,2.340271-2.8909302,2.340271-4.1298828,0l-26.844223-52.4494781
		c-1.2389679-2.3402557-0.6883087-5.6441803,1.1013031-7.4337769L175.256134,206.22052z"/>
	<g>
		<path class="st3" d="M64.8506851,128.1657867h-6.47015v-4.4051971h18.0338173v4.4051971H70.081871v18.859787h-5.2311859
			V128.1657867z"/>
		<path class="st3" d="M79.993576,123.7605896h14.5922394v4.4051971h-9.3610611v4.680542h7.984436v4.4051971h-7.984436v5.3688507
			h9.6363831v4.4051971H79.993576V123.7605896z"/>
		<path class="st3" d="M99.5416718,123.7605896h5.2311859v18.859787h9.2233963v4.4051971H99.5416718V123.7605896z"/>
		<path class="st3" d="M117.8508072,123.7605896h14.592247v4.4051971h-9.3610687v4.680542h7.984436v4.4051971h-7.984436v5.3688507
			h9.6363831v4.4051971h-14.8675613V123.7605896z"/>
		<path class="st3" d="M137.3989105,123.7605896h8.53508c5.0935059,0,9.0857239,1.7896194,9.0857239,7.4337921
			c0,5.5065002-4.1298676,7.846756-9.0857239,7.846756h-3.303894v7.8467712h-5.2311859V123.7605896z M145.5210114,134.9112701
			c2.8909149,0,4.2675323-1.2389679,4.2675323-3.7168884c0-2.4779358-1.5142822-3.3039093-4.2675323-3.3039093h-2.8909149v7.0207977
			H145.5210114z"/>
		<path class="st3" d="M171.5392456,147.0255737l-4.4051971-8.3974152h-2.8909149v8.3974152h-5.2311859v-23.2649841h8.3974304
			c4.9558563,0,8.9480743,1.651947,8.9480743,7.2961273c0,3.4415588-1.651947,5.644165-4.1298828,6.7454681l5.2311859,9.3610687
			h-5.9195099V147.0255737z M164.2431335,134.4982758h2.6155853c2.7532501,0,4.2675476-1.2389679,4.2675476-3.4415741
			c0-2.3402557-1.5142975-3.0285645-4.2675476-3.0285645h-2.6155853V134.4982758z"/>
		<path class="st3" d="M180.9003143,123.7605896h14.5922546v4.4051971h-9.3610687v4.680542h7.984436v4.4051971h-7.984436v5.3688507
			h9.6363831v4.4051971h-15.0052185v-23.2649841H180.9003143z"/>
		<path class="st3" d="M201.8250427,140.5554352c1.651947,1.3766174,3.7168884,2.4779205,5.6441803,2.4779205
			c2.2026062,0,3.303894-0.8259735,3.303894-2.2025909c0-1.5142822-1.3766327-1.9272766-3.303894-2.7532501l-3.0285797-1.2389679
			c-2.4779358-0.9636383-4.6805267-3.0285797-4.6805267-6.332489c0-3.8545532,3.4415741-6.8831253,8.2597656-6.8831253
			c2.6155853,0,5.5065002,1.1013031,7.4337769,3.0285721l-2.6155853,3.3039093
			c-1.5142975-1.2389679-3.0285797-1.7896271-4.8181915-1.7896271c-1.7896271,0-2.8909302,0.8259735-2.8909302,2.0649414
			c0,1.3766327,1.5142975,1.9272766,3.5792389,2.7532501l3.0285797,1.2389679
			c2.7532501,1.1013031,4.5428772,3.0285797,4.5428772,6.332489c0,3.8545532-3.1662598,7.1584473-8.67276,7.1584473
			c-3.0285797,0-6.1948242-1.1013031-8.6727448-3.3039093L201.8250427,140.5554352z"/>
		<path class="st3" d="M220.1341858,123.7605896h14.5922394v4.4051971h-9.3610535v4.680542h7.984436v4.4051971h-7.984436v5.3688507
			h9.6363831v4.4051971h-15.0052185v-23.2649841H220.1341858z"/>
		<path class="st3" d="M239.5446014,123.7605896h5.3688354l6.0571442,11.5636597l2.340271,5.0935211h0.1376648
			c-0.2753143-2.4779358-0.6883087-5.7818298-0.6883087-8.53508v-8.259758h4.9558563v23.2649918h-5.3688354l-6.0571442-11.5636749
			l-2.3402557-5.0935059h-0.1376801c0.2753296,2.6155853,0.688324,5.644165,0.688324,8.3974152v8.2597656h-5.0935211v-23.1273346
			H239.5446014z"/>
		<path class="st3" d="M273.1343079,123.3475952c2.8909302,0,5.3688354,1.3766251,6.8831482,3.0285797l-2.8909302,3.3039093
			c-1.2389526-1.1013184-2.340271-1.7896271-3.992218-1.7896271c-3.303894,0-5.7818298,2.7532501-5.7818298,7.4337921
			c0,4.8181915,2.2026062,7.5714417,5.644165,7.5714417c1.9272766,0,3.3039246-0.8259735,4.4052124-2.0649414l2.8909302,3.1662445
			c-1.9272766,2.2026062-4.5428772,3.4415741-7.4337769,3.4415741c-6.0571594,0-11.0130005-4.1298828-11.0130005-11.9766541
			C262.1213074,127.8904724,267.2148132,123.3475952,273.1343079,123.3475952z"/>
		<path class="st3" d="M283.8720093,123.7605896h14.5922546v4.4051971h-9.361084v4.680542h7.984436v4.4051971h-7.984436v5.3688507
			h9.6363831v4.4051971h-15.0052185v-23.2649841H283.8720093z"/>
	</g>
</g>
</svg>
