<?xml version="1.0" encoding="UTF-8"?><svg id="_层_1" xmlns="http://www.w3.org/2000/svg" xmlns:xlink="http://www.w3.org/1999/xlink" viewBox="0 0 1124.48 579.67"><defs><style>.cls-1{fill:#fff;}.cls-2,.cls-3,.cls-4{fill:#6300ff;}.cls-5{fill:none;}.cls-6{fill:url(#_命名的渐变_21);}.cls-3{font-family:Alibaba-PuHuiTi-H, 'Alibaba PuHuiTi';font-size:173px;}.cls-7{fill:url(#_命名的渐变_21-2);}.cls-4{stroke:#6300ff;stroke-miterlimit:10;}</style><linearGradient id="_命名的渐变_21" x1="212.56" y1="379.44" x2="213.02" y2="379.44" gradientTransform="matrix(1, 0, 0, 1, 0, 0)" gradientUnits="userSpaceOnUse"><stop offset="0" stop-color="#0054d4"/><stop offset="1" stop-color="#0069e7"/></linearGradient><linearGradient id="_命名的渐变_21-2" x1="290.89" y1="398.01" x2="291.54" y2="398.01" xlink:href="#_命名的渐变_21"/></defs><path class="cls-6" d="M213.02,379.51s-.13-.12-.3-.29l-.1,.4h-.06l.05,.05,.41-.16Z"/><path class="cls-7" d="M291.54,398.1s-.18-.18-.43-.4l-.14,.57h-.08s.06,.06,.07,.06l.58-.23Z"/><path class="cls-5" d="M286.22,230.38c19.2,3.44,31.05,10.69,39.21,16.44,.11,.08,.22,.16,.34,.24l-12.68-10.8s-2.32-2.11-6.6-4.6c-4.47-2.6-11.13-5.66-19.72-7.34-8.75-1.71-18.69-1.69-26.62-1.33-5.12,.23-9.4,.6-11.96,.72,.81,1.17,.98,2.54,.88,4,13.35-.19,25.11,.51,37.15,2.67Z"/><path class="cls-5" d="M341.4,265.46c-.04-.05-6.97-8.83-14.68-14.4-7.83-5.66-23.17-11.92-41.17-13.78-17.33-1.78-32.88-1.57-56.5,.53,5.05,2.11,10.15,4.41,14.53,6.75,15.23,8.11,59.6,37.61,59.6,37.61l7.51,5.7,32.71,23.18h0l60.74,43.04c-3.45-4.38-6.45-9.23-8.95-14.45-1.05-2.2-2.01-4.46-2.87-6.77l-40.08-33.08-16.15-11.81c-2.71-10.19-7.08-18.91-12.58-26.37-2.58-3.49-5.4-6.71-8.42-9.68-1.62-1.59-3.3-3.11-5.03-4.56,6.84,3.03,16.98,9.01,28.3,20.65,13.02,13.38,35.7,37.59,50.65,53.62-.07-.33-.15-.65-.22-.98-.37-1.75-.69-3.53-.96-5.34l-41.64-44.72-4.79-5.15Z"/><path class="cls-5" d="M249.08,227.71c13.35-.19,25.11,.51,37.15,2.67,19.2,3.44,31.05,10.69,39.21,16.44,.11,.08,.22,.16,.34,.24l-12.68-10.8s-2.32-2.11-6.6-4.6c-4.47-2.6-11.13-5.66-19.72-7.34-8.75-1.71-18.69-1.69-26.62-1.33-5.12,.23-9.4,.6-11.96,.72,.81,1.17,.98,2.54,.88,4Z"/><path class="cls-2" d="M310.05,247.38c1.73,1.45,3.4,2.96,5.03,4.56,3.02,2.96,5.84,6.18,8.42,9.68,5.5,7.46,9.87,16.17,12.58,26.37l16.15,11.81,40.08,33.08c-1.35-3.61-2.45-7.37-3.31-11.22-14.95-16.03-37.64-40.24-50.65-53.62-11.33-11.64-21.47-17.62-28.3-20.65Z"/><path class="cls-2" d="M249.08,227.71c13.35-.19,25.11,.51,37.15,2.67,19.2,3.44,31.05,10.69,39.21,16.44,.11,.08,.22,.16,.34,.24l-12.68-10.8s-2.32-2.11-6.6-4.6c-4.47-2.6-11.13-5.66-19.72-7.34-8.75-1.71-18.69-1.69-26.62-1.33-5.12,.23-9.4,.6-11.96,.72,.81,1.17,.98,2.54,.88,4Z"/><path class="cls-2" d="M212.89,379.57h-.06l.05,.05,.42-.16s-.13-.13-.31-.29l-.1,.41Z"/><path class="cls-4" d="M423.05,386.43c-.87-1.09-2.09-1.85-3.45-2.17l-1.51-.35c-32.9-7.89-53.05-32.45-62.22-46.58-2.57-4.16-5-8.44-7.21-12.84l68.89,42.5-.24-.25c-4.16-2.99-8.05-6.59-11.6-10.74l-.03-.04-.03-.04c-.51-.6-1.01-1.22-1.5-1.84l-60.74-43.04h0l-32.71-23.18-7.51-5.7s-44.38-29.5-59.6-37.61c-4.38-2.33-9.48-4.64-14.53-6.75,23.62-2.1,39.17-2.31,56.5-.53,18,1.85,33.34,8.12,41.17,13.78,7.71,5.57,14.63,14.35,14.68,14.4l4.79,5.15,41.64,44.72c-.16-1.04-.29-2.09-.42-3.15l-48.54-53.31c-.21-.26-1.15-1.42-2.84-3.14l-2.15-3.21-19.4-17.81c-.27-.25-2.37-2.14-6.19-4.45-1.89-2.48-5.9-7.06-12.21-10.9-4.73-2.88-9.87-4.93-15.34-6.13-.83-.19-1.67-.35-2.52-.5-7.91-1.37-16.39-1.05-25.22,.92l-.96,.22,3.32,6.32c-7.64,.08-13.19,.43-13.31,.44l-2,.13,1.25,1.56c.79,.98,2.3,3.26,3.24,5.47-9.45,.27-19.76,.93-31.52,1.81-1.5,.11-3.06,.23-4.67,.35-2.46-.85-3.95-1.34-3.95-1.34,0,0-37.6-11.35-49.77-3.08-12.18,8.26-4.67,20.63-4.67,20.63l10.48,19.42h0l1.98,3.67h0l26.97,49.98,17.66,29.17c1.34,1.73,2.35,3.11,3.21,4.29,.46,.63,.86,1.19,1.26,1.72,1.25,1.69,2.31,3.02,4.03,4.7,7.89,7.71,23.39,20.39,42.91,24.08,28.63,5.41,64.59,4.75,64.59,4.75l33.25,.32,28.67,.08h2.51l37.19,.11h0l-1.61-2.02Z"/><path class="cls-1" d="M224.97,372.71l-5.8-6.11c25.8-27.53,52.96-110.94,53.22-111.78l1.12,2.89c-1.07,3.48-22.11,86.78-48.55,115Z"/><path class="cls-1" d="M269.93,387.56l-8.46-1.34c17.5-16.34,32.36-100.63,32.54-101.52l.12,1.91c-.75,3.69-5.76,83.71-24.21,100.95Z"/><path class="cls-1" d="M193.26,335.92l-7.8-3.54c21.21-11.1,55.42-75.41,55.83-76.22l-3.14,9.13c-1.7,3.36-22.53,58.93-44.9,70.64Z"/><path class="cls-1" d="M309.2,376.73c-46.32-8.48-71.45-28.34-90.33-46.97-20.46-20.19-27.75-38.24-28.14-38.99l-3.21-7.36c.09,.18,13.74,24.2,33.85,44.02,18.52,18.25,52.92,42.25,98.33,50.56l-10.5-1.25Z"/><path class="cls-1" d="M314.16,354.79c-36.97-8.37-62.83-31.16-79.75-49.6-18.3-19.95-28.03-38.2-28.13-38.38l-.51-1.16c.09,.18,13.2,17.68,31.22,37.31,16.58,18.05,48.51,44.62,84.58,52.79l-7.42-.96Z"/><text class="cls-3" transform="translate(405.66 359.47)"><tspan x="0" y="0">Carina</tspan></text></svg>