<svg xmlns="http://www.w3.org/2000/svg" role="img" viewBox="58.57 -0.18 239.61 360.36"><defs><style>.cls-2{fill:#fff}</style></defs><path d="M178.457 74.919l112.877 62.264V72.396l-.032-2.935L178.676 6.842h-.438L65.712 69.405v67.705l112.745-62.191zm0 210.45L65.712 223.178v67.705l112.526 62.563h.438l112.626-62.619.032-2.935v-64.787l-112.877 62.264z" class="cls-2" opacity=".8"/><path d="M238.579 120.474l9.436-.395 3.056 9.992-3.056-9.992-9.436.395z"/><path d="M93.714 104.937l10.052 10.827 2.945 14.307 3.056-9.992 9.436.395-6.33-12.962 15.067-4.195-34.446-17.876 10.567 17.876-10.347 1.62zm144.014 15.537l9.436-.395 3.057 9.992 2.943-14.307 10.051-10.827-10.344-1.62 10.564-17.876-34.444 17.876 15.068 4.195-6.331 12.962zm-90.198 96.113s15.414-9.976 14.435-25.616c-.094-1.497 1.053-15.814-13.347-21.747-14.766-6.084-31.42 3.209-39.453 6.227a16.5 16.5 0 00-5.845 4.136c-.483.498-1.023 1.053-.536 1.804.385.595 1.07.48 1.648.401.591-.08 1.156-.33 1.745-.446.93-.185 2.05-.921 2.713.231.606 1.057-.313 1.856-1.04 2.512a52.77 52.77 0 01-10.974 7.197 24.803 24.803 0 01-16.95 2.282 22.599 22.599 0 01-11.498-7.163c-.394-.394-.73-1.086-1.446-.82-.708.263-.503.987-.52 1.54a13.616 13.616 0 001.64 6.8c4.121 7.907 11.079 12.829 18.815 16.83l68.425 40.843c-6.139-8.16-22.236-21.838-7.812-35.011zm-22.907-31.568a4.123 4.123 0 01.303-4.274 12.485 12.485 0 0110.968-4.721 18.29 18.29 0 015.159.558 17.854 17.854 0 0112.55 11.22 3.38 3.38 0 01-.6 3.347 12.677 12.677 0 01-10.804 4.707 20.595 20.595 0 01-10.824-2.917 17.072 17.072 0 01-6.752-7.92zm165.326.566c-.716-.266-1.052.426-1.446.82a22.599 22.599 0 01-11.499 7.163 24.803 24.803 0 01-16.949-2.282 52.764 52.764 0 01-10.974-7.197c-.727-.656-1.646-1.455-1.04-2.512.662-1.152 1.782-.416 2.713-.231.589.116 1.154.367 1.744.446.58.079 1.264.194 1.65-.401.486-.751-.054-1.306-.537-1.803a16.502 16.502 0 00-5.845-4.137c-8.033-3.018-24.687-12.311-39.453-6.227-14.4 5.933-13.253 20.25-13.347 21.747-.98 15.64 14.434 25.616 14.434 25.616 14.425 13.173-1.672 26.85-7.811 35.01l68.425-40.842c7.736-4.001 14.694-8.923 18.815-16.83a13.616 13.616 0 001.64-6.8c-.017-.553.188-1.277-.52-1.54zm-57.64-.566a17.071 17.071 0 01-6.753 7.92 20.595 20.595 0 01-10.824 2.916 12.677 12.677 0 01-10.804-4.706 3.381 3.381 0 01-.6-3.346 17.853 17.853 0 0112.55-11.221 18.291 18.291 0 015.16-.558 12.486 12.486 0 0110.967 4.721 4.123 4.123 0 01.303 4.274z" class="cls-2"/><path d="M76.437 172.303c-1.502 1.971-3.744 3.386-4.908 5.97a15.517 15.517 0 008.49-2.542 112.203 112.203 0 0012.227-9.089c1.188-1.021 3.306-2.008 2.989-3.399-.329-1.44-2.673-1.068-4.16-1.419-.66-.155-1.515-.087-1.623-.992-.098-.817.593-1.196 1.201-1.538 10.969-6.169 26.934-12.576 44.351-8.19l-2.89-7.52s21.655 12.77 41.646 16.08c1.582.262 3.155.469 4.705.6a59.608 59.608 0 004.706-.6c19.991-3.31 41.647-16.08 41.647-16.08l-2.891 7.52c17.417-4.386 33.382 2.021 44.35 8.19.608.342 1.3.721 1.202 1.538-.108.905-.964.837-1.624.992-1.486.35-3.83-.022-4.16 1.42-.317 1.39 1.802 2.377 2.99 3.398a112.192 112.192 0 0012.226 9.089 15.517 15.517 0 008.491 2.542c-1.164-2.584-3.406-3.999-4.909-5.97-1.497-1.965-3.16-3.81-4.652-5.779-1.094-1.443-.518-2.24 1.232-2.079 1.595.147 3.171.502 4.754.77.855.145 1.868.723 2.425-.335.462-.877-.126-1.709-.688-2.407-1.74-2.161-3.53-4.283-5.26-6.451-1.667-2.09-3.228-4.264-4.932-6.326-5.453-6.596-5.67-14.024-2.75-21.42a97.124 97.124 0 005.804-44.28c-.237-2.935-.375-5.879-.679-8.807-.572-5.508-3.836-8.625-9.492-9.323-5.122-.632-9.652 1.284-14.294 2.906-12.364 4.32-29.869 17.584-40.38 26.591-.643.553-1.268 1.093-1.857 1.61l-31.259-.782-31.258.782a202.44 202.44 0 00-1.858-1.61c-10.51-9.007-28.015-22.27-40.379-26.59-4.642-1.623-9.172-3.539-14.294-2.907-5.656.698-8.92 3.815-9.492 9.323-.304 2.928-.442 5.872-.68 8.807a97.122 97.122 0 005.806 44.28c2.92 7.396 2.702 14.824-2.752 21.42-1.704 2.061-3.264 4.235-4.931 6.326-1.73 2.168-3.52 4.29-5.26 6.45-.562.7-1.15 1.531-.689 2.408.557 1.058 1.57.48 2.425.335 1.584-.268 3.16-.623 4.755-.77 1.75-.161 2.326.636 1.232 2.08-1.492 1.968-3.155 3.813-4.653 5.778zm187-86.861l-10.567 17.874 10.346 1.62-10.051 10.827-2.944 14.308-3.057-9.991-9.437.394 6.332-12.962-15.069-4.196zM127.94 103.316l-15.068 4.196 6.331 12.962-9.436-.394-3.057 9.99-2.944-14.307-10.051-10.827 10.346-1.62-10.566-17.874zm68.218 117.41a31.292 31.292 0 00-17.693-6.37 31.292 31.292 0 00-17.692 6.37 6.216 6.216 0 00-2.636 6.043 6.015 6.015 0 003.325 5.47 4.85 4.85 0 001.735.647c1.126.094 2.286.04 4.186.032h.02l.312-.002c3.284-.709 6.18 1.984 8.45 6.829.798 1.704 1.55 2.628 2.3 2.859.75-.231 1.503-1.155 2.301-2.86 2.27-4.844 5.166-7.537 8.45-6.828l.312.002h.02c1.9.007 3.06.062 4.186-.032a4.85 4.85 0 001.735-.648 6.015 6.015 0 003.325-5.469 6.217 6.217 0 00-2.636-6.043z" class="cls-2"/></svg>