<svg xmlns="http://www.w3.org/2000/svg" role="img" viewBox="-4.15 2.35 437.30 553.80"><defs><style>.cls-1{fill:#29272a}.cls-2{fill:#fff}.cls-4{stroke-miterlimit:10;stroke:#cccccb}.cls-6{fill:#999}</style></defs><path d="M422.88 343.786c-2.301 7.375-8.28 9.687-15.042 10.782a41.19 41.19 0 0 1-14.876-.6c-1.034-.21-1.189.065-1.111 1.018.577 7.079 1.02 14.167 1.613 21.245a210.13 210.13 0 0 1 .69 25.598c-.147 3.83-.403 7.651-.626 11.473a2.394 2.394 0 0 0-.117.45 137.292 137.292 0 0 1-2.124 15.63 159.866 159.866 0 0 1-3.926 15.884c-.78 1.987-1.529 3.987-2.352 5.956-.303.724.21.923.593 1.221a65.61 65.61 0 0 1 10.193 9.595c2.807 3.372 5.208 6.972 6.065 11.383.711 3.663.056 6.798-3.023 9.34a25.729 25.729 0 0 1-14.943 5.733c-8.555.637-16.743-1.13-24.744-3.989a1.447 1.447 0 0 0-1.529.09 74.904 74.904 0 0 1-16.156 8.493 5.823 5.823 0 0 0-.594.314 19.443 19.443 0 0 1 4.737 8.238 25.677 25.677 0 0 1-.494 14.18c-2.126 7.332-4.919 14.338-10.293 20.017-4.34 4.585-9.237 8.224-15.614 9.421-.392.074-.79.112-1.183.166a29.539 29.539 0 0 1-4.606 0 23.235 23.235 0 0 1-11.59-5.04c-5.505-4.247-9.513-9.756-13.044-15.644a67 67 0 0 1-7.012-15.15c-.2-.667-.49-.783-1.101-.646q-11.448 2.575-23.039 4.406c-9.233 1.465-18.505 2.593-27.834 3.267-8.096.585-16.2.844-24.313.645-17.287-.423-34.287-2.693-50.777-8.11-.863-.283-1.115-.043-1.449.7-3.902 8.708-10.411 14.267-19.927 15.773-9.358 1.481-17.513-1.377-24.488-7.685-4.967-4.49-7.817-10.336-10.16-16.442a76.68 76.68 0 0 1-4.63-33.998 3.646 3.646 0 0 0-.745-2.636c-7.644-10.472-13.346-21.978-18.121-33.99a338.575 338.575 0 0 1-17.766-60.008 327.692 327.692 0 0 1-5.639-45.008 333.752 333.752 0 0 1-.533-20.003c.034-7.15.21-14.299.803-21.428.085-1.032.011-1.367-1.236-1.24-11.066 1.123-21.691-.229-31.37-6.142-5.27-3.22-9.434-7.475-11.601-13.416a15.831 15.831 0 0 1-.917-3.824 22.95 22.95 0 0 1 0-4.356c.923-6.78 5.002-10.827 11.272-12.926 5.844-1.957 11.9-2.278 17.99-2.102a118.846 118.846 0 0 1 20.553 2.452c.868.178.724-.434.802-.797.68-3.159 1.27-6.338 1.981-9.489A306.852 306.852 0 0 1 80.42 170a82.666 82.666 0 0 1 1.971-3.96c.347-.649.202-.885-.49-1.055a20.433 20.433 0 0 1-5.363-2.302c-4.287-2.486-6.267-6.568-7.646-11.04-3.203-10.387-2.064-20.52 2-30.424 3.689-8.989 9.352-16.676 15.976-23.696 4.982-5.28 10.328-10.129 16.703-13.712a28.632 28.632 0 0 1 13.469-4.144c7.94-.174 13.694 3.598 17.888 10.086a20.328 20.328 0 0 1 1.605 2.933c.326.754.533.848 1.213.327a128.874 128.874 0 0 1 11.596-7.855 144.558 144.558 0 0 1 9.044-5.021c-3.85-2.301-5.205-6.122-5.652-10.12-1.846-16.52.766-32.218 9.4-46.65a25.102 25.102 0 0 1 6.229-7.064c4.605-3.544 9.088-3.711 13.944-.53a33.177 33.177 0 0 1 9.663 10.19 55.345 55.345 0 0 1 8.492 35.42 42.056 42.056 0 0 1-.519 4.035c-.17.93.123 1.064.96.91 4.676-.865 9.387-1.476 14.118-1.954 7.634-.77 15.291-1.12 22.953-1.438a348.16 348.16 0 0 1 16.66-.304 222.215 222.215 0 0 1 36.16 2.775c16.056 2.75 31.07 8.1 44.264 17.915.856.636.979.028 1.282-.456a142.763 142.763 0 0 1 14.81-20.15c4.386-4.85 9.082-9.357 15.05-12.268 6.887-3.36 13.474-3.132 19.604 1.807a21.879 21.879 0 0 1 7.535 11.94c1.683 6.552 1.182 13.105-.34 19.583a90.902 90.902 0 0 1-19.831 38.444 1.585 1.585 0 0 0-.124 2.35c7.705 11.598 15.528 23.131 22.15 35.4a161.267 161.267 0 0 1 17.55 51.365 136.494 136.494 0 0 1 1.464 31.42c-.58 8.105-2.064 15.94-6.001 23.216-3.091 5.712-5.846 11.607-8.735 17.428-2.834 5.711-5.61 11.449-8.073 17.334-.376.898-.213 1.172.664 1.47a45.804 45.804 0 0 1 17.263 10.224c6.53 6.25 10.289 14.005 12.358 22.69a45.07 45.07 0 0 0 1.197 5.307zM346.53 71.387l.032-.029c-.286.008-.299.187-.253.403l-.682.935a219.937 219.937 0 0 0-19.958 33.638c-.4.824-.727.725-1.43.425-.833-.357-.67-.734-.37-1.351q4.687-9.647 10.234-18.826c.493-.818.463-1.198-.345-1.786a93.698 93.698 0 0 0-29.828-14.374 59.897 59.897 0 0 0-7.284-1.706 102.09 102.09 0 0 0-10.601-1.964 3.416 3.416 0 0 0-1.644-.193.564.564 0 0 1-.172-.013 2.876 2.876 0 0 0-.545-.183 239.055 239.055 0 0 0-29.415-1.74c-8.474-.031-16.938.28-25.4.706a199.821 199.821 0 0 0-32.999 4.134 152.378 152.378 0 0 0-57.366 25.474c-.787.57-.838 1.04-.329 1.736.09.39-.009.83.31 1.156a32.24 32.24 0 0 1 .783 8.072 48.11 48.11 0 0 1-2.218 9.907c-3.186 11.119-7.543 21.703-14.526 31.043a46.723 46.723 0 0 1-18.76 15.415 43.002 43.002 0 0 1-15.392 3.646l-.72.011a7.35 7.35 0 0 0-2.13-.228c-.442-.048-.78-.095-1.052.465-2.913 5.99-5.678 12.043-8.131 18.237a327.804 327.804 0 0 0-17.24 60.12c-.685 3.637-1.442 7.268-1.773 10.964a.686.686 0 0 1-.027.162.87.87 0 0 0-.15.8 83.874 83.874 0 0 0-1.215 8.843 3.811 3.811 0 0 0-.204.68c-.333 3.056-.691 6.11-.972 9.17a344.621 344.621 0 0 0-1.37 42.008q.439 14.377 2.105 28.66a324.676 324.676 0 0 0 7.455 40.707c.976 3.9 1.899 7.82 3.21 11.63.085.347.16.698.257 1.042q2.296 8.11 5.118 16.053c4.491 12.712 9.305 25.279 16.025 37.035a117.603 117.603 0 0 0 49 47.205c17.087 8.82 35.453 13.16 54.491 14.928a211.883 211.883 0 0 0 25.137.85c5.711-.15 11.414-.43 17.105-.92q14.45-1.247 28.737-3.763 9.142-1.595 18.208-3.572c.621-.135.773-.325.623-.948-.204-.851-.29-1.732-.41-2.602-1.14-8.234 2.549-15.02 10.161-18.311 7.824-3.383 16.02-3.655 24.34-2.538 2.235.3 4.408.959 6.664 1.134l-.045-.022c-.007.38.29.147.437.216a1.805 1.805 0 0 0 .41.22 42.634 42.634 0 0 1 15.603 6.777 2.491 2.491 0 0 0 2.778.294 75.27 75.27 0 0 0 33.694-25.6 71.551 71.551 0 0 0 10.8-20.869 151.925 151.925 0 0 0 6.765-40.974 220.773 220.773 0 0 0-.598-27.072c-.58-6.924-1.428-13.81-2.345-20.696-.297-2.235-1.085-3.23-3.325-3.882a54.304 54.304 0 0 1-16.498-7.453c-6.228-4.418-9.364-10.419-8.84-18.173a34.922 34.922 0 0 1 5.063-15.578 21.02 21.02 0 0 1 22.387-9.92c.94.19 1.3-.074 1.65-.942 3.857-9.555 8.719-18.641 13.186-27.91 2.003-4.154 4.167-8.238 6.091-12.435a25.565 25.565 0 0 0 1.77-5.703 108.019 108.019 0 0 0 1.755-26.224 140.1 140.1 0 0 0-1.58-15.84 149.211 149.211 0 0 0-8.525-31.538c-1.966-4.938-3.898-9.883-6.287-14.637-7.068-14.07-15.999-26.997-24.57-40.147-.505-.776-.816-.563-1.324-.043a44.033 44.033 0 0 1-7.462 6.19c-.555.361-.91.392-1.182-.274-.196-.483-.862-.869.07-1.411a29.325 29.325 0 0 0 4.856-3.7 78.136 78.136 0 0 0 15.398-19.788c5.607-9.932 9.815-20.362 10.559-31.902a26.832 26.832 0 0 0-2.787-14.76 18.544 18.544 0 0 0-8.53-8.26 6.302 6.302 0 0 0-2.676-.997 1.439 1.439 0 0 0-.313-.153 15.894 15.894 0 0 0-10.455 1.48c-6.258 2.984-11.069 7.747-15.607 12.832-.123.138-.296.287-.13.51l.02.01c-.416-.126-.488.144-.527.454l.013-.008c-.189-.043-.248.066-.263.226l.058.071-.053-.075a.364.364 0 0 0-.368.348 21.702 21.702 0 0 0-3.662 4.267l-.007.008c-.188.11-.438.187-.26.492l.036-.036c-.307-.113-.296.073-.264.28zM171.356 16.891c-.179-.018-.338-.016-.254.241l.007-.007c-.772-.085-1.198.52-1.689.917-4.396 3.565-7.098 8.326-9.338 13.397a11.663 11.663 0 0 0-1.248 3.449l.01-.02c-.242.052-.23.242-.23.425a17.779 17.779 0 0 0-1.428 4.788c-.311.072-.277.365-.332.57a81.289 81.289 0 0 0-2.718 24.427 27.654 27.654 0 0 0 1.439 8.226 8.964 8.964 0 0 0 2.896 4.454c.923.684 1.977 1.358 3.183.788a148.234 148.234 0 0 1 34.585-11.312c1.298-.258 1.609-.867 1.783-2.01a56.67 56.67 0 0 0 .223-16.354 51.17 51.17 0 0 0-10.061-24.773 24.948 24.948 0 0 0-8.997-7.746 6.267 6.267 0 0 0-4.816-.66 5.08 5.08 0 0 0-2.72.976c-.155.01-.307.022-.305.234zM381.37 348.307c.091.305.33.262.56.237q.057.024.11.054a.4.4 0 0 0 .466.219 11.682 11.682 0 0 0 3.091 1.103 50.648 50.648 0 0 0 17.733 3.004c4.615-.09 9.065-.87 13.015-3.442 2.52-1.642 4.295-3.856 4.511-6.973a20.52 20.52 0 0 0-.885-5.654 45.762 45.762 0 0 0-7.547-17.818c-5.957-8.148-14.129-13.078-23.67-15.752-7.477-2.094-14.012.042-19.257 5.68-3.745 4.027-5.473 9.116-6.618 14.392a18.797 18.797 0 0 0 1.565 13.153c.086.178.158.364.261.531 2.671 4.324 6.684 7.012 11.18 9.075a15.931 15.931 0 0 0 4.515 1.77l-.018-.008c.082.27.273.3.51.23l-.019-.011c.083.281.291.274.517.224zM69.068 139.568a36.966 36.966 0 0 0 3.275 15.445c2.049 4.546 5.818 6.796 10.365 8.109.46.132.735.142.909-.38.092-.278.13-.865.664-.528.452.285 1.404.077 1.296.899-.098.743.348.598.68.625a22.827 22.827 0 0 0 4.669-.023 41.437 41.437 0 0 0 24.379-11.655 65.53 65.53 0 0 0 13.009-18.664 104.23 104.23 0 0 0 8.604-25.163c1.42-7.078-.703-13.549-4.994-19.227-4.46-5.9-10.47-8.281-17.802-7.04a30.2 30.2 0 0 0-12.117 5.166A85.814 85.814 0 0 0 75.2 116.818a46.866 46.866 0 0 0-6.133 22.75zm240.503 344.517c-7.178-.012-12.089.51-16.773 2.316-4.491 1.73-8.131 4.442-9.722 9.236a18.872 18.872 0 0 0-.223 10.061c1.56 7.291 4.99 13.761 8.915 19.995 3.166 5.03 6.777 9.703 11.584 13.307 6.47 4.849 13.408 6.112 20.88 2.488a32.09 32.09 0 0 0 9.86-7.878c4.523-5.084 6.909-11.233 8.865-17.595a25.607 25.607 0 0 0 1.1-12.17c-1.087-6.079-4.862-10.195-10.01-13.084a56.406 56.406 0 0 0-24.476-6.676zM33.484 242.405a45.395 45.395 0 0 0-14.635 2.037c-3.394 1.172-6.462 2.872-8.232 6.169-2.926 5.448-2.29 10.803.85 15.913 3.743 6.09 9.435 9.745 15.979 12.17 7.84 2.906 15.948 3.396 24.195 2.436.643-.074.633-.39.673-.855.249-2.904.48-5.81.794-8.708.932-8.614 2.11-17.194 3.737-25.708.134-.697-.043-.984-.752-1.115a125.698 125.698 0 0 0-22.61-2.339zm62.467 226.05a77.877 77.877 0 0 0-.044 10.36 72.741 72.741 0 0 0 6.4 26.102c2.719 5.908 6.33 11.056 11.903 14.66 12.786 8.27 30.314 4.925 37.04-10.127.507-1.134.262-1.378-.789-1.755a119.228 119.228 0 0 1-45.218-28.613 121.273 121.273 0 0 1-9.292-10.627zm287.99-14.751a77.59 77.59 0 0 1-23.7 29.087c8.374 2.807 16.631 4.597 25.265 3.507a22.226 22.226 0 0 0 12.41-5.441 6.175 6.175 0 0 0 2.195-5.062 14.617 14.617 0 0 0-1.833-6.507c-3.391-6.402-8.688-11.054-14.337-15.584z" class="cls-1"/><path d="M313.418 545.424a29.54 29.54 0 0 0 4.606 0c.07.067.143.135.216.202h-5.04zM6.929 255.45a22.95 22.95 0 0 0 0 4.355c-.07.072-.14.146-.209.22v-4.8zM387.36 445.266a159.858 159.858 0 0 0 3.927-15.883 137.292 137.292 0 0 0 2.124-15.631 2.394 2.394 0 0 1 .117-.45c.046 2.673-.21 5.329-.422 7.984a82.937 82.937 0 0 1-2.881 17.647 22.528 22.528 0 0 1-2.864 6.333z" class="cls-2"/><path d="M88.372 165.912a43.002 43.002 0 0 0 15.392-3.646 46.723 46.723 0 0 0 18.76-15.415c6.983-9.34 11.34-19.924 14.526-31.043a48.11 48.11 0 0 0 2.218-9.907 32.236 32.236 0 0 0-.782-8.072c.586-.475 1.16-.966 1.76-1.424a109.825 109.825 0 0 1 24.25-13.653 176.313 176.313 0 0 1 31.414-9.796c4.564-.983 9.139-1.878 13.758-2.577 2.84-.43 5.685-.8 8.524-1.215 3.43-.501 6.874-.837 10.318-1.133q3.833-.329 7.69-.545c3.604-.197 7.208-.515 10.816-.604 9.896-.243 19.793-.16 29.676.442 1.583.097 3.187.018 4.744.268 1.644.263 3.3.135 4.944.394 1.515.238 3.08.132 4.609.307a39.821 39.821 0 0 0 5.657.423 59.96 59.96 0 0 1 7.284 1.706 93.698 93.698 0 0 1 29.828 14.374c.808.588.838.968.345 1.786q-5.538 9.182-10.234 18.826c-.3.617-.463.994.37 1.35.703.3 1.03.4 1.43-.424a219.937 219.937 0 0 1 19.958-33.638l.682-.935.252-.403-.03.03.263-.28-.036.035c.255-.076.507-.152.26-.492l.007-.008c.825.088 1.155-.635 1.64-1.052 6.314-5.42 12.872-10.495 20.284-14.351 3.77-1.962 7.67-3.578 12.039-3.563a18.547 18.547 0 0 1 8.53 8.26 26.832 26.832 0 0 1 2.787 14.76c-.744 11.541-4.952 21.97-10.559 31.903a78.136 78.136 0 0 1-15.398 19.787 29.325 29.325 0 0 1-4.857 3.7c-.93.543-.265.93-.069 1.412.271.666.627.635 1.182.275a44.033 44.033 0 0 0 7.462-6.19c.508-.52.819-.734 1.325.042 8.57 13.15 17.5 26.078 24.57 40.147 2.388 4.754 4.32 9.699 6.286 14.637a149.211 149.211 0 0 1 8.526 31.538 140.1 140.1 0 0 1 1.58 15.84 108.019 108.019 0 0 1-1.755 26.224 25.565 25.565 0 0 1-1.77 5.703c-1.925 4.198-4.089 8.28-6.091 12.435-4.468 9.269-9.33 18.355-13.186 27.91-.35.868-.71 1.133-1.65.942a21.02 21.02 0 0 0-22.388 9.92 34.922 34.922 0 0 0-5.064 15.578c-.523 7.754 2.613 13.755 8.84 18.173a54.304 54.304 0 0 0 16.5 7.453c2.239.652 3.027 1.647 3.325 3.882.916 6.886 1.763 13.772 2.344 20.696a220.773 220.773 0 0 1 .598 27.072 151.925 151.925 0 0 1-6.764 40.974 71.551 71.551 0 0 1-10.801 20.87 75.27 75.27 0 0 1-33.694 25.6 2.491 2.491 0 0 1-2.778-.295 42.634 42.634 0 0 0-15.602-6.777 1.794 1.794 0 0 1-.41-.22l-.438-.216.045.022c-.235-.148-.46-.315-.706-.442-5.184-2.665-10.35-5.365-15.56-7.978a82.219 82.219 0 0 1-23.17-16.81 126.619 126.619 0 0 1-16.54-22.144c-6.446-10.744-11.647-22.1-16.574-33.593-6.165-14.38-11.967-28.914-18.44-43.162-4.172-9.18-8.68-18.158-14.767-26.26-7.579-10.087-16.928-17.902-28.764-22.555-9.495-3.733-19.466-5.261-29.53-6.344-5.877-.632-11.772-1.125-17.632-1.886a23.11 23.11 0 0 0-13.286 2.054c-6.026 2.881-10.879 7.255-15.34 12.103-7.402 8.041-13.403 17.096-18.91 26.49a385.647 385.647 0 0 0-25.211 52.668 7.035 7.035 0 0 1-1.026 2.266c-1.311-3.81-2.234-7.73-3.21-11.63a324.676 324.676 0 0 1-7.455-40.707q-1.689-14.28-2.104-28.66a344.621 344.621 0 0 1 1.37-42.008c.28-3.06.638-6.114.971-9.17a3.81 3.81 0 0 1 .204-.68c.315-1.107.652-2.208.943-3.322 6.184-23.68 12.601-47.293 20.684-70.411 2.976-8.51 5.948-17.049 10.884-24.705.261-.406.096-.637-.073-.936zm255.803-68.849a26.65 26.65 0 0 0 1.201 8.439c1.974 5.654 6.344 8.458 11.973 7.611a16.022 16.022 0 0 0 7.247-3.262c5.942-4.47 9.595-10.506 11.771-17.5 1.618-5.196 2.178-10.486.62-15.802-1.227-4.19-3.603-7.436-8.132-8.423a12.442 12.442 0 0 0-9.797 2.199c-9.819 6.617-13.96 16.33-14.883 26.738zM192.485 199.75a37.858 37.858 0 0 0-.714-8.269c-1.22-5.756-4-10.42-9.432-13.123a8 8 0 0 1-3.508-2.767c-1.176-1.791-3.211-2.732-5.144-3.601a59.523 59.523 0 0 0-24.63-5.306 17.923 17.923 0 0 0-8.595 1.799 5.842 5.842 0 0 0-3.254 3.788 1.684 1.684 0 0 1-1.407 1.338 43.833 43.833 0 0 0-15.997 8.408c-4.606 3.98-7.563 8.878-7.842 15.077a26.775 26.775 0 0 0 2.158 11.584 29 29 0 0 0 14.288 15.633c.79.389.77.831.628 1.517a33.848 33.848 0 0 0-.16 13.444c1.453 7.44 7.048 13.663 16.023 13.09 5.979-.382 10.757-2.895 14.014-7.958a27.493 27.493 0 0 0 4.038-15.375c-.008-1.994.004-1.958 1.895-2.35 6.12-1.268 12.11-2.922 17.498-6.235a19.522 19.522 0 0 0 9.29-12.414 44.777 44.777 0 0 0 .851-8.28zM316.6 127.287c-8.637-.059-14.242 1.202-19.565 3.703-8.18 3.842-14.472 9.877-19.669 17.136-10.428 14.566-13.763 30.424-8.54 47.788 3.738 12.426 11.58 21.166 23.703 25.876a91.137 91.137 0 0 0 17.378 4.416 50.498 50.498 0 0 0 15.152.636c8.763-1.11 15.88-5.292 21.803-11.706 4.997-5.411 8.842-11.625 12.593-17.912 4.117-6.899 5.19-14.324 3.974-22.17a54.446 54.446 0 0 0-6.44-17.933 73.928 73.928 0 0 0-13.778-18.489 41.296 41.296 0 0 0-26.611-11.345z"/><path stroke="#999" stroke-miterlimit="10" d="M66.158 398.14a7.035 7.035 0 0 0 1.026-2.265 385.647 385.647 0 0 1 25.211-52.668c5.507-9.394 11.508-18.449 18.91-26.49 4.461-4.848 9.314-9.222 15.34-12.103a23.11 23.11 0 0 1 13.286-2.054c5.86.761 11.755 1.254 17.632 1.887 10.064 1.082 20.034 2.61 29.53 6.343 11.835 4.653 21.185 12.468 28.764 22.555 6.087 8.102 10.595 17.08 14.766 26.26 6.474 14.248 12.276 28.783 18.44 43.162 4.928 11.493 10.129 22.85 16.576 33.593a126.619 126.619 0 0 0 16.54 22.144 82.219 82.219 0 0 0 23.168 16.81c5.21 2.613 10.377 5.313 15.56 7.978.247.127.472.294.707.442-2.256-.175-4.43-.833-6.664-1.134-8.32-1.117-16.516-.845-24.34 2.538-7.612 3.29-11.302 10.077-10.16 18.311.12.87.205 1.75.41 2.602.149.624-.003.813-.624.948q-9.068 1.969-18.208 3.572-14.289 2.492-28.737 3.763c-5.69.49-11.394.77-17.105.92a211.883 211.883 0 0 1-25.137-.85c-19.038-1.768-37.404-6.108-54.49-14.928a117.603 117.603 0 0 1-49.001-47.205c-6.72-11.756-11.534-24.323-16.025-37.035q-2.807-7.946-5.118-16.053c-.097-.344-.172-.695-.257-1.042z"/><path d="M69.068 139.568a46.866 46.866 0 0 1 6.133-22.75 85.814 85.814 0 0 1 26.804-29.686 30.2 30.2 0 0 1 12.117-5.167c7.333-1.24 13.343 1.14 17.802 7.041 4.291 5.678 6.414 12.149 4.994 19.227a104.23 104.23 0 0 1-8.604 25.163 65.53 65.53 0 0 1-13.01 18.664 41.437 41.437 0 0 1-24.378 11.655 22.827 22.827 0 0 1-4.67.023c-.33-.027-.777.118-.68-.625.109-.822-.843-.614-1.295-.9-.534-.336-.572.25-.664.529-.174.522-.45.512-.909.38-4.547-1.313-8.316-3.563-10.365-8.109a36.966 36.966 0 0 1-3.275-15.445zm18.18-10.035c.278-.019.559-.024.836-.058 2.3-.289 4.294-.95 5.252-3.418.717-1.849 1.758-3.57 2.54-5.397a21.358 21.358 0 0 0 1.907-7.125c.115-1.942-.171-3.749-1.94-4.984a16.159 16.159 0 0 0-5.384-2.507c-4.173-1.034-7.71.346-9.236 3.96a21.103 21.103 0 0 0-.478 15.318 6.002 6.002 0 0 0 6.502 4.21z"/><path d="M309.57 484.085a56.406 56.406 0 0 1 24.477 6.676c5.148 2.89 8.923 7.005 10.01 13.085a25.607 25.607 0 0 1-1.1 12.169c-1.956 6.362-4.342 12.51-8.866 17.595a32.09 32.09 0 0 1-9.86 7.878c-7.471 3.624-14.41 2.36-20.88-2.488-4.806-3.604-8.417-8.276-11.583-13.307-3.925-6.234-7.355-12.703-8.915-19.995a18.872 18.872 0 0 1 .223-10.061c1.59-4.794 5.23-7.505 9.722-9.236 4.684-1.806 9.595-2.328 16.773-2.316zm54.874-147.575a18.797 18.797 0 0 1-1.565-13.153c1.145-5.276 2.873-10.365 6.618-14.392 5.245-5.638 11.78-7.774 19.257-5.68 9.541 2.674 17.712 7.604 23.67 15.752a45.762 45.762 0 0 1 7.547 17.818 20.52 20.52 0 0 1 .885 5.654c-.216 3.117-1.99 5.33-4.511 6.973-3.95 2.573-8.4 3.352-13.015 3.442a50.648 50.648 0 0 1-17.733-3.004 11.689 11.689 0 0 1-3.09-1.103c-.05-.299-.257-.261-.466-.22a1.386 1.386 0 0 0-.11-.053.463.463 0 0 0-.561-.237l.02.014c-.082-.281-.292-.27-.517-.224l.018.01c-.072-.293-.283-.279-.51-.23l.02.009c-.199-.405-.633-.437-.975-.607-4.73-2.363-9.142-5.163-12.599-9.253-.769-.91-1.44-1.903-2.238-2.966-.1.594.13 1.05-.145 1.45zm-330.96-94.105a125.698 125.698 0 0 1 22.61 2.339c.708.13.885.418.751 1.115-1.626 8.514-2.805 17.094-3.737 25.708-.313 2.897-.545 5.804-.794 8.708-.04.466-.03.78-.673.855-8.247.96-16.356.47-24.195-2.436-6.544-2.425-12.236-6.08-15.98-12.17-3.14-5.11-3.775-10.465-.85-15.913 1.771-3.297 4.839-4.997 8.233-6.169a45.395 45.395 0 0 1 14.635-2.037zm62.466 226.05a121.273 121.273 0 0 0 9.293 10.627 119.228 119.228 0 0 0 45.218 28.613c1.05.377 1.296.621.79 1.755-6.727 15.052-24.255 18.397-37.041 10.128-5.574-3.605-9.184-8.753-11.904-14.661a72.741 72.741 0 0 1-6.399-26.102 77.877 77.877 0 0 1 .044-10.36z" class="cls-4"/><path d="M174.371 15.69a6.267 6.267 0 0 1 4.816.661 24.948 24.948 0 0 1 8.997 7.746 51.17 51.17 0 0 1 10.06 24.773 56.67 56.67 0 0 1-.222 16.354c-.174 1.143-.485 1.752-1.783 2.01a148.234 148.234 0 0 0-34.585 11.312c-1.206.57-2.26-.104-3.183-.788a8.964 8.964 0 0 1-2.896-4.454 27.654 27.654 0 0 1-1.439-8.226 81.289 81.289 0 0 1 2.718-24.426c.055-.206.02-.5.332-.571 1.421-2.406 2.8-4.838 4.273-7.212 3.79-6.11 7.48-12.3 12.912-17.178zm-14.375 35.053a33.916 33.916 0 0 0 .335 5.12 21.905 21.905 0 0 0 5.016 11.473c3.758 4.2 8.992 4.497 13.162.748a13.643 13.643 0 0 0 2.492-3.058c3.228-5.274 4.012-11.058 3.425-17.076a22.084 22.084 0 0 0-4.823-12.428c-4.257-5.079-10.542-5.048-14.699.105-3.665 4.544-4.815 9.897-4.908 15.116z"/><path d="M383.94 453.704c5.65 4.53 10.947 9.182 14.338 15.584a14.617 14.617 0 0 1 1.833 6.507 6.175 6.175 0 0 1-2.196 5.062 22.226 22.226 0 0 1-12.409 5.441c-8.634 1.09-16.89-.7-25.264-3.507a77.59 77.59 0 0 0 23.699-29.087z" class="cls-4"/><path d="M138.175 96.673c-.509-.696-.458-1.165.33-1.736a152.378 152.378 0 0 1 57.365-25.474 199.821 199.821 0 0 1 32.998-4.134c8.463-.427 16.927-.737 25.401-.707a239.055 239.055 0 0 1 29.415 1.741 2.868 2.868 0 0 1 .545.183 2.304 2.304 0 0 1-1.296.055c-10.852-.654-21.707-1.011-32.583-.795a303.902 303.902 0 0 0-35.23 2.658 213.271 213.271 0 0 0-40.754 9.45 129.915 129.915 0 0 0-30.86 14.911c-1.814 1.23-3.556 2.563-5.33 3.848z"/><path d="M57.326 255.481c.331-3.696 1.088-7.327 1.774-10.964a327.804 327.804 0 0 1 17.239-60.12c2.453-6.194 5.218-12.247 8.131-18.237.273-.56.61-.513 1.052-.465a7.34 7.34 0 0 1 2.13.229c-.901 1.594-1.855 3.16-2.692 4.788a162.514 162.514 0 0 0-8.632 21.165c-6.501 18.712-11.873 37.764-17.059 56.871a48.187 48.187 0 0 1-1.943 6.733z" class="cls-2"/><path d="M138.175 96.673c1.775-1.285 3.517-2.619 5.33-3.848a129.915 129.915 0 0 1 30.861-14.91 213.271 213.271 0 0 1 40.754-9.451 303.902 303.902 0 0 1 35.23-2.658c10.876-.216 21.731.14 32.583.795a2.304 2.304 0 0 0 1.296-.055.567.567 0 0 0 .173.013 2.105 2.105 0 0 0 1.643.193 102.137 102.137 0 0 1 10.601 1.964 39.845 39.845 0 0 1-5.657-.424c-1.528-.174-3.094-.068-4.609-.307-1.644-.258-3.3-.13-4.944-.393-1.557-.25-3.161-.171-4.744-.268-9.883-.602-19.78-.685-29.675-.442-3.609.09-7.213.407-10.817.604q-3.85.21-7.69.545c-3.443.296-6.888.632-10.318 1.133-2.839.416-5.685.785-8.524 1.215-4.62.7-9.194 1.594-13.758 2.577a176.313 176.313 0 0 0-31.414 9.796 109.825 109.825 0 0 0-24.25 13.653c-.6.457-1.174.948-1.76 1.424-.32-.327-.22-.767-.31-1.156z" class="cls-4"/><path stroke="#000" stroke-miterlimit="10" d="M57.326 255.481a48.187 48.187 0 0 0 1.943-6.733c5.186-19.107 10.558-38.16 17.059-56.871a162.514 162.514 0 0 1 8.632-21.165c.837-1.627 1.79-3.194 2.691-4.788l.721-.012c.169.3.334.53.072.936-4.935 7.656-7.907 16.195-10.883 24.705-8.083 23.118-14.5 46.732-20.684 70.411-.291 1.114-.628 2.215-.943 3.323a83.876 83.876 0 0 1 1.215-8.845.701.701 0 0 0 .15-.799.686.686 0 0 0 .027-.162z"/><path d="M351.807 65.35c-.166-.223.007-.372.13-.51 4.538-5.085 9.35-9.848 15.607-12.832A15.894 15.894 0 0 1 378 50.528a1.43 1.43 0 0 1 .312.153c-2.004.635-4.076 1.035-6.03 1.853-7.14 2.99-13.348 7.454-19.397 12.178-.325.254-.558.701-1.078.638z" class="cls-2"/><path d="M351.807 65.35c.52.063.753-.383 1.078-.638 6.05-4.724 12.257-9.189 19.398-12.178 1.953-.819 4.025-1.218 6.029-1.853a6.305 6.305 0 0 1 2.676.996c-4.369-.015-8.268 1.6-12.04 3.563-7.41 3.856-13.97 8.932-20.282 14.351-.486.417-.816 1.14-1.64 1.052a21.703 21.703 0 0 1 3.662-4.267c.21-.024.367-.103.367-.348l.054.075-.058-.071c.189.042.276-.033.263-.226l-.014.008a.44.44 0 0 0 .527-.454zM174.371 15.69c-5.432 4.879-9.121 11.07-12.912 17.179-1.473 2.374-2.852 4.806-4.273 7.212a17.784 17.784 0 0 1 1.428-4.788c.27-.037.293-.207.23-.425l-.01.02c.471-.166.55-.644.764-.999a138.73 138.73 0 0 1 9.78-14.54 8.824 8.824 0 0 0 1.73-2.224l-.006.007c.198.039.277-.046.254-.24l-.01.009c.19.037.27-.07.304-.234a5.08 5.08 0 0 1 2.721-.976z" class="cls-4"/><path d="M171.109 17.125a8.824 8.824 0 0 1-1.73 2.224 138.73 138.73 0 0 0-9.781 14.54c-.215.355-.293.833-.764.999a11.661 11.661 0 0 1 1.248-3.45c2.24-5.07 4.942-9.831 9.338-13.396.49-.398.917-1.002 1.689-.917zM364.444 336.51c.275-.4.045-.856.145-1.45.797 1.063 1.469 2.056 2.238 2.966 3.457 4.09 7.869 6.89 12.6 9.253.341.17.775.202.973.607a15.931 15.931 0 0 1-4.515-1.77c-4.496-2.063-8.509-4.75-11.18-9.075-.103-.167-.175-.353-.261-.53zM286.045 66.752a2.105 2.105 0 0 1-1.643-.193 3.416 3.416 0 0 1 1.643.193zM57.3 255.643a.701.701 0 0 1-.15.8.87.87 0 0 1 .15-.8zM351.827 65.36a.44.44 0 0 1-.527.454c.039-.31.111-.58.527-.454z" class="cls-2"/><path d="M380.382 347.878c.226-.05.437-.064.51.23-.237.07-.428.04-.51-.23z" class="cls-2"/><path d="M380.873 348.097c.225-.047.435-.057.517.224-.226.05-.434.057-.517-.224z" class="cls-2"/><path d="M381.37 348.307a.463.463 0 0 1 .56.237c-.23.025-.469.068-.56-.237zm.67.291c.21-.042.418-.08.466.22a.4.4 0 0 1-.465-.22z" class="cls-2"/><path d="M347.018 70.65c.247.341-.005.417-.26.493-.178-.305.072-.382.26-.492z" class="cls-4"/><path d="M351.055 66.028c0 .245-.158.324-.367.348a.364.364 0 0 1 .367-.348z" class="cls-2"/><path d="M321.569 483.712l.437.216c-.147-.069-.444.165-.437-.216z" class="cls-4"/><path d="M158.844 34.868c.063.218.04.388-.23.425 0-.183-.012-.373.23-.425zm12.806-18.201c-.034.165-.114.272-.304.234-.002-.212.15-.224.304-.234z" class="cls-2"/><path d="M171.356 16.891c.023.195-.056.28-.254.241-.084-.257.075-.26.254-.24z" class="cls-2"/><path d="M346.562 71.358l-.253.403c-.046-.216-.033-.395.253-.403z" class="cls-4"/><path d="M346.794 71.107l-.264.28c-.032-.207-.043-.393.264-.28z" class="cls-4"/><path d="M351.314 65.806c.013.193-.074.268-.263.226.014-.16.074-.269.263-.226z" class="cls-2"/><path d="M344.175 97.063c.922-10.409 5.064-20.12 14.883-26.738a12.442 12.442 0 0 1 9.797-2.2c4.529.988 6.905 4.234 8.133 8.424 1.557 5.316.997 10.605-.62 15.803-2.177 6.993-5.83 13.03-11.772 17.499a16.022 16.022 0 0 1-7.247 3.262c-5.63.847-10-1.957-11.973-7.611a26.65 26.65 0 0 1-1.2-8.439z" class="cls-4"/><path d="M192.485 199.75a44.777 44.777 0 0 1-.851 8.28 19.522 19.522 0 0 1-9.29 12.414c-5.388 3.313-11.378 4.967-17.498 6.235-1.891.392-1.903.356-1.895 2.35a27.493 27.493 0 0 1-4.038 15.375c-3.257 5.063-8.035 7.576-14.014 7.958-8.975.573-14.57-5.65-16.023-13.09a33.848 33.848 0 0 1 .16-13.444c.141-.686.162-1.128-.628-1.517a29 29 0 0 1-14.288-15.633 26.775 26.775 0 0 1-2.158-11.584c.279-6.199 3.236-11.098 7.842-15.077a43.833 43.833 0 0 1 15.997-8.408 1.684 1.684 0 0 0 1.407-1.338 5.842 5.842 0 0 1 3.254-3.788 17.923 17.923 0 0 1 8.595-1.799 59.523 59.523 0 0 1 24.63 5.306c1.933.87 3.968 1.81 5.144 3.601a8 8 0 0 0 3.508 2.767c5.433 2.704 8.212 7.367 9.432 13.123a37.858 37.858 0 0 1 .714 8.269zm-46.484 27.5a87.758 87.758 0 0 0 19.525-2.685c5.532-1.302 10.924-2.978 15.757-6.085 3.74-2.404 6.731-5.515 7.906-9.873a35.14 35.14 0 0 0 .072-19.388 15.272 15.272 0 0 0-8.618-10.017c-.254-.115-.616-.593-.897-.062-1.195 2.262-3.424 2.917-5.617 3.475a73.045 73.045 0 0 1-20.151 2.42 27.44 27.44 0 0 1-10.94-2.29c-3.15-1.464-5.62-3.528-6.034-7.268-.071-.65-.29-.646-.848-.455a49.095 49.095 0 0 0-9.764 4.472 29.596 29.596 0 0 0-9.162 8.134c-3.568 5.092-4.002 10.683-2.746 16.596 1.811 8.536 6.019 15.314 13.997 19.35a37.605 37.605 0 0 0 17.52 3.676zm9.655-44.272a72.04 72.04 0 0 0 14.819-1.624 18.543 18.543 0 0 0 6.331-2.017c1.335-.824 1.398-1.526.31-2.663a16.216 16.216 0 0 0-5.673-3.455 59.752 59.752 0 0 0-17.319-4.3 26.899 26.899 0 0 0-11.024.666c-3.944 1.255-5.096 3.803-3.506 7.6a5.53 5.53 0 0 0 1.819 2.175 13.078 13.078 0 0 0 3.43 1.912 28.694 28.694 0 0 0 10.813 1.706zm-10.98 58.163c.126 2.318.331 5.625.47 8.934.032.742.23.797.903.644a16.783 16.783 0 0 0 9.822-5.965c3.922-4.958 5.473-10.81 6.398-16.904.129-.851-.305-.674-.81-.589a66.291 66.291 0 0 1-15.13 1.109c-1.013-.062-1.267.343-1.363 1.24-.373 3.508-.256 7.024-.29 11.53zm-14.947-16.154c0 1.853-.062 3.611.012 5.364a42.374 42.374 0 0 0 2.515 13.944c1.852 4.686 5.463 7.088 10.136 6.888.49-.02.86.057.808-.744-.459-7.132-.89-14.268-.142-21.408.063-.606-.068-.845-.718-.906a41.481 41.481 0 0 1-12.61-3.138zm186.871-97.7a41.296 41.296 0 0 1 26.611 11.345 73.928 73.928 0 0 1 13.778 18.489 54.446 54.446 0 0 1 6.44 17.932c1.216 7.847.143 15.272-3.974 22.17-3.751 6.288-7.596 12.502-12.593 17.913-5.923 6.414-13.04 10.596-21.803 11.706a50.498 50.498 0 0 1-15.152-.636 91.137 91.137 0 0 1-17.378-4.416c-12.123-4.71-19.965-13.45-23.703-25.876-5.223-17.364-1.888-33.222 8.54-47.788 5.197-7.259 11.489-13.294 19.67-17.136 5.322-2.5 10.927-3.762 19.564-3.703zm-48.235 53.266a54.112 54.112 0 0 0 1.9 13.203c3.44 12.737 11.07 21.824 23.563 26.36a84.078 84.078 0 0 0 24.07 4.977c9.177.512 17.413-1.962 24.265-8.203 7.76-7.068 13.415-15.744 17.708-25.207 3.143-6.93 2.565-14.27.457-21.469-2.842-9.707-8.159-18.023-14.47-25.802a38.342 38.342 0 0 0-14.289-11.178c-11.777-5.245-23.536-5.63-35.189.318-6.98 3.563-12.397 8.943-16.997 15.198-6.872 9.344-10.935 19.679-11.018 31.803z" class="cls-1"/><path d="M87.247 129.533a6.003 6.003 0 0 1-6.502-4.21 21.103 21.103 0 0 1 .478-15.32c1.525-3.612 5.063-4.993 9.236-3.959a16.159 16.159 0 0 1 5.383 2.507c1.77 1.235 2.056 3.042 1.94 4.984a21.358 21.358 0 0 1-1.906 7.125c-.782 1.827-1.823 3.548-2.54 5.397-.957 2.468-2.952 3.13-5.252 3.418-.277.034-.558.04-.837.058z" class="cls-6"/><path d="M159.996 50.743c.093-5.219 1.243-10.572 4.908-15.116 4.157-5.153 10.442-5.184 14.699-.105a22.084 22.084 0 0 1 4.823 12.428c.587 6.018-.197 11.802-3.425 17.076a13.643 13.643 0 0 1-2.492 3.058c-4.17 3.75-9.404 3.452-13.162-.748a21.905 21.905 0 0 1-5.016-11.472 33.916 33.916 0 0 1-.335-5.12zM146.001 227.25a37.605 37.605 0 0 1-17.52-3.676c-7.978-4.036-12.186-10.814-13.997-19.35-1.256-5.913-.822-11.504 2.746-16.596a29.596 29.596 0 0 1 9.162-8.134 49.095 49.095 0 0 1 9.764-4.472c.558-.19.777-.194.848.455.414 3.74 2.884 5.804 6.035 7.269a27.44 27.44 0 0 0 10.939 2.289 73.045 73.045 0 0 0 20.151-2.42c2.193-.558 4.422-1.213 5.617-3.475.281-.531.643-.053.897.062a15.272 15.272 0 0 1 8.618 10.017 35.14 35.14 0 0 1-.072 19.388c-1.175 4.358-4.166 7.469-7.906 9.873-4.833 3.107-10.225 4.783-15.757 6.085a87.758 87.758 0 0 1-19.525 2.685z" class="cls-4"/><path d="M155.656 182.978a28.694 28.694 0 0 1-10.812-1.706 13.078 13.078 0 0 1-3.431-1.912 5.53 5.53 0 0 1-1.82-2.176c-1.59-3.796-.437-6.344 3.507-7.599a26.899 26.899 0 0 1 11.024-.666 59.752 59.752 0 0 1 17.319 4.3 16.216 16.216 0 0 1 5.673 3.455c1.088 1.137 1.025 1.838-.31 2.663a18.543 18.543 0 0 1-6.331 2.017 72.04 72.04 0 0 1-14.819 1.624zm-10.981 58.162c.035-4.506-.082-8.022.291-11.53.096-.897.35-1.302 1.363-1.24a66.291 66.291 0 0 0 15.13-1.109c.505-.085.939-.262.81.589-.925 6.094-2.476 11.946-6.398 16.904a16.783 16.783 0 0 1-9.822 5.965c-.673.153-.87.098-.902-.644-.14-3.31-.345-6.616-.472-8.934zm-14.945-16.153a41.481 41.481 0 0 0 12.61 3.138c.65.061.781.3.718.906-.748 7.14-.317 14.276.142 21.408.051.801-.318.723-.808.744-4.673.2-8.284-2.202-10.136-6.888a42.374 42.374 0 0 1-2.515-13.944c-.074-1.753-.012-3.51-.012-5.364zm138.635-44.434c.083-12.124 4.146-22.459 11.018-31.803 4.6-6.255 10.018-11.635 16.997-15.198 11.653-5.949 23.412-5.563 35.19-.318a38.342 38.342 0 0 1 14.287 11.178c6.312 7.78 11.63 16.095 14.471 25.802 2.108 7.199 2.686 14.54-.457 21.469-4.293 9.463-9.948 18.139-17.708 25.207-6.852 6.241-15.088 8.715-24.265 8.203a84.078 84.078 0 0 1-24.07-4.976c-12.493-4.537-20.122-13.624-23.562-26.361a54.112 54.112 0 0 1-1.9-13.203zm33.35-.682a17.628 17.628 0 0 1-.013 2.152c-.328 2.645 1.214 4.15 3.22 5.36a7.145 7.145 0 0 0 3.548.93c3.613.113 6.784-1.25 9.833-2.967 4.298-2.42 4.959-4.215 3.241-8.834a17.32 17.32 0 0 1-1.34-5.786 10.697 10.697 0 0 0-.559-3.052c-1.093-3.462-2.783-6.48-6.412-7.857-3.857-1.464-6.602-.362-8.41 3.331a18.7 18.7 0 0 0-1.015 2.55c-1.466 4.609-1.807 9.382-2.093 14.173z" class="cls-4"/><path d="M301.715 179.87c.286-4.79.627-9.563 2.093-14.172a18.7 18.7 0 0 1 1.014-2.55c1.81-3.693 4.554-4.795 8.411-3.33 3.629 1.377 5.32 4.394 6.412 7.856a10.697 10.697 0 0 1 .56 3.052 17.32 17.32 0 0 0 1.34 5.786c1.717 4.62 1.056 6.413-3.242 8.835-3.049 1.717-6.22 3.079-9.833 2.967a7.145 7.145 0 0 1-3.547-.93c-2.007-1.212-3.549-2.716-3.22-5.361a17.628 17.628 0 0 0 .012-2.152z" class="cls-6"/></svg>