<?xml version="1.0" encoding="UTF-8"?><svg id="Layer_1" xmlns="http://www.w3.org/2000/svg" viewBox="0 0 3456 3456"><defs><style>.cls-1{fill:none;}.cls-2{fill:#fff;}</style></defs><path class="cls-1" d="M1848.56047,3177.06596c110.93909-9.03125,219.74744-29.64014,325.13245-64.91309,407.00903-136.229,705.88135-397.24756,893.21362-783.50293,95.73022-197.38281,142.02051-407.21924,142.23779-626.73926,.36035-364.05518-.00757-728.11133,.4519-1092.1665,.02026-16.03906-2.81274-21.17432-20.36084-21.14111-322.98706,.61719-645.97559,.43018-968.96411,.41309h-.00049c-.00879,8.89258-.01709,17.78516-.02588,26.67822h.00049c313.57251,.00488,627.14526-.02393,940.71826,.07812,25.08569,.0083,21.57373-3.61963,21.58008,22.31445,.08667,351.86768-.01904,703.73486,.10791,1055.60205,.03589,98.98389-9.37402,196.97559-29.75171,293.83936-64.52588,306.72363-211.78271,566.79443-441.32666,780.09131-169.09692,157.12793-365.24316,266.96387-586.68286,331.32959-111.0708,32.28491-224.45105,51.77979-340.37634,54.61328-.00195,.00049-.00391,.00073-.0061,.00122-19.42993,4.59668-39.23267,1.78687-58.83911,2.86499-1.66504,.09155-3.32886,.20142-4.99072,.35596v.00049c-94.8418-1.96851-189.28955-8.66821-282.38037-27.71899-359.25342-73.51929-653.31958-254.21948-877.84521-543.72632-204.62183-263.84277-304.11914-565.42773-304.81494-899.13135-.72998-350.08887-.02002-700.18066-.59497-1050.27002-.02808-17.12549,4.4873-20.6416,20.95581-20.61572,315.13574,.49365,630.27246,.32861,945.4082,.30029v-.00049c4.76074-8.82324,4.75391-17.64697,.00293-26.47168l-.00024-.00049c-324.01294-.02734-648.02539,.07617-972.03662-.46582-16.43481-.02734-21.00098,3.43701-20.97363,20.59717,.57397,360.0752,.41528,720.15137,.44458,1080.22705,.00952,113.98145,11.54175,226.84668,37.79883,337.73584,71.77295,303.1123,222.24756,560.34326,452.97583,770.09131,176.67554,160.61035,380.6897,271.57324,610.9812,334.00146,106.69336,28.9231,215.17871,47.11572,326.03735,48.83618,21.1665,5.2229,42.81177,.93604,64.12524,3.22705h.00049c.42773-.01147,.85498-.02515,1.28223-.03687,42.21729-1.15576,84.38281-2.86792,126.51562-6.29785Z"/><path d="M3365.17753,455.29936c-.00366-25.27832,3.15576-22.16211-21.97314-22.16602-377.90894-.06348-755.81787-.06982-1133.72656,.08301-11.04712,.00439-18.31763-.55273-23.60596-13.71094-86.0708-214.16064-299.98474-341.36816-529.59314-309.69629-189.51855,26.14209-323.30566,130.41211-399.42139,306.56738-5.90576,13.66797-12.34668,17.20557-26.45264,17.19043-379.01831-.41309-758.03711-.23242-1137.05518-.67969-15.3374-.01807-19.27466,3.97949-19.24072,19.21582,.49365,221.41699,.33862,442.83545,.33838,664.25293,0,193.1167,.09277,386.23291-.03809,579.34912-.06787,100.04346,8.72021,199.22119,27.30322,297.55273,66.79785,353.46533,230.28638,655.19775,493.35742,899.67432,328.06885,304.87842,718.74951,451.58154,1166.93579,443.9834,131.43945-2.22827,260.58301-21.04468,387.21936-55.80127,336.72559-92.41797,617.7251-272.82471,839.552-542.09326,246.78101-299.55957,372.70898-645.58203,375.71436-1033.46533,3.22925-416.729,.74731-833.50244,.68628-1250.25635ZM1720.76213,3183.40068c-21.31348-2.29102-42.95874,1.99585-64.12524-3.22705-110.85864-1.72046-219.34399-19.91309-326.03735-48.83618-230.2915-62.42822-434.30566-173.39111-610.9812-334.00146-230.72827-209.74805-381.20288-466.979-452.97583-770.09131-26.25708-110.88916-37.78931-223.75439-37.79883-337.73584-.0293-360.07568,.12939-720.15186-.44458-1080.22705-.02734-17.16016,4.53882-20.62451,20.97363-20.59717,324.01123,.54199,648.02368,.43848,972.03662,.46582l.00024,.00049c4.75098,8.82471,4.75781,17.64844-.00293,26.47168v.00049c-315.13574,.02832-630.27246,.19336-945.4082-.30029-16.46851-.02588-20.98389,3.49023-20.95581,20.61572,.57495,350.08936-.13501,700.18115,.59497,1050.27002,.6958,333.70361,100.19312,635.28857,304.81494,899.13135,224.52563,289.50684,518.5918,470.20703,877.84521,543.72632,93.09082,19.05078,187.53857,25.75049,282.38037,27.71899v-.00049c1.66187-.15454,3.32568-.2644,4.99072-.35596,19.60645-1.07812,39.40918,1.73169,58.83911-2.86499,.0022-.00049,.00415-.00073,.0061-.00122,115.92529-2.8335,229.30554-22.32837,340.37634-54.61328,221.4397-64.36572,417.58594-174.20166,586.68286-331.32959,229.54395-213.29688,376.80078-473.36768,441.32666-780.09131,20.37769-96.86377,29.7876-194.85547,29.75171-293.83936-.12695-351.86719-.02124-703.73438-.10791-1055.60205-.00635-25.93408,3.50562-22.30615-21.58008-22.31445-313.573-.10205-627.14575-.07324-940.71826-.07812h-.00049c.00879-8.89307,.01709-17.78564,.02588-26.67822h.00049c322.98853,.01709,645.97705,.2041,968.96411-.41309,17.5481-.0332,20.3811,5.10205,20.36084,21.14111-.45947,364.05518-.09155,728.11133-.4519,1092.1665-.21729,219.52002-46.50757,429.35645-142.23779,626.73926-187.33228,386.25537-486.20459,647.27393-893.21362,783.50293-105.38501,35.27295-214.19336,55.88184-325.13245,64.91309-42.13281,3.42993-84.29834,5.14209-126.51562,6.29785-.42725,.01172-.85449,.02539-1.28223,.03687h-.00049Zm-461.23047-1845.59253c6.4458-2.34424,13.47754-2.93018,20.50928-2.93018,16.99341,0,30.47095,4.68799,40.43237,14.64941s16.99365,23.43945,20.50928,41.01855c2.93018-9.37549,6.4458-17.5791,11.71973-24.61084,5.27368-7.03223,10.54761-12.8916,16.99341-16.99365,6.4458-4.6875,13.47754-8.20361,21.09521-9.96143,7.61768-1.7583,15.2356-3.51611,23.43921-3.51611,11.13354,0,21.68115,1.75781,30.47095,5.85986,9.37573,3.51562,16.99341,9.37549,23.43921,16.99316s11.1333,16.40723,14.64941,27.54102c3.51587,10.54785,5.27368,22.85352,5.27368,36.91699v147.08057h-22.26733v-147.08057c0-22.26758-4.68774-39.84668-14.64941-51.56641-9.96143-11.71973-23.43896-17.5791-41.60449-17.5791-8.20361,0-15.82129,1.17188-22.85303,4.6875s-14.06348,7.03174-19.3374,12.8916c-5.85986,5.85986-9.96167,12.8916-13.47754,21.68164-3.51587,8.78955-4.68799,18.75098-4.68799,29.88477v147.08057h-22.26709v-147.08057c0-22.26709-4.68799-39.26074-13.47754-51.56592-8.78979-11.71973-22.26733-17.57959-39.26074-17.57959-12.30542,0-24.0249,3.51611-34.57275,11.13379-10.54736,7.61719-19.9231,17.5791-28.71289,31.05664v174.03564l-22.85303-1.17188v-230.29004h12.30566c4.10181,0,6.4458,1.7583,7.03174,5.85986l2.34375,33.40088c4.68799-6.4458,9.37598-12.30566,14.64966-17.5791,5.27368-5.27393,10.54761-9.96191,16.40747-13.47754,5.85962-3.51611,11.71948-6.4458,18.75122-8.78955Zm228.42969-536.49316c-.27441-8.86279,1.66211-12.66797,11.70068-12.64746,147.41943,.29932,294.83984,.30469,442.25916-.00586,10.28467-.02148,11.74927,4.20215,11.50903,12.83008-.49341,17.7207-.93689,35.5127,.12329,53.18359,.73584,12.26709-4.0614,14.41895-15.13623,14.35059-73.15271-.45068-146.30994-.23242-219.46594-.23291-72.04712,0-144.09644-.24023-216.14038,.24902-11.3374,.07666-15.64697-2.53271-14.95166-14.54346,1.02344-17.67529,.6499-35.46582,.10205-53.18359Zm1108.20459,735.13965c9.96179,12.30566,25.19702,18.16504,45.12061,18.16504,15.23535,0,29.29883-4.10156,42.19043-11.71924s24.61133-18.16553,35.15881-31.64307v-172.86377h22.26721v230.28955h-12.30566c-4.10193,0-6.4458-1.75781-6.4458-5.85938l-2.34387-33.98682c-10.54749,13.47705-22.85315,24.0249-36.91663,32.22852s-29.29895,12.30566-46.87842,12.30566c-12.8916,0-24.02515-1.75781-33.40088-5.85986-9.37561-4.10156-17.57935-9.96143-24.02515-17.5791s-11.13354-16.40723-14.64941-27.54102c-3.51587-10.54785-4.68774-22.85352-4.68774-36.33105v-147.08057l22.26709-.58594v147.08057c0,21.68115,4.68774,38.6748,14.64941,50.98047Zm163.68042,795.89697v41.98877h-89.52637v70.47461h115.05273v43.46826h-170.91406v-268.39453h170.91406v43.46826h-115.05273v68.99463h89.52637Zm-187.10059-515.16406c20.59277,0,39.33594,3.32959,56.23145,9.98828,16.89355,6.65918,31.35254,15.93945,43.37598,27.83838,12.02344,11.90186,21.33301,26.05225,27.93066,42.45117,6.5957,16.40186,9.89648,34.34424,9.89648,53.82715,0,19.60693-3.30078,37.6416-9.89648,54.104-6.59766,16.46289-15.90723,30.61279-27.93066,42.45117s-26.48242,21.08691-43.37598,27.74609c-16.89551,6.65869-35.63867,9.98828-56.23145,9.98828h-103.21387v-268.39453h103.21387Zm-222.79395,447.46436v-44.76318h212.5332v44.76318h-78.42773v223.63135h-55.67676v-223.63135h-78.42871Zm126.84009-823.12598c-1.17212,1.17188-2.34399,1.75781-4.68774,1.75781h-165.83252v4.10205c0,16.99316,1.75793,32.22852,5.85986,45.70605,4.10193,12.8916,9.96167,24.02539,16.99341,32.81494,7.61768,8.78955,16.40723,15.82129,26.95508,19.92334,10.54749,4.6875,22.26709,6.4458,35.15869,6.4458,11.7196,0,21.6814-1.17188,29.88501-4.10205,8.20361-2.34375,15.82153-5.27393,21.09521-8.78955,5.85986-2.93018,10.54761-5.85986,14.06348-8.79004,3.51587-2.34375,5.85986-4.10156,7.61768-4.10156s3.51587,.58594,4.68774,2.34375l5.85986,7.61768c-3.51587,4.68799-8.78979,8.78955-14.64954,12.8916s-12.8916,7.61768-20.50928,10.54736c-7.61755,2.93018-15.23547,5.27393-24.02515,7.03223-8.78967,1.75781-16.99329,2.34375-25.78308,2.34375-15.82153,0-29.88501-2.93018-42.77637-8.20361-12.8916-5.27393-24.02515-13.47754-33.40088-24.02539-9.37573-10.54736-16.40735-23.43896-21.6814-38.6748-5.27368-15.23535-7.61755-32.81445-7.61755-52.15186,0-16.40723,2.34387-31.64307,7.03186-45.70654,4.68774-14.06348,11.71948-25.78271,20.50928-36.33057,8.78955-9.96191,19.9231-18.16553,32.81482-23.43945,12.8916-3.51562,27.54114-6.44531,43.94836-6.44531,12.8916,0,25.19702,2.34375,35.74487,6.4458,11.13354,4.68799,20.50928,11.13379,28.71289,19.3374,8.20361,8.78955,14.64941,19.3374,18.75146,31.64258,4.68774,12.30566,7.03174,26.95508,7.03174,42.77686,0,3.51562-.58594,5.85938-1.75781,7.03174Zm-67.18774,375.66162v43.46826h-115.05273v68.99463h89.52637v41.98877h-89.52637v70.47461h115.05273v43.46826h-170.91406v-268.39453h170.91406Zm-158.7959,402.70117l104.69434,268.39453h-43.09863c-4.80859,0-8.72559-1.13867-11.74512-3.42188-3.02344-2.28027-5.27246-5.20801-6.75195-8.78613l-18.12695-51.2373h-106.91406l-18.12695,51.2373c-1.23438,3.0835-3.39355,5.89014-6.47461,8.41602-3.08398,2.52881-6.96777,3.79199-11.65332,3.79199h-43.46777l104.87891-268.39453h56.78613Zm-142.70605-134.30664v-268.39453h55.86133v268.39453h-55.86133Zm28.82141-751.29004c12.8916,0,24.02515,1.75781,33.40088,5.85986,9.37561,4.10205,17.57935,9.96191,24.02515,17.5791,6.4458,7.61768,11.13367,16.40771,14.06348,27.5415,3.51599,10.54736,4.68774,22.85303,4.68774,36.33057v147.08105h-22.26709v-147.08105c0-21.68115-4.68787-38.6748-14.64954-50.98047-9.96167-12.30518-25.19702-18.16504-45.12036-18.16504-15.2356,0-29.29907,4.10156-42.19067,11.71924s-24.61108,18.75146-34.57275,32.229v172.86377h-21.68115v-337.52393h22.26721v145.90869c10.54749-12.8916,22.85315-23.43896,36.33081-31.64258,13.47742-7.61768,28.71289-11.71973,45.7063-11.71973Zm-104.28821,600.5376v43.65381h-96.55566v107.09863h-55.86133v-268.39453h170.91406v43.46826h-115.05273v74.17383h96.55566Zm13.22656,285.05908v268.39453h-55.86133v-268.39453h55.86133Zm-1286.10083,0h56.78613l104.69434,268.39453h-43.09863c-4.80908,0-8.7251-1.13867-11.74561-3.42188-3.02295-2.28027-5.27148-5.20801-6.75146-8.78613l-18.12695-51.2373h-106.91406l-18.12744,51.2373c-1.23389,3.0835-3.39307,5.89014-6.47412,8.41602-3.0835,2.52881-6.96826,3.79199-11.65283,3.79199h-43.46875l104.87939-268.39453Zm-111.38989-811.17773c-9.96143,8.78955-22.26709,15.23584-36.33057,20.50928-14.06348,4.68799-30.47095,7.03174-48.63623,7.03174h-60.94189v131.8457h-23.43921v-327.5625h84.3811c38.67456,0,67.3877,8.20361,86.72485,25.19727,19.3374,16.99316,29.29907,41.01855,29.29907,72.0752,0,14.06348-2.92993,27.54102-8.20386,39.84668-5.27368,12.30566-12.8916,22.26709-22.85327,31.05664Zm228.38745,679.83057c-20.10107,0-38.16748-3.42188-54.19678-10.26611-16.03174-6.84375-29.65918-16.36963-40.87891-28.57812-11.22266-12.20801-19.85547-26.69629-25.896-43.46826-6.04346-16.76904-9.06348-35.08105-9.06348-54.93652,0-13.31836,1.44775-25.98877,4.34668-38.01221,2.896-12.02295,7.12158-23.08936,12.67041-33.20215,5.54932-10.10986,12.2373-19.2373,20.06982-27.37598,7.82959-8.13867,16.67627-15.0752,26.54346-20.80957,9.86426-5.73389,20.62451-10.10986,32.27734-13.13281,11.65332-3.02051,24.07568-4.53174,37.27197-4.53174,9.86426,0,19.20557,.86426,28.02344,2.58936,8.81494,1.72852,17.04639,4.1333,24.69385,7.21387,7.64453,3.08398,14.70508,6.81543,21.1792,11.19092,6.47412,4.37891,12.30078,9.15625,17.47998,14.33545l-18.68213,25.52637c-1.10986,1.604-2.5293,3.02295-4.25439,4.25391-1.72852,1.23438-4.06934,1.8501-7.0293,1.8501-2.95947,0-5.95068-1.04639-8.9707-3.14453-3.02344-2.0957-6.72266-4.43945-11.09863-7.0293-4.37842-2.58936-9.86719-4.93066-16.4624-7.02881-6.59814-2.09521-14.95361-3.14453-25.06396-3.14453-11.22217,0-21.52002,2.03467-30.89014,6.104-9.37305,4.06934-17.41895,9.95996-24.13867,17.66504-6.72266,7.70801-11.93066,17.17334-15.63037,28.39307-3.69922,11.22266-5.54932,23.98584-5.54932,38.28955,0,14.42773,2.00293,27.2832,6.01172,38.56641,4.00586,11.2832,9.49414,20.80957,16.4624,28.57812,6.96533,7.76904,15.10449,13.65918,24.4165,17.66504,9.30908,4.00879,19.26611,6.01172,29.87305,6.01172,6.28906,0,11.99121-.30664,17.10986-.92529,5.11572-.61523,9.86426-1.66455,14.24268-3.14404,4.37598-1.47998,8.50879-3.39062,12.39355-5.73438,3.88428-2.34082,7.79736-5.30078,11.74561-8.87842,1.35547-1.10986,2.77441-2.03516,4.25439-2.7749,1.47949-.73975,3.08057-1.10986,4.80908-1.10986,3.08105,0,5.67041,1.10986,7.76904,3.32959l22.01172,23.4917c-10.85303,13.81201-24.32422,24.29492-40.4165,31.44482-16.09277,7.15332-35.2373,10.72852-57.43408,10.72852Zm-118.80933-519.85791v-230.29004h11.71973c2.34375,0,4.68774,.58643,5.85986,1.7583,1.17188,1.17188,1.75781,2.92969,1.75781,5.27344l1.75781,48.63623c7.61792-18.75146,16.99365-33.40088,29.88501-43.94824,12.30566-10.54785,27.54102-15.82178,45.7063-15.82178,7.03174,0,13.47754,.58594,19.3374,2.34375,5.85986,1.7583,11.13379,3.51611,16.40747,6.44629l-2.92993,15.23535c-.58594,2.34375-1.75781,3.51562-4.68774,3.51562-1.17212,0-2.34399-.58594-4.10181-1.17188-1.75806-.58594-4.10205-1.17188-6.4458-2.34375-2.34399-.58594-5.85986-1.17188-9.37573-2.34375-3.51587-.58643-8.20361-1.17236-12.89136-1.17236-17.57959,0-31.64307,5.27393-42.77661,16.40771-11.13354,10.54736-20.50928,26.36865-26.95508,46.87793v150.01074l-22.26709,.58594-.00024,.00049Zm155.0293-115.43799c0-18.16553,2.34399-34.57275,7.03174-49.22217,4.68799-14.64941,11.71973-26.95508,20.50928-37.50293,8.78955-10.54736,19.92334-18.16504,32.81494-24.0249,12.89136-5.27393,28.12695-8.20361,44.53418-8.20361s31.05713,2.92969,44.53467,8.20361c12.89136,5.85986,24.0249,13.47754,32.8147,24.0249,8.78979,10.54785,15.82153,22.85352,20.50928,37.50293s7.03174,31.05664,7.03174,49.22217-2.34399,34.57275-7.03174,48.63623c-4.68774,14.64941-11.71948,26.95508-20.50928,37.50244-8.78979,10.54785-19.92334,18.16553-32.8147,24.02539-12.8916,5.27344-27.54102,8.20361-44.53467,8.20361-16.40723,0-31.05688-2.93018-44.53418-8.20361-12.8916-5.27393-24.02539-13.47754-32.81494-24.02539s-15.82129-22.85303-20.50928-37.50244c-4.68774-14.64941-7.03174-31.05713-7.03174-48.63623Zm157.44116,941.44189c-3.51416-4.19092-8.10986-7.70557-13.78027-10.54346-5.67334-2.83545-12.14746-5.27197-19.42236-7.30664-7.27734-2.03467-14.73682-4.2832-22.38135-6.75146-7.64746-2.46533-15.10693-5.4248-22.38184-8.87842-7.27734-3.45117-13.75146-8.01465-19.42188-13.68799-5.67334-5.6709-10.26611-12.69971-13.78027-21.08691-3.51465-8.38428-5.27197-18.80371-5.27197-31.26025,0-9.98877,1.97119-19.66797,5.91943-29.04053,3.94482-9.37012,9.73975-17.69385,17.38721-24.97119,7.64453-7.2749,17.04639-13.1333,28.20801-17.57275,11.15918-4.43896,23.9541-6.65869,38.38184-6.65869,16.15332,0,31.10449,2.49707,44.85596,7.49121,13.74854,4.99414,25.37012,11.93066,34.86719,20.80957l-13.68799,26.08105c-1.72852,2.83789-3.48584,4.90186-5.27197,6.19629-1.78857,1.29492-4.10107,1.94238-6.93604,1.94238-2.71387,0-5.64209-.95361-8.78613-2.86719-3.14453-1.91016-6.81543-3.97705-11.00586-6.19629-4.19385-2.21973-9.00293-4.28369-14.42822-6.19678-5.42773-1.91016-11.77734-2.86719-19.05176-2.86719-12.82666,0-22.44531,2.86719-28.85596,8.60156-6.41309,5.73389-9.61865,13.2251-9.61865,22.47412,0,5.91895,1.75732,10.8208,5.27197,14.70508s8.13867,7.24561,13.87305,10.08105c5.73389,2.83789,12.23682,5.36426,19.51416,7.58398,7.2749,2.21924,14.73438,4.65576,22.38184,7.30615,7.64453,2.65332,15.104,5.76611,22.38184,9.34131,7.27441,3.57764,13.78027,8.07812,19.51416,13.50293,5.73438,5.42773,10.3584,12.05469,13.87305,19.88428,3.51465,7.83252,5.27197,17.3584,5.27197,28.57812,0,12.2085-2.12744,23.64746-6.38184,34.3125-4.25439,10.66748-10.39014,19.97705-18.40479,27.93066-8.01709,7.9541-17.91309,14.21387-29.68799,18.7749-11.77734,4.56055-25.12744,6.84375-40.04639,6.84375-8.50879,0-16.98828-.86426-25.43359-2.58936-8.44824-1.72559-16.58691-4.13037-24.4165-7.21387-7.83252-3.08105-15.19922-6.78076-22.104-11.09863-6.90771-4.31494-12.94824-9.12402-18.12744-14.42773l16.27783-26.26611c1.35547-1.97119,3.14453-3.60693,5.36426-4.90186,2.21924-1.29443,4.56055-1.94189,7.02881-1.94189,3.32959,0,6.84375,1.23389,10.54346,3.69922,3.69922,2.46826,7.95361,5.1792,12.76318,8.13867,4.80908,2.95996,10.38721,5.67383,16.73975,8.13916,6.34961,2.46777,13.96533,3.69922,22.84424,3.69922,12.94775,0,22.96533-2.95947,30.05762-8.87842,7.08984-5.91943,10.63623-14.73438,10.63623-26.45117,0-6.78027-1.75732-12.26904-5.27197-16.4624Zm-46.05469-309.10547v-268.39453h170.91406v43.46826h-115.05225v68.99463h89.52637v41.98877h-89.52637v70.47461h115.05225v43.46826h-170.91406Zm268.38965,309.10547c-3.51416-4.19092-8.10986-7.70557-13.78027-10.54346-5.67334-2.83545-12.14746-5.27197-19.42236-7.30664-7.27734-2.03467-14.73682-4.2832-22.38135-6.75146-7.64746-2.46533-15.10693-5.4248-22.38184-8.87842-7.27734-3.45117-13.75146-8.01465-19.42188-13.68799-5.67334-5.6709-10.26611-12.69971-13.78027-21.08691-3.51465-8.38428-5.27197-18.80371-5.27197-31.26025,0-9.98877,1.97119-19.66797,5.91943-29.04053,3.94482-9.37012,9.73975-17.69385,17.38721-24.97119,7.64453-7.2749,17.04639-13.1333,28.20801-17.57275,11.15918-4.43896,23.9541-6.65869,38.38184-6.65869,16.15332,0,31.10449,2.49707,44.85596,7.49121,13.74854,4.99414,25.37012,11.93066,34.86719,20.80957l-13.68799,26.08105c-1.72852,2.83789-3.48584,4.90186-5.27197,6.19629-1.78857,1.29492-4.10107,1.94238-6.93604,1.94238-2.71387,0-5.64209-.95361-8.78613-2.86719-3.14453-1.91016-6.81543-3.97705-11.00586-6.19629-4.19385-2.21973-9.00293-4.28369-14.42822-6.19678-5.42773-1.91016-11.77734-2.86719-19.05176-2.86719-12.82666,0-22.44531,2.86719-28.85596,8.60156-6.41309,5.73389-9.61865,13.2251-9.61865,22.47412,0,5.91895,1.75732,10.8208,5.27197,14.70508s8.13867,7.24561,13.87305,10.08105c5.73389,2.83789,12.23682,5.36426,19.51416,7.58398,7.2749,2.21924,14.73438,4.65576,22.38184,7.30615,7.64453,2.65332,15.104,5.76611,22.38184,9.34131,7.27441,3.57764,13.78027,8.07812,19.51416,13.50293,5.73438,5.42773,10.3584,12.05469,13.87305,19.88428,3.51465,7.83252,5.27197,17.3584,5.27197,28.57812,0,12.2085-2.12744,23.64746-6.38184,34.3125-4.25439,10.66748-10.39014,19.97705-18.40479,27.93066-8.01709,7.9541-17.91309,14.21387-29.68799,18.7749-11.77734,4.56055-25.12744,6.84375-40.04639,6.84375-8.50879,0-16.98828-.86426-25.43359-2.58936-8.44824-1.72559-16.58691-4.13037-24.4165-7.21387-7.83252-3.08105-15.19922-6.78076-22.104-11.09863-6.90771-4.31494-12.94824-9.12402-18.12744-14.42773l16.27783-26.26611c1.35547-1.97119,3.14453-3.60693,5.36426-4.90186,2.21924-1.29443,4.56055-1.94189,7.02881-1.94189,3.32959,0,6.84375,1.23389,10.54346,3.69922,3.69922,2.46826,7.95361,5.1792,12.76318,8.13867,4.80908,2.95996,10.38721,5.67383,16.73975,8.13916,6.34961,2.46777,13.96533,3.69922,22.84424,3.69922,12.94775,0,22.96533-2.95947,30.05762-8.87842,7.08984-5.91943,10.63623-14.73438,10.63623-26.45117,0-6.78027-1.75732-12.26904-5.27197-16.4624Zm54.93848-402.14648c-2.09863-3.20508-4.41064-5.54932-6.93652-7.02881-2.5293-1.47998-6.26025-2.21973-11.19092-2.21973h-18.86719v102.28955h-55.4917v-268.39453h84.34717c18.74316,0,34.7749,1.94238,48.09277,5.82666,13.31836,3.88428,24.23145,9.28027,32.74023,16.18506,8.50879,6.90771,14.73438,15.13867,18.68213,24.69385,3.94531,9.55762,5.91895,20.06934,5.91895,31.5376,0,8.87891-1.26562,17.29492-3.7915,25.24854-2.5293,7.9541-6.19678,15.19971-11.00586,21.73438-4.80957,6.5376-10.72852,12.33252-17.75732,17.38721-7.0293,5.05811-15.04639,9.12744-24.04639,12.2085,3.5752,1.97363,6.9043,4.34668,9.98828,7.12109,3.08105,2.7749,5.85547,6.0752,8.32373,9.896l62.52051,96.55566h-50.12744c-9.37305,0-16.15625-3.5752-20.34668-10.72852l-51.05225-82.3125Zm55.67285,306.97803c6.5957-16.70801,15.93652-31.16748,28.02344-43.37598,12.08398-12.20801,26.57227-21.79492,43.46826-28.76318,16.89307-6.96533,35.63623-10.45068,56.23145-10.45068,20.59277,0,39.33545,3.48535,56.23193,10.45068,16.89307,6.96826,31.35229,16.58691,43.37573,28.85596,12.02344,12.27148,21.33203,26.76025,27.93066,43.46826,6.5957,16.71094,9.89648,34.80664,9.89648,54.28955,0,19.60693-3.30078,37.79785-9.89648,54.56641-6.59863,16.77197-15.90723,31.26025-27.93066,43.46875-12.02344,12.20801-26.48267,21.79785-43.37573,28.76318-16.89648,6.96826-35.63916,10.45068-56.23193,10.45068-20.59521,0-39.33838-3.48242-56.23145-10.45068-16.896-6.96533-31.38428-16.55518-43.46826-28.76318-12.08691-12.2085-21.42773-26.69678-28.02344-43.46875-6.59814-16.76855-9.896-34.95947-9.896-54.56641s3.29785-37.76318,9.896-54.47461Zm215.86304-437.56836v223.63135h-55.67651v-223.63135h-78.42822v-44.76318h212.53247v44.76318h-78.42773Zm59.7644-292.68164c-15.82129,0-29.88501-2.92969-42.77637-8.20361-12.8916-5.27393-24.02515-13.47754-33.40088-24.0249-9.37573-10.54785-16.40747-23.43945-21.68115-38.6748s-7.61792-32.81494-7.61792-52.15234c0-16.40723,2.34399-31.64258,7.03174-45.70605,4.68799-14.06348,11.71973-25.7832,20.50928-36.33105,8.78979-9.96143,19.92334-18.16504,32.81494-23.43896,13.47754-3.51611,28.12695-6.4458,44.53442-6.4458v.00049c12.89136,0,25.19702,2.34375,35.74487,6.4458,11.1333,4.6875,20.50928,11.1333,28.71289,19.33691,8.20361,8.79004,14.64941,19.3374,18.75122,31.64307,4.68774,12.30566,7.03174,26.95508,7.03174,42.77637,0,3.51611-.58594,5.85986-1.75806,7.03174-1.17188,1.17188-2.34375,1.75781-4.68774,1.75781h-166.41797v4.10205c0,16.99316,1.75781,32.229,5.85962,45.70654,4.10205,12.8916,9.96167,24.0249,16.99341,32.81445,7.61792,8.79004,16.40747,15.82178,26.95508,19.92334,10.54761,4.68799,22.26733,6.4458,35.15894,6.4458,11.71948,0,21.68115-1.17188,29.88477-4.10205,8.20361-2.34375,15.82153-5.27344,21.09521-8.78955,5.85986-2.92969,10.54785-5.85986,14.06348-8.78955,3.51611-2.34375,5.85986-4.10205,7.61792-4.10205s3.51587,.58594,4.68774,2.34375l5.85986,7.61768c-3.51587,4.68799-8.78955,8.79004-14.64941,12.8916-5.85986,4.10205-12.8916,7.61768-20.50928,10.54785-7.61768,2.92969-15.2356,5.27344-24.02539,7.03174-8.78955,1.75781-16.99316,2.34375-25.78296,2.34375Zm126.49829,247.91846v268.39453h-55.86133v-268.39453h55.86133Zm-88.78711,498.79395c2.89648-12.02295,7.12207-23.08936,12.6709-33.20215,5.54883-10.10986,12.2373-19.2373,20.06934-27.37598,7.83008-8.13867,16.67676-15.0752,26.54395-20.80957,9.86426-5.73389,20.62402-10.10986,32.27734-13.13281,11.65332-3.02051,24.0752-4.53174,37.27246-4.53174,9.86426,0,19.20508,.86426,28.02246,2.58936,8.81543,1.72852,17.04688,4.1333,24.69434,7.21387,7.64453,3.08398,14.70508,6.81543,21.17969,11.19092,6.47363,4.37891,12.2998,9.15625,17.47949,14.33545l-18.68262,25.52637c-1.10938,1.604-2.52832,3.02295-4.25391,4.25391-1.72852,1.23438-4.06934,1.8501-7.0293,1.8501-2.95898,0-5.9502-1.04639-8.9707-3.14453-3.02344-2.0957-6.72266-4.43945-11.09863-7.0293-4.37891-2.58936-9.86719-4.93066-16.46289-7.02881-6.59766-2.09521-14.95312-3.14453-25.06348-3.14453-11.22266,0-21.52051,2.03467-30.88965,6.104-9.37305,4.06934-17.41992,9.95996-24.13965,17.66504-6.72266,7.70801-11.93066,17.17334-15.62988,28.39307-3.69922,11.22266-5.54883,23.98584-5.54883,38.28955,0,14.42773,2.00293,27.2832,6.01172,38.56641,4.00586,11.2832,9.49414,20.80957,16.46191,28.57812,6.96582,7.76904,15.10449,13.65918,24.41699,17.66504,9.30859,4.00879,19.26562,6.01172,29.87207,6.01172,6.28906,0,11.99219-.30664,17.11035-.92529,5.11523-.61523,9.86426-1.66455,14.24316-3.14404,4.375-1.47998,8.50879-3.39062,12.39258-5.73438,3.88477-2.34082,7.79785-5.30078,11.74609-8.87842,1.35547-1.10986,2.77441-2.03516,4.25391-2.7749,1.48047-.73975,3.08105-1.10986,4.80957-1.10986,3.08105,0,5.6709,1.10986,7.76855,3.32959l22.01172,23.4917c-10.85254,13.81201-24.32324,24.29492-40.41602,31.44482-16.09277,7.15332-35.2373,10.72852-57.43359,10.72852-20.10156,0-38.16797-3.42188-54.19727-10.26611-16.03223-6.84375-29.65918-16.36963-40.87891-28.57812-11.22266-12.20801-19.85547-26.69629-25.89648-43.46826-6.04297-16.76904-9.06348-35.08105-9.06348-54.93652,0-13.31836,1.44824-25.98877,4.34668-38.01221Zm237.32336-971.14209v16.40723h-72.66125v156.45654c0,6.4458,.58594,11.71924,2.34375,16.40723s4.10181,8.20361,6.4458,11.13379c2.34399,2.92969,6.4458,5.27344,9.96167,6.4458,4.10181,1.17188,8.20361,2.34375,12.30554,2.34375,5.2738,0,10.54773-.58594,14.64954-2.34375s7.61768-3.51611,10.54761-5.27393,5.2738-3.51611,7.03174-5.27393,3.51599-2.34375,4.68787-2.34375c1.172,0,2.34387,.58594,3.51587,2.34375l5.85974,9.96191c-5.85974,6.4458-13.47729,11.71973-22.26709,15.82129-8.78967,2.93018-18.16528,5.27393-28.12695,5.27393h-.00024c-15.82153,0-27.54102-4.10205-36.33057-12.8916-8.78979-8.78955-12.8916-22.26709-12.8916-39.84668v-157.62842h-32.81494c-1.75781,0-2.92993-.58594-4.10181-1.17188-1.17188-1.17188-1.75781-2.34375-1.75781-4.10205v-8.78955l39.2605-2.92969,5.27368-82.62305c0-1.17236,.58594-2.34424,1.75806-3.51611,1.17188-1.17188,2.34399-1.75781,4.10181-1.75781h10.54761v87.89697h72.6615Zm-337.21033-358.71387c-18.26318-15.69531-29.45312-35.45801-34.80371-58.99121-2.8584-12.57373,.45068-16.14551,13.55225-15.88965,42.11914,.82178,84.26416,.30566,126.39941,.30566,41.02637,0,82.06885,.6582,123.07031-.34717,14.89844-.36523,16.87256,5.53516,14.23877,17.6626-7.63623,35.15674-30.30469,58.43701-60.271,75.4458-55.43555,31.46484-133.75928,23.43115-182.18604-18.18604Zm1319.80231,499.34863c-3.51593-5.27393-8.78961-9.37598-14.64948-12.8916-5.85986-3.51611-12.8916-6.4458-20.50928-8.79004-7.61768-2.34375-15.23547-4.6875-23.43921-7.61719-8.20361-2.34424-15.82153-5.27393-23.43921-8.2041-7.61755-2.92969-14.64941-6.4458-20.50916-11.1333-5.85974-4.68799-11.13367-9.96191-14.64954-16.40723-3.51587-6.4458-5.27368-14.6499-5.27368-24.02539,0-8.20361,1.75781-15.82129,5.27368-23.43896s8.78979-14.06348,15.2356-19.92334,14.64941-10.54785,24.02515-13.47754c9.37573-3.51611,19.92322-5.27393,31.64282-5.27393,14.06348,0,26.36902,1.75781,37.50269,5.85986,11.13348,4.10205,21.09521,10.54736,29.88489,18.75146l-6.4458,8.20361h-.00018c-1.172,2.34375-2.92987,3.51562-5.27374,3.51562-1.75787,0-4.10193-1.17188-6.44586-2.92969-2.92987-1.75781-6.44586-4.10205-10.54755-6.4458-4.10193-2.34375-9.96167-4.68799-16.40735-6.4458-6.4458-1.75781-14.06348-2.93018-23.43921-2.93018-8.20361,0-15.82141,1.17236-22.85303,3.51611-7.03186,2.34375-12.8916,5.85986-17.57935,9.37549-4.68787,4.10205-8.78979,8.79004-11.13367,14.06348-2.92981,5.27393-4.10193,11.13379-4.10193,16.99365,0,7.03174,1.75781,13.47754,5.2738,18.16553,3.51599,4.6875,8.78967,8.78955,14.64954,12.30566,5.85974,3.51562,12.8916,6.44531,20.50928,8.78955,7.61768,2.34375,15.23535,4.6875,23.43909,7.61768,8.20374,2.34375,15.82153,5.27344,23.43909,8.20361,7.61768,2.92969,14.64954,7.03174,20.50934,11.1333,5.8598,4.68799,11.13361,9.96191,14.64948,16.40771,3.51593,6.4458,5.2738,14.64941,5.2738,23.43896,0,9.96191-1.75787,19.3374-5.2738,28.12695-3.51587,8.78955-8.78967,16.40723-15.82147,22.26709-7.03192,5.85986-15.23553,11.13379-25.19696,15.23535-9.96167,4.10205-21.6814,5.27393-33.98682,5.27393-16.40735,0-29.88501-2.34375-41.60449-7.61768-11.7196-5.27393-22.26721-11.71973-31.64282-20.50928l5.27368-7.61768c.58606-1.17188,1.75781-2.34375,2.34399-2.92969,1.17188-.58643,2.34375-1.17236,4.10181-1.17236,1.75781,0,4.68774,1.17236,7.61768,3.51611s6.4458,5.27393,11.7196,8.20361c4.68774,2.92969,10.54749,5.27393,17.57935,8.20361,7.03186,2.34424,15.82153,3.51611,25.78308,3.51611s18.16541-1.17188,25.78296-4.10205c7.61768-2.92969,13.47754-6.4458,18.75146-11.1333,4.68774-4.68799,8.78967-9.96191,11.13361-16.40771,2.34387-6.4458,4.10193-12.8916,4.10193-19.92334,0-7.61719-1.75787-14.06348-5.2738-19.33691ZM1430.06242,625.20219c43.73779,9.59717,87.64746,18.41064,135.01318,28.25342-7.10107-10.76855-12.22461-18.59033-17.3999-26.37744-29.45557-44.31934-35.22803-92.0542-21.91064-143.11865,9.64014-36.96582,19.14258-73.86816,33.1123-109.55518,11.53418-29.46436,18.62451-59.96777,13.46533-94.73438,44.95898,34.36865,44.8418,83.75293,52.6416,132.43164,16.81934-19.71826,23.56885-42.021,29.02832-64.75732,8.18555-34.08838,8.04639-69.31641,13.46924-103.75781,5.0459-32.04736,17.35889-60.35059,51.17383-78.63281-12.06787,40.40625,3.87695,72.8291,18.43896,105.77783,22.15771,50.13477,34.11816,102.82031,37.47168,157.51172,.46729,7.62598,.36597,15.46631,4.37744,23.69092,14.42139-68.02344,9.34717-140.59961,57.81714-202.11865,2.14795,19.45947-.63696,35.14844,1.88013,50.65186,6.16602,37.98047,23.91602,71.09375,41.85522,104.27246,31.74304,58.70898,40.56042,119.97803,20.15405,184.4873-6.9021,21.81836-20.23926,40.50049-30.3623,63.04443,52.41516-10.14893,103.23633-19.98877,156.46838-30.29541-14.72998,46.16113-38.43274,84.3916-70.98462,117.35693-4.3988,4.45459-10.31494,3.41357-15.78418,3.41504-145.92957,.03662-291.85876,.00928-437.78845,.09277-8.08838,.00439-15.25244-1.10693-20.8457-7.84229-24.89258-29.97559-47.18286-61.47949-61.45508-98.16895-4.68799-12.05078-2.28418-14.35889,10.16406-11.62744Z"/><path d="M798.97502,2304.23588c-1.72803-4.31494-3.5459-9.37012-5.45654-15.16748-1.91357-5.79492-3.73145-12.08398-5.45654-18.86719-1.72852,6.90723-3.54639,13.28906-5.45703,19.14453-1.91309,5.8584-3.73096,10.94531-5.45654,15.26025l-28.85547,81.75781h79.72266l-29.04053-82.12793Z"/><path d="M1378.12102,1869.90434c-8.44824-7.02881-21.30371-10.54297-38.56689-10.54297h-28.85547v84.90186h28.48584c9,0,16.76855-1.13867,23.30615-3.42188,6.53467-2.28027,11.89893-5.4248,16.09277-9.43359,4.19092-4.00586,7.27441-8.72266,9.24854-14.15039,1.97119-5.4248,2.95947-11.34375,2.95947-17.75732,0-12.69922-4.2251-22.56641-12.67041-29.5957Z"/><path d="M2262.27702,2386.36381l-29.04102-82.12793c-1.72852-4.31494-3.5459-9.37012-5.45703-15.16748-1.91309-5.79492-3.73047-12.08398-5.45605-18.86719-1.72852,6.90723-3.54688,13.28906-5.45703,19.14453-1.91309,5.8584-3.73145,10.94531-5.45605,15.26025l-28.85645,81.75781h79.72363Z"/><path d="M632.54997,1280.38188c-15.23535-13.47705-38.67456-20.50928-69.14551-20.50928h-60.94189v157.62842h60.94189c14.64941,0,27.54102-1.75781,38.67456-5.85986s21.09521-9.37549,29.29907-16.40723c8.20361-7.03174,14.06348-15.23535,18.16528-25.19727,4.10181-9.37549,6.4458-19.92285,6.4458-31.64258,0-25.19727-7.61792-44.53467-23.43921-58.01221Z"/><path d="M2439.28898,1371.79399c-5.85974-6.4458-13.47729-11.71924-22.26709-15.82129-8.78967-3.51611-18.16528-5.27393-28.71289-5.27393h-.00024c-11.71948,0-22.26709,1.7583-31.64282,5.27393-9.37573,3.51611-17.57935,8.78955-24.61108,15.82178-7.03198,7.03174-12.30566,15.23535-16.40747,25.19678-4.10181,9.96191-7.03174,20.50928-8.20361,32.81494h151.18262c0-12.30566-1.75793-23.43896-5.27393-33.40088-3.51587-9.96191-8.20361-18.16553-14.06348-24.61133Z"/><path d="M1471.80607,2420.39848c6.96533,7.76904,15.44482,13.71973,25.43359,17.84961,9.98828,4.1333,21.27148,6.19678,33.84961,6.19678s23.82959-2.06348,33.75781-6.19678c9.9248-4.12988,18.37256-10.08057,25.34082-17.84961,6.96533-7.76904,12.30078-17.23145,16.00024-28.39307,3.69922-11.15918,5.54883-23.82959,5.54883-38.01172,0-14.05811-1.84961-26.66504-5.54883-37.82715-3.69946-11.15869-9.03491-20.65332-16.00024-28.48535-6.96826-7.82959-15.41602-13.80957-25.34082-17.94238-9.92822-4.13037-21.17969-6.19678-33.75781-6.19678s-23.86133,2.06641-33.84961,6.19678c-9.98877,4.13281-18.46826,10.11279-25.43359,17.94238-6.96826,7.83203-12.30078,17.32666-16.00049,28.48535-3.69922,11.16211-5.54883,23.76904-5.54883,37.82715,0,14.18213,1.84961,26.85254,5.54883,38.01172,3.69971,11.16162,9.03223,20.62402,16.00049,28.39307Z"/><path d="M2606.50358,2035.91704c9.9248-4.12988,18.34082-10.10986,25.24805-17.94238,6.90527-7.82959,12.20898-17.35547,15.9082-28.57812,3.69922-11.21973,5.54883-23.92188,5.54883-38.104,0-14.05811-1.84961-26.69678-5.54883-37.91943-3.69922-11.21973-9.00293-20.7168-15.9082-28.48584-6.90723-7.76855-15.32324-13.74854-25.24805-17.94238-9.92773-4.19043-21.17969-6.28906-33.75781-6.28906h-47.35254v181.45801h47.35254c12.57812,0,23.83008-2.06396,33.75781-6.19678Z"/><path d="M1744.03727,1396.40532c-3.51587-9.96143-8.20361-18.16504-14.06348-24.61084-5.85962-6.4458-13.47754-11.71973-22.26709-15.82178-8.78979-3.51562-18.75146-5.27393-29.29907-5.27393v.00049c-11.71948,0-22.26733,1.75781-31.64282,5.27393-9.37573,3.51562-17.57935,8.78955-24.61108,15.82129s-12.30566,15.23535-16.40747,25.19727c-4.10181,9.96143-7.03174,20.50879-8.20361,32.81445h151.76855c0-12.30566-1.75806-23.43896-5.27393-33.40088Z"/><path d="M956.34099,1526.49272c7.03174,8.79004,15.2356,15.82178,25.7832,20.50977,9.96167,4.6875,21.68115,7.03174,35.74463,7.03174,13.47754,0,25.7832-2.34424,35.74487-7.03174,10.54761-4.68799,18.75122-11.71973,25.78296-20.50977,7.03174-8.78955,11.71973-19.33691,15.2356-31.64258s5.27368-26.36914,5.27368-41.60449-1.75781-29.29883-5.27368-41.60449-8.78979-23.43945-15.2356-32.229c-7.03174-8.78955-15.23535-15.82178-25.78296-20.50928s-22.26733-7.03174-35.74487-7.03174-25.78296,2.34375-35.74463,7.03174c-10.54761,4.6875-18.75122,11.71973-25.7832,20.50928-7.03174,8.78955-12.30542,19.3374-15.23535,32.229-3.51587,12.30566-5.27393,26.36914-5.27393,41.60449s1.75806,29.29883,5.27393,41.60449,8.78979,22.85303,15.23535,31.64258Z"/><path class="cls-2" d="M2926.65837,1541.14213c-5.27393,4.6875-11.13379,8.20361-18.75146,11.1333-7.61755,2.93018-15.82129,4.10205-25.78296,4.10205s-18.75122-1.17188-25.78308-3.51611c-7.03186-2.92969-12.8916-5.27393-17.57935-8.20361-5.2738-2.92969-8.78967-5.85986-11.7196-8.20361s-5.85986-3.51611-7.61768-3.51611c-1.75806,0-2.92993,.58594-4.10181,1.17236-.58618,.58594-1.75793,1.75781-2.34399,2.92969l-5.27368,7.61768c9.37561,8.78955,19.92322,15.23535,31.64282,20.50928,11.71948,5.27393,25.19714,7.61768,41.60449,7.61768,12.30542,0,24.02515-1.17188,33.98682-5.27393,9.96143-4.10156,18.16504-9.37549,25.19696-15.23535,7.0318-5.85986,12.3056-13.47754,15.82147-22.26709,3.51593-8.78955,5.2738-18.16504,5.2738-28.12695,0-8.78955-1.75787-16.99316-5.2738-23.43896-3.51587-6.4458-8.78967-11.71973-14.64948-16.40771-5.8598-4.10156-12.89166-8.20361-20.50934-11.1333-7.61755-2.93018-15.23535-5.85986-23.43909-8.20361-8.20374-2.93018-15.82141-5.27393-23.43909-7.61768-7.61768-2.34424-14.64954-5.27393-20.50928-8.78955-5.85986-3.51611-11.13354-7.61816-14.64954-12.30566-3.51599-4.68799-5.2738-11.13379-5.2738-18.16553,0-5.85986,1.17212-11.71973,4.10193-16.99365,2.34387-5.27344,6.4458-9.96143,11.13367-14.06348,4.68774-3.51562,10.54749-7.03174,17.57935-9.37549,7.03162-2.34375,14.64941-3.51611,22.85303-3.51611,9.37573,0,16.99341,1.17236,23.43921,2.93018,6.44568,1.75781,12.30542,4.10205,16.40735,6.4458,4.10168,2.34375,7.61768,4.68799,10.54755,6.4458,2.34393,1.75781,4.68799,2.92969,6.44586,2.92969,2.34387,0,4.10175-1.17188,5.27374-3.51562h.00018l6.4458-8.20361c-8.78967-8.2041-18.7514-14.64941-29.88489-18.75146-11.13367-4.10205-23.43921-5.85986-37.50269-5.85986-11.7196,0-22.26709,1.75781-31.64282,5.27393-9.37573,2.92969-17.57935,7.61768-24.02515,13.47754s-11.71973,12.30566-15.2356,19.92334-5.27368,15.23535-5.27368,23.43896c0,9.37549,1.75781,17.57959,5.27368,24.02539,3.51587,6.44531,8.78979,11.71924,14.64954,16.40723,5.85974,4.6875,12.8916,8.20361,20.50916,11.1333,7.61768,2.93018,15.2356,5.85986,23.43921,8.2041,8.20374,2.92969,15.82153,5.27344,23.43921,7.61719,7.61768,2.34424,14.64941,5.27393,20.50928,8.79004,5.85986,3.51562,11.13354,7.61768,14.64948,12.8916,3.51593,5.27344,5.2738,11.71973,5.2738,19.33691,0,7.03174-1.75806,13.47754-4.10193,19.92334-2.34393,6.4458-6.44586,11.71973-11.13361,16.40771Z"/><path class="cls-2" d="M780.21672,1418.08647c6.4458-20.50928,15.82153-36.33057,26.95508-46.87793,11.13354-11.13379,25.19702-16.40771,42.77661-16.40771,4.68774,0,9.37549,.58594,12.89136,1.17236,3.51587,1.17188,7.03174,1.75781,9.37573,2.34375,2.34375,1.17188,4.68774,1.75781,6.4458,2.34375,1.75781,.58594,2.92969,1.17188,4.10181,1.17188,2.92993,0,4.10181-1.17188,4.68774-3.51562l2.92993-15.23535c-5.27368-2.93018-10.54761-4.68799-16.40747-6.44629-5.85986-1.75781-12.30566-2.34375-19.3374-2.34375-18.16528,0-33.40063,5.27393-45.7063,15.82178-12.89136,10.54736-22.26709,25.19678-29.88501,43.94824l-1.75781-48.63623c0-2.34375-.58594-4.10156-1.75781-5.27344-1.17212-1.17188-3.51611-1.7583-5.85986-1.7583h-11.71973v230.29004l.00024-.00049,22.26709-.58594v-150.01074Z"/><path class="cls-2" d="M650.12932,1265.73247c-19.33716-16.99365-48.05029-25.19727-86.72485-25.19727h-84.3811v327.5625h23.43921v-131.8457h60.94189c18.16528,0,34.57275-2.34375,48.63623-7.03174,14.06348-5.27344,26.36914-11.71973,36.33057-20.50928,9.96167-8.78955,17.57959-18.75098,22.85327-31.05664,5.27393-12.30566,8.20386-25.7832,8.20386-39.84668,0-31.05664-9.96167-55.08203-29.29907-72.0752Zm-.58594,104.3042c-4.10181,9.96191-9.96167,18.16553-18.16528,25.19727-8.20386,7.03174-18.16553,12.30518-29.29907,16.40723s-24.02515,5.85986-38.67456,5.85986h-60.94189v-157.62842h60.94189c30.47095,0,53.91016,7.03223,69.14551,20.50928,15.82129,13.47754,23.43921,32.81494,23.43921,58.01221,0,11.71973-2.34399,22.26709-6.4458,31.64258Z"/><path class="cls-2" d="M973.33464,1563.40971c13.47729,5.27344,28.12695,8.20361,44.53418,8.20361,16.99365,0,31.64307-2.93018,44.53467-8.20361,12.89136-5.85986,24.0249-13.47754,32.8147-24.02539,8.78979-10.54736,15.82153-22.85303,20.50928-37.50244,4.68774-14.06348,7.03174-30.47119,7.03174-48.63623s-2.34399-34.57275-7.03174-49.22217-11.71948-26.95508-20.50928-37.50293c-8.78979-10.54736-19.92334-18.16504-32.8147-24.0249-13.47754-5.27393-28.1272-8.20361-44.53467-8.20361s-31.64282,2.92969-44.53418,8.20361c-12.8916,5.85986-24.02539,13.47754-32.81494,24.0249-8.78955,10.54785-15.82129,22.85352-20.50928,37.50293-4.68774,14.64941-7.03174,31.05664-7.03174,49.22217,0,17.5791,2.34399,33.98682,7.03174,48.63623,4.68799,14.64941,11.71973,26.95459,20.50928,37.50244s19.92334,18.75146,32.81494,24.02539Zm-32.229-151.76855c2.92993-12.8916,8.20361-23.43945,15.23535-32.229,7.03198-8.78955,15.2356-15.82178,25.7832-20.50928,9.96167-4.68799,22.26733-7.03174,35.74463-7.03174s25.19727,2.34424,35.74487,7.03174,18.75122,11.71973,25.78296,20.50928c6.4458,8.78955,11.71973,19.92334,15.2356,32.229s5.27368,26.36914,5.27368,41.60449-1.75781,29.29883-5.27368,41.60449-8.20386,22.85303-15.2356,31.64258c-7.03174,8.79004-15.23535,15.82178-25.78296,20.50977-9.96167,4.6875-22.26733,7.03174-35.74487,7.03174-14.06348,0-25.78296-2.34424-35.74463-7.03174-10.54761-4.68799-18.75146-11.71973-25.7832-20.50977-6.44556-8.78955-11.71948-19.33691-15.23535-31.64258s-5.27393-26.36914-5.27393-41.60449,1.75806-29.29883,5.27393-41.60449Z"/><path class="cls-2" d="M1209.72331,1377.65434l-2.34375-33.40088c-.58594-4.10156-2.92993-5.85986-7.03174-5.85986h-12.30566v230.29004l22.85303,1.17188v-174.03564c8.78979-13.47754,18.16553-23.43945,28.71289-31.05664,10.54785-7.61768,22.26733-11.13379,34.57275-11.13379,16.99341,0,30.47095,5.85986,39.26074,17.57959,8.78955,12.30518,13.47754,29.29883,13.47754,51.56592v147.08057h22.26709v-147.08057c0-11.13379,1.17212-21.09521,4.68799-29.88477,3.51587-8.79004,7.61768-15.82178,13.47754-21.68164,5.27393-5.85986,12.30566-9.37598,19.3374-12.8916s14.64941-4.6875,22.85303-4.6875c18.16553,0,31.64307,5.85938,41.60449,17.5791,9.96167,11.71973,14.64941,29.29883,14.64941,51.56641v147.08057h22.26733v-147.08057c0-14.06348-1.75781-26.36914-5.27368-36.91699-3.51611-11.13379-8.20361-19.92334-14.64941-27.54102s-14.06348-13.47754-23.43921-16.99316c-8.78979-4.10205-19.3374-5.85986-30.47095-5.85986-8.20361,0-15.82153,1.75781-23.43921,3.51611-7.61768,1.75781-14.64941,5.27393-21.09521,9.96143-6.4458,4.10205-11.71973,9.96143-16.99341,16.99365-5.27393,7.03174-8.78955,15.23535-11.71973,24.61084-3.51562-17.5791-10.54736-31.05664-20.50928-41.01855s-23.43896-14.64941-40.43237-14.64941c-7.03174,0-14.06348,.58594-20.50928,2.93018-7.03174,2.34375-12.8916,5.27344-18.75122,8.78955-5.85986,3.51562-11.13379,8.20361-16.40747,13.47754-5.27368,5.27344-9.96167,11.1333-14.64966,17.5791Z"/><path class="cls-2" d="M2452.76652,1360.07475c-8.20361-8.20361-17.57935-14.64941-28.71289-19.3374-10.54785-4.10205-22.85327-6.4458-35.74487-6.4458-16.40723,0-31.05676,2.92969-43.94836,6.44531-12.89172,5.27393-24.02527,13.47754-32.81482,23.43945-8.78979,10.54785-15.82153,22.26709-20.50928,36.33057-4.68799,14.06348-7.03186,29.29932-7.03186,45.70654,0,19.3374,2.34387,36.9165,7.61755,52.15186,5.27405,15.23584,12.30566,28.12744,21.6814,38.6748,9.37573,10.54785,20.50928,18.75146,33.40088,24.02539,12.89136,5.27344,26.95483,8.20361,42.77637,8.20361,8.78979,0,16.99341-.58594,25.78308-2.34375,8.78967-1.7583,16.40759-4.10205,24.02515-7.03223,7.61768-2.92969,14.64954-6.44531,20.50928-10.54736s11.13367-8.20361,14.64954-12.8916l-5.85986-7.61768c-1.17188-1.75781-2.92993-2.34375-4.68774-2.34375s-4.10181,1.75781-7.61768,4.10156c-3.51587,2.93018-8.20361,5.85986-14.06348,8.79004-5.27368,3.51562-12.8916,6.4458-21.09521,8.78955-8.20361,2.93018-18.16541,4.10205-29.88501,4.10205-12.8916,0-24.61121-1.7583-35.15869-6.4458-10.54785-4.10205-19.3374-11.13379-26.95508-19.92334-7.03174-8.78955-12.89148-19.92334-16.99341-32.81494-4.10193-13.47754-5.85986-28.71289-5.85986-45.70605v-4.10205h165.83252c2.34375,0,3.51562-.58594,4.68774-1.75781,1.17188-1.17236,1.75781-3.51611,1.75781-7.03174,0-15.82178-2.34399-30.47119-7.03174-42.77686-4.10205-12.30518-10.54785-22.85303-18.75146-31.64258Zm-145.32275,69.73145c1.17188-12.30566,4.10181-22.85303,8.20361-32.81494,4.10181-9.96143,9.37549-18.16504,16.40747-25.19678,7.03174-7.03223,15.23535-12.30566,24.61108-15.82178,9.37573-3.51562,19.92334-5.27393,31.64282-5.27393h.00024c10.54761,0,19.92322,1.75781,28.71289,5.27393,8.78979,4.10205,16.40735,9.37549,22.26709,15.82129,5.85986,6.4458,10.54761,14.64941,14.06348,24.61133,3.51599,9.96191,5.27393,21.09521,5.27393,33.40088h-151.18262Z"/><path class="cls-2" d="M2559.24943,1338.97954v147.08057c0,13.47754,1.17188,25.7832,4.68774,36.33105,3.51587,11.13379,8.20361,19.92334,14.64941,27.54102s14.64954,13.47754,24.02515,17.5791c9.37573,4.10205,20.50928,5.85986,33.40088,5.85986,17.57947,0,32.81494-4.10205,46.87842-12.30566s26.36914-18.75146,36.91663-32.22852l2.34387,33.98682c0,4.10156,2.34387,5.85938,6.4458,5.85938h12.30566v-230.28955h-22.26721v172.86377c-10.54749,13.47754-22.26721,24.02539-35.15881,31.64307s-26.95508,11.71924-42.19043,11.71924c-19.92358,0-35.15881-5.85938-45.12061-18.16504-9.96167-12.30566-14.64941-29.29932-14.64941-50.98047v-147.08057l-22.26709,.58594Z"/><path class="cls-2" d="M2054.88652,1377.65434v-145.90869h-22.26721v337.52393h21.68115v-172.86377c9.96167-13.47754,21.68115-24.61133,34.57275-32.229s26.95508-11.71924,42.19067-11.71924c19.92334,0,35.15869,5.85986,45.12036,18.16504,9.96167,12.30566,14.64954,29.29932,14.64954,50.98047v147.08105h22.26709v-147.08105c0-13.47754-1.17175-25.7832-4.68774-36.33057-2.92981-11.13379-7.61768-19.92383-14.06348-27.5415-6.4458-7.61719-14.64954-13.47705-24.02515-17.5791-9.37573-4.10205-20.50928-5.85986-33.40088-5.85986-16.99341,0-32.22888,4.10205-45.7063,11.71973-13.47766,8.20361-25.78333,18.75098-36.33081,31.64258Z"/><path class="cls-2" d="M1870.81901,1256.94243c-1.75781,0-2.92993,.58594-4.10181,1.75781-1.17212,1.17188-1.75806,2.34375-1.75806,3.51611l-5.27368,82.62305-39.2605,2.92969v8.78955c0,1.7583,.58594,2.93018,1.75781,4.10205,1.17188,.58594,2.34399,1.17188,4.10181,1.17188h32.81494v157.62842c0,17.57959,4.10181,31.05713,12.8916,39.84668,8.78955,8.78955,20.50903,12.8916,36.33057,12.8916h.00024c9.96167,0,19.33728-2.34375,28.12695-5.27393,8.78979-4.10156,16.40735-9.37549,22.26709-15.82129l-5.85974-9.96191c-1.172-1.75781-2.34387-2.34375-3.51587-2.34375-1.17188,0-2.92993,.58594-4.68787,2.34375s-4.10181,3.51611-7.03174,5.27393-6.4458,3.51611-10.54761,5.27393-9.37573,2.34375-14.64954,2.34375c-4.10193,0-8.20374-1.17188-12.30554-2.34375-3.51587-1.17236-7.61768-3.51611-9.96167-6.4458-2.34399-2.93018-4.68799-6.4458-6.4458-11.13379s-2.34375-9.96143-2.34375-16.40723v-156.45654h72.66125v-16.40723h-72.6615v-87.89697h-10.54761Z"/><path class="cls-2" d="M1728.80192,1559.8936c7.61768-2.93018,14.64941-6.4458,20.50928-10.54785,5.85986-4.10156,11.13354-8.20361,14.64941-12.8916l-5.85986-7.61768c-1.17188-1.75781-2.92969-2.34375-4.68774-2.34375s-4.10181,1.7583-7.61792,4.10205c-3.51562,2.92969-8.20361,5.85986-14.06348,8.78955-5.27368,3.51611-12.8916,6.4458-21.09521,8.78955-8.20361,2.93018-18.16528,4.10205-29.88477,4.10205-12.8916,0-24.61133-1.75781-35.15894-6.4458-10.54761-4.10156-19.33716-11.1333-26.95508-19.92334-7.03174-8.78955-12.89136-19.92285-16.99341-32.81445-4.10181-13.47754-5.85962-28.71338-5.85962-45.70654v-4.10205h166.41797c2.34399,0,3.51587-.58594,4.68774-1.75781,1.17212-1.17188,1.75806-3.51562,1.75806-7.03174,0-15.82129-2.34399-30.4707-7.03174-42.77637-4.10181-12.30566-10.54761-22.85303-18.75122-31.64307-8.20361-8.20361-17.57959-14.64941-28.71289-19.33691-10.54785-4.10205-22.85352-6.4458-35.74487-6.4458v-.00049c-16.40747,0-31.05688,2.92969-44.53442,6.4458-12.8916,5.27393-24.02515,13.47754-32.81494,23.43896-8.78955,10.54785-15.82129,22.26758-20.50928,36.33105-4.68774,14.06348-7.03174,29.29883-7.03174,45.70605,0,19.3374,2.34424,36.91699,7.61792,52.15234s12.30542,28.12695,21.68115,38.6748c9.37573,10.54736,20.50928,18.75098,33.40088,24.0249,12.89136,5.27393,26.95508,8.20361,42.77637,8.20361,8.78979,0,16.99341-.58594,25.78296-2.34375,8.78979-1.7583,16.40771-4.10205,24.02539-7.03174Zm-123.05566-162.90186c4.10181-9.96191,9.37573-18.16553,16.40747-25.19727s15.23535-12.30566,24.61108-15.82129c9.37549-3.51611,19.92334-5.27393,31.64282-5.27393v-.00049c10.54761,0,20.50928,1.7583,29.29907,5.27393,8.78955,4.10205,16.40747,9.37598,22.26709,15.82178,5.85986,6.4458,10.54761,14.64941,14.06348,24.61084,3.51587,9.96191,5.27393,21.09521,5.27393,33.40088h-151.76855c1.17188-12.30566,4.10181-22.85303,8.20361-32.81445Z"/></svg>