<?xml version="1.0" encoding="utf-8"?>
<!-- Generator: Adobe Illustrator 28.2.0, SVG Export Plug-In . SVG Version: 6.00 Build 0)  -->
<svg version="1.1" id="Layer_1" xmlns="http://www.w3.org/2000/svg" xmlns:xlink="http://www.w3.org/1999/xlink" x="0px" y="0px"
	 width="800px" height="111.6px" viewBox="0 0 800 111.6" style="enable-background:new 0 0 800 111.6;" xml:space="preserve">
<style type="text/css">
	.st0{fill:#0066FF;}
	.st1{fill:#FFFFFF;}
</style>
<g>
	<path d="M199.5,21.6h-86.7V0h86.7V21.6z M199.5,66.5h-86.7V44.9h86.7V66.5z M199.5,111.3h-86.7V89.7h86.7V111.3z"/>
	<path d="M311,0v21.6h-39c0,0-30.1,1.8-30.1,34.1c0,32.3,30.1,34.1,30.1,34.1h17.4V49H311v40.7v21.6h-21.6H271
		c0,0-50.9-1.6-50.9-55.7C220.1,1.6,271,0,271,0H311z"/>
	<rect x="331.4" y="0.3" width="21.6" height="111.3"/>
	<path d="M466.1,0v21.6h-57c0,0-14-0.2-14,11.6c0,11.8,14,11.6,14,11.6h28.5c0,0,32.7,0.7,32.7,33.2c0,32.5-32.7,33.2-32.7,33.2
		h-60.1V89.7h57c0,0,14,0.2,14-11.6c0-11.8-14-11.6-14-11.6H406c0,0-32.7-0.7-32.7-33.2C373.3,0.7,406,0,406,0H466.1z"/>
	<polygon points="526.2,111.3 526.2,21.6 490.9,21.6 490.9,0 526.2,0 547.9,0 583.2,0 583.2,21.6 547.9,21.6 547.9,111.3 	"/>
	<path d="M671.4,111.3l-22.3-44.9h-23.9v44.9h-21.6V50.5h0.1v-5.6h54c0,0,14,0.2,14-11.6c0-11.8-14-11.6-14-11.6h-54.1V0h57.1
		c0,0,32.7,0.7,32.7,33.2c0,19.7-12,27.7-21.5,31l23.4,47.1H671.4z"/>
	<polygon points="724.8,0 751.2,46.3 777.5,0 800,0 762,71.6 762,111.3 740.4,111.3 740.4,71.6 702.3,0 	"/>
	<path d="M68.3,111.3h23.9L68.8,64.2c9.5-3.3,21.5-11.3,21.5-31C90.3,0.7,57.6,0,57.6,0H0.5v21.6h54c0,0,14-0.2,14,11.6
		c0,11.8-14,11.6-14,11.6h-0.2L44,62.5L68.3,111.3z"/>
	<polygon class="st0" points="54.9,44.9 39.3,44.9 37.3,48.2 27.5,65 15.6,44.9 0,44.9 19.6,78.2 0,111.6 15.6,111.6 27.5,91.5 
		39.3,111.6 54.9,111.6 35.3,78.2 44.4,62.6 	"/>
</g>
</svg>
