<?xml version="1.0" encoding="UTF-8"?><svg id="Layer_1" xmlns="http://www.w3.org/2000/svg" viewBox="0 0 295.1 75.74"><defs><style>.cls-1{fill:#fff;}</style></defs><path class="cls-1" d="M73.5,30.4l-1.07-1.85L57.4,2.4c-.4-.7-1-1.4-1.8-1.8-.52-.3-1.11-.49-1.74-.56-.22-.03-.44-.04-.66-.04H21c-.9,0-1.7,.2-2.4,.7-.18,.1-.34,.21-.51,.34h-.01c-.48,.38-.91,.86-1.28,1.46L.7,30.4c-.06,.09-.12,.18-.17,.27-.28,.46-.43,.97-.49,1.52-.03,.2-.04,.41-.04,.61,0,.9,.2,1.7,.7,2.4l16.1,27.9c.4,.7,1,1.4,1.8,1.8,.7,.4,1.6,.7,2.4,.7H53.3c.08,0,.16,0,.23,0,.77-.04,1.46-.25,2.07-.69,.7-.4,1.4-1,1.8-1.8l1.9-3.3h-1.86l-1.44,2.5c-.3,.5-.7,.9-1.2,1.2s-1,.4-1.6,.4H21c-.6,0-1.1-.2-1.6-.4-.5-.3-.9-.7-1.2-1.2L2.1,34.4c-.3-.5-.4-1-.4-1.6s.1-1.1,.4-1.6L18.2,3.3c.3-.5,.7-.9,1.2-1.2,.5-.3,1-.4,1.6-.4H53.3c.11,0,.22,0,.33,.02,.42,.04,.79,.16,1.17,.38,.5,.3,.9,.7,1.2,1.2l13.79,23.9,2.31,4c.3,.5,.4,1,.4,1.6s-.1,1.1-.4,1.6l-1.36,2.35,.06,.09,.87,1.53,1.83-3.17c.4-.7,.7-1.6,.7-2.4,0-.9-.2-1.7-.7-2.4Z"/><path d="M73.6,30.4l-.96-1.66L57.5,2.4c-.4-.7-1-1.4-1.8-1.8-.54-.31-1.2-.5-1.84-.56-.19-.03-.38-.04-.56-.04H21c-.9,0-1.7,.2-2.4,.7-.18,.1-.34,.21-.51,.34h-.01c-.51,.37-.98,.86-1.28,1.46L.7,30.4c-.06,.09-.12,.18-.17,.27-.27,.47-.42,1-.49,1.52-.03,.2-.04,.41-.04,.61,0,.9,.2,1.7,.7,2.4l16.1,27.9c.4,.7,1,1.4,1.8,1.8,.7,.4,1.6,.7,2.4,.7H53.3c.08,0,.16,0,.23,0,.81-.03,1.53-.23,2.17-.69,.7-.4,1.4-1,1.8-1.8l1.9-3.3h-1.8l-1.5,2.6c-.3,.5-.7,.9-1.2,1.2-.5,.3-1,.4-1.6,.4H21c-.6,0-1.1-.2-1.6-.4-.5-.3-.9-.7-1.2-1.2L2.1,34.4c-.3-.5-.4-1-.4-1.6s.1-1.1,.4-1.6L18.2,3.3c.3-.5,.7-.9,1.2-1.2,.5-.3,1-.4,1.6-.4H53.3c.11,0,.22,0,.33,.02,.46,.02,.86,.14,1.27,.38,.5,.3,.9,.7,1.2,1.2l13.81,23.93,2.29,3.97c.3,.5,.4,1,.4,1.6s-.1,1.1-.4,1.6l-1.4,2.44,.87,1.53,.05,.09,1.88-3.26c.4-.7,.7-1.6,.7-2.4,0-.9-.2-1.7-.7-2.4Z"/><path d="M52.3,17.2c.2-.3,.3-.6,.3-.9,0-.2-.1-.5-.2-.8-.1-.2-.3-.4-.6-.6-.2-.1-.5-.2-.8-.2h-5.8c-.3,0-.6,.1-.8,.2-.2,.2-.5,.4-.6,.6l-8.6,13.58-.9,1.42c-.2,.2-.3,.5-.3,.8,0,.2,.1,.5,.2,.8l1,1.81,5.21,9.43,3.29,5.96c.1,.2,.3,.5,.6,.6,.2,.1,.5,.2,.8,.2h2.5l-.4-.7-1.8-3.1,3-5.2,.6-1.04-3.41-5.78-1.69-2.88c-.1-.3-.2-.6-.2-.9s.1-.6,.3-.9l8.3-12.4Zm-17.6-2.2c-.3-.3-.8-.5-1.2-.5h-6.2c-.5,0-.9,.2-1.2,.5-.3,.3-.5,.8-.5,1.2V48.4c0,.5,.2,.9,.5,1.2s.8,.5,1.2,.5h6.2c.5,0,.9-.2,1.2-.5,.3-.3,.5-.8,.5-1.2V16.2c0-.4-.2-.8-.5-1.2Z"/><path d="M82,44.7c-.1-.4-.3-.7-.5-1.1l-6.7-11.6-.8-1.3-.5-.9c-.19-.39-.48-.77-.86-1.06-.01-.02-.03-.03-.04-.04-.05-.05-.11-.11-.17-.15-.7-.66-1.59-1.12-2.52-1.32-.04-.01-.08-.02-.12-.03-.32-.07-.66-.1-.99-.1h-16c-.8,0-1.5,.2-2.2,.5-.7,.3-1.3,.8-1.8,1.4-.2,.2-.4,.5-.6,.8l-2.61,4.48-.59,1.02-4.59,8.04-.21,.36v.1c-.4,.8-.7,1.7-.7,2.7,0,.9,.3,1.8,.7,2.6l8,13.9c.17,.34,.37,.64,.62,.9,.02,.04,.05,.07,.09,.1,.3,.32,.67,.59,1.09,.8,.7,.5,1.6,.7,2.4,.8h17l5.7,9.1c.3,.5,.8,.9,1.4,1,.6,.1,1.2,0,1.7-.3l.3-.2c.5-.3,.9-.8,1-1.4,.1-.6,0-1.2-.3-1.7l-5.8-9.2,8-13.8c.4-.6,.6-1.4,.7-2.1,.2-.8,.1-1.6-.1-2.3Zm-7.5,4.7l-6,10.4h-15.4v-.1l-5.5-9.6-.4-.7-1.8-3.1,3-5.2,.6-1.04,1.9-3.26,2.1-3.8h15.6l2.14,3.75,.06,.09,.87,1.53,.05,.09,.08,.14,4.5,7.8-1.8,3Z"/><path d="M96,48.2c-.3,0-.5-.1-.7-.3s-.3-.4-.3-.7V21.7c0-.3,.1-.5,.2-.7,.2-.2,.4-.3,.7-.3h3.5c.3,0,.5,.1,.7,.3,.2,.2,.3,.4,.3,.7v9.2l8.9-9.4c.3-.5,.9-.7,1.5-.7h3.9c.2,0,.4,.1,.6,.2,.2,.2,.3,.4,.3,.6s-.1,.3-.2,.5l-10.8,11.8,11.6,13c.1,.2,.2,.3,.2,.5s-.1,.4-.3,.6c-.2,.2-.3,.2-.6,.2h-4.1c-.7,0-1.2-.2-1.5-.7l-9.5-10.4v10.1c0,.3-.1,.5-.3,.7-.2,.2-.4,.2-.7,.2h-3.4v.1Z"/><path d="M125.8,48.5c-2.4,0-4.3-.8-5.7-2.4-1.4-1.6-2.1-3.7-2.1-6.5v-11c0-.3,.1-.5,.3-.7s.4-.3,.7-.3h3.5c.3,0,.5,.1,.7,.3,.2,.2,.3,.4,.3,.7v10.8c0,3.2,1.4,4.9,4.3,4.9,1.4,0,2.4-.4,3.2-1.3,.8-.9,1.2-2.1,1.2-3.6v-10.7c0-.3,.1-.5,.3-.7s.4-.3,.7-.3h3.5c.3,0,.5,.1,.7,.3,.2,.2,.3,.4,.3,.7v18.5c0,.3-.1,.5-.3,.7s-.4,.3-.7,.3h-3.2c-.3,0-.5-.1-.7-.3s-.3-.4-.3-.7v-1.6c-1.6,2-3.8,2.9-6.7,2.9Z"/><path d="M153.5,48.5c-2.7,0-4.8-.9-6.3-2.8v1.4c0,.3-.1,.5-.3,.7s-.4,.3-.7,.3h-3.1c-.3,0-.5-.1-.7-.3s-.3-.4-.3-.7V21.3c0-.3,.1-.5,.3-.7s.4-.3,.7-.3h3.3c.3,0,.5,.1,.7,.3,.2,.2,.3,.4,.3,.7v8.7c1.5-1.7,3.5-2.6,6.1-2.6s4.7,.9,6.1,2.6c1.4,1.7,2.2,4,2.3,6.7v2.6c-.1,2.8-.9,5.1-2.3,6.8-1.4,1.6-3.5,2.4-6.1,2.4Zm-1.5-4.1c2.8,0,4.3-1.7,4.5-5.2v-2.4c-.2-3.5-1.7-5.2-4.5-5.2-1.5,0-2.6,.5-3.4,1.4-.8,.9-1.2,2-1.2,3.3v3c.1,1.4,.5,2.6,1.2,3.6,.8,1,1.9,1.5,3.4,1.5Z"/><path d="M175.1,48.5c-2.9,0-5.2-.8-7-2.5-1.7-1.7-2.6-4.1-2.7-7.1v-2c.1-3,1.1-5.3,2.8-7s4-2.5,6.9-2.5c3.1,0,5.5,.9,7.2,2.8,1.7,1.9,2.6,4.4,2.6,7.5v.8c0,.3-.1,.5-.3,.7s-.4,.3-.7,.3h-13.1v.3c.1,1.4,.4,2.7,1.2,3.6,.8,1,1.8,1.4,3.1,1.4,1.5,0,2.8-.6,3.7-1.8,.2-.3,.4-.5,.6-.5,.2-.1,.4-.1,.7-.1h3.4c.2,0,.4,.1,.6,.2,.2,.1,.3,.3,.3,.5,0,.6-.4,1.4-1.1,2.2-.7,.8-1.8,1.6-3.2,2.2-1.5,.7-3.1,1-5,1Zm4.4-12.3v-.1c0-1.5-.4-2.8-1.2-3.7-.8-.9-1.8-1.4-3.2-1.4s-2.4,.5-3.2,1.4c-.8,.9-1.1,2.2-1.1,3.7v.1h8.7Z"/><path d="M196.8,48.5c-2,0-3.6-.3-5-.9-1.3-.6-2.3-1.3-3-2.1-.6-.8-.9-1.5-.9-2.1,0-.3,.1-.5,.3-.6,.2-.2,.4-.2,.6-.2h3.1c.2,0,.4,.1,.6,.3,.1,.1,.4,.3,.8,.7,.4,.4,1,.7,1.6,1,.6,.2,1.3,.4,2,.4,1,0,1.9-.2,2.6-.6,.7-.4,1-1,1-1.7,0-.5-.2-1-.5-1.3s-.8-.6-1.6-.9c-.8-.3-2-.6-3.5-.9-2.2-.5-3.9-1.2-5-2.2s-1.6-2.2-1.6-3.8c0-1,.3-2,.9-2.9,.6-.9,1.6-1.7,2.8-2.3,1.3-.6,2.8-.9,4.5-.9,1.8,0,3.3,.3,4.6,.9,1.3,.5,2.3,1.2,2.9,2,.7,.8,1,1.4,1,2,0,.2-.1,.4-.3,.6-.2,.2-.4,.2-.6,.2h-2.9c-.2,0-.4-.1-.7-.3-.2-.1-.5-.4-.9-.7-.4-.4-.9-.7-1.4-.9-.5-.2-1.1-.3-1.9-.3-1,0-1.7,.2-2.3,.6-.5,.4-.8,1-.8,1.6,0,.5,.1,.9,.4,1.2,.3,.3,.8,.6,1.5,.9,.8,.3,1.9,.6,3.4,.9,2.5,.5,4.3,1.3,5.4,2.3,1.1,1,1.7,2.3,1.7,3.8,0,1.8-.8,3.3-2.4,4.5-1.3,1.2-3.5,1.7-6.4,1.7Z"/><path d="M218.8,48.5c-2.9,0-5.2-.8-6.9-2.4-1.7-1.6-2.6-3.8-2.7-6.6v-3.2c.1-2.8,1-5,2.7-6.6s4-2.4,6.9-2.4c2,0,3.8,.4,5.2,1.1s2.5,1.6,3.2,2.7c.7,1,1.1,2,1.1,3,0,.3-.1,.5-.3,.7s-.4,.3-.7,.3h-3.5c-.3,0-.5-.1-.6-.2-.1-.1-.3-.3-.4-.6-.4-1-.9-1.8-1.6-2.2-.6-.4-1.4-.7-2.4-.7-1.3,0-2.4,.4-3.1,1.3-.8,.8-1.2,2.1-1.2,3.8v2.7c.1,3.4,1.6,5.1,4.4,5.1,1,0,1.9-.2,2.5-.7,.6-.4,1.1-1.2,1.5-2.2,.1-.3,.3-.5,.4-.6,.2-.1,.4-.2,.6-.2h3.5c.3,0,.5,.1,.7,.3s.3,.4,.3,.7c-.1,.9-.4,1.9-1.1,2.9-.7,1-1.7,1.9-3.2,2.7-1.4,1-3.2,1.3-5.3,1.3Z"/><path d="M238.4,48.5c-1.3,0-2.6-.3-3.7-.8-1.1-.5-2-1.3-2.6-2.2s-.9-1.9-.9-3c0-1.8,.7-3.2,2.2-4.3,1.4-1.1,3.4-1.8,5.9-2.2l5.4-.8v-.8c0-1.1-.3-2-.9-2.6-.6-.6-1.5-.9-2.8-.9-.9,0-1.6,.2-2.1,.5s-.9,.6-1.3,.9c-.3,.3-.5,.6-.6,.7-.1,.3-.3,.5-.6,.5h-3c-.2,0-.4-.1-.6-.2-.2-.2-.2-.4-.2-.6,0-.7,.3-1.4,.9-2.2,.6-.8,1.6-1.6,2.9-2.2,1.3-.6,2.9-.9,4.7-.9,3.1,0,5.4,.7,6.8,2.1,1.4,1.4,2.1,3.2,2.1,5.4v12.3c0,.3-.1,.5-.3,.7s-.4,.3-.7,.3h-3.2c-.3,0-.5-.1-.7-.3s-.3-.4-.3-.7v-1.5c-.6,.8-1.4,1.5-2.5,2.1-1,.5-2.3,.7-3.9,.7Zm1.3-3.7c1.4,0,2.6-.5,3.5-1.4s1.4-2.3,1.4-4.1v-.8l-3.9,.6c-1.5,.2-2.7,.6-3.5,1.1s-1.1,1.2-1.1,1.9c0,.8,.4,1.5,1.1,2,.7,.5,1.5,.7,2.5,.7Z"/><path d="M253.7,55.6c-.3,0-.5-.1-.7-.3s-.3-.4-.3-.7V28.7c0-.3,.1-.5,.3-.7s.4-.3,.7-.3h3.1c.3,0,.5,.1,.7,.3,.2,.2,.3,.4,.3,.7v1.6c1.5-1.9,3.6-2.9,6.3-2.9s4.7,.8,6.1,2.5c1.4,1.6,2.2,3.9,2.3,6.7v2.8c-.1,2.7-.9,5-2.3,6.7s-3.5,2.5-6.1,2.5-4.7-.9-6.1-2.8v8.9c0,.3-.1,.5-.3,.7-.2,.2-.4,.3-.7,.3h-3.3v-.1Zm8.9-11.2c2.8,0,4.3-1.7,4.5-5.2v-2.4c-.2-3.5-1.7-5.2-4.5-5.2-1.5,0-2.7,.5-3.4,1.4-.7,1-1.1,2.2-1.2,3.6v3c.1,1.3,.5,2.4,1.2,3.4,.8,.9,2,1.4,3.4,1.4Z"/><path d="M285.3,48.5c-2.9,0-5.2-.8-7-2.5-1.7-1.7-2.6-4.1-2.7-7.1v-2c.1-3,1-5.3,2.8-7,1.7-1.7,4-2.5,6.9-2.5,3.1,0,5.5,.9,7.2,2.8,1.7,1.9,2.6,4.4,2.6,7.5v.8c0,.3-.1,.5-.3,.7-.2,.2-.4,.3-.7,.3h-13.1v.3c.1,1.4,.4,2.7,1.2,3.6,.8,1,1.8,1.4,3.1,1.4,1.5,0,2.8-.6,3.7-1.8,.2-.3,.4-.5,.6-.5,.2-.1,.4-.1,.7-.1h3.4c.2,0,.4,.1,.6,.2,.2,.1,.3,.3,.3,.5,0,.6-.4,1.4-1.1,2.2s-1.8,1.6-3.2,2.2c-1.6,.7-3.2,1-5,1Zm4.3-12.3v-.1c0-1.5-.4-2.8-1.2-3.7-.8-.9-1.8-1.4-3.2-1.4s-2.4,.5-3.2,1.4c-.8,.9-1.1,2.2-1.1,3.7v.1h8.7Z"/></svg>