<?xml version="1.0" encoding="utf-8"?>
<!-- Generator: Adobe Illustrator 21.1.0, SVG Export Plug-In . SVG Version: 6.00 Build 0)  -->
<svg version="1.1" id="Layer_1" xmlns="http://www.w3.org/2000/svg" xmlns:xlink="http://www.w3.org/1999/xlink" x="0px" y="0px"
	 viewBox="0 0 52.7 72.8" style="enable-background:new 0 0 52.7 72.8;" xml:space="preserve">
<style type="text/css">
	.st0{fill:#FFFFFF;}
	.st1{fill:none;}
	.st2{fill:#67CFE3;}
	.st3{fill:#DFCAA3;}
	.st4{fill:#231F20;}
	.st5{fill:#648C1A;}
</style>
<g>
	<path class="st0" d="M10.4,66.8c0,0.3-0.1,0.7-0.2,0.9c-0.3,0.6-0.9,1-1.7,1c-0.5,0-1-0.2-1.2-0.5C6.8,67.8,6.8,67,6.8,67l-0.3,0
		c0,0,0,0.9,0.5,1.5C7.4,68.9,7.9,69,8.5,69c1.2,0,1.7-0.6,2-1.1c0.2-0.3,0.3-0.7,0.3-1.1v-6.7h-0.3V66.8z"/>
	<path class="st0" d="M15.1,60.2L15.1,60.2c-0.1,0-0.2,0.1-0.2,0.1L12,68.9l0.4,0l0.8-2.5H17l0.8,2.5h0.4l-2.9-8.6
		C15.3,60.2,15.2,60.2,15.1,60.2z M13.4,66.1l1.7-5.3l1.8,5.3H13.4z"/>
	<polygon class="st0" points="19.8,68.9 24,68.9 24,68.6 20.2,68.6 20.2,64.7 23.8,64.7 23.8,64.3 20.2,64.3 20.2,60.4 24,60.4 
		24,60.1 19.8,60.1 	"/>
	<path class="st0" d="M31.1,62.5c0,0,0-1-0.6-1.7c-0.4-0.5-1.1-0.7-1.9-0.7c-0.8,0-1.5,0.2-1.9,0.7C26,61.5,26,62.4,26,62.5v4.3
		c0,0.5,0.1,1,0.4,1.4c0.3,0.5,1,1,2.1,1c0.4,0,0.7,0,1.1-0.1c0.9-0.2,1.5-1,1.5-1.9V65h-2.2v0.3h1.9v1.8c0,0.8-0.5,1.4-1.2,1.6
		c-0.3,0.1-0.6,0.1-1,0.1c-0.8,0-1.5-0.3-1.9-0.9c-0.2-0.3-0.4-0.8-0.4-1.2l0-4.3c0,0,0-0.8,0.5-1.4c0.4-0.4,0.9-0.6,1.7-0.6
		c0.7,0,1.3,0.2,1.7,0.6c0.6,0.6,0.5,1.4,0.5,1.4L31.1,62.5z"/>
	<polygon class="st0" points="33.4,68.9 37.7,68.9 37.7,68.6 33.8,68.6 33.8,64.7 37.3,64.7 37.3,64.3 33.8,64.3 33.8,60.4 
		37.7,60.4 37.7,60.1 33.4,60.1 	"/>
	<path class="st0" d="M44.8,68.9l-1.9-3.8c0.4-0.1,0.7-0.3,0.9-0.5c0.4-0.4,0.6-0.9,0.6-1.6c0-1.7-0.9-2.5-1.4-2.7
		c-0.2-0.1-0.5-0.2-0.8-0.2h-2.5v8.8h0.3v-3.6c0.1,0,0.3,0,0.4,0c0.7,0,1.4,0,2-0.1l1.8,3.7H44.8z M40.5,65c-0.2,0-0.3,0-0.5,0v-4.5
		h2.2c0.2,0,0.4,0,0.6,0.1c0.5,0.2,1.2,1,1.2,2.4c0,0.6-0.2,1.1-0.5,1.4C43,65,41.7,65,40.5,65z"/>
</g>
<g>
	<g>
		<path class="st1" d="M31.6,24c-0.7-0.4-1.6-0.7-2.5-0.7c-2.7,0-4.9,2.2-4.9,4.9c0,1.8,0.9,3.3,2.3,4.1c0.7,0.4,1.6,0.7,2.5,0.7
			c2.7,0,4.9-2.2,4.9-4.9C33.9,26.4,33,24.9,31.6,24z"/>
		<path class="st1" d="M18.9,31.7c0-1.8-0.9-3.3-2.3-4.1c-0.7-0.4-1.6-0.7-2.5-0.7c-2.7,0-4.9,2.2-4.9,4.9c0,1.8,0.9,3.3,2.3,4.1
			c0.7,0.4,1.6,0.7,2.5,0.7C16.7,36.5,18.9,34.3,18.9,31.7z"/>
		<path class="st2" d="M20.5,41.2c0.3,0.5,0.7,1,1.1,1c0.1,0,0.2,0,0.3-0.1c0.5-0.2,0.5-1,0.4-1.8C21.6,40.5,21,40.9,20.5,41.2z"/>
		<path class="st2" d="M43.7,43.8C43.7,43.8,43.7,43.8,43.7,43.8c-0.2-1.5-0.8-2.1-1.3-2.7c-0.5-0.5-1-1-0.8-1.9
			c0.1-0.8,0.8-1.4,1.9-1.5c-0.7-4.5-1.6-10.2-2.9-15c-0.6-2.4-1.6-4.1-2.9-5.2c-1.5,0.8-3.3,1.6-5.4,2.5c-1.5,0.6-3,1.3-4.4,1.8
			c-1.2,1.3-2.4,2.5-3.2,2.8C24,24.9,23.5,25,23,25c-0.9,0-1.6-0.5-1.9-0.9c-0.4,0.1-0.6,0.2-0.8,0.2c-0.2,0-0.6,0.1-1,0.1
			c0.2,0.4,0.1,0.9-0.2,1.3c-0.3,0.4-0.9,0.6-1.7,0.6c-1.1,0-2.7-0.4-4.9-1.3c-0.3-0.1-0.6-0.2-0.9-0.3c-0.2,0-0.3,0-0.5,0
			c0,0,0,0,0,0c-2,0-3.6-0.1-4.9-0.2c-1.4,2.8-0.8,6-0.3,8.6c0.5,2.5,2.1,6.9,3.7,10.7c0.6,1.4,1.1,2.7,1.6,3.9
			c4.2,0.4,9.6,0.6,15.4,0.6c7,0,13.2-0.3,17.7-0.8C44.2,46.1,43.8,44.3,43.7,43.8z M11.5,35.8c-1.4-0.9-2.3-2.4-2.3-4.1
			c0-2.7,2.2-4.9,4.9-4.9c0.9,0,1.8,0.3,2.5,0.7c1.4,0.9,2.3,2.4,2.3,4.1c0,2.7-2.2,4.9-4.9,4.9C13.1,36.5,12.2,36.3,11.5,35.8z
			 M28.4,39.8c-0.5,0.2-1.2,0.3-2.4,0.3c0,0.1,0,0.2,0,0.3c0,0.7-0.1,1.2-0.5,1.6c-0.3,0.3-0.8,0.5-1.3,0.5c-0.2,0-0.5,0-0.7-0.1
			c-0.2-0.1-0.4-0.2-0.5-0.4c-0.2,0.4-0.4,0.7-0.8,0.9C22,43,21.8,43,21.6,43c-0.7,0-1.3-0.5-1.8-1.4c-0.1,0-0.1,0.1-0.2,0.1
			c-0.3,0.2-0.8,0.3-1.2,0.3c-0.9,0-1.6-0.3-2.1-0.9c-0.4-0.5-0.6-1-0.5-1.6c0.3-1.9,2.7-2.6,3-2.7l0.6-0.2l0.4,0.5
			c0,0.1,0.3,0.3,1.4,0.3c0.4,0,0.9,0,1.4-0.1c1.7-0.3,2.3-1.6,2.4-1.7L25,35l0.6,0c3.7,0,4.2,1.6,4.3,2.1
			C30.1,38.3,29.6,39.3,28.4,39.8z M29,33c-0.9,0-1.8-0.3-2.5-0.7c-1.4-0.9-2.3-2.4-2.3-4.1c0-2.7,2.2-4.9,4.9-4.9
			c0.9,0,1.8,0.3,2.5,0.7c1.4,0.9,2.3,2.4,2.3,4.1C33.9,30.8,31.7,33,29,33z"/>
		<path class="st2" d="M25.6,36c0,0-0.8,1.9-3.1,2.2c-0.6,0.1-1.1,0.1-1.5,0.1c-1.2,0-1.8-0.3-2.1-0.7c0,0-2.2,0.6-2.3,1.9
			c-0.1,1,0.8,1.5,1.7,1.5c0.3,0,0.6-0.1,0.8-0.2c0.9-0.5,2.2-1.5,3.9-1.7c0.2,0,0.4,0,0.6,0c0.6,0,1.4,0,2.2,0c0.9,0,1.7,0,2.2-0.3
			c1.1-0.5,1.1-1.3,1-1.7C29,36.9,28.3,36,25.6,36z"/>
		<path class="st2" d="M25.2,40.1c-0.2,0-0.4,0-0.6,0c-0.3,0-0.6,0-0.9,0c-0.2,0-0.4,0-0.5,0c0.2,0.7,0.5,1.4,0.7,1.5
			c0.1,0,0.2,0.1,0.4,0.1c0.4,0,1-0.2,0.9-1.2C25.2,40.4,25.2,40.3,25.2,40.1z"/>
	</g>
	<path class="st1" d="M6.4,20.1c0,0,0-0.1-0.1-0.3c0-0.2-0.1-0.4-0.1-0.7c0-0.1,0-0.3-0.1-0.5c0-0.2,0-0.3,0-0.4
		c0-0.1,0-0.1,0.1-0.1c0,0,0,0,0.1,0l0,0l0,0c0,0,0,0,0,0c0,0,0,0,0,0c0,0,0,0,0,0l0,0c0,0,0,0,0,0c0,0,0.1,0,0.1,0.1
		c0.1,0.1,0.2,0.2,0.4,0.4c0.1,0.1,0.2,0.3,0.3,0.4c0.2,0.3,0.4,0.6,0.6,0.8C8,20,8.1,20.2,8.2,20.3c0.1,0.1,0.2,0.2,0.2,0.2
		s0,0,0-0.1c0,0,0-0.1,0-0.2c0-0.2-0.1-0.4-0.2-0.7c-0.1-0.3-0.2-0.6-0.4-1c-0.1-0.2-0.2-0.4-0.3-0.5c-0.1-0.2-0.3-0.3-0.5-0.5
		c-0.1-0.1-0.2-0.1-0.4-0.2c0,0-0.1,0-0.1,0l0,0l0,0c0,0-0.1,0-0.1,0c0,0-0.1,0-0.1,0l0,0l0,0l0,0l0,0l0,0c-0.1,0.1-0.3,0.2-0.4,0.3
		c-0.1,0.1-0.1,0.3-0.1,0.4c0,0.3,0,0.5,0.1,0.6c0.1,0.2,0.1,0.3,0.2,0.5c0.1,0.3,0.3,0.5,0.4,0.6C6.2,19.9,6.3,20,6.4,20.1
		C6.4,20.1,6.4,20.1,6.4,20.1z"/>
	<path class="st1" d="M35.3,11.8L35.3,11.8l-0.1-0.1c0-0.1-0.2-0.2-0.2-0.2l0,0l0,0l0,0l0,0l0,0l0,0l-0.1,0c-0.1,0-0.1,0-0.2,0
		c-0.1,0-0.1,0-0.2,0c-0.1,0-0.2,0-0.2,0c-0.3,0.1-0.6,0.2-0.8,0.4c-0.2,0.2-0.4,0.4-0.5,0.6c-0.2,0.4-0.4,0.8-0.5,1.1
		c-0.1,0.3-0.1,0.6-0.1,0.8c0,0.1,0,0.2,0,0.2c0,0.1,0,0.1,0,0.1s0.1-0.1,0.2-0.3c0.1-0.2,0.2-0.4,0.4-0.7c0.2-0.3,0.4-0.6,0.6-0.9
		c0.1-0.1,0.3-0.3,0.4-0.4c0.1-0.1,0.3-0.2,0.4-0.2c0,0,0.1,0,0.1,0c0,0,0.1,0,0.1,0c0,0,0.1,0,0.1,0l0.1,0l0,0c0,0,0,0,0,0
		c0,0,0,0,0,0c0,0,0,0,0,0l0,0l0,0l0,0c0,0,0,0,0,0c0,0,0,0,0,0c0,0,0,0.1,0,0.2c0,0.2,0,0.3,0,0.5c0,0.2-0.1,0.4-0.1,0.5
		c-0.1,0.3-0.1,0.6-0.2,0.8c0,0.2-0.1,0.3-0.1,0.3s0.1-0.1,0.2-0.2c0.1-0.2,0.3-0.4,0.5-0.7c0.1-0.2,0.2-0.3,0.2-0.5
		c0.1-0.2,0.1-0.4,0.2-0.7c0-0.1,0-0.3-0.1-0.4C35.3,11.9,35.3,11.9,35.3,11.8z"/>
	<path class="st1" d="M9.2,31.7c0-2.7,2.2-4.9,4.9-4.9c0.9,0,1.8,0.3,2.5,0.7c-0.7-0.4-1.6-0.7-2.5-0.7C11.3,26.8,9.2,29,9.2,31.7
		c0,1.8,0.9,3.3,2.3,4.1C10.1,35,9.2,33.4,9.2,31.7z"/>
	<path class="st1" d="M26.5,32.3c-1.4-0.9-2.3-2.4-2.3-4.1c0-2.7,2.2-4.9,4.9-4.9c0.9,0,1.8,0.3,2.5,0.7c-0.7-0.4-1.6-0.7-2.5-0.7
		c-2.7,0-4.9,2.2-4.9,4.9C24.2,29.9,25.1,31.5,26.5,32.3z"/>
	<path class="st0" d="M13.8,52.8c-0.8,0.2-3.3,1.5-5.4,1.9s-3.9,0.6-4.6,0.9c-0.6,0.2-1.1,0.7,0.1,1.2c1.3,0.5,7.4,0.6,7.9,0
		c0.5-0.6-0.4-0.9-1.7-0.9c-0.9,0-0.8-0.3-0.8-0.4c0,0,0.1-0.4,1.5-0.6c1.5-0.2,7.9-0.8,7.8-1.5C18.5,52.7,14.6,52.6,13.8,52.8z"/>
	<ellipse transform="matrix(0.9771 -0.2126 0.2126 0.9771 -12.0909 3.3652)" class="st0" cx="9.6" cy="57.9" rx="1.3" ry="0.4"/>
	
		<ellipse transform="matrix(0.9968 -7.936001e-02 7.936001e-02 0.9968 -4.5602 0.7118)" class="st0" cx="6.7" cy="57.7" rx="1.3" ry="0.4"/>
	<ellipse transform="matrix(0.9909 -0.135 0.135 0.9909 -7.7115 1.1109)" class="st0" cx="4.3" cy="57.4" rx="0.9" ry="0.3"/>
	<ellipse transform="matrix(0.9896 -0.1437 0.1437 0.9896 -8.187 0.9686)" class="st0" cx="2.6" cy="57.2" rx="0.9" ry="0.2"/>
	<ellipse transform="matrix(0.9896 -0.1437 0.1437 0.9896 -8.1212 0.9073)" class="st0" cx="2.2" cy="56.7" rx="0.9" ry="0.2"/>
	<ellipse transform="matrix(0.9896 -0.1437 0.1437 0.9896 -8.0444 0.8871)" class="st0" cx="2.1" cy="56.1" rx="0.7" ry="0.2"/>
	<path class="st0" d="M26.4,53.5c-1.4,0.1-4.7-0.1-5.2,0.7c-0.5,0.8,1.3,1,4.1,0.8c2.8-0.2,6.8-0.5,6.9-1.4c0.2-0.9-0.7-0.7-0.8-1.2
		c-0.1-0.5,1-0.5,1.2-1.4c0.2-0.8-1.5-0.7-3-0.7c-1.5,0-4,0.1-4.2,0.9c-0.2,0.8,1.1,0.8,2.1,1c1,0.2,0.7,0.5,0.7,0.5
		C28.3,53.2,27.9,53.4,26.4,53.5z"/>
	<ellipse class="st0" cx="22.6" cy="55.6" rx="1.3" ry="0.4"/>
	<ellipse class="st0" cx="25.8" cy="55.5" rx="0.8" ry="0.4"/>
	<ellipse class="st0" cx="28.4" cy="55.2" rx="0.9" ry="0.3"/>
	<ellipse class="st0" cx="30.4" cy="54.9" rx="0.7" ry="0.3"/>
	<ellipse class="st0" cx="32.2" cy="54.5" rx="0.7" ry="0.3"/>
	<path class="st0" d="M2.7,45.8c0,0.4,0.9,0.8,2.4,1.1c-0.1-0.8,0-1.6,0.1-2.3C3.6,45,2.7,45.3,2.7,45.8z"/>
	<path class="st0" d="M48.9,44.7c0,0.1,0,0.1-0.1,0.2c-0.2,0.5-0.5,0.8-0.8,1.2c-0.7,0.7-1.3,1.1-1.9,1.2c3.1-0.4,4.9-1,4.9-1.5
		C51,45.4,50.2,45,48.9,44.7z"/>
	<path class="st3" d="M8,49c1.1,0,1.9-0.6,2.5-1.4c-0.6-1.5-1.7-4-2.7-6.6c-0.3,0.2-0.6,0.6-0.9,1.1c-0.8,1.3-1.5,4.4-0.7,6
		C6.6,48.7,7.2,49,8,49z"/>
	<path class="st3" d="M48.2,41.5c-0.7-1.7-2.1-2.9-3.4-3l0,0c0,0-0.3,0-0.6,0c-0.7,0-1.7,0.2-1.8,0.9c-0.1,0.5,0.1,0.8,0.6,1.3
		c0.6,0.6,1.3,1.4,1.5,3c0.3,1.9,0.7,2.9,1.4,2.9h0c0.3,0,0.9-0.2,1.8-1.1C48.7,44.4,48.6,42.7,48.2,41.5z"/>
	<path class="st0" d="M24.2,28.2c0,1.8,0.9,3.3,2.3,4.1c0.7,0.4,1.6,0.7,2.5,0.7c2.7,0,4.9-2.2,4.9-4.9c0-1.8-0.9-3.3-2.3-4.1
		c-0.7-0.4-1.6-0.7-2.5-0.7C26.4,23.3,24.2,25.5,24.2,28.2z M29.9,29.8c0,0.8-0.7,1.5-1.5,1.5c-0.8,0-1.5-0.7-1.5-1.5
		c0-0.8,0.7-1.5,1.5-1.5C29.2,28.3,29.9,28.9,29.9,29.8z"/>
	<path class="st0" d="M9.2,31.7c0,1.8,0.9,3.3,2.3,4.1c0.7,0.4,1.6,0.7,2.5,0.7c2.7,0,4.9-2.2,4.9-4.9c0-1.8-0.9-3.3-2.3-4.1
		c-0.7-0.4-1.6-0.7-2.5-0.7C11.3,26.8,9.2,29,9.2,31.7z M15.1,33.4c0,0.8-0.7,1.5-1.5,1.5c-0.8,0-1.5-0.7-1.5-1.5
		c0-0.8,0.7-1.5,1.5-1.5C14.4,31.8,15.1,32.5,15.1,33.4z"/>
	<circle class="st4" cx="13.6" cy="33.4" r="1.5"/>
	<circle class="st4" cx="28.4" cy="29.8" r="1.5"/>
	<path class="st5" d="M9.4,23.9c-0.2,0-0.3,0-0.3,0c-0.6,0-1.2-0.4-1.4-1.1c0-0.1,0-0.1,0-0.2c-0.4,0.2-0.7,0.4-1,0.6l-0.6,0.4
		l-0.4-0.6c-0.1-0.2-0.7-1-1.3-2c-1,0.5-1.8,1-2,1.5c0,0.1,0,0.1,0,0.2C2.5,23,3.5,23.8,9.4,23.9z"/>
	<path class="st5" d="M37.1,14.3c-0.2,1.2-0.6,2.4-0.8,2.8L36,17.4c1.1-0.5,2-1,2.8-1.4c2.8-1.6,3.1-2.2,3.2-2.4c0-0.1,0-0.1,0-0.2
		c0,0-0.2-0.2-1.1-0.2c-1,0-2.3,0.2-3.7,0.5C37.2,13.9,37.1,14.1,37.1,14.3z"/>
	<path class="st5" d="M36,17.4l-0.4,0c0,0-0.7-0.1-1.7-0.1c-1,0-2.4,0.1-3.5,0.3c0.2,0.4,0.2,1-0.2,1.4c-0.3,0.3-0.7,0.9-1.3,1.5
		c1-0.4,2-0.8,3-1.3C33.4,18.7,34.8,18,36,17.4z"/>
	<path class="st5" d="M9.4,16.3c1.2,0.3,2.5,0.5,4,0.5c5.7,0,12-2.5,14.4-3.5l0.2-0.1c0-0.4,0-0.8,0.1-1.2c0.2-0.7,0.5-1.3,0.8-1.7
		c-0.1-0.3-0.1-0.5-0.2-0.6c-0.8-0.4-7.5-2.9-11-2.9c-0.3,0-0.7,0-0.9,0.1c-3.1,0.6-7.8,6-8,6.8c-0.1,0.3,0,1.4,0,2.5L9.4,16.3z"/>
	<path class="st5" d="M21.5,22.3c0.5-0.3,1.2-0.2,1.6,0.2c0.1,0,0.2,0,0.3-0.1c0.6-0.3,3-2.8,4.7-4.9c0.1-0.1,0.1-0.1,0.2-0.2
		c-4,1.7-9.6,3.6-15,3.6c-0.9,0-1.7-0.1-2.4-0.1l0.1,0.3l-0.7,0.3c0,0-0.1,0-0.3,0.1c0.9,0.2,2,0.6,3.5,1.2c2.7,1.1,3.7,1.1,4,1.1
		c0.4-0.2,0.8-0.2,1.2,0c0.7,0,1.2-0.1,1.6-0.1c0.1,0,0.4-0.1,0.6-0.1C20.9,23,21.1,22.5,21.5,22.3z"/>
	<path class="st3" d="M28.2,13.9C28.1,14,28,14,27.9,14c0,0,0,0-0.1,0c-0.1,0-0.2,0.1-0.3,0.1c0,0,0,0,0,0c-0.1,0-0.2,0.1-0.2,0.1
		c0,0,0,0,0,0c-0.1,0-0.2,0.1-0.3,0.1c0,0,0,0-0.1,0c-0.1,0-0.2,0.1-0.3,0.1c0,0,0,0,0,0c-0.1,0-0.2,0.1-0.3,0.1c0,0,0,0-0.1,0
		c-0.1,0-0.2,0.1-0.3,0.1c0,0,0,0,0,0c-0.1,0-0.2,0.1-0.3,0.1c0,0,0,0-0.1,0c-0.1,0-0.2,0.1-0.4,0.1c0,0,0,0-0.1,0
		c-0.1,0-0.2,0.1-0.4,0.1c0,0,0,0,0,0c-0.1,0-0.3,0.1-0.4,0.1c0,0-0.1,0-0.1,0c-0.1,0-0.3,0.1-0.4,0.1c0,0,0,0-0.1,0
		c-0.1,0-0.2,0.1-0.4,0.1c0,0,0,0-0.1,0c-0.1,0-0.3,0.1-0.4,0.1c0,0-0.1,0-0.1,0c-0.1,0-0.3,0.1-0.4,0.1c0,0,0,0,0,0
		c-0.1,0-0.3,0.1-0.4,0.1c0,0-0.1,0-0.1,0c-0.1,0-0.3,0.1-0.4,0.1c0,0,0,0-0.1,0c-0.1,0-0.3,0.1-0.4,0.1c0,0-0.1,0-0.1,0
		c-0.1,0-0.3,0.1-0.4,0.1c0,0-0.1,0-0.1,0c-0.1,0-0.3,0.1-0.4,0.1c0,0,0,0,0,0c-0.2,0-0.3,0.1-0.5,0.1c0,0-0.1,0-0.1,0
		c-0.2,0-0.3,0.1-0.5,0.1c0,0,0,0-0.1,0c-0.1,0-0.3,0.1-0.4,0.1c0,0-0.1,0-0.1,0c-0.2,0-0.3,0.1-0.5,0.1c0,0-0.1,0-0.1,0
		c-0.1,0-0.3,0-0.4,0.1c0,0,0,0,0,0c-0.2,0-0.3,0-0.5,0.1c0,0-0.1,0-0.1,0c-0.2,0-0.3,0-0.5,0.1c0,0,0,0,0,0c-0.1,0-0.3,0-0.4,0
		c0,0-0.1,0-0.1,0c-0.2,0-0.3,0-0.5,0c0,0-0.1,0-0.1,0c-0.1,0-0.3,0-0.4,0c0,0,0,0-0.1,0c-0.2,0-0.3,0-0.5,0c0,0-0.1,0-0.1,0
		c-0.2,0-0.3,0-0.5,0c0,0,0,0,0,0c0,0,0,0,0,0c-0.2,0-0.3,0-0.5,0c0,0-0.1,0-0.1,0c-0.2,0-0.3,0-0.5,0c0,0-0.1,0-0.1,0
		c-0.1,0-0.3,0-0.4,0c0,0,0,0,0,0c-0.2,0-0.3,0-0.5,0c0,0-0.1,0-0.1,0c-0.2,0-0.3,0-0.5-0.1c0,0,0,0-0.1,0c-0.1,0-0.3,0-0.4-0.1
		c0,0-0.1,0-0.1,0c-0.1,0-0.3-0.1-0.4-0.1c0,0-0.1,0-0.1,0c-0.2,0-0.3-0.1-0.5-0.1l0,0c0.1,0.2,0.3,0.4,0.4,0.7
		c0.5,0.9,0.9,1.7,1.1,2.2c0.1,0,0.2,0,0.3,0c0,0,0.1,0,0.1,0c0.1,0,0.1,0,0.2,0c0,0,0.1,0,0.1,0c0.1,0,0.1,0,0.2,0c0,0,0.1,0,0.1,0
		c0.1,0,0.1,0,0.2,0c0,0,0.1,0,0.1,0c0.1,0,0.1,0,0.2,0c0.1,0,0.1,0,0.2,0c0.1,0,0.1,0,0.2,0c0.1,0,0.1,0,0.2,0c0.1,0,0.1,0,0.2,0
		c0.1,0,0.1,0,0.2,0c0.1,0,0.1,0,0.2,0c0,0,0,0,0,0c0.1,0,0.2,0,0.3,0c0,0,0.1,0,0.1,0c0.1,0,0.2,0,0.3,0c0,0,0.1,0,0.1,0
		c0.1,0,0.2,0,0.3,0c0,0,0.1,0,0.1,0c0.1,0,0.3,0,0.4,0c0,0,0.1,0,0.1,0c0.1,0,0.2,0,0.3,0c0,0,0.1,0,0.1,0c0.1,0,0.3,0,0.4,0
		c0,0,0.1,0,0.1,0c0.2,0,0.3,0,0.5-0.1c0,0,0.1,0,0.1,0c0.1,0,0.3,0,0.4-0.1c0.1,0,0.1,0,0.2,0c0.1,0,0.3,0,0.4-0.1c0,0,0.1,0,0.1,0
		c0.2,0,0.4-0.1,0.5-0.1c0,0,0.1,0,0.1,0c0.1,0,0.3-0.1,0.4-0.1c0.1,0,0.1,0,0.2,0c0.2,0,0.3-0.1,0.5-0.1c0,0,0.1,0,0.1,0
		c0.2,0,0.4-0.1,0.6-0.1c0.1,0,0.1,0,0.2,0c0.2,0,0.3-0.1,0.5-0.1c0.1,0,0.1,0,0.2,0c0.2,0,0.4-0.1,0.6-0.2c0,0,0,0,0.1,0
		c0.2-0.1,0.4-0.1,0.6-0.2c0.1,0,0.1,0,0.2-0.1c0.2,0,0.3-0.1,0.5-0.2c0.1,0,0.1,0,0.2-0.1c0.2-0.1,0.4-0.1,0.6-0.2c0,0,0,0,0.1,0
		c0.2-0.1,0.5-0.2,0.7-0.2c0.1,0,0.1,0,0.2-0.1c0.2-0.1,0.4-0.1,0.5-0.2c0.1,0,0.1-0.1,0.2-0.1c0.2-0.1,0.5-0.2,0.7-0.3c0,0,0,0,0,0
		c0.2-0.1,0.5-0.2,0.7-0.3c0.1,0,0.1-0.1,0.2-0.1c0.2-0.1,0.4-0.2,0.6-0.2c0.1,0,0.2-0.1,0.2-0.1c0.3-0.1,0.5-0.2,0.8-0.3
		c0.1-0.3,0.3-0.8,0.4-1.3c0,0,0,0,0,0c-0.1,0-0.2,0-0.2,0C28.7,14.8,28.3,14.5,28.2,13.9z"/>
	<path class="st5" d="M13.5,17.5C13.4,17.5,13.4,17.5,13.5,17.5C13.4,17.5,13.4,17.5,13.5,17.5C13.4,17.5,13.4,17.5,13.5,17.5z"/>
	<polygon class="st2" points="6.1,15.1 6.1,15.1 6.1,15.5 	"/>
	<path class="st3" d="M30.2,9.8c0.5,0.1,0.8,0.5,1,1.1c0,0.1,0,0.2,0.1,0.3c1-1.5,2.2-2.2,3.4-2.2c0.5,0,1,0.1,1.3,0.4
		C36.6,8.6,37,8,37,8c-0.5,0.1-1.5,0.2-1.5,0.2C39.3,6.8,39,3,39,3c0,0.7-2,2.2-2,2.2C37.1,4.7,36.8,4,36.8,4
		c0.1,0.7-2.3,2.7-2.3,2.7c0.2-0.3,0-1,0-1c-0.1,0.7-1.2,1-1.2,1c0.7-0.8,1.9-4.9,1-5.2c-0.9-0.3-2.2,2.7-2.2,2.7
		c0-0.7-0.4-0.7-0.4-0.7c0.2,2.2-1.6,3.9-1.6,3.9c-0.1-0.4-0.8-0.7-0.8-0.7c0.2,0.4,0.1,1.6,0,2.5c0,0.3-0.1,0.6-0.1,0.8
		c0.2-0.2,0.5-0.3,0.7-0.3C30.1,9.8,30.1,9.8,30.2,9.8z"/>
	<path class="st0" d="M29.2,14.2c0.1,0,0.3,0,0.5-0.2c0.1-0.3,0.2-0.5,0.4-0.8c0.1-0.3,0.2-0.5,0.4-0.7c0.1-0.5,0.1-1,0-1.3
		c-0.1-0.3-0.2-0.5-0.4-0.6c0,0,0,0-0.1,0c-0.4,0-0.9,0.7-1.1,1.6c-0.1,0.5-0.1,1,0,1.4C28.9,13.9,29.1,14.1,29.2,14.2z"/>
	<polygon class="st2" points="34.7,12.2 34.7,12.2 34.7,12.2 34.7,12.2 34.7,12.2 34.7,12.2 	"/>
	<path class="st2" d="M34.6,9.7c-2.9,0-4.8,6-5.2,7.2c0.1,0,0.2,0.1,0.3,0.1c1.3-0.4,2.9-0.5,4.1-0.5c1,0,1.8,0.1,1.8,0.1
		C36,16.2,37.9,9.7,34.6,9.7z M35.4,12.4c0,0.3-0.1,0.5-0.2,0.7c-0.1,0.2-0.2,0.4-0.2,0.5c-0.2,0.3-0.3,0.5-0.5,0.7
		c-0.1,0.2-0.2,0.2-0.2,0.2s0-0.1,0.1-0.3c0-0.2,0.1-0.5,0.2-0.8c0-0.2,0.1-0.3,0.1-0.5c0-0.2,0-0.4,0-0.5c0-0.1,0-0.1,0-0.2
		c0,0,0,0,0,0c0,0,0,0,0,0c0,0,0,0,0,0l0,0l-0.1,0c0,0-0.1,0-0.1,0c0,0-0.1,0-0.1,0c0,0-0.1,0-0.1,0c-0.1,0-0.3,0.1-0.4,0.2
		c-0.1,0.1-0.3,0.2-0.4,0.4c-0.2,0.3-0.4,0.6-0.6,0.9c-0.2,0.3-0.3,0.5-0.4,0.7c-0.1,0.2-0.2,0.3-0.2,0.3s0,0,0-0.1
		c0-0.1,0-0.1,0-0.2c0-0.2,0.1-0.5,0.1-0.8c0.1-0.3,0.2-0.7,0.5-1.1c0.1-0.2,0.3-0.4,0.5-0.6c0.2-0.2,0.5-0.3,0.8-0.4
		c0.1,0,0.1,0,0.2,0c0.1,0,0.1,0,0.2,0c0.1,0,0.1,0,0.2,0l0.1,0l0,0l0,0l0,0l0,0l0,0l0,0c0,0,0.2,0.1,0.2,0.2l0,0.1l0,0.1
		c0,0,0,0.1,0.1,0.1C35.4,12.1,35.4,12.3,35.4,12.4z"/>
	<ellipse transform="matrix(0.3683 -0.9297 0.9297 0.3683 10.5704 39.9053)" class="st2" cx="34.6" cy="12.2" rx="0" ry="0"/>
	<polygon class="st0" points="34.7,12.2 34.6,12.2 34.7,12.2 34.7,12.2 34.7,12.2 	"/>
	<path class="st0" d="M23.1,24.2c0.4,0,0.7-0.1,1.2-0.3c0.9-0.4,3-2.5,5.4-5.4c0.1-0.1,0.1-0.2,0.1-0.4c0-0.1-0.1-0.3-0.2-0.3
		c-0.1-0.1-0.2-0.1-0.3-0.1c-0.2,0-0.3,0.1-0.4,0.2c-1,1.3-4,4.6-5,5.1l0,0c-0.2,0.1-0.4,0.1-0.5,0.2l-0.4,0.1L22.6,23
		c-0.1-0.1-0.2-0.1-0.4-0.1c-0.1,0-0.2,0-0.3,0.1c-0.1,0.1-0.2,0.2-0.2,0.3c0,0.1,0,0.3,0.1,0.4C21.8,23.7,22.2,24.2,23.1,24.2z"/>
	<path class="st0" d="M18.2,24.4c-0.1,0-0.2,0-0.2,0.1l-0.2,0.1l-0.2,0c0,0-0.1,0-0.1,0c-0.5,0-1.7-0.2-4.2-1.2
		c-2.8-1.1-3.9-1.3-4.3-1.3c-0.1,0-0.1,0-0.1,0c-0.1,0-0.3,0.1-0.3,0.2c-0.1,0.1-0.1,0.2-0.1,0.4c0,0.2,0.3,0.4,0.5,0.4c0,0,0,0,0,0
		l0.1,0l0.1,0c0.3,0,1.3,0.2,3.8,1.2c2,0.8,3.6,1.2,4.6,1.2c0.5,0,0.9-0.1,1.1-0.3c0.1-0.1,0.1-0.2,0.1-0.4c0-0.1-0.1-0.3-0.2-0.3
		C18.4,24.4,18.3,24.4,18.2,24.4z"/>
	<path class="st2" d="M10.2,20.6c0,0-1.7-5.1-4.1-5.1c-0.3,0-0.6,0.1-0.9,0.3c-2.8,1.7,1.1,6.9,1.1,6.9
		C7.9,21.5,10.2,20.6,10.2,20.6z M5.8,19.2c-0.1-0.1-0.1-0.3-0.2-0.5c-0.1-0.2-0.1-0.4-0.1-0.6c0-0.1,0-0.3,0.1-0.4
		c0.1-0.1,0.2-0.3,0.4-0.3l0,0l0,0l0,0l0,0l0,0c0,0,0.1,0,0.1,0c0,0,0.1,0,0.1,0l0,0l0,0c0,0,0.1,0,0.1,0c0.2,0,0.3,0.1,0.4,0.2
		c0.2,0.2,0.4,0.3,0.5,0.5c0.1,0.2,0.2,0.4,0.3,0.5c0.2,0.4,0.3,0.7,0.4,1c0.1,0.3,0.2,0.6,0.2,0.7c0,0.1,0,0.2,0,0.2
		c0,0,0,0.1,0,0.1s-0.1-0.1-0.2-0.2C8.1,20.2,8,20,7.8,19.7c-0.2-0.2-0.4-0.5-0.6-0.8c-0.1-0.1-0.2-0.3-0.3-0.4
		c-0.1-0.1-0.2-0.3-0.4-0.4c-0.1,0-0.1-0.1-0.1-0.1c0,0,0,0,0,0l0,0c0,0,0,0,0,0c0,0,0,0,0,0c0,0,0,0,0,0l0,0l0,0c0,0,0,0-0.1,0
		c0,0,0,0.1-0.1,0.1c0,0.1,0,0.3,0,0.4c0,0.2,0,0.3,0.1,0.5c0,0.3,0.1,0.5,0.1,0.7c0,0.2,0.1,0.3,0.1,0.3s0,0-0.1-0.1
		c0,0-0.1-0.1-0.1-0.2C6.1,19.7,5.9,19.5,5.8,19.2z"/>
	<path class="st4" d="M22.3,36.5C22.3,36.5,22.4,36.5,22.3,36.5c0.1,0,0.1,0,0.2,0c1.2-0.3,2.2-1,2.2-1.7c0-0.1,0-0.1,0-0.2
		c0-0.1,0-0.2-0.1-0.3c0,0,0-0.1-0.1-0.1c0,0,0,0,0,0c0,0,0,0,0,0c0,0-0.1-0.1-0.1-0.1c0,0,0,0,0,0c0,0,0,0,0,0c0,0-0.1-0.1-0.1-0.1
		c0,0,0,0,0,0c-0.2-0.1-0.3-0.2-0.6-0.3c0,0,0,0,0,0c0,0-0.1,0-0.1,0c0,0,0,0,0,0c0,0-0.1,0-0.1,0c0,0,0,0-0.1,0c0,0-0.1,0-0.1,0
		c0,0-0.1,0-0.1,0c0,0-0.1,0-0.1,0c0,0-0.1,0-0.1,0c0,0-0.1,0-0.1,0c0,0-0.1,0-0.1,0c0,0-0.1,0-0.1,0c0,0-0.1,0-0.1,0
		c0,0-0.1,0-0.1,0c0,0-0.1,0-0.1,0c0,0,0,0-0.1,0c-0.1,0-0.1,0-0.2,0c-0.1,0-0.1,0-0.2,0c-0.1,0-0.1,0-0.2,0c0,0,0,0,0,0
		c-0.1,0-0.1,0-0.2,0c0,0,0,0,0,0c-0.1,0-0.1,0-0.2,0c0,0,0,0,0,0c-0.1,0-0.1,0-0.2,0.1c0,0,0,0,0,0c-0.1,0-0.1,0-0.2,0.1
		c0,0,0,0,0,0c-0.1,0-0.2,0.1-0.3,0.1c0,0,0,0,0,0c0,0-0.1,0-0.1,0.1c0,0,0,0,0,0l0,0c0,0-0.1,0-0.1,0.1c0,0,0,0,0,0
		c0,0-0.1,0-0.1,0.1c0,0,0,0,0,0c0,0-0.1,0-0.1,0.1c0,0,0,0,0,0c-0.1,0-0.1,0.1-0.2,0.2c0,0,0,0,0,0c0,0,0,0-0.1,0.1c0,0,0,0,0,0
		c0,0,0,0-0.1,0.1c0,0,0,0,0,0c0,0,0,0.1-0.1,0.1c0,0,0,0,0,0c0,0,0,0.1-0.1,0.1c0,0,0,0,0,0c0,0,0,0,0,0.1c0,0,0,0,0,0
		c0,0,0,0,0,0.1c0,0,0,0,0,0c0,0,0,0.1,0,0.1c0,0,0,0,0,0c0,0,0,0.1,0,0.1c0,0,0,0,0,0c0,0,0,0,0,0.1c0,0,0,0,0,0c0,0,0,0,0,0.1
		c0,0,0,0,0,0c0,0,0,0.1,0,0.1c0,0,0,0.1,0,0.1C19.8,36.3,21,36.7,22.3,36.5z"/>
	<path class="st4" d="M19.2,35.6c0,0.3,0.2,0.5,0.4,0.6c0,0,0,0,0.1,0.1c0.4,0.3,1,0.4,1.6,0.4c0.3,0,0.5,0,0.8-0.1
		c0.8-0.1,1.5-0.5,2-0.9c0.1-0.1,0.2-0.2,0.2-0.3c0.1-0.1,0.1-0.2,0.2-0.3c0-0.1,0.1-0.2,0.1-0.3c0-0.1,0-0.1,0-0.2
		c0-0.2-0.1-0.4-0.3-0.6c0,0-0.1-0.1-0.1-0.1c-0.1-0.1-0.2-0.1-0.3-0.2c-0.2-0.1-0.4-0.1-0.6-0.2c-0.1,0-0.2,0-0.3-0.1
		c-0.2,0-0.3,0-0.5,0c0,0,0,0,0,0c-0.2,0-0.4,0-0.5,0c-0.1,0-0.2,0-0.3,0c-0.3,0-0.5,0.1-0.8,0.2C19.8,34.2,19.1,34.9,19.2,35.6z"/>
	<path class="st0" d="M21.6,42.2c0.1,0,0.2,0,0.3-0.1c0.5-0.2,0.5-1,0.4-1.8c-0.7,0.2-1.3,0.5-1.8,0.9
		C20.8,41.7,21.1,42.2,21.6,42.2z"/>
	<path class="st0" d="M23.9,41.6c0.1,0,0.2,0.1,0.4,0.1c0.4,0,1-0.2,0.9-1.2c0-0.1,0-0.2,0-0.3c-0.2,0-0.4,0-0.6,0
		c-0.3,0-0.6,0-0.9,0c-0.2,0-0.4,0-0.5,0C23.3,40.8,23.6,41.5,23.9,41.6z"/>
	<path class="st3" d="M25.6,36c0,0-0.8,1.9-3.1,2.2c-0.6,0.1-1.1,0.1-1.5,0.1c-1.2,0-1.8-0.3-2.1-0.7c0,0-2.2,0.6-2.3,1.9
		c-0.1,1,0.8,1.5,1.7,1.5c0.3,0,0.6-0.1,0.8-0.2c0.9-0.5,2.2-1.5,3.9-1.7c0.2,0,0.4,0,0.6,0c0.6,0,1.4,0,2.2,0c0.9,0,1.7,0,2.2-0.3
		c1.1-0.5,1.1-1.3,1-1.7C29,36.9,28.3,36,25.6,36z"/>
</g>
</svg>
