<?xml version="1.0" encoding="utf-8"?>
<!-- Generator: Adobe Illustrator 21.1.0, SVG Export Plug-In . SVG Version: 6.00 Build 0)  -->
<svg version="1.1" id="Layer_1" xmlns="http://www.w3.org/2000/svg" xmlns:xlink="http://www.w3.org/1999/xlink" x="0px" y="0px"
	 viewBox="0 0 52.6666679 72.75" style="enable-background:new 0 0 52.6666679 72.75;" xml:space="preserve">
<style type="text/css">
	.st0{fill:#FFFFFF;}
	.st1{fill:none;}
	.st2{fill:#67CFE3;}
	.st3{fill:#DFCAA3;}
	.st4{fill:#231F20;}
	.st5{fill:#648C1A;}
</style>
<g>
	<path class="st0" d="M10.4496241,66.8143311c0,0.3330765-0.0740585,0.6530838-0.2141247,0.9253769
		c-0.3273001,0.6362228-0.903121,0.9588394-1.7115707,0.9588394c-0.5386853,0-0.958169-0.1521606-1.2468166-0.4523621
		c-0.4723825-0.4911346-0.4492416-1.228775-0.4489889-1.2357712l-0.3449612-0.015007
		c-0.0015597,0.0359955-0.0316129,0.8879471,0.5425634,1.4874954c0.3563838,0.3721924,0.8604641,0.5609436,1.4982033,0.5609436
		c1.1811047,0,1.7496328-0.6233215,2.0185957-1.1461563c0.1651049-0.3209381,0.2523985-0.6955719,0.2523985-1.0833588v-6.6601448
		h-0.3452988V66.8143311z"/>
	<path class="st0" d="M15.0995178,60.16679h-0.0000839c-0.0904131,0-0.1700783,0.0577469-0.1982765,0.1436501l-2.855957,8.6344833
		l0.3628712-0.0003433l0.8322229-2.4543457h3.7348013l0.8391781,2.454689h0.3646545l-2.881176-8.6347389
		C15.2695122,60.224369,15.189847,60.16679,15.0995178,60.16679z M13.353384,66.1449356l1.7466402-5.3323135l1.7610331,5.3323135
		H13.353384z"/>
	<polygon class="st0" points="19.8183708,68.9243469 23.9932671,68.9243469 23.9932671,68.5790558 20.1636677,68.5790558 
		20.1636677,64.6785126 23.7680569,64.6785126 23.7680569,64.3332138 20.1636677,64.3332138 20.1636677,60.4327583 
		23.9932671,60.4327583 23.9932671,60.0874634 19.8183708,60.0874634 	"/>
	<path class="st0" d="M31.1404629,62.4864235c0.0017281-0.0402946,0.0340157-0.9966087-0.6371078-1.6965637
		c-0.4467964-0.4661026-1.0919552-0.7023964-1.9175186-0.7023964c-0.8301144,0-1.4776344,0.2364655-1.9245987,0.7029037
		c-0.6638317,0.6927032-0.63167,1.6330833-0.6301537,1.6654549v4.2644691c0,0.5115433,0.141964,0.9922256,0.4105473,1.3901291
		c0.3199654,0.4741135,0.9508362,1.0393524,2.1390209,1.0393524c0.3906517,0,0.7477112-0.0391998,1.0612698-0.1165924
		c0.8824234-0.2175751,1.4987087-1.0156631,1.4987087-1.9406967v-2.1411743h-2.2089062v0.3452988h1.8636074v1.7958755
		c0,0.7657928-0.5082951,1.4260406-1.2361107,1.6055145c-0.2865391,0.0706482-0.615778,0.1064758-0.978569,0.1064758
		c-0.8321381,0-1.4555054-0.2985077-1.8528175-0.8872681c-0.2299309-0.3405838-0.3514519-0.7545013-0.3514519-1.1969147
		l-0.0001698-4.271801c-0.0003357-0.0082626-0.0286617-0.8317184,0.5343037-1.4192123
		c0.3793545-0.3957977,0.9429932-0.5965195,1.6753197-0.5965195c0.7262554,0,1.2866917,0.1997108,1.6658363,0.593483
		c0.5694561,0.5915413,0.5441227,1.4375076,0.543829,1.4456825L31.1404629,62.4864235z"/>
	<polygon class="st0" points="33.4400749,68.9243469 37.6618042,68.9243469 37.6618042,68.5790558 33.7853737,68.5790558 
		33.7853737,64.6785126 37.3341255,64.6785126 37.3341255,64.3332138 33.7853737,64.3332138 33.7853737,60.4327583 
		37.6618042,60.4327583 37.6618042,60.0874634 33.4400749,60.0874634 	"/>
	<path class="st0" d="M44.7764969,68.9380035l-1.8672523-3.805481c0.3630028-0.1052628,0.6882591-0.2673111,0.9451256-0.5186691
		c0.3850441-0.3768234,0.5802879-0.9217491,0.5802879-1.6197662c0-1.7201691-0.8796005-2.5086403-1.4039116-2.7444305
		c-0.239418-0.1076508-0.5011711-0.1621933-0.7780609-0.1621933h-2.5166893v8.8368835h0.3452988v-3.6267242
		c0.1449127,0.0016022,0.2939148,0.0048065,0.4490318,0.0081787c0.6724281,0.0143585,1.3949318,0.0298691,2.0347595-0.0905685
		l1.8285103,3.7227707H44.7764969z M40.5378265,64.9605865c-0.1575165-0.0034561-0.3087502-0.0067444-0.4565315-0.0082626
		v-4.5195656h2.1713905c0.2277412,0,0.4418678,0.0443459,0.6364326,0.1318474
		c0.5475388,0.2462463,1.2002411,0.9800034,1.2002411,2.4294815c0,0.6100883-0.1558723,1.059166-0.4764709,1.3729324
		C42.9528503,65.0129395,41.6696587,64.985199,40.5378265,64.9605865z"/>
</g>
<g>
	<g>
		<path class="st1" d="M31.5629292,24.0193386c-0.7348423-0.4481125-1.5980949-0.7064266-2.52174-0.7064266
			c-2.6789722,0-4.8506622,2.1717319-4.8506622,4.8506889c0,1.7591419,0.936451,3.2995129,2.3380241,4.1499329
			c0.732851,0.444664,1.5928249,0.7007408,2.5126381,0.7007408c2.6789093,0,4.8506718-2.1717167,4.8506718-4.8506737
			C33.891861,26.4083061,32.959404,24.8709145,31.5629292,24.0193386z"/>
		<path class="st1" d="M18.859127,31.6595879c0-1.7552967-0.9324265-3.2926865-2.3289013-4.1442623
			c-0.7348318-0.4481125-1.598094-0.7064266-2.5217609-0.7064266c-2.6789722,0-4.8506727,2.1717358-4.8506727,4.8506889
			c0,1.7591782,0.9365044,3.299572,2.3381195,4.1499825c0.73283,0.4446335,1.5927715,0.7006912,2.5125532,0.7006912
			C16.687439,36.5102615,18.859127,34.3385429,18.859127,31.6595879z"/>
		<path class="st2" d="M20.4904613,41.1732521c0.2831326,0.5339241,0.6563549,0.9917145,1.1108322,0.9917145
			c0.0926037,0,0.1880379-0.0188179,0.286602-0.0596085c0.4664631-0.1925926,0.4869213-1.0049362,0.3792248-1.7874374
			C21.5953121,40.532795,21.0085487,40.8622398,20.4904613,41.1732521z"/>
		<path class="st2" d="M43.6882172,43.8215599c-0.0014915-0.0094528-0.0032806-0.0205269-0.0043983-0.0288467
			c-0.1947212-1.4275055-0.8036537-2.0678825-1.3408279-2.6329956c-0.5001945-0.5261955-0.9727859-1.0231819-0.820652-1.9356346
			c0.1406593-0.8435516,0.8117752-1.3625679,1.9082909-1.4975929c-0.6659737-4.501442-1.6419029-10.1805191-2.8964386-15.0253544
			c-0.6264534-2.4195786-1.6172867-4.1002159-2.9461937-5.217577c-1.52071,0.7780132-3.3499489,1.6331749-5.3918762,2.5185928
			c-1.4754333,0.6397495-2.9986782,1.2664795-4.4472771,1.8360252c-1.1661682,1.2511311-2.4404068,2.4842358-3.2212963,2.8356628
			c-0.5559788,0.2501678-1.0500526,0.3497696-1.479475,0.3497696c-0.9296818,0-1.5573273-0.4663162-1.8611507-0.8810806
			c-0.352232,0.093092-0.6336174,0.1534443-0.824976,0.1736202c-0.2288895,0.024086-0.566124,0.0527039-0.987936,0.0831509
			c0.1620674,0.4243813,0.0975418,0.9212551-0.2132835,1.2956905c-0.3418655,0.4118557-0.8927784,0.6187534-1.6735172,0.6187534
			c-1.1234455,0-2.7229757-0.4285069-4.8616371-1.2923012c-0.3146477-0.127058-0.6035585-0.2400227-0.8689137-0.3406677
			c-0.1637688,0.0008202-0.3274641,0.0014-0.4911585,0.0014c-0.0004463,0-0.0009785,0-0.0014896,0
			c-2.0432796-0.0000381-3.6400642-0.0642529-4.8918443-0.1667767c-1.3710351,2.8380852-0.7752252,5.9859276-0.2734022,8.5862789
			c0.480876,2.4919662,2.1494012,6.9259949,3.6969676,10.735672c0.5741596,1.4133568,1.1314802,2.7403526,1.6055651,3.8507957
			c4.1895514,0.3705711,9.5610676,0.5931854,15.4180164,0.5931854c6.9699402,0,13.2481689-0.3157234,17.6691971-0.8204231
			C44.1664085,46.1352501,43.758316,44.290741,43.6882172,43.8215599z M11.4959116,35.8095703
			c-1.4016151-0.8504105-2.3381195-2.3908043-2.3381195-4.1499825c0-2.6789532,2.1717005-4.8506889,4.8506727-4.8506889
			c0.923667,0,1.7869291,0.2583141,2.5217609,0.7064266c1.3964748,0.8515759,2.3289013,2.3889656,2.3289013,4.1442623
			c0,2.6789551-2.1716881,4.8506737-4.8506622,4.8506737C13.0886831,36.5102615,12.2287416,36.2542038,11.4959116,35.8095703z
			 M28.3939056,39.8111572c-0.5004616,0.2171593-1.231472,0.3135376-2.3851357,0.3238487
			c0.0044079,0.10252,0.0088139,0.1963768,0.0138588,0.2666893c0.0497513,0.6611671-0.1070995,1.1925774-0.4661446,1.5794182
			c-0.3244076,0.3499107-0.7949371,0.5426636-1.3246899,0.5426636c-0.2390442,0-0.4749584-0.039135-0.6645489-0.110157
			c-0.2053452-0.0770836-0.3839302-0.2136917-0.5464439-0.4238472c-0.1515064,0.4340096-0.4214172,0.7342339-0.8106918,0.8950958
			c-0.1984253,0.0818901-0.4031525,0.1233864-0.6088161,0.1233864c-0.7168312,0-1.3297367-0.4857407-1.8317719-1.4105988
			c-0.0651836,0.0375557-0.1423531,0.0863762-0.2034512,0.1192093c-0.3452053,0.1852722-0.766922,0.2831459-1.2195053,0.2831459
			c-0.8506927,0-1.6478443-0.3319664-2.1328716-0.8880157c-0.3946371-0.4523544-0.5656652-1.0373039-0.4821949-1.6471291
			c0.2557545-1.8587837,2.7130127-2.6133308,2.9923744-2.6932526l0.5722656-0.1637764l0.3810997,0.4572372
			c0.0463009,0.055275,0.3294525,0.3313332,1.3776131,0.3313332c0.3965321,0,0.8554173-0.0404739,1.3640728-0.1203156
			c1.6821613-0.263855,2.3319149-1.6109085,2.3700199-1.6929588l0.2390442-0.5482521l0.6040897,0.0049591
			c3.6537857,0.0300751,4.213459,1.6343727,4.2978649,2.1263313C30.1271038,38.3196144,29.5526352,39.3083344,28.3939056,39.8111572
			z M29.0411892,33.0142746c-0.9198132,0-1.7797871-0.2560768-2.5126381-0.7007408
			c-1.4015732-0.85042-2.3380241-2.3907909-2.3380241-4.1499329c0-2.678957,2.17169-4.8506889,4.8506622-4.8506889
			c0.923645,0,1.7868977,0.2583141,2.52174,0.7064266c1.3964748,0.8515759,2.3289318,2.3889675,2.3289318,4.1442623
			C33.891861,30.8425579,31.7200985,33.0142746,29.0411892,33.0142746z"/>
		<path class="st2" d="M25.6245213,35.954071c0,0-0.8169918,1.872715-3.0638809,2.2252312
			c-0.5854855,0.0918884-1.0831146,0.1313362-1.5057888,0.1313362c-1.199028,0-1.7942848-0.3180275-2.0796509-0.6600647
			c0,0-2.1561604,0.6168404-2.3378963,1.9387779c-0.1357327,0.9884834,0.8453484,1.4965019,1.7092609,1.4965019
			c0.2916451,0,0.5697517-0.0578728,0.7873802-0.1745605c0.8626556-0.4626694,2.1558609-1.4761887,3.8805561-1.6964226
			c0.1558914-0.0199203,0.3713264-0.0269318,0.6270599-0.0268517c0.5902328,0,1.3946228,0.0370102,2.1744461,0.0370102
			c0.8869247,0,1.742321-0.0479507,2.2141266-0.252594c1.0664463-0.4626694,1.0664463-1.2558022,0.9987297-1.6523285
			C28.95327,36.8805885,28.3022594,35.97612,25.6245213,35.954071z"/>
		<path class="st2" d="M25.1646786,40.1284714c-0.2034492-0.0038567-0.4132233-0.0051155-0.6072197-0.0099983
			c-0.3347969-0.0083466-0.6478596-0.0162964-0.9158974-0.0162964c-0.2053452,0-0.3773098,0.00354-0.5036106,0.0192108
			c0.1981049,0.7076225,0.4576283,1.4021759,0.7253475,1.5025635c0.0765305,0.0285873,0.2122841,0.0564575,0.3684959,0.0564575
			c0.433382,0,1.0251675-0.2135391,0.949894-1.2156448C25.1750889,40.3755569,25.1697235,40.2566566,25.1646786,40.1284714z"/>
	</g>
	<path class="st1" d="M6.3700271,20.0847607c0,0-0.0194893-0.1048126-0.05586-0.2819595
		c-0.0344548-0.1776237-0.0870256-0.4284592-0.1348915-0.720377c-0.0235233-0.1456528-0.0451093-0.3021374-0.0557537-0.4605789
		c-0.0087385-0.1556683-0.0086961-0.3223209,0.0254607-0.4446964c0.0170836-0.0607338,0.0394678-0.107872,0.0611181-0.1316872
		c0.0210433-0.021368,0.0382223-0.0284786,0.0687175-0.0393505l0.0226932-0.0045834l0.0369668-0.0074673
		c0.0106335-0.0015736-0.0029273,0.0059719-0.0039062,0.0068512c-0.0040131,0.002182-0.0083237,0.0032139-0.0124536,0.0030861
		c-0.0020652-0.0000534-0.0040874-0.0004044-0.0060034-0.0010223l0.0046835,0.0025597
		c0.0065141,0.0030022,0.0126133,0.0033741,0.0201383,0.0041676c0.0357747,0.013422,0.0904636,0.0423851,0.1478777,0.0858917
		c0.1195216,0.0866909,0.243216,0.2212143,0.3617158,0.3576183c0.1171055,0.1396866,0.231997,0.2867012,0.340651,0.4335518
		c0.2167978,0.2948399,0.4172883,0.5830212,0.5933833,0.8304577c0.1759882,0.2476978,0.3284106,0.4552765,0.4394698,0.599577
		c0.1096764,0.144968,0.1780329,0.2268085,0.1780329,0.2268085s-0.0029593-0.0263329-0.0085268-0.0757217
		c-0.0077486-0.0485516-0.0153589-0.1215973-0.0343056-0.2109699c-0.033124-0.180851-0.0918999-0.4357071-0.1896763-0.7329578
		c-0.0972652-0.2975044-0.2325931-0.6375771-0.4207473-0.9887218c-0.0951471-0.1751213-0.2018747-0.354351-0.3325515-0.5289974
		c-0.1303678-0.1758499-0.2785645-0.348753-0.4843774-0.507103c-0.10677-0.0760994-0.229847-0.1497822-0.3878894-0.1973133
		c-0.041831-0.0100269-0.0856953-0.0180626-0.1287184-0.0247746l-0.0325279-0.0044117l-0.0438428-0.000576
		c-0.029367,0.0001717-0.0588722,0.0015068-0.0880795,0.0039921c-0.0260139,0.0022507-0.0651841,0.0066051-0.0790849,0.0101662
		l-0.0364027,0.0098495l-0.0363493,0.0098248l-0.0481005,0.0141563l-0.0141778,0.006216l-0.0282068,0.0127048
		c-0.1493993,0.0612926-0.2958078,0.1842804-0.3788633,0.3270683c-0.0851841,0.1417847-0.1184254,0.2846432-0.1302614,0.4114399
		c-0.0242896,0.2558403,0.025897,0.4609451,0.076488,0.6478481c0.0554128,0.1847496,0.1249394,0.3465004,0.1959991,0.4905891
		c0.1432257,0.2874317,0.2952223,0.5029449,0.4088049,0.6485195c0.0547209,0.0737247,0.1052375,0.1272964,0.1371269,0.1647949
		C6.3507934,20.0662136,6.3700271,20.0847607,6.3700271,20.0847607z"/>
	<path class="st1" d="M35.2628326,11.8257809l-0.036274-0.0631886l-0.0478973-0.0607872
		c-0.0450897-0.0722256-0.2227173-0.1837749-0.2365532-0.1849298l-0.0182457-0.0097284l-0.0091324-0.0048752l-0.0346565-0.0150719
		l-0.0030556-0.0010967l-0.0061302-0.0021868l-0.0491867-0.017355l-0.0991478-0.0339756
		c-0.0653-0.0243483-0.1397972-0.0327253-0.210186-0.0473185c-0.0714455-0.0126505-0.1473351-0.0122776-0.2211418-0.0169344
		c-0.0744438,0.0026236-0.150219,0.0077057-0.224205,0.0182543c-0.2980347,0.0525389-0.5609207,0.1967916-0.7611771,0.3685179
		c-0.2033005,0.1711874-0.3557854,0.3674097-0.4795341,0.5619459c-0.2458115,0.3912582-0.3839912,0.7813826-0.4753418,1.1178885
		c-0.0895767,0.3374577-0.1276398,0.6241703-0.1434174,0.8257732c-0.0102921,0.1001339-0.0095901,0.1806297-0.0117493,0.2344828
		c-0.0008507,0.0542583,0.0008087,0.0833902,0.0008087,0.0833902s0.0552101-0.1002979,0.1518478-0.2758398
		c0.096508-0.1736088,0.2317963-0.41996,0.3985138-0.7035379c0.1680679-0.2817202,0.3687515-0.6045961,0.6120071-0.8972378
		c0.1218529-0.1451254,0.2556915-0.2803526,0.3968315-0.3849249c0.1423111-0.1033001,0.2877731-0.1741571,0.4327774-0.1974573
		c0.0365486-0.004508,0.0729828-0.0079403,0.1098328-0.0111389c0.0375443,0.0040073,0.0744019-0.0001917,0.1127014,0.0066738
		c0.0383263,0.0094042,0.0763588,0.0089035,0.1159134,0.0216656l0.0930481,0.0251684l0.029335,0.0134802
		c-0.0013504-0.0012131-0.0028954-0.0021925-0.0039368-0.0036564c0.001297,0.0005112,0.0028305,0.0008411,0.005024,0.0009155
		c0.0008087,0.0017509,0.0020752,0.0032148,0.0032234,0.0047369l0.0038757,0.0017719l0.0084839,0.0040178l-0.0040245-0.000452
		c-0.0020027-0.0003729-0.0038528-0.001112-0.0056839-0.0018835c0.0045357,0.0028944,0.0087509,0.0098982,0.0127106,0.0191431
		c0.020031,0.03578,0.0347176,0.1066046,0.0419044,0.1849499c0.0090904,0.1618376-0.0103569,0.3486242-0.0407791,0.5254107
		c-0.0293541,0.1779518-0.0670128,0.3503799-0.1045456,0.5103493c-0.0756683,0.3203688-0.1479607,0.5930099-0.1956558,0.7862101
		c-0.0495377,0.1925659-0.0758286,0.3060904-0.0758286,0.3060904s0.0830536-0.0819702,0.2081757-0.2401562
		c0.1260986-0.1577768,0.2959442-0.3905611,0.4647713-0.6959438c0.08395-0.1530342,0.1680794-0.3239403,0.2422676-0.5166712
		c0.0728912-0.1932526,0.1398849-0.4063892,0.1606827-0.6648731c0.0081329-0.1308527,0.0043526-0.2764254-0.0516357-0.4433031
		C35.3050461,11.9107361,35.2881889,11.8688889,35.2628326,11.8257809z"/>
	<path class="st1" d="M9.1668186,31.6652012c0-2.6789513,2.1717215-4.8506775,4.8506727-4.8506775
		c0.9198561,0,1.7798719,0.2560997,2.5127344,0.7008018c-0.7348318-0.4481125-1.598094-0.7064266-2.5217609-0.7064266
		c-2.6789722,0-4.8506727,2.1717358-4.8506727,4.8506889c0,1.7591782,0.9365044,3.299572,2.3381195,4.1499825
		C10.0993414,34.9580193,9.1668186,33.4205704,9.1668186,31.6652012z"/>
	<path class="st1" d="M26.5285511,32.3135338c-1.3965282-0.8515587-2.3290081-2.3889751-2.3290081-4.1443081
		c0-2.6789627,2.1717205-4.8506775,4.8506718-4.8506775c0.919857,0,1.7798519,0.2560997,2.5127144,0.7007904
		c-0.7348423-0.4481125-1.5980949-0.7064266-2.52174-0.7064266c-2.6789722,0-4.8506622,2.1717319-4.8506622,4.8506889
		C24.190527,29.9227428,25.1269779,31.4631138,26.5285511,32.3135338z"/>
	<path class="st0" d="M13.7803211,52.817234c-0.8302765,0.1897888-3.2736864,1.5182304-5.3849812,1.9215164
		s-3.9379268,0.6167831-4.5784206,0.8540039c-0.6404934,0.2372169-1.1386762,0.7116737,0.1186171,1.1861267
		c1.2572935,0.4744339,7.3539343,0.6405029,7.8995466,0c0.5456343-0.6405067-0.3762655-0.9181023-1.708003-0.9014587
		c-0.9488935,0.0118675-0.8325119-0.3187714-0.830287-0.355835c0,0,0.0593081-0.4151344,1.5182314-0.6167908
		c1.4565706-0.2012978,7.8995676-0.8065567,7.7809515-1.4945107C18.4773579,52.7223511,14.6106081,52.627449,13.7803211,52.817234z"
		/>
	
		<ellipse transform="matrix(0.9771309 -0.2126388 0.2126388 0.9771309 -12.0909452 3.3651547)" class="st0" cx="9.5992556" cy="57.8938293" rx="1.2632223" ry="0.3676925"/>
	
		<ellipse transform="matrix(0.996846 -0.07936 0.07936 0.996846 -4.5602221 0.7118371)" class="st0" cx="6.6754651" cy="57.7277718" rx="1.328449" ry="0.355829"/>
	
		<ellipse transform="matrix(0.9908523 -0.1349509 0.1349509 0.9908523 -7.7115073 1.1109459)" class="st0" cx="4.3388176" cy="57.4371719" rx="0.8895906" ry="0.2787383"/>
	
		<ellipse transform="matrix(0.9896246 -0.1436775 0.1436775 0.9896246 -8.1869717 0.9685981)" class="st0" cx="2.6130168" cy="57.1702957" rx="0.8599319" ry="0.2253598"/>
	
		<ellipse transform="matrix(0.9896246 -0.1436775 0.1436775 0.9896246 -8.1211615 0.9073129)" class="st0" cx="2.2215881" cy="56.6839828" rx="0.8599425" ry="0.2253598"/>
	
		<ellipse transform="matrix(0.9896215 -0.143699 0.143699 0.9896215 -8.0444155 0.8871303)" class="st0" cx="2.1192884" cy="56.1340866" rx="0.7475774" ry="0.1959196"/>
	<path class="st0" d="M26.4480915,53.4814568c-1.4470749,0.071167-4.7207623-0.0948868-5.1714821,0.6642342
		c-0.4507332,0.7591057,1.3284588,1.0437775,4.1276989,0.8065567c2.7992382-0.2372169,6.7608795-0.5456161,6.9269257-1.3996239
		c0.166069-0.8540077-0.7353725-0.6879387-0.8302746-1.2335587c-0.0948925-0.5456238,0.9963436-0.5456238,1.2098408-1.3521767
		c0.2134972-0.8065567-1.4707909-0.7116699-2.9652958-0.7116699c-1.4945068,0-3.9853573,0.1423302-4.2225914,0.9251709
		c-0.2372227,0.7828369,1.1386776,0.7828369,2.1112957,0.9726257c0.97262,0.1897659,0.6879559,0.5456009,0.6879559,0.5456009
		C28.2747135,53.1967888,27.8951569,53.4102859,26.4480915,53.4814568z"/>
	<ellipse class="st0" cx="22.578373" cy="55.5630951" rx="1.2543236" ry="0.4092121"/>
	<ellipse class="st0" cx="25.8075809" cy="55.4741364" rx="0.8362104" ry="0.3736292"/>
	<ellipse class="st0" cx="28.4140854" cy="55.2072563" rx="0.9162801" ry="0.3024606"/>
	<ellipse class="st0" cx="30.4245529" cy="54.8692131" rx="0.6671939" ry="0.320252"/>
	<ellipse class="st0" cx="32.159256" cy="54.5044861" rx="0.6760924" ry="0.3113563"/>
	<path class="st0" d="M2.6600635,45.7569466c0,0.4045029,0.882283,0.7869759,2.4493172,1.1273651
		c-0.1115918-0.8116493-0.0426292-1.6302414,0.0619268-2.2680016C3.565593,44.9600182,2.6600635,45.3471794,2.6600635,45.7569466z"
		/>
	<path class="st0" d="M48.9004669,44.7088814c-0.0237694,0.065712-0.049015,0.1305885-0.0762329,0.1942863
		c-0.1927414,0.4507904-0.4692535,0.8488617-0.8219414,1.1829147c-0.7078171,0.6704903-1.3283653,1.0721588-1.8827705,1.2186813
		C49.1820641,46.8743019,51,46.3382378,51,45.7569466C51,45.3835793,50.2480431,45.0289574,48.9004669,44.7088814z"/>
	<path class="st3" d="M8.008749,49.0137558c1.1371965,0,1.9378719-0.61903,2.4997911-1.4223595
		c-0.6430264-1.4913521-1.7012978-4.0042763-2.7046356-6.6489449c-0.271646,0.2311363-0.585464,0.579998-0.9249973,1.1062698
		c-0.8453484,1.3102226-1.5415635,4.358799-0.6647086,5.9678383C6.5797143,48.6876755,7.1668491,49.0137558,8.008749,49.0137558z"/>
	<path class="st3" d="M48.1562576,41.4600563c-0.6666336-1.724781-2.0842705-2.9492264-3.4473648-2.9776459l-0.0487938-0.0042267
		c-0.0021706-0.0003853-0.2641068-0.0394325-0.6160545-0.0394325c-0.7424316,0-1.653717,0.1584969-1.7795715,0.9130859
		c-0.0873146,0.523632,0.1417236,0.7918434,0.6261749,1.3013916c0.5535851,0.5821381,1.3115044,1.3794899,1.5386276,3.0447311
		c0.2600212,1.9070854,0.7256546,2.8742027,1.3837128,2.8743286h0.0001259c0.3072624,0,0.8677635-0.1842308,1.7942963-1.0618515
		C48.7483864,44.4295044,48.6390495,42.709465,48.1562576,41.4600563z"/>
	<path class="st0" d="M24.199543,28.1692257c0,1.7553329,0.9324799,3.2927494,2.3290081,4.1443081
		c0.732851,0.444664,1.5928249,0.7007408,2.5126381,0.7007408c2.6789093,0,4.8506718-2.1717167,4.8506718-4.8506737
		c0-1.7552948-0.932457-3.2926865-2.3289318-4.1442623c-0.7328625-0.4446907-1.5928574-0.7007904-2.5127144-0.7007904
		C26.3712635,23.3185482,24.199543,25.490263,24.199543,28.1692257z M29.9242172,29.7861118
		c0,0.8447189-0.6847725,1.5294971-1.5295029,1.5294971c-0.8447094,0-1.5294838-0.6847782-1.5294838-1.5294971
		c0-0.8447094,0.6847744-1.5294933,1.5294838-1.5294933C29.2394447,28.2566185,29.9242172,28.9414024,29.9242172,29.7861118z"/>
	<path class="st0" d="M9.1668186,31.6652012c0,1.7553692,0.9325228,3.2928181,2.329093,4.1443691
		c0.73283,0.4446335,1.5927715,0.7006912,2.5125532,0.7006912c2.6789742,0,4.8506622-2.1717186,4.8506622-4.8506737
		c0-1.7552967-0.9324265-3.2926865-2.3289013-4.1442623c-0.7328625-0.4447021-1.5928783-0.7008018-2.5127344-0.7008018
		C11.3385401,26.8145237,9.1668186,28.9862499,9.1668186,31.6652012z M15.1099939,33.3694954
		c0,0.8447227-0.6847725,1.5294952-1.5295038,1.5294952c-0.8447094,0-1.5294924-0.6847725-1.5294924-1.5294952
		c0-0.8447151,0.684783-1.5294876,1.5294924-1.5294876C14.4252214,31.8400078,15.1099939,32.5247803,15.1099939,33.3694954z"/>
	<circle class="st4" cx="13.580493" cy="33.3694992" r="1.5294942"/>
	<circle class="st4" cx="28.3947182" cy="29.7861118" r="1.5294942"/>
	<path class="st5" d="M9.3714609,23.923645c-0.1693678-0.0353127-0.2641954-0.0462284-0.3031635-0.049469
		C8.4230356,23.91399,7.83143,23.4626999,7.7122383,22.8082256c-0.0120916-0.0665359-0.0172329-0.1325779-0.019042-0.1981544
		c-0.3510828,0.1991978-0.7024207,0.4146004-1.0311933,0.6422176l-0.5847611,0.4048405l-0.4302101-0.5663948
		c-0.1296444-0.1706982-0.7281365-0.9782238-1.2797098-2.0405407c-1.0359614,0.4888-1.8453329,1.0231743-2.042886,1.5294456
		c-0.0373816,0.095892-0.0222671,0.1476173,0.0165195,0.2044621C2.5100892,23.0315895,3.5130754,23.7883644,9.3714609,23.923645z"/>
	<path class="st5" d="M37.0922852,14.3275738c-0.1946373,1.1599112-0.5686684,2.4332714-0.8167381,2.7806072l-0.2328682,0.3257236
		c1.0540543-0.5131969,1.994297-0.9999905,2.7924156-1.4475079c2.7749825-1.555912,3.1200104-2.2372675,3.1596985-2.4090834
		c0.0259933-0.1125336-0.0016594-0.1472282-0.013443-0.1620817c-0.0302162-0.0378933-0.2250671-0.2269888-1.1015396-0.2269888
		c-0.9578133,0-2.2987442,0.219038-3.6981354,0.5227537C37.1573639,13.9107742,37.1277733,14.1161242,37.0922852,14.3275738z"/>
	<path class="st5" d="M36.0104904,17.4495449l-0.40028-0.0325871c-0.0072899-0.0006008-0.7420349-0.059494-1.7383385-0.059494
		c-1.0350685,0-2.3998222,0.0624847-3.5197659,0.3275909c0.2138386,0.4445,0.1654301,0.9914207-0.1704102,1.3955441
		c-0.2745514,0.3303833-0.738205,0.8810101-1.2936001,1.5126209c0.9850521-0.3997459,2.0015125-0.8250294,3.0213909-1.2672501
		C33.4055367,18.6772594,34.7846832,18.0456734,36.0104904,17.4495449z"/>
	<path class="st5" d="M9.4314823,16.2827682c1.1935244,0.3221207,2.5430164,0.4854527,4.0109758,0.4854527
		c5.7032595,0,11.9786673-2.4687634,14.4119978-3.5301914l0.153986-0.067174
		c-0.0235653-0.3667822,0.0078773-0.7622242,0.0950718-1.1587934c0.1560211-0.7099352,0.4652081-1.3115091,0.8449135-1.7100048
		c-0.0732422-0.2722101-0.1334553-0.4711103-0.1754684-0.5720739c-0.8122025-0.4329824-7.5085049-2.9273295-11.0006924-2.9273295
		c-0.3488789,0-0.6535759,0.0259871-0.9055405,0.0774565c-3.0951757,0.6316853-7.7979708,6.01226-7.9668379,6.775043
		c-0.0506868,0.3299809-0.0353594,1.3660221,0.0016918,2.484602L9.4314823,16.2827682z"/>
	<path class="st5" d="M21.5347691,22.2648792c0.5144138-0.3274899,1.171566-0.2481174,1.594326,0.1541481
		c0.0651627-0.0102463,0.1759014-0.0380268,0.3400326-0.1118965c0.6412811-0.3048344,2.9544735-2.7743435,4.7117691-4.8890858
		c0.0632038-0.0760574,0.1336136-0.1423321,0.2089844-0.1998272c-4.0159473,1.7353382-9.6274548,3.6318054-14.9704132,3.6318054
		c-0.8587704,0-1.6741133-0.0500755-2.4310741-0.1480217l0.1173182,0.3454094l-0.6681671,0.2558975
		c-0.0048752,0.0018692-0.1196928,0.0462112-0.3118067,0.1260376c0.8600159,0.2009315,2.0226736,0.595932,3.4828949,1.1856842
		c2.672821,1.0793953,3.6949883,1.1206188,3.9507847,1.1053886c0.3635044-0.192625,0.8026657-0.200119,1.1786118-0.0164146
		c0.6932888-0.0444279,1.2325687-0.0874405,1.5552101-0.1213989c0.1466427-0.01544,0.3646526-0.0610771,0.642004-0.1327114
		C20.9046326,22.9906635,21.1190777,22.5293579,21.5347691,22.2648792z"/>
	<path class="st3" d="M28.1516247,13.9192848c-0.0779343,0.0339966-0.1593723,0.0691538-0.2423954,0.1048384
		c-0.0178928,0.007679-0.0356045,0.0153112-0.0537205,0.0230656c-0.0828533,0.0354872-0.1677494,0.0716076-0.2553501,0.1085529
		c-0.0145397,0.0061255-0.0295048,0.0123844-0.0441933,0.0185528c-0.0802574,0.0337515-0.1624393,0.0680628-0.2464638,0.1028843
		c-0.0162525,0.0067377-0.0321026,0.0133591-0.0485039,0.020134c-0.093029,0.0384512-0.1885052,0.0775204-0.2859097,0.1170998
		c-0.0205326,0.0083447-0.0412769,0.0167217-0.0620003,0.0251093c-0.0998955,0.040431-0.2012787,0.0812244-0.3055058,0.1226406
		c-0.001852,0.0007343-0.0036507,0.0014639-0.0055141,0.0022087c-0.1046295,0.0415649-0.2120705,0.0837097-0.3208847,0.1261206
		c-0.023428,0.0091276-0.0467587,0.0182285-0.0703678,0.0273876c-0.1082706,0.042017-0.2181816,0.084322-0.3303375,0.1269827
		c-0.0163174,0.0062056-0.0329857,0.0124588-0.0493984,0.0186749c-0.1040344,0.0394468-0.2097187,0.0791178-0.3169155,0.1189842
		c-0.0198727,0.0073872-0.0394459,0.0147314-0.0594254,0.0221348c-0.1164455,0.0431347-0.2348175,0.0864449-0.3547764,0.1299047
		c-0.0245876,0.008914-0.049366,0.0178127-0.0741024,0.0267267c-0.120224,0.0433378-0.241684,0.0867596-0.3652191,0.1302404
		c-0.0046825,0.0016556-0.0092602,0.0032892-0.0139637,0.0049448c-0.1262074,0.0443802-0.2545834,0.0887871-0.384079,0.1331673
		c-0.0273342,0.009366-0.0546474,0.0187225-0.0821304,0.0280895c-0.1289196,0.0439386-0.2590961,0.0878134-0.3910389,0.1315651
		c-0.0174789,0.0057955-0.0351906,0.011549-0.0527096,0.017334c-0.1215553,0.0401487-0.2443867,0.0801439-0.3683262,0.1200056
		c-0.0249062,0.0080099-0.0496006,0.016036-0.0745926,0.0240288c-0.1340733,0.0428848-0.2695503,0.0855141-0.4062405,0.127883
		c-0.0277805,0.0086222-0.0557327,0.0171633-0.0836296,0.0257587c-0.1343384,0.041379-0.2695923,0.0825119-0.4062614,0.1232414
		c-0.0085258,0.0025444-0.0169125,0.0051155-0.0254498,0.0076485c-0.1419697,0.0422249-0.2854939,0.0839176-0.4298058,0.1252899
		c-0.0310173,0.008894-0.0620327,0.0177765-0.0931454,0.0266209c-0.1439495,0.0409317-0.2887726,0.0814743-0.4348507,0.1213894
		c-0.0179577,0.0049133-0.0360947,0.0097027-0.0540943,0.0146046c-0.1357422,0.0369034-0.2724113,0.0732632-0.4098473,0.109148
		c-0.026844,0.0070095-0.0535507,0.0140934-0.0804577,0.021059c-0.1473465,0.0381699-0.2956161,0.0756645-0.4447193,0.1125145
		c-0.0299301,0.007391-0.059967,0.0146713-0.089962,0.0220108c-0.1433964,0.0350876-0.2873898,0.0696278-0.4322014,0.1033421
		c-0.0123997,0.0028915-0.024683,0.0058708-0.0370941,0.0087452c-0.1524963,0.0353374-0.3059311,0.069622-0.4598541,0.1032848
		c-0.0335503,0.0073376-0.0670891,0.0146446-0.1007023,0.0218945c-0.1538925,0.0332146-0.3082733,0.0657272-0.4633884,0.097084
		c-0.0177536,0.0035915-0.035593,0.0069981-0.0533581,0.0105629c-0.1438427,0.0288506-0.2881966,0.0567436-0.4329453,0.0838699
		c-0.0303574,0.0057011-0.0606499,0.0114861-0.0910378,0.0170994c-0.1544666,0.0285206-0.3093796,0.0559731-0.4646759,0.082365
		c-0.0312614,0.0053043-0.0625668,0.0104141-0.0938587,0.0156403c-0.1471004,0.0245552-0.2944775,0.0482502-0.4421749,0.0707626
		c-0.0164013,0.0025005-0.0327415,0.005167-0.0491428,0.0076408c-0.1576061,0.0237484-0.3155422,0.0459614-0.4736691,0.0672283
		c-0.0352211,0.0047359-0.0704212,0.0094032-0.1056538,0.0140133c-0.1586914,0.0207558-0.3175106,0.0405273-0.4765224,0.0586109
		c-0.016264,0.0018578-0.0325375,0.0034637-0.0488014,0.0052795c-0.148283,0.0165882-0.2966499,0.0317783-0.4450493,0.0458965
		c-0.0320807,0.0030499-0.0641193,0.0062332-0.096179,0.0091705c-0.1569567,0.0143585-0.3139343,0.0272961-0.470849,0.0387287
		c-0.0313044,0.0022831-0.0625868,0.0042667-0.0938807,0.0064335c-0.1469088,0.0101433-0.2937536,0.0191059-0.4404917,0.0265408
		c-0.0189466,0.0009632-0.0378923,0.0021877-0.056839,0.0030975c-0.1579571,0.007616-0.315691,0.0132198-0.4732552,0.0175571
		c-0.0354233,0.0009689-0.0708036,0.0018368-0.1062059,0.0026398c-0.1585636,0.0035934-0.3169365,0.0059338-0.4749146,0.0060139
		c-0.0033636,0-0.0067701,0.0001335-0.0101337,0.0001335c-0.0103245,0-0.0205851-0.0003948-0.0309095-0.0004101
		c-0.1511669-0.0002232-0.3019285-0.0024261-0.4524136-0.0060196c-0.0313358-0.0007496-0.0626936-0.0013084-0.0939865-0.0022144
		c-0.1564465-0.0044804-0.3124447-0.0108662-0.4679546-0.0191746c-0.0308676-0.0016441-0.0616283-0.0036392-0.092454-0.0054398
		c-0.1495695-0.0087433-0.2987347-0.0189934-0.4472723-0.0314369c-0.0134859-0.0011272-0.0270567-0.0019836-0.0405426-0.0031452
		c-0.1562862-0.0134697-0.3117428-0.0296326-0.4666977-0.0473537c-0.0338488-0.0038757-0.0676537-0.0077877-0.1014271-0.0118694
		c-0.1535616-0.0185356-0.3065376-0.0388393-0.4586191-0.0617714c-0.0211821-0.0031948-0.042182-0.006834-0.0633326-0.0101128
		c-0.1408195-0.0218468-0.2809162-0.0457478-0.420311-0.0714951c-0.0263329-0.0048656-0.0527725-0.0094109-0.0790634-0.0144176
		c-0.1492929-0.0284462-0.2975855-0.0594463-0.4450378-0.0925655c-0.0310907-0.0069771-0.0620546-0.0142841-0.0930605-0.0214748
		c-0.1514645-0.0351524-0.302247-0.0719433-0.4515619-0.1122417l0.000021,0.0000114
		c0.1390219,0.2104168,0.2767448,0.4349461,0.4130526,0.6743565c0.4953623,0.8701019,0.8577166,1.7296181,1.0550461,2.2368946
		c0.0858974,0.0134392,0.1751261,0.0265408,0.2675371,0.0391922c0.0296335,0.0040607,0.0616722,0.0077496,0.0919857,0.0117073
		c0.064312,0.0084095,0.1281652,0.0168762,0.1955099,0.0247917c0.0363388,0.0042629,0.0752745,0.0080414,0.1124859,0.0121441
		c0.0641413,0.0070724,0.1275263,0.0142956,0.1942854,0.0208359c0.0424805,0.0041618,0.0876532,0.0077057,0.1311874,0.0116291
		c0.0646095,0.0058155,0.1283035,0.0118504,0.1952543,0.0171089c0.0478973,0.0037575,0.0985422,0.0067921,0.1476431,0.0102406
		c0.0656414,0.0046082,0.1302929,0.0094833,0.1980743,0.0134907c0.0525818,0.0031033,0.1078987,0.0053864,0.161768,0.0081062
		c0.0676956,0.0034218,0.1344128,0.0071526,0.2041521,0.0099201c0.0562115,0.0022392,0.1151371,0.0035381,0.172678,0.0053329
		c0.0705166,0.0021915,0.1401072,0.0047035,0.212615,0.0061893c0.0601597,0.0012226,0.1229811,0.001442,0.184514,0.0021553
		c0.0731983,0.000845,0.1454821,0.0020485,0.2206182,0.0021286c0.0078983,0.0000057,0.0152845,0.0002232,0.0232258,0.0002232
		c0.1139545,0,0.2306662-0.0011387,0.349081-0.0030174c0.03057-0.0004787,0.0620546-0.001379,0.0929327-0.0019913
		c0.1006927-0.0020103,0.2029076-0.004715,0.3067608-0.0081635c0.0415115-0.0013828,0.0832148-0.0028572,0.1252375-0.0044804
		c0.1090269-0.0042095,0.2199059-0.009304,0.3323383-0.0151958c0.0292292-0.0015259,0.057744-0.0027142,0.0871964-0.0043583
		c0.1401606-0.0078487,0.2831306-0.0171585,0.4285069-0.0277748c0.0362749-0.0026512,0.0734653-0.0058022,0.1100588-0.0086327
		c0.1134014-0.0087662,0.2283039-0.018383,0.3448238-0.0289307c0.0465469-0.0042038,0.0932207-0.0084934,0.1402674-0.0130024
		c0.125844-0.0120487,0.253562-0.0251942,0.3829727-0.0393982c0.0298672-0.0032787,0.0590305-0.0061207,0.0890903-0.0095215
		c0.1577549-0.017828,0.3184681-0.0375042,0.4814701-0.058691c0.0421944-0.0054913,0.0853024-0.01157,0.1278572-0.0172958
		c0.1255989-0.0168819,0.2527103-0.0347576,0.3813953-0.0537205c0.0521469-0.007679,0.1043549-0.0154285,0.157011-0.0234604
		c0.1435242-0.0219097,0.2889328-0.0451241,0.436203-0.0697117c0.0294838-0.0049229,0.0582752-0.0093517,0.0878983-0.0143814
		c0.1755409-0.0298023,0.354126-0.0618401,0.5349464-0.0956097c0.0478992-0.0089455,0.0966702-0.0185623,0.1449299-0.0277901
		c0.1385746-0.0264931,0.2786388-0.0541515,0.420269-0.0830555c0.0569668-0.0116291,0.1139755-0.0232677,0.1714535-0.0352955
		c0.1621513-0.0339336,0.3262177-0.0694046,0.4923077-0.1065845c0.0285778-0.0063915,0.0564976-0.0122509,0.0851936-0.0187397
		c0.1929131-0.0436668,0.3889961-0.089983,0.5872002-0.1381855c0.0547199-0.0133095,0.1103039-0.0273647,0.1654186-0.0410328
		c0.1504421-0.037281,0.3023643-0.0758762,0.4557972-0.1158447c0.0625668-0.0162945,0.1250896-0.0325489,0.1881332-0.0493031
		c0.1831303-0.0486526,0.368166-0.0990524,0.5555019-0.1516228c0.024725-0.0069408,0.0488758-0.0133324,0.0736771-0.0203419
		c0.2109642-0.0596104,0.4251976-0.122364,0.6414738-0.1871109c0.0608616-0.0182228,0.1225758-0.037281,0.1838646-0.0559177
		c0.1632576-0.049654,0.3280048-0.1007786,0.4942436-0.153429c0.0674191-0.0213509,0.1347218-0.0426025,0.2026196-0.0644436
		c0.2059841-0.0662804,0.4138393-0.1345196,0.6243572-0.2055092c0.0194149-0.006546,0.038372-0.0126133,0.0578289-0.0192032
		c0.2289429-0.0775356,0.4612808-0.1586647,0.6955757-0.2419319c0.067112-0.0238533,0.1350307-0.0485802,0.2025776-0.0729122
		c0.1762867-0.0634918,0.3540516-0.1286488,0.5333405-0.1954613c0.0720501-0.0268497,0.1439381-0.0535183,0.2164669-0.0809155
		c0.2309227-0.0872173,0.463728-0.1765747,0.6995678-0.2694168c0.0121555-0.0047836,0.0240021-0.0092239,0.0361691-0.0140285
		c0.2469406-0.0974197,0.4973946-0.1989269,0.7497215-0.3026676c0.0732536-0.0301189,0.1472721-0.0611553,0.2209911-0.0918217
		c0.1897945-0.0789566,0.3811207-0.15975,0.5739269-0.2423687c0.0762844-0.0326881,0.152359-0.0650997,0.2291012-0.0983677
		c0.2606087-0.1129436,0.5230484-0.228117,0.7890835-0.3478622c0.1108475-0.3479214,0.2582455-0.7836504,0.4410038-1.2677031
		c-0.0142422,0.0005903-0.0284195,0.0030813-0.0426617,0.0030813c-0.0750179,0-0.1500378-0.0080681-0.2227573-0.0240717
		C28.657856,14.7964268,28.3319149,14.4519377,28.1516247,13.9192848z"/>
	<path class="st5" d="M13.4525919,17.5113335c-0.0136881,0.0000114-0.0273447-0.0002556-0.0410433-0.0002766
		c0.0103245,0.0000153,0.0205851,0.0004101,0.0309095,0.0004101C13.4458218,17.511467,13.4492283,17.5113335,13.4525919,17.5113335z
		"/>
	<polygon class="st2" points="6.0718985,15.1039858 6.0718451,15.1039858 6.0718985,15.4756641 	"/>
	<path class="st3" d="M30.1985359,9.8102551c0.4532223,0.0996075,0.7967148,0.4835587,0.967371,1.0809326
		c0.0272694,0.095541,0.0479622,0.1963024,0.0654182,0.299262c1.0411129-1.4650011,2.1766796-2.2057714,3.3906307-2.2057714
		c0.510807,0,0.9592628,0.1203737,1.3353348,0.3529291c0.6394424-0.7776575,1.0462875-1.3139887,1.0462875-1.3139887
		c-0.4806938,0.0874033-1.4857979,0.2185011-1.4857979,0.2185011c3.8018837-1.398396,3.4959869-5.2002764,3.4959869-5.2002764
		c0,0.6554961-1.9664841,2.228688-1.9664841,2.228688c0.0873985-0.5680928-0.218502-1.3109925-0.218502-1.3109925
		c0.0873985,0.7428997-2.2723923,2.665684-2.2723923,2.665684c0.1747971-0.3495922,0.043705-0.9613895,0.043705-0.9613895
		c-0.1311035,0.6991901-1.1799011,0.9613895-1.1799011,0.9613895c0.6554909-0.7865934,1.879097-4.9380713,0.9613991-5.2002649
		c-0.9176941-0.2621996-2.1849823,2.7093775-2.1849823,2.7093775c-0.043705-0.6991954-0.4370003-0.6991954-0.4370003-0.6991954
		c0.1747952,2.1849942-1.5731869,3.9329824-1.5731869,3.9329824c-0.1311131-0.4369955-0.8303089-0.6554961-0.8303089-0.6554961
		c0.1625557,0.3522,0.0731564,1.6110792-0.0182648,2.5172958c-0.0348167,0.3450203-0.0697289,0.6377039-0.0913372,0.8108559
		c0.2319126-0.1637526,0.4798965-0.2545891,0.7292652-0.2545891C30.0507965,9.7861891,30.1258144,9.7942524,30.1985359,9.8102551z"
		/>
	<path class="st0" d="M29.2414036,14.1636763c0.1427994,0.0315914,0.3161907-0.044199,0.4892406-0.2058334
		c0.114872-0.2681179,0.2383423-0.5419197,0.3708382-0.8165569c0.1219597-0.2527952,0.2455578-0.4939146,0.3706779-0.7238359
		c0.0900383-0.4782619,0.0839291-0.954689-0.0210209-1.3221893c-0.0893669-0.3130255-0.2433872-0.5219622-0.4121151-0.5590935
		c-0.0207462-0.0046091-0.0414906-0.0067854-0.0632477-0.0067854c-0.3792248,0-0.9303722,0.6598492-1.1463604,1.6422024
		c-0.1131687,0.5147924-0.1132965,1.0371428-0.0002556,1.4329996
		C28.9185276,13.9176083,29.0726738,14.1265507,29.2414036,14.1636763z"/>
	<polygon class="st2" points="34.6660881,12.1832228 34.6576042,12.1792049 34.6537285,12.177433 34.6554413,12.1799288 
		34.6560478,12.1806793 34.6620636,12.1827707 	"/>
	<path class="st2" d="M34.6219559,9.7279129c-2.9373455,0-4.8213577,6.0011053-5.1808491,7.2469196
		c0.1045876,0.0212288,0.2068977,0.0567322,0.3052807,0.1043262c1.2610607-0.37743,2.893013-0.4649353,4.1254845-0.4649353
		c1.0429001,0,1.7988739,0.0619526,1.7988739,0.0619526C35.9984856,16.217329,37.8994331,9.7279129,34.6219559,9.7279129z
		 M35.3700829,12.3953962c-0.0207977,0.2584839-0.0877914,0.4716206-0.1606827,0.6648731
		c-0.0741882,0.1927309-0.1583176,0.363637-0.2422676,0.5166712c-0.1688271,0.3053827-0.3386726,0.538167-0.4647713,0.6959438
		c-0.1251221,0.158186-0.2081757,0.2401562-0.2081757,0.2401562s0.0262909-0.1135244,0.0758286-0.3060904
		c0.0476952-0.1932001,0.1199875-0.4658413,0.1956558-0.7862101c0.0375328-0.1599693,0.0751915-0.3323975,0.1045456-0.5103493
		c0.0304222-0.1767864,0.0498695-0.3635731,0.0407791-0.5254107c-0.0071869-0.0783453-0.0218735-0.1491699-0.0419044-0.1849499
		c-0.0039597-0.0092449-0.0081749-0.0162487-0.0127106-0.0191431c0,0-0.0012131-0.000309-0.0017471-0.0005751
		c-0.0022125-0.0010967-0.0034485-0.0032463-0.0052147-0.0048752l-0.029335-0.0134802l-0.0930481-0.0251684
		c-0.0395546-0.0127621-0.0775871-0.0122614-0.1159134-0.0216656c-0.0382996-0.0068655-0.0751572-0.0026665-0.1127014-0.0066738
		c-0.03685,0.0031986-0.0732841,0.0066309-0.1098328,0.0111389c-0.1450043,0.0233002-0.2904663,0.0941572-0.4327774,0.1974573
		c-0.14114,0.1045723-0.2749786,0.2397995-0.3968315,0.3849249c-0.2432556,0.2926416-0.4439392,0.6155176-0.6120071,0.8972378
		c-0.1667175,0.2835779-0.3020058,0.5299292-0.3985138,0.7035379c-0.0966377,0.1755419-0.1518478,0.2758398-0.1518478,0.2758398
		s-0.0016594-0.0291319-0.0008087-0.0833902c0.0021591-0.053853,0.0014572-0.1343489,0.0117493-0.2344828
		c0.0157776-0.2016029,0.0538406-0.4883156,0.1434174-0.8257732c0.0913506-0.3365059,0.2295303-0.7266302,0.4753418-1.1178885
		c0.1237488-0.1945362,0.2762337-0.3907585,0.4795341-0.5619459c0.2002563-0.1717262,0.4631424-0.315979,0.7611771-0.3685179
		c0.0739861-0.0105486,0.1497612-0.0156307,0.224205-0.0182543c0.0738068,0.0046568,0.1496964,0.0042839,0.2211418,0.0169344
		c0.0703888,0.0145931,0.144886,0.0229702,0.210186,0.0473185l0.0991478,0.0339756l0.0491867,0.017355l0.0061302,0.0021868
		l0.0030556,0.0010967l0.0346565,0.0150719l0.0091324,0.0048752l0.0182457,0.0097284
		c0.0138359,0.0011549,0.1914635,0.1127043,0.2365532,0.1849298l0.0478973,0.0607872l0.036274,0.0631886
		c0.0253563,0.043108,0.0422134,0.0849552,0.0556145,0.1263123C35.3744354,12.1189709,35.3782158,12.2645435,35.3700829,12.3953962z
		"/>
	
		<ellipse transform="matrix(0.3682761 -0.9297165 0.9297165 0.3682761 10.5704165 39.9052963)" class="st2" cx="34.6497841" cy="12.1743364" rx="0.0014756" ry="0.0050103"/>
	<polygon class="st0" points="34.6537285,12.177433 34.6494179,12.175437 34.6546326,12.1803122 34.6558037,12.1806583 
		34.6554413,12.1799288 	"/>
	<path class="st0" d="M23.0571404,24.2426357c0.3538609,0,0.7430592-0.0943546,1.1567173-0.280508
		c0.8622627-0.3880444,2.967268-2.5015106,5.3629169-5.3842888c0.0876865-0.1054935,0.1290493-0.2390289,0.1163712-0.3757553
		c-0.0125484-0.136734-0.0777111-0.2604122-0.1832161-0.3481083c-0.1181583-0.098196-0.2434921-0.1188087-0.3278675-0.1188087
		c-0.1537628,0-0.2981701,0.0676003-0.396244,0.1856365c-1.042902,1.2550488-3.9704971,4.6174145-4.9789543,5.0967484
		l-0.0148602,0.0069122c-0.1963825,0.088335-0.3783092,0.1460781-0.5407791,0.1715546l-0.3833141,0.0602989l-0.281023-0.2674465
		c-0.0942211-0.0896168-0.2235241-0.1409588-0.3551369-0.1409588c-0.0969143,0-0.1917839,0.027914-0.2747555,0.0806599
		c-0.11586,0.0736141-0.1959991,0.1880703-0.2258339,0.3221149c-0.029707,0.1340446-0.0055027,0.2716732,0.0682392,0.3875389
		C21.8386974,23.7000618,22.2084503,24.2426357,23.0571404,24.2426357z"/>
	<path class="st0" d="M18.1694584,24.3556843c-0.0843754,0-0.1679726,0.0207405-0.2417145,0.0597878l-0.1509438,0.0800171
		l-0.1706543,0.0101166c-0.0329113,0.0019169-0.0736141,0.0034542-0.1229076,0.0034542
		c-0.4799709,0-1.6598606-0.1513252-4.1691895-1.1646576c-2.7670412-1.117548-3.863205-1.2844944-4.270339-1.2844944
		c-0.077446,0-0.123024,0.0062752-0.1437693,0.0099888c-0.1350613,0.0245781-0.2524652,0.1002464-0.330699,0.2131634
		c-0.078084,0.1127892-0.1076641,0.2493954-0.083087,0.3842068c0.0437899,0.2410755,0.2601614,0.4227428,0.5030155,0.4227428
		c0.0101223,0,0.0203619-0.0002556,0.0307398-0.0008945l0.056839-0.003582L9.13346,23.090271
		c0.30509,0.0253487,1.2857771,0.1938324,3.7957439,1.2074146c2.0290909,0.8195,3.5656614,1.235075,4.5670938,1.235075
		c0.5245171,0,0.8838902-0.1125355,1.0682564-0.3346596c0.0876961-0.1056213,0.1289196-0.239027,0.1162434-0.375761
		c-0.0126762-0.1367321-0.0778408-0.2604065-0.1833324-0.3479748C18.3791676,24.376297,18.2538338,24.3556843,18.1694584,24.3556843
		z"/>
	<path class="st2" d="M10.1719122,20.6091595c0,0-1.7451515-5.1341286-4.1004395-5.1335058
		c-0.3060155,0.0000906-0.6227498,0.0868502-0.9468818,0.2828274C2.305958,17.4627762,6.238946,22.6411991,6.238946,22.6411991
		C7.943224,21.4613037,10.1719122,20.6091595,10.1719122,20.6091595z M5.7718649,19.2159157
		c-0.0710597-0.1440887-0.1405864-0.3058395-0.1959991-0.4905891c-0.050591-0.186903-0.1007776-0.3920078-0.076488-0.6478481
		c0.0118361-0.1267967,0.0450773-0.2696552,0.1302614-0.4114399c0.0830555-0.1427879,0.2294641-0.2657757,0.3788633-0.3270683
		l0.0282068-0.0127048l0.0141778-0.006216l0.0481005-0.0141563l0.0363493-0.0098248l0.0364027-0.0098495
		c0.0139008-0.003561,0.053071-0.0079155,0.0790849-0.0101662c0.0292072-0.0024853,0.0587125-0.0038204,0.0880795-0.0039921
		l0.0438428,0.000576l0.0325279,0.0044117c0.0430231,0.006712,0.0868874,0.0147476,0.1287184,0.0247746
		c0.1580424,0.0475311,0.2811193,0.1212139,0.3878894,0.1973133c0.2058129,0.15835,0.3540096,0.3312531,0.4843774,0.507103
		c0.1306767,0.1746464,0.2374043,0.3538761,0.3325515,0.5289974c0.1881542,0.3511448,0.323482,0.6912174,0.4207473,0.9887218
		c0.0977764,0.2972507,0.1565523,0.5521069,0.1896763,0.7329578c0.0189466,0.0893726,0.026557,0.1624184,0.0343056,0.2109699
		c0.0055676,0.0493889,0.0085268,0.0757217,0.0085268,0.0757217s-0.0683565-0.0818405-0.1780329-0.2268085
		c-0.1110592-0.1443005-0.2634816-0.3518791-0.4394698-0.599577c-0.176095-0.2474365-0.3765855-0.5356178-0.5933833-0.8304577
		c-0.108654-0.1468506-0.2235456-0.2938652-0.340651-0.4335518c-0.1184998-0.136404-0.2421942-0.2709274-0.3617158-0.3576183
		c-0.0574141-0.0435066-0.112103-0.0724697-0.1478777-0.0858917c-0.007525-0.0007935-0.0136242-0.0011654-0.0201383-0.0041676
		l-0.0046835-0.0025597c0.0019159,0.000618,0.0039382,0.0009689,0.0060034,0.0010223
		c0.0041299,0.0001278,0.0084405-0.0009041,0.0124536-0.0030861c0.0009789-0.0008793,0.0145397-0.0084248,0.0039062-0.0068512
		l-0.0369668,0.0074673l-0.0226932,0.0045834C6.248323,18.016983,6.231144,18.0240936,6.2101007,18.0454617
		c-0.0216503,0.0238152-0.0440345,0.0709534-0.0611181,0.1316872c-0.0341568,0.1223755-0.0341992,0.2890282-0.0254607,0.4446964
		c0.0106444,0.1584415,0.0322304,0.3149261,0.0557537,0.4605789c0.0478659,0.2919178,0.1004367,0.5427532,0.1348915,0.720377
		c0.0363708,0.1771469,0.05586,0.2819595,0.05586,0.2819595s-0.0192337-0.0185471-0.0522304-0.0555305
		c-0.0318894-0.0374985-0.082406-0.0910702-0.1371269-0.1647949C6.0670872,19.7188606,5.9150906,19.5033474,5.7718649,19.2159157z"
		/>
	<path class="st4" d="M22.2965088,36.4987869c0.0284195-0.004715,0.0564117-0.0100822,0.0845127-0.015274
		c0.031208-0.005764,0.0621834-0.0117989,0.093008-0.0181389c1.2448826-0.2562027,2.1604595-0.9750977,2.1705074-1.6946869
		c0.0007019-0.0502243-0.0030022-0.1004601-0.0113029-0.150528c-0.0156479-0.0941811-0.0470467-0.1835518-0.0923061-0.267662
		c-0.0168171-0.0312653-0.0367012-0.0613518-0.0573292-0.0911217c-0.0090046-0.0129814-0.0184765-0.0257263-0.0281639-0.0384216
		c-0.0098763-0.0129204-0.0207558-0.0254021-0.0313358-0.0380135c-0.0298462-0.035553-0.0622883-0.0698509-0.0975838-0.1028709
		c-0.0002556-0.0002441-0.0004902-0.0004845-0.0007668-0.0007286l-0.0002136-0.0002289
		c-0.0276947-0.0258598-0.0570087-0.0508461-0.0878544-0.0750885c-0.0012779-0.0010033-0.0025768-0.0019989-0.0038757-0.003006
		c-0.1527405-0.1191826-0.3425884-0.218174-0.5612164-0.2939568c-0.0103664-0.0035973-0.0205631-0.0073204-0.0310593-0.010807
		c-0.0351028-0.011673-0.0709305-0.0226364-0.10742-0.0331078c-0.0160923-0.0046196-0.0323353-0.0090981-0.0486851-0.0134811
		c-0.0344009-0.0092239-0.0690155-0.018158-0.1045246-0.0263176c-0.020052-0.0046158-0.040596-0.008728-0.0609894-0.0129967
		c-0.0338917-0.0070877-0.0675678-0.0143394-0.1023312-0.0204582c-0.0272503-0.0047989-0.0553074-0.008625-0.0830669-0.0128212
		c-0.0491753-0.0074348-0.0989475-0.0139999-0.1496334-0.0195045c-0.0365734-0.0039749-0.073082-0.0080528-0.1103783-0.010994
		c-0.026228-0.0020752-0.0529232-0.0033379-0.0794907-0.0048904c-0.036871-0.0021667-0.0738258-0.0041542-0.1113148-0.0053062
		c-0.0265675-0.0008278-0.0533047-0.0012169-0.0801697-0.0015221c-0.0391922-0.0004539-0.0787029-0.0003586-0.1184902,0.0002899
		c-0.02561,0.0004234-0.0511551,0.0008469-0.0769558,0.0017319c-0.0443001,0.0015106-0.0890274,0.003994-0.1339016,0.0068893
		c-0.0219707,0.0014191-0.043726,0.0024223-0.0658016,0.0041733c-0.0672073,0.0053291-0.1348381,0.0118332-0.2031097,0.0203094
		c-0.0631409,0.007843-0.1265564,0.0165634-0.190443,0.0271683c-0.0591373,0.009819-0.1173611,0.0210609-0.1751366,0.032917
		c-0.0144749,0.0029716-0.0288868,0.0060043-0.0432568,0.0090942c-0.0566692,0.0121956-0.1128693,0.0250168-0.1680698,0.0390816
		l-0.0018311,0.0004349c-0.0563068,0.0143776-0.1115055,0.0300179-0.1661739,0.0462532
		c-0.0128155,0.0038071-0.025589,0.0076866-0.0383186,0.0115929c-0.0537949,0.0165138-0.1070156,0.033596-0.1590424,0.0518188
		c0,0-0.0003834,0.0001297-0.000576,0.0001945c-0.0531559,0.0186272-0.1050549,0.0383759-0.1562538,0.0586967
		c-0.0108566,0.0042915-0.0216064,0.0086555-0.0323582,0.0130272c-0.1015434,0.0413208-0.1989784,0.0858116-0.2918797,0.133213
		c-0.0091534,0.004673-0.0182228,0.0093956-0.0273132,0.0141258c-0.0457478,0.0238533-0.0906868,0.0481873-0.1341133,0.0733795
		l-0.0001717,0.0000954l-0.000042,0.0000267c-0.0385323,0.0223656-0.0759563,0.0452919-0.1125278,0.0686378
		c-0.0067272,0.0042915-0.0131989,0.0087128-0.0198631,0.0130348c-0.0285892,0.0185623-0.0565624,0.0373878-0.0838947,0.0565147
		c-0.0091763,0.006424-0.0182228,0.0128899-0.0272503,0.019371c-0.0253963,0.0182457-0.0501957,0.0367393-0.0744228,0.0554543
		c-0.0077915,0.0060196-0.0157318,0.011982-0.0233955,0.0180473c-0.0625648,0.049469-0.1210442,0.1004295-0.1750088,0.1527061
		c-0.0059605,0.0057907-0.0116024,0.0116615-0.0174561,0.0174828c-0.0204372,0.0202599-0.0402546,0.0406876-0.05933,0.0613022
		c-0.0072594,0.0078506-0.01437,0.0157318-0.0214367,0.0236359c-0.0176697,0.0197563-0.0346146,0.0396614-0.0510063,0.0597076
		c-0.0060463,0.0073662-0.0122414,0.0146904-0.018095,0.0220909c-0.0210953,0.0267067-0.0413418,0.0535889-0.0601387,0.0807381
		l-0.0007019,0.0009575c-0.0192013,0.0277786-0.0368919,0.0558128-0.0536041,0.083992
		c-0.004406,0.0074501-0.0083656,0.0149536-0.0126019,0.0224266c-0.0116863,0.0206108-0.0227776,0.0412941-0.0330811,0.0620804
		c-0.0045567,0.0092125-0.0089626,0.0184402-0.0132637,0.0276871c-0.009409,0.020237-0.0180302,0.0405464-0.0260983,0.0609207
		c-0.0033417,0.0084572-0.0069199,0.0168915-0.0100479,0.0253639c-0.0102177,0.0278168-0.0194798,0.0557098-0.0271435,0.0837059
		c-0.0001698,0.0006638-0.0004253,0.0013123-0.0004253,0.0013123c-0.0079613,0.0293045-0.0140285,0.0580368-0.0190525,0.0868073
		c-0.0015106,0.0086479-0.00247,0.0173073-0.0037251,0.0259666c-0.0029583,0.0203552-0.0053444,0.0407257-0.006876,0.0611115
		c-0.0007458,0.0099754-0.0013199,0.0199547-0.0017242,0.0299377c-0.0008297,0.020153-0.0008087,0.0403023-0.0002136,0.0604591
		c0.0002766,0.0090103,0.0002766,0.0180283,0.0008297,0.0270348c0.0017681,0.028759,0.0045986,0.0574989,0.009367,0.0861855
		c0.0076218,0.0459061,0.0193939,0.0905495,0.0342541,0.1341362C19.7567158,36.3272858,20.9545517,36.7215881,22.2965088,36.4987869
		z"/>
	<path class="st4" d="M19.1818275,35.5919571c0.0418835,0.2515678,0.1921253,0.4698334,0.4207802,0.6461258
		c0.0236187,0.0182686,0.0488129,0.0355911,0.074316,0.0529099c0.3867722,0.264801,0.9637737,0.4214134,1.6239166,0.4271622
		c0.2588825,0.0022812,0.5300617-0.018425,0.8069019-0.064415c0.8314896-0.1380234,1.5388699-0.4746323,1.9741364-0.8908463
		c0.0966892-0.0925179,0.1801491-0.1889725,0.2481861-0.2879448c0.0680256-0.0990562,0.1212559-0.2007065,0.1577873-0.3036919
		c0.0365295-0.1029892,0.0563698-0.2072449,0.0576363-0.3115692c0.0006294-0.052124-0.003149-0.104248-0.0116539-0.1562996
		c-0.0346355-0.2079468-0.1423531-0.3936081-0.3077087-0.5512466c-0.041256-0.0394478-0.0862904-0.0771637-0.1344872-0.1129875
		c-0.0966911-0.0716553-0.2066002-0.1359825-0.327858-0.1922798c-0.1675568-0.0777168-0.3584251-0.1388168-0.5644093-0.1839333
		c-0.0925922-0.0202332-0.1870785-0.0381889-0.2859726-0.0513344c-0.1562233-0.0207901-0.3199921-0.0321312-0.4919567-0.0340195
		c0,0-0.0031509-0.0003128-0.0066204-0.0003929c-0.1722736-0.0014954-0.3505402,0.0071678-0.5319462,0.0267754
		c-0.0910263,0.0098381-0.182682,0.0223579-0.2749557,0.037632c-0.2771702,0.0460587-0.5404606,0.11409-0.7845497,0.1998405
		C19.7657471,34.2130089,19.0697041,34.9161415,19.1818275,35.5919571z"/>
	<path class="st0" d="M21.6012993,42.1649666c0.0926037,0,0.1880264-0.0188179,0.2866001-0.0596085
		c0.4664536-0.1925926,0.4869213-1.0049362,0.3792152-1.7874374c-0.6717968,0.2148743-1.2585602,0.5443192-1.7766571,0.8553314
		C20.7735977,41.7071762,21.1468201,42.1649666,21.6012993,42.1649666z"/>
	<path class="st0" d="M23.8633022,41.623951c0.0765305,0.0285873,0.2122746,0.0564575,0.3684959,0.0564575
		c0.4333725,0,1.0251694-0.2135391,0.949894-1.2156448c-0.006609-0.0892067-0.0119629-0.208107-0.0170078-0.3362923
		c-0.2034512-0.0038567-0.4132233-0.0051155-0.6072216-0.0099983c-0.3347969-0.0083466-0.6478577-0.0162964-0.9158955-0.0162964
		c-0.2053452,0-0.3773098,0.00354-0.5036125,0.0192108C23.3360615,40.82901,23.5955849,41.5235634,23.8633022,41.623951z"/>
	<path class="st3" d="M25.624527,35.954071c0,0-0.8169918,1.872715-3.0638828,2.2252312
		c-0.585495,0.0918884-1.0831146,0.1313362-1.5057888,0.1313362c-1.1990261,0-1.7942944-0.3180275-2.079649-0.6600647
		c0,0-2.1561604,0.6168404-2.3378963,1.9387779c-0.1357441,0.9884834,0.8453369,1.4965019,1.709259,1.4965019
		c0.291647,0,0.5697536-0.0578728,0.7873821-0.1745605c0.8626556-0.4626694,2.1558609-1.4761887,3.8805542-1.6964226
		c0.1558933-0.0199203,0.3713284-0.0269318,0.6270618-0.0268517c0.5902309,0,1.3946228,0.0370102,2.1744461,0.0370102
		c0.8869133,0,1.7423191-0.0479507,2.2141266-0.252594c1.0664349-0.4626694,1.0664349-1.2558022,0.9987183-1.6523285
		C28.95327,36.8805885,28.3022652,35.97612,25.624527,35.954071z"/>
</g>
</svg>
