<?xml version="1.0" encoding="UTF-8" standalone="no"?>
<svg
   viewBox="0 0 1200 1000"
   version="1.1"
   id="svg4"
   sodipodi:docname="knative-stacked-color.svg"
   width="1200"
   height="1000"
   inkscape:version="1.4.2 (ebf0e940, 2025-05-08)"
   xmlns:inkscape="http://www.inkscape.org/namespaces/inkscape"
   xmlns:sodipodi="http://sodipodi.sourceforge.net/DTD/sodipodi-0.dtd"
   xmlns="http://www.w3.org/2000/svg"
   xmlns:svg="http://www.w3.org/2000/svg">
  <defs
     id="defs4" />
  <sodipodi:namedview
     id="namedview4"
     pagecolor="#505050"
     bordercolor="#eeeeee"
     borderopacity="1"
     inkscape:showpageshadow="0"
     inkscape:pageopacity="0"
     inkscape:pagecheckerboard="0"
     inkscape:deskcolor="#505050"
     inkscape:zoom="0.40021282"
     inkscape:cx="-198.64431"
     inkscape:cy="374.80059"
     inkscape:window-width="2320"
     inkscape:window-height="1245"
     inkscape:window-x="222"
     inkscape:window-y="35"
     inkscape:window-maximized="0"
     inkscape:current-layer="svg4" />
  <path
     fill="#0865ad"
     d="m 545.37901,33.970718 -231.747,111.608002 a 15.035,15.035 0 0 0 -8.135,10.194 l -57.237,250.775 a 15.02,15.02 0 0 0 2.902,12.711 l 160.376,201.108 a 15.038,15.038 0 0 0 11.747,5.657 h 257.228 c 4.571,0 8.895,-2.085 11.747,-5.657 l 160.376,-201.108 a 15.023,15.023 0 0 0 2.903,-12.711 l -57.238,-250.775 a 15.019,15.019 0 0 0 -8.135,-10.194 L 558.41901,33.970718 a 15.022,15.022 0 0 0 -13.04,0"
     id="path1" />
  <path
     fill="#ffffff"
     d="m 469.72801,243.01572 h 51.054 v 100.764 h 1.017 c 5.072,-8.798 10.48,-16.907 15.552,-25.023 l 51.736,-75.741 h 63.225 l -75.398,97.039 79.455,130.856 h -60.18 l -55.792,-98.394 -19.615,24.005 v 74.389 h -51.054 z"
     id="path2" />
  <path
     fill="#6695ca"
     d="m 833.21101,33.789718 -91.112,33.16 a 7.521,7.521 0 0 0 -3.935,3.306 l -48.478,83.964002 a 7.513,7.513 0 0 0 -0.892,5.066 l 16.835,95.483 a 7.495,7.495 0 0 0 2.568,4.453 l 74.277,62.319 a 7.507,7.507 0 0 0 4.828,1.76 h 96.957 a 7.515,7.515 0 0 0 4.831,-1.76 l 74.274,-62.319 a 7.508,7.508 0 0 0 2.567,-4.453 l 16.839,-95.483 a 7.538,7.538 0 0 0 -0.896,-5.066 l -48.474,-83.964002 a 7.526,7.526 0 0 0 -3.939,-3.306 l -91.112,-33.16 a 7.5,7.5 0 0 0 -5.138,0"
     id="path3" />
  <path
     fill="#ffffff"
     d="m 818.11401,144.34772 a 59.358,59.358 0 0 1 5.654,-4.821 37.76,37.76 0 0 1 6.228,-3.773 c 2.192,-1.052 4.559,-1.866 7.101,-2.452 2.542,-0.585 5.301,-0.876 8.281,-0.876 4.91,0 9.265,0.848 13.063,2.542 3.801,1.694 7.001,4.067 9.603,7.101 2.602,3.04 4.558,6.663 5.873,10.871 1.316,4.205 1.976,8.826 1.976,13.851 v 57.423 h -24.115 v -57.423 c 0,-5.025 -1.168,-8.929 -3.5,-11.706 -2.342,-2.775 -5.786,-4.162 -10.351,-4.162 -3.385,0 -6.569,0.73 -9.556,2.192 -2.981,1.462 -5.814,3.504 -8.498,6.137 v 64.962 h -24.202 v -90.389 h 14.903 c 3.04,0 5.057,1.403 6.056,4.211 z"
     id="path4" />
  <text
     xml:space="preserve"
     style="font-style:normal;font-variant:normal;font-weight:normal;font-stretch:normal;font-size:320px;font-family:Satoshi;-inkscape-font-specification:Satoshi;text-align:start;writing-mode:lr-tb;direction:ltr;text-anchor:start;fill:#000000"
     x="15.781265"
     y="893.06976"
     id="text4"><tspan
       sodipodi:role="line"
       id="tspan4"
       x="15.781265"
       y="893.06976"
       style="font-style:normal;font-variant:normal;font-weight:900;font-stretch:normal;font-size:320px;font-family:Satoshi;-inkscape-font-specification:'Satoshi Heavy'">Knative</tspan></text>
</svg>
