<?xml version="1.0" encoding="UTF-8" standalone="no"?>
<!-- Created with Inkscape (http://www.inkscape.org/) -->

<svg
   width="180.05528mm"
   height="62.641666mm"
   viewBox="0 0 180.05528 62.641667"
   version="1.1"
   id="svg1"
   inkscape:version="1.4 (e7c3feb1, 2024-10-09)"
   sodipodi:docname="logo-horizontal-full-color-dark.svg"
   inkscape:export-filename="logo-horizontal-full-color-dark.png"
   inkscape:export-xdpi="152.43637"
   inkscape:export-ydpi="152.43637"
   xmlns:inkscape="http://www.inkscape.org/namespaces/inkscape"
   xmlns:sodipodi="http://sodipodi.sourceforge.net/DTD/sodipodi-0.dtd"
   xmlns="http://www.w3.org/2000/svg"
   xmlns:svg="http://www.w3.org/2000/svg">
  <sodipodi:namedview
     id="namedview1"
     pagecolor="#ffffff"
     bordercolor="#000000"
     borderopacity="0.25"
     inkscape:showpageshadow="2"
     inkscape:pageopacity="0.0"
     inkscape:pagecheckerboard="0"
     inkscape:deskcolor="#d1d1d1"
     inkscape:document-units="mm"
     inkscape:zoom="0.53417909"
     inkscape:cx="176.90696"
     inkscape:cy="488.60018"
     inkscape:window-width="1800"
     inkscape:window-height="1097"
     inkscape:window-x="1613"
     inkscape:window-y="532"
     inkscape:window-maximized="0"
     inkscape:current-layer="g3" />
  <defs
     id="defs1" />
  <g
     inkscape:label="Layer 1"
     inkscape:groupmode="layer"
     id="layer1"
     transform="translate(6.7814374,-27.255935)">
    <g
       id="g2"
       transform="matrix(0.26458333,0,0,0.26458333,-134.83978,-226.74407)">
      <path
         d="m 667.5527,1133.017 -21.8981,-21.2621 20.9754,-21.9677 c 0,0 4.0816,-2.8662 6.8348,-0.113 2.7539,2.7538 -1.2315,10.1811 6.21,14.4417 0,0 5.8463,3.1028 14.7643,-5.8158 8.9179,-8.918 5.1296,-14.078 5.1296,-14.078 -4.2606,-7.4416 -11.6879,-3.4562 -14.4418,-6.2101 -2.7531,-2.7531 -0.012,-6.8716 -0.012,-6.8716 l 21.7143,-20.5532 61.6612,61.3431 -21.2928,21.2928 c 0,0 -2.7415,4.1185 0.012,6.8716 2.7539,2.7539 10.1812,-1.2315 14.4418,6.2094 0,0 3.7883,5.1607 -5.1297,14.0787 -8.9179,8.9179 -14.7642,5.8158 -14.7642,5.8158 -7.4415,-4.2606 -3.4561,-11.6879 -6.21,-14.4418 -2.7532,-2.7531 -6.8716,-0.012 -6.8716,-0.012 l -21.3548,21.3548 -21.38,-21.557 c 0,0 -3.9305,-2.6957 -6.674,0.049 -2.7441,2.7441 1.2665,10.1851 -6.1602,14.4205 0,0 -5.8359,3.082 -14.7849,-5.8669 -8.9484,-8.949 -5.1782,-14.0961 -5.1782,-14.0961 4.2355,-7.4267 11.6764,-3.4162 14.4205,-6.1597 2.7442,-2.7441 -0.012,-6.8723 -0.012,-6.8723 z"
         fill="#127be8"
         id="path1-4-2"
         sodipodi:nodetypes="cccscccsccccscscsccccccccc"
         style="fill:#b6d9ff;fill-opacity:1;stroke-width:0.646136" />
      <path
         d="m 561.704,1072.1329 22.3608,-22.3606 21.4646,21.4644 c 0,0 2.8919,4.1486 0.1032,6.9373 -2.7894,2.7894 -10.3227,-1.258 -14.6356,6.2824 0,0 -3.1396,5.9238 5.9095,14.9736 9.0492,9.0491 14.2777,5.213 14.2777,5.213 7.5398,-4.313 3.493,-11.8463 6.2817,-14.635 2.7894,-2.7893 6.9667,-0.01 6.9667,-0.01 l 21.2385,21.7518 -62.515,62.7363 -21.5878,-21.6137 c 0,0 -4.1779,-2.7829 -6.9667,0.01 -2.7893,2.7894 1.2581,10.3227 -6.2822,14.635 0,0 -5.2282,3.8361 -14.2774,-5.213 -9.0492,-9.0492 -5.9094,-14.9736 -5.9094,-14.9736 4.3129,-7.5404 11.8463,-3.493 14.6352,-6.2817 2.789,-2.7894 0.01,-6.9666 0.01,-6.9666 l -21.6691,-21.6689 21.835,-21.6552 c 0,0 2.729,-3.9822 -0.055,-6.7664 -2.7844,-2.7842 -10.3245,1.2749 -14.6249,-6.2578 0,0 -3.1302,-5.9192 5.9339,-14.9832 9.0642,-9.0647 14.286,-5.237 14.286,-5.237 7.5334,4.3007 3.4737,11.8405 6.2579,14.6247 2.7842,2.7848 6.9667,-0.01 6.9667,-0.01 z"
         fill="#0e5fb5"
         id="path2-3-9"
         sodipodi:nodetypes="cccscccsccccscccccccsccccc"
         style="fill:#1486ff;fill-opacity:1;stroke-width:0.646136" />
      <path
         d="m 605.8971,1071.6767 -21.8342,-21.9021 20.9115,-21.3277 c 0,0 4.0817,-2.8665 6.8348,-0.113 2.7539,2.7535 -1.2315,10.1808 6.2101,14.4417 0,0 5.8462,3.1023 14.7641,-5.8158 8.918,-8.9181 5.1297,-14.0785 5.1297,-14.0785 -4.2606,-7.4415 -11.6879,-3.456 -14.4418,-6.2095 -2.7531,-2.7535 -0.012,-6.872 -0.012,-6.872 l 21.3736,-21.21179 62.0019,62.00199 -21.2928,21.2928 c 0,0 -2.0283,3.8088 0.7248,6.5626 0.6334,0.6332 1.5367,0.5804 2.5946,0.645 0.997,0.061 2.0349,0.084 3.1693,0.226 0.4168,0.052 0.8642,0.2081 1.3024,0.2633 2.6057,0.3279 4.8346,1.7408 6.8525,5.2653 0,0 3.5981,5.2795 -5.3199,14.1975 -8.9179,8.9179 -14.7642,5.8158 -14.7642,5.8158 -4.6906,-2.6859 -5.2552,-6.4585 -5.4151,-9.6968 -0.05,-1.0089 -0.1837,-1.969 -0.2633,-2.8269 -0.07,-0.7571 -0.054,-1.4409 -0.5316,-1.918 -2.7532,-2.7532 -6.8716,-0.012 -6.8716,-0.012 l -21.3548,21.3548 -21.38,-21.5577 c 0,0 -3.9305,-2.6951 -6.674,0.049 -2.7441,2.7441 1.2665,10.185 -6.1602,14.4204 0,0 -2.2543,1.933 -6.1089,0.6858 -1.3006,-0.4208 -2.8977,-1.062 -4.5376,-2.1773 -1.3199,-0.8976 -2.9701,-2.4651 -4.4804,-3.9756 -8.949,-8.949 -5.4637,-14.6101 -5.4637,-14.6101 0.8614,-1.5107 2.0839,-3.005 3.1441,-3.7223 1.53,-1.0351 3.8259,-1.4608 5.4315,-1.6228 2.7517,-0.2776 4.5783,0.1655 5.9584,-1.2149 0.8412,-0.841 1.1656,-1.4693 1.211,-2.4117 0.1027,-2.132 -0.7086,-3.946 -0.7086,-3.946 z"
         fill="#b6d9ff"
         id="path3-6-8"
         sodipodi:nodetypes="cccccscccccccssscscssccccccssccsscsc"
         style="fill:#ffffff;fill-opacity:1;stroke-width:0.646136" />
    </g>
    <g
       id="g3"
       transform="matrix(0.26458333,0,0,0.26458333,-134.83978,-227.49929)">
      <path
         d="m 850.23307,1038.3156 q 0,8.5687 -2.45376,14.9563 -2.45376,6.3486 -7.28339,9.8929 -4.79068,3.5054 -11.87932,3.5054 -7.0497,0 -11.87933,-3.4275 -4.82962,-3.4664 -7.28338,-9.815 -2.45377,-6.3486 -2.45377,-15.1121 0,-8.5687 2.45377,-14.9173 2.45376,-6.3486 7.28338,-9.854 Q 821.5669,1010 828.6166,1010 q 7.08864,0 11.87932,3.4275 4.82963,3.4274 7.28339,9.7761 2.45376,6.3486 2.45376,15.112 z m -13.08673,0 q 0,-9.9708 -1.98638,-14.4889 -1.98638,-4.518 -6.54336,-4.518 -4.55699,0 -6.54337,4.557 -1.98638,4.518 -1.98638,14.4499 0,9.9709 2.02533,14.4889 2.02533,4.518 6.50442,4.518 4.67383,0 6.58231,-4.557 1.94743,-4.5959 1.94743,-14.4499 z m 43.19403,-15.6963 q 5.41385,0 8.72448,2.6875 3.31064,2.6874 4.82963,7.595 1.55794,4.9075 1.55794,11.6456 0,6.3876 -1.86953,11.4119 -1.86953,4.9855 -5.41385,7.8677 -3.54433,2.8432 -8.60764,2.8432 -6.03704,0 -9.81505,-4.3233 v 18.968 l -12.30776,1.2853 v -58.6177 h 10.90561 l 0.54528,4.6349 q 2.53166,-3.2327 5.5307,-4.5959 2.99904,-1.4022 5.92019,-1.4022 z m -3.81697,9.0751 q -2.14217,0 -3.77801,1.2853 -1.63584,1.2853 -2.99904,3.5053 v 17.449 q 1.2853,1.9085 2.68745,2.8043 1.4411,0.8958 3.38853,0.8958 3.27168,0 5.10227,-2.9601 1.83058,-2.999 1.83058,-9.9708 0,-5.1412 -0.74002,-7.9455 -0.74003,-2.8433 -2.14218,-3.9338 -1.40215,-1.1295 -3.34958,-1.1295 z m 38.32546,16.5531 q 0.42843,3.3885 1.75268,5.4918 1.36321,2.0642 3.46643,3.038 2.10322,0.9347 4.71278,0.9347 2.84325,0 5.49175,-0.9347 2.64851,-0.9348 5.10227,-2.4928 l 4.94647,6.6992 q -2.92114,2.4927 -7.08864,4.0896 -4.12856,1.5969 -9.42556,1.5969 -7.08865,0 -11.87933,-2.8043 -4.79068,-2.8432 -7.20549,-7.7897 -2.41481,-4.9465 -2.41481,-11.373 0,-6.1149 2.33691,-11.1004 2.33692,-5.0243 6.81601,-7.9844 4.51804,-2.9991 11.02245,-2.9991 5.92019,0 10.24348,2.5317 4.36225,2.5317 6.73811,7.2834 2.41482,4.7517 2.41482,11.4119 0,1.0516 -0.0779,2.259 -0.0389,1.2074 -0.1558,2.1422 z m 7.63392,-17.3711 q -3.31063,0 -5.33596,2.3759 -2.02532,2.3759 -2.45376,7.595 h 15.18996 q -0.0389,-4.5181 -1.75269,-7.2445 -1.71374,-2.7264 -5.64755,-2.7264 z m 28.43252,34.4695 v -41.3634 h 10.74981 l 0.85687,4.7907 q 2.76535,-3.1159 5.84229,-4.6349 3.07694,-1.519 7.01075,-1.519 5.29701,0 8.335,3.2328 3.03799,3.2327 3.03799,9.1139 v 30.3799 h -12.30776 v -26.8355 q 0,-2.5317 -0.35053,-4.0117 -0.35054,-1.519 -1.24636,-2.1422 -0.85687,-0.6621 -2.37586,-0.6621 -1.28531,0 -2.53166,0.5842 -1.20741,0.5453 -2.37587,1.5969 -1.16846,1.0516 -2.33691,2.5316 v 28.9388 z"
         id="text4-5-5"
         style="font-weight:bold;font-size:77.8972px;font-family:'Fira Code';-inkscape-font-specification:'Fira Code Bold';fill:#ffffff;stroke-width:1.1414;paint-order:stroke fill markers"
         aria-label="Open" />
      <path
         d="m 819.7752,1106.2717 v 12.9699 h 18.69532 v 8.9582 H 819.7752 v 13.7878 h 22.55124 v 9.1529 h -35.32639 v -53.9828 h 35.28744 l -1.28531,9.114 z m 71.19807,3.5054 -13.78781,41.3634 h -14.48888 l -13.9436,-41.3634 h 13.28148 l 8.06236,31.9378 8.41289,-31.9378 z m 18.38377,24.265 q 0.42843,3.3885 1.75268,5.4917 1.3632,2.0643 3.46643,3.038 2.10322,0.9348 4.71278,0.9348 2.84325,0 5.49175,-0.9348 2.64851,-0.9348 5.10227,-2.4927 l 4.94647,6.6992 q -2.92114,2.4927 -7.08864,4.0896 -4.12856,1.5969 -9.42557,1.5969 -7.08864,0 -11.87932,-2.8043 -4.79068,-2.8433 -7.20549,-7.7898 -2.41481,-4.9464 -2.41481,-11.373 0,-6.1149 2.33691,-11.1003 2.33692,-5.0244 6.81601,-7.9845 4.51804,-2.999 11.02245,-2.999 5.92019,0 10.24348,2.5316 4.36225,2.5317 6.73811,7.2834 2.41481,4.7518 2.41481,11.412 0,1.0516 -0.0779,2.259 -0.0389,1.2074 -0.1558,2.1422 z m 7.63392,-17.3711 q -3.31063,0 -5.33596,2.3759 -2.02532,2.3758 -2.45376,7.5949 h 15.18996 q -0.0389,-4.518 -1.75269,-7.2444 -1.71374,-2.7264 -5.64755,-2.7264 z m 28.822,34.4695 v -8.2571 h 5.45281 v -24.9271 h -5.45281 v -8.1792 h 14.83942 l 2.25902,9.3087 q 2.22007,-5.336 5.64755,-7.9455 3.46642,-2.6096 8.45184,-2.6096 2.10323,0 3.73907,0.3506 1.63584,0.3116 3.07694,0.8958 l -3.73907,10.1656 q -1.12951,-0.3116 -2.25902,-0.4674 -1.12951,-0.1558 -2.49271,-0.1558 -4.05065,0 -7.12759,3.3106 -3.03799,3.3107 -4.63489,8.4129 v 11.8404 h 8.17921 v 8.2571 z m 28.00405,-24.0702 v -12.0741 l 1.83058,-5.2191 h 8.17921 l -2.29797,17.2932 z m 29.01669,6.9718 q 0.4285,3.3885 1.7527,5.4917 1.3632,2.0643 3.4664,3.038 2.1033,0.9348 4.7128,0.9348 2.8433,0 5.4918,-0.9348 2.6485,-0.9348 5.1022,-2.4927 l 4.9465,6.6992 q -2.9211,2.4927 -7.0886,4.0896 -4.1286,1.5969 -9.4256,1.5969 -7.0886,0 -11.87931,-2.8043 -4.79068,-2.8433 -7.20549,-7.7898 -2.41481,-4.9464 -2.41481,-11.373 0,-6.1149 2.33691,-11.1003 2.33692,-5.0244 6.81601,-7.9845 4.51799,-2.999 11.02249,-2.999 5.9201,0 10.2434,2.5316 4.3623,2.5317 6.7382,7.2834 2.4148,4.7518 2.4148,11.412 0,1.0516 -0.078,2.259 -0.039,1.2074 -0.1558,2.1422 z m 7.634,-17.3711 q -3.3107,0 -5.336,2.3759 -2.0253,2.3758 -2.4538,7.5949 h 15.19 q -0.039,-4.518 -1.7527,-7.2444 -1.7137,-2.7264 -5.6475,-2.7264 z m 45.0246,26.9914 q 3.0769,0 4.9464,-0.9737 1.9085,-0.9738 1.9085,-2.9212 0,-1.3242 -0.74,-2.2201 -0.74,-0.8958 -2.8433,-1.7137 -2.1032,-0.8179 -6.2317,-1.9474 -3.778,-1.0127 -6.6992,-2.5706 -2.8822,-1.558 -4.518,-4.0117 -1.5969,-2.4538 -1.5969,-6.115 0,-3.7001 2.0643,-6.5823 2.0642,-2.8822 6.0759,-4.518 4.0117,-1.6748 9.8151,-1.6748 5.5307,0 9.6203,1.4411 4.1285,1.4021 7.1276,3.5833 l -4.9075,7.2444 q -2.5706,-1.5969 -5.5307,-2.5317 -2.9601,-0.9737 -5.9592,-0.9737 -2.999,0 -4.4791,0.8179 -1.4411,0.779 -1.4411,2.3759 0,1.0516 0.7401,1.8306 0.7789,0.74 2.8822,1.5579 2.1032,0.779 6.1538,1.9475 4.0117,1.1295 6.9718,2.6095 2.9991,1.4801 4.6349,3.9728 1.6359,2.4537 1.6359,6.5044 0,4.518 -2.6875,7.595 -2.6874,3.038 -7.1276,4.557 -4.4401,1.519 -9.7371,1.519 -5.9981,0 -10.5941,-1.7138 -4.5959,-1.7137 -7.8286,-4.518 l 6.1928,-6.9329 q 2.4148,1.8696 5.4528,3.1159 3.0769,1.2464 6.6992,1.2464 z m 67.3811,5.0633 q -2.4148,1.5579 -5.8423,2.6485 -3.4275,1.0906 -7.7118,1.0906 -8.1013,0 -12.0351,-4.1286 -3.9338,-4.1675 -3.9338,-11.2951 v -18.7732 h -8.6856 v -8.4908 h 8.6856 v -8.9582 l 12.3077,-1.48 v 10.4382 h 13.3204 l -1.2074,8.4908 h -12.113 v 18.7732 q 0,3.0769 1.4022,4.4012 1.4021,1.3243 4.4791,1.3243 2.1811,0 3.9727,-0.5064 1.8306,-0.5453 3.2717,-1.3632 z"
         id="text8-2"
         style="font-weight:bold;font-size:77.8972px;font-family:'Fira Code';-inkscape-font-specification:'Fira Code Bold';fill:#62aeff;stroke-width:1.76648;paint-order:stroke fill markers"
         aria-label="Everest" />
    </g>
  </g>
</svg>
