<svg xmlns="http://www.w3.org/2000/svg" role="img" viewBox="30.27 -0.23 443.46 505.96"><style>svg {enable-background:new 0 0 504 504}</style><style>.st0{fill:none}.st1{fill:#67cfe3}.st2{fill:#fff}.st3{fill:#dfcaa3}.st4{fill:#231f20}.st5{fill:#648c1a}</style><path d="M298.3 202.9c-6.3-3.8-13.7-6-21.6-6-22.9 0-41.5 18.6-41.5 41.5 0 15 8 28.2 20 35.5 6.3 3.8 13.6 6 21.5 6 22.9 0 41.5-18.6 41.5-41.5 0-15-8-28.2-19.9-35.5zm-108.7 65.4c0-15-8-28.2-19.9-35.4-6.3-3.8-13.7-6-21.6-6-22.9 0-41.5 18.6-41.5 41.5 0 15 8 28.2 20 35.5 6.3 3.8 13.6 6 21.5 6 22.9-.1 41.5-18.7 41.5-41.6z" class="st0"/><path d="M203.6 349.6c2.4 4.6 5.6 8.5 9.5 8.5.8 0 1.6-.2 2.5-.5 4-1.6 4.2-8.6 3.2-15.3-5.8 1.9-10.8 4.7-15.2 7.3z" class="st1"/><path d="M402 372.3v-.2c-1.7-12.2-6.9-17.7-11.5-22.5-4.3-4.5-8.3-8.8-7-16.6 1.2-7.2 6.9-11.7 16.3-12.8-5.7-38.5-14-87.1-24.8-128.5-5.4-20.7-13.8-35.1-25.2-44.6-13 6.7-28.6 14-46.1 21.5-12.6 5.5-25.6 10.8-38 15.7-10 10.7-20.9 21.2-27.5 24.3-4.8 2.1-9 3-12.7 3-8 0-13.3-4-15.9-7.5-3 .8-5.4 1.3-7.1 1.5-2 .2-4.8.5-8.4.7 1.4 3.6.8 7.9-1.8 11.1-2.9 3.5-7.6 5.3-14.3 5.3-9.6 0-23.3-3.7-41.6-11.1-2.7-1.1-5.2-2.1-7.4-2.9h-4.2c-17.5 0-31.1-.5-41.8-1.4-11.7 24.3-6.6 51.2-2.3 73.4 4.1 21.3 18.4 59.2 31.6 91.8 4.9 12.1 9.7 23.4 13.7 32.9 35.8 3.2 81.8 5.1 131.9 5.1 59.6 0 113.3-2.7 151.1-7-3-11.4-6.4-27.2-7-31.2zm-275.4-68.5c-12-7.3-20-20.4-20-35.5 0-22.9 18.6-41.5 41.5-41.5 7.9 0 15.3 2.2 21.6 6 11.9 7.3 19.9 20.4 19.9 35.4 0 22.9-18.6 41.5-41.5 41.5-7.8.1-15.2-2.1-21.5-5.9zM271.2 338c-4.3 1.9-10.5 2.7-20.4 2.8 0 .9.1 1.7.1 2.3.4 5.7-.9 10.2-4 13.5-2.8 3-6.8 4.6-11.3 4.6-2 0-4.1-.3-5.7-.9-1.8-.7-3.3-1.8-4.7-3.6-1.3 3.7-3.6 6.3-6.9 7.7-1.7.7-3.4 1.1-5.2 1.1-6.1 0-11.4-4.2-15.7-12.1-.6.3-1.2.7-1.7 1-3 1.6-6.6 2.4-10.4 2.4-7.3 0-14.1-2.8-18.2-7.6-3.4-3.9-4.8-8.9-4.1-14.1 2.2-15.9 23.2-22.3 25.6-23l4.9-1.4 3.3 3.9c.4.5 2.8 2.8 11.8 2.8 3.4 0 7.3-.3 11.7-1 14.4-2.3 19.9-13.8 20.3-14.5l2-4.7h5.2c31.2.3 36 14 36.8 18.2 1.4 9.8-3.5 18.3-13.4 22.6zm5.5-58.1c-7.9 0-15.2-2.2-21.5-6-12-7.3-20-20.4-20-35.5 0-22.9 18.6-41.5 41.5-41.5 7.9 0 15.3 2.2 21.6 6 11.9 7.3 19.9 20.4 19.9 35.4 0 23-18.6 41.6-41.5 41.6z" class="st1"/><path d="M247.5 305s-7 16-26.2 19c-5 .8-9.3 1.1-12.9 1.1-10.3 0-15.3-2.7-17.8-5.6 0 0-18.4 5.3-20 16.6-1.2 8.5 7.2 12.8 14.6 12.8 2.5 0 4.9-.5 6.7-1.5 7.4-4 18.4-12.6 33.2-14.5 1.3-.2 3.2-.2 5.4-.2 5 0 11.9.3 18.6.3 7.6 0 14.9-.4 18.9-2.2 9.1-4 9.1-10.7 8.5-14.1-.6-3.8-6.1-11.5-29-11.7zm-4 35.7c-1.7 0-3.5 0-5.2-.1-2.9-.1-5.5-.1-7.8-.1-1.8 0-3.2 0-4.3.2 1.7 6.1 3.9 12 6.2 12.9.7.2 1.8.5 3.2.5 3.7 0 8.8-1.8 8.1-10.4-.1-.9-.1-1.9-.2-3z" class="st1"/><path d="M82.8 169.3s-.2-.9-.5-2.4-.7-3.7-1.2-6.2c-.2-1.2-.4-2.6-.5-3.9-.1-1.3-.1-2.8.2-3.8.1-.5.3-.9.5-1.1.2-.2.3-.2.6-.3h.2l.3-.1c.1 0 0 .1 0 .1h-.2.2c.3.1.8.4 1.3.7 1 .7 2.1 1.9 3.1 3.1 1 1.2 2 2.5 2.9 3.7 1.9 2.5 3.6 5 5.1 7.1 1.5 2.1 2.8 3.9 3.8 5.1.9 1.2 1.5 1.9 1.5 1.9s0-.2-.1-.6c-.1-.4-.1-1-.3-1.8-.3-1.5-.8-3.7-1.6-6.3-.8-2.5-2-5.5-3.6-8.5-.8-1.5-1.7-3-2.8-4.5-1.1-1.5-2.4-3-4.1-4.3-.9-.7-2-1.3-3.3-1.7-.4-.1-.7-.2-1.1-.2h-1.5c-.2 0-.6.1-.7.1l-.3.1-.3.1-.4.1-.1.1-.2.1c-1.3.5-2.5 1.6-3.2 2.8-.7 1.2-1 2.4-1.1 3.5-.2 2.2.2 3.9.7 5.5.5 1.6 1.1 3 1.7 4.2 1.2 2.5 2.5 4.3 3.5 5.5.5.6.9 1.1 1.2 1.4.1.3.3.5.3.5zm247.1-70.6l-.3-.5-.4-.5c-.4-.6-1.9-1.6-2-1.6l-.2-.1h-.1l-.3-.1h-.1l-.4-.1-.8-.3c-.6-.2-1.2-.3-1.8-.4-.6-.1-1.3-.1-1.9-.1-.6 0-1.3.1-1.9.2-2.5.4-4.8 1.7-6.5 3.2-1.7 1.5-3 3.1-4.1 4.8-2.1 3.3-3.3 6.7-4.1 9.6-.8 2.9-1.1 5.3-1.2 7.1-.1.9-.1 1.5-.1 2v.7s.5-.9 1.3-2.4 2-3.6 3.4-6 3.2-5.2 5.2-7.7c1-1.2 2.2-2.4 3.4-3.3 1.2-.9 2.5-1.5 3.7-1.7.3 0 .6-.1.9-.1.3 0 .6 0 1 .1.3.1.7.1 1 .2l.8.2.3.1h.1s.1.1.1.2c.2.3.3.9.4 1.6.1 1.4-.1 3-.3 4.5-.3 1.5-.6 3-.9 4.4-.6 2.7-1.3 5.1-1.7 6.7-.4 1.6-.6 2.6-.6 2.6s.7-.7 1.8-2.1c1.1-1.3 2.5-3.3 4-6 .7-1.3 1.4-2.8 2.1-4.4.6-1.7 1.2-3.5 1.4-5.7.1-1.1 0-2.4-.4-3.8-.4-.6-.6-1-.8-1.3zM106.7 268.3c0-22.9 18.6-41.5 41.5-41.5 7.9 0 15.2 2.2 21.5 6-6.3-3.8-13.7-6-21.6-6-22.9 0-41.5 18.6-41.4 41.5-.1 15 7.9 28.2 19.9 35.4-11.9-7.2-19.9-20.4-19.9-35.4zm148.5 5.6c-11.9-7.3-19.9-20.4-19.9-35.4 0-22.9 18.6-41.5 41.5-41.5 7.9 0 15.2 2.2 21.5 6-6.3-3.8-13.7-6-21.6-6-22.9 0-41.5 18.6-41.5 41.5 0 14.9 8 28.1 20 35.4z" class="st0"/><path d="M146.2 449.2c-7.1 1.6-28 13-46.1 16.4-18.1 3.4-33.7 5.3-39.2 7.3s-9.7 6.1 1 10.1c10.8 4.1 62.9 5.5 67.6 0 4.7-5.5-3.2-7.9-14.6-7.7-8.1.1-7.1-2.7-7.1-3 0 0 .5-3.6 13-5.3 12.5-1.7 67.6-6.9 66.5-12.8-1-5.8-34-6.6-41.1-5z" class="st2"/><ellipse cx="110.4" cy="492.6" class="st2" rx="10.8" ry="3.1" transform="rotate(-12.275 110.448 492.724)"/><ellipse cx="85.4" cy="491.2" class="st2" rx="11.4" ry="3" transform="matrix(.9968 -.07936 .07936 .9968 -38.713 8.328)"/><ellipse cx="65.4" cy="488.7" class="st2" rx="7.6" ry="2.4" transform="rotate(-7.758 65.398 488.552)"/><ellipse cx="50.7" cy="486.4" class="st2" rx="7.4" ry="1.9" transform="rotate(-8.27 50.587 486.373)"/><ellipse cx="47.3" cy="482.3" class="st2" rx="7.4" ry="1.9" transform="rotate(-8.27 47.241 482.214)"/><ellipse cx="46.5" cy="477.6" class="st2" rx="6.4" ry="1.7" transform="rotate(-8.27 46.38 477.583)"/><path d="M254.5 454.9c-12.4.6-40.4-.8-44.2 5.7-3.9 6.5 11.4 8.9 35.3 6.9s57.8-4.7 59.2-12c1.4-7.3-6.3-5.9-7.1-10.5-.8-4.7 8.5-4.7 10.3-11.6 1.8-6.9-12.6-6.1-25.4-6.1-12.8 0-34.1 1.2-36.1 7.9s9.7 6.7 18.1 8.3c8.3 1.6 5.9 4.7 5.9 4.7-.4 4.3-3.6 6.1-16 6.7z" class="st2"/><ellipse cx="221.4" cy="472.7" class="st2" rx="10.7" ry="3.5"/><ellipse cx="249" cy="471.9" class="st2" rx="7.2" ry="3.2"/><ellipse cx="271.3" cy="469.7" class="st2" rx="7.8" ry="2.6"/><ellipse cx="288.5" cy="466.8" class="st2" rx="5.7" ry="2.7"/><ellipse cx="303.4" cy="463.6" class="st2" rx="5.8" ry="2.7"/><path d="M51.1 388.8c0 3.5 7.5 6.7 20.9 9.6-1-6.9-.4-13.9.5-19.4-13.7 3-21.4 6.3-21.4 9.8zm395.4-8.9c-.2.6-.4 1.1-.7 1.7-1.6 3.9-4 7.3-7 10.1-6.1 5.7-11.4 9.2-16.1 10.4 26.2-3.7 41.7-8.3 41.7-13.2.1-3.3-6.3-6.3-17.9-9z" class="st2"/><path d="M96.8 416.7c9.7 0 16.6-5.3 21.4-12.2-5.5-12.8-14.5-34.2-23.1-56.9-2.3 2-5 5-7.9 9.5-7.2 11.2-13.2 37.3-5.7 51 3.1 5.8 8.1 8.6 15.3 8.6zm343.4-64.6c-5.7-14.8-17.8-25.2-29.5-25.5h-.4s-2.3-.3-5.3-.3c-6.3 0-14.1 1.4-15.2 7.8-.7 4.5 1.2 6.8 5.4 11.1 4.7 5 11.2 11.8 13.2 26 2.2 16.3 6.2 24.6 11.8 24.6 2.6 0 7.4-1.6 15.3-9.1 9.7-9.2 8.8-23.9 4.7-34.6z" class="st3"/><path d="M235.3 238.4c0 15 8 28.2 19.9 35.4 6.3 3.8 13.6 6 21.5 6 22.9 0 41.5-18.6 41.5-41.5 0-15-8-28.2-19.9-35.4-6.3-3.8-13.6-6-21.5-6-22.9 0-41.5 18.6-41.5 41.5zm48.9 13.9c0 7.2-5.9 13.1-13.1 13.1-7.2 0-13.1-5.9-13.1-13.1 0-7.2 5.9-13.1 13.1-13.1 7.3 0 13.1 5.8 13.1 13.1zm-177.5 16c0 15 8 28.2 19.9 35.4 6.3 3.8 13.6 6 21.5 6 22.9 0 41.5-18.6 41.5-41.5 0-15-8-28.2-19.9-35.4-6.3-3.8-13.6-6-21.5-6-22.9 0-41.5 18.6-41.5 41.5zm50.8 14.6c0 7.2-5.9 13.1-13.1 13.1-7.2 0-13.1-5.9-13.1-13.1 0-7.2 5.9-13.1 13.1-13.1 7.3 0 13.1 5.9 13.1 13.1z" class="st2"/><circle cx="144.5" cy="282.9" r="13.1" class="st4"/><circle cx="271.2" cy="252.3" r="13.1" class="st4"/><path d="M108.5 202.1c-1.4-.3-2.3-.4-2.6-.4-5.5.3-10.6-3.5-11.6-9.1-.1-.6-.1-1.1-.2-1.7-3 1.7-6 3.5-8.8 5.5l-5 3.5-3.7-4.8c-1.1-1.5-6.2-8.4-10.9-17.5-8.9 4.2-15.8 8.8-17.5 13.1-.3.8-.2 1.3.1 1.7 1.5 2.1 10.1 8.6 60.2 9.7zm237-82c-1.7 9.9-4.9 20.8-7 23.8l-2 2.8c9-4.4 17.1-8.6 23.9-12.4 23.7-13.3 26.7-19.1 27-20.6.2-1 0-1.3-.1-1.4-.3-.3-1.9-1.9-9.4-1.9-8.2 0-19.7 1.9-31.6 4.5-.2 1.6-.5 3.3-.8 5.2zm-9.2 26.7l-3.4-.3c-.1 0-6.3-.5-14.9-.5-8.9 0-20.5.5-30.1 2.8 1.8 3.8 1.4 8.5-1.5 11.9-2.3 2.8-6.3 7.5-11.1 12.9 8.4-3.4 17.1-7.1 25.8-10.8 12.9-5.5 24.7-11 35.2-16zm-227.3-10c10.2 2.8 21.7 4.2 34.3 4.2 48.8 0 102.4-21.1 123.3-30.2l1.3-.6c-.2-3.1.1-6.5.8-9.9 1.3-6.1 4-11.2 7.2-14.6-.6-2.3-1.1-4-1.5-4.9-6.9-3.7-64.2-25-94.1-25-3 0-5.6.2-7.7.7-26.5 5.4-66.7 51.4-68.1 57.9-.4 2.8-.3 11.7 0 21.2l4.5 1.2zm103.5 51.1c4.4-2.8 10-2.1 13.6 1.3.6-.1 1.5-.3 2.9-1 5.5-2.6 25.3-23.7 40.3-41.8.5-.7 1.1-1.2 1.8-1.7-34.3 14.8-82.3 31.1-128 31.1-7.3 0-14.3-.4-20.8-1.3l1 3-5.7 2.2s-1 .4-2.7 1.1c7.4 1.7 17.3 5.1 29.8 10.1 22.9 9.2 31.6 9.6 33.8 9.5 3.1-1.6 6.9-1.7 10.1-.1 5.9-.4 10.5-.7 13.3-1 1.3-.1 3.1-.5 5.5-1.1-.3-4.1 1.5-8 5.1-10.3z" class="st5"/><path d="M269.1 116.6l-2.1.9c-.2.1-.3.1-.5.2-.7.3-1.4.6-2.2.9-.1.1-.3.1-.4.2l-2.1.9c-.1.1-.3.1-.4.2-.8.3-1.6.7-2.4 1-.2.1-.4.1-.5.2-.9.3-1.7.7-2.6 1-.9.4-1.8.7-2.7 1.1-.2.1-.4.2-.6.2-.9.4-1.9.7-2.8 1.1-.1.1-.3.1-.4.2-.9.3-1.8.7-2.7 1-.2.1-.3.1-.5.2-1 .4-2 .7-3 1.1-.2.1-.4.2-.6.2-1 .4-2.1.7-3.1 1.1h-.1c-1.1.4-2.2.8-3.3 1.1-.2.1-.5.2-.7.2-1.1.4-2.2.8-3.3 1.1-.1 0-.3.1-.5.1-1 .3-2.1.7-3.1 1-.2.1-.4.1-.6.2-1.1.4-2.3.7-3.5 1.1-.2.1-.5.1-.7.2-1.1.4-2.3.7-3.5 1.1-.1 0-.1 0-.2.1-1.2.4-2.4.7-3.7 1.1-.3.1-.5.2-.8.2-1.2.4-2.5.7-3.7 1-.2 0-.3.1-.5.1-1.2.3-2.3.6-3.5.9-.2.1-.5.1-.7.2-1.3.3-2.5.6-3.8 1-.3.1-.5.1-.8.2-1.2.3-2.5.6-3.7.9-.1 0-.2.1-.3.1l-3.9.9c-.3.1-.6.1-.9.2-1.3.3-2.6.6-4 .8-.2 0-.3.1-.5.1-1.2.2-2.5.5-3.7.7-.3 0-.5.1-.8.1-1.3.2-2.6.5-4 .7-.3 0-.5.1-.8.1-1.3.2-2.5.4-3.8.6-.1 0-.3 0-.4.1-1.3.2-2.7.4-4.1.6-.3 0-.6.1-.9.1-1.4.2-2.7.3-4.1.5h-.4c-1.3.1-2.5.3-3.8.4-.3 0-.5.1-.8.1-1.3.1-2.7.2-4 .3-.3 0-.5 0-.8.1-1.3.1-2.5.2-3.8.2h-.5c-1.4.1-2.7.1-4 .2h-.9c-1.4 0-2.7.1-4.1.1h-.4c-1.3 0-2.6 0-3.9-.1h-.8c-1.3 0-2.7-.1-4-.2h-.8c-1.3-.1-2.6-.2-3.8-.3h-.3c-1.3-.1-2.7-.3-4-.4-.3 0-.6-.1-.9-.1-1.3-.2-2.6-.3-3.9-.5-.2 0-.4-.1-.5-.1l-3.6-.6c-.2 0-.5-.1-.7-.1-1.3-.2-2.5-.5-3.8-.8-.3-.1-.5-.1-.8-.2-1.3-.3-2.6-.6-3.9-1 1.2 1.8 2.4 3.7 3.5 5.8 4.2 7.4 7.3 14.8 9 19.1.7.1 1.5.2 2.3.3.3 0 .5.1.8.1.5.1 1.1.1 1.7.2.3 0 .6.1 1 .1.5.1 1.1.1 1.7.2.4 0 .7.1 1.1.1.6 0 1.1.1 1.7.1.4 0 .8.1 1.3.1.6 0 1.1.1 1.7.1.4 0 .9 0 1.4.1.6 0 1.1.1 1.7.1h1.5c.6 0 1.2 0 1.8.1h7.5c.9 0 1.7 0 2.6-.1h1.1c.9 0 1.9-.1 2.8-.1h.7c1.2-.1 2.4-.1 3.7-.2.3 0 .6 0 .9-.1 1-.1 2-.2 2.9-.2.4 0 .8-.1 1.2-.1l3.3-.3c.3 0 .5-.1.8-.1 1.3-.2 2.7-.3 4.1-.5.4 0 .7-.1 1.1-.1 1.1-.1 2.2-.3 3.3-.5.4-.1.9-.1 1.3-.2 1.2-.2 2.5-.4 3.7-.6.3 0 .5-.1.8-.1 1.5-.3 3-.5 4.6-.8.4-.1.8-.2 1.2-.2 1.2-.2 2.4-.5 3.6-.7l1.5-.3 4.2-.9c.2-.1.5-.1.7-.2 1.6-.4 3.3-.8 5-1.2.5-.1.9-.2 1.4-.4 1.3-.3 2.6-.6 3.9-1 .5-.1 1.1-.3 1.6-.4 1.6-.4 3.1-.8 4.8-1.3.2-.1.4-.1.6-.2 1.8-.5 3.6-1 5.5-1.6.5-.2 1-.3 1.6-.5 1.4-.4 2.8-.9 4.2-1.3.6-.2 1.2-.4 1.7-.6 1.8-.6 3.5-1.2 5.3-1.8.2-.1.3-.1.5-.2 2-.7 3.9-1.4 5.9-2.1.6-.2 1.2-.4 1.7-.6 1.5-.5 3-1.1 4.6-1.7.6-.2 1.2-.5 1.9-.7 2-.7 4-1.5 6-2.3.1 0 .2-.1.3-.1 2.1-.8 4.3-1.7 6.4-2.6.6-.3 1.3-.5 1.9-.8 1.6-.7 3.3-1.4 4.9-2.1.7-.3 1.3-.6 2-.8 2.2-1 4.5-2 6.7-3 .9-3 2.2-6.7 3.8-10.8h-.4c-.6 0-1.3-.1-1.9-.2-3.7-.5-6.5-3.5-8-8z" class="st3"/><path d="M143.4 147.3h-.4.4c-.1 0-.1 0 0 0z" class="st5"/><path d="M80.3 126.7v3.2z" class="st1"/><path d="M286.6 81.4c3.9.9 6.8 4.1 8.3 9.2.2.8.4 1.7.6 2.6 8.9-12.5 18.6-18.9 29-18.9 4.4 0 8.2 1 11.4 3 5.5-6.7 8.9-11.2 8.9-11.2-4.1.7-12.7 1.9-12.7 1.9C364.6 56 362 23.5 362 23.5c0 5.6-16.8 19.1-16.8 19.1.7-4.9-1.9-11.2-1.9-11.2.7 6.4-19.4 22.8-19.4 22.8 1.5-3 .4-8.2.4-8.2-1.1 6-10.1 8.2-10.1 8.2 5.6-6.7 16.1-42.2 8.2-44.5-7.8-2.2-18.7 23.2-18.7 23.2-.4-6-3.7-6-3.7-6 1.5 18.7-13.5 33.6-13.5 33.6-1.1-3.7-7.1-5.6-7.1-5.6 1.4 3 .6 13.8-.2 21.5-.3 3-.6 5.5-.8 6.9 2-1.4 4.1-2.2 6.2-2.2.7.1 1.4.2 2 .3z" class="st3"/><path d="M278.4 118.7c1.2.3 2.7-.4 4.2-1.8 1-2.3 2-4.6 3.2-7 1-2.2 2.1-4.2 3.2-6.2.8-4.1.7-8.2-.2-11.3-.8-2.7-2.1-4.5-3.5-4.8-.2 0-.4-.1-.5-.1-3.2 0-8 5.6-9.8 14-1 4.4-1 8.9 0 12.3.6 2.7 2 4.5 3.4 4.9z" class="st2"/><path d="M324.8 101.7h-.1.1c-.1 0-.1 0 0 0-.1 0-.1 0 0 0zm-.4-21c-25.1 0-41.2 51.3-44.3 62 .9.2 1.8.5 2.6.9 10.8-3.2 24.7-4 35.3-4 8.9 0 15.4.5 15.4.5 2.8-3.9 19-59.4-9-59.4zm6.4 22.8c-.2 2.2-.8 4-1.4 5.7-.6 1.6-1.4 3.1-2.1 4.4-1.4 2.6-2.9 4.6-4 6-1.1 1.4-1.8 2.1-1.8 2.1s.2-1 .6-2.6c.4-1.7 1-4 1.7-6.7.3-1.4.6-2.8.9-4.4.3-1.5.4-3.1.3-4.5-.1-.7-.2-1.3-.4-1.6 0-.1-.1-.1-.1-.2l-.3-.1-.8-.2c-.3-.1-.7-.1-1-.2-.3-.1-.6 0-1-.1-.3 0-.6.1-.9.1-1.2.2-2.5.8-3.7 1.7-1.2.9-2.4 2.1-3.4 3.3-2.1 2.5-3.8 5.3-5.2 7.7-1.4 2.4-2.6 4.5-3.4 6-.8 1.5-1.3 2.4-1.3 2.4v-.7c0-.5 0-1.1.1-2 .1-1.7.5-4.2 1.2-7.1.8-2.9 2-6.2 4.1-9.6 1.1-1.7 2.4-3.3 4.1-4.8 1.7-1.5 4-2.7 6.5-3.2.6-.1 1.3-.1 1.9-.2.6 0 1.3 0 1.9.1.6.1 1.2.2 1.8.4l.8.3.4.1h.1l.3.1h.1l.2.1c.1 0 1.6 1 2 1.6l.4.5.3.5c.2.4.4.7.5 1.1.7 1.7.7 2.9.6 4z" class="st1"/><path d="M324.7 101.6c-.1 0-.1 0 0 0-.1 0-.1 0 0 0 0 .1 0 0 0 0z" class="st1"/><path d="M324.7 101.7zm-99.2 103.1c3 0 6.4-.8 9.9-2.4 7.4-3.3 25.4-21.4 45.9-46 .7-.9 1.1-2 1-3.2-.1-1.2-.7-2.2-1.6-3-1-.8-2.1-1-2.8-1-1.3 0-2.5.6-3.4 1.6-8.9 10.7-34 39.5-42.6 43.6l-.1.1c-1.7.8-3.2 1.2-4.6 1.5l-3.3.5-2.4-2.3c-.8-.8-1.9-1.2-3-1.2-.8 0-1.6.2-2.3.7-1 .6-1.7 1.6-1.9 2.8-.3 1.1 0 2.3.6 3.3.2.4 3.4 5 10.6 5zm-41.8 1c-.7 0-1.4.2-2.1.5l-1.3.7-1.5.1h-1.1c-4.1 0-14.2-1.3-35.7-10-23.7-9.6-33-11-36.5-11-.7 0-1.1.1-1.2.1-1.2.2-2.2.9-2.8 1.8-.7 1-.9 2.1-.7 3.3.4 2.1 2.2 3.6 4.3 3.6h1.3c2.6.2 11 1.7 32.5 10.3 17.4 7 30.5 10.6 39.1 10.6 4.5 0 7.6-1 9.1-2.9.7-.9 1.1-2 1-3.2s-.7-2.2-1.6-3c-1-.7-2.1-.9-2.8-.9z" class="st2"/><path d="M115.3 173.8s-14.9-43.9-35.1-43.9c-2.6 0-5.3.7-8.1 2.4-24.1 14.6 9.5 58.9 9.5 58.9 14.7-10.1 33.7-17.4 33.7-17.4zm-37.6-11.9c-.6-1.2-1.2-2.6-1.7-4.2-.4-1.6-.9-3.4-.7-5.5.1-1.1.4-2.3 1.1-3.5.7-1.2 2-2.3 3.2-2.8l.2-.1.1-.1.4-.1.3-.1.3-.1c.1 0 .5-.1.7-.1h1.5c.4.1.7.1 1.1.2 1.4.4 2.4 1 3.3 1.7 1.8 1.4 3 2.8 4.1 4.3 1.1 1.5 2 3 2.8 4.5 1.6 3 2.8 5.9 3.6 8.5.8 2.5 1.3 4.7 1.6 6.3.2.8.2 1.4.3 1.8 0 .4.1.6.1.6s-.6-.7-1.5-1.9-2.3-3-3.8-5.1c-1.5-2.1-3.2-4.6-5.1-7.1-.9-1.3-1.9-2.5-2.9-3.7-1-1.2-2.1-2.3-3.1-3.1-.5-.4-1-.6-1.3-.7h-.2.2s.1-.1 0-.1l-.3.1h-.2c-.3.1-.4.2-.6.3-.2.2-.4.6-.5 1.1-.3 1-.3 2.5-.2 3.8.1 1.4.3 2.7.5 3.9.4 2.5.9 4.6 1.2 6.2.3 1.5.5 2.4.5 2.4s-.2-.2-.4-.5c-.3-.3-.7-.8-1.2-1.4-.9-1.2-2.2-3.1-3.4-5.5z" class="st1"/><path d="M219 309.7c.2 0 .5-.1.7-.1.3 0 .5-.1.8-.2 10.6-2.2 18.5-8.3 18.6-14.5 0-.4 0-.9-.1-1.3-.1-.8-.4-1.6-.8-2.3-.1-.3-.3-.5-.5-.8-.1-.1-.2-.2-.2-.3l-.3-.3c-.3-.3-.5-.6-.8-.9-.2-.2-.5-.4-.8-.6-1.3-1-2.9-1.9-4.8-2.5-.1 0-.2-.1-.3-.1l-.9-.3c-.1 0-.3-.1-.4-.1-.3-.1-.6-.2-.9-.2-.2 0-.3-.1-.5-.1-.3-.1-.6-.1-.9-.2-.2 0-.5-.1-.7-.1-.4-.1-.8-.1-1.3-.2-.3 0-.6-.1-.9-.1h-4.1c-.4 0-.8 0-1.1.1h-.6c-.6 0-1.2.1-1.7.2s-1.1.1-1.6.2l-1.5.3c-.1 0-.2.1-.4.1-.5.1-1 .2-1.4.3-.5.1-1 .3-1.4.4-.1 0-.2.1-.3.1-.5.1-.9.3-1.4.4-.5.2-.9.3-1.3.5-.1 0-.2.1-.3.1-.9.4-1.7.7-2.5 1.1-.1 0-.2.1-.2.1-.4.2-.8.4-1.1.6-.3.2-.6.4-1 .6-.1 0-.1.1-.2.1-.2.2-.5.3-.7.5-.1.1-.2.1-.2.2-.2.2-.4.3-.6.5l-.2.2c-.5.4-1 .9-1.5 1.3-.1 0-.1.1-.1.1l-.5.5-.2.2c-.2.2-.3.3-.4.5l-.2.2c-.2.2-.4.5-.5.7-.2.2-.3.5-.5.7 0 .1-.1.1-.1.2-.1.2-.2.4-.3.5 0 .1-.1.2-.1.2-.1.2-.2.3-.2.5 0 .1-.1.1-.1.2-.1.2-.2.5-.2.7-.1.2-.1.5-.2.7v.2c0 .2 0 .3-.1.5v1c0 .2 0 .5.1.7.1.4.2.8.3 1.1 1.9 6.4 12.1 9.8 23.6 7.9z" class="st4"/><path d="M192.4 301.9c.4 2.2 1.6 4 3.6 5.5.2.2.4.3.6.5 3.3 2.3 8.2 3.6 13.9 3.7 2.2 0 4.5-.2 6.9-.6 7.1-1.2 13.2-4.1 16.9-7.6.8-.8 1.5-1.6 2.1-2.5.6-.8 1-1.7 1.3-2.6.3-.9.5-1.8.5-2.7 0-.4 0-.9-.1-1.3-.3-1.8-1.2-3.4-2.6-4.7-.4-.3-.7-.7-1.2-1-.8-.6-1.8-1.2-2.8-1.6-1.4-.7-3.1-1.2-4.8-1.6-.8-.2-1.6-.3-2.4-.4-1.3-.2-2.7-.3-4.2-.3h-.1c-1.5 0-3 .1-4.5.2l-2.4.3c-2.4.4-4.6 1-6.7 1.7-9 3.2-15 9.2-14 15z" class="st4"/><path d="M213.1 358.1c.8 0 1.6-.2 2.5-.5 4-1.6 4.2-8.6 3.2-15.3-5.7 1.8-10.8 4.7-15.2 7.3 2.4 4.6 5.6 8.5 9.5 8.5zm19.3-4.6c.7.2 1.8.5 3.2.5 3.7 0 8.8-1.8 8.1-10.4-.1-.8-.1-1.8-.1-2.9-1.7 0-3.5 0-5.2-.1-2.9-.1-5.5-.1-7.8-.1-1.8 0-3.2 0-4.3.2 1.6 6 3.8 11.9 6.1 12.8z" class="st2"/><path d="M247.5 305s-7 16-26.2 19c-5 .8-9.3 1.1-12.9 1.1-10.3 0-15.3-2.7-17.8-5.6 0 0-18.4 5.3-20 16.6-1.2 8.5 7.2 12.8 14.6 12.8 2.5 0 4.9-.5 6.7-1.5 7.4-4 18.4-12.6 33.2-14.5 1.3-.2 3.2-.2 5.4-.2 5 0 11.9.3 18.6.3 7.6 0 14.9-.4 18.9-2.2 9.1-4 9.1-10.7 8.5-14.1-.6-3.8-6.1-11.5-29-11.7z" class="st3"/></svg>