<?xml version="1.0" encoding="utf-8"?>
<!-- Generator: Adobe Illustrator 21.1.0, SVG Export Plug-In . SVG Version: 6.00 Build 0)  -->
<svg version="1.1" id="Layer_1" xmlns="http://www.w3.org/2000/svg" xmlns:xlink="http://www.w3.org/1999/xlink" x="0px" y="0px"
	 viewBox="0 0 473 151" style="enable-background:new 0 0 473 151;" xml:space="preserve">
<style type="text/css">
	.st0{fill:#FFFFFF;}
	.st1{fill:#606060;}
	.st2{fill:url(#SVGID_1_);}
	.st3{fill:url(#SVGID_2_);}
	.st4{fill:url(#SVGID_3_);}
	.st5{fill:url(#SVGID_4_);}
	.st6{fill:url(#SVGID_5_);}
	.st7{fill:url(#SVGID_6_);}
	.st8{fill:url(#SVGID_7_);}
	.st9{fill:#DEDEDE;}
	.st10{fill:#B3B3B3;}
</style>
<path class="st0" d="M219.7,60.4c7.2,0,12.6,2.4,17.1,6.6c0.4,0.4,0.4,0.9,0.1,1.3l-1.1,1.2c-0.4,0.4-0.8,0.4-1.2-0.1
	c-4-3.6-9.1-5.8-14.9-5.8c-12.3,0-22,10.1-22,22.3c0,12.1,9.7,22.1,22,22.1c6.1,0,10.6-2.4,14.9-5.9c0.4-0.4,0.8-0.4,1.1-0.1
	l1.2,1.2c0.4,0.3,0.4,0.8,0,1.2c-4.8,4.7-10.9,6.8-17.2,6.8c-14.1,0-25.5-11.1-25.5-25.3C194.1,71.8,205.6,60.4,219.7,60.4z"/>
<path class="st0" d="M257.5,81.6c7.9,0,14.2,6.7,14.2,14.7c0,8.3-6.3,14.9-14.2,14.9c-8,0-14.2-6.6-14.2-14.9
	C243.3,88.3,249.5,81.6,257.5,81.6z M257.5,108.3c6.2,0,11.1-5.3,11.1-12c0-6.5-4.9-11.8-11.1-11.8c-6.3,0-11.1,5.3-11.1,11.8
	C246.3,103,251.2,108.3,257.5,108.3z"/>
<path class="st0" d="M280.2,83.2c0-0.5,0.4-0.9,0.9-0.9h0.8c0.4,0,0.8,0.3,0.8,0.8L283,86c0.7-1,3.5-4.4,8.8-4.4
	c2.3,0,3.8,0.6,4.4,0.8c0.6,0.2,1,0.7,0.8,1.3l-0.6,1.4c-0.2,0.5-0.6,0.6-1.1,0.4c-0.4-0.1-1.8-0.8-3.7-0.8c-5.5,0-8.2,4.4-8.4,4.9
	v20.1c0,0.6-0.3,0.9-0.9,0.9H281c-0.5,0-0.8-0.4-0.8-0.9V83.2z"/>
<path class="st0" d="M314.7,81.6c7.4,0,12.8,5.4,12.8,12.9c0,1.1,0,2.8-1.1,2.8h-22.5c0.3,6.1,4.7,11.1,11,11.1
	c3.7,0,6.6-1.5,8.3-2.6c0.6-0.4,0.9-0.5,1.3,0l0.7,1c0.2,0.3,0.1,0.7-0.3,1.1c-1.4,1.4-5.9,3.3-10.2,3.3c-8.6,0-13.9-6.6-13.9-14.9
	C300.8,88.3,306.1,81.6,314.7,81.6z M324.4,94.7c0-5.5-3.3-10.3-9.7-10.3c-6.2,0-10.4,4.5-10.7,10.3H324.4z"/>
<path class="st1" d="M336.8,62.1c0-0.5,0.4-0.9,0.8-0.9h15c13.7,0,24.8,11.1,24.8,24.6c0,13.8-11.1,24.8-24.8,24.8h-15
	c-0.4,0-0.8-0.4-0.8-0.9V62.1z M352,107.5c12.3,0,21.9-9.4,21.9-21.7c0-12.2-9.5-21.6-21.9-21.6h-11.9v43.3L352,107.5L352,107.5z"/>
<path class="st1" d="M388.8,61.3c0-0.6,0.5-0.9,1.1-0.9h1.2l33.8,44.1c0.1,0,0.1,0,0.1,0V62.1c0-0.5,0.4-0.9,0.9-0.9h1.4
	c0.5,0,0.9,0.4,0.9,0.9v48.2c0,0.6-0.6,0.9-1.1,0.9h-0.9c-0.1,0-0.6-0.2-34.1-44.5H392v42.9c0,0.5-0.4,0.9-0.9,0.9h-1.3
	c-0.5,0-0.9-0.4-0.9-0.9V61.3H388.8z"/>
<path class="st1" d="M440.2,103.9l0.6-0.8c0.5-0.6,1-0.8,1.6-0.3c0.7,0.6,5.9,5.4,13,5.4c6.4,0,11.8-4.3,11.8-9.4
	c0-6.3-5.1-9.1-13.7-12c-8.2-2.9-13.6-5.8-13.6-13.9c0-5.3,4.2-12.5,15.2-12.5c7,0,12.1,3.6,12.1,3.6c0.3,0.2,0.8,0.7,0.3,1.5
	c-0.2,0.3-0.4,0.6-0.6,0.9c-0.4,0.6-0.8,0.8-1.6,0.4c-0.2-0.1-4.9-3.3-10.4-3.3c-8.7,0-11.9,5.4-11.9,9.4c0,6,4.6,8.6,11.7,10.9
	c9.7,3.3,15.8,6.7,15.8,14.9c0,7.1-7.3,12.6-15.4,12.6c-8.4,0-14-4.9-14.9-5.8C440,105.1,439.7,104.7,440.2,103.9z"/>
<linearGradient id="SVGID_1_" gradientUnits="userSpaceOnUse" x1="-794.7194" y1="372.4626" x2="-677.4294" y2="372.4626" gradientTransform="matrix(0.7071 -0.7071 -0.7071 -0.7071 845.4504 -200.2639)">
	<stop  offset="0" style="stop-color:#BCBEC0"/>
	<stop  offset="0.7382" style="stop-color:#D6D7D9"/>
	<stop  offset="1" style="stop-color:#E0E1E2"/>
</linearGradient>
<path class="st2" d="M47.4,51.6c5.4-5.4,14.2-5.4,19.7,0l4.1,4.1L83.9,43c6.2-6.2,16.2-6.2,22.4,0l4.9,4.9l12.2-12.2L96.7,9
	C89,1.3,76.5,1.3,68.8,9l-55,55c-6.5,6.5-7.5,16.6-2.9,24.1L11,88L47.4,51.6z"/>
<linearGradient id="SVGID_2_" gradientUnits="userSpaceOnUse" x1="-794.7351" y1="316.6006" x2="-677.4451" y2="316.6006" gradientTransform="matrix(0.7071 -0.7071 -0.7071 -0.7071 845.4504 -200.2639)">
	<stop  offset="0" style="stop-color:#BCBEC0"/>
	<stop  offset="0.7382" style="stop-color:#D6D7D9"/>
	<stop  offset="1" style="stop-color:#E0E1E2"/>
</linearGradient>
<path class="st3" d="M147.8,88c5.7-5.7,7.2-14.2,4.4-21.3l-1.8,1.8l-31.1,31.1c-5.4,5.4-14.2,5.4-19.7,0l-4.8-4.8l-16,16
	c-6.2,6.2-16.2,6.2-22.4,0l-4.1-4.1l-11.9,11.9l24.5,24.5c7.7,7.7,20.2,7.7,27.9,0L147.8,88z"/>
<path class="st0" d="M150.3,68.5l1.8-1.8c-0.6-1.6-1.5-3.2-2.6-4.6C149.9,64.2,150.1,66.3,150.3,68.5z"/>
<path class="st0" d="M11,88l-0.2,0.2c0.1,0.2,0.2,0.4,0.3,0.6C11.2,88.5,11.1,88.3,11,88z"/>
<linearGradient id="SVGID_3_" gradientUnits="userSpaceOnUse" x1="-794.7194" y1="344.3548" x2="-677.4294" y2="344.3548" gradientTransform="matrix(0.7071 -0.7071 -0.7071 -0.7071 845.4504 -200.2639)">
	<stop  offset="0" style="stop-color:#BCBEC0"/>
	<stop  offset="0.7382" style="stop-color:#D6D7D9"/>
	<stop  offset="1" style="stop-color:#E0E1E2"/>
</linearGradient>
<path class="st4" d="M95.1,45.7c-0.5,0-1.1,0.1-1.6,0.2c-1.6,0.3-3.1,1.1-4.4,2.3L76.4,60.9l0.9,0.9c5.4,5.4,5.4,14.2,0,19.7
	l-19.9,19.9l4.1,4.1c1.6,1.6,3.8,2.5,6,2.5c1.1,0,2.2-0.2,3.2-0.6c0.3-0.1,0.5-0.2,0.7-0.3c0,0,0,0,0.1,0c0.7-0.4,1.4-0.9,2-1.5
	l16-16l-0.1-0.1c-5.4-5.4-5.4-14.2,0-19.7l16.5-16.5l-4.9-4.9C99.4,46.6,97.2,45.7,95.1,45.7z"/>
<linearGradient id="SVGID_4_" gradientUnits="userSpaceOnUse" x1="-805.8391" y1="344.3548" x2="-664.9782" y2="344.3548" gradientTransform="matrix(0.7071 -0.7071 -0.7071 -0.7071 845.4504 -200.2639)">
	<stop  offset="0" style="stop-color:#BCBEC0"/>
	<stop  offset="0.7382" style="stop-color:#D6D7D9"/>
	<stop  offset="1" style="stop-color:#E0E1E2"/>
</linearGradient>
<path class="st5" d="M95.1,45.7c-0.5,0-1.1,0.1-1.6,0.2c-1.6,0.3-3.1,1.1-4.4,2.3L76.4,60.9l0.9,0.9c5.4,5.4,5.4,14.2,0,19.7
	l-19.9,19.9l4.1,4.1c1.6,1.6,3.8,2.5,6,2.5c1.1,0,2.2-0.2,3.2-0.6c0.3-0.1,0.5-0.2,0.7-0.3c0,0,0,0,0.1,0c0.7-0.4,1.4-0.9,2-1.5
	l16-16l-0.1-0.1c-5.4-5.4-5.4-14.2,0-19.7l16.5-16.5l-4.9-4.9C99.4,46.6,97.2,45.7,95.1,45.7z"/>
<path d="M71.5,107c-0.2,0.1-0.5,0.2-0.7,0.3C71,107.3,71.2,107.1,71.5,107z"/>
<linearGradient id="SVGID_5_" gradientUnits="userSpaceOnUse" x1="-805.8391" y1="330.1418" x2="-664.9782" y2="330.1418" gradientTransform="matrix(0.7071 -0.7071 -0.7071 -0.7071 845.4504 -200.2639)">
	<stop  offset="0" style="stop-color:#BCBEC0"/>
	<stop  offset="0.7382" style="stop-color:#D6D7D9"/>
	<stop  offset="1" style="stop-color:#E0E1E2"/>
</linearGradient>
<path class="st6" d="M71.5,107c-0.2,0.1-0.5,0.2-0.7,0.3C71,107.3,71.2,107.1,71.5,107z"/>
<path d="M73.5,105.5c-0.6,0.6-1.3,1.1-2,1.5C72.2,106.6,72.9,106.1,73.5,105.5z"/>
<linearGradient id="SVGID_6_" gradientUnits="userSpaceOnUse" x1="-805.8391" y1="329.8236" x2="-664.9782" y2="329.8236" gradientTransform="matrix(0.7071 -0.7071 -0.7071 -0.7071 845.4504 -200.2639)">
	<stop  offset="0" style="stop-color:#BCBEC0"/>
	<stop  offset="0.7382" style="stop-color:#D6D7D9"/>
	<stop  offset="1" style="stop-color:#E0E1E2"/>
</linearGradient>
<path class="st7" d="M73.5,105.5c-0.6,0.6-1.3,1.1-2,1.5C72.2,106.6,72.9,106.1,73.5,105.5z"/>
<path class="st9" d="M13.8,92c-1-1-1.9-2.1-2.6-3.2c-0.1-0.2-0.2-0.4-0.3-0.6l-5.2,5.2c-5.4,5.4-5.4,14.2,0,19.7l10.2,10.2
	c4.4,4.4,10.9,5.2,16.2,2.5c1.3-0.6,2.4-1.5,3.5-2.5l3.3-3.3l1.2-1.2l0.4-0.4L13.8,92z"/>
<path class="st0" d="M47.4,101.8c-1.2-1.2-2.1-2.4-2.8-3.8c-2.2-4.1-2.4-9-0.6-13.3c0.2-0.5,0.4-0.9,0.7-1.4
	c0.7-1.4,1.7-2.7,2.8-3.8l23.7-23.7l-4.1-4.1c-5.4-5.4-14.2-5.4-19.7,0L11,88c0,0.2,0.1,0.5,0.2,0.7c0.7,1.1,1.6,2.2,2.6,3.2
	l26.5,26.5l11.9-11.9L47.4,101.8z"/>
<path class="st0" d="M77.3,61.8l-0.9-0.9L52.7,84.6c-0.6,0.6-1.1,1.3-1.5,2c0,0,0,0,0,0.1c-0.1,0.2-0.2,0.5-0.3,0.7
	c-0.4,1-0.6,2.1-0.6,3.2c0,2.2,0.8,4.3,2.5,6l4.8,4.8l19.9-19.9C82.7,76.1,82.7,67.3,77.3,61.8z"/>
<path class="st0" d="M51.2,86.7c0.4-0.7,0.9-1.4,1.5-2C52.1,85.3,51.6,85.9,51.2,86.7z"/>
<path class="st0" d="M50.8,87.5c0.1-0.3,0.2-0.5,0.3-0.7C51,87,50.9,87.2,50.8,87.5z"/>
<path class="st0" d="M89.4,89.3l0.1,0.1L109.9,69c1.2-1.2,2-2.8,2.3-4.4c0.1-0.5,0.2-1.1,0.2-1.6c0-2.2-0.8-4.3-2.5-6l-4-4
	L89.4,69.5C84,75.1,84,83.9,89.4,89.3z"/>
<path class="st0" d="M117.9,70.6c-0.5,0.9-1,1.7-1.7,2.5C116.9,72.3,117.4,71.4,117.9,70.6z"/>
<path class="st0" d="M118.6,69c-0.2,0.5-0.4,0.9-0.7,1.4C118.2,70,118.4,69.5,118.6,69z"/>
<path class="st10" d="M116.2,73.1c0.6-0.8,1.2-1.6,1.7-2.5l0.1-0.1c0.2-0.5,0.5-0.9,0.7-1.4s0.4-1,0.5-1.4c1.6-5.4,0.3-11.4-4-15.7
	l-4-4l-5.2,5.2l4,4c1.6,1.6,2.5,3.8,2.5,6c0,0.5-0.1,1.1-0.2,1.6c-0.3,1.6-1.1,3.1-2.3,4.4L89.6,89.6l5.2,5.2l20.4-20.4
	C115.5,73.9,115.9,73.5,116.2,73.1z"/>
<path class="st10" d="M161,38.1l-10.2-10.2c-5.1-5.1-13.2-5.4-18.7-0.9c-0.3,0.3-0.7,0.6-1,0.9l-6.6,6.6l-1.2,1.2l0,0l24.4,24.4
	c0.6,0.6,1.2,1.3,1.7,2c1.1,1.4,2,3,2.6,4.6l8.9-8.9C166.5,52.3,166.5,43.5,161,38.1z"/>
<path class="st0" d="M115.2,51.9c4.2,4.2,5.6,10.3,4,15.7c-0.1,0.5-0.3,1-0.5,1.4c-0.2,0.5-0.4,0.9-0.7,1.4l-0.1,0.1
	c-0.5,0.9-1,1.7-1.7,2.5c-0.3,0.4-0.7,0.8-1.1,1.2L94.7,94.6l4.8,4.8c5.4,5.4,14.2,5.4,19.7,0l31.1-31.1c-0.2-2.1-0.5-4.3-0.9-6.4
	c-0.5-0.7-1.1-1.4-1.7-2l-24.4-24.4l-12.2,12.2L115.2,51.9z"/>
<path class="st0" d="M116.2,73.1c-0.3,0.4-0.7,0.8-1.1,1.2C115.5,73.9,115.9,73.5,116.2,73.1z"/>
<path class="st0" d="M118,70.4l-0.1,0.1C117.9,70.5,117.9,70.5,118,70.4z"/>
</svg>
