<?xml version="1.0" encoding="utf-8"?>
<!-- Generator: Adobe Illustrator 26.1.0, SVG Export Plug-In . SVG Version: 6.00 Build 0)  -->
<svg version="1.1" id="a" xmlns="http://www.w3.org/2000/svg" xmlns:xlink="http://www.w3.org/1999/xlink" x="0px" y="0px"
	 viewBox="0 0 550.3 823.8" style="enable-background:new 0 0 550.3 823.8;" xml:space="preserve">
<style type="text/css">
	.st0{fill:#0086FF;}
	.st1{fill:#FFFFFF;}
	.st2{opacity:0.8;enable-background:new    ;}
	.st3{fill:#00CEFF;}
</style>
<path class="st0" d="M54.5,21H492c20,0,36.1,16.2,36.1,36.1V766c0,20-16.2,36.1-36.1,36.1H54.5c-20,0-36.1-16.2-36.1-36.1V57.1
	C18.3,37.2,34.5,21,54.5,21z"/>
<rect x="36.4" y="150.3" class="st1" width="473.7" height="471.8"/>
<g>
	<g>
		<path class="st0" d="M128,455.3H70.2v134.7h134.6v-57.7H128V455.3z"/>
		<path class="st0" d="M416.5,455.7v76.5H340l-0.4-0.4v58.1h134.6V455.3H416L416.5,455.7L416.5,455.7z"/>
		<path class="st0" d="M70.2,320.6h58.1l-0.4-0.4v-76.5h76.5l0.4,0.4V186H70.2C70.2,186,70.2,320.6,70.2,320.6z"/>
		<path class="st0" d="M339.5,186v57.7h76.9v77h57.7V186H339.5z"/>
	</g>
	<g class="st2">
		<path class="st3" d="M332.4,320.6l-77-77h84.1V186H204.9v58.1l76.5,76.5H332.4z"/>
		<path class="st3" d="M263,455.3h-51l63.8,63.8l13.2,13.2h-84.1v57.7h134.7v-58.1l-38.3-38.3L263,455.3L263,455.3z"/>
		<path class="st3" d="M416.5,320.6v84.1l-13.2-13.2l-63.8-63.7v51l38.3,38.2l38.3,38.3h58.1V320.6H416.5z"/>
		<path class="st3" d="M204.9,397.1l-76.5-76.5H70.2v134.6H128v-84.1l76.9,76.9V397.1z"/>
	</g>
</g>
<g>
	<path class="st1" d="M230.3,734.8c-1.6,1.3-3.4,2.4-5.4,3.4s-4.1,1.6-6.4,2.1c-2.3,0.5-4.9,0.7-7.8,0.7c-4.4,0-8.4-0.8-12.1-2.4
		c-3.7-1.6-7-3.7-9.7-6.5c-2.7-2.7-4.8-6-6.4-9.7c-1.5-3.7-2.3-7.7-2.3-12v-0.2c0-4.2,0.8-8.2,2.3-11.9c1.5-3.7,3.6-7,6.4-9.8
		c2.7-2.8,6-5,9.8-6.6c3.8-1.6,8-2.4,12.6-2.4c2.8,0,5.3,0.2,7.6,0.7c2.3,0.5,4.4,1.1,6.2,1.9c1.9,0.8,3.6,1.8,5.2,2.9
		c1.6,1.1,3.1,2.4,4.4,3.7l-8.3,9.6c-2.3-2.1-4.7-3.7-7.1-4.9c-2.4-1.2-5.1-1.8-8.1-1.8c-2.5,0-4.8,0.5-6.9,1.4
		c-2.1,1-3.9,2.3-5.5,4s-2.7,3.7-3.6,5.9c-0.8,2.2-1.3,4.6-1.3,7.2v0.2c0,2.5,0.4,5,1.3,7.2c0.8,2.3,2,4.2,3.5,5.9
		c1.5,1.7,3.3,3,5.4,4c2.1,1,4.5,1.5,7,1.5c3.4,0,6.3-0.6,8.6-1.9c2.3-1.2,4.7-2.9,7-5.1l8.3,8.4C233.5,732,231.9,733.5,230.3,734.8
		L230.3,734.8z"/>
	<path class="st1" d="M291.4,740l-28.8-37.8V740h-12.9v-59.4h12.1l27.8,36.6v-36.6h12.9V740H291.4z"/>
	<path class="st1" d="M334.1,692.4v12.8h28.3V717h-28.3v23H321v-59.4h45.2v11.8H334.1L334.1,692.4z"/>
</g>
<g>
	<path class="st1" d="M153.2,109.3c-1.4,1.1-3,2.1-4.7,2.9c-1.7,0.8-3.5,1.4-5.5,1.8c-2,0.4-4.2,0.6-6.6,0.6
		c-3.8,0-7.2-0.7-10.4-2.1c-3.2-1.4-5.9-3.2-8.2-5.6c-2.3-2.4-4.1-5.2-5.5-8.4c-1.3-3.2-2-6.7-2-10.4c0-3.7,0.6-7.1,1.9-10.3
		c1.3-3.2,3.1-6,5.5-8.5c2.3-2.4,5.1-4.3,8.4-5.7c3.2-1.4,6.8-2.1,10.7-2.1c2.3,0,4.5,0.2,6.4,0.6c1.9,0.4,3.7,0.9,5.3,1.6
		c1.6,0.7,3.1,1.6,4.5,2.5c1.4,1,2.7,2.1,3.9,3.2l-5.8,6.7c-2.1-1.9-4.2-3.4-6.5-4.6c-2.3-1.2-4.9-1.8-7.8-1.8
		c-2.4,0-4.7,0.5-6.8,1.4c-2.1,1-3.9,2.2-5.4,3.9c-1.5,1.6-2.7,3.6-3.5,5.8c-0.8,2.2-1.2,4.6-1.2,7.1c0,2.5,0.4,4.9,1.2,7.1
		c0.8,2.2,2,4.2,3.5,5.8c1.5,1.7,3.3,3,5.4,3.9c2.1,1,4.3,1.4,6.8,1.4c3.1,0,5.8-0.6,8.1-1.8c2.2-1.2,4.5-2.8,6.7-4.9l5.8,5.9
		C156.1,106.9,154.7,108.2,153.2,109.3L153.2,109.3z"/>
	<path class="st1" d="M177.4,104.8c2,1.7,4.4,2.5,7.3,2.5c2.2,0,4.1-0.4,5.7-1.2c1.6-0.8,3.2-1.9,4.8-3.4l5.2,4.6
		c-1.9,2.2-4.1,4-6.6,5.3c-2.6,1.3-5.6,2-9.2,2c-2.8,0-5.4-0.5-7.8-1.5c-2.4-1-4.5-2.3-6.3-4.1c-1.8-1.8-3.2-3.9-4.2-6.3
		c-1-2.5-1.5-5.2-1.5-8.2c0-2.8,0.5-5.4,1.4-7.8c0.9-2.4,2.2-4.6,3.9-6.4c1.7-1.8,3.7-3.3,6-4.4c2.3-1.1,4.8-1.6,7.6-1.6
		c3.1,0,5.8,0.6,8.1,1.7c2.3,1.1,4.2,2.6,5.8,4.5c1.5,1.9,2.7,4.1,3.5,6.7c0.8,2.5,1.2,5.2,1.2,8c0,0.4,0,0.8,0,1.2
		c0,0.4-0.1,0.8-0.1,1.2h-28.4C174.2,100.7,175.4,103.1,177.4,104.8L177.4,104.8z M193.4,91.7c-0.1-1.4-0.5-2.7-1-4
		c-0.5-1.2-1.1-2.3-2-3.2c-0.8-0.9-1.8-1.6-3-2.2c-1.1-0.5-2.5-0.8-3.9-0.8c-2.7,0-5,0.9-6.8,2.8c-1.8,1.9-2.9,4.3-3.3,7.4H193.4
		L193.4,91.7z"/>
	<path class="st1" d="M221.9,113.7H213V75h8.9v8.7c1.2-2.9,3-5.3,5.2-7c2.2-1.8,5.1-2.6,8.5-2.4v9.4h-0.5c-2,0-3.7,0.3-5.3,1
		c-1.6,0.6-3,1.6-4.2,2.9c-1.2,1.3-2.1,2.9-2.7,4.8c-0.6,1.9-1,4.2-1,6.7L221.9,113.7L221.9,113.7z"/>
	<path class="st1" d="M255.8,101.6c0,1.7,0.4,3,1.2,3.7c0.8,0.8,2,1.1,3.5,1.1c1.9,0,3.7-0.4,5.5-1.3v7.3c-1.1,0.6-2.3,1.1-3.6,1.5
		c-1.3,0.3-2.7,0.5-4.4,0.5c-1.6,0-3.1-0.2-4.5-0.6c-1.4-0.4-2.6-1-3.6-1.9s-1.8-2-2.3-3.5c-0.5-1.4-0.8-3.2-0.8-5.4V82.6H242V75
		h4.9V64.4h8.9V75h10.4v7.5h-10.4C255.8,82.6,255.8,101.6,255.8,101.6z"/>
	<path class="st1" d="M277.1,69.1v-8.4h9.6v8.4H277.1z M277.4,113.7V75h8.9v38.7H277.4z"/>
	<path class="st1" d="M320.7,75.3v7.3h-10.1v31.1h-8.9V82.7h-4.9v-7.4h4.9v-2.8c0-4.3,1-7.5,3.1-9.6c2.1-2.1,5-3.1,8.8-3.1
		c1.6,0,2.9,0.1,4,0.3c1.1,0.2,2.2,0.4,3.1,0.7v7.5c-0.9-0.3-1.7-0.5-2.5-0.7c-0.8-0.2-1.7-0.3-2.7-0.3c-3.4,0-5.1,2-5.1,5.9v2.1
		L320.7,75.3L320.7,75.3z"/>
	<path class="st1" d="M329.2,69.1v-8.4h9.6v8.4H329.2z M329.6,113.7V75h8.9v38.7H329.6z"/>
	<path class="st1" d="M362.4,104.8c2,1.7,4.4,2.5,7.3,2.5c2.2,0,4.1-0.4,5.7-1.2c1.6-0.8,3.2-1.9,4.8-3.4l5.2,4.6
		c-1.9,2.2-4.1,4-6.6,5.3c-2.6,1.3-5.6,2-9.2,2c-2.8,0-5.4-0.5-7.8-1.5c-2.4-1-4.5-2.3-6.3-4.1s-3.2-3.9-4.2-6.3
		c-1-2.5-1.5-5.2-1.5-8.2c0-2.8,0.5-5.4,1.4-7.8c0.9-2.4,2.2-4.6,3.9-6.4s3.7-3.3,6-4.4c2.3-1.1,4.8-1.6,7.6-1.6
		c3.1,0,5.8,0.6,8.1,1.7c2.3,1.1,4.2,2.6,5.8,4.5s2.7,4.1,3.5,6.7c0.8,2.5,1.2,5.2,1.2,8c0,0.4,0,0.8,0,1.2c0,0.4-0.1,0.8-0.1,1.2
		h-28.4C359.1,100.7,360.4,103.1,362.4,104.8L362.4,104.8z M378.4,91.7c-0.1-1.4-0.5-2.7-1-4s-1.1-2.3-2-3.2c-0.8-0.9-1.8-1.6-3-2.2
		c-1.1-0.5-2.5-0.8-3.9-0.8c-2.7,0-5,0.9-6.8,2.8c-1.8,1.9-2.9,4.3-3.3,7.4H378.4L378.4,91.7z"/>
	<path class="st1" d="M427,113.7v-6.4c-1.4,2-3.2,3.7-5.3,5.1c-2.1,1.4-4.7,2.1-7.9,2.1c-2.3,0-4.5-0.4-6.7-1.3
		c-2.1-0.9-4-2.2-5.7-3.9s-3-3.8-4-6.3s-1.5-5.3-1.5-8.6c0-3.2,0.5-6.1,1.5-8.6c1-2.5,2.3-4.6,4-6.3c1.7-1.7,3.6-3,5.7-3.9
		c2.2-0.9,4.4-1.3,6.7-1.3c3.2,0,5.8,0.7,7.9,2.1c2.1,1.4,3.8,3,5.3,4.8V60.2h8.9v53.5L427,113.7L427,113.7z M426.2,89.2
		c-0.6-1.5-1.4-2.8-2.4-3.9c-1-1.1-2.2-1.9-3.6-2.5c-1.4-0.6-2.8-0.9-4.2-0.9c-1.5,0-2.9,0.3-4.3,0.8c-1.3,0.6-2.5,1.4-3.5,2.5
		c-1,1.1-1.8,2.4-2.4,3.9c-0.6,1.5-0.9,3.3-0.9,5.2c0,1.9,0.3,3.6,0.9,5.2c0.6,1.5,1.4,2.8,2.4,3.9c1,1.1,2.2,1.9,3.5,2.5
		s2.8,0.9,4.3,0.9c1.5,0,2.9-0.3,4.2-0.9c1.4-0.6,2.6-1.4,3.6-2.5c1-1.1,1.8-2.4,2.4-3.9c0.6-1.5,0.9-3.2,0.9-5.1
		S426.8,90.8,426.2,89.2L426.2,89.2z"/>
</g>
</svg>
