<?xml version="1.0" encoding="utf-8"?>
<!-- Generator: Adobe Illustrator 21.1.0, SVG Export Plug-In . SVG Version: 6.00 Build 0)  -->
<svg version="1.1"
	 id="svg2" inkscape:export-filename="/home/thockin/src/kubernetes/kubernetes.png" inkscape:export-xdpi="250.55" inkscape:export-ydpi="250.55" inkscape:version="0.48.4 r9939" sodipodi:docname="name_white.svg" xmlns:cc="http://creativecommons.org/ns#" xmlns:dc="http://purl.org/dc/elements/1.1/" xmlns:inkscape="http://www.inkscape.org/namespaces/inkscape" xmlns:rdf="http://www.w3.org/1999/02/22-rdf-syntax-ns#" xmlns:sodipodi="http://sodipodi.sourceforge.net/DTD/sodipodi-0.dtd" xmlns:svg="http://www.w3.org/2000/svg"
	 xmlns="http://www.w3.org/2000/svg" xmlns:xlink="http://www.w3.org/1999/xlink" x="0px" y="0px"
	 viewBox="-131.091 -267.763 432 432" enable-background="new -131.091 -267.763 432 432" xml:space="preserve">
<g>
	<polygon fill="#FFFFFF" points="84.596,-241.044 240.822,-166.447 279.423,1.212 171.331,135.674 -2.06,135.692 -110.182,1.253 
		-71.617,-166.411 	"/>
	<polygon fill="none" stroke="#FFFFFF" stroke-width="25.5638" stroke-linejoin="round" points="84.596,-241.044 240.822,-166.447 
		279.423,1.212 171.331,135.674 -2.06,135.692 -110.182,1.253 -71.617,-166.411 	"/>
	<path fill="#231F20" d="M83.147-259.139c-3.752,0.186-7.464,1.127-10.846,2.744l-147.974,70.703
		c-7.629,3.643-13.428,10.852-15.312,19.037L-127.49-7.834c-1.683,7.295-0.263,15.241,3.841,21.519
		c0.5,0.768,1.035,1.514,1.609,2.232l102.423,127.349c5.278,6.562,13.656,10.562,22.121,10.559l164.252-0.039
		c8.46,0.006,16.837-3.986,22.122-10.542L291.264,15.878c5.284-6.565,7.354-15.559,5.47-23.751L260.17-166.69
		c-1.883-8.188-7.682-15.397-15.308-19.04L96.868-256.395C92.618-258.426,87.855-259.378,83.147-259.139z"/>
	<path fill="#FFFFFF" d="M84.326-3.124c1.227-0.044,2.472,0.207,3.656,0.778c1.549,0.745,2.746,1.919,3.501,3.329h0.168
		l22.542,40.728c-2.928,0.979-5.935,1.818-9.011,2.516c-17.236,3.915-34.42,2.73-49.98-2.572L77.685,1.002h0.039
		C79.072-1.517,81.63-3.023,84.326-3.124z M45.702-21.877c3.519,0.048,6.677,2.493,7.493,6.073c0.385,1.677,0.198,3.339-0.435,4.808
		l0.133,0.169L35.181,31.982C18.618,21.355,5.427,5.443-1.629-14.079l45.722-7.759l0.077,0.095
		C44.681-21.838,45.199-21.886,45.702-21.877z M123.161-22.066c0.606-0.033,1.21,0.023,1.798,0.133l0.077-0.095l46.121,7.795
		C164.407,4.73,151.49,21.16,134.232,32.154L116.331-11.09l0.056-0.077c-1.644-3.82,0-8.303,3.785-10.125
		C121.142-21.759,122.153-22.016,123.161-22.066z M77.478-59.955h14.25l8.856,11.071l-3.179,13.815L84.61-28.918l-12.83-6.168
		l-3.179-13.815L77.478-59.955z M162.659-93.452c5.169,8.378,9.081,17.734,11.411,27.876c2.304,10.022,2.88,20.026,1.931,29.695
		l-44.814-12.908l-0.039-0.189c-4.013-1.097-6.479-5.178-5.544-9.273c0.382-1.677,1.271-3.096,2.478-4.145l-0.017-0.095
		L162.659-93.452z M6.32-93.47l34.784,31.111l-0.039,0.189c3.14,2.73,3.602,7.467,0.985,10.749c-1.073,1.345-2.511,2.247-4.051,2.67
		L37.96-48.6L-6.626-35.731C-8.894-56.48-4.006-76.653,6.32-93.47z M95.72-136.394c20.152,2.481,38.787,11.603,53.067,25.587
		l-37.85,26.836l-0.133-0.057c-3.36,2.455-8.093,1.846-10.71-1.437c-1.073-1.345-1.639-2.927-1.703-4.525l-0.039-0.017
		L95.72-136.394z M73.522-136.394l-2.632,46.461L70.7-89.839c-0.174,4.157-3.596,7.475-7.794,7.475c-1.721,0-3.31-0.55-4.602-1.494
		l-0.073,0.039l-38.095-27.007c11.706-11.515,26.684-20.022,43.941-23.94C67.232-135.481,70.381-136.013,73.522-136.394z
		 M84.61-205.092c-4.891,0.003-8.856,4.409-8.856,9.841c0,0.086,0.018,0.165,0.021,0.248c-0.009,0.736-0.045,1.626-0.021,2.271
		c0.118,3.134,0.802,5.532,1.213,8.422c0.745,6.18,1.369,11.304,0.985,16.065c-0.376,1.798-1.698,3.439-2.877,4.581l-0.21,3.746
		c-5.313,0.441-10.665,1.248-16.009,2.46c-22.997,5.223-42.797,17.068-57.872,33.063c-0.979-0.668-2.691-1.896-3.2-2.271
		c-1.582,0.213-3.179,0.701-5.26-0.512c-3.962-2.667-7.573-6.351-11.94-10.787c-2.002-2.12-3.451-4.142-5.832-6.189
		c-0.538-0.465-1.363-1.092-1.966-1.571c-1.86-1.481-4.051-2.253-6.172-2.327c-2.72-0.095-5.343,0.97-7.058,3.123
		c-3.048,3.824-2.073,9.67,2.176,13.058c0.045,0.036,0.089,0.062,0.133,0.095c0.583,0.473,1.298,1.079,1.836,1.475
		c2.522,1.863,4.829,2.818,7.342,4.297c5.296,3.271,9.687,5.986,13.17,9.256c1.36,1.449,1.6,4.004,1.78,5.11l2.839,2.534
		c-15.196,22.87-22.231,51.119-18.073,79.903l-3.708,1.079c-0.979,1.263-2.36,3.25-3.806,3.841
		c-4.556,1.435-9.684,1.964-15.876,2.611c-2.91,0.243-5.418,0.098-8.499,0.684c-0.678,0.127-1.624,0.372-2.366,0.547
		c-0.026,0.006-0.05,0.015-0.077,0.021c-0.038,0.009-0.092,0.026-0.129,0.036c-5.223,1.263-8.576,6.061-7.497,10.787
		c1.079,4.731,6.18,7.606,11.432,6.472c0.039-0.008,0.092-0.008,0.133-0.017c0.059-0.015,0.109-0.042,0.168-0.056
		c0.734-0.163,1.65-0.34,2.292-0.512c3.028-0.813,5.222-2.005,7.949-3.048c5.858-2.1,10.713-3.856,15.441-4.542
		c1.975-0.154,4.057,1.221,5.092,1.798l3.858-0.662c8.886,27.544,27.503,49.809,51.08,63.778l-1.609,3.861
		c0.579,1.5,1.218,3.528,0.787,5.009c-1.718,4.456-4.663,9.161-8.017,14.407c-1.624,2.425-3.285,4.305-4.749,7.079
		c-0.352,0.662-0.799,1.683-1.136,2.384c-2.277,4.873-0.609,10.482,3.764,12.585c4.4,2.12,9.862-0.116,12.228-4.995
		c0.002-0.009,0.014-0.012,0.017-0.02c0.003-0.003-0.003-0.012,0-0.018c0.337-0.692,0.813-1.603,1.097-2.253
		c1.257-2.874,1.674-5.338,2.555-8.117c2.345-5.887,3.631-12.064,6.858-15.912c0.884-1.052,2.324-1.46,3.818-1.86l2.005-3.634
		c20.555,7.889,43.56,10.006,66.543,4.79c5.242-1.192,10.302-2.733,15.196-4.581c0.562,0.999,1.612,2.921,1.893,3.407
		c1.517,0.494,3.173,0.748,4.521,2.744c2.416,4.122,4.066,9.002,6.077,14.895c0.881,2.78,1.319,5.243,2.572,8.117
		c0.287,0.657,0.76,1.579,1.097,2.271c2.36,4.897,7.84,7.139,12.245,5.015c4.374-2.105,6.045-7.715,3.768-12.585
		c-0.34-0.7-0.805-1.721-1.157-2.383c-1.463-2.774-3.126-4.637-4.749-7.058c-3.354-5.246-6.136-9.605-7.854-14.064
		c-0.718-2.297,0.121-3.729,0.68-5.223c-0.334-0.385-1.052-2.555-1.475-3.578c24.502-14.466,42.572-37.561,51.059-64.23
		c1.148,0.18,3.141,0.532,3.785,0.662c1.334-0.878,2.558-2.026,4.959-1.836c4.728,0.684,9.584,2.44,15.445,4.542
		c2.723,1.044,4.917,2.257,7.949,3.067c0.638,0.172,1.555,0.332,2.288,0.491c0.059,0.015,0.112,0.045,0.172,0.057
		c0.038,0.008,0.095,0.011,0.129,0.02c5.252,1.129,10.353-1.745,11.432-6.473s-2.274-9.528-7.493-10.787
		c-0.76-0.171-1.836-0.467-2.576-0.606c-3.081-0.582-5.589-0.438-8.495-0.68c-6.192-0.65-11.323-1.177-15.88-2.611
		c-1.857-0.721-3.179-2.933-3.824-3.844l-3.575-1.041c1.854-13.416,1.354-27.379-1.858-41.351
		c-3.238-14.099-8.962-26.998-16.594-38.359c0.916-0.834,2.65-2.369,3.14-2.821c0.145-1.587,0.02-3.256,1.665-5.015
		c3.484-3.27,7.875-5.982,13.174-9.255c2.513-1.478,4.837-2.431,7.36-4.294c0.571-0.423,1.351-1.092,1.949-1.573
		c4.25-3.389,5.229-9.232,2.176-13.058c-3.048-3.824-8.96-4.185-13.209-0.793c-0.603,0.479-1.425,1.103-1.966,1.57
		c-2.381,2.046-3.848,4.066-5.849,6.189c-4.368,4.435-7.978,8.138-11.94,10.805c-1.718,1-4.235,0.654-5.376,0.586l-3.368,2.404
		c-19.209-20.143-45.364-33.021-73.524-35.522c-0.08-1.18-0.183-3.312-0.21-3.954c-1.15-1.103-2.543-2.046-2.895-4.43
		c-0.385-4.761,0.257-9.885,1.002-16.065c0.411-2.889,1.098-5.288,1.213-8.422c0.026-0.713-0.015-1.748-0.017-2.519
		C93.467-200.684,89.504-205.092,84.61-205.092z"/>
	<path fill="none" stroke="#FFFFFF" stroke-width="0.0651" d="M84.326-3.124c1.227-0.044,2.472,0.207,3.656,0.778
		c1.549,0.745,2.746,1.919,3.501,3.329h0.168l22.542,40.728c-2.928,0.979-5.935,1.818-9.011,2.516
		c-17.236,3.915-34.42,2.73-49.98-2.572L77.685,1.002h0.039C79.072-1.517,81.63-3.023,84.326-3.124z M45.702-21.877
		c3.519,0.048,6.677,2.493,7.493,6.073c0.385,1.677,0.198,3.339-0.435,4.808l0.133,0.169L35.181,31.982
		C18.618,21.355,5.427,5.443-1.629-14.079l45.722-7.759l0.077,0.095C44.681-21.838,45.199-21.886,45.702-21.877z M123.161-22.066
		c0.606-0.033,1.21,0.023,1.798,0.133l0.077-0.095l46.121,7.795C164.407,4.73,151.49,21.16,134.232,32.154L116.331-11.09
		l0.056-0.077c-1.644-3.82,0-8.303,3.785-10.125C121.142-21.759,122.153-22.016,123.161-22.066z M77.478-59.955h14.25l8.856,11.071
		l-3.179,13.815L84.61-28.918l-12.83-6.168l-3.179-13.815L77.478-59.955z M162.659-93.452c5.169,8.378,9.081,17.734,11.411,27.876
		c2.304,10.022,2.88,20.026,1.931,29.695l-44.814-12.908l-0.039-0.189c-4.013-1.097-6.479-5.178-5.544-9.273
		c0.382-1.677,1.271-3.096,2.478-4.145l-0.017-0.095L162.659-93.452z M6.32-93.47l34.784,31.111l-0.039,0.189
		c3.14,2.73,3.602,7.467,0.985,10.749c-1.073,1.345-2.511,2.247-4.051,2.67L37.96-48.6L-6.626-35.731
		C-8.894-56.48-4.006-76.653,6.32-93.47z M95.72-136.394c20.152,2.481,38.787,11.603,53.067,25.587l-37.85,26.836l-0.133-0.057
		c-3.36,2.455-8.093,1.846-10.71-1.437c-1.073-1.345-1.639-2.927-1.703-4.525l-0.039-0.017L95.72-136.394z M73.522-136.394
		l-2.632,46.461L70.7-89.839c-0.174,4.157-3.596,7.475-7.794,7.475c-1.721,0-3.31-0.55-4.602-1.494l-0.073,0.039l-38.095-27.007
		c11.706-11.515,26.684-20.022,43.941-23.94C67.232-135.481,70.381-136.013,73.522-136.394z M84.61-205.092
		c-4.891,0.003-8.856,4.409-8.856,9.841c0,0.086,0.018,0.165,0.021,0.248c-0.009,0.736-0.045,1.626-0.021,2.271
		c0.118,3.134,0.802,5.532,1.213,8.422c0.745,6.18,1.369,11.304,0.985,16.065c-0.376,1.798-1.698,3.439-2.877,4.581l-0.21,3.746
		c-5.313,0.441-10.665,1.248-16.009,2.46c-22.997,5.223-42.797,17.068-57.872,33.063c-0.979-0.668-2.691-1.896-3.2-2.271
		c-1.582,0.213-3.179,0.701-5.26-0.512c-3.962-2.667-7.573-6.351-11.94-10.787c-2.002-2.12-3.451-4.142-5.832-6.189
		c-0.538-0.465-1.363-1.092-1.966-1.571c-1.86-1.481-4.051-2.253-6.172-2.327c-2.72-0.095-5.343,0.97-7.058,3.123
		c-3.048,3.824-2.073,9.67,2.176,13.058c0.045,0.036,0.089,0.062,0.133,0.095c0.583,0.473,1.298,1.079,1.836,1.475
		c2.522,1.863,4.829,2.818,7.342,4.297c5.296,3.271,9.687,5.986,13.17,9.256c1.36,1.449,1.6,4.004,1.78,5.11l2.839,2.534
		c-15.196,22.87-22.231,51.119-18.073,79.903l-3.708,1.079c-0.979,1.263-2.36,3.25-3.806,3.841
		c-4.556,1.435-9.684,1.964-15.876,2.611c-2.91,0.243-5.418,0.098-8.499,0.684c-0.678,0.127-1.624,0.372-2.366,0.547
		c-0.026,0.006-0.05,0.015-0.077,0.021c-0.038,0.009-0.092,0.026-0.129,0.036c-5.223,1.263-8.576,6.061-7.497,10.787
		c1.079,4.731,6.18,7.606,11.432,6.472c0.039-0.008,0.092-0.008,0.133-0.017c0.059-0.015,0.109-0.042,0.168-0.056
		c0.734-0.163,1.65-0.34,2.292-0.512c3.028-0.813,5.222-2.005,7.949-3.048c5.858-2.1,10.713-3.856,15.441-4.542
		c1.975-0.154,4.057,1.221,5.092,1.798l3.858-0.662c8.886,27.544,27.503,49.809,51.08,63.778l-1.609,3.861
		c0.579,1.5,1.218,3.528,0.787,5.009c-1.718,4.456-4.663,9.161-8.017,14.407c-1.624,2.425-3.285,4.305-4.749,7.079
		c-0.352,0.662-0.799,1.683-1.136,2.384c-2.277,4.873-0.609,10.482,3.764,12.585c4.4,2.12,9.862-0.116,12.228-4.995
		c0.002-0.009,0.014-0.012,0.017-0.02c0.003-0.003-0.003-0.012,0-0.018c0.337-0.692,0.813-1.603,1.097-2.253
		c1.257-2.874,1.674-5.338,2.555-8.117c2.345-5.887,3.631-12.064,6.858-15.912c0.884-1.052,2.324-1.46,3.818-1.86l2.005-3.634
		c20.555,7.889,43.56,10.006,66.543,4.79c5.242-1.192,10.302-2.733,15.196-4.581c0.562,0.999,1.612,2.921,1.893,3.407
		c1.517,0.494,3.173,0.748,4.521,2.744c2.416,4.122,4.066,9.002,6.077,14.895c0.881,2.78,1.319,5.243,2.572,8.117
		c0.287,0.657,0.76,1.579,1.097,2.271c2.36,4.897,7.84,7.139,12.245,5.015c4.374-2.105,6.045-7.715,3.768-12.585
		c-0.34-0.7-0.805-1.721-1.157-2.383c-1.463-2.774-3.126-4.637-4.749-7.058c-3.354-5.246-6.136-9.605-7.854-14.064
		c-0.718-2.297,0.121-3.729,0.68-5.223c-0.334-0.385-1.052-2.555-1.475-3.578c24.502-14.466,42.572-37.561,51.059-64.23
		c1.148,0.18,3.141,0.532,3.785,0.662c1.334-0.878,2.558-2.026,4.959-1.836c4.728,0.684,9.584,2.44,15.445,4.542
		c2.723,1.044,4.917,2.257,7.949,3.067c0.638,0.172,1.555,0.332,2.288,0.491c0.059,0.015,0.112,0.045,0.172,0.057
		c0.038,0.008,0.095,0.011,0.129,0.02c5.252,1.129,10.353-1.745,11.432-6.473s-2.274-9.528-7.493-10.787
		c-0.76-0.171-1.836-0.467-2.576-0.606c-3.081-0.582-5.589-0.438-8.495-0.68c-6.192-0.65-11.323-1.177-15.88-2.611
		c-1.857-0.721-3.179-2.933-3.824-3.844l-3.575-1.041c1.854-13.416,1.354-27.379-1.858-41.351
		c-3.238-14.099-8.962-26.998-16.594-38.359c0.916-0.834,2.65-2.369,3.14-2.821c0.145-1.587,0.02-3.256,1.665-5.015
		c3.484-3.27,7.875-5.982,13.174-9.255c2.513-1.478,4.837-2.431,7.36-4.294c0.571-0.423,1.351-1.092,1.949-1.573
		c4.25-3.389,5.229-9.232,2.176-13.058c-3.048-3.824-8.96-4.185-13.209-0.793c-0.603,0.479-1.425,1.103-1.966,1.57
		c-2.381,2.046-3.848,4.066-5.849,6.189c-4.368,4.435-7.978,8.138-11.94,10.805c-1.718,1-4.235,0.654-5.376,0.586l-3.368,2.404
		c-19.209-20.143-45.364-33.021-73.524-35.522c-0.08-1.18-0.183-3.312-0.21-3.954c-1.15-1.103-2.543-2.046-2.895-4.43
		c-0.385-4.761,0.257-9.885,1.002-16.065c0.411-2.889,1.098-5.288,1.213-8.422c0.026-0.713-0.015-1.748-0.017-2.519
		C93.467-200.684,89.504-205.092,84.61-205.092z"/>
</g>
</svg>
