<svg id="Content" xmlns="http://www.w3.org/2000/svg" viewBox="0 0 594.5 189.5"><defs><style>.cls-1{fill:#fff;}</style></defs><path class="cls-1" d="M209.37012,86.92871A40.06124,40.06124,0,0,1,190.6709,91.3291q-14.00244,0-21.7002-9.59961-7.7014-9.60058-7.6997-26.90039,0-17.19873,7.75-26.8501,7.74828-9.64892,21.6499-9.6499a40.2393,40.2393,0,0,1,18.39941,4.3999v7.89991a41.04284,41.04284,0,0,0-8.5-3.25,35.00542,35.00542,0,0,0-8.2998-.94971q-20.60157,0-20.59961,28.3999,0,28.40186,20.59961,28.40039a35.53954,35.53954,0,0,0,8.5498-1,43.10833,43.10833,0,0,0,8.54981-3.20019Z"/><path class="cls-1" d="M218.86914,89.8291V14.729l9.40039-1.10009V89.8291Z"/><path class="cls-1" d="M260.668,91.3291q-11.40089,0-17.25-6.84961-5.85058-6.8496-5.85059-20.05029,0-13.20043,5.85059-20.05029,5.84912-6.84814,17.25-6.84961,11.39941,0,17.249,6.84961,5.85059,6.85107,5.85059,20.05029,0,13.20044-5.85059,20.05029Q272.06788,91.32911,260.668,91.3291Zm0-7.40039q6.99756,0,10.14941-4.59961,3.14941-4.59814,3.15039-14.8999,0-10.29858-3.15039-14.8999Q267.668,44.93042,260.668,44.9292q-7.002,0-10.15039,4.6001-3.14942,4.60034-3.15039,14.8999,0,10.30005,3.15039,14.8999Q253.667,83.93017,260.668,83.92871Z"/><path class="cls-1" d="M326.46582,90.0293l-.60059-3.5a32.05946,32.05946,0,0,1-16.2998,4.7998q-8.09911,0-12.59961-4.40039-4.5-4.39893-4.5-12.2998V39.0293h9.39941V73.22949q0,10.70069,10.30079,10.69922a23.50562,23.50562,0,0,0,6.2998-.94922,27.15253,27.15253,0,0,0,6.19922-2.55078V39.0293h9.40039V89.22949Z"/><path class="cls-1" d="M387.76465,13.62891V89.22949l-7.60059.79981-.59961-3.5q-7.90136,4.80028-15.2998,4.7998-9.80127,0-15.35059-6.95019-5.54883-6.94923-5.5498-19.14942,0-13.20043,6.5-20.45019,6.49952-7.24952,18.2998-7.25a34.31368,34.31368,0,0,1,10.2002,1.3999V14.729Zm-21.29981,70.2998a21.33529,21.33529,0,0,0,5.94922-.94922,25.78744,25.78744,0,0,0,5.9502-2.55078V46.0293a32.24377,32.24377,0,0,0-8.90039-1.2002q-8.2002,0-12.249,5-4.05028,5.00171-4.05078,15.2002,0,9.30028,3.35059,14.09961Q359.86328,83.9292,366.46484,83.92871Z"/><path class="cls-1" d="M209.37012,167.92871a40.06124,40.06124,0,0,1-18.69922,4.40039q-14.00244,0-21.7002-9.59961-7.7014-9.60058-7.6997-26.90039,0-17.19873,7.75-26.84961,7.74828-9.65038,21.6499-9.65039a40.22739,40.22739,0,0,1,18.39941,4.40039v7.89942a41.07071,41.07071,0,0,0-8.5-3.25,35.00511,35.00511,0,0,0-8.2998-.9502q-20.60157,0-20.59961,28.40039,0,28.40185,20.59961,28.40039a35.53954,35.53954,0,0,0,8.5498-1,43.10833,43.10833,0,0,0,8.54981-3.20019Z"/><path class="cls-1" d="M252.26953,171.0293l-.60058-3.5a32.05952,32.05952,0,0,1-16.29981,4.7998q-8.09911,0-12.59961-4.40039-4.5-4.39893-4.5-12.2998V120.0293H227.669v34.20019q0,10.70069,10.30078,10.69922a23.50562,23.50562,0,0,0,6.2998-.94922,27.15253,27.15253,0,0,0,6.19922-2.55078V120.0293h9.40039v50.20019Z"/><path class="cls-1" d="M268.668,161.5293a39.62073,39.62073,0,0,0,16,3.5q5.79931,0,8.85058-2.2002a7.29774,7.29774,0,0,0,3.04981-6.2998,5.95922,5.95922,0,0,0-1.7002-4.40039,13.60808,13.60808,0,0,0-5.59961-2.89942l-6.80078-2.10058q-6.80127-2.09913-9.89941-5.39942a11.77709,11.77709,0,0,1-3.09961-8.40039,12.82421,12.82421,0,0,1,5.2998-10.7998q5.29834-3.999,14.29981-4a35.98817,35.98817,0,0,1,14.5,3v7.20019A39.32959,39.32959,0,0,0,289.668,125.8291q-5.09913,0-7.9502,1.9502a6.05946,6.05946,0,0,0-2.84961,5.25,4.78814,4.78814,0,0,0,1.5,3.75,16.12536,16.12536,0,0,0,5.59961,2.64941l7.60059,2.30078q12.39843,3.7002,12.39941,14.69922,0,7.70216-5.2998,11.80078-5.30127,4.09863-15.29981,4.09961-9.30028,0-15.59961-3.09961Z"/><path class="cls-1" d="M326.2666,126.8291v29.2002q0,4.5,2,6.64941,1.99952,2.15186,6.10059,2.15039a22.02683,22.02683,0,0,0,6.59961-1.09961v6.69922a24.24436,24.24436,0,0,1-8.7002,1.60059q-7.60107,0-11.5-4-3.89941-3.999-3.89941-11.7002v-29.5H309.2666v-6.40039l8-.2998.7002-12.7002,8.2998-.89941v13.5h14.2002v6.7998Z"/><path class="cls-1" d="M368.167,172.3291q-11.40087,0-17.25-6.84961-5.85059-6.8496-5.85058-20.05078,0-13.1997,5.85058-20.0498,5.84913-6.84815,17.25-6.84961,11.39941,0,17.249,6.84961,5.85059,6.85107,5.85058,20.0498,0,13.20117-5.85058,20.05078Q379.56689,172.3291,368.167,172.3291Zm0-7.40039q6.99756,0,10.14942-4.59961,3.14941-4.59815,3.15039-14.90039,0-10.29784-3.15039-14.89941-3.14942-4.59815-10.14942-4.60059-7.002,0-10.15039,4.60059-3.14941,4.60107-3.15039,14.89941,0,10.30078,3.15039,14.90039Q361.166,164.93017,368.167,164.92871Z"/><path class="cls-1" d="M441.96484,94.62891v75.60058l-7.60058.79981-.59961-3.5q-7.90137,4.80029-15.29981,4.7998-9.80127,0-15.35058-6.95019-5.54883-6.94923-5.54981-19.14942,0-13.20117,6.5-20.45019,6.49952-7.24952,18.29981-7.25a34.33016,34.33016,0,0,1,10.20019,1.39941V95.72949Zm-21.2998,70.2998a21.33534,21.33534,0,0,0,5.94922-.94922,25.78736,25.78736,0,0,0,5.95019-2.55078V127.0293a32.26218,32.26218,0,0,0-8.90039-1.2002q-8.20018,0-12.249,5-4.0503,5.001-4.05078,15.2002,0,9.30029,3.35058,14.09961Q414.06349,164.9292,420.665,164.92871Z"/><path class="cls-1" d="M458.96289,109.62891a6.3747,6.3747,0,0,1-4.5498-1.54981,6.29739,6.29739,0,0,1,0-8.5,7.45342,7.45342,0,0,1,9.09961,0,6.29739,6.29739,0,0,1,0,8.5A6.37794,6.37794,0,0,1,458.96289,109.62891ZM454.2627,170.8291v-50l9.40039-1.09961V170.8291Z"/><path class="cls-1" d="M507.26172,171.0293l-.59961-3.5q-8.40089,4.80029-16.29981,4.7998-7.90135,0-12.54981-4.25-4.65087-4.24952-4.65038-11.45019,0-7.5,5.20019-11.64942,5.19873-4.14843,14.59961-4.15039a72.66278,72.66278,0,0,1,12.7002,1.29981V136.8291q0-5.499-3.15039-8.20019-3.14942-2.69971-9.64942-2.7002a46.129,46.129,0,0,0-16.5996,3.5v-7.2998a51.9311,51.9311,0,0,1,18.39941-3.59961q9.89942,0,15.0498,4.59961,5.14893,4.60107,5.15039,13.5v33.60058Zm-14.5-6a24.51206,24.51206,0,0,0,6.5-1,27.856,27.856,0,0,0,6.40039-2.60059v-12.7998a45.279,45.279,0,0,0-11.09962-1.2002q-6,0-8.85058,2.25-2.84913,2.25-2.84961,6.75Q482.8623,165.03028,492.76172,165.0293Z"/><path class="cls-1" d="M559.05957,170.8291V136.62891q0-10.69923-10.59961-10.7002a23.7777,23.7777,0,0,0-6.25.9502,27.0676,27.0676,0,0,0-6.25,2.5498V170.8291h-9.40039V120.62891l7.60059-.79981.59961,3.5a32.05948,32.05948,0,0,1,16.2998-4.7998q8.2998,0,12.84961,4.34961,4.5498,4.35059,4.5498,12.35058V170.8291Z"/><polygon class="cls-1" points="52.972 89.629 40.943 96.574 40.943 110.462 52.972 103.517 52.972 89.629"/><polygon class="cls-1" points="72.167 78.548 60.138 85.492 72.167 92.436 84.195 85.492 72.167 78.548"/><polygon class="cls-1" points="86.582 67.465 74.555 60.521 74.555 74.411 86.582 81.355 86.582 67.465"/><polygon class="cls-1" points="57.749 103.518 69.778 110.462 69.778 96.574 57.749 89.629 57.749 103.518"/><polygon class="cls-1" points="52.972 67.465 40.943 60.521 40.943 91.057 52.972 84.113 52.972 67.465"/><polygon class="cls-1" points="69.778 60.52 57.749 67.465 57.749 81.355 69.778 74.41 69.778 60.52"/><polygon class="cls-1" points="43.332 114.599 69.778 129.87 69.778 115.978 55.361 107.655 43.332 114.599"/><polygon class="cls-1" points="103.388 96.573 91.36 89.629 91.36 103.517 103.388 110.463 103.388 96.573"/><polygon class="cls-1" points="74.555 110.465 86.582 103.518 86.582 89.631 74.555 96.574 74.555 110.465"/><path class="cls-1" d="M72,27a63,63,0,1,0,63,63A63,63,0,0,0,72,27Zm36.16577,88.98L72.16638,136.76416,36.16577,115.9787V52.24664L55.36041,63.32843l16.806-9.70233,16.80469,9.70233,19.1947-11.08179Z"/><polygon class="cls-1" points="103.388 60.521 91.36 67.465 91.36 84.113 103.388 91.057 103.388 60.521"/><polygon class="cls-1" points="74.555 115.98 74.555 129.87 101 114.6 88.971 107.655 74.555 115.98"/><path class="cls-1" d="M571.59025,170.08605a3.079,3.079,0,0,0,1.34029.32509,1.31793,1.31793,0,0,0,.823-.22573.76571.76571,0,0,0,.29187-.64368.686.686,0,0,0-.18576-.49735,1.4998,1.4998,0,0,0-.62371-.3321l-.43794-.13932a1.94989,1.94989,0,0,1-.85267-.46765,1.00622,1.00622,0,0,1-.26217-.71335,1.157,1.157,0,0,1,.44469-.95257,1.86041,1.86041,0,0,1,1.19423-.35478,2.90858,2.90858,0,0,1,1.201.25866v.51085a3.00265,3.00265,0,0,0-1.1413-.25165,1.25068,1.25068,0,0,0-.753.202.65069.65069,0,0,0-.27541.554.54883.54883,0,0,0,.15607.41149,1.409,1.409,0,0,0,.54081.27864l.438.13932a2.1532,2.1532,0,0,1,.942.52759,1.17369,1.17369,0,0,1,.28539.81973,1.24094,1.24094,0,0,1-.45792,1.02493,1.96853,1.96853,0,0,1-1.2674.36828,2.94256,2.94256,0,0,1-1.30708-.27864Z"/><path class="cls-1" d="M577.56892,170.4241l-1.29412-3.33076-.25191,3.73576h-.61048l.36477-4.64513h.72334l1.33382,3.43768,1.33381-3.43768h.72307l.365,4.64513h-.617l-.25893-3.73576L578.093,170.4241Z"/></svg>