<?xml version="1.0" encoding="utf-8"?>
<!-- Generator: Adobe Illustrator 21.1.0, SVG Export Plug-In . SVG Version: 6.00 Build 0)  -->
<svg version="1.1" id="Layer_1" xmlns="http://www.w3.org/2000/svg" xmlns:xlink="http://www.w3.org/1999/xlink" x="0px" y="0px"
	 viewBox="0 0 622.5 260.1" style="enable-background:new 0 0 622.5 260.1;" xml:space="preserve">
<style type="text/css">
	.st0{opacity:0.8;}
	.st1{clip-path:url(#SVGID_2_);fill:#FFFFFF;}
	.st2{clip-path:url(#SVGID_4_);fill:#FFFFFF;}
	.st3{fill:#FFFFFF;}
	.st4{fill-rule:evenodd;clip-rule:evenodd;fill:#FFFFFF;}
	.st5{opacity:0.8;fill:#FFFFFF;}
	.st6{clip-path:url(#SVGID_6_);fill:#FFFFFF;}
</style>
<g class="st0">
	<g>
		<defs>
			<rect id="SVGID_1_" x="492.9" y="244.4" width="126.5" height="1"/>
		</defs>
		<use xlink:href="#SVGID_1_"  style="overflow:visible;fill:#FFFFFF;"/>
		<clipPath id="SVGID_2_">
			<use xlink:href="#SVGID_1_"  style="overflow:visible;"/>
		</clipPath>
		<rect x="492.9" y="244.4" class="st1" width="126.5" height="1"/>
	</g>
</g>
<g class="st0">
	<g>
		<defs>
			<rect id="SVGID_3_" x="3" y="244.4" width="126.5" height="1"/>
		</defs>
		<use xlink:href="#SVGID_3_"  style="overflow:visible;fill:#FFFFFF;"/>
		<clipPath id="SVGID_4_">
			<use xlink:href="#SVGID_3_"  style="overflow:visible;"/>
		</clipPath>
		<rect x="3" y="244.4" class="st2" width="126.5" height="1"/>
	</g>
</g>
<path class="st3" d="M176,176.5c1.1-0.3,2.4-0.6,4.1-0.9c1.7-0.3,3.4-0.4,5.2-0.4c1.9,0,3.4,0.2,4.6,0.7c1.2,0.5,2.2,1.2,2.9,2.1
	c0.7,0.9,1.2,1.9,1.5,3.2c0.3,1.2,0.5,2.6,0.5,4.1v12.4h-6.2V186c0-2-0.3-3.4-0.8-4.2c-0.5-0.8-1.5-1.2-3-1.2c-0.4,0-0.9,0-1.4,0.1
	c-0.5,0-0.9,0.1-1.3,0.1v16.9H176V176.5z M164.6,186.6c0-1.9-0.4-3.4-1.1-4.5c-0.8-1.1-1.9-1.6-3.3-1.6s-2.5,0.5-3.3,1.6
	c-0.8,1.1-1.2,2.6-1.2,4.5s0.4,3.4,1.2,4.6c0.8,1.1,1.9,1.7,3.3,1.7s2.5-0.6,3.3-1.7C164.2,190.1,164.6,188.5,164.6,186.6
	 M170.9,186.6c0,1.7-0.2,3.3-0.7,4.7c-0.5,1.4-1.2,2.6-2.2,3.7c-0.9,1-2.1,1.8-3.4,2.4c-1.3,0.6-2.8,0.8-4.4,0.8
	c-1.6,0-3.1-0.3-4.4-0.8c-1.3-0.6-2.4-1.3-3.4-2.4c-0.9-1-1.7-2.2-2.2-3.7c-0.5-1.4-0.8-3-0.8-4.7s0.3-3.3,0.8-4.7
	c0.5-1.4,1.3-2.6,2.2-3.6c1-1,2.1-1.8,3.4-2.3c1.3-0.6,2.8-0.8,4.3-0.8c1.6,0,3,0.3,4.3,0.8c1.3,0.6,2.4,1.3,3.4,2.3
	c0.9,1,1.7,2.2,2.2,3.6C170.7,183.3,170.9,184.9,170.9,186.6 M137.2,198.2c-4.7,0-8.3-1.3-10.7-3.9c-2.5-2.6-3.7-6.3-3.7-11.1
	c0-2.4,0.4-4.5,1.1-6.4c0.7-1.9,1.8-3.5,3.1-4.7c1.3-1.3,2.9-2.3,4.7-2.9c1.8-0.7,3.8-1,5.9-1c1.2,0,2.3,0.1,3.3,0.3
	c1,0.2,1.9,0.4,2.6,0.6c0.7,0.2,1.4,0.5,1.9,0.7c0.5,0.2,0.9,0.4,1.1,0.6l-1.9,5.2c-0.9-0.5-1.9-0.9-3.1-1.2c-1.2-0.3-2.5-0.5-4-0.5
	c-1,0-2,0.2-2.9,0.5c-1,0.3-1.8,0.9-2.5,1.6c-0.7,0.7-1.3,1.7-1.8,2.8c-0.4,1.2-0.7,2.6-0.7,4.2c0,1.3,0.1,2.6,0.4,3.7
	c0.3,1.2,0.8,2.1,1.4,3c0.7,0.8,1.5,1.5,2.6,2c1.1,0.5,2.3,0.7,3.8,0.7c0.9,0,1.8-0.1,2.5-0.2c0.8-0.1,1.4-0.2,2-0.4
	c0.6-0.2,1.1-0.3,1.5-0.5c0.4-0.2,0.8-0.4,1.2-0.5l1.8,5.2c-0.9,0.6-2.2,1.1-3.9,1.5C141.3,198,139.4,198.2,137.2,198.2
	 M112.6,184.5c0-0.5-0.1-1-0.3-1.5c-0.2-0.5-0.4-0.9-0.7-1.3c-0.3-0.4-0.7-0.7-1.2-1c-0.5-0.2-1.1-0.4-1.8-0.4
	c-0.7,0-1.3,0.1-1.8,0.4c-0.5,0.2-0.9,0.5-1.2,0.9c-0.3,0.4-0.6,0.8-0.8,1.4c-0.2,0.5-0.3,1-0.4,1.6H112.6z M98,186.8
	c0-1.9,0.3-3.6,0.9-5.1c0.6-1.5,1.4-2.7,2.4-3.6c1-1,2.1-1.7,3.3-2.2c1.3-0.5,2.6-0.7,3.9-0.7c3.1,0,5.6,0.9,7.4,2.8
	c1.8,1.9,2.7,4.7,2.7,8.4c0,0.4,0,0.8,0,1.2c0,0.4-0.1,0.8-0.1,1.1h-14.1c0.1,1.3,0.7,2.3,1.8,3c1.1,0.7,2.5,1.1,4.2,1.1
	c1.1,0,2.3-0.1,3.3-0.3s2-0.5,2.7-0.8l0.8,5c-0.3,0.2-0.8,0.3-1.3,0.5c-0.6,0.2-1.2,0.3-1.9,0.4c-0.7,0.1-1.4,0.2-2.2,0.3
	c-0.8,0.1-1.6,0.1-2.3,0.1c-2,0-3.7-0.3-5.1-0.9c-1.5-0.6-2.7-1.4-3.6-2.4c-1-1-1.7-2.2-2.1-3.6C98.2,189.9,98,188.4,98,186.8
	 M93.9,186.7c0,1.7-0.3,3.3-0.8,4.7c-0.5,1.4-1.3,2.6-2.2,3.6c-1,1-2.2,1.8-3.6,2.3c-1.4,0.5-3,0.8-4.8,0.8c-0.7,0-1.5,0-2.4-0.1
	c-0.8-0.1-1.6-0.2-2.4-0.3c-0.8-0.1-1.5-0.2-2.3-0.4c-0.7-0.2-1.4-0.3-1.9-0.5v-30.6l6.2-1v10.9c0.7-0.3,1.4-0.5,2.2-0.7
	c0.7-0.2,1.6-0.2,2.4-0.2c1.6,0,2.9,0.3,4.1,0.8c1.2,0.5,2.2,1.3,3,2.3c0.8,1,1.4,2.2,1.8,3.6C93.7,183.4,93.9,184.9,93.9,186.7
	 M87.6,186.5c0-4-1.5-6-4.4-6c-0.6,0-1.3,0.1-1.9,0.2c-0.6,0.2-1.1,0.4-1.5,0.6v11.3c0.3,0.1,0.7,0.1,1.2,0.1c0.5,0,1,0.1,1.5,0.1
	c1.7,0,3-0.6,3.8-1.7C87.2,190,87.6,188.4,87.6,186.5 M67.4,196.9c-1.1,0.3-2.4,0.6-4.1,0.9c-1.7,0.3-3.4,0.4-5.2,0.4
	c-1.9,0-3.4-0.2-4.6-0.7c-1.2-0.5-2.2-1.2-2.9-2.1c-0.7-0.9-1.2-2-1.5-3.2c-0.3-1.2-0.5-2.6-0.5-4.1v-12.2h6.2v11.4
	c0,2,0.3,3.4,0.8,4.3c0.5,0.9,1.5,1.3,3,1.3c0.4,0,0.9,0,1.4-0.1c0.5,0,0.9-0.1,1.3-0.1v-16.9h6.2V196.9z M38.8,197.6
	c-0.6-0.9-1.3-2-2.1-3.1s-1.6-2.2-2.6-3.3c-0.9-1.1-1.9-2.1-2.9-3.2c-1-1-2-1.9-3-2.7v12.2h-6.5v-28.8h6.5v10.9
	c1.7-1.8,3.4-3.6,5.1-5.6c1.7-1.9,3.3-3.7,4.8-5.3h7.7c-2,2.3-3.9,4.6-5.9,6.7c-2,2.2-4.1,4.3-6.3,6.5c2.3,1.9,4.5,4.2,6.7,6.8
	c2.1,2.6,4.2,5.5,6.2,8.7H38.8z"/>
<path class="st4" d="M90.8,70.4l-3.6,0.8c0-0.5-0.1-1-0.1-1.5c0-3.8,1-7.5,3-10.8l7,6.2c0.1,0.1,0.2,0.2,0.4,0.3
	c-0.4,1-0.7,2.1-0.8,3.3c-0.2,0.1-0.5,0.1-0.7,0.2L90.8,70.4z M104.4,49.2V59c-1,0.3-1.9,0.8-2.7,1.4c-0.3-0.2-0.6-0.5-0.9-0.7
	l-7.1-5C96.6,51.8,100.4,49.9,104.4,49.2 M55.7,71.8c3.4-14.9,6.3-27.5,9.7-42.4c1.5-6.7,2.5-8.5,8.6-12C82.5,12.5,88.7,9,97.7,3.8
	c5.6-3.2,6.7-3,6.7,3.9v34.6C98.1,43.1,92.4,46,88,50.6l-3-2.1c-0.4-0.3-0.6-0.5-0.7-1c-0.4-1.1-0.7-1.6-1.6-2.4
	c-1.4-1.1-3.5-0.9-4.6,0.5c-1.1,1.4-0.9,3.5,0.5,4.6c0.5,0.4,1,0.7,1.6,0.8c0.4,0.1,0.8,0.1,1.2,0.2c0.4,0.1,0.6,0.2,0.9,0.4
	l2.8,2.5c-3.1,4.6-4.7,9.9-4.7,15.4c0,1,0.1,2,0.2,3l-6.1,1.3c-0.4,0-0.8,0-1.3,0.1c-0.3,0.1-0.6,0.2-0.9,0.3c-4,0.8-8,1.7-12.1,2.6
	C54.7,78.1,54.5,77,55.7,71.8 M111.5,59v-9.8c4,0.7,7.7,2.6,10.7,5.4l-7.7,5.5c-0.1,0.1-0.2,0.2-0.3,0.2
	C113.3,59.7,112.5,59.3,111.5,59 M128.7,70.5l-9.6-2.2c-0.1-1.1-0.4-2.1-0.8-3c0.1-0.1,0.2-0.2,0.3-0.2l7.1-6.3
	c2,3.3,3.1,7,3.1,10.9C128.7,69.9,128.7,70.2,128.7,70.5 M116.2,17.6c5.2,2.5,8.9,4.3,14.1,6.8c7.2,3.5,14.4,7,21.7,10.4
	c1.8,7.8,3.6,15.6,5.3,23.4c1.1,4.7,1.6,7.2,2.7,11.8c1.7,7.3,1.5,7.9-6,6.2l-18.5-4.2c0.1-0.8,0.1-1.6,0.1-2.4
	c0-5.6-1.6-10.9-4.8-15.5l2.6-2.4c0.4-0.3,0.6-0.4,1.1-0.5c1.1-0.2,1.8-0.3,2.7-1c1.4-1.1,1.7-3.2,0.5-4.6c-1.1-1.4-3.2-1.7-4.6-0.5
	c-0.5,0.4-0.9,0.8-1.2,1.4c-0.2,0.4-0.3,0.7-0.5,1.1c-0.1,0.3-0.3,0.6-0.6,0.8l-3,2.1c-4.4-4.6-10.1-7.5-16.4-8.3V21.1
	C111.5,16.2,112,15.6,116.2,17.6 M109.8,80.6c-0.6,0.1-1.2,0.2-1.9,0.2c-0.6,0-1.2,0-1.8-0.1c-0.1,0.2-0.2,0.4-0.3,0.6l-4.4,8.1
	c2.1,0.7,4.3,1.1,6.6,1.1c2.3,0,4.5-0.4,6.7-1.1l-4.4-8C110.1,81.1,110,80.9,109.8,80.6 M117.6,75.3l9.6,2.2
	c-1.6,3.9-4.3,7.2-7.8,9.5l-3.8-9.2C116.4,77,117.1,76.2,117.6,75.3 M88.7,77.4l9.6-2.2c0.6,1,1.3,1.8,2.1,2.6
	c-0.1,0.2-0.2,0.4-0.3,0.6L96.6,87C93.1,84.7,90.3,81.3,88.7,77.4 M167.3,94.3c-4.6,5.7-6.7,8.4-11.3,14.1
	c-5.2,6.5-9.4,11.8-14.6,18.3c-3.7,4.7-6.4,4.8-12.5,4.8H108H86.9c-8,0-8.6,0-13.5-6.2c-4.9-6.1-8.7-10.9-13.5-17
	c-3.8-4.8-4.8-6-8.6-10.8c-5.9-7.4-6.9-10.1,2.3-12.1L82,79c2.2,6,6.4,11.1,11.9,14.4l-1.3,3c-0.2,0.4-0.4,0.7-0.8,0.9
	c-0.9,0.6-1.5,1-2,2.1c-0.8,1.6-0.1,3.6,1.5,4.4c1.6,0.8,3.6,0.1,4.4-1.5c0.3-0.6,0.4-1.1,0.5-1.8c0-0.4,0-0.8-0.1-1.2
	c0-0.4,0-0.6,0.2-1l1.6-2.9c3.2,1.2,6.5,1.8,9.9,1.8c3.4,0,6.8-0.6,10-1.9l1.6,2.9c0.2,0.4,0.3,0.7,0.2,1.2
	c-0.1,1.1-0.1,1.8,0.4,2.8c0.8,1.6,2.8,2.3,4.4,1.5c1.6-0.8,2.3-2.8,1.5-4.4c-0.3-0.6-0.6-1.1-1.1-1.5c-0.3-0.3-0.7-0.5-1-0.7
	c-0.3-0.2-0.5-0.4-0.6-0.8l-1.3-3.2c5.5-3.3,9.7-8.4,11.8-14.4l31.3,7.1C171.3,87.5,170.9,89.7,167.3,94.3"/>
<path class="st4" d="M111.5,59v-9.8c4,0.7,7.7,2.6,10.7,5.4l-7.7,5.5c-0.1,0.1-0.2,0.2-0.3,0.2C113.3,59.7,112.5,59.3,111.5,59
	 M128.7,70.5l-9.6-2.2c-0.1-1.1-0.4-2.1-0.8-3c0.1-0.1,0.2-0.2,0.3-0.2l7.1-6.3c2,3.3,3.1,7,3.1,10.9
	C128.7,69.9,128.7,70.2,128.7,70.5 M116.2,17.6c5.2,2.5,8.9,4.3,14.1,6.8c7.2,3.5,14.4,7,21.7,10.4c1.8,7.8,3.6,15.6,5.3,23.4
	c1.1,4.7,1.6,7.2,2.7,11.8c1.7,7.3,1.5,7.9-6,6.2l-18.5-4.2c0.1-0.8,0.1-1.6,0.1-2.4c0-5.6-1.6-10.9-4.8-15.5l2.6-2.4
	c0.4-0.3,0.6-0.4,1.1-0.5c1.1-0.2,1.8-0.3,2.7-1c1.4-1.1,1.7-3.2,0.5-4.6c-1.1-1.4-3.2-1.7-4.6-0.5c-0.5,0.4-0.9,0.8-1.2,1.4
	c-0.2,0.4-0.3,0.7-0.5,1.1c-0.1,0.3-0.3,0.6-0.6,0.8l-3,2.1c-4.4-4.6-10.1-7.5-16.4-8.3V21.1C111.5,16.2,112,15.6,116.2,17.6
	 M117.6,75.3l9.6,2.2c-1.6,3.9-4.3,7.2-7.8,9.5l-3.8-9.2C116.4,77,117.1,76.2,117.6,75.3 M108,90.4v-9.6c0.6,0,1.3-0.1,1.9-0.2
	c0.1,0.2,0.2,0.5,0.4,0.7l4.4,8C112.5,90,110.2,90.4,108,90.4 M167.3,94.3c-4.6,5.7-6.7,8.4-11.3,14.1c-5.2,6.5-9.4,11.8-14.6,18.3
	c-3.7,4.7-6.4,4.8-12.5,4.8H108V97.2c3.4,0,6.8-0.6,10-1.9l1.6,2.9c0.2,0.4,0.3,0.7,0.2,1.2c-0.1,1.1-0.1,1.8,0.4,2.8
	c0.8,1.6,2.8,2.3,4.4,1.5c1.6-0.8,2.3-2.8,1.5-4.4c-0.3-0.6-0.6-1.1-1.1-1.5c-0.3-0.3-0.7-0.5-1-0.7c-0.3-0.2-0.5-0.4-0.6-0.8
	l-1.3-3.2c5.5-3.3,9.7-8.4,11.8-14.4l31.3,7.1C171.3,87.5,170.9,89.7,167.3,94.3"/>
<polygon class="st3" points="399.3,93.1 382.7,93.1 382.7,131.9 421.5,131.9 421.5,115.3 399.3,115.3 "/>
<polygon class="st3" points="482.4,93.2 482.4,115.3 460.4,115.3 460.3,115.1 460.3,131.9 499.1,131.9 499.1,93.1 482.3,93.1 "/>
<polygon class="st3" points="382.7,54.3 399.4,54.3 399.3,54.2 399.3,32.1 399.3,32.1 421.3,32.1 421.5,32.3 421.5,15.5 382.7,15.5 
	"/>
<polygon class="st3" points="460.3,15.5 460.3,32.1 482.4,32.1 482.4,54.3 499.1,54.3 499.1,15.5 "/>
<polygon class="st5" points="458.2,54.3 436,32.1 460.3,32.1 460.3,15.5 421.5,15.5 421.5,32.3 443.5,54.3 "/>
<polygon class="st5" points="438.2,93.1 423.5,93.1 441.9,111.5 445.7,115.3 438.1,115.3 421.5,115.3 421.5,131.9 460.3,131.9 
	460.3,115.1 449.2,104.1 "/>
<polygon class="st5" points="482.4,54.3 482.4,70.9 482.4,78.5 478.6,74.7 460.3,56.4 460.3,71.1 471.3,82.1 482.3,93.1 499.1,93.1 
	499.1,54.3 "/>
<polygon class="st5" points="421.5,76.3 399.4,54.3 382.7,54.3 382.7,93.1 399.3,93.1 399.3,68.9 421.5,91 "/>
<path class="st3" d="M301.5,174.2l-4.2,5c-1.9-2.3-4.7-3.7-7.2-3.7c-4.5,0-8,3.6-8,8.3c0,4.8,3.4,8.4,8,8.4c2.4,0,5.2-1.3,7.2-3.4
	l4.3,4.5c-3.1,3.1-7.6,5.2-11.8,5.2c-8.6,0-15-6.3-15-14.7c0-8.3,6.6-14.5,15.3-14.5C294.3,169.4,298.7,171.3,301.5,174.2z"/>
<path class="st3" d="M305.1,198.2v-30.3h7.1v30.3H305.1z"/>
<path class="st3" d="M340.2,187.2c0,6.8-4.8,11.3-12,11.3c-7.2,0-12.1-4.5-12.1-11.3S321,176,328.2,176
	C335.4,176,340.2,180.4,340.2,187.2z M323.3,187.3c0,3.4,2,5.7,4.9,5.7c2.9,0,4.9-2.3,4.9-5.7c0-3.4-2-5.7-4.9-5.7
	C325.3,181.6,323.3,183.9,323.3,187.3z"/>
<path class="st3" d="M365.5,198.2h-7.1v-3.6c-1.5,2.6-4,3.9-7.2,3.9c-4.8,0-7.9-3.3-7.9-8.4v-13.9h7.1v11.9c0,2.6,1.4,4.2,3.7,4.2
	c2.7,0,4.3-2.2,4.3-5.2v-10.9h7.1V198.2z"/>
<path class="st3" d="M393.3,198.2h-7.1v-2.9c-1.6,2-3.8,3.2-6.6,3.2c-6.2,0-10.3-4.6-10.3-11.4c0-6.7,4-11.2,10.1-11.2
	c2.9,0,5.2,1.1,6.8,3.2v-11.2h7.1V198.2z M386.3,187.3c0-3.4-2-5.7-4.9-5.7c-2.9,0-4.9,2.3-4.9,5.7c0,3.4,2,5.8,4.9,5.8
	C384.3,193,386.3,190.7,386.3,187.3z"/>
<path class="st3" d="M419.2,198.2l-13.2-17.6v17.6h-6.8v-28.6h6.4l13.2,17.7v-17.7h6.8v28.6H419.2z"/>
<path class="st3" d="M450.8,183.8v14.4h-6.9v-2.5c-1.4,1.9-3.8,2.9-6.7,2.9c-4.7,0-7.6-2.9-7.6-6.9c0-4.2,3-6.6,8.5-6.7h5.8v-0.3
	c0-2.2-1.4-3.5-4.3-3.5c-1.8,0-4.3,0.7-6.6,1.8l-2-4.7c3.4-1.6,6.5-2.5,10.2-2.5C447.3,175.9,450.8,178.9,450.8,183.8z M443.9,190.8
	v-2h-4.5c-2.1,0-3.2,0.7-3.2,2.4c0,1.6,1.1,2.6,3.1,2.6C441.6,193.8,443.4,192.6,443.9,190.8z"/>
<path class="st3" d="M469.9,197.1c-1.6,0.9-3.8,1.5-5.9,1.5c-4.3,0-7.3-2.4-7.3-7v-9.7h-3.1v-4.6h3.1v-6.1h7v6.1h5.8v4.7h-5.8v8.6
	c0,1.7,0.7,2.5,2,2.4c0.7,0,1.7-0.3,2.7-0.7L469.9,197.1z"/>
<path class="st3" d="M480.7,169.9c0,2.2-1.6,3.8-3.7,3.8c-2.2,0-3.7-1.6-3.7-3.8c0-2.2,1.6-3.7,3.7-3.7
	C479.2,166.1,480.7,167.7,480.7,169.9z M473.4,198.2v-22h7v22H473.4z"/>
<path class="st3" d="M491.4,198.2l-8.3-22h7.3l4.7,15.6l4.8-15.6h7l-8.3,22H491.4z"/>
<path class="st3" d="M530.3,189.1h-15.5c0.7,2.6,2.6,4.1,5.2,4.1c1.9,0,3.8-0.8,5.3-2.2l3.7,3.6c-2.2,2.5-5.6,3.9-9.6,3.9
	c-7.2,0-11.7-4.5-11.7-11.2c0-6.8,4.7-11.3,11.5-11.3C526.9,176,530.8,181.1,530.3,189.1z M523.5,185.3c0-2.7-1.7-4.5-4.3-4.5
	c-2.5,0-4.1,1.8-4.6,4.5H523.5z"/>
<path class="st3" d="M559.1,174.2l-4.2,5c-1.9-2.3-4.7-3.7-7.2-3.7c-4.5,0-8,3.6-8,8.3c0,4.8,3.4,8.4,8,8.4c2.4,0,5.2-1.3,7.2-3.4
	l4.3,4.5c-3.1,3.1-7.6,5.2-11.8,5.2c-8.6,0-15-6.3-15-14.7c0-8.3,6.6-14.5,15.3-14.5C551.8,169.4,556.2,171.3,559.1,174.2z"/>
<path class="st3" d="M583.8,187.2c0,6.8-4.8,11.3-12,11.3c-7.2,0-12.1-4.5-12.1-11.3s4.8-11.2,12.1-11.2
	C579,176,583.8,180.4,583.8,187.2z M566.9,187.3c0,3.4,2,5.7,4.9,5.7c2.9,0,4.9-2.3,4.9-5.7c0-3.4-2-5.7-4.9-5.7
	C568.9,181.6,566.9,183.9,566.9,187.3z"/>
<path class="st3" d="M610.1,184.3v13.9h-7v-11.9c0-2.6-1.5-4.2-3.9-4.2c-2.6,0-4.2,1.8-4.5,4.5v11.7h-7.1v-22h7.1v3.6
	c1.6-2.6,4.1-3.9,7.4-3.9C607,175.9,610.1,179.2,610.1,184.3z"/>
<g class="st0">
	<g>
		<defs>
			<rect id="SVGID_5_" x="237" y="2.6" width="1" height="203.5"/>
		</defs>
		<use xlink:href="#SVGID_5_"  style="overflow:visible;fill:#FFFFFF;"/>
		<clipPath id="SVGID_6_">
			<use xlink:href="#SVGID_5_"  style="overflow:visible;"/>
		</clipPath>
		<rect x="237" y="2.6" class="st6" width="1" height="203.5"/>
	</g>
</g>
<g class="st0">
	<path class="st3" d="M178.3,256.8h-6l-9.7-16.8h-0.1c0.2,3,0.3,5.1,0.3,6.4v10.5h-4.2v-22.3h6l9.7,16.7h0.1
		c-0.2-2.9-0.2-4.9-0.2-6.1v-10.5h4.2V256.8z"/>
	<path class="st3" d="M199,248.3c0,2.8-0.7,4.9-2.2,6.5c-1.5,1.6-3.5,2.3-6.1,2.3c-1.6,0-3.1-0.4-4.3-1.1c-1.2-0.7-2.2-1.7-2.9-3.1
		c-0.7-1.3-1-2.9-1-4.7c0-2.8,0.7-4.9,2.2-6.5c1.5-1.5,3.5-2.3,6.1-2.3c1.6,0,3.1,0.4,4.3,1.1c1.2,0.7,2.2,1.7,2.9,3.1
		C198.7,244.9,199,246.5,199,248.3z M187.3,248.3c0,1.7,0.3,3,0.8,3.8s1.5,1.3,2.7,1.3c1.2,0,2.1-0.4,2.7-1.3
		c0.5-0.9,0.8-2.1,0.8-3.8c0-1.7-0.3-2.9-0.8-3.8c-0.5-0.8-1.4-1.3-2.7-1.3c-1.2,0-2.1,0.4-2.7,1.3
		C187.5,245.3,187.3,246.6,187.3,248.3z"/>
	<path class="st3" d="M212.4,239.5c0.6,0,1.2,0,1.6,0.1l-0.4,4.4c-0.4-0.1-0.8-0.2-1.4-0.2c-1.5,0-2.6,0.4-3.5,1.1
		c-0.8,0.8-1.2,1.8-1.2,3.2v8.7h-4.6v-17h3.5l0.7,2.9h0.2c0.5-1,1.2-1.7,2.1-2.3C210.3,239.8,211.3,239.5,212.4,239.5z"/>
	<path class="st3" d="M224.2,253.4c0.8,0,1.8-0.2,2.9-0.5v3.5c-1.2,0.5-2.6,0.8-4.3,0.8c-1.9,0-3.2-0.5-4.1-1.4
		c-0.8-0.9-1.3-2.3-1.3-4.2v-8.2h-2.2v-2l2.6-1.6l1.3-3.6h3v3.6h4.8v3.5h-4.8v8.2c0,0.7,0.2,1.1,0.6,1.5
		C223.1,253.3,223.6,253.4,224.2,253.4z"/>
	<path class="st3" d="M246.3,256.8h-4.6v-9.9c0-2.5-0.9-3.7-2.7-3.7c-1.3,0-2.2,0.4-2.8,1.3c-0.6,0.9-0.9,2.3-0.9,4.3v8h-4.6v-23.7
		h4.6v4.8c0,0.4,0,1.3-0.1,2.6L235,242h0.2c1-1.7,2.7-2.5,4.9-2.5c2,0,3.5,0.5,4.6,1.6c1,1.1,1.6,2.6,1.6,4.6V256.8z"/>
	<path class="st3" d="M273.1,256.8l-1.6-5.3h-8.1l-1.6,5.3h-5.1l7.9-22.3h5.8l7.9,22.3H273.1z M270.4,247.5
		c-1.5-4.8-2.3-7.5-2.5-8.1c-0.2-0.6-0.3-1.1-0.4-1.5c-0.3,1.3-1.3,4.5-2.9,9.6H270.4z"/>
	<path class="st3" d="M295.9,256.8h-4.6v-9.9c0-1.2-0.2-2.1-0.6-2.8c-0.4-0.6-1.1-0.9-1.9-0.9c-1.2,0-2,0.4-2.6,1.3
		c-0.5,0.9-0.8,2.3-0.8,4.3v8h-4.6v-17h3.5l0.6,2.2h0.3c0.5-0.8,1.1-1.4,2-1.8c0.9-0.4,1.9-0.7,3-0.7c2.5,0,4.3,0.8,5.2,2.5h0.4
		c0.5-0.8,1.1-1.4,2-1.8c0.9-0.4,1.9-0.7,3-0.7c1.9,0,3.4,0.5,4.4,1.5c1,1,1.5,2.6,1.5,4.8v11.1h-4.7v-9.9c0-1.2-0.2-2.1-0.6-2.8
		c-0.4-0.6-1.1-0.9-1.9-0.9c-1.1,0-2,0.4-2.5,1.2c-0.6,0.8-0.8,2.1-0.8,3.9V256.8z"/>
	<path class="st3" d="M318.9,257.1c-2.7,0-4.9-0.8-6.4-2.3c-1.5-1.5-2.3-3.7-2.3-6.4c0-2.9,0.7-5.1,2.1-6.6c1.4-1.6,3.4-2.3,5.9-2.3
		c2.4,0,4.3,0.7,5.6,2.1c1.3,1.4,2,3.3,2,5.7v2.3h-11c0.1,1.3,0.4,2.3,1.2,3.1c0.7,0.7,1.8,1.1,3.1,1.1c1,0,2-0.1,2.9-0.3
		c0.9-0.2,1.9-0.6,2.9-1v3.6c-0.8,0.4-1.7,0.7-2.6,0.9C321.4,257,320.3,257.1,318.9,257.1z M318.3,242.8c-1,0-1.8,0.3-2.3,0.9
		c-0.6,0.6-0.9,1.5-1,2.7h6.5c0-1.1-0.3-2-0.9-2.7C320.1,243.1,319.3,242.8,318.3,242.8z"/>
	<path class="st3" d="M339.2,239.5c0.6,0,1.2,0,1.6,0.1l-0.4,4.4c-0.4-0.1-0.8-0.2-1.4-0.2c-1.5,0-2.6,0.4-3.5,1.1
		c-0.8,0.8-1.2,1.8-1.2,3.2v8.7h-4.6v-17h3.5l0.7,2.9h0.2c0.5-1,1.2-1.7,2.1-2.3C337.1,239.8,338.1,239.5,339.2,239.5z"/>
	<path class="st3" d="M343.6,235.4c0-1.5,0.8-2.3,2.5-2.3c1.7,0,2.5,0.8,2.5,2.3c0,0.7-0.2,1.3-0.6,1.7c-0.4,0.4-1.1,0.6-1.9,0.6
		C344.5,237.7,343.6,236.9,343.6,235.4z M348.5,256.8h-4.6v-17h4.6V256.8z"/>
	<path class="st3" d="M360.2,257.1c-5.3,0-7.9-2.9-7.9-8.7c0-2.9,0.7-5.1,2.2-6.6c1.4-1.5,3.5-2.3,6.2-2.3c2,0,3.7,0.4,5.3,1.2
		l-1.4,3.6c-0.7-0.3-1.4-0.5-2-0.7c-0.6-0.2-1.3-0.3-1.9-0.3c-2.4,0-3.6,1.7-3.6,5.1c0,3.3,1.2,5,3.6,5c0.9,0,1.7-0.1,2.5-0.4
		c0.8-0.2,1.5-0.6,2.3-1.1v4c-0.8,0.5-1.5,0.8-2.3,1C362.4,257,361.4,257.1,360.2,257.1z"/>
	<path class="st3" d="M380.2,256.8l-0.9-2.3h-0.1c-0.8,1-1.6,1.7-2.4,2c-0.8,0.4-1.9,0.6-3.2,0.6c-1.6,0-2.9-0.5-3.9-1.4
		c-0.9-0.9-1.4-2.3-1.4-4c0-1.8,0.6-3.1,1.9-4c1.3-0.9,3.2-1.3,5.7-1.4l3-0.1v-0.7c0-1.7-0.9-2.6-2.6-2.6c-1.4,0-3,0.4-4.8,1.2
		l-1.5-3.1c2-1,4.1-1.5,6.5-1.5c2.3,0,4,0.5,5.3,1.5c1.2,1,1.8,2.5,1.8,4.5v11.3H380.2z M378.8,248.9L377,249c-1.3,0-2.4,0.3-3,0.7
		c-0.7,0.4-1,1.1-1,2c0,1.3,0.8,2,2.3,2c1.1,0,1.9-0.3,2.6-0.9c0.6-0.6,1-1.4,1-2.5V248.9z"/>
	<path class="st3" d="M410.6,256.8h-15.6v-3.3l5.6-5.6c1.7-1.7,2.7-2.9,3.2-3.5c0.5-0.7,0.9-1.3,1.1-1.8c0.2-0.6,0.3-1.1,0.3-1.7
		c0-0.9-0.2-1.6-0.7-2c-0.5-0.4-1.1-0.7-2-0.7c-0.9,0-1.7,0.2-2.5,0.6c-0.8,0.4-1.7,1-2.5,1.7l-2.6-3c1.1-0.9,2-1.6,2.7-2
		c0.7-0.4,1.5-0.7,2.4-0.9c0.9-0.2,1.8-0.3,2.9-0.3c1.4,0,2.6,0.3,3.7,0.8c1.1,0.5,1.9,1.2,2.5,2.1c0.6,0.9,0.9,2,0.9,3.1
		c0,1-0.2,2-0.5,2.9c-0.4,0.9-0.9,1.8-1.7,2.8c-0.8,0.9-2.1,2.3-4,4l-2.9,2.7v0.2h9.7V256.8z"/>
	<path class="st3" d="M428.3,245.7c0,3.9-0.6,6.8-1.9,8.6c-1.3,1.9-3.2,2.8-5.9,2.8c-2.6,0-4.5-1-5.8-2.9c-1.3-1.9-2-4.8-2-8.5
		c0-3.9,0.6-6.8,1.9-8.7c1.3-1.9,3.2-2.8,5.9-2.8c2.6,0,4.5,1,5.8,2.9C427.7,239.1,428.3,241.9,428.3,245.7z M417.4,245.7
		c0,2.7,0.2,4.7,0.7,5.9c0.5,1.2,1.3,1.8,2.4,1.8c1.1,0,1.9-0.6,2.4-1.8c0.5-1.2,0.7-3.1,0.7-5.8c0-2.7-0.2-4.7-0.7-5.9
		c-0.5-1.2-1.3-1.8-2.4-1.8c-1.1,0-1.9,0.6-2.4,1.8C417.7,241,417.4,242.9,417.4,245.7z"/>
	<path class="st3" d="M442.3,256.8h-4.7v-12.9l0-2.1l0.1-2.3c-0.8,0.8-1.3,1.3-1.6,1.5l-2.6,2.1l-2.3-2.8l7.2-5.7h3.9V256.8z"/>
	<path class="st3" d="M463.9,244c0,4.4-0.9,7.7-2.8,9.8c-1.8,2.2-4.6,3.2-8.4,3.2c-1.3,0-2.3-0.1-3-0.2v-3.8
		c0.9,0.2,1.7,0.3,2.7,0.3c1.6,0,2.9-0.2,3.9-0.7c1-0.5,1.8-1.2,2.3-2.2c0.5-1,0.8-2.4,0.9-4.1h-0.2c-0.6,1-1.3,1.6-2,2
		c-0.8,0.4-1.7,0.6-2.9,0.6c-1.9,0-3.5-0.6-4.6-1.9c-1.1-1.2-1.7-3-1.7-5.2c0-2.4,0.7-4.3,2-5.7c1.4-1.4,3.2-2.1,5.5-2.1
		c1.6,0,3.1,0.4,4.3,1.2c1.2,0.8,2.2,1.9,2.8,3.4C463.6,240.3,463.9,242,463.9,244z M455.9,238.1c-1,0-1.7,0.3-2.3,1
		c-0.5,0.7-0.8,1.6-0.8,2.9c0,1.1,0.2,1.9,0.7,2.6c0.5,0.6,1.3,0.9,2.3,0.9c1,0,1.8-0.3,2.4-0.9c0.7-0.6,1-1.3,1-2.2
		c0-1.2-0.3-2.2-1-3.1C457.7,238.5,456.9,238.1,455.9,238.1z"/>
</g>
</svg>
