<?xml version="1.0" encoding="utf-8"?>
<!-- Generator: Adobe Illustrator 21.1.0, SVG Export Plug-In . SVG Version: 6.00 Build 0)  -->
<svg version="1.1" id="Layer_1" xmlns="http://www.w3.org/2000/svg" xmlns:xlink="http://www.w3.org/1999/xlink" x="0px" y="0px"
	 viewBox="0 0 52.6666679 72.75" style="enable-background:new 0 0 52.6666679 72.75;" xml:space="preserve">
<style type="text/css">
	.st0{fill:#FFFFFF;}
</style>
<g>
	<path class="st0" d="M10.4496241,65.8143311c0,0.3330765-0.0740585,0.6530838-0.2141247,0.9253769
		c-0.3273001,0.6362228-0.903121,0.9588394-1.7115707,0.9588394c-0.5386853,0-0.958169-0.1521606-1.2468166-0.4523621
		c-0.4723825-0.4911346-0.4492416-1.228775-0.4489889-1.2357712l-0.3449612-0.015007
		c-0.0015597,0.0359955-0.0316129,0.8879471,0.5425634,1.4874954c0.3563838,0.3721924,0.8604641,0.5609436,1.4982033,0.5609436
		c1.1811047,0,1.7496328-0.6233215,2.0185957-1.1461563c0.1651049-0.3209381,0.2523985-0.6955719,0.2523985-1.0833588v-6.6601448
		h-0.3452988V65.8143311z"/>
	<path class="st0" d="M15.0995178,59.16679h-0.0000839c-0.0904131,0-0.1700783,0.0577469-0.1982765,0.1436501l-2.855957,8.6344833
		l0.3628712-0.0003433l0.8322229-2.4543457h3.7348013l0.8391781,2.454689h0.3646545l-2.881176-8.6347389
		C15.2695122,59.224369,15.189847,59.16679,15.0995178,59.16679z M13.353384,65.1449356l1.7466402-5.3323135l1.7610331,5.3323135
		H13.353384z"/>
	<polygon class="st0" points="19.8183708,67.9243469 23.9932671,67.9243469 23.9932671,67.5790558 20.1636677,67.5790558 
		20.1636677,63.6785126 23.7680569,63.6785126 23.7680569,63.3332138 20.1636677,63.3332138 20.1636677,59.4327583 
		23.9932671,59.4327583 23.9932671,59.0874634 19.8183708,59.0874634 	"/>
	<path class="st0" d="M31.1404629,61.4864235c0.0017281-0.0402946,0.0340157-0.9966087-0.6371078-1.6965637
		c-0.4467964-0.4661026-1.0919552-0.7023964-1.9175186-0.7023964c-0.8301144,0-1.4776344,0.2364655-1.9245987,0.7029037
		c-0.6638317,0.6927032-0.63167,1.6330833-0.6301537,1.6654549v4.2644691c0,0.5115433,0.141964,0.9922256,0.4105473,1.3901291
		c0.3199654,0.4741135,0.9508362,1.0393524,2.1390209,1.0393524c0.3906517,0,0.7477112-0.0391998,1.0612698-0.1165924
		c0.8824234-0.2175751,1.4987087-1.0156631,1.4987087-1.9406967V63.951313h-2.2089062v0.345295h1.8636074v1.7958755
		c0,0.7657928-0.5082951,1.4260406-1.2361107,1.6055145c-0.2865391,0.0706482-0.615778,0.1064758-0.978569,0.1064758
		c-0.8321381,0-1.4555054-0.2985077-1.8528175-0.8872681c-0.2299309-0.3405838-0.3514519-0.7545013-0.3514519-1.1969147
		l-0.0001698-4.271801c-0.0003357-0.0082626-0.0286617-0.8317184,0.5343037-1.4192123
		c0.3793545-0.3957977,0.9429932-0.5965195,1.6753197-0.5965195c0.7262554,0,1.2866917,0.1997108,1.6658363,0.593483
		c0.5694561,0.5915413,0.5441227,1.4375076,0.543829,1.4456825L31.1404629,61.4864235z"/>
	<polygon class="st0" points="33.4400749,67.9243469 37.6618042,67.9243469 37.6618042,67.5790558 33.7853737,67.5790558 
		33.7853737,63.6785126 37.3341255,63.6785126 37.3341255,63.3332138 33.7853737,63.3332138 33.7853737,59.4327583 
		37.6618042,59.4327583 37.6618042,59.0874634 33.4400749,59.0874634 	"/>
	<path class="st0" d="M44.7764969,67.9380035l-1.8672523-3.805481c0.3630028-0.1052628,0.6882591-0.2673073,0.9451256-0.5186691
		c0.3850441-0.3768272,0.5802879-0.9217491,0.5802879-1.6197662c0-1.7201691-0.8796005-2.5086403-1.4039116-2.7444305
		c-0.239418-0.1076508-0.5011711-0.1621933-0.7780609-0.1621933h-2.5166893v8.8368835h0.3452988v-3.6267242
		c0.1449127,0.0016022,0.2939148,0.0048065,0.4490318,0.0081787c0.6724281,0.0143585,1.3949318,0.0298691,2.0347595-0.0905685
		l1.8285103,3.7227707H44.7764969z M40.5378265,63.9605865c-0.1575165-0.0034561-0.3087502-0.0067444-0.4565315-0.0082626
		v-4.5195656h2.1713905c0.2277412,0,0.4418678,0.0443459,0.6364326,0.1318474
		c0.5475388,0.2462463,1.2002411,0.9800034,1.2002411,2.4294815c0,0.6100883-0.1558723,1.0591621-0.4764709,1.3729324
		C42.9528503,64.0129395,41.6696587,63.9852028,40.5378265,63.9605865z"/>
</g>
<g>
	<path class="st0" d="M44.0140724,42.9440269c-0.1953392-1.432415-0.806591-2.074955-1.3455276-2.6419945
		c-0.5018806-0.5280037-0.9758072-1.0266876-0.8232956-1.9422646c0.1409607-0.8463898,0.8144836-1.3671761,1.9145432-1.5026703
		c-0.6680565-4.516819-1.6471977-10.2153397-2.906147-15.0767441c-0.6285629-2.4278164-1.6228981-4.1142063-2.9562759-5.2353802
		c0.2451668-0.125391,0.482132-0.2486572,0.7105904-0.3697987C38.92239,16.0084629,39.222847,15.845397,39.5044708,15.6875
		c2.947464-1.6527452,3.4277725-2.4466505,3.53228-2.900074c0.0884056-0.3830128-0.0364571-0.6435957-0.1564598-0.7946606
		c-0.2764549-0.3474731-0.8132668-0.5093231-1.6888237-0.5093231c-0.967598,0-2.276062,0.2036219-3.6437721,0.4914742
		c-0.0121536,0.249115-0.0340271,0.5081778-0.0671387,0.7788639c1.4041595-0.3047104,2.749691-0.5245075,3.7109108-0.5245075
		c0.8792,0,1.0748444,0.1897192,1.1052246,0.2277746c0.0115433,0.0148821,0.0394974,0.0497437,0.0133667,0.1626816
		c-0.0397949,0.1723318-0.3858261,0.8559589-3.1704521,2.4172602c-0.8008156,0.4490147-1.7444191,0.9374495-2.8019485,1.4523888
		l-0.0124512,0.0173931l-0.0200539-0.0015965c-1.2297783,0.5981064-2.6135864,1.2319069-4.1146622,1.8827972
		c-0.8901329,0.3859806-1.7775288,0.7588177-2.6439667,1.1134281c0.4152927-0.4784088,0.7789421-0.9101086,1.0535755-1.2404156
		c0.5264893-0.6334972,0.4395981-1.5739098-0.1938229-2.100317c-0.0428333-0.0356979-0.0874958-0.0679722-0.1330662-0.0980492
		c1.2252254-0.3189163,2.7308598-0.395627,3.8862057-0.395627c1.0465927,0,1.8048782,0.0622034,1.8048782,0.0622034
		c0.32901-0.4604826,2.2365685-6.9720516-1.0523643-6.9720516c-2.8247299,0-4.6791248,5.5327997-5.1457577,7.092967
		c-0.5252724-0.1123323-1.0933743,0.062583-1.460371,0.5043077c-1.7295265,2.0807209-4.018055,4.5294247-4.6611938,4.8550205
		c-0.0899296,0.0405598-0.1604023,0.0648613-0.2120457,0.0794449c-0.4851799-0.4016972-1.1924152-0.4654198-1.7523193-0.1092148
		c-0.4866905,0.3096447-0.7318573,0.8543568-0.6841564,1.3917046c-0.1920033,0.0457191-0.3484631,0.0759506-0.4617805,0.0878754
		c-0.2469959,0.0259705-0.6215782,0.0573425-1.0936775,0.0904541c-0.0276394-0.0265045-0.0549908-0.0530872-0.0850639-0.0779228
		c-0.4666367-0.3876476-1.1000633-0.4426384-1.6119595-0.1908646c-0.2785854,0.0042553-1.3008766-0.0688858-3.8467169-1.0970192
		c-2.5033045-1.0108948-3.7373428-1.2919865-4.3707695-1.3511505c0.5137329-0.2274666,0.8524742-0.3571911,0.8524742-0.3571911
		s-1.7511082-5.1516094-4.1143594-5.1509991c-0.3071494,0.0000772-0.6252227,0.0871115-0.9502983,0.2837458
		c-2.8283696,1.7101679,1.11799,6.9062815,1.11799,6.9062815c0.4578185-0.3167915,0.9527111-0.609726,1.4327168-0.8693218
		c-0.1415625,0.2800999-0.198072,0.6061554-0.1373115,0.9388142c0.1139231,0.627573,0.6030455,1.0904121,1.1966667,1.1992493
		c-5.3031311-0.1747608-6.2400513-0.8864841-6.4031954-1.1254234c-0.0388813-0.0570393-0.0540664-0.1088371-0.0167046-0.2051411
		c0.1983802-0.5080299,1.0104327-1.0442371,2.0500443-1.5347214c-0.1121063-0.2154694-0.2220869-0.4414978-0.3256812-0.6747398
		c-1.1471388,0.5472183-2.1338851,1.2077541-2.4191451,1.9383945c-0.1230404,0.3151932-0.0899292,0.6253719,0.0956889,0.8969669
		c0.1780308,0.2605114,0.6139804,0.8975773,3.8828578,1.2482376c0.2457833,0.0263557,0.5079632,0.051115,0.7868471,0.0739746
		c-1.3756013,2.8477421-0.77773,6.0063477-0.2740278,8.6155357c0.5450163,2.8248787,2.2942972,7.4418716,3.7130404,10.9235687
		c0.6616716,1.624115,1.2510414,3.0013123,1.6131811,3.8341064c4.2176466,0.3715439,9.632884,0.5949898,15.5393572,0.5949898
		c6.9837418,0,13.2802925-0.3123779,17.7227554-0.8127403c-0.2843552-1.0737038-0.7218285-2.9511108-0.8472977-3.6450615
		C44.0295639,43.0442085,44.0198441,42.9870911,44.0140724,42.9440269z M32.4775848,13.540699
		c0.0021248-0.0539989,0.0015182-0.1348114,0.0118484-0.2352953c0.0157967-0.2022505,0.0540771-0.4899492,0.144001-0.828536
		c0.0917473-0.3376732,0.230278-0.7291203,0.4769669-1.1217022c0.1239471-0.1952686,0.2770615-0.3921299,0.4812164-0.5639286
		c0.0753441-0.064559,0.1594925-0.1253195,0.2509346-0.1787853c0.0610657-0.0356216,0.1254692-0.0680552,0.1926117-0.0962324
		c0.1008644-0.0422239,0.2078018-0.0749598,0.3202057-0.0947084c0.0741272-0.0106316,0.1500778-0.0157194,0.2248116-0.018301
		c0.0741272,0.0046301,0.1503792,0.0042505,0.2217712,0.0169353c0.0707893,0.0146561,0.1455231,0.0230904,0.2111435,0.0475464
		l0.0340271,0.0116177l0.0653191,0.0224075l0.0321999,0.0113144l0.0173149,0.0061502l0.006073,0.0022068l0.0030403,0.0010624
		l0.0349388,0.0151138l0.0048599,0.0025816l0.0042534,0.0022793l0.0085068,0.0045538l0.0097198,0.0052414
		c0.0139732,0.0011396,0.1920013,0.1130915,0.2372665,0.1855459l0.0483093,0.0609865l0.0361481,0.0634193
		c0.0209618,0.0352421,0.0349388,0.0694208,0.0470924,0.1033688c0.0030365,0.0077467,0.0063782,0.0156469,0.0088081,0.0233936
		c0.0030403,0.0088863,0.0042534,0.0170898,0.0069847,0.0258989c0.0480042,0.1563778,0.0525589,0.2946081,0.0449677,0.4189367
		c-0.0106316,0.1296473-0.0325089,0.2479801-0.0610657,0.3581047c-0.0285568,0.1101303-0.063797,0.2120514-0.1002502,0.3090439
		c-0.0744324,0.1933641-0.1588898,0.3648605-0.243042,0.5184298c-0.1695213,0.306385-0.3399544,0.5400066-0.4663353,0.6982832
		c-0.1257744,0.1587391-0.2090111,0.2409935-0.2090111,0.2409935s0.0264244-0.1139278,0.0759506-0.3071442
		c0.0479965-0.193821,0.1206055-0.4673977,0.1965561-0.7888899c0.0376701-0.1604843,0.0753403-0.3335714,0.1048126-0.5120544
		c0.0303802-0.1774197,0.0501213-0.3648653,0.0410118-0.5272436c-0.0021286-0.0232449-0.0051651-0.0453444-0.0085068-0.0665359
		c-0.0082054-0.0505037-0.0194435-0.0937948-0.0337219-0.1190872c-0.0039482-0.0092669-0.0082054-0.0162535-0.0127563-0.0191383
		l-0.0018311-0.0006104c-0.0021248-0.0010633-0.003334-0.0032654-0.0051613-0.0048618l-0.0294685-0.0135164l-0.0197487-0.0053902
		l-0.0735168-0.0199032c-0.0364571-0.011694-0.0713921-0.0128336-0.1066322-0.0201235
		c-0.0033417-0.0006876-0.006382-0.0008364-0.006382-0.0008364c-0.0416183-0.0076694-0.0786819-0.0034189-0.1163559-0.0074434
		c-0.0370636,0.0031881-0.0735168,0.0066071-0.1102791,0.0111656c-0.1090622,0.0175409-0.2184334,0.0618992-0.3265839,0.1267567
		c-0.0358505,0.0215712-0.0719986,0.0454216-0.1075439,0.0713968c-0.0355453,0.0262022-0.0704842,0.0543795-0.1048126,0.0840769
		c-0.0689621,0.0595446-0.1354942,0.125392-0.1995964,0.1951151c-0.0318985,0.0348568-0.0631866,0.0706329-0.0938759,0.1070137
		c-0.0610619,0.0733633-0.1193886,0.1487083-0.1752892,0.2248077c-0.1673927,0.2282314-0.3123093,0.4635267-0.4386864,0.6755009
		c-0.1254692,0.2134209-0.2333183,0.4057999-0.3202095,0.5621824c-0.0288582,0.0521002-0.0555916,0.1001759-0.0795937,0.1437702
		c-0.0972137,0.1761312-0.1525078,0.2767639-0.1525078,0.2767639S32.4766693,13.5951557,32.4775848,13.540699z
		 M22.2453003,22.0675945c0.0176277-0.0114689,0.0361614-0.0214176,0.0549908-0.0300732
		c0.0562019-0.0257492,0.1163559-0.0387363,0.1792412-0.0387363c0.0516434,0,0.1023846,0.0088863,0.1500854,0.0259743
		c0.0476894,0.0170135,0.0923519,0.0421524,0.1315403,0.074585l0.4247074,0.3518734l0.5310535-0.1491642
		c0.113308-0.0318241,0.2342224-0.0765572,0.3596954-0.1329136l0.0218697-0.0098705l0.0212727-0.0108624
		c0.1634312-0.0827065,0.372448-0.2342281,0.6130676-0.4358006c1.2978268-1.0881348,3.5091782-3.6351147,4.382309-4.6855011
		c0.0838451-0.1007862,0.2071896-0.1585083,0.3384285-0.1585083c0.0720024,0,0.1792412,0.0175457,0.2801056,0.101469
		c0.1862278,0.1547089,0.2117481,0.4321556,0.0568066,0.6183853c-0.5990925,0.7210655-1.1799564,1.3939075-1.7274055,2.0035591
		c-0.7525139,0.8382607-1.44244,1.5571232-2.0305996,2.1177101c-0.0534706,0.0509605-0.1060181,0.1006317-0.1576614,0.1489391
		c-0.1036034,0.0966854-0.2035542,0.1879749-0.2998581,0.2736473c-0.0963058,0.0857449-0.1889553,0.1658745-0.2776737,0.2401524
		c-0.2217789,0.1857719-0.4186382,0.3351669-0.587553,0.4446087c-0.1014595,0.0657005-0.1926098,0.1169624-0.2728062,0.1530418
		c-0.0498257,0.0224018-0.0993443,0.0434456-0.1482563,0.0631161c-0.1476498,0.0590096-0.2919426,0.1054935-0.4323044,0.1394424
		c-0.1874447,0.0451908-0.3678989,0.0679016-0.5404587,0.0679016c-0.1075459,0-0.2114487-0.0088139-0.3110905-0.0262833
		c-0.0999508-0.0174656-0.1956501-0.0435944-0.2864819-0.0783024c-0.049221-0.0189114-0.0954018-0.0394917-0.138237-0.0611401
		c-0.0425262-0.0217209-0.0823212-0.044508-0.1187782-0.0677471c-0.2190475-0.13937-0.3272018-0.2955227-0.3511963-0.3335724
		c-0.016098-0.0255184-0.0294666-0.0520287-0.0397949-0.079216c-0.0206566-0.0544548-0.0300713-0.1114941-0.028553-0.1678505
		C22.0460167,22.285574,22.1174145,22.1488628,22.2453003,22.0675945z M28.7228909,37.8904305
		c-0.4773979,0.2132874-1.1806507,0.3042946-2.3514862,0.3042946c-0.0195484,0-0.0393009-0.0003014-0.0588913-0.0003548
		c0.0237999,0.2310066,0.0479164,0.5080261,0.0719204,0.8280296c0.0042095,0.0562515,0.0066338,0.1135788,0.0074234,0.1751747
		c0.0084915,0.6633415-0.2420464,1.0581436-0.4537106,1.2725372c-0.2866783,0.2903786-0.6950912,0.4502907-1.1500034,0.4502907
		c-0.2109585,0-0.4270897-0.0356827-0.5929737-0.0978966c-0.1377735-0.0516663-0.2573032-0.1304665-0.3623142-0.2263298
		c-0.219017,0.4159431-0.5761471,0.5804253-0.7873516,0.6433372c-0.1731129,0.0515671-0.3455982,0.0777168-0.5126648,0.0777168
		c-0.850502,0-1.4948215-0.6302414-1.7897224-1.737709c-0.0835228,0.0503387-0.1653709,0.0985756-0.2444477,0.1422691
		c-0.3036804,0.1678429-0.6766605,0.2565536-1.0785542,0.2565536c-0.7425976,0-1.4412079-0.2915878-1.8688107-0.7800064
		c-0.3552818-0.4058113-0.5041752-0.9121208-0.4305592-1.4641876c0.2213573-1.6599731,2.591692-2.5063515,2.8612442-2.5973969
		l0.4340916-0.1466217c-0.0143337-0.0420456-0.0256882-0.0851059-0.0330391-0.1293869
		c-0.0046005-0.027668-0.0073318-0.0553894-0.0090351-0.0831337c-0.0005341-0.0086861-0.0005341-0.0173874-0.0008011-0.0260773
		c-0.000576-0.0194397-0.0005951-0.0388756,0.0002041-0.0583153c0.000391-0.0096321,0.000946-0.0192566,0.0016632-0.0288773
		c0.0014801-0.0196648,0.0037785-0.0393143,0.0066338-0.0589485c0.0012112-0.0083504,0.0021343-0.0167046,0.0035934-0.0250473
		c0.0048466-0.0277519,0.0106983-0.0554657,0.0182133-0.0830917c0,0,0.0004101-0.0012665,0.0005741-0.0019073
		c0.0073929-0.0270042,0.016325-0.0539093,0.0261822-0.0807419c0.0030174-0.0081711,0.0064678-0.0163078,0.0096912-0.0244637
		c0.0077839-0.0196533,0.0160999-0.0392418,0.0251751-0.0587654c0.0041485-0.0089188,0.0083981-0.0178185,0.0127926-0.0267029
		c0.0099392-0.0200539,0.0206375-0.0400009,0.0319099-0.0598831c0.0040874-0.0072098,0.007906-0.0144463,0.0121574-0.0216331
		c0.016119-0.0271835,0.0331821-0.0542221,0.0517044-0.0810165c0,0,0.000452-0.000618,0.0006771-0.000927
		c0.0181313-0.0261841,0.0376606-0.0521126,0.0580101-0.0778732c0.0056458-0.0071411,0.0116215-0.0142059,0.0174522-0.0213089
		c0.0158119-0.0193405,0.0321579-0.0385399,0.0492001-0.0575943c0.0068188-0.0076218,0.0136757-0.0152245,0.0206776-0.0227966
		c0.0184002-0.0198898,0.0375175-0.0395927,0.05723-0.0591354c0.0056458-0.0056152,0.0110874-0.0112762,0.0168381-0.0168648
		c0.0520535-0.0504265,0.1084614-0.0995789,0.1688099-0.1472931c0.0073929-0.0058517,0.0150528-0.0116043,0.0225677-0.0174103
		c0.0233669-0.018055,0.0472889-0.0358925,0.0717869-0.0534897c0.008707-0.0062523,0.0174332-0.0124893,0.0262833-0.0186882
		c0.0263672-0.0184479,0.0533485-0.0366058,0.080925-0.054512c0.0064278-0.0041695,0.0126705-0.0084343,0.0191593-0.0125732
		c0.0352764-0.0225182,0.0713768-0.0446358,0.1085434-0.0662041l0.0000401-0.0000267l0.000124-0.0000572
		c0.0419312-0.0243378,0.0852776-0.0478096,0.129406-0.070816c0.0087681-0.0045624,0.0175152-0.0091171,0.0263443-0.0136261
		c0.0896111-0.045723,0.1835957-0.0886383,0.2815437-0.1284943c0.0103703-0.0042152,0.0207405-0.0084267,0.0312119-0.0125694
		c0.0493851-0.0195999,0.0994473-0.0386505,0.1507206-0.0566177l0.000555-0.0001831
		c0.0501842-0.0175781,0.1015205-0.0340576,0.15341-0.0499878c0.0122795-0.0037651,0.0245991-0.0075073,0.0369606-0.0111809
		c0.0527325-0.0156593,0.105978-0.0307465,0.1602898-0.0446129c0.000576-0.0001488,0.0011921-0.0002747,0.0011921-0.0002747
		c0.0538197-0.0137138,0.1080284-0.0260811,0.1626911-0.0378418c0.0138607-0.0029831,0.0277615-0.005909,0.0417252-0.0087738
		c0.0557289-0.0114365,0.1118908-0.0222816,0.1689339-0.0317497c0.0616226-0.010231,0.1227951-0.0186424,0.1836987-0.026207
		c0.0658531-0.0081787,0.1310902-0.0144539,0.1959152-0.0195923c0.0212955-0.0016861,0.0422802-0.0026588,0.0634708-0.0040245
		c0.0432873-0.0027924,0.0864296-0.005188,0.1291599-0.0066452c0.0248871-0.0008545,0.0495281-0.0012627,0.0742321-0.0016708
		c0.0383778-0.0006256,0.0764885-0.0007172,0.1142921-0.0002823c0.0259132,0.0002975,0.0517044,0.0006752,0.0773315,0.0014687
		c0.0361614,0.0011139,0.0718079,0.0030289,0.1073723,0.0051193c0.0256271,0.0014992,0.0513763,0.0027161,0.0766754,0.0047188
		c0.0359745,0.0028381,0.0711918,0.0067711,0.1064682,0.0106049c0.048893,0.0053062,0.0969009,0.0116425,0.1443348,0.0188141
		c0.0267773,0.0040436,0.0538406,0.0077362,0.0801239,0.0123672c0.0335331,0.0059013,0.0660172,0.0128937,0.0987072,0.0197334
		c0.0196724,0.0041161,0.0394878,0.0080833,0.0588303,0.0125351c0.0342522,0.0078697,0.0676403,0.0164871,0.1008224,0.0253868
		c0.0157719,0.0042267,0.0314388,0.0085449,0.0469627,0.0130005c0.0351944,0.0101051,0.0697536,0.0206795,0.1036148,0.0319366
		c0.0101242,0.0033646,0.0199585,0.006958,0.0299587,0.0104256c0.210886,0.0730972,0.3940086,0.1685867,0.5413418,0.2835464
		c0.0012531,0.0009689,0.0025043,0.0019302,0.0037365,0.0028992c0.0297546,0.0233841,0.0580292,0.0474854,0.0847454,0.0724297
		l0.0002041,0.0002213c0.000267,0.0002365,0.000494,0.0004654,0.000494,0.0004654
		c0.0342922,0.0320854,0.0655861,0.0651703,0.0943737,0.0994644c0.0102062,0.0121651,0.0206985,0.0242043,0.0302258,0.0366669
		c0.0093441,0.0122452,0.0184822,0.0245399,0.0271683,0.0370598c0.0124016,0.0178909,0.0231609,0.0364342,0.0344563,0.0547638
		l0.0000191-0.0000038c0.0068073,0.0111046,0.0147228,0.021759,0.0208435,0.0331383l0.5294724,0.0044861
		c1.2059479,0.0102196,2.2011127,0.1722069,2.9578152,0.481472c0.7609997,0.3110199,1.2269192,0.7630806,1.3119717,1.2729454
		C30.2362804,36.558342,29.7342625,37.43853,28.7228909,37.8904305z M8.4239397,19.3822346
		c-0.1114902-0.1448364-0.2643051-0.3530884-0.4408164-0.601675c-0.1768088-0.2482777-0.3779302-0.5374184-0.595448-0.8332443
		c-0.1090569-0.147419-0.2242017-0.2949162-0.3420782-0.4350395c-0.0449591-0.0518036-0.0905347-0.1024609-0.1367059-0.1512966
		c-0.0449591-0.0478497-0.0905347-0.0938721-0.1354942-0.1340523c-0.0303802-0.0270367-0.0607605-0.0517197-0.0905347-0.0735168
		c-0.028861-0.0217972-0.0571055-0.0400257-0.0823216-0.0543785c-0.0255237-0.014431-0.0483165-0.0250683-0.0659347-0.0317516
		c-0.0078955-0.0008316-0.0139737-0.0012112-0.0203495-0.0042496L6.5096979,17.060524
		c0.0018277,0.0006065,0.0036449,0.0009079,0.0036449,0.0009079c0.0063758,0.0002327,0.0106263-0.0008354,0.0145893-0.0030384
		c0,0,0.0042505-0.0025043,0.0063658-0.0043278c0.0012217-0.0009136,0.0018272-0.0017452,0.0018272-0.0017452
		c-0.000308-0.0009899-0.0015192-0.0011387-0.0042505-0.0007591l-0.0370641,0.0074425l-0.0227823,0.004631
		c-0.0303802,0.0109406-0.0477009,0.0180035-0.068964,0.0394974c-0.0215712,0.0238457-0.0440459,0.0711613-0.0610685,0.1321526
		c-0.0343227,0.1227322-0.0346308,0.2899723-0.0255136,0.4462013c0.0103288,0.1589642,0.032208,0.3159542,0.0559044,0.4621563
		c0.0479879,0.2928619,0.1005554,0.5445652,0.1351862,0.7228165c0.0182238,0.0888615,0.0322075,0.159647,0.0416121,0.2081032
		c0.0024438,0.0121498,0.0045586,0.0228596,0.0063863,0.0322018c0.0051641,0.0278759,0.0082035,0.0426083,0.0082035,0.0426083
		s-0.0194459-0.0186081-0.052557-0.0557442c-0.0318999-0.0375977-0.0826297-0.0913715-0.13762-0.1653461
		c-0.0853705-0.1095181-0.1926098-0.258606-0.3013792-0.4479523c-0.036448-0.0630398-0.0729065-0.1306324-0.1087484-0.2027836
		c-0.0230908-0.0470142-0.0461812-0.0966854-0.0683584-0.1476517c-0.0464892-0.1057186-0.0908427-0.2194939-0.1285024-0.3445816
		c-0.0504317-0.1875191-0.1008635-0.3933468-0.0765615-0.6500549c0.0088091-0.0954685,0.0297642-0.1998997,0.0759454-0.3062305
		c0.0151954-0.0354671,0.0334191-0.0710888,0.0546823-0.1066341c0.0832453-0.14324,0.2302904-0.2666607,0.3803639-0.3281803
		l0.0282445-0.0127563l0.0142918-0.0062332l0.0479884-0.0141983l0.0364685-0.0098782l0.036448-0.0098705
		c0.0139737-0.0035686,0.0534711-0.0079002,0.0795903-0.0101757c0.0291686-0.0025101,0.0589433-0.0038757,0.0884094-0.0040302
		l0.0440564,0.0006123l0.0325055,0.0044041c0.0431418,0.0067616,0.0871878,0.0148106,0.1291184,0.0248356
		c0.1190772,0.0357704,0.2181234,0.0863571,0.3056092,0.141573c0.0291791,0.0183773,0.056818,0.0373669,0.0835533,0.056427
		c0.0434499,0.0334206,0.0829372,0.0678253,0.121829,0.1024551c0.0531626,0.0476246,0.1038923,0.0959263,0.1497655,0.1453724
		c0.0792923,0.0852871,0.1491699,0.1727829,0.214489,0.2610397c0.1312337,0.1752167,0.2381754,0.3550663,0.3338642,0.5308113
		c0.0941901,0.1761265,0.1753001,0.3495216,0.2451777,0.5161572c0.0440454,0.104887,0.0817156,0.2057457,0.1169624,0.3042526
		c0.0209646,0.0581017,0.0419197,0.1162796,0.0598459,0.1716499c0.0246105,0.0745811,0.0467873,0.1465054,0.0665312,0.2152386
		c0.0595379,0.2062092,0.0990353,0.3841572,0.1239538,0.5202579c0.0136652,0.0644054,0.0212631,0.1200008,0.0273314,0.1645088
		c0.0006161,0.004179,0.0012217,0.0081272,0.0018272,0.0121517c0.0018272,0.0125313,0.0036554,0.0246105,0.0051641,0.0350151
		c0.0054722,0.0495186,0.0085115,0.0759506,0.0085115,0.0759506S8.5339098,19.5276775,8.4239397,19.3822346z M8.762681,21.5957966
		c-0.0285635-0.155777,0.032197-0.2727394,0.0707808-0.3285599c0.0385838-0.0559006,0.1266851-0.153801,0.2825289-0.1820507
		c0.0334301-0.006155,0.0586357-0.0106373,0.0984411-0.0125313c0.0130596-0.0006886,0.0282545-0.0009918,0.0455647-0.0009918
		c0.0394869,0,0.0905352,0.0019779,0.1552382,0.0076752c0.0483065,0.0042515,0.1045084,0.0106316,0.1689138,0.0198975
		c0.1075468,0.0154171,0.2390985,0.0387325,0.3982792,0.0734406c0.0956993,0.0208111,0.2014198,0.0458012,0.3177862,0.0755711
		c0.0890055,0.0227108,0.1847048,0.0486088,0.2864714,0.0772438c0.0634918,0.017849,0.1297245,0.036911,0.1983805,0.0572643
		c0.0777826,0.0230904,0.1588926,0.0477734,0.2439556,0.0742779c0.0716944,0.0224075,0.1464386,0.0461807,0.2235956,0.0712433
		c0.0370646,0.012001,0.0747337,0.0243778,0.1130095,0.0370636c0.0777836,0.0256729,0.157979,0.0527115,0.2409172,0.0810375
		c0.1689129,0.0578766,0.3490696,0.1214447,0.5410633,0.1913166c0.089323,0.0325108,0.1813774,0.0665359,0.2758551,0.1018486
		c0.05651,0.0210381,0.1139231,0.0426865,0.1722612,0.064785c0.2803926,0.1062546,0.5814648,0.2239056,0.907135,0.3553753
		c0.0905352,0.0366058,0.1762037,0.0700207,0.2633915,0.1045017c0.1124144,0.0442829,0.2223845,0.0870399,0.3290186,0.127903
		c0.1728659,0.0660725,0.3387403,0.1278248,0.4979315,0.1853924c0.0899191,0.032505,0.178031,0.0637989,0.2636995,0.0937233
		c0.6534777,0.2280769,1.1860294,0.3825607,1.6174316,0.4838753c0.0364475,0.0085831,0.0723,0.0169353,0.1075363,0.0247593
		c0.2008247,0.0448875,0.3791428,0.0782299,0.5365162,0.1017723c0.016407,0.0025101,0.0328121,0.0050144,0.048912,0.0072937
		c0.226635,0.0321255,0.4095211,0.044508,0.5550365,0.044508l0.2740288-0.0038757l0.2120552-0.1043549
		c0.0598469-0.0294704,0.1275997-0.0451126,0.1953411-0.0451126c0.0358524,0,0.0805149,0.0044041,0.1288109,0.0192146
		c0.0483055,0.0148869,0.1002579,0.0401745,0.1506882,0.0820999c0.0306892,0.0252934,0.0552883,0.0523319,0.0750427,0.0796738
		c0.0273304,0.0372124,0.0449486,0.0748882,0.0577221,0.1098213c0.0024223,0.0071411,0.0048561,0.0141277,0.0066738,0.0209656
		c0.0103283,0.0336437,0.0151939,0.0639477,0.0176182,0.0869617c0.0015182,0.0168591,0.0024433,0.0377464,0.0012207,0.0615196
		c-0.0012207,0.0237694-0.0042496,0.0503559-0.0109348,0.0786819c-0.0063858,0.0283318-0.0164051,0.0583324-0.0306873,0.0887852
		c-0.0145798,0.030611-0.0337162,0.0615959-0.0592403,0.0920544c-0.0078964,0.009716-0.0182247,0.021946-0.0309868,0.0358467
		c-0.0130692,0.0138969-0.0291691,0.0295429-0.0486145,0.0460987c-0.0097122,0.0082798-0.0206566,0.0167866-0.032198,0.0254478
		c-0.0352364,0.025898-0.0798969,0.0530853-0.1364079,0.0789127c-0.0753403,0.0344753-0.1722507,0.066452-0.2968102,0.0898457
		c-0.0622692,0.011694-0.1315422,0.0212631-0.2087078,0.0278759c-0.077158,0.0066833-0.1619225,0.0103283-0.255497,0.0103283
		c-0.2466869,0-0.5277061-0.0260525-0.8418274-0.0780029c-0.3144283-0.0520248-0.6622753-0.1298733-1.0429373-0.233469
		c-0.380662-0.1035938-0.794137-0.2328625-1.239809-0.3877239c-0.445672-0.1547871-0.9238605-0.3351688-1.4330349-0.5408382
		c-0.6194429-0.2501068-1.1468306-0.4490929-1.5943308-0.6072979c-0.0559044-0.0198193-0.1108837-0.0389633-0.1643553-0.0574951
		c-1.2303934-0.4261551-1.8146-0.5265617-2.0430622-0.5494213l-0.0069818-0.0006828L9.293416,21.9521523l-0.0792923,0.0040245
		L9.191638,21.9567108C8.9808044,21.9567108,8.8006487,21.8049622,8.762681,21.5957966z M8.3531485,30.7694092
		c0-3.2445087,2.6394138-5.8840714,5.8839998-5.8840714s5.8839893,2.6395626,5.8839893,5.8840714
		c0,3.244503-2.6394043,5.8840675-5.8839893,5.8840675S8.3531485,34.0139122,8.3531485,30.7694092z M29.3214092,33.1455765
		c-3.2445869,0-5.8839912-2.6396408-5.8839912-5.8841438c0-3.2444267,2.6394043-5.8840675,5.8839912-5.8840675
		c3.2445812,0,5.8839893,2.6396408,5.8839893,5.8840675C35.2053986,30.5059357,32.5659904,33.1455765,29.3214092,33.1455765z"/>
	<path class="st0" d="M8.2079306,48.1772804c1.0788012,0,1.85532-0.5553474,2.4133959-1.2969971
		c0.032197-0.0429115,0.0640974-0.0861244,0.0950832-0.1302528c-0.3797474-0.8802643-0.9037991-2.1167259-1.4755507-3.5247574
		c-0.4004154-0.9854546-0.8239117-2.0542984-1.2382898-3.1469116c-0.2728162,0.2319489-0.5875425,0.5820045-0.9284091,1.1100845
		c-0.3730636,0.5785828-0.7172771,1.4949951-0.9107904,2.4774857c-0.174386,0.8842812-0.2257318,1.8215065-0.0668387,2.6146507
		c0.0656271,0.3279533,0.1664805,0.6315994,0.3107839,0.8960571C6.7740026,47.85009,7.3633728,48.1772804,8.2079306,48.1772804z"/>
	<path class="st0" d="M2.800302,44.9792595c0,0.4077721,0.8895276,0.7933731,2.4692788,1.1365128
		c-0.1124039-0.8182068-0.0431318-1.6434784,0.0625882-2.286396C3.713218,44.1758575,2.800302,44.5661659,2.800302,44.9792595z"/>
	<path class="st0" d="M49.4153252,43.922718c-0.0239983,0.066227-0.0495186,0.1316223-0.0768585,0.195797
		c-0.1944313,0.4544868-0.4730186,0.8558044-0.8284645,1.1924934c-0.713623,0.6759529-1.3391495,1.0809174-1.8981361,1.2285614
		c3.0872116-0.4339027,4.9200363-0.9743576,4.9200363-1.5603104C51.5319023,44.6028481,50.7739182,44.2453537,49.4153252,43.922718z
		"/>
	<path class="st0" d="M48.5801811,43.7427139c0.4280548-1.0011711,0.2755508-2.2055817-0.0874939-3.1449318
		c-0.6689644-1.7306709-2.0913582-2.9593086-3.4590645-2.9878693l-0.048912-0.0042534c0,0-0.265213-0.0394936-0.6182327-0.0394936
		c-0.7452164,0-1.6593513,0.1589661-1.7857323,0.9161797c-0.0874977,0.525425,0.1421776,0.7945175,0.6282578,1.3058128
		c0.5556526,0.5841293,1.3160591,1.384182,1.543911,3.0551567c0.0164032,0.1201553,0.0337181,0.2365112,0.0516434,0.3492203
		c0.2688637,1.6823654,0.7178802,2.5348282,1.3370247,2.5349045c0.3083534,0,0.8706856-0.184864,1.8003197-1.0654259
		C48.2289886,44.3900375,48.4370918,44.0777283,48.5801811,43.7427139z"/>
	<path class="st0" d="M9.1181259,15.5971193c-0.0467968-1.2692757-0.072916-2.5285254-0.016098-2.8993864
		c0.1695089-0.7653484,4.8884335-6.1643271,7.9941788-6.7981281c0.2527542-0.0515714,0.558691-0.0776958,0.9086647-0.0776958
		c3.5040245,0,10.2231674,2.5028524,11.0382595,2.9372873c0.0419197,0.1013155,0.1026802,0.3009119,0.1762028,0.5741034
		c-0.3809586,0.3998766-0.6914558,1.0034513-0.8479061,1.7158613c-0.1597958,0.7266874-0.1339741,1.4004421,0.0416241,1.9165983
		c-3.5368385,1.5420866-12.3525047,4.8751488-18.9716873,3.0886555c0.1394367,0.2111416,0.2776728,0.4364052,0.4143887,0.6766338
		c0.4970074,0.8731213,0.8606567,1.7355347,1.0584307,2.2445488c2.7405863,0.4287376,8.7786016,0.5226135,18.262619-3.7460747
		c0.1807575-0.566968,0.4581261-1.3669462,0.8272438-2.2278385c-0.1734676,0.161849-0.3475456,0.2377949-0.4909401,0.2063522
		c-0.3840084-0.0844574-0.6422253-0.9571934-0.413475-1.9987707c0.216917-0.9857559,0.7698345-1.6479607,1.1501923-1.6479607
		c0.0218697,0,0.0428333,0.0022745,0.0637951,0.0068331c0.3700294,0.081418,0.6218796,0.8958311,0.4347382,1.8872805
		c1.2443619-2.2860947,2.6427574-3.4440231,4.1635742-3.4440231c0.5128136,0,0.9627419,0.1207561,1.3400612,0.3541517
		c0.6416245-0.7803836,1.0499306-1.3184905,1.0499306-1.3184905c-0.4824333,0.0876446-1.4907455,0.2191916-1.4907455,0.2191916
		c3.8145103-1.4031734,3.5076714-5.2179861,3.5076714-5.2179861c0,0.6577232-1.9731789,2.2362678-1.9731789,2.2362678
		c0.0877991-0.5700014-0.2190361-1.3154514-0.2190361-1.3154514c0.0874901,0.74545-2.280323,2.6748049-2.280323,2.6748049
		c0.175293-0.3508148,0.0437469-0.9647183,0.0437469-0.9647183c-0.131546,0.7016249-1.1839066,0.9647183-1.1839066,0.9647183
		c0.6577225-0.7892747,1.885685-4.9549751,0.9648666-5.2180634c-0.9208145-0.2630934-2.192524,2.7186248-2.192524,2.7186248
		c-0.0437469-0.7015481-0.4386864-0.7015481-0.4386864-0.7015481c0.1755981,2.1924481-1.5785446,3.9464316-1.5785446,3.9464316
		c-0.131237-0.4385319-0.8330173-0.6578002-0.8330173-0.6578002c0.1631432,0.3534689,0.0735226,1.6166716-0.0182247,2.5260201
		c-0.0094185-0.0114689-0.017622-0.0199747-0.0249119-0.0271931c-0.3721561-0.3719239-7.8763123-3.1542764-11.5802364-3.1542764
		c-0.4001064,0-0.7558498,0.0312171-1.0578251,0.0928144c-1.9494886,0.3978229-4.2744646,2.4101148-5.4866343,3.5741992
		c-1.4442568,1.3868484-2.9969749,3.2016697-3.0948,3.8379803c-0.0516424,0.3364573-0.0483065,1.1895266-0.0230904,2.1369247
		C8.6049995,14.962635,8.8635445,15.2576237,9.1181259,15.5971193z"/>
	<path class="st0" d="M14.0108109,52.0966759c-0.8369703,0.1913185-3.3001709,1.5305443-5.4285946,1.9371033
		c-2.1284122,0.406559-3.9700556,0.6218033-4.6156278,0.8608932c-0.6455722,0.2391663-1.1477544,0.7174988,0.1196933,1.1957588
		c1.2674584,0.4782524,7.4133301,0.6457253,7.9635,0c0.5498838-0.6456566-0.3794394-0.9255295-1.7219286-0.9087448
		c-0.956356,0.0119247-0.8390961-0.3213425-0.8369713-0.3587112c0,0,0.0598574-0.4184837,1.5305519-0.6218033
		c1.4682512-0.2029381,7.9635-0.8130417,7.8437967-1.5066185C18.7458344,52.0010567,14.8477821,51.9053612,14.0108109,52.0966759z"
		/>
	
		<ellipse transform="matrix(0.9771231 -0.2126746 0.2126746 0.9771231 -11.9439535 3.3921947)" class="st0" cx="9.7957449" cy="57.2144127" rx="1.2733341" ry="0.3706866"/>
	
		<ellipse transform="matrix(0.9968598 -0.0791861 0.0791861 0.9968598 -4.4958239 0.7214245)" class="st0" cx="6.8482823" cy="57.0470161" rx="1.3392677" ry="0.3586972"/>
	
		<ellipse transform="matrix(0.9908279 -0.1351295 0.1351295 0.9908279 -7.6279402 1.1276575)" class="st0" cx="4.4927726" cy="56.7540588" rx="0.8968177" ry="0.2810098"/>
	
		<ellipse transform="matrix(0.9896153 -0.1437411 0.1437411 0.9896153 -8.0906315 0.9822959)" class="st0" cx="2.7529862" cy="56.4850235" rx="0.8669149" ry="0.2272107"/>
	
		<ellipse transform="matrix(0.9896153 -0.1437411 0.1437411 0.9896153 -8.0242586 0.9204906)" class="st0" cx="2.3584282" cy="55.9947701" rx="0.866773" ry="0.2272107"/>
	
		<ellipse transform="matrix(0.9896054 -0.1438098 0.1438098 0.9896054 -7.9494324 0.9006053)" class="st0" cx="2.2552109" cy="55.4404106" rx="0.7536474" ry="0.1975096"/>
	<path class="st0" d="M26.7810402,52.7663269c-1.458847,0.0716972-4.7590275-0.0956955-5.2132015,0.6695747
		c-0.4544926,0.7652702,1.3391418,1.0522881,4.1608276,0.8131218c2.8220043-0.2391663,6.815752-0.5500336,6.9831448-1.4109993
		c0.1673965-0.8608894-0.7412701-0.6934967-0.8369637-1.2435303c-0.0956993-0.5500259,1.0043602-0.5500259,1.2197533-1.3631477
		c0.2150879-0.8130417-1.4828472-0.7174225-2.9893894-0.7174225s-4.0177517,0.1434708-4.2568417,0.932663
		c-0.2390881,0.7891998,1.1480522,0.7891998,2.1284237,0.9805145c0.9806576,0.1913223,0.6935711,0.5500336,0.6935711,0.5500336
		C28.6226635,52.4793091,28.2398872,52.6945534,26.7810402,52.7663269z"/>
	<ellipse class="st0" cx="22.880022" cy="54.8648071" rx="1.264568" ry="0.4125227"/>
	<ellipse class="st0" cx="26.1354656" cy="54.7751274" rx="0.8430436" ry="0.3766368"/>
	<ellipse class="st0" cx="28.7630234" cy="54.5060921" rx="0.9235528" ry="0.3049009"/>
	<ellipse class="st0" cx="30.7896729" cy="54.1653252" rx="0.672613" ry="0.3228631"/>
	<ellipse class="st0" cx="32.5385704" cy="53.7976341" rx="0.6815736" ry="0.3138614"/>
	<path class="st0" d="M14.2371483,25.9021549c-1.25986,0-2.4082203,0.4787903-3.2725325,1.2644157
		c-0.0577211,0.0524082-0.1139231,0.1061039-0.1689138,0.1611671c-0.8810158,0.8807888-1.425725,2.0975857-1.425725,3.4416714
		c0,0.5039997,0.0765514,0.9901543,0.21873,1.4473763c0.0473928,0.1524315,0.1023827,0.3015976,0.1637487,0.4471931
		c0.0616741,0.1455193,0.1300325,0.2875443,0.2050638,0.4254723c0.1124039,0.2068863,0.239089,0.4047394,0.3794508,0.5921021
		c0.8877001,1.1868706,2.3040094,1.9551048,3.900178,1.9551048c2.6880188,0,4.8674793-2.1791534,4.8674793-4.8672485
		S16.9251671,25.9021549,14.2371483,25.9021549z M13.7987652,34.0142174c-0.4238033,0-0.8074932-0.1717987-1.0851765-0.4494743
		c-0.0546827-0.0546112-0.1035948-0.1143036-0.1497755-0.1765823c-0.0300722-0.0410118-0.0583277-0.0834694-0.0844574-0.1274452
		c-0.0534706-0.0902252-0.0981216-0.1860733-0.1324453-0.287014c-0.0085106-0.0249863-0.0164061-0.0501251-0.0236959-0.0756454
		c-0.0376797-0.1332169-0.0592413-0.2732658-0.0592413-0.41856c0-0.8476028,0.6871948-1.5347214,1.5347919-1.5347214
		c0.688715,0,1.2714014,0.4536514,1.4658384,1.0783386c0.044652,0.1441498,0.0689535,0.297493,0.0689535,0.4563828
		C15.3335571,33.3270988,14.6463623,34.0142174,13.7987652,34.0142174z"/>
	<path class="st0" d="M30.9947395,22.6895523c-0.298027-0.1091442-0.610033-0.1900272-0.9320602-0.2392426
		c-0.2418251-0.036911-0.4894199-0.0560532-0.7412701-0.0560532c-1.0921593,0-2.1001682,0.359623-2.9122219,0.9669209
		c-0.3748913,0.2802544-0.7078514,0.613369-0.988266,0.988184c-0.1400414,0.1873684-0.2670345,0.3852139-0.3794498,0.5921059
		c-0.0747223,0.1379223-0.1433887,0.2798748-0.2047558,0.4254723c-0.0616741,0.1455193-0.1163559,0.2947617-0.1637497,0.4471912
		c-0.1421776,0.4572182-0.2190361,0.9432964-0.2190361,1.4473019c0,0.5880814,0.1045074,1.151701,0.295599,1.6735554
		c0.0270329,0.074585,0.0562019,0.1482563,0.0871868,0.221014c0.1230412,0.2911949,0.2737312,0.5678768,0.4487114,0.8267918
		c0.0434399,0.0647068,0.089016,0.1283531,0.1354942,0.1907864c0.0935745,0.1250114,0.1929188,0.2453175,0.2974167,0.3605328
		c0.1573734,0.172863,0.3265953,0.3344097,0.5070496,0.4831944c0.8412209,0.6943359,1.919714,1.1114502,3.0960217,1.1114502
		c2.6880169,0,4.8671741-2.1791534,4.8671741-4.8673248C34.1885834,25.1613407,32.8585472,23.3719616,30.9947395,22.6895523z
		 M29.2609501,30.297987c-0.1834965,0.0776958-0.3855228,0.1206074-0.5972691,0.1206074
		c-0.158884,0-0.3123035-0.0241528-0.4566078-0.068964c-0.1798592-0.0560474-0.3451176-0.1453667-0.4897289-0.2592182
		c-0.0486031-0.0379715-0.0953903-0.0778446-0.1391392-0.1212902c-0.0346298-0.034708-0.0674438-0.0710888-0.0990353-0.1089897
		c-0.0504322-0.0615139-0.0953922-0.1278954-0.1361103-0.1968594c-0.0346203-0.0586357-0.0668278-0.1187077-0.093565-0.1819744
		c-0.0340233-0.0799751-0.059845-0.1640511-0.0795994-0.2503319c-0.0261192-0.1116486-0.0410061-0.2274704-0.0410061-0.3470917
		c0-0.0529385,0.0027294-0.1052685,0.0078945-0.1569118c0.0051651-0.0515728,0.0130692-0.1023846,0.0233994-0.152359
		c0.1124039-0.5494976,0.51828-0.992054,1.0468903-1.1564083c0.1443043-0.0448875,0.2977238-0.0690422,0.4566078-0.0690422
		c0.2117462,0,0.4137726,0.0429878,0.5972691,0.1206074c0.0917473,0.0388088,0.1789398,0.0863571,0.2606602,0.1414967
		c0.0410175,0.0275707,0.0802078,0.0571156,0.1181793,0.0883312c0.3411694,0.2815437,0.5583839,0.70755,0.5583839,1.1842861
		C30.1981735,29.5195751,29.8117428,30.0650482,29.2609501,30.297987z"/>
	<path class="st0" d="M23.3084755,39.7438126c-0.0431423-0.1151848-0.0798168-0.2282333-0.1109772-0.3328667
		c-0.1070347-0.3592529-0.1822815-0.7345619-0.2305984-1.0181961c-0.130064,0.0447502-0.2569332,0.0939369-0.3806095,0.1468163
		c-0.4316063,0.2053032-0.8235626,0.4478188-1.1738224,0.6671677c-0.0068588,0.0042801-0.0140457,0.0087395-0.0208435,0.0130043
		c0.0943451,0.437397,0.3856106,1.3822441,1.1412144,1.3822441c0.0953102,0,0.1978569-0.0149956,0.3084736-0.0479469
		C23.1917801,40.4496384,23.3065453,40.1228752,23.3084755,39.7438126z"/>
	<path class="st0" d="M24.3472347,38.1591949c-0.2261639,0-0.3910122,0.0066032-0.4899864,0.0196266
		c-0.0659542,0.0086746-0.1311207,0.0190811-0.1956997,0.0306778c0.0431213,0.2630768,0.1154327,0.641449,0.2214184,0.9972343
		c0.1328564,0.4460106,0.3180542,0.8540764,0.5633545,0.9460678c0.0708218,0.0265617,0.1967793,0.0523567,0.3418217,0.0523567
		c0.3828068,0,0.899004-0.1795349,0.8885212-0.9984245c-0.0005341-0.0421028-0.0020733-0.0854111-0.0054836-0.1309547
		c-0.0297642-0.3967552-0.0563145-0.6833-0.0788803-0.8914604c-0.1335545-0.0030174-0.2650146-0.0062408-0.389595-0.0094452
		C24.8894787,38.1668091,24.5936031,38.1591949,24.3472347,38.1591949z"/>
	<path class="st0" d="M25.7900028,34.4967003c0,0-0.1401672,1.6401024-2.4483852,1.980423
		c-0.4367008,0.0643845-0.8117962,0.092411-1.1352081,0.092411c-1.2282295,0-1.7113972-0.40411-1.9955482-0.7551422
		c0,0-2.2121811,0.7471924-2.3811359,2.0142937c-0.1263466,0.9473877,0.786396,1.4344139,1.5903893,1.4344139
		c0.2713165,0,0.5301075-0.0554161,0.7325954-0.1673164c0.8025551-0.4434891,2.0062847-1.414917,3.6112328-1.6260948
		c0.1450119-0.0190849,0.3454857-0.0257416,0.583292-0.0257416c0.5493698,0,1.2982693,0.0355301,2.0241699,0.0355301
		c0.8251839,0,1.620615-0.0458984,2.0597363-0.2420845c0.9925575-0.4435005,0.9925575-1.2037506,0.9291897-1.5838776
		C29.2900639,35.2322273,28.2819004,34.5178185,25.7900028,34.4967003z"/>
</g>
</svg>
