<?xml version="1.0" encoding="utf-8"?>
<!-- Generator: Adobe Illustrator 21.1.0, SVG Export Plug-In . SVG Version: 6.00 Build 0)  -->
<svg version="1.1" id="Layer_1" xmlns="http://www.w3.org/2000/svg" xmlns:xlink="http://www.w3.org/1999/xlink" x="0px" y="0px"
	 viewBox="0 0 472 151" style="enable-background:new 0 0 472 151;" xml:space="preserve">
<style type="text/css">
	.st0{fill:#434343;}
	.st1{fill:#9A9A9A;}
	.st2{fill:url(#SVGID_1_);}
	.st3{fill:url(#SVGID_2_);}
	.st4{fill:#62269E;}
	.st5{fill:#FFFFFF;}
	.st6{fill:#2C256C;}
	.st7{fill:#5B2D82;}
	.st8{fill:url(#SVGID_3_);}
	.st9{fill:url(#SVGID_4_);}
	.st10{fill:url(#SVGID_5_);}
	.st11{fill:url(#SVGID_6_);}
	.st12{fill:#250671;}
	.st13{fill:#8547AD;}
	.st14{fill:#623393;}
</style>
<g>
	<path class="st0" d="M219.7,59.4c7.2,0,12.6,2.4,17.1,6.6c0.4,0.4,0.4,0.9,0.1,1.3l-1.1,1.2c-0.4,0.4-0.8,0.4-1.2-0.1
		c-4-3.6-9.1-5.8-14.9-5.8c-12.3,0-22,10.1-22,22.3c0,12.1,9.7,22.1,22,22.1c6.1,0,10.6-2.4,14.9-5.9c0.4-0.4,0.8-0.4,1.1-0.1
		l1.2,1.2c0.4,0.3,0.4,0.8,0,1.2c-4.8,4.7-10.9,6.8-17.2,6.8c-14.1,0-25.5-11.1-25.5-25.3C194.1,70.8,205.6,59.4,219.7,59.4z"/>
	<path class="st0" d="M257.5,80.6c7.9,0,14.2,6.7,14.2,14.7c0,8.3-6.3,14.9-14.2,14.9c-8,0-14.2-6.6-14.2-14.9
		C243.3,87.3,249.5,80.6,257.5,80.6z M257.5,107.3c6.2,0,11.1-5.3,11.1-12c0-6.5-4.9-11.8-11.1-11.8c-6.3,0-11.1,5.3-11.1,11.8
		C246.3,102,251.2,107.3,257.5,107.3z"/>
	<path class="st0" d="M280.2,82.2c0-0.5,0.4-0.9,0.9-0.9h0.8c0.4,0,0.8,0.3,0.8,0.8L283,85c0.7-1,3.5-4.4,8.8-4.4
		c2.3,0,3.8,0.6,4.4,0.8c0.6,0.2,1,0.7,0.8,1.3l-0.6,1.4c-0.2,0.5-0.6,0.6-1.1,0.4c-0.4-0.1-1.8-0.8-3.7-0.8c-5.5,0-8.2,4.4-8.4,4.9
		v20.1c0,0.6-0.3,0.9-0.9,0.9H281c-0.5,0-0.8-0.4-0.8-0.9V82.2z"/>
	<path class="st0" d="M314.7,80.6c7.4,0,12.8,5.4,12.8,12.9c0,1.1,0,2.8-1.1,2.8h-22.5c0.3,6.1,4.7,11.1,11,11.1
		c3.7,0,6.6-1.5,8.3-2.6c0.6-0.4,0.9-0.5,1.3,0l0.7,1c0.2,0.3,0.1,0.7-0.3,1.1c-1.4,1.4-5.9,3.3-10.2,3.3c-8.6,0-13.9-6.6-13.9-14.9
		C300.8,87.3,306.1,80.6,314.7,80.6z M324.4,93.7c0-5.5-3.3-10.3-9.7-10.3c-6.2,0-10.4,4.5-10.7,10.3H324.4z"/>
	<path class="st1" d="M336.8,61.1c0-0.5,0.4-0.9,0.8-0.9h15c13.7,0,24.8,11.1,24.8,24.6c0,13.8-11.1,24.8-24.8,24.8h-15
		c-0.4,0-0.8-0.4-0.8-0.9V61.1z M352,106.5c12.3,0,21.9-9.4,21.9-21.7c0-12.2-9.5-21.6-21.9-21.6h-11.9v43.3L352,106.5L352,106.5z"
		/>
	<path class="st1" d="M388.8,60.3c0-0.6,0.5-0.9,1.1-0.9h1.2l33.8,44.1c0.1,0,0.1,0,0.1,0V61.1c0-0.5,0.4-0.9,0.9-0.9h1.4
		c0.5,0,0.9,0.4,0.9,0.9v48.2c0,0.6-0.6,0.9-1.1,0.9h-0.9c-0.1,0-0.6-0.2-34.1-44.5H392v42.9c0,0.5-0.4,0.9-0.9,0.9h-1.3
		c-0.5,0-0.9-0.4-0.9-0.9V60.3H388.8z"/>
	<path class="st1" d="M440.2,102.9l0.6-0.8c0.5-0.6,1-0.8,1.6-0.3c0.7,0.6,5.9,5.4,13,5.4c6.4,0,11.8-4.3,11.8-9.4
		c0-6.3-5.1-9.1-13.7-12c-8.2-2.9-13.6-5.8-13.6-13.9c0-5.3,4.2-12.5,15.2-12.5c7,0,12.1,3.6,12.1,3.6c0.3,0.2,0.8,0.7,0.3,1.5
		c-0.2,0.3-0.4,0.6-0.6,0.9c-0.4,0.6-0.8,0.8-1.6,0.4c-0.2-0.1-4.9-3.3-10.4-3.3c-8.7,0-11.9,5.4-11.9,9.4c0,6,4.6,8.6,11.7,10.9
		c9.7,3.3,15.8,6.7,15.8,14.9c0,7.1-7.3,12.6-15.4,12.6c-8.4,0-14-4.9-14.9-5.8C440,104.1,439.7,103.7,440.2,102.9z"/>
</g>
<g>
	
		<linearGradient id="SVGID_1_" gradientUnits="userSpaceOnUse" x1="-794.9145" y1="365.6996" x2="-677.7004" y2="365.6996" gradientTransform="matrix(0.7071 -0.7071 -0.7071 -0.7071 844.7433 -201.971)">
		<stop  offset="0" style="stop-color:#623393"/>
		<stop  offset="0.5738" style="stop-color:#452B7C"/>
		<stop  offset="1" style="stop-color:#2C256C"/>
	</linearGradient>
	<path class="st2" d="M46.9,78.2c-1.2,1.2-2.1,2.4-2.8,3.8C44.8,80.7,45.7,79.4,46.9,78.2L46.9,78.2z"/>
	
		<linearGradient id="SVGID_2_" gradientUnits="userSpaceOnUse" x1="-794.9145" y1="349.7542" x2="-677.7004" y2="349.7542" gradientTransform="matrix(0.7071 -0.7071 -0.7071 -0.7071 844.7433 -201.971)">
		<stop  offset="0" style="stop-color:#623393"/>
		<stop  offset="0.5738" style="stop-color:#452B7C"/>
		<stop  offset="1" style="stop-color:#2C256C"/>
	</linearGradient>
	<path class="st3" d="M94.5,44.5c2.2,0,4.3,0.8,6,2.5l4.9,4.9l0,0l-4.9-4.9C98.8,45.4,96.7,44.5,94.5,44.5z"/>
	<path class="st4" d="M46.9,50.4c5.4-5.4,14.2-5.4,19.6,0l4.1,4.1l12.7-12.7c6.2-6.2,16.2-6.2,22.3,0l4.9,4.9l12.2-12.2L96.1,7.9
		c-7.7-7.7-20.2-7.7-27.9,0l-55,55C6.7,69.4,5.7,79.5,10.3,87l0.2-0.2L46.9,50.4z"/>
	<path class="st4" d="M118.7,98.3c-5.4,5.4-14.2,5.4-19.7,0l-4.8-4.8l-16,16c-6.2,6.2-16.2,6.2-22.3,0l-4.1-4.1l-11.9,11.9
		l24.5,24.5c7.7,7.7,20.2,7.7,27.9,0l55-55c5.7-5.7,7.2-14.2,4.4-21.3l-1.8,1.8L118.7,98.3z"/>
	<path class="st5" d="M72.9,104.2L72.9,104.2c-0.8,0.8-1.8,1.4-2.8,1.9c-1,0.4-2.1,0.6-3.2,0.6c-2.2,0-4.3-0.8-6-2.5l-4.1-4.1
		L52,95.3c-1.6-1.6-2.5-3.8-2.5-6c0-1.1,0.2-2.2,0.6-3.2s1-2,1.9-2.8l0,0l23.7-23.7l12.7-12.7l0,0c1.2-1.2,2.8-2,4.4-2.3
		c0.5-0.1,1.1-0.2,1.6-0.2c2.2,0,4.3,0.8,6,2.5l4.9,4.9l5.2-5.2l0,0l-4.9-4.9c-6.2-6.2-16.2-6.2-22.3,0L70.6,54.4L46.9,78.1
		c-1.2,1.2-2.1,2.4-2.8,3.8c-0.2,0.5-0.5,0.9-0.6,1.4c-1.7,4.3-1.5,9.2,0.6,13.3c0.7,1.4,1.7,2.7,2.8,3.8l4.8,4.8l4.1,4.1
		c6.2,6.2,16.2,6.2,22.3,0l16-16l-5.2-5.2L72.9,104.2z"/>
	<path class="st6" d="M149.7,67.2l1.8-1.8c-0.6-1.6-1.5-3.2-2.6-4.6C149.2,62.9,149.5,65.1,149.7,67.2z"/>
	<path class="st7" d="M10.5,86.8L10.3,87c0.1,0.2,0.2,0.4,0.3,0.6C10.6,87.3,10.6,87,10.5,86.8z"/>
	
		<linearGradient id="SVGID_3_" gradientUnits="userSpaceOnUse" x1="-794.9145" y1="344.0565" x2="-677.7004" y2="344.0565" gradientTransform="matrix(0.7071 -0.7071 -0.7071 -0.7071 844.7433 -201.971)">
		<stop  offset="0" style="stop-color:#623393"/>
		<stop  offset="0.5738" style="stop-color:#452B7C"/>
		<stop  offset="1" style="stop-color:#2C256C"/>
	</linearGradient>
	<path class="st8" d="M88.8,68.4l16.5-16.5l-4.9-4.9c-1.6-1.6-3.8-2.5-6-2.5c-0.5,0-1.1,0.1-1.6,0.2c-1.6,0.3-3.1,1.1-4.4,2.3
		L75.7,59.7l0.9,0.9c5.4,5.4,5.4,14.2,0,19.6l-19.9,19.9l4.1,4.1c1.6,1.6,3.8,2.5,6,2.5c1.1,0,2.2-0.2,3.2-0.6s2-1,2.8-1.9l16-16
		l-0.1-0.1C83.4,82.6,83.4,73.8,88.8,68.4z"/>
	<path class="st4" d="M88.8,68.4l16.5-16.5l-4.9-4.9c-1.6-1.6-3.8-2.5-6-2.5c-0.5,0-1.1,0.1-1.6,0.2c-1.6,0.3-3.1,1.1-4.4,2.3
		L75.7,59.7l0.9,0.9c5.4,5.4,5.4,14.2,0,19.6l-19.9,19.9l4.1,4.1c1.6,1.6,3.8,2.5,6,2.5c1.1,0,2.2-0.2,3.2-0.6s2-1,2.8-1.9l16-16
		l-0.1-0.1C83.4,82.6,83.4,73.8,88.8,68.4z"/>
	<path class="st5" d="M72.9,104.2L72.9,104.2c-0.8,0.8-1.8,1.4-2.8,1.9C71.2,105.7,72.1,105.1,72.9,104.2z"/>
	
		<linearGradient id="SVGID_4_" gradientUnits="userSpaceOnUse" x1="-806.0269" y1="329.5948" x2="-665.2571" y2="329.5948" gradientTransform="matrix(0.7071 -0.7071 -0.7071 -0.7071 844.7433 -201.971)">
		<stop  offset="0" style="stop-color:#623393"/>
		<stop  offset="0.5738" style="stop-color:#452B7C"/>
		<stop  offset="1" style="stop-color:#2C256C"/>
	</linearGradient>
	<path class="st9" d="M72.9,104.2L72.9,104.2c-0.8,0.8-1.8,1.4-2.8,1.9C71.2,105.7,72.1,105.1,72.9,104.2z"/>
	<path class="st5" d="M56.9,100.1L56.9,100.1l4.1,4.1c1.6,1.6,3.8,2.5,6,2.5c-2.2,0-4.3-0.8-6-2.5L56.9,100.1z"/>
	
		<linearGradient id="SVGID_5_" gradientUnits="userSpaceOnUse" x1="-806.0269" y1="337.5918" x2="-665.2571" y2="337.5918" gradientTransform="matrix(0.7071 -0.7071 -0.7071 -0.7071 844.7433 -201.971)">
		<stop  offset="0" style="stop-color:#623393"/>
		<stop  offset="0.5738" style="stop-color:#452B7C"/>
		<stop  offset="1" style="stop-color:#2C256C"/>
	</linearGradient>
	<path class="st10" d="M56.9,100.1L56.9,100.1l4.1,4.1c1.6,1.6,3.8,2.5,6,2.5c-2.2,0-4.3-0.8-6-2.5L56.9,100.1z"/>
	<path class="st5" d="M88.5,47L88.5,47c1.2-1.2,2.8-2,4.4-2.3C91.3,45,89.8,45.8,88.5,47z"/>
	
		<linearGradient id="SVGID_6_" gradientUnits="userSpaceOnUse" x1="-806.0269" y1="357.9567" x2="-665.2571" y2="357.9567" gradientTransform="matrix(0.7071 -0.7071 -0.7071 -0.7071 844.7433 -201.971)">
		<stop  offset="0" style="stop-color:#623393"/>
		<stop  offset="0.5738" style="stop-color:#452B7C"/>
		<stop  offset="1" style="stop-color:#2C256C"/>
	</linearGradient>
	<path class="st11" d="M88.5,47L88.5,47c1.2-1.2,2.8-2,4.4-2.3C91.3,45,89.8,45.8,88.5,47z"/>
	<path class="st12" d="M13.3,90.7c-1-1-1.9-2.1-2.6-3.2c-0.1-0.2-0.2-0.4-0.3-0.6l-5.2,5.2c-5.4,5.4-5.4,14.2,0,19.6L15.3,122
		c4.4,4.4,10.9,5.2,16.2,2.5c1.3-0.6,2.4-1.5,3.5-2.5l3.3-3.3l1.2-1.2l0.4-0.4L13.3,90.7z"/>
	<path class="st13" d="M46.9,100.6c-1.2-1.2-2.1-2.4-2.8-3.8c-2.2-4.1-2.4-9-0.6-13.3c0.2-0.5,0.4-0.9,0.6-1.4
		c0.7-1.4,1.7-2.7,2.8-3.8l0,0l23.7-23.7l-4.1-4.1c-5.4-5.4-14.2-5.4-19.6,0L10.5,86.9c0,0.2,0.1,0.5,0.2,0.7
		c0.7,1.1,1.6,2.2,2.6,3.2l26.5,26.5l11.9-11.9L46.9,100.6z"/>
	<path class="st7" d="M43.4,83.4c-1.7,4.3-1.5,9.2,0.6,13.3C41.9,92.6,41.7,87.7,43.4,83.4z"/>
	<path class="st13" d="M56.9,100.1l19.9-19.9c5.4-5.4,5.4-14.2,0-19.6l-0.9-0.9L52.2,83.4c-0.8,0.8-1.4,1.8-1.9,2.8
		c-0.4,1-0.6,2.1-0.6,3.2c0,2.2,0.8,4.3,2.5,6L56.9,100.1z"/>
	<path class="st7" d="M52.1,95.4c-1.6-1.6-2.5-3.8-2.5-6C49.6,91.5,50.5,93.7,52.1,95.4l4.8,4.8l0,0L52.1,95.4z"/>
	<path class="st7" d="M52.1,83.4c-0.8,0.8-1.4,1.8-1.9,2.8C50.7,85.2,51.3,84.2,52.1,83.4L52.1,83.4z"/>
	<path class="st12" d="M105.4,51.9L88.9,68.4c-5.4,5.4-5.4,14.2,0,19.6l0.1,0.1l20.4-20.4c1.2-1.2,2-2.8,2.3-4.4
		c0.1-0.5,0.2-1.1,0.2-1.6c0-2.2-0.8-4.3-2.5-6L105.4,51.9z"/>
	<path class="st6" d="M109.4,67.8c1.2-1.2,2-2.8,2.3-4.4C111.4,65.1,110.6,66.6,109.4,67.8L109.4,67.8z"/>
	<path class="st14" d="M109.4,55.9c1.6,1.6,2.5,3.8,2.5,6C111.8,59.7,111,57.5,109.4,55.9l-4-4l0,0L109.4,55.9z"/>
	<path class="st14" d="M114.6,73c1.5-1.5,2.7-3.3,3.5-5.2C117.3,69.7,116.1,71.5,114.6,73L114.6,73z"/>
	<path class="st4" d="M118,67.8c0.2-0.5,0.4-1,0.5-1.4c1.6-5.4,0.3-11.4-4-15.7l-4-4l-5.2,5.2l4,4c1.6,1.6,2.5,3.8,2.5,6
		c0,0.5-0.1,1.1-0.2,1.6c-0.3,1.6-1.1,3.1-2.3,4.4l0,0L89,88.2l5.2,5.2L114.6,73C116.1,71.5,117.3,69.7,118,67.8z"/>
	<path class="st4" d="M160.4,36.9l-10.2-10.2c-5.1-5.1-13.2-5.4-18.6-0.9c-0.3,0.3-0.7,0.6-1,0.9l-6.6,6.6l-1.2,1.2l0,0l24.4,24.4
		c0.6,0.6,1.2,1.3,1.7,2c1.1,1.4,2,3,2.6,4.6l8.9-8.9C165.8,51.1,165.8,42.3,160.4,36.9z"/>
	<path class="st12" d="M114.6,50.7c4.2,4.2,5.6,10.3,4,15.7c-0.1,0.5-0.3,1-0.5,1.4c-0.8,1.9-1.9,3.7-3.5,5.2l0,0L94.2,93.4l4.8,4.8
		c5.4,5.4,14.2,5.4,19.7,0l31-31c-0.2-2.1-0.5-4.3-0.9-6.4c-0.5-0.7-1.1-1.4-1.7-2l-24.4-24.4l-12.2,12.2L114.6,50.7z"/>
	<path class="st6" d="M114.6,50.7c4.2,4.2,5.6,10.3,4,15.7C120.1,61,118.8,54.9,114.6,50.7l-4-4l0,0L114.6,50.7z"/>
</g>
</svg>
