<?xml version="1.0" encoding="utf-8"?>
<!-- Generator: Adobe Illustrator 26.1.0, SVG Export Plug-In . SVG Version: 6.00 Build 0)  -->
<svg version="1.1" id="a" xmlns="http://www.w3.org/2000/svg" xmlns:xlink="http://www.w3.org/1999/xlink" x="0px" y="0px"
	 viewBox="0 0 550.3 823.8" style="enable-background:new 0 0 550.3 823.8;" xml:space="preserve">
<style type="text/css">
	.st0{opacity:0.14;}
	.st1{fill:#231F20;}
	.st2{fill:#0086FF;}
	.st3{fill:#93EAFF;}
</style>
<g class="st0">
	<path class="st1" d="M493.8,782.1H56.5c-24,0-43.5-19.5-43.5-43.5V90.2c0-24,19.5-43.5,43.5-43.5h437.3c24,0,43.5,19.5,43.5,43.5
		v648.4C537.2,762.6,517.7,782.1,493.8,782.1z M56.5,55.4c-19.2,0-34.8,15.6-34.8,34.8v648.4c0,19.2,15.6,34.8,34.8,34.8h437.3
		c19.2,0,34.8-15.6,34.8-34.8V90.2c0-19.2-15.6-34.8-34.8-34.8C493.8,55.4,56.5,55.4,56.5,55.4z"/>
</g>
<g>
	<path class="st2" d="M226.6,717.4c-1.8,1.4-3.8,2.6-5.9,3.7s-4.5,1.8-7,2.3s-5.4,0.8-8.5,0.8c-4.8,0-9.2-0.9-13.2-2.6
		c-4.1-1.7-7.6-4.1-10.6-7.1s-5.3-6.5-6.9-10.6c-1.7-4.1-2.5-8.4-2.5-13.1v-0.2c0-4.6,0.8-9,2.5-13s4-7.6,6.9-10.7
		c3-3.1,6.5-5.5,10.7-7.2c4.1-1.8,8.7-2.6,13.7-2.6c3,0,5.8,0.2,8.3,0.7s4.8,1.2,6.8,2c2,0.9,3.9,1.9,5.7,3.1
		c1.7,1.2,3.3,2.6,4.8,4.1l-9.1,10.5c-2.5-2.3-5.1-4.1-7.7-5.4c-2.6-1.3-5.6-1.9-8.8-1.9c-2.7,0-5.2,0.5-7.6,1.6s-4.3,2.5-6,4.4
		s-3,4-3.9,6.4s-1.4,5.1-1.4,7.8v0.2c0,2.8,0.5,5.4,1.4,7.9s2.2,4.6,3.8,6.5s3.6,3.3,5.9,4.4c2.3,1.1,4.9,1.6,7.6,1.6
		c3.7,0,6.8-0.7,9.4-2c2.6-1.4,5.1-3.2,7.6-5.6l9.1,9.2C230.1,714.3,228.4,715.9,226.6,717.4L226.6,717.4z"/>
	<path class="st2" d="M293.3,723l-31.4-41.2V723h-14.1v-64.9H261l30.4,39.9v-39.9h14.1V723H293.3z"/>
	<path class="st2" d="M339.9,671v14h30.9v12.9h-30.9V723h-14.3v-64.9H375V671H339.9L339.9,671z"/>
</g>
<g>
	<path class="st2" d="M146.5,149.1c-1.5,1.1-3,2.1-4.7,2.9c-1.7,0.8-3.5,1.4-5.5,1.9c-2,0.4-4.2,0.6-6.6,0.6
		c-3.8,0-7.3-0.7-10.5-2.1c-3.2-1.4-6-3.3-8.4-5.7s-4.2-5.2-5.5-8.5s-2-6.8-2-10.5s0.7-7.2,2-10.5s3.2-6.1,5.5-8.6
		c2.4-2.5,5.2-4.4,8.5-5.8s6.9-2.1,10.8-2.1c2.4,0,4.5,0.2,6.5,0.6s3.8,1,5.4,1.7c1.6,0.7,3.1,1.6,4.5,2.6s2.7,2.1,3.9,3.3l-5.9,6.8
		c-2.1-1.9-4.3-3.5-6.6-4.7s-5-1.8-7.9-1.8c-2.5,0-4.8,0.5-6.9,1.4c-2.1,1-3.9,2.3-5.5,3.9c-1.5,1.7-2.7,3.6-3.6,5.8
		c-0.8,2.2-1.3,4.6-1.3,7.2c0,2.6,0.4,5,1.3,7.2c0.8,2.3,2,4.2,3.6,5.9c1.5,1.7,3.4,3,5.5,4s4.4,1.4,6.9,1.4c3.2,0,5.9-0.6,8.2-1.8
		s4.5-2.9,6.8-4.9l5.9,5.9C149.4,146.7,148,148,146.5,149.1L146.5,149.1z"/>
	<path class="st2" d="M171.1,144.5c2,1.7,4.5,2.6,7.4,2.6c2.2,0,4.2-0.4,5.8-1.2s3.2-2,4.8-3.5l5.3,4.7c-1.9,2.2-4.1,4-6.7,5.3
		c-2.6,1.3-5.7,2-9.3,2c-2.8,0-5.5-0.5-7.9-1.5c-2.5-1-4.6-2.4-6.4-4.2c-1.8-1.8-3.2-3.9-4.3-6.4c-1-2.5-1.6-5.3-1.6-8.4
		c0-2.8,0.5-5.5,1.4-7.9c0.9-2.5,2.3-4.6,4-6.5s3.7-3.3,6.1-4.4c2.3-1.1,4.9-1.6,7.7-1.6c3.1,0,5.9,0.6,8.2,1.7
		c2.4,1.1,4.3,2.7,5.9,4.6c1.6,1.9,2.7,4.2,3.5,6.8s1.2,5.3,1.2,8.1c0,0.4,0,0.8,0,1.2s-0.1,0.8-0.1,1.3h-28.8
		C167.8,140.4,169,142.8,171.1,144.5L171.1,144.5z M187.3,131.2c-0.1-1.4-0.5-2.8-1-4c-0.5-1.3-1.2-2.4-2-3.3s-1.8-1.6-3-2.2
		c-1.2-0.5-2.5-0.8-4-0.8c-2.8,0-5.1,1-6.9,2.9c-1.8,1.9-2.9,4.4-3.3,7.5L187.3,131.2L187.3,131.2z"/>
	<path class="st2" d="M216.2,153.6h-9.1v-39.2h9.1v8.8c1.2-3,3-5.3,5.3-7.1c2.3-1.8,5.2-2.6,8.6-2.5v9.5h-0.5c-2,0-3.8,0.3-5.4,1
		c-1.6,0.6-3,1.6-4.2,2.9s-2.1,2.9-2.7,4.9c-0.6,2-1,4.2-1,6.8L216.2,153.6L216.2,153.6z"/>
	<path class="st2" d="M250.5,141.3c0,1.7,0.4,3,1.3,3.8c0.8,0.8,2,1.2,3.6,1.2c1.9,0,3.8-0.4,5.6-1.3v7.4c-1.1,0.6-2.4,1.1-3.6,1.5
		c-1.3,0.3-2.8,0.5-4.5,0.5c-1.6,0-3.2-0.2-4.5-0.6c-1.4-0.4-2.6-1-3.6-1.9s-1.8-2.1-2.4-3.5c-0.5-1.5-0.8-3.3-0.8-5.5V122h-5v-7.7
		h5v-10.8h9.1v10.8h10.5v7.7h-10.5L250.5,141.3L250.5,141.3z"/>
	<path class="st2" d="M272.1,108.3v-8.5h9.7v8.5H272.1z M272.5,153.6v-39.2h9.1v39.2H272.5z"/>
	<path class="st2" d="M316.4,114.6v7.4h-10.3v31.5H297V122h-5v-7.5h5v-2.8c0-4.4,1-7.6,3.1-9.7s5.1-3.2,9-3.2c1.6,0,2.9,0.1,4.1,0.3
		c1.1,0.2,2.2,0.4,3.2,0.7v7.6c-0.9-0.3-1.7-0.5-2.6-0.7c-0.8-0.2-1.7-0.3-2.7-0.3c-3.5,0-5.2,2-5.2,5.9v2.2L316.4,114.6
		L316.4,114.6z"/>
	<path class="st2" d="M325,108.3v-8.5h9.7v8.5H325z M325.4,153.6v-39.2h9.1v39.2H325.4z"/>
	<path class="st2" d="M358.6,144.5c2,1.7,4.5,2.6,7.4,2.6c2.2,0,4.2-0.4,5.8-1.2c1.6-0.8,3.2-2,4.8-3.5l5.3,4.7
		c-1.9,2.2-4.1,4-6.7,5.3s-5.7,2-9.3,2c-2.8,0-5.5-0.5-7.9-1.5c-2.5-1-4.6-2.4-6.4-4.2s-3.2-3.9-4.3-6.4c-1-2.5-1.6-5.3-1.6-8.4
		c0-2.8,0.5-5.5,1.4-7.9c0.9-2.5,2.3-4.6,4-6.5s3.7-3.3,6.1-4.4c2.3-1.1,4.9-1.6,7.7-1.6c3.1,0,5.9,0.6,8.2,1.7
		c2.4,1.1,4.3,2.7,5.9,4.6s2.7,4.2,3.5,6.8s1.2,5.3,1.2,8.1c0,0.4,0,0.8,0,1.2s-0.1,0.8-0.1,1.3h-28.8
		C355.3,140.4,356.6,142.8,358.6,144.5z M374.8,131.2c-0.1-1.4-0.5-2.8-1-4s-1.2-2.4-2-3.3s-1.8-1.6-3-2.2c-1.2-0.5-2.5-0.8-4-0.8
		c-2.8,0-5.1,1-6.9,2.9s-2.9,4.4-3.3,7.5L374.8,131.2L374.8,131.2z"/>
	<path class="st2" d="M424.1,153.6V147c-1.4,2-3.2,3.8-5.4,5.2c-2.1,1.4-4.8,2.2-8,2.2c-2.3,0-4.6-0.4-6.7-1.3
		c-2.2-0.9-4.1-2.2-5.8-4s-3-3.9-4.1-6.4s-1.6-5.4-1.6-8.7s0.5-6.2,1.5-8.7s2.4-4.7,4-6.4c1.7-1.8,3.6-3.1,5.8-4
		c2.2-0.9,4.5-1.3,6.8-1.3c3.2,0,5.9,0.7,8,2.1s3.9,3,5.3,4.8V99.3h9.1v54.2L424.1,153.6L424.1,153.6z M423.4,128.8
		c-0.6-1.5-1.4-2.9-2.5-4c-1-1.1-2.2-2-3.6-2.6s-2.8-0.9-4.3-0.9s-3,0.3-4.3,0.9c-1.4,0.6-2.6,1.4-3.6,2.5s-1.9,2.4-2.4,4
		c-0.6,1.6-0.9,3.3-0.9,5.3c0,1.9,0.3,3.7,0.9,5.2c0.6,1.6,1.4,2.9,2.4,4s2.2,1.9,3.6,2.5s2.8,0.9,4.3,0.9s2.9-0.3,4.3-0.9
		c1.4-0.6,2.6-1.4,3.6-2.6c1-1.1,1.9-2.4,2.5-4c0.6-1.5,0.9-3.3,0.9-5.2S424,130.3,423.4,128.8L423.4,128.8z"/>
</g>
<g>
	<path class="st2" d="M128.5,470.5H70.2v137h136.5v-58.9h-78.2V470.5z"/>
	<path class="st2" d="M422.1,471.1v77.4h-78.2v58.9h136.5v-137h-59L422.1,471.1z"/>
	<path class="st2" d="M70.2,334.2h59l-0.6-0.6v-77.4h78.2v-58.9H70.2V334.2z"/>
	<path class="st2" d="M343.9,197.2v58.9h78.2v78.1h58.3v-137C480.4,197.2,343.9,197.2,343.9,197.2z"/>
	<path class="st3" d="M336.2,334.2L258,256.1h85.9v-58.9H206.7v58.9l78.2,78.1H336.2z"/>
	<path class="st3" d="M265.7,470.5h-51.3l64.7,64.7l12.8,13.4h-85.3v58.9h137.2v-59.6l-39.1-38.5L265.7,470.5z"/>
	<path class="st3" d="M422.1,334.2v85.1l-13.5-13.5l-64.7-64.7v51.9l38.5,38.5l39.1,39h59V334.2H422.1L422.1,334.2z"/>
	<path class="st3" d="M206.7,411.6l-77.6-77.4h-59v136.3h58.3v-85.1l78.2,78.1V411.6z"/>
</g>
</svg>
