<?xml version="1.0" encoding="UTF-8"?><svg id="a" xmlns="http://www.w3.org/2000/svg" xmlns:xlink="http://www.w3.org/1999/xlink" viewBox="0 0 388.95999 388.95999"><defs><style>.c{fill:none;}.d{fill:#0086ff;}.e{fill:#00ceff;isolation:isolate;}.e,.f{opacity:.8;}.g{clip-path:url(#b);}</style><clipPath id="b"><rect class="c" x="26.64546" y="26.73575" width="2116.05183" height="335.5285"/></clipPath></defs><g class="g"><g><path class="d" d="M74.39174,250.2296H26.64546v112.0341h111.75795v-48.17973H74.39174v-63.85437Zm240.30578,.52416v63.33021h-64.01145v48.17973h111.75795v-112.0341h-48.27121l.52471,.52416ZM26.64546,138.77205h48.27094l-.52466-.52472v-63.33031h64.01167V26.73756H26.64546v112.03449ZM250.68607,26.73756v48.17946h64.01145v63.85503h47.7465V26.73756h-111.75795Z"/><g class="f"><path class="e" d="M244.39396,138.77205l-64.01146-63.85503h70.30744V26.73756h-112.28267v48.17946l64.01145,63.85503h41.97524Zm-57.71548,111.45701h-41.97468l52.99307,52.89826,10.49367,10.95665h-69.78328v48.17973h112.28267v-48.70389l-32.00572-31.45566-32.00573-31.87509Zm128.01904-111.45701v69.62121l-11.01838-11.009-52.99307-52.89826v42.41287l31.48102,31.45565,32.00572,31.92747h48.27121v-111.50993h-47.7465Zm-176.29411,63.33019l-63.48701-63.33019H26.64546v111.45755h47.74628v-69.62177l64.01167,63.90729v-42.41288Z"/></g></g></g></svg>