<svg xmlns="http://www.w3.org/2000/svg" role="img" viewBox="-19.78 -19.78 814.56 1028.56"><title>tekton-triggers-white</title><style>svg {enable-background:new 0 0 776 990}</style><style>.st0{fill:#fff}</style><g><path d="M666.6 475.5c.2-.2.4-.3.5-.5-.2 0-.4 0-.6-.1C666.5 475.1 666.6 475.3 666.6 475.5zM459.2 151.2l35.7-5.8-13.1 33.8 22.2-3.6-38.5 60.9 5.9-35.6-17.4 5.2C454.1 206.2 454.1 206.2 459.2 151.2zM425 113.7c-1.4-1.8-4-2.1-5.8-.7-8 6.4-14.8 13.9-20.2 22.4-5.5 8.5-9.5 18-11.9 27.8-.5 2.2.8 4.4 3 5 2.2.5 4.4-.8 5-3 2.2-9 5.8-17.6 10.8-25.3 4.9-7.7 11.1-14.6 18.4-20.4C426.1 118.1 426.4 115.5 425 113.7z" class="st0"/><path d="M384.7 135.9c2 1.2 4.5.5 5.7-1.5 7.1-12 16.6-22.3 27.7-30.3 11.1-8 23.9-13.7 37.5-16.5 2.2-.5 3.6-2.6 3.2-4.9-.5-2.2-2.6-3.6-4.9-3.2-14.8 3.1-28.6 9.3-40.7 17.9-12.1 8.7-22.4 19.8-30 32.8C382.1 132.2 382.7 134.8 384.7 135.9zM376.5 440.4c-.8-3.4-2.5-6.5-5.2-8.8-13-11-34.9 5.6-44.9 13.8l0 0c-9.9 8.2-30.8 26.7-22.3 41.5 1.3 2.3 3.2 4.2 5.5 5.6 13.7 8.1 34.5-3.5 45.2-12.4C365.2 471.7 379.6 454.9 376.5 440.4zM347.2 470.9L347.2 470.9 347.2 470.9c-9.2 7.5-24.9 15.6-31.8 11.5-11.7-6.9 46.2-54.8 49.5-39.6C366.6 450.5 356 463.7 347.2 470.9z" class="st0"/><path d="M433.7 113c1.7-1 3.5-2 5.3-2.8 1.8-.9 3.6-1.7 5.5-2.5 2.1-.9 3.1-3.3 2.2-5.4-.9-2.1-3.3-3.1-5.4-2.2-2 .8-4 1.7-6 2.7-2 1-3.9 2-5.8 3.1-2 1.1-2.6 3.7-1.5 5.6C429.2 113.5 431.8 114.2 433.7 113zM209 284.5c-1.9-1.2-4.9-.8-6.8.9-1.9 1.7-2 4.1-.1 5.3 1.8 1.2 4.9.8 6.8-.9C210.7 288.1 210.8 285.8 209 284.5z" class="st0"/><path d="M642.8 33.1C568.5-30.1 490.2 5.8 524.3 68.5c6.6 12.1 17.1 20.7 27.7 26.9 38.9 22.4 78.3 53.3 105.4 94.6 19.7 30 32.6 65.8 31.7 104.6-1.5 64.3-39.4 115.7-81.1 150.3-4.1 3.4-8.4 6.5-12.9 9.3 4.3-4.9 7.9-10.3 10.9-16.7 4.6-9.7 7.8-20.1 12.4-30 1-2.3 1.4-4.5 1-6.9-2.1-14.8-12.1-34.4-19.5-47.3-6.3-11-13.9-22.7-22.5-32.1-7.8-8.6-20.3-19-32.4-11.3-16.1 10.2-21.9 26.8-19.3 45 1.1 7.6 3.6 15.2 6.9 22.2-6.4 1.5-12.9 3.3-19.2 5.5-9.8 2.2-18.4 6.3-25.3 12.3-1.2.8-2.4 1.7-3.6 2.5-2.2 1.7-3.7 3.8-4.4 6.3-2.6 3.7-4.9 7.8-6.6 12.4.1-3.2.1-6.3 0-9.5 3.6-2.2 6.1-6.1 6-10.6 0-7.8-1.7-16.8-3.4-24.5-2.3-10.6-5.2-21.2-8.7-31.4-5.7-16.9-16.4-43.7-32.4-53.3-12.1-7.2-29.9-3.2-37.8 8.5-11.5-10.6-24.1-19.9-37.6-27.6-.3-7.5-1.1-14.9-2.6-22.2-3.1-15.6-8.9-30.4-17.5-43.9-8.5-13.3-19.5-24.7-32.2-34-5.5-4-12.9-3.9-18.1.4-24.1 19.7-36.1 47.5-44.5 76.5-60.8 9-109.9 52-127.6 111.7-35.1 2.8-69.5 10-97.6 32.9-6.1 4.9-7.9 13.3-4.7 20.5 7.6 16.7 18 31.8 31.2 44.6 13.3 12.9 28.8 22.9 45.8 30 10.9 4.6 22.3 7.9 33.9 10 .5.1 1 .2 1.4.3 3 6.9 6.5 13.5 10.6 20 5.6 8.8 11.8 17.3 18.6 25.3 2.8 3.3 5.6 6.6 8.7 9.6 8.2 8.6 25.2 9.3 36.2 11.6 14 3 28.3 4 42.4 3.3.1 13.1 2.7 26.2 8.2 38.1 11.2 24 31.4 37.3 54.9 42.6.7 1 1.4 2 2.1 2.9 2.3 3 5.4 4.6 9.2 4.8 12.8.6 26.1-1.5 36.5-8.5 19.1 12.3 40 18.1 73 20.1 36.8 2.2 75.3-7.3 104-31.1 12-9.9 21.2-21.5 28-34.2 3.4 1.4 7.1 1.6 11-.3 1.1-.5 2.1-1.2 3.1-2 6.6-5.9 16.6-11.2 25.7-8.8 5.9 1.6 12 1.7 17.9.1 22.6-5.9 34.9-33.4 41.2-53.6 4-12.9 7-27.1 8.2-40.7 6.6-5.9 13-12.3 19.2-19 51.1-55.9 75.4-123.9 76.3-207.6C763.4 175.1 720.4 99.1 642.8 33.1zM550.8 76.9l-.3.5c-37.1-28-24.7-82.5 38-59.2 5.1 1.9 10.2 4.2 15.3 6.9 6.6 8.6 7.9 21.1 5 32.7-1.5 5.9-4.1 11.6-7.8 16.2-3.5 4.5-7.9 8.1-13.2 10.2C578.3 88.1 565.7 86.9 550.8 76.9zM611.2 119.1c-8.9-7.4-18.4-14.5-28.6-21.4 3.4-.4 6.6-1.3 9.7-2.5 7.3-2.9 13.3-7.9 18.1-14 4.6-6 8-13.1 9.9-20.5 2.1-8.3 2.4-17 .8-25.1 10.1 6.9 20 15.1 29.6 24.1 7.2 8.6 8.7 21.6 5.7 33.5-1.5 5.9-4.2 11.5-7.8 16.2-3.5 4.5-7.9 8.1-13.2 10.2C628.6 122.4 620.5 122.6 611.2 119.1zM653.4 161.9c-7.8-9.7-16.5-19.3-26.2-28.5 4.4-.3 8.6-1.3 12.4-2.8 7.3-2.9 13.4-7.8 18.1-14 4.6-6 8-13.1 9.9-20.5 1.4-5.6 2.1-11.5 1.8-17.2 11.4 12.6 22.2 26.1 31.8 39.7.9 5.8.5 12.1-1 18.1-1.5 5.9-4.1 11.5-7.8 16.2-3.5 4.5-7.9 8.1-13.2 10.2C672.2 166 663.5 166.1 653.4 161.9zM664.4 176.8c7 .7 13.5-.4 19.3-2.7 7.3-2.9 13.3-7.8 18.1-14 4.6-6 8-13.1 9.9-20.5.4-1.4.6-2.7.9-4.1 8.5 13.4 15.8 26.6 21.4 38.7-.7 5.3-2.4 10.7-5 15.7-2.9 5.4-6.7 10.3-11.3 13.9-4.4 3.6-9.6 6-15.2 6.9-6.4.9-13.5-.3-20.9-4.7C676.6 196.1 670.9 186.4 664.4 176.8zM688.2 221.5c5.5 1.4 10.8 1.6 15.8.8 7.7-1.1 14.8-4.5 20.8-9.3 5.9-4.7 10.8-10.9 14.4-17.6.6-1.2 1.2-2.4 1.8-3.7 1.4 4 2.6 7.8 3.5 11.4 3.3 13.2 5.6 26.5 6.9 39.8-1.3 2.1-2.7 4.2-4.3 6.2-3.9 4.7-8.6 8.7-13.9 11.4-5.1 2.6-10.7 4-16.3 3.7-6.2-.4-12.6-2.8-18.8-8.1C695.9 244.5 692.6 232.9 688.2 221.5zM608.1 462.4c2.3-1.7 4.6-3.4 6.8-5.3 5.2-4.3 10.1-8.6 14.8-13.1 1.8 6.7 5 12.4 9.2 16.9-10.7 1.3-20.3 5.7-28.6 13C607.4 469 607.4 462.9 608.1 462.4zM599.5 468.1c.6-.4.6 3.5 2.2 7.1.7 1.7 1.6 3.3 2.6 4.8-.2.3-.4.5-.7.8-2.5 3-4.8 6.2-6.9 9.6-4.5-5.3-9.4-9.7-14.7-13.2C587.7 474.7 593.6 471.8 599.5 468.1zM545.8 387.1c6.2 3.6 14.5 6.2 20.4 6.4l5.4-.6-9.2-4.1c-10.2-5.3-18.2-15-22.2-26.1-4.6-14.4-5-32 11.5-42.4 12.7-8.1 52.1 57.3 55.6 82.1-11.5 24.6-10 35.4-32 54 0 0-41.9-32.9-83.2-49.1C508.8 394.7 533.2 389.2 545.8 387.1zM488.9 419.2c4.6 1.9 9.1 3.9 13.6 6 15.7 7.6 30.9 16.8 45.4 26.6 6.7 4.5 13.5 9.3 19.8 14.3.3.2.6.5.9.7-2.2.7-4.3 1.4-6.5 2.1-7.5-1.6-15.5-1.9-24-.7-16-17-34.8-25.6-55.3-29C483.4 431 485.6 424.5 488.9 419.2zM523.6 471.1c-10.3 3-20.1 7.4-29.7 12.1-3.9 1.9-6.3 5.4-6.8 9.8-.1.8-.1 1.5 0 2.3-2.8 1.5-5.5 3.2-7.9 4.9-10.9 7.8-19.7 18.4-25.5 30.5-1.2 1.2-3.6 2.6-4.9 3.8-5.1 4.6-20.6 6-27.2 6.3-9.3.4-19.1.1-28.4-1-12.3-1.4-23.3-10-31.5-18.8-.7-.7-1.4-1.5-2-2.3.3-.2.5-.4.8-.7 22.4-18.1 41.7-39.6 55.4-63.6C457.9 446.5 495.3 445.7 523.6 471.1zM422.8 440.7c3.5-7.5 6.4-15.3 8.7-23.2 5.2-.6 10.3-1.6 15.4-2.9 4.8-1.2 9.5-2.7 14.2-4.2l.2-.1c0 9.1-.6 18.2-2 27.1C447.5 437.4 435.2 438.7 422.8 440.7zM407.4 302.6c4.8-7.7 16.1-8.4 21.5-5.2 21 12.6 38.3 79 38.4 98.6-5.2.2-17.7 6.1-32.6 8.6 2.1-10.3 3.2-21 3.1-31.9-.1-11.6-.7-29.8-7.6-39.9-2.4-3.6-5.1-7.1-7.8-10.6-5-6.3-10.3-12.4-15.9-18.1C406.8 303.6 407.1 303.1 407.4 302.6zM297.7 178.3c.4-.3.7-.6 1.1-.9.2 0 .4 0 .6 0 34.5 25.3 44.4 59.6 46.7 83.2-8.6-4.1-17.6-7.5-26.9-10.3-8.3-2.5-16.5-4.3-24.6-5.5C291 222.4 290.4 196.9 297.7 178.3zM281.4 196.3c-1.3 9.9-1.3 20.1-.6 29.7.4 5.8 1 11.6 1.9 17.3-7.8-.6-15.4-.7-22.9-.3C264.9 226.4 271.5 210.2 281.4 196.3zM313.9 265.1c49.7 14.8 83.4 51.9 96.4 68.7-12.8 5.1-33.7 14.3-53.1 25.1-4.4 2.4-6.4 3.9-9.4 6-1.6-1.9-3.3-3.8-5.2-5.4-5.1-4.6-11.3-6.9-17.7-7.8 28.5-13.3 50.9-21.6 42.5-33.9-10.3-15.1-55.6-45.1-85.4-46.5-24-1.1-51.6 10-75.6 27.3-7.6-5.7-15-10.5-21.3-13.8C220.2 260.2 266.4 251 313.9 265.1zM308.5 372.6c-17.6 4.8-42.4 27.7-36.1 39.3 3.9 7.3 20.3 7.7 32.6 5.1 3.9-.8 6.3-1.3 8.1-2.1 1 1.3 2.4 2.6 3.1 4 1.2 2.6.7 7.1-1.7 11.8l0 0c-2.2 4.2-5.9 8.6-11.2 12.1-.3.2-.6.3-1 .5-18.7 9.4-38.6 10-49.2-8.3-8.5-14.7 6.1-40.1 23.6-54.2l.1-.1.1-.1c17.3-14.4 45.1-23.6 57.8-12.4 12.8 11.4 12.2 26.2 4.7 40.2-4 5.2-8.3 6.8-12.7 6-1.8-.4-4.6-1.9-7.1-3.5-.6-.4-1.2-.8-1.7-1.1.7-1.2 1.5-2.8 2.5-4.7C328 390.6 331.6 366.3 308.5 372.6zM298.3 343.3c1.8 2.2 1.5 5.4-.7 7.2-2.2 1.8-5.4 1.4-7.1-.8-5.4-6.6-8-14.5-7.8-22 .2-7.7 3.3-14.9 9.3-19.8 4.1-3.3 9-5.2 14.1-5.6 5.1-.4 10.5.7 15.5 3.1 2.5 1.2 3.6 4.3 2.4 6.8-1.2 2.5-4.2 3.6-6.7 2.3-3.3-1.6-6.9-2.3-10.2-2.1-3.1.2-6.1 1.3-8.6 3.4-3.7 3-5.6 7.5-5.7 12.3C292.7 333.2 294.5 338.7 298.3 343.3zM192 417c.7 2.7-.9 5.5-3.6 6.1-2.7.7-5.5-1-6.2-3.7-1.4-5.4-1.4-10.8.1-15.8 1.4-4.9 4.2-9.4 8.2-12.7 6-4.9 13.7-6.5 21.3-5.2 7.3 1.3 14.6 5.4 20 12 1.8 2.2 1.5 5.4-.7 7.2-2.2 1.8-5.4 1.4-7.2-.8-3.8-4.6-8.8-7.5-13.7-8.4-4.7-.8-9.5.1-13.2 3.1-2.5 2-4.1 4.7-5 7.7C191.1 409.8 191.1 413.4 192 417zM113.5 372.3c-1.7 8.9-2.7 18.2-3 27.7-7.5-2.9-15.1-5.4-22.8-7.5-10.8-3-22.4-5.3-34-6.2C72.3 378.1 92.8 374.3 113.5 372.3zM27.9 402.6c0-.2.1-.5.1-.7.4-.4.9-.7 1.3-1 24.4-4.4 55.5 3.4 81.3 13.8.2 3.5.4 7 .8 10.6 1.9 18 4.7 35.7 9.9 52.6C95.2 471.5 51.4 453.6 27.9 402.6zM122.6 424.1c-5.7-55.3 17.1-103.7 54.6-133.7 6.7 3.5 14.2 8.1 21.8 13.5-26.5 21.3-47.4 49.9-51.6 77.1-4.6 29.5 17.7 78.4 30.5 91.5 14 14.3 32.5-19.9 61.1-55.1-1.5 8.1-.8 16.3 3.5 23.7.9 1.6 1.9 3.1 3 4.5-18.7 17.7-29.5 31-40.8 46.1-13.9 18.6-22.6 34.2-28.3 44.9C169.5 529.6 128.9 484.9 122.6 424.1zM205.7 549.1c-10.9-2.3-18.1-5.2-22.4-7.5 5.6-10.5 14.2-26 28.2-44.7 11-14.8 21.5-27.7 39.8-44.9 3.5 3.2 7.6 5.7 12.2 7.4 21 7.9 44.9-3 61.4-15.9l0 0c.5-.4.9-.7 1.4-1.1 16.8-13.5 33.9-35.8 30.1-59-.7-4.1-2-8-3.8-11.5 2.9-2 4.7-3.4 8.9-5.7 20.2-11.1 41.9-20.6 54.3-25.4.6.8.8 1.3.8 1.3s5.4 7.8 5.6 30.2c.5 56.3-29.4 99-69.3 136.1C308.5 540 260.8 560.8 205.7 549.1zM356.8 533.7c-6.4-.9-12.9-.9-19.2.5 4.1-2.5 8.1-5.2 12-8C351.8 528.6 354.2 531.2 356.8 533.7zM256.3 563.4c6.2-.7 12.3-1.8 18.4-3.2-2.7 3.7-4.9 7.8-6.3 12.4-1.3 4.2-1.3 5.3-1.8 9.6-.2 3 2.1 5.6 5.2 5.8 3 .2 5.6-2.1 5.8-5.2 2.1-17.3 15.1-27.4 30.4-32.2-9.2 9-16.2 21.3-17.7 33.8-.1.8-.2 1.6-.2 2.4-2 14 1.7 29.3 8.2 42.7C268.5 618 256.2 590.8 256.3 563.4zM355.7 626.7c-4.5 6.5-14.6 15-36.6 13.9-10.6-13.9-19.7-35-17-52.5 0-.7.1-1.5.2-2.2 1.4-11.8 9.5-23.3 18.4-30.2 6.2-4.8 12.6-7.8 19.1-9.3 35.6-8.3 90.2 39.6 61.3 70.8-2.1 2.2-4.3 3.9-6.6 5.2-.6-.1-1.2-.1-1.9 0-25.6 4.5-42.7-2.1-51.2-27.9-2.4-7.1 0-1.1-3-8.2-1.1 6-1.1 7.3.1 13.4 2.6 12.8 8.9 21.4 17.4 26.7C355.9 626.4 355.8 626.6 355.7 626.7zM428.6 652.2c-29-1.7-47.5-6.4-64.3-16.4.1-.1.2-.2.3-.3 2.5.8 4.9 1.3 7.2 1.8 14.3 2.5 28.2-.9 38.3-11.8 6.7-7.3 10.9-16.1 11.4-26 1-18.3-10.3-35.1-24.2-46.8 16.1 1.3 40.8 1.2 54.4-5.5-1.3 9-1.1 18.2.3 27.1l.8 4.8c.5 3 3.3 5 6.3 4.5 3-.5 5-3.3 4.5-6.3-.9-5.6-2.1-11.5-2-17.2.3-12.4 2.9-23.6 8.2-32.9 5.1-7.5 11.3-13.5 17.5-17.8 1.9-1.1 3.9-2.1 6.1-3 .4.6.8 1.2 1.1 1.7 2.4 3.5 4.7 7.1 7 10.7 6.3 9.8 12.5 19.8 18.9 29.6 7.3 11.4 14.7 22.9 22.6 33.8 2.2 3 4.6 6.2 7.1 9C528 635 478.5 655.2 428.6 652.2zM602.8 576.1c-6.5-1.7-21.1-2.7-37 11.5-6.1 5.4-60-88.4-66.4-93.4 26.9-13.3 67.3-30 94.2 12.6-1.3 8.3.1 16.2 3.6 24 .4-9 2.2-17.8 5.3-25.6 3-6.2 7.7-14.4 14.7-21 6.8-5.7 15.4-9.7 26.1-11 .6 0 1.2-.2 1.7-.4 2.3 0 4.7.2 7.2.5C662.1 474.9 645.9 587.7 602.8 576.1zM666.6 475.5c0-.2-.1-.4-.1-.6.2 0 .4.1.6.1C666.9 475.2 666.8 475.4 666.6 475.5zM678.4 463.6c-5.6.5-11.2 0-16.4-1.6-5.5-1.7-10.5-4.5-14.3-8.6-4.3-4.7-7.2-11.1-7.9-19.4 6.9-7.2 13.2-14.6 18.9-22.2 1.3 2 2.8 3.9 4.4 5.6 5.3 5.7 12.1 9.7 19.5 11.9 6.9 2.1 14.3 2.7 21.5 2.1C696.4 442.7 687.8 453.5 678.4 463.6zM712.8 417.6c-2.9.9-5.9 1.5-8.9 1.9-6.1.7-12.3.2-17.9-1.5-5.5-1.7-10.5-4.5-14.3-8.6-2.2-2.3-4-5.1-5.3-8.4 6.3-9.4 11.8-19.1 16.5-29 3.1 3.6 6.6 6.6 10.4 8.8 6.7 4 14.4 5.8 22.1 5.8 4.8 0 9.6-.6 14.3-1.9C724.7 396.1 719.1 407 712.8 417.6zM735.5 370c-.8.4-1.7.8-2.5 1.2-5.6 2.4-11.7 3.8-17.6 3.8-5.7 0-11.3-1.3-16.1-4.2-4.2-2.5-8-6.2-10.9-11.4 5-12.8 8.5-25.7 10.7-38.9 4.1 3 8.4 5 12.9 6.3 7.5 2.1 15.3 1.9 22.8 0 4.9-1.3 9.6-3.2 14-5.8C745.7 337.7 741.3 354.1 735.5 370zM751 304.6c-1 .9-2.1 1.9-3.2 2.7-4.8 3.8-10.3 6.6-16.1 8.1-5.5 1.4-11.3 1.6-16.7 0-5.1-1.4-10-4.4-14.3-9.2 1-11.5.9-23-.3-34.5 5.2 2.6 10.6 3.9 15.8 4.2 7.8.4 15.4-1.4 22.3-5 5.2-2.7 10-6.2 14.1-10.5C753.2 275.3 752.7 290.1 751 304.6zM222.4 850.4l-46.5 122.3-1.2-26c0-2-.6-4.8-1.6-8.4-1-3.6-1.9-6-2.8-7.1-1.2-1.7-3.6-3.3-7-5 5.6-1.4 10.4-3.2 14.1-5.4 5.9-3.4 11.2-7.8 15.9-13.3 4.7-5.4 8.5-11.9 11.3-19.4 3.3-8.6 4.4-16 3.2-22-1.2-6-4.1-10.1-8.9-12.3-4.7-2.2-12.4-3.3-23-3.3h-55.1-2.1H16.4L6.2 877.6h35.1L0 985.7h34.3l41.3-108h32.8l0 0h40.8v.1h8.6c6.3 0 10.1 1.2 11.5 3.5 1.4 2.3 1.2 5.7-.4 10.1-1.1 3-2.8 5.6-5.2 7.9-2.3 2.3-4.7 3.7-7.2 4.2-5 1.2-8.3 1.9-9.8 1.9h-14.5l6.6-17.4h-34.4l-37.2 97.7h34.4l20.8-54.8h3c3.1 0 5.5 1 7.2 3.1 1.2 1.6 1.9 5.1 2.2 10.4l2.6 41.3h33.2 5.6 28.9l51.5-135.3H222.4z" class="st0"/><path d="M180.3 310.2c1.8 1.2 4.9.8 6.8-.9 1.9-1.7 2-4.1.2-5.3-1.9-1.2-4.9-.8-6.8.9C178.5 306.6 178.4 309 180.3 310.2zM525.1 252c-2.6 1.9-5.4 3.7-8.4 5.4-3 1.7-6 3.1-9.1 4.4-2.1.9-3.1 3.3-2.2 5.4.9 2.1 3.3 3.1 5.4 2.2 3.5-1.4 6.8-3 10-4.8 3.2-1.8 6.3-3.8 9.3-5.9 1.8-1.3 2.2-3.9.9-5.8C529.5 251.1 526.9 250.7 525.1 252zM623 840.5l26.8-78.2c2.5-7.3 4.2-16.1 5.2-26.5 1 13.2 2.8 24.4 5.4 33.5l20 71.2h40.4L776 679.1h-40.4l-16.3 47.8c-4.9 14.4-8.5 28.6-10.7 42.4-.8-8.9-2.9-19.3-6.4-31l-17.4-59.1H638l-15.6 45.8c-.4-9-2.7-17-7-23.8-9-14.5-24.8-21.8-47-21.9l0 0h-146l-40 38.7h33.1l-39.5 115.4 1.1 7.3h43.4l42-122.7h24.5c-10.9 12.5-19.2 26.9-24.9 43.4-8.6 24.9-8.4 44.7.8 59.5 9.2 14.8 25.1 22.3 47.8 22.3 22.6 0 43.6-7.6 63.2-22.8 9.6-7.4 17.8-16.1 24.8-25.9l-15.8 46.3H623zM564 756.6c-6.6 19.1-13 32.3-19.2 39.5-6.2 7.2-13.5 10.8-21.9 10.8-15.7 0-18.4-14.8-8.1-44.4 11-31.6 24.6-47.4 40.9-47.4C570.8 715.1 573.6 728.9 564 756.6zM465.5 236.5l38.5-60.9-22.2 3.6 13.1-33.8-35.7 5.8c-5.1 54.9-5.1 54.9-5.1 54.9l17.4-5.2L465.5 236.5zM735 848.1c-11.2 0-20.6 1.7-28.3 5.1-7.7 3.4-14.3 8.1-19.8 14.1-5.5 6-9.5 12.3-12 19-3.9 10.2-4 18.6-.2 25.2 3.7 6.6 12 11.9 25 15.9 8 2.4 12.6 4.9 14 7.6 1.4 2.7 1.4 5.7.2 9.1-1.4 3.6-3.8 6.7-7.4 9.4-3.6 2.7-7.7 4-12.4 4-6.3 0-10.2-2.7-11.6-7.9-.9-3.2-.5-8 1.2-14.2l-32.4 2.4c-4.1 13.2-4.2 24-.5 32.6 3.8 8.6 14.8 12.8 33 12.8 10.4 0 19.7-1.8 27.9-5.5 8.2-3.6 15.6-9 22.1-16.1 6.5-7.1 11.3-14.8 14.5-23.2 2.7-7.1 3.8-13.6 3.1-19.3-.6-5.8-3.4-10.6-8.2-14.5-4.8-3.9-13.6-7.8-26.7-11.6-5.3-1.5-8.4-3.1-9.2-4.8-.9-1.7-1-3.5-.2-5.6 1.1-2.9 3-5.3 5.7-7.3 2.7-2 6-3 9.8-3 4.7 0 7.8 1.3 9.5 4 1.6 2.7 1.7 7 .3 12.9l32-2.3c3.8-13.6 3.3-23.5-1.5-29.7C758 851.2 748.7 848.1 735 848.1z" class="st0"/><path d="M365.4 679.1L298.2 745.7 321 679.1 274.3 679.1 232.2 802 166.1 802 175.1 775.6 233.9 775.6 246.2 739.8 187.3 739.8 195.4 716.3 252.8 716.3 265.6 679.1 171.5 679.1 159.5 679.1 57.8 679.1 44.5 717.8 77.9 717.8 36 840.5 82.9 840.5 124.9 717.8 146.2 717.8 104.3 840.5 219.1 840.5 225.8 840.5 265.8 840.5 278.6 803.2 303.3 779.8 310.4 840.5 364.6 840.5 349 738 409.8 679.1zM545.5 230.6c-1.3 1.9-.7 4.5 1.2 5.7 1.9 1.2 4.5.7 5.7-1.2 8.2-12.4 13.3-26.7 14.7-41.6 1.4-14.3-.6-29.2-6.4-43.5-.9-2.1-3.3-3.1-5.4-2.2-2.1.9-3.1 3.3-2.2 5.4 5.3 13 7.1 26.5 5.8 39.5C557.6 206.3 553 219.3 545.5 230.6zM548.9 252.4c-1.5 1.7-1.5 4.3.2 5.8 1.7 1.5 4.3 1.5 5.8-.2 7.5-8.1 13.8-17.5 18.6-27.7 4.6-9.9 7.8-20.7 9.2-32.2.3-2.3-1.3-4.3-3.6-4.6-2.3-.3-4.3 1.3-4.6 3.6-1.3 10.6-4.2 20.5-8.5 29.7C561.7 236.2 555.9 244.9 548.9 252.4z" class="st0"/><path d="M407.4 197.4c6.6 38.4 43 64.1 81.4 57.6 38.4-6.6 64.1-43 57.6-81.4-6.6-38.4-43-64.1-81.4-57.6C426.6 122.6 400.8 159 407.4 197.4zM466.8 126.8c32.4-5.6 63.2 16.2 68.8 48.6 5.6 32.4-16.2 63.2-48.6 68.8-32.4 5.6-63.2-16.2-68.8-48.6C412.6 163.1 434.4 132.3 466.8 126.8zM357 886.4c1.3-8.7 1-15.9-.8-21.6-1.8-5.7-5.3-9.9-10.3-12.6-5-2.7-13.7-4.1-26-4.1-12.7 0-23.7 2.2-32.9 6.5-11.8 5.7-22.3 14-31.4 24.9-9.2 10.9-16.5 23.7-22.2 38.5-5.3 14-7.8 26.5-7.3 37.3.4 10.8 3.8 19 10 24.4 20.7 18.3 77.4 12.4 94.4-19.7l19.6-51.5 0 0h-42.6l-9.7 28h11.7l-.2.2c-8.4 22-40.3 30.3-46.4 12.1-2.1-6.3-.4-16.7 5.1-31.3 5.2-13.8 11.3-23.9 18.2-30.2 6.9-6.4 14.1-9.5 21.6-9.5 5.1 0 8.7 1.4 10.9 4.1 2.2 2.7 3 6.7 2.4 11.8L357 886.4zM474.5 886.4c1.3-8.7 1-15.9-.8-21.6-1.8-5.7-5.3-9.9-10.4-12.6-5-2.7-13.7-4.1-26-4.1-12.7 0-23.7 2.2-32.9 6.5-11.8 5.7-22.3 14-31.4 24.9-9.2 10.9-16.5 23.7-22.2 38.5-5.3 14-7.8 26.5-7.3 37.3.4 10.8 3.8 19 10 24.4 20.7 18.3 77.4 12.4 94.4-19.7l19.6-51.5-.6.4.5-.4H425l-9.7 28H427l-.2.2c-8.4 22-40.3 30.3-46.4 12.1-2.1-6.3-.4-16.7 5.1-31.3 5.2-13.8 11.3-23.9 18.2-30.2 6.9-6.4 14.1-9.5 21.6-9.5 5.1 0 8.7 1.4 10.9 4.1 2.2 2.7 3 6.7 2.4 11.8L474.5 886.4zM677.6 865.4c-1.1-5.8-4-9.8-8.6-11.9-4.6-2.2-12-3.2-22.2-3.2h-55.2L552 955.1h-65.3l10.1-26.6h53.9l10.5-27.6h-53.9l8.2-21.6h52.8l11-28.9h-87.3l-51.5 135.3h130.8l0 0h2.3l21.4-57.6h2.9c3 0 5.4 1 7 3 1.2 1.5 1.9 4.9 2.2 10.1l2.5 39.9h37.5l-1.7-37.8c0-1.9-.6-4.6-1.5-8.1-1-3.5-1.9-5.8-2.7-6.9-1.2-1.6-3.5-3.2-6.8-4.8 5.4-1.4 10-3.1 13.6-5.2 5.7-3.3 10.8-7.5 15.4-12.8 4.6-5.3 8.2-11.5 11-18.8C677.6 878.3 678.7 871.2 677.6 865.4zM640 889.9c-1.1 2.9-2.7 5.4-5 7.6-2.2 2.2-4.5 3.6-6.9 4.1-4.8 1.2-8 1.8-9.5 1.8h-14l10.1-26.6h14.6c6.1 0 9.8 1.1 11.1 3.4C641.7 882.4 641.6 885.7 640 889.9z" class="st0"/></g></svg>
