<?xml version="1.0" encoding="UTF-8" standalone="no"?>
<svg
   role="img"
   viewBox="19.04 10.66 107.42 140.92"
   version="1.1"
   id="svg1"
   sodipodi:docname="bootc-stacked-black.svg"
   inkscape:version="1.4.2 (ebf0e940d0, 2025-05-08)"
   xmlns:inkscape="http://www.inkscape.org/namespaces/inkscape"
   xmlns:sodipodi="http://sodipodi.sourceforge.net/DTD/sodipodi-0.dtd"
   xmlns="http://www.w3.org/2000/svg"
   xmlns:svg="http://www.w3.org/2000/svg">
  <defs
     id="defs1" />
  <sodipodi:namedview
     id="namedview1"
     pagecolor="#ffffff"
     bordercolor="#000000"
     borderopacity="0.25"
     inkscape:showpageshadow="2"
     inkscape:pageopacity="0.0"
     inkscape:pagecheckerboard="0"
     inkscape:deskcolor="#d1d1d1"
     inkscape:zoom="8.2316209"
     inkscape:cx="53.695379"
     inkscape:cy="70.459999"
     inkscape:window-width="2560"
     inkscape:window-height="1371"
     inkscape:window-x="0"
     inkscape:window-y="0"
     inkscape:window-maximized="1"
     inkscape:current-layer="svg1" />
  <g
     id="g22"
     transform="translate(-224.857 -440.846)">
    <path
       id="path9-1-30-5-5-2"
       fill="#000"
       fill-opacity="1"
       stroke="#fff"
       stroke-dasharray="none"
       stroke-linecap="butt"
       stroke-linejoin="bevel"
       stroke-opacity="1"
       stroke-width="1.849"
       d="m 252.39796,497.34242 c 0.43711,-0.67463 4.6996,-7.95662 4.6996,-7.95662 l 82.00966,-0.17153 5.13323,8.7686 z" />
    <path
       id="path4123-7-30-6-6-2"
       fill="#000"
       fill-opacity="1"
       stroke="#fff"
       stroke-dasharray="none"
       stroke-linecap="round"
       stroke-linejoin="round"
       stroke-opacity="1"
       stroke-width="1.249"
       d="m 279.04874,504.18952 c 8.55084,-0.34018 15.81865,-5.30965 17.64142,-8.70507 4.10909,-7.65431 6.03628,-22.25087 10.99915,-29.89052 3.8505,-5.92733 8.13291,-9.40142 15.7727,-10.44184 9.12283,-1.24239 17.67791,1.86514 21.80841,10.70143 2.42446,5.1866 3.51683,10.22107 2.36198,19.64461 -0.50667,4.13448 -2.60391,14.4518 -9.34962,20.82226 -6.74571,6.37046 -22.96977,16.31343 -34.23023,17.76339 z" />
    <g
       id="g184942-8-7-0-7-0-6-3"
       fill-opacity="1"
       stroke="#fff"
       stroke-dasharray="none"
       stroke-dashoffset="0"
       stroke-linecap="square"
       stroke-linejoin="miter"
       stroke-miterlimit="4"
       stroke-opacity="1"
       stroke-width=".852"
       transform="matrix(-1.28072 -.45061 -.45038 1.28006 1791.073 1158.48)">
      <ellipse
         id="ellipse184938-9-7-5-0-9-1-1"
         cx="1193.299"
         cy="-87.545"
         fill="#000"
         stroke="#fff"
         rx="1.87"
         ry="1.943"
         transform="rotate(-1.455)" />
      <ellipse
         id="ellipse184940-7-6-9-9-3-5-8"
         cx="-1192.73"
         cy="-88.092"
         fill="#fff"
         stroke="none"
         rx=".919"
         ry=".968"
         transform="matrix(-.99968 .02539 .02538 .99968 0 0)" />
    </g>
    <g
       id="g184942-8-7-0-7-0-6"
       fill-opacity="1"
       stroke="#fff"
       stroke-dasharray="none"
       stroke-dashoffset="0"
       stroke-linecap="square"
       stroke-linejoin="miter"
       stroke-miterlimit="4"
       stroke-opacity="1"
       stroke-width=".852"
       transform="matrix(1.28072 -.45061 .45038 1.28006 -1133.394 1158.74)">
      <ellipse
         id="ellipse184938-9-7-5-0-9-1"
         cx="1193.299"
         cy="-87.545"
         fill="#000"
         stroke="#fff"
         rx="1.87"
         ry="1.943"
         transform="rotate(-1.455)" />
      <ellipse
         id="ellipse184940-7-6-9-9-3-5"
         cx="-1192.73"
         cy="-88.092"
         fill="#fff"
         stroke="none"
         rx=".919"
         ry=".968"
         transform="matrix(-.99968 .02539 .02538 .99968 0 0)" />
    </g>
    <ellipse
       id="ellipse184896-9-3-6-6-6-9"
       cx="312.945"
       cy="484.062"
       fill="#fff"
       fill-opacity="1"
       stroke="#fff"
       stroke-dasharray="none"
       stroke-dashoffset="6"
       stroke-linecap="square"
       stroke-linejoin="miter"
       stroke-miterlimit="4"
       stroke-opacity="1"
       stroke-width="1.232"
       rx="5.549"
       ry="4.903"
       transform="matrix(.99957 -.02944 .03446 .9994 0 0)" />
    <g
       id="g184906-7-6-9-0-2-4"
       stroke="#000"
       stroke-dasharray="none"
       stroke-miterlimit="4"
       stroke-opacity="1"
       stroke-width=".82"
       transform="matrix(1.00329 -.00095 .00092 .99943 -635.978 481.331)">
      <g
         id="g184904-8-5-22-6-61-9"
         fill="none"
         fill-rule="evenodd"
         stroke="#000"
         stroke-dasharray="none"
         stroke-linecap="butt"
         stroke-linejoin="miter"
         stroke-miterlimit="4"
         stroke-opacity="1"
         stroke-width=".82"
         transform="translate(0 -.53)">
        <path
           id="path184900-4-6-47-2-8-0"
           d="m 962.30591,-5.7829972 0.0993,1.9843749 c 0,0 1.58751,1.4221355 2.51355,-0.033073 0,0 -0.0993,-0.8268214 -0.16541,-1.0914047" />
        <path
           id="path184902-5-3-75-6-7-9"
           d="m 962.28751,-5.7829972 -0.0993,1.9843749 c 0,0 -1.58751,1.4221355 -2.51355,-0.033073 0,0 0.0993,-0.8268214 0.16541,-1.0914047" />
      </g>
    </g>
    <path
       id="path184908-0-9-4-1-92-1"
       fill="#000"
       fill-opacity="1"
       stroke="#000"
       stroke-dasharray="none"
       stroke-dashoffset="0"
       stroke-linecap="square"
       stroke-linejoin="miter"
       stroke-miterlimit="4"
       stroke-opacity="1"
       stroke-width=".821"
       d="m 331.32236,473.11819 c -0.14515,-0.37343 -0.14515,-1.12058 -0.57863,-1.12018 -0.43319,0.002 -0.83421,-0.27942 -1.26031,-0.27895 -0.4261,0.002 -0.82678,0.28115 -1.26026,0.2816 -0.4329,0.002 -0.43274,0.74765 -0.57643,1.1214 -0.14745,0.37389 1.83891,1.5859 1.83891,1.5859 0,0 1.98158,-1.21613 1.83672,-1.58977 z" />
    <path
       id="path184910-6-2-48-8-8-0-7"
       fill="none"
       fill-opacity="1"
       stroke="#fff"
       stroke-dasharray="none"
       stroke-dashoffset="0"
       stroke-linecap="square"
       stroke-linejoin="miter"
       stroke-miterlimit="4"
       stroke-opacity="1"
       stroke-width=".932"
       d="m 316.21931,464.11594 c 0.0862,-0.70872 0.50356,-1.37011 1.10624,-1.75285 0.56836,-0.36094 1.29087,-0.46937 1.94015,-0.29115" />
    <path
       id="path184910-6-2-4-1-1-7-2-7"
       fill="none"
       fill-opacity="1"
       stroke="#fff"
       stroke-dasharray="none"
       stroke-dashoffset="0"
       stroke-linecap="square"
       stroke-linejoin="miter"
       stroke-miterlimit="4"
       stroke-opacity="1"
       stroke-width=".932"
       d="m 341.68171,464.65402 c -0.11656,-0.70437 -0.56215,-1.34714 -1.18074,-1.70355 -0.58339,-0.33612 -1.30992,-0.41331 -1.9509,-0.20728" />
    <g
       id="g3934-0-3-9-0-5-1"
       stroke="#fff"
       stroke-opacity="1"
       transform="rotate(-3.23 7063.049 -4943.946) scale(1.45672)">
      <g
         id="g184926-9-7-9-36-2-9-1"
         stroke="#fff"
         stroke-dasharray="none"
         stroke-miterlimit="4"
         stroke-opacity="1"
         stroke-width=".655"
         transform="matrix(-.80864 -.0407 -.04101 .80568 801.15 104.048)">
        <g
           id="g184924-2-8-0-80-3-2-5"
           fill="none"
           fill-rule="evenodd"
           stroke="#fff"
           stroke-dasharray="none"
           stroke-linecap="butt"
           stroke-linejoin="miter"
           stroke-miterlimit="4"
           stroke-opacity="1"
           stroke-width=".655">
          <path
             id="path184918-0-6-8-2-7-2-9"
             d="m 956.32834,-6.2874931 c -2.17461,0.00852 -3.90258,0.727992 -5.25392,1.62519" />
          <path
             id="path184920-2-8-8-10-5-8-7"
             d="m 957.00529,-5.3889116 c -2.45021,0.3102076 -3.99116,1.6666651 -5.21618,2.999397" />
          <path
             id="path184922-3-8-5-5-9-9-7"
             d="m 957.14608,-4.4502461 c -2.0377,0.8062397 -3.03766,2.4684328 -3.7999,4.05763317" />
        </g>
      </g>
    </g>
    <g
       id="g3934-4-0-1-2-7-6"
       stroke="#fff"
       stroke-opacity="1"
       transform="matrix(-1.45523 .06598 .06598 1.45523 360.364 386.21)">
      <g
         id="g184926-9-3-9-1-2-3-7"
         stroke="#fff"
         stroke-dasharray="none"
         stroke-miterlimit="4"
         stroke-opacity="1"
         stroke-width=".655"
         transform="matrix(-.80864 -.0407 -.04101 .80568 801.15 104.048)">
        <g
           id="g184924-2-1-6-0-8-6-3"
           fill="none"
           fill-rule="evenodd"
           stroke="#fff"
           stroke-dasharray="none"
           stroke-linecap="butt"
           stroke-linejoin="miter"
           stroke-miterlimit="4"
           stroke-opacity="1"
           stroke-width=".655">
          <path
             id="path184918-0-4-3-8-9-1-6"
             d="m 956.32834,-6.2874931 c -2.17461,0.00852 -3.90258,0.727992 -5.25392,1.62519" />
          <path
             id="path184920-2-9-8-50-7-2-5"
             d="m 957.00529,-5.3889116 c -2.45021,0.3102076 -3.99116,1.6666651 -5.21618,2.999397" />
          <path
             id="path184922-3-2-5-6-3-9-6"
             d="m 957.14608,-4.4502461 c -2.0377,0.8062397 -3.03766,2.4684328 -3.7999,4.05763317" />
        </g>
      </g>
    </g>
    <path
       id="path1396-61-4-6-3-3"
       fill="#000"
       fill-opacity="1"
       stroke="#fff"
       stroke-dasharray="none"
       stroke-linecap="square"
       stroke-linejoin="miter"
       stroke-opacity="1"
       stroke-width="1.249"
       d="m 280.76971,502.71399 c -0.63408,-0.013 -6.71528,-6.29098 -7.54648,-8.05225 -1.44444,-3.0607 -3.95527,-7.54126 -4.1481,-10.02897 -0.19558,-2.52316 -0.88667,-7.67045 -2.24603,-9.4043 -1.29338,-1.64969 -5.76453,-1.83087 -7.29705,0.39904 -1.53259,2.22991 -0.13175,7.07277 -0.13175,7.07277 0,0 -7.60976,-1.96017 -9.99155,-0.21297 -2.38182,1.74719 -2.99546,4.8238 -0.86045,6.44098 4.55125,2.93085 9.60893,0.62289 12.03711,2.14185 2.20957,1.3822 2.03196,9.66781 3.43081,12.03999" />
    <g
       id="shape-e0c7bf36-69e6-80bd-8003-ed1bfda97bd7-98-5-9-4-9"
       fill="#000"
       fill-opacity="1"
       transform="rotate(-17.993 1561.95 -401.497) scale(.26623)">
      <g
         id="fills-e0c7bf36-69e6-80bd-8003-ed1bfda97bd7-4-8-3-7-4"
         fill="#000"
         fill-opacity="1"
         class="fills">
        <path
           id="path12-8-6-1-8-8"
           fill="#000"
           fill-opacity="1"
           stroke="#8708a8"
           stroke-opacity="1"
           d="M 145.477,186.202 474.547,292.908 412.092,485.514 83.021,378.808 Z"
           color="#000" />
      </g>
      <g
         id="strokes-e0c7bf36-69e6-80bd-8003-ed1bfda97bd7-1-2-9-4-1"
         fill="#000"
         fill-opacity="1"
         class="strokes">
        <g
           id="g13-0-8-4-5-2"
           fill="#000"
           fill-opacity="1"
           class="stroke-shape">
          <path
             id="path13-3-4-7-0-9"
             fill="#000"
             fill-opacity="1"
             stroke-width=".7"
             d="M 145.477,186.202 474.547,292.908 412.092,485.514 83.021,378.808 Z"
             color="#000" />
        </g>
      </g>
    </g>
    <g
       id="shape-e0c7bf36-69e6-80bd-8003-ed1bfda97bd8-0-7-8-3-3"
       fill="#fff"
       fill-opacity="1"
       stroke="none"
       transform="rotate(-17.993 1561.95 -401.497) scale(.26623)">
      <g
         id="fills-e0c7bf36-69e6-80bd-8003-ed1bfda97bd8-44-2-4-6-9"
         fill="#fff"
         fill-opacity="1"
         stroke="none"
         class="fills">
        <path
           id="path14-4-4-5-1-0"
           fill="#fff"
           fill-opacity="1"
           stroke="none"
           stroke-opacity="1"
           d="m 143.33,181.991 -1.032,3.182 -63.485,195.781 335.418,108.764 64.516,-198.962 z m 4.284,8.421 L 470.337,295.06 409.946,481.298 87.224,376.65 Z"
           color="#000" />
      </g>
    </g>
    <g
       id="shape-e0c7bf36-69e6-80bd-8003-ed1bfda97bc9-47-06-0-06-8"
       fill="#fff"
       fill-opacity="1"
       transform="rotate(-17.993 1561.95 -401.497) scale(.26623)">
      <g
         id="fills-e0c7bf36-69e6-80bd-8003-ed1bfda97bc9-6-2-3-3-8"
         fill="#fff"
         fill-opacity="1"
         class="fills">
        <path
           id="path45-31-9-6-2-5"
           fill="#fff"
           fill-opacity="1"
           stroke-linejoin="round"
           d="m 212.298,228.18 c -3.557,-1.156 -7.381,0.795 -8.545,4.359 l -46.681,143.957 c -0.557,1.715 -0.411,3.582 0.406,5.188 0.817,1.606 2.238,2.82 3.95,3.374 3.561,1.146 7.38,-0.815 8.535,-4.382 l 46.68,-143.957 c 1.147,-3.563 -0.796,-7.38 -4.345,-8.539 z"
           color="#000" />
      </g>
    </g>
    <g
       id="shape-e0c7bf36-69e6-80bd-8003-ed1bfda97bca-7-9-1-0-0"
       fill="#fff"
       fill-opacity="1"
       transform="rotate(-17.993 1561.95 -401.497) scale(.26623)">
      <g
         id="fills-e0c7bf36-69e6-80bd-8003-ed1bfda97bca-5-0-0-6-9"
         fill="#fff"
         fill-opacity="1"
         class="fills">
        <path
           id="path46-9-8-6-1-6"
           fill="#fff"
           fill-opacity="1"
           stroke-linejoin="round"
           d="m 160.045,211.236 c -3.554,-1.144 -7.366,0.807 -8.528,4.365 l -46.68,143.957 c -1.159,3.566 0.783,7.394 4.338,8.556 l 52.253,16.944 c 3.561,1.146 7.38,-0.815 8.535,-4.382 1.158,-3.566 -0.783,-7.395 -4.339,-8.557 l -45.799,-14.851 44.582,-137.487 c 1.149,-3.57 -0.803,-7.393 -4.362,-8.545 z"
           color="#000" />
      </g>
    </g>
    <g
       id="shape-e0c7bf36-69e6-80bd-8003-ed1bfda97bcb-62-1-3-5-3"
       fill="#fff"
       fill-opacity="1"
       transform="rotate(-17.993 1561.95 -401.497) scale(.26623)">
      <g
         id="fills-e0c7bf36-69e6-80bd-8003-ed1bfda97bcb-1-3-2-5-8"
         fill="#fff"
         fill-opacity="1"
         class="fills">
        <path
           id="path47-7-1-0-4-5"
           fill="#fff"
           fill-opacity="1"
           stroke-linejoin="round"
           d="m 160.045,211.236 c -3.554,-1.144 -7.366,0.807 -8.528,4.365 -1.159,3.566 0.782,7.395 4.339,8.556 l 52.253,16.944 c 3.561,1.146 7.379,-0.815 8.534,-4.382 1.147,-3.563 -0.796,-7.38 -4.345,-8.539 z"
           color="#000" />
      </g>
    </g>
    <g
       id="shape-e0c7bf36-69e6-80bd-8003-ed1bfda97bcc-8-1-6-7-6"
       fill="#000"
       transform="rotate(-17.993 1561.95 -401.497) scale(.26623)">
      <g
         id="fills-e0c7bf36-69e6-80bd-8003-ed1bfda97bcc-5-0-1-65-1"
         class="fills">
        <path
           id="path48-7-34-5-6-1"
           fill="#fff"
           fill-opacity="1"
           stroke-linejoin="round"
           d="m 290.67,253.594 c -3.558,-1.157 -7.382,0.793 -8.546,4.358 l -46.681,143.957 c -0.557,1.716 -0.411,3.582 0.406,5.188 0.817,1.606 2.239,2.82 3.951,3.374 3.561,1.146 7.38,-0.815 8.534,-4.382 l 46.68,-143.957 c 1.147,-3.562 -0.795,-7.379 -4.344,-8.538 z"
           color="#000" />
      </g>
    </g>
    <g
       id="shape-e0c7bf36-69e6-80bd-8003-ed1bfda97bcd-41-0-5-9-5"
       fill="#fff"
       fill-opacity="1"
       transform="rotate(-17.993 1561.95 -401.497) scale(.26623)">
      <g
         id="fills-e0c7bf36-69e6-80bd-8003-ed1bfda97bcd-8-3-4-3-9"
         fill="#fff"
         fill-opacity="1"
         class="fills">
        <path
           id="path49-5-9-7-7-8"
           fill="#fff"
           fill-opacity="1"
           stroke-linejoin="round"
           d="m 238.416,236.65 c -3.557,-1.156 -7.381,0.794 -8.545,4.358 l -46.68,143.957 c -0.558,1.716 -0.412,3.582 0.405,5.188 0.817,1.606 2.238,2.82 3.951,3.374 l 52.253,16.944 c 3.561,1.146 7.38,-0.815 8.534,-4.382 1.158,-3.566 -0.783,-7.395 -4.338,-8.556 l -45.8,-14.852 44.582,-137.487 c 1.149,-3.569 -0.802,-7.393 -4.362,-8.544 z"
           color="#000" />
      </g>
    </g>
    <g
       id="shape-e0c7bf36-69e6-80bd-8003-ed1bfda97bce-9-1-6-4-4"
       fill="#fff"
       fill-opacity="1"
       transform="rotate(-17.993 1561.95 -401.497) scale(.26623)">
      <g
         id="fills-e0c7bf36-69e6-80bd-8003-ed1bfda97bce-7-9-5-5-8"
         fill="#fff"
         fill-opacity="1"
         class="fills">
        <path
           id="path50-5-69-6-2-1"
           fill="#fff"
           fill-opacity="1"
           stroke-linejoin="round"
           d="m 238.416,236.65 c -3.557,-1.156 -7.381,0.794 -8.545,4.358 -0.558,1.716 -0.412,3.582 0.405,5.188 0.817,1.606 2.238,2.82 3.951,3.374 l 52.254,16.944 c 3.56,1.146 7.379,-0.815 8.533,-4.382 1.147,-3.562 -0.795,-7.379 -4.344,-8.538 z"
           color="#000" />
      </g>
    </g>
    <g
       id="shape-e0c7bf36-69e6-80bd-8003-ed1bfda97bcf-3-3-9-5-0"
       fill="#fff"
       fill-opacity="1"
       transform="rotate(-17.993 1561.95 -401.497) scale(.26623)">
      <g
         id="fills-e0c7bf36-69e6-80bd-8003-ed1bfda97bcf-8-3-3-4-3"
         fill="#fff"
         fill-opacity="1"
         class="fills">
        <path
           id="path51-8-80-7-7-0"
           fill="#fff"
           fill-opacity="1"
           stroke-linejoin="round"
           d="m 369.023,279.001 c -3.554,-1.145 -7.366,0.806 -8.528,4.364 l -46.68,143.957 c -1.159,3.566 0.782,7.395 4.338,8.556 1.712,0.557 3.575,0.408 5.18,-0.413 1.604,-0.821 2.817,-2.246 3.373,-3.963 l 46.68,-143.957 c 1.149,-3.569 -0.803,-7.393 -4.363,-8.544 z"
           color="#000" />
      </g>
    </g>
    <g
       id="fills-e0c7bf36-69e6-80bd-8003-ed1bfda97bd0-1-6-5-43-4"
       fill="#fff"
       fill-opacity="1"
       class="fills"
       transform="rotate(-17.993 1561.95 -401.497) scale(.26623)">
      <path
         id="path52-8-6-2-0-4"
         fill="#fff"
         fill-opacity="1"
         stroke-linejoin="round"
         d="m 316.788,262.063 c -3.558,-1.156 -7.382,0.794 -8.546,4.358 l -46.68,143.957 c -0.558,1.716 -0.412,3.582 0.405,5.188 0.817,1.606 2.238,2.82 3.951,3.374 l 52.235,16.938 c 1.712,0.557 3.575,0.408 5.18,-0.413 1.604,-0.821 2.817,-2.246 3.373,-3.963 0.557,-1.716 0.411,-3.582 -0.406,-5.188 -0.817,-1.606 -2.239,-2.82 -3.951,-3.374 L 276.568,408.095 321.15,270.607 c 1.15,-3.57 -0.803,-7.393 -4.362,-8.544 z"
         color="#000" />
    </g>
    <g
       id="shape-e0c7bf36-69e6-80bd-8003-ed1bfda97bd1-9-4-5-7-4"
       fill="#fff"
       fill-opacity="1"
       transform="rotate(-17.993 1561.95 -401.497) scale(.26623)">
      <g
         id="fills-e0c7bf36-69e6-80bd-8003-ed1bfda97bd1-6-0-4-8-4"
         fill="#fff"
         fill-opacity="1"
         class="fills">
        <path
           id="path53-43-0-7-6-7"
           fill="#fff"
           fill-opacity="1"
           stroke-linejoin="round"
           d="m 316.788,262.063 c -3.558,-1.156 -7.382,0.794 -8.546,4.358 -0.558,1.716 -0.412,3.582 0.405,5.188 0.817,1.606 2.239,2.82 3.951,3.374 l 52.236,16.938 c 1.711,0.557 3.575,0.408 5.179,-0.413 1.604,-0.821 2.818,-2.246 3.373,-3.963 1.149,-3.569 -0.803,-7.393 -4.363,-8.544 z"
           color="#000" />
      </g>
    </g>
    <g
       id="shape-e0c7bf36-69e6-80bd-8003-ed1bfda97bd2-3-4-4-8-6"
       fill="#fff"
       fill-opacity="1"
       transform="rotate(-17.993 1561.95 -401.497) scale(.26623)">
      <g
         id="fills-e0c7bf36-69e6-80bd-8003-ed1bfda97bd2-3-6-4-8-3"
         fill="#fff"
         fill-opacity="1"
         class="fills">
        <path
           id="path54-8-26-3-4-1"
           fill="#fff"
           fill-opacity="1"
           stroke-linejoin="round"
           d="m 447.394,304.414 c -3.557,-1.156 -7.381,0.794 -8.545,4.358 l -46.681,143.957 c -0.557,1.716 -0.411,3.582 0.406,5.188 0.817,1.606 2.238,2.82 3.95,3.374 1.712,0.557 3.576,0.408 5.18,-0.413 1.604,-0.821 2.817,-2.246 3.373,-3.963 l 46.68,-143.957 c 1.149,-3.569 -0.803,-7.393 -4.363,-8.544 z"
           color="#000" />
      </g>
    </g>
    <g
       id="shape-e0c7bf36-69e6-80bd-8003-ed1bfda97bd3-6-75-0-3-7"
       fill="#fff"
       fill-opacity="1"
       transform="rotate(-17.993 1561.95 -401.497) scale(.26623)">
      <g
         id="fills-e0c7bf36-69e6-80bd-8003-ed1bfda97bd3-0-6-7-1-5"
         fill="#fff"
         fill-opacity="1"
         class="fills">
        <path
           id="path55-4-9-8-4-9"
           fill="#fff"
           fill-opacity="1"
           stroke-linejoin="round"
           d="m 395.159,287.476 c -3.558,-1.156 -7.382,0.794 -8.546,4.358 l -46.68,143.957 c -0.558,1.716 -0.412,3.582 0.405,5.188 0.817,1.606 2.239,2.82 3.951,3.374 l 52.235,16.938 c 1.712,0.557 3.576,0.408 5.18,-0.413 1.604,-0.821 2.817,-2.246 3.373,-3.963 0.557,-1.716 0.412,-3.582 -0.406,-5.188 -0.817,-1.606 -2.239,-2.82 -3.951,-3.374 L 354.939,433.508 399.521,296.02 c 1.15,-3.569 -0.803,-7.393 -4.362,-8.544 z"
           color="#000" />
      </g>
    </g>
    <g
       id="shape-e0c7bf36-69e6-80bd-8003-ed1bfda97bd4-8-8-6-9-6"
       fill="#fff"
       fill-opacity="1"
       transform="rotate(-17.993 1561.95 -401.497) scale(.26623)">
      <g
         id="fills-e0c7bf36-69e6-80bd-8003-ed1bfda97bd4-8-7-8-20-2"
         fill="#fff"
         fill-opacity="1"
         class="fills">
        <path
           id="path56-8-2-8-6-1"
           fill="#fff"
           fill-opacity="1"
           stroke-linejoin="round"
           d="m 395.159,287.476 c -3.558,-1.156 -7.382,0.794 -8.546,4.358 -0.558,1.716 -0.412,3.582 0.405,5.188 0.817,1.606 2.239,2.82 3.951,3.374 l 52.236,16.938 c 1.711,0.557 3.575,0.408 5.179,-0.413 1.604,-0.82 2.818,-2.246 3.373,-3.963 1.149,-3.569 -0.803,-7.393 -4.363,-8.544 z"
           color="#000" />
      </g>
    </g>
    <g
       id="g11495-9-8-4-8-7"
       fill="#fff"
       fill-opacity="1"
       transform="rotate(-74.033 477.992 175.764) scale(1.29479)">
      <path
         id="path11491-7-2-3-9-8"
         fill="#000"
         fill-opacity="1"
         stroke="#fff"
         stroke-dasharray="none"
         stroke-linecap="butt"
         stroke-linejoin="round"
         stroke-opacity="1"
         stroke-width=".794"
         d="m 98.105295,75.736849 c 0,0 -6.898663,3.713006 -7.770256,5.255805 -0.910575,1.611803 -1.257276,3.325657 -0.413422,4.427228 0.843851,1.101572 1.961685,1.442466 2.611363,1.530689 0.939363,0.127561 2.357887,-0.230373 3.202721,-1.22455 0.943318,-1.11007 4.230379,-5.585777 5.215659,-6.268258" />
    </g>
    <g
       id="g11495-79-7-9-1-2-5"
       fill="#fff"
       fill-opacity="1"
       transform="scale(-1.29479 1.29479) rotate(-74.033 117.887 470.498)">
      <path
         id="path11491-2-6-9-4-6-7"
         fill="#000"
         fill-opacity="1"
         stroke="#fff"
         stroke-dasharray="none"
         stroke-linecap="butt"
         stroke-linejoin="round"
         stroke-opacity="1"
         stroke-width=".794"
         d="m 98.105295,75.736849 c 0,0 -6.898663,3.713006 -7.770256,5.255805 -0.910575,1.611803 -1.257276,3.325657 -0.413422,4.427228 0.843851,1.101572 1.961685,1.442466 2.611363,1.530689 0.939363,0.127561 2.357887,-0.230373 3.202721,-1.22455 0.943318,-1.11007 4.230379,-5.585777 5.215659,-6.268258" />
    </g>
    <circle
       id="button-outline-8-7-6-0-2-4-4"
       cx="298.553"
       cy="524.926"
       r="13.948"
       fill="none"
       fill-opacity="1"
       stroke="#fff"
       stroke-dasharray="none"
       stroke-opacity="1"
       stroke-width="2.833"
       paint-order="stroke fill markers" />
    <path
       id="button-fill-7-7-2-2-0-9-1"
       fill="#000"
       fill-opacity="1"
       stroke-width=".472"
       d="m 312.50157,524.92595 a 13.94833,13.94833 0 0 1 -13.94833,13.94833 13.94833,13.94833 0 0 1 -13.94833,-13.94833 13.94833,13.94833 0 0 1 13.94833,-13.94833 13.94833,13.94833 0 0 1 13.94833,13.94833 z" />
    <path
       id="button-0-1-6-9-7-6-50-8"
       fill="none"
       stroke="#fff"
       stroke-dasharray="none"
       stroke-linecap="round"
       stroke-linejoin="round"
       stroke-opacity="1"
       stroke-width="4.721"
       d="m 305.736,520.84524 c 2.0125,3.47995 1.23181,7.9001 -1.85152,10.48302 -3.08333,2.58291 -7.57917,2.58291 -10.66249,0 -3.08333,-2.58292 -3.86402,-7.00307 -1.85152,-10.48302"
       display="inline"
       paint-order="stroke fill markers" />
    <path
       id="button-1-7-4-1-6-8-4-5"
       fill="#000"
       fill-opacity="1"
       stroke="#fff"
       stroke-dasharray="none"
       stroke-linecap="round"
       stroke-linejoin="round"
       stroke-opacity="1"
       stroke-width="4.721"
       d="m 298.55324,515.35012 v 4.75579"
       paint-order="stroke fill markers" />
  </g>
  <g
     id="text1-9-8-9"
     fill="#fff"
     stroke-width=".901"
     transform="translate(-221.248 -382.764)">
    <path
       id="path26"
       d="m 247.92972,531.35577 v -25.21764 l 3.60252,-0.68447 v 9.2945 q 2.30561,-2.01741 5.5839,-2.01741 2.59382,0 4.68328,1.26088 2.12549,1.26088 3.35034,3.38637 1.22486,2.12548 1.22486,4.79135 0,2.66586 -1.26088,4.82737 -1.22486,2.12549 -3.35035,3.38637 -2.08946,1.26089 -4.7193,1.26089 -1.51306,0 -2.95406,-0.46833 -1.40499,-0.50435 -2.59382,-1.40498 v 1.5851 z m 8.71809,-2.84599 q 1.76524,0 3.1342,-0.82858 1.40498,-0.82858 2.23356,-2.23356 0.82858,-1.44101 0.82858,-3.24227 0,-1.80126 -0.82858,-3.24226 -0.82858,-1.44101 -2.23356,-2.26959 -1.36896,-0.82858 -3.1342,-0.82858 -1.54908,0 -2.88201,0.5764 -1.33293,0.5764 -2.23356,1.62114 v 8.28579 q 0.90063,1.00871 2.23356,1.58511 1.36896,0.5764 2.88201,0.5764 z m 21.86731,3.20625 q -2.66586,0 -4.8634,-1.26089 -2.16151,-1.26088 -3.42239,-3.42239 -1.26088,-2.16151 -1.26088,-4.82738 0,-2.66586 1.26088,-4.82737 1.26088,-2.16152 3.42239,-3.4224 2.19754,-1.2969 4.8634,-1.2969 2.70189,0 4.86341,1.2969 2.16151,1.26088 3.42239,3.4224 1.26088,2.16151 1.26088,4.82737 0,2.66587 -1.26088,4.82738 -1.26088,2.16151 -3.42239,3.42239 -2.16152,1.26089 -4.86341,1.26089 z m 0,-3.17022 q 1.69319,0 3.06215,-0.82858 1.36895,-0.86461 2.16151,-2.30561 0.79255,-1.44101 0.79255,-3.24227 0,-1.76524 -0.82858,-3.17022 -0.79255,-1.44101 -2.16151,-2.30561 -1.33293,-0.86461 -3.02612,-0.86461 -1.69318,0 -3.06214,0.86461 -1.33293,0.8646 -2.16151,2.30561 -0.79255,1.40498 -0.79255,3.17022 0,1.80126 0.79255,3.24227 0.79255,1.441 2.16151,2.30561 1.36896,0.82858 3.06214,0.82858 z m 21.68715,3.17022 q -2.66587,0 -4.8634,-1.26089 -2.16151,-1.26088 -3.4224,-3.42239 -1.26088,-2.16151 -1.26088,-4.82738 0,-2.66586 1.26088,-4.82737 1.26089,-2.16152 3.4224,-3.4224 2.19753,-1.2969 4.8634,-1.2969 2.70189,0 4.8634,1.2969 2.16151,1.26088 3.4224,3.4224 1.26088,2.16151 1.26088,4.82737 0,2.66587 -1.26088,4.82738 -1.26089,2.16151 -3.4224,3.42239 -2.16151,1.26089 -4.8634,1.26089 z m 0,-3.17022 q 1.69318,0 3.06214,-0.82858 1.36896,-0.86461 2.16151,-2.30561 0.79256,-1.44101 0.79256,-3.24227 0,-1.76524 -0.82858,-3.17022 -0.79256,-1.44101 -2.16151,-2.30561 -1.33294,-0.86461 -3.02612,-0.86461 -1.69318,0 -3.06214,0.86461 -1.33293,0.8646 -2.16151,2.30561 -0.79256,1.40498 -0.79256,3.17022 0,1.80126 0.79256,3.24227 0.79255,1.441 2.16151,2.30561 1.36896,0.82858 3.06214,0.82858 z M 319.9801,531.68 q -2.66586,0 -4.07085,-1.22486 -1.40498,-1.26088 -1.40498,-3.63854 v -10.77154 h -3.89072 v -3.02611 h 3.89072 v -4.68328 l 3.5665,-0.8646 v 5.54788 h 5.40378 v 3.02611 h -5.40378 v 9.94296 q 0,1.40498 0.61242,2.01741 0.64846,0.5764 2.08947,0.5764 0.75653,0 1.33293,-0.10807 0.61243,-0.10808 1.29691,-0.32423 v 3.02612 q -0.72051,0.25217 -1.69319,0.36025 -0.93665,0.1441 -1.72921,0.1441 z"
       style="fill:#000000;fill-opacity:1" />
    <path
       id="path27"
       d="m 334.75043,531.68 q -2.62984,0 -4.79135,-1.26088 -2.16151,-1.26088 -3.42239,-3.4224 -1.22486,-2.16151 -1.22486,-4.82737 0,-2.66587 1.26088,-4.79135 1.26088,-2.16152 3.38637,-3.4224 2.16151,-1.2969 4.79135,-1.2969 2.08946,0 3.9988,0.79255 1.94536,0.79255 3.35034,2.23356 l -2.23356,2.48574 q -1.04473,-1.15281 -2.34164,-1.72921 -1.2969,-0.5764 -2.70189,-0.5764 -1.65716,0 -3.02611,0.82858 -1.33294,0.82858 -2.12549,2.26959 -0.79255,1.441 -0.79255,3.20624 0,1.76523 0.79255,3.20624 0.79255,1.44101 2.16151,2.30561 1.36896,0.82858 3.06214,0.82858 1.40499,0 2.62984,-0.54037 1.22486,-0.57641 2.30562,-1.65716 l 2.19753,2.30561 q -1.441,1.47703 -3.35034,2.26959 -1.87331,0.79255 -3.92675,0.79255 z"
       style="fill:#000000;fill-opacity:1" />
  </g>
</svg>
