<svg id="Layer_1" data-name="Layer 1" xmlns="http://www.w3.org/2000/svg" viewBox="0 0 200 165"><defs><style>.cls-1{fill:#bc2a46;}.cls-2{fill:#fff;}</style></defs><rect class="cls-1" width="200" height="165" rx="20.29353"/><path class="cls-2" d="M100,68.62354l11.41419,5.49682,2.81909,12.35108-7.89893,9.905H93.66562l-7.8988-9.905,2.81909-12.35108L100,68.62354m0-8.479L96.6854,61.74072,85.27133,67.23755l-3.31457,1.59619-.8186,3.58667-2.8191,12.35107-.8186,3.58667,2.2937,2.87623,7.8988,9.905,2.29371,2.87622h20.02649l2.29382-2.87622,7.89892-9.905,2.29371-2.87623-.81861-3.58667-2.81909-12.35107-.8186-3.58667-3.31458-1.59619-11.41418-5.49683L100,60.14453Z"/><path class="cls-2" d="M100.00009,39.9209l31.56116,15.31982v38.2771c0,17.43067-31.56116,31.56128-31.56116,31.56128s-31.5614-14.13061-31.5614-31.56128V55.24072l31.5614-15.31982m0-16.67359-6.55017,3.1792L61.88852,41.74634,53.43869,45.8479V93.51782c0,12.31128,7.39685,23.908,21.98523,34.46778a113.62985,113.62985,0,0,0,18.44666,10.78393l6.12951,2.74439,6.12952-2.74439a113.63139,113.63139,0,0,0,18.44653-10.78393c14.58826-10.55982,21.98511-22.1565,21.98511-34.46778V45.8479l-8.44983-4.10156L106.55026,26.42651l-6.55017-3.1792Z"/></svg>