<svg id="Layer_1" data-name="Layer 1" xmlns="http://www.w3.org/2000/svg" viewBox="0 0 432 432"><defs><style>.cls-1{fill:none;}.cls-2{fill:#284e64;}.cls-3{fill:#f16827;}.cls-4{fill:#f48029;}.cls-5{fill:#f89a2e;}.cls-6{fill:#f89921;}.cls-7{fill:#f4ae5c;}.cls-8{fill:#cd4e27;}.cls-9{fill:#f16938;}</style></defs><title>vitess-icon-color</title><polygon class="cls-1" points="76.774 158.098 76.763 158.11 76.763 158.11 76.774 158.098 76.774 158.098"/><polygon class="cls-2" points="242.742 258.203 242.782 257.997 256.375 178.414 242.742 258.203"/><polygon class="cls-2" points="340.922 178.226 296.807 257.952 213.412 409.022 213.415 409.028 296.826 257.933 340.942 178.217 389.137 90.796 340.922 178.226 340.922 178.226"/><polygon class="cls-2" points="342.43 21.85 328.269 47.727 342.436 21.85 342.43 21.85"/><polygon class="cls-2" points="76.774 158.098 130.855 100.059 76.774 158.098 76.774 158.098"/><polygon class="cls-2" points="88.286 179.118 88.286 179.118 148.01 131.676 88.286 179.118"/><polygon class="cls-2" points="88.286 179.118 84.279 171.814 88.276 179.118 130.77 257.122 137.67 269.844 130.764 257.105 88.286 179.118"/><polygon class="cls-2" points="103.185 151.448 130.855 100.059 148.01 131.676 181.273 193.033 148.029 131.667 130.86 100.033 88.096 21.85 88.087 21.85 130.855 100.059 103.185 151.448"/><polygon class="cls-2" points="227.668 278.444 227.864 278.805 235.872 293.526 227.668 278.444"/><polygon class="cls-2" points="284.195 128.007 256.36 178.397 225.397 235.414 256.375 178.414 284.195 128.007"/><polygon class="cls-3" points="173.214 335.413 213.403 409.038 235.521 295.33 173.214 335.413"/><polygon class="cls-4" points="235.872 293.526 227.864 278.805 200.411 228.336 173.214 335.413 235.521 295.33 235.872 293.526"/><polygon class="cls-5" points="130.764 257.105 137.67 269.844 173.214 335.413 200.411 228.336 130.764 257.105"/><polygon class="cls-3" points="130.764 257.105 200.411 228.336 181.273 193.033 148.01 131.676 130.764 257.105"/><polygon class="cls-6" points="242.742 258.203 256.375 178.414 225.397 235.414 214.835 254.85 227.668 278.444 235.872 293.526 242.742 258.203"/><polygon class="cls-5" points="88.286 179.118 130.764 257.105 148.01 131.676 88.286 179.118"/><polygon class="cls-4" points="296.807 257.952 340.922 178.226 242.782 257.997 296.807 257.952"/><polygon class="cls-7" points="130.855 100.059 103.185 151.448 88.286 179.118 148.01 131.676 130.855 100.059"/><polygon class="cls-7" points="242.782 257.997 299.337 100.574 284.195 128.007 256.375 178.414 242.782 257.997"/><polygon class="cls-8" points="88.286 179.118 103.185 151.448 130.855 100.059 76.774 158.098 76.763 158.11 84.279 171.814 88.286 179.118 88.286 179.118"/><polygon class="cls-9" points="340.922 178.226 299.337 100.574 299.337 100.574 242.782 257.997 340.922 178.226"/><polygon class="cls-9" points="76.774 158.098 130.855 100.059 88.087 21.85 88.081 21.84 88.081 21.84 76.763 158.11 76.774 158.098"/><polygon class="cls-5" points="340.922 178.226 342.441 21.85 342.441 21.84 342.436 21.85 328.269 47.727 299.337 100.574 299.337 100.574 340.922 178.226 340.922 178.226"/><polygon class="cls-5" points="88.081 21.84 3 21.84 76.763 158.11 76.763 158.11 88.081 21.84"/><polygon class="cls-8" points="342.441 21.84 342.441 21.85 340.922 178.226 389.137 90.796 427.165 21.84 342.441 21.84"/><polygon class="cls-8" points="242.782 257.997 242.742 258.203 235.872 293.526 235.521 295.33 213.403 409.038 213.412 409.022 296.807 257.952 242.782 257.997"/></svg>