<svg width="360" height="360" viewBox="0 0 360 360" fill="none" xmlns="http://www.w3.org/2000/svg">
<path d="M152.48 220.76L151.6 220.34C151.95 220.51 152.24 220.64 152.48 220.76Z" fill="black"/>
<path d="M148.25 218.64C148.25 218.64 148.31 218.67 148.37 218.7L148.25 218.64Z" fill="black"/>
<path d="M173.07 235.54L173.06 235.55L173.07 235.54Z" fill="black"/>
<path d="M160.46 234.19C160.71 234.33 160.88 234.42 160.98 234.48L160.46 234.19Z" fill="black"/>
<path d="M250.73 68.1099C249.17 66.5499 246.64 66.5499 245.07 68.1099L232.34 80.8399C227.38 85.7999 226.92 93.5599 230.96 99.0399L234.03 103.19L230.38 106.84L213.96 123.26L235.62 144.92L252.12 128.42L255.66 124.88L259.77 127.72C265.22 131.48 272.75 130.93 277.6 126.08L290.33 113.35C291.89 111.79 291.89 109.26 290.33 107.69L250.73 68.0899V68.1099Z" fill="black"/>
<path d="M231.38 149.17L209.72 127.51L205.48 123.27L195.56 113.35C191.9 109.69 186.1 109.48 182.18 112.7L244.63 175.15C247.85 171.24 247.64 165.44 243.98 161.77L235.62 153.41L231.38 149.17Z" fill="black"/>
<path d="M180 0C80.59 0 0 80.59 0 180C0 279.41 80.59 360 180 360C279.41 360 360 279.41 360 180C360 80.59 279.41 0 180 0ZM273.41 165V259.2C273.41 269.14 265.35 277.2 255.41 277.2H99C89.06 277.2 81 269.14 81 259.2V102.8C81 92.86 89.06 84.8 99 84.8H197.7V90.8H99C92.37 90.8 87 96.17 87 102.8V259.21C87 265.84 92.37 271.21 99 271.21H255.41C262.04 271.21 267.41 265.84 267.41 259.21V159.01H273.41V165.01V165ZM208.3 229.33L129.81 150.84C125.91 146.94 125.91 140.6 129.81 136.7L132.64 133.87C134.53 131.98 137.04 130.94 139.71 130.94C142.38 130.94 144.89 131.98 146.78 133.87L225.27 212.36C229.17 216.26 229.17 222.6 225.27 226.5L222.44 229.33C220.55 231.22 218.04 232.26 215.37 232.26C212.7 232.26 210.19 231.22 208.3 229.33ZM210 242.91C210 244.57 208.66 245.91 207 245.91H206.08C204.42 245.91 203.08 244.57 203.08 242.91C203.08 241.25 204.42 239.91 206.08 239.91H207C208.66 239.91 210 241.25 210 242.91ZM105.5 245.76C103.85 245.92 102.38 244.72 102.22 243.07C102.06 241.42 103.26 239.95 104.91 239.79C104.91 239.79 104.91 239.79 104.93 239.79C104.95 239.79 104.97 239.79 105.01 239.79C105.08 239.79 105.19 239.77 105.33 239.75C105.62 239.72 106.04 239.66 106.57 239.58C107.63 239.43 109.09 239.18 110.72 238.81C114.08 238.06 117.73 236.88 120.05 235.24C122.6 233.43 125.25 230.75 127.33 228.42C128.35 227.27 129.2 226.25 129.8 225.51C130.1 225.14 130.33 224.85 130.48 224.65C130.56 224.55 130.62 224.47 130.65 224.42C130.67 224.39 130.68 224.38 130.69 224.37V224.36C131.67 223.06 133.51 222.78 134.83 223.73C136.15 224.68 136.48 226.5 135.57 227.85C135.57 227.85 135.57 227.85 135.57 227.86C135.57 227.87 135.55 227.89 135.53 227.93C135.49 227.99 135.43 228.09 135.35 228.22C135.19 228.48 134.96 228.86 134.69 229.34C134.14 230.31 133.47 231.63 132.9 233.11C132.32 234.6 131.91 236.12 131.81 237.5C131.71 238.88 131.93 239.91 132.41 240.65C132.53 240.84 132.62 240.95 132.68 241C132.77 240.98 132.94 240.93 133.22 240.78C134.44 240.13 136.12 238.48 138.05 235.94C141.8 231.01 145.44 224.19 147.18 220.76C147.49 220.12 147.75 219.6 147.93 219.23C148.02 219.04 148.1 218.9 148.15 218.8C148.18 218.75 148.2 218.71 148.21 218.68C148.21 218.67 148.22 218.66 148.23 218.65C148.98 217.19 150.76 216.61 152.23 217.34C153.7 218.07 154.31 219.83 153.61 221.31C153.61 221.31 153.61 221.33 153.6 221.34C153.59 221.37 153.57 221.41 153.54 221.46C153.49 221.56 153.42 221.71 153.33 221.89C153.15 222.26 152.88 222.8 152.55 223.46C151.03 226.62 148.42 232.42 147.34 236.91C147.07 238.02 146.92 238.95 146.88 239.69C146.88 239.87 146.87 240.03 146.88 240.17C147.03 240.13 147.21 240.07 147.42 239.99C149.16 239.32 150.84 238.02 152.31 236.5C153.73 235.03 154.82 233.5 155.44 232.56C155.61 232.25 155.78 231.98 155.9 231.79C155.97 231.68 156.03 231.59 156.08 231.52C156.1 231.49 156.12 231.46 156.14 231.44C156.14 231.43 156.15 231.42 156.16 231.41C156.16 231.41 156.16 231.41 156.16 231.4C157.09 230.11 158.87 229.77 160.21 230.63C161.55 231.48 161.99 233.24 161.21 234.62C161.21 234.62 161.21 234.63 161.2 234.64C161.2 234.66 161.18 234.68 161.16 234.71C161.13 234.77 161.08 234.85 161.02 234.95C160.92 235.12 160.77 235.36 160.6 235.63C160.39 236.03 160.17 236.5 160.02 236.98C159.86 237.5 159.82 237.9 159.85 238.17C159.87 238.38 159.93 238.49 160.05 238.61C160.2 238.76 160.65 239.11 161.79 239.37C163.1 239.67 163.97 239.4 164.65 238.96C165.23 238.58 165.77 238.01 166.26 237.29C166.2 235.58 166.86 234.13 167.39 233.25C167.75 232.64 168.14 232.15 168.43 231.81C168.58 231.64 168.71 231.5 168.81 231.4C168.86 231.35 168.9 231.31 168.94 231.27C168.96 231.25 168.97 231.24 168.98 231.23C168.98 231.23 168.99 231.22 169 231.21C169 231.21 169 231.21 171.05 233.39L169 231.2C169.95 230.31 171.36 230.13 172.5 230.76C173.64 231.39 174.24 232.68 173.99 233.96L171.04 233.39C173.007 233.77 173.99 233.96 173.99 233.96C173.99 233.96 173.99 233.96 173.99 233.97C173.99 233.98 173.99 233.99 173.99 234.01C173.99 234.04 173.98 234.08 173.97 234.12C173.95 234.21 173.92 234.33 173.89 234.48C173.82 234.78 173.71 235.2 173.55 235.69C173.38 236.24 173.13 236.92 172.83 237.65C172.83 237.65 172.83 237.65 172.84 237.66C173.46 238.08 174.6 238.61 176.6 239.07C180.61 239.99 187.41 240.51 198.61 239.91C200.26 239.82 201.68 241.09 201.76 242.75C201.85 244.4 200.58 245.82 198.92 245.9C187.53 246.5 180.07 246.02 175.24 244.91C172.95 244.38 171.02 243.65 169.53 242.66C169.05 243.13 168.51 243.58 167.91 243.97C165.89 245.28 163.37 245.87 160.45 245.21C158.56 244.78 156.96 244.02 155.78 242.84C155.54 242.6 155.33 242.34 155.13 242.08C153.58 243.45 151.71 244.76 149.56 245.58C148.11 246.13 146.53 246.47 145.01 246.14C143.27 245.76 142.08 244.61 141.46 243.2C141.26 242.74 141.14 242.26 141.04 241.78C139.49 243.56 137.8 245.14 136.05 246.07C134.78 246.75 133.17 247.24 131.43 246.88C129.63 246.5 128.29 245.32 127.35 243.85C126.25 242.1 125.85 240.19 125.81 238.37C125.07 239 124.31 239.6 123.54 240.14C120.2 242.51 115.56 243.89 112.05 244.67C110.24 245.08 108.63 245.35 107.46 245.52C106.87 245.61 106.4 245.67 106.07 245.71C105.9 245.73 105.77 245.74 105.68 245.75C105.63 245.75 105.6 245.75 105.57 245.76C105.56 245.76 105.55 245.76 105.54 245.76C105.54 245.76 105.54 245.76 105.53 245.76C105.53 245.76 105.53 245.76 105.36 244L105.53 245.76H105.5ZM294.57 117.61L281.84 130.34C274.91 137.27 264.15 138.05 256.36 132.68L239.86 149.18L244.1 153.42L248.22 157.54C254.23 163.55 254.45 173.14 248.89 179.42L252.85 183.38C256.76 187.29 256.76 193.62 252.85 197.52L245.78 204.59C241.88 208.49 235.54 208.49 231.64 204.59L153.15 126.1C149.25 122.19 149.25 115.86 153.15 111.96L160.22 104.89C164.13 100.98 170.46 100.98 174.36 104.89L177.91 108.44C184.18 102.89 193.78 103.11 199.79 109.12L205.47 114.8L209.71 119.04L226.13 102.62C220.35 94.79 221.01 83.71 228.09 76.62L240.82 63.89C244.72 59.98 251.06 59.98 254.96 63.89L294.56 103.49C298.46 107.4 298.46 113.73 294.56 117.63L294.57 117.61Z" fill="black"/>
<path d="M240.65 179.66L177.66 116.67L173.66 112.68L170.1 109.12C168.54 107.56 166 107.56 164.44 109.12L157.37 116.19C155.81 117.75 155.81 120.29 157.37 121.85L235.86 200.34C237.42 201.9 239.95 201.9 241.52 200.34L248.59 193.27C250.15 191.71 250.15 189.18 248.59 187.61L244.63 183.65L240.64 179.65L240.65 179.66Z" fill="black"/>
<path d="M133.09 226.16L132.35 225.6C132.57 225.76 132.81 225.94 133.09 226.16Z" fill="black"/>
</svg>
