<svg width="653" height="1000" viewBox="0 0 653 1000" fill="none" xmlns="http://www.w3.org/2000/svg">
<path fill-rule="evenodd" clip-rule="evenodd" d="M526.013 400.891L552.636 479.85L599.093 400.891H526.013ZM521.164 230.153V376.171H599.995L521.164 230.153ZM496.244 312.594V194.653H456.478L496.244 312.594ZM409.52 55.4235L448.134 169.92H488.652L422.888 48.112L409.52 55.411V55.4235ZM355.233 691.361H414.343L392.042 650.576L384.65 658.534C375.88 669.14 366.108 680.108 355.233 691.361ZM326.291 654.169L327.293 416.297C320.929 419.966 311.783 425.661 301.021 433.109C302.035 462.479 306.784 562.502 326.291 654.169ZM258.849 465.762C259.751 484.575 265.389 552.119 300.444 625.645C287.803 553.636 283.205 482.312 281.601 447.259C273.836 453.204 266.248 459.374 258.849 465.762ZM237.274 691.361H298.79L294.092 685.89C282.543 673.66 271.556 660.918 261.167 647.703L237.274 691.349V691.361ZM217.604 506.609C219.822 519.877 237.124 569.901 280.123 629.462C251.808 568.508 242.824 512.727 240.005 482.984C232.193 490.533 224.714 498.415 217.591 506.609H217.604ZM248.688 383.955V440.532C258.685 431.963 269.127 423.919 279.972 416.434C307.548 396.166 318.774 392 325.853 391.553H325.815V383.955H248.688ZM52.5247 400.891L102.189 485.284L136.367 400.891H52.5247ZM142.356 266.885L56.3585 376.159H142.344V266.885H142.356ZM167.288 235.214V324.581L227.765 175.23L219.684 168.627L167.276 235.214H167.288ZM569.086 500.964H619.164L631.63 513.336V703.708L619.164 716.093H32.4536L20 703.733V513.349L32.4536 500.976H82.5437L20.0501 394.786L20.9772 380.934L207.907 143.422L224.883 141.557L225.196 141.134L309.177 203.655L294.217 223.451L248.813 189.629L118.1 512.354L215.925 678.541L244.879 625.645C195.829 554.93 192.258 506.236 192.083 503.488L195.002 494.784C204.142 483.997 213.735 473.597 223.756 463.611V371.595L236.234 359.223H415.396L427.862 371.595V460.738C438.06 470.711 448.685 482.001 459.535 494.796L462.441 503.488C462.291 506.273 458.62 556.011 408.029 627.982L435.718 678.541L535.923 508.263L387.344 67.5596L346.588 89.8795L334.56 68.2186L421.873 20.3955L438.887 25.3942L631.793 382.699L631.568 394.786L569.061 500.976L569.086 500.964Z" fill="white"/>
<path fill-rule="evenodd" clip-rule="evenodd" d="M255.836 832.683L207.437 976.232H173.55L137.037 867.72L102.286 976.232H68.3984L20 832.691H53.6105L86.3403 947.523L122.559 832.691H153.268L189.193 947.523L222.225 832.691H255.827L255.836 832.683ZM401.4 900.144C401.4 905.702 401.014 910.96 400.243 915.937H294.202C295.947 928.57 300.485 938.184 307.824 944.786C315.164 951.389 324.625 954.69 336.217 954.69C345.679 954.69 353.547 953.015 359.821 949.672C366.104 946.312 370.39 941.485 372.722 935.173L398.498 945.79C387.678 967.995 366.926 979.093 336.217 979.093C313.419 979.093 295.603 972.491 282.761 959.285C269.919 946.08 263.494 927.799 263.494 904.457C263.494 880.917 269.676 862.594 282.031 849.48C294.395 836.374 311.775 829.813 334.188 829.813C355.434 829.813 371.933 836.225 383.727 849.049C395.512 861.872 401.4 878.901 401.4 900.144ZM334.188 854.216C322.981 854.216 313.956 857.468 307.094 863.979C300.241 870.482 295.939 879.955 294.202 892.397H372.428C370.885 880.336 366.783 870.963 360.115 864.269C353.455 857.567 344.807 854.216 334.188 854.216ZM498.868 829.813C505.629 829.813 510.947 830.767 514.805 832.683L509.873 860.811C505.436 858.33 499.355 857.086 491.621 857.086C485.439 857.086 479.601 858.704 474.099 861.964C468.596 865.223 464.058 870.092 460.477 876.604C456.912 883.115 455.117 890.954 455.117 900.144V976.215H424.123V832.691H450.486L453.087 858.529C461.206 839.385 476.464 829.83 498.868 829.83V829.813ZM585.205 832.683H632.144V856.796H586.078V976.232H555.067V856.804H527.832V832.691H555.067V812.029C555.067 797.48 559.505 786.191 568.396 778.154C577.279 770.108 589.743 766.093 605.773 766.093C611.56 766.093 616.87 766.715 621.701 767.96C626.533 769.204 630.299 770.879 633 772.986L627.204 795.374C622.758 792.504 617.256 791.06 610.696 791.06C593.694 791.06 585.197 798.816 585.197 814.319V832.691L585.205 832.683Z" fill="white"/>
</svg>
