<svg xmlns="http://www.w3.org/2000/svg" role="img" viewBox="-0.26 0.24 305.52 481.52"><defs><style>.cls-1{fill:#fff}.cls-2{fill:#486bb3}</style></defs><path d="M104.123 413.146h110.986v47.442H104.123z" class="cls-1"/><path d="M296.465 80.9h-.045V55.094a45.717 45.717 0 00-45.583-45.583H55.34A45.717 45.717 0 009.757 55.094V396.77h286.708zM151.506 64.3V41.24h6.532V64.3zm31.039 0V41.24h6.532V64.3zm36.877-16.462a11.02176 11.02176 0 012.017-3.836 8.63394 8.63394 0 013.222-2.411 10.8099 10.8099 0 014.363-.833 10.2699 10.2699 0 012.433.263 13.19511 13.19511 0 012.17.745V31.333l6.532-1.052v33.275q-.878.263-2.016.504-1.141.242-2.39.417-1.25.175-2.543.285-1.293.109-2.476.11a14.50451 14.50451 0 01-5.086-.834 10.20431 10.20431 0 01-3.77-2.39 10.35427 10.35427 0 01-2.346-3.77 14.36925 14.36925 0 01-.81-4.975 17.02372 17.02372 0 01.7-5.064zm-25.028-.263a11.51124 11.51124 0 012.477-3.836 10.30517 10.30517 0 013.53-2.324 11.05425 11.05425 0 014.098-.789 10.19 10.19 0 017.76 3.004q2.85 3.003 2.85 8.833 0 .57-.044 1.25t-.088 1.205H200.16a4.34 4.34 0 001.885 3.201 7.578 7.578 0 004.472 1.183 18.88842 18.88842 0 003.53-.328 13.29856 13.29856 0 002.827-.811l.877 5.305a9.02828 9.02828 0 01-1.403.525 18.294 18.294 0 01-1.951.46q-1.075.198-2.302.33a23.0146 23.0146 0 01-2.455.131 14.52511 14.52511 0 01-5.414-.92 10.53607 10.53607 0 01-3.814-2.521 9.99826 9.99826 0 01-2.236-3.793 15.01731 15.01731 0 01-.723-4.734 14.09591 14.09591 0 01.942-5.37zM183.049 31.75a4.16 4.16 0 015.48 0 3.589 3.589 0 011.162 2.827 3.587 3.587 0 01-1.162 2.828 4.16 4.16 0 01-5.48 0 3.5831 3.5831 0 01-1.162-2.828 3.585 3.585 0 011.162-2.827zm-18.874 8.263a9.836 9.836 0 012.521-7.102q2.521-2.63 7.475-2.63a12.65911 12.65911 0 013.047.307 14.74718 14.74718 0 012.039.657l-1.14 5.13a6.25327 6.25327 0 00-1.557-.438 11.34879 11.34879 0 00-1.73-.132 5.32356 5.32356 0 00-1.996.329 3.08 3.08 0 00-1.271.898 3.47729 3.47729 0 00-.658 1.36 7.05618 7.05618 0 00-.197 1.71v1.14h8.067v5.435h-8.067v17.624h-6.533zM152.01 31.75a4.158 4.158 0 015.48 0 3.587 3.587 0 011.162 2.827 3.585 3.585 0 01-1.162 2.828 4.16 4.16 0 01-5.48 0 3.583 3.583 0 01-1.161-2.828 3.584 3.584 0 011.161-2.827zm-20.188 3.748l6.533-1.052v6.795h7.847v5.437h-7.847v8.11a6.45022 6.45022 0 00.723 3.288q.723 1.228 2.915 1.227a12.46338 12.46338 0 002.17-.197 11.13644 11.13644 0 002.039-.548l.92 5.086a18.47845 18.47845 0 01-2.63.833 15.33244 15.33244 0 01-3.55.35 11.68823 11.68823 0 01-4.429-.723 6.944 6.944 0 01-2.806-2.016 7.50207 7.50207 0 01-1.468-3.135 18.47722 18.47722 0 01-.417-4.077zm-18.281 6.97a39.29136 39.29136 0 014.143-1.161 23.88384 23.88384 0 015.326-.548q.527 0 1.272.066t1.49.175q.746.11 1.491.263a7.09706 7.09706 0 011.271.373l-1.096 5.392q-.877-.219-2.06-.46a12.77642 12.77642 0 00-2.543-.241 11.8715 11.8715 0 00-1.469.11 8.63043 8.63043 0 00-1.293.24v17.624h-6.532zm-25.757 5.108a11.507 11.507 0 012.477-3.836 10.30017 10.30017 0 013.53-2.324 11.04987 11.04987 0 014.099-.789 10.19 10.19 0 017.76 3.004q2.849 3.003 2.849 8.833 0 .57-.044 1.25t-.087 1.205H93.55a4.338 4.338 0 001.885 3.201 7.577 7.577 0 004.471 1.183 18.88326 18.88326 0 003.53-.328 13.29239 13.29239 0 002.827-.811l.877 5.305a9.02765 9.02765 0 01-1.403.525 18.3095 18.3095 0 01-1.95.46q-1.076.198-2.302.33a23.01476 23.01476 0 01-2.456.131 14.52884 14.52884 0 01-5.414-.92 10.534 10.534 0 01-3.814-2.521 10.00013 10.00013 0 01-2.236-3.793 15.019 15.019 0 01-.723-4.734 14.09633 14.09633 0 01.942-5.37zm-20.956.482a11.029 11.029 0 016.072-6.466 12.298 12.298 0 014.998-.965 16.13145 16.13145 0 013.376.33 16.46985 16.46985 0 012.981.942l-1.359 5.217a16.50142 16.50142 0 00-2.017-.614 10.53628 10.53628 0 00-2.455-.263 5.175 5.175 0 00-4.318 1.798 7.4 7.4 0 00-1.425 4.733 7.662 7.662 0 001.337 4.823q1.337 1.71 4.67 1.71a15.95187 15.95187 0 002.542-.22 10.77177 10.77177 0 002.499-.701l.92 5.348a15.32127 15.32127 0 01-2.849.833 18.82851 18.82851 0 01-3.77.351 14.195 14.195 0 01-5.437-.943 10.231 10.231 0 01-3.748-2.564 9.99283 9.99283 0 01-2.148-3.836 16.26379 16.26379 0 01-.68-4.8 13.58275 13.58275 0 01.811-4.714zM17.154 389.35V84.777h270.788V389.35z" class="cls-2"/><path d="M126.418 336.541a3.73179 3.73179 0 00-1.291-1.024 4.06915 4.06915 0 00-1.915-.4 4.23919 4.23919 0 00-1.915.4 3.72006 3.72006 0 00-1.336.98 4.76429 4.76429 0 00-.846 1.47 10.26682 10.26682 0 00-.4 1.647h8.772a6.22045 6.22045 0 00-.311-1.647 3.67318 3.67318 0 00-.758-1.426zm71.061 0a3.73283 3.73283 0 00-1.292-1.024 4.06839 4.06839 0 00-1.915-.4 4.2392 4.2392 0 00-1.915.4 3.72006 3.72006 0 00-1.336.98 4.76346 4.76346 0 00-.846 1.47 10.25966 10.25966 0 00-.4 1.647h8.772a6.22126 6.22126 0 00-.311-1.647 3.67259 3.67259 0 00-.757-1.426zm-101.054-1.157a8.08473 8.08473 0 00-2.048.267 5.78835 5.78835 0 00-1.603.668v12.068q.49.09 1.247.178.757.045 1.647.045a4.768 4.768 0 004.097-1.87 8.12989 8.12989 0 001.38-4.944q0-6.412-4.72-6.412zm145.934 1.157a3.7319 3.7319 0 00-1.292-1.024 4.07 4.07 0 00-1.914-.4 4.2392 4.2392 0 00-1.915.4 3.72026 3.72026 0 00-1.336.98 4.76724 4.76724 0 00-.847 1.47 10.27321 10.27321 0 00-.4 1.647h8.773a6.22091 6.22091 0 00-.312-1.647 3.67394 3.67394 0 00-.757-1.426z" class="cls-1"/><path d="M17.154 84.777V389.35h270.788V84.777zm89.619 217.561l-45.509-56.583q-.382-.478-.715-.992a12.385 12.385 0 01-1.707-9.561l16.221-70.567a12.49 12.49 0 016.803-8.46l65.749-31.415a12.671 12.671 0 0110.914 0l65.758 31.399a12.49009 12.49009 0 016.802 8.459l16.246 70.567a12.393 12.393 0 01-2.43 10.553l-45.492 56.592a12.612 12.612 0 01-9.83 4.684l-72.98.016a12.612 12.612 0 01-9.83-4.692zm-57.605 51.348q-.713-1.157-1.648-2.538-.89-1.425-1.915-2.806a32.36577 32.36577 0 00-2.182-2.716 16.97976 16.97976 0 00-2.227-2.182v10.242h-6.635v-33.488l6.635-1.069v19.595q.98-1.07 2.004-2.227 1.069-1.158 2.049-2.271.98-1.158 1.826-2.182.89-1.024 1.514-1.782h7.881q-2.36 2.717-4.631 5.21-2.227 2.45-4.899 5.077a29.19 29.19 0 012.761 2.895q1.425 1.648 2.761 3.429t2.45 3.563q1.112 1.78 1.87 3.25zm30.698-.801a34.67443 34.67443 0 01-4.364.89 34.11024 34.11024 0 01-5.61.446 13.5029 13.5029 0 01-4.988-.802 7.65108 7.65108 0 01-3.118-2.226 8.97525 8.97525 0 01-1.647-3.474 18.56129 18.56129 0 01-.49-4.409v-13.048h6.635v12.247a9.49089 9.49089 0 00.846 4.631 3.366 3.366 0 003.162 1.425q.712 0 1.514-.044.802-.09 1.425-.179v-18.08h6.635zm27.203-5.834a10.47319 10.47319 0 01-2.36 3.874 10.7103 10.7103 0 01-3.83 2.494 14.72792 14.72792 0 01-5.166.846q-1.203 0-2.539-.133-1.291-.09-2.582-.268-1.247-.178-2.405-.4-1.158-.268-2.049-.535v-32.73l6.636-1.07v11.668a12.42872 12.42872 0 012.315-.757 11.89782 11.89782 0 012.583-.267 10.347 10.347 0 014.409.89 8.42818 8.42818 0 013.206 2.45 11.07966 11.07966 0 011.96 3.874 17.33377 17.33377 0 01.668 4.987 14.45473 14.45473 0 01-.846 5.077zm26.786-4.097q-.044.668-.089 1.202h-15.052a4.40991 4.40991 0 001.915 3.251 7.696 7.696 0 004.543 1.203 20.13088 20.13088 0 003.562-.312 14.3092 14.3092 0 002.895-.846l.89 5.388a9.16652 9.16652 0 01-1.425.535 15.57112 15.57112 0 01-2.004.445q-1.068.223-2.315.356a23.40659 23.40659 0 01-2.494.134 14.93925 14.93925 0 01-5.522-.935 11.13029 11.13029 0 01-3.874-2.539 10.77793 10.77793 0 01-2.272-3.874 15.69775 15.69775 0 01-.712-4.81 14.45384 14.45384 0 01.935-5.432 11.92536 11.92536 0 012.539-3.92 10.51945 10.51945 0 013.562-2.36 11.397 11.397 0 014.186-.801 10.3079 10.3079 0 017.882 3.073q2.895 3.028 2.895 8.95 0 .58-.045 1.292zm19.282-6.813q-.89-.223-2.093-.446a11.89531 11.89531 0 00-2.583-.267 10.47281 10.47281 0 00-1.514.134 7.5236 7.5236 0 00-1.291.222v17.902h-6.636V331.51a37.29628 37.29628 0 014.186-1.158 23.64186 23.64186 0 015.433-.578 11.32515 11.32515 0 011.292.089 13.1597 13.1597 0 011.514.178 13.50652 13.50652 0 011.514.267 6.18164 6.18164 0 011.291.356zm24.888 17.545h-6.635v-12.424a8.94515 8.94515 0 00-.846-4.542 3.451 3.451 0 00-3.162-1.336 13.75416 13.75416 0 00-1.514.089q-.802.044-1.425.133v18.08h-6.636v-22.622a34.68485 34.68485 0 014.365-.89 34.10914 34.10914 0 015.61-.446 13.14622 13.14622 0 014.944.802 7.27921 7.27921 0 013.162 2.182 8.58908 8.58908 0 011.647 3.384 18.01169 18.01169 0 01.49 4.364zm26.89-10.732q-.044.668-.089 1.202h-15.051a4.41 4.41 0 001.914 3.251 7.69689 7.69689 0 004.543 1.203 20.131 20.131 0 003.562-.312 14.30663 14.30663 0 002.895-.846l.89 5.388a9.16111 9.16111 0 01-1.424.535 15.57164 15.57164 0 01-2.004.445q-1.07.223-2.316.356a23.40692 23.40692 0 01-2.494.134 14.93867 14.93867 0 01-5.522-.935 11.131 11.131 0 01-3.874-2.539 10.778 10.778 0 01-2.271-3.874 15.696 15.696 0 01-.713-4.81 14.45444 14.45444 0 01.935-5.432 11.92568 11.92568 0 012.539-3.92 10.52042 10.52042 0 013.562-2.36 11.397 11.397 0 014.186-.801 10.308 10.308 0 017.882 3.073q2.895 3.028 2.895 8.95 0 .58-.044 1.292zm17.813 10.91a15.56465 15.56465 0 01-3.607.357 12.208 12.208 0 01-4.498-.713 7.34533 7.34533 0 01-2.85-2.048 8.02979 8.02979 0 01-1.514-3.207 19.79926 19.79926 0 01-.401-4.141v-19.683l6.635-1.069v6.902h7.972v5.522h-7.972v8.239a6.723 6.723 0 00.713 3.34q.757 1.247 2.983 1.247a13.7974 13.7974 0 002.182-.178 12.53106 12.53106 0 002.093-.58l.936 5.166a18.88231 18.88231 0 01-2.672.846zm27.068-10.91q-.045.668-.09 1.202h-15.051a4.40993 4.40993 0 001.915 3.251 7.69608 7.69608 0 004.542 1.203 20.131 20.131 0 003.562-.312 14.30827 14.30827 0 002.895-.846l.89 5.388a9.16161 9.16161 0 01-1.424.535 15.57112 15.57112 0 01-2.004.445q-1.07.223-2.316.356a23.38823 23.38823 0 01-2.494.134 14.938 14.938 0 01-5.522-.935 11.131 11.131 0 01-3.874-2.539 10.77781 10.77781 0 01-2.271-3.874 15.69569 15.69569 0 01-.713-4.81 14.45393 14.45393 0 01.936-5.432 11.92617 11.92617 0 012.538-3.92 10.51985 10.51985 0 013.562-2.36 11.39705 11.39705 0 014.186-.801 10.30794 10.30794 0 017.883 3.073q2.894 3.028 2.894 8.95 0 .58-.044 1.292zm19.192 9.574q-2.583 1.782-7.347 1.782a21.464 21.464 0 01-5.21-.535 21.15955 21.15955 0 01-2.85-.89l1.113-5.389a23.48869 23.48869 0 003.473 1.07 17.90231 17.90231 0 003.518.355 6.62354 6.62354 0 002.583-.356 1.376 1.376 0 00.757-1.38 1.643 1.643 0 00-.98-1.38 17.15067 17.15067 0 00-2.983-1.381q-1.559-.58-2.85-1.203a8.76781 8.76781 0 01-2.138-1.47 6.27118 6.27118 0 01-1.38-2.092 7.66733 7.66733 0 01-.49-2.895 6.26 6.26 0 012.449-5.21 10.65493 10.65493 0 016.724-1.915 20.40671 20.40671 0 014.097.4 17.91163 17.91163 0 013.118.802l-1.158 5.166a23.79261 23.79261 0 00-2.539-.712 13.37881 13.37881 0 00-3.028-.312q-3.117 0-3.117 1.737a1.79211 1.79211 0 00.134.712 1.667 1.667 0 00.534.624q.4.267 1.069.623.712.312 1.78.713a25.17454 25.17454 0 013.608 1.603 7.56386 7.56386 0 012.227 1.692 4.73687 4.73687 0 011.158 2.004 8.48884 8.48884 0 01.356 2.583 5.939 5.939 0 01-2.628 5.255z" class="cls-1"/><path d="M101.901 48.826a4.067 4.067 0 00-.745-1.403 3.97918 3.97918 0 00-1.272-1.009 4.14205 4.14205 0 00-1.907-.394 4.38511 4.38511 0 00-1.885.372 3.9 3.9 0 00-1.315.987 4.41816 4.41816 0 00-.811 1.425 9.30994 9.30994 0 00-.417 1.644h8.637a6.79042 6.79042 0 00-.285-1.622zm128.876 10.477q.877 0 1.622-.065.746-.066 1.228-.154v-11.88a5.69309 5.69309 0 00-1.6-.658 7.71727 7.71727 0 00-1.995-.263q-4.648 0-4.647 6.313a8 8 0 001.36 4.866 4.692 4.692 0 004.032 1.841zM208.51 48.826a4.07009 4.07009 0 00-.745-1.403 3.97531 3.97531 0 00-1.271-1.009 4.142 4.142 0 00-1.907-.394 4.387 4.387 0 00-1.885.372 3.89623 3.89623 0 00-1.315.987 4.4058 4.4058 0 00-.811 1.425 9.34165 9.34165 0 00-.417 1.644h8.637a6.79142 6.79142 0 00-.285-1.622z" class="cls-2"/><path d="M68.845 61.408a10.231 10.231 0 003.748 2.564 14.195 14.195 0 005.437.943 18.826 18.826 0 003.77-.35 15.31866 15.31866 0 002.85-.834l-.921-5.348a10.76983 10.76983 0 01-2.5.701 15.947 15.947 0 01-2.542.22q-3.332 0-4.669-1.71a7.662 7.662 0 01-1.337-4.824 7.4 7.4 0 011.425-4.734 5.175 5.175 0 014.318-1.798 10.53789 10.53789 0 012.455.263 16.50142 16.50142 0 012.017.614l1.359-5.217a16.47049 16.47049 0 00-2.981-.943 16.13233 16.13233 0 00-3.376-.329 12.298 12.298 0 00-4.998.965 11.029 11.029 0 00-6.072 6.466 13.58317 13.58317 0 00-.81 4.713 16.26323 16.26323 0 00.679 4.8 9.99293 9.99293 0 002.148 3.837zm20.956.066a10.534 10.534 0 003.814 2.52 14.52863 14.52863 0 005.414.921 23.01476 23.01476 0 002.456-.131q1.226-.132 2.301-.33a18.30481 18.30481 0 001.951-.46 9.02765 9.02765 0 001.403-.525l-.877-5.305a13.29132 13.29132 0 01-2.828.81 18.88307 18.88307 0 01-3.529.33 7.57588 7.57588 0 01-4.471-1.184 4.338 4.338 0 01-1.886-3.2h14.819q.043-.526.087-1.206.043-.68.044-1.25 0-5.83-2.85-8.833a10.19 10.19 0 00-7.76-3.003 11.05 11.05 0 00-4.098.789 10.29987 10.29987 0 00-3.53 2.323 11.50709 11.50709 0 00-2.477 3.836 14.09633 14.09633 0 00-.942 5.37 15.02 15.02 0 00.723 4.735 10.00013 10.00013 0 002.236 3.793zm4.165-12.67a4.417 4.417 0 01.81-1.425 3.89988 3.89988 0 011.316-.987 4.3861 4.3861 0 011.885-.372 4.14186 4.14186 0 011.907.394 3.979 3.979 0 011.272 1.009 4.0672 4.0672 0 01.745 1.403 6.78943 6.78943 0 01.285 1.622H93.55a9.30994 9.30994 0 01.417-1.644zm26.107-2.127a8.63054 8.63054 0 011.293-.24 11.87374 11.87374 0 011.469-.11 12.776 12.776 0 012.543.24q1.184.242 2.06.461l1.096-5.392a7.097 7.097 0 00-1.271-.373q-.746-.153-1.49-.263-.747-.109-1.491-.175-.746-.066-1.272-.066a23.88384 23.88384 0 00-5.326.548 39.29186 39.29186 0 00-4.143 1.162V64.3h6.532zm13.634 15.411a6.94382 6.94382 0 002.806 2.016 11.68763 11.68763 0 004.428.724 15.332 15.332 0 003.551-.351 18.47721 18.47721 0 002.63-.833l-.92-5.086a11.13644 11.13644 0 01-2.039.548 12.46338 12.46338 0 01-2.17.197q-2.193 0-2.915-1.227a6.45 6.45 0 01-.723-3.288v-8.11h7.847V41.24h-7.847v-6.795l-6.533 1.052v19.378a18.47783 18.47783 0 00.417 4.077 7.50217 7.50217 0 001.468 3.135zm21.043-23.653a3.995 3.995 0 002.74-1.03 3.585 3.585 0 001.162-2.828 3.587 3.587 0 00-1.162-2.827 4.158 4.158 0 00-5.48 0 3.584 3.584 0 00-1.161 2.827 3.583 3.583 0 001.161 2.828 3.994 3.994 0 002.74 1.03zm-3.244 2.806h6.532v23.06h-6.532zm19.202 5.436h8.067v-5.436h-8.067v-1.14a7.05613 7.05613 0 01.197-1.71 3.4771 3.4771 0 01.658-1.359 3.08 3.08 0 011.271-.898 5.32425 5.32425 0 011.995-.33 11.35188 11.35188 0 011.731.132 6.25421 6.25421 0 011.557.439l1.14-5.13a14.74718 14.74718 0 00-2.039-.657 12.659 12.659 0 00-3.047-.307q-4.955 0-7.475 2.63a9.83605 9.83605 0 00-2.52 7.102v24.288h6.532zm15.082-8.242a3.997 3.997 0 002.74-1.03 3.587 3.587 0 001.161-2.828 3.589 3.589 0 00-1.162-2.827 4.16 4.16 0 00-5.48 0 3.585 3.585 0 00-1.162 2.827 3.583 3.583 0 001.162 2.828 3.995 3.995 0 002.74 1.03zm-3.245 2.806h6.532v23.06h-6.532zm13.865 20.233a10.536 10.536 0 003.815 2.52 14.52467 14.52467 0 005.414.921 23.01193 23.01193 0 002.455-.131q1.227-.132 2.302-.33a18.29434 18.29434 0 001.95-.46 9.02673 9.02673 0 001.404-.525l-.877-5.305a13.297 13.297 0 01-2.828.81 18.88636 18.88636 0 01-3.529.33 7.57792 7.57792 0 01-4.472-1.184 4.33994 4.33994 0 01-1.885-3.2h14.818q.044-.526.088-1.206.043-.68.044-1.25 0-5.83-2.85-8.833a10.19 10.19 0 00-7.76-3.003 11.054 11.054 0 00-4.099.789 10.30476 10.30476 0 00-3.53 2.323 11.51092 11.51092 0 00-2.476 3.836 14.09575 14.09575 0 00-.942 5.37 15.01738 15.01738 0 00.723 4.735 9.99837 9.99837 0 002.236 3.793zm4.166-12.67a4.40638 4.40638 0 01.81-1.425 3.89617 3.89617 0 011.316-.987 4.38722 4.38722 0 011.885-.372 4.1419 4.1419 0 011.907.394 3.97516 3.97516 0 011.271 1.009 4.07049 4.07049 0 01.746 1.403 6.79142 6.79142 0 01.285 1.622h-8.637a9.3445 9.3445 0 01.417-1.644zm21.302 12.845a10.20423 10.20423 0 003.77 2.39 14.50383 14.50383 0 005.086.832q1.183 0 2.476-.11t2.543-.284q1.25-.176 2.39-.417 1.14-.24 2.017-.504V30.281l-6.533 1.052v10.434a13.19511 13.19511 0 00-2.17-.745 10.27042 10.27042 0 00-2.433-.263 10.81007 10.81007 0 00-4.363.833 8.63394 8.63394 0 00-3.222 2.411 11.02209 11.02209 0 00-2.016 3.836 17.02427 17.02427 0 00-.702 5.064 14.36888 14.36888 0 00.812 4.976 10.3538 10.3538 0 002.345 3.77zm8.154-15.366a7.71684 7.71684 0 011.995.263 5.6928 5.6928 0 011.6.658v11.88q-.483.089-1.228.154-.745.066-1.622.065a4.692 4.692 0 01-4.033-1.84 8.0001 8.0001 0 01-1.36-4.867q0-6.313 4.648-6.313z" class="cls-1"/><path d="M185.06 243.971a40.54009 40.54009 0 006.433-11.586l-20.434-3.454-.033.042-.02-.004a3.435 3.435 0 00-3.772 4.739l.007.017-.025.035 7.932 19.159a40.32517 40.32517 0 009.911-8.948zm-5.84 6.018l.032-.027zm4.767-4.672l.066-.077zm-65.683-48.114a40.5 40.5 0 00-5.73 25.56l19.755-5.701.016-.068.02-.005a3.435 3.435 0 001.348-5.904l-.014-.013.016-.084zm53.026 15.604a3.428 3.428 0 002.44 4.081l.02.005.018.085 19.853 5.718a41.24092 41.24092 0 00-5.906-25.485l-15.327 13.718.007.042-.013.013a3.39791 3.39791 0 00-1.091 1.823zm-40.225 40.036l7.848-18.965-.06-.076.009-.018a3.437 3.437 0 00-3.107-4.789h-.042a3.52925 3.52925 0 00-.633.058l-.02.004-.033-.042-20.257 3.438a40.72207 40.72207 0 0016.295 20.39zm31.112 5.457q2.00661-.453 3.961-1.103l-9.985-18.044h-.077l-.01-.018a3.467 3.467 0 00-3.021-1.808q-.063-.00048-.126.002a3.452 3.452 0 00-2.906 1.815l-.008.018h-.02l-9.959 18.01a40.768 40.768 0 0022.151 1.129zm-12.287-46.223l-3.924 4.885 1.406 6.107 5.672 2.728 5.655-2.72 1.406-6.107-3.915-4.893h-6.3zm26.563 39.984l.104-.072zm-5.72-70.183a40.60352 40.60352 0 00-12.717-3.76l1.166 20.55.017.01v.019a3.441 3.441 0 005.463 2.623l.015-.011.06.025 16.77-11.89a40.85836 40.85836 0 00-10.774-7.566zm-46.285 7.558l16.877 11.964.035-.016.016.012a3.437 3.437 0 005.455-2.632v-.02l.085-.042 1.165-20.584a41.61235 41.61235 0 00-4.153.718 40.606 40.606 0 00-19.48 10.6zm57.254 58.274l-.023.023z" class="cls-2"/><path d="M189.583 307.014a12.612 12.612 0 009.83-4.684l45.492-56.592a12.393 12.393 0 002.43-10.553l-16.246-70.567a12.49 12.49 0 00-6.802-8.46l-65.758-31.398a12.671 12.671 0 00-10.914 0l-65.75 31.415a12.49 12.49 0 00-6.802 8.46l-16.22 70.567a12.385 12.385 0 001.706 9.56q.333.514.715.993l45.509 56.583a12.612 12.612 0 009.83 4.692zm-63.178-42.781l-.005-.013.006-.012.703-1.689a51.265 51.265 0 01-22.676-28.314l-1.698.292-.011-.006q-.08726-.04956-.174-.1a3.90994 3.90994 0 00-2.069-.695 36.3016 36.3016 0 00-6.732 1.973l-.12.043c-.407.156-.791.32-1.163.48a16.60064 16.60064 0 01-2.372.875c-.2.054-.46.109-.71.162l-.309.065a.2758.2758 0 00-.032.011.33419.33419 0 01-.044.014l-.033.005-.026.004a3.983 3.983 0 11-1.764-7.735l.028-.007.031-.01.015-.003.02-.005.31-.075c.26-.063.528-.129.741-.169a16.07266 16.07266 0 012.492-.233c.415-.017.844-.033 1.287-.07l.094-.01a36.41948 36.41948 0 006.954-1.15 4.636 4.636 0 001.515-1.487l.16-.208.005-.008.011-.003 1.62-.471a50.961 50.961 0 018.024-35.473l-1.249-1.115-.002-.012q-.014-.09044-.027-.181a3.92308 3.92308 0 00-.754-2.072 36.98758 36.98758 0 00-5.846-4.106q-.55456-.32142-1.123-.618a16.14344 16.14344 0 01-2.142-1.293c-.172-.127-.384-.3-.588-.469q-.11412-.094-.229-.187l-.025-.018-.034-.024a4.635 4.635 0 01-1.711-2.85 3.753 3.753 0 01.74-3 3.803 3.803 0 013.015-1.402c.05 0 .099 0 .148.002a4.73488 4.73488 0 012.762 1.042l.237.186c.217.17.463.362.638.512a16.49191 16.49191 0 011.749 1.81c.266.306.543.624.843.943l.068.069a36.41445 36.41445 0 005.232 4.719 2.716 2.716 0 002.034.264c.094-.015.188-.03.281-.042l.013-.002.012.008c.233.172.972.702 1.396.992a50.647 50.647 0 0125.711-14.68 51.34943 51.34943 0 017.089-1.09l.093-1.65.01-.008a4.267 4.267 0 001.267-2.018 36.53038 36.53038 0 00-.43-7.06l-.007-.069c-.062-.433-.14-.848-.213-1.25a16.29789 16.29789 0 01-.326-2.494c-.007-.193-.002-.437.003-.672l.006-.34-.005-.046a.60866.60866 0 01-.004-.062 3.99 3.99 0 117.938 0c0 .117.004.248.005.382.006.26.011.528.003.738a16.29623 16.29623 0 01-.325 2.496c-.075.4-.151.815-.213 1.25l-.026.209a35.92792 35.92792 0 00-.42 6.921 2.715 2.715 0 001.063 1.748c.073.066.144.132.215.199l.01.01v.013c.011.297.057 1.218.09 1.728a51.03583 51.03583 0 0117.81 4.953 51.58126 51.58126 0 0114.83 10.817l1.484-1.058.012.001c.06.003.13.009.205.014a3.907 3.907 0 002.164-.27 35.98584 35.98584 0 005.164-4.66l.135-.137c.294-.313.568-.626.832-.928a16.87427 16.87427 0 011.768-1.823c.174-.15.406-.331.631-.507l.245-.192a3.99 3.99 0 114.943 6.208l-.275.225c-.206.17-.418.346-.592.474a15.83044 15.83044 0 01-2.14 1.287q-.57381.299-1.134.623a37.10181 37.10181 0 00-5.847 4.108 2.722 2.722 0 00-.707 1.92c-.007.097-.013.192-.022.287v.013l-.01.009c-.106.097-.336.303-.603.54-.268.24-.563.503-.772.693a51.159 51.159 0 018.192 35.389l1.573.457.007.01.114.165a3.918 3.918 0 001.569 1.53 36.50793 36.50793 0 006.97 1.15l.077.008c.442.037.87.054 1.284.07a16.01839 16.01839 0 012.493.234c.205.038.467.103.72.166.151.037.299.074.426.103a3.983 3.983 0 11-1.764 7.734l-.026-.003-.033-.005a.29221.29221 0 01-.045-.015.258.258 0 00-.031-.01q-.18765-.04077-.376-.078-.32341-.06141-.643-.141a16.17613 16.17613 0 01-2.35-.871q-.58722-.259-1.185-.493l-.109-.038a36.28679 36.28679 0 00-6.746-1.978q-.11177-.00909-.224-.009a2.789 2.789 0 00-1.712.654c-.082.056-.161.112-.243.166l-.011.007-.014-.002q-.82339-.15672-1.651-.29a51.255 51.255 0 01-22.669 28.516c.058.142.127.326.198.52a5.97166 5.97166 0 00.44 1.033l.013.015-.006.02q-.05306.13875-.11.276a2.69 2.69 0 00-.192 2.022 36.85974 36.85974 0 003.486 6.24c.247.367.498.71.741 1.042a16.1672 16.1672 0 011.37 2.097c.107.2.232.465.354.722l.16.338a4.212 4.212 0 01-1.689 5.637 3.762 3.762 0 01-3.088.056 4.628 4.628 0 01-2.397-2.3l-.14-.285q-.18281-.35824-.348-.725a16.4996 16.4996 0 01-.794-2.397c-.108-.392-.22-.797-.352-1.214l-.03-.089a36.41873 36.41873 0 00-2.666-6.522 2.727 2.727 0 00-1.717-1.12c-.092-.028-.183-.055-.274-.084l-.011-.004-.007-.011c-.066-.113-.226-.404-.396-.712-.15-.273-.313-.566-.431-.777a50.965 50.965 0 01-36.288-.093l-.884 1.602-.013.004a3.16481 3.16481 0 00-1.68.815 14.86815 14.86815 0 00-2.2 4.722c-.261.766-.53 1.56-.84 2.338-.134.421-.245.832-.353 1.23a16.11651 16.11651 0 01-.783 2.379c-.085.194-.207.438-.325.673l-.16.32-.002.015a.05492.05492 0 01-.013.016 4.445 4.445 0 01-3.902 2.586 3.61013 3.61013 0 01-1.572-.356 4.21 4.21 0 01-1.69-5.636c.056-.114.117-.247.18-.384.112-.24.227-.49.326-.677a16.455 16.455 0 011.379-2.113c.24-.33.49-.67.733-1.035a38.248 38.248 0 003.56-6.396 3.881 3.881 0 00-.35-2.2z" class="cls-2"/><path d="M123.196 272.83c-.243.363-.493.705-.734 1.034a16.45524 16.45524 0 00-1.378 2.113c-.1.188-.214.437-.326.678-.063.136-.124.269-.18.383a4.21 4.21 0 001.69 5.636 3.61008 3.61008 0 001.572.356 4.445 4.445 0 003.902-2.586.05473.05473 0 00.013-.016l.003-.014c.048-.1.103-.209.158-.32.119-.236.24-.48.326-.674a16.12078 16.12078 0 00.783-2.378c.108-.399.219-.81.352-1.23.31-.78.58-1.572.84-2.34a14.86912 14.86912 0 012.202-4.721 3.165 3.165 0 011.678-.815l.014-.004.884-1.602a50.965 50.965 0 0036.288.093c.118.21.28.504.431.778.17.307.33.598.396.71l.007.012.011.004c.09.029.182.056.274.084a2.727 2.727 0 011.717 1.12 36.42 36.42 0 012.667 6.522l.03.09c.132.416.243.821.35 1.213a16.49763 16.49763 0 00.795 2.397c.09.208.22.47.347.725.05.1.098.197.14.285a4.628 4.628 0 002.398 2.3 3.762 3.762 0 003.088-.056 4.212 4.212 0 001.69-5.637q-.08146-.16855-.161-.338c-.122-.257-.247-.523-.353-.722a16.16748 16.16748 0 00-1.371-2.097q-.38119-.51292-.74-1.042a36.86239 36.86239 0 01-3.487-6.24 2.69011 2.69011 0 01.193-2.022c.037-.092.074-.184.109-.277l.006-.018-.012-.016a5.97113 5.97113 0 01-.44-1.032c-.073-.195-.141-.38-.2-.52a51.25505 51.25505 0 0022.67-28.517c.508.08 1.365.232 1.65.29l.014.002.012-.007c.082-.054.161-.11.243-.166a2.789 2.789 0 011.712-.654c.072 0 .147.003.224.01a36.28637 36.28637 0 016.746 1.977l.11.038c.413.16.806.33 1.185.493a16.17121 16.17121 0 002.35.87c.182.05.415.096.642.142.13.026.258.052.376.078a.25844.25844 0 01.031.01.29221.29221 0 00.045.015l.033.005.026.003a3.983 3.983 0 101.764-7.734q-.214-.04944-.427-.103-.35715-.09276-.719-.166a16.01839 16.01839 0 00-2.493-.234q-.64272-.02044-1.284-.07l-.078-.008a36.50716 36.50716 0 01-6.97-1.15 3.9179 3.9179 0 01-1.568-1.53l-.114-.165-.007-.01-1.573-.457a51.16007 51.16007 0 00-8.192-35.389c.209-.19.504-.453.772-.692.267-.238.497-.444.603-.541l.01-.009v-.013c.01-.095.015-.19.022-.286a2.72209 2.72209 0 01.707-1.921 37.10264 37.10264 0 015.847-4.107c.385-.227.766-.429 1.134-.624a15.83037 15.83037 0 002.14-1.287c.174-.128.386-.303.592-.474l.275-.225a3.99 3.99 0 10-4.943-6.208l-.245.192c-.225.176-.457.357-.63.507a16.876 16.876 0 00-1.769 1.823c-.264.302-.538.615-.832.928l-.135.138a35.98775 35.98775 0 01-5.164 4.659 3.907 3.907 0 01-2.164.27l-.205-.014h-.012l-1.483 1.057a51.582 51.582 0 00-14.832-10.817 51.0359 51.0359 0 00-17.81-4.953q-.05285-.86356-.09-1.728v-.014l-.01-.01-.214-.198a2.715 2.715 0 01-1.063-1.747 35.92772 35.92772 0 01.42-6.922l.026-.21c.062-.434.138-.848.213-1.25a16.29476 16.29476 0 00.325-2.495c.008-.21.003-.478-.003-.738l-.005-.382a3.99 3.99 0 10-7.938 0 .603.603 0 00.004.062q.0032.02342.005.047c0 .108-.004.223-.006.339-.005.235-.01.48-.003.672a16.30049 16.30049 0 00.326 2.495c.074.4.151.816.213 1.25l.008.068a36.52921 36.52921 0 01.429 7.06 4.26694 4.26694 0 01-1.268 2.018l-.009.009-.093 1.649a51.3492 51.3492 0 00-7.089 1.09 50.647 50.647 0 00-25.711 14.68c-.424-.29-1.163-.82-1.396-.992l-.012-.008-.013.002q-.14031.01879-.28.042a2.716 2.716 0 01-2.035-.264 36.41366 36.41366 0 01-5.232-4.72l-.068-.068c-.3-.319-.577-.637-.844-.944a16.48948 16.48948 0 00-1.748-1.808c-.175-.15-.421-.343-.638-.513l-.237-.186a4.73491 4.73491 0 00-2.762-1.042l-.148-.002a3.803 3.803 0 00-3.016 1.403 3.753 3.753 0 00-.74 3 4.635 4.635 0 001.712 2.849l.034.024.025.018c.073.058.15.122.229.187.204.168.416.342.588.47a16.14177 16.14177 0 002.142 1.292c.365.193.741.393 1.123.618a36.98646 36.98646 0 015.846 4.106 3.923 3.923 0 01.754 2.072l.027.18.002.013 1.25 1.115a50.961 50.961 0 00-8.024 35.473l-1.62.47-.012.004-.006.009-.16.208a4.63615 4.63615 0 01-1.514 1.487 36.41634 36.41634 0 01-6.954 1.15l-.094.01c-.444.036-.872.053-1.287.069a16.07512 16.07512 0 00-2.492.233c-.213.04-.481.106-.742.17-.107.026-.212.052-.309.074l-.02.005-.015.003-.03.01-.029.008a3.983 3.983 0 101.764 7.734l.026-.004.033-.005a.33433.33433 0 00.044-.014.273.273 0 01.032-.01c.097-.022.202-.044.308-.066.25-.053.51-.108.711-.162a16.60115 16.60115 0 002.372-.874c.372-.16.756-.325 1.162-.48l.12-.044a36.30232 36.30232 0 016.733-1.973 3.91 3.91 0 012.07.695q.08624.05045.173.1l.01.006 1.699-.292a51.2649 51.2649 0 0022.676 28.314l-.703 1.689-.006.012.005.013a3.88107 3.88107 0 01.35 2.2 38.2497 38.2497 0 01-3.559 6.396zm10.517-61.745a3.435 3.435 0 01-1.349 5.904l-.019.005-.016.068-19.755 5.701a40.5 40.5 0 015.73-25.56l15.411 13.785-.016.084zm1.354 17.93l.034.042.02-.004a3.53035 3.53035 0 01.632-.058h.042a3.437 3.437 0 013.107 4.789l-.008.018.059.076-7.848 18.965a40.722 40.722 0 01-16.295-20.39zm29.65-27.706l-.015.011a3.441 3.441 0 01-5.462-2.623l-.001-.02-.017-.009-1.166-20.55a40.85 40.85 0 0123.491 11.327l-16.77 11.889zm-17.761-2.607l-.084.042-.001.02a3.437 3.437 0 01-5.455 2.632l-.017-.012-.034.016-16.877-11.964a40.60708 40.60708 0 0119.48-10.6 41.6181 41.6181 0 014.153-.718zm3.07 40.46h.019l.008-.018a3.452 3.452 0 012.906-1.815c.043-.002.084-.002.126-.002a3.467 3.467 0 013.022 1.808l.009.018h.077l9.985 18.044q-1.95146.64975-3.96 1.104a40.76808 40.76808 0 01-22.152-1.13zm8.713-16.085l-5.655 2.72-5.672-2.728-1.406-6.107 3.924-4.885h6.3l3.915 4.893zm8.477 10.683l.026-.035-.008-.017a3.419 3.419 0 013.772-4.739l.02.004.033-.042 20.434 3.454a40.546 40.546 0 01-16.345 20.534zm16.837 11.48l-.066.077zm-11.625-34.311l15.327-13.718a41.24092 41.24092 0 015.906 25.485l-19.853-5.718-.017-.085-.02-.005a3.437 3.437 0 01-1.35-5.904l.015-.013zm6.824 39.033l-.032.027zm-2.655 2.027l-.104.072zm5.145-4.278l-.023.022z" class="cls-1"/><path fill="#486cb4" d="M52.463 346.873q-1.336-1.781-2.761-3.43a29.19216 29.19216 0 00-2.761-2.894q2.672-2.627 4.899-5.076 2.27-2.494 4.63-5.21h-7.88q-.624.756-1.514 1.78-.847 1.025-1.826 2.183-.98 1.113-2.049 2.27-1.024 1.159-2.004 2.227V319.13l-6.635 1.07v33.487h6.635v-10.242a16.98032 16.98032 0 012.227 2.182 32.36592 32.36592 0 012.182 2.716q1.024 1.381 1.915 2.806.935 1.38 1.648 2.538h7.615q-.757-1.47-1.87-3.25t-2.45-3.563zm20.768 1.469q-.623.09-1.425.179-.802.044-1.514.044a3.366 3.366 0 01-3.162-1.425 9.49089 9.49089 0 01-.846-4.631v-12.247h-6.635v13.048a18.56146 18.56146 0 00.49 4.41 8.97466 8.97466 0 001.647 3.473 7.65092 7.65092 0 003.117 2.226 13.5029 13.5029 0 004.988.802 34.10919 34.10919 0 005.611-.446 34.67443 34.67443 0 004.364-.89v-22.623h-6.635zm32.056-15.23a8.42793 8.42793 0 00-3.206-2.449 10.34705 10.34705 0 00-4.409-.89 11.89974 11.89974 0 00-2.583.267 12.42886 12.42886 0 00-2.315.757v-11.668l-6.636 1.07v32.73q.891.267 2.049.535 1.158.222 2.405.4 1.291.179 2.582.268 1.336.133 2.539.133a14.72792 14.72792 0 005.166-.846 10.7103 10.7103 0 003.83-2.494 10.47319 10.47319 0 002.36-3.874 14.455 14.455 0 00.846-5.077 17.33411 17.33411 0 00-.668-4.987 11.07986 11.07986 0 00-1.96-3.875zm-5.522 13.627a4.768 4.768 0 01-4.097 1.87q-.89 0-1.647-.044-.757-.08889-1.247-.178v-12.068a5.7886 5.7886 0 011.603-.668 8.08475 8.08475 0 012.048-.267q4.72 0 4.72 6.412a8.12993 8.12993 0 01-1.38 4.943zm23.358-17.1a11.39754 11.39754 0 00-4.186.802 10.52 10.52 0 00-3.562 2.36 11.92488 11.92488 0 00-2.539 3.919 14.45422 14.45422 0 00-.935 5.433 15.698 15.698 0 00.713 4.809 10.77794 10.77794 0 002.27 3.874 11.12984 11.12984 0 003.875 2.539 14.94 14.94 0 005.522.935 23.40659 23.40659 0 002.494-.134q1.247-.133 2.315-.356a15.57164 15.57164 0 002.004-.445 9.16678 9.16678 0 001.425-.535l-.89-5.388a14.307 14.307 0 01-2.895.846 20.131 20.131 0 01-3.562.312 7.696 7.696 0 01-4.543-1.203 4.40993 4.40993 0 01-1.915-3.25h15.052q.045-.535.09-1.203.044-.712.044-1.291 0-5.923-2.895-8.951a10.30794 10.30794 0 00-7.882-3.073zm-4.409 9.975a10.26436 10.26436 0 01.401-1.648 4.76421 4.76421 0 01.846-1.47 3.72041 3.72041 0 011.336-.979 4.23926 4.23926 0 011.915-.4 4.06915 4.06915 0 011.915.4 3.732 3.732 0 011.291 1.024 3.6728 3.6728 0 01.758 1.425 6.22035 6.22035 0 01.311 1.648zm32.731-9.574a13.16208 13.16208 0 00-1.514-.178 11.32542 11.32542 0 00-1.292-.09 23.645 23.645 0 00-5.433.58 37.30191 37.30191 0 00-4.186 1.157v22.177h6.636v-17.902a7.5236 7.5236 0 011.291-.222 10.47281 10.47281 0 011.514-.134 11.89779 11.89779 0 012.583.267q1.202.223 2.093.446l1.113-5.478a6.18161 6.18161 0 00-1.291-.356 13.50428 13.50428 0 00-1.514-.267zm24.442 2.672a7.279 7.279 0 00-3.161-2.182 13.14752 13.14752 0 00-4.943-.802 34.10853 34.10853 0 00-5.611.445 34.6875 34.6875 0 00-4.365.891v22.622h6.636v-18.08q.623-.089 1.425-.133a13.75219 13.75219 0 011.514-.09 3.451 3.451 0 013.162 1.337 8.945 8.945 0 01.846 4.542v12.424h6.635V340.46a18.0102 18.0102 0 00-.49-4.364 8.589 8.589 0 00-1.648-3.384zm18.296-3.073a11.39692 11.39692 0 00-4.186.802 10.5201 10.5201 0 00-3.562 2.36 11.925 11.925 0 00-2.539 3.919 14.454 14.454 0 00-.935 5.433 15.69616 15.69616 0 00.713 4.809 10.778 10.778 0 002.27 3.874 11.131 11.131 0 003.875 2.539 14.93922 14.93922 0 005.522.935 23.40659 23.40659 0 002.494-.134q1.247-.133 2.316-.356a15.57112 15.57112 0 002.004-.445 9.16652 9.16652 0 001.425-.535l-.891-5.388a14.30892 14.30892 0 01-2.895.846 20.131 20.131 0 01-3.562.312 7.69692 7.69692 0 01-4.543-1.203 4.41 4.41 0 01-1.914-3.25h15.051q.045-.535.09-1.203.044-.712.044-1.291 0-5.923-2.895-8.951a10.30794 10.30794 0 00-7.882-3.073zm-4.408 9.975a10.258 10.258 0 01.4-1.648 4.76381 4.76381 0 01.846-1.47 3.72041 3.72041 0 011.336-.979 4.23924 4.23924 0 011.915-.4 4.06835 4.06835 0 011.915.4 3.73293 3.73293 0 011.292 1.024 3.673 3.673 0 01.757 1.425 6.22116 6.22116 0 01.311 1.648zm32.596 8.818a13.79728 13.79728 0 01-2.182.178q-2.226 0-2.983-1.247a6.72312 6.72312 0 01-.713-3.34v-8.239h7.972v-5.522h-7.972v-6.902l-6.635 1.069v19.683a19.80094 19.80094 0 00.4 4.141 8.02992 8.02992 0 001.515 3.207 7.34533 7.34533 0 002.85 2.048 12.208 12.208 0 004.498.713 15.56465 15.56465 0 003.607-.357 18.88231 18.88231 0 002.672-.846l-.936-5.165a12.53251 12.53251 0 01-2.093.579zm16.692-18.793a11.39692 11.39692 0 00-4.186.802 10.5201 10.5201 0 00-3.562 2.36 11.92613 11.92613 0 00-2.538 3.919 14.45411 14.45411 0 00-.936 5.433 15.69616 15.69616 0 00.713 4.809 10.778 10.778 0 002.271 3.874 11.131 11.131 0 003.874 2.539 14.93925 14.93925 0 005.522.935 23.399 23.399 0 002.494-.134q1.247-.133 2.316-.356a15.57164 15.57164 0 002.004-.445 9.16678 9.16678 0 001.425-.535l-.89-5.388a14.30892 14.30892 0 01-2.895.846 20.13092 20.13092 0 01-3.563.312 7.69605 7.69605 0 01-4.542-1.203 4.41 4.41 0 01-1.915-3.25h15.052q.044-.535.089-1.203.044-.712.044-1.291 0-5.923-2.894-8.951a10.308 10.308 0 00-7.883-3.073zm-4.408 9.975a10.27573 10.27573 0 01.4-1.648 4.76735 4.76735 0 01.847-1.47 3.72045 3.72045 0 011.336-.979 4.2392 4.2392 0 011.915-.4 4.07 4.07 0 011.914.4 3.73193 3.73193 0 011.292 1.024 3.67377 3.67377 0 01.757 1.425 6.22142 6.22142 0 01.312 1.648zm35.447 3.073a7.56326 7.56326 0 00-2.227-1.692 25.17825 25.17825 0 00-3.607-1.603q-1.069-.401-1.781-.713-.668-.356-1.07-.623a1.66691 1.66691 0 01-.533-.624 1.79211 1.79211 0 01-.134-.712q0-1.737 3.117-1.737a13.37881 13.37881 0 013.028.312 23.792 23.792 0 012.539.712l1.158-5.166a17.9129 17.9129 0 00-3.118-.801 20.40763 20.40763 0 00-4.097-.401 10.65488 10.65488 0 00-6.724 1.915 6.26 6.26 0 00-2.45 5.21 7.66713 7.66713 0 00.49 2.895 6.27121 6.27121 0 001.381 2.093 8.7679 8.7679 0 002.138 1.47q1.291.623 2.85 1.202a17.14834 17.14834 0 012.983 1.38 1.643 1.643 0 01.98 1.38 1.376 1.376 0 01-.757 1.381 6.62354 6.62354 0 01-2.583.356 17.90284 17.90284 0 01-3.518-.356 23.4892 23.4892 0 01-3.473-1.069l-1.114 5.389a21.159 21.159 0 002.85.89 21.46356 21.46356 0 005.21.535q4.766 0 7.348-1.782a5.939 5.939 0 002.628-5.254 8.48853 8.48853 0 00-.356-2.583 4.736 4.736 0 00-1.158-2.004z"/><path d="M114.619 432.678l3.309 3.815 5.527-4.866v21.021h5.606v-27.561h-5.45zm27.833 13.312a3.75191 3.75191 0 00-2.803 0 3.444 3.444 0 00-1.907 1.909 3.74 3.74 0 000 2.803 3.439 3.439 0 001.907 1.907 3.73994 3.73994 0 002.803 0 3.44014 3.44014 0 001.908-1.907 3.74 3.74 0 000-2.803 3.44706 3.44706 0 00-1.908-1.908zm6.734-13.312l3.309 3.815 5.527-4.866v21.021h5.606v-27.561h-5.45z" class="cls-1"/><path d="M9.48684 405.852v32.921a34.255 34.255 0 0034.254 34.256h218.1a34.255 34.255 0 0034.255-34.255v-32.922z" class="cls-2"/><path d="M128.34033 453.74723h-6.21777V436.7238l.06006-2.79688.10058-3.05859q-1.54906 1.5498-2.15283 2.03222l-3.38037 2.7168-2.99854-3.74316 9.47754-7.54493h5.11133zm8.85352-2.87793a3.37225 3.37225 0 01.90527-2.55468 3.67 3.67 0 012.63623-.86524 3.5684 3.5684 0 012.58545.88477 3.91041 3.91041 0 01-.01025 5.041 3.50316 3.50316 0 01-2.5752.915 3.61038 3.61038 0 01-2.61621-.89551 3.349 3.349 0 01-.92529-2.52534zm26.42041 2.87793h-6.21778V436.7238l.06055-2.79688.10059-3.05859q-1.54981 1.5498-2.15332 2.03222l-3.38037 2.7168-2.99854-3.74316 9.47754-7.54493h5.11133zm11.0664 0l11.04688-24.14648h-14.50781v-5.23145h21.10839v3.90332l-11.12792 25.47461z" class="cls-1"/></svg>