<svg xmlns="http://www.w3.org/2000/svg" viewBox="0 0 288 288"><defs><style>.cls-1{fill:#c42227;}</style></defs><title>openmetrics-icon-color</title><g id="Layer_2" data-name="Layer 2"><path class="cls-1" d="M283.678,137.85638C281.50882,56.68805,202.59462-7.981,122.8643,6.41361,42.09474,20.99586-7.75672,94.36966,8.4885,174.75655c15.274,75.58088,97.371,125.35208,171.32043,104.75647,5.22341-1.722,9.26034-3.48118,9.26034-3.48118l-5.12457-25.4136s-6.44523,2.46345-9.80473,3.60259c-14.9275,4.56314-30.54977,5.09249-45.76229,2.78427-63.69988-9.665-108.14017-71.16346-96.02958-132.00167C45.62489,58.30763,108.24816,17.998,173.33624,34.25195c80.5514,20.11534,112.459,125.03193,56.228,184.49512-.99983-3.62454-1.659-5.285-2.19441-7.67076-7.92708-35.32268-15.86587-70.64317-23.55431-106.01808-1.98053-9.11153-3.91176-18.19846-15.14521-19.39326-11.12606-1.18321-15.45,6.67566-18.91738,15.6167-7.9138,20.40661-16.42939,42.34955-25.3034,61.97217-3.12468-5.49937-3.49953-6.24925-5.17906-9.03172-7.70915-12.7726-14.68593-25.97431-22.12-38.90884-3.427-5.96276-8.43139-9.84193-15.63218-9.08941-6.44816.67395-11.3244,4.25886-13.23064,10.55353C80.663,141.957,73.881,167.21,66.084,193.53237l26.74675-1.15709s1.88958-7.24689,2.972-12.76134c2.3851-12.15173,6.09019-24.04421,9.875-38.56049,8.16213,15.574,15.05042,28.6759,21.89842,41.79881,4.0223,7.70814,9.75475,13.36572,18.953,12.77817,9.07663-.57984,12.7778-8.80866,15.94408-16.02074,2.22256-5.06249,14.62686-37.53963,21.26323-55.89276.83323,4.33282,1.38752,5.96208,1.90376,8.46139,8.44737,40.89235,17.44566,81.68159,25.067,122.72681.79856,4.30164,2.359,10.96126,2.359,10.96126a88.61536,88.61536,0,0,0,10.14761-6.12976C264.45783,229.55585,285.05316,189.31364,283.678,137.85638Z"/></g></svg>