<svg xmlns="http://www.w3.org/2000/svg" role="img" viewBox="-3.29 5.21 366.08 346.83"><defs><style>.cls-1,.cls-2{fill:#fff}.cls-2{stroke:#000;stroke-linecap:round;stroke-linejoin:round;stroke-width:0}</style></defs><path d="M217.2 287.32546q-1.33622 1.13517-2.74274 2.1883-1.30389.97622-2.66449 1.87841 1.36-.90161 2.66455-1.87841 1.40585-1.05258 2.74268-2.1883zm7.34328-7.50683h.00006l.00275-.00366-.00281.0036a57.04684 57.04684 0 0 1-7.34328 7.50689 57.04645 57.04645 0 0 0 7.34328-7.50683zm-88.04528.01861a56.58341 56.58341 0 0 0 44.012 20.98334c.26306 0 .52087-.02112.78308-.02472q2.33148-.03177 4.6148-.24866-2.28213.2157-4.61486.24866c-.26221.00366-.52.02466-.783.02466a56.58332 56.58332 0 0 1-44.012-20.98334q-.70879-.87176-1.3919-1.76459.68078.89448 1.39184 1.76465zm-1.39191-1.76465q-.68088-.89447-1.32245-1.81982a144.70854 144.70854 0 0 1-13.81122-4.53418 144.72662 144.72662 0 0 0 13.81122 4.53436q.63936.92679 1.32245 1.81964zM43.15278 307.974c.22235.14435.4461.28577.66888.42926.62171.40039 1.24842.79 1.87348 1.1836-.62506-.39362-1.25183-.78321-1.87354-1.18366-.22272-.14347-.44647-.28495-.66882-.4292zm253.56903-75.11613c-.14209.16706-.2771.33594-.42035.50263-.72559.84387-1.46826 1.66247-2.21082 2.48126.74256-.81879 1.48523-1.63739 2.21082-2.48114.14325-.16669.27826-.33569.42035-.50275zm8.83551 51.276c2.27734.26258 4.53131.54914 6.74817.86017-2.21686-.311-4.47083-.59759-6.74811-.86017v-37.20373h-.00006v37.20373zm-11.46668-48.29211a124.768 124.768 0 0 1-9.07086 9.02417 124.7418 124.7418 0 0 0 9.07086-9.02417zM29.79322 289.04214c.116-.05475.22443-.10932.347-.16419.30993-.13873.62811-.24774.94116-.37542-.31305.12768-.63129.23663-.94122.37542-.12251.05487-.23091.10944-.34694.16419zm261.48267-172.30841c.75677 1.08276 1.48541 2.18615 2.197 3.30206-.71159-1.11591-1.44023-2.21936-2.197-3.30206zM89.61494 94.688q2.34054-1.865 4.775-3.613-2.43336 1.74805-4.775 3.613zm197.72851 16.78755q2.04675 2.56978 3.93244 5.25818-1.88131-2.69157-3.93244-5.25818zm9.85749 15.01312c-.23938-.4538-.467-.91394-.71228-1.3645-.55323-1.016-1.13318-2.01233-1.725-3.00012.5918.98773 1.17169 1.98413 1.72491 3.00006.24543.45056.47299.91076.71237 1.36456zM43.15278 307.974q-1.66315-1.08114-3.30878-2.19934-1.38537-.94418-2.7345-1.934 1.34675.99234 2.7345 1.934 1.64438 1.1208 3.30878 2.19934zm154.81708-98.65073a29.13538 29.13538 0 0 1 3.2948 1.44665 29.12461 29.12461 0 0 0-3.2948-1.44665zM26.64558 292.67214a2.23637 2.23637 0 0 1 .12048-1.133 2.23514 2.23514 0 0 0-.12048 1.133zm221.64026-30.29248q-4.61876 2.9772-9.42933 5.56128 4.80963-2.58571 9.42933-5.56128zM28.633 296.12753c-.05188-.06189-.10736-.11975-.15887-.18207a12.59485 12.59485 0 0 1-1.26856-1.783 12.59031 12.59031 0 0 0 1.2685 1.783c.05157.06225.10699.12018.15893.18207zm30.24463-162.84815a1.64541 1.64541 0 0 0 .327.31507 1.59206 1.59206 0 0 1-.2207-.21265c-.03193-.03418-.08017-.06806-.1063-.10242zM44.12849 285.43136c.10223-.01428.20453-.02875.30682-.04236q2.43859-.32418 4.88068-.57275-2.44209.251-4.88074.57269c-.10225.01361-.20453.02806-.30676.04242zM54.203 297.59469l-.0083-.002.00824.002 11.21545 2.69867q3.87534.66449 7.76355 1.22882-3.88788-.56625-7.76349-1.22888zm-10.42516-5.75617v.00007a2.236 2.236 0 0 0 .04376.34253 2.29692 2.29692 0 0 0 .39551.98767 2.29629 2.29629 0 0 1-.39545-.98761 2.23007 2.23007 0 0 1-.04382-.34266zM121.219 54.94033v-.00006c-.35986.22125-.72131.4397-1.08166.66.36035-.22036.72174-.43875 1.08166-.65994zM96.59321 304.19241q5.217.45474 10.44183.816 8.514.5961 17.03479 1.02618-8.52063-.43258-17.03485-1.02625-5.22381-.36576-10.44177-.81593zm-15.10767-20.93909h.00006c15.49964-1.33508 34.17108-2.71082 54.90509-3.41223-20.73401.70074-39.41626 1.87951-54.90515 3.41223zm104.58808 24.11157c.59057-.00262 1.18127-.018 1.77172-.02124q4.41065-.02426 8.822-.07953-4.4112.05566-8.822.07947c-.59051.0033-1.18121.01868-1.77172.0213zM43.92554 291.094a2.23608 2.23608 0 0 0-.10394.3894c-.01459.10254-.033.2027-.03839.31134.00543-.10852.02374-.20874.03845-.3114a2.24211 2.24211 0 0 1 .10388-.38934zm41.35146-7.948h-.001.002-.001zm-35.15639 4.49856c-.35937.1192-.72247.22033-1.0794.35156.35687-.13123.71991-.2323 1.07922-.3515zm-3.42523 7.36456c.07031.03992.14246.08008.21118.12.21326.124.42572.23255.639.33094-.21332-.09839-.42584-.20691-.6391-.331-.06868-.03992-.14077-.08006-.21108-.11994zM214.551 306.88961q4.44974-.1332 8.89746-.3103 3.56287-.14264 7.12482-.3067-3.56149.16965-7.12482.30664-4.44746.17788-8.89746.31036zm84.94406-21.28253q-3.20352-.48176-6.7503-.9353c-3.908-.42676-7.82935-.7439-11.75684-1.01172 3.92749.26782 7.84876.585 11.75678 1.01172q3.54648.453 6.75036.9353zm-26.8396-3.04376h.00061c-1.62506-.1402-3.28668-.27582-4.96966-.40857 1.6828.13281 3.34418.26837 4.96905.40857zm3.17145.87237a9.4956 9.4956 0 0 1 1.23169-.02923l-4.8-.8371h-.00036zm38.61157 5.95252a12.58182 12.58182 0 0 0-1.43225-.58679 7.32425 7.32425 0 0 0-1.65924-.81452 7.32451 7.32451 0 0 1 1.65924.81458 12.586 12.586 0 0 1 1.43225.58673zm-17.38067 10.44433c1.15759-.21093 2.31494-.42407 3.47095-.65014.84539-.16535 1.68408-.36377 2.52069-.5846-.83661.22083-1.6753.41919-2.52063.58454-1.15601.22613-2.31342.43927-3.47101.6502zm-65.58863 6.40146c.04712-.002.09424-.00372.1413-.006q4.44424-.22284 8.88764-.46564-4.44306.24537-8.8877.46564c-.04706.00231-.09418.00408-.14124.006zm81.34241-10.94241c.10236-.05377.2016-.1004.30823-.16242.51361-.29882 1.08209-.59106 1.592-.93151-.51.34045-1.07843.63263-1.592.93145-.10663.06201-.20582.10871-.30823.16248zM53.16853 173.8691q.34808 3.7836 1.03442 7.54462.28665 1.57269.62427 3.14178-.33912-1.56893-.62421-3.14178-.68527-3.7608-1.03448-7.54462zm212.98535 85.05646a14.16838 14.16838 0 0 0 1.60034-1.00842c-.53247.33758-1.06322.67786-1.60034 1.00842zM123.601 269.14144q-5.559-2.7832-10.761-5.98449 5.201 3.20205 10.761 5.98455l3.10413 1.41022-.00019-.00018zm188.80294-148.17877q-1.73959-4.24-3.85272-8.2713 2.11587 4.02877 3.85272 8.2713zM115.4972 260.66683a83.74647 83.74647 0 0 1-5.53528-6.44531 83.73323 83.73323 0 0 0 5.53528 6.44531zM54.82722 184.5555q.33911 1.56894.73846 3.13349c.05939.23181.1272.463.18848.6947-.06128-.23169-.12909-.46289-.18848-.69476q-.40081-1.56436-.73846-3.13343zM305.55738 62.60311h-.00006v44.815q.792 1.29338 1.54034 2.61182-.74835-1.31845-1.54028-2.61188zM60.39918 201.90115c.86242 2.041 1.78637 4.07641 2.788 6.10449q2.36015 4.77877 4.99225 9.25171-2.62943-4.47565-4.99223-9.25177c-1.00165-2.02808-1.9256-4.06358-2.78802-6.10443zm179.69366-55.20923c-.52063-.48993-1.02942-.99121-1.563-1.46845a86.82993 86.82993 0 0 0-21.45971-14.08569 86.83353 86.83353 0 0 1 21.45971 14.08575c.53358.47718 1.04237.97852 1.563 1.46839zm-4.62494 121.37134q-2.79876 2.27581-5.7984 4.32385c-.0097.017-.01794.03467-.02765.05157.00971-.01684.01795-.03466.02765-.05151q2.99717-2.04566 5.7984-4.32391zm67.23194-74.75926c.28253-.87921.57055-1.75678.82342-2.64484.15167-.53277.29132-1.06915.43158-1.60534-.14026.53619-.27991 1.07257-.43164 1.6054-.25287.88798-.54089 1.76555-.82336 2.64478z" class="cls-1"/><path d="M229.64185 272.43868c.50623-.225 1.02014-.4342 1.52369-.66455l4.46368-2.15216-4.46375 2.1521c-.50347.23047-1.01747.43964-1.52362.66461zm36.19556-66.01281c.01178-.36109.02118-.72272.02118-1.08655q0-2.22354-.12225-4.41852.12167 2.19451.12219 4.41858c0 .36377-.0094.7254-.02112 1.08649zM54.74268 148.25369q-.29087 1.36623-.53973 2.7304a84.78231 84.78231 0 0 0-1.30518 11.4867 84.78161 84.78161 0 0 1 1.30523-11.48664q.24949-1.36431.53968-2.73046zm184.36396 116.67736q2.65813-2.42138 5.09539-5.05139-2.43474 2.62757-5.09539 5.05139zM202.032 125.78664q3.99243 1.02493 7.82556 2.39972-3.82984-1.37191-7.82556-2.39972zm-16.52772-2.63079q-2.12914-.13944-4.28564-.18055c-.2898-.00543-.57929-.01184-.86811-.02093.28882.00915.57831.0155.86811.021q2.15615.04063 4.28564.18048zm-114.03253-9.99359c-.2757.3551-.55762.70568-.8288 1.06414-.26178.34607-.51172.70087-.76892 1.0503.2572-.34943.50714-.70417.76892-1.05024.27118-.35846.5531-.70904.8288-1.0642zm7.07312-8.41526q1.04049-1.07949 2.10858-2.12945-1.06806 1.05-2.10864 2.12945l-.00012.00013c-.68757.76831-1.35047 1.55505-2.02662 2.3319.67615-.77685 1.33905-1.56359 2.02668-2.3319zm-11.45538 14.51163c-1.12543 1.72083-2.18671 3.48865-3.169 5.31451-.27734.51551-.54468 1.03626-.81842 1.55365.27374-.51739.54108-1.03814.81842-1.55358.98229-1.82587 2.04357-3.59375 3.169-5.31458zm229.63232 113.59924a110.53168 110.53168 0 0 0 8.83551-11.9179 110.5623 110.5623 0 0 1-8.83551 11.9179zm-247.6806 55.13825a7.56931 7.56931 0 0 0 1.07922-.3515c-.35931.1192-.72235.22027-1.07922.3515zm258.58447-1.02094c-.68854-.14355-1.3783-.277-2.0683-.40893v.03064c.70429.12511 1.39734.25111 2.0683.37829z" class="cls-1"/><path d="M305.55738 247.30264v36.83123c2.27728.26258 4.53125.54914 6.74811.86017s4.39667.64649 6.52545 1.00684c.49231.08337.98517.16241 1.4773.24994.45117.08038.9038.1452 1.35473.22925.09827.01831.20044.03717.29938.05548.96887.179 1.96356.35858 2.95819.56964.8222.17444 1.642.37 2.44086.60364a18.69486 18.69486 0 0 1 2.3153.8319 12.79746 12.79746 0 0 1 1.41889.73157 9.20436 9.20436 0 0 1 2.39038 2.023 1.50915 1.50915 0 0 1 .3067.69452 2.44174 2.44174 0 0 1 .002.813 2.86773 2.86773 0 0 1-.09649.40076 2.62487 2.62487 0 0 1-.21216.50872 19.223 19.223 0 0 1-1.477 2.20954q-.57377.75458-1.20972 1.45654c-2.96032 3.28143-6.83087 5.78149-10.491 8.31732q-.733.50757-1.4773 1.00208c-.13379.08911-.26459.18182-.39886.27038-1.36188.90064-2.74329 1.75952-4.12439 2.61872h41.52166v-62.65674h-50.272zM241.5442 56.47537q4.48186 2.889 8.71624 6.12774h55.29694v44.81494q.792 1.29337 1.54028 2.61188.74845 1.31837 1.45356 2.66144 2.11587 4.02877 3.85272 8.2713.5799 1.41339 1.11914 2.84918 1.07868 2.87155 1.99817 5.8302h40.3081V12.32528h-117.2995v42.26141q1.52024.92578 3.01435 1.88868zM43.15278 307.974q-1.663-1.08123-3.30878-2.19928-1.38537-.94417-2.7345-1.934-1.34673-.99234-2.64294-2.0451c-1.04944-.8559-2.06769-1.74829-3.04364-2.689a38.55622 38.55622 0 0 1-2.78992-2.979c-.05194-.06189-.10736-.11982-.15893-.18213a12.59031 12.59031 0 0 1-1.2685-1.783 4.3654 4.3654 0 0 1-.56-1.4903 2.23514 2.23514 0 0 1 .12048-1.133 2.6392 2.6392 0 0 1 .51581-.82984c.02051-.023.03515-.04675.05658-.06952a4.39648 4.39648 0 0 1 .44806-.41033 8.24192 8.24192 0 0 1 1.22839-.79493q.362-.19638.77832-.39239c.116-.05475.22443-.10932.347-.16419.30993-.13879.62817-.24774.94122-.37542a35.01759 35.01759 0 0 1 3.82739-1.32349c1.08-.30072 2.17145-.5567 3.26984-.7804s2.20355-.41534 3.31128-.5874q.83075-.12909 1.66284-.24512.33453-.047.66882-.09234.15345-.021.30689-.04242c.10223-.01434.20453-.02881.30676-.04242q2.43868-.32409 4.88074-.57269 2.442-.251 4.887-.44117v-37.44498H3.9195v62.65668h41.77564c-.62506-.39362-1.25177-.78321-1.87348-1.1836-.22278-.14349-.44653-.28491-.66888-.42922zm1.90497-179.784a115.09689 115.09689 0 0 1 7.70282-17.41456c.46875-.86047.95343-1.70477 1.44238-2.54461V62.60311h55.84845c3.15076-2.38867 6.36456-4.652 9.66431-6.74554.13922-.08832.28112-.17139.42163-.25727.36035-.22033.7218-.43878 1.08166-.66v-42.615H3.9195v117.31675h40.66236c.16101-.48358.30877-.96972.47589-1.45205z" class="cls-1"/><path d="M54.203 286.50991a39.94756 39.94756 0 0 0-4.08258 1.13471 7.56931 7.56931 0 0 1-1.07922.3515c1.593-.36457 3.30975-.72144 5.1618-1.06983zm251.35438.08709c.70429.12506 1.39734.2511 2.0683.37823-.671-.12719-1.364-.25323-2.0683-.37829zm.90027-131.13879c-.12567-.996-.26489-1.98931-.42566-2.97845q-.21661-1.33256-.47467-2.657-.40173-2.064-.90094-4.10926a99.24945 99.24945 0 0 0-3.81549-12.12207c-1.213-2.36786-2.399-4.75024-3.63995-7.10272-.23938-.4538-.467-.914-.71235-1.36456-.55322-1.01593-1.13311-2.01233-1.72491-3.00006q-.63162-1.05423-1.29083-2.08826c-.71155-1.11591-1.44019-2.2193-2.197-3.30206q-1.88131-2.69146-3.93244-5.25818-2.04675-2.5698-4.23724-5.03333-1.09305-1.2333-2.21655-2.444-1.42026-1.46263-2.89026-2.87024a115.64194 115.64194 0 0 0-9.23841-7.95178q-1.28557-.99435-2.59826-1.95373-3.93759-2.878-8.10529-5.44055a136.97031 136.97031 0 0 0-32.96661-14.56409q-3.17972-.94034-6.40924-1.74152-1.61408-.40063-3.23914-.76642-3.24966-.73168-6.53766-1.32434-1.64337-.29636-3.29467-.558-3.3024-.52332-6.6316-.90784-6.65588-.76913-13.37811-.98413c-.68664-.01489-1.3714-.03516-2.06042-.04175-.86072-.01672-1.72187-.012-2.58271-.01489q-1.62624.0087-3.24408.04559-3.23529.07425-6.43213.26679-1.59786.09694-3.18463.22522a162.61921 162.61921 0 0 0-37.06514 7.37142q-6.73985 2.18637-13.11267 4.90912-2.42725 1.07273-4.806 2.23382a131.48656 131.48656 0 0 0-13.76807 7.76471q-2.52 1.63147-4.95453 3.3794-2.43346 1.7481-4.775 3.613-2.34056 1.865-4.583 3.84729-2.24139 1.98231-4.37848 4.08228-1.068 1.05-2.10858 2.12945l-.00012.00013c-.68763.76831-1.35053 1.55505-2.02668 2.3319s-1.36566 1.54383-2.02661 2.332q-1.549 1.84691-3.01971 3.75123c-.2757.35516-.55762.70574-.8288 1.0642-.26178.34607-.51172.70081-.76892 1.05024-.96 1.304-1.897 2.62481-2.78454 3.98193-1.12543 1.72083-2.18671 3.48871-3.169 5.31458-.27734.51544-.54468 1.03619-.81842 1.55358-.51959.98218-1.04157 1.9632-1.55359 2.94934-.7818 1.50586-1.55884 3.014-2.34381 4.51819a1.59449 1.59449 0 0 1-.2207-.21252 1.59206 1.59206 0 0 0 .2207.21265c-.06519.16387-.12085.32739-.185.49133q-.58319 1.49012-1.11206 2.97821-.52854 1.48809-1.00073 2.97394-.43588 1.37246-.81934 2.74279-.768 2.74063-1.34485 5.473-.29076 1.36623-.53967 2.73046a84.78161 84.78161 0 0 0-1.30524 11.48664q-.08505 1.90731-.0827 3.80975c0 .03027.00214.06049.0022.09082q.00841 3.75906.35126 7.49774.34808 3.78351 1.03448 7.54462.28665 1.57278.62421 3.14178.33911 1.56894.73846 3.13343c.05939.23187.1272.46307.18848.69476q.81216 3.07178 1.84051 6.12653.73737 2.19351 1.58423 4.37787.58438 1.50877 1.22028 3.01306c.86242 2.04089 1.78637 4.07635 2.788 6.10443q2.36015 4.77877 4.99225 9.25177 2.62948 4.47573 5.5152 8.66174c2.42737 3.52661 4.9754 6.91651 7.67535 10.13318q1.744 2.07778 3.56293 4.06976a128.19562 128.19562 0 0 0 11.58124 11.18653 130.67032 130.67032 0 0 0 12.8985 9.66693q1.69353 1.1142 3.42724 2.18146 5.201 3.20205 10.761 5.98449l3.10394 1.4101q-3.25836-2.40372-6.26233-5.09033-1.00021-.89439-1.97052-1.81836-1.52554-1.45268-2.97485-2.976a83.73323 83.73323 0 0 1-5.53528-6.44531c-.55676-.71924-1.09686-1.45068-1.62939-2.18756q-.88743-1.2281-1.72986-2.48749-1.68429-2.51852-3.17981-5.15784-.74679-1.31909-1.44367-2.66717-.85335-1.65116-1.631-3.34332a78.86849 78.86849 0 0 1-6.85846-25.39691c-.24273-2.51777-.3836-5.06373-.3836-7.64185a78.85271 78.85271 0 0 1 6.29272-30.87787q.90071-2.124 1.92011-4.18811 1.01869-2.06342 2.1521-4.06323a82.15739 82.15739 0 0 1 6.81237-10.16651 84.3859 84.3859 0 0 1 10.52411-11.16082q2.31015-2.04319 4.77362-3.9245 2.46186-1.87986 5.06733-3.58875 3.255-2.13418 6.71832-3.986 3.46032-1.84872 7.11053-3.39728 3.00888-1.275 6.13513-2.33435 2.083-.705 4.21405-1.31036 2.13052-.60471 4.306-1.10669a90.50919 90.50919 0 0 1 20.34985-2.30152c.2912 0 .57934.01185.86816.02094s.57831.0155.86811.02093q2.15615.04065 4.28564.18055 2.12906.13943 4.22913.37573 4.19914.472 8.26879 1.31976 2.03312.42243 4.02979.9353 3.99243 1.02493 7.82556 2.39972 1.91492.68592 3.78583 1.45569 1.73346.713 3.42676 1.49573a86.82993 86.82993 0 0 1 21.45971 14.08569c.53357.47724 1.04236.97852 1.563 1.46845 1.4989 1.41046 2.96216 2.85528 4.35083 4.366q.86251.93831 1.69391 1.90258 1.13983 1.318 2.22235 2.68146.27868.35075.55292.70459 1.13846 1.46493 2.21381 2.97607c.56378.7967 1.108 1.60676 1.643 2.42286q.70459 1.07473 1.37525 2.17126c.50421.82459.99932 1.65491 1.47412 2.49744q.51563.915 1.00769 1.84375 1.476 2.78595 2.73382 5.68969.41868.96735.81226 1.947.787 1.95913 1.47131 3.96514 1.02576 3.00834 1.8125 6.11487.52341 2.06993.93628 4.17951.61863 3.16369.9809 6.40918.24032 2.16247.36255 4.35754.12167 2.19451.12225 4.41852c0 .36383-.0094.72546-.02118 1.08655-.01221.37542-.027.7503-.03741 1.12616a79.12385 79.12385 0 0 1-1.30079 12.2774q-.44622 2.39988-1.036 4.75049-.589 2.3498-1.31732 4.646-.72747 2.29542-1.58966 4.533-.86142 2.23681-1.853 4.41144-1.48635 3.26084-3.254 6.37061c-.63324 1.11474-1.29956 2.20959-1.98438 3.2926-.58777.92957-1.18732 1.8515-1.812 2.75659a83.23734 83.23734 0 0 1-7.45081 9.28955q-2.43465 2.62766-5.09539 5.05139-1.77219 1.61427-3.63874 3.13221-2.79876 2.2759-5.7984 4.32391c-.0097.01685-.01794.03467-.02765.05151.50617-.225 1.02014-.43414 1.52362-.66461l4.46375-2.1521q1.624-.81921 3.22729-1.681 4.80963-2.58571 9.42933-5.56128 2.76242-1.7807 5.417-3.66473 5.30886-3.76822 10.18121-7.9527 2.43549-2.09262 4.76032-4.29028 2.32461-2.19781 4.53759-4.50116a131.64741 131.64741 0 0 0 12.25739-14.7804c.77917-1.09247 1.57623-2.16815 2.32489-3.28918q1.44828-2.16834 2.82581-4.40271 1.37585-2.2359 2.671-4.547c1.00531-1.79712 1.942-3.615 2.84729-5.44244q1.36679-2.75895 2.59-5.56092 1.22058-2.80271 2.28235-5.653c.61371-1.65161 1.18115-3.317 1.71912-4.99115.28247-.87921.57049-1.75678.82336-2.64478.15173-.53283.29138-1.06921.43164-1.6054.24347-.93049.47656-1.864.68958-2.80353q.25185-1.11063.47882-2.22858.22759-1.11777.43408-2.2417c.44012-2.38794.79956-4.79956 1.06091-7.24q.19593-1.83022.31623-3.68286.1191-1.85284.156-3.7298.02106-1.10521.01148-2.20416-.019-2.1979-.15717-4.37146c-.10802-1.70894-.27416-3.40594-.48711-5.09373z" class="cls-1"/><path d="M263.4632 224.57992q-.589 2.3498-1.31732 4.646m-13.23303-72.8794q-.27475-.35358-.55292-.70459m5.78498 8.27478q-.67055-1.09662-1.37525-2.17126" class="cls-2"/><path d="M106.60267 249.54647q-1.68429-2.51852-3.17981-5.15784 1.49351 2.63828 3.17981 5.15784z" class="cls-1"/><path d="M106.60267 249.54647q.8421 1.25922 1.72986 2.48749m-6.35334-10.3125q.69663 1.34784 1.44367 2.66717m141.02081-93.33074q.86251.93831 1.69391 1.90258m-108.77081-19.57684q-3.46034 1.84881-6.71832 3.986" class="cls-2"/><path d="M137.36677 133.38363q3.46032-1.84881 7.11053-3.39728-3.64709 1.54551-7.11053 3.39728z" class="cls-1"/><path d="M125.58112 140.95834q-2.46184 1.87976-4.77362 3.9245" class="cls-2"/><path d="M125.58112 140.95834q2.46186-1.87986 5.06733-3.58875-2.60396 1.70741-5.06733 3.58875z" class="cls-1"/><path d="M265.8 207.552c.01043-.37586.0252-.75074.03741-1.12616m-155.55402-50.38218a84.3859 84.3859 0 0 1 10.52411-11.16082" class="cls-2"/><path d="M93.10615 205.33932a78.85285 78.85285 0 0 1 6.29272-30.87781q.90071-2.124 1.92005-4.18811-1.01871 2.0635-1.92011 4.18811a78.85271 78.85271 0 0 0-6.29272 30.87787c0 2.57812.14087 5.12408.3836 7.64185a78.86849 78.86849 0 0 0 6.85846 25.39691 78.87028 78.87028 0 0 1-6.8584-25.397c-.24275-2.51774-.3836-5.06364-.3836-7.64182z" class="cls-1"/><path d="M103.471 166.21017q-1.13269 1.99914-2.1521 4.06323m-.97075 68.10474q.77728 1.69181 1.631 3.34332" class="cls-2"/><path d="M120.44257 265.46121q3.00064 2.683 6.26233 5.09033l.00019.00012q-3.25838-2.40381-6.26252-5.09045z" class="cls-1"/><path d="M118.47205 263.64285q.97019.92385 1.97052 1.81836m131.21027-14.8711c.62469-.90509 1.22424-1.827 1.812-2.75659m11.03437-28.00409q-.44622 2.39988-1.036 4.75049" class="cls-2"/><path d="M150.61243 127.652q2.083-.705 4.21405-1.31036-2.13048.6048-4.21405 1.31036zm29.7381-4.69763c-.28882-.00909-.577-.02094-.86816-.02094a90.50919 90.50919 0 0 0-20.34985 2.30152 90.51264 90.51264 0 0 1 20.34985-2.30145c.2912 0 .57934.01178.86816.02087z" class="cls-1"/><path d="M150.61243 127.652q-3.1245 1.05762-6.13513 2.33435m14.65522-4.75135q-2.175.50143-4.306 1.10669" class="cls-2"/><path d="M260.55622 233.75887q-.86142 2.23681-1.853 4.41144.99086-2.17392 1.853-4.41144z" class="cls-1"/><path d="M262.14588 229.22591q-.72747 2.29542-1.58966 4.533" class="cls-2"/><path d="M355.82935 129.64205h-40.30816q-.92029-2.958-1.99811-5.8302-.53934-1.43573-1.11914-2.84918-1.73968-4.24-3.85272-8.2713-.70533-1.343-1.45356-2.66144t-1.54034-2.61182a87.937 87.937 0 0 0-20.85883-23.41021 69.29817 69.29817 0 0 0-7.41717-5.12622 53.27252 53.27252 0 0 0-4.96381-2.61231q-1.70151-.78094-3.46954-1.43017a43.37006 43.37006 0 0 0-5.4693-1.60627 1.64218 1.64218 0 0 1-.52325-.10516 2.642 2.642 0 0 1-.83484-.56366c-.12806-.11731-.2547-.24109-.38617-.36328q-5.477-5.0918-11.374-9.59772h-.00006q-4.23082-3.24353-8.71618-6.12774-1.494-.963-3.01435-1.88862V12.32534H121.219v42.615c-.35992.22119-.72131.43958-1.08166.66-.14051.08588-.28241.169-.4217.25733-3.29974 2.09357-6.51342 4.35681-9.66418 6.74548h-.00006c-2.2182 1.6817-4.40967 3.41681-6.55835 5.23706-.41528.35175-.82282.71405-1.22821 1.07947s-.80872.73407-1.21564 1.09839c-.54254.48578-1.09143.964-1.66022 1.41705a16.50837 16.50837 0 0 1-2.73852 1.80969c-1.67682-.0982-3.126.68409-4.59967 1.27411q-3.1452 1.2594-6.079 2.753a71.72424 71.72424 0 0 0-9.65192 5.90247q-2.261 1.64145-4.37481 3.44244a75.6893 75.6893 0 0 0-7.89484 7.80359A88.53134 88.53134 0 0 0 54.203 108.2308v.00006c-.489.83978-.97375 1.68408-1.44244 2.54455A115.09689 115.09689 0 0 0 45.05775 128.19c-.16712.48236-.31488.9685-.47589 1.45208H3.91944v117.28806h.00006v-.00006H54.203V220.5386a109.68372 109.68372 0 0 0 13.55951 17.35394c14.69842 15.40607 32.40375 26.28754 52.21 33.82605a144.70854 144.70854 0 0 0 13.81122 4.53418q.63941.92688 1.32245 1.81982.68078.89448 1.3919 1.76459a56.58332 56.58332 0 0 0 44.012 20.98334c.26306 0 .52081-.021.783-.02466q2.33148-.03177 4.61486-.24866 2.28223-.21568 4.509-.60931a56.33665 56.33665 0 0 0 18.60217-6.81952q1.41321-.82407 2.77374-1.7262 1.36-.90161 2.66449-1.87841 1.406-1.05258 2.74274-2.1883a57.04684 57.04684 0 0 0 7.34332-7.50689l.00281-.0036c.94318-1.16187 1.85205-2.64539 2.70245-3.88.17-.04834.3335-.10144.50251-.15051l38.40277-16.85889-.00049.00025.00055-.00025c.53711-.33057 1.06787-.67084 1.60034-1.00842.184-.12061.37323-.236.55633-.35742q1.76451-1.13123 3.49274-2.316 3.45621-2.37 6.76264-4.96106 1.65261-1.29639 3.26641-2.65015 1.61363-1.354 3.18744-2.7666a124.768 124.768 0 0 0 9.07086-9.02417c.74256-.81879 1.48523-1.63739 2.21082-2.48126.14325-.16669.27826-.33557.42035-.50263a110.5623 110.5623 0 0 0 8.83551-11.9179v25.99017h50.27209V129.64205zM208.82056 270.29653c2.019-29.93341-8.75195-49.20068-31.32293-62.21008a50.58592 50.58592 0 0 1 8.21588-.76288 39.1893 39.1893 0 0 1 5.12836.29321q1.24548.15619 2.4533.39673a31.21081 31.21081 0 0 1 4.67469 1.30976 29.12461 29.12461 0 0 1 3.2948 1.44665 28.8 28.8 0 0 1 3.106 1.85663 29.81532 29.81532 0 0 1 2.91034 2.27745 32.28046 32.28046 0 0 1 2.70765 2.709 37.21881 37.21881 0 0 1 3.28283 4.30212c9.77272 14.87244 6.82441 29.68756-4.45092 48.38141zm98.2699-103.16913q-.03579 1.87721-.156 3.72974-.11912 1.85285-.31623 3.68286c-.26135 2.44043-.62072 4.85205-1.06085 7.23993q-.20709 1.12382-.43414 2.24176-.2277 1.11768-.47882 2.22858c-.213.93951-.44611 1.873-.68958 2.80353-.14026.53619-.27991 1.07257-.43158 1.60534-.25287.88806-.54089 1.76563-.82342 2.64484-.538 1.67413-1.10541 3.33954-1.71906 4.99121q-1.05916 2.85095-2.28241 5.653-1.22067 2.80279-2.59 5.56092c-.90528 1.82739-1.842 3.64532-2.84729 5.44244q-1.29355 2.31253-2.671 4.547-1.37586 2.236-2.82575 4.40277c-.74872 1.12091-1.54571 2.19659-2.325 3.28912a131.64741 131.64741 0 0 1-12.25739 14.7804q-2.21272 2.30346-4.53759 4.50116t-4.76032 4.29028q-4.87105 4.18524-10.18121 7.9527-2.65447 1.88415-5.417 3.66473-4.61867 2.97731-9.42933 5.56128-1.60317.862-3.22729 1.681l-4.46368 2.15216c-.50355.23035-1.01746.43958-1.52369.66455.00971-.0169.01795-.0346.02765-.05157a56.729 56.729 0 1 0-98.10772.371l-4.85669-2.20636-3.10407-1.41027q-5.559-2.78321-10.761-5.98455-1.73373-1.06732-3.42724-2.18146a130.67032 130.67032 0 0 1-12.8985-9.66693A128.19562 128.19562 0 0 1 84.93293 240.122q-1.81893-1.99206-3.56293-4.06973c-2.7-3.21667-5.248-6.60657-7.67535-10.13318q-2.88309-4.18881-5.5152-8.66174-2.62945-4.47565-4.99225-9.25171c-1.00165-2.02808-1.9256-4.06354-2.788-6.10449q-.63566-1.50431-1.22028-3.01306-.84614-2.18436-1.58423-4.37787-1.02686-3.05466-1.84051-6.12653c-.06128-.23169-.12909-.46289-.18848-.6947q-.40081-1.56446-.73846-3.13349-.33921-1.56893-.62427-3.14178-.68528-3.7608-1.03442-7.54462-.344-3.73838-.35126-7.49774c-.00006-.03033-.0022-.06055-.0022-.09082q-.0021-1.90237.0827-3.80975a84.78231 84.78231 0 0 1 1.30518-11.4867q.24957-1.36422.53973-2.7304.58164-2.7324 1.34485-5.473.384-1.37035.81934-2.74285.47186-1.48581 1.00073-2.97388.52854-1.488 1.11206-2.97827c.06415-.16388.11981-.3274.185-.49127a1.64541 1.64541 0 0 1-.327-.31507c.02613.03436.07434.06824.10633.10242-.032-.03424-.08014-.06812-.10627-.10242a1.63783 1.63783 0 0 0 .327.31494c.78491-1.50415 1.562-3.01239 2.34375-4.51819.512-.9862 1.03406-1.96716 1.55365-2.94934.27374-.51739.54108-1.03814.81842-1.55365.9823-1.82586 2.04358-3.59368 3.169-5.31451.88751-1.35712 1.82458-2.678 2.78454-3.98193.2572-.34943.50714-.70423.76892-1.0503.27118-.35846.5531-.709.8288-1.06414q1.47564-1.90083 3.01965-3.75123c.66095-.78814 1.35047-1.55511 2.02667-2.332s1.33905-1.56359 2.02662-2.3319l.00012-.00013q1.04049-1.07949 2.10864-2.12945 2.136-2.1 4.37848-4.08228 2.24139-1.9823 4.583-3.84729 2.34054-1.865 4.775-3.613 2.43348-1.74811 4.95453-3.3794a131.48656 131.48656 0 0 1 13.76807-7.76471q2.378-1.16107 4.806-2.23382l.00232-.001c4.24114-1.87433 8.59558-3.52277 13.03131-4.98724 1.40832-.46479 2.80224-.96448 4.2268-1.388a157.3586 157.3586 0 0 1 32.82514-5.99665c3.231-.24646 6.47021-.41083 9.71283-.46393 1.07928-.0177 2.15832.01477 3.23791.01862l.00244-.00006c.8609.00293 1.72193-.00171 2.58264.01489.68909.00665 1.37385.02692 2.06049.04181q6.712.21514 13.37811.98413 3.32785.38461 6.6316.90784 1.65114.26166 3.29467.558 3.28674.59271 6.53766 1.32434 1.62479.36585 3.23914.76642 3.22824.80118 6.40924 1.74152A136.97031 136.97031 0 0 1 258.05744 85.782q4.16337 2.56265 8.10529 5.44055 1.31259.95928 2.59826 1.95373a115.64194 115.64194 0 0 1 9.23841 7.95178q1.46969 1.40763 2.89026 2.87018 1.123 1.21107 2.21655 2.444 2.1861 2.46671 4.23724 5.03333 2.04685 2.56978 3.93244 5.25818c.75677 1.0827 1.48541 2.18615 2.197 3.30206q.65936 1.034 1.29083 2.08826c.5918.98779 1.17175 1.98413 1.725 3.00012.2453.45056.4729.9107.71228 1.3645 1.241 2.35254 2.427 4.73493 3.63995 7.10272a99.24945 99.24945 0 0 1 3.81549 12.12207q.4986 2.04548.901 4.1092.25782 1.32458.47461 2.6571c.16077.98914.3 1.98242.42566 2.97845.21295 1.68775.37909 3.38477.48712 5.09351q.13741 2.17374.15717 4.37146.00945 1.09898-.01154 2.2042z" class="cls-1"/><path d="M250.26038 62.60311h.00006q-4.23083-3.24362-8.71624-6.12774 4.4818 2.88903 8.71618 6.12774zm-11.73053-8.01636q1.52023.92578 3.01435 1.88862-1.494-.963-3.01435-1.88868zm76.99134 75.0553h.00006q-.9203-2.958-1.99817-5.8302 1.07868 2.87156 1.99811 5.8302zM110.0514 62.60311h.00006c3.15076-2.38867 6.36444-4.65191 9.66418-6.74548.13929-.08838.28119-.17145.4217-.25733-.14051.08588-.28241.169-.42163.25727-3.29971 2.09356-6.51355 4.35687-9.66431 6.74554zM54.203 108.2308c-.489.83984-.97363 1.68414-1.44238 2.54461.46869-.86047.95343-1.70477 1.44244-2.54455v-.00006l-.00006.00012z" class="cls-1"/><path d="M190.41682 299.93789a56.28208 56.28208 0 0 0 6.53424-1.55884m12.06794-5.26068a56.51985 56.51985 0 0 1-5.85132 2.97131m-6.21662 2.28937a56.24225 56.24225 0 0 0 6.21661-2.28937m-17.25983 4.45752q2.28223-.21568 4.509-.60931" class="cls-2"/><path d="M266.15382 258.92556l-38.40277 16.85889c13.95959-4.05231 24.61-10.51355 38.40228-16.85864zM59.20466 133.59445c-.06519.16387-.12085.32739-.185.49127q-.58319 1.49011-1.11206 2.97827.52854-1.4881 1.11206-2.97821c.06415-.16394.11981-.32746.185-.49133zm58.71619-55.89832l-.00232.001q-2.42726 1.07273-4.806 2.23382 2.378-1.16107 4.806-2.23382z" class="cls-1"/><path d="M99.34449 87.69564a131.48656 131.48656 0 0 1 13.76807-7.76471" class="cls-2"/><path d="M63.10206 126.12679c-.51959.98218-1.04163 1.96314-1.55365 2.94934-.78174 1.5058-1.55884 3.014-2.34375 4.51819.785-1.50415 1.562-3.01233 2.34381-4.51819.51202-.98613 1.034-1.96713 1.55359-2.94934zm13.41601-19.04773c-.6762.77686-1.36572 1.54383-2.02667 2.332q-1.54888 1.84682-3.01965 3.75123 1.47564-1.90074 3.01971-3.75123c.66095-.78817 1.35041-1.55514 2.02661-2.332zm222.1803 96.86908q-1.22067 2.80279-2.59 5.56092 1.36683-2.75886 2.59-5.56092zm0 0q1.22058-2.80271 2.28241-5.653c.61365-1.65167 1.18109-3.31708 1.71906-4.99121-.538 1.67413-1.10541 3.33954-1.71912 4.99115q-1.05918 2.851-2.28235 5.65306zm8.23609-33.091q.1191-1.85284.156-3.72974.02106-1.1053.01148-2.20422.00951 1.099-.01148 2.20416-.03579 1.8773-.156 3.7298zm-21.49506 56.33325c.77924-1.09253 1.57623-2.16821 2.325-3.28912q1.44828-2.16834 2.82575-4.40277-1.37586 2.2359-2.82581 4.40271c-.74871 1.12103-1.54577 2.19671-2.32494 3.28918z" class="cls-1"/><path d="M307.10194 164.92318q-.019-2.1979-.15717-4.37146" class="cls-2"/><path d="M305.12324 184.02169q.22759-1.11777.43414-2.24176c.44013-2.38788.7995-4.7995 1.06085-7.23993-.26135 2.44043-.62079 4.85205-1.06091 7.24q-.20709 1.12381-.43408 2.24169zM183.54 64.89382c.689.00659 1.37378.02686 2.06042.04175-.68664-.01489-1.3714-.03516-2.06049-.04181-.86071-.0166-1.72174-.012-2.58264-.01489l-.00244.00006h.00244c.86083.00293 1.72198-.00183 2.58271.01489zM57.9076 137.064q-.52854 1.48809-1.00073 2.97388-.43588 1.37255-.81934 2.74285.384-1.37035.81934-2.74279.47186-1.48582 1.00073-2.97394z" class="cls-1"/><path d="M67.08949 119.25863c.88751-1.35712 1.82458-2.678 2.78454-3.98193" class="cls-2"/><path d="M297.20094 126.48867c1.241 2.35248 2.42694 4.73486 3.63995 7.10272-1.21295-2.36779-2.39889-4.75018-3.63995-7.10272z" class="cls-1"/><path d="M81.37 236.05227c-2.7-3.21667-5.248-6.60657-7.67535-10.13318" class="cls-2"/><path d="M58.87769 133.27938c.02613.0343.07428.06818.10627.10242a1.59449 1.59449 0 0 0 .2207.21252 1.63783 1.63783 0 0 1-.32697-.31494z" class="cls-1"/><path d="M59.1789 198.88809q.58438 1.50877 1.22028 3.01306M258.05744 85.782q4.16337 2.56265 8.10529 5.44055" class="cls-2"/><path d="M306.032 152.47976c.16077.98914.3 1.98248.42566 2.97845-.12566-.99603-.2649-1.98931-.42566-2.97845zm0 0q-.21661-1.33256-.47461-2.6571-.40173-2.064-.901-4.1092.4986 2.04548.90094 4.10926.2579 1.32457.47467 2.65704zm.42565 2.97845c.21295 1.68775.37909 3.38477.48712 5.09351-.10803-1.70872-.27417-3.40572-.48712-5.09351zM57.59467 194.51022q-1.02686-3.05475-1.84051-6.12653.81216 3.07178 1.84051 6.12653zM94.39 91.075q2.43337-1.748 4.95453-3.3794Q96.82442 89.327 94.39 91.075zm188.71621 15.36722q-1.09305-1.2333-2.21655-2.444-1.42026-1.46254-2.89026-2.87018 1.46969 1.40763 2.89026 2.87024 1.12298 1.21104 2.21655 2.44394z" class="cls-1"/><path d="M277.9994 101.128a115.64194 115.64194 0 0 0-9.23841-7.95178M52.81507 166.28054c0 .03027.00214.06049.0022.09082m251.13757 22.68244c.24347-.93049.47656-1.864.68958-2.80353" class="cls-2"/><path d="M333.486 293.7123a2.62487 2.62487 0 0 0 .21216-.50872 2.86773 2.86773 0 0 0 .09649-.40076 2.44333 2.44333 0 0 0-.002-.813 1.50866 1.50866 0 0 0-.3067-.69446 9.20614 9.20614 0 0 0-2.39038-2.02307 12.79746 12.79746 0 0 0-1.41889-.73157 18.69486 18.69486 0 0 0-2.3153-.8319c-.79883-.23365-1.61866-.4292-2.44086-.60364-.99469-.211-1.98926-.39057-2.95819-.56964-.09894-.01831-.20111-.03717-.29944-.05548-.45093-.08411-.9035-.14887-1.35467-.22925-.49213-.08753-.985-.16657-1.4773-.24994-2.12878-.36035-4.30859-.6958-6.52545-1.00684s-4.47083-.59759-6.74817-.86017a234.27372 234.27372 0 0 0-32.90125-1.57055h-.00061l.00061.00006c-.13159.00372-.266.002-.39752.006l4.8.8371q1.96545.12075 3.92932.2536c3.92749.26782 7.84882.585 11.75684 1.01172 3.21783.35138 6.42584.78412 9.62134 1.32141q1.59777.26871 3.19122.57306h.00006c.69013.132 1.38019.2655 2.06909.409.20984.04371.42066.07966.6305.12458.41107.08777.76977.18524 1.23315.32074.67175.19629 1.28076.36059 1.85687.56628a7.32425 7.32425 0 0 1 1.65924.81452 12.58182 12.58182 0 0 1 1.43225.58679 5.25548 5.25548 0 0 1 .64631.3808 3.3094 3.3094 0 0 1 .54254.4674 2.40318 2.40318 0 0 1 .3601.52668 2.18442 2.18442 0 0 1 .21772.60107 2.53338 2.53338 0 0 1 .04364.475 2.25323 2.25323 0 0 1-.296 1.13745 3.16509 3.16509 0 0 1-.75464.86242 5.94385 5.94385 0 0 1-.48627.35859c-.51.34045-1.07843.63269-1.592.93151-.10663.062-.20587.10865-.30823.16242-.53747.28241-1.03467.47272-1.65088.72766-.20538.085-.424.17718-.66174.28235l-1.21765.40362c-1.25867.402-2.49353.79914-3.72394 1.17383-.83685.25476-1.67139.498-2.50793.71875s-1.6753.41925-2.52069.5846c-1.156.22607-2.31336.43921-3.47095.65014q-6.81015 1.24072-13.6532 2.166c-8.587 1.16815-17.2077 2.00854-25.84558 2.6654q-4.18442.31824-8.37366.58313l-.51868.03315q-4.08279.25863-8.16857.48217-4.44306.24537-8.88764.46564c-.04706.00232-.09418.00409-.1413.006-.09417.00385-.18829.00757-.2824.01215-.20441.01-.40906.01666-.61347.02643q-3.56132.16974-7.12482.3067-4.44753.17779-8.89746.3103-4.44974.13313-8.90094.22522-4.49112.09357-8.98272.14929-4.4112.05566-8.822.07953c-.59045.00324-1.18115.01862-1.77172.02124l-.02149.00025h-.00006c-1.80316.0072-3.60608-.00037-5.40912-.00092s-3.6062.0061-5.40918-.00085q-4.266-.01648-8.53143-.06128-12.79642-.13531-25.58588-.5531-8.52576-.28428-17.04663-.71442-8.52063-.43258-17.03479-1.02618-5.2239-.36585-10.44183-.816-4.97223-.43341-9.93414-.97071-2.84748-.30908-5.69074-.65545-3.89823-.47975-7.78638-1.04407-3.88788-.56625-7.76355-1.22882L54.203 297.59469l-.00824-.002-.02606-.00623s-.42359-.115-1.01929-.28119a169.6059 169.6059 0 0 1-.77643-.21838 96.07096 96.07096 0 0 1-.21728-.06189 127.1473 127.1473 0 0 1-.55536-.16c-.1687-.04907-.3371-.09826-.50171-.14715-.38294-.11371-.7464-.2248-1.05127-.32349-.20325-.06573-.38043-.126-.52-.17773-.69464-.25757-1.34174-.46131-1.98169-.75647-.21332-.09839-.42578-.20691-.639-.33094-.06872-.04-.14087-.08013-.21118-.12-.31744-.18036-.64368-.36365-.96368-.55744a7.7718 7.7718 0 0 1-.76288-.51336 3.5946 3.5946 0 0 1-.75171-.76953 2.29692 2.29692 0 0 1-.39551-.98767 2.236 2.236 0 0 1-.04376-.34253v-.00007c0-.01574.00458-.02844.00537-.04376.00543-.10864.0238-.2088.03839-.31134a2.23608 2.23608 0 0 1 .10394-.3894 2.63755 2.63755 0 0 1 1.04328-1.33179 5.92035 5.92035 0 0 1 .98181-.54187c.34967-.15649.71417-.29266 1.0705-.41968.667-.29907 1.34277-.55554 2.02008-.80456.35693-.13123.72-.23236 1.0794-.35156a23.0053 23.0053 0 0 1 4.0824-1.56116v.00006c4.90985-.92359 10.71155-1.36548 17.27564-2.15772l13.79772-.77972.001-.00012q-1.89642.05915-3.79175.10742h-.00006c-9.11542.24664-18.214.407-27.28253 1.12176q-2.44491.19263-4.887.44117-2.442.251-4.88068.57275c-.10229.01361-.20459.02808-.30682.04236s-.20453.0285-.30683.04248q-.33453.04541-.66888.09228-.83176.11683-1.66284.24512c-1.10773.17206-2.21295.36365-3.31128.5874s-2.18982.47968-3.26984.7804a35.01759 35.01759 0 0 0-3.82739 1.32349c-.31305.12768-.63123.23669-.94116.37542-.12262.05487-.231.10944-.347.16419q-.4163.19629-.77832.39239a8.24192 8.24192 0 0 0-1.22839.79493 4.39648 4.39648 0 0 0-.44806.41033c-.02143.02277-.03607.04657-.05658.06952a2.63987 2.63987 0 0 0-.51581.82984 2.23637 2.23637 0 0 0-.12048 1.133 4.3654 4.3654 0 0 0 .56 1.4903 12.59485 12.59485 0 0 0 1.26856 1.783c.05151.06232.107.12018.15887.18207a38.57889 38.57889 0 0 0 2.78992 2.979c.976.94074 1.99426 1.83307 3.04364 2.689q1.29382 1.05523 2.64294 2.0451 1.34675.99234 2.7345 1.934 1.64429 1.12087 3.30878 2.19934c.22235.14429.4461.28577.66882.4292.62171.40045 1.24848.79 1.87354 1.18366.41815.2633.83355.53314 1.25366.79205a224.66179 224.66179 0 0 0 40.51074 19.34247c.19385.07129.38648.14551.58057.21631q6.029 2.20413 12.17181 4.16351c5.57233 1.78271 11.18793 3.36267 16.83948 4.77643l.00153.00042c1.38372.34613 2.77764.64588 4.16607.97022a265.9684 265.9684 0 0 0 31.01825 5.38538l55.55835-.00531a264.41507 264.41507 0 0 0 30.73425-5.30738c2.63044-.61236 5.25782-1.23932 7.87128-1.93l.00037-.00012q7.0317-1.85862 13.9851-4.08356 5.839-1.87692 11.578-3.9707c.19293-.07056.3844-.14429.57708-.21521a226.70091 226.70091 0 0 0 40.5185-19.34247c.419-.2572.82965-.53217 1.2475-.79205 1.38116-.8592 2.76245-1.718 4.12439-2.61872.13421-.0885.26513-.18121.39886-.27038q.743-.496 1.4773-1.00208c3.66009-2.53583 7.5307-5.03583 10.491-8.31726q.63438-.70312 1.20972-1.45654a19.223 19.223 0 0 0 1.47684-2.20963z" class="cls-1"/><path d="M307.62647 286.9753c-.6889-.14355-1.379-.277-2.06909-.409.69.13189 1.37976.26538 2.0683.40893zm25.85953 4.32007a1.50866 1.50866 0 0 1 .3067.69446 1.50915 1.50915 0 0 0-.3067-.69452 9.20436 9.20436 0 0 0-2.39038-2.023 9.20614 9.20614 0 0 1 2.39038 2.02306zm.30862 1.50745a2.44174 2.44174 0 0 0-.002-.813 2.44333 2.44333 0 0 1 .002.813z" class="cls-1"/><path d="M327.3614 287.70883c-.79883-.23365-1.61866-.4292-2.44086-.60364" class="cls-2"/><path d="M321.96235 286.53555c-.09894-.01831-.20111-.03717-.29938-.05548-.45093-.084-.90356-.14887-1.35473-.22925.45117.08038.90374.14514 1.35467.22925.09833.01831.2005.03717.29944.05548zm0 0c.96893.17907 1.9635.35864 2.95819.56964-.99463-.21106-1.98932-.39063-2.95819-.56964z" class="cls-1"/><path d="M329.6767 288.54073a18.69486 18.69486 0 0 0-2.3153-.8319m6.33673 5.49475a2.62487 2.62487 0 0 1-.21216.50872m.00003 0a19.223 19.223 0 0 1-1.477 2.20954" class="cls-2"/><path d="M43.15278 285.56612q.33453-.047.66888-.09228.15345-.021.30683-.04248-.15345.02142-.30689.04242-.33444.0455-.66882.09234zm6.16322-.74987q2.442-.251 4.887-.44117-2.445.19263-4.887.44117zm-22.03413 5.89306a2.6392 2.6392 0 0 0-.51581.82984 2.63987 2.63987 0 0 1 .51581-.82984zm1.73303-1.27478a8.24192 8.24192 0 0 0-1.22839.79493 8.24192 8.24192 0 0 1 1.22839-.79493z" class="cls-1"/><path d="M27.78651 290.22946a4.39648 4.39648 0 0 0-.44806.41033m2.45477-1.59765q-.4163.19629-.77832.39239" class="cls-2"/><path d="M31.42292 299.10653c.976.94074 1.9942 1.83313 3.04364 2.689-1.04938-.85593-2.06769-1.74826-3.04364-2.689zm-2.78992-2.979a38.55622 38.55622 0 0 0 2.78992 2.979 38.57889 38.57889 0 0 1-2.78992-2.979zm280.85712-8.70691c.67175.19629 1.28076.36065 1.85687.56628-.57611-.20569-1.18512-.36999-1.85687-.56628z" class="cls-1"/><path d="M248.66669 305.28018q-4.08279.25863-8.16857.48217m17.06088-1.09845q-4.18442.31824-8.37366.58313m47.87247-5.41449q-6.81015 1.24072-13.6532 2.166" class="cls-2"/><path d="M312.81159 295.29159c-.53747.28229-1.03467.47266-1.65088.72766.61621-.25494 1.11341-.44525 1.65088-.72766zm-3.53021 1.41357c-1.25867.402-2.49365.7992-3.72406 1.17389-.83679.25476-1.67126.498-2.50787.71875.83654-.22076 1.67108-.464 2.50793-.71875 1.23041-.37469 2.46527-.77179 3.72394-1.17383l1.21765-.40362c.23773-.10517.45636-.19733.66174-.28235-.20538.085-.424.17718-.6618.28235zm-142.57904 10.59693q4.26545.045 8.53143.06128c1.803.007 3.60614.00036 5.40918.00085-1.803-.00049-3.6062.0061-5.40912-.00085q-4.26598-.01648-8.53149-.06128zm140.92407-20.32679c.2099.04371.42078.07972.63049.12458.41108.08783.76978.18524 1.23322.32074-.46338-.1355-.82208-.233-1.23315-.32074-.20984-.04492-.42066-.08087-.6305-.12458l-.00079-.00012zm-77.0531 19.29731c.20441-.00977.40906-.01642.61347-.02643.09411-.00458.18823-.0083.2824-.01215-.09417.00385-.18835.00757-.28253.01215-.20434.01001-.40893.01666-.61334.02643zm85.41412-15.50952a2.40318 2.40318 0 0 0-.3601-.52668 3.3094 3.3094 0 0 0-.54254-.4674 3.31221 3.31221 0 0 1 .54254.46746 2.40513 2.40513 0 0 1 .3601.52662z" class="cls-1"/><path d="M86.65907 303.2217q4.9616.53852 9.93414.97071m-50.86151-9.74073c.32.19379.64624.37708.96368.55744" class="cls-2"/><path d="M49.52729 296.21658c-.69464-.25763-1.3418-.46137-1.98169-.75647.63995.29516 1.28705.49889 1.98169.75647z" class="cls-1"/><path d="M43.77784 291.83852c0-.01574.00458-.02844.00537-.04376" class="cls-2"/><path d="M272.25855 282.56936c.13153-.004.26593-.00226.39752-.006l-.00061-.00006c-.13153.00372-.26586.00207-.39721.006zm-190.77295.68396q1.8957-.05118 3.79175-.10742l.001-.00006q-1.89693.05916-3.79275.10748zm-13.98346 1.44l3.97644-.34613 13.79779-1.20119-13.79772.77972c-6.56409.79224-12.36579 1.23413-17.27564 2.15772v-.00006a23.0053 23.0053 0 0 0-4.0824 1.56116 39.95435 39.95435 0 0 1 4.08234-1.13471c4.36755-.94969 8.85529-1.29991 13.29919-1.81651z" class="cls-1"/><path d="M196.66737 307.26412q4.49148-.05676 8.98272-.14929" class="cls-2"/><path d="M53.14936 297.30526c.5957.16614 1.01929.28119 1.01929.28119l.02606.00623-.02612-.00629s-.42353-.11499-1.01923-.28113zm0 0z" class="cls-1"/><path d="M44.96882 289.76223a5.92035 5.92035 0 0 1 .98181-.54187m6.20502 7.80464a127.1473 127.1473 0 0 1-.55536-.16" class="cls-2"/><path d="M186.05213 307.36514l.02149-.00025-.02155.00025z" class="cls-1"/><path d="M44.96882 289.76223a2.63755 2.63755 0 0 0-1.04328 1.33179m263.70093-4.11872l-.00079-.00012M262.85542 73.12777a2.642 2.642 0 0 1-.83484-.56366" class="cls-2"/><path d="M272.31751 76.26937q-1.70151-.78094-3.46954-1.43017 1.76889.6468 3.46954 1.43017zm-9.46209-3.1416a1.64218 1.64218 0 0 0 .52325.10516 43.37006 43.37006 0 0 1 5.4693 1.60627 43.3804 43.3804 0 0 0-5.4693-1.60639 1.64054 1.64054 0 0 1-.52325-.10504z" class="cls-1"/><path d="M277.28132 78.88168a53.27252 53.27252 0 0 0-4.96381-2.61231" class="cls-2"/><path d="M54.203 284.375V246.93v37.445zm82.29493-4.53776l-.10724.00385.1073-.00379zM54.203 62.615v-.012 45.628-45.616zm48.06184 6.30464c.40539-.36542.81293-.72772 1.22821-1.07947 2.14868-1.82025 4.34015-3.55536 6.55835-5.23706-2.2182 1.6817-4.40967 3.41681-6.55835 5.23694-.41528.35175-.82282.71411-1.22821 1.07959z" class="cls-1"/><path d="M102.26484 68.91964c-.40546.36548-.80872.73407-1.21564 1.09839" class="cls-2"/><path d="M64.05024 94.42037a75.6893 75.6893 0 0 1 7.89484-7.80359 75.68337 75.68337 0 0 0-7.89484 7.80359zM54.203 108.2308a88.53134 88.53134 0 0 1 9.84723-13.81043 88.53308 88.53308 0 0 0-9.84723 13.81031zm22.11689-25.05646q-2.261 1.64145-4.37481 3.44244 2.1146-1.79992 4.37481-3.44244z" class="cls-1"/><path d="M85.97181 77.27187a71.72424 71.72424 0 0 0-9.65192 5.90247" class="cls-2"/><path d="M96.65046 73.24477c-1.67682-.09832-3.126.684-4.59967 1.27411 1.47363-.59002 2.92285-1.37231 4.59967-1.27411z" class="cls-1"/><path d="M101.0492 70.018c-.54254.48578-1.09143.964-1.66022 1.41705" class="cls-2"/><path d="M54.203 108.231zm251.35432 178.36589v-.03064q-1.59348-.30488-3.19122-.57306c-3.1955-.53729-6.40351-.97-9.62134-1.32141q3.54639.453 6.7503.9353 3.20352.48185 6.06226.98981z" class="cls-1"/><path d="M305.55732 286.597v-.00006q-2.85837-.50748-6.06226-.98981 3.20352.4818 6.06226.98987zm-81.01404-6.77831c6.66059.22156 13.1131.49231 19.31885.808-6.20575-.31579-12.6582-.58655-19.31879-.8081z" class="cls-1"/><path d="M243.86213 280.62673q3.1029.15793 6.12213.33069m11.71643.74811c2.03491.14423 4.02606.29462 5.98572.44922" class="cls-2"/><path d="M261.70069 281.70553q-5.67362-.40211-11.71643-.74811 6.03699.34553 11.71643.74811zm-34.21369-5.80518q1.48992-.42159 2.9696-.87982-1.47967.45768-2.96918.87964z" class="cls-1"/><path d="M227.487 275.90029l.00042-.00012.26368-.11572c-.169.04907-.33252.10217-.50251.15051-.8504 1.23462-1.75927 2.71814-2.70245 3.88.943-1.16126 1.85205-2.35029 2.70245-3.585.07704-.11165.16206-.21718.23841-.32967zm8.85139-2.84106q1.46154-.52093 2.91491-1.06952a156.6249 156.6249 0 0 0 26.90058-13.06415l-.00055.00025c-8.76831 4.54748-17.41077 9.48553-26.9 13.06384q-1.45351.54813-2.91494 1.06958z" class="cls-1"/><path d="M230.45655 275.02053q2.95962-.91544 5.88184-1.9613 1.46154-.52093 2.91491-1.06958c9.48926-3.57831 18.13172-8.51636 26.9-13.06384-13.7923 6.34509-24.44269 12.80633-38.40228 16.85864l-.26368.11572q1.48979-.42151 2.96921-.87964zm-62.36017-209.604q1.5867-.12844 3.18469-.22522 3.19575-.19391 6.43213-.26679 1.61646-.03708 3.24164-.04559c-1.07959-.00385-2.15863-.03632-3.23791-.01862-3.24262.0531-6.48188.21747-9.71283.46393a157.3586 157.3586 0 0 0-32.8251 5.99665c-1.42456.42352-2.81848.92321-4.2268 1.388-4.43573 1.46447-8.79017 3.11291-13.03131 4.98724q6.35714-2.72983 13.11041-4.9082a162.61607 162.61607 0 0 1 37.06508-7.3714z" class="cls-1"/><path d="M180.95728 64.87893h-.00244q-1.62506.00879-3.24164.04559 1.61765-.03708 3.24408-.04559zM131.03126 72.788a162.61921 162.61921 0 0 1 37.06518-7.37146q1.5867-.12844 3.18463-.22522-1.59786.09694-3.18469.22522a162.61607 162.61607 0 0 0-37.06512 7.3714q-6.73864 2.18609-13.11041 4.9082l-.00226.001q6.35825-2.73022 13.11267-4.90914z" class="cls-1"/></svg>