<svg id="Layer_1" data-name="Layer 1" xmlns="http://www.w3.org/2000/svg" xmlns:xlink="http://www.w3.org/1999/xlink" viewBox="0 0 216 216"><defs><style>.cls-1,.cls-5,.cls-7{fill:#fff;}.cls-1,.cls-3{clip-rule:evenodd;}.cls-2,.cls-3,.cls-4{fill:none;}.cls-4,.cls-5{fill-rule:evenodd;}.cls-6{clip-path:url(#clip-path);}.cls-8{clip-path:url(#clip-path-2);}.cls-9{clip-path:url(#clip-path-3);}.cls-10{fill:#383d49;}.cls-11{isolation:isolate;}.cls-12{clip-path:url(#clip-path-4);}.cls-13{clip-path:url(#clip-path-7);}.cls-14{fill:#3a6ede;}.cls-15{clip-path:url(#clip-path-9);}</style><clipPath id="clip-path"><path class="cls-1" d="M211.86489,302.31415h-3.74625V309.658a2.78993,2.78993,0,0,0,.47572,1.82852,1.903,1.903,0,0,0,1.51633.55,4.25906,4.25906,0,0,0,.83249-.08919,3.18428,3.18428,0,0,0,.80278-.26759l.08919,2.28937a6.77687,6.77687,0,0,1-1.11495.28245,7.49841,7.49841,0,0,1-1.26361.10406,4.02751,4.02751,0,0,1-3.04754-1.10008,4.6,4.6,0,0,1-1.0555-3.30026v-7.64114h-2.70561v-2.28937h2.70561v-4.04355h2.76509v4.04355h3.74625Zm-11.26575,4.63821v.4757a3.82441,3.82441,0,0,1-.02974.47572H189.39015a4.22736,4.22736,0,0,0,.40138,1.67986,4.41953,4.41953,0,0,0,.996,1.36768,4.65206,4.65206,0,0,0,3.18133,1.23387,4.70661,4.70661,0,0,0,2.46777-.62437,5.03585,5.03585,0,0,0,1.63525-1.51633l1.96233,1.5758a6.967,6.967,0,0,1-2.661,2.1853,8.58855,8.58855,0,0,1-6.37752.16353,6.86949,6.86949,0,0,1-2.34884-1.50147,6.96073,6.96073,0,0,1-1.54606-2.334,7.87087,7.87087,0,0,1-.56491-3.03267,8.09215,8.09215,0,0,1,.55-3.0178,6.90651,6.90651,0,0,1,1.53122-2.3637,7.009,7.009,0,0,1,2.31908-1.5312,7.94573,7.94573,0,0,1,5.69371-.0446,5.79253,5.79253,0,0,1,2.1407,1.45687,6.56235,6.56235,0,0,1,1.3528,2.30424A9.14754,9.14754,0,0,1,200.59914,306.95236Zm-2.82454-1.12983a5.31573,5.31573,0,0,0-.28245-1.56093,3.58452,3.58452,0,0,0-.74331-1.26361,3.49462,3.49462,0,0,0-1.219-.84736,4.31477,4.31477,0,0,0-1.7096-.31219,4.51833,4.51833,0,0,0-1.67985.31219,4.36128,4.36128,0,0,0-1.36767.84736,4.46192,4.46192,0,0,0-.95144,1.26361,4.03085,4.03085,0,0,0-.43111,1.56093Zm-15.6661,8.29525h-2.79481V291.64034h2.79481Zm-7.22218-7.16542v.4757a3.82441,3.82441,0,0,1-.02974.47572H163.67732a4.22753,4.22753,0,0,0,.40138,1.67986,4.41945,4.41945,0,0,0,.996,1.36768,4.65192,4.65192,0,0,0,3.18131,1.23387,4.70661,4.70661,0,0,0,2.46777-.62437,5.03613,5.03613,0,0,0,1.63527-1.51633l1.96231,1.5758a6.967,6.967,0,0,1-2.661,2.1853,8.58855,8.58855,0,0,1-6.37752.16353,6.8693,6.8693,0,0,1-2.34884-1.50147,6.96076,6.96076,0,0,1-1.54607-2.334,7.87087,7.87087,0,0,1-.5649-3.03267,8.092,8.092,0,0,1,.55-3.0178,6.90648,6.90648,0,0,1,1.53121-2.3637,7.00914,7.00914,0,0,1,2.31909-1.5312,7.9457,7.9457,0,0,1,5.6937-.0446,5.79265,5.79265,0,0,1,2.14071,1.45687,6.56235,6.56235,0,0,1,1.3528,2.30424A9.14754,9.14754,0,0,1,174.88632,306.95236Zm-2.82454-1.12983a5.31573,5.31573,0,0,0-.28246-1.56093,3.5842,3.5842,0,0,0-.7433-1.26361,3.49457,3.49457,0,0,0-1.219-.84736,4.31472,4.31472,0,0,0-1.70959-.31219,4.51838,4.51838,0,0,0-1.67986.31219,4.36134,4.36134,0,0,0-1.36766.84736,4.46192,4.46192,0,0,0-.95144,1.26361,4.03121,4.03121,0,0,0-.43112,1.56093Zm-17.56895,1.219a6.15853,6.15853,0,0,0-.29732-1.90285,4.856,4.856,0,0,0-.892-1.63527,4.2699,4.2699,0,0,0-1.47175-1.12981,4.701,4.701,0,0,0-2.03665-.41625,4.48482,4.48482,0,0,0-1.94744.41625,4.58027,4.58027,0,0,0-1.50146,1.12981,5.21228,5.21228,0,0,0-.96631,1.63527,5.63288,5.63288,0,0,0,0,3.86516,5.03263,5.03263,0,0,0,.96631,1.6204,4.67952,4.67952,0,0,0,1.50146,1.115,4.485,4.485,0,0,0,1.94744.41624,4.56314,4.56314,0,0,0,2.03665-.43111,4.43314,4.43314,0,0,0,1.47175-1.14469,4.85582,4.85582,0,0,0,.892-1.63526A6.15858,6.15858,0,0,0,154.49283,307.04155Zm-9.3656,4.84632v2.22991h-2.70562V291.64034h2.79482v10.49542h.08919a5.89833,5.89833,0,0,1,1.99205-1.76906,6.02588,6.02588,0,0,1,3.03267-.72843,7.09325,7.09325,0,0,1,2.86915.5649,6.60979,6.60979,0,0,1,2.22989,1.5758,7.08539,7.08539,0,0,1,1.442,2.3637,8.21641,8.21641,0,0,1,.50544,2.89888,8.339,8.339,0,0,1-.50544,2.91374,7.18178,7.18178,0,0,1-1.42714,2.37857,6.59127,6.59127,0,0,1-2.22989,1.59066,7.19017,7.19017,0,0,1-2.94349.57977,6.48118,6.48118,0,0,1-2.884-.669,5.42307,5.42307,0,0,1-2.20016-1.94745Zm-10.61164,2.22991q-.0594-.53519-.0892-1.20415t-.02973-1.115h-.05947a4.60335,4.60335,0,0,1-1.79878,1.91771,5.203,5.203,0,0,1-2.80968.7879,5.74837,5.74837,0,0,1-2.3637-.446,4.36047,4.36047,0,0,1-1.63526-1.23389,5.27212,5.27212,0,0,1-.95143-1.82852,7.72376,7.72376,0,0,1-.31218-2.2299v-8.74123h2.7948v7.7898a9.8478,9.8478,0,0,0,.1338,1.65013,3.94492,3.94492,0,0,0,.49058,1.38254,2.66024,2.66024,0,0,0,.98116.95143,3.20969,3.20969,0,0,0,1.60553.35678,3.37078,3.37078,0,0,0,2.73534-1.26361,5.14368,5.14368,0,0,0,1.04063-3.37459v-7.49248h2.79482v11.06033q0,.56492.02973,1.45687t.08919,1.5758Zm-26.01285-11.7739h.05946l9.39534-9.2764h4.07329L111.803,302.70067l10.8522,11.41711h-4.22195l-9.871-10.88193h-.05946v10.88193h-2.94348v-21.0503h2.94348Zm-16.34723,11.7739H89.3607V291.64034h2.79481Zm-11.35494-6.71945q-1.04062,0-2.15557.0892a9.956,9.956,0,0,0-2.02178.35679,3.82343,3.82343,0,0,0-1.50147.80276,1.826,1.826,0,0,0-.59464,1.42714,1.97416,1.97416,0,0,0,.25272,1.04062,2.0996,2.0996,0,0,0,.669.68384,2.69189,2.69189,0,0,0,.9217.37165,5.14779,5.14779,0,0,0,1.04062.10406A3.84759,3.84759,0,0,0,80.42892,311.1a4.25959,4.25959,0,0,0,1.05549-2.95834v-.7433Zm.68384-2.4083a2.80371,2.80371,0,0,0-.95142-2.334,3.9381,3.9381,0,0,0-2.52723-.75817,5.54861,5.54861,0,0,0-2.24477.46085,5.68427,5.68427,0,0,0-1.76905,1.17442l-1.48661-1.78393a7.50607,7.50607,0,0,1,2.54209-1.54607,9.08611,9.08611,0,0,1,3.22593-.5649,7.28427,7.28427,0,0,1,2.63129.43111,4.97645,4.97645,0,0,1,1.82852,1.17442,4.811,4.811,0,0,1,1.07035,1.75419,6.47506,6.47506,0,0,1,.35678,2.17044V311.323q0,.71358.04461,1.50147a7.71149,7.71149,0,0,0,.16352,1.29335H81.8412a8.80076,8.80076,0,0,1-.23786-2.02178h-.0892a5.41221,5.41221,0,0,1-1.94744,1.75419,5.84243,5.84243,0,0,1-2.78.62437,7.282,7.282,0,0,1-1.73932-.223,5.05426,5.05426,0,0,1-1.65013-.72843,4.114,4.114,0,0,1-1.23388-1.338,3.97976,3.97976,0,0,1-.49058-2.05151,3.60771,3.60771,0,0,1,.86223-2.54209,5.46216,5.46216,0,0,1,2.25964-1.42713,12.76066,12.76066,0,0,1,3.15159-.63925q1.75422-.14865,3.53812-.14865Zm-16.61752,9.12775q-.05944-.53519-.08919-1.20415t-.02973-1.115H64.6885a4.603,4.603,0,0,1-1.79879,1.91771,5.20319,5.20319,0,0,1-2.80968.7879,5.74873,5.74873,0,0,1-2.3637-.446,4.36047,4.36047,0,0,1-1.63526-1.23389,5.27142,5.27142,0,0,1-.95142-1.82852,7.7241,7.7241,0,0,1-.31219-2.2299v-8.74123h2.79481v7.7898a9.84674,9.84674,0,0,0,.1338,1.65013,3.94511,3.94511,0,0,0,.49057,1.38254,2.66031,2.66031,0,0,0,.98116.95143,3.20975,3.20975,0,0,0,1.60554.35678,3.37089,3.37089,0,0,0,2.73535-1.26361,5.14351,5.14351,0,0,0,1.04061-3.37459v-7.49248h2.79482v11.06033q0,.56492.02974,1.45687t.08918,1.5758ZM51.57936,302.31415H47.83313V309.658a2.79028,2.79028,0,0,0,.47571,1.82852,1.90292,1.90292,0,0,0,1.51634.55,4.25937,4.25937,0,0,0,.83249-.08919,3.18407,3.18407,0,0,0,.80277-.26759l.0892,2.28937a6.77906,6.77906,0,0,1-1.115.28245,7.49832,7.49832,0,0,1-1.26361.10406,4.02746,4.02746,0,0,1-3.04753-1.10008,4.60022,4.60022,0,0,1-1.05549-3.30026v-7.64114H42.36243v-2.28937h2.70562v-4.04355h2.76508v4.04355h3.74623Zm-17.77706.74331q0-.56493-.02973-1.45688t-.0892-1.5758h2.64616q.05946.53519.0892,1.23388t.02973,1.14469h.08919a4.87723,4.87723,0,0,1,1.73933-2.00692,4.55411,4.55411,0,0,1,2.57182-.75816,4.33784,4.33784,0,0,1,1.10009.11893L41.83,302.34388a5.25957,5.25957,0,0,0-1.27848-.14865,3.879,3.879,0,0,0-1.75419.37164,3.58161,3.58161,0,0,0-1.23388.996,4.2109,4.2109,0,0,0-.72844,1.442,6.09,6.09,0,0,0-.23785,1.7096v7.40328H33.8023Zm-4.87336-8.11686a1.66132,1.66132,0,0,1-.55,1.27848,1.88667,1.88667,0,0,1-1.32307.50545,1.80573,1.80573,0,0,1-1.30821-.52032,1.69648,1.69648,0,0,1-.53518-1.26361,1.73079,1.73079,0,0,1,.53518-1.29334,1.80573,1.80573,0,0,1,1.30821-.52032,1.85674,1.85674,0,0,1,1.32307.52032A1.70784,1.70784,0,0,1,28.92894,294.9406Zm-.4757,19.17718H25.65842v-14.093h2.79482Zm-14.71467-3.80571h.08919l6.33293-17.24459H23.342l-8.26551,21.0503H12.34116l-8.20605-21.0503H7.40564Z"/></clipPath><clipPath id="clip-path-2"><polygon class="cls-3" points="106.848 5.386 22.634 45.94 1.831 137.068 60.113 210.149 153.588 210.149 211.865 137.068 191.068 45.94 106.848 5.386"/></clipPath><clipPath id="clip-path-3"><rect class="cls-2" x="-47.68866" y="-42.42649" width="623.27002" height="307.36604"/></clipPath><clipPath id="clip-path-4"><rect class="cls-2" x="1.83143" y="5.38601" width="210.03346" height="204.91069"/></clipPath><clipPath id="clip-path-7"><polygon class="cls-3" points="22.646 45.956 104.774 196.636 191.057 45.956 22.646 45.956"/></clipPath><clipPath id="clip-path-9"><polygon class="cls-3" points="106.848 5.048 190.947 45.979 156.572 106.134 55.44 106.134 22.749 45.979 106.848 5.048"/></clipPath></defs><title>virtualkubelet-icon-color</title><path class="cls-5" d="M211.86489,302.31415h-3.74625V309.658a2.78993,2.78993,0,0,0,.47572,1.82852,1.903,1.903,0,0,0,1.51633.55,4.25906,4.25906,0,0,0,.83249-.08919,3.18428,3.18428,0,0,0,.80278-.26759l.08919,2.28937a6.77687,6.77687,0,0,1-1.11495.28245,7.49841,7.49841,0,0,1-1.26361.10406,4.02751,4.02751,0,0,1-3.04754-1.10008,4.6,4.6,0,0,1-1.0555-3.30026v-7.64114h-2.70561v-2.28937h2.70561v-4.04355h2.76509v4.04355h3.74625Zm-11.26575,4.63821v.4757a3.82441,3.82441,0,0,1-.02974.47572H189.39015a4.22736,4.22736,0,0,0,.40138,1.67986,4.41953,4.41953,0,0,0,.996,1.36768,4.65206,4.65206,0,0,0,3.18133,1.23387,4.70661,4.70661,0,0,0,2.46777-.62437,5.03585,5.03585,0,0,0,1.63525-1.51633l1.96233,1.5758a6.967,6.967,0,0,1-2.661,2.1853,8.58855,8.58855,0,0,1-6.37752.16353,6.86949,6.86949,0,0,1-2.34884-1.50147,6.96073,6.96073,0,0,1-1.54606-2.334,7.87087,7.87087,0,0,1-.56491-3.03267,8.09215,8.09215,0,0,1,.55-3.0178,6.90651,6.90651,0,0,1,1.53122-2.3637,7.009,7.009,0,0,1,2.31908-1.5312,7.94573,7.94573,0,0,1,5.69371-.0446,5.79253,5.79253,0,0,1,2.1407,1.45687,6.56235,6.56235,0,0,1,1.3528,2.30424A9.14754,9.14754,0,0,1,200.59914,306.95236Zm-2.82454-1.12983a5.31573,5.31573,0,0,0-.28245-1.56093,3.58452,3.58452,0,0,0-.74331-1.26361,3.49462,3.49462,0,0,0-1.219-.84736,4.31477,4.31477,0,0,0-1.7096-.31219,4.51833,4.51833,0,0,0-1.67985.31219,4.36128,4.36128,0,0,0-1.36767.84736,4.46192,4.46192,0,0,0-.95144,1.26361,4.03085,4.03085,0,0,0-.43111,1.56093Zm-15.6661,8.29525h-2.79481V291.64034h2.79481Zm-7.22218-7.16542v.4757a3.82441,3.82441,0,0,1-.02974.47572H163.67732a4.22753,4.22753,0,0,0,.40138,1.67986,4.41945,4.41945,0,0,0,.996,1.36768,4.65192,4.65192,0,0,0,3.18131,1.23387,4.70661,4.70661,0,0,0,2.46777-.62437,5.03613,5.03613,0,0,0,1.63527-1.51633l1.96231,1.5758a6.967,6.967,0,0,1-2.661,2.1853,8.58855,8.58855,0,0,1-6.37752.16353,6.8693,6.8693,0,0,1-2.34884-1.50147,6.96076,6.96076,0,0,1-1.54607-2.334,7.87087,7.87087,0,0,1-.5649-3.03267,8.092,8.092,0,0,1,.55-3.0178,6.90648,6.90648,0,0,1,1.53121-2.3637,7.00914,7.00914,0,0,1,2.31909-1.5312,7.9457,7.9457,0,0,1,5.6937-.0446,5.79265,5.79265,0,0,1,2.14071,1.45687,6.56235,6.56235,0,0,1,1.3528,2.30424A9.14754,9.14754,0,0,1,174.88632,306.95236Zm-2.82454-1.12983a5.31573,5.31573,0,0,0-.28246-1.56093,3.5842,3.5842,0,0,0-.7433-1.26361,3.49457,3.49457,0,0,0-1.219-.84736,4.31472,4.31472,0,0,0-1.70959-.31219,4.51838,4.51838,0,0,0-1.67986.31219,4.36134,4.36134,0,0,0-1.36766.84736,4.46192,4.46192,0,0,0-.95144,1.26361,4.03121,4.03121,0,0,0-.43112,1.56093Zm-17.56895,1.219a6.15853,6.15853,0,0,0-.29732-1.90285,4.856,4.856,0,0,0-.892-1.63527,4.2699,4.2699,0,0,0-1.47175-1.12981,4.701,4.701,0,0,0-2.03665-.41625,4.48482,4.48482,0,0,0-1.94744.41625,4.58027,4.58027,0,0,0-1.50146,1.12981,5.21228,5.21228,0,0,0-.96631,1.63527,5.63288,5.63288,0,0,0,0,3.86516,5.03263,5.03263,0,0,0,.96631,1.6204,4.67952,4.67952,0,0,0,1.50146,1.115,4.485,4.485,0,0,0,1.94744.41624,4.56314,4.56314,0,0,0,2.03665-.43111,4.43314,4.43314,0,0,0,1.47175-1.14469,4.85582,4.85582,0,0,0,.892-1.63526A6.15858,6.15858,0,0,0,154.49283,307.04155Zm-9.3656,4.84632v2.22991h-2.70562V291.64034h2.79482v10.49542h.08919a5.89833,5.89833,0,0,1,1.99205-1.76906,6.02588,6.02588,0,0,1,3.03267-.72843,7.09325,7.09325,0,0,1,2.86915.5649,6.60979,6.60979,0,0,1,2.22989,1.5758,7.08539,7.08539,0,0,1,1.442,2.3637,8.21641,8.21641,0,0,1,.50544,2.89888,8.339,8.339,0,0,1-.50544,2.91374,7.18178,7.18178,0,0,1-1.42714,2.37857,6.59127,6.59127,0,0,1-2.22989,1.59066,7.19017,7.19017,0,0,1-2.94349.57977,6.48118,6.48118,0,0,1-2.884-.669,5.42307,5.42307,0,0,1-2.20016-1.94745Zm-10.61164,2.22991q-.0594-.53519-.0892-1.20415t-.02973-1.115h-.05947a4.60335,4.60335,0,0,1-1.79878,1.91771,5.203,5.203,0,0,1-2.80968.7879,5.74837,5.74837,0,0,1-2.3637-.446,4.36047,4.36047,0,0,1-1.63526-1.23389,5.27212,5.27212,0,0,1-.95143-1.82852,7.72376,7.72376,0,0,1-.31218-2.2299v-8.74123h2.7948v7.7898a9.8478,9.8478,0,0,0,.1338,1.65013,3.94492,3.94492,0,0,0,.49058,1.38254,2.66024,2.66024,0,0,0,.98116.95143,3.20969,3.20969,0,0,0,1.60553.35678,3.37078,3.37078,0,0,0,2.73534-1.26361,5.14368,5.14368,0,0,0,1.04063-3.37459v-7.49248h2.79482v11.06033q0,.56492.02973,1.45687t.08919,1.5758Zm-26.01285-11.7739h.05946l9.39534-9.2764h4.07329L111.803,302.70067l10.8522,11.41711h-4.22195l-9.871-10.88193h-.05946v10.88193h-2.94348v-21.0503h2.94348Zm-16.34723,11.7739H89.3607V291.64034h2.79481Zm-11.35494-6.71945q-1.04062,0-2.15557.0892a9.956,9.956,0,0,0-2.02178.35679,3.82343,3.82343,0,0,0-1.50147.80276,1.826,1.826,0,0,0-.59464,1.42714,1.97416,1.97416,0,0,0,.25272,1.04062,2.0996,2.0996,0,0,0,.669.68384,2.69189,2.69189,0,0,0,.9217.37165,5.14779,5.14779,0,0,0,1.04062.10406A3.84759,3.84759,0,0,0,80.42892,311.1a4.25959,4.25959,0,0,0,1.05549-2.95834v-.7433Zm.68384-2.4083a2.80371,2.80371,0,0,0-.95142-2.334,3.9381,3.9381,0,0,0-2.52723-.75817,5.54861,5.54861,0,0,0-2.24477.46085,5.68427,5.68427,0,0,0-1.76905,1.17442l-1.48661-1.78393a7.50607,7.50607,0,0,1,2.54209-1.54607,9.08611,9.08611,0,0,1,3.22593-.5649,7.28427,7.28427,0,0,1,2.63129.43111,4.97645,4.97645,0,0,1,1.82852,1.17442,4.811,4.811,0,0,1,1.07035,1.75419,6.47506,6.47506,0,0,1,.35678,2.17044V311.323q0,.71358.04461,1.50147a7.71149,7.71149,0,0,0,.16352,1.29335H81.8412a8.80076,8.80076,0,0,1-.23786-2.02178h-.0892a5.41221,5.41221,0,0,1-1.94744,1.75419,5.84243,5.84243,0,0,1-2.78.62437,7.282,7.282,0,0,1-1.73932-.223,5.05426,5.05426,0,0,1-1.65013-.72843,4.114,4.114,0,0,1-1.23388-1.338,3.97976,3.97976,0,0,1-.49058-2.05151,3.60771,3.60771,0,0,1,.86223-2.54209,5.46216,5.46216,0,0,1,2.25964-1.42713,12.76066,12.76066,0,0,1,3.15159-.63925q1.75422-.14865,3.53812-.14865Zm-16.61752,9.12775q-.05944-.53519-.08919-1.20415t-.02973-1.115H64.6885a4.603,4.603,0,0,1-1.79879,1.91771,5.20319,5.20319,0,0,1-2.80968.7879,5.74873,5.74873,0,0,1-2.3637-.446,4.36047,4.36047,0,0,1-1.63526-1.23389,5.27142,5.27142,0,0,1-.95142-1.82852,7.7241,7.7241,0,0,1-.31219-2.2299v-8.74123h2.79481v7.7898a9.84674,9.84674,0,0,0,.1338,1.65013,3.94511,3.94511,0,0,0,.49057,1.38254,2.66031,2.66031,0,0,0,.98116.95143,3.20975,3.20975,0,0,0,1.60554.35678,3.37089,3.37089,0,0,0,2.73535-1.26361,5.14351,5.14351,0,0,0,1.04061-3.37459v-7.49248h2.79482v11.06033q0,.56492.02974,1.45687t.08918,1.5758ZM51.57936,302.31415H47.83313V309.658a2.79028,2.79028,0,0,0,.47571,1.82852,1.90292,1.90292,0,0,0,1.51634.55,4.25937,4.25937,0,0,0,.83249-.08919,3.18407,3.18407,0,0,0,.80277-.26759l.0892,2.28937a6.77906,6.77906,0,0,1-1.115.28245,7.49832,7.49832,0,0,1-1.26361.10406,4.02746,4.02746,0,0,1-3.04753-1.10008,4.60022,4.60022,0,0,1-1.05549-3.30026v-7.64114H42.36243v-2.28937h2.70562v-4.04355h2.76508v4.04355h3.74623Zm-17.77706.74331q0-.56493-.02973-1.45688t-.0892-1.5758h2.64616q.05946.53519.0892,1.23388t.02973,1.14469h.08919a4.87723,4.87723,0,0,1,1.73933-2.00692,4.55411,4.55411,0,0,1,2.57182-.75816,4.33784,4.33784,0,0,1,1.10009.11893L41.83,302.34388a5.25957,5.25957,0,0,0-1.27848-.14865,3.879,3.879,0,0,0-1.75419.37164,3.58161,3.58161,0,0,0-1.23388.996,4.2109,4.2109,0,0,0-.72844,1.442,6.09,6.09,0,0,0-.23785,1.7096v7.40328H33.8023Zm-4.87336-8.11686a1.66132,1.66132,0,0,1-.55,1.27848,1.88667,1.88667,0,0,1-1.32307.50545,1.80573,1.80573,0,0,1-1.30821-.52032,1.69648,1.69648,0,0,1-.53518-1.26361,1.73079,1.73079,0,0,1,.53518-1.29334,1.80573,1.80573,0,0,1,1.30821-.52032,1.85674,1.85674,0,0,1,1.32307.52032A1.70784,1.70784,0,0,1,28.92894,294.9406Zm-.4757,19.17718H25.65842v-14.093h2.79482Zm-14.71467-3.80571h.08919l6.33293-17.24459H23.342l-8.26551,21.0503H12.34116l-8.20605-21.0503H7.40564Z"/><g class="cls-6"><rect class="cls-7" x="-37.70059" y="46.52927" width="290.56328" height="317.59242"/></g><g class="cls-8"><g class="cls-9"><path class="cls-10" d="M160.16779,223.81066H53.53436l-66.48508-83.37L10.77959,36.487,106.84816-9.77635,202.92255,36.487,226.647,140.44063ZM66.69146,196.48924H147.009l50.07371-62.79559-17.86965-78.2998L106.84816,20.54836,34.4874,55.39385l-17.87382,78.2998Z"/></g></g><g class="cls-11"><g class="cls-12"><g class="cls-8"><g class="cls-12"><path class="cls-10" d="M160.16779,223.81066H53.53436l-66.48508-83.37L10.77959,36.487,106.84816-9.77635,202.92255,36.487,226.647,140.44063ZM66.69146,196.48924H147.009l50.07371-62.79559-17.86965-78.2998L106.84816,20.54836,34.4874,55.39385l-17.87382,78.2998Z"/></g></g><g class="cls-13"><g class="cls-12"><rect class="cls-14" x="14.10816" y="37.41781" width="185.48685" height="167.75611"/></g></g></g></g><polygon class="cls-2" points="106.848 5.386 22.634 45.94 1.831 137.068 60.113 210.149 153.588 210.149 211.865 137.068 191.068 45.94 106.848 5.386"/><g class="cls-15"><g class="cls-9"><rect class="cls-14" x="14.21145" y="-3.49038" width="185.27342" height="118.16209"/></g></g></svg>