<?xml version="1.0" encoding="UTF-8"?><svg id="Layer_1" xmlns="http://www.w3.org/2000/svg" viewBox="0 0 500 245.57194"><defs><style>.cls-1,.cls-2{fill:#fff;}.cls-3{opacity:.8;}.cls-2{fill-rule:evenodd;}</style></defs><g><path class="cls-1" d="m141.15988,158.88644c.86975-.23723,1.89762-.47446,3.24179-.71166,1.35854-.22618,2.73439-.33202,4.11153-.31629,1.23684-.05395,2.47233.13407,3.63715.55351.89481.34634,1.68476.91841,2.29298,1.66057.58102.74327.98648,1.6083,1.18602,2.53039.25781,1.06157.39048,2.14964.39534,3.24206v9.80522h-4.8232v-9.25172c.08096-1.14319-.13703-2.28776-.63254-3.32114-.56866-.71166-1.4695-1.07202-2.37205-.94889-.37069-.01035-.74149.01614-1.10694.07908-.39534,0-.71161.07908-1.02785.07908v13.36358h-4.90222v-16.7638Zm-9.01377,7.98652c.05327-1.24459-.24838-2.47869-.86977-3.55835-1.13675-1.44116-3.22648-1.68786-4.66753-.55101-.20462.16142-.38955.34637-.55097.55101-.68536,1.05558-1.01762,2.30164-.94882,3.55835-.05665,1.28031.27401,2.54796.94882,3.63743,1.02751,1.44116,3.02867,1.77642,4.46972.74884.28939-.20636.54244-.45943.74878-.74884.62079-1.10867.92188-2.36784.86977-3.63743m4.98129,0c.02777,1.26126-.1594,2.51806-.55347,3.7165-.37571,1.083-.96752,2.07838-1.73951,2.92575-1.58285,1.7106-3.83925,2.63639-6.16732,2.53039-1.18856.00339-2.36769-.211-3.47899-.63259-1.01884-.43783-1.93463-1.0843-2.68831-1.89778-.77747-.84328-1.36999-1.83987-1.73949-2.92575-.84341-2.40588-.84341-5.02712,0-7.433.38869-1.05323.97961-2.02027,1.73949-2.84665.75699-.79005,1.67337-1.41002,2.68831-1.81872,1.07492-.45199,2.2344-.66772,3.39994-.6326,1.1629-.00364,2.31616.21093,3.39994.6326.99927.43764,1.91029,1.05398,2.68831,1.81872.75988.82637,1.3508,1.79342,1.73949,2.84665.48569,1.17808.72777,2.44232.71161,3.7165m-26.64592,9.17262c-3.7162,0-6.56266-1.02793-8.46028-3.08389-1.9767-2.05593-2.92552-4.98169-2.92552-8.77727-.01477-1.72534.27982-3.43936.86977-5.06075,1.07033-2.81389,3.3268-5.01268,6.16732-6.00967,1.49266-.55004,3.07446-.81818,4.66499-.7908.87545-.00682,1.74944.07264,2.60932.23723.79073.15814,1.5023.31629,2.05577.47444.50993.1586,1.01136.34335,1.5023.55352.31555.10579.60997.26639.86975.47444l-1.5023,4.11188c-.77123-.42384-1.59554-.74294-2.45111-.94889-1.03367-.26298-2.09614-.3958-3.16273-.39538-.78048.00912-1.5545.14259-2.29297.39538-.75471.24897-1.43453.68409-1.9767,1.26519-.59904.65004-1.0806,1.39921-1.42323,2.21409-.36338,1.06969-.55031,2.19139-.55347,3.32111-.02084.98479.08545,1.96816.31626,2.92575.22298.85102.59799,1.65468,1.10695,2.37224.56072.67185,1.26264,1.21182,2.05578,1.58149.94889.40241,1.97461.59135,3.00459.55351.66177-.00692,1.32225-.05978,1.9767-.15815.53645-.05171,1.06629-.15768,1.58137-.31628.40295-.10775.79902-.23979,1.18603-.39538.30133-.16512.6194-.29767.94882-.39538l1.42323,4.11188c-.95198.56987-1.99518.97113-3.08365,1.18611-1.46633.40801-2.98541.59457-4.50689.55351m-19.52983-10.83319c-.00229-.40692-.08282-.80961-.23721-1.18611-.13645-.36641-.3227-.71231-.55348-1.02793-.26126-.32337-.58367-.5921-.94882-.7908-.44936-.19687-.93278-.30431-1.42323-.31629-.4944-.02669-.98666.08271-1.42323.31629-.37651.14398-.70519.3905-.94882.71168-.27334.32961-.48736.70417-.63255,1.10703-.15167.40881-.25773.8331-.31627,1.26519h6.48358l.00002-.07906Zm-11.46489,1.81872c-.02252-1.37738.21903-2.74632.71161-4.03279.40463-1.08251,1.0541-2.05677,1.89764-2.84665.74551-.74755,1.63258-1.33895,2.60932-1.73963.98458-.37448,2.03031-.56219,3.08366-.55352,2.17598-.12468,4.30263.68006,5.85104,2.21408,1.42322,1.50243,2.13483,3.7165,2.13483,6.64225v.94888c0,.31629-.07908.63261-.07908.86983h-11.14857c.04941.97856.58312,1.86814,1.42322,2.37224,1.00058.60257,2.15338.90453,3.32086.86982.8753.00313,1.74893-.07629,2.60932-.23723.7331-.13005,1.44922-.34225,2.13483-.63259l.63256,3.95371c-.3318.15835-.67546.29055-1.02784.39538-.49006.15108-.99293.25695-1.5023.31629-.55347.07908-1.10695.15813-1.73949.23721-.60396.06414-1.21133.09054-1.81857.07908-1.37839.0372-2.75007-.20487-4.03247-.71165-1.08242-.40466-2.05661-1.05418-2.84642-1.89778-.79001-.78956-1.36207-1.77028-1.66044-2.84665-.40106-1.08736-.58897-2.24178-.55347-3.40021m-3.2418-.07908c.00265,1.26585-.21129,2.52282-.63255,3.7165-.38869,1.05324-.97962,2.02027-1.73951,2.84665-.80141.81083-1.77393,1.43222-2.84642,1.81872-1.21925.42778-2.5032.64178-3.79527.63259-.63354.00999-1.26713-.01641-1.89764-.07908l-1.89764-.23721c-.61226-.06695-1.21967-.1726-1.81858-.31629-.55347-.15815-1.10695-.23723-1.5023-.39538v-24.19675l4.90223-.7908v8.61919c.5638-.23154,1.14557-.41666,1.73949-.55351.62308-.13434,1.26092-.1875,1.89764-.15815,1.1124-.01211,2.21555.20315,3.2418.6326.93191.39559,1.7481,1.02139,2.37204,1.81872.65962.84438,1.14354,1.81228,1.42323,2.84664.39395,1.22569.581,2.50844.55347,3.79558m-4.98129-.15815c0-3.16298-1.18603-4.74446-3.47901-4.74446-.50412.01355-1.00641.06642-1.5023.15815-.40585.1305-.80214.28904-1.18602.47446v8.9354c.31069.07269.63038.09934.94882.07908.39534,0,.79073.07908,1.18602.07908,1.16223.07664,2.28712-.42664,3.00459-1.34426.7127-1.07599,1.072-2.34754,1.02784-3.63743m-15.97178,8.22373c-.86974.23723-1.89763.47446-3.24178.71167-1.35855.22617-2.7344.332-4.11155.31628-1.23685.05396-2.47233-.13407-3.63715-.55351-.89482-.34635-1.68476-.91841-2.29299-1.66057-.56638-.75216-.97026-1.61386-1.18602-2.53039-.26271-1.06067-.39545-2.14935-.39533-3.24206v-9.64706h4.82316v9.01449c-.06943,1.16802.14772,2.33531.63256,3.40021.53118.76551,1.45029,1.16381,2.37204,1.02793.37069.01035.7415-.01613,1.10696-.07908.39534,0,.71161-.07908,1.02784-.07908v-13.36354h4.90223v16.6847l.00006.00002Zm-22.6135.55352c-.47441-.71167-1.02784-1.58149-1.66043-2.45131-.63591-.90759-1.32224-1.7788-2.05576-2.60947-.71162-.86982-1.50231-1.66055-2.29298-2.53039-.75074-.75485-1.54263-1.46759-2.37205-2.13501v9.64708h-5.13974v-22.77341h5.13944v8.6191c1.34416-1.42334,2.68832-2.84665,4.03248-4.42817,1.34416-1.50241,2.60925-2.92576,3.79528-4.19096h6.08824c-1.58136,1.81872-3.08365,3.63744-4.66499,5.29799-1.58137,1.73963-3.2418,3.40021-4.98129,5.13984,1.92099,1.63258,3.69375,3.43196,5.29756,5.37707,1.77104,2.1924,3.40809,4.48973,4.90223,6.87948h-6.08827l.00031.15816Z"/><path class="cls-1" d="m240.39043,157.06773l-3.32088,3.95371c-1.38945-1.74761-3.46321-2.81336-5.69291-2.92575-3.50688.01148-6.34046,2.86389-6.32898,6.37104v.00005c.00017.06404.00135.12806.00351.19208-.17595,3.48801,2.50879,6.45825,5.99653,6.63423.10956.00552.21922.00819.32892.00802,2.17542-.12018,4.21799-1.0848,5.69291-2.68852l3.39992,3.55835c-2.47368,2.50774-5.81018,3.97819-9.32999,4.11186-6.32182.22516-11.62918-4.71756-11.85433-11.03988-.00694-.19461-.0089-.38935-.0059-.58406,0-6.56318,5.21851-11.46579,12.09742-11.46579,3.38183.1257,6.59547,1.50711,9.01377,3.87466Zm2.76738,18.97786v-23.95956h5.61385v23.95956h-5.61385Zm27.83201-8.69818c0,5.37705-3.79526,8.9354-9.48818,8.9354s-9.56725-3.55835-9.56725-8.9354,3.79526-8.85634,9.56725-8.85634c5.6929,0,9.48814,3.47927,9.48814,8.85634h.00003Zm-13.44159.07908c0,2.68852,1.58136,4.50723,3.87434,4.50723s3.87432-1.81872,3.87432-4.50723-1.58136-4.50723-3.87432-4.50723-3.87436,1.81872-3.87436,4.50723h.00002Zm33.44583,8.61911h-5.61382v-2.84665c-1.16168,2.02205-3.36478,3.21548-5.69291,3.08389-3.79526,0-6.24639-2.60947-6.24639-6.64225v-10.99135h5.61384v9.40986c0,2.05593,1.10694,3.32112,2.92553,3.32112,2.13484,0,3.39992-1.73964,3.39992-4.11186v-8.61911h5.61384v17.39633Zm21.98093,0h-5.61384v-2.29316c-1.24039,1.62267-3.1764,2.56141-5.21853,2.53039-4.90222,0-8.14402-3.63743-8.14402-9.01449,0-5.29799,3.16273-8.85634,7.98591-8.85634,2.09794-.08561,4.10537.85915,5.37661,2.53038v-8.85629h5.61384v23.95954l.00003-.00003Zm-5.61384-8.61911c0-2.68853-1.58138-4.50723-3.87434-4.50723s-3.87434,1.81872-3.87434,4.50723,1.58135,4.58632,3.87434,4.58632c2.37207-.0791,3.87437-1.89782,3.87437-4.58633l-.00003.00002Z"/><path class="cls-1" d="m333.45367,176.04559l-10.43702-13.91711v13.91711h-5.37661v-22.61529h5.06037l10.43702,13.99618v-13.99618h5.37661v22.61529h-5.06037Zm24.98557-11.38671v11.38671h-5.45572v-1.97686c-1.29426,1.57205-3.26569,2.42542-5.29757,2.29316-3.71622,0-6.00918-2.29316-6.00918-5.45617,0-3.32114,2.37204-5.21892,6.7208-5.29799h4.58595v-.23723c0-1.73964-1.10696-2.7676-3.39992-2.7676-1.81857.1123-3.59473.59675-5.21849,1.42334l-1.58138-3.7165c2.4991-1.27428,5.25986-1.951,8.06495-1.97687,4.82315.07912,7.59053,2.45135,7.59053,6.32601h.00003Zm-5.45572,5.53522v-1.58149h-3.55807c-1.66042,0-2.53019.55351-2.53019,1.89778,0,1.26519.86977,2.05593,2.45111,2.05593,1.60517.10683,3.08773-.86014,3.63715-2.37224v.00002Zm20.55773,4.98169c-1.43448.77124-3.03636,1.17853-4.66499,1.18611-3.39992,0-5.77195-1.89778-5.77195-5.53522v-7.67023h-2.45111v-3.63744h2.45111v-4.82354h5.53476v4.82354h4.58595v3.71654h-4.58595v6.80041c0,1.34426.5535,1.97686,1.58135,1.89778.73779-.06248,1.45965-.24964,2.13484-.55352l1.186,3.79556Zm8.53933-21.50824c.06367,1.59468-1.17731,2.93906-2.77188,3.00277-.05121.00206-.10241.00274-.15365.00205-1.63757-.02149-2.94762-1.36652-2.92616-3.00421.02112-1.60738,1.31891-2.90528,2.92616-2.92638,1.53315-.08259,2.84296,1.09342,2.92553,2.62669.00537.09961.00537.19944,0,.29905v.00003Zm-5.77195,22.37806v-17.39641h5.53476v17.39641h-5.53476Zm14.23228,0l-6.56264-17.39641h5.77195l3.71619,12.33562,3.79526-12.33563h5.5348l-6.56264,17.39642h-5.69291Zm30.75752-7.19579h-12.25559c.40054,1.93635,2.13529,3.30426,4.11153,3.24206,1.56622-.03073,3.06301-.6521,4.19061-1.73964l2.92553,2.84665c-1.96412,2.07892-4.73316,3.20392-7.59053,3.08389-5.69291,0-9.25098-3.55835-9.25098-8.85634,0-5.37707,3.71622-8.93542,9.0929-8.93542,6.08826,0,9.0929,4.03281,8.77653,10.35876v.00003Zm-5.37661-3.00483c.15452-1.80554-1.18382-3.3945-2.9892-3.54901-.13658-.01169-.27375-.01481-.41072-.00934-1.97669,0-3.24177,1.42334-3.63715,3.55835h7.03706Z"/><path class="cls-1" d="m444.07001,157.06773l-3.32088,3.95371c-1.38944-1.74762-3.46321-2.81337-5.69291-2.92575-3.50686.01148-6.34044,2.86389-6.32898,6.37104v.00005c.00021.06404.00135.12806.00353.19208-.17595,3.48801,2.50879,6.45825,5.99654,6.63423.10954.00552.21922.00819.32891.00802,2.17542-.12016,4.21799-1.08478,5.69291-2.68852l3.39992,3.55835c-2.47368,2.50776-5.81018,3.97821-9.32999,4.11186-6.32182.22515-11.62918-4.7176-11.85433-11.03993-.00692-.19459-.0089-.38932-.00589-.58401,0-6.56318,5.21849-11.46579,12.0974-11.46579,3.37831.14124,6.5866,1.52037,9.01376,3.87466Zm19.52985,10.27967c0,5.37705-3.79526,8.9354-9.48818,8.9354s-9.56722-3.55835-9.56722-8.9354,3.79526-8.85634,9.56722-8.85634c5.69291,0,9.48818,3.47927,9.48818,8.85634Zm-13.36255.07908c0,2.68852,1.58138,4.50723,3.87437,4.50723s3.87434-1.81872,3.87434-4.50723-1.58135-4.50723-3.87434-4.50723-3.8743,1.81872-3.8743,4.50723h-.00007Zm34.15744-2.37224v10.99133h-5.53476v-9.40986c.19246-1.63195-.97436-3.11095-2.60618-3.30343-.15843-.0187-.3181-.02462-.4775-.01769-2.05577,0-3.32088,1.42334-3.55807,3.55835v9.25172h-5.61384v-17.39641h5.61387v2.84665c1.22976-2.03126,3.48045-3.21751,5.85106-3.0839,3.79526-.07908,6.32545,2.53038,6.32545,6.56318l-.00003.00007Z"/><rect class="cls-1" x="328.07641" y="212.10499" width="154.48282" height="2.08419"/><rect class="cls-1" x="19.07808" y="212.10499" width="124.85844" height="2.08419"/><rect class="cls-1" x="188.93356" y="20.91809" width="1.70659" height="161.8324"/><rect class="cls-1" x="188.93356" y="20.91809" width="1.70647" height="161.8324"/><rect class="cls-1" x="188.93356" y="20.91809" width="1.70647" height="161.8324"/><polygon class="cls-1" points="191.22432 183.33465 189.39149 183.33465 189.39149 182.29255 189.14013 182.29255 189.14013 21.37602 191.22432 21.37602 191.22432 183.33465"/><path class="cls-2" d="m73.22073,75.36199l-2.87078.63797c0-.39873-.07975-.7975-.07975-1.19617-.00946-3.03615.81831-6.01615,2.39234-8.61244l5.58213,4.94418c.09088.09849.19899.17957.31899.23924-.3428.84044-.55783,1.72746-.63797,2.63157-.15949.07975-.39873.07975-.55821.15949l-4.14676,1.19617Zm10.84528-16.90588v7.81499c-.77788.24237-1.50679.62033-2.1531,1.11643-.23924-.15949-.47846-.39873-.7177-.55821l-5.66188-3.98725c2.31819-2.31475,5.30117-3.84805,8.53269-4.38596m-38.8357,18.02233c2.71132-11.88198,5.02393-21.92981,7.73525-33.81179,1.19617-5.34289,1.99361-6.7783,6.85804-9.56937,6.69856-3.90749,11.72248-6.69855,18.89951-10.84529,4.46571-2.55183,5.34291-2.39234,5.34291,3.11005v27.59169c-4.99863.61105-9.62561,2.95276-13.07811,6.61881l-2.39238-1.67464c-.29471-.17036-.49903-.46228-.55822-.7975-.22232-.75214-.66714-1.41934-1.27592-1.91383-1.12484-.90065-2.76683-.7189-3.66748.40594-.89814,1.12171-.72023,2.75849.39794,3.66104.36213.32067.8021.54066,1.27591.63797.31899.07974.63797.07974.95694.15949.25821.05709.50229.16557.71769.31898l2.23287,1.99361c-2.45202,3.62536-3.75784,7.904-3.74802,12.2807,0,.7975.07974,1.5949.15949,2.39234l-4.86444,1.03664c-.34739-.01022-.69489.01652-1.03664.07975l-.7177.23924c-3.18979.63796-6.37957,1.35565-9.64912,2.07335-4.38596,1.03664-4.54545.15949-3.58852-3.98723m44.4976-10.20733v-7.81495c3.20174.57728,6.16642,2.07347,8.53269,4.30622l-6.14035,4.38596c-.07974.07975-.15949.15949-.23924.15949-.6676-.44117-1.39189-.78989-2.1531-1.03664m13.71609,9.17069l-7.65552-1.75447c-.07958-.82712-.29513-1.63543-.63797-2.39234.07975-.07975.15949-.15949.23924-.15949l5.66189-5.02393c1.60903,2.61434,2.46453,5.62238,2.47209,8.69218-.07075.20478-.09792.42208-.07975.63797m-9.96811-42.185c4.14672,1.99363,7.09728,3.42903,11.24396,5.42264,5.74162,2.79107,11.48324,5.58214,17.30461,8.29346,1.43541,6.22009,2.87078,12.44018,4.22649,18.66028.87719,3.74801,1.27592,5.74162,2.1531,9.40989,1.35566,5.82137,1.19618,6.29984-4.78468,4.94418l-14.75278-3.34928c.06636-.63568.093-1.27488.07975-1.91388.03164-4.41665-1.30555-8.73467-3.82776-12.36045l2.07342-1.91385c.24991-.21146.55355-.34948.87719-.39871.77815-.05931,1.52407-.3356,2.1531-.7975,1.12458-.90097,1.30585-2.54301.40488-3.66759-.90097-1.12458-2.54301-1.30585-3.66759-.40488-.00229.00183-.00456.00366-.00684.0055h0c-.40015.29407-.72752.67601-.95694,1.11643-.15949.31898-.23924.55822-.39873.8772-.0849.25953-.25309.48378-.47846.63796l-2.39234,1.67464c-3.46343-3.65139-8.08481-5.99027-13.07811-6.61881v-16.82613c.07974-3.90749.39872-4.38596,3.82774-2.79107m-5.10367,50.23915c-.49951.0967-1.00645.15006-1.51515.15949-.47985.01322-.95997-.01346-1.43541-.07974l-.23924.47847-3.50883,6.45938c1.69543.57499,3.47289.87123,5.26316.87718,1.81577-.01246,3.61845-.30842,5.34289-.87718l-3.50876-6.37959c-.16102-.19373-.29514-.40832-.39873-.63796m6.2201-4.22648l7.6555,1.75439c-1.26035,3.09566-3.42896,5.73689-6.22009,7.57569l-3.03031-7.33655c.59832-.60834,1.13275-1.27636,1.5949-1.99363m-23.0463,1.67464l7.6555-1.75438c.46875.75883,1.03141,1.45546,1.67464,2.07337l-.23924.47847-2.79106,6.85804c-2.83831-1.84206-5.0385-4.51572-6.29984-7.6555m62.6794,13.47687c-3.66828,4.54545-5.3429,6.69856-9.01117,11.24397-4.14672,5.18341-7.496,9.40983-11.64274,14.59329-2.95055,3.74801-5.10365,3.82776-9.9681,3.82776h-33.49271c-6.37959,0-6.85806,0-10.76555-4.94417-3.90749-4.86444-6.93779-8.69218-10.76555-13.55661-3.0303-3.82776-3.82774-4.78468-6.85804-8.61244-4.70491-5.90111-5.50241-8.05423,1.83414-9.64911l22.64751-5.10366c1.76003,4.79856,5.10862,8.85063,9.48962,11.48324l-1.03664,2.39234c-.12192.30664-.34774.56068-.63797.7177-.70058.36861-1.26087.95692-1.59489,1.67464-.64858,1.29432-.12511,2.86935,1.16921,3.51793,1.29431.64858,2.86935.12511,3.51792-1.16921.00494-.00986.00982-.01975.01464-.02967l.00317-.00644c.21621-.45132.35119-.93722.39873-1.43541.01312-.32105-.01366-.64249-.07975-.95694-.0247-.27564.03068-.55255.15949-.7975l1.27592-2.31261c2.52318.95173,5.19802,1.43807,7.89472,1.43541,2.73101.01464,5.439-.49982,7.97438-1.51496l1.27592,2.31259c.17415.28663.23126.62932.15948.95694-.13646.75922-.02461,1.54221.31898,2.23285.62654,1.30513,2.19246,1.85523,3.49759,1.2287,1.30514-.62654,1.85524-2.19247,1.2287-3.4976-.00552-.0115-.01112-.02295-.0168-.03436l-.00457-.00936c-.19878-.45959-.49861-.86844-.87719-1.19618-.2464-.2124-.51358-.39942-.7975-.55822-.24183-.13621-.41541-.36766-.47846-.63796l-1.03664-2.55183c4.37951-2.61359,7.70798-6.67548,9.40983-11.48325l24.96011,5.66188c5.02392,1.35566,4.70491,3.11005,1.83414,6.77831"/><path class="cls-1" d="m317.78236,92.92132h-13.2855v31.05283h30.97278v-13.2855h-17.68729v-17.76733Zm66.50748.08002v17.68731h-17.60732l-.16008-.16006v13.44555h31.05283v-31.05284h-13.36547l.08004.08004Zm-79.79291-31.13287h13.36554l-.08004-.08003v-17.68731h17.60732l.08004.16007v-13.44555h-30.97285v31.05283Zm62.02561-31.05283v13.28549h17.76733v17.76735h13.2855v-31.05284h-31.05283Z"/><g class="cls-3"><path class="cls-1" d="m364.92183,61.86848l-17.76733-17.76734h19.36801v-13.28549h-31.05286v13.44555l17.68732,17.60731,11.76486-.00004Zm-16.00661,31.05283h-11.76486l14.72609,14.72609,3.04127,3.04126h-19.44808v13.2855h31.05283v-13.44557l-8.80362-8.80363-8.80362-8.80364Zm35.37461-31.05283v19.368l-3.04124-3.04125-14.72609-14.64606v11.76486l8.88367,8.80364,8.80362,8.80363h13.36554v-31.05282h-13.2855Zm-48.82019,17.60724l-17.60732-17.60731h-13.44547v31.05289h13.36554v-19.36799l17.68732,17.68732-.00007-11.76491Z"/></g></g><g><path class="cls-1" d="m161.52539,206.49167v2.63379h8.26953v3.76562h-8.26953v2.97803h9.10645v3.76562h-13.31543v-16.90869h13.31543v3.76562h-9.10645Z"/><path class="cls-1" d="m185.9375,206.91012v12.72461h-4.15967v-1.42773c-.7876,1.05859-2.1167,1.72314-3.71631,1.72314-2.75684,0-4.70117-2.04297-4.70117-4.92236v-8.09766h4.01221v7.16211c0,1.40283.88574,2.3877,2.16553,2.3877s2.23975-.95996,2.23975-2.21533v-7.33447h4.15967Z"/><path class="cls-1" d="m197.47754,206.61471v3.47021c-2.58447,0-4.18408,1.47705-4.18408,3.81494v5.73486h-4.15967v-12.72461h4.15967v2.31348c.83691-1.59961,2.33838-2.60889,4.18408-2.60889Z"/><path class="cls-1" d="m199.14941,213.26022c0-3.66748,3.1748-6.64551,7.08838-6.64551,3.88867,0,7.03906,2.97803,7.03906,6.64551,0,3.66699-3.15039,6.66992-7.03906,6.66992-3.91357,0-7.08838-3.00293-7.08838-6.66992Zm10.16455,0c0-1.74756-1.37793-3.17529-3.07617-3.17529-1.72314,0-3.12598,1.42773-3.12598,3.17529s1.40283,3.19971,3.12598,3.19971c1.69824,0,3.07617-1.45215,3.07617-3.19971Z"/><path class="cls-1" d="m229.81299,213.26022c0,3.91309-2.43652,6.66992-5.83301,6.66992-1.72266,0-3.1748-.71387-4.18408-1.94434v5.88232h-4.15967v-16.95801h4.15967v1.64893c1.00928-1.23047,2.46143-1.94434,4.18408-1.94434,3.39648,0,5.83301,2.75684,5.83301,6.64551Zm-4.01172,0c0-1.84619-1.27979-3.17529-3.10107-3.17529-1.69824,0-2.9043,1.3291-2.9043,3.17529,0,1.87061,1.20605,3.19971,2.9043,3.19971,1.82129,0,3.10107-1.3291,3.10107-3.19971Z"/><path class="cls-1" d="m241.2793,215.62302l2.31348,2.33789c-1.13232,1.15674-3.29834,1.96924-5.21777,1.96924-3.93799,0-6.9165-2.78125-6.9165-6.69482,0-3.86377,2.87988-6.62061,6.71924-6.62061,4.03662,0,6.49805,2.87988,6.49805,7.70361h-9.2793c.32031,1.45215,1.354,2.43652,2.80615,2.43652,1.08301,0,2.23975-.44287,3.07666-1.13184Zm-5.8335-3.64258h5.24268c-.29541-1.30469-1.18164-2.19043-2.48584-2.19043-1.354,0-2.36279.86133-2.75684,2.19043Z"/><path class="cls-1" d="m253.06445,216.21384l6.25098-4.67676c1.89551-1.42725,2.43652-2.36279,2.43652-3.39648,0-1.15674-1.00879-1.89502-2.23926-1.89502-1.5752,0-2.75684.76318-4.03613,2.1167l-2.63379-2.60889c1.79688-2.16602,3.9873-3.32275,6.76855-3.32275,3.79004,0,6.44824,2.31348,6.44824,5.5376,0,2.23975-.93555,3.9873-3.88867,6.00586l-2.6582,1.89502h6.71875v3.76562h-13.16699v-3.4209Z"/><path class="cls-1" d="m268.49316,211.16794c0-5.11914,3.22461-8.7373,7.77734-8.7373,4.57812,0,7.80273,3.61816,7.80273,8.7373,0,5.14404-3.22461,8.76221-7.80273,8.76221-4.55273,0-7.77734-3.61816-7.77734-8.76221Zm11.24805,0c0-2.87939-1.42773-4.92236-3.4707-4.92236-2.01855,0-3.44531,2.04297-3.44531,4.92236,0,2.87988,1.42676,4.94727,3.44531,4.94727,2.04297,0,3.4707-2.06738,3.4707-4.94727Z"/><path class="cls-1" d="m286.21094,216.21384l6.25098-4.67676c1.89551-1.42725,2.43652-2.36279,2.43652-3.39648,0-1.15674-1.00879-1.89502-2.23926-1.89502-1.5752,0-2.75684.76318-4.03613,2.1167l-2.63379-2.60889c1.79688-2.16602,3.9873-3.32275,6.76855-3.32275,3.79004,0,6.44824,2.31348,6.44824,5.5376,0,2.23975-.93555,3.9873-3.88867,6.00586l-2.6582,1.89502h6.71875v3.76562h-13.16699v-3.4209Z"/><path class="cls-1" d="m309.86035,216.41061h-8.19629l-.36914-3.19971,7.6543-10.46045h5.12012v10.16504h2.14062v3.49512h-2.14062v3.22412h-4.20898v-3.22412Zm0-3.49512v-5.80859l-4.20898,5.80859h4.20898Z"/></g></svg>