<?xml version="1.0" encoding="UTF-8"?>
<svg width="1853px" height="559px" viewBox="0 0 1853 559" version="1.1" xmlns="http://www.w3.org/2000/svg" xmlns:xlink="http://www.w3.org/1999/xlink">
    <!-- Generator: Sketch 51.3 (57544) - http://www.bohemiancoding.com/sketch -->
    <title>horizontal (white)</title>
    <desc>Created with Sketch.</desc>
    <defs>
        <circle id="path-1" cx="183.731653" cy="183.534154" r="183.421645"></circle>
        <path d="M37.6394659,0.609798396 L65.5688645,126.114227 L184.112282,184.671541 L302.662591,126.114227 L330.412301,1.38790021 C353.481056,32.0595094 367.153298,70.2001701 367.153298,111.534154 C367.153298,212.835131 285.032631,294.955799 183.731653,294.955799 C82.430676,294.955799 0.310008348,212.835131 0.310008348,111.534154 C0.310008348,69.8499151 14.2149431,31.4133476 37.6394659,0.609798396 Z" id="path-3"></path>
    </defs>
    <g id="horizontal-(white)" stroke="none" stroke-width="1" fill="none" fill-rule="evenodd">
        <path d="M707.502267,322.627222 C705.780192,322.627222 704.330045,322.0381 703.151783,320.859838 C701.973521,319.681576 701.384399,318.231429 701.384399,316.509355 L701.384399,232.626598 C701.384399,230.904523 701.973521,229.431718 703.151783,228.208138 C704.330045,226.984559 705.780192,226.372778 707.502267,226.372778 C709.224342,226.372778 710.697147,226.984559 711.920726,228.208138 C713.144306,229.431718 713.756086,230.904523 713.756086,232.626598 L713.756086,275.859526 L760.251877,228.54802 C761.520774,227.097852 763.061555,226.372778 764.874265,226.372778 C766.415069,226.372778 767.751923,226.893925 768.884867,227.936233 C770.017811,228.978542 770.584275,230.270079 770.584275,231.810882 C770.584275,233.623593 770.085787,235.028422 769.088796,236.025413 L737.683745,267.294512 L773.711185,312.702682 C774.708175,313.971579 775.206663,315.285774 775.206663,316.645307 C775.297299,318.276747 774.753494,319.681576 773.575232,320.859838 C772.39697,322.0381 770.946824,322.627222 769.224749,322.627222 C767.140132,322.627222 765.508717,321.811514 764.330455,320.180075 L729.254683,275.451668 L713.756086,291.086218 L713.756086,316.509355 C713.756086,318.231429 713.144306,319.681576 711.920726,320.859838 C710.697147,322.0381 709.224342,322.627222 707.502267,322.627222 Z M836.997122,322.627222 C835.275047,322.627222 833.8249,322.0381 832.646638,320.859838 C831.468377,319.681576 830.879255,318.231429 830.879255,316.509355 L830.879255,233.306361 C830.879255,231.584286 831.468377,230.111481 832.646638,228.887901 C833.8249,227.664322 835.275047,227.052541 836.997122,227.052541 L868.674078,227.052541 C881.000509,227.052541 890.245194,229.590298 896.40841,234.665887 C902.571625,239.741476 905.653187,246.403087 905.653187,254.65092 C905.653187,260.089051 904.135064,265.051272 901.098774,269.53773 C898.062484,274.024188 893.644069,277.26436 887.843395,279.258341 C894.369153,280.980416 898.832886,285.036295 901.234727,291.426099 C903.636568,297.815903 904.837471,304.092319 904.837471,310.255535 L904.837471,316.509355 C904.837471,318.231429 904.248349,319.681576 903.070087,320.859838 C901.891825,322.0381 900.441679,322.627222 898.719604,322.627222 C896.816258,322.627222 895.298136,322.060758 894.165192,320.927814 C893.032248,319.79487 892.465784,318.322065 892.465784,316.509355 L892.465784,312.430776 C892.465784,307.899 892.05793,303.70717 891.242211,299.855161 C890.426491,296.003151 888.477856,292.559053 885.396249,289.522763 C882.314641,286.486473 877.646981,284.96835 871.39313,284.96835 L843.250941,284.96835 L843.250941,316.509355 C843.250941,318.231429 842.639161,319.681576 841.415581,320.859838 C840.192002,322.0381 838.719197,322.627222 836.997122,322.627222 Z M867.858363,273.276427 C875.653018,273.276427 881.838799,271.735646 886.415893,268.654038 C890.992987,265.57243 893.2815,261.22199 893.2815,255.602588 C893.2815,250.164457 891.310207,245.995285 887.367561,243.094949 C883.424916,240.194612 876.69533,238.744465 867.1786,238.744465 L843.250941,238.744465 L843.250941,273.276427 L867.858363,273.276427 Z M1004.42275,323.306985 C997.987631,323.306985 991.779191,321.947472 985.797247,319.228407 C979.815302,316.509341 974.921057,312.362828 971.114365,306.788743 C967.307673,301.214659 965.404356,294.394438 965.404356,286.327877 L965.404356,232.626598 C965.404356,230.904523 965.993478,229.431718 967.17174,228.208138 C968.350002,226.984559 969.800148,226.372778 971.522223,226.372778 C973.244298,226.372778 974.717103,226.984559 975.940683,228.208138 C977.164262,229.431718 977.776043,230.904523 977.776043,232.626598 L977.776043,286.735734 C977.776043,292.173866 979.022263,296.796208 981.514739,300.6029 C984.007216,304.409592 987.292705,307.264568 991.371303,309.167914 C995.449902,311.07126 999.800342,312.022919 1004.42275,312.022919 C1009.04516,312.022919 1013.3956,311.07126 1017.4742,309.167914 C1021.5528,307.264568 1024.83829,304.409592 1027.33077,300.6029 C1029.82324,296.796208 1031.06946,292.173866 1031.06946,286.735734 L1031.06946,232.626598 C1031.06946,230.904523 1031.65859,229.431718 1032.83685,228.208138 C1034.01511,226.984559 1035.46526,226.372778 1037.18733,226.372778 C1038.90941,226.372778 1040.38221,226.984559 1041.60579,228.208138 C1042.82937,229.431718 1043.44115,230.904523 1043.44115,232.626598 L1043.44115,286.327877 C1043.44115,294.394438 1041.53783,301.214659 1037.73114,306.788743 C1033.92445,312.362828 1029.0302,316.509341 1023.04826,319.228407 C1017.06632,321.947472 1010.85788,323.306985 1004.42275,323.306985 Z M1137.45238,323.306985 C1125.94166,323.306985 1115.1562,321.131765 1105.09566,316.78126 C1104.00803,316.328082 1103.10169,315.58035 1102.3766,314.538042 C1101.65152,313.495733 1101.28898,312.385465 1101.28898,311.207203 C1101.28898,309.666399 1101.81013,308.329545 1102.85244,307.196601 C1103.89475,306.063657 1105.2316,305.497194 1106.86304,305.497194 C1107.7694,305.497194 1108.63042,305.678462 1109.44614,306.041004 C1117.78461,309.75706 1126.71207,311.615061 1136.2288,311.615061 C1152.09002,311.615061 1160.02051,306.403596 1160.02051,295.980511 C1160.02051,293.261446 1159.00087,290.995592 1156.96157,289.182881 C1154.92228,287.370171 1152.40718,285.942683 1149.41621,284.900374 C1146.42523,283.858066 1142.16543,282.611846 1136.63666,281.161678 C1129.29518,279.258332 1123.35865,277.42299 1118.82687,275.655597 C1114.29509,273.888204 1110.39782,271.237155 1107.13495,267.70237 C1103.87207,264.167584 1102.24065,259.454608 1102.24065,253.563299 C1102.24065,248.397074 1103.60016,243.706756 1106.31923,239.492205 C1109.0383,235.277653 1113.04886,231.924189 1118.35104,229.431712 C1123.65321,226.939235 1130.02026,225.693015 1137.45238,225.693015 C1147.42228,225.693015 1156.44038,227.188479 1164.50694,230.179451 C1167.04474,231.085806 1168.31362,232.89849 1168.31362,235.617555 C1168.31362,237.067724 1167.81513,238.381919 1166.81814,239.560181 C1165.82115,240.738443 1164.50695,241.327565 1162.87551,241.327565 C1162.3317,241.327565 1161.60663,241.146296 1160.70027,240.783754 C1153.6307,238.336595 1146.33465,237.113034 1138.8119,237.113034 C1131.6517,237.113034 1125.82845,238.472546 1121.34199,241.191612 C1116.85553,243.910678 1114.61234,247.717313 1114.61234,252.611631 C1114.61234,255.87451 1115.67729,258.525559 1117.80722,260.564858 C1119.93716,262.604157 1122.61087,264.190255 1125.82843,265.323199 C1129.04599,266.456143 1133.41909,267.657046 1138.94785,268.925943 C1146.10806,270.648018 1151.88599,272.370067 1156.28181,274.092142 C1160.67763,275.814217 1164.43895,278.487925 1167.56588,282.113346 C1170.6928,285.738767 1172.25624,290.633011 1172.25624,296.796227 C1172.25624,301.871816 1170.8061,306.426183 1167.90576,310.459464 C1165.00542,314.492744 1160.92689,317.642282 1155.67002,319.90817 C1150.41316,322.174058 1144.34068,323.306985 1137.45238,323.306985 Z M1252.80816,322.627222 C1251.08609,322.627222 1249.63594,322.0381 1248.45768,320.859838 C1247.27942,319.681576 1246.69029,318.231429 1246.69029,316.509355 L1246.69029,238.608513 L1218.95596,238.608513 C1217.32452,238.608513 1215.96501,238.064708 1214.87738,236.977081 C1213.78976,235.889455 1213.24595,234.529943 1213.24595,232.898503 C1213.24595,231.267064 1213.78976,229.884893 1214.87738,228.751949 C1215.96501,227.619005 1217.32452,227.052541 1218.95596,227.052541 L1286.66036,227.052541 C1288.2918,227.052541 1289.67397,227.619005 1290.80691,228.751949 C1291.93986,229.884893 1292.50632,231.267064 1292.50632,232.898503 C1292.50632,234.529943 1291.93986,235.889455 1290.80691,236.977081 C1289.67397,238.064708 1288.2918,238.608513 1286.66036,238.608513 L1259.06198,238.608513 L1259.06198,316.509355 C1259.06198,318.231429 1258.4502,319.681576 1257.22662,320.859838 C1256.00304,322.0381 1254.53024,322.627222 1252.80816,322.627222 Z M1354.43273,321.947459 C1352.07621,321.947459 1350.0596,321.109093 1348.38284,319.432336 C1346.70608,317.755578 1345.86772,315.738968 1345.86772,313.382445 L1345.86772,232.626598 C1345.86772,230.904523 1346.45684,229.431718 1347.6351,228.208138 C1348.81336,226.984559 1350.26351,226.372778 1351.98558,226.372778 C1353.70766,226.372778 1355.18046,226.984559 1356.40404,228.208138 C1357.62762,229.431718 1358.2394,230.904523 1358.2394,232.626598 L1358.2394,309.575772 L1402.69591,309.575772 C1404.41798,309.575772 1405.89079,310.187552 1407.11437,311.411132 C1408.33795,312.634711 1408.94973,314.107517 1408.94973,315.829592 C1408.94973,317.551666 1408.33795,319.001813 1407.11437,320.180075 C1405.89079,321.358337 1404.41798,321.947459 1402.69591,321.947459 L1354.43273,321.947459 Z M1468.7009,321.947459 C1466.97882,321.947459 1465.52867,321.358337 1464.35041,320.180075 C1463.17215,319.001813 1462.58303,317.551666 1462.58303,315.829592 L1462.58303,233.306361 C1462.58303,231.584286 1463.17215,230.111481 1464.35041,228.887901 C1465.52867,227.664322 1466.97882,227.052541 1468.7009,227.052541 L1523.21789,227.052541 C1524.84933,227.052541 1526.2315,227.619005 1527.36444,228.751949 C1528.49739,229.884893 1529.06385,231.267064 1529.06385,232.898503 C1529.06385,234.529943 1528.49739,235.889455 1527.36444,236.977081 C1526.2315,238.064708 1524.84933,238.608513 1523.21789,238.608513 L1474.95471,238.608513 L1474.95471,268.654038 L1518.3236,268.654038 C1519.95503,268.654038 1521.33721,269.220502 1522.47015,270.353446 C1523.60309,271.48639 1524.16956,272.868561 1524.16956,274.5 C1524.16956,276.131439 1523.60309,277.490952 1522.47015,278.578578 C1521.33721,279.666204 1519.95503,280.210009 1518.3236,280.210009 L1474.95471,280.210009 L1474.95471,310.391487 L1523.21789,310.391487 C1524.84933,310.391487 1526.2315,310.957951 1527.36444,312.090895 C1528.49739,313.223839 1529.06385,314.60601 1529.06385,316.237449 C1529.06385,317.868889 1528.49739,319.228401 1527.36444,320.316027 C1526.2315,321.403654 1524.84933,321.947459 1523.21789,321.947459 L1468.7009,321.947459 Z M1615.86959,322.627222 C1614.14751,322.627222 1612.69737,322.0381 1611.51911,320.859838 C1610.34084,319.681576 1609.75172,318.231429 1609.75172,316.509355 L1609.75172,238.608513 L1582.01739,238.608513 C1580.38595,238.608513 1579.02644,238.064708 1577.93881,236.977081 C1576.85119,235.889455 1576.30738,234.529943 1576.30738,232.898503 C1576.30738,231.267064 1576.85119,229.884893 1577.93881,228.751949 C1579.02644,227.619005 1580.38595,227.052541 1582.01739,227.052541 L1649.72179,227.052541 C1651.35323,227.052541 1652.7354,227.619005 1653.86834,228.751949 C1655.00129,229.884893 1655.56775,231.267064 1655.56775,232.898503 C1655.56775,234.529943 1655.00129,235.889455 1653.86834,236.977081 C1652.7354,238.064708 1651.35323,238.608513 1649.72179,238.608513 L1622.12341,238.608513 L1622.12341,316.509355 C1622.12341,318.231429 1621.51163,319.681576 1620.28805,320.859838 C1619.06447,322.0381 1617.59166,322.627222 1615.86959,322.627222 Z" id="KRUSTLET" fill="#FFFFFF"></path>
        <g id="globe-eats-the-k8s" transform="translate(160.384399, 79.758613)">
            <g id="Group-8" transform="translate(0.000000, 0.181222)">
                <mask id="mask-2" fill="white">
                    <use xlink:href="#path-1"></use>
                </mask>
                <g id="Oval-12" fill-rule="nonzero"></g>
                <path d="M184.003808,36.7841148 L71.8420715,92.2539005 L46.1612693,154.293083 L58.4696975,208.187938 L183.988894,267.091788 L310.878939,207.155228 L324.137165,154.320467 L296.522175,92.3107855 L184.003808,36.7841148 Z" id="Path-2" stroke="#FFFFFF" stroke-width="16" fill-rule="nonzero" mask="url(#mask-2)"></path>
                <g id="Group-2" mask="url(#mask-2)">
                    <g transform="translate(0.000000, 72.000000)">
                        <mask id="mask-4" fill="white">
                            <use xlink:href="#path-3"></use>
                        </mask>
                        <use id="Combined-Shape" stroke="none" fill="#FFFFFF" fill-rule="nonzero" xlink:href="#path-3"></use>
                        <path d="M34.2797042,17.7371571 C16.7961141,45.5239456 7.31000835,77.8022898 7.31000835,111.534154 C7.31000835,208.969138 86.2966693,287.955799 183.731653,287.955799 C281.166637,287.955799 360.153298,208.969138 360.153298,111.534154 C360.153298,78.1694351 350.873231,46.2245603 333.745794,18.6370036 L308.767641,130.906043 L184.112192,192.47896 L59.4639859,130.906041 L34.2797042,17.7371571 Z" id="Combined-Shape" stroke="#FFFFFF" stroke-width="14" fill="none" fill-rule="nonzero" mask="url(#mask-4)"></path>
                        <g id="lines" stroke="none" stroke-width="1" fill="none" fill-rule="evenodd" mask="url(#mask-4)">
                            <g transform="translate(-107.381085, -68.136336)" fill-rule="nonzero" stroke="#E2DEDE" stroke-width="14">
                                <path d="M127.853137,0.785711091 L256.781435,606.370819" id="Path-7"></path>
                                <path d="M457.825934,3.50744191 L320.92269,606.370819" id="Path-8"></path>
                                <path d="M571.462655,403.797545 L1.56551787,117.888228" id="Path-9"></path>
                                <path d="M581.07828,408.549943 L0.662105984,117.888228" id="Path-9" transform="translate(290.870193, 263.219085) scale(-1, 1) translate(-290.870193, -263.219085) "></path>
                            </g>
                        </g>
                    </g>
                </g>
                <g id="Group" mask="url(#mask-2)">
                    <g transform="translate(-108.000000, 3.000000)"></g>
                </g>
            </g>
        </g>
        <circle id="Oval" fill="#FFFFFF" fill-rule="nonzero" cx="310.761436" cy="80.03125" r="16.5"></circle>
        <circle id="Oval" fill="#FFFFFF" fill-rule="nonzero" cx="282.31593" cy="156.053898" r="32.6486095"></circle>
        <circle id="Oval" fill="#FFFFFF" fill-rule="nonzero" cx="404.288826" cy="135.09848" r="24"></circle>
    </g>
</svg>