<?xml version="1.0" encoding="utf-8"?>
<!-- Generator: Adobe Illustrator 21.1.0, SVG Export Plug-In . SVG Version: 6.00 Build 0)  -->
<svg version="1.1"
	 id="svg5239" inkscape:version="0.91 r13725" sodipodi:docname="fluentd_logo_icon_white.svg" xmlns:cc="http://creativecommons.org/ns#" xmlns:dc="http://purl.org/dc/elements/1.1/" xmlns:inkscape="http://www.inkscape.org/namespaces/inkscape" xmlns:rdf="http://www.w3.org/1999/02/22-rdf-syntax-ns#" xmlns:sodipodi="http://sodipodi.sourceforge.net/DTD/sodipodi-0.dtd" xmlns:svg="http://www.w3.org/2000/svg"
	 xmlns="http://www.w3.org/2000/svg" xmlns:xlink="http://www.w3.org/1999/xlink" x="0px" y="0px" viewBox="0 0 994.7 819.1"
	 style="enable-background:new 0 0 994.7 819.1;" xml:space="preserve">
<style type="text/css">
	.st0{fill:#FFFFFF;}
	.st1{fill:url(#path4507_1_);}
	.st2{fill:url(#path4514_1_);}
	.st3{fill:url(#path4521_1_);}
	.st4{fill:url(#path4532_1_);}
	.st5{fill:url(#path4539_1_);}
	.st6{fill:url(#path4546_1_);}
	.st7{fill:url(#path4553_1_);}
	.st8{fill:url(#path4568_1_);}
	.st9{fill:url(#path4575_1_);}
	.st10{fill:url(#path4582_1_);}
	.st11{fill:url(#path4593_1_);}
	.st12{fill:url(#path4600_1_);}
	.st13{fill:url(#path4607_1_);}
	.st14{fill:url(#path4614_1_);}
	.st15{fill:url(#path4629_1_);}
	.st16{fill:url(#path4636_1_);}
	.st17{fill:url(#path4643_1_);}
	.st18{fill:url(#path4654_1_);}
	.st19{fill:url(#path4661_1_);}
	.st20{fill:url(#path4668_1_);}
	.st21{fill:url(#path4675_1_);}
	.st22{fill:url(#path4690_1_);}
	.st23{fill:url(#path4697_1_);}
	.st24{fill:url(#path4704_1_);}
	.st25{fill:url(#path4715_1_);}
	.st26{fill:url(#path4722_1_);}
	.st27{fill:url(#path4729_1_);}
	.st28{fill:url(#path4736_1_);}
</style>
<sodipodi:namedview  bordercolor="#666666" borderopacity="1.0" fit-margin-bottom="0" fit-margin-left="0" fit-margin-right="0" fit-margin-top="0" id="base" inkscape:current-layer="layer1" inkscape:cx="435.10029" inkscape:cy="-16.641023" inkscape:document-units="px" inkscape:pageopacity="0.0" inkscape:pageshadow="2" inkscape:window-height="1522" inkscape:window-maximized="1" inkscape:window-width="2560" inkscape:window-x="0" inkscape:window-y="41" inkscape:zoom="0.31975175" pagecolor="#ffffff" showgrid="false">
	</sodipodi:namedview>
<g id="layer1" transform="translate(675.3236,177.15946)" inkscape:groupmode="layer" inkscape:label="Layer 1">
	<g id="g4490" transform="translate(-1332.4236,-204.65576)">
		<circle id="circle4492" class="st0" cx="1510.7" cy="317.7" r="20.8"/>
		<g id="g4494">
			<g id="g4496">
				
					<linearGradient id="path4507_1_" gradientUnits="userSpaceOnUse" x1="1326.8628" y1="-866.2321" x2="2642.0107" y2="-866.2321" gradientTransform="matrix(0.8 0 0 0.8 -444.66 958.9822)">
					<stop  offset="0" style="stop-color:#FFFFFF;stop-opacity:0.75"/>
					<stop  offset="0.32" style="stop-color:#FFFFFF;stop-opacity:0.57"/>
					<stop  offset="0.68" style="stop-color:#FFFFFF;stop-opacity:0.55"/>
					<stop  offset="0.9" style="stop-color:#FFFFFF;stop-opacity:0.45"/>
				</linearGradient>
				<path id="path4507" inkscape:connector-curvature="0" class="st1" d="M1016.4,191.2c-33.1-25.4-67.1-51.7-100.2-75.6l0,0
					c-7.7-5.4-15.4-10.8-22.4-16.2l0,0C804.4,37.7,721.1-0.7,674.9,53.2c-35.4,41.6-16.2,138,56.3,254.5l2.3,3.8
					c37.8,59.4,148.1,199,409.4,192.8c17-18.5,43.2-53.2,77.1-91C1165.3,323.8,1082.7,246,1016.4,191.2L1016.4,191.2z"/>
				
					<linearGradient id="path4514_1_" gradientUnits="userSpaceOnUse" x1="1377.1752" y1="-625.3036" x2="2629.6738" y2="-625.3036" gradientTransform="matrix(0.8 0 0 0.8 -444.66 958.9822)">
					<stop  offset="0" style="stop-color:#FFFFFF;stop-opacity:0.4"/>
					<stop  offset="0.67" style="stop-color:#FFFFFF;stop-opacity:0.5"/>
				</linearGradient>
				<path id="path4514" inkscape:connector-curvature="0" class="st2" d="M1220,413.3c-33.9,37.8-60.2,72.5-77.1,91
					c39.4-0.8,78.6-3.8,117.2-10c-3.8-11.6-8.5-22.4-13.8-33.1C1238.5,444.9,1229.3,428.7,1220,413.3L1220,413.3z"/>
				
					<linearGradient id="path4521_1_" gradientUnits="userSpaceOnUse" x1="1826.1276" y1="-820.4537" x2="2636.8062" y2="-820.4537" gradientTransform="matrix(0.8 0 0 0.8 -444.66 958.9822)">
					<stop  offset="0" style="stop-color:#FFFFFF;stop-opacity:0.38"/>
					<stop  offset="0.97" style="stop-color:#FFFFFF;stop-opacity:0.5"/>
				</linearGradient>
				<path id="path4521" inkscape:connector-curvature="0" class="st3" d="M1415.8,269.9c-71,21.6-141.1,57.8-231.3,29.3
					c-45.5-13.8-104.9-58.6-168.9-107.2c67.1,54,149.6,131.8,204.3,221.3C1270.1,357,1337.2,295.3,1415.8,269.9L1415.8,269.9z"/>
				
					<linearGradient id="path4532_1_" gradientUnits="userSpaceOnUse" x1="2290.95" y1="-1018.1399" x2="2290.95" y2="-127.6561" gradientTransform="matrix(0.8 0 0 0.8 -444.66 958.9822)">
					<stop  offset="0" style="stop-color:#4FAAC4"/>
					<stop  offset="0" style="stop-color:#FFFFFF;stop-opacity:0.35"/>
					<stop  offset="0.9644" style="stop-color:#FFFFFF;stop-opacity:0.38"/>
					<stop  offset="1" style="stop-color:#FFFFFF;stop-opacity:0.26"/>
				</linearGradient>
				<path id="path4532" inkscape:connector-curvature="0" class="st4" d="M1260.1,494.2c3.1,8.5,6.2,17,8.5,25.4
					c5.4,20.8,9.3,41.6,10.8,63.2c0.8,9.3,0.8,18.5,0.8,27.8c-1.5,59.4-28.6,93.3-35.4,99.4c96.3-90.2,139.5-198.9,233.6-281.4
					c16.2-13.8,33.9-25.4,53.2-33.9l0,0C1469.8,421,1402.7,472.6,1260.1,494.2z"/>
				
					<linearGradient id="path4539_1_" gradientUnits="userSpaceOnUse" x1="1242.0138" y1="-763.4537" x2="2164.1519" y2="-763.4537" gradientTransform="matrix(0.8 0 0 -0.8 -444.66 -47.1037)">
					<stop  offset="0" style="stop-color:#FFFFFF;stop-opacity:0.6"/>
					<stop  offset="0.93" style="stop-color:#FFFFFF;stop-opacity:0.47"/>
				</linearGradient>
				<path id="path4539" inkscape:connector-curvature="0" class="st5" d="M733.4,312.3c71.8,112.6,183.5,202,161.9,326.9
					C867.6,800.3,657.1,815,657.1,815s0.8,0,2.3,0c0.8,0,1.5,0,2.3,0c20.8,0,114.1-7,255.2-102.6c121-82.5,194.3-174.2,225.9-208.2
					c-29.3,0.8-56.3-0.8-81.8-3.1C858.4,480.4,767.3,364.7,733.4,312.3z"/>
				
					<linearGradient id="path4546_1_" gradientUnits="userSpaceOnUse" x1="1377.2" y1="-360.691" x2="2629.6987" y2="-360.691" gradientTransform="matrix(0.8 0 0 0.8 -444.66 958.9822)">
					<stop  offset="0" style="stop-color:#FFFFFF;stop-opacity:0.38"/>
					<stop  offset="0.98" style="stop-color:#FFFFFF;stop-opacity:0.5"/>
				</linearGradient>
				<path id="path4546" inkscape:connector-curvature="0" class="st6" d="M1279.3,610.7c0.8-39.4-6.2-79.4-20.1-116.4
					c-6.2,0.8-11.6,1.5-17.8,2.3c-33.1,3.8-66.3,7-99.4,7c-32.4,33.9-104.9,125.7-225.9,208.2c-160.4,110.2-259,103.4-259,103.4
					s235.9,73.3,427.2-3.8c59.4-23.1,114.1-57.8,160.4-101C1251.6,703.2,1278.5,670.1,1279.3,610.7z"/>
				
					<linearGradient id="path4553_1_" gradientUnits="userSpaceOnUse" x1="2350.6965" y1="-818.1277" x2="2350.6965" y2="-370.2044" gradientTransform="matrix(0.8 0 0 -0.8 -444.66 -47.1037)">
					<stop  offset="0" style="stop-color:#FFFFFF;stop-opacity:0.3"/>
					<stop  offset="1" style="stop-color:#FFFFFF;stop-opacity:0.35"/>
				</linearGradient>
				<path id="path4553" inkscape:connector-curvature="0" class="st7" d="M1633.3,353.9c-10.8-5.4-20.8-12.3-29.3-20.1
					c-8.5-8.5-17.8-30.9-21.6-37c-11.6-19.3-28.6-34.7-64-39.4c-35.4-4.6-68.6,2.3-101.8,12.3c-79.4,25.4-146.5,87.1-196.6,143.4
					c10,15.4,18.5,31.6,26.2,47.8c5.4,10.8,10,22.4,13.8,33.1c142.6-21.6,209.8-73.3,271.4-99.4c30.9-13.1,64-19.3,97.1-18.5h17.8
					C1659.5,377,1646.4,361.7,1633.3,353.9z"/>
			</g>
		</g>
		<g id="g4555">
			<g id="g4557">
				
					<linearGradient id="path4568_1_" gradientUnits="userSpaceOnUse" x1="1326.8628" y1="-866.2321" x2="2642.0107" y2="-866.2321" gradientTransform="matrix(0.8 0 0 0.8 -444.66 958.9822)">
					<stop  offset="0" style="stop-color:#FFFFFF;stop-opacity:0.75"/>
					<stop  offset="0.32" style="stop-color:#FFFFFF;stop-opacity:0.57"/>
					<stop  offset="0.68" style="stop-color:#FFFFFF;stop-opacity:0.55"/>
					<stop  offset="0.9" style="stop-color:#FFFFFF;stop-opacity:0.45"/>
				</linearGradient>
				<path id="path4568" inkscape:connector-curvature="0" class="st8" d="M1016.4,191.2c-33.1-25.4-67.1-51.7-100.2-75.6l0,0
					c-7.7-5.4-15.4-10.8-22.4-16.2l0,0C804.4,37.7,721.1-0.7,674.9,53.2c-35.4,41.6-16.2,138,56.3,254.5l2.3,3.8
					c37.8,59.4,148.1,199,409.4,192.8c17-18.5,43.2-53.2,77.1-91C1165.3,323.8,1082.7,246,1016.4,191.2L1016.4,191.2z"/>
				
					<linearGradient id="path4575_1_" gradientUnits="userSpaceOnUse" x1="1377.1752" y1="-625.3036" x2="2629.6738" y2="-625.3036" gradientTransform="matrix(0.8 0 0 0.8 -444.66 958.9822)">
					<stop  offset="0" style="stop-color:#FFFFFF;stop-opacity:0.4"/>
					<stop  offset="0.67" style="stop-color:#FFFFFF;stop-opacity:0.5"/>
				</linearGradient>
				<path id="path4575" inkscape:connector-curvature="0" class="st9" d="M1220,413.3c-33.9,37.8-60.2,72.5-77.1,91
					c39.4-0.8,78.6-3.8,117.2-10c-3.8-11.6-8.5-22.4-13.8-33.1C1238.5,444.9,1229.3,428.7,1220,413.3L1220,413.3z"/>
				
					<linearGradient id="path4582_1_" gradientUnits="userSpaceOnUse" x1="1826.1276" y1="-820.4537" x2="2636.8062" y2="-820.4537" gradientTransform="matrix(0.8 0 0 0.8 -444.66 958.9822)">
					<stop  offset="0" style="stop-color:#FFFFFF;stop-opacity:0.38"/>
					<stop  offset="0.97" style="stop-color:#FFFFFF;stop-opacity:0.5"/>
				</linearGradient>
				<path id="path4582" inkscape:connector-curvature="0" class="st10" d="M1415.8,269.9c-71,21.6-141.1,57.8-231.3,29.3
					c-45.5-13.8-104.9-58.6-168.9-107.2c67.1,54,149.6,131.8,204.3,221.3C1270.1,357,1337.2,295.3,1415.8,269.9L1415.8,269.9z"/>
				
					<linearGradient id="path4593_1_" gradientUnits="userSpaceOnUse" x1="2290.95" y1="-1018.1399" x2="2290.95" y2="-127.6561" gradientTransform="matrix(0.8 0 0 0.8 -444.66 958.9822)">
					<stop  offset="0" style="stop-color:#4FAAC4"/>
					<stop  offset="0" style="stop-color:#FFFFFF;stop-opacity:0.35"/>
					<stop  offset="0.9644" style="stop-color:#FFFFFF;stop-opacity:0.38"/>
					<stop  offset="1" style="stop-color:#FFFFFF;stop-opacity:0.26"/>
				</linearGradient>
				<path id="path4593" inkscape:connector-curvature="0" class="st11" d="M1260.1,494.2c3.1,8.5,6.2,17,8.5,25.4
					c5.4,20.8,9.3,41.6,10.8,63.2c0.8,9.3,0.8,18.5,0.8,27.8c-1.5,59.4-28.6,93.3-35.4,99.4c96.3-90.2,139.5-198.9,233.6-281.4
					c16.2-13.8,33.9-25.4,53.2-33.9l0,0C1469.8,421,1402.7,472.6,1260.1,494.2z"/>
				
					<linearGradient id="path4600_1_" gradientUnits="userSpaceOnUse" x1="1242.0138" y1="-763.4537" x2="2164.1519" y2="-763.4537" gradientTransform="matrix(0.8 0 0 -0.8 -444.66 -47.1037)">
					<stop  offset="0" style="stop-color:#FFFFFF;stop-opacity:0.6"/>
					<stop  offset="0.93" style="stop-color:#FFFFFF;stop-opacity:0.47"/>
				</linearGradient>
				<path id="path4600" inkscape:connector-curvature="0" class="st12" d="M733.4,312.3c71.8,112.6,183.5,202,161.9,326.9
					C867.6,800.3,657.1,815,657.1,815s0.8,0,2.3,0c0.8,0,1.5,0,2.3,0c20.8,0,114.1-7,255.2-102.6c121-82.5,194.3-174.2,225.9-208.2
					c-29.3,0.8-56.3-0.8-81.8-3.1C858.4,480.4,767.3,364.7,733.4,312.3z"/>
				
					<linearGradient id="path4607_1_" gradientUnits="userSpaceOnUse" x1="1377.2" y1="-360.691" x2="2629.6987" y2="-360.691" gradientTransform="matrix(0.8 0 0 0.8 -444.66 958.9822)">
					<stop  offset="0" style="stop-color:#FFFFFF;stop-opacity:0.38"/>
					<stop  offset="0.98" style="stop-color:#FFFFFF;stop-opacity:0.5"/>
				</linearGradient>
				<path id="path4607" inkscape:connector-curvature="0" class="st13" d="M1279.3,610.7c0.8-39.4-6.2-79.4-20.1-116.4
					c-6.2,0.8-11.6,1.5-17.8,2.3c-33.1,3.8-66.3,7-99.4,7c-32.4,33.9-104.9,125.7-225.9,208.2c-160.4,110.2-259,103.4-259,103.4
					s235.9,73.3,427.2-3.8c59.4-23.1,114.1-57.8,160.4-101C1251.6,703.2,1278.5,670.1,1279.3,610.7z"/>
				
					<linearGradient id="path4614_1_" gradientUnits="userSpaceOnUse" x1="2350.6965" y1="-818.1277" x2="2350.6965" y2="-370.2044" gradientTransform="matrix(0.8 0 0 -0.8 -444.66 -47.1037)">
					<stop  offset="0" style="stop-color:#FFFFFF;stop-opacity:0.3"/>
					<stop  offset="1" style="stop-color:#FFFFFF;stop-opacity:0.35"/>
				</linearGradient>
				<path id="path4614" inkscape:connector-curvature="0" class="st14" d="M1633.3,353.9c-10.8-5.4-20.8-12.3-29.3-20.1
					c-8.5-8.5-17.8-30.9-21.6-37c-11.6-19.3-28.6-34.7-64-39.4c-35.4-4.6-68.6,2.3-101.8,12.3c-79.4,25.4-146.5,87.1-196.6,143.4
					c10,15.4,18.5,31.6,26.2,47.8c5.4,10.8,10,22.4,13.8,33.1c142.6-21.6,209.8-73.3,271.4-99.4c30.9-13.1,64-19.3,97.1-18.5h17.8
					C1659.5,377,1646.4,361.7,1633.3,353.9z"/>
			</g>
		</g>
		<g id="g4616">
			<g id="g4618">
				
					<linearGradient id="path4629_1_" gradientUnits="userSpaceOnUse" x1="1326.8628" y1="-866.2321" x2="2642.0107" y2="-866.2321" gradientTransform="matrix(0.8 0 0 0.8 -444.66 958.9822)">
					<stop  offset="0" style="stop-color:#FFFFFF;stop-opacity:0.75"/>
					<stop  offset="0.32" style="stop-color:#FFFFFF;stop-opacity:0.57"/>
					<stop  offset="0.68" style="stop-color:#FFFFFF;stop-opacity:0.55"/>
					<stop  offset="0.9" style="stop-color:#FFFFFF;stop-opacity:0.45"/>
				</linearGradient>
				<path id="path4629" inkscape:connector-curvature="0" class="st15" d="M1016.4,191.2c-33.1-25.4-67.1-51.7-100.2-75.6l0,0
					c-7.7-5.4-15.4-10.8-22.4-16.2l0,0C804.4,37.7,721.1-0.7,674.9,53.2c-35.4,41.6-16.2,138,56.3,254.5l2.3,3.8
					c37.8,59.4,148.1,199,409.4,192.8c17-18.5,43.2-53.2,77.1-91C1165.3,323.8,1082.7,246,1016.4,191.2L1016.4,191.2z"/>
				
					<linearGradient id="path4636_1_" gradientUnits="userSpaceOnUse" x1="1377.1752" y1="-625.3036" x2="2629.6738" y2="-625.3036" gradientTransform="matrix(0.8 0 0 0.8 -444.66 958.9822)">
					<stop  offset="0" style="stop-color:#FFFFFF;stop-opacity:0.4"/>
					<stop  offset="0.67" style="stop-color:#FFFFFF;stop-opacity:0.5"/>
				</linearGradient>
				<path id="path4636" inkscape:connector-curvature="0" class="st16" d="M1220,413.3c-33.9,37.8-60.2,72.5-77.1,91
					c39.4-0.8,78.6-3.8,117.2-10c-3.8-11.6-8.5-22.4-13.8-33.1C1238.5,444.9,1229.3,428.7,1220,413.3L1220,413.3z"/>
				
					<linearGradient id="path4643_1_" gradientUnits="userSpaceOnUse" x1="1826.1276" y1="-820.4537" x2="2636.8062" y2="-820.4537" gradientTransform="matrix(0.8 0 0 0.8 -444.66 958.9822)">
					<stop  offset="0" style="stop-color:#FFFFFF;stop-opacity:0.38"/>
					<stop  offset="0.97" style="stop-color:#FFFFFF;stop-opacity:0.5"/>
				</linearGradient>
				<path id="path4643" inkscape:connector-curvature="0" class="st17" d="M1415.8,269.9c-71,21.6-141.1,57.8-231.3,29.3
					c-45.5-13.8-104.9-58.6-168.9-107.2c67.1,54,149.6,131.8,204.3,221.3C1270.1,357,1337.2,295.3,1415.8,269.9L1415.8,269.9z"/>
				
					<linearGradient id="path4654_1_" gradientUnits="userSpaceOnUse" x1="2290.95" y1="-1018.1399" x2="2290.95" y2="-127.6561" gradientTransform="matrix(0.8 0 0 0.8 -444.66 958.9822)">
					<stop  offset="0" style="stop-color:#4FAAC4"/>
					<stop  offset="0" style="stop-color:#FFFFFF;stop-opacity:0.35"/>
					<stop  offset="0.9644" style="stop-color:#FFFFFF;stop-opacity:0.38"/>
					<stop  offset="1" style="stop-color:#FFFFFF;stop-opacity:0.26"/>
				</linearGradient>
				<path id="path4654" inkscape:connector-curvature="0" class="st18" d="M1260.1,494.2c3.1,8.5,6.2,17,8.5,25.4
					c5.4,20.8,9.3,41.6,10.8,63.2c0.8,9.3,0.8,18.5,0.8,27.8c-1.5,59.4-28.6,93.3-35.4,99.4c96.3-90.2,139.5-198.9,233.6-281.4
					c16.2-13.8,33.9-25.4,53.2-33.9l0,0C1469.8,421,1402.7,472.6,1260.1,494.2z"/>
				
					<linearGradient id="path4661_1_" gradientUnits="userSpaceOnUse" x1="1242.0138" y1="-763.4537" x2="2164.1519" y2="-763.4537" gradientTransform="matrix(0.8 0 0 -0.8 -444.66 -47.1037)">
					<stop  offset="0" style="stop-color:#FFFFFF;stop-opacity:0.6"/>
					<stop  offset="0.93" style="stop-color:#FFFFFF;stop-opacity:0.47"/>
				</linearGradient>
				<path id="path4661" inkscape:connector-curvature="0" class="st19" d="M733.4,312.3c71.8,112.6,183.5,202,161.9,326.9
					C867.6,800.3,657.1,815,657.1,815s0.8,0,2.3,0c0.8,0,1.5,0,2.3,0c20.8,0,114.1-7,255.2-102.6c121-82.5,194.3-174.2,225.9-208.2
					c-29.3,0.8-56.3-0.8-81.8-3.1C858.4,480.4,767.3,364.7,733.4,312.3z"/>
				
					<linearGradient id="path4668_1_" gradientUnits="userSpaceOnUse" x1="1377.2" y1="-360.691" x2="2629.6987" y2="-360.691" gradientTransform="matrix(0.8 0 0 0.8 -444.66 958.9822)">
					<stop  offset="0" style="stop-color:#FFFFFF;stop-opacity:0.38"/>
					<stop  offset="0.98" style="stop-color:#FFFFFF;stop-opacity:0.5"/>
				</linearGradient>
				<path id="path4668" inkscape:connector-curvature="0" class="st20" d="M1279.3,610.7c0.8-39.4-6.2-79.4-20.1-116.4
					c-6.2,0.8-11.6,1.5-17.8,2.3c-33.1,3.8-66.3,7-99.4,7c-32.4,33.9-104.9,125.7-225.9,208.2c-160.4,110.2-259,103.4-259,103.4
					s235.9,73.3,427.2-3.8c59.4-23.1,114.1-57.8,160.4-101C1251.6,703.2,1278.5,670.1,1279.3,610.7z"/>
				
					<linearGradient id="path4675_1_" gradientUnits="userSpaceOnUse" x1="2350.6965" y1="-818.1277" x2="2350.6965" y2="-370.2044" gradientTransform="matrix(0.8 0 0 -0.8 -444.66 -47.1037)">
					<stop  offset="0" style="stop-color:#FFFFFF;stop-opacity:0.3"/>
					<stop  offset="1" style="stop-color:#FFFFFF;stop-opacity:0.35"/>
				</linearGradient>
				<path id="path4675" inkscape:connector-curvature="0" class="st21" d="M1633.3,353.9c-10.8-5.4-20.8-12.3-29.3-20.1
					c-8.5-8.5-17.8-30.9-21.6-37c-11.6-19.3-28.6-34.7-64-39.4c-35.4-4.6-68.6,2.3-101.8,12.3c-79.4,25.4-146.5,87.1-196.6,143.4
					c10,15.4,18.5,31.6,26.2,47.8c5.4,10.8,10,22.4,13.8,33.1c142.6-21.6,209.8-73.3,271.4-99.4c30.9-13.1,64-19.3,97.1-18.5h17.8
					C1659.5,377,1646.4,361.7,1633.3,353.9z"/>
			</g>
		</g>
		<g id="g4677">
			<g id="g4679">
				
					<linearGradient id="path4690_1_" gradientUnits="userSpaceOnUse" x1="1326.8628" y1="-866.2321" x2="2642.0107" y2="-866.2321" gradientTransform="matrix(0.8 0 0 0.8 -444.66 958.9822)">
					<stop  offset="0" style="stop-color:#FFFFFF;stop-opacity:0.75"/>
					<stop  offset="0.32" style="stop-color:#FFFFFF;stop-opacity:0.57"/>
					<stop  offset="0.68" style="stop-color:#FFFFFF;stop-opacity:0.55"/>
					<stop  offset="0.9" style="stop-color:#FFFFFF;stop-opacity:0.45"/>
				</linearGradient>
				<path id="path4690" inkscape:connector-curvature="0" class="st22" d="M1016.4,191.2c-33.1-25.4-67.1-51.7-100.2-75.6l0,0
					c-7.7-5.4-15.4-10.8-22.4-16.2l0,0C804.4,37.7,721.1-0.7,674.9,53.2c-35.4,41.6-16.2,138,56.3,254.5l2.3,3.8
					c37.8,59.4,148.1,199,409.4,192.8c17-18.5,43.2-53.2,77.1-91C1165.3,323.8,1082.7,246,1016.4,191.2L1016.4,191.2z"/>
				
					<linearGradient id="path4697_1_" gradientUnits="userSpaceOnUse" x1="1377.1752" y1="-625.3036" x2="2629.6738" y2="-625.3036" gradientTransform="matrix(0.8 0 0 0.8 -444.66 958.9822)">
					<stop  offset="0" style="stop-color:#FFFFFF;stop-opacity:0.4"/>
					<stop  offset="0.67" style="stop-color:#FFFFFF;stop-opacity:0.5"/>
				</linearGradient>
				<path id="path4697" inkscape:connector-curvature="0" class="st23" d="M1220,413.3c-33.9,37.8-60.2,72.5-77.1,91
					c39.4-0.8,78.6-3.8,117.2-10c-3.8-11.6-8.5-22.4-13.8-33.1C1238.5,444.9,1229.3,428.7,1220,413.3L1220,413.3z"/>
				
					<linearGradient id="path4704_1_" gradientUnits="userSpaceOnUse" x1="1826.1276" y1="-820.4537" x2="2636.8062" y2="-820.4537" gradientTransform="matrix(0.8 0 0 0.8 -444.66 958.9822)">
					<stop  offset="0" style="stop-color:#FFFFFF;stop-opacity:0.38"/>
					<stop  offset="0.97" style="stop-color:#FFFFFF;stop-opacity:0.5"/>
				</linearGradient>
				<path id="path4704" inkscape:connector-curvature="0" class="st24" d="M1415.8,269.9c-71,21.6-141.1,57.8-231.3,29.3
					c-45.5-13.8-104.9-58.6-168.9-107.2c67.1,54,149.6,131.8,204.3,221.3C1270.1,357,1337.2,295.3,1415.8,269.9L1415.8,269.9z"/>
				
					<linearGradient id="path4715_1_" gradientUnits="userSpaceOnUse" x1="2290.95" y1="-1018.1399" x2="2290.95" y2="-127.6561" gradientTransform="matrix(0.8 0 0 0.8 -444.66 958.9822)">
					<stop  offset="0" style="stop-color:#4FAAC4"/>
					<stop  offset="0" style="stop-color:#FFFFFF;stop-opacity:0.35"/>
					<stop  offset="0.9644" style="stop-color:#FFFFFF;stop-opacity:0.38"/>
					<stop  offset="1" style="stop-color:#FFFFFF;stop-opacity:0.26"/>
				</linearGradient>
				<path id="path4715" inkscape:connector-curvature="0" class="st25" d="M1260.1,494.2c3.1,8.5,6.2,17,8.5,25.4
					c5.4,20.8,9.3,41.6,10.8,63.2c0.8,9.3,0.8,18.5,0.8,27.8c-1.5,59.4-28.6,93.3-35.4,99.4c96.3-90.2,139.5-198.9,233.6-281.4
					c16.2-13.8,33.9-25.4,53.2-33.9l0,0C1469.8,421,1402.7,472.6,1260.1,494.2z"/>
				
					<linearGradient id="path4722_1_" gradientUnits="userSpaceOnUse" x1="1242.0138" y1="-763.4537" x2="2164.1519" y2="-763.4537" gradientTransform="matrix(0.8 0 0 -0.8 -444.66 -47.1037)">
					<stop  offset="0" style="stop-color:#FFFFFF;stop-opacity:0.6"/>
					<stop  offset="0.93" style="stop-color:#FFFFFF;stop-opacity:0.47"/>
				</linearGradient>
				<path id="path4722" inkscape:connector-curvature="0" class="st26" d="M733.4,312.3c71.8,112.6,183.5,202,161.9,326.9
					C867.6,800.3,657.1,815,657.1,815s0.8,0,2.3,0c0.8,0,1.5,0,2.3,0c20.8,0,114.1-7,255.2-102.6c121-82.5,194.3-174.2,225.9-208.2
					c-29.3,0.8-56.3-0.8-81.8-3.1C858.4,480.4,767.3,364.7,733.4,312.3z"/>
				
					<linearGradient id="path4729_1_" gradientUnits="userSpaceOnUse" x1="1377.2" y1="-360.691" x2="2629.6987" y2="-360.691" gradientTransform="matrix(0.8 0 0 0.8 -444.66 958.9822)">
					<stop  offset="0" style="stop-color:#FFFFFF;stop-opacity:0.38"/>
					<stop  offset="0.98" style="stop-color:#FFFFFF;stop-opacity:0.5"/>
				</linearGradient>
				<path id="path4729" inkscape:connector-curvature="0" class="st27" d="M1279.3,610.7c0.8-39.4-6.2-79.4-20.1-116.4
					c-6.2,0.8-11.6,1.5-17.8,2.3c-33.1,3.8-66.3,7-99.4,7c-32.4,33.9-104.9,125.7-225.9,208.2c-160.4,110.2-259,103.4-259,103.4
					s235.9,73.3,427.2-3.8c59.4-23.1,114.1-57.8,160.4-101C1251.6,703.2,1278.5,670.1,1279.3,610.7z"/>
				
					<linearGradient id="path4736_1_" gradientUnits="userSpaceOnUse" x1="2350.6965" y1="-818.1277" x2="2350.6965" y2="-370.2044" gradientTransform="matrix(0.8 0 0 -0.8 -444.66 -47.1037)">
					<stop  offset="0" style="stop-color:#FFFFFF;stop-opacity:0.3"/>
					<stop  offset="1" style="stop-color:#FFFFFF;stop-opacity:0.35"/>
				</linearGradient>
				<path id="path4736" inkscape:connector-curvature="0" class="st28" d="M1633.3,353.9c-10.8-5.4-20.8-12.3-29.3-20.1
					c-8.5-8.5-17.8-30.9-21.6-37c-11.6-19.3-28.6-34.7-64-39.4c-35.4-4.6-68.6,2.3-101.8,12.3c-79.4,25.4-146.5,87.1-196.6,143.4
					c10,15.4,18.5,31.6,26.2,47.8c5.4,10.8,10,22.4,13.8,33.1c142.6-21.6,209.8-73.3,271.4-99.4c30.9-13.1,64-19.3,97.1-18.5h17.8
					C1659.5,377,1646.4,361.7,1633.3,353.9z"/>
			</g>
		</g>
	</g>
</g>
</svg>
