<svg id="Layer_1" data-name="Layer 1" xmlns="http://www.w3.org/2000/svg" viewBox="0 0 379.11401 78"><defs><style>.cls-1{fill:#ed0047;}.cls-2{fill:#4166cd;}.cls-3{fill:#00cb3d;}.cls-4{fill:none;}</style></defs><title>apisnoop-horizontal-color</title><g id="Group"><g id="Group-2" data-name="Group"><path d="M.48,65.53l6.958,6.958a1.64049,1.64049,0,0,0,2.319,0L29.181,53.065a1.64167,1.64167,0,0,0,0-2.32l-6.959-6.958a1.64048,1.64048,0,0,0-2.319,0L.48,63.21A1.64168,1.64168,0,0,0,.48,65.53Z"/><g id="Group-3" data-name="Group"><path d="M36.62305,64.47559A28.13062,28.13062,0,1,1,64.75391,36.34375,28.163,28.163,0,0,1,36.62305,64.47559Zm0-46.62354a18.49243,18.49243,0,1,0,18.49316,18.4917A18.51283,18.51283,0,0,0,36.62305,17.852Z"/><g id="Group-4" data-name="Group"><path class="cls-1" d="M26.03,30.228l-7.063-4.077A20.38844,20.38844,0,0,1,36.623,15.957v8.155A12.23081,12.23081,0,0,0,26.03,30.228Z"/><path class="cls-2" d="M36.623,48.577v8.155A20.3875,20.3875,0,0,1,18.967,26.151l7.063,4.077A12.2325,12.2325,0,0,0,36.623,48.577Z"/><path class="cls-3" d="M36.623,24.112V15.957a20.3875,20.3875,0,1,1,0,40.775V48.577a12.2325,12.2325,0,1,0,0-24.465Z"/></g></g></g><path class="cls-4" d="M284.57812,36.43213q-4.22607,0-6.24023,2.84424-2.01562,2.84472-2.01562,8.206,0,5.3628,2.01562,8.17383,2.01415,2.8125,6.24023,2.81152,4.1587,0,6.15821-2.79492t1.999-8.19043q0-5.395-1.999-8.22265A7.02941,7.02941,0,0,0,284.57812,36.43213Z"/><path class="cls-4" d="M167.15674,26.12988a7.80537,7.80537,0,0,0-2.958-1.64111,13.87326,13.87326,0,0,0-4.19238-.56885h-6.56446V40.78711h6.56446a13.15418,13.15418,0,0,0,4.19238-.60059,7.80175,7.80175,0,0,0,2.958-1.72314,7.05313,7.05313,0,0,0,1.75488-2.73,10.45454,10.45454,0,0,0,.585-3.59131,9.48407,9.48407,0,0,0-.585-3.41211A6.73629,6.73629,0,0,0,167.15674,26.12988Z"/><path class="cls-4" d="M117.54639,28.32373q-.47169-1.41431-.92676-3.07129-.45556,1.65747-.89356,3.0874-.43944,1.43043-.86132,2.50245l-5.72022,15.56787h14.98291l-5.7207-15.63282Q118.01709,29.7373,117.54639,28.32373Z"/><path class="cls-4" d="M364.81934,38.96729a5.32908,5.32908,0,0,0-2.12891-1.85254,6.6363,6.6363,0,0,0-2.84375-.585,8.20332,8.20332,0,0,0-4.27344,1.05615,12.38983,12.38983,0,0,0-3.29883,2.97363V55.51074a7.63939,7.63939,0,0,0,2.97364,2.35547,8.9541,8.9541,0,0,0,3.46191.667,7.774,7.774,0,0,0,3.29785-.68261,6.4008,6.4008,0,0,0,2.50293-2.08008,10.28732,10.28732,0,0,0,1.57617-3.52637,20.15434,20.15434,0,0,0,.55274-5.02148,22.26982,22.26982,0,0,0-.47168-4.95606A9.58363,9.58363,0,0,0,364.81934,38.96729Z"/><path class="cls-4" d="M321.53027,36.43213q-4.22607,0-6.24023,2.84424-2.01562,2.84472-2.01563,8.206,0,5.3628,2.01563,8.17383,2.01416,2.8125,6.24023,2.81152,4.15869,0,6.15821-2.79492t1.999-8.19043q0-5.395-1.999-8.22265A7.02943,7.02943,0,0,0,321.53027,36.43213Z"/><path d="M112.16748,17.15967,93.707,64.15527h6.79248a2.88261,2.88261,0,0,0,1.86914-.61718,3.07784,3.07784,0,0,0,1.02344-1.36524l3.51025-9.58789h19.46729l3.50976,9.58789a3.2359,3.2359,0,0,0,1.05665,1.41406,2.95543,2.95543,0,0,0,1.86914.56836h6.75976l-18.46-46.9956Zm-3.02295,29.25049,5.72022-15.56787q.42188-1.07227.86132-2.50245.438-1.42968.89356-3.0874.45556,1.65747.92676,3.07129.4702,1.41357.86035,2.45361l5.7207,15.63282Z"/><path d="M173.85205,21.352a15.71621,15.71621,0,0,0-5.6875-3.0874,26.83682,26.83682,0,0,0-8.1582-1.105H144.69873v46.9956h8.74316V47.6123h6.56446a25.30588,25.30588,0,0,0,7.99511-1.13769A15.866,15.866,0,0,0,173.689,43.29a12.98747,12.98747,0,0,0,3.41309-4.8916,16.70738,16.70738,0,0,0,1.13672-6.25635,16.5695,16.5695,0,0,0-1.07227-6.04492A12.105,12.105,0,0,0,173.85205,21.352ZM168.91162,35.7334a7.05313,7.05313,0,0,1-1.75488,2.73,7.80175,7.80175,0,0,1-2.958,1.72314,13.15418,13.15418,0,0,1-4.19238.60059h-6.56446V23.91992h6.56446a13.87326,13.87326,0,0,1,4.19238.56885,7.80537,7.80537,0,0,1,2.958,1.64111,6.73629,6.73629,0,0,1,1.75488,2.6001,9.48407,9.48407,0,0,1,.585,3.41211A10.45454,10.45454,0,0,1,168.91162,35.7334Z"/><rect x="186.104" y="17.15967" width="8.7749" height="46.99561"/><path d="M224.40527,47.69336a10.46548,10.46548,0,0,0-2.61621-1.68945q-1.46337-.66651-2.99023-1.18653-1.52784-.51855-2.99024-.959a17.96685,17.96685,0,0,1-2.61621-.99121,6.27779,6.27779,0,0,1-1.85254-1.28321,2.51022,2.51022,0,0,1-.69824-1.80371,3.12733,3.12733,0,0,1,1.36426-2.63281,6.1762,6.1762,0,0,1,3.73828-1.00781,9.58569,9.58569,0,0,1,2.64844.32519,14.21935,14.21935,0,0,1,1.999.731q.87744.40724,1.543.73145a2.867,2.867,0,0,0,1.25195.32519,1.76841,1.76841,0,0,0,.91016-.21142,2.14585,2.14585,0,0,0,.68164-.73145l1.82031-2.89209a14.17053,14.17053,0,0,0-4.71191-2.99023,16.6706,16.6706,0,0,0-6.27246-1.1377,16.37164,16.37164,0,0,0-5.44434.8291,11.85288,11.85288,0,0,0-3.93262,2.21,9.13829,9.13829,0,0,0-2.38867,3.23389,9.60041,9.60041,0,0,0-.8125,3.90039,9.16711,9.16711,0,0,0,.69922,3.76953,8.01008,8.01008,0,0,0,1.85254,2.63281,10.283,10.283,0,0,0,2.63184,1.77149,27.99436,27.99436,0,0,0,3.02246,1.21875q1.54394.52,3.02246.958a17.96262,17.96262,0,0,1,2.63281.99121A6.127,6.127,0,0,1,218.75,53.10547a2.69409,2.69409,0,0,1,.69922,1.917,3.84537,3.84537,0,0,1-.30957,1.51172,3.36291,3.36291,0,0,1-.97461,1.2832,5.181,5.181,0,0,1-1.69043.89453,7.79172,7.79172,0,0,1-2.45313.34082,9.06749,9.06749,0,0,1-3.00683-.42285,13.82431,13.82431,0,0,1-2.06348-.90918q-.87744-.48778-1.54394-.91015a2.59887,2.59887,0,0,0-1.41309-.42285,2.36565,2.36565,0,0,0-1.23535.293,2.611,2.611,0,0,0-.84473.84473l-1.85254,3.05469a13.50355,13.50355,0,0,0,2.25879,1.625,17.34322,17.34322,0,0,0,2.79492,1.2998,19.75481,19.75481,0,0,0,3.15235.86133,19.44861,19.44861,0,0,0,9.06738-.51953,12.03535,12.03535,0,0,0,4.17676-2.30762,9.75178,9.75178,0,0,0,2.56738-3.50976,11.0693,11.0693,0,0,0,.87695-4.43653,7.78635,7.78635,0,0,0-.69824-3.44531A7.87934,7.87934,0,0,0,224.40527,47.69336Z"/><path d="M259.56934,33.81592a9.57261,9.57261,0,0,0-3.52637-2.6001,11.95952,11.95952,0,0,0-4.84277-.92627,14.09162,14.09162,0,0,0-3.11915.3252,12.1073,12.1073,0,0,0-2.68164.94238,14.92439,14.92439,0,0,0-2.373,1.46289,18.25912,18.25912,0,0,0-2.12793,1.88477l-.55274-2.63233a1.973,1.973,0,0,0-2.04785-1.46289h-4.90723v33.3457H241.418V40.04a13.97408,13.97408,0,0,1,3.44531-2.56787,8.36,8.36,0,0,1,3.89942-.94238,5.23946,5.23946,0,0,1,4.24121,1.67382,7.1202,7.1202,0,0,1,1.41406,4.729V64.15527h8.02734V42.93262a16.96943,16.96943,0,0,0-.73144-5.11914A11.43392,11.43392,0,0,0,259.56934,33.81592Z"/><path d="M296.53809,34.90479a14.61949,14.61949,0,0,0-5.18457-3.4126,19.73632,19.73632,0,0,0-13.56836,0,14.73828,14.73828,0,0,0-5.21582,3.4126,15.15852,15.15852,0,0,0-3.34766,5.395,20.26814,20.26814,0,0,0-1.18652,7.11817,20.3573,20.3573,0,0,0,1.18652,7.14941,15.48311,15.48311,0,0,0,3.34766,5.42774,14.52165,14.52165,0,0,0,5.21582,3.44531,19.74387,19.74387,0,0,0,13.56836,0,14.406,14.406,0,0,0,5.18457-3.44531,15.44274,15.44274,0,0,0,3.31445-5.42774,20.61068,20.61068,0,0,0,1.16992-7.14941,20.52021,20.52021,0,0,0-1.16992-7.11817A15.11879,15.11879,0,0,0,296.53809,34.90479Zm-5.80176,20.76806q-1.998,2.79492-6.15821,2.79492-4.22607,0-6.24023-2.81152-2.01562-2.811-2.01562-8.17383t2.01562-8.206q2.01415-2.844,6.24023-2.84424a7.02941,7.02941,0,0,1,6.15821,2.82764q1.99952,2.82861,1.999,8.22265Q292.73535,52.87744,290.73633,55.67285Z"/><path d="M333.49023,34.90479a14.61932,14.61932,0,0,0-5.18457-3.4126,19.73632,19.73632,0,0,0-13.56836,0,14.73837,14.73837,0,0,0-5.21582,3.4126,15.15864,15.15864,0,0,0-3.34765,5.395A20.26813,20.26813,0,0,0,304.9873,47.418a20.3573,20.3573,0,0,0,1.18653,7.14941,15.48324,15.48324,0,0,0,3.34765,5.42774,14.52174,14.52174,0,0,0,5.21582,3.44531,19.74387,19.74387,0,0,0,13.56836,0,14.40583,14.40583,0,0,0,5.18457-3.44531,15.44276,15.44276,0,0,0,3.31446-5.42774,20.61068,20.61068,0,0,0,1.16992-7.14941,20.52021,20.52021,0,0,0-1.16992-7.11817A15.11881,15.11881,0,0,0,333.49023,34.90479Zm-5.80175,20.76806q-1.998,2.79492-6.15821,2.79492-4.22607,0-6.24023-2.81152-2.01562-2.811-2.01563-8.17383t2.01563-8.206q2.01416-2.844,6.24023-2.84424a7.02943,7.02943,0,0,1,6.15821,2.82764q1.9995,2.82861,1.999,8.22265Q329.6875,52.87744,327.68848,55.67285Z"/><path d="M374.0332,39.959a15.83426,15.83426,0,0,0-2.53515-5.33056,11.208,11.208,0,0,0-3.89942-3.29883,10.94308,10.94308,0,0,0-4.98925-1.13721,12.579,12.579,0,0,0-6.126,1.42969,16.85948,16.85948,0,0,0-4.63184,3.73779l-.64941-3.0874a1.67059,1.67059,0,0,0-.71485-1.105,2.403,2.403,0,0,0-1.333-.35791h-4.90723V75.043h8.02734V61.39258a11.70533,11.70533,0,0,0,3.52637,2.38867,11.9269,11.9269,0,0,0,4.794.86133,13.13839,13.13839,0,0,0,5.93066-1.31641,13.27965,13.27965,0,0,0,4.51758-3.65625,16.93554,16.93554,0,0,0,2.87695-5.52441,22.87106,22.87106,0,0,0,1.00684-6.92285A26.82079,26.82079,0,0,0,374.0332,39.959Zm-7.94629,12.28516a10.28732,10.28732,0,0,1-1.57617,3.52637,6.4008,6.4008,0,0,1-2.50293,2.08008,7.774,7.774,0,0,1-3.29785.68261,8.9541,8.9541,0,0,1-3.46191-.667,7.63939,7.63939,0,0,1-2.97364-2.35547V40.55957a12.38983,12.38983,0,0,1,3.29883-2.97363,8.20332,8.20332,0,0,1,4.27344-1.05615,6.6363,6.6363,0,0,1,2.84375.585,5.32908,5.32908,0,0,1,2.12891,1.85254A9.58363,9.58363,0,0,1,366.168,42.2666a22.26982,22.26982,0,0,1,.47168,4.95606A20.15434,20.15434,0,0,1,366.08691,52.24414Z"/></g></svg>