<svg id="Layer_1" data-name="Layer 1" xmlns="http://www.w3.org/2000/svg" viewBox="0 0 687.85331 326.36583"><defs><style>.cls-1{fill:#f16827;}.cls-2{fill:none;}.cls-3{fill:#284e64;}.cls-4{fill:#f48029;}.cls-5{fill:#f89a2e;}.cls-6{fill:#f89921;}.cls-7{fill:#f4ae5c;}.cls-8{fill:#cd4e27;}.cls-9{fill:#f16938;}</style></defs><title>vitess-horizontal-color</title><rect class="cls-1" x="287.85245" y="214.16924" width="27.0657" height="100.29297"/><rect class="cls-1" x="287.85245" y="169.86122" width="27.0657" height="20.29989"/><path class="cls-1" d="M382.21622,294.85846a25.91527,25.91527,0,0,1-3.70722.23128,8.62583,8.62583,0,0,1-6.44387-2.5032q-2.4555-2.50332-2.45556-8.34173v-51.075h16.96225V214.16924H369.60957V189.60443H342.63684v24.56481H327.98967v19.00059h14.64717v51.168q0,16.68231,7.55262,24.37657,7.55377,7.69668,21.55142,7.69553a47.344,47.344,0,0,0,8.38937-.69614,54.87908,54.87908,0,0,0,7.92451-2.086l-2.22429-19.55842A31.02438,31.02438,0,0,1,382.21622,294.85846Z"/><path class="cls-1" d="M444.96815,212.31454Q423.555,212.22273,411.32027,226.59q-12.23368,14.36953-12.23477,36.89025v3.70939q0,21.68857,12.60665,35.45495Q424.29657,316.4088,446.73,316.40988a72.35618,72.35618,0,0,0,22.43107-3.33764q10.28838-3.33642,16.31388-8.25093L478.15347,288.138a62.97121,62.97121,0,0,1-13.11672,5.65476,55.6869,55.6869,0,0,1-15.4341,1.85252q-11.02965,0-16.638-6.39636-5.60829-6.39393-6.25563-16.68333l.27661-.55783h59.78848V258.01125q0-20.94711-10.79959-33.32133Q465.17615,212.31333,444.96815,212.31454Zm15.29579,41.80367H427.26456l-.18594-.46256q.9251-9.268,5.33051-14.87627,4.401-5.60847,12.559-5.60955,8.064,0,11.67937,5.05172,3.61514,5.0541,3.61642,13.85819Z"/><path class="cls-1" d="M573.95024,265.84509q-9.04-7.183-27.4851-10.89257-12.05-2.316-15.98963-5.23536a9.00368,9.00368,0,0,1-3.93837-7.55493,10.08685,10.08685,0,0,1,3.80007-7.972q3.799-3.24461,10.2894-3.24467,7.319,0,11.21451,3.8002a13.12683,13.12683,0,0,1,3.893,9.82672h26.1406l.18594-.55771q.46255-13.53279-10.98541-22.61714-11.448-9.08089-30.44867-9.08307-18.16851,0-29.10635,9.08307-10.93784,9.08762-10.93777,21.96864,0,12.23713,9.13071,19.37248,9.12834,7.13885,26.74146,10.66128,11.6793,2.41132,15.98949,5.60713,4.30917,3.19716,4.31026,7.6479a9.77593,9.77593,0,0,1-3.93837,8.20342q-3.9419,3.01334-11.448,3.01109-8.064,0-13.06921-3.61425-5.00646-3.61534-5.28531-11.67924H498.26524l-.18595.55552q-.55437,12.97842,11.07839,23.12721,11.63166,10.14872,31.65487,10.15109,18.99834,0,30.58685-8.62064,11.58748-8.62161,11.5864-22.15446Q582.9858,273.03037,573.95024,265.84509Z"/><path class="cls-1" d="M671.83529,265.84509q-9.04017-7.183-27.48523-10.89257-12.04985-2.316-15.9895-5.23536a9.0038,9.0038,0,0,1-3.9385-7.55493,10.087,10.087,0,0,1,3.8002-7.972q3.799-3.24461,10.28927-3.24467,7.31924,0,11.21451,3.8002a13.12635,13.12635,0,0,1,3.893,9.82672H679.7598l.18581-.55771q.46255-13.53279-10.98541-22.61714-11.448-9.08089-30.44867-9.08307-18.16832,0-29.10622,9.08307-10.93783,9.08762-10.9379,21.96864,0,12.23713,9.13071,19.37248,9.12853,7.13885,26.74146,10.66128,11.6793,2.41132,15.98962,5.60713,4.30917,3.19716,4.31026,7.6479a9.776,9.776,0,0,1-3.9385,8.20342q-3.9417,3.01334-11.448,3.01109-8.064,0-13.06908-3.61425-5.00646-3.61534-5.28531-11.67924H596.15016l-.186.55552q-.55437,12.97842,11.07839,23.12721,11.63166,10.14872,31.65487,10.15109,18.99834,0,30.587-8.62064,11.58749-8.62161,11.58627-22.15446Q680.87072,273.03037,671.83529,265.84509Z"/><polygon class="cls-2" points="67.296 115.476 67.286 115.486 67.286 115.486 67.296 115.476 67.296 115.476"/><polygon class="cls-3" points="205.381 198.762 205.414 198.591 216.723 132.379 205.381 198.762"/><polygon class="cls-3" points="287.066 132.222 250.362 198.554 180.978 324.243 180.981 324.248 250.378 198.538 287.083 132.215 327.181 59.481 287.066 132.222 287.066 132.222"/><polygon class="cls-3" points="288.32 2.118 276.538 23.648 288.325 2.118 288.32 2.118"/><polygon class="cls-3" points="67.296 115.476 112.291 67.187 67.296 115.476 67.296 115.476"/><polygon class="cls-3" points="76.873 132.964 76.873 132.964 126.563 93.493 76.873 132.964"/><polygon class="cls-3" points="76.873 132.964 73.54 126.887 76.865 132.964 112.22 197.863 117.961 208.448 112.215 197.849 76.873 132.964"/><polygon class="cls-3" points="89.269 109.943 112.291 67.187 126.563 93.493 154.238 144.542 126.58 93.485 112.295 67.166 76.715 2.118 76.708 2.118 112.291 67.187 89.269 109.943"/><polygon class="cls-3" points="192.839 215.603 193.002 215.904 199.664 228.151 192.839 215.603"/><polygon class="cls-3" points="239.869 90.44 216.71 132.365 190.95 179.802 216.723 132.379 239.869 90.44"/><polygon class="cls-1" points="147.533 263.001 180.97 324.257 199.372 229.652 147.533 263.001"/><polygon class="cls-4" points="199.664 228.151 193.002 215.904 170.161 173.914 147.533 263.001 199.372 229.652 199.664 228.151"/><polygon class="cls-5" points="112.215 197.849 117.961 208.448 147.533 263.001 170.161 173.914 112.215 197.849"/><polygon class="cls-1" points="112.215 197.849 170.161 173.914 154.238 144.542 126.563 93.493 112.215 197.849"/><polygon class="cls-6" points="205.381 198.762 216.723 132.379 190.95 179.802 182.162 195.973 192.839 215.603 199.664 228.151 205.381 198.762"/><polygon class="cls-5" points="76.873 132.964 112.215 197.849 126.563 93.493 76.873 132.964"/><polygon class="cls-4" points="250.362 198.554 287.066 132.222 205.414 198.591 250.362 198.554"/><polygon class="cls-7" points="112.291 67.187 89.269 109.943 76.873 132.964 126.563 93.493 112.291 67.187"/><polygon class="cls-7" points="205.414 198.591 252.467 67.616 239.869 90.44 216.723 132.379 205.414 198.591"/><polygon class="cls-8" points="76.873 132.964 89.269 109.943 112.291 67.187 67.296 115.476 67.286 115.486 73.54 126.887 76.873 132.964 76.873 132.964"/><polygon class="cls-9" points="287.066 132.222 252.467 67.616 252.467 67.616 205.414 198.591 287.066 132.222"/><polygon class="cls-9" points="67.296 115.476 112.291 67.187 76.708 2.118 76.703 2.109 76.703 2.109 67.286 115.486 67.296 115.476"/><polygon class="cls-5" points="287.066 132.222 288.33 2.118 288.33 2.109 288.325 2.118 276.538 23.648 252.467 67.616 252.467 67.616 287.066 132.222 287.066 132.222"/><polygon class="cls-5" points="76.703 2.109 5.916 2.109 67.286 115.486 67.286 115.486 76.703 2.109"/><polygon class="cls-8" points="288.33 2.109 288.33 2.118 287.066 132.222 327.181 59.481 358.819 2.109 288.33 2.109"/><polygon class="cls-8" points="205.414 198.591 205.381 198.762 199.664 228.151 199.372 229.652 180.97 324.257 180.978 324.243 250.362 198.554 205.414 198.591"/></svg>