<svg width="842" height="250" viewBox="0 0 842 250" fill="none" xmlns="http://www.w3.org/2000/svg">
<path d="M189 194.177L200.111 196.792C203.459 197.581 206.666 195.041 206.666 191.601V57.0542C206.666 53.6199 203.468 51.0809 200.123 51.8599L189 54.4506V194.177Z" fill="#FF8E50" style="fill:#FF8E50;fill:color(display-p3 1.0000 0.5572 0.3153);fill-opacity:1;"/>
<path d="M174.45 210.577L157 205.279V186.642L181.333 192.371V205.474C181.333 209.054 177.876 211.617 174.45 210.577Z" fill="#FF8E50" style="fill:#FF8E50;fill:color(display-p3 1.0000 0.5572 0.3153);fill-opacity:1;"/>
<path d="M181.333 56.2364L157 61.9038V43.3292L174.461 38.0697C177.885 37.0387 181.333 39.6014 181.333 43.1765V56.2364Z" fill="#FF8E50" style="fill:#FF8E50;fill:color(display-p3 1.0000 0.5572 0.3153);fill-opacity:1;"/>
<path d="M157 186.642L181.333 192.371V56.2364L157 61.9038V186.642Z" fill="#E7481B" style="fill:#E7481B;fill:color(display-p3 0.9059 0.2824 0.1059);fill-opacity:1;"/>
<path d="M141.973 227.98L120 218.968V194.045L149.33 202.95V223.046C149.33 226.839 145.483 229.419 141.973 227.98Z" fill="#FF8E50" style="fill:#FF8E50;fill:color(display-p3 1.0000 0.5572 0.3153);fill-opacity:1;"/>
<path d="M149.33 45.6394L120 54.4738V29.619L141.984 20.6584C145.492 19.2287 149.33 21.8092 149.33 25.5973V45.6394Z" fill="#FF8E50" style="fill:#FF8E50;fill:color(display-p3 1.0000 0.5572 0.3153);fill-opacity:1;"/>
<path d="M149 45.7389L120 54.4739V70.5216L149 63.7672V45.7389Z" fill="#E7481B" style="fill:#E7481B;fill:color(display-p3 0.9059 0.2824 0.1059);fill-opacity:1;"/>
<path d="M149 184.759L120 177.931V194.045L149 202.85V184.759Z" fill="#E7481B" style="fill:#E7481B;fill:color(display-p3 0.9059 0.2824 0.1059);fill-opacity:1;"/>
<path d="M149 63.7671L120 70.5215V177.931L149 184.759V63.7671Z" fill="#C71E07" style="fill:#C71E07;fill:color(display-p3 0.7800 0.1182 0.0276);fill-opacity:1;"/>
<path d="M104.02 1.55965L2.68726 59.4644C1.02553 60.414 0 62.1811 0 64.095V185.756C0 187.668 1.02344 189.433 2.68249 190.384L104.016 248.427C107.571 250.463 112 247.896 112 243.799V215.687L20.9736 178.355C18.9716 177.534 17.6641 175.584 17.6641 173.42V74.9162C17.6641 72.7481 18.9766 70.7957 20.9843 69.9774L112 32.8799V6.19027C112 2.09522 107.576 -0.472073 104.02 1.55965Z" fill="#FF8E50" style="fill:#FF8E50;fill:color(display-p3 1.0000 0.5572 0.3153);fill-opacity:1;"/>
<path d="M112 32.8798L20.9843 69.9774C18.9766 70.7957 17.6641 72.7481 17.6641 74.9162V173.42C17.6641 175.584 18.9716 177.534 20.9736 178.355L112 215.687V191.616L46.7839 171.815C44.5365 171.133 43 169.061 43 166.712V81.6302C43 79.2772 44.5421 77.2022 46.7952 76.5235L112 56.8835V32.8798Z" fill="#E7481B" style="fill:#E7481B;fill:color(display-p3 0.9059 0.2824 0.1059);fill-opacity:1;"/>
<path d="M112 56.8835L46.7952 76.5236C44.5421 77.2022 43 79.2772 43 81.6303V166.712C43 169.061 44.5365 171.133 46.7839 171.816L112 191.616V176.047L79.111 168.304C76.7023 167.737 75 165.587 75 163.113V85.2365C75 82.7571 76.7087 80.6047 79.1235 80.0422L112 72.3849V56.8835Z" fill="#C71E07" style="fill:#C71E07;fill:color(display-p3 0.7800 0.1182 0.0276);fill-opacity:1;"/>
<path d="M112 72.3849L79.1235 80.0422C76.7087 80.6047 75 82.7571 75 85.2365V163.113C75 165.587 76.7023 167.737 79.111 168.304L112 176.047V72.3849Z" fill="#9E0C03" style="fill:#9E0C03;fill:color(display-p3 0.6200 0.0459 0.0115);fill-opacity:1;"/>
<path d="M257 42.2948H282.189C284.897 42.2948 287.103 42.9526 288.805 44.2681C290.508 45.5837 291.785 47.2861 292.636 49.3755L332.102 151.756C333.418 155.083 334.656 158.759 335.817 162.783C337.055 166.73 338.216 170.909 339.299 175.32C341.079 166.42 343.284 158.566 345.915 151.756L385.266 49.3755C385.962 47.5957 387.2 45.9706 388.98 44.5003C390.76 43.03 392.965 42.2948 395.596 42.2948H420.785L352.996 210.143H324.789L257 42.2948Z" fill="black" style="fill:black;fill-opacity:1;"/>
<path d="M456.76 91.0473V210.143H428.089V91.0473H456.76ZM461.055 56.3402C461.055 58.8165 460.552 61.138 459.546 63.3048C458.54 65.4716 457.186 67.3675 455.483 68.9926C453.858 70.6177 451.924 71.9332 449.679 72.9393C447.435 73.8679 445.036 74.3322 442.483 74.3322C440.006 74.3322 437.646 73.8679 435.402 72.9393C433.235 71.9332 431.339 70.6177 429.714 68.9926C428.089 67.3675 426.774 65.4716 425.768 63.3048C424.839 61.138 424.375 58.8165 424.375 56.3402C424.375 53.7865 424.839 51.3875 425.768 49.1434C426.774 46.8992 428.089 44.9646 429.714 43.3395C431.339 41.7144 433.235 40.4376 435.402 39.5089C437.646 38.5029 440.006 37.9999 442.483 37.9999C445.036 37.9999 447.435 38.5029 449.679 39.5089C451.924 40.4376 453.858 41.7144 455.483 43.3395C457.186 44.9646 458.54 46.8992 459.546 49.1434C460.552 51.3875 461.055 53.7865 461.055 56.3402Z" fill="black" style="fill:black;fill-opacity:1;"/>
<path d="M517.929 212C507.637 212 499.705 209.098 494.134 203.294C488.562 197.413 485.776 189.326 485.776 179.034V112.522H473.704C472.156 112.522 470.802 112.019 469.641 111.013C468.558 110.007 468.016 108.498 468.016 106.486V95.11L487.169 91.976L493.205 59.4743C493.514 57.9266 494.211 56.7271 495.294 55.8759C496.455 55.0246 497.887 54.599 499.589 54.599H514.447V92.092H545.788V112.522H514.447V177.061C514.447 180.775 515.376 183.677 517.233 185.767C519.09 187.856 521.566 188.901 524.662 188.901C526.442 188.901 527.912 188.707 529.073 188.32C530.311 187.856 531.356 187.392 532.207 186.927C533.136 186.463 533.948 186.037 534.645 185.65C535.341 185.186 536.037 184.954 536.734 184.954C537.585 184.954 538.282 185.186 538.823 185.65C539.365 186.037 539.945 186.656 540.564 187.508L549.154 201.437C544.975 204.919 540.178 207.55 534.761 209.33C529.344 211.11 523.733 212 517.929 212Z" fill="black" style="fill:black;fill-opacity:1;"/>
<path d="M607.36 89.1901C614.866 89.1901 621.753 90.3896 628.022 92.7885C634.367 95.1874 639.823 98.7084 644.389 103.352C648.954 107.917 652.514 113.566 655.068 120.299C657.621 126.954 658.898 134.576 658.898 143.166C658.898 145.333 658.782 147.151 658.55 148.622C658.395 150.015 658.047 151.137 657.505 151.988C657.041 152.762 656.383 153.342 655.532 153.729C654.681 154.039 653.597 154.193 652.282 154.193H578.689C579.54 166.42 582.829 175.397 588.555 181.123C594.282 186.85 601.866 189.713 611.306 189.713C615.95 189.713 619.935 189.171 623.262 188.088C626.667 187.005 629.608 185.805 632.084 184.49C634.638 183.174 636.843 181.975 638.701 180.891C640.635 179.808 642.493 179.266 644.272 179.266C645.433 179.266 646.439 179.498 647.29 179.963C648.142 180.427 648.877 181.085 649.496 181.936L657.854 192.383C654.681 196.097 651.121 199.232 647.174 201.785C643.228 204.262 639.088 206.274 634.754 207.821C630.498 209.292 626.126 210.336 621.637 210.955C617.226 211.574 612.932 211.884 608.753 211.884C600.473 211.884 592.773 210.53 585.653 207.821C578.534 205.035 572.343 200.973 567.081 195.633C561.819 190.216 557.679 183.561 554.661 175.668C551.643 167.697 550.134 158.488 550.134 148.041C550.134 139.916 551.449 132.294 554.08 125.174C556.711 117.977 560.465 111.748 565.34 106.486C570.292 101.146 576.29 96.9286 583.332 93.8332C590.451 90.7378 598.461 89.1901 607.36 89.1901ZM607.94 109.736C599.583 109.736 593.044 112.096 588.323 116.817C583.603 121.537 580.585 128.231 579.269 136.898H633.129C633.129 133.183 632.626 129.701 631.62 126.451C630.614 123.123 629.066 120.221 626.977 117.745C624.888 115.269 622.256 113.334 619.084 111.941C615.911 110.471 612.196 109.736 607.94 109.736Z" fill="black" style="fill:black;fill-opacity:1;"/>
<path d="M742.4 114.263C741.626 115.501 740.813 116.391 739.962 116.933C739.111 117.397 738.027 117.629 736.712 117.629C735.319 117.629 733.81 117.242 732.185 116.468C730.637 115.694 728.819 114.843 726.729 113.915C724.64 112.909 722.241 112.019 719.532 111.245C716.901 110.471 713.767 110.084 710.13 110.084C704.481 110.084 700.031 111.284 696.781 113.682C693.531 116.081 691.906 119.215 691.906 123.085C691.906 125.638 692.718 127.805 694.344 129.585C696.046 131.288 698.251 132.797 700.96 134.112C703.746 135.428 706.88 136.627 710.362 137.71C713.845 138.716 717.404 139.839 721.041 141.077C724.678 142.315 728.238 143.746 731.72 145.372C735.203 146.919 738.298 148.931 741.007 151.408C743.793 153.807 745.998 156.708 747.623 160.113C749.326 163.518 750.177 167.62 750.177 172.418C750.177 178.144 749.132 183.445 747.043 188.32C744.953 193.118 741.897 197.297 737.873 200.857C733.849 204.339 728.857 207.086 722.899 209.098C717.017 211.033 710.246 212 702.585 212C698.484 212 694.46 211.613 690.513 210.839C686.644 210.143 682.891 209.137 679.253 207.821C675.694 206.506 672.366 204.958 669.271 203.178C666.253 201.398 663.583 199.464 661.261 197.374L667.878 186.463C668.729 185.147 669.735 184.141 670.896 183.445C672.057 182.749 673.527 182.4 675.307 182.4C677.087 182.4 678.75 182.903 680.298 183.909C681.923 184.915 683.78 185.999 685.87 187.159C687.959 188.32 690.397 189.404 693.183 190.41C696.046 191.416 699.644 191.919 703.978 191.919C707.383 191.919 710.285 191.532 712.684 190.758C715.16 189.907 717.172 188.823 718.72 187.508C720.345 186.192 721.506 184.683 722.202 182.981C722.976 181.201 723.363 179.382 723.363 177.525C723.363 174.739 722.512 172.456 720.809 170.676C719.184 168.897 716.979 167.349 714.193 166.033C711.484 164.718 708.35 163.557 704.79 162.551C701.308 161.468 697.71 160.307 693.995 159.069C690.358 157.831 686.76 156.399 683.2 154.774C679.718 153.071 676.584 150.943 673.798 148.39C671.089 145.836 668.884 142.702 667.181 138.987C665.556 135.273 664.744 130.785 664.744 125.522C664.744 120.647 665.711 116.004 667.646 111.593C669.58 107.182 672.405 103.352 676.119 100.101C679.911 96.7738 684.593 94.1427 690.165 92.2081C695.814 90.1961 702.314 89.1901 709.666 89.1901C717.869 89.1901 725.336 90.5443 732.069 93.2528C738.801 95.9613 744.412 99.521 748.9 103.932L742.4 114.263Z" fill="black" style="fill:black;fill-opacity:1;"/>
<path d="M833.294 114.263C832.52 115.501 831.707 116.391 830.856 116.933C830.005 117.397 828.921 117.629 827.606 117.629C826.213 117.629 824.704 117.242 823.079 116.468C821.531 115.694 819.713 114.843 817.623 113.915C815.534 112.909 813.135 112.019 810.426 111.245C807.795 110.471 804.661 110.084 801.024 110.084C795.375 110.084 790.925 111.284 787.675 113.682C784.425 116.081 782.8 119.215 782.8 123.085C782.8 125.638 783.612 127.805 785.238 129.585C786.94 131.288 789.146 132.797 791.854 134.112C794.64 135.428 797.774 136.627 801.256 137.71C804.739 138.716 808.298 139.839 811.935 141.077C815.573 142.315 819.132 143.746 822.615 145.372C826.097 146.919 829.192 148.931 831.901 151.408C834.687 153.807 836.892 156.708 838.517 160.113C840.22 163.518 841.071 167.62 841.071 172.418C841.071 178.144 840.026 183.445 837.937 188.32C835.847 193.118 832.791 197.297 828.767 200.857C824.743 204.339 819.751 207.086 813.793 209.098C807.911 211.033 801.14 212 793.479 212C789.378 212 785.354 211.613 781.407 210.839C777.538 210.143 773.785 209.137 770.148 207.821C766.588 206.506 763.26 204.958 760.165 203.178C757.147 201.398 754.477 199.464 752.156 197.374L758.772 186.463C759.623 185.147 760.629 184.141 761.79 183.445C762.951 182.749 764.421 182.4 766.201 182.4C767.981 182.4 769.645 182.903 771.192 183.909C772.817 184.915 774.675 185.999 776.764 187.159C778.853 188.32 781.291 189.404 784.077 190.41C786.94 191.416 790.539 191.919 794.872 191.919C798.277 191.919 801.179 191.532 803.578 190.758C806.054 189.907 808.066 188.823 809.614 187.508C811.239 186.192 812.4 184.683 813.096 182.981C813.87 181.201 814.257 179.382 814.257 177.525C814.257 174.739 813.406 172.456 811.703 170.676C810.078 168.897 807.873 167.349 805.087 166.033C802.378 164.718 799.244 163.557 795.685 162.551C792.202 161.468 788.604 160.307 784.889 159.069C781.252 157.831 777.654 156.399 774.094 154.774C770.612 153.071 767.478 150.943 764.692 148.39C761.983 145.836 759.778 142.702 758.076 138.987C756.45 135.273 755.638 130.785 755.638 125.522C755.638 120.647 756.605 116.004 758.54 111.593C760.474 107.182 763.299 103.352 767.013 100.101C770.805 96.7738 775.487 94.1427 781.059 92.2081C786.708 90.1961 793.208 89.1901 800.56 89.1901C808.763 89.1901 816.23 90.5443 822.963 93.2528C829.695 95.9613 835.306 99.521 839.794 103.932L833.294 114.263Z" fill="black" style="fill:black;fill-opacity:1;"/>
</svg>
