<?xml version="1.0" encoding="utf-8"?>
<!-- Generator: Adobe Illustrator 21.1.0, SVG Export Plug-In . SVG Version: 6.00 Build 0)  -->
<svg version="1.1"
	 id="svg2" xmlns:cc="http://creativecommons.org/ns#" xmlns:dc="http://purl.org/dc/elements/1.1/" xmlns:rdf="http://www.w3.org/1999/02/22-rdf-syntax-ns#" xmlns:svg="http://www.w3.org/2000/svg"
	 xmlns="http://www.w3.org/2000/svg" xmlns:xlink="http://www.w3.org/1999/xlink" x="0px" y="0px" viewBox="0 0 360 445.1426392"
	 style="enable-background:new 0 0 360 445.1426392;" xml:space="preserve">
<style type="text/css">
	.st0{fill:none;}
	.st1{fill:#FFFFFF;}
</style>
<path class="st0" d="M190.541153,413.3265991h-16.6176758v18.5735474h17.6707153
	c7.9714355,0,12.9334717-3.5334473,12.9334717-9.3988647v-0.1507568
	C204.5276642,416.6352539,199.7151642,413.3265991,190.541153,413.3265991z"/>
<path class="st0" d="M201.5949249,398.6629639v-0.1503296c0-5.1881714-4.1351929-8.5720825-11.6543579-8.5720825h-16.0170898
	v18.1222534h15.5647583C196.6328888,408.0628052,201.5949249,404.8297729,201.5949249,398.6629639z"/>
<path class="st0" d="M190.541153,413.3265991h-16.6176758v18.5735474h17.6707153
	c7.9714355,0,12.9334717-3.5334473,12.9334717-9.3988647v-0.1507568
	C204.5276642,416.6352539,199.7151642,413.3265991,190.541153,413.3265991z"/>
<path class="st0" d="M128.3369904,153.7966309c0-5.5709229,4.5576172-10.1289062,10.1286011-10.1289062
	c5.5709229,0,10.1272583,4.5579834,10.1272583,10.1289062v14.0494385h9.1490479v-32.8920898h-38.5543213v32.8920898h9.1494141
	V153.7966309z"/>
<polygon class="st0" points="69.1648712,417.9134521 93.3783722,417.9134521 81.2716217,390.9935303 "/>
<path class="st0" d="M138.2002106,390.0900879h-16.2432251v21.3565674h16.1678467
	c7.8960571,0,13.5354004-4.0601196,13.5354004-10.8283081v-0.1501465
	C151.6602325,394.001709,146.6981964,390.0900879,138.2002106,390.0900879z"/>
<path class="st0" d="M321.1545715,168.9417114c-0.5093994-7.5687256-1.5945435-14.9743652-3.2518921-22.173584
	l-141.9797516,4.8342285l128.1482697-41.1816406l0.000061-0.000061c-0.0958862-0.175354-0.1785889-0.3572998-0.2745361-0.5292969
	c-4.7472534-8.5450439-10.3842773-16.5142822-16.7260742-23.8683472h-0.000061l-113.3806915,58.6768799l82.3401642-85.6318359
	l0.8431396-0.8768921c-21.744339-13.5755615-47.3844147-21.4631348-74.8509674-21.4631348
	c-78.2033691,0-141.8285522,63.6226158-141.8285522,141.8242798c0,49.2072144,25.1960411,92.6353149,63.3593712,118.0792847
	l2.1937866-24.7957153l68.6542969,30.2531128l1.4839478,18.1469116c2.0358276,0.0871582,4.0802002,0.1409912,6.137085,0.1409912
	c67.6506958,0,124.3568268-47.6256104,138.4362946-111.0991821l-2.0993042-0.7283325l-144.6692657-50.1911011
	l147.4646759,10.5834961l7.1852417,0.515625l13.4573975,0.9656982c0-0.000061,0,0,0-0.000061l-13.4573975-0.9656982
	L321.1545715,168.9417114z M104.7028351,183.9641113v-16.118042h5.5553589v-32.8920898h-5.5553589v-9.4547119l30.8512573-30.1869507
	v-2.1239014c0-1.6011353,1.3103638-2.9111938,2.911499-2.9111938c1.6011963,0,2.9115601,1.3100586,2.9115601,2.9111938v2.1239014
	l30.8499146,30.1869507v9.4547119h-5.5543823v32.8920898h5.5543823v16.118042h-7.486084l3.9436646,48.2373047l-57.2001343-25.206543
	l2.0379028-23.0307617H104.7028351z M171.063858,261.2821655l0.9587402,11.7247925l-63.8875732-28.1557617l0.9613037-10.8742676
	L171.063858,261.2821655z M109.8099518,225.9248657l0.9626465-10.8768921l58.6229858,25.8334351l0.9587402,11.7208252
	L109.8099518,225.9248657z M106.4604645,263.7801514l0.9626465-10.8729248l65.31073,28.7810059l0.9560547,11.72052
	L106.4604645,263.7801514z"/>
<path class="st0" d="M244.4603424,389.1891479c-12.031311,0-20.6033936,9.624939-20.6033936,21.5806274v0.1508179
	c0,11.9561768,8.7229004,21.7321167,20.7542114,21.7321167c12.032547,0,20.6046295-9.6253052,20.6046295-21.5819702v-0.1501465
	C265.2157898,398.9642334,256.4929504,389.1891479,244.4603424,389.1891479z"/>
<path class="st0" d="M303.797699,390.0900879h-16.2432251v21.3565674h16.1678467
	c7.8960571,0,13.5354004-4.0601196,13.5354004-10.8283081v-0.1501465
	C317.2577209,394.001709,312.2956848,390.0900879,303.797699,390.0900879z"/>
<path class="st1" d="M43.8935127,386.2246094c-1.6536255,0-3.006897,1.3545532-3.006897,3.0081177v20.7550659H10.5061216
	v-20.7550659c0-1.6535645-1.3533325-3.0081177-3.006897-3.0081177c-1.5794678,0-2.9327393,1.3545532-2.9327393,3.0081177h-0.000061
	v47.3748779c0,1.6551514,1.3533325,3.0084229,2.9328003,3.0084229c1.6535645,0,3.006897-1.3532715,3.006897-3.0084229v-21.0552368
	h30.3804932v21.0552368c0,1.6551514,1.3532715,3.0084229,3.006897,3.0084229c1.5794678,0,2.9327393-1.3532715,2.9327393-3.0084229
	v-47.3748779C46.826252,387.5791626,45.4729805,386.2246094,43.8935127,386.2246094z"/>
<path class="st1" d="M85.2573395,388.6320801c-0.6773071-1.6548462-1.8797607-2.6323853-3.6841431-2.6323853h-0.3015747
	c-1.8797607,0-3.0081177,0.9775391-3.7595215,2.6323853l-21.3560753,46.697937l-0.000061-0.000061
	c-0.300293,0.6008911-0.3769531,1.1270142-0.3769531,1.578125c0,1.5044556,1.2037964,2.7079468,2.706604,2.7079468
	c1.3557739,0,2.3321533-0.7525635,2.8586426-2.0305786l5.4897423-12.2576294h28.8764648l5.4885254,12.1068726
	c0.5264893,1.2034912,1.5040894,2.1813354,2.9327393,2.1813354c1.5795288,0,2.8573608-1.2791748,2.8573608-2.8586426
	c0-0.4510498-0.1507568-0.9778442-0.3769531-1.5039062L85.2573395,388.6320801z M69.1648712,419.9134521l12.1067505-26.9199219
	l12.1067505,26.9199219H69.1648712z"/>
<path class="st1" d="M138.6500397,386.6015625h-19.6999512c-1.5794678,0-2.9327393,1.3532715-2.9327393,3.0081177v46.9979248
	c0,1.6551514,1.3532715,3.0084229,2.9327393,3.0084229c1.6536255,0,3.006897-1.3532715,3.006897-3.0084229v-17.8216553h15.1149292
	l14.8145142,19.2504883c0.6772461,0.9022217,1.578186,1.5795898,2.7807007,1.5795898
	c1.5053101,0,3.0093994-1.3532715,3.0093994-2.9327393c0-0.828064-0.3769531-1.5039673-0.9776001-2.1813354l-13.0842896-16.8438721
	c8.1964111-1.5791016,14.0618896-6.6174316,14.0618896-15.2655029v-0.1501465c0-4.1360474-1.5040894-7.8201904-4.0610962-10.3772583
	C150.3069611,388.5567627,145.1186676,386.6015625,138.6500397,386.6015625z M151.6602325,402.6183472
	c0,6.7681885-5.6393433,10.8283081-13.5354004,10.8283081h-16.1678467v-21.3565674h16.2432251
	c8.4979858,0,13.460022,3.9116211,13.460022,10.3781128V402.6183472z"/>
<path class="st1" d="M199.2653351,412.0178833c4.1352539-1.8042603,8.3458862-5.3388062,8.3458862-12.1820068v-0.1500244
	c0-3.3838501-1.2037354-6.1670532-3.3838501-8.4225464c-3.0081177-2.9327393-7.7452393-4.6617432-13.7603149-4.6617432H170.990799
	c-1.5795288,0-2.9328003,1.3532715-2.9328003,3.0081177v46.6224976c0,1.6536255,1.3532715,3.006897,2.9327393,3.006897h20.4526367
	c11.5048828,0,19.1005859-5.3389282,19.1005859-14.3623047v-0.1506958
	C210.5439606,417.5072632,205.5052643,413.8977661,199.2653351,412.0178833z M173.9234772,391.9405518h16.0170898
	c7.519165,0,11.6543579,3.3839111,11.6543579,8.5720825v0.1503296c0,6.1668091-4.9620361,9.3998413-12.1066895,9.3998413
	h-15.5647583V391.9405518z M204.5276642,424.5012817c0,5.8654175-4.9620361,9.3988647-12.9334717,9.3988647h-17.6707153v-18.5735474
	h16.6176758c9.1740112,0,13.9865112,3.3086548,13.9865112,9.0239258V424.5012817z"/>
<path class="st1" d="M244.6111603,385.6993408c-16.0170288,0-26.9200439,12.7086182-26.9200439,27.2212524v0.1501465
	c0,14.5129395,10.7521973,27.0718994,26.7692261,27.0718994c16.0171051,0,26.9212799-12.7087402,26.9212799-27.2220459v-0.1508179
	C271.3816223,398.2572021,260.6294861,385.6993408,244.6111603,385.6993408z M265.2157898,413.0707397
	c0,11.956665-8.5720825,21.5819702-20.6046295,21.5819702c-12.031311,0-20.7542114-9.7759399-20.7542114-21.7321167v-0.1508179
	c0-11.9556885,8.5720825-21.5806274,20.6033936-21.5806274c12.032608,0,20.7554474,9.7750854,20.7554474,21.7314453V413.0707397z"/>
<path class="st1" d="M304.2475891,386.6015625h-19.6999512c-1.5794678,0-2.9328003,1.3532715-2.9328003,3.0081177h-0.000061
	v46.9979248c0,1.6551514,1.3532715,3.0084229,2.9327393,3.0084229c1.6535645,0,3.006897-1.3532715,3.006897-3.0084229v-17.8216553
	h15.1160889l14.8133545,19.2504883c0.6771851,0.9022217,1.578186,1.5795898,2.7807007,1.5795898
	c1.5053101,0,3.0093994-1.3532715,3.0093994-2.9327393c0-0.828064-0.3769531-1.5039673-0.9775391-2.1813354l-13.0842896-16.8438721
	c8.1963501-1.5791016,14.0618896-6.6174316,14.0618896-15.2655029v-0.1501465c0-4.1360474-1.5040283-7.8201904-4.0610962-10.3772583
	C315.9044495,388.5567627,310.716217,386.6015625,304.2475891,386.6015625z M317.2577209,402.6183472
	c0,6.7681885-5.6393433,10.8283081-13.5354004,10.8283081h-16.1678467v-21.3565674h16.2432251
	c8.4979858,0,13.460022,3.9116211,13.460022,10.3781128V402.6183472z"/>
<path class="st1" d="M353.7034607,385.9707642h-0.2625732c-0.3505859,0-0.6132202,0.1759033-0.8330688,0.4837646
	l-4.8238525,7.3658447l-4.7359009-7.3658447c-0.2186279-0.3078613-0.4812622-0.4837646-0.8770752-0.4837646h-0.2625732
	c-0.5704956,0-0.9637451,0.395813-0.9637451,0.9650269l-0.000061,11.8391113c0,0.5264893,0.4372559,0.965271,0.9637451,0.965271
	s0.9650269-0.4387817,0.9650269-0.965271v-9.1199341l4.034729,6.0941772
	c0.2173462,0.3518066,0.4812622,0.5704956,0.8758545,0.5704956c0.3945312,0,0.6571655-0.218689,0.8770142-0.5704956
	l4.0775146-6.0941772v9.1199341c0,0.5264893,0.395752,0.965271,0.9222412,0.965271s0.9637451-0.4387817,0.9637451-0.965271
	V386.935791C354.6244812,386.4093018,354.1872253,385.9707642,353.7034607,385.9707642z"/>
<path class="st1" d="M337.2165222,386.0160522h-9.1639404c-0.4824829,0-0.9222412,0.4384766-0.9222412,0.9197388
	c0,0.4825439,0.4397583,0.9210205,0.9222412,0.9210205h3.638916v10.9180908c0,0.5264893,0.3945923,0.965271,0.9210815,0.965271
	c0.5704346,0,1.0077515-0.4387817,1.0077515-0.965271v-10.9180908h3.5961914c0.5264893,0,0.9210815-0.4384766,0.9210815-0.9210205
	C338.1376038,386.4545288,337.7430115,386.0160522,337.2165222,386.0160522z"/>
<path class="st1" d="M111.4845123,208.994873l57.2001343,25.206543l-3.9436646-48.2373047h7.486084v-16.118042h-5.5543823
	v-32.8920898h5.5543823v-9.4547119l-30.8499146-30.1869507v-2.1239014c0-1.6011353-1.3103638-2.9111938-2.9115601-2.9111938
	c-1.6011353,0-2.911499,1.3100586-2.911499,2.9111938v2.1239014l-30.8512573,30.1869507v9.4547119h5.5553589v32.8920898h-5.5553589
	v16.118042h8.8195801L111.4845123,208.994873z M119.1875763,136.9539795h38.5543213v32.8920898h-9.1490479v-14.0494385
	c0-5.5709229-4.5563354-10.1289062-10.1272583-10.1289062c-5.5709839,0-10.1286011,4.5579834-10.1286011,10.1289062v14.0494385
	h-9.1494141V136.9539795z"/>
<polygon class="st1" points="108.135025,246.8511963 172.0225983,275.006958 171.063858,263.2821655 109.0963287,235.9769287 "/>
<polygon class="st1" points="107.423111,254.9072266 106.4604645,265.7801514 173.6898956,295.4087524 172.7338409,283.6882324 "/>
<polygon class="st1" points="110.7725983,217.0479736 109.8099518,227.9248657 170.3543243,254.6022339 169.3955841,242.8814087 "/>
<path class="st1" d="M355.9950867,180.359436c0-95.8242188-77.9589844-173.7832031-173.7832184-173.7832031
	c-28.4732056,0-55.3685913,6.8839111-79.1105347,19.0736694C46.7910347,54.4572792,8.1547422,113.0777588,8.1547422,180.5523071
	c0,95.8709106,77.9962158,173.869751,173.8674316,173.869751c10.3395386,0,20.6156006-1.0221558,30.6994019-2.9633179
	C294.0486145,336.9966431,355.9950867,265.7770996,355.9950867,180.359436z M341.7972107,172.4230957l-13.4573975-0.9656982
	l-7.1852417-0.515625l-147.4646759-10.5834961l144.6692657,50.1911011l2.0993042,0.7283325
	c-14.0794678,63.4735718-70.7855988,111.0991821-138.4362946,111.0991821c-2.0568848,0-4.1012573-0.053833-6.137085-0.1409912
	l-1.4839478-18.1469116l-68.6542969-30.2531128l-2.1937866,24.7957153
	c-38.1633301-25.4439697-63.3593712-68.8720703-63.3593712-118.0792847
	c0-78.2016602,63.6251793-141.8242798,141.8285522-141.8242798c27.4665527,0,53.1066284,7.8875732,74.8509674,21.4631348
	l-0.8431396,0.8768921l-82.3401642,85.6318359l113.3806915-58.6768799h0.000061
	c6.3417969,7.3540649,11.9788208,15.3233032,16.7260742,23.8683472c0.0959473,0.1719971,0.1786499,0.3539429,0.2745361,0.5292969
	l-0.000061,0.000061L175.9229279,153.602356l141.9797516-4.8342285c1.6573486,7.1992188,2.7424927,14.6048584,3.2518921,22.173584
	l7.1852417,0.515625l13.4573975,0.9656982C341.7972107,172.4230957,341.7972107,172.4230347,341.7972107,172.4230957z"/>
</svg>
