<svg xmlns="http://www.w3.org/2000/svg" role="img" viewBox="-16.34 -16.34 849.68 712.18"><path fill="#fff" d="M364.142 114.312c7.57 8.119 15.963 15.524 23.588 23.588 3.731 4.005 16.183 21.998 20.188 21.998 4.004 0 16.457-17.993 20.187-21.998 8.339-8.886 18.761-19.803 27.813-27.812 4.059-3.566 24.137-16.6768 24.96-17.9933.823-1.4263.823-4.6629 0-6.0892-1.81-3.072-25.838-13.1657-30.391-11.8492-1.92.5486-15.415 11.6846-18.103 13.9886-8.228 7.1863-15.086 17.3351-24.411 22.8211-4.718 0-32.586-34.3411-42.57-36.7548-5.101-1.2617-14.098 3.0171-19.035 5.4857-4.169 2.0846-12.398 5.7052-11.849 10.2035.329 2.4685 26.276 20.0226 29.678 24.4116h-.055z"/><path fill="#fff" d="M614.786 176.794c-2.688-21.449-23.369-56.283-24.247-69.888-.988-15.6888 20.078-40.5391 23.479-60.0135 2.633-15.1406.768-30.5554 1.152-45.69604-3.676-4.1143-75.703 30.28124-91.447 29.89724-14.044-.3292-56.997-26.98981-83.712-29.9521-18.432-2.02972-49.262-1.20686-67.859 1.31657-24.74 3.3463-67.639 28.36123-80.091 28.63553-15.799.384-87.827-34.01154-91.447-29.89724-1.427 19.96804 0 37.13834 5.211 56.44814 3.511 12.9463 22.492 41.8012 22.656 44.7084.329 5.651-13.934 26.057-16.896 35.657-18.706 60.453-8.887 121.125-10.752 183.772 76.142 11.849 147.237 44.819 209.555 89.253 60.343-44.325 130.011-78.062 204.617-89.253-3.291-46.08 5.431-99.895-.164-144.988h-.055zM301.112 69.2743c2.085-.4389 25.289-17.8835 36.425-22.4915 40.869-16.896 81.189-20.1874 123.758-7.68 17.335 5.1017 41.527 24.3566 53.102 26.2218 21.175 3.3463 41.198-12.3429 61.276-14.7566 16.457 17.5543-95.562 101.541-108.398 116.133-13.989 15.853-51.621 90.843-56.997 91.172-13.33.768-37.467-62.153-56.832-86.235-33.079-41.143-94.848-64.293-113.445-118.5466 0-9.3806 53.541 17.7189 61.056 16.2378l.055-.0549zM473.309 223.259c-1.92-34.56 24.192-16.512 34.505-21.779 8.338-4.279 6.199-17.444 14.757-17.664 4.608 34.121-18.542 43.831-49.262 39.443zm-129.573 0c-30.72 4.443-53.925-5.322-49.262-39.443 8.558.165 6.419 13.385 14.757 17.664 10.313 5.321 36.425-12.781 34.505 21.779zm236.435 73.563c-60.892 13.934-117.559 39.278-169.783 72.905-54.638-31.817-112.019-60.397-174.721-72.905 1.482-56.009-9.49-114.706 14.373-167.314 46.19 12.726 9.106 40.265 10.094 66.212 1.316 35.054 41.417 67.091 75.867 61.989 8.613-1.262 16.293-8.722 21.011-9.161 16.676-1.591 39.277 67.145 46.025 73.454 1.865 1.7 6.802 1.206 10.148-3.072 10.039-12.782 28.142-61.934 39.223-68.791 7.571-4.718 37.303 17.499 68.627-.11 15.031-8.448 34.45-36.096 35.273-53.925 1.371-29.403-35.383-49.975 7.022-66.542 30.72 50.469 20.352 111.525 16.896 167.315l-.055-.055zM0 558.546V472.64h12.288v39.223h.2195l17.9931-39.223h12.288l-16.7863 34.395 19.9132 51.511h-13.056L18.8709 520.42l-6.6377 12.453v25.728H0v-.055zm87.2789-61.166v61.166h-12.288v-5.925h-.2194c-1.3166 1.92-2.8526 3.511-4.6629 4.773-1.8103 1.262-4.1143 1.865-6.912 1.865-1.536 0-3.072-.274-4.608-.768-1.536-.549-2.9074-1.371-4.1143-2.578-1.2069-1.207-2.1943-2.743-2.9074-4.663-.7132-1.865-1.0972-4.224-1.0972-6.967v-46.958h12.288v42.35c0 2.249.5486 4.005 1.5909 5.321 1.0423 1.262 2.5234 1.92 4.4434 1.92 2.304 0 3.9498-.713 4.8275-2.194.8777-1.426 1.3166-3.566 1.3166-6.254v-41.143h12.288l.0548.055zm11.3007 61.166V472.64h12.2884v30.281h.219c1.371-2.03 3.017-3.566 4.882-4.663 1.865-1.097 4.06-1.646 6.473-1.646 2.963 0 5.267.549 6.967 1.591 1.646 1.042 3.018 2.359 4.06 4.005.823 1.261 1.316 2.962 1.591 5.047.219 2.084.384 5.376.384 9.764v23.314c0 3.402-.165 6.09-.494 8.064-.329 2.03-.823 3.676-1.591 5.047-2.084 3.84-5.65 5.815-10.752 5.815-3.072 0-5.376-.603-7.022-1.81-1.591-1.207-3.181-2.688-4.717-4.444v5.541H98.5796zm24.5214-42.35c0-1.92-.439-3.62-1.262-5.047-.823-1.426-2.414-2.194-4.773-2.194-1.755 0-3.236.604-4.388 1.865-1.152 1.262-1.756 2.853-1.756 4.773v23.753c0 2.249.549 4.059 1.701 5.486 1.152 1.426 2.633 2.139 4.443 2.139 2.085 0 3.621-.768 4.608-2.304.988-1.536 1.427-3.566 1.427-6.034v-22.437zm59.244 16.402h-24.357v8.339c0 1.92.548 3.401 1.646 4.443 1.097 1.042 2.523 1.591 4.388 1.591 2.304 0 3.895-.658 4.663-2.03.768-1.371 1.207-2.743 1.371-4.114h12.289c0 5.376-1.646 9.71-4.938 13.056-1.59 1.7-3.565 3.017-5.815 4.004-2.249.988-4.772 1.427-7.625 1.427-3.84 0-7.131-.823-9.819-2.414-2.688-1.591-4.773-3.73-6.199-6.418-.878-1.591-1.481-3.456-1.81-5.541-.329-2.084-.494-4.388-.494-6.857v-20.133c0-2.468.165-4.772.494-6.857.329-2.084.932-3.949 1.81-5.54 1.426-2.633 3.511-4.773 6.199-6.419 2.688-1.59 5.979-2.413 9.819-2.413 2.798 0 5.376.493 7.68 1.426 2.304.987 4.224 2.304 5.87 4.005 3.237 3.62 4.828 8.173 4.828 13.659v16.896-.11zm-24.357-9.655h12.068v-7.021c0-2.359-.548-4.06-1.645-5.267-1.097-1.152-2.579-1.755-4.389-1.755s-3.346.603-4.388 1.755c-1.098 1.152-1.646 2.908-1.646 5.267v7.021zm34.615 35.603V497.38h12.288v6.528c2.469-2.249 4.937-4.004 7.351-5.321 2.414-1.262 5.376-1.92 8.942-1.92v13.056c-1.207-.494-2.469-.713-3.731-.713-1.261 0-2.688.219-4.169.658-1.481.439-2.852 1.207-4.059 2.249-1.317 1.043-2.359 2.414-3.127 4.115-.768 1.7-1.207 3.785-1.207 6.253v36.316h-12.288v-.055zm34.781 0V497.38h12.288v5.925h.22c1.261-1.92 2.852-3.511 4.663-4.773 1.81-1.262 4.114-1.865 6.966-1.865 1.536 0 3.072.274 4.608.768 1.536.549 2.908 1.371 4.115 2.578 1.207 1.207 2.194 2.743 2.907 4.663.713 1.92 1.097 4.224 1.097 6.967v46.958H251.96v-42.35c0-2.249-.548-4.005-1.591-5.321-1.042-1.262-2.523-1.92-4.443-1.92-2.359 0-3.95.713-4.827 2.194-.878 1.426-1.317 3.566-1.317 6.254v41.143h-12.288l-.11-.055zm83.711-25.948h-24.356v8.339c0 1.92.548 3.401 1.646 4.443 1.097 1.042 2.523 1.591 4.388 1.591 2.304 0 3.895-.658 4.663-2.03.768-1.371 1.207-2.743 1.371-4.114h12.288c0 5.376-1.645 9.71-4.937 13.056-1.591 1.7-3.565 3.017-5.815 4.004-2.249.988-4.772 1.427-7.625 1.427-3.84 0-7.131-.823-9.819-2.414-2.688-1.591-4.773-3.73-6.199-6.418-.878-1.591-1.481-3.456-1.81-5.541-.329-2.084-.494-4.388-.494-6.857v-20.133c0-2.468.165-4.772.494-6.857.329-2.084.932-3.949 1.81-5.54 1.426-2.633 3.511-4.773 6.199-6.419 2.688-1.59 5.979-2.413 9.819-2.413 2.798 0 5.376.493 7.68 1.426 2.304.987 4.224 2.304 5.87 4.005 3.237 3.62 4.827 8.173 4.827 13.659v16.896-.11zm-24.356-9.655h12.068v-7.021c0-2.359-.548-4.06-1.645-5.267-1.097-1.152-2.579-1.755-4.389-1.755s-3.346.603-4.388 1.755c-1.098 1.152-1.646 2.908-1.646 5.267v7.021zm34.614-25.563v-18.597h12.289v18.597h7.625v9.655h-7.625v33.901c0 1.427.164 2.579.438 3.402.275.822.714 1.426 1.372 1.81.658.384 1.426.658 2.359.713.932.055 2.084.11 3.456.11v11.575h-5.047c-2.798 0-5.157-.439-7.077-1.317-1.865-.878-3.401-2.03-4.553-3.401-1.152-1.372-1.975-2.908-2.469-4.663-.493-1.701-.768-3.401-.768-4.992V506.98h-6.144v-9.655h6.144v.055zm61.44 35.218h-24.357v8.339c0 1.92.549 3.401 1.646 4.443 1.097 1.042 2.578 1.591 4.388 1.591 2.359 0 3.895-.658 4.663-2.03.768-1.371 1.207-2.743 1.372-4.114h12.288c0 5.376-1.646 9.71-4.937 13.056-1.591 1.7-3.566 3.017-5.815 4.004-2.249.988-4.773 1.427-7.625 1.427-3.84 0-7.132-.823-9.82-2.414-2.688-1.591-4.772-3.73-6.199-6.418-.877-1.591-1.481-3.456-1.81-5.541-.329-2.084-.494-4.388-.494-6.857v-20.133c0-2.468.165-4.772.494-6.857.329-2.084.933-3.949 1.81-5.54 1.427-2.633 3.511-4.773 6.199-6.419 2.688-1.59 5.98-2.413 9.82-2.413 2.797 0 5.376.493 7.68 1.426 2.304.987 4.224 2.304 5.869 4.005 3.237 3.62 4.828 8.173 4.828 13.659v16.896-.11zm-24.357-9.655h12.069v-7.021c0-2.359-.549-4.06-1.646-5.267-1.097-1.152-2.578-1.755-4.389-1.755-1.81 0-3.291.603-4.388 1.755s-1.646 2.908-1.646 5.267v7.021zm56.943-8.448c-.055-2.084-.768-3.675-1.975-4.717-1.261-1.043-2.688-1.591-4.279-1.591-1.92 0-3.401.603-4.443 1.865-1.042 1.262-1.591 2.688-1.591 4.279 0 1.152.274 2.249.823 3.291.548 1.097 2.03 2.085 4.334 2.963l7.241 2.907c4.608 1.755 7.735 4.169 9.49 7.241 1.756 3.072 2.578 6.418 2.578 10.039 0 2.578-.438 4.992-1.371 7.186-.933 2.195-2.194 4.169-3.785 5.87-1.591 1.701-3.566 3.017-5.815 4.005-2.249.987-4.718 1.426-7.351 1.426-4.992 0-9.161-1.591-12.562-4.718-1.701-1.536-3.072-3.456-4.115-5.705-1.042-2.249-1.59-4.992-1.7-8.009h11.575c.219 1.7.823 3.236 1.755 4.718.933 1.481 2.579 2.194 4.883 2.194 1.755 0 3.346-.604 4.772-1.756 1.426-1.152 2.085-2.797 2.085-4.882 0-1.7-.439-3.127-1.317-4.334-.878-1.206-2.523-2.249-4.827-3.126l-5.925-2.195c-3.84-1.426-6.912-3.62-9.106-6.473-2.195-2.852-3.292-6.363-3.292-10.423 0-2.578.494-4.992 1.427-7.186.932-2.194 2.304-4.114 4.004-5.705 1.591-1.591 3.511-2.853 5.65-3.676 2.195-.822 4.499-1.261 7.022-1.261 2.524 0 4.828.439 6.912 1.316 2.14.878 3.95 2.14 5.486 3.731 1.536 1.59 2.743 3.51 3.621 5.705.877 2.194 1.316 4.553 1.316 7.076h-11.575l.055-.055zm45.751 44.051V472.64h36.7v11.574h-24.357v25.235h21.23v11.575h-21.23v25.234h24.357v12.288h-36.7zm38.73 0l15.086-31.269-14.373-29.952h13.056l7.625 17.39 7.625-17.39h13.056l-14.592 29.952 15.305 31.269h-13.056l-8.338-18.706-8.338 18.706H499.86z"/><path fill="#fff" d="M547.531 497.38v-18.597h12.288v18.597h7.625v9.655h-7.625v33.901c0 1.427.165 2.579.439 3.402.274.822.768 1.426 1.371 1.81.659.384 1.427.658 2.359.713.933.055 2.085.11 3.456.11v11.575h-5.047c-2.797 0-5.156-.439-7.076-1.317-1.865-.878-3.401-2.03-4.498-3.401-1.152-1.372-1.975-2.908-2.469-4.663-.549-1.701-.768-3.401-.768-4.992V506.98h-6.144v-9.655h6.144l-.055.055zm61.438 35.218h-24.357v8.339c0 1.92.549 3.401 1.646 4.443 1.097 1.042 2.578 1.591 4.389 1.591 2.359 0 3.895-.658 4.663-2.03.768-1.371 1.206-2.743 1.371-4.114h12.288c0 5.376-1.646 9.71-4.937 13.056-1.591 1.7-3.566 3.017-5.815 4.004-2.249.988-4.773 1.427-7.625 1.427-3.84 0-7.132-.823-9.82-2.414-2.688-1.591-4.772-3.73-6.198-6.418-.878-1.591-1.482-3.456-1.811-5.541-.329-2.084-.493-4.388-.493-6.857v-20.133c0-2.468.164-4.772.493-6.857.329-2.084.933-3.949 1.811-5.54 1.426-2.633 3.51-4.773 6.198-6.419 2.688-1.59 5.98-2.413 9.82-2.413 2.798 0 5.376.493 7.68 1.426 2.304.987 4.224 2.304 5.87 4.005 3.236 3.62 4.827 8.173 4.827 13.659v16.896-.11zm-24.357-9.655h12.069v-7.021c0-2.359-.549-4.06-1.646-5.267-1.097-1.152-2.578-1.755-4.388-1.755-1.811 0-3.292.603-4.389 1.755-1.097 1.152-1.646 2.908-1.646 5.267v7.021zm34.616 35.603V497.38h12.288v5.925h.22c1.261-1.92 2.852-3.511 4.662-4.773 1.811-1.262 4.115-1.865 6.967-1.865 1.536 0 3.072.274 4.608.768 1.536.549 2.908 1.371 4.115 2.578 1.206 1.207 2.194 2.743 2.907 4.663.713 1.92 1.097 4.224 1.097 6.967v46.958h-12.288v-42.35c0-2.249-.548-4.005-1.591-5.321-1.042-1.262-2.523-1.92-4.443-1.92-2.359 0-3.95.713-4.828 2.194-.877 1.426-1.316 3.566-1.316 6.254v41.143h-12.288l-.11-.055zm70.491-44.051c-.055-2.084-.768-3.675-1.975-4.717-1.262-1.043-2.688-1.591-4.279-1.591-1.92 0-3.401.603-4.443 1.865-1.043 1.262-1.591 2.688-1.591 4.279 0 1.152.274 2.249.823 3.291.548 1.097 2.029 2.085 4.333 2.963l7.242 2.907c4.608 1.755 7.735 4.169 9.49 7.241s2.578 6.418 2.578 10.039c0 2.578-.439 4.992-1.371 7.186-.933 2.195-2.194 4.169-3.785 5.87-1.591 1.701-3.566 3.017-5.815 4.005-2.249.987-4.718 1.426-7.351 1.426-4.992 0-9.161-1.591-12.562-4.718-1.701-1.536-3.072-3.456-4.115-5.705-1.042-2.249-1.591-4.992-1.7-8.009h11.575c.219 1.7.822 3.236 1.755 4.718.933 1.481 2.578 2.194 4.882 2.194 1.756 0 3.347-.604 4.773-1.756 1.426-1.152 2.085-2.797 2.085-4.882 0-1.7-.439-3.127-1.317-4.334-.878-1.206-2.524-2.249-4.828-3.126l-5.924-2.195c-3.84-1.426-6.912-3.62-9.106-6.473-2.195-2.852-3.292-6.363-3.292-10.423 0-2.578.494-4.992 1.426-7.186.933-2.194 2.304-4.114 4.005-5.705 1.591-1.591 3.511-2.853 5.65-3.676 2.195-.822 4.499-1.261 7.022-1.261 2.523 0 4.828.439 6.912 1.316 2.14.878 3.95 2.14 5.486 3.731 1.536 1.59 2.743 3.51 3.62 5.705.878 2.194 1.317 4.553 1.317 7.076h-11.575l.055-.055zm21.341-29.567V472.64h12.288v12.288H711.06zm0 73.618V497.38h12.288v61.166H711.06zm22.602-40.649c0-2.469.165-4.773.494-6.857.329-2.085.932-3.95 1.81-5.541 1.426-2.633 3.511-4.773 6.199-6.418 2.688-1.591 5.979-2.414 9.819-2.414 3.84 0 7.132.823 9.82 2.414 2.688 1.591 4.772 3.73 6.199 6.418.877 1.591 1.481 3.456 1.81 5.541.329 2.084.494 4.388.494 6.857v20.132c0 2.524-.165 4.773-.494 6.858-.329 2.084-.933 3.949-1.81 5.54-1.427 2.633-3.511 4.773-6.199 6.418-2.688 1.591-5.98 2.414-9.82 2.414s-7.131-.823-9.819-2.414c-2.688-1.59-4.773-3.73-6.199-6.418-.878-1.591-1.481-3.456-1.81-5.54-.329-2.085-.494-4.389-.494-6.858v-20.132zm12.288 22.052c0 2.359.549 4.06 1.646 5.267 1.097 1.152 2.523 1.755 4.388 1.755 1.866 0 3.292-.603 4.389-1.755 1.097-1.152 1.646-2.908 1.646-5.267v-24.027c0-2.359-.549-4.06-1.646-5.266-1.097-1.152-2.578-1.756-4.389-1.756-1.81 0-3.346.604-4.388 1.756-1.097 1.152-1.646 2.907-1.646 5.266v24.027zm34.614 18.597V497.38h12.288v5.925h.219c1.262-1.92 2.853-3.511 4.663-4.773 1.811-1.262 4.115-1.865 6.967-1.865 1.536 0 3.072.274 4.608.768 1.536.549 2.908 1.371 4.114 2.578 1.207 1.207 2.195 2.743 2.908 4.663.713 1.92 1.097 4.224 1.097 6.967v46.958H805.14v-42.35c0-2.249-.549-4.005-1.591-5.321-1.042-1.262-2.523-1.92-4.443-1.92-2.359 0-3.95.713-4.828 2.194-.877 1.426-1.316 3.566-1.316 6.254v41.143h-12.288l-.11-.055zM192.219 679.232v-51.511h-6.034v-9.655h6.034v-8.338c0-2.963.439-5.486 1.317-7.571.878-2.084 2.085-3.785 3.621-5.156 1.426-1.372 3.126-2.359 4.992-2.908 1.865-.548 3.84-.822 5.869-.822h5.651v11.574h-5.541c-2.414 0-3.621 1.427-3.621 4.224v8.942h9.162v9.655h-9.162v51.511h-12.288v.055zm25.399-40.649c0-2.469.165-4.773.494-6.857.329-2.085.932-3.95 1.81-5.541 1.426-2.633 3.511-4.773 6.199-6.418 2.688-1.591 5.979-2.414 9.819-2.414 3.84 0 7.132.823 9.82 2.414 2.688 1.591 4.773 3.73 6.199 6.418.878 1.591 1.481 3.456 1.81 5.541.329 2.084.494 4.388.494 6.857v20.132c0 2.524-.165 4.773-.494 6.858-.329 2.084-.932 3.949-1.81 5.54-1.426 2.633-3.511 4.773-6.199 6.418-2.688 1.591-5.98 2.414-9.82 2.414s-7.131-.823-9.819-2.414c-2.688-1.59-4.773-3.73-6.199-6.418-.878-1.591-1.481-3.456-1.81-5.54-.329-2.085-.494-4.389-.494-6.858v-20.132zm12.288 22.052c0 2.359.549 4.06 1.646 5.267 1.097 1.152 2.523 1.755 4.388 1.755 1.866 0 3.292-.603 4.389-1.755 1.097-1.152 1.646-2.908 1.646-5.267v-24.027c0-2.359-.549-4.06-1.646-5.266-1.097-1.152-2.578-1.756-4.389-1.756-1.81 0-3.346.604-4.388 1.756-1.097 1.152-1.646 2.907-1.646 5.266v24.027zm34.617 18.597v-61.166h12.288v6.528c2.469-2.249 4.937-4.004 7.351-5.321 2.414-1.262 5.376-1.92 8.942-1.92v13.056c-1.207-.494-2.469-.713-3.731-.713-1.261 0-2.688.219-4.169.658-1.481.439-2.852 1.207-4.059 2.249-1.317 1.043-2.359 2.414-3.127 4.115-.768 1.7-1.207 3.785-1.207 6.253v36.316h-12.288v-.055zm100.881-85.907l-17.609 85.907h-10.862l-17.499-85.907h13.056l9.764 59.959h.22l9.874-59.959h13.056zm48.439 24.741h-12.288v-2.798c0-2.797-.658-5.266-1.975-7.296-1.317-2.029-3.566-3.072-6.693-3.072-1.7 0-3.072.329-4.114.988-1.042.658-1.865 1.426-2.523 2.413-.659 1.043-1.097 2.25-1.317 3.566-.219 1.317-.384 2.743-.384 4.169 0 1.701.055 3.072.165 4.224.109 1.152.439 2.14.932 3.018.494.877 1.207 1.645 2.14 2.304.932.658 2.194 1.261 3.785 1.92l9.435 3.73c2.743 1.042 4.937 2.249 6.638 3.675 1.701 1.427 3.017 3.017 4.005 4.883.877 1.92 1.481 4.114 1.81 6.582.329 2.469.494 5.267.494 8.394 0 3.62-.384 6.966-1.097 10.093-.714 3.127-1.866 5.705-3.511 7.9-1.701 2.249-3.895 4.004-6.638 5.321-2.743 1.262-6.089 1.92-10.039 1.92-2.962 0-5.76-.549-8.338-1.591-2.579-1.042-4.773-2.469-6.638-4.334-1.865-1.865-3.291-4.004-4.389-6.473-1.097-2.468-1.645-5.156-1.645-8.009v-4.608h12.288v3.84c0 2.249.658 4.279 1.975 6.089 1.316 1.81 3.565 2.743 6.692 2.743 2.085 0 3.73-.329 4.882-.933 1.152-.603 2.085-1.481 2.743-2.578.659-1.152 1.043-2.468 1.152-4.059.11-1.591.165-3.292.165-5.267 0-2.249-.055-4.114-.219-5.54-.165-1.426-.494-2.633-.988-3.511-.549-.878-1.317-1.591-2.249-2.194-.933-.549-2.14-1.152-3.676-1.811l-8.832-3.62c-5.321-2.194-8.886-5.047-10.697-8.613-1.81-3.565-2.743-8.064-2.743-13.44 0-3.236.439-6.254 1.317-9.161.878-2.907 2.194-5.376 4.005-7.461 1.7-2.084 3.84-3.785 6.473-4.992 2.633-1.261 5.705-1.865 9.38-1.865 3.072 0 5.87.549 8.394 1.701 2.523 1.152 4.717 2.633 6.582 4.443 3.676 3.84 5.541 8.284 5.541 13.276v6.034zm73.125 36.645v5.321c0 2.633-.494 5.156-1.536 7.57-1.043 2.414-2.414 4.498-4.169 6.363-1.756 1.866-3.841 3.292-6.199 4.389-2.359 1.097-4.938 1.646-7.68 1.646-2.359 0-4.718-.329-7.132-.988-2.414-.658-4.608-1.755-6.528-3.401-1.92-1.591-3.511-3.675-4.772-6.199-1.262-2.523-1.866-5.76-1.866-9.709v-47.287c0-2.798.494-5.431 1.427-7.845.932-2.414 2.304-4.498 4.114-6.254 1.755-1.755 3.895-3.181 6.309-4.169 2.468-.987 5.156-1.481 8.173-1.481 5.815 0 10.478 1.865 14.099 5.65 1.755 1.865 3.181 4.06 4.169 6.583.987 2.524 1.536 5.266 1.536 8.284v4.827h-12.288v-4.114c0-2.414-.659-4.499-2.03-6.254-1.371-1.755-3.237-2.633-5.541-2.633-3.072 0-5.101.932-6.089 2.852-.987 1.866-1.536 4.279-1.536 7.187v43.94c0 2.469.549 4.608 1.646 6.254 1.097 1.701 3.017 2.524 5.87 2.524.823 0 1.645-.165 2.578-.439.933-.275 1.81-.768 2.578-1.372.713-.658 1.317-1.536 1.811-2.633.493-1.097.713-2.523.713-4.224v-4.224h12.288l.055-.164zm9.38-16.128c0-2.469.165-4.773.494-6.857.329-2.085.932-3.95 1.81-5.541 1.426-2.633 3.511-4.773 6.199-6.418 2.688-1.591 5.979-2.414 9.819-2.414 3.84 0 7.132.823 9.82 2.414 2.688 1.591 4.772 3.73 6.199 6.418.877 1.591 1.481 3.456 1.81 5.541.329 2.084.494 4.388.494 6.857v20.132c0 2.524-.165 4.773-.494 6.858-.329 2.084-.933 3.949-1.81 5.54-1.427 2.633-3.511 4.773-6.199 6.418-2.688 1.591-5.98 2.414-9.82 2.414s-7.131-.823-9.819-2.414c-2.688-1.59-4.773-3.73-6.199-6.418-.878-1.591-1.481-3.456-1.81-5.54-.329-2.085-.494-4.389-.494-6.858v-20.132zm12.343 22.052c0 2.359.549 4.06 1.646 5.267 1.097 1.152 2.523 1.755 4.388 1.755 1.865 0 3.292-.603 4.389-1.755 1.097-1.152 1.646-2.908 1.646-5.267v-24.027c0-2.359-.549-4.06-1.646-5.266-1.097-1.152-2.578-1.756-4.389-1.756-1.81 0-3.346.604-4.388 1.756-1.097 1.152-1.646 2.907-1.646 5.266v24.027zm59.135 18.597v-5.541c-.823.878-1.591 1.701-2.304 2.469-.713.768-1.536 1.426-2.414 1.974-.877.549-1.92.988-3.017 1.317-1.097.329-2.468.494-4.004.494-5.157 0-8.723-1.92-10.752-5.815-.714-1.372-1.262-3.072-1.591-5.047-.329-2.03-.494-4.718-.494-8.064v-23.314c0-4.444.11-7.68.384-9.765.494-4.004 2.359-7.022 5.65-9.051 1.536-1.043 3.84-1.591 6.857-1.591 2.414 0 4.554.548 6.474 1.646 1.865 1.097 3.51 2.633 4.882 4.662h.219v-30.281h12.288v85.907h-12.288.11zm-12.178-19.914c0 2.469.493 4.499 1.426 6.035.933 1.536 2.469 2.304 4.608 2.304 1.865 0 3.346-.713 4.443-2.14 1.152-1.426 1.701-3.236 1.701-5.485v-23.754c0-1.92-.603-3.51-1.755-4.772-1.152-1.262-2.634-1.865-4.389-1.865-2.359 0-3.895.713-4.773 2.194-.822 1.426-1.261 3.127-1.261 5.047v22.436zm71.425-6.034h-24.356v8.339c0 1.92.548 3.401 1.646 4.443 1.097 1.042 2.523 1.591 4.388 1.591 2.304 0 3.895-.658 4.663-2.03.768-1.371 1.207-2.743 1.371-4.114h12.288c0 5.376-1.645 9.71-4.937 13.056-1.59 1.701-3.565 3.017-5.815 4.005-2.249.987-4.772 1.426-7.625 1.426-3.84 0-7.131-.823-9.819-2.414-2.688-1.591-4.773-3.73-6.199-6.418-.878-1.591-1.481-3.456-1.81-5.541-.329-2.084-.494-4.388-.494-6.857v-20.133c0-2.468.165-4.772.494-6.857.329-2.084.932-3.949 1.81-5.54 1.426-2.633 3.511-4.773 6.199-6.419 2.688-1.59 5.979-2.413 9.819-2.413 2.798 0 5.376.493 7.68 1.426 2.304.987 4.224 2.304 5.87 4.005 3.237 3.62 4.827 8.173 4.827 13.659v16.896-.11zm-24.356-9.655h12.068v-7.021c0-2.359-.548-4.06-1.645-5.267-1.097-1.152-2.579-1.755-4.389-1.755s-3.346.603-4.388 1.755c-1.098 1.152-1.646 2.908-1.646 5.267v7.021z"/></svg>