<?xml version="1.0" encoding="UTF-8"?><svg id="Layer_1" xmlns="http://www.w3.org/2000/svg" viewBox="0 0 322.93346 396.37927"><defs><style>.cls-1{fill:none;}.cls-2{fill:#fff;}.cls-3{fill:#326ce5;}</style></defs><g><path class="cls-3" d="m32.86367,374.14308c-.41832-.41688-.62676-.92507-.62676-1.52225v-58.28141c0-.65633.19294-1.19323.58197-1.61183.38731-.41688.90927-.62647,1.56675-.62647h7.87827c.65604,0,1.19323.20959,1.61154.62647.4166.4186.62647.9555.62647,1.61183v20.9492l20.23315-21.57624c.77491-1.07436,1.93856-1.61126,3.49153-1.61126h8.86306c.47689,0,.90927.17916,1.29802.53689.3876.35831.58197.8062.58197,1.3431,0,.4186-.1203.77634-.35802,1.07436l-24.61989,27.03706,26.32072,29.6331c.29802.35831.4476.74706.4476,1.16394,0,.53689-.19437.98478-.58168,1.3431-.38903.35774-.82113.53689-1.29831.53689h-9.22108c-1.49268,0-2.65662-.53689-3.49153-1.61126l-21.66553-23.72497v23.1875c0,.65748-.20988,1.17944-.62647,1.56704-.41832.38875-.9555.58168-1.61154.58168h-7.87827c-.59747,0-1.10508-.20844-1.52197-.62647Z"/><path class="cls-3" d="m90.15972,370.24873c-3.16394-3.61068-4.74476-8.5191-4.74476-14.72755v-25.15649c0-.59604.20844-1.10365.62676-1.52225.41688-.41688.92449-.62647,1.52197-.62647h7.87827c.65604,0,1.17772.19409,1.56675.58168.38731.38875.58197.91071.58197,1.56704v24.6196c0,7.4011,3.25208,11.10136,9.75826,11.10136,3.1025,0,5.56446-.98478,7.38588-2.95435,1.81998-1.96957,2.73069-4.68505,2.73069-8.14701v-24.6196c0-.59604.20815-1.10365.62647-1.52225.41688-.41688.92478-.62647,1.52197-.62647h7.87827c.65604,0,1.17801.19409,1.56675.58168.3876.38875.58197.91071.58197,1.56704v42.25613c0,.59719-.19437,1.10537-.58197,1.52225-.38875.41803-.91071.62647-1.56675.62647h-7.25151c-.59719,0-1.10508-.20844-1.52197-.62647-.41832-.41688-.62676-.92507-.62676-1.52225v-3.6704c-3.3431,4.47603-8.32587,6.71433-14.95092,6.71433-5.49182,0-9.81855-1.80419-12.98135-5.41602Z"/><path class="cls-3" d="m145.70987,369.89042c-3.90985-3.84956-5.9845-9.26616-6.22223-16.24922l-.08958-2.23773.08958-2.2383c.29802-6.80391,2.40195-12.14471,6.31152-16.02528,3.90842-3.87884,9.14586-5.81913,15.71204-5.81913,7.04164,0,12.48867,2.14872,16.33823,6.4456,3.85013,4.29745,5.77491,10.027,5.77491,17.18922v1.87999c0,.59719-.21016,1.10537-.62705,1.52225-.41803.41803-.9555.62647-1.61126.62647h-29.72268v.71605c.11886,3.28338,1.02957,6.04307,2.73041,8.28137,1.70112,2.2383,4.04278,3.35688,7.02785,3.35688,3.52082,0,6.35631-1.37181,8.50503-4.11772.53718-.65633.96928-1.07436,1.29802-1.25352.3273-.17916.8197-.26873,1.47746-.26873h7.69912c.53689,0,.99857.16537,1.38731.49268.3876.32845.58226.73155.58226,1.20815,0,1.43267-.85042,3.11973-2.55183,5.05829-1.70083,1.94028-4.13322,3.62619-7.29601,5.05829-3.16423,1.43267-6.83492,2.14872-11.01178,2.14872-6.62504,0-11.8932-1.92478-15.80133-5.77434Zm25.73875-22.42666v-.26816c0-3.52111-.88142-6.35659-2.64112-8.50532-1.76113-2.14872-4.1938-3.22251-7.2963-3.22251-3.10422,0-5.52139,1.07379-7.2518,3.22251-1.73155,2.14872-2.59604,4.98421-2.59604,8.50532v.26816h19.78526Z"/><path class="cls-3" d="m197.41074,370.24873c-3.16452-3.61068-4.74476-8.5191-4.74476-14.72755v-25.15649c0-.59604.20787-1.10365.62647-1.52225.41688-.41688.92449-.62647,1.52168-.62647h7.87827c.65633,0,1.1783.19409,1.56704.58168.3876.38875.58168.91071.58168,1.56704v24.6196c0,7.4011,3.25237,11.10136,9.75826,11.10136,3.10307,0,5.56475-.98478,7.38617-2.95435,1.8197-1.96957,2.73041-4.68505,2.73041-8.14701v-24.6196c0-.59604.20844-1.10365.62705-1.52225.41688-.41688.92449-.62647,1.52168-.62647h7.87827c.65633,0,1.17772.19409,1.56704.58168.38702.38875.58168.91071.58168,1.56704v42.25613c0,.59719-.19466,1.10537-.58168,1.52225-.38932.41803-.91071.62647-1.56704.62647h-7.2518c-.59719,0-1.1048-.20844-1.52168-.62647-.41803-.41688-.62647-.92507-.62647-1.52225v-3.6704c-3.34367,4.47603-8.32616,6.71433-14.95092,6.71433-5.49182,0-9.81855-1.80419-12.98135-5.41602Z"/><path class="cls-3" d="m252.9606,369.89042c-3.90985-3.84956-5.9845-9.26616-6.22223-16.24922l-.08958-2.23773.08958-2.2383c.29802-6.80391,2.40195-12.14471,6.31181-16.02528,3.90813-3.87884,9.14557-5.81913,15.71175-5.81913,7.04164,0,12.48867,2.14872,16.33823,6.4456,3.85013,4.29745,5.77491,10.027,5.77491,17.18922v1.87999c0,.59719-.21016,1.10537-.62705,1.52225-.41803.41803-.9555.62647-1.61126.62647h-29.72268v.71605c.11886,3.28338,1.02957,6.04307,2.73041,8.28137,1.70083,2.2383,4.0425,3.35688,7.02785,3.35688,3.52111,0,6.35659-1.37181,8.50474-4.11772.53747-.65633.96985-1.07436,1.29831-1.25352.3273-.17916.81998-.26873,1.47746-.26873h7.69912c.53689,0,.99857.16537,1.38731.49268.3876.32845.58226.73155.58226,1.20815,0,1.43267-.85042,3.11973-2.55183,5.05829-1.70083,1.94028-4.13322,3.62619-7.29601,5.05829-3.16452,1.43267-6.83492,2.14872-11.01178,2.14872-6.62475,0-11.8932-1.92478-15.80133-5.77434Zm25.73875-22.42666v-.26816c0-3.52111-.88142-6.35659-2.64083-8.50532-1.76113-2.14872-4.19409-3.22251-7.29659-3.22251-3.10422,0-5.52111,1.07379-7.2518,3.22251-1.73184,2.14872-2.59604,4.98421-2.59604,8.50532v.26816h19.78526Z"/></g><g><path class="cls-1" d="m95.517,281.73129c.25424.30201.52325.58986.79598.87788.41587.44231.86751.84704,1.32537,1.24408-.45829-.39791-.91053-.80367-1.32675-1.24684-.27186-.28595-.5401-.57319-.7946-.87512Z"/><path class="cls-1" d="m223.41296,285.41274c-.63383.40456-1.29168.77015-1.96983,1.09489-.45285.21709-.92176.39687-1.39189.57673-.60239.22807-1.21635.42469-1.8393.58865-.86915.23403-1.75472.40231-2.64919.50347-.62347.07092-1.25047.10773-1.87809.11049l-103.22816.02402h-1.01092c-1.54376-.01002-3.07958-.22185-4.56848-.62994-1.37669-.36421-2.70465-.88669-3.95953-1.55344,1.25522.6683,2.58345,1.19225,3.96091,1.5575,1.48847.40758,3.02394.61897,4.5671.62865h1.0123l103.22816-.0241c.62761-.00225,1.25445-.0387,1.878-.10911.89455-.10168,1.78012-.2704,2.64919-.50485.62398-.16526,1.23872-.36309,1.84206-.59262.47229-.17148.93636-.36231,1.3918-.57276.6759-.32491,1.33151-.69059,1.96318-1.09489,1.63706-1.02811,3.09478-2.31711,4.31545-3.81586l1.41962-1.76941-1.42092,1.76664c-1.21955,1.49858-2.67588,2.7875-4.31148,3.81595Z"/><polygon class="cls-1" points="296.17648 193.43123 296.17674 193.42959 296.17648 193.43054 296.17648 193.43123"/><path class="cls-1" d="m59.82941,72.84279l13.65586-6.52475-13.65465,6.52345c-2.4435,1.18387-4.5569,2.88486-6.21738,4.94989,1.66021-2.06451,3.77319-3.7649,6.21617-4.94859Z"/><path class="cls-1" d="m292.70427,200.76328l-23.81462,29.62537,23.81324-29.6226c1.20849-1.5143,2.15807-3.21832,2.8103-5.04267.20457-.5655.35281-1.14853.50036-1.73122-.14807.58217-.29674,1.16478-.50174,1.72984-.65146,1.82375-1.60017,3.52715-2.80754,5.04128Z"/><path class="cls-3" d="m272.96935,84.90599c-1.26369-5.28024-4.8286-9.71525-9.7136-12.08445l-93.9249-44.84537c-4.93028-2.35279-10.65964-2.35279-15.59001,0l-80.25557,38.34188-13.65586,6.52475c-2.44298,1.18369-4.55595,2.88408-6.21617,4.94859-.20414.25398-.37968.52956-.56999.79426-.19619.2729-.40663.53518-.58744.8187-.2723.42719-.51012.87624-.74631,1.32606-.07308.13909-.16129.2691-.23083.41026-.58831,1.19493-1.04824,2.46164-1.36425,3.78131l-23.16722,100.79209c-.5712,2.54725-.57301,5.1891-.00536,7.73712.16725.77672.38572,1.5416.65405,2.28955.45337,1.27553,1.05359,2.49403,1.78876,3.63073.31687.49017.65664.96349,1.01878,1.41988l65.00386,80.81882c.03421.0425.07455.07939.10971.12112.2545.30193.52274.58917.7946.87512.41622.44317.86846.84894,1.32675,1.24684.10367.09002.19446.19437.30029.28189.07369.06116.15749.10928.23221.16923.50615.40542,1.025.79572,1.57313,1.14439.38296.2412.77499.46658,1.17359.67884,1.25488.66675,2.58284,1.18922,3.95953,1.55344,1.48891.4081,3.02472.61992,4.56848.62994h1.01092l103.22816-.02402c.62761-.00276,1.25462-.03957,1.87809-.11049.89447-.10116,1.78003-.26945,2.64919-.50347.62295-.16397,1.23691-.36059,1.8393-.58865.47013-.17986.93904-.35964,1.39189-.57673.67815-.32473,1.336-.69033,1.96983-1.09489,1.63559-1.02845,3.09193-2.31737,4.31148-3.81595l1.42092-1.76664.55954-.69733,39.18477-48.74417,23.81462-29.62537c1.20737-1.51413,2.15608-3.21754,2.80754-5.04128.205-.56507.35367-1.14767.50174-1.72984.04803-.18971.12103-.37233.16293-.5636v.00199c.00009-.00035.00017-.0006.00026-.00095.5693-2.54621.56835-5.18694-.00294-7.73272l-23.20446-100.79088Z"/><path class="cls-2" d="m308.42602,188.28334v-.00397l-25.31562-109.96231c-1.37816-5.76194-5.26831-10.60151-10.59926-13.1859l-102.47045-48.92101c-5.37924-2.56738-11.63048-2.56738-17.00971,0l-102.46103,48.95029c-5.33095,2.58206-9.22257,7.41904-10.60332,13.17916l-25.27165,109.96905c-1.15156,5.12111-.19394,10.49015,2.65714,14.89734.34763.53284.71659,1.04962,1.11614,1.54774l70.91888,88.17903c3.76308,4.59397,9.37712,7.27279,15.31555,7.3082l113.72764-.02669c5.93713-.03386,11.551-2.70897,15.31693-7.29887l70.89348-88.18698c3.67704-4.63051,5.06789-10.67303,3.78528-16.44508Zm-12.24928,5.14625c-.00009.00052-.00017.00112-.00026.00164v-.00268c-.0419.19126-.1149.37389-.16293.5636-.14755.58269-.29579,1.16573-.50036,1.73122-.65223,1.82435-1.60181,3.52836-2.8103,5.04267l-23.81324,29.6226-39.18477,48.74417-.55954.69733-1.41962,1.76941c-1.22067,1.49875-2.67839,2.78776-4.31545,3.81586-.63167.4043-1.28727.76998-1.96318,1.09489-.45544.21044-.91952.40127-1.3918.57276-.60334.22953-1.21808.42736-1.84206.59262-.86907.23446-1.75464.40317-2.64919.50485-.62355.07041-1.25039.10686-1.878.10911l-103.22816.0241h-1.0123c-1.54316-.00968-3.07863-.22107-4.5671-.62865-1.37746-.36525-2.70569-.8892-3.96091-1.5575-.3986-.21226-.79063-.43764-1.17359-.67884-.54813-.34866-1.06698-.73897-1.57313-1.14439-.07473-.05995-.15852-.10807-.23221-.16923-.10583-.08751-.19662-.19187-.30029-.28189-.45786-.39704-.9095-.80177-1.32537-1.24408-.27273-.28802-.54174-.57587-.79598-.87788-.03516-.04173-.0755-.07861-.10971-.12112L30.40343,200.79135c-.36214-.45639-.70191-.92971-1.01878-1.41988-.73517-1.1367-1.33539-2.35521-1.78876-3.63073-.26832-.74795-.4868-1.51283-.65405-2.28955-.56766-2.54803-.56584-5.18987.00536-7.73712l23.16722-100.79209c.31601-1.31967.77594-2.58638,1.36425-3.78131.06954-.14116.15775-.27117.23083-.41026.23619-.44982.47401-.89887.74631-1.32606.18081-.28353.39125-.5458.58744-.8187.19031-.26469.36586-.54027.56999-.79426,1.66047-2.06503,3.77388-3.76602,6.21738-4.94989l13.65465-6.52345,80.25557-38.34188c4.93036-2.35279,10.65973-2.35279,15.59001,0l93.9249,44.84537c4.88501,2.3692,8.44991,6.80421,9.7136,12.08445l23.20446,100.79088c.57129,2.54578.57224,5.1865.00294,7.73272Z"/></g><g><path class="cls-2" d="m203.01073,215.75769l52.82017-52.8202c2.48898-2.48902,2.39984-6.55111-.19599-8.92848l-52.8202-48.37511c-1.23227-1.12855-2.69961-1.63491-4.13577-1.63491-3.18479,0-6.21943,2.48733-6.21943,6.19294v11.32182l29.49457,27.01244c2.72556,2.49616,4.33527,6.04698,4.41638,9.74197.08114,3.69502-1.3712,7.31306-3.98461,9.92647l-29.92634,29.92638v13.2662c0,3.72556,3.0482,6.19316,6.22539,6.19316,1.51877,0,3.0665-.56338,4.32584-1.82268Z"/><path class="cls-2" d="m164.30854,215.75769l20.71624-20.71624,3.71734-3.71734,3.71738-3.71742,24.6692-24.6692c2.48902-2.48902,2.39987-6.55111-.19599-8.92848l-24.47321-22.41367-3.71738-3.40454-3.71734-3.40454-20.91223-19.15236c-1.23231-1.12855-2.69961-1.63491-4.13577-1.63491-3.18483,0-6.21943,2.48733-6.21943,6.19294v11.32186l29.49453,27.0124c.65859.60318,1.25043,1.26909,1.7729,1.98256,1.63975,2.2392,2.58201,4.95726,2.64352,7.75941.06596,3.00442-.88203,5.95784-2.64352,8.3618-.4049.55258-.85264,1.07623-1.34109,1.56467l-29.92634,29.92634v13.26623c0,3.72556,3.0482,6.19316,6.22535,6.19316,1.51881,0,3.06654-.56338,4.32584-1.82268Z"/><path class="cls-2" d="m125.60639,215.75769l20.71624-20.71624,3.7172-3.7172,3.71752-3.71756,24.6692-24.6692c2.48898-2.48902,2.39984-6.55111-.19602-8.92848l-24.47317-22.41363-3.71752-3.40468-3.7172-3.40436-20.9123-19.15243c-1.23227-1.12855-2.69958-1.63491-4.13573-1.63491-3.18479,0-6.21943,2.48733-6.21943,6.19294v11.32229l29.49403,27.01197c.65884.6034,1.25083,1.26952,1.77344,1.98328,1.63936,2.23906,2.58143,4.95687,2.64295,7.75869.06596,3.00413-.88178,5.9573-2.64295,8.36112-.40504.55283-.853,1.07669-1.34166,1.56535l-29.92581,29.92584v13.26673c0,3.72556,3.0482,6.19316,6.22539,6.19316,1.51877,0,3.0665-.56338,4.32584-1.82268Z"/><path class="cls-2" d="m86.90369,215.75769l20.71675-20.71675,3.71709-3.71709,3.71763-3.71767,24.6687-24.6687c2.48898-2.48902,2.39984-6.55111-.19602-8.92848l-24.47267-22.41317-3.71763-3.40479-3.71709-3.40429-20.91277-19.15286c-1.23227-1.12855-2.69961-1.63491-4.13577-1.63491-3.18479,0-6.21943,2.48733-6.21943,6.19294v101.19528c0,3.72556,3.0482,6.19316,6.22539,6.19316,1.51877,0,3.0665-.56338,4.32584-1.82268Z"/></g></svg>