<?xml version="1.0" encoding="utf-8"?>
<!-- Generator: Adobe Illustrator 26.3.1, SVG Export Plug-In . SVG Version: 6.00 Build 0)  -->
<svg version="1.1" id="图层_1" xmlns="http://www.w3.org/2000/svg" xmlns:xlink="http://www.w3.org/1999/xlink" x="0px" y="0px"
	 viewBox="0 0 1486 1500" style="enable-background:new 0 0 1486 1500;" xml:space="preserve">
<style type="text/css">
	.st0{opacity:0.9771;}
	.st1{fill:#FFFFFF;}
	.st2{fill:#353535;}
	.st3{fill:#121212;}
	.st4{fill:#CBCBCB;}
	.st5{fill:#787878;}
	.st6{opacity:0.49;}
	.st7{fill:url(#SVGID_1_);}
	.st8{fill:url(#SVGID_00000173875858738665041510000004197291878938849184_);}
	.st9{fill:#5B5B5B;}
	.st10{fill:#E9E9E9;}
	.st11{fill:#757575;}
	.st12{fill:url(#SVGID_00000163779460274590240960000001001775936891711363_);}
</style>
<g>
	<g class="st0">
		<g>
			<polygon class="st1" points="104.5,378.3 104.5,1118.2 742.1,1488.1 1386,1115 1386,378.3 745.3,8.4 			"/>
		</g>
	</g>
	<polygon class="st2" points="1286.7,1059.6 1286.7,432.3 1166.8,366.2 1166.8,996.7 	"/>
	<polygon class="st2" points="1078.4,941.3 1078.4,315.6 961.7,246.3 942.7,868.8 	"/>
	<g>
		<g>
			<polygon class="st2" points="873.3,827.4 873.3,196.6 753.4,130.6 753.4,760.3 			"/>
		</g>
	</g>
	<polygon class="st3" points="753.2,759.5 324.2,1007.1 324.2,1142.4 871.1,824.9 	"/>
	<polygon class="st3" points="950,869.5 532.5,1123.9 532.5,1262.3 1079.3,941.7 	"/>
	<g>
		<g>
			<polygon class="st4" points="960.6,244.1 412,559 531.9,628.2 1077.4,313.3 			"/>
		</g>
	</g>
	<polygon class="st4" points="753.4,124.4 204.3,441.4 324.2,510.6 873.3,193.7 	"/>
	<g>
		<polygon class="st5" points="324.2,1141 324.2,511.2 204.3,442 204.3,1071.7 		"/>
	</g>
	<g class="st6">
		
			<linearGradient id="SVGID_1_" gradientUnits="userSpaceOnUse" x1="472.55" y1="1361.3" x2="472.55" y2="662.3" gradientTransform="matrix(1 0 0 -1 0 1920)">
			<stop  offset="6.355514e-02" style="stop-color:#FFFFFF"/>
			<stop  offset="0.5824" style="stop-color:#FFFFFF;stop-opacity:0.17"/>
		</linearGradient>
		<polygon class="st7" points="532.5,1257.7 532.5,628 412.6,558.7 412.6,1188.5 		"/>
		
			<linearGradient id="SVGID_00000010272810328833497090000015314533357428182448_" gradientUnits="userSpaceOnUse" x1="472.55" y1="622.2" x2="472.55" y2="552.3" gradientTransform="matrix(1 0 0 -1 0 1920)">
			<stop  offset="6.355514e-02" style="stop-color:#FFFFFF"/>
			<stop  offset="0.5824" style="stop-color:#FFFFFF;stop-opacity:0"/>
		</linearGradient>
		<polygon style="fill:url(#SVGID_00000010272810328833497090000015314533357428182448_);" points="412.6,1297.8 412.6,1298.4 
			532.5,1367.7 532.5,1367 		"/>
	</g>
	<polygon class="st3" points="1166.6,995.6 740.8,1243.8 737.6,1382.3 1284.5,1058.4 	"/>
	<g>
		<polygon class="st9" points="1286.5,1059.3 779.1,932.7 734.9,1058.9 1124.9,1152.3 		"/>
	</g>
	<polygon class="st10" points="1169.3,364.6 620.4,681.5 740.3,750.7 1289.3,433.8 	"/>
	<polygon class="st11" points="740.6,1381.5 740.6,751 620.7,681.8 620.7,1312.2 	"/>
	<polygon class="st4" points="1170.1,364.5 621.1,681.5 741,750.8 1290,433.8 	"/>
	<polygon class="st5" points="532.5,1263 532.5,628 412.6,558.7 412.6,1193.8 	"/>
	
		<linearGradient id="SVGID_00000134936210921379393200000015232073476700863162_" gradientUnits="userSpaceOnUse" x1="740.8" y1="996.6" x2="740.8" y2="996.6" gradientTransform="matrix(1 0 0 -1 0 1920)">
		<stop  offset="1.553748e-02" style="stop-color:#FFFFFF"/>
		<stop  offset="0.5451" style="stop-color:#FFFFFF;stop-opacity:0"/>
	</linearGradient>
	<path style="fill:url(#SVGID_00000134936210921379393200000015232073476700863162_);" d="M740.8,923.4"/>
	<polygon class="st11" points="739.5,897.5 739.5,1067.1 1285.4,751.9 1285.4,591.8 	"/>
</g>
</svg>
