<svg id="图层_1" data-name="图层 1" xmlns="http://www.w3.org/2000/svg" xmlns:xlink="http://www.w3.org/1999/xlink" viewBox="0 0 174.41 184"><defs><style>.cls-1{fill:#898989;}.cls-2{fill:#4aba58;}.cls-3{fill:url(#linear-gradient);}</style><linearGradient id="linear-gradient" x1="24.46" y1="117.77996" x2="103.31" y2="117.77996" gradientTransform="matrix(1, 0, 0, -1, 0, 186)" gradientUnits="userSpaceOnUse"><stop offset="0" stop-color="#006934" stop-opacity="0"/><stop offset="1" stop-color="#006934"/></linearGradient></defs><title>dragonfly-stacked-color</title><path class="cls-1" d="M17.15,145.31a10.7099,10.7099,0,0,1,5.06,1.15,10.99985,10.99985,0,0,1,3.64,3,14,14,0,0,1,2.22,4.29,16.91,16.91,0,0,1,.81,4.93,16.4,16.4,0,0,1-.67,4.93A13.09,13.09,0,0,1,26,167.95a10.86994,10.86994,0,0,1-3.68,3,11.2,11.2,0,0,1-5.21,1.15h-10V145.31Zm-.58,23.12a7.53,7.53,0,0,0,4.72-1.5,8.78,8.78,0,0,0,2.72-3.6,11.45,11.45,0,0,0,.82-4.66,12.21,12.21,0,0,0-1-4.66,9.19,9.19,0,0,0-2.72-3.57,6.71009,6.71009,0,0,0-4.3-1.44H11.13v19.4Z"/><path class="cls-1" d="M43.3,157.46a5.29007,5.29007,0,0,0-1.28-1,3.82,3.82,0,0,0-4.29.84,4.36,4.36,0,0,0-1.13,3.16v11.66H32.76V153h3.8v2a5.12,5.12,0,0,1,2.09-1.67,7,7,0,0,1,3-.63,7.40987,7.40987,0,0,1,2.53.4,5.79992,5.79992,0,0,1,2.11,1.4Z"/><path class="cls-1" d="M59.32,172.15v-1.73a6.09006,6.09006,0,0,1-2.19,1.51,8.37,8.37,0,0,1-3,.44,9.40988,9.40988,0,0,1-3-.42A5.23,5.23,0,0,1,49,170.61a4.58991,4.58991,0,0,1-1-1.78,6.93,6.93,0,0,1-.36-2.28,5.27,5.27,0,0,1,1.65-4A6.86,6.86,0,0,1,54.15,161h5.1v-1.34a3.49,3.49,0,0,0-1-2.72A4.8,4.8,0,0,0,55,156a6.33987,6.33987,0,0,0-2.49.4,4.28,4.28,0,0,0-1.69,1.44l-2.53-2.34a7.25,7.25,0,0,1,2.93-2.19,11.43982,11.43982,0,0,1,3.93-.58q7.9,0,7.9,6.52v12.84Zm-.08-8.43H54.72a4,4,0,0,0-2.57.71,2.44,2.44,0,0,0-.88,2,2.5,2.5,0,0,0,.86,2.05,4.15,4.15,0,0,0,2.66.71,9.1198,9.1198,0,0,0,2-.19,3.34,3.34,0,0,0,1.63-1,3.78,3.78,0,0,0,.84-2.8Z"/><path class="cls-1" d="M75.35,152.71a8.23989,8.23989,0,0,1,3,.54,8.47023,8.47023,0,0,1,2.51,1.5V153h3.49v17.67a8.6,8.6,0,0,1-.71,3.47,8.81,8.81,0,0,1-2,2.84,9.30706,9.30706,0,0,1-10.02,1.92,9,9,0,0,1-2.91-1.9l2.49-2.45a5.58,5.58,0,0,0,1.8,1.09,5.99993,5.99993,0,0,0,2.13.38,5.88007,5.88007,0,0,0,2.2-.42,5.57,5.57,0,0,0,3-2.86,4.84,4.84,0,0,0,.46-2.09v-.77A8,8,0,0,1,75.35,172a7.92,7.92,0,0,1-2.76-.48,8.08,8.08,0,0,1-2.34-1.32,7.74993,7.74993,0,0,1-1.74-2,9.24979,9.24979,0,0,1-1.05-2.51,11.52943,11.52943,0,0,1-.31-1.9,18.93966,18.93966,0,0,1-.06-1.9,14.8207,14.8207,0,0,1,.13-1.74,13.99874,13.99874,0,0,1,.27-1.44,7.76007,7.76007,0,0,1,1.09-2.36,7.99971,7.99971,0,0,1,1.78-1.88,8.69972,8.69972,0,0,1,2.3-1.25A7.79018,7.79018,0,0,1,75.35,152.71Zm.77,15.8A4,4,0,0,0,79,167.32a5.81,5.81,0,0,0,1.57-2.91,6.91958,6.91958,0,0,0,.15-1.13v-1.23a7.5758,7.5758,0,0,0-.08-1.13,4.26973,4.26973,0,0,0-.17-.88A5.27,5.27,0,0,0,79,157.27a4.05005,4.05005,0,0,0-2.88-1.07,3.93,3.93,0,0,0-2.82,1.07A5.33,5.33,0,0,0,71.78,160a10.91992,10.91992,0,0,0-.27,2.59,9.53038,9.53038,0,0,0,.19,1.78,6.19,6.19,0,0,0,1.55,2.93,3.8,3.8,0,0,0,2.87,1.2Z"/><path class="cls-1" d="M96.13,152.71a7.89,7.89,0,0,1,4.91,1.46,9.00006,9.00006,0,0,1,2.86,3.64,11.00006,11.00006,0,0,1,.86,4.72,12.36009,12.36009,0,0,1-1.05,4.72,9.25014,9.25014,0,0,1-2.89,3.64,7.50005,7.50005,0,0,1-4.68,1.46,7.77,7.77,0,0,1-4.81-1.46,9.00007,9.00007,0,0,1-2.89-3.64,12.07,12.07,0,0,1,0-9.43,9.08,9.08,0,0,1,2.88-3.64A7.76,7.76,0,0,1,96.13,152.71Zm0,16.06a4.13,4.13,0,0,0,2.76-.94,5.99993,5.99993,0,0,0,1.69-2.32,8.05008,8.05008,0,0,0,.59-3,7.8,7.8,0,0,0-.54-3,5.78,5.78,0,0,0-1.69-2.32,4.25994,4.25994,0,0,0-2.82-.94,4.05994,4.05994,0,0,0-2.74.94,5.77,5.77,0,0,0-1.63,2.32,8,8,0,0,0-.52,3,8.56007,8.56007,0,0,0,.56,3,5.75994,5.75994,0,0,0,1.63,2.32A4,4,0,0,0,96.13,168.77Z"/><path class="cls-1" d="M120.28,172.15v-11.7a4.2,4.2,0,0,0-1.11-3.24,3.89,3.89,0,0,0-2.72-1,4.15,4.15,0,0,0-2.82,1,4.07,4.07,0,0,0-1.17,3.24v11.69h-3.83V153h3.76v2a6.2399,6.2399,0,0,1,2.32-1.65,7.32007,7.32007,0,0,1,2.78-.54,7.15991,7.15991,0,0,1,2.93.56,5.88,5.88,0,0,1,2.09,1.53,6.29008,6.29008,0,0,1,1.25,2.28,9.34015,9.34015,0,0,1,.4,2.76v12.27Z"/><path class="cls-1" d="M134.7,156.43v15.72h-3.8V156.43h-2.84v-3h2.84V150.6a6.00012,6.00012,0,0,1,.33-2,5.25994,5.25994,0,0,1,1-1.69,4.50007,4.50007,0,0,1,1.61-1.19,5.61009,5.61009,0,0,1,2.32-.44H139v3.3h-2.19q-2.07,0-2.07,2.19v2.68H139v3Z"/><path class="cls-1" d="M147.5,172.15a6.00008,6.00008,0,0,1-2.34-.42,4.37,4.37,0,0,1-1.63-1.15,4.73,4.73,0,0,1-.94-1.69,6.46974,6.46974,0,0,1-.31-2V145.35h3.87v21.32a2.65,2.65,0,0,0,.44,1.67,1.93,1.93,0,0,0,1.59.56h2.53v3.26Z"/><path class="cls-1" d="M161.49,176a10.69065,10.69065,0,0,1-.82,1.67,4.10005,4.10005,0,0,1-1.07,1.17,4.52,4.52,0,0,1-1.46.69,7.40963,7.40963,0,0,1-2,.23h-1.57v-3.49h1a2.88,2.88,0,0,0,1.78-.44,3.60006,3.60006,0,0,0,1-1.59l1.07-3L152.71,153h4.06l4.56,13.5,4.49-13.5H170Z"/><g id="_编组_" data-name=" 编组 "><g id="_编组_2" data-name=" 编组 2"><polygon id="_路径_" data-name=" 路径 " class="cls-2" points="105.16 14.63 87.2 4.26 69.25 14.63 87.2 24.99 105.16 14.63"/><polygon id="_路径_2" data-name=" 路径 2" class="cls-2" points="77.42 82.29 79.98 129.59 87.2 133.76 94.43 129.59 96.99 82.29 87.2 76.64 77.42 82.29"/><path id="_路径_3" data-name=" 路径 3" class="cls-2" d="M118.59,43.19l31.35-18.1L136.81,17.5a10,10,0,0,0-5-1.39,9.44,9.44,0,0,0-4.82,1.3L100.47,32.73Z"/><path id="_路径_4" data-name=" 路径 4" class="cls-2" d="M118.56,58.53l31.35,18.1-13.14,7.59a10,10,0,0,1-5,1.39,9.44,9.44,0,0,1-4.82-1.3L100.44,69Z"/><path id="_路径_5" data-name=" 路径 5" class="cls-2" d="M69.08,50.85,24.46,76.62,37.6,84.2a10,10,0,0,0,5,1.39,9.44,9.44,0,0,0,4.82-1.3l39.8-23Z"/><path id="_路径_6" data-name=" 路径 6" class="cls-2" d="M87.2,61.31,24.46,25.09,37.59,17.5a10,10,0,0,1,5-1.39,9.44,9.44,0,0,1,4.82,1.3l57.92,33.44Z"/><path id="_路径_7" data-name=" 路径 7" class="cls-3" d="M69.08,50.85,24.46,76.62,37.6,84.2a10,10,0,0,0,5,1.39,9.44,9.44,0,0,0,4.82-1.3l28.8-16.64a7.23,7.23,0,0,0,.29-12.52C72.41,52.83,69.08,50.85,69.08,50.85Z"/></g></g></svg>