<svg width="3669" height="1064" viewBox="0 0 3669 1064" fill="none" xmlns="http://www.w3.org/2000/svg">
<path fill-rule="evenodd" clip-rule="evenodd" d="M879.175 595.125L824.283 355.849C819.859 336.948 807.594 321.466 790.101 313.021L568.117 206.453C559.873 202.633 550.423 200.22 541.375 200.22C532.327 200.22 522.876 202.432 514.23 206.453L291.242 313.021C273.547 321.265 261.282 336.747 257.059 355.849L201.765 595.125C197.341 614.025 201.765 633.529 214.03 648.811L368.051 840.432C379.914 855.311 398.011 863.756 416.71 863.756H663.626C682.527 863.756 700.423 855.512 712.286 840.432L866.307 648.811C878.572 633.931 882.996 614.025 878.572 595.125H878.974H879.175ZM491.308 384.401H509.404C514.632 384.401 519.056 380.179 519.056 374.75V289.294C519.056 284.067 523.278 279.643 528.707 279.643H551.831C557.058 279.643 561.482 283.866 561.482 289.294V374.75C561.482 379.978 565.705 384.401 571.133 384.401H589.23C596.67 384.401 601.294 392.444 597.675 398.879L548.613 483.731C544.994 490.165 535.544 490.165 531.924 483.731L482.863 398.879C479.244 392.444 483.868 384.401 491.308 384.401ZM394.19 562.35C388.962 562.35 384.539 566.572 384.539 572.001V590.098C384.539 597.537 376.496 602.162 370.062 598.543L285.209 549.481C278.775 545.862 278.775 536.412 285.209 532.792L370.062 483.731C376.496 480.112 384.539 484.736 384.539 492.176V510.272C384.539 515.5 388.761 519.924 394.19 519.924H479.646C484.874 519.924 489.297 524.146 489.297 529.575V552.698C489.297 557.926 485.075 562.35 479.646 562.35H394.19ZM589.23 697.872H571.334C566.107 697.872 561.683 702.095 561.683 707.524V792.979C561.683 798.207 557.461 802.631 552.032 802.631H528.908C523.681 802.631 519.257 798.408 519.257 792.979V707.524C519.257 702.296 515.034 697.872 509.606 697.872H491.509C484.069 697.872 479.445 689.829 483.064 683.395L532.126 598.543C535.745 592.108 545.195 592.108 548.814 598.543L597.876 683.395C601.495 689.829 596.871 697.872 589.431 697.872H589.23ZM795.328 549.481L710.476 598.543C704.042 602.162 695.999 597.537 695.999 590.098V572.001C695.999 566.773 691.776 562.35 686.348 562.35H600.892C595.664 562.35 591.241 558.127 591.241 552.698V529.575C591.241 524.347 595.463 519.924 600.892 519.924H686.348C691.575 519.924 695.999 515.701 695.999 510.272V492.176C695.999 484.736 704.042 480.112 710.476 483.731L795.328 532.792C801.763 536.412 801.763 545.862 795.328 549.481Z" fill="white"/>
<path d="M1176.74 508.865L1179.55 505.849C1187.59 497.002 1195.23 488.557 1202.88 480.112L1206.09 476.492C1210.72 471.265 1215.14 466.037 1219.56 461.01C1223.18 456.787 1226.8 452.565 1230.22 448.544C1237.86 439.897 1244.3 432.257 1249.52 425.42H1352.27C1333.37 447.538 1314.27 468.249 1296.17 488.155L1292.35 492.377C1273.05 513.49 1251.33 535.809 1228.21 558.329C1239.87 568.985 1251.94 581.05 1264 595.929C1266.82 599.347 1269.63 602.967 1272.45 606.385C1281.7 617.645 1290.74 628.905 1299.59 640.768C1311.25 656.251 1321.71 671.532 1331.36 687.015C1341.01 702.497 1349.26 716.371 1355.49 729.441H1256.16L1253.75 725.62C1248.12 716.572 1242.08 706.72 1234.85 696.063C1227.2 683.998 1218.36 671.532 1209.71 659.468C1201.07 647.403 1191.41 635.339 1181.76 624.28C1172.11 613.221 1162.06 603.57 1152.81 595.929V729.441H1066.35V294.925L1152.81 281.051V535.004C1160.65 526.76 1168.49 518.114 1176.53 509.066L1176.74 508.865Z" fill="white"/>
<path fill-rule="evenodd" clip-rule="evenodd" d="M1586.32 802.229C1611.86 778.1 1624.52 741.103 1624.52 691.438H1624.92V436.077C1617.28 433.664 1608.03 431.251 1598.38 429.241C1588.73 427.23 1578.08 425.42 1567.42 424.013L1564 423.611C1554.15 422.404 1544.5 420.997 1534.64 420.192C1523.58 418.785 1512.93 418.785 1502.27 418.785C1477.74 418.785 1456.02 422.203 1436.72 429.442C1417.42 436.68 1401.53 446.734 1388.06 459.804C1374.59 472.873 1364.94 488.758 1357.7 507.055C1350.46 525.353 1347.04 546.063 1347.04 568.181C1347.04 613.02 1358.71 647.604 1380.82 672.738C1402.94 697.269 1435.31 709.736 1477.34 709.736C1489 709.736 1500.06 708.328 1509.71 706.317C1519.36 703.905 1529.01 701.09 1538.26 696.666V707.725C1538.26 724.615 1533.04 738.489 1522.78 749.146C1512.12 760.205 1494.83 765.433 1470.1 765.433C1451.2 765.433 1434.31 763.422 1419.43 760.607C1404.55 757.792 1390.48 753.368 1377 748.14L1362.12 820.325C1378.01 825.553 1395.5 829.977 1413.8 833.395C1432.1 836.813 1451 838.22 1469.3 838.22C1522.38 838.22 1560.98 826.156 1586.52 802.028L1586.32 802.229ZM1493.02 639.763C1454.01 639.763 1434.71 615.634 1434.71 567.578C1434.71 544.455 1440.54 525.152 1451.6 510.273C1463.26 495.393 1480.15 487.551 1502.67 487.551C1510.31 487.551 1517.15 487.954 1522.98 488.557C1528.81 488.959 1533.64 489.562 1537.86 490.567V628.302C1532.63 631.72 1525.8 634.133 1518.16 636.546C1510.52 638.958 1501.67 639.964 1493.02 639.964V639.763Z" fill="white"/>
<path fill-rule="evenodd" clip-rule="evenodd" d="M1789 417.176C1814.54 417.176 1835.85 419.991 1852.74 425.822C1869.63 431.653 1883.1 439.696 1893.76 450.956C1903.81 461.613 1911.05 475.085 1915.47 490.366C1919.9 505.849 1921.71 523.141 1921.71 541.841V720.996C1909.84 723.811 1894.16 726.425 1873.65 730.044L1870.03 730.647C1847.91 734.467 1821.37 735.875 1790 735.875C1770.3 735.875 1752.4 733.864 1736.52 730.647C1720.64 727.43 1706.56 721.398 1695.1 713.757C1683.44 706.116 1674.79 695.46 1668.56 682.993C1662.32 670.527 1659.31 654.642 1659.31 636.344C1659.31 618.047 1662.73 603.57 1669.96 591.103C1677.2 578.637 1686.85 568.985 1698.52 561.747C1710.58 554.508 1724.05 549.28 1739.54 545.862C1755.02 542.444 1770.9 541.036 1787.79 541.036C1798.85 541.036 1809.11 541.036 1817.75 542.444C1826.4 543.449 1833.64 544.857 1839.07 546.264V538.02C1839.07 523.543 1834.64 511.479 1825.59 502.833C1816.95 494.187 1801.47 489.361 1779.35 489.361C1764.87 489.361 1750.39 490.366 1735.92 492.779C1721.44 495.192 1709.37 498.007 1698.72 502.029L1687.66 432.659H1688.46C1693.09 431.05 1699.12 429.241 1706.56 427.833C1714.2 425.822 1722.44 424.415 1731.09 423.007C1739.74 421.6 1749.39 420.595 1759.04 419.589C1768.69 418.584 1778.74 418.182 1789 418.182L1789.4 417.176H1789ZM1795.63 669.119C1804.28 669.119 1812.12 669.119 1819.76 668.717C1827.4 668.315 1833.84 667.712 1838.06 666.706V601.157C1835.65 600.554 1832.23 599.951 1828.01 599.548C1826.4 599.347 1824.59 599.146 1822.58 598.744C1815.74 597.739 1809.11 597.739 1803.28 597.739C1795.03 597.739 1787.39 597.739 1780.55 599.146C1773.32 600.152 1767.08 601.961 1761.65 604.374C1756.43 607.189 1752 610.607 1749.19 615.433C1746.37 620.259 1744.36 626.09 1744.36 632.725C1744.36 646.197 1748.78 655.446 1757.83 660.674C1767.08 665.902 1779.55 668.315 1795.03 668.315L1795.43 668.717L1795.63 669.119Z" fill="white"/>
<path d="M2044.16 335.742L1957.7 349.616H1958.1V605.379C1958.1 625.084 1959.51 642.98 1963.33 659.267C1966.75 675.553 1973.38 689.226 1982.63 700.687C1991.88 711.746 2004.35 720.996 2019.83 727.229C2035.31 733.462 2054.62 736.88 2078.14 736.88C2096.44 736.88 2112.32 734.87 2124.99 732.055C2137.46 728.636 2149.12 725.218 2159.78 720.996L2147.71 654.039C2139.47 656.854 2130.42 659.267 2120.77 661.277C2111.12 662.685 2101.46 663.69 2092.22 663.69C2072.91 663.69 2059.84 657.859 2053.61 647.403C2047.38 636.747 2043.96 622.269 2043.96 603.972V497.002H2147.71V425.219H2043.96V335.541L2044.16 335.742Z" fill="white"/>
<path fill-rule="evenodd" clip-rule="evenodd" d="M2159.98 579.642C2159.98 552.699 2164.4 528.972 2172.44 508.865C2180.69 488.557 2191.75 471.868 2205.22 458.195C2218.69 444.723 2234.17 434.67 2252.07 427.431C2269.36 420.595 2287.86 416.774 2306.16 416.774C2349.59 416.774 2383.37 429.844 2408.5 456.184C2433.64 482.726 2446.1 521.13 2446.1 572.806C2446.1 577.632 2446.1 583.463 2445.7 589.093C2445.7 592.109 2445.5 594.924 2445.1 597.739C2444.9 600.353 2444.69 602.564 2444.69 604.977H2248.85C2250.86 622.873 2258.9 636.747 2273.98 647.403C2288.46 658.06 2308.17 662.886 2332.9 662.886C2348.78 662.886 2364.27 661.478 2379.75 658.462C2395.23 655.647 2407.29 652.229 2416.95 647.806L2428.61 717.577C2423.78 719.99 2417.95 722.403 2410.31 724.414C2408.1 725.017 2405.89 725.62 2403.68 726.022C2397.84 727.631 2391.41 729.24 2384.77 730.647C2375.12 732.658 2365.07 734.065 2354.41 735.071C2343.76 736.076 2332.7 737.081 2322.04 737.081C2294.49 737.081 2270.97 733.261 2250.66 725.017C2230.35 716.773 2213.46 705.714 2200.39 691.84C2186.92 677.966 2177.27 661.076 2171.04 641.773C2164.8 622.471 2161.38 601.76 2161.38 579.24L2160.38 579.642H2159.98ZM2362.86 546.868C2362.86 539.629 2361.45 532.39 2359.04 525.755C2357.03 518.919 2353.81 512.685 2349.39 507.458C2344.96 502.23 2339.33 497.806 2332.5 493.986C2325.66 490.567 2317.62 488.758 2307.36 488.758C2297.11 488.758 2289.47 490.165 2282.23 493.584C2275.39 497.002 2269.76 501.224 2264.94 506.653C2260.11 511.881 2256.69 518.114 2254.28 525.353C2251.87 532.591 2249.86 539.83 2249.05 547.069H2362.86V546.868Z" fill="white"/>
<path d="M2641.74 642.176C2650.39 613.221 2658.63 584.267 2666.28 554.91C2673.92 584.267 2682.76 613.221 2691.81 642.176C2698.65 663.891 2705.89 685.607 2713.12 707.725C2715.54 714.963 2717.75 722.202 2720.16 729.441H2787.32C2794.56 713.154 2802.2 693.851 2810.44 671.532C2818.69 648.811 2827.33 624.883 2835.98 598.342C2844.22 573.409 2852.47 547.069 2860.91 519.522L2862.52 514.495C2871.77 485.139 2880.42 455.179 2889.06 425.42H2799.38C2796.57 439.294 2793.15 454.375 2789.33 470.661C2787.32 480.313 2785.11 490.165 2782.7 500.018C2781.09 507.055 2779.28 514.093 2777.87 521.13C2774.05 538.423 2769.63 556.318 2764.8 573.61C2762.99 579.843 2761.38 586.077 2759.77 592.31C2756.76 603.168 2753.94 613.824 2750.93 624.28C2746.1 607.39 2741.27 590.098 2736.45 572.203C2731.62 554.307 2727.2 537.015 2722.98 519.723C2719.96 508.262 2717.35 497.002 2714.73 485.943C2713.53 480.715 2712.32 475.286 2710.91 470.259C2709.91 466.439 2709.1 462.417 2708.1 458.798C2705.28 447.136 2702.47 436.077 2700.26 425.621H2637.52C2635.31 436.077 2632.7 447.337 2629.68 458.798C2628.67 462.619 2627.87 466.439 2626.87 470.259C2624.65 479.71 2622.04 489.361 2619.63 499.214C2618.02 505.849 2616.21 512.886 2614.4 519.723C2610.98 533.195 2607.36 546.868 2603.54 560.54C2602.54 564.361 2601.33 568.382 2600.32 572.203C2597.31 583.664 2593.89 594.924 2590.67 605.983C2588.86 612.015 2587.05 618.047 2585.44 624.079C2583.84 618.047 2582.23 612.015 2580.62 605.983C2577.8 595.326 2574.79 584.468 2571.97 573.61C2567.15 555.715 2562.72 538.423 2558.9 521.13C2555.08 503.838 2551.26 486.948 2547.24 470.46C2543.42 454.174 2540 439.093 2537.19 425.219H2446.5C2451.53 442.712 2456.76 460.206 2462.19 477.699C2465.81 489.964 2469.63 502.029 2473.05 514.294C2481.69 543.449 2490.74 570.996 2499.39 597.135V597.94C2508.43 624.481 2516.68 649.012 2524.72 671.13C2532.96 693.248 2540.61 712.551 2547.44 729.039H2614.6C2624.25 699.682 2633.5 670.728 2642.15 641.773L2641.74 642.176Z" fill="white"/>
<path fill-rule="evenodd" clip-rule="evenodd" d="M3018.75 417.176C3044.29 417.176 3065.6 419.991 3082.49 425.822C3099.38 431.653 3112.86 439.696 3123.51 450.956C3133.57 461.613 3140.8 475.085 3145.23 490.366C3149.45 505.849 3151.46 523.141 3151.46 541.841V720.996C3139.6 723.811 3123.71 726.425 3103.2 730.044L3099.79 730.647C3077.67 734.467 3051.13 735.875 3019.76 735.875C3000.05 735.875 2982.16 733.864 2966.07 730.647C2950.19 727.229 2936.11 721.398 2924.65 713.757C2913.19 706.116 2904.34 695.46 2898.11 682.993C2891.88 670.527 2888.86 654.642 2888.86 636.344C2888.86 618.047 2892.28 603.57 2899.52 591.103C2906.76 578.637 2916.41 568.985 2928.07 561.747C2940.13 554.508 2953.61 549.28 2969.09 545.862C2984.57 542.444 3000.46 541.036 3017.35 541.036C3028.41 541.036 3038.66 541.036 3047.31 542.444C3055.95 543.449 3063.19 544.857 3068.62 546.264V538.02C3068.62 523.543 3064.2 511.479 3055.15 502.833C3046.5 494.187 3031.02 489.361 3008.9 489.361C2994.42 489.361 2979.95 490.366 2965.47 492.779C2950.99 495.192 2938.93 498.007 2928.27 502.029L2917.21 432.659H2918.02C2922.64 431.05 2928.67 429.241 2936.11 427.833C2943.75 425.822 2952 424.415 2960.64 423.007C2969.29 421.6 2978.94 420.595 2988.59 419.589C2998.24 418.584 3008.3 418.182 3018.55 418.182L3018.95 417.176H3018.75ZM3025.99 669.119C3034.64 669.119 3042.48 669.119 3050.12 668.717C3057.76 668.315 3064.2 667.712 3068.42 666.706V601.157C3066.01 600.554 3062.59 599.951 3058.36 599.548C3056.76 599.347 3054.95 599.146 3052.94 598.744C3046.1 597.739 3039.46 597.739 3033.63 597.739C3025.39 597.739 3017.75 597.739 3010.91 599.146C3003.67 600.152 2997.44 601.961 2992.01 604.374C2986.78 607.189 2982.36 610.607 2979.54 615.433C2976.73 620.259 2974.72 626.09 2974.72 632.725C2974.72 646.197 2979.14 655.446 2988.19 660.674C2997.44 665.902 3009.91 668.315 3025.39 668.315L3025.79 668.717L3025.99 669.119Z" fill="white"/>
<path d="M3468.35 425.822H3380.08C3376.26 440.702 3371.84 457.19 3367.01 474.482C3362.18 491.774 3357.36 509.267 3352.13 527.565C3346.9 545.862 3341.47 563.154 3336.25 580.044C3330.41 596.934 3325.19 612.417 3320.36 626.291C3314.53 612.417 3308.7 596.934 3303.07 580.044C3296.84 562.752 3291 545.259 3285.17 527.565C3280.75 513.892 3276.53 500.219 3272.51 486.747C3271.3 482.726 3270.09 478.704 3268.89 474.683C3263.66 457.391 3259.24 440.903 3255.42 426.023H3163.73C3181.02 485.742 3199.92 539.629 3219.22 587.484C3238.53 635.138 3258.23 678.57 3278.14 716.974C3272.31 731.451 3265.07 742.913 3256.82 751.156C3248.58 759.4 3236.51 763.623 3221.03 763.623C3213.39 763.623 3205.55 762.618 3198.71 761.612C3192.08 760.607 3183.83 758.194 3174.99 755.379L3160.11 824.347C3167.35 827.162 3176.6 830.178 3188.06 832.59C3199.72 835.003 3212.18 836.411 3225.66 836.411C3241.54 836.411 3256.02 835.003 3268.08 831.183C3280.15 827.363 3291.21 821.532 3300.86 813.891C3310.51 806.25 3319.15 795.995 3327.4 783.931C3335.04 771.867 3343.28 756.987 3351.53 739.695C3374.25 691.438 3394.96 641.371 3413.86 590.299C3432.56 539.428 3450.86 484.535 3468.35 426.023V425.822Z" fill="white"/>
</svg>
