<?xml version="1.0" encoding="utf-8"?>
<!-- Generator: Adobe Illustrator 21.1.0, SVG Export Plug-In . SVG Version: 6.00 Build 0)  -->
<svg version="1.1" id="Layer_1" xmlns="http://www.w3.org/2000/svg" xmlns:xlink="http://www.w3.org/1999/xlink" x="0px" y="0px"
	 viewBox="0 0 425.5 137.3" style="enable-background:new 0 0 425.5 137.3;" xml:space="preserve">
<style type="text/css">
	.st0{clip-path:url(#SVGID_2_);}
</style>
<g>
	<path d="M160.8,93.3c0,2.5-0.5,4.9-1.7,7.1c-2.5,4.9-6.9,7.4-13,7.4c-4.2,0-7.4-1.2-9.6-3.4c-3.7-3.7-3.4-9.3-3.4-9.3h-2.7
		c0,0.2-0.2,6.6,4.2,11.3c2.7,2.9,6.6,4.2,11.3,4.2c9.1,0,13.3-4.7,15.2-8.6c1.2-2.5,2-5.4,2-8.4V42.7h-2.7v50.6H160.8z"/>
	<path d="M196.1,42.7L196.1,42.7c-0.7,0-1.2,0.5-1.5,1L173,109.3h2.7l6.4-18.7h28.3l6.4,18.7h2.7l-21.9-65.6
		C197.4,43.2,196.6,42.7,196.1,42.7z M182.9,88.2l13.3-40.5l13.3,40.5H182.9z"/>
	<polygon points="232,109.3 263.7,109.3 263.7,106.6 234.5,106.6 234.5,77.1 262,77.1 262,74.4 234.5,74.4 234.5,44.7 263.7,44.7 
		263.7,42.2 232,42.2 	"/>
	<path d="M318,60.4c0-0.2,0.2-7.6-4.9-13c-3.4-3.4-8.4-5.4-14.5-5.4c-6.4,0-11.3,1.7-14.7,5.4c-5.2,5.2-4.9,12.5-4.9,12.8v32.4
		c0,3.9,1,7.6,3.2,10.6c2.5,3.7,7.1,7.9,16.2,7.9c2.9,0,5.7-0.2,8.1-1c6.6-1.7,11.3-7.6,11.3-14.7V79.1h-16.5v2.7h14.2v13.5
		c0,5.9-3.9,10.8-9.3,12.3c-2.2,0.5-4.7,0.7-7.4,0.7c-6.4,0-11.1-2.2-14-6.6c-1.7-2.7-2.7-5.7-2.7-9.1V60.1c0,0-0.2-6.4,4.2-10.8
		c2.9-2.9,7.1-4.4,12.8-4.4c5.4,0,9.8,1.5,12.8,4.4c4.4,4.4,4.2,10.8,4.2,11.1L318,60.4z"/>
	<polygon points="335.4,109.3 367.6,109.3 367.6,106.6 338.1,106.6 338.1,77.1 365.2,77.1 365.2,74.4 338.1,74.4 338.1,44.7 
		367.6,44.7 367.6,42.2 335.4,42.2 	"/>
	<path d="M421.7,109.3l-14.2-28.7c2.7-0.7,5.2-2,7.1-3.9c2.9-2.9,4.4-7.1,4.4-12.3c0-13-6.6-19.2-10.6-20.9
		c-1.7-0.7-3.9-1.2-5.9-1.2h-19.2v67.1h2.7V81.8c1,0,2.2,0,3.4,0c5.2,0,10.6,0.2,15.5-0.7l14,28.3H421.7z M389.5,79.1
		c-1.2,0-2.5,0-3.4,0V44.7h16.5c1.7,0,3.4,0.2,4.9,1c4.2,2,9.1,7.4,9.1,18.4c0,4.7-1.2,8.1-3.7,10.3
		C407.9,79.6,398.1,79.3,389.5,79.1z"/>
</g>
<g>
	<g>
		<g>
			<defs>
				<rect id="SVGID_1_" x="-6.1" y="-7.7" width="133.9" height="153.1"/>
			</defs>
			<clipPath id="SVGID_2_">
				<use xlink:href="#SVGID_1_"  style="overflow:visible;"/>
			</clipPath>
			<g class="st0">
				<path d="M18.5,113.2c2.5,0,4.4-1.2,5.7-2.9l0.2-0.2c-1-2-2.2-4.9-3.4-8.1c-1-2.2-2-4.7-2.9-7.4c-0.7,0.5-1.5,1.2-2.2,2.5
					c-1,1.2-1.7,3.4-2.2,5.7c-0.5,2-0.5,4.2-0.2,6.1c0.2,0.7,0.5,1.5,0.7,2C15.1,112.5,16.5,113.2,18.5,113.2"/>
				<path d="M31.5,73.2c-2,0-3.4,1.5-3.4,3.4c0,2,1.5,3.4,3.4,3.4s3.4-1.5,3.4-3.4C35,74.9,33.5,73.2,31.5,73.2"/>
				<path d="M65.9,64.8c-2,0-3.4,1.5-3.4,3.4c0,2,1.5,3.4,3.4,3.4c2,0,3.4-1.5,3.4-3.4C69.4,66.5,67.9,64.8,65.9,64.8"/>
				<path d="M6,105.8c0,1,2,1.7,5.7,2.7c-0.2-2,0-3.9,0.2-5.4C7.9,103.9,6,104.9,6,105.8"/>
				<path d="M114.1,103.4c0,0.2,0,0.2-0.2,0.5c-0.5,1-1,2-2,2.7c-1.7,1.5-3.2,2.5-4.4,2.9c7.1-1,11.3-2.2,11.3-3.7
					C119,104.9,117.3,104.1,114.1,103.4"/>
				<path d="M112.1,102.9c1-2.2,0.7-5.2-0.2-7.4c-1.5-3.9-4.9-6.9-8.1-6.9l0,0c0,0-0.7,0-1.5,0c-1.7,0-3.9,0.5-4.2,2.2
					c-0.2,1.2,0.2,2,1.5,2.9c1.2,1.5,2.9,3.2,3.7,7.1c0,0.2,0,0.5,0,0.7c0.7,3.9,1.7,5.9,3.2,5.9l0,0c0.7,0,2-0.5,4.2-2.5
					C111.4,104.4,111.9,103.6,112.1,102.9"/>
				<path d="M20.5,37.5c0-2.9-0.2-5.9,0-6.6c0.5-1.7,11.3-14.2,18.7-15.7c0.5,0,1.2-0.2,2.2-0.2c8.1,0,23.8,5.9,25.6,6.9
					c0,0.2,0.2,0.7,0.5,1.2c-1,1-1.7,2.2-2,3.9c-0.5,1.7-0.2,3.2,0,4.4c-8.4,3.7-28.7,11.5-44.2,7.4c0.2,0.5,0.7,1,1,1.5
					c1.2,2,2,3.9,2.5,5.2c6.4,1,20.4,1.2,42.3-8.6c0.5-1.2,1-3.2,2-5.2c-0.5,0.5-0.7,0.5-1.2,0.5c-1-0.2-1.5-2.2-1-4.7
					c0.5-2.2,1.7-3.9,2.7-3.9c0,0,0,0,0.2,0c0.7,0.2,1.5,2,1,4.4c2.9-5.4,6.1-8.1,9.6-8.1c1.2,0,2.2,0.2,3.2,0.7
					c1.5-1.7,2.5-2.9,2.5-2.9c-1.2,0.2-3.4,0.5-3.4,0.5c8.8-3.2,8.1-12,8.1-12c0,1.5-4.7,5.2-4.7,5.2c0.2-1.2-0.5-2.9-0.5-2.9
					c0.5,1.7-5.2,6.1-5.2,6.1c0.5-0.7,0-2.2,0-2.2c0,1.7-2.5,2.2-2.5,2.2c1.5-1.7,4.4-11.5,2.2-12c-2.2-0.5-5.2,6.4-5.2,6.4
					c0-1.7-1-1.7-1-1.7c0.5,5.2-3.7,9.1-3.7,9.1c-0.2-1-2-1.5-2-1.5c0.5,0.7,0.2,3.7,0,5.9l0,0c-1-1-18.2-7.4-26.8-7.4
					c-1,0-1.7,0-2.5,0.2c-4.4,1-9.8,5.7-12.8,8.4c-3.4,3.2-6.9,7.4-7.1,8.8c0,0.7,0,2.7,0,4.9C19.2,36.1,20,36.8,20.5,37.5"/>
				<path d="M101.5,101.2c-0.5-3.4-2-4.9-3.2-6.1s-2.2-2.5-2-4.4c0.2-2,2-3.2,4.4-3.4c-1.5-10.6-3.9-23.6-6.6-34.9
					c-1.5-5.7-3.7-9.6-6.9-12c0.5-0.2,1.2-0.5,1.7-0.7c0.7-0.5,1.5-0.7,2-1.2c6.9-3.9,7.9-5.7,8.1-6.6c0.2-1,0-1.5-0.2-2
					c-0.7-0.7-2-1.2-3.9-1.2c-2.2,0-5.2,0.5-8.4,1.2c0,0.5,0,1.2-0.2,1.7c3.2-0.7,6.4-1.2,8.6-1.2c2,0,2.5,0.5,2.5,0.5s0,0,0,0.5
					c0,0.5-1,2-7.4,5.7c-2,1-3.9,2.2-6.4,3.4l0,0l0,0c-2.9,1.5-6.1,2.9-9.6,4.4c-2,1-4.2,1.7-6.1,2.7c1-1.2,1.7-2.2,2.5-2.9
					c1.2-1.5,1-3.7-0.5-4.9l-0.2-0.2c2.9-0.7,6.4-1,9.1-1c2.5,0,4.2,0.2,4.2,0.2c0.7-1,5.2-16.2-2.5-16.2c-6.6,0-10.8,12.8-12,16.5
					c-1.2-0.2-2.5,0.2-3.4,1.2c-3.9,4.9-9.3,10.6-10.8,11.3c-0.2,0-0.5,0.2-0.5,0.2c-1.2-1-2.7-1-4.2-0.2c-1.2,0.7-1.7,2-1.5,3.2
					c-0.5,0-0.7,0.2-1,0.2c-0.5,0-1.5,0.2-2.5,0.2l-0.2-0.2c-1-1-2.5-1-3.7-0.5c-0.7,0-2.9-0.2-8.8-2.5c-5.9-2.5-8.6-2.9-10.1-3.2
					c1.2-0.5,2-0.7,2-0.7s-4.2-12-9.6-12c-0.7,0-1.5,0.2-2.2,0.7c-6.6,3.9,2.7,16,2.7,16c1-0.7,2.2-1.5,3.4-2
					c-0.2,0.7-0.5,1.5-0.2,2.2c0.2,1.5,1.5,2.5,2.7,2.7C8.2,55,6,53.5,5.7,52.8c0-0.2-0.2-0.2,0-0.5c0.5-1.2,2.5-2.5,4.7-3.4
					c-0.2-0.5-0.5-1-0.7-1.5C7,48.6,4.7,50.1,4,51.8c-0.2,0.7-0.2,1.5,0.2,2c0.5,0.5,1.5,2,9.1,2.9c0.5,0,1.2,0,1.7,0.2
					c-3.2,6.6-1.7,14-0.7,19.9c1.2,6.6,5.4,17.2,8.6,25.3c1.5,3.7,2.9,6.9,3.7,8.8c9.8,1,22.4,1.5,36.1,1.5c16.2,0,30.7-0.7,41-2
					c-0.7-2.5-1.7-6.9-2-8.4C101.5,101.4,101.5,101.2,101.5,101.2 M74.8,32.9c0-0.2,0-0.2,0-0.5c0-0.5,0.2-1.2,0.2-2
					c0.2-0.7,0.5-1.7,1.2-2.7c0.2-0.5,0.7-1,1.2-1.2c0.5-0.5,1-0.7,1.7-0.7c0.2,0,0.2,0,0.5,0c0.2,0,0.2,0,0.5,0c0.2,0,0.2,0,0.5,0
					h0.2l0,0l0,0l0,0l0,0l0,0l0,0c0,0,0.5,0.2,0.5,0.5v0.2v0.2c0,0,0,0.2,0.2,0.2c0.2,0.5,0.2,0.7,0,1c0,0.5-0.2,1-0.5,1.5
					c-0.2,0.5-0.2,0.7-0.5,1.2c-0.5,0.7-0.7,1.2-1,1.7c-0.2,0.2-0.5,0.5-0.5,0.5s0-0.2,0.2-0.7c0-0.5,0.2-1,0.5-1.7
					c0-0.5,0.2-0.7,0.2-1.2c0-0.5,0-0.7,0-1.2c0-0.2,0-0.2,0-0.5l0,0l0,0l0,0l0,0l0,0l0,0l0,0l0,0h-0.2h-0.2h-0.2h-0.2
					c-0.2,0-0.7,0.2-1,0.5c-0.2,0.2-0.7,0.5-1,1c-0.5,0.7-1,1.5-1.5,2.2C75.3,31.9,75,32.4,74.8,32.9C75,32.9,74.8,33.1,74.8,32.9
					C74.8,33.1,74.8,33.1,74.8,32.9 M50.9,52.8c0.2,0,0.2-0.2,0.5-0.2c0.2,0,0.5,0,0.7,0.2l1,0.7l1.2-0.2c0.2,0,0.5-0.2,0.7-0.2l0,0
					l0,0c2.5-1.2,9.1-9.1,11.5-11.8c0.2-0.2,0.5-0.2,0.7-0.2c0.2,0,0.5,0,0.7,0.2c0.5,0.2,0.5,1,0.2,1.5
					c-5.7,6.6-10.3,11.5-12.5,12.5c-1,0.5-1.7,0.7-2.7,0.7c-0.5,0-1,0-1.5-0.2c-1-0.2-1.2-1-1.5-1C50.4,53.5,50.4,53,50.9,52.8
					 M50.7,77.3c3.2-0.5,6.1,0.5,6.6,2.5c0.2,2-2.2,3.9-5.4,4.4c-3.2,0.5-6.1-0.5-6.6-2.5C44.8,79.8,47.5,77.8,50.7,77.3 M19,46.4
					c-0.2-0.2-0.7-0.7-1-1.2c-0.5-0.5-1-1.2-1.5-2c-0.2-0.2-0.5-0.7-0.7-1c-0.2-0.2-0.5-0.7-0.7-0.7s-0.2-0.2-0.2-0.2l0,0l0,0l0,0
					l0,0l0,0l0,0l0,0c0,0,0,0-0.2,0c0,0,0,0.2-0.2,0.2c0,0.2,0,0.7,0,1c0,0.5,0,0.7,0.2,1c0,0.7,0.2,1.2,0.2,1.7s0.2,0.7,0.2,0.7
					s0,0,0-0.2c0,0-0.2-0.2-0.2-0.5c-0.2-0.2-0.7-0.7-1-1.5c-0.2-0.2-0.2-0.7-0.5-1.2c0-0.5-0.2-1-0.2-1.5c0-0.2,0-0.7,0.2-1
					c0.2-0.2,0.5-0.7,1-0.7l0,0l0,0l0,0l0,0l0,0h0.2h0.2l0,0l0,0h0.2c0.2,0,0.7,0.2,1,0.5c0.5,0.5,0.7,0.7,1.2,1.2
					c0.2,0.5,0.5,0.7,0.7,1.2c0.5,0.7,0.7,1.7,1,2.2c0.2,0.7,0.2,1.2,0.5,1.7c0,0.2,0,0.5,0,0.5v0.2C19.5,46.9,19.2,46.9,19,46.4
					 M20.7,52.5L20.7,52.5c-0.5,0-1-0.2-1-0.7c0-0.2,0-0.7,0.2-0.7c0-0.2,0.2-0.2,0.7-0.5H21c0.7,0,3.2,0.2,9.8,2.9
					c5.7,2.2,8.4,2.7,9.8,2.7h0.7l0.5-0.2c0.2,0,0.2,0,0.5,0s0.5,0,0.7,0.2c0.2,0.2,0.2,0.5,0.2,0.7c0,0.2,0,0.5-0.2,0.7
					s-0.5,0.7-2.5,0.7c-2.2,0-5.9-1-10.6-2.9c-5.7-2.2-8.1-2.7-8.8-2.7L20.7,52.5L20.7,52.5z M21.2,72.9c0-6.1,5.2-11.3,11.3-11.3
					s11.3,5.2,11.3,11.3c0,6.1-5.2,11.3-11.3,11.3C26.1,84.2,21.2,79.1,21.2,72.9 M51.4,96.8c-2.5,0.7-3.2-2-3.4-3.2
					c1.2-0.7,2.5-1.5,3.9-2C52.2,92.8,53.4,96.3,51.4,96.8 M55.1,95.8c-1-0.5-1.7-3.4-2-4.9c0.2,0,0.5,0,0.7-0.2c0.2,0,0.5,0,1,0
					c0.5,0,1.2,0,2,0c0.2,0,0.5,0,0.7,0c0,0.5,0.2,1.2,0.2,2.5C58.3,96.3,55.9,96,55.1,95.8 M64.9,88.2c-2.5,1-9.1,0.2-11.3,0.5
					c-3.9,0.5-6.9,2.9-8.6,3.9c-2,1-5.9,0-5.7-2.9c0.5-2.9,5.2-4.4,5.2-4.4c1,1,2.9,2,8.1,1.2c5.2-0.7,6.9-5.2,6.9-5.2
					c5.9,0,7.4,2.2,7.6,3.2C67.4,85.2,67.4,87.2,64.9,88.2 M67.4,76.1c-6.1,0-11.3-5.2-11.3-11.3s5.2-11.3,11.3-11.3
					s11.3,5.2,11.3,11.3C78.7,71,73.8,76.1,67.4,76.1"/>
				<path d="M32,122.3c-2,0.5-7.6,3.4-12.5,4.4c-4.9,1-9.1,1.5-10.8,2c-1.5,0.5-2.7,1.7,0.2,2.7c2.9,1.2,17.2,1.5,18.4,0
					c1.2-1.5-1-2.2-3.9-2.2c-2.2,0-2-0.7-2-0.7s0.2-1,3.4-1.5c3.4-0.5,18.4-2,18.2-3.4C42.8,122.1,33.7,121.8,32,122.3"/>
				<path d="M21.9,133.4c-1.5,0.2-2.7,1-2.7,1.5c0,0.5,1.5,0.5,2.9,0.2c1.5-0.2,2.7-1,2.7-1.5S23.4,133.1,21.9,133.4"/>
				<path d="M15.3,133.1c-1.7,0.2-2.9,0.7-2.9,1c0,0.5,1.5,0.7,3.2,0.5c1.7-0.2,2.9-0.7,2.9-1C18.3,133.1,17,132.9,15.3,133.1"/>
				<path d="M9.7,132.6c-1.2,0.2-2,0.5-2,1c0,0.2,1,0.5,2.2,0.2c1.2-0.2,2-0.5,2-1C11.9,132.6,10.9,132.4,9.7,132.6"/>
				<path d="M5.7,132.1c-1,0.2-2,0.5-2,0.7c0,0.2,1,0.5,2,0.2c1-0.2,2-0.5,2-0.7C7.7,131.9,6.7,131.9,5.7,132.1"/>
				<path d="M5,131.9c1-0.2,2-0.5,2-0.7c0-0.2-1-0.5-2-0.2s-2,0.5-2,0.7C3,131.9,3.8,132.1,5,131.9"/>
				<path d="M4.7,130.7c1-0.2,1.7-0.5,1.7-0.7s-1-0.5-2-0.2c-1,0.2-1.7,0.5-1.7,0.7C3,130.7,3.8,130.7,4.7,130.7"/>
				<path d="M61.5,124c-3.4,0.2-11.1-0.2-12,1.5c-1,1.7,3.2,2.5,9.6,2c6.6-0.5,15.7-1.2,16.2-3.2c0.5-2-1.7-1.7-2-2.9
					s2.2-1.2,2.9-3.2c0.5-2-3.4-1.7-6.9-1.7c-3.4,0-9.3,0.2-9.8,2.2c-0.5,1.7,2.7,1.7,4.9,2.2c2.2,0.5,1.7,1.2,1.7,1.2
					C65.9,123.3,64.9,123.8,61.5,124"/>
				<path d="M52.4,127.7c-1.7,0-2.9,0.5-2.9,1s1.2,1,2.9,1c1.7,0,2.9-0.5,2.9-1C55.4,128.2,54.1,127.7,52.4,127.7"/>
				<path d="M60,127.7c-1,0-2,0.5-2,1s1,1,2,1c1,0,2-0.5,2-1C62,128.2,61,127.7,60,127.7"/>
				<path d="M66.2,127.2c-1.2,0-2.2,0.2-2.2,0.7s1,0.7,2.2,0.7s2.2-0.2,2.2-0.7C68.4,127.5,67.4,127.2,66.2,127.2"/>
				<path d="M70.8,126.5c-1,0-1.5,0.2-1.5,0.7c0,0.5,0.7,0.7,1.5,0.7c1,0,1.5-0.2,1.5-0.7C72.3,126.7,71.8,126.5,70.8,126.5"/>
				<path d="M75,125.5c-1,0-1.5,0.2-1.5,0.7c0,0.5,0.7,0.7,1.5,0.7c1,0,1.5-0.2,1.5-0.7C76.5,126,75.8,125.5,75,125.5"/>
			</g>
		</g>
	</g>
</g>
</svg>
