<svg id="Layer_1" data-name="Layer 1" xmlns="http://www.w3.org/2000/svg" viewBox="0 0 1148.65002 1238.51575"><defs><style>.cls-1{fill:#033;}</style></defs><title>in-toto-stacked-black</title><path d="M59.41629,962.201a28.42557,28.42557,0,1,1-.34034,0Q59.24613,962.2,59.41629,962.201Zm-21.71761,83.97443H81.13389v171.57043H37.69868Z"/><path d="M286.369,1106.623v111.1228H242.93324V1117.48242c0-24.61353-15.20222-35.1106-34.02438-35.1106-22.44159,0-34.02438,22.07983-34.02438,22.07983v113.29419H131.44876V1046.17541h40.53977v24.97583s15.20272-29.31873,51.39855-29.31873C256.688,1041.83251,286.369,1065.35937,286.369,1106.623Z"/><path d="M320.0311,1107.70983h96.644v41.2627h-96.644Z"/><path d="M436.583,1046.17541h33.66214V995.13915h43.4357v51.03638h51.76031v39.09229H513.68085v69.13452c0,20.99414,10.85882,27.14721,22.44159,27.14721,9.77307,0,18.09814-6.15307,18.09814-6.15307l15.9267,35.4718s-16.289,11.22156-41.26428,11.22156c-33.30039,0-58.63794-24.25232-58.63794-60.80994v-76.01208H436.583Z"/><path d="M772.48236,1131.96118c0,50.31286-40.54028,90.12866-91.5766,90.12866s-91.5766-39.8158-91.5766-90.12866c0-50.67505,40.54029-90.12867,91.5766-90.12867S772.48236,1081.286,772.48236,1131.96118Zm-44.15973,0c0-26.786-18.09814-49.58936-47.41687-49.58936s-47.41687,22.80334-47.41687,49.58936c0,26.785,18.09815,49.58837,47.41687,49.58837S728.32263,1158.74621,728.32263,1131.96118Z"/><path d="M790.58356,1046.17541h33.66266V995.13915H867.6814v51.03638h51.7608v39.09229H867.68146v69.13452c0,20.99414,10.85827,27.14721,22.4411,27.14721,9.77356,0,18.09814-6.15307,18.09814-6.15307l15.9267,35.4718s-16.288,11.22156-41.26373,11.22156c-33.30042,0-58.63745-24.25232-58.63745-60.80994v-76.01208H790.58356Z"/><path d="M1126.48242,1131.96118c0,50.31286-40.54028,90.12866-91.57654,90.12866s-91.5766-39.8158-91.5766-90.12866c0-50.67505,40.54029-90.12867,91.5766-90.12867S1126.48242,1081.286,1126.48242,1131.96118Zm-44.15967,0c0-26.786-18.09814-49.58936-47.41687-49.58936s-47.41687,22.80334-47.41687,49.58936c0,26.785,18.09815,49.58837,47.41687,49.58837S1082.32275,1158.74621,1082.32275,1131.96118Z"/><path class="cls-1" d="M986.13531,46.32848c-.90222-.38378-1.80389-.757-2.70556-1.1319.80206.38508,1.59344.78577,2.38812,1.18122Z"/><path d="M1119.14185,206.96326s-22.08973-64.3523-54.34778-98.88123c-23.34741-24.99109-48.85395-46.71472-78.97626-61.70422-.79468-.39551-1.58606-.79614-2.38812-1.18115-2.4895-1.19507-5.00373-2.35547-7.56842-3.44629C891.8092,6.00061,809.99438,11.1731,731.55957,58.84814a212.47246,212.47246,0,0,0-25.366,18.47425c-23.76336,19.80932-136.632,99.89526-117.74933,139.24145,9.2215,19.20868,60.45923,66.3877,81.7323,66.3172,21.75977-.07293,109.49347-81.095,134.87647-93.76959,51.91827-25.918,113.22388-26.251,149.01208,18.65674,37.00208,46.42993,31.08338,113.32342-13.92175,150.93335C878.65082,410.09485,819.04059,463.90045,755.08954,512.203c-24.60846,18.58649-48.9845,26.46888-71.99725,26.25074,49.59649-16.54718,45.80059-112.45582,15.55859-165.182-39.74994-69.30335-98.80829-112.414-177.22833-127.38886-78.91639-15.06982-150.11164,3.61847-212.40168,54.21894-53.59668,43.53137-109.51043,84.51422-159.70752,131.934-31.708,29.94983-61.69909,62.12964-82.01178,97.63122-36.22619,63.3285-52.28833,116.32184-29.14,191.80927,0,0,28.32605,69.56354,57.23016,98.88116,26.61341,26.98792,51.33673,51.56592,86.05048,66.33173,84.052,35.74963,165.867,30.57721,244.30164-17.09784a212.4642,212.4642,0,0,0,25.366-18.4743C474.87317,831.30786,587.74207,751.222,568.859,711.87573c-9.22119-19.20868-60.45892-66.38769-81.732-66.3172-21.75976.07294-109.49353,81.0951-134.87658,93.76953-51.91846,25.918-113.2237,26.2511-149.01221-18.65661-37.002-46.43-31.08319-113.32349,13.92194-150.93341C278.65265,518.3446,338.263,464.53894,402.214,416.23645c31.02808-23.43518,61.68671-29.85919,89.70807-24.46857h0c-44.11823,43.46149-54.20539,113.56379-22.9928,167.978,39.74506,69.30334,95.66089,109.05182,174.08093,124.02917l4.843.7956c74.1557,11.0498,141.30658-8.20539,200.42938-56.233,53.5968-43.53138,109.51056-84.51422,159.70752-131.934,31.708-29.94983,61.6991-62.12964,82.012-97.63123C1126.228,335.444,1142.29028,282.45062,1119.14185,206.96326Z"/></svg>