<svg id="Layer_1" data-name="Layer 1" xmlns="http://www.w3.org/2000/svg" xmlns:xlink="http://www.w3.org/1999/xlink" viewBox="0 0 432 423.47284"><defs><style>.cls-1,.cls-2{fill:#fff;}.cls-2,.cls-3,.cls-7{stroke:#cccccb;stroke-miterlimit:10;}.cls-3,.cls-5{fill:#cccccb;}.cls-4{fill:#cdcdcd;}.cls-6{fill:url(#linear-gradient);}.cls-7{fill:none;stroke-width:0.75px;}.cls-8{fill:url(#linear-gradient-2);}</style><linearGradient id="linear-gradient" x1="22.30801" y1="283.10652" x2="22.30801" y2="273.10541" gradientTransform="matrix(1, 0, 0, -1, 0, 424)" gradientUnits="userSpaceOnUse"><stop offset="0.31937" stop-color="#fff"/><stop offset="1" stop-color="#d1d3d4"/></linearGradient><linearGradient id="linear-gradient-2" x1="175.3089" y1="319.16166" x2="175.3089" y2="259.54764" xlink:href="#linear-gradient"/></defs><title>zee-white</title><g id="Layer_7" data-name="Layer 7"><path class="cls-1" d="M21.17682,125.83345,35.99688,114.603l4.93191-10.82854,3.776-21.27911,7.51658-20.20495,6.20094-28.7453S67.27764,7.76361,75.98069,6.75061s20.20416,6.56723,20.20416,6.56723l6.70208,21.69973,12.3054-2.95815L103.265,62.561,74.47215,119.62682,13.449,136.87863Z"/><path class="cls-1" d="M403.29572,198.56017c23.4486,93.33332-25.78193,133.22-25.78193,133.22l5.1579,1.44611c-7.08533-.42115-18.33838-1.44611-18.33838-1.44611s-22.29254-3.25958-26.66333-3.55334-5.84063,6.67-5.84063,6.67-.17444-.2287-.46875-.59973c-.07019-.13471-.14142-.26483-.21344-.39508.96539-4.29114,2.12921-9.55585,2.56091-11.879.52936-2.84839-.01495-3.67169-.84265-4.131a5.15765,5.15765,0,0,0-1.31043-.60059l-.01672-.00763-.004-.00018c-3.777-1.207-11.50934-.74054-15.17047-.74994-1.80933-.00458-5.29047-.21985-8.991-.49188-.18542-2.7027-.26947-4.815-.26947-4.815a106.53671,106.53671,0,0,1-13.45727,3.67657c-.89942-.13135-22.34131-3.25946-26.62024-3.54706a3.734,3.734,0,0,0-2.1933.52814c-2.13855.19745-3.54523.759-3.52307,4.34857-.47089-.05859-.92517-.12518-1.385-.18927a15.85592,15.85592,0,0,0-5.88861-5.62738c-1.14984-.89215-2.88727-.26532-4.67084.939a10.03475,10.03475,0,0,0-2.86322,1.81347,62.152,62.152,0,0,1-10.273-3.88708l-.129,6.86365c-.75586,4.902-1.346,11.60034-1.934,15.29089a21.25835,21.25835,0,0,1-.67377,2.81171c-.03717-.01264-.081-.0224-.11895-.03467l-.019-.00952-.01318.00012c-3.77973-1.20471-11.50177-.74091-15.16132-.75025-1.7002-.00433-4.87608-.19451-8.32336-.44317.85565-3.83069,1.75592-7.94989,2.124-9.93018.52942-2.84875-.01514-3.67181-.843-4.13116a5.15714,5.15714,0,0,0-1.32666-.608l-.00013-.00007h-.00012c-3.7771-1.20764-11.51251-.74078-15.17444-.75012-4.9884-.01269-22.67468-1.624-22.67468-1.624s-22.29254-3.25958-26.66333-3.55328a3.73554,3.73554,0,0,0-2.23578.55755c-1.5227.11249-2.72107.32294-3.37219,1.48352-.27148-.242-.71875-.65155-1.33679-1.25036,3.85846.10479.8565-13.99341.8565-13.99341-26.81445-40.98425-40.465-112.67737-40.465-112.67737-11.92243,5.307-11.45457,2.13322-11.45457,2.13322-2.38068,5.97626-10.96,8.66-10.96,8.66l5.38733,14.16247c6.14477,21.14527,18.50006,41.1847,26.13873,59.59581,1.1261,2.71418,2.15326,5.39423,3.03913,8.03583,1.77729,5.29968,10.87055,17.79572,18.20886,26.08447-3.06921-3.22625-6.53021-6.97021-7.77081-8.71173a31.51225,31.51225,0,0,0-4.61883-5.26684l.54022,7.72381c-.45838-5.25262-1.00537-9.97461-1.54492-10.91754l1.557,11.09052,1.03626,14.81549a17.86735,17.86735,0,0,0-1.60523-2.46533c-.46-.57172-.87115-.20844-1.2442.77819-1.1673,1.38269-1.40307,7.47388-2.47132,15.37885a53.88346,53.88346,0,0,1-4.00311,14.48846,83.298,83.298,0,0,1-4.85859,8.53351c-.454.62567-.91,1.22534-1.36578,1.78638-.49908-.04077-1.39734-.08966-.17554.21265-.24884.30194-.49749.59887-.745.88171-1.10425,1.262-3.27643,2.23712-5.93073,2.99377l-.01825-.38513-3.21363,1.1615a118.76237,118.76237,0,0,1-18.37952,1.80389s-.58985.0384-1.54815.16242c-.38367-.08307-.75855-.15472-1.11621-.20624-2.51393-.36212-5.7273,1.0332-8.65143,2.91675a14.24252,14.24252,0,0,0-6.03772,4.9071c-.40314.41645-.75977.81025-1.039,1.157-1.43946,1.78772-.5741,7.54956.437,12.17895-.28058-.19018-.434-.29968-.434-.29968l.79889,1.90173c.64532,2.72406,1.2456,4.74646,1.2456,4.74646s.3606.22083.999.59674l.422,1.0047s3.25959,1.57019,10.88575,4.96405l.00128.00055c2.1065.98462,4.32116,1.94214,6.51307,2.756.94867.35223,2.00836.66857,3.12877.96521l.34827.8291c.64539,2.724,1.24561,4.74633,1.24561,4.74633s.36053.22083.9989.59668l.42206,1.00476s3.25946,1.57013,10.88537,4.96381c2.107.98486,4.32227,1.94263,6.51471,2.75671,7.343,2.72651,20.12622,3.69129,33.80957,4.36969.66052.07013,1.32043.1402,2.007.21271,29.61036,3.1283,45.69367-3.77673,56.8335-6.13928a55.20653,55.20653,0,0,1,8.58984-1.07373c1.69922.03735,3.4657.15234,5.29419.37274,11.22431,1.35278,13.37744-.20044,15.671-1.31561h.00006a9.62811,9.62811,0,0,0,2.14972-.7558,9.149,9.149,0,0,1,1.21844-.15576c3.47077-.218,5.54206-4.813,6.5763-8.04883.61114.06482,1.218.12933,1.85125.19623a138.63472,138.63472,0,0,0,15.40619.79584c.35,1.32537.60047,2.17028.60047,2.17028s.36059.22083.999.59674l.42206,1.0047s3.25958,1.57013,10.88574,4.964l.00073.00031c2.10669.98468,4.3216,1.94232,6.51361,2.75622,7.343,2.72651,20.12622,3.69123,33.80964,4.36969.66052.07013,1.32037.1402,2.00689.21271,29.61029,3.1283,45.69367-3.77673,56.83344-6.13928a55.20653,55.20653,0,0,1,8.58984-1.07373c1.69922.03735,3.4657.15234,5.29419.37274,11.22437,1.35278,13.37744-.20044,15.671-1.31561a9.626,9.626,0,0,0,2.14966-.7558,9.14988,9.14988,0,0,1,1.21857-.15576c5.38037-.338,7.40148-11.19946,7.40148-11.19946.06-.252.07782-.32819.05646-.27582.17829-.90619.76172-4.18579,1.35718-10.99158a52.29,52.29,0,0,0-.30048-8.87769A105.43835,105.43835,0,0,0,400.6033,358.323c-.11511-.61316-.19824-1.04328-.24048-1.25934.33014-1.439,3.246-14.1687,3.98957-18.17017.52942-2.84875-.01514-3.67187-.843-4.13116a5.15718,5.15718,0,0,0-1.311-.60077l-.01574-.0072-.004-.00025c-3.77692-1.20715-11.50934-.74054-15.17059-.74987-.50769-.00129-1.15216-.0199-1.89087-.05091,12.24267-1.94854,19.6961.477,19.6961.477.28839-8.732,5.82721-42.60345,5.82721-42.60345C423.07654,239.04747,403.29572,198.56017,403.29572,198.56017Z"/><path class="cls-2" d="M310.06992,418.7226c-5.866-.21418-11.731-.46-17.57615-1.0178-10.143-.96792-20.24014-2.18161-29.82382-5.9577a40.19319,40.19319,0,0,1-5.87756-2.93671,18.53351,18.53351,0,0,0-3.30205-1.671,7.29064,7.29064,0,0,1-4.70007-5.03964,60.78516,60.78516,0,0,1-2.289-10.99911c-.57526-4.75827,1.44961-8.37586,5.32566-11.02179a28.40047,28.40047,0,0,1,11.12784-4.14093c4.10285-.75717,8.28138-.50507,12.4101-.94162,4.92477-.52069,9.83819-1.05957,14.57013-2.64109a10.242,10.242,0,0,0,4.99249-3.52273,49.50452,49.50452,0,0,0,9.62335-22.15842c.66165-3.69919.94708-7.44851,1.41751-11.17331.05869-.46457.06781-.93542.10218-1.436-4.27744.64773-8.44559,1.32443-12.62729,1.90375a191.1967,191.1967,0,0,1-39.797,1.76168,68.501,68.501,0,0,1-17.19312-3.12622c-.05177.24747-.18356.48041-.11807.62244,1.53722,3.33331.3196,6.59845-.30047,9.84738a59.35564,59.35564,0,0,1-1.90711,7.65717,19.79945,19.79945,0,0,0-.29353,10.47815,102.05114,102.05114,0,0,1,2.32374,24.63565,35.27329,35.27329,0,0,1-2.93046,13.60693c-3.24483,6.93347-8.86955,10.2067-16.38194,10.49625-4.16787.16061-8.28586-.54059-12.43-.79355a51.35865,51.35865,0,0,0-21.49586,3.11276c-7.321,2.747-15.01286,3.7027-22.78142,4.041-8.94485.38943-17.88513.18847-26.8241-.28772-6.425-.34229-12.8341-.83667-19.20173-1.7591-8.4724-1.22735-16.85682-2.80987-24.48375-6.99231a53.54412,53.54412,0,0,0-5.52093-2.84872A6.10784,6.10784,0,0,1,80.609,402.688a47.31649,47.31649,0,0,1-2.701-12.96527c-.30051-4.088,1.6531-7.23209,4.8701-9.613,3.27972-2.42728,7.083-3.58273,11.0167-4.408,3.89847-.8179,7.87776-.57959,11.81019-.95151,5.44665-.5151,10.88949-1.022,16.1033-2.856a9.81241,9.81241,0,0,0,4.59208-3.29074,48.32485,48.32485,0,0,0,9.75406-22.72657c.78116-4.92642,1.28937-9.8959,1.93916-14.84353a8.26861,8.26861,0,0,1,.75089-2.63825c.27484-.5505.67889-1.16525,1.29516-1.11938,1.21082.09009.96788-.56848.884-1.2941-.31649-2.73755-.60094-5.47888-.89115-8.21942a1.41736,1.41736,0,0,0-.6468-1.16883,80.455,80.455,0,0,1-20.93876-21.52563c-5.53514-8.09943-9.6903-16.95306-13.81558-25.80673-10.38868-22.29608-19.48784-45.12931-28.14631-68.1417-.363-.96467-.64886-1.23913-1.72525-.87223a64.32421,64.32421,0,0,1-20.808,3.48529c-7.08737.00506-14.03766-.90789-20.39573-4.34261A33.42877,33.42877,0,0,1,17.74182,181.159a43.24929,43.24929,0,0,0-9.414-15.12493,16.14971,16.14971,0,0,1-4.45669-8.69555c-.03081-.1791.13349-.5123-.27109-.51165v-6a5.42854,5.42854,0,0,0,.50967-2.19845,49.28951,49.28951,0,0,1,9.6004-20.70441,9.18066,9.18066,0,0,1,6.429-3.68853c-.43143.83172-.23263,1.39381.70208,1.64108-.19559.40735-.63073.29386-.93743.36393A7.85283,7.85283,0,0,0,15.26805,129.21c-5.27678,6.88246-8.82893,14.50243-9.57845,23.22118A14.87806,14.87806,0,0,0,9.91486,164.7973a43.13011,43.13011,0,0,1,9.48809,15.078c5.02665,13.09152,14.6976,20.15818,28.565,21.567a63.16864,63.16864,0,0,0,26.98533-3.35167c3.81852-1.29871,7.40888-2.96538,10.00729-6.23223,3.66224-4.60434,4.91977-9.95167,4.71988-15.69213a10.90764,10.90764,0,0,0-2.448-6.96154,10.14338,10.14338,0,0,1-2.29351-6.79548A51.98587,51.98587,0,0,0,83.29728,147.952a2.57919,2.57919,0,0,0,2.03482.02869,46.529,46.529,0,0,1,1.58136,13.63641,10.55886,10.55886,0,0,0,2.42059,7.08444,8.75082,8.75082,0,0,1,1.79946,3.60381A24.38333,24.38333,0,0,1,91.57,180.169a28.03088,28.03088,0,0,1-2.15813,8.36148c.29617.23276.52788.11625.75932.08064a105.12187,105.12187,0,0,0,13.278-3.08974,340.3191,340.3191,0,0,0,32.66542-11.57066c.63852-.258,1.25128-.81134,1.72248.42262.44061,1.15393-.28156,1.17861-.91558,1.42557-3.89633,1.51778-7.76907,3.10065-11.69735,4.53091-11.95684,4.3534-23.92216,8.69512-36.60914,10.5047a1.206,1.206,0,0,0-.89477.67533,18.636,18.636,0,0,1-8.875,7.20877c-.81869.32565-.93771.62775-.62431,1.455,8.117,21.4247,16.5884,42.70393,26.07261,63.56676a248.60351,248.60351,0,0,0,13.32971,26.33032,82.46724,82.46724,0,0,0,20.91886,23.48508c.25979.1954.50352.64135.90182.40048.38689-.23392.12615-.65717.09552-.99048-.61012-6.64127-1.25221-13.27972-1.55665-19.94522-.03391-.74271-.03108-1.46637.88055-1.52942,1.0125-.07,1.05492.73691,1.09989,1.492.15905,2.671.2926,5.34455.5122,8.01084.65879,7.999,1.40711,15.99057,2.362,23.95947.28015,2.338-.01479,4.861,1.776,6.88278a19.92553,19.92553,0,0,1,3.82812-4.39315c3.8098-3.20743,8.12064-3.05475,11.73119.37988a25.62413,25.62413,0,0,1,3.01839,3.5636c.60452-2.34629,2.3074-2.96811,4.29109-3.14026a24.24754,24.24754,0,0,1,4.78941.00476c10.35983,1.15585,20.64967,2.836,30.98782,4.152,4.07462.51864,8.13976,1.22351,12.28132,1.02319a80.38983,80.38983,0,0,1,18.26942.80682c.79533.14383.63127-.34851.66356-.74325.20174-2.4668.42982-4.93219.58148-7.40216a149.19828,149.19828,0,0,0,.02782-22.02738c-.061-.706-.10184-1.46045.84961-1.54825,1.01942-.094,1.0997.68824,1.168,1.44266.28482,3.14447.37412,6.30066.36962,9.452a177.16952,177.16952,0,0,1-.81565,17.70675c-.1083,1.0636.14188,1.5355,1.19617,1.85975a68.417,68.417,0,0,0,13.98544,2.5964c13.0358,1.185,26.01309.35556,38.96347-1.25986,5.07126-.63259,10.103-1.5195,15.158-2.25329.55838-.081.49768-.36115.56336-.6886a6.13274,6.13274,0,0,1,.98565-2.916,2.02143,2.02143,0,0,0,.3411-1.9671,58.27527,58.27527,0,0,1-1.384-15.6998c.05542-.73791.28173-1.30749,1.09176-1.25332.73914.04944.93741.60806.8888,1.30264a54.89627,54.89627,0,0,0,.93847,13.11447c.35367,2.06992.658,4.11728,2.26593,5.74915a8.271,8.271,0,0,1,1.77994,4.24035c2.41312-3.09005,4.76856-6.00546,8.83041-6.31115,4.2406-.31919,6.70722,2.5809,9.18656,5.53256.08978-.39688.163-.66287.20907-.93353a3.73677,3.73677,0,0,1,3.38071-3.49585,19.37729,19.37729,0,0,1,4.777-.2103c9.7821.94769,19.47064,2.601,29.21255,3.8504,5.85569.751,11.6854,1.61823,17.64173,1.33869a65.11424,65.11424,0,0,1,15.17416.76663c.87662.1655,1.07007.11273,1.19824-.83655q2.58-19.11081,5.87491-38.113c.15949-.92489.66257-1.909-.15872-2.84448a.67665.67665,0,0,1,.26514-.91949l.03564-.01834c.70212-.29532.65979-.92569.78021-1.47443.17942-.81787.2771-1.65344.44748-2.4736a143.92089,143.92089,0,0,0,3.17249-31.28879,171.719,171.719,0,0,0-3.79151-32.66293A159.53334,159.53334,0,0,0,394.728,181.22238c-9.4556-17.82477-23.38971-30.85023-42.17609-38.47735a67.9598,67.9598,0,0,0-22.28311-5.13823c.08124-.68991.42847-1.36925.08264-2.07618a74.98317,74.98317,0,0,1,22.31091,5.092c18.81269,7.47006,32.9668,20.24213,42.82145,37.8287a65.1653,65.1653,0,0,0,4.74545,6.87462,133.916,133.916,0,0,1,24.14285,54.17658,122.23274,122.23274,0,0,1-.7236,51.36442,14.91627,14.91627,0,0,0,.84,8.57511,16.78637,16.78637,0,0,1,1.3118,5.07263c.14185,3.44968-1.59832,5.34427-5.03894,5.41614-.51285.01068-.78863-.02851-.70434.66693a4.0448,4.0448,0,0,1-2.534,4.635,20.163,20.163,0,0,1-7.6777,1.62924c-2.43634.18524-2.43534.14859-2.779,2.58368q-1.02092,7.23359-2.05228,14.46567a4.99584,4.99584,0,0,0,.254,2.65814c.71356,1.84735.26635,3.79333-.0448,5.68387a85.74686,85.74686,0,0,1-2.65357,11.17056,19.35579,19.35579,0,0,0-.258,9.7728,106.32705,106.32705,0,0,1,2.44888,23.30313c-.12268,5.62408-.81131,11.14563-3.46668,16.23663-3.02624,5.802-7.92,8.77548-14.32934,9.45361-4.21344.4458-8.36755-.36-12.54611-.61187-7.31967-.44126-14.52378-.1294-21.48011,2.52856-8.22753,3.14359-16.83245,4.25955-25.57031,4.60413a23.64908,23.64908,0,0,0-4.32809.1961h-7.92A27.91189,27.91189,0,0,0,310.06992,418.7226ZM140.91727,354.62643a29.44653,29.44653,0,0,0,3.82333-1.42761c-2.79709-.94391-3.278-.78-3.99362,1.27213l.01492.28592Zm166.15948,16.22379-.15069.12433.13168.09851-.009-.21469c-1.09931-1.56244-2.23313-3.10214-3.28324-4.697-.521-.79123-.89987-.88431-1.52975-.12067-.337.4086-.41434.668-.1218,1.1265.448.702.8107,1.45855,1.20749,2.19308A3.84365,3.84365,0,0,0,307.07675,370.85022Zm95.06781-179.363c-.12829-.08383-.1221-.43493-.34677-.26576-.14758.11108-.0155.33566.152.453.07086.22553.12564.45765.2149.67562a177.87109,177.87109,0,0,1,6.71784,19.644c.5079,1.82024.96173,3.65552,1.46426,5.57521a22.37349,22.37349,0,0,0,3.488-3.14547,1.06579,1.06579,0,0,0,.2055-1.2849A132.82282,132.82282,0,0,0,402.14456,191.48721ZM132.06937,364.25815a5.95365,5.95365,0,0,0,1.70309-1.65051,38.37746,38.37746,0,0,0,5.75839-10.54676c1.9836-5.11554,3.49022-10.34759,3.50043-15.899a8.83328,8.83328,0,0,0-2.535-6.82081c-.13958.47635-.26676.83707-.35044,1.20762a69.772,69.772,0,0,0-1.17089,8.772c-.831,8.69275-2.73545,17.06494-7.135,24.72275l-.25021.32284a.32328.32328,0,0,0,.47963-.10815Zm36.5238-4.25931a53.74224,53.74224,0,0,1-.60107,7.87277c-1.74936,10.2099-7.09172,17.6962-16.63846,22.01483a53.83513,53.83513,0,0,1-14.06771,3.67682c-9.2313,1.45008-18.46131,2.89359-27.77783,3.6767a37.09521,37.09521,0,0,1-6.46283.13388c-.68994-.06247-1.04564-.43988-.98842-1.09051a.94676.94676,0,0,1,.99616-.89457q.04473.00243.0891.009c3.04141.10135,5.29364-1.58512,7.39193-3.43,1.93012-1.69711,2.03081-3.35742.61972-5.53213a24.09487,24.09487,0,0,0-8.98436-7.906,9.168,9.168,0,0,0-6.416-1.16357c-4.10275.79709-8.11769,1.77154-11.58873,4.229-2.85491,2.02118-4.58793,4.72895-4.25123,8.33261a49.126,49.126,0,0,0,2.50477,11.913A4.64112,4.64112,0,0,0,85.25,404.73987a30.60052,30.60052,0,0,1,4.679,2.38461,40.14324,40.14324,0,0,0,8.298,3.65738,111.89959,111.89959,0,0,0,24.33154,4.46082,276.65628,276.65628,0,0,0,37.70325,1.05307,73.492,73.492,0,0,0,22.96655-4.257,51.51486,51.51486,0,0,1,21.54883-2.87738c3.90641.22387,7.7837.85052,11.70623.81848,7.31231-.05972,12.661-3.69171,15.394-10.47043A37.30923,37.30923,0,0,0,234.2292,386.143c.1632-7.99283-1.04474-15.8462-2.53468-23.66294-.50459-2.64734-.9353-5.26672-.08366-7.92608.32791-1.0239.55606-2.08057.81059-3.127,1.01706-4.18118,2.33481-8.302,2.57747-12.64032.11883-2.125.00465-2.28729-2.08211-2.67953a72.30879,72.30879,0,0,0-14.08881-.79248,70.39634,70.39634,0,0,1-7.9068-.00037c-11.0045-1.13907-21.91644-2.98129-32.89088-4.34753-3.35938-.41825-6.70718-1.11744-10.12778-.72736-2.46121.2807-3.18512,1.11588-2.9637,3.61758a52.72543,52.72543,0,0,0,1.04422,6.95368,87.95338,87.95338,0,0,1,2.61009,19.1882Zm168.52719-.8118a47.28832,47.28832,0,0,1-.64661,9.30176c-1.69909,9.57111-6.61135,16.80728-15.44372,21.1821A49.24966,49.24966,0,0,1,306.4769,393.792c-8.839,1.37311-17.67142,2.776-26.57956,3.62577a55.60715,55.60715,0,0,1-8.13312.34124c-.70547-.03613-1.17758-.34366-1.14407-1.08371.035-.77362.60354-.97442,1.27221-.92755a3.00372,3.00372,0,0,0,1.30146-.00867,15.75877,15.75877,0,0,0,6.11581-3.646,3.64135,3.64135,0,0,0,.53333-5.08966,23.75851,23.75851,0,0,0-11.85157-9.30313,3.1793,3.1793,0,0,0-1.40274-.24207,31.98356,31.98356,0,0,0-12.03779,3.31659c-3.95183,2.1312-7.10066,5.45322-5.902,11.48065a73.19891,73.19891,0,0,0,2.13076,9.448,5.35666,5.35666,0,0,0,3.32194,3.52036,14.80467,14.80467,0,0,1,2.69779,1.27569c6.151,3.8888,12.9981,5.79755,20.053,7.12357A187.74537,187.74537,0,0,0,301.597,416.348a264.64138,264.64138,0,0,0,27.43338.26779c7.24451-.36535,14.44834-1.15237,21.25736-3.76831,8.448-3.2456,17.11862-3.94455,26.02737-3.13134a80.52708,80.52708,0,0,0,8.4856.59521c8.00235-.11511,13.4545-4.04565,16.04706-11.59354A37.3664,37.3664,0,0,0,402.71,388.14108a99.79489,99.79489,0,0,0-2.31384-24.27993,22.31675,22.31675,0,0,1,.26858-11.08478,72.68133,72.68133,0,0,0,2.87964-13.072c.26834-2.588.00611-2.9404-2.55728-3.36011a80.54966,80.54966,0,0,0-14.94611-.67133,55.474,55.474,0,0,1-7.53442-.09976c-10.954-1.235-21.83624-3.005-32.77078-4.3837a42.53336,42.53336,0,0,0-9.5419-.60577c-1.91934.18961-2.46515.668-2.62433,2.55417a22.13992,22.13992,0,0,0,.641,6.41177C335.56946,346.03787,336.99612,352.513,337.12036,359.187Zm-190.04321-5.699c-.20377.0643-.509.14434-.80219.25579-1.82351.69327-3.63627,1.416-5.47058,2.07914a2.058,2.058,0,0,0-1.22654,1.17868,32.32211,32.32211,0,0,1-3.89411,6.43448.88127.88127,0,0,0-.07356,1.24411q.02863.03222.06032.06155c1.23417,1.66788,2.46112,3.34634,3.58256,5.09036a3.697,3.697,0,0,0,2.562,1.8837,31.44024,31.44024,0,0,1,3.78139,1.11133c5.05188,1.62784,10.09144,3.30475,14.54058,6.30011.81166.54645,1.12737.45025,1.61606-.30658a31.05251,31.05251,0,0,0,4.37064-11.80591,3.67128,3.67128,0,0,0-.77934-3.06778,25.57857,25.57857,0,0,0-11.28582-8.39609A35.80874,35.80874,0,0,0,147.07715,353.488Zm187.74249,12.6054c-.02185-.94467-.83273-1.67614-1.45621-2.46417-3.91256-4.94531-9.27057-7.52615-15.16809-9.2467a6.47665,6.47665,0,0,0-4.947.27191,38.34855,38.34855,0,0,1-4.0039,1.57178,1.62909,1.62909,0,0,0-1.03635.89236,32.74861,32.74861,0,0,1-4.04691,6.75635.76137.76137,0,0,0-.04092,1.076q.02211.02385.04614.04571a40.69811,40.69811,0,0,1,3.03,4.30533,6.426,6.426,0,0,0,4.31293,3.11914c6.17242,1.7609,12.312,3.67636,17.6759,7.393.48084.33319.60263.03161.81153-.269a29.75407,29.75407,0,0,0,4.82287-13.45179ZM166.36906,355.35934c-.06431-.72665-.10765-1.30334-.16746-1.87829-.513-4.932-1.67868-9.7457-2.63811-14.59723-.27058-1.36835-.16879-2.89078-.745-4.101a17.09264,17.09264,0,0,0-4.64733-6.02741c-2.63206-2.12588-5.26657-2.16192-7.9839-.11728a19.157,19.157,0,0,0-4.73785,5.66239,2.91553,2.91553,0,0,0-.45233,1.693,32.05909,32.05909,0,0,1-.81092,7.72913c-.1792.88491-.37034,1.76736-.556,2.651.89682.17782,1.79431.35232,2.69034.53405C153.50764,348.365,160.54761,350.17624,166.36906,355.35934Zm245.40572-64.58416c.34113-.07947.52115-.12647.70331-.163,2.68783-.539,5.39572-.86679,7.99832.25568.91183.39322,1.07675.24539,1.27884-.64746a121.893,121.893,0,0,0,2.77835-19.51383,96.41312,96.41312,0,0,0,.15811-10.88742c-.03357-.64462-.17551-.83374-.82809-.67627a48.17507,48.17507,0,0,1-6.76139.83979c-1.6672.15982-1.65414.12671-1.69909,1.77676a138.25291,138.25291,0,0,1-2.2768,21.63971c-.45077,2.41443-.88589,4.83191-1.35156,7.376ZM322.531,329.58975a3.42874,3.42874,0,0,0-.86841.106,12.55457,12.55457,0,0,0-7.96723,8.32919c-.844,2.53134-.76129,5.41754-1.45044,8.08759-.06225.24133-.24487.64908.15778.69656,1.057.1247,2.11694.67288,3.16052.38062,5.524-1.54706,11.042-3.1127,16.643-4.36481.27972-.06256.58673-.07068.50146-.48627a23.57368,23.57368,0,0,0-1.04825-4.76162,17.592,17.592,0,0,0-4.43219-6.03489A6.63732,6.63732,0,0,0,322.531,329.58975ZM120.505,377.21243a5.99088,5.99088,0,0,1-.00725.95746,2.543,2.543,0,0,0,2.13348,3.21057,6.51015,6.51015,0,0,1,1.19683.541c4.803,2.39148,9.53846,4.882,12.90526,9.26663a.82908.82908,0,0,0,.93756.29831c1.14127-.188,2.27547-.46832,3.42392-.54907,1.0656-.075,1.08731-.53827.8875-1.39835a71.59929,71.59929,0,0,0-4.19859-12.058,1.99745,1.99745,0,0,0-1.43468-1.24756c-3.64546-1.03391-7.32094-1.94376-11.04641-2.63111a3.79366,3.79366,0,0,0-2.3311-.06988C120.49283,374.55237,120.47336,374.505,120.505,377.21243Zm185.69434,14.61573q1.5352-.25512,3.07034-.5105c1.54013-.25782,1.54154-.25885,1.19446-1.71741a69.86024,69.86024,0,0,0-4.274-12.04553,1.46063,1.46063,0,0,0-1.02375-.882c-3.94388-1.17038-7.94784-2.08072-11.98172-2.87735-1.50311-.29688-2.6766.61392-4.00345.95471-.4107.10547-.21066.55472-.20666.83866.01855,1.31784.12652,2.636.10174,3.95224a1.65141,1.65141,0,0,0,1.298,1.80706,18.70032,18.70032,0,0,1,2.2745,1.05377c4.70163,2.33481,9.303,4.814,12.6009,9.08942a.94053.94053,0,0,0,.94964.33688Zm-2.87866.43344a22.45421,22.45421,0,0,0-5.52234-4.70838c-7.57974-4.80685-16.00113-7.642-24.46948-10.35528a4.64518,4.64518,0,0,0-1.29859.05041c.77158.47867,1.28336.78372,1.78263,1.108a24.70242,24.70242,0,0,1,7.67392,7.45578,5.70318,5.70318,0,0,1-.8711,7.80042c-.60635.60562-1.276,1.14792-2.143,1.92126,8.44766-.74163,16.55182-1.959,24.848-3.27224Zm-168.74594-.29431.30856-.45286c-.56934-.43728-1.17122-.8385-1.70242-1.318a38.13675,38.13675,0,0,0-7.92716-5.31631,120.166,120.166,0,0,0-20.30943-7.96064,2.88151,2.88151,0,0,0-1.38132.04676c.62575.38305,1.06511.64132,1.49389.91614a24.3285,24.3285,0,0,1,8.11321,7.98822,5.67015,5.67015,0,0,1-.49405,6.79,17.101,17.101,0,0,1-2.87558,2.55063c8.51256-.74353,16.64826-1.95663,24.77433-3.24395Zm280.467-144.569c2.5643-1.45155,4.94186-2.82612,7.35217-4.14062.569-.3103.55087-.705.45957-1.18733-.77164-4.07591-1.65284-8.12572-2.79944-12.1162-.16263-.56593-.28946-.69743-.871-.45895a41.95709,41.95709,0,0,1-5.32714,1.76608c-.44019.11493-.729.23906-.62894.8785.78226,4.99972,1.41537,10.01956,1.81485,15.25852ZM155.668,385.08356a60.49357,60.49357,0,0,0-16.80153-8.02915,2.18734,2.18734,0,0,0,.04886.38019,62.58053,62.58053,0,0,1,4.15877,12.43021c.11148.58651.45538.56247.875.45364A33.74468,33.74468,0,0,0,155.668,385.08356Zm151.57638-7.757a66.71533,66.71533,0,0,1,4.44944,13.04016c.07.33771.1868.43121.56387.33664a34.00707,34.00707,0,0,0,11.93533-5.279C319.03418,381.70428,313.34381,379.34659,307.24438,377.32657ZM300.47,364.50919a6.7463,6.7463,0,0,0,2.401-2.24906,41.562,41.562,0,0,0,5.40885-10.35959c1.98767-5.3367,3.53451-10.77563,3.24331-16.5654a8.23291,8.23291,0,0,0-2.48321-5.66427c-.166.5881-.31919,1.02627-.412,1.47684-.61411,2.97894-.84808,6.0093-1.17658,9.02539a69.06241,69.06241,0,0,1-3.13052,15.44781A74.6508,74.6508,0,0,1,300.47,364.50919Zm-5.79291,7.53732c3.0102.61,5.77066,1.22613,8.49723,1.98163,7.28125,2.01767,14.3435,4.56128,20.72064,8.723,2.2789,1.4873,2.24521,1.48666,3.98758-.54941.41681-.48706.32647-.65668-.13849-.978a33.16579,33.16579,0,0,0-6.34265-3.3125,146.84557,146.84557,0,0,0-24.04816-7.039c-1.1886-.26434-1.71838.49247-2.67618,1.17429Zm-168.34292-.36835c2.68306.64581,5.21182,1.1983,7.70971,1.86624,7.49666,2.00452,14.75983,4.58722,21.30324,8.882,2.24393,1.47281,2.22083,1.47263,4.00279-.55365.39666-.45108.33609-.65777-.12591-.97278a29.53359,29.53359,0,0,0-4.5965-2.54544c-8.15989-3.65033-16.78477-5.76089-25.45436-7.74695a2.63271,2.63271,0,0,0-2.839,1.07059Zm208.5924-9.37353c.76841-2.39374-.28134-4.01062-1.808-5.45792a19.48623,19.48623,0,0,0-4.50516-3.13016,52.29229,52.29229,0,0,0-15.4707-4.74258c-1.64294-.28027-1.58682-.27255-2.13751,1.25867-.27957.77716-.11109.92935.65722.99023a39.9446,39.9446,0,0,1,9.67731,2.05978,28.892,28.892,0,0,1,13.58682,9.022Zm-168.51678-.33069c.67256-2.26859-.19649-3.928-1.76945-5.38248a18.63818,18.63818,0,0,0-3.2325-2.46042c-5.5369-3.23245-11.65082-4.655-17.89516-5.6614a.55261.55261,0,0,0-.68484.27792c-.90589,1.53958-.7,2.00217,1.02377,2.2.15854.01819.31973.01563.47742.03854,8.55035,1.23957,16.29631,4.09864,22.08071,10.9878Zm168.46-6.26184a71.41034,71.41034,0,0,0-1.09323-8.36335c-.06363-.40771-.31735-.463-.69-.45208a60.88363,60.88363,0,0,0-9.85724,2.41357c4.238,1.44177,8.24081,3.15677,11.64041,6.40186Zm-17.36651-7.97776c1.18039.31226,2.14245.56022,3.1004.82309a2.11851,2.11851,0,0,0,1.28381-.04736,63.81137,63.81137,0,0,1,10.79022-2.55823c.807-.12448.78147-.54828.60523-1.073-.15833-.47135.055-1.29053-.986-1.04276-4.87851,1.16107-9.71662,2.47018-14.79374,3.89825ZM287.99512,380.265c0-1.30081.00247-2.49572-.00193-3.69064-.001-.27884-.01562-.55856-.0418-.83621-.02317-.245.1015-.65125-.36063-.55856a11.68894,11.68894,0,0,0-3.2081.80572c-.507.27133-.08734,1.33759-.18454,2.03543-.081.58151.17722.84973.69626,1.03574C285.90039,379.41693,286.88763,379.82974,287.99512,380.265Zm-168.51267-.33358c.0168-.2731.03573-.41754.03292-.56156-.01944-.99682-.01126-1.99554-.07319-2.9899-.102-1.63678-.12152-1.63559-1.75738-1.25207-2.16132.50668-2.271.67-2.00665,2.848.03568.294.06392.50437.403.62827C117.19156,379.00989,118.28565,379.46024,119.48245,379.93143Zm19.04178-9.31137c-1.2634-1.97824-2.59848-3.83747-3.961-5.60733-1.44044.68252-1.08729,1.48-.58482,2.67059a4.3906,4.3906,0,0,0,4.54581,2.93674Zm-23.80849,7.43725c0-.73288-.00541-1.28741.00213-1.84173.00423-.31-.02646-.54532-.44393-.47956-1.32463.20874-2.65174.40171-3.9779.60074l-.00386.18259Zm163.7669-1.33044c1.44326.51123,2.6502.88174,3.80835,1.36844.81192.34121.9418.141.97357-.68171.04028-1.04284-.15888-1.49761-1.32083-1.21621-1.03272.25015-2.10672.33038-3.46113.52951Zm-144.59946-7.11923c-.55885-1.02286-1.00258-1.83493-1.47615-2.70163l-2.26459,1.89215c1.32669.28717,2.42239.52423,3.74072.80954Zm168.57257.35824c-.46906-.844-.844-1.5003-1.19974-2.1669-.1626-.30472-.31048-.61346-.68017-.24148-.54642.54986-1.31247.86859-1.75226,1.59356Zm11.01236-16.48822c-3.97556-.62881-3.53867-.63553-4.10281,1.56976ZM300.50952,364.761c-.0639-.07386-.12167-.17368-.14853-.166a1.609,1.609,0,0,0-.29272.145c.04944.04913.10428.14334.14731.13818A1.17155,1.17155,0,0,0,300.50952,364.761Zm-160.884-50.58319-.07945-.14771c-.02415.02582-.07211.05679-.06785.07648a.71643.71643,0,0,0,.07017.15356Z"/><path class="cls-3" d="M83.04,5.38686a23.5497,23.5497,0,0,1,5.85591,1.8358,21.06587,21.06587,0,0,1,7.28894,6.09518c4.52642,6.08815,6.49488,13.06744,7.03418,20.52662.02959.40919.18872.94207-.3321,1.17311a1.23543,1.23543,0,0,1-1.16855.1524c-.55245-.26715-.40747-.697-.43948-1.10517a38.04566,38.04566,0,0,0-5.5293-17.86706A18.102,18.102,0,0,0,84.31541,7.74338,12.65442,12.65442,0,0,0,74.51,9.77689c-4.34994,2.72133-7.5612,6.59522-10.63071,10.60575-2.98665,3.90228-4.30384,8.51729-5.457,13.16249a181.22308,181.22308,0,0,0-4.1647,28.04422,4.71659,4.71659,0,0,0,.02572.55778c.45884-.11484.86572-.2385,1.28136-.314.347-.063.849-.21833,1.02593.05568.72016,1.11518,1.37633.752,1.92612-.063.27326-.405.55281-.25191.81172-.21206,5.7485.8849,9.27537,4.40438,11.05478,9.71743,2.41571,7.21293,1.24034,13.99209-3.104,20.17666a14.50455,14.50455,0,0,1-9.41881,6.1911,11.43543,11.43543,0,0,1-8.92212-1.99753,13.048,13.048,0,0,1-2.99129-2.9565,1.78713,1.78713,0,0,1-.38955-1.6986c.16157-.60053-.03766-1.18221-.79534-1.165-.57717.01308-.72863-.29108-.91415-.72654-3.71288-8.7149-.589-20.68431,7.642-25.65579a1.3444,1.3444,0,0,0,.73139-1.20855,201.48721,201.48721,0,0,1,3.21683-24.56815c1.07034-5.2389,2.14682-10.52276,4.79182-15.226A41.51478,41.51478,0,0,1,73.452,8.05122,20.21879,20.21879,0,0,1,80.64,5.38686ZM55.08735,79.101a6.2557,6.2557,0,1,0-.10491.00024Q55.0349,79.10157,55.08735,79.101ZM58.564,89.32949a2.33328,2.33328,0,1,0,2.3306-2.33874A2.285,2.285,0,0,0,58.56382,89.229Q58.5628,89.27926,58.564,89.32949Z"/><path class="cls-4" d="M310.06992,418.7226a27.91274,27.91274,0,0,1,5.05008.18426h-5.04A.38642.38642,0,0,1,310.06992,418.7226Z"/><path class="cls-4" d="M323.04,418.90686a23.64908,23.64908,0,0,1,4.32809-.19611q-.00252.09819-.00808.19611Z"/><path class="cls-3" d="M135.94775,34.73245l.80318.20342a1.16729,1.16729,0,0,1-.20181,1.8539c-.26987.06528-.54582.112-.80869.19855a61.01794,61.01794,0,0,0-17.40719,9.11c-11.88861,8.843-19.34018,20.4472-21.63987,35.1897a65.109,65.109,0,0,1-5.85189,19.201c-6.44278,12.92475-16.30989,22.53214-28.795,29.58527-.312.17628-.72319.252-.99047.80644,5.69664.21692,11.16879.80688,15.888,4.161-.25415.6299-1.26736.89887-.87347,1.8369a19.34011,19.34011,0,0,0-8.882-3.465c-1.76531-.17261-3.53624-.27317-5.29573-.4213-2.386-.2009-4.77827-.43634-7.166-.67407-1.803-.17952-3.61671-.26825-5.41254-.49932-2.83017-.36418-5.65319-.78958-8.472-1.23486a45.875,45.875,0,0,1-7.30981-1.569c-4.04991-1.34166-7.9422-3.26133-12.35573-3.18159a4.568,4.568,0,0,1,1.20036-.81119c.80983-.22634,1.28361-1.21109,2.27319-.971,3.3887.57332,6.489,2.06353,9.7388,3.07875a2.83808,2.83808,0,0,0,2.632-.40309c2.05509-1.29736,4.2701-2.33815,6.38253-3.5488,2.39408-1.37207,4.77767-2.76733,7.11116-4.23915,3.78224-2.38559,7.55563-4.78888,11.26244-7.28895a69.57278,69.57278,0,0,0,5.94287-4.626c3.28752-2.77881,5.09262-6.51623,6.95382-10.231A55.17549,55.17549,0,0,0,79.754,79.995c.43892-2.95519.51254-5.93747.98349-8.88127a32.97736,32.97736,0,0,1,2.17174-7.6034,48.1424,48.1424,0,0,1,6.26422-10.34674,68.25656,68.25656,0,0,1,6.62491-7.11538,104.7678,104.7678,0,0,1,16.93127-13.34562,2.704,2.704,0,0,1,2.46276-.64315c.14573.31173.59572.56415.40971.93333-.62183,1.2342.29129.98932.918.98125a66.3027,66.3027,0,0,1,15.06484,1.807,2.53509,2.53509,0,0,0,1.61813-.07546C134.098,35.33322,135.03088,35.0521,135.94775,34.73245Z"/><path class="cls-5" d="M145.22421,37.348l.66228.21737a1.24427,1.24427,0,0,1-.25908,1.87218c.3602.1295.61719.22545.8765.31459a50.03652,50.03652,0,0,1,8.57237,3.551c.8268.46933,1.56686,1.08807,2.62041.53072.449-.23751.79954.21366,1.16105.43862.19562.93492-.24682,1.38026-1.11722,1.64206-1.48561.44684-2.97239.91335-4.40936,1.4937-3.11409,1.25767-6.18478,2.62377-8.55258,5.125-1.89272,1.99941-1.97371,3.99879-.19968,6.08568.90335,1.06268,1.95031,2.00331,2.93253,2.99893a47.63827,47.63827,0,0,1,5.861,6.31844,4.0832,4.0832,0,0,1-.27048,5.57888,18.84907,18.84907,0,0,1-2.02745,2.0338c-2.52524,2.21649-4.5092,2.172-6.8797-.23826-1.45514-1.47956-2.753-3.1128-4.18865-4.61278-2.1289-2.22437-4.5086-3.96674-7.84338-3.62925A17.42146,17.42146,0,0,0,127.94,68.33822c-3.77978,1.38888-7.52949,2.87824-11.60133,3.21457a5.77284,5.77284,0,0,1-6.05644-8.059c1.12449-2.92707,4.66752-6.649,9.2981-6.25384a8.13165,8.13165,0,0,0,7.34131-3.00679,14.1881,14.1881,0,0,0,2.41692-4.77342,15.55344,15.55344,0,0,1,4.01413-6.42872,21.52441,21.52441,0,0,1,7.52059-4.55917Z"/><path class="cls-3" d="M302.94061,137.65979c4.63919-.731,9.281-1.43806,13.96616-1.82034a101.95076,101.95076,0,0,1,12.0524-.33048,33.36423,33.36423,0,0,0-1.78626,3.23784c-1.837,4.36907-3.7023,8.7273-3.56387,13.63521a74.18049,74.18049,0,0,0,1.92606,12.9929c.39678,1.91086.75665,3.834,1.01568,5.76728.18326,1.3677-.12149,1.5569-1.32767.9593a19.0065,19.0065,0,0,1-2.2547-1.34871c-3.16992-2.16322-6.04412-4.70779-9.06094-7.06881a15.34268,15.34268,0,0,1-5.26834-7.39286c-.77277-2.34436-1.34018-4.76625-2.25333-7.052a42.68019,42.68019,0,0,1-2.5791-9.17738C303.67374,139.22466,303.701,138.28818,302.94061,137.65979Z"/><path class="cls-4" d="M158.85773,44.27253c-.3615-.225-.71207-.67614-1.16106-.43863-1.05354.55735-1.79361-.06139-2.62041-.53072a50.03652,50.03652,0,0,0-8.57237-3.551c-.25932-.08914-.5163-.18509-.87649-.31459a1.24429,1.24429,0,0,0,.25907-1.87218,38.28382,38.28382,0,0,1,6.99219,2.39155,19.70641,19.70641,0,0,1,4.33924,2.265.868.868,0,0,0,1.33169-.14246,79.71069,79.71069,0,0,1,7.346-6.86108c5.62735-4.52741,11.50254-8.60485,18.72669-10.20172,5.66907-1.25311,10.67268.26891,15.08591,3.82807,5.66079,4.56531,8.62506,10.68832,9.49534,17.78376a27.41868,27.41868,0,0,1-.68924,9.97448,132.58532,132.58532,0,0,1-6.87262,19.47928c-3.7458,8.87222-8.06828,17.46979-12.43393,26.04587-1.03161,2.02656-2.1488,4.00956-3.22664,6.01259a1.11625,1.11625,0,0,0-1.49667-.12661c-.52992.42923-.37353.9693-.14111,1.49814.20425.4648.39895.93381.59782,1.401-.70109.06241-.75137.71892-1.05293,1.14847-.58746.83683-.73937,1.97618-1.74851,2.52008a4.14565,4.14565,0,0,1,.20156-.78815c.16964-.36125.47581-.74427-.0519-1.00048-.52264-.25373-.631.24055-.83.57576a14.80705,14.80705,0,0,0-1.08543,3.13449c-.792-.41351-.70188-.97308-.37523-1.59411a2.3948,2.3948,0,0,0,.51755-1.52963c.41465.00346.49949-.34814.6464-.61753,1.87215-3.43271,3.817-6.82855,5.59165-10.31109,3.4812-6.83161,6.97259-13.65864,10.13693-20.64827a173.76861,173.76861,0,0,0,9.10689-23.51265,27.25828,27.25828,0,0,0,1.05021-12.73751c-1.13583-5.951-3.73049-11.15111-8.53819-15.08268a15.74215,15.74215,0,0,0-14.19835-3.3451,33.79116,33.79116,0,0,0-10.8009,5.01443A74.04169,74.04169,0,0,0,159.579,43.90457.91469.91469,0,0,1,158.85773,44.27253Z"/><path class="cls-3" d="M243.42426,152.30154a122.57013,122.57013,0,0,0,18.93154-3.72093c.30188-.08006.61658-.11174.92533-.166-.08811,1.02533-.30829,2.03058-.32321,3.0716a58.97513,58.97513,0,0,0,.65829,7.62526,29.04931,29.04931,0,0,1,.37546,7.26742c-.275,2.036-1.02628,2.52649-3.02707,1.94837a16.38509,16.38509,0,0,1-5.5622-3.19918A73.58978,73.58978,0,0,1,243.42426,152.30154Z"/><path class="cls-5" d="M40.35357,103.05868c.08549-.22866-.18564-.67109.25111-.67446,2.96281-.02285,5.41519-1.63638,8.09226-2.5466a26.67,26.67,0,0,1,4.93645-1.49078,2.4584,2.4584,0,0,1,2.41064.92794c2.78161,3.27747,2.01683,6.30518-.61977,10.60828-1.14052,1.86142-3.15117,2.6604-5.14583,3.23351A41.37815,41.37815,0,0,1,39.296,114.36142c-1.10054.01421-2.19941.15747-3.29905.24161a4.84337,4.84337,0,0,0-1.167-1.22281c-.19586-.45745.26634-.49154.45244-.70326,1.00624-.19358,2.19464.26583,2.97384-.74374a20.086,20.086,0,0,0,3.28936-6.011c.27447-.83742.87588-1.7712-.61673-2.1477C40.69194,103.71474,40.5431,103.30605,40.35357,103.05868Z"/><path class="cls-5" d="M82.57415,40.19388c.71941-.33609,1.46328-1.425,2.2115-.22677.64884,1.03906-.47357,1.38551-1.058,1.896-1.63162,1.42518-3.59652,2.40025-5.1909,3.88463A6.57565,6.57565,0,0,0,76.80127,49.755c-.151.85419.25382,1.19676,1.01193,1.41227,2.99589.85167,4.02433,1.99027,4.20157,5.09239a7.30323,7.30323,0,0,1-3.75333,6.852c-2.46241,1.18464-4.65071.54063-6.6585-.92055a24.28458,24.28458,0,0,1-4.68773-4.64936,4.40136,4.40136,0,0,0-3.76551-1.75748c-.49405.01514-1.173.34094-1.42981-.44263a1.23441,1.23441,0,0,1,.67321-1.502c1.01288-.18309,2.16932.451,3.04641-.48155a37.38072,37.38072,0,0,1,9.47949-6.9886,3.21525,3.21525,0,0,0,1.251-.88879,13.03647,13.03647,0,0,1,3.358-3.01572A21.36511,21.36511,0,0,0,82.57415,40.19388Z"/><path class="cls-2" d="M184.94118,110.91328c-.1989-.46717-.39359-.93618-.59786-1.401-.2324-.52884-.38879-1.06892.14112-1.49814a1.11624,1.11624,0,0,1,1.49667.1266c5.98071,13.77936,12.74893,27.11684,21.87759,39.13894a6.4731,6.4731,0,0,0,2.88932,2.19A56.86778,56.86778,0,0,0,229.7157,152.984a107.86558,107.86558,0,0,0,12.67673-.473,1.55107,1.55107,0,0,0,.00462,1.90494c-1.054.1044-2.10639.22884-3.16213.31007-8.9584.68924-17.81585.24215-26.47729-2.37916-.12863-.06552-.26131-.12552-.36488.02592a1.76861,1.76861,0,0,0,.19944.1814,25.69415,25.69415,0,0,0,4.11724,3.61768.98.98,0,0,1,.33024,1.44935.94893.94893,0,0,1-1.46513.18747c-.58739-.41125-1.16582-.8398-1.71513-1.3002-4.82154-4.04106-8.5681-9.0034-12.04073-14.18462A211.62213,211.62213,0,0,1,184.94118,110.91328Z"/><path class="cls-4" d="M302.94061,137.65979c.76038.62839.73313,1.56487.86609,2.402a42.68011,42.68011,0,0,0,2.5791,9.17739c.91315,2.28575,1.48059,4.70764,2.25333,7.052a15.3427,15.3427,0,0,0,5.26834,7.39285c3.01682,2.361,5.891,4.90559,9.06094,7.06882a19.0065,19.0065,0,0,0,2.2547,1.34871c1.20618.59759,1.51093.4084,1.32767-.95931-.259-1.9333-.6189-3.85641-1.01568-5.76727a74.18046,74.18046,0,0,1-1.92606-12.99291c-.13843-4.90791,1.72687-9.26614,3.56387-13.6352a33.36187,33.36187,0,0,1,1.78626-3.23784l1.3923.02165c.3458.70692-.00143,1.38628-.08267,2.07619-1.06979.98861-1.41574,2.37353-1.95233,3.64254-1.7529,4.14577-3.09491,8.38686-2.63123,12.982a103.70806,103.70806,0,0,0,1.98969,11.38026,28.82267,28.82267,0,0,1,.89563,6.48276,2.2403,2.2403,0,0,1-3.0383,2.28465,13.14664,13.14664,0,0,1-3.10636-1.50883c-3.48391-2.32449-6.6116-5.1117-9.90142-7.689a15.49112,15.49112,0,0,1-5.54438-7.63119c-1.78125-5.85042-4.40918-11.44884-5.31015-17.56365.05384-.70062-.17218-1.42927.21009-2.097A1.48073,1.48073,0,0,1,302.94061,137.65979Z"/><path class="cls-4" d="M242.39706,154.41594a1.55108,1.55108,0,0,1-.00462-1.90494,1.3996,1.3996,0,0,1,1.03185-.20946,73.58787,73.58787,0,0,0,11.97813,12.82654,16.38481,16.38481,0,0,0,5.56218,3.19918c2.00079.57812,2.75207.08766,3.02707-1.94837a29.04931,29.04931,0,0,0-.37546-7.26742,58.97513,58.97513,0,0,1-.65829-7.62526c.01492-1.041.2351-2.04627.32321-3.0716l-.02576.02194.19946-.20782a1.71888,1.71888,0,0,1,1.04453-.27193,1.96,1.96,0,0,1,.722,1.895.90226.90226,0,0,0-.2594.7601,44.15647,44.15647,0,0,0,.58234,7.59982,48.35946,48.35946,0,0,1,.60953,7.59476c-.15491,3.965-2.52332,5.60974-6.27384,4.31277-3.80185-1.31471-6.66444-4.00367-9.503-6.67882A103.88128,103.88128,0,0,1,242.39706,154.41594Z"/><path class="cls-2" d="M265.22137,149.85181a1.96,1.96,0,0,0-.722-1.895c8.5079-2.617,16.93552-5.50332,25.614-7.546,3.90622-.91939,7.81913-1.79926,11.76679-2.52146-.38227.6677-.15628,1.39637-.21009,2.097-1.17553.22415-2.35238.44147-3.52636.67356C286.93289,142.876,276.07925,146.37161,265.22137,149.85181Z"/><path class="cls-2" d="M94.58044,35.53227a5.409,5.409,0,0,1-.01622,1.19566c-.14561.62689-.61035.84615-1.256.82968-.64837-.01655-.60925-.4498-.70538-.88613-.31694-1.43884-.11766-2.91531-.41774-4.36458a32.85835,32.85835,0,0,0-6.42591-14.12717c-2.37138-2.96409-5.34488-3.314-8.43947-1.14382-.65056.45624-1.228,1.01689-1.8371,1.53193-.0913.0772-.17069.16843-.256.25277-.57163.56516-1.11409,1.56684-2.02118.623-.78138-.81305.04316-1.44213.5738-2.01335a13.779,13.779,0,0,1,2.24623-1.975c4.13553-2.86138,8.31723-2.35189,11.42118,1.60063A34.10406,34.10406,0,0,1,94.316,33.03263c.13128.82725.21141,1.66261.31523,2.49422Z"/><path class="cls-4" d="M82.57415,40.19388a21.36461,21.36461,0,0,1-3.0462,2.27105,13.03667,13.03667,0,0,0-3.358,3.01572,3.21522,3.21522,0,0,1-1.251.88879A37.3808,37.3808,0,0,0,65.43951,53.358c-.8771.93258-2.03353.29846-3.04641.48155a16.65832,16.65832,0,0,1,3.7312-3.95741c3.83228-3.35105,8.33053-5.66946,12.80886-8.00094C80.11838,41.26417,81.16975,40.34246,82.57415,40.19388Z"/><path class="cls-4" d="M135.94775,34.73245c-.91687.31965-1.84977.60077-2.74473.9731a2.53519,2.53519,0,0,1-1.61814.07546A66.30249,66.30249,0,0,0,116.52,33.974c-.62667.00807-1.53978.253-.918-.98125.186-.36918-.264-.6216-.40971-.93333.68086-.51234,1.47164-.27741,2.191-.2355a87.83066,87.83066,0,0,1,17.29382,2.57513Q135.31235,34.56614,135.94775,34.73245Z"/><path class="cls-4" d="M34.82988,113.38022a4.84354,4.84354,0,0,1,1.167,1.22281,73.87391,73.87391,0,0,1-7.93746,6.87879c-1.15472.82631-2.53772,1.36473-3.40907,2.56951-.98959-.24016-1.46337.74459-2.2732.97093a4.56782,4.56782,0,0,0-1.20036.81119l-.33568.04309c-.93471-.24727-1.13351-.80936-.70208-1.64108,2.28915-1.50251,4.6495-2.89093,6.86532-4.5125a67.15626,67.15626,0,0,0,6.75665-5.66869C34.06828,113.76054,34.30508,113.33652,34.82988,113.38022Z"/><path class="cls-4" d="M40.35357,103.05868c.18953.24737.33837.65606.57522.71581,1.49261.3765.8912,1.31028.61673,2.1477a20.08624,20.08624,0,0,1-3.28936,6.011c-.7792,1.00957-1.9676.55016-2.97384.74374.00658-.645.58891-.90986.90834-1.34144a19.224,19.224,0,0,0,3.94167-8.01061C40.14991,103.22617,40.27735,103.147,40.35357,103.05868Z"/><path class="cls-4" d="M145.22421,37.348l-4.351,1.1238c-.1073-.64756-.69975-.52994-1.10466-.67093a21.71717,21.71717,0,0,1-3.21946-1.01111,1.16731,1.16731,0,0,0,.20181-1.8539A53.80484,53.80484,0,0,1,145.22421,37.348Z"/><path class="cls-2" d="M263.4548,148.22871l-.19946.20783Z"/><path class="cls-1" d="M136.54912,36.78977a21.71692,21.71692,0,0,0,3.21947,1.01111c.4049.141.99736.02337,1.10466.67093a21.52415,21.52415,0,0,0-7.52057,4.55916,15.55324,15.55324,0,0,0-4.01413,6.42872,14.18817,14.18817,0,0,1-2.41693,4.77341,8.13166,8.13166,0,0,1-7.34131,3.00679c-4.63058-.39514-8.1736,3.32678-9.29811,6.25385a5.77285,5.77285,0,0,0,6.05645,8.059c4.07183-.33632,7.82154-1.82569,11.60132-3.21456a17.42157,17.42157,0,0,1,4.22278-1.26947c3.33479-.33749,5.71449,1.40487,7.84338,3.62924,1.43563,1.5,2.73351,3.13324,4.18865,4.61278,2.3705,2.41024,4.35446,2.45476,6.8797.23826a18.84989,18.84989,0,0,0,2.02745-2.03379,4.0832,4.0832,0,0,0,.27048-5.57888,47.63691,47.63691,0,0,0-5.861-6.31844c-.98222-.99562-2.02917-1.93625-2.93252-2.99893-1.774-2.08689-1.693-4.08627.19967-6.08568,2.36779-2.50127,5.4385-3.86737,8.55259-5.125,1.437-.58034,2.92376-1.04686,4.40936-1.49369.87041-.2618,1.31283-.70715,1.11722-1.64206a.9147.9147,0,0,0,.72125-.368,74.04158,74.04158,0,0,1,13.932-11.76526,33.79116,33.79116,0,0,1,10.8009-5.01443A15.74217,15.74217,0,0,1,198.51018,30.47c4.80769,3.93157,7.40234,9.13173,8.53819,15.08268a27.25845,27.25845,0,0,1-1.05022,12.73752,173.7666,173.7666,0,0,1-9.10688,23.51264c-3.16434,6.98963-6.65574,13.81667-10.13694,20.64827-1.77459,3.48255-3.71951,6.87838-5.59164,10.3111-.14693.26938-.23175.621-.64641.61752q-.62851-2.74263-1.25874-5.48485c-.14513-.62577-.53638-1.02967-1.192-.90259a.94468.94468,0,0,0-.76392,1.266c.04144.19538.0584.39615.10326.5906,2.11813,9.17966,4.10051,18.38723,5.58276,27.69431a48.65678,48.65678,0,0,1,.76781,6.29342c.09292,3.44565-1.84931,6.03289-4.11571,8.35939a43.881,43.881,0,0,1-12.84633,8.64069c-.7521.36-1.313.78481-.896,1.61852.36442.72865,1.055.52453,1.67582.23172A45.19286,45.19286,0,0,0,181.44,152.22557c2.88257-3.03458,4.76162-6.47913,4.2375-10.87382-.9184-7.701-2.50124-15.28284-4.07529-22.865a5.679,5.679,0,0,1,.53756-3.90483c1.00915-.5439,1.161-1.68325,1.7485-2.52008.30156-.42955.35184-1.08606,1.05293-1.14847a211.62679,211.62679,0,0,0,16.87755,31.41057c3.47263,5.18122,7.21918,10.14356,12.04073,14.18462.54931.4604,1.12774.889,1.71513,1.3002a.94891.94891,0,0,0,1.46513-.18747.98.98,0,0,0-.33024-1.44935,25.69415,25.69415,0,0,1-4.11724-3.61768l.16544-.20734c8.66145,2.62133,17.51891,3.06842,26.4773,2.37918,1.05574-.08123,2.10815-.20567,3.16212-.31007a103.88311,103.88311,0,0,0,7.97993,9.02451c2.83852,2.67514,5.70112,5.3641,9.503,6.67881,3.75051,1.297,6.11892-.34774,6.27383-4.31277a48.35946,48.35946,0,0,0-.60953-7.59476,44.15546,44.15546,0,0,1-.58233-7.59982.9022.9022,0,0,1,.2594-.7601c10.85787-3.48018,21.71151-6.97579,32.92224-9.1919,1.174-.23208,2.35083-.44941,3.52636-.67355.901,6.11481,3.5289,11.71323,5.31015,17.56364a15.4911,15.4911,0,0,0,5.54438,7.6312c3.28982,2.57735,6.41751,5.36455,9.90142,7.689a13.147,13.147,0,0,0,3.10636,1.50883,2.24034,2.24034,0,0,0,3.0383-2.28465,28.822,28.822,0,0,0-.89563-6.48276,103.70847,103.70847,0,0,1-1.98969-11.38026c-.46368-4.59517.87836-8.83626,2.63123-12.982.53659-1.269.88254-2.65393,1.95233-3.64255a67.96031,67.96031,0,0,1,22.28311,5.13823c18.78635,7.62714,32.72049,20.65261,42.17609,38.47736a159.53419,159.53419,0,0,1,14.93686,42.62178,171.71914,171.71914,0,0,1,3.7915,32.66293,143.9215,143.9215,0,0,1-3.17248,31.28879c-.17038.82013-.26807,1.6557-.44748,2.4736-.12043.54874-.0781,1.17911-.78022,1.47443a.67668.67668,0,0,0-.31912.90219l.01834.03564c.82132.93546.31821,1.91959.15872,2.84449q-3.27757,19.00441-5.8749,38.113c-.12818.94928-.32163,1.002-1.19825.83655a65.11479,65.11479,0,0,0-15.17416-.76663c-5.95636.27951-11.786-.58771-17.64172-1.33869-9.74192-1.24938-19.43045-2.90271-29.21256-3.8504a19.37729,19.37729,0,0,0-4.777.2103,3.73676,3.73676,0,0,0-3.3807,3.49585c-.046.27066-.11933.53662-.20908.93353-2.47937-2.95166-4.946-5.85174-9.18655-5.53256-4.06186.30572-6.41727,3.2211-8.83042,6.31116a8.27109,8.27109,0,0,0-1.77993-4.24036c-1.608-1.63187-1.91227-3.67926-2.26593-5.74915a54.89576,54.89576,0,0,1-.93848-13.11447c.04864-.69458-.14963-1.25317-.8888-1.30264-.81-.05417-1.03634.51541-1.09176,1.25333a58.27559,58.27559,0,0,0,1.384,15.69979,2.02148,2.02148,0,0,1-.34109,1.96711,6.13268,6.13268,0,0,0-.98566,2.916c-.06567.32746-.005.60758-.56336.6886-5.055.7338-10.08676,1.6207-15.158,2.2533-12.95038,1.61541-25.92768,2.44482-38.96348,1.25985a68.41644,68.41644,0,0,1-13.98544-2.5964c-1.05427-.32422-1.30447-.79614-1.19617-1.85974a177.17285,177.17285,0,0,0,.81565-17.70676c.00448-3.15127-.0848-6.30749-.36962-9.452-.06834-.75443-.14862-1.53672-1.168-1.44266-.95145.0878-.91061.84225-.84961,1.54825a149.19815,149.19815,0,0,1-.02782,22.02737c-.15165,2.47-.37974,4.93536-.58148,7.40216-.03229.39475.13178.88709-.66356.74326a80.38924,80.38924,0,0,0-18.26942-.80683c-4.14156.20029-8.2067-.50454-12.28131-1.02319-10.33815-1.316-20.628-2.99612-30.98783-4.152a24.2483,24.2483,0,0,0-4.78941-.00476c-1.98369.17218-3.68655.794-4.29109,3.14026a25.62529,25.62529,0,0,0-3.01839-3.5636c-3.61056-3.43463-7.92139-3.58728-11.73118-.37988a19.92514,19.92514,0,0,0-3.82813,4.39316c-1.79082-2.02176-1.4959-4.54477-1.776-6.88279-.95485-7.96893-1.70316-15.96051-2.362-23.95947-.21961-2.66629-.35315-5.33978-.51221-8.01083-.045-.7551-.08739-1.562-1.09989-1.492-.91163.063-.91445.78672-.88055,1.52942.30444,6.6655.94653,13.304,1.55666,19.94522.03062.33332.29136.75656-.09552.99048-.3983.24088-.642-.20508-.90183-.40048a82.4676,82.4676,0,0,1-20.91885-23.48508,248.60255,248.60255,0,0,1-13.32971-26.33032C94.80943,242.87775,86.338,221.59851,78.221,200.17383c-.3134-.82723-.19438-1.1293.62431-1.455a18.636,18.636,0,0,0,8.875-7.20877,1.206,1.206,0,0,1,.89477-.67533c12.687-1.80958,24.6523-6.1513,36.60914-10.5047,3.92828-1.43026,7.801-3.01315,11.69736-4.53091.634-.247,1.35618-.27164.91557-1.42557-.47121-1.234-1.084-.68063-1.72247-.42262A340.3187,340.3187,0,0,1,103.4491,185.5215a105.12574,105.12574,0,0,1-13.278,3.08974c-.23144.0356-.46315.1521-.75933-.08065a28.03081,28.03081,0,0,0,2.15813-8.36148,24.383,24.383,0,0,0-.43643-7.86364,8.75106,8.75106,0,0,0-1.79946-3.60381,10.55889,10.55889,0,0,1-2.4206-7.08444A46.52872,46.52872,0,0,0,85.332,147.9808a24.40759,24.40759,0,0,0,7.97067-3.45721c5.79341-3.65421,10.33465-8.60736,14.39318-14.04007a1.82518,1.82518,0,0,1,1.58989-.80521,31.89589,31.89589,0,0,1,3.57373.2746,44.89269,44.89269,0,0,1,8.12332,1.24442,2.21707,2.21707,0,0,1,1.885,2.04443,55.22471,55.22471,0,0,1,.098,6.55083c-.20894,5.4826-1,10.95436-.54144,16.45244a14.7826,14.7826,0,0,0,1.81581,6.62936,4.44649,4.44649,0,0,0,4.65745,2.39558c3.66706-.52981,6.10991-2.80824,7.95787-5.76632a18.80858,18.80858,0,0,0,2.54418-9.00577,54.32206,54.32206,0,0,0-2.18779-19.14069,1.07016,1.07016,0,0,1,.50068-1.39555,22.44587,22.44587,0,0,1,4.5217-2.17509c1.9628-.80088,3.45961-2.00167,3.83051-4.21473a10.96545,10.96545,0,0,0,.025-3.70171,4.66843,4.66843,0,0,0-4.9776-4.08274c-3.08833.00288-6.05881.83571-9.07525,1.3297a53.182,53.182,0,0,1-10.67254,1.05612c-2.66034-.10388-5.15091-.715-6.88381-2.98966-.62728-.82338-1.244-1.65878-1.80568-2.52745-2.02166-3.127-3.37275-6.61534-5.266-9.81426C103.997,97.077,98.17732,97.63806,94.33278,101.828c-3.07493,3.35122-3.68446,7.4588-2.76269,11.86632.60371,2.88673,1.99894,5.458,3.04137,8.16892.79455,2.06633.58269,2.84059-1.32971,3.92862-3.60717,2.05226-7.20829,4.116-10.84243,6.11956-1.847,1.0183-3.478,2.41425-5.49529,3.13028-4.71923-3.35414-10.19137-3.9441-15.888-4.161.26728-.55448.67847-.63016.99047-.80645,12.4851-7.05313,22.35221-16.66052,28.795-29.58526a65.10895,65.10895,0,0,0,5.85188-19.201c2.29969-14.7425,9.75128-26.34674,21.63987-35.1897a61.01825,61.01825,0,0,1,17.4072-9.11C136.0033,36.90179,136.27927,36.85505,136.54912,36.78977Zm6.57034,57.40481a22.2864,22.2864,0,0,0-2.05859-10.52126c-4.20735-8.54616-13.51619-10.85892-20.82628-5.19787-8.29823,6.42628-10.78309,19.78826-5.25855,28.69355,2.65428,4.27859,6.41285,6.83324,11.63812,6.73916a14.43968,14.43968,0,0,0,10.57567-5.11429,22.16608,22.16608,0,0,0,5.92965-14.59929ZM124.045,214.43008a100.38739,100.38739,0,0,0,11.72871-.68792c3.59856-.37061,7.18251-.84642,10.75994-1.35157,4.75367-.67128,8.61781-3.10585,12.04492-6.38351a32.18291,32.18291,0,0,1,8.8851-6.40924,40.84133,40.84133,0,0,0,10.806-7.59775,83.8073,83.8073,0,0,0,11.44292-12.85c4.13633-5.78893,8.2413-11.61,9.124-18.9592a20.37739,20.37739,0,0,0-2.6261-13.35944,1.43566,1.43566,0,0,0-2.42581-.29581,11.84045,11.84045,0,0,0-1.93381,2.117,134.4893,134.4893,0,0,0-7.86713,13.69209c-1.93278,3.70746-4.03,7.25662-7.32519,9.94715-.67838.55389-1.32762,1.1452-1.97052,1.74057-2.72061,2.51939-5.59688,4.8578-8.48132,7.18026-4.96456,3.99726-10.08271,7.7927-15.24541,11.53409a64.13173,64.13173,0,0,1-22.69859,10.91965c-4.79486,1.15487-9.62108,2.13489-14.45772,3.08125-1.832.35845-3.68671.60773-5.48463,1.14063-.68913.20428-1.288.47448-1.47646,1.23266-.19706.79289.4515,1.15813.90956,1.55541a11.4152,11.4152,0,0,0,3.85316,2.11412A35.32659,35.32659,0,0,0,124.045,214.43008Zm179.5648,46.50324c-.00131-2.27521-.14358-4.54559-.20233-6.81528a23.63774,23.63774,0,0,0-1.72778-8.25059,97.97219,97.97219,0,0,0-6.11426-12.19466,158.079,158.079,0,0,0-10.48731-16.28915c-1.02246-1.36907-2.31982-2.55466-3.20614-3.99924-2.30484-3.75639-3.6785-7.95409-5.37866-11.9955a40.37891,40.37891,0,0,0-3.99424-8.14555,2.58,2.58,0,0,0-3.77151-.68837c-1.68317,1.08355-2.41266,2.83558-3.062,4.5914a38.33343,38.33343,0,0,0-1.96124,9.43426,65.21024,65.21024,0,0,0-.2045,12.76222c.52154,5.665,3.3117,10.02906,7.55462,13.63129,2.6333,2.2357,4.83582,4.8165,5.37018,8.38245.3649,2.43493.38831,4.90872.73663,7.35646a80.76871,80.76871,0,0,0,4.62726,17.38566,116.189,116.189,0,0,0,7.15775,14.74247c1.33093,2.40948,2.6557,4.82458,4.071,7.18454a1.88343,1.88343,0,0,0,3.39722.0343,11.169,11.169,0,0,0,.94528-1.6622c1.50952-3.33515,2.5213-6.89575,4.56211-9.99259a4.30878,4.30878,0,0,0,.48144-1.34182C303.54355,270.41672,303.53406,265.671,303.6098,260.93332Zm59.508,7.015a19.31741,19.31741,0,0,0-1.50785-7.52078,117.57084,117.57084,0,0,1-5.9009-15.15289,43.61071,43.61071,0,0,0-6.87763-13.7139,134.36473,134.36473,0,0,1-8.41788-11.614c-1.52588-2.43738-3.072-4.88241-3.64709-7.74907-1.01743-5.07139-2.103-10.12631-3.43-15.12549a13.52319,13.52319,0,0,0-1.76886-4.42038,1.43039,1.43039,0,0,0-2.49488-.19444,18.14564,18.14564,0,0,0-1.6835,2.017,32.34259,32.34259,0,0,0-5.96814,18.95888,54.02006,54.02006,0,0,0,1.32877,11.71139,64.11832,64.11832,0,0,0,7.77124,20.347c2.48,4.07558,4.843,8.13857,5.96713,12.84389a12.72547,12.72547,0,0,0,2.68164,5.68631q5.15968,5.73812,10.41736,11.388a27.71,27.71,0,0,1,5.97861,9.0054,9.72149,9.72149,0,0,0,2.4111,3.96033,1.51692,1.51692,0,0,0,2.61978-.5423,8.18848,8.18848,0,0,0,.60815-2.66687c.1272-2.38391.45673-4.74643.819-7.10443a96.18,96.18,0,0,0,1.09391-10.11365ZM120.16905,235.84312a38.27048,38.27048,0,0,0,27.9666,3.4901c3.52257-.77553,6.75166-2.39781,10.14159-3.559,8.06826-2.76377,16.34684-4.87032,24.33174-7.90227a18.349,18.349,0,0,0,9.82968-7.92583,103.8961,103.8961,0,0,0,6.874-14.59042c1.66844-4.19588,2.96483-8.41522,2.06209-13.02042-.41272-2.10548-.56186-4.27342-1.6776-6.18078-.82881-1.41684-2.08032-1.62432-3.26243-.5151a13.60447,13.60447,0,0,0-1.78762,1.92737q-3.34449,4.66389-6.60522,9.38773a91.59048,91.59048,0,0,1-10.771,12.317,106.44609,106.44609,0,0,1-10.88967,9.50406c-3.45063,2.62836-6.77625,5.43483-10.72355,7.36317a83.133,83.133,0,0,1-14.12487,5.19974,129.00127,129.00127,0,0,1-14.41692,3.27431C124.88533,234.97029,122.66609,235.39847,120.16905,235.84312Zm103.33342-21.18225a7.51343,7.51343,0,0,0-2.37343.22135c-.35719.11657-.5531.2471-.56239.6353-.03532,1.47325-.23627,2.96769-.16785,4.41163a73.11638,73.11638,0,0,0,1.3516,13.03276,31.13769,31.13769,0,0,0,3.19053,8.976,78.62432,78.62432,0,0,1,6.70856,13.7459c1.03952,2.95266,1.82481,6.05676,4.14543,8.39843a3.7092,3.7092,0,0,1,.70864,1.24128c.67982,1.70352,1.33067,3.4187,1.98094,5.13388a41.17656,41.17656,0,0,0,2.40188,5.73578c.97913,1.73776,2.07958,1.99908,3.74224.92459a9.87582,9.87582,0,0,0,2.766-2.78711c2.95407-4.31748,4.1982-8.85629,2.05335-13.97534-1.69922-4.05548-3.69007-7.96767-5.53333-11.95185a62.27548,62.27548,0,0,1-3.4304-8.4167c-1.073-3.62909-1.95958-7.31348-3.36748-10.841-1.7581-4.405-3.79333-8.63648-7.37952-11.89261a8.42857,8.42857,0,0,0-6.23475-2.59229ZM199.49936,53.32694a30.124,30.124,0,0,0-1.25557-9.00282c-1.1205-3.491-3.02043-6.36786-6.64467-7.65769a13.18225,13.18225,0,0,0-9.59019.53159c-7.10549,2.86779-12.57795,7.91375-17.68888,13.42357-.469.50563-.62959,1.08182-.05456,1.57231.621.52973,1.15278.22062,1.63887-.323a61.73246,61.73246,0,0,1,7.46655-7.09338c3.4762-2.77909,7.12245-5.27105,11.51958-6.38991,5.15953-1.31285,9.14552.69474,11.082,5.56387a23.4588,23.4588,0,0,1,1.4895,8.44389,53.08706,53.08706,0,0,1-3.70383,19.75447c-2.54591,6.6754-5.91867,12.82609-11.63688,17.39162-.54288.43343-.77784.9654-.30892,1.53881.47153.57661,1.06238.43681,1.59316.01908a25.86849,25.86849,0,0,0,4.05-3.90432C195.52789,77.34419,198.88025,65.8186,199.49936,53.32694Z"/><path class="cls-1" d="M168.59315,359.99884a87.95312,87.95312,0,0,0-2.6101-19.18817,52.72186,52.72186,0,0,1-1.04422-6.95368c-.22142-2.50167.50248-3.33688,2.9637-3.61758,3.42059-.39008,6.7684.30911,10.12777.72736,10.97446,1.36627,21.88639,3.20846,32.89089,4.34753a70.39634,70.39634,0,0,0,7.9068.00037,72.30868,72.30868,0,0,1,14.0888.79248c2.08675.39221,2.201.55456,2.08211,2.67953-.24266,4.33832-1.56041,8.45911-2.57747,12.64032-.25453,1.04639-.48268,2.10309-.81059,3.127-.85164,2.65936-.42093,5.27877.08366,7.92608,1.48995,7.81678,2.6979,15.67011,2.53469,23.66294a37.30944,37.30944,0,0,1-2.35179,13.36642c-2.73295,6.77875-8.08167,10.41071-15.394,10.47043-3.92255.032-7.79982-.59461-11.70624-.81848a51.51486,51.51486,0,0,0-21.54883,2.87738,73.49162,73.49162,0,0,1-22.96655,4.257,276.65633,276.65633,0,0,1-37.70325-1.05307A111.8995,111.8995,0,0,1,98.227,410.78189a40.14316,40.14316,0,0,1-8.298-3.65738,30.60052,30.60052,0,0,0-4.679-2.38461,4.64114,4.64114,0,0,1-2.83179-2.89926,49.12689,49.12689,0,0,1-2.50477-11.913c-.33669-3.6037,1.39634-6.31143,4.25125-8.33261,3.471-2.45746,7.486-3.43191,11.58873-4.229a9.168,9.168,0,0,1,6.416,1.16357,24.095,24.095,0,0,1,8.98436,7.906c1.41109,2.17471,1.3104,3.835-.61972,5.53213-2.09829,1.84488-4.35053,3.53134-7.39194,3.43a.94672.94672,0,0,0-1.07622.79641c-.00441.02954-.00743.0593-.009.08911-.05723.65064.29848,1.02805.98841,1.09052a37.0953,37.0953,0,0,0,6.46284-.13388c9.31651-.78314,18.54652-2.22662,27.77783-3.6767a53.83516,53.83516,0,0,0,14.0677-3.67682c9.54674-4.31863,14.8891-11.80493,16.63846-22.01483A53.74012,53.74012,0,0,0,168.59315,359.99884Z"/><path class="cls-1" d="M337.12036,359.187c-.12424-6.6741-1.55093-13.14917-2.9097-19.63742a22.14027,22.14027,0,0,1-.641-6.41177c.15918-1.88614.705-2.36457,2.62433-2.55417a42.53336,42.53336,0,0,1,9.5419.60577c10.93454,1.3787,21.8168,3.14872,32.77078,4.3837a55.47412,55.47412,0,0,0,7.53443.09976,80.54959,80.54959,0,0,1,14.9461.67133c2.56339.41971,2.82563.77215,2.55728,3.36011a72.68217,72.68217,0,0,1-2.87963,13.072,22.31671,22.31671,0,0,0-.26859,11.08477,99.79393,99.79393,0,0,1,2.31372,24.28,37.3664,37.3664,0,0,1-1.86221,10.57672c-2.59256,7.54792-8.04471,11.47843-16.04706,11.59354a80.52726,80.52726,0,0,1-8.4856-.59521c-8.90878-.81324-17.57934-.11426-26.02737,3.13134-6.809,2.61594-14.01288,3.403-21.25735,3.76831A264.64133,264.64133,0,0,1,301.597,416.348a187.75315,187.75315,0,0,1-24.74476-2.72494c-7.05484-1.326-13.902-3.2348-20.053-7.12357a14.80467,14.80467,0,0,0-2.69779-1.27569,5.35662,5.35662,0,0,1-3.32194-3.52033,73.19853,73.19853,0,0,1-2.13076-9.448c-1.19868-6.02743,1.95017-9.34948,5.902-11.48065a31.98351,31.98351,0,0,1,12.03779-3.31659,3.17932,3.17932,0,0,1,1.40274.24207,23.75844,23.75844,0,0,1,11.85156,9.30313,3.64134,3.64134,0,0,1-.53332,5.08966,15.75892,15.75892,0,0,1-6.11581,3.646,3.00387,3.00387,0,0,1-1.30146.00866c-.66867-.0469-1.23721.15393-1.27221.92755-.03351.74009.43859,1.04761,1.14407,1.08371a55.60715,55.60715,0,0,0,8.13312-.34124c8.90814-.84974,17.7406-2.25263,26.57956-3.62577a49.24974,49.24974,0,0,0,14.55313-4.12109c8.83236-4.37482,13.74463-11.611,15.44372-21.1821A47.28868,47.28868,0,0,0,337.12036,359.187Z"/><path class="cls-5" d="M20.84114,125.87654l.33568-.04309c4.41353-.07973,8.30582,1.83993,12.35573,3.1816a45.875,45.875,0,0,0,7.30981,1.569c2.81881.4453,5.64183.8707,8.472,1.23486,1.79583.23107,3.60953.3198,5.41254.49932,2.3877.23773,4.78.47317,7.166.67407,1.75949.14813,3.53042.24869,5.29573.4213a19.34011,19.34011,0,0,1,8.882,3.465,1.16944,1.16944,0,0,0,.772.52005,25.20235,25.20235,0,0,1,5.12689,7.13559,9.264,9.264,0,0,0,1.06632,2.34963c-.03869.38687-.11037.78181.26143,1.06822a51.98538,51.98538,0,0,1,1.64166,14.45721,10.1434,10.1434,0,0,0,2.29351,6.79549,10.90761,10.90761,0,0,1,2.448,6.96153c.19989,5.74046-1.05764,11.0878-4.71988,15.69214-2.59841,3.26685-6.18877,4.93352-10.00729,6.23222A63.16818,63.16818,0,0,1,47.968,201.44238c-13.86737-1.40884-23.53832-8.47549-28.565-21.567a43.13007,43.13007,0,0,0-9.48809-15.078A14.87808,14.87808,0,0,1,5.68955,152.4312c.74952-8.71875,4.30167-16.33872,9.57845-23.22118a7.85277,7.85277,0,0,1,4.63571-2.96948C20.21041,126.17039,20.64555,126.28388,20.84114,125.87654Zm49.87912,45.18092a1.91351,1.91351,0,0,1-.31321.16117,87.901,87.901,0,0,1-28.80569,1.63679,49.07243,49.07243,0,0,1-17.25808-4.94259c-1.02229-.54023-.94841.45343-1.31076.817-.6005.60254.01495.808.40938,1.0151a41.61823,41.61823,0,0,0,8.91855,3.37168,2.35937,2.35937,0,0,1,2.01446,2.28126c.34234,3.30155.20647,6.62.44567,9.92507.39558,5.466,2.98807,8.32272,8.42113,8.95994a42.188,42.188,0,0,0,16.93877-1.53158,16.65557,16.65557,0,0,0,11.46964-10.66951,31.12061,31.12061,0,0,0,1.43708-6.282c.1033-.706-.1205-1.781.40271-2.02866.6258-.29615,1.22062.6377,1.82949,1.02773.52588.33687.8879.46724,1.19259-.21509.22882-.51237.92746-.90012-.04666-1.50288a20.68438,20.68438,0,0,1-4.87047-4.172c-.6957-.816-1.35334-.96191-2.0971-.18408-.59156.61867.29325.9527.51216,1.40819A5.86879,5.86879,0,0,0,70.72026,171.05746Zm-15.9778-24.83694a9.65908,9.65908,0,0,0-4.74975.97733,3.767,3.767,0,0,0-2.28044,3.61906,5.06622,5.06622,0,0,0,3.3137,4.5797,30.12317,30.12317,0,0,0,8.05161,2.56344,6.91857,6.91857,0,0,0,6.65335-2.09,1.53562,1.53562,0,0,0,.33516-1.72168A11.43151,11.43151,0,0,0,54.74246,146.22052Z"/><path class="cls-1" d="M147.07715,353.488a35.80885,35.80885,0,0,1,6.98143,2.06286,25.57848,25.57848,0,0,1,11.28581,8.39609,3.67128,3.67128,0,0,1,.77934,3.06778,31.05266,31.05266,0,0,1-4.37063,11.80591c-.4887.75683-.8044.853-1.61606.30658-4.44914-2.99536-9.48871-4.67227-14.54059-6.30011a31.43787,31.43787,0,0,0-3.78139-1.11133,3.697,3.697,0,0,1-2.562-1.8837c-1.12145-1.744-2.34838-3.42248-3.58257-5.09036a.88127.88127,0,0,1-.04831-1.24536q.02929-.03163.06156-.0603a32.32207,32.32207,0,0,0,3.8941-6.43448,2.05805,2.05805,0,0,1,1.22655-1.17868c1.8343-.66312,3.64706-1.38587,5.47058-2.07914C146.56819,353.63229,146.87338,353.55228,147.07715,353.488Z"/><path class="cls-1" d="M334.81964,366.09338a29.754,29.754,0,0,1-4.82287,13.45176c-.2089.30053-.33069.60214-.81153.269-5.36389-3.71668-11.50351-5.63211-17.6759-7.393a6.426,6.426,0,0,1-4.31293-3.11914,40.69811,40.69811,0,0,0-3.03-4.30533.76141.76141,0,0,1-.05093-1.07556q.02188-.024.04571-.04614a32.74861,32.74861,0,0,0,4.04691-6.75635,1.62909,1.62909,0,0,1,1.03635-.89236,38.34855,38.34855,0,0,0,4.0039-1.57178,6.47665,6.47665,0,0,1,4.947-.27191c5.89752,1.72055,11.25553,4.30139,15.16809,9.2467C333.98688,364.41721,334.79776,365.14871,334.81964,366.09338Z"/><path class="cls-4" d="M76.84257,137.39868a1.16944,1.16944,0,0,1-.772-.52005c-.39389-.938.61933-1.207.87347-1.8369,2.01731-.716,3.64833-2.112,5.49531-3.13026,3.63414-2.00359,7.23526-4.0673,10.84242-6.11956,1.9124-1.088,2.12426-1.86229,1.32971-3.92862-1.04242-2.711-2.43766-5.28219-3.04136-8.16892-.92177-4.40752-.31224-8.5151,2.76268-11.86632,3.84455-4.19,9.66417-4.751,13.07608,1.01379,1.89328,3.19892,3.24437,6.68727,5.266,9.81426.56163.86867,1.1784,1.70406,1.80568,2.52745,1.7329,2.27471,4.22347,2.88577,6.88381,2.98966a53.182,53.182,0,0,0,10.67254-1.05613c3.01644-.494,5.9869-1.32682,9.07525-1.3297a4.66844,4.66844,0,0,1,4.9776,4.08274,10.9655,10.9655,0,0,1-.025,3.70172c-.3709,2.21306-1.86771,3.41385-3.83051,4.21473a22.44583,22.44583,0,0,0-4.5217,2.17508,1.07018,1.07018,0,0,0-.50068,1.39556,54.322,54.322,0,0,1,2.18779,19.14068,18.80858,18.80858,0,0,1-2.54418,9.00577c-1.848,2.95809-4.29081,5.23651-7.95787,5.76633a4.44652,4.44652,0,0,1-4.65746-2.39559,14.78273,14.78273,0,0,1-1.81581-6.62936c-.45857-5.49806.3325-10.96983.54144-16.45244a55.22455,55.22455,0,0,0-.098-6.55082,2.21708,2.21708,0,0,0-1.885-2.04444,44.89341,44.89341,0,0,0-8.12332-1.24441,31.89335,31.89335,0,0,0-3.57372-.2746,1.82513,1.82513,0,0,0-1.58989.80521c-4.05854,5.4327-8.59977,10.38586-14.39318,14.04007A24.40806,24.40806,0,0,1,85.332,147.9808a2.57923,2.57923,0,0,1-2.03482-.02868c-.3718-.28641-.30012-.68135-.26143-1.06822a1.62631,1.62631,0,0,1,1.05891-.69071,26.305,26.305,0,0,0,10.20089-4.81882,54.94671,54.94671,0,0,0,12.41456-13.06526,1.51459,1.51459,0,0,1,1.56306-.77078c2.14733.20585,4.30826.281,6.45069.52364a37.79846,37.79846,0,0,1,7.403,1.378,3.55587,3.55587,0,0,1,2.70476,3.26778c.08329.834.21085,1.66749.23127,2.50336.10954,4.4812-.30493,8.94035-.58842,13.40559-.24849,3.91421-.41738,7.836.82479,11.64094,1.02745,3.14716,2.79031,3.803,5.674,2.23389,3.80152-2.06854,5.35114-5.5715,6.02541-9.5652,1.18121-6.99641.2287-13.84886-1.65018-20.60779-.58559-2.10653-.24495-3.16083,1.62441-4.34667a20.50015,20.50015,0,0,1,4.44714-2.04855c2.87752-.97153,3.01976-3.28667,2.64938-5.64283-.28068-1.78555-1.413-2.57428-3.24251-2.49629a40.20687,40.20687,0,0,0-5.44273.80416c-4.834.877-9.65843,1.821-14.61794,1.56a10.49463,10.49463,0,0,1-8.49165-4.40927,59.99525,59.99525,0,0,1-4.75834-8.43238,21.489,21.489,0,0,0-2.99211-4.88508,4.568,4.568,0,0,0-5.62384-1.34715,8.59772,8.59772,0,0,0-5.026,5.46121c-1.189,3.3493-.63188,6.60808.63622,9.804.73455,1.8512,1.581,3.66108,2.246,5.536.86444,2.437.37706,3.74865-1.74977,5.23162a15.82607,15.82607,0,0,1-1.41578.89539c-5.31512,2.92262-10.62109,5.86072-15.74379,9.1154A1.278,1.278,0,0,1,76.84257,137.39868Z"/><path class="cls-1" d="M166.36906,355.35934c-5.82145-5.18307-12.86142-6.99435-20.04861-8.45172-.896-.18173-1.79352-.35623-2.69034-.53405.1857-.88358.37685-1.766.556-2.651a32.059,32.059,0,0,0,.81091-7.72912,2.91561,2.91561,0,0,1,.45234-1.693,19.157,19.157,0,0,1,4.73785-5.66239c2.71733-2.04465,5.35184-2.00863,7.9839.11728a17.09264,17.09264,0,0,1,4.64733,6.02741c.57621,1.21026.47442,2.73269.745,4.101.95943,4.85153,2.12514,9.66525,2.63811,14.59723C166.26141,354.056,166.30473,354.63269,166.36906,355.35934Z"/><path class="cls-5" d="M411.77478,290.77515c.46567-2.5441.90079-4.96158,1.35156-7.37607a138.25291,138.25291,0,0,0,2.2768-21.63971c.045-1.65006.03189-1.617,1.69909-1.77677a48.17357,48.17357,0,0,0,6.76139-.83978c.65255-.15747.79452.03165.82809.67627a96.41312,96.41312,0,0,1-.15811,10.88742,121.893,121.893,0,0,1-2.77835,19.51383c-.20209.89285-.367,1.04068-1.27884.64746-2.6026-1.12244-5.31046-.79465-7.99832-.25568C412.296,290.64868,412.11591,290.69571,411.77478,290.77515Z"/><path class="cls-1" d="M322.531,329.58975a6.63742,6.63742,0,0,1,4.69616,1.95236,17.592,17.592,0,0,1,4.43219,6.03489,23.57368,23.57368,0,0,1,1.04825,4.76162c.08527.41559-.22171.42371-.50146.48627-5.601,1.25208-11.1189,2.81775-16.64295,4.36481-1.04358.29226-2.10354-.256-3.16052-.38062-.40262-.04748-.22-.45523-.15778-.69656.68915-2.67.60639-5.55625,1.45044-8.08759a12.55455,12.55455,0,0,1,7.96723-8.32919A3.42762,3.42762,0,0,1,322.531,329.58975Z"/><path class="cls-1" d="M120.505,377.21243c-.03166-2.70736-.01219-2.66,2.46652-3.68a3.79358,3.79358,0,0,1,2.3311.06989c3.72547.68734,7.401,1.59716,11.04641,2.6311a1.99745,1.99745,0,0,1,1.43468,1.24756,71.59929,71.59929,0,0,1,4.19859,12.058c.19981.86008.17812,1.3234-.8875,1.39835-1.14845.08075-2.28265.361-3.42392.54907a.82908.82908,0,0,1-.93756-.29831c-3.3668-4.38464-8.10226-6.87515-12.90526-9.26663a6.51015,6.51015,0,0,0-1.19683-.541,2.5429,2.5429,0,0,1-2.13349-3.21057A5.99126,5.99126,0,0,0,120.505,377.21243Z"/><path class="cls-1" d="M306.19937,391.82812a.94054.94054,0,0,1-.94958-.33691c-3.29786-4.27545-7.89927-6.75461-12.60089-9.08942a18.70116,18.70116,0,0,0-2.27451-1.05377,1.6514,1.6514,0,0,1-1.298-1.80707c.02478-1.31619-.08323-2.63439-.10175-3.95224-.004-.2839-.204-.73318.20666-.83865,1.32685-.34079,2.50034-1.25156,4.00345-.95471,4.03388.79663,8.03785,1.707,11.98172,2.87735a1.46063,1.46063,0,0,1,1.02375.882,69.86024,69.86024,0,0,1,4.274,12.04553c.34708,1.45859.34568,1.45959-1.19446,1.71741Q307.73482,391.57457,306.19937,391.82812Z"/><path class="cls-1" d="M303.32071,392.26157c-8.29617,1.31323-16.40033,2.53061-24.84793,3.27227.867-.77334,1.53662-1.31564,2.143-1.92126a5.70317,5.70317,0,0,0,.8711-7.80042,24.70242,24.70242,0,0,0-7.67392-7.45578c-.49927-.32431-1.011-.62936-1.78263-1.108a4.64518,4.64518,0,0,1,1.29859-.05041c8.46835,2.71328,16.88974,5.54843,24.46948,10.35525A22.45459,22.45459,0,0,1,303.32071,392.26157Z"/><path class="cls-1" d="M134.57477,391.96729c-8.12607,1.28732-16.26177,2.50042-24.77431,3.24389a17.101,17.101,0,0,0,2.87558-2.55063,5.67016,5.67016,0,0,0,.49406-6.79,24.32872,24.32872,0,0,0-8.11322-7.98822c-.42877-.27481-.86814-.53308-1.49388-.91613a2.88147,2.88147,0,0,1,1.38131-.04676,120.16562,120.16562,0,0,1,20.30943,7.96064,38.13471,38.13471,0,0,1,7.92715,5.31634c.53121.47952,1.13309.88074,1.70243,1.318Z"/><path class="cls-5" d="M415.04181,247.39828c-.39948-5.239-1.03256-10.2588-1.81476-15.25851-.1-.63943.18875-.76356.62894-.87849a41.9578,41.9578,0,0,0,5.32715-1.76609c.58151-.23849.70834-.107.871.459,1.1466,3.99046,2.0278,8.04028,2.79944,12.11619.09131.4823.10943.877-.45957,1.18734C419.98364,244.57217,417.60608,245.94673,415.04181,247.39828Z"/><path class="cls-1" d="M155.668,385.08356a33.74466,33.74466,0,0,1-11.7189,5.23492c-.41962.10883-.76352.13291-.875-.45364a62.57985,62.57985,0,0,0-4.15876-12.43021,2.18733,2.18733,0,0,1-.04885-.38019A60.49351,60.49351,0,0,1,155.668,385.08356Z"/><path class="cls-1" d="M307.24438,377.32657c6.09943,2.02,11.7898,4.37771,16.94867,8.09775a34.00707,34.00707,0,0,1-11.93533,5.279c-.37707.09457-.49387.001-.56387-.33664A66.71741,66.71741,0,0,0,307.24438,377.32657Z"/><path class="cls-1" d="M131.8399,364.04352c4.39962-7.65784,6.304-16.03,7.13506-24.72275a69.772,69.772,0,0,1,1.1709-8.772c.08368-.37055.21088-.7313.35043-1.20761a8.83325,8.83325,0,0,1,2.535,6.8208c-.01021,5.55136-1.51685,10.78341-3.50043,15.899a38.37746,38.37746,0,0,1-5.75839,10.54676,5.95382,5.95382,0,0,1-1.7031,1.65051Z"/><path class="cls-1" d="M300.47,364.50919a74.6508,74.6508,0,0,0,3.8508-8.88828,69.06241,69.06241,0,0,0,3.13052-15.44781c.3285-3.01606.56244-6.04645,1.17658-9.02539.09286-.4506.24609-.88877.412-1.47684a8.23291,8.23291,0,0,1,2.48321,5.66427c.2912,5.78977-1.25564,11.2287-3.24331,16.5654a41.562,41.562,0,0,1-5.40885,10.35959A6.7463,6.7463,0,0,1,300.47,364.50919Z"/><path class="cls-1" d="M294.67706,372.04651c.9578-.68182,1.48758-1.43863,2.67612-1.17432a146.84557,146.84557,0,0,1,24.04816,7.039,33.16608,33.16608,0,0,1,6.34265,3.3125c.465.32135.5553.491.13849.978-1.74237,2.03607-1.70868,2.03668-3.98758.54941-6.37714-4.16174-13.43943-6.70535-20.72064-8.723C300.44772,373.27264,297.68726,372.65652,294.67706,372.04651Z"/><path class="cls-1" d="M126.33412,371.67816a2.63271,2.63271,0,0,1,2.839-1.07052c8.66958,1.986,17.29446,4.09661,25.45436,7.74694A29.531,29.531,0,0,1,159.224,380.9c.462.315.52257.5217.12591.97278-1.782,2.02628-1.75886,2.02646-4.0028.55365-6.54343-4.2948-13.80658-6.8775-21.30324-8.882C131.54594,372.87646,129.01718,372.324,126.33412,371.67816Z"/><path class="cls-5" d="M402.14456,191.48721a132.8226,132.8226,0,0,1,11.89575,21.65171,1.06578,1.06578,0,0,1-.2055,1.28489,22.37405,22.37405,0,0,1-3.488,3.14548c-.50253-1.91969-.95636-3.755-1.46426-5.57521a177.87125,177.87125,0,0,0-6.71784-19.644c-.08926-.218-.144-.45007-.2149-.6756Z"/><path class="cls-1" d="M334.92654,362.30463a28.89215,28.89215,0,0,0-13.58676-9.022,39.94462,39.94462,0,0,0-9.6773-2.05978c-.76831-.06088-.9368-.21307-.65723-.99024.55069-1.53121.4946-1.53894,2.13751-1.25866a52.2922,52.2922,0,0,1,15.4707,4.74258,19.48623,19.48623,0,0,1,4.50516,3.13016C334.6452,358.294,335.69492,359.91089,334.92654,362.30463Z"/><path class="cls-1" d="M166.40974,361.97391c-5.7844-6.88916-13.53036-9.74826-22.08079-10.98789-.15769-.02289-.31886-.02035-.47742-.03854-1.7238-.19782-1.92965-.6604-1.02377-2.2a.55262.55262,0,0,1,.68484-.27793c6.24436,1.00638,12.35828,2.429,17.89516,5.66141a18.63731,18.63731,0,0,1,3.2325,2.46042C166.21326,358.0459,167.08231,359.70535,166.40974,361.97391Z"/><path class="cls-1" d="M334.86975,355.7121c-3.3996-3.24512-7.40243-4.96015-11.64047-6.40186a60.88363,60.88363,0,0,1,9.85724-2.41357c.37265-.01093.62637.04437.69.45208A71.41034,71.41034,0,0,1,334.86975,355.7121Z"/><path class="cls-1" d="M317.50323,347.73434c5.07712-1.42807,9.91523-2.73718,14.79365-3.89828,1.041-.2478.82769.57141.986,1.04275.17624.52475.20175.94855-.60523,1.073A63.81041,63.81041,0,0,0,321.88742,348.51a2.11851,2.11851,0,0,1-1.28381.04736C319.64569,348.29456,318.68365,348.04663,317.50323,347.73434Z"/><path class="cls-1" d="M287.99512,380.265c-1.10749-.4353-2.09473-.84811-3.10071-1.20855-.519-.186-.77725-.45423-.69626-1.03574.0972-.69784-.32248-1.7641.18454-2.03543a11.68894,11.68894,0,0,1,3.2081-.80572c.46213-.09269.33746.31353.36063.55856.02618.27765.04077.55737.04181.83621C287.99756,377.76929,287.99512,378.96423,287.99512,380.265Z"/><path class="cls-1" d="M119.48245,379.93143c-1.1968-.47119-2.29089-.92154-3.40128-1.32727-.33911-.1239-.36735-.33429-.403-.62827-.26439-2.178-.15467-2.34125,2.00665-2.848,1.63586-.38355,1.65541-.38474,1.75738,1.25207.06194.99436.05375,1.99308.07319,2.9899C119.51818,379.51389,119.49925,379.65833,119.48245,379.93143Z"/><path class="cls-1" d="M138.52422,370.62006a4.39061,4.39061,0,0,1-4.54583-2.93674c-.50247-1.19061-.85562-1.98807.58483-2.67059C135.92574,366.78262,137.26083,368.64182,138.52422,370.62006Z"/><path class="cls-1" d="M307.0856,370.84784a3.84508,3.84508,0,0,1-3.76416-1.48752c-.39676-.73453-.75949-1.49106-1.20749-2.19308-.29254-.45847-.21524-.7179.1218-1.1265.62985-.76361,1.00879-.67053,1.52975.12067,1.05011,1.59482,2.18393,3.13452,3.28324,4.697Z"/><path class="cls-1" d="M114.71573,378.05734l-4.42356-1.53793.00386-.18259c1.32615-.199,2.65327-.392,3.9779-.60074.41745-.06576.44815.1695.44393.47956C114.71031,376.76993,114.71573,377.32446,114.71573,378.05734Z"/><path class="cls-1" d="M278.4826,376.7269c1.35441-.19913,2.42835-.27936,3.4611-.52951,1.16192-.2814,1.36111.17337,1.32083,1.21621-.03177.82276-.16162,1.02292-.97358.68171C281.13284,377.60867,279.9259,377.23813,278.4826,376.7269Z"/><path class="cls-1" d="M133.88316,369.6077c-1.31834-.28531-2.414-.52237-3.74073-.80948l2.26458-1.89215C132.88058,367.77277,133.32433,368.58484,133.88316,369.6077Z"/><path class="cls-1" d="M302.45572,369.96594l-3.63217-.81482c.43979-.725,1.20584-1.0437,1.75226-1.59356.36969-.372.51757-.06324.68017.24148C301.61169,368.46564,301.98666,369.122,302.45572,369.96594Z"/><path class="cls-4" d="M140.74614,354.47064c.71646-2.05176,1.19737-2.21573,3.99448-1.27179a29.44612,29.44612,0,0,1-3.82334,1.42761A1.5517,1.5517,0,0,0,140.74614,354.47064Z"/><path class="cls-1" d="M313.46808,353.47772l-4.10282,1.56977C309.92941,352.84216,309.49252,352.84891,313.46808,353.47772Z"/><path class="cls-1" d="M300.50952,364.761a1.17187,1.17187,0,0,1-.29391.11724c-.043.00516-.09787-.089-.14731-.13818a1.6096,1.6096,0,0,1,.29272-.145C300.38785,364.58731,300.44562,364.68713,300.50952,364.761Z"/><path class="cls-1" d="M132.06937,364.25815a.3233.3233,0,0,1-.47963.10818l.25018-.32284Z"/><path class="cls-1" d="M401.9498,191.67445c-.16751-.11735-.29959-.34192-.152-.453.22464-.16917.21848.18193.34677.26576Z"/><path class="cls-1" d="M307.04871,370.85837l.009.21469-.13168-.09851c.05026-.04144.10049-.08289.15512-.12555C307.0856,370.84784,307.04874,370.85837,307.04871,370.85837Z"/><path class="cls-4" d="M140.91727,354.62643l-.15535.13047q-.00747-.14305-.01535-.28611A1.56874,1.56874,0,0,1,140.91727,354.62643Z"/><path class="cls-1" d="M139.62558,314.1778l-.07712.08233a.71643.71643,0,0,1-.07017-.15356c-.00428-.01969.04368-.05069.06785-.07648Z"/><path class="cls-1" d="M55.08735,79.101a6.25525,6.25525,0,1,1,6.222-6.32132A6.17141,6.17141,0,0,1,55.2899,79.0994Q55.18863,79.10186,55.08735,79.101Z"/><path class="cls-1" d="M58.564,89.32949a2.33328,2.33328,0,0,1,4.66651-.02019l0,.01019a2.33328,2.33328,0,0,1-4.66654.01Z"/><path class="cls-1" d="M212.59219,152.55418a1.76948,1.76948,0,0,1-.19944-.18139c.10357-.15145.23626-.09145.36488-.02593Z"/><path class="cls-3" d="M143.11948,94.19458a22.16618,22.16618,0,0,1-5.92963,14.59929,14.43966,14.43966,0,0,1-10.57568,5.11429c-5.22526.09408-8.98384-2.46057-11.63813-6.73916-5.52453-8.90529-3.03968-22.26727,5.25856-28.69355,7.31009-5.661,16.61893-3.34829,20.82628,5.19787A22.28629,22.28629,0,0,1,143.11948,94.19458Zm-17.519-13.48174a6.66967,6.66967,0,1,0,6.63567,6.73629,6.66968,6.66968,0,0,0-6.63567-6.73629Zm3.72572,24.11362a2.40073,2.40073,0,0,0,2.28342,2.51256q.08757.00418.17529.002a2.49516,2.49516,0,0,0,.0387-4.98975,2.38584,2.38584,0,0,0-2.49651,2.26977q-.00487.10266-.00091.20545Z"/><path class="cls-5" d="M124.045,214.43008a35.32688,35.32688,0,0,1-12.43831-1.63952,11.41539,11.41539,0,0,1-3.85316-2.11412c-.45806-.39728-1.10662-.7625-.90956-1.55541.18843-.75818.78733-1.02838,1.47646-1.23266,1.79792-.53292,3.65262-.78218,5.48463-1.14063,4.83664-.94636,9.66287-1.92637,14.45773-3.08125a64.13157,64.13157,0,0,0,22.69859-10.91965c5.16269-3.74139,10.28084-7.53683,15.24541-11.53409,2.88444-2.32245,5.76071-4.66085,8.48132-7.18026.6429-.59537,1.29215-1.18668,1.97052-1.74057,3.29517-2.69054,5.39241-6.23969,7.3252-9.94715a134.48626,134.48626,0,0,1,7.86712-13.69209,11.84042,11.84042,0,0,1,1.93381-2.117,1.43565,1.43565,0,0,1,2.42581.2958,20.37726,20.37726,0,0,1,2.6261,13.35944c-.88271,7.34924-4.98766,13.17029-9.124,18.9592a83.8073,83.8073,0,0,1-11.44292,12.85,40.84133,40.84133,0,0,1-10.806,7.59775,32.18285,32.18285,0,0,0-8.8851,6.40924c-3.42709,3.27766-7.29125,5.71224-12.04492,6.38351-3.57743.50516-7.1614.981-10.75994,1.35157A100.39108,100.39108,0,0,1,124.045,214.43008Zm-14.204-4.763a9.64365,9.64365,0,0,0,3.59911,1.61907c5.82785,1.53638,11.76549,1.39285,17.691.92615,4.07593-.321,8.135-.879,12.19237-1.40265a29.65307,29.65307,0,0,0,6.63921-1.3908c3.3473-1.24571,5.892-3.61334,8.44973-5.952a30.03441,30.03441,0,0,1,7.68929-5.4305,39.67818,39.67818,0,0,0,10.5695-7.31262,88.211,88.211,0,0,0,11.61963-13.01457c3.10889-4.31871,6.09957-8.7139,7.715-13.84409a19.06242,19.06242,0,0,0-.42055-13.77218c-.24209-.55292-.21446-1.49839-.931-1.51955-.60313-.01782-.88229.8279-1.22348,1.34238-3.38,5.09683-6.14632,10.54493-9.0549,15.91076a22.74823,22.74823,0,0,1-4.31668,5.98741c-1.86392,1.745-3.73653,3.47527-5.65862,5.1566-3.32928,2.91227-6.77688,5.67705-10.24141,8.42409q-6.6059,5.23781-13.54237,10.02573a63.92438,63.92438,0,0,1-10.67518,6.37137c-8.133,3.5392-16.77269,5.22375-25.42,6.87455a28.71616,28.71616,0,0,0-4.68064,1.00083Z"/><path class="cls-5" d="M303.6098,260.93332c-.07574,4.73764-.06625,9.4834-1.20645,14.13013a4.30878,4.30878,0,0,1-.48144,1.34182c-2.04084,3.09684-3.05259,6.65744-4.56211,9.99259a11.169,11.169,0,0,1-.94528,1.6622,1.88342,1.88342,0,0,1-3.39722-.0343c-1.41531-2.36-2.74008-4.775-4.071-7.18454a116.189,116.189,0,0,1-7.15775-14.74247,80.77042,80.77042,0,0,1-4.62725-17.38566c-.34833-2.44774-.37177-4.92153-.73664-7.35646-.53436-3.56595-2.73688-6.14675-5.37018-8.38245-4.24292-3.60223-7.03308-7.96629-7.55462-13.63128a65.21267,65.21267,0,0,1,.2045-12.76223,38.33343,38.33343,0,0,1,1.96124-9.43426c.64935-1.75582,1.37884-3.50784,3.062-4.5914a2.58,2.58,0,0,1,3.77151.68837,40.37891,40.37891,0,0,1,3.99424,8.14555c1.70016,4.04141,3.07382,8.23911,5.37866,11.9955.88635,1.44456,2.18368,2.63017,3.20615,3.99924a158.08057,158.08057,0,0,1,10.4873,16.28915,97.96806,97.96806,0,0,1,6.11426,12.19466,23.63774,23.63774,0,0,1,1.72778,8.25059C303.46619,256.38773,303.60846,258.65814,303.6098,260.93332Zm-8.83716,26.15808c.54358-1.15549.99649-2.03973,1.38169-2.95255a74.05038,74.05038,0,0,1,2.94284-6.93432,11.7031,11.7031,0,0,0,1.42322-2.85968c1.10965-4.57916.94882-9.26016,1.07406-13.8996.05307-1.9657-.03836-3.98126-.16412-5.96889a22.76756,22.76756,0,0,0-1.47766-7.57058,115.04439,115.04439,0,0,0-6.12873-12.18636,174.03832,174.03832,0,0,0-10.162-15.92757c-1.17017-1.61825-2.749-2.88276-3.74057-4.64744a87.0253,87.0253,0,0,1-4.17447-9.262,86.82432,86.82432,0,0,0-4.22641-9.49765c-.99826-1.76409-1.59818-1.77832-2.72681-.02382a13.64945,13.64945,0,0,0-1.89792,4.37365,65.549,65.549,0,0,0-1.504,18.47957c.35114,5.81673,3.22593,10.11757,7.49012,13.73943a17.09412,17.09412,0,0,1,4.7547,6.21683c1.05664,2.43214.95828,5.06637,1.21536,7.62693a72.7521,72.7521,0,0,0,2.79315,13.76895,102.52759,102.52759,0,0,0,9.235,20.59931c1.24789,2.21673,2.49289,4.43518,3.89251,6.92578Z"/><path class="cls-5" d="M363.11777,267.94833a96.18892,96.18892,0,0,1-1.09387,10.11356c-.36231,2.358-.69184,4.72052-.819,7.10443a8.18875,8.18875,0,0,1-.60816,2.66687,1.51693,1.51693,0,0,1-2.61978.5423,9.72149,9.72149,0,0,1-2.4111-3.96033,27.71,27.71,0,0,0-5.97861-9.0054q-5.24021-5.665-10.41736-11.388a12.72552,12.72552,0,0,1-2.68164-5.68631c-1.12408-4.70531-3.48715-8.76831-5.96713-12.84387a64.11842,64.11842,0,0,1-7.77124-20.347,54.02022,54.02022,0,0,1-1.32877-11.7114,32.34269,32.34269,0,0,1,5.96814-18.95888,18.14554,18.14554,0,0,1,1.6835-2.017,1.43038,1.43038,0,0,1,2.49488.19444,13.52311,13.52311,0,0,1,1.76886,4.42038c1.327,4.99917,2.41253,10.05409,3.43,15.12549.57507,2.86665,2.12122,5.31169,3.64709,7.74907a134.36458,134.36458,0,0,0,8.41788,11.614,43.61071,43.61071,0,0,1,6.87763,13.7139A117.56914,117.56914,0,0,0,361.61,260.42749,19.31738,19.31738,0,0,1,363.11777,267.94833Zm-4.14456,18.23713a10.93555,10.93555,0,0,1,.31131-1.93464c.19387-4.2164,1.14852-8.34127,1.51782-12.53921.31708-3.60458.48575-7.21317-1.09955-10.56888a161.4088,161.4088,0,0,1-6.60214-17.31331,34.53739,34.53739,0,0,0-4.80173-9.5854c-3.311-4.48776-6.83707-8.82268-9.79883-13.56355a25.55189,25.55189,0,0,1-3.39368-6.97229c-.76983-2.96009-1.31829-5.9773-1.98562-8.96462a69.01419,69.01419,0,0,0-2.60471-9.79359c-.23739-.61881-.44824-.71146-.85849-.17784a29.55514,29.55514,0,0,0-6.11053,16.44259,47.88224,47.88224,0,0,0,.93045,12.47948,62.74543,62.74543,0,0,0,8.06067,21.23463c2.42038,3.87789,4.6336,7.79676,5.71133,12.30081a13.26893,13.26893,0,0,0,2.9007,6.107c3.73965,4.03683,7.49872,8.05472,11.17941,12.14654a25.627,25.627,0,0,1,4.81262,7.5098A9.92027,9.92027,0,0,0,358.97321,286.18546Z"/><path class="cls-4" d="M120.16905,235.84312c2.497-.44465,4.71628-.87283,6.94687-1.23033a129.00346,129.00346,0,0,0,14.41692-3.2743,83.13474,83.13474,0,0,0,14.12487-5.19974c3.9473-1.92835,7.27292-4.73483,10.72355-7.36318a106.44621,106.44621,0,0,0,10.88968-9.50406,91.58918,91.58918,0,0,0,10.771-12.317q3.26584-4.71951,6.60523-9.38772a13.60327,13.60327,0,0,1,1.78761-1.92737c1.18211-1.10922,2.43362-.90175,3.26243.51509,1.11574,1.90736,1.26488,4.07532,1.6776,6.18079.90274,4.60519-.39364,8.82454-2.06209,13.02041a103.89621,103.89621,0,0,1-6.874,14.59043A18.349,18.349,0,0,1,182.609,227.872c-7.98489,3.03194-16.26347,5.13851-24.33174,7.90227-3.38991,1.16118-6.619,2.78346-10.14158,3.559a38.27048,38.27048,0,0,1-27.9666-3.4901Zm6.961.81626a4.61888,4.61888,0,0,0,.49684.25828,30.61038,30.61038,0,0,0,7.354,1.46282,39.56966,39.56966,0,0,0,15.3392-1.77944c3.36211-1.13728,6.5941-2.62217,9.99394-3.66229,7.04852-2.15633,14.14436-4.16669,21.05267-6.76172,3.5291-1.32564,6.70533-3.04484,8.80137-6.41357a74.34509,74.34509,0,0,0,6.32049-12.74291c1.70928-4.468,4.005-8.832,2.97446-13.92421-.40569-2.00451-.49739-4.0771-1.58393-5.99011a22.44968,22.44968,0,0,0-4.15509,5.19885,103.75375,103.75375,0,0,1-13.71586,17.00884c-4.08418,4.05365-8.44881,7.762-12.86357,11.44269a59.16612,59.16612,0,0,1-20.90488,11.27714,158.90334,158.90334,0,0,1-19.1097,4.62563Z"/><path class="cls-4" d="M223.50258,214.6593a8.436,8.436,0,0,1,6.23463,2.59384c3.58618,3.25614,5.62142,7.48761,7.37952,11.89261,1.40788,3.52753,2.29451,7.21192,3.36748,10.841a62.27914,62.27914,0,0,0,3.4304,8.4167c1.84325,3.98419,3.83411,7.89638,5.53333,11.95186,2.14485,5.11905.90072,9.65786-2.05335,13.97534a9.87582,9.87582,0,0,1-2.766,2.78711c-1.66266,1.07449-2.76313.81317-3.74224-.92459a41.17656,41.17656,0,0,1-2.40188-5.73578c-.65026-1.71518-1.30112-3.43036-1.98095-5.13388a3.70917,3.70917,0,0,0-.70863-1.24128c-2.32062-2.3417-3.10591-5.4458-4.14543-8.39845a78.62423,78.62423,0,0,0-6.70856-13.74589,31.13769,31.13769,0,0,1-3.19053-8.976,73.11657,73.11657,0,0,1-1.3516-13.03276c-.06842-1.444.13251-2.93839.16785-4.41164.00929-.3882.2052-.51872.56239-.6353A7.56143,7.56143,0,0,1,223.50258,214.6593Zm-1.02268,5.69614a56.51847,56.51847,0,0,0,1.00791,11.03561,27.05,27.05,0,0,0,3.27138,9.68512,78.32709,78.32709,0,0,1,7.48161,15.869c.57847,1.68033,1.0081,3.47147,2.325,4.80209a9.20182,9.20182,0,0,1,1.78146,2.8035c1.50346,3.3468,2.43773,6.91824,4.06789,10.2179.464.9393.89909.93933,1.60986.31634a13.52319,13.52319,0,0,0,2.9546-3.88745,11.10573,11.10573,0,0,0,.82131-9.46091c-1.57-4.19034-3.67452-8.14145-5.57865-12.18258a63.34683,63.34683,0,0,1-3.24578-7.83992c-1.51262-4.77953-2.61458-9.694-4.74588-14.27115-1.5436-3.31507-3.28748-6.48236-6.09668-8.923a7.52081,7.52081,0,0,0-4.401-1.94677c-1.00314-.08271-1.36359.26272-1.26854,1.26649C222.54324,218.67146,222.48059,219.51666,222.4799,220.35544Z"/><path class="cls-2" d="M199.49936,53.32694c-.61911,12.49166-3.97147,24.01725-12.04385,33.86811a25.86767,25.86767,0,0,1-4.05,3.90432c-.53077.41774-1.12164.55754-1.59315-.01908-.46891-.57341-.234-1.10538.30891-1.53881,5.71822-4.56553,9.091-10.71622,11.63689-17.39162A53.08729,53.08729,0,0,0,197.462,52.39539a23.45881,23.45881,0,0,0-1.48951-8.44389c-1.93644-4.86913-5.92245-6.87672-11.082-5.56387-4.39712,1.11886-8.04339,3.61082-11.51957,6.38991a61.73177,61.73177,0,0,0-7.46656,7.09338c-.48608.54361-1.01783.85271-1.63887.323-.575-.49049-.41446-1.06668.05457-1.57232,5.11093-5.50981,10.58337-10.55577,17.68887-13.42356a13.18228,13.18228,0,0,1,9.5902-.53159c3.62423,1.28983,5.52417,4.16668,6.64466,7.65768A30.12427,30.12427,0,0,1,199.49936,53.32694Z"/><path class="cls-5" d="M76.84257,137.39868a1.278,1.278,0,0,0,1.00476-.28053c5.12269-3.25469,10.42866-6.19278,15.74378-9.1154a15.82859,15.82859,0,0,0,1.41579-.8954c2.12683-1.483,2.61421-2.79462,1.74976-5.23163-.66509-1.87494-1.51151-3.68482-2.246-5.536-1.2681-3.19587-1.82524-6.45465-.63622-9.80395a8.5977,8.5977,0,0,1,5.026-5.46121,4.568,4.568,0,0,1,5.62384,1.34715,21.48893,21.48893,0,0,1,2.9921,4.88508,59.99631,59.99631,0,0,0,4.75835,8.43238,10.49465,10.49465,0,0,0,8.49164,4.40928c4.95951.26093,9.78391-.683,14.61794-1.56a40.20687,40.20687,0,0,1,5.44273-.80416c1.82947-.078,2.96182.71074,3.24251,2.4963.37038,2.35614.22813,4.67128-2.64938,5.64282A20.50044,20.50044,0,0,0,136.973,127.972c-1.86935,1.18585-2.21,2.24014-1.6244,4.34667,1.87887,6.75893,2.83139,13.61138,1.65017,20.60779-.67427,3.99368-2.2239,7.49666-6.0254,9.5652-2.88367,1.56911-4.64654.91327-5.674-2.23388-1.24215-3.80489-1.07328-7.72673-.82478-11.641.28349-4.46525.698-8.92441.58842-13.40559-.02042-.83586-.148-1.66931-.23127-2.50336A3.55587,3.55587,0,0,0,122.127,129.44a37.7986,37.7986,0,0,0-7.403-1.378c-2.14243-.24263-4.30336-.31778-6.45069-.52363a1.51458,1.51458,0,0,0-1.56306.77077A54.94675,54.94675,0,0,1,94.29568,141.3744a26.30494,26.30494,0,0,1-10.20088,4.81882,1.62631,1.62631,0,0,0-1.05891.69071,9.264,9.264,0,0,1-1.06632-2.34963A25.20238,25.20238,0,0,0,76.84257,137.39868Z"/><path class="cls-2" d="M70.72026,171.05746a5.86937,5.86937,0,0,1-.71035-.92445c-.21891-.45549-1.10371-.78952-.51215-1.40819.74376-.77783,1.40139-.63186,2.0971.18409a20.68453,20.68453,0,0,0,4.87046,4.172c.97413.60277.27547.9905.04667,1.50289-.30471.68232-.66672.552-1.19259.21508-.60888-.39-1.2037-1.32388-1.82949-1.02772-.52322.24763-.29943,1.32265-.40272,2.02865a31.12045,31.12045,0,0,1-1.43708,6.282,16.65556,16.65556,0,0,1-11.46963,10.6695,42.188,42.188,0,0,1-16.93877,1.53158c-5.43306-.63722-8.02555-3.494-8.42113-8.95994-.2392-3.30512-.10333-6.62352-.44567-9.92507a2.35938,2.35938,0,0,0-2.01446-2.28126,41.61823,41.61823,0,0,1-8.91855-3.37168c-.39443-.20707-1.00988-.41256-.40938-1.0151.36235-.36359.28847-1.35723,1.31076-.817a49.07237,49.07237,0,0,0,17.25808,4.94259A87.9009,87.9009,0,0,0,70.407,171.21863,1.91361,1.91361,0,0,0,70.72026,171.05746Zm.60685,2.71105c.16391-.98729-.47424-.57834-.85031-.50227a103.107,103.107,0,0,1-12.43152,1.80033,78.55805,78.55805,0,0,1-21.1154-.92259c-.43842-.08473-.76989-.13157-.6615.54224a81.30529,81.30529,0,0,1,.44694,8.47961c.0822,1.485.0561,1.47657,1.48492.96872a56.51809,56.51809,0,0,1,30.62861-2.42636c.72285.14586.87632-.14326,1.07178-.70409A35.93071,35.93071,0,0,0,71.32711,173.76851Zm-2.66254,9.98367a6.33808,6.33808,0,0,0-.66586-.20856,55.65032,55.65032,0,0,0-30.21107,2.86483c-.65593.24756-.80287.53846-.612,1.22532.74965,2.698,2.98236,4.32981,6.51836,4.72144a43.39574,43.39574,0,0,0,14.36589-1.095,15.3846,15.3846,0,0,0,10.60468-7.508Z"/><path class="cls-2" d="M54.74254,146.2209a11.43074,11.43074,0,0,1,11.32355,7.92745,1.53565,1.53565,0,0,1-.33516,1.72168,6.9186,6.9186,0,0,1-6.65336,2.09,30.123,30.123,0,0,1-8.0516-2.56344,5.06623,5.06623,0,0,1-3.31371-4.5797,3.767,3.767,0,0,1,2.28045-3.61907A9.65479,9.65479,0,0,1,54.74254,146.2209Zm-.209,1.95342a8.00434,8.00434,0,0,0-2.394.33451c-1.044.285-2.15987.6442-2.4105,1.87566-.26913,1.32233.63448,2.14107,1.56411,2.877a2.7894,2.7894,0,0,0,.71608.42541,36.48487,36.48487,0,0,0,7.52242,2.32395,5.28949,5.28949,0,0,0,3.89769-.75144.90125.90125,0,0,0,.37526-1.36363c-1.8391-3.70852-4.77837-5.65378-9.27111-5.72146Z"/><path class="cls-1" d="M125.60046,80.71284a6.67019,6.67019,0,1,1-.13768-.0003q.06887-.00056.13773.0003Z"/><path class="cls-1" d="M129.32619,104.82646a2.38582,2.38582,0,0,1,2.292-2.47613q.10269-.004.20544.00091a2.49516,2.49516,0,0,1-.03869,4.98975,2.40072,2.40072,0,0,1-2.46068-2.33923Q129.322,104.9141,129.32619,104.82646Z"/><path class="cls-5" d="M109.841,209.66707a28.715,28.715,0,0,1,4.68069-1.00087c8.64727-1.6508,17.287-3.33536,25.42-6.87456a63.92438,63.92438,0,0,0,10.67518-6.37137q6.93244-4.79178,13.54238-10.02572c3.46452-2.747,6.91212-5.51183,10.24141-8.42409,1.92207-1.68134,3.79469-3.41159,5.65861-5.1566a22.7484,22.7484,0,0,0,4.31668-5.98741c2.90859-5.36583,5.67493-10.81394,9.0549-15.91077.34119-.51448.62035-1.3602,1.22348-1.34238.71651.02115.68886.96662.931,1.51955a19.06245,19.06245,0,0,1,.42055,13.77219c-1.61539,5.13017-4.60606,9.52537-7.715,13.84408a88.21053,88.21053,0,0,1-11.61963,13.01457,39.678,39.678,0,0,1-10.5695,7.31263,30.03391,30.03391,0,0,0-7.68928,5.43049c-2.55776,2.33869-5.10245,4.70632-8.44974,5.952a29.65305,29.65305,0,0,1-6.63921,1.39079c-4.05737.52367-8.11645,1.08164-12.19237,1.40265-5.92552.46672-11.86315.61023-17.691-.92615A9.6437,9.6437,0,0,1,109.841,209.66707Z"/><path class="cls-5" d="M294.77261,287.0914c-1.39965-2.4906-2.64456-4.709-3.89248-6.92578a102.52684,102.52684,0,0,1-9.235-20.59931,72.75445,72.75445,0,0,1-2.79315-13.76895c-.25708-2.56057-.15869-5.19479-1.21536-7.62693a17.09412,17.09412,0,0,0-4.7547-6.21683c-4.26419-3.62186-7.139-7.92269-7.49011-13.73943a65.549,65.549,0,0,1,1.504-18.47957,13.64945,13.64945,0,0,1,1.89792-4.37365c1.12863-1.7545,1.72855-1.74027,2.72681.02382a86.82432,86.82432,0,0,1,4.22641,9.49765,87.0313,87.0313,0,0,0,4.17447,9.262c.99154,1.76468,2.5704,3.02917,3.74057,4.64744a174.03618,174.03618,0,0,1,10.162,15.92757,115.04535,115.04535,0,0,1,6.12873,12.18636,22.76756,22.76756,0,0,1,1.47766,7.57058c.12576,1.98763.21719,4.00319.16412,5.96889-.12527,4.63947.03559,9.32044-1.07406,13.8996a11.70275,11.70275,0,0,1-1.42322,2.85968,74.05038,74.05038,0,0,0-2.94284,6.93432C295.76913,285.05167,295.31619,285.93591,294.77261,287.0914Z"/><path class="cls-5" d="M358.97321,286.18546a9.92035,9.92035,0,0,1-1.831-3.19248,25.627,25.627,0,0,0-4.81262-7.5098c-3.68073-4.09182-7.43976-8.10968-11.17941-12.14654a13.26893,13.26893,0,0,1-2.9007-6.107c-1.07773-4.50407-3.291-8.42294-5.71133-12.30082a62.74556,62.74556,0,0,1-8.06067-21.23464,47.8822,47.8822,0,0,1-.93045-12.47947,29.55517,29.55517,0,0,1,6.11053-16.4426c.41025-.53362.6211-.441.85849.17784a69.01432,69.01432,0,0,1,2.60471,9.7936c.66733,2.98732,1.21579,6.00451,1.98562,8.96461a25.55175,25.55175,0,0,0,3.39368,6.97229c2.96176,4.74088,6.48786,9.07581,9.79883,13.56355a34.53731,34.53731,0,0,1,4.80173,9.58541,161.409,161.409,0,0,0,6.60214,17.31332c1.5853,3.35571,1.41662,6.96433,1.09955,10.56888-.3693,4.19791-1.32392,8.32281-1.51783,12.53921A10.93639,10.93639,0,0,0,358.97321,286.18546Z"/><path class="cls-5" d="M127.13,236.65938a158.90208,158.90208,0,0,0,19.10962-4.62563,59.16612,59.16612,0,0,0,20.90488-11.27714c4.41477-3.6807,8.77937-7.389,12.86357-11.44269A103.75364,103.75364,0,0,0,193.724,192.30508a22.44916,22.44916,0,0,1,4.15509-5.19885c1.08653,1.913,1.17822,3.9856,1.58392,5.99011,1.03057,5.09226-1.26516,9.45618-2.97445,13.92421a74.34587,74.34587,0,0,1-6.3205,12.74291c-2.096,3.36874-5.27226,5.08793-8.80136,6.41357-6.90831,2.595-14.00415,4.60541-21.05267,6.76172-3.39985,1.04012-6.63184,2.525-9.994,3.66229a39.56964,39.56964,0,0,1-15.3392,1.77944,30.6103,30.6103,0,0,1-7.354-1.46282A4.61853,4.61853,0,0,1,127.13,236.65938Z"/><path class="cls-5" d="M222.48022,220.35571c.00037-.839.063-1.68425-.01577-2.51608-.095-1.00378.26539-1.3492,1.26854-1.26649a7.52075,7.52075,0,0,1,4.40095,1.94677c2.80921,2.44068,4.55309,5.608,6.09668,8.923,2.1313,4.57718,3.23326,9.49162,4.74588,14.27115a63.34688,63.34688,0,0,0,3.24579,7.83992c1.90414,4.04113,4.00864,7.99224,5.57864,12.18258a11.10576,11.10576,0,0,1-.8213,9.46091,13.52318,13.52318,0,0,1-2.95461,3.88745c-.71077.623-1.14582.62293-1.60986-.31634-1.63016-3.29969-2.56442-6.87113-4.06789-10.2179a9.20163,9.20163,0,0,0-1.78146-2.8035c-1.31691-1.33059-1.74654-3.12176-2.325-4.80209a78.32656,78.32656,0,0,0-7.48161-15.869,27.05023,27.05023,0,0,1-3.27138-9.68512A56.49194,56.49194,0,0,1,222.48022,220.35571Z"/><path class="cls-1" d="M71.32711,173.76851a35.93071,35.93071,0,0,1-1.42648,7.23559c-.19546.56084-.34893.85-1.07178.70409a56.51809,56.51809,0,0,0-30.62861,2.42636c-1.42882.50785-1.40272.5163-1.48492-.96872a81.30529,81.30529,0,0,0-.44694-8.47961c-.10839-.6738.22308-.627.6615-.54224a78.55805,78.55805,0,0,0,21.1154.92259,103.107,103.107,0,0,0,12.43152-1.80033C70.85287,173.19017,71.491,172.78122,71.32711,173.76851Z"/><path class="cls-1" d="M68.66457,183.7522a15.38453,15.38453,0,0,1-10.60469,7.50807,43.39582,43.39582,0,0,1-14.3659,1.095c-3.536-.39163-5.76871-2.02348-6.51836-4.72144-.19084-.68684-.04391-.97775.612-1.22532a55.65027,55.65027,0,0,1,30.21108-2.86484A6.331,6.331,0,0,1,68.66457,183.7522Z"/><path class="cls-1" d="M54.53349,148.17432c4.49274.06771,7.432,2.01294,9.27108,5.72143a.90119.90119,0,0,1-.37526,1.36363,5.28948,5.28948,0,0,1-3.89769.75144,36.48506,36.48506,0,0,1-7.52242-2.32395,2.78957,2.78957,0,0,1-.71608-.42541c-.92963-.7359-1.83324-1.55464-1.56411-2.877.25063-1.23146,1.3665-1.59064,2.4105-1.87566A8.00354,8.00354,0,0,1,54.53349,148.17432Z"/><path class="cls-6" d="M26,140.89348a12.019,12.019,0,0,0-2.02673.18316c-.39344-.03283-.79969-.0581-1.24579-.0581-8.34,0-10.34,7.67-10.34,7.67,1.68323,2.24426,4.10327,2.492,6.72632,1.98454,2.85614.4773,6.36017-.97266,9.55292-2.11291C33.33331,146.89348,34.33331,140.89348,26,140.89348Z"/><path class="cls-7" d="M26,140.89348a12.019,12.019,0,0,0-2.02673.18316c-.39344-.03283-.79969-.0581-1.24579-.0581-8.34,0-10.34,7.67-10.34,7.67,1.68323,2.24426,4.10327,2.492,6.72632,1.98454,2.85614.4773,6.36017-.97266,9.55292-2.11291C33.33331,146.89348,34.33331,140.89348,26,140.89348Z"/><path class="cls-7" d="M403.29572,198.56017c23.4486,93.33332-25.78193,133.22-25.78193,133.22l5.1579,1.44611c-7.08533-.42115-18.33838-1.44611-18.33838-1.44611s-22.29254-3.25958-26.66333-3.55334-5.84063,6.67-5.84063,6.67-.17444-.2287-.46875-.59973c-.07019-.13471-.14142-.26483-.21344-.39508.96539-4.29114,2.12921-9.55585,2.56091-11.879.52936-2.84839-.01495-3.67169-.84265-4.131a5.15765,5.15765,0,0,0-1.31043-.60059l-.01672-.00763-.004-.00018c-3.777-1.207-11.50934-.74054-15.17047-.74994-1.80933-.00458-5.29047-.21985-8.991-.49188-.18542-2.7027-.26947-4.815-.26947-4.815a106.53671,106.53671,0,0,1-13.45727,3.67657c-.89942-.13135-22.34131-3.25946-26.62024-3.54706a3.734,3.734,0,0,0-2.1933.52814c-2.13855.19745-3.54523.759-3.52307,4.34857-.47089-.05859-.92517-.12518-1.385-.18927a15.85592,15.85592,0,0,0-5.88861-5.62738c-1.14984-.89215-2.88727-.26532-4.67084.939a10.03475,10.03475,0,0,0-2.86322,1.81347,62.152,62.152,0,0,1-10.273-3.88708l-.129,6.86365c-.75586,4.902-1.346,11.60034-1.934,15.29089a21.25835,21.25835,0,0,1-.67377,2.81171c-.03717-.01264-.081-.0224-.11895-.03467l-.019-.00952-.01318.00012c-3.77973-1.20471-11.50177-.74091-15.16132-.75025-1.7002-.00433-4.87608-.19451-8.32336-.44317.85565-3.83069,1.75592-7.94989,2.124-9.93018.52942-2.84875-.01514-3.67181-.843-4.13116a5.15714,5.15714,0,0,0-1.32666-.608l-.00013-.00007h-.00012c-3.7771-1.20764-11.51251-.74078-15.17444-.75012-4.9884-.01269-22.67468-1.624-22.67468-1.624s-22.29254-3.25958-26.66333-3.55328a3.73554,3.73554,0,0,0-2.23578.55755c-1.5227.11249-2.72107.32294-3.37219,1.48352-.27148-.242-.71875-.65155-1.33679-1.25036,3.85846.10479.8565-13.99341.8565-13.99341-26.81445-40.98425-40.465-112.67737-40.465-112.67737-11.92243,5.307-11.45457,2.13322-11.45457,2.13322-2.38068,5.97626-10.96,8.66-10.96,8.66l5.38733,14.16247c6.14477,21.14527,18.50006,41.1847,26.13873,59.59581,1.1261,2.71418,2.15326,5.39423,3.03913,8.03583,1.77729,5.29968,10.87055,17.79572,18.20886,26.08447-3.06921-3.22625-6.53021-6.97021-7.77081-8.71173a31.51225,31.51225,0,0,0-4.61883-5.26684l.54022,7.72381c-.45838-5.25262-1.00537-9.97461-1.54492-10.91754l1.557,11.09052,1.03626,14.81549a17.86735,17.86735,0,0,0-1.60523-2.46533c-.46-.57172-.87115-.20844-1.2442.77819-1.1673,1.38269-1.40307,7.47388-2.47132,15.37885a53.88346,53.88346,0,0,1-4.00311,14.48846,83.298,83.298,0,0,1-4.85859,8.53351c-.454.62567-.91,1.22534-1.36578,1.78638-.49908-.04077-1.39734-.08966-.17554.21265-.24884.30194-.49749.59887-.745.88171-1.10425,1.262-3.27643,2.23712-5.93073,2.99377l-.01825-.38513-3.21363,1.1615a118.76237,118.76237,0,0,1-18.37952,1.80389s-.58985.0384-1.54815.16242c-.38367-.08307-.75855-.15472-1.11621-.20624-2.51393-.36212-5.7273,1.0332-8.65143,2.91675a14.24252,14.24252,0,0,0-6.03772,4.9071c-.40314.41645-.75977.81025-1.039,1.157-1.43946,1.78772-.5741,7.54956.437,12.17895-.28058-.19018-.434-.29968-.434-.29968l.79889,1.90173c.64532,2.72406,1.2456,4.74646,1.2456,4.74646s.3606.22083.999.59674l.422,1.0047s3.25959,1.57019,10.88575,4.96405l.00128.00055c2.1065.98462,4.32116,1.94214,6.51307,2.756.94867.35223,2.00836.66857,3.12877.96521l.34827.8291c.64539,2.724,1.24561,4.74633,1.24561,4.74633s.36053.22083.9989.59668l.42206,1.00476s3.25946,1.57013,10.88537,4.96381c2.107.98486,4.32227,1.94263,6.51471,2.75671,7.343,2.72651,20.12622,3.69129,33.80957,4.36969.66052.07013,1.32043.1402,2.007.21271,29.61036,3.1283,45.69367-3.77673,56.8335-6.13928a55.20653,55.20653,0,0,1,8.58984-1.07373c1.69922.03735,3.4657.15234,5.29419.37274,11.22431,1.35278,13.37744-.20044,15.671-1.31561h.00006a9.62811,9.62811,0,0,0,2.14972-.7558,9.149,9.149,0,0,1,1.21844-.15576c3.47077-.218,5.54206-4.813,6.5763-8.04883.61114.06482,1.218.12933,1.85125.19623a138.63472,138.63472,0,0,0,15.40619.79584c.35,1.32537.60047,2.17028.60047,2.17028s.36059.22083.999.59674l.42206,1.0047s3.25958,1.57013,10.88574,4.964l.00073.00031c2.10669.98468,4.3216,1.94232,6.51361,2.75622,7.343,2.72651,20.12622,3.69123,33.80964,4.36969.66052.07013,1.32037.1402,2.00689.21271,29.61029,3.1283,45.69367-3.77673,56.83344-6.13928a55.20653,55.20653,0,0,1,8.58984-1.07373c1.69922.03735,3.4657.15234,5.29419.37274,11.22437,1.35278,13.37744-.20044,15.671-1.31561a9.626,9.626,0,0,0,2.14966-.7558,9.14988,9.14988,0,0,1,1.21857-.15576c5.38037-.338,7.40148-11.19946,7.40148-11.19946.06-.252.07782-.32819.05646-.27582.17829-.90619.76172-4.18579,1.35718-10.99158a52.29,52.29,0,0,0-.30048-8.87769A105.43835,105.43835,0,0,0,400.6033,358.323c-.11511-.61316-.19824-1.04328-.24048-1.25934.33014-1.439,3.246-14.1687,3.98957-18.17017.52942-2.84875-.01514-3.67187-.843-4.13116a5.15718,5.15718,0,0,0-1.311-.60077l-.01574-.0072-.004-.00025c-3.77692-1.20715-11.50934-.74054-15.17059-.74987-.50769-.00129-1.15216-.0199-1.89087-.05091,12.24267-1.94854,19.6961.477,19.6961.477.28839-8.732,5.82721-42.60345,5.82721-42.60345C423.07654,239.04747,403.29572,198.56017,403.29572,198.56017Z"/><path class="cls-8" d="M185.89053,140.00689s-2.24127-13.66029-2.65116-15.77141.95523-19.79429-3.97673-19.39032c-9.48748.7771-1.22626,20.92011-.01264,30.36167,2,14.48-18.74718,22.284-13.80129,28.45118,3.65982,4.56357,16.43715-11.931,18.67927-14.093S185.89053,140.00689,185.89053,140.00689Z"/></g></svg>