<?xml version="1.0" encoding="utf-8"?>
<!-- Generator: Adobe Illustrator 27.0.1, SVG Export Plug-In . SVG Version: 6.00 Build 0)  -->
<svg version="1.1" id="Layer_1" xmlns="http://www.w3.org/2000/svg" xmlns:xlink="http://www.w3.org/1999/xlink" x="0px" y="0px"
	 viewBox="0 0 575.2 221.8" style="enable-background:new 0 0 575.2 221.8;" xml:space="preserve">
<style type="text/css">
	.st0{fill:#FFFFFF;}
	.st1{fill:#AC9565;}
</style>
<g>
	<path class="st0" d="M205.7,100c10.1,0,18.1,8,18.1,18.1c0,10.1-8,18.1-18.1,18.1s-18.1-8-18.1-18.1
		C187.6,108.1,195.6,100,205.7,100 M205.7,84.7c-18.4,0-33.4,15-33.4,33.4c0,18.4,15,33.4,33.4,33.4c18.4,0,33.4-15,33.4-33.4
		C239.1,99.8,224.1,84.7,205.7,84.7"/>
	<path class="st0" d="M127.5,146.6V89.7h15.6v21.6l17.3-21.6h17.6l-20.7,25.5l22.1,31.4h-18l-14.1-20.9l-4.3,4.5v16.4L127.5,146.6z"
		/>
	<path class="st0" d="M259.6,118.6v28H244V89.7h12.2l22.8,28.9V89.7h15.6v56.9h-12.4L259.6,118.6z"/>
	<path class="st0" d="M315.4,89.7l11.1,37.3l11-37.3H354L333,146.6h-13l-21.2-56.9H315.4z"/>
	<path class="st0" d="M398.8,133v13.6h-40.6V89.7h39.8v13.6h-24.2v8h20.7V124h-20.7v9L398.8,133z"/>
	<path class="st0" d="M417.7,89.7l10.2,24.6l10.4-24.6h17l-19.6,38.1v18.8h-15.5v-19l-19.3-37.9H417.7z"/>
	<path class="st0" d="M536.8,115.5h9.9c1,0,1.8-0.5,2.6-1.6c0.9-1.1,1.3-2.6,1.3-4.5c0-2-0.5-3.5-1.4-4.5c-1-1.1-1.9-1.6-2.9-1.6
		h-9.5L536.8,115.5z M521.2,146.6V89.7h26.1c2.8,0,5.3,0.6,7.7,1.8c2.4,1.1,4.4,2.6,6,4.5c1.7,1.8,3,3.9,4,6.3
		c1,2.4,1.4,4.7,1.4,7.1c0,3.3-0.7,6.4-2.2,9.3c-1.4,2.8-3.4,5.2-6,7l12,20.9h-17.6l-10-17.5h-5.9v17.5H521.2z"/>
	<path class="st0" d="M483.5,100c10.1,0,18.1,8,18.1,18.1c0,10.1-8,18.1-18.1,18.1c-10.1,0-18.1-8-18.1-18.1
		C465.4,108.1,473.4,100,483.5,100 M483.5,84.7c-18.4,0-33.4,15-33.4,33.4c0,18.4,15,33.4,33.4,33.4c18.4,0,33.4-15,33.4-33.4
		C516.9,99.8,501.8,84.7,483.5,84.7"/>
</g>
<g id="g6673" transform="matrix(1.1182761,0,0,1.1182761,-290.91861,37.306378)">
	<path id="rect6665" d="M272.1,74.4l26.6,0l0,10.3l-26.6,0L272.1,74.4z"/>
	<path id="rect6667" d="M321.7,74.4l26.6,0l0,10.3l-26.6,0L321.7,74.4z"/>
	<path id="rect6669" d="M296.6,27.2l26.6,0l0,10.3l-26.6,0L296.6,27.2z"/>
	<path id="path6671" class="st1" d="M288.8,23.7c-0.7,0-1.1,0.5-1.1,1.1l0,42.7c0,0.7,0.5,1.1,1.1,1.1l42.7,0c0.7,0,1.1-0.4,1.1-1.1
		l0-42.7c0-0.7-0.5-1.1-1.1-1.1L288.8,23.7z M304.7,29.8l10.8,0c1,0,1.7,0.8,1.7,1.7c0,1-0.8,1.7-1.7,1.7l-10.8,0
		c-1,0-1.7-0.8-1.7-1.7S303.8,29.8,304.7,29.8z M264.3,71.8c-0.7,0-1.1,0.5-1.1,1.1l0,42.7c0,0.7,0.4,1.1,1.1,1.1l42.7,0
		c0.7,0,1.1-0.5,1.1-1.1l0-42.7c0-0.7-0.4-1.1-1.1-1.1L264.3,71.8z M313.3,71.8c-0.7,0-1.1,0.5-1.1,1.1l0,42.7
		c0,0.7,0.5,1.1,1.1,1.1l42.7,0c0.7,0,1.1-0.5,1.1-1.1l0-42.7c0-0.7-0.4-1.1-1.1-1.1L313.3,71.8z M280.2,77.8l10.8,0
		c1,0,1.7,0.8,1.7,1.7s-0.8,1.7-1.7,1.7l-10.8,0c-1,0-1.7-0.8-1.7-1.7C278.3,78.6,279.2,77.8,280.2,77.8z M329.2,77.9l10.8,0
		c1,0,1.7,0.8,1.7,1.7s-0.8,1.7-1.7,1.7l-10.8,0c-1,0-1.7-0.8-1.7-1.7C327.5,78.6,328.2,77.9,329.2,77.9z"/>
</g>
</svg>
