<?xml version="1.0" encoding="utf-8"?>
<!-- Generator: Adobe Illustrator 27.0.1, SVG Export Plug-In . SVG Version: 6.00 Build 0)  -->
<svg version="1.1" id="Layer_1" xmlns="http://www.w3.org/2000/svg" xmlns:xlink="http://www.w3.org/1999/xlink" x="0px" y="0px"
	 viewBox="0 0 575.2 221.8" style="enable-background:new 0 0 575.2 221.8;" xml:space="preserve">
<style type="text/css">
	.st0{fill:#FFFFFF;}
</style>
<g>
	<path class="st0" d="M77.1,124h12.1c1.1,0,2,0.9,2,2s-0.9,2-2,2H77.1c-1.1,0-2-0.9-2-2S76,124,77.1,124 M22.5,124h12.1
		c1.1,0,2,0.9,2,2s-0.9,2-2,2H22.5c-1.1,0-2-0.9-2-2S21.4,124,22.5,124 M59.4,117.2c-0.7,0-1.2,0.5-1.2,1.2V166
		c0,0.7,0.5,1.2,1.2,1.2h47.5c0.7,0,1.2-0.5,1.2-1.2v-47.5c0-0.7-0.5-1.2-1.2-1.2H59.4z M4.8,117.2c-0.7,0-1.2,0.5-1.2,1.2V166
		c0,0.7,0.5,1.2,1.2,1.2h47.5c0.7,0,1.2-0.5,1.2-1.2v-47.5c0-0.7-0.5-1.2-1.2-1.2H4.8z M49.8,70.6h12.1c1.1,0,2,0.9,2,2s-0.9,2-2,2
		H49.8c-1.1,0-2-0.9-2-2S48.7,70.6,49.8,70.6 M32.1,63.8c-0.7,0-1.2,0.5-1.2,1.2v47.5c0,0.7,0.5,1.2,1.2,1.2h47.5
		c0.7,0,1.2-0.5,1.2-1.2V65c0-0.7-0.5-1.2-1.2-1.2L32.1,63.8z"/>
	<path class="st0" d="M205.7,100c10.1,0,18.1,8,18.1,18.1c0,10.1-8,18.1-18.1,18.1s-18.1-8-18.1-18.1
		C187.6,108.1,195.6,100,205.7,100 M205.7,84.7c-18.4,0-33.4,15-33.4,33.4c0,18.4,15,33.4,33.4,33.4c18.4,0,33.4-15,33.4-33.4
		C239.1,99.8,224.1,84.7,205.7,84.7"/>
	<path class="st0" d="M127.5,146.6V89.7h15.6v21.6l17.3-21.6h17.6l-20.7,25.5l22.1,31.4h-18l-14.1-20.9l-4.3,4.5v16.4L127.5,146.6z"
		/>
	<path class="st0" d="M259.6,118.6v28H244V89.7h12.2l22.8,28.9V89.7h15.6v56.9h-12.4L259.6,118.6z"/>
	<path class="st0" d="M315.4,89.7l11.1,37.3l11-37.3H354L333,146.6h-13l-21.2-56.9H315.4z"/>
	<path class="st0" d="M398.8,133v13.6h-40.6V89.7h39.8v13.6h-24.2v8h20.7V124h-20.7v9L398.8,133z"/>
	<path class="st0" d="M417.7,89.7l10.2,24.6l10.4-24.6h17l-19.6,38.1v18.8h-15.5v-19l-19.3-37.9H417.7z"/>
	<path class="st0" d="M536.8,115.5h9.9c1,0,1.8-0.5,2.6-1.6c0.9-1.1,1.3-2.6,1.3-4.5c0-2-0.5-3.5-1.4-4.5c-1-1.1-1.9-1.6-2.9-1.6
		h-9.5L536.8,115.5z M521.2,146.6V89.7h26.1c2.8,0,5.3,0.6,7.7,1.8c2.4,1.1,4.4,2.6,6,4.5c1.7,1.8,3,3.9,4,6.3
		c1,2.4,1.4,4.7,1.4,7.1c0,3.3-0.7,6.4-2.2,9.3c-1.4,2.8-3.4,5.2-6,7l12,20.9h-17.6l-10-17.5h-5.9v17.5H521.2z"/>
	<path class="st0" d="M483.5,100c10.1,0,18.1,8,18.1,18.1c0,10.1-8,18.1-18.1,18.1c-10.1,0-18.1-8-18.1-18.1
		C465.4,108.1,473.4,100,483.5,100 M483.5,84.7c-18.4,0-33.4,15-33.4,33.4c0,18.4,15,33.4,33.4,33.4c18.4,0,33.4-15,33.4-33.4
		C516.9,99.8,501.8,84.7,483.5,84.7"/>
</g>
</svg>
