<svg id="Layer_1" data-name="Layer 1" xmlns="http://www.w3.org/2000/svg" xmlns:xlink="http://www.w3.org/1999/xlink" viewBox="0 0 2513 1629.19995"><defs><style>.cls-1{fill:url(#linear-gradient);}.cls-2{fill:url(#linear-gradient-2);}.cls-14,.cls-3,.cls-4,.cls-5,.cls-7{opacity:0.8;}.cls-10,.cls-11,.cls-13,.cls-14,.cls-3,.cls-4,.cls-5,.cls-7,.cls-8,.cls-9{isolation:isolate;}.cls-3{fill:url(#linear-gradient-3);}.cls-4{fill:url(#linear-gradient-4);}.cls-5{fill:url(#linear-gradient-5);}.cls-6{fill:url(#linear-gradient-6);}.cls-7{fill:url(#linear-gradient-7);}.cls-10,.cls-11,.cls-13,.cls-8,.cls-9{opacity:0.3;}.cls-8{fill:url(#linear-gradient-8);}.cls-9{fill:url(#linear-gradient-9);}.cls-10{fill:url(#linear-gradient-10);}.cls-11{fill:url(#linear-gradient-11);}.cls-12{fill:url(#linear-gradient-12);}.cls-13{fill:url(#linear-gradient-13);}.cls-14{fill:url(#linear-gradient-14);}.cls-15{fill:url(#linear-gradient-15);}.cls-16{fill:url(#linear-gradient-16);}.cls-17{fill:#fff;}.cls-18{fill:#30b99e;}</style><linearGradient id="linear-gradient" x1="980.78909" y1="938.18845" x2="764.51664" y2="1016.90518" gradientTransform="matrix(6.09435, 1.67655, -1.67686, 6.09322, -2388.8788, -6780.4383)" gradientUnits="userSpaceOnUse"><stop offset="0.2986" stop-color="#0097ce"/><stop offset="0.3791" stop-color="#0999c5"/><stop offset="0.5119" stop-color="#229dad"/><stop offset="0.6469" stop-color="#42a38f"/><stop offset="0.7352" stop-color="#5dad82"/><stop offset="0.9239" stop-color="#a1c661"/><stop offset="1" stop-color="#bed153"/></linearGradient><linearGradient id="linear-gradient-2" x1="732.93733" y1="944.5096" x2="963.15594" y2="944.5096" gradientTransform="matrix(6.09435, 1.67655, -1.67686, 6.09322, -2388.8788, -6780.4383)" gradientUnits="userSpaceOnUse"><stop offset="0.08199" stop-color="#3d65af"/><stop offset="0.2305" stop-color="#2372b8"/><stop offset="0.5058" stop-color="#00b8bb"/></linearGradient><linearGradient id="linear-gradient-3" x1="732.84309" y1="918.92994" x2="857.90095" y2="918.92994" gradientTransform="matrix(6.09435, 1.67655, -1.67686, 6.09322, -2388.8788, -6780.4383)" gradientUnits="userSpaceOnUse"><stop offset="0.1297"/><stop offset="0.3277" stop-color="#00334b"/><stop offset="0.5276" stop-color="#006190"/><stop offset="0.6723" stop-color="#007fbb"/><stop offset="0.7457" stop-color="#008acc"/></linearGradient><linearGradient id="linear-gradient-4" x1="732.84309" y1="914.5241" x2="857.90095" y2="914.5241" xlink:href="#linear-gradient-3"/><linearGradient id="linear-gradient-5" x1="732.84309" y1="915.01171" x2="857.90095" y2="915.01171" xlink:href="#linear-gradient-3"/><linearGradient id="linear-gradient-6" x1="751.59352" y1="939.75182" x2="857.80291" y2="939.75182" gradientTransform="matrix(6.09435, 1.67655, -1.67686, 6.09322, -2388.8788, -6780.4383)" gradientUnits="userSpaceOnUse"><stop offset="0.1297" stop-color="#2483c5"/><stop offset="0.1672" stop-color="#2486c7"/><stop offset="0.676" stop-color="#29b1df"/><stop offset="0.9352" stop-color="#2bc2e8"/></linearGradient><linearGradient id="linear-gradient-7" x1="732.84309" y1="924.71843" x2="857.90095" y2="924.71843" xlink:href="#linear-gradient-3"/><linearGradient id="linear-gradient-8" x1="733.20486" y1="919.62286" x2="733.20498" y2="919.62286" gradientTransform="matrix(6.09435, 1.67655, -1.67686, 6.09322, -2388.8788, -6780.4383)" gradientUnits="userSpaceOnUse"><stop offset="0" stop-color="#682c90"/><stop offset="0.496" stop-color="#817cb9"/><stop offset="1" stop-color="#fff"/></linearGradient><linearGradient id="linear-gradient-9" x1="839.21086" y1="914.21132" x2="775.86785" y2="914.21132" xlink:href="#linear-gradient-8"/><linearGradient id="linear-gradient-10" x1="839.21086" y1="921.71194" x2="775.86785" y2="921.71194" xlink:href="#linear-gradient-8"/><linearGradient id="linear-gradient-11" x1="839.21086" y1="915.37718" x2="775.86785" y2="915.37718" xlink:href="#linear-gradient-8"/><linearGradient id="linear-gradient-12" x1="736.75774" y1="961.7099" x2="838.20706" y2="961.7099" gradientTransform="matrix(6.09435, 1.67655, -1.67686, 6.09322, -2388.8788, -6780.4383)" gradientUnits="userSpaceOnUse"><stop offset="0.1297" stop-color="#3b67ad"/><stop offset="0.5697" stop-color="#227caa"/><stop offset="0.9352" stop-color="#118aa8"/></linearGradient><linearGradient id="linear-gradient-13" x1="839.21086" y1="914.77126" x2="775.86785" y2="914.77126" xlink:href="#linear-gradient-8"/><linearGradient id="linear-gradient-14" x1="732.83794" y1="939.22795" x2="857.89581" y2="939.22795" xlink:href="#linear-gradient-3"/><linearGradient id="linear-gradient-15" x1="732.83794" y1="939.22795" x2="834.58847" y2="939.22795" gradientTransform="matrix(6.09435, 1.67655, -1.67686, 6.09322, -2388.8788, -6780.4383)" gradientUnits="userSpaceOnUse"><stop offset="0.1297" stop-color="#3a67b0"/><stop offset="0.5622" stop-color="#357fbd"/><stop offset="0.9352" stop-color="#3290c6"/></linearGradient><linearGradient id="linear-gradient-16" x1="857.94705" y1="924.98689" x2="963.18597" y2="924.98689" gradientTransform="matrix(6.09435, 1.67655, -1.67686, 6.09322, -2388.8788, -6780.4383)" gradientUnits="userSpaceOnUse"><stop offset="0.1724" stop-color="#4e5ca8"/><stop offset="0.9937" stop-color="#1fc3f3"/></linearGradient></defs><g id="layer1"><g id="g5463"><g id="g5461"><path id="path5273" class="cls-1" d="M1985.197,250.5822c-33.31932-4.64833-106.9317-6.19778-252.60665,24.0164-17.822,3.87362-34.869,6.19778-52.691,5.42307-18.59677-1.54945-38.74336-6.97252-56.56533-12.39556-79.81135-27.1153-145.67507-18.59336-184.41843,1.54945h0c-21.69631,11.62085-38.74336,26.3406-57.34019,51.13171-24.02087,32.53837-74.38724,131.70291-143.35043,158.04347h0c-38.74337,24.79111-80.58621,50.357-117.00494,86.769-23.246,24.0164-29.445,80.5712-90.65945,135.57653h0c-68.18834,99.16456-146.45,171.21382-226.26126,223.895-115.45523,80.57126-212.31364,105.36237-212.31364,105.36237s256.481,70.49984,537.75787-61.20306c213.86335-100.714,324.66939-296.71893,350.24-340.10341l139.4761-237.06522c12.39792-21.69224,34.869-49.58228,55.79042-60.42839,6.97375-3.87361,13.17272-6.19778,14.72243-7.74723,15.49734-7.74723,31.7696-13.945,48.04174-20.14278,97.63332-34.86254,199.14086-37.96144,246.4078-43.38448,6.199-1.54945,5.424-8.52194.77492-9.29668Z"/><path id="path5283" class="cls-2" d="M1985.197,250.5822c-33.31932-4.64833-106.9317-6.19778-252.60665,24.0164-17.822,3.87362-34.869,6.19778-52.691,5.42307-18.59677-1.54945-38.74336-6.97252-56.56533-12.39556-82.136-27.1153-144.90015-20.14278-184.41843,1.54945-21.69631,11.62085-38.74336,26.3406-57.34019,51.13171-24.02087,32.53837-74.38724,131.70291-143.35043,158.04347h0c-77.48673-72.82394-145.67507-134.02707-211.53878-188.25768-37.19359-29.43947-73.61239-57.32948-104.60708-77.4723C843.04268,158.39015,763.23133,109.58261,683.42,71.62119,647.77611,55.352,610.58249,40.63227,569.51453,25.13781c-17.822-5.42306-27.89522,3.09889-30.99469,17.0439-1.54973,4.64834-3.09947,17.04391,4.64921,38.73615C560.991,128.95068,587.33648,183.956,619.106,239.73607h0c11.623,20.91752,24.79575,42.60976,38.74336,64.302,64.314,100.714,144.90018,202.20269,227.03609,281.99918,17.82194,17.04388,34.869,32.53834,53.46585,47.25809a771.25057,771.25057,0,0,0,69.738,51.90642c2.32463,1.54942,13.94764,8.52194,21.69631,13.17026,15.49734,8.52194,36.41873,18.59337,49.59151,24.0164,65.08886,28.66473,121.65414,37.18673,171.24565,36.412,86.01025,2.32419,155.7483-24.79111,189.84247-70.49978,13.94764-19.36807,27.89527-39.51086,39.51828-60.42842L1619.45968,390.807c12.39792-21.69224,34.869-49.58228,55.79042-60.42839,6.97375-3.87361,13.17272-6.19777,14.72243-7.74723,14.72243-6.97252,14.72243-4.64832,30.21977-10.84613,99.183-34.86253,217.73774-47.25809,265.00457-52.68116,5.42405-.77471,4.64925-7.74723,0-8.52194Z"/><path id="path5297" class="cls-3" d="M536.97011,50.70366c0-2.32417.77487-4.64834,0-6.19779A8.4851,8.4851,0,0,1,536.97011,50.70366Z"/><path id="path5311" class="cls-4" d="M602.059,35.98393h0a6.98654,6.98654,0,0,0-3.87434-.77473c2.3246.77473,4.64921,2.32417,6.97381,3.09889C605.15842,37.53336,603.60868,36.75864,602.059,35.98393Z"/><path id="path5325" class="cls-5" d="M626.07984,46.05533c-.77487,0-2.3246-.77473-3.09947-.77473,2.3246.77473,4.64921,2.32417,6.19893,2.32417C627.62956,46.83,626.85471,46.05533,626.07984,46.05533Z"/><path id="path5337" class="cls-6" d="M1080.92689,492.29578c55.01557,6.97252,108.48142,3.0989,156.52322-15.49446h0c-46.492-43.38448-90.65944-82.89537-131.72743-118.53261h0c-20.92145-17.81866-41.068-35.63728-60.43967-51.90645-.77485-.77474-2.32462-1.54945-2.32462-2.32419-5.42405-4.64833-10.07324-8.52194-14.72243-12.39556-1.54977-.77471-2.32463-2.32416-3.09948-2.32416-37.19365-29.43947-73.61239-56.55477-103.05737-77.4723-79.03643-53.4559-158.0729-103.03817-237.88423-140.99959-6.9738-3.87361-13.9476-6.19778-21.69628-10.0714-2.32459-.77473-4.6492-2.32417-6.19893-2.32417C964.69681,225.01635,1063.105,376.08733,1080.92689,492.29578Z"/><path id="path5351" class="cls-7" d="M548.59311,95.6376h0c-2.3246-4.64834-3.87433-10.07139-6.19893-15.49446C544.71878,84.79148,546.26851,90.21454,548.59311,95.6376Z"/><path id="path5375" class="cls-8" d="M536.97011,53.02783c0-.77473,0-.77473.77487-1.54944C537.745,52.25311,537.745,52.25311,536.97011,53.02783Z"/><path id="path5385" class="cls-9" d="M570.2894,24.36308c10.07327,3.87362,19.37169,6.9725,28.67008,10.84612C588.88622,31.33558,579.5878,27.462,570.2894,24.36308Z"/><path id="path5395" class="cls-10" d="M536.97011,53.02783c0,6.19779,1.54973,15.49446,5.42407,27.1153h0C538.51985,68.52229,536.97011,59.22562,536.97011,53.02783Z"/><path id="path5405" class="cls-11" d="M651.65047,56.90145l4.6492,2.32417h0c-8.52354-3.87362-17.82194-7.74723-27.12035-11.62085,3.09946,1.54945,5.42408,2.32417,8.52354,3.87362A103.49438,103.49438,0,0,1,651.65047,56.90145Z"/><path id="path5415" class="cls-12" d="M743.08479,329.604C660.174,262.97776,581.91241,170.011,548.59311,96.41231c77.48673,196.00491,278.95222,474.13048,458.7214,588.7895,3.09948,2.3242,13.94763,8.52195,22.47116,13.17027,23.246-35.63724,65.86371-109.23593,51.14122-206.0763C970.12092,477.576,850.79135,417.14764,743.08479,329.604Z"/><path id="path5425" class="cls-13" d="M622.98037,45.2806l-16.27221-6.9725c.77487,0,1.54974.77472,2.32459.77472,3.87434,1.54945,8.52355,3.87362,13.94761,6.19779Z"/><path id="path5439" class="cls-14" d="M743.08479,329.604c107.70656,87.54369,227.03613,147.19737,337.8421,161.91712C1063.105,376.08733,964.69681,224.24161,656.29966,59.22562c-1.54973-.77473-3.87434-1.54945-4.64919-2.32417-4.64921-2.32418-9.29842-3.87362-13.17275-6.19779-3.09947-1.54944-5.42408-2.32416-8.52355-3.87362-2.32459-.77471-4.6492-2.32416-6.19893-2.32416a82.63031,82.63031,0,0,0-14.72247-5.42307c-.77487,0-1.54974-.77471-2.32461-.77471-2.3246-.77473-4.64921-2.32417-6.97381-3.0989-9.29841-3.09889-18.59681-7.74723-28.67008-10.84612-17.822-5.42306-27.89522,3.09889-31.76956,16.26919,0,.77472-.77487,2.32417-.77487,4.64834-.77487,1.54944,0,3.87361,0,6.19778,0,.77473,0,.77473-.77487,1.54945h0c0,6.19778,1.54973,15.49446,5.42407,27.1153h0A139.652,139.652,0,0,0,549.368,96.41233C581.9124,170.011,660.94885,262.97779,743.08479,329.604Z"/><path id="path5449" class="cls-15" d="M743.08479,329.604c107.70656,87.54369,227.03613,147.19737,337.8421,161.91712C1063.105,376.08733,964.69681,224.24161,656.29966,59.22562c-1.54973-.77473-3.87434-1.54945-4.64919-2.32417-4.64921-2.32418-9.29842-3.87362-13.17275-6.19779-3.09947-1.54944-5.42408-2.32416-8.52355-3.87362-2.32459-.77471-4.6492-2.32416-6.19893-2.32416a82.63031,82.63031,0,0,0-14.72247-5.42307c-.77487,0-1.54974-.77471-2.32461-.77471-2.3246-.77473-4.64921-2.32417-6.97381-3.0989-9.29841-3.09889-18.59681-7.74723-28.67008-10.84612-17.822-5.42306-27.89522,3.09889-31.76956,16.26919,0,.77472-.77487,2.32417-.77487,4.64834-.77487,1.54944,0,3.87361,0,6.19778,0,.77473,0,.77473-.77487,1.54945h0c0,6.19778,1.54973,15.49446,5.42407,27.1153h0A139.652,139.652,0,0,0,549.368,96.41233C581.9124,170.011,660.94885,262.97779,743.08479,329.604Z"/><path id="path5457" class="cls-16" d="M1985.197,250.5822c-33.31932-4.64833-106.9317-6.19778-252.60665,24.0164-17.822,3.87362-34.869,6.19778-52.691,5.42307-18.59677-1.54945-38.74336-6.97252-56.56533-12.39556-46.492-15.49446-86.01031-20.14278-117.7798-17.81862-27.89527,2.32416-54.24071,10.84613-76.71187,26.34059-16.2722,10.84614-31.76954,24.0164-46.492,44.93393-24.02087,32.53837-74.38724,131.70291-143.35044,158.0435h0c54.24071,51.13171,137.92633,93.74147,216.188,68.17565,75.1621-24.79111,121.65413-91.41734,136.37668-113.10955,30.99469-45.70866,48.04174-62.75255,49.59146-65.07674,3.87433-3.87361,32.5444-37.1867,92.20915-57.32951,88.33482-29.43947,221.61207-47.25809,253.38156-50.357,3.87434-3.0989,3.09942-10.07139-1.54971-10.84613Z"/><ellipse id="circle5459" class="cls-17" cx="1551.73362" cy="335.19986" rx="23.24678" ry="23.24245"/></g></g><path id="path5465" d="M1038.40922,1293.02669c-74.71584,0-135.57321,60.84587-135.57321,135.548v40.3631c0,74.7021,60.85737,135.548,135.57321,135.548h86.16424V1555.086h-86.16424c-45.79363,0-83.75419-36.146-86.16424-81.32865h176.54638a44.48371,44.48371,0,0,0,44.58851-44.58021C1173.37987,1353.87256,1113.12505,1293.02669,1038.40922,1293.02669ZM952.245,1423.75511c2.41022-45.18266,40.37061-81.329,86.16424-81.329s83.75419,36.146,86.16424,81.329Z"/><path id="path5467" d="M312.94187,1243.62692h36.15289v-49.39977H312.94187c-27.71718,0-53.62669,11.44645-72.90825,31.32678-18.679,19.88033-30.12741,45.7851-30.12741,73.49686v6.02445H180.98392V1354.475h28.92229v248.80584H259.3151V1354.475h66.28021v-48.79733H259.3151v-6.02444c.60255-30.12189,25.307-56.02632,53.62669-56.02632Z"/><rect id="rect5469" x="426.22083" y="1194.8296" width="49.40888" height="409.65614"/><rect id="rect5471" class="cls-18" x="2069.97076" y="1293.02669" width="49.40897" height="310.25416"/><path id="path5473" d="M773.28819,1477.37164c0,42.17044-34.34522,77.714-77.72861,77.714-42.17829,0-77.72862-34.33865-77.72862-77.714v-184.3453H569.6271v184.3453c0,69.2801,56.63948,126.5113,126.535,126.5113a126.5075,126.5075,0,0,0,126.535-126.5113v-184.3453h-49.409Z"/><path id="path5475" d="M1349.3237,1293.02669c-69.293,0-126.535,56.62876-126.535,126.5113v184.3453h49.409V1419.538c0-42.17043,34.34522-77.71432,77.72862-77.71432,42.17829,0,77.72862,34.339,77.72862,77.71432v184.3453h49.409V1419.538C1475.85907,1350.2579,1419.21925,1293.02669,1349.3237,1293.02669Z"/><path id="path5477" d="M1617.4575,1499.0593V1342.42612h66.28v-48.79733h-66.28v-98.79954h-48.80641v98.79954h-43.3834v49.39977h43.3834v156.63319c0,56.02631,45.7938,102.41386,102.43311,102.41386h21.6917v-49.39977h-21.6917a53.74042,53.74042,0,0,1-53.6267-53.61688Z"/><path id="path5479" class="cls-18" d="M2277.8494,1499.0593V1342.42612h66.28022v-48.79733H2277.8494v-98.79954h-49.409v98.79954H2185.057v49.39977h43.3834v156.63319c0,56.02631,45.79362,102.41386,102.43292,102.41386h21.6917v-49.39977h-21.6917c-28.92238,0-53.024-24.09744-53.024-53.61688Z"/><path id="path5481" class="cls-18" d="M1796.41394,1194.8296v125.90885c21.08914-16.8681,48.20385-26.50687,77.72879-26.50687,69.293,0,126.535,56.62876,126.535,126.5113v57.23156c0,69.28009-56.63965,126.5113-126.535,126.5113a126.50773,126.50773,0,0,1-126.535-126.5113V1194.8296Zm0,252.4205V1477.372c0,42.17043,34.34539,77.714,77.72879,77.714,42.17829,0,77.72845-34.33866,77.72845-77.714v-57.23155c0-42.17078-34.34505-77.71432-77.72845-77.71432-42.17846,0-77.72879,34.339-77.72879,77.71432v27.10966Z"/></g></svg>