<svg id="Layer_1" data-name="Layer 1" xmlns="http://www.w3.org/2000/svg" xmlns:xlink="http://www.w3.org/1999/xlink" viewBox="0 0 392.37338 163.89152"><defs><style>.cls-1{fill:#fff;}.cls-2{opacity:0.6;}.cls-3{clip-path:url(#clip-path);}.cls-4{clip-path:url(#clip-path-2);}</style><clipPath id="clip-path"><rect class="cls-1" x="10.36606" y="10.74546" width="37.82141" height="37.82141" transform="translate(29.16318 71.32874) rotate(-135.21268)"/></clipPath><clipPath id="clip-path-2"><rect class="cls-1" x="91.26699" y="18.24781" width="22.18446" height="22.18446" transform="translate(154.3369 122.27318) rotate(-135.21268)"/></clipPath></defs><title>grpc-horizontal-white</title><path class="cls-1" d="M45.25266,138.4832a30.334,30.334,0,0,0,10.868,8.99737,32.57655,32.57655,0,0,0,14.89977,3.38255,32.00564,32.00564,0,0,0,12.23614-2.087,21.23954,21.23954,0,0,0,8.13322-5.686,21.9319,21.9319,0,0,0,4.4631-8.42224,37.613,37.613,0,0,0,1.3674-10.29142V112.28406h-.28757A25.96224,25.96224,0,0,1,85.70381,122.073a34.63865,34.63865,0,0,1-13.96373,2.87858,36.31666,36.31666,0,0,1-13.74732-2.591,34.96818,34.96818,0,0,1-11.157-7.12528,32.78585,32.78585,0,0,1-7.48547-10.86947,34.1079,34.1079,0,0,1-2.73552-13.67543,35.77409,35.77409,0,0,1,2.59174-13.67615,35.1544,35.1544,0,0,1,7.12528-11.08442,32.13981,32.13981,0,0,1,10.79685-7.41357,34.7819,34.7819,0,0,1,13.74805-2.66363,38.4439,38.4439,0,0,1,6.40563.57586,30.33376,30.33376,0,0,1,6.76582,2.01588A31.168,31.168,0,0,1,96.93273,68.8091h.28757V57.58017h9.50134v66.79625a54.19694,54.19694,0,0,1-1.36812,11.65955,28.801,28.801,0,0,1-5.32581,11.372,30.33079,30.33079,0,0,1-11.01252,8.63864q-7.05521,3.453-18.42683,3.45372a46.28292,46.28292,0,0,1-17.994-3.30993,41.81951,41.81951,0,0,1-14.3958-10.22172Zm1.72685-48.0804a25.7937,25.7937,0,0,0,1.944,10.00386,26.28207,26.28207,0,0,0,5.3258,8.20583,25.75569,25.75569,0,0,0,7.91755,5.61483,23.29854,23.29854,0,0,0,9.86153,2.087,26.40714,26.40714,0,0,0,18.1378-7.12528,22.93428,22.93428,0,0,0,5.54294-8.13467A26.20142,26.20142,0,0,0,97.50859,90.4028,28.66066,28.66066,0,0,0,95.781,80.39748a24.03124,24.03124,0,0,0-5.039-8.20583,24.34848,24.34848,0,0,0-8.06132-5.6141A26.241,26.241,0,0,0,72.02838,64.4905a23.32049,23.32049,0,0,0-9.86153,2.08705,25.82667,25.82667,0,0,0-7.91755,5.6141,26.34081,26.34081,0,0,0-5.3258,8.20583A25.814,25.814,0,0,0,46.97951,90.4028Z"/><path class="cls-1" d="M145.44448,124.95155H135.07971V23.03069h31.38188q15.54715,0,24.5449,6.76582,8.9952,6.76873,8.99737,20.442a25.46852,25.46852,0,0,1-6.69393,17.92286q-6.69465,7.27088-19.36214,8.42078l29.36745,48.36942H190.6463L162.71886,77.59007H145.44448Zm0-56.86282h18.4261a41.42083,41.42083,0,0,0,11.73217-1.43929,21.78832,21.78832,0,0,0,7.70187-3.81463,13.93071,13.93071,0,0,0,4.17481-5.6141,18.6287,18.6287,0,0,0,1.29551-6.98222,18.24867,18.24867,0,0,0-1.29551-6.83771,14.48673,14.48673,0,0,0-4.17481-5.68672,20.36065,20.36065,0,0,0-7.70187-3.81463,43.56175,43.56175,0,0,0-11.73217-1.3674h-18.4261Z"/><path class="cls-1" d="M221.1633,23.03069h29.65576q15.54606,0,24.54344,6.76582,8.9952,6.76873,8.99737,20.442,0,13.678-8.99737,20.51387-8.99737,6.83844-24.54344,6.83771H231.5288v47.36148H221.1633Zm10.3655,45.058h16.69925a41.43135,41.43135,0,0,0,11.73216-1.43929,21.80073,21.80073,0,0,0,7.70187-3.81463,13.93554,13.93554,0,0,0,4.17409-5.6141,18.6145,18.6145,0,0,0,1.2955-6.98222,18.23448,18.23448,0,0,0-1.2955-6.83771,14.492,14.492,0,0,0-4.17409-5.68672,20.37144,20.37144,0,0,0-7.70187-3.81463,43.57286,43.57286,0,0,0-11.73216-1.3674H231.5288Z"/><path class="cls-1" d="M388.43749,108.8289a39.52988,39.52988,0,0,1-6.40491,7.34168,40.48762,40.48762,0,0,1-8.70981,5.97356,49.67506,49.67506,0,0,1-10.58044,3.95913,48.89034,48.89034,0,0,1-12.02119,1.43929,54.52194,54.52194,0,0,1-21.08828-4.0303A50.59235,50.59235,0,0,1,301.6328,95.441a55.77871,55.77871,0,0,1-4.0303-21.44992,55.78285,55.78285,0,0,1,4.0303-21.44919,50.58642,50.58642,0,0,1,28.00006-28.07122,54.509,54.509,0,0,1,21.08828-4.031,51.52506,51.52506,0,0,1,19.00268,3.74273,38.33082,38.33082,0,0,1,16.26644,12.38065l-9.06854,6.76582a24.81628,24.81628,0,0,0-4.31932-4.89445,31.53161,31.53161,0,0,0-6.26112-4.3186,39.09168,39.09168,0,0,0-7.55809-3.02309,29.242,29.242,0,0,0-8.062-1.15172A41.34487,41.34487,0,0,0,333.15919,33.54a39.88515,39.88515,0,0,0-13.17146,9.6444,42.42921,42.42921,0,0,0-8.27845,14.03634,50.29092,50.29092,0,0,0,0,33.54082,42.41113,42.41113,0,0,0,8.27845,14.03561,39.83627,39.83627,0,0,0,13.17146,9.64513,41.30106,41.30106,0,0,0,17.56195,3.599,44.50266,44.50266,0,0,0,7.98943-.71892,33.18418,33.18418,0,0,0,7.77449-2.44723,29.41506,29.41506,0,0,0,7.1979-4.6795,34.69181,34.69181,0,0,0,6.26113-7.41285Z"/><g class="cls-2"><rect class="cls-1" x="10.36606" y="10.74546" width="37.82141" height="37.82141" transform="translate(29.16318 71.32874) rotate(-135.21268)"/><g class="cls-3"><polygon class="cls-1" points="3.006 2.913 2.533 7.101 2.533 2.913 3.006 2.913"/><polygon class="cls-1" points="3.632 2.913 2.533 12.635 2.533 7.101 3.006 2.913 3.632 2.913"/><polygon class="cls-1" points="4.257 2.913 2.533 18.168 2.533 12.635 3.632 2.913 4.257 2.913"/><polygon class="cls-1" points="4.882 2.913 2.533 23.702 2.533 18.168 4.257 2.913 4.882 2.913"/><polygon class="cls-1" points="5.507 2.913 2.533 29.236 2.533 23.702 4.882 2.913 5.507 2.913"/><polygon class="cls-1" points="6.133 2.913 2.533 34.77 2.533 29.236 5.507 2.913 6.133 2.913"/><polygon class="cls-1" points="6.758 2.913 2.533 40.303 2.533 34.77 6.133 2.913 6.758 2.913"/><polygon class="cls-1" points="7.383 2.913 2.533 45.837 2.533 40.303 6.758 2.913 7.383 2.913"/><polygon class="cls-1" points="8.008 2.913 2.533 51.371 2.533 45.837 7.383 2.913 8.008 2.913"/><polygon class="cls-1" points="8.634 2.913 2.594 56.367 2.533 56.36 2.533 51.371 8.008 2.913 8.634 2.913"/><polygon class="cls-1" points="9.259 2.913 3.215 56.4 2.884 56.4 2.594 56.367 8.634 2.913 9.259 2.913"/><polygon class="cls-1" points="9.884 2.913 3.841 56.4 3.215 56.4 9.259 2.913 9.884 2.913"/><polygon class="cls-1" points="10.51 2.913 4.466 56.4 3.841 56.4 9.884 2.913 10.51 2.913"/><polygon class="cls-1" points="11.135 2.913 5.091 56.4 4.466 56.4 10.51 2.913 11.135 2.913"/><polygon class="cls-1" points="11.76 2.913 5.717 56.4 5.091 56.4 11.135 2.913 11.76 2.913"/><polygon class="cls-1" points="12.385 2.913 6.342 56.4 5.717 56.4 11.76 2.913 12.385 2.913"/><polygon class="cls-1" points="13.011 2.913 6.967 56.4 6.342 56.4 12.385 2.913 13.011 2.913"/><polygon class="cls-1" points="13.636 2.913 7.592 56.4 6.967 56.4 13.011 2.913 13.636 2.913"/><polygon class="cls-1" points="14.261 2.913 8.218 56.4 7.592 56.4 13.636 2.913 14.261 2.913"/><polygon class="cls-1" points="14.886 2.913 8.843 56.4 8.218 56.4 14.261 2.913 14.886 2.913"/><polygon class="cls-1" points="15.512 2.913 9.468 56.4 8.843 56.4 14.886 2.913 15.512 2.913"/><polygon class="cls-1" points="16.137 2.913 10.093 56.4 9.468 56.4 15.512 2.913 16.137 2.913"/><polygon class="cls-1" points="16.762 2.913 10.719 56.4 10.093 56.4 16.137 2.913 16.762 2.913"/><polygon class="cls-1" points="17.387 2.913 11.344 56.4 10.719 56.4 16.762 2.913 17.387 2.913"/><polygon class="cls-1" points="18.013 2.913 11.969 56.4 11.344 56.4 17.387 2.913 18.013 2.913"/><polygon class="cls-1" points="18.638 2.913 12.594 56.4 11.969 56.4 18.013 2.913 18.638 2.913"/><polygon class="cls-1" points="19.263 2.913 13.22 56.4 12.594 56.4 18.638 2.913 19.263 2.913"/><polygon class="cls-1" points="19.888 2.913 13.845 56.4 13.22 56.4 19.263 2.913 19.888 2.913"/><polygon class="cls-1" points="20.514 2.913 14.47 56.4 13.845 56.4 19.888 2.913 20.514 2.913"/><polygon class="cls-1" points="21.139 2.913 15.095 56.4 14.47 56.4 20.514 2.913 21.139 2.913"/><polygon class="cls-1" points="21.764 2.913 15.721 56.4 15.095 56.4 21.139 2.913 21.764 2.913"/><polygon class="cls-1" points="22.389 2.913 16.346 56.4 15.721 56.4 21.764 2.913 22.389 2.913"/><polygon class="cls-1" points="23.015 2.913 16.971 56.4 16.346 56.4 22.389 2.913 23.015 2.913"/><polygon class="cls-1" points="23.64 2.913 17.596 56.4 16.971 56.4 23.015 2.913 23.64 2.913"/><polygon class="cls-1" points="24.265 2.913 18.222 56.4 17.596 56.4 23.64 2.913 24.265 2.913"/><polygon class="cls-1" points="24.891 2.913 18.847 56.4 18.222 56.4 24.265 2.913 24.891 2.913"/><polygon class="cls-1" points="25.516 2.913 19.472 56.4 18.847 56.4 24.891 2.913 25.516 2.913"/><polygon class="cls-1" points="26.141 2.913 20.097 56.4 19.472 56.4 25.516 2.913 26.141 2.913"/><polygon class="cls-1" points="26.766 2.913 20.723 56.4 20.097 56.4 26.141 2.913 26.766 2.913"/><polygon class="cls-1" points="27.392 2.913 21.348 56.4 20.723 56.4 26.766 2.913 27.392 2.913"/><polygon class="cls-1" points="28.017 2.913 21.973 56.4 21.348 56.4 27.392 2.913 28.017 2.913"/><polygon class="cls-1" points="28.642 2.913 22.599 56.4 21.973 56.4 28.017 2.913 28.642 2.913"/><polygon class="cls-1" points="29.267 2.913 23.224 56.4 22.599 56.4 28.642 2.913 29.267 2.913"/><polygon class="cls-1" points="29.893 2.913 23.849 56.4 23.224 56.4 29.267 2.913 29.893 2.913"/><polygon class="cls-1" points="30.518 2.913 24.474 56.4 23.849 56.4 29.893 2.913 30.518 2.913"/><polygon class="cls-1" points="31.143 2.913 25.1 56.4 24.474 56.4 30.518 2.913 31.143 2.913"/><polygon class="cls-1" points="31.768 2.913 25.725 56.4 25.1 56.4 31.143 2.913 31.768 2.913"/><polygon class="cls-1" points="32.394 2.913 26.35 56.4 25.725 56.4 31.768 2.913 32.394 2.913"/><polygon class="cls-1" points="33.019 2.913 26.975 56.4 26.35 56.4 32.394 2.913 33.019 2.913"/><polygon class="cls-1" points="33.644 2.913 27.601 56.4 26.975 56.4 33.019 2.913 33.644 2.913"/><polygon class="cls-1" points="34.269 2.913 28.226 56.4 27.601 56.4 33.644 2.913 34.269 2.913"/><polygon class="cls-1" points="34.895 2.913 28.851 56.4 28.226 56.4 34.269 2.913 34.895 2.913"/><polygon class="cls-1" points="35.52 2.913 29.476 56.4 28.851 56.4 34.895 2.913 35.52 2.913"/><polygon class="cls-1" points="36.145 2.913 30.102 56.4 29.476 56.4 35.52 2.913 36.145 2.913"/><polygon class="cls-1" points="36.77 2.913 30.727 56.4 30.102 56.4 36.145 2.913 36.77 2.913"/><polygon class="cls-1" points="37.396 2.913 31.352 56.4 30.727 56.4 36.77 2.913 37.396 2.913"/><polygon class="cls-1" points="38.021 2.913 31.977 56.4 31.352 56.4 37.396 2.913 38.021 2.913"/><polygon class="cls-1" points="38.646 2.913 32.603 56.4 31.977 56.4 38.021 2.913 38.646 2.913"/><polygon class="cls-1" points="39.271 2.913 33.228 56.4 32.603 56.4 38.646 2.913 39.271 2.913"/><polygon class="cls-1" points="39.897 2.913 33.853 56.4 33.228 56.4 39.271 2.913 39.897 2.913"/><polygon class="cls-1" points="40.522 2.913 34.478 56.4 33.853 56.4 39.897 2.913 40.522 2.913"/><polygon class="cls-1" points="41.147 2.913 35.104 56.4 34.478 56.4 40.522 2.913 41.147 2.913"/><polygon class="cls-1" points="41.773 2.913 35.729 56.4 35.104 56.4 41.147 2.913 41.773 2.913"/><polygon class="cls-1" points="42.398 2.913 36.354 56.4 35.729 56.4 41.773 2.913 42.398 2.913"/><polygon class="cls-1" points="43.023 2.913 36.979 56.4 36.354 56.4 42.398 2.913 43.023 2.913"/><polygon class="cls-1" points="43.648 2.913 37.605 56.4 36.979 56.4 43.023 2.913 43.648 2.913"/><polygon class="cls-1" points="44.274 2.913 38.23 56.4 37.605 56.4 43.648 2.913 44.274 2.913"/><polygon class="cls-1" points="44.899 2.913 38.855 56.4 38.23 56.4 44.274 2.913 44.899 2.913"/><polygon class="cls-1" points="45.524 2.913 39.481 56.4 38.855 56.4 44.899 2.913 45.524 2.913"/><polygon class="cls-1" points="55.67 2.913 56.02 2.952 56.02 56.4 39.481 56.4 45.524 2.913 55.67 2.913"/></g></g><g class="cls-2"><rect class="cls-1" x="91.26699" y="18.24781" width="22.18446" height="22.18446" transform="translate(154.3369 122.27318) rotate(-135.21268)"/><g class="cls-4"><polygon class="cls-1" points="118.046 22.817 117.619 13.653 118.046 13.653 118.046 22.817"/><polygon class="cls-1" points="118.046 32.446 117.171 13.653 117.619 13.653 118.046 22.817 118.046 32.446"/><polygon class="cls-1" points="118.046 42.075 116.722 13.653 117.171 13.653 118.046 32.446 118.046 42.075"/><polygon class="cls-1" points="117.735 45.027 116.274 13.653 116.722 13.653 118.046 42.075 118.046 45.027 117.735 45.027"/><polygon class="cls-1" points="117.286 45.027 115.825 13.653 116.274 13.653 117.735 45.027 117.286 45.027"/><polygon class="cls-1" points="116.838 45.027 115.377 13.653 115.825 13.653 117.286 45.027 116.838 45.027"/><polygon class="cls-1" points="116.389 45.027 114.928 13.653 115.377 13.653 116.838 45.027 116.389 45.027"/><polygon class="cls-1" points="115.941 45.027 114.48 13.653 114.928 13.653 116.389 45.027 115.941 45.027"/><polygon class="cls-1" points="115.493 45.027 114.031 13.653 114.48 13.653 115.941 45.027 115.493 45.027"/><polygon class="cls-1" points="115.044 45.027 113.583 13.653 114.031 13.653 115.493 45.027 115.044 45.027"/><polygon class="cls-1" points="114.596 45.027 113.134 13.653 113.583 13.653 115.044 45.027 114.596 45.027"/><polygon class="cls-1" points="114.147 45.027 112.686 13.653 113.134 13.653 114.596 45.027 114.147 45.027"/><polygon class="cls-1" points="113.699 45.027 112.237 13.653 112.686 13.653 114.147 45.027 113.699 45.027"/><polygon class="cls-1" points="113.25 45.027 111.789 13.653 112.237 13.653 113.699 45.027 113.25 45.027"/><polygon class="cls-1" points="112.802 45.027 111.34 13.653 111.789 13.653 113.25 45.027 112.802 45.027"/><polygon class="cls-1" points="112.353 45.027 110.892 13.653 111.34 13.653 112.802 45.027 112.353 45.027"/><polygon class="cls-1" points="111.905 45.027 110.443 13.653 110.892 13.653 112.353 45.027 111.905 45.027"/><polygon class="cls-1" points="111.456 45.027 109.995 13.653 110.443 13.653 111.905 45.027 111.456 45.027"/><polygon class="cls-1" points="111.008 45.027 109.547 13.653 109.995 13.653 111.456 45.027 111.008 45.027"/><polygon class="cls-1" points="110.559 45.027 109.098 13.653 109.547 13.653 111.008 45.027 110.559 45.027"/><polygon class="cls-1" points="110.111 45.027 108.65 13.653 109.098 13.653 110.559 45.027 110.111 45.027"/><polygon class="cls-1" points="109.662 45.027 108.201 13.653 108.65 13.653 110.111 45.027 109.662 45.027"/><polygon class="cls-1" points="109.214 45.027 107.753 13.653 108.201 13.653 109.662 45.027 109.214 45.027"/><polygon class="cls-1" points="108.765 45.027 107.304 13.653 107.753 13.653 109.214 45.027 108.765 45.027"/><polygon class="cls-1" points="108.317 45.027 106.856 13.653 107.304 13.653 108.765 45.027 108.317 45.027"/><polygon class="cls-1" points="107.868 45.027 106.407 13.653 106.856 13.653 108.317 45.027 107.868 45.027"/><polygon class="cls-1" points="107.42 45.027 105.959 13.653 106.407 13.653 107.868 45.027 107.42 45.027"/><polygon class="cls-1" points="106.972 45.027 105.51 13.653 105.959 13.653 107.42 45.027 106.972 45.027"/><polygon class="cls-1" points="106.523 45.027 105.062 13.653 105.51 13.653 106.972 45.027 106.523 45.027"/><polygon class="cls-1" points="106.075 45.027 104.613 13.653 105.062 13.653 106.523 45.027 106.075 45.027"/><polygon class="cls-1" points="105.626 45.027 104.165 13.653 104.613 13.653 106.075 45.027 105.626 45.027"/><polygon class="cls-1" points="105.178 45.027 103.716 13.653 104.165 13.653 105.626 45.027 105.178 45.027"/><polygon class="cls-1" points="104.729 45.027 103.268 13.653 103.716 13.653 105.178 45.027 104.729 45.027"/><polygon class="cls-1" points="104.281 45.027 102.819 13.653 103.268 13.653 104.729 45.027 104.281 45.027"/><polygon class="cls-1" points="103.832 45.027 102.371 13.653 102.819 13.653 104.281 45.027 103.832 45.027"/><polygon class="cls-1" points="103.384 45.027 101.922 13.653 102.371 13.653 103.832 45.027 103.384 45.027"/><polygon class="cls-1" points="102.935 45.027 101.474 13.653 101.922 13.653 103.384 45.027 102.935 45.027"/><polygon class="cls-1" points="102.487 45.027 101.026 13.653 101.474 13.653 102.935 45.027 102.487 45.027"/><polygon class="cls-1" points="102.038 45.027 100.577 13.653 101.026 13.653 102.487 45.027 102.038 45.027"/><polygon class="cls-1" points="101.59 45.027 100.129 13.653 100.577 13.653 102.038 45.027 101.59 45.027"/><polygon class="cls-1" points="101.141 45.027 99.68 13.653 100.129 13.653 101.59 45.027 101.141 45.027"/><polygon class="cls-1" points="100.693 45.027 99.232 13.653 99.68 13.653 101.141 45.027 100.693 45.027"/><polygon class="cls-1" points="100.244 45.027 98.783 13.653 99.232 13.653 100.693 45.027 100.244 45.027"/><polygon class="cls-1" points="99.796 45.027 98.335 13.653 98.783 13.653 100.244 45.027 99.796 45.027"/><polygon class="cls-1" points="99.347 45.027 97.886 13.653 98.335 13.653 99.796 45.027 99.347 45.027"/><polygon class="cls-1" points="98.899 45.027 97.438 13.653 97.886 13.653 99.347 45.027 98.899 45.027"/><polygon class="cls-1" points="98.45 45.027 96.989 13.653 97.438 13.653 98.899 45.027 98.45 45.027"/><polygon class="cls-1" points="98.002 45.027 96.541 13.653 96.989 13.653 98.45 45.027 98.002 45.027"/><polygon class="cls-1" points="97.554 45.027 96.092 13.653 96.541 13.653 98.002 45.027 97.554 45.027"/><polygon class="cls-1" points="97.105 45.027 95.644 13.653 96.092 13.653 97.554 45.027 97.105 45.027"/><polygon class="cls-1" points="96.657 45.027 95.195 13.653 95.644 13.653 97.105 45.027 96.657 45.027"/><polygon class="cls-1" points="96.208 45.027 94.747 13.653 95.195 13.653 96.657 45.027 96.208 45.027"/><polygon class="cls-1" points="95.76 45.027 94.298 13.653 94.747 13.653 96.208 45.027 95.76 45.027"/><polygon class="cls-1" points="95.311 45.027 93.85 13.653 94.298 13.653 95.76 45.027 95.311 45.027"/><polygon class="cls-1" points="94.863 45.027 93.401 13.653 93.85 13.653 95.311 45.027 94.863 45.027"/><polygon class="cls-1" points="94.414 45.027 92.953 13.653 93.401 13.653 94.863 45.027 94.414 45.027"/><polygon class="cls-1" points="93.966 45.027 92.504 13.653 92.953 13.653 94.414 45.027 93.966 45.027"/><polygon class="cls-1" points="93.517 45.027 92.056 13.653 92.504 13.653 93.966 45.027 93.517 45.027"/><polygon class="cls-1" points="93.069 45.027 91.608 13.653 92.056 13.653 93.517 45.027 93.069 45.027"/><polygon class="cls-1" points="92.62 45.027 91.159 13.653 91.608 13.653 93.069 45.027 92.62 45.027"/><polygon class="cls-1" points="92.172 45.027 90.711 13.653 91.159 13.653 92.62 45.027 92.172 45.027"/><polygon class="cls-1" points="91.723 45.027 90.262 13.653 90.711 13.653 92.172 45.027 91.723 45.027"/><polygon class="cls-1" points="91.275 45.027 89.814 13.653 90.262 13.653 91.723 45.027 91.275 45.027"/><polygon class="cls-1" points="90.826 45.027 89.365 13.653 89.814 13.653 91.275 45.027 90.826 45.027"/><polygon class="cls-1" points="90.378 45.027 88.917 13.653 89.365 13.653 90.826 45.027 90.378 45.027"/><polygon class="cls-1" points="89.929 45.027 88.468 13.653 88.917 13.653 90.378 45.027 89.929 45.027"/><polygon class="cls-1" points="89.481 45.027 88.02 13.653 88.468 13.653 89.929 45.027 89.481 45.027"/><polygon class="cls-1" points="89.033 45.027 87.571 13.653 88.02 13.653 89.481 45.027 89.033 45.027"/><polygon class="cls-1" points="88.584 45.027 87.123 13.653 87.571 13.653 89.033 45.027 88.584 45.027"/><polygon class="cls-1" points="88.136 45.027 86.674 13.653 87.123 13.653 88.584 45.027 88.136 45.027"/><polygon class="cls-1" points="87.687 45.027 86.673 23.244 86.673 13.653 86.674 13.653 88.136 45.027 87.687 45.027"/><polygon class="cls-1" points="87.239 45.027 86.673 32.873 86.673 23.244 87.687 45.027 87.239 45.027"/><polygon class="cls-1" points="86.79 45.027 86.673 42.502 86.673 32.873 87.239 45.027 86.79 45.027"/><polygon class="cls-1" points="86.673 42.502 86.79 45.027 86.673 45.027 86.673 42.502"/></g></g><polygon class="cls-1" points="30.353 13.486 14.218 29.742 30.473 45.877 44.225 45.826 29.804 31.521 101.013 31.257 94.772 37.54 101.648 37.515 109.716 29.387 101.588 21.32 94.712 21.345 101 27.583 29.791 27.847 44.104 13.435 30.353 13.486"/></svg>