<svg xmlns="http://www.w3.org/2000/svg" role="img" viewBox="-9.99 -9.99 519.48 519.48"><style>svg {enable-background:new 0 0 500 500}</style><style>.st1{fill:#fff}</style><g id="cloudevents-blue"><path fill="#4dcef3" d="M0 0h500v500H0z"/><g id="text" transform="translate(118 284)"><path id="cloudevents" d="M17.71 29.933l2.417 3.538c-1.86 1.582-4.555 2.467-7.483 2.467-6.786 0-12.038-4.935-12.038-12.336 0-6.89 5.298-12.336 12.224-12.336 2.695 0 5.066.79 7.065 2.234l-2.324 3.77c-1.348-1.023-3.022-1.675-4.741-1.675-4.09 0-7.344 3.584-7.344 8.007 0 4.795 3.44 8.007 7.344 8.007 1.58 0 3.579-.652 4.88-1.676zM30.287.466v34.913H25.5V.466h4.787zm18.201 10.8c6.926 0 12.085 5.446 12.085 12.336s-5.16 12.336-12.085 12.336c-6.972 0-12.084-5.447-12.084-12.336s5.112-12.336 12.084-12.336zm7.205 12.336c0-4.423-3.022-8.007-7.205-8.007s-7.204 3.584-7.204 8.007c0 4.376 3.021 8.007 7.204 8.007s7.205-3.631 7.205-8.007zm31.865 11.777h-4.554l-.14-3.724c-1.766 2.747-4.601 4.283-7.622 4.283-3.115 0-5.299-1.117-6.693-2.98-1.627-2.234-2.092-5.353-2.092-8.89V11.823h4.787v11.824c0 2.142.093 4.516 1.116 6.145.697 1.117 1.952 1.816 3.858 1.816 2.51 0 5.02-1.723 6.553-4.19V11.824h4.787V35.38zM117.38.466v34.913h-4.555l-.14-3.119c-1.672 2.468-4.74 3.678-7.482 3.678-6.647 0-11.527-5.493-11.527-12.383 0-6.33 4.648-12.29 11.62-12.29 2.65 0 5.438 1.118 7.297 3.073V.466h4.787zm-4.787 18.527c-1.58-2.234-4.183-3.398-6.507-3.398-5.113 0-7.53 4.19-7.53 8.053 0 4.19 2.836 7.96 7.437 7.96 2.417 0 5.392-1.396 6.6-4.189v-8.426zm15.738 5.82c.325 3.863 2.928 7.075 7.111 7.075 3.114 0 5.392-1.164 6.832-3.724l3.347 2.188c-2.417 3.817-5.578 5.586-10.411 5.586-7.39 0-11.713-5.354-11.713-12.29 0-7.029 5.113-12.382 11.713-12.382 6.32 0 10.922 4.655 10.922 10.94 0 .837-.093 1.908-.232 2.606h-17.57zm12.828-3.679c-.186-3.212-2.556-5.865-5.856-5.865-3.626 0-5.857 2.56-6.693 5.865h12.549zm24.847-9.31h5.16l-9.296 23.555h-4.09l-8.924-23.555h5.298l5.903 17.457h.093l5.856-17.457zm12.624 12.988c.326 3.864 2.928 7.076 7.111 7.076 3.115 0 5.392-1.164 6.833-3.724l3.346 2.188c-2.417 3.817-5.577 5.586-10.411 5.586-7.39 0-11.713-5.354-11.713-12.29 0-7.029 5.113-12.382 11.713-12.382 6.321 0 10.923 4.655 10.923 10.94 0 .837-.093 1.908-.233 2.606H178.63zm12.828-3.678c-.186-3.212-2.556-5.865-5.856-5.865-3.625 0-5.856 2.56-6.693 5.865h12.55zm11.09-9.31h4.555l.14 3.724c1.766-2.746 4.601-4.282 7.622-4.282 3.114 0 5.299 1.117 6.693 2.979 1.627 2.234 2.092 5.353 2.092 8.891V35.38h-4.788V23.555c0-2.141-.093-4.515-1.115-6.145-.697-1.117-1.952-1.815-3.858-1.815-2.51 0-5.02 1.722-6.553 4.19v15.594h-4.788V11.824zm40.372 4.143h-6.46V26.21c0 .605 0 1.163.046 1.862.14 2.234.883 3.538 2.974 3.538 1.023 0 1.906-.28 2.65-.652l1.394 3.77c-1.255.699-3.068 1.118-4.694 1.118-3.393 0-5.531-1.583-6.461-4.004-.511-1.303-.697-2.932-.697-4.655v-11.22h-3.068v-4.143h3.068l.232-5.54h4.555v5.54h6.46v4.143zm20.06-2.001l-2.789 3.025c-1.069-.977-2.974-1.815-4.648-1.815-1.905 0-3.207 1.117-3.207 2.793 0 1.722 2.138 2.56 4.323 3.445 3.067 1.21 6.879 2.886 6.879 7.076 0 5.26-4.183 7.448-8.645 7.448-3.347 0-6.414-1.304-8.46-3.77l3.161-2.747c1.627 1.676 3.254 2.56 5.252 2.56 2.045 0 3.904-1.024 3.904-3.212 0-1.816-2.138-2.653-4.462-3.585-3.067-1.256-6.553-2.653-6.553-6.843 0-4.794 3.765-7.075 7.808-7.075 2.79 0 5.485.93 7.437 2.7z" class="st1"/></g><g id="icon" transform="translate(171 150)"><path id="Fill-1" d="M118.133 92.475c11.936 0 24.904-7.86 27.82-19.525 3.346-13.395-4.498-27.198-17.659-31.054-2.518-.738-5.103-.978-7.718-.973-3.844.006-7.687.001-11.635.001.269-9.818-3.196-17.923-10.962-23.957-4.952-3.848-10.653-5.649-16.892-5.448-7.069.227-13.173 2.898-18.187 7.928-5 5.017-7.61 11.153-8.084 18.076L44 33.79c.964-11.95 10.619-28.454 29.335-32.787 21.349-4.942 41.134 8.994 45.778 28.596 1.774 0 3.62-.174 5.424.028 14.493 1.626 24.772 9.242 30.5 22.633 7.08 16.545 1.066 36.032-13.717 45.724-6.145 4.03-15.847 6-23.158 6.017" class="st1"/><path id="Fill-3" d="M109.556 103.932s-17.537.13-31.968.03c-15.179-.106-27.425-9.847-31.207-23.09-3.284-11.498-.648-21.8 7.243-30.756 5.02-5.7 11.249-9.352 18.783-10.651 12.704-2.19 25.49 3.483 32.334 14.379 4.417 7.033 6.073 14.681 4.887 22.92-.074.517-.194.79-.805.79-10.25-.018-20.5-.013-30.75-.016-.144 0-.288-.031-.51-.057-.017-.308-.047-.595-.047-.882-.004-3.16-.004-6.318-.002-9.477.001-1.282.142-1.416 1.448-1.416h18.515c-.163-.508-.263-.93-.43-1.323-3.034-7.135-8.373-11.57-16.012-12.842-7.659-1.275-14.346.992-19.377 6.972-7.737 9.197-5.315 23.845 4.84 30.464 3.498 2.28 7.322 3.412 11.507 3.408 14.284-.014 31.522-.003 31.522-.003l.029 11.55" class="st1"/><path id="Fill-4" d="M39.895 89.857l7.08 8.958C37.193 104.972 20.7 105.21 9.2 93.558-2.41 81.795-3.133 62.912 7.609 50.207 18.5 37.322 35.812 36.375 47 43.167l-7.105 8.969c-5.532-2.399-11.325-2.48-17.054.235-3.852 1.826-6.827 4.654-8.936 8.38a20.758 20.758 0 0 0 2.44 23.943c5.542 6.334 14.816 9.051 23.55 5.163" class="st1"/></g></g></svg>