<?xml version="1.0" encoding="utf-8"?>
<!-- Generator: Adobe Illustrator 21.1.0, SVG Export Plug-In . SVG Version: 6.00 Build 0)  -->
<svg version="1.1" id="Layer_1" xmlns="http://www.w3.org/2000/svg" xmlns:xlink="http://www.w3.org/1999/xlink" x="0px" y="0px"
	 viewBox="0 0 792 348" style="enable-background:new 0 0 792 348;" xml:space="preserve">
<style type="text/css">
	.st0{opacity:0.8;}
	.st1{clip-path:url(#SVGID_2_);fill:#FFFFFF;}
	.st2{clip-path:url(#SVGID_4_);fill:#FFFFFF;}
	.st3{fill:#FFFFFF;}
	.st4{fill-rule:evenodd;clip-rule:evenodd;fill:#FFFFFF;}
	.st5{opacity:0.8;fill:#FFFFFF;}
	.st6{clip-path:url(#SVGID_6_);fill:#FFFFFF;}
</style>
<g class="st0">
	<g>
		<defs>
			<rect id="SVGID_1_" x="536.3" y="314.9" width="246.3" height="1.3"/>
		</defs>
		<use xlink:href="#SVGID_1_"  style="overflow:visible;fill:#FFFFFF;"/>
		<clipPath id="SVGID_2_">
			<use xlink:href="#SVGID_1_"  style="overflow:visible;"/>
		</clipPath>
		<rect x="536.3" y="314.9" class="st1" width="246.3" height="1.3"/>
	</g>
</g>
<g class="st0">
	<g>
		<defs>
			<rect id="SVGID_3_" x="6.5" y="314.9" width="240.8" height="1.3"/>
		</defs>
		<use xlink:href="#SVGID_3_"  style="overflow:visible;fill:#FFFFFF;"/>
		<clipPath id="SVGID_4_">
			<use xlink:href="#SVGID_3_"  style="overflow:visible;"/>
		</clipPath>
		<rect x="6.5" y="314.9" class="st2" width="240.8" height="1.3"/>
	</g>
</g>
<path class="st3" d="M224.4,229.4c1.3-0.4,3-0.7,5.1-1.1c2.1-0.3,4.3-0.5,6.6-0.5c2.3,0,4.3,0.3,5.8,0.9c1.6,0.6,2.8,1.5,3.7,2.6
	c0.9,1.1,1.6,2.4,1.9,4s0.6,3.2,0.6,5.1V256h-7.8v-14.6c0-2.5-0.3-4.3-1-5.3c-0.7-1-1.9-1.6-3.7-1.6c-0.6,0-1.2,0-1.8,0.1
	c-0.6,0.1-1.2,0.1-1.7,0.2V256h-7.8V229.4z M210,242.2c0-2.4-0.5-4.3-1.4-5.7c-1-1.4-2.3-2.1-4.1-2.1s-3.2,0.7-4.1,2.1
	c-1,1.4-1.5,3.3-1.5,5.7c0,2.4,0.5,4.3,1.5,5.7c1,1.4,2.4,2.1,4.1,2.1s3.2-0.7,4.1-2.1C209.5,246.5,210,244.6,210,242.2 M218,242.2
	c0,2.2-0.3,4.1-0.9,5.9c-0.6,1.8-1.5,3.3-2.7,4.6c-1.2,1.3-2.6,2.3-4.3,3c-1.7,0.7-3.5,1-5.6,1c-2,0-3.9-0.3-5.5-1
	c-1.7-0.7-3.1-1.7-4.3-3c-1.2-1.3-2.1-2.8-2.8-4.6c-0.7-1.8-1-3.8-1-5.9c0-2.2,0.3-4.1,1-5.9c0.7-1.8,1.6-3.3,2.8-4.6
	c1.2-1.3,2.6-2.2,4.3-2.9c1.7-0.7,3.5-1,5.4-1c2,0,3.8,0.3,5.5,1c1.7,0.7,3.1,1.7,4.3,2.9c1.2,1.3,2.1,2.8,2.8,4.6
	C217.6,238.1,218,240,218,242.2 M175.6,256.8c-5.9,0-10.4-1.6-13.5-4.9c-3.1-3.3-4.6-7.9-4.6-14c0-3,0.5-5.7,1.4-8
	c0.9-2.4,2.2-4.3,3.9-6c1.6-1.6,3.6-2.9,5.9-3.7c2.3-0.8,4.7-1.3,7.4-1.3c1.5,0,2.9,0.1,4.2,0.3c1.3,0.2,2.4,0.5,3.3,0.8
	c0.9,0.3,1.7,0.6,2.4,0.9c0.6,0.3,1.1,0.6,1.4,0.7l-2.4,6.6c-1.1-0.6-2.4-1.1-3.9-1.5c-1.5-0.4-3.2-0.6-5.1-0.6
	c-1.3,0-2.5,0.2-3.7,0.6c-1.2,0.4-2.3,1.1-3.2,2c-0.9,0.9-1.7,2.1-2.2,3.6c-0.6,1.5-0.8,3.2-0.8,5.3c0,1.7,0.2,3.2,0.6,4.7
	c0.4,1.4,1,2.7,1.8,3.7c0.8,1,1.9,1.9,3.2,2.5c1.3,0.6,2.9,0.9,4.8,0.9c1.2,0,2.3-0.1,3.2-0.2c0.9-0.1,1.8-0.3,2.5-0.5
	c0.7-0.2,1.4-0.4,1.9-0.7c0.6-0.2,1.1-0.5,1.5-0.7l2.3,6.5c-1.2,0.7-2.8,1.3-4.9,1.9C180.7,256.5,178.3,256.8,175.6,256.8
	 M144.5,239.5c0-0.7-0.1-1.3-0.3-1.9c-0.2-0.6-0.5-1.2-0.9-1.7c-0.4-0.5-0.9-0.9-1.5-1.2c-0.6-0.3-1.4-0.5-2.3-0.5
	c-0.9,0-1.6,0.1-2.3,0.4c-0.6,0.3-1.2,0.7-1.6,1.2c-0.4,0.5-0.7,1.1-1,1.7c-0.2,0.6-0.4,1.3-0.5,2H144.5z M126.2,242.5
	c0-2.4,0.4-4.6,1.1-6.4c0.8-1.8,1.7-3.4,3-4.6c1.2-1.2,2.6-2.1,4.2-2.8c1.6-0.6,3.2-0.9,4.9-0.9c3.9,0,7,1.2,9.3,3.6
	c2.3,2.4,3.4,5.9,3.4,10.6c0,0.5,0,1-0.1,1.5c0,0.5-0.1,1-0.1,1.4h-17.7c0.2,1.6,0.9,2.9,2.3,3.8c1.3,0.9,3.1,1.4,5.3,1.4
	c1.4,0,2.8-0.1,4.2-0.4c1.4-0.3,2.5-0.6,3.4-1l1,6.3c-0.4,0.2-1,0.4-1.7,0.6c-0.7,0.2-1.5,0.4-2.3,0.6c-0.9,0.2-1.8,0.3-2.8,0.4
	c-1,0.1-2,0.2-2.9,0.2c-2.5,0-4.6-0.4-6.5-1.1c-1.8-0.7-3.4-1.7-4.6-3c-1.2-1.3-2.1-2.8-2.7-4.5
	C126.5,246.4,126.2,244.5,126.2,242.5 M121,242.3c0,2.2-0.3,4.2-1,6c-0.6,1.8-1.6,3.3-2.8,4.6c-1.2,1.3-2.7,2.2-4.5,2.9
	c-1.8,0.7-3.8,1-6.1,1c-0.9,0-1.9,0-3-0.1c-1-0.1-2-0.2-3-0.3c-1-0.1-1.9-0.3-2.9-0.5c-0.9-0.2-1.7-0.4-2.4-0.6v-38.5l7.8-1.3v13.7
	c0.9-0.4,1.8-0.7,2.7-0.9c0.9-0.2,2-0.3,3-0.3c2,0,3.7,0.3,5.2,1c1.5,0.7,2.8,1.7,3.8,2.9c1,1.3,1.8,2.8,2.3,4.5
	C120.8,238.1,121,240.1,121,242.3 M113.1,242c0-5-1.8-7.5-5.6-7.5c-0.8,0-1.6,0.1-2.4,0.3c-0.8,0.2-1.4,0.5-1.9,0.8v14.2
	c0.4,0.1,0.9,0.1,1.5,0.2c0.6,0.1,1.2,0.1,1.9,0.1c2.1,0,3.7-0.7,4.8-2.2C112.5,246.4,113.1,244.5,113.1,242 M87.7,255.1
	c-1.3,0.4-3,0.7-5.1,1.1c-2.1,0.3-4.3,0.5-6.6,0.5c-2.3,0-4.3-0.3-5.8-0.9c-1.6-0.6-2.8-1.5-3.7-2.6c-0.9-1.1-1.6-2.5-1.9-4.1
	c-0.4-1.6-0.6-3.3-0.6-5.2v-15.3h7.8v14.4c0,2.5,0.3,4.3,1,5.4c0.7,1.1,1.9,1.7,3.7,1.7c0.6,0,1.2,0,1.8-0.1
	c0.6-0.1,1.2-0.1,1.7-0.2v-21.3h7.8V255.1z M51.7,256c-0.7-1.2-1.6-2.5-2.6-3.9c-1-1.4-2.1-2.8-3.2-4.1c-1.2-1.4-2.4-2.7-3.6-4
	c-1.3-1.3-2.5-2.4-3.8-3.4V256h-8.2v-36.3h8.2v13.7c2.1-2.2,4.3-4.6,6.4-7c2.1-2.4,4.1-4.7,6-6.7h9.7c-2.5,2.9-5,5.8-7.5,8.5
	c-2.5,2.7-5.1,5.5-7.9,8.2c2.9,2.4,5.7,5.3,8.4,8.6c2.7,3.3,5.3,7,7.8,11H51.7z"/>
<path class="st4" d="M117.2,95.9l-4.5,1c0-0.6-0.1-1.3-0.1-1.9c0-4.8,1.3-9.5,3.8-13.6l8.8,7.8c0.2,0.1,0.3,0.3,0.5,0.4
	c-0.5,1.3-0.9,2.7-1,4.2c-0.3,0.1-0.6,0.2-0.9,0.2L117.2,95.9z M134.2,69.2v12.3c-1.2,0.4-2.4,1-3.4,1.7c-0.4-0.3-0.8-0.6-1.2-0.9
	l-8.9-6.3C124.5,72.4,129.2,70.1,134.2,69.2 M73,97.6c4.3-18.8,7.9-34.6,12.2-53.4c1.9-8.5,3.2-10.7,10.8-15
	c10.6-6.1,18.5-10.6,29.8-17.1c7.1-4.1,8.4-3.8,8.4,4.9v43.6c-7.9,1-15.2,4.7-20.7,10.5l-3.8-2.7c-0.5-0.3-0.7-0.7-0.9-1.2
	c-0.5-1.3-0.8-2.1-2-3c-1.8-1.4-4.4-1.1-5.8,0.7c-1.4,1.8-1.1,4.4,0.7,5.8c0.6,0.5,1.3,0.9,2,1.1c0.5,0.1,1,0.2,1.5,0.2
	c0.5,0.1,0.8,0.2,1.1,0.5l3.5,3.2C106,81.2,104,88,104,94.9c0,1.2,0.1,2.5,0.2,3.7l-7.6,1.6c-0.5,0-1,0-1.6,0.1
	c-0.4,0.1-0.8,0.2-1.1,0.4c-5,1.1-10,2.1-15.2,3.3C71.7,105.6,71.5,104.2,73,97.6 M143.2,81.5V69.2c5.1,0.9,9.7,3.2,13.5,6.8
	l-9.7,6.9c-0.1,0.1-0.3,0.2-0.4,0.3C145.5,82.5,144.4,81.9,143.2,81.5 M164.8,96l-12.1-2.8c-0.2-1.3-0.5-2.6-1-3.8
	c0.1-0.1,0.2-0.2,0.3-0.3l8.9-7.9c2.5,4.1,3.9,8.8,3.9,13.7C164.8,95.3,164.8,95.6,164.8,96 M149.1,29.4c6.5,3.1,11.3,5.4,17.8,8.6
	c9.1,4.4,18.2,8.8,27.3,13.1c2.2,9.8,4.5,19.7,6.7,29.5c1.3,5.9,2.1,9,3.4,14.9c2.1,9.2,1.9,9.9-7.6,7.8L173.4,98
	c0.1-1,0.1-2,0.1-3.1c0-7-2.1-13.8-6-19.5l3.3-3c0.4-0.4,0.8-0.5,1.4-0.6c1.4-0.2,2.2-0.3,3.4-1.3c1.8-1.4,2.1-4,0.7-5.8
	c-1.4-1.8-4-2.1-5.8-0.7c-0.6,0.5-1.1,1.1-1.5,1.8c-0.2,0.5-0.4,0.9-0.6,1.4c-0.2,0.4-0.4,0.7-0.8,1l-3.8,2.7
	c-5.5-5.7-12.8-9.4-20.6-10.4V33.8C143.2,27.6,143.8,26.9,149.1,29.4 M141.1,108.8c-0.8,0.1-1.6,0.2-2.4,0.2c-0.8,0-1.5-0.1-2.2-0.2
	c-0.1,0.3-0.3,0.5-0.4,0.8l-5.6,10.1c2.7,0.9,5.4,1.3,8.3,1.3c2.9,0,5.7-0.5,8.4-1.4l-5.5-10C141.4,109.3,141.3,109,141.1,108.8
	 M150.9,102l12,2.8c-2,4.9-5.4,9-9.8,11.9l-4.8-11.5C149.3,104.2,150.2,103.2,150.9,102 M114.5,104.7l12-2.8
	c0.7,1.2,1.6,2.3,2.6,3.2c-0.1,0.3-0.2,0.5-0.3,0.8l-4.5,10.8C120,113.8,116.5,109.6,114.5,104.7 M213.4,125.9
	c-5.8,7.2-8.4,10.5-14.2,17.8c-6.5,8.2-11.8,14.8-18.4,23.1c-4.7,5.9-8,6.1-15.8,6.1h-26.4h-26.5c-10.1,0-10.8,0-17-7.8
	c-6.1-7.7-10.9-13.7-17-21.4c-4.8-6-6-7.5-10.8-13.6c-7.5-9.3-8.7-12.7,2.9-15.3l35.7-8.2c2.7,7.6,8.1,14,15,18.2l-1.6,3.8
	c-0.2,0.6-0.5,0.8-1,1.2c-1.2,0.8-1.8,1.3-2.5,2.6c-1,2.1-0.1,4.5,1.9,5.5c2.1,1,4.5,0.1,5.5-1.9c0.3-0.7,0.5-1.4,0.6-2.2
	c0-0.5-0.1-1-0.1-1.5c0-0.5,0-0.8,0.3-1.2l2-3.7c4,1.5,8.2,2.3,12.5,2.3c4.3,0,8.6-0.8,12.6-2.4l2,3.6c0.3,0.5,0.3,0.9,0.3,1.5
	c-0.1,1.4-0.2,2.2,0.5,3.6c1,2.1,3.5,2.9,5.5,1.9c2.1-1,2.9-3.5,1.9-5.5c-0.3-0.7-0.8-1.3-1.4-1.8c-0.4-0.3-0.8-0.6-1.2-0.9
	c-0.4-0.3-0.6-0.5-0.8-1l-1.7-4c6.9-4.1,12.2-10.5,14.9-18.1l39.4,9C218.5,117.4,218,120.2,213.4,125.9"/>
<path class="st4" d="M143.2,81.5V69.2c5.1,0.9,9.7,3.2,13.5,6.8l-9.7,6.9c-0.1,0.1-0.3,0.2-0.4,0.3
	C145.5,82.5,144.4,81.9,143.2,81.5 M164.8,96l-12.1-2.8c-0.2-1.3-0.5-2.6-1-3.8c0.1-0.1,0.2-0.2,0.3-0.3l8.9-7.9
	c2.5,4.1,3.9,8.8,3.9,13.7C164.8,95.3,164.8,95.6,164.8,96 M149.1,29.4c6.5,3.1,11.3,5.4,17.8,8.6c9.1,4.4,18.2,8.8,27.3,13.1
	c2.2,9.8,4.5,19.7,6.7,29.5c1.3,5.9,2.1,9,3.4,14.9c2.1,9.2,1.9,9.9-7.6,7.8L173.4,98c0.1-1,0.1-2,0.1-3.1c0-7-2.1-13.8-6-19.5
	l3.3-3c0.4-0.4,0.8-0.5,1.4-0.6c1.4-0.2,2.2-0.3,3.4-1.3c1.8-1.4,2.1-4,0.7-5.8c-1.4-1.8-4-2.1-5.8-0.7c-0.6,0.5-1.1,1.1-1.5,1.8
	c-0.2,0.5-0.4,0.9-0.6,1.4c-0.2,0.4-0.4,0.7-0.8,1l-3.8,2.7c-5.5-5.7-12.8-9.4-20.6-10.4V33.8C143.2,27.6,143.8,26.9,149.1,29.4
	 M150.9,102l12,2.8c-2,4.9-5.4,9-9.8,11.9l-4.8-11.5C149.3,104.2,150.2,103.2,150.9,102 M138.7,121V109c0.8,0,1.6-0.1,2.4-0.2
	c0.2,0.3,0.3,0.6,0.5,0.9l5.5,10C144.4,120.6,141.6,121,138.7,121 M213.4,125.9c-5.8,7.2-8.4,10.5-14.2,17.8
	c-6.5,8.2-11.8,14.8-18.4,23.1c-4.7,5.9-8,6.1-15.8,6.1h-26.4v-43.2c4.3,0,8.6-0.8,12.6-2.4l2,3.6c0.3,0.5,0.3,0.9,0.3,1.5
	c-0.1,1.4-0.2,2.2,0.5,3.6c1,2.1,3.5,2.9,5.5,1.9c2.1-1,2.9-3.5,1.9-5.5c-0.3-0.7-0.8-1.3-1.4-1.8c-0.4-0.3-0.8-0.6-1.2-0.9
	c-0.4-0.3-0.6-0.5-0.8-1l-1.7-4c6.9-4.1,12.2-10.5,14.9-18.1l39.4,9C218.5,117.4,218,120.2,213.4,125.9"/>
<polygon class="st3" points="505.5,124.4 484.6,124.4 484.6,173.3 533.4,173.3 533.4,152.4 505.5,152.4 "/>
<polygon class="st3" points="610.2,124.6 610.2,152.4 582.4,152.4 582.3,152.2 582.3,173.3 631.1,173.3 631.1,124.4 610,124.4 "/>
<polygon class="st3" points="484.6,75.6 505.7,75.6 505.5,75.4 505.5,47.7 505.5,47.7 533.3,47.7 533.4,47.9 533.4,26.8 484.6,26.8 
	"/>
<polygon class="st3" points="582.3,26.8 582.3,47.7 610.2,47.7 610.2,75.6 631.1,75.6 631.1,26.8 "/>
<polygon class="st5" points="579.7,75.6 551.8,47.7 582.3,47.7 582.3,26.8 533.4,26.8 533.4,47.9 561.2,75.6 "/>
<polygon class="st5" points="554.5,124.4 536,124.4 559.1,147.6 563.9,152.4 554.4,152.4 533.4,152.4 533.4,173.3 582.3,173.3 
	582.3,152.2 568.4,138.3 "/>
<polygon class="st5" points="610.2,75.6 610.2,96.5 610.2,106.1 605.4,101.3 582.3,78.2 582.3,96.7 596.1,110.6 610,124.4 
	631.1,124.4 631.1,75.6 "/>
<polygon class="st5" points="533.4,103.4 505.7,75.6 484.6,75.6 484.6,124.4 505.5,124.4 505.5,94 533.4,121.9 "/>
<path class="st3" d="M382.4,226.6l-5.3,6.3c-2.4-2.9-5.9-4.7-9.1-4.7c-5.7,0-10,4.5-10,10.4c0,6,4.3,10.6,10,10.6
	c3,0,6.5-1.6,9.1-4.2l5.4,5.7c-3.9,4-9.6,6.6-14.9,6.6c-10.9,0-18.9-8-18.9-18.5c0-10.4,8.3-18.2,19.3-18.2
	C373.3,220.5,378.8,222.8,382.4,226.6z"/>
<path class="st3" d="M386.9,256.8v-38.2h8.9v38.2H386.9z"/>
<path class="st3" d="M431.1,242.9c0,8.5-6.1,14.2-15.1,14.2c-9.1,0-15.2-5.7-15.2-14.2s6.1-14.2,15.2-14.2
	C425.1,228.8,431.1,234.4,431.1,242.9z M409.8,243c0,4.3,2.5,7.2,6.2,7.2c3.7,0,6.2-2.9,6.2-7.2c0-4.3-2.5-7.2-6.2-7.2
	C412.3,235.8,409.8,238.8,409.8,243z"/>
<path class="st3" d="M463,256.8H454v-4.6c-1.9,3.3-5,4.9-9,4.9c-6,0-9.9-4.1-9.9-10.6v-17.5h8.9v15c0,3.3,1.8,5.3,4.6,5.3
	c3.4-0.1,5.4-2.8,5.4-6.6v-13.7h8.9V256.8z"/>
<path class="st3" d="M498,256.8h-8.9v-3.7c-2,2.6-4.8,4-8.3,4c-7.8,0-13-5.8-13-14.4c0-8.5,5.1-14.1,12.8-14.1c3.7,0,6.6,1.4,8.5,4
	v-14.1h8.9V256.8z M489.1,243c0-4.3-2.5-7.2-6.2-7.2c-3.7,0-6.2,2.9-6.2,7.2c0.1,4.3,2.5,7.3,6.2,7.3
	C486.6,250.3,489.1,247.3,489.1,243z"/>
<path class="st3" d="M530.6,256.8L514,234.6v22.2h-8.6v-36h8.1l16.6,22.2v-22.2h8.5v36H530.6z"/>
<path class="st3" d="M570.4,238.7v18.1h-8.7v-3.2c-1.8,2.4-4.7,3.6-8.5,3.6c-5.9,0-9.5-3.6-9.5-8.7c0-5.3,3.8-8.3,10.7-8.4h7.3v-0.4
	c0-2.7-1.8-4.4-5.4-4.4c-2.3,0-5.4,0.8-8.3,2.3l-2.5-5.9c4.3-2,8.2-3.1,12.9-3.1C565.9,228.7,570.3,232.4,570.4,238.7z M561.6,247.4
	v-2.5H556c-2.7,0-4,0.9-4,3c0,2,1.4,3.3,3.9,3.3C558.7,251.2,561.1,249.7,561.6,247.4z"/>
<path class="st3" d="M594.4,255.3c-2,1.2-4.7,1.9-7.4,1.9c-5.4,0-9.2-3-9.2-8.8v-12.3h-3.9v-5.8h3.9v-7.7h8.9v7.7h7.3v5.9h-7.3V247
	c0,2.2,0.9,3.1,2.6,3c0.9,0,2.1-0.4,3.4-0.9L594.4,255.3z"/>
<path class="st3" d="M608,221.1c0,2.8-2,4.7-4.7,4.7c-2.7,0-4.7-2-4.7-4.7c0-2.7,2-4.7,4.7-4.7C606.1,216.4,608,218.4,608,221.1z
	 M598.9,256.8v-27.7h8.9v27.7H598.9z"/>
<path class="st3" d="M621.5,256.8l-10.4-27.7h9.2l6,19.6l6-19.6h8.9l-10.5,27.7H621.5z"/>
<path class="st3" d="M670.4,245.3h-19.5c0.9,3.3,3.2,5.1,6.5,5.1c2.4,0,4.8-1,6.6-2.8l4.7,4.6c-2.8,3.1-7,4.9-12.1,4.9
	c-9.1,0-14.7-5.7-14.7-14.1c0-8.6,5.9-14.3,14.5-14.3C666.2,228.8,671,235.2,670.4,245.3z M661.9,240.6c0-3.4-2.2-5.6-5.4-5.6
	c-3.1,0-5.2,2.3-5.8,5.6H661.9z"/>
<path class="st3" d="M706.7,226.6l-5.3,6.3c-2.4-2.9-5.9-4.7-9.1-4.7c-5.7,0-10,4.5-10,10.4c0,6,4.3,10.6,10,10.6
	c3,0,6.5-1.6,9.1-4.2l5.4,5.7c-3.9,4-9.6,6.6-14.9,6.6c-10.9,0-18.9-8-18.9-18.5c0-10.4,8.3-18.2,19.3-18.2
	C697.5,220.5,703.1,222.8,706.7,226.6z"/>
<path class="st3" d="M737.9,242.9c0,8.5-6.1,14.2-15.1,14.2c-9.1,0-15.2-5.7-15.2-14.2s6.1-14.2,15.2-14.2
	C731.8,228.8,737.9,234.4,737.9,242.9z M716.5,243c0,4.3,2.5,7.2,6.2,7.2c3.7,0,6.2-2.9,6.2-7.2c0-4.3-2.5-7.2-6.2-7.2
	C719,235.8,716.5,238.8,716.5,243z"/>
<path class="st3" d="M771,239.3v17.5h-8.9v-15c0-3.2-1.9-5.3-4.9-5.3c-3.2,0-5.3,2.3-5.7,5.6v14.7h-8.9v-27.7h8.9v4.5
	c2-3.2,5.1-4.9,9.3-4.9C766.9,228.7,771,232.8,771,239.3z"/>
<g class="st0">
	<g>
		<defs>
			<rect id="SVGID_5_" x="301.2" y="10.5" width="1.3" height="256.1"/>
		</defs>
		<use xlink:href="#SVGID_5_"  style="overflow:visible;fill:#FFFFFF;"/>
		<clipPath id="SVGID_6_">
			<use xlink:href="#SVGID_5_"  style="overflow:visible;"/>
		</clipPath>
		<rect x="301.2" y="10.5" class="st6" width="1.3" height="256.1"/>
	</g>
</g>
<g class="st0">
	<path class="st3" d="M295.5,330.2h-16.1v-28h16.1v4.9h-10.2v6.1h9.5v4.9h-9.5v7.2h10.2V330.2z"/>
	<path class="st3" d="M316,330.2l-0.8-2.7H315c-0.6,1-1.5,1.8-2.7,2.3c-1.1,0.5-2.5,0.8-3.9,0.8c-2.5,0-4.4-0.7-5.7-2
		c-1.3-1.3-1.9-3.3-1.9-5.8v-13.9h5.8v12.5c0,1.5,0.3,2.7,0.8,3.5c0.5,0.8,1.4,1.2,2.6,1.2c1.6,0,2.8-0.5,3.5-1.6
		c0.7-1.1,1.1-2.9,1.1-5.4v-10.1h5.8v21.4H316z"/>
	<path class="st3" d="M338.6,308.4c0.8,0,1.4,0.1,2,0.2l-0.4,5.5c-0.5-0.1-1-0.2-1.7-0.2c-1.9,0-3.3,0.5-4.4,1.4c-1,1-1.6,2.3-1.6,4
		v10.9h-5.8v-21.4h4.4l0.9,3.6h0.3c0.7-1.2,1.6-2.2,2.7-2.9S337.2,308.4,338.6,308.4z"/>
	<path class="st3" d="M363.9,319.4c0,3.5-0.9,6.2-2.8,8.2c-1.8,2-4.4,2.9-7.7,2.9c-2.1,0-3.9-0.4-5.4-1.3c-1.6-0.9-2.8-2.2-3.6-3.9
		c-0.8-1.7-1.3-3.6-1.3-5.9c0-3.5,0.9-6.2,2.7-8.1c1.8-1.9,4.4-2.9,7.7-2.9c2.1,0,3.9,0.4,5.4,1.3c1.6,0.9,2.8,2.2,3.6,3.8
		C363.4,315.2,363.9,317.2,363.9,319.4z M349.1,319.4c0,2.1,0.3,3.7,1,4.8c0.7,1.1,1.8,1.6,3.4,1.6c1.6,0,2.7-0.5,3.4-1.6
		c0.7-1.1,1-2.7,1-4.8c0-2.1-0.3-3.7-1-4.8c-0.7-1.1-1.8-1.6-3.4-1.6c-1.6,0-2.7,0.5-3.4,1.6C349.4,315.7,349.1,317.3,349.1,319.4z"
		/>
	<path class="st3" d="M380.4,330.5c-2.5,0-4.5-0.9-5.9-2.7h-0.3c0.2,1.8,0.3,2.8,0.3,3.1v8.7h-5.8v-30.8h4.7l0.8,2.8h0.3
		c1.4-2.1,3.4-3.2,6.1-3.2c2.5,0,4.5,1,5.9,2.9c1.4,2,2.1,4.7,2.1,8.1c0,2.3-0.3,4.3-1,5.9c-0.7,1.7-1.6,3-2.9,3.8
		C383.5,330.1,382.1,330.5,380.4,330.5z M378.7,313c-1.4,0-2.5,0.4-3.2,1.3c-0.7,0.9-1,2.3-1,4.4v0.6c0,2.3,0.3,3.9,1,4.9
		c0.7,1,1.8,1.5,3.2,1.5c2.6,0,3.9-2.2,3.9-6.5c0-2.1-0.3-3.7-1-4.7C381.1,313.6,380.1,313,378.7,313z"/>
	<path class="st3" d="M403.1,330.5c-3.4,0-6.1-0.9-8.1-2.8c-1.9-1.9-2.9-4.6-2.9-8.1c0-3.6,0.9-6.4,2.7-8.3s4.3-2.9,7.4-2.9
		c3,0,5.4,0.9,7.1,2.6c1.7,1.7,2.5,4.1,2.5,7.1v2.8h-13.8c0.1,1.7,0.6,3,1.5,3.9c0.9,0.9,2.2,1.4,3.9,1.4c1.3,0,2.5-0.1,3.7-0.4
		c1.1-0.3,2.3-0.7,3.6-1.3v4.5c-1,0.5-2.1,0.9-3.3,1.1C406.2,330.4,404.8,330.5,403.1,330.5z M402.3,312.5c-1.2,0-2.2,0.4-2.9,1.2
		c-0.7,0.8-1.1,1.9-1.2,3.3h8.2c0-1.4-0.4-2.6-1.1-3.3C404.5,312.9,403.6,312.5,402.3,312.5z"/>
	<path class="st3" d="M444.8,330.2h-19.5v-4.1l7-7.1c2.1-2.1,3.4-3.6,4.1-4.4c0.6-0.8,1.1-1.6,1.4-2.3c0.3-0.7,0.4-1.4,0.4-2.2
		c0-1.1-0.3-2-0.9-2.5c-0.6-0.5-1.4-0.8-2.5-0.8c-1.1,0-2.1,0.2-3.2,0.7c-1,0.5-2.1,1.2-3.2,2.1l-3.2-3.8c1.4-1.2,2.5-2,3.4-2.5
		c0.9-0.5,1.9-0.9,3-1.1c1.1-0.3,2.3-0.4,3.6-0.4c1.7,0,3.3,0.3,4.6,1c1.3,0.6,2.4,1.5,3.1,2.7c0.7,1.1,1.1,2.5,1.1,3.9
		c0,1.3-0.2,2.5-0.7,3.6s-1.2,2.3-2.1,3.5c-0.9,1.2-2.6,2.9-5,5.1l-3.6,3.4v0.3h12.2V330.2z"/>
	<path class="st3" d="M467,316.2c0,4.9-0.8,8.5-2.4,10.8c-1.6,2.3-4.1,3.5-7.4,3.5c-3.2,0-5.7-1.2-7.3-3.6c-1.6-2.4-2.5-6-2.5-10.7
		c0-4.9,0.8-8.6,2.4-10.9c1.6-2.3,4-3.5,7.4-3.5c3.2,0,5.7,1.2,7.3,3.7C466.2,307.9,467,311.5,467,316.2z M453.4,316.2
		c0,3.4,0.3,5.9,0.9,7.4c0.6,1.5,1.6,2.2,3,2.2c1.4,0,2.4-0.8,3-2.3c0.6-1.5,0.9-4,0.9-7.3c0-3.4-0.3-5.9-0.9-7.4
		c-0.6-1.5-1.6-2.2-3-2.2c-1.4,0-2.4,0.7-3,2.2C453.7,310.3,453.4,312.8,453.4,316.2z"/>
	<path class="st3" d="M484.6,330.2h-5.9V314l0.1-2.7l0.1-2.9c-1,1-1.7,1.6-2,1.9l-3.2,2.6l-2.8-3.6l9-7.2h4.9V330.2z"/>
	<path class="st3" d="M502,301.8c2.7,0,4.8,0.6,6.5,1.8c1.6,1.2,2.5,2.9,2.5,4.9c0,1.4-0.4,2.7-1.2,3.8c-0.8,1.1-2.1,2.1-3.8,3
		c2.1,1.1,3.6,2.3,4.5,3.5c0.9,1.2,1.4,2.6,1.4,4c0,2.3-0.9,4.1-2.7,5.5c-1.8,1.4-4.2,2.1-7.1,2.1c-3.1,0-5.5-0.7-7.2-2
		c-1.7-1.3-2.6-3.1-2.6-5.5c0-1.6,0.4-3,1.3-4.2c0.8-1.2,2.2-2.3,4.1-3.3c-1.6-1-2.7-2.1-3.4-3.2c-0.7-1.1-1.1-2.4-1.1-3.8
		c0-2,0.8-3.6,2.5-4.9C497.2,302.5,499.3,301.8,502,301.8z M497.6,322.7c0,1.1,0.4,2,1.1,2.6c0.8,0.6,1.8,0.9,3.1,0.9
		c1.5,0,2.6-0.3,3.3-0.9c0.7-0.6,1.1-1.5,1.1-2.5c0-0.9-0.4-1.7-1.1-2.4c-0.7-0.7-1.9-1.5-3.5-2.4
		C499,319.2,497.6,320.8,497.6,322.7z M502,306.2c-1,0-1.8,0.3-2.4,0.8s-0.9,1.2-0.9,2.1c0,0.8,0.2,1.5,0.7,2.1
		c0.5,0.6,1.4,1.2,2.7,1.9c1.3-0.6,2.1-1.2,2.6-1.8c0.5-0.6,0.7-1.3,0.7-2.1c0-0.9-0.3-1.6-1-2.1C503.8,306.4,503,306.2,502,306.2z"
		/>
</g>
</svg>
