<svg xmlns="http://www.w3.org/2000/svg" role="img" viewBox="49.97 11.97 541.56 625.56"><path fill="#040404" fill-rule="evenodd" d="M334.648 30.093c-.708 6.773-3.596 14.15-6.947 17.742-7.734 8.291-33.889 13.434-43.208 8.496-3.838-2.034-11.156-9.259-16.52-16.309l-2.528-3.321-15.472 6.475c-12.674 5.304-15.446 6.824-15.322 8.4.084 1.058.708 5.524 1.388 9.924 1.781 11.531.562 15.306-7.434 23.026-8.19 7.907-22.592 15.478-29.415 15.464-5.371-.011-13.034-3.237-20.219-8.511-2.606-1.913-5.076-3.479-5.488-3.479-.625 0-5.943 4.7-23.827 21.057-1.784 1.631-1.755 1.826.889 6.014 10.84 17.172 9.908 26.296-4.45 43.547-10.062 12.09-17.821 14.466-34.332 10.515l-7.738-1.852-2.384 4.11c-1.311 2.26-4.961 8.956-8.112 14.88l-5.728 10.77 7.152 6.621c3.933 3.642 8.066 8.416 9.185 10.608 3.775 7.4 1.918 21.109-4.774 35.243-4.852 10.248-11.521 14.143-25.997 15.183l-8.134.585-.554 4.109c-1.758 13.036-2.91 29.764-2.097 30.456.505.429 3.618 1.595 6.918 2.589 15.393 4.638 20.5 13.48 20.5 35.491 0 10.798-.215 12.141-2.75 17.145-2.506 4.947-3.415 5.756-10.239 9.106-14.297 7.02-14.601 8.685-6.945 37.965l.953 3.641 4.24-.98c5.663-1.308 13.59-.431 18.432 2.039 11.101 5.664 21.19 25.592 20.063 39.631-.717 8.93-4.312 14.618-13.642 21.581l-3.387 2.529 5.157 8.229c2.837 4.526 7.15 11.337 9.584 15.135l4.426 6.904 7.161-3.009c17.217-7.233 25.657-4.188 40.894 14.753 3.221 4.003 6.406 8.945 7.078 10.98 1.795 5.439.588 12.322-3.805 21.697l-3.873 8.265 13.876 10.816 13.876 10.816 3.845-4.368c4.27-4.851 11.633-9.219 17.206-10.207 5.07-.899 11.957.832 21.359 5.367 9.38 4.524 16.739 10.645 19.644 16.338 2.711 5.314 3.347 13.819 1.537 20.531-1.035 3.836-1.123 5.442-.314 5.73.618.22 7.591 2.469 15.494 4.998 7.904 2.528 14.95 4.819 15.658 5.091.808.31 2.666-2.13 4.99-6.552 6.067-11.546 13.687-17.089 23.482-17.084 5.606.003 15.983 1.884 22.888 4.148 8.692 2.849 12.716 6.799 18.068 17.734l4.455 9.105h32.498l.627-3.75c3.173-18.971 8.57-24.909 26.559-29.221 9.799-2.349 18.61-2.597 23.26-.654 4.449 1.859 9.85 6.744 15.329 13.865 5.406 7.025 4.035 7.086 23.147-1.028 12.638-5.366 13.305-5.791 12.849-8.186-2.257-11.846-2.613-15.066-2.076-18.754.95-6.519 5.387-12.505 13.577-18.318 18.268-12.968 27.698-13.389 44.286-1.977 2.416 1.663 4.762 3.019 5.213 3.015.789-.007 10.626-8.46 20.603-17.703l4.784-4.432-21.658-21.178c-11.912-11.649-22.303-21.553-23.091-22.011-.984-.571-2.746.302-5.626 2.788-32.284 27.873-58.53 43.139-92.86 54.009-66.611 21.093-145.246 9.338-206.832-30.919-55.757-36.447-91.886-95.43-101.687-166.012-1.887-13.587-2.136-46.385-.453-59.534 5.795-45.257 22.683-85.808 49.927-119.882C221.855 121.004 282.338 90.734 357 86.428c33.139-1.911 74.841 6.59 107.121 21.837 18.314 8.651 41.356 23.32 55.538 35.356 2.838 2.409 5.59 4.379 6.116 4.379 1.564 0 39.486-50.768 38.778-51.914-.358-.579-6.521-5.55-13.697-11.046l-13.047-9.994-5.655 4.63c-13.06 10.693-20.732 11.655-35.699 4.473-12.095-5.803-17.821-10.225-20.631-15.93-1.999-4.059-2.336-6.312-2.406-16.108l-.083-11.389-13.417-4.329c-19.734-6.368-17.855-6.39-21.83.257-4.588 7.671-9.615 13.068-14.485 15.552-3.587 1.831-5.252 1.998-15.068 1.512-22.094-1.093-30.427-6.421-35.715-22.841L370.606 24h-35.321l-.637 6.093M344 112.141c-73.565 6.73-139.203 52.266-172.053 119.359-39.216 80.098-24.475 175.604 37.023 239.865 65.262 68.195 165.174 86.088 249.53 44.69 20.765-10.191 38.242-22.608 51.351-36.485l5.351-5.664-5.322-5.703C495.249 452.525 472.176 429 471.43 429c-.465 0-2.44 1.537-4.388 3.415-12.21 11.772-36.95 26.385-54.359 32.109-17.111 5.626-25.642 6.878-47.183 6.922-22.068.045-30.072-1.075-47.464-6.644-49.893-15.974-86.621-57.519-98.23-111.114-2.968-13.699-3.24-44.5-.512-57.958 3.854-19.012 12.122-38.987 22.86-55.23 6.921-10.469 24.03-27.488 35.357-35.171 17.39-11.794 39.076-21.071 59.33-25.38 14.03-2.984 36.516-3.663 50.924-1.538 25.115 3.706 46.444 12.631 66.666 27.897 3.783 2.855 7.596 5.735 8.474 6.398 1.366 1.032 4.575-2.083 22.345-21.693 11.413-12.594 20.75-23.306 20.75-23.806 0-.499-2.587-3.143-5.75-5.875-41.954-36.247-99.547-54.378-156.25-49.191"/></svg>