<?xml version="1.0" encoding="utf-8"?>
<!-- Generator: Adobe Illustrator 21.1.0, SVG Export Plug-In . SVG Version: 6.00 Build 0)  -->
<svg version="1.1" id="Layer_1" xmlns="http://www.w3.org/2000/svg" xmlns:xlink="http://www.w3.org/1999/xlink" x="0px" y="0px"
	 viewBox="0 0 288 288" style="enable-background:new 0 0 288 288;" xml:space="preserve">
<style type="text/css">
	.st0{fill:#6D6E71;}
	.st1{opacity:0.8;fill:#6D6E71;}
</style>
<g>
	<g>
		<g>
			<g>
				<path d="M88.6,207.8h1.1l4.8,10.7h-1.3l-1.2-2.8h-5.8l-1.3,2.8h-1.2L88.6,207.8z M91.5,214.6l-2.4-5.4l-2.4,5.4H91.5z"/>
			</g>
			<g>
				<path d="M97.3,207.9h1.2l3.9,5.8l3.9-5.8h1.2v10.6h-1.2v-8.6l-3.9,5.7h-0.1l-3.9-5.7v8.6h-1.2V207.9z"/>
			</g>
			<g>
				<path d="M111,207.9h4.5c1.2,0,2.2,0.3,2.8,0.9c0.4,0.5,0.7,1,0.7,1.7v0c0,1.4-0.8,2.1-1.7,2.5c1.3,0.4,2.3,1.1,2.3,2.6v0
					c0,1.8-1.5,2.9-3.9,2.9H111V207.9z M117.8,210.7c0-1-0.8-1.7-2.4-1.7h-3.2v3.7h3.1C116.8,212.6,117.8,212,117.8,210.7
					L117.8,210.7z M115.6,213.7h-3.4v3.7h3.6c1.6,0,2.6-0.7,2.6-1.9v0C118.4,214.4,117.4,213.7,115.6,213.7z"/>
			</g>
			<g>
				<path d="M126.3,207.8h1.1l4.8,10.7H131l-1.2-2.8H124l-1.3,2.8h-1.2L126.3,207.8z M129.3,214.6l-2.4-5.4l-2.4,5.4H129.3z"/>
			</g>
			<g>
				<path d="M134.1,217l0.7-0.9c1.1,1,2.2,1.5,3.6,1.5c1.4,0,2.4-0.8,2.4-1.8v0c0-1-0.5-1.5-2.8-2c-2.4-0.5-3.6-1.3-3.6-3.1v0
					c0-1.7,1.5-2.9,3.5-2.9c1.5,0,2.7,0.4,3.7,1.3L141,210c-1-0.8-2-1.2-3.1-1.2c-1.4,0-2.3,0.8-2.3,1.7v0c0,1,0.5,1.6,2.9,2.1
					c2.4,0.5,3.5,1.4,3.5,3v0c0,1.8-1.5,3-3.6,3C136.7,218.7,135.4,218.1,134.1,217z"/>
			</g>
			<g>
				<path d="M144.3,217l0.7-0.9c1.1,1,2.2,1.5,3.6,1.5c1.4,0,2.4-0.8,2.4-1.8v0c0-1-0.5-1.5-2.8-2c-2.4-0.5-3.6-1.3-3.6-3.1v0
					c0-1.7,1.5-2.9,3.5-2.9c1.5,0,2.7,0.4,3.7,1.3l-0.7,0.9c-1-0.8-2-1.2-3.1-1.2c-1.4,0-2.3,0.8-2.3,1.7v0c0,1,0.5,1.6,2.9,2.1
					c2.4,0.5,3.5,1.4,3.5,3v0c0,1.8-1.5,3-3.6,3C146.9,218.7,145.5,218.1,144.3,217z"/>
			</g>
			<g>
				<path d="M159,207.8h1.1l4.8,10.7h-1.3l-1.2-2.8h-5.8l-1.3,2.8h-1.2L159,207.8z M161.9,214.6l-2.4-5.4l-2.4,5.4H161.9z"/>
			</g>
			<g>
				<path d="M167.6,207.9h3.7c3.3,0,5.6,2.3,5.6,5.3v0c0,3-2.3,5.3-5.6,5.3h-3.7V207.9z M168.8,209v8.4h2.5c2.7,0,4.4-1.8,4.4-4.2v0
					c0-2.4-1.7-4.2-4.4-4.2H168.8z"/>
			</g>
			<g>
				<path d="M179.6,213.2L179.6,213.2c0-3,2.2-5.5,5.4-5.5s5.4,2.5,5.4,5.5v0c0,2.9-2.2,5.5-5.4,5.5S179.6,216.2,179.6,213.2z
					 M189.2,213.2L189.2,213.2c0-2.4-1.8-4.4-4.2-4.4s-4.2,1.9-4.2,4.4v0c0,2.4,1.8,4.4,4.2,4.4S189.2,215.6,189.2,213.2z"/>
			</g>
			<g>
				<path d="M193.6,207.9h4.6c1.3,0,2.4,0.4,3,1.1c0.5,0.5,0.8,1.3,0.8,2.1v0c0,1.8-1.2,2.8-2.9,3.1l3.3,4.3h-1.5l-3.1-4.1h-3v4.1
					h-1.2V207.9z M198.1,213.3c1.6,0,2.7-0.8,2.7-2.2v0c0-1.3-1-2.1-2.7-2.1h-3.3v4.3H198.1z"/>
			</g>
		</g>
		<g>
			<g id="XMLID_3661_">
				<g id="XMLID_3729_">
					<path d="M112.1,187.5c1,0,1.7-0.4,2.4-1.1l1.3,1.3c-1,1.1-2.2,1.7-3.5,1.7c-1.3,0-2.5-0.4-3.3-1.3c-0.9-0.9-1.3-1.9-1.3-3.2
						c0-1.3,0.4-2.4,1.3-3.2c0.9-0.9,2-1.3,3.3-1.3c1.4,0,2.6,0.5,3.6,1.6l-1.2,1.4c-0.6-0.8-1.4-1.2-2.3-1.2
						c-0.7,0-1.4,0.2-1.9,0.7c-0.5,0.5-0.8,1.1-0.8,1.9c0,0.8,0.2,1.5,0.7,2C110.8,187.2,111.4,187.5,112.1,187.5z"/>
				</g>
				<g id="XMLID_3727_">
					<path d="M117.3,189.2v-8.7h2v7h3.7v1.7H117.3z"/>
				</g>
				<g id="XMLID_3724_">
					<path d="M131.5,188c-0.9,0.9-2,1.3-3.3,1.3c-1.3,0-2.4-0.4-3.3-1.3c-0.9-0.9-1.3-1.9-1.3-3.2c0-1.3,0.4-2.4,1.3-3.2
						c0.9-0.9,2-1.3,3.3-1.3c1.3,0,2.4,0.4,3.3,1.3c0.9,0.9,1.3,1.9,1.3,3.2C132.8,186,132.4,187.1,131.5,188z M130.8,184.8
						c0-0.8-0.3-1.4-0.8-2c-0.5-0.6-1.1-0.8-1.8-0.8c-0.7,0-1.3,0.3-1.8,0.8c-0.5,0.6-0.8,1.2-0.8,2c0,0.8,0.3,1.4,0.8,2
						c0.5,0.5,1.1,0.8,1.8,0.8c0.7,0,1.3-0.3,1.8-0.8C130.6,186.2,130.8,185.5,130.8,184.8z"/>
				</g>
				<g id="XMLID_3722_">
					<path d="M136.8,186.9c0.3,0.4,0.8,0.6,1.3,0.6c0.6,0,1-0.2,1.3-0.6c0.3-0.4,0.5-1,0.5-1.7v-4.8h2v4.9c0,1.3-0.4,2.2-1.1,2.9
						c-0.7,0.7-1.6,1-2.7,1c-1.1,0-2-0.3-2.7-1c-0.7-0.7-1.1-1.7-1.1-2.9v-4.9h2v4.8C136.3,186,136.5,186.5,136.8,186.9z"/>
				</g>
				<g id="XMLID_3719_">
					<path d="M150.6,181.6c0.8,0.8,1.3,1.8,1.3,3.2s-0.4,2.4-1.2,3.2c-0.8,0.8-2.1,1.2-3.7,1.2h-3v-8.7h3.1
						C148.5,180.4,149.7,180.8,150.6,181.6z M149.1,186.8c0.5-0.5,0.7-1.1,0.7-2c0-0.9-0.2-1.5-0.7-2c-0.5-0.5-1.2-0.7-2.2-0.7h-1.1
						v5.3h1.2C148,187.5,148.7,187.2,149.1,186.8z"/>
				</g>
				<g id="XMLID_3717_">
					<path d="M162.9,180.4h2v8.7h-2l-4.2-5.5v5.5h-2v-8.7h1.8l4.3,5.6V180.4z"/>
				</g>
				<g id="XMLID_3714_">
					<path d="M173.3,189.2l-0.8-1.9h-3.7l-0.8,1.9h-2.1l3.8-8.7h1.9l3.8,8.7H173.3z M170.6,183l-1.1,2.5h2.2L170.6,183z"/>
				</g>
				<g id="XMLID_3712_">
					<path d="M179.4,182.1v7.1h-2v-7.1H175v-1.7h6.9v1.7H179.4z"/>
				</g>
				<g id="XMLID_3710_">
					<path d="M183.3,180.4h2v8.7h-2V180.4z"/>
				</g>
				<g id="XMLID_3708_">
					<path d="M190.7,186l2.2-5.6h2.1l-3.5,8.7h-1.7l-3.5-8.7h2.1L190.7,186z"/>
				</g>
				<g id="XMLID_3706_">
					<path d="M202.4,180.4v1.7H198v1.8h3.9v1.7H198v1.8h4.5v1.7h-6.4v-8.7H202.4z"/>
				</g>
				<g id="XMLID_3704_">
					<path d="M109.9,196.6c0.5,0,1-0.2,1.3-0.6l0.7,0.7c-0.6,0.6-1.2,0.9-2,0.9c-0.8,0-1.4-0.2-1.9-0.7c-0.5-0.5-0.7-1.1-0.7-1.8
						c0-0.7,0.2-1.3,0.7-1.8c0.5-0.5,1.1-0.7,1.8-0.7c0.8,0,1.5,0.3,2,0.9l-0.7,0.8c-0.3-0.4-0.8-0.6-1.3-0.6
						c-0.4,0-0.8,0.1-1.1,0.4c-0.3,0.3-0.4,0.6-0.4,1.1c0,0.5,0.1,0.8,0.4,1.1C109.2,196.5,109.5,196.6,109.9,196.6z"/>
				</g>
				<g id="XMLID_3701_">
					<path d="M116.8,196.9c-0.5,0.5-1.1,0.7-1.8,0.7c-0.7,0-1.3-0.2-1.8-0.7c-0.5-0.5-0.7-1.1-0.7-1.8s0.2-1.3,0.7-1.8
						c0.5-0.5,1.1-0.7,1.8-0.7c0.7,0,1.3,0.2,1.8,0.7c0.5,0.5,0.7,1.1,0.7,1.8S117.3,196.4,116.8,196.9z M116.4,195.1
						c0-0.4-0.1-0.8-0.4-1.1c-0.3-0.3-0.6-0.5-1-0.5s-0.8,0.2-1,0.5c-0.3,0.3-0.4,0.7-0.4,1.1c0,0.4,0.1,0.8,0.4,1.1
						c0.3,0.3,0.6,0.5,1,0.5s0.8-0.2,1-0.5C116.3,195.9,116.4,195.6,116.4,195.1z"/>
				</g>
				<g id="XMLID_3699_">
					<path d="M122.9,194.5l-1.3,2.7h-0.7l-1.3-2.7v3.1h-1.1v-4.9h1.5l1.3,2.7l1.3-2.7h1.5v4.9h-1.1V194.5z"/>
				</g>
				<g id="XMLID_3696_">
					<path d="M128.5,193.1c0.3,0.3,0.5,0.7,0.5,1.3c0,0.6-0.2,1-0.5,1.3c-0.4,0.3-0.9,0.4-1.6,0.4h-0.7v1.4h-1.1v-4.9h1.7
						C127.6,192.7,128.2,192.9,128.5,193.1z M127.7,195.1c0.1-0.1,0.2-0.4,0.2-0.6c0-0.3-0.1-0.5-0.3-0.6c-0.2-0.1-0.4-0.2-0.8-0.2
						h-0.6v1.6h0.7C127.4,195.3,127.6,195.2,127.7,195.1z"/>
				</g>
				<g id="XMLID_3694_">
					<path d="M131.2,196.3c0.2,0.2,0.4,0.3,0.7,0.3s0.6-0.1,0.7-0.3c0.2-0.2,0.3-0.5,0.3-0.9v-2.7h1.1v2.7c0,0.7-0.2,1.3-0.6,1.6
						c-0.4,0.4-0.9,0.6-1.5,0.6c-0.6,0-1.1-0.2-1.5-0.6c-0.4-0.4-0.6-0.9-0.6-1.6v-2.7h1.1v2.7C130.9,195.8,131,196.1,131.2,196.3z"
						/>
				</g>
				<g id="XMLID_3692_">
					<path d="M137.3,193.7v4h-1.1v-4h-1.4v-0.9h3.9v0.9H137.3z"/>
				</g>
				<g id="XMLID_3690_">
					<path d="M139.4,192.7h1.1v4.9h-1.1V192.7z"/>
				</g>
				<g id="XMLID_3688_">
					<path d="M145.2,192.7h1.1v4.9h-1.1l-2.3-3.1v3.1h-1.1v-4.9h1l2.4,3.2V192.7z"/>
				</g>
				<g id="XMLID_3686_">
					<path d="M150.7,195.1h1.1v1.7c-0.5,0.5-1.2,0.8-2,0.8c-0.7,0-1.3-0.2-1.8-0.7c-0.5-0.5-0.7-1.1-0.7-1.8c0-0.7,0.2-1.3,0.7-1.8
						c0.5-0.5,1.1-0.7,1.8-0.7c0.7,0,1.3,0.2,1.8,0.7l-0.6,0.8c-0.2-0.2-0.4-0.3-0.6-0.4c-0.2-0.1-0.4-0.1-0.6-0.1
						c-0.4,0-0.8,0.1-1.1,0.4c-0.3,0.3-0.4,0.7-0.4,1.1c0,0.5,0.1,0.8,0.4,1.1c0.3,0.3,0.6,0.4,1,0.4c0.4,0,0.7-0.1,0.9-0.2V195.1z"
						/>
				</g>
				<g id="XMLID_3684_">
					<path d="M158,192.7v1h-2.3v1.1h2.2v1h-2.2v1.9h-1.1v-4.9H158z"/>
				</g>
				<g id="XMLID_3681_">
					<path d="M163,196.9c-0.5,0.5-1.1,0.7-1.8,0.7c-0.7,0-1.3-0.2-1.8-0.7c-0.5-0.5-0.7-1.1-0.7-1.8s0.2-1.3,0.7-1.8
						c0.5-0.5,1.1-0.7,1.8-0.7c0.7,0,1.3,0.2,1.8,0.7c0.5,0.5,0.7,1.1,0.7,1.8S163.5,196.4,163,196.9z M162.6,195.1
						c0-0.4-0.1-0.8-0.4-1.1c-0.3-0.3-0.6-0.5-1-0.5c-0.4,0-0.8,0.2-1,0.5c-0.3,0.3-0.4,0.7-0.4,1.1c0,0.4,0.1,0.8,0.4,1.1
						c0.3,0.3,0.6,0.5,1,0.5c0.4,0,0.8-0.2,1-0.5C162.5,195.9,162.6,195.6,162.6,195.1z"/>
				</g>
				<g id="XMLID_3679_">
					<path d="M166,196.3c0.2,0.2,0.4,0.3,0.7,0.3c0.3,0,0.6-0.1,0.7-0.3c0.2-0.2,0.3-0.5,0.3-0.9v-2.7h1.1v2.7
						c0,0.7-0.2,1.3-0.6,1.6c-0.4,0.4-0.9,0.6-1.5,0.6c-0.6,0-1.1-0.2-1.5-0.6c-0.4-0.4-0.6-0.9-0.6-1.6v-2.7h1.1v2.7
						C165.7,195.8,165.8,196.1,166,196.3z"/>
				</g>
				<g id="XMLID_3677_">
					<path d="M173.4,192.7h1.1v4.9h-1.1l-2.3-3.1v3.1H170v-4.9h1l2.4,3.2V192.7z"/>
				</g>
				<g id="XMLID_3674_">
					<path d="M179.4,193.3c0.5,0.4,0.7,1,0.7,1.8c0,0.8-0.2,1.4-0.7,1.8c-0.5,0.4-1.2,0.7-2.1,0.7h-1.7v-4.9h1.7
						C178.3,192.7,179,192.9,179.4,193.3z M178.6,196.3c0.3-0.3,0.4-0.6,0.4-1.1c0-0.5-0.1-0.9-0.4-1.1c-0.3-0.3-0.7-0.4-1.2-0.4
						h-0.6v3h0.7C178,196.6,178.4,196.5,178.6,196.3z"/>
				</g>
				<g id="XMLID_3671_">
					<path d="M184.4,197.6l-0.5-1.1h-2.1l-0.5,1.1h-1.2l2.1-4.9h1.1l2.1,4.9H184.4z M183,194.2l-0.6,1.4h1.2L183,194.2z"/>
				</g>
				<g id="XMLID_3669_">
					<path d="M187.9,193.7v4h-1.1v-4h-1.4v-0.9h3.9v0.9H187.9z"/>
				</g>
				<g id="XMLID_3667_">
					<path d="M190.1,192.7h1.1v4.9h-1.1V192.7z"/>
				</g>
				<g id="XMLID_3664_">
					<path d="M196.5,196.9c-0.5,0.5-1.1,0.7-1.8,0.7c-0.7,0-1.3-0.2-1.8-0.7c-0.5-0.5-0.7-1.1-0.7-1.8s0.2-1.3,0.7-1.8
						c0.5-0.5,1.1-0.7,1.8-0.7c0.7,0,1.3,0.2,1.8,0.7c0.5,0.5,0.7,1.1,0.7,1.8S197,196.4,196.5,196.9z M196.1,195.1
						c0-0.4-0.1-0.8-0.4-1.1c-0.3-0.3-0.6-0.5-1-0.5s-0.8,0.2-1,0.5c-0.3,0.3-0.4,0.7-0.4,1.1c0,0.4,0.1,0.8,0.4,1.1
						c0.3,0.3,0.6,0.5,1,0.5s0.8-0.2,1-0.5C196,195.9,196.1,195.6,196.1,195.1z"/>
				</g>
				<g id="XMLID_3662_">
					<path d="M201.6,192.7h1.1v4.9h-1.1l-2.3-3.1v3.1h-1.1v-4.9h1l2.4,3.2V192.7z"/>
				</g>
			</g>
			<g id="XMLID_3656_">
				<g id="XMLID_3660_">
					<polygon points="86.6,191.8 83.9,191.8 83.9,198.1 90.2,198.1 90.2,195.4 86.6,195.4 					"/>
				</g>
				<g id="XMLID_3659_">
					<polygon points="100.1,191.8 100.1,195.4 96.5,195.4 96.5,195.4 96.5,198.1 102.8,198.1 102.8,191.8 100.1,191.8 					"/>
				</g>
				<g id="XMLID_3658_">
					<polygon points="83.9,185.5 86.6,185.5 86.6,185.5 86.6,181.9 86.6,181.9 90.2,181.9 90.2,181.9 90.2,179.2 83.9,179.2 					
						"/>
				</g>
				<g id="XMLID_3657_">
					<polygon points="96.5,179.2 96.5,181.9 100.1,181.9 100.1,185.5 102.8,185.5 102.8,179.2 					"/>
				</g>
			</g>
			<g id="XMLID_3655_">
				<polygon class="st0" points="96.2,185.5 92.6,181.9 96.5,181.9 96.5,179.2 90.2,179.2 90.2,181.9 93.8,185.5 				"/>
			</g>
			<g id="XMLID_3654_">
				<polygon class="st1" points="92.9,191.8 90.5,191.8 93.5,194.8 94.1,195.4 92.9,195.4 90.2,195.4 90.2,198.1 96.5,198.1 
					96.5,195.4 94.7,193.6 				"/>
			</g>
			<g id="XMLID_3653_">
				<polygon class="st1" points="100.1,185.5 100.1,188.2 100.1,189.4 99.5,188.8 96.5,185.8 96.5,188.2 98.3,190 100.1,191.8 
					102.8,191.8 102.8,185.5 				"/>
			</g>
			<g id="XMLID_3652_">
				<polygon class="st1" points="90.2,189.1 86.6,185.5 83.9,185.5 83.9,191.8 86.6,191.8 86.6,187.9 90.2,191.5 				"/>
			</g>
		</g>
		<path d="M58,121.5c-1.1,1.9-2,3.9-2.7,6l9.7-2.8l2.9-0.8L58,121.5z"/>
		<path d="M70,123.2l-0.1-13.2c-4.6,2.5-8.5,6.2-11.3,10.6l5,1.2l6.2,1.5L70,123.2z"/>
		<polygon points="58.6,120.6 63.6,121.8 58.6,120.6 		"/>
		<path d="M92.8,116.5l0-4.6l0-5c-2.5-0.6-5-0.9-7.6-0.9c-5,0-9.8,1.2-14.3,3.4l0.1,13.5L92.8,116.5z"/>
		<polygon points="70.9,109.4 70.9,109.4 71,122.9 71,122.9 		"/>
		<path d="M120.9,98.3L120.8,87l-7.8-1.9l-6.4-1.5c-5.9,6.7-9.4,14.9-10.3,23.8l-0.1,0.6l-0.6-0.2c-0.6-0.2-1.3-0.4-2-0.6l0.1,9.5
			l27.4,6.5L120.9,98.3z"/>
		<path d="M126.9,115.4c2.6,0,4.8,2,5.1,4.6l3.7-1.1l8.2-2.4l-0.3-35.9L121.8,87l0.1,9.4l0.2,22.4
			C122.9,116.8,124.7,115.4,126.9,115.4z"/>
		<polygon points="122.1,118.7 122.1,118.7 121.9,96.3 		"/>
		<path d="M143.6,79.3l0.5,0.1l15.1-4.4c-6.4-3.7-13.6-5.6-21-5.6c-4.1,0-8.2,0.6-12.1,1.8c-7.1,2.1-13.6,6.2-18.7,11.7l13.9,3.3
			l22-6.5l0.4-0.1L143.6,79.3z"/>
		<path d="M144.6,80.5l0.1,15.2l0.2,21l7.3,1.7l2.7,0.7c0.7-2.1,2.7-3.6,4.9-3.6c2.8,0,5.1,2.3,5.1,5.1c0,0.3,0,0.5-0.1,0.8l1.6,0.4
			l5.8,1.4l-0.2-24.8L172,87L144.6,80.5z"/>
		<polygon points="144.6,80.5 144.6,80.5 144.8,95.7 		"/>
		<path d="M181.9,120.4l12.9-3.8l-0.2-23.9c-5.7,0-12.5,2.1-16.4,4l-0.5,0.2l-0.2-0.5c-0.2-0.5-0.4-1.1-0.7-1.6
			c-1.1-2.5-2.4-4.8-3.9-7.1l0.3,35.1L181.9,120.4z"/>
		<polygon points="173.3,122.9 173.3,122.9 173,87.8 173,87.8 		"/>
		<path d="M160.4,75.6l-14.2,4.2l25.5,6.1C168.5,81.8,164.7,78.3,160.4,75.6z"/>
		<polygon points="160.4,75.6 146.1,79.8 146.1,79.8 160.4,75.6 		"/>
		<path d="M61.9,139.7l-8.3-2c0.1,9.4,4.3,18.2,11.6,24.2l-0.1-17.1l0-4.4L61.9,139.7z"/>
		<path d="M85,169h3.2l-0.3-35l-21.8,6.4l0,3.1l0.2,19.2C71.7,166.8,78.2,168.9,85,169z"/>
		<polygon points="66.3,162.7 66.1,143.5 66.3,162.7 		"/>
		<path d="M87.2,133.2l0.7-0.2l0-0.2l0.5,0.1l31-9.1l-25.5-6.1v0l-0.8-0.2l-38.1,11.2c-0.8,2.6-1.2,5.3-1.3,8.1l1.8,0.4l10.1,2.4
			L87.2,133.2z"/>
		<polygon points="93.8,117.7 93,117.5 93.8,117.7 		"/>
		<polygon points="53.7,136.7 55.5,137.1 53.7,136.7 		"/>
		<polygon points="88.9,133.9 89.2,169 116.5,169 116.4,159.2 116.2,140.4 		"/>
		<polygon points="88.9,133.9 89.2,169 89.2,169 88.9,133.9 		"/>
		<path d="M117.4,158.8l0.1,10.2h21.9l-0.1-16.3c-7.5-1.5-13.5-6.8-15.9-14.1l-6.1,1.8L117.4,158.8z"/>
		<polygon points="117.5,169 117.5,169 117.4,158.8 		"/>
		<path d="M144.2,117.5l-12.2,3.6c-0.3,2.6-2.5,4.6-5.1,4.6c-1.6,0-3-0.7-4-2l0,0l-32.5,9.5l26.3,6.2l6.3-1.8
			c-0.5-1.9-0.8-3.8-0.8-5.7v-0.5h21.9l26.4-7.7l-5.8-1.4c-0.8,2-2.6,3.4-4.8,3.4c-2.8,0-5.1-2.3-5.1-5.1c0-0.2,0-0.4,0-0.6
			l-9.8-2.3v0L144.2,117.5z"/>
		<polygon points="145,117.7 145,117.7 144.2,117.5 		"/>
		<polygon points="122.9,123.7 121.7,124.1 121.3,124.2 121.3,124.2 90.3,133.2 90.4,133.3 122.9,123.7 		"/>
		<polygon points="121.3,124.2 121.7,124.1 121.3,124.2 		"/>
		<path d="M163.2,139.4c-3.1,8.2-11,13.7-19.8,13.7c-1,0-2.1-0.1-3.2-0.3l0.1,16.1h27.3l-0.1-9.8l-0.2-18.7L163.2,139.4z"/>
		<polygon points="140.2,152.9 140.4,169 140.4,169 140.2,152.9 		"/>
		<path d="M168.4,140.4l0.2,18.4l0.1,10.2h21.5c0,0,0,0,0,0l0-2.8l-0.3-32.1L168.4,140.4z"/>
		<polygon points="168.7,169 168.7,169 168.6,158.8 		"/>
		<path d="M188.7,133.4l-0.3-0.1l1.4-0.4l0-0.3l0.5,0.1l30.7-9l-15.6-3.7l-10.5-2.5l-47.3,13.8h16.9v0.5c0,2.2-0.4,4.4-1.1,6.5
			l4.2,1l0.2,0L188.7,133.4z"/>
		<polygon points="163.5,138.5 167.7,139.5 163.5,138.5 		"/>
		<path d="M195.8,116.8l27.2,6.4l0.2-0.1l-0.1-10l-0.1-10.3c-6.3-5.7-15.2-9.1-26.5-10.1c-0.3,0-0.6,0-0.9,0l0.2,23.6l0,0
			L195.8,116.8z"/>
		<polygon points="195.8,116.3 195.8,116.3 195.8,116.8 		"/>
		<path d="M233,120.3c-1.1-4.6-2.9-8.8-5.4-12.3c-1-1.5-2.2-2.9-3.6-4.2l0.2,19.1L233,120.3z"/>
		<polygon points="224,103.8 224,103.8 224.2,122.9 224.2,122.9 		"/>
		<path d="M198.9,135.8l-8-1.9l0.2,23.3l0.1,11.8c0.4,0,0.8,0,1.3,0c0.8,0,1.7,0,2.7,0l0.8,0c1.8,0,3.4,0,4.9,0
			c10.6-0.2,15.4-1.9,17.3-2.9c0.1,0,0.1-0.1,0.2-0.1l0-3.4l-0.1-10.8l-0.1-11.4L198.9,135.8z"/>
		<polygon points="191.2,169 191.2,169 191.1,157.2 		"/>
		<path d="M220,164.8l0,0.1c5.8-4,12.6-11.5,14-25c0.1-1.3,0.2-2.6,0.3-4l-9.5,2.8l-5.5,1.6l0.2,24.8L220,164.8z"/>
		<path d="M218.7,139.5l15.6-4.6c0.2-4.9-0.2-9.5-1.1-13.7l-30.2,8.8l-10.7,3.1L218.7,139.5z"/>
		<polygon points="192.3,133.2 203,130.1 192.3,133.2 		"/>
	</g>
</g>
</svg>
