<?xml version="1.0" encoding="utf-8"?>
<!-- Generator: Adobe Illustrator 26.3.1, SVG Export Plug-In . SVG Version: 6.00 Build 0)  -->
<svg version="1.1" id="Layer_1" xmlns="http://www.w3.org/2000/svg" xmlns:xlink="http://www.w3.org/1999/xlink" x="0px" y="0px"
	 viewBox="0 0 450 160" style="enable-background:new 0 0 450 160;" xml:space="preserve">
<style type="text/css">
	.st0{fill:#7497F7;}
	.st1{fill:#FFFFFF;}
	.st2{fill:#72CCB8;}
</style>
<g>
	<path class="st0" d="M101,45.3c-8.8-8.7-20.4-13.6-32.8-13.6c-12.2,0-23.9,4.8-32.6,13.5c-8.9,8.8-13.7,20.5-13.7,33
		c0,12.2,4.9,23.9,13.6,32.6c8.7,8.7,20.4,13.6,32.7,13.6c0-21.2,0-42.4,0-63.7c6.2,0,11.2,2.6,13.8,6.7c0.6,0.7,1.1,1.5,1.5,2.3
		c0.7,1.3,2.4,1.9,3.8,1.3c1.6-0.8,1.8-2.4,1.3-3.6c-1-1.9-2.4-3.7-3.5-5.4c-0.5-1-0.4-2.4,0.4-3.3c1.1-1.3,3.1-1.3,4.3,0
		c4,4.5,6.6,10.3,7.2,16.6c0.1,1.5,1.4,2.6,2.9,2.6c1.7,0,3.1-1.5,2.9-3.2c-0.2-2.1-0.6-4.2-1.1-6.2c-0.4-1.4,0.4-2.9,1.8-3.4l0.1,0
		c1.5-0.6,3.2,0.3,3.7,1.9c1,3.5,1.5,7.2,1.5,10.9c0,5.7-1.2,11.3-3.5,16.4c-0.6,1.4-0.1,3.1,1.3,3.8c1.5,0.8,3.3,0.2,4-1.4
		c2.6-5.9,4-12.3,4-18.8C114.5,65.7,109.7,54,101,45.3z"/>
	<path class="st1" d="M78.4,129.5c-6.7,0-19.1-2.2-27.9-17.3l-2-3.4l2,0.2c-2.5-0.6-4.8-1.2-6.9-1.9c-6.5-2.3-10.3-5.1-11.3-8.5
		c-0.5-1.7-0.7-4.9,3.6-8.2c2.7-2,5.9-3.1,9.6-3.1c4.3,0,7.7,1.4,7.8,1.5l2.9,1.2l-6.6,6.4l-1.1-0.2c-0.4-0.1-0.8-0.1-1.2-0.1
		c-1.5,0-2.5,0.6-2.9,0.9c0.4,0.4,1.9,1.6,7.4,2.4c4.4,0.6,9.3,1.2,15.1,1.8c6.1,0.7,13,1.4,20.4,2.4c5,0.7,8.8,2,11.4,3.9
		c3.3,2.4,3.8,5.3,3.7,7.2c-0.2,3.7-3.1,7.5-7.8,10.4C90,127.9,84.2,129.5,78.4,129.5z M66.9,111.4c2.2,0.9,5.7,2.2,8.7,2.2
		c0.9,0,1.7-0.1,2.4-0.3c0.3-0.1,0.5-0.2,0.7-0.3c-1.5-0.4-4.3-1-9.6-1.4C68.4,111.6,67.6,111.5,66.9,111.4z"/>
	<path class="st0" d="M45.5,89.3c3.9,0,8,1.5,8,1.5l-3.4,3.3C49.6,94,49,94,48.5,94c-6.9-0.3-11,4.5,3,7.4
		c9.2,1.4,21.4,2.3,35.6,4.2c25.2,3.5,10.3,21.9-8.7,21.9c-9.1,0-19.1-4.2-26.1-16.3l11.4,1c0,0,6.4,3.5,11.9,3.5
		c1.1,0,2.1-0.1,3-0.4c5.9-2,4.7-4.6-9.3-5.7C39.7,107.4,28.5,99.1,37.2,92C39.8,89.9,42.9,89.3,45.5,89.3z M45.5,85.2
		c-4.2,0-7.8,1.2-10.9,3.5c-5.2,4-4.9,8.3-4.3,10.4c1.6,5.4,8.5,8.9,16.6,11.1l1.8,3c3.6,6.3,8.3,11.1,13.8,14.2
		c4.6,2.6,10.2,4.1,15.8,4.1c6.2,0,12.3-1.7,17.3-4.8c5.3-3.3,8.5-7.6,8.8-12c0.2-3.5-1.4-6.7-4.5-9c-2.8-2.1-7-3.5-12.3-4.3
		c-7.4-1-14.4-1.8-20.5-2.4c-5.8-0.6-9.6-1.2-13.9-1.8c-0.2,0-0.3-0.1-0.5-0.1l0.2-0.2l3.3-3.1l4.7-4.7l-5.7-2.4
		C54.9,86.7,50.1,85.2,45.5,85.2z"/>
	<path class="st1" d="M67.7,110.6c-1.7,0-3.3-0.8-4.3-2.3c-1-1.5-1.4-3.5-1.2-5.6c-0.5,0.7-1.4,1.3-3.1,1.5c-0.3,0-0.5,0.1-0.8,0.1
		c-2,0-3.7-1-4.7-2.7c-1.2-2-1.2-4.7,0.1-6.9s4.1-3.3,6.3-3.3c0.4,0,0.8,0,1.1,0.1c-0.9-1-1.5-2-1.9-2.9c-0.6-1.4-0.7-2.7-0.3-3.8
		c-0.1,0-0.2,0-0.4,0c-0.2,0-0.3,0-0.4,0c0.2,1,0.7,3.4-2.3,4.4c-0.4,0.1-0.8,0.2-1.2,0.2c-1.4,0-2.8-0.8-3.6-2.2
		c-1.1-1.9-1-4.3,0.4-6.6c1.2-2.1,3.8-3.4,5.4-3.4c0.2,0,0.5,0,0.7,0.1c-0.2-1.1-0.3-2.3-0.2-3.5c0.2-2.9,1.4-5.7,3.3-7.9
		c1.1-1.3,1.6-5.1,2-8.2c0.3-2.2,0.6-4.4,1-6.1c0.2-0.9,1-3.6,3.4-3.8c0.2,0,0.4,0,0.5,0c1.6,0,3,0.6,4,1.9c1.3,1.5,1.9,3.8,1.8,6.5
		c0.9-2.7,2-5.4,4.6-5.4c0.3,0,0.7,0.1,1,0.1c1.6,0.4,2.8,1.6,3.6,3.3c1.1,2.6,0.8,5.9-0.8,8.7c-1.7,3.2-4.1,4.9-6.1,5.8
		c0.5,0.4,1,0.8,1.5,1.2c3.1,2.9,4,6.4,2.6,10.2c-0.6,1.7-1.8,3.1-3.5,4c3.1,0.2,5,2.2,7.2,5.6c2.2,3.4,3,6.7,2.1,8.7
		c-0.4,1-1.3,1.7-2.4,2c-0.4,0.1-0.8,0.1-1.2,0.1c-1.2,0-2.1-0.4-2.8-1.2c-0.1,0.8-0.4,1.6-0.8,2.2c-0.7,1.2-1.8,2-3.2,2.3
		c-0.4,0.1-0.9,0.2-1.3,0.2c-0.8,0-1.4-0.2-1.9-0.4c0.4,1.8,1.3,5.4-2.7,6.7C69,110.5,68.4,110.6,67.7,110.6z M63,99
		c-0.1,0.1-0.1,0.5-0.1,1c0,0,0,0,0,0.1c0-0.1,0.1-0.2,0.1-0.2c0.1-0.4,0.3-0.7,0.5-1C63.3,98.9,63.1,99,63,99z M66.3,94.6
		c0.3,0.4,0.5,0.9,0.4,1.5c0.8-0.4,1.6-0.6,2.2-0.7h0c-0.3-0.1-0.7-0.2-1-0.3C67.4,94.9,66.9,94.8,66.3,94.6z M60.5,82.5
		c0.1,0.2,0.1,0.4,0.1,0.6C60.7,83,60.9,83,61,83C60.9,82.8,60.7,82.7,60.5,82.5z M67.3,72.6c-0.2,0-0.4,0.2-0.4,0.4
		c0,0.1,0.1,0.2,0.1,0.3c0.1,0.1,0.1,0.1,0.2,0.1c0.2,0,0.4-0.2,0.4-0.4C67.7,72.8,67.5,72.6,67.3,72.6z"/>
	<path class="st0" d="M67.8,49.2c3.4,0,5,3.9,4,9.3c-1,5.7-4,7.8-4,7.8s0,0,0.1,0c0.4,0,3.1-0.2,5.8-6c1.4-2.9,2-8.2,4.5-8.2
		c0.2,0,0.4,0,0.6,0.1c3.1,0.9,4.1,5.7,1.9,9.9c-3.2,5.8-8.6,6.1-8.6,6.1s8.6,3.9,6.6,11.4c-1.2,3.3-4.8,4.5-8.4,4.5
		c-3.9,0-8.2-2.6-9.7-4.5c-2.3-3-2.1-8.6,1.4-12.7c3-3.5,1.7-17.3,5.4-17.6C67.5,49.2,67.6,49.2,67.8,49.2z M57,78.7
		c1.1,2,2.9,3.5,2.6,3.9c-0.3,0.4-0.6,0.7-1,0.7c-0.3,0-0.7-0.2-1.1-0.2c-0.2,0-0.3,0-0.5,0.2c-1.5,0.9,1.4,3.6-1.5,4.5
		c-0.2,0.1-0.5,0.1-0.7,0.1c-2.1,0-3.9-3-1.9-6.5C53.8,79.8,55.9,78.7,57,78.7z M61.7,83.9c1,0,2.3,1.3,4.6,1.8
		c1.4,0.3,2.9,0.4,3.8,0.4c1.7,0,2.7-0.3,4.9-0.5c0.3,0,0.6-0.1,0.9-0.1c2.7,0,4.3,1.5,6.5,4.9c2.5,4,3.1,7.9,0.7,8.4
		c-0.3,0.1-0.6,0.1-0.9,0.1c-2,0-2.6-1.9-3.5-5.2C78,91.1,76.7,90,76,90c-0.2,0-0.4,0.1-0.5,0.2c-0.7,1,1.3,2.1,2.2,5.4
		c0.9,3,0.2,6.2-2.5,6.8c-0.4,0.1-0.7,0.1-1,0.1c-1.6,0-2-1.2-2.8-1.2c-1.3,0,2.1,7.5-3.7,7.8c-3.4,0-5-4.4-3.3-8.6
		c1.7-4.3,6.4-3.2,6.8-4.7c0.4-1.7-1.6-1.7-4.8-2.7c-4.5-1.3-6.9-5.9-5.9-7.8C60.8,84.6,61.3,83.9,61.7,83.9z M60.1,92.9
		c0.7,0,1.3,0.1,1.6,0.4c1.6,1.4,3.8,1.6,3.4,2.7c-0.5,1.4-2.4,1-3.2,1.9c-1.5,1.6,1,4.2-2.9,4.7c-0.2,0-0.4,0-0.6,0
		c-3.7,0-4.5-3.8-3.3-6.8C56.1,94.3,58.4,92.9,60.1,92.9z M67.8,46.2c-0.2,0-0.4,0-0.7,0c-1.4,0.1-2.6,0.9-3.4,2.1
		c-0.5,0.7-0.9,1.7-1.3,2.9c-0.5,1.8-0.8,4-1.1,6.3c-0.2,1.7-0.5,3.5-0.8,5c-0.4,1.8-0.8,2.3-0.9,2.4c-2.9,3.4-3.6,7-3.3,11.2
		c-2,0.4-4.7,1.6-6,3.8c-1.6,2.7-1.7,5.8-0.3,8.1c1.1,1.9,2.9,3,4.9,3c0.5,0,1.3-0.2,1.8-0.3c-1.5,0.7-3.2,2.2-4.1,3.7
		c-1.3,2.3-1.4,5.5,0,8c1.3,2.2,3.4,3.5,5.9,3.5c0.3,0,0.7,0,1-0.1c0.3,0,0.8-0.1,1.5-0.3c0.2,1.4,0.7,2.7,1.4,3.7
		c1.3,1.9,3.3,3,5.5,3c0.8,0,1.6-0.1,2.4-0.4c2.3-0.7,3.3-2.2,3.9-4.3c0.1-0.6,0.2-1.5,0.2-2c0.5,0,1.1,0,1.7-0.1
		c1.8-0.4,3.2-1.4,4.1-3c0.1-0.2,0.2-0.4,0.3-0.7c0.7,0.3,1.4,0.3,2,0.3c0.5,0,1-0.1,1.5-0.2c1.6-0.3,2.9-1.4,3.5-2.8
		c1.5-3.6-1-8.3-2.2-10.1c-1.4-2.2-3.4-4.4-5.7-5.6c0.7-0.8,1.2-1.8,1.6-2.8c1.7-4.5,0-8.5-3.3-11.4c1.9-1.3,4.4-3.4,5.7-5.6
		c1.8-3.2,2.1-7,0.8-10c-0.9-2.1-2.5-3.6-4.5-4.2c-0.5-0.1-0.9-0.2-1.4-0.2c-1.1,0-2.6,0.4-3.9,1.9c-0.3-0.9-0.8-1.7-1.4-2.4
		C71.6,47,69.8,46.2,67.8,46.2z M57.2,90.4c0.4-0.2,0.7-0.4,1-0.6c0.1,0.1,0.1,0.2,0.2,0.3C57.9,90.2,57.6,90.3,57.2,90.4z"/>
	<path class="st2" d="M69.4,73.2c0,1.1-0.9,1.9-2,1.9h0c-1.1,0-1.9-0.9-1.9-2c0-1.1,0.9-1.9,2-1.9h0C68.6,71.2,69.4,72.1,69.4,73.2z
		"/>
	<path class="st0" d="M160.2,98.6c4.3,0,6.5-1,7.3-6l4.7-29.1c0.8-5.1-1-6-5.4-6h-23.4l-6.6,41.2H160.2z M160.9,90.4
		c-0.2,1.6-0.4,1.7-2,1.7h-14.1l4.5-28.1h14.1c1.4,0,1.7,0.1,1.5,1.7L160.9,90.4z"/>
	<path class="st0" d="M198.8,98.6l1-6.6h-16.7c-1.4,0-1.8-0.1-1.6-1.7l0.6-3.9h13.5c4.3,0,6.5-1,7.3-6l1.2-7.1c0.8-5.1-1-6-5.4-6
		h-14c-4.3,0-6.5,1-7.3,6l-3.1,19.3c-0.8,5.1,1.1,6,5.4,6H198.8z M196.4,78.2c-0.2,1.7-0.6,1.7-2.1,1.7h-11.1l0.8-4.4
		c0.2-1.7,0.6-1.7,2-1.7h9.3c1.4,0,1.8,0.1,1.6,1.7L196.4,78.2z"/>
	<path class="st0" d="M221.2,98.6l14.7-31.4h-7.2l-10.6,23.7l-2.9-23.7h-7.3l4.7,31.4H221.2z"/>
	<path class="st0" d="M256.8,98.6c4.3,0,6.5-1,7.3-6l1.9-11.7c0.8-5.1-1-6-5.4-6h-13.7c-1.4,0-1.8-0.1-1.6-1.7l1.2-7.4
		c0.2-1.7,0.6-1.7,2.1-1.7h11.3c1.4,0,1.7,0.1,1.5,1.7l-0.6,4h6.9l1-6.2c0.8-5.1-1-6-5.4-6h-16c-4.3,0-6.5,1-7.3,6l-1.9,11.8
		c-0.8,5.1,1,6,5.4,6h13.7c1.4,0,1.8,0.1,1.6,1.7l-1.2,7.3c-0.2,1.7-0.6,1.7-2,1.7h-11.3c-1.4,0-1.8-0.1-1.6-1.7l0.7-4h-6.9l-1,6.2
		c-0.8,5.1,1.1,6,5.4,6H256.8z"/>
	<path class="st0" d="M285.3,98.6l1-6.6h-3.8c-1.4,0-1.8-0.1-1.6-1.7l2.7-16.5h5.6l1.1-6.6h-5.6l1.6-9.8h-6.9l-1.6,9.8h-5.3
		l-1.1,6.6h5.3l-3,18.8c-0.8,5.1,1.1,6,5.4,6H285.3z"/>
	<path class="st0" d="M296.7,98.6l3.7-23.1c0.2-1.7,0.6-1.7,2-1.7H313l1.1-6.6h-13c-4.3,0-6.5,1-7.3,6l-4,25.3H296.7z"/>
	<path class="st0" d="M338.6,98.6l1-6.6h-16.7c-1.4,0-1.8-0.1-1.6-1.7l0.6-3.9h13.5c4.3,0,6.5-1,7.3-6l1.2-7.1c0.8-5.1-1-6-5.4-6
		h-14c-4.3,0-6.5,1-7.3,6l-3.1,19.3c-0.8,5.1,1.1,6,5.4,6H338.6z M336.2,78.2c-0.2,1.7-0.6,1.7-2.1,1.7H323l0.8-4.4
		c0.2-1.7,0.6-1.7,2-1.7h9.3c1.4,0,1.8,0.1,1.6,1.7L336.2,78.2z"/>
	<path class="st0" d="M365.3,98.6c4.3,0,6.5-1,7.3-6l3.1-19.3c0.8-5.1-1-6-5.4-6h-19.7l-1.1,6.6h17.4c1.4,0,1.8,0.1,1.6,1.7
		l-0.6,3.5h-13.5c-4.3,0-6.5,1-7.3,6l-1.2,7.5c-0.8,5.1,1.1,6,5.4,6H365.3z M366,90.4c-0.2,1.7-0.6,1.7-2,1.7h-9.3
		c-1.4,0-1.8-0.1-1.6-1.7l0.5-3.1c0.3-1.7,0.6-1.7,2.1-1.7h11.1L366,90.4z"/>
	<path class="st0" d="M422.1,98.6l4-25.3c0.8-5.1-1-6-5.4-6h-10.9c-2.2,0-3.8,0.3-5.2,2.3c-0.7-2-2.3-2.3-4.4-2.3h-10.9
		c-4.3,0-6.5,1-7.3,6l-4,25.3h6.9l3.7-23.1c0.2-1.7,0.6-1.7,2-1.7h8.2c1.4,0,1.8,0.1,1.6,1.7l-3.7,23.1h6.9l3.7-23.1
		c0.2-1.7,0.6-1.7,2-1.7h8.1c1.4,0,1.8,0.1,1.6,1.7l-3.7,23.1H422.1z"/>
</g>
</svg>
