<?xml version="1.0" encoding="utf-8"?>
<!-- Generator: Adobe Illustrator 21.1.0, SVG Export Plug-In . SVG Version: 6.00 Build 0)  -->
<svg version="1.1" id="Layer_1" xmlns="http://www.w3.org/2000/svg" xmlns:xlink="http://www.w3.org/1999/xlink" x="0px" y="0px"
	 viewBox="0 0 432 142.4" style="enable-background:new 0 0 432 142.4;" xml:space="preserve">
<style type="text/css">
	.st0{fill:#FFFFFF;}
</style>
<g>
	<path class="st0" d="M162.4,96c0,2.6-0.6,5.1-1.7,7.2c-2.5,5-7,7.5-13.3,7.5c-4.2,0-7.5-1.2-9.7-3.5c-3.7-3.8-3.5-9.6-3.5-9.6
		l-2.7-0.1c0,0.3-0.2,6.9,4.2,11.6c2.8,2.9,6.7,4.4,11.7,4.4c9.2,0,13.6-4.8,15.7-8.9c1.3-2.5,2-5.4,2-8.4V44.2h-2.7V96z"/>
	<path class="st0" d="M198.6,44.3L198.6,44.3c-0.7,0-1.3,0.4-1.5,1.1l-22.2,67.2l2.8,0l6.5-19.1h29.1l6.5,19.1h2.8l-22.4-67.2
		C199.9,44.7,199.3,44.3,198.6,44.3z M185,90.8l13.6-41.5l13.7,41.5H185z"/>
	<polygon class="st0" points="235.3,112.4 267.8,112.4 267.8,109.7 238,109.7 238,79.4 266,79.4 266,76.7 238,76.7 238,46.3 
		267.8,46.3 267.8,43.6 235.3,43.6 	"/>
	<path class="st0" d="M323.4,62.3c0-0.3,0.3-7.8-5-13.2c-3.5-3.6-8.5-5.5-14.9-5.5c-6.5,0-11.5,1.8-15,5.5c-5.2,5.4-4.9,12.7-4.9,13
		v33.2c0,4,1.1,7.7,3.2,10.8c2.5,3.7,7.4,8.1,16.6,8.1c3,0,5.8-0.3,8.3-0.9c6.9-1.7,11.7-7.9,11.7-15.1V81.5h-17.2v2.7h14.5v14
		c0,6-4,11.1-9.6,12.5c-2.2,0.5-4.8,0.8-7.6,0.8c-6.5,0-11.3-2.3-14.4-6.9c-1.8-2.6-2.7-5.9-2.7-9.3l0-33.2c0-0.1-0.2-6.5,4.2-11
		c3-3.1,7.3-4.6,13-4.6c5.7,0,10,1.6,13,4.6c4.4,4.6,4.2,11.2,4.2,11.2L323.4,62.3z"/>
	<polygon class="st0" points="341.3,112.4 374.1,112.4 374.1,109.7 344,109.7 344,79.4 371.6,79.4 371.6,76.7 344,76.7 344,46.3 
		374.1,46.3 374.1,43.6 341.3,43.6 	"/>
	<path class="st0" d="M429.5,112.5L415,82.9c2.8-0.8,5.4-2.1,7.4-4c3-2.9,4.5-7.2,4.5-12.6c0-13.4-6.8-19.5-10.9-21.4
		c-1.9-0.8-3.9-1.3-6.1-1.3h-19.6v68.8h2.7V84.2c1.1,0,2.3,0,3.5,0.1c5.2,0.1,10.9,0.2,15.8-0.7l14.2,29H429.5z M396.5,81.6
		c-1.2,0-2.4-0.1-3.6-0.1V46.3h16.9c1.8,0,3.4,0.3,5,1c4.3,1.9,9.3,7.6,9.3,18.9c0,4.7-1.2,8.2-3.7,10.7
		C415.3,82,405.3,81.8,396.5,81.6z"/>
</g>
<g>
	<path class="st0" d="M102.8,103.8c-0.5-3.4-1.9-4.9-3.2-6.3c-1.2-1.3-2.3-2.4-2-4.6c0.3-2,1.9-3.3,4.6-3.6
		c-1.6-10.8-3.9-24.3-6.9-35.9c-1.5-5.8-3.9-9.8-7-12.5c0.6-0.3,1.1-0.6,1.7-0.9c0.7-0.4,1.5-0.8,2.1-1.2c7-3.9,8.2-5.8,8.4-6.9
		c0.2-0.9-0.1-1.5-0.4-1.9c-0.7-0.8-1.9-1.2-4-1.2c-2.3,0-5.4,0.5-8.7,1.2c0,0.6-0.1,1.2-0.2,1.9c3.3-0.7,6.6-1.2,8.8-1.2
		c2.1,0,2.6,0.5,2.6,0.5c0,0,0.1,0.1,0,0.4c-0.1,0.4-0.9,2-7.6,5.8c-1.9,1.1-4.2,2.2-6.7,3.5l0,0l0,0c-2.9,1.4-6.2,2.9-9.8,4.5
		c-2.1,0.9-4.2,1.8-6.3,2.7c1-1.1,1.9-2.2,2.5-3c1.3-1.5,1-3.7-0.5-5c-0.1-0.1-0.2-0.2-0.3-0.2c2.9-0.8,6.5-0.9,9.3-0.9
		c2.5,0,4.3,0.1,4.3,0.1c0.8-1.1,5.3-16.6-2.5-16.6c-6.7,0-11.1,13.2-12.3,16.9c-1.3-0.3-2.6,0.1-3.5,1.2c-4.1,5-9.6,10.8-11.1,11.6
		c-0.2,0.1-0.4,0.2-0.5,0.2c-1.2-1-2.8-1.1-4.2-0.3c-1.2,0.7-1.7,2-1.6,3.3c-0.5,0.1-0.8,0.2-1.1,0.2c-0.6,0.1-1.5,0.1-2.6,0.2
		c-0.1-0.1-0.1-0.1-0.2-0.2c-1.1-0.9-2.6-1.1-3.8-0.5c-0.7,0-3.1-0.2-9.2-2.6c-6-2.4-8.9-3.1-10.4-3.2c1.2-0.5,2-0.9,2-0.9
		s-4.2-12.3-9.8-12.3c-0.7,0-1.5,0.2-2.3,0.7c-6.7,4.1,2.7,16.5,2.7,16.5c1.1-0.8,2.3-1.5,3.4-2.1c-0.3,0.7-0.5,1.4-0.3,2.2
		c0.3,1.5,1.4,2.6,2.9,2.9C6.6,55.9,4.3,54.2,3.9,53.6c-0.1-0.1-0.1-0.3,0-0.5c0.5-1.2,2.4-2.5,4.9-3.7C8.5,49,8.2,48.4,8,47.9
		c-2.7,1.3-5.1,2.9-5.8,4.6C1.9,53.2,2,54,2.5,54.6c0.4,0.6,1.5,2.1,9.2,3c0.6,0.1,1.2,0.1,1.9,0.2c-3.3,6.8-1.9,14.3-0.7,20.5
		c1.3,6.7,5.5,17.7,8.8,26c1.6,3.9,3,7.1,3.8,9.1c10,0.9,22.9,1.4,37,1.4c16.6,0,31.6-0.7,42.2-1.9c-0.7-2.6-1.7-7-2-8.7
		C102.8,104.1,102.8,103.9,102.8,103.8z M75.3,33.8c0-0.1,0-0.3,0-0.6c0-0.5,0.1-1.2,0.3-2c0.2-0.8,0.5-1.7,1.1-2.7
		c0.3-0.5,0.7-0.9,1.1-1.3c0.2-0.2,0.4-0.3,0.6-0.4c0.1-0.1,0.3-0.2,0.5-0.2c0.2-0.1,0.5-0.2,0.8-0.2c0.2,0,0.4,0,0.5,0
		c0.2,0,0.4,0,0.5,0c0.2,0,0.3,0.1,0.5,0.1l0.1,0l0.2,0.1l0.1,0l0,0l0,0l0,0l0.1,0l0,0l0,0l0,0l0,0c0,0,0.5,0.3,0.6,0.4l0.1,0.1
		l0.1,0.2c0,0.1,0.1,0.2,0.1,0.2c0,0,0,0,0,0.1c0,0,0,0,0,0.1c0.1,0.4,0.1,0.7,0.1,1c0,0.3-0.1,0.6-0.1,0.9
		c-0.1,0.3-0.2,0.5-0.2,0.7c-0.2,0.5-0.4,0.9-0.6,1.2c-0.4,0.7-0.8,1.3-1.1,1.7c-0.3,0.4-0.5,0.6-0.5,0.6s0.1-0.3,0.2-0.7
		c0.1-0.5,0.3-1.1,0.5-1.9c0.1-0.4,0.2-0.8,0.2-1.2c0.1-0.4,0.1-0.9,0.1-1.3c0-0.1,0-0.1,0-0.2c0-0.1,0-0.2-0.1-0.3c0,0,0,0,0,0
		c0,0,0,0,0,0c0,0,0,0,0,0l-0.1,0l0,0l-0.2,0c-0.1,0-0.2,0-0.3,0c0,0,0,0,0,0c-0.1,0-0.2,0-0.3,0c-0.1,0-0.2,0-0.3,0
		c-0.3,0-0.5,0.1-0.8,0.3c-0.1,0.1-0.2,0.1-0.3,0.2c-0.1,0.1-0.2,0.1-0.2,0.2c-0.2,0.1-0.3,0.3-0.5,0.5c-0.1,0.1-0.2,0.2-0.2,0.3
		c-0.1,0.2-0.3,0.4-0.4,0.5c-0.4,0.5-0.7,1.1-1,1.6c-0.3,0.5-0.6,1-0.8,1.3c-0.1,0.1-0.1,0.2-0.2,0.3c-0.2,0.4-0.4,0.7-0.4,0.7
		S75.3,33.9,75.3,33.8z M50.9,54.1c0,0,0.1-0.1,0.1-0.1c0.1-0.1,0.3-0.1,0.4-0.1c0.1,0,0.2,0,0.4,0.1c0.1,0,0.2,0.1,0.3,0.2l1,0.8
		l1.3-0.4c0.3-0.1,0.6-0.2,0.9-0.3l0.1,0l0.1,0c0.4-0.2,0.9-0.6,1.5-1c3.1-2.6,8.4-8.7,10.4-11.2c0.2-0.2,0.5-0.4,0.8-0.4
		c0.2,0,0.4,0,0.7,0.2c0.4,0.4,0.5,1,0.1,1.5c-1.4,1.7-2.8,3.3-4.1,4.8c-1.8,2-3.4,3.7-4.8,5c-0.1,0.1-0.3,0.2-0.4,0.4
		c-0.2,0.2-0.5,0.4-0.7,0.7c-0.2,0.2-0.5,0.4-0.7,0.6c-0.5,0.4-1,0.8-1.4,1.1c-0.2,0.2-0.5,0.3-0.6,0.4c-0.1,0.1-0.2,0.1-0.4,0.2
		c-0.4,0.1-0.7,0.3-1,0.3c-0.4,0.1-0.9,0.2-1.3,0.2c-0.3,0-0.5,0-0.7-0.1c-0.2,0-0.5-0.1-0.7-0.2c-0.1,0-0.2-0.1-0.3-0.1
		c-0.1-0.1-0.2-0.1-0.3-0.2c-0.5-0.3-0.8-0.7-0.8-0.8c0-0.1-0.1-0.1-0.1-0.2c0-0.1-0.1-0.3-0.1-0.4C50.4,54.6,50.6,54.3,50.9,54.1z
		 M66.3,91.8c-1.1,0.5-2.8,0.7-5.6,0.7c0,0-0.1,0-0.1,0c0.1,0.6,0.1,1.2,0.2,2c0,0.1,0,0.3,0,0.4c0,1.6-0.6,2.5-1.1,3
		C59,98.6,58.1,99,57,99c-0.5,0-1-0.1-1.4-0.2c-0.3-0.1-0.6-0.3-0.9-0.5c-0.5,1-1.4,1.4-1.9,1.5c-0.4,0.1-0.8,0.2-1.2,0.2
		c-2,0-3.6-1.5-4.3-4.1c-0.2,0.1-0.4,0.2-0.6,0.3c-0.7,0.4-1.6,0.6-2.6,0.6c-1.8,0-3.4-0.7-4.5-1.9c-0.8-1-1.2-2.2-1-3.5
		c0.5-4,6.2-6,6.8-6.2l1-0.3c0-0.1-0.1-0.2-0.1-0.3c0-0.1,0-0.1,0-0.2c0,0,0,0,0-0.1c0,0,0-0.1,0-0.1c0,0,0,0,0-0.1c0,0,0-0.1,0-0.1
		c0,0,0,0,0-0.1c0-0.1,0-0.1,0-0.2c0,0,0,0,0,0c0-0.1,0-0.1,0.1-0.2c0,0,0,0,0-0.1c0,0,0-0.1,0.1-0.1c0,0,0,0,0-0.1
		c0,0,0-0.1,0.1-0.1c0,0,0,0,0-0.1c0-0.1,0.1-0.1,0.1-0.2c0,0,0,0,0,0c0-0.1,0.1-0.1,0.1-0.2c0,0,0,0,0-0.1c0,0,0.1-0.1,0.1-0.1
		c0,0,0,0,0-0.1c0,0,0.1-0.1,0.1-0.1c0,0,0,0,0,0c0.1-0.1,0.3-0.2,0.4-0.4c0,0,0,0,0.1,0c0.1,0,0.1-0.1,0.2-0.1c0,0,0,0,0.1,0
		c0.1,0,0.1-0.1,0.2-0.1c0,0,0,0,0,0c0.1-0.1,0.2-0.1,0.3-0.2l0,0l0,0c0.1-0.1,0.2-0.1,0.3-0.2c0,0,0,0,0.1,0
		c0.2-0.1,0.4-0.2,0.7-0.3c0,0,0,0,0.1,0c0.1,0,0.2-0.1,0.4-0.1l0,0c0.1,0,0.2-0.1,0.4-0.1c0,0,0.1,0,0.1,0c0.1,0,0.3-0.1,0.4-0.1
		l0,0c0.1,0,0.3-0.1,0.4-0.1c0,0,0.1,0,0.1,0c0.1,0,0.3-0.1,0.4-0.1c0.1,0,0.3,0,0.4-0.1c0.2,0,0.3,0,0.5,0c0.1,0,0.1,0,0.2,0
		c0.1,0,0.2,0,0.3,0c0.1,0,0.1,0,0.2,0c0.1,0,0.2,0,0.3,0c0.1,0,0.1,0,0.2,0c0.1,0,0.2,0,0.3,0c0.1,0,0.1,0,0.2,0c0.1,0,0.2,0,0.3,0
		c0.1,0,0.2,0,0.3,0c0.1,0,0.1,0,0.2,0c0.1,0,0.2,0,0.2,0c0,0,0.1,0,0.1,0c0.1,0,0.2,0,0.2,0.1c0,0,0.1,0,0.1,0c0.1,0,0.2,0,0.2,0.1
		c0,0,0,0,0.1,0c0.5,0.2,0.9,0.4,1.3,0.7c0,0,0,0,0,0c0.1,0.1,0.1,0.1,0.2,0.2l0,0c0,0,0,0,0,0c0.1,0.1,0.2,0.2,0.2,0.2
		c0,0,0,0.1,0.1,0.1c0,0,0,0.1,0.1,0.1c0,0,0.1,0.1,0.1,0.1l0,0c0,0,0,0.1,0,0.1l1.3,0c2.9,0,5.2,0.4,7,1.1c1.8,0.7,2.9,1.8,3.1,3
		C70,88.6,68.8,90.7,66.3,91.8z M18,47.7c-0.3-0.3-0.6-0.8-1.1-1.4c-0.4-0.6-0.9-1.3-1.4-2c-0.3-0.4-0.5-0.7-0.8-1
		c-0.1-0.1-0.2-0.2-0.3-0.4c-0.1-0.1-0.2-0.2-0.3-0.3c-0.1-0.1-0.1-0.1-0.2-0.2c-0.1-0.1-0.1-0.1-0.2-0.1c-0.1,0-0.1-0.1-0.2-0.1
		c0,0,0,0,0,0l0,0c0,0,0,0,0,0c0,0,0,0,0,0c0,0,0,0,0,0c0,0,0,0,0,0c0,0,0,0,0,0l-0.1,0l-0.1,0c-0.1,0-0.1,0-0.2,0.1
		c-0.1,0.1-0.1,0.2-0.1,0.3C13,42.9,13,43.3,13,43.7c0,0.4,0.1,0.8,0.1,1.1c0.1,0.7,0.2,1.3,0.3,1.7c0,0.2,0.1,0.4,0.1,0.5
		c0,0,0,0.1,0,0.1c0,0.1,0,0.1,0,0.1s0,0-0.1-0.1c-0.1-0.1-0.2-0.2-0.3-0.4c-0.2-0.3-0.5-0.6-0.7-1.1c-0.1-0.2-0.2-0.3-0.3-0.5
		C12.1,45,12,44.9,12,44.7c-0.1-0.3-0.2-0.5-0.3-0.8c-0.1-0.4-0.2-0.9-0.2-1.5c0-0.2,0.1-0.5,0.2-0.7c0-0.1,0.1-0.2,0.1-0.3
		c0.2-0.3,0.5-0.6,0.9-0.8l0.1,0l0,0l0.1,0l0.1,0l0.1,0c0,0,0.1,0,0.2,0c0.1,0,0.1,0,0.2,0l0.1,0l0.1,0c0.1,0,0.2,0,0.3,0.1
		c0.3,0.1,0.5,0.2,0.7,0.3c0.1,0,0.1,0.1,0.2,0.1c0.1,0.1,0.2,0.2,0.3,0.2c0.1,0.1,0.2,0.2,0.4,0.3c0.2,0.2,0.4,0.4,0.5,0.6
		c0.3,0.4,0.6,0.8,0.8,1.3c0.2,0.4,0.4,0.8,0.6,1.2c0.1,0.2,0.2,0.5,0.3,0.7c0,0.1,0.1,0.3,0.1,0.4c0.1,0.2,0.1,0.3,0.2,0.5
		c0.1,0.5,0.2,0.9,0.3,1.2c0,0.2,0.1,0.3,0.1,0.4c0,0,0,0,0,0c0,0,0,0.1,0,0.1c0,0.1,0,0.2,0,0.2S18.3,48.1,18,47.7z M18.8,53
		c-0.1-0.4,0.1-0.6,0.2-0.8c0.1-0.1,0.3-0.4,0.7-0.4c0.1,0,0.1,0,0.2,0c0,0,0.1,0,0.1,0c0.1,0,0.2,0,0.4,0c0.1,0,0.2,0,0.4,0
		c0.3,0,0.6,0.1,0.9,0.2c0.2,0,0.5,0.1,0.8,0.2c0.2,0.1,0.4,0.1,0.7,0.2c0.2,0,0.3,0.1,0.5,0.1c0.2,0.1,0.4,0.1,0.6,0.2
		c0.2,0.1,0.3,0.1,0.5,0.2c0.1,0,0.2,0.1,0.3,0.1c0.2,0.1,0.4,0.1,0.6,0.2c0.4,0.1,0.8,0.3,1.3,0.5c0.2,0.1,0.4,0.2,0.7,0.2
		c0.1,0.1,0.3,0.1,0.4,0.2c0.7,0.3,1.4,0.5,2.2,0.8c0.2,0.1,0.4,0.2,0.6,0.2c0.3,0.1,0.5,0.2,0.8,0.3c0.4,0.2,0.8,0.3,1.2,0.4
		c0.2,0.1,0.4,0.2,0.6,0.2c1.6,0.5,2.8,0.9,3.9,1.2c0.1,0,0.2,0,0.3,0.1c0.5,0.1,0.9,0.2,1.3,0.2c0,0,0.1,0,0.1,0
		c0.5,0.1,1,0.1,1.3,0.1l0.7,0l0.5-0.2c0.1-0.1,0.3-0.1,0.5-0.1c0.1,0,0.2,0,0.3,0c0.1,0,0.2,0.1,0.4,0.2c0.1,0.1,0.1,0.1,0.2,0.2
		c0.1,0.1,0.1,0.2,0.1,0.3c0,0,0,0,0,0c0,0.1,0,0.2,0,0.2c0,0,0,0.1,0,0.1c0,0.1,0,0.1,0,0.2c0,0.1,0,0.1-0.1,0.2
		c0,0.1-0.1,0.1-0.1,0.2c0,0,0,0.1-0.1,0.1c0,0-0.1,0.1-0.1,0.1c0,0,0,0-0.1,0.1c-0.1,0.1-0.2,0.1-0.3,0.2c-0.2,0.1-0.4,0.2-0.7,0.2
		c-0.1,0-0.3,0.1-0.5,0.1c-0.2,0-0.4,0-0.6,0c-0.6,0-1.3-0.1-2-0.2c-0.7-0.1-1.6-0.3-2.5-0.6s-1.9-0.6-3-0.9
		c-1.1-0.4-2.2-0.8-3.4-1.3c-1.5-0.6-2.7-1.1-3.8-1.4c-0.1,0-0.3-0.1-0.4-0.1c-2.9-1-4.3-1.3-4.9-1.3l0,0l-0.2,0l-0.2,0l-0.1,0
		C19.3,53.9,18.9,53.5,18.8,53z M17.8,74.8c0-7.7,6.3-14,14-14s14,6.3,14,14c0,7.7-6.3,14-14,14S17.8,82.6,17.8,74.8z M67.8,80.5
		c-7.7,0-14-6.3-14-14c0-7.7,6.3-14,14-14c7.7,0,14,6.3,14,14C81.8,74.2,75.5,80.5,67.8,80.5z"/>
	<path class="st0" d="M17.5,116.3c2.6,0,4.4-1.3,5.7-3.1c0.1-0.1,0.2-0.2,0.2-0.3c-0.9-2.1-2.2-5-3.5-8.4c-1-2.3-2-4.9-2.9-7.5
		c-0.6,0.6-1.4,1.4-2.2,2.6c-0.9,1.4-1.7,3.6-2.2,5.9c-0.4,2.1-0.5,4.3-0.2,6.2c0.2,0.8,0.4,1.5,0.7,2.1
		C14.1,115.5,15.5,116.3,17.5,116.3z"/>
	<path class="st0" d="M4.6,108.7c0,1,2.1,1.9,5.9,2.7c-0.3-1.9-0.1-3.9,0.1-5.4C6.8,106.8,4.6,107.7,4.6,108.7z"/>
	<path class="st0" d="M115.6,106.2c-0.1,0.2-0.1,0.3-0.2,0.5c-0.5,1.1-1.1,2-2,2.8c-1.7,1.6-3.2,2.6-4.5,2.9
		c7.4-1,11.7-2.3,11.7-3.7C120.7,107.8,118.9,106.9,115.6,106.2z"/>
	<path class="st0" d="M113.7,105.8c1-2.4,0.7-5.3-0.2-7.5c-1.6-4.1-5-7-8.2-7.1l-0.1,0c0,0-0.6-0.1-1.5-0.1c-1.8,0-4,0.4-4.3,2.2
		c-0.2,1.3,0.3,1.9,1.5,3.1c1.3,1.4,3.1,3.3,3.7,7.3c0,0.3,0.1,0.6,0.1,0.8c0.6,4,1.7,6,3.2,6c0.7,0,2.1-0.4,4.3-2.5
		C112.8,107.3,113.3,106.5,113.7,105.8z"/>
	<path class="st0" d="M19.6,38.7c-0.1-3-0.2-6,0-6.9c0.4-1.8,11.6-14.7,19-16.2c0.6-0.1,1.3-0.2,2.2-0.2c8.3,0,24.4,6,26.3,7
		c0.1,0.2,0.2,0.7,0.4,1.4c-0.9,1-1.6,2.4-2,4.1c-0.4,1.7-0.3,3.3,0.1,4.6c-8.4,3.7-29.4,11.6-45.2,7.4c0.3,0.5,0.7,1,1,1.6
		c1.2,2.1,2.1,4.1,2.5,5.3c6.5,1,20.9,1.2,43.5-8.9c0.4-1.4,1.1-3.3,2-5.3c-0.4,0.4-0.8,0.6-1.2,0.5c-0.9-0.2-1.5-2.3-1-4.8
		c0.5-2.3,1.8-3.9,2.7-3.9c0.1,0,0.1,0,0.2,0c0.9,0.2,1.5,2.1,1,4.5c3-5.4,6.3-8.2,9.9-8.2c1.2,0,2.3,0.3,3.2,0.8
		c1.5-1.9,2.5-3.1,2.5-3.1c-1.1,0.2-3.6,0.5-3.6,0.5c9.1-3.3,8.4-12.4,8.4-12.4c0,1.6-4.7,5.3-4.7,5.3c0.2-1.4-0.5-3.1-0.5-3.1
		c0.2,1.8-5.4,6.4-5.4,6.4c0.4-0.8,0.1-2.3,0.1-2.3c-0.3,1.7-2.8,2.3-2.8,2.3c1.6-1.9,4.5-11.8,2.3-12.4C78.3,1.9,75.3,9,75.3,9
		c-0.1-1.7-1-1.7-1-1.7c0.4,5.2-3.8,9.4-3.8,9.4c-0.3-1-2-1.6-2-1.6c0.4,0.8,0.2,3.9,0,6c0,0,0,0-0.1-0.1
		c-0.9-0.9-18.8-7.5-27.6-7.5c-1,0-1.8,0.1-2.5,0.2c-4.6,0.9-10.2,5.7-13.1,8.5c-3.4,3.3-7.1,7.6-7.4,9.1c-0.1,0.8-0.1,2.8-0.1,5.1
		C18.4,37.2,19,37.9,19.6,38.7z"/>
	<path class="st0" d="M31.3,125.7c-2,0.5-7.9,3.6-12.9,4.6c-5.1,1-9.5,1.5-11,2.1c-1.5,0.6-2.7,1.7,0.3,2.8c3,1.1,17.7,1.5,19,0
		c1.3-1.5-0.9-2.2-4.1-2.2c-2.3,0-2-0.8-2-0.9c0,0,0.1-1,3.6-1.5c3.5-0.5,19-1.9,18.7-3.6C42.6,125.4,33.3,125.2,31.3,125.7z"/>
	<ellipse transform="matrix(0.9771 -0.2127 0.2127 0.9771 -28.829 7.6753)" class="st0" cx="21.3" cy="137.8" rx="3" ry="0.9"/>
	
		<ellipse transform="matrix(0.9969 -7.918606e-02 7.918606e-02 0.9969 -10.8389 1.5592)" class="st0" cx="14.2" cy="137.4" rx="3.2" ry="0.9"/>
	<ellipse transform="matrix(0.9908 -0.1351 0.1351 0.9908 -18.3992 2.4203)" class="st0" cx="8.6" cy="136.7" rx="2.1" ry="0.7"/>
	<ellipse transform="matrix(0.9896 -0.1437 0.1437 0.9896 -19.5172 2.0581)" class="st0" cx="4.5" cy="136.1" rx="2.1" ry="0.5"/>
	<ellipse transform="matrix(0.9896 -0.1437 0.1437 0.9896 -19.3591 1.9108)" class="st0" cx="3.5" cy="134.9" rx="2.1" ry="0.5"/>
	<ellipse transform="matrix(0.9896 -0.1438 0.1438 0.9896 -19.181 1.8633)" class="st0" cx="3.3" cy="133.6" rx="1.8" ry="0.5"/>
	<path class="st0" d="M61.7,127.2c-3.5,0.2-11.3-0.2-12.4,1.6c-1.1,1.8,3.2,2.5,9.9,1.9c6.7-0.6,16.2-1.3,16.6-3.4
		c0.4-2.1-1.8-1.7-2-3c-0.2-1.3,2.4-1.3,2.9-3.2c0.5-1.9-3.5-1.7-7.1-1.7c-3.6,0-9.6,0.3-10.1,2.2c-0.6,1.9,2.7,1.9,5.1,2.3
		c2.3,0.5,1.7,1.3,1.7,1.3C66.1,126.6,65.2,127.1,61.7,127.2z"/>
	<ellipse class="st0" cx="52.4" cy="132.2" rx="3" ry="1"/>
	<ellipse class="st0" cx="60.2" cy="132" rx="2" ry="0.9"/>
	<ellipse class="st0" cx="66.4" cy="131.4" rx="2.2" ry="0.7"/>
	<ellipse class="st0" cx="71.3" cy="130.6" rx="1.6" ry="0.8"/>
	<ellipse class="st0" cx="75.4" cy="129.7" rx="1.6" ry="0.7"/>
	<path class="st0" d="M31.8,63.3c-3,0-5.7,1.1-7.8,3c-0.1,0.1-0.3,0.3-0.4,0.4c-2.1,2.1-3.4,5-3.4,8.2c0,1.2,0.2,2.4,0.5,3.4
		c0.1,0.4,0.2,0.7,0.4,1.1c0.1,0.3,0.3,0.7,0.5,1c0.3,0.5,0.6,1,0.9,1.4c2.1,2.8,5.5,4.7,9.3,4.7c6.4,0,11.6-5.2,11.6-11.6
		C43.4,68.4,38.2,63.3,31.8,63.3z M30.8,82.6c-1,0-1.9-0.4-2.6-1.1c-0.1-0.1-0.2-0.3-0.4-0.4c-0.1-0.1-0.1-0.2-0.2-0.3
		c-0.1-0.2-0.2-0.4-0.3-0.7c0-0.1,0-0.1-0.1-0.2c-0.1-0.3-0.1-0.7-0.1-1c0-2,1.6-3.7,3.7-3.7c1.6,0,3,1.1,3.5,2.6
		c0.1,0.3,0.2,0.7,0.2,1.1C34.5,80.9,32.8,82.6,30.8,82.6z"/>
	<path class="st0" d="M71.8,55.6c-0.7-0.3-1.5-0.5-2.2-0.6c-0.6-0.1-1.2-0.1-1.8-0.1c-2.6,0-5,0.9-6.9,2.3c-0.9,0.7-1.7,1.5-2.4,2.4
		c-0.3,0.4-0.6,0.9-0.9,1.4c-0.2,0.3-0.3,0.7-0.5,1c-0.1,0.3-0.3,0.7-0.4,1.1c-0.3,1.1-0.5,2.2-0.5,3.4c0,1.4,0.2,2.7,0.7,4
		c0.1,0.2,0.1,0.4,0.2,0.5c0.3,0.7,0.7,1.4,1.1,2c0.1,0.2,0.2,0.3,0.3,0.5c0.2,0.3,0.5,0.6,0.7,0.9c0.4,0.4,0.8,0.8,1.2,1.2
		c2,1.7,4.6,2.6,7.4,2.6c6.4,0,11.6-5.2,11.6-11.6C79.4,61.5,76.2,57.2,71.8,55.6z M67.6,73.7c-0.4,0.2-0.9,0.3-1.4,0.3
		c-0.4,0-0.7-0.1-1.1-0.2c-0.4-0.1-0.8-0.3-1.2-0.6c-0.1-0.1-0.2-0.2-0.3-0.3c-0.1-0.1-0.2-0.2-0.2-0.3c-0.1-0.1-0.2-0.3-0.3-0.5
		c-0.1-0.1-0.2-0.3-0.2-0.4c-0.1-0.2-0.1-0.4-0.2-0.6c-0.1-0.3-0.1-0.5-0.1-0.8c0-0.1,0-0.3,0-0.4c0-0.1,0-0.2,0.1-0.4
		c0.3-1.3,1.2-2.4,2.5-2.8c0.3-0.1,0.7-0.2,1.1-0.2c0.5,0,1,0.1,1.4,0.3c0.2,0.1,0.4,0.2,0.6,0.3c0.1,0.1,0.2,0.1,0.3,0.2
		c0.8,0.7,1.3,1.7,1.3,2.8C69.9,71.9,68.9,73.2,67.6,73.7z"/>
	<path class="st0" d="M53.5,96.2c-0.1-0.3-0.2-0.5-0.3-0.8c-0.3-0.9-0.4-1.7-0.5-2.4c-0.3,0.1-0.6,0.2-0.9,0.3c-1,0.5-2,1.1-2.8,1.6
		c0,0,0,0,0,0c0.2,1,0.9,3.3,2.7,3.3c0.2,0,0.5,0,0.7-0.1C53.2,97.9,53.4,97.1,53.5,96.2z"/>
	<path class="st0" d="M55.9,92.4c-0.5,0-0.9,0-1.2,0c-0.2,0-0.3,0-0.5,0.1c0.1,0.6,0.3,1.5,0.5,2.4c0.3,1.1,0.8,2,1.3,2.3
		c0.2,0.1,0.5,0.1,0.8,0.1c0.9,0,2.1-0.4,2.1-2.4c0-0.1,0-0.2,0-0.3c-0.1-0.9-0.1-1.6-0.2-2.1c-0.3,0-0.6,0-0.9,0
		C57.2,92.5,56.5,92.4,55.9,92.4z"/>
	<path class="st0" d="M59.4,83.7c0,0-0.3,3.9-5.8,4.7c-1,0.2-1.9,0.2-2.7,0.2c-2.9,0-4.1-1-4.8-1.8c0,0-5.3,1.8-5.7,4.8
		c-0.3,2.3,1.9,3.4,3.8,3.4c0.6,0,1.3-0.1,1.7-0.4c1.9-1.1,4.8-3.4,8.6-3.9c0.3,0,0.8-0.1,1.4-0.1c1.3,0,3.1,0.1,4.8,0.1
		c2,0,3.9-0.1,4.9-0.6c2.4-1.1,2.4-2.9,2.2-3.8C67.7,85.5,65.3,83.8,59.4,83.7z"/>
</g>
</svg>
