<svg id="Layer_1" data-name="Layer 1" xmlns="http://www.w3.org/2000/svg" viewBox="0 0 227 302"><path d="M64.01843,209.80914c-9.63855-2.36474-11.92962-3.67962-11.92962-7.06756,0-3.38312,2.57635-4.9657,6.77057-4.9657,6.49908,0,8.21844,3.41516,8.69927,6.76837H85.25433c-.87622-9.8587-8.26226-19.03516-26.35009-19.03516-17.39862,0-25.10633,8.78589-25.10633,19.27558,0,8.414,3.67487,15.145,22.11646,19.61169,9.87365,2.35993,12.64557,3.91529,12.64557,8.02448,0,3.62835-2.5539,5.56891-8.09558,5.56891-5.91462,0-9.72944-2.29157-10.77234-7.73969H31.86914c1.38379,12.022,10.5437,20.09247,27.829,20.09247,18.35394,0,27.408-8.15588,27.408-19.89642C87.1062,221.55609,83.28174,214.6167,64.01843,209.80914Z"/><path d="M109.12244,197.86536a54.65927,54.65927,0,0,1-8.98706-10.39313v61.7077h18.37v-48.6062C115.33124,201.61151,112.32544,200.72186,109.12244,197.86536Z"/><path d="M181.41589,249.17993h12.30365V213.32642H164.5462V226.136h11.45844v.41729c0,4.12848-1.62427,10.88672-10.85254,10.88672-10.10022,0-13.08368-9.55475-13.08368-19.4284,0-9.996,2.571-19.60047,13.02918-19.60047,7.39672,0,9.72729,4.168,10.62493,7.48487h18.14661c-1.13379-9.60382-9.80316-20.38691-28.686-20.38691-20.83307,0-32.00184,13.96741-32.00184,33.13776,0,17.34308,9.65033,31.81323,28.79181,31.81323,8.68329,0,14.75495-2.31506,18.2898-6.97137A46.40716,46.40716,0,0,0,181.41589,249.17993Z"/><path d="M38.67773,260.90625l-4.41894,22.40137h5.14746l.7627-4.79492h4.08691l.78516,4.79492H50.3877l-4.47559-22.40137Zm2.14844,13.27734c.53028-3.2705,1.07715-6.82568,1.2959-8.97412H42.292c.28321,2.05957.77344,5.70557,1.28223,8.97412Z"/><path d="M60.99023,265.57275a3.90993,3.90993,0,0,0-3.81543,2.07862,15.85371,15.85371,0,0,0-.14355-1.79151H52.17383c.0332,1.07129.04492,2.7002.04492,5.03418V289.313h5.06934v-7.31445a3.34231,3.34231,0,0,0,3.17089,1.62939c3.36426,0,5.457-2.37695,5.457-9.31348C65.916,268.0835,64.08105,265.57275,60.99023,265.57275ZM58.90234,279.606c-1.52246,0-1.70019-1.33057-1.70019-5.2334,0-3.48584.28515-4.77783,1.73535-4.77783,1.26758,0,1.84082.85009,1.84082,4.87207C60.77832,278.35693,60.18945,279.606,58.90234,279.606Z"/><path d="M77.04785,265.57275a3.90992,3.90992,0,0,0-3.81543,2.07862,15.85838,15.85838,0,0,0-.14355-1.79151H68.23145c.0332,1.07129.04492,2.7002.04492,5.03418V289.313H73.3457v-7.31445a3.34233,3.34233,0,0,0,3.1709,1.62939c3.36426,0,5.457-2.37695,5.457-9.31348C81.97363,268.0835,80.13867,265.57275,77.04785,265.57275ZM74.96,279.606c-1.52246,0-1.70019-1.33057-1.70019-5.2334,0-3.48584.28515-4.77783,1.73535-4.77783,1.26758,0,1.84082.85009,1.84082,4.87207C76.83594,278.35693,76.24707,279.606,74.96,279.606Z"/><path d="M96.57227,260.90625H90.17285v22.40137h6.2168c6.06055,0,8.415-3.6958,8.415-11.63184C104.80469,264.22559,102.419,260.90625,96.57227,260.90625ZM96.29883,279.397h-.95606V264.85986H96.332c2.43262,0,3.06348,1.61866,3.06348,6.73438C99.39551,277.70654,98.69336,279.397,96.29883,279.397Z"/><path d="M113.85156,265.57275c-4.49218,0-6.84863,3.00293-6.84863,8.88428,0,4.73975.94824,9.1709,6.74707,9.1709,5.98828,0,6.50391-4.60938,6.62891-5.7793h-4.84766c-.05469.79492-.26367,1.96143-1.67969,1.96143-1.57812,0-1.7998-1.73926-1.7998-4.0127h8.39355c.02149-.35888.043-1.31445.043-1.9082C120.48828,269.06494,119.00586,265.57275,113.85156,265.57275Zm-1.75683,7.01123c0-1.61035.14453-3.27343,1.74511-3.27343,1.58008,0,1.65625,1.57715,1.65625,3.27343Z"/><rect x="122.85352" y="259.84814" width="5.06934" height="23.45947"/><rect x="130.9375" y="259.84814" width="5.06934" height="4.10742"/><rect x="130.91602" y="265.85986" width="5.06934" height="17.44775"/><path d="M145.03125,278.33838H144.917c-.32812-2.94727-1.15918-8.29395-1.89746-12.47852h-5.42676l4.23047,17.44776h5.9375l4.39063-17.44776h-5.04688C146.25488,270.69141,145.33984,275.40186,145.03125,278.33838Z"/><path d="M159.76953,265.57275c-4.49219,0-6.84863,3.00293-6.84863,8.88428,0,4.73975.94824,9.1709,6.74707,9.1709,5.98828,0,6.50391-4.60938,6.62891-5.7793h-4.84766c-.05469.79492-.26367,1.96143-1.67969,1.96143-1.57812,0-1.7998-1.73926-1.7998-4.0127h8.39355c.02149-.35888.043-1.31445.043-1.9082C166.40625,269.06494,164.92383,265.57275,159.76953,265.57275ZM158.0127,272.584c0-1.61035.14453-3.27343,1.74511-3.27343,1.58008,0,1.65625,1.57715,1.65625,3.27343Z"/><path d="M173.68457,268.69287a27.23446,27.23446,0,0,0-.11035-2.833h-4.84766c.03321,1.18067.04492,2.97364.04492,5.93164v11.51612h5.06934V274.8501c0-3.09766,1.30078-3.85791,4.27441-3.793v-5.48438A4.30328,4.30328,0,0,0,173.68457,268.69287Z"/><path d="M186.99609,277.36084h-.11523c-.17578-2.21582-1.15039-7.19971-1.98633-11.501h-5.53808l5.04492,17.6001c-.26953,1.46-.80078,1.9834-2.17871,1.9834-.35157,0-.90039-.0332-1.21387-.06641v4.00049a14.01988,14.01988,0,0,0,2.0918.15576c3.46,0,4.98046-.93115,6.415-6.38281l4.5586-17.29053h-5.09277C188.12891,270.30127,187.33594,274.73682,186.99609,277.36084Z"/><path d="M210.16522,129.78748c-.57733-3.16047-1.39465-6.27729-2.11352-9.41163q-3.74076-16.31-7.48792-32.6184c-2.404-10.45581-4.87518-20.89661-7.1961-31.37073-1.063-4.7973-3.49988-8.3725-8.00641-10.48779-5.44287-2.55506-10.85871-5.168-16.28492-7.75867Q142.98924,25.686,116.90057,13.23553a12.77513,12.77513,0,0,0-11.44812-.03521q-18.9516,9.00759-37.871,18.08307c-10.44122,4.99047-20.89264,9.9599-31.31506,14.98938a12.35265,12.35265,0,0,0-6.90656,8.5224c-1.88665,7.84124-3.65149,15.712-5.45947,23.5722-3.81848,16.59992-7.6048,33.20728-11.46625,49.7973-1.02978,4.42383-.46618,8.47144,2.37867,12.05152,5.33416,6.71264,10.73022,13.37616,16.10528,20.05639q1.49982,1.864,3.00055,3.72742H86.88477c-2.48664-4.87885-4.82007-9.81915-7.06971-14.79327-2.17285-4.80445-4.27148-9.63874-6.34747-14.48212a8.87587,8.87587,0,0,1-.44983-5.70538C74,125,81.72192,116.94861,81.72192,116.94861c-.6029-1.46546-1.08117-2.97229-1.54516-4.48389-1.021-3.32635-1.96533-6.67828-3.96314-9.67981q-9.736,4.68971-18.4848-1.44177a13.04074,13.04074,0,0,1-4.42633-5.08942,11.74571,11.74571,0,0,1-.61053-1.53466,5.87805,5.87805,0,0,1-3.22937-1.73432c-1.31519-1.25122-2.433-2.5686-1.60492-4.45026.78955-1.79412,2.47088-2.02972,4.2857-1.96929,3.96356-1.80591,7.93945-3.58936,11.88226-5.43323a7.70036,7.70036,0,0,1,3.15088-.63593q1.16273-2.6835,2.3252-5.36694c2.87292-6.64441,8.462-9.51221,15.91644-9.7713.90564-.03144,1.81433.01117,2.72168.01959-.83832-7.206-.73077-14.30707,2.846-20.996a28.0287,28.0287,0,0,1,12.64789-11.83893c1.6084-.80652,3.44189-.64874,4.09106.75671a25.88966,25.88966,0,0,1,7.87042-4.44934c4.33973-1.49469,5.89661.14826,7.10364,4.36115,1.545,5.39209-.30231,10.32062-2.60187,15.14294-3.33337,6.99024-8.13781,13.13263-13.20489,19.10169a4.513,4.513,0,0,0-1.29364,4.07824,77.29118,77.29118,0,0,0,5.5329,18.1604q.56011.57716,1.12042,1.15345c2.743-3.613,6.70636-6.07654,10.09967-9.07221,3.73035-3.29321,7.73682-6.31824,11.57788-9.50659l2.4126-1.80194c5.18335-4.68146,9.65558-5.32257,14.66577-2.09082a8.23055,8.23055,0,0,1,3.70471,5.18713,87.96191,87.96191,0,0,1,3.954,18.46472c1.12982,14.10486-1.85333,27.95874-5.404,41.63367-1.35651,5.22455-2.82922,10.4126-4.47168,15.54511q-2.3964,7.48836-5.35059,14.79327h44.93073q9.63739-11.97684,19.2511-23.97253A12.30458,12.30458,0,0,0,210.16522,129.78748Z"/><path d="M72.87227,84.27533c1.80554-1.47327,2.95233-3.13385,1.82684-5.44891a1.84,1.84,0,0,0-1.80932-1.25855c-.90985.02527-1.14465.68616-1.47815,1.27484a3.5403,3.5403,0,0,0-.22424.47376,3.73094,3.73094,0,0,0-.2262.95935,4.96607,4.96607,0,0,0-.02441.60577l.00158.025a13.76578,13.76578,0,0,0,.20911,1.80816l.00073.00043Q72.01092,83.49463,72.87227,84.27533Z"/><path d="M102.04811,64.87573c7.74482-7.99072,13.757-16.83294,15.53894-27.6759.2641-1.60657.98633-3.84772-.36352-4.68781-.88416-.55017-2.76618,1.33094-3.98609,2.423-9.59216,8.58673-12.73114,19.5415-13.81817,31.89294A24.0945,24.0945,0,0,0,102.04811,64.87573Z"/></svg>