<?xml version="1.0" encoding="utf-8"?>
<!-- Generator: Adobe Illustrator 26.1.0, SVG Export Plug-In . SVG Version: 6.00 Build 0)  -->
<svg version="1.1" id="a" xmlns="http://www.w3.org/2000/svg" xmlns:xlink="http://www.w3.org/1999/xlink" x="0px" y="0px"
	 viewBox="0 0 263.1 159.1" style="enable-background:new 0 0 263.1 159.1;" xml:space="preserve">
<style type="text/css">
	.st0{fill:#0086FF;}
	.st1{fill:#93EAFF;}
</style>
<path d="M12.9,151.5c0.7,0,1.3-0.1,2-0.4c0.6-0.3,1.1-0.7,1.5-1.2l1.9,1.9c-0.6,0.7-1.4,1.4-2.3,1.8c-0.9,0.4-1.9,0.6-2.9,0.6
	c-0.9,0-1.8-0.1-2.6-0.4c-0.8-0.3-1.6-0.8-2.3-1.4c-0.6-0.6-1.1-1.3-1.5-2.1c-0.3-0.8-0.5-1.6-0.5-2.5c0-0.9,0.1-1.7,0.5-2.5
	c0.3-0.8,0.8-1.5,1.5-2.1c0.6-0.6,1.4-1.1,2.2-1.4c0.8-0.3,1.7-0.5,2.6-0.5c1,0,2,0.2,2.9,0.6c0.9,0.4,1.7,1,2.4,1.8l-1.8,2
	c-0.4-0.5-0.9-1-1.5-1.2c-0.6-0.3-1.3-0.4-1.9-0.4c-1,0-2,0.4-2.8,1.1c-0.4,0.4-0.7,0.8-0.9,1.3c-0.2,0.5-0.3,1-0.3,1.5
	c0,0.5,0.1,1,0.2,1.5c0.2,0.5,0.5,0.9,0.8,1.3c0.3,0.4,0.7,0.6,1.2,0.8C11.9,151.5,12.4,151.5,12.9,151.5z M31,152.3
	c-1.3,1.2-3,1.9-4.8,1.9c-0.9,0-1.8-0.1-2.6-0.5c-0.8-0.3-1.6-0.8-2.2-1.4c-1.2-1.2-1.9-2.9-1.9-4.6s0.7-3.4,1.9-4.6
	c1.3-1.2,3-1.9,4.8-1.9c0.9,0,1.8,0.1,2.6,0.5c0.8,0.3,1.6,0.8,2.2,1.4c1.2,1.2,1.9,2.9,1.9,4.6S32.2,151,31,152.3z M30.1,147.7
	c0-1.1-0.4-2.1-1.1-2.9c-0.3-0.4-0.8-0.7-1.2-0.9c-0.5-0.2-1-0.3-1.5-0.3c-0.5,0-1,0.1-1.5,0.3c-0.5,0.2-0.9,0.5-1.2,0.9
	c-0.4,0.4-0.7,0.8-0.8,1.3s-0.3,1-0.2,1.5c0,1.1,0.4,2.1,1.1,2.9c0.3,0.4,0.8,0.7,1.2,0.9c0.5,0.2,1,0.3,1.5,0.3
	c0.5,0,1-0.1,1.5-0.3c0.5-0.2,0.9-0.5,1.2-0.9C29.7,149.7,30.1,148.7,30.1,147.7z M47,146.1l-3.5,6.9h-1.7l-3.5-6.9v7.9h-2.9v-12.7
	h3.9l3.3,6.9l3.3-6.9h3.9V154H47V146.1z M61.9,142.6c0.5,0.4,0.9,1,1.1,1.6c0.2,0.6,0.3,1.3,0.3,1.9c0,1.6-0.5,2.7-1.4,3.4
	c-0.9,0.8-2.3,1.1-4.3,1.1H56v3.5h-2.9v-12.6h4.6C59.6,141.5,61,141.8,61.9,142.6z M59.8,147.5c0.4-0.5,0.6-1.1,0.5-1.7
	c0-0.3,0-0.6-0.1-0.9c-0.1-0.3-0.3-0.5-0.6-0.7c-0.6-0.3-1.4-0.5-2.1-0.5H56v4.2h1.9c0.3,0,0.7,0,1-0.1
	C59.3,147.9,59.6,147.7,59.8,147.5C59.8,147.5,59.8,147.5,59.8,147.5z M69,150.8c0.2,0.3,0.5,0.5,0.9,0.7c0.3,0.2,0.7,0.2,1.1,0.2
	s0.7-0.1,1.1-0.2c0.3-0.2,0.6-0.4,0.9-0.7c0.5-0.7,0.8-1.6,0.7-2.4v-7h2.9v7c0,0.8-0.1,1.5-0.3,2.3c-0.3,0.7-0.7,1.4-1.2,2
	c-1.1,0.9-2.5,1.4-4,1.4c-1.5,0-2.9-0.6-3.9-1.5c-0.5-0.6-0.9-1.2-1.2-2c-0.3-0.7-0.4-1.5-0.3-2.3v-7h2.9v7
	C68.2,149.2,68.5,150,69,150.8L69,150.8z M84.9,143.9V154H82v-10.1h-3.6v-2.4h10.2v2.4C88.6,143.9,84.9,143.9,84.9,143.9z
	 M90.7,141.5h2.9v12.6h-2.9V141.5z M105.7,141.5h2.9v12.6h-2.9l-6.1-7.9v7.9h-2.9v-12.6h2.7l6.4,8.1L105.7,141.5L105.7,141.5z
	 M120.2,147.7h2.9v4.5c-0.7,0.7-1.5,1.3-2.4,1.6c-0.9,0.4-1.9,0.5-2.9,0.5c-1.8,0-3.5-0.6-4.8-1.8c-0.6-0.6-1.1-1.3-1.5-2.1
	s-0.5-1.6-0.5-2.5c0-0.9,0.1-1.7,0.5-2.5c0.3-0.8,0.8-1.5,1.4-2.1c0.6-0.6,1.4-1.1,2.2-1.4c0.8-0.3,1.7-0.5,2.6-0.5
	c1.8,0,3.5,0.6,4.8,1.8l-1.5,2.1c-0.4-0.5-1-0.8-1.6-1c-0.5-0.2-1-0.3-1.6-0.3c-1,0-2,0.4-2.8,1.1c-0.4,0.4-0.7,0.8-0.9,1.3
	c-0.2,0.5-0.3,1-0.3,1.6c0,1.1,0.4,2.1,1.1,2.9c0.3,0.3,0.7,0.6,1.2,0.8c0.4,0.2,0.9,0.3,1.4,0.3c0.9,0,1.7-0.1,2.5-0.5v-3.6
	C120,147.7,120.2,147.7,120.2,147.7z M139.4,141.5v2.5h-6v2.7h5.7v2.5h-5.7v4.9h-2.9v-12.6H139.4z M152.7,152.3
	c-1.3,1.2-3,1.9-4.8,1.9c-0.9,0-1.8-0.1-2.6-0.5c-0.8-0.3-1.6-0.8-2.2-1.4c-1.2-1.2-1.9-2.9-1.9-4.6s0.7-3.4,1.9-4.6
	c1.3-1.2,3-1.9,4.8-1.9c0.9,0,1.8,0.1,2.6,0.5c0.8,0.3,1.6,0.8,2.2,1.4c1.2,1.2,1.9,2.9,1.9,4.6S154,151,152.7,152.3z M151.7,147.7
	c0-1.1-0.4-2.1-1.1-2.9c-0.3-0.4-0.8-0.7-1.2-0.9c-0.5-0.2-1-0.3-1.5-0.3c-0.5,0-1,0.1-1.5,0.3c-0.5,0.2-0.9,0.5-1.2,0.9
	c-0.4,0.4-0.7,0.8-0.8,1.3c-0.2,0.5-0.3,1-0.2,1.5c0,1.1,0.4,2.1,1.1,2.9c0.3,0.4,0.8,0.7,1.2,0.9c0.5,0.2,1,0.3,1.5,0.3
	c0.5,0,1-0.1,1.5-0.3c0.5-0.2,0.9-0.5,1.2-0.9c0.4-0.4,0.7-0.8,0.8-1.3C151.7,148.7,151.8,148.2,151.7,147.7z M160.6,150.8
	c0.2,0.3,0.5,0.5,0.9,0.7c0.3,0.2,0.7,0.2,1.1,0.2s0.7-0.1,1.1-0.2c0.3-0.2,0.6-0.4,0.9-0.7c0.5-0.7,0.8-1.6,0.7-2.4v-7h2.9v7
	c0,0.8-0.1,1.5-0.3,2.3c-0.3,0.7-0.7,1.4-1.2,2c-1.1,0.9-2.5,1.4-4,1.4c-1.5,0-2.9-0.6-3.9-1.5c-0.5-0.6-0.9-1.2-1.2-2
	c-0.3-0.7-0.4-1.5-0.3-2.3v-7h2.9v7C159.7,149.2,160,150.1,160.6,150.8z M180,141.5h2.9v12.6H180l-6.1-7.9v7.9H171v-12.6h2.7
	l6.4,8.1L180,141.5L180,141.5z M195.9,143.1c0.6,0.6,1.1,1.3,1.4,2.1c0.3,0.8,0.5,1.6,0.4,2.5c0,0.8-0.1,1.7-0.4,2.5
	c-0.3,0.8-0.8,1.5-1.4,2.1c-1.2,1.1-3,1.7-5.5,1.7h-4.4v-12.6h4.6C193,141.5,194.8,142,195.9,143.1z M193.8,150.6
	c0.4-0.4,0.7-0.8,0.8-1.3c0.2-0.5,0.3-1,0.2-1.5c0-0.5-0.1-1.1-0.2-1.5c-0.2-0.5-0.5-0.9-0.8-1.3c-0.4-0.4-1-0.6-1.5-0.8
	c-0.6-0.2-1.1-0.2-1.7-0.2h-1.6v7.6h1.9C191.9,151.6,193,151.3,193.8,150.6z M209.1,154l-1.2-2.7h-5.4l-1.2,2.7h-3.1l5.6-12.6h2.8
	l5.6,12.6H209.1z M205.2,145.2l-1.6,3.6h3.3L205.2,145.2z M218.3,143.9V154h-2.9v-10.1h-3.7v-2.4h10.2v2.4H218.3z M224,141.5h2.9
	v12.6H224V141.5z M240.9,152.3c-1.3,1.2-3,1.9-4.8,1.9c-0.9,0-1.8-0.1-2.6-0.5c-0.8-0.3-1.6-0.8-2.2-1.4c-1.2-1.2-1.9-2.9-1.9-4.6
	s0.7-3.4,1.9-4.6c1.3-1.2,3-1.9,4.8-1.9c0.9,0,1.8,0.1,2.6,0.5c0.8,0.3,1.6,0.8,2.2,1.4c1.2,1.2,1.9,2.9,1.9,4.6
	S242.1,151,240.9,152.3z M240,147.7c0-1.1-0.4-2.1-1.1-2.9c-0.3-0.4-0.8-0.7-1.2-0.9c-0.5-0.2-1-0.3-1.5-0.3c-0.5,0-1,0.1-1.5,0.3
	c-0.5,0.2-0.9,0.5-1.2,0.9c-0.4,0.4-0.7,0.8-0.8,1.3c-0.2,0.5-0.3,1-0.2,1.5c0,1.1,0.4,2.1,1.1,2.9c0.3,0.4,0.8,0.7,1.2,0.9
	c0.5,0.2,1,0.3,1.5,0.3c0.5,0,1-0.1,1.5-0.3c0.5-0.2,0.9-0.5,1.2-0.9C239.6,149.7,240,148.7,240,147.7z M254.3,141.5h2.9v12.6h-2.9
	l-6.1-7.9v7.9h-2.9v-12.6h2.7l6.4,8.1L254.3,141.5z M17.1,127.8c1.2,0,2.4-0.2,3.5-0.8s2-1.3,2.8-2.2l3.4,3.4
	c-2.7,2.9-5.7,4.4-9.4,4.4c-1.6,0.1-3.3-0.2-4.8-0.8s-2.9-1.4-4.1-2.5c-1.1-1.1-2-2.4-2.6-3.8c-0.6-1.4-0.9-3-0.8-4.5
	c0-1.6,0.2-3.1,0.9-4.6c0.6-1.5,1.5-2.8,2.7-3.9c1.2-1.1,2.7-2,4.3-2.6c1.6-0.6,3.3-0.8,5-0.7c1.7,0.1,3.4,0.5,4.9,1.2s2.9,1.8,4,3
	l-3.2,3.6c-0.7-0.9-1.6-1.7-2.7-2.2s-2.2-0.8-3.4-0.8c-1.9,0-3.7,0.6-5,1.8c-0.7,0.6-1.3,1.4-1.6,2.3c-0.4,0.9-0.5,1.8-0.5,2.8
	c0,0.9,0.1,1.9,0.4,2.8c0.3,0.9,0.9,1.7,1.5,2.4C13.7,127.2,15.3,127.8,17.1,127.8L17.1,127.8z M30.9,132.2v-22.8H36v18.3h10v4.5
	L30.9,132.2z M68.8,129.1c-2.4,2.2-5.5,3.4-8.7,3.4s-6.4-1.2-8.7-3.4c-1.2-1.1-2.1-2.4-2.7-3.8c-0.6-1.4-0.9-3-0.9-4.5
	c0-1.6,0.2-3.1,0.9-4.5c0.6-1.4,1.5-2.7,2.7-3.8c2.4-2.2,5.5-3.4,8.7-3.4s6.4,1.2,8.7,3.4c1.2,1.1,2.1,2.4,2.7,3.8
	c0.6,1.4,0.9,3,0.9,4.5c0,1.6-0.2,3.1-0.9,4.5C70.9,126.7,70,128,68.8,129.1L68.8,129.1z M67,120.7c0-1.9-0.7-3.8-2-5.2
	c-0.6-0.7-1.4-1.2-2.2-1.6c-0.9-0.4-1.8-0.6-2.7-0.6c-0.9,0-1.9,0.2-2.7,0.6c-0.9,0.4-1.6,0.9-2.2,1.6c-1.3,1.4-2.1,3.3-2,5.2
	c0,1.9,0.7,3.8,2,5.2c0.6,0.7,1.4,1.2,2.2,1.6c0.9,0.4,1.8,0.6,2.7,0.6c0.9,0,1.9-0.2,2.7-0.6c0.9-0.4,1.6-0.9,2.2-1.6
	c0.7-0.7,1.2-1.5,1.6-2.4C66.9,122.6,67,121.7,67,120.7z M83,126.4c0.4,0.5,1,0.9,1.6,1.2s1.3,0.4,2,0.4c0.7,0,1.3-0.1,1.9-0.4
	c0.6-0.3,1.1-0.7,1.5-1.2c0.9-1.3,1.3-2.8,1.3-4.3v-12.6h5.2v12.7c0,3.3-0.9,5.8-2.8,7.6c-0.9,0.9-2.1,1.6-3.3,2
	c-1.2,0.5-2.5,0.7-3.9,0.6c-1.3,0-2.6-0.2-3.9-0.6s-2.4-1.2-3.3-2c-1.9-1.8-2.8-4.3-2.8-7.6v-12.7h5.2v12.6
	C81.5,123.7,82,125.2,83,126.4z M119.7,112.5c2.2,2,3.4,4.8,3.4,8.3c0,3.5-1.1,6.4-3.2,8.4c-2.1,2.1-5.5,3.1-9.9,3.1h-8.1v-22.8h8.3
	C114.2,109.5,117.5,110.5,119.7,112.5z M115.9,126c1.3-1.2,1.9-2.9,1.9-5.1c0-2.2-0.6-4-1.9-5.1c-1.3-1.2-3.2-1.8-5.9-1.8h-2.9v13.9
	h3.3C112.4,127.9,114.3,127.3,115.9,126L115.9,126z M152.7,109.5h5.2v22.8h-5.2L141.5,118v14.3h-5.2v-22.8h4.9l11.5,14.6
	C152.7,124.1,152.7,109.5,152.7,109.5z M180.3,132.2l-2.2-4.9h-9.8l-2.2,4.9h-5.6l10.1-22.8h5l10.1,22.8H180.3z M173.3,116.3
	l-2.9,6.6h5.8L173.3,116.3z M196.8,113.9v18.4h-5.2v-18.4H185v-4.4h18.5v4.4H196.8z M207.1,109.5h5.2v22.8h-5.2V109.5z M226.7,123.9
	l6-14.5h5.7l-9.4,22.8h-4.4l-9.4-22.8h5.7L226.7,123.9z M257.9,109.5v4.5h-11.6v4.7h10.5v4.4h-10.5v4.8h12v4.6h-17.2v-22.8
	L257.9,109.5L257.9,109.5L257.9,109.5z"/>
<g>
	<path class="st0" d="M98.7,58.9H87.3v27h26.9V74.2H98.7V58.9z"/>
	<path class="st0" d="M156.5,59v15.2h-15.4v11.6H168v-27h-11.6L156.5,59z"/>
	<path class="st0" d="M87.3,32h11.6l-0.1-0.1V16.7h15.4V5.1H87.3V32z"/>
	<path class="st0" d="M141.1,5.1v11.6h15.4V32H168v-27C168,5.1,141.1,5.1,141.1,5.1z"/>
	<path class="st1" d="M139.6,32l-15.4-15.4h16.9V5.1h-27v11.6L129.5,32H139.6z"/>
	<path class="st1" d="M125.7,58.9h-10.1l12.7,12.7l2.5,2.6h-16.8v11.6h27V74.1l-7.7-7.6L125.7,58.9z"/>
	<path class="st1" d="M156.5,32v16.8l-2.7-2.6l-12.7-12.7v10.2l7.6,7.6l7.7,7.7H168V32H156.5L156.5,32z"/>
	<path class="st1" d="M114.1,47.3L98.9,32H87.3v26.8h11.5V42.1l15.4,15.4V47.3z"/>
</g>
</svg>
