<?xml version="1.0" encoding="utf-8"?>
<!-- Generator: Adobe Illustrator 21.1.0, SVG Export Plug-In . SVG Version: 6.00 Build 0)  -->
<svg version="1.1" id="Layer_1" xmlns="http://www.w3.org/2000/svg" xmlns:xlink="http://www.w3.org/1999/xlink" x="0px" y="0px"
	 viewBox="0 0 147 254" style="enable-background:new 0 0 147 254;" xml:space="preserve">
<style type="text/css">
	.st0{fill:#FFFFFF;}
</style>
<g>
	<path class="st0" d="M95.7,142.4c0,0,3.3-15.9,17.1-35.1c9.6-5.5,19.2-12.3,27.3-20.5c7.5-37.3-3.9-77.4-3.9-77.4
		S96.2-1.9,58.8,5.6C50.7,13.8,43.9,23.4,38.4,33C19.2,46.8,3.3,50.1,3.3,50.1S16,58.8,22.2,68.7c-2.6,7.6-3.8,12.4-3.8,12.4
		c1,4.7,3.9,10.1,8,15.6c-2.8,2.2-6.1,4.5-9.7,6.5c-0.4,0.2-0.9,0.5-1.3,0.7c3.1,10.1,16.6,22.9,26.5,26.3c0.2-0.4,0.4-0.8,0.6-1.2
		c2-3.7,4.4-7.1,6.7-9.9c5.5,4,10.9,7,15.4,8.3c0,0,4.9-1.2,12.4-3.8C86.9,129.7,95.7,142.4,95.7,142.4z M67.5,108.7
		c-5.7-2.5-13.2-8.5-18.4-13.7c-7-7-10.7-12.9-12.2-16.6c2.4-8.3,11.8-37.1,29.9-56.4c21.7-3.7,44.5,0.3,54.4,2.5
		c2.2,9.9,6.2,32.7,2.5,54.4C104.5,96.8,76.2,106.2,67.5,108.7z"/>
	<circle class="st0" cx="86.6" cy="59.2" r="14.9"/>
</g>
<g>
	<path class="st0" d="M6,187.7h8.7l0.9,11.3h0.4c4.2-7.8,10.6-12.8,17.7-12.8c2.7,0,4.6,0.4,6.7,1.3l-2,9.2c-2-0.6-3.5-1-6-1
		c-5.2,0-11.5,3.8-15.7,14.3v39.9H6L6,187.7L6,187.7L6,187.7z"/>
	<path class="st0" d="M48.4,158.8h10.4v61.7h0.4l26.5-32.8h11.6l-20.9,25l23.7,37.2H88.6l-18.2-30l-11.6,13.6v16.4H48.4V158.8z"/>
	<path class="st0" d="M112.7,196.3h-9.2v-7.9l9.7-0.6l1.3-17.4h8.8v17.4h16.8v8.6h-16.8v34.6c0,7.7,2.4,12,9.6,12c2.2,0,5-0.9,7-1.7
		l2,7.9c-3.5,1.2-7.7,2.3-11.5,2.3c-13.3,0-17.8-8.4-17.8-20.7L112.7,196.3L112.7,196.3z"/>
</g>
</svg>
