<svg xmlns="http://www.w3.org/2000/svg" role="img" viewBox="-13.91 -13.91 827.32 577.32"><title>TektonHub_color</title><style>svg {enable-background:new 0 0 800 550}</style><style/><g id="Layer_4"><linearGradient id="SVGID_1_" x1="-33.988" x2="483.406" y1="337.997" y2="835.298" gradientUnits="userSpaceOnUse"><stop offset="0" stop-color="#a677b4"/><stop offset=".013" stop-color="#ab75ae"/><stop offset=".1" stop-color="#c9658a"/><stop offset=".181" stop-color="#de5a6f"/><stop offset=".254" stop-color="#eb5360"/><stop offset=".311" stop-color="#f0515a"/><stop offset=".388" stop-color="#bc4967"/><stop offset=".465" stop-color="#904272"/><stop offset=".543" stop-color="#6b3d7c"/><stop offset=".62" stop-color="#4f3983"/><stop offset=".698" stop-color="#3b3588"/><stop offset=".775" stop-color="#2f348b"/><stop offset=".852" stop-color="#2b338c"/></linearGradient><path fill="url(#SVGID_1_)" d="M251.33 438.59h-29.64l-44.8 44.42 15.16-44.42h-31.12l-28.01 81.99H88.76l6.05-17.55h39.15l8.13-23.89h-39.15l5.35-15.66h38.36l8.53-24.89H16.59l-8.82 25.88h22.3L2.02 546.25h31.33l27.95-81.78h14.24l-28.02 81.78H155.28l8.52-24.88 16.46-15.56 4.76 40.44h36.08l-10.41-68.3z"/><linearGradient id="SVGID_2_" x1="241.914" x2="759.308" y1="50.947" y2="548.248" gradientUnits="userSpaceOnUse"><stop offset="0" stop-color="#a677b4"/><stop offset=".013" stop-color="#ab75ae"/><stop offset=".1" stop-color="#c9658a"/><stop offset=".181" stop-color="#de5a6f"/><stop offset=".254" stop-color="#eb5360"/><stop offset=".311" stop-color="#f0515a"/><stop offset=".388" stop-color="#bc4967"/><stop offset=".465" stop-color="#904272"/><stop offset=".543" stop-color="#6b3d7c"/><stop offset=".62" stop-color="#4f3983"/><stop offset=".698" stop-color="#3b3588"/><stop offset=".775" stop-color="#2f348b"/><stop offset=".852" stop-color="#2b338c"/></linearGradient><path fill="url(#SVGID_2_)" d="M468.43 438.59l-10.9 31.82c-3.27 9.62-5.65 19.03-7.14 28.25-.5-5.95-1.98-12.89-4.26-20.72l-8.66-29.46c11.38-4.46 21.58-13.2 28.6-25.19 2.21-3.78 4.13-8.03 5.59-12.62 13.04 5.19 26.59 7.12 37.75 7.63l1.8.08c4.38 2.01 9.19 3.43 14.14 4.03 1.12.14 2.27.2 3.42.2 11.15 0 23.27-6.19 30.15-14.7 6.88 8.51 19 14.7 30.15 14.7 1.15 0 2.3-.07 3.42-.2 4.91-.6 9.68-1.99 14.03-3.98l2.9-.13c36.43-1.67 56.35-15.82 66.65-27.39 11.47-12.89 13.95-25.61 14.05-26.15l.18-.94-.09-.96c-3.65-40.23-41.36-94.26-48.46-104.12.75-1 1.46-2.04 2.12-3.13 1.59-2.48 2.97-5.06 4.16-7.63.2-.5.5-1.09.69-1.59 14.18-8.13 27.26-18.83 38.56-32.71 6.54-8.03 15.66-19.83 16.55-30.43.4-3.57.5-7.24.59-10.9.1-8.82-.4-17.65-1.49-26.37-.59-4.86-1.39-9.62-2.28-14.27 6.64-7.63 12.39-15.96 17.25-24.88 7.53-13.98 12.49-29.14 14.37-45.01 1.88-15.56.59-31.42-3.47-46.69-2.08-7.73-9.02-12.99-16.95-12.99-29.74 0-55.51 12.19-79.3 27.86-44.81-27.56-101.51-27.46-146.22 0-23.89-15.66-49.57-27.86-79.3-27.86-7.93 0-14.77 5.25-16.95 12.89-3.51 12.79-4.97 26.07-4.21 39.31h-118c-1.74 0-3.42.66-4.71 1.84l-94.72 87.42c-1.63 1.5-2.37 3.6-2.21 5.65-.01.18-.03.36-.03.55v22.41l-64.81 44.59s-.01 0-.01.01c-.05.04-.1.08-.15.11-.15.11-.3.22-.43.34-.01.01-.01.01-.02.01-.04.04-.08.08-.12.11-.14.12-.27.25-.39.38-.04.05-.09.1-.13.15-.12.13-.23.27-.34.4l-.12.18c-.1.14-.19.27-.28.41l-.12.21c-.08.14-.15.27-.21.41-.04.08-.07.16-.11.24-.06.13-.11.27-.16.4l-.09.27c-.04.13-.08.27-.11.4-.02.1-.05.19-.07.29-.03.14-.05.28-.07.43-.01.09-.03.18-.04.27-.02.17-.02.35-.03.53 0 .05-.01.1-.01.16v54.78L62.15 310.8l-.09.09c-.09.09-.18.18-.27.28-.07.08-.14.15-.21.23-.08.09-.15.18-.22.28-.07.09-.14.17-.2.26s-.12.19-.18.28c-.06.1-.12.19-.18.29-.06.1-.1.2-.16.3-.05.1-.1.2-.14.3-.05.11-.09.22-.13.33-.04.1-.07.19-.11.29-.04.12-.07.23-.1.35-.03.1-.05.2-.08.3-.03.12-.05.23-.06.35-.02.11-.04.22-.05.33l-.03.33c-.01.12-.02.25-.02.37 0 .04-.01.09-.01.13v56.05c0 3.83 3.11 6.94 6.94 6.94h190.33c1.03.53 2.06 1.04 3.11 1.49 32.7 14.04 94.98 5.26 124.91 1.04 5.19-.73 9.29-1.31 11.91-1.58 3.06-.31 5.17-.2 6.5.01-1.07 1.47-3.27 3.79-7.39 6.72-11.82 8.4-17.96 24.82-14.6 39.04 2.33 9.86 8.94 17.46 18.68 21.93l-7.26 21.25c-.28-5.94-1.81-11.18-4.63-15.7-6.15-9.71-16.65-14.57-31.62-14.57-1.23 0-2.44.04-3.65.1h-93.5L233 464.47h22l-26.27 76.93.69 4.86h28.95l27.96-81.78h16.28c-7.2 8.29-12.66 17.84-16.48 28.75-5.65 16.65-5.55 29.84.59 39.75 6.05 9.91 16.75 14.87 31.82 14.87 14.97 0 29.05-5.06 42.13-15.37 6.36-4.92 11.85-10.66 16.49-17.19l-10.54 30.87h26.77l17.84-52.14c1.69-4.76 2.87-10.71 3.47-17.65.69 8.82 1.78 16.26 3.57 22.4l13.38 47.48h26.96l36.78-107.66h-26.96zm-114.3 51.65c-4.46 12.79-8.82 21.51-12.89 26.37-4.06 4.86-8.92 7.24-14.57 7.24-10.41 0-12.29-9.91-5.45-29.74 7.34-21.02 16.46-31.52 27.36-31.52 10.11-.01 12 9.21 5.55 27.65zm147.49-113.33c-1.37.73-2.19 1.26-2.35 1.37l-.36.26c-6.64 5.07-9.29 12.27-7.25 19.76.39 1.45.96 2.87 1.67 4.26-7.26-1.36-13.52-3.33-18.89-5.69.36-3.98.34-8.11-.11-12.33 1.32-3.97 3.04-7.27 4.89-9.98 4.7-6.88 10.18-9.98 11.88-10.82 5.24 7.68 10.52 13.14 10.52 13.14h-.04c.02.02.03.03.04.03zm48.83 18.11c-2.13 7.92-15.43 14.61-23.44 13.63-11.06-1.34-20.45-8.45-21.96-13.99-.38-1.4-.39-2.97 2.08-4.93 1.75-1.08 17.61-10.27 37.6-1.7 6.82 2.92 6.05 5.77 5.72 6.99zm8.46-14.12c-2.27-2.2-5.19-4.11-8.71-5.62-11.69-5.01-22.34-5.41-30.86-4.13-3.37-1.68-7.46-4-12-7.1 4.83-17.94 26.33-31.5 52.06-31.5 25.01 0 46.76 13.32 51.91 31.02-2.75 1.99-5.27 3.63-7.45 4.94-1.76 1.05-3.38 1.95-4.86 2.72-8.6-1.37-19.45-1.07-31.39 4.05-3.51 1.51-6.43 3.41-8.7 5.62zm53.86 13.76c-1.51 5.54-10.9 12.65-21.96 13.99-8.01.98-21.31-5.72-23.44-13.63-.33-1.22-1.09-4.07 5.72-6.99 6.26-2.68 12.1-3.63 17.24-3.63 11.2 0 19.02 4.5 20.37 5.34 2.46 1.95 2.45 3.52 2.07 4.92zm29.72 3.01c-5.21 2.12-11.21 3.88-18.1 5.1.76-1.46 1.37-2.95 1.78-4.47 2.04-7.49-.6-14.69-7.25-19.76l-.36-.26c-.14-.1-.79-.52-1.89-1.12l-.63.32s.18-.13.5-.39l-.18-.09c.53-.36 1.06-.72 1.59-1.1 2.5-2.2 7.03-6.65 10.96-13.06 1.8 1.95 3.38 3.89 4.76 5.8 8.69 12.07 9.35 23.06 8.82 29.03zm33.78-34.61c-.99 3.82-5.9 18.75-23.8 29.62-.29-7.55-2.45-17.73-9.84-28.53-2.44-3.56-5.43-7.19-9.12-10.81 1.44-3.98 2.46-8.4 2.73-13.23-.5.35-.97.76-1.38 1.25-4.15 4.97-8.26 9.22-12.18 12.85-9.12-20.91-34.12-35.54-63.27-35.54-29.6 0-54.77 15.29-63.58 36.42-4.59-4.04-9.35-8.81-14.08-14.47-.26-.31-.54-.58-.83-.83.45 5.12 2.45 10.48 5.06 15.47-2.52 1.35-7.17 4.31-11.74 9.56-1.18 1.35-2.34 2.85-3.47 4.52-2.41-6.55-6.01-13.16-11.08-19.64-3.29-4.2-7.11-7.72-11.32-10.7 10.04-29.24 29.64-61.99 38.11-75.48 1.82.96 2.94 1.43 2.94 1.43 11 7.63 25.38 11.99 39.45 14.37-15.66-5.15-26.86-14.67-34.7-25.08 3.47 1.29 7.04 2.48 10.71 3.57 8.53 4.76 17.94 8.33 27.56 10.61 11.4 2.78 22.6 3.87 34.2 3.07 9.32-.59 18.54-2.28 27.46-5.15 7.63-2.38 14.37-5.35 20.32-8.53 3.57-1.09 7.14-2.28 10.71-3.57-8.33 11.1-20.52 21.11-37.77 26.07 13.58-1.78 27.76-5.25 38.96-11.8l3.89-2.02c5.59 7.8 42.11 59.84 46.06 96.57zM533.63 231.55c-5.15 2.18-9.22 5.55-10.11 10.9-.4 2.08-.2 4.26.59 6.34 0 0 .1.1.1.2-7.63-1.59-15.27-3.57-22.5-6.05-23.1-8.03-42.33-20.72-57.6-39.45-2.58-3.17-4.66-6.05-6.25-8.53 9.22 3.37 21.81 7.43 38.07 10.9 9.52 2.08 20.32 3.87 32.52 5.15.4.99.89 1.98 1.49 2.87 5.16 8.85 13.88 14.4 23.69 17.67zm-28.25-93.58c-2.58 0-5.15.79-7.24 2.28-2.28 1.59-4.16 3.87-5.45 6.54-.99 2.08-3.47 2.97-5.55 1.98-2.08-.99-2.97-3.47-1.98-5.55 1.88-4.06 4.86-7.53 8.33-9.91 3.47-2.38 7.53-3.77 11.9-3.77 6.44 0 12.19 2.87 16.26 7.63 4.06 4.66 6.54 11 6.54 17.94 0 2.28-1.88 4.16-4.16 4.16s-4.16-1.88-4.16-4.16c0-4.86-1.69-9.22-4.46-12.29-2.59-2.96-6.16-4.85-10.03-4.85zm80.1 107.96c-1.29 2.58-4.86 4.56-9.12 5.95-5.55.69-11.3 1.09-16.95 1.49-5.65-.3-11.3-.89-16.85-1.49-4.56-1.49-8.23-3.67-9.32-6.54-3.97-10.42 58.09-10.72 52.24.59zm90.7-44.61c-8.62 10.41-17.94 20.12-29.24 27.46-15.66 10.21-33.41 16.55-52.14 20.32.79-2.18 1.09-4.56.59-6.84-.99-5.15-4.86-8.43-9.91-10.61 9.71-3.37 18.44-8.92 23.59-17.65.59-.99.99-1.88 1.49-2.87 12.09-1.29 23-3.07 32.51-5.15 16.16-3.47 28.75-7.53 37.87-10.81-1.48 1.98-3.07 4.07-4.76 6.15zm-77.12-46.2c0 2.28-1.88 4.16-4.16 4.16s-4.16-1.88-4.16-4.16c0-6.94 2.58-13.28 6.64-17.94 4.06-4.76 9.81-7.63 16.26-7.63 4.36 0 8.43 1.39 11.9 3.77 3.47 2.38 6.44 5.85 8.33 9.91.89 2.08 0 4.56-2.08 5.55-2.08.99-4.56.1-5.55-1.98-1.29-2.68-3.17-4.96-5.45-6.54-2.08-1.49-4.66-2.28-7.24-2.28-3.87 0-7.43 1.88-10.01 4.86-2.79 3.06-4.48 7.42-4.48 12.28zM710.19 19.61h1.39l.4.4c11.2 42.43-5.75 75.34-19.03 93.28-4.56-14.47-11.1-28.25-19.73-40.74-1.59-2.48-3.37-4.86-5.15-7.14 10.89-18.34 25.56-36.78 42.12-45.8zm-23.1 3.47c-6.94 6.44-13.18 13.98-18.44 21.31-2.87 3.97-5.55 8.03-8.13 12.19-4.76-5.15-9.81-9.81-15.07-14.08 12.99-8.32 26.97-15.46 41.64-19.42zm-124.11 3.27c37.27.99 74.35 19.13 98.64 54.32C693.14 126.17 687 181.78 687 181.78c-.1 1.29-.5 2.68-.99 4.06-9.02 3.47-23.69 8.92-44.51 13.38-8.53 1.78-18.14 3.47-28.75 4.66.69-3.97.69-8.13.1-12.19-.5-2.97-1.49-5.65-2.87-8.13 28.25-4.66 49.37-13.58 50.56-26.86 1.29-14.77-11-42.82-29.34-59.08-15.86-13.98-41.83-21.31-68.2-21.91V26.35zm-3.57 145.03h.1c18.54-.2 41.14 8.33 43.32 21.91 2.18 12.99-5.06 21.81-16.16 26.96-16.46 6.15-22.21-1.88-24.78-6.94-1.19-2.48-1.78-3.77-2.38-3.77h-.2c-.4.2-.99 1.39-2.38 3.67-2.58 4.56-8.03 11.5-19.43 9.12-13.98-4.56-24.09-13.98-21.61-29.05 2.28-13.58 24.88-22.11 43.42-21.91h.1zm-3.37-145.03v49.37c-26.37.5-52.34 7.83-68.2 21.91-18.44 16.26-30.63 44.31-29.34 59.08 1.19 13.18 22.4 22.21 50.56 26.86-1.39 2.48-2.38 5.15-2.87 8.13-.59 4.06-.59 8.23.1 12.19-10.71-1.19-20.22-2.87-28.85-4.66-20.52-4.36-35.19-9.81-44.21-13.28-1.09-2.78-1.19-4.16-1.19-4.16s-5.95-54.32 24.29-99.53c24.17-36.18 61.74-54.82 99.71-55.91zm-82.58 16.16c-5.25 4.26-10.31 8.92-15.07 14.08-2.48-4.16-5.25-8.13-8.13-12.09-5.25-7.43-11.4-14.97-18.44-21.41 14.68 3.95 28.56 11.09 41.64 19.42zm-66.61-22.6c.2 0 .4-.2.5-.3h1.39c16.55 9.02 31.23 27.46 42.13 45.8-2.18 2.87-4.36 5.85-6.44 8.82-8.13 11.99-14.18 25.18-18.54 38.96-13.3-17.94-30.25-50.85-19.04-93.28zm7.53 152.56c.1 3.47.2 7.14.59 10.71.38 4.94 2.72 10.3 5.76 15.41-1.28.13-2.7.25-4.22.35h-15.9c-4.77-.29-9.99-.87-15.57-1.87-3.5-.63-7.93-1.8-13.05-3.16-17.72-4.7-42-11.13-68.07-6.43-.08.01-.15.03-.23.04v-30.76h111.17c-.36 5.24-.54 10.47-.48 15.71zM270.59 68.24h116.86c2.3 13.45 6.95 26.46 13.44 38.51 4.86 8.92 10.61 17.25 17.25 24.88-.75 3.73-1.38 7.51-1.9 11.26H189.72l80.87-74.65zm24.18 88.53v32.85c-2.06.59-4.1 1.26-6.1 1.99v-34.83h6.1zm-61.13 0v42.17h-6.1v-42.17h6.1zm-53.54 0h38.51v42.17H180.1v-42.17zm-13.87 32.31v16.79c0 3.83 3.11 6.94 6.94 6.94h81.88c-6.47 6.16-12.49 13.38-18.07 21.63L123.91 218.2l42.32-29.12zm-53.94 41.47l116.82 16.78c-.27.49-.55.98-.82 1.47-6.1 11.27-9.63 24.71-10.55 38.92l-105.45-15.15v-42.02zm-3 55.62l108.39 15.57c.13 2.4.33 4.8.61 7.21H84.61l24.68-22.78zm.45 78.84H73.8v-42.17h35.95v42.17zm15.03 0h-6.1v-42.17h6.1v42.17zm61.13 0h-6.1v-42.17h6.1v42.17zm8.92 0v-42.17h25.84c1 4.35 2.23 8.67 3.71 12.93 4.05 11.64 9.5 21.51 16.01 29.25h-45.56zm42.66-33.81c-9.03-25.97-7.84-55.72 3.02-75.79 38.82-71.72 94.6-56.93 127.93-48.1 5.42 1.44 10.1 2.68 14.16 3.41 11.54 2.07 21.71 2.53 29.85 2.31 7.86-.21 13.84-1.05 17.34-1.68.6.75 1.19 1.48 1.75 2.16 11.4 13.98 24.39 24.58 38.56 32.71.1.5.4 1.09.59 1.59 1.33 2.66 2.85 5.18 4.55 7.5-8.3 13.1-28.17 45.98-39.19 76.97-5.68-2.36-11.8-4.06-18.22-5.26-4.61-25.14-19.21-41.83-32.94-52.31-21.1-16.11-44.13-20.96-45.1-21.16-.43-.09-.86-.13-1.29-.14 56.4 27.33 64.32 69.22 64.73 71.65.01.03.01.06.02.08h-.01v.03l-.05-.03c-19.69-1.53-40.92.31-59.99 1.97-15.92 1.39-31.16 2.71-40.99 1.52h-.08c-30.43-2.95-32.33-48.18-32.45-53.82-.37.6-.66 1.27-.84 1.99-.32 1.31-5.43 22.66 1.13 40.98-8.19 3.87-21.35 12.18-26.45 27.17-2.26-4.18-4.3-8.77-6.03-13.75zm49.87 41.66c-8.18-1-15.58-2.67-21.57-5.24-5.86-2.51-11.37-7.11-16.21-13.35 1.83-16.92 15.62-25.67 23.7-29.38 3.37 5.78 8.33 10.87 15.51 14.36 1.27.62 2.65 1.13 4.11 1.57-3.26 7.28-7.46 19.64-5.54 32.04zm45.99.42c-12.69.86-25.8 1.18-37.77.36-2.66-11.93 2.31-24.87 5.34-31.22 9.65 1.13 21.97.34 36.3-.87-3.44 8.03-6.63 19.66-3.87 31.73zm51.76-29.83c-5.27 6.8-7.81 15.2-7.61 25.03-9.22 1.28-21.2 2.84-34.12 4-3.51-12.65 1.94-25.59 5.33-31.92 13.28-1.14 27.49-2.25 41.12-2.11-1.66 1.46-3.25 3.11-4.72 5zm10.6 22.58c-2.09.21-4.88.59-8.3 1.06.06-6.96 1.9-12.83 5.49-17.5 4.33-5.63 10.47-8.57 14.92-10.06 17.14 2.04 32.02 7.3 40.96 18.72 2.59 3.31 4.77 6.75 6.54 10.27-16.27-6.12-31.36-1.49-39.79 2.4-4.78-5.43-14.11-5.48-19.82-4.89zm-.56 56.37c-2.05-8.66 1.96-19.44 9.13-24.53 9.59-6.82 13.17-12.69 13.94-17.34 7.47-3.87 24.47-10.05 41.79 1.53 2.3 11.61.38 23.49-5.91 34.23-8.9 15.2-24.12 23.57-38.76 21.3-11.27-1.74-18.25-6.99-20.19-15.19z"/><linearGradient id="SVGID_3_" x1="172.044" x2="689.438" y1="123.639" y2="620.941" gradientUnits="userSpaceOnUse"><stop offset="0" stop-color="#a677b4"/><stop offset=".013" stop-color="#ab75ae"/><stop offset=".1" stop-color="#c9658a"/><stop offset=".181" stop-color="#de5a6f"/><stop offset=".254" stop-color="#eb5360"/><stop offset=".311" stop-color="#f0515a"/><stop offset=".388" stop-color="#bc4967"/><stop offset=".465" stop-color="#904272"/><stop offset=".543" stop-color="#6b3d7c"/><stop offset=".62" stop-color="#4f3983"/><stop offset=".698" stop-color="#3b3588"/><stop offset=".775" stop-color="#2f348b"/><stop offset=".852" stop-color="#2b338c"/></linearGradient><path fill="url(#SVGID_3_)" d="M586.42 439.17l-13.11 39.48h-25.28l13.11-39.48h-32.77l-35.55 107.04h32.77l13.84-41.66h25.28l-13.84 41.66h32.77l35.55-107.04z"/><linearGradient id="SVGID_4_" x1="222.436" x2="739.831" y1="71.212" y2="568.513" gradientUnits="userSpaceOnUse"><stop offset="0" stop-color="#a677b4"/><stop offset=".013" stop-color="#ab75ae"/><stop offset=".1" stop-color="#c9658a"/><stop offset=".181" stop-color="#de5a6f"/><stop offset=".254" stop-color="#eb5360"/><stop offset=".311" stop-color="#f0515a"/><stop offset=".388" stop-color="#bc4967"/><stop offset=".465" stop-color="#904272"/><stop offset=".543" stop-color="#6b3d7c"/><stop offset=".62" stop-color="#4f3983"/><stop offset=".698" stop-color="#3b3588"/><stop offset=".775" stop-color="#2f348b"/><stop offset=".852" stop-color="#2b338c"/></linearGradient><path fill="url(#SVGID_4_)" d="M711.72 439.17h-25.75l-21.76 65.54c-1.66 4.99-3.06 10.61-8.46 14.2-3.64 2.5-8.68 3.59-12.43 3.59-4.21 0-8.74-1.4-10.1-4.84-1.1-3.28.67-8.11 1.86-11.7l22.18-66.79h-33.39l-23.42 70.53c-4.25 12.8-5.43 22.94 3.47 30.43 6.46 5.46 18.53 7.65 28.36 7.65 11.23 0 23.09-1.87 34.68-9.05 13.04-8.27 17.77-18.26 21.91-30.74l22.85-68.82z"/><linearGradient id="SVGID_5_" x1="258.098" x2="775.493" y1="34.108" y2="531.41" gradientUnits="userSpaceOnUse"><stop offset="0" stop-color="#a677b4"/><stop offset=".013" stop-color="#ab75ae"/><stop offset=".1" stop-color="#c9658a"/><stop offset=".181" stop-color="#de5a6f"/><stop offset=".254" stop-color="#eb5360"/><stop offset=".311" stop-color="#f0515a"/><stop offset=".388" stop-color="#bc4967"/><stop offset=".465" stop-color="#904272"/><stop offset=".543" stop-color="#6b3d7c"/><stop offset=".62" stop-color="#4f3983"/><stop offset=".698" stop-color="#3b3588"/><stop offset=".775" stop-color="#2f348b"/><stop offset=".852" stop-color="#2b338c"/></linearGradient><path fill="url(#SVGID_5_)" d="M792.6 444.63c-5.1-4.84-13.17-5.46-21.28-5.46h-52.27L683.5 546.21h49c9.67 0 21.27-.16 31.51-6.09 9.46-5.46 16.16-15.76 19.22-24.97 4.25-12.8-1.07-22.16-12.67-24.34l.1-.31c11.75-2.5 22.09-12.01 25.82-23.25 2.9-8.73 1.59-17.47-3.88-22.62zm-40.28 68.19c-.98 2.97-3.48 5.77-6.39 7.49-3.38 2.18-6.92 2.03-10.19 2.03h-14.2l6.43-19.35h12.95c2.96 0 6.71 0 9.05 1.4 2.6 1.56 3.54 4.84 2.35 8.43zm11.81-41.66c-.83 2.5-2.8 5.15-5.45 7.02-3.07 2.18-6.76 2.03-9.88 2.03h-13.26l6.01-18.1h12.8c6.23 0 12.42 1.09 9.78 9.05z"/><linearGradient id="SVGID_6_" x1="324.768" x2="842.162" y1="-35.255" y2="462.047" gradientUnits="userSpaceOnUse"><stop offset="0" stop-color="#a677b4"/><stop offset=".013" stop-color="#ab75ae"/><stop offset=".1" stop-color="#c9658a"/><stop offset=".181" stop-color="#de5a6f"/><stop offset=".254" stop-color="#eb5360"/><stop offset=".311" stop-color="#f0515a"/><stop offset=".388" stop-color="#bc4967"/><stop offset=".465" stop-color="#904272"/><stop offset=".543" stop-color="#6b3d7c"/><stop offset=".62" stop-color="#4f3983"/><stop offset=".698" stop-color="#3b3588"/><stop offset=".775" stop-color="#2f348b"/><stop offset=".852" stop-color="#2b338c"/></linearGradient><path fill="url(#SVGID_6_)" d="M559.41 205.08H559.71c11.2-.1 28.15-5.65 25.97-17.15-1.39-6.94-14.97-10.21-26.27-10.21-11.2 0-24.78 3.27-26.17 10.21-2.18 11.6 14.97 17.15 26.17 17.15z"/><linearGradient id="SVGID_7_" x1="403.99" x2="921.384" y1="-117.677" y2="379.624" gradientUnits="userSpaceOnUse"><stop offset="0" stop-color="#a677b4"/><stop offset=".013" stop-color="#ab75ae"/><stop offset=".1" stop-color="#c9658a"/><stop offset=".181" stop-color="#de5a6f"/><stop offset=".254" stop-color="#eb5360"/><stop offset=".311" stop-color="#f0515a"/><stop offset=".388" stop-color="#bc4967"/><stop offset=".465" stop-color="#904272"/><stop offset=".543" stop-color="#6b3d7c"/><stop offset=".62" stop-color="#4f3983"/><stop offset=".698" stop-color="#3b3588"/><stop offset=".775" stop-color="#2f348b"/><stop offset=".852" stop-color="#2b338c"/></linearGradient><path fill="url(#SVGID_7_)" d="M572.2 39.83c-2.28 0-4.06 1.88-4.16 4.16 0 2.28 1.88 4.16 4.16 4.16s4.16-1.88 4.16-4.16c0-2.27-1.88-4.16-4.16-4.16z"/><linearGradient id="SVGID_8_" x1="382.643" x2="900.037" y1="-95.468" y2="401.833" gradientUnits="userSpaceOnUse"><stop offset="0" stop-color="#a677b4"/><stop offset=".013" stop-color="#ab75ae"/><stop offset=".1" stop-color="#c9658a"/><stop offset=".181" stop-color="#de5a6f"/><stop offset=".254" stop-color="#eb5360"/><stop offset=".311" stop-color="#f0515a"/><stop offset=".388" stop-color="#bc4967"/><stop offset=".465" stop-color="#904272"/><stop offset=".543" stop-color="#6b3d7c"/><stop offset=".62" stop-color="#4f3983"/><stop offset=".698" stop-color="#3b3588"/><stop offset=".775" stop-color="#2f348b"/><stop offset=".852" stop-color="#2b338c"/></linearGradient><circle cx="546.72" cy="62.24" r="4.16" fill="url(#SVGID_8_)"/><linearGradient id="SVGID_9_" x1="391.756" x2="909.15" y1="-104.949" y2="392.352" gradientUnits="userSpaceOnUse"><stop offset="0" stop-color="#a677b4"/><stop offset=".013" stop-color="#ab75ae"/><stop offset=".1" stop-color="#c9658a"/><stop offset=".181" stop-color="#de5a6f"/><stop offset=".254" stop-color="#eb5360"/><stop offset=".311" stop-color="#f0515a"/><stop offset=".388" stop-color="#bc4967"/><stop offset=".465" stop-color="#904272"/><stop offset=".543" stop-color="#6b3d7c"/><stop offset=".62" stop-color="#4f3983"/><stop offset=".698" stop-color="#3b3588"/><stop offset=".775" stop-color="#2f348b"/><stop offset=".852" stop-color="#2b338c"/></linearGradient><circle cx="546.72" cy="44" r="4.16" fill="url(#SVGID_9_)"/><linearGradient id="SVGID_10_" x1="394.877" x2="912.271" y1="-108.196" y2="389.105" gradientUnits="userSpaceOnUse"><stop offset="0" stop-color="#a677b4"/><stop offset=".013" stop-color="#ab75ae"/><stop offset=".1" stop-color="#c9658a"/><stop offset=".181" stop-color="#de5a6f"/><stop offset=".254" stop-color="#eb5360"/><stop offset=".311" stop-color="#f0515a"/><stop offset=".388" stop-color="#bc4967"/><stop offset=".465" stop-color="#904272"/><stop offset=".543" stop-color="#6b3d7c"/><stop offset=".62" stop-color="#4f3983"/><stop offset=".698" stop-color="#3b3588"/><stop offset=".775" stop-color="#2f348b"/><stop offset=".852" stop-color="#2b338c"/></linearGradient><path fill="url(#SVGID_10_)" d="M572.2 58.07c-2.28 0-4.06 1.88-4.16 4.16 0 2.28 1.88 4.16 4.16 4.16s4.16-1.88 4.16-4.16-1.88-4.16-4.16-4.16z"/></g></svg>
