<svg xmlns="http://www.w3.org/2000/svg" role="img" viewBox="-4.14 2.86 437.28 553.28"><defs><style>.cls-1{fill:#29272a}.cls-2{fill:#fff}.cls-4{fill:#fefefe}.cls-5{fill:#cccccb}</style></defs><path d="M422.88 343.786c-2.301 7.375-8.28 9.687-15.042 10.782a41.19 41.19 0 01-14.876-.6c-1.034-.21-1.189.065-1.111 1.018.577 7.079 1.02 14.167 1.613 21.245a210.131 210.131 0 01.69 25.598c-.147 3.83-.403 7.651-.626 11.473a2.396 2.396 0 00-.117.45 137.292 137.292 0 01-2.124 15.63 159.87 159.87 0 01-3.926 15.884c-.78 1.988-1.529 3.987-2.352 5.956-.303.724.21.923.593 1.222a65.611 65.611 0 0110.193 9.594c2.807 3.372 5.208 6.972 6.065 11.383.711 3.663.056 6.798-3.023 9.34a25.729 25.729 0 01-14.943 5.733c-8.555.637-16.743-1.13-24.744-3.989a1.447 1.447 0 00-1.529.09 74.903 74.903 0 01-16.156 8.493 5.822 5.822 0 00-.594.315 19.443 19.443 0 014.737 8.237 25.677 25.677 0 01-.494 14.18c-2.126 7.333-4.918 14.339-10.293 20.017-4.34 4.585-9.237 8.225-15.614 9.421-.392.074-.79.112-1.183.166a29.541 29.541 0 01-4.606 0 23.235 23.235 0 01-11.59-5.04c-5.505-4.247-9.513-9.755-13.044-15.644a67 67 0 01-7.012-15.15c-.2-.667-.49-.783-1.101-.645q-11.448 2.575-23.039 4.406c-9.233 1.465-18.505 2.592-27.834 3.266-8.096.585-16.2.844-24.313.645-17.287-.423-34.287-2.693-50.777-8.11-.863-.283-1.115-.043-1.449.7-3.902 8.708-10.411 14.267-19.927 15.773-9.358 1.481-17.513-1.377-24.488-7.685-4.967-4.49-7.817-10.336-10.16-16.442a76.68 76.68 0 01-4.63-33.998 3.646 3.646 0 00-.745-2.636c-7.644-10.472-13.346-21.978-18.121-33.99a338.576 338.576 0 01-17.766-60.008 327.695 327.695 0 01-5.639-45.008 333.763 333.763 0 01-.533-20.004c.034-7.149.21-14.298.803-21.428.085-1.03.011-1.366-1.236-1.239-11.066 1.123-21.691-.229-31.37-6.142-5.27-3.22-9.434-7.475-11.601-13.416a15.832 15.832 0 01-.917-3.824 22.943 22.943 0 010-4.356c.923-6.78 5.002-10.827 11.272-12.926 5.844-1.957 11.9-2.278 17.99-2.102a118.845 118.845 0 0120.553 2.452c.868.178.724-.434.802-.797.68-3.159 1.27-6.338 1.981-9.49A306.852 306.852 0 0180.42 170a82.676 82.676 0 011.971-3.96c.347-.649.202-.885-.49-1.055a20.432 20.432 0 01-5.363-2.302c-4.287-2.486-6.267-6.568-7.646-11.04-3.203-10.387-2.064-20.52 2-30.424 3.689-8.99 9.352-16.676 15.976-23.696 4.982-5.28 10.328-10.129 16.703-13.712a28.631 28.631 0 0113.469-4.144c7.94-.174 13.694 3.598 17.888 10.086a20.329 20.329 0 011.605 2.933c.326.754.533.848 1.213.327a128.874 128.874 0 0111.596-7.855 144.558 144.558 0 019.044-5.021c-3.85-2.301-5.205-6.122-5.652-10.12-1.846-16.52.766-32.218 9.4-46.65a25.102 25.102 0 016.229-7.064c4.605-3.544 9.088-3.711 13.944-.53a33.177 33.177 0 019.663 10.19 55.345 55.345 0 018.492 35.42 42.059 42.059 0 01-.519 4.035c-.17.93.123 1.064.96.91 4.676-.866 9.387-1.476 14.118-1.954 7.634-.77 15.291-1.12 22.953-1.438a348.16 348.16 0 0116.66-.304 222.214 222.214 0 0136.161 2.775c16.055 2.75 31.07 8.1 44.263 17.915.856.636.979.028 1.282-.456a142.764 142.764 0 0114.81-20.15c4.386-4.85 9.082-9.357 15.05-12.268 6.887-3.36 13.474-3.132 19.605 1.807a21.879 21.879 0 017.534 11.94c1.683 6.552 1.182 13.105-.34 19.583a90.903 90.903 0 01-19.831 38.444 1.585 1.585 0 00-.124 2.35c7.705 11.598 15.529 23.131 22.15 35.4a161.266 161.266 0 0117.55 51.365 136.494 136.494 0 011.464 31.42c-.58 8.105-2.064 15.94-6.001 23.216-3.091 5.712-5.846 11.607-8.735 17.428-2.834 5.711-5.61 11.449-8.073 17.334-.376.898-.213 1.172.664 1.47a45.804 45.804 0 0117.263 10.224c6.53 6.25 10.289 14.005 12.358 22.69a45.067 45.067 0 001.197 5.307zM346.53 71.387l.032-.029c-.286.008-.299.187-.253.403l-.682.935a219.939 219.939 0 00-19.958 33.638c-.4.824-.727.725-1.43.425-.833-.357-.67-.734-.37-1.351q4.687-9.647 10.234-18.826c.493-.818.463-1.198-.345-1.786a93.698 93.698 0 00-29.828-14.374 59.897 59.897 0 00-7.284-1.706 102.093 102.093 0 00-10.601-1.964 3.416 3.416 0 00-1.644-.193.564.564 0 01-.172-.013 2.877 2.877 0 00-.545-.183 239.055 239.055 0 00-29.415-1.74c-8.474-.031-16.938.28-25.4.706a199.82 199.82 0 00-32.999 4.134 152.378 152.378 0 00-57.366 25.474c-.787.57-.838 1.04-.329 1.736.09.39-.009.83.31 1.156a32.24 32.24 0 01.783 8.072 48.11 48.11 0 01-2.218 9.907c-3.186 11.119-7.543 21.703-14.526 31.043a46.723 46.723 0 01-18.76 15.415 43.002 43.002 0 01-15.392 3.646l-.72.011a7.35 7.35 0 00-2.13-.228c-.442-.048-.78-.095-1.052.465-2.913 5.99-5.678 12.043-8.131 18.237a327.804 327.804 0 00-17.24 60.12c-.685 3.637-1.442 7.268-1.773 10.964a.686.686 0 01-.027.162.87.87 0 00-.15.8 83.874 83.874 0 00-1.215 8.843 3.812 3.812 0 00-.204.68c-.333 3.056-.691 6.11-.972 9.17a344.622 344.622 0 00-1.37 42.008q.439 14.377 2.105 28.66a324.678 324.678 0 007.455 40.707c.976 3.9 1.899 7.82 3.21 11.63.085.347.16.698.257 1.042q2.296 8.11 5.118 16.053c4.491 12.712 9.305 25.279 16.025 37.035a117.603 117.603 0 0049 47.205c17.087 8.82 35.453 13.16 54.491 14.928a211.881 211.881 0 0025.137.85c5.711-.15 11.414-.43 17.105-.92q14.45-1.246 28.737-3.763 9.142-1.595 18.208-3.572c.621-.135.773-.325.623-.948-.204-.851-.29-1.732-.41-2.602-1.14-8.234 2.549-15.02 10.161-18.311 7.824-3.383 16.02-3.655 24.34-2.538 2.235.3 4.408.959 6.664 1.134l-.045-.022c-.008.38.29.147.437.216a1.805 1.805 0 00.41.22 42.634 42.634 0 0115.602 6.777 2.491 2.491 0 002.779.294 75.27 75.27 0 0033.694-25.6 71.551 71.551 0 0010.8-20.869 151.927 151.927 0 006.765-40.974 220.774 220.774 0 00-.598-27.072c-.58-6.924-1.428-13.81-2.345-20.696-.297-2.236-1.085-3.23-3.325-3.883a54.304 54.304 0 01-16.498-7.452c-6.228-4.418-9.364-10.419-8.84-18.173a34.922 34.922 0 015.063-15.578 21.02 21.02 0 0122.387-9.92c.94.19 1.3-.074 1.65-.942 3.857-9.555 8.719-18.642 13.186-27.91 2.003-4.154 4.167-8.238 6.091-12.435a25.566 25.566 0 001.77-5.703 108.02 108.02 0 001.755-26.224 140.093 140.093 0 00-1.58-15.84 149.21 149.21 0 00-8.525-31.539c-1.966-4.937-3.898-9.882-6.287-14.636-7.068-14.07-15.999-26.997-24.57-40.147-.505-.776-.816-.563-1.324-.043a44.035 44.035 0 01-7.462 6.19c-.555.361-.91.392-1.182-.274-.196-.483-.862-.869.07-1.412a29.324 29.324 0 004.856-3.7 78.136 78.136 0 0015.398-19.787c5.607-9.932 9.815-20.362 10.559-31.902a26.831 26.831 0 00-2.787-14.76 18.544 18.544 0 00-8.53-8.26 6.302 6.302 0 00-2.676-.997 1.438 1.438 0 00-.312-.153 15.894 15.894 0 00-10.456 1.48c-6.258 2.984-11.069 7.747-15.607 12.832-.123.138-.296.287-.13.51l.02.01c-.416-.126-.488.144-.527.454l.014-.008c-.19-.043-.249.066-.264.226l.059.071-.054-.075a.364.364 0 00-.367.348 21.702 21.702 0 00-3.662 4.267l-.008.008c-.188.11-.438.187-.26.492l.036-.036c-.307-.113-.296.073-.264.28zM171.356 16.891c-.179-.018-.338-.016-.254.241l.007-.007c-.772-.085-1.198.52-1.689.917-4.396 3.565-7.098 8.326-9.338 13.397a11.663 11.663 0 00-1.248 3.449l.01-.02c-.242.052-.23.242-.23.425a17.779 17.779 0 00-1.428 4.788c-.311.072-.277.365-.332.57a81.289 81.289 0 00-2.718 24.427 27.654 27.654 0 001.439 8.226 8.964 8.964 0 002.896 4.454c.923.684 1.977 1.358 3.183.788a148.235 148.235 0 0134.585-11.312c1.298-.258 1.609-.867 1.783-2.01a56.67 56.67 0 00.223-16.354 51.17 51.17 0 00-10.061-24.773 24.948 24.948 0 00-8.997-7.746 6.267 6.267 0 00-4.816-.66 5.08 5.08 0 00-2.72.976c-.155.01-.307.022-.305.234zM381.37 348.307c.091.305.33.262.56.237q.057.024.11.054a.4.4 0 00.466.219 11.682 11.682 0 003.091 1.103 50.648 50.648 0 0017.733 3.004c4.615-.09 9.065-.87 13.015-3.442 2.52-1.642 4.295-3.856 4.511-6.973a20.52 20.52 0 00-.885-5.654 45.762 45.762 0 00-7.548-17.818c-5.957-8.148-14.128-13.078-23.67-15.752-7.476-2.094-14.011.042-19.256 5.68-3.745 4.027-5.473 9.116-6.618 14.392a18.797 18.797 0 001.565 13.153c.086.178.158.364.261.531 2.671 4.324 6.684 7.012 11.18 9.075a15.931 15.931 0 004.515 1.77l-.018-.008c.082.27.273.3.51.23l-.019-.011c.083.281.29.274.517.224zM69.068 139.568a36.966 36.966 0 003.275 15.445c2.049 4.546 5.818 6.796 10.365 8.109.46.132.735.142.909-.38.092-.278.13-.865.664-.528.452.285 1.404.077 1.296.899-.098.743.348.598.68.625a22.828 22.828 0 004.669-.023 41.437 41.437 0 0024.379-11.655 65.53 65.53 0 0013.009-18.664 104.23 104.23 0 008.604-25.163c1.42-7.078-.703-13.549-4.994-19.227-4.46-5.9-10.47-8.281-17.802-7.04a30.2 30.2 0 00-12.117 5.166A85.814 85.814 0 0075.2 116.818a46.866 46.866 0 00-6.133 22.75zm240.503 344.517c-7.178-.012-12.089.51-16.773 2.316-4.491 1.73-8.131 4.442-9.722 9.236a18.873 18.873 0 00-.223 10.061c1.56 7.292 4.99 13.761 8.915 19.995 3.166 5.03 6.777 9.703 11.584 13.307 6.47 4.849 13.408 6.112 20.88 2.488a32.09 32.09 0 009.86-7.878c4.523-5.084 6.909-11.233 8.865-17.595a25.607 25.607 0 001.1-12.17c-1.087-6.079-4.862-10.195-10.01-13.084a56.406 56.406 0 00-24.476-6.676zM33.484 242.405a45.395 45.395 0 00-14.635 2.037c-3.394 1.172-6.462 2.872-8.232 6.169-2.926 5.448-2.29 10.803.85 15.913 3.743 6.09 9.435 9.745 15.979 12.17 7.84 2.906 15.948 3.396 24.195 2.436.643-.074.633-.39.673-.855.249-2.904.48-5.81.794-8.708.932-8.614 2.11-17.194 3.737-25.708.134-.697-.043-.984-.752-1.115a125.697 125.697 0 00-22.61-2.339zm62.467 226.05a77.878 77.878 0 00-.044 10.36 72.741 72.741 0 006.4 26.102c2.719 5.908 6.33 11.056 11.903 14.66 12.786 8.27 30.314 4.925 37.04-10.127.507-1.134.262-1.378-.789-1.755a119.228 119.228 0 01-45.218-28.613 121.276 121.276 0 01-9.292-10.627zm287.99-14.751a77.591 77.591 0 01-23.7 29.087c8.374 2.807 16.631 4.597 25.265 3.507a22.226 22.226 0 0012.41-5.441 6.175 6.175 0 002.195-5.062 14.617 14.617 0 00-1.833-6.507c-3.391-6.402-8.688-11.054-14.337-15.584z" class="cls-1"/><path d="M313.418 545.424a29.54 29.54 0 004.606 0c.07.067.143.135.216.202h-5.04zM6.929 255.45a22.953 22.953 0 000 4.355c-.07.072-.14.146-.209.22v-4.8zM387.36 445.266a159.862 159.862 0 003.927-15.883 137.292 137.292 0 002.124-15.631 2.396 2.396 0 01.117-.45c.046 2.673-.21 5.329-.422 7.984a82.937 82.937 0 01-2.881 17.647 22.53 22.53 0 01-2.864 6.333zM88.372 165.912a43.001 43.001 0 0015.392-3.646 46.723 46.723 0 0018.76-15.415c6.983-9.34 11.34-19.924 14.526-31.043a48.11 48.11 0 002.218-9.907 32.236 32.236 0 00-.782-8.072c.586-.475 1.16-.966 1.76-1.424a109.825 109.825 0 0124.25-13.653 176.312 176.312 0 0131.414-9.796c4.564-.983 9.139-1.878 13.758-2.577 2.84-.43 5.685-.8 8.524-1.215 3.43-.501 6.874-.837 10.318-1.133q3.833-.329 7.69-.545c3.604-.197 7.208-.515 10.816-.604 9.896-.243 19.793-.16 29.676.442 1.583.097 3.187.018 4.744.268 1.644.263 3.3.135 4.944.394 1.515.238 3.08.131 4.609.306a39.821 39.821 0 005.657.424 59.96 59.96 0 017.284 1.706 93.698 93.698 0 0129.828 14.374c.808.588.838.968.345 1.786q-5.538 9.182-10.234 18.826c-.3.617-.463.994.37 1.35.703.301 1.029.4 1.43-.424a219.939 219.939 0 0119.958-33.638l.682-.935.252-.403-.03.03.263-.28-.036.035c.255-.076.507-.152.26-.492l.007-.008c.825.089 1.155-.635 1.64-1.052 6.314-5.42 12.872-10.495 20.284-14.351 3.77-1.962 7.67-3.578 12.039-3.563a18.547 18.547 0 018.53 8.26 26.831 26.831 0 012.787 14.76c-.744 11.541-4.952 21.97-10.559 31.903a78.136 78.136 0 01-15.398 19.788 29.324 29.324 0 01-4.857 3.7c-.931.542-.265.928-.069 1.41.271.667.627.637 1.182.276a44.034 44.034 0 007.462-6.19c.508-.52.819-.734 1.325.042 8.57 13.15 17.5 26.078 24.57 40.147 2.388 4.754 4.32 9.699 6.286 14.637a149.212 149.212 0 018.525 31.538 140.093 140.093 0 011.58 15.84 108.02 108.02 0 01-1.754 26.224 25.565 25.565 0 01-1.77 5.703c-1.925 4.198-4.089 8.28-6.091 12.435-4.468 9.269-9.33 18.355-13.186 27.91-.35.868-.71 1.132-1.65.942a21.02 21.02 0 00-22.388 9.92 34.922 34.922 0 00-5.064 15.578c-.523 7.754 2.613 13.755 8.84 18.173a54.304 54.304 0 0016.5 7.453c2.239.652 3.027 1.647 3.324 3.882.917 6.886 1.764 13.772 2.345 20.696a220.772 220.772 0 01.598 27.072 151.925 151.925 0 01-6.764 40.974 71.551 71.551 0 01-10.801 20.87 75.27 75.27 0 01-33.694 25.6 2.491 2.491 0 01-2.778-.295 42.634 42.634 0 00-15.602-6.777 1.794 1.794 0 01-.41-.22l-.438-.216.045.022c-.235-.148-.46-.315-.706-.442-5.184-2.665-10.35-5.365-15.56-7.978a82.218 82.218 0 01-23.17-16.81 126.619 126.619 0 01-16.54-22.144c-6.446-10.744-11.647-22.1-16.574-33.593-6.165-14.38-11.967-28.914-18.441-43.162-4.171-9.18-8.68-18.158-14.766-26.26-7.579-10.087-16.929-17.902-28.764-22.555-9.495-3.733-19.466-5.261-29.53-6.344-5.877-.632-11.772-1.125-17.632-1.886a23.11 23.11 0 00-13.286 2.054c-6.026 2.881-10.879 7.255-15.34 12.103-7.402 8.041-13.403 17.096-18.91 26.49a385.645 385.645 0 00-25.211 52.668 7.035 7.035 0 01-1.026 2.266c-1.311-3.81-2.234-7.73-3.21-11.63a324.676 324.676 0 01-7.455-40.707q-1.689-14.28-2.104-28.66a344.624 344.624 0 011.37-42.008c.28-3.06.638-6.114.971-9.17a3.81 3.81 0 01.204-.68c.315-1.107.652-2.208.943-3.322 6.184-23.68 12.601-47.293 20.684-70.411 2.976-8.51 5.948-17.049 10.883-24.705.262-.406.097-.637-.072-.936zm255.803-68.849a26.649 26.649 0 001.201 8.439c1.974 5.654 6.344 8.458 11.973 7.611a16.022 16.022 0 007.247-3.262c5.942-4.47 9.595-10.506 11.771-17.5 1.618-5.197 2.178-10.486.62-15.802-1.227-4.19-3.603-7.436-8.132-8.423a12.442 12.442 0 00-9.797 2.199c-9.819 6.617-13.96 16.33-14.883 26.738zM192.485 199.75a37.86 37.86 0 00-.714-8.269c-1.22-5.756-4-10.42-9.432-13.123a8 8 0 01-3.508-2.767c-1.176-1.791-3.211-2.732-5.144-3.601a59.523 59.523 0 00-24.63-5.306 17.923 17.923 0 00-8.595 1.799 5.842 5.842 0 00-3.254 3.788 1.684 1.684 0 01-1.407 1.338 43.833 43.833 0 00-15.997 8.408c-4.606 3.98-7.563 8.878-7.841 15.077a26.775 26.775 0 002.157 11.584 29 29 0 0014.288 15.633c.79.389.77.831.628 1.517a33.848 33.848 0 00-.16 13.444c1.453 7.44 7.048 13.663 16.023 13.09 5.979-.382 10.757-2.895 14.014-7.958a27.493 27.493 0 004.038-15.375c-.008-1.994.004-1.958 1.895-2.35 6.12-1.268 12.11-2.922 17.498-6.235a19.522 19.522 0 009.29-12.414 44.777 44.777 0 00.851-8.28zM316.6 127.287c-8.637-.059-14.242 1.202-19.565 3.703-8.18 3.842-14.472 9.877-19.669 17.136-10.428 14.566-13.763 30.424-8.54 47.788 3.738 12.426 11.58 21.166 23.703 25.876a91.138 91.138 0 0017.378 4.416 50.499 50.499 0 0015.152.636c8.763-1.11 15.88-5.292 21.803-11.706 4.997-5.41 8.842-11.625 12.593-17.912 4.117-6.899 5.19-14.324 3.974-22.17a54.446 54.446 0 00-6.44-17.933 73.928 73.928 0 00-13.778-18.489 41.296 41.296 0 00-26.611-11.345z" class="cls-2"/><path fill="#fefefe" stroke="#999" stroke-miterlimit="10" d="M66.158 398.14a7.035 7.035 0 001.026-2.265 385.648 385.648 0 0125.211-52.668c5.507-9.394 11.508-18.449 18.91-26.49 4.461-4.848 9.314-9.222 15.34-12.103a23.11 23.11 0 0113.286-2.054c5.86.761 11.755 1.254 17.632 1.887 10.064 1.082 20.034 2.61 29.53 6.343 11.835 4.653 21.185 12.468 28.764 22.555 6.087 8.102 10.595 17.08 14.766 26.26 6.474 14.248 12.276 28.783 18.44 43.162 4.928 11.493 10.129 22.85 16.576 33.593a126.62 126.62 0 0016.54 22.144 82.218 82.218 0 0023.168 16.81c5.21 2.613 10.377 5.313 15.56 7.978.247.127.472.294.707.442-2.256-.175-4.43-.833-6.664-1.134-8.32-1.117-16.516-.845-24.34 2.538-7.612 3.29-11.302 10.077-10.16 18.311.12.87.205 1.75.41 2.602.149.624-.003.813-.624.948q-9.069 1.969-18.208 3.572-14.29 2.492-28.737 3.763c-5.69.491-11.394.77-17.105.92a211.88 211.88 0 01-25.137-.85c-19.038-1.768-37.404-6.108-54.49-14.928a117.603 117.603 0 01-49.001-47.205c-6.72-11.756-11.534-24.323-16.025-37.035q-2.807-7.945-5.118-16.053c-.097-.344-.172-.695-.257-1.042z"/><path d="M69.068 139.568a46.866 46.866 0 016.133-22.75 85.814 85.814 0 0126.804-29.686 30.2 30.2 0 0112.117-5.167c7.333-1.24 13.343 1.14 17.802 7.041 4.291 5.678 6.414 12.149 4.994 19.227a104.23 104.23 0 01-8.604 25.163 65.53 65.53 0 01-13.01 18.664 41.437 41.437 0 01-24.378 11.655 22.827 22.827 0 01-4.67.023c-.33-.027-.777.118-.68-.625.109-.822-.843-.614-1.295-.9-.534-.336-.572.25-.664.529-.174.522-.45.512-.909.38-4.547-1.313-8.316-3.563-10.365-8.109a36.966 36.966 0 01-3.275-15.445zm18.18-10.035c.278-.019.559-.024.836-.058 2.3-.289 4.294-.95 5.252-3.418.717-1.849 1.758-3.57 2.54-5.397a21.358 21.358 0 001.907-7.125c.115-1.942-.171-3.749-1.94-4.984a16.158 16.158 0 00-5.384-2.507c-4.173-1.034-7.71.346-9.236 3.96a21.103 21.103 0 00-.478 15.318 6.002 6.002 0 006.502 4.21zM309.57 484.085a56.406 56.406 0 0124.477 6.676c5.148 2.89 8.923 7.005 10.01 13.085a25.607 25.607 0 01-1.1 12.169c-1.956 6.362-4.342 12.51-8.866 17.595a32.09 32.09 0 01-9.86 7.878c-7.471 3.624-14.41 2.36-20.88-2.488-4.806-3.604-8.417-8.276-11.583-13.307-3.925-6.234-7.355-12.703-8.915-19.994a18.873 18.873 0 01.223-10.062c1.59-4.794 5.23-7.505 9.722-9.236 4.684-1.806 9.595-2.328 16.773-2.316zm54.874-147.575a18.797 18.797 0 01-1.565-13.153c1.145-5.276 2.873-10.365 6.618-14.392 5.245-5.638 11.78-7.774 19.257-5.68 9.541 2.674 17.712 7.604 23.67 15.752a45.762 45.762 0 017.547 17.818 20.52 20.52 0 01.885 5.654c-.216 3.117-1.99 5.33-4.511 6.973-3.95 2.573-8.4 3.352-13.015 3.442a50.648 50.648 0 01-17.733-3.004 11.689 11.689 0 01-3.09-1.103c-.05-.299-.257-.261-.466-.22a1.376 1.376 0 00-.11-.053.463.463 0 00-.561-.237l.02.014c-.082-.281-.292-.27-.517-.224l.018.01c-.072-.293-.283-.279-.51-.23l.02.009c-.199-.405-.633-.436-.975-.607-4.73-2.363-9.142-5.163-12.599-9.253-.769-.91-1.44-1.903-2.238-2.966-.1.594.13 1.05-.145 1.45zm-330.96-94.105a125.697 125.697 0 0122.61 2.339c.708.13.885.418.751 1.115-1.626 8.514-2.805 17.094-3.737 25.708-.313 2.897-.545 5.804-.794 8.708-.04.466-.03.78-.673.855-8.247.96-16.356.47-24.195-2.436-6.544-2.425-12.236-6.08-15.98-12.17-3.14-5.11-3.775-10.465-.85-15.913 1.771-3.297 4.839-4.997 8.233-6.169a45.395 45.395 0 0114.635-2.037zm62.466 226.05a121.277 121.277 0 009.293 10.627 119.228 119.228 0 0045.218 28.613c1.05.377 1.296.621.79 1.755-6.727 15.052-24.255 18.397-37.041 10.128-5.574-3.605-9.184-8.753-11.904-14.661a72.74 72.74 0 01-6.399-26.102 77.877 77.877 0 01.044-10.36z" class="cls-4"/><path d="M174.371 15.69a6.267 6.267 0 014.816.661 24.948 24.948 0 018.997 7.746 51.17 51.17 0 0110.06 24.773 56.67 56.67 0 01-.222 16.354c-.175 1.143-.485 1.752-1.783 2.01a148.234 148.234 0 00-34.585 11.312c-1.206.57-2.26-.104-3.183-.788a8.964 8.964 0 01-2.896-4.454 27.654 27.654 0 01-1.439-8.226 81.289 81.289 0 012.718-24.426c.055-.206.02-.5.332-.571 1.421-2.406 2.8-4.838 4.273-7.212 3.79-6.11 7.48-12.3 12.912-17.178zm-14.375 35.053a33.915 33.915 0 00.335 5.12 21.905 21.905 0 005.016 11.473c3.758 4.2 8.992 4.497 13.162.748a13.643 13.643 0 002.492-3.058c3.228-5.274 4.012-11.058 3.425-17.076a22.084 22.084 0 00-4.823-12.428c-4.257-5.079-10.542-5.048-14.699.105-3.665 4.544-4.815 9.897-4.908 15.116z" class="cls-2"/><path d="M383.94 453.704c5.65 4.53 10.947 9.182 14.338 15.584a14.617 14.617 0 011.833 6.507 6.175 6.175 0 01-2.196 5.062 22.226 22.226 0 01-12.409 5.441c-8.634 1.09-16.89-.7-25.264-3.507a77.59 77.59 0 0023.699-29.087z" class="cls-4"/><path d="M138.175 96.673c-.509-.696-.458-1.165.33-1.736a152.378 152.378 0 0157.365-25.474 199.82 199.82 0 0132.998-4.134c8.463-.427 16.927-.737 25.401-.707a239.055 239.055 0 0129.415 1.741 2.867 2.867 0 01.545.183 2.304 2.304 0 01-1.296.055c-10.852-.654-21.707-1.011-32.583-.795a303.9 303.9 0 00-35.23 2.658 213.272 213.272 0 00-40.754 9.45 129.915 129.915 0 00-30.86 14.911c-1.814 1.23-3.556 2.563-5.33 3.848zM57.326 255.481c.331-3.696 1.088-7.327 1.774-10.964a327.803 327.803 0 0117.239-60.12c2.453-6.194 5.218-12.247 8.131-18.237.273-.56.61-.513 1.052-.465a7.34 7.34 0 012.13.229c-.901 1.594-1.855 3.16-2.692 4.788a162.515 162.515 0 00-8.632 21.165c-6.501 18.712-11.873 37.764-17.059 56.871a48.188 48.188 0 01-1.943 6.733z" class="cls-2"/><path d="M138.175 96.673c1.775-1.285 3.517-2.619 5.33-3.848a129.914 129.914 0 0130.861-14.91 213.271 213.271 0 0140.754-9.451 303.902 303.902 0 0135.23-2.658c10.876-.216 21.731.14 32.583.795a2.304 2.304 0 001.296-.055.567.567 0 00.173.013 2.105 2.105 0 001.643.193 102.138 102.138 0 0110.601 1.964 39.845 39.845 0 01-5.657-.424c-1.528-.174-3.094-.068-4.609-.307-1.644-.258-3.3-.13-4.944-.393-1.557-.25-3.161-.171-4.744-.268-9.883-.602-19.78-.685-29.675-.442-3.609.09-7.213.407-10.817.604q-3.85.21-7.69.545c-3.443.296-6.888.632-10.318 1.133-2.839.416-5.685.785-8.524 1.215-4.62.7-9.194 1.594-13.758 2.577a176.313 176.313 0 00-31.414 9.796 109.825 109.825 0 00-24.25 13.653c-.6.458-1.174.948-1.76 1.424-.32-.327-.22-.767-.31-1.156zM57.326 255.481a48.187 48.187 0 001.943-6.733c5.186-19.107 10.558-38.16 17.059-56.871a162.516 162.516 0 018.632-21.165c.837-1.627 1.79-3.194 2.691-4.788l.721-.012c.169.3.334.53.072.936-4.935 7.656-7.907 16.195-10.883 24.705-8.083 23.118-14.5 46.732-20.685 70.411-.29 1.114-.627 2.215-.942 3.323a83.874 83.874 0 011.215-8.845.701.701 0 00.15-.799.686.686 0 00.027-.162z" class="cls-4"/><path d="M351.807 65.35c-.166-.223.007-.372.13-.51 4.538-5.085 9.35-9.848 15.607-12.832A15.894 15.894 0 01378 50.528a1.429 1.429 0 01.312.153c-2.004.635-4.076 1.035-6.03 1.853-7.14 2.99-13.348 7.454-19.397 12.178-.325.254-.558.701-1.078.638z" class="cls-2"/><path d="M351.807 65.35c.52.063.753-.383 1.078-.638 6.05-4.724 12.257-9.189 19.398-12.178 1.953-.819 4.025-1.218 6.029-1.853a6.305 6.305 0 012.676.996c-4.369-.015-8.268 1.6-12.04 3.563-7.41 3.856-13.97 8.932-20.282 14.351-.486.417-.816 1.14-1.64 1.052a21.704 21.704 0 013.661-4.267c.21-.024.368-.103.368-.348l.053.075-.057-.071c.188.042.276-.033.262-.226l-.013.008a.44.44 0 00.527-.454zM174.371 15.69c-5.432 4.879-9.121 11.07-12.912 17.179-1.473 2.374-2.852 4.806-4.273 7.212a17.784 17.784 0 011.428-4.788c.27-.037.293-.207.23-.425l-.01.02c.471-.166.55-.644.764-.999a138.733 138.733 0 019.78-14.54 8.824 8.824 0 001.73-2.224l-.006.007c.198.039.277-.046.254-.24l-.01.009c.19.037.27-.07.304-.234a5.08 5.08 0 012.721-.976z" class="cls-4"/><path d="M171.109 17.125a8.824 8.824 0 01-1.73 2.224 138.734 138.734 0 00-9.781 14.54c-.215.355-.293.833-.764.999a11.661 11.661 0 011.248-3.45c2.24-5.07 4.942-9.831 9.338-13.396.49-.398.917-1.002 1.689-.917zM364.444 336.51c.275-.4.045-.856.145-1.45.797 1.063 1.469 2.056 2.238 2.966 3.457 4.09 7.869 6.89 12.6 9.253.341.17.775.202.973.607a15.932 15.932 0 01-4.515-1.77c-4.496-2.063-8.509-4.75-11.18-9.075-.103-.167-.175-.353-.261-.53zM286.045 66.752a2.105 2.105 0 01-1.643-.193 3.416 3.416 0 011.643.193zM57.3 255.643a.701.701 0 01-.15.8.87.87 0 01.15-.8zM351.827 65.36a.44.44 0 01-.527.454c.039-.31.111-.58.527-.454z" class="cls-2"/><path d="M380.382 347.878c.226-.05.437-.064.51.23-.237.07-.428.04-.51-.23z" class="cls-2"/><path d="M380.873 348.097c.225-.047.435-.057.517.224-.226.05-.434.057-.517-.224z" class="cls-2"/><path d="M381.37 348.307a.463.463 0 01.56.237c-.23.025-.469.068-.56-.237zm.67.291c.21-.042.418-.08.466.22a.4.4 0 01-.465-.22z" class="cls-2"/><path d="M347.018 70.65c.247.341-.005.417-.26.493-.178-.305.072-.382.26-.492z" class="cls-4"/><path d="M351.055 66.028c0 .245-.158.324-.367.348a.364.364 0 01.367-.348z" class="cls-2"/><path d="M321.569 483.712l.437.216c-.147-.069-.444.165-.437-.216z" class="cls-4"/><path d="M158.844 34.868c.063.218.04.388-.23.425 0-.183-.012-.373.23-.425zm12.806-18.201c-.034.165-.114.272-.304.234-.002-.212.15-.224.304-.234z" class="cls-2"/><path d="M171.356 16.891c.023.195-.056.28-.254.241-.084-.257.075-.26.254-.24z" class="cls-2"/><path d="M346.562 71.358l-.253.403c-.046-.216-.033-.395.253-.403z" class="cls-4"/><path d="M346.794 71.107l-.264.28c-.032-.207-.043-.393.264-.28z" class="cls-4"/><path d="M351.314 65.806c.013.193-.074.268-.263.226.014-.16.074-.269.263-.226z" class="cls-2"/><path d="M344.175 97.063c.922-10.409 5.064-20.12 14.883-26.738a12.442 12.442 0 019.797-2.2c4.529.988 6.905 4.234 8.133 8.424 1.557 5.316.997 10.605-.62 15.803-2.177 6.993-5.83 13.03-11.772 17.499a16.022 16.022 0 01-7.247 3.262c-5.63.847-10-1.957-11.973-7.611a26.649 26.649 0 01-1.2-8.439z" class="cls-4"/><path d="M192.485 199.75a44.776 44.776 0 01-.851 8.28 19.522 19.522 0 01-9.29 12.414c-5.388 3.313-11.378 4.967-17.498 6.235-1.891.392-1.903.356-1.895 2.35a27.493 27.493 0 01-4.038 15.375c-3.257 5.063-8.035 7.576-14.014 7.958-8.975.573-14.57-5.65-16.023-13.09a33.848 33.848 0 01.16-13.444c.141-.686.162-1.128-.628-1.517a29 29 0 01-14.288-15.633 26.775 26.775 0 01-2.158-11.584c.279-6.199 3.236-11.098 7.842-15.077a43.833 43.833 0 0115.997-8.408 1.684 1.684 0 001.407-1.338 5.842 5.842 0 013.254-3.788 17.923 17.923 0 018.595-1.799 59.523 59.523 0 0124.63 5.306c1.933.87 3.968 1.81 5.144 3.601a8 8 0 003.508 2.767c5.433 2.704 8.212 7.367 9.432 13.123a37.859 37.859 0 01.714 8.269zm-46.484 27.5a87.759 87.759 0 0019.525-2.685c5.532-1.302 10.924-2.978 15.757-6.085 3.74-2.404 6.731-5.515 7.906-9.873a35.14 35.14 0 00.072-19.388 15.272 15.272 0 00-8.618-10.017c-.254-.115-.616-.593-.897-.062-1.195 2.262-3.424 2.917-5.617 3.475a73.045 73.045 0 01-20.151 2.42 27.44 27.44 0 01-10.94-2.29c-3.15-1.464-5.62-3.528-6.034-7.268-.071-.65-.29-.646-.848-.455a49.095 49.095 0 00-9.764 4.472 29.596 29.596 0 00-9.162 8.134c-3.568 5.092-4.002 10.683-2.746 16.596 1.811 8.536 6.019 15.314 13.997 19.35a37.605 37.605 0 0017.52 3.676zm9.655-44.272a72.038 72.038 0 0014.819-1.624 18.543 18.543 0 006.331-2.017c1.335-.824 1.398-1.526.31-2.663a16.216 16.216 0 00-5.673-3.455 59.752 59.752 0 00-17.319-4.3 26.9 26.9 0 00-11.024.666c-3.944 1.255-5.096 3.803-3.506 7.6a5.53 5.53 0 001.819 2.175 13.078 13.078 0 003.43 1.912 28.694 28.694 0 0010.813 1.706zm-10.98 58.163c.126 2.318.331 5.625.47 8.934.032.742.23.797.903.645a16.783 16.783 0 009.822-5.966c3.922-4.958 5.473-10.81 6.398-16.904.129-.851-.305-.674-.81-.589a66.291 66.291 0 01-15.13 1.109c-1.013-.062-1.267.343-1.363 1.24-.373 3.508-.256 7.024-.29 11.531zm-14.947-16.154c0 1.853-.062 3.611.012 5.364a42.374 42.374 0 002.515 13.944c1.852 4.686 5.463 7.088 10.136 6.888.49-.02.86.057.808-.744-.459-7.132-.89-14.268-.142-21.408.063-.606-.068-.845-.718-.906a41.481 41.481 0 01-12.61-3.138zm186.871-97.7a41.296 41.296 0 0126.612 11.345 73.928 73.928 0 0113.777 18.489 54.446 54.446 0 016.44 17.932c1.216 7.847.143 15.272-3.974 22.171-3.751 6.287-7.596 12.501-12.593 17.912-5.923 6.414-13.04 10.596-21.803 11.706a50.498 50.498 0 01-15.152-.636 91.138 91.138 0 01-17.378-4.416c-12.123-4.71-19.965-13.45-23.703-25.876-5.223-17.364-1.888-33.222 8.54-47.788 5.197-7.259 11.489-13.294 19.67-17.136 5.322-2.5 10.927-3.762 19.564-3.703zm-48.235 53.266a54.113 54.113 0 001.9 13.203c3.44 12.737 11.07 21.824 23.563 26.36a84.078 84.078 0 0024.07 4.977c9.177.512 17.413-1.962 24.265-8.203 7.76-7.068 13.415-15.744 17.708-25.207 3.143-6.93 2.565-14.27.457-21.469-2.842-9.707-8.159-18.023-14.47-25.802a38.342 38.342 0 00-14.289-11.178c-11.777-5.245-23.536-5.63-35.189.318-6.98 3.564-12.397 8.943-16.997 15.198-6.872 9.344-10.935 19.679-11.018 31.803z" class="cls-1"/><path d="M87.247 129.533a6.003 6.003 0 01-6.502-4.21 21.103 21.103 0 01.478-15.32c1.525-3.613 5.063-4.993 9.236-3.959a16.158 16.158 0 015.383 2.507c1.77 1.235 2.056 3.042 1.94 4.984a21.358 21.358 0 01-1.906 7.125c-.782 1.827-1.823 3.548-2.54 5.397-.957 2.468-2.952 3.13-5.252 3.418-.277.034-.558.04-.837.058z" class="cls-5"/><path d="M159.996 50.743c.093-5.219 1.243-10.572 4.908-15.116 4.157-5.153 10.442-5.184 14.699-.105a22.084 22.084 0 014.823 12.428c.587 6.018-.197 11.802-3.425 17.076a13.643 13.643 0 01-2.492 3.058c-4.17 3.75-9.404 3.452-13.162-.748a21.905 21.905 0 01-5.016-11.472 33.916 33.916 0 01-.335-5.12zM146.001 227.25a37.605 37.605 0 01-17.52-3.676c-7.978-4.036-12.186-10.814-13.997-19.35-1.256-5.913-.822-11.504 2.746-16.596a29.596 29.596 0 019.162-8.134 49.095 49.095 0 019.764-4.472c.558-.19.777-.194.848.455.414 3.74 2.884 5.804 6.035 7.269a27.44 27.44 0 0010.939 2.289 73.045 73.045 0 0020.151-2.42c2.193-.558 4.422-1.213 5.617-3.475.281-.531.643-.053.897.062a15.272 15.272 0 018.618 10.017 35.14 35.14 0 01-.072 19.388c-1.175 4.358-4.166 7.469-7.906 9.873-4.833 3.107-10.225 4.783-15.757 6.085a87.758 87.758 0 01-19.525 2.685z" class="cls-4"/><path d="M155.656 182.978a28.694 28.694 0 01-10.812-1.706 13.078 13.078 0 01-3.431-1.912 5.53 5.53 0 01-1.82-2.176c-1.59-3.796-.437-6.344 3.507-7.599a26.899 26.899 0 0111.024-.666 59.751 59.751 0 0117.319 4.3 16.216 16.216 0 015.673 3.455c1.088 1.137 1.025 1.838-.31 2.663a18.543 18.543 0 01-6.331 2.017 72.04 72.04 0 01-14.819 1.624zm-10.981 58.163c.035-4.507-.082-8.023.291-11.53.096-.898.35-1.303 1.363-1.241a66.291 66.291 0 0015.13-1.109c.505-.085.939-.262.81.589-.925 6.094-2.476 11.946-6.398 16.904a16.783 16.783 0 01-9.822 5.966c-.673.152-.87.097-.902-.645-.14-3.31-.345-6.616-.472-8.934zm-14.945-16.154a41.481 41.481 0 0012.61 3.138c.65.061.781.3.718.906-.748 7.14-.317 14.276.142 21.408.051.801-.318.723-.808.744-4.673.2-8.284-2.202-10.136-6.888a42.375 42.375 0 01-2.515-13.944c-.074-1.753-.012-3.51-.012-5.364zm138.635-44.434c.083-12.124 4.146-22.459 11.018-31.803 4.6-6.255 10.018-11.635 16.997-15.198 11.653-5.949 23.412-5.563 35.19-.318a38.342 38.342 0 0114.287 11.178c6.312 7.78 11.63 16.095 14.471 25.802 2.108 7.199 2.686 14.54-.457 21.469-4.293 9.463-9.948 18.139-17.708 25.207-6.852 6.241-15.088 8.715-24.265 8.203a84.078 84.078 0 01-24.07-4.976c-12.493-4.537-20.122-13.624-23.562-26.361a54.11 54.11 0 01-1.9-13.203zm33.35-.682a17.631 17.631 0 01-.013 2.152c-.328 2.645 1.214 4.15 3.22 5.36a7.146 7.146 0 003.548.93c3.613.113 6.784-1.25 9.833-2.967 4.298-2.42 4.959-4.215 3.241-8.834a17.32 17.32 0 01-1.34-5.786 10.697 10.697 0 00-.559-3.052c-1.093-3.462-2.783-6.48-6.412-7.857-3.857-1.464-6.602-.362-8.41 3.331a18.697 18.697 0 00-1.015 2.55c-1.466 4.609-1.807 9.382-2.093 14.173z" class="cls-4"/><path d="M301.715 179.87c.286-4.79.627-9.563 2.093-14.172a18.697 18.697 0 011.015-2.55c1.808-3.693 4.553-4.795 8.41-3.33 3.629 1.377 5.32 4.394 6.412 7.856a10.697 10.697 0 01.56 3.052 17.32 17.32 0 001.34 5.786c1.717 4.62 1.056 6.413-3.242 8.835-3.049 1.717-6.22 3.079-9.833 2.967a7.146 7.146 0 01-3.547-.93c-2.007-1.212-3.549-2.716-3.22-5.361a17.626 17.626 0 00.012-2.152z" class="cls-5"/></svg>