<svg width="971" height="693" viewBox="0 0 971 693" fill="none" xmlns="http://www.w3.org/2000/svg">
<path d="M124.215 644.752H91.7851V586.293H32.33V644.752H0V501.208H32.33V558.465H91.7851V501.208H124.215V644.752Z" fill="black"/>
<path d="M251.633 542.249L209.995 652.96C199.985 679.587 184.905 692.9 164.753 692.9C157.079 692.9 150.773 692.032 145.835 690.297V665.072C150.039 667.541 154.61 668.776 159.548 668.776C167.689 668.776 173.361 664.939 176.564 657.264L181.969 644.552L140.33 542.249H175.363L194.48 604.612C195.681 608.482 196.616 613.053 197.283 618.325H197.683C198.284 614.455 199.385 609.95 200.986 604.812L220.304 542.249H251.633Z" fill="black"/>
<path d="M296.375 632.84H295.974V691.899H264.345V542.249H295.974V557.665H296.375C304.182 545.719 315.159 539.747 329.305 539.747C342.584 539.747 352.827 544.318 360.034 553.46C367.307 562.536 370.944 574.915 370.944 590.598C370.944 607.681 366.707 621.395 358.232 631.739C349.824 642.082 338.614 647.254 324.601 647.254C312.256 647.254 302.847 642.449 296.375 632.84ZM295.474 590.798V599.006C295.474 606.08 297.342 611.852 301.079 616.323C304.816 620.794 309.72 623.03 315.793 623.03C322.999 623.03 328.571 620.261 332.508 614.722C336.512 609.116 338.514 601.208 338.514 590.998C338.514 572.98 331.507 563.971 317.494 563.971C311.022 563.971 305.717 566.44 301.58 571.378C297.509 576.25 295.474 582.723 295.474 590.798Z" fill="black"/>
<path d="M483.548 602.51H416.686C417.754 617.391 427.129 624.832 444.812 624.832C456.089 624.832 465.999 622.162 474.54 616.824V639.647C465.064 644.718 452.753 647.254 437.606 647.254C421.057 647.254 408.212 642.683 399.07 633.541C389.928 624.331 385.357 611.519 385.357 595.102C385.357 578.085 390.295 564.605 400.171 554.662C410.047 544.718 422.191 539.747 436.605 539.747C451.552 539.747 463.096 544.185 471.237 553.06C479.444 561.936 483.548 573.981 483.548 589.196V602.51ZM454.221 583.09C454.221 568.409 448.282 561.068 436.405 561.068C431.333 561.068 426.929 563.17 423.192 567.374C419.522 571.579 417.287 576.817 416.486 583.09H454.221Z" fill="black"/>
<path d="M569.228 570.778C565.424 568.709 560.987 567.675 555.915 567.675C549.042 567.675 543.671 570.211 539.8 575.282C535.93 580.287 533.995 587.127 533.995 595.803V644.752H502.366V542.249H533.995V561.268H534.395C539.4 547.388 548.408 540.447 561.42 540.447C564.757 540.447 567.359 540.848 569.228 541.649V570.778Z" fill="black"/>
<path d="M603.76 644.752H587.344V493H603.76V644.752Z" fill="#848484"/>
<path d="M645.398 516.223C642.462 516.223 639.96 515.222 637.891 513.22C635.823 511.218 634.788 508.682 634.788 505.613C634.788 502.543 635.823 500.007 637.891 498.005C639.96 495.936 642.462 494.902 645.398 494.902C648.401 494.902 650.937 495.936 653.005 498.005C655.141 500.007 656.208 502.543 656.208 505.613C656.208 508.549 655.141 511.051 653.005 513.12C650.937 515.189 648.401 516.223 645.398 516.223ZM653.406 644.752H636.99V542.249H653.406V644.752Z" fill="#848484"/>
<path d="M774.118 636.544C774.118 674.181 756.101 693 720.067 693C707.389 693 696.312 690.598 686.837 685.793V669.376C698.381 675.783 709.391 678.986 719.867 678.986C745.091 678.986 757.702 665.573 757.702 638.746V627.535H757.302C749.495 640.614 737.75 647.154 722.069 647.154C709.324 647.154 699.048 642.616 691.241 633.541C683.5 624.398 679.63 612.152 679.63 596.804C679.63 579.386 683.8 565.539 692.142 555.262C700.549 544.985 712.027 539.847 726.573 539.847C740.386 539.847 750.629 545.386 757.302 556.463H757.702V542.249H774.118V636.544ZM757.702 598.405V583.29C757.702 575.149 754.933 568.175 749.395 562.369C743.923 556.564 737.083 553.661 728.876 553.661C718.733 553.661 710.792 557.364 705.054 564.772C699.315 572.112 696.446 582.423 696.446 595.703C696.446 607.114 699.181 616.257 704.653 623.13C710.192 629.937 717.498 633.34 726.573 633.34C735.782 633.34 743.256 630.07 748.994 623.531C754.8 616.991 757.702 608.616 757.702 598.405Z" fill="#848484"/>
<path d="M892.427 644.752H876.012V585.693C876.012 564.338 868.071 553.661 852.19 553.661C844.182 553.661 837.443 556.764 831.971 562.97C826.499 569.109 823.764 577.017 823.764 586.694V644.752H807.348V493H823.764V559.266H824.164C832.038 546.32 843.248 539.847 857.795 539.847C880.883 539.847 892.427 553.761 892.427 581.589V644.752Z" fill="#848484"/>
<path d="M971 643.751C967.13 645.886 962.025 646.954 955.686 646.954C937.736 646.954 928.761 636.944 928.761 616.924V556.263H911.145V542.249H928.761V517.224L945.176 511.919V542.249H971V556.263H945.176V614.021C945.176 620.895 946.344 625.799 948.679 628.736C951.015 631.672 954.885 633.14 960.29 633.14C964.427 633.14 967.997 632.006 971 629.737V643.751Z" fill="#848484"/>
<path d="M468.155 2.94706C459.395 2.7554 450.881 5.86446 444.306 11.6578C433.8 21.072 435.218 30.072 425.842 43.3021C423.221 47.5301 419.762 51.1767 415.677 54.0157C411.593 56.8546 406.97 58.8265 402.093 59.8091L401.729 59.896C395.14 61.719 389.279 65.5433 384.957 70.841C380.636 76.1387 378.066 82.6475 377.604 89.4686C369.457 153.347 391.411 252.649 444.406 307.013C458.865 320.727 474.626 332.996 491.465 343.652C508.783 349.633 527.607 349.633 544.925 343.652C561.948 333.129 577.812 320.834 592.248 306.974C643.549 254.355 667.36 154.616 659.05 89.4318C658.655 82.5256 656.068 75.9256 651.663 70.5912C647.259 65.2568 641.269 61.4658 634.562 59.7704C629.685 58.7878 625.061 56.8159 620.977 53.977C616.892 51.1379 613.434 47.4929 610.813 43.2649C602.328 31.2901 602.44 20.6709 592.347 11.6208C585.773 5.82726 577.26 2.71671 568.498 2.90825L468.155 2.94706Z" fill="#E6E6E6" stroke="#1A1A1A" stroke-width="4"/>
<path d="M567.486 21.7747H517.165L476.82 177.659L517.165 335.581C542.27 335.581 542.27 329.305 567.374 310.477C567.374 310.477 648.964 253.992 642.688 97.0883C642.688 97.0883 642.718 81.398 630.136 78.2599C598.755 71.9838 586.203 34.327 586.203 34.327C584.546 30.1336 579.927 21.7747 567.486 21.7747Z" fill="#AEDDFF"/>
<path d="M467.19 21.7747H517.51V335.581C492.406 335.581 492.406 329.305 467.301 310.477C467.301 310.477 385.711 253.992 391.987 97.0883C391.987 97.0883 391.957 81.398 404.54 78.2599C435.92 71.9838 448.473 34.327 448.473 34.327C450.129 30.1336 454.749 21.7747 467.19 21.7747Z" fill="#00A6ED"/>
<path d="M435.298 30.3281C426.538 30.1364 418.024 33.2455 411.449 39.0388C400.943 48.453 402.361 57.453 392.985 70.6831C390.364 74.9111 386.905 78.5578 382.82 81.3967C378.736 84.2356 374.113 86.2075 369.236 87.1901L368.872 87.277C362.283 89.1 356.422 92.9243 352.1 98.222C347.779 103.52 345.209 110.028 344.747 116.85C336.601 180.728 358.554 280.03 411.55 334.394C426.008 348.108 441.769 360.377 458.608 371.033C475.926 377.014 494.75 377.014 512.068 371.033C529.091 360.51 544.955 348.216 559.391 334.355C610.692 281.736 634.503 181.997 626.193 116.813C625.798 109.907 623.211 103.307 618.806 97.9722C614.402 92.6378 608.412 88.8468 601.705 87.1514C596.829 86.1688 592.204 84.197 588.12 81.358C584.035 78.5189 580.577 74.8739 577.956 70.6459C569.471 58.6711 569.583 48.0519 559.491 39.0018C552.916 33.2083 544.403 30.0977 535.641 30.2893L435.298 30.3281Z" fill="#E6E6E6" stroke="#1A1A1A" stroke-width="4"/>
<path d="M534.629 49.1557H484.308L443.963 205.04L484.308 362.962C509.413 362.962 509.413 356.686 534.517 337.858C534.517 337.858 616.107 281.373 609.831 124.469C609.831 124.469 609.861 108.779 597.279 105.641C565.898 99.3648 553.346 61.708 553.346 61.708C551.689 57.5147 547.07 49.1557 534.629 49.1557Z" fill="#AEDDFF"/>
<path d="M434.333 49.1557H484.654V362.962C459.549 362.962 459.549 356.686 434.444 337.858C434.444 337.858 352.854 281.373 359.131 124.469C359.131 124.469 359.1 108.779 371.683 105.641C403.063 99.3648 415.616 61.708 415.616 61.708C417.272 57.5147 421.892 49.1557 434.333 49.1557Z" fill="#00A6ED"/>
<path d="M402.441 57.7091C393.681 57.5174 385.166 60.6265 378.592 66.4198C368.086 75.834 369.504 84.834 360.127 98.0641C357.507 102.292 354.048 105.939 349.963 108.778C345.878 111.617 341.255 113.588 336.379 114.571L336.015 114.658C329.426 116.481 323.565 120.305 319.243 125.603C314.921 130.901 312.352 137.409 311.89 144.231C303.743 208.109 325.697 307.411 378.692 361.775C393.151 375.489 408.912 387.758 425.751 398.414C443.069 404.395 461.892 404.395 479.211 398.414C496.234 387.891 512.098 375.596 526.534 361.736C577.835 309.117 601.645 209.378 593.336 144.194C592.94 137.288 590.353 130.688 585.949 125.353C581.544 120.019 575.554 116.228 568.848 114.532C563.971 113.55 559.347 111.578 555.262 108.739C551.178 105.9 547.72 102.255 545.099 98.0269C536.613 86.0521 536.725 75.4329 526.633 66.3828C520.058 60.5892 511.545 57.4787 502.784 57.6702L402.441 57.7091Z" fill="#E6E6E6" stroke="#1A1A1A" stroke-width="4"/>
<path d="M501.772 76.5367H451.451L411.105 232.421L451.451 390.343C476.555 390.343 476.555 384.067 501.66 365.239C501.66 365.239 583.25 308.754 576.974 151.85C576.974 151.85 577.004 136.16 564.421 133.022C533.041 126.746 520.488 89.089 520.488 89.089C518.832 84.8957 514.212 76.5367 501.772 76.5367Z" fill="#AEDDFF"/>
<path d="M401.475 76.5367H451.796V390.343C426.692 390.343 426.692 384.067 401.587 365.239C401.587 365.239 319.997 308.754 326.273 151.85C326.273 151.85 326.243 136.16 338.825 133.022C370.206 126.746 382.759 89.089 382.759 89.089C384.414 84.8957 389.035 76.5367 401.475 76.5367Z" fill="#00A6ED"/>
<g clip-path="url(#clip0_5998_82)">
<path d="M479.255 115.186L498.222 128.715C522.33 145.911 539.519 171.074 546.799 199.738C554.464 229.98 548.425 262.114 530.289 287.541L519.744 302.324C519.744 302.324 519.944 300.407 520.143 297.049C519.32 299.07 518.82 300.155 518.82 300.155L518.107 301.156L500.276 288.437C490.815 281.689 483.243 273.062 477.833 263.232C477.202 262.096 478.175 260.732 479.455 260.958L492.602 263.404C493.323 263.644 493.693 262.741 493.102 262.319L472.496 247.622C471.541 246.941 470.891 245.928 470.585 244.817C468.234 235.317 467.682 225.315 469.176 215.331C469.758 211.629 470.637 204.913 471.108 201.269C471.296 199.755 472.282 198.468 473.698 197.831L487.151 192.055C488.158 191.606 488.293 190.261 487.429 189.645L475.33 181.015C474.147 180.171 473.464 178.723 473.587 177.301C475.094 158.062 475.425 137.778 473.347 119.139C473.21 118.08 473.508 116.989 474.124 116.124C475.279 114.409 477.617 114.018 479.255 115.186Z" fill="url(#paint0_linear_5998_82)"/>
<path d="M479.255 115.186L498.222 128.715C522.33 145.911 539.519 171.074 546.799 199.738C554.464 229.98 548.425 262.114 530.289 287.541L519.744 302.324C519.744 302.324 519.944 300.407 520.143 297.049C519.32 299.07 518.82 300.155 518.82 300.155L518.107 301.156L500.276 288.437C490.815 281.689 483.243 273.062 477.833 263.232C477.202 262.096 478.175 260.732 479.455 260.958L492.602 263.404C493.323 263.644 493.693 262.741 493.102 262.319L472.496 247.622C471.541 246.941 470.891 245.928 470.585 244.817C468.234 235.317 467.682 225.315 469.176 215.331C469.758 211.629 470.637 204.913 471.108 201.269C471.296 199.755 472.282 198.468 473.698 197.831L487.151 192.055C488.158 191.606 488.293 190.261 487.429 189.645L475.33 181.015C474.147 180.171 473.464 178.723 473.587 177.301C475.094 158.062 475.425 137.778 473.347 119.139C473.21 118.08 473.508 116.989 474.124 116.124C475.279 114.409 477.617 114.018 479.255 115.186Z" fill="url(#paint1_radial_5998_82)"/>
<path d="M479.255 115.186L498.222 128.715C522.33 145.911 539.519 171.074 546.799 199.738C554.464 229.98 548.425 262.114 530.289 287.541L519.744 302.324C519.744 302.324 519.944 300.407 520.143 297.049C519.32 299.07 518.82 300.155 518.82 300.155L518.107 301.156L500.276 288.437C490.815 281.689 483.243 273.062 477.833 263.232C477.202 262.096 478.175 260.732 479.455 260.958L492.602 263.404C493.323 263.644 493.693 262.741 493.102 262.319L472.496 247.622C471.541 246.941 470.891 245.928 470.585 244.817C468.234 235.317 467.682 225.315 469.176 215.331C469.758 211.629 470.637 204.913 471.108 201.269C471.296 199.755 472.282 198.468 473.698 197.831L487.151 192.055C488.158 191.606 488.293 190.261 487.429 189.645L475.33 181.015C474.147 180.171 473.464 178.723 473.587 177.301C475.094 158.062 475.425 137.778 473.347 119.139C473.21 118.08 473.508 116.989 474.124 116.124C475.279 114.409 477.617 114.018 479.255 115.186Z" fill="url(#paint2_radial_5998_82)"/>
<path d="M479.255 115.186L498.222 128.715C522.33 145.911 539.519 171.074 546.799 199.738C554.464 229.98 548.425 262.114 530.289 287.541L519.744 302.324C519.744 302.324 519.944 300.407 520.143 297.049C519.32 299.07 518.82 300.155 518.82 300.155L518.107 301.156L500.276 288.437C490.815 281.689 483.243 273.062 477.833 263.232C477.202 262.096 478.175 260.732 479.455 260.958L492.602 263.404C493.323 263.644 493.693 262.741 493.102 262.319L472.496 247.622C471.541 246.941 470.891 245.928 470.585 244.817C468.234 235.317 467.682 225.315 469.176 215.331C469.758 211.629 470.637 204.913 471.108 201.269C471.296 199.755 472.282 198.468 473.698 197.831L487.151 192.055C488.158 191.606 488.293 190.261 487.429 189.645L475.33 181.015C474.147 180.171 473.464 178.723 473.587 177.301C475.094 158.062 475.425 137.778 473.347 119.139C473.21 118.08 473.508 116.989 474.124 116.124C475.279 114.409 477.617 114.018 479.255 115.186Z" fill="url(#paint3_radial_5998_82)"/>
<path d="M479.255 115.186L498.222 128.715C522.33 145.911 539.519 171.074 546.799 199.738C554.464 229.98 548.425 262.114 530.289 287.541L519.744 302.324C519.744 302.324 519.944 300.407 520.143 297.049C519.32 299.07 518.82 300.155 518.82 300.155L518.107 301.156L500.276 288.437C490.815 281.689 483.243 273.062 477.833 263.232C477.202 262.096 478.175 260.732 479.455 260.958L492.602 263.404C493.323 263.644 493.693 262.741 493.102 262.319L472.496 247.622C471.541 246.941 470.891 245.928 470.585 244.817C468.234 235.317 467.682 225.315 469.176 215.331C469.758 211.629 470.637 204.913 471.108 201.269C471.296 199.755 472.282 198.468 473.698 197.831L487.151 192.055C488.158 191.606 488.293 190.261 487.429 189.645L475.33 181.015C474.147 180.171 473.464 178.723 473.587 177.301C475.094 158.062 475.425 137.778 473.347 119.139C473.21 118.08 473.508 116.989 474.124 116.124C475.279 114.409 477.617 114.018 479.255 115.186Z" fill="url(#paint4_radial_5998_82)" fill-opacity="0.6"/>
<path d="M479.255 115.186L498.222 128.715C522.33 145.911 539.519 171.074 546.799 199.738C554.464 229.98 548.425 262.114 530.289 287.541L519.744 302.324C519.744 302.324 519.944 300.407 520.143 297.049C519.32 299.07 518.82 300.155 518.82 300.155L518.107 301.156L500.276 288.437C490.815 281.689 483.243 273.062 477.833 263.232C477.202 262.096 478.175 260.732 479.455 260.958L492.602 263.404C493.323 263.644 493.693 262.741 493.102 262.319L472.496 247.622C471.541 246.941 470.891 245.928 470.585 244.817C468.234 235.317 467.682 225.315 469.176 215.331C469.758 211.629 470.637 204.913 471.108 201.269C471.296 199.755 472.282 198.468 473.698 197.831L487.151 192.055C488.158 191.606 488.293 190.261 487.429 189.645L475.33 181.015C474.147 180.171 473.464 178.723 473.587 177.301C475.094 158.062 475.425 137.778 473.347 119.139C473.21 118.08 473.508 116.989 474.124 116.124C475.279 114.409 477.617 114.018 479.255 115.186Z" fill="url(#paint5_radial_5998_82)"/>
<path d="M479.255 115.186L498.222 128.715C522.33 145.911 539.519 171.074 546.799 199.738C554.464 229.98 548.425 262.114 530.289 287.541L519.744 302.324C519.744 302.324 519.944 300.407 520.143 297.049C519.32 299.07 518.82 300.155 518.82 300.155L518.107 301.156L500.276 288.437C490.815 281.689 483.243 273.062 477.833 263.232C477.202 262.096 478.175 260.732 479.455 260.958L492.602 263.404C493.323 263.644 493.693 262.741 493.102 262.319L472.496 247.622C471.541 246.941 470.891 245.928 470.585 244.817C468.234 235.317 467.682 225.315 469.176 215.331C469.758 211.629 470.637 204.913 471.108 201.269C471.296 199.755 472.282 198.468 473.698 197.831L487.151 192.055C488.158 191.606 488.293 190.261 487.429 189.645L475.33 181.015C474.147 180.171 473.464 178.723 473.587 177.301C475.094 158.062 475.425 137.778 473.347 119.139C473.21 118.08 473.508 116.989 474.124 116.124C475.279 114.409 477.617 114.018 479.255 115.186Z" fill="url(#paint6_radial_5998_82)"/>
<path d="M479.255 115.186L498.222 128.715C522.33 145.911 539.519 171.074 546.799 199.738C554.464 229.98 548.425 262.114 530.289 287.541L519.744 302.324C519.744 302.324 519.944 300.407 520.143 297.049C519.32 299.07 518.82 300.155 518.82 300.155L518.107 301.156L500.276 288.437C490.815 281.689 483.243 273.062 477.833 263.232C477.202 262.096 478.175 260.732 479.455 260.958L492.602 263.404C493.323 263.644 493.693 262.741 493.102 262.319L472.496 247.622C471.541 246.941 470.891 245.928 470.585 244.817C468.234 235.317 467.682 225.315 469.176 215.331C469.758 211.629 470.637 204.913 471.108 201.269C471.296 199.755 472.282 198.468 473.698 197.831L487.151 192.055C488.158 191.606 488.293 190.261 487.429 189.645L475.33 181.015C474.147 180.171 473.464 178.723 473.587 177.301C475.094 158.062 475.425 137.778 473.347 119.139C473.21 118.08 473.508 116.989 474.124 116.124C475.279 114.409 477.617 114.018 479.255 115.186Z" fill="url(#paint7_radial_5998_82)" fill-opacity="0.6"/>
<path d="M479.255 115.186L498.222 128.715C522.33 145.911 539.519 171.074 546.799 199.738C554.464 229.98 548.425 262.114 530.289 287.541L519.744 302.324C519.744 302.324 519.944 300.407 520.143 297.049C519.32 299.07 518.82 300.155 518.82 300.155L518.107 301.156L500.276 288.437C490.815 281.689 483.243 273.062 477.833 263.232C477.202 262.096 478.175 260.732 479.455 260.958L492.602 263.404C493.323 263.644 493.693 262.741 493.102 262.319L472.496 247.622C471.541 246.941 470.891 245.928 470.585 244.817C468.234 235.317 467.682 225.315 469.176 215.331C469.758 211.629 470.637 204.913 471.108 201.269C471.296 199.755 472.282 198.468 473.698 197.831L487.151 192.055C488.158 191.606 488.293 190.261 487.429 189.645L475.33 181.015C474.147 180.171 473.464 178.723 473.587 177.301C475.094 158.062 475.425 137.778 473.347 119.139C473.21 118.08 473.508 116.989 474.124 116.124C475.279 114.409 477.617 114.018 479.255 115.186Z" fill="url(#paint8_radial_5998_82)" fill-opacity="0.6"/>
<path d="M479.255 115.186L498.222 128.715C522.33 145.911 539.519 171.074 546.799 199.738C554.464 229.98 548.425 262.114 530.289 287.541L519.744 302.324C519.744 302.324 519.944 300.407 520.143 297.049C519.32 299.07 518.82 300.155 518.82 300.155L518.107 301.156L500.276 288.437C490.815 281.689 483.243 273.062 477.833 263.232C477.202 262.096 478.175 260.732 479.455 260.958L492.602 263.404C493.323 263.644 493.693 262.741 493.102 262.319L472.496 247.622C471.541 246.941 470.891 245.928 470.585 244.817C468.234 235.317 467.682 225.315 469.176 215.331C469.758 211.629 470.637 204.913 471.108 201.269C471.296 199.755 472.282 198.468 473.698 197.831L487.151 192.055C488.158 191.606 488.293 190.261 487.429 189.645L475.33 181.015C474.147 180.171 473.464 178.723 473.587 177.301C475.094 158.062 475.425 137.778 473.347 119.139C473.21 118.08 473.508 116.989 474.124 116.124C475.279 114.409 477.617 114.018 479.255 115.186Z" fill="url(#paint9_radial_5998_82)"/>
<path d="M479.255 115.186L498.222 128.715C522.33 145.911 539.519 171.074 546.799 199.738C554.464 229.98 548.425 262.114 530.289 287.541L519.744 302.324C519.744 302.324 519.944 300.407 520.143 297.049C519.32 299.07 518.82 300.155 518.82 300.155L518.107 301.156L500.276 288.437C490.815 281.689 483.243 273.062 477.833 263.232C477.202 262.096 478.175 260.732 479.455 260.958L492.602 263.404C493.323 263.644 493.693 262.741 493.102 262.319L472.496 247.622C471.541 246.941 470.891 245.928 470.585 244.817C468.234 235.317 467.682 225.315 469.176 215.331C469.758 211.629 470.637 204.913 471.108 201.269C471.296 199.755 472.282 198.468 473.698 197.831L487.151 192.055C488.158 191.606 488.293 190.261 487.429 189.645L475.33 181.015C474.147 180.171 473.464 178.723 473.587 177.301C475.094 158.062 475.425 137.778 473.347 119.139C473.21 118.08 473.508 116.989 474.124 116.124C475.279 114.409 477.617 114.018 479.255 115.186Z" fill="url(#paint10_radial_5998_82)" fill-opacity="0.8"/>
<path d="M479.255 115.186L498.222 128.715C522.33 145.911 539.519 171.074 546.799 199.738C554.464 229.98 548.425 262.114 530.289 287.541L519.744 302.324C519.744 302.324 519.944 300.407 520.143 297.049C519.32 299.07 518.82 300.155 518.82 300.155L518.107 301.156L500.276 288.437C490.815 281.689 483.243 273.062 477.833 263.232C477.202 262.096 478.175 260.732 479.455 260.958L492.602 263.404C493.323 263.644 493.693 262.741 493.102 262.319L472.496 247.622C471.541 246.941 470.891 245.928 470.585 244.817C468.234 235.317 467.682 225.315 469.176 215.331C469.758 211.629 470.637 204.913 471.108 201.269C471.296 199.755 472.282 198.468 473.698 197.831L487.151 192.055C488.158 191.606 488.293 190.261 487.429 189.645L475.33 181.015C474.147 180.171 473.464 178.723 473.587 177.301C475.094 158.062 475.425 137.778 473.347 119.139C473.21 118.08 473.508 116.989 474.124 116.124C475.279 114.409 477.617 114.018 479.255 115.186Z" fill="url(#paint11_radial_5998_82)" fill-opacity="0.8"/>
<path d="M479.255 115.186L498.222 128.715C522.33 145.911 539.519 171.074 546.799 199.738C554.464 229.98 548.425 262.114 530.289 287.541L519.744 302.324C519.744 302.324 519.944 300.407 520.143 297.049C519.32 299.07 518.82 300.155 518.82 300.155L518.107 301.156L500.276 288.437C490.815 281.689 483.243 273.062 477.833 263.232C477.202 262.096 478.175 260.732 479.455 260.958L492.602 263.404C493.323 263.644 493.693 262.741 493.102 262.319L472.496 247.622C471.541 246.941 470.891 245.928 470.585 244.817C468.234 235.317 467.682 225.315 469.176 215.331C469.758 211.629 470.637 204.913 471.108 201.269C471.296 199.755 472.282 198.468 473.698 197.831L487.151 192.055C488.158 191.606 488.293 190.261 487.429 189.645L475.33 181.015C474.147 180.171 473.464 178.723 473.587 177.301C475.094 158.062 475.425 137.778 473.347 119.139C473.21 118.08 473.508 116.989 474.124 116.124C475.279 114.409 477.617 114.018 479.255 115.186Z" fill="url(#paint12_radial_5998_82)" fill-opacity="0.8"/>
<path d="M479.255 115.186L498.222 128.715C522.33 145.911 539.519 171.074 546.799 199.738C554.464 229.98 548.425 262.114 530.289 287.541L519.744 302.324C519.744 302.324 519.944 300.407 520.143 297.049C519.32 299.07 518.82 300.155 518.82 300.155L518.107 301.156L500.276 288.437C490.815 281.689 483.243 273.062 477.833 263.232C477.202 262.096 478.175 260.732 479.455 260.958L492.602 263.404C493.323 263.644 493.693 262.741 493.102 262.319L472.496 247.622C471.541 246.941 470.891 245.928 470.585 244.817C468.234 235.317 467.682 225.315 469.176 215.331C469.758 211.629 470.637 204.913 471.108 201.269C471.296 199.755 472.282 198.468 473.698 197.831L487.151 192.055C488.158 191.606 488.293 190.261 487.429 189.645L475.33 181.015C474.147 180.171 473.464 178.723 473.587 177.301C475.094 158.062 475.425 137.778 473.347 119.139C473.21 118.08 473.508 116.989 474.124 116.124C475.279 114.409 477.617 114.018 479.255 115.186Z" fill="url(#paint13_radial_5998_82)"/>
<path d="M479.255 115.186L498.222 128.715C522.33 145.911 539.519 171.074 546.799 199.738C554.464 229.98 548.425 262.114 530.289 287.541L519.744 302.324C519.744 302.324 519.944 300.407 520.143 297.049C519.32 299.07 518.82 300.155 518.82 300.155L518.107 301.156L500.276 288.437C490.815 281.689 483.243 273.062 477.833 263.232C477.202 262.096 478.175 260.732 479.455 260.958L492.602 263.404C493.323 263.644 493.693 262.741 493.102 262.319L472.496 247.622C471.541 246.941 470.891 245.928 470.585 244.817C468.234 235.317 467.682 225.315 469.176 215.331C469.758 211.629 470.637 204.913 471.108 201.269C471.296 199.755 472.282 198.468 473.698 197.831L487.151 192.055C488.158 191.606 488.293 190.261 487.429 189.645L475.33 181.015C474.147 180.171 473.464 178.723 473.587 177.301C475.094 158.062 475.425 137.778 473.347 119.139C473.21 118.08 473.508 116.989 474.124 116.124C475.279 114.409 477.617 114.018 479.255 115.186Z" fill="url(#paint14_radial_5998_82)" fill-opacity="0.8"/>
<path d="M479.255 115.186L498.222 128.715C522.33 145.911 539.519 171.074 546.799 199.738C554.464 229.98 548.425 262.114 530.289 287.541L519.744 302.324C519.744 302.324 519.944 300.407 520.143 297.049C519.32 299.07 518.82 300.155 518.82 300.155L518.107 301.156L500.276 288.437C490.815 281.689 483.243 273.062 477.833 263.232C477.202 262.096 478.175 260.732 479.455 260.958L492.602 263.404C493.323 263.644 493.693 262.741 493.102 262.319L472.496 247.622C471.541 246.941 470.891 245.928 470.585 244.817C468.234 235.317 467.682 225.315 469.176 215.331C469.758 211.629 470.637 204.913 471.108 201.269C471.296 199.755 472.282 198.468 473.698 197.831L487.151 192.055C488.158 191.606 488.293 190.261 487.429 189.645L475.33 181.015C474.147 180.171 473.464 178.723 473.587 177.301C475.094 158.062 475.425 137.778 473.347 119.139C473.21 118.08 473.508 116.989 474.124 116.124C475.279 114.409 477.617 114.018 479.255 115.186Z" fill="url(#paint15_radial_5998_82)" fill-opacity="0.8"/>
<path d="M479.255 115.186L498.222 128.715C522.33 145.911 539.519 171.074 546.799 199.738C554.464 229.98 548.425 262.114 530.289 287.541L519.744 302.324C519.744 302.324 519.944 300.407 520.143 297.049C519.32 299.07 518.82 300.155 518.82 300.155L518.107 301.156L500.276 288.437C490.815 281.689 483.243 273.062 477.833 263.232C477.202 262.096 478.175 260.732 479.455 260.958L492.602 263.404C493.323 263.644 493.693 262.741 493.102 262.319L472.496 247.622C471.541 246.941 470.891 245.928 470.585 244.817C468.234 235.317 467.682 225.315 469.176 215.331C469.758 211.629 470.637 204.913 471.108 201.269C471.296 199.755 472.282 198.468 473.698 197.831L487.151 192.055C488.158 191.606 488.293 190.261 487.429 189.645L475.33 181.015C474.147 180.171 473.464 178.723 473.587 177.301C475.094 158.062 475.425 137.778 473.347 119.139C473.21 118.08 473.508 116.989 474.124 116.124C475.279 114.409 477.617 114.018 479.255 115.186Z" fill="url(#paint16_radial_5998_82)"/>
<path d="M474.768 146.299L510.201 171.573L523.568 152.833C529.965 160.896 535.374 169.764 539.602 179.231L517.086 210.798L475.284 180.982C474.102 180.138 473.419 178.69 473.541 177.268C474.359 167.076 474.813 156.626 474.768 146.299Z" fill="url(#paint17_linear_5998_82)"/>
<path d="M474.768 146.299L510.201 171.573L523.568 152.833C529.965 160.896 535.374 169.764 539.602 179.231L517.086 210.798L475.284 180.982C474.102 180.138 473.419 178.69 473.541 177.268C474.359 167.076 474.813 156.626 474.768 146.299Z" fill="url(#paint18_radial_5998_82)"/>
<path d="M474.768 146.299L510.201 171.573L523.568 152.833C529.965 160.896 535.374 169.764 539.602 179.231L517.086 210.798L475.284 180.982C474.102 180.138 473.419 178.69 473.541 177.268C474.359 167.076 474.813 156.626 474.768 146.299Z" fill="url(#paint19_linear_5998_82)"/>
<path d="M479.255 115.186L498.222 128.715C522.33 145.911 539.519 171.074 546.799 199.738C554.464 229.98 548.425 262.114 530.289 287.541L519.744 302.324C519.744 302.324 519.944 300.407 520.143 297.049C519.32 299.07 518.82 300.155 518.82 300.155L518.107 301.156L500.276 288.437C490.815 281.689 483.243 273.062 477.833 263.232C477.202 262.096 478.175 260.732 479.455 260.958L492.602 263.404C493.323 263.644 493.693 262.741 493.102 262.319L472.496 247.622C471.541 246.941 470.891 245.928 470.585 244.817C468.234 235.317 467.682 225.315 469.176 215.331C469.758 211.629 470.637 204.913 471.108 201.269C471.296 199.755 472.282 198.468 473.698 197.831L487.151 192.055C488.158 191.606 488.293 190.261 487.429 189.645L475.33 181.015C474.147 180.171 473.464 178.723 473.587 177.301C475.094 158.062 475.425 137.778 473.347 119.139C473.21 118.08 473.508 116.989 474.124 116.124C475.279 114.409 477.617 114.018 479.255 115.186Z" fill="url(#paint20_radial_5998_82)" fill-opacity="0.8"/>
<path d="M479.255 115.186L498.222 128.715C522.33 145.911 539.519 171.074 546.799 199.738C554.464 229.98 548.425 262.114 530.289 287.541L519.744 302.324C519.744 302.324 519.944 300.407 520.143 297.049C519.32 299.07 518.82 300.155 518.82 300.155L518.107 301.156L500.276 288.437C490.815 281.689 483.243 273.062 477.833 263.232C477.202 262.096 478.175 260.732 479.455 260.958L492.602 263.404C493.323 263.644 493.693 262.741 493.102 262.319L472.496 247.622C471.541 246.941 470.891 245.928 470.585 244.817C468.234 235.317 467.682 225.315 469.176 215.331C469.758 211.629 470.637 204.913 471.108 201.269C471.296 199.755 472.282 198.468 473.698 197.831L487.151 192.055C488.158 191.606 488.293 190.261 487.429 189.645L475.33 181.015C474.147 180.171 473.464 178.723 473.587 177.301C475.094 158.062 475.425 137.778 473.347 119.139C473.21 118.08 473.508 116.989 474.124 116.124C475.279 114.409 477.617 114.018 479.255 115.186Z" fill="url(#paint21_radial_5998_82)" fill-opacity="0.2"/>
<path d="M479.255 115.186L498.222 128.715C522.33 145.911 539.519 171.074 546.799 199.738C554.464 229.98 548.425 262.114 530.289 287.541L519.744 302.324C519.744 302.324 519.944 300.407 520.143 297.049C519.32 299.07 518.82 300.155 518.82 300.155L518.107 301.156L500.276 288.437C490.815 281.689 483.243 273.062 477.833 263.232C477.202 262.096 478.175 260.732 479.455 260.958L492.602 263.404C493.323 263.644 493.693 262.741 493.102 262.319L472.496 247.622C471.541 246.941 470.891 245.928 470.585 244.817C468.234 235.317 467.682 225.315 469.176 215.331C469.758 211.629 470.637 204.913 471.108 201.269C471.296 199.755 472.282 198.468 473.698 197.831L487.151 192.055C488.158 191.606 488.293 190.261 487.429 189.645L475.33 181.015C474.147 180.171 473.464 178.723 473.587 177.301C475.094 158.062 475.425 137.778 473.347 119.139C473.21 118.08 473.508 116.989 474.124 116.124C475.279 114.409 477.617 114.018 479.255 115.186Z" fill="url(#paint22_linear_5998_82)"/>
<path d="M479.255 115.186L498.222 128.715C522.33 145.911 539.519 171.074 546.799 199.738C554.464 229.98 548.425 262.114 530.289 287.541L519.744 302.324C519.744 302.324 519.944 300.407 520.143 297.049C519.32 299.07 518.82 300.155 518.82 300.155L518.107 301.156L500.276 288.437C490.815 281.689 483.243 273.062 477.833 263.232C477.202 262.096 478.175 260.732 479.455 260.958L492.602 263.404C493.323 263.644 493.693 262.741 493.102 262.319L472.496 247.622C471.541 246.941 470.891 245.928 470.585 244.817C468.234 235.317 467.682 225.315 469.176 215.331C469.758 211.629 470.637 204.913 471.108 201.269C471.296 199.755 472.282 198.468 473.698 197.831L487.151 192.055C488.158 191.606 488.293 190.261 487.429 189.645L475.33 181.015C474.147 180.171 473.464 178.723 473.587 177.301C475.094 158.062 475.425 137.778 473.347 119.139C473.21 118.08 473.508 116.989 474.124 116.124C475.279 114.409 477.617 114.018 479.255 115.186Z" fill="url(#paint23_radial_5998_82)"/>
<path d="M479.255 115.186L498.222 128.715C522.33 145.911 539.519 171.074 546.799 199.738C554.464 229.98 548.425 262.114 530.289 287.541L519.744 302.324C519.744 302.324 519.944 300.407 520.143 297.049C519.32 299.07 518.82 300.155 518.82 300.155L518.107 301.156L500.276 288.437C490.815 281.689 483.243 273.062 477.833 263.232C477.202 262.096 478.175 260.732 479.455 260.958L492.602 263.404C493.323 263.644 493.693 262.741 493.102 262.319L472.496 247.622C471.541 246.941 470.891 245.928 470.585 244.817C468.234 235.317 467.682 225.315 469.176 215.331C469.758 211.629 470.637 204.913 471.108 201.269C471.296 199.755 472.282 198.468 473.698 197.831L487.151 192.055C488.158 191.606 488.293 190.261 487.429 189.645L475.33 181.015C474.147 180.171 473.464 178.723 473.587 177.301C475.094 158.062 475.425 137.778 473.347 119.139C473.21 118.08 473.508 116.989 474.124 116.124C475.279 114.409 477.617 114.018 479.255 115.186Z" fill="url(#paint24_radial_5998_82)"/>
<path d="M479.255 115.186L498.222 128.715C522.33 145.911 539.519 171.074 546.799 199.738C554.464 229.98 548.425 262.114 530.289 287.541L519.744 302.324C519.744 302.324 519.944 300.407 520.143 297.049C519.32 299.07 518.82 300.155 518.82 300.155L518.107 301.156L500.276 288.437C490.815 281.689 483.243 273.062 477.833 263.232C477.202 262.096 478.175 260.732 479.455 260.958L492.602 263.404C493.323 263.644 493.693 262.741 493.102 262.319L472.496 247.622C471.541 246.941 470.891 245.928 470.585 244.817C468.234 235.317 467.682 225.315 469.176 215.331C469.758 211.629 470.637 204.913 471.108 201.269C471.296 199.755 472.282 198.468 473.698 197.831L487.151 192.055C488.158 191.606 488.293 190.261 487.429 189.645L475.33 181.015C474.147 180.171 473.464 178.723 473.587 177.301C475.094 158.062 475.425 137.778 473.347 119.139C473.21 118.08 473.508 116.989 474.124 116.124C475.279 114.409 477.617 114.018 479.255 115.186Z" fill="url(#paint25_radial_5998_82)"/>
<path d="M490.915 138.19C492.239 137.487 493.883 137.973 494.617 139.252C508.825 163.593 518.344 190.079 523.072 218.089C528.054 247.858 527.262 277.833 520.753 307.162C519.147 314.32 517.236 321.329 514.987 328.235C514.423 329.892 512.644 330.75 511.117 330.004C509.772 329.388 509.2 327.882 509.66 326.563C511.857 319.826 513.749 312.94 515.303 305.951C521.695 277.362 522.481 248.07 517.584 219.047C513.007 191.693 503.682 165.895 489.813 142.139C488.974 140.717 489.447 138.996 490.915 138.19C490.882 138.235 490.882 138.235 490.915 138.19Z" fill="url(#paint26_linear_5998_82)"/>
<path d="M490.915 138.19C492.239 137.487 493.883 137.973 494.617 139.252C508.825 163.593 518.344 190.079 523.072 218.089C528.054 247.858 527.262 277.833 520.753 307.162C519.147 314.32 517.236 321.329 514.987 328.235C514.423 329.892 512.644 330.75 511.117 330.004C509.772 329.388 509.2 327.882 509.66 326.563C511.857 319.826 513.749 312.94 515.303 305.951C521.695 277.362 522.481 248.07 517.584 219.047C513.007 191.693 503.682 165.895 489.813 142.139C488.974 140.717 489.447 138.996 490.915 138.19C490.882 138.235 490.882 138.235 490.915 138.19Z" fill="url(#paint27_linear_5998_82)"/>
<path d="M490.915 138.19C492.239 137.487 493.883 137.973 494.617 139.252C508.825 163.593 518.344 190.079 523.072 218.089C528.054 247.858 527.262 277.833 520.753 307.162C519.147 314.32 517.236 321.329 514.987 328.235C514.423 329.892 512.644 330.75 511.117 330.004C509.772 329.388 509.2 327.882 509.66 326.563C511.857 319.826 513.749 312.94 515.303 305.951C521.695 277.362 522.481 248.07 517.584 219.047C513.007 191.693 503.682 165.895 489.813 142.139C488.974 140.717 489.447 138.996 490.915 138.19C490.882 138.235 490.882 138.235 490.915 138.19Z" fill="url(#paint28_radial_5998_82)" fill-opacity="0.8"/>
<path d="M490.915 138.19C492.239 137.487 493.883 137.973 494.617 139.252C508.825 163.593 518.344 190.079 523.072 218.089C528.054 247.858 527.262 277.833 520.753 307.162C519.147 314.32 517.236 321.329 514.987 328.235C514.423 329.892 512.644 330.75 511.117 330.004C509.772 329.388 509.2 327.882 509.66 326.563C511.857 319.826 513.749 312.94 515.303 305.951C521.695 277.362 522.481 248.07 517.584 219.047C513.007 191.693 503.682 165.895 489.813 142.139C488.974 140.717 489.447 138.996 490.915 138.19C490.882 138.235 490.882 138.235 490.915 138.19Z" fill="url(#paint29_radial_5998_82)"/>
<path d="M490.915 138.19C492.239 137.487 493.883 137.973 494.617 139.252C508.825 163.593 518.344 190.079 523.072 218.089C528.054 247.858 527.262 277.833 520.753 307.162C519.147 314.32 517.236 321.329 514.987 328.235C514.423 329.892 512.644 330.75 511.117 330.004C509.772 329.388 509.2 327.882 509.66 326.563C511.857 319.826 513.749 312.94 515.303 305.951C521.695 277.362 522.481 248.07 517.584 219.047C513.007 191.693 503.682 165.895 489.813 142.139C488.974 140.717 489.447 138.996 490.915 138.19C490.882 138.235 490.882 138.235 490.915 138.19Z" fill="url(#paint30_radial_5998_82)"/>
<path d="M490.915 138.19C492.239 137.487 493.883 137.973 494.617 139.252C508.825 163.593 518.344 190.079 523.072 218.089C528.054 247.858 527.262 277.833 520.753 307.162C519.147 314.32 517.236 321.329 514.987 328.235C514.423 329.892 512.644 330.75 511.117 330.004C509.772 329.388 509.2 327.882 509.66 326.563C511.857 319.826 513.749 312.94 515.303 305.951C521.695 277.362 522.481 248.07 517.584 219.047C513.007 191.693 503.682 165.895 489.813 142.139C488.974 140.717 489.447 138.996 490.915 138.19C490.882 138.235 490.882 138.235 490.915 138.19Z" fill="url(#paint31_radial_5998_82)"/>
<path d="M490.915 138.19C492.239 137.487 493.883 137.973 494.617 139.252C508.825 163.593 518.344 190.079 523.072 218.089C528.054 247.858 527.262 277.833 520.753 307.162C519.147 314.32 517.236 321.329 514.987 328.235C514.423 329.892 512.644 330.75 511.117 330.004C509.772 329.388 509.2 327.882 509.66 326.563C511.857 319.826 513.749 312.94 515.303 305.951C521.695 277.362 522.481 248.07 517.584 219.047C513.007 191.693 503.682 165.895 489.813 142.139C488.974 140.717 489.447 138.996 490.915 138.19C490.882 138.235 490.882 138.235 490.915 138.19Z" fill="url(#paint32_radial_5998_82)" fill-opacity="0.6"/>
<path d="M490.915 138.19C492.239 137.487 493.883 137.973 494.617 139.252C508.825 163.593 518.344 190.079 523.072 218.089C528.054 247.858 527.262 277.833 520.753 307.162C519.147 314.32 517.236 321.329 514.987 328.235C514.423 329.892 512.644 330.75 511.117 330.004C509.772 329.388 509.2 327.882 509.66 326.563C511.857 319.826 513.749 312.94 515.303 305.951C521.695 277.362 522.481 248.07 517.584 219.047C513.007 191.693 503.682 165.895 489.813 142.139C488.974 140.717 489.447 138.996 490.915 138.19C490.882 138.235 490.882 138.235 490.915 138.19Z" fill="url(#paint33_radial_5998_82)"/>
<path d="M490.915 138.19C492.239 137.487 493.883 137.973 494.617 139.252C508.825 163.593 518.344 190.079 523.072 218.089C528.054 247.858 527.262 277.833 520.753 307.162C519.147 314.32 517.236 321.329 514.987 328.235C514.423 329.892 512.644 330.75 511.117 330.004C509.772 329.388 509.2 327.882 509.66 326.563C511.857 319.826 513.749 312.94 515.303 305.951C521.695 277.362 522.481 248.07 517.584 219.047C513.007 191.693 503.682 165.895 489.813 142.139C488.974 140.717 489.447 138.996 490.915 138.19C490.882 138.235 490.882 138.235 490.915 138.19Z" fill="url(#paint34_radial_5998_82)"/>
</g>
<path d="M406.968 153.313L359.208 229.456C358.116 231.197 359.344 233.464 361.399 233.5L384.874 233.914C386.624 233.945 388.018 235.389 387.987 237.139L387.121 286.273L384.33 286.224L384.095 299.539L388.373 299.614C388.913 299.662 389.481 299.438 389.836 298.878L442.943 215.222C443.606 214.178 442.87 212.81 441.633 212.788L414.847 212.316C413.389 212.29 412.227 211.087 412.253 209.628L413.327 148.712C413.343 147.773 412.631 147.169 411.865 147.102L407.079 147.014L406.968 153.313Z" fill="url(#paint35_linear_5998_82)"/>
<path d="M406.968 153.313L359.208 229.456C358.116 231.197 359.344 233.464 361.399 233.5L384.874 233.914C386.624 233.945 388.018 235.389 387.987 237.139L387.121 286.273L384.33 286.224L384.095 299.539L388.373 299.614C388.913 299.662 389.481 299.438 389.836 298.878L442.943 215.222C443.606 214.178 442.87 212.81 441.633 212.788L414.847 212.316C413.389 212.29 412.227 211.087 412.253 209.628L413.327 148.712C413.343 147.773 412.631 147.169 411.865 147.102L407.079 147.014L406.968 153.313Z" fill="url(#paint36_linear_5998_82)"/>
<path d="M405.748 147.76L354.557 229.374C353.464 231.115 354.692 233.382 356.748 233.418L380.222 233.832C381.972 233.863 383.366 235.307 383.335 237.057L382.262 297.918C382.234 299.519 384.327 300.147 385.185 298.796L438.291 215.14C438.954 214.096 438.218 212.728 436.981 212.706L410.196 212.234C408.737 212.208 407.576 211.005 407.601 209.546L408.675 148.63C408.704 147.025 406.601 146.4 405.748 147.76Z" fill="url(#paint37_linear_5998_82)"/>
<path d="M405.748 147.76L354.557 229.374C353.464 231.115 354.692 233.382 356.748 233.418L380.222 233.832C381.972 233.863 383.366 235.307 383.335 237.057L382.262 297.918C382.234 299.519 384.327 300.147 385.185 298.796L438.291 215.14C438.954 214.096 438.218 212.728 436.981 212.706L410.196 212.234C408.737 212.208 407.576 211.005 407.601 209.546L408.675 148.63C408.704 147.025 406.601 146.4 405.748 147.76Z" fill="url(#paint38_linear_5998_82)" fill-opacity="0.8"/>
<path d="M405.748 147.76L354.557 229.374C353.464 231.115 354.692 233.382 356.748 233.418L380.222 233.832C381.972 233.863 383.366 235.307 383.335 237.057L382.262 297.918C382.234 299.519 384.327 300.147 385.185 298.796L438.291 215.14C438.954 214.096 438.218 212.728 436.981 212.706L410.196 212.234C408.737 212.208 407.576 211.005 407.601 209.546L408.675 148.63C408.704 147.025 406.601 146.4 405.748 147.76Z" fill="url(#paint39_radial_5998_82)"/>
<path d="M405.748 147.76L354.557 229.374C353.464 231.115 354.692 233.382 356.748 233.418L380.222 233.832C381.972 233.863 383.366 235.307 383.335 237.057L382.262 297.918C382.234 299.519 384.327 300.147 385.185 298.796L438.291 215.14C438.954 214.096 438.218 212.728 436.981 212.706L410.196 212.234C408.737 212.208 407.576 211.005 407.601 209.546L408.675 148.63C408.704 147.025 406.601 146.4 405.748 147.76Z" fill="url(#paint40_linear_5998_82)"/>
<path d="M405.748 147.76L354.557 229.374C353.464 231.115 354.692 233.382 356.748 233.418L380.222 233.832C381.972 233.863 383.366 235.307 383.335 237.057L382.262 297.918C382.234 299.519 384.327 300.147 385.185 298.796L438.291 215.14C438.954 214.096 438.218 212.728 436.981 212.706L410.196 212.234C408.737 212.208 407.576 211.005 407.601 209.546L408.675 148.63C408.704 147.025 406.601 146.4 405.748 147.76Z" fill="url(#paint41_radial_5998_82)"/>
<path d="M405.748 147.76L354.557 229.374C353.464 231.115 354.692 233.382 356.748 233.418L380.222 233.832C381.972 233.863 383.366 235.307 383.335 237.057L382.262 297.918C382.234 299.519 384.327 300.147 385.185 298.796L438.291 215.14C438.954 214.096 438.218 212.728 436.981 212.706L410.196 212.234C408.737 212.208 407.576 211.005 407.601 209.546L408.675 148.63C408.704 147.025 406.601 146.4 405.748 147.76Z" fill="url(#paint42_radial_5998_82)"/>
<path d="M405.748 147.76L354.557 229.374C353.464 231.115 354.692 233.382 356.748 233.418L380.222 233.832C381.972 233.863 383.366 235.307 383.335 237.057L382.262 297.918C382.234 299.519 384.327 300.147 385.185 298.796L438.291 215.14C438.954 214.096 438.218 212.728 436.981 212.706L410.196 212.234C408.737 212.208 407.576 211.005 407.601 209.546L408.675 148.63C408.704 147.025 406.601 146.4 405.748 147.76Z" fill="url(#paint43_linear_5998_82)"/>
<path d="M405.748 147.76L354.557 229.374C353.464 231.115 354.692 233.382 356.748 233.418L380.222 233.832C381.972 233.863 383.366 235.307 383.335 237.057L382.262 297.918C382.234 299.519 384.327 300.147 385.185 298.796L438.291 215.14C438.954 214.096 438.218 212.728 436.981 212.706L410.196 212.234C408.737 212.208 407.576 211.005 407.601 209.546L408.675 148.63C408.704 147.025 406.601 146.4 405.748 147.76Z" fill="url(#paint44_radial_5998_82)" fill-opacity="0.7"/>
<path d="M405.748 147.76L354.557 229.374C353.464 231.115 354.692 233.382 356.748 233.418L380.222 233.832C381.972 233.863 383.366 235.307 383.335 237.057L382.262 297.918C382.234 299.519 384.327 300.147 385.185 298.796L438.291 215.14C438.954 214.096 438.218 212.728 436.981 212.706L410.196 212.234C408.737 212.208 407.576 211.005 407.601 209.546L408.675 148.63C408.704 147.025 406.601 146.4 405.748 147.76Z" fill="url(#paint45_radial_5998_82)" fill-opacity="0.7"/>
<path d="M405.748 147.76L354.557 229.374C353.464 231.115 354.692 233.382 356.748 233.418L380.222 233.832C381.972 233.863 383.366 235.307 383.335 237.057L382.262 297.918C382.234 299.519 384.327 300.147 385.185 298.796L438.291 215.14C438.954 214.096 438.218 212.728 436.981 212.706L410.196 212.234C408.737 212.208 407.576 211.005 407.601 209.546L408.675 148.63C408.704 147.025 406.601 146.4 405.748 147.76Z" fill="url(#paint46_radial_5998_82)" fill-opacity="0.7"/>
<path d="M405.748 147.76L354.557 229.374C353.464 231.115 354.692 233.382 356.748 233.418L380.222 233.832C381.972 233.863 383.366 235.307 383.335 237.057L382.262 297.918C382.234 299.519 384.327 300.147 385.185 298.796L438.291 215.14C438.954 214.096 438.218 212.728 436.981 212.706L410.196 212.234C408.737 212.208 407.576 211.005 407.601 209.546L408.675 148.63C408.704 147.025 406.601 146.4 405.748 147.76Z" fill="url(#paint47_radial_5998_82)" fill-opacity="0.7"/>
<path d="M405.748 147.76L354.557 229.374C353.464 231.115 354.692 233.382 356.748 233.418L380.222 233.832C381.972 233.863 383.366 235.307 383.335 237.057L382.262 297.918C382.234 299.519 384.327 300.147 385.185 298.796L438.291 215.14C438.954 214.096 438.218 212.728 436.981 212.706L410.196 212.234C408.737 212.208 407.576 211.005 407.601 209.546L408.675 148.63C408.704 147.025 406.601 146.4 405.748 147.76Z" fill="url(#paint48_radial_5998_82)" fill-opacity="0.7"/>
<path d="M405.748 147.76L354.557 229.374C353.464 231.115 354.692 233.382 356.748 233.418L380.222 233.832C381.972 233.863 383.366 235.307 383.335 237.057L382.262 297.918C382.234 299.519 384.327 300.147 385.185 298.796L438.291 215.14C438.954 214.096 438.218 212.728 436.981 212.706L410.196 212.234C408.737 212.208 407.576 211.005 407.601 209.546L408.675 148.63C408.704 147.025 406.601 146.4 405.748 147.76Z" fill="url(#paint49_radial_5998_82)" fill-opacity="0.7"/>
<path d="M405.748 147.76L354.557 229.374C353.464 231.115 354.692 233.382 356.748 233.418L380.222 233.832C381.972 233.863 383.366 235.307 383.335 237.057L382.262 297.918C382.234 299.519 384.327 300.147 385.185 298.796L438.291 215.14C438.954 214.096 438.218 212.728 436.981 212.706L410.196 212.234C408.737 212.208 407.576 211.005 407.601 209.546L408.675 148.63C408.704 147.025 406.601 146.4 405.748 147.76Z" fill="url(#paint50_radial_5998_82)" fill-opacity="0.7"/>
<path d="M405.748 147.76L354.557 229.374C353.464 231.115 354.692 233.382 356.748 233.418L380.222 233.832C381.972 233.863 383.366 235.307 383.335 237.057L382.262 297.918C382.234 299.519 384.327 300.147 385.185 298.796L438.291 215.14C438.954 214.096 438.218 212.728 436.981 212.706L410.196 212.234C408.737 212.208 407.576 211.005 407.601 209.546L408.675 148.63C408.704 147.025 406.601 146.4 405.748 147.76Z" fill="url(#paint51_radial_5998_82)" fill-opacity="0.7"/>
<path d="M405.748 147.76L354.557 229.374C353.464 231.115 354.692 233.382 356.748 233.418L380.222 233.832C381.972 233.863 383.366 235.307 383.335 237.057L382.262 297.918C382.234 299.519 384.327 300.147 385.185 298.796L438.291 215.14C438.954 214.096 438.218 212.728 436.981 212.706L410.196 212.234C408.737 212.208 407.576 211.005 407.601 209.546L408.675 148.63C408.704 147.025 406.601 146.4 405.748 147.76Z" fill="url(#paint52_radial_5998_82)" fill-opacity="0.7"/>
<path d="M405.748 147.76L354.557 229.374C353.464 231.115 354.692 233.382 356.748 233.418L380.222 233.832C381.972 233.863 383.366 235.307 383.335 237.057L382.262 297.918C382.234 299.519 384.327 300.147 385.185 298.796L438.291 215.14C438.954 214.096 438.218 212.728 436.981 212.706L410.196 212.234C408.737 212.208 407.576 211.005 407.601 209.546L408.675 148.63C408.704 147.025 406.601 146.4 405.748 147.76Z" fill="url(#paint53_radial_5998_82)" fill-opacity="0.7"/>
<path d="M405.748 147.76L354.557 229.374C353.464 231.115 354.692 233.382 356.748 233.418L380.222 233.832C381.972 233.863 383.366 235.307 383.335 237.057L382.262 297.918C382.234 299.519 384.327 300.147 385.185 298.796L438.291 215.14C438.954 214.096 438.218 212.728 436.981 212.706L410.196 212.234C408.737 212.208 407.576 211.005 407.601 209.546L408.675 148.63C408.704 147.025 406.601 146.4 405.748 147.76Z" fill="url(#paint54_radial_5998_82)" fill-opacity="0.7"/>
<path d="M405.748 147.76L354.557 229.374C353.464 231.115 354.692 233.382 356.748 233.418L380.222 233.832C381.972 233.863 383.366 235.307 383.335 237.057L382.262 297.918C382.234 299.519 384.327 300.147 385.185 298.796L438.291 215.14C438.954 214.096 438.218 212.728 436.981 212.706L410.196 212.234C408.737 212.208 407.576 211.005 407.601 209.546L408.675 148.63C408.704 147.025 406.601 146.4 405.748 147.76Z" fill="url(#paint55_radial_5998_82)" fill-opacity="0.7"/>
<path d="M405.748 147.76L354.557 229.374C353.464 231.115 354.692 233.382 356.748 233.418L380.222 233.832C381.972 233.863 383.366 235.307 383.335 237.057L382.262 297.918C382.234 299.519 384.327 300.147 385.185 298.796L438.291 215.14C438.954 214.096 438.218 212.728 436.981 212.706L410.196 212.234C408.737 212.208 407.576 211.005 407.601 209.546L408.675 148.63C408.704 147.025 406.601 146.4 405.748 147.76Z" fill="url(#paint56_radial_5998_82)"/>
<path d="M405.748 147.76L354.557 229.374C353.464 231.115 354.692 233.382 356.748 233.418L380.222 233.832C381.972 233.863 383.366 235.307 383.335 237.057L382.262 297.918C382.234 299.519 384.327 300.147 385.185 298.796L438.291 215.14C438.954 214.096 438.218 212.728 436.981 212.706L410.196 212.234C408.737 212.208 407.576 211.005 407.601 209.546L408.675 148.63C408.704 147.025 406.601 146.4 405.748 147.76Z" fill="url(#paint57_radial_5998_82)"/>
<path d="M405.748 147.76L354.557 229.374C353.464 231.115 354.692 233.382 356.748 233.418L380.222 233.832C381.972 233.863 383.366 235.307 383.335 237.057L382.262 297.918C382.234 299.519 384.327 300.147 385.185 298.796L438.291 215.14C438.954 214.096 438.218 212.728 436.981 212.706L410.196 212.234C408.737 212.208 407.576 211.005 407.601 209.546L408.675 148.63C408.704 147.025 406.601 146.4 405.748 147.76Z" fill="url(#paint58_radial_5998_82)"/>
<path d="M405.748 147.76L354.557 229.374C353.464 231.115 354.692 233.382 356.748 233.418L380.222 233.832C381.972 233.863 383.366 235.307 383.335 237.057L382.262 297.918C382.234 299.519 384.327 300.147 385.185 298.796L438.291 215.14C438.954 214.096 438.218 212.728 436.981 212.706L410.196 212.234C408.737 212.208 407.576 211.005 407.601 209.546L408.675 148.63C408.704 147.025 406.601 146.4 405.748 147.76Z" fill="url(#paint59_radial_5998_82)"/>
<path d="M405.748 147.76L354.557 229.374C353.464 231.115 354.692 233.382 356.748 233.418L380.222 233.832C381.972 233.863 383.366 235.307 383.335 237.057L382.262 297.918C382.234 299.519 384.327 300.147 385.185 298.796L438.291 215.14C438.954 214.096 438.218 212.728 436.981 212.706L410.196 212.234C408.737 212.208 407.576 211.005 407.601 209.546L408.675 148.63C408.704 147.025 406.601 146.4 405.748 147.76Z" fill="url(#paint60_radial_5998_82)"/>
<path d="M405.748 147.76L354.557 229.374C353.464 231.115 354.692 233.382 356.748 233.418L380.222 233.832C381.972 233.863 383.366 235.307 383.335 237.057L382.262 297.918C382.234 299.519 384.327 300.147 385.185 298.796L438.291 215.14C438.954 214.096 438.218 212.728 436.981 212.706L410.196 212.234C408.737 212.208 407.576 211.005 407.601 209.546L408.675 148.63C408.704 147.025 406.601 146.4 405.748 147.76Z" fill="url(#paint61_radial_5998_82)"/>
<path d="M405.748 147.76L354.557 229.374C353.464 231.115 354.692 233.382 356.748 233.418L380.222 233.832C381.972 233.863 383.366 235.307 383.335 237.057L382.262 297.918C382.234 299.519 384.327 300.147 385.185 298.796L438.291 215.14C438.954 214.096 438.218 212.728 436.981 212.706L410.196 212.234C408.737 212.208 407.576 211.005 407.601 209.546L408.675 148.63C408.704 147.025 406.601 146.4 405.748 147.76Z" fill="url(#paint62_radial_5998_82)"/>
<path d="M405.748 147.76L354.557 229.374C353.464 231.115 354.692 233.382 356.748 233.418L380.222 233.832C381.972 233.863 383.366 235.307 383.335 237.057L382.262 297.918C382.234 299.519 384.327 300.147 385.185 298.796L438.291 215.14C438.954 214.096 438.218 212.728 436.981 212.706L410.196 212.234C408.737 212.208 407.576 211.005 407.601 209.546L408.675 148.63C408.704 147.025 406.601 146.4 405.748 147.76Z" fill="url(#paint63_radial_5998_82)"/>
<path d="M405.748 147.76L354.557 229.374C353.464 231.115 354.692 233.382 356.748 233.418L380.222 233.832C381.972 233.863 383.366 235.307 383.335 237.057L382.262 297.918C382.234 299.519 384.327 300.147 385.185 298.796L438.291 215.14C438.954 214.096 438.218 212.728 436.981 212.706L410.196 212.234C408.737 212.208 407.576 211.005 407.601 209.546L408.675 148.63C408.704 147.025 406.601 146.4 405.748 147.76Z" fill="url(#paint64_radial_5998_82)"/>
<path d="M405.748 147.76L354.557 229.374C353.464 231.115 354.692 233.382 356.748 233.418L380.222 233.832C381.972 233.863 383.366 235.307 383.335 237.057L382.262 297.918C382.234 299.519 384.327 300.147 385.185 298.796L438.291 215.14C438.954 214.096 438.218 212.728 436.981 212.706L410.196 212.234C408.737 212.208 407.576 211.005 407.601 209.546L408.675 148.63C408.704 147.025 406.601 146.4 405.748 147.76Z" fill="url(#paint65_radial_5998_82)"/>
<defs>
<linearGradient id="paint0_linear_5998_82" x1="523.229" y1="324.128" x2="496.102" y2="121.726" gradientUnits="userSpaceOnUse">
<stop stop-color="#CE9270"/>
<stop offset="1" stop-color="#D78C55"/>
</linearGradient>
<radialGradient id="paint1_radial_5998_82" cx="0" cy="0" r="1" gradientUnits="userSpaceOnUse" gradientTransform="translate(481.132 252.062) rotate(-34.0198) scale(64.12 324.542)">
<stop stop-color="#E6A180"/>
<stop offset="0.496561" stop-color="#E6A180" stop-opacity="0.652038"/>
<stop offset="1" stop-color="#E6A180" stop-opacity="0"/>
</radialGradient>
<radialGradient id="paint2_radial_5998_82" cx="0" cy="0" r="1" gradientUnits="userSpaceOnUse" gradientTransform="translate(474.12 266.075) rotate(10.647) scale(48.0734 18.4635)">
<stop stop-color="#F2C48E"/>
<stop offset="0.746586" stop-color="#F2C48E" stop-opacity="0.171201"/>
<stop offset="1" stop-color="#F2C48E" stop-opacity="0"/>
</radialGradient>
<radialGradient id="paint3_radial_5998_82" cx="0" cy="0" r="1" gradientUnits="userSpaceOnUse" gradientTransform="translate(449.089 231.932) rotate(9.8916) scale(68.4509 55.3666)">
<stop stop-color="#F2C48E"/>
<stop offset="1" stop-color="#F2C48E" stop-opacity="0"/>
</radialGradient>
<radialGradient id="paint4_radial_5998_82" cx="0" cy="0" r="1" gradientUnits="userSpaceOnUse" gradientTransform="translate(466.141 249.843) rotate(-19.2082) scale(45.5006 44.1617)">
<stop stop-color="#D07480"/>
<stop offset="0.215225" stop-color="#D07480" stop-opacity="0.855736"/>
<stop offset="0.662403" stop-color="#D07480" stop-opacity="0.219296"/>
<stop offset="0.844671" stop-color="#D07480" stop-opacity="0.161874"/>
<stop offset="1" stop-color="#D07480" stop-opacity="0"/>
</radialGradient>
<radialGradient id="paint5_radial_5998_82" cx="0" cy="0" r="1" gradientUnits="userSpaceOnUse" gradientTransform="translate(467.326 192.034) rotate(-21.6239) scale(34.0946 19.4346)">
<stop stop-color="#F2C48E"/>
<stop offset="1" stop-color="#F2C48E" stop-opacity="0"/>
</radialGradient>
<radialGradient id="paint6_radial_5998_82" cx="0" cy="0" r="1" gradientUnits="userSpaceOnUse" gradientTransform="translate(449.167 233.126) rotate(-1.12147) scale(96.5888 177.104)">
<stop offset="0.685432" stop-color="#C68A61" stop-opacity="0"/>
<stop offset="1" stop-color="#C68A61"/>
</radialGradient>
<radialGradient id="paint7_radial_5998_82" cx="0" cy="0" r="1" gradientUnits="userSpaceOnUse" gradientTransform="translate(497.153 290.267) rotate(-59.4939) scale(22.205 257.76)">
<stop stop-color="#D07480"/>
<stop offset="0.559083" stop-color="#D07480" stop-opacity="0.219296"/>
<stop offset="0.744534" stop-color="#D07480" stop-opacity="0.161874"/>
<stop offset="1" stop-color="#D07480" stop-opacity="0"/>
</radialGradient>
<radialGradient id="paint8_radial_5998_82" cx="0" cy="0" r="1" gradientUnits="userSpaceOnUse" gradientTransform="translate(480.236 270.928) rotate(-43.3625) scale(11.4735 133.186)">
<stop stop-color="#D07480"/>
<stop offset="0.557828" stop-color="#D07480" stop-opacity="0.219296"/>
<stop offset="1" stop-color="#D07480" stop-opacity="0"/>
</radialGradient>
<radialGradient id="paint9_radial_5998_82" cx="0" cy="0" r="1" gradientUnits="userSpaceOnUse" gradientTransform="translate(482.917 258.272) rotate(27.0109) scale(23.6554 5.48213)">
<stop stop-color="#F2C48E"/>
<stop offset="1" stop-color="#F2C48E" stop-opacity="0"/>
</radialGradient>
<radialGradient id="paint10_radial_5998_82" cx="0" cy="0" r="1" gradientUnits="userSpaceOnUse" gradientTransform="translate(479.761 252.536) rotate(-56.849) scale(13.6311 56.9022)">
<stop stop-color="#D07480"/>
<stop offset="0.322015" stop-color="#D07480" stop-opacity="0.259666"/>
<stop offset="0.497134" stop-color="#D07480" stop-opacity="0.04"/>
<stop offset="1" stop-color="#D07480" stop-opacity="0"/>
</radialGradient>
<radialGradient id="paint11_radial_5998_82" cx="0" cy="0" r="1" gradientUnits="userSpaceOnUse" gradientTransform="translate(489.144 258.837) rotate(-51.6377) scale(10.2405 25.1896)">
<stop stop-color="#D07480"/>
<stop offset="0.322015" stop-color="#D07480" stop-opacity="0.259666"/>
<stop offset="0.497134" stop-color="#D07480" stop-opacity="0.04"/>
<stop offset="1" stop-color="#D07480" stop-opacity="0"/>
</radialGradient>
<radialGradient id="paint12_radial_5998_82" cx="0" cy="0" r="1" gradientUnits="userSpaceOnUse" gradientTransform="translate(468.448 242.995) rotate(-23.4247) scale(15.631 70.6802)">
<stop stop-color="#D07480"/>
<stop offset="0.290201" stop-color="#D07480" stop-opacity="0.259666"/>
<stop offset="0.420966" stop-color="#D07480" stop-opacity="0.04"/>
<stop offset="1" stop-color="#D07480" stop-opacity="0"/>
</radialGradient>
<radialGradient id="paint13_radial_5998_82" cx="0" cy="0" r="1" gradientUnits="userSpaceOnUse" gradientTransform="translate(478.576 261.449) rotate(16.5777) scale(26.518 6.14555)">
<stop stop-color="#F2C48E"/>
<stop offset="0.709179" stop-color="#F2C48E" stop-opacity="0.177268"/>
<stop offset="1" stop-color="#F2C48E" stop-opacity="0"/>
</radialGradient>
<radialGradient id="paint14_radial_5998_82" cx="0" cy="0" r="1" gradientUnits="userSpaceOnUse" gradientTransform="translate(464.919 211.914) rotate(5.4809) scale(9.78929 53.7189)">
<stop stop-color="#B07749"/>
<stop offset="0.664814" stop-color="#B07749" stop-opacity="0.287718"/>
<stop offset="0.833333" stop-color="#B07749" stop-opacity="0.107298"/>
<stop offset="1" stop-color="#B07749" stop-opacity="0"/>
</radialGradient>
<radialGradient id="paint15_radial_5998_82" cx="0" cy="0" r="1" gradientUnits="userSpaceOnUse" gradientTransform="translate(464.721 228.648) rotate(-16.2891) scale(7.14563 39.2117)">
<stop stop-color="#B07749"/>
<stop offset="0.533615" stop-color="#B07749" stop-opacity="0.287718"/>
<stop offset="0.833333" stop-color="#B07749" stop-opacity="0.107298"/>
<stop offset="1" stop-color="#B07749" stop-opacity="0"/>
</radialGradient>
<radialGradient id="paint16_radial_5998_82" cx="0" cy="0" r="1" gradientUnits="userSpaceOnUse" gradientTransform="translate(478.539 189.729) rotate(70.7539) scale(16.7703 22.0066)">
<stop stop-color="#F2C48E"/>
<stop offset="0.481511" stop-color="#F2C48E" stop-opacity="0.770711"/>
<stop offset="0.732955" stop-color="#F2C48E" stop-opacity="0.150173"/>
<stop offset="0.907088" stop-color="#F2C48E" stop-opacity="0"/>
</radialGradient>
<linearGradient id="paint17_linear_5998_82" x1="515.035" y1="209.335" x2="491.536" y2="155.686" gradientUnits="userSpaceOnUse">
<stop stop-color="#9F6562"/>
<stop offset="1" stop-color="#BC755B"/>
</linearGradient>
<radialGradient id="paint18_radial_5998_82" cx="0" cy="0" r="1" gradientUnits="userSpaceOnUse" gradientTransform="translate(473.146 184.175) rotate(8.17091) scale(29.2837 11.8936)">
<stop stop-color="#934E4C"/>
<stop offset="1" stop-color="#934E4C" stop-opacity="0"/>
</radialGradient>
<linearGradient id="paint19_linear_5998_82" x1="513.905" y1="220.54" x2="507.232" y2="195.62" gradientUnits="userSpaceOnUse">
<stop stop-color="#9C6361"/>
<stop offset="1" stop-color="#9C6361" stop-opacity="0"/>
</linearGradient>
<radialGradient id="paint20_radial_5998_82" cx="0" cy="0" r="1" gradientUnits="userSpaceOnUse" gradientTransform="translate(376.229 245.252) rotate(-7.44004) scale(153.794 187.444)">
<stop stop-color="#995E44" stop-opacity="0"/>
<stop offset="0.955438" stop-color="#995E44" stop-opacity="0"/>
<stop offset="0.968729" stop-color="#995E44"/>
<stop offset="0.980177" stop-color="#995E44" stop-opacity="0.360619"/>
<stop offset="0.985975" stop-color="#995E44" stop-opacity="0.207532"/>
<stop offset="0.992365" stop-color="#995E44" stop-opacity="0.0546294"/>
<stop offset="1" stop-color="#995E44" stop-opacity="0"/>
</radialGradient>
<radialGradient id="paint21_radial_5998_82" cx="0" cy="0" r="1" gradientUnits="userSpaceOnUse" gradientTransform="translate(376.229 245.252) rotate(-7.46589) scale(148.995 186.46)">
<stop stop-color="#995E44" stop-opacity="0"/>
<stop offset="0.955438" stop-color="#995E44" stop-opacity="0"/>
<stop offset="0.968729" stop-color="#995E44"/>
<stop offset="0.980177" stop-color="#995E44" stop-opacity="0.360619"/>
<stop offset="0.985975" stop-color="#995E44" stop-opacity="0.207532"/>
<stop offset="0.992365" stop-color="#995E44" stop-opacity="0.0546294"/>
<stop offset="1" stop-color="#995E44" stop-opacity="0"/>
</radialGradient>
<linearGradient id="paint22_linear_5998_82" x1="497.719" y1="129.06" x2="488.341" y2="162.478" gradientUnits="userSpaceOnUse">
<stop stop-color="#CE8646"/>
<stop offset="0.308437" stop-color="#CE8646"/>
<stop offset="0.54386" stop-color="#CE8646" stop-opacity="0.27"/>
<stop offset="0.715824" stop-color="#CE8646" stop-opacity="0"/>
<stop offset="1" stop-color="#CE8646" stop-opacity="0"/>
</linearGradient>
<radialGradient id="paint23_radial_5998_82" cx="0" cy="0" r="1" gradientUnits="userSpaceOnUse" gradientTransform="translate(458.047 217.388) rotate(-12.0685) scale(91.4474 109.285)">
<stop stop-color="#B07749" stop-opacity="0"/>
<stop offset="0.922379" stop-color="#B07749" stop-opacity="0"/>
<stop offset="0.938682" stop-color="#B07749" stop-opacity="0.085242"/>
<stop offset="0.952942" stop-color="#B07749" stop-opacity="0.303401"/>
<stop offset="0.986331" stop-color="#B07749"/>
</radialGradient>
<radialGradient id="paint24_radial_5998_82" cx="0" cy="0" r="1" gradientUnits="userSpaceOnUse" gradientTransform="translate(475.077 142.588) rotate(-4.30573) scale(4.73832 54.2305)">
<stop stop-color="#B07749"/>
<stop offset="0.534456" stop-color="#B07749" stop-opacity="0.27444"/>
<stop offset="1" stop-color="#B07749" stop-opacity="0"/>
</radialGradient>
<radialGradient id="paint25_radial_5998_82" cx="0" cy="0" r="1" gradientUnits="userSpaceOnUse" gradientTransform="translate(475.587 114.071) rotate(68.1961) scale(15.5145 7.49669)">
<stop stop-color="#EFA86F"/>
<stop offset="1" stop-color="#E39C62" stop-opacity="0"/>
</radialGradient>
<linearGradient id="paint26_linear_5998_82" x1="498.856" y1="175.492" x2="504.811" y2="342.732" gradientUnits="userSpaceOnUse">
<stop offset="0.00558659" stop-color="#D38750"/>
<stop offset="1" stop-color="#EEA374"/>
</linearGradient>
<linearGradient id="paint27_linear_5998_82" x1="461.469" y1="52.3155" x2="521.734" y2="273.306" gradientUnits="userSpaceOnUse">
<stop stop-color="#D77D2C"/>
<stop offset="1" stop-color="#D77D2C" stop-opacity="0"/>
</linearGradient>
<radialGradient id="paint28_radial_5998_82" cx="0" cy="0" r="1" gradientUnits="userSpaceOnUse" gradientTransform="translate(410.309 242.083) rotate(-8.16638) scale(114.028 163.37)">
<stop stop-color="#FAAD7C" stop-opacity="0"/>
<stop offset="0.961329" stop-color="#FAAD7C" stop-opacity="0"/>
<stop offset="0.981307" stop-color="#FAAD7C"/>
<stop offset="0.995115" stop-color="#FAAD7C" stop-opacity="0.12"/>
<stop offset="1" stop-color="#FAAD7C" stop-opacity="0"/>
</radialGradient>
<radialGradient id="paint29_radial_5998_82" cx="0" cy="0" r="1" gradientUnits="userSpaceOnUse" gradientTransform="translate(489.97 142.445) rotate(55.4221) scale(100.418 89.6781)">
<stop stop-color="#D38750"/>
<stop offset="0.723831" stop-color="#D38750" stop-opacity="0.575789"/>
<stop offset="1" stop-color="#D38750" stop-opacity="0"/>
</radialGradient>
<radialGradient id="paint30_radial_5998_82" cx="0" cy="0" r="1" gradientUnits="userSpaceOnUse" gradientTransform="translate(458.33 235.248) rotate(-7.27352) scale(67.2065 131.967)">
<stop stop-color="#AE7145" stop-opacity="0"/>
<stop offset="0.954853" stop-color="#AE7145" stop-opacity="0"/>
<stop offset="0.965823" stop-color="#AE7145" stop-opacity="0.234332"/>
<stop offset="0.987806" stop-color="#AE7145"/>
</radialGradient>
<radialGradient id="paint31_radial_5998_82" cx="0" cy="0" r="1" gradientUnits="userSpaceOnUse" gradientTransform="translate(511.137 329.354) rotate(-79.5171) scale(3.85332 11.2018)">
<stop stop-color="#D07480"/>
<stop offset="1" stop-color="#D07480" stop-opacity="0"/>
</radialGradient>
<radialGradient id="paint32_radial_5998_82" cx="0" cy="0" r="1" gradientUnits="userSpaceOnUse" gradientTransform="translate(448.085 240.24) rotate(-5.82198) scale(73.426 135.573)">
<stop stop-color="#D86443" stop-opacity="0"/>
<stop offset="0.969001" stop-color="#D86443"/>
<stop offset="0.988258" stop-color="#D86443" stop-opacity="0.443584"/>
<stop offset="0.999307" stop-color="#D86443" stop-opacity="0"/>
<stop offset="1" stop-color="#D86443" stop-opacity="0"/>
</radialGradient>
<radialGradient id="paint33_radial_5998_82" cx="0" cy="0" r="1" gradientUnits="userSpaceOnUse" gradientTransform="translate(497.94 172.265) rotate(-20.4808) scale(8.42607 42.3464)">
<stop stop-color="#BB3CCF"/>
<stop offset="1" stop-color="#BB3CCF" stop-opacity="0"/>
</radialGradient>
<radialGradient id="paint34_radial_5998_82" cx="0" cy="0" r="1" gradientUnits="userSpaceOnUse" gradientTransform="translate(490.563 138.158) rotate(59.3892) scale(4.74253 3.52221)">
<stop stop-color="#F3A963"/>
<stop offset="1" stop-color="#F3A963" stop-opacity="0"/>
</radialGradient>
<linearGradient id="paint35_linear_5998_82" x1="416.124" y1="177.162" x2="414.545" y2="266.733" gradientUnits="userSpaceOnUse">
<stop stop-color="#FFBD61"/>
<stop offset="1" stop-color="#EB5C74"/>
</linearGradient>
<linearGradient id="paint36_linear_5998_82" x1="410.619" y1="142.712" x2="410.381" y2="156.177" gradientUnits="userSpaceOnUse">
<stop stop-color="#C76C38" stop-opacity="0.78"/>
<stop offset="0.596593" stop-color="#C76C38" stop-opacity="0.135201"/>
<stop offset="1" stop-color="#C76C38" stop-opacity="0"/>
</linearGradient>
<linearGradient id="paint37_linear_5998_82" x1="396.841" y1="194.371" x2="395.283" y2="282.748" gradientUnits="userSpaceOnUse">
<stop stop-color="#FFA547"/>
<stop offset="1" stop-color="#F14B49"/>
</linearGradient>
<linearGradient id="paint38_linear_5998_82" x1="397.679" y1="146.848" x2="396.569" y2="209.792" gradientUnits="userSpaceOnUse">
<stop stop-color="#DF9844"/>
<stop offset="1" stop-color="#DF9844" stop-opacity="0"/>
</linearGradient>
<radialGradient id="paint39_radial_5998_82" cx="0" cy="0" r="1" gradientUnits="userSpaceOnUse" gradientTransform="translate(408.686 176.791) rotate(91.01) scale(36.7312 8.01408)">
<stop stop-color="#FE9052"/>
<stop offset="1" stop-color="#FE9052" stop-opacity="0"/>
</radialGradient>
<linearGradient id="paint40_linear_5998_82" x1="385.682" y1="178.938" x2="388.839" y2="180.944" gradientUnits="userSpaceOnUse">
<stop stop-color="#C76C38"/>
<stop offset="0.729244" stop-color="#C76C38" stop-opacity="0.135201"/>
<stop offset="1" stop-color="#C76C38" stop-opacity="0"/>
</linearGradient>
<radialGradient id="paint41_radial_5998_82" cx="0" cy="0" r="1" gradientUnits="userSpaceOnUse" gradientTransform="translate(409.035 175.615) rotate(91.01) scale(49.1581 19.9641)">
<stop stop-color="#FFB54B"/>
<stop offset="0.452058" stop-color="#FFB54B" stop-opacity="0.767787"/>
<stop offset="0.666597" stop-color="#FFB54B" stop-opacity="0.425441"/>
<stop offset="0.878406" stop-color="#FFB54B" stop-opacity="0.0875269"/>
<stop offset="1" stop-color="#FFB54B" stop-opacity="0"/>
</radialGradient>
<radialGradient id="paint42_radial_5998_82" cx="0" cy="0" r="1" gradientUnits="userSpaceOnUse" gradientTransform="translate(425.301 209.229) rotate(91.01) scale(16.1173 36.4131)">
<stop stop-color="#FFB54B"/>
<stop offset="0.352008" stop-color="#FFB54B" stop-opacity="0.425441"/>
<stop offset="0.745956" stop-color="#FFB54B" stop-opacity="0.10675"/>
<stop offset="1" stop-color="#FFB54B" stop-opacity="0"/>
</radialGradient>
<linearGradient id="paint43_linear_5998_82" x1="413.679" y1="254.261" x2="411.692" y2="252.989" gradientUnits="userSpaceOnUse">
<stop stop-color="#F76E56"/>
<stop offset="0.536961" stop-color="#F76E56" stop-opacity="0.255981"/>
<stop offset="1" stop-color="#F76E56" stop-opacity="0"/>
</linearGradient>
<radialGradient id="paint44_radial_5998_82" cx="0" cy="0" r="1" gradientUnits="userSpaceOnUse" gradientTransform="translate(408.445 210.83) rotate(-178.99) scale(3.2729)">
<stop stop-color="#F76E56"/>
<stop offset="0.536961" stop-color="#F76E56" stop-opacity="0.255981"/>
<stop offset="0.736799" stop-color="#F76E56" stop-opacity="0.109481"/>
<stop offset="1" stop-color="#F76E56" stop-opacity="0"/>
</radialGradient>
<radialGradient id="paint45_radial_5998_82" cx="0" cy="0" r="1" gradientUnits="userSpaceOnUse" gradientTransform="translate(408.107 204.433) rotate(-178.99) scale(3.26591 9.57656)">
<stop stop-color="#F76E56"/>
<stop offset="0.536961" stop-color="#F76E56" stop-opacity="0.255981"/>
<stop offset="0.736799" stop-color="#F76E56" stop-opacity="0.109481"/>
<stop offset="1" stop-color="#F76E56" stop-opacity="0"/>
</radialGradient>
<radialGradient id="paint46_radial_5998_82" cx="0" cy="0" r="1" gradientUnits="userSpaceOnUse" gradientTransform="translate(408.043 208.017) rotate(-178.99) scale(2.42951 3.38539)">
<stop stop-color="#F76E56"/>
<stop offset="0.536961" stop-color="#F76E56" stop-opacity="0.255981"/>
<stop offset="0.736799" stop-color="#F76E56" stop-opacity="0.109481"/>
<stop offset="1" stop-color="#F76E56" stop-opacity="0"/>
</radialGradient>
<radialGradient id="paint47_radial_5998_82" cx="0" cy="0" r="1" gradientUnits="userSpaceOnUse" gradientTransform="translate(408.99 187.508) rotate(-178.99) scale(2.09507 16.0622)">
<stop stop-color="#F76E56"/>
<stop offset="0.536961" stop-color="#F76E56" stop-opacity="0.255981"/>
<stop offset="0.736799" stop-color="#F76E56" stop-opacity="0.109481"/>
<stop offset="1" stop-color="#F76E56" stop-opacity="0"/>
</radialGradient>
<radialGradient id="paint48_radial_5998_82" cx="0" cy="0" r="1" gradientUnits="userSpaceOnUse" gradientTransform="translate(408.694 195.938) rotate(-178.99) scale(3.30554 15.0021)">
<stop stop-color="#F76E56"/>
<stop offset="0.536961" stop-color="#F76E56" stop-opacity="0.255981"/>
<stop offset="0.736799" stop-color="#F76E56" stop-opacity="0.109481"/>
<stop offset="1" stop-color="#F76E56" stop-opacity="0"/>
</radialGradient>
<radialGradient id="paint49_radial_5998_82" cx="0" cy="0" r="1" gradientUnits="userSpaceOnUse" gradientTransform="translate(408.907 174.564) rotate(-178.99) scale(3.27962 39.4866)">
<stop stop-color="#F76E56"/>
<stop offset="0.536961" stop-color="#F76E56" stop-opacity="0.255981"/>
<stop offset="0.736799" stop-color="#F76E56" stop-opacity="0.109481"/>
<stop offset="1" stop-color="#F76E56" stop-opacity="0"/>
</radialGradient>
<radialGradient id="paint50_radial_5998_82" cx="0" cy="0" r="1" gradientUnits="userSpaceOnUse" gradientTransform="translate(411.324 212.104) rotate(91.01) scale(3.68035 6.8086)">
<stop stop-color="#F76E56"/>
<stop offset="0.536961" stop-color="#F76E56" stop-opacity="0.255981"/>
<stop offset="0.736799" stop-color="#F76E56" stop-opacity="0.109481"/>
<stop offset="1" stop-color="#F76E56" stop-opacity="0"/>
</radialGradient>
<radialGradient id="paint51_radial_5998_82" cx="0" cy="0" r="1" gradientUnits="userSpaceOnUse" gradientTransform="translate(414.453 212.188) rotate(91.01) scale(2.72403 5.03942)">
<stop stop-color="#F76E56"/>
<stop offset="0.536961" stop-color="#F76E56" stop-opacity="0.255981"/>
<stop offset="0.736799" stop-color="#F76E56" stop-opacity="0.109481"/>
<stop offset="1" stop-color="#F76E56" stop-opacity="0"/>
</radialGradient>
<radialGradient id="paint52_radial_5998_82" cx="0" cy="0" r="1" gradientUnits="userSpaceOnUse" gradientTransform="translate(421.606 211.904) rotate(91.01) scale(2.83303 5.24107)">
<stop stop-color="#F76E56"/>
<stop offset="0.536961" stop-color="#F76E56" stop-opacity="0.255981"/>
<stop offset="0.736799" stop-color="#F76E56" stop-opacity="0.109481"/>
<stop offset="1" stop-color="#F76E56" stop-opacity="0"/>
</radialGradient>
<radialGradient id="paint53_radial_5998_82" cx="0" cy="0" r="1" gradientUnits="userSpaceOnUse" gradientTransform="translate(418.02 212.343) rotate(91.01) scale(2.86973 5.30896)">
<stop stop-color="#F76E56"/>
<stop offset="0.536961" stop-color="#F76E56" stop-opacity="0.255981"/>
<stop offset="0.736799" stop-color="#F76E56" stop-opacity="0.109481"/>
<stop offset="1" stop-color="#F76E56" stop-opacity="0"/>
</radialGradient>
<radialGradient id="paint54_radial_5998_82" cx="0" cy="0" r="1" gradientUnits="userSpaceOnUse" gradientTransform="translate(427.259 212.463) rotate(91.01) scale(3.56135 17.4676)">
<stop stop-color="#F76E56"/>
<stop offset="0.536961" stop-color="#F76E56" stop-opacity="0.255981"/>
<stop offset="0.736799" stop-color="#F76E56" stop-opacity="0.109481"/>
<stop offset="1" stop-color="#F76E56" stop-opacity="0"/>
</radialGradient>
<radialGradient id="paint55_radial_5998_82" cx="0" cy="0" r="1" gradientUnits="userSpaceOnUse" gradientTransform="translate(436.057 212.509) rotate(91.01) scale(2.87046 14.0789)">
<stop stop-color="#F76E56"/>
<stop offset="0.536961" stop-color="#F76E56" stop-opacity="0.255981"/>
<stop offset="0.736799" stop-color="#F76E56" stop-opacity="0.109481"/>
<stop offset="1" stop-color="#F76E56" stop-opacity="0"/>
</radialGradient>
<radialGradient id="paint56_radial_5998_82" cx="0" cy="0" r="1" gradientUnits="userSpaceOnUse" gradientTransform="translate(357.43 234.292) rotate(-88.99) scale(4.73665 25.499)">
<stop stop-color="#C76C38"/>
<stop offset="0.729244" stop-color="#C76C38" stop-opacity="0.135201"/>
<stop offset="1" stop-color="#C76C38" stop-opacity="0"/>
</radialGradient>
<radialGradient id="paint57_radial_5998_82" cx="0" cy="0" r="1" gradientUnits="userSpaceOnUse" gradientTransform="translate(353.724 232.178) rotate(-34.6837) scale(4.60845 24.8088)">
<stop stop-color="#C76C38"/>
<stop offset="0.729244" stop-color="#C76C38" stop-opacity="0.135201"/>
<stop offset="1" stop-color="#C76C38" stop-opacity="0"/>
</radialGradient>
<radialGradient id="paint58_radial_5998_82" cx="0" cy="0" r="1" gradientUnits="userSpaceOnUse" gradientTransform="translate(374.535 234.599) rotate(-88.99) scale(4.74908 11.6632)">
<stop stop-color="#C76C38"/>
<stop offset="0.74702" stop-color="#C76C38" stop-opacity="0.135201"/>
<stop offset="1" stop-color="#C76C38" stop-opacity="0"/>
</radialGradient>
<radialGradient id="paint59_radial_5998_82" cx="0" cy="0" r="1" gradientUnits="userSpaceOnUse" gradientTransform="translate(367.367 234.271) rotate(-88.99) scale(3.96253 9.73152)">
<stop stop-color="#C76C38"/>
<stop offset="0.74702" stop-color="#C76C38" stop-opacity="0.135201"/>
<stop offset="1" stop-color="#C76C38" stop-opacity="0"/>
</radialGradient>
<radialGradient id="paint60_radial_5998_82" cx="0" cy="0" r="1" gradientUnits="userSpaceOnUse" gradientTransform="translate(359.239 234.311) rotate(-88.99) scale(4.2602 10.4625)">
<stop stop-color="#C76C38"/>
<stop offset="0.74702" stop-color="#C76C38" stop-opacity="0.135201"/>
<stop offset="1" stop-color="#C76C38" stop-opacity="0"/>
</radialGradient>
<radialGradient id="paint61_radial_5998_82" cx="0" cy="0" r="1" gradientUnits="userSpaceOnUse" gradientTransform="translate(380.525 236.251) rotate(-50.2158) scale(5.54065 5.92711)">
<stop stop-color="#C76C38"/>
<stop offset="0.74702" stop-color="#C76C38" stop-opacity="0.135201"/>
<stop offset="1" stop-color="#C76C38" stop-opacity="0"/>
</radialGradient>
<radialGradient id="paint62_radial_5998_82" cx="0" cy="0" r="1" gradientUnits="userSpaceOnUse" gradientTransform="translate(382.622 240.042) rotate(1.01002) scale(3.77401 6.81516)">
<stop stop-color="#C76C38"/>
<stop offset="0.74702" stop-color="#C76C38" stop-opacity="0.135201"/>
<stop offset="1" stop-color="#C76C38" stop-opacity="0"/>
</radialGradient>
<radialGradient id="paint63_radial_5998_82" cx="0" cy="0" r="1" gradientUnits="userSpaceOnUse" gradientTransform="translate(382.53 248.966) rotate(1.01002) scale(4.16799 19.0953)">
<stop stop-color="#C76C38"/>
<stop offset="0.74702" stop-color="#C76C38" stop-opacity="0.135201"/>
<stop offset="1" stop-color="#C76C38" stop-opacity="0"/>
</radialGradient>
<radialGradient id="paint64_radial_5998_82" cx="0" cy="0" r="1" gradientUnits="userSpaceOnUse" gradientTransform="translate(382.124 264.023) rotate(1.01002) scale(4.08013 26.7319)">
<stop stop-color="#C76C38"/>
<stop offset="0.74702" stop-color="#C76C38" stop-opacity="0.135201"/>
<stop offset="1" stop-color="#C76C38" stop-opacity="0"/>
</radialGradient>
<radialGradient id="paint65_radial_5998_82" cx="0" cy="0" r="1" gradientUnits="userSpaceOnUse" gradientTransform="translate(381.787 283.154) rotate(1.01002) scale(4.50221 29.4973)">
<stop stop-color="#C76C38"/>
<stop offset="0.74702" stop-color="#C76C38" stop-opacity="0.135201"/>
<stop offset="1" stop-color="#C76C38" stop-opacity="0"/>
</radialGradient>
<clipPath id="clip0_5998_82">
<rect width="178.789" height="178.789" fill="white" transform="matrix(-0.814117 -0.580701 -0.580701 0.814117 620.207 202)"/>
</clipPath>
</defs>
</svg>
