<svg xmlns="http://www.w3.org/2000/svg" role="img" viewBox="-4.78 48.72 508.56 403.06"><defs><clipPath id="clippath"><path d="M237.82614 148.86082c-28.37194 0-56.74714-.23313-85.1136.16083-7.26255.10089-9.18414-2.15491-9.10969-9.2457.20752-19.76237-.1133-19.76575 19.99593-19.76572 52.98376.00009 105.96907.20093 158.9497-.20727 8.33857-.06424 10.18447 2.51951 10.00696 10.31306-.42672 18.73774-.0551 18.74629-18.84288 18.74634-25.29547.00008-50.59094.00002-75.88641-.00153z" class="cls-1"/></clipPath><clipPath id="clippath-1"><path d="M236.94327 380.35815c-28.03892 0-56.08105-.23061-84.11453.1603-7.10896.09912-9.30781-1.81356-9.23547-9.07574.19813-19.88941-.14635-19.89288 19.80957-19.89285 53.00035.00006 106.00198.17927 158.99976-.19032 8.0784-.05632 10.3865 2.0896 10.17292 10.16638-.49773 18.82147-.0753 18.83267-18.69624 18.83271-25.64533.00003-51.29068 0-76.93602-.00047z" class="cls-1"/></clipPath><clipPath id="clippath-2"><path d="M137.20731 149.57963c0 23.88772-.14412 47.77697.10756 71.66204.05844 5.5465-1.25088 7.60714-7.28395 7.74962-21.7425.5134-21.73652.76867-21.73648-20.89388.00011-42.3154-.01627-84.63081.01067-126.94619.00791-12.42415 4.51962-18.60387 13.64618-18.94207 9.45327-.35031 15.18862 6.57069 15.23336 18.77879.0838 22.86363.02411 45.72777.02267 68.5917z" class="cls-1"/></clipPath><clipPath id="clippath-3"><path d="M108.29493 350.80016c0-23.22042.28613-46.44639-.16695-69.65799-.14388-7.3715 1.43919-10.02944 9.44122-9.84862 19.63011.44355 19.64021-.00214 19.64022 19.9196 0 41.66016.00418 83.32028-.00868 124.98044-.00095 3.06994.37971 6.2546-.28764 9.18785-1.87724 8.25125-6.75184 13.60259-15.81451 12.67504-8.37435-.85711-12.70652-6.18679-12.74652-14.522-.11635-24.24428-.04127-48.48947-.05714-72.73432z" class="cls-1"/></clipPath><clipPath id="clippath-4"><path d="M367.76857 350.58796c0 23.53829.08719 47.07705-.03773 70.61469-.06024 11.34386-5.21193 17.23448-14.34023 17.0414-8.79071-.18591-13.50303-5.78304-13.52072-16.7607-.07589-47.07646.13256-94.15426-.20253-141.22844-.05322-7.4751 2.48352-8.99279 9.36646-8.90602 18.73747.23617 18.74144-.07212 18.74157 18.85825.00013 20.12694.00003 40.25387-.00683 60.38081z" class="cls-1"/></clipPath><clipPath id="clippath-5"><path d="M339.83736 148.75702c0-23.25042-.07135-46.50116.03099-69.75113.04912-11.16056 4.53831-16.52516 13.54959-16.78709 9.0552-.2632 14.25088 5.17862 14.28162 16.02218.13478 47.52621-.0325 95.05345.18832 142.57902.02883 6.21044-1.79365 8.10553-8.09064 8.16822-19.96633.19882-19.96367.47231-19.96373-19.71173-.00006-20.17316 0-40.34631.00385-60.51947z" class="cls-1"/></clipPath><clipPath id="clippath-6"><path d="M252.34082 88.63529c.00003 22.83688.01151 22.66399-22.55825 21.16621-4.97039-.32984-6.4427-2.00949-6.31208-6.73805.26405-9.55948-.16867-19.1398.15598-28.69555.3397-9.99842 6.42488-16.15173 14.96902-15.85782 8.41787.28957 13.44082 5.99456 13.71361 15.77581.13329 4.77963.02306 9.56606.03173 14.34941z" class="cls-1"/></clipPath><clipPath id="clippath-7"><path d="M252.31776 412.22263c0 5.09368.09889 10.18967-.02232 15.28047-.19927 8.36847-4.55049 13.43005-12.83935 14.24011-9.05455.88485-14.66802-4.38769-15.46266-12.68067-1.0642-11.1062-.31853-22.3821-.44574-33.58404-.03979-3.50218 1.61703-4.84422 4.95429-4.81015 6.11151.06243 12.2317.18766 18.33407-.06127 4.78969-.19539 5.63724 2.39107 5.52799 6.33537-.14096 5.08983-.03436 10.18648-.04627 15.28018z" class="cls-1"/></clipPath><clipPath id="clippath-8"><path d="M400.14242 148.86237l-1.0196.00002c-22.46757-.00003-22.34162.01033-20.44834-22.97736.35243-4.279 1.5538-6.02942 5.97637-5.93286 10.1913.22249 20.40817-.27919 30.58106.21086 9.04666.43578 15.26547 7.06279 15.02158 14.84271-.24752 7.89603-6.59022 13.5105-15.83756 13.81835-4.75286.15821-9.51536.02777-14.27352.03829z" class="cls-1"/></clipPath><clipPath id="clippath-9"><path d="M399.76632 380.35862c-22.33974 0-22.09961.01024-21.14876-22.30721.24373-5.72058 2.46946-6.71075 7.35882-6.57475 9.51615.26471 19.04857-.08412 28.56713.13253 9.11729.20745 15.56458 6.15172 15.69414 13.99009.12974 7.84882-6.22517 14.17853-15.16892 14.70215-5.08441.29771-10.20057.05382-15.30241.0572z" class="cls-1"/></clipPath><clipPath id="clippath-10"><path d="M76.34801 380.32046c-5.44401 0-10.95775.55117-16.31599-.1268-8.43023-1.06659-14.00102-5.94722-13.55744-14.89829.43129-8.70315 5.61339-13.54395 14.57701-13.70065 5.44254-.09518 10.88779-.04274 16.33182-.04352 21.73684-.00322 22.56022 1.1093 19.86441 23.63225-.46707 3.90232-1.7619 5.35172-5.59009 5.20648-5.0965-.19339-10.20586-.04774-15.30971-.06947z" class="cls-1"/></clipPath><clipPath id="clippath-11"><path d="M75.59233 148.80547c-5.09723 0-10.20069.16042-15.29027-.03704-7.92057-.30732-12.76787-4.62544-13.73128-12.3762-1.04196-8.3827 3.33904-14.63395 11.2978-15.50706 11.74846-1.28887 23.71116-.63325 35.58291-.78324 2.57908-.03259 3.57431 1.59432 3.59567 3.88186.06344 6.79505-.01547 13.59166.07504 20.38614.04943 3.71113-2.09608 4.51135-5.21841 4.47489-5.43647-.06352-10.87421-.01769-16.31146-.03935z" class="cls-1"/></clipPath><style>.cls-1{fill:none}.cls-3{fill:#00b7cd}.cls-4{fill:#006bcf}</style></defs><g opacity=".61"><g clip-path="url(#clippath)"><path d="M143.49 119.739h.111v29.384h-.111zm.111 0h188.966v29.384H143.601zm188.966 0h.166v29.384h-.166z" class="cls-3"/></g><g clip-path="url(#clippath-1)"><path d="M143.447 351.303h.145v29.314h-.145zm.145 0h188.997v29.314H143.592z" class="cls-3"/><path d="M332.589 351.303h.2v29.314h-.2z" class="cls-3"/></g><g clip-path="url(#clippath-2)"><path d="M108.278 61.859h.011V229.76h-.011zm.012 0h29.027V229.76H108.29zm29.027 0h.057V229.76h-.057z" class="cls-3"/></g><g clip-path="url(#clippath-3)"><path d="M107.984 271.113h.135v167.871h-.135zm.135 0h29.189v167.871h-29.189zm29.189 0h.272v167.871h-.272z" class="cls-3"/></g><g clip-path="url(#clippath-4)"><path d="M339.614 271.262h.052v167.175h-.052zm.053 0h28.132v167.175h-28.132z" class="cls-3"/><path d="M367.798 271.262h.058v167.175h-.058z" class="cls-3"/></g><g clip-path="url(#clippath-5)"><path d="M339.766 61.956h.047v167.505h-.047z" class="cls-3"/><path d="M339.813 61.956h28.075v167.505h-28.075zm28.075 0h.029v167.505h-.029z" class="cls-3"/></g><g clip-path="url(#clippath-6)"><path d="M223.302 58.216h.161v53.256h-.161zm.161 0h28.913v53.256h-28.913z" class="cls-3"/><path d="M252.375 58.216h.067v53.256h-.067z" class="cls-3"/></g><g clip-path="url(#clippath-7)"><path d="M222.929 390.412h.482v52.216h-.482zm.482 0h28.962v52.216h-28.962zm28.962 0h.1v52.216h-.1z" class="cls-3"/></g><g clip-path="url(#clippath-8)"><path d="M376.655 119.673h1.247v29.309h-1.247zm1.247 0h52.358v29.309h-52.358zm52.358 0h.237v29.309h-.237z" class="cls-3"/></g><g clip-path="url(#clippath-9)"><path d="M377.427 351.341h.874v29.258h-.874z" class="cls-3"/><path d="M378.301 351.341h51.939v29.258h-51.939zm51.939 0h.128v29.258h-.128z" class="cls-3"/></g><g clip-path="url(#clippath-10)"><path d="M46.031 351.5h.419v29.372h-.419zm.419 0h51.89v29.372H46.45zm51.89 0h1.603v29.372H98.34z" class="cls-3"/></g><g clip-path="url(#clippath-11)"><path d="M45.529 119.596h.89v29.37h-.89z" class="cls-3"/><path d="M46.419 119.596h50.704v29.37H46.419zm50.704 0h.049v29.37h-.049z" class="cls-3"/></g></g><path d="M5.25628 153.91084c7.28147-3.88614 10.4705 2.67236 14.29397 6.16115 17.34023 15.82237 35.53487 30.00738 57.53761 39.21528 41.83896 17.50921 83.50306 11.93137 125.2374.49033 38.29992-10.49953 75.12502-25.86372 113.96944-34.62908 34.20479-7.71845 68.13668-9.35941 101.61971 3.42692 2.29269.87552 4.79004 1.36264 6.89409 2.55604 5.55771 3.15229 8.97455 8.07349 6.16249 14.24785-2.75569 6.05058-8.458 3.60149-12.96602 1.99726-15.97063-5.68339-32.32071-8.76101-49.31278-9.08824-31.23592-.60154-60.85958 7.26427-90.29693 16.36523-35.57513 10.9986-70.35905 24.48323-107.12371 31.68925-62.86131 12.32105-114.71614-6.90371-157.62036-53.09079-3.28297-3.53417-5.61883-7.94812-8.39492-11.95313v-7.38809zm361.78662 78.44929c-31.98631-.13879-62.42323 7.9955-92.59118 17.5466-38.24408 12.10799-75.72579 26.96986-115.88674 32.15933-27.72997 3.58317-54.80242 1.07794-81.00194-9.03311-6.71699-2.59226-12.16559-7.25476-9.56752-14.75968 2.68727-7.76255 9.32077-4.26179 14.66402-2.36159 41.94032 14.91488 83.29152 8.45981 124.4713-3.44733 37.76539-10.91985 74.32578-25.71345 112.82102-34.35326 63.83673-14.32733 118.47935 1.13222 163.53964 49.01533 1.12478 1.19524 2.44402 2.2377 3.41311 3.5439 4.12863 5.5648 10.64807 13.11255 5.34386 18.19158-5.03989 4.82594-10.27861-4.08683-14.2779-7.91222-31.11011-29.75717-66.98147-48.23563-110.92768-48.58955z" class="cls-4"/><path d="M138.4657 341.65097c-41.11017-.2402-73.50583-12.31468-101.81034-35.47155-2.80964-2.29869-5.36821-5.08465-7.4314-8.06768-2.35224-3.40088-4.43795-7.94388-1.27906-11.31472 3.65472-3.89993 7.63222-.41512 10.73853 2.0372 47.07861 37.16685 99.52479 39.80323 155.08881 24.96197 40.78803-10.89458 79.85037-27.36398 121.03744-36.87717 43.23568-9.98635 85.41462-9.85943 125.12443 13.31673 2.471 1.44214 5.22545 2.66941 7.19208 4.64844 4.06182 4.0875 8.80007 9.00968 4.63713 14.90417-3.99027 5.65008-8.98605.9854-13.00213-1.25694-43.93262-24.52898-89.70632-21.75441-136.14528-9.40275-41.1684 10.94979-80.51102 27.9308-122.26112 36.98513-15.28457 3.31477-30.75036 4.87587-41.8891 5.53716zm18.11368-168.74131c-8.03464.09571-11.36754-5.35445-7.74609-12.26852 2.25701-4.3091 5.94527-6.56291 10.70358-7.36601 43.85235-7.40136 84.75674-24.92266 127.23095-37.05554 10.62154-3.03408 21.39385-5.55615 32.14374-8.1168 3.94116-.9388 8.3662-2.16032 10.78527 2.76362 2.34241 4.76797.25369 8.86845-2.99698 12.23608-1.62599 1.6845-3.97847 3.19955-6.23479 3.66541-47.86365 9.88209-92.66442 30.07497-140.05517 41.49644-7.95518 1.91723-16.07504 3.15119-23.8305 4.64532zm-28.19302 269.57955c-43.68241.48821-78.94809-15.60717-109.43351-43.5379-.60424-.55363-1.24616-1.08036-1.77234-1.70265-4.47793-5.29568-11.38816-12.17681-6.00331-17.85004 5.20902-5.48801 10.50759 3.04087 14.80329 6.67903 44.88615 38.01551 96.2092 43.91988 151.49043 31.01842 5.04838-1.17825 12.13388-5.95307 14.46988 2.42456 2.17699 7.80738-3.14107 13.38471-10.65944 15.42146-17.84914 4.83532-36.02435 7.75023-52.895 7.54712z" class="cls-4"/></svg>