<?xml version="1.0" encoding="UTF-8"?>
<svg id="Layer_1" xmlns="http://www.w3.org/2000/svg" xmlns:xlink="http://www.w3.org/1999/xlink" version="1.1" viewBox="0 0 800 800">
  <!-- Generator: Adobe Illustrator 29.5.0, SVG Export Plug-In . SVG Version: 2.1.0 Build 137)  -->
  <defs>
    <style>
      .st0 {
        mask: url(#mask);
      }

      .st1 {
        stroke: #fff;
      }

      .st1, .st2, .st3, .st4, .st5, .st6, .st7, .st8 {
        stroke-width: 31.5px;
      }

      .st1, .st2, .st3, .st4, .st5, .st6, .st7, .st8, .st9 {
        fill: none;
      }

      .st1, .st2, .st3, .st9 {
        stroke-miterlimit: 10;
      }

      .st2 {
        stroke: url(#linear-gradient3);
      }

      .st2, .st3 {
        stroke-linecap: round;
      }

      .st3 {
        stroke: url(#linear-gradient6);
      }

      .st4 {
        stroke: url(#linear-gradient5);
      }

      .st4, .st5, .st6, .st7, .st8 {
        stroke-linejoin: round;
      }

      .st5 {
        stroke: url(#linear-gradient4);
      }

      .st6 {
        stroke: url(#linear-gradient1);
      }

      .st7 {
        stroke: url(#linear-gradient2);
      }

      .st8 {
        stroke: url(#linear-gradient);
      }

      .st9 {
        stroke: #000;
        stroke-width: 15.8px;
      }
    </style>
    <linearGradient id="linear-gradient" x1="159.4" y1="577" x2="655.5" y2="577" gradientTransform="translate(0 802) scale(1 -1)" gradientUnits="userSpaceOnUse">
      <stop offset="0" stop-color="#fff" stop-opacity="0"/>
      <stop offset="1" stop-color="#fff"/>
    </linearGradient>
    <linearGradient id="linear-gradient1" x1="115.6" y1="314.5" x2="476.6" y2="314.5" gradientTransform="translate(0 802) scale(1 -1)" gradientUnits="userSpaceOnUse">
      <stop offset="0" stop-color="#fff" stop-opacity="0"/>
      <stop offset="1" stop-color="#fff"/>
    </linearGradient>
    <linearGradient id="linear-gradient2" x1="93.8" y1="402" x2="651.6" y2="402" gradientTransform="translate(0 802) scale(1 -1)" gradientUnits="userSpaceOnUse">
      <stop offset="0" stop-color="#fff" stop-opacity="0"/>
      <stop offset="1" stop-color="#fff"/>
    </linearGradient>
    <linearGradient id="linear-gradient3" x1="564" y1="58.2" x2="564" y2="649.8" gradientTransform="translate(0 802) scale(1 -1)" gradientUnits="userSpaceOnUse">
      <stop offset="0" stop-color="#6f6f6f"/>
      <stop offset=".3" stop-color="#494949"/>
      <stop offset=".5" stop-color="#212121"/>
      <stop offset=".7" stop-color="#090909"/>
      <stop offset=".8" stop-color="#000"/>
    </linearGradient>
    <linearGradient id="linear-gradient4" x1="115.6" y1="489.5" x2="476.6" y2="489.5" gradientTransform="translate(0 802) scale(1 -1)" gradientUnits="userSpaceOnUse">
      <stop offset="0" stop-color="#fff" stop-opacity="0"/>
      <stop offset="1" stop-color="#fff"/>
    </linearGradient>
    <linearGradient id="linear-gradient5" x1="159.5" y1="227" x2="655.5" y2="227" gradientTransform="translate(0 802) scale(1 -1)" gradientUnits="userSpaceOnUse">
      <stop offset="0" stop-color="#fff" stop-opacity="0"/>
      <stop offset="1" stop-color="#fff"/>
    </linearGradient>
    <linearGradient id="linear-gradient6" x1="478.9" y1="101.3" x2="157" y2="658.8" gradientTransform="translate(0 802) scale(1 -1)" gradientUnits="userSpaceOnUse">
      <stop offset="0" stop-color="#6f6f6f"/>
      <stop offset=".7" stop-color="#fff"/>
    </linearGradient>
    <mask id="mask" x="50" y="50" width="700" height="700" maskUnits="userSpaceOnUse">
      <g id="hexagon">
        <g>
          <g>
            <line class="st8" x1="159.4" y1="225" x2="655.5" y2="225"/>
            <line class="st6" x1="115.6" y1="487.5" x2="476.6" y2="487.5"/>
            <line class="st7" x1="93.8" y1="400" x2="651.6" y2="400"/>
            <path class="st2" d="M400,728.1c181.2,0,328.1-146.9,328.1-328.1s-36.7-172.6-96.1-232"/>
            <line class="st5" x1="115.6" y1="312.5" x2="476.6" y2="312.5"/>
            <path class="st1" d="M677.6,225c-58.1-92-160.7-153.1-277.6-153.1"/>
            <line class="st4" x1="159.5" y1="575" x2="655.5" y2="575"/>
            <path class="st3" d="M400,71.9c-181.2,0-328.1,146.9-328.1,328.1s146.9,328.1,328.1,328.1"/>
          </g>
          <g>
            <path d="M699.2,575c0,12.1-9.8,21.9-21.9,21.9s-21.9-9.8-21.9-21.9,9.8-21.9,21.9-21.9,21.9,9.8,21.9,21.9Z"/>
            <path d="M699.2,225c0,12.1-9.8,21.9-21.9,21.9s-21.9-9.8-21.9-21.9,9.8-21.9,21.9-21.9,21.9,9.8,21.9,21.9Z"/>
          </g>
        </g>
      </g>
    </mask>
  </defs>
  <g class="st0">
    <polygon id="hexagon1" data-name="hexagon" points="50 50 50 750 750 750 750 50 50 50"/>
  </g>
  <path class="st9" d="M520.3,487.5c0,12.1-9.8,21.9-21.9,21.9s-21.9-9.8-21.9-21.9,9.8-21.9,21.9-21.9,21.9,9.8,21.9,21.9ZM673.4,378.1c-12.1,0-21.9,9.8-21.9,21.9s9.8,21.9,21.9,21.9,21.9-9.8,21.9-21.9-9.8-21.9-21.9-21.9ZM498.4,290.6c-12.1,0-21.9,9.8-21.9,21.9s9.8,21.9,21.9,21.9,21.9-9.8,21.9-21.9-9.8-21.9-21.9-21.9ZM677.4,203.1c-12.1,0-21.9,9.8-21.9,21.9s9.8,21.9,21.9,21.9,21.9-9.8,21.9-21.9-9.9-21.9-21.9-21.9ZM677.4,553.1c-12.1,0-21.9,9.8-21.9,21.9s9.8,21.9,21.9,21.9,21.9-9.8,21.9-21.9-9.9-21.9-21.9-21.9Z"/>
</svg>