<svg xmlns="http://www.w3.org/2000/svg" role="img" viewBox="-0.72 0.28 362.44 361.44"><defs><style>.cls-2{fill:#fff}</style></defs><path fill="none" d="M53.766 297.896a6.206 6.206 0 00-6.107-5.435q-7.02.004-14.04 0v.084c-4.647 0-9.293-.016-13.94.005a6.427 6.427 0 00-6.645 6.818c.253 4.313.16 8.646.227 12.97.074 4.785.114 9.57.256 14.354a6.092 6.092 0 005.547 6.227 24.396 24.396 0 003.382.043c4.753.002 9.507.028 14.26-.007 3.898-.03 7.798.122 11.697-.134a6.34 6.34 0 005.89-6.326c-.197-6.91-.193-13.825-.316-20.736a72.173 72.173 0 00-.211-7.863zm73.352-128.221a16.488 16.488 0 005.159 8.364c7.672 7.39 17.084 10.222 27.492 10.32a7.783 7.783 0 007.684-4.804 20.44 20.44 0 002.117-9.101 30.923 30.923 0 00-1.517-9.17 30.151 30.151 0 00-15.735-19.332 10.905 10.905 0 00-5.62-1.27 15.9 15.9 0 00-8.145 3.028 28.56 28.56 0 00-11.151 15.574 12.394 12.394 0 00-.284 6.391zm13.945 3.21a13.12 13.12 0 0115.048-11.54 2.885 2.885 0 012.356 2.05 2.446 2.446 0 01-.944 2.727c-.212.189-.41.394-.605.6-1.58 1.657-1.74 3.498-.454 5.162 1.51 1.954 3.35 2.383 5.411 1.25.371-.204.714-.459 1.07-.688 1.788-1.15 3.416-.488 3.73 1.652a10.482 10.482 0 01-2.4 8.526 11.528 11.528 0 01-9.544 4.502c-2.314-.18-4.543-.11-6.637-1.133a13.241 13.241 0 01-7.03-13.108zm-43.57 137.06c-1.319-2.6-3.657-3.293-6.307-3.306-5.923-.027-11.847-.012-17.77-.006-1.24.001-1.393.165-1.394 1.431q-.006 6.012-.001 12.024c0 4.114.015 8.228-.013 12.343-.006.874.313 1.186 1.187 1.183 6.49-.023 12.98.006 19.47-.02a5.446 5.446 0 005.387-5.348c.03-5.353.006-10.706.01-16.06a4.88 4.88 0 00-.57-2.241zM191.86 188.15a22.932 22.932 0 004.158.055 53.25 53.25 0 005.799-.366 36.527 36.527 0 0021.228-11.286 13.223 13.223 0 003.376-13.047 27.287 27.287 0 00-13.257-17.028 11.617 11.617 0 00-6.606-1.6 17.061 17.061 0 00-10.857 4.737 37.198 37.198 0 00-10.613 18.03 22.742 22.742 0 001.55 16.288 6.929 6.929 0 005.222 4.216zm-1.415-23.197a12.909 12.909 0 0111.326-3.557 2.593 2.593 0 011.666 4.394c-.379.467-.828.877-1.216 1.337a3.51 3.51 0 00-.24 4.503 3.995 3.995 0 004.42 1.974 12.754 12.754 0 002.411-1.082c2.304-1.134 4.052-.047 4.08 2.518.064 6.047-5.638 11.905-11.697 12.013-.531.01-1.064.002-1.801.002-3.333-.064-6.625-.799-9.15-3.526a12.861 12.861 0 01-3.117-7.419c-.517-4.17.048-8.14 3.318-11.157zm98.69 150.775a9.101 9.101 0 00-1.994-.268q-15.527-.069-31.054-.097c-1.24-.003-1.393.16-1.394 1.432q-.008 7.498 0 14.996c0 1.388.119 1.506 1.525 1.507q7.659.007 15.317.002c3.971 0 7.942.036 11.913-.014a23.871 23.871 0 006.335-.505 3.59 3.59 0 003.01-3.815c.037-2.87.039-5.741.038-8.612 0-2.752-.992-3.999-3.696-4.626zM203.394 89.229c.237.785.474 1.57.689 2.362.927 3.41 1.735 7.463.706 11.678l-.274 1.12a39.395 39.395 0 003.166 8.487c1.26 2.354 2.032 2.473 4.037.767a52.882 52.882 0 008.95-10.49 144.684 144.684 0 0016.183-30.827 117.629 117.629 0 007.084-28.424 28.727 28.727 0 00-2.583-16.567 16.666 16.666 0 00-16.79-8.876 13.242 13.242 0 00-7.34 3.828c-3.646 3.342-5.825 7.635-7.738 12.092a84.467 84.467 0 00-5.775 21.954c-.61 4.422-1.127 8.853-1.323 13.322-.131 2.97-.496 5.942-.35 8.911.114 2.333.073 4.673.328 7.002a8.615 8.615 0 01.093 1.81l.355-.008zM150.59 99.82l-.166-1.617a44.98 44.98 0 01-.195-2.078 40.892 40.892 0 011.58-13.306l.45-1.667.26.26.004-.027a31.023 31.023 0 00-.004-6.47c-.19-1.832-.104-3.677-.222-5.519a160.13 160.13 0 00-2.338-18.978 74.067 74.067 0 00-6.62-20.03 26.925 26.925 0 00-7.54-9.492 12.327 12.327 0 00-9.945-2.372c-6.615 1.1-11.221 4.739-13.551 11.165a28.43 28.43 0 00-1.816 10.942 76.7 76.7 0 001.839 13.039 129.922 129.922 0 008.453 25.84 140.956 140.956 0 0016.298 27.851 40.108 40.108 0 006.27 6.632c1.499 1.243 2.332 1.146 3.31-.545a38.312 38.312 0 003.898-10.761c.138-.602.248-1.21.376-1.816q-.131-.511-.246-1.03zm105.095 209.163c5.144-.022 10.288-.011 15.433-.011v-.067c5.038 0 10.075.008 15.113-.003 3.555-.007 5.243-1.694 5.369-5.234.072-2.022.038-4.04-.016-6.06a4.13 4.13 0 00-2.706-3.96 8.313 8.313 0 00-3.207-.672c-9.899-.02-19.797-.017-29.696-.053-.993-.004-1.302.39-1.295 1.326q.052 6.865.032 13.73c-.002.728.222 1.007.973 1.004z"/><path d="M186.702 269.708a31.684 31.684 0 0017.861-11.672l.28-.35a79.085 79.085 0 01-4.831 3.12 38.823 38.823 0 01-28.982 4.87 75.337 75.337 0 01-19.846-7.87 42.547 42.547 0 0016.785 10.756 32.118 32.118 0 0018.733 1.146zM130.06 117.933c.852 1.503.727 2.063-.43 3.165a46.589 46.589 0 00-12.881 21.037c-1.81 6.224-1.514 12.54-.952 18.882q.755 8.525 1.418 17.057c.287 3.709.333 7.442.765 11.132.811 6.939 1.289 13.9 1.766 20.864a78.863 78.863 0 001.851 14.42c1.631 6.324 4.173 12.323 6.617 18.354.91 2.248 1.879 4.482 2.885 6.834l.257-.315a4 4 0 00.649-2.055c.037-.267.075-.533.123-.793a52.732 52.732 0 018.277-19.77 79.655 79.655 0 0112.007-14.045 44.854 44.854 0 0112.423-8.47 27.392 27.392 0 0114.015-2.188 39.142 39.142 0 0116.257 5.658 66.449 66.449 0 0117.527 15.044 63.474 63.474 0 0110.167 16.62c.027.07.052.145.076.222l.073.004a99.098 99.098 0 006.42-20.41c1.23-6.867 2.268-13.77 3.396-20.656 1.111-6.78 2.258-13.554 3.21-20.36q1.577-11.266 2.924-22.56a51.448 51.448 0 00-.128-15.983c-1.603-8.33-5.242-15.443-12.075-20.717-1.405-1.085-1.514-1.797-.579-3.373a224.698 224.698 0 0012.535-24.818c5.824-13.327 10.948-26.892 12.758-41.455a59.375 59.375 0 00-.305-18.952 28.121 28.121 0 00-22.309-22.51c-6.524-1.172-12.318.41-17.014 5.28a39.457 39.457 0 00-8.15 12.967c-5.636 14.118-8.173 28.92-9.577 43.962-.53 5.664-.978 11.337-1.456 17.006l.045-.017.291.203.044-.019c.115-.047.23-.092.344-.126a12.75 12.75 0 013.338-.582l1.44-.04-.465 1.363a8.929 8.929 0 01-.873 1.787 11.69 11.69 0 00-1.409 3.582 8.046 8.046 0 00.082 4.123 1.186 1.186 0 00.114.273c.025-.016.133-.03.324-.097a2.604 2.604 0 00.843-.528 6.616 6.616 0 001.963-3.187 27.993 27.993 0 00.829-8.037l.046-6.543 1.906 5.766c.16.485.364.99.571 1.508l.064.162c-.046-2.157-.226-4.31-.32-6.465-.095-2.16.03-4.315.112-6.474.402-10.444 1.489-20.798 4.331-30.886 1.841-6.535 4.289-12.851 8.516-18.271 2.3-2.949 5.137-5.367 8.926-6.15 4.938-1.022 9.417.383 13.375 3.294 3.713 2.73 5.533 6.735 6.595 11.093a35.267 35.267 0 01.282 13.578 123.236 123.236 0 01-8.37 30.034 141.244 141.244 0 01-17.3 30.638 44.518 44.518 0 01-6.633 7.161c-1.744 1.485-2.762 1.363-3.89-.618a36.592 36.592 0 01-3.522-9.256l-.169-.072a6.1 6.1 0 00-.206.487 5.386 5.386 0 01-.488 1.015.647.647 0 00.02.825c2.006 3.384 1.988 6.98 1.705 10.053a38.169 38.169 0 01-1.68 7.58l1.958 5.271-3.729-4.462a1.155 1.155 0 01-.258-.882 26.221 26.221 0 00-1.169-6.046 8.842 8.842 0 00-1.372-2.606 29.054 29.054 0 01-1.292 9.035 73.979 73.979 0 01-2.773 7.652l-.465 1.15-.863-.304c-.12.256-.24.511-.362.767.033-.284.077-.568.12-.853l-.78-.274c.827-2.716.557-5.722-.846-9.46a27.24 27.24 0 00-6.696-9.857 23.775 23.775 0 01-.047 5.752 31.126 31.126 0 01-5.702 13.194 2.021 2.021 0 01-.973.86l-1.628.641.274-1.729a8.464 8.464 0 00.16-2.064 40.76 40.76 0 00-3.54-12.546 1.043 1.043 0 00-.058-.116 1.23 1.23 0 00-.193.09 4.327 4.327 0 00-1.597 1.675 13.65 13.65 0 00-1.524 4.18 60.647 60.647 0 00-1.079 8.185c-.153 2.089-.152 4.114-.13 5.82l.012.916-.21.022.002.007-.588.059-.018 1.845c-.224-.592-.422-1.187-.625-1.781l-1.043.103-.251-.771a55.761 55.761 0 01-2.774-16.766 18.639 18.639 0 00-1.053 7.307l.09 1.718.364 3.866-.188-.46.027.516-2.678-6.282a90.487 90.487 0 01-1.02-2.419 40.228 40.228 0 01-2.587-9.628 10.408 10.408 0 01.154-4.207.73.73 0 00.038-.217c-.006 0-.042-.04-.131-.097a8.138 8.138 0 01-2.827-3.228 32.606 32.606 0 01-2.426-6.242 39.457 39.457 0 01-4.177 12.09c-1.114 1.984-2.12 2.058-3.88.53-4.63-4.017-8.147-8.935-11.427-14.046a144.065 144.065 0 01-16.219-33.917 113.911 113.911 0 01-4.609-19.78 47.256 47.256 0 01-.567-7.393 26.633 26.633 0 013.412-12.78c2.54-4.424 6.569-6.841 11.463-7.862 6.819-1.422 11.678 1.794 15.474 6.972 4.008 5.467 6.313 11.762 8.12 18.234a107.82 107.82 0 013.03 16.436c.568 4.815.923 9.637 1.11 14.483.083 2.175.053 4.34.009 6.506.272-.734.548-1.466.842-2.229l2.862-7.493-.474 6.731a46.554 46.554 0 00.187 7.236 36.526 36.526 0 00.792 5.194 67.806 67.806 0 013.226-9.832l.821-4.263.243.894c-.537-7.319-1.171-14.627-2.413-21.87-1.4-8.169-2.883-16.32-5.542-24.2a52.334 52.334 0 00-8.9-16.8 18.37 18.37 0 00-20.457-6.06c-6.547 2.055-12.122 5.487-15.895 11.392-4.175 6.536-5.467 13.86-5.394 21.435a88.162 88.162 0 002.893 19.936c2.633 10.844 6.73 21.159 11.304 31.302 3.947 8.751 8.414 17.234 13.142 25.585zm55.029 49.713a37.198 37.198 0 0110.612-18.03 17.061 17.061 0 0110.857-4.738 11.617 11.617 0 016.606 1.6 27.287 27.287 0 0113.257 17.028 13.223 13.223 0 01-3.376 13.047 36.527 36.527 0 01-21.228 11.286 53.25 53.25 0 01-5.799.366 22.932 22.932 0 01-4.158-.055 6.929 6.929 0 01-5.222-4.217 22.742 22.742 0 01-1.55-16.287zm-46.536-19.936a15.9 15.9 0 018.145-3.028 10.905 10.905 0 015.62 1.27 30.151 30.151 0 0115.735 19.331 30.923 30.923 0 011.517 9.171 20.44 20.44 0 01-2.117 9.1 7.783 7.783 0 01-7.684 4.805c-10.408-.098-19.82-2.93-27.492-10.32a16.488 16.488 0 01-5.159-8.364 12.394 12.394 0 01.284-6.39 28.56 28.56 0 0111.15-15.575z" class="cls-2"/><path d="M222.546 240.57c1.486 5.273 1.762 10.529-.31 15.726a30.893 30.893 0 01-9.234 12.155 40.613 40.613 0 01-23.882 9.46 97.564 97.564 0 01-11.57.265c-8.984-.426-17.974-.936-26.629-3.736a28.878 28.878 0 01-12.725-7.592 22.269 22.269 0 01-5.692-13.224 15.434 15.434 0 00-.375-3.627l-.36 1.252c-.226-.533-.448-1.052-.67-1.571l-.1.122.188.531a6.718 6.718 0 01.254 2.076c.011.443.022.886.07 1.324a23.14 23.14 0 005.952 13.796c3.264 3.52 7.443 6.019 13.151 7.865 8.415 2.721 16.801 3.304 26.888 3.784 1.124.053 2.246.075 3.349.075 3.064 0 5.978-.173 8.34-.343a41.787 41.787 0 0024.454-9.691 31.74 31.74 0 009.52-12.551c1.954-4.901 2.066-10.256.344-16.368l-.195-.688-.364-.02c-.135.326-.267.654-.404.98z" class="cls-2"/><path d="M167.637 269.506a33.338 33.338 0 0019.3 1.173 32.899 32.899 0 0018.41-12.02 17.05 17.05 0 002.949-4.518 1.17 1.17 0 00-.794.377 86.595 86.595 0 01-8 5.429 37.645 37.645 0 01-28.256 4.752 75.688 75.688 0 01-20.123-8.066c-1.254-.69-2.5-1.393-3.811-2.125a.961.961 0 00.34.766 43.367 43.367 0 0019.985 14.232zm3.393-3.83a38.823 38.823 0 0028.982-4.87 79.085 79.085 0 004.83-3.12l-.279.35a31.684 31.684 0 01-17.861 11.672 32.118 32.118 0 01-18.733-1.146 42.547 42.547 0 01-16.785-10.755 75.337 75.337 0 0019.846 7.869zm51.77-26.312a63.474 63.474 0 00-10.166-16.62 66.449 66.449 0 00-17.527-15.044 39.142 39.142 0 00-16.257-5.658 27.392 27.392 0 00-14.015 2.188 44.854 44.854 0 00-12.423 8.47 79.655 79.655 0 00-12.007 14.044 52.732 52.732 0 00-8.277 19.77c-.048.261-.086.527-.123.794a4 4 0 01-.649 2.055l-.257.315c.222.52.444 1.038.67 1.571l.36-1.252a86.555 86.555 0 012.58-10.353 59.725 59.725 0 019.648-17.126c4.43-5.554 9.268-10.71 15.25-14.653a29.923 29.923 0 0113.34-5.108 29.36 29.36 0 019.786.647c7.19 1.675 13.391 5.287 19.109 9.786a68.032 68.032 0 0119.28 24.082c.522 1.076.951 2.197 1.424 3.297.137-.325.269-.653.404-.979l-.073-.004a3.063 3.063 0 00-.076-.222z" class="cls-2"/><path d="M138.196 266.848a28.878 28.878 0 0012.725 7.592c8.655 2.8 17.645 3.31 26.628 3.736a97.564 97.564 0 0011.57-.264 40.613 40.613 0 0023.883-9.46 30.893 30.893 0 009.234-12.156c2.072-5.198 1.796-10.453.31-15.726-.527-.03-.544-.509-.674-.833a62.62 62.62 0 00-10.011-16.36 65.145 65.145 0 00-17.265-14.817 38.376 38.376 0 00-15.845-5.523 26.308 26.308 0 00-13.51 2.107 43.922 43.922 0 00-12.146 8.287 78.17 78.17 0 00-11.856 13.867 52.11 52.11 0 00-8.127 19.399c-.209 1.12-.195 2.34-.983 3.3a15.434 15.434 0 01.375 3.627 22.269 22.269 0 005.692 13.224zm-4.21-19.264c.032-.237.066-.473.109-.704a50.764 50.764 0 017.976-19.028 77.696 77.696 0 0111.706-13.69 42.9 42.9 0 0111.87-8.103 25.392 25.392 0 0113.004-2.027 37.167 37.167 0 0115.435 5.389 64.438 64.438 0 0117 14.59 61.504 61.504 0 019.857 16.097c.016.038.028.081.04.124a1.908 1.908 0 00.735 1.099c1.458 5.467 1.322 10.246-.41 14.595a29.796 29.796 0 01-8.95 11.76 39.837 39.837 0 01-23.31 9.228 97.666 97.666 0 01-11.45.264c-9.937-.472-18.188-1.043-26.369-3.689-5.369-1.736-9.277-4.063-12.3-7.322a21.214 21.214 0 01-5.43-12.65c-.041-.383-.049-.769-.058-1.155a9.865 9.865 0 00-.216-2.185 6.496 6.496 0 00.761-2.593z" class="cls-2"/><path d="M167.305 270.45a36.183 36.183 0 0012.055 2.135 33.12 33.12 0 007.813-.934 34.057 34.057 0 0018.957-12.37l.343-.431a15.94 15.94 0 002.76-4.357l.5-1.334-1.425-.017h-.025a2.06 2.06 0 00-1.383.579 85.475 85.475 0 01-7.908 5.365 36.871 36.871 0 01-27.53 4.637c-6.13-1.354-12.439-3.885-19.856-7.965-.83-.457-1.657-.92-2.5-1.393l-2.717-1.514-.077 1.61a1.876 1.876 0 00.557 1.434 44.54 44.54 0 0020.436 14.554zm-16.182-13.817a75.688 75.688 0 0020.123 8.066 37.645 37.645 0 0028.256-4.752 86.595 86.595 0 008-5.429 1.17 1.17 0 01.794-.377 17.05 17.05 0 01-2.949 4.518 32.899 32.899 0 01-18.41 12.02 33.338 33.338 0 01-19.3-1.173 43.367 43.367 0 01-19.984-14.232.961.961 0 01-.341-.766c1.31.732 2.557 1.435 3.811 2.125z" class="cls-2"/><path d="M186.539 254.284a3.357 3.357 0 001.411.316 3.747 3.747 0 001.456-.31 72.593 72.593 0 0012.296-6.413 47.944 47.944 0 004.69-3.516 13.848 13.848 0 004.692-7.545l.039-.172a8.072 8.072 0 00.048-4.913c-1.316-3.325-6.189-6.628-9.84-6.668l-.113-.001c-4.984 0-8.511 3.523-8.792 8.798a22.485 22.485 0 01-3.185 10.38l-.12.206a5.939 5.939 0 01-.145.25c-.721 1.158-1.508 2.314-2.27 3.432-.46.674-.918 1.348-1.367 2.027a2.787 2.787 0 00-.484 2.355 2.835 2.835 0 001.684 1.774zm-.366-3.577c1.211-1.832 2.491-3.62 3.652-5.483.097-.156.183-.316.276-.474a23.352 23.352 0 003.323-10.836c.256-4.792 3.43-7.9 7.898-7.851 3.198.034 7.744 3.066 8.919 6.037a7.484 7.484 0 01-.133 4.496 12.847 12.847 0 01-4.367 7.006 47.304 47.304 0 01-4.593 3.442 72.543 72.543 0 01-12.13 6.323 2.464 2.464 0 01-2.062.008 1.638 1.638 0 01-.783-2.668zm-33.183-5.225c.697.561 1.46 1.123 2.4 1.77a87.68 87.68 0 0011.928 6.53 9.455 9.455 0 002.268.697 3.291 3.291 0 00.629.062 3.348 3.348 0 002.6-1.306c.745-.91.649-1.982-.287-3.182a7.846 7.846 0 01-.712-1.201 8.247 8.247 0 00-.974-1.573 21.546 21.546 0 01-2.323-3.353 23.305 23.305 0 01-2.878-10.387 8.629 8.629 0 00-8.671-8.477h-.01a10.131 10.131 0 00-7.009 2.838 9.563 9.563 0 00-1.59 12.643 21.578 21.578 0 004.63 4.94zm-2.363-16.845a9.156 9.156 0 016.341-2.576 7.658 7.658 0 017.675 7.534 24.437 24.437 0 003.006 10.822 22.64 22.64 0 002.428 3.506c.659.78.992 1.884 1.662 2.744.428.549.868 1.243.301 1.935a2.284 2.284 0 01-2.262.896 8.476 8.476 0 01-2.028-.618 86.16 86.16 0 01-11.793-6.45 39.702 39.702 0 01-2.341-1.726 20.638 20.638 0 01-4.42-4.71 8.542 8.542 0 011.431-11.357z" class="cls-2"/><path d="M141.239 227.298a78.17 78.17 0 0111.856-13.867 43.922 43.922 0 0112.146-8.287 26.308 26.308 0 0113.51-2.107 38.376 38.376 0 0115.845 5.523 65.145 65.145 0 0117.265 14.818 62.62 62.62 0 0110.011 16.359c.13.324.147.803.674.832-.473-1.1-.902-2.221-1.425-3.297a68.032 68.032 0 00-19.279-24.082c-5.717-4.5-11.92-8.111-19.109-9.786a29.36 29.36 0 00-9.785-.647 29.923 29.923 0 00-13.341 5.108c-5.982 3.943-10.819 9.099-15.25 14.653a59.725 59.725 0 00-9.648 17.126 86.555 86.555 0 00-2.58 10.353c.788-.96.774-2.18.983-3.3a52.11 52.11 0 018.127-19.399zm60.864-138.895a.934.934 0 01.5.647c1.08 3.513 2.103 7.045 1.948 10.771-.046 1.092.077 2.272-.733 3.21.57.236.551.816.678 1.289l.02.069.273-1.12c1.03-4.215.22-8.268-.706-11.678a88.51 88.51 0 00-.689-2.362l-.582-1.86-.355.009a2.852 2.852 0 01-.282 1.006.665.665 0 01-.072.002v.017zM151.81 82.82a40.892 40.892 0 00-1.58 13.305c.043.694.118 1.386.194 2.078l.166 1.617.095.022c-.047-.209-.106-.412-.149-.622l-.018-.122-.118-1.362.635.139c-.05-.35-.052-.71-.07-1.055a39.182 39.182 0 011.178-12.476c.127-.46.172-.97.62-1.275-.468-.492-.306-1.094-.243-1.657l-.26-.26zm31.352-.273a1.997 1.997 0 011.381.545c-.176-.285-.336-.578-.523-.858l-2.225-3.343.284 2.847c.037.014.074.025.11.04a1.905 1.905 0 01.973.77zm5.963 7.928a10.836 10.836 0 013.383-2.358l.092-1.106-.45.172a10.845 10.845 0 00-3.356 2.246c.032.122.07.24.1.363.053.234.018.501.231.683zm-27.663-10.197a63.513 63.513 0 01.436 7.244 21.082 21.082 0 002.214 5.517c1.238-3.302 2.253-6.474 1.335-10.063 1.182.745 1.746 1.85 2.621 2.643.211-.266.432-.513.654-.758a9.096 9.096 0 01-.805-.89 8.109 8.109 0 00-1.937-1.84l-2.125-1.34.623 2.434a12.69 12.69 0 01-.529 7.274 20.926 20.926 0 01-1.08-3.221l-.044-.172-.1-.146a4.595 4.595 0 01-.557-2.312 16.51 16.51 0 00-.104-1.065 4.471 4.471 0 01.094-2.117 1.638 1.638 0 00.054-.992l-.889-3.261.109 1.474c.038.529.021 1.06.03 1.591zm40.641 8.125v-.017h-.007l.007.017zm-9.786 34.754a30.163 30.163 0 00-8.078-11.437c-.042-.039-.127-.03-.315-.072 1.54 8.209-1.573 15.001-6.25 21.371a.552.552 0 01-.237-.665c.624-4.448-.898-8.502-2.308-12.573-.301-.869-.732-1.693-1.023-2.564-.301-.906-.755-.852-1.433-.41a6.4 6.4 0 00-2.337 3.09 31.432 31.432 0 00-1.828 8.348 75.172 75.172 0 00-.451 8.102c.066.219.123.44.192.659l.37 1.173.21-.022-.012-.916c-.022-1.706-.023-3.731.13-5.82a60.647 60.647 0 011.08-8.186 13.65 13.65 0 011.523-4.18 4.327 4.327 0 011.597-1.674 1.23 1.23 0 01.193-.09 1.043 1.043 0 01.058.116 40.76 40.76 0 013.54 12.546 8.464 8.464 0 01-.16 2.065l-.274 1.728 1.628-.64a2.021 2.021 0 00.973-.86 31.126 31.126 0 005.702-13.195 23.775 23.775 0 00.047-5.752 27.24 27.24 0 016.696 9.857c1.403 3.739 1.673 6.744.846 9.46l.78.275a20.585 20.585 0 00.374-3.745 18.652 18.652 0 00-1.233-5.99zm11.5-20.123c-.411.854-.807 1.715-1.24 2.559a.95.95 0 00.048 1.068c1.913 3.098 2.07 6.49 1.713 10a37.005 37.005 0 01-1.774 7.693c-.02.196-.036.468-.262.457-.278-.014-.122-.3-.155-.468-.496-3.2-.691-6.489-2.714-9.244a2.248 2.248 0 00-1.337-1.067c.425 6.853-1.866 12.969-4.678 18.944l.863.304.465-1.15a73.979 73.979 0 002.773-7.651 29.054 29.054 0 001.292-9.036 8.842 8.842 0 011.372 2.606 26.221 26.221 0 011.17 6.046 1.155 1.155 0 00.257.883l3.729 4.461-1.957-5.271a38.169 38.169 0 001.68-7.58c.282-3.072.3-6.669-1.706-10.053a.647.647 0 01-.02-.825 5.386 5.386 0 00.488-1.015 6.1 6.1 0 01.206-.486l.169.071c-.047-.184-.095-.367-.14-.552-.058-.237-.16-.463-.242-.694z" class="cls-2"/><path d="M160.259 80.582a67.806 67.806 0 00-3.226 9.832 36.526 36.526 0 01-.792-5.194 46.554 46.554 0 01-.187-7.236l.474-6.73-2.862 7.492c-.294.763-.57 1.495-.842 2.23q-.02 1.039-.043 2.079l2.291-6.002c.169 5.374.338 10.694 2.032 15.86a71.251 71.251 0 013.943-12.447l.415-.188c-.009-.53.008-1.062-.03-1.59q-.053-.738-.109-1.475l-.243-.894zm32.249 7.535a14.986 14.986 0 013.77-.999c.26-.045.636-.164.785.099.131.23-.05.54-.204.786a15.18 15.18 0 00-2.244 5.23 9.833 9.833 0 00.118 4.308c.19.731.593.966 1.34.623a6.49 6.49 0 003.29-4.205 23.549 23.549 0 00.821-6.162c.085-1.153.015-2.317.203-3.526l1.709 4.115h.007c.014-.596.006-1.19-.006-1.784l-.064-.162c-.207-.517-.41-1.022-.571-1.508l-1.906-5.766-.046 6.543a27.993 27.993 0 01-.83 8.037 6.616 6.616 0 01-1.962 3.187 2.604 2.604 0 01-.843.528c-.19.066-.299.081-.324.097a1.186 1.186 0 01-.114-.273 8.046 8.046 0 01-.082-4.123 11.69 11.69 0 011.409-3.582 8.929 8.929 0 00.873-1.787l.465-1.364-1.44.041a12.75 12.75 0 00-3.338.582c-.114.034-.228.08-.344.126l-.044.02-.29-.204-.046.017c-.03.369-.06.737-.092 1.106z" class="cls-2"/><path d="M161.218 81.125a.649.649 0 00.029-.388l-.023.122a60.684 60.684 0 00-3.517 11.23c-.071.384-.141.903-.565.927-.502.029-.6-.533-.71-.923a36.104 36.104 0 01-1.187-6.79 47.375 47.375 0 01-.189-7.39c-.588 1.544-1.148 2.956-1.656 4.388-.114.321-.186.702-.614.792l-.012-.013a39.902 39.902 0 00-1.546 12.983c.04.632.105 1.262.174 1.892l.331.072a1.51 1.51 0 01.762.413c-.016-.016-.024-.035-.041-.05l-.043-.404c-.071-.661-.144-1.323-.186-1.986a38.455 38.455 0 011.393-12.2 1.692 1.692 0 00.47-.542c.047.722.102 1.432.16 2.128a36.76 36.76 0 001.222 6.98l.027.1c.107.4.454 1.635 1.701 1.55 1.188-.068 1.408-1.285 1.492-1.746a44.787 44.787 0 011.633-6.113 4.956 4.956 0 00.647 1.771 21.815 21.815 0 002.277 5.612l1.059 1.832.743-1.981a21.574 21.574 0 001.752-7.644c.115.132.235.262.361.39a2.6 2.6 0 00.49.813c.041.05.083.1.12.153a30.203 30.203 0 013.189 5.385c.225.528.445 1.058.698 1.672l1.622 3.911.663-3.162a41.7 41.7 0 012.333-7.653 31.978 31.978 0 002.72 8.257 1.535 1.535 0 001.233 1.027 1.456 1.456 0 001.303-.802 17.475 17.475 0 003.074-8.33c.849 1.818 1.559 3.686 2.225 5.498l.688 1.875 2.374-3.656a10.718 10.718 0 012.625-1.927 2.023 2.023 0 001.226-.171 1.482 1.482 0 01.151-.059c.383-.114.736-.207 1.072-.28a13.649 13.649 0 00-1.57 4.058 10.126 10.126 0 00.128 5.128 2.271 2.271 0 001.102 1.47 2.358 2.358 0 001.902.007 4.535 4.535 0 001.497-.906 8.55 8.55 0 002.566-4.115 20.93 20.93 0 00.814-4.765l.072.24c.232.769.463 1.537.674 2.31.828 3.048 1.559 6.633.787 10.264a3.803 3.803 0 00-.98 1.587 3.676 3.676 0 01-.296.646 2.622 2.622 0 00-.027 2.943c1.713 2.892 1.686 6.096 1.432 8.85a25.077 25.077 0 01-.454 2.905q-.231-.942-.527-1.87a10.785 10.785 0 00-1.678-3.199l-.07-.093c-.354-.484-1.189-1.616-2.502-1.135a1.915 1.915 0 00-1.043 2.203l.015.219a27.104 27.104 0 01-1.214 8.499c-.282.992-.604 1.97-.949 2.935a23.567 23.567 0 00-1.224-4.416 29.284 29.284 0 00-7.247-10.66 3.354 3.354 0 01-.225-.256 1.961 1.961 0 00-2.445-.828c-1.081.564-.826 1.78-.717 2.3a3.287 3.287 0 01.063.354 22.306 22.306 0 01-.022 5.381 27.26 27.26 0 01-3.982 10.25 43.77 43.77 0 00-3.616-12.385 2.102 2.102 0 00-1.235-1.243 2.207 2.207 0 00-1.821.267 6.255 6.255 0 00-2.35 2.41 15.825 15.825 0 00-1.757 4.777 62.537 62.537 0 00-1.116 8.454c-.016.219-.031.437-.043.655a56.2 56.2 0 00.908 3.601c.004-1.392.029-2.786.132-4.183a61.858 61.858 0 011.098-8.32 14.825 14.825 0 011.64-4.478 5.317 5.317 0 011.973-2.043c.76-.422 1.31-.286 1.654.503a41.98 41.98 0 013.618 12.851 9.286 9.286 0 01-.167 2.315 1.095 1.095 0 00.518-.502 30.513 30.513 0 005.534-12.775 23.189 23.189 0 00.03-5.624c-.051-.578-.427-1.393.12-1.678.658-.343 1.077.49 1.509.912a28.436 28.436 0 017.01 10.297c1.248 3.328 1.885 6.751.866 10.102a86.803 86.803 0 003.204-8.7 28.198 28.198 0 001.253-8.81c-.02-.51-.189-1.24.372-1.445.653-.239 1.067.404 1.426.887a9.875 9.875 0 011.528 2.905 26.822 26.822 0 011.216 6.347c.011.079-.038.168.026.245a.675.675 0 01-.003-.295 37.526 37.526 0 001.69-7.545c.303-3.288.176-6.508-1.569-9.45a1.633 1.633 0 01.004-1.885c.457-.696.504-1.632 1.258-2.154.021.007.04.016.06.024.927-3.798.299-7.501-.7-11.177-.315-1.157-.675-2.301-1.015-3.451l-.007-.017c-.415.009-.516-.356-.627-.646-.325-.86-.695-1.703-.957-2.494a30.356 30.356 0 01-.876 8.792 7.592 7.592 0 01-2.265 3.651 3.586 3.586 0 01-1.17.717c-.92.32-1.43.11-1.72-.827a9.11 9.11 0 01-.104-4.625 12.618 12.618 0 011.503-3.845 8.16 8.16 0 00.81-1.64 11.627 11.627 0 00-3.08.54c-.354.106-.705.386-1.102.108a10.836 10.836 0 00-3.383 2.358l-1.355 2.086a45.667 45.667 0 00-4.582-9.773 27.393 27.393 0 01.443 4.228 16.487 16.487 0 01-2.937 8.177c-.433.667-.616.244-.826-.174a32.276 32.276 0 01-2.85-9.28l-.296-1.782a40.739 40.739 0 00-3.756 10.747c-.434-1.045-.752-1.83-1.086-2.61a30.889 30.889 0 00-3.29-5.567c-.2-.284-.489-.525-.522-.908-.875-.793-1.439-1.898-2.62-2.643.917 3.589-.098 6.761-1.336 10.063a21.082 21.082 0 01-2.214-5.517c-.784-1.153-.645-2.521-.824-3.8a5.38 5.38 0 01.144-2.597zm6.637 58.389c-.008-.417-.014-.833-.02-1.25l-.24.024a4.362 4.362 0 01.26 1.226z" class="cls-2"/><path d="M152.786 83.093c.428-.09.5-.47.614-.792.508-1.432 1.068-2.844 1.657-4.387a47.375 47.375 0 00.188 7.389 36.104 36.104 0 001.187 6.79c.11.39.208.952.71.923.424-.023.494-.543.565-.927a60.684 60.684 0 013.518-11.23l.022-.122a.468.468 0 00-.2-.27 71.251 71.251 0 00-3.943 12.445c-1.694-5.165-1.863-10.485-2.032-15.859l-2.29 6.001-.007.026zM151.03 99.92l-.345-.078q.115.518.246 1.03c.046-.219.1-.435.153-.651-.003-.015-.008-.03-.01-.044a3.598 3.598 0 01-.044-.258zm6.625 20.665c-.74-2.836-1.578-6.049-.929-9.46.016-.082.034-.174-.33-.443a9.895 9.895 0 01-3.058-3.972 30.71 30.71 0 01-2.116-5.923c-.043.24-.091.477-.137.715a32.606 32.606 0 002.426 6.242 8.138 8.138 0 002.827 3.228c.089.057.125.096.13.097a.73.73 0 01-.037.217 10.408 10.408 0 00-.154 4.207 40.228 40.228 0 002.587 9.628c.324.813.672 1.616 1.02 2.419l2.678 6.282-.027-.516.189.46-2.834-6.936a49.04 49.04 0 01-2.235-6.245zm10.378 17.66l.588-.058-.002-.008-.586.06v.006z" class="cls-2"/><path d="M166.587 138.388l-.246-.78a56.664 56.664 0 01-2.643-18.619 19.654 19.654 0 00-1.611 8.043l.637 6.735-.366-3.867-.089-1.718a18.639 18.639 0 011.053-7.307 55.761 55.761 0 002.774 16.766l.25.771 1.044-.103-.001-.004zm.321-6.437l.002-.022a55.249 55.249 0 01-.383-1.927c.116.65.241 1.3.381 1.95zm-1.109-19.778l-1.85 2.993c-.011.005-.024.015-.035.02a1.47 1.47 0 01.606-.143 1.247 1.247 0 01.524.114 1.304 1.304 0 01.586.588 1.554 1.554 0 00-.096-.18zM151.499 99a2.108 2.108 0 01-.464-1.125l-.635-.14.118 1.363.018.122c.043.21.102.413.149.622l.345.077c.013.09.026.178.043.258.003.015.008.03.01.044a10.734 10.734 0 01.367-1.231c.018.002.033.006.049.01z" class="cls-2"/><path d="M162.917 121.13a16.512 16.512 0 01.781-2.14 56.664 56.664 0 002.643 18.617l.246.78.802-.082c-.112-.325-.236-.648-.342-.974a54.021 54.021 0 01-2.565-21.123 20.302 20.302 0 00-3.211 12.025c-.494-1.16-1.01-2.312-1.479-3.483a39.045 39.045 0 01-2.524-9.388 9.334 9.334 0 01.124-3.801 1.118 1.118 0 00-.511-1.429 7.195 7.195 0 01-2.481-2.845 31.923 31.923 0 01-2.885-8.267q-.135.887-.293 1.767a30.71 30.71 0 002.116 5.923 9.895 9.895 0 003.058 3.972c.364.27.346.361.33.442-.649 3.412.19 6.625.93 9.461a49.04 49.04 0 002.234 6.245l2.834 6.937-.637-6.735a16.592 16.592 0 01.83-5.902zm5.14 15.217l-.014.885-.01 1.007.586-.06-.37-1.173c-.07-.22-.126-.44-.192-.66z" class="cls-2"/><path d="M166.908 131.951a55.196 55.196 0 01-.381-1.95c-.032-.178-.06-.358-.09-.538q-.138-.822-.251-1.647c-.031-.226-.062-.451-.09-.677q-.112-.902-.194-1.805c-.01-.121-.026-.243-.036-.365a53.749 53.749 0 01-.133-2.14c-.009-.202-.013-.406-.02-.609q-.026-.812-.028-1.625c0-.215-.002-.429 0-.643a53.48 53.48 0 01.061-2.164c.006-.129.022-.256.035-.384a4.719 4.719 0 00.035-1.04 1.816 1.816 0 00-.113-.481 1.272 1.272 0 00-.073-.138 1.304 1.304 0 00-.586-.588 1.247 1.247 0 00-.524-.114 1.47 1.47 0 00-.606.143 1.961 1.961 0 00-.31.173 3.072 3.072 0 00-.95 1.2 20.912 20.912 0 00-1.66 4.022 32.668 32.668 0 00-.555 2.19 30.832 30.832 0 01-.848-2.692c-.687-2.63-1.465-5.611-.9-8.58a2.355 2.355 0 00-1.102-2.423 7.984 7.984 0 01-2.437-3.209 27.894 27.894 0 01-2.122-6.102 1.57 1.57 0 01-.021-.143 4.349 4.349 0 00-.032-.2l-.013-.063a2.36 2.36 0 00-.067-.251l-.015-.049a1.845 1.845 0 00-.143-.308c-.014-.024-.031-.047-.047-.071a1.49 1.49 0 00-.197-.24 1.51 1.51 0 00-.762-.413l-.331-.072c.038.35.077.698.112 1.048.516.116.462.61.537.97a29.223 29.223 0 002.194 6.315 8.998 8.998 0 002.747 3.59 1.396 1.396 0 01.717 1.433c-.59 3.098.141 6.061.914 9.021a54.375 54.375 0 002.468 6.794 17.401 17.401 0 01.864-6.27 19.964 19.964 0 011.584-3.83 2.172 2.172 0 01.632-.843c.361-.25.604-.171.65.281a8.35 8.35 0 01-.074 1.273 55.33 55.33 0 002.548 19.57c.173-.019.348-.036.522-.053-.007-.574 0-1.15.002-1.724a56.2 56.2 0 01-.91-3.601zm.687 6.337l.239-.023v-.005l-.24.024.001.004z" class="cls-2"/><path d="M167.294 137.306c.091.289.171.578.267.866.012.037.021.075.033.112l.24-.024c-.006-.336-.013-.67-.017-1.006l-.523.052zm-2.547-19.569a8.35 8.35 0 00.075-1.273c-.047-.452-.29-.53-.651-.28a2.172 2.172 0 00-.632.842 19.964 19.964 0 00-1.584 3.83 17.401 17.401 0 00-.864 6.27 54.375 54.375 0 01-2.468-6.794c-.773-2.96-1.504-5.923-.914-9.02a1.396 1.396 0 00-.717-1.434 8.998 8.998 0 01-2.747-3.59 29.223 29.223 0 01-2.194-6.316c-.075-.359-.021-.853-.537-.97l.001.018a31.923 31.923 0 002.885 8.267 7.195 7.195 0 002.48 2.845 1.118 1.118 0 01.512 1.429 9.334 9.334 0 00-.124 3.8 39.045 39.045 0 002.524 9.39c.469 1.17.984 2.322 1.479 3.482a20.302 20.302 0 013.21-12.025 54.021 54.021 0 002.565 21.123l.248-.025a55.33 55.33 0 01-2.547-19.57zm28.309 16.006c.122-.255.242-.511.362-.767l-.243-.085c-.042.284-.086.568-.12.852z" class="cls-2"/><path d="M198.096 114.032a2.248 2.248 0 011.337 1.067c2.023 2.755 2.218 6.044 2.714 9.244l.417.01a37.005 37.005 0 001.774-7.691c.358-3.512.2-6.903-1.713-10.001a.95.95 0 01-.048-1.068c.433-.844.829-1.705 1.24-2.56v-.002c-.02-.008-.038-.017-.059-.024-.754.522-.801 1.458-1.258 2.154a1.633 1.633 0 00-.003 1.885c1.744 2.942 1.871 6.162 1.568 9.45a37.526 37.526 0 01-1.69 7.545.675.675 0 00.003.295c-.064-.077-.014-.166-.026-.245a26.822 26.822 0 00-1.216-6.347 9.875 9.875 0 00-1.528-2.905c-.359-.483-.773-1.126-1.426-.887-.56.205-.392.934-.372 1.445a28.198 28.198 0 01-1.253 8.81 86.803 86.803 0 01-3.204 8.7c1.019-3.35.382-6.774-.867-10.102a28.436 28.436 0 00-7.01-10.297c-.431-.422-.85-1.255-1.508-.912-.547.285-.171 1.1-.12 1.678a23.189 23.189 0 01-.03 5.624 30.513 30.513 0 01-5.534 12.775 1.095 1.095 0 01-.518.502 9.286 9.286 0 00.167-2.315 41.98 41.98 0 00-3.618-12.85c-.343-.79-.895-.926-1.654-.504a5.317 5.317 0 00-1.974 2.043 14.825 14.825 0 00-1.639 4.479 61.858 61.858 0 00-1.098 8.32c-.103 1.396-.128 2.79-.131 4.182.077.273.156.545.238.817a75.172 75.172 0 01.45-8.102 31.432 31.432 0 011.83-8.349 6.4 6.4 0 012.336-3.088c.678-.443 1.132-.497 1.433.409.29.871.722 1.695 1.023 2.564 1.41 4.071 2.932 8.125 2.308 12.573a.552.552 0 00.237.665c4.677-6.37 7.79-13.162 6.25-21.37.188.04.273.032.315.071a30.163 30.163 0 018.078 11.437 18.652 18.652 0 011.233 5.989 20.585 20.585 0 01-.375 3.745l.243.085c2.812-5.975 5.103-12.09 4.678-18.944z" class="cls-2"/><path d="M168.043 137.232c.003-.296.01-.59.014-.885-.082-.272-.16-.544-.238-.817-.002.575-.01 1.15-.002 1.724l.226-.022zm-.188 2.282a4.362 4.362 0 00-.26-1.226l-.205.02c.203.595.4 1.19.625 1.782l.018-1.845-.199.02.021 1.249z" class="cls-2"/><path d="M167.594 138.284l-.205.021.001.004.205-.021-.001-.004zm.24-.024v.005l.199-.02v-.006l-.199.021z" class="cls-2"/><path d="M167.294 137.306l-.248.025c.107.326.231.65.343.974l.205-.02c-.012-.038-.02-.076-.033-.113-.096-.288-.176-.577-.267-.866zm.54.954l.2-.021.009-1.007-.226.022c.004.335.011.67.017 1.006zm25.776-50.25a11.627 11.627 0 013.08-.54 8.16 8.16 0 01-.81 1.639 12.618 12.618 0 00-1.503 3.845 9.11 9.11 0 00.105 4.625c.288.937.799 1.147 1.72.827a3.586 3.586 0 001.17-.717 7.592 7.592 0 002.264-3.65 30.356 30.356 0 00.876-8.793c.262.791.632 1.635.957 2.494.11.29.212.655.627.646l-1.71-4.115c-.187 1.21-.117 2.373-.202 3.526a23.549 23.549 0 01-.822 6.162 6.49 6.49 0 01-3.29 4.205c-.746.343-1.15.108-1.34-.623a9.833 9.833 0 01-.117-4.308 15.18 15.18 0 012.244-5.23c.153-.246.335-.555.204-.786-.15-.263-.524-.144-.784-.099a14.986 14.986 0 00-3.77 1c.396.277.747-.002 1.101-.108zm102.848 224.588c-.976-.656-2.08-1.041-3.179-1.643.122-.03.243-.066.367-.09 3.844-.769 5.112-2.204 5.321-6.117q.256-4.78.062-9.566a7.97 7.97 0 00-4.46-7.096 16.14 16.14 0 00-7.922-1.674q-18.786-.025-37.572-.007c-1.512 0-1.624.11-1.622 1.642.008 6.67.031 13.339.03 20.009q-.003 15.007-.03 30.013c-.002 1.686.054 1.741 1.74 1.74l38.954-.028a21.948 21.948 0 004.437-.421c4.039-.832 7.61-3.291 7.757-8.494.113-3.969.077-7.944.005-11.915-.05-2.83-1.622-4.83-3.888-6.353zm-40.483-19.675c9.899.036 19.797.034 29.696.053a8.313 8.313 0 013.207.672 4.13 4.13 0 012.706 3.96c.054 2.02.088 4.038.016 6.06-.126 3.54-1.814 5.227-5.369 5.234-5.038.01-10.075.003-15.113.003v.067c-5.145 0-10.29-.01-15.433.011-.751.003-.975-.276-.973-1.004q.02-6.865-.032-13.73c-.007-.937.302-1.33 1.295-1.326zm36.819 36.043a3.59 3.59 0 01-3.01 3.815 23.871 23.871 0 01-6.336.505c-3.97.05-7.942.014-11.913.014l-15.317-.002c-1.406 0-1.525-.12-1.526-1.507q-.005-7.498.001-14.996c.001-1.271.154-1.435 1.394-1.432q15.527.036 31.054.097a9.101 9.101 0 011.994.268c2.704.627 3.695 1.874 3.696 4.626 0 2.87 0 5.742-.037 8.612zm-231.8-32.164a11.826 11.826 0 00-10.303-10.67 104.4 104.4 0 00-10.95-.118c-7.162-.003-14.324-.057-21.488.11a11.851 11.851 0 00-11.984 12.01c-.01 4.646-.002 9.294-.002 13.941l.001 15.115a11.885 11.885 0 0012.14 12.22c5.073.036 10.147.007 15.22.007v-.033c3.725 0 7.45.034 11.174-.013a35.757 35.757 0 006.789-.308 11.776 11.776 0 009.511-11.931q.019-10.006-.005-20.011c-.013-3.44.138-6.882-.103-10.32zm-12.591 36.02c-3.9.255-7.799.104-11.697.133-4.753.035-9.507.01-14.26.007a24.396 24.396 0 01-3.382-.043 6.092 6.092 0 01-5.547-6.227c-.142-4.783-.182-9.57-.256-14.354-.067-4.324.026-8.657-.227-12.97a6.427 6.427 0 016.645-6.818c4.647-.021 9.293-.005 13.94-.005v-.083l14.04-.001a6.206 6.206 0 016.107 5.435 72.173 72.173 0 01.21 7.863c.124 6.911.12 13.826.318 20.736a6.34 6.34 0 01-5.891 6.326zm306.277-13.241a11.582 11.582 0 00-10.287-10.774 71.917 71.917 0 00-8.4-.1c-6.703.003-13.407.026-20.11.002a6.368 6.368 0 01-5.06-2.293 5.65 5.65 0 01-1.166-2.354 13.856 13.856 0 01-.17-5.804c.597-3.353 3.014-5.307 6.65-5.313q16.229-.028 32.458-.006c.46 0 .921.013 1.382.028.817.027 1.147-.39 1.134-1.177-.024-1.347-.073-2.697-.017-4.042.044-1.025-.348-1.362-1.36-1.359-12.06.043-24.12.028-36.18.084a11.385 11.385 0 00-11.11 9.458 42.52 42.52 0 00-.08 9.55 10.347 10.347 0 004.17 7.36 13.059 13.059 0 008.613 2.75c8.69-.053 17.38-.023 26.071-.016a5.99 5.99 0 016.202 5.268 25.985 25.985 0 01.038 6.898 5.94 5.94 0 01-5.196 5.399 10.403 10.403 0 01-1.803.099q-17.559.008-35.118.006c-1.439 0-1.339-.222-1.345 1.387q-.007 1.863 0 3.725c.005 1.377.077 1.451 1.441 1.451q9.471.004 18.943.001v-.033c6.278 0 12.557.016 18.835-.004a11.702 11.702 0 0011.358-9.89 48.237 48.237 0 00.107-10.3zM243.3 286.394c-12.522.015-25.044-.043-37.566.031a11.685 11.685 0 00-12.055 11.948c-.122 9.824-.027 19.65-.025 29.476a11.996 11.996 0 0011.974 11.96q9.204.004 18.41 0h19.048c1.47 0 1.537-.07 1.54-1.58q.004-1.808 0-3.618c-.003-1.4-.005-1.401-1.428-1.401h-35.331c-4.427-.001-6.965-2.512-6.972-6.9-.006-3.192.034-6.384-.024-9.575-.016-.916.19-1.19 1.156-1.187 11.139.038 22.278.024 33.416.024.32 0 .639 0 .958-.009.544-.015.866-.256.865-.842q-.006-2.5-.001-5.001c0-.508-.194-.807-.752-.792-.39.01-.78-.022-1.17-.022l-32.882.032c-1.463 0-1.605-.142-1.6-1.566q.013-3.99.033-7.98a6.048 6.048 0 015.817-6.253c1.271-.091 2.552-.044 3.829-.044q16.282-.004 32.565-.002c1.498 0 1.579-.037 1.506-1.567a34.077 34.077 0 01.02-3.82c.063-.973-.388-1.313-1.33-1.312zm-138.62 21.644c-1.335-4.41-5.937-7.574-11.077-7.58q-13.516-.013-27.033-.002c-1.508 0-1.509.003-1.509 1.568v25.543h-.021q0 13.091-.008 26.182c0 .873.386 1.198 1.228 1.184 1.596-.026 3.194-.056 4.788.013.818.035.998-.229.99-1.011-.037-4.328-.002-8.657-.03-12.985-.006-.878.32-1.188 1.186-1.184q8.726.049 17.452.033a39.525 39.525 0 005.205-.186 10.69 10.69 0 009.226-10.13c.043-6.276.01-12.553.01-18.829a8.99 8.99 0 00-.407-2.616zm-6.628 20.208a5.446 5.446 0 01-5.388 5.347c-6.49.027-12.98-.002-19.47.02-.873.004-1.192-.308-1.186-1.182.028-4.115.013-8.229.013-12.343l.001-12.024c.001-1.266.153-1.43 1.394-1.43 5.923-.007 11.847-.022 17.77.005 2.65.013 4.988.706 6.307 3.306a4.88 4.88 0 01.57 2.241c-.005 5.354.02 10.707-.011 16.06zm39.603-27.581q-9.884-.413-19.774-.04a10.682 10.682 0 00-10.39 10.896q-.026 9.737 0 19.475a9.654 9.654 0 00.438 3.143 8.813 8.813 0 008.358 5.634c2.625.029 5.25.03 7.874.032 6.244.005 12.487-.004 18.73.013.811.002 1.17-.287 1.134-1.125a50.685 50.685 0 01-.011-3.19c.034-1.627-.01-1.688-1.623-1.688l-24.156-.002c-2.625 0-3.81-1.205-3.813-3.855-.002-1.56.009-3.122-.006-4.683-.013-1.386.1-1.521 1.49-1.522q7.502-.005 15.005-.002h15.006c1.533-.002 1.688-.158 1.682-1.723-.014-3.652-.046-7.305-.053-10.958a10.494 10.494 0 00-9.891-10.405zm2.953 15.435c-.002 1.318-.141 1.455-1.453 1.445q-3.828-.03-7.656-.056c-1.347-.007-2.695-.001-4.042-.001v.055c-3.9 0-7.8-.013-11.699.01-.959.006-1.441-.259-1.358-1.342.092-1.198.008-2.41.024-3.615a5.72 5.72 0 015.814-5.782q7.285-.025 14.571-.002a5.645 5.645 0 015.793 5.67c.033 1.205.008 2.412.006 3.617zm49.506-8.585a11.532 11.532 0 00-10.825-7.056 878.72 878.72 0 00-11.708.006 78.73 78.73 0 00-8.078.158c-5.022.564-9.43 4.976-9.472 9.79-.084 9.436-.038 18.874-.065 28.31-.002.85.354 1.118 1.158 1.095a100.64 100.64 0 014.361-.016c1.357.019 1.482-.075 1.483-1.403q.003-8.514.002-17.03c.002-3.05-.054-6.103.048-9.151a5.305 5.305 0 015.11-5.388 153.9 153.9 0 0116.265-.012 5.246 5.246 0 015.046 4.255 24.055 24.055 0 01.242 5.509c.04 7.236-.016 14.473-.031 21.71-.003 1.344.194 1.53 1.417 1.517q2.074-.02 4.149 0c1.256.014 1.422-.126 1.423-1.384q.005-7.078.001-14.156c0-3.76.033-7.522-.014-11.282-.022-1.831.168-3.686-.512-5.472zM169.03 85.143l.034.39h.001a1.022 1.022 0 01.139.155c.07.086.14.173.203.263a32.636 32.636 0 013.303 5.546 39.887 39.887 0 013.126-8.002l1.365-2.619h-.585a11.664 11.664 0 00-7.894 3.985l.018.018zm8.198-4.267l.777 4.699a31.915 31.915 0 002.38 8.21 14.66 14.66 0 002.247-6.822 12.25 12.25 0 00-.23-2.577 25.12 25.12 0 01-.209-1.499l-.114-1.15a12.637 12.637 0 00-3.591-.86h-1.26z" class="cls-2"/><path d="M168.068 85.62a2.144 2.144 0 01.627.565 29.522 29.522 0 014.191 7.75 40.357 40.357 0 013.076-9.17.35.35 0 00.021-.053.927.927 0 00.026-.042c.178-.295.284-.763.676-.73.426.037.406.53.46.854a43.837 43.837 0 001.38 6.112 22.151 22.151 0 001.41 3.55c.3.575.58.55.89.03 1.91-3.186 3.067-6.535 2.29-10.323-.091-.45-.446-.929-.025-1.4.034.002.065.007.097.011l-.025-.227a1.905 1.905 0 00-.972-.77c-.037-.014-.074-.025-.111-.04l.114 1.15c.05.503.13 1.001.208 1.5a12.25 12.25 0 01.23 2.576 14.66 14.66 0 01-2.246 6.822 31.915 31.915 0 01-2.38-8.21l-.777-4.699h-.027l-1.365 2.619a39.887 39.887 0 00-3.126 8.002 32.636 32.636 0 00-3.303-5.546 4.91 4.91 0 00-.203-.263 1.022 1.022 0 00-.139-.155l-.035-.39-.29-.264-.018-.018a15.12 15.12 0 00-.654.758z" class="cls-2"/><path d="M171.88 92.094c.334.78.652 1.565 1.086 2.61a40.739 40.739 0 013.756-10.747l.296 1.783a32.276 32.276 0 002.85 9.28c.21.417.393.84.826.174a16.487 16.487 0 002.937-8.177 27.393 27.393 0 00-.442-4.23l-.002-.013c-.032-.004-.063-.01-.097-.011-.42.471-.066.95.026 1.4.776 3.788-.381 7.137-2.29 10.323-.312.52-.59.545-.89-.03a22.151 22.151 0 01-1.411-3.55 43.837 43.837 0 01-1.38-6.112c-.054-.324-.034-.817-.46-.854-.392-.033-.498.436-.676.73a.927.927 0 01-.026.042.35.35 0 01-.021.053 40.357 40.357 0 00-3.076 9.17 29.522 29.522 0 00-4.191-7.75 2.144 2.144 0 00-.626-.565c.032.382.32.623.52.907a30.889 30.889 0 013.29 5.567zm6.577-24.474h.001c.46-.175.921-.342 1.376-.526a5.437 5.437 0 10-7.534-5.262c-.076 2.78 1.264 4.531 4.328 5.658a4.156 4.156 0 011.829.13zm.031 13.257l-.03-13.256h-.001a1.719 1.719 0 01-1.83-.13l-.01 13.384a1.716 1.716 0 011.871.002z" class="cls-2"/><path d="M177.201 80.876l.02-.039.007.04h1.26a1.716 1.716 0 00-1.872-.002z" class="cls-2"/><path d="M177.201 80.876h.027l-.006-.039zm1.256-13.256a4.156 4.156 0 00-1.83-.13 1.719 1.719 0 001.83.13zm9.991 22.118c.115-.105.231-.205.346-.309a11.579 11.579 0 00-3.615-5.766c-.21-.187-.415-.39-.636-.57a43.612 43.612 0 013.469 7.26z" class="cls-2"/><path d="M183.229 82.702a.152.152 0 01-.028.074c.668.103.81.74 1.052 1.214a46.968 46.968 0 013.495 7.887c.614-.442.762-1.172 1.377-1.402-.213-.182-.178-.449-.232-.683-.028-.124-.067-.241-.099-.363-.115.104-.231.204-.346.31l-.436.614a43.612 43.612 0 00-3.469-7.26 1.997 1.997 0 00-1.38-.546.162.162 0 01.066.155z" class="cls-2"/><path d="M187.77 92.561l1.355-2.086c-.615.23-.763.96-1.377 1.402a46.968 46.968 0 00-3.495-7.887c-.242-.475-.384-1.111-1.052-1.214-.004.004-.008.012-.013.012a45.667 45.667 0 014.582 9.773zm-4.541-9.859a.162.162 0 00-.067-.155l.025.227.014.002a.152.152 0 00.028-.074zm-.029.074l-.013-.002.001.014c.005 0 .009-.008.013-.012zm-21.853-1.35a27.436 27.436 0 00.551 6.096 63.513 63.513 0 00-.436-7.244.672.672 0 00-.18.309c.246.215.069.58.065.839z" class="cls-2"/><path d="M161.462 80.278l-.415.188a.61.61 0 01.236.12.672.672 0 01.179-.308zm-.179.309a1.26 1.26 0 00-.036.15.649.649 0 01-.03.388 5.38 5.38 0 00-.143 2.596c.18 1.28.04 2.648.824 3.801a27.436 27.436 0 01-.55-6.096c.003-.26.18-.624-.065-.84z" class="cls-2"/><path d="M161.247 80.737a1.49 1.49 0 01.036-.15.61.61 0 00-.236-.12.468.468 0 01.2.27zm-10.692 21.95a38.312 38.312 0 01-3.899 10.76c-.977 1.692-1.81 1.789-3.31.546a40.108 40.108 0 01-6.27-6.632A140.956 140.956 0 01120.78 79.51a129.922 129.922 0 01-8.453-25.839 76.7 76.7 0 01-1.839-13.039 28.43 28.43 0 011.816-10.942c2.33-6.426 6.936-10.064 13.551-11.165a12.327 12.327 0 019.945 2.372 26.925 26.925 0 017.54 9.493 74.067 74.067 0 016.62 20.029 160.13 160.13 0 012.338 18.978c.118 1.842.033 3.687.222 5.52a31.023 31.023 0 01.004 6.47l-.003.026.101.1c.064-.176.137-.36.203-.537.044-2.166.074-4.33-.01-6.506a183.893 183.893 0 00-1.108-14.483 107.82 107.82 0 00-3.031-16.436c-1.807-6.472-4.112-12.767-8.12-18.234-3.796-5.178-8.655-8.394-15.474-6.972-4.894 1.02-8.924 3.438-11.463 7.862a26.633 26.633 0 00-3.412 12.78 47.256 47.256 0 00.567 7.392 113.911 113.911 0 004.61 19.78 144.065 144.065 0 0016.218 33.918c3.28 5.111 6.796 10.029 11.426 14.046 1.76 1.528 2.767 1.454 3.881-.53a39.457 39.457 0 004.177-12.09c-.057-.207-.1-.421-.154-.63-.128.604-.238 1.213-.376 1.815z" class="cls-2"/><path d="M152.52 81.412c-.063.563-.225 1.165.244 1.657l.017-.014q.02-1.04.043-2.08c-.066.177-.139.36-.203.538zm-1.436 18.808c-.053.217-.107.433-.153.651.053.21.097.424.154.631.046-.238.094-.476.137-.715-.045-.188-.099-.379-.138-.566z" class="cls-2"/><path d="M151.45 98.99a10.734 10.734 0 00-.366 1.23c.04.188.093.379.138.567q.157-.88.293-1.767L151.5 99c-.016-.004-.031-.008-.049-.01zm.693-14.646a39.182 39.182 0 00-1.178 12.476c.018.346.02.705.07 1.055l.367.08a40.04 40.04 0 01-.174-1.892 39.902 39.902 0 011.546-12.982l-.01-.012c-.449.305-.493.814-.62 1.275z" class="cls-2"/><path d="M151.499 99l.015.003c-.035-.35-.074-.699-.112-1.048l-.367-.08A2.108 2.108 0 00151.5 99z" class="cls-2"/><path d="M151.514 99.003l-.015-.003.016.02zm1.26-15.923l.007-.025-.017.014zm49.683 4.298a8.615 8.615 0 00-.093-1.81c-.255-2.329-.214-4.67-.328-7.002-.146-2.969.219-5.94.35-8.911.196-4.469.713-8.9 1.323-13.322a84.467 84.467 0 015.775-21.954c1.913-4.457 4.092-8.75 7.739-12.092a13.242 13.242 0 017.338-3.828 16.666 16.666 0 0116.79 8.876 28.727 28.727 0 012.584 16.567 117.629 117.629 0 01-7.084 28.424 144.684 144.684 0 01-16.183 30.828 52.882 52.882 0 01-8.95 10.49c-2.005 1.705-2.777 1.586-4.037-.768a39.395 39.395 0 01-3.166-8.487l-.005.023-.311-.132a36.592 36.592 0 003.522 9.256c1.128 1.98 2.146 2.103 3.89.618a44.518 44.518 0 006.633-7.161 141.244 141.244 0 0017.3-30.638 123.236 123.236 0 008.37-30.034 35.267 35.267 0 00-.282-13.578c-1.062-4.358-2.882-8.363-6.595-11.093-3.958-2.911-8.437-4.316-13.375-3.295-3.79.784-6.626 3.202-8.926 6.15-4.227 5.42-6.675 11.737-8.516 18.272-2.842 10.088-3.93 20.442-4.33 30.886-.084 2.159-.208 4.314-.113 6.474.094 2.155.274 4.308.32 6.465.103.257.206.515.305.777z" class="cls-2"/><path d="M202.175 88.384a2.852 2.852 0 00.282-1.006h-.055c-.1-.26-.202-.519-.305-.776.012.594.02 1.188.006 1.784a.665.665 0 00.072-.002zm2.34 16.005l-.02-.069c-.126-.473-.106-1.053-.677-1.288l-.001.002c.082.23.184.457.242.694.045.185.093.368.14.552l.31.132zm-1.912-15.339a.934.934 0 00-.5-.647c.34 1.15.7 2.294 1.015 3.45.999 3.677 1.627 7.38.7 11.178.81-.938.687-2.118.733-3.21.155-3.726-.867-7.258-1.948-10.77z" class="cls-2"/><path d="M203.817 103.034l.001-.002-.001-.001v.003zm-1.67 21.309c.033.168-.123.454.155.468.226.011.242-.261.262-.457a.273.273 0 01-.417-.01z" class="cls-2"/><path d="M202.147 124.343a.273.273 0 00.417.01zm-14.772 128.124a1.464 1.464 0 001.256-.022 70.64 70.64 0 0011.964-6.234 45.98 45.98 0 004.496-3.37 11.885 11.885 0 004.042-6.466l.04-.174a6.374 6.374 0 00.138-3.734c-1.006-2.545-5.194-5.373-8-5.404l-.092-.001c-3.909 0-6.572 2.7-6.795 6.905a24.469 24.469 0 01-3.463 11.294l-.099.173a9.875 9.875 0 01-.19.32c-.741 1.191-1.54 2.365-2.313 3.5-.454.666-.908 1.332-1.352 2.005a.982.982 0 00-.228.704 1.04 1.04 0 00.596.504z" class="cls-2"/><path d="M186.956 253.375a2.464 2.464 0 002.063-.008 72.543 72.543 0 0012.13-6.323 47.304 47.304 0 004.592-3.442 12.847 12.847 0 004.367-7.006 7.484 7.484 0 00.133-4.496c-1.175-2.97-5.721-6.003-8.92-6.037-4.467-.048-7.641 3.059-7.897 7.851a23.352 23.352 0 01-3.323 10.836c-.093.158-.179.318-.276.474-1.16 1.863-2.441 3.651-3.652 5.483a1.638 1.638 0 00.783 2.668zm.05-2.116c.445-.673.9-1.34 1.353-2.005.773-1.135 1.572-2.309 2.314-3.5.066-.106.128-.213.19-.32l.098-.173a24.469 24.469 0 003.463-11.294c.223-4.204 2.886-6.905 6.795-6.905h.091c2.807.032 6.995 2.86 8.001 5.405a6.374 6.374 0 01-.138 3.734l-.04.174a11.885 11.885 0 01-4.042 6.467 45.98 45.98 0 01-4.496 3.369 70.64 70.64 0 01-11.964 6.234 1.464 1.464 0 01-1.256.022 1.04 1.04 0 01-.596-.504.982.982 0 01.228-.704zm-32.764-7.335a39.29 39.29 0 002.282 1.681 86.272 86.272 0 0011.66 6.374 7.61 7.61 0 001.788.538 1.298 1.298 0 001.295-.548c.044-.09.039-.232-.317-.688a9.476 9.476 0 01-.91-1.509 6.632 6.632 0 00-.727-1.203 23.856 23.856 0 01-2.536-3.66 25.248 25.248 0 01-3.133-11.259 6.677 6.677 0 00-6.676-6.588h-.007a8.194 8.194 0 00-5.658 2.311 7.53 7.53 0 00-1.27 10.07 19.613 19.613 0 004.21 4.48z" class="cls-2"/><path d="M153.616 244.704c.76.61 1.545 1.176 2.341 1.725a86.16 86.16 0 0011.793 6.451 8.476 8.476 0 002.029.618 2.284 2.284 0 002.262-.896c.566-.692.126-1.386-.302-1.935-.67-.86-1.003-1.963-1.662-2.744a22.64 22.64 0 01-2.428-3.506 24.437 24.437 0 01-3.006-10.822 7.658 7.658 0 00-7.675-7.534 9.156 9.156 0 00-6.34 2.576 8.542 8.542 0 00-1.431 11.357 20.638 20.638 0 004.419 4.71zm-2.313-15.33a8.194 8.194 0 015.658-2.312h.007a6.677 6.677 0 016.676 6.588 25.248 25.248 0 003.133 11.258 23.856 23.856 0 002.536 3.661 6.632 6.632 0 01.727 1.203 9.476 9.476 0 00.91 1.51c.356.455.361.598.317.687a1.298 1.298 0 01-1.295.548 7.61 7.61 0 01-1.788-.538 86.272 86.272 0 01-11.66-6.374 38.776 38.776 0 01-2.282-1.681 19.613 19.613 0 01-4.21-4.48 7.53 7.53 0 011.27-10.07zm-3.209-43.381c2.094 1.023 4.323.953 6.637 1.133a11.528 11.528 0 009.544-4.502 10.482 10.482 0 002.4-8.526c-.314-2.14-1.942-2.802-3.73-1.652-.356.23-.699.484-1.07.688-2.061 1.133-3.902.704-5.411-1.25-1.287-1.664-1.126-3.505.454-5.163.196-.205.393-.41.605-.599a2.446 2.446 0 00.944-2.727 2.885 2.885 0 00-2.356-2.05 13.12 13.12 0 00-15.048 11.54 13.241 13.241 0 007.03 13.108zm42.149-2.463c2.526 2.726 5.818 3.461 9.15 3.525.738 0 1.27.008 1.802-.002 6.059-.108 11.761-5.966 11.696-12.013-.027-2.565-1.775-3.652-4.079-2.518a12.754 12.754 0 01-2.41 1.082 3.995 3.995 0 01-4.422-1.974 3.51 3.51 0 01.241-4.503c.388-.46.837-.87 1.216-1.337a2.593 2.593 0 00-1.666-4.394 12.909 12.909 0 00-11.327 3.557c-3.27 3.017-3.834 6.987-3.318 11.157a12.861 12.861 0 003.117 7.42z" class="cls-2"/></svg>