<?xml version="1.0" encoding="UTF-8"?><svg id="Layer_1" xmlns="http://www.w3.org/2000/svg" viewBox="0 0 1066.16256 455.71673"><path d="M447.89286,113.98154c0-12.16016,10.39453-22.36621,22.68066-22.36621,6.36328,0,12.22266,2.70898,16.38086,6.99316l-5.60742,5.22949c-2.70898-3.08789-6.55176-5.04102-10.77344-5.04102-7.93848,0-14.67969,6.93066-14.67969,15.18457,0,8.31641,6.74121,15.24609,14.67969,15.24609,4.22168,0,8.06445-1.95312,10.83691-5.04004l5.54395,5.16602c-4.1582,4.34766-10.01758,7.05664-16.38086,7.05664-12.28613,0-22.68066-10.26953-22.68066-22.42871Z"/><path d="M495.39482,113.98154c0-12.16016,10.39453-22.36621,22.67969-22.36621,12.34961,0,22.74609,10.20605,22.74609,22.36621,0,12.15918-10.39648,22.42871-22.74609,22.42871-12.28516,0-22.67969-10.26953-22.67969-22.42871ZM532.75614,113.98154c0-8.25391-6.67969-15.18457-14.68164-15.18457-7.9375,0-14.67969,6.93066-14.67969,15.18457,0,8.31641,6.74219,15.24609,14.67969,15.24609,8.00195,0,14.68164-6.92969,14.68164-15.24609Z"/><path d="M553.10185,92.37119h7.8125l22.87109,30.43066v-30.43066h7.8125v43.2832h-7.8125l-22.87109-30.43066v30.43066h-7.8125v-43.2832Z"/><path d="M616.4163,99.55381h-13.85938v-7.18262h35.5332v7.18262h-13.79688v36.10059h-7.87695v-36.10059Z"/><path d="M672.42411,120.59677l10.58398,15.05762h-8.94531l-10.20703-14.55371h-6.92969v14.55371h-7.8125v-43.2832h18.83789c9.19727,0,16.19141,5.92188,16.19141,14.36426,0,6.99414-4.78906,12.28613-11.71875,13.86133ZM656.92607,113.85556h10.08008c5.35547,0,9.07227-2.70996,9.07227-7.12012s-3.7168-7.11914-9.07227-7.11914h-10.08008v14.23926Z"/><path d="M696.36161,92.37119h7.8125v43.2832h-7.8125v-43.2832Z"/><path d="M719.29521,92.37119h21.23242c7.49609,0,12.72656,4.53613,12.72656,10.83594,0,4.41113-2.26953,7.49805-6.11133,9.57715,4.97656,2.39355,7.9375,6.36328,7.9375,11.08887,0,6.92969-5.73242,11.78125-13.79688,11.78125h-21.98828v-43.2832ZM738.5745,110.07529c3.8418,0,6.61523-2.26855,6.61523-5.41895,0-3.21289-2.77344-5.48145-6.61523-5.48145h-11.4668v10.90039h11.4668ZM739.77177,128.8497c4.2207,0,7.24414-2.58301,7.24414-6.17383,0-3.5918-3.02344-6.1748-7.24414-6.1748h-12.66406v12.34863h12.66406Z"/><path d="M766.41825,117.19443v-24.82324h7.875v24.57129c0,7.18262,4.66211,12.34863,11.21484,12.34863,6.61523,0,11.27734-5.16602,11.27734-12.34863v-24.57129h7.8125v24.82324c0,11.27734-7.875,19.21582-19.08984,19.21582-11.15234,0-19.08984-7.93848-19.08984-19.21582Z"/><path d="M828.34599,99.55381h-13.85938v-7.18262h35.5332v7.18262h-13.79688v36.10059h-7.87695v-36.10059Z"/><path d="M858.20732,113.98154c0-12.16016,10.39648-22.36621,22.68164-22.36621,12.34766,0,22.74414,10.20605,22.74414,22.36621,0,12.15918-10.39648,22.42871-22.74414,22.42871-12.28516,0-22.68164-10.26953-22.68164-22.42871ZM895.56864,113.98154c0-8.25391-6.67773-15.18457-14.67969-15.18457-7.93945,0-14.67969,6.93066-14.67969,15.18457,0,8.31641,6.74023,15.24609,14.67969,15.24609,8.00195,0,14.67969-6.92969,14.67969-15.24609Z"/><path d="M939.22685,120.59677l10.58398,15.05762h-8.94531l-10.20703-14.55371h-6.92969v14.55371h-7.8125v-43.2832h18.83789c9.19727,0,16.19141,5.92188,16.19141,14.36426,0,6.99414-4.78906,12.28613-11.71875,13.86133ZM923.7288,113.85556h10.08008c5.35547,0,9.07227-2.70996,9.07227-7.12012s-3.7168-7.11914-9.07227-7.11914h-10.08008v14.23926Z"/><path d="M447.1995,203.35361l4.59961-5.60645c3.96875,3.59082,8.56836,5.8584,14.23828,5.8584,5.29199,0,8.06445-2.64551,8.06445-5.73242,0-3.5918-3.08789-4.78906-10.01758-6.42676-8.94727-2.0791-15.12109-4.66211-15.12109-12.79004,0-7.56055,6.42578-13.04102,15.49902-13.04102,6.86719,0,12.09668,2.33105,16.38086,6.04785l-4.28418,5.7334c-3.7168-3.21289-8.06445-5.04004-12.34863-5.04004-4.41113,0-7.30859,2.58301-7.30859,5.60742,0,3.52832,3.15039,4.78809,10.01758,6.36328,9.00879,2.01562,15.05762,4.91406,15.05762,12.78906,0,7.75-5.85938,13.23145-16.25488,13.23145-7.37109,0-13.73438-2.52051-18.52246-6.99414Z"/><path d="M503.77177,173.55381h-13.85938v-7.18262h35.5332v7.18262h-13.79688v36.10059h-7.87695v-36.10059Z"/><path d="M559.77958,194.59677l10.58398,15.05762h-8.94531l-10.20703-14.55371h-6.92969v14.55371h-7.8125v-43.2832h18.83789c9.19727,0,16.19141,5.92188,16.19141,14.36426,0,6.99414-4.78906,12.28613-11.71875,13.86133ZM544.28153,187.85556h10.08008c5.35547,0,9.07227-2.70996,9.07227-7.12012s-3.7168-7.11914-9.07227-7.11914h-10.08008v14.23926Z"/><path d="M612.1331,201.46396h-20.66602l-3.40039,8.19043h-8.75781l18.08203-43.2832h8.75781l18.08203,43.2832h-8.69531l-3.40234-8.19043ZM609.42411,195.0372l-7.62305-18.20801-7.62305,18.20801h15.24609Z"/><path d="M644.63896,173.55381h-13.86133v-7.18262h35.53516v7.18262h-13.79883v36.10059h-7.875v-36.10059Z"/><path d="M685.20927,173.55381v10.45801h22.30469v7.18262h-22.30469v11.27734h24.69922v7.18262h-32.57422v-43.2832h32.57422v7.18262h-24.69922Z"/><path d="M741.27958,185.83896h18.52344v17.51465c-4.2207,4.34766-10.89844,7.05664-17.26367,7.05664-12.34766,0-22.80664-10.26953-22.80664-22.42871,0-12.16016,10.45898-22.36621,22.80664-22.36621,6.36523,0,13.04297,2.64551,17.26367,6.99316l-5.60742,5.22949c-2.70898-3.15039-7.43359-5.04102-11.65625-5.04102-8,0-14.80469,6.93066-14.80469,15.18457,0,8.31641,6.80469,15.24609,14.80469,15.24609,3.27734,0,6.86914-1.13379,9.57812-3.08691v-7.875h-10.83789v-6.42676Z"/><path d="M785.56864,193.39951l-17.13672-27.02832h9.26172l11.9082,19.59375,12.0957-19.59375h8.94727l-17.07422,27.02832v16.25488h-8.00195v-16.25488Z"/><path d="M479.14189,275.46396h-20.66504l-3.40234,8.19043h-8.75781l18.08203-43.2832h8.75781l18.08203,43.2832h-8.69434l-3.40234-8.19043ZM476.4329,269.0372l-7.62402-18.20801-7.62305,18.20801h15.24707Z"/><path d="M501.9456,240.37119h7.8125l22.86914,30.43066v-30.43066h7.8125v43.2832h-7.8125l-22.86914-30.43066v30.43066h-7.8125v-43.2832Z"/><path d="M555.55888,240.37119h15.18359c14.30078,0,24.38281,8.94629,24.38281,21.61035,0,12.66309-10.08203,21.67285-24.38281,21.67285h-15.18359v-43.2832ZM571.56083,276.53525c9.13672,0,15.5625-6.04883,15.5625-14.55371,0-8.50586-6.42578-14.49121-15.5625-14.49121h-8.18945v29.04492h8.18945Z"/><path d="M656.17021,275.46396h-20.66602l-3.40039,8.19043h-8.75781l18.08203-43.2832h8.75781l18.08203,43.2832h-8.69531l-3.40234-8.19043ZM653.46122,269.0372l-7.62305-18.20801-7.62305,18.20801h15.24609Z"/><path d="M678.97294,240.37119h15.18359c14.30273,0,24.38281,8.94629,24.38281,21.61035,0,12.66309-10.08008,21.67285-24.38281,21.67285h-15.18359v-43.2832ZM694.97685,276.53525c9.13477,0,15.56055-6.04883,15.56055-14.55371,0-8.50586-6.42578-14.49121-15.56055-14.49121h-8.19141v29.04492h8.19141Z"/><path d="M771.39677,240.37119l-18.08203,43.2832h-8.75781l-18.08203-43.2832h8.69531l13.79688,32.82422,13.73438-32.82422h8.69531Z"/><path d="M779.33232,261.98154c0-12.16016,10.39453-22.36621,22.67969-22.36621,12.34961,0,22.74609,10.20605,22.74609,22.36621,0,12.15918-10.39648,22.42871-22.74609,22.42871-12.28516,0-22.67969-10.26953-22.67969-22.42871ZM816.69364,261.98154c0-8.25391-6.67969-15.18457-14.68164-15.18457-7.9375,0-14.67969,6.93066-14.67969,15.18457,0,8.31641,6.74219,15.24609,14.67969,15.24609,8.00195,0,14.68164-6.92969,14.68164-15.24609Z"/><path d="M834.20536,261.98154c0-12.16016,10.39453-22.36621,22.67969-22.36621,6.36328,0,12.22266,2.70898,16.38086,6.99316l-5.60547,5.22949c-2.71094-3.08789-6.55273-5.04102-10.77539-5.04102-7.9375,0-14.67969,6.93066-14.67969,15.18457,0,8.31641,6.74219,15.24609,14.67969,15.24609,4.22266,0,8.06445-1.95312,10.83789-5.04004l5.54297,5.16602c-4.1582,4.34766-10.01758,7.05664-16.38086,7.05664-12.28516,0-22.67969-10.26953-22.67969-22.42871Z"/><path d="M912.95732,275.46396h-20.66602l-3.40234,8.19043h-8.75781l18.08203-43.2832h8.75781l18.08203,43.2832h-8.69531l-3.40039-8.19043ZM910.24638,269.0372l-7.62305-18.20801-7.62305,18.20801h15.24609Z"/><path d="M932.92411,261.98154c0-12.16016,10.39648-22.36621,22.68164-22.36621,6.36328,0,12.22266,2.70898,16.38086,6.99316l-5.60742,5.22949c-2.70898-3.08789-6.55273-5.04102-10.77344-5.04102-7.93945,0-14.67969,6.93066-14.67969,15.18457,0,8.31641,6.74023,15.24609,14.67969,15.24609,4.2207,0,8.06445-1.95312,10.83594-5.04004l5.54492,5.16602c-4.1582,4.34766-10.01758,7.05664-16.38086,7.05664-12.28516,0-22.68164-10.26953-22.68164-22.42871Z"/><path d="M995.73661,267.39951l-17.13672-27.02832h9.26172l11.90625,19.59375,12.09766-19.59375h8.94531l-17.07227,27.02832v16.25488h-8.00195v-16.25488Z"/><path d="M447.1995,351.35361l4.59961-5.60645c3.96875,3.59082,8.56836,5.8584,14.23828,5.8584,5.29199,0,8.06445-2.64551,8.06445-5.73242,0-3.5918-3.08789-4.78906-10.01758-6.42676-8.94727-2.0791-15.12109-4.66211-15.12109-12.79004,0-7.56055,6.42578-13.04102,15.49902-13.04102,6.86719,0,12.09668,2.33105,16.38086,6.04785l-4.28418,5.7334c-3.7168-3.21289-8.06445-5.04004-12.34863-5.04004-4.41113,0-7.30859,2.58301-7.30859,5.60742,0,3.52832,3.15039,4.78809,10.01758,6.36328,9.00879,2.01562,15.05762,4.91406,15.05762,12.78906,0,7.75-5.85938,13.23145-16.25488,13.23145-7.37109,0-13.73438-2.52051-18.52246-6.99414Z"/><path d="M492.99833,339.19443v-24.82324h7.87695v24.57129c0,7.18262,4.66211,12.34863,11.21289,12.34863,6.61719,0,11.2793-5.16602,11.2793-12.34863v-24.57129h7.8125v24.82324c0,11.27734-7.87695,19.21582-19.0918,19.21582-11.15039,0-19.08984-7.93848-19.08984-19.21582Z"/><path d="M545.22685,314.37119h21.23242c7.49609,0,12.72656,4.53613,12.72656,10.83594,0,4.41113-2.26953,7.49805-6.11133,9.57715,4.97656,2.39355,7.9375,6.36328,7.9375,11.08887,0,6.92969-5.73242,11.78125-13.79688,11.78125h-21.98828v-43.2832ZM564.50614,332.07529c3.8418,0,6.61523-2.26855,6.61523-5.41895,0-3.21289-2.77344-5.48145-6.61523-5.48145h-11.4668v10.90039h11.4668ZM565.70341,350.8497c4.2207,0,7.24414-2.58301,7.24414-6.17383,0-3.5918-3.02344-6.1748-7.24414-6.1748h-12.66406v12.34863h12.66406Z"/><path d="M593.42021,314.37119h18.83789c9.19922,0,16.19336,5.92188,16.19336,14.36426s-6.99414,14.36523-16.19336,14.36523h-11.02539v14.55371h-7.8125v-43.2832ZM611.31278,335.85556c5.35547,0,9.07422-2.70996,9.07422-7.12012s-3.71875-7.11914-9.07422-7.11914h-10.08008v14.23926h10.08008Z"/><path d="M663.47685,342.59677l10.58398,15.05762h-8.94531l-10.20703-14.55371h-6.92969v14.55371h-7.8125v-43.2832h18.83789c9.19727,0,16.19141,5.92188,16.19141,14.36426,0,6.99414-4.78906,12.28613-11.71875,13.86133ZM647.9788,335.85556h10.08008c5.35547,0,9.07227-2.70996,9.07227-7.12012s-3.7168-7.11914-9.07227-7.11914h-10.08008v14.23926Z"/><path d="M684.58036,335.98154c0-12.16016,10.39648-22.36621,22.68164-22.36621,12.34766,0,22.74414,10.20605,22.74414,22.36621,0,12.15918-10.39648,22.42871-22.74414,22.42871-12.28516,0-22.68164-10.26953-22.68164-22.42871ZM721.94169,335.98154c0-8.25391-6.67773-15.18457-14.67969-15.18457-7.93945,0-14.67969,6.93066-14.67969,15.18457,0,8.31641,6.74023,15.24609,14.67969,15.24609,8.00195,0,14.67969-6.92969,14.67969-15.24609Z"/><path d="M737.81474,351.22763l5.29297-5.16602c1.51172,3.02441,4.85156,5.22949,8.12695,5.22949,4.22266,0,7.30859-3.40234,7.30859-8.25391v-28.66602h7.8125v29.16992c0,8.69531-5.98438,14.86914-14.49023,14.86914-5.35547,0-11.27734-2.96094-14.05078-7.18262Z"/><path d="M788.65653,321.55381v10.45801h22.30273v7.18262h-22.30273v11.27734h24.69727v7.18262h-32.57227v-43.2832h32.57227v7.18262h-24.69727Z"/><path d="M823.17997,335.98154c0-12.16016,10.39648-22.36621,22.68164-22.36621,6.36328,0,12.22266,2.70898,16.38086,6.99316l-5.60742,5.22949c-2.70898-3.08789-6.55273-5.04102-10.77344-5.04102-7.93945,0-14.67969,6.93066-14.67969,15.18457,0,8.31641,6.74023,15.24609,14.67969,15.24609,4.2207,0,8.06445-1.95312,10.83594-5.04004l5.54492,5.16602c-4.1582,4.34766-10.01758,7.05664-16.38086,7.05664-12.28516,0-22.68164-10.26953-22.68164-22.42871Z"/><path d="M883.21903,321.55381h-13.86133v-7.18262h35.53516v7.18262h-13.79883v36.10059h-7.875v-36.10059Z"/><polygon points="394.20011 119.04404 214.14384 18.93515 213.44511 18.93515 33.55009 118.95322 33.55009 227.1915 213.79447 127.76767 394.25053 227.30893 394.25053 123.73349 394.20011 119.04404"/><polygon points="33.55009 231.10166 33.55009 339.33969 213.44511 439.35801 214.14384 439.35801 394.20011 339.25229 394.25053 334.55967 394.25053 230.98398 213.79447 330.52524 33.55009 231.10166"/><polygon points="35.93168 83.4476 35.93168 83.77329 36.46928 83.4542 35.93168 83.4476"/><path d="M191.91715,228.77842c.27307.24146.54578.48193.81689.72046,2.77332,2.44116,5.33826,4.66064,5.49646,5.12036,1.20056,3.48926-3.56482,16.12402-2.5802,18.9751.21008.60791,1.12146,1.37671,1.94763,1.19482,4.03503-.88647,13.37769-8.44312,16.64539-8.22803,3.12817.20605,14.93445,8.99609,16.80701,8.20435.44727-.46899,1.12256-.84985,1.22461-1.56104.60205-4.19238-3.45447-13.63257-2.81885-18.5564.10059-.41064,2.73755-2.66602,5.58472-5.14917.27368-.23853.54883-.479.82434-.72046,2.69006-2.35791,5.36902-4.78027,6.11401-5.9314.61096-.94434.97998-1.56812.73572-2.75562-.77637-1.15552-16.29102-1.50098-18.99609-3.198-2.13647-1.34033-6.15149-12.2771-8.09302-15.2627-.48901-.75195-.88318-2.07764-2.09302-1.78833-1.77515.4248-6.78601,15.39429-9.42651,17.05103-2.70508,1.69702-18.21997,2.04248-18.99622,3.198-.24426,1.1875.12488,1.81128.73584,2.75562.74524,1.15186,3.40564,3.57446,6.07129,5.9314Z"/><path d="M138.5977,224.99375c-.46118,1.36621-.64172,2.61938-.60999,3.78467.00671.24414.02649.48291.05176.71973,0,0-.00012.00049-.00012.00073-.00415.0769-.0144.15161-.0166.229-.26965,9.31226,12.24731,13.21899,14.16797,19.69727,2.35168,7.93164-4.17261,18.50317.35071,25.34033,4.35876,6.58813,16.75085,3.37231,22.97791,7.38477,6.06799,3.90991,6.64111,17.32959,14.39575,20.24927,1.6394.61694,4.81543,1.26172,7.00684,0,4.57336-2.63306,11.52039-7.65381,16.76489-7.82153,5.63135-.17993,12.48645,5.34814,17.4906,7.82153,3.01062,1.48755,7.00684,0,7.00684,0,6.43689-3.67627,7.32214-11.21387,11.02795-16.61035,5.14233-7.48877,12.44385-4.95801,19.95703-7.2915,15.27209-4.74414,3.56165-18.83618,6.729-29.08301,1.71375-5.54395,11.12524-9.19727,13.46631-16.1311.46118-1.36621.6416-2.61938.60986-3.78467-.00659-.24438-.02637-.48291-.05176-.71948,0-.00049.00012-.00073.00012-.00098.00415-.0769.0144-.15137.01672-.229.26953-9.31226-12.24731-13.21875-14.16809-19.69727-2.35168-7.93164,4.17261-18.50317-.35071-25.34033-4.35889-6.58838-16.75085-3.37231-22.97791-7.38477-6.06799-3.91016-6.64099-17.32959-14.39575-20.24902-1.63928-.61719-4.81531-1.26172-7.00684,0-4.57336,2.63281-11.52039,7.65356-16.76477,7.82129-5.63159.17993-12.48657-5.34814-17.49072-7.82129-3.0105-1.48779-7.00684,0-7.00684,0-6.43677,3.67578-7.32214,11.21338-11.02783,16.60986-5.14246,7.48901-12.44409,4.95825-19.95703,7.29199-15.27222,4.7439-3.56177,18.83594-6.72925,29.08276-1.71362,5.5437-11.12512,9.19702-13.46606,16.1311ZM168.11869,228.77842c-.65088-22.02783,12.349-44.21167,41.74023-46.98047,31.78088-2.99341,49.81714,22.08032,50.02148,46.98047h-.06091c.01038.24023.01685.48022.02393.72046.65088,22.02783-12.349,44.21167-41.74023,46.98022-31.78088,2.99365-49.81714-22.08032-50.02136-46.98022h.06079c-.01025-.24023-.01685-.48022-.02393-.72046Z"/></svg>