<svg id="Layer_1" data-name="Layer 1" xmlns="http://www.w3.org/2000/svg" viewBox="0 0 686.24012 1024.49088"><defs><style>.cls-1{stroke:#414f79;stroke-linecap:round;stroke-linejoin:round;stroke-width:0;}</style></defs><path d="M524.17466,95.03576a28.06013,28.06013,0,0,1-9.21021,1.83081A28.05892,28.05892,0,0,0,524.17466,95.03576Z"/><path d="M137.62192,354.06481q4.073-5.25952,8.39624-10.3092c-7.24609-8.33289-14.45849-17.15772-19.71094-23.82068C130.34922,331.39513,134.23056,343.06945,137.62192,354.06481Z"/><path d="M504.27207,95.52941a42.55886,42.55886,0,0,0,5.36523,1.06421A42.56765,42.56765,0,0,1,504.27207,95.52941Z"/><path d="M106.13657,612.85467a277.232,277.232,0,0,0,22.655,44.97308,262.38309,262.38309,0,0,1-21.60522-45.098A3.31821,3.31821,0,0,0,106.13657,612.85467Z"/><path d="M205.63,627.77013c1.5459,10.69965,1.39136,20.77588-2.27442,31.77136C210.32236,650.13244,211.34458,634.28,205.63,627.77013Z"/><path d="M231.07431,624.574c-.40478-.30311-.80932-.60621-1.2163-.90436-.46045-.09375-1.24829-.38105-1.32666-.24866-.39942.675.2456.75073.70312.88989q.54053.62539,1.08106,1.25086.86205.83459,1.72436,1.66925c5.32495,4.53,11.26318,6.02539,17.957,3.88739a50.00708,50.00708,0,0,1-16.89721-4.86365Q232.0864,625.414,231.07431,624.574Z"/><path d="M295.5914,661.86284c-.83984-.14892-3.01513,1.86518-2.8645,2.44812a6.283,6.283,0,0,0,4.7251,4.42994c1.82349.48553,1.76587-.75818,1.56274-2.42237C299.56553,663.9442,297.983,662.28728,295.5914,661.86284Z"/><path d="M227.5831,687.25567c-7.09179-.87372-14.16845-1.69483-20.856-4.48328a5.41475,5.41475,0,0,0-5.84278.48322c8.84034,3.98431,16.96314,7.77911,26.25122,8.12091,1.81739.06689,3.4458-.50464,3.67871-1.81867C231.169,687.55675,228.92051,687.42034,227.5831,687.25567Z"/><path d="M232.35605,651.95428c-3.22851.03051-5.39941,1.34881-5.26709,4.32739.17041,3.8399,3.40723,4.7669,6.51026,5.08887,2.88916.29992,5.02734-1.21387,4.86841-4.25446C238.26816,653.30138,235.23789,652.36364,232.35605,651.95428Z"/><path d="M210.98984,675.48241c1.36939,4.21466,5.4104,2.1377,7.5564,3.86762C217.95762,674.58361,214.72715,674.95721,210.98984,675.48241Z"/><path d="M219.3707,678.79552c-.55322-.11267-.761.14856-.78174.58454l.01831.01294q.55262-.12809,1.10572-.25605C219.59971,679.01873,219.50254,678.82238,219.3707,678.79552Z"/><path d="M428.589,473.66125c3.46534-10.60816,8.80713-20.47712,13.772-30.53144-.0105.00189-.01831.00617-.02906.00794-.8125.32031-1.98706.40039-2.38305.99713-5.69068,8.57355-10.9336,17.38043-13.137,27.61615C426.63144,472.59,426.96543,473.23894,428.589,473.66125Z"/><path d="M494.983,500.51751c.81128.65313,1.56689-.86847,2.03393-1.77918,7.85425-7.18487,10.1836-16.36841,9.56226-26.59137-.0625-1.0249.20654-2.56317-1.52442-2.51922-1.33447.03381-1.26465,1.28247-1.18921,2.165.83326,9.73358-4.64013,17.57128-7.78686,26.1062C495.68833,498.81853,494.03232,499.75237,494.983,500.51751Z"/><path d="M487.63755,500.98235q.61413-.5484,1.22827-1.0968.58374-.5777,1.168-1.15527a23.83122,23.83122,0,0,0,8.50342-17.14576c-2.645,5.75489-5.3274,11.46106-9.364,16.40986l-1.01294,1.14459q-.59619.56076-1.19214,1.12152c-.87793.90246-1.75586,1.80487-3.34179,3.43506C485.97934,502.8463,487.08164,502.2622,487.63755,500.98235Z"/><path d="M503.19321,513.50219c-1.22363,5.172-1.06177,9.154,3.78125,11.3692,1.28882.58942,2.71167.67108,3.57788-.73651.80274-1.30426-.22729-2.27765-1.12427-2.859C506.68711,519.49932,506.27939,515.91241,503.19321,513.50219Z"/><path d="M117.45322,556.1823c.90723,6.59845-1.72559,12.23065-5.35376,18.62915C119.7999,569.89983,121.41538,563.98131,117.45322,556.1823Z"/><path d="M443.73056,440.79449c.54346-.14167,1.04834-.28577,1.17579-.68781A.99657.99657,0,0,0,443.73056,440.79449Z"/><path d="M157.41562,542.10509c3.75879-.298,13.044-6.72863,12.65381-9.77209-.72705-5.67291,1.29468-11.3324-.4729-16.92224-1.01489-3.2096,1.344-7.48828-3.49341-10.12952-1.19482,5.39038-.45166,10.66492-2.24585,15.5462-1.83691,4.9972-4.73266,8.44233-10.48315,8.18836-5.85962-.25879-7.54-4.78473-8.75732-9.34094-1.45142-5.43219-1.20655-11.08759-1.72535-16.70862-1.31567,10.29571-2.68921,20.66968,1.03662,30.77832C146.35972,540.34215,150.379,542.663,157.41562,542.10509Z"/><path d="M319.21958,602.998a28.42318,28.42318,0,0,0,1.55859-14.58649c-1.16772-.22107-1.44067.62866-1.9812,1.12537-5.86743,5.39282-12.42139,6.13061-18.59814,1.77374-1.54688-1.09113-2.40308-.70911-3.46411.20276-3.14429,2.70208-4.363.17358-5.52735-2.08893-1.32886-2.58209-1.12671-5.54346-1.80566-8.33655a38.94529,38.94529,0,0,0,.396,21.046c2.22437,7.44391,6.08326,10.88086,12.31324,11.18732C310.30967,613.72448,316.47324,610.04778,319.21958,602.998Z"/><path d="M312.23594,576.75609c1.55468.009,3.50463.36524,3.85522-1.08679.384-1.59057-1.01782-3.22857-2.31421-4.4212a8.1624,8.1624,0,0,0-5.89258-1.96674c-11.41552.11243-16.427,8.52948-11.56152,19.46015C300.46933,584.04143,309.69321,576.74132,312.23594,576.75609Z"/><path d="M457.25693,601.44848c-2.37793-1.565-3.749.95227-5.00146,2.545a9.26382,9.26382,0,0,0-1.85816,5.3938c.114,1.89593-.10351,4.40137,2.24976,4.68524,2.32275.28027,2.05224-2.18829,2.42383-3.81592a36.17478,36.17478,0,0,1,1.37353-4.3739C456.98642,604.40484,459.30332,602.795,457.25693,601.44848Z"/><path d="M453.263,576.7315c.74316,4.07574,1.7185,7.29681,5.08032,8.454,5.8872,2.02624,9.5957-2.41089,13.7893-5.92292A48.07145,48.07145,0,0,1,453.263,576.7315Z"/><path d="M448.56846,554.09313c.3767.23468,1.45751-.27295,1.97583-.71362,5.11206-4.346,10.17407-8.75074,15.81494-13.627-4.01368-1.743-7.2273-.8012-10.50855-.81994,2.16773-3.116,6.29737-3.09528,8.57422-6.428-7.959-.84265-14.50708.85467-20.05933,5.85815-2.09521,1.88807-5.178,3.4021-3.97094,7.00483C441.76084,549.44573,445.08335,551.92187,448.56846,554.09313Z"/><path d="M431.996,652.751c7.06982.13983,12.58471-7.37451,9.8208-13.09064C438.37729,644.01165,437.25791,649.933,431.996,652.751Z"/><path d="M350.5958,613.45843c-.23975-.57013-.69531-.97693-1.20654-.54236-.21119.17938.05053.91522.09716,1.398,1.68091,3.46917,3.15137,7.06012,5.07593,10.38849,16.71314,28.90374,46.61353,32.1994,72.76514,11.02557,14.12768-11.43866,17.301-37.02386,8.073-54.7204-.37574,9.4289-5.01807,16.38422-11.88111,21.94068-11.66211,9.44165-25.09228,15.16772-39.74145,18.10138C371.60117,623.48839,360.28281,621.99175,350.5958,613.45843Z"/><path d="M292.92344,564.52044c-1.9607.81372-2.79346,2.5393-3.22071,4.44952-.19946.89191.40552,1.45136,1.39307,1.06531,1.85986-.72717,3.5166-1.76752,3.7561-3.94672C294.9791,564.931,294.09385,564.44738,292.92344,564.52044Z"/><path d="M448.57505,568.06267c9.23559,4.99256,18.08081,5.03473,23.73657-.64441,6.97656-7.00549,9.9353-15.5122,7.24365-25.40325-1.15137-4.23151-3.76416-6.32886-8.36889-7.17341.4309,2.60572,3.61792,3.76172,1.491,8.08814-7.89892,16.066-22.42554,19.847-34.8164,7.99548C436.902,558.04461,440.40342,563.64538,448.57505,568.06267Z"/><path d="M471.37534,534.12023l-.69946-.17535q.21313.34167.426.68341Q471.23851,534.37422,471.37534,534.12023Z"/><path d="M409.69419,655.52239c-4.012.89209-4.93726,4.42181-5.52808,7.87189-.27319,1.59521.19434,3.1593,2.28272,3.2525,2.46.10974,6.90991-4.96545,6.8125-8.37653A2.80312,2.80312,0,0,0,409.69419,655.52239Z"/><path d="M322.79453,629.54265c-.35864-3.11816-3.83643-3.2409-5.53906-5.02276a2.40223,2.40223,0,0,0-1.92823,3.10467c.44776,2.50049,1.874,4.22718,4.41456,4.57611A2.57553,2.57553,0,0,0,322.79453,629.54265Z"/><path d="M516.10825,566.36663a3.90473,3.90473,0,0,1-.86328,2.91431c-2.69019,3.9956-5.03223,8.22576-7.52124,12.35491q-.60571.79486-1.21143,1.58967c1.04859.649,1.65821.1903,2.05225-.81287a20.31178,20.31178,0,0,0,10.15112-12.73377C519.28843,567.59112,517.6727,567.038,516.10825,566.36663Z"/><path d="M309.1583,653.42254c-4.2583.042-5.9668,2.7821-4.09888,6.56659,1.61939,3.28125,10.26392,6.21795,13.29639,4.42682,2.1477-1.26856,3.01245-3.41633,1.39282-5.328C317.04722,655.89892,313.81992,653.2047,309.1583,653.42254Z"/><path d="M316.846,673.0274c5.99585-.761,9.136-4.62336,8.27979-10.851-3.74414,3.46552-7.64575,6.2229-12.72974,6.20215-5.70971-.02338-8.25-4.45758-11.33691-8.961C302.14658,668.50335,308.89267,674.03686,316.846,673.0274Z"/><path d="M349.93515,651.88054a26.7457,26.7457,0,0,0,10.13331,5.07551c4.88354.97644,4.9375-1.51349,5.89746-3.99909,1.16333-3.01276.0979-3.7392-2.33448-4.4762-3.324-1.00714-6.5896-2.20745-9.876-3.337a4.00926,4.00926,0,0,0-5.04834,1.68744C347.28721,648.92278,348.39707,650.61877,349.93515,651.88054Z"/><path d="M376.62607,673.37133c-8.47217-2.24054-20.82934,2.13171-26.07617,9.2265-7.063,9.55042-6.53418,18.833,1.35938,23.85742,7.522,4.78772,22.30761,4.553,29.32714-.96564,4.22974-3.3255,9.16529-6.70733,7.40308-12.74847C389.00205,682.15838,384.69785,675.50616,376.62607,673.37133Z"/><path d="M344.99106,674.56579a4.41486,4.41486,0,0,0-3.87036,3.64941c-.30151,1.27332.87036,2.91449,1.48657,2.51361,1.6294-1.05994,2.79761-2.829,4.02027-4.174C346.82187,675.04864,345.83286,674.46435,344.99106,674.56579Z"/><path d="M309.82529,459.887c4.42432,1.14637,7.94092.04114,10.04517-5.791-8.1211,2.061-15.07837,2.95245-17.51294-7.20422C301.46055,453.86864,304.33213,458.46361,309.82529,459.887Z"/><path d="M271.54306,401.42614q3.11133-2.15607,6.1023-4.59082c-6.08984-.63068-9.51465-1.083-9.51465-1.083S269.33652,397.90777,271.54306,401.42614Z"/><path d="M516.1207,454.47625c.69336,5.54809,5.37549,5.99975,8.90039,5.60937,3.57617-.396,3.00464-4.6513,3.26319-7.60931-.19947-4.26483-.54224-8.49957-2.762-12.25781a6.5005,6.5005,0,0,0-7.93481-3.15821c-3.01221.94123-3.59863,3.78168-3.21118,6.6399C514.8646,447.30492,515.67,450.868,516.1207,454.47625Z"/><path d="M280.98472,414.51134c.0642.36292.13354.7251.21118,1.08612,1.82959,2.48481,3.81958,5.08423,5.96167,7.735A22.722,22.722,0,0,0,280.98472,414.51134Z"/><path d="M350.83652,402.66808c-6.9602,10.15131-16.19287,11.42224-25.97534,3.15125.106,8.382,4.66675,15.65857,10.96948,18.02929,6.32227,2.37806,13.45264.37629,18.67481-5.81445,4.18994-4.96735,8.4082-10.06293,7.57641-16.511l-.075.00257Q356.42148,402.23655,350.83652,402.66808Z"/><path d="M196.60947,377.24224c2.69751,2.3064,4.43579,2.32263,7.06055-.56293q1.90649-2.096,3.86084-4.1095A81.97184,81.97184,0,0,1,190.848,362.39489C190.38608,368.09862,191.89414,373.21056,196.60947,377.24224Z"/><path d="M205.84433,393.72057a73.83032,73.83032,0,0,1-24.00415-8.17389,1.32751,1.32751,0,0,0-2.19213-.64355l1.28759,1.54413c3.27417,6.52349,8.99512,11.186,14.60645,17.9804-3.33472-1.55835-4.79712-2.58007-5.41651-4.482l-.02783.0202c-1.64819,3.99378,2.11231,5.45343,3.95288,7.41254,3.96509,4.22,8.72,7.39508,15.12354,6.45886q-2.45361-1.4643-4.90674-2.92853.38709-.42536.762-.86126-.375.43587-.762.8612c-1.41016-.92169-3.54614-.88635-4.01611-3.04712q-.29626-.24326-.593-.48645.2124-.09668.42407-.19342.09118.335.18262.6698l.00024-.00018c2.18311-.5589,3.36963,1.04462,4.76416,2.19617,5.427,1.73352,10.59961,4.25763,16.38282,4.86474.07568.00794.14868.02374.2246.031,1.66944.16015,3.31739.26068,4.94751.31225a56.61345,56.61345,0,0,1-11.62451-20.72039A69.9692,69.9692,0,0,1,205.84433,393.72057Z"/><path d="M510.63657,321.50768c.96509,1.25342,1.94385,2.49634,2.94922,3.718q.90747-2.6012,1.86841-5.23682Q513.07932,320.75829,510.63657,321.50768Z"/><path d="M169.80137,341.31115c.54931,2.12158,1.05273,4.16748,1.50585,6.11914C172.31748,344.64342,172.11728,342.68712,169.80137,341.31115Z"/><path d="M259.52256,473.73064c3.1416.1579,4.3833-1.80816,4.42675-5.21527a26.02365,26.02365,0,0,1-.72021-2.63434c-.761-3.22076-1.56348-6.85522-4.85425-7.24188a2.92775,2.92775,0,0,0-3.38208,1.98456c-.76123,1.85821-.66943,4.608-.92163,6.5379C253.588,470.85637,255.46885,473.52691,259.52256,473.73064Z"/><path d="M279.07261,400.15429a17.41322,17.41322,0,0,0,7.45971-1.6131q-2.02-.426-4.00927-.89014Q280.83187,398.90066,279.07261,400.15429Z"/><path d="M536.8751,412.03991c-5.00342,2.62811-4.55176-12.87683-1.43653-35.49726a9.27217,9.27217,0,0,0-7.34472-1.29376c-5.33594,1.32221-6.958,6.60333-6.5708,11.66638.64843,8.48456,2.15869,16.84223,7.366,24.00293,3.34546,4.60053,7.96362,6.42231,13.20752,4.72174,5.17114-1.67694,6.26319-6.38836,6.23316-11.79284a4.00686,4.00686,0,0,0,.06494-3.21411C543.80014,406.37163,539.79306,410.50719,536.8751,412.03991Z"/><path d="M190.09165,399.97027l-.83569.60766.41308.32807Q189.8807,400.43817,190.09165,399.97027Z"/><path d="M331.45615,406.06811a22.43891,22.43891,0,0,1,1.105-2.73279c-1.79077-.00574-3.57788-.02594-5.3584-.07263A14.06259,14.06259,0,0,0,331.45615,406.06811Z"/><path d="M280.80478,414.62334l.11377-.17486c-.0476-.04419-.09277-.0896-.14062-.13361Z"/><path d="M143.71055,409.30865c-.69751-.41425-1.44019-.90479-2.21949-1.45759A7.88245,7.88245,0,0,0,143.71055,409.30865Z"/><path d="M149.75962,393.95531c.93286,1.09082-.67871,1.21607-1.13672,1.79883v.00006c-.05225.04907-.10474.09308-.157.1413,1.11255,6.50287,1.36865,11.2409.49218,13.46557a8.00074,8.00074,0,0,0,3.19019-2.51831c4.68726-6.01605,7.4917-13.14074,10.906-21.07861-4.48462,1.88373-6.7461,5.30994-11.03345,6.31989,1.56177-4.56177,2.79419-8.39435,4.207-12.15918.48657-1.29645,1.29565-2.42237.01465-3.66034-1.33765-1.293-2.81519-1.0398-4.29346-.35059a19.10193,19.10193,0,0,0-6.65137,5.3197c1.18018,4.741,2.14527,9.0752,2.85108,12.88C148.71909,393.72887,149.33286,393.45629,149.75962,393.95531Z"/><path d="M509.847,551.84649c-.04517-4.21326-3.7229-4.75348-6.53149-6.14472-2.77442.89148-4.36475,2.66773-4.231,5.49481.17016,3.59809,2.33862,5.6811,5.85351,5.7605C508.12143,557.029,509.88047,554.97332,509.847,551.84649Z"/><path d="M502.99131,366.21447c-2.93335,7.55481-9.26685,12.85925-18.11621,17.08514A20.96859,20.96859,0,0,0,504.141,369.65368C503.31553,369.57116,502.95469,368.34484,502.99131,366.21447Z"/><path d="M539.34873,337.18688c-2.395,2.69141-4.96655,5.52759-7.6001,8.36011a40.72426,40.72426,0,0,1,3.57813,14.5227c-2.20557-3.81811-4.13233-7.80957-6.23926-11.68506q-.71961.76062-1.43994,1.51477c2.333,5.73353,4.35376,11.56751,6.104,17.50135a12.15074,12.15074,0,0,0,2.37451,4.321c1.45606-9.87549,3.34571-20.86609,5.46485-32.16406Q540.47507,338.36426,539.34873,337.18688Z"/><path d="M525.14316,467.84978c7.43189-2.79986,10.41187-8.27832,11.083-15.22094.65137-6.73829-2.55566-11.734-7.81372-15.94983C534.485,447.81054,534.22178,458.19005,525.14316,467.84978Z"/><path d="M528.11875,550.52019a13.72611,13.72611,0,0,0,1.26855,4.42865c1.48609,3.39069,3.2417,5.40815,6.18164,1.01233,1.15308-1.72455,2.78272-3.13043,4.97364-5.53552.15185,1.90765.20922,2.639.26831,3.37024.17578,2.17035.43286,4.44543,2.80151,5.28619,2.93237,1.0409,4.06055-1.569,5.46607-3.273a23.20549,23.20549,0,0,0,3.20556-4.82623c7.34424-15.74084,17.59277-30.563,11.21826-49.84552-1.33252-4.03107-2.55591-7.01227-5.69507-8.92358-10.70239-6.5163-21.80249-1.46607-26.35351,11.43475C526.03867,518.998,527.04331,534.748,528.11875,550.52019Z"/><path d="M566.07871,526.15887c-1.61182,10.37451-8.36987,18.51232-13.439,28.6961C560.27109,551.3875,566.62363,537.15374,566.07871,526.15887Z"/><path d="M482.10068,359.45617a80.71468,80.71468,0,0,1-18.46826,12.30932c.09229.43933.15991.88184.23755,1.323a69.71326,69.71326,0,0,0,10.06006,5.205,18.92981,18.92981,0,0,0,4.32959,1.2157,18.534,18.534,0,0,0,16.30127-5.23908,28.52956,28.52956,0,0,0,6.88818-12.59936,33.759,33.759,0,0,0,1.29419-11.23938,29.25378,29.25378,0,0,0-.48169-3.17054,30.57365,30.57365,0,0,0-3.33472-8.82006,83.8285,83.8285,0,0,1-9.2644,13.30432A20.87643,20.87643,0,0,1,482.10068,359.45617Z"/><path d="M363.02646,443.72405c2.273.387,3.32593-1.475,3.2334-4.05585-2.10791-2.53534,1.95874-8.089-3.27661-8.96307-3.21118-.53613-3.63257,3.37769-3.53149,6.10028C359.55527,439.60143,359.23154,443.07787,363.02646,443.72405Z"/><path d="M415.70664,568.068c-24.8855-17.3327-54.83716-6.404-63.37109,22.98139-2.1941,7.55462-.37208,14.19617,5.15136,18.97711,5.38233,4.65863,12.50928,4.24866,18.60279,1.18756,14.63647-7.3529,26.70629-18.32141,38.791-29.1543,2.87207-2.57458,2.51856-5.44818-.94922-7.60449-1.13232-.70416-2.78711-.70062-3.49609-2.33838,2.52246-.69146,4.80444-1.317,7.61084-2.08636C417.09116,569.22368,416.44394,568.58135,415.70664,568.068Zm-17.31592-4.46319c-.17676,1.59527-.73047,3.2503-2.46973,3.43847a2.582,2.582,0,0,1-2.71337-2.44122c-.14893-2.22235,2.05712-2.37463,3.28515-3.23425C398.2916,561.27025,398.53013,562.34588,398.39072,563.60479Z"/><path d="M310.786,452.41533c1.97925.6319,12.894-3.43267,13.66553-5.12066.14722-.32166.2522-.97229.104-1.074-4.04029-2.77374-1.42456-7.07373-2.43409-10.5343a7.15937,7.15937,0,0,0-6.1748-5.52038c-5.113-.19306-9.69238,4.26355-10.8291,10.07464C303.85752,446.68114,305.78379,450.81841,310.786,452.41533Z"/><path d="M454.35776,411.62322c10.21753,16.61865,16.49732,34.8075,17.70728,54.39111.49023,7.93756-2.83252,15.43122-10.88111,19.05054a59.21471,59.21471,0,0,1-19.45654,5.43433c-16.2959,1.34826-32.45019,1.57794-48.30859-4.0094a149.01211,149.01211,0,0,0,40.60376,21.8352c-7.35645.96656-13.78614-2.784-22.125-4.16412,10.25927,8.26514,34.78,13.33777,42.34692,7.53583-5.6062-.623-10.64087-1.18262-16.41675-1.82459,2.31934-1.53271,4.2-.93408,5.988-.75085a60.94255,60.94255,0,0,0,24.68652-2.37519c16.4917-5.175,26.56055-16.26153,29.302-33.37585a53.63565,53.63565,0,0,0-3.43091-30.24579c-7.59668-17.43817-20.14331-29.17566-35.37549-37.73547q-.627-.3523-1.26123-.69593a59.96879,59.96879,0,0,1-3.92627,6.05585C453.99277,411.0404,454.17783,411.33074,454.35776,411.62322Z"/><path d="M418.70835,446.443c1.3186-4.2517,2.70508-8.45056,4.40259-12.46167a71.80608,71.80608,0,0,1-29.895,5.22761,43.58963,43.58963,0,0,0-2.27173,19.67846c.06543.60517.12573,1.209.21533,1.81964a25.4015,25.4015,0,0,0,13.83691,19.61164c1.43042.7619,3.80274,2.33862,3.72437-.76911-.08862-3.52228,2.85986-5.70318,2.73657-9.11065-.04956,1.45837,2.28589,2.01507,1.08228,3.71026-.77368,1.08972-1.35083,2.73554.28833,3.411,1.67114.68872,2.2268-1.15747,2.863-2.23749,7.85035-13.32379,15.69947-26.65686,21.71387-40.92205.752-1.78345,1.48-3.579,2.17066-5.3935a32.15262,32.15262,0,0,0,1.69506-5.44513,73.03427,73.03427,0,0,1-12.00756,7.64026A181.81123,181.81123,0,0,0,418.70835,446.443Z"/><path d="M309.68174,697.178a2.21537,2.21537,0,0,0,2.42773,2.00159c8.99854.22455,17.69922-.7771,25.43457-6.67786a250.89651,250.89651,0,0,0-25.80444,2.7066C310.43833,695.3886,309.49668,695.54607,309.68174,697.178Z"/><path d="M132.59409,437.96361c2.78638-.00805,2.95532-2.45752,3.01782-4.81958-.92578-2.54937.39136-7.377-3.39209-7.30859-2.92383.0528-2.2478,4.71283-2.478,7.43C129.57334,435.255,129.702,437.972,132.59409,437.96361Z"/><path d="M157.30576,559.63164c-8.62988,2.30609-10.7666,5.21668-10.64819,16.2334.79516,9.3551,3.57592,19.86957,7.58178,30.24188,2.71534,7.03077,12.43824,9.03553,18.17017,7.34736,6-1.76716,10.03052-8.32654,9.02856-15.07483a95.559,95.559,0,0,0-9.91626-30.7085C167.73227,560.47716,163.25205,558.04265,157.30576,559.63164Z"/><path d="M164.9039,458.49608c3.67676.23468,4.52808-2.739,5.19678-5.68713.07862-1.91186.209-4.2597-2.45312-4.14563-3.19312.13684-5.15381,2.30884-5.52686,5.5177C161.88,456.24914,162.70762,458.35589,164.9039,458.49608Z"/><path d="M152.61875,516.93841c2.4375.12487,3.86694-1.43946,4.81885-3.47876a28.21717,28.21717,0,0,0,2.24511-11.81122c.04883-3.69415-.18335-7.37879-2.40551-10.49628-1.55616-2.18323-3.26661-3.17-5.29834-.11822a26.70707,26.70707,0,0,0-3.97779,21.47992C148.54038,514.93218,149.902,516.79931,152.61875,516.93841Z"/><path d="M156.37583,432.7506c4.2727-1.81732,3.82275-6.24719,5.24243-9.49927-.16064-1.1018.16162-2.32513-1.10889-2.51751a2.51561,2.51561,0,0,0-1.91015.90368c-2.35865,2.94684-5.5459,5.59717-4.59717,10.00263A1.81219,1.81219,0,0,0,156.37583,432.7506Z"/><path d="M158.40439,459.975c-.13574,6.51,2.60449,8.49987,7.11817,8.531,4.83667.03339,7.25439-2.84881,7.40307-8.55621C165.795,464.65691,161.98716,467.12481,158.40439,459.975Z"/><path d="M193.4393,433.41765c1.74122.10468,3.46436.14368,4.46363-1.691a1.49189,1.49189,0,0,0-1.82739-1.60406c-1.62525.19769-3.72754-.33191-4.4939,1.65228C191.26523,432.59453,192.37241,433.35351,193.4393,433.41765Z"/><path d="M189.56235,549.71886c2.283-.15893,3.9397-2.31842,4.177-4.81646.25025-2.63556-1.61157-3.622-3.79687-4.14472-2.6543.30255-3.73242,1.92017-3.572,4.34955C186.51157,547.2448,187.00986,549.89654,189.56235,549.71886Z"/><path d="M177.95176,662.60894a25.08894,25.08894,0,0,0,5.3872,3.40338c6.646,3.40131,13.75318,1.2464,17.15332-5.42993,3.28-6.44037,3.86231-13.44312,3.44605-20.5661-1.29663-22.18067-8.09375-42.85034-17.24732-62.87372-.37573-.82172-.55615-1.93378-2.09521-1.54669,1.16748,5.36261,2.56445,10.7005,3.45752,16.12146,1.51391,9.19128,2.73389,18.47009-.14453,27.62231-3.21778,10.23175-12.43531,14.58252-22.03638,10.345a24.971,24.971,0,0,1-10.55322-8.705c-5.73218-8.211-9.27271-17.35816-12.25855-26.80573-.42236-1.3371.05908-3.7652-2.83374-3.54773a25.99828,25.99828,0,0,1,.34522,2.71228C141.22959,622.79815,157.21323,644.00182,177.95176,662.60894Z"/><path d="M198.20322,499.76751c1.27612-3.40857,1.18091-6.841-1.99609-9.43732a1.57339,1.57339,0,0,0-2.07129-.277c-.95313.7215-.63916,1.66126-.41358,2.61115,1.06983,4.50641.70166,8.79571-1.96728,12.72272l.001.00335C196.51377,506.65673,197.1146,502.67455,198.20322,499.76751Z"/><path d="M159.80381,614.64794c3.00561,4.80768,7.1062,6.54932,12.25512,5.78107,4.93628-.73651,7.56324-3.18714,8.96216-8.52759C174.38266,617.30584,167.53013,619.03484,159.80381,614.64794Z"/><path d="M98.06748,562.30541c-.39844-9.52869-3.9812-18.38605-5.46338-27.70349C91.96787,544.32342,92.67173,553.77343,98.06748,562.30541Z"/><path d="M112.01352,551.48632c-.36279-1.308-.49487-2.94379-2.10131-3.07434-1.86084-.15131-2.55249,1.47473-3.00562,2.98535-.3833,1.27783-.59058,2.60846-.75952,3.38208A15.91758,15.91758,0,0,0,108.24839,562.5c1.07544,1.75275,2.50122,3.19824,4.72509,2.13269,2.05469-.9845,2.387-2.6831,1.56031-4.86938C113.516,557.07085,112.78452,554.26592,112.01352,551.48632Z"/><path d="M105.08628,511.98131c-2.42945-.55554-2.89331,3.03626-4.0271,4.8747-1.602,2.59747-3.21729,5.39569-.85352,8.46948a2.98133,2.98133,0,0,0,3.61817,1.025c3.66992-1.50843,3.02343-4.87378,3.14575-8.05585C106.6019,516.15648,107.99424,512.64635,105.08628,511.98131Z"/><path d="M115.57065,440.44835c3.05249.57673,3.60132-1.83819,3.844-3.92926.47827-4.11987,2.42163-7.73168,3.56982-11.61.467-1.577,1.36108-4.00574-.39453-4.65265-1.887-.69543-3.49658.93793-3.84863,3.23718a3.02561,3.02561,0,0,1-1.99121,2.52118c-3.98145,1.7475-3.792,5.82245-4.7627,8.83466C111.97153,437.82342,112.78769,439.9226,115.57065,440.44835Z"/><path d="M118.95542,614.91064c.77539.53741,2.00195.86077,1.25342,2.121,2.16235-.68054,5.07983,1.47107,6.57373-1.72492,1.417-3.03149-.50562-5.10119-2.00293-7.35894a7.10438,7.10438,0,0,1-1.21265-3.14588c-.66089-7.68469-4.47705-13.885-9.10937-19.70288-1.26929-1.59393-2.35889-3.911-5.08106-2.59729-2.6665,1.2868-2.64136,3.76361-1.94849,6.03442,2.81519,9.2262,6.26221,18.19812,11.53687,26.3595Z"/><path d="M120.67246,618.92577q-.364-.81335-.72827-1.62677c-1.01148-.38714-1.88794-.83832-1.4458-1.9151-.85987.36865-2.06079-1.262-3.11988.769,1.30518,1.09375,2.83472,2.37543,4.36426,3.65717,1.91016,2.545,4.46948,3.84,7.523,2.81537,2.499-.83863,3.279-3.01215,2.58447-6.1333C127.34433,620.27209,124.20078,620.52965,120.67246,618.92577Z"/><path d="M122.77109,458.08745a54.33663,54.33663,0,0,1,.011,16.52289c-.46533,2.69428-1.51489,3.20606-3.67066,1.87219a38.08225,38.08225,0,0,1-3.62158,12.56232c-3.238,6.98273-3.23755,6.98889-10.63183,4.28681-1.06543-.38935-2.21045-1.15009-3.14576-.07612a2.32863,2.32863,0,0,0-.19848,2.13733c1.84961,3.262,2.5122,7.59888,6.74951,8.88111,4.19678,1.27,7.57715-.69055,10.32837-3.67853a46.01285,46.01285,0,0,0,11.283-23.11206c.281-1.47815-5.11719-18.25342-6.15991-19.38318C123.62558,458.0039,123.34189,458.08745,122.77109,458.08745Z"/><path d="M415.5206,585.84118c-7.40576,6.1297-15.01611,12.0122-22.93994,18.30407,10.16358,1.89154,20.19776-2.17334,25.30567-9.94354,1.3894-2.1134,2.78247-4.38617,1.80517-7.00036C419.00278,585.3593,418.07578,583.72637,415.5206,585.84118Z"/><path d="M105.37217,478.5006c-.54151,1.69214-.97608,3.37354.63916,4.78961,1.646,1.44318,3.22436.38611,4.86816-.04162,3.81665-.993,4.8291-5.26654,8.10718-6.86115-.37671-3.26825-.9751-6.53192-1.04053-9.80639-.03833-1.91077.02564-3.53571-2.134-4.06452-2.06323-.50519-3.12256.90546-4.13941,2.41162A52.54206,52.54206,0,0,0,105.37217,478.5006Z"/><path d="M455.86924,765.545A264.07453,264.07453,0,0,0,611.56089,581.568,268.95466,268.95466,0,0,1,455.86924,765.545Z"/><path d="M192.29209,505.8612q-.25048-.174-.50122-.34809.10034.3513.20068.70246Q192.14206,506.03841,192.29209,505.8612Z"/><path d="M345.36411,516.23919a9.66756,9.66756,0,0,0,1.28979-3.80841c.52588-8.71491-1.24023-17.18775-2.58862-25.70111-3.96118,19.366.084,18.81775-22.93262,24.60711a23.04992,23.04992,0,0,1-2.7561.85449c-11.14673,1.30915-22.32519,2.6999-32.06885-6.43536-.47046,3.92182.15576,6.70862,3.19849,9.03461a35.05513,35.05513,0,0,1,6.23608,6.77063C310.38681,540.788,336.33945,532.96844,345.36411,516.23919Z"/><path d="M316.84946,501.43835c8.32642,2.01995,18.64429-9.2154,19.98218-18.12183.98291-6.54553-2.68408-10.74414-9.28662-10.369-5.718.32477-11.41406,1.482-17.14453.28558-6.63819-.96563-16.314,10.39936-18.4253,17.63056-2.19116,7.506,1.77124,12.01672,9.60205,12.16083C306.68564,503.1184,310.711,499.94915,316.84946,501.43835Z"/><path d="M354.59678,478.5888c4.25195.13012,7.46728-3.74573,7.43847-8.60633-.02051-3.49554-.959-6.14929-5.16626-5.99029-4.69726.16992-8.89673,3.74066-8.61548,7.71124C348.52256,475.50451,350.27866,478.45659,354.59678,478.5888Z"/><path d="M260.57627,570.003c-1.56665-4.659-3.03638-9.54346-9.9624-11.73944,12.09472,16.98334,3.77587,35.129-8.04444,41.07739-10.26367,5.1651-17.57055,2.42859-21.36938-8.42328-.63575-1.81646-.99561-3.73028-1.47193-5.60186-.45849-1.80188-.90283-3.60743-1.35351-5.41132-1.44287,10.73352.89306,20.55194,5.93994,29.76874,3.57446,6.52771,8.25464,12.0495,14.93652,15.57025,13.47754,7.10132,27.36646-.60651,28.33106-15.6908.34546-5.40026.72217-10.80395.84472-16.21148.11109-4.89209-.12671-10.38745-3.38134-13.782C262.1749,576.56512,261.70713,573.36638,260.57627,570.003Z"/><path d="M275.93369,647.06743c-2.377.17865-3.44165-2.13916-6.54858-3.4259a9.03232,9.03232,0,0,0,4.90844,7.24951c1.678.95356,3.50489-.0791,4.1416-1.87494C279.34824,646.43957,277.41074,646.95635,275.93369,647.06743Z"/><path d="M283.61533,535.18554c-2.82324.07464-3.4353,2.56854-3.3479,5.07574.07642,2.18567.91455,3.83869,3.35815,3.65711,2.09131-.1554,2.82813-1.658,2.61646-4.13617C284.34507,539.05523,287.13755,535.0924,283.61533,535.18554Z"/><path d="M383.83091,513.27117a19.43477,19.43477,0,0,0,.00952,1.97565c.33252,2.91766.74927,6.74951,4.37915,6.07129,2.18945-.40912,7.55347-1.73243,4.18481-6.96363-.73828-1.1466.49366-2.41412,1.543-2.64276,5.07617-1.106,2.4458-4.66827,1.69165-6.67773-1.07422-2.86182-3.74048-2.256-6.323-1.24158C384.71885,505.598,383.57847,509.10741,383.83091,513.27117Z"/><path d="M415.93638,536.74816c1.94287.4212,2.80712-1.54376,3.13256-4.04114-.93066-1.79077-2.25366-4.18445-4.73535-4.6242-2.07251-.36719-2.6709,1.80773-2.54321,3.68792A5.27044,5.27044,0,0,0,415.93638,536.74816Z"/><path d="M349.4083,566.67449c11.96435-1.5144,15.70215-10.494,19.63769-21.36157-6.73828,4.095-10.70092,9.97552-17.41577,11.84668-6.84448,1.90722-13.16675.51886-19.71582-2.50452C334.82944,563.67614,341.25229,567.70678,349.4083,566.67449Z"/><path d="M357.84678,533.22582c-3.31934-2.24115-2.78467,2.15167-4.49244,2.65875a52.70071,52.70071,0,0,1-6.13086,1.58838c-2.07959.35266-4.2976.067-6.30883.60681-3.7273,1.00037-7.8523,2.01337-7.31836,7.28278.59082,5.82721,3.45215,8.72522,8.946,8.68927a30.164,30.164,0,0,0,13.47119-2.99707c3.95874-1.98389,6.55494-4.795,5.87329-9.69635C362.77524,537.619,360.743,535.18114,357.84678,533.22582Z"/><path d="M218.297,521.49486a8.73919,8.73919,0,0,0,2.10474,6.522c4.24878,5.40124,13.8479,7.49316,21.8081,4.733,6.01587-2.08594,13.16675-11.35474,13.07032-17.00739-.01221-.70831-.1753-1.95312-.50123-2.03613-4.88891-1.24524-5.94677-5.94482-8.52392-10.26807C241.10605,516.59771,234.05771,525.7456,218.297,521.49486Z"/><path d="M550.15049,407.62133c-1.8855,9.07306.69189,17.76056-1.896,27.01538-2.90088,10.3739-.52,22.27991-3.0542,33.34265-.35522,1.5506-.16772,3.08466,1.58692,4.93152,5.71044-8.21149,2.93188-17.81159,5.82788-26.35114.67456,4.26416-.35279,8.91248.95166,12.773,1.41821,4.19648-.61011,7.537-.62476,11.27436-.01538,3.9599-.63818,7.40637,4.654,8.74475,2.94654.74518,5.04077,3.65973,6.5354,6.3811,11.25342,20.49011,14.99414,50.7395-5.07275,72.676-8.63306,9.4375-18.97754,13.26812-31.37036,8.37353-2.51636-.99383-2.8.30957-3.92212,1.63666-4.70044,5.55981-6.82373,12.86413-12.37524,17.89-1.48047,1.34034-.66578,3.33777.564,5.175,11.06079,16.52667,13.16309,34.86975,10.27856,54.02954-1.0332,6.86475-4.03784,12.98847-9.84668,17.22687-4.91308,3.58514-10.28955,5.43689-17.21411,3.67279,17.311-10.67035,24.87671-28.636,20.29663-46.75684-4.25781-16.84558-18.45312-25.77868-32.51782-19.79949-14.35571,6.10278-21.37695,18.61865-23.62158,33.0241-2.03589,13.06611,4.771,23.08533,16.845,30.31836-10.311,1.399-19.18994-3.36645-24.99756-13.19079-1.30517-2.208-2.54541-3.669-4.76953-1.829-14.86084,12.29571-31.99512,20.76269-49.12988,29.1914-2.99561,1.4737-3.98535,2.59467-2.58838,5.86567,5.36157,12.55541-4.61865,25.40771-14.21924,28.90911-16.48755,6.01325-28.50708,2.27527-38.45483-12.1438-1.67627-2.42968-3.09986-2.78472-5.63575-2.32531-6.85131,1.24127-13.71362,2.51245-20.626,3.28747-3.77344.4231-6.752.82538-7.1814,5.50806-.13623,1.48688-.31348,4.16217-3.47632,2.98645-1.06567-.39612-1.489.76855-1.68042,1.79761-1.19311,6.41571-10.46557,12.94439-18.71582,12.62146,10.439-5.18762,17.71241-12.58838,21.4419-23.03809,3.18628-8.92682,1.04126-17.10113-6.2312-23.0296-8.38135-6.83228-17.79712-11.78534-28.66822-13.17047-23.77758-3.0296-35.9165,10.33746-32.22534,34.56256a17.11656,17.11656,0,0,0,6.72412,11.19867c4.56275,3.50647,9.11548,7.0263,14.17554,10.928-2.0376-.21094-3.50635-.27143-4.94067-.52619-9.95874-1.76928-19.97828-5.00317-21.91529-16.006-1.50268-8.53619-5.46582-11.44958-12.9563-12.18133a20.48514,20.48514,0,0,1-3.34082-.96045c-45.08764-12.5459-82.29126-36.10358-107.28833-76.74481-.52221-.84919-.85839-2.12281-2.28881-2.1803a262.38309,262.38309,0,0,0,21.60522,45.098,256.98982,256.98982,0,0,0,71.16382,74.67981c48.99048,34.34369,103.62329,50.16394,163.39819,47.262,119.65674-5.80914,220.56275-93.01239,243.728-210.278,14.67261-74.27557-3.96045-143.7605-39.21338-196.69513-5.97827,9.31317-12.00977,18.17273-17.3855,25.17114A28.70146,28.70146,0,0,1,550.15049,407.62133ZM170.19,678.60369c-.60938,1.46374-1.68848,1.163-2.8562.7478-4.78077-1.70007-8.40039-4.79065-12.18189-9.90838,5.96045,2.0288,9.19068,6.405,14.166,7.348A1.29938,1.29938,0,0,1,170.19,678.60369Zm105.19116,54.0567c12.21387,1.489,21.957-5.60278,33.47925-10.28979C300.40757,730.98247,288.49717,734.61394,275.3812,732.66039ZM328.858,759.36028a1.25067,1.25067,0,0,1-1.88648.6684c-2.49756-1.76239-2.12451-4.17279-1.00268-8.08C327.36484,755.07024,329.847,756.51385,328.858,759.36028Zm9.41333-25.42053c-.23218,1.87134-3.12305,1.34045-4.9773,1.02307-2.09521-.35864-3.9646-1.03265-4.71265-3.35846,2.20069-1.18091,3.71192.73718,5.56812.85614C335.59067,732.55285,338.65879,730.81554,338.27134,733.93975Zm81.97485-3.36743c.28125.55664-.23779,5.205-3.54858,4.62756-2.64087-.46051-2.58033-3.22882-1.926-5.21332,1.43335-4.34857,3.596-8.28985,7.28174-9.83227C423.93955,723.75677,417.92685,725.98028,420.24619,730.57232Zm14.3689-42.18817c-1.406,3.86853-4.261,5.84124-8.53492,6.36462-1.21582-.17017-3.13525-.05194-3.50952-1.88361-.35766-1.75018,1.61743-1.75927,2.68946-2.41034,2.30371-1.39917,4.58129-2.84179,6.87866-4.2514.7666-.47034,1.51489-1.45929,2.49414-.4931C435.46933,686.53545,434.94516,687.47576,434.61509,688.38415Zm33.69213-9.44068c-.26709,2.00293-3.00488,1.84162-4.89819,1.41437-1.82373-.41162-3.91626-.68372-3.801-3.94751,1.90234.395,3.36547.76465,4.85058.98883C465.94248,677.623,468.67417,676.18853,468.30722,678.94347Zm9.48707,36.54267c-1.823,2.53363-4.86182,3.53527-8.958,4.91589,1.67846-2.88068,2.89062-4.73248,2.34692-6.723-.9209-3.3725-.82812-5.2063,3.52149-3.97766,1.32153.37329,3.46826-2.40436,4.32031.00244C479.59922,711.32555,478.88047,713.97643,477.79429,715.48614Zm24.595-44.02759c8.03418-1.26435,14.25781-5.86475,20.58349-11.47711C520.23154,667.70476,511.36557,672.51623,502.38926,671.45855ZM557.419,599.36492a7.26463,7.26463,0,0,1-6.35937,4.14728c-.75318.05328-1.73023-.31726-1.61109-1.19141.29859-2.1878,1.9187-3.65729,3.43628-5.03546a50.22635,50.22635,0,0,1,4.73364-3.42322C559.12705,595.47826,558.36094,597.47259,557.419,599.36492Zm17.53418-136.82459a4.07628,4.07628,0,0,1,2.29688-3.45922c1.43261.57415,2.30468,1.64483,1.85888,2.70575-.58545,1.3941-.58154,3.77246-2.93286,3.53405C574.77182,465.17858,574.79551,463.67425,574.95322,462.54033Zm-10.36865-27.70709c.33227,1.19922-.03027,2.32538-1.53174,2.48072a1.79492,1.79492,0,0,1-2.26416-1.85547c-.20093-2.90625-.47363-5.80756-.71655-8.71088C563.60434,428.84807,563.79306,431.97484,564.58457,434.83324ZM560.255,455.63067c2.21948,5.30676,2.54,10.60016-.03613,15.87329C557.60825,466.19445,560.17759,460.92132,560.255,455.63067Z"/><path d="M230.93076,513.76763c3.5498-2.2522,7.49927-3.58282,11.50732-5.11548-4.69336-3.74206-10.15136-3.88855-14.26513-.53528-2.11133,1.72107-2.10474,4.77185-1.55762,6.37769C227.31821,516.5584,229.62534,514.59575,230.93076,513.76763Z"/><path d="M207.0167,461.33562A43.67016,43.67016,0,0,1,228.36777,449.087c1.91748-.44348,5.01074.69128,5.59326-1.62482.68848-2.73828-1.6416-4.97113-3.55346-6.90723-2.4541-2.48541-5.60279-3.30175-9.6355-3.51843a23.21371,23.21371,0,0,0-18.58521,11.2688c-2.103,3.41376-3.16113,7.35345-1.17334,11.59821C202.597,463.285,203.704,464.667,207.0167,461.33562Z"/><path d="M207.88486,483.6972c10.85816,9.30584,23.69531,6.09045,28.79639-7.14649a61.4639,61.4639,0,0,0,3.43847-23.3963c-10.0017,16.91742-28.51782,24.839-40.16918,16.57831C200.70639,475.86187,203.72812,480.1347,207.88486,483.6972Z"/><path d="M266.50351,474.50951c-4.55639.35828-9.13916,9.83789-13.67773-.78174-1.89819,5.14435.80322,7.09174,4.21973,8.166C261.32773,483.2401,264.92148,480.295,266.50351,474.50951Z"/><path d="M237.98862,563.43017c-.613-1.5719,2.64258-2.72754.49024-4.4917-1.55591-1.27539-2.94434-.36768-4.29248.26642-12.23462,5.75494-14.98267,20.99469-5.53248,30.53509,7.76758,7.84168,10.61622,7.29614,14.55079-2.91467.51757-1.34369,1.80737-2.6145.96167-4.4101-2.79981.88056-2.48291,4.66211-6.07593,5.878,2.46533-5.391,4.89892-10.09411,6.79248-15.00531C247.367,566.84588,244.79233,563.35357,237.98862,563.43017Z"/><path d="M224.15732,542.4143c-2.04565-.0185-4.25732-.18738-5.31665,2.44647,2.11353.67554,4.11133.8656,5.86206-.607C224.91318,544.07683,224.36338,542.41619,224.15732,542.4143Z"/><path d="M539.34873,337.18688q1.12757,1.17536,2.24219,2.37085.25964-1.385.52392-2.77576.33143-1.7437.66846-3.49341-.9408,1.07868-1.93628,2.2074Q540.1113,336.32983,539.34873,337.18688Z"/><path d="M429.263,431.20232c-1.72974.87781-3.50733,1.70319-5.33912,2.46112-.2705.11188-.54223.20954-.813.31793-1.69751,4.01111-3.084,8.21-4.40259,12.46167A181.81123,181.81123,0,0,1,429.263,431.20232Z"/><path d="M535.32676,360.06969a40.72426,40.72426,0,0,0-3.57813-14.5227q-1.32275,1.42292-2.66113,2.83764C531.19443,352.26012,533.12119,356.25158,535.32676,360.06969Z"/><path d="M489.66245,351.74511a79.11784,79.11784,0,0,1-7.56177,7.71106A20.87643,20.87643,0,0,0,489.66245,351.74511Z"/><path d="M148.6229,395.75414c.458-.58276,2.06958-.708,1.13672-1.79883-.42676-.499-1.04053-.22644-1.61084.15827.08935.48187.17578.95752.25659,1.42206v.00042c.02148.122.04.23865.06055.35944.05224-.04822.10473-.09223.157-.1413Z"/><path d="M422.05332,720.15429c-3.68579,1.54242-5.84839,5.4837-7.28174,9.83227-.6543,1.9845-.71484,4.75281,1.926,5.21332,3.31079.57745,3.82983-4.07092,3.54858-4.62756C417.92685,725.98028,423.93955,723.75677,422.05332,720.15429Z"/><path d="M275.3812,732.66039c13.116,1.95355,25.02637-1.67792,33.47925-10.28979C297.33823,727.05761,287.59507,734.1494,275.3812,732.66039Z"/><path d="M474.70469,709.70141c-4.34961-1.22864-4.44239.60516-3.52149,3.97766.5437,1.99048-.66846,3.84228-2.34692,6.723,4.09619-1.38062,7.135-2.38226,8.958-4.91589,1.08618-1.50971,1.80493-4.16059,1.23071-5.78229C478.173,707.29705,476.02622,710.0747,474.70469,709.70141Z"/><path d="M432.13877,686.20342c-2.29737,1.40961-4.575,2.85223-6.87866,4.2514-1.072.65107-3.04712.66016-2.68946,2.41034.37427,1.83167,2.2937,1.71344,3.50952,1.88361,4.27393-.52338,7.12891-2.49609,8.53492-6.36462.33007-.90839.85424-1.8487.01782-2.67383C433.65366,684.74413,432.90537,685.73308,432.13877,686.20342Z"/><path d="M522.97275,659.98144c-6.32568,5.61236-12.54931,10.21276-20.58349,11.47711C511.36557,672.51623,520.23154,667.70476,522.97275,659.98144Z"/><path d="M552.88486,597.28533c-1.51758,1.37817-3.13769,2.84766-3.43628,5.03546-.11914.87415.85791,1.24469,1.61109,1.19141a7.26463,7.26463,0,0,0,6.35937-4.14728c.9419-1.89233,1.708-3.88666.19946-5.50281A50.22635,50.22635,0,0,0,552.88486,597.28533Z"/><path d="M169.318,676.79107c-4.97534-.94293-8.20557-5.31916-14.166-7.348,3.7815,5.11773,7.40112,8.20831,12.18189,9.90838,1.16772.41522,2.24682.71594,2.8562-.7478A1.29938,1.29938,0,0,0,169.318,676.79107Z"/><path d="M560.255,455.63067c-.07739,5.29065-2.64673,10.56378-.03613,15.87329C562.795,466.23083,562.47446,460.93743,560.255,455.63067Z"/><path d="M563.05283,437.314c1.50147-.15534,1.864-1.2815,1.53174-2.48072-.79151-2.8584-.98023-5.98517-4.51245-8.08563.24292,2.90332.51562,5.80463.71655,8.71088A1.79492,1.79492,0,0,0,563.05283,437.314Z"/><path d="M464.45859,677.39916c-1.48511-.22418-2.94824-.59381-4.85058-.98883-.11524,3.26379,1.97729,3.53589,3.801,3.94751,1.89331.42725,4.6311.58856,4.89819-1.41437C468.67417,676.18853,465.94248,677.623,464.45859,677.39916Z"/><path d="M334.14951,732.4605c-1.8562-.119-3.36743-2.03705-5.56812-.85614.748,2.32581,2.61744,2.99982,4.71265,3.35846,1.85425.31738,4.74512.84827,4.9773-1.02307C338.65879,730.81554,335.59067,732.55285,334.14951,732.4605Z"/><path d="M326.97153,760.02868a1.25067,1.25067,0,0,0,1.88648-.6684c.989-2.84643-1.49317-4.29-2.88916-7.41156C324.847,755.85589,324.474,758.26629,326.97153,760.02868Z"/><path d="M576.17612,465.32091c2.35132.23841,2.34741-2.13995,2.93286-3.53405.4458-1.06092-.42627-2.1316-1.85888-2.70575a4.07628,4.07628,0,0,0-2.29688,3.45922C574.79551,463.67425,574.77182,465.17858,576.17612,465.32091Z"/><path d="M200.26523,407.85131l-.00024.00018q-.09192-.33462-.18262-.6698-.212.09669-.42407.19342.29663.24316.593.48645c.47,2.16077,2.606,2.12543,4.01611,3.04712q.38709-.42526.762-.8612C203.63486,408.89593,202.44834,407.29241,200.26523,407.85131Z"/><path d="M396.49277,561.36779c-1.228.85962-3.43408,1.0119-3.28515,3.23425a2.582,2.582,0,0,0,2.71337,2.44122c1.73926-.18817,2.293-1.8432,2.46973-3.43847C398.53013,562.34588,398.2916,561.27025,396.49277,561.36779Z"/><path d="M531.74863,345.547c2.63355-2.83252,5.20508-5.6687,7.6001-8.36011q.76135-.85584,1.49829-1.69092.99535-1.12829,1.93628-2.2074.19738-1.023.39722-2.048c2.61352-13.42822,5.47461-27.00561,8.24853-39.40723a31.31922,31.31922,0,0,0-4.38013-2.939c-.585.22559-1.187.42383-1.79834.60718a24.69053,24.69053,0,0,1-2.74414.67431q-8.94579,4.3733-17.92651,8.24109c-.20679.08936-.41357.18067-.62061.26966q-5.99927,2.58123-12.00708,4.94873c-.47705.18811-.95434.373-1.43164.5592-.22607,1.47363-.49951,3.04993-.832,4.71716-.116.58081-.23681,1.16919-.36719,1.77051-.46875,2.16089-1.03662,4.45069-1.71923,6.8313-.50464,1.75977-1.075,3.57-1.71558,5.416q2.40528-.70129,4.75-1.42188,2.44116-.74962,4.81763-1.5188-.95947,2.63178-1.86841,5.23682c-1.46558,4.20141-2.82153,8.3186-4.04224,12.25122-3.94751,12.71875-6.46167,23.48291-6.55224,28.73755-.03662,2.13037.32422,3.35669,1.14966,3.43921a1.00319,1.00319,0,0,0,.26025-.00916c3.94018-.63147,13.58325-9.63586,23.24634-19.74512q.72033-.75347,1.43994-1.51477Q530.42381,346.97215,531.74863,345.547Z"/><path d="M164.14707,324.5675a105.74175,105.74175,0,0,1-4.34424-15.44507c-.16553-.82105-.31494-1.61743-.45312-2.39453-.15625-.04859-.31031-.09717-.46583-.14576-1.30761-.40893-2.5996-.81616-3.86181-1.22-16.23047-5.1936-28.65454-9.92895-36.39087-13.06494-.66846.63965-1.28394,1.26685-1.82471,1.88135,3.16236,8.18188,6.3794,16.90527,9.50073,25.75635,5.25245,6.663,12.46485,15.48779,19.71094,23.82068,2.48755,2.86059,4.97754,5.66,7.39478,8.29675,2.51587,2.74438,4.95068,5.30823,7.21777,7.57226,4.93921,4.93262,9.0813,8.44117,11.511,9.26368,2.52051.853,2.429-5.27039.52026-15.12683-.38159-1.97107-.834-4.087-1.35474-6.33118-.45312-1.95166-.95654-3.99756-1.50585-6.11914-.46143-1.78174-.95655-3.61939-1.48047-5.49878q-.5149-1.847-1.06714-3.74671c-1.01416-2.18371-1.91968-4.35022-2.72656-6.48034Q164.33384,325.07518,164.14707,324.5675Z"/><path d="M520.01938,203.53551a124.17781,124.17781,0,0,0-2.67871-12.47082A124.2522,124.2522,0,0,1,520.01938,203.53551Z"/><path d="M521.88193,171.31286c-1.17529-.00122-2.35254.03222-3.52807.04077-1.74048.01269-3.053.02466-4.00953.13708.95679-.11242,2.26929-.12439,4.00977-.137C519.52964,171.34533,520.70664,171.31164,521.88193,171.31286Z"/><path d="M442.99472,93.13854c17.16211,9.9519,31.30518,23.178,44.25977,37.91187.63672.72436,1.46045,1.363,1.29981,2.50463q.33288.48414.66552.96534c1.83228.2207,2.29053,1.91284,3.09766,3.09594,4.01269,5.8833,7.906,11.84815,12.30322,17.73243.521-11.01465.3-22.015.031-33.009l-11.04077,2.714q-2.57154-2.27252-5.221-4.47717l.95386-28.34717a8.37854,8.37854,0,0,0-3.533-7.18823,7.66842,7.66842,0,0,0-7.72046-.65357L453.39121,96.12987c-1.9895-1.14074-3.98926-2.27136-6.01074-3.36413L443.016,64.83092a8.245,8.245,0,0,0-4.81421-6.3313,7.65927,7.65927,0,0,0-7.687.93335l-22.021,16.52234c-2.168-.72058-4.34595-1.41076-6.55176-2.07055L392.451,47.3944a8.037,8.037,0,0,0-5.90454-5.24011,7.77186,7.77186,0,0,0-7.36279,2.47888L361.17588,64.7799a213.09855,213.09855,0,0,1,23.5625,4.19409C405.49326,73.86486,424.59946,82.47155,442.99472,93.13854Z"/><path d="M512.45224,174.85131c.20752.818.53028,1.829.939,3.08484q.53174,1.634,1.05054,3.26929-.51745-1.63569-1.05054-3.26941C512.98252,176.68017,512.65976,175.6693,512.45224,174.85131Z"/><path d="M512.76181,171.95544a2.601,2.601,0,0,1,.93067-.36011A2.59859,2.59859,0,0,0,512.76181,171.95544Z"/><path d="M527.72544,171.88293h.00024c11.52637,1.26586,19.4458,7.44238,24.19654,17.86376a24.67942,24.67942,0,0,1,1.30541,3.56739l9.167-20.98682a8.56012,8.56012,0,0,0-.6211-8.05688,7.81515,7.81515,0,0,0-6.89087-3.68225l-27.18164.98754c-.697-.9071-1.41821-1.7915-2.12671-2.68847.04688,2.97595.08106,5.95178.083,8.92785C525.65879,169.79186,527.1207,170.49962,527.72544,171.88293Z"/><path d="M486.565,134.604a2.28073,2.28073,0,0,1,.37622-.29431,2.28008,2.28008,0,0,0-.37622.29419c-4.25684,4.178-8.46485,8.40576-12.67188,12.63379C478.10019,143.00963,482.3082,138.78185,486.565,134.604Z"/><path d="M525.36777,147.46911l4.28394-18.93665a8.53951,8.53951,0,0,0-2.11792-7.77624,7.9215,7.9215,0,0,0-2.45459-1.74024c.05957,5.0763.14428,10.15259.1394,15.22779C525.21421,138.65221,525.2855,143.06066,525.36777,147.46911Z"/><path d="M141.49106,407.85106c.7793.5528,1.522,1.04334,2.21949,1.45759a15.36379,15.36379,0,0,0,2.71777,1.32147,1.81668,1.81668,0,0,0,2.52978-1.269c.87647-2.22467.62037-6.9627-.49218-13.46557-.02051-.12079-.03907-.23743-.06055-.35944v-.00042c-.08081-.46454-.16724-.94019-.25659-1.42206-.70581-3.80475-1.6709-8.139-2.85108-12.88-.97509-3.91772-2.09692-8.11267-3.33764-12.51013q-.21425-.75988-.43409-1.52856c-1.20459-4.22229-2.51171-8.61695-3.90405-13.13013-3.39136-10.99536-7.2727-22.66968-11.3147-34.12988-3.12133-8.85108-6.33837-17.57447-9.50073-25.75635.54077-.6145,1.15625-1.2417,1.82471-1.88135,7.73633,3.136,20.1604,7.87134,36.39087,13.06494,1.26221.40381,2.5542.811,3.86181,1.22.15552.04859.30958.09717.46583.14576.13818.7771.28759,1.57348.45312,2.39453a105.74175,105.74175,0,0,0,4.34424,15.44507q.186.50719.38013,1.01782c.80688,2.13012,1.7124,4.29663,2.72656,6.48034.50073,1.07825,1.02368,2.15992,1.57934,3.24366a80.3987,80.3987,0,0,0,38.69776,37.26049q2.8623,1.31617,5.94653,2.48011a44.47013,44.47013,0,0,0,1.48242,19.48517,56.61345,56.61345,0,0,0,11.62451,20.72039A72.52919,72.52919,0,0,0,258.20347,436.117a71.5948,71.5948,0,0,0,41.93139,1.65551,175.68293,175.68293,0,0,1-12.97729-14.44006c-2.14209-2.65076-4.13208-5.25018-5.96167-7.735-4.12378-5.59979-7.40894-10.59283-9.65284-14.17132-2.20654-3.51837-3.41235-5.67377-3.41235-5.67377s3.42481.45227,9.51465,1.083c.8.08288,1.657.16931,2.54761.25775q-1.10267-.26889-2.19458-.55011a175.60033,175.60033,0,0,1-28.99854-10.05841c-2.24316-1.01856-4.446-2.06329-6.56177-3.15943a131.616,131.616,0,0,1-13.69482-8.637c-3.44507-2.41516-6.90918-4.971-10.05615-7.37036-.18262-.13916-.36206-.27637-.54224-.41443q-1.01624-.778-1.97729-1.52576c-.21582-.16772-.4253-.33178-.63648-.49682-1.43066-1.11817-2.76587-2.17945-3.93677-3.13062-5.03881-4.09363-10.45141-10.3103-14.771-15.97192-.98389-1.28955-1.91162-2.55066-2.76489-3.751-1.58082-2.22412-6.01343-8.22607-8.38892-11.436-.93359-1.26148-1.54981-2.092-1.54981-2.092-1.09033-1.51563-2.12109-3.02918-3.12768-4.54383-2.06909-3.1134-3.98926-6.23645-5.813-9.41223q-1.05542-1.83765-2.07764-3.702c-2.06616-3.76734-4.05468-7.62928-6.07812-11.66053a24.93931,24.93931,0,0,0-1.37427-2.16821c-2.51709-.01209-5.03174.09644-7.54687.20447q-1.37256.05915-2.74585.10815c-.11133.004-.22266.00891-.33423.01282a66.95759,66.95759,0,0,1-11.83936-.404c-6.8291-.97181-13.35766-4.96521-17.96582-10.44837a26.59636,26.59636,0,0,1-6.59424-16.61755c-.03662-4.4336-.11889-8.86633-.21728-13.29883q-.13037-5.87109-.28149-11.74194c-.252-10.24121-.47388-20.48316-.33619-30.73169.05542-4.1128-.47363-8.19934.32349-12.32739,2.87524-14.89246,15.97217-24.54273,29.33765-24.17872,1.73828.04725,3.48-.02539,5.219-.04211q.5907-.85053,1.07983.06042,2.67408-.16222,5.34815-.3247c3.01758-6.32593,5.84814-12.74951,9.0935-18.95655a161.183,161.183,0,0,1,20.99976-30.51049,175.0899,175.0899,0,0,1,40.52832-34.46485,194.62186,194.62186,0,0,1,36.188-17.63379A198.27,198.27,0,0,1,296.8541,67.1588a177.173,177.173,0,0,1,24.16455-3.2019c6.415-.32129,12.82105-.58887,19.23926-.53882,4.44287.03467,8.86181.25147,13.26416.60193L339.60434,40.569a7.78623,7.78623,0,0,0-13.52783,0L311.76035,64.68273c-2.24951.19409-4.50244.42957-6.7395.68762L286.48349,44.63317a7.78422,7.78422,0,0,0-7.36523-2.47888,8.03858,8.03858,0,0,0-5.90186,5.24011l-9.49926,26.49036c-2.199.65979-4.37793,1.35608-6.55127,2.07055L235.15244,59.433a7.65957,7.65957,0,0,0-7.69971-.93335,8.25564,8.25564,0,0,0-4.80737,6.3313l-4.36768,27.93482q-3.03075,1.63916-6.01538,3.36413L187.56553,84.38756a7.65479,7.65479,0,0,0-7.71924.65357,8.37922,8.37922,0,0,0-3.531,7.18823l.94727,28.34717q-2.63636,2.19909-5.22,4.47717l-26.47071-6.50842a7.7622,7.7622,0,0,0-7.45459,2.21094,8.53107,8.53107,0,0,0-2.12329,7.77624l6.23535,27.61218q-2.16979,2.68452-4.281,5.431l-27.18115-.98754a7.913,7.913,0,0,0-6.89454,3.68225,8.59826,8.59826,0,0,0-.625,8.05688l11.26075,25.7605c-1.094,2.06909-2.18067,4.15454-3.22583,6.272L84.49985,208.905a8.02344,8.02344,0,0,0-6.07275,5.01233,8.62911,8.62911,0,0,0,.89575,8.02978l15.48877,22.4336a27.115,27.115,0,0,0-2.501,1.323c-.23852-.0553-.47754-.10889-.71631-.15186,0,0-53.4956,26.26123-23.00463,78.80335.1809,1.66882,24.22534,33.05822,46.26513,57.57739q1.17078,1.30262,2.33277,2.57721c2.67138,2.9306,5.29785,5.73687,7.835,8.35687C131.30918,399.35894,137.03721,404.69158,141.49106,407.85106Z"/><path d="M555.28916,261.88537a29.31874,29.31874,0,0,1-12.82886,24.47412,30.00882,30.00882,0,0,1-15.26294,5.21094c-.41235.02417-.82568.04565-1.24267.053-.458.0083-.91651.00513-1.37476.0116-5.20142.07324-10.4043.051-15.60645.07324.97974-4.45471,3.49244-8.317,4.78687-12.6875,1.70215-5.74768,3.61084-11.39978,4.95776-17.28125q.96387-4.20941,1.67774-8.4375-.71374,4.22809-1.67774,8.43738c-1.34692,5.88159-3.25561,11.53369-4.95776,17.28125-1.29443,4.37061-3.80737,8.23291-4.78711,12.6875-.09448.20032-.1814.38635-.27344.582-1.17627,2.50073-2.168,4.65308-3.11889,6.68164-.83521,1.782-1.64649,3.48047-2.53223,5.25147q-.36219.72473-.74414,1.47033-.49548.9659-1.03833,1.98914c-.18286.34534-.36572.69043-.55859,1.04822-1.10059,2.04309-2.36939,4.30371-3.91919,6.95959a100.22765,100.22765,0,0,1-7.51734,10.49414l-1.00439,1.426-4.12378,5.85425c-.16821.21142-.3606.4508-.54639.68237-.75268.939-1.63525,2.02588-2.62134,3.22388-4.9602,6.02563-12.30932,14.5791-16.45752,18.197,0,0-2.09228,1.69262-5.43945,4.27734-.23242.17957-.46289.35742-.70727.54541-1.62427,1.24915-3.5105,2.68067-5.56885,4.21216-3.78345,2.81494-8.15894,5.97192-12.63623,8.99878a147.62078,147.62078,0,0,1-16.14722,9.7232,177.589,177.589,0,0,1-16.82446,7.25068c-3.14722,1.17151-6.32935,2.23907-9.53125,3.24023a207.2407,207.2407,0,0,1-35.58179,7.7005l-.07422.00922.075-.00257a503.15961,503.15961,0,0,0,51.40479-4.566,233.62756,233.62756,0,0,1-32.96387,40.37341,62.266,62.266,0,0,0,12.69312,1.87836,71.80608,71.80608,0,0,0,29.895-5.22761c.27075-.10839.54248-.20605.813-.31793,1.83179-.75793,3.60938-1.58331,5.33912-2.46112a73.03427,73.03427,0,0,0,12.00756-7.64026,66.74782,66.74782,0,0,0,12.5398-12.81317,59.96879,59.96879,0,0,0,3.92627-6.05585c5.67114-10.002,7.99243-21.04779,6.1333-31.60455-.07764-.44116-.14526-.88367-.23755-1.323a80.71468,80.71468,0,0,0,18.46826-12.30932,79.11784,79.11784,0,0,0,7.56177-7.71106,83.8285,83.8285,0,0,0,9.2644-13.30432,95.087,95.087,0,0,0,6.95972-15.51123c.64063-1.84607,1.21094-3.65625,1.71558-5.416.68261-2.38061,1.25048-4.67041,1.71923-6.8313.13038-.60132.25123-1.1897.36719-1.77051.33252-1.66723.606-3.24353.832-4.71716.4773-.18616.95459-.37109,1.43164-.5592q6.007-2.369,12.00708-4.94873c.207-.089.41382-.1803.62061-.26966q8.97729-3.87945,17.92651-8.24109a24.69053,24.69053,0,0,0,2.74414-.67431c.61133-.18335,1.21338-.38159,1.79834-.60718a31.31922,31.31922,0,0,1,4.38013,2.939c-2.77392,12.40162-5.635,25.979-8.24853,39.40723q-.19959,1.02467-.39722,2.048-.33765,1.74994-.66846,3.49341-.2644,1.39069-.52392,2.77576c-2.11914,11.298-4.00879,22.28857-5.46485,32.16406q-.36255,2.45948-.6875,4.82086c-3.11523,22.62043-3.56689,38.12537,1.43653,35.49726,2.918-1.53272,6.925-5.66828,11.51953-11.40692q1.02538-1.28046,2.08813-2.66535c5.37573-6.99841,11.40723-15.858,17.3855-25.17114q.97485-1.51923,1.94727-3.05127,1.06421-1.678,2.12109-3.36633c15.32812-24.46961,29.18481-49.77039,29.12671-51.19837,15.834-39.9834-8.00025-60.69995-23.27661-69.39331-2.17041-1.235-4.16651-2.2279-5.85279-2.99817l14.38648-20.84192a8.59692,8.59692,0,0,0,.89306-8.02978,8.03962,8.03962,0,0,0-6.0708-5.01233l-26.78418-4.54529c-.03418-.07007-.07055-.13891-.105-.209q.38379,17.38367.72168,34.7688C555.11191,246.57458,555.23008,254.22985,555.28916,261.88537Z"/><path d="M164.64609,293.74987c-.16894-.33985-.33984-.67652-.49609-1.01465-.06812-.14783-.1294-.297-.19727-.44507.06763.14807.12915.29724.19727.44519C164.30625,293.07335,164.47715,293.41,164.64609,293.74987Z"/><path d="M186.29722,169.93529a8.75606,8.75606,0,0,1,5.6206,2.30066,8.75485,8.75485,0,0,0-5.6206-2.30078,9.0208,9.0208,0,0,0-2.50709.20923A9.03084,9.03084,0,0,1,186.29722,169.93529Z"/><path d="M326.99668,344.42455q4.10668.25251,8.28149.30383c2.94946-.05334,5.88526-.2312,8.81861-.405q-6.79652.11061-13.68165.114C329.27231,344.43737,328.13584,344.42907,326.99668,344.42455Z"/><path d="M359.90854,334.61779a553.29922,553.29922,0,0,1-70.55835-1.92212q-6.77856-.61047-13.394-1.358c-.37353-.04212-.74414-.08606-1.1167-.12891.43115.20715.86157.41663,1.29443.61878a132.174,132.174,0,0,0,16.75709,6.47363,140.40584,140.40584,0,0,0,22.82934,5.01782q1.59888.21679,3.20972.39929,3.99865.45465,8.06665.7063c1.13916.00452,2.27563.01282,3.41845.01282q6.88625,0,13.68165-.114c1.18994-.07055,2.37963-.14013,3.56933-.20092a128.36577,128.36577,0,0,0,18.60791-2.32935,132.30529,132.30529,0,0,0,13.32617-3.395c1.35108-.41955,2.69825-.85522,4.03955-1.31787a135.81749,135.81749,0,0,0,12.83985-5.16955q-15.59179,1.73418-30.832,2.45556Q362.771,334.50738,359.90854,334.61779Z"/><path d="M321.02939,114.46984a133.161,133.161,0,0,0-33.84887,7.81445,137.21709,137.21709,0,0,0-43.07642,25.78345,135.35533,135.35533,0,0,0-14.68945,15.47168c-3.70118,4.44727-6.42139,9.74438-9.34278,14.80005a97.782,97.782,0,0,0-8.207,18.38379,106.85377,106.85377,0,0,0-3.11621,11.67724,103.38916,103.38916,0,0,0-1.30347,34.71387,106.59593,106.59593,0,0,0,3.637,16.86231l1.58618,4.37548,1.62939,4.49488a114.04832,114.04832,0,0,0,6.79834,13.89477q1.95411,3.39039,4.13208,6.61353c.52051.77173,1.04444,1.54077,1.58374,2.29846.21851.307.44483.60791.66626.91247a115.02085,115.02085,0,0,0,21.58789,22.436,135.88681,135.88681,0,0,0,25.77344,16.20642c.37256.04285.74317.08679,1.1167.12891q6.61121.74706,13.394,1.358a553.29922,553.29922,0,0,0,70.55835,1.92212q2.86158-.10877,5.739-.25159,15.22632-.74743,30.832-2.45556,2.84033-1.31671,5.60766-2.76111,4.08986-2.14014,8.0044-4.57349a123.03015,123.03015,0,0,0,19.36548-14.82251c.2124-.1991.41259-.405.62353-.605q1.87134-1.77538,3.65576-3.59839a127.97331,127.97331,0,0,0,9.06519-10.25293c.096-.12182.18433-.24792.28-.37q3.01721-3.85272,5.67261-7.90454c.97583-1.48914,1.90747-3.00281,2.80786-4.5337q1.31946-2.24284,2.5249-4.54895,1.61646-3.08,3.0376-6.26855a107.47653,107.47653,0,0,0,8.24121-29.29443c2.04761-15.09375.31323-29.43592-3.76489-43.46289q-1.78455-6.1377-4.124-12.207c-2.718-7.07568-6.90918-13.39965-11.30615-19.532-14.12036-19.6936-32.69336-33.80224-54.9939-42.99341a140.83785,140.83785,0,0,0-31.90576-8.81469A152.619,152.619,0,0,0,321.02939,114.46984ZM281.51914,298.68615a45.395,45.395,0,0,1-5.77588-1.66052c-1.1084-.38941-2.32959-.85779-3.626-1.41517q-1.19311-.51306-2.45727-1.12768a49.25515,49.25515,0,0,1-6.85523-4.05176,36.17407,36.17407,0,0,1-10.50268-11.22436,31.32893,31.32893,0,0,1-3.61988-9.61365c-1.78833-8.89136-.28857-20.35681,7.22095-35.08142a20.19534,20.19534,0,0,1,4.9978-8.81983c.44312-.71557.88526-1.43029,1.35474-2.15942,0,0,42.64331-18.88086,54.28174,23.2616a49.055,49.055,0,0,1,.85815,4.89025,65.05507,65.05507,0,0,1,.5459,9.44031,54.674,54.674,0,0,1-.61157,7.39881,38.98557,38.98557,0,0,1-4.615,13.6643,31.07288,31.07288,0,0,1-2.00708,3.03211,29.7089,29.7089,0,0,1-2.90381,3.33484C302.30356,293.99035,293.98276,297.95409,281.51914,298.68615ZM431.0748,269.79552a26.86527,26.86527,0,0,1-8.14673,15.61048,64.035,64.035,0,0,1-14.86694,8.35388,44.02325,44.02325,0,0,1-9.03393,2.52234,31.92923,31.92923,0,0,1-5.22706.41247,26.1599,26.1599,0,0,1-4.79785-.46679c-5.68139-1.09827-11.21045-4.26514-15.79321-10.8219,0,0-8.86963-8.31507-9.43872-23.47644q-.05017-1.33777-.0105-2.74646c.0044-.15247.0083-.30445.01441-.45813a45.79071,45.79071,0,0,1,1.21386-8.69117,64.64962,64.64962,0,0,1,8.22095-19.069,42.1556,42.1556,0,0,1,7.06738-5.85022,12.22,12.22,0,0,1,4.9524-2.85571c9.56274-4.666,23.63012-6.69873,37.69921,8.70593,0,0,8.28443,15.399,8.665,31.151A40.03111,40.03111,0,0,1,431.0748,269.79552Z"/><path d="M374.0853,241.06237a24.7092,24.7092,0,0,0,1.97192,9.8c2.43433,5.61718,6.8816,9.39221,11.9795,9.39221,4.11255,0,7.79809-2.46253,10.35205-6.35632a23.52911,23.52911,0,0,0,3.60132-12.83594c0-10.59888-6.24781-19.19263-13.95337-19.19263a10.34675,10.34675,0,0,0-2.80786.38916,12.22,12.22,0,0,0-4.9524,2.85571C376.5438,228.55919,374.0853,234.4154,374.0853,241.06237Z"/><path d="M269.28281,261.55285c7.94824,0,14.39063-8.86475,14.39063-19.79456,0-10.93237-6.44239-19.79468-14.39063-19.79468a11.91657,11.91657,0,0,0-8.38184,3.72815,20.19534,20.19534,0,0,0-4.9978,8.81983,26.31667,26.31667,0,0,0-1.009,7.2467C254.89414,252.6881,261.338,261.55285,269.28281,261.55285Z"/><path d="M479.24155,166.94787a9.05578,9.05578,0,0,1,1.553-1.05152A9.04889,9.04889,0,0,0,479.24155,166.94787Z"/><path d="M472.56235,197.6444c-.24707-1.34229-.438-2.70422-.58447-4.083C472.12412,194.94018,472.31528,196.302,472.56235,197.6444Z"/><path d="M527.72568,171.88293h-.00024a20.11345,20.11345,0,0,0-3.54761-.50635c-.75879-.04639-1.51953-.06275-2.281-.0636l-.01489-.00012c-1.17529-.00122-2.35229.03247-3.52783.04089-1.74048.01257-3.053.02454-4.00977.137-.23925.0282-.45605.0625-.65185.10462a2.601,2.601,0,0,0-.93067.36011,1.31478,1.31478,0,0,0-.56445,1.05883,4.29283,4.29283,0,0,0,.08716,1.08142c.04224.23169.09863.483.16772.75562.20752.818.53028,1.82886.939,3.08472q.53174,1.634,1.05054,3.26941c.69018,2.18078,1.35766,4.36523,1.98632,6.55957q.47169,1.64574.9126,3.29968a124.17781,124.17781,0,0,1,2.67871,12.47082c.05127.32373.11255.64429.16065.96912q.36181,2.43476.70581,4.87012.33984,2.43567.63428,4.87317c.02856.24108.06054.48193.08813.72314q.15051,1.30958.27881,2.62c.25537,2.62121.436,5.24572.50024,7.87585q.0553,2.27014.0398,4.53406l.00049.04016q-.01575,2.28424-.10254,4.5625-.08679,2.2782-.24488,4.55054-.19774,2.84068-.50683,5.67224-.46362,4.24749-1.17749,8.47558-.71374,4.22809-1.67774,8.4375c-1.34692,5.88147-3.25561,11.53357-4.95776,17.28125-1.29443,4.37049-3.80713,8.23279-4.78687,12.6875,5.20215-.02221,10.405,0,15.60645-.07324.45825-.00647.91675-.0033,1.37476-.0116.417-.00732.83032-.0288,1.24267-.053a30.00882,30.00882,0,0,0,15.26294-5.21094,29.31874,29.31874,0,0,0,12.82886-24.47412c-.05908-7.65552-.17725-15.31079-.314-22.96582q-.30981-17.38513-.72168-34.7688-.05127-2.30457-.102-4.60877a25.00809,25.00809,0,0,0-.92383-6.2279,24.67942,24.67942,0,0,0-1.30541-3.56739C547.17148,179.32531,539.25205,173.14879,527.72568,171.88293Z"/><path d="M164.64609,293.74987c-.16894-.33985-.33984-.67652-.49609-1.01453-.06812-.14795-.12964-.29712-.19727-.44519q-2.47119-5.39721-4.499-10.87427-.67713-1.82537-1.30664-3.65942c-.91016-2.65161-1.71948-5.32129-2.47534-8.00061-.21485-.76184-.447-1.52063-.64966-2.28479a144.31669,144.31669,0,0,1-4.83887-34.771q-.03992-2.47742.00635-4.97021.08056-4.59082.44922-9.23389c.0083-.10571.012-.21069.02051-.31665.00976-.11938.02343-.23828.0332-.35766a149.15223,149.15223,0,0,1,5.51611-29.94825c.64551-2.187,1.64478-4.2893,2.28272-6.48852a13.53239,13.53239,0,0,0,.60449-4.10205q-2.67408.16241-5.34815.3247c-.40966.86182-.76635.77881-1.07983-.06042-1.739.01672-3.48071.08936-5.219.04211-13.36548-.364-26.46241,9.28626-29.33765,24.17872-.79712,4.12805-.26807,8.21459-.32349,12.32739-.13769,10.24853.08423,20.49048.33619,30.73169q.14429,5.87109.28149,11.74194c.09839,4.4325.18066,8.86523.21728,13.29883a26.59636,26.59636,0,0,0,6.59424,16.61755c4.60816,5.48316,11.13672,9.47656,17.96582,10.44837a66.95759,66.95759,0,0,0,11.83936.404c.11157-.00391.2229-.00879.33423-.01282q1.37292-.05036,2.74585-.10815c2.51513-.108,5.02978-.21656,7.54687-.20447a5.78617,5.78617,0,0,0-.519-2.22949C164.982,294.43236,164.81528,294.08959,164.64609,293.74987Z"/><path d="M514.96445,96.86657a28.06013,28.06013,0,0,0,9.21021-1.83081q.65221-.249,1.30249-.53491c12.00122-4.189,18.64453-13.21949,20.532-25.18311,2.657-16.83789-7.52417-31.2688-23.99072-35.6648a31.92473,31.92473,0,0,0-34.78125,13.36182c-8.00757,12.35-6.45826,26.90259,1.49658,37.61487,3.926,5.28674,9.33887,8.71924,15.53833,10.89978a42.56765,42.56765,0,0,0,5.36523,1.06421A33.31118,33.31118,0,0,0,514.96445,96.86657Z"/><path d="M488.30576,133.668a10.96336,10.96336,0,0,0-1.3645.64172,2.28073,2.28073,0,0,0-.37622.29431c-4.25684,4.17786-8.46485,8.40564-12.67188,12.63367-.13135.13208-.26562.26734-.384.41089a2.26148,2.26148,0,0,0-.16333.22192,1.17151,1.17151,0,0,0-.20361.77564,1.52974,1.52974,0,0,0,.24414.645c.13379-.01953.2998-.01282.45361-.0221a.59813.59813,0,0,0,.3811-.11743q7.52014-7.29436,14.99878-14.6311v-.00012q-.33252-.48193-.66552-.96534C488.47422,133.59557,488.38877,133.63048,488.30576,133.668Z"/><path d="M153.74765,177.60753q-.48961-.91222-1.07983-.06042C152.9813,178.38634,153.338,178.46935,153.74765,177.60753Z"/><path d="M173.01474,199.13366a39.31734,39.31734,0,0,0,.73951,5.15332c.1123.53076.22241,1.06225.35913,1.5852q.28564,1.09187.64575,2.15918a28.98613,28.98613,0,0,0,2.49048,5.41822q.61339,1.04223,1.32788,2.04687c.14038.1969.26367.40039.4104.595a13.40806,13.40806,0,0,0,1.63965,1.82166,10.95268,10.95268,0,0,0,.86987.71972,8.6671,8.6671,0,0,0,2.74976,1.39331,7.28559,7.28559,0,0,0,1.90185.28968c.01514.00024.03028-.00244.04517-.00232a7.29273,7.29273,0,0,0,1.86694-.22058,10.40629,10.40629,0,0,0,5.40942-3.75245,24.94437,24.94437,0,0,0,4.80494-9.88964c.22021-.87745.40429-1.76563.55932-2.66211.27906-1.61353.4607-3.25562.59107-4.91248q.13074-1.65765.20385-3.33191a38.46614,38.46614,0,0,0-4.15087-18.26074q-.17433-.34954-.35694-.69458c-.32275-.60815-.66919-1.19946-1.04126-1.7666-.21924-.33374-.44751-.6582-.6875-.97046-.26025-.33862-.53271-.66382-.8208-.971-.01831-.01928-.03515-.04028-.05322-.05957q-.29-.30488-.60132-.58545a8.75606,8.75606,0,0,0-5.6206-2.30066,9.03084,9.03084,0,0,0-2.50709.20911q-.38012.0888-.73706.21094a7.95412,7.95412,0,0,0-2.53295,1.43994,10.4437,10.4437,0,0,0-1.05762,1.019,15.32161,15.32161,0,0,0-1.39063,1.8086c-.28759.43237-.563.88232-.83007,1.34411q-.20033.34626-.39478.70105a30.53448,30.53448,0,0,0-2.31665,5.39234,33.57971,33.57971,0,0,0-1.04224,4.1643q-.25928,1.40259-.41186,2.82276-.15454,1.41961-.21533,2.85376c-.06275,1.43359-.06153,2.8767-.01026,4.32605Q172.90159,197.67674,173.01474,199.13366Z"/><path d="M471.97788,193.56139c.14648,1.37879.3374,2.74072.58447,4.083q.12378.67127.26636,1.33594c.1626.7561.34912,1.50439.55249,2.24695.03491.12756.06592.25647.10205.38342q.18567.65057.39355,1.29358c.19312.59546.40748,1.184.63233,1.76941.2605.679.53735,1.35278.84375,2.01757a31.55934,31.55934,0,0,0,1.97266,3.63453q.17541.27831.35742.55224a17.38038,17.38038,0,0,0,1.5769,2.06055,10.68933,10.68933,0,0,0,1.26245,1.1936,7.4654,7.4654,0,0,0,5.04688,1.68189,9.35208,9.35208,0,0,0,2.75268-.48206,8.46184,8.46184,0,0,0,1.19849-.51428,9.86512,9.86512,0,0,0,3.29858-2.92981q.31714-.425.61255-.87805.29443-.45411.56128-.94361c.64966-1.20056,1.21387-2.405,1.731-3.61181q.531-1.23963.97339-2.48291.44238-1.24347.79614-2.49048a37.51706,37.51706,0,0,0,1.06128-5.001,38.85671,38.85671,0,0,0,.1897-9.15722,48.23016,48.23016,0,0,0-3.56153-13.80884c-.24121-.584-.50634-1.15967-.79663-1.71936a18.60624,18.60624,0,0,0-.9458-1.62427,15.336,15.336,0,0,0-1.09985-1.48437,12.59859,12.59859,0,0,0-1.259-1.29981,10.17535,10.17535,0,0,0-2.19726-1.506,9.00947,9.00947,0,0,0-1.678-.64294,9.36194,9.36194,0,0,0-2.84863-.31116,8.37694,8.37694,0,0,0-.96875.09485,8.05857,8.05857,0,0,0-1.77954.49353,8.48467,8.48467,0,0,0-.8147.38183,9.05578,9.05578,0,0,0-1.553,1.05152c-.24829.20825-.49048.42529-.72119.6582a12.3659,12.3659,0,0,0-1.07886,1.25342q-.25232.33417-.4873.687c-.25708.38525-.49536.78882-.7229,1.20068-.07788.14063-.155.2815-.2295.42481a21.90145,21.90145,0,0,0-.99584,2.21582c-.1167.30249-.22193.60791-.33228.91186a50.804,50.804,0,0,0-2.00952,7.11011q-.24682,1.19971-.43482,2.406-.27538,1.76513-.42993,3.53711-.08862,1.01184-.13843,2.02368.06849,1.41027.18482,2.80041Q471.90477,192.87188,471.97788,193.56139Z"/><path class="cls-1" d="M497.49326,201.48107q-.35376,1.24695-.79614,2.49048"/><path class="cls-1" d="M487.20615,165.2373a9.00947,9.00947,0,0,1,1.678.64294"/><path class="cls-1" d="M481.60923,165.51452a8.05857,8.05857,0,0,1,1.77954-.49353"/><path class="cls-1" d="M472.22934,183.81579q-.27538,1.76513-.42993,3.53711"/><path class="cls-1" d="M472.22934,183.81579q.18824-1.20594.43482-2.406"/><path d="M382.171,456.76226c-1.19384-1.12885-2.18261-3.20044-4.251-2.20575a7.37863,7.37863,0,0,0-4.17383,5.11078c-.01172.05377-.01147.10882-.021.163l10.97315-.60089C383.86289,458.39947,383.02622,457.57091,382.171,456.76226Z"/><path d="M147.85117,950.63463,132.20566,904.912l-8.20312,13.97558v31.74707H98.78672V841.5692h25.21582v41.166h.30371l21.11426-41.166h26.43066l-22.63281,39.19043,25.6709,69.875Z"/><path d="M233.67441,950.63463l-11.84863-40.86132h-8.96191v40.86132H187.4957V841.5692h33.41895c23.84863,0,36.30371,8.9629,36.30371,31.59571,0,13.21582-5.16406,21.57031-13.06348,26.43066l17.165,51.03906Zm-14.43066-61.36816c6.53125,0,12-2.582,12-13.51953,0-13.36719-6.98731-12.91113-11.39258-12.91113h-6.9873v26.43066Z"/><path d="M324.357,950.63463l-4.10156-23.54492H299.59726l-3.79785,23.54492H269.97617L293.36875,841.5692H326.484l24,109.06543Zm-21.2666-45.11425H316.61L309.92637,866.329h-.45606Z"/><path d="M372.81406,950.63463V863.59557H352.30722V841.5692h66.38086v22.02637H398.18222v87.03906Z"/><path d="M427.4957,896.25377c0-33.57031,8.81055-56.05175,38.583-56.05175s38.583,22.48144,38.583,56.05175c0,34.78516-10.78516,55.748-38.583,55.748S427.4957,931.03893,427.4957,896.25377Zm51.19141,0c0-25.67089-3.3418-35.08886-12.6084-35.08886-9.26563,0-12.60742,9.418-12.60742,35.08886,0,26.88672,3.79687,34.9375,12.60742,34.9375C475.04062,931.19127,478.68711,923.14049,478.68711,896.25377Z"/><path d="M570.28281,950.63463l-11.84863-40.86132h-8.96192v40.86132H524.1041V841.5692h33.41895c23.84863,0,36.30371,8.9629,36.30371,31.59571,0,13.21582-5.16407,21.57031-13.06348,26.43066l17.165,51.03906Zm-14.43066-61.36816c6.53125,0,12-2.582,12-13.51953,0-13.36719-6.98731-12.91113-11.39258-12.91113h-6.98731v26.43066Z"/></svg>