<?xml version="1.0" encoding="utf-8"?>
<!-- Generator: Adobe Illustrator 21.1.0, SVG Export Plug-In . SVG Version: 6.00 Build 0)  -->
<svg version="1.1" id="Layer_1" xmlns="http://www.w3.org/2000/svg" xmlns:xlink="http://www.w3.org/1999/xlink" x="0px" y="0px"
	 viewBox="0 0 432 432" enable-background="new 0 0 432 432" xml:space="preserve">
<g>
	<path fill="#9C9C9D" d="M8.105,373.941v22.511H4.076v-55.882h14.414c6.556,0,11.499,1.435,14.829,4.304
		c3.33,2.871,4.996,6.964,4.996,12.282c0,2.449-0.454,4.7-1.364,6.753c-0.908,2.054-2.218,3.825-3.928,5.312
		c-1.713,1.488-3.791,2.647-6.239,3.476c-2.448,0.831-5.213,1.245-8.294,1.245H8.105z M8.105,370.701h10.386
		c2.474,0,4.687-0.342,6.635-1.027c1.948-0.684,3.6-1.631,4.957-2.843c1.354-1.211,2.395-2.639,3.118-4.285
		c0.724-1.645,1.087-3.442,1.087-5.391c0-4.29-1.324-7.595-3.97-9.913c-2.646-2.316-6.588-3.474-11.827-3.474H8.105V370.701z"/>
	<path fill="#9C9C9D" d="M51.741,396.452v-39.296h1.976c0.447,0,0.77,0.093,0.966,0.277c0.198,0.185,0.31,0.5,0.337,0.948
		l0.314,8.293c1.264-3.185,2.949-5.681,5.057-7.484c2.106-1.802,4.699-2.705,7.78-2.705c1.185,0,2.276,0.126,3.277,0.376
		c1.001,0.25,1.948,0.612,2.844,1.086l-0.514,2.606c-0.077,0.422-0.342,0.632-0.789,0.632c-0.158,0-0.382-0.052-0.67-0.157
		c-0.291-0.106-0.652-0.223-1.087-0.356c-0.435-0.131-0.968-0.25-1.599-0.355c-0.633-0.105-1.357-0.158-2.174-0.158
		c-2.974,0-5.418,0.922-7.326,2.765c-1.908,1.843-3.456,4.502-4.64,7.978v25.552H51.741z"/>
	<path fill="#9C9C9D" d="M102.173,356.523c2.816,0,5.336,0.482,7.563,1.442c2.225,0.961,4.1,2.324,5.627,4.088
		c1.527,1.764,2.69,3.89,3.495,6.378c0.803,2.489,1.203,5.273,1.203,8.354c0,3.079-0.4,5.857-1.203,8.331
		c-0.805,2.476-1.969,4.596-3.495,6.36c-1.527,1.764-3.402,3.118-5.627,4.066c-2.227,0.949-4.747,1.422-7.563,1.422
		c-2.818,0-5.339-0.472-7.563-1.422c-2.225-0.947-4.107-2.302-5.648-4.066c-1.541-1.764-2.711-3.884-3.514-6.36
		c-0.803-2.474-1.205-5.252-1.205-8.331c0-3.081,0.403-5.866,1.205-8.354c0.803-2.488,1.973-4.614,3.514-6.378
		c1.541-1.764,3.423-3.127,5.648-4.088C96.835,357.005,99.355,356.523,102.173,356.523z M102.173,394.003
		c2.343,0,4.389-0.403,6.141-1.205c1.75-0.803,3.211-1.955,4.382-3.456c1.173-1.501,2.048-3.309,2.627-5.429
		c0.579-2.12,0.868-4.496,0.868-7.128c0-2.606-0.289-4.978-0.868-7.111c-0.579-2.132-1.454-3.955-2.627-5.469
		c-1.171-1.514-2.632-2.679-4.382-3.495c-1.752-0.816-3.798-1.224-6.141-1.224s-4.391,0.408-6.141,1.224
		c-1.752,0.817-3.211,1.982-4.384,3.495c-1.171,1.514-2.053,3.337-2.646,5.469c-0.591,2.133-0.889,4.504-0.889,7.111
		c0,2.632,0.298,5.008,0.889,7.128c0.593,2.12,1.475,3.928,2.646,5.429c1.173,1.501,2.632,2.653,4.384,3.456
		C97.782,393.601,99.83,394.003,102.173,394.003z"/>
	<path fill="#9C9C9D" d="M133.094,396.452v-39.296h2.055c0.684,0,1.077,0.33,1.185,0.988l0.354,5.686
		c0.763-1.079,1.58-2.067,2.451-2.961c0.868-0.895,1.797-1.665,2.783-2.311c0.987-0.645,2.041-1.145,3.16-1.5
		c1.117-0.356,2.297-0.534,3.533-0.534c2.869,0,5.162,0.837,6.872,2.509c1.713,1.672,2.869,3.995,3.477,6.97
		c0.472-1.633,1.136-3.04,1.99-4.226c0.854-1.185,1.834-2.164,2.937-2.942c1.105-0.776,2.309-1.356,3.609-1.737
		s2.634-0.574,4.003-0.574c1.943,0,3.692,0.323,5.242,0.968c1.555,0.646,2.872,1.6,3.965,2.864c1.089,1.264,1.922,2.817,2.504,4.66
		c0.577,1.843,0.866,3.949,0.866,6.318v25.118h-3.751v-25.118c0-3.843-0.828-6.773-2.49-8.787c-1.657-2.014-4.026-3.021-7.106-3.021
		c-1.371,0-2.681,0.25-3.931,0.751s-2.355,1.244-3.316,2.231c-0.961,0.988-1.724,2.219-2.292,3.693
		c-0.566,1.474-0.847,3.186-0.847,5.134v25.118h-3.754v-25.118c0-3.818-0.763-6.739-2.29-8.768c-1.527-2.027-3.751-3.04-6.674-3.04
		c-2.132,0-4.107,0.639-5.923,1.915c-1.818,1.278-3.437,3.047-4.859,5.312v29.699H133.094z"/>
	<path fill="#9C9C9D" d="M213.894,356.523c2.211,0,4.259,0.383,6.139,1.146c1.885,0.763,3.514,1.876,4.896,3.337
		c1.382,1.46,2.462,3.258,3.239,5.39c0.777,2.133,1.164,4.582,1.164,7.347c0,0.579-0.084,0.975-0.256,1.185
		c-0.168,0.212-0.438,0.316-0.805,0.316h-28.359v0.749c0,2.949,0.34,5.543,1.029,7.78c0.684,2.239,1.657,4.114,2.923,5.629
		c1.261,1.513,2.788,2.651,4.58,3.414c1.787,0.766,3.789,1.147,6.004,1.147c1.973,0,3.682-0.219,5.134-0.652
		c1.447-0.435,2.662-0.922,3.649-1.461c0.991-0.54,1.773-1.026,2.35-1.461c0.582-0.435,1.001-0.652,1.266-0.652
		c0.34,0,0.605,0.133,0.791,0.396l1.024,1.264c-0.633,0.789-1.466,1.527-2.509,2.211c-1.038,0.684-2.197,1.271-3.472,1.757
		c-1.28,0.489-2.648,0.875-4.11,1.166c-1.461,0.289-2.928,0.433-4.403,0.433c-2.686,0-5.134-0.468-7.345-1.401
		c-2.211-0.936-4.11-2.297-5.692-4.086c-1.587-1.792-2.811-3.984-3.672-6.577c-0.866-2.592-1.299-5.562-1.299-8.906
		c0-2.816,0.4-5.416,1.205-7.799c0.801-2.383,1.959-4.437,3.472-6.161c1.517-1.724,3.37-3.073,5.571-4.048
		C208.607,357.011,211.102,356.523,213.894,356.523z M213.95,359.327c-2.025,0-3.84,0.316-5.441,0.948
		c-1.606,0.632-2.993,1.539-4.161,2.725c-1.168,1.185-2.113,2.606-2.839,4.265c-0.721,1.659-1.201,3.515-1.438,5.57h25.869
		c0-2.107-0.293-3.997-0.87-5.669c-0.577-1.671-1.392-3.086-2.444-4.245c-1.052-1.159-2.313-2.047-3.784-2.666
		C217.367,359.637,215.738,359.327,213.95,359.327z"/>
	<path fill="#9C9C9D" d="M251.646,397.082c-2.658,0-4.724-0.735-6.2-2.211c-1.475-1.475-2.211-3.751-2.211-6.833v-26.855h-5.646
		c-0.293,0-0.531-0.079-0.712-0.236c-0.186-0.158-0.279-0.382-0.279-0.671v-1.461l6.716-0.474l0.936-14.06
		c0.028-0.237,0.126-0.448,0.293-0.632c0.172-0.184,0.4-0.277,0.684-0.277h1.759v15.008h12.362v2.803h-12.362v26.658
		c0,1.08,0.14,2.008,0.414,2.786c0.279,0.775,0.656,1.415,1.145,1.915s1.061,0.868,1.717,1.105c0.661,0.237,1.368,0.356,2.132,0.356
		c0.949,0,1.764-0.14,2.453-0.417c0.684-0.275,1.275-0.577,1.773-0.908c0.503-0.328,0.912-0.631,1.224-0.908
		c0.316-0.277,0.568-0.414,0.754-0.414c0.209,0,0.419,0.13,0.628,0.393l1.029,1.659c-1.001,1.105-2.271,1.994-3.812,2.667
		C254.904,396.747,253.307,397.082,251.646,397.082z"/>
	<path fill="#9C9C9D" d="M272.26,396.452v-57.462h3.751v24.88c1.82-2.238,3.891-4.021,6.223-5.351
		c2.327-1.329,4.943-1.994,7.838-1.994c2.16,0,4.063,0.343,5.706,1.027c1.648,0.684,3.007,1.672,4.087,2.961
		c1.08,1.29,1.899,2.844,2.448,4.66c0.554,1.818,0.833,3.87,0.833,6.161v25.118h-3.751v-25.118c0-3.686-0.847-6.575-2.527-8.669
		c-1.69-2.093-4.268-3.139-7.745-3.139c-2.578,0-4.975,0.666-7.186,1.994c-2.211,1.33-4.184,3.153-5.925,5.47v29.462H272.26z"/>
	<path fill="#9C9C9D" d="M332.961,356.523c2.211,0,4.259,0.383,6.139,1.146c1.885,0.763,3.514,1.876,4.896,3.337
		c1.382,1.46,2.462,3.258,3.239,5.39c0.777,2.133,1.164,4.582,1.164,7.347c0,0.579-0.084,0.975-0.256,1.185
		c-0.168,0.212-0.438,0.316-0.805,0.316H318.98v0.749c0,2.949,0.34,5.543,1.029,7.78c0.684,2.239,1.657,4.114,2.923,5.629
		c1.261,1.513,2.788,2.651,4.58,3.414c1.787,0.766,3.789,1.147,6.004,1.147c1.973,0,3.682-0.219,5.134-0.652
		c1.448-0.435,2.662-0.922,3.649-1.461c0.991-0.54,1.773-1.026,2.35-1.461c0.582-0.435,1.001-0.652,1.266-0.652
		c0.34,0,0.605,0.133,0.791,0.396l1.024,1.264c-0.633,0.789-1.466,1.527-2.509,2.211c-1.038,0.684-2.197,1.271-3.472,1.757
		c-1.28,0.489-2.648,0.875-4.11,1.166c-1.461,0.289-2.928,0.433-4.403,0.433c-2.686,0-5.134-0.468-7.345-1.401
		c-2.211-0.936-4.11-2.297-5.692-4.086c-1.587-1.792-2.811-3.984-3.672-6.577c-0.866-2.592-1.299-5.562-1.299-8.906
		c0-2.816,0.4-5.416,1.205-7.799c0.801-2.383,1.959-4.437,3.472-6.161c1.517-1.724,3.37-3.073,5.571-4.048
		C327.674,357.011,330.169,356.523,332.961,356.523z M333.017,359.327c-2.025,0-3.84,0.316-5.441,0.948
		c-1.606,0.632-2.993,1.539-4.161,2.725c-1.168,1.185-2.113,2.606-2.839,4.265c-0.721,1.659-1.201,3.515-1.438,5.57h25.869
		c0-2.107-0.293-3.997-0.87-5.669c-0.577-1.671-1.392-3.086-2.444-4.245c-1.052-1.159-2.313-2.047-3.784-2.666
		C336.434,359.637,334.805,359.327,333.017,359.327z"/>
	<path fill="#9C9C9D" d="M362.856,357.155v25.117c0,3.689,0.842,6.577,2.537,8.669c1.69,2.094,4.263,3.142,7.726,3.142
		c2.56,0,4.952-0.652,7.172-1.955c2.22-1.303,4.212-3.114,5.981-5.432v-29.541h3.756v39.296h-2.071
		c-0.726,0-1.103-0.342-1.131-1.026l-0.358-5.846c-1.815,2.264-3.919,4.082-6.307,5.45c-2.383,1.368-5.041,2.053-7.968,2.053
		c-2.188,0-4.1-0.342-5.734-1.026c-1.634-0.684-2.993-1.671-4.073-2.962c-1.08-1.289-1.899-2.844-2.453-4.659
		c-0.554-1.818-0.828-3.87-0.828-6.162v-25.117H362.856z"/>
	<path fill="#9C9C9D" d="M426.043,362.053c-0.186,0.369-0.475,0.553-0.87,0.553c-0.289,0-0.666-0.164-1.126-0.493
		c-0.461-0.329-1.066-0.697-1.815-1.105c-0.749-0.408-1.671-0.777-2.765-1.107c-1.094-0.328-2.43-0.493-4.007-0.493
		c-1.424,0-2.718,0.204-3.891,0.611c-1.173,0.407-2.174,0.952-3.002,1.635c-0.828,0.682-1.475,1.477-1.936,2.382
		c-0.461,0.906-0.689,1.858-0.689,2.857c0,1.233,0.316,2.259,0.945,3.072c0.633,0.814,1.461,1.509,2.49,2.089
		c1.029,0.577,2.192,1.075,3.495,1.496c1.303,0.419,2.639,0.84,4.007,1.261c1.368,0.421,2.704,0.889,4.007,1.403
		c1.303,0.512,2.471,1.152,3.495,1.915c1.029,0.763,1.857,1.697,2.49,2.802c0.633,1.108,0.945,2.451,0.945,4.028
		c0,1.713-0.307,3.305-0.926,4.78c-0.619,1.475-1.513,2.751-2.686,3.831c-1.173,1.08-2.611,1.934-4.324,2.567
		s-3.658,0.947-5.846,0.947c-2.765,0-5.148-0.44-7.149-1.322c-2.001-0.882-3.789-2.034-5.371-3.456l0.912-1.343
		c0.13-0.212,0.275-0.368,0.433-0.475c0.158-0.105,0.382-0.158,0.67-0.158c0.344,0,0.763,0.212,1.266,0.633
		c0.498,0.421,1.15,0.875,1.955,1.361c0.801,0.489,1.801,0.943,3.002,1.364c1.196,0.421,2.676,0.631,4.44,0.631
		c1.657,0,3.118-0.23,4.384-0.691c1.261-0.458,2.318-1.084,3.16-1.876c0.842-0.789,1.48-1.717,1.913-2.783
		c0.438-1.066,0.652-2.192,0.652-3.377c0-1.317-0.316-2.409-0.945-3.279c-0.633-0.868-1.461-1.603-2.49-2.211
		c-1.029-0.605-2.192-1.119-3.495-1.541c-1.303-0.421-2.644-0.842-4.026-1.264c-1.382-0.421-2.727-0.882-4.031-1.382
		c-1.303-0.498-2.467-1.131-3.495-1.894c-1.024-0.763-1.857-1.692-2.485-2.786c-0.633-1.093-0.949-2.454-0.949-4.088
		c0-1.395,0.303-2.738,0.908-4.028c0.605-1.289,1.471-2.421,2.588-3.395s2.481-1.751,4.086-2.331
		c1.606-0.578,3.412-0.869,5.413-0.869c2.392,0,4.519,0.348,6.376,1.041c1.857,0.695,3.561,1.756,5.115,3.185L426.043,362.053z"/>
</g>
<g>
	<path fill="#E75225" d="M216.214,32.6c74.384,0.016,135.44,60.303,135.346,133.643c-0.095,74.455-60.9,133.905-136.902,133.852
		c-74.302-0.052-134.378-60.402-134.326-134.94C80.384,92.27,141.566,32.585,216.214,32.6z M175.096,79.54
		c1.705,8.345,0.049,16.128-2.473,23.783c-1.746,5.301-4.16,10.405-5.601,15.778c-2.375,8.853-5.07,17.759-6.058,26.814
		c-1.421,13.021,3.726,24.489,12.534,35.893c-14.306-2.994-27.281-5.71-40.487-8.474c0.071,1.272-0.005,1.753,0.135,2.161
		c3.837,11.207,10.591,20.65,18.16,29.55c0.801,0.942,2.625,1.425,3.975,1.428c40.369,0.074,80.738,0.07,121.107,0.018
		c1.252-0.002,2.923-0.237,3.691-1.04c8.652-9.043,15.269-19.34,19.405-32.315c-14.828,2.887-28.866,5.619-42.861,8.344
		c2.827-5.508,6.055-10.352,7.91-15.674c6.346-18.206,3.716-35.809-5.393-52.41c-7.31-13.323-14.052-26.587-10.406-42.644
		c-7.719,7.578-10.683,17.226-12.565,27.169c-1.853,9.793-2.945,19.73-4.38,29.665c-0.204-0.3-0.468-0.522-0.509-0.779
		c-0.166-1.043-0.321-2.093-0.377-3.146c-0.872-16.274-4.069-31.954-10.817-46.93c-3.972-8.816-8.353-17.828-4.258-28.344
		c-2.771,1.453-5.276,2.897-7.071,4.958c-5.358,6.153-7.574,13.543-8.144,21.634c-0.487,6.912-1.155,13.858-2.444,20.655
		c-1.355,7.143-3.503,14.145-8.33,20.71C187.888,102.319,187.672,88.45,175.096,79.54z M279.182,218.763
		c-42.585,0-84.532,0-126.615,0c0,7.498,0,14.666,0,21.866c42.394,0,84.474,0,126.615,0
		C279.182,233.179,279.182,226.117,279.182,218.763z M177.672,251.926c-0.104,18.208,18.551,31.773,41.607,30.789
		c19.107-0.816,36.018-15.76,34.564-30.789C228.56,251.926,203.254,251.926,177.672,251.926z"/>
</g>
</svg>
