<?xml version="1.0" encoding="UTF-8"?><svg xmlns="http://www.w3.org/2000/svg" viewBox="0 0 161.09 145.31"><g id="a"/><g id="b"><g id="c"><g><path d="M134.3,57.49c-16.95,0-30.69-13.74-30.69-30.69,0-4.14,.82-8.08,2.31-11.68L74.53,0,14.76,28.78,0,93.45l41.36,51.86H107.69l41.36-51.86-8.36-36.64c-2.06,.44-4.2,.67-6.39,.67Zm-40.38,46.69l-19.4-38.21-19.4,38.21h-15.2l28.9-56.93h11.4l28.9,56.93h-15.2Z"/><path d="M134.3,0c-14.8,0-26.79,11.99-26.79,26.79s11.99,26.79,26.79,26.79,26.79-11.99,26.79-26.79S149.1,0,134.3,0Zm-1.59,15.04c-.37-1.02-.71-1.42-1.87-1.42-1.86,0-2.68,1.22-2.68,3.76v4.85h3.97v1.15h-3.93v10.27c0,1.93,.58,2.24,3.32,2.31v.88c-1.93-.1-3.66-.17-5.19-.17-.71,0-2.14,.03-4.31,.17v-.88c2.14-.03,2.58-.51,2.58-2.31v-10.31h-2.51v-1.12h2.51v-1.76c0-2.07,0-3.76,.98-5.29,1.08-1.66,2.85-2.51,5.39-2.51,2.95,0,4.71,1.15,4.71,2.51,0,.75-.58,1.29-1.39,1.29s-1.25-.47-1.59-1.42Zm19.26,21.8c-1.8-.1-3.15-.13-4.1-.13-1.25,0-2.61,.03-4.03,.13v-.92c1.93-.03,2.24-.47,2.24-2.1v-7.42c0-2.24-.92-3.36-2.75-3.36-2.2,0-3.93,1.9-3.93,4.68v6.04c0,1.63,.3,2.14,2.27,2.17v.92c-1.8-.1-3.19-.13-4.14-.13-1.22,0-2.58,.03-4.07,.13v-.92c2.07-.1,2.34-.51,2.34-2.1v-7.97c0-1.9-.37-2.44-2.17-2.44h-.17v-.88c1.56-.07,3.32-.51,5.29-1.32,.14,1.19,.3,2.31,.44,3.36,1.49-2.1,3.25-3.08,5.59-3.08,3.49,0,4.92,1.73,4.92,5.32v7.02c0,1.63,.24,2.04,2.27,2.1v.92Z"/></g></g></g></svg>