<svg width="1501" height="1611" viewBox="0 0 1501 1611" fill="none" xmlns="http://www.w3.org/2000/svg">
<path d="M1022.48 742.404C990.302 802.607 938.612 850.078 875.895 877.024C813.177 903.969 743.161 908.785 677.345 890.683C611.528 872.58 553.824 832.634 513.709 777.404C473.593 722.175 453.451 654.946 456.59 586.758C459.73 518.569 485.964 453.475 530.984 402.166C576.005 350.856 637.135 316.381 704.336 304.402C771.538 292.423 840.815 303.653 900.792 336.247C960.768 368.841 1007.88 420.861 1034.38 483.765H1314.49C1285.79 347 1207.79 225.568 1095.35 142.585C982.908 59.6028 843.879 20.8655 704.729 33.7481C565.579 46.6306 436.025 110.233 340.731 212.448C245.438 314.662 191.059 448.351 187.947 588.061C184.836 727.772 233.21 863.748 323.859 970.103C414.508 1076.46 541.102 1145.77 679.54 1164.83C817.979 1183.89 958.594 1151.39 1074.62 1073.49C1190.64 995.596 1273.97 877.756 1308.73 742.404H1022.48Z" fill="black"/>
<path d="M1308.73 742.405H1022.48C990.945 801.452 940.624 848.3 879.476 875.535C818.327 902.77 749.843 908.838 684.859 892.779C619.874 876.72 562.1 839.451 520.677 786.868C479.253 734.285 456.546 669.39 456.148 602.452C456.14 603.512 456.102 604.563 456.102 605.625C456.102 892.936 703.629 1105.05 1011.35 1110.34C1084.34 1073.84 1148.65 1022.11 1199.96 958.636C1251.26 895.165 1288.35 821.43 1308.73 742.405Z" fill="black"/>
<path opacity="0.59" d="M456.324 591.883C456.301 592.626 456.286 593.371 456.267 594.114C456.283 593.37 456.302 592.626 456.324 591.883Z" fill="black"/>
<path d="M577.46 842.131C578.067 842.583 578.7 842.999 579.311 843.447C578.7 842.999 578.067 842.582 577.46 842.131ZM589.217 850.46C589.997 850.986 590.81 851.467 591.596 851.985C590.81 851.467 589.998 850.986 589.217 850.46ZM613.945 865.434C615.094 866.056 616.281 866.616 617.439 867.223C616.281 866.615 615.094 866.056 613.945 865.434ZM601.386 858.235C602.337 858.811 603.323 859.334 604.281 859.899C603.323 859.334 602.337 858.811 601.386 858.235ZM626.876 872.037C628.247 872.696 629.658 873.282 631.041 873.92C629.658 873.282 628.247 872.696 626.876 872.037ZM545.248 814.393C545.112 814.258 544.967 814.132 544.831 813.997C544.967 814.132 545.112 814.258 545.248 814.393ZM566.132 833.265C566.564 833.62 567.018 833.95 567.453 834.303C567.018 833.95 566.565 833.62 566.132 833.265ZM534.893 803.629L534.986 803.726L534.893 803.629ZM555.249 823.88C555.527 824.131 555.82 824.366 556.098 824.616C555.82 824.366 555.527 824.131 555.249 823.88ZM1034.1 1098.26C1032.47 1099.17 1030.83 1100.08 1029.18 1100.97C1030.83 1100.08 1032.47 1099.17 1034.1 1098.26ZM726.307 900.018C729.58 900.35 732.893 900.544 736.197 900.77C732.893 900.544 729.581 900.35 726.307 900.018ZM741.563 901.177C746.682 901.436 751.834 901.566 757.018 901.568C751.835 901.568 746.684 901.437 741.563 901.177Z" fill="black"/>
<path d="M1011.34 1110.34C703.629 1105.05 456.102 892.936 456.102 605.624C456.102 604.563 456.14 603.511 456.147 602.452V602.455C456.144 601.851 456.102 601.256 456.102 600.65C456.11 529.033 481.656 459.766 528.15 405.293C574.645 350.82 639.04 314.711 709.767 303.455V301.32C462.366 343.551 286.992 554.851 286.992 831.934C286.927 871.771 293.517 911.34 306.492 949.006C387.177 1053.29 501.53 1126.37 630.062 1155.79C758.594 1185.21 893.349 1169.14 1011.36 1110.33L1011.34 1110.34Z" fill="black"/>
<path d="M640.163 878.029C641.748 878.697 643.375 879.283 644.974 879.925C643.375 879.283 641.748 878.697 640.163 878.029ZM711.282 898.112C714.132 898.546 717.022 898.852 719.897 899.207C717.022 898.853 714.132 898.546 711.282 898.112ZM696.499 895.477C698.951 895.977 701.445 896.361 703.918 896.801C701.445 896.361 698.951 895.978 696.499 895.477ZM653.787 883.387C655.611 884.053 657.478 884.627 659.318 885.258C657.478 884.627 655.611 884.053 653.787 883.387ZM681.971 892.13C684.217 892.706 686.506 893.174 688.771 893.699C686.505 893.174 684.217 892.706 681.971 892.13ZM667.727 888.093C669.801 888.736 671.917 889.278 674.01 889.877C671.917 889.278 669.8 888.736 667.727 888.093ZM1244.65 894.931C1245.47 893.571 1246.27 892.198 1247.08 890.831C1246.27 892.198 1245.47 893.572 1244.65 894.931ZM1231.72 915.29C1232.46 914.185 1233.21 913.095 1233.93 911.985C1233.21 913.095 1232.46 914.186 1231.72 915.29ZM1255.96 875.338C1256.5 874.358 1257.06 873.391 1257.6 872.408C1257.06 873.392 1256.5 874.358 1255.96 875.338ZM1266.97 854.376C1267.7 852.91 1268.41 851.435 1269.13 849.962C1268.41 851.435 1267.7 852.91 1266.97 854.376ZM1277.01 833.156C1277.35 832.383 1277.72 831.62 1278.06 830.845C1277.72 831.62 1277.35 832.383 1277.01 833.156ZM1174.37 988.063C1175.48 986.87 1176.59 985.688 1177.69 984.486C1176.6 985.688 1175.48 986.871 1174.37 988.063ZM1190.84 969.577C1191.79 968.467 1192.71 967.338 1193.65 966.22C1192.71 967.337 1191.79 968.467 1190.84 969.577ZM1204.48 952.897C1205.4 951.732 1206.33 950.58 1207.24 949.408C1206.33 950.579 1205.4 951.732 1204.48 952.897ZM1219.22 933.386C1220.11 932.145 1220.99 930.887 1221.87 929.639C1220.99 930.887 1220.11 932.145 1219.22 933.386ZM1301.6 767.61C1302.1 765.993 1302.58 764.374 1303.06 762.752C1302.58 764.374 1302.09 765.993 1301.6 767.61ZM1286.01 811.878C1286.63 810.328 1287.24 808.772 1287.84 807.216C1287.24 808.772 1286.63 810.329 1286.01 811.878ZM1110.64 1047.03C1109.24 1048.15 1107.82 1049.25 1106.4 1050.35C1107.82 1049.25 1109.24 1048.15 1110.64 1047.03ZM1092.17 1061.09C1091.4 1061.65 1090.64 1062.24 1089.86 1062.8C1090.64 1062.24 1091.4 1061.65 1092.17 1061.09ZM1073.49 1074.14C1071.95 1075.17 1070.41 1076.19 1068.86 1077.2C1070.41 1076.19 1071.95 1075.17 1073.49 1074.14ZM1128.68 1032.11C1127.78 1032.88 1126.9 1033.68 1126 1034.45C1126.9 1033.68 1127.78 1032.88 1128.68 1032.11ZM1053.09 1087.2C1052.55 1087.53 1052.02 1087.88 1051.47 1088.21C1052.02 1087.88 1052.55 1087.53 1053.09 1087.2ZM1145.43 1017.1C1144.17 1018.27 1142.9 1019.42 1141.64 1020.58C1142.9 1019.42 1144.17 1018.27 1145.43 1017.1ZM1294.66 788.859C1294.82 788.387 1295 787.922 1295.17 787.449C1295 787.921 1294.82 788.386 1294.66 788.859ZM1159.72 1003.31C1160.67 1002.36 1161.59 1001.39 1162.53 1000.44C1161.59 1001.39 1160.67 1002.36 1159.72 1003.31Z" fill="black"/>
<path fill-rule="evenodd" clip-rule="evenodd" d="M947.791 608.072C940.676 595.053 930.004 584.328 917.021 577.149C902.925 568.84 879.587 560.625 847.006 552.506C833.842 549.335 825.505 545.91 821.995 542.231C820.312 540.715 818.961 538.867 818.026 536.804C817.092 534.741 816.594 532.507 816.565 530.242C816.518 527.341 817.08 524.462 818.213 521.791C819.347 519.12 821.028 516.716 823.147 514.734C828.581 510.116 835.616 507.825 842.728 508.359C851.789 507.833 860.691 510.911 867.492 516.922C873.471 522.631 877.393 531.765 879.258 544.324L949.52 539.567C946.448 510.642 936.822 489.551 920.641 476.294C904.461 463.038 880.958 456.409 850.133 456.409C825.011 456.409 805.238 460.056 790.813 467.351C777.22 473.869 765.919 484.351 758.397 497.417C751.313 509.784 747.597 523.792 747.619 538.044C747.28 547.981 748.974 557.883 752.595 567.143C756.217 576.403 761.691 584.826 768.682 591.897C782.613 605.978 805.924 617.269 838.615 625.769C858.58 630.843 871.305 636.235 876.79 641.944C879.38 644.472 881.441 647.49 882.853 650.822C884.266 654.154 885.001 657.734 885.017 661.353C885.021 665.112 884.257 668.831 882.771 672.283C881.286 675.736 879.11 678.848 876.378 681.429C873.073 684.456 869.19 686.784 864.963 688.272C860.735 689.76 856.251 690.377 851.778 690.087C845.295 690.359 838.853 688.941 833.084 685.972C827.314 683.003 822.416 678.585 818.869 673.151C813.406 663.875 810.194 653.447 809.49 642.705L738.569 647.843C740.654 676.006 749.594 699.221 765.391 717.489C781.187 735.757 809.599 744.891 850.626 744.891C873.992 744.891 893.354 740.99 908.712 733.188C923.846 725.6 936.346 713.632 944.583 698.841C953.135 683.763 957.562 666.698 957.418 649.365C957.625 635.021 954.32 620.845 947.791 608.072V608.072Z" fill="black"/>
<path fill-rule="evenodd" clip-rule="evenodd" d="M752.593 593.605C746.81 586.507 742.269 578.482 739.161 569.871H649.196V521.231H735.319C740.52 496.991 754.693 475.613 774.994 461.383H574.433V739.917H649.196V626.109H752.593V593.605Z" fill="black"/>
<path d="M287.114 1558.13C313.614 1558.13 330.761 1545.39 338.555 1519.92L376.259 1537.42C370.998 1555.5 360.671 1569.7 345.278 1580.01C329.884 1590.31 310.789 1595.47 287.991 1595.47C266.168 1595.47 246.78 1590.22 229.828 1579.72C212.876 1569.41 199.723 1554.82 190.371 1535.96C181.018 1517.1 176.341 1495.32 176.341 1470.62C176.341 1446.12 181.018 1424.43 190.371 1405.57C199.723 1386.71 212.876 1372.02 229.828 1361.52C246.78 1351.02 266.168 1345.77 287.991 1345.77C310.789 1345.77 329.884 1350.92 345.278 1361.23C360.671 1371.34 370.998 1385.44 376.259 1403.53L338.555 1421.32C330.761 1395.85 313.614 1383.11 287.114 1383.11C274.449 1383.11 263.148 1386.8 253.21 1394.19C243.468 1401.39 235.868 1411.6 230.413 1424.82C224.957 1438.05 222.229 1453.31 222.229 1470.62C222.229 1487.93 224.957 1503.19 230.413 1516.42C235.868 1529.64 243.468 1539.95 253.21 1547.34C263.148 1554.53 274.449 1558.13 287.114 1558.13Z" fill="#212121"/>
<path d="M523.702 1591.38C522.532 1584.58 521.85 1575.73 521.656 1564.84C508.211 1585.26 487.459 1595.47 459.4 1595.47C440.305 1595.47 425.301 1589.73 414.39 1578.26C403.478 1566.78 398.022 1550.74 398.022 1530.13V1411.99H440.402V1523.13C440.402 1547.63 451.996 1559.88 475.183 1559.88C488.239 1559.88 498.566 1555.6 506.165 1547.05C513.764 1538.29 517.564 1526.43 517.564 1511.46V1411.99H559.944V1550.25C559.944 1566.98 560.431 1580.69 561.405 1591.38H523.702Z" fill="#212121"/>
<path d="M767.545 1501.83C767.545 1520.11 764.135 1536.35 757.316 1550.55C750.496 1564.74 741.24 1575.73 729.549 1583.51C717.858 1591.48 704.998 1595.47 690.969 1595.47C678.303 1595.47 667.002 1592.84 657.064 1587.59C647.127 1582.54 638.846 1575.15 632.221 1565.42C632.026 1575.92 631.344 1584.58 630.175 1591.38H592.471C593.445 1580.69 593.933 1566.98 593.933 1550.25V1339.35H636.313V1432.7C642.743 1424.73 650.634 1418.6 659.987 1414.32C669.34 1410.04 679.667 1407.9 690.969 1407.9C704.998 1407.9 717.858 1411.89 729.549 1419.86C741.24 1427.64 750.496 1438.73 757.316 1453.12C764.135 1467.31 767.545 1483.55 767.545 1501.83ZM724.873 1501.83C724.873 1483.55 720.781 1468.97 712.597 1458.08C704.413 1446.99 693.697 1441.45 680.447 1441.45C667.197 1441.45 656.48 1446.99 648.296 1458.08C640.307 1469.16 636.313 1483.75 636.313 1501.83C636.313 1519.92 640.307 1534.5 648.296 1545.59C656.48 1556.48 667.197 1561.92 680.447 1561.92C693.697 1561.92 704.413 1556.48 712.597 1545.59C720.781 1534.5 724.873 1519.92 724.873 1501.83Z" fill="#212121"/>
<path d="M951.641 1513.21H829.177C830.541 1529.15 835.217 1541.31 843.206 1549.67C851.39 1557.84 862.009 1561.92 875.065 1561.92C885.197 1561.92 893.186 1559.78 899.031 1555.5C905.072 1551.03 909.748 1544.71 913.061 1536.54L948.134 1553.17C936.248 1581.37 912.086 1595.47 875.649 1595.47C857.528 1595.47 841.745 1591.48 828.3 1583.51C814.855 1575.73 804.528 1564.74 797.319 1550.55C790.109 1536.35 786.505 1520.11 786.505 1501.83C786.505 1483.55 790.109 1467.31 797.319 1453.12C804.723 1438.92 814.758 1427.84 827.423 1419.86C840.089 1411.89 854.313 1407.9 870.096 1407.9C886.853 1407.9 901.369 1411.79 913.645 1419.57C926.116 1427.35 935.663 1438.34 942.288 1452.53C948.913 1466.54 952.226 1482.97 952.226 1501.83C952.226 1505.92 952.031 1509.71 951.641 1513.21ZM830.054 1482.87H908.969C907.41 1469.26 903.318 1458.95 896.693 1451.95C890.068 1444.95 881.105 1441.45 869.804 1441.45C859.282 1441.45 850.513 1445.05 843.499 1452.24C836.484 1459.44 832.002 1469.65 830.054 1482.87Z" fill="#212121"/>
<path d="M1025.9 1388.07V1448.74H1119.14V1487.25H1025.9V1591.38H980.017V1349.56H1125.86V1388.07H1025.9Z" fill="#212121"/>
<path d="M1151.87 1415.78C1151.87 1402.17 1155.18 1390.11 1161.81 1379.61C1168.63 1368.91 1178.37 1360.65 1191.03 1354.81C1203.7 1348.79 1218.61 1345.77 1235.75 1345.77C1257.58 1345.77 1275.5 1350.15 1289.53 1358.9C1303.56 1367.45 1313.21 1380 1318.47 1396.53L1281.93 1413.45C1278.23 1403.92 1272.77 1396.72 1265.57 1391.86C1258.55 1387 1249 1384.57 1236.92 1384.57C1223.87 1384.57 1214.03 1387.1 1207.4 1392.15C1200.97 1397.01 1197.76 1404.21 1197.76 1413.74C1197.76 1422.88 1201.17 1429.88 1207.99 1434.74C1214.81 1439.6 1226.79 1443.59 1243.94 1446.7C1271.41 1451.56 1291.38 1460.02 1303.85 1472.08C1316.32 1484.14 1322.56 1500.86 1322.56 1522.25C1322.56 1536.25 1318.76 1548.89 1311.16 1560.17C1303.76 1571.26 1293.23 1579.91 1279.59 1586.13C1266.15 1592.36 1250.85 1595.47 1233.71 1595.47C1209.94 1595.47 1190.16 1590.61 1174.37 1580.88C1158.59 1571.16 1148.07 1557.35 1142.81 1539.46L1179.64 1522.25C1183.14 1533.53 1189.48 1542.09 1198.63 1547.92C1207.79 1553.75 1219.39 1556.67 1233.41 1556.67C1247.44 1556.67 1258.06 1553.85 1265.27 1548.21C1272.68 1542.38 1276.38 1534.11 1276.38 1523.42C1276.38 1513.31 1272.48 1505.33 1264.69 1499.5C1257.09 1493.66 1243.84 1489 1224.94 1485.5C1200 1481.02 1181.58 1473.05 1169.7 1461.58C1157.81 1450.1 1151.87 1434.84 1151.87 1415.78Z" fill="#212121"/>
</svg>
