<svg id="Layer_1" data-name="Layer 1" xmlns="http://www.w3.org/2000/svg" viewBox="0 0 1156.64907 434"><defs><style>.cls-1{fill:none;}.cls-2{fill:#3b697e;}.cls-3{fill:#35354d;}</style></defs><title>cortex-horizontal-color</title><path class="cls-1" d="M327.45148,275.44987a54.02082,54.02082,0,1,0-54.02-54.02157A54.08326,54.08326,0,0,0,327.45148,275.44987Zm.00078-88.38775a34.571,34.571,0,1,1-34.571,34.571A34.571,34.571,0,0,1,327.45226,187.06212Z"/><path class="cls-1" d="M414.20756,216.89879c0-110.10185-89.57441-199.67633-199.6763-199.67633S14.85493,106.79694,14.85493,216.89879s89.57445,199.6763,199.67633,199.6763S414.20756,327.00065,414.20756,216.89879Zm-289.39,9.33472H106.813a34.94573,34.94573,0,1,1,.275-6.13726h22.04763v.58558l.06294-.02519,21.80849,54.52352,24.7243-57.21906h29.09648l26.05483-64.71827,23.45667,67.01973H267.309a60.15805,60.15805,0,0,1,27.16759-49.12262l-57.82743-54.93611a34.58422,34.58422,0,1,1,4.34281-4.34132l59.00034,56.05033a60.16129,60.16129,0,1,1-1.97695,105.96327l-57.49218,57.49221-4.33924-4.33921,56.51921-56.51921a60.17282,60.17282,0,0,1-25.20206-44.11009H249.98524l-19.504-55.72519-21.50885,53.42373H179.765l-28.97664,67.0602Zm54.32416,127.35038a34.571,34.571,0,1,1,34.571,34.571A34.571,34.571,0,0,1,179.14168,353.58389Z"/><path class="cls-2" d="M423.41342,216.89879c0-115.17833-93.70392-208.88219-208.88216-208.88219S5.64907,101.72046,5.64907,216.89879,99.353,425.781,214.53126,425.781,423.41342,332.07706,423.41342,216.89879Zm-408.55849,0c0-110.10185,89.57445-199.67633,199.67633-199.67633s199.6763,89.57448,199.6763,199.67633-89.57441,199.6763-199.6763,199.6763S14.85493,327.00065,14.85493,216.89879Z"/><circle class="cls-2" cx="327.45226" cy="221.63308" r="34.57097"/><circle class="cls-2" cx="213.71264" cy="353.58389" r="34.57097"/><path class="cls-2" d="M208.97235,224.09836l21.50885-53.42373,19.504,55.72519h17.51582a60.17282,60.17282,0,0,0,25.20206,44.11009l-56.51921,56.51921,4.33924,4.33921,57.49218-57.49221a60.15458,60.15458,0,1,0,1.97695-105.96327l-59.00034-56.05033a34.57807,34.57807,0,1,0-4.34281,4.34132l57.82743,54.93611A60.15805,60.15805,0,0,0,267.309,220.26256H254.33943l-23.45667-67.01973L204.82792,217.9611H175.73144l-24.7243,57.21906-21.80849-54.52352-.06294.02519v-.58558H107.08807a34.58122,34.58122,0,1,0-.275,6.13726h18.00448l25.97085,64.92505,28.97664-67.0602Zm118.47913-56.69012a54.02082,54.02082,0,1,1-54.02,54.02007A54.082,54.082,0,0,1,327.45148,167.40823Z"/><path class="cls-1" d="M696.53435,187.93693a36.48671,36.48671,0,0,0-12.7593-9.41449,38.82613,38.82613,0,0,0-30.96827,0,36.43,36.43,0,0,0-12.7593,9.41449,44.63514,44.63514,0,0,0-8.54736,15.237,70.66918,70.66918,0,0,0,0,41.37344,43.20809,43.20809,0,0,0,8.54736,15.11344,37.00369,37.00369,0,0,0,12.7593,9.29088,38.82564,38.82564,0,0,0,30.96827,0,37.06233,37.06233,0,0,0,12.7593-9.29088,43.30689,43.30689,0,0,0,8.5474-15.11344,70.6237,70.6237,0,0,0,0-41.37344A44.73968,44.73968,0,0,0,696.53435,187.93693Z"/><path class="cls-1" d="M993.70514,185.832a36.491,36.491,0,0,0-11.398-7.68028,36.06227,36.06227,0,0,0-14.49338-2.85049,36.69454,36.69454,0,0,0-14.74068,2.85049,34.016,34.016,0,0,0-11.27226,7.80388,37.35553,37.35553,0,0,0-7.43316,11.51937,43.81279,43.81279,0,0,0-3.21913,13.99919h73.58164a43.25365,43.25365,0,0,0-3.34486-14.12275A36.10679,36.10679,0,0,0,993.70514,185.832Z"/><path class="cls-3" d="M557.17912,263.99626q-8.79658,8.17775-24.40432,8.17668A34.85827,34.85827,0,0,1,515.68,268.20816a33.19007,33.19007,0,0,1-11.64293-10.52869A46.377,46.377,0,0,1,497.471,242.6896a71.14076,71.14076,0,0,1-2.10488-17.34192,86.992,86.992,0,0,1,1.98133-18.70537,46.80878,46.80878,0,0,1,6.566-15.98052,34.02949,34.02949,0,0,1,12.2629-11.14865q7.67511-4.20986,19.07614-4.2119,13.38025,0,21.30666,6.68959,7.9264,6.68859,10.40513,18.829H588.7674a50.75953,50.75953,0,0,0-5.94611-19.69606,44.05977,44.05977,0,0,0-12.01578-13.74995,49.84331,49.84331,0,0,0-16.8476-8.051,77.43523,77.43523,0,0,0-20.43958-2.60129q-15.1145,0-26.50925,5.32614a52.93462,52.93462,0,0,0-18.95253,14.617,62.1635,62.1635,0,0,0-11.27221,21.801,94.014,94.014,0,0,0-3.71762,26.882,86.19105,86.19105,0,0,0,3.84118,26.38569,57.78221,57.78221,0,0,0,11.39581,20.6867,50.13964,50.13964,0,0,0,18.829,13.37927,66.76629,66.76629,0,0,0,25.89137,4.70618q24.52686,0,38.77215-12.88286,14.24425-12.8776,17.71473-36.66722H567.955Q565.96947,255.82171,557.17912,263.99626Z"/><path class="cls-3" d="M714.6198,176.16831A56.33911,56.33911,0,0,0,695.173,161.924q-11.52048-5.20256-26.88205-5.20254-15.1145,0-26.75641,5.20254a56.01092,56.01092,0,0,0-19.57245,14.24427A59.74985,59.74985,0,0,0,610.06985,197.475a85.29947,85.29947,0,0,0-3.96474,26.38565,84.11722,84.11722,0,0,0,3.96474,26.26213,59.85256,59.85256,0,0,0,11.89222,21.18311,54.61058,54.61058,0,0,0,19.57245,14.12067q11.643,5.07685,26.75641,5.079,15.35953,0,26.88205-5.079a54.909,54.909,0,0,0,19.44681-14.12067A59.95012,59.95012,0,0,0,726.512,250.12276a84.17815,84.17815,0,0,0,3.96474-26.26213A85.36157,85.36157,0,0,0,726.512,197.475,59.8463,59.8463,0,0,0,714.6198,176.16831Zm-9.538,68.37905a43.30689,43.30689,0,0,1-8.5474,15.11344,37.06233,37.06233,0,0,1-12.7593,9.29088,38.82564,38.82564,0,0,1-30.96827,0,37.00369,37.00369,0,0,1-12.7593-9.29088,43.20809,43.20809,0,0,1-8.54736-15.11344,70.66918,70.66918,0,0,1,0-41.37344,44.63514,44.63514,0,0,1,8.54736-15.237,36.43,36.43,0,0,1,12.7593-9.41449,38.82613,38.82613,0,0,1,30.96827,0,36.48671,36.48671,0,0,1,12.7593,9.41449,44.73968,44.73968,0,0,1,8.5474,15.237,70.6237,70.6237,0,0,1,0,41.37344Z"/><path class="cls-3" d="M786.22283,163.65825q-11.14654,7.43314-18.82893,23.04087h-.49428V159.69352H747.08V287.78066h21.05742V230.79742a87.532,87.532,0,0,1,2.47769-21.92454,41.99377,41.99377,0,0,1,7.92952-16.22768,33.95239,33.95239,0,0,1,14.36783-10.158q8.91917-3.46838,21.55591-3.46842V156.7215Q797.37153,156.22824,786.22283,163.65825Z"/><path class="cls-3" d="M866.98353,121.292H845.924v38.40147H824.123v18.58181H845.924v81.509a48.66365,48.66365,0,0,0,1.73421,14.36991,17.43151,17.43151,0,0,0,5.32614,8.4238,20.56921,20.56921,0,0,0,9.41444,4.08834,75.58524,75.58524,0,0,0,13.99919,1.11424h16.10412V269.19885h-9.66373a70.34313,70.34313,0,0,1-8.051-.37072,10.36108,10.36108,0,0,1-4.83187-1.61061,6.107,6.107,0,0,1-2.35413-3.46838,23.00571,23.00571,0,0,1-.61784-5.94611v-79.5277h25.51856V159.69352H866.98353Z"/><path class="cls-3" d="M1015.506,181.7437a56.13482,56.13482,0,0,0-18.08545-17.96189q-11.27525-7.06239-28.367-7.06031a58.26253,58.26253,0,0,0-24.15512,4.95334,56.79687,56.79687,0,0,0-19.07817,13.87559,63.94718,63.94718,0,0,0-12.5101,21.05746,77.06427,77.06427,0,0,0-4.46115,26.75845,102.51078,102.51078,0,0,0,4.33768,27.00353A58.86758,58.86758,0,0,0,924.706,271.67654a52.42772,52.42772,0,0,0,18.95253,13.87355q11.27226,4.95441,26.6329,4.95542,21.7999,0,36.17289-10.90154,14.3637-10.89839,18.57977-32.45532h-20.81035q-2.73,12.6357-11.27216,18.82893-8.54849,6.19853-21.92663,6.19536a43.57685,43.57685,0,0,1-18.08545-3.46838,35.41939,35.41939,0,0,1-12.63575-9.29093,36.12786,36.12786,0,0,1-7.18387-13.37923,50.74506,50.74506,0,0,1-1.98137-15.98052h95.879a102.06033,102.06033,0,0,0-2.10711-24.52584A71.06231,71.06231,0,0,0,1015.506,181.7437Zm-84.35749,29.73046a43.81279,43.81279,0,0,1,3.21913-13.99919,37.35553,37.35553,0,0,1,7.43316-11.51937,34.016,34.016,0,0,1,11.27226-7.80388,36.69454,36.69454,0,0,1,14.74068-2.85049,36.06227,36.06227,0,0,1,14.49338,2.85049,36.491,36.491,0,0,1,11.398,7.68028,36.10679,36.10679,0,0,1,7.68019,11.51942,43.25365,43.25365,0,0,1,3.34486,14.12275Z"/><polygon class="cls-3" points="1102.099 218.658 1146.199 159.694 1120.928 159.694 1088.967 204.537 1058.246 159.694 1031.24 159.694 1075.835 220.392 1027.772 287.781 1053.29 287.781 1088.967 234.762 1124.643 287.781 1151.649 287.781 1102.099 218.658"/></svg>