<?xml version="1.0" encoding="utf-8"?>
<!-- Generator: Adobe Illustrator 25.2.3, SVG Export Plug-In . SVG Version: 6.00 Build 0)  -->
<svg version="1.1" id="Layer_1" xmlns="http://www.w3.org/2000/svg" xmlns:xlink="http://www.w3.org/1999/xlink" x="0px" y="0px"
	 viewBox="0 0 612 792" style="enable-background:new 0 0 612 792;" xml:space="preserve">
<path d="M337.5,430.7c13.3,2.4,23.1,5.4,23.1,12.4c0,13.5-26.5,20-51.1,20s-51.1-7.1-51.1-20c0-11.5,26.5-14.7,51.1-14.7
	c0.1,0,0.2,0,0.3,0c0,0-7,2.5-13.2,4.6c-5.6,1.9-17.5,4.3-20.4,5c-9.7,2.5-11.8,5.2-11.8,5.8c0,0.6,2.1,3.3,11.8,5.8
	c8.8,2.3,20.7,3.6,33.2,3.6s24.4-1.3,33.2-3.6c9.7-2.5,11.8-5.2,11.8-5.8c0-0.6-2.1-3.3-11.8-5.8c-3.2-0.8-6.8-1.5-10.6-2.1
	L337.5,430.7z"/>
<path d="M309.5,398.4c-24.6,0-51.1-6-51.1-17c0-11.9,26.5-17.9,51.1-17.9s51.1,6.2,51.1,17.9C360.8,392.4,334.2,398.4,309.5,398.4z
	 M309.5,372.6c-12.6,0-24.4,1.2-33.2,3.4c-9.7,2.4-11.8,4.9-11.8,5.4s2.1,3.1,11.8,5.4c8.8,2.2,20.7,3.4,33.2,3.4s24.4-1.2,33.2-3.4
	c9.7-2.4,11.8-4.9,11.8-5.4s-2.1-3.1-11.8-5.4C334,373.8,322.1,372.6,309.5,372.6z"/>
<path d="M353,409.2c-34.9,40.9-56.5,45.5-61.4,45.5c-0.3,0-26.3-5.7-26.4-5.7l-0.9-5.1C285.2,441.7,323.4,435.7,353,409.2z"/>
<path d="M315.9,426.2c7.2-3.4,26.2-22.5,24.2-34.1l20.6-10.6C360.8,408.9,322,422.9,315.9,426.2z"/>
</svg>
