<svg id="Layer_1" data-name="Layer 1" xmlns="http://www.w3.org/2000/svg" xmlns:xlink="http://www.w3.org/1999/xlink" viewBox="0 0 360 360"><defs><style>.cls-1{fill:none;}.cls-2{fill:url(#radial-gradient);}.cls-3{fill:url(#radial-gradient-13);}</style><radialGradient id="radial-gradient" cx="-65.80439" cy="589.1674" r="102.48487" gradientTransform="translate(-330.40783 -116.94736) rotate(-65.37441)" gradientUnits="userSpaceOnUse"><stop offset="0"/><stop offset="0" stop-color="#000505"/><stop offset="0" stop-color="#011214"/><stop offset="0" stop-color="#03282c"/><stop offset="0" stop-color="#05474f"/><stop offset="0" stop-color="#076f7b"/><stop offset="0" stop-color="#0aa0b0"/><stop offset="0" stop-color="#0ed8ee"/><stop offset="0.14336" stop-color="#0ed3ee"/><stop offset="0.32442" stop-color="#0dc3ed"/><stop offset="0.52575" stop-color="#0da9eb"/><stop offset="0.74171" stop-color="#0c85e9"/><stop offset="0.96714" stop-color="#0a57e6"/><stop offset="1" stop-color="#0a50e6"/></radialGradient><radialGradient id="radial-gradient-13" cx="180.14423" cy="179.37549" r="174.38766" gradientUnits="userSpaceOnUse"><stop offset="0" stop-color="#0ed8ee"/><stop offset="0.23819" stop-color="#0ed5ee"/><stop offset="0.40656" stop-color="#0ecced"/><stop offset="0.55344" stop-color="#0dbcec"/><stop offset="0.68793" stop-color="#0da6eb"/><stop offset="0.81406" stop-color="#0c8ae9"/><stop offset="0.9323" stop-color="#0b67e7"/><stop offset="1" stop-color="#0a50e6"/></radialGradient></defs><title>networkservicemesh-icon-color-reversed</title><polygon class="cls-1" points="155.984 326.659 240.229 316.538 211.869 280.21 177.796 279.585 155.984 326.659"/><path class="cls-1" d="M227.17444,101.37854l1.82506-30.8569a11.44007,11.44007,0,0,1-4.81456-3.09763l-87.3307,6.38792,20.21983,15.0018L180.73,77.952Z"/><path class="cls-1" d="M68.6688,269.65108q-.486-.15636-.9542-.34923c-.19739-.07921-.39011-.16583-.58254-.25427q-.12382-.05815-.24622-.11857a12.99537,12.99537,0,0,1-7.32116-11.17156L24.09978,239.959l38.63069,52.91333a11.59664,11.59664,0,0,1,1.56-.81757l4.58494-22.33214c-.06454-.01958-.12618-.0454-.19027-.06591Z"/><polygon class="cls-1" points="83.73 250.247 106.793 247.188 93.463 229.828 83.73 250.247"/><path class="cls-1" d="M76.42782,269.7244l-4.00333,21.9914A11.64644,11.64644,0,0,1,79.98465,306.154l56.84378,28.14311a13.26317,13.26317,0,0,1,3.31-4.95993L79.50576,268.32051A12.92547,12.92547,0,0,1,76.42782,269.7244Z"/><path class="cls-1" d="M265.61163,132.29325l33.36688-8.69388a11.61828,11.61828,0,0,1,1.22254-2.46595l-62.76173-51.156-2.6311,35.25152,28.11028,14.17874Z"/><path class="cls-1" d="M261.73408,233.68843l28.10454-1.90942c-.00418-.1305-.01968-.258-.01968-.38952a12.0806,12.0806,0,0,1,3.65253-8.66468l-11.76181-13.40937.04117.197Z"/><path class="cls-1" d="M132.62943,79.84183a11.19258,11.19258,0,0,1-3.97546,1.88995l-2.50345,21.28057,23.29316-10.69513Z"/><path class="cls-1" d="M300.27423,217.89571l7.62185-78.58508a10.97093,10.97093,0,0,1-8.80779-6.4185l-31.8166,7.34384,11.13265,53.26491Z"/><path class="cls-1" d="M161.734,334.58907a13.21564,13.21564,0,0,1,.761,4.39472c0,.20033-.0212.39521-.03.59338l43.99251-.04549,33.23874-11.89029a12.44369,12.44369,0,0,1-.40409-2.96654Z"/><path class="cls-1" d="M238.13346,60.6773l-.00231.031C238.28275,60.6056,238.30179,60.58351,238.13346,60.6773Z"/><path class="cls-1" d="M232.57194,48.199a11.44386,11.44386,0,0,1,10.6597,7.29348l46.09707,12.298L241.75708,33.71a10.09833,10.09833,0,0,1-16.5936-7.73635l.00132-.0266L162.79744,19.1795c-.03047.24106-.064.48119-.10944.7173l63.276,30.41207A11.38463,11.38463,0,0,1,232.57194,48.199Z"/><path class="cls-1" d="M26.03806,232.573,62.00153,249.628a13.06483,13.06483,0,0,1,1.79675-2.01151L35.1565,166.08057,21.33033,221.39A10.84376,10.84376,0,0,1,26.03806,232.573Z"/><path class="cls-1" d="M321.62076,127.53154a11.62753,11.62753,0,0,1-.9326,4.57424l15.551,24.03363L317.897,99.28753l-.77885,19.04852A11.63722,11.63722,0,0,1,321.62076,127.53154Z"/><path class="cls-1" d="M231.10268,64.81255l-.13388-.1091C230.8467,64.85392,230.91045,64.87777,231.10268,64.81255Z"/><path class="cls-1" d="M136.44381,66.41922l84.69032-6.9999a11.42575,11.42575,0,0,1,.408-2.80557l-62.96737-30.0015a11.09774,11.09774,0,0,1-8.895,2.22013L133.623,62.42718A10.98326,10.98326,0,0,1,136.44381,66.41922Z"/><path class="cls-1" d="M43.58031,139.43086,115.1094,73.98115a11.24236,11.24236,0,0,1-.441-2.84454L74.87758,60.08038a10.99477,10.99477,0,0,1-8.19457,8.093L42.85462,139.03629C43.10354,139.15662,43.34239,139.29276,43.58031,139.43086Z"/><path class="cls-1" d="M27.11446,148.90791a10.9759,10.9759,0,0,1,7.32886-10.318l.08314-.3326.08367.28072c.2391-.081.47855-.16053.72432-.22521L55.496,78.35334,22.11467,127.32983a10.89355,10.89355,0,0,1-3.29711,18.8661l.11493,54.44045,11.086-44.34577A10.91454,10.91454,0,0,1,27.11446,148.90791Z"/><path class="cls-1" d="M125.76233,59.57621l16.94283-34.99087a11.2441,11.2441,0,0,1-1.15546-1.861L77.78012,53.2521l39.10713,10.86248A11.22553,11.22553,0,0,1,125.76233,59.57621Z"/><path class="cls-1" d="M242.63688,64.70345l64.72289,51.45914a11.67825,11.67825,0,0,1,2.3332-.286l1.02031-21.60649a11.57679,11.57679,0,0,1-10.48209-13.40637Z"/><path class="cls-1" d="M296.61355,242.2661l-37.77367,72.003a12.51131,12.51131,0,0,1,1.99654,1.73309l44.043-31.0487a10.91231,10.91231,0,0,1,4.99095-11.48384l-8.53462-29.98785A12.03845,12.03845,0,0,1,296.61355,242.2661Z"/><path class="cls-1" d="M82.63435,174.67463l-37.467-17.41058a10.9053,10.9053,0,0,1-4.29588,2.24192l29.63759,84.88226a12.63179,12.63179,0,0,1,7.587,1.077c.02689.01242.0557.021.0825.03362l10.36435-22.07831L74.94737,205.715Z"/><path class="cls-1" d="M118.32137,106.60712,121.32221,81.099c-.297-.13285-.58882-.27444-.87155-.43158L48.35955,145.02977a10.285,10.285,0,0,1,.54239,5.852l35.53519,16.513L97.075,116.36243Z"/><path class="cls-1" d="M112.929,255.17886l-27.26165,3.84481c.00005.014.00211-1.76759.00211-1.75356a3.50013,3.50013,0,0,1-.18993,1.41739,12.952,12.952,0,0,1-.51505,2.45574l62.23161,63.19318,21.45239-44.91977-37.63881-.69115Z"/><path class="cls-1" d="M254.74969,242.124,223.04587,280.4155l-.49278-.009,25.32032,32.26246a12.37678,12.37678,0,0,1,2.5935-.55633l38.79937-72.30411Z"/><path class="cls-1" d="M313.9806,230.00837a12.21888,12.21888,0,0,1,.08412,1.38112c0,4.29779-1.6103,6.68326-4.00735,9.41285l6.18145,25.76191L339.015,198.368l-25.22845,30.11167A11.3351,11.3351,0,0,1,313.9806,230.00837Z"/><path class="cls-1" d="M334.04447,181.55646a10.93775,10.93775,0,0,1,4.28449-8.6454L315.5779,137.75279c-.077.0425-.15665.08029-.23473.12107l-7.685,82.82594c.08908.04766.17383.10115.26153.15106l29.21451-31.68654A10.93887,10.93887,0,0,1,334.04447,181.55646Z"/><path class="cls-2" d="M239.65341,139.0568l25.95822-6.76355-2.69313-12.88552L234.80822,105.229l-2.1156,28.34531A12.13826,12.13826,0,0,1,239.65341,139.0568Z"/><path class="cls-2" d="M188.78967,255.85739l-10.994,23.7272,34.07378.62567-19.49767-24.97589A12.97858,12.97858,0,0,1,188.78967,255.85739Z"/><path class="cls-2" d="M254.74969,242.124l-53.72585,3.60419a12.93545,12.93545,0,0,1-2.05572,4.62689l23.585,30.05136.49278.009Z"/><path class="cls-2" d="M218.75711,152.24409l-94.59836,29.727a7.60058,7.60058,0,0,1-1.4487,4.11327l60.03249,45.04388a12.9396,12.9396,0,0,1,5.59292-1.27663c.31051,0,.61469.02508.9198.04648l31.5375-75.60157A11.035,11.035,0,0,1,218.75711,152.24409Z"/><path class="cls-2" d="M229.20445,157.30508c-.40434,0-.80339-.02179-1.19752-.06042L196.3755,232.64521a13.04224,13.04224,0,0,1,3.9731,5.21371l61.38548-4.17049,20.01675-24.176-.04117-.197-46.85094-53.41361A12.06194,12.06194,0,0,1,229.20445,157.30508Z"/><path class="cls-2" d="M240.005,150.66829l38.3993,42.83259L267.27169,140.236l-25.99747,6.00065A12.02935,12.02935,0,0,1,240.005,150.66829Z"/><path class="cls-2" d="M225.26114,133.72811l1.9133-32.34957L180.73,77.952,157.07407,88.81373l63.94606,47.44384A12.09659,12.09659,0,0,1,225.26114,133.72811Z"/><path class="cls-2" d="M175.79721,246.31233,112.929,255.17886,131.0097,278.7255l37.63881.69115,12.33036-25.81889A13.02389,13.02389,0,0,1,175.79721,246.31233Z"/><path class="cls-2" d="M121.9423,174.95589l94.597-29.73054a10.85992,10.85992,0,0,1,.48351-2.76754L149.44368,92.31722l-23.29316,10.69513L118.06485,171.745A11.009,11.009,0,0,1,121.9423,174.95589Z"/><path class="cls-2" d="M110.76254,170.85912l7.55883-64.252L97.075,116.36243,84.43713,167.39475l19.173,8.90957A10.97821,10.97821,0,0,1,110.76254,170.85912Z"/><path class="cls-2" d="M176.70749,237.04518,117.672,191.58159a10.34375,10.34375,0,0,1-6.34915.77757l-17.86,37.46876,13.33054,17.36047,69.4874-9.216C176.40949,237.65584,176.5552,237.34887,176.70749,237.04518Z"/><path class="cls-2" d="M102.47648,183.89511l-19.84213-9.22048-7.687,31.04035,13.59551,17.70559,16.32756-34.78113A10.91009,10.91009,0,0,1,102.47648,183.89511Z"/><path class="cls-3" d="M348.856,171.28633,322.31564,89.01519l-.44346-.5763A11.64453,11.64453,0,0,0,308.625,71.42165L245.35646,25.73923a10.08631,10.08631,0,0,0-17.65867-6.44175l-66.37118-7.35566c-.07778-.1091-.1697-.20667-.25132-.31282a11.24193,11.24193,0,0,0-19.99785,2.26582L70.621,48.57205A10.943,10.943,0,0,0,55.94444,64.62522L14.869,124.89269a10.94993,10.94993,0,0,0-3.40862,21.2336l.15734,74.08319a10.96537,10.96537,0,0,0,3.633,21.32116c.28259,0,.54765-.06243.825-.08343L57.9028,298.74038a11.63683,11.63683,0,0,0,15.93735,14.57111l63.35326,31.28809a1.35372,1.35372,0,0,0,.16141.27836,13.24576,13.24576,0,0,0,21.14326,3.5881c.09972.01025.19012.02984.29412.03577h48.942l37.77318-13.214a12.434,12.434,0,0,0,18.66685-10.06759l45.78013-33.08552a10.87775,10.87775,0,0,0,5.696,1.638,10.94182,10.94182,0,0,0,8.17887-18.26771l25.24052-83.74481a10.94815,10.94815,0,0,0-.21378-20.47385Zm-30.959-71.9988,18.34221,56.85188-15.551-24.03363a11.65373,11.65373,0,0,0-3.57-13.76973Zm-7.18369-5.0174L309.693,115.87662a11.67825,11.67825,0,0,0-2.3332.286L242.63688,64.70345l57.59431,16.16031a11.57679,11.57679,0,0,0,10.48209,13.40637ZM162.79744,19.1795l62.36736,6.76757-.00132.0266A10.09833,10.09833,0,0,0,241.75708,33.71l47.57163,34.0805-46.09707-12.298A11.42583,11.42583,0,0,0,225.964,50.30887L162.688,19.8968C162.73345,19.66069,162.767,19.42056,162.79744,19.1795Zm75.33371,41.52877.00231-.031C238.30179,60.58351,238.28275,60.6056,238.13115,60.70827Zm-7.02847,4.10428c-.19223.06522-.256.04137-.13388-.1091ZM149.67974,28.83238a11.09774,11.09774,0,0,0,8.895-2.22013l62.96737,30.0015a11.42575,11.42575,0,0,0-.408,2.80557l-84.69032,6.9999a10.98326,10.98326,0,0,0-2.82078-3.992Zm-8.13-6.108a11.2441,11.2441,0,0,0,1.15546,1.861L125.76233,59.57621a11.22553,11.22553,0,0,0-8.87508,4.53837L77.78012,53.2521ZM66.683,68.17337a10.99477,10.99477,0,0,0,8.19457-8.093L114.6684,71.13661a11.24236,11.24236,0,0,0,.441,2.84454L43.58031,139.43086c-.23792-.1381-.47677-.27424-.72569-.39457ZM18.81756,146.19593a10.89355,10.89355,0,0,0,3.29711-18.8661L55.496,78.35334,35.33445,138.3128c-.24577.06468-.48522.14424-.72432.22521l-.08367-.28072-.08314.3326a10.89509,10.89509,0,0,0-4.42485,17.70072l-11.086,44.34577Zm2.51277,75.194,13.82617-55.3094,28.64178,81.53587a13.06483,13.06483,0,0,0-1.79675,2.01151L26.03806,232.573A10.84376,10.84376,0,0,0,21.33033,221.39Zm42.96009,70.6648a11.59664,11.59664,0,0,0-1.56.81757L24.09978,239.959l35.4649,17.79844A12.99537,12.99537,0,0,0,66.88584,268.929q.12235.06066.24622.11857c.19243.08844.38515.17506.58254.25427q.46825.19257.9542.34923l.01629.00564c.06409.02051.12573.04633.19027.06591Zm72.538,42.24229L79.98465,306.154a11.64644,11.64644,0,0,0-7.56016-14.43815l4.00333-21.9914a12.92547,12.92547,0,0,0,3.07794-1.40389l60.63264,61.01662A13.26317,13.26317,0,0,0,136.82843,334.29706Zm69.62908,5.23462-43.99251.04549c.00878-.19817.03-.39305.03-.59338a13.21564,13.21564,0,0,0-.761-4.39472l77.55816-9.91422a12.44369,12.44369,0,0,0,.40409,2.96654Zm44.0094-27.41908a12.37678,12.37678,0,0,0-2.5935.55633l-25.32032-32.26246-10.68365-.19621,28.35949,36.32768-84.24514,10.121,21.81187-47.07433-9.14715-.16794-21.45239,44.91977L84.96451,261.14324a12.952,12.952,0,0,0,.51505-2.45574,3.50013,3.50013,0,0,0,.18993-1.41739c0-.014-.00206,1.7676-.00211,1.75356l27.26165-3.84481-6.13562-7.99047-23.06367,3.0589,9.73313-20.41937-4.92-6.40735L78.17853,245.49888c-.0268-.01261-.05561-.0212-.0825-.03362a12.63179,12.63179,0,0,0-7.587-1.077L40.87148,159.506a10.9053,10.9053,0,0,0,4.29588-2.24192l37.467,17.41058,1.80278-7.27988-35.53519-16.513a10.285,10.285,0,0,0-.54239-5.852l72.09111-64.36232c.28273.15714.57459.29873.87155.43158l-3.00084,25.50809,7.82915-3.59477L128.654,81.73178a11.19258,11.19258,0,0,0,3.97546-1.88995l16.81425,12.47539,7.63039-3.50349-20.21983-15.0018,87.3307-6.38792a11.44007,11.44007,0,0,0,4.81456,3.09763l-1.82506,30.8569,7.63378,3.85045,2.6311-35.25152,62.76173,51.156a11.61828,11.61828,0,0,0-1.22254,2.46595l-33.36688,8.69388,1.66006,7.94272,31.8166-7.34384a10.97093,10.97093,0,0,0,8.80779,6.4185l-7.62185,78.58508-21.86989-24.39483,3.30532,15.81456,11.76181,13.40937a12.0806,12.0806,0,0,0-3.65253,8.66468c0,.13152.0155.259.01968.38952l-28.10454,1.90942-6.98439,8.4356,34.51659-2.31554Zm54.19266-29.33317a10.99308,10.99308,0,0,0,.21986,2.174l-44.043,31.0487a12.51131,12.51131,0,0,0-1.99654-1.73309l37.77367-72.003a12.03845,12.03845,0,0,0,4.72221,1.21568l8.53462,29.98785A10.96447,10.96447,0,0,0,304.65957,282.77943Zm3.26016-61.92857c-.0877-.04991-.17245-.1034-.26153-.15106l7.685-82.82594c.07808-.04078.15768-.07857.23473-.12107L338.329,172.91106a10.88568,10.88568,0,0,0-1.19472,16.25326Zm8.31909,45.71339-6.18145-25.76191c2.39705-2.72959,4.00735-5.11506,4.00735-9.41285a12.21888,12.21888,0,0,0-.08412-1.38112,11.3351,11.3351,0,0,0-.19405-1.52869L339.015,198.368Z"/></svg>