<svg xmlns="http://www.w3.org/2000/svg" role="img" viewBox="-9.49 -8.99 393.98 519.48"><defs><style>.cls-2{fill:#fff}</style></defs><path d="M19.12 437.54c1.79.04 3.57-.36 5.18-1.14 1.61-.79 3.01-1.94 4.09-3.38l4.98 5.1c-3.94 4.4-8.45 6.6-13.78 6.6-2.4.09-4.8-.3-7.05-1.16-2.25-.86-4.3-2.16-6.04-3.82-1.69-1.63-3.02-3.59-3.89-5.77-.88-2.18-1.29-4.51-1.2-6.86-.07-2.37.36-4.73 1.26-6.92.9-2.19 2.24-4.18 3.95-5.82 1.7-1.66 3.71-2.97 5.91-3.84 2.21-.88 4.57-1.3 6.94-1.25 2.69-.05 5.36.51 7.8 1.64 2.45 1.12 4.61 2.78 6.33 4.85l-4.75 5.44c-1.05-1.41-2.41-2.55-3.98-3.34-1.57-.78-3.3-1.19-5.06-1.18-2.73-.05-5.39.94-7.41 2.78-1.05.97-1.88 2.15-2.42 3.47-.54 1.32-.78 2.75-.71 4.17-.07 1.42.15 2.85.64 4.18.5 1.33 1.26 2.55 2.25 3.58 1.91 1.72 4.38 2.67 6.95 2.66zm20.27 6.72v-34.4h7.64v27.56h14.71v6.83H39.39zm55.94-4.75c-1.7 1.66-3.71 2.97-5.91 3.84-2.21.88-4.57 1.3-6.94 1.25-2.37.05-4.73-.38-6.94-1.25-2.21-.88-4.22-2.18-5.91-3.84-1.7-1.63-3.04-3.59-3.93-5.76-.9-2.17-1.33-4.51-1.28-6.86-.07-2.35.36-4.69 1.26-6.87.9-2.17 2.24-4.14 3.95-5.76 1.7-1.66 3.71-2.97 5.91-3.84 2.21-.88 4.57-1.3 6.94-1.25 2.37-.05 4.73.38 6.94 1.25 2.21.88 4.22 2.18 5.91 3.84 1.7 1.63 3.04 3.59 3.93 5.76.9 2.17 1.33 4.51 1.28 6.86.07 2.35-.36 4.69-1.26 6.87-.9 2.17-2.24 4.14-3.95 5.76zm-2.66-12.62c.02-2.91-1.05-5.72-3.01-7.88-.9-1.05-2.02-1.88-3.28-2.44-1.26-.56-2.63-.83-4.01-.8-1.38-.03-2.75.24-4.01.8-1.26.56-2.38 1.39-3.28 2.44-1.98 2.14-3.06 4.96-3.01 7.88-.02 2.91 1.05 5.72 3.01 7.88.9 1.05 2.02 1.88 3.28 2.44 1.26.56 2.63.83 4.01.8 1.38.03 2.75-.24 4.01-.8 1.26-.56 2.38-1.39 3.28-2.44 1-1.04 1.79-2.28 2.3-3.63.52-1.35.76-2.8.71-4.24zm23.5 8.52c.61.79 1.4 1.43 2.31 1.85.91.42 1.9.62 2.9.58.98.05 1.97-.14 2.86-.57.89-.42 1.66-1.07 2.24-1.86 1.33-1.89 1.98-4.18 1.85-6.49v-18.99h7.64v19.22c0 4.98-1.39 8.8-4.17 11.47-1.4 1.34-3.05 2.39-4.86 3.09-1.81.7-3.74 1.02-5.68.97-1.96.06-3.9-.27-5.73-.97-1.83-.7-3.5-1.74-4.92-3.09-2.78-2.66-4.17-6.49-4.17-11.47v-19.22h7.64v18.99c0 2.33.73 4.6 2.08 6.49zm54.09-21.03c3.24 3.01 4.98 7.18 4.98 12.51s-1.62 9.61-4.75 12.74c-3.13 3.13-8.11 4.63-14.59 4.63h-11.93v-34.4h12.13c6.17 0 10.92 1.51 14.16 4.52zm-5.56 20.5c1.85-1.74 2.78-4.4 2.78-7.76s-.93-6.02-2.78-7.76c-1.85-1.74-4.75-2.78-8.69-2.78h-4.28v20.96h4.86c2.94.16 5.83-.79 8.11-2.66zm54.2-25.02h7.64v34.4h-7.64l-16.48-21.59v21.54h-7.64v-34.4h7.18l16.91 22.12.03-22.07zm40.65 34.4l-3.24-7.41H241.8l-3.24 7.41h-8.22l14.82-34.4h7.41l14.82 34.4h-7.84zm-10.31-24.09l-4.28 9.96h8.57l-4.28-9.96zm34.63-3.59v27.79h-7.64v-27.79h-9.73v-6.65h27.22v6.6l-9.84.05zm15.28-6.72h7.64v34.4h-7.64v-34.4zm28.84 21.89l8.8-21.89h8.34l-13.78 34.4h-6.48l-13.78-34.4h8.3l8.61 21.89zm45.98-21.89v6.83h-17.14v7.06h15.4v6.6h-15.4v7.18h17.72v6.83h-25.36v-34.44h24.78v-.07z" class="cls-2"/><path d="M29.07 491.79v8.41H1.48v-37.76h9.4v29.35h18.19zm33.59 2.64H47.93l-2.31 5.77H35.07l14.95-37.76h10.55l14.95 37.76H64.97l-2.31-5.77zm-2.8-7.09l-4.56-11.6-4.56 11.6h9.12zm24.18-24.9h9.4l16.49 22.31v-22.31h9.34v37.76h-9.34l-16.49-22.31v22.31h-9.4v-37.76zm46.84 0h13.79c12.97 0 22.15 7.8 22.15 18.85s-9.18 18.91-22.15 18.91h-13.79v-37.76zm15.22 29.24c6.49 0 11.05-4.34 11.05-10.39s-4.56-10.33-11.05-10.33h-5.82v20.72h5.82zm27.54 2.86l5.33-6.32c3.68 3.02 7.8 4.78 12.42 4.78 3.52 0 5.33-1.43 5.33-3.46 0-2.25-1.76-2.75-7.25-4.07-8.08-1.81-14.07-4.01-14.07-11.6s5.83-12.09 14.4-12.09c6.37 0 11.32 1.87 15.33 5.17l-4.78 6.7c-3.46-2.64-7.25-4.01-10.77-4.01-3.02 0-4.73 1.43-4.73 3.3 0 2.31 1.81 3.08 7.42 4.29 8.47 1.81 13.9 4.23 13.9 11.32 0 7.58-5.77 12.31-15.11 12.31-6.7 0-12.81-2.2-17.42-6.32zm39.91-13.25c0-10.61 9.29-19.51 20.34-19.51 5.88 0 11.21 2.53 14.95 6.49l-6.87 6.1c-1.92-2.47-4.89-4.07-8.08-4.07-5.77 0-10.66 5.06-10.66 10.99s4.89 11.05 10.66 11.05c3.24 0 6.16-1.59 8.13-4.07l6.82 6.05c-3.74 4.01-9.07 6.54-14.95 6.54-11.05 0-20.34-8.96-20.34-19.57zm68.71 13.14h-14.73l-2.31 5.77h-10.55l14.95-37.76h10.55l14.95 37.76h-10.55l-2.31-5.77zm-2.8-7.09l-4.56-11.6-4.56 11.6h9.12zm24.18-24.9h17.53c8.35 0 14.35 5.33 14.35 12.97s-5.99 12.97-14.35 12.97h-8.13v11.82h-9.4v-37.76zm16.71 17.37c3.24 0 5.5-1.76 5.5-4.4s-2.25-4.4-5.5-4.4h-7.31v8.79h7.31zm33.86-8.96v5.88h18.47v8.41h-18.47v6.65h20.34v8.41h-29.74v-37.76h29.74v8.41h-20.34z" class="cls-2"/><g><path fill="#fff" d="M321.12 125.6V54.36H172.17l-46.75.4-.4-.4H54.39v70.63l.4.61-.4 46.75v73.06c27.52-22.26 54.84-44.32 82.16-66.78 5.46-4.45 9.11-4.45 14.17.81 20.04 20.64 57.34 57.14 77.58 77.58 4.25 4.45 76.63 79.36 92.41 90.69l.4-144.39V125.6z" opacity=".25"/><path fill="#fff" d="M350.77 374.52l-6.56-101.65-58.93-58.94-89.76 89.76v70.83h155.25z" opacity=".5"/><path fill="#f9f7f7" d="M321.12 322.48L183.05 184.41c-29.02-29.02-76.07-29.02-105.09 0l-54 54v84.07h297.16z"/><path d="M125.43 342.95V321.3H54.39v-71.24H.97v124.46h124.46v-31.57zm249.12-92.89H320.72l.4.4v70.84h-70.63l-.4-.41V374.52h124.46V250.06zM22.82 125.6H54.8l-.41-.61V54.36h70.63l.41.41V.94H.97V125.6h21.85zM250.09 17.94v36.42h71.03v71.24H374.55V.94H250.09v17z" class="cls-2"/><path fill="#e8e8e8" d="M125.43 17.94v36.83l46.74-.41h77.92V.94H125.43v17zm124.66 302.95l-46.95.41h-77.71v53.22h124.66V320.89zm97.75-195.29H321.12v77.71l-.4 45.74v1.01H374.55V125.6h-26.71zM22.82 250.06H54.39v-77.71l.41-46.75H.97v124.46h21.85z"/><path d="M236.8 84.51c-20.91 0-37.6 16.69-37.23 37.05.37 20.72 16.87 37.05 37.41 37.05s36.86-16.87 36.86-36.86c0-20.91-16.32-37.42-37.05-37.23z" class="cls-2"/></g></svg>