<svg xmlns="http://www.w3.org/2000/svg" role="img" viewBox="0.47 1.22 286.82 378.82"><style>svg {enable-background:new 0 0 288 387.2}</style><style>.st18{fill:#fff}.st25,.st26{opacity:.8;fill:#fff}.st26{opacity:.6}</style><path id="XMLID_207_" d="M21 321.6c2.8 0 5-1.1 6.7-3.3l3.6 3.7c-2.8 3.2-6.2 4.8-10.1 4.8-3.9 0-7-1.2-9.5-3.7-2.5-2.4-3.8-5.5-3.8-9.2 0-3.7 1.3-6.8 3.8-9.3 2.5-2.5 5.7-3.7 9.4-3.7 4.1 0 7.6 1.6 10.3 4.7l-3.5 3.9c-1.8-2.2-4-3.3-6.6-3.3-2.1 0-3.9.7-5.4 2.1-1.5 1.4-2.2 3.2-2.2 5.6s.7 4.2 2.1 5.6c1.5 1.4 3.2 2.1 5.2 2.1z" class="st18"/><path id="XMLID_205_" d="M35.8 326.6v-25.1h5.6v20.1h10.7v5H35.8z" class="st18"/><path id="XMLID_157_" d="M76.6 323.1c-2.5 2.5-5.7 3.7-9.4 3.7s-6.8-1.2-9.4-3.7c-2.5-2.5-3.8-5.6-3.8-9.2 0-3.7 1.3-6.8 3.8-9.2 2.5-2.5 5.7-3.7 9.4-3.7s6.8 1.2 9.4 3.7c2.5 2.5 3.8 5.6 3.8 9.2 0 3.6-1.3 6.7-3.8 9.2zm-1.9-9.2c0-2.2-.7-4.1-2.2-5.7-1.4-1.6-3.2-2.4-5.3-2.4-2.1 0-3.9.8-5.3 2.4-1.4 1.6-2.2 3.5-2.2 5.7s.7 4.1 2.2 5.7c1.4 1.6 3.2 2.4 5.3 2.4 2.1 0 3.9-.8 5.3-2.4 1.5-1.6 2.2-3.5 2.2-5.7z" class="st18"/><path id="XMLID_155_" d="M91.8 320.1c.9 1.2 2.2 1.7 3.8 1.7 1.6 0 2.8-.6 3.8-1.7.9-1.2 1.4-2.7 1.4-4.8v-13.9h5.6v14c0 3.6-1 6.4-3 8.4s-4.6 2.9-7.7 2.9c-3.1 0-5.7-1-7.7-2.9-2-2-3-4.8-3-8.4v-14h5.6v13.9c-.2 2 .2 3.6 1.2 4.8z" class="st18"/><path id="XMLID_151_" d="M131.3 304.7c2.4 2.2 3.6 5.2 3.6 9.1s-1.2 7-3.5 9.3c-2.3 2.3-5.9 3.4-10.7 3.4h-8.6v-25.1h8.9c4.4.1 7.9 1.2 10.3 3.3zm-4.2 15c1.4-1.3 2.1-3.2 2.1-5.6 0-2.5-.7-4.4-2.1-5.7-1.4-1.3-3.5-2-6.3-2h-3.1v15.3h3.6c2.5-.1 4.5-.7 5.8-2z" class="st18"/><path id="XMLID_103_" d="M166.7 301.5h5.6v25.1h-5.6l-12-15.7v15.7h-5.6v-25.1h5.2l12.3 16.2v-16.2z" class="st18"/><path id="XMLID_100_" d="M196.4 326.6l-2.3-5.4h-10.5l-2.3 5.4h-6l10.8-25.1h5.4l10.8 25.1h-5.9zm-7.6-17.7l-3.2 7.3h6.3l-3.1-7.3z" class="st18"/><path id="XMLID_98_" d="M214 306.3v20.2h-5.6v-20.2h-7.1v-4.8h19.8v4.8H214z" class="st18"/><path id="XMLID_96_" d="M225.2 301.5h5.6v25.1h-5.6v-25.1z" class="st18"/><path id="XMLID_94_" d="M246.3 317.4l6.4-16h6.1l-10.1 25.1H244l-10.1-25.1h6.1l6.3 16z" class="st18"/><path id="XMLID_12_" d="M279.8 301.5v5h-12.5v5.2h11.2v4.8h-11.2v5.2h12.9v5h-18.5v-25.1h18.1z" class="st18"/><g><path d="M8 367.3l2.5-2.9c3.7 3.3 7.2 5 12 5 4.7 0 7.8-2.5 7.8-6v-.1c0-3.3-1.8-5.1-9.1-6.7-8.1-1.8-11.8-4.4-11.8-10.1v-.1c0-5.5 4.9-9.6 11.5-9.6 5.1 0 8.8 1.5 12.3 4.3l-2.3 3.1c-3.3-2.7-6.5-3.8-10.1-3.8-4.6 0-7.5 2.5-7.5 5.7v.1c0 3.3 1.8 5.2 9.5 6.8 7.8 1.7 11.4 4.6 11.4 9.9v.1c0 6-5 9.9-12 9.9-5.5 0-10-1.9-14.2-5.6zm49.1-30.2h3.7l16 35.3h-4.3l-4.1-9.3H49.3l-4.2 9.3H41l16.1-35.3zm9.7 22.5l-8-17.9-8 17.9h16zm19.4-22.3h3.7l22.1 28.1v-28.1h3.9v35.1h-3.2L90 343.7v28.7h-3.9v-35.1zm42 0h12.2c11 0 18.6 7.6 18.6 17.4v.1c0 9.9-7.6 17.5-18.6 17.5h-12.2v-35zm12.2 31.4c8.9 0 14.5-6 14.5-13.8v-.1c0-7.8-5.7-13.9-14.5-13.9h-8.2v27.7h8.2zm29.5-31.4h14.9c4 0 7.2 1.2 9.2 3.1 1.5 1.5 2.3 3.4 2.3 5.6v.1c0 4.6-2.8 6.9-5.6 8.1 4.2 1.3 7.5 3.7 7.5 8.5v.1c0 6-5.1 9.6-12.7 9.6h-15.6v-35.1zm14.3 15.7c4.8 0 8.1-2.2 8.1-6.3v-.1c0-3.5-2.8-5.7-7.8-5.7h-10.7V353h10.4zm1.4 15.8c5.3 0 8.6-2.4 8.6-6.3v-.1c0-3.8-3.2-6-9.3-6h-11.1v12.4h11.8zM207 355v-.1c0-9.7 7.3-18.1 17.9-18.1 10.7 0 17.8 8.4 17.8 18v.1c0 9.7-7.3 18.1-17.9 18.1-10.6 0-17.8-8.4-17.8-18zm31.7 0v-.1c0-8-5.8-14.5-13.8-14.5s-13.7 6.4-13.7 14.4v.1c0 8 5.8 14.5 13.8 14.5 8-.1 13.7-6.5 13.7-14.4zm23.3-.5l-13-17.2h4.7l10.8 14.3 10.7-14.3h4.6l-13 17.1 13.5 17.9h-4.7l-11.2-15.1-11.4 15.2h-4.6l13.6-17.9z" class="st18"/></g><g><path d="M47.5 47.9v6.9-6.9zm60.8 193.2z" class="st18"/><path fill="#fff" d="M99.1 47.7l-51.6.2v6.9l.3 44.3-.3 33.9v55.9c6.9-5.7 13.3-12.4 20.2-18.1 10.7-8.9 22.7-13.2 35.9-11.5l16.3 6.6c4.2-5.9 10.7-8.6 18.3-8.7 6.2-.1 12.4.6 18.6.9.7-2.1 1.4-4.3 2-6.4 1.7-10.8 6.1-20.7 9.3-31 6-19.2 11.2-38.6 18.4-57.4.4-3.4 3.7-4.3 5.5-6.5h9.3c.9.9 1.7 1.8 2.6 2.7 3.8 3.1 6.3 6.5 4.3 11.8-10.9 28.5-21.8 57.1-32.6 85.7.9 4 4.2 2.5 6.5 2.6 10.5.5 12.8 3.1 11.2 13.3-.5 3.5.1 7 .1 10.5 5.5-2.4 11-4.5 16.8-5.9 11.5-2.8 21.4.7 30.7 7.7l.3-29.9V47.4H133l-33.9.3z" opacity=".2"/><path d="M196.1 71.6c0-.1.1-.1.1-.2 0 0-.1-.1-.1-.2v.4zm-78.2 138.6c0-.1 0-.1 0 0 0-.1 0-.1 0 0 0-.1 0-.1 0 0z" class="st18"/><path fill="#fff" d="M241.1 240.7v-.6.6zm-51.5.1c21.8 0 29.2 16.2 51 16.2 1.1 0-.4-16.8.5-16.9v-50.4l-.3-.3v-4c-9.3-7-19.2-10.5-30.7-7.7-5.8 1.4-11.4 3.5-16.8 5.9 0 1.9-.3 3.8-1.1 5.7-3.8 10-10.2 18.5-14.8 28-1.2 2.8-2.5 6.8-6.8 5.5h-.1l-.1-.1c-.3-.1-.7-.2-1-.3-6.5.3-13.1.9-18.5-4.2-1.9-1.8-4.6-.9-6.9-1.2-6.3.6-12.6 1-18.7 2.7-5.1-.4-10.8 3.8-15.8 4.2v-.1c-3.3 2-11.7 3.7-15.5-.6h-.2v-.1l-.3-.3 1.1-2c5.6-14.9 17.1-38.5 23.5-51.7.6-1.1 1.2-2.2 1.9-3.1l-16.3-6.6c-13.2-1.7-25.2 2.6-35.9 11.5-6.9 5.8-13.3 12.4-20.2 18.1v52.2h4.6c.4-.2-6.2 4.9-5.8 4.6 18.5 0 34.3-4.6 52.8-4.6" opacity=".4"/><path d="M172.3 241l17.3-.1 51.6-.1v-.6c-.9.1-1.9.1-3 .1M93.7 223.1h.2l-.2-.2c.1.2.1.2 0 .2zm76.8-.3s.1 0 0 0c0-.1 0-.1-.1-.1l.1.1z" class="st18"/><path d="M196.1 71.3c0 .1.1.1.1.2.8-1.7 1.7-3.5 2.5-5.2.8-4.6-2.2-7-5.4-9.3H192c-1.9 2.1-5.1 3.1-5.5 6.5.2.6.6 1.7.7 1.7 7.9-2.6 8.6-2.2 8.9 6.1z" class="st25"/><path d="M198.8 66.2c.4.5.9.9 1.3 1.4 3.6-1.6-.5-6.8 3.9-8-.9-.9-1.7-1.8-2.6-2.7h-8c3.1 2.3 6.2 4.7 5.4 9.3z" class="st25"/><path d="M159.8 150.9c7.7 1.7 8.6-4.4 10.7-9.3 10.1-22.8 19.2-45.9 25.7-70v-.3c-.3-8.3-1-8.7-8.9-6.3-.1 0-.5-1.1-.7-1.7-7.2 18.8-12.3 38.2-18.4 57.4-3.2 10.3-7.6 20.3-9.3 31 .3-.3.6-.9.9-.8zm-65.2 69.9l14.2-25.2c4.1-8.5 7.8-17.2 12.3-25.2 2.7-3.8 5.9-7.1 10.7-8 .8-.3 1.5-.5 2.2-.6 7.8-2 15.6 0 23.3.8 8.8.4 17.6.7 26.3 1.3 5.4.4 7.6 4.3 5.7 9.2-.3.8-.7 1.6-1.1 2.4-3.5 7.7-5.3 11.8-11.6 11.6 4.9 1 5.3 4 2.5 10.4-2.8 6.2-5.9 12.4-8.4 18.7-.9 2.1-1.5 4.1-1.4 6.3.3.1.7.2 1 .3 3.7-12.5 10.4-23.1 16.2-36 2.8-4.9 3-6.3 5.7-9.5v12c.8-1.9 1.1-3.8 1.1-5.7.1-3.5-.6-7.1-.1-10.5 1.5-10.2-.7-12.8-11.2-13.3-2.3-.1-5.6 1.4-6.5-2.6-1.4 1.4-2.5 4.1-4.9 1.2-4.6 1.2-9.2.3-13.8-.2-6.2-.3-12.4-1-18.6-.9-7.6.1-14.1 2.8-18.3 8.7-.7 1-1.3 2-1.9 3.1-6.3 13.2-17.8 36.8-23.4 51.7z" class="st26"/><path d="M170.6 158.4c3.5-12 9.1-23.2 13.4-34.9 4.2-11.5 8.9-22.8 12.1-34.7 1.8-7 4.9-13.7 4-21.1-.4-.5-.9-.9-1.3-1.4-.8 1.7-1.7 3.5-2.5 5.2 0 .1-.1.1-.1.2-6.4 24.1-15.6 47.2-25.7 70-2.1 4.9-3 11-10.7 9.3-.2-.1-.6.6-.9.9-.7 2.1-1.4 4.3-2 6.4 4.5.3 9.1 1.3 13.7.1z" class="st26"/><path d="M117.9 210.2c0-.1 0-.1 0 0-.2-.4-.4-.7-.6-1l-8.6-13.2c.1-.1.1-.2.1-.3l-14.2 25.2-1.1 2 .3.3c0 .1.1.1.2.2 3.7 4.3 12.2 2.6 15.5.6l7.5-12.2c.3-.7.5-1.2.9-1.6zm82.2-142.6c.9 7.5-2.1 14.2-4 21.1-3.1 11.9-7.9 23.2-12.1 34.7-4.3 11.7-9.9 22.9-13.4 34.9 2.5 2.9 3.5.2 4.9-1.2 10.9-28.6 21.7-57.2 32.6-85.7 2.1-5.4-.4-8.8-4.3-11.8-4.2 1.2-.1 6.4-3.7 8zm-13.5 119.1c-5.8 12.9-12.5 23.5-16.2 36h.2c4.3 1.3 5.6-2.7 6.8-5.5 4.6-9.5 11.1-18 14.8-28v-12c-2.6 3.2-2.8 4.6-5.6 9.5z" class="st25"/><path d="M179.2 197.4c2.8-6.3 2.4-9.4-2.5-10.4-1 0-2.1-.1-3.4-.4-10.4-.5-20.7-1.1-31.1-1.6-2.9-.1-5.9-.3-7.7 2.6 4.3 9.4 9.2 18.6 9.5 29.3 2.3.4 5-.6 6.9 1.2 5.4 5.1 12 4.4 18.5 4.2-.1-2.2.6-4.2 1.4-6.3 2.5-6.3 5.6-12.4 8.4-18.6z" class="st26"/><path d="M126.6 196.1v.6c.1-.2.2-.3.4-.5 2.9-3.9 4.5-6 7.5-8.6 1.9-3 4.8-2.8 7.7-2.6 10.4.5 20.7 1.1 31.1 1.6 1.3.3 2.4.4 3.4.4 6.3.2 8.1-3.9 11.6-11.6.4-.8.8-1.6 1.1-2.4 1.9-4.9-.3-8.8-5.7-9.2-8.8-.7-17.6-.9-26.3-1.3-7.8-.8-15.5-2.8-23.3-.8-.6.1-1.3.3-2.2.6-4.9.9-8 4.2-10.7 8 7 7.5 11 15.6 5.4 25.8z" class="st25"/><path d="M117.3 209.1c.2.4.4.7.6.9v.1c3.2-4.8 5.4-8.8 8.7-13.4v-.6c5.6-10.2 1.6-18.3-5.5-25.8-4.6 8.1-8.2 16.7-12.3 25.2-.1.1-.1.2-.1.3l8.6 13.3z" class="st25"/><path d="M134.5 187.7c-3 2.6-4.6 4.6-7.5 8.6-.1.2-.2.3-.4.5-3.3 4.6-5.5 8.5-8.7 13.4-.3.5-.6.9-1 1.4l-7.5 12.2v.1c5-.4 10.7-4.6 15.8-4.2 6.1-1.7 12.5-2 18.7-2.7-.3-10.7-5.1-19.9-9.4-29.3z" class="st26"/><path d="M99.1 241.1H47.5v-51.7H8.8v90.4h90.3zm141.7-51.7l.3 50.7v.6l-51.5.1v39h90.3v-90.4h-39.1zM47.5 54.8v-6.9l51.6-.2V8.6H8.8v90.5h39zM189.6 8.6v38.8h51.5v51.7h38.8V8.6z" class="st18"/><path d="M133 47.4h56.6V8.6H99.1v39.1zm107.8 142h39.1V99.1h-38.8v56.4M47.5 188.9V133l.3-33.9h-39v90.3h38.7zm85.5 90.7l56.6.2v-38.9l-90.5.2v38.7z" class="st25"/></g></svg>