<?xml version="1.0" encoding="UTF-8"?>
<svg id="Layer_1" data-name="Layer 1" xmlns="http://www.w3.org/2000/svg" viewBox="0 0 37.96 41.01">
  <defs>
    <style>
      .cls-1 {
        fill: #fff;
      }

      .cls-2 {
        fill: #feda15;
      }

      .cls-3 {
        fill: #e6c220;
      }

      .cls-4, .cls-5 {
        fill: #0d1a2a;
      }

      .cls-5 {
        fill-rule: evenodd;
      }
    </style>
  </defs>
  <path class="cls-5" d="M20.37,.36c-.86-.47-1.91-.47-2.77,0L3.4,8.16s-.02,.01-.03,.02l-1.87,1.03C.57,9.71,0,10.68,0,11.73V29.28C0,30.33,.57,31.3,1.49,31.81l14.34,7.88s.04,.02,.06,.03l1.71,.94c.86,.47,1.91,.47,2.77,0l1.72-.94s.03-.02,.05-.03l14.34-7.88c.92-.51,1.49-1.47,1.49-2.52V11.73c0-1.05-.57-2.02-1.49-2.52l-1.86-1.02s-.03-.02-.04-.02L20.37,.36Zm.91,20.15l13.29-7.3s.03-.02,.04-.02l.16-.09c.44-.24,.98,.08,.98,.58v13.66c0,.5-.54,.82-.98,.58l-.12-.07s-.05-.03-.08-.04l-13.29-7.3ZM3.36,13.18s.02,.01,.03,.02l13.29,7.3L3.4,27.81s-.05,.03-.07,.04l-.13,.07c-.44,.24-.98-.08-.98-.58V13.67c0-.5,.54-.82,.98-.58l.17,.09Zm30.16-3.07L21.07,3.27c-.44-.24-.97,.07-.98,.56v14.81l13.43-7.38c.43-.26,.43-.88,0-1.14Zm-29.08,1.14l13.43,7.38V3.83c-.01-.49-.55-.8-.98-.56L4.44,10.11c-.44,.26-.44,.89,0,1.14Zm.02,19.66c-.45-.25-.46-.88-.03-1.14l13.45-7.39v14.81c-.01,.48-.53,.79-.96,.58l-12.46-6.85Zm15.63,6.25v-14.79l13.45,7.39c.42,.27,.41,.9-.04,1.14l-12.45,6.85c-.43,.22-.94-.09-.96-.57h0v-.02Z"/>
  <path class="cls-3" d="M18.66,2.29c.2-.11,.44-.11,.64,0l14.2,7.81c.46,.25,.46,.91,0,1.16l-14.2,7.81c-.2,.11-.44,.11-.64,0L4.46,11.26c-.46-.25-.46-.91,0-1.16L18.66,2.29Z"/>
  <path class="cls-2" d="M2.21,13.67c0-.5,.54-.82,.98-.58l14.34,7.88c.21,.12,.34,.34,.34,.58v15.61c0,.5-.54,.82-.98,.58L2.56,29.87c-.21-.12-.34-.34-.34-.58V13.67Z"/>
  <path class="cls-1" d="M34.77,13.09c.44-.24,.98,.08,.98,.58v15.61c0,.24-.13,.47-.34,.58l-14.34,7.88c-.44,.24-.98-.08-.98-.58v-15.61c0-.24,.13-.47,.34-.58l14.34-7.88Z"/>
  <path class="cls-4" d="M8.23,25.92s0,.01,0,.02l-3.36-1.77s0-.01,0-.02c.08-1.05,.89-1.5,1.82-1.01,.93,.49,1.62,1.73,1.54,2.78Z"/>
  <path class="cls-4" d="M13.52,28.97s0,.01,0,.02l-3.36-1.77s0-.01,0-.02c.08-1.05,.89-1.5,1.82-1.01,.93,.49,1.62,1.73,1.54,2.78Z"/>
</svg>