<svg xmlns="http://www.w3.org/2000/svg" role="img" viewBox="-2.27 -1.77 172.53 221.78"><style>svg {enable-background:new 0 0 168 219}</style><path d="M84 144.5c-.7 0-1.3-.3-1.8-.8-.8-1-.7-2.5.3-3.3L160.3 74c.9-2.6 1-4.8 1-5.1 0-14.6-9.6-27-9.7-27.1 0-.1-.1-.1-.1-.2-13.3-20.8-32-27.4-41-30.6-5.1-1.8-23.8-7.2-49.2-.9-20.7 5.1-38.4 19-48.7 38.1-4.9 9.1-5.8 15.9-5.7 19.9 0 .8.1 1.6.2 2.2 4.1-4.4 12.3-10.8 24.7-10.2 1.2 0 16.6.7 25.6 15.1 3.4-5.4 11.3-14.3 26.1-15.2.5 0 5.4-.3 11.3 1.7 4.9 1.7 11.5 5.4 16.6 13.3 3.3-5.4 10.9-14.2 25.3-15 1.3-.1 2.4.9 2.5 2.2.1 1.3-.9 2.4-2.2 2.5-17.3 1-23.1 15.5-23.3 16.1-.3.9-1.2 1.5-2.1 1.5s-1.8-.5-2.2-1.3C100.8 63.5 84 64.7 83.8 64.7h-.1c-17.9 1-23.9 15.7-24.2 16.3-.3.9-1.2 1.5-2.1 1.5-1 0-1.8-.5-2.2-1.4-7.2-16-23.4-16.4-23.5-16.4h-.1C16 64.2 8 76.6 7.9 76.8c-.4.7-1.2 1.1-2.1 1.1-.8 0-1.6-.5-2-1.2-.2-.5-5.8-11.2 4.6-30.6C19.2 25.8 38.1 11 60.1 5.6 86.8-1 106.5 4.8 112 6.7c8.7 3.1 29.2 10.3 43.4 32.4 1 1.3 10.7 14.3 10.7 29.9 0 .2-.1 3.5-1.5 7.2-.1.4-.4.7-.7 1L85.6 144c-.5.4-1 .5-1.6.5z"/><path d="M83.6 144.2c-.5 0-1.1-.2-1.5-.6L4.4 77.3c-1-.8-1.1-2.3-.3-3.3s2.3-1.1 3.3-.3L85.2 140c1 .8 1.1 2.3.3 3.3-.5.6-1.2.9-1.9.9z"/><path d="M83.9 144.2c-.9 0-1.8-.5-2.2-1.4L55 81.3c-.5-1.2 0-2.6 1.2-3.1s2.6 0 3.1 1.2L86 140.9c.5 1.2 0 2.6-1.2 3.1-.3.1-.6.2-.9.2z"/><path d="M84 144.5c-.3 0-.6-.1-.9-.2-1.2-.5-1.7-1.9-1.2-3.1l27.2-62c.5-1.2 1.9-1.7 3.1-1.2s1.7 1.9 1.2 3.1l-27.2 62c-.4.9-1.3 1.4-2.2 1.4z"/><path d="M111.4 188.3H56c-1.3 0-2.3-1.1-2.3-2.3v-43.7c0-1.3 1.1-2.3 2.3-2.3h13.8c1.3 0 2.3 1.1 2.3 2.3 0 1.3-1.1 2.3-2.3 2.3H58.3v39h50.8v-39H84.4c-1.3 0-2.3-1.1-2.3-2.3 0-1.3 1.1-2.3 2.3-2.3h27.1c1.3 0 2.3 1.1 2.3 2.3V186c0 1.3-1.1 2.3-2.4 2.3z"/><circle cx="68.5" cy="142.3" r="5.3"/><circle cx="137.4" cy="62.5" r="5.3"/><path d="M100.3 178.4c-1.3 0-2.3-1.1-2.3-2.3v-24c0-.9.6-1.8 1.5-2.2s1.9-.2 2.6.5l5.1 5.1c.9.9.9 2.4 0 3.3-.9.9-2.4.9-3.3 0l-1.1-1.1V176c-.2 1.3-1.2 2.4-2.5 2.4z"/><path d="M95.1 159.5c-.6 0-1.2-.2-1.7-.7-.9-.9-.9-2.4 0-3.3l5.1-5.1c.9-.9 2.4-.9 3.3 0s.9 2.4 0 3.3l-5.1 5.1c-.4.5-1 .7-1.6.7zm-41.2 38.1H70v2.7h-6.3v15.2h-3.5v-15.2h-6.3v-2.7zm21.1 0h3.5V208c0 .6 0 1.2.1 1.8.1.6.3 1.2.6 1.7s.8.9 1.4 1.2c.6.3 1.5.5 2.6.5s2-.2 2.6-.5c.6-.3 1.1-.7 1.4-1.2.3-.5.5-1 .6-1.7.1-.6.1-1.2.1-1.8v-10.4h3.5V209c0 1.2-.2 2.2-.6 3-.4.9-.9 1.6-1.7 2.1-.7.6-1.6 1-2.6 1.3s-2.1.4-3.3.4c-1.2 0-2.3-.1-3.3-.4-1-.3-1.9-.7-2.6-1.3s-1.3-1.3-1.7-2.1-.6-1.9-.6-3v-11.4zm23.4 0h13.7v2.7h-10.3v4.7h9v2.6h-9v8h-3.5v-18z"/></svg>