<svg xmlns="http://www.w3.org/2000/svg" role="img" viewBox="-21.24 -21.24 1104.48 533.48"><g fill-rule="nonzero" fill="none" stroke="none" stroke-width="1"><path fill="#326CE5" d="M446.14259 121.16418c-2.6595-8.51043-9.04233-15.42516-17.02086-19.68037L266.89171 23.82616c-4.25521-2.1276-9.04233-2.6595-13.29754-2.6595-4.25522 0-9.04233 0-13.29755 1.0638L78.0666 100.42c-7.97853 3.7233-13.82945 10.63803-15.95705 19.68036L21.68502 295.09604c-1.59571 9.04233.5319 18.08466 5.85091 25.53128L139.7672 459.45367c6.38282 6.38282 15.42515 10.63803 24.46748 11.16994h179.25088c9.57423 1.0638 18.61656-3.19142 24.46748-11.16994L480.1843 320.62732c5.31902-7.44662 7.44662-16.48895 6.38282-25.53128l-40.42453-173.93187z"/><path fill="#FFF" d="M253.59417 0c8.14562 0 15.60965 1.31718 22.43665 4.73418l162.23003 77.65765.82166.41552c12.98016 6.92275 22.95538 18.25823 27.26322 32.04334l.23536.75315 40.86999 175.8485.13771 1.17056c1.61247 13.70599-1.53578 27.37646-9.11895 38.7682l-1.42832 2.0526-112.46454 139.11236-.53834.71235c-9.67494 12.35743-24.22972 19.30729-39.68202 18.63988l-1.83248-.12232-178.91147.00429-.62094-.03653c-14.17353-.83374-28.1055-7.24687-38.19161-17.33298l-.79054-.79053L10.67872 333.4437l-.3668-.51351c-8.63517-12.08925-12.05141-26.89295-9.47147-41.5126l.22102-1.08565 40.4441-175.07956c3.45547-14.68575 12.93013-26.61421 25.9141-33.1913L233.0597 2.2216l2.10327-.52581C238.54993.84904 241.9776.3886 245.70245.1695c1.88656-.11097 3.39283-.15186 5.6955-.16455L253.59418 0zm0 21.16665c-4.25522 0-9.04233 0-13.29755 1.0638L78.0666 100.42001c-7.97853 3.7233-13.82945 10.63803-15.95705 19.68036L21.68502 295.09604c-1.59571 9.04233.5319 18.08466 5.85091 25.53128L139.7672 459.45367c6.38282 6.38282 15.42515 10.63803 24.46748 11.16994h179.25088c9.57423 1.0638 18.61656-3.19142 24.46748-11.16994L480.1843 320.62732c5.31902-7.44662 7.44662-16.48895 6.38282-25.53128l-40.42453-173.93187c-2.6595-8.51042-9.04233-15.42515-17.02086-19.68036L266.89171 23.82616c-4.25521-2.1276-9.04233-2.6595-13.29754-2.6595z"/><path fill="#FFF" d="M322.32235 397.1805c10.7696-5.25268 23.75821-.78034 29.0109 9.98926 5.25267 10.76959.78033 23.7582-9.98926 29.01089-10.76959 5.25268-23.7582.78034-29.01089-9.98926-5.25268-10.76959-.78034-23.7582 9.98925-29.01089zm-165.65577 9.98926c5.25268-10.7696 18.2413-15.24194 29.0109-9.98926 10.76958 5.25268 15.24192 18.2413 9.98924 29.0109-5.25268 10.76959-18.2413 15.24193-29.01089 9.98925-10.7696-5.25269-15.24193-18.2413-9.98925-29.0109zm105.2732-296.93732l-.00297 29.1998c31.3637 2.07353 59.3931 16.34617 79.38695 38.11666l21.68468-17.56254c1.03541 1.92327 2.2642 3.77796 3.68912 5.5376 2.01328 2.4862 4.29357 4.62883 6.76624 6.42005l-22.20618 17.98444c13.41009 19.20755 21.27554 42.573 21.27554 67.77552 0 6.35517-.50014 12.59352-1.4632 18.67785l24.78159 5.7172c-.6108 1.57294-1.11663 3.20877-1.50734 4.90112-.8443 3.65705-1.0897 7.31257-.8004 10.8638l-26.00623-6.00249c-8.82744 29.383-28.74938 53.96486-54.89916 68.87892l10.51886 21.5566c-2.32513.58921-4.62506 1.42457-6.86618 2.51763-2.66497 1.2998-5.09398 2.88947-7.26758 4.71253l-10.66748-21.86811c-13.70115 5.53238-28.67294 8.5782-44.35613 8.5782-15.68318 0-30.65498-3.04582-44.35613-8.5782l-10.66748 21.8681c-2.1736-1.82305-4.6026-3.41272-7.26758-4.71252-2.24237-1.09367-4.5436-1.92935-6.87006-2.51862l10.51746-21.55863c-26.14718-14.91435-46.06703-39.49488-54.89388-68.8759l-26.00623 6.0025c.2893-3.55124.0439-7.20676-.8004-10.8638-.3907-1.69236-.89654-3.32819-1.50733-4.90113l24.78159-5.7172c-.96307-6.08433-1.4632-12.32268-1.4632-18.67785 0-25.20483 7.8669-48.57226 21.27923-67.78081L134.537 171.9433c2.4723-1.79108 4.75224-3.93348 6.76525-6.41934 1.42493-1.75964 2.65371-3.61433 3.68912-5.5376l21.68469 17.56254c19.99384-21.77049 48.02324-36.04313 79.38695-38.11665l-.00298-29.19981c2.5526.584 5.21021.89248 7.93987.89248 2.18373 0 4.32135-.19743 6.39598-.5754l1.5439-.31708zm-7.93987 45.87161l-2.78072.03732-2.58871.10213c-26.81241 1.3961-50.87354 13.18712-68.2298 31.41952l-.53137.56243-2.36272 2.6085a102.07332 102.07332 0 0 0-1.83357 2.15524l-2.20931 2.76733a101.92566 101.92566 0 0 0-3.39061 4.66904c-11.15152 16.30879-17.67311 36.032-17.67311 57.27841 0 4.82685.3366 9.57508.9876 14.2225l.091.63504.58499 3.55156.53388 2.70782.76445 3.31998-.10637-.42291.26314 1.06462a100.81161 100.81161 0 0 0 1.42213 5.04744c7.37661 23.7933 23.26284 43.84524 44.1012 56.59744l1.75738 1.05124a101.37463 101.37463 0 0 0 5.44712 2.96464l2.79733 1.35973.60549.27746 2.20133.97896.84666.35983 2.05031.838c11.5347 4.54813 24.10172 7.04658 37.25228 7.04658 13.06135 0 25.54705-2.46467 37.01738-6.9543l3.13823-1.28958 2.52025-1.12656 1.4387-.68063 1.42623-.70238 2.3738-1.24275 2.82184-1.55934c21.2711-12.28415 37.6752-32.05532 45.61066-55.71187l.64652-1.99603a100.84903 100.84903 0 0 0 2.33996-8.89634l.60326-3.03373.57418-3.47864c.71737-4.872 1.08892-9.8565 1.08892-14.92778 0-20.45138-6.04266-39.49143-16.43998-55.43215l-1.10188-1.65383a101.92877 101.92877 0 0 0-3.56804-4.92137l-2.10604-2.62501-1.18539-1.42292a102.19773 102.19773 0 0 0-2.90678-3.2509c-16.95344-18.16613-40.49411-30.10883-66.81698-32.02295l-2.40157-.14633-2.51476-.09287-2.5585-.03159zm153.75 133.99104c2.69542-11.67516 14.34508-18.95468 26.02025-16.25926 11.67516 2.69543 18.95468 14.34509 16.25926 26.02025-2.69543 11.67517-14.3451 18.95469-26.02026 16.25926-11.67516-2.69542-18.95468-14.34509-16.25925-26.02025zM74.22966 273.83583c11.67517-2.69542 23.32483 4.5841 26.02026 16.25926 2.69542 11.67516-4.5841 23.32483-16.25926 26.02025-11.67517 2.69543-23.32483-4.5841-26.02025-16.25926-2.69543-11.67516 4.5841-23.32482 16.25925-26.02025zm306.36732-147.4847c9.31197-7.54068 22.97375-6.10477 30.51444 3.2072 7.54068 9.31197 6.10477 22.97375-3.2072 30.51444-9.31197 7.54068-22.97375 6.10477-30.51443-3.2072-7.5407-9.31197-6.10478-22.97375 3.2072-30.51444zm-283.70857 3.2072c7.54068-9.31197 21.20246-10.74788 30.51443-3.2072 9.31197 7.54069 10.74788 21.20247 3.2072 30.51444-7.54069 9.31197-21.20247 10.74788-30.51444 3.2072-9.31197-7.54069-10.74788-21.20247-3.2072-30.51444zm157.1115-75.58337c11.98227 0 21.69582 9.71355 21.69582 21.69582 0 11.98227-9.71355 21.69581-21.69582 21.69581-11.98227 0-21.69582-9.71354-21.69582-21.69581 0-11.98227 9.71355-21.69582 21.69582-21.69582z"/><path fill="#FFF" d="M311.37698 226.76c4.16306 0 7.64193.61232 10.43989 1.8445 2.79486 1.23082 5.05215 2.82953 6.76529 4.7964 1.70445 1.95688 2.94144 4.13222 3.70706 6.52065.38596 1.20406.6921 2.39771.91832 3.5809.45224 2.3655-.84138 4.1892-3.36682 4.1892h-4.16887c-2.1758 0-3.60817-1.15283-4.16612-3.0437l-.03753-.14057c-.19113-.79623-.43901-1.52587-.7432-2.18921-.58829-1.2829-1.34653-2.335-2.27598-3.16229-.93343-.83084-1.99416-1.44609-3.18788-1.84886-1.21209-.40897-2.50576-.61369-3.88416-.61369-1.26922 0-2.5245.1284-3.76668.38529-1.2092.25006-2.28002.6551-3.21543 1.2145-.90743.54268-1.63354 1.24453-2.18596 2.112-.53436.8391-.80416 1.88284-.80416 3.14473 0 1.44553.41842 2.6333 1.2603 3.5985.90454 1.03704 2.10134 1.94997 3.59346 2.73706 1.53576.81011 3.29684 1.54016 5.28251 2.18914l4.11798 1.3651c.69571.23378 1.39612.4707 2.1012.71076 2.1321.7259 4.2217 1.53013 6.26878 2.4127 2.09324.90247 3.9578 2.01124 5.59204 3.32624 1.65898 1.33492 3.00143 2.93912 4.02346 4.80796 1.03854 1.89903 1.55552 4.1589 1.55552 6.77133 0 3.13733-.58254 5.89417-1.75113 8.26412-1.16769 2.36815-2.7975 4.3413-4.88322 5.9114-2.0668 1.55588-4.5082 2.72749-7.32007 3.5153-2.7897.78158-5.8401 1.17179-9.15045 1.17179-2.99596 0-5.9066-.52461-8.7275-1.57296-2.82475-1.04978-5.35376-2.56782-7.58255-4.55164-2.23235-1.987-4.04131-4.38972-5.42432-7.2032-.92092-1.87345-1.55513-3.90704-1.90729-6.1212l-.02958-.23158c-.24116-2.40007 1.08413-4.04295 3.62643-4.04295h4.01935c2.09833 0 3.39714.76282 3.95353 2.2837l.0969.28238.12856.57268.09363.48305.23569.82113c.21935.73698.40725 1.30642.53431 1.61542.65403 1.5905 1.51078 2.95438 2.57097 4.09563 1.05158 1.13198 2.28449 2.00536 3.70442 2.62413 1.41815.618 2.98525.92747 4.70745.92747 1.54572 0 3.02781-.16257 4.44724-.48745 1.38377-.31672 2.59505-.82771 3.63807-1.5327 1.02101-.69012 1.83586-1.58918 2.45093-2.7055.60751-1.1026.91454-2.47349.91454-4.11902 0-1.41381-.41587-2.5702-1.25356-3.50628-.90447-1.0107-2.10201-1.9043-3.59522-2.67862-1.53578-.7964-3.29692-1.51269-5.2827-2.1479-2.03144-.6498-4.09805-1.32783-6.19984-2.03408a75.55065 75.55065 0 0 1-6.25496-2.41559c-2.09298-.91691-3.95722-2.04008-5.5911-3.3694-1.65898-1.34974-3.0011-2.97579-4.02262-4.87332-1.037-1.9263-1.553-4.2266-1.553-6.8936 0-2.71825.53523-5.1335 1.6081-7.23737 1.07082-2.09987 2.58222-3.86701 4.52716-5.29424 1.92615-1.41344 4.21207-2.4778 6.85405-3.194 2.6187-.70988 5.48381-1.06424 8.59476-1.06424zm-125.47324 1.1789c1.42943 0 2.58856 1.15813 2.58978 2.58756l.04277 45.56513c.00085.98787.80191 1.78825 1.78981 1.78825l24.30886.00187c1.3584 0 2.48327 1.04943 2.58353 2.41253l.00623.18865-.0235 5.33873c-.00628 1.42583-1.1639 2.57838-2.58976 2.57838h-34.42168c-1.4303 0-2.58978-1.15948-2.58978-2.58978V230.5268c0-1.4303 1.15948-2.58978 2.58991-2.58978l5.71383.00188zm35.3187-.00188c1.67065 0 3.12508 1.15321 3.52839 2.79417l8.18223 33.29142c.0915.37227.45945.5966.82112.50503.23044-.05835.41502-.236.4855-.46923l10.12725-33.51553c.46766-1.5477 1.87787-2.60586 3.47683-2.60586h4.27661c1.59794 0 3.0075 1.05684 3.47602 2.6032l10.05683 33.19272c.111.36636.4899.57004.84615.45885.22536-.07034.3996-.2556.45906-.49012l8.36671-32.99696c.41281-1.62804 1.86119-2.76769 3.52177-2.76769h4.99565c1.41378 0 2.55744 1.1608 2.55744 2.58978 0 .2155-.02656.43016-.07907.63901l-13.6926 54.45926c-.41023 1.63158-1.86027 2.77493-3.5236 2.77493h-4.49416c-1.61938 0-3.04244-1.08486-3.49256-2.6594l-10.46443-36.60482c-.10526-.36822-.48104-.57807-.839-.47265-.19393.05712-.3531.19973-.42485.36539l-.0466.1312-10.45677 36.58088c-.45012 1.57454-1.87318 2.6594-3.49256 2.6594h-4.57494c-1.66515 0-3.11629-1.1458-3.5248-2.77973l-13.61532-54.45783c-.3461-1.38436.47988-2.79292 1.84879-3.1455a2.52728 2.52728 0 0 1 .63043-.07992h5.06449z"/><path fill="#326CE5" d="M994.1645 156.32c12.02111 0 22.06277 1.77247 30.14779 5.333 8.08779 3.56174 14.6198 8.19156 19.57962 13.88593 4.93381 5.66453 8.51508 11.96355 10.73152 18.87796 1.11344 3.4735 1.99659 6.91716 2.64922 10.33077 1.38687 7.25406-2.74877 12.58987-10.13159 12.58987h-11.96143c-6.30438 0-10.70984-3.30225-12.41727-9.08922l-.11066-.41511c-.54087-2.25315-1.24181-4.31752-2.10197-6.19329-1.65913-3.61811-3.79451-6.58404-6.41312-8.91484-2.63014-2.34106-5.6173-4.07355-8.98106-5.20853-3.42924-1.15707-7.08952-1.7356-10.99105-1.7356-3.60902 0-7.17813.36508-10.71025 1.09552-3.41471.70617-6.43751 1.84832-9.0766 3.42658-2.53904 1.51842-4.56834 3.47927-6.11352 5.90566-1.48615 2.3337-2.23219 5.24326-2.23219 8.7651 0 4.0275 1.15667 7.32531 3.49783 10.0094 2.55815 2.93286 5.94755 5.51545 10.17264 7.74417 4.38348 2.31228 9.41213 4.39638 15.0838 6.25005l11.81725 3.9174a1606.02704 1606.02704 0 0 1 6.03063 2.03995c6.12943 2.08683 12.13676 4.3989 18.02182 6.93617 6.04698 2.60708 11.43372 5.811 16.15568 9.61055 4.8091 3.86969 8.70173 8.5213 11.66441 13.93874 3.01655 5.51593 4.52201 12.07614 4.52201 19.65876 0 9.0805-1.68983 17.06088-5.07385 23.92387-3.38373 6.86238-8.10872 12.58236-14.15288 17.13234-5.97623 4.49885-13.03408 7.88763-21.1621 10.16486-8.0449 2.25395-16.84006 3.37994-26.38415 3.37994-8.6531 0-17.06099-1.51537-25.20834-4.54322-8.16092-3.03289-15.46869-7.41953-21.90795-13.15106-6.45078-5.74179-11.67923-12.68526-15.6752-20.81437-2.66555-5.42258-4.49853-11.30399-5.5178-17.71402l-.08634-.67728c-.73559-7.32066 3.45116-12.1281 10.88263-12.1281h11.5324c6.18473 0 10.11618 2.28035 11.79757 6.8766l.29236.8609.37175 1.65695.25878 1.34488.67493 2.35151c.6294 2.11467 1.16255 3.72756 1.51694 4.58939 1.85398 4.5086 4.28067 8.37373 7.28442 11.60713 2.9723 3.19954 6.45535 5.66687 10.46888 7.41586 4.01005 1.74747 8.44186 2.62115 13.31497 2.62115 4.3983 0 8.61492-.46226 12.65301-1.3865 3.91033-.895 7.33179-2.33694 10.27673-4.32747 2.86707-1.93788 5.1529-4.46083 6.88065-7.59663 1.70587-3.09606 2.56443-6.95455 2.56443-11.58673 0-3.93447-1.14783-7.14031-3.47445-9.74019-2.55808-2.85853-5.95014-5.38677-10.17875-7.57955-4.38353-2.27311-9.41243-4.31797-15.08251-6.1317-5.83085-1.86515-11.76263-3.8113-17.79536-5.83844-6.0978-2.04901-12.0934-4.36443-17.98658-6.94618-6.04603-2.64872-11.4317-5.8941-16.15244-9.73488-4.80891-3.91253-8.7005-8.62718-11.6615-14.12747-3.01111-5.5934-4.51327-12.26836-4.51327-20.00678 0-7.87933 1.55499-14.88227 4.6664-20.98369 3.1062-6.09122 7.49172-11.21955 13.13306-15.35926 5.57245-4.08915 12.1837-7.16935 19.8242-9.24057 7.55306-2.04752 15.8152-3.07028 24.78585-3.07028zm-402.65332 3.37713l17.7145.00539c4.3663 0 7.90692 3.53759 7.91066 7.90384l.12272 130.7365c.0022 2.56949 2.0858 4.65129 4.6554 4.65129l69.07573.00538c4.15056 0 7.58545 3.20661 7.89248 7.38626l.0181.5592-.06741 15.31799c-.01917 4.3553-3.55524 7.87584-7.91058 7.87584h-96.2566c-5.65293 0-11.06618-5.33563-11.06618-10.97251V167.60779c0-4.369 3.54178-7.91066 7.91118-7.91066zm131.17998 0c5.01358 0 9.3797 3.45884 10.58982 8.38254l23.47664 95.52045c.19885.80904.99229 1.29573 1.77204 1.0983.49807-.12611.89789-.5121 1.05131-1.01986l29.05736-96.16349c1.40326-4.644 5.63663-7.81794 10.43526-7.81794h12.27056c4.79558 0 9.027 3.16998 10.43284 7.80995l28.85529 95.2373c.24106.79563 1.05753 1.23719 1.82539.99751.48752-.15217.8653-.55507.99487-1.06602l24.00597-94.6756c1.23863-4.88494 5.58658-8.30314 10.57-8.30314h14.33362c4.32036 0 7.81787 3.54427 7.81787 7.91066 0 .65778-.08108 1.313-.24136 1.9505l-39.28712 156.25569c-1.23089 4.89556-5.58382 8.32484-10.57549 8.32484H847.1813c-4.85987 0-9.13184-3.25398-10.48245-7.97846L806.6741 221.13302c-.22866-.79984-1.03856-1.25487-1.81015-1.02763-.41087.121-.7613.42582-.9023.7486l-.12454.34772-30.00275 104.95865c-1.35062 4.72448-5.62258 7.97846-10.48246 7.97846h-13.1265c-4.99714 0-9.35337-3.43665-10.5791-8.33924L700.58093 169.548c-1.0573-4.22896 1.4684-8.5292 5.65052-9.60639a7.73138 7.73138 0 0 1 1.92858-.24447h14.53114z"/></g></svg>