<?xml version="1.0" encoding="utf-8"?>
<!-- Generator: Adobe Illustrator 21.1.0, SVG Export Plug-In . SVG Version: 6.00 Build 0)  -->
<svg version="1.1" id="Layer_1" xmlns="http://www.w3.org/2000/svg" xmlns:xlink="http://www.w3.org/1999/xlink" x="0px" y="0px"
	 viewBox="0 0 1310 434" style="enable-background:new 0 0 1310 434;" xml:space="preserve">
<style type="text/css">
	.st0{opacity:0.64;fill:#FFFFFF;}
	.st1{opacity:0.85;fill:#FFFFFF;}
	.st2{opacity:0.75;fill:#FFFFFF;}
	.st3{fill:#FFFFFF;}
	.st4{fill:none;}
	.st5{opacity:0.6;fill:#FFFFFF;}
	.st6{opacity:0.71;fill:#FFFFFF;}
	.st7{fill:#BFBFBF;}
	.st8{fill:#566366;}
	.st9{fill:#7D9199;}
</style>
<g>
	<path class="st0" d="M52.2,210.5c7.5-26.7,20.9-50.1,38.4-68.8c-5.9-4.4-29.3-22.6-30.4-36.9C58.5,81.4,81.9,2.7,81.9,2.7
		S11.2,88.8,6.3,123.6c-3.9,27.3,40.8,81.5,45.5,87v-0.1H52.2z"/>
	<path class="st0" d="M339.9,209.1v0.2c0,0.1,0.1,0.2,0.1,0.3c7.8-9.4,48.3-59.9,44.6-86C379.7,88.8,309,2.7,309,2.7
		s23.4,78.7,21.7,102.1c-1,13.7-22.3,30.8-29.4,36.2C318.8,159.5,332.3,182.7,339.9,209.1L339.9,209.1z"/>
	<path class="st1" d="M339.9,209.3v-0.2h0c-7.6-26.4-21.1-49.6-38.6-68.1c-27.5-29-64.9-46.4-105.2-46.4v0.3v92.7c0,0,0.1,0,0.1,0
		c9.9,0.1,17.9,8.2,17.9,18.1c0,1.2-0.1,2.3-0.3,3.4c-1.6,8.3-8.8,14.6-17.6,14.7c0,0-0.1,0-0.1,0c0,0-0.1,0-0.1,0s-0.1,0-0.1,0
		c0,0,0,0,0,0l0,34.5l-0.2,163.4h0.2h3.3c0,0,38-55,58.5-70.7c24-18.4,82.2-41.2,82.2-41.2v-99.4l0.3-0.1c-0.1-0.2-0.1-0.5-0.2-0.7
		C340,209.5,340,209.4,339.9,209.3z"/>
	<path class="st2" d="M195.9,258.3l0-34.5c-8.3-0.1-15.2-5.7-17.3-13.3c-0.4-1.5-0.7-3.1-0.7-4.8c0-10,8.1-18.1,18.1-18.1
		c0,0,0.1,0,0.1,0V94.9c-40.5,0-78,17.5-105.5,46.8c-17.5,18.6-30.9,42.1-38.4,68.8h-0.3v0.1v100.6c0,0,58.2,22.8,82.2,41.2
		c19.9,15.3,58.3,69.4,58.3,69.4h3.6v-0.1h-0.2L195.9,258.3z"/>
</g>
<g>
	<path class="st3" d="M451.6,254.7c0,7.9-1.4,14.8-4,20.7c-2.6,5.9-6.5,10.5-11.6,13.7c-4.9,3.2-10.6,4.8-17.3,4.8
		c-6.5,0-12.2-1.5-17.1-4.8c-5.1-3.2-8.9-7.7-11.6-13.6c-2.8-5.9-4.2-12.6-4.2-20.4v-4.5c0-7.9,1.4-14.8,4.2-20.7
		c2.8-6,6.6-10.6,11.6-13.7c4.9-3.2,10.6-4.8,17.1-4.8s12.2,1.5,17.1,4.8c4.9,3.1,8.8,7.7,11.6,13.6c2.8,5.9,4.2,12.8,4.2,20.5
		V254.7z M437.9,250.6c0-8.9-1.7-15.7-4.9-20.5c-3.2-4.8-8-7.1-14-7.1c-6,0-10.6,2.3-13.9,7.1c-3.4,4.8-5.1,11.4-5.1,20.1v4.6
		c0,8.8,1.7,15.6,5.1,20.5c3.4,4.8,8,7.2,14,7.2c6,0,10.8-2.3,14-7.1c3.2-4.6,4.9-11.6,4.9-20.7v-4.2H437.9z"/>
	<path class="st3" d="M515.5,263.5c0,9.3-2,16.7-6.2,22.1c-4.2,5.6-9.7,8.2-16.7,8.2c-6.5,0-11.6-2.2-15.4-6.5v28.2h-13.3V233h12.2
		l0.6,6c3.9-4.8,9.1-7.1,15.9-7.1c7.2,0,12.8,2.8,16.8,8.2c4,5.4,6.2,13,6.2,22.5v0.9H515.5z M502.4,262.3c0-6-1.2-10.6-3.5-14.2
		c-2.3-3.5-5.7-5.2-10-5.2c-5.4,0-9.3,2.3-11.6,6.8v26.5c2.5,4.6,6.3,6.9,11.7,6.9c4.2,0,7.6-1.7,9.9-5.1
		C501.1,274.5,502.4,269.4,502.4,262.3z"/>
	<path class="st3" d="M552.6,293.8c-8.3,0-15.1-2.6-20.4-8c-5.2-5.4-7.9-12.5-7.9-21.3v-1.7c0-6,1.1-11.3,3.4-15.9s5.4-8.3,9.6-11
		c4.2-2.6,8.6-3.9,13.7-3.9c8,0,14.2,2.6,18.5,7.7c4.3,5.2,6.5,12.5,6.5,22.1v5.4h-38.4c0.5,4.9,2,8.8,4.9,11.7
		c2.8,2.9,6.5,4.3,10.8,4.3c6,0,11-2.5,14.8-7.4l7.1,6.9c-2.3,3.5-5.6,6.3-9.4,8.3C561.9,292.8,557.4,293.8,552.6,293.8z
		 M550.9,242.7c-3.5,0-6.5,1.2-8.8,3.9c-2.2,2.6-3.7,6.2-4.3,10.8H563v-0.9c-0.3-4.5-1.5-7.9-3.5-10.2
		C557.4,243.9,554.6,242.7,550.9,242.7z"/>
	<path class="st3" d="M598.6,233.1l0.3,6.9c4.3-5.4,10-8,17.1-8c12.2,0,18.5,7.1,18.7,21.3v39.3h-13.3v-38.6c0-3.9-0.8-6.6-2.5-8.3
		c-1.5-1.9-4.3-2.8-7.9-2.8c-5.4,0-9.3,2.5-11.9,7.4v42.4H586v-59.7H598.6z"/>
	<path class="st3" d="M691,262.9v29.8h-13.7v-80.2h30.4c8.8,0,15.9,2.3,21.1,6.9c5.2,4.6,7.9,10.8,7.9,18.5c0,7.9-2.6,14-7.7,18.4
		c-5.1,4.3-12.2,6.6-21.4,6.6H691z M691,251.7h16.7c4.9,0,8.6-1.2,11.3-3.5c2.6-2.3,3.9-5.7,3.9-10.2c0-4.3-1.2-7.9-3.9-10.3
		c-2.6-2.6-6.2-3.9-10.8-4h-17v28.1H691z"/>
	<path class="st3" d="M744.1,262.3c0-5.9,1.1-11.1,3.4-15.7c2.3-4.6,5.6-8.3,9.6-10.8c4.2-2.5,8.9-3.7,14.2-3.7
		c7.9,0,14.3,2.6,19.3,7.7c4.9,5.2,7.6,12,8,20.7v3.1c0,5.9-1.1,11.1-3.4,15.7c-2.2,4.6-5.4,8.2-9.6,10.8c-4.2,2.5-8.9,3.9-14.3,3.9
		c-8.3,0-15-2.8-19.9-8.3c-4.9-5.6-7.4-13.1-7.4-22.4v-0.9H744.1z M757.2,263.5c0,6.2,1.2,11,3.7,14.3c2.5,3.5,6,5.2,10.5,5.2
		s7.9-1.7,10.3-5.2c2.5-3.5,3.7-8.6,3.7-15.4c0-6-1.2-10.8-3.9-14.3c-2.6-3.5-6-5.2-10.3-5.2s-7.7,1.7-10.3,5.2
		C758.4,251.5,757.2,256.6,757.2,263.5z"/>
	<path class="st3" d="M823.9,292.7h-13.3V208h13.3V292.7z"/>
	<path class="st3" d="M838.3,217.6c0-2,0.6-3.9,2-5.1c1.2-1.4,3.1-2,5.6-2s4.2,0.6,5.6,2c1.2,1.4,2,3.1,2,5.1c0,2-0.6,3.7-2,5.1
		c-1.2,1.4-3.1,2-5.6,2s-4.2-0.6-5.6-2C838.9,221.3,838.3,219.6,838.3,217.6z M852.3,292.7h-13.3V233h13.3V292.7z"/>
	<path class="st3" d="M890.9,283.1c3.2,0,6-0.9,8.2-2.9c2.2-2,3.4-4.3,3.5-7.2h12.5c-0.2,3.7-1.2,7.2-3.4,10.3
		c-2.2,3.2-5.1,5.7-8.6,7.6s-7.6,2.8-11.9,2.8c-8.2,0-14.8-2.8-19.6-8.2c-4.8-5.4-7.2-12.8-7.2-22.4v-1.4c0-9.1,2.5-16.3,7.2-21.7
		c4.8-5.4,11.3-8.2,19.6-8.2c6.9,0,12.6,2,17.1,6.2s6.8,9.6,6.9,16.3h-12.5c-0.2-3.4-1.2-6.2-3.4-8.5c-2.2-2.2-4.9-3.2-8.2-3.2
		c-4.3,0-7.6,1.5-9.9,4.8c-2.3,3.1-3.5,7.9-3.5,14.3v2.2c0,6.5,1.1,11.3,3.4,14.5C883.2,281.6,886.6,283.1,890.9,283.1z"/>
	<path class="st3" d="M945.5,273.6l12-40.4h14l-23.4,68.6c-3.5,10-9.7,15.1-18.2,15.1c-1.9,0-4-0.3-6.3-0.9v-10.5l2.5,0.2
		c3.4,0,5.9-0.6,7.6-1.9c1.7-1.2,3.1-3.2,4-6.2l1.9-5.1l-20.7-59.4H933L945.5,273.6z"/>
	<path class="st3" d="M1052.4,274h-30.7l-6.5,18.7h-14.3l29.9-80.2h12.3l29.9,80.2h-14.3L1052.4,274z M1025.7,262.8h22.8l-11.4-33.3
		L1025.7,262.8z"/>
	<path class="st3" d="M1078.6,262.4c0-9.3,2.2-16.7,6.5-22.2c4.3-5.6,10-8.3,17.1-8.3c6.6,0,12,2.3,15.9,7.1l0.6-6h11.9v57.8
		c0,7.9-2.5,14-7.2,18.5c-4.8,4.5-11.3,6.8-19.4,6.8c-4.3,0-8.5-0.9-12.6-2.8c-4.2-1.9-7.2-4.2-9.4-7.1l6.3-8c4,4.9,9.1,7.4,15,7.4
		c4.3,0,7.9-1.2,10.3-3.5c2.5-2.5,3.9-6,3.9-10.6v-4c-3.9,4.3-8.9,6.5-15.3,6.5c-6.9,0-12.5-2.8-16.8-8.3
		C1080.8,280,1078.6,272.3,1078.6,262.4z M1091.7,263.7c0,6,1.2,10.6,3.5,14.2c2.5,3.4,5.7,5.1,10,5.1c5.4,0,9.3-2.3,11.9-6.9v-26.2
		c-2.5-4.5-6.5-6.8-11.7-6.8c-4.3,0-7.7,1.7-10.2,5.2C1092.9,251.7,1091.7,256.9,1091.7,263.7z"/>
	<path class="st3" d="M1169.9,293.8c-8.3,0-15.1-2.6-20.4-8c-5.2-5.4-7.9-12.5-7.9-21.3v-1.7c0-6,1.1-11.3,3.4-15.9
		c2.3-4.6,5.4-8.3,9.6-11c4.2-2.6,8.6-3.9,13.7-3.9c8,0,14.2,2.6,18.5,7.7c4.3,5.2,6.5,12.5,6.5,22.1v5.4H1155
		c0.5,4.9,2,8.8,4.9,11.7c2.8,2.9,6.5,4.3,10.8,4.3c6,0,11-2.5,14.8-7.4l7.1,6.9c-2.3,3.5-5.6,6.3-9.4,8.3
		C1179.2,292.8,1174.9,293.8,1169.9,293.8z M1168.4,242.7c-3.5,0-6.5,1.2-8.8,3.9c-2.2,2.6-3.7,6.2-4.3,10.8h25.1v-0.9
		c-0.3-4.5-1.5-7.9-3.5-10.2C1174.9,243.9,1172.1,242.7,1168.4,242.7z"/>
	<path class="st3" d="M1216,233.1l0.3,6.9c4.3-5.4,10-8,17.1-8c12.2,0,18.5,7.1,18.7,21.3v39.3h-13.3v-38.6c0-3.9-0.8-6.6-2.5-8.3
		c-1.5-1.9-4.3-2.8-7.9-2.8c-5.4,0-9.3,2.5-11.9,7.4v42.4h-13.3v-59.7H1216z"/>
	<path class="st3" d="M1282.2,218.6v14.5h10.3v9.9h-10.3v33.3c0,2.3,0.5,3.9,1.4,4.9c0.9,1.1,2.5,1.5,4.8,1.5c1.5,0,3.1-0.2,4.6-0.6
		v10.3c-3.1,0.8-5.9,1.2-8.6,1.2c-10.2,0-15.3-5.7-15.3-17V243h-9.7v-9.9h9.7v-14.5H1282.2z"/>
</g>
</svg>
