<svg xmlns="http://www.w3.org/2000/svg" role="img" viewBox="174.83 162.33 729.34 762.84"><title>CloudNativePG Icon - Color</title><defs><radialGradient id="radial-gradient" cx="-495.01" cy="-504.64" r="2354.91" fx="-495.01" fy="-504.64" gradientUnits="userSpaceOnUse"><stop offset="0" stop-color="#732dd9"/><stop offset=".12" stop-color="#692aca"/><stop offset=".34" stop-color="#5024a5"/><stop offset=".65" stop-color="#291b69"/><stop offset=".81" stop-color="#121646"/><stop offset="1" stop-color="#121646"/></radialGradient><style>.cls-1{fill:url(#radial-gradient)}.cls-2{fill:#121646}</style></defs><path d="M828.43 842.64c-6.98-16.97-12.13-34.74-17.36-52.38-5.96-20.09-10.89-40.48-16.78-60.59-1.74-5.92-4.69-11.68-8.08-16.86-3.38-5.16-6.87-4.38-8.66 1.45-4.79 15.63-8.88 31.49-14.23 46.92-9.66 27.84-22.83 53.75-40.86 77.44-8.99 11.82-19.06 22.78-29.47 33.35-5.21 5.29-10.51 10.49-15.82 15.68-4.65 4.54-9.53 9.3-6.24 16.19 2.55 5.35 8.22 5.85 13.47 5.83.76 0 1.51-.02 2.24-.03 26.88-.45 53.76.29 80.64.6 18.77.21 37.55.98 56.3.56 7.91-.18 16.6.08 23.04-6.41 7.23-7.29 8.41-12.84 3.19-21.74-7.65-13.04-15.65-26.09-21.37-40z" class="cls-2"/><path d="M881.04 620.09c-3.5-.85-6.91-1.79-10.23-2.87-34.42-11-58.21-33.35-84.37-58.52-3.99-3.86-5.3-8.26-5.03-13.78 1.48-25.72-1.62-51.12-6.15-76.34-6.37-35.19-16.92-69.21-31.28-102.01-3.23-7.36-7.54-13.87-9.78-21.68-.22-.85-.4-1.84.18-2.51.63-.76 1.88-.58 2.83-.22 8.35 3.41 21.63 41.16 32.36 31.51 2.29-2.06 3.14-5.21 3.73-8.21 9.11-44.97-2.38-114.26-42.55-142.09-18.45-12.79-38.69-25.22-60.81-30.2-11.31-2.51-23.61-2.38-34.02 2.74-5.16 2.51-9.83 6.24-15.44 7.58-10.01 2.47-19.97-3.14-29.85-6.15-11.98-3.59-25.04-3.41-36.89.58-9.51 3.19-19.03 8.84-28.9 7-13.69-2.56-23.56-18.36-37.74-23.2-17.01-5.83-35.9-5.83-53.32-1.93-50 11.22-96.94 46.32-131.9 82.44-38.37 39.63-53.63 92.05-19.7 139.89 12.12 17.1 29.93 30.43 50.26 35.68 3.95 1.03 8.12 1.84 11.4 4.26 12.93 9.6-14.36 35.32-20.2 43.67-12.57 18.09-24.28 36.85-32.99 57.13-16.16 37.56-23.2 75.35-28.86 115.57-9.78 69.56-22.89 141.06-55.43 203.89-5.25 10.1-11.8 20.15-15.93 30.74-.99 2.51-1.3 5.47 0 7.81.76 1.35 2.02 2.38 3.37 3.1 7.27 4.04 18.31 3.14 26.34 3.19 24.23.09 48.47.18 72.75.22 12.34.04 24.68.09 37.03.09 8.89 0 21.95 2.24 30.03-2.02 5.21-2.74 8.08-8.57 9.51-14.32 2.11-8.44 3.46-17.1 5.7-25.54 6.91-25.81 16.74-50.35 29.35-73.96 20.02-37.47 40.93-79.84 3.77-114.04-9.78-8.98-21.05-16.11-31.55-24.19-2.02-1.57-3.99-4.76-1.88-6.19.81-.58 1.93-.45 2.96-.22 40.53 8.48 78 52.01 75.49 93.71-1.35 21.77-10.1 41.29-16.74 61.48-6.73 20.51-14.63 40.8-16.52 62.61-.76 8.62-1.66 17.32-1.75 25.99-.13 11.22 4.08 17.01 16.83 17.05 46.63.09 93.26.81 139.89 1.26 11.85.13 36.17 4.04 40.93-11.26 1.75-5.65-.49-11.71-3.41-16.83-2.92-5.12-6.64-9.92-8.21-15.62-2.87-10.19 1.62-20.91 6.37-30.38 5.52-10.95 12.39-21.23 17.86-32.18 6.42-11.58 13.96-22.35 19.75-34.33 6.1-12.52 11.04-25.58 15.12-38.87 5.52-17.82 9.51-36.08 12.66-54.44.67-3.98 1.11-7.99 1.58-11.99.24-2.01.49-4.03.78-6.03.33-2.25.82-4.92 3.74-4.71 17.4 1.23-8.72 100.8-10.99 106.88-5.34 14.27-11.76 28.14-19.3 41.42-9.47 16.65-26.88 31.78-22.62 52.82 1.53 7.45 3.32 18.13 10.05 22.84 9.24 6.51 21.14-4.31 27.69-10.19 10.32-9.29 18.62-20.37 27.33-31.15 23.97-29.62 42.41-63.33 55.83-98.91 14.59-38.87 21.09-77.51 26.21-118.44.31-2.33.81-4.98 2.78-6.24 2.24-1.44 5.16-.36 7.58.72 29.62 13.1 61.62 23.7 93.84 20.6 3.95-.4 8.89-2.06 8.98-6.01.09-3.91-4.71-5.79-8.53-6.69zm-157.57-20.24c-.31 1.12-1.17 2.11-2.15 2.74-1.89 1.17-4.4 1.48-6.55 1.71-14.36 1.48-28.5-2.92-41.42-8.75-2.06-.9-4.13-1.84-6.19-2.87-19.7-9.78-38.01-23.74-53.14-39.72-12.84-13.55-22.98-29.62-29.93-46.94-1.48-3.68-3.23-7.63-4.08-11.53-.72-3.32-.27-7.23 2.29-9.52 1.62-1.44 3.81-1.97 5.92-2.42 7.05-1.39 14.54-2.15 21.68-1.53 2.92.18 5.97.94 8.03 2.96 1.84 1.75 2.74 4.22 3.55 6.64 3.5 10.5 6.42 21.32 11.4 31.28 5.03 10.1 11.67 19.57 18.58 28.45 2.51 3.23 5.12 6.37 7.81 9.47 13.33 15.3 30.83 28.99 51.3 32.9.81.18 1.62.31 2.47.45 2.83.4 5.79.67 8.21 2.24 1.17.76 2.2 1.98 2.33 3.37 0 .36 0 .72-.09 1.08z" class="cls-2"/><g><path d="M828.43 842.64c-6.98-16.97-12.13-34.74-17.36-52.38-5.96-20.09-10.89-40.48-16.78-60.59-1.74-5.92-4.69-11.68-8.08-16.86-3.38-5.16-6.87-4.38-8.66 1.45-4.79 15.63-8.88 31.49-14.23 46.92-9.66 27.84-22.83 53.75-40.86 77.44-8.99 11.82-19.06 22.78-29.47 33.35-5.21 5.29-10.51 10.49-15.82 15.68-4.65 4.54-9.53 9.3-6.24 16.19 2.55 5.35 8.22 5.85 13.47 5.83.76 0 1.51-.02 2.24-.03 26.88-.45 53.76.29 80.64.6 18.77.21 37.55.98 56.3.56 7.91-.18 16.6.08 23.04-6.41 7.23-7.29 8.41-12.84 3.19-21.74-7.65-13.04-15.65-26.09-21.37-40z" class="cls-1"/><path d="M881.04 620.09c-3.5-.85-6.91-1.79-10.23-2.87-34.42-11-58.21-33.35-84.37-58.52-3.99-3.86-5.3-8.26-5.03-13.78 1.48-25.72-1.62-51.12-6.15-76.34-6.37-35.19-16.92-69.21-31.28-102.01-3.23-7.36-7.54-13.87-9.78-21.68-.22-.85-.4-1.84.18-2.51.63-.76 1.88-.58 2.83-.22 8.35 3.41 21.63 41.16 32.36 31.51 2.29-2.06 3.14-5.21 3.73-8.21 9.11-44.97-2.38-114.26-42.55-142.09-18.45-12.79-38.69-25.22-60.81-30.2-11.31-2.51-23.61-2.38-34.02 2.74-5.16 2.51-9.83 6.24-15.44 7.58-10.01 2.47-19.97-3.14-29.85-6.15-11.98-3.59-25.04-3.41-36.89.58-9.51 3.19-19.03 8.84-28.9 7-13.69-2.56-23.56-18.36-37.74-23.2-17.01-5.83-35.9-5.83-53.32-1.93-50 11.22-96.94 46.32-131.9 82.44-38.37 39.63-53.63 92.05-19.7 139.89 12.12 17.1 29.93 30.43 50.26 35.68 3.95 1.03 8.12 1.84 11.4 4.26 12.93 9.6-14.36 35.32-20.2 43.67-12.57 18.09-24.28 36.85-32.99 57.13-16.16 37.56-23.2 75.35-28.86 115.57-9.78 69.56-22.89 141.06-55.43 203.89-5.25 10.1-11.8 20.15-15.93 30.74-.99 2.51-1.3 5.47 0 7.81.76 1.35 2.02 2.38 3.37 3.1 7.27 4.04 18.31 3.14 26.34 3.19 24.23.09 48.47.18 72.75.22 12.34.04 24.68.09 37.03.09 8.89 0 21.95 2.24 30.03-2.02 5.21-2.74 8.08-8.57 9.51-14.32 2.11-8.44 3.46-17.1 5.7-25.54 6.91-25.81 16.74-50.35 29.35-73.96 20.02-37.47 40.93-79.84 3.77-114.04-9.78-8.98-21.05-16.11-31.55-24.19-2.02-1.57-3.99-4.76-1.88-6.19.81-.58 1.93-.45 2.96-.22 40.53 8.48 78 52.01 75.49 93.71-1.35 21.77-10.1 41.29-16.74 61.48-6.73 20.51-14.63 40.8-16.52 62.61-.76 8.62-1.66 17.32-1.75 25.99-.13 11.22 4.08 17.01 16.83 17.05 46.63.09 93.26.81 139.89 1.26 11.85.13 36.17 4.04 40.93-11.26 1.75-5.65-.49-11.71-3.41-16.83-2.92-5.12-6.64-9.92-8.21-15.62-2.87-10.19 1.62-20.91 6.37-30.38 5.52-10.95 12.39-21.23 17.86-32.18 6.42-11.58 13.96-22.35 19.75-34.33 6.1-12.52 11.04-25.58 15.12-38.87 5.52-17.82 9.51-36.08 12.66-54.44.67-3.98 1.11-7.99 1.58-11.99.24-2.01.49-4.03.78-6.03.33-2.25.82-4.92 3.74-4.71 17.4 1.23-8.72 100.8-10.99 106.88-5.34 14.27-11.76 28.14-19.3 41.42-9.47 16.65-26.88 31.78-22.62 52.82 1.53 7.45 3.32 18.13 10.05 22.84 9.24 6.51 21.14-4.31 27.69-10.19 10.32-9.29 18.62-20.37 27.33-31.15 23.97-29.62 42.41-63.33 55.83-98.91 14.59-38.87 21.09-77.51 26.21-118.44.31-2.33.81-4.98 2.78-6.24 2.24-1.44 5.16-.36 7.58.72 29.62 13.1 61.62 23.7 93.84 20.6 3.95-.4 8.89-2.06 8.98-6.01.09-3.91-4.71-5.79-8.53-6.69zm-157.57-20.24c-.31 1.12-1.17 2.11-2.15 2.74-1.89 1.17-4.4 1.48-6.55 1.71-14.36 1.48-28.5-2.92-41.42-8.75-2.06-.9-4.13-1.84-6.19-2.87-19.7-9.78-38.01-23.74-53.14-39.72-12.84-13.55-22.98-29.62-29.93-46.94-1.48-3.68-3.23-7.63-4.08-11.53-.72-3.32-.27-7.23 2.29-9.52 1.62-1.44 3.81-1.97 5.92-2.42 7.05-1.39 14.54-2.15 21.68-1.53 2.92.18 5.97.94 8.03 2.96 1.84 1.75 2.74 4.22 3.55 6.64 3.5 10.5 6.42 21.32 11.4 31.28 5.03 10.1 11.67 19.57 18.58 28.45 2.51 3.23 5.12 6.37 7.81 9.47 13.33 15.3 30.83 28.99 51.3 32.9.81.18 1.62.31 2.47.45 2.83.4 5.79.67 8.21 2.24 1.17.76 2.2 1.98 2.33 3.37 0 .36 0 .72-.09 1.08z" class="cls-1"/></g></svg>
