<?xml version="1.0" encoding="UTF-8" standalone="no"?>
<svg
   version="1.2"
   viewBox="0 0 609 186"
   width="609"
   height="186"
   id="svg32"
   sodipodi:docname="slimtoolkit-horizontal-black.svg"
   xmlns:inkscape="http://www.inkscape.org/namespaces/inkscape"
   xmlns:sodipodi="http://sodipodi.sourceforge.net/DTD/sodipodi-0.dtd"
   xmlns="http://www.w3.org/2000/svg"
   xmlns:svg="http://www.w3.org/2000/svg">
  <sodipodi:namedview
     id="namedview32"
     pagecolor="#ffffff"
     bordercolor="#000000"
     borderopacity="0.25"
     inkscape:showpageshadow="2"
     inkscape:pageopacity="0.0"
     inkscape:pagecheckerboard="0"
     inkscape:deskcolor="#d1d1d1"
     inkscape:zoom="1.183908"
     inkscape:cx="304.5"
     inkscape:cy="92.912621"
     inkscape:window-width="1312"
     inkscape:window-height="449"
     inkscape:window-x="0"
     inkscape:window-y="25"
     inkscape:window-maximized="0"
     inkscape:current-layer="svg32" />
  <defs
     id="defs32" />
  <style
     id="style1">.a{fill:none;stroke:#38b9dc;stroke-width:2}.b{fill:none;stroke:#258ab0;stroke-width:2}.c{fill:none;stroke:#66cae0;stroke-width:2}.d{fill:none;stroke:#31bfd5;stroke-width:2}.e{fill:none;stroke:#1794c5;stroke-width:2}.f{fill:none;stroke:#1380b1;stroke-width:2}.g{fill:none;stroke:#45a5c8;stroke-width:2}.h{fill:none;stroke:#4ec6da;stroke-width:2}.i{fill:none;stroke:#046599;stroke-width:2}.j{fill:none;stroke:#4291b5;stroke-width:2}.k{fill:none;stroke:#3ea2ce;stroke-width:2}.l{fill:none;stroke:#109abe;stroke-width:2}.m{fill:#49c3db}.n{fill:#26afdd}.o{fill:#263849}.p{fill:#005185}.q{fill:#83d1e4}.r{fill:#0779ac}.s{fill:#18bacf}.t{fill:#75caef}</style>
  <path
     class="a"
     d="m78 50.8l0.3 0.7"
     id="path1"
     style="stroke:#8a8a8a" />
  <path
     class="b"
     d="m78.3 51.5l-0.1 0.3"
     id="path2"
     style="stroke:#6a6a6a" />
  <path
     class="c"
     d="m78.2 51.8q-0.6-0.5-1.1-0.2-35.5 20.4-70.9 40.8-0.6 0.4-0.7 1.3"
     id="path3"
     style="stroke:#a3a3a3" />
  <path
     class="d"
     d="m5.5 93.7q-0.3 0.7-1 0.5"
     id="path4"
     style="stroke:#838383" />
  <path
     class="e"
     d="m151.7 93l-70.7-40.7"
     id="path5"
     style="stroke:#6e6e6e" />
  <path
     class="f"
     d="m81 52.3q-1.2-1.2-2.7-0.8"
     id="path6"
     style="stroke:#626262" />
  <path
     class="g"
     d="m78.5 114q-0.5 9.5-0.2 19 0 0 0.1 0.9 0.2 0.7-0.4 1.4"
     id="path7"
     style="stroke:#868686" />
  <path
     class="h"
     d="m78 135.3q-0.9-0.3-2.6-1.2-48.1-27.7-69.9-40.4"
     id="path8"
     style="stroke:#949494" />
  <path
     class="i"
     d="m81 52.3l-1.8-0.1q-0.1 0-0.1 0-0.1 0-0.2 0.1-0.1 0.1-0.1 0.2-0.1 0.1 0 0.3l-0.3 61.2"
     id="path9"
     style="stroke:#4e4e4e" />
  <path
     class="j"
     d="m78.5 114l-0.3-62.3"
     id="path10"
     style="stroke:#7b7b7b" />
  <path
     class="k"
     d="m151.8 93.7l-73.3 42"
     id="path11"
     style="stroke:#868686" />
  <path
     class="l"
     d="m78 135.5v-0.3"
     id="path12"
     style="stroke:#676767" />
  <path
     class="m"
     d="m78 50.8l0.3 0.7-0.1 0.3q-0.6-0.5-1.1-0.2-35.5 20.4-70.9 40.8-0.6 0.4-0.7 1.3-0.3 0.7-1 0.6v-85.4q0-0.9 0.8-0.5z"
     id="path13"
     style="fill:#929292" />
  <path
     class="n"
     d="m151.7 93l-70.7-40.7q-1.2-1.2-2.7-0.8l-0.2-0.7 73-42.3q0.9-0.5 0.9 0.5 0 41.3 0 82.3 0 1.2-0.3 1.7z"
     id="path14"
     style="fill:#818181" />
  <path
     d="m578.5 36.2c-2.5 0-4.5-2-4.5-4.5 0-2.4 2-4.4 4.5-4.4 2.4 0 4.4 2 4.4 4.4 0 2.5-2 4.5-4.4 4.5z"
     id="path15" />
  <path
     d="m466.8 57.3q3 1.6 7.1 1.1 0.2 0 0.3 0 0.1 0 0.1 0.1 0.1 0 0.2 0.1 0 0.1 0 0.2 0.6 2.8 0 5.7 0 0.1 0 0.2-0.1 0-0.2 0.1 0 0.1-0.1 0.1-0.2 0.1-0.3 0.1-17.2 1.2-16-16.1 0.1-0.1 0.2-1.2 0.4-2.8-2.5-2.3-0.2 0-0.3-0.1-0.1 0-0.2 0 0-0.1-0.1-0.2 0 0 0-0.1l-0.1-5.3q-0.1-0.2 0-0.3 0.1-0.2 0.3-0.3 0.1-0.1 0.3-0.1 0.2-0.1 0.4 0 2.3 0.5 2.2-1.4-0.1-1.1-0.1-1.2 0-3.3 0-6.9 0-0.2 0.1-0.3 0-0.2 0.2-0.3 0.1-0.2 0.3-0.3 0.1 0 0.3 0h4.9q0.1 0 0.2 0.1 0.1 0 0.2 0.1 0.1 0.1 0.1 0.2 0 0.1 0.1 0.2l0.1 8.8q0 0.2 0 0.4 0.1 0.2 0.3 0.3 0.1 0.2 0.3 0.3 0.2 0 0.4 0.1l8.6 0.1q0.1 0 0.2 0 0.1 0 0.2 0.1 0 0.1 0.1 0.2 0 0.1 0 0.2l0.1 5q0 0.2-0.1 0.3 0 0.2-0.1 0.3-0.2 0.1-0.3 0.1-0.2 0.1-0.3 0.1h-8.9q-0.1 0-0.2 0-0.1 0.1-0.1 0.2-0.1 0-0.2 0.1 0 0.1 0 0.2v7.5q0 2.6 2.3 3.8z"
     id="path16" />
  <path
     d="m536.3 29.1c0-0.3 0.2-0.6 0.6-0.6h5.5c0.3 0 0.6 0.3 0.6 0.6v35.3c0 0.3-0.3 0.6-0.6 0.6h-5.5c-0.4 0-0.6-0.3-0.6-0.6z"
     id="path17" />
  <path
     d="m560.1 56.3q-0.1-0.1-0.2-0.2-0.2-0.1-0.3-0.1-0.2 0-0.3 0-0.2 0.1-0.3 0.2-1.8 2.4-3.3 4.3-1.2 1.6-1.1 3.7 0 0.1 0 0.2 0 0.1-0.1 0.2 0 0.1-0.1 0.1-0.1 0.1-0.2 0.1h-5q-0.2 0.1-0.4 0-0.2-0.1-0.3-0.2-0.1-0.2-0.2-0.4 0-0.2-0.1-0.4v-34.4q0.1-0.2 0.1-0.3 0.1-0.2 0.2-0.3 0.1-0.1 0.2-0.2 0.2 0 0.3 0h5.1q0.1 0 0.2 0.1 0.1 0 0.1 0.1 0.1 0.1 0.1 0.2 0.1 0.1 0.1 0.2l0.1 21.3q0 1.4 0.9 0.3l8.8-11.2q0.1-0.1 0.1-0.2 0.1-0.1 0.2-0.2 0.2 0 0.3-0.1 0.1 0 0.2 0l6.3 0.1q0.6 0 0.2 0.5l-7.4 9.3q-0.1 0.2-0.2 0.4-0.1 0.1-0.1 0.3 0 0.2 0 0.4 0.1 0.2 0.2 0.3l7.8 13.8q0 0.1 0 0.2 0 0.1 0 0.2-0.1 0.1-0.1 0.1-0.1 0.1-0.2 0.1-3.2 0.5-6.5 0-0.1 0-0.2 0-0.1-0.1-0.2-0.1-0.1-0.1-0.2-0.2-0.1-0.1-0.1-0.2z"
     id="path18" />
  <path
     d="m595 46.3q0 2.4 0 4.8 0 3.3 0.8 4.7 1.7 2.9 7 2.3 2.2-0.2 2.2 1.8v4.3q0 0.1-0.1 0.2 0 0.1-0.1 0.2 0 0.1-0.1 0.1-0.1 0.1-0.3 0.1-10.2 1.8-14.6-6.1-1.3-2.3-1.4-6.2-0.2-3.1-0.3-6.3 0-0.1-0.1-0.2 0-0.1-0.1-0.2 0-0.1-0.1-0.1-0.1-0.1-0.2-0.1l-1.9-0.2q-0.1 0-0.2-0.1-0.1 0-0.2-0.1-0.1-0.1-0.1-0.2-0.1-0.1-0.1-0.2v-5.1q0-0.1 0.1-0.2 0-0.1 0.1-0.2 0.1-0.1 0.2-0.1 0.1-0.1 0.2-0.1l1.9-0.2q0.1 0 0.2-0.1 0.1 0 0.1-0.1 0.1-0.1 0.2-0.2 0-0.1 0-0.2l0.1-9q0-0.2 0.1-0.3 0-0.2 0.1-0.3 0.1-0.1 0.3-0.1 0.1-0.1 0.3-0.1h5.3q0.2 0 0.3 0.1 0.1 0 0.2 0.1 0.1 0.1 0.1 0.2 0.1 0.1 0.1 0.3v9.1q0 0.2 0.1 0.3 0 0.1 0.1 0.2 0.1 0.1 0.2 0.1 0.1 0.1 0.3 0.1h8q0.2 0 0.4 0.1 0.2 0.1 0.4 0.2 0.2 0.1 0.2 0.3 0.1 0.2 0.1 0.4v5q0 0 0 0.1-0.1 0.1-0.2 0.2-0.1 0-0.2 0.1-0.1 0-0.2 0l-8.6 0.4q-0.1 0-0.2 0-0.1 0.1-0.2 0.1-0.1 0.1-0.1 0.2 0 0.1-0.1 0.2z"
     id="path19" />
  <path
     fill-rule="evenodd"
     d="m489.7 65.4c-1.7-0.1-3.4-0.5-5-1.3-1.6-0.7-3-1.8-4.2-3.1-1.2-1.4-2.1-2.9-2.7-4.6-0.6-1.7-0.8-3.5-0.7-5.4 0-1.8 0.5-3.5 1.2-5.2 0.8-1.6 1.8-3.1 3.1-4.3 1.3-1.2 2.8-2.2 4.5-2.8 1.6-0.6 3.3-0.9 5.1-0.8 1.7 0.1 3.5 0.5 5 1.3 1.6 0.7 3 1.8 4.2 3.1 1.2 1.4 2.1 2.9 2.7 4.6 0.6 1.7 0.9 3.5 0.8 5.4-0.1 1.8-0.5 3.5-1.3 5.2-0.7 1.6-1.8 3.1-3.1 4.3-1.3 1.2-2.8 2.2-4.4 2.8-1.7 0.6-3.4 0.9-5.2 0.8zm0.8-6.6q1.3-0.1 2.5-0.6 1.2-0.6 2.1-1.6 0.9-1 1.4-2.4 0.5-1.3 0.4-2.7 0-1.4-0.5-2.7-0.6-1.3-1.5-2.2-1-1-2.2-1.5-1.2-0.5-2.5-0.5-1.3 0-2.5 0.6-1.2 0.6-2.1 1.6-0.9 1-1.4 2.3-0.5 1.3-0.4 2.8 0 1.4 0.5 2.6 0.6 1.3 1.5 2.3 1 1 2.2 1.5 1.2 0.5 2.5 0.5z"
     id="path20" />
  <path
     fill-rule="evenodd"
     d="m518.6 65.4c-1.7-0.1-3.4-0.5-5-1.3-1.6-0.8-3-1.8-4.2-3.2-1.2-1.3-2.1-2.9-2.6-4.6-0.6-1.7-0.9-3.5-0.8-5.3 0.1-1.8 0.5-3.6 1.3-5.3 0.7-1.6 1.8-3.1 3.1-4.3 1.3-1.2 2.8-2.1 4.5-2.8 1.6-0.6 3.4-0.8 5.1-0.7 1.8 0 3.5 0.5 5.1 1.3 1.5 0.7 3 1.8 4.1 3.2 1.2 1.3 2.1 2.9 2.7 4.6 0.6 1.7 0.8 3.5 0.7 5.3-0.1 1.8-0.5 3.6-1.2 5.2-0.8 1.7-1.9 3.1-3.2 4.4-1.3 1.2-2.8 2.1-4.4 2.7-1.7 0.6-3.4 0.9-5.2 0.8zm0.7-6.6q1.3 0 2.5-0.6 1.3-0.5 2.2-1.5 0.9-1 1.4-2.3 0.5-1.3 0.5-2.7 0-1.4-0.5-2.7-0.5-1.3-1.4-2.3-0.9-1-2.1-1.5-1.2-0.6-2.6-0.6-1.3 0-2.5 0.6-1.2 0.5-2.1 1.5-1 1-1.5 2.3-0.5 1.3-0.5 2.7 0 1.4 0.5 2.7 0.5 1.3 1.5 2.3 0.9 1 2.1 1.5 1.2 0.6 2.5 0.6z"
     id="path21" />
  <path
     d="m575 39.3c0-0.3 0.3-0.5 0.6-0.5h5.6c0.3 0 0.6 0.2 0.6 0.5v25.1c0 0.3-0.3 0.6-0.6 0.6h-5.6c-0.3 0-0.6-0.3-0.6-0.6z"
     id="path22" />
  <path
     class="o"
     d="m271.8 43.7c-0.1-0.3 0.2-0.5 0.4-0.5h18.6c0.2 0 0.4 0.2 0.4 0.5v97.8c0 0.3-0.2 0.5-0.4 0.5h-18.6c-0.2 0-0.5-0.2-0.5-0.5z"
     id="path23"
     style="fill:#373737" />
  <path
     class="o"
     d="m310.8 51.8c0-4.7 3.8-8.5 8.5-8.5h3.9c4.7 0 8.5 3.8 8.5 8.5v1.8c0 4.7-3.8 8.5-8.5 8.5h-3.9c-4.7 0-8.5-3.8-8.5-8.5z"
     id="path24"
     style="fill:#373737" />
  <path
     class="o"
     d="m220.1 126.7q4.9 0.7 9.7-0.4 3.6-0.8 5.5-3.4 1.8-2.4 1.7-5.8-0.1-4.8-4.6-7.7-7.4-5-15.6-8.5-2.3-1-6.6-3.8-3.8-2.5-5.9-4.8-7.5-7.8-7.4-18.3 0.1-9 5.1-15.5 5.2-6.9 14.8-9.3 6-1.4 11.5-1.3 14.2 0.2 27 6.4 0.1 0 0.2 0.1 0 0.1 0.1 0.2 0 0.1 0 0.2 0 0.1 0 0.2l-5.8 13.9q0 0.1-0.2 0.3-0.1 0.1-0.3 0.2-0.2 0.1-0.4 0-0.2 0-0.4 0-10.2-4.7-20.5-5.2-4.7-0.2-7.9 2.1-3.4 2.4-3.8 6.5-0.5 5.1 4.3 8.6 3.3 2.5 19.6 10.4 2.5 1.2 7.6 5.5 8.6 7.2 8.6 18.6 0.1 15.7-13.1 22.8-5.1 2.8-11.9 3.8-18 2.7-34.6-4.3-0.2-0.1-0.4-0.3-0.2-0.1-0.3-0.3-0.2-0.2-0.3-0.5 0-0.2 0-0.4l0.2-16.7q0-0.1 0-0.2 0.1 0 0.1-0.1 0.1 0 0.2 0 0.1 0 0.1 0 11.3 5.4 23.7 7z"
     id="path25"
     style="fill:#373737" />
  <path
     class="p"
     d="m81 52.3l-1.8-0.1q-0.1 0-0.1 0-0.1 0-0.2 0.1-0.1 0.1-0.1 0.2-0.1 0.1 0 0.3l-0.3 61.2-0.3-62.3 0.1-0.2q1.5-0.4 2.7 0.8z"
     id="path26"
     style="fill:#424242" />
  <path
     class="q"
     d="m78.2 51.8l0.3 62.2q-0.5 9.5-0.2 19 0 0 0.1 0.9 0.2 0.7-0.4 1.4-0.9-0.3-2.6-1.2-48.1-27.7-69.9-40.4 0.1-0.9 0.7-1.3 35.4-20.4 70.9-40.8 0.5-0.4 1.1 0.1z"
     id="path27"
     style="fill:#b3b3b3" />
  <path
     class="r"
     d="m81 52.3l70.7 40.7 0.1 0.7-73.3 42-0.5-0.2v-0.2q0.6-0.7 0.4-1.4-0.1-0.9-0.1-0.9-0.3-9.5 0.2-19l0.2-61.3q0-0.1 0.1-0.2 0-0.1 0.1-0.2 0.1-0.1 0.2-0.1 0 0 0.1 0z"
     id="path28"
     style="fill:#595959" />
  <path
     class="o"
     d="m370.4 79.2q7.7-9.2 18.6-9.6 7.9-0.3 13.7 2.2 5.4 2.3 8.7 7.3 1.5 2.1 3 0 4-5.6 11.1-7.9 11.5-3.6 22.3 1 5.1 2.3 8.1 7.6 3.3 5.8 3.3 14.7 0.1 23.1 0.1 46.8-0.1 0.2-0.1 0.3-0.1 0.1-0.1 0.2-0.1 0.1-0.3 0.1-0.1 0.1-0.2 0.1h-18.2q-0.1 0-0.2-0.1-0.2 0-0.3-0.1 0-0.1-0.1-0.2 0-0.1 0-0.3 0-21.5-0.1-42.5 0-2.6-0.5-5.1-1.5-7.7-9.2-8.4-5.7-0.6-9.5 2.9-3.1 2.7-4.3 8.1-1.2 5.1-1.2 11.7 0 16.5 0 33.3 0 0.2-0.1 0.3 0 0.1-0.1 0.2-0.1 0.1-0.2 0.1-0.1 0.1-0.3 0.1h-17.9q-0.2 0-0.4-0.1-0.1 0-0.3-0.1-0.1-0.2-0.1-0.3-0.1-0.2-0.1-0.4 0-21.1 0.1-41.6 0-6-2.7-10.4-0.9-1.6-2.7-2.6-1.4-0.8-3.5-1.1-11-1.4-14.4 9.2-1.8 5.6-1.7 13.4 0.2 16.6 0.2 33.3-0.1 0.2-0.1 0.3-0.1 0.1-0.1 0.2-0.1 0.1-0.3 0.1-0.1 0.1-0.2 0.1l-18.2-0.1q-0.1 0-0.2 0-0.2-0.1-0.3-0.2 0-0.1-0.1-0.2 0-0.1 0-0.2v-69.6q0-0.2 0-0.3 0.1-0.1 0.1-0.2 0.1-0.1 0.3-0.1 0.1-0.1 0.2-0.1l13.6 0.1q0.1 0 0.2 0 0.1 0 0.2 0.1 0.1 0.1 0.1 0.1 0.1 0.1 0.1 0.2l2.1 7.1q0.6 2.3 2.2 0.6z"
     id="path29"
     style="fill:#373737" />
  <path
     class="o"
     d="m311.5 71.6c0-0.3 0.3-0.6 0.6-0.6h18.3c0.3 0 0.6 0.3 0.6 0.6v69.8c0 0.3-0.3 0.6-0.6 0.6h-18.3c-0.3 0-0.6-0.3-0.6-0.6z"
     id="path30"
     style="fill:#373737" />
  <path
     class="s"
     d="m5.5 93.7q21.8 12.7 69.9 40.4 1.7 0.9 2.6 1.1v0.3q-0.6 0.7-2.4 1.8-35.2 20.5-70.6 40.6-0.1 0.1-0.2 0.1 0 0-0.1-0.1-0.1 0-0.1-0.1 0 0 0-0.1l-0.1-83.5q0.7 0.2 1-0.5z"
     id="path31"
     style="fill:#737373" />
  <path
     class="t"
     d="m151.8 93.7l0.1 84q0 0.7-0.6 0.4l-72.8-42.4z"
     id="path32"
     style="fill:#b2b2b2" />
</svg>
