<svg xmlns="http://www.w3.org/2000/svg" role="img" xmlns:xlink="http://www.w3.org/1999/xlink" viewBox="-18.94 -18.94 1036.88 1036.88"><style>svg {enable-background:new 0 0 1000 1000}</style><style>.st1{fill:#fff}.st723{fill:#b0ceec}.st726{fill:#fa5a40}.st729{fill:#ff713c}.st734{fill:#010101}</style><circle cx="500" cy="500" r="498.3" class="st723"/><path fill="#2f2a6d" d="M843 157c-16.4-16.4-33.8-31.5-52-45.2v256.1L499.4 298l-291.5 69.9V112.7C190.1 126.2 173.1 141 157 157 65.4 248.6 15 370.4 15 500s50.4 251.4 142 343 213.4 142 343 142 251.4-50.4 343-142 142-213.4 142-343-50.4-251.4-142-343z"/><defs><path id="SVGID_00000012440163018001556830000013187975621696982935_" d="M890.4 574.8V437.6v-2c-.5-8.9-8.2-15.7-17.1-15.2h-2c-2.2.1-4.3.7-6.1 1.6-35.5-167.5-184.3-293.2-362.3-293.2-179.8 0-329.7 128.1-363.3 298-3.2-4.2-8.3-6.8-14-6.5h-2c-8.9.5-15.7 8.2-15.2 17.1v139.2c.5 8.9 8.2 15.7 17.1 15.2h2c6.5-.4 11.9-4.6 14.1-10.3 37.4 165 184.9 288.1 361.2 288.1 173.8 0 319.6-119.7 359.6-281.2 3 2.3 6.8 3.6 10.9 3.3h2c8.9-.3 15.7-7.9 15.1-16.9z"/></defs><clipPath id="SVGID_00000008113412380905364370000010751874357564320659_"><use overflow="visible" xlink:href="#SVGID_00000012440163018001556830000013187975621696982935_"/></clipPath><g clip-path="url(#SVGID_00000008113412380905364370000010751874357564320659_)"><path d="M345.8 838.9s-6.9 20.6-17.1 30.9c-6.1 6.8-14.9 10.5-24 10.3-16.9 4.6-34.1 8-51.4 10.3 0 0 24 3.4 51.4 6.9 10.3 0 10.3 0 17.1 3.4 17.1 0 24-10.3 24-10.3v-51.5z" class="st726"/></g><g clip-path="url(#SVGID_00000008113412380905364370000010751874357564320659_)"><path d="M657.2 838.9s6.9 20.6 17.1 30.9c6.1 6.8 14.9 10.5 24 10.3 16.9 4.6 34.1 8 51.4 10.3 0 0-24 3.4-54.9 6.9-10.3 0-10.3 0-17.1 3.4-20.6 0-24-10.3-24-10.3l3.5-51.5z" class="st726"/></g><g clip-path="url(#SVGID_00000008113412380905364370000010751874357564320659_)"><circle cx="502.9" cy="499.4" r="370.4" class="st723"/></g><g clip-path="url(#SVGID_00000008113412380905364370000010751874357564320659_)"><circle cx="502.9" cy="499.4" r="356.7" fill="#e2f5f8"/></g><g clip-path="url(#SVGID_00000008113412380905364370000010751874357564320659_)"><circle cx="502.9" cy="506.2" r="291.5" fill="#c9e8f0"/></g><g id="Body_00000096774188375987479180000000494071003882930308_" clip-path="url(#SVGID_00000008113412380905364370000010751874357564320659_)"><path d="M331.4 643.4s24 387.6 24 394.4c0 3.4 3.4 10.3-13.7 17.1-17.1 6.9-72 20.6-72 20.6H352c37.7 0 37.7-30.9 37.7-37.7S400 883.5 400 883.5s3.4 174.9 3.4 181.8c0 6.9-3.4 17.1-27.4 24-17.1 3.4-68.6 13.7-68.6 13.7h78.9c48 0 48-30.9 48-30.9l10.3-154.3s3.4 154.3 3.4 171.5c0 13.7-10.3 24-48 30.9-24 6.9-54.9 13.7-54.9 13.7h89.2c44.6-3.4 51.4-34.3 51.4-34.3l75.5-384.1-229.8-72.1z" class="st729"/><path d="M674.4 643.4s-24 387.6-24 394.4c0 3.4-3.4 10.3 13.7 17.1 17.1 6.9 72 20.6 72 20.6h-82.3c-37.7 0-37.7-30.9-37.7-37.7s-10.3-154.3-10.3-154.3-3.4 174.9-3.4 181.8c0 6.9 3.4 17.1 27.4 24 17.1 3.4 68.6 13.7 68.6 13.7h-78.9c-48 0-48-30.9-48-30.9l-10.3-154.3s-3.4 154.3-3.4 171.5c0 13.7 10.3 24 48 30.9 24 6.9 54.9 13.7 54.9 13.7h-89.2c-44.6-3.4-51.4-34.3-51.4-34.3l-75.5-384.1 229.8-72.1z" class="st729"/><path d="M677.8 454.8c0 96-78.9 171.5-171.5 171.5s-175.6-78.9-175.6-171.5 83-171.5 175.6-171.5 171.5 75.4 171.5 171.5z" class="st729"/><defs><path id="SVGID_00000080926088757728720740000003225519698706087344_" d="M677.8 447.9l-20.6 469.9H348.5l-17.1-469.9"/></defs><clipPath id="SVGID_00000041983632685792687810000013204456675084445587_"><use overflow="visible" xlink:href="#SVGID_00000080926088757728720740000003225519698706087344_"/></clipPath><g clip-path="url(#SVGID_00000041983632685792687810000013204456675084445587_)"><circle cx="508.4" cy="547.4" r="305.3" class="st729"/></g><g opacity=".22"><path fill="#f43e2e" d="M667.5 643.4s20.6-181.8-6.9-250.4c-51.4-120-171.5-109.8-171.5-109.8s68.6 27.4 72 130.3c3.4 72 0 178.4 0 178.4l106.4 51.5z"/></g></g><g id="Face_00000144332935969782604880000015483535734158796425_" clip-path="url(#SVGID_00000008113412380905364370000010751874357564320659_)"><circle cx="434.3" cy="362.2" r="24" fill="#ffddbe" opacity=".5"/><path d="M564.6 712c0 58.3-27.4 96-61.7 96s-61.7-44.6-61.7-102.9c0 0 27.4 54.9 65.2 54.9s58.2-48 58.2-48z" class="st734"/><path d="M564.6 712c0 37.7-27.4 58.3-61.7 58.3s-58.3-27.4-58.3-61.7c0 0 27.4 34.3 65.2 34.3s54.8-30.9 54.8-30.9z" class="st1"/><circle cx="622.9" cy="550.8" r="106.3" class="st726"/><circle cx="382.8" cy="550.8" r="106.3" class="st726"/><circle cx="622.9" cy="550.8" r="82.3" class="st1"/><circle cx="376" cy="550.8" r="82.3" class="st1"/><circle cx="376" cy="540.5" r="24" class="st734" transform="matrix(.07089 -.9975 .9975 .07089 -189.868 877.218)"/><circle cx="622.9" cy="540.5" r="24" class="st734"/></g><g clip-path="url(#SVGID_00000008113412380905364370000010751874357564320659_)"><path d="M125.6 592c-8.9.5-16.6-6.3-17.1-15.2V437.6c-.5-8.9 6.3-16.6 15.2-17.1h2c8.9-.5 16.6 6.3 17.1 15.2v139.2c.5 8.9-6.3 16.6-15.2 17.1h-2z" class="st723"/></g><g clip-path="url(#SVGID_00000008113412380905364370000010751874357564320659_)"><path d="M873.3 592c-8.9.5-16.6-6.3-17.1-15.2V437.6c-.5-8.9 6.3-16.6 15.2-17.1h2c8.9-.5 16.6 6.3 17.1 15.2v139.2c.5 8.9-6.3 16.6-15.2 17.1h-2z" class="st723"/></g><g clip-path="url(#SVGID_00000008113412380905364370000010751874357564320659_)"><circle cx="386.2" cy="225" r="17.1" class="st1"/></g><g clip-path="url(#SVGID_00000008113412380905364370000010751874357564320659_)"><path d="M262.8 688c-3.8.5-7.6-.8-10.3-3.4-41.2-51.4-61.7-116.6-61.7-181.8-.2-54.2 14-107.4 41.2-154.3 27.5-44.7 65.1-82.2 109.8-109.8 5.9-2.6 12.7-1.2 17.1 3.4 2.6 5.9 1.2 12.7-3.4 17.1-86.6 48.9-140.3 140.6-140.6 240.1-.1 61 20.5 120.2 58.3 168.1 3.4 3.4 3.4 13.7-3.4 17.1-3.6 3.5-3.6 3.5-7 3.5z" class="st1"/></g><g><path d="M128.1 761.1c.2-1.7 1.1-3.1 2.8-4.4l31-23.8c1.6-1.2 3.1-1.7 4.6-1.5 1.5.2 2.9 1.1 4.1 2.7l11.4 14.8c3.5 4.5 5 8.9 4.7 13.2-.4 4.3-2.6 8-6.7 11.1-4.1 3.1-8.2 4.3-12.5 3.5-4.3-.7-8.1-3.4-11.6-7.8l-7-9.1-9.9 7.6c-1.6 1.2-3.3 1.7-5 1.5-1.7-.2-3.2-1.2-4.4-2.9-1.2-1.5-1.7-3.2-1.5-4.9zm34.7.3c1.5 2 3 3.1 4.6 3.4 1.5.3 3.2-.2 4.9-1.5 3.4-2.6 3.6-5.8.6-9.7L167 746l-10 7.7 5.8 7.7zm34.3 72.7c-1.1 1.1-2.5 1.6-4.1 1.4-1.7-.2-3.1-.9-4.3-2.1-.8-.8-1.4-1.8-1.8-2.9-.3-1.1-.4-2.3-.2-3.6l3.1-16.5c.2-1.2.2-2.2 0-3-.2-.9-.7-1.7-1.4-2.4l-3.4-3.4-9.3 9.2c-1.4 1.4-3 2.2-4.7 2.2-1.7 0-3.2-.7-4.7-2.2-1.4-1.4-2.2-3-2.2-4.7 0-1.7.7-3.3 2.2-4.7l27.7-27.6c1.4-1.4 2.9-2.1 4.4-2.1 1.5 0 3 .7 4.4 2.1l13 13c4.4 4.4 6.8 8.7 7.1 12.8.3 4.1-1.4 8-5 11.6-2.8 2.8-5.9 4.3-9.3 4.7-3.4.4-6.8-.5-10.3-2.6 1 1.3 1.6 2.7 1.8 4.1.3 1.4.2 3.1-.1 5.1l-1.4 7.8c-.1 1.8-.6 3-1.5 3.8zm7.2-29.5c1.6.3 3.1-.4 4.6-1.8 1.5-1.5 2.2-3.1 1.9-4.6-.2-1.6-1.4-3.4-3.5-5.5l-6.6-6.6-8.5 8.5 6.6 6.6c2.1 1.9 4 3.1 5.5 3.4zm11.2 47.6c-1.8-4.1-2.3-8.3-1.6-12.7.7-4.4 2.7-8.8 5.9-13.1 3.2-4.3 6.9-7.4 11-9.3 4.1-1.9 8.3-2.5 12.7-1.9 4.4.6 8.7 2.5 12.9 5.7 4.2 3.2 7.2 6.8 9 10.8 1.8 4 2.3 8.3 1.6 12.7-.7 4.4-2.7 8.8-6 13-3.2 4.3-6.9 7.4-11 9.3-4.1 1.9-8.3 2.5-12.7 1.9-4.4-.6-8.7-2.5-12.8-5.6-4.2-3.1-7.2-6.7-9-10.8zm25 4.9c3.4-.9 6.7-3.4 9.9-7.6 3.2-4.2 4.7-8 4.6-11.6-.1-3.5-1.7-6.4-4.8-8.8-3.1-2.4-6.4-3.1-9.7-2.3-3.4.8-6.7 3.4-9.9 7.6-3.2 4.2-4.8 8.1-4.7 11.6.1 3.5 1.7 6.4 4.8 8.8 3.1 2.4 6.4 3.1 9.8 2.3zm13.7 20.3c.9-1.5 1.9-2.3 3-2.6 1.1-.3 2.5 0 4.1.8l2.2 1.2c1.3.7 2.5.9 3.6.5s2.1-1.2 2.9-2.6l15.4-25.6c1-1.7 2.4-2.8 4-3.2 1.7-.4 3.4-.1 5.2 1 1.7 1 2.8 2.4 3.2 4 .4 1.7.2 3.4-.9 5.1l-15.3 25.4c-2.5 4.2-5.6 6.8-9.1 7.8-3.6 1-7.6.3-12.2-2l-2.1-1.1c-4.6-2.5-6-5.4-4-8.7zm36.2 25c-.5-1.4-.3-3 .5-4.9l16.8-35.3c.9-1.8 2-3 3.4-3.5s3-.3 4.8.5l22.8 10.9c1.9.9 3.1 2 3.7 3.2.6 1.3.5 2.6-.2 4.1-1.5 3.2-4.2 3.8-8 2l-16.6-7.9-4.2 8.8 15.3 7.3c3.8 1.8 5 4.3 3.5 7.4-.7 1.5-1.7 2.4-3.1 2.7-1.3.3-3 0-4.9-.9l-15.3-7.3-4.6 9.6 16.6 7.9c3.8 1.8 5 4.3 3.5 7.5-.7 1.5-1.7 2.4-3.1 2.7-1.3.3-3 0-4.9-.9l-22.8-10.9c-1.5-.4-2.7-1.6-3.2-3zm56.3 23.3c-3-3.3-4.9-7.1-5.6-11.6-.7-4.5-.3-9.2 1.4-14.3 1.7-5 4.2-9.1 7.5-12.2 3.3-3.1 7.1-5.1 11.5-5.9 4.4-.8 9-.4 13.9 1.3 5.9 2 10.5 5.2 13.9 9.8.6.8 1 1.6 1.1 2.4.1.8 0 1.7-.3 2.7-.5 1.4-1.3 2.5-2.4 3.2-1.1.7-2.3.9-3.4.5-.7-.2-1.3-.5-1.8-.9s-1-.9-1.6-1.7c-1.3-1.5-2.6-2.7-3.9-3.6s-2.7-1.6-4.2-2.1c-4.1-1.4-7.6-1.2-10.4.6-2.8 1.8-5.1 5.2-6.8 10.2-1.7 5.1-2 9.2-.8 12.3 1.2 3.1 3.8 5.4 7.9 6.8 1.4.5 2.8.7 4.2.7 1.4 0 3.3-.1 5.7-.4 1.1-.2 2-.3 2.5-.3s1.1.1 1.8.3c1.2.4 2 1.2 2.4 2.5.5 1.3.5 2.6 0 4-.3 1-.8 1.7-1.3 2.3-.6.6-1.3 1-2.3 1.3-5.5 1.6-11.1 1.4-17-.5-5.1-1.6-9-4.1-12-7.4zm56.9 17.4c-1-1.4-1.3-3.1-.9-5.1l6.9-33.7-10.1-2.1c-2.1-.4-3.6-1.2-4.4-2.3-.8-1.1-1.1-2.5-.7-4.4.4-1.8 1.2-3 2.4-3.7 1.2-.7 2.9-.8 5-.3l33.5 6.8c2.1.4 3.6 1.2 4.4 2.2.9 1.1 1.1 2.5.7 4.3-.4 1.8-1.2 3.1-2.4 3.7-1.2.7-2.9.8-5 .4l-10.1-2.1-6.9 33.7c-.4 2-1.3 3.4-2.8 4.3-1.5.9-3.2 1.2-5.2.8-1.9-.2-3.4-1.1-4.4-2.5zm117.6 6.4c0 1.6-.7 3-2 4.1-1.3 1.1-2.8 1.6-4.4 1.6-1.1 0-2.1-.3-3.1-.9-.9-.6-1.6-1.5-2.2-2.7l-3.2-7.4-23.7-.4-3.5 7.3c-.6 1.2-1.3 2-2.3 2.6-1 .6-2 .8-3.1.8-1.7 0-3.1-.6-4.5-1.8-1.3-1.1-2-2.5-1.9-4.1 0-.9.2-1.8.7-2.7l19.9-39.3c.7-1.3 1.6-2.3 2.9-3 1.3-.7 2.6-1 4.1-1 1.5 0 2.8.4 4.1 1.1 1.3.7 2.2 1.8 2.8 3.1l18.7 39.9c.5 1 .7 1.9.7 2.8zm-33.8-15.8l14.6.3-7-16.4-7.6 16.1zm55.4 18.4c-3.4-.5-6.3-1.3-8.6-2.5-.9-.5-1.6-1.1-2-1.7-.4-.6-.7-1.5-.9-2.5-.2-1.5.1-2.8.9-3.9.7-1.2 1.7-1.8 2.9-2 .6-.1 1.2-.1 1.8.1.6.1 1.4.4 2.3.8 2.1.9 4.2 1.4 6.2 1.7 2 .2 4.3.2 6.7-.1 2.9-.3 5-1 6.3-2 1.4-1 2-2.4 1.8-4-.1-1.1-.9-2-2.4-2.6-1.5-.6-4.2-1.1-8.2-1.4-4.9-.4-8.8-1.2-11.7-2.3-2.9-1.1-5-2.5-6.3-4.3-1.3-1.8-2.1-4-2.5-6.7-.4-3.1.2-6 1.8-8.7 1.5-2.7 3.8-5 6.9-6.8 3-1.8 6.6-3 10.6-3.4 3.5-.4 6.7-.4 9.6 0 2.9.4 5.5 1.4 8 2.7.9.5 1.6 1.1 2.1 1.8.4.7.7 1.5.9 2.5.2 1.5-.1 2.8-.8 3.9-.7 1.2-1.7 1.8-2.8 2-.6.1-1.2.1-1.8 0-.6-.1-1.3-.4-2.4-.9-.3-.1-1-.4-2.2-.9-1.2-.5-2.6-.8-4.2-1-1.6-.2-3.2-.2-5 0-2.5.3-4.4 1-5.8 2.1-1.4 1.1-2 2.5-1.8 4 .1.9.5 1.6 1.1 2.2.6.5 1.7 1 3.2 1.3 1.5.4 3.7.7 6.7.9 4.8.5 8.6 1.3 11.4 2.4 2.8 1.1 4.9 2.5 6.3 4.3 1.3 1.8 2.2 3.9 2.5 6.5.4 3.2-.2 6.1-1.7 8.8-1.5 2.7-3.8 4.8-6.8 6.6-3.1 1.7-6.7 2.8-11 3.3-4 .2-7.7.2-11.1-.2zm56.1-8.9c-3.4 0-6.4-.5-8.8-1.5-1-.4-1.7-.9-2.2-1.5-.5-.6-.9-1.4-1.2-2.4-.4-1.4-.2-2.8.4-4 .6-1.3 1.5-2 2.6-2.3.6-.2 1.2-.2 1.8-.2.6 0 1.4.2 2.4.5 2.2.6 4.3.9 6.4.9 2 0 4.3-.3 6.7-.9 2.8-.7 4.8-1.6 6-2.8 1.2-1.2 1.7-2.6 1.3-4.2-.3-1.1-1.2-1.9-2.7-2.3-1.5-.4-4.3-.6-8.3-.4-4.9.2-8.9-.1-11.9-.8-3-.7-5.2-1.9-6.8-3.5-1.5-1.6-2.6-3.7-3.3-6.4-.8-3-.5-6 .6-8.9 1.2-2.9 3.2-5.5 6-7.6 2.8-2.2 6.2-3.8 10.1-4.7 3.5-.9 6.6-1.2 9.5-1.2 2.9.1 5.6.7 8.3 1.7 1 .4 1.8.9 2.3 1.5.5.6.9 1.4 1.2 2.4.4 1.4.2 2.8-.3 4s-1.4 2-2.6 2.3c-.6.2-1.2.2-1.8.2-.6 0-1.4-.2-2.5-.6-.3-.1-1-.3-2.3-.6-1.3-.3-2.7-.5-4.3-.4-1.6 0-3.2.2-5 .7-2.4.6-4.2 1.5-5.5 2.8-1.2 1.3-1.7 2.7-1.3 4.2.2.9.7 1.6 1.3 2 .7.4 1.8.8 3.3.9 1.6.2 3.8.2 6.7.1 4.8-.1 8.7.2 11.6.9 2.9.7 5.2 1.9 6.7 3.5s2.6 3.6 3.3 6.1c.8 3.1.6 6.1-.6 8.9-1.2 2.8-3.1 5.3-6 7.4-2.8 2.1-6.3 3.6-10.5 4.7-3.5 1.1-7.1 1.5-10.6 1.5zm56.4-18.5c-4.4-.6-8.3-2.3-11.7-5.2-3.4-2.9-6.1-6.8-8.1-11.8-2-5-2.8-9.7-2.3-14.2s2.1-8.4 4.9-11.8c2.8-3.4 6.6-6.1 11.5-8.1s9.5-2.7 13.9-2.1c4.4.5 8.3 2.3 11.7 5.2 3.4 2.9 6.1 6.9 8.1 11.8 2 5 2.8 9.7 2.3 14.2s-2.1 8.4-4.9 11.9c-2.8 3.5-6.6 6.2-11.4 8.1-4.9 1.9-9.6 2.5-14 2zm17-18.9c1-3.4.5-7.5-1.4-12.4-2-4.9-4.5-8.2-7.6-9.9s-6.4-1.8-10-.4c-3.6 1.5-5.9 3.8-7 7.2-1 3.3-.6 7.5 1.4 12.4s4.5 8.3 7.5 10 6.4 1.8 10 .4c3.8-1.5 6.1-3.9 7.1-7.3zm43.7-8.7c-4.4.1-8.6-1.1-12.4-3.5-3.8-2.4-7.1-5.9-9.7-10.6-2.6-4.6-4-9.2-4.2-13.7-.1-4.5.9-8.7 3.2-12.5 2.3-3.8 5.7-7 10.2-9.5 5.4-3.1 10.9-4.4 16.6-3.8 1 .1 1.8.4 2.5.8s1.3 1.1 1.8 2c.7 1.3 1 2.6.8 4-.2 1.3-.9 2.3-1.9 2.9-.6.4-1.3.6-1.9.7-.6.1-1.4.1-2.3.1-2 0-3.7.1-5.3.5-1.5.4-3 1-4.4 1.8-3.8 2.2-5.9 4.9-6.5 8.2-.5 3.3.5 7.3 3.1 11.9 2.7 4.7 5.6 7.6 8.7 8.8 3.1 1.2 6.6.7 10.3-1.4 1.3-.7 2.4-1.6 3.3-2.7 1-1.1 2.1-2.6 3.5-4.5.6-1 1.1-1.7 1.4-2.1.3-.4.8-.8 1.4-1.1 1.1-.6 2.2-.7 3.5-.2 1.3.5 2.3 1.4 3 2.7.5.9.8 1.7.8 2.5s-.2 1.7-.6 2.6c-2.4 5.2-6.3 9.3-11.7 12.3-4.3 2.4-8.8 3.7-13.2 3.8zm41.2-24.1c-1.7-.3-3.1-1.3-4.3-2.9l-22.6-31.9c-1.2-1.6-1.6-3.3-1.3-4.9.3-1.7 1.3-3.1 2.9-4.3 1.7-1.2 3.4-1.7 5.1-1.4 1.7.3 3.1 1.2 4.3 2.9l22.6 31.9c1.2 1.7 1.6 3.3 1.3 5-.3 1.7-1.3 3.1-3 4.3-1.7 1.2-3.3 1.6-5 1.3zm58.2-52.5c1.1 1.2 1.5 2.7 1.2 4.4s-1 3.1-2.2 4.2c-.8.7-1.8 1.2-2.9 1.4s-2.2 0-3.4-.5l-7.3-3.4L783 842l2.3 7.8c.4 1.2.4 2.4.1 3.4s-.9 2-1.8 2.7c-1.2 1.1-2.7 1.7-4.5 1.7-1.7 0-3.1-.5-4.2-1.8-.6-.7-1-1.5-1.3-2.5l-11.5-42.5c-.4-1.4-.3-2.8.1-4.1.5-1.3 1.3-2.5 2.4-3.5 1.1-1 2.4-1.6 3.8-1.9 1.4-.3 2.8-.2 4.1.4l40.6 17.1c1 .5 1.7 1 2.3 1.7zm-35.6 10.9l11-9.6-16.2-7.5 5.2 17.1zm51.9-22.9c-1.7.1-3.3-.5-4.8-1.8l-25.5-23.2-6.9 7.6c-1.4 1.6-2.9 2.5-4.2 2.6-1.4.2-2.7-.4-4.1-1.6-1.4-1.2-2-2.6-2-3.9.1-1.4.8-2.8 2.2-4.4l23-25.3c1.4-1.6 2.8-2.5 4.2-2.7 1.4-.2 2.7.3 4.1 1.6 1.4 1.2 2 2.6 2 3.9s-.8 2.9-2.2 4.5l-6.9 7.6 25.5 23.2c1.5 1.3 2.2 2.9 2.3 4.6 0 1.7-.6 3.3-2 4.9-1.4 1.4-2.9 2.3-4.7 2.4zm27.4-32.2c-1.5.2-3.1-.2-4.7-1.4l-31.8-22.8c-1.6-1.2-2.6-2.5-2.8-4-.2-1.5.2-3.1 1.4-4.7l14.8-20.5c1.2-1.7 2.5-2.7 3.8-3.1 1.3-.4 2.7-.1 4 .9 2.9 2 3 4.8.6 8.2l-10.7 15 8 5.7 9.9-13.8c2.5-3.4 5.1-4.2 7.9-2.1 1.3 1 2.1 2.1 2.1 3.5s-.5 2.9-1.7 4.6l-9.9 13.8 8.7 6.2 10.7-15c2.5-3.4 5.1-4.1 8-2.1 1.3 1 2.1 2.1 2.1 3.5s-.5 2.9-1.7 4.6L863 773.3c-1.1 1.8-2.4 2.7-3.9 3z" class="st723"/></g><g><path d="M499.4 384.8l-304.8 73.1V106.1l5.3-4C286.6 36.4 390.4 1.7 500 1.7c109.1 0 212.4 34.4 298.9 99.5l5.3 4v352.6l-304.8-73z" class="st723"/><path fill="#0f104d" d="M499.4 371.1L790.9 441V111.8C707.5 49 606.3 15 500 15c-106.8 0-208.4 34.3-292.1 97.7V441l291.5-69.9z"/><path fill="none" d="M561.9 230.6c-.3-16.7-14-30.1-30.9-30.2-17.2-.1-31.3 13.8-31.2 30.8 0 17 14.2 30.8 31.4 30.7 17.1-.2 31-14.3 30.7-31.3zM348 200.5c-16.8-.1-31.3 13.9-31.8 30.5-.5 16.8 13.4 30.5 31 30.7 17.5.2 30.6-12.3 30.8-29.6.3-17.3-13.1-31.5-30-31.6zm302.7-.1c-17.2.1-31.2 14.2-30.8 31.2.3 16.7 14 30.2 30.9 30.3 17.2.1 31.3-13.8 31.3-30.7 0-17.1-14.2-30.9-31.4-30.8z"/><path d="M544.8 178c-24-5.9-48.5 3.9-61.1 24.6-12.5 20.4-10.1 47.1 5.8 64.8 16.8 18.7 42.3 23.9 65.2 13.2 2.2-1 4-3.3 6.9-2.3.6 11.8-.9 18.2-6 24.8-13.7 18-39.1 16.1-52-3.8-5.1-7.8-10.9-10-17.3-6.4-6.9 3.8-8.1 10.6-3.4 18.8 6.8 11.8 16.7 19.9 29.4 24.7 2.2.8 1.9.8 5.3 2.1 3.9 1.5 15.9 1.9 21.5.9 3.4-.6 4.8-1.4 7.1-2 23.2-6.9 39.4-27.3 40-51.5.4-18.9.5-37.8 0-56.7-.8-24.3-18.2-45.5-41.4-51.2zm-45 53.2c0-17 14-30.8 31.2-30.8 16.8.1 30.6 13.6 30.9 30.2.3 17-13.7 31.2-30.7 31.3-17.3 0-31.4-13.7-31.4-30.7zm203.9-16.4c-8.3-25.7-34-42.1-60.2-38.2-27.3 4-47.4 26.6-47.9 53.7-.5 26.6 18.7 49.7 45.5 54.8 26 5 52.6-10.3 61.8-35.5.9-2.5 3.1-7.9 3.4-11.8.4-6.1.3-11.5-.7-16-.6-3.2-1.1-4.7-1.9-7zm-53 47.1c-16.8-.1-30.6-13.6-30.9-30.3-.3-17 13.6-31.1 30.8-31.2 17.3-.1 31.4 13.7 31.4 30.7.1 17-14 30.8-31.3 30.8zm-249.9-42.5c-7.2-31.9-38.5-50-69.5-40.3-31.1 9.8-47.2 43.5-35 73.3 11.8 28.8 47.7 42.1 76 27.9 3.3-1.7 5.8-4.1 9 .9 2.8 4.4 7.8 5.8 13.2 3.7 5.2-2.1 7.5-6.1 7.5-11.6v-25.5c-.5-8.1 1-18.4-1.2-28.4zm-53.5 42.5c-17.6-.2-31.5-14-31-30.7s15-30.6 31.8-30.5c16.9.1 30.3 14.2 30.1 31.7-.3 17.1-13.4 29.7-30.9 29.5zm132-74.5c-.6-7.9-7.3-12-17.6-10.8-24.8 2.8-44.1 20.5-48.8 45-1.8 9.5-.4 19.1-.8 27.1v22.5c.1 9.6 4.3 14.9 11.9 15 7.6.1 12.2-5.3 12.3-14.7.1-13.3-.1-26.7.1-40 .2-16.7 11.8-29.9 28.2-30.6 9.7-.5 15.2-6.9 14.7-13.5z" class="st1"/><g><path d="M306.5 141.3c-3.9-2.2-7-5.3-9.1-9.3-2.1-4-3.2-8.8-3.2-14.2 0-5.4 1.1-10.1 3.2-14.1s5.2-7.2 9.1-9.3c3.9-2.2 8.5-3.3 13.7-3.3 6.3 0 11.8 1.7 16.5 5 .8.6 1.4 1.2 1.8 1.9.4.7.6 1.6.6 2.7 0 1.5-.4 2.8-1.3 3.9s-1.9 1.6-3.1 1.6c-.7 0-1.4-.1-2-.3-.6-.2-1.3-.6-2.1-1.1-1.7-1-3.4-1.8-4.9-2.2-1.5-.4-3.1-.7-4.7-.7-4.4 0-7.7 1.3-9.8 4-2.1 2.6-3.2 6.7-3.2 12 0 5.4 1.1 9.5 3.2 12.1 2.1 2.6 5.4 4 9.8 4 1.5 0 2.9-.2 4.3-.7 1.4-.5 3.2-1.2 5.3-2.2 1-.5 1.8-.9 2.3-1.1.5-.2 1.1-.3 1.8-.3 1.2 0 2.3.5 3.1 1.6.9 1.1 1.3 2.4 1.3 3.9 0 1-.2 1.9-.6 2.6-.4.7-1 1.4-1.8 2-4.7 3.3-10.2 5-16.5 5-5.2-.2-9.8-1.3-13.7-3.5zm45.3 1c-1.1-1.1-1.6-2.6-1.6-4.7V98c0-2 .5-3.6 1.6-4.7s2.6-1.6 4.7-1.6h25.6c2.1 0 3.7.4 4.8 1.3 1.1.9 1.6 2.2 1.6 3.9 0 3.6-2.1 5.3-6.4 5.3h-18.7v9.9h17.2c4.3 0 6.4 1.8 6.4 5.3 0 1.7-.5 3-1.6 3.9-1.1.9-2.7 1.3-4.8 1.3h-17.2v10.8h18.7c4.3 0 6.4 1.8 6.4 5.3 0 1.7-.5 3-1.6 3.9-1.1.9-2.7 1.3-4.8 1.3h-25.6c-2.1 0-3.6-.5-4.7-1.6zM444 139c0 1.6-.7 2.9-2 4s-2.8 1.6-4.6 1.6c-1.2 0-2.3-.3-3.3-.8s-1.9-1.4-2.7-2.4l-9.6-14.1c-.7-1-1.4-1.7-2.2-2.2-.8-.5-1.7-.7-2.7-.7h-4.8v13.3c0 2.1-.6 3.7-1.8 4.9-1.2 1.2-2.8 1.8-4.9 1.8-2.1 0-3.7-.6-4.9-1.8-1.2-1.2-1.8-2.8-1.8-4.9V98c0-2 .5-3.6 1.6-4.7s2.6-1.6 4.7-1.6h18.6c6.3 0 11.1 1.4 14.3 4.1 3.2 2.7 4.8 6.7 4.8 11.9 0 3.9-1.1 7.3-3.3 10-2.2 2.7-5.2 4.6-9.2 5.5 1.6.2 3 .8 4.3 1.6 1.2.8 2.4 2.1 3.6 3.8l4.6 6.6c.9 1.4 1.3 2.6 1.3 3.8zm-16-26.3c1.3-.9 2-2.5 2-4.6 0-2.2-.7-3.7-2-4.7s-3.5-1.4-6.5-1.4H412v12.1h9.5c3 0 5.2-.4 6.5-1.4zm39.8 29.8c-1.3-1.2-1.9-2.8-1.9-4.9v-34.9h-10.4c-2.2 0-3.8-.5-4.9-1.4-1.1-.9-1.6-2.3-1.6-4.2 0-1.9.5-3.3 1.6-4.1 1.1-.9 2.7-1.3 4.9-1.3h34.7c2.2 0 3.8.4 4.9 1.3 1.1.9 1.6 2.3 1.6 4.1 0 1.9-.5 3.3-1.6 4.2-1.1.9-2.7 1.4-4.9 1.4h-10.4v34.9c0 2-.6 3.6-1.9 4.9s-2.9 1.8-5 1.8c-2.2 0-3.9-.6-5.1-1.8zm39.4 0c-1.2-1.2-1.8-2.8-1.8-4.9V98c0-2 .6-3.6 1.8-4.9 1.2-1.2 2.9-1.8 4.9-1.8 2.1 0 3.8.6 5 1.8 1.2 1.2 1.9 2.8 1.9 4.9v39.6c0 2.1-.6 3.7-1.9 4.9-1.2 1.2-2.9 1.8-5 1.8-2.1.1-3.7-.5-4.9-1.8zm27.6 0c-1.2-1.2-1.9-2.9-1.9-4.9V98c0-2 .5-3.6 1.6-4.7s2.6-1.6 4.7-1.6h24.9c2.2 0 3.9.4 4.9 1.3 1 .9 1.6 2.2 1.6 4.1 0 1.8-.5 3.2-1.6 4-1.1.8-2.7 1.3-4.9 1.3h-17.8v9.6h16.3c2.2 0 3.8.4 4.9 1.3 1.1.9 1.6 2.2 1.6 4.1 0 1.8-.5 3.2-1.6 4-1.1.8-2.7 1.3-4.9 1.3h-16.3v15c0 2.1-.6 3.7-1.8 4.9-1.2 1.2-2.8 1.8-4.9 1.8-2 0-3.6-.7-4.8-1.9zm47.2 0c-1.2-1.2-1.8-2.8-1.8-4.9V98c0-2 .6-3.6 1.8-4.9 1.2-1.2 2.9-1.8 4.9-1.8 2.1 0 3.8.6 5 1.8 1.2 1.2 1.9 2.8 1.9 4.9v39.6c0 2.1-.6 3.7-1.9 4.9-1.2 1.2-2.9 1.8-5 1.8-2.1.1-3.7-.5-4.9-1.8zm27.3-.2c-1.1-1.1-1.6-2.6-1.6-4.7V98c0-2 .5-3.6 1.6-4.7s2.6-1.6 4.7-1.6h25.6c2.1 0 3.7.4 4.8 1.3 1.1.9 1.6 2.2 1.6 3.9 0 3.6-2.1 5.3-6.4 5.3H621v9.9h17.2c4.3 0 6.4 1.8 6.4 5.3 0 1.7-.5 3-1.6 3.9s-2.7 1.3-4.8 1.3H621v10.8h18.7c4.3 0 6.4 1.8 6.4 5.3 0 1.7-.5 3-1.6 3.9-1.1.9-2.7 1.3-4.8 1.3H614c-2 0-3.6-.5-4.7-1.6zm48.7 0c-1.1-1.1-1.6-2.6-1.6-4.7V98c0-2 .5-3.6 1.6-4.7s2.6-1.6 4.7-1.6h15c5.8 0 10.8 1.1 14.9 3.1 4.2 2.1 7.4 5.1 9.6 9 2.2 3.9 3.3 8.5 3.3 13.9s-1.1 10.1-3.3 14c-2.2 3.9-5.4 6.9-9.6 9-4.2 2.1-9.2 3.1-15 3.1h-15c-2 .1-3.5-.4-4.6-1.5zm18.7-9.4c5.1 0 8.9-1.2 11.4-3.7s3.8-6.3 3.8-11.4c0-5.1-1.3-8.9-3.8-11.4s-6.4-3.7-11.4-3.7H670V133h6.7z" class="st723"/></g></g></svg>