<?xml version="1.0" encoding="UTF-8"?>
<svg id="Layer_1" xmlns="http://www.w3.org/2000/svg" version="1.1" viewBox="0 0 1133.86 1133.86">
  <!-- Generator: Adobe Illustrator 30.4.0, SVG Export Plug-In . SVG Version: 2.1.4 Build 226)  -->
  <path d="M515.38,674h-1.27c-61.61-3.81-114.97-69.24-114.97-116.87,1.27-36.84,3.18-81.3,5.08-88.29,34.3-191.83,178.49-345.54,364.6-393.82-66.69-34.3-142.28-53.99-222.32-53.99C277.82,21.03,59.32,239.54,59.32,508.22v433.83c0,94.01,76.22,169.6,169.6,169.6s169.6-76.22,169.6-169.6v-90.83c0-66.06,50.82-119.42,115.6-123.86h1.27c14.61,0,26.68-12.07,26.68-26.68s-12.07-26.68-26.68-26.68h0Z"/>
  <g>
    <path d="M927.62,256.05c26.04,0,51.45,1.91,76.22,5.72-31.12-52.72-71.14-99.09-118.78-136.57-174.68,16.51-322.68,122.59-398.26,271.23,26.04-22.23,59.71-36.21,96.55-36.21,10.8,0,20.96,1.27,31.12,3.18,86.39-66.69,195-107.35,313.15-107.35h0Z"/>
    <path d="M1045.77,355.78c-43.83-12.07-89.56-18.42-136.57-18.42-83.84,0-163.24,20.33-233.11,56.53,33.67,27.31,55.26,68.6,55.26,114.97v49.54c0,47.64-53.36,112.43-114.97,116.87h-1.27c-14.61,0-26.68,12.07-26.68,26.68s12.07,26.68,26.68,26.68h1.27c62.25,4.45,111.79,53.99,114.97,116.87v96.55c0,94.01,76.22,169.6,169.6,169.6s169.6-76.22,169.6-169.6v-433.83c0-53.36-8.89-104.81-24.77-152.45h0Z"/>
  </g>
</svg>