<svg id="Layer_1" data-name="Layer 1" xmlns="http://www.w3.org/2000/svg" xmlns:xlink="http://www.w3.org/1999/xlink" viewBox="0 0 360 360"><defs><style>.cls-1{fill:url(#linear-gradient);}.cls-2{fill:url(#linear-gradient-2);}.cls-3{fill:#fff;}.cls-4{fill:url(#linear-gradient-3);}.cls-5{fill:url(#linear-gradient-4);}.cls-6{fill:url(#linear-gradient-5);}.cls-7{fill:url(#linear-gradient-6);}.cls-8{fill:url(#linear-gradient-7);}.cls-9{fill:#dedede;}.cls-10{fill:#b3b3b3;}</style><linearGradient id="linear-gradient" x1="1126.26145" y1="3683.3261" x2="1375.53291" y2="3683.3261" gradientTransform="matrix(0.7071, -0.7071, -0.7071, -0.7071, 1853.47839, 3628.98765)" gradientUnits="userSpaceOnUse"><stop offset="0" stop-color="#bcbec0"/><stop offset="0.7382" stop-color="#d6d7d9"/><stop offset="1" stop-color="#e0e1e2"/></linearGradient><linearGradient id="linear-gradient-2" x1="1126.23381" y1="3564.93086" x2="1375.50517" y2="3564.93086" xlink:href="#linear-gradient"/><linearGradient id="linear-gradient-3" x1="1126.26145" y1="3623.64363" x2="1375.53291" y2="3623.64363" xlink:href="#linear-gradient"/><linearGradient id="linear-gradient-4" x1="1102.62956" y1="3623.64363" x2="1401.99488" y2="3623.64363" xlink:href="#linear-gradient"/><linearGradient id="linear-gradient-5" x1="1102.62956" y1="3593.43505" x2="1401.99488" y2="3593.43505" xlink:href="#linear-gradient"/><linearGradient id="linear-gradient-6" x1="1102.62956" y1="3592.75546" x2="1401.99488" y2="3592.75546" xlink:href="#linear-gradient"/><linearGradient id="linear-gradient-7" x1="1102.62956" y1="3593.11181" x2="1401.99488" y2="3593.11181" xlink:href="#linear-gradient"/></defs><title>coredns-icon-grey</title><path class="cls-1" d="M103.31021,128.92979a29.5467,29.5467,0,0,1,41.80669,0l8.72705,8.727,27.01228-27.01228a33.61,33.61,0,0,1,47.54162,0l10.38933,10.38934,26.0149-26.0149L208.201,38.41788a42.1391,42.1391,0,0,0-59.34389,0L31.91468,155.27715a42.1006,42.1006,0,0,0-6.23361,51.28177l.33246-.33246Z"/><path class="cls-2" d="M316.58253,206.14334a41.86646,41.86646,0,0,0,9.22573-45.2144l-3.82328,3.82328-65.99307,65.99307a29.54669,29.54669,0,0,1-41.80668,0L203.879,220.43907l-34.077,34.077a33.61,33.61,0,0,1-47.54161,0l-8.81016-8.81017L88.18334,270.9728l52.0298,52.02981a42.13912,42.13912,0,0,0,59.34389,0Z"/><path class="cls-3" d="M322.0681,164.66911l3.82328-3.82328a40.91421,40.91421,0,0,0-5.56869-9.80754C321.07072,155.52649,321.65253,160.0978,322.0681,164.66911Z"/><path class="cls-3" d="M26.01353,206.22646l-.33246.33246c.24934.41557.41557.83114.66492,1.1636A12.39018,12.39018,0,0,0,26.01353,206.22646Z"/><path class="cls-4" d="M204.627,116.37946a15.296,15.296,0,0,0-3.4077.33246,17.89717,17.89717,0,0,0-9.22574,4.90376L164.9813,148.628l1.91164,1.91164a29.54672,29.54672,0,0,1,0,41.8067l-42.30538,42.30539,8.81017,8.81016a17.85877,17.85877,0,0,0,12.71655,5.23622,17.06868,17.06868,0,0,0,6.73229-1.32984c.4987-.24934,1.0805-.4987,1.57918-.748.08312,0,.08312-.08312.16623-.08312a18.559,18.559,0,0,0,4.15573-3.07525l34.077-34.077-.33245-.33246a29.5467,29.5467,0,0,1,0-41.80669l35.1575-35.15753-10.38933-10.38933A17.55705,17.55705,0,0,0,204.627,116.37946Z"/><path class="cls-5" d="M204.627,116.37946a15.296,15.296,0,0,0-3.4077.33246,17.89717,17.89717,0,0,0-9.22574,4.90376L164.9813,148.628l1.91164,1.91164a29.54672,29.54672,0,0,1,0,41.8067l-42.30538,42.30539,8.81017,8.81016a17.85877,17.85877,0,0,0,12.71655,5.23622,17.06868,17.06868,0,0,0,6.73229-1.32984c.4987-.24934,1.0805-.4987,1.57918-.748.08312,0,.08312-.08312.16623-.08312a18.559,18.559,0,0,0,4.15573-3.07525l34.077-34.077-.33245-.33246a29.5467,29.5467,0,0,1,0-41.80669l35.1575-35.15753-10.38933-10.38933A17.55705,17.55705,0,0,0,204.627,116.37946Z"/><path d="M154.42575,246.6202c-.49869.24933-1.0805.49869-1.57918.748C153.34525,247.11889,153.92706,246.86956,154.42575,246.6202Z"/><path class="cls-6" d="M154.42575,246.6202c-.49869.24933-1.0805.49869-1.57918.748C153.34525,247.11889,153.92706,246.86956,154.42575,246.6202Z"/><path d="M158.74771,243.37873A16.323,16.323,0,0,1,154.592,246.454,14.57252,14.57252,0,0,0,158.74771,243.37873Z"/><path class="cls-7" d="M158.74771,243.37873A16.323,16.323,0,0,1,154.592,246.454,14.57252,14.57252,0,0,0,158.74771,243.37873Z"/><path d="M154.592,246.53708c-.08312,0-.08312.08312-.16623.08312C154.50886,246.6202,154.50886,246.53708,154.592,246.53708Z"/><path class="cls-8" d="M154.592,246.53708c-.08312,0-.08312.08312-.16623.08312C154.50886,246.6202,154.50886,246.53708,154.592,246.53708Z"/><path class="cls-9" d="M31.91468,214.621a42.85232,42.85232,0,0,1-5.48558-6.8154,8.30642,8.30642,0,0,1-.66491-1.1636L14.5437,217.69629a29.5467,29.5467,0,0,0,0,41.80669l21.69294,21.69294a29.66854,29.66854,0,0,0,34.40949,5.40246,28.61677,28.61677,0,0,0,7.39721-5.40246l6.89852-6.89851L87.4353,271.804l.83115-.83115Z"/><path class="cls-3" d="M103.39332,235.566a32.62146,32.62146,0,0,1-5.98426-8.14524,33.96532,33.96532,0,0,1-1.41294-28.259,24.30363,24.30363,0,0,1,1.41294-2.99214,32.62171,32.62171,0,0,1,5.98426-8.14524L153.844,137.57373l-8.72705-8.72705a29.5467,29.5467,0,0,0-41.80669,0L26.01353,206.14336c.08312.49869.24935.99737.33246,1.57917a42.8524,42.8524,0,0,0,5.48557,6.81542l56.35177,56.35178,25.26687-25.26687Z"/><path class="cls-3" d="M166.80983,150.62272l-1.91164-1.91164L114.44757,199.1617a19.40514,19.40514,0,0,0-3.15836,4.23886l-.08312.08311c-.24935.4987-.49869,1.0805-.748,1.57918a17.36192,17.36192,0,0,0-1.32984,6.7323,18.00006,18.00006,0,0,0,5.23623,12.71653l10.14,10.14,42.22227-42.22227A29.472,29.472,0,0,0,166.80983,150.62272Z"/><path class="cls-3" d="M111.37233,203.31745a18.74177,18.74177,0,0,1,3.15836-4.23886A16.55158,16.55158,0,0,0,111.37233,203.31745Z"/><path class="cls-3" d="M110.54118,205.06285c.24935-.49869.4987-1.08049.748-1.57918C111.03988,203.98237,110.79053,204.48105,110.54118,205.06285Z"/><path class="cls-3" d="M111.28921,203.48367l.08312-.08311C111.28921,203.40056,111.28921,203.40056,111.28921,203.48367Z"/><path class="cls-3" d="M192.57539,208.96925l.33246.33245,43.38587-43.38587a17.927,17.927,0,0,0,4.90376-9.22574,15.793,15.793,0,0,0,.33245-3.4077,18.00017,18.00017,0,0,0-5.23621-12.71656l-8.56081-8.56081-35.15752,35.15752A29.54657,29.54657,0,0,0,192.57539,208.96925Z"/><path class="cls-3" d="M253.0829,169.1573a36.62267,36.62267,0,0,1-3.49083,5.31934A32.612,32.612,0,0,0,253.0829,169.1573Z"/><path class="cls-3" d="M254.66207,165.91583a24.3009,24.3009,0,0,1-1.413,2.99214C253.74781,167.91058,254.2465,166.91321,254.66207,165.91583Z"/><path class="cls-10" d="M249.59207,174.47665a32.61287,32.61287,0,0,0,3.49083-5.31934c.08312-.08312.08312-.16622.16624-.24934.49869-.99738.99738-1.99475,1.413-2.99214s.748-2.07787,1.08048-3.07524a33.42405,33.42405,0,0,0-8.47771-33.329l-8.56081-8.56082L227.64982,132.005l8.5608,8.56082a17.85877,17.85877,0,0,1,5.23622,12.71655,15.29674,15.29674,0,0,1-.33245,3.40771,17.897,17.897,0,0,1-4.90377,9.22573l-43.38587,43.38588L203.879,220.356l43.38588-43.38587A22.29432,22.29432,0,0,0,249.59207,174.47665Z"/><path class="cls-10" d="M344.84153,100.089,323.14858,78.39605a29.5044,29.5044,0,0,0-39.64572-1.91164c-.748.5818-1.413,1.24672-2.161,1.91164L267.37861,92.35932l-2.49344,2.49344-.08312.08311,51.78045,51.78046a44.60331,44.60331,0,0,1,3.657,4.23886,41.292,41.292,0,0,1,5.5687,9.80753l18.95014-18.95015A29.52157,29.52157,0,0,0,344.84153,100.089Z"/><path class="cls-3" d="M247.26487,129.51159a33.7935,33.7935,0,0,1,8.47771,33.329c-.33245,1.08049-.66491,2.07787-1.08048,3.07524a24.30381,24.30381,0,0,1-1.413,2.99214c-.08312.08312-.08312.16622-.16624.24934a36.62267,36.62267,0,0,1-3.49083,5.31934,34.249,34.249,0,0,1-2.3272,2.57656L203.879,220.43909l10.30623,10.30622a29.54669,29.54669,0,0,0,41.80668,0L321.985,164.75224c-.41557-4.57131-.99738-9.14261-1.82853-13.6308a35.18464,35.18464,0,0,0-3.657-4.23886L264.80208,95.019l-26.0149,26.0149Z"/><path class="cls-3" d="M249.59207,174.47665a34.249,34.249,0,0,1-2.3272,2.57656A34.25482,34.25482,0,0,0,249.59207,174.47665Z"/><path class="cls-3" d="M253.24914,168.908c-.08312.08312-.08312.16623-.16624.24935C253.166,169.07419,253.24914,168.99107,253.24914,168.908Z"/></svg>