<svg id="Layer_1" data-name="Layer 1" xmlns="http://www.w3.org/2000/svg" viewBox="0 0 459.90605 148.46482"><defs><style>.cls-1{fill:none;}.cls-2{fill:#fff;}</style></defs><path class="cls-1" d="M276.99,68.46144c-1.8247,0-2.45233,1.38372-2.45233,3.59314V82.48011c0,2.43476.5774,3.7613,2.389,3.7613,2.146,0,2.56323-1.92157,2.56323-4.93378V73.19184C279.48986,70.33808,279.2293,68.46144,276.99,68.46144Z"/><path class="cls-1" d="M194.27813,82.77766v.4137c0,1.86084.67474,3.18475,2.31329,3.18475,1.75654,0,2.53333-1.21387,2.53333-4.77094V78.58332h-.87408C195.856,78.58332,194.27813,79.48994,194.27813,82.77766Z"/><path class="cls-1" d="M315.16607,68.17976c-1.69183,0-2.50873,1.20062-2.50873,3.76392v2.69439h4.954V71.93751C317.61132,69.49836,317.04888,68.17976,315.16607,68.17976Z"/><path class="cls-1" d="M296.24969,68.46144c-1.68128,0-2.60468,1.07562-2.60468,3.63183v9.25928c0,2.67944.62763,4.03326,2.33179,4.03326,2.23932,0,2.62048-1.76226,2.62048-4.99536V72.66371C298.59728,70.41816,298.36926,68.46144,296.24969,68.46144Z"/><path class="cls-1" d="M444.07647,71.93751c0-2.43915-.5625-3.75775-2.44531-3.75775-1.69183,0-2.50873,1.20062-2.50873,3.76392v2.69439h4.954Z"/><path class="cls-1" d="M332.9425,60.83412h-1.48322V70.98329h1.20331c2.778,0,3.79914-1.04657,3.79914-4.748V65.06721C336.46173,62.43617,335.91772,60.83412,332.9425,60.83412Z"/><path class="cls-2" d="M113.45977,66.40248a4.18407,4.18407,0,1,0,4.14673,4.22143A4.15263,4.15263,0,0,0,113.45977,66.40248Z"/><path class="cls-2" d="M137.53912,9.10023q-24.30717.0705-48.61463.03253a25.05367,25.05367,0,0,1-.89563,5.44513,14.83952,14.83952,0,0,1-28.898-4.4375c-.00824-.33594-.01831-.67175-.02758-1.00763H9.317c-.52856.28034-.23694.7674-.23706,1.13727q-.0249,64.2518-.01562,128.50366H122.6629c5.01233,0,10.02466.00684,15.03686-.01574.32807-.00147.78357.28546,1.011-.237q0-64.08033.02411-128.16065C138.73547,9.39479,138.62359,9.09706,137.53912,9.10023ZM118.91686,74.68782a6.892,6.892,0,0,1-10.5332.5661c-.20227.14587-.21753.39026-.2857.59314q-1.74867,5.20239-3.47913,10.41089-3.61625,10.95089-7.2226,21.905c-.14862.44921-.11084.54095.3946.4909a6.74431,6.74431,0,0,1,7.56579,5.76245,6.547,6.547,0,0,1-1.51947,5.38532,6.83168,6.83168,0,0,1-11.74988-6.49976c.07032-.21759.15-.43213.25391-.73022-12.14355-.145-24.23273-.28943-36.39178-.43463a6.93877,6.93877,0,0,1-.31965,7.034,6.60963,6.60963,0,0,1-4.55334,3.01642,6.87523,6.87523,0,1,1-.36768-13.60339C46.96484,97.431,43.2293,86.30281,39.464,75.08607a7.04377,7.04377,0,0,1-3.64392,2.1767,6.847,6.847,0,1,1-2.72491-13.416A6.79962,6.79962,0,0,1,40.862,68.66029c.14606.48505.273.30829.51715.13123q7.34107-5.32306,14.6883-10.63782c2.72363-1.96845,5.462-3.91657,8.1839-5.88733,2.31329-1.67487,4.61267-3.3689,6.91711-5.056a.72885.72885,0,0,0,.10706-.1239,6.92985,6.92985,0,0,1-3.34418-8.2652,6.85746,6.85746,0,0,1,13.10962.33118,6.92189,6.92189,0,0,1-3.54,7.97076c9.74316,7.33313,19.451,14.63965,29.21466,21.9881a6.83522,6.83522,0,0,1,4.87433-5.11865,6.53908,6.53908,0,0,1,5.4032.74658A6.84137,6.84137,0,0,1,118.91686,74.68782Z"/><path class="cls-2" d="M49.86181,111.24147a4.19977,4.19977,0,0,0,.05292,8.39911,4.19965,4.19965,0,1,0-.05292-8.39911Z"/><path class="cls-2" d="M74.44933,45.16847a4.20124,4.20124,0,0,0,4.16511-4.28461,4.17953,4.17953,0,0,0-8.358.08069A4.211,4.211,0,0,0,74.44933,45.16847Z"/><path class="cls-2" d="M34.29113,66.40156a4.18387,4.18387,0,1,0,4.18018,4.18677A4.18205,4.18205,0,0,0,34.29113,66.40156Z"/><path class="cls-2" d="M97.6231,77.3097A1.33313,1.33313,0,0,1,96.16216,77.08a1.25315,1.25315,0,0,1-.38848-1.26544A1.45941,1.45941,0,0,1,96.825,74.7602q2.50249-.985,5.00549-1.96875c1.14233-.44934,2.28455-.89886,3.511-1.38147L75.75939,49.14589c0,2.98028.00061,5.80047-.0003,8.62066-.00031.90845.01495,1.81751-.0138,2.7251a1.31775,1.31775,0,0,1-2.52594.45886,2.48737,2.48737,0,0,1-.11767-1.028c-.00311-3.44116.00458-6.88239.00329-10.32361,0-.13477.1-.3103-.13513-.42481Q57.76119,60.20763,42.43969,71.323c2.90326,1.17914,5.70978,2.31476,8.51245,3.45978a1.34556,1.34556,0,1,1-.98614,2.47613c-1.62738-.65832-3.24982-1.32873-4.87573-1.9906-1.02643-.41784-2.05549-.82934-3.19062-1.28686,3.83826,11.433,7.63666,22.74737,11.46228,34.14288.26239-.30463.46253-.53552.66107-.76782q3.97413-4.64906,7.949-9.29749a1.35,1.35,0,0,1,2.02545-.32544,1.36517,1.36517,0,0,1,.00818,2.04755q-3.35559,3.9191-6.71124,7.83807c-.50507.59033-1.00348,1.18634-1.57087,1.85773,12.28461.14618,24.44355.29089,36.6955.43671-.2334-.34406-.39337-.58319-.5567-.82007q-3.25553-4.72147-6.51-9.44379a1.36756,1.36756,0,0,1,.23077-1.99414,1.35009,1.35009,0,0,1,1.9834.51038q2.51166,3.65259,5.031,7.3c.6311.9151,1.26391,1.829,1.96277,2.84,3.79522-11.46051,7.55114-22.80218,11.34228-34.2503-1.11249.43438-2.11261.82269-3.111,1.21527Q100.2063,76.2877,97.6231,77.3097ZM96.11,83.99238a9.28972,9.28972,0,0,1-7.68,7.85242,8.07647,8.07647,0,0,1-1.325.11188c-2.08753.00488-4.17511.00158-6.26264.0014q-3.10217-.00027-6.20434-.00006v.002c-3.90387,0-7.80835-.04187-11.71137.015a10.04871,10.04871,0,0,1-6.868-2.08319A9.18746,9.18746,0,0,1,53.02148,80.138a9.05291,9.05291,0,0,1,7.71606-6.61871,9.94982,9.94982,0,0,1,1.90943-.02985c.33069.01111.48657-.04559.60962-.40454a11.39646,11.39646,0,0,1,11.20318-7.81879,10.8272,10.8272,0,0,1,5.93018,1.892,1.37822,1.37822,0,0,0,1.12317.26587,7.42411,7.42411,0,0,1,8.57373,5.9408,1.1199,1.1199,0,0,0,.73327.952A9.26353,9.26353,0,0,1,96.11,83.99238Z"/><path class="cls-2" d="M88.76916,76.37092a1.42149,1.42149,0,0,1-1.21027-1.64361,4.76857,4.76857,0,0,0-6.18139-4.55066,1.8235,1.8235,0,0,1-1.8559-.37055,8.51659,8.51659,0,0,0-7.09039-1.72162A8.7323,8.7323,0,0,0,65.49,75.03041c-.22753,1.15509-.81158,1.52667-1.9364,1.2669a6.73535,6.73535,0,0,0-3.21753-.01092,6.64138,6.64138,0,0,0-5.007,7.019,6.57039,6.57039,0,0,0,6.65516,5.9931c.98388.00153,1.96716.029,2.95184.02033,3.69177-.03241,7.384-.013,11.076-.01392q2.66821,0,5.33648-.00006c1.798-.00006,3.596.00324,5.394-.0033a7.17146,7.17146,0,0,0,1.21435-.06494,6.6065,6.6065,0,0,0,.81232-12.86566Z"/><path class="cls-2" d="M94.40215,115.54481a4.25435,4.25435,0,0,0,4.31586,4.09424,4.19539,4.19539,0,1,0-4.31586-4.09424Z"/><path class="cls-2" d="M181.30779,81.33052h-.10827c-.691-7.50843-2.10687-17.12244-3.1178-24.83069h-5.10718c-.96606,7.4574-2.38806,17.86011-3.16888,25.06659h-.09595c-.261-6.42749-1.31024-17.721-2.09674-25.06659h-5.582l4.66131,34.03979h5.311c1.01709-7.3377,2.5003-16.56439,3.2912-23.71722h.09594c.728,7.00494,2.06238,16.0838,3.02228,23.71722h5.35584l5.03015-34.03979h-5.307C182.70519,64.21247,181.70916,74.68293,181.30779,81.33052Z"/><path class="cls-2" d="M204.2398,70.82484c0-4.26031-1.78155-7.06921-6.87158-7.06921-5.796,0-7.26154,3.38012-7.26154,7.19775V71.294h5.1604V70.8636c0-1.63812.36048-2.85114,1.91541-2.85114,1.59985,0,1.84631,1.16193,1.84631,3.22876v3.367h-.60516c-4.7533,0-9.13208,1.7279-9.13208,8.22668v.45862c0,3.98047,1.60028,7.65368,5.56488,7.65368a4.52482,4.52482,0,0,0,4.35193-2.34143c.04492.375.23016,1.4383.33844,1.9339h4.7951c-.09594-1.00348-.10211-3.73925-.10211-5.40027Zm-5.115,10.78033c0,3.55707-.77679,4.77094-2.53333,4.77094-1.63855,0-2.31329-1.32391-2.31329-3.18475v-.4137c0-3.28772,1.57782-4.19434,3.97254-4.19434h.87408Z"/><path class="cls-2" d="M215.82952,74.19532c-2.39911-1.53253-2.89422-2.205-2.89422-3.68206,0-1.39344.51361-2.3335,1.80755-2.3335,1.24689,0,1.86438.75171,1.86438,2.58789v1.62671h5.07062V71.33894c0-4.83344-1.98187-7.58331-6.96753-7.58331-4.59045,0-6.98608,2.72522-6.98608,7.18542,0,3.77362,1.74688,5.68549,5.373,8.01721,3.19434,2.0589,3.67542,3.2367,3.67542,4.93994,0,1.757-.60956,2.62488-2.036,2.62488-1.67951,0-2.13764-1.40838-2.13764-3.03418V82.28382h-5.30084v1.17249c0,3.76654,1.35779,7.49084,7.28577,7.49084,4.95532,0,7.48956-2.58087,7.48956-7.62988C222.07354,78.99879,220.44506,77.13093,215.82952,74.19532Z"/><path class="cls-2" d="M244.24236,63.75563a5.52688,5.52688,0,0,0-5.06665,2.84582,4.02412,4.02412,0,0,0-4.226-2.84582,4.911,4.911,0,0,0-4.63318,2.73138,16.52481,16.52481,0,0,0-.19146-2.32379h-5.01337c.051,1.19092.051,2.39685.051,7.64661V90.53962h5.24976V72.42073c0-2.51661.39917-3.95929,2.27234-3.95929,1.26141,0,1.97436.57477,1.97436,2.97693V90.53962h5.29468V72.4947c0-2.6029.43836-4.03326,2.28424-4.03326,1.47791,0,1.96289,1.01227,1.96289,2.85107V90.53962h5.24976V70.354C249.45074,65.19923,247.10668,63.75563,244.24236,63.75563Z"/><polygon class="cls-2" points="258.704 74.99 266.186 74.99 266.186 70.162 258.704 70.162 258.704 61.373 266.6 61.373 266.6 56.5 253.454 56.5 253.454 90.54 266.663 90.54 267.328 85.711 258.704 85.711 258.704 74.99"/><path class="cls-2" d="M284.73962,55.01576h-5.24976V65.6147c-.7218-1.3415-2.39514-1.85907-4.15387-1.85907-4.30346,0-6.05426,3.38629-6.05426,7.97235V82.05586c0,5.1098.91547,8.89129,5.6529,8.89129a4.6615,4.6615,0,0,0,4.65118-2.91619c0,.41723.096,1.84405.19189,2.50866h5.013c-.05108-1.433-.05108-3.29565-.05108-7.3139Zm-5.24976,26.29187c0,3.01221-.41723,4.93378-2.56323,4.93378-1.81158,0-2.389-1.32654-2.389-3.7613V72.05458c0-2.20942.62763-3.59314,2.45233-3.59314,2.23932,0,2.49988,1.87664,2.49988,4.7304Z"/><path class="cls-2" d="M299.15447,66.4897c-.441-1.44184-1.58007-2.73407-4.35192-2.73407-5.064,0-6.41346,4.43029-6.41346,8.01727v9.96252c0,4.52887,1.05188,8.26551,5.85889,8.26551a4.41092,4.41092,0,0,0,4.34314-2.42334v2.88018c0,3.32642-.36621,4.99714-2.5448,4.99714a2.29814,2.29814,0,0,1-2.36255-2.52454v-.11444h-5.25592v.10828c0,2.925,1.05805,6.865,7.33679,6.865,7.5102,0,8.07624-4.87128,8.07624-10.71961v-18.316c0-2.78064.051-4.96368.10211-6.59033h-4.54645A13.6074,13.6074,0,0,0,299.15447,66.4897Zm-.55719,13.90075c0,3.2331-.38116,4.99536-2.62048,4.99536-1.70416,0-2.33179-1.35382-2.33179-4.03326V72.09327c0-2.55621.9234-3.63183,2.60468-3.63183,2.11957,0,2.34759,1.95672,2.34759,4.20227Z"/><path class="cls-2" d="M315.17217,63.75563c-6.53839,0-7.67565,5.44781-7.67565,9.05505v8.644c0,5.33161.985,9.49249,7.70208,9.49249,6.75147,0,7.3421-5.43017,7.3421-8.19854v-.11969h-5.11511v.12585c0,1.89691-.25879,3.76831-2.34936,3.76831-1.99286,0-2.46375-1.86261-2.46375-3.90033V78.74794h10.02417V72.772C322.63665,67.553,320.804,63.75563,315.17217,63.75563Zm2.43915,10.88244h-4.954V71.94368c0-2.5633.8169-3.76392,2.50873-3.76392,1.88281,0,2.44525,1.3186,2.44525,3.75775Z"/><path class="cls-2" d="M333.48034,56.49983h-7.27167V90.53962h5.25061V75.31849h1.21827c3.0465,0,3.58081.95154,3.58081,5.101,0,2.47259-.09595,8.06384.3565,10.12011h5.07019a94.20018,94.20018,0,0,1-.31158-10.45813c0-4.6195-1.1355-6.04992-3.12049-6.9812,1.31861-.54046,3.46467-1.8714,3.46467-7.1018V64.70192C341.71765,58.57454,338.66058,56.49983,333.48034,56.49983Zm2.98139,9.73547c0,3.70142-1.02112,4.748-3.79914,4.748h-1.20331V60.83412h1.48322c2.97522,0,3.51923,1.602,3.51923,4.23309Z"/><path class="cls-2" d="M360.3189,64.16322h-5.25067V81.73811c0,3.43378-.8327,4.50946-2.54474,4.50946-1.57568,0-2.27453-1.10028-2.27453-3.52539v-18.559h-5.24982V84.08393c0,5.68726,2.78863,6.86322,5.24451,6.86322,2.15832,0,3.98925-.603,4.92053-2.90832a19.19944,19.19944,0,0,0,.19189,2.50079h5.013c-.05017-1.38373-.05017-3.82379-.05017-7.703Z"/><path class="cls-2" d="M374.73986,63.75563a4.96911,4.96911,0,0,0-4.86157,2.80713,17.86948,17.86948,0,0,0-.19189-2.39954h-5.01294c.051,1.19708.051,2.77893.051,8.13782V90.53962h5.24976V73.036c0-3.58166.79663-4.57458,2.6654-4.57458,1.44709,0,2.26837.83532,2.26837,3.21637V90.53962h5.24976v-19.853C380.15777,65.70277,377.94836,63.75563,374.73986,63.75563Z"/><path class="cls-2" d="M390.27966,57.83253h-5.24359v6.33069h-2.801v4.60364h2.801V85.30305c0,4.56757,1.93829,5.63178,5.2348,5.63178a8.08238,8.08238,0,0,0,3.20227-.52375V86.45356a5.66223,5.66223,0,0,1-1.43036.15314c-1.59149,0-1.76312-.99646-1.76312-2.24371V68.76686h3.30792V64.16322h-3.30792Z"/><rect class="cls-2" x="396.35949" y="55.01576" width="5.24976" height="5.60974"/><rect class="cls-2" x="396.31457" y="64.16322" width="5.24976" height="26.3764"/><path class="cls-2" d="M425.07556,63.75563a5.52832,5.52832,0,0,0-5.06751,2.84582,4.02374,4.02374,0,0,0-4.22516-2.84582,4.9102,4.9102,0,0,0-4.6336,2.73138,16.47794,16.47794,0,0,0-.1919-2.32379h-5.013c.05109,1.19092.05109,2.39685.05109,7.64661V90.53962h5.24975V72.42073c0-2.51661.3996-3.95929,2.27192-3.95929,1.26135,0,1.97521.57477,1.97521,2.97693V90.53962H420.787V72.4947c0-2.6029.43836-4.03326,2.28424-4.03326,1.47705,0,1.96289,1.01227,1.96289,2.85107V90.53962H430.284V70.354C430.284,65.19923,427.93987,63.75563,425.07556,63.75563Z"/><path class="cls-2" d="M449.10174,78.74794V72.772c0-5.219-1.83264-9.01635-7.46442-9.01635-6.53845,0-7.67572,5.44781-7.67572,9.05505v8.644c0,5.33161.985,9.49249,7.70209,9.49249,6.75147,0,7.3421-5.43017,7.3421-8.19854v-.11969h-5.115v.12585c0,1.89691-.25879,3.76831-2.34936,3.76831-1.99378,0-2.46381-1.86261-2.46381-3.90033V78.74794Zm-9.97931-6.80426c0-2.5633.8169-3.76392,2.50873-3.76392,1.88281,0,2.44531,1.3186,2.44531,3.75775v2.70056h-4.954Z"/></svg>