<svg width="805" height="942" viewBox="0 0 805 942" fill="none" xmlns="http://www.w3.org/2000/svg">
<path d="M470.236 76.6525C252.444 76.6525 75.8882 253.208 75.8882 471C75.8882 688.792 252.444 865.348 470.236 865.348V941.236C210.532 941.236 0 730.704 0 471C0 211.296 210.532 0.764282 470.236 0.764282C601.218 0.764282 719.692 54.3173 804.957 140.722L751.294 194.385C679.764 121.712 580.262 76.6525 470.236 76.6525Z" fill="#5FDCFF"/>
<path d="M470.236 228.429C336.267 228.429 227.665 337.032 227.665 471C227.665 539.062 255.695 600.576 300.842 644.629L247.178 698.293C188.3 640.504 151.776 560.018 151.776 471C151.776 295.12 294.355 152.541 470.236 152.541C559.444 152.541 640.085 189.221 697.9 248.323L644.235 301.988C600.157 256.618 538.488 228.429 470.236 228.429Z" fill="#5FDCFF"/>
<path d="M470.235 152.541C294.355 152.541 151.776 295.12 151.776 471C151.776 646.88 294.355 789.459 470.235 789.459C558.749 789.459 638.828 753.348 696.545 695.055L750.206 748.716C678.756 820.743 579.705 865.348 470.235 865.348C252.443 865.348 75.8877 688.792 75.8877 471C75.8877 253.208 252.443 76.6525 470.235 76.6525V152.541Z" fill="#0E5DF5"/>
<path d="M470.237 637.683C378.18 637.683 303.554 563.057 303.554 471C303.554 424.579 322.531 382.589 353.15 352.367L299.488 298.705C255.136 342.661 227.666 403.623 227.666 471C227.666 604.969 336.268 713.571 470.237 713.571C537.889 713.571 599.072 685.877 643.068 641.206L589.405 587.543C559.144 618.481 516.933 637.683 470.237 637.683Z" fill="#0E5DF5"/>
</svg>
