<?xml version="1.0" encoding="utf-8"?>
<!-- Generator: Adobe Illustrator 25.0.0, SVG Export Plug-In . SVG Version: 6.00 Build 0)  -->
<svg version="1.1" id="图层_1" xmlns="http://www.w3.org/2000/svg" xmlns:xlink="http://www.w3.org/1999/xlink" x="0px" y="0px"
	 viewBox="0 0 725.57 240" style="enable-background:new 0 0 725.57 240;" xml:space="preserve">
<style type="text/css">
	.st0{fill:#5D64A6;}
	.st1{font-family:'Poppins-Bold';}
	.st2{font-size:89.5497px;}
</style>
<g>
	<path class="st0" d="M248.38,223.69c-5.66-0.3-11.19-1.36-14.18-6.71c-1.54-2.75-2.25-6.22-2.41-9.41
		c-0.43-8.8-4.68-13.5-13.5-14.04c-1.83-0.11-3.66-0.04-5.5-0.04c-46.82-0.01-93.64-0.32-140.46,0.12
		c-21.21,0.2-41.39-14.91-45.96-36.24c-0.86-4.03-1.47-8.21-1.5-12.32c-0.16-18.99-0.13-37.99-0.05-56.98
		c0.12-30.56,20.84-55.87,50.79-61.73c5.5-1.08,11.25-1.22,16.89-1.19c15.31,0.09,30.64-0.05,45.91,0.9
		c22.92,1.44,45.63,18.81,52.51,44.51c1.36,5.07,2.04,10.46,2.08,15.71c0.2,27.99,0.1,55.98,0.11,83.98c0,6.64,0.05,6.68,6.7,6.7
		c7.66,0.02,15.33,0.15,22.99-0.02c11.52-0.26,19.17,5.32,24.03,15.37c0.41,0.85,1.03,1.59,1.56,2.39
		C248.38,204.35,248.38,214.02,248.38,223.69z M108.87,176.95c11.66,0,23.32,0.07,34.97-0.01c20.46-0.14,31.94-14.6,32.11-28.26
		c0.25-20.46,0.21-40.92-0.18-61.38c-0.42-22.54-20.99-45.15-49.38-44.96c-11.32,0.08-22.65,0.02-33.97,0.02
		c-29.01-0.01-50.35,21.31-50.38,50.35c-0.01,16.99,0,33.97,0,50.96c0,20.41,12.8,33.21,33.35,33.28
		C86.55,176.99,97.71,176.95,108.87,176.95z"/>
	<path class="st0" d="M98.21,102.01c7.65-7.22,15.03-14.18,22.39-21.17c1.33-1.26,2.46-2.75,3.88-3.89c3.2-2.57,6.8-3.27,9.88-0.18
		c3.08,3.1,2.49,6.69-0.4,9.74c-5.49,5.81-11.1,11.51-16.63,17.27c-0.79,0.82-1.46,1.75-2.41,2.91c6.63,9.48,13.2,18.86,19.75,28.25
		c0.95,1.36,2.1,2.67,2.68,4.19c1.23,3.23,1.76,6.61-1.62,8.97c-3.45,2.42-6.88,1.55-9.33-1.45c-3.15-3.85-5.84-8.09-8.67-12.2
		c-4.03-5.84-8.01-11.72-12.19-17.84c-4.73,3.52-8.3,6.77-7.66,12.85c0.4,3.79,0.17,7.66,0.04,11.48c-0.18,5.39-2.87,8.43-7.18,8.37
		c-4.1-0.05-6.87-2.99-6.9-8.12c-0.11-19.99-0.11-39.97,0-59.96c0.03-4.71,3.43-8.24,7.16-8.14c3.53,0.1,6.7,3.49,6.88,7.92
		C98.1,86.5,97.93,92,97.97,97.5C97.98,99.12,98.14,100.71,98.21,102.01z"/>
</g>
<text transform="matrix(1 0 0 1 238.5683 140.4191)" class="st0 st1 st2">Karpenter</text>
</svg>
