<?xml version="1.0" encoding="UTF-8" standalone="no"?>
<svg
   role="img"
   viewBox="7.03 12.78 154.57 117.57"
   version="1.1"
   id="svg1"
   sodipodi:docname="podman-stacked-black.svg"
   inkscape:export-filename="podman-stacked-black.png"
   inkscape:export-xdpi="300"
   inkscape:export-ydpi="300"
   inkscape:version="1.4 (e7c3feb1, 2024-10-09)"
   xmlns:inkscape="http://www.inkscape.org/namespaces/inkscape"
   xmlns:sodipodi="http://sodipodi.sourceforge.net/DTD/sodipodi-0.dtd"
   xmlns="http://www.w3.org/2000/svg"
   xmlns:svg="http://www.w3.org/2000/svg">
  <defs
     id="defs1" />
  <sodipodi:namedview
     id="namedview1"
     pagecolor="#ffffff"
     bordercolor="#000000"
     borderopacity="0.25"
     inkscape:showpageshadow="2"
     inkscape:pageopacity="0.0"
     inkscape:pagecheckerboard="0"
     inkscape:deskcolor="#d1d1d1"
     inkscape:zoom="0.40826742"
     inkscape:cx="77.155312"
     inkscape:cy="57.560312"
     inkscape:window-width="1264"
     inkscape:window-height="794"
     inkscape:window-x="0"
     inkscape:window-y="38"
     inkscape:window-maximized="0"
     inkscape:current-layer="svg1" />
  <g
     id="layer1"
     transform="translate(436.449 62.07)">
    <g
       id="g3222">
      <g
         id="text164931"
         fill="#000"
         fill-opacity="1"
         stroke-width=".265"
         transform="translate(-57.542 131.094)">
        <path
           id="path1388"
           d="m -358.34296,-93.074374 c -2.93217,0 -5.48843,1.12776 -7.10488,3.345688 v -3.157728 h -3.45847 v 27.216608 h 3.60883 v -10.300208 c 1.65405,2.142744 4.13512,3.232912 6.95452,3.232912 5.82676,0 10.07466,-4.059936 10.07466,-10.187432 0,-6.089904 -4.2479,-10.14984 -10.07466,-10.14984 z m -0.30073,17.179544 c -3.79679,0 -6.69138,-2.781808 -6.69138,-7.029704 0,-4.210304 2.89459,-6.992112 6.69138,-6.992112 3.83438,0 6.72897,2.781808 6.72897,6.992112 0,4.247896 -2.89459,7.029704 -6.72897,7.029704 z" />
        <path
           id="path1390"
           d="m -335.33997,-72.737102 c 5.97712,0 10.3378,-4.247896 10.3378,-10.187432 0,-5.939536 -4.36068,-10.14984 -10.3378,-10.14984 -5.97713,0 -10.3754,4.210304 -10.3754,10.14984 0,5.939536 4.39827,10.187432 10.3754,10.187432 z m 0,-3.157728 c -3.83439,0 -6.72897,-2.781808 -6.72897,-7.029704 0,-4.247896 2.89458,-6.992112 6.72897,-6.992112 3.83438,0 6.69137,2.744216 6.69137,6.992112 0,4.247896 -2.85699,7.029704 -6.69137,7.029704 z" />
        <path
           id="path1392"
           d="m -305.4201,-89.879054 c -1.65405,-2.142744 -4.13512,-3.19532 -6.95452,-3.19532 -5.82676,0 -10.07465,4.059936 -10.07465,10.14984 0,6.089904 4.24789,10.187432 10.07465,10.187432 2.93218,0 5.48843,-1.12776 7.10489,-3.38328 v 3.157728 h 3.45846 v -27.893266 h -3.60883 z m -6.65378,13.984224 c -3.83439,0 -6.72897,-2.781808 -6.72897,-7.029704 0,-4.247896 2.89458,-6.992112 6.72897,-6.992112 3.79679,0 6.69137,2.744216 6.69137,6.992112 0,4.247896 -2.89458,7.029704 -6.69137,7.029704 z" />
        <path
           id="path1394"
           d="m -272.16273,-93.074374 c -3.38328,0 -6.16509,1.428496 -7.66877,3.684016 -1.31572,-2.481072 -3.87197,-3.684016 -6.91692,-3.684016 -3.00736,0 -5.45084,1.12776 -6.87934,3.157728 v -2.969768 h -3.45846 v 19.92376 h 3.60883 V -83.22527 c 0,-4.32308 2.36829,-6.616192 5.97713,-6.616192 3.2705,0 5.1501,1.917192 5.1501,5.82676 v 11.052048 h 3.60883 V -83.22527 c 0,-4.32308 2.3683,-6.616192 5.97713,-6.616192 3.2705,0 5.1501,1.917192 5.1501,5.82676 v 11.052048 h 3.60884 v -11.46556 c 0,-5.864352 -3.3081,-8.64616 -8.15747,-8.64616 z" />
        <path
           id="path1396"
           d="m -252.21292,-93.074374 c -3.19532,0 -6.16509,0.902208 -8.23265,2.556256 l 1.50368,2.706624 c 1.54128,-1.31572 3.94716,-2.142744 6.31546,-2.142744 3.57124,0 5.33806,1.766824 5.33806,4.811776 v 0.714248 h -5.71398 c -5.93954,0 -8.0071,2.63144 -8.0071,5.82676 0,3.458464 2.857,5.864352 7.36804,5.864352 3.12013,0 5.33806,-1.052576 6.541,-2.856992 v 2.63144 h 3.42088 v -12.02944 c 0,-5.45084 -3.08255,-8.08228 -8.53339,-8.08228 z m -0.82702,17.555464 c -2.74422,0 -4.39827,-1.240536 -4.39827,-3.232912 0,-1.69164 1.01499,-3.082544 4.58623,-3.082544 h 5.56361 v 2.781808 c -0.9022,2.293112 -3.04495,3.533648 -5.75157,3.533648 z" />
        <path
           id="path1398"
           d="m -228.46632,-93.074374 c -3.15773,0 -5.71398,1.165352 -7.18007,3.19532 v -3.00736 h -3.45846 v 19.92376 h 3.60883 V -83.22527 c 0,-4.32308 2.48107,-6.616192 6.31545,-6.616192 3.42088,0 5.37566,1.917192 5.37566,5.82676 v 11.052048 h 3.60883 v -11.46556 c 0,-5.864352 -3.42087,-8.64616 -8.27024,-8.64616 z" />
      </g>
      <g
         id="g3147"
         transform="translate(186.812 165.018) scale(1.1372)">
        <g
           id="g3"
           fill="none"
           fill-opacity="1"
           stroke="#000"
           stroke-dasharray="none"
           stroke-linejoin="round"
           stroke-miterlimit="4"
           stroke-opacity="1"
           stroke-width="1.374">
          <path
             id="path10200"
             d="m -455.9013,-124.32208 c -5.5554,0.61207 -10.15838,0.72756 -15.08432,0.0139" />
          <path
             id="path10198"
             d="m -458.77064,-127.6947 c -12.41384,0.25266 -18.71067,-0.70982 -29.09162,-3.23324" />
          <path
             id="path10340"
             d="m -505.35243,-134.46781 c 4.78315,1.26171 8.33422,1.63659 13.39134,1.65487" />
          <path
             id="path10348"
             d="m -444.08179,-150.6252 c -2.77363,0.65127 -4.83282,0.84476 -7.76516,0.85419" />
        </g>
        <g
           id="g9866"
           stroke-dasharray="none"
           stroke-width="1.073"
           transform="matrix(1.61304 0 0 1.6122 -2404.495 261.954)">
          <path
             id="path10202"
             stroke-linejoin="round"
             stroke-width="0"
             d="M -501.67574 -149.15447 L -502.65228 -148.18746 C -501.80795 -147.33578 -500.36286 -146.89615 -498.40256 -146.49203 C -496.44227 -146.0879 -493.97211 -145.79367 -491.19731 -145.57638 C -490.16638 -145.49565 -489.08336 -145.42912 -487.98049 -145.36916 C -487.47849 -145.98462 -486.73308 -146.39081 -485.88698 -146.42023 C -484.88962 -146.45492 -483.99414 -145.95787 -483.45448 -145.18603 C -479.90012 -145.07628 -476.22597 -145.035 -472.72658 -145.0488 C -466.58643 -145.073 -460.24357 -144.96222 -454.64255 -145.15604 C -453.38736 -145.19948 -452.1775 -145.25991 -451.00766 -145.33781 L -451.15217 -145.51549 C -451.50026 -145.94683 -452.0666 -146.22265 -452.62085 -146.22665 C -453.1443 -146.23074 -453.68421 -145.99617 -454.03909 -145.61137 L -454.34945 -145.27555 L -455.02336 -145.89447 L -454.71299 -146.23256 C -454.60857 -146.34578 -454.49492 -146.44926 -454.37445 -146.54293 C -454.48081 -146.53898 -454.58241 -146.53299 -454.68936 -146.52929 C -458.44707 -146.39925 -462.58217 -146.40495 -466.76416 -146.41614 L -466.45106 -146.12304 L -467.07998 -145.45505 L -467.41216 -145.76951 C -467.79318 -146.12845 -468.34898 -146.3238 -468.87084 -146.283 C -469.42343 -146.23978 -469.97032 -145.92748 -470.28726 -145.47277 L -470.54855 -145.0956 L -471.30061 -145.61909 L -471.03887 -145.99626 C -470.93131 -146.15058 -470.80832 -146.29182 -470.67352 -146.42023 C -471.36204 -146.42024 -472.04698 -146.42475 -472.73249 -146.42205 C -478.87196 -146.39785 -485.60753 -146.51575 -491.08961 -146.94509 C -493.17363 -147.10828 -495.07313 -147.31794 -496.68577 -147.57764 L -496.83982 -147.41995 L -497.07112 -147.64716 C -497.43191 -147.70911 -497.79746 -147.77051 -498.12491 -147.83802 C -498.29555 -147.87319 -498.43557 -147.91526 -498.5966 -147.95298 C -498.76033 -147.86871 -498.90677 -147.75075 -499.01557 -147.60944 L -499.29504 -147.24818 L -500.0212 -147.80666 L -499.74219 -148.16792 C -499.72296 -148.1929 -499.7029 -148.21707 -499.68266 -148.24109 C -500.69658 -148.55402 -501.41766 -148.89414 -501.67574 -149.15447 z M -441.44716 -148.40604 C -443.72226 -147.49498 -447.12878 -146.98403 -451.14081 -146.71061 C -450.87618 -146.54596 -450.63774 -146.33773 -450.43919 -146.09169 L -450.15018 -145.73452 L -450.61277 -145.36189 C -446.72805 -145.63832 -443.38587 -146.15041 -440.9373 -147.13094 L -441.44716 -148.40604 z"
             transform="matrix(.61995 0 0 .62027 1490.664 -162.482)" />
          <path
             id="path27"
             stroke-linejoin="round"
             stroke-width="0"
             d="M 1196.4004 -277.71472 C 1189.8557 -277.71472 1184.541 -272.40128 1184.541 -265.85739 C 1184.541 -263.04869 1184.5729 -260.34412 1184.1229 -258.32606 C 1183.8981 -257.31703 1183.5557 -256.48683 1183.0606 -255.88683 C 1182.5656 -255.28682 1181.9261 -254.899 1181.0021 -254.75008 A 0.42597908 0.42597908 0 0 0 1180.6961 -254.18721 L 1180.8494 -254.38564 C 1181.0852 -254.69205 1181.4467 -254.88318 1181.8326 -254.90539 C 1182.2063 -254.92687 1182.5747 -254.7891 1182.8425 -254.52741 L 1183.0459 -254.3287 L 1182.6487 -253.92169 L 1182.4464 -254.12041 C 1182.2971 -254.26627 1182.0736 -254.35026 1181.8653 -254.33829 C 1181.6506 -254.32594 1181.431 -254.20971 1181.2999 -254.03923 L 1181.1266 -253.81515 L 1180.7378 -254.11421 A 0.42597908 0.42597908 0 0 0 1180.8066 -253.99413 C 1181.0349 -253.81429 1181.3106 -253.71418 1181.6698 -253.61334 C 1182.0291 -253.51251 1182.4677 -253.42417 1182.9806 -253.34388 C 1184.0063 -253.18329 1185.3283 -253.05692 1186.8497 -252.95717 C 1187.3256 -252.92596 1187.8505 -252.9023 1188.3619 -252.87655 C 1188.6541 -253.12869 1189.0271 -253.28727 1189.4389 -253.3016 C 1189.9448 -253.3192 1190.4081 -253.11592 1190.7433 -252.77931 C 1192.896 -252.70998 1195.197 -252.67561 1197.494 -252.68348 C 1197.8795 -252.6848 1198.2564 -252.69166 1198.6395 -252.69503 L 1198.4817 -252.80468 L 1198.644 -253.03862 C 1198.7314 -253.16414 1198.8352 -253.27611 1198.9508 -253.37347 C 1195.5547 -253.33753 1192.0282 -253.37206 1188.9651 -253.50651 A 8.2351559 7.2429689 0 0 1 1189.371 -254.25175 C 1189.2719 -254.29625 1189.1642 -254.32122 1189.0589 -254.32137 C 1188.8513 -254.32168 1188.6341 -254.22729 1188.4924 -254.07559 L 1188.2985 -253.86842 L 1187.8844 -254.25598 L 1188.0782 -254.46315 C 1188.3316 -254.73431 1188.689 -254.88902 1189.06 -254.88848 C 1189.2727 -254.88817 1189.4806 -254.83657 1189.6668 -254.74191 A 8.2351559 7.2429689 0 0 1 1196.6607 -258.19555 A 8.2351559 7.2429689 0 0 1 1204.3671 -253.49524 C 1203.3551 -253.45539 1202.27 -253.42759 1201.1727 -253.4042 C 1201.2099 -253.37454 1201.2463 -253.34397 1201.2811 -253.31118 L 1201.4882 -253.11726 L 1201.1248 -252.73111 C 1203.5655 -252.78239 1205.8623 -252.87285 1207.7226 -253.00593 C 1208.0724 -253.03095 1208.359 -253.06154 1208.6773 -253.08936 L 1208.7652 -253.18519 C 1209.0979 -253.54617 1209.5748 -253.75207 1210.0656 -253.74835 C 1210.451 -253.74534 1210.8254 -253.61245 1211.1265 -253.37939 C 1211.5124 -253.4485 1211.8274 -253.52152 1212.0742 -253.61334 C 1212.2035 -253.66144 1212.3173 -253.71052 1212.4278 -253.79486 C 1212.5384 -253.87926 1212.6777 -254.03746 1212.6777 -254.26359 A 0.42597908 0.42597908 0 0 0 1212.2948 -254.68554 C 1211.3909 -254.77944 1210.768 -255.09698 1210.2794 -255.61709 C 1209.7908 -256.1372 1209.4387 -256.88622 1209.1895 -257.85168 C 1208.691 -259.78261 1208.6239 -262.53952 1208.5021 -265.75789 C 1208.2503 -272.40337 1202.9451 -277.71472 1196.4004 -277.71472 z M 1190.4032 -271.33169 C 1190.9444 -271.345 1191.4799 -271.14211 1191.8749 -270.76966 L 1192.08 -270.57433 L 1191.6915 -270.16225 L 1191.4845 -270.3573 C 1191.1841 -270.64043 1190.7494 -270.792 1190.3379 -270.7598 C 1189.902 -270.72568 1189.4743 -270.48184 1189.2245 -270.12307 L 1189.0625 -269.88856 L 1188.5957 -270.21299 L 1188.7597 -270.44721 C 1189.1109 -270.95166 1189.682 -271.27806 1190.2948 -271.32606 C 1190.3309 -271.32888 1190.3672 -271.33081 1190.4032 -271.33169 z M 1202.6015 -271.28519 C 1203.2162 -271.28041 1203.8093 -270.99423 1204.1952 -270.5157 L 1204.3749 -270.29303 L 1203.9315 -269.93761 L 1203.7538 -270.1583 C 1203.4794 -270.49866 1203.0348 -270.71367 1202.5976 -270.71667 C 1202.1848 -270.71987 1201.762 -270.53793 1201.4823 -270.23441 L 1201.291 -270.02527 L 1200.8729 -270.41029 L 1201.0645 -270.61915 C 1201.4569 -271.04502 1202.0223 -271.28919 1202.6015 -271.28519 z M 1190.5255 -269.35754 C 1190.5648 -269.35823 1190.6041 -269.35781 1190.6438 -269.35641 C 1191.9147 -269.31171 1192.8996 -268.20195 1192.8542 -266.90816 C 1192.8087 -265.61438 1191.7485 -264.57645 1190.4776 -264.62114 C 1189.2067 -264.66584 1188.2218 -265.7756 1188.2673 -267.06939 C 1188.3113 -268.32274 1189.3078 -269.33607 1190.5255 -269.35754 z M 1202.8424 -269.35275 C 1204.0601 -269.33128 1205.0566 -268.31795 1205.1006 -267.0646 C 1205.1461 -265.77081 1204.1612 -264.66105 1202.8903 -264.61635 C 1201.6194 -264.57165 1200.5592 -265.60958 1200.5137 -266.90337 C 1200.4683 -268.19716 1201.4532 -269.30692 1202.7241 -269.35162 C 1202.7638 -269.35301 1202.8031 -269.35344 1202.8424 -269.35275 z M 1190.3258 -268.47418 A 0.76622485 0.80691439 2.0022637 0 1 1190.5993 -268.31493 A 0.76622487 0.80691442 2.0022637 0 0 1190.3258 -268.47418 z M 1190.6207 -268.29408 A 0.76622485 0.80691439 2.0022637 0 1 1190.7971 -268.03702 A 0.76622487 0.80691442 2.0022637 0 0 1190.6207 -268.29408 z M 1190.8083 -268.01165 A 0.76622485 0.80691439 2.0022637 0 1 1190.8678 -267.67821 A 0.76622487 0.80691442 2.0022637 0 0 1190.8083 -268.01165 z M 1190.8678 -267.67821 A 0.76622485 0.80691439 2.0022637 0 1 1190.8475 -267.52149 A 0.76622487 0.80691442 2.0022637 0 0 1190.8678 -267.67821 z M 1190.8475 -267.52149 A 0.76622485 0.80691439 2.0022637 0 1 1190.7988 -267.37154 A 0.76622487 0.80691442 2.0022637 0 0 1190.8475 -267.52149 z M 1190.7988 -267.37154 A 0.76622485 0.80691439 2.0022637 0 1 1190.723 -267.23456 A 0.76622487 0.80691442 2.0022637 0 0 1190.7988 -267.37154 z M 1190.723 -267.23456 A 0.76622485 0.80691439 2.0022637 0 1 1190.6235 -267.11561 A 0.76622487 0.80691442 2.0022637 0 0 1190.723 -267.23456 z M 1190.6235 -267.11561 A 0.76622485 0.80691439 2.0022637 0 1 1190.5038 -267.0195 A 0.76622487 0.80691442 2.0022637 0 0 1190.6235 -267.11561 z M 1190.5038 -267.0195 A 0.76622485 0.80691439 2.0022637 0 1 1190.3689 -266.9496 A 0.76622487 0.80691442 2.0022637 0 0 1190.5038 -267.0195 z M 1190.3689 -266.9496 A 0.76622485 0.80691439 2.0022637 0 1 1190.2235 -266.90873 A 0.76622487 0.80691442 2.0022637 0 0 1190.3689 -266.9496 z M 1190.2235 -266.90873 A 0.76622485 0.80691439 2.0022637 0 1 1190.0736 -266.89858 A 0.76622487 0.80691442 2.0022637 0 0 1190.2235 -266.90873 z M 1190.0736 -266.89858 A 0.76622485 0.80691439 2.0022637 0 1 1189.7094 -267.01527 A 0.76622487 0.80691442 2.0022637 0 0 1190.0736 -266.89858 z M 1196.7475 -267.88707 C 1198.9753 -267.85914 1200.8564 -266.27436 1200.9343 -264.20878 C 1200.9486 -263.83285 1200.8982 -263.47069 1200.798 -263.12643 C 1202.4356 -262.91213 1203.7483 -262.25764 1204.78 -261.49728 L 1204.4409 -261.04038 C 1203.4394 -261.77846 1202.1804 -262.40148 1200.5853 -262.5816 C 1200.5272 -262.46092 1200.468 -262.34074 1200.3971 -262.22673 C 1202.1045 -261.69012 1203.2284 -260.57283 1204.1084 -259.51579 L 1203.6721 -259.15332 C 1202.784 -260.22001 1201.7171 -261.27597 1200.0444 -261.74165 C 1199.9574 -261.64106 1199.8653 -261.54416 1199.7678 -261.4519 C 1201.3755 -260.59281 1202.1507 -259.12635 1202.7139 -257.78573 L 1202.1897 -257.56672 C 1201.6138 -258.93737 1200.8757 -260.31062 1199.2824 -261.06208 C 1198.5948 -260.58269 1197.7438 -260.28399 1196.819 -260.2537 C 1195.8098 -260.22066 1194.8636 -260.51151 1194.1072 -261.02319 C 1192.5186 -260.18078 1191.8548 -258.74639 1191.3566 -257.32517 L 1190.8182 -257.51204 C 1191.3084 -258.91015 1192.0107 -260.45294 1193.6263 -261.40426 C 1193.536 -261.48699 1193.4467 -261.57055 1193.3649 -261.66047 C 1191.7287 -261.09346 1190.7298 -259.9772 1189.9094 -258.86075 L 1189.4519 -259.19616 C 1190.2676 -260.30621 1191.3238 -261.49123 1193.0001 -262.12949 C 1192.9269 -262.2406 1192.8576 -262.35395 1192.797 -262.47223 C 1191.2089 -262.19761 1189.9857 -261.49731 1189.0279 -260.69764 L 1188.6617 -261.13339 C 1189.6539 -261.96185 1190.9381 -262.69994 1192.5798 -263.00833 C 1192.4861 -263.30186 1192.4257 -263.60899 1192.4136 -263.92974 C 1192.3331 -266.06194 1194.2097 -267.80908 1196.5308 -267.88509 C 1196.6034 -267.88747 1196.6756 -267.88797 1196.7475 -267.88707 z M 1191.7839 -267.80251 C 1191.7851 -267.80063 1191.7862 -267.79876 1191.7873 -267.79687 C 1191.7862 -267.79877 1191.7851 -267.80062 1191.7839 -267.80251 z M 1189.3364 -267.73204 A 0.76622487 0.80691442 2.0022637 0 0 1189.4217 -267.33941 A 0.76622485 0.80691439 2.0022637 0 1 1189.3364 -267.73204 z M 1189.4322 -267.31714 A 0.76622487 0.80691442 2.0022637 0 0 1189.6863 -267.02936 A 0.76622485 0.80691439 2.0022637 0 1 1189.4322 -267.31714 z M 1187.9193 -264.89286 A 1.2784375 1.2185711 88.005466 0 1 1189.182 -263.65802 A 1.2784375 1.2185711 88.005466 0 1 1188.0092 -262.3375 A 1.2784375 1.2185711 88.005466 0 1 1186.7463 -263.57234 A 1.2784375 1.2185711 88.005466 0 1 1187.9193 -264.89286 z M 1205.6134 -264.89286 A 1.2784375 1.2185711 88.005466 0 1 1206.876 -263.65802 A 1.2784375 1.2185711 88.005466 0 1 1205.7032 -262.3375 A 1.2784375 1.2185711 88.005466 0 1 1204.4403 -263.57234 A 1.2784375 1.2185711 88.005466 0 1 1205.6134 -264.89286 z M 1200.0489 -253.21958 C 1200.0286 -253.21913 1200.0083 -253.21806 1199.9881 -253.21648 C 1199.6455 -253.18967 1199.3064 -252.99596 1199.1099 -252.71392 L 1199.1001 -252.69954 C 1199.7666 -252.70687 1200.4206 -252.71653 1201.0698 -252.72999 L 1200.8924 -252.89797 C 1200.6709 -253.1067 1200.3542 -253.22629 1200.0489 -253.21958 z" />
          <path
             id="path9768"
             fill-rule="evenodd"
             stroke="none"
             stroke-width="0"
             d="M 962.71487 -5.8026169 L 962.29769 -5.7815542 L 961.87906 -5.8028977 L 961.78921 -4.0314456 C 961.69911 -3.9584236 961.49173 -3.7752481 961.14638 -3.6582773 C 960.94016 -3.5884263 960.73781 -3.5640869 960.56054 -3.6093909 C 960.41146 -3.6474879 960.26144 -3.7836086 960.10724 -3.9823125 C 960.11754 -4.0639695 960.121 -4.0938612 960.1387 -4.2227179 C 960.1712 -4.458396 960.21788 -4.7423717 960.23828 -4.8240504 L 959.44148 -5.0235276 C 959.39578 -4.8406231 959.35974 -4.5776712 959.3261 -4.3337927 C 959.2924 -4.0899142 959.26735 -3.8806873 959.26735 -3.8806873 L 959.24968 -3.7344005 L 959.32795 -3.6113532 C 959.60419 -3.177262 959.97657 -2.9117585 960.3574 -2.8144355 C 960.73823 -2.7171125 961.10355 -2.7771311 961.40996 -2.8809131 C 961.79804 -3.0123603 962.11508 -3.2228504 962.2961 -3.3598658 C 962.47769 -3.2228502 962.79544 -3.0121798 963.18351 -2.880735 C 963.48992 -2.7769527 963.85549 -2.7169804 964.23632 -2.8143037 C 964.61715 -2.9116267 964.9893 -3.1773746 965.26553 -3.6114658 L 965.34361 -3.7342581 L 965.32595 -3.8806947 C 965.32595 -3.8806947 965.30103 -4.0900113 965.26733 -4.3338898 C 965.23363 -4.5777683 965.19609 -4.8404817 965.1504 -5.0233862 L 964.35559 -4.8241314 C 964.37599 -4.7424524 964.42252 -4.4584489 964.45502 -4.2227708 C 964.47282 -4.0939141 964.4759 -4.0641649 964.4861 -3.982508 C 964.3319 -3.7838041 964.182 -3.6474481 964.03292 -3.6093513 C 963.85565 -3.5640473 963.65129 -3.5884697 963.44506 -3.6583197 C 963.09985 -3.7752472 962.89478 -3.958105 962.80453 -4.0312195 L 962.71487 -5.8026169 z"
             transform="matrix(.69367 -.00293 .0029 .69136 529.167 -257.564)" />
          <path
             id="path31"
             stroke-linecap="square"
             stroke-width="0"
             d="M 1196.6604 -266.32048 L 1196.6602 -266.3202 C 1196.451 -266.3192 1196.2798 -266.25413 1196.1367 -266.2052 C 1195.9937 -266.1563 1195.8779 -266.12161 1195.7891 -266.12121 C 1195.6326 -266.12021 1195.4814 -266.03419 1195.3983 -265.93349 C 1195.3153 -265.83277 1195.2763 -265.7275 1195.2462 -265.6288 C 1195.1862 -265.43139 1195.1552 -265.2323 1195.129 -265.16203 L 1195.129 -265.16401 C 1195.067 -265.00596 1195.1288 -264.87795 1195.1738 -264.79505 C 1195.2228 -264.71215 1195.2823 -264.64713 1195.3496 -264.57999 C 1195.4841 -264.4457 1195.6543 -264.31263 1195.8263 -264.18764 C 1196.1703 -263.93766 1196.5215 -263.72454 1196.5215 -263.72454 L 1196.67 -263.63491 L 1196.8165 -263.72652 C 1196.8165 -263.72652 1197.1661 -263.94263 1197.5078 -264.19553 C 1197.6786 -264.32198 1197.8472 -264.45653 1197.9806 -264.59183 C 1198.0476 -264.65953 1198.1063 -264.72562 1198.1544 -264.80858 C 1198.2024 -264.89158 1198.2611 -265.01786 1198.1994 -265.17585 C 1198.1724 -265.24535 1198.1404 -265.44367 1198.0783 -265.64063 C 1198.0473 -265.73913 1198.0082 -265.84321 1197.9239 -265.94335 C 1197.8399 -266.04349 1197.688 -266.12975 1197.5315 -266.1291 C 1197.4435 -266.12851 1197.3291 -266.16125 1197.1856 -266.20915 C 1197.0422 -266.25695 1196.8702 -266.3214 1196.6604 -266.32048 z" />
          <path
             id="path35"
             stroke="none"
             stroke-linecap="square"
             stroke-width=".654"
             d="M -1206.4198 -77.150422 C -1206.3953 -77.151704 -1206.3705 -77.152463 -1206.3457 -77.152463 C -1205.5524 -77.152463 -1204.9024 -76.488494 -1204.9024 -75.636798 C -1204.9024 -74.785102 -1205.5523 -74.119177 -1206.3456 -74.119177 C -1207.1389 -74.119177 -1207.789 -74.785117 -1207.789 -75.636813 C -1207.789 -75.921185 -1207.7164 -76.184474 -1207.5903 -76.409243 A 0.76622486 0.80691439 0 0 0 -1207.5954 -76.3363 A 0.76622486 0.80691439 0 0 0 -1206.8293 -75.529546 A 0.76622486 0.80691439 0 0 0 -1206.063 -76.336323 A 0.76622486 0.80691439 0 0 0 -1206.6493 -77.118943 C -1206.5747 -77.135508 -1206.498 -77.146325 -1206.4198 -77.150422 z"
             transform="matrix(-.99938 .03515 .03513 .99938 -.136 -148.994)" />
          <path
             id="path33"
             stroke-linecap="square"
             stroke-width="0"
             d="M -1206.4198 -77.150335 C -1206.498 -77.146237 -1206.5747 -77.13542 -1206.6492 -77.118855 A 0.76622486 0.80691439 0 0 1 -1206.063 -76.336517 A 0.76622486 0.80691439 0 0 1 -1206.8293 -75.529458 A 0.76622486 0.80691439 0 0 1 -1207.5954 -76.336495 A 0.76622486 0.80691439 0 0 1 -1207.5903 -76.409155 C -1207.7164 -76.184386 -1207.789 -75.921097 -1207.789 -75.636726 C -1207.789 -74.78503 -1207.1389 -74.119089 -1206.3456 -74.119089 C -1205.5523 -74.119089 -1204.9024 -74.785014 -1204.9024 -75.63671 C -1204.9024 -76.488406 -1205.5524 -77.152375 -1206.3457 -77.152375 C -1206.3705 -77.152375 -1206.3953 -77.151617 -1206.4198 -77.150335 z"
             transform="rotate(2.014 5434.7 68003.874) skewX(.001)" />
        </g>
        <g
           id="g2">
          <path
             id="path25"
             stroke-dasharray="none"
             stroke-linejoin="round"
             stroke-width="0"
             d="M -461.07036 -154.08218 C -470.12372 -154.0822 -477.50984 -147.02789 -477.50984 -137.27552 C -477.50984 -135.53263 -477.50968 -133.81946 -477.53893 -132.1874 A 0.68694367 0.68694367 0 0 0 -476.97636 -131.49987 C -465.98132 -129.48215 -454.99767 -129.43969 -444.66587 -131.46897 A 0.68694367 0.68694367 0 0 0 -444.11148 -132.17604 C -444.18378 -133.71824 -444.23372 -135.37445 -444.29506 -137.12693 C -444.64204 -147.03231 -452.01718 -154.08217 -461.07036 -154.08218 z M -468.79365 -147.20501 C -468.05432 -147.22306 -467.32536 -146.94461 -466.78512 -146.43568 L -466.45112 -146.12304 L -467.08004 -145.45505 L -467.41222 -145.76951 C -467.79324 -146.12845 -468.34904 -146.3238 -468.8709 -146.283 C -469.42349 -146.23978 -469.97038 -145.92748 -470.28732 -145.47277 L -470.54861 -145.0956 L -471.30067 -145.61909 L -471.03893 -145.99626 C -470.55839 -146.68569 -469.77915 -147.13179 -468.94134 -147.19729 C -468.89201 -147.20115 -468.84294 -147.20381 -468.79365 -147.20501 z M -452.61546 -147.14049 C -451.77512 -147.13394 -450.96701 -146.74567 -450.43925 -146.09169 L -450.15024 -145.73452 L -450.86322 -145.16013 L -451.15223 -145.51549 C -451.50032 -145.94683 -452.06666 -146.22265 -452.62091 -146.22665 C -453.14436 -146.23074 -453.68427 -145.99617 -454.03915 -145.61137 L -454.34952 -145.27555 L -455.02342 -145.89447 L -454.71305 -146.23256 C -454.17632 -146.81453 -453.40713 -147.14649 -452.61546 -147.14049 z M -468.66641 -144.56166 C -466.91223 -144.60619 -465.46388 -143.16024 -465.41869 -141.38119 C -465.37349 -139.60215 -466.74637 -138.08303 -468.50055 -138.03849 C -470.25474 -137.99396 -471.70353 -139.44175 -471.74873 -141.22078 C -471.79393 -142.99983 -470.4206 -144.51714 -468.66641 -144.56166 z M -452.28828 -144.56166 C -450.60809 -144.53206 -449.23383 -143.13457 -449.17324 -141.41164 C -449.11069 -139.63312 -450.46872 -138.1024 -452.22238 -138.04076 C -453.97604 -137.97912 -455.43892 -139.41091 -455.50147 -141.18943 C -455.56401 -142.96794 -454.20552 -144.49866 -452.45187 -144.5603 C -452.39706 -144.56223 -452.34247 -144.56262 -452.28828 -144.56166 z M -460.37828 -141.54342 C -457.55334 -141.50652 -455.14351 -139.57002 -454.70033 -136.96606 C -453.0811 -136.69108 -451.75884 -136.03655 -450.71144 -135.28108 L -451.26174 -134.55447 C -452.1689 -135.20878 -453.27359 -135.76899 -454.62717 -136.03587 C -454.6284 -135.94186 -454.63176 -135.84831 -454.63807 -135.75549 C -453.21823 -135.11582 -452.20982 -134.11233 -451.40534 -133.16667 L -452.12014 -132.58911 C -452.83699 -133.43175 -453.67668 -134.23144 -454.80166 -134.77986 C -454.84003 -134.63727 -454.88417 -134.49654 -454.93435 -134.35861 C -453.94234 -133.46774 -453.33502 -132.34892 -452.88629 -131.30356 L -453.74105 -130.95275 C -454.13803 -131.87754 -454.60174 -132.78716 -455.32515 -133.5243 C -456.28695 -131.86301 -458.14395 -130.71412 -460.2824 -130.64102 C -462.49231 -130.56547 -464.48521 -131.6561 -465.54002 -133.33981 C -466.21137 -132.5636 -466.61513 -131.63226 -466.9528 -130.68964 L -467.82756 -130.98729 C -467.44027 -132.06842 -466.92066 -133.2487 -465.97762 -134.20866 C -466.02683 -134.33428 -466.07094 -134.46218 -466.11031 -134.59218 C -467.14126 -133.97169 -467.88579 -133.12906 -468.53145 -132.2692 L -469.28079 -132.80359 C -468.55199 -133.77416 -467.63134 -134.81166 -466.30071 -135.53283 C -466.31145 -135.63411 -466.31959 -135.73609 -466.32434 -135.83911 C -467.6214 -135.48846 -468.6622 -134.87261 -469.50981 -134.18003 L -470.10374 -134.87301 C -469.11644 -135.67973 -467.85498 -136.40355 -466.28163 -136.77794 C -465.919 -139.39835 -463.55234 -141.44192 -460.67638 -141.54024 C -460.57658 -141.54365 -460.47714 -141.5447 -460.37828 -141.54342 z M -451.02272 -140.00567 C -451.02379 -140.00447 -451.02483 -140.00323 -451.0259 -140.00203 C -451.02482 -140.00324 -451.0238 -140.00446 -451.02272 -140.00567 z M -473.0929 -138.54835 A 2.0611057 1.9655981 87.983815 0 1 -471.0562 -136.55754 A 2.0611057 1.9655981 87.983815 0 1 -472.94839 -134.42905 A 2.0611057 1.9655981 87.983815 0 1 -474.9851 -136.41985 A 2.0611057 1.9655981 87.983815 0 1 -473.0929 -138.54835 z M -447.89133 -138.54835 A 2.0611057 1.9655981 87.983815 0 1 -445.85462 -136.55754 A 2.0611057 1.9655981 87.983815 0 1 -447.74637 -134.42905 A 2.0611057 1.9655981 87.983815 0 1 -449.78307 -136.41985 A 2.0611057 1.9655981 87.983815 0 1 -447.89133 -138.54835 z" />
          <path
             id="path10111"
             stroke-dasharray="none"
             stroke-linejoin="round"
             stroke-width="0"
             d="M -481.09747 -133.66426 L -481.34786 -132.31237 L -476.97636 -131.49987 A 0.68694367 0.68694367 0 0 0 -476.97454 -131.49987 C -465.9795 -129.48219 -454.9951 -129.43979 -444.55681 -131.48442 A 0.68694367 0.68694367 0 0 0 -444.5 -131.49987 L -441.62308 -132.32827 L -442.00388 -133.64836 L -444.84354 -132.82995 C -447.54375 -132.30183 -450.28264 -131.91705 -453.04988 -131.67073 C -452.99334 -131.54774 -452.93839 -131.42493 -452.88629 -131.30356 L -453.74105 -130.95275 C -453.8328 -131.16648 -453.92857 -131.37908 -454.02961 -131.58939 C -455.18705 -131.50038 -456.34997 -131.43877 -457.51636 -131.39853 C -458.33388 -130.94733 -459.27704 -130.67539 -460.2824 -130.64102 C -461.43935 -130.60147 -462.53592 -130.88299 -463.4706 -131.40035 C -464.51567 -131.4358 -465.56263 -131.4879 -466.61199 -131.56212 C -466.73573 -131.2751 -466.8477 -130.98305 -466.9528 -130.68964 L -467.82756 -130.98729 C -467.75061 -131.20207 -467.6676 -131.42101 -467.57808 -131.64119 C -470.61757 -131.88934 -473.67054 -132.28872 -476.72643 -132.84949 L -481.09747 -133.66426 z" />
          <path
             id="path42"
             stroke-linecap="square"
             d="M 447.00013 -158.98981 C 447.0305 -158.9914 447.06116 -158.99213 447.0919 -158.99213 C 448.07539 -158.99213 448.8848 -158.1685 448.8848 -157.10358 C 448.8848 -156.03865 448.07545 -155.21495 447.09196 -155.21494 C 446.10846 -155.21494 445.29905 -156.03856 445.29905 -157.10349 C 445.29905 -157.37526 445.35214 -157.631 445.44699 -157.86167 A 0.82929242 0.87288243 0 0 0 446.25031 -157.20604 A 0.82929242 0.87288243 0 0 0 447.07944 -158.07911 A 0.82929242 0.87288243 0 0 0 446.53046 -158.89828 C 446.67967 -158.94946 446.83698 -158.98127 447.00013 -158.98981 z"
             transform="matrix(-.99938 .03513 .03514 .99938 0 0)" />
          <path
             id="path21"
             stroke-dasharray="none"
             stroke-linecap="square"
             stroke-width="0"
             d="M -464.84369 -155.03309 C -465.0168 -155.03309 -465.18408 -155.00714 -465.34285 -154.95939 A 0.90723586 0.95492255 0 0 1 -464.68658 -154.04224 A 0.90723586 0.95492255 0 0 1 -465.59406 -153.08751 A 0.90723586 0.95492255 0 0 1 -466.49032 -153.89802 C -466.58325 -153.66935 -466.63487 -153.41573 -466.63487 -153.14666 C -466.63487 -152.08174 -465.82719 -151.25793 -464.84369 -151.25793 C -463.86019 -151.25793 -463.05063 -152.08166 -463.05063 -153.14658 C -463.05063 -154.21151 -463.86019 -155.03309 -464.84369 -155.03309 z"
             transform="rotate(-1.454) skewX(.001)" />
          <path
             id="path19"
             stroke-dasharray="none"
             stroke-linecap="square"
             stroke-width="0"
             d="M -460.50188 -139.60169 L -462.006 -139.25997 C -462.2329 -139.20847 -462.42403 -139.06393 -462.54312 -138.91007 C -462.66221 -138.75621 -462.7259 -138.59638 -462.77533 -138.4452 C -462.87363 -138.14457 -462.92026 -137.85646 -462.96891 -137.72676 C -463.06831 -137.47175 -462.97496 -137.26646 -462.89666 -137.13284 C -462.81806 -136.99923 -462.72159 -136.89344 -462.6131 -136.78521 C -462.39613 -136.56873 -462.12114 -136.35371 -461.84377 -136.1522 C -461.28903 -135.74919 -460.72273 -135.40605 -460.72273 -135.40605 L -460.48416 -135.26154 L -460.24604 -135.40832 C -460.24604 -135.40832 -459.68193 -135.75629 -459.1309 -136.16402 C -458.85538 -136.36789 -458.58222 -136.58481 -458.36702 -136.80293 C -458.25942 -136.912 -458.16558 -137.01862 -458.08801 -137.15238 C -458.01041 -137.28614 -457.91783 -137.48919 -458.01757 -137.74403 C -458.06757 -137.87182 -458.11761 -138.16321 -458.21888 -138.46474 C -458.26958 -138.61551 -458.33472 -138.77488 -458.45518 -138.92779 C -458.57563 -139.08071 -458.76857 -139.22405 -458.99594 -139.2736 L -460.50188 -139.60169 z" />
          <path
             id="path18"
             stroke-linejoin="round"
             d="m -460.37695,-136.26367 c -0.10767,-0.0342 -0.2618,-0.0218 -0.36133,0.0273 -0.19907,0.0983 -0.21894,0.20107 -0.24805,0.26172 -0.0291,0.0607 -0.0455,0.10801 -0.0625,0.1582 -0.0271,0.0802 -0.0574,0.17398 -0.0918,0.27149 -0.0712,0.10416 -0.17217,0.19671 -0.28907,0.24805 -0.13387,0.0584 -0.30062,0.0777 -0.46289,0.0527 -0.10965,-0.0169 -0.22475,-0.0571 -0.33398,-0.11719 a 0.45774891,0.45774891 0 0 0 -0.67774,0.40039 v 0.0254 c 0,1.32221 1.0802,2.4043 2.40235,2.4043 1.32214,0 2.40429,-1.08214 2.40429,-2.4043 1e-4,-0.0106 2e-4,-0.022 0,-0.0312 a 0.45774891,0.45774891 0 0 0 -0.67578,-0.39257 c -0.11127,0.0601 -0.22128,0.0987 -0.33008,0.11523 -0.16357,0.0249 -0.33034,0.005 -0.46289,-0.0527 -0.11992,-0.0527 -0.22478,-0.14669 -0.29687,-0.25586 -0.0632,-0.15519 -0.11729,-0.28572 -0.16992,-0.38672 -0.0307,-0.0589 -0.0535,-0.11342 -0.13477,-0.19532 -0.0406,-0.0409 -0.10132,-0.0947 -0.20898,-0.1289 z m -0.12305,1.32031 c 0.15998,0.19498 0.33202,0.3822 0.56445,0.48438 0.22362,0.0981 0.45908,0.0868 0.69141,0.0859 -0.23264,0.51606 -0.65095,0.92578 -1.25781,0.92578 -0.60674,0 -1.0231,-0.4099 -1.25586,-0.92578 0.23387,0.001 0.47138,0.0118 0.69531,-0.0859 0.23127,-0.10157 0.40265,-0.29023 0.5625,-0.48438 z" />
        </g>
        <g
           id="g1"
           stroke-dasharray="none">
          <path
             id="path13"
             stroke-linejoin="round"
             stroke-width="0"
             d="M -492.24617 -153.62503 C -495.36313 -153.62503 -498.37158 -152.69906 -500.617 -150.73221 C -502.86242 -148.76536 -504.2987 -145.75577 -504.2987 -141.79289 C -504.2987 -140.38512 -504.29993 -139.00246 -504.32233 -137.68541 A 0.68694367 0.68694367 0 0 0 -503.77339 -137.00015 C -495.81521 -135.36415 -487.86003 -135.32963 -480.37495 -136.97652 A 0.68694367 0.68694367 0 0 0 -479.83601 -137.67587 C -479.88601 -138.92304 -479.92539 -140.26137 -479.9687 -141.67565 C -480.09455 -145.70064 -481.58454 -148.73323 -483.85352 -150.71494 C -486.12249 -152.69665 -489.12923 -153.62503 -492.24617 -153.62503 z M -498.04318 -149.00951 C -497.4796 -149.01209 -496.93226 -148.79202 -496.52724 -148.3965 L -496.19915 -148.07613 L -496.83988 -147.41995 L -497.16615 -147.74032 C -497.40695 -147.97548 -497.76759 -148.11088 -498.10362 -148.09158 C -498.4499 -148.07168 -498.80405 -147.88429 -499.01564 -147.60945 L -499.2951 -147.24818 L -500.02126 -147.80666 L -499.74225 -148.16793 C -499.36192 -148.66193 -498.77875 -148.97007 -498.15633 -149.00587 C -498.11865 -149.00804 -498.08075 -149.00934 -498.04318 -149.00951 z M -486.49823 -148.97861 C -485.86843 -148.97769 -485.26443 -148.69963 -484.85551 -148.22064 L -484.55878 -147.87301 L -485.25585 -147.27727 L -485.55259 -147.6249 C -485.78069 -147.89208 -486.14875 -148.06381 -486.50005 -148.06432 C -486.83484 -148.06481 -487.18528 -147.91264 -487.41389 -147.66807 L -487.72653 -147.33407 L -488.39452 -147.95889 L -488.08188 -148.29289 C -487.67324 -148.73006 -487.09664 -148.97948 -486.49823 -148.97861 z M -485.73936 -146.4216 C -484.22402 -146.39492 -482.97822 -145.14397 -482.92333 -143.59966 C -482.86666 -142.00555 -484.09819 -140.63549 -485.67937 -140.58051 C -487.26055 -140.52552 -488.58597 -141.80697 -488.64263 -143.40108 C -488.6993 -144.9952 -487.46822 -146.36525 -485.88704 -146.42023 C -485.83763 -146.42195 -485.78824 -146.42246 -485.73936 -146.4216 z M -498.40535 -146.42023 C -496.82372 -146.45995 -495.51076 -145.16744 -495.46981 -143.57285 C -495.42886 -141.97825 -496.67376 -140.61977 -498.25539 -140.58005 C -499.83704 -140.54033 -501.14817 -141.83465 -501.18912 -143.42925 C -501.23007 -145.02385 -499.98699 -146.38051 -498.40535 -146.42023 z M -492.11302 -143.27793 C -489.8207 -143.24753 -487.87727 -141.54575 -487.79696 -139.33222 L -487.79696 -139.32995 C -487.78125 -138.87006 -487.84192 -138.30124 -487.96873 -137.72449 C -488.09554 -137.14774 -488.26223 -136.58277 -488.619 -136.11903 L -488.81622 -135.86546 L -489.13659 -135.85138 C -491.15108 -135.77079 -493.22077 -135.78396 -495.30258 -135.89636 L -495.62704 -135.91409 L -495.81835 -136.17583 C -496.13596 -136.60816 -496.27085 -137.11054 -496.38683 -137.62679 C -496.50284 -138.14305 -496.56803 -138.6492 -496.58223 -139.02912 L -496.58223 -139.03139 C -496.47357 -141.50484 -494.69663 -143.0934 -492.33614 -143.27521 L -492.33614 -143.27566 C -492.26152 -143.2782 -492.18697 -143.27891 -492.11302 -143.27793 z M -499.78042 -143.16206 C -499.77901 -143.15539 -499.77782 -143.14869 -499.77633 -143.14206 C -499.77782 -143.14868 -499.77901 -143.1554 -499.78042 -143.16206 z M -499.44733 -140.16789 A 1.6968153 1.6181881 87.983815 0 1 -497.77053 -138.52881 A 1.6968153 1.6181881 87.983815 0 1 -499.32827 -136.77612 A 1.6968153 1.6181881 87.983815 0 1 -501.00508 -138.4152 A 1.6968153 1.6181881 87.983815 0 1 -499.44733 -140.16789 z M -484.79417 -140.16789 A 1.6968153 1.6181881 87.983815 0 1 -483.11736 -138.52881 A 1.6968153 1.6181881 87.983815 0 1 -484.67511 -136.77612 A 1.6968153 1.6181881 87.983815 0 1 -486.35191 -138.4152 A 1.6968153 1.6181881 87.983815 0 1 -484.79417 -140.16789 z" />
          <path
             id="path9"
             stroke-linecap="square"
             stroke-width="0"
             d="M 480.30257 -161.84182 C 480.32786 -161.84312 480.3533 -161.84356 480.3789 -161.84356 C 481.19799 -161.84356 481.86524 -161.16972 481.86524 -160.29697 C 481.86524 -159.42423 481.19791 -158.7502 480.37882 -158.7502 C 479.55972 -158.7502 478.89066 -159.424 478.89065 -160.29674 C 478.89065 -160.39049 478.89886 -160.48178 478.91366 -160.57036 A 0.78475928 0.8172112 0 0 0 479.63516 -160.07436 A 0.78475928 0.8172112 0 0 0 480.41954 -160.89192 A 0.78475928 0.8172112 0 0 0 479.74788 -161.70021 C 479.91792 -161.78188 480.10524 -161.83166 480.30257 -161.84182 z"
             transform="matrix(-.9994 .03475 .03552 .99937 0 0)" />
          <path
             id="path11"
             stroke-linecap="square"
             stroke-width="0"
             d="M -494.48265 -157.51362 C -494.64256 -157.51362 -494.79644 -157.48751 -494.94093 -157.43967 A 0.7848292 0.81727343 0 0 1 -494.31007 -156.64015 A 0.7848292 0.81727343 0 0 1 -495.09472 -155.82299 A 0.7848292 0.81727343 0 0 1 -495.87175 -156.5239 C -495.93431 -156.352 -495.96878 -156.16463 -495.96878 -155.96677 C -495.96878 -155.09403 -495.3017 -154.41801 -494.48259 -154.41801 C -493.66348 -154.41801 -492.99414 -155.09387 -492.99414 -155.96661 C -492.99414 -156.83934 -493.66354 -157.51362 -494.48265 -157.51362 z"
             transform="rotate(-1.439) skewX(.032)" />
          <path
             id="path4"
             stroke-linecap="square"
             stroke-width="0"
             d="M -492.21072 -140.85543 L -493.34586 -140.60141 C -493.54076 -140.55781 -493.70917 -140.43405 -493.81073 -140.30467 C -493.91228 -140.17529 -493.96477 -140.04538 -494.00385 -139.92751 C -494.08195 -139.69179 -494.11904 -139.47929 -494.14654 -139.40811 L -494.14427 -139.41038 C -494.23957 -139.16758 -494.1476 -138.97789 -494.0802 -138.86508 C -494.0128 -138.75227 -493.93605 -138.6691 -493.85162 -138.58607 C -493.68276 -138.42001 -493.4771 -138.26221 -493.26951 -138.11347 C -492.85433 -137.816 -492.43338 -137.56453 -492.43338 -137.56453 L -492.19527 -137.42366 L -491.96079 -137.56635 C -491.96079 -137.56635 -491.54124 -137.82205 -491.12875 -138.12301 C -490.9225 -138.27349 -490.71818 -138.43416 -490.55073 -138.60152 C -490.46703 -138.68522 -490.3909 -138.76793 -490.32443 -138.88098 C -490.25793 -138.99403 -490.16731 -139.1816 -490.26354 -139.42401 C -490.29174 -139.49571 -490.32993 -139.70831 -490.41032 -139.94341 C -490.45052 -140.06096 -490.50265 -140.18992 -490.60526 -140.31831 C -490.70789 -140.4467 -490.87721 -140.56938 -491.0724 -140.61141 L -492.21072 -140.85543 z" />
          <path
             id="path10338"
             fill="none"
             fill-opacity="1"
             stroke="#000"
             stroke-linejoin="round"
             stroke-miterlimit="4"
             stroke-opacity="1"
             stroke-width="1.381"
             d="m -506.66289,-138.35461 c 9.56518,2.55164 20.5033,2.36061 28.38075,0.17513" />
        </g>
      </g>
    </g>
  </g>
</svg>
