<svg xmlns="http://www.w3.org/2000/svg" role="img" viewBox="-6.46 -4.96 569.92 248.42"><defs><style>.cls-2{fill:#fff}.cls-3{fill:#326ce5}</style></defs><path fill="#5bb8d8" d="M96.279 70.121h456.704v123.231H96.279z"/><circle cx="119.041" cy="122.838" r="76.278" class="cls-2"/><path d="M264.22274 126.64592q-1.10325-1.771-2.60043-3.82778-1.49661-2.05624-3.22565-4.14741-1.72875-2.08836-3.61842-4.0056A38.73015 38.73015 0 0 0 251 111.27742v15.3685h-8.16821V90.36029H251v13.6375q3.15024-3.30891 6.40007-6.92061 3.24984-3.61283 6.00274-6.71689h9.69319q-3.70395 4.413-7.45239 8.48278-3.74786 4.072-7.88907 8.19465a62.21384 62.21384 0 0 1 8.39951 8.61558 107.62613 107.62613 0 0 1 7.77935 10.99262zm35.62833-.94203a43.37485 43.37485 0 0 1-5.13 1.0726 42.14318 42.14318 0 0 1-6.59759.49746 15.6757 15.6757 0 0 1-5.839-.942 8.85787 8.85787 0 0 1-3.69159-2.64377 10.32351 10.32351 0 0 1-1.937-4.0585 21.80887 21.80887 0 0 1-.57569-5.184V99.10531h7.80243v14.39833a11.1479 11.1479 0 0 0 .99494 5.4451q.99266 1.6764 3.71637 1.67585.83739 0 1.78052-.07878.942-.07764 1.67471-.18345v-21.257h7.80185zm32.93399-12.82828a17.42108 17.42108 0 0 1-.969 5.96845 12.61765 12.61765 0 0 1-2.80136 4.556 12.32336 12.32336 0 0 1-4.50305 2.906 16.93675 16.93675 0 0 1-6.07312 1.02086q-1.41471 0-2.95889-.13169-1.54478-.13-3.03656-.33989-1.4925-.20934-2.85309-.49746-1.36239-.287-2.40854-.60214V87.272l7.80075-1.25715v13.71848a14.61946 14.61946 0 0 1 2.72257-.89026 13.99516 13.99516 0 0 1 3.03769-.314 12.42929 12.42929 0 0 1 5.1828 1.02082 10.16009 10.16009 0 0 1 3.77041 2.906 13.06177 13.06177 0 0 1 2.3039 4.529 20.66445 20.66445 0 0 1 .78549 5.89072zm-7.95944-.20934q0-7.53963-5.54978-7.53962a9.211 9.211 0 0 0-2.38263.314 6.74128 6.74128 0 0 0-1.91107.78558v14.189q.57568.10464 1.46649.18344.88971.07767 1.937.07878a5.608 5.608 0 0 0 4.81708-2.19925 9.56286 9.56286 0 0 0 1.62293-5.812zm12.67065.41873a16.816 16.816 0 0 1 1.12662-6.41414 13.7385 13.7385 0 0 1 2.95776-4.58186 12.30465 12.30465 0 0 1 4.21494-2.77431 13.18012 13.18012 0 0 1 4.89584-.94312 12.169 12.169 0 0 1 9.26724 3.58692q3.40353 3.58746 3.40348 10.5503 0 .682-.05176 1.49242-.054.812-.10468 1.43949h-17.69824a5.18176 5.18176 0 0 0 2.25208 3.82214 9.04227 9.04227 0 0 0 5.34045 1.41469 22.61681 22.61681 0 0 0 4.21493-.3928 15.8961 15.8961 0 0 0 3.37763-.969l1.04669 6.33535a10.7901 10.7901 0 0 1-1.67584.62806 22.03365 22.03365 0 0 1-2.32977.55033q-1.283.23466-2.74845.3928a27.54613 27.54613 0 0 1-2.933.15644 17.33776 17.33776 0 0 1-6.46591-1.09962 12.57733 12.57733 0 0 1-4.55484-3.01067 11.9424 11.9424 0 0 1-2.67081-4.529 17.926 17.926 0 0 1-.86436-5.65442zm18.32626-2.98483a8.07923 8.07923 0 0 0-.33987-1.937 4.86977 4.86977 0 0 0-.89026-1.67585 4.7527 4.7527 0 0 0-1.51828-1.20426 4.95181 4.95181 0 0 0-2.278-.47156 5.23775 5.23775 0 0 0-2.251.44569 4.6535 4.6535 0 0 0-1.5712 1.17838 5.278 5.278 0 0 0-.969 1.70173 11.12557 11.12557 0 0 0-.49747 1.96284zm30.15847-4.08439q-1.04836-.26-2.46142-.54924a15.25242 15.25242 0 0 0-3.03656-.28811 14.16629 14.16629 0 0 0-1.75351.13054 10.39644 10.39644 0 0 0-1.54529.28813v21.04883h-7.80078v-26.07524a47.169 47.169 0 0 1 4.94763-1.38772 28.55041 28.55041 0 0 1 6.36124-.6539q.628 0 1.51828.07877c.59314.05178 1.18624.12267 1.78051.20933q.88971.13171 1.78052.314a8.42687 8.42687 0 0 1 1.51828.44457zm5.498-5.96843a43.55794 43.55794 0 0 1 5.13113-1.07373 42.24335 42.24335 0 0 1 6.59647-.49746 16.09637 16.09637 0 0 1 5.839.91616 8.78588 8.78588 0 0 1 3.69046 2.592 10.12865 10.12865 0 0 1 1.93808 3.97972 21.18091 21.18091 0 0 1 .5751 5.13108V126.646h-7.80072v-14.60888q0-3.76977-.99493-5.34042-.996-1.57-3.71747-1.57005-.839 0-1.78052.07766-.942.07932-1.67587.18344v21.25817H391.479zm29.52939 13.03765a16.81562 16.81562 0 0 1 1.12661-6.41414 13.73837 13.73837 0 0 1 2.95777-4.58186 12.30471 12.30471 0 0 1 4.21493-2.77431 13.18044 13.18044 0 0 1 4.89588-.94312 12.16906 12.16906 0 0 1 9.26727 3.58692q3.40347 3.58746 3.40347 10.5503 0 .682-.05179 1.49242-.0541.812-.10467 1.43949h-17.69827a5.18163 5.18163 0 0 0 2.25207 3.82214 9.04231 9.04231 0 0 0 5.34042 1.41473 22.61692 22.61692 0 0 0 4.21494-.3928 15.89625 15.89625 0 0 0 3.37756-.969l1.04666 6.33527a10.78943 10.78943 0 0 1-1.67587.62806 22.02638 22.02638 0 0 1-2.32974.55032q-1.283.23468-2.74844.3928a27.54369 27.54369 0 0 1-2.933.15644 17.33715 17.33715 0 0 1-6.46591-1.09961 12.5771 12.5771 0 0 1-4.55484-3.01068 11.94231 11.94231 0 0 1-2.67078-4.529 17.92563 17.92563 0 0 1-.86427-5.65437zm18.32626-2.98483a8.07924 8.07924 0 0 0-.33988-1.937 4.86992 4.86992 0 0 0-.89025-1.67585 4.75281 4.75281 0 0 0-1.51828-1.20426 4.952 4.952 0 0 0-2.278-.47156 5.2376 5.2376 0 0 0-2.251.44569 4.65346 4.65346 0 0 0-1.57119 1.17838 5.27791 5.27791 0 0 0-.969 1.70173 11.12555 11.12555 0 0 0-.49746 1.96284zm13.29986-17.85471l7.80185-1.256v8.11588h9.37189v6.4918h-9.37189v9.687a7.71182 7.71182 0 0 0 .86329 3.92682q.86439 1.467 3.48223 1.4665a14.86893 14.86893 0 0 0 2.592-.23635 13.3039 13.3039 0 0 0 2.43442-.6539l1.09964 6.07311a22.05766 22.05766 0 0 1-3.14123.99492 18.323 18.323 0 0 1-4.242.4187 13.97214 13.97214 0 0 1-5.2875-.86325 8.30172 8.30172 0 0 1-3.35169-2.40854 8.96263 8.96263 0 0 1-1.75351-3.74448 22.06231 22.06231 0 0 1-.49746-4.86884zm21.15235 20.83954a16.81544 16.81544 0 0 1 1.12662-6.41414 13.73835 13.73835 0 0 1 2.95776-4.58186 12.30465 12.30465 0 0 1 4.21494-2.77431 13.18039 13.18039 0 0 1 4.89587-.94312 12.16907 12.16907 0 0 1 9.26724 3.58692q3.40347 3.58746 3.40347 10.5503 0 .682-.05178 1.49242-.054.812-.10468 1.43949h-17.69824a5.18163 5.18163 0 0 0 2.25207 3.82214 9.04232 9.04232 0 0 0 5.34043 1.41473 22.61689 22.61689 0 0 0 4.21493-.3928 15.89617 15.89617 0 0 0 3.37757-.969l1.04672 6.33535a10.78943 10.78943 0 0 1-1.67587.62806 22.03212 22.03212 0 0 1-2.32975.55033q-1.28305.23466-2.74844.3928a27.54613 27.54613 0 0 1-2.933.15644 17.33764 17.33764 0 0 1-6.46592-1.09962 12.57729 12.57729 0 0 1-4.55484-3.01067 11.94244 11.94244 0 0 1-2.67077-4.529 17.92507 17.92507 0 0 1-.86433-5.65446zm18.32626-2.98483a8.08268 8.08268 0 0 0-.33987-1.937 4.86977 4.86977 0 0 0-.89026-1.67585 4.75281 4.75281 0 0 0-1.51828-1.20426 4.952 4.952 0 0 0-2.278-.47156 5.23759 5.23759 0 0 0-2.251.44569 4.6534 4.6534 0 0 0-1.5712 1.17838 5.2777 5.2777 0 0 0-.969 1.70173 11.12557 11.12557 0 0 0-.49747 1.96284zm21.4664 10.94309a7.77634 7.77634 0 0 0 3.03772-.41867 1.617 1.617 0 0 0 .8891-1.623 1.98984 1.98984 0 0 0-1.15137-1.64994 22.04718 22.04718 0 0 0-3.50811-1.59706 35.295 35.295 0 0 1-3.32468-1.41365 9.75073 9.75073 0 0 1-2.53909-1.75351 7.08807 7.08807 0 0 1-1.62409-2.43442 9.01975 9.01975 0 0 1-.57513-3.40347 7.359 7.359 0 0 1 2.879-6.126 12.53262 12.53262 0 0 1 7.90652-2.2521 25.41134 25.41134 0 0 1 4.81708.44568 22.65043 22.65043 0 0 1 3.66571.96792l-1.36188 6.07424a28.77171 28.77171 0 0 0-2.95776-.83735 16.09739 16.09739 0 0 0-3.58692-.3669q-3.66513 0-3.66571 2.04162a2.11455 2.11455 0 0 0 .15753.8385 1.79137 1.79137 0 0 0 .62806.70683 8.81485 8.81485 0 0 0 1.28308.73607q.81042.39674 2.06866.87a32.08626 32.08626 0 0 1 4.24085 1.87507 10.129 10.129 0 0 1 2.64373 1.99436 6.16556 6.16556 0 0 1 1.36188 2.377 10.57631 10.57631 0 0 1 .39276 3.02983 6.984 6.984 0 0 1-3.0636 6.16542q-3.06243 2.08835-8.6651 2.0889A24.47352 24.47352 0 0 1 504.05 125.704l1.30893-6.33648a25.43745 25.43745 0 0 0 4.08438 1.23128 19.8267 19.8267 0 0 0 4.13621.44446z" class="cls-2"/><path d="M230.63947 139.70233a6.564 6.564 0 0 0-1.19051-.23828l-.00012-.00006c-.56116-.11353-1.36341-.31207-1.913-.398a55.24277 55.24277 0 0 0-6.2818-.33606 61.15993 61.15993 0 0 1-11.77954-1.608 7.354 7.354 0 0 1-2.89612-2.7622l-2.66058-.69721a84.98571 84.98571 0 0 0-15.204-58.47718c.65893-.63171 1.908-1.7987 2.25993-2.14148a5.17362 5.17362 0 0 1 1.1272-3.73577 61.20836 61.20836 0 0 1 9.54028-7.09424 54.3842 54.3842 0 0 0 5.34772-3.31616c.413-.32428.97589-.83558 1.4079-1.20074a6.5742 6.5742 0 1 0-8.4184-10.00538c-.43671.36371-1.03149.84174-1.41888 1.19642a54.25569 54.25569 0 0 0-4.19758 4.68664 61.26575 61.26575 0 0 1-8.60009 8.21307 7.26766 7.26766 0 0 1-3.95441.53761l-2.44012 1.844a85.71744 85.71744 0 0 0-54.9795-24.76056c-.08386-.86749-.20062-2.43945-.2367-2.91443a5.18271 5.18271 0 0 1-2.22143-3.21136 61.27374 61.27374 0 0 1 .42077-11.88086 54.42458 54.42458 0 0 0 .72327-6.2395c.00592-.52728-.04571-1.29175-.061-1.86035a6.5742 6.5742 0 1 0-13.07685.35876c.00171.062.01721.12042.02045.18237.00842.54242-.00024 1.2.0296 1.67359a54.98143 54.98143 0 0 0 1.06 6.1961 61.17833 61.17833 0 0 1 1.04779 11.83814 7.12989 7.12989 0 0 1-2.03131 3.43762l-.08026 2.77117a85.30688 85.30688 0 0 0-11.77161 2.13593A84.13669 84.13669 0 0 0 56.15015 67.454q-1.215-.79047-2.40931-1.61249a5.16526 5.16526 0 0 1-3.89245-.27178 61.03575 61.03575 0 0 1-9.02985-7.72693 54.63381 54.63381 0 0 0-4.42541-4.45422c-.40735-.33014-1.02869-.77844-1.48444-1.12121a7.79536 7.79536 0 0 0-4.60419-1.59675 6.30128 6.30128 0 0 0-5.14788 2.44727 6.93219 6.93219 0 0 0 1.868 9.59589l.1026.06854c.437.33862.97583.77215 1.38025 1.05115a54.62578 54.62578 0 0 0 5.50628 3.02667 61.015 61.015 0 0 1 9.90725 6.57309 7.26834 7.26834 0 0 1 1.417 3.73535l2.14344 1.815a84.63885 84.63885 0 0 0-11.7503 59.34342l-2.716.87011a9.04294 9.04294 0 0 1-2.734 2.90619 61.04651 61.04651 0 0 1-11.66785 2.24787 54.64652 54.64652 0 0 0-6.25922.67413c-.49938.10651-1.19177.30188-1.735.453l-.057.014-.09216.0304a6.56489 6.56489 0 1 0 3.24823 12.66253l.09723-.01813c.04309-.01048.07971-.0332.12286-.042.53583-.13691 1.21088-.28534 1.68152-.42676a55.15353 55.15353 0 0 0 5.80475-2.40607 61.25865 61.25865 0 0 1 11.30878-3.66137 7.25259 7.25259 0 0 1 3.79419 1.22637l2.83746-.56488a85.1174 85.1174 0 0 0 38.97729 46.05976l-1.1145 2.88269a6.49006 6.49006 0 0 1 .68373 3.68225 63.89654 63.89654 0 0 1-5.63135 10.79346 54.52989 54.52989 0 0 0-3.365 5.31848c-.247.49963-.55664 1.263-.79218 1.78564a6.568 6.568 0 1 0 11.95771 5.28369l.01049-.01263-.00036-.0155c.23407-.518.56763-1.19825.76391-1.68262a54.08565 54.08565 0 0 0 1.72533-6.04337 45.74447 45.74447 0 0 1 4.74621-11.88269 5.31571 5.31571 0 0 1 2.781-1.45172l1.4104-2.7201a84.64458 84.64458 0 0 0 60.34027-1.47326c.43518.72937 1.248 2.12445 1.4621 2.4768a5.16872 5.16872 0 0 1 3.39331 1.93952 60.917 60.917 0 0 1 4.786 10.87225 54.67371 54.67371 0 0 0 2.05939 5.94122c.22528.47768.58913 1.14844.8539 1.65448a6.57112 6.57112 0 1 0 11.67-5.90672c-.26331-.50915-.62757-1.25439-.89954-1.73694a54.32639 54.32639 0 0 0-3.64636-5.11706 61.01911 61.01911 0 0 1-6.077-10.22357 5.13628 5.13628 0 0 1 .398-3.8711 22.499 22.499 0 0 1-1.16022-2.609 85.11426 85.11426 0 0 0 36.41131-48.43012c.84955.112 2.32978.32941 2.8111.41413a5.17153 5.17153 0 0 1 3.61957-1.45728 61.18065 61.18065 0 0 1 11.49274 3.04669 54.44539 54.44539 0 0 0 5.9295 2.10675c.47583.11121 1.153.21082 1.69836.3155.04529.01116.08612.03021.12976.03991l.09333.01142a6.56492 6.56492 0 0 0 3.77113-12.57662l-.01466-.00438zM119.28723 193.3761a68.90953 68.90953 0 1 1 .00005 0z" class="cls-3"/><path d="M94.22082 196.43422a5.00744 5.00744 0 0 1 1.76967-1.53194c.383-.24351.61232.1731.82808.3783a2.57994 2.57994 0 0 1 .53552 1.15365zm-14.21111-1.09013a.59936.59936 0 0 0 .39475-.595 1.82921 1.82921 0 0 1 1.28328 1.68511h-1.56662c.5559-.69643-.32673-.41435-.463-.63274zm37.01087-68.96768c.01455-.17557-.08747-.45177.17186-.49338.21321-.03423.294.20388.38893.37664m.9672-1.82736c.00137-.2412-.12248-.34725-.34832-.38694-.25764-.04529-.28378-.243-.244-.45061.076-.39669.51258-.2246.72994-.44174.11659-.11648.254.08513.269.2529.03808.42522.34354.6045.6655.81444.91355.59568.87407 1.32706.17842 1.7923-.50177.33558-.381 1.02282.28025 1.41253.83893.49442 1.65729 1.13476 2.74569.83891.38225-.1039.58306.23144.8658.35957.5576.25269 1.20957.3386 1.48894 1.06046.15384.3975.7644.43373 1.07864.43838a5.32658 5.32658 0 0 1 2.39492.86615.823.823 0 0 0 .8704-.01486 1.386 1.386 0 0 0 .52588-1.88823l-.01312-.02276a.396.396 0 0 1-.086-.42209 2.451 2.451 0 0 1 1.28891-1.0149 1.29 1.29 0 0 1 1.58508.50565c.32521.46124.89266.13248 1.344.22327.37527.07548.82625-.18869 1.03642.37309.0544.14538.2131.10077.33574.0255.62691-.38474 1.24361-.02277 1.855-.023a7.74715 7.74715 0 0 0 2.089.05.95144.95144 0 0 0 .46384-.34314c.53439-.71864 1.24769-.69875 2.05549-.676a3.09324 3.09324 0 0 0 2.40743-.77743c.155-.157.28729-.34761.54162-.2845.25351.06292.22243.288.23442.47976.00893.14274.04868.28064.21613.26023.27-.03292-.004-.21125.05373-.27674.36839-.41822.245-.82039.07347-1.29094-.13912-.38156-.62061-.03252-.63886-.37086-.01608-.2981.43425-.23043.539-.49763a.26758.26758 0 0 0-.10043-.33834c-.19025-.16294-.25459.00981-.34.13456-.05917.0864-.1255.21-.251.12642-.0535-.03566-.09709-.20121-.0745-.21926.59664-.47665.10825-1.11559.24771-1.66719a2.83923 2.83923 0 0 0-.38664-1.858.63222.63222 0 0 1 .01647-.72168c.27349-.366-.07988-.58433-.28148-.7458-.2217-.17757-.41677-.06206-.50376.25827-.0771.28392-.27856.16657-.45118.041-.19939-.145-.38282-.17334-.54575.07766-.862 1.328-1.0155 1.41475-2.44556.783-.67036-.29614-.98649-.151-1.23924.472-.06875.16948-.208.31119-.26971.50238-.0528.16371-.27335.23916-.36338.095-.50276-.80507-1.34437-.85578-2.14169-1.00888-.28181-.05412-.336-.15812-.13429-.37854.12179-.13318.13223-.30089-.03175-.39074-.51619-.28286-.52155-.82534-.5877-1.279a.59585.59585 0 0 0-.65565-.59609c.04008-.54412.324-.642.80737-.70487.71433-.09289 1.6721-.15107 1.95718-.81935.3496-.81948 1.29148-.59552 1.63257-1.26407.06034-.11827.214-.21163.23813-.36563a.4281.4281 0 0 1 .55921-.39064c.37565.06153.65829-.19288.98414-.285.85813-.24257 1.6259.24832 2.46059.19647.72024-.04473 1.485.24631 2.06189-.44487.04861-.05822.18342-.126.21838-.102.66492.45552.84891-.32174 1.14873-.54192.57738-.424.26636-1.89959-.40836-2.25757-.34881-.18506-.66716-.53324-1.184-.21341-.12772.079-.57442-.3753-.88425-.56878a3.01431 3.01431 0 0 0-1.82237-.618c-.24555.01764-.24794-.10479-.17255-.28115.1095-.25615.2013-.52134.32909-.768.31851-.6148-.1646-1.32158.2382-1.93354.083-.126-.03233-.3039-.2178-.32673-.17757-.02188-.37549-.01471-.37009.23841.00856.401-.18185.49193-.53724.3967a.36511.36511 0 0 0-.35709.10823 3.32352 3.32352 0 0 1-1.336.91812c-.48906.15509-.56428.83339-.537 1.30089.0227.38916.4288.66664.96736.81336-.50131.12774-.60977.53968-.90449.88842-.10781-.33509-.12516-.64105-.45415-.78862-.27254-.12224-.48322-.33737-.06322-.594a.23783.23783 0 0 0 .05933-.39119c-.12946-.13128-.2354-.334-.485-.22644-.18958.08171-.35782.27269-.65009.10385.46423-.3424 1.06162-.55625 1.04349-1.273-.00443-.175.24316-.12339.38685-.14591.46615-.07306.52106-.36257.31121-.70352a1.30774 1.30774 0 0 1-.30606-.93386c.05-.29256-.17792-.24092-.33687-.2445a2.39915 2.39915 0 0 1-1.92142-.64347.28342.28342 0 0 0-.39758-.05086l-.01065.00866a.75533.75533 0 0 1-.43421.10668c-.18014.00155-.391-.37776-.5299-.00287-.1229.33156.19584.35779.406.45914a2.94684 2.94684 0 0 0 1.58455.45c.42577-.03727.76714.35353 1.20551.43889.18028.03511.19207.4373-.09714.45949-.50588.03881-.48636.28369-.47794.68565a.81738.81738 0 0 1-1.09724.74556c-.24838-.07758-.36575.0363-.57669.20565a8.16431 8.16431 0 0 0-1.01525 1.37085c-.26777.31681.00666.48024.12832.67414.24639.39277.16474.57332-.30184.5367-.38244-.03-.60769-.00946-.382.48247.17383.37882-.068.8672.25139 1.23426-.46706.25417-.3371.79576-.56148 1.1655-.31828.52449-.151 1.06516.45221 1.15644.37408.05658.18507.31491.30144.44731.21226.24151-.038.21653-.16222.26361-.03986.01509-.09576.03136-.11047.06288-.50434 1.08075-1.389.4283-2.12952.51675a2.3763 2.3763 0 0 0-1.391.60669c-.12136.12033-.22337.35019-.39262.251-.21288-.12481-.41783-.24785-.547.00128a.86966.86966 0 0 0 .03461.933c.34711.36829.5481.62529.23276 1.15013-.17441.29026.487.31556.48411.67323l.00759-.008c-.2813-.01-.56261-.02775-.84392-.02819-.34625-.00052-.71288.066-.74449-.46208-.00913-.15243-.16564-.24639-.31793-.29557-.04091-.0132-.08773-.0095-.12743-.02488-.44872-.174-1.42154-1.48961-1.31886-1.92566.22918-.97325-.487-1.35788-1.05748-1.822-.19307-.15709-.30964-.28019-.27588-.5225l.037-.032-.022-.02323-.03279.03674a1.05187 1.05187 0 0 1-1.16928-.48873c-.22278-.32386-.47316-.67945-1.00525-.30294-.2426.17168-.366-.17279-.3973-.41869-.0234-.184.04329-.39157-.2072-.49552-.49733-.20642-.76442-.50455-.33474-1.023a.22573.22573 0 0 0 .0336-.29769c-.09613-.11345-.23689-.073-.366-.04484-.81359.17746-.95042.08723-1.04737-.73825-.01687-.14351-.02115-.27777-.17766-.28559-.1641-.00824-.11109.13616-.11611.24025a.66928.66928 0 0 1-.52244.64812.86158.86158 0 0 0-.6109.89589 1.73362 1.73362 0 0 0 1.16687 1.95352c.27115.12657.49514.259.54966.57287.14753.84963.67859 1.18839 1.42977 1.57151a8.29179 8.29179 0 0 1 1.97181 1.09932c-.48457.21076-.91745.39759-.80857 1.01766a1.12175 1.12175 0 0 0 .31516.61316c.08249.08761.23833.17421.105.31612a.26892.26892 0 0 1-.40613-.01954.65246.65246 0 0 1-.15853-.204 5.80205 5.80205 0 0 0-1.94892-1.99588c-.865-.69664-1.94117-1.03785-2.73253-1.81262a1.854 1.854 0 0 1-.59426-1.04466 2.15326 2.15326 0 0 0-1.88057-1.4462.32457.32457 0 0 0-.2916.21959c-.287.69121-.98818.90581-1.54781 1.21274a1.69651 1.69651 0 0 1-1.70565-.29773.98373.98373 0 0 0-1.56163.54312.82481.82481 0 0 0-.07618.24134 1.55161 1.55161 0 0 1-1.40713 1.68373l-.0536.00386a.98942.98942 0 0 0-1.01229.71083 1.39005 1.39005 0 0 1-.58648.74282.71453.71453 0 0 0-.35563.65914 2.89021 2.89021 0 0 1-.24756.956c-.24409.93377-1.26394 1.01007-1.69733 1.699a.18119.18119 0 0 1-.16255.05137c-.89647-.29245-1.72986.36434-2.61853.17163-.06242-.01355-.15187-.0307-.19209.00074-.74238.58023-.794-.123-.95318-.53477a1.48784 1.48784 0 0 0-.5146-.79411c-.22895-.14952-.40956-.52041-.75444-.06022-.1401.187-.54663.14065-.75455-.12307a.54236.54236 0 0 1 .01551-.81272.65411.65411 0 0 0 .13713-.99849c-.44134-.71566.19864-1.23375.47785-1.77018a2.38592 2.38592 0 0 0 .33218-1.52082.34411.34411 0 0 1 .14853-.33683.63126.63126 0 0 0 .16555-.76464c-.08182-.26664-.16252-.50714.12515-.685.29257-.18083.62109-.42684.9526-.22988a1.065 1.065 0 0 0 .91165.11978.47929.47929 0 0 1 .37706.04538c.98926.81373 2.25276.60213 3.3758.90757a.809.809 0 0 0 .97174-.92939 1.0159 1.0159 0 0 1 .47534-1.03833.70146.70146 0 0 0 .25937-.68164c-.0328-.3751-.38633-.69516-.19355-1.11319.00978-.0212-.03292-.09467-.061-.10118-.82094-.19008-.577-.67009-.33081-1.16555.05555-.11178-.04345-.21656-.14773-.25345-.43856-.15514-.69278-.58467-1.11866-.74738-.20809-.07951-.32183-.18877-.16179-.37036.13922-.158.3314-.514.554-.24769.34976.41851.87046.04959 1.22387.37182.09493.08655.2052-.09111.21885-.23559.04814-.50976.389-.54687.8-.51789.32515.02294.71167.16045.83776-.35411.04186-.17085.25057-.12934.39824-.14973.34188-.0472.58643-.24133.57489-.58812-.01844-.55428.41-.62531.755-.69583.59272-.12111.60067-.08222.697-.651a2.28762 2.28762 0 0 0 .60936.17436c.32493.00126.72925.01426.40117-.53768-.20076-.33771-.11454-.57427.3486-.58a.589.589 0 0 0 .61061-.48519c.02338-.87289.5485-.58905.95185-.42372.25147.10309.30446.04216.36424-.15609q.12285-.04256.24588-.08554a.76185.76185 0 0 0 .61683.055.381.381 0 0 0 .389-.26744c.16345.05153.36818.14747.46049-.04982.09127-.195-.191-.18617-.26117-.30928-.074-.12986-.15158-.25766-.2274-.3862.03372-.06624.06358-.22174.14637-.13321.2478.265.60533.32286.88336.52218.512.46762.89785-.13453 1.35163-.15922q.12449.007.2493.01345c.64984.38987 1.25849.76249 1.889-.10829a2.30316 2.30316 0 0 1 .86765-.507c.41475-.17386.807-.495 1.24231.06106.14581.18622.66728.50658.78738-.181.01014-.058.05375-.1457.098-.15711 1.36694-.35293.82988-1.29328.69146-2.1401a2.20232 2.20232 0 0 1 .14045-1.2982c.18618-.40713.392-.39949.67668-.13014.14158.13391.27343.2788.4212.40531.1767.15126.35758.238.56882.02783a.4302.4302 0 0 0 .12431-.56311c-.24074-.5498.006-.87979.5995-.87146l.01877.014-.01307-.01944c-.28733-.2901-.71114-.312-1.04593-.534a.587.587 0 0 1-.26325-.53386c-.02446-.283.23252-.20246.379-.19908a.58009.58009 0 0 0 .52946-.302c.10117-.14751.25168-.27578.43125-.116.11922.106.32237.09029.295.40586-.051.5876.61523.82241.8283 1.30623.0089.02021.16141-.00325.23447-.03511a.22313.22313 0 0 0 .12247-.3212 3.77875 3.77875 0 0 0-.32375-.62962c-.49232-.69446-.23582-1.24726.64087-1.36818a1.71354 1.71354 0 0 0 .35607-.1317c.14082-.02639.2951-.01484.40414-.13694.514-.19925.93346-.48619.84946-1.121-.09-.67972-.658-.88551-1.19419-1.00263-.76219-.16648-1.04635-.39459-1.18559-1.17267-.05366-.29985-.12843-.668-.49242-.666-.25373.00141-.73431-.24314-.74273.39283-.00278.20934-.23217.05969-.3619.0032-.20794-.09059-.34056-.46029-.59017-.29879-.28934.18718.142.4487.041.69394-.00788.01911-.01276.03946-.02532.0791-.21908.09681-.51179-.28054-.681.03515-.14457.26976.17059.40477.28226.60051a.33886.33886 0 0 1 .04765.23574c-.0314.10041-.15028.094-.21994.0503-.525-.32933-.47262.44159-.82743.429.092.3-.00013.65351.23869.9038.0508.05325.20273.01.30794.01143q.20592-.14361.41212-.28766a.764.764 0 0 1 .4633.5289.32112.32112 0 0 0 .01694.42025c.04207.41341-.25427.379-.516.39011a.20263.20263 0 0 0-.27728-.02206c-.37993-.29186-.98877-.08258-1.25471-.40367-.25035-.3023.02992-.86245-.24918-1.26255a1.855 1.855 0 0 1-.24319-.52558c-.05982-.20007-.16448-.45094.09576-.58118.46875-.23457.52086-.73062.64066-1.12323a1.72726 1.72726 0 0 1 .56219-.9019c.69887-.46114.16667-.81871-.07117-1.07563a1.36687 1.36687 0 0 0-1.92273-.04567 1.61473 1.61473 0 0 0-.13173 1.08255 1.45593 1.45593 0 0 1-.52762 1.26806c-.40811.46424-1.28788.83211-1.09243 1.7733a5.54845 5.54845 0 0 1 .00084 1.36631c-.02646.5521.16558.93463.74852 1.01368.367.04976.35633.23677.2398.50109a1.64921 1.64921 0 0 1-.78971.92012c-.50981.19538-.39017.45159-.26358.79084a2.58074 2.58074 0 0 1 .0326 1.65026c-.09887.349-.27852.60041-.6532.61576a.72507.72507 0 0 0-.71408.55088c-.04536.12761-.02739.36485-.24209.315a.42767.42767 0 0 1-.35-.419 2.996 2.996 0 0 0-.71166-1.8928c-.25551-.3863-.068-.67187.424-.66481.29911.00428.77574-.33162.789.37271.003.16085.25817.1381.372.01583a4.00829 4.00829 0 0 0 .22886-.3873c.22723-.311.1537-.7236-.11688-.7774-.499-.09922-.38957-1.47573-1.32262-.59464-.31926.30149-.5397.05065-.526-.63336-.27376.06426-.13505.40454-.34326.49993q-.17027-.051-.33979-.10055l.00125-.26342c.12815-.03978.2019-.13447.06955-.215a.24708.24708 0 0 0-.40212.15742.37146.37146 0 0 0-.12987.35734l-.00183.18772a4.51488 4.51488 0 0 1-1.17882 1.07438c-.2946.20626-.61413.40055-.96692-.0256-.15-.18115-.17135-.27169-.0598-.41887.26109-.34456.1583-.72274.187-1.1055a4.069 4.069 0 0 1 .51368-1.30168.5247.5247 0 0 0 .06686-.4297.75717.75717 0 0 1 .48646-1.143.42.42 0 0 0 .28466-.45623c-.01886-.50634.23751-.62384.70009-.578a.81315.81315 0 0 0 .91818-.69237l.00326-.0263a10.66233 10.66233 0 0 1 .95379-2.31179c.25094-.4688.61551-.82814.829-1.258a4.90831 4.90831 0 0 0 .85582-1.79974c.00833-.12.19265-.33635.27217-.32609.85743.1107 1.13342-.644 1.60912-1.07421a2.40191 2.40191 0 0 1 2.09527-.14263c.14712.124.12411.20655.00789.30438-.14987.1262-.11882.32039-.19438.47394a.36385.36385 0 0 0 .18145.5432.48453.48453 0 0 0 .64753-.22411l.01139-.02528c.14912-.32583.09765-.77137.455-.96656.37626-.20552.66522.20938 1.031.24646a1.53181 1.53181 0 0 0 .69542-.04992c.68549-.28235 1.23308.06414 1.85427.2314a6.82913 6.82913 0 0 1 1.43377.54863c.2618.13723.42411.27462.32743.5186-.10331.26068.0993.668-.41426.76441a5.6881 5.6881 0 0 1-3.087-.20858c-.154-.05681-.31944-.09922-.41457.044a.261.261 0 0 0 .1693.41171c.54465.14473.76332.91158 1.46846.75106.12569-.02861.12129.14885.16.24383a3.48011 3.48011 0 0 0 .72257 1.2892c.13663.13078.05621.293.07771.424a7.1469 7.1469 0 0 0 .336 1.70059 6.31371 6.31371 0 0 0 .90231 1.11423c.24707.28731.52056.5931.904.31828.41386-.29664.307-.66694-.0416-.977a2.37565 2.37565 0 0 1-.47581-.77077c-.11327-.22412-.21378-.42621-.49454-.4572-.10728-.01184-.29388-.07352-.26193-.13725.30276-.60385-.46535-.58837-.56267-.95195.2112-.14354.33216.00821.48694.078a.73261.73261 0 0 0 1.0883-.69893c.02135-.35636.23554-.58548.604-.426a1.80145 1.80145 0 0 0 .61987.15126 1.33825 1.33825 0 0 0 1.28825.98194 2.31434 2.31434 0 0 0 1.46871.3447c.14532.01.34138.02714.37959-.15809.04694-.2275-.17975-.30323-.32652-.32666-.45719-.073-.92156-.101-1.38313-.14646-.3015-.40117-.83492-.54808-1.093-.99688a.42661.42661 0 0 0-.361-.32708c-.558-.06778-1.07075-.231-.94269-.94316.12927-.719.41732-.84662 1.346-.68712-.04795-.20958-.103-.40673-.13639-.60749-.04092-.24564-.05409-.44133.29653-.52131.38043-.08679.5511-.30857.5155-.805a4.14771 4.14771 0 0 1 .398-1.46256c.04288-.12912.205-.14775.34017-.13671a.23943.23943 0 0 1 .23245.2462l-.001.01651a.96731.96731 0 0 0 .43671.76793 3.59045 3.59045 0 0 1 1.024 1.22465c.10745.19388.25383.50553.52732.38581.29362-.12855.75764-.2369.72358-.64563-.06712-.80568.25365-.8625.9202-.4795-.12112-.44349-.31592-.71006-.67833-.79145-.20148-.04524-.39864-.269-.64462.00107a.46685.46685 0 0 0-.06792.62706.495.495 0 0 1-.11792.62972c-.26338.15893-.40353-.07531-.55926-.27851-.22779-.29725-.36522-.7034-.82236-.77678-.06461-.01037-.1554-.17289-.14932-.259a3.96291 3.96291 0 0 1 .61622-2.232c.12419-.16446.23252-.04516.31618.04238.18585.19453.33462.15673.473-.0474.12527-.18483.23005-.33484.0057-.56255-.19838-.20135-.59556-.39032-.32069-.79367.21529-.31591.47746-.32833.88069-.2976a5.705 5.705 0 0 1 1.71542.03283c.12882.04808.23659-.08432.2847-.216a.32574.32574 0 0 0-.18092-.42365l-.01345-.00507a3.938 3.938 0 0 0-1.313-.61166c-.66079-.04844-.99145-.58-1.52621-.77722-.13155-.0485-.26348-.08969-.26958-.30654-.0098-.34862-.29216-.56757-.5262-.78022-.19665-.17868-.48686-.31948-.24711-.61517.25311-.31218.53866-.17851.78335.06265a21.31045 21.31045 0 0 0 2.99741 1.89337c.36071.25426.86833.39088 1.2602.66852a.92012.92012 0 0 1 .20891 1.48977c-.63955.835-.54458 1.36514.18566 2.15613.51822.56133 1.34211.75683 1.711 1.43818a2.0377 2.0377 0 0 0 2.05293 1.12783c.73161-.01291 1.42355.36683 2.20155.29554.40025-.03669.49.52272.60352.84259.21655.6101.83653.91124 1.05107 1.50835a.204.204 0 0 0 .3181.11027.2328.2328 0 0 0 .00726-.35255c-.72969-.61734-.80859-1.69388-1.64967-2.25134-.59191-.39231-.53082-.79243.10737-1.1782a1.36789 1.36789 0 0 0 .42495-.281 2.65616 2.65616 0 0 1 2.58546-.76264.96993.96993 0 0 0 .50423-.00924 5.10131 5.10131 0 0 1 2.72053-.10266c.27454.02633.61875.04641.767.39969a.20961.20961 0 0 0 .37073.0707c.19752-.18827-.02814-.25885-.126-.33365a4.20818 4.20818 0 0 0-3.98222-.50528c-.44437.13148-.78672-.16282-1.22837-.12622a5.43343 5.43343 0 0 0-1.07875.24828 5.18023 5.18023 0 0 0-2.33274 2.03274l-.11336.121a5.36842 5.36842 0 0 0-1.808-.289.648.648 0 0 1-.64166-.34512 3.93535 3.93535 0 0 0-1.47779-1.356 1.90156 1.90156 0 0 1-1.07039-1.34549.905.905 0 0 0 .76581-.548c.866-.65829.8662-.9356.255-1.823a2.2054 2.2054 0 0 0-1.0945-1.01779c-.11566-.0379-.26122-.14045-.19547-.28777.09128-.20449.29245-.1635.45014-.09434a2.79032 2.79032 0 0 0 1.07858.39285c.20839.00416.35671-.04659.4251-.2091a.2976.2976 0 0 0-.247-.38506c-.72032.05631-1.24531-.60613-1.98367-.50318-.195.02719-.345.06059-.4278.20648-.33619.59234-.67393.222-.9891.00057-.20992-.14747-.35256-.45435-.57237-.51277-.83834-.2228-.40238-.41622-.03054-.67463.13155-.09142.4756-.0847.33492-.36828a.45832.45832 0 0 0-.65311-.24326.32877.32877 0 0 1-.33932.04868c-.01354-.20046-.10712-.531.132-.59117a1.52368 1.52368 0 0 1 1.28606.07955 1.7794 1.7794 0 0 0 1.71591.31862 2.23621 2.23621 0 0 1 2.1279.30271 1.54592 1.54592 0 0 0 1.05726.25336c.00632.15225.05666.27191.22417.30607l.03345.04051c.07507.216.1642.24684.27283.02072l.2529-.00576c.03315.12742.14538.1119.2376.15535.41561.1958.946.048 1.2912.44892a3.05148 3.05148 0 0 0 1.59731.894l.022.0254c.08713.32016.2723.28753.49042.13626l.28812-.00015c.11441.131.28361.07227.42045.1222.17513.06389.35129.10737.42461-.11849.07233-.22284-.06976-.36975-.25043-.46509a.35206.35206 0 0 0-.467.06867l-.79456.00682c-.562-.50963-1.299-.77433-1.83968-1.31389l.03415-.0344c.49038.15506.98458.29 1.32285-.26435.09448-.15487.18756-.4747-.13226-.40573a7.23 7.23 0 0 1-1.861-.06827 1.26458 1.26458 0 0 1-1.3099.47169c-.02814-.16067-.11289-.23607-.2807-.18644-.61737-.073-1.07285-.53492-1.66013-.68678-.67285-.174-1.24229-.627-2.06593-.33832a2.07971 2.07971 0 0 1-1.50592-.45894 1.74857 1.74857 0 0 0-1.40129-.19113c-.75963.11228-1.00537-.12916-.81269-.84747a.76715.76715 0 0 0-.541-1.06733c-.81642-.21283-1.11462-.90709-1.54066-1.492a.36363.36363 0 0 1-.02623-.36674.96111.96111 0 0 0-.83524-1.39391.967.967 0 0 1-.31335-.08033c-.17734-.10219-.48421-.12035-.45966-.38708.02077-.22561.3288-.23634.47765-.24546.5126-.03148.61418-.20063.32486-.62481a.24587.24587 0 0 1 .01709-.30346 2.571 2.571 0 0 1 1.46742.00323 30.73638 30.73638 0 0 0 2.61836 1.78.34538.34538 0 0 0 .45439-.00726c-.2855-.31826-.33436-.78592-.81456-.99839a.60356.60356 0 0 1-.36814-.69507.34183.34183 0 0 0-.156-.3945c-.34839-.263-.39436-.49982-.06474-.84774.34507-.36425-.04084-.61985-.26068-.8443a.99708.99708 0 0 0-.52651-.23448.47079.47079 0 0 1-.44719-.49326q.00117-.02334.00459-.04649c.03182-.28161.31635-.14251.48844-.15552a2.38018 2.38018 0 0 0 1.16376-.36651c.13627-.08947.26532-.16211.23785-.34329a.22729.22729 0 0 0-.29253-.19055c-.71806.2089-1.10241-.33444-1.39343-.7579a2.01538 2.01538 0 0 0-1.891-.82272c-.35336-.00364-.981.14357-.69642-.66792.07773-.22168-.24574-.35337-.516-.34875a.55155.55155 0 0 1-.64317-.44125l-.00339-.02033a1.48471 1.48471 0 0 0-1.257-.98418c-.49131-.11376-1.19057-.07824-1.01763-.97357.05587-.28921-.295-.3584-.52328-.37569a9.34118 9.34118 0 0 1-2.85816-.962c-.30589-.12741-.57275-.22744-.82634.05158a.34469.34469 0 0 1-.39988.09183 17.12356 17.12356 0 0 1-4.08116-1.223c-.417-.21857-1.00116-.053-1.28988-.60285-.07972-.15186-.31916-.02458-.47724.052-.10485.05076-.2398.06931-.28708-.04322-.06572-.15642.07695-.23723.19925-.273a.78612.78612 0 0 1 .44217-.05773 18.30315 18.30315 0 0 1 2.04278.5573.81688.81688 0 0 0 .75856.0044 1.963 1.963 0 0 1 1.57493-.08285 1.478 1.478 0 0 0 .96607-.03864c-.11035-.32452-.517-.02863-.64258-.37739a7.48812 7.48812 0 0 1 2.43088.08591 2.32321 2.32321 0 0 0 .5146.06292c1.32779-.13721 2.55492.3914 3.83562.55383.40955.05194.06264.49844.37413.54275l-.00778-.0078a.302.302 0 0 0 .33212.25049 5.835 5.835 0 0 1 3.02628.8022 14.22286 14.22286 0 0 0 2.1934.49058 7.92788 7.92788 0 0 1 3.04415 1.07843c.77334.595 1.82916.76184 2.63563 1.35641 1.31362.96846 2.93131 1.26381 4.35288 1.99244.3609.185.75442.30627 1.13281.45659a.4351.4351 0 0 0 .5319.30935l.01336-.00376c.307.004.50576.2377.75808.35715a.21164.21164 0 0 0 .27947.18173c.27727.05248.47546.30637.77414.304.03027.22.206.31178.35023.20527.22084-.163 0-.31281-.10107-.4522l-.01221-.28958q.001-.19268.00169-.38574l.272.05126c.03251.195.17547.264.33854.34855 1.16913.60613 2.20679 1.42621 3.4544 1.93208a2.39568 2.39568 0 0 0 1.45762.348l.1379.05429a.17729.17729 0 0 0 .21469.12951l.00076-.00019.5594.40735c-.00142.10092.01029.19074.14812.1715a8.38255 8.38255 0 0 1 2.141 1.41951c1.91607 1.66158 3.9275 3.2126 5.767 4.9635a2.13757 2.13757 0 0 0 1.31824.75715 2.678 2.678 0 0 1 1.16437 1.15387 1.4359 1.4359 0 0 1-.76746-.31273c-.13554-.08605-.41322-.16177-.31262.13283a3.75181 3.75181 0 0 0 .69788 1.57 10.268 10.268 0 0 1 2.025 2.42684.82428.82428 0 0 0 .77731.50212c.83516-.08432 1.08457.60967 1.47016 1.08859.42329.52574 1.21313.62834 1.46736 1.3246.02165.05928.00575.13166.02447.19271a1.308 1.308 0 0 0 .826.9999.4499.4499 0 0 1 .36285.33233c-.29373.35.17328.40525.26052.59613a4.2029 4.2029 0 0 0 1.256 1.75589c.20827.15184.04283.31375.03524.46981-.02361.48513.25088.822.67881.71084.3843-.09982.47684.088.592.29258a63.63146 63.63146 0 0 1 3.2431 6.15613c.38634.90455.76363 1.81745 1.15874 2.72049.05939.1357.06419.30526.25485.34012a6.49144 6.49144 0 0 0 .22855 1.52765 25.09291 25.09291 0 0 1 1.13469 3.10875 4.4024 4.4024 0 0 0 1.57356 2.57068 18.9613 18.9613 0 0 0 .83479 2.77025 4.29061 4.29061 0 0 1 .10189 1.69854 1.56982 1.56982 0 0 0 .47865 1.5598 1.22936 1.22936 0 0 1 .407 1.031c-.28365-.07046-.60021-.13452-.74648.1872-.24272.53384-.412.10251-.485-.05159a8.97575 8.97575 0 0 0-.56865-1.09015c-.0619-.09468-.11438-.20829-.23605-.17787-.18839.04711-.11075.20079-.08789.3203a3.48207 3.48207 0 0 1-.048 1.41863c-.40147-1.64049-1.91021-2.104-3.10447-3.2a6.579 6.579 0 0 1-.14408 2.86024 3.70306 3.70306 0 0 0 .11484 2.34529c.34718.8339-.01126 1.75051.07754 2.61647.16042 1.56414-.20321 3.12044.00518 4.67956.03755.28092-.14749.56063-.14736.81423.00031.66414-.386 1.271-.22384 1.95351a17.15066 17.15066 0 0 0 .67447 2.28132 9.1643 9.1643 0 0 1 .19728 1.60365 9.65993 9.65993 0 0 1-.13834 3.92861c-.05543.27319.22919.51384-.00966.84837-.25279.35412-.38988.26174-.54782.00065a5.09138 5.09138 0 0 1-.26248-.66 3.11893 3.11893 0 0 0-.79842-1.37749 1.858 1.858 0 0 1-.65275-1.08351c-.19559-.86227-.98334-1.34517-1.43517-2.05417a9.71686 9.71686 0 0 1-1.17242-2.583.52764.52764 0 0 0-.05724-.18084 12.38721 12.38721 0 0 1-1.38641-3.20216.3114.3114 0 0 0-.351-.22137.30321.30321 0 0 0-.273.31408 2.5532 2.5532 0 0 0 .16548 1.27988c.23356.54281-.07787.86035-.4271 1.17751-.37848.34372-.61863-.02989-.91354-.165-.43095-.19737-.19949-.41443-.0126-.58737a.656.656 0 0 0 .20773-.81432.67663.67663 0 0 0-.36868-.33839c-.20282-.05832-.17751.18806-.25589.30278-.19689.28815-.38607.577-.70838.08256-.16943-.26-.71345.07882-.789-.42376q-.00179-.19918-.004-.39865l.01531-.02967.04234-.00822-.02772-.06239a1.85028 1.85028 0 0 0-.67232-1.47168c-.1738-.16626-.438-.29252-.379-.6288a12.70481 12.70481 0 0 1 .19009-2.16345.371.371 0 0 0-.25628-.45782l-.00885-.00238c-.3111-.0558-.24787.23826-.24323.409a6.10184 6.10184 0 0 1-.21545 1.2191c-.06629.3783.30511.57141.17326.90863a.84414.84414 0 0 0 .35922 1.02349c.56075.29966.49839.88836.79879 1.28969a.06076.06076 0 0 0-.0033.063l-.28152.03057c-.18288-.15035-.33469.05794-.50586.04412-.16523-.08418-.39571-.02095-.5078-.22455-.10121-.204-.197-.1987-.2874.008a2.42463 2.42463 0 0 1-1.24532 1.41693 2.78793 2.78793 0 0 0-1.00575.88115 2.09257 2.09257 0 0 1-1.081.84372c-.71359.33654-1.39772.72818-2.12952 1.036-.50789.2137-.737.05606-.9086-.36258-.11445-.2792-.14448-.603-.57559-.56492a1.04029 1.04029 0 0 0-.93987.5729 1.85037 1.85037 0 0 1-2.47071.86216q-.06729-.03249-.13181-.0703c-.01916-.00959-.041-.02724-.05879-.02426-1.265.21222-1.70432-.89773-2.435-1.53119a1.42567 1.42567 0 0 0-1.93.23149c-.125.257-.42329.27276-.5.63948-.15.7175.3153 1.09044.64928 1.49833a4.61728 4.61728 0 0 0 1.99674 1.57874c.11335.0395.26385.14542.28642.24555a2.28467 2.28467 0 0 0 1.85928 1.70987c.33736.10157.58135.538 1.06175.42992.21409-.04819.35816-.03246.44762-.33251.15373-.51548.76636-.57809 1.14124-.89343a.93411.93411 0 0 0 .36178-.51632 6.31445 6.31445 0 0 1 .75163-2.26581 1.56694 1.56694 0 0 0 1.04043 1.50232 1.48206 1.48206 0 0 0 1.028.01407c.62974-.23225 1.02757.15 1.43336.38268.45557.26125.25372.80922.1129 1.18119a6.55376 6.55376 0 0 1-.58585 1.54672 1.89774 1.89774 0 0 0-.064 1.34081.91383.91383 0 0 1-.2289.98639c-.119.11845-.30633.317-.2733.41592.27446.82136-.37865 1.14453-.80537 1.59184-.01421.01489-.03136.04332-.02616.058.35628 1.01187-.87913.98666-1.0877 1.6443-.0331.10439-.2347.16625-.134.34983a.24164.24164 0 0 1-.165.36055c-.87306.21882-.873.90748-.99576 1.60888-.06178.35314-.54054.57646-.74779.93685a1.6871 1.6871 0 0 1-.45451.46238c-.58783.44672-.93751 1.12513-1.458 1.59116-.45841.41045-.917.83853-1.338 1.27922a18.34573 18.34573 0 0 1-1.89326 1.38618c-.20516.16819-.34139.56308-.604.77021-.28053.22125-.50619.29925-.76339-.1386-.41825-.712-.68575-1.48936-1.07616-2.21136-.18941-.35027-.09682-.78791-.22022-1.19472-.26945-.88818-1.13853-1.12257-1.65185-1.73177a6.7293 6.7293 0 0 0-1.55451-1.57693c-.10913-.066-.19275-.19859-.30684-.22807-.91384-.23615-.992-.44428-1.1564-1.34252a2.98281 2.98281 0 0 0-1.203-1.9164 7.42649 7.42649 0 0 1-1.87872-1.54144c-.40873-.572-.91416-1.06561-1.276-1.65658a1.16791 1.16791 0 0 0-.682-.62015c-.66132-.19013-.61748-.90233-.95441-1.33631-.1246-.16052-.16521-.368-.40852-.28a.30893.30893 0 0 0-.135.52887c.34751.39567-.08886.68121-.1307 1.01168-.02848.22478-.28931.01447-.38674-.0995-.38876-.45474-.75107-.93217-1.14135-1.38557-.16388-.19037-.38674-.48667-.6426-.27672-.25241.20711-.12562.55029.01976.81908.50517.934 1.35451 1.61611 1.90793 2.49157.52708.83379 1.20123 1.55489 1.69 2.41091.13388.23452.12883.62176.54938.642.10439.005.14014.14855.15022.26334a1.8235 1.8235 0 0 0 1.37949 1.61224 1.534 1.534 0 0 1 .89651 1.31853c-.03588.87471.61167 1.51763.60514 2.34744a.17052.17052 0 0 0 .0614.10413c.6626-.20372.86713.56133 1.42427.68671a1.11307 1.11307 0 0 1 .803 1.04078.92749.92749 0 0 0 .30889.79537 1.98962 1.98962 0 0 1 .55961.7028c.11386.34246.442.195.681.20652.5703.02737 1.213-.14463 1.47141.61758.80679-.19148.95839.56242 1.37188.94185a.26647.26647 0 0 0 .2356.028c.14-.06121.278-.19031.35992.04762.05143.14926.05079.30629-.13713.38069-.13682.05419-.32385.0732-.20541.29961.095.1815.25006.39337.44148.30806.36539-.16283.3115.11011.40229.28546.34507.66655 1.22242.76276 1.90751.088.49758-.4901 1.158-.68917 1.64983-1.15238a17.72594 17.72594 0 0 1 2.6821-1.88075c.25956-.16685.33317-.59309.71531-.69545.26212.3591.5091.72322.14009 1.18292a.39724.39724 0 0 0-.0247.31766c.26262.80757-.28111 1.44638-.41812 2.16719a2.98433 2.98433 0 0 1-.829 1.82192.40288.40288 0 0 0-.04809.37225 1.26179 1.26179 0 0 1-.28159 1.37736c-.49981.6964-.52482 1.57953-.99083 2.30034a15.99418 15.99418 0 0 1-2.06965 2.6473c-1.06232 1.06144-1.76508 2.3637-2.70211 3.49624-.45622.55142-.62287 1.29317-1.03184 1.735-.379.4095-.70924 1.05611-1.37164 1.21036-.19123.04453-.39585.07138-.42714.32625a9.46756 9.46756 0 0 1-1.17423 2.84321.92354.92354 0 0 0-.12846.74039 2.377 2.377 0 0 1 .11746 1.66919 1.52388 1.52388 0 0 0 .26386 1.0705 2.97738 2.97738 0 0 1 .46812 2.64122c-.17918.46713.11941 1.031-.05833 1.57513a1.41291 1.41291 0 0 1-.41332.77582c-1.1483.85136-2.14439 1.933-3.58408 2.34782-.41311.119-.56373.57915-.82441.86463a8.11041 8.11041 0 0 1-1.67557 1.153c-.6929.46443-.82533.72883-.37025 1.405a.99219.99219 0 0 1 .00589 1.208 2.97949 2.97949 0 0 1-1.68189 1.27643c-.53447.22671-.97081.60778-1.49767.83732a.31578.31578 0 0 0-.18276.38173c.15037.3194-.05881.428-.228.6397-.779.97473-2.02484 1.31747-2.87673 2.14918a13.821 13.821 0 0 1-2.79306 1.57344 12.01642 12.01642 0 0 1-2.99287.93327c-1.36015.402-2.79594.28777-4.16052.728a3.4925 3.4925 0 0 1-2.157.12366c-.29155-.09477-.42987-.18872-.31323-.48917a.428.428 0 0 0-.15427-.57638c-.72458-.35263-1.19692-1.03537-1.94423-1.38312a1.8222 1.8222 0 0 1-.99889-1.32442 14.028 14.028 0 0 0-.3957-1.54832c-.203-.75385-.92562-1.163-1.36647-1.76836a5.60686 5.60686 0 0 0-1.547-1.42036.58959.58959 0 0 1-.17823-.87476 9.66761 9.66761 0 0 0 1.09224-2.37315c.111-.353.36673-.64861.65075-.65464.54842-.01167.70974-.38264.84768-.74136a1.37313 1.37313 0 0 0-.06383-1.25265c-.13476-.2172-.17166-.48888-.40174-.65491-.26245-.18939-.33841-.35829-.08-.682.38718-.48483-.13337-.85586-.36171-1.18687a3.73287 3.73287 0 0 0-.51177-.64079c-.47683-.43764-.29-.68549.30442-.8404-.59719-.20169-.57072-.56036-.3409-.97359.05185-.09321.1445-.193.02292-.279a.2838.2838 0 0 0-.24308-.01511c-.85153.41843-1.29509-.34764-1.81636-.70451-.41688-.28542-.63945-.793-1.2374-.945-.28709-.073-.46962-.56543-.693-.8726-.03581-.04923-.01705-.15291-.05816-.18135-.90785-.62816-.04187-1.08878.19008-1.56449.08458-.17348.30272-.23717.13954-.49284-.09781-.15325-.10307-.33887.1373-.41463.07142-.02252.21621-.10354.16915-.11848-.80646-.2558.10447-.73162-.1482-1.14118-.20323-.32943-.03917-.88533-.03839-1.34074.00074-.42148-.05654-.79569-.60894-.80289-.07991-.001-.20807-.0316-.23139-.08472-.33584-.76538-1.00833-.49487-1.57181-.50167a4.06916 4.06916 0 0 0-1.95426.24121.47868.47868 0 0 1-.548-.58235.9216.9216 0 0 0-.70209-1.17911c-.487-.17388-.82743-.57369-1.4272-.65308a1.75963 1.75963 0 0 0-1.32.16889c-.24113.15812-.42131.02035-.57771-.12185-.289-.26278-.48143-.14053-.79.02721a5.02134 5.02134 0 0 1-1.2954.31848c-.17649-.20015-.43548-.34414-.44922-.65619a2.88265 2.88265 0 0 0-.0829-2.43092c-.148-.27235-.26369-.37372-.39789-.01134-.11663.315-.27864.2844-.48056.09032-.15659-.15051-.36572-.27455-.45908-.4575-.30969-.60691-.58775-.38654-.90977-.02-.2036.23174-.28218.341.10816.47383a1.58234 1.58234 0 0 1 .7849 1.74889c-.15842.40964-.03212.58363.35324.62337a.679.679 0 0 1 .50239.25749c.13978.18055.086.40881-.11647.38489-.46059-.05446-.72587.36978-1.09614.39906a10.32472 10.32472 0 0 1-2.34617.09579.2835.2835 0 0 1-.17068-.16876c-.24575-.68555-.7424-.70769-1.3164-.49815-.45265.16523-.8794-.06887-1.31978-.086a3.79214 3.79214 0 0 0-2.23216.42218.45768.45768 0 0 1-.64137-.08733l-.00219-.00288c-.5913-.69336-1.55876-.94617-1.99136-1.869-.25519-.54441-.93313-.82561-1.40284-1.2426a4.24184 4.24184 0 0 0-1.27227-.97783.37447.37447 0 0 1-.21656-.2321c-.10285-.65992-.68356-1.07479-.84736-1.71958a5.287 5.287 0 0 1-.29386-.96226 1.204 1.204 0 0 0-.60505-.88018.70468.70468 0 0 1-.40992-.85186c.08177-.36666.18382-.611.61244-.59456.28251.01083.2723-.26506.30572-.428a.6087.6087 0 0 0-.18806-.592.27783.27783 0 0 0-.23879-.0324c-.08982.03571-.07153.13471-.043.22356.07255.22571.19591.51025-.09239.62674-.25616.1035-.45952-.10493-.66252-.29129a2.1666 2.1666 0 0 0-1.25157-.48264c.40426-.35418.262-.65-.484-1.13754a.92766.92766 0 0 0 .13923-1.57394c-.52-.49481-.41147-.81966.067-1.19528.10176-.07988.18068-.18819.2781-.27437.33405-.29555.2236-.46662-.21421-.55074.54814-.63577 1.22441-1.168.9644-2.11665-.04542-.1657.10643-.321.16784-.48116.2556-.66656-.17872-1.45556.37693-2.0957.07508-.0865-.0777-.50854-.23648-.63316-.39692-.31156-.29992-.76224-.35763-1.13259-.07627-.48945.56154-.55206.78244-.9075.06617-.10646.25747-.13641.34178-.32454.214-.47741.40792-.95927 1.00823-1.16235.27623-.09348.401-.53487.59022-.78191.388-.50674.39008-1.348 1.26646-1.49621a.96157.96157 0 0 0 .88262-.9789.74745.74745 0 0 1 .079-.23112c.42733.2454.63462-.32.99637-.27625a2.97193 2.97193 0 0 0 2.45838-1.15564c.047-.04515.08371-.11446.1392-.13528.75961-.28507.75221-.77916.55236-1.477a1.2987 1.2987 0 0 1 .438-1.0806c.15583-.14888.43936-.25108.48008-.41919.24236-1.00054 1.11045-.99546 1.845-1.2342a4.09535 4.09535 0 0 0 1.61788-1.25354.55567.55567 0 0 0 .1623-.47291.40731.40731 0 0 1 .23165-.48667c.24134-.094.36316.12159.47287.259.77623.97193 1.87564.75866 2.90556.826 1.18809.07772 2.07917-.82014 3.19383-.94646a6.49458 6.49458 0 0 1 1.40841-.26106c.73824.0762 1.40074-.42382 2.15387-.26944.22855.04686.458-.014.601.27009a.45925.45925 0 0 0 .61774.2005l.00547-.00283c.45591-.39925.95687-.17273 1.43018-.18915.92971-.03224 1.33417.6446.97142 1.59323-.28762-.15717-.346-.48349-.53794-.7032a.48739.48739 0 0 0-.52813-.16781c-.21624.063-.20211.25876-.20292.43113-.00283.60915-.00166 1.21833.00039 1.8275m26.14491 40.33137c.01964.05482.03931.1112.09888.03134l-.07186-.06044-.05131-.15293-.06714.052a1.53208 1.53208 0 0 0 .09136.13008zM154.53 70.16653c.00553.21956.12142.26127.30228.18047.07712-.03445.18556-.08626.1317-.18592-.07156-.13245-.22244-.1024-.35011-.10407-.08489-.23733-.14006-.50454-.46236-.5263-.03809-.00258-.12087.07879-.11615.11171.03664.25648.24162.3753.43733.49836a.322.322 0 0 0 .05724.0258zm-9.1391-5.35953c-.03076-.05224-.05222-.13876-.09406-.15008-.11129-.03014-.14187.05926-.15245.15182l-.66381.056a.92014.92014 0 0 0-.15082-.11962 29.25925 29.25925 0 0 0-2.95726-.89819c-.41406-.1556-.76064-.53453-1.26894-.43-.15141.03114-.34094.02392-.37475.195-.04746.24009.17085.2446.33537.29955.76185.25449 1.5088.56211 2.283.76849.69814.1861 1.42469.26556 2.139.39237l1.55244-.00792c.39948.01966.87881.39579 1.12854-.25287l.06863-.12555c.59539.65682 1.17565 1.32847 1.79627 1.96053.16528.16833.416.54243.68574.24608.19574-.215-.00163-.61127-.22741-.71875-.43192-.20561-.67061-.61684-1.03115-.8455-.41911-.2658-.33317-.93343-.91317-.99787l.0424-.2089a1.05446 1.05446 0 0 1 1.21478-.01658 9.522 9.522 0 0 1 2.65308 2.26162c.12532.173.18252.40328.44853.42121.0555.4115.37876.401.67716.42968-.0575.46335.39108.45872.61338.66333-.5021.30449-.347.73324-.21868 1.1569.19041.39428.54214.21723.8643.29967-.10045-.38759-.3595-.30926-.57938-.31642l.09754-.55862c.4837-.13063.64784-.45083.3126-.6542-.35308-.21417-.54165-.6117-.94189-.7444-.13464-.28926-.49107-.22184-.68044-.42311a.95282.95282 0 0 0-.24923-.57309c-.34635-.53347-.94979-.80484-1.32228-1.26933a3.8763 3.8763 0 0 0-2.44111-1.38555c-.21339-.04167-.30969-.0462-.41288.1212a.47127.47127 0 0 1-.40763-.15342c-.07719-.12964-.148-.26367-.2332-.38779-.10412-.15164-.32856-.26355-.19157-.494.1199-.2017.34337-.17362.529-.15245.27626.03149.54722.108.82129.161.116.02241.26867.13129.33306-.04424.06252-.1704-.096-.19306-.21919-.24217a4.36731 4.36731 0 0 0-1.45352-.42365c-.66991-.03012-.872.10344-.72771.76181a1.02727 1.02727 0 0 0 .88242.83531c-.0238.37117.13008.78791-.27232 1.062-.36271.05212-.79987-.11283-1.0215.35044zm-1.3119 111.47636c-.13274-.08628-.25532-.10845-.34846.0552-.149.22843-.089.43218.14692.51389.35829.12408.55689-.10854.69344-.40723.28349-.042.6018.10721.848-.15959-.30871.04976-.64806-.45151-.9254.06193zm7.96272-54.12575c-.15483.214-.34851.49479-.02894.64567.26153.12351.56767-.1.67315-.35933.18876-.464-.34231-.35876-.507-.55244-.13678-.19256.33176-.50183-.1221-.63325-.19466-.22733-.37862-.46514-.58762-.67839-.14639-.1494-.38032-.16816-.35754.08682.037.4142.04167.89471.55994 1.07962a.42191.42191 0 0 0 .3701.41131zM164.718 83.87023c.11229.09861.22327.19875.33719.29544.14214.12065.27052.307.48915.12524.16966-.141.33747-.31667.28484-.54022-.07656-.32515-.33687-.14367-.53082-.13386-.17075.00864-.34177.01139-.51267.01675-.05762-.28273-.13931-.57821-.47279-.60837-.18932-.01713-.17865.206-.18433.3544-.0159.4162.23688.51446.58943.49062zm-49.69851 74.169c-.17755.09554-.17691.19095.00022.28622.029.5181.21383 1.04711-.10815 1.54055-.20446.10191-.19747.19758.00851.28735.26123.03632.47239.00043.481-.331.00438-.16924-.00425-.34383.167-.4516.20018-.09624.1996-.19234-.00019-.2883-.33171-.68738-.23456-1.129.32611-1.48224.093.18939.17783.19043.25383-.01106.57055-.187 1.04955.19626 1.58084.25384.27169.37041.43177-.00108.60636-.1113.12974-.08189.31195-.20721.214-.41615-.10029-.21383-.34486-.13249-.51236-.21156-.26107-.12328-.36667.18645-.57785.19179a1.64638 1.64638 0 0 1-1.0299-.37828c-.15-.13527-.17778-.57238-.52778-.21375-.37477.07674-.58319-.15736-.77828-.41643-.10193-.20437-.19761-.19758-.28738.00852-.053.44569.3947.78683.26092 1.2494-.10038.07752-.10006.15409.00211.22974zm39.98384-49.0843c.03259-1.03009-.15415-1.25232-1.07924-1.39689-1.00641-.15725-1.20737-.40908-.99118-1.25354.024-.09385.03317-.1904-.05524-.22348-.74516-.27864-.31026-.5746.02358-.76178.56118-.31462.94476-.58844.2077-1.12747-.10317-.07544-.11218-.2726-.17851-.40661-.23873-.48226-.5082-.89042-1.109-.41388a.23186.23186 0 0 1-.30231.00677c-.39608-.32623-.56637.03715-.6768.27537-.19961.43058-.31839.88585-.90773.9433-.1543.01505-.24123.15643-.16019.35015.17109.409.23458.77823-.25735 1.05983-.33382.1911-.37126 2.064-.03587 2.16548a1.50585 1.50585 0 0 1 1.07626 1.14029c.03218.10892.16826.19178.26562.276a12.364 12.364 0 0 0 1.90142 1.24791 3.05637 3.05637 0 0 1 1.09686 2.10872 2.665 2.665 0 0 0 .80347 2.06563c.12256.08261.321.21257.40362.16864.54656-.29058 1.00867.07106 1.49575.1697a.91019.91019 0 0 0 .6065-.11478 8.97335 8.97335 0 0 0 1.57179-1.18608c.41141-.29774.28345-.48983.02826-.54565-.52121-.114-.52987-.42714-.5321-.82742a1.00531 1.00531 0 0 0-.18805-.40641 6.37511 6.37511 0 0 0-1.30891-1.86277c-.25379-.21869-.19016-.5136.06364-.548.535-.07254.24846-.49675.38133-.7296.316-.55371-.277-.41449-.49159-.56459-.31584-.22091-.63164-.61692-.94888-.61834-.4368-.00192-.2921.68275-.70287 1.0095zm-9.93889 55.35736c.01565 1.27615.01546 1.27528 1.27212.98813.12467-.02849.25664-.0261.38037-.05729a1.7557 1.7557 0 0 0 1.36194-1.697c.0257-.59946.22945-1.10442.91863-1.228.20918-.03754.38452-.12869.36072-.37714a.4158.4158 0 0 0-.44137-.3885l-.00694.0005c-.68809.07924-1.38009-.22421-2.07734.23928-.9838.654-1.96622.86624-1.76815 2.52zm-18.16784 4.16334c.23243-.48872.52479-.865.69439-1.32652a1.74261 1.74261 0 0 1 .80678-.76735c.59248-.34135 1.39616-.62236 1.39947-1.53508.00133-.36671-.0267-.699.49385-.69617.10536.00057.21839-.12806.31609-.211a2.98838 2.98838 0 0 1 2.17416-.857 1.81129 1.81129 0 0 0 .73924-.16524c.42264-.15239.917-.61239 1.34267-.08978a2.09172 2.09172 0 0 0 1.49407.64143.71732.71732 0 0 1 .321.20937c.22025.2038.47176.31354.64615.00859.14693-.25693-.02267-.40743-.30267-.513-.65472-.24674-1.28165-.56712-1.93584-.81552-1.05938-.40225-2.10318.25769-3.16459.08389-.01642-.00268-.04013.01733-.05533.032-.603.5832-1.46942.64691-2.1436 1.08836a.27962.27962 0 0 1-.34824.02738c-.42213-.25109-.50029-.01989-.4008.33706a2.00324 2.00324 0 0 1-.93941 2.16274 2.49391 2.49391 0 0 0-1.13741 2.38579zm33.77286-65.91848a.369.369 0 0 0-.417.07322c-.27574.22773-.41977.65573-.95858.402-.46647-.21968-.47776-.54417-.46-.94606a.59141.59141 0 0 0-.36579-.57341c-.48472-.17826-.61406-.584-.787-.988-.14422-.33686-.31531-.45749-.7363-.25524-.53051.25487-.4282.64521-.4922 1.07-.04846.3216-.32809.65532-.20129.97433.15907.40025.64084.26252.96873.39438.02623.01052.03343.06839.04964.10465-.65753.17219-.88316.51838-.60008.99639a6.94506 6.94506 0 0 0 .89923.98458c.21.23533.55888-.121.83816-.11251.389.01183.51587-.16949.64879-.48378.0959-.22675.33318-.57478.48833-.565.80961.05078.73712-.67912 1.12533-1.07556zm-15.88429-6.216c-.20782.2165.00838.33452.09508.50438.1962.38439.67084.47559.86075.90754.07876.17913.5554.13913.77891-.1585.20638-.27481.00838-.337-.19154-.47023-.34712-.23144-.26843-.8591-.82454-.93286-.02335-.00309-.02954-.16047-.038-.24656a.67583.67583 0 0 1 .55087-.764c.31834-.10331.2249-.379.22478-.60572a.27463.27463 0 0 0-.28173-.29445c-.25018-.02232-.31372.1328-.38952.339-.11518.31333-.41489.56884-.70534.39152-.53783-.32836-1.07729-.0222-1.59671-.13518a.82629.82629 0 0 0-.82286.33675.96737.96737 0 0 1-1.73366-.45518c-.08557-.28964-.17719-.4772-.49855-.4789-.19775-.001-.35089.06261-.35773.28454-.00982.31982-.09315.718.31584.82986a4.78588 4.78588 0 0 1 1.183.65512.5128.5128 0 0 0 .5011.03734c.74176-.20443 1.34389-.80514 2.25636-.58384.57088.13843.651.38427.67345.83931zm-.91369 74.77875c.716.01546.90011-.136.74592-.56561a2.835 2.835 0 0 0-.83534-1.48988.93127.93127 0 0 1-.44376-.92487 2.86973 2.86973 0 0 0-.02759-.6481.59026.59026 0 0 0-.54673-.48293.51027.51027 0 0 0-.52291.30587 2.92014 2.92014 0 0 0 .70011 2.52.60142.60142 0 0 1 .33743.68935c-.04481.35594-.383.27853-.6302.28908a1.78066 1.78066 0 0 0-1.46227 1.26231c-.02673.17413.00878.31676.16937.37695.21656.08115.21965-.1038.28362-.24374.08723-.19087.20415-.49019.34607-.51354.7215-.11874 1.36969-.49115 1.88624-.57493zm2.59521-69.46508a.33677.33677 0 0 0-.20023-.2461c-.23042-.09169-.40724-.13445-.46963-.48339a1.375 1.375 0 0 1 .14082-.84967c.07353-.17771.114-.39416-.09228-.52634a.30943.30943 0 0 0-.41934.03467c-.22951.3222-.47422.59028-.23452 1.0978a4.042 4.042 0 0 1 .39551 2.4114c-.03439.20478-.1086.35679-.32735.27572-.41978-.15557-.37669.13446-.45658.38864-.17687.56263.17849 1.17717-.2246 1.72819-.139.19009.04167.44764.32428.399.35948-.06185.69849-.13986.63725-.68654-.02916-.26051-.14526-.61856.22556-.86834a1.1276 1.1276 0 0 0 .413-1.38076.83522.83522 0 0 1 .16353-.95542.32827.32827 0 0 0 .12456-.33891zm12.15968-29.128a1.3348 1.3348 0 0 0 .72327.8154 12.39529 12.39529 0 0 1 2.88436 2.68728 11.04343 11.04343 0 0 1 .86054 1.3502c.10374.16245.21193.28938.41516.19685a.30413.30413 0 0 0 .14607-.44151 4.64539 4.64539 0 0 0-.426-.86983 16.57791 16.57791 0 0 0-2.46816-2.543 10.871 10.871 0 0 0-2.1353-1.19545zM148.38115 171.55a.63677.63677 0 0 0-.50238-.80688.383.383 0 0 0-.49065.31926 2.68252 2.68252 0 0 0-.01239 1.12442 4.46182 4.46182 0 0 1 .09464 1.68046 1.45965 1.45965 0 0 0 .28645.83661c.14038.24648.2953-.15017.47568-.14364.81625.02954.74055-.30928.349-.80753a.64833.64833 0 0 1-.15157-.61128c.2182-.57285-.33267-1.12383-.04878-1.59142zm-2.42268-80.20078c.04994.38392.34141.79737.28822 1.28113-.01308.11884.17136.18783.30739.17811.17027-.01216.19769-.12136.1611-.27547-.09085-.38253.50944-.71445.08578-1.125.04635-.04342.092-.08755.1391-.13014a.46962.46962 0 0 0-.174-.84278c-.45333-.10872-.57552-.47573-.828-.731-.15539-.15709-.14654-.45688-.34684-.60652-.11127-.08309-.23827-.238-.39916-.123a.26628.26628 0 0 0-.03647.40317c.3548.47112.16712 1.22867.82735 1.54382.13994.06679.09329.2233-.02447.42765zm18.69482 1.07754c-.17255.01175-.18526.16117-.187.28016a1.08647 1.08647 0 0 1-.68176.93808 1.55088 1.55088 0 0 0-.63438 1.80854 1.79061 1.79061 0 0 0 1.18173 1.34835.243.243 0 0 0 .17494-.04177.182.182 0 0 0 .03948-.28366c-.37241-.32408-.32189-.841-.57714-1.21557-.09617-.14112-.19459-.267-.03563-.456.2883-.34284.516-.73963.82233-1.06331a1.3536 1.3536 0 0 0 .32721-.7545c.0525-.30281-.12866-.48315-.42976-.56037zM123.98368 150.431c-.384.04012-.80561-.00032-.94544.29485-.16657.35157.1973.572.46614.748a.68148.68148 0 0 1 .40282.71792c-.0272.225.11518.54369.42272.255a2.41287 2.41287 0 0 1 1.11263-.57457c.15614-.0389.30032-.05387.30824-.25832a.36145.36145 0 0 0-.20929-.3677c-.46312-.24863-1.10015-.18982-1.37694-.779-.02067-.04389-.15915-.03246-.18086-.03616zm26.03521-36.50311a1.02224 1.02224 0 0 0 1.03294.24955c.22869-.088.36423-.10906.4643.12832.05051.11985.09364.28669.25709.1774.17223-.11512.41883-.17369.47063-.41394.03331-.15442-.11528-.21321-.22284-.28363-.34624-.2267-.8155-.3302-.85045-.87075-.00323-.04992-.13-.12089-.20689-.13244-.60166-.09034-.60861-.55409-.62146-1.02944l-.56787.31585c.23544.18242.58189.32872.19327.67522-.20751.185 0 .40026.07429.594.09628.251.30205.20169.49236.16765.15257-.02729.36976-.20466.40547.07251.02633.20437-.18726.31891-.40027.34394-.16179.019-.31073-.19087-.52057.00571zm12.00568-37.17069c-.16759-.50467-.58487-.52166-.9457-.62419-.76658-.21786-1.399-.75529-2.19206-.91221-.24182-.04785-.49-.06075-.434.26072.063.36168.29975.746.656.77629.73811.06276 1.49645-.11315 2.13165.48066a.80818.80818 0 0 0 .78414.01872zm-18.29535 61.5347c.35945.00539.67628.0435.706-.4163a.42088.42088 0 0 1 .24483-.28188c.71763-.25829.48614-.71082.27582-1.18218-.11748-.2633-.27036-.61451-.5474-.49566-.19418.08331-.4192.59927-.33253.7458.385.651-.183.73879-.49776.94144-.18033.1161-.34177.20087-.30817.4276.04512.30456.30489.24458.45925.26118zm6.142 18.913a3.15306 3.15306 0 0 0 .52511 1.29383c.1117.17922.49436.434.706.24a.4357.4357 0 0 0-.16611-.74025c-.26888-.1144-.25588-.32916-.2399-.5396a2.79191 2.79191 0 0 0-.13866-.75575c-.03384-.17587-.1056-.27658-.29-.27946-.22176-.00348-.297.13148-.32031.32661-.0179.14992-.04938.29816-.07613.45467zm-13.26108-63.43067c-.456-.01208-.40215.33362-.48578.5493-.12058.31092.08328.48894.34163.58175.19566.0703.42242.01754.60376.18263a.30883.30883 0 0 0 .46362-.014.455.455 0 0 0 .05919-.54564c-.27167-.34208-.75417-.42227-.98242-.75404zm-35.51833 62.694a4.46972 4.46972 0 0 1-.08536-.71689c.00383-.15982.06237-.30923-.14405-.35612a.73654.73654 0 0 0-.56906.03792c-.28557.18275-.16255.98967.20615 1.32013.12127.10867.21939.32568.41311.26518.24537-.07666.14016-.32533.1792-.55025zm38.28034-87.60994c-.392-.43361-.95465-.59485-1.28594-1.045a.19293.19293 0 0 0-.33081.01781c-.09526.1237-.18039.27074.0069.38866.21384.13462.2603.26985.06117.46179-.11836.1141-.10174.2822.06511.28753.48221.01535.99161.45916 1.48358-.1108zM164.76459 89.706c.15841-.16691.63928.14164.62811-.2521a.59.59 0 0 0-.68608-.60634c-.38059.05542-.47231-.1659-.4881-.50106-.01922-.40776-.40777-.30665-.64406-.39364a.30361.30361 0 0 0-.37346.1874c-.06465.287.235.31588.39844.42677.37415.2539.76253.48482.84522.98858.0245.14913.11871.22518.31994.15039zM112.433 154.46384c-.00357.335.22.73443.415.6898.37165-.085.23562-.40855.21869-.63867a1.63037 1.63037 0 0 1 .07952-.62962.83537.83537 0 0 0-.62544-.83855c-.16373-.00281-.38362.1357-.22467.2485.51612.36629.04378.79061.1369 1.16854zm39.10341-39.26133a.40415.40415 0 0 0-.47817.31311l-.00534.032a1.4756 1.4756 0 0 0 .71073 1.253c.30261.06263.62181.06308.69795-.35337a4.42356 4.42356 0 0 0-.92519-1.24473zm9.30717-33.77761c-.02615-.04477-.0451-.1288-.09009-.14643a1.94284 1.94284 0 0 1-1.23854-1.22989c-.048-.14563-.31677-.07738-.27969-.00071.19112.39518-.09924.96576.43309 1.224.27058.13127.56033.22474.82491.36618.25044.13395.3-.00905.35031-.21315zm6.902 14.982c-.07717.0492-.1611.07232-.17231.11471-.082.30927-.36524.4842-.49555.74678a.72388.72388 0 0 0 .08579.846c.15754.13066.48837-.03078.69851-.19173a.65518.65518 0 0 0 .28421-.79208 5.94445 5.94445 0 0 0-.40066-.72367zm-8.61288-10.51185a6.98081 6.98081 0 0 1-.30188-1.5405c-.0078-.193-.31958-.12357-.481-.21161-.10439-.05693-.22945.07273-.18584.18361a5.08547 5.08547 0 0 0 .644 1.53167c.043.05139.15191.0605.23143.06423.05781.00274.11761-.03571.09323-.02738zm-19.9495 93.23056c.15542-.06358.22992-.09538.30537-.12472.62747-.24375.992-1.03986 1.821-.87073.02.00409.08589-.09642.08783-.14971.00343-.09417-.06659-.14869-.1588-.17379a2.13132 2.13132 0 0 0-2.05542 1.319zM149.73709 115.2a.79736.79736 0 0 0-.58708.21051c-.16077.10174-.47682.01347-.43216.3537a.6767.6767 0 0 0 .37592.56794.69368.69368 0 0 0 .67109-.10048c.30309-.21331.13288-.62246.28945-.92092.04905-.09359-.1991-.09127-.31722-.11075zM151.7 148.23584c-.26956-.16489-.13407-.633-.4798-.5876a.90058.90058 0 0 0-.81886.85754c.00564.4675.56057.18546.84848.33219.19578.09973.19659-.4341.45018-.60218zm-22.55689 18.99c.02785.17715-.0899.58459.29512.52641.57736-.08724.45687-.65106.54943-1.05921.03863-.17036.058-.35383-.16-.31189a.72882.72882 0 0 0-.68454.84464zm20.73574-2.41724c-.02814-.30794-.21242-.33165-.41062-.23033a9.21564 9.21564 0 0 1-.88565.532c-.17628.06759-.16566.318-.05212.45932.14137.176.42009.19624.49919.00881a.832.832 0 0 1 .61973-.47727c.09888-.03209.15581-.19344.22948-.29258zm16.58342-80.3269c-.27433.08989-.50469.16649-.49938.47471.00526.30676.158.67443.41359.63842a.97187.97187 0 0 0 .62587-.61835c.0968-.36727-.42619-.25048-.54008-.49483zm-14.42139 70.1895c.60618.18981.46406-.375.55586-.661.0481-.1498-.0695-.45931-.29642-.40607-.43277.10155-.49574.56874-.63907.89977-.10625.24541.1753.20551.37963.1673zm4.70967-68.07557c-.06366.26726-.08553.56382.33763.55327a.472.472 0 0 0 .46864-.521.55944.55944 0 0 0-.52769-.56264c-.24278-.00626-.42659.1976-.27858.53037zm19.14961 2.3862a.2078.2078 0 0 0-.22273.26443c.105.285.10261.67868.5349.71545a.267.267 0 0 0 .315-.319c-.03722-.38118-.34671-.51653-.62717-.66088zM142.96408 172.865c-.30377-.00948-.7339.25152-.7195.443a.35807.35807 0 0 0 .3922.32031l.02028-.00264a.76775.76775 0 0 0 .65887-.54c.06407-.23127-.20982-.2001-.35185-.22067zm4.55913-12.21114c-.04527-.16235.09408-.41846-.1888-.47285-.27534-.053-.92489.45109-.90913.70791.03512.57256.50545.15943.75711.276.3533.16374.316-.26059.34082-.51109zm34.39868-54.45586a3.83373 3.83373 0 0 1 .77945.99666.30323.30323 0 0 0 .36786.1858c.10077-.02211.12915-.08931.13167-.186a1.18971 1.18971 0 0 0-1.27898-.99646zm-40.98412 11.93042c-.10054.41012.08556.51764.43746.53055.22.008.42554.01516.40773-.25046a.87147.87147 0 0 0-.67561-.76427c-.27887-.06376-.07064.34639-.16956.48417zm4.69913-44.46494c-.32834-.13242.17873-.70693-.38125-.77575-.15615-.01918-.37168.05474-.2779.23388.14955.28572-.079.75479.393.86885.17848.04314.27148-.09128.26613-.327zm-1.3966 87.73307a5.35524 5.35524 0 0 0 .5987-.28928.69046.69046 0 0 0 .31128-.72115c-.05825-.21174-.40284-.19076-.63006-.19816-.15079-.00489-.36081.17593-.1742.27191.76412.39313-.07946.56174-.10576.93668zm1.72131 8.7113c.2545.0191.53149.03783.51713-.31206-.01725-.42085-.39746-.22439-.61137-.288-.23787-.07076-.52045-.048-.50732.2993.016.42367.41172.18059.60154.30076zm33.79655-69.075c-.02981-.20181-.06164-.38431-.08258-.568-.02118-.18587.04427-.40609-.14367-.52937-.11112-.07292-.20032.03144-.2286.14108-.06092.2363-.31619.45632-.12707.71432a.852.852 0 0 0 .58191.24194zm-15.94528-22.27237a.91169.91169 0 0 0 .51082 1.18383q.02471.00981.04992.01817c.1079.01928.24146.0261.271-.0914a.42439.42439 0 0 0-.07767-.293c-.18867-.28708-.54573-.40128-.75407-.8176zM135.46121 92.9022c.01186.15308-.1192.43218.13933.4005.21657-.02655.53574-.1855.54842-.44419.0094-.19172-.24744-.36217-.47509-.37433-.33145-.01767-.21823.23752-.21266.41802zm23.021.91151a.54708.54708 0 0 0-.46976-.50055.25512.25512 0 0 0-.27167.34346c.10755.22612.07833.61023.44741.61712.23625.00441.28335-.22282.29402-.46003zm-21.17363 91.504c-.60126-.319-.86868.10413-1.29489.27016.57994.43275.86143-.0063 1.29489-.27017zm-8.10314-95.42444c-.12661-.31484-.467-.35784-.75036-.47081-.10364-.04129-.2464.03679-.181.16507.12916.25326.08423.68927.57855.61084.17479-.02775.35126-.02415.35281-.30511zm14.08335 49.15781c.13691-.24362.03847-.373-.214-.39439-.255-.02159-.33764.14944-.34732.36982a.46459.46459 0 0 0 .39832.50988c.40274.01349.09787-.31967.163-.48532zm27.31489-46.7307a.30228.30228 0 0 0-.19465.34677c.01854.24646.14181.41176.40413.41015.19966-.00122.23678-.15648.23442-.31939-.004-.27417-.22411-.33789-.44388-.43753zm.80741 11.31656c-.5177 0-.83889-.00733-1.15938.00411-.10712.00383-.24257.07316-.21961.18851a1.017 1.017 0 0 0 .20247.38206c.10378.13868.20316.01359.2508-.05676.18129-.2677.52263-.2495.92573-.51793zm-7.79221-31.51135c-.13656-.002-.19459.05347-.20578.1483-.02534.21489.66428.71066.87308.63065.08874-.034.173-.11814.10722-.18683a1.93191 1.93191 0 0 0-.77452-.59213zm14.60657 28.47927c.0255.16391-.03356.39722.19266.42486a.27372.27372 0 0 0 .30391-.328c-.04917-.18616-.0412-.49784-.30141-.50895-.22423-.0096-.16611.25302-.19516.41208zm-11.64685-8.5576a.58463.58463 0 0 0-.5257-.47271c-.18356-.02587-.37861.06865-.378.25473.00094.30684.2478.42093.52032.44522.16521.01471.35352.0255.38338-.22724zm-24.08371 71.53122c-.01459.2409.14612.30143.32687.31143.22209.01227.29-.14476.30179-.33313a.28618.28618 0 0 0-.2829-.34914c-.27684-.02304-.28265.20398-.34576.37084zm24.16034-68.10768c.011.28675-.49018.37573-.26149.66455a.412.412 0 0 0 .53625.01809c.26638-.30062-.19279-.42036-.27476-.68264zm-49.762 18.28742c.17791-.29843.25338-.50614.03318-.69656-.08168-.07064-.25988-.054-.28312.03233-.06658.24727.1846.37312.24994.66423zM145.71 176.995a.83265.83265 0 0 0-.06194.92037 1.11292 1.11292 0 0 0 .06194-.92041zm-22.56457-68.22314c-.15278-.06189-.304-.12813-.45886-.18436-.13724-.04983-.41912-.193-.31341.099.10618.29328.49064.07693.77228.08539zM63.38656 91.18227l.0073.31094q-.05784.09181-.11552.18427a1.18321 1.18321 0 0 0-.67472.1931.37348.37348 0 0 0-.344.44394l-.30267.121c-.07033-.28552-.141-.57089-.23709-.95951-.18064.31523-.44728.44564-.52474.73484l-.28374.02034c-.218-.02121-.29536-.58982-.62911-.16188a.72357.72357 0 0 1-.54347.43251.547.547 0 0 1-.31224-.67115 1.43264 1.43264 0 0 0 .07215-.85892q.01615-.20784.03211-.41549c.531-.124.55739-.18281.282-.62923q.00226-.21809.00412-.4357c.21449-.03164.43425-.21212.39111-.3562-.20142-.67257.33464-1.29733.08783-1.95765q.018-.13434.03575-.26854c.19659-.06153.2113-.21489.19341-.38466a31.965 31.965 0 0 1 .07033-.14363c.24434-.37555.53169-.67.17775-1.21794-.28189-.43644.206-.94864.4752-1.24627a24.52708 24.52708 0 0 0 1.56726-2.13633 69.86958 69.86958 0 0 1 7.73519-8.857 49.64469 49.64469 0 0 1 5.63754-4.89252c1.51023-1.08722 2.88008-2.36958 4.46445-3.35749a15.83543 15.83543 0 0 1 3.45188-2.01042 12.52418 12.52418 0 0 0 2.50293-1.00877c.14882-.085.33114-.11642.42392-.28323 1.11084-.47191 2.121-1.15628 3.26517-1.55864a18.21324 18.21324 0 0 0 1.88519-.6589c1.42312-.68539 2.99537-.88065 4.45362-1.43285.51954-.19674 1.06061-.1595 1.58773-.30693 1.64936-.46132 3.219-1.1545 4.91786-1.495 1.30722-.26195 2.629-.48713 3.91771-.80214 1.00838-.24649 2.1365-.20708 3.02935-.92071.18635-.14895.54564-.08152.82517-.11345.346.14072.53636-.19637.81421-.26517.726-.077 1.4541-.13807 2.1772-.23623a9.24725 9.24725 0 0 1 1.68183.14844c.11293.00478.2488.03022.22246.16265a.324.324 0 0 1-.23513.18551c-.43522.04962-.57091.02426-.36789.632.18356.54946.43229.42927.73035.46273a7.07711 7.07711 0 0 1 1.41046.09085 1.75566 1.75566 0 0 1-.93409.7305 16.25019 16.25019 0 0 1-1.576.53056 15.34623 15.34623 0 0 1-1.80728.18035 13.89126 13.89126 0 0 0-3.27231.47689 22.8963 22.8963 0 0 1-3.11973.58439 3.31068 3.31068 0 0 0-1.65914.73559c-.61766.44533-1.14186 1.16835-2.05732 1.15625a1.1 1.1 0 0 0-.84629.4355c-.37536.52355-.96294.61-1.47039.86414-.43653.21863-.96109.25748-1.29587.68828-.16076.20687-.43049.14713-.6706.15556a1.689 1.689 0 0 0-1.58065.83531 1.30886 1.30886 0 0 1-.96351.59461 2.43359 2.43359 0 0 0-.83635.39561c.34982.42077.75428-.01543 1.09835.11427a.60252.60252 0 0 1-.37457.57523 4.736 4.736 0 0 0-1.62684 1.6407 1.225 1.225 0 0 1-.67907.58287c-.16526.0433-.28524.143-.21794.3282.07232.19892.25129.1559.38778.0988.55522-.23232.95719.32029 1.484.28192.13735-.01.0261.21557.011.33333a.12067.12067 0 0 0-.07161.07l-.42566.05487c-.56507-.07152-.90574.12265-.88272.74688a3.30523 3.30523 0 0 0-1.08821.46456c-.267.15863-.26889.309.03344.42907.09546.19094.18915.189.28089-.00309q.25447-.0084.50872-.017c.06791.17144.14643.23169.25.02317.07.00727.13993.01453.20926.022q-.10157.31485-.20192.62927c-.248.143-.4555.38937-.7905.30973-.28193-.16449-.30733.06726-.37076.24033l-.40577.00451q-.02529-.13-.05108-.26017a1.56993 1.56993 0 0 0 .04888-.90779c-.11462-.2997-.2397-.29606-.3743-.01249q-.2508.11509-.50161.2297-.15064-.01683-.30137-.03269c-.01229-.38755.41294-.5066.50756-.82793.215-.104.22513-.33347.0717-.40306-.2564-.11629-.34181.162-.44724.34029-.511.05864-.48707.61425-.79767.85874q-.31446.013-.62935.02627l-.15242-.42283q.00447-.19035.0086-.381c.06288-.492.60913-.61933.78475-1.04238.07129-.17164.38035-.31849.15191-.4989-.17283-.13648-.41677-.05055-.58741.19876a4.71707 4.71707 0 0 1-.65033.86422c-.53067.49038-.57418.52922-1.24131.398-.28723-.209-.57038-.46383-.91259-.08474a1.86947 1.86947 0 0 1-.93965.1409 1.25476 1.25476 0 0 0-.26023-.2626c-.38219-.20512-.15523.15734-.22183.24948a.37744.37744 0 0 1-.06351.0438c-.1918-.01073-.39447-.04836-.49149.18886-.30711.00373-.51761.2407-.79016.32725a.24235.24235 0 0 0-.25162.19538l-.147.06337c-.24874.05236-.22979.222-.17752.40628l-.03894.03846c-.24533-.06118-.35415.07937-.41948.284l-.263.062a.24082.24082 0 0 0-.261.19763l-.27256.0261c-.59918-.03325-.72994.22885-.52278 1.04841a2.34358 2.34358 0 0 1-.77269 1.06147c-.59826.44007-.90494 1.1444-1.44053 1.64521-.27131.2537-.12085.61573-.23062.92312a2.46979 2.46979 0 0 1-1.8043 1.48847 2.25725 2.25725 0 0 0-1.35714 1.07611c-.29583.48417-1.03057.72933-.91062 1.47947.04525.28306-.01453.40159.38961.2697a9.24352 9.24352 0 0 0 2.54241-1.63572c.34971-.25818.60627-.45453 1.02478-.17224a1.16462 1.16462 0 0 0 1.355-.118c.81468-.57676 1.9534-.77369 2.32207-1.91.07018-.21632.34509-.13238.53172-.13646a1.91538 1.91538 0 0 0 1.3694-.44864c.49456-.444 1.33583-.3804 1.71007-1.06794.03944-.07245.15753-.03585.2332.0223.0978.07516.03862.141.00121.221-.18173.38843-.45218.7778-.02376 1.18214a.12527.12527 0 0 1-.00675.12206 12.42276 12.42276 0 0 0-1.40706 1.858.25987.25987 0 0 1-.39888.05581.24182.24182 0 0 0-.36649.14083c-.11185.65815-.63125.67775-1.11858.80768-.129.0344-.57953.25531-.066.52069.28685.14824.04135.29689-.08781.36978-.22018.12425-.6184.22584-.37782.512.21669.25777.42619.69163.90342.617.28746-.045.57009-.12085.83621-.17876a.89936.89936 0 0 1-.7255 1.04469l-.04644.00712a.281.281 0 0 0-.19267.16162c-.1596.92859-1.166 1.07649-1.60636 1.74784a.97044.97044 0 0 0-.18072.46444 1.27492 1.27492 0 0 1-.6791 1.15264c-.49271.24125.12839.44326.04967.68814-.04873.15158.26541.27166.07161.45865-.15483.14939-.27584-.039-.41275-.04741-.36685-.02253-.73513-.02391-1.10289-.02818-.153-.00179-.32126-.00339-.35061.20173a.3379.3379 0 0 0 .26464.39732 2.86493 2.86493 0 0 1 .85362.2105c.12059.05912.28293-.23692.37773.0115.06968.18257-.13258.24145-.24046.34028a.28028.28028 0 0 0-.01925.45393c.32553.26588.06894.43722-.10208.55844-.31086.22033-.67254.30184-.74936.8206-.03575.24137-.64991.237-.85352-.001-.4-.46749-.882-.36267-1.367-.36718-.58184-.00538-1.02693-.02581-.97728-.88385a4.1297 4.1297 0 0 0-.59578-1.5917.52248.52248 0 0 0-.503-.24771 8.17678 8.17678 0 0 0-3.32162.25019c-.16359.06221-.39022.182-.48525.032-.3984-.62909-1.03447-.23352-1.53672-.393-.15555-.0494-.37844-.03791-.41822.19288a.75631.75631 0 0 0 .3.75038c.259.17446.18612-.18325.287-.279a.67812.67812 0 0 1 .93977.00418c.36081.26615.63152.47139 1.14746.20961a2.10691 2.10691 0 0 1 2.186.701c.20577.3443-.02708.52989-.214.7253-.18828.19687-.36875.2091-.47832-.10227a.22337.22337 0 0 0-.324-.123.77953.77953 0 0 0-.37745.55123c.15346.3602-.21829.40284-.26879.56779-.09462.30915-.37667.44046-.48574.73407a.64739.64739 0 0 1-.939.38768 4.83234 4.83234 0 0 1-1.1876-.75492c-.33613-.28068-1.25527-.45578-1.51947-.14614-.27069.31724-.66533.4301-.92878.75074-.15825.19261-.5582.80658-.73529-.08307-.07573-.38047-.83162-.47519-1.06176-.14267a.72771.72771 0 0 1-.699.349c-.25415-.03972-.16339-.35549-.17015-.56479-.00419-.12931.01651-.27427-.15046-.317-.14747-.03771-.24025.067-.33232.16006A11.00943 11.00943 0 0 0 63.6193 90.814c-.15423.07405-.37141.10873-.23274.36827zm30.30267-28.45085c-.11894-.35879-.24265-.16073-.366-.00313a.49788.49788 0 0 0-.28649.44439c-.00553.35258-.2452.38475-.518.36354-.10194-.15161.00946-.26694.06658-.3915.21029-.12386.25113-.249.00274-.37615l.17916-.33038c.18707.05141.34925.04875.40447-.18622l.03057-.0303c.26268-.08892.52875-.16909.787-.26932.23687-.09191.28125-.40251.10306-.41531a1.68233 1.68233 0 0 1-.973-.32282c-.06424-.04933-.17483.08764-.194.20465-.57259.06478-.86393.5879-1.33451.8189-.09052.00189-.17879.02555-.16889.13221.00414.04463.0782.08278.12047.12388l-.00863.24483c-.2054.11863-.18489.20748.03558.27l.062.30545a1.80533 1.80533 0 0 0-.51037.03314c-.209.07517-.57017-.01225-.59289.28563-.02466.32313.32435.34025.56221.41928-.16755.17906-.575.24427-.36438.60443.07631.13047.32636.05532.47292-.03616.15925-.09937.3677-.22258.32547-.42938-.04556-.22318-.28462-.10295-.4383-.13585a.90694.90694 0 0 1 .52362-.28619q.20179.00717.40329.01448c.15728.05852-.04238.55972.37172.29973.47235-.05424.95127-.09844 1.06536-.69884.25554-.01692.56186.38015.7614-.0934a1.85543 1.85543 0 0 0 1.203-.42821c.16-.08536.30563-.175.10752-.36565.038-.26469.2186-.26951.42251-.23187.10591.144.277.09146.41572.13619.13446.04335.32224.16636.3852-.03484.06173-.19729-.14123-.31417-.30178-.35045a3.66656 3.66656 0 0 0-.64058-.0373.93222.93222 0 0 0-.981.54043.93865.93865 0 0 1-.7245.54471.41983.41983 0 0 0-.38231-.3068zm-1.99307 3.404c.2293-.11658.26456-.32882.06272-.43094-.20116-.10179-.2491.15177-.30718.30542a1.47065 1.47065 0 0 0-.28474.15573c-.15287.13279-.40167.23108-.255.51464.07735.14959.12227.37176.34037.33458.2501-.04263.19867-.29.24711-.47206a2.28246 2.28246 0 0 1 .19673-.40741zM76.33851 73.3845c-.09072-.24574-.01238-.72878-.5289-.37678-.248-.09321-.39479.09432-.55611.21489a.28518.28518 0 0 0-.11873.38379c.1.16054.25365.10164.39122.03l.16749.32082c-.09373.07853-.14677.17618-.01265.24724.175.09273.38821.15323.51983-.04431.15189-.22798.45213-.45535.13785-.77565zm1.17781-1.75413l-.00216.00554a.697.697 0 0 0 .55149-.11605 14.16357 14.16357 0 0 1 2.67779-1.55c.48112-.20369.20054-.78144.57379-1.04541.09169-.06485-.13182-.1744-.25114-.19638a.99712.99712 0 0 0-.92182.17974c-.44155.502-1.08731.69454-1.55592 1.144a1.18151 1.18151 0 0 0-.37236.51239c-.61394.14-1.2251.28354-1.33631 1.05835.00509.14177-.06945.3469.15049.36219.23283.0162.48394-.01874.48615-.35437zm12.26346-5.42166c.21276-.01656.42562-.03179.6382-.05006.20494-.0176.41247-.06685.37234-.32762-.03972-.25815-.27129-.22158-.46226-.22478-.23779-.004-.34825.24123-.56139.2847-.506.2508-1.01865.49594-1.023 1.18122-.001.15142-.01583.31308.14322.40152.17437.09694.25394-.0803.38-.13221.54391-.22387.39649-.73306.51289-1.13277zM79.47331 84.21937c.32709-.06795.35121.14042.35707.38022.003.12188-.01313.28486.16581.29717.15567.0107.20129-.14058.26294-.24919a1.84009 1.84009 0 0 0 .04875-1.43522c-.03191-.12725.10988-.3058-.12255-.36378-.16974-.04234-.26632.06164-.38707.167a1.72662 1.72662 0 0 0-.52095 1.00766c-.18776.07516-.41507.18454-.20173.39786.21311.21308.32292-.01339.39773-.20172zm-9.95414 1.34516a2.73629 2.73629 0 0 0-.33445-1.07068c-.14142-.25259-.32039-.34154-.48742-.08852-.197.29844-.3313.12294-.432-.027-.149-.22193-.37294-.57328-.12667-.73293.36715-.238.846-.2954 1.22021-.57111.08659-.0638.20014.03.25117.14206.25632.563.4316.31809.597-.05925.13974-.31887.35344-.68808.70535-.583.23223.06936.38824.15184.54687-.03218a.5124.5124 0 0 0 .00744-.555 1.85323 1.85323 0 0 1 .74233-2.45252c.81083-.50839 1.04032-1.52515 1.84771-2.02255a.07442.07442 0 0 0 .02355-.05882c-.05389-.74469.54231-.95286 1.025-1.26825.2176-.14219.66546-.3275.48578-.55925-.23055-.29734-.63169-.09542-.8982.17527a1.99774 1.99774 0 0 0-.18275.186.52229.52229 0 0 1-.80049.0941c-.27642-.2-.57276-.44827-.86775-.192a1.55686 1.55686 0 0 0-.68009 1.19749 1.455 1.455 0 0 1-.44377 1.20867c-.21543.2316-.46564.42641-.11153.74417.09479.08506.03241.209-.07243.26893-.08369.04787-.15264.00365-.22166-.067a.71583.71583 0 0 0-1.198.1028.98711.98711 0 0 1-.38479.33622 6.24571 6.24571 0 0 0-1.9729 1.58253c-.14386.13813-.21076.29592-.07968.45687a.336.336 0 0 0 .47354.03685 4.04053 4.04053 0 0 0 .98874-.73607 3.46769 3.46769 0 0 1 .65708-.52565.47309.47309 0 0 1 .66539.06991l.02286.03069a.5114.5114 0 0 1-.19844.6554 4.93448 4.93448 0 0 1-.8427.486c-.33885.14359-.80484.15483-.37423.71072.11668.15064-.11154.251-.21608.34594a5.57 5.57 0 0 1-1.41532.79057.92384.92384 0 0 0-.42733 1.16606c.10836.31324.48422.83741.96649.66455.56011-.20077.65136-.03147.62561.45809-.02054.3907.25618.583.51816.36074.18012-.15277.26923-.50625.3984-.66885zm26.72016-24.51166a3.68567 3.68567 0 0 0 2.21779.02066c.80677-.2502 1.0009-.9743 1.55384-1.38737.13893-.10378.009-.47528-.27646-.54554-.13343-.03283-.44957-.08242-.39122.13441.1914.71119-.27507.58973-.65113.56125a1.33632 1.33632 0 0 0-1.18261.40924 2.14623 2.14623 0 0 1-1.27021.80735zM74.74149 84.37581a.41232.41232 0 0 0-.37491.27565c-.11553.3355.23328.42717.35061.63912.1036.18717.2648.1916.49247.07321.34581-.17981.533-.63149.94928-.62858a2.037 2.037 0 0 0 1.05368-.42536c.41787-.2366.17266-.41726.02337-.64131-.21552-.32347-.42756-.07541-.49408.06477-.21219.447-.79564.321-1.00064.65279-.35253.57067-.60923.20454-.90912-.00244-.01532-.01057-.04226-.00431-.09066-.00785zm9.75315-17.04347c.65838.148 1.04612-.5339 1.647-.71173a.287.287 0 0 0 .12957-.38465l-.00136-.0027a.32027.32027 0 0 0-.41566-.06643 2.419 2.419 0 0 1-1.56118.59523.28644.28644 0 0 0-.275.365c.05454.20068.21341.25383.47663.20528zm1.88157-2.0521c-.04326-.19719-.08358-.44088-.27494-.48925a.89587.89587 0 0 0-.95.23989c-.06665.07492-.23407.0746-.21016.2109a.21187.21187 0 0 0 .25686.14485.766.766 0 0 1 .7367.21637c.21181.18621.43327-.01769.44154-.32276zm-9.92965 16.89247a1.002 1.002 0 0 0-.12236-.13353 1.18357 1.18357 0 0 0-1.3652.41982c-.05738.19525-.02159.37018.23413.335a4.88489 4.88489 0 0 0 .87922-.189.58753.58753 0 0 0 .37421-.43229zm.77134-12.44144c-.05845-.06426-.09077-.13332-.13772-.14534a.38278.38278 0 0 0-.4065.14255 2.41315 2.41315 0 0 1-1.07663 1.04606c-.19329.08738-.137.28875.01664.42913.1698.15514.32431.1342.40607-.07493.06959-.178.23-.24063.34175-.36015.30238-.32334.56738-.68159.85639-1.03732zm10.71063-4.80953c.43084-.29178.74788-.48453 1.03936-.71031.27146-.21029.03074-.528.11724-.78988.03631-.11-.10244-.166-.22039-.16782a.47068.47068 0 0 0-.46071.29762c-.1616.39983-.28587.81474-.47552 1.37039zm4.75094-5.20944a2.78581 2.78581 0 0 0-1.53147.3467c-.15776.0584-.51722.045-.33361.398.17453.33543.4291.14405.59877.01214a12.62407 12.62407 0 0 1 1.26629-.75681zM74.23315 71.86488c-.3508.52817-1.10553.46418-1.44291 1.03466-.04584.07753-.09436.15876-.00669.22589a.222.222 0 0 0 .17788.034 3.59643 3.59643 0 0 0 1.42327-.97972.20886.20886 0 0 0 .04513-.17357c-.0141-.04448-.09067-.06914-.19668-.14126zm19.09867-6.66925c-.36155.05738-.44184.387-.633.60238-.15831.1784-.19409.36363.03177.48072.2479.12851.42948-.02733.48886-.25914a6.812 6.812 0 0 0 .11237-.82396zM78.344 68.1336a.21463.21463 0 0 0-.30536-.14554 1.21476 1.21476 0 0 0-.71536.8402c-.05491.156.11754.205.24847.21583a3.60389 3.60389 0 0 0 .77225-.91049zm5.29042-.06417c-.23732-.01657-.38169.07995-.37439.2874a.37758.37758 0 0 0 .44474.3704c.23931-.01425.55962-.11042.54123-.35738-.02467-.33122-.4412-.15085-.61159-.30042zm11.25193-6.62468c.27047-.03955.59272-.05723.68708-.36543.06617-.2162-.1653-.26068-.34487-.26933a.621.621 0 0 0-.65149.43206c-.07879.234.171.16938.30927.2027zm-8.631 5.88465a2.67727 2.67727 0 0 0 1.15062.093.27173.27173 0 0 0 .26256-.28062l-.00243-.02837c-.02344-.20974-.20557-.16365-.35071-.17926-.35368-.038-.57358.23135-1.06007.39526zm28.41342-13.261c-.00969-.16173-.1216-.20353-.26017-.20006-.43561.01089-.40792.48839-.66726.68523-.04686.03556.08538.19609.20281.1764a.90937.90937 0 0 0 .72459-.66156zm-33.9266 24.859a.86949.86949 0 0 0 .44867-.57889c.0465-.15081-.06285-.25684-.21908-.22322-.32292.0695-.39369.37555-.50824.62-.05763.123.07138.17578.27862.18214zm-1.42734.58818c.28589.34773.37288.72349.78878.6151a.28032.28032 0 0 0 .208-.33748l-.00367-.01387c-.1698-.50837-.56858-.12845-.99312-.26369zm-5.52147 3.67922a.28759.28759 0 0 0-.34782-.21078l-.02649.00786a.72518.72518 0 0 0-.58793.67029c-.0116.12188.1277.26915.25776.21965a1.67631 1.67631 0 0 0 .70446-.687zm13.20987-19.9463c.38836-.07367.75113-.10577.877-.54319a.13189.13189 0 0 0-.11592-.18682c-.414-.02722-.58957.28508-.78193.56837-.00886.01314.00428.04114.02082.16167zm-6.15084 7.782c-.03238-.22062-.19848-.26783-.37262-.25625-.17717.01178-.338.09143-.34613.30352a.321.321 0 0 0 .36274.35131c.2387-.0017.27307-.23046.356-.39852zm-6.86905 9.612c-.36865-.16446-.61795-.25679-.79712.03061a.54622.54622 0 0 0 .08507.75226c.02436-.468.3106-.61737.712-.78286zm.1467 3.424c-.38794.2713-.65091.43981-.75734.76232-.006.01828.09564.1074.13073.09852.35307-.08935.45986-.38969.62657-.86088zm5.72785-12.6974c-.008-.08532-.03514-.21882-.16343-.19072-.13314.02916-.291.09192-.30244.27629a.18656.18656 0 0 0 .1629.20755.18464.18464 0 0 0 .02617.00129c.18161.01294.26891-.0929.2768-.29441zm8.9315-5.81848c.011-.10881-.02414-.17732-.12558-.19153a.35733.35733 0 0 0-.40341.23311c-.05111.11707.00057.229.13165.21488a.46247.46247 0 0 0 .39736-.25646zm-5.664 1.311c.31549.06746.525.12722.62163-.15261.02277-.066-.01432-.22061-.04287-.2256-.24485-.04272-.34893.16011-.57872.37822zm4.69549-1.80288l.04808-.02723c-.01378-.01167-.02695-.03165-.04151-.03271-.01526-.00112-.03181.01592-.0478.025zm-35.11047 74.70711c.01875.106-.0005.2649.06206.30976.72988.52334 1.00306 1.44009 1.7873 1.95242a1.66852 1.66852 0 0 1 .95222 1.76778c-.03.13879-.04311.33336.11766.41179.213.10392.21016-.12569.30425-.22509.2108-.22265.47861-.13177.69243-.00766a.87393.87393 0 0 1 .49185.79134 1.23517 1.23517 0 0 0 1.2472 1.40089.327.327 0 0 1 .22264.21131c.12481.96444.79212.53059 1.255.452a.54038.54038 0 0 1 .64484.39424c.178.65253.702 1.06185 1.00981 1.61588a2.15779 2.15779 0 0 1 .30348 1.47469c-.06144.3316.04642.50065.39793.4965a1.7836 1.7836 0 0 1 1.46257.87485 6.95642 6.95642 0 0 0 1.33873 1.10567 8.29663 8.29663 0 0 1 2.10863 2.75558 4.6401 4.6401 0 0 0 1.81614 1.88879c.14485.07749.37637.12345.382.322.02742.96809.72616 1.73612.77873 2.69954a1.5612 1.5612 0 0 1-1.12814 1.2188c-.19017.01449-.37345.00813-.41741.20817-.10209.46452-.24421.7899-.83734.59363-.16327-.054-.17736.20207-.14676.35409a5.66905 5.66905 0 0 0 .4403 1.67115 3.21264 3.21264 0 0 1 .29776 1.36326 9.57266 9.57266 0 0 1 .06565 2.21556c-.06168.36608-.28237.5748-.559.2723a5.86871 5.86871 0 0 0-1.96759-1.16521c-.18962-.09181-.41471-.20889-.61576-.06549-.26281.18744.09479.38412.02858.58557-.51792-.21081-.73017-.71832-1.0463-1.11366a60.81289 60.81289 0 0 1-5.2619-7.72579c-1.00155-1.74525-1.99875-3.48738-2.838-5.31654-1.0425-2.27222-1.94874-4.599-2.847-6.93185a61.38762 61.38762 0 0 1-2.58342-9.36649 9.82879 9.82879 0 0 1-.30971-1.78552c-.004-.159-.08666-.389.13917-.4474.1578-.04082.24907.13641.34131.25791a1.94 1.94 0 0 1 .601 1.40612c.44537-.90795-.14572-2.12824-.94141-2.17966-.20225-.01308-.24316-.11578-.31409-.25662a3.73148 3.73148 0 0 1-.3208-1.25684 62.798 62.798 0 0 1-.55018-10.38256c.00407-.08674-.001-.17389-.00174-.2613.32576-.19352.27831-.52067.2614-.81263a32.03752 32.03752 0 0 1 .32632-3.296 2.42533 2.42533 0 0 1 .69282-1.44429c.19844-.23212.28693-.36747.55917.00737.2829.38952.41026.54218.12017 1.07238a2.67909 2.67909 0 0 0-.20376 2.52688l.38066-1.18014a1.45927 1.45927 0 0 1 .42054 1.40107 1.917 1.917 0 0 0 .23589 1.49568 1.3896 1.3896 0 0 1 .23049.799 1.72223 1.72223 0 0 0 .62168 1.37277 1.69574 1.69574 0 0 1 .471 1.41285 1.735 1.735 0 0 0 .22957 1.18712c-.78-.13445-1.12126-.73156-1.47561-1.29844-.15907-.25451-.31964-.51612-.6447-.39389-.27959.10513-.30757.40573-.24.66951.02945.11483.11012.33144.30967.11824.349-.37288.45251-.03753.48913.20906a1.113 1.113 0 0 0 .6996.89676 2.848 2.848 0 0 1 1.03842 1.2166c.46368.82921.23756 1.74411.64878 2.5244a.466.466 0 0 1 .02312.19246 5.79154 5.79154 0 0 0 2.13268 4.65318c.26436.26686-.15731.429.00578.63881.68078.87575.61193 2.04918 1.17614 2.97128q.03534.1066.0713.21392l.00409.68078a.53342.53342 0 0 0 .01362.6171 1.38858 1.38858 0 0 0 .24075 1.02721c.32177.469.39546.96536-.27505 1.261a.54142.54142 0 0 0-.29205.32992c-.2109.07772-.17334.40813-.43806.43175-.65-.542-1.39517-.97031-1.70288-1.86453-.08481-.24646-.559-.4913-.83718-.58968a1.71278 1.71278 0 0 1-1.07367-1.37045c-.0553-.19508-.24958-.23184-.33026-.38287a1.63238 1.63238 0 0 0-.043-1.13909 10.19738 10.19738 0 0 1-.61423-2.21054c-.19544-1.01755-.837-1.81911-1.03346-2.80241-.02352-.11779-.12786-.26612-.28-.19429-.15117.07136-.08406.21217-.02408.33386.26127.53.38672 1.10666.65947 1.64584a18.437 18.437 0 0 1 .76159 2.55634 2.66376 2.66376 0 0 1 .26575 1.66431l-.61529-.89339c-.32388.62585-.12787.96857.43099 1.16128zm12.99413 26.646a1.72991 1.72991 0 0 0-.6062-1.32439.52125.52125 0 0 1-.18094-.714c.19883-.4914-.09639-.83675-.62619-1.00092-.0943.31536.09237.48313.2369.66318.11.137.23179.275.191.46282-.18334.84452.34917 1.30868.98543 1.91331zm-12.85566-37.59714a4.28414 4.28414 0 0 0 .3633-.75151.38066.38066 0 0 0-.32523-.47731c-.26586-.02637-.18766.23976-.18368.38624a1.29638 1.29638 0 0 0 .14561.84258zm3.304 7.43558c-.01138-.17125.00165-.3672-.2385-.38646-.171-.01373-.30638.06894-.29509.25842.01352.22641.11644.45037.35122.47449.2027.02081.16556-.20299.18237-.34645zm-3.97872 2.11162c-.028-.082-.03427-.15026-.07152-.18746-.017-.017-.12957.017-.1378.04555a.20634.20634 0 0 0 .03763.16567c.017.02046.0975-.01174.17173-.02376zm90.72559-81.50809c-.41374.57237-.9301.139-1.35962.079-1.19328-.16667-2.32394-.65715-3.539-.75552-.21764-.01762-.47276-.09353-.40869-.38694.07561-.34626.315-.06471.47313-.06921a2.99268 2.99268 0 0 1 1.09158.15464q1.87173.48936 3.7426.97803zm-88.12251 39.6329c.38382.04982.2503.27819.1408.4615a2.12291 2.12291 0 0 0-.29622.91295.24754.24754 0 0 0-.22849.22376l-.03626.03983c-.3062.11882-.54943.13492-.33345-.29641.22938-.45813.50064-.89535.75362-1.34163z" class="cls-3"/><path d="M65.241 167.705a.43412.43412 0 0 1 .4049.45539c-.20115-.09281-.41115-.1782-.4049-.45539zm47.12636-92.59416q-.22833.20979-.45626.41947c-.4871.08056-.23387.49022-.33035.74455l-.27568.02884c-.13243-.12162-.20152-.04779-.25233.08219l-.18352.19536c-.26116.09759-.182.32035-.18759.512-.08905.286-.38915.34765-.56978.53592-.33087.14292-.36405.47792-.48651.75544-.26743.302-.51521.7284-.92228.14588-.11322-.297-.24122-.3077-.3845-.01949l-.02317.0368-.22274.13406a1.25264 1.25264 0 0 0-.66568.02112c-.415.04609-.49942.32964-.506.68433-.0045.24437.072.53683-.28116.63057-.4431-.53765-.556-.17289-.652.23832-.1555.13964-.46411.0669-.506.36434-.10635.0748-.20493.19568-.3206.21518-.27329.04607-.59886.00724-.48428.44642a.67936.67936 0 0 0 .7702.55c.12451-.00855.24336-.095.36813-.1053a.346.346 0 0 1 .3684.29841.23856.23856 0 0 1-.25929.29888 3.62377 3.62377 0 0 0-1.31778.40824 2.76262 2.76262 0 0 1-1.96653-.69372c-.15664-.31717-.33843-.28589-.46665-.06028a1.11829 1.11829 0 0 1-.97866.6285 1.16047 1.16047 0 0 0-.61957.437.9103.9103 0 0 1-.8359.21868c-.21576-.01456-.64728.17272-.61574-.36692.00541-.09242-.22165-.31563-.342-.21856-.61523.49613-1.4047.07012-2.03351.41764-.3814.21078-.75187.44207-1.12033.67511-.10823.06845-.181.23241-.28988.25434-1.25277.25235-2.007 1.36792-3.15 1.807-.13894.05337-.27224.20222-.395.03207-.09143-.12676.04277-.23637.12372-.3357.41258-.50627.17418-.67519-.35862-.69375-.23488-.00818-.45955-.15481-.25741-.34223.34894-.32354.26967-.75494.42656-1.1186.13833-.32064.121-.756.61468-.80326.08217-.83754.81385-.83985 1.3601-1.13531.32383-.17515.43448-.66652.28857-1.215.58956.42933.8561.30641.7975-.31778-.04415-.47019.269-.43316.54723-.38745.31.05092.56878.07886.64168-.31893.02124-.11582.11055-.23134.21115-.21831.51323.06652.72408-.44416 1.10164-.56875a10.0565 10.0565 0 0 0 3.2168-2.36753c.06385-.05445.14483-.13067.15213-.20336.12489-1.24518 1.30848-1.57635 2.00076-2.32972a7.45938 7.45938 0 0 0 1.40764-1.56173 1.036 1.036 0 0 0-.03872-1.0989c-.0989-.15409-.39508-.2844-.064-.51052.23407-.15986.34274-.14188.48481.13233.13382.25831.39305.07792.57863.00049.16172-.06747.38732-.06488.41562-.33831.0818-.79062.53387-1.0085 1.16455-.577a1.31517 1.31517 0 0 0 1.77809-.12556c.09382-.07621.14463-.03588.22066-.00318.49555.21324 1.17967-.12069 1.5295.52592a.12591.12591 0 0 0 .11911.00986c.73652-.68815.44793.23567.65912.36829.296.18588.57769.55692.97251.493a8.06363 8.06363 0 0 1 2.20559.32318c.33364.03466.381.35579.54805.59333-.66758.28708-1.27253-.73291-1.96913.08194.68345-.12593.47429.73581 1.077.82711.16143.02445-.318.30518-.375.54969-.17852.017-.37935.04036-.14236.26175a1.98533 1.98533 0 0 0 .42412.23758l-.25821.41413c-.21212.04451-.21083.20911-.20951.37372l-.42228.2872a.37594.37594 0 0 0-.37774.33897zM163.38 168.78761c.00016.21735.00348.43476-.001.652-.00319.15646-.00478.33653-.24564.25207-.4051-.14209-.41862.18088-.49853.41385a10.04124 10.04124 0 0 1-1.10529 2.50557c-1.04042 1.50259-1.90427 3.12044-3.05186 4.55424a5.20276 5.20276 0 0 1-2.555 1.60045c-.37014.126-.58079-.08287-.53492-.41485a2.87558 2.87558 0 0 1 1.01431-1.98368 2.1877 2.1877 0 0 0 .82445-1.811 2.05427 2.05427 0 0 1 1.16363-2.10161 12.51686 12.51686 0 0 0 3.33623-2.64809 9.56336 9.56336 0 0 0 .977-1.582c.11489-.18821.10488-.538.43572-.47726.38127.07.20247.41618.23733.64958a2.692 2.692 0 0 1 .00357.39073zM89.27959 77.11685q.15318-.26171.30613-.52321c.206-.091.20768-.18268.00022-.27469l-.07479-.14823c-.16545-.26588-.33384-.25956-.50473-.00484q-.19934.17958-.39865.35871.00183-.40272.00353-.80452c.53544-.23339.747-.7843 1.1735-1.273.04.39962.03478.82766.42546.79139a.70965.70965 0 0 0 .67778-.67134c.11246-.053.26435-.12973.13358-.25628-.14077-.1362-.19293.03817-.24356.14364-.4736.06362-.842.02372-.679-.62172a.28687.28687 0 0 0-.23736-.3926c-.24978-.033-.36691-.14969-.26945-.38862a.43264.43264 0 0 1 .44839-.31276.44119.44119 0 0 1 .44556.39023c.10587.8478.115.8562.85676.44072a.61276.61276 0 0 1 .55816-.06973c.52175.284.91474-.03928 1.326-.235.992-.47207 1.56-1.43886 2.39619-2.09571.204-.16024.39032-.34314.596-.50093.26544-.20362.44333-.39939.02765-.624-.10946-.05915-.19639-.22172-.14145-.24964.71328-.36255-.06312-1.24.63765-1.60131.19438.68537.67706.628 1.2891.47389a2.18592 2.18592 0 0 1 1.49865-.1473c.10913.04821.28732-.00373.28692.17817-.00035.15026-.14556.215-.26924.24678a1.92108 1.92108 0 0 1-.7.12729c-.72093-.10358-.84483.15483-.93856.96739-.02137.18532-.02555.35836-.168.45436a6.7988 6.7988 0 0 0-1.10858 1.299c-.54541.60626-1.26635 1.01723-1.77318 1.57376a6.83965 6.83965 0 0 0-1.48881 2.20153 1.203 1.203 0 0 1-1.415.94449l-.02152-.00449a2.20578 2.20578 0 0 0 .79673-1.11191c.04511-.12779.25229-.22109.0737-.37932a.47293.47293 0 0 0-.4133-.11924 2.53932 2.53932 0 0 0-1.29149.66448c-.55437.46133-.71689 1.20733-1.29891 1.62413a1.43223 1.43223 0 0 1-.28624.12272.2067.2067 0 0 0-.21862-.194zm20.62369 27.12615l-.20207.01474a.13436.13436 0 0 0-.07858.066c-.4504.44631-.594-.24055-1.00679-.20947.378-.406.87307-.63315.80974-1.23887-.023-.22026.1957-.286.36663-.12439.42118.39808.54534-.0119.60636-.26448a1.42224 1.42224 0 0 0-.05361-1.0778c-.04088-.07149-.11622-.17971-.0915-.22394.50984-.9121-.13182-.895-.88472-.88481.81973-.81415.20337-1.6668.2619-2.48548.0467-.65328.43163-.84.90424-1.1595-.02317.33261-.29061.35056-.35388.5366a.76636.76636 0 0 0 .00065.69008c.15182.21749.28066-.091.43809-.09339.25569-.00392.58183-.1315.744.07675.22159.2845-.17855.42921-.28653.64149-.13658.26856-.47116.29-.70118.4507-.34934.24411-.3549.46289.00787.6885a1.863 1.863 0 0 0 .53617.22362.64551.64551 0 0 1 .50721.66149c.02218.36946-.18022.86679.44234.97358.01377.00235.03653.04338.03153.05108-.3654.564.24955.91967.28662 1.38409.032.40074.11461.61644.55874.58036.20336-.01652.46618-.07345.53653.227.0671.2865-.21681.27591-.36019.37894a1.48726 1.48726 0 0 0-.47808.524 3.0769 3.0769 0 0 0-.54982.13806c-.15108.06737-.16565.18589.0257.25209q.05324.13818.1067.27625a1.30306 1.30306 0 0 1-.77921.11308 1.43585 1.43585 0 0 0-1.33224-.009c-.08128-.03547-.16283-.07023-.24437-.105.03542-.33354.45643-.2518.55556-.51612a.47067.47067 0 0 0 .19148-.77542c-.23469-.27903-.36963.06927-.51529.21917zm-9.68547-40.239c-.37715.20821-.80685.069-1.19935.18113a1.90912 1.90912 0 0 0-.44185.10038c-.44744.26635-.86808.64635-1.41.11239a2.06976 2.06976 0 0 0 .79486-1.26627 1.077 1.077 0 0 1 .97573-.83537c.20655.2705.564-.08828.77017.1847-.00578.18021.06771.27651.2607.24633.19922-.00523.43475.07839.5177-.21147.37715-.21906.56076-.87209 1.18805-.53025.11058.3114.23847.325.3846.02188.27888-.3644.603-.56321 1.05609-.28847a.55431.55431 0 0 1-.26118.49758.54156.54156 0 0 0-.47258.13313c-.12287.2462-.47946.06755-.59558.327-.40564.26176-.68406.78947-1.29586.61983-.45824.09454-.18043.47178-.2715.70748zm5.56674 24.94878c-.19043-.11338-.36669-.181-.52362-.06742-.54738.39628-.822.13546-1.21283-.31464-.42769-.49256-.09128-.85588.05387-1.19371.16524-.38453 1.232-.61161 1.62611-.40278a1.92082 1.92082 0 0 0 1.19653.04648c.245-.02511.52279-.02813.524.19825.00171.30886.37056.57733.09332.90071a3.14768 3.14768 0 0 1-1.75738.83311zm2.51339 11.60027c-.01223.20294.0242.36828-.03192.41045-.56477.42441-.44965 1.09833-.63253 1.66036a.46051.46051 0 0 1-.34593.33409 8.9356 8.9356 0 0 0-1.4807.548.495.495 0 0 1-.74167-.33459c-.0868-.24282.204-.39911.494-.4466a.66075.66075 0 0 0 .33592-1.08074.45866.45866 0 0 1-.11879-.57436c.10744-.27656.28748-.07363.46975-.034.35464.077.55283-.1608.58371-.49677.07333-.798.686-.31594 1.03261-.41762.36303-.10655.47361.19273.43555.43178zm-32.59182-9.22384c.56315-.16233 1.33989-.10467 1.836-.78658.11774-.16185.23614-.081.24662.15747.02431.55238-.24662 1.17653.38021 1.60533.11531.07889-.10067.20443-.1513.31424-.13575.29442-.54032.3788-.576.75937a.177.177 0 0 1-.26007.11625.67822.67822 0 0 1-.41446-.4656c-.17203-.71902-.97031-.9793-1.061-1.70048zm32.08535-23.81265c.39123.09259.58664.61093 1.074.494.3932-.076.917-.008.66738-.71939-.04048-.11538.02386-.52481.41068-.34742a.49258.49258 0 0 1 .05881.04454c.09416.41549.10633.42673.38717.35753a.61453.61453 0 0 1 .565-.02723q-.00785.38769.37877.35443c.207.59414-.51275.7939-.56354 1.29158-.00655.06421-.35031.05118-.40132-.0716-.24025-.57824-.71061-.34044-1.11171-.35469-.20475.16365-.511-.16983-.68613.13965q-.25138.00719-.50255.01452c-.12968-.38302-.81966-.63442-.27656-1.17592zm-1.70028-6.4362a8.55125 8.55125 0 0 1-1.90207 1.02444c-.193.06932-.31015-.11647-.38243-.27632-.50875-1.12476-.507-1.12506.7329-1.38258a.39385.39385 0 0 1 .36723.06964 3.4907 3.4907 0 0 0 1.18437.56482zm79.11021 67.29198a2.33865 2.33865 0 0 1 .537 3.0167c-.39898-.30113-.63569-1.55604-.537-3.0167zM54.2431 112.31527c-.32176-.3033-.36516-.725-.74141-.93929-.12177-.06933-.14061-.18689-.09172-.33731a8.29924 8.29924 0 0 0 .2616-.98851c.03556-.18425.05284-.36654.28239-.35245.25639.01573.28825.224.28862.43064q.00201 1.09346.00052 2.18692zm78.62445-36.8408c.16779-.24144.03379-.64995.3104-.961.13926-.1566.34509-.35289.1797-.633a.20629.20629 0 0 1 .07834-.281l.00307-.0017a.18162.18162 0 0 1 .16412.0353.32849.32849 0 0 1 .09335.37385 17.21405 17.21405 0 0 0-.26788 2.009c-.01286.143.1133.30406-.14.31517-.18172.008-.35565-.02794-.38061-.25714-.01871-.17159-.0239-.3446-.04049-.59948zm-28.12475-7.25664l-.05413-.30327-.0009.00332a1.36639 1.36639 0 0 1 1.07032-.45867l.1588-.013c.287.755.5699.08.85429-.00245a.3371.3371 0 0 1 .12729.50116c-.104.01615-.25175-.00621-.305.05443-.49156.5595-1.09682.38869-1.6935.28872zm-5.44522-.47699c-.36679.13574-.77053.28021-1.17022.43515-.20034.07765-.415.11873-.46321-.13952-.03952-.21149-.06343-.469.2805-.54781a6.06218 6.06218 0 0 1 1.97866-.0215c.1652.01628.31292.076.27839.27349-.04231.242-.2114.13556-.35319.10328-.16799-.03821-.3388-.06405-.55093-.10309zm18.91784 52.18834q.05243-.25574.10444-.51133c.19726-.093.19892-.18653.00024-.28051-.22615-.33229-.5991-.698.18228-.80056q.13159.0001.26346-.00026c.35465.20054.19692.52891.20378.81612-.04812.0313-.12651.054-.13865.09594-.0294.10144.04879.14052.13852.1537.04864.388.11174.78416-.46462.81594q-.13308.00019-.26644.0008l-.02333-.02346q.00039-.13308.00032-.26638zM88.70894 70.99423a2.03828 2.03828 0 0 1 1.61281-.7018c-.08625 1.15003-.50466 1.32876-1.61281.7018zm33.14995 50.84829c.76645-.14117 1.37326.09157 2.01335-.00714.611-.09423.1877.53257.45744.89562a16.70811 16.70811 0 0 1-2.47079-.88848zm-63.66742 22.6676c.134-.203.25026-.17464.40263-.0015a3.55955 3.55955 0 0 0 .5639.52342c.1847.13494.40915.24262.20211.49689-.17393.21362-.51158.38161-.67338.16068-.21366-.29175-.61363-.35733-.74033-.71015a.79282.79282 0 0 0 .24507-.46934zm38.6456-77.58235c-.18264-.04162-.41133.08412-.47544-.14729-.05787-.20887.15563-.259.28629-.36926.38478-.32463.86232-.1999 1.29046-.30105a.325.325 0 0 1 .36724.21141c.04371.18324-.12012.27007-.26584.30969-.40597.11037-.81678.20267-1.20271.2965zm34.67942 54.54884c-.38836.19077.59066.561-.05093.72612-.26758.06888-.94031-.71625-.85239-.939.0613-.15526.08829-.43808.38947-.388.42198.07021.55449.21176.51385.60088zm-12.01307-22.04047c.23136.23026.073.43268-.04875.6342-.18432.305-.37347.60707-.59227.9618a1.17222 1.17222 0 0 0-.12416-.33925c-.39632-.44035-.40574-.77185.22279-.98551a1.39746 1.39746 0 0 0 .35482-.27411zm-11.82913-32.77536c-.17958.00142-.37346-.05964-.51255.11733q-.0735-.00728-.14723-.014.00828-.141.01636-.28244.33681-.2965.67338-.59294l.32327-.00373q.32762.05412.65534.10753l.00225.30887c-.28136.27613-.78311-.06757-1.01082.35938zm-5.63385.64872a.80883.80883 0 0 0 .18567.4488c.30955.42445.2098.6148-.34023.72546l-.18178-.00338-.03988-.01712c-.02671-.16806.24369-.35382-.02983-.50746-.03434-.267-.2613-.58082.17781-.73277zm29.77734 26.95331c-.30406-.1864-.74171-.1058-.95908-.44457-.10435-.16265-.3094-.35685-.094-.57827.18692-.19214.37733-.04908.524.05885.30776.22655.62833.46414.53775.92868zm1.72668-31.98293c-.31813.06134-.44511-.07877-.44056-.34338.00221-.13031.06935-.30217.22194-.24615.267.098.683.1274.71966.41923.03168.25235-.34797.11368-.50104.1703z" class="cls-3"/><path d="M100.06744 62.22751a.27519.27519 0 0 1-.24469-.24837c.14148-.16643.34108-.41428.522-.21114.21325.23929-.13142.33072-.27731.45951zm14.53845 10.96965c-.19256.02214-.38548.12353-.57753-.00254.19378-.32187.38653-.36672.57753.00254zm19.30732-17.49485c.01671-.41.24382-.28393.48211-.20929-.0988.29721-.31143.20306-.48985.20152zm-13.00193 41.3589c-.03937.01887-.093.06753-.14041.06212-.07862-.009-.0923-.08011-.05252-.1434a.15672.15672 0 0 1 .09855-.07289c.08271-.00546.0996.05796.09438.15417zM95.74811 78.90039l-.0473.12989a.63812.63812 0 0 1-.14219-.07184c-.0102-.00844.026-.10217.03649-.10135a.70846.70846 0 0 1 .153.0433zm36.06503 41.5562l.15929.07434-.054.06373-.0976-.14605zM148.455 84.1069l.03981.14836c-.05093-.00949-.10188-.019-.153-.02793a36.95383 36.95383 0 0 0 .11319-.12043zm-1.91748 7.02701c.01723.03382.04494.06553.04463.097-.00015.01611-.05041.03173-.078.04757-.016-.03142-.04446-.0633-.04333-.0941.00058-.01766.04925-.03355.0767-.05047zm2.10548-15.5756l-.03843-.07184.07238.03766zM92.39355 63.81928q-.08169-.14637-.16363-.29263a.26939.26939 0 0 1 .298.00219.27977.27977 0 0 1-.13437.29044z" class="cls-3"/><path d="M242.87646 173.19556v-37.02311H267.666v6.99812h-16.45511v7.74652h14.63879v6.99911h-14.63879v15.27936zm55.88303-14.10456a18.26749 18.26749 0 0 1-.9621 6.06384 13.16568 13.16568 0 0 1-2.778 4.70119 12.47869 12.47869 0 0 1-4.35431 3.0185 14.523 14.523 0 0 1-5.68964 1.06944 14.37781 14.37781 0 0 1-5.63645-1.06944 12.47414 12.47414 0 0 1-4.35432-3.0185 13.79893 13.79893 0 0 1-2.83164-4.70119 17.38986 17.38986 0 0 1-1.01479-6.06384 16.79126 16.79126 0 0 1 1.04162-6.037 13.7012 13.7012 0 0 1 2.88482-4.64752 12.96135 12.96135 0 0 1 4.38115-2.99167 14.09326 14.09326 0 0 1 5.52961-1.06845 14.24465 14.24465 0 0 1 5.58329 1.06845 12.6982 12.6982 0 0 1 4.35431 2.99167 13.6046 13.6046 0 0 1 2.83165 4.64752 17.20074 17.20074 0 0 1 1.0148 6.037zm-8.12024 0a10.01288 10.01288 0 0 0-1.47-5.79648 4.80577 4.80577 0 0 0-4.1938-2.11007 4.87144 4.87144 0 0 0-4.22063 2.11007 9.86855 9.86855 0 0 0-1.49633 5.79648 10.12386 10.12386 0 0 0 1.49633 5.85015 4.83165 4.83165 0 0 0 4.22063 2.16374 4.76745 4.76745 0 0 0 4.1938-2.16374 10.273 10.273 0 0 0 1.47-5.85015zm31.1998-6.94444q-1.06894-.26686-2.51062-.56156a15.6018 15.6018 0 0 0-3.099-.2942 14.508 14.508 0 0 0-1.79.13418 10.51281 10.51281 0 0 0-1.57535.2942v21.47638h-7.96022v-26.606a47.96681 47.96681 0 0 1 5.04807-1.41532 29.08724 29.08724 0 0 1 6.49122-.66791q.64107 0 1.5495.08051c.60529.05267 1.21058.12523 1.81687.21369q.90794.13269 1.81587.32a8.61292 8.61292 0 0 1 1.5495.45421zm29.59761 20.0869a44.181 44.181 0 0 1-5.23591 1.09528 42.956 42.956 0 0 1-6.73175.50789 15.95872 15.95872 0 0 1-5.95649-.9621 9.03315 9.03315 0 0 1-3.76692-2.69747 10.51776 10.51776 0 0 1-1.97688-4.14062 22.2205 22.2205 0 0 1-.5874-5.28859v-15.65407h7.96021v14.692a11.3827 11.3827 0 0 0 1.01479 5.55595q1.01528 1.71151 3.79375 1.70953.85426 0 1.81587-.07952.9616-.08051 1.70952-.18685v-21.69111h7.96121zm22.91855-13.94355q0-3.84644-.988-5.4496a3.66687 3.66687 0 0 0-3.3932-1.60218q-.74843 0-1.54851.07951-.80209.0805-1.54951.18785v21.69007h-7.96021v-27.13968q1.01377-.26686 2.37743-.56155 1.36115-.29221 2.88432-.53373 1.52366-.24 3.12584-.37371 1.60267-.13269 3.15169-.13418a13.25667 13.25667 0 0 1 4.94171.77525 11.16732 11.16732 0 0 1 3.12585 1.84271 14.88938 14.88938 0 0 1 8.01388-2.618 14.03684 14.03684 0 0 1 5.52912.93527 8.33211 8.33211 0 0 1 3.44588 2.64479 10.01357 10.01357 0 0 1 1.7632 4.06012 26.23919 26.23919 0 0 1 .48105 5.23591v15.86676h-7.96022v-14.90561q0-3.84644-.98894-5.4496a3.66515 3.66515 0 0 0-3.39221-1.60218 7.16443 7.16443 0 0 0-1.79.32 6.94773 6.94773 0 0 0-1.89638.80209 12.19977 12.19977 0 0 1 .481 2.59112q.10585 1.36116.10635 2.91116v15.333h-7.96021zm38.67895 9.18869a7.92738 7.92738 0 0 0 3.099-.42738 1.64986 1.64986 0 0 0 .90844-1.65586 2.02989 2.02989 0 0 0-1.1758-1.68268 22.38 22.38 0 0 0-3.57906-1.63 36.379 36.379 0 0 1-3.39321-1.44217 9.96041 9.96041 0 0 1-2.59112-1.79 7.21775 7.21775 0 0 1-1.65585-2.48377 9.18282 9.18282 0 0 1-.5874-3.47272 7.51007 7.51007 0 0 1 2.938-6.2507q2.9385-2.29591 8.06756-2.29692a25.91789 25.91789 0 0 1 4.91488.45422 22.85649 22.85649 0 0 1 3.74008.98794l-1.38949 6.197a29.41273 29.41273 0 0 0-3.0185-.85477 16.45376 16.45376 0 0 0-3.65957-.37371q-3.74058 0-3.74008 2.08324a2.13889 2.13889 0 0 0 .161.85476 1.81638 1.81638 0 0 0 .64108.72158 8.95947 8.95947 0 0 0 1.309.75139q.82743.404 2.11007.88856a32.52658 32.52658 0 0 1 4.32748 1.91228 10.34491 10.34491 0 0 1 2.69747 2.03453 6.29817 6.29817 0 0 1 1.38949 2.42613 10.75836 10.75836 0 0 1 .40054 3.09106 7.12411 7.12411 0 0 1-3.12485 6.29045q-3.12635 2.13193-8.84181 2.13292a25.42048 25.42048 0 0 1-6.22485-.64107 25.16366 25.16366 0 0 1-3.44589-1.06944l1.33582-6.46439a25.99746 25.99746 0 0 0 4.16746 1.2563 20.29863 20.29863 0 0 0 4.22011.45322z" class="cls-2"/></svg>