<svg xmlns="http://www.w3.org/2000/svg" role="img" viewBox="-6.46 -4.96 569.92 248.42"><defs><style>.cls-2{fill:#fff}.cls-3{fill:#326ce5}</style></defs><path fill="#5bb8d8" d="M96.279 70.121h456.704v123.231H96.279z"/><circle cx="119.041" cy="122.838" r="76.278" class="cls-2"/><path d="M264.223 126.646q-1.104-1.771-2.6-3.828-1.497-2.056-3.226-4.147-1.73-2.089-3.619-4.006a38.73 38.73 0 00-3.778-3.388v15.369h-8.168V90.36H251v13.638q3.15-3.31 6.4-6.92 3.25-3.614 6.003-6.718h9.693q-3.704 4.413-7.452 8.483-3.748 4.072-7.89 8.195a62.214 62.214 0 018.4 8.615 107.626 107.626 0 017.78 10.993zm35.628-.942a43.375 43.375 0 01-5.13 1.072 42.143 42.143 0 01-6.598.498 15.676 15.676 0 01-5.839-.942 8.858 8.858 0 01-3.691-2.644 10.324 10.324 0 01-1.937-4.058 21.809 21.809 0 01-.576-5.184v-15.34h7.803v14.398a11.148 11.148 0 00.995 5.445q.992 1.676 3.716 1.676.837 0 1.78-.08.942-.077 1.675-.183V99.105h7.802zm32.934-12.828a17.421 17.421 0 01-.969 5.968 12.618 12.618 0 01-2.801 4.556 12.323 12.323 0 01-4.503 2.906 16.937 16.937 0 01-6.073 1.02q-1.415 0-2.96-.13-1.544-.13-3.036-.34-1.492-.21-2.853-.498-1.362-.287-2.409-.602V87.272l7.801-1.257v13.718a14.62 14.62 0 012.723-.89 13.995 13.995 0 013.037-.314 12.43 12.43 0 015.183 1.02 10.16 10.16 0 013.77 2.907 13.062 13.062 0 012.305 4.529 20.664 20.664 0 01.785 5.89zm-7.96-.21q0-7.54-5.55-7.54a9.211 9.211 0 00-2.382.315 6.741 6.741 0 00-1.91.785v14.19q.575.104 1.466.183.89.077 1.937.078a5.608 5.608 0 004.817-2.199 9.563 9.563 0 001.623-5.812zm12.671.419a16.816 16.816 0 011.127-6.414 13.739 13.739 0 012.958-4.582 12.305 12.305 0 014.215-2.774 13.18 13.18 0 014.895-.943 12.169 12.169 0 019.268 3.586q3.403 3.588 3.403 10.55 0 .683-.052 1.493-.054.812-.104 1.44h-17.699a5.182 5.182 0 002.253 3.822 9.042 9.042 0 005.34 1.415 22.617 22.617 0 004.215-.393 15.896 15.896 0 003.378-.97l1.046 6.336a10.79 10.79 0 01-1.676.628 22.034 22.034 0 01-2.33.55q-1.282.235-2.748.393a27.546 27.546 0 01-2.933.157 17.338 17.338 0 01-6.466-1.1 12.577 12.577 0 01-4.555-3.01 11.942 11.942 0 01-2.67-4.53 17.926 17.926 0 01-.865-5.654zm18.327-2.985a8.08 8.08 0 00-.34-1.937 4.87 4.87 0 00-.89-1.676 4.753 4.753 0 00-1.519-1.204 4.952 4.952 0 00-2.278-.472 5.238 5.238 0 00-2.25.446 4.654 4.654 0 00-1.572 1.179 5.278 5.278 0 00-.97 1.701 11.126 11.126 0 00-.497 1.963zm30.158-4.084q-1.048-.26-2.461-.55a15.252 15.252 0 00-3.037-.288 14.166 14.166 0 00-1.753.131 10.396 10.396 0 00-1.546.288v21.049h-7.8V100.57a47.169 47.169 0 014.947-1.388 28.55 28.55 0 016.361-.654q.628 0 1.519.079c.593.052 1.186.123 1.78.21q.89.13 1.78.313a8.427 8.427 0 011.519.445zm5.498-5.969a43.558 43.558 0 015.131-1.073 42.243 42.243 0 016.597-.498 16.096 16.096 0 015.839.916 8.786 8.786 0 013.69 2.592 10.129 10.129 0 011.938 3.98 21.18 21.18 0 01.575 5.131v15.551h-7.8v-14.609q0-3.77-.995-5.34-.996-1.57-3.718-1.57-.839 0-1.78.077-.942.08-1.676.184v21.258h-7.801zm29.529 13.038a16.816 16.816 0 011.127-6.414 13.738 13.738 0 012.958-4.582 12.305 12.305 0 014.215-2.774 13.18 13.18 0 014.896-.943 12.17 12.17 0 019.267 3.586q3.403 3.588 3.403 10.55 0 .683-.051 1.493-.055.812-.105 1.44H429.02a5.182 5.182 0 002.252 3.822 9.042 9.042 0 005.34 1.415 22.617 22.617 0 004.215-.393 15.896 15.896 0 003.378-.97l1.046 6.336a10.79 10.79 0 01-1.676.628 22.026 22.026 0 01-2.33.55q-1.282.235-2.748.393a27.544 27.544 0 01-2.933.157 17.337 17.337 0 01-6.466-1.1 12.577 12.577 0 01-4.555-3.01 11.942 11.942 0 01-2.67-4.53 17.926 17.926 0 01-.865-5.654zm18.327-2.985a8.08 8.08 0 00-.34-1.937 4.87 4.87 0 00-.89-1.676 4.753 4.753 0 00-1.519-1.204 4.952 4.952 0 00-2.278-.472 5.238 5.238 0 00-2.25.446 4.653 4.653 0 00-1.572 1.179 5.278 5.278 0 00-.969 1.701 11.126 11.126 0 00-.497 1.963zm13.3-17.855l7.801-1.256v8.116h9.372v6.492h-9.372v9.687a7.712 7.712 0 00.864 3.927q.864 1.467 3.482 1.466a14.869 14.869 0 002.592-.236 13.304 13.304 0 002.434-.654l1.1 6.073a22.058 22.058 0 01-3.141.995 18.323 18.323 0 01-4.242.419 13.972 13.972 0 01-5.288-.863 8.302 8.302 0 01-3.351-2.409 8.963 8.963 0 01-1.754-3.744 22.062 22.062 0 01-.497-4.87zm21.152 20.84a16.815 16.815 0 011.126-6.414 13.738 13.738 0 012.958-4.582 12.305 12.305 0 014.215-2.774 13.18 13.18 0 014.896-.943 12.17 12.17 0 019.267 3.586q3.404 3.588 3.404 10.55 0 .683-.052 1.493-.054.812-.105 1.44h-17.698a5.182 5.182 0 002.252 3.822 9.042 9.042 0 005.34 1.415 22.617 22.617 0 004.215-.393 15.896 15.896 0 003.378-.97l1.047 6.336a10.79 10.79 0 01-1.676.628 22.032 22.032 0 01-2.33.55q-1.283.235-2.748.393a27.546 27.546 0 01-2.933.157 17.338 17.338 0 01-6.466-1.1 12.577 12.577 0 01-4.555-3.01 11.942 11.942 0 01-2.67-4.53 17.925 17.925 0 01-.865-5.654zm18.326-2.985a8.083 8.083 0 00-.34-1.937 4.87 4.87 0 00-.89-1.676 4.753 4.753 0 00-1.518-1.204 4.952 4.952 0 00-2.278-.472 5.238 5.238 0 00-2.251.446 4.653 4.653 0 00-1.571 1.179 5.278 5.278 0 00-.97 1.701 11.126 11.126 0 00-.497 1.963zm21.467 10.943a7.776 7.776 0 003.037-.418 1.617 1.617 0 00.89-1.623 1.99 1.99 0 00-1.152-1.65 22.047 22.047 0 00-3.508-1.597 35.295 35.295 0 01-3.325-1.414 9.75 9.75 0 01-2.539-1.754 7.088 7.088 0 01-1.624-2.434 9.02 9.02 0 01-.575-3.403 7.359 7.359 0 012.879-6.126 12.533 12.533 0 017.906-2.253 25.411 25.411 0 014.817.446 22.65 22.65 0 013.666.968l-1.362 6.074a28.772 28.772 0 00-2.957-.837 16.097 16.097 0 00-3.587-.367q-3.666 0-3.666 2.042a2.115 2.115 0 00.157.838 1.791 1.791 0 00.629.707 8.815 8.815 0 001.283.736q.81.397 2.068.87a32.086 32.086 0 014.241 1.875 10.129 10.129 0 012.644 1.994 6.166 6.166 0 011.362 2.377 10.576 10.576 0 01.392 3.03 6.984 6.984 0 01-3.063 6.166q-3.063 2.088-8.665 2.089a24.474 24.474 0 01-9.478-1.675l1.309-6.336a25.437 25.437 0 004.084 1.23 19.827 19.827 0 004.137.445z" class="cls-2"/><path d="M230.64 139.702a6.564 6.564 0 00-1.191-.238c-.561-.114-1.364-.312-1.913-.398a55.243 55.243 0 00-6.282-.336 61.16 61.16 0 01-11.78-1.608 7.354 7.354 0 01-2.896-2.762l-2.66-.697a84.986 84.986 0 00-15.204-58.478c.659-.631 1.908-1.798 2.26-2.141a5.174 5.174 0 011.127-3.736 61.208 61.208 0 019.54-7.094 54.384 54.384 0 005.348-3.316c.413-.325.976-.836 1.408-1.201a6.574 6.574 0 10-8.419-10.005c-.436.363-1.031.841-1.418 1.196a54.256 54.256 0 00-4.198 4.687 61.266 61.266 0 01-8.6 8.213 7.268 7.268 0 01-3.955.537l-2.44 1.844a85.717 85.717 0 00-54.98-24.76c-.083-.868-.2-2.44-.236-2.915a5.183 5.183 0 01-2.221-3.211 61.274 61.274 0 01.42-11.88 54.425 54.425 0 00.724-6.24c.006-.528-.046-1.292-.061-1.86a6.574 6.574 0 10-13.077.358c.002.062.017.12.02.182.009.543 0 1.2.03 1.674a54.981 54.981 0 001.06 6.196 61.178 61.178 0 011.048 11.838 7.13 7.13 0 01-2.032 3.438l-.08 2.771a85.307 85.307 0 00-11.771 2.136 84.137 84.137 0 00-42.06 25.558q-1.216-.79-2.41-1.612a5.165 5.165 0 01-3.893-.272 61.036 61.036 0 01-9.03-7.727 54.634 54.634 0 00-4.425-4.454c-.407-.33-1.029-.779-1.484-1.122a7.795 7.795 0 00-4.604-1.596 6.301 6.301 0 00-5.148 2.447 6.932 6.932 0 001.868 9.596l.102.068c.437.339.976.772 1.38 1.051a54.626 54.626 0 005.507 3.027 61.015 61.015 0 019.907 6.573 7.268 7.268 0 011.417 3.736l2.143 1.815a84.639 84.639 0 00-11.75 59.343l-2.716.87a9.043 9.043 0 01-2.734 2.906 61.047 61.047 0 01-11.668 2.248 54.647 54.647 0 00-6.259.674c-.5.107-1.192.302-1.735.453l-.057.014-.092.03a6.565 6.565 0 103.248 12.663l.097-.018c.043-.01.08-.033.123-.042.536-.137 1.211-.285 1.682-.427a55.154 55.154 0 005.805-2.406 61.259 61.259 0 0111.308-3.661 7.253 7.253 0 013.794 1.226l2.838-.565a85.117 85.117 0 0038.977 46.06l-1.114 2.883a6.49 6.49 0 01.683 3.682 63.897 63.897 0 01-5.63 10.794 54.53 54.53 0 00-3.366 5.318c-.247.5-.557 1.263-.792 1.786a6.568 6.568 0 1011.958 5.283l.01-.012v-.016c.234-.518.567-1.198.764-1.682a54.086 54.086 0 001.725-6.044 45.744 45.744 0 014.746-11.882 5.316 5.316 0 012.781-1.452l1.41-2.72a84.645 84.645 0 0060.34-1.474c.436.73 1.249 2.125 1.463 2.477a5.169 5.169 0 013.393 1.94 60.917 60.917 0 014.786 10.872 54.674 54.674 0 002.06 5.941c.225.478.589 1.149.854 1.655a6.571 6.571 0 1011.67-5.907c-.264-.51-.628-1.254-.9-1.737a54.326 54.326 0 00-3.646-5.117 61.02 61.02 0 01-6.077-10.224 5.136 5.136 0 01.398-3.87 22.499 22.499 0 01-1.16-2.61 85.114 85.114 0 0036.41-48.43c.85.112 2.33.33 2.812.414a5.172 5.172 0 013.62-1.457 61.18 61.18 0 0111.492 3.047 54.445 54.445 0 005.93 2.107c.476.11 1.153.21 1.698.315.045.011.086.03.13.04l.093.011a6.565 6.565 0 003.771-12.576l-.014-.005zm-111.353 53.674z" class="cls-3"/><path d="M94.22 196.434a5.007 5.007 0 011.77-1.532c.383-.243.613.173.829.379a2.58 2.58 0 01.535 1.153zm-14.21-1.09a.6.6 0 00.394-.595 1.83 1.83 0 011.284 1.685H80.12c.556-.696-.327-.414-.463-.633zm37.01-68.968c.015-.175-.087-.451.172-.493.214-.034.294.204.39.377m.967-1.828c0-.24-.123-.347-.349-.387-.257-.045-.284-.243-.244-.45.076-.397.513-.225.73-.442.117-.116.254.085.27.253.037.425.343.604.665.814.913.596.874 1.327.178 1.793-.502.335-.38 1.022.28 1.412.84.495 1.658 1.135 2.746.84.382-.105.583.23.866.359.557.252 1.21.338 1.489 1.06.154.398.764.434 1.078.439a5.327 5.327 0 012.395.866.823.823 0 00.87-.015 1.386 1.386 0 00.527-1.888l-.013-.023a.396.396 0 01-.086-.422 2.451 2.451 0 011.288-1.015 1.29 1.29 0 011.585.505c.326.462.893.133 1.344.224.376.075.827-.189 1.037.373.054.145.213.1.336.025.627-.384 1.243-.022 1.855-.023a7.747 7.747 0 002.089.05.951.951 0 00.463-.343c.535-.718 1.248-.699 2.056-.676a3.093 3.093 0 002.407-.777c.155-.157.288-.348.542-.285.254.063.222.288.234.48.01.143.05.28.217.26.27-.033-.004-.211.053-.276.369-.419.245-.82.074-1.291-.14-.382-.62-.033-.64-.371-.015-.298.435-.23.54-.498a.268.268 0 00-.1-.338c-.19-.163-.255.01-.34.134-.06.087-.126.21-.252.127-.053-.036-.097-.201-.074-.22.597-.476.108-1.115.248-1.667a2.84 2.84 0 00-.387-1.858.632.632 0 01.017-.721c.273-.366-.08-.585-.282-.746-.222-.178-.417-.062-.504.258-.077.284-.278.167-.45.041-.2-.145-.384-.173-.547.078-.862 1.328-1.015 1.414-2.445.783-.67-.296-.987-.151-1.24.472-.068.17-.207.31-.27.502-.052.164-.272.24-.363.095-.502-.805-1.344-.856-2.141-1.009-.282-.054-.336-.158-.135-.378.122-.134.133-.301-.031-.391-.516-.283-.522-.825-.588-1.28a.596.596 0 00-.656-.595c.04-.544.324-.642.808-.705.714-.093 1.672-.151 1.957-.82.35-.819 1.291-.595 1.633-1.263.06-.119.214-.212.238-.366a.428.428 0 01.559-.39c.376.06.658-.194.984-.286.858-.242 1.626.249 2.46.197.72-.045 1.486.246 2.062-.445.05-.058.184-.126.219-.102.665.455.849-.322 1.149-.542.577-.424.266-1.9-.409-2.258-.349-.185-.667-.533-1.184-.213-.127.079-.574-.375-.884-.569a3.014 3.014 0 00-1.822-.618c-.246.018-.248-.105-.173-.28.11-.257.201-.522.33-.769.318-.615-.165-1.322.237-1.933.083-.126-.032-.304-.217-.327-.178-.022-.376-.015-.37.238.008.401-.182.492-.538.397a.365.365 0 00-.357.108 3.324 3.324 0 01-1.336.918c-.489.155-.564.834-.537 1.301.023.39.429.667.967.813-.5.128-.61.54-.904.889-.108-.335-.125-.641-.454-.789-.273-.122-.483-.337-.063-.594a.238.238 0 00.059-.39c-.13-.132-.235-.335-.485-.227-.19.081-.358.272-.65.104.464-.343 1.061-.557 1.043-1.273-.004-.175.244-.124.387-.146.466-.073.521-.363.311-.704a1.308 1.308 0 01-.306-.934c.05-.292-.178-.24-.337-.244a2.4 2.4 0 01-1.92-.644.283.283 0 00-.399-.05l-.01.008a.755.755 0 01-.434.107c-.18.001-.391-.378-.53-.003-.123.331.196.358.406.459a2.947 2.947 0 001.584.45c.426-.037.767.354 1.206.439.18.035.192.437-.097.46-.506.038-.487.283-.478.685a.817.817 0 01-1.098.746c-.248-.078-.365.036-.576.205a8.164 8.164 0 00-1.015 1.371c-.268.317.006.48.128.674.246.393.165.574-.302.537-.382-.03-.608-.01-.382.482.174.38-.068.868.251 1.235-.467.254-.337.795-.561 1.165-.318.525-.151 1.065.452 1.157.374.056.185.315.302.447.212.241-.038.216-.163.264-.04.015-.095.03-.11.062-.504 1.081-1.39.429-2.13.517a2.376 2.376 0 00-1.39.607c-.122.12-.224.35-.393.25-.213-.124-.418-.247-.547.002a.87.87 0 00.034.933c.347.368.548.625.233 1.15-.174.29.487.316.484.673l.008-.008c-.281-.01-.563-.027-.844-.028-.346 0-.713.066-.745-.462-.009-.152-.165-.246-.318-.295-.04-.014-.087-.01-.127-.025-.449-.174-1.422-1.49-1.319-1.926.23-.973-.487-1.358-1.057-1.822-.193-.157-.31-.28-.276-.522l.037-.032-.022-.024-.033.037a1.052 1.052 0 01-1.17-.489c-.222-.323-.472-.68-1.005-.303-.242.172-.366-.172-.397-.418-.023-.184.043-.392-.207-.496-.497-.206-.764-.504-.335-1.023a.226.226 0 00.034-.297c-.096-.114-.237-.073-.366-.045-.814.177-.95.087-1.048-.739-.016-.143-.02-.277-.177-.285-.164-.008-.111.136-.116.24a.67.67 0 01-.523.648.862.862 0 00-.61.896 1.734 1.734 0 001.166 1.954c.271.126.495.259.55.573.147.85.678 1.188 1.43 1.571a8.292 8.292 0 011.971 1.1c-.484.21-.917.397-.808 1.017a1.122 1.122 0 00.315.613c.083.088.238.174.105.316a.269.269 0 01-.406-.02.652.652 0 01-.159-.203 5.802 5.802 0 00-1.949-1.996c-.865-.697-1.94-1.038-2.732-1.813a1.854 1.854 0 01-.594-1.044 2.153 2.153 0 00-1.88-1.447.325.325 0 00-.292.22c-.287.691-.989.906-1.548 1.213a1.697 1.697 0 01-1.706-.298.984.984 0 00-1.562.543.825.825 0 00-.076.241 1.552 1.552 0 01-1.407 1.684l-.053.004a.99.99 0 00-1.013.71 1.39 1.39 0 01-.586.744.715.715 0 00-.356.659 2.89 2.89 0 01-.247.956c-.245.934-1.264 1.01-1.698 1.699a.181.181 0 01-.162.051c-.897-.292-1.73.365-2.619.172-.062-.014-.152-.03-.192 0-.742.58-.794-.122-.953-.534a1.488 1.488 0 00-.515-.794c-.229-.15-.41-.52-.754-.06-.14.186-.547.14-.755-.124a.542.542 0 01.016-.812.654.654 0 00.137-.999c-.441-.715.199-1.234.478-1.77a2.386 2.386 0 00.332-1.52.344.344 0 01.149-.338.631.631 0 00.165-.764c-.082-.267-.162-.507.125-.685.293-.181.621-.427.953-.23a1.065 1.065 0 00.911.12.48.48 0 01.378.045c.989.814 2.252.602 3.375.908a.809.809 0 00.972-.93 1.016 1.016 0 01.475-1.038.701.701 0 00.26-.682c-.033-.375-.387-.695-.194-1.113.01-.021-.033-.095-.06-.101-.822-.19-.578-.67-.332-1.166.056-.111-.043-.216-.147-.253-.439-.155-.693-.585-1.119-.748-.208-.079-.322-.188-.162-.37.14-.158.332-.514.554-.248.35.419.87.05 1.224.372.095.087.205-.09.219-.235.048-.51.389-.547.8-.518.325.023.712.16.838-.354.042-.171.25-.13.398-.15.342-.047.586-.241.575-.588-.019-.554.41-.626.755-.696.593-.121.6-.082.697-.651a2.288 2.288 0 00.61.174c.324.002.728.015.4-.537-.2-.338-.114-.575.349-.58a.589.589 0 00.61-.486c.024-.872.55-.589.952-.423.252.103.305.042.365-.156l.246-.086a.762.762 0 00.616.055.381.381 0 00.39-.267c.163.051.368.147.46-.05.091-.195-.191-.186-.261-.31-.074-.13-.152-.257-.228-.386.034-.066.064-.221.147-.133.247.265.605.323.883.522.512.468.898-.134 1.352-.159l.249.014c.65.39 1.258.762 1.889-.109a2.303 2.303 0 01.868-.507c.414-.174.807-.495 1.242.061.146.187.667.507.787-.18.01-.059.054-.146.098-.158 1.367-.353.83-1.293.692-2.14a2.202 2.202 0 01.14-1.298c.186-.407.392-.4.677-.13.141.134.273.279.421.405.177.151.358.238.569.028a.43.43 0 00.124-.563c-.24-.55.006-.88.6-.872l.018.014-.013-.02c-.287-.29-.71-.311-1.046-.533a.587.587 0 01-.263-.534c-.024-.283.233-.202.38-.199a.58.58 0 00.529-.302c.1-.148.251-.276.43-.116.12.106.323.09.296.406-.051.587.615.822.828 1.306.01.02.162-.003.235-.035a.223.223 0 00.122-.321 3.779 3.779 0 00-.324-.63c-.492-.694-.235-1.247.641-1.368a1.714 1.714 0 00.356-.132c.141-.026.295-.015.405-.137.514-.199.933-.486.849-1.12-.09-.68-.658-.886-1.194-1.003-.762-.167-1.047-.395-1.186-1.173-.053-.3-.128-.668-.492-.666-.254.001-.735-.243-.743.393-.003.21-.232.06-.362.003-.208-.09-.34-.46-.59-.299-.29.187.142.449.041.694-.008.02-.013.04-.025.08-.22.096-.512-.281-.681.034-.145.27.17.405.282.601a.339.339 0 01.048.236c-.032.1-.15.094-.22.05-.525-.33-.473.442-.828.429.092.3 0 .654.239.904.05.053.203.01.308.011l.412-.287a.764.764 0 01.463.528.321.321 0 00.017.42c.042.414-.254.38-.516.39a.203.203 0 00-.277-.021c-.38-.292-.989-.083-1.255-.404-.25-.302.03-.862-.249-1.262a1.855 1.855 0 01-.243-.526c-.06-.2-.165-.451.096-.581.468-.235.52-.73.64-1.123a1.727 1.727 0 01.562-.902c.7-.461.167-.82-.07-1.076a1.367 1.367 0 00-1.923-.046 1.615 1.615 0 00-.132 1.083 1.456 1.456 0 01-.528 1.268c-.408.464-1.288.832-1.092 1.773a5.548 5.548 0 010 1.367c-.026.552.166.934.75 1.013.366.05.355.237.239.501a1.65 1.65 0 01-.79.92c-.51.196-.39.452-.263.791a2.58 2.58 0 01.032 1.65c-.099.35-.278.601-.653.616a.725.725 0 00-.714.551c-.045.128-.027.365-.242.315a.428.428 0 01-.35-.419 2.996 2.996 0 00-.712-1.893c-.255-.386-.068-.671.424-.664.3.004.776-.332.79.372.002.161.257.138.371.016a4.008 4.008 0 00.23-.387c.226-.311.153-.724-.118-.778-.499-.099-.39-1.475-1.322-.594-.32.301-.54.05-.526-.634-.274.065-.135.405-.344.5l-.34-.1.002-.264c.128-.04.202-.134.07-.215a.247.247 0 00-.403.158.371.371 0 00-.13.357l-.002.188a4.515 4.515 0 01-1.178 1.074c-.295.207-.614.4-.967-.025-.15-.181-.172-.272-.06-.42.261-.344.158-.722.187-1.105a4.069 4.069 0 01.514-1.301.525.525 0 00.066-.43.757.757 0 01.487-1.143.42.42 0 00.285-.456c-.02-.507.237-.624.7-.578a.813.813 0 00.918-.693l.003-.026a10.662 10.662 0 01.954-2.312c.25-.469.615-.828.829-1.258a4.908 4.908 0 00.856-1.8c.008-.12.192-.336.272-.326.857.111 1.133-.644 1.609-1.074a2.402 2.402 0 012.095-.142c.147.124.124.206.008.304-.15.126-.119.32-.194.474a.364.364 0 00.181.543.485.485 0 00.648-.224l.011-.025c.15-.326.098-.772.455-.967.376-.205.665.21 1.031.247a1.532 1.532 0 00.696-.05c.685-.283 1.233.064 1.854.231a6.83 6.83 0 011.434.549c.261.137.424.274.327.518-.103.261.1.668-.414.765a5.688 5.688 0 01-3.087-.209c-.154-.057-.32-.1-.415.044a.261.261 0 00.17.412c.544.145.763.911 1.468.75.126-.028.121.15.16.245a3.48 3.48 0 00.723 1.289c.136.13.056.293.077.424a7.147 7.147 0 00.336 1.7 6.314 6.314 0 00.903 1.115c.247.287.52.593.904.318.413-.297.307-.667-.042-.977a2.376 2.376 0 01-.476-.77c-.113-.225-.214-.427-.494-.458-.108-.012-.294-.073-.262-.137.302-.604-.466-.589-.563-.952.211-.144.332.008.487.078a.733.733 0 001.088-.7c.022-.355.236-.585.604-.425a1.801 1.801 0 00.62.151 1.338 1.338 0 001.288.982 2.314 2.314 0 001.47.345c.144.01.34.027.379-.158.047-.228-.18-.304-.327-.327-.457-.073-.921-.1-1.383-.146-.301-.402-.835-.548-1.093-.997a.427.427 0 00-.36-.327c-.559-.068-1.072-.231-.944-.944.13-.719.418-.846 1.346-.687-.048-.21-.103-.406-.136-.607-.04-.246-.054-.441.297-.521.38-.087.55-.309.515-.805a4.148 4.148 0 01.398-1.463c.043-.13.205-.148.34-.137a.24.24 0 01.233.246l-.001.017a.967.967 0 00.436.768 3.59 3.59 0 011.024 1.225c.108.193.254.505.528.385.293-.128.757-.237.723-.645-.067-.806.254-.863.92-.48-.12-.443-.315-.71-.678-.791-.201-.045-.399-.27-.645 0a.467.467 0 00-.067.628.495.495 0 01-.118.63c-.264.159-.404-.076-.56-.279-.227-.297-.365-.703-.822-.777-.065-.01-.155-.173-.15-.259a3.963 3.963 0 01.617-2.232c.124-.164.232-.045.316.043.186.194.335.156.473-.048.125-.184.23-.334.006-.562-.199-.202-.596-.39-.32-.794.214-.316.477-.328.88-.297a5.705 5.705 0 011.715.032c.129.048.237-.084.285-.216a.326.326 0 00-.181-.423l-.013-.005a3.938 3.938 0 00-1.313-.612c-.661-.048-.992-.58-1.527-.777-.131-.049-.263-.09-.27-.307-.009-.348-.291-.567-.525-.78-.197-.179-.487-.32-.248-.615.254-.312.54-.179.784.062a21.31 21.31 0 002.997 1.894c.36.254.869.39 1.26.668a.92.92 0 01.21 1.49c-.64.835-.545 1.365.185 2.156.518.562 1.342.757 1.711 1.438a2.038 2.038 0 002.053 1.128c.732-.013 1.423.367 2.201.296.4-.037.49.523.604.842.217.61.837.912 1.051 1.509a.204.204 0 00.318.11.233.233 0 00.007-.353c-.73-.617-.808-1.693-1.65-2.25-.591-.393-.53-.793.108-1.18a1.368 1.368 0 00.425-.28 2.656 2.656 0 012.586-.763.97.97 0 00.504-.009 5.101 5.101 0 012.72-.103c.275.027.619.047.767.4a.21.21 0 00.371.07c.198-.187-.028-.258-.126-.333a4.208 4.208 0 00-3.982-.505c-.445.131-.787-.163-1.229-.126a5.433 5.433 0 00-1.078.248 5.18 5.18 0 00-2.333 2.033l-.113.12a5.368 5.368 0 00-1.808-.288.648.648 0 01-.642-.345 3.935 3.935 0 00-1.478-1.356 1.902 1.902 0 01-1.07-1.346.905.905 0 00.766-.548c.866-.658.866-.936.255-1.823a2.205 2.205 0 00-1.095-1.018c-.116-.038-.261-.14-.195-.288.09-.204.292-.163.45-.094a2.79 2.79 0 001.078.393c.209.004.357-.047.425-.21a.298.298 0 00-.247-.384c-.72.056-1.245-.606-1.983-.503-.195.027-.345.06-.428.206-.336.592-.674.222-.99 0-.21-.147-.352-.454-.572-.512-.838-.223-.402-.416-.03-.675.131-.091.476-.084.335-.368a.458.458 0 00-.653-.243.329.329 0 01-.34.048c-.013-.2-.107-.53.132-.59a1.524 1.524 0 011.286.079 1.78 1.78 0 001.716.318 2.236 2.236 0 012.128.303 1.546 1.546 0 001.058.254c.006.152.056.271.224.306l.033.04c.075.216.164.247.273.02l.253-.005c.033.127.145.112.237.155.416.196.946.048 1.292.45a3.051 3.051 0 001.597.893l.022.026c.087.32.272.287.49.136h.289c.114.13.283.072.42.122.175.064.351.107.425-.118.072-.223-.07-.37-.25-.466a.352.352 0 00-.468.07l-.794.006c-.562-.51-1.3-.774-1.84-1.314l.034-.034c.49.155.985.29 1.323-.265.094-.155.187-.474-.132-.405a7.23 7.23 0 01-1.861-.069 1.265 1.265 0 01-1.31.472c-.028-.16-.113-.236-.28-.186-.618-.073-1.074-.535-1.661-.687-.673-.174-1.242-.627-2.066-.339a2.08 2.08 0 01-1.506-.458 1.749 1.749 0 00-1.401-.192c-.76.113-1.006-.129-.813-.847a.767.767 0 00-.54-1.067c-.817-.213-1.116-.907-1.542-1.492a.364.364 0 01-.026-.367.961.961 0 00-.835-1.394.967.967 0 01-.313-.08c-.178-.103-.485-.12-.46-.387.02-.226.329-.237.478-.246.512-.031.614-.2.324-.625a.246.246 0 01.018-.303 2.571 2.571 0 011.467.003 30.736 30.736 0 002.618 1.78.345.345 0 00.455-.007c-.286-.318-.335-.786-.815-.999a.604.604 0 01-.368-.695.342.342 0 00-.156-.394c-.348-.263-.394-.5-.065-.848.345-.364-.04-.62-.26-.844a.997.997 0 00-.527-.235.47.47 0 01-.447-.493q.001-.023.005-.046c.031-.282.316-.143.488-.156a2.38 2.38 0 001.164-.366c.136-.09.265-.163.238-.344a.227.227 0 00-.293-.19c-.718.209-1.102-.335-1.393-.758a2.015 2.015 0 00-1.891-.823c-.354-.004-.981.144-.697-.668.078-.222-.246-.353-.516-.349a.552.552 0 01-.643-.44l-.003-.021a1.485 1.485 0 00-1.257-.984c-.492-.114-1.191-.079-1.018-.974.056-.29-.295-.358-.523-.376a9.341 9.341 0 01-2.858-.962c-.306-.127-.573-.227-.827.052a.345.345 0 01-.4.092 17.124 17.124 0 01-4.08-1.223c-.418-.219-1.002-.053-1.29-.603-.08-.152-.32-.025-.478.052-.105.05-.24.07-.287-.043-.066-.157.077-.238.2-.273a.786.786 0 01.441-.058 18.303 18.303 0 012.043.557.817.817 0 00.759.005 1.963 1.963 0 011.575-.083 1.478 1.478 0 00.966-.039c-.11-.324-.517-.028-.643-.377a7.488 7.488 0 012.431.086 2.323 2.323 0 00.515.063c1.327-.138 2.555.391 3.835.553.41.052.063.499.374.543l-.007-.008a.302.302 0 00.332.25 5.835 5.835 0 013.026.803 14.223 14.223 0 002.193.49 7.928 7.928 0 013.045 1.08c.773.594 1.829.76 2.635 1.356 1.314.968 2.931 1.263 4.353 1.992.361.185.754.306 1.133.457a.435.435 0 00.532.309l.013-.004c.307.004.506.238.758.357a.212.212 0 00.28.182c.277.052.475.306.774.304.03.22.206.312.35.205.22-.163 0-.313-.101-.452l-.012-.29.001-.385.272.051c.033.195.176.264.339.349 1.17.606 2.207 1.426 3.454 1.932a2.396 2.396 0 001.458.348l.138.054a.177.177 0 00.215.13l.56.407c-.002.1.01.19.148.171a8.383 8.383 0 012.14 1.42c1.917 1.661 3.928 3.212 5.768 4.963a2.138 2.138 0 001.318.757 2.678 2.678 0 011.165 1.154 1.436 1.436 0 01-.768-.313c-.136-.086-.413-.161-.313.133a3.752 3.752 0 00.698 1.57 10.268 10.268 0 012.025 2.427.824.824 0 00.778.502c.835-.084 1.084.61 1.47 1.089.423.526 1.213.628 1.467 1.324.022.06.006.132.025.193a1.308 1.308 0 00.826 1 .45.45 0 01.362.332c-.293.35.174.406.261.596a4.203 4.203 0 001.256 1.756c.208.152.043.314.035.47-.023.485.251.822.679.711.384-.1.477.088.592.293a63.631 63.631 0 013.243 6.156c.386.904.764 1.817 1.159 2.72.06.136.064.305.255.34a6.491 6.491 0 00.228 1.528 25.093 25.093 0 011.135 3.109 4.402 4.402 0 001.574 2.57 18.961 18.961 0 00.834 2.77 4.29 4.29 0 01.102 1.7 1.57 1.57 0 00.479 1.559 1.23 1.23 0 01.407 1.031c-.284-.07-.6-.135-.747.187-.242.534-.412.103-.485-.051a8.976 8.976 0 00-.568-1.09c-.062-.095-.115-.209-.236-.178-.189.047-.111.2-.088.32a3.482 3.482 0 01-.048 1.419c-.402-1.641-1.91-2.104-3.105-3.2a6.579 6.579 0 01-.144 2.86 3.703 3.703 0 00.115 2.345c.347.834-.011 1.75.078 2.617.16 1.564-.204 3.12.005 4.68.037.28-.148.56-.148.813 0 .664-.386 1.271-.223 1.954a17.15 17.15 0 00.674 2.281 9.164 9.164 0 01.197 1.604 9.66 9.66 0 01-.138 3.928c-.055.274.23.514-.01.849-.252.354-.39.262-.547 0a5.091 5.091 0 01-.263-.66 3.119 3.119 0 00-.798-1.377 1.858 1.858 0 01-.653-1.084c-.196-.862-.983-1.345-1.435-2.054a9.717 9.717 0 01-1.173-2.583.528.528 0 00-.057-.18 12.387 12.387 0 01-1.386-3.203.311.311 0 00-.351-.221.303.303 0 00-.273.314 2.553 2.553 0 00.165 1.28c.234.543-.078.86-.427 1.177-.378.344-.619-.03-.914-.165-.43-.197-.199-.414-.012-.587a.656.656 0 00.208-.814.677.677 0 00-.37-.339c-.202-.058-.177.188-.255.303-.197.288-.386.577-.708.083-.17-.26-.714.078-.79-.424l-.003-.399.015-.03.042-.008-.027-.062a1.85 1.85 0 00-.673-1.472c-.174-.166-.438-.292-.379-.629a12.705 12.705 0 01.19-2.163.371.371 0 00-.256-.458l-.009-.002c-.31-.056-.248.238-.243.409a6.102 6.102 0 01-.215 1.219c-.067.378.305.571.173.909a.844.844 0 00.359 1.023c.56.3.498.888.799 1.29a.06.06 0 00-.003.063l-.282.03c-.183-.15-.335.058-.506.044-.165-.084-.396-.02-.508-.224-.1-.204-.197-.199-.287.008a2.425 2.425 0 01-1.245 1.417 2.788 2.788 0 00-1.006.88 2.093 2.093 0 01-1.081.845c-.714.336-1.398.728-2.13 1.036-.508.213-.737.056-.908-.363-.115-.28-.145-.603-.576-.565a1.04 1.04 0 00-.94.573 1.85 1.85 0 01-2.47.862q-.068-.032-.132-.07c-.02-.01-.041-.027-.059-.024-1.265.212-1.704-.898-2.435-1.532a1.426 1.426 0 00-1.93.232c-.125.257-.423.273-.5.64-.15.717.315 1.09.65 1.498a4.617 4.617 0 001.996 1.578c.113.04.264.146.286.246a2.285 2.285 0 001.86 1.71c.337.101.581.538 1.061.43.215-.048.359-.033.448-.333.154-.515.766-.578 1.141-.893a.934.934 0 00.362-.516 6.314 6.314 0 01.752-2.266 1.567 1.567 0 001.04 1.502 1.482 1.482 0 001.028.014c.63-.232 1.028.15 1.433.383.456.261.254.809.113 1.181a6.554 6.554 0 01-.585 1.547 1.898 1.898 0 00-.064 1.34.914.914 0 01-.23.987c-.118.118-.306.317-.273.416.275.821-.378 1.144-.805 1.592-.014.015-.031.043-.026.058.356 1.012-.88.986-1.088 1.644-.033.104-.235.166-.134.35a.242.242 0 01-.165.36c-.873.22-.873.908-.996 1.61-.061.352-.54.576-.747.936a1.687 1.687 0 01-.455.462c-.588.447-.937 1.126-1.458 1.592-.458.41-.917.838-1.338 1.279a18.346 18.346 0 01-1.893 1.386c-.205.168-.342.563-.604.77-.28.222-.506.3-.764-.138-.418-.712-.685-1.49-1.076-2.212-.19-.35-.097-.788-.22-1.194-.27-.889-1.139-1.123-1.652-1.732a6.73 6.73 0 00-1.554-1.577c-.11-.066-.193-.199-.307-.228-.914-.236-.992-.444-1.157-1.343a2.983 2.983 0 00-1.203-1.916 7.426 7.426 0 01-1.878-1.542c-.409-.572-.914-1.065-1.276-1.656a1.168 1.168 0 00-.682-.62c-.662-.19-.618-.903-.955-1.337-.124-.16-.165-.368-.408-.28a.309.309 0 00-.135.53c.347.395-.09.68-.13 1.011-.03.225-.29.014-.388-.1-.388-.454-.75-.932-1.141-1.385-.164-.19-.387-.487-.643-.277-.252.207-.125.55.02.82.505.933 1.355 1.615 1.908 2.49.527.835 1.201 1.556 1.69 2.412.134.234.129.621.55.642.104.005.14.148.15.263a1.823 1.823 0 001.38 1.612 1.534 1.534 0 01.896 1.319c-.036.875.611 1.517.605 2.347a.17.17 0 00.061.104c.663-.203.867.562 1.424.687a1.113 1.113 0 01.803 1.04.927.927 0 00.31.796 1.99 1.99 0 01.559.703c.114.343.442.195.681.207.57.027 1.213-.145 1.471.617.807-.191.959.563 1.372.942a.266.266 0 00.236.028c.14-.061.278-.19.36.048.051.149.05.306-.137.38-.137.055-.324.074-.206.3.095.181.25.393.442.308.365-.163.311.11.402.285.345.667 1.222.763 1.908.088.497-.49 1.158-.689 1.65-1.152a17.726 17.726 0 012.681-1.88c.26-.168.334-.594.716-.696.262.359.509.723.14 1.183a.397.397 0 00-.025.317c.263.808-.28 1.447-.418 2.168a2.984 2.984 0 01-.829 1.822.403.403 0 00-.048.372 1.262 1.262 0 01-.282 1.377c-.5.697-.524 1.58-.99 2.3a15.994 15.994 0 01-2.07 2.648c-1.062 1.061-1.765 2.364-2.702 3.496-.456.551-.623 1.293-1.032 1.735-.38.41-.71 1.056-1.372 1.21-.19.045-.396.072-.427.327a9.468 9.468 0 01-1.174 2.843.924.924 0 00-.129.74 2.377 2.377 0 01.118 1.67 1.524 1.524 0 00.264 1.07 2.977 2.977 0 01.468 2.641c-.18.467.12 1.031-.058 1.575a1.413 1.413 0 01-.414.776c-1.148.851-2.144 1.933-3.584 2.348-.413.119-.564.58-.824.865a8.11 8.11 0 01-1.676 1.153c-.693.464-.825.728-.37 1.405a.992.992 0 01.006 1.208 2.98 2.98 0 01-1.682 1.276c-.535.227-.97.608-1.498.837a.316.316 0 00-.182.382c.15.32-.06.428-.228.64-.78.974-2.025 1.317-2.877 2.149a13.821 13.821 0 01-2.793 1.573 12.016 12.016 0 01-2.993.934c-1.36.402-2.796.287-4.16.728a3.493 3.493 0 01-2.158.123c-.291-.094-.43-.188-.313-.489a.428.428 0 00-.154-.576c-.725-.353-1.197-1.036-1.944-1.383a1.822 1.822 0 01-1-1.325 14.028 14.028 0 00-.395-1.548c-.203-.754-.926-1.163-1.366-1.768a5.607 5.607 0 00-1.547-1.42.59.59 0 01-.179-.876 9.668 9.668 0 001.093-2.373c.11-.353.366-.648.65-.654.549-.012.71-.383.848-.742a1.373 1.373 0 00-.064-1.252c-.135-.218-.172-.49-.402-.655-.262-.19-.338-.359-.08-.682.388-.485-.133-.856-.361-1.187a3.733 3.733 0 00-.512-.641c-.477-.438-.29-.685.304-.84-.597-.202-.57-.56-.34-.974.051-.093.144-.193.022-.279a.284.284 0 00-.243-.015c-.851.418-1.295-.348-1.816-.705-.417-.285-.64-.793-1.237-.945-.288-.073-.47-.565-.693-.872-.036-.05-.018-.153-.059-.182-.907-.628-.042-1.088.19-1.564.085-.173.303-.237.14-.493-.098-.153-.103-.339.137-.414.072-.023.216-.104.17-.119-.807-.256.104-.732-.149-1.141-.203-.33-.039-.885-.038-1.34 0-.422-.057-.797-.61-.804-.079 0-.207-.031-.23-.084-.336-.766-1.009-.495-1.572-.502a4.07 4.07 0 00-1.955.241.479.479 0 01-.548-.582.922.922 0 00-.702-1.18c-.487-.173-.827-.573-1.427-.652a1.76 1.76 0 00-1.32.168c-.241.159-.421.02-.578-.121-.289-.263-.481-.141-.79.027a5.021 5.021 0 01-1.295.318c-.176-.2-.435-.344-.45-.656a2.883 2.883 0 00-.082-2.43c-.148-.273-.264-.375-.398-.012-.117.315-.279.284-.48.09-.157-.15-.366-.274-.46-.457-.31-.607-.587-.387-.91-.02-.203.231-.282.34.109.473a1.582 1.582 0 01.785 1.75c-.159.409-.032.583.353.623a.679.679 0 01.502.257c.14.18.086.409-.116.385-.46-.054-.726.37-1.096.4a10.325 10.325 0 01-2.346.095.283.283 0 01-.171-.169c-.246-.685-.743-.708-1.317-.498-.452.165-.879-.069-1.32-.086a3.792 3.792 0 00-2.231.422.458.458 0 01-.642-.087l-.002-.003c-.591-.693-1.559-.946-1.991-1.869-.256-.544-.934-.826-1.403-1.243a4.242 4.242 0 00-1.273-.977.374.374 0 01-.216-.233c-.103-.66-.684-1.074-.847-1.72a5.287 5.287 0 01-.294-.961 1.204 1.204 0 00-.605-.88.705.705 0 01-.41-.852c.082-.367.184-.611.612-.595.283.01.272-.265.306-.428a.609.609 0 00-.188-.592.278.278 0 00-.239-.032c-.09.035-.071.134-.043.223.073.226.196.51-.092.627-.257.103-.46-.105-.663-.291a2.167 2.167 0 00-1.251-.483c.404-.354.262-.65-.484-1.138a.928.928 0 00.139-1.573c-.52-.495-.412-.82.067-1.196.102-.08.18-.188.278-.274.334-.296.223-.467-.214-.55.548-.637 1.224-1.169.964-2.118-.045-.165.107-.32.168-.48.256-.667-.179-1.456.377-2.096.075-.087-.078-.509-.237-.634-.397-.311-.3-.762-.357-1.132-.077-.49.561-.552.782-.908.066-.106.258-.136.342-.324.214-.478.408-.96 1.008-1.163.276-.093.401-.534.59-.781.388-.507.39-1.348 1.267-1.497a.962.962 0 00.882-.979.747.747 0 01.08-.23c.427.245.634-.32.996-.277a2.972 2.972 0 002.458-1.156c.047-.045.084-.114.14-.135.76-.285.752-.779.552-1.477a1.299 1.299 0 01.438-1.08c.156-.15.44-.252.48-.42.242-1 1.11-.995 1.845-1.234a4.095 4.095 0 001.618-1.253.556.556 0 00.162-.473.407.407 0 01.232-.487c.241-.094.363.122.473.26.776.971 1.875.758 2.905.825 1.188.078 2.08-.82 3.194-.946a6.495 6.495 0 011.408-.261c.739.076 1.401-.424 2.154-.27.229.047.458-.014.601.27a.46.46 0 00.618.2l.005-.002c.456-.4.957-.173 1.43-.19.93-.032 1.335.645.972 1.594-.288-.157-.346-.484-.538-.703a.487.487 0 00-.528-.168c-.216.063-.202.259-.203.431-.003.61-.002 1.218 0 1.828m26.145 40.33c.02.056.04.112.1.032l-.073-.06-.05-.153-.068.052a1.532 1.532 0 00.091.13zm12.015-96.513c.006.22.121.26.302.18.077-.034.186-.086.132-.186-.072-.132-.222-.102-.35-.104-.085-.237-.14-.505-.462-.526-.039-.003-.121.078-.117.111.037.257.242.376.438.499a.322.322 0 00.057.026zm-9.14-5.36c-.03-.052-.051-.139-.093-.15-.111-.03-.142.06-.153.152l-.663.056a.92.92 0 00-.151-.12 29.26 29.26 0 00-2.958-.898c-.414-.156-.76-.535-1.268-.43-.152.031-.341.024-.375.195-.048.24.17.245.335.3.762.254 1.509.562 2.283.768.698.186 1.425.266 2.14.392l1.552-.008c.4.02.878.396 1.128-.252l.069-.126c.595.657 1.175 1.328 1.796 1.96.165.169.416.543.686.247.196-.215-.002-.612-.228-.72-.432-.205-.67-.616-1.03-.845-.42-.265-.334-.933-.914-.998l.042-.208a1.054 1.054 0 011.215-.017 9.522 9.522 0 012.653 2.262c.126.173.183.403.449.42.055.412.379.402.677.43-.057.464.391.46.613.664-.502.304-.347.733-.218 1.157.19.394.542.217.864.3-.1-.388-.36-.31-.58-.317l.098-.559c.484-.13.648-.45.313-.654-.353-.214-.542-.612-.942-.744-.135-.29-.491-.222-.68-.423a.953.953 0 00-.25-.573c-.346-.534-.95-.805-1.322-1.27a3.876 3.876 0 00-2.441-1.385c-.214-.042-.31-.046-.413.12a.471.471 0 01-.408-.153c-.077-.13-.148-.263-.233-.387-.104-.152-.328-.264-.191-.494.12-.202.343-.174.529-.153.276.032.547.108.82.161.117.023.27.132.334-.044.062-.17-.096-.193-.22-.242a4.367 4.367 0 00-1.453-.424c-.67-.03-.872.104-.728.762a1.027 1.027 0 00.883.835c-.024.371.13.788-.272 1.062-.363.052-.8-.113-1.022.35zm-1.311 111.476c-.133-.086-.255-.108-.348.056-.15.228-.09.432.146.513.359.125.557-.108.694-.407.283-.042.602.107.848-.16-.309.05-.648-.45-.925.063zm7.963-54.125c-.155.214-.349.494-.03.645.262.124.568-.1.674-.36.189-.463-.342-.358-.507-.551-.137-.193.332-.502-.122-.634-.195-.227-.379-.465-.588-.678-.146-.15-.38-.168-.357.087.037.414.041.894.56 1.08a.422.422 0 00.37.41zm12.676-38.288c.112.099.223.199.337.296.142.12.27.307.49.125.169-.141.337-.317.284-.54-.076-.325-.337-.144-.53-.134-.171.008-.342.011-.513.017-.058-.283-.14-.579-.473-.609-.19-.017-.179.206-.184.355-.016.416.236.514.589.49zm-49.699 74.17c-.177.095-.176.19 0 .285.03.519.215 1.048-.107 1.541-.205.102-.198.198.008.287.261.037.472 0 .481-.33.004-.17-.004-.344.167-.452.2-.096.2-.193 0-.289-.332-.687-.235-1.129.326-1.482.093.19.178.19.254-.01.57-.188 1.05.195 1.58.253.272.37.432-.001.607-.111.13-.082.312-.208.214-.416-.1-.214-.345-.133-.512-.212-.261-.123-.367.186-.578.192a1.646 1.646 0 01-1.03-.379c-.15-.135-.178-.572-.528-.213-.375.076-.583-.158-.778-.417-.102-.204-.198-.197-.288.009-.053.446.395.787.261 1.25-.1.077-.1.153.002.229zm39.984-49.085c.033-1.03-.154-1.252-1.079-1.397-1.006-.157-1.207-.409-.991-1.254.024-.093.033-.19-.055-.223-.745-.279-.31-.575.023-.762.561-.314.945-.588.208-1.127-.103-.076-.112-.273-.179-.407-.238-.482-.508-.89-1.109-.414a.232.232 0 01-.302.007c-.396-.326-.566.037-.677.275-.2.431-.318.886-.907.944-.155.015-.242.156-.16.35.17.409.234.778-.258 1.06-.334.19-.371 2.064-.036 2.165a1.506 1.506 0 011.076 1.14c.033.11.169.192.266.276a12.364 12.364 0 001.901 1.248 3.056 3.056 0 011.097 2.11 2.665 2.665 0 00.804 2.065c.122.082.32.212.403.168.547-.29 1.01.071 1.496.17a.91.91 0 00.607-.115 8.973 8.973 0 001.571-1.186c.412-.298.284-.49.029-.545-.521-.114-.53-.428-.532-.828a1.005 1.005 0 00-.188-.406 6.375 6.375 0 00-1.31-1.863c-.253-.219-.19-.514.064-.548.535-.073.249-.497.382-.73.316-.553-.277-.414-.492-.564-.316-.221-.632-.617-.949-.619-.437-.001-.292.683-.703 1.01zm-9.939 55.357c.016 1.276.016 1.276 1.273.988.124-.028.256-.026.38-.057a1.756 1.756 0 001.362-1.697c.026-.6.23-1.104.918-1.228.21-.037.385-.129.361-.377a.416.416 0 00-.441-.389l-.007.001c-.688.08-1.38-.224-2.077.24-.984.653-1.967.866-1.769 2.52zm-18.167 4.164c.232-.49.524-.865.694-1.327a1.743 1.743 0 01.807-.767c.592-.342 1.396-.623 1.4-1.535 0-.367-.027-.7.493-.696.105 0 .218-.129.316-.211a2.988 2.988 0 012.174-.857 1.811 1.811 0 00.74-.166c.422-.152.917-.612 1.342-.09a2.092 2.092 0 001.494.642.717.717 0 01.321.21c.22.203.472.313.646.008.147-.257-.022-.408-.302-.513-.655-.247-1.282-.567-1.936-.816-1.06-.402-2.103.258-3.165.084-.016-.002-.04.018-.055.032-.603.583-1.47.647-2.144 1.089a.28.28 0 01-.348.027c-.422-.251-.5-.02-.4.337a2.003 2.003 0 01-.94 2.163 2.494 2.494 0 00-1.137 2.386zm33.772-65.919a.369.369 0 00-.417.073c-.275.228-.42.656-.958.402-.467-.22-.478-.544-.46-.946a.591.591 0 00-.366-.573c-.485-.178-.614-.584-.787-.988-.144-.337-.315-.458-.736-.255-.53.255-.428.645-.492 1.07-.049.321-.329.655-.202.974.16.4.641.263.969.394.026.01.033.069.05.105-.658.172-.883.518-.6.996a6.945 6.945 0 00.899.985c.21.235.559-.121.838-.113.389.012.516-.169.649-.483.096-.227.333-.575.488-.565.81.05.737-.68 1.125-1.076zm-15.884-6.216c-.208.217.009.335.095.505.196.384.671.475.861.907.079.18.555.14.779-.158.206-.275.008-.337-.192-.47-.347-.232-.268-.86-.824-.934-.024-.003-.03-.16-.038-.246a.676.676 0 01.55-.764c.319-.103.226-.38.225-.606a.275.275 0 00-.281-.294c-.25-.023-.314.133-.39.339-.115.313-.415.569-.705.391-.538-.328-1.077-.022-1.597-.135a.826.826 0 00-.823.337.967.967 0 01-1.733-.455c-.086-.29-.178-.478-.499-.48-.198 0-.35.063-.358.285-.01.32-.093.718.316.83a4.786 4.786 0 011.183.655.513.513 0 00.501.038c.742-.205 1.344-.806 2.257-.584.57.138.65.384.673.84zm-.914 74.779c.716.015.9-.136.746-.566a2.835 2.835 0 00-.835-1.49.931.931 0 01-.444-.924 2.87 2.87 0 00-.027-.649.59.59 0 00-.547-.482.51.51 0 00-.523.305 2.92 2.92 0 00.7 2.52.601.601 0 01.338.69c-.045.356-.383.278-.63.289a1.78 1.78 0 00-1.463 1.262c-.027.174.009.317.17.377.216.081.22-.104.283-.244.087-.19.204-.49.346-.513.722-.119 1.37-.491 1.886-.575zm2.596-69.465a.337.337 0 00-.2-.246c-.231-.092-.408-.135-.47-.484a1.375 1.375 0 01.14-.85c.074-.177.115-.393-.092-.526a.31.31 0 00-.419.035c-.23.322-.474.59-.234 1.098a4.042 4.042 0 01.395 2.411c-.034.205-.109.357-.327.276-.42-.156-.377.134-.457.389-.177.562.179 1.177-.225 1.728-.139.19.042.447.325.399.36-.062.698-.14.637-.687-.03-.26-.145-.618.226-.868a1.128 1.128 0 00.413-1.38.835.835 0 01.163-.956.328.328 0 00.125-.34zm12.16-29.128a1.335 1.335 0 00.723.815 12.395 12.395 0 012.884 2.688 11.043 11.043 0 01.86 1.35c.104.162.212.29.416.197a.304.304 0 00.146-.442 4.645 4.645 0 00-.426-.87 16.578 16.578 0 00-2.468-2.543 10.871 10.871 0 00-2.136-1.195zM148.38 171.55a.637.637 0 00-.502-.807.383.383 0 00-.49.32 2.683 2.683 0 00-.013 1.124 4.462 4.462 0 01.094 1.68 1.46 1.46 0 00.287.837c.14.246.295-.15.475-.144.817.03.741-.309.35-.807a.648.648 0 01-.152-.612c.218-.572-.333-1.123-.049-1.591zm-2.423-80.2c.05.383.342.797.289 1.28-.013.12.171.188.307.178.17-.012.198-.12.161-.275-.09-.383.51-.714.086-1.125.046-.043.092-.088.14-.13a.47.47 0 00-.175-.843c-.453-.109-.575-.476-.828-.73-.155-.158-.146-.458-.347-.607-.111-.084-.238-.238-.399-.123a.266.266 0 00-.036.403c.354.47.167 1.228.827 1.544.14.066.093.223-.025.427zm18.695 1.077c-.172.012-.185.16-.187.28a1.086 1.086 0 01-.681.938 1.55 1.55 0 00-.635 1.809 1.79 1.79 0 001.182 1.348.243.243 0 00.175-.042.182.182 0 00.04-.284c-.373-.324-.323-.84-.578-1.215-.096-.141-.194-.267-.035-.456.288-.343.516-.74.822-1.063a1.354 1.354 0 00.327-.755c.053-.303-.129-.483-.43-.56zm-40.67 58.004c-.383.04-.805 0-.945.295-.166.351.198.572.466.748a.681.681 0 01.403.718c-.027.225.115.543.423.255a2.413 2.413 0 011.113-.575c.156-.039.3-.054.308-.258a.361.361 0 00-.21-.368c-.463-.248-1.1-.19-1.376-.779-.021-.044-.16-.032-.181-.036zm26.036-36.503a1.022 1.022 0 001.033.25c.229-.089.364-.11.464.128.05.12.094.286.257.177.172-.115.42-.174.47-.414.034-.154-.114-.213-.222-.283-.346-.227-.815-.33-.85-.871-.004-.05-.13-.121-.207-.133-.602-.09-.609-.554-.622-1.029l-.568.316c.236.182.582.329.194.675-.208.185 0 .4.074.594.096.251.302.202.492.168.153-.028.37-.205.406.072.026.205-.188.32-.4.344-.162.02-.311-.19-.521.006zm12.006-37.17c-.168-.505-.585-.522-.946-.625-.767-.218-1.4-.755-2.192-.912-.242-.048-.49-.061-.434.26.063.362.3.747.656.777.738.063 1.496-.113 2.131.48a.808.808 0 00.785.02zm-18.296 61.534c.36.005.676.043.706-.416a.42.42 0 01.245-.282c.718-.259.486-.711.276-1.182-.118-.264-.27-.615-.548-.496-.194.083-.419.6-.332.746.385.65-.183.738-.498.941-.18.116-.342.201-.308.428.045.304.305.244.46.26zm6.142 18.913a3.153 3.153 0 00.525 1.294c.112.179.495.434.706.24a.436.436 0 00-.166-.74c-.269-.115-.256-.33-.24-.54a2.792 2.792 0 00-.138-.756c-.034-.176-.106-.276-.29-.28-.222-.003-.297.132-.32.327-.019.15-.05.298-.077.455zm-13.26-63.43c-.457-.013-.403.333-.487.549-.12.31.084.488.342.581.196.07.422.018.604.183a.309.309 0 00.463-.014.455.455 0 00.06-.546c-.272-.342-.755-.422-.983-.754zm-35.52 62.693a4.47 4.47 0 01-.085-.717c.004-.16.063-.309-.144-.356a.737.737 0 00-.569.038c-.285.183-.162.99.206 1.32.122.109.22.326.414.265.245-.076.14-.325.179-.55zm38.281-87.61c-.392-.433-.955-.595-1.286-1.045a.193.193 0 00-.33.018c-.096.124-.181.27.006.389.214.134.26.27.061.462-.118.114-.101.282.066.287.482.015.991.46 1.483-.11zm25.393 20.848c.158-.167.639.142.628-.252a.59.59 0 00-.686-.606c-.381.055-.473-.166-.488-.501-.02-.408-.408-.307-.645-.394a.304.304 0 00-.373.187c-.065.287.235.316.398.427.375.254.763.485.846.989.024.149.118.225.32.15zm-52.332 64.758c-.004.335.22.734.415.69.372-.085.236-.409.219-.639a1.63 1.63 0 01.08-.63.835.835 0 00-.626-.838c-.164-.003-.384.136-.225.248.516.367.044.79.137 1.169zm39.103-39.261a.404.404 0 00-.478.313l-.005.032a1.476 1.476 0 00.71 1.253c.303.062.622.063.699-.354a4.424 4.424 0 00-.926-1.244zm9.308-33.778c-.027-.045-.046-.129-.09-.147a1.943 1.943 0 01-1.24-1.23c-.047-.145-.316-.077-.279 0 .191.395-.099.966.433 1.224.27.131.56.225.825.366.25.134.3-.009.35-.213zm6.902 14.982c-.078.05-.162.072-.173.115-.082.309-.365.484-.495.746a.724.724 0 00.086.846c.157.131.488-.03.698-.191a.655.655 0 00.284-.792 5.944 5.944 0 00-.4-.724zm-8.613-10.512a6.98 6.98 0 01-.302-1.54c-.008-.193-.32-.124-.481-.212-.105-.057-.23.073-.186.184a5.085 5.085 0 00.644 1.531c.043.052.152.06.231.064.058.003.118-.035.094-.027zm-19.95 93.23c.156-.063.23-.095.306-.124.627-.244.992-1.04 1.82-.87.02.003.086-.097.088-.15.004-.095-.066-.15-.158-.174a2.131 2.131 0 00-2.056 1.319zm10.554-63.925a.797.797 0 00-.587.21c-.16.102-.477.014-.432.354a.677.677 0 00.376.568.694.694 0 00.67-.1c.304-.214.134-.623.29-.921.05-.094-.199-.092-.317-.111zm1.963 33.036c-.27-.165-.134-.633-.48-.588a.9.9 0 00-.819.858c.006.467.56.185.849.332.196.1.196-.434.45-.602zm-22.557 18.99c.028.177-.09.584.295.526.578-.087.457-.65.55-1.059.038-.17.058-.354-.16-.312a.729.729 0 00-.685.845zm20.736-2.417c-.028-.308-.213-.332-.41-.23a9.216 9.216 0 01-.886.531c-.177.068-.166.318-.053.46.142.176.42.196.5.008a.832.832 0 01.62-.477c.098-.032.155-.193.229-.292zm16.583-80.327c-.274.09-.504.166-.5.474.006.307.159.675.414.639a.972.972 0 00.626-.619c.097-.367-.426-.25-.54-.494zm-14.421 70.19c.606.189.464-.376.556-.662.048-.15-.07-.46-.297-.406-.432.102-.495.569-.639.9-.106.245.176.205.38.167zm4.71-68.076c-.064.267-.086.563.337.553a.472.472 0 00.469-.521.56.56 0 00-.528-.563c-.243-.006-.426.198-.278.53zm19.15 2.386a.208.208 0 00-.224.264c.105.285.103.679.535.716a.267.267 0 00.315-.32c-.037-.38-.346-.516-.627-.66zm-32.937 83.883c-.304-.01-.734.252-.72.443a.358.358 0 00.393.32l.02-.002a.768.768 0 00.659-.54c.064-.232-.21-.2-.352-.221zm4.56-12.211c-.046-.162.093-.419-.19-.473-.275-.053-.924.451-.909.708.035.572.506.16.757.276.354.164.316-.26.341-.511zm34.398-54.456a3.834 3.834 0 01.78.997.303.303 0 00.367.185c.101-.022.13-.089.132-.186a1.19 1.19 0 00-1.28-.996zm-40.984 11.93c-.1.41.085.518.437.531.22.008.426.015.408-.25a.871.871 0 00-.676-.765c-.279-.064-.07.347-.17.484zm4.699-44.465c-.328-.132.179-.706-.381-.775-.156-.02-.372.054-.278.234.15.285-.08.754.393.868.178.044.271-.09.266-.327zm-1.397 87.734a5.355 5.355 0 00.599-.29.69.69 0 00.311-.72c-.058-.213-.403-.192-.63-.199-.15-.005-.36.176-.174.272.764.393-.08.562-.106.937zm1.722 8.71c.254.02.531.039.517-.311-.018-.421-.398-.225-.612-.288-.237-.071-.52-.048-.507.3.016.423.412.18.602.3zm33.796-69.074c-.03-.202-.061-.384-.082-.568-.022-.186.044-.406-.144-.53-.111-.072-.2.032-.229.142-.06.236-.316.456-.127.714a.852.852 0 00.582.242zM163.813 78.76a.912.912 0 00.51 1.184l.05.018c.109.02.242.027.272-.09a.424.424 0 00-.078-.294c-.189-.287-.546-.401-.754-.818zM135.46 92.902c.012.153-.119.432.14.4.216-.026.535-.185.548-.443.01-.192-.247-.363-.475-.375-.332-.017-.218.238-.213.418zm23.021.912a.547.547 0 00-.47-.5.255.255 0 00-.271.343c.107.226.078.61.447.617.236.004.284-.223.294-.46zm-21.173 91.504c-.602-.32-.87.104-1.295.27.58.433.861-.006 1.295-.27zm-8.104-95.425c-.126-.315-.467-.358-.75-.47-.104-.042-.246.036-.18.165.128.253.083.689.578.61.174-.027.35-.024.352-.305zm14.084 49.158c.137-.244.038-.373-.214-.394-.255-.022-.338.15-.348.37a.465.465 0 00.399.51c.403.013.098-.32.163-.486zm27.315-46.73a.302.302 0 00-.195.346c.019.247.142.412.404.41.2 0 .237-.156.235-.32-.004-.273-.225-.337-.444-.437zm.807 11.316c-.518 0-.839-.007-1.16.004-.106.004-.242.073-.219.189a1.017 1.017 0 00.203.382c.103.138.203.013.25-.057.182-.268.523-.25.926-.518zm-7.792-31.511c-.137-.002-.195.053-.206.148-.025.215.664.71.873.63.089-.033.173-.118.107-.186a1.932 1.932 0 00-.774-.592zm14.606 28.479c.026.164-.033.397.193.425a.274.274 0 00.304-.328c-.05-.186-.041-.498-.301-.51-.225-.009-.166.254-.196.413zm-11.646-8.558a.585.585 0 00-.526-.472c-.184-.026-.379.068-.378.254 0 .307.248.421.52.445.165.015.354.026.384-.227zm-24.084 71.531c-.015.241.146.302.327.312.222.012.29-.145.302-.333a.286.286 0 00-.283-.35c-.277-.022-.283.205-.346.371zm24.16-68.107c.011.287-.49.376-.261.664a.412.412 0 00.536.018c.266-.3-.193-.42-.275-.682zm-49.762 18.287c.178-.298.254-.506.033-.696-.081-.071-.26-.054-.283.032-.066.247.185.373.25.664zm28.817 63.237a.833.833 0 00-.062.92 1.113 1.113 0 00.062-.92zm-22.565-68.223c-.152-.062-.304-.128-.458-.185-.138-.05-.42-.192-.314.1.106.293.49.076.772.085zm-59.757-17.59l.007.311-.116.184a1.183 1.183 0 00-.674.194.373.373 0 00-.344.444l-.303.12-.237-.959c-.18.315-.447.446-.525.735l-.284.02c-.218-.021-.295-.59-.629-.162a.724.724 0 01-.543.433.547.547 0 01-.312-.671 1.433 1.433 0 00.072-.86l.032-.415c.53-.124.557-.183.282-.629l.004-.436c.214-.031.434-.212.391-.356-.201-.672.335-1.297.088-1.958l.036-.268c.196-.062.21-.215.193-.385l.07-.143c.245-.376.532-.67.178-1.218-.282-.437.206-.949.475-1.247a24.527 24.527 0 001.568-2.136 69.87 69.87 0 017.735-8.857 49.645 49.645 0 015.637-4.892c1.51-1.088 2.88-2.37 4.465-3.358a15.835 15.835 0 013.452-2.01 12.524 12.524 0 002.503-1.01c.148-.084.33-.116.423-.282 1.111-.472 2.121-1.157 3.266-1.559a18.213 18.213 0 001.885-.659c1.423-.685 2.995-.88 4.453-1.433.52-.196 1.061-.16 1.588-.307 1.65-.461 3.22-1.154 4.918-1.495 1.307-.262 2.63-.487 3.918-.802 1.008-.246 2.136-.207 3.03-.92.185-.15.545-.082.824-.114.346.14.537-.196.814-.265.726-.077 1.455-.138 2.178-.236a9.247 9.247 0 011.682.148c.112.005.248.03.222.163a.324.324 0 01-.235.185c-.435.05-.571.025-.368.632.184.55.432.43.73.463a7.077 7.077 0 011.41.09 1.756 1.756 0 01-.933.731 16.25 16.25 0 01-1.576.53 15.346 15.346 0 01-1.808.181 13.891 13.891 0 00-3.272.477 22.896 22.896 0 01-3.12.585 3.31 3.31 0 00-1.659.735c-.617.445-1.142 1.168-2.057 1.156a1.1 1.1 0 00-.846.436c-.376.523-.963.61-1.47.864-.437.219-.962.257-1.297.688-.16.207-.43.147-.67.156a1.689 1.689 0 00-1.58.835 1.309 1.309 0 01-.964.595 2.434 2.434 0 00-.837.395c.35.421.755-.015 1.099.115a.603.603 0 01-.375.575 4.736 4.736 0 00-1.627 1.64 1.225 1.225 0 01-.679.583c-.165.044-.285.143-.218.329.073.199.251.156.388.098.555-.232.957.32 1.484.282.137-.01.026.216.011.334a.12.12 0 00-.072.07l-.425.055c-.565-.072-.906.122-.883.746a3.305 3.305 0 00-1.088.465c-.267.159-.27.309.033.43.096.19.19.188.281-.004l.509-.017c.068.171.146.232.25.023l.21.022q-.103.315-.203.63c-.248.142-.455.389-.79.31-.282-.165-.308.066-.371.24l-.406.004-.051-.26a1.57 1.57 0 00.049-.908c-.115-.3-.24-.296-.374-.012l-.502.23q-.15-.018-.301-.033c-.013-.388.413-.507.507-.828.215-.104.225-.334.072-.403-.257-.117-.342.162-.447.34-.511.058-.487.614-.798.859l-.63.026-.152-.423.009-.381c.063-.492.609-.62.785-1.042.07-.172.38-.319.151-.5-.172-.136-.416-.05-.587.2a4.717 4.717 0 01-.65.864c-.53.49-.574.529-1.242.398-.287-.21-.57-.464-.912-.085a1.87 1.87 0 01-.94.14 1.255 1.255 0 00-.26-.262c-.382-.205-.155.158-.222.25a.377.377 0 01-.063.044c-.192-.011-.395-.049-.492.188-.307.004-.517.241-.79.328a.242.242 0 00-.252.195l-.147.063c-.248.053-.23.222-.177.407l-.04.038c-.244-.061-.353.08-.419.284l-.263.062a.24.24 0 00-.26.198l-.273.026c-.6-.033-.73.229-.523 1.048a2.344 2.344 0 01-.773 1.062c-.598.44-.905 1.144-1.44 1.645-.271.254-.121.616-.23.923a2.47 2.47 0 01-1.805 1.489 2.257 2.257 0 00-1.357 1.076c-.296.484-1.03.729-.91 1.48.044.282-.015.4.389.269a9.244 9.244 0 002.542-1.636c.35-.258.606-.454 1.025-.172a1.165 1.165 0 001.355-.118c.815-.577 1.953-.774 2.322-1.91.07-.216.345-.132.532-.137a1.915 1.915 0 001.37-.448c.494-.444 1.335-.38 1.71-1.068.039-.073.157-.036.232.022.098.075.04.141.002.221-.182.389-.453.778-.024 1.182a.125.125 0 01-.007.122 12.423 12.423 0 00-1.407 1.858.26.26 0 01-.399.056.242.242 0 00-.366.141c-.112.658-.632.678-1.119.808-.129.034-.58.255-.066.52.287.149.041.297-.088.37-.22.124-.618.226-.378.512.217.258.427.692.904.617.287-.045.57-.12.836-.179a.9.9 0 01-.725 1.045l-.047.007a.281.281 0 00-.192.162c-.16.928-1.166 1.076-1.607 1.748a.97.97 0 00-.18.464 1.275 1.275 0 01-.68 1.153c-.492.241.129.443.05.688-.049.151.265.272.072.459-.155.149-.276-.04-.413-.048-.367-.022-.735-.024-1.103-.028-.153-.002-.321-.003-.35.202a.338.338 0 00.264.397 2.865 2.865 0 01.854.21c.12.06.283-.236.377.012.07.183-.132.241-.24.34a.28.28 0 00-.02.454c.326.266.07.437-.101.559-.311.22-.673.301-.75.82-.036.242-.65.237-.853 0-.4-.468-.882-.363-1.367-.368-.582-.005-1.027-.026-.978-.884a4.13 4.13 0 00-.595-1.591.522.522 0 00-.503-.248 8.177 8.177 0 00-3.322.25c-.164.062-.39.182-.485.032-.399-.63-1.035-.234-1.537-.393-.156-.05-.378-.038-.418.193a.756.756 0 00.3.75c.259.175.186-.183.287-.279a.678.678 0 01.94.004c.36.267.631.472 1.147.21a2.107 2.107 0 012.186.701c.206.344-.027.53-.214.725-.188.197-.369.21-.478-.102a.223.223 0 00-.324-.123.78.78 0 00-.378.551c.154.36-.218.403-.269.568-.094.31-.376.44-.485.734a.647.647 0 01-.94.388 4.832 4.832 0 01-1.187-.755c-.336-.28-1.255-.456-1.52-.146-.27.317-.665.43-.928.75-.158.193-.558.807-.735-.083-.076-.38-.832-.475-1.062-.142a.728.728 0 01-.7.349c-.253-.04-.163-.356-.17-.565-.004-.13.017-.274-.15-.317-.147-.038-.24.067-.332.16a11.01 11.01 0 00-1.56 1.489c-.155.074-.372.109-.233.368zm30.302-28.45c-.119-.36-.242-.161-.366-.004a.498.498 0 00-.286.445c-.006.352-.245.384-.518.363-.102-.151.01-.267.066-.391.21-.124.251-.25.003-.376l.18-.33c.186.05.348.048.404-.187l.03-.03c.263-.09.529-.17.787-.27.237-.092.282-.402.103-.415a1.682 1.682 0 01-.973-.323c-.064-.05-.175.088-.194.205-.572.065-.864.588-1.334.819-.09.002-.179.025-.17.132.005.045.08.083.121.124l-.008.245c-.206.118-.185.207.035.27l.062.305a1.805 1.805 0 00-.51.033c-.209.075-.57-.012-.593.286-.025.323.324.34.562.42-.167.178-.575.243-.364.604.076.13.326.055.473-.037.16-.099.368-.222.325-.429-.045-.223-.284-.103-.438-.136a.907.907 0 01.524-.286l.403.015c.157.058-.042.56.372.3.472-.055.95-.1 1.065-.7.256-.017.562.38.761-.093a1.855 1.855 0 001.203-.428c.16-.086.306-.175.108-.366.038-.265.219-.27.422-.232.106.144.277.092.416.136.135.044.322.167.385-.034.062-.198-.14-.315-.301-.35a3.667 3.667 0 00-.641-.038.932.932 0 00-.981.54.939.939 0 01-.725.545.42.42 0 00-.382-.307zm-1.993 3.403c.23-.116.265-.328.063-.43-.201-.102-.25.151-.307.305a1.47 1.47 0 00-.285.156c-.153.132-.402.23-.255.514.077.15.122.372.34.335.25-.043.199-.29.247-.472a2.282 2.282 0 01.197-.408zm-15.357 7.25c-.091-.246-.013-.73-.53-.377-.247-.093-.394.094-.555.215a.285.285 0 00-.12.383c.1.16.254.102.392.03l.167.321c-.093.079-.146.176-.012.247.175.093.388.154.52-.044.152-.228.452-.455.138-.775zm1.177-1.755l-.002.006a.697.697 0 00.552-.116 14.164 14.164 0 012.677-1.55c.482-.204.201-.782.574-1.046.092-.064-.132-.174-.25-.196a.997.997 0 00-.923.18c-.441.502-1.087.694-1.556 1.144a1.182 1.182 0 00-.372.512c-.614.14-1.225.284-1.336 1.059.005.141-.07.346.15.362.233.016.484-.019.486-.355zm12.264-5.42c.213-.017.425-.032.638-.05.205-.018.412-.067.372-.328-.04-.258-.271-.222-.462-.225-.238-.004-.348.241-.561.285-.506.25-1.019.496-1.023 1.181-.001.152-.016.313.143.402.174.097.254-.08.38-.133.544-.223.396-.733.513-1.132zM79.473 84.22c.327-.068.352.14.357.38.003.122-.013.285.166.298.156.01.201-.14.263-.25a1.84 1.84 0 00.049-1.435c-.032-.127.11-.305-.123-.363-.17-.043-.266.061-.387.167a1.727 1.727 0 00-.52 1.007c-.188.075-.416.185-.202.398.213.213.323-.013.397-.202zm-9.954 1.346a2.736 2.736 0 00-.334-1.071c-.142-.253-.32-.342-.488-.089-.197.299-.331.123-.432-.027-.149-.222-.373-.573-.126-.733.367-.238.846-.295 1.22-.57.086-.065.2.03.251.141.256.563.432.318.597-.059.14-.319.353-.688.705-.583.233.07.389.152.547-.032a.512.512 0 00.008-.555 1.853 1.853 0 01.742-2.453c.81-.508 1.04-1.525 1.848-2.022a.074.074 0 00.023-.059c-.054-.745.543-.953 1.025-1.268.218-.142.666-.328.486-.56-.23-.297-.632-.095-.898.176a1.998 1.998 0 00-.183.186.522.522 0 01-.8.094c-.277-.2-.573-.448-.868-.192a1.557 1.557 0 00-.68 1.197 1.455 1.455 0 01-.444 1.21c-.215.23-.466.425-.112.743.095.085.033.21-.072.27-.084.047-.153.003-.222-.068a.716.716 0 00-1.198.103.987.987 0 01-.384.336 6.246 6.246 0 00-1.973 1.583c-.144.138-.211.296-.08.457a.336.336 0 00.474.036 4.04 4.04 0 00.988-.736 3.468 3.468 0 01.657-.525.473.473 0 01.666.07l.023.03a.511.511 0 01-.199.656 4.934 4.934 0 01-.843.486c-.338.143-.804.155-.374.71.117.151-.111.251-.216.346a5.57 5.57 0 01-1.415.79.924.924 0 00-.427 1.167c.108.313.484.837.966.665.56-.201.651-.032.626.458-.02.39.256.583.518.36.18-.152.269-.506.398-.668zm26.72-24.512a3.686 3.686 0 002.218.02c.807-.25 1.001-.974 1.554-1.387.139-.104.009-.475-.277-.545-.133-.033-.45-.083-.39.134.19.711-.276.59-.652.561a1.336 1.336 0 00-1.182.41 2.146 2.146 0 01-1.27.807zM74.741 84.376a.412.412 0 00-.374.275c-.116.336.233.428.35.64.104.187.265.191.493.073.345-.18.533-.632.949-.629a2.037 2.037 0 001.054-.425c.417-.237.172-.417.023-.641-.216-.324-.428-.076-.494.064-.212.447-.796.321-1 .653-.353.57-.61.205-.91-.002-.015-.01-.042-.005-.09-.008zm9.754-17.044c.658.148 1.046-.534 1.647-.711a.287.287 0 00.13-.385l-.002-.003a.32.32 0 00-.416-.066 2.419 2.419 0 01-1.561.595.286.286 0 00-.275.365c.055.2.213.254.477.205zm1.881-2.052c-.043-.197-.083-.44-.275-.489a.896.896 0 00-.95.24c-.066.075-.234.074-.21.21a.212.212 0 00.257.146.766.766 0 01.737.216c.211.186.433-.018.441-.323zm-9.93 16.893a1.002 1.002 0 00-.122-.134 1.184 1.184 0 00-1.365.42c-.057.195-.022.37.234.335a4.885 4.885 0 00.88-.189.588.588 0 00.374-.432zm.772-12.442c-.059-.064-.09-.133-.138-.145a.383.383 0 00-.406.142 2.413 2.413 0 01-1.077 1.047c-.193.087-.137.288.017.429.17.155.324.134.406-.075.07-.178.23-.24.342-.36.302-.324.567-.682.856-1.038zm10.71-4.81c.431-.291.748-.484 1.04-.71.271-.21.03-.528.117-.79.036-.11-.102-.165-.22-.167a.47.47 0 00-.461.297c-.162.4-.286.815-.475 1.37zm4.751-5.209a2.786 2.786 0 00-1.531.347c-.158.058-.517.045-.334.398.175.335.43.144.6.012a12.624 12.624 0 011.265-.757zM74.233 71.865c-.35.528-1.105.464-1.443 1.035-.046.077-.094.158-.006.225a.222.222 0 00.177.034 3.596 3.596 0 001.424-.98.209.209 0 00.045-.173c-.014-.044-.09-.069-.197-.141zm19.099-6.67c-.362.058-.442.388-.633.603-.158.178-.194.364.032.48.247.13.43-.027.488-.258a6.812 6.812 0 00.113-.824zm-14.988 2.939a.215.215 0 00-.305-.146 1.215 1.215 0 00-.716.84c-.055.156.118.205.249.216a3.604 3.604 0 00.772-.91zm5.29-.065c-.237-.016-.381.08-.374.288a.378.378 0 00.445.37c.24-.014.56-.11.541-.357-.025-.331-.441-.151-.612-.3zm11.252-6.624c.27-.04.593-.057.687-.366.067-.216-.165-.26-.344-.269a.621.621 0 00-.652.432c-.079.234.171.17.31.203zm-8.63 5.884a2.677 2.677 0 001.15.093.272.272 0 00.263-.28l-.003-.029c-.023-.21-.205-.163-.35-.179-.354-.038-.574.232-1.06.395zm28.413-13.26c-.01-.162-.122-.204-.26-.2-.436.01-.408.488-.668.685-.047.035.086.196.203.176a.91.91 0 00.725-.662zM80.742 78.926a.87.87 0 00.449-.578c.046-.151-.063-.257-.22-.224-.322.07-.393.376-.507.62-.058.123.07.176.278.182zm-1.427.589c.286.347.373.723.789.615a.28.28 0 00.208-.338l-.004-.014c-.17-.508-.569-.128-.993-.263zm-5.522 3.679a.288.288 0 00-.347-.211l-.027.008a.725.725 0 00-.588.67c-.011.122.128.27.258.22a1.676 1.676 0 00.704-.687zm13.21-19.946c.389-.074.751-.106.877-.544a.132.132 0 00-.116-.187c-.414-.027-.59.286-.782.569-.008.013.005.041.021.162zm-6.15 7.781c-.033-.22-.2-.267-.373-.256-.177.012-.338.092-.346.304a.321.321 0 00.362.351c.24-.002.273-.23.356-.398zm-6.87 9.613c-.368-.165-.618-.257-.797.03a.546.546 0 00.085.752c.025-.468.31-.617.712-.782zm.147 3.423c-.388.272-.65.44-.757.763-.006.018.095.107.13.098.353-.089.46-.39.627-.86zm5.728-12.697c-.008-.085-.035-.219-.164-.19-.133.029-.29.091-.302.276a.187.187 0 00.163.207.185.185 0 00.026.002c.182.012.269-.093.277-.295zm8.931-5.818c.011-.11-.024-.178-.125-.192a.357.357 0 00-.404.233c-.05.117.001.23.132.215a.462.462 0 00.397-.256zm-5.664 1.31c.316.068.525.128.622-.152.023-.066-.014-.22-.043-.226-.245-.042-.349.16-.579.379zm4.696-1.802l.048-.027c-.014-.012-.027-.032-.042-.033-.015-.001-.031.016-.047.025zM52.71 139.766c.02.106 0 .265.062.31.73.523 1.004 1.44 1.788 1.952a1.669 1.669 0 01.952 1.768c-.03.139-.043.333.118.412.213.104.21-.126.304-.225.21-.223.479-.132.692-.008a.874.874 0 01.492.791 1.235 1.235 0 001.247 1.401.327.327 0 01.223.211c.125.965.792.531 1.255.452a.54.54 0 01.645.395c.178.652.702 1.061 1.01 1.616a2.158 2.158 0 01.303 1.474c-.061.332.047.5.398.497a1.784 1.784 0 011.463.875A6.956 6.956 0 0065 152.792a8.297 8.297 0 012.109 2.756 4.64 4.64 0 001.816 1.889c.145.077.377.123.382.322.028.968.726 1.736.779 2.7a1.561 1.561 0 01-1.128 1.218c-.19.014-.374.008-.418.208-.102.465-.244.79-.837.594-.163-.054-.177.202-.147.354a5.67 5.67 0 00.44 1.671 3.213 3.213 0 01.298 1.363 9.573 9.573 0 01.066 2.216c-.062.366-.282.575-.56.272a5.869 5.869 0 00-1.967-1.165c-.19-.092-.414-.209-.615-.066-.263.188.094.385.028.586-.518-.21-.73-.718-1.046-1.114a60.813 60.813 0 01-5.262-7.725c-1.002-1.746-1.999-3.488-2.838-5.317-1.043-2.272-1.949-4.599-2.847-6.932a61.388 61.388 0 01-2.583-9.366 9.829 9.829 0 01-.31-1.786c-.004-.159-.087-.389.139-.447.158-.041.25.136.341.258a1.94 1.94 0 01.601 1.406c.446-.908-.145-2.128-.941-2.18-.202-.013-.243-.116-.314-.257a3.731 3.731 0 01-.321-1.256 62.798 62.798 0 01-.55-10.383c.004-.087-.001-.174-.002-.261.326-.194.278-.52.262-.813a32.038 32.038 0 01.326-3.296 2.425 2.425 0 01.693-1.444c.198-.232.287-.368.559.007.283.39.41.542.12 1.073a2.68 2.68 0 00-.204 2.526l.38-1.18a1.46 1.46 0 01.421 1.401 1.917 1.917 0 00.236 1.496 1.39 1.39 0 01.23.8 1.722 1.722 0 00.622 1.372 1.696 1.696 0 01.471 1.413 1.735 1.735 0 00.23 1.187c-.78-.135-1.121-.732-1.476-1.299-.159-.254-.32-.516-.644-.394-.28.106-.308.406-.24.67.03.115.11.331.31.118.348-.373.452-.037.489.21a1.113 1.113 0 00.7.896 2.848 2.848 0 011.038 1.217c.463.829.237 1.744.648 2.524a.466.466 0 01.023.193 5.792 5.792 0 002.133 4.653c.265.267-.157.429.006.639.68.875.612 2.049 1.176 2.97l.071.215.004.68a.533.533 0 00.014.618 1.389 1.389 0 00.24 1.027c.323.469.396.965-.274 1.26a.541.541 0 00-.292.33c-.211.078-.174.409-.438.432-.65-.542-1.396-.97-1.703-1.864-.085-.247-.56-.491-.837-.59a1.713 1.713 0 01-1.074-1.37c-.055-.195-.25-.232-.33-.383a1.632 1.632 0 00-.043-1.14 10.197 10.197 0 01-.615-2.21c-.195-1.017-.837-1.819-1.033-2.802-.024-.118-.128-.266-.28-.194-.151.071-.084.212-.024.333.261.53.387 1.107.66 1.646a18.437 18.437 0 01.761 2.557 2.664 2.664 0 01.266 1.664l-.616-.893c-.323.625-.127.968.431 1.16zm12.995 26.646a1.73 1.73 0 00-.607-1.325.521.521 0 01-.18-.714c.198-.49-.097-.836-.627-1-.094.315.093.483.237.663.11.137.232.275.191.463-.183.844.35 1.308.986 1.913zm-12.856-37.597a4.284 4.284 0 00.363-.752.38.38 0 00-.325-.477c-.266-.026-.188.24-.184.386a1.296 1.296 0 00.146.843zm3.304 7.435c-.011-.171.002-.367-.239-.386-.17-.014-.306.069-.295.258.014.227.117.45.352.475.202.02.165-.203.182-.347zm-3.979 2.112c-.028-.082-.034-.15-.071-.188-.017-.017-.13.017-.138.046a.206.206 0 00.037.166c.017.02.098-.012.172-.024zM142.9 56.854c-.414.572-.93.139-1.36.079-1.193-.167-2.324-.657-3.539-.756-.218-.017-.473-.093-.409-.387.076-.346.315-.064.474-.069a2.993 2.993 0 011.091.155l3.743.978zM54.777 96.487c.384.05.25.278.141.461a2.123 2.123 0 00-.296.913.248.248 0 00-.229.224l-.036.04c-.306.119-.55.135-.333-.297.229-.458.5-.895.753-1.341z" class="cls-3"/><path d="M65.241 167.705a.434.434 0 01.405.455c-.201-.092-.411-.178-.405-.455zm47.126-92.595l-.456.42c-.487.08-.234.49-.33.745l-.276.029c-.132-.122-.201-.048-.252.082l-.184.195c-.26.098-.182.32-.187.512-.09.286-.39.348-.57.536-.331.143-.364.478-.487.756-.267.302-.515.728-.922.145-.113-.297-.241-.307-.384-.019l-.024.037-.222.134a1.253 1.253 0 00-.666.021c-.415.046-.5.33-.506.684-.005.245.072.537-.281.63-.443-.537-.556-.172-.652.24-.156.139-.464.066-.506.364-.107.074-.205.195-.32.215-.274.046-.6.007-.485.446a.68.68 0 00.77.55c.125-.008.243-.095.368-.105a.346.346 0 01.369.298.239.239 0 01-.26.3 3.624 3.624 0 00-1.317.407 2.763 2.763 0 01-1.967-.693c-.157-.318-.338-.286-.467-.06a1.118 1.118 0 01-.978.628 1.16 1.16 0 00-.62.437.91.91 0 01-.836.219c-.215-.015-.647.172-.615-.367.005-.093-.222-.316-.342-.219-.616.496-1.405.07-2.034.418-.381.21-.752.442-1.12.675-.109.068-.181.232-.29.254-1.253.253-2.007 1.368-3.15 1.807-.14.054-.272.202-.395.032-.092-.127.043-.236.124-.335.412-.507.174-.676-.36-.694-.234-.008-.459-.155-.256-.342.348-.324.27-.755.426-1.119.138-.32.121-.756.615-.803.082-.838.814-.84 1.36-1.136.324-.175.434-.666.288-1.215.59.43.857.307.798-.317-.044-.47.269-.434.547-.388.31.051.569.079.642-.319.021-.116.11-.231.211-.218.513.066.724-.444 1.102-.569a10.056 10.056 0 003.216-2.367c.064-.055.145-.131.153-.204.124-1.245 1.308-1.576 2-2.33a7.46 7.46 0 001.408-1.561 1.036 1.036 0 00-.039-1.1c-.099-.153-.395-.283-.064-.51.234-.16.343-.141.485.133.134.258.393.078.579 0 .161-.067.387-.065.415-.338.082-.79.534-1.009 1.165-.577a1.315 1.315 0 001.778-.126c.094-.076.145-.036.22-.003.496.213 1.18-.12 1.53.526a.126.126 0 00.12.01c.736-.688.447.236.658.368.296.186.578.557.973.493a8.064 8.064 0 012.205.323c.334.035.381.356.548.594-.667.287-1.272-.733-1.969.082.684-.126.475.736 1.077.827.162.024-.318.305-.375.55-.178.016-.379.04-.142.261a1.985 1.985 0 00.424.238l-.258.414c-.212.044-.21.21-.21.374l-.422.287a.376.376 0 00-.378.339zm51.013 93.678c0 .217.003.434-.001.652-.003.156-.005.336-.246.252-.405-.142-.418.18-.498.414a10.041 10.041 0 01-1.105 2.505c-1.04 1.503-1.905 3.12-3.052 4.554a5.203 5.203 0 01-2.555 1.6c-.37.127-.581-.082-.535-.414a2.876 2.876 0 011.014-1.984 2.188 2.188 0 00.825-1.81 2.054 2.054 0 011.163-2.102 12.517 12.517 0 003.336-2.648 9.563 9.563 0 00.977-1.582c.115-.189.105-.538.436-.478.381.07.203.416.237.65a2.692 2.692 0 01.004.39zm-74.1-91.671l.306-.523c.206-.091.207-.183 0-.275l-.075-.148c-.165-.266-.334-.26-.505-.005l-.398.359.003-.805c.536-.233.747-.784 1.174-1.273.04.4.035.828.425.791a.71.71 0 00.678-.67c.112-.054.264-.13.134-.257-.141-.136-.193.038-.244.143-.474.064-.842.024-.679-.621a.287.287 0 00-.237-.393c-.25-.033-.367-.15-.27-.388a.433.433 0 01.449-.313.441.441 0 01.445.39c.106.848.115.856.857.44a.613.613 0 01.558-.069c.522.284.915-.04 1.326-.235.992-.472 1.56-1.439 2.396-2.096.204-.16.39-.343.596-.5.266-.204.444-.4.028-.625-.11-.059-.196-.221-.141-.25.713-.362-.064-1.24.637-1.6.195.685.677.627 1.29.473a2.186 2.186 0 011.498-.147c.109.048.287-.004.287.178 0 .15-.146.215-.27.247a1.921 1.921 0 01-.7.127c-.72-.103-.844.155-.938.968-.021.185-.026.358-.168.454a6.799 6.799 0 00-1.109 1.299c-.545.606-1.266 1.017-1.773 1.574a6.84 6.84 0 00-1.489 2.201 1.203 1.203 0 01-1.415.945l-.021-.005a2.206 2.206 0 00.797-1.112c.045-.127.252-.22.073-.379a.473.473 0 00-.413-.12 2.54 2.54 0 00-1.291.665c-.555.462-.717 1.208-1.3 1.624a1.432 1.432 0 01-.286.123.207.207 0 00-.218-.194zm20.623 27.126l-.202.015a.134.134 0 00-.078.066c-.45.446-.594-.24-1.007-.21.378-.406.873-.633.81-1.239-.023-.22.195-.286.366-.124.421.398.546-.012.607-.264a1.422 1.422 0 00-.054-1.078c-.04-.072-.116-.18-.092-.224.51-.912-.131-.895-.884-.885.82-.814.203-1.667.262-2.486.046-.653.431-.84.904-1.159-.023.333-.29.35-.354.537a.766.766 0 000 .69c.152.217.281-.091.439-.094.255-.004.582-.131.744.077.221.285-.179.43-.287.642-.136.268-.471.29-.701.45-.35.244-.355.463.008.689a1.863 1.863 0 00.536.223.646.646 0 01.507.662c.022.37-.18.867.443.973.013.003.036.044.031.051-.365.564.25.92.287 1.385.032.4.114.616.559.58.203-.017.466-.074.536.227.067.286-.217.276-.36.379a1.487 1.487 0 00-.478.524 3.077 3.077 0 00-.55.138c-.151.067-.166.186.026.252l.106.276a1.303 1.303 0 01-.779.113 1.436 1.436 0 00-1.332-.009l-.244-.105c.035-.333.456-.251.555-.516a.47.47 0 00.192-.775c-.235-.28-.37.07-.516.219zm-9.685-40.239c-.377.208-.807.069-1.2.181a1.91 1.91 0 00-.441.1c-.448.267-.868.647-1.41.113a2.07 2.07 0 00.794-1.266 1.077 1.077 0 01.976-.836c.207.27.564-.088.77.185-.005.18.068.276.261.246.2-.005.435.079.518-.211.377-.22.56-.872 1.188-.53.11.311.238.325.384.021.28-.364.603-.563 1.057-.288a.554.554 0 01-.262.498.542.542 0 00-.472.133c-.123.246-.48.067-.596.327-.405.261-.684.79-1.296.62-.458.094-.18.471-.271.707zm5.567 24.949c-.19-.114-.367-.181-.524-.068-.547.397-.822.136-1.213-.314-.428-.493-.091-.856.054-1.194.165-.385 1.232-.612 1.626-.403a1.92 1.92 0 001.197.047c.245-.025.522-.028.524.198.001.309.37.577.093.9a3.148 3.148 0 01-1.757.834zm2.513 11.6c-.012.203.024.368-.032.41-.565.425-.45 1.099-.633 1.66a.46.46 0 01-.345.335 8.936 8.936 0 00-1.481.548.495.495 0 01-.742-.335c-.087-.242.204-.399.494-.446a.66.66 0 00.336-1.081.459.459 0 01-.119-.574c.108-.277.288-.074.47-.034.355.077.553-.161.584-.497.073-.798.686-.316 1.032-.418.363-.106.474.193.436.432zM75.706 91.33c.563-.163 1.34-.105 1.836-.787.118-.162.236-.081.247.157.024.552-.247 1.177.38 1.605.115.08-.1.205-.151.315-.136.294-.54.378-.576.759a.177.177 0 01-.26.116.678.678 0 01-.415-.465c-.172-.72-.97-.98-1.06-1.7zm32.085-23.813c.392.092.587.61 1.074.494.394-.076.917-.008.668-.72-.04-.115.024-.525.41-.347a.493.493 0 01.06.044c.093.416.106.427.387.358a.615.615 0 01.565-.027q-.008.387.378.354c.207.594-.512.794-.563 1.292-.007.064-.35.05-.402-.072-.24-.578-.71-.34-1.111-.355-.205.164-.511-.17-.686.14l-.503.014c-.13-.383-.82-.634-.277-1.175zm-1.7-6.437a8.551 8.551 0 01-1.902 1.025c-.193.07-.31-.117-.382-.277-.51-1.124-.507-1.125.733-1.382a.394.394 0 01.367.07 3.49 3.49 0 001.184.564zm79.11 67.292a2.339 2.339 0 01.537 3.017c-.399-.301-.635-1.556-.537-3.017zM54.243 112.315c-.322-.303-.365-.725-.741-.939-.122-.07-.14-.187-.092-.337a8.3 8.3 0 00.262-.989c.035-.184.052-.366.282-.352.256.015.288.224.289.43q.002 1.094 0 2.187zm78.625-36.841c.167-.241.033-.65.31-.96.14-.157.345-.353.18-.634a.206.206 0 01.078-.28l.003-.002a.182.182 0 01.164.035.328.328 0 01.094.374 17.214 17.214 0 00-.268 2.009c-.013.143.113.304-.14.315-.182.008-.356-.028-.381-.257-.019-.172-.024-.345-.04-.6zm-28.125-7.256l-.054-.303-.001.003a1.366 1.366 0 011.07-.459l.159-.013c.287.755.57.08.854-.002a.337.337 0 01.127.5c-.104.017-.251-.005-.305.055-.491.56-1.096.389-1.693.29zm-5.445-.478c-.367.137-.771.281-1.17.436-.201.078-.416.119-.464-.14-.04-.211-.063-.469.28-.547a6.062 6.062 0 011.98-.022c.165.016.312.076.278.274-.043.242-.212.135-.353.103-.168-.038-.34-.064-.551-.103zm18.917 52.19l.105-.512c.197-.093.199-.187 0-.28-.226-.333-.599-.699.182-.801h.264c.354.2.197.528.204.816-.049.03-.127.054-.139.096-.03.101.049.14.138.153.05.388.112.784-.464.816l-.267.001-.023-.023v-.267zM88.709 70.994a2.038 2.038 0 011.613-.702c-.087 1.15-.505 1.33-1.613.702zm33.15 50.849c.766-.142 1.373.091 2.013-.008.611-.094.188.533.458.896a16.708 16.708 0 01-2.471-.888zM58.191 144.51c.134-.203.25-.175.403-.001a3.56 3.56 0 00.564.523c.185.135.41.243.202.497-.174.214-.511.382-.673.16-.214-.291-.614-.357-.74-.71a.793.793 0 00.244-.469zm38.646-77.582c-.183-.042-.411.084-.475-.148-.058-.208.155-.259.286-.369.385-.324.862-.2 1.29-.3a.325.325 0 01.368.21c.043.184-.12.27-.266.31-.406.11-.817.203-1.203.297zm34.679 54.549c-.388.19.591.56-.05.726-.268.069-.94-.717-.853-.94.061-.155.088-.437.39-.387.422.07.554.211.513.6zm-12.013-22.041c.232.23.073.433-.048.634-.185.305-.374.607-.593.962a1.172 1.172 0 00-.124-.34c-.396-.44-.405-.771.223-.985a1.397 1.397 0 00.355-.274zM107.674 66.66c-.18.002-.373-.059-.512.118l-.147-.014.016-.282.673-.593.324-.004.655.108.002.308c-.281.277-.783-.067-1.01.36zm-5.634.65a.809.809 0 00.186.448c.31.425.21.615-.34.726l-.182-.004-.04-.017c-.026-.168.244-.354-.03-.507-.034-.267-.26-.581.178-.733zm29.778 26.953c-.304-.187-.742-.106-.96-.445-.104-.162-.309-.357-.093-.578.187-.192.377-.05.524.059.307.226.628.464.537.928zm1.726-31.983c-.318.061-.445-.079-.44-.344.002-.13.07-.302.222-.246.267.098.683.128.72.42.031.252-.348.113-.502.17z" class="cls-3"/><path d="M100.067 62.228a.275.275 0 01-.244-.249c.141-.166.34-.414.522-.211.213.24-.132.33-.278.46zm14.539 10.969c-.193.022-.386.124-.578-.002.194-.322.387-.367.578.002zm19.307-17.495c.017-.41.244-.284.482-.209-.098.297-.311.203-.49.202zm-13.002 41.359c-.04.02-.093.068-.14.062-.079-.009-.092-.08-.053-.143a.157.157 0 01.099-.073c.083-.005.1.058.094.154zM95.748 78.9l-.047.13a.638.638 0 01-.142-.072c-.01-.008.026-.102.036-.1a.708.708 0 01.153.042zm36.065 41.557l.16.074-.055.064-.097-.146zm16.642-36.35l.04.148-.153-.028.113-.12zm-1.917 7.027c.017.034.044.065.044.097 0 .016-.05.032-.078.047-.016-.03-.044-.063-.043-.094 0-.017.05-.033.077-.05zm2.105-15.576l-.038-.072.072.038zM92.394 63.82l-.164-.293a.27.27 0 01.298.002.28.28 0 01-.134.29z" class="cls-3"/><path d="M242.876 173.196v-37.024h24.79v6.999h-16.455v7.746h14.639v7h-14.64v15.279zm55.884-14.105a18.267 18.267 0 01-.963 6.064 13.166 13.166 0 01-2.778 4.701 12.479 12.479 0 01-4.354 3.019 14.523 14.523 0 01-5.69 1.069 14.378 14.378 0 01-5.636-1.07 12.474 12.474 0 01-4.354-3.018 13.799 13.799 0 01-2.832-4.701 17.39 17.39 0 01-1.015-6.064 16.791 16.791 0 011.042-6.037 13.701 13.701 0 012.885-4.648 12.961 12.961 0 014.38-2.991 14.093 14.093 0 015.53-1.069 14.245 14.245 0 015.584 1.069 12.698 12.698 0 014.354 2.991 13.605 13.605 0 012.832 4.648 17.2 17.2 0 011.014 6.037zm-8.12 0a10.013 10.013 0 00-1.47-5.796 4.806 4.806 0 00-4.195-2.11 4.871 4.871 0 00-4.22 2.11 9.869 9.869 0 00-1.497 5.796 10.124 10.124 0 001.497 5.85 4.832 4.832 0 004.22 2.164 4.767 4.767 0 004.194-2.164 10.273 10.273 0 001.47-5.85zm31.2-6.944q-1.07-.267-2.512-.562a15.602 15.602 0 00-3.099-.294 14.508 14.508 0 00-1.79.134 10.513 10.513 0 00-1.575.294v21.477h-7.96V146.59a47.967 47.967 0 015.048-1.416 29.087 29.087 0 016.491-.668q.641 0 1.55.08c.605.054 1.21.126 1.817.215q.907.132 1.815.32a8.613 8.613 0 011.55.454zm29.597 20.086a44.181 44.181 0 01-5.236 1.096 42.956 42.956 0 01-6.732.508 15.959 15.959 0 01-5.956-.962 9.033 9.033 0 01-3.767-2.698 10.518 10.518 0 01-1.977-4.14 22.22 22.22 0 01-.588-5.29v-15.653h7.96v14.692a11.383 11.383 0 001.015 5.556q1.016 1.711 3.794 1.71.854 0 1.816-.08.962-.08 1.71-.187v-21.691h7.96zm22.918-13.943q0-3.847-.988-5.45a3.667 3.667 0 00-3.393-1.602q-.748 0-1.548.08-.803.08-1.55.187v21.69h-7.96v-27.14q1.014-.266 2.377-.56 1.361-.293 2.885-.534 1.523-.24 3.125-.374 1.603-.133 3.152-.134a13.257 13.257 0 014.942.775 11.167 11.167 0 013.126 1.843 14.89 14.89 0 018.013-2.618 14.037 14.037 0 015.53.935 8.332 8.332 0 013.445 2.645 10.014 10.014 0 011.764 4.06 26.24 26.24 0 01.48 5.236v15.867h-7.96V158.29q0-3.847-.988-5.45a3.665 3.665 0 00-3.393-1.602 7.164 7.164 0 00-1.79.32 6.948 6.948 0 00-1.896.802 12.2 12.2 0 01.481 2.591q.106 1.361.106 2.911v15.333h-7.96zm38.679 9.189a7.927 7.927 0 003.1-.428 1.65 1.65 0 00.908-1.656 2.03 2.03 0 00-1.176-1.682 22.38 22.38 0 00-3.58-1.63 36.379 36.379 0 01-3.392-1.442 9.96 9.96 0 01-2.592-1.79 7.218 7.218 0 01-1.655-2.484 9.183 9.183 0 01-.588-3.473 7.51 7.51 0 012.938-6.25q2.939-2.297 8.068-2.298a25.918 25.918 0 014.915.455 22.856 22.856 0 013.74.988l-1.39 6.197a29.413 29.413 0 00-3.018-.855 16.454 16.454 0 00-3.66-.374q-3.74 0-3.74 2.083a2.139 2.139 0 00.161.855 1.816 1.816 0 00.641.722 8.96 8.96 0 001.31.751q.827.404 2.11.889a32.527 32.527 0 014.327 1.912 10.345 10.345 0 012.697 2.034 6.298 6.298 0 011.39 2.427 10.758 10.758 0 01.4 3.09 7.124 7.124 0 01-3.125 6.291q-3.126 2.132-8.841 2.133a25.42 25.42 0 01-6.225-.641 25.164 25.164 0 01-3.446-1.07l1.336-6.464a25.997 25.997 0 004.167 1.256 20.299 20.299 0 004.22.454z" class="cls-2"/></svg>