<?xml version="1.0" encoding="UTF-8"?><svg id="layer_2" xmlns="http://www.w3.org/2000/svg" xmlns:xlink="http://www.w3.org/1999/xlink" viewBox="0 0 59.59 53.62"><defs><style>.cls-1{fill:url(#higress-grad);}.cls-2{fill:#0418ff;}.cls-3{fill:#1e8cfe;}.cls-4{fill:url(#higress-grad-2);}</style><linearGradient id="higress-grad" x1=".06" y1="17.82" x2="29.43" y2="17.82" gradientUnits="userSpaceOnUse"><stop offset="0" stop-color="#0418ff"/><stop offset="1" stop-color="#1e8cfe"/></linearGradient><linearGradient id="higress-grad-2" x1="39.29" y1="35.8" x2="9.91" y2="35.8" xlink:href="#higress-grad"/></defs><g id="layer_1-2"><g><path class="cls-1" d="M29.43,35.4c-.79,.17-1.61,.25-2.46,.25h-7.27c-3.68,0-7.15-1.03-10.11-2.81-.53-.32-1.04-.65-1.53-1.01-2.72-2.02-4.91-4.71-6.31-7.83-.25-.57-.47-1.14-.68-1.74C.42,20.3,.06,18.19,.06,16V0H8.12V16c0,.38,.01,.74,.06,1.1,.04,.53,.12,1.03,.25,1.53,.74,3.16,2.78,5.84,5.52,7.41,1.68,.96,3.63,1.52,5.7,1.53h.06c4.75,.03,8.73,3.36,9.73,7.83Z"/><path class="cls-3" d="M8.06,33.66v19.96H0V23.23c.26,.97,.68,2.07,.9,2.5,1.65,3.22,4.14,5.95,7.16,7.94Z"/><path class="cls-4" d="M39.29,37.62v16h-8.06v-16c0-.38-.01-.75-.06-1.11-.04-.51-.13-1.03-.25-1.52-.74-3.17-2.77-5.84-5.51-7.42-1.7-.96-3.64-1.52-5.71-1.53h-.06c-4.74-.03-8.73-3.36-9.73-7.81,.79-.17,1.61-.25,2.46-.25h7.27c3.68,0,7.15,1.03,10.11,2.81,.53,.31,1.04,.65,1.53,1.01,2.72,2.02,4.91,4.7,6.3,7.83,.26,.56,.49,1.14,.68,1.72,.67,1.97,1.03,4.09,1.03,6.27Z"/><path class="cls-2" d="M49.42,7.12c0-1.37,.5-2.55,1.49-3.54,.99-1,2.19-1.49,3.58-1.49s2.62,.5,3.61,1.49c1,.97,1.49,2.17,1.49,3.58s-.5,2.62-1.49,3.61c-.97,1-2.16,1.49-3.58,1.49s-2.62-.5-3.61-1.49c-1-1-1.49-2.21-1.49-3.65Zm9.26,12.68V53.62h-8.34V19.79h8.34Z"/><path class="cls-3" d="M31.23,19.96V0h8.06V30.39c-.26-.97-.68-2.07-.9-2.5-1.65-3.22-4.14-5.95-7.16-7.94Z"/></g></g></svg>