<svg xmlns="http://www.w3.org/2000/svg" role="img" viewBox="-11.90 -10.90 956.80 257.30"><defs><style>.cls-2{fill:#326ce5}.cls-3{fill:#fff}</style></defs><path fill="#27d6f2" d="M785.769 106.5c-.112-25.086 18.708-43.94 43.882-43.975 24.542-.029 43.45 18.84 43.552 43.45a48.059 48.059 0 01-.412 6.442h10.801a49.796 49.796 0 00.338-5.848c-.093-29.927-24.97-54.911-54.566-54.804-29.537.107-54.35 25.043-54.331 54.59a51.33 51.33 0 00.376 6.062h10.76a47.992 47.992 0 01-.4-5.917zM864.2 51.386a4.844 4.844 0 004.46-2.335c3.4-5.804 6.83-11.597 10.06-17.493 1.61-2.943.535-5.443-2.248-7.078a4.702 4.702 0 00-6.878 1.683c-3.541 5.716-6.98 11.515-10.074 17.478a5.147 5.147 0 004.68 7.745zm-73.552-1.956c1.406 2.268 3.96 2.491 6.31 1.519a4.965 4.965 0 003.176-4.84 3.439 3.439 0 00-.136-1.31c-3.697-6.464-7.244-13.031-11.257-19.297-1.464-2.286-4.28-2.413-6.713-.846a4.833 4.833 0 00-1.921 6.552c3.264 6.207 6.844 12.259 10.541 18.223zm-41.583 16.428c6.012 3.62 12.02 7.263 18.222 10.517 2.588 1.353 5.327.385 6.757-2.34 1.275-2.427 1.05-5.136-1.391-6.64-6.095-3.755-12.273-7.418-18.646-10.663-3.157-1.61-6.62.988-6.927 4.982a4.274 4.274 0 001.985 4.144zm140.74 10.929a3.434 3.434 0 001.182-.146 131.394 131.394 0 0019.623-11.495c2.038-1.508 1.965-4.222.394-6.387-1.498-2.087-3.755-3.313-6.114-2.048-6.32 3.371-12.522 6.976-18.636 10.702-2.102 1.284-2.36 3.643-1.615 5.92.783 2.374 2.578 3.449 5.166 3.454zm-60.249-34.652c3.21-.083 5.083-2.01 5.161-5.322.073-3.07.015-6.139.015-9.209.005-3.507.092-7.014-.024-10.521-.098-3.08-1.795-4.957-4.904-5.108-3.283-.16-5.497 1.625-5.614 4.85-.253 6.713-.243 13.45-.038 20.163a4.94 4.94 0 005.404 5.147zm69.944 58.764c-3.401.014-5.795 1.639-5.926 5.112-.131 3.726 2.35 5.497 5.876 5.658 3.065.136 6.144.029 9.214.034 3.07.005 6.144.082 9.208-.02 3.576-.112 5.945-1.843 5.862-5.618-.082-3.57-2.384-5.132-5.818-5.147-6.134-.02-12.273-.044-18.417-.02zm-159.45 10.653c6.728.283 13.47.253 20.197.034a5.042 5.042 0 005.171-5.462c-.068-3.187-2.086-5.079-5.39-5.166-3.22-.088-6.44-.02-9.665-.02v.015c-3.362 0-6.738-.102-10.099.034-3.074.117-5 1.916-5.156 4.927-.166 3.245 1.79 5.502 4.942 5.638z"/><path d="M282.457 111.198q-1.82-2.923-4.29-6.318-2.471-3.394-5.324-6.843-2.854-3.449-5.972-6.613a63.908 63.908 0 00-6.235-5.59v25.364h-13.48V51.314h13.48v22.507q5.198-5.461 10.562-11.423 5.363-5.96 9.906-11.084h15.997q-6.112 7.282-12.298 13.999-6.186 6.72-13.02 13.523a102.671 102.671 0 0113.862 14.221 177.539 177.539 0 0112.84 18.14zm58.8-1.556a71.49 71.49 0 01-8.468 1.772 69.638 69.638 0 01-10.888.821 25.847 25.847 0 01-9.635-1.556 14.62 14.62 0 01-6.092-4.363 17.014 17.014 0 01-3.197-6.697 35.968 35.968 0 01-.95-8.555v-25.32h12.875v23.764q0 6.222 1.641 8.988 1.641 2.765 6.136 2.764 1.381 0 2.938-.13 1.555-.128 2.765-.301V65.745h12.875zm54.353-21.171a28.74 28.74 0 01-1.599 9.852 20.813 20.813 0 01-4.623 7.517 20.313 20.313 0 01-7.431 4.796 27.925 27.925 0 01-10.024 1.685q-2.333 0-4.882-.216-2.55-.217-5.012-.561-2.463-.346-4.71-.822-2.248-.473-3.975-.993V46.216l12.876-2.074v22.64a24.163 24.163 0 014.493-1.469 23.072 23.072 0 015.012-.518 20.51 20.51 0 018.555 1.685 16.764 16.764 0 016.222 4.796 21.548 21.548 0 013.802 7.475 34.089 34.089 0 011.296 9.72zm-13.135-.345q0-12.443-9.16-12.444a15.19 15.19 0 00-3.931.519 11.184 11.184 0 00-3.154 1.297v23.417q.95.174 2.42.302 1.468.13 3.197.13 5.27 0 7.95-3.63 2.677-3.628 2.678-9.591zm20.911.691a27.776 27.776 0 011.858-10.585 22.685 22.685 0 014.882-7.562 20.314 20.314 0 016.956-4.58 21.792 21.792 0 018.08-1.554q9.677 0 15.294 5.919 5.617 5.92 5.618 17.412 0 1.123-.087 2.463t-.173 2.376h-29.207a8.553 8.553 0 003.716 6.308q3.282 2.332 8.814 2.333a37.249 37.249 0 006.956-.648 26.178 26.178 0 005.573-1.599l1.729 10.456a17.802 17.802 0 01-2.766 1.037 36.35 36.35 0 01-3.845.908q-2.118.388-4.536.647a45.396 45.396 0 01-4.84.26 28.656 28.656 0 01-10.671-1.815 20.781 20.781 0 01-7.518-4.968 19.713 19.713 0 01-4.407-7.475 29.603 29.603 0 01-1.426-9.333zm30.244-4.926a13.361 13.361 0 00-.562-3.196 8.009 8.009 0 00-1.468-2.766 7.849 7.849 0 00-2.506-1.987 8.167 8.167 0 00-3.76-.778 8.638 8.638 0 00-3.715.735 7.676 7.676 0 00-2.592 1.943 8.704 8.704 0 00-1.599 2.809 18.414 18.414 0 00-.821 3.24zm49.773-6.739q-1.729-.432-4.061-.907a25.13 25.13 0 00-5.012-.476 23.33 23.33 0 00-2.895.216 17.07 17.07 0 00-2.549.476v34.737h-12.875V68.165a77.786 77.786 0 018.166-2.29 47.068 47.068 0 0110.499-1.08q1.037 0 2.506.13 1.468.128 2.938.345 1.468.217 2.938.519a13.872 13.872 0 012.505.734zm9.073-9.852a72.241 72.241 0 018.468-1.771 69.646 69.646 0 0110.889-.82 26.556 26.556 0 019.635 1.511 14.491 14.491 0 016.091 4.278 16.69 16.69 0 013.198 6.567 34.943 34.943 0 01.95 8.469v25.664h-12.875v-24.11q0-6.22-1.642-8.813-1.642-2.593-6.135-2.593-1.383 0-2.938.13-1.556.13-2.766.303v35.083h-12.875zm48.736 21.517a27.787 27.787 0 011.857-10.585 22.688 22.688 0 014.883-7.561 20.307 20.307 0 016.956-4.58 21.791 21.791 0 018.08-1.555q9.676 0 15.294 5.919 5.616 5.92 5.617 17.412 0 1.123-.087 2.463-.086 1.34-.172 2.376h-29.207a8.556 8.556 0 003.715 6.308q3.283 2.332 8.815 2.333a37.254 37.254 0 006.956-.648 26.19 26.19 0 005.573-1.599l1.729 10.456a17.785 17.785 0 01-2.766 1.037 36.427 36.427 0 01-3.845.908q-2.12.388-4.537.647a45.395 45.395 0 01-4.839.26 28.658 28.658 0 01-10.672-1.815 20.776 20.776 0 01-7.517-4.968 19.702 19.702 0 01-4.407-7.475 29.617 29.617 0 01-1.426-9.333zm30.244-4.926a13.41 13.41 0 00-.562-3.196 8.01 8.01 0 00-1.47-2.766 7.832 7.832 0 00-2.505-1.987 8.16 8.16 0 00-3.759-.778 8.642 8.642 0 00-3.716.735 7.689 7.689 0 00-2.592 1.943 8.704 8.704 0 00-1.598 2.809 18.373 18.373 0 00-.821 3.24zm21.949-29.466l12.875-2.074v13.394h15.468V76.46H606.28v15.986a12.717 12.717 0 001.426 6.48q1.425 2.42 5.746 2.42a24.547 24.547 0 004.277-.39 21.919 21.919 0 004.019-1.08l1.814 10.025a36.498 36.498 0 01-5.184 1.642 30.262 30.262 0 01-7 .691 23.04 23.04 0 01-8.727-1.426 13.686 13.686 0 01-5.531-3.975 14.794 14.794 0 01-2.895-6.178 36.444 36.444 0 01-.82-8.036zm34.91 34.392a27.785 27.785 0 011.858-10.585 22.688 22.688 0 014.883-7.562 20.307 20.307 0 016.956-4.58 21.791 21.791 0 018.079-1.554q9.676 0 15.295 5.919 5.616 5.92 5.617 17.412 0 1.123-.087 2.463t-.173 2.376h-29.207a8.556 8.556 0 003.716 6.308q3.283 2.332 8.814 2.333a37.254 37.254 0 006.956-.648 26.19 26.19 0 005.574-1.599l1.728 10.456a17.784 17.784 0 01-2.766 1.037 36.424 36.424 0 01-3.844.908q-2.12.388-4.537.647a45.396 45.396 0 01-4.84.26 28.658 28.658 0 01-10.671-1.815 20.775 20.775 0 01-7.518-4.968 19.702 19.702 0 01-4.407-7.475 29.616 29.616 0 01-1.426-9.333zm30.244-4.926a13.41 13.41 0 00-.561-3.196 8.01 8.01 0 00-1.47-2.766 7.833 7.833 0 00-2.506-1.987 8.16 8.16 0 00-3.758-.778 8.642 8.642 0 00-3.716.735 7.69 7.69 0 00-2.592 1.943 8.704 8.704 0 00-1.599 2.809 18.374 18.374 0 00-.821 3.24zm35.428 18.061a12.84 12.84 0 005.013-.692 2.67 2.67 0 001.469-2.678 3.282 3.282 0 00-1.902-2.722 36.194 36.194 0 00-5.789-2.636 58.625 58.625 0 01-5.487-2.333 16.116 16.116 0 01-4.192-2.894 11.7 11.7 0 01-2.678-4.019 14.854 14.854 0 01-.95-5.617 12.147 12.147 0 014.752-10.11q4.752-3.714 13.048-3.715a41.894 41.894 0 017.95.734 37.189 37.189 0 016.05 1.599l-2.248 10.023a47.636 47.636 0 00-4.883-1.383 26.596 26.596 0 00-5.918-.604q-6.05 0-6.05 3.37a3.478 3.478 0 00.26 1.383 2.95 2.95 0 001.037 1.166 14.558 14.558 0 002.117 1.216q1.339.653 3.414 1.436a52.826 52.826 0 016.999 3.093 16.73 16.73 0 014.363 3.292 10.175 10.175 0 012.247 3.924 17.42 17.42 0 01.649 4.999q0 6.726-5.056 10.176-5.055 3.446-14.3 3.448a41.095 41.095 0 01-10.068-1.037 40.668 40.668 0 01-5.573-1.729l2.16-10.456a42.15 42.15 0 006.74 2.031 32.733 32.733 0 006.826.735zM274.462 193.1q-14.605 0-22.251-8.124-7.648-8.12-7.648-23.072a35.477 35.477 0 012.333-13.264 28.56 28.56 0 016.395-9.85 26.715 26.715 0 019.678-6.093 34.897 34.897 0 0112.184-2.073 39.093 39.093 0 016.913.561 45.162 45.162 0 015.444 1.296 26.917 26.917 0 013.888 1.513q1.556.776 2.247 1.209l-3.888 10.888a32.653 32.653 0 00-6.438-2.506 30.758 30.758 0 00-8.339-1.037 18.441 18.441 0 00-6.092 1.037 13.785 13.785 0 00-5.27 3.327 16.555 16.555 0 00-3.673 5.919 24.825 24.825 0 00-1.383 8.814 31.443 31.443 0 00.907 7.734 16.398 16.398 0 002.938 6.178 14.076 14.076 0 005.315 4.105 18.9 18.9 0 007.95 1.512 36.235 36.235 0 005.27-.345 38.755 38.755 0 004.148-.822 21.493 21.493 0 003.197-1.08q1.382-.603 2.506-1.123l3.716 10.802a31.539 31.539 0 01-8.036 3.11 46.88 46.88 0 01-12.011 1.383zm69.302-24.023a29.562 29.562 0 01-1.555 9.807 21.313 21.313 0 01-4.494 7.605 20.212 20.212 0 01-7.042 4.882 23.52 23.52 0 01-9.203 1.728 23.28 23.28 0 01-9.117-1.728 20.185 20.185 0 01-7.042-4.882 22.32 22.32 0 01-4.58-7.605 28.135 28.135 0 01-1.642-9.807 27.139 27.139 0 011.685-9.765 22.129 22.129 0 014.666-7.518 20.965 20.965 0 017.086-4.84 22.82 22.82 0 018.944-1.727 23.057 23.057 0 019.03 1.728 20.53 20.53 0 017.042 4.84 21.97 21.97 0 014.58 7.517 27.812 27.812 0 011.642 9.765zm-13.135 0q0-5.964-2.376-9.376a7.773 7.773 0 00-6.783-3.413 7.878 7.878 0 00-6.827 3.413q-2.42 3.414-2.42 9.376t2.42 9.462a7.818 7.818 0 006.827 3.5 7.715 7.715 0 006.783-3.5q2.376-3.5 2.376-9.462zm48.045-1.297q0-6.221-1.598-8.814-1.6-2.592-5.488-2.592-1.21 0-2.506.13-1.296.13-2.505.302v35.083H353.7v-43.897q1.64-.43 3.845-.907 2.204-.474 4.667-.865 2.462-.388 5.055-.604 2.592-.216 5.098-.216a21.439 21.439 0 017.993 1.253 18.1 18.1 0 015.055 2.98 24.075 24.075 0 0112.962-4.233 22.727 22.727 0 018.944 1.512 13.492 13.492 0 015.573 4.277 16.202 16.202 0 012.852 6.567 42.426 42.426 0 01.777 8.47v25.663h-12.875v-24.11q0-6.22-1.598-8.813-1.6-2.592-5.488-2.592a11.595 11.595 0 00-2.895.518 11.275 11.275 0 00-3.067 1.297 19.742 19.742 0 01.778 4.19q.172 2.204.173 4.71v24.8h-12.876zm74.487 0q0-6.221-1.599-8.814-1.6-2.592-5.487-2.592-1.21 0-2.506.13-1.296.13-2.506.302v35.083h-12.875v-43.897q1.64-.43 3.845-.907 2.204-.474 4.667-.865 2.462-.388 5.055-.604 2.592-.216 5.098-.216a21.439 21.439 0 017.993 1.253 18.1 18.1 0 015.055 2.98 24.075 24.075 0 0112.962-4.233 22.727 22.727 0 018.944 1.512 13.492 13.492 0 015.573 4.277 16.203 16.203 0 012.852 6.567 42.46 42.46 0 01.778 8.47v25.663h-12.876v-24.11q0-6.22-1.598-8.813-1.6-2.592-5.488-2.592a11.595 11.595 0 00-2.895.518 11.275 11.275 0 00-3.067 1.297 19.742 19.742 0 01.778 4.19q.172 2.204.173 4.71v24.8H453.16zm88.313 22.554a71.487 71.487 0 01-8.467 1.771 69.644 69.644 0 01-10.889.821 25.842 25.842 0 01-9.635-1.555 14.623 14.623 0 01-6.092-4.364 17.007 17.007 0 01-3.197-6.697 35.967 35.967 0 01-.951-8.555v-25.319h12.876V170.2q0 6.221 1.642 8.987 1.64 2.766 6.135 2.765 1.382 0 2.938-.13 1.556-.129 2.766-.302v-35.084h12.875zm12.097-42.342a72.218 72.218 0 018.469-1.772 69.628 69.628 0 0110.888-.82 26.556 26.556 0 019.634 1.512 14.49 14.49 0 016.092 4.277 16.69 16.69 0 013.197 6.567 34.942 34.942 0 01.952 8.47v25.663h-12.876v-24.11q0-6.22-1.642-8.813-1.642-2.592-6.136-2.592-1.383 0-2.937.13-1.556.13-2.766.302v35.083h-12.875zm64.981-14.69a7.065 7.065 0 01-2.29 5.574 8.197 8.197 0 01-10.801 0 7.928 7.928 0 010-11.148 8.197 8.197 0 0110.8 0 7.07 7.07 0 012.29 5.574zm-1.21 58.587h-12.875v-45.453h12.875zm11.665-56.772l12.875-2.074v13.393h15.467v10.716h-15.467v15.986a12.716 12.716 0 001.426 6.48q1.425 2.42 5.746 2.42a24.546 24.546 0 004.277-.389 21.92 21.92 0 004.018-1.08l1.815 10.024a36.498 36.498 0 01-5.185 1.642 30.262 30.262 0 01-6.999.691 23.04 23.04 0 01-8.727-1.425 13.686 13.686 0 01-5.531-3.976 14.794 14.794 0 01-2.895-6.178 36.444 36.444 0 01-.82-8.036zm80.101 11.319q-3.898 13.137-8.142 24.628-4.246 11.493-9.27 22.294a50.539 50.539 0 01-3.636 6.61 20.373 20.373 0 01-3.981 4.494 14.052 14.052 0 01-4.889 2.592 22.145 22.145 0 01-6.36.822 26.011 26.011 0 01-5.582-.562 25.032 25.032 0 01-4.197-1.253l2.247-10.283a22.115 22.115 0 003.544.95 19.995 19.995 0 003.287.26 7.196 7.196 0 005.315-1.859 14.948 14.948 0 003.156-5.141q-4.41-8.64-8.819-19.4a241.142 241.142 0 01-8.298-24.152h13.654q.865 3.37 2.04 7.303 1.17 3.933 2.473 7.95 1.3 4.017 2.646 7.82 1.346 3.804 2.561 6.912 1.127-3.11 2.343-6.913 1.216-3.8 2.386-7.82 1.17-4.018 2.256-7.95 1.084-3.93 1.953-7.302zm80.882 15.468a35.02 35.02 0 01-2.42 13.567 25.129 25.129 0 01-6.87 9.592 29.302 29.302 0 01-10.845 5.703 50.317 50.317 0 01-14.344 1.9q-3.63 0-8.47-.301a69.376 69.376 0 01-9.504-1.253v-58.328a79.872 79.872 0 019.722-1.167q5.053-.302 8.683-.303a52.487 52.487 0 0113.956 1.729 28.582 28.582 0 0110.758 5.444 24.213 24.213 0 016.913 9.505 36.028 36.028 0 012.42 13.912zm-38.973 19.01q.95.089 2.204.13 1.25.045 2.981.044 10.11 0 14.992-5.098 4.881-5.098 4.883-14.086 0-9.418-4.667-14.258-4.666-4.838-14.776-4.839-1.383 0-2.852.043a27.303 27.303 0 00-2.765.217zm65.673-35.687a29.815 29.815 0 019.505 1.296 14.771 14.771 0 016.092 3.716 13.676 13.676 0 013.241 5.876 29.029 29.029 0 01.95 7.69v26.788q-2.767.605-7.69 1.426a73.961 73.961 0 01-11.925.82 37.79 37.79 0 01-7.993-.777 17.35 17.35 0 01-6.179-2.549 11.658 11.658 0 01-3.974-4.623 15.944 15.944 0 01-1.383-7 13.265 13.265 0 011.599-6.74 12.302 12.302 0 014.277-4.406 19.347 19.347 0 016.136-2.377 34.494 34.494 0 017.171-.735 41.094 41.094 0 014.45.216 19.889 19.889 0 013.155.563v-1.21a7.128 7.128 0 00-1.988-5.272q-1.988-1.986-6.912-1.987a44.066 44.066 0 00-6.482.476 27.9 27.9 0 00-5.53 1.338l-1.642-10.369q1.122-.344 2.809-.734 1.684-.39 3.672-.691 1.987-.302 4.191-.52 2.203-.214 4.45-.215zm1.037 37.675q1.9 0 3.63-.086a25.058 25.058 0 002.765-.259v-9.764q-.778-.173-2.334-.346a25.962 25.962 0 00-2.852-.173 25.597 25.597 0 00-3.413.216 8.951 8.951 0 00-2.808.821 4.809 4.809 0 00-1.9 1.642 4.567 4.567 0 00-.692 2.591q0 3.027 2.03 4.192a11.225 11.225 0 005.574 1.166zm69.735-36.466q-3.898 13.137-8.143 24.628-4.245 11.493-9.27 22.294a50.54 50.54 0 01-3.635 6.61 20.373 20.373 0 01-3.981 4.494 14.052 14.052 0 01-4.89 2.592 22.145 22.145 0 01-6.359.822 26.012 26.012 0 01-5.583-.562 25.035 25.035 0 01-4.197-1.253l2.247-10.283a22.115 22.115 0 003.544.95 19.995 19.995 0 003.287.26 7.196 7.196 0 005.316-1.859 14.948 14.948 0 003.156-5.141q-4.41-8.64-8.82-19.4a241.143 241.143 0 01-8.297-24.152h13.653q.866 3.37 2.04 7.303 1.17 3.933 2.474 7.949 1.3 4.018 2.645 7.82 1.346 3.805 2.562 6.913 1.126-3.11 2.343-6.913 1.215-3.8 2.385-7.82 1.17-4.018 2.256-7.95 1.084-3.93 1.953-7.302zm19.875 36.207a12.84 12.84 0 005.012-.691 2.67 2.67 0 001.47-2.679 3.282 3.282 0 00-1.902-2.722 36.193 36.193 0 00-5.79-2.635 58.621 58.621 0 01-5.486-2.333 16.115 16.115 0 01-4.192-2.895 11.7 11.7 0 01-2.679-4.019 14.854 14.854 0 01-.95-5.617 12.147 12.147 0 014.752-10.11q4.752-3.714 13.049-3.715a41.894 41.894 0 017.95.734 37.188 37.188 0 016.049 1.6l-2.247 10.023a47.634 47.634 0 00-4.883-1.383 26.596 26.596 0 00-5.919-.605q-6.05 0-6.049 3.37a3.478 3.478 0 00.26 1.383 2.95 2.95 0 001.036 1.166 14.56 14.56 0 002.118 1.216q1.338.653 3.414 1.437a52.826 52.826 0 016.999 3.092 16.73 16.73 0 014.363 3.292 10.175 10.175 0 012.247 3.924 17.42 17.42 0 01.648 5q0 6.726-5.055 10.175-5.055 3.447-14.301 3.448a41.095 41.095 0 01-10.067-1.037 40.673 40.673 0 01-5.574-1.728l2.16-10.456a42.15 42.15 0 006.74 2.03 32.733 32.733 0 006.827.735zm-767.36-49.58a3.68 3.68 0 00-.876-.067 3.777 3.777 0 00-1.461.38 3.818 3.818 0 00-1.848 4.945l-.027.038 8.742 21.119a44.62 44.62 0 0018.035-22.655l-22.526-3.807zm-35.05 2.993a3.813 3.813 0 00-3.657-2.966 3.748 3.748 0 00-.751.066l-.038-.046-22.33 3.79a44.789 44.789 0 0017.978 22.496l8.654-20.91-.068-.082a3.775 3.775 0 00.212-2.348zm18.702 8.2a3.811 3.811 0 00-6.721.008h-.019l-10.98 19.857a44.73 44.73 0 0024.41 1.256q2.252-.513 4.4-1.23l-11.007-19.892zm34.763-46.126l-16.896 15.122.01.048a3.818 3.818 0 001.496 6.555l.02.092 21.885 6.304a45.386 45.386 0 00-6.515-28.119zm-31.39 1.694a3.818 3.818 0 006.061 2.911l.067.03 18.487-13.11a44.947 44.947 0 00-25.92-12.495l1.285 22.658zm-19.578 2.995a3.813 3.813 0 006.052-2.92l.094-.046 1.285-22.693a45.795 45.795 0 00-4.614.794A44.555 44.555 0 0088.78 89.65l18.608 13.191zm-9.92 17.147a3.813 3.813 0 001.498-6.556l.019-.09-16.989-15.195a44.541 44.541 0 00-6.322 28.2l21.776-6.284zm16.5 6.675l6.268 3.014 6.248-3.007 1.552-6.746-4.324-5.408h-6.96l-4.337 5.4z" class="cls-2"/><path d="M223.875 139.932l-17.858-77.57a13.943 13.943 0 00-7.475-9.3L126.256 18.55a13.93 13.93 0 00-11.998 0L41.986 53.081a13.938 13.938 0 00-7.477 9.3l-17.83 77.566a13.648 13.648 0 00-.004 5.955 13.844 13.844 0 00.504 1.761 13.427 13.427 0 001.376 2.795c.245.374.504.738.784 1.09l50.026 62.197c.218.27.46.517.698.769A13.759 13.759 0 0072.7 216.7a14.272 14.272 0 003.954 1.719 13.63 13.63 0 003.516.485h.778l79.443-.019a13.323 13.323 0 001.446-.085 13.808 13.808 0 002.038-.387 14.215 14.215 0 001.416-.453 14.19 14.19 0 001.071-.444 14.29 14.29 0 001.516-.843 13.636 13.636 0 003.318-2.936l1.525-1.897 48.483-60.312a13.515 13.515 0 002.16-3.88 14.014 14.014 0 00.513-1.767 13.615 13.615 0 00-.004-5.955zM148.898 170.1a14.882 14.882 0 00.72 1.746 3.397 3.397 0 00-.335 2.552 40.357 40.357 0 003.836 6.868 35.934 35.934 0 012.32 3.448c.174.323.401.823.566 1.164a4.346 4.346 0 11-7.82 3.698c-.166-.338-.395-.79-.536-1.11a36.16 36.16 0 01-1.255-3.964 40.288 40.288 0 00-2.969-7.275 3.418 3.418 0 00-2.208-1.34c-.138-.238-.65-1.177-.925-1.663a55.984 55.984 0 01-39.923-.103l-.98 1.775a3.515 3.515 0 00-1.864.908 30.256 30.256 0 00-3.35 7.772 35.772 35.772 0 01-1.248 3.964c-.138.318-.37.763-.535 1.1v.01l-.007.008a4.344 4.344 0 11-7.81-3.707c.163-.343.381-.84.554-1.163a36.056 36.056 0 012.318-3.458 42.26 42.26 0 003.916-7.037 4.293 4.293 0 00-.385-2.447l.787-1.886a56.296 56.296 0 01-24.947-31.148l-1.885.321a4.797 4.797 0 00-2.49-.876 40.513 40.513 0 00-7.54 2.219 36.48 36.48 0 01-3.881 1.486c-.313.086-.764.172-1.12.25-.03.01-.054.023-.082.03a.622.622 0 01-.067.006 4.342 4.342 0 11-1.92-8.43l.062-.015.038-.01c.361-.085.825-.205 1.155-.269a36.15 36.15 0 014.151-.334 40.374 40.374 0 007.753-1.273 5.981 5.981 0 001.86-1.876l1.811-.529a55.98 55.98 0 018.829-39.026l-1.387-1.236a4.805 4.805 0 00-.87-2.497 40.35 40.35 0 00-6.434-4.52 36.132 36.132 0 01-3.586-2.097c-.263-.196-.611-.49-.896-.722l-.065-.045a4.585 4.585 0 01-1.064-6.378 4.168 4.168 0 013.448-1.525 5.156 5.156 0 013.015 1.138c.294.23.697.539.959.763a36.137 36.137 0 012.85 3.024 40.37 40.37 0 005.832 5.27 3.416 3.416 0 002.57.25q.772.564 1.56 1.11a55.648 55.648 0 0128.267-16.15 56.431 56.431 0 017.82-1.202l.103-1.828a4.715 4.715 0 001.404-2.239 40.463 40.463 0 00-.481-7.845 36.356 36.356 0 01-.59-4.115c-.012-.315.005-.75.01-1.108 0-.04-.01-.08-.01-.12a4.348 4.348 0 118.651-.005c0 .38.023.883.01 1.23a35.987 35.987 0 01-.594 4.113 40.524 40.524 0 00-.49 7.848 3.428 3.428 0 001.414 2.163c.015.312.066 1.356.104 1.931a56.693 56.693 0 0135.909 17.35l1.646-1.175a4.808 4.808 0 002.624-.285 40.522 40.522 0 005.833-5.277 35.88 35.88 0 012.856-3.024c.266-.227.667-.533.96-.764a4.348 4.348 0 115.39 6.763c-.29.235-.674.561-.953.769a35.974 35.974 0 01-3.595 2.097 40.483 40.483 0 00-6.434 4.52 3.42 3.42 0 00-.812 2.45c-.24.221-1.086.97-1.534 1.377a56.21 56.21 0 019.012 38.933l1.747.509a4.864 4.864 0 001.865 1.876 40.454 40.454 0 007.758 1.277 36.532 36.532 0 014.147.332c.364.066.89.212 1.26.297a4.342 4.342 0 11-1.924 8.429l-.063-.008c-.029-.008-.055-.023-.085-.03-.357-.078-.805-.156-1.117-.238a36.02 36.02 0 01-3.88-1.499 40.465 40.465 0 00-7.547-2.219 3.42 3.42 0 00-2.421.9q-.923-.176-1.85-.325a56.294 56.294 0 01-24.936 31.371z" class="cls-2"/><path d="M233.305 141.921l-19.483-84.627a15.21 15.21 0 00-8.157-10.148l-78.86-37.65a15.196 15.196 0 00-13.091 0L34.86 47.17a15.21 15.21 0 00-8.16 10.14L7.251 141.943a15.035 15.035 0 002.045 11.465c.268.41.552.807.86 1.19l54.578 67.863a15.355 15.355 0 0011.787 5.624l87.524-.02a15.361 15.361 0 0011.787-5.618l54.56-67.868a15.088 15.088 0 002.913-12.656zm-9.428 3.963a14.018 14.018 0 01-.51 1.766 13.514 13.514 0 01-2.163 3.88l-48.483 60.31-1.523 1.899a13.638 13.638 0 01-3.32 2.936 14.293 14.293 0 01-1.512.843q-.526.243-1.07.442a14.22 14.22 0 01-1.419.455 13.811 13.811 0 01-2.038.388 13.315 13.315 0 01-1.446.084l-79.443.019h-.78a13.63 13.63 0 01-3.514-.484 14.274 14.274 0 01-3.952-1.72 13.76 13.76 0 01-2.64-2.185c-.239-.252-.48-.5-.697-.77L19.34 151.55q-.418-.527-.784-1.092a13.43 13.43 0 01-1.376-2.795 13.843 13.843 0 01-.504-1.762 13.649 13.649 0 01.005-5.954L34.51 62.378a13.938 13.938 0 017.477-9.297l72.273-34.529a13.93 13.93 0 0111.998 0l72.284 34.513a13.942 13.942 0 017.475 9.3l17.858 77.569a13.614 13.614 0 01.002 5.952z" class="cls-3"/><path d="M192.72 133.719c-.368-.085-.895-.23-1.257-.297a36.536 36.536 0 00-4.147-.334 40.452 40.452 0 01-7.76-1.274 4.864 4.864 0 01-1.865-1.877l-1.747-.509a56.21 56.21 0 00-9.01-38.933c.447-.406 1.294-1.156 1.532-1.376a3.422 3.422 0 01.812-2.45 40.484 40.484 0 016.434-4.52 35.978 35.978 0 003.595-2.097c.279-.207.66-.535.952-.77a4.348 4.348 0 10-5.387-6.764c-.295.232-.697.538-.96.765a35.882 35.882 0 00-2.858 3.024 40.523 40.523 0 01-5.833 5.277 4.807 4.807 0 01-2.624.285l-1.646 1.176a56.693 56.693 0 00-35.909-17.35c-.04-.576-.089-1.617-.104-1.932a3.428 3.428 0 01-1.412-2.163 40.524 40.524 0 01.49-7.847 35.99 35.99 0 00.59-4.113c.013-.348-.008-.855-.008-1.231a4.348 4.348 0 10-8.652.004c0 .041.01.08.01.121-.004.359-.021.794-.01 1.107a36.365 36.365 0 00.59 4.116 40.464 40.464 0 01.482 7.845 4.716 4.716 0 01-1.404 2.237l-.102 1.83a56.43 56.43 0 00-7.821 1.203A55.647 55.647 0 0079.427 83.02q-.79-.544-1.565-1.109a3.416 3.416 0 01-2.568-.25 40.368 40.368 0 01-5.833-5.269 36.136 36.136 0 00-2.846-3.024c-.264-.225-.667-.533-.962-.767a5.156 5.156 0 00-3.015-1.138 4.168 4.168 0 00-3.448 1.526 4.585 4.585 0 001.064 6.378l.067.047c.283.232.631.528.894.72a36.139 36.139 0 003.586 2.099 40.352 40.352 0 016.433 4.522 4.807 4.807 0 01.87 2.495l1.385 1.238a55.98 55.98 0 00-8.826 39.026l-1.811.527a5.98 5.98 0 01-1.86 1.873 40.375 40.375 0 01-7.754 1.278 36.147 36.147 0 00-4.15.334c-.332.062-.794.179-1.155.269l-.038.008-.062.018a4.342 4.342 0 101.922 8.43l.065-.01c.028-.006.053-.02.082-.026.356-.08.805-.167 1.119-.252a36.484 36.484 0 003.88-1.487 40.516 40.516 0 017.543-2.22 4.797 4.797 0 012.487.88l1.886-.324a56.297 56.297 0 0024.949 31.148l-.789 1.886a4.293 4.293 0 01.387 2.447 42.26 42.26 0 01-3.916 7.035 36.063 36.063 0 00-2.32 3.457c-.172.326-.39.825-.555 1.166a4.344 4.344 0 107.812 3.707l.007-.008v-.01c.164-.339.397-.783.535-1.1a35.776 35.776 0 001.249-3.964 30.256 30.256 0 013.35-7.772 3.516 3.516 0 011.864-.91l.98-1.774a55.984 55.984 0 0039.922.102c.274.49.787 1.427.922 1.663a3.418 3.418 0 012.209 1.343 40.29 40.29 0 012.97 7.274 36.16 36.16 0 001.256 3.965c.14.32.37.77.535 1.109a4.346 4.346 0 107.821-3.698c-.165-.34-.392-.84-.564-1.164a35.94 35.94 0 00-2.32-3.448 40.357 40.357 0 01-3.835-6.868 3.397 3.397 0 01.332-2.552 14.88 14.88 0 01-.72-1.746 56.295 56.295 0 0024.937-31.37c.56.088 1.534.259 1.85.323a3.42 3.42 0 012.42-.899 40.465 40.465 0 017.544 2.22 36.016 36.016 0 003.883 1.498c.312.082.758.16 1.117.239.03.008.056.021.085.029l.062.009a4.342 4.342 0 101.925-8.43zm-41.103-44.063l-18.488 13.107-.065-.03a3.816 3.816 0 01-6.06-2.91l-.021-.009-1.285-22.657a44.947 44.947 0 0125.918 12.5zM116.79 114.49h6.958l4.325 5.408-1.55 6.746-6.25 3.007-6.266-3.014-1.554-6.748zm-6.546-36.54a45.791 45.791 0 014.616-.793l-1.287 22.69-.094.046a3.813 3.813 0 01-6.052 2.923l-.036.02-18.608-13.193a44.555 44.555 0 0121.46-11.693zm-28.21 20.174l16.989 15.194-.018.093a3.813 3.813 0 01-1.5 6.554l-.016.074-21.777 6.284a44.542 44.542 0 016.322-28.198zm22.747 40.365l-8.653 20.907a44.79 44.79 0 01-17.975-22.497l22.329-3.792.038.05a3.747 3.747 0 01.748-.067 3.813 3.813 0 013.448 5.314zm25.54 26.887a44.73 44.73 0 01-24.412-1.255l10.981-19.857h.019a3.818 3.818 0 016.72-.006h.083l11.009 19.89q-2.144.715-4.4 1.229zm14.187-5.896l-8.742-21.12.027-.039a3.818 3.818 0 011.848-4.943 3.778 3.778 0 011.46-.38 3.68 3.68 0 01.877.065l.038-.047 22.527 3.807a44.62 44.62 0 01-18.036 22.658zm20.4-33.23l-21.886-6.304-.02-.093a3.818 3.818 0 01-1.497-6.556l-.008-.044 16.895-15.12a45.387 45.387 0 016.516 28.117z" class="cls-3"/></svg>