<svg id="Layer_1" data-name="Layer 1" xmlns="http://www.w3.org/2000/svg" viewBox="0 0 205 85"><path d="M101.988,75.31154c-2.21525-1.76755-2.4231-2.92379-.68637-5.34955.55418-.774.42033-1.12338-.16543-1.6823a73.32611,73.32611,0,0,0-8.59035-6.5601c-3.5497-2.50668-3.61363-2.76483-1.49318-6.5616,1.8598-3.33006,4.22914-6.32,6.34791-9.47719a5.48254,5.48254,0,0,0,1.0791-2.49733c-.71386,0-1.37675.00583-2.03951-.001-3.19219-.03284-6.382-.01547-9.5762-.15607-7.70438-.33914-11.64111-4.2367-11.92027-12.0149-.02111-.58823-.00276-1.17787-.00276-1.98577a37.83,37.83,0,0,0-4.59255,3.5861A72.45972,72.45972,0,0,1,48.93322,45.71848a33.315,33.315,0,0,1-22.29429.87,13.25224,13.25224,0,0,1-4.82064-2.81,4.46027,4.46027,0,0,1-1.22105-4.82643c.62588-1.7367,2.02456-2.2913,3.69846-2.38845,2.6802-.15555,5.20856.67158,7.77206,1.25233,1.57716.3573,3.141.77279,4.71422,1.148a10.8185,10.8185,0,0,0,6.15842-.152c9.67142-3.34421,18.16819-8.50419,24.66525-16.51724A44.78146,44.78146,0,0,1,76.52838,13.643c9.12443-6.41776,19.1741-9.68006,30.42042-8.59,5.62491.54519,10.86813,2.55388,16.11579,4.4837,7.20048,2.648,14.09832,6.04643,21.3238,8.6347a45.90821,45.90821,0,0,0,6.66,1.90016,21.25147,21.25147,0,0,0,8.80423-.04859A86.8977,86.8977,0,0,0,174.33627,15.51a3.12545,3.12545,0,0,0,1.79367-1.76275c1.726-3.89332,2.9568-4.18152,6.037-1.28468a2.98718,2.98718,0,0,0,3.01432.82426A17.30886,17.30886,0,0,0,190.061,11.5797c1.42771-.73905,1.7571-.43281,1.4615,1.11408a2.81124,2.81124,0,0,0,.82871,2.92811,18.7585,18.7585,0,0,1,2.95669,4.00246,8.9498,8.9498,0,0,1,1.46023,6.72633,1.48187,1.48187,0,0,0,.4696,1.59108c2.27626,2.08953,3.4404,4.883,4.61291,7.64945a1.589,1.589,0,0,1-.64916,2.06657,5.713,5.713,0,0,0-1.8226,1.999,2.57716,2.57716,0,0,1-1.878,1.28489,6.19376,6.19376,0,0,0-2.18861,1.14726c-2.40582,1.40889-4.77345,1.69782-7.08621-.18a5.26942,5.26942,0,0,0-3.0714-1.09956,36.93976,36.93976,0,0,1-4.00586-.37771c-6.20939-1.13251-11.07863,1.77049-15.57854,5.35661a166.163,166.163,0,0,1-13.69525,10.378,36.31866,36.31866,0,0,1-18.18052,5.67962c-2.49328.12285-4.98164.36766-7.46788.60276a4.81437,4.81437,0,0,0-3.63692,4.05719,2.5625,2.5625,0,0,0,.45247.988,9.4364,9.4364,0,0,1,1.04258,5.89287c-.27552,2.05959-1.52328,2.8474-3.32252,3.14647a4.98967,4.98967,0,0,1-3.234-.31271c-.57227-.31453-.65754.12872-.81153.38981-1.183,2.0057-3.09791,2.57756-5.23649,3.10442a39.68532,39.68532,0,0,1-6.86,1.41556c-1.43822.09422-2.92974.08207-3.84525-1.3444C99.68788,78.09213,99.99863,77.016,101.988,75.31154ZM65.37869,27.14908C64.1028,28.21031,62.858,29.312,61.54225,30.32137c-1.31121,1.00584-2.8075,1.82008-2.2774,3.91786a1.04775,1.04775,0,0,1-.83609,1.13845.78417.78417,0,0,1-1.03744-.45112c-.55842-1.38309-1.303-.81761-2.10427-.28047a10.04189,10.04189,0,0,1-1.6832.96133c-.97365.40687-1.39481.933-1.03712,2.06593a1.76672,1.76672,0,0,1-.99038,2.43044,1.92224,1.92224,0,0,1-2.45363-1.24186c-.15928-.36554-.27121-.71549-.77643-.51127-1.411.57034-2.8209,1.14316-4.36849,1.77064.67355.39594,1.53.01019,1.65516.86756.09836.674-.4013,1.0551-.83414,1.49214A5.85452,5.85452,0,0,1,41.751,44.0044c-.61846.13747-1.0996.1177-1.37271-.53485-.28312-.67646-.41421-1.29756.29933-1.84972.3294-.2549.9068-.26076.9839-.86537a2.98624,2.98624,0,0,0-.84436.01311c-.5996.19085-1.60546-.42623-1.76243.51935a1.4851,1.4851,0,0,1-1.43022,1.19679c-.58449.11246-1.02919-.588-1.20488-1.2425a2.36429,2.36429,0,0,0-.17025-.52544,1.7373,1.7373,0,0,0-1.82449-.6984c-.75106.049-.19359.73629-.21794,1.11753A8.43442,8.43442,0,0,1,33.1811,45.099c-.20425.33987-1.09077.91863-.16332,1.29548.6315.25658,1.52319.59353,2.06678-.39624,1.35451-2.46634,2.70733-2.52406,4.3135-.20979.52122.751,2.01858.8778,2.42963.108.72273-1.35356,1.60264-1.51652,2.9511-.89584a2.05345,2.05345,0,0,0,3.08281-1.84212c.05754-1.06349.5-1.84657,1.63555-1.83925a18.37654,18.37654,0,0,1,3.94017.34222,2.89585,2.89585,0,0,0,2.28319-.68581c.65794-.38.05533-.90032-.00646-1.35342-.13146-.96394.84356-2.83666,1.66725-2.95455a1.83489,1.83489,0,0,1,2.24783,1.357c.262.87912.74146.267,1.01735.07731,1.7384-1.19515,3.45046-2.42893,5.15664-3.66995.27919-.20307.58729-.38541.6235-.843.14141-1.78733.25727-1.87793,2.01446-1.72584.82649.07154,1.22334-.55614,1.71363-1.00905.55066-.50866-.10919-.802-.2927-1.15806a3.25244,3.25244,0,0,1-.42863-2.38778c.13275-.50231.33278-1.01373.87271-1.17044.61236-.17772.90507.33765,1.20339.74012.30211.4076.58376.83267.8436,1.26839.19731.33087.4199.50575.76913.238.7618-.584,1.863-.9061,1.30059-2.33383a2.10649,2.10649,0,0,1,.443-2.45427A2.46439,2.46439,0,0,1,77.49631,23.58a10.49928,10.49928,0,0,1,1.12032.54983c.60432.33374.72388.57455.15322,1.22542-.912,1.04017-2.32413,1.84261-2.37961,3.4245a15.58377,15.58377,0,0,0,1.55663,8.3135c.37575.68213.65183.95779,1.469.4542,1.37408-.8468,2.18842-.54382,2.91431.88828a15.73089,15.73089,0,0,1,.7537,1.78483,1.77832,1.77832,0,0,0,1.98877,1.348c1.71221-.17508,3.50557.48766,5.14572-.50344a.7586.7586,0,0,1,.66919.00311c1.397.94034,2.95768.43457,4.44593.53795a1.25554,1.25554,0,0,0,1.11364-.39456,1.74093,1.74093,0,0,1,2.8239-.03106,2.927,2.927,0,0,0,1.49542.85992c2.0639.553,2.57555,1.8707,1.78962,3.88986-.55376,1.42267-1.65441,2.7815-.83216,4.53.20019.4257-.10413,1.28977-.81151,1.06551-.84616-.26827-.9543.25818-1.19987.71694a5.09507,5.09507,0,0,0-.70828,2.489c.00316.83324-.03977,1.99089-1.16633,2.03006-.73.02539-.71684.40194-.84612.76992A5.52961,5.52961,0,0,0,98.438,61.85558c.51082.3636.76549.12417,1.13266-.282a1.54082,1.54082,0,0,1,2.66671.45866,1.82521,1.82521,0,0,0,1.56422,1.29095,28.20941,28.20941,0,0,1,4.62658,1.38593,3.43616,3.43616,0,0,0,2.4411.04291c.76051-.23792,1.93042-.26454,1.97712.63631.09006,1.73731,1.469,2.14049,2.469,2.29841,1.6342.25809,1.8469,1.94794,3.11519,2.42937a.38479.38479,0,0,1,.08976.35873c-.69267,1.157.14129,2.35155-.09157,3.52342-.05045.25385-.17825.734.26418.81272.46294.08242.5709-.37265.71534-.70222.19847-.45287-.015-1.28474.856-1.13743.93935.15888.42235.94214.49541,1.46712.0182.13076.01857.264.0484.724.57164-1.17309-.00288-2.73291,1.74084-2.6616.04821.002.1426-.22644.15392-.35292.25594-2.85811-1.839-6.64149-4.68082-6.43154-.45182.03339-1.12814.16474-1.2998-.47188-.45091-1.67236-1.97634-2.0582-3.20539-2.80867-.50808-.31023-.87667-.47894-1.36965.18377-.532.71516-1.4676.37168-1.36453-.34956.24256-1.6973-1.00492-2.06342-1.9587-2.76964-2.13938-1.58411-2.28818-2.29324-1.25769-4.86876.607-1.517,1.53954-2.9048,1.552-4.66478a2.17131,2.17131,0,0,1,1.54522-1.9249c1.72469-.5,2.4946-1.94251,3.51646-3.147a2.16694,2.16694,0,0,0,.52991-2.13754,2.45026,2.45026,0,0,1,2.30452-3.06087,2.12886,2.12886,0,0,0,1.87805-1.184c.73737-1.47676,1.50372-2.93965,2.21065-4.43072a1.72163,1.72163,0,0,0-.18919-1.93,2.45349,2.45349,0,0,1,.06986-3.30038.94134.94134,0,0,0,.16082-1.13047,2.697,2.697,0,0,0-3.77249-1.61484,9.59227,9.59227,0,0,1-1.44819.45527,1.62,1.62,0,0,1-1.96189-2.28019,1.37627,1.37627,0,0,0-.37739-1.68576c-1.82342-.6764-3.50288-2.13756-5.68535-1.30235a1.3853,1.3853,0,0,1-1.44237-.22161.609.609,0,0,1-.08839-.875,1.223,1.223,0,0,1,1.38007-.3728,3.48979,3.48979,0,0,0,2.7863-.40656,1.84219,1.84219,0,0,1,2.9178.7976c.15247.33739.18971.68534.603.84807a25.29893,25.29893,0,0,1,6.78957,3.91448c.47556-.87182.35563-2.21407,1.65631-2.02358.89661.13131,1.27071,1.00888,1.21019,1.923-.06319.9542-.68889,1.22435-1.5517,1.12848-.09456-.11634-.2017-.20955-.31407-.03588-.01669.02578.09521.13455.14762.20492a8.19516,8.19516,0,0,1,1.20416,5.30091,18.67935,18.67935,0,0,1-2.70512,7.20929c-.31564.53908-.81118,1.00739-.78716,1.76592a7.60088,7.60088,0,0,1,3.4598.91248,1.47218,1.47218,0,0,0,1.72922-.06189c2.29809-1.67329,4.5681-3.38528,6.8772-5.04309.59934-.43029.94889-1.58294,1.81556-1.14247.39665.20159.36786,1.27421.49622,1.9585.23448,1.25-.72338,2.169-1.73506,1.49912-1.37958-.91351-2.00819.005-2.74641.74151-.41984.41886-.93081.76134-1.29057,1.18352-.81811.96005-2.16133,1.45385-2.39527,2.9846a1.71038,1.71038,0,0,1-1.86756,1.49163,6.74412,6.74412,0,0,0-5.899,3.95983c-.12022.29734-.38549.65007-.082.88887.69679.54835.68549,1.33264.872,2.0748.25009.99541-.19552,1.76532-1.21154,1.79331-.32729.009-.55026-.01435-.596.33132-.22313,1.68481-1.3941,3.25252-.49492,5.08737.34657.70718.22483,1.5748-.84639,1.54477-.46085-.0129-.65031.03044-.82188.41323-.22633.50493.17052.67262.46683.84889.75309.448,1.5414.83715,2.29324,1.28713,1.41919.84936,1.44057.84867,1.923-.81417-.66351.381-1.29255.5803-1.74916-.27646a1.77051,1.77051,0,0,1,.27751-2.18066c.63819-.62242,1.17081.26024,1.40407.583.49907.69058.73806.24788,1.036-.04773,1.08507-1.07658.55985-2.3596.24614-3.48653a2.5476,2.5476,0,0,1,1.59762-3.14086c.26757-.063.57256-.14051.79455.06834.25715.24192.04469.52167-.05565.756-.33149.77438-.69135,1.53663-1.09687,2.42779a29.53038,29.53038,0,0,0,6.75184-.251c.84911-.143.771-.64581.51406-1.20631-.23714-.51733-.526-1.00633.04869-1.487a1.53731,1.53731,0,0,1,1.81851-.086c.60795.3193,1.14366.77364,1.7212,1.15342.67331.44276,3.98475-.31148,4.32611-.99661.06963-.13979-.01811-.35223-.01321-.53064a2.65744,2.65744,0,0,1,2.11872-2.539c1.00482-.22206,1.86946-.18626,1.67306,1.298,1.00539-.42482,1.95217-.763,2.83412-1.2248a1.372,1.372,0,0,0,.79487-1.1823c.04478-1.41117.79847-2.021,2.23339-1.76681a1.76968,1.76968,0,0,0,1.57365-.2619c.68274-.60541,1.51533-.98242,2.18869-1.63113.56063-.54012,1.09722-1.32609,2.15393-1.41233a9.67785,9.67785,0,0,1-1.66556,2.51337,23.55363,23.55363,0,0,1-5.7347,4.28594c-1.41618.852-2.76234,1.61628-2.9625,3.47306a.95189.95189,0,0,1-.8053.85824c-.51709.06926-.78143-.30025-.88547-.70968-.17453-.68674-.50072-.74919-1.10306-.481-.80823.35985-1.65122.56964-1.494,1.79084a1.19839,1.19839,0,0,1-.97567,1.20463.82021.82021,0,0,1-1.12065-.53874c-.21185-1.00828-.77316-.66754-1.33706-.47247a38.052,38.052,0,0,1-6.3324,1.45666,46.03371,46.03371,0,0,1-5.50186.34815c.84053.84429.933,1.82857.1387,2.09441-1.702.56965-1.69769,2.259-2.54654,3.36977-.1733.2268-.39518.57419.06921.80272.23441.11535.4066.44737.72079.28385a1.60238,1.60238,0,0,0,.612-.89814c.66224-1.4984,1.3211-2.99185,3.25241-3.22085a.55367.55367,0,0,0,.507-.55854c.12223-1.26189,1.114-1.38639,2.08155-1.62035,1.07094-.25894,1.33242.58895,1.7928,1.17.24339.30719.355.98622.799.779.83576-.3902,1.93786-.17559,2.42426-1.46578a1.77771,1.77771,0,0,1,3.26248-.08169.97074.97074,0,0,0,1.06522.6242,30.46913,30.46913,0,0,0,5.30658-.93508,1.02637,1.02637,0,0,0,.91686-1.16057,2.69778,2.69778,0,0,1,2.03573-2.93822c.8684-.20383,1.67158-.06959,1.68908,1.01922.02121,1.31922.65889.90206,1.29411.54956a75.26214,75.26214,0,0,0,7.3545-4.69674,1.2492,1.2492,0,0,0,.64362-1.441,2.71124,2.71124,0,0,1,3.86787-2.86257c.70038.31912,1.01373-.00626,1.44825-.339,1.9642-1.50393,3.58968-3.41577,5.71232-4.72832l-.02162.02024a29.90645,29.90645,0,0,0,4.34921-2.11706,2.80788,2.80788,0,0,1-1.8956-.89135c4.55241-.99663,9.02677-.612,13.57607-.3788a1.443,1.443,0,0,0-1.06833-.77348c-.45019-.09184-.62358-.34523-.626-.84707a17.128,17.128,0,0,1,6.953,3.01464c2.29726,1.8482,4.91049,1.65356,7.04842-.63464-.64749-.15682-1.26524-.27881-1.86566-.45846a3.74579,3.74579,0,0,1-2.12353-1.47077c-.17624-.26319-.61543-.61867-.18911-.94191a.89157.89157,0,0,1,1.25762-.06762,5.68528,5.68528,0,0,0,1.067.86793,2.197,2.197,0,0,0,2.5728.00493c.92949-.63262.39567-1.28808.28555-1.94067-.2545-1.50857.2751-2.1026,1.77534-1.90149.26171.03509.55514.279.76787.00949.24349-.30847-.00814-.62483-.1599-.89048a30.37065,30.37065,0,0,0-1.77733-2.96685c-1.20628-1.64243-1.58443-1.69973-3.54236-1.10467-.39955.12143-.77391.51322-1.3592.21066a4.48181,4.48181,0,0,1,1.94659-1.73694c.31652-.1465.81536-.14961.82477-.62157.04024-2.01675.97327-4.23458-1.25564-5.76735-.37628-.25876-.38025-.68335-.42555-1.1131a3.84946,3.84946,0,0,0-2.6256-2.9175c-.68557-.23243-1.56576-.49558-1.33757-1.58357.123-.58655-.332-.66765-.71018-.82895a5.32021,5.32021,0,0,0-3.11686.08644c-.48352.08011-1.0108-.04706-.60432.73519.25158.48421-.15722.83254-.45168,1.04315-.4007.28658-.65427-.17522-.89684-.42252-.968-.98693-1.91891-1.99052-2.87685-2.9873-.9515-.99008-1.48976-.86841-1.94745.39167a21.73665,21.73665,0,0,0-.72861,3.8828c-.715-.14905-.73824-.88532-1.22867-1.14426a1.256,1.256,0,0,0-.52531.92872c-.26488,1.01755-.73494.98856-1.215.2146-.3259-.52543-.62485-.38137-1.02869-.21784-.94275.38177-1.89217.74722-2.84194,1.11141-.30109.11546-.69331.17543-.66834.58509.05732.9405-.70559,1.37445-1.19917,1.93672-.8137.92695-1.5484.78111-2.05849-.356-.162-.36123-.2553-.77456-.7273-.61711-1.51755.50624-3.46759.25238-3.92415,2.57053a2.16127,2.16127,0,0,1-2.13171,1.46564,1.797,1.797,0,0,1-1.7925-.8041,2.87682,2.87682,0,0,0-4.54692-.09777,1.80938,1.80938,0,0,1-1.76394.86142,1.36709,1.36709,0,0,1-1.32137-1.34751,1.11852,1.11852,0,0,0-.9154-1.06678,54.51068,54.51068,0,0,1-11.70848-3.89335,5.28954,5.28954,0,0,0-4.13687-.01445,5.54039,5.54039,0,0,1-4.31447-.25963,1.79016,1.79016,0,0,1-1.14675-2.11267c.22849-1.07139-.34411-1.64762-1.23174-2.18458-2.062-1.24734-4.20022-.69326-6.32613-.42681-1.103.13825-2.37138-.41368-2.4416-1.52962-.08819-1.40131-.91543-1.71776-1.96437-2.01869-.9312-.26717-1.85288-.57014-2.77-.883a2.30279,2.30279,0,0,0-2.83532.47645c-1.18207,1.2335-2.59123.71726-2.9131-.91827a1.18357,1.18357,0,0,0-1.20609-1.05761,49.69659,49.69659,0,0,0-7.89806-.15394c-1.40305.03244-2.35831.4151-2.34188,2.06671a1.53055,1.53055,0,0,1-1.48988,1.54509,2.00077,2.00077,0,0,1-2.265-.933c-.87264-1.51917-1.603-1.6801-3.02589-.57068-.846.6596-1.38688,2.10212-2.8329.88587-.11266-.09476-.51585.121-.76717.23083-.88924.38866-1.7506.85082-2.6608,1.17937-1.28385.46342-1.69992,1.11793-1.06185,2.4719.57914,1.22891.02617,1.94279-1.33417,1.98662a3.54987,3.54987,0,0,1-2.82313-.81293c-.4444-.44877-.72128-.17709-1.06047.073a51.22093,51.22093,0,0,0-5.63844,4.70181c-.5867.5788-1.2031,1.08971-.47741,2.07771a2.40138,2.40138,0,0,1,.03534,2.02416c-.17585.60744-.18018,1.38907-.947,1.56066-.65273.14606-1.09675-.33329-1.44673-.84908-.26795-.3949-.57119-.63761-.98514-.16716-.77209.87746-1.54017,1.75845-2.41368,2.75652,1.42331.32674,2.05087,1.01088,1.76929,2.31862-.15437.717-.58833,1.08825-1.27731.91529-.63868-.16033-1.40132-.34983-1.05788-1.36645a6.72089,6.72089,0,0,0,.18349-1.22021c.11441-.07139.22186-.14924.05843-.27034C65.537,26.98779,65.43766,27.09564,65.37869,27.14908Zm57.34973,15.73921a5.95549,5.95549,0,0,0-2.48435-.884,2.56561,2.56561,0,0,0-2.93528,1.1705c-.97244,1.44483-2.15847,2.74526-3.23573,4.121a38.32383,38.32383,0,0,0-5.4024,8.28942,1.71121,1.71121,0,0,0,.63669,2.47769c1.13609.70312,2.25226,1.4397,3.35811,2.18966.59485.40341.93009.38473,1.20042-.37684a34.363,34.363,0,0,0,2.14977-8.26614,9.07013,9.07013,0,0,1,2.66064-5.886C119.84472,44.57667,121.34947,43.95658,122.72842,42.88829Zm-6.00868,27.56849a3.418,3.418,0,0,0-1.35148,1.0847c-2.091,3.29547-5.50183,3.80987-8.92593,3.886-2.43081.05405-3.79619.6738-4.47146,2.88839a.72561.72561,0,0,0,.19146.86595c.27723.23138.5792.14074.91095.06.38257-.09312,1.29085-1.98675,1.15284.26951a3.9176,3.9176,0,0,0,.90311.0893,34.08435,34.08435,0,0,0,4.87933-.919c.687-.14953,1.23988-.32224,1.40248-1.21452a2.01865,2.01865,0,0,1,1.72009-1.42024c.90068-.21714.80614.71318,1.14715,1.251.56908-.831,1.76343-1.30127,1.15017-2.34966a2.91816,2.91816,0,0,1-.2987-1.68137c-.00134-.49189-.01229-1.17584.56027-1.25953.54471-.07962.45568.68944.745,1.01307.04323.04835.15524.03539.28474.06025Zm-13.702,1.51459c-.31042.44556-.97991-.4198-1.15512.195-.17629.61862.56338.41754.83955.65123a1.26638,1.26638,0,0,1,.45805.65633c.09273.57582.47019.58288.90383.60174a19.47626,19.47626,0,0,0,7.35866-1.02277c.61992-.21692,1.00587-.45368.97378-1.25242-.07865-1.957-.028-1.96768,1.99273-1.75649a.5536.5536,0,0,0,.59182-.21549.366.366,0,0,0-.14865-.57533c-.5939-.35395-1.37885-1.11516-1.76256-.9519-.988.4204-2.2408.06475-2.81938.39089a8.935,8.935,0,0,1-6.209,1.23689,1.459,1.459,0,0,0-1.49109.81144C102.12934,71.3738,103.2083,71.30565,103.01777,71.97137ZM94.99393,61.34992c-.196-1.69148.6861-3.36828-.31567-5.00739a1.08512,1.08512,0,0,1,.86707-1.67143c1.24149-.033,1.64027-.79739,2.07544-1.67509.67591-1.36328,1.38112-2.71227,2.04108-4.08309.16487-.34244.65095-.81621.27176-1.08125a3.01,3.01,0,0,0-1.76852-.5217c-.46915.02583-.536.68043-.51972,1.14557a5.2366,5.2366,0,0,1-.54326,2.80267c-.19029.34321-.34443.73949-.89625.64847-1.30889-.2159-2.11794.37518-1.99534,1.61954a2.43956,2.43956,0,0,1-1.33939,2.47529,3.65409,3.65409,0,0,0-1.56363,1.989c-.144.45436-.11.85655.58484.66693.79144-.216,1.45367.01263,1.56626.87273C93.58342,60.4837,94.34007,60.82474,94.99393,61.34992ZM30.70517,39.904c-.00191-.74354-.10493-.8827-.79967-1.06235-.43933-.1136-.88165-.21633-1.3244-.31607-1.60673-.362-1.58074-.36221-1.48895,1.21663a12.59873,12.59873,0,0,1-.18525,4.3888c-.23914.79943.06247,1.13255.74435,1.28846.62478.14285,1.29137.60146,1.75459-.3667A20.76619,20.76619,0,0,0,30.70517,39.904ZM98.96435,63.5531c.5027.80368.43333,2.34714,1.90618,1.07488.343-.29627.95571.091,1.32349.49749.29174.3224.63182.732.3205,1.09149-1.12726,1.30145.3267,1.95234.85368,2.088a6.21547,6.21547,0,0,0,3.65727.24069c.353-.12363.95778-.129.65373-.75118-.22067-.45154-.56583-.91153-1.17023-.36005a1.27442,1.27442,0,0,1-1.76305.05585,1.4595,1.4595,0,0,1-.65431-1.689c.28108-.76127-.04409-.95761-.701-1.11035C101.96379,64.3592,100.5514,63.96538,98.96435,63.5531ZM23.81244,40.17448l-.0733-.00986a3.88016,3.88016,0,0,0-.00715-.68647c-.07711-.42249.06023-1.0271-.5219-1.13313-.57842-.10536-.907.37334-1.13383.83667a2.811,2.811,0,0,0,.30216,2.98933c.17714.25962.32511.66641.66759.63116.46782-.04815.40086-.53909.46886-.87512C23.63233,41.34655,23.71511,40.75905,23.81244,40.17448Zm75.58261,5.206c.48125-.27213.73874-.53675,1.15083-.50593.30585.02287.76028.69805.90971-.11841.10018-.54746-.20226-.903-.72926-1.14884-.65178-.30406-.80934.1558-.98876.55358A9.18525,9.18525,0,0,0,99.39505,45.38052Z"/><path d="M40.96389,59.67633q-18.05016-.00149-36.10031-.01139c-.5166-.00058-1.283.33287-1.27025-.73161.0073-.60946.1061-.99948.82855-.9111a5.75059,5.75059,0,0,0,.69371.00434q36.03089-.00078,72.06178.012c.45493.00028,1.14381-.32715,1.33.33279.1782.63168.30435,1.35005-.8886,1.32255-3.14538-.07253-6.29366-.01741-9.44079-.017Q54.57093,59.67865,40.96389,59.67633Z"/><path d="M29.01666,29.25623q-9.64229,0-19.28456-.00863c-.569-.00121-1.32493.31-1.316-.83016.009-1.15217.78666-.80771,1.34123-.80825q19.42327-.019,38.84658-.009c.60424-.0001,1.21249-.148,1.20338.83228-.00917.9853-.64707.81554-1.22867.8157q-9.781.00268-19.562.00114Z"/><path d="M50.42775,67.86733q-8.95266,0-17.90532.00461c-.67465.0009-1.32448.09561-1.22456-.94721.05148-.5373.22924-.75772.75515-.7067.13763.01335.27741.00579.41621.00579q17.836.00029,35.67193.02057c.41.00087,1.09371-.39029,1.23455.432.13552.79116.01107,1.23756-1.04288,1.22707-5.96786-.05939-11.93662-.02873-17.90508-.02873Z"/><path d="M44.55683,13.96018q-6.93313,0-13.86625-.0026c-.61094-.00063-1.32082.22377-1.28-.878.03744-1.01056.67808-.779,1.24683-.779q13.86626-.00068,27.73247.01467c.514.001,1.25774-.34542,1.34784.677.074.8398-.29445.98581-1.0374.98159C53.986,13.947,49.27135,13.96019,44.55683,13.96018Z"/><path d="M121.99353,26.17434c-.05241-.07037-.16431-.17914-.14762-.20492.11237-.17367.21951-.08046.31441.03552Q122.07779,26.08978,121.99353,26.17434Z"/><path d="M65.37869,27.14908c.059-.05344.15836-.16129.17079-.15209.16343.1211.056.19895-.05809.27073C65.45367,27.2288,65.416,27.18912,65.37869,27.14908Z"/><path d="M184.24148,25.40436c1.11085-1.01691,1.88555-1.884,3.3079-1.89583,2.67164-.02231,4.33074,2.28373,3.11645,4.6944a39.34661,39.34661,0,0,0-2.611,6.41678,6.33954,6.33954,0,0,1,.20356-4.86049,2.05343,2.05343,0,0,0-.02423-2.03885c-.40987-.813-.43474-1.96222-1.04117-2.49527C186.53827,24.6496,185.48086,25.50367,184.24148,25.40436Z"/><path d="M87.80371,16.16108A2.123,2.123,0,0,1,85.52316,14.277c-.17758-1.02117.52147-1.57,1.45659-1.85575a6.23313,6.23313,0,0,1,2.7274-.13546,1.25557,1.25557,0,0,1,.92,2.12283C89.87073,15.35015,88.5994,15.58717,87.80371,16.16108Z"/><path d="M107.66031,33.31838a2.81146,2.81146,0,0,1,2.39086-2.4819,1.28593,1.28593,0,0,1,.64462.19937c.94447.61729.87243,4.31058-.08626,4.87039a1.045,1.045,0,0,1-.92932.05022A4.08722,4.08722,0,0,1,107.66031,33.31838Z"/><path d="M103.16842,8.6241c.63543.07584,1.54678.051,1.68351,1.16211a2.97616,2.97616,0,0,1-1.71551,2.40655c-.04413.00943-.0922-.00092-.13727.00577-1.53122.22717-3.40347-.78764-3.41961-1.85438C99.56648,9.48089,101.29631,8.60649,103.16842,8.6241Z"/><path d="M99.31155,25.2548c.1603-.93775-.02538-2.1284,1.10762-2.35283,1.16986-.23174,1.6242.86161,2.00484,1.74908a2.4788,2.4788,0,0,1-.88928,3.38072c-.9585.51635-1.62544.22576-1.9115-.78037A15.36876,15.36876,0,0,1,99.31155,25.2548Z"/><path d="M136.73839,43.6187c-.019-1.62627.95628-2.24088,2.54221-1.66086a6.64048,6.64048,0,0,1,1.08928.59272c.49568.297,1.2991.35866,1.34147,1.0447.04945.801-.74506,1.10491-1.32031,1.44607a2.77326,2.77326,0,0,1-2.7226.49565C136.81941,45.13592,136.80866,44.30987,136.73839,43.6187Z"/><path d="M110.68461,26.03858c-.07336.84918-.262,1.6632-1.06773,1.98456-.83146.33163-1.32293-.38968-1.83582-.897a1.59908,1.59908,0,0,1-.33118-.43614c-.37979-.80935-1.09612-1.66872-.33613-2.52064a1.95792,1.95792,0,0,1,2.30429-.30566A2.055,2.055,0,0,1,110.68461,26.03858Z"/><path d="M96.28759,28.15588a9.15264,9.15264,0,0,1-.16722,1.36042c-.18133.66889-.56855,1.50039-1.23563,1.42481a1.77935,1.77935,0,0,1-1.5543-1.67954,6.87244,6.87244,0,0,1,.3911-2.70861c.182-.50432.39488-1.06912,1.12086-1.02537a1.36029,1.36029,0,0,1,1.18541,1.00081A4.15666,4.15666,0,0,1,96.28759,28.15588Z"/><path d="M91.52088,21.8435c-.04779.93462-1.20527,2.32654-1.90632,2.29245-.81913-.03984-2.44869-1.82709-2.48326-2.72355-.02487-.64489,1.26883-1.48752,2.21734-1.44423C90.53941,20.02254,91.56857,20.911,91.52088,21.8435Z"/><path d="M97.38319,37.29294a2.68145,2.68145,0,0,1-2.88259,2.67893c-.82014.00694-1.16068-.42506-1.14352-1.19582a3.39638,3.39638,0,0,1,2.92634-2.99465C97.3695,35.77891,97.38656,36.52132,97.38319,37.29294Z"/><path d="M98.29233,15.49534c.52111.20073,1.618-.48553,1.59.91749a2.80966,2.80966,0,0,1-2.27826,2.7162,1.84008,1.84008,0,0,1-1.91823-1.89484C95.65385,15.95039,96.23578,15.54732,98.29233,15.49534Z"/><path d="M84.05776,29.144c0-.45452-.0204-.68642.00364-.91362.09078-.8581.27493-1.78056,1.32593-1.78811a1.916,1.916,0,0,1,1.93459,1.8083c.15822.96258-1.15443,2.72087-2.11844,2.71409C83.7718,30.95458,84.14243,29.76979,84.05776,29.144Z"/><path d="M64.326,32.92949a4.39119,4.39119,0,0,1-.7812,2.34721,1.45126,1.45126,0,0,1-2.075.44734,1.34355,1.34355,0,0,1-.45487-2.02926,7.09179,7.09179,0,0,1,1.26292-1.79951c.43221-.397.87894-.74455,1.47512-.51368C64.41119,31.6365,64.28424,32.2734,64.326,32.92949Z"/><path d="M79.43034,29.91978c1.18133.004,2.382.92811,2.38416,1.835a2.14856,2.14856,0,0,1-2.05065,1.83841c-.95687-.07772-2.54538-1.60437-2.35734-2.38777C77.64712,30.203,78.47894,29.9173,79.43034,29.91978Z"/><path d="M104.29725,37.79623a2.71323,2.71323,0,0,1-.338,1.45235c-.4291.82869-.99661.92045-1.59887.20918a6.31222,6.31222,0,0,1-1.35276-2.96483c-.218-1.17064.51606-1.72316,1.65045-1.31291A2.71643,2.71643,0,0,1,104.29725,37.79623Z"/><path d="M119.29778,33.44814c.0275.74964-.18393,1.11157-.88911.78855a7.12233,7.12233,0,0,1-3.28463-3.20175.75861.75861,0,0,1,.229-1.09034,1.3852,1.3852,0,0,1,1.55712-.07677A5.47686,5.47686,0,0,1,119.29778,33.44814Z"/><path d="M135.63758,26.52124c-.01668-.6333.02425-1.25667.75564-1.46147a1.24735,1.24735,0,0,1,1.4074.65738,6.96755,6.96755,0,0,1,1.23045,3.33536c.05884.96164-.52094,1.22628-1.20833.7914A4.17462,4.17462,0,0,1,135.63758,26.52124Z"/><path d="M149.02065,35.55729c-.03279.2515.20221.86516-.33561,1.16058-.51876.28493-.94421-.2352-1.40194-.40005a2.06007,2.06007,0,0,1-.71517-.63719c-.51275-.58525-1.2818-1.22776-.94653-2.00962.3436-.80127,1.41269-.93717,2.16383-1.35293.39977-.22126.63379.208.77692.57375A6.21586,6.21586,0,0,1,149.02065,35.55729Z"/><path d="M87.44732,38.60354c-1.01034.01361-1.87658-.19869-1.92-1.43568a2.4806,2.4806,0,0,1,2.31419-2.1348c1.11518-.00056,1.49666.69944,1.47391,1.72714A1.64087,1.64087,0,0,1,87.44732,38.60354Z"/><path d="M169.60133,33.17656a6.45431,6.45431,0,0,1-2.35948,3.60881,1.10422,1.10422,0,0,1-1.46344-1.13745,3.83071,3.83071,0,0,1,3.04326-3.16311C169.29983,32.479,169.65364,32.59405,169.60133,33.17656Z"/><path d="M137.64352,34.735c.00456-.79616-.00283-1.74987.96793-1.86513.87306-.10365,1.28.74973,1.59315,1.47741a1.47762,1.47762,0,0,1,.15833.79442c-.20425,1.054-.146,2.31582-1.39853,2.77194C138.36739,38.131,137.6245,36.32214,137.64352,34.735Z"/><path d="M133.26546,20.21848a2.26713,2.26713,0,0,1,2.3679,2.15922c.03571.65248-1.16567,1.45121-2.16763,1.44114-.67457-.00678-1.67506-1.43521-1.68014-2.40815C131.77962,20.26986,132.62732,20.28347,133.26546,20.21848Z"/><path d="M159.29277,42.37278a5.02394,5.02394,0,0,1-.43362,2.44209,1.32943,1.32943,0,0,1-1.78557.87369,1.19452,1.19452,0,0,1-.60544-1.73139,5.30351,5.30351,0,0,1,.9674-2.10012c.4008-.37334.87571-.98756,1.53286-.70641C159.54634,41.39792,159.12045,42.08364,159.29277,42.37278Z"/><path d="M143.47452,21.93317c-.17509.61655.15747,1.70258-1.10009,1.73138a2.21056,2.21056,0,0,1-1.88108-2.34591c.08105-.758-.05355-1.79259,1.14618-1.87867C142.56553,19.37353,143.47843,20.59934,143.47452,21.93317Z"/><path d="M123.0195,18.01531c.00994,1.15559-.122,2.09561-1.36164,2.1904-.89079.0681-1.82673-1.05923-1.82954-2.08761-.00319-1.17235.67436-1.99947,1.66616-1.98213C122.86822,16.16,122.89772,17.225,123.0195,18.01531Z"/><path d="M151.23679,41.79219a2.59832,2.59832,0,0,1,2.45736-2.18872c.61028.01487,1.09722.2072,1.03985.965-.11032,1.45685-1.23843,3.011-2.19907,3.02581C151.80584,43.60555,151.21,42.77834,151.23679,41.79219Z"/><path d="M159.81882,35.29583c-.018-1.14462.12448-2.01813,1.15851-2.15253,1.09487-.14231,1.29134.7608,1.50093,1.58854a2.84657,2.84657,0,0,1-.37244,2.47767.94637.94637,0,0,1-1.26906.09139A2.55541,2.55541,0,0,1,159.81882,35.29583Z"/><path d="M189.87545,21.65111c-.46236.02649-.74258-.07171-.84787-.55125a8.45691,8.45691,0,0,0-2.02813-3.58c-.4004-.47436-.7139-.86407-.09542-1.38124.74175-.62027.9162.17833,1.27951.49784a17.36551,17.36551,0,0,1,1.59419,1.8169c.59145.68809.58355,1.92569.72853,2.94015C190.55237,21.71615,190.08077,21.62189,189.87545,21.65111Z"/><path d="M113.12344,14.96889c-.86493.00752-1.29179-.59254-1.629-1.25636a2.026,2.026,0,0,1-.06457-2.09329,1.08231,1.08231,0,0,1,1.45005-.41109,4.08689,4.08689,0,0,1,1.31875,3.29275C113.98468,15.00026,113.51329,14.8644,113.12344,14.96889Z"/><path d="M113.37357,42.48592c-.02522.86785-1.46587,2.22457-2.27729,2.04634-.73739-.162-.50775-.92422-.53908-1.38385-.08947-1.31308.78751-2.82309,1.516-2.86229C112.67046,40.254,113.40245,41.49225,113.37357,42.48592Z"/><path d="M81.28533,19.14762c-.03935,1.24714-.56923,1.76171-1.81845,1.6829-.83056-.0524-1.75978-.10272-1.788-1.25072-.01986-.80737,1.6317-1.87747,2.65861-1.80511C81.062,17.82575,81.31546,18.1929,81.28533,19.14762Z"/><path d="M132.52024,29.18629a1.09337,1.09337,0,0,1,.76933,1.25256,3.6638,3.6638,0,0,1-.60986,1.48942c-.43128.563-.74954,1.5288-1.75742,1.12376-.64944-.261-.8682-1.90179-.4436-2.62421A2.74731,2.74731,0,0,1,132.52024,29.18629Z"/><path d="M128.60914,30.32437a1.40139,1.40139,0,0,1-1.358,1.2724c-.9388.03317-2.49971-1.38-2.37271-2.13332.15377-.91226.8995-.92857,1.59482-.9093C127.61654,28.58584,128.65306,29.45121,128.60914,30.32437Z"/><path d="M130.31278,41.36513c1.14457.02368,2.58183,1.26958,2.53551,2.27413a1.0252,1.0252,0,0,1-1.19662,1.02663,2.7545,2.7545,0,0,1-2.34392-2.48339C129.32115,41.51035,129.72192,41.32427,130.31278,41.36513Z"/><path d="M147.68605,25.22142c-.04469.82892-.11849,1.70014-1.20525,1.6649a1.61446,1.61446,0,0,1-1.53436-1.77305c-.01763-.84279.14247-2.00486,1.21828-2.00457C147.32658,23.109,147.61672,24.19588,147.68605,25.22142Z"/><path d="M147.89654,45.09851A1.50618,1.50618,0,0,1,146.325,46.801a1.52751,1.52751,0,0,1-1.43481-1.43062c-.0556-.92484,1.13441-2.28871,1.90782-2.26236C147.42448,43.12937,147.9062,44.00173,147.89654,45.09851Z"/><path d="M108.77362,39.57727a1.6764,1.6764,0,0,1-.06028.55392c-.38646.96689-1.02147,2.15936-2.03145,1.9053-.99395-.25-.31139-1.46023-.1939-2.25555a3.74153,3.74153,0,0,1,.25313-.7862c.21345-.54876.34965-1.24748,1.1687-1.07564C108.71842,38.08876,108.76688,38.77728,108.77362,39.57727Z"/><path d="M166.59731,29.19719c-.02567.71093-.14018,1.683-1.33128,1.61736a1.585,1.585,0,0,1-1.572-1.73046A2.05968,2.05968,0,0,1,165.55836,27.23C166.64844,27.34924,166.61009,28.19107,166.59731,29.19719Z"/><path d="M128.70394,23.94927a1.09353,1.09353,0,0,1-1.32287,1.219c-1.36433-.18027-1.13049-1.47835-1.34337-2.39226a1.027,1.027,0,0,1,.86921-1.34415C127.62379,21.31965,128.69827,22.87424,128.70394,23.94927Z"/><path d="M135.98672,51.30945c.069.90468-.06672,1.798-1.16206,1.79972a1.363,1.363,0,0,1-1.40233-1.65792c.08388-1.0529.48817-2.04,1.63019-2.02547C136.18934,49.44021,135.96749,50.53014,135.98672,51.30945Z"/><path d="M149.76186,52.96755c-.97313-.05207-1.34252-.74506-.83639-1.5689a5.63983,5.63983,0,0,1,2.27185-1.90943.8642.8642,0,0,1,.919.01825c.34423.25955.12231.574-.00642.8616a6.17978,6.17978,0,0,1-1.26658,2.09964A1.4079,1.4079,0,0,1,149.76186,52.96755Z"/><path d="M76.294,19.9788c.03885.8207-.29954,1.40862-1.16448,1.3582-.89544-.05219-1.61975-.47435-1.59039-1.53372.02191-.7905.086-1.66021,1.05723-1.85425C75.37173,17.79411,76.26662,18.94066,76.294,19.9788Z"/><path d="M147.40174,38.28911a1.53013,1.53013,0,0,1,1.81339,1.47236,1.08421,1.08421,0,0,1-1.24988,1.2909c-.86772-.11016-1.92079-.11-2.028-1.396C145.847,38.574,146.52863,38.33139,147.40174,38.28911Z"/><path d="M154.72859,36.66483a2.026,2.026,0,0,1-2.01335-1.89266c-.00714-.69172.30174-1.1653,1.06206-1.16931a3.24329,3.24329,0,0,1,2.284,2.17859C156.0711,36.31855,155.54923,36.66448,154.72859,36.66483Z"/><path d="M126.27791,36.25519c-.12309.71242.16293,1.58362-.99618,1.471-.70292-.06827-1.55654-1.38252-1.54717-2.42508.00681-.756.286-1.25168,1.12669-1.20025C126.37772,34.19366,126.0147,35.46419,126.27791,36.25519Z"/><path d="M175.17485,29.222c.05493-.49786.1849-1.17925.78052-1.36781.70047-.22174,1.04936.47409,1.29132.97585a2.52849,2.52849,0,0,1-.09176,2.73035.573.573,0,0,1-.70761.25384A4.07041,4.07041,0,0,1,175.17485,29.222Z"/><path d="M129.24808,48.70884c.02444-1.00469.87711-1.92575,1.74293-1.79466a1.59,1.59,0,0,1,1.27919,1.83521c-.16325,1.07969-1.37473.97854-2.2058,1.12245C129.10244,50.0384,129.34968,49.179,129.24808,48.70884Z"/><path d="M80.42634,25.2361A1.71209,1.71209,0,0,1,82.259,23.57274c.68081-.03514,1.05343.25519,1.05767.956.00621,1.026-.88574,2.09234-1.72619,1.98985C80.885,26.43249,80.36582,26.08288,80.42634,25.2361Z"/><path d="M156.45894,28.1471c-.22623.64613.08884,1.61563-.838,1.93915-.51814.18086-1.60414-1.49163-1.56382-2.34386a1.25341,1.25341,0,0,1,1.27151-1.34207C156.44027,26.39883,156.3713,27.32664,156.45894,28.1471Z"/><path d="M92.4124,33.90652c0,.50213.02553.78052-.00632,1.05221-.04163.35512-.04926.84784-.48291.87159a.99574.99574,0,0,1-1.02169-.54334,4.41219,4.41219,0,0,1-.51156-2.64794c.07779-.53533.28177-.99814.90423-1.03592.60511-.03673.75386.476.87339.903A11.54715,11.54715,0,0,1,92.4124,33.90652Z"/><path d="M109.01637,45.50058c-.1318.7496-.05376,2.09117-1.29413,2.40643-.76185.19364-.95944-.79927-.97772-1.52217-.03276-1.2955.64574-2.27928,1.53187-2.24656C108.98846,44.16457,109.07109,44.635,109.01637,45.50058Z"/><path d="M107.4127,53.1349a2.5249,2.5249,0,0,1-.19673,1.36932c-.47065.76562-1.28337,1.41592-2.02278,1.0884-.817-.36185-.27576-1.27464.012-1.93233a6.809,6.809,0,0,1,.466-.85005c.2929-.47191.60238-1.07232,1.23669-.93425C107.67266,52.04247,107.19946,52.82668,107.4127,53.1349Z"/><path d="M103.22571,49.19751a1.98,1.98,0,0,1,.4344-1.42227,1.2277,1.2277,0,0,1,1.58028-.4534c.62363.31914.47037.9332.29874,1.46183a2.40791,2.40791,0,0,1-.50189.96754c-.39854.39287-.56979,1.32508-1.16057,1.12564C103.31844,50.6884,103.27731,49.833,103.22571,49.19751Z"/><path d="M106.244,14.82911c.83318.14615,1.38947.68288,1.29624,1.40239A2.20416,2.20416,0,0,1,105.59748,17.92c-.85344.1515-.793-.80956-.78737-1.42447A1.55043,1.55043,0,0,1,106.244,14.82911Z"/><path d="M105.45918,31.62248c.054.92632-.2637,1.42388-1.08748,1.39027-1.22989-.05018-1.2157-1.12991-1.37189-1.91741a1.035,1.035,0,0,1,1.00808-1.35228C105.19151,29.81689,105.28005,30.87568,105.45918,31.62248Z"/><path d="M179.35369,15.66469c.18507-.566-.02024-1.49079.53247-1.71916.61342-.25346.80682.69767,1.19957,1.092.41291.41458,1.11551.834.65963,1.62053-.28445.49072-.66773.94591-1.32121.78808C179.52067,17.22791,179.45028,16.45134,179.35369,15.66469Z"/><path d="M94.65586,13.41268c-.08769.43062-.15123.83885-.25675,1.236-.12649.47595-.17309,1.11419-.85018,1.06339a1.29408,1.29408,0,0,1-1.12878-1.22254A2.162,2.162,0,0,1,92.86,12.80084a1.22389,1.22389,0,0,1,1.32974-.52472C94.85593,12.4337,94.50953,13.02911,94.65586,13.41268Z"/><path d="M168.47507,25.93389a2.6081,2.6081,0,0,1,1.31291-2.24165.60508.60508,0,0,1,.85069.20172c.52947.97-.04659,1.75961-.51833,2.527-.243.39521-.44737,1.02326-1.09818.81891C168.51168,27.07954,168.47772,26.561,168.47507,25.93389Z"/><path d="M97.98033,32.27288c.05171-.74313.18455-1.60857,1.12242-1.54662a1.4364,1.4364,0,0,1,1.258,1.57065,1.48882,1.48882,0,0,1-1.49049,1.37641C97.96037,33.74661,97.99651,32.9463,97.98033,32.27288Z"/><path d="M115.35491,36.8552c-.07818.57483-.1775,1.8308-.77371,1.79623-1.03836-.0602-1.05323-1.28752-1.09285-2.17416-.0259-.57979-.24134-1.47686.7639-1.42643C115.163,35.09654,115.37076,35.863,115.35491,36.8552Z"/><path d="M164.56867,41.56376a1.90065,1.90065,0,0,1-.30421,1.3379c-.26673.3065-.19189,1.03665-.86358.838a1.1473,1.1473,0,0,1-.7656-1.17516,2.028,2.028,0,0,1,.53219-1.5c.27843-.31027.58222-.65717,1.03481-.51722C164.73384,40.71158,164.50843,41.227,164.56867,41.56376Z"/><path d="M101.79954,58.51385c-.14946.48592-.14712,1.37861-.97216,1.25129-.73873-.114-.98878-.953-.87222-1.654.10129-.60914.07485-1.66941.83833-1.60844C101.68832,56.57416,101.83648,57.56253,101.79954,58.51385Z"/><path d="M122.5982,49.37513c.07885-.63774.229-1.342.806-1.14759a2.28724,2.28724,0,0,1,1.46556,2.12079c.03538.46173-.079.97462-.73358.906C122.93784,51.12876,122.92164,50.078,122.5982,49.37513Z"/><path d="M160.92032,28.54268c-.1947.91436-.30219,1.89455-1.355,2.08968-.6.11121-.88182-.427-.80035-1.02107a1.9719,1.9719,0,0,1,1.64905-1.80247C160.98141,27.699,160.8273,28.27026,160.92032,28.54268Z"/><path d="M142.01544,30.959c.16761-.81658.28846-1.73707,1.37017-1.75674a.846.846,0,0,1,.79975,1.07488,1.89141,1.89141,0,0,1-1.69425,1.57594C141.96548,31.91387,141.87,31.42536,142.01544,30.959Z"/><path d="M126.75408,55.26917c.02407.72269-.284,1.05817-.90614,1.05492-.93037-.00487-1.15989-.68071-1.16085-1.406-.00073-.56224.20178-1.14945.96293-1.07656C126.563,53.92894,126.60993,54.69646,126.75408,55.26917Z"/><path d="M96.81712,22.20415c.04971.81353-.35167,1.11982-.99288,1.12576-.90145.00837-1.129-.67514-1.24069-1.37344-.09984-.62421.13541-1.14453.85914-1.1068C96.31526,20.89517,96.66308,21.53713,96.81712,22.20415Z"/><path d="M117.02126,20.22545c-.00976-.69368.18451-1.14387.846-1.07275a1.437,1.437,0,0,1,1.4207,1.39305,1.00349,1.00349,0,0,1-1.02757,1.06612C117.28745,21.63232,117.19431,20.80891,117.02126,20.22545Z"/><path d="M84.57107,18.04146c.89153.01174,1.27288.43538,1.06081,1.06389-.15961.47307-.01481,1.41677-.88956,1.2762A1.445,1.445,0,0,1,83.498,18.959C83.52679,18.58168,83.80058,17.61469,84.57107,18.04146Z"/><path d="M167.37319,42.443c-.29662-.07973-.839.16077-.6923-.50529a20.20894,20.20894,0,0,1,.48885-1.97744.78218.78218,0,0,1,1.06273-.54229.696.696,0,0,1,.3297,1.12358c-.3936.64656-.80612,1.28162-1.21056,1.92164Z"/><path d="M103.23431,55.07925c-.17645.57884.29472,1.48851-.72875,1.53007-.95167.03864-.665-.80414-.70143-1.33418-.05178-.75368.04727-1.7454.89229-1.74084C103.592,53.53912,102.99218,54.57328,103.23431,55.07925Z"/><path d="M180.8954,30.14209a1.95544,1.95544,0,0,1-1.49734-1.46041c-.10156-.62742.40913-.90948.96277-.86932.84677.06142,1.12738.68393,1.15247,1.43488C181.52751,29.67276,181.43067,30.07481,180.8954,30.14209Z"/><path d="M106.78132,59.40352c-.00763.57624-.06542,1.14691-.75253,1.0897a1.13956,1.13956,0,0,1-1.17434-1.23239c.01785-.61459.231-1.04364.96434-1.03372C106.67792,58.23874,106.65459,58.89056,106.78132,59.40352Z"/><path d="M171.19108,36.19549c-.67616-.04017-.63179-.60095-.62111-.92074a1.30007,1.30007,0,0,1,1.20871-1.41932c.46262-.0459.93417.08419.82576.6276A2.82894,2.82894,0,0,1,171.19108,36.19549Z"/><path d="M180.63232,33.7762c.03557.48963-.12777.87355-.55983.83109-.95879-.09423-1.33192-.85292-1.54307-1.66286a.51878.51878,0,0,1,.61285-.68065C180.02635,32.39421,180.35988,33.10748,180.63232,33.7762Z"/><path d="M115.60082,65.56882c-.19667.35029-.20582.9363-.75329.84228-1.01694-.17466-1.00073-1.22864-1.38049-1.90749-.16834-.3009.40388-.42784.69658-.37972A1.68886,1.68886,0,0,1,115.60082,65.56882Z"/><path d="M119.26223,67.439A1.79284,1.79284,0,0,1,120.3941,69.033c.04308.37673-.13951.83927-.57126.73767a1.4577,1.4577,0,0,1-1.06377-1.54478C118.74267,67.83636,118.80969,67.50947,119.26223,67.439Z"/><path d="M118.85759,57.538a1.11859,1.11859,0,0,1-.66059-1.13378c.03619-.64348.4356-.87246,1.00445-.90141.61392-.03123.63605.39717.61479.8386A1.42069,1.42069,0,0,1,118.85759,57.538Z"/><path d="M107.75075,61.10858a1.72685,1.72685,0,0,1,1.04463,1.60085c-.01864.40389-.26788.85061-.6579.692-.76374-.31053-.9259-1.08456-.97507-1.837C107.14088,61.23507,107.35346,61.06393,107.75075,61.10858Z"/><path d="M103.16643,61.57741c.13493-.36135-.29078-1.09381.46049-1.03938.621.045.73813.70878.74047,1.2751.00171.41086.03554.89214-.57866.8876C102.95827,62.6946,103.21846,62.0508,103.16643,61.57741Z"/><path d="M177.589,23.62986c.39017-.00433.66261.14078.59552.56354a1.38467,1.38467,0,0,1-1.00441,1.20282c-.3702.09951-.42252-.27278-.41874-.54823C176.76939,24.26666,176.86555,23.72574,177.589,23.62986Z"/></svg>