<svg xmlns="http://www.w3.org/2000/svg" role="img" viewBox="-14.86 -16.86 828.72 1032.72"><title>tekton_chains-black</title><path d="M91.42 811.34l42.57-124.53h21.68l-42.66 124.53h164.08l12.99-37.89 25.05-23.7.47 3.99.9 7.62 5.88 49.98h54.94l-1.36-8.96-14.48-95.04 61.89-59.93h-45.14L310 715.03l23.1-67.62h-47.4l-42.65 124.84h-67.24l9.2-26.72h59.63l12.38-36.38h-59.63l8.15-23.85h58.42l12.98-37.89H65.91l-13.43 39.4h33.96L43.73 811.34h47.69z"/><path d="M429 686.81l-40 117.13 1.05 7.4h44.08l42.57-124.53h24.79a132.68 132.68 0 0 0-25.09 43.77c-8.61 25.36-8.45 45.44.9 60.53s25.51 22.64 48.46 22.64c22.79 0 44.23-7.69 64.15-23.39A122.67 122.67 0 0 0 615 764.19l-1.79 5.25-14.26 41.75h40.76l27.17-79.4a110.35 110.35 0 0 0 5.28-26.87c1.06 13.44 2.72 24.76 5.44 34.11l20.37 72.31H739l56-163.93h-41.06l-16.6 48.45a265.3 265.3 0 0 0-10.87 43c-.75-9.06-3-19.63-6.49-31.55l-17.66-60.08h-47.4l-13.51 39.56-3.32-2.28a46 46 0 0 0-6-15.09c-9.35-14.78-25.32-22.17-48.07-22.19H584c-1.88 0-3.73.06-5.58.15H436l-40.6 39.4zm151 39.24c-6.79 19.48-13.44 32.76-19.62 40.16s-13.59 11-22.19 11c-15.85 0-18.72-15.1-8.31-45.29q16.76-48 41.67-48c15.29.02 18.16 14.08 8.35 42.13zM93.71 937.75c-4.71 12.36-14.28 24.72-28.37 24.72-20.6 0-13-25.37-8.07-40.33 4.68-14.09 15.84-45.09 36-45.09 15.39 0 14.9 15.82 10.29 28.4l43.22-2.17c9.28-37.08-4.92-59.62-42.86-59.62-46.83 0-79.24 35.55-93.49 78.48-14 42.28-1.35 74.59 43.31 74.59 34.26 0 66.53-22.12 80.73-56.37zm204.63-91.93h-45.53l-18.22 54.86h-35.12l18.21-54.86h-45.53l-49.39 148.74h45.53l19.22-57.89h35.13l-19.23 57.89h45.54l49.39-148.74zm49.43 0l-95.58 148.74h37.08l18.82-29.27h39.68l-1.26 29.27h46.61l2.78-148.74h-48.13zm3 86.95h-24.29L353 889.62zm141.61-86.95h-45.97l-1.39 4.2-48 144.54h45.96l39.44-118.74 9.96-30zm137.89 0h-37.08l-13.75 41.42L569 928.43l-.58.43-18.26-68.06-4-15H503l-11.94 36-37.46 112.76h37.08l23-69.38a97.4 97.4 0 0 0 5.17-24.2l1.42 1L524 925l19.6 69.6h37.3l49.39-148.74zM689 876.61c11.49 0 18.43 3.9 19.09 15l41.55-11.49c-.54-25.8-22-36.42-47.75-36.42-14.74 0-31.5 2.81-46.46 11.27-14.73 8.45-26.64 22.76-31.46 37.29-11.74 35.34 18.92 42.93 45.09 48.35 6.28 1.3 17.2 3 14.18 12.14-2.74 8.24-14.74 9.11-20.59 9.11-13.23 0-21.62-4.77-21.12-18l-44.81 7.59c-2.7 32.31 20.73 45.32 51.95 45.32 30.79 0 71.1-14.31 83-50.09 5.4-16.26 2.42-30.14-9.51-37.94-10.78-6.72-25-9.11-38.11-11.93-5.2-1.3-15.54-2.81-12.95-10.62s11.82-9.58 17.9-9.58zM173.46 488.93l-5.09-7.17L153.64 461a21.06 21.06 0 0 1 5-29.33c.23-.16.47-.29.7-.44a20.87 20.87 0 0 1 3.43-1.81 11.93 11.93 0 0 0 1.5-11.76l-5.75-13.87a46.81 46.81 0 0 0-14.05 6.49c-.22.16-.45.3-.68.46a46.75 46.75 0 0 0-11.05 65.11l14.72 20.74 14.72 20.75a46.61 46.61 0 0 0 11 11 56 56 0 0 1 .28-39.41zm45.01 29.82l11 7.94a46.75 46.75 0 0 0 8.82-63.39l-14.69-20.74-14.67-20.68a56.06 56.06 0 0 1-9.33 31.2l3.08 4.33 14.72 20.74a21 21 0 0 1-3.61 28.21 12 12 0 0 0 4.68 12.39zm-91.38-104.5l-3.09-7.43-9.74-23.5a21.07 21.07 0 0 1 11.38-27.49l.77-.27a20.86 20.86 0 0 1 4.65-1.12 12 12 0 0 0 5.4-10.82l-1-15a46.5 46.5 0 0 0-18.84 3.2l-.77.3a46.75 46.75 0 0 0-25.25 61l9.73 23.5 9.67 23.52a46.71 46.71 0 0 0 5 9.11 56 56 0 0 1 12.09-35z"/><path d="M171.81 465.07a46.74 46.74 0 0 0 24.51-60.69l-9.74-23.49-8.58-20.72a56 56 0 0 1-16.88 26.29l1.76 4.25 9.74 23.5A21.06 21.06 0 0 1 162 441.35l-.74.35h-.06a12 12 0 0 0-.15 14.06l7.51 10.58c.85-.3 1.69-.61 2.52-1 .24-.04.48-.16.73-.27zm-44.53-74.02h.45l.81-.08a46.74 46.74 0 0 0 42.56-49.72l-1.75-25.38-.93-13.46a76.16 76.16 0 0 1-4.61-12.41 55.86 55.86 0 0 1-20.54 20.69l.48 7L145.5 343a21 21 0 0 1-18.72 22.33v.17a12 12 0 0 0-4.15 14.35zm-24.91-61.91l-.59-8.63-1.78-25.37a21.06 21.06 0 0 1 19.53-22.44h1.92a12 12 0 0 0 5.65-8.18l2.93-16.64a46.62 46.62 0 0 0-11.44-.82h-.82a46.75 46.75 0 0 0-43.37 49.8l1.75 25.38 1.75 25.38a46.49 46.49 0 0 0 2.35 11.76 55.88 55.88 0 0 1 22.12-30.24zm-5.01-85.92l1.64-9.47 4.41-25.05a21.06 21.06 0 0 1 24.37-17.07c.27.05.53.13.8.18a21.27 21.27 0 0 1 5.74 2.16 11.92 11.92 0 0 0 8.6-5.83l4.81-8.32q-2.35-3.91-4.55-7.9l-.39-.7c-.38-.7-.74-1.42-1.11-2.13a47.41 47.41 0 0 0-8.64-2.57l-.81-.16a46.75 46.75 0 0 0-54.09 37.88l-4.41 25-4.42 25.06a46.22 46.22 0 0 0 .31 17.72 56 56 0 0 1 27.74-28.8z"/><path d="M110.21 222.5l-.27.47a46.77 46.77 0 0 0 54-6.23c.5-3.79 1.05-7.56 1.68-11.25-4.25-5.3-8.32-10.87-12.14-16.62l-.26-.39-2.42 4.19a21 21 0 0 1-28 8.07l-.43-.22a12 12 0 0 0-10 9.75zm12.84-65.89l4-7 3.31-5.74a206.87 206.87 0 0 1-6.63-21.06q-1.66-6.49-2.87-13a45.65 45.65 0 0 0-3.3 4.94l-12.73 22-12.73 22a46.65 46.65 0 0 0-4.78 11.72 55.77 55.77 0 0 1 35.73-13.86zm251.51 422.3h12.84c.27-.88.53-1.77.75-2.67.07-.27.12-.54.18-.8a46.54 46.54 0 0 0-2.88-29.31 60.28 60.28 0 0 1-3.43 5.33l-.1.15c-1 1.33-2 2.63-3.18 4a77.3 77.3 0 0 1-14.62 13.12l-.72.49a.17.17 0 0 0 0 .07c-.06.27-.09.54-.16.81s-.08.24-.11.37a12 12 0 0 0 11.43 8.44zm-53.27 4.46h-1.59a59.62 59.62 0 0 1-7.36-.44 90.23 90.23 0 0 1-14.21-2.9 91.58 91.58 0 0 1-20.13-8.51c-1.44-.83-2.86-1.7-4.24-2.6a77.79 77.79 0 0 1-15.6-13.32 60.19 60.19 0 0 1-9.79-14.78 1.09 1.09 0 0 1 0 .17c-.07.26-.15.52-.21.79a46.75 46.75 0 0 0 34.19 56.5l24.7 6.08 24.7 6.07a46.82 46.82 0 0 0 9.8 1.33 56 56 0 0 1-20.26-28.39zM676.33 123a209.55 209.55 0 0 1-6.49 20.72l3.42 5.92 12.73 22a21.07 21.07 0 0 1-7.69 28.74c-.24.14-.49.25-.73.38a20.92 20.92 0 0 1-9 2.38 12 12 0 0 0-4.19 11.31l2.53 14.38a46.51 46.51 0 0 0 23.51-5.83l.72-.39a46.75 46.75 0 0 0 17.06-63.8l-12.72-22-12.73-22a46.94 46.94 0 0 0-3.47-5.16c-.84 4.35-1.81 8.87-2.95 13.35z"/><path d="M406.72 588h-32.16a21 21 0 0 1-19.67-13.66c-1.06.55-2.12 1.09-3.18 1.59a80.07 80.07 0 0 1-21.16 6.61 46.77 46.77 0 0 0 44 31.12h50.88c1.48 0 2.95-.08 4.4-.21A55.66 55.66 0 0 1 406.72 588zm90.76-6.78a88.18 88.18 0 0 1-9.81 1.76 59.9 59.9 0 0 1-7.37.44 65 65 0 0 1-7.45-.44l-10.28 2.53a21.06 21.06 0 0 1-25.45-15.4c-.05-.2-.08-.41-.12-.61l-1-.69a76.9 76.9 0 0 1-14.81-13.32c-.16-.18-.29-.36-.44-.54H412a46.31 46.31 0 0 0 0 20.49c.06.26.11.53.17.8a46.75 46.75 0 0 0 56.5 34.19l24.7-6.07 24.7-6.08a46.92 46.92 0 0 0 10.61-4 55.86 55.86 0 0 1-31.2-13.06zm-83.64-36.3a52.8 52.8 0 0 1-4.64-11.46 46.26 46.26 0 0 1-1.62-13.23h-15.15a47 47 0 0 1-1.62 13.23c-.2.74-.44 1.48-.68 2.22a56.53 56.53 0 0 1 5 10.22h19.3c-.2-.33-.43-.65-.59-.98zm196.04-47.66l6.65-9.37a47.07 47.07 0 0 0-3.74-6.14c-.16-.22-.33-.43-.5-.65a46.73 46.73 0 0 0-64.68-10L533 481.66c1.47.84 2.43 1.47 2.83 1.73l1.43 1a55 55 0 0 1 5.43 4.75 47.53 47.53 0 0 1 8.31 11.18l11.6-8.32a21 21 0 0 1 28.85 4.14c.17.22.35.42.51.64a20.77 20.77 0 0 1 2.25 4 12 12 0 0 0 15.67-3.52zm-38.97 40.55l-4.38 3.19-20.65 14.86a21 21 0 0 1-7.43 3.39 80.27 80.27 0 0 1-12.16 9.7c-1.4.92-2.83 1.8-4.23 2.61a91 91 0 0 1-13.82 6.44 46.75 46.75 0 0 0 52.63-1.3l20.65-14.86 20.64-14.86c.45-.32.87-.65 1.3-1a55.5 55.5 0 0 1-32.55-8.17zm87.33-110.96l4.5-10.85a46.64 46.64 0 0 0-6.16-5.24c-.22-.16-.45-.3-.68-.46a46.75 46.75 0 0 0-64.43 11.52l-14.72 20.74-7.86 11.07a56.09 56.09 0 0 1 28.37 4.37l.42-.59 14.72-20.74a21 21 0 0 1 28.6-5.42c.23.15.46.28.69.44a20.28 20.28 0 0 1 2.58 2.19 12 12 0 0 0 13.97-7.03z"/><path d="M635.52 476.78l-3.53 5-14.72 20.72a21.05 21.05 0 0 1-29.33 5c-.23-.16-.43-.34-.65-.5a20.91 20.91 0 0 1-6.45-8.32 12 12 0 0 0-13 .65l-11.22 8.07a46.41 46.41 0 0 0 15.76 20.54l.65.49a46.76 46.76 0 0 0 65.11-11l14.72-20.75 14.73-20.74c.57-.81 1.1-1.63 1.61-2.45a55.74 55.74 0 0 1-33.68 3.29zm43.61-76.69l-2.79 6.73-9.74 23.5a21.06 21.06 0 0 1-27.48 11.38c-.26-.11-.5-.24-.74-.35a20.71 20.71 0 0 1-5.91-4.11 12 12 0 0 0-12.69 4.67l-7.81 11a46.38 46.38 0 0 0 16.57 12.15c.25.11.5.23.75.33a46.75 46.75 0 0 0 61-25.26l9.74-23.49 9.74-23.5a47.77 47.77 0 0 0 2.06-6.19 55.68 55.68 0 0 1-32.7 13.14zm8.66-54.82l.78-11.23c-1.31-.69-2.65-1.34-4-1.91-.25-.11-.51-.2-.77-.3a46.75 46.75 0 0 0-60.25 25.56l-9.74 23.5-7.14 17.11a56.14 56.14 0 0 1 29.64-4.5l1.17-2.82 9.74-23.5a21 21 0 0 1 26.71-11.65c.26.09.52.17.77.27.42.18.82.38 1.22.58a12 12 0 0 0 11.87-11.11z"/><path d="M698.86 316.44l-.28 4.07-1.75 25.38a21.07 21.07 0 0 1-22.44 19.54c-.27 0-.54-.07-.81-.1a20.9 20.9 0 0 1-6.93-2 12 12 0 0 0-11.07 7.37l-5.31 12.81a46.24 46.24 0 0 0 21.54 7.49l.82.08a46.76 46.76 0 0 0 49.8-43.37l1.75-25.38 1.49-21.71a55.41 55.41 0 0 1-26.81 15.82zm-17.12-69.37a46.74 46.74 0 0 0-43 23.52c-.14 3.38-.35 6.79-.73 10.24a65 65 0 0 1-6.1 21.47l-.91 13.55-1.21 17.61a56.22 56.22 0 0 1 26.61-13l.2-2.88 1.75-25.38A21.05 21.05 0 0 1 680 272.69h.82a21 21 0 0 1 6.46 1.51 12 12 0 0 0 9.57-13.84l-1.88-10.69a46.84 46.84 0 0 0-12.39-2.58z"/><path d="M720.91 198.92a55.46 55.46 0 0 1-20.69 28.56l1.11 6.27 4.41 25.05a21.07 21.07 0 0 1-17.07 24.37l-.81.1a20.85 20.85 0 0 1-10.67-1.35 12 12 0 0 0-9.8 10.95l-.86 12.42a46.43 46.43 0 0 0 25.79 3.27l.81-.12A46.75 46.75 0 0 0 731 254.35l-4.41-25.06-4.42-25a46.33 46.33 0 0 0-1.26-5.37zm-48.73-33.09c-1.36.12-2.72.29-4.09.53l-.8.16a46.32 46.32 0 0 0-8.79 2.63c-.37.7-.73 1.42-1.11 2.12l-.49.89c-3.15 5.73-6.6 11.42-10.26 16.92-3.81 5.74-7.87 11.29-12.13 16.59.86 5.05 1.56 9.82 2.12 14.43a315.44 315.44 0 0 1 2.37 35.14 56 56 0 0 1 21-13.8l-.07-.39-4.45-25.05a21 21 0 0 1 16.26-24.19c.27-.05.53-.13.8-.18a20.33 20.33 0 0 1 2.89-.28 12 12 0 0 0 2.71-15.2zM238.35 544.22l-4.53-3.22-20.64-14.9a21.06 21.06 0 0 1-4.79-29.36c.16-.22.35-.42.52-.64a20.57 20.57 0 0 1 3-3.11 11.94 11.94 0 0 0-1.9-9.59l-9.71-13.68a46.61 46.61 0 0 0-12.24 11.38l-.49.65a46.74 46.74 0 0 0 10.62 65.18l20.64 14.86 20.65 14.86a48.54 48.54 0 0 0 5.13 3.2 55.54 55.54 0 0 1-6.26-35.63zm19.01-55.07a55.44 55.44 0 0 1 5.41-4.74l1.2-.86.24-.16c.41-.28 1.44-.94 3-1.84l-14.48-10.42-.23-.15a55.28 55.28 0 0 1 3.5 19.64c.42-.5.88-.99 1.36-1.47zM114.83 283.44a12 12 0 0 0-5.77 11.08l1 14.31a46.75 46.75 0 0 0 51.27-38.28l.06-.31c-.1-2.33-.18-4.6-.24-6.74v-.69a328.36 328.36 0 0 1 1.44-33.68 56.21 56.21 0 0 1-21.42 8.07l-.68 3.85-4.41 25.05a21 21 0 0 1-21.25 17.34zm285.25 28.83h.45c17.06-.15 42.87-8.61 39.55-26.12-2.11-10.56-22.79-15.54-40-15.54-17.06 0-37.74 5-39.85 15.54-3.32 17.67 22.77 26.12 39.85 26.12zm-19.32-211.18a6.34 6.34 0 1 0 0-12.68 6.28 6.28 0 0 0-6.34 6.34 6.37 6.37 0 0 0 6.34 6.34zm38.79-12.68a6.48 6.48 0 0 0-6.34 6.34 6.34 6.34 0 1 0 6.34-6.34zm0-27.78a6.48 6.48 0 0 0-6.34 6.37 6.34 6.34 0 1 0 6.34-6.34zm-38.79 12.68a6.34 6.34 0 1 0 0-12.68 6.28 6.28 0 0 0-6.34 6.37 6.37 6.37 0 0 0 6.34 6.31z"/><path d="M137.23 97.2c.06.45.1.9.17 1.35a181.66 181.66 0 0 0 3.92 19.76 196 196 0 0 0 17.39 44.22l.38.67q4.41 8 9.47 15.65A210.45 210.45 0 0 0 185 200.41c-1.51 7.55-2.71 15.25-3.62 22.8a313.21 313.21 0 0 0-2.11 39.39c.15 5.29.3 10.87.9 16.31 1.21 15.7 15.4 34.26 25.21 46.19a209.33 209.33 0 0 0 58.72 49.81 15.89 15.89 0 0 0 .91 2.42 79.44 79.44 0 0 0 6.92 11.41c-6.22 9.82-27.75 47.4-27.75 47.4l14.9 17.11s24-42.47 30-52c2.78 1.47 4.49 2.18 4.49 2.18 16.75 11.63 38.64 18.27 60.08 21.89a107.41 107.41 0 0 1-52.84-38.19q7.94 2.94 16.31 5.43a164.56 164.56 0 0 0 42 16.16 168.7 168.7 0 0 0 52.08 4.67 171.87 171.87 0 0 0 41.81-7.84 179.14 179.14 0 0 0 30.95-13q8.14-2.49 16.3-5.43a108.08 108.08 0 0 1-57.51 39.7c20.68-2.72 42.26-8 59.32-18l5.92-3.08c3.29 4.57 31.09 48.34 31.09 48.34l14.78-16.47s-24.49-38.16-28.41-43.61a56.85 56.85 0 0 0 3.24-4.76 96.91 96.91 0 0 0 6.31-11.61c.3-.75.75-1.66 1.06-2.42a209.56 209.56 0 0 0 58.72-49.81c10-12.23 23.85-30.19 25.2-46.34.61-5.43.76-11 .91-16.61a297.33 297.33 0 0 0-2.26-40.15c-.91-7.4-2.12-14.64-3.48-21.73a210.77 210.77 0 0 0 16.38-21.52q5-7.59 9.47-15.63l.42-.74a194.83 194.83 0 0 0 17.33-44.21 185.93 185.93 0 0 0 4-19.8c0-.26.07-.52.11-.79.17-1.24.34-2.48.49-3.74a188.7 188.7 0 0 0-5.29-71.09 26.63 26.63 0 0 0-25.82-19.78 175.83 175.83 0 0 0-59.07 10.54c-21.75 7.71-42.16 19-61.69 31.88a213 213 0 0 0-222.65 0c-19.74-12.94-40.29-24.32-62.18-32a175.18 175.18 0 0 0-58.58-10.42 26.82 26.82 0 0 0-25.82 19.63 185.09 185.09 0 0 0-5.43 71.1c.12 1.06.27 2.13.41 3.2zm208.21 272a17.65 17.65 0 0 0 .9 9.66.52.52 0 0 1 .15.3 288.39 288.39 0 0 1-34.27-9.21c-35.17-12.23-64.45-31.55-87.7-60.08a145.58 145.58 0 0 1-9.51-13 426.44 426.44 0 0 0 58 16.61 458 458 0 0 0 49.51 7.85 24.12 24.12 0 0 0 2.26 4.37c7.85 13.44 21.14 21.89 36.08 26.87-7.86 3.32-14.07 8.43-15.42 16.61zm-27.63-159.1a19.06 19.06 0 0 0-11 3.47 25.55 25.55 0 0 0-8.3 10 6.35 6.35 0 0 1-5.74 3.63 6.25 6.25 0 0 1-2.71-.61 6.34 6.34 0 0 1-3-8.45A37.61 37.61 0 0 1 299.7 203a31.88 31.88 0 0 1 18.11-5.74 32.31 32.31 0 0 1 24.76 11.63 41.56 41.56 0 0 1 10 27.32 6.34 6.34 0 1 1-12.68 0 27.88 27.88 0 0 0-6.79-18.72 20.33 20.33 0 0 0-15.29-7.41zm122 164.38c-2 3.93-7.4 6.94-13.89 9.06-8.45 1.05-17.21 1.66-25.81 2.26-8.6-.45-17.21-1.36-25.66-2.26-6.95-2.27-12.53-5.59-14.19-10-6.07-15.84 88.43-16.29 79.52.92zm138.09-67.95c-13.14 15.85-27.32 30.64-44.53 41.82-23.85 15.54-50.87 25.2-79.4 30.94a18.88 18.88 0 0 0 .9-10.41c-1.51-7.85-7.39-12.84-15.09-16.16 14.79-5.13 28.08-13.58 35.92-26.87.91-1.51 1.51-2.86 2.27-4.37a464.1 464.1 0 0 0 49.51-7.85 444 444 0 0 0 57.66-16.46c-2.26 3.02-4.68 6.19-7.24 9.36zm-117.44-70.34a6.34 6.34 0 1 1-12.68 0 41.62 41.62 0 0 1 10.11-27.32 32.31 32.31 0 0 1 24.76-11.63 31.88 31.88 0 0 1 18.11 5.76 37.53 37.53 0 0 1 12.68 15.1 6.54 6.54 0 0 1-3.17 8.45 6.34 6.34 0 0 1-8.45-3 25.55 25.55 0 0 0-8.3-10 19.06 19.06 0 0 0-11-3.47 20.33 20.33 0 0 0-15.25 7.39 27.83 27.83 0 0 0-6.81 18.72zM631.79 29.84l.3.3.3.3c1.29 4.87 2.32 9.65 3.14 14.34.54 3.13 1 6.22 1.34 9.27s.61 6.06.78 9c.09 1.48.15 3 .2 4.43q.2 6.57-.13 12.86c-.15 2.8-.37 5.55-.65 8.27-.14 1.35-.3 2.7-.48 4-4.57 34.7-20.05 62.06-33.18 79.81a231.55 231.55 0 0 0-30-62c-1.21-1.89-2.49-3.74-3.81-5.55s-2.68-3.59-4-5.32q1.17-2 2.39-4C580 75.88 595 56.4 611.7 42.32a109.94 109.94 0 0 1 18-12.48zm-37.29 5.28a218.22 218.22 0 0 0-28.07 32.46c-4.38 6-8.46 12.23-12.38 18.57a218.62 218.62 0 0 0-22.95-21.44c19.78-12.71 41.06-23.55 63.4-29.59zm-189 5c56.76 1.5 113.21 29.13 150.2 82.71 48 69.29 38.64 154 38.64 154a24.3 24.3 0 0 1-1.51 6.18 432 432 0 0 1-67.77 20.38c-13 2.72-27.63 5.28-43.78 7.1a58.69 58.69 0 0 0 .15-18.57 37.57 37.57 0 0 0-4.38-12.38c43-7.09 75.18-20.68 77-40.9 2-22.5-16.76-65.22-44.68-90-24.15-21.29-63.7-32.46-103.86-33.36zm-5.43 220.83h.15c28.23-.3 62.64 12.69 66 33.37 3.32 19.77-7.7 33.2-24.61 41.05-25.06 9.36-33.81-2.86-37.74-10.56-1.81-3.78-2.71-5.74-3.62-5.74h-.3c-.61.3-1.51 2.12-3.63 5.59-3.92 6.94-12.22 17.51-29.58 13.88-21.29-6.94-36.68-21.28-32.91-44.22 3.47-20.68 37.89-33.67 66.12-33.37zM395 40.11v75.17c-40.16.75-79.7 11.92-103.86 33.36-28.07 24.75-46.64 67.47-44.68 90 1.81 20.07 34.12 33.81 77 40.9a37.57 37.57 0 0 0-4.46 12.35 58.69 58.69 0 0 0 .15 18.57c-16.3-1.82-30.8-4.38-43.93-7.1a427.32 427.32 0 0 1-67.32-20.22 24.63 24.63 0 0 1-1.81-6.34s-9.06-82.73 37-151.56c36.83-55.1 94.04-83.47 151.91-85.13zm-125.79 24.6a217.63 217.63 0 0 0-22.95 21.44c-2.83-4.76-5.91-9.35-9.13-13.89q-1.6-2.27-3.25-4.53c-1-1.42-2-2.83-3.06-4.25a196.93 196.93 0 0 0-25-28.36c22.33 6.04 43.46 16.88 63.39 29.59zm-106.89 2.16c.05-1.45.12-2.9.21-4.37.18-2.94.44-5.91.8-8.92s.79-6.06 1.33-9.15c.27-1.54.57-3.09.89-4.66q.94-4.68 2.22-9.48a1.28 1.28 0 0 0 .75-.45h2.11a102.48 102.48 0 0 1 13.31 8.74q2.17 1.65 4.3 3.44 1.68 1.41 3.35 2.89c16.62 14.81 31.37 34.77 43.2 54.67-3.32 4.38-6.64 8.91-9.81 13.43a227.89 227.89 0 0 0-28.23 59.33 187.34 187.34 0 0 1-17-27.63c-.49-1-1-2-1.45-3a165.1 165.1 0 0 1-13.56-41.64c-.47-2.59-.89-5.23-1.23-7.92s-.63-5.4-.84-8.17c-.11-1.39-.19-2.78-.26-4.19-.2-4.2-.24-8.52-.09-12.92zm182.34 494a67.63 67.63 0 0 0 6.4-3.43c1.22-.74 2.41-1.52 3.58-2.32a61.57 61.57 0 0 0 11.46-10.27c.83-1 1.63-2 2.36-3l.12-.15a45.65 45.65 0 0 0 3-4.76 36.09 36.09 0 0 0 3.18-7.82A27.11 27.11 0 0 0 369 503.4a105.8 105.8 0 0 1 31.09-4.59 104.27 104.27 0 0 1 30.91 4.64 27.11 27.11 0 0 0-5.74 25.69 35.64 35.64 0 0 0 3.19 7.82 44 44 0 0 0 3 4.76v.06c.73 1 1.52 2 2.34 3a60.45 60.45 0 0 0 11.63 10.42c1.17.82 2.37 1.59 3.6 2.34 2 1.22 4.14 2.35 6.3 3.37a59.69 59.69 0 0 0 25 6 45.54 45.54 0 0 0 5.37-.32 74 74 0 0 0 11.59-2.37 75.32 75.32 0 0 0 16.53-7c1.17-.68 2.31-1.38 3.42-2.11a61.15 61.15 0 0 0 12.26-10.42 40.35 40.35 0 0 0 9.06-16 27.82 27.82 0 0 0 .22-14.28c-.19-.76-.41-1.51-.67-2.25a29.7 29.7 0 0 0-7.17-11.21 38.92 38.92 0 0 0-3.76-3.28l-.56-.4c-1-.69-18.67-12.16-44.43-12.16a88.11 88.11 0 0 0-28.27 4.69 125.43 125.43 0 0 0-107.52.09 88.36 88.36 0 0 0-28.54-4.78c-25.75 0-43.39 11.47-44.42 12.16l-.56.4a38.7 38.7 0 0 0-3.75 3.27 29.89 29.89 0 0 0-7.18 11.22c-.26.74-.48 1.49-.67 2.25a27.93 27.93 0 0 0 .22 14.28 40.31 40.31 0 0 0 9.06 16A61.55 61.55 0 0 0 282.79 555c1.12.73 2.26 1.43 3.44 2.11a75.62 75.62 0 0 0 16.51 7 74 74 0 0 0 11.59 2.37 45.54 45.54 0 0 0 5.37.32 59.69 59.69 0 0 0 24.96-5.93zm110.58-48.36a68.72 68.72 0 0 1 23.51-5.6c1.2-.06 2.39-.1 3.55-.1a65.89 65.89 0 0 1 27 5.79c1.6.72 2.86 1.38 3.75 1.87l1.21.71c2.74 2.19 3.52 4.07 3.53 5.76a7.5 7.5 0 0 1-.29 2 14.55 14.55 0 0 1-1.62 3.63 24.22 24.22 0 0 1-2.27 3.11 41.29 41.29 0 0 1-10.86 8.62 35.49 35.49 0 0 0-1.52-10.3 5.28 5.28 0 0 0-10 3.43 27 27 0 0 1 .69 11.5 52.44 52.44 0 0 1-6.46 1.55c-.81.14-1.61.28-2.43.38a25.49 25.49 0 0 1-6.2-.12 37.76 37.76 0 0 0-1.07-16.74 5.28 5.28 0 0 0-10 3.43 26.78 26.78 0 0 1 .81 10.51 49 49 0 0 1-7.93-4.07c-1.08-.69-2.11-1.41-3.09-2.17-4.58-3.51-8.09-7.75-9.3-12.24-.47-1.76-1.51-5.7 6.7-9.89.71-.34 1.45-.7 2.29-1.06zm-133.65-5.58a68.58 68.58 0 0 1 23.17 5.58c.8.34 1.52.69 2.2 1 8.3 4.21 7.26 8.17 6.78 9.94-1.23 4.56-4.82 8.85-9.49 12.39-.93.7-1.9 1.38-2.9 2a48.9 48.9 0 0 1-7.1 3.72 27.18 27.18 0 0 1 .66-11.67 5.28 5.28 0 0 0-10-3.43 38.14 38.14 0 0 0-.85 18.12 25.76 25.76 0 0 1-7.11.25c-.47-.06-.93-.15-1.39-.22a50.35 50.35 0 0 1-6.48-1.41 27.53 27.53 0 0 1 .35-13.31 5.28 5.28 0 0 0-10-3.43 36.48 36.48 0 0 0-1.51 12.17 41.94 41.94 0 0 1-11.5-8.95c-.35-.4-.65-.8-.95-1.2l-.21-.35.09.21c-.44-.6-.85-1.19-1.21-1.78a14.74 14.74 0 0 1-1.67-3.69 7.64 7.64 0 0 1-.29-2c0-1.64.75-3.46 3.3-5.56l.23-.2a47 47 0 0 1 5-2.59 66.15 66.15 0 0 1 30.88-5.59z"/></svg>
