<?xml version="1.0" encoding="utf-8"?>
<!-- Generator: Adobe Illustrator 21.1.0, SVG Export Plug-In . SVG Version: 6.00 Build 0)  -->
<svg version="1.1" id="Layer_1" xmlns="http://www.w3.org/2000/svg" xmlns:xlink="http://www.w3.org/1999/xlink" x="0px" y="0px"
	 viewBox="0 0 2000 1000" enable-background="new 0 0 2000 1000" xml:space="preserve">
<g>
	<polygon fill="#FFFFFF" points="528.365,505.22 458.026,625.272 387.002,625.272 316.372,625.272 245.639,503.797 292.615,416.486 
		221.875,416.486 174.602,504.369 280.901,687.907 387.002,687.907 493.498,687.907 599.401,505.22 	"/>
	<polygon fill="#FFFFFF" points="493.498,312.093 277.854,312.093 244.542,374.728 353.074,374.728 353.074,583.514 415.71,583.514 
		415.71,374.728 458.026,374.728 505.856,463.462 576.503,463.462 	"/>
</g>
<g>
	<g>
		<g>
			<path fill="#FFFFFF" d="M693.324,506.3v-0.301c0-28.942,21.745-54.285,53.686-54.285c31.942,0,53.386,25.043,53.386,53.986v0.3
				c0,28.943-21.744,54.286-53.686,54.286C714.768,560.286,693.324,535.242,693.324,506.3z M788.099,506.3v-0.301
				c0-23.843-17.395-43.338-41.389-43.338s-41.09,19.195-41.09,43.038v0.3c0,23.845,17.395,43.339,41.389,43.339
				S788.099,530.144,788.099,506.3z"/>
			<path fill="#FFFFFF" d="M825.444,453.514h39.29c23.694,0,39.29,12.597,39.29,33.291v0.301c0,22.644-18.895,34.341-41.239,34.341
				h-25.493v37.04h-11.847V453.514z M863.235,510.649c17.395,0,28.793-9.298,28.793-23.094v-0.301
				c0-14.995-11.247-22.793-28.193-22.793h-26.543v46.188H863.235z"/>
			<path fill="#FFFFFF" d="M925.623,453.514h75.88v10.797H937.47v35.841h57.285v10.797H937.47v36.741h64.783v10.797h-76.63V453.514z
				"/>
			<path fill="#FFFFFF" d="M1026.101,453.514h11.097l66.133,84.128v-84.128h11.547v104.972h-9.448l-67.782-86.078v86.078h-11.547
				V453.514z"/>
		</g>
	</g>
	<g>
		<g>
			<path fill="#FFFFFF" d="M1184.146,464.461h-35.241v-10.947h82.479v10.947h-35.241v94.025h-11.997V464.461z"/>
			<path fill="#FFFFFF" d="M1253.581,453.514h45.139c12.896,0,23.244,3.899,29.843,10.497c5.098,5.098,8.097,12.446,8.097,20.694
				v0.3c0,17.396-11.996,27.593-28.493,30.592l32.241,42.889h-14.545l-30.442-40.789h-29.994v40.789h-11.847V453.514z
				 M1297.67,507.05c15.746,0,26.994-8.099,26.994-21.595v-0.3c0-12.896-9.898-20.694-26.844-20.694h-32.392v42.589H1297.67z"/>
			<path fill="#FFFFFF" d="M1400.849,452.763h11.098l47.837,105.723h-12.747l-12.297-27.742h-57.135l-12.446,27.742h-12.147
				L1400.849,452.763z M1430.091,519.946l-23.843-53.385l-23.994,53.385H1430.091z"/>
			<path fill="#FFFFFF" d="M1469.687,506.3v-0.301c0-29.692,22.194-54.285,53.086-54.285c19.045,0,30.442,6.748,40.939,16.646
				l-8.097,8.698c-8.848-8.398-18.745-14.396-32.992-14.396c-23.243,0-40.64,18.894-40.64,43.038v0.3
				c0,24.294,17.546,43.339,40.64,43.339c14.396,0,23.844-5.548,33.892-15.146l7.798,7.648
				c-10.947,11.098-22.945,18.445-41.989,18.445C1492.031,560.286,1469.687,536.442,1469.687,506.3z"/>
			<path fill="#FFFFFF" d="M1586.06,453.514h11.846v104.972h-11.846V453.514z"/>
			<path fill="#FFFFFF" d="M1628.649,453.514h11.098l66.132,84.128v-84.128h11.546v104.972h-9.447l-67.783-86.078v86.078h-11.547
				V453.514z"/>
			<path fill="#FFFFFF" d="M1742.475,506.3v-0.301c0-28.793,21.144-54.285,52.636-54.285c17.695,0,28.642,5.098,39.14,13.946
				l-7.647,8.997c-8.099-7.048-17.096-11.996-31.942-11.996c-23.244,0-39.89,19.645-39.89,43.038v0.3
				c0,25.044,16.047,43.639,41.539,43.639c11.997,0,23.094-4.648,30.293-10.497v-26.093h-31.942v-10.647H1838v41.839
				c-9.748,8.698-24.444,16.046-42.14,16.046C1762.869,560.286,1742.475,536.292,1742.475,506.3z"/>
		</g>
	</g>
</g>
</svg>
