<?xml version="1.0" encoding="utf-8"?>
<!-- Generator: Adobe Illustrator 21.1.0, SVG Export Plug-In . SVG Version: 6.00 Build 0)  -->
<svg version="1.1"
	 id="svg2" inkscape:export-filename="/home/thockin/src/kubernetes/kubernetes.png" inkscape:export-xdpi="250.55" inkscape:export-ydpi="250.55" inkscape:version="0.48.4 r9939" sodipodi:docname="name_white.svg" xmlns:cc="http://creativecommons.org/ns#" xmlns:dc="http://purl.org/dc/elements/1.1/" xmlns:inkscape="http://www.inkscape.org/namespaces/inkscape" xmlns:rdf="http://www.w3.org/1999/02/22-rdf-syntax-ns#" xmlns:sodipodi="http://sodipodi.sourceforge.net/DTD/sodipodi-0.dtd" xmlns:svg="http://www.w3.org/2000/svg"
	 xmlns="http://www.w3.org/2000/svg" xmlns:xlink="http://www.w3.org/1999/xlink" x="0px" y="0px" viewBox="0 0 420 95"
	 style="enable-background:new 0 0 420 95;" xml:space="preserve">
<style type="text/css">
	.st0{fill:#FFFFFF;}
	.st1{fill:none;}
	.st2{fill:#326CE5;}
</style>
<g id="layer1" transform="translate(-6.1051208,-305.36552)" inkscape:groupmode="layer" inkscape:label="Layer 1">
	<g id="text4373">
		<path id="path2985" d="M139,352.9c0.8-0.9,1.6-1.8,2.5-2.7c0.9-1,1.7-1.9,2.5-2.8c0.8-1,1.6-1.9,2.3-2.7c0.7-0.8,1.4-1.6,1.9-2.2
			h9.7c-1.9,2.2-3.8,4.4-5.7,6.4c-1.8,2-3.8,4.1-6,6.3c1.1,1,2.2,2.2,3.4,3.6c1.2,1.4,2.3,2.8,3.4,4.2s2.1,2.9,3,4.4
			c0.9,1.5,1.7,2.8,2.3,4h-9.4c-0.6-1-1.3-2-2-3.1c-0.7-1.2-1.5-2.3-2.4-3.5c-0.8-1.2-1.7-2.3-2.7-3.4c-0.9-1.1-1.8-2-2.7-2.7v12.6
			h-8.2v-41.3l8.2-1.3V352.9"/>
		<path id="path2987" d="M186.8,370.4c-1.4,0.4-3.2,0.8-5.4,1.1c-2.2,0.4-4.5,0.5-6.9,0.5c-2.5,0-4.5-0.3-6.2-1
			c-1.6-0.7-2.9-1.6-3.8-2.7c-1-1.2-1.6-2.6-2-4.3s-0.6-3.5-0.6-5.4v-16.1h8.2v15.1c0,2.6,0.3,4.5,1,5.7s2,1.8,3.9,1.8
			c0.6,0,1.2,0,1.9-0.1c0.7-0.1,1.2-0.1,1.8-0.2v-22.3h8.2L186.8,370.4"/>
		<path id="path2989" d="M213.1,356.7c0-5.3-1.9-7.9-5.8-7.9c-0.8,0-1.7,0.1-2.5,0.3c-0.8,0.2-1.5,0.5-2,0.8v14.9
			c0.4,0.1,0.9,0.1,1.5,0.2c0.6,0,1.3,0.1,2,0.1c2.2,0,3.9-0.8,5.1-2.3C212.5,361.3,213.1,359.2,213.1,356.7 M221.4,356.9
			c0,2.3-0.3,4.4-1,6.3c-0.7,1.9-1.6,3.5-2.9,4.8c-1.3,1.3-2.9,2.3-4.7,3.1c-1.9,0.7-4,1-6.4,1c-1,0-2-0.1-3.1-0.2
			c-1.1-0.1-2.1-0.2-3.2-0.3c-1-0.1-2-0.3-3-0.5c-1-0.2-1.8-0.4-2.5-0.7v-40.4l8.2-1.3v14.4c0.9-0.4,1.9-0.7,2.9-0.9
			c1-0.2,2.1-0.3,3.2-0.3c2.1,0,3.9,0.4,5.4,1.1c1.6,0.7,2.9,1.7,4,3c1.1,1.3,1.9,2.9,2.4,4.8C221.1,352.6,221.4,354.7,221.4,356.9"
			/>
		<path id="path2991" d="M226.3,357.2c0-2.6,0.4-4.8,1.2-6.7c0.8-1.9,1.9-3.6,3.1-4.8c1.3-1.3,2.7-2.3,4.4-2.9c1.7-0.7,3.4-1,5.2-1
			c4.1,0,7.3,1.3,9.7,3.8c2.4,2.5,3.6,6.2,3.6,11c0,0.5,0,1-0.1,1.6c0,0.5-0.1,1-0.1,1.5h-18.6c0.2,1.7,1,3,2.4,4
			c1.4,1,3.3,1.5,5.6,1.5c1.5,0,3-0.1,4.4-0.4c1.5-0.3,2.7-0.6,3.6-1l1.1,6.7c-0.4,0.2-1,0.4-1.8,0.7s-1.6,0.4-2.5,0.5
			c-0.9,0.2-1.8,0.3-2.9,0.4c-1,0.1-2.1,0.2-3.1,0.2c-2.6,0-4.9-0.4-6.8-1.2c-1.9-0.8-3.5-1.8-4.8-3.1c-1.2-1.4-2.2-3-2.8-4.8
			C226.6,361.3,226.3,359.3,226.3,357.2 M245.6,354c0-0.7-0.2-1.4-0.4-2c-0.2-0.7-0.5-1.2-0.9-1.8c-0.4-0.5-0.9-0.9-1.6-1.3
			c-0.6-0.3-1.4-0.5-2.4-0.5c-0.9,0-1.7,0.2-2.4,0.5c-0.7,0.3-1.2,0.7-1.6,1.2s-0.8,1.1-1,1.8c-0.2,0.7-0.4,1.3-0.5,2H245.6"/>
		<path id="path2993" d="M277.2,349.7c-0.7-0.2-1.6-0.4-2.6-0.5c-1-0.2-2.1-0.3-3.2-0.3c-0.5,0-1.1,0.1-1.9,0.2
			c-0.7,0.1-1.2,0.2-1.6,0.3v22.1h-8.2V344c1.5-0.5,3.2-1,5.2-1.4c2-0.5,4.3-0.7,6.7-0.7c0.4,0,1,0,1.6,0.1c0.6,0,1.2,0.1,1.9,0.2
			c0.6,0.1,1.2,0.2,1.9,0.3c0.6,0.1,1.2,0.3,1.6,0.4L277.2,349.7"/>
		<path id="path2995" d="M283,343.5c1.4-0.4,3.2-0.8,5.4-1.1c2.2-0.4,4.5-0.5,6.9-0.5c2.5,0,4.5,0.3,6.1,1c1.6,0.6,3,1.5,3.9,2.7
			s1.6,2.6,2,4.2c0.4,1.6,0.6,3.4,0.6,5.4v16.3h-8.2v-15.3c0-2.6-0.3-4.5-1-5.6c-0.7-1.1-2-1.6-3.9-1.6c-0.6,0-1.2,0-1.9,0.1
			c-0.7,0-1.2,0.1-1.8,0.2v22.3H283L283,343.5"/>
		<path id="path2997" d="M314,357.2c0-2.6,0.4-4.8,1.2-6.7c0.8-1.9,1.9-3.6,3.1-4.8c1.3-1.3,2.7-2.3,4.4-2.9c1.7-0.7,3.4-1,5.2-1
			c4.1,0,7.3,1.3,9.7,3.8c2.4,2.5,3.6,6.2,3.6,11c0,0.5,0,1-0.1,1.6c0,0.5-0.1,1-0.1,1.5h-18.6c0.2,1.7,1,3,2.4,4
			c1.4,1,3.3,1.5,5.6,1.5c1.5,0,3-0.1,4.4-0.4c1.5-0.3,2.7-0.6,3.6-1l1.1,6.7c-0.4,0.2-1,0.4-1.8,0.7s-1.6,0.4-2.5,0.5
			c-0.9,0.2-1.8,0.3-2.9,0.4c-1,0.1-2.1,0.2-3.1,0.2c-2.6,0-4.9-0.4-6.8-1.2c-1.9-0.8-3.5-1.8-4.8-3.1c-1.2-1.4-2.2-3-2.8-4.8
			C314.3,361.3,314,359.3,314,357.2 M333.3,354c0-0.7-0.2-1.4-0.4-2c-0.2-0.7-0.5-1.2-0.9-1.8c-0.4-0.5-0.9-0.9-1.6-1.3
			c-0.6-0.3-1.4-0.5-2.4-0.5c-0.9,0-1.7,0.2-2.4,0.5c-0.7,0.3-1.2,0.7-1.6,1.2s-0.8,1.1-1,1.8c-0.2,0.7-0.4,1.3-0.5,2H333.3"/>
		<path id="path2999" d="M347.3,335.3l8.2-1.3v8.5h9.8v6.8h-9.8v10.2c0,1.7,0.3,3.1,0.9,4.1c0.6,1,1.9,1.5,3.7,1.5
			c0.9,0,1.8-0.1,2.7-0.2c1-0.2,1.8-0.4,2.6-0.7l1.2,6.4c-1,0.4-2.1,0.8-3.3,1c-1.2,0.3-2.7,0.4-4.5,0.4c-2.2,0-4.1-0.3-5.6-0.9
			c-1.5-0.6-2.6-1.5-3.5-2.5c-0.9-1.1-1.5-2.4-1.9-4c-0.3-1.5-0.5-3.2-0.5-5.1L347.3,335.3"/>
		<path id="path3001" d="M369.5,357.2c0-2.6,0.4-4.8,1.2-6.7c0.8-1.9,1.9-3.6,3.1-4.8c1.3-1.3,2.7-2.3,4.4-2.9c1.7-0.7,3.4-1,5.2-1
			c4.1,0,7.3,1.3,9.7,3.8c2.4,2.5,3.6,6.2,3.6,11c0,0.5,0,1-0.1,1.6c0,0.5-0.1,1-0.1,1.5h-18.6c0.2,1.7,1,3,2.4,4
			c1.4,1,3.3,1.5,5.6,1.5c1.5,0,3-0.1,4.4-0.4c1.5-0.3,2.7-0.6,3.6-1l1.1,6.7c-0.4,0.2-1,0.4-1.8,0.7s-1.6,0.4-2.5,0.5
			c-0.9,0.2-1.8,0.3-2.9,0.4c-1,0.1-2.1,0.2-3.1,0.2c-2.6,0-4.9-0.4-6.8-1.2c-1.9-0.8-3.5-1.8-4.8-3.1c-1.2-1.4-2.2-3-2.8-4.8
			C369.7,361.3,369.5,359.3,369.5,357.2 M388.7,354c0-0.7-0.2-1.4-0.4-2c-0.2-0.7-0.5-1.2-0.9-1.8c-0.4-0.5-0.9-0.9-1.6-1.3
			c-0.6-0.3-1.4-0.5-2.4-0.5c-0.9,0-1.7,0.2-2.4,0.5c-0.7,0.3-1.2,0.7-1.6,1.2s-0.8,1.1-1,1.8c-0.2,0.7-0.4,1.3-0.5,2H388.7"/>
		<path id="path3003" d="M411.2,365.5c1.5,0,2.6-0.1,3.2-0.4s0.9-0.9,0.9-1.7c0-0.7-0.4-1.2-1.2-1.7c-0.8-0.5-2-1.1-3.7-1.7
			c-1.3-0.5-2.5-1-3.5-1.5c-1-0.5-1.9-1.1-2.6-1.8c-0.7-0.7-1.3-1.6-1.7-2.6c-0.4-1-0.6-2.2-0.6-3.6c0-2.7,1-4.9,3-6.4
			c2-1.6,4.8-2.4,8.3-2.4c1.8,0,3.4,0.2,5.1,0.5c1.6,0.3,2.9,0.6,3.8,1l-1.4,6.4c-1-0.3-2-0.6-3.1-0.9c-1.1-0.3-2.3-0.4-3.7-0.4
			c-2.6,0-3.8,0.7-3.8,2.1c0,0.3,0.1,0.6,0.2,0.9c0.1,0.3,0.3,0.5,0.7,0.8c0.3,0.2,0.8,0.5,1.3,0.8c0.6,0.3,1.3,0.5,2.2,0.9
			c1.8,0.7,3.3,1.3,4.5,2c1.2,0.6,2.1,1.3,2.7,2.1c0.7,0.7,1.2,1.6,1.4,2.5c0.3,0.9,0.4,2,0.4,3.2c0,2.9-1.1,5-3.2,6.5
			c-2.1,1.5-5.1,2.2-9.1,2.2c-2.6,0-4.7-0.2-6.4-0.7c-1.7-0.4-2.9-0.8-3.5-1.1l1.4-6.7c1.4,0.5,2.8,1,4.3,1.3
			C408.4,365.4,409.8,365.5,411.2,365.5"/>
	</g>
</g>
<g>
	<polygon class="st0" points="49.2,5.3 83.1,21.4 91.4,57.7 68,86.8 30.5,86.8 7.1,57.7 15.4,21.4 	"/>
	<polygon class="st1" points="49.2,5.3 83.1,21.4 91.4,57.7 68,86.8 30.5,86.8 7.1,57.7 15.4,21.4 	"/>
	<path class="st2" d="M48.9,1.4c-0.8,0-1.6,0.2-2.3,0.6l-32,15.3c-1.7,0.8-2.9,2.3-3.3,4.1L3.3,55.8c-0.4,1.6-0.1,3.3,0.8,4.7
		c0.1,0.2,0.2,0.3,0.3,0.5l22.2,27.6c1.1,1.4,3,2.3,4.8,2.3l35.6,0c1.8,0,3.6-0.9,4.8-2.3L94,60.9c1.1-1.4,1.6-3.4,1.2-5.1
		l-7.9-34.4c-0.4-1.8-1.7-3.3-3.3-4.1L51.9,2C51,1.5,49.9,1.3,48.9,1.4z"/>
	<path class="st0" d="M49.2,56.8c0.3,0,0.5,0,0.8,0.2c0.3,0.2,0.6,0.4,0.8,0.7h0l4.9,8.8c-0.6,0.2-1.3,0.4-2,0.5
		c-3.7,0.8-7.5,0.6-10.8-0.6l4.9-8.8h0C48,57.1,48.6,56.8,49.2,56.8z M40.8,52.7c0.8,0,1.4,0.5,1.6,1.3c0.1,0.4,0,0.7-0.1,1l0,0
		l-3.8,9.3c-3.6-2.3-6.4-5.7-8-10l9.9-1.7l0,0C40.6,52.7,40.7,52.7,40.8,52.7z M57.6,52.7c0.1,0,0.3,0,0.4,0l0,0l10,1.7
		c-1.5,4.1-4.3,7.7-8,10l-3.9-9.4l0,0c-0.4-0.8,0-1.8,0.8-2.2C57.1,52.8,57.4,52.7,57.6,52.7z M47.7,44.5h3.1l1.9,2.4l-0.7,3
		l-2.8,1.3l-2.8-1.3l-0.7-3L47.7,44.5z M66.1,37.2c1.1,1.8,2,3.8,2.5,6c0.5,2.2,0.6,4.3,0.4,6.4l-9.7-2.8l0,0
		c-0.9-0.2-1.4-1.1-1.2-2c0.1-0.4,0.3-0.7,0.5-0.9l0,0L66.1,37.2z M32.3,37.2l7.5,6.7l0,0c0.7,0.6,0.8,1.6,0.2,2.3
		c-0.2,0.3-0.5,0.5-0.9,0.6l0,0l-9.7,2.8C29,45.2,30,40.9,32.3,37.2z M51.6,27.9c4.4,0.5,8.4,2.5,11.5,5.5l-8.2,5.8l0,0
		c-0.7,0.5-1.8,0.4-2.3-0.3c-0.2-0.3-0.4-0.6-0.4-1l0,0L51.6,27.9z M46.8,27.9L46.3,38l0,0c0,0.9-0.8,1.6-1.7,1.6
		c-0.4,0-0.7-0.1-1-0.3l0,0l-8.2-5.8c2.5-2.5,5.8-4.3,9.5-5.2C45.5,28.1,46.2,28,46.8,27.9z M49.2,13.1c-1.1,0-1.9,1-1.9,2.1
		c0,0,0,0,0,0.1c0,0.2,0,0.4,0,0.5c0,0.7,0.2,1.2,0.3,1.8c0.2,1.3,0.3,2.4,0.2,3.5c-0.1,0.4-0.4,0.7-0.6,1l0,0.8
		c-1.2,0.1-2.3,0.3-3.5,0.5c-5,1.1-9.3,3.7-12.5,7.2c-0.2-0.1-0.6-0.4-0.7-0.5c-0.3,0-0.7,0.2-1.1-0.1c-0.9-0.6-1.6-1.4-2.6-2.3
		c-0.4-0.5-0.7-0.9-1.3-1.3c-0.1-0.1-0.3-0.2-0.4-0.3c-0.4-0.3-0.9-0.5-1.3-0.5c-0.6,0-1.2,0.2-1.5,0.7c-0.7,0.8-0.4,2.1,0.5,2.8
		c0,0,0,0,0,0c0.1,0.1,0.3,0.2,0.4,0.3c0.5,0.4,1,0.6,1.6,0.9c1.1,0.7,2.1,1.3,2.9,2c0.3,0.3,0.3,0.9,0.4,1.1l0.6,0.5
		c-3.3,5-4.8,11.1-3.9,17.3l-0.8,0.2c-0.2,0.3-0.5,0.7-0.8,0.8c-1,0.3-2.1,0.4-3.4,0.6c-0.6,0.1-1.2,0-1.8,0.1
		c-0.1,0-0.4,0.1-0.5,0.1c0,0,0,0,0,0c0,0,0,0,0,0c-1.1,0.3-1.9,1.3-1.6,2.3c0.2,1,1.3,1.6,2.5,1.4c0,0,0,0,0,0c0,0,0,0,0,0
		c0.2,0,0.4-0.1,0.5-0.1c0.7-0.2,1.1-0.4,1.7-0.7c1.3-0.5,2.3-0.8,3.3-1c0.4,0,0.9,0.3,1.1,0.4l0.8-0.1c1.9,6,6,10.8,11.1,13.8
		l-0.3,0.8c0.1,0.3,0.3,0.8,0.2,1.1c-0.4,1-1,2-1.7,3.1c-0.4,0.5-0.7,0.9-1,1.5c-0.1,0.1-0.2,0.4-0.2,0.5c-0.5,1.1-0.1,2.3,0.8,2.7
		c1,0.5,2.1,0,2.6-1.1c0,0,0,0,0,0s0,0,0,0c0.1-0.2,0.2-0.3,0.2-0.5c0.3-0.6,0.4-1.2,0.6-1.8c0.5-1.3,0.8-2.6,1.5-3.4
		c0.2-0.2,0.5-0.3,0.8-0.4l0.4-0.8c4.4,1.7,9.4,2.2,14.4,1c1.1-0.3,2.2-0.6,3.3-1c0.1,0.2,0.3,0.6,0.4,0.7c0.3,0.1,0.7,0.2,1,0.6
		c0.5,0.9,0.9,1.9,1.3,3.2c0.2,0.6,0.3,1.1,0.6,1.8c0.1,0.1,0.2,0.3,0.2,0.5c0.5,1.1,1.7,1.5,2.7,1.1c0.9-0.5,1.3-1.7,0.8-2.7
		c-0.1-0.2-0.2-0.4-0.2-0.5c-0.3-0.6-0.7-1-1-1.5c-0.7-1.1-1.3-2.1-1.7-3c-0.2-0.5,0-0.8,0.1-1.1c-0.1-0.1-0.2-0.6-0.3-0.8
		C67.2,66,71.1,61,73,55.2c0.2,0,0.7,0.1,0.8,0.1c0.3-0.2,0.6-0.4,1.1-0.4c1,0.1,2.1,0.5,3.3,1c0.6,0.2,1.1,0.5,1.7,0.7
		c0.1,0,0.3,0.1,0.5,0.1c0,0,0,0,0,0c0,0,0,0,0,0c1.1,0.2,2.2-0.4,2.5-1.4c0.2-1-0.5-2.1-1.6-2.3c-0.2,0-0.4-0.1-0.6-0.1
		c-0.7-0.1-1.2-0.1-1.8-0.1c-1.3-0.1-2.5-0.3-3.4-0.6c-0.4-0.2-0.7-0.6-0.8-0.8l-0.8-0.2c0.4-2.9,0.3-5.9-0.4-9
		c-0.7-3.1-1.9-5.8-3.6-8.3c0.2-0.2,0.6-0.5,0.7-0.6c0-0.3,0-0.7,0.4-1.1c0.8-0.7,1.7-1.3,2.9-2c0.5-0.3,1-0.5,1.6-0.9
		c0.1-0.1,0.3-0.2,0.4-0.3c0.9-0.7,1.1-2,0.5-2.8c-0.7-0.8-1.9-0.9-2.9-0.2c-0.1,0.1-0.3,0.2-0.4,0.3c-0.5,0.4-0.8,0.9-1.3,1.3
		c-0.9,1-1.7,1.8-2.6,2.3C68.8,30.1,68.2,30,68,30l-0.7,0.5c-4.2-4.4-9.8-7.1-15.9-7.7c0-0.3,0-0.7,0-0.9c-0.2-0.2-0.6-0.4-0.6-1
		c-0.1-1,0.1-2.1,0.2-3.5c0.1-0.6,0.2-1.1,0.3-1.8c0-0.2,0-0.4,0-0.5C51.2,14,50.3,13.1,49.2,13.1z"/>
	<path class="st1" d="M49.2,56.8c0.3,0,0.5,0,0.8,0.2c0.3,0.2,0.6,0.4,0.8,0.7h0l4.9,8.8c-0.6,0.2-1.3,0.4-2,0.5
		c-3.7,0.8-7.5,0.6-10.8-0.6l4.9-8.8h0C48,57.1,48.6,56.8,49.2,56.8z M40.8,52.7c0.8,0,1.4,0.5,1.6,1.3c0.1,0.4,0,0.7-0.1,1l0,0
		l-3.8,9.3c-3.6-2.3-6.4-5.7-8-10l9.9-1.7l0,0C40.6,52.7,40.7,52.7,40.8,52.7z M57.6,52.7c0.1,0,0.3,0,0.4,0l0,0l10,1.7
		c-1.5,4.1-4.3,7.7-8,10l-3.9-9.4l0,0c-0.4-0.8,0-1.8,0.8-2.2C57.1,52.8,57.4,52.7,57.6,52.7z M47.7,44.5h3.1l1.9,2.4l-0.7,3
		l-2.8,1.3l-2.8-1.3l-0.7-3L47.7,44.5z M66.1,37.2c1.1,1.8,2,3.8,2.5,6c0.5,2.2,0.6,4.3,0.4,6.4l-9.7-2.8l0,0
		c-0.9-0.2-1.4-1.1-1.2-2c0.1-0.4,0.3-0.7,0.5-0.9l0,0L66.1,37.2z M32.3,37.2l7.5,6.7l0,0c0.7,0.6,0.8,1.6,0.2,2.3
		c-0.2,0.3-0.5,0.5-0.9,0.6l0,0l-9.7,2.8C29,45.2,30,40.9,32.3,37.2z M51.6,27.9c4.4,0.5,8.4,2.5,11.5,5.5l-8.2,5.8l0,0
		c-0.7,0.5-1.8,0.4-2.3-0.3c-0.2-0.3-0.4-0.6-0.4-1l0,0L51.6,27.9z M46.8,27.9L46.3,38l0,0c0,0.9-0.8,1.6-1.7,1.6
		c-0.4,0-0.7-0.1-1-0.3l0,0l-8.2-5.8c2.5-2.5,5.8-4.3,9.5-5.2C45.5,28.1,46.2,28,46.8,27.9z M49.2,13.1c-1.1,0-1.9,1-1.9,2.1
		c0,0,0,0,0,0.1c0,0.2,0,0.4,0,0.5c0,0.7,0.2,1.2,0.3,1.8c0.2,1.3,0.3,2.4,0.2,3.5c-0.1,0.4-0.4,0.7-0.6,1l0,0.8
		c-1.2,0.1-2.3,0.3-3.5,0.5c-5,1.1-9.3,3.7-12.5,7.2c-0.2-0.1-0.6-0.4-0.7-0.5c-0.3,0-0.7,0.2-1.1-0.1c-0.9-0.6-1.6-1.4-2.6-2.3
		c-0.4-0.5-0.7-0.9-1.3-1.3c-0.1-0.1-0.3-0.2-0.4-0.3c-0.4-0.3-0.9-0.5-1.3-0.5c-0.6,0-1.2,0.2-1.5,0.7c-0.7,0.8-0.4,2.1,0.5,2.8
		c0,0,0,0,0,0c0.1,0.1,0.3,0.2,0.4,0.3c0.5,0.4,1,0.6,1.6,0.9c1.1,0.7,2.1,1.3,2.9,2c0.3,0.3,0.3,0.9,0.4,1.1l0.6,0.5
		c-3.3,5-4.8,11.1-3.9,17.3l-0.8,0.2c-0.2,0.3-0.5,0.7-0.8,0.8c-1,0.3-2.1,0.4-3.4,0.6c-0.6,0.1-1.2,0-1.8,0.1
		c-0.1,0-0.4,0.1-0.5,0.1c0,0,0,0,0,0c0,0,0,0,0,0c-1.1,0.3-1.9,1.3-1.6,2.3c0.2,1,1.3,1.6,2.5,1.4c0,0,0,0,0,0c0,0,0,0,0,0
		c0.2,0,0.4-0.1,0.5-0.1c0.7-0.2,1.1-0.4,1.7-0.7c1.3-0.5,2.3-0.8,3.3-1c0.4,0,0.9,0.3,1.1,0.4l0.8-0.1c1.9,6,6,10.8,11.1,13.8
		l-0.3,0.8c0.1,0.3,0.3,0.8,0.2,1.1c-0.4,1-1,2-1.7,3.1c-0.4,0.5-0.7,0.9-1,1.5c-0.1,0.1-0.2,0.4-0.2,0.5c-0.5,1.1-0.1,2.3,0.8,2.7
		c1,0.5,2.1,0,2.6-1.1c0,0,0,0,0,0s0,0,0,0c0.1-0.2,0.2-0.3,0.2-0.5c0.3-0.6,0.4-1.2,0.6-1.8c0.5-1.3,0.8-2.6,1.5-3.4
		c0.2-0.2,0.5-0.3,0.8-0.4l0.4-0.8c4.4,1.7,9.4,2.2,14.4,1c1.1-0.3,2.2-0.6,3.3-1c0.1,0.2,0.3,0.6,0.4,0.7c0.3,0.1,0.7,0.2,1,0.6
		c0.5,0.9,0.9,1.9,1.3,3.2c0.2,0.6,0.3,1.1,0.6,1.8c0.1,0.1,0.2,0.3,0.2,0.5c0.5,1.1,1.7,1.5,2.7,1.1c0.9-0.5,1.3-1.7,0.8-2.7
		c-0.1-0.2-0.2-0.4-0.2-0.5c-0.3-0.6-0.7-1-1-1.5c-0.7-1.1-1.3-2.1-1.7-3c-0.2-0.5,0-0.8,0.1-1.1c-0.1-0.1-0.2-0.6-0.3-0.8
		C67.2,66,71.1,61,73,55.2c0.2,0,0.7,0.1,0.8,0.1c0.3-0.2,0.6-0.4,1.1-0.4c1,0.1,2.1,0.5,3.3,1c0.6,0.2,1.1,0.5,1.7,0.7
		c0.1,0,0.3,0.1,0.5,0.1c0,0,0,0,0,0c0,0,0,0,0,0c1.1,0.2,2.2-0.4,2.5-1.4c0.2-1-0.5-2.1-1.6-2.3c-0.2,0-0.4-0.1-0.6-0.1
		c-0.7-0.1-1.2-0.1-1.8-0.1c-1.3-0.1-2.5-0.3-3.4-0.6c-0.4-0.2-0.7-0.6-0.8-0.8l-0.8-0.2c0.4-2.9,0.3-5.9-0.4-9
		c-0.7-3.1-1.9-5.8-3.6-8.3c0.2-0.2,0.6-0.5,0.7-0.6c0-0.3,0-0.7,0.4-1.1c0.8-0.7,1.7-1.3,2.9-2c0.5-0.3,1-0.5,1.6-0.9
		c0.1-0.1,0.3-0.2,0.4-0.3c0.9-0.7,1.1-2,0.5-2.8c-0.7-0.8-1.9-0.9-2.9-0.2c-0.1,0.1-0.3,0.2-0.4,0.3c-0.5,0.4-0.8,0.9-1.3,1.3
		c-0.9,1-1.7,1.8-2.6,2.3C68.8,30.1,68.2,30,68,30l-0.7,0.5c-4.2-4.4-9.8-7.1-15.9-7.7c0-0.3,0-0.7,0-0.9c-0.2-0.2-0.6-0.4-0.6-1
		c-0.1-1,0.1-2.1,0.2-3.5c0.1-0.6,0.2-1.1,0.3-1.8c0-0.2,0-0.4,0-0.5C51.2,14,50.3,13.1,49.2,13.1z"/>
</g>
</svg>
