<?xml version="1.0" encoding="utf-8"?>
<!-- Generator: Adobe Illustrator 21.1.0, SVG Export Plug-In . SVG Version: 6.00 Build 0)  -->
<svg version="1.1"
	 id="svg2" inkscape:export-filename="/home/thockin/src/kubernetes/kubernetes.png" inkscape:export-xdpi="250.55" inkscape:export-ydpi="250.55" inkscape:version="0.48.4 r9939" sodipodi:docname="name_white.svg" xmlns:cc="http://creativecommons.org/ns#" xmlns:dc="http://purl.org/dc/elements/1.1/" xmlns:inkscape="http://www.inkscape.org/namespaces/inkscape" xmlns:rdf="http://www.w3.org/1999/02/22-rdf-syntax-ns#" xmlns:sodipodi="http://sodipodi.sourceforge.net/DTD/sodipodi-0.dtd" xmlns:svg="http://www.w3.org/2000/svg"
	 xmlns="http://www.w3.org/2000/svg" xmlns:xlink="http://www.w3.org/1999/xlink" x="0px" y="0px"
	 viewBox="-138 -12 445.817 126.65" enable-background="new -138 -12 445.817 126.65" xml:space="preserve">
<sodipodi:namedview  bordercolor="#666666" borderopacity="1.0" fit-margin-bottom="10" fit-margin-left="10" fit-margin-right="10" fit-margin-top="10" id="base" inkscape:current-layer="text4373" inkscape:cx="306.01712" inkscape:cy="-127.6824" inkscape:document-units="px" inkscape:pageopacity="0.0" inkscape:pageshadow="2" inkscape:snap-global="false" inkscape:window-height="822" inkscape:window-maximized="0" inkscape:window-width="1519" inkscape:window-x="73" inkscape:window-y="25" inkscape:zoom="0.75130096" pagecolor="#ffffff" showgrid="false">
	</sodipodi:namedview>
<g id="layer1" transform="translate(-6.1051208,-305.36552)" inkscape:groupmode="layer" inkscape:label="Layer 1">
	<g id="text4373">
		<path id="path2985" d="M13.046,354.923c0.806-0.88,1.631-1.796,2.474-2.749c0.88-0.953,1.722-1.887,2.529-2.804
			c0.806-0.953,1.558-1.851,2.254-2.694c0.733-0.843,1.356-1.576,1.869-2.199h9.73c-1.942,2.236-3.848,4.38-5.717,6.432
			c-1.832,2.016-3.848,4.105-6.047,6.267c1.099,0.99,2.236,2.181,3.408,3.573c1.173,1.356,2.309,2.767,3.408,4.233
			c1.099,1.466,2.107,2.932,3.024,4.398c0.916,1.466,1.686,2.804,2.309,4.013h-9.4c-0.586-0.953-1.264-1.997-2.034-3.133
			c-0.733-1.173-1.521-2.327-2.364-3.463c-0.843-1.173-1.741-2.291-2.694-3.353c-0.916-1.063-1.832-1.961-2.749-2.694v12.644H4.855
			v-41.34l8.191-1.319L13.046,354.923"/>
		<path id="path2987" d="M60.783,372.405c-1.393,0.403-3.188,0.77-5.387,1.099c-2.199,0.366-4.508,0.55-6.927,0.55
			c-2.455,0-4.508-0.33-6.157-0.99c-1.613-0.66-2.895-1.576-3.848-2.749c-0.953-1.209-1.631-2.639-2.034-4.288
			c-0.403-1.649-0.605-3.463-0.605-5.442v-16.107h8.191v15.118c0,2.639,0.348,4.544,1.044,5.717
			c0.696,1.173,1.997,1.759,3.903,1.759c0.586,0,1.209-0.018,1.869-0.055c0.66-0.073,1.246-0.147,1.759-0.22v-22.319h8.191
			L60.783,372.405"/>
		<path id="path2989" d="M87.051,358.716c0-5.277-1.942-7.916-5.827-7.916c-0.843,0-1.686,0.11-2.529,0.33
			c-0.806,0.22-1.466,0.495-1.979,0.825v14.898c0.403,0.073,0.916,0.147,1.539,0.22c0.623,0.037,1.301,0.055,2.034,0.055
			c2.236,0,3.921-0.77,5.058-2.309C86.483,363.279,87.051,361.245,87.051,358.716 M95.407,358.936c0,2.309-0.348,4.398-1.044,6.267
			c-0.66,1.869-1.631,3.463-2.914,4.783c-1.283,1.319-2.859,2.346-4.728,3.078c-1.869,0.696-3.995,1.044-6.377,1.044
			c-0.99,0-2.034-0.055-3.133-0.165c-1.063-0.073-2.126-0.183-3.188-0.33c-1.026-0.147-2.016-0.312-2.969-0.495
			c-0.953-0.22-1.796-0.44-2.529-0.66v-40.405l8.191-1.319v14.403c0.916-0.403,1.869-0.715,2.859-0.935
			c0.99-0.22,2.052-0.33,3.188-0.33c2.052,0,3.866,0.367,5.442,1.099c1.576,0.696,2.895,1.704,3.958,3.024
			c1.063,1.319,1.869,2.914,2.419,4.783C95.132,354.612,95.407,356.664,95.407,358.936"/>
		<path id="path2991" d="M100.328,359.156c0-2.565,0.385-4.801,1.154-6.707c0.806-1.942,1.851-3.555,3.133-4.838
			c1.283-1.283,2.749-2.254,4.398-2.914c1.686-0.66,3.408-0.99,5.167-0.99c4.105,0,7.348,1.264,9.73,3.793
			c2.382,2.492,3.573,6.175,3.573,11.05c0,0.476-0.018,1.008-0.055,1.594c-0.037,0.55-0.073,1.044-0.11,1.484h-18.581
			c0.183,1.686,0.971,3.024,2.364,4.013c1.393,0.99,3.262,1.484,5.607,1.484c1.503,0,2.969-0.128,4.398-0.385
			c1.466-0.293,2.657-0.641,3.573-1.044l1.099,6.652c-0.44,0.22-1.026,0.44-1.759,0.66c-0.733,0.22-1.558,0.403-2.474,0.55
			c-0.88,0.183-1.832,0.33-2.859,0.44c-1.026,0.11-2.052,0.165-3.078,0.165c-2.602,0-4.874-0.385-6.817-1.154
			c-1.906-0.77-3.5-1.814-4.783-3.133c-1.246-1.356-2.181-2.95-2.804-4.783C100.621,363.261,100.328,361.282,100.328,359.156
			 M119.569,356.023c-0.037-0.696-0.165-1.374-0.385-2.034c-0.183-0.66-0.495-1.246-0.935-1.759
			c-0.403-0.513-0.935-0.935-1.594-1.264c-0.623-0.33-1.411-0.495-2.364-0.495c-0.916,0-1.704,0.165-2.364,0.495
			c-0.66,0.293-1.209,0.696-1.649,1.209c-0.44,0.513-0.788,1.118-1.044,1.814c-0.22,0.66-0.385,1.338-0.495,2.034H119.569"/>
		<path id="path2993" d="M151.233,351.735c-0.733-0.183-1.594-0.366-2.584-0.55c-0.99-0.22-2.052-0.33-3.188-0.33
			c-0.513,0-1.136,0.055-1.869,0.165c-0.696,0.073-1.228,0.165-1.594,0.275v22.099h-8.191v-27.377
			c1.466-0.513,3.188-0.99,5.167-1.429c2.016-0.476,4.251-0.715,6.707-0.715c0.44,0,0.971,0.037,1.594,0.11
			c0.623,0.037,1.246,0.11,1.869,0.22c0.623,0.073,1.246,0.183,1.869,0.33c0.623,0.11,1.154,0.257,1.594,0.44L151.233,351.735"/>
		<path id="path2995" d="M156.998,345.468c1.393-0.403,3.188-0.77,5.387-1.099c2.199-0.366,4.508-0.55,6.927-0.55
			c2.455,0,4.489,0.33,6.102,0.99c1.649,0.623,2.95,1.521,3.903,2.694c0.953,1.173,1.631,2.565,2.034,4.178
			c0.403,1.613,0.605,3.408,0.605,5.387v16.327h-8.191v-15.338c0-2.639-0.348-4.508-1.044-5.607
			c-0.696-1.099-1.997-1.649-3.903-1.649c-0.586,0-1.209,0.037-1.869,0.11c-0.66,0.037-1.246,0.092-1.759,0.165v22.319h-8.191
			V345.468"/>
		<path id="path2997" d="M188.049,359.156c0-2.565,0.385-4.801,1.154-6.707c0.806-1.942,1.851-3.555,3.133-4.838
			c1.283-1.283,2.749-2.254,4.398-2.914c1.686-0.66,3.408-0.99,5.167-0.99c4.105,0,7.348,1.264,9.73,3.793
			c2.382,2.492,3.573,6.175,3.573,11.05c0,0.476-0.018,1.008-0.055,1.594c-0.037,0.55-0.073,1.044-0.11,1.484H196.46
			c0.183,1.686,0.971,3.024,2.364,4.013c1.393,0.99,3.262,1.484,5.607,1.484c1.503,0,2.969-0.128,4.398-0.385
			c1.466-0.293,2.657-0.641,3.573-1.044l1.099,6.652c-0.44,0.22-1.026,0.44-1.759,0.66c-0.733,0.22-1.558,0.403-2.474,0.55
			c-0.88,0.183-1.832,0.33-2.859,0.44c-1.026,0.11-2.052,0.165-3.078,0.165c-2.602,0-4.874-0.385-6.817-1.154
			c-1.906-0.77-3.5-1.814-4.783-3.133c-1.246-1.356-2.181-2.95-2.804-4.783C188.342,363.261,188.049,361.282,188.049,359.156
			 M207.29,356.023c-0.037-0.696-0.165-1.374-0.385-2.034c-0.183-0.66-0.495-1.246-0.935-1.759
			c-0.403-0.513-0.935-0.935-1.594-1.264c-0.623-0.33-1.411-0.495-2.364-0.495c-0.916,0-1.704,0.165-2.364,0.495
			c-0.66,0.293-1.209,0.696-1.649,1.209c-0.44,0.513-0.788,1.118-1.044,1.814c-0.22,0.66-0.385,1.338-0.495,2.034H207.29"/>
		<path id="path2999" d="M221.252,337.277l8.191-1.319v8.521h9.84v6.817h-9.84v10.17c0,1.723,0.293,3.097,0.88,4.123
			c0.623,1.026,1.851,1.539,3.683,1.539c0.88,0,1.777-0.073,2.694-0.22c0.953-0.183,1.814-0.421,2.584-0.715l1.154,6.377
			c-0.99,0.403-2.089,0.751-3.298,1.044c-1.209,0.293-2.694,0.44-4.453,0.44c-2.236,0-4.086-0.293-5.552-0.88
			c-1.466-0.623-2.639-1.466-3.518-2.529c-0.88-1.099-1.503-2.419-1.869-3.958c-0.33-1.539-0.495-3.243-0.495-5.113L221.252,337.277
			"/>
		<path id="path3001" d="M243.452,359.156c0-2.565,0.385-4.801,1.154-6.707c0.806-1.942,1.851-3.555,3.133-4.838
			c1.283-1.283,2.749-2.254,4.398-2.914c1.686-0.66,3.408-0.99,5.167-0.99c4.105,0,7.348,1.264,9.73,3.793
			c2.382,2.492,3.573,6.175,3.573,11.05c0,0.476-0.018,1.008-0.055,1.594c-0.037,0.55-0.073,1.044-0.11,1.484h-18.581
			c0.183,1.686,0.971,3.024,2.364,4.013c1.393,0.99,3.262,1.484,5.607,1.484c1.503,0,2.969-0.128,4.398-0.385
			c1.466-0.293,2.657-0.641,3.573-1.044l1.099,6.652c-0.44,0.22-1.026,0.44-1.759,0.66c-0.733,0.22-1.558,0.403-2.474,0.55
			c-0.88,0.183-1.832,0.33-2.859,0.44c-1.026,0.11-2.052,0.165-3.078,0.165c-2.602,0-4.874-0.385-6.817-1.154
			c-1.906-0.77-3.5-1.814-4.783-3.133c-1.246-1.356-2.181-2.95-2.804-4.783C243.745,363.261,243.452,361.282,243.452,359.156
			 M262.693,356.023c-0.037-0.696-0.165-1.374-0.385-2.034c-0.183-0.66-0.495-1.246-0.935-1.759
			c-0.403-0.513-0.935-0.935-1.594-1.264c-0.623-0.33-1.411-0.495-2.364-0.495c-0.916,0-1.704,0.165-2.364,0.495
			c-0.66,0.293-1.209,0.696-1.649,1.209c-0.44,0.513-0.788,1.118-1.044,1.814c-0.22,0.66-0.385,1.338-0.495,2.034H262.693"/>
		<path id="path3003" d="M285.231,367.512c1.503,0,2.565-0.147,3.188-0.44c0.623-0.293,0.935-0.861,0.935-1.704
			c0-0.66-0.403-1.228-1.209-1.704c-0.806-0.513-2.034-1.081-3.683-1.704c-1.283-0.476-2.455-0.971-3.518-1.484
			c-1.026-0.513-1.906-1.118-2.639-1.814c-0.733-0.733-1.301-1.594-1.704-2.584c-0.403-0.99-0.605-2.181-0.605-3.573
			c0-2.712,1.008-4.856,3.024-6.432c2.016-1.576,4.783-2.364,8.301-2.364c1.759,0,3.445,0.165,5.058,0.495
			c1.613,0.293,2.895,0.623,3.848,0.99l-1.429,6.377c-0.953-0.33-1.997-0.623-3.133-0.88c-1.099-0.257-2.346-0.385-3.738-0.385
			c-2.565,0-3.848,0.715-3.848,2.144c0,0.33,0.055,0.623,0.165,0.88c0.11,0.257,0.33,0.513,0.66,0.77
			c0.33,0.22,0.77,0.476,1.319,0.77c0.586,0.257,1.319,0.55,2.199,0.88c1.796,0.66,3.28,1.319,4.453,1.979
			c1.173,0.623,2.089,1.319,2.749,2.089c0.696,0.733,1.173,1.558,1.429,2.474c0.293,0.916,0.44,1.979,0.44,3.188
			c0,2.859-1.081,5.021-3.243,6.487c-2.126,1.466-5.149,2.199-9.071,2.199c-2.565,0-4.709-0.22-6.432-0.66
			c-1.686-0.44-2.859-0.806-3.518-1.099l1.374-6.652c1.393,0.55,2.822,0.99,4.288,1.319
			C282.354,367.366,283.801,367.512,285.231,367.512"/>
	</g>
</g>
<g>
	<polygon fill="#FFFFFF" points="-76.769,7.288 -42.947,23.438 -34.59,59.736 -57.992,88.846 -95.53,88.85 -118.938,59.745 
		-110.589,23.446 	"/>
	<polygon fill="none" points="-76.769,7.288 -42.947,23.438 -34.59,59.736 -57.992,88.846 -95.53,88.85 -118.938,59.745 
		-110.589,23.446 	"/>
	<path fill="#326CE5" d="M-77.083,3.371c-0.812,0.04-1.616,0.244-2.348,0.594l-32.036,15.307c-1.652,0.789-2.907,2.349-3.315,4.121
		l-7.903,34.384c-0.364,1.579-0.057,3.3,0.832,4.659c0.108,0.166,0.224,0.328,0.348,0.483l22.174,27.57
		c1.143,1.421,2.956,2.287,4.789,2.286l35.56-0.008c1.832,0.001,3.645-0.863,4.789-2.282l22.166-27.574
		c1.144-1.421,1.592-3.369,1.184-5.142l-7.916-34.383c-0.408-1.773-1.663-3.333-3.314-4.122l-32.04-15.299
		C-75.033,3.525-76.064,3.319-77.083,3.371z"/>
	<path fill="#FFFFFF" d="M-76.828,58.797c0.266-0.01,0.535,0.045,0.791,0.168c0.335,0.161,0.595,0.415,0.758,0.721h0.036l4.88,8.817
		c-0.634,0.212-1.285,0.394-1.951,0.545c-3.732,0.848-7.452,0.591-10.82-0.557l4.867-8.801h0.008
		C-77.965,59.145-77.412,58.819-76.828,58.797z M-85.19,54.737c0.762,0.01,1.445,0.54,1.622,1.315
		c0.083,0.363,0.043,0.723-0.094,1.041l0.029,0.037l-3.835,9.268c-3.586-2.301-6.442-5.746-7.969-9.972l9.898-1.68l0.017,0.02
		C-85.411,54.745-85.299,54.735-85.19,54.737z M-68.42,54.696c0.131-0.007,0.262,0.005,0.389,0.029l0.017-0.02l9.985,1.688
		c-1.462,4.105-4.258,7.662-7.994,10.043l-3.876-9.362l0.012-0.017c-0.356-0.827,0-1.798,0.819-2.192
		C-68.857,54.763-68.638,54.707-68.42,54.696z M-78.31,46.493h3.085l1.917,2.397l-0.688,2.991l-2.77,1.332l-2.778-1.335
		l-0.688-2.991L-78.31,46.493z M-59.869,39.241c1.119,1.814,1.966,3.839,2.47,6.035c0.499,2.17,0.624,4.335,0.418,6.429
		l-9.702-2.794l-0.008-0.041c-0.869-0.237-1.403-1.121-1.2-2.008c0.083-0.363,0.275-0.67,0.536-0.897l-0.004-0.02L-59.869,39.241z
		 M-93.716,39.238l7.53,6.735l-0.008,0.041c0.68,0.591,0.78,1.617,0.213,2.327c-0.232,0.291-0.544,0.486-0.877,0.578l-0.008,0.033
		l-9.653,2.786C-97.01,47.246-95.951,42.878-93.716,39.238z M-74.361,29.945c4.363,0.537,8.397,2.512,11.489,5.539l-8.194,5.81
		l-0.029-0.012c-0.727,0.531-1.752,0.4-2.319-0.311c-0.232-0.291-0.355-0.634-0.369-0.98l-0.008-0.004L-74.361,29.945z
		 M-79.167,29.945l-0.57,10.059l-0.041,0.02c-0.038,0.9-0.778,1.618-1.687,1.618c-0.373,0-0.717-0.119-0.996-0.323l-0.016,0.008
		l-8.247-5.847c2.534-2.493,5.777-4.335,9.513-5.183C-80.529,30.142-79.847,30.027-79.167,29.945z M-76.766,15.072
		c-1.059,0.001-1.917,0.954-1.917,2.131c0,0.019,0.004,0.036,0.005,0.054c-0.002,0.159-0.01,0.352-0.005,0.492
		c0.026,0.678,0.174,1.198,0.263,1.823c0.161,1.338,0.296,2.447,0.213,3.478c-0.081,0.389-0.368,0.745-0.623,0.992l-0.046,0.811
		c-1.15,0.095-2.309,0.27-3.466,0.533c-4.979,1.131-9.265,3.695-12.529,7.158c-0.212-0.145-0.583-0.41-0.693-0.492
		c-0.343,0.046-0.688,0.152-1.139-0.111c-0.858-0.577-1.64-1.375-2.585-2.335c-0.433-0.459-0.747-0.897-1.263-1.34
		c-0.117-0.101-0.295-0.236-0.426-0.34c-0.403-0.321-0.877-0.488-1.336-0.504c-0.589-0.02-1.157,0.21-1.528,0.676
		c-0.66,0.828-0.449,2.094,0.471,2.827c0.01,0.008,0.019,0.013,0.029,0.02c0.126,0.102,0.281,0.234,0.398,0.319
		c0.546,0.403,1.045,0.61,1.59,0.93c1.147,0.708,2.097,1.296,2.851,2.004c0.295,0.314,0.346,0.867,0.385,1.106l0.615,0.549
		c-3.29,4.951-4.813,11.067-3.913,17.299l-0.803,0.234c-0.212,0.273-0.511,0.704-0.824,0.832c-0.986,0.311-2.097,0.425-3.437,0.565
		c-0.63,0.053-1.173,0.021-1.84,0.148c-0.147,0.028-0.352,0.081-0.512,0.118c-0.006,0.001-0.011,0.003-0.017,0.005
		c-0.008,0.002-0.02,0.006-0.028,0.008c-1.131,0.273-1.857,1.312-1.623,2.335c0.234,1.024,1.338,1.647,2.475,1.401
		c0.008-0.002,0.02-0.002,0.029-0.004c0.013-0.003,0.024-0.009,0.036-0.012c0.159-0.035,0.357-0.074,0.496-0.111
		c0.656-0.176,1.131-0.434,1.721-0.66c1.268-0.455,2.319-0.835,3.343-0.983c0.428-0.033,0.878,0.264,1.102,0.389l0.835-0.143
		c1.924,5.963,5.954,10.783,11.059,13.808l-0.348,0.836c0.125,0.325,0.264,0.764,0.17,1.084c-0.372,0.965-1.01,1.983-1.736,3.119
		c-0.352,0.525-0.711,0.932-1.028,1.533c-0.076,0.143-0.173,0.364-0.246,0.516c-0.493,1.055-0.132,2.269,0.815,2.725
		c0.953,0.459,2.135-0.025,2.647-1.081c0-0.002,0.003-0.003,0.004-0.004c0.001-0.001-0.001-0.003,0-0.004
		c0.073-0.15,0.176-0.347,0.237-0.488c0.272-0.622,0.362-1.156,0.553-1.757c0.508-1.275,0.786-2.612,1.485-3.445
		c0.191-0.228,0.503-0.316,0.826-0.403l0.434-0.787c4.45,1.708,9.431,2.166,14.406,1.037c1.135-0.258,2.23-0.592,3.29-0.992
		c0.122,0.216,0.349,0.632,0.41,0.737c0.328,0.107,0.687,0.162,0.979,0.594c0.523,0.892,0.88,1.949,1.316,3.225
		c0.191,0.602,0.285,1.135,0.557,1.757c0.062,0.142,0.165,0.342,0.237,0.492c0.511,1.06,1.697,1.545,2.651,1.086
		c0.947-0.456,1.309-1.67,0.816-2.725c-0.074-0.152-0.174-0.373-0.25-0.516c-0.317-0.6-0.677-1.004-1.028-1.528
		c-0.726-1.136-1.328-2.079-1.7-3.045c-0.156-0.497,0.026-0.807,0.147-1.131c-0.072-0.083-0.228-0.553-0.319-0.775
		c5.305-3.132,9.217-8.132,11.054-13.906c0.248,0.039,0.68,0.115,0.819,0.143c0.289-0.19,0.554-0.439,1.074-0.398
		c1.024,0.148,2.075,0.528,3.344,0.983c0.59,0.226,1.065,0.489,1.721,0.664c0.138,0.037,0.337,0.072,0.495,0.106
		c0.013,0.003,0.024,0.01,0.037,0.012c0.008,0.002,0.02,0.002,0.028,0.004c1.137,0.245,2.241-0.378,2.475-1.401
		c0.234-1.024-0.492-2.063-1.622-2.335c-0.165-0.037-0.398-0.101-0.558-0.131c-0.667-0.126-1.21-0.095-1.839-0.147
		c-1.341-0.141-2.451-0.255-3.438-0.565c-0.402-0.156-0.688-0.635-0.828-0.832l-0.774-0.225c0.401-2.905,0.293-5.928-0.402-8.952
		c-0.701-3.052-1.94-5.845-3.593-8.305c0.198-0.181,0.574-0.513,0.68-0.611c0.031-0.344,0.004-0.705,0.36-1.086
		c0.754-0.708,1.705-1.295,2.852-2.004c0.544-0.32,1.047-0.526,1.593-0.93c0.124-0.092,0.293-0.236,0.422-0.341
		c0.92-0.734,1.132-1.999,0.471-2.827c-0.66-0.828-1.94-0.906-2.86-0.172c-0.131,0.104-0.309,0.239-0.426,0.34
		c-0.515,0.443-0.833,0.88-1.266,1.34c-0.946,0.96-1.727,1.762-2.585,2.339c-0.372,0.216-0.917,0.142-1.164,0.127l-0.729,0.52
		c-4.159-4.361-9.821-7.149-15.918-7.69c-0.017-0.255-0.04-0.717-0.046-0.856c-0.249-0.239-0.55-0.443-0.627-0.959
		c-0.083-1.031,0.056-2.14,0.217-3.478c0.089-0.626,0.238-1.145,0.263-1.823c0.006-0.154-0.003-0.378-0.004-0.545
		C-74.849,16.026-75.707,15.072-76.766,15.072z"/>
	<path fill="none" d="M-76.828,58.797c0.266-0.01,0.535,0.045,0.791,0.168c0.335,0.161,0.595,0.415,0.758,0.721h0.036l4.88,8.817
		c-0.634,0.212-1.285,0.394-1.951,0.545c-3.732,0.848-7.452,0.591-10.82-0.557l4.867-8.801h0.008
		C-77.965,59.145-77.412,58.819-76.828,58.797z M-85.19,54.737c0.762,0.01,1.445,0.54,1.622,1.315
		c0.083,0.363,0.043,0.723-0.094,1.041l0.029,0.037l-3.835,9.268c-3.586-2.301-6.442-5.746-7.969-9.972l9.898-1.68l0.017,0.02
		C-85.411,54.745-85.299,54.735-85.19,54.737z M-68.42,54.696c0.131-0.007,0.262,0.005,0.389,0.029l0.017-0.02l9.985,1.688
		c-1.462,4.105-4.258,7.662-7.994,10.043l-3.876-9.362l0.012-0.017c-0.356-0.827,0-1.798,0.819-2.192
		C-68.857,54.763-68.638,54.707-68.42,54.696z M-78.31,46.493h3.085l1.917,2.397l-0.688,2.991l-2.77,1.332l-2.778-1.335
		l-0.688-2.991L-78.31,46.493z M-59.869,39.241c1.119,1.814,1.966,3.839,2.47,6.035c0.499,2.17,0.624,4.335,0.418,6.429
		l-9.702-2.794l-0.008-0.041c-0.869-0.237-1.403-1.121-1.2-2.008c0.083-0.363,0.275-0.67,0.536-0.897l-0.004-0.02L-59.869,39.241z
		 M-93.716,39.238l7.53,6.735l-0.008,0.041c0.68,0.591,0.78,1.617,0.213,2.327c-0.232,0.291-0.544,0.486-0.877,0.578l-0.008,0.033
		l-9.653,2.786C-97.01,47.246-95.951,42.878-93.716,39.238z M-74.361,29.945c4.363,0.537,8.397,2.512,11.489,5.539l-8.194,5.81
		l-0.029-0.012c-0.727,0.531-1.752,0.4-2.319-0.311c-0.232-0.291-0.355-0.634-0.369-0.98l-0.008-0.004L-74.361,29.945z
		 M-79.167,29.945l-0.57,10.059l-0.041,0.02c-0.038,0.9-0.778,1.618-1.687,1.618c-0.373,0-0.717-0.119-0.996-0.323l-0.016,0.008
		l-8.247-5.847c2.534-2.493,5.777-4.335,9.513-5.183C-80.529,30.142-79.847,30.027-79.167,29.945z M-76.766,15.072
		c-1.059,0.001-1.917,0.954-1.917,2.131c0,0.019,0.004,0.036,0.005,0.054c-0.002,0.159-0.01,0.352-0.005,0.492
		c0.026,0.678,0.174,1.198,0.263,1.823c0.161,1.338,0.296,2.447,0.213,3.478c-0.081,0.389-0.368,0.745-0.623,0.992l-0.046,0.811
		c-1.15,0.095-2.309,0.27-3.466,0.533c-4.979,1.131-9.265,3.695-12.529,7.158c-0.212-0.145-0.583-0.41-0.693-0.492
		c-0.343,0.046-0.688,0.152-1.139-0.111c-0.858-0.577-1.64-1.375-2.585-2.335c-0.433-0.459-0.747-0.897-1.263-1.34
		c-0.117-0.101-0.295-0.236-0.426-0.34c-0.403-0.321-0.877-0.488-1.336-0.504c-0.589-0.02-1.157,0.21-1.528,0.676
		c-0.66,0.828-0.449,2.094,0.471,2.827c0.01,0.008,0.019,0.013,0.029,0.02c0.126,0.102,0.281,0.234,0.398,0.319
		c0.546,0.403,1.045,0.61,1.59,0.93c1.147,0.708,2.097,1.296,2.851,2.004c0.295,0.314,0.346,0.867,0.385,1.106l0.615,0.549
		c-3.29,4.951-4.813,11.067-3.913,17.299l-0.803,0.234c-0.212,0.273-0.511,0.704-0.824,0.832c-0.986,0.311-2.097,0.425-3.437,0.565
		c-0.63,0.053-1.173,0.021-1.84,0.148c-0.147,0.028-0.352,0.081-0.512,0.118c-0.006,0.001-0.011,0.003-0.017,0.005
		c-0.008,0.002-0.02,0.006-0.028,0.008c-1.131,0.273-1.857,1.312-1.623,2.335c0.234,1.024,1.338,1.647,2.475,1.401
		c0.008-0.002,0.02-0.002,0.029-0.004c0.013-0.003,0.024-0.009,0.036-0.012c0.159-0.035,0.357-0.074,0.496-0.111
		c0.656-0.176,1.131-0.434,1.721-0.66c1.268-0.455,2.319-0.835,3.343-0.983c0.428-0.033,0.878,0.264,1.102,0.389l0.835-0.143
		c1.924,5.963,5.954,10.783,11.059,13.808l-0.348,0.836c0.125,0.325,0.264,0.764,0.17,1.084c-0.372,0.965-1.01,1.983-1.736,3.119
		c-0.352,0.525-0.711,0.932-1.028,1.533c-0.076,0.143-0.173,0.364-0.246,0.516c-0.493,1.055-0.132,2.269,0.815,2.725
		c0.953,0.459,2.135-0.025,2.647-1.081c0-0.002,0.003-0.003,0.004-0.004c0.001-0.001-0.001-0.003,0-0.004
		c0.073-0.15,0.176-0.347,0.237-0.488c0.272-0.622,0.362-1.156,0.553-1.757c0.508-1.275,0.786-2.612,1.485-3.445
		c0.191-0.228,0.503-0.316,0.826-0.403l0.434-0.787c4.45,1.708,9.431,2.166,14.406,1.037c1.135-0.258,2.23-0.592,3.29-0.992
		c0.122,0.216,0.349,0.632,0.41,0.737c0.328,0.107,0.687,0.162,0.979,0.594c0.523,0.892,0.88,1.949,1.316,3.225
		c0.191,0.602,0.285,1.135,0.557,1.757c0.062,0.142,0.165,0.342,0.237,0.492c0.511,1.06,1.697,1.545,2.651,1.086
		c0.947-0.456,1.309-1.67,0.816-2.725c-0.074-0.152-0.174-0.373-0.25-0.516c-0.317-0.6-0.677-1.004-1.028-1.528
		c-0.726-1.136-1.328-2.079-1.7-3.045c-0.156-0.497,0.026-0.807,0.147-1.131c-0.072-0.083-0.228-0.553-0.319-0.775
		c5.305-3.132,9.217-8.132,11.054-13.906c0.248,0.039,0.68,0.115,0.819,0.143c0.289-0.19,0.554-0.439,1.074-0.398
		c1.024,0.148,2.075,0.528,3.344,0.983c0.59,0.226,1.065,0.489,1.721,0.664c0.138,0.037,0.337,0.072,0.495,0.106
		c0.013,0.003,0.024,0.01,0.037,0.012c0.008,0.002,0.02,0.002,0.028,0.004c1.137,0.245,2.241-0.378,2.475-1.401
		c0.234-1.024-0.492-2.063-1.622-2.335c-0.165-0.037-0.398-0.101-0.558-0.131c-0.667-0.126-1.21-0.095-1.839-0.147
		c-1.341-0.141-2.451-0.255-3.438-0.565c-0.402-0.156-0.688-0.635-0.828-0.832l-0.774-0.225c0.401-2.905,0.293-5.928-0.402-8.952
		c-0.701-3.052-1.94-5.845-3.593-8.305c0.198-0.181,0.574-0.513,0.68-0.611c0.031-0.344,0.004-0.705,0.36-1.086
		c0.754-0.708,1.705-1.295,2.852-2.004c0.544-0.32,1.047-0.526,1.593-0.93c0.124-0.092,0.293-0.236,0.422-0.341
		c0.92-0.734,1.132-1.999,0.471-2.827c-0.66-0.828-1.94-0.906-2.86-0.172c-0.131,0.104-0.309,0.239-0.426,0.34
		c-0.515,0.443-0.833,0.88-1.266,1.34c-0.946,0.96-1.727,1.762-2.585,2.339c-0.372,0.216-0.917,0.142-1.164,0.127l-0.729,0.52
		c-4.159-4.361-9.821-7.149-15.918-7.69c-0.017-0.255-0.04-0.717-0.046-0.856c-0.249-0.239-0.55-0.443-0.627-0.959
		c-0.083-1.031,0.056-2.14,0.217-3.478c0.089-0.626,0.238-1.145,0.263-1.823c0.006-0.154-0.003-0.378-0.004-0.545
		C-74.849,16.026-75.707,15.072-76.766,15.072z"/>
</g>
</svg>
