<svg xmlns="http://www.w3.org/2000/svg" role="img" viewBox="-5.02 -2.02 729.04 250.54"><defs><style>.cls-2{fill:#00b4c8}</style></defs><path fill="none" d="M358.426 176.9a65.036 65.036 0 00-9.452.7 29.487 29.487 0 00-8.636 2.567 15.685 15.685 0 00-6.186 5.252 14.669 14.669 0 00-2.333 8.52 22.782 22.782 0 00.884 6.651 12.355 12.355 0 005.415 7.229q6.302 3.853 17.04 3.852 13.067 0 19.837-1.401V179a55.105 55.105 0 00-6.766-1.4 63.013 63.013 0 00-9.803-.7zm293.378-45.98q-14.005 0-21.823 10.62-7.823 10.624-7.819 28.825 0 18.44 7.819 29.175 7.817 10.738 21.823 10.736 14.004 0 21.822-10.736 7.818-10.733 7.819-29.175 0-18.205-7.819-28.825-7.822-10.618-21.822-10.62z"/><path d="M398.675 131.374a35.638 35.638 0 00-6.992-11.663 37.673 37.673 0 00-15.288-9.803q-9.57-3.5-23.572-3.5a122.635 122.635 0 00-21.94 1.867 111.716 111.716 0 00-15.638 3.733l3.501 22.874.001-.001.001.007a79.11 79.11 0 0113.304-3.268 106.688 106.688 0 0117.972-1.4 33.35 33.35 0 0112.02 1.868 18.53 18.53 0 0111.092 10.917 20.718 20.718 0 01.692 2.148 36.55 36.55 0 011.167 9.335v4.668a91.837 91.837 0 00-10.968-1.984 87.49 87.49 0 00-9.804-.583 91.459 91.459 0 00-19.256 1.984 47.97 47.97 0 00-16.22 6.535 33.507 33.507 0 00-11.087 11.786q-4.086 7.237-4.084 17.738a44.357 44.357 0 002.77 16.523c.088.219.19.424.282.638.184.43.364.865.565 1.279v.001l.002.004a31.863 31.863 0 0010.037 12.137 42.125 42.125 0 0015.52 6.768 89.274 89.274 0 0020.073 2.101 201.744 201.744 0 0029.758-1.984q13.183-1.98 19.722-3.384v-73.988a74.817 74.817 0 00-2.45-19.722 42.165 42.165 0 00-1.18-3.63zm-23.68 78.896q-6.77 1.401-19.838 1.4-10.74 0-17.039-3.851a12.355 12.355 0 01-5.415-7.229 22.782 22.782 0 01-.884-6.652 14.669 14.669 0 012.333-8.519 15.685 15.685 0 016.186-5.252 29.487 29.487 0 018.636-2.566 65.036 65.036 0 019.452-.701 63.013 63.013 0 019.803.7 55.105 55.105 0 016.767 1.4zm87.993-5.479a13.784 13.784 0 01-2.918-5.951 38.607 38.607 0 01-.817-8.636V50.398l-.048.008v-.014l-28.241 4.668v140.506a60.497 60.497 0 001.983 16.222 26.015 26.015 0 006.886 11.903 32.085 32.085 0 0013.187 7.352 57.77 57.77 0 009.403 1.987 101.415 101.415 0 0011.534.82l3.968-23.34a44.565 44.565 0 01-9.219-1.985 13.067 13.067 0 01-5.718-3.734zm104.796 3.851a72.385 72.385 0 01-14.237 1.401q-19.376 0-27.542-10.62-8.172-10.618-8.168-28.824 0-18.906 8.635-29.292 8.632-10.382 25.207-10.387a59.566 59.566 0 0113.187 1.401 64.1 64.1 0 0111.087 3.501l6.068-23.107a85.465 85.465 0 00-32.675-6.302 62.27 62.27 0 00-25.208 4.902 55.08 55.08 0 00-19.022 13.537 60.106 60.106 0 00-12.02 20.422 74.918 74.918 0 00-4.201 25.325 84.138 84.138 0 003.734 25.557 55.08 55.08 0 0011.32 20.306 51.51 51.51 0 0019.139 13.303q11.553 4.781 27.191 4.785a100.458 100.458 0 0019.488-1.868q9.453-1.865 14.12-4.2l-3.967-23.341a66.863 66.863 0 01-12.136 3.501zm138.286-64.534a60.116 60.116 0 00-12.021-20.19 52.23 52.23 0 00-18.555-12.954 60.67 60.67 0 00-23.69-4.55 59.793 59.793 0 00-23.574 4.55 53.625 53.625 0 00-18.555 12.954 59.019 59.019 0 00-12.137 20.19 75.834 75.834 0 00-4.318 26.257 76.806 76.806 0 004.318 26.374 59.82 59.82 0 0012.02 20.306 53.775 53.775 0 0018.439 13.07 59.104 59.104 0 0023.807 4.668 59.962 59.962 0 0023.923-4.667 53.511 53.511 0 0018.555-13.071 58.382 58.382 0 0011.904-20.306 78.813 78.813 0 004.201-26.374 75.928 75.928 0 00-4.318-26.257zm-32.444 55.432q-7.822 10.738-21.822 10.736-14.005 0-21.823-10.736-7.823-10.733-7.819-29.175 0-18.205 7.819-28.825 7.817-10.618 21.823-10.62 14.004 0 21.822 10.62 7.818 10.624 7.819 28.825 0 18.44-7.819 29.175zM164.048 88.652q-23.49 23.4-47.008 46.774L43.437 209.03l-.18-.18c-4.215 4.229-8.402 8.487-12.466 12.857-2.142 2.303-2.932 5.231-.464 7.89 2.584 2.785 5.697 2.616 8.55.503a54.565 54.565 0 005.886-5.442q59.659-59.639 119.21-119.384l24.18-4.215c-3.946-4.006-20.363-16.133-24.105-12.406z" class="cls-2"/><path d="M175.56 124.23a5.131 5.131 0 00-3.607-4.983c-3.852-1.393-6.496.86-8.974 3.338q-48.542 48.522-97.071 97.056c-2.864 2.865-5.82 6.28-2.31 10.066 3.875 4.18 7.505 1.187 10.579-1.884q49.071-49.024 98.112-98.079c1.555-1.554 3.107-3.122 3.27-5.514zm-64.698-3.935l6.807-6.808a13.185 13.185 0 00-3.42-4.813Q67.56 61.962 20.839 15.283c-1.741-1.741-3.603-3.313-6.301-3.206a4.84 4.84 0 00-4.615 3c-1.42 3.507.395 6.074 2.736 8.416q46.694 46.706 93.394 93.406a13.034 13.034 0 004.809 3.396zm61.206 43.088c2.882-2.916 5.44-6.402 1.556-10.07-3.487-3.294-6.818-.997-9.56 1.729-12.442 12.372-24.81 24.82-37.256 37.19-4.352 4.326-4.15 8.363.16 12.598 7.3 7.174 14.591 14.364 21.676 21.75 3.973 4.14 8.312 6.73 13.916 5.636a22.838 22.838 0 003.236.185c4.091-.38 9.255-.111 9.385-5.75.134-5.814-4.897-5.84-9.11-5.683-4.28.16-7.42-1.6-10.264-4.592-4.365-4.591-8.733-9.21-13.45-13.426-4.175-3.732-3.581-6.47.218-10.125 10.009-9.63 19.728-19.562 29.493-29.442zm-83.13-30.167a14.637 14.637 0 005.3 3.702l6.777-6.777c-.86-2.457-2.905-4.097-4.68-5.876Q67.718 95.583 39.05 66.955c-3.958-3.956-7.892-7.94-11.973-11.768-2.398-2.25-5.247-2.828-7.804-.294-2.434 2.412-2.26 5.25-.34 7.951a26.245 26.245 0 002.867 3.298q33.54 33.566 67.138 67.074zm-25.418 8.148c3.614 3.604 7.208 7.233 10.954 10.696a7.023 7.023 0 002.942 1.68l7.088-7.088a10.369 10.369 0 00-3.03-4.626q-21.64-21.68-43.328-43.311a13.241 13.241 0 00-4.14-2.884c-2.371-.973-4.816-.816-6.7 1.26a5.094 5.094 0 00-.402 6.714 38.147 38.147 0 004.655 5.57q15.93 16.045 31.961 31.989zm204.967-92.735q-24.978 0-37.344 13.42-12.374 13.424-12.37 36.995v130.703h28.24v-98.495h44.347V107.68h-44.347v-8.17a47.718 47.718 0 011.167-10.852 21.495 21.495 0 013.308-7.58c.22-.313.423-.642.66-.938a18.684 18.684 0 017.468-5.486 29.29 29.29 0 0111.438-1.984 52.854 52.854 0 0110.48 1.006c.279.056.565.1.84.16a44.494 44.494 0 019.22 3.035l5.368-23.34a98.2 98.2 0 00-11.205-3.15 76.17 76.17 0 00-17.27-1.751z" class="cls-2"/></svg>