<svg id="图层_1" data-name="图层 1" xmlns="http://www.w3.org/2000/svg" viewBox="0 0 432.24 434.18"><defs><style>.cls-1{fill:#fff;}</style></defs><title>画板 2 副本 2</title><path class="cls-1" d="M118.1,186.33c4.9.89,8.42-5.53,4.8-9.16-2.9-2.89-8-2.6-8.94,1.47-.82,3.39.36,7,4.17,7.69Z"/><path class="cls-1" d="M424.86,310.69l-.45-.22v0c-49.62-23.74-121.8,14.81-124.57,16.32-12.52,6.43-22.44,8.41-26.56,5.26-3.94-3-7.24-10.8-7.27-19.81H266l.05-.79a28.44,28.44,0,0,1,.23-3.29l3-46.11V207.18a15,15,0,0,0-.48-3.64A134.84,134.84,0,0,0,0,203.63a15.29,15.29,0,0,0-.47,3.62V295a15.65,15.65,0,1,0,31.29,0V269.38A13.42,13.42,0,0,1,44.22,256h.56a13.41,13.41,0,0,1,13.41,13.41v70.83a15.65,15.65,0,1,0,31.3,0V270.29A14.31,14.31,0,0,1,103.8,256h.65a14.31,14.31,0,0,1,14.31,14.31V367a15.65,15.65,0,1,0,31.29,0v-65s-.34-4.26-.42-5c0-.44-.07-.88-.07-1.32V270.3A14.31,14.31,0,0,1,163.87,256h.64a14.3,14.3,0,0,1,14.31,14.31v25.44a11.6,11.6,0,0,1-.09,1.44c-.07.64-.35,5.86-.35,5.86v37.17a15.65,15.65,0,0,0,31.3,0V305.27s-.53-8.26-.53-9.53V270.3A14.31,14.31,0,0,1,223.46,256h.64a14.3,14.3,0,0,1,14.31,14.31v25l-.08,1.26c0,.24-.05.48-.07.71a.11.11,0,0,0,0,.08c-1.15,19.1,1,44.52,17.73,57.31A36.11,36.11,0,0,0,278.5,362q15.09,0,34.65-10c17.22-9.33,68.57-30.4,99-15.82a14.24,14.24,0,1,0,12.75-25.47ZM128.76,202.14c-18.15,4.08-39.88-9.63-37.29-29.58.68-5.54,3.37-11.37,8.73-17.05,10.32-11,26.49-11.42,37.93-1.85C153.26,166.37,149.66,197.45,128.76,202.14Zm58.9-1.48c-14.49,3.22-31.82-7.69-29.76-23.6.57-4.43,2.72-9.09,7-13.61,8.24-8.81,21.13-9.11,30.26-1.47C207.2,172.1,204.33,196.92,187.66,200.66Z"/><path class="cls-1" d="M176.34,185.74c3.91.69,6.72-4.42,3.83-7.31-2.31-2.31-6.37-2.07-7.15,1.18C172.36,182.29,173.3,185.21,176.34,185.74Z"/><path class="cls-1" d="M128.62,63.61h0a6.56,6.56,0,0,1,6.55,6.56V88.91a6.56,6.56,0,0,1-6.55,6.56h0a6.56,6.56,0,0,1-6.56-6.56V70.17A6.56,6.56,0,0,1,128.62,63.61Z"/><circle class="cls-1" cx="128.61" cy="62.8" r="11.3"/></svg>