<?xml version="1.0" encoding="utf-8"?>
<!-- Generator: Adobe Illustrator 26.5.2, SVG Export Plug-In . SVG Version: 6.00 Build 0)  -->
<svg version="1.1" id="Layer_1" xmlns="http://www.w3.org/2000/svg" xmlns:xlink="http://www.w3.org/1999/xlink" x="0px" y="0px"
	 viewBox="0 0 140.3 116.8" style="enable-background:new 0 0 140.3 116.8;" xml:space="preserve">
<style type="text/css">
	.st0{fill:#2916FC;}
	.st1{fill:#FFFFFF;}
	.st2{opacity:0.68;fill:#FFFFFF;enable-background:new    ;}
	.st3{fill:url(#SVGID_1_);}
	.st4{fill:#0C162D;}
</style>
<path class="st0" d="M45.1,74.5c-0.8,0-1.6-0.2-2.3-0.6c-0.7-0.4-1.3-1-1.7-1.7L22.6,40c-0.4-0.7-0.6-1.5-0.6-2.3s0.2-1.6,0.6-2.3
	L41.1,3.3c0.4-0.7,1-1.3,1.7-1.7c0.7-0.4,1.5-0.6,2.3-0.6h37.1c0.8,0,1.6,0.2,2.3,0.6s1.3,1,1.7,1.7l18.5,32.1
	c0.4,0.7,0.6,1.5,0.6,2.3s-0.2,1.6-0.6,2.3L86.2,72.1c-0.4,0.7-1,1.3-1.7,1.7c-0.7,0.4-1.5,0.6-2.3,0.6L45.1,74.5L45.1,74.5z"/>
<path class="st1" d="M82.2,1.9c0.7,0,1.3,0.2,1.8,0.5c0.6,0.3,1,0.8,1.3,1.3l18.5,32.1c0.3,0.6,0.5,1.2,0.5,1.8s-0.2,1.3-0.5,1.8
	L85.4,71.7c-0.3,0.6-0.8,1-1.4,1.3c-0.6,0.3-1.2,0.5-1.8,0.5H45.1c-0.7,0-1.3-0.2-1.8-0.5c-0.6-0.3-1-0.8-1.3-1.3L23.4,39.6
	c-0.3-0.6-0.5-1.2-0.5-1.8s0.2-1.3,0.5-1.8L41.9,3.8c0.3-0.6,0.8-1,1.3-1.4c0.6-0.3,1.2-0.5,1.8-0.5C45.1,1.9,82.2,1.9,82.2,1.9z
	 M82.2,0H45.1c-1,0-1.9,0.3-2.8,0.8c-0.8,0.5-1.5,1.2-2,2L21.8,34.9c-0.5,0.8-0.8,1.8-0.8,2.8s0.3,2,0.8,2.8l18.5,32.1
	c0.5,0.8,1.2,1.6,2,2.1c0.8,0.5,1.8,0.8,2.8,0.8h37.1c1,0,1.9-0.3,2.8-0.8s1.6-1.2,2.1-2.1l18.5-32.1c0.5-0.8,0.8-1.8,0.8-2.8
	s-0.3-2-0.8-2.8L87.1,2.8c-0.5-0.9-1.2-1.6-2.1-2C84.2,0.3,83.2,0,82.2,0L82.2,0z"/>
<path class="st1" d="M61.5,18.6v37c0,0.5-0.2,1-0.6,1.3c-0.4,0.4-0.8,0.6-1.3,0.6h-7.1c-0.5,0-1-0.2-1.3-0.6
	c-0.4-0.4-0.6-0.8-0.6-1.3v-37c0-0.5,0.2-1,0.6-1.4s0.8-0.6,1.3-0.6h7.1c0.5,0,1,0.2,1.3,0.6C61.3,17.6,61.5,18.1,61.5,18.6z
	 M81.1,19.7l-9.6,14.2c-0.2,0.3-0.3,0.6-0.3,1s0.1,0.7,0.3,1l11,18.7c0.2,0.3,0.2,0.6,0.3,1c0,0.3-0.1,0.7-0.2,1s-0.4,0.5-0.7,0.7
	c-0.3,0.2-0.6,0.3-0.9,0.3h-8c-0.3,0-0.7-0.1-1-0.2c-0.3-0.2-0.5-0.4-0.7-0.7l-11-19.8c-0.2-0.3-0.2-0.6-0.2-1c0-0.3,0.1-0.7,0.3-1
	l10.9-17.2c0.2-0.3,0.4-0.5,0.7-0.6s0.6-0.2,0.9-0.2h6.7c0.3,0,0.7,0.1,1,0.3s0.5,0.4,0.7,0.7s0.2,0.6,0.2,1
	C81.4,19.1,81.3,19.4,81.1,19.7L81.1,19.7L81.1,19.7z"/>
<path class="st2" d="M80.5,57.5h-6.8l-0.4-0.8l-2-3.5l3.5-6l1.5-2.5l5.9,10c0.2,0.3,0.2,0.6,0.2,1s-0.1,0.7-0.2,1
	c-0.2,0.3-0.4,0.5-0.7,0.7C81.2,57.5,80.8,57.6,80.5,57.5L80.5,57.5L80.5,57.5z"/>
<linearGradient id="SVGID_1_" gradientUnits="userSpaceOnUse" x1="73.1" y1="1015.31" x2="103.6" y2="1015.31" gradientTransform="matrix(1 0 0 1 0 -962)">
	<stop  offset="0" style="stop-color:#FF7879"/>
	<stop  offset="0.21" style="stop-color:#FC777B"/>
	<stop  offset="0.36" style="stop-color:#F27281"/>
	<stop  offset="0.5" style="stop-color:#E26B8A"/>
	<stop  offset="0.63" style="stop-color:#CB6098"/>
	<stop  offset="0.75" style="stop-color:#AE52AA"/>
	<stop  offset="0.86" style="stop-color:#8A41C0"/>
	<stop  offset="0.98" style="stop-color:#602EDA"/>
	<stop  offset="1" style="stop-color:#5529E0"/>
</linearGradient>
<path class="st3" d="M103.6,44.4L89.5,68.8H82l-6.9-11.9l-2-3.5l3.5-6l2.9-5l2.6-4.5h17.8L103.6,44.4L103.6,44.4z"/>
<path class="st2" d="M80.6,57.6h-6.8l-0.4-0.8l-2-3.5l3.5-6l1.5-2.5l5.9,10c0.2,0.3,0.2,0.6,0.2,1s-0.1,0.7-0.2,1
	c-0.2,0.3-0.4,0.5-0.7,0.7C81.2,57.5,80.9,57.6,80.6,57.6L80.6,57.6L80.6,57.6z"/>
<path class="st4" d="M115.3,51.4c-0.1-0.4-0.3-0.8-0.5-1.2L107,36.8l-0.9-1.5l-0.6-1.1c-0.3-0.5-0.6-0.9-1-1.3
	c-1.2-1.1-2.7-1.8-4.4-1.8H81.7c-0.9,0-1.8,0.2-2.6,0.6c-0.8,0.4-1.5,0.9-2.1,1.6c-0.2,0.3-0.5,0.6-0.7,0.9l-3.7,6.4l-5.6,9.6
	c0,0,0,0.1-0.1,0.1c-0.5,0.9-0.8,2-0.8,3c0,1.1,0.3,2.1,0.8,3l9.2,16c0.5,0.9,1.2,1.6,2,2.1c0.8,0.5,1.8,0.9,2.8,0.9h19
	c0.2,0,0.4,0,0.6,0l6.6,10.5c0.4,0.6,1,1,1.7,1.2c0.7,0.2,1.4,0,2-0.3l0.4-0.2c0.6-0.4,1-1,1.2-1.7c0.2-0.7,0-1.4-0.3-2l-6.7-10.6
	l9.2-15.9c0.4-0.7,0.7-1.6,0.8-2.4S115.6,52.3,115.3,51.4L115.3,51.4L115.3,51.4z M106.7,56.8l-6.9,11.9H82l0-0.1l-6.8-11.8l-2-3.5
	l3.5-6l2.9-5l2.5-4.4h17.9l3.7,6.4l5.1,8.9L106.7,56.8L106.7,56.8z"/>
<path class="st0" d="M0.7,111.5c-0.2,0-0.3-0.1-0.5-0.2c-0.1-0.1-0.2-0.3-0.2-0.5V93c0-0.2,0.1-0.4,0.2-0.5c0.1-0.1,0.3-0.2,0.5-0.2
	h2.4c0.2,0,0.4,0.1,0.5,0.2c0.1,0.1,0.2,0.3,0.2,0.5v6.4l6.2-6.6c0.2-0.3,0.6-0.5,1.1-0.5h2.7c0.1,0,0.3,0.1,0.4,0.2
	c0.1,0.1,0.2,0.2,0.2,0.4c0,0.1,0,0.2-0.1,0.3l-7.6,8.3l8.1,9.1c0.1,0.1,0.1,0.2,0.1,0.4c0,0.2-0.1,0.3-0.2,0.4
	c-0.1,0.1-0.2,0.2-0.4,0.2h-2.8c-0.5,0-0.8-0.2-1.1-0.5l-6.7-7.3v7.1c0,0.2-0.1,0.4-0.2,0.5c-0.1,0.1-0.3,0.2-0.5,0.2
	C3.1,111.5,0.7,111.5,0.7,111.5z"/>
<path class="st0" d="M21.6,111.8c-1.7,0-3-0.6-4-1.7c-1-1.1-1.5-2.6-1.5-4.5v-7.7c0-0.2,0.1-0.3,0.2-0.5c0.1-0.1,0.3-0.2,0.5-0.2
	h2.4c0.2,0,0.4,0.1,0.5,0.2c0.1,0.1,0.2,0.3,0.2,0.5v7.6c0,2.3,1,3.4,3,3.4c1,0,1.7-0.3,2.3-0.9c0.6-0.6,0.9-1.4,0.9-2.5v-7.6
	c0-0.2,0.1-0.3,0.2-0.5c0.1-0.1,0.3-0.2,0.5-0.2h2.4c0.2,0,0.4,0.1,0.5,0.2c0.1,0.1,0.2,0.3,0.2,0.5v13c0,0.2-0.1,0.3-0.2,0.5
	c-0.1,0.1-0.3,0.2-0.5,0.2h-2.2c-0.2,0-0.3-0.1-0.5-0.2c-0.1-0.1-0.2-0.3-0.2-0.5v-1.1C25.2,111.1,23.6,111.8,21.6,111.8L21.6,111.8
	z"/>
<path class="st0" d="M41,111.8c-1.9,0-3.4-0.7-4.4-1.9v1c0,0.2-0.1,0.3-0.2,0.5c-0.1,0.1-0.3,0.2-0.5,0.2h-2.2
	c-0.2,0-0.3-0.1-0.5-0.2c-0.1-0.1-0.2-0.3-0.2-0.5V92.7c0-0.2,0.1-0.4,0.2-0.5c0.1-0.1,0.3-0.2,0.5-0.2h2.3c0.2,0,0.4,0.1,0.5,0.2
	c0.1,0.1,0.2,0.3,0.2,0.5v6.1c1-1.2,2.5-1.8,4.2-1.8s3.3,0.6,4.3,1.8c1,1.2,1.5,2.8,1.6,4.7c0,0.2,0,0.5,0,0.9c0,0.4,0,0.7,0,0.9
	c-0.1,2-0.6,3.6-1.6,4.8C44.3,111.2,42.9,111.8,41,111.8L41,111.8z M40,108.9c2,0,3-1.2,3.2-3.7c0-0.2,0-0.5,0-0.8s0-0.6,0-0.8
	c-0.1-2.4-1.2-3.7-3.2-3.7c-1,0-1.8,0.3-2.4,1c-0.5,0.6-0.8,1.4-0.9,2.3l0,1.1l0,1.1c0.1,1,0.3,1.8,0.9,2.5S38.9,108.9,40,108.9
	L40,108.9z"/>
<path class="st0" d="M56.2,111.8c-2,0-3.7-0.6-4.9-1.8c-1.2-1.2-1.8-2.9-1.9-5l0-0.7l0-0.7c0.1-2.1,0.7-3.7,1.9-4.9
	c1.2-1.2,2.8-1.8,4.9-1.8c2.2,0,3.8,0.7,5,2c1.2,1.3,1.8,3.1,1.8,5.3v0.6c0,0.2-0.1,0.3-0.2,0.5c-0.1,0.1-0.3,0.2-0.5,0.2h-9.2v0.2
	c0,1,0.3,1.9,0.8,2.6c0.5,0.7,1.3,1,2.2,1c1.1,0,2-0.4,2.6-1.3c0.2-0.2,0.3-0.3,0.4-0.4c0.1-0.1,0.3-0.1,0.5-0.1H62
	c0.2,0,0.3,0.1,0.4,0.2c0.1,0.1,0.2,0.2,0.2,0.4c0,0.4-0.3,1-0.8,1.6c-0.5,0.6-1.3,1.1-2.2,1.5C58.6,111.6,57.5,111.8,56.2,111.8
	L56.2,111.8z M59.3,103.1L59.3,103.1c0-1.2-0.3-2-0.8-2.7c-0.5-0.7-1.3-1-2.2-1s-1.7,0.3-2.2,1c-0.5,0.7-0.8,1.5-0.8,2.6v0.1H59.3
	L59.3,103.1z"/>
<path class="st0" d="M71.4,111.8c-1.4,0-2.5-0.2-3.5-0.6c-0.9-0.4-1.6-0.9-2.1-1.5c-0.4-0.6-0.7-1.1-0.7-1.5c0-0.2,0.1-0.3,0.2-0.4
	c0.1-0.1,0.3-0.2,0.4-0.2H68c0.2,0,0.3,0.1,0.4,0.2c0.1,0.1,0.3,0.2,0.6,0.5c0.3,0.3,0.7,0.5,1.1,0.7c0.4,0.2,0.9,0.2,1.4,0.2
	c0.7,0,1.3-0.2,1.8-0.4s0.7-0.7,0.7-1.2c0-0.4-0.1-0.7-0.3-0.9c-0.2-0.2-0.6-0.4-1.1-0.6c-0.6-0.2-1.4-0.4-2.5-0.6
	c-1.6-0.3-2.7-0.8-3.5-1.5c-0.7-0.7-1.1-1.6-1.1-2.7c0-0.7,0.2-1.4,0.7-2.1c0.4-0.7,1.1-1.2,2-1.6c0.9-0.4,1.9-0.6,3.2-0.6
	s2.3,0.2,3.2,0.6c0.9,0.4,1.6,0.8,2,1.4c0.5,0.5,0.7,1,0.7,1.4c0,0.2-0.1,0.3-0.2,0.4c-0.1,0.1-0.2,0.2-0.4,0.2h-2
	c-0.2,0-0.3-0.1-0.5-0.2c-0.1-0.1-0.3-0.3-0.6-0.5c-0.3-0.3-0.6-0.5-1-0.6c-0.4-0.2-0.8-0.2-1.3-0.2c-0.7,0-1.2,0.2-1.6,0.4
	c-0.4,0.3-0.6,0.7-0.6,1.2c0,0.3,0.1,0.6,0.3,0.8c0.2,0.2,0.5,0.4,1.1,0.6c0.5,0.2,1.3,0.4,2.4,0.6c1.8,0.3,3,0.9,3.8,1.6
	c0.8,0.7,1.2,1.6,1.2,2.7c0,1.3-0.6,2.3-1.7,3.1C75,111.4,73.4,111.8,71.4,111.8L71.4,111.8z"/>
<path class="st0" d="M86.9,111.8c-2,0-3.7-0.6-4.9-1.7c-1.2-1.1-1.8-2.7-1.9-4.7l0-1.1l0-1.1c0.1-2,0.7-3.5,1.9-4.7
	c1.2-1.1,2.8-1.7,4.9-1.7c1.4,0,2.7,0.3,3.7,0.8c1,0.5,1.8,1.2,2.2,1.9c0.5,0.7,0.8,1.4,0.8,2.1c0,0.2-0.1,0.3-0.2,0.5
	c-0.1,0.1-0.3,0.2-0.5,0.2h-2.4c-0.2,0-0.3,0-0.4-0.1c-0.1-0.1-0.2-0.2-0.3-0.4c-0.3-0.7-0.6-1.2-1.1-1.5c-0.4-0.3-1-0.5-1.7-0.5
	c-0.9,0-1.7,0.3-2.2,0.9c-0.5,0.6-0.8,1.5-0.9,2.7l0,1l0,0.9c0.1,2.4,1.1,3.6,3.1,3.6c0.7,0,1.3-0.2,1.7-0.5
	c0.4-0.3,0.8-0.8,1.1-1.5c0.1-0.2,0.2-0.3,0.3-0.4c0.1-0.1,0.3-0.1,0.4-0.1h2.4c0.2,0,0.3,0.1,0.5,0.2c0.2,0.1,0.2,0.3,0.2,0.5
	c0,0.6-0.3,1.3-0.8,2.1c-0.5,0.7-1.2,1.4-2.2,1.9C89.6,111.5,88.4,111.8,86.9,111.8L86.9,111.8z"/>
<path class="st0" d="M100.6,111.8c-0.9,0-1.8-0.2-2.6-0.6c-0.8-0.4-1.4-0.9-1.8-1.5c-0.4-0.6-0.7-1.3-0.7-2.1c0-1.2,0.5-2.2,1.5-3
	c1-0.8,2.4-1.3,4.2-1.6l3.8-0.6v-0.6c0-0.8-0.2-1.4-0.6-1.8c-0.4-0.4-1.1-0.6-2-0.6c-0.6,0-1.1,0.1-1.5,0.4
	c-0.4,0.2-0.7,0.4-0.9,0.7c-0.2,0.2-0.4,0.4-0.4,0.5c-0.1,0.2-0.2,0.3-0.4,0.3H97c-0.2,0-0.3-0.1-0.4-0.2c-0.1-0.1-0.2-0.3-0.2-0.4
	c0-0.5,0.2-1,0.7-1.6c0.4-0.6,1.1-1.1,2-1.5c0.9-0.4,2-0.6,3.3-0.6c2.2,0,3.8,0.5,4.8,1.5s1.5,2.2,1.5,3.8v8.6
	c0,0.2-0.1,0.3-0.2,0.5c-0.1,0.1-0.3,0.2-0.5,0.2h-2.2c-0.2,0-0.3-0.1-0.5-0.2c-0.1-0.1-0.2-0.3-0.2-0.5v-1.1
	c-0.4,0.6-1,1.1-1.7,1.5C102.6,111.6,101.7,111.8,100.6,111.8L100.6,111.8z M101.6,109.2c1,0,1.8-0.3,2.5-1c0.6-0.7,1-1.6,1-2.9
	v-0.6l-2.8,0.4c-1.1,0.2-1.9,0.4-2.4,0.8c-0.5,0.4-0.8,0.8-0.8,1.3c0,0.6,0.2,1,0.8,1.4C100.3,109,100.9,109.2,101.6,109.2
	L101.6,109.2z"/>
<path class="st0" d="M111.4,116.8c-0.2,0-0.3-0.1-0.5-0.2c-0.1-0.1-0.2-0.3-0.2-0.5V97.9c0-0.2,0.1-0.4,0.2-0.5
	c0.1-0.1,0.3-0.2,0.5-0.2h2.2c0.2,0,0.4,0.1,0.5,0.2c0.1,0.1,0.2,0.3,0.2,0.5V99c1-1.4,2.5-2,4.4-2s3.3,0.6,4.3,1.8
	c1,1.2,1.5,2.7,1.6,4.7c0,0.2,0,0.5,0,1s0,0.8,0,1c-0.1,1.9-0.6,3.5-1.6,4.7c-1,1.2-2.4,1.8-4.3,1.8s-3.3-0.7-4.2-1.9v6.2
	c0,0.2-0.1,0.4-0.2,0.5c-0.1,0.1-0.3,0.2-0.5,0.2H111.4z M117.6,108.9c2,0,3.1-1.2,3.2-3.7c0-0.2,0-0.5,0-0.8s0-0.6,0-0.8
	c-0.1-2.4-1.2-3.7-3.2-3.7c-1.1,0-1.9,0.3-2.4,1s-0.8,1.5-0.9,2.5l0,1l0,1.1c0,0.9,0.3,1.7,0.9,2.4
	C115.8,108.5,116.6,108.8,117.6,108.9L117.6,108.9z"/>
<path class="st0" d="M133.5,111.8c-2,0-3.7-0.6-4.9-1.8c-1.2-1.2-1.8-2.9-1.9-5l0-0.7l0-0.7c0.1-2.1,0.7-3.7,1.9-4.9
	c1.2-1.2,2.8-1.8,4.9-1.8c2.2,0,3.9,0.7,5,2c1.2,1.3,1.8,3.1,1.8,5.3v0.6c0,0.2-0.1,0.3-0.2,0.5c-0.1,0.1-0.3,0.2-0.5,0.2h-9.2v0.2
	c0,1,0.3,1.9,0.8,2.6c0.5,0.7,1.3,1,2.2,1c1.1,0,2-0.4,2.6-1.3c0.2-0.2,0.3-0.3,0.4-0.4c0.1-0.1,0.3-0.1,0.5-0.1h2.4
	c0.2,0,0.3,0.1,0.4,0.2c0.1,0.1,0.2,0.2,0.2,0.4c0,0.4-0.3,1-0.8,1.6c-0.5,0.6-1.3,1.1-2.2,1.5C135.9,111.6,134.8,111.8,133.5,111.8
	L133.5,111.8z M136.6,103.1L136.6,103.1c0-1.2-0.3-2-0.8-2.7c-0.5-0.7-1.3-1-2.2-1s-1.7,0.3-2.2,1c-0.5,0.7-0.8,1.5-0.8,2.6v0.1
	H136.6L136.6,103.1z"/>
</svg>
