<?xml version="1.0" encoding="utf-8"?>
<!-- Generator: Adobe Illustrator 21.1.0, SVG Export Plug-In . SVG Version: 6.00 Build 0)  -->
<svg version="1.1" id="Layer_1" xmlns="http://www.w3.org/2000/svg" xmlns:xlink="http://www.w3.org/1999/xlink" x="0px" y="0px"
	 viewBox="0 0 375.3 157.3" style="enable-background:new 0 0 375.3 157.3;" xml:space="preserve">
<style type="text/css">
	.st0{stroke:#000000;stroke-width:8;stroke-linejoin:round;}
	.st1{stroke:#000000;stroke-width:8;stroke-miterlimit:10;}
	.st2{font-family:'HelveticaNeue-Medium';}
	.st3{font-size:96.1696px;}
	.st4{letter-spacing:12.6;}
</style>
<g>
	<g>
		<path d="M68.4,118.4c-0.5,0-1.1-0.2-1.5-0.7c-0.7-0.8-0.6-2,0.2-2.7l63.2-54c0.7-2.1,0.8-3.9,0.8-4.1c0-11.8-7.8-21.9-7.9-22
			c0,0-0.1-0.1-0.1-0.1c-10.8-16.9-26-22.3-33.4-24.9c-4.2-1.5-19.3-5.9-40-0.8c-16.8,4.1-31.3,15.4-39.6,31
			c-4,7.4-4.7,12.9-4.6,16.2c0,0.7,0.1,1.3,0.1,1.8c3.3-3.5,10-8.8,20.1-8.3c1,0,13.5,0.6,20.8,12.3c2.8-4.4,9.1-11.6,21.2-12.3
			c0.4,0,4.4-0.3,9.2,1.4c4,1.4,9.4,4.4,13.5,10.8c2.7-4.4,8.9-11.5,20.6-12.2c1-0.1,2,0.7,2,1.8c0.1,1.1-0.7,2-1.8,2
			c-14.1,0.8-18.7,12.6-18.9,13.1c-0.3,0.7-0.9,1.2-1.7,1.2c-0.7,0-1.5-0.4-1.8-1.1c-7-14.2-20.6-13.3-20.8-13.3c0,0,0,0,0,0
			c-14.6,0.9-19.4,12.8-19.6,13.3c-0.3,0.7-1,1.2-1.7,1.2c-0.8,0-1.5-0.4-1.8-1.1c-5.9-13-19-13.3-19.1-13.3c0,0,0,0-0.1,0
			C13,53.1,6.5,63.2,6.5,63.3c-0.4,0.6-1,0.9-1.7,0.9c-0.7,0-1.3-0.4-1.6-1C3,62.9-1.6,54.2,6.9,38.4C15.7,21.9,31,9.9,48.9,5.5
			c21.7-5.4,37.8-0.7,42.2,0.9c7.1,2.5,23.7,8.4,35.3,26.3c0.8,1.1,8.7,11.6,8.7,24.3c0,0.2-0.1,2.9-1.2,5.9
			c-0.1,0.3-0.3,0.6-0.5,0.8L69.6,118C69.3,118.3,68.8,118.4,68.4,118.4z"/>
	</g>
	<g>
		<path d="M68,118.1c-0.4,0-0.9-0.1-1.2-0.5L3.6,63.8c-0.8-0.7-0.9-1.9-0.2-2.7c0.7-0.8,1.9-0.9,2.7-0.2l63.2,53.9
			c0.8,0.7,0.9,1.9,0.2,2.7C69.1,117.9,68.6,118.1,68,118.1z"/>
	</g>
	<g>
		<path d="M68.2,118.1c-0.7,0-1.4-0.4-1.8-1.1L44.8,67c-0.4-1,0-2.1,1-2.5c1-0.4,2.1,0,2.5,1l21.7,50c0.4,1,0,2.1-1,2.5
			C68.7,118.1,68.5,118.1,68.2,118.1z"/>
	</g>
	<g>
		<path d="M68.4,118.4c-0.3,0-0.5-0.1-0.8-0.2c-1-0.4-1.4-1.5-1-2.5l22.1-50.4c0.4-1,1.6-1.4,2.5-1c1,0.4,1.4,1.5,1,2.5l-22.1,50.4
			C69.8,118,69.1,118.4,68.4,118.4z"/>
	</g>
	<g>
		<path d="M90.7,154H45.6c-1.1,0-1.9-0.9-1.9-1.9v-35.5c0-1.1,0.9-1.9,1.9-1.9h11.2c1.1,0,1.9,0.9,1.9,1.9s-0.9,1.9-1.9,1.9h-9.3
			v31.7h41.3v-31.7H68.7c-1.1,0-1.9-0.9-1.9-1.9s0.9-1.9,1.9-1.9h22c1.1,0,1.9,0.9,1.9,1.9v35.5C92.6,153.2,91.7,154,90.7,154z"/>
	</g>
	<g>
		<circle cx="55.8" cy="116.6" r="4.3"/>
	</g>
	<g>
		<circle cx="111.7" cy="51.7" r="4.3"/>
	</g>
	<g>
		<path d="M81.6,145.9c-1.1,0-1.9-0.9-1.9-1.9v-19.5c0-0.8,0.5-1.5,1.2-1.8c0.7-0.3,1.5-0.1,2.1,0.4l4.2,4.2c0.7,0.7,0.7,2,0,2.7
			c-0.7,0.7-2,0.7-2.7,0l-0.9-0.9V144C83.5,145.1,82.6,145.9,81.6,145.9z"/>
	</g>
	<g>
		<path d="M77.4,130.6c-0.5,0-1-0.2-1.3-0.6c-0.7-0.7-0.7-2,0-2.7l4.2-4.2c0.7-0.7,2-0.7,2.7,0c0.7,0.7,0.7,2,0,2.7l-4.2,4.2
			C78.4,130.4,77.9,130.6,77.4,130.6z"/>
	</g>
</g>
<text transform="matrix(1.1108 0 0 1 140.3255 151.0221)" class="st2 st3 st4">TUF</text>
</svg>
