<?xml version="1.0" encoding="utf-8"?>
<!-- Generator: Adobe Illustrator 21.1.0, SVG Export Plug-In . SVG Version: 6.00 Build 0)  -->
<svg version="1.1" id="Layer_1" xmlns="http://www.w3.org/2000/svg" xmlns:xlink="http://www.w3.org/1999/xlink" x="0px" y="0px"
	 viewBox="0 0 382 161" style="enable-background:new 0 0 382 161;" xml:space="preserve">
<style type="text/css">
	.st0{font-family:'HelveticaNeue-Medium';}
	.st1{font-size:96.1696px;}
	.st2{letter-spacing:11.7;}
</style>
<g>
	<g>
		<path d="M72.4,121.2c-0.5,0-1.1-0.2-1.5-0.7c-0.7-0.8-0.6-2,0.2-2.7l63.2-54c0.7-2.1,0.8-3.9,0.8-4.1c0-11.8-7.8-21.9-7.9-22
			l-0.1-0.1c-10.8-16.9-26-22.3-33.4-24.9c-4.2-1.5-19.3-5.9-40-0.8C37,16.1,22.6,27.4,14.2,43c-4,7.4-4.7,12.9-4.6,16.2
			c0,0.7,0.1,1.3,0.1,1.8c3.3-3.5,10-8.8,20.1-8.3c1,0,13.5,0.6,20.8,12.3c2.8-4.4,9.1-11.6,21.2-12.3c0.4,0,4.4-0.3,9.2,1.4
			c4,1.4,9.4,4.4,13.5,10.8c2.7-4.4,8.9-11.5,20.6-12.2c1-0.1,2,0.7,2,1.8c0.1,1.1-0.7,2-1.8,2c-14.1,0.8-18.7,12.6-18.9,13.1
			c-0.3,0.7-0.9,1.2-1.7,1.2c-0.7,0-1.5-0.4-1.8-1.1c-7-14.2-20.6-13.3-20.8-13.3l0,0c-14.6,0.9-19.4,12.8-19.6,13.3
			c-0.3,0.7-1,1.2-1.7,1.2c-0.8,0-1.5-0.4-1.8-1.1c-5.9-13-19-13.3-19.1-13.3c0,0,0,0-0.1,0c-12.6-0.6-19.1,9.5-19.1,9.6
			C10.3,66.7,9.7,67,9,67s-1.3-0.4-1.6-1c-0.4-0.3-5-9,3.5-24.8c8.8-16.5,24.1-28.5,42-32.9c21.7-5.4,37.8-0.7,42.2,0.9
			c7.1,2.5,23.7,8.4,35.3,26.3c0.8,1.1,8.7,11.6,8.7,24.3c0,0.2-0.1,2.9-1.2,5.9c-0.1,0.3-0.3,0.6-0.5,0.8l-63.6,54.3
			C73.3,121.1,72.9,121.2,72.4,121.2z"/>
	</g>
	<g>
		<path d="M72.1,120.9c-0.4,0-0.9-0.1-1.2-0.5L7.7,66.6c-0.8-0.7-0.9-1.9-0.2-2.7c0.7-0.8,1.9-0.9,2.7-0.2l63.2,53.9
			c0.8,0.7,0.9,1.9,0.2,2.7C73.1,120.7,72.6,120.9,72.1,120.9z"/>
	</g>
	<g>
		<path d="M72.3,120.9c-0.7,0-1.4-0.4-1.8-1.1l-21.7-50c-0.4-1,0-2.1,1-2.5s2.1,0,2.5,1l21.7,50c0.4,1,0,2.1-1,2.5
			C72.8,120.9,72.5,120.9,72.3,120.9z"/>
	</g>
	<g>
		<path d="M72.4,121.2c-0.3,0-0.5-0.1-0.8-0.2c-1-0.4-1.4-1.5-1-2.5l22.1-50.4c0.4-1,1.6-1.4,2.5-1c1,0.4,1.4,1.5,1,2.5L74.1,120
			C73.8,120.8,73.1,121.2,72.4,121.2z"/>
	</g>
	<g>
		<path d="M94.7,156.8H49.6c-1.1,0-1.9-0.9-1.9-1.9v-35.5c0-1.1,0.9-1.9,1.9-1.9h11.2c1.1,0,1.9,0.9,1.9,1.9s-0.9,1.9-1.9,1.9h-9.3
			V153h41.3v-31.7H72.7c-1.1,0-1.9-0.9-1.9-1.9s0.9-1.9,1.9-1.9h22c1.1,0,1.9,0.9,1.9,1.9v35.5C96.6,156,95.7,156.8,94.7,156.8z"/>
	</g>
	<g>
		<circle cx="59.8" cy="119.4" r="4.3"/>
	</g>
	<g>
		<circle cx="115.8" cy="54.5" r="4.3"/>
	</g>
	<g>
		<path d="M85.6,148.7c-1.1,0-1.9-0.9-1.9-1.9v-19.5c0-0.8,0.5-1.5,1.2-1.8s1.5-0.1,2.1,0.4l4.2,4.2c0.7,0.7,0.7,2,0,2.7
			s-2,0.7-2.7,0l-0.9-0.9v14.9C87.5,147.8,86.7,148.7,85.6,148.7z"/>
	</g>
	<g>
		<path d="M81.4,133.4c-0.5,0-1-0.2-1.3-0.6c-0.7-0.7-0.7-2,0-2.7l4.2-4.2c0.7-0.7,2-0.7,2.7,0s0.7,2,0,2.7l-4.2,4.2
			C82.4,133.2,81.9,133.4,81.4,133.4z"/>
	</g>
</g>
<text transform="matrix(1.1108 0 0 1 144.3564 153.8184)" class="st0 st1 st2">TUF</text>
</svg>
