<svg id="Layer_1" data-name="Layer 1" xmlns="http://www.w3.org/2000/svg" viewBox="0 0 650.26135 322.23603"><defs><style>.cls-1{fill:#fff;}</style></defs><path class="cls-1" d="M131.06517,308.52044c-5.71713-.00347-11.441-.08682-17.15467.04516-2.03874.04515-2.61886-.57308-2.54243-2.58066.15284-3.98039,0-7.96772.06953-11.95159.02077-1.4032-.205-2.275-1.84434-2.52855a71.95937,71.95937,0,0,1-12.69837-3.34132c-1.4831-.521-2.18819-.21186-2.91755,1.10451-1.97281,3.56708-4.11584,7.04384-6.09914,10.61091-.771,1.39279-1.37891,1.88948-3.01136.92738Q69.83627,291.9702,54.66665,283.3634c-1.49359-.84749-1.76791-1.556-.844-3.05649,2.084-3.38647,3.95261-6.90143,6.01572-10.30527.85444-1.40667,1.06983-2.36183-.43766-3.5879a67.8566,67.8566,0,0,1-9.08612-9.08613c-.99679-1.19829-1.72965-1.28164-3.02524-.4932-3.57049,2.17775-7.26606,4.1471-10.83665,6.32139-1.37191.837-2.00757.65645-2.81686-.75719q-8.71625-15.28595-17.60611-30.4677c-.837-1.424-.5939-2.04229.778-2.79253,3.5741-1.96587,7.04039-4.12626,10.61438-6.08868,1.34075-.73633,1.96941-1.31984,1.34075-3.02871a70.90985,70.90985,0,0,1-3.30656-12.39618c-.26743-1.56644-.96213-2.17081-2.63624-2.11524-3.98038.12852-7.96775-.04513-11.94463.07642-1.81657.059-2.48339-.36468-2.46611-2.341q.13546-17.31266-.00689-34.62177c-.01389-1.97284.646-2.39658,2.45212-2.341,3.97688.12157,7.96775-.0521,11.94463.07989,1.6846.05557,2.37231-.58351,2.63274-2.12565a73.61557,73.61557,0,0,1,3.28578-12.39965c.56263-1.58035.22578-2.33754-1.19479-3.11208-3.66779-2.00755-7.221-4.22351-10.8888-6.22761-1.33375-.72939-1.39629-1.36153-.68071-2.59456q8.94536-15.3276,17.77274-30.7282c.74335-1.30943,1.36153-1.3893,2.59808-.63214,3.65041,2.22987,7.4294,4.26175,11.05893,6.53328,1.52126.94819,2.35492.86485,3.43513-.63561,2.51116-3.47329,5.269-6.766,7.82529-10.20454.969-1.299,1.47611-1.5873,2.59458-.06251q9.76863,13.34262,19.756,26.52552c1.03855,1.365.4967,2.05618-.31258,3.10165-5.16478,6.69651-11.33335,12.67057-15.19565,20.3118-12.61156,24.93476-10.62137,49.352,4.39027,72.3,14.37587,21.98244,35.57346,32.95805,61.83492,32.97541,37.11911.02084,68.54546-28.69981,72.3626-65.48889,2.22635-21.47536-3.911-40.30409-17.96735-56.61813a18.00969,18.00969,0,0,0-1.93115-1.95548c-3.98037-3.35865-3.99076-3.35171-.76063-7.64817,5.1544-6.85627,10.39211-13.64656,15.404-20.60356,1.44484-2.0041,2.26462-1.83737,3.8553-.29523,3.14333,3.06,6.55419,5.85249,9.7009,8.90551,1.42067,1.38238,2.40358,1.64633,4.036.27092,2.88279-2.43479,6.047-4.5257,8.98882-6.89448,1.39979-1.12881,2.09788-1.36847,3.15381.50711,5.72053,10.12462,11.5764,20.1694,17.44977,30.20721.778,1.33373.74675,2.011-.712,2.80294-3.67829,1.98672-7.2314,4.19921-10.88881,6.22761-1.2886.7155-1.65333,1.38238-1.11148,2.88978a78.73959,78.73959,0,0,1,3.3761,12.69141,2.03576,2.03576,0,0,0,2.44862,1.96241c4.08118-.10769,8.17264.03819,12.25382-.06948,1.695-.04515,2.2819.42722,2.27151,2.20555q-.1094,17.46369-.0035,34.92742c.01389,1.84431-.67032,2.209-2.32016,2.16733-3.97688-.09725-7.96775.08337-11.94463-.07989-1.84084-.0764-2.54243.60089-2.82035,2.28891a77.05246,77.05246,0,0,1-3.28918,12.39618c-.46193,1.3372-.22227,1.97977.9934,2.65012,3.65741,2.02493,7.214,4.23392,10.88181,6.238,1.53864.844,1.62206,1.5873.75713,3.06343q-8.82039,15.0463-17.44288,30.20722c-.91348,1.61161-1.67411,1.5352-3.05641.69467-3.39347-2.06315-6.91531-3.93524-10.30529-6.0088-1.42406-.8718-2.31326-1.04894-3.52194.45848a61.84367,61.84367,0,0,1-8.85685,8.87773c-1.43445,1.18092-1.46222,2.08744-.54885,3.57054,2.0806,3.383,3.9561,6.90143,6.01922,10.29831.83716,1.38584.89959,2.17081-.712,3.08776q-15.16094,8.61723-30.20379,17.44633c-1.51426.88223-2.22635.71551-3.053-.81275-1.89289-3.4976-4.00116-6.87364-5.92891-10.35388-.79879-1.438-1.50388-2.03534-3.34122-1.37195A67.20091,67.20091,0,0,1,152.544,291.4909c-1.56991.24661-1.96592.98294-1.93465,2.45909.07993,3.98039-.10069,7.97468.07643,11.94813.10419,2.22985-.68082,2.72306-2.76821,2.67443-5.61632-.13546-11.23615-.04862-16.85237-.05211"/><path class="cls-1" d="M132.05369,131.37911c-1.22945.12158-1.43784-1.00029-1.92765-1.681-4.88686-6.79376-9.71828-13.62226-14.60164-20.41256a5.38242,5.38242,0,0,1-1.21568-3.33782c.05205-8.47482.08682-16.94618-.01738-25.421-.02427-1.92074.56613-2.43824,2.42435-2.37573,3.84142.13547,7.69683.04169,11.42016.04169.51758-.96905-.09031-1.40668-.40978-1.85476q-10.82627-15.2078-21.69079-30.39476c-.85094-1.1948-1.45183-2.23679-2.79947-.32647C95.88633,56.0365,88.45354,66.40078,81.05542,76.78594a1.0516,1.0516,0,0,0-.1007,1.40668c3.44552,0,7.09243.18756,10.70808-.06251,2.66062-.18409,3.15382.77454,3.126,3.24057-.14246,11.02074,0,22.045-.11469,33.06919a8.88036,8.88036,0,0,0,1.86172,5.60242c6.6375,9.17993,13.19846,18.40845,19.77342,27.63.64605.90653,1.19829,1.88252,1.79219,2.82726q6.73136,9.357,13.459,18.70716c3.82414,5.28286,7.6204,10.5831,11.4897,15.83125a5.30161,5.30161,0,0,1,.69809,3.49759c.01049,11.32294.07642,22.64935-.05554,33.96532-.02777,2.33406.63905,2.92105,2.90017,2.84462,4.89046-.17712,9.78781-.10419,14.68167-.02083,1.54214.0243,2.13254-.36123,2.12565-2.0284q-.08347-22.79868-.0035-45.59389a5.41506,5.41506,0,0,0-1.33725-3.29617q-7.82523-10.94606-15.6402-21.90257a6.053,6.053,0,0,1-1.53175-2.605,72.14729,72.14729,0,0,1-6.99513-9.44386c-2.01457-2.97314-4.79316-5.47739-5.83871-9.07573"/><path class="cls-1" d="M132.56482,131.37911c1.04554,3.59834,3.82413,6.10259,5.8387,9.07573a72.14729,72.14729,0,0,0,6.99513,9.44386q11.35254-15.76,22.71885-31.51663c.81268-1.12187.64944-2.31669.65294-3.52192.01039-20.93006.059-41.86358-.06254-62.79017-.01738-2.72652.68771-3.59484,3.39-3.35171a79.04385,79.04385,0,0,0,8.26645.04168c.76752-.01044,1.79918.41678,2.25762-.36818.47932-.82317-.43416-1.47266-.87871-2.09785q-8.70591-12.2121-17.45677-24.39294c-1.36852-1.90337-2.78219-3.78243-4.08807-5.73093-.8927-1.33723-1.53175-1.29207-2.45562.00347-7.56486,10.6387-15.16787,21.24267-23.28847,32.60379,4.16449,0,7.66555.2223,11.125-.06946,3.02874-.257,3.68868.77107,3.6643,3.69557-.14935,17.45676-.10759,34.91353-.04166,52.37724a8.47685,8.47685,0,0,1-1.74354,5.33845c-4.52223,6.172-8.96115,12.40659-13.38957,18.64809-.57312.80928-1.41368,1.50743-1.504,2.61191"/><path class="cls-1" d="M132.073,169.20534q-6.73119-9.35183-13.459-18.70712c-5.81772,8.124-11.61117,16.26541-17.474,24.35472a5.36453,5.36453,0,0,0-1.01768,3.39687c.02078,14.79622.059,29.589-.02777,44.38518-.014,2.18122.64595,2.77515,2.76121,2.70916q7.18974-.224,14.38287-.01041c2.04584.059,2.56681-.63908,2.54942-2.605-.08331-11.32641-.01038-22.64934-.07292-33.97572a7.4144,7.4144,0,0,1,1.47271-4.80705c3.68168-4.873,7.26606-9.819,10.8852-14.74066"/><path class="cls-1" d="M299.28062,137.60721c1.00931,0,1.70128.54764,2.56625,1.98994,1.84561,3.48854,5.13351,5.30548,9.834,5.30548,5.76715,0,9.401-2.73924,9.401-7.12243,0-3.66255-2.1916-5.88281-7.18078-7.2381l-6.34447-1.731c-6.20014-1.70128-9.28537-5.07517-9.28537-10.20869,0-6.63211,5.27683-11.044,13.14958-11.044a15.05526,15.05526,0,0,1,9.63238,3.08523,8.02647,8.02647,0,0,1,3.2009,5.79682,1.71961,1.71961,0,0,1-1.78829,1.87427,1.89463,1.89463,0,0,1-1.98994-1.44229c-1.09529-3.4609-4.58485-5.6525-8.968-5.6525-5.4795,0-8.99773,2.79759-8.99773,7.12346,0,3.28688,2.01861,5.4795,6.17148,6.60345l6.20014,1.731c7.2381,1.98892,10.29467,5.16115,10.29467,10.66932,0,6.92077-5.33415,11.24664-13.75557,11.24664-4.29618,0-8.07441-1.15363-10.46766-3.2009-2.1916-1.84561-3.48956-3.97988-3.48956-5.7958A1.8219,1.8219,0,0,1,299.28062,137.60721Z"/><path class="cls-1" d="M332.70324,130.42643c0-8.07441,5.0465-13.35226,12.2846-13.35226,7.03645,0,11.997,5.13352,11.997,12.91926,0,2.76893-.519,3.60523-2.30726,3.60523H336.71178v1.644c0,5.91147,3.40255,9.4297,8.88205,9.4297a8.80732,8.80732,0,0,0,6.71912-2.88358c1.298-1.298,1.6153-1.49962,2.30727-1.49962a1.66561,1.66561,0,0,1,1.61427,1.7586,4.972,4.972,0,0,1-1.61427,3.05657c-1.817,1.93262-5.27785,3.14357-9.19938,3.14357-7.90142,0-12.7176-4.95949-12.7176-13.23658Zm20.273-.28867v-.086c0-5.82549-3.11491-9.45938-7.98843-9.45938-4.93083,0-8.27606,3.74956-8.27606,9.45938v.086Z"/><path class="cls-1" d="M368.28878,148.01755a1.968,1.968,0,0,1-2.0186-2.22129V119.52577a1.98159,1.98159,0,0,1,2.0186-2.22026,1.95545,1.95545,0,0,1,1.96026,2.22026V121.573h.11567a7.71746,7.71746,0,0,1,7.12243-4.49886,4.07671,4.07671,0,0,1,2.04829.433,1.58536,1.58536,0,0,1,.92229,1.49962,1.50558,1.50558,0,0,1-.92229,1.55694,5.04724,5.04724,0,0,1-2.077.28867c-4.49887,0-7.20944,2.56624-7.20944,8.01708v16.92678C370.249,147.18124,369.5284,148.01755,368.28878,148.01755Z"/><path class="cls-1" d="M386.63022,120.88106a4.26123,4.26123,0,0,1-.31733-1.52828,1.95825,1.95825,0,0,1,1.96128-1.93262c1.09631,0,1.72994.606,2.1916,2.04829l7.69976,24.1659h.173l8.10308-24.1659c.49032-1.471,1.125-2.04829,2.16293-2.04829a1.88419,1.88419,0,0,1,1.87427,1.93262,4.235,4.235,0,0,1-.346,1.52828l-8.47772,23.3296c-1.125,3.11491-1.75962,3.80689-3.31657,3.80689-1.644,0-2.33592-.779-3.40255-3.80689Z"/><path class="cls-1" d="M416.47728,130.42643c0-8.07441,5.04651-13.35226,12.28461-13.35226,7.03645,0,11.997,5.13352,11.997,12.91926,0,2.76893-.519,3.60523-2.30727,3.60523H420.48583v1.644c0,5.91147,3.40255,9.4297,8.882,9.4297a8.80732,8.80732,0,0,0,6.71912-2.88358c1.298-1.298,1.6153-1.49962,2.30727-1.49962a1.66561,1.66561,0,0,1,1.61427,1.7586,4.972,4.972,0,0,1-1.61427,3.05657c-1.817,1.93262-5.27785,3.14357-9.19938,3.14357-7.90142,0-12.71761-4.95949-12.71761-13.23658Zm20.273-.28867v-.086c0-5.82549-3.11491-9.45938-7.98843-9.45938-4.93083,0-8.27606,3.74956-8.27606,9.45938v.086Z"/><path class="cls-1" d="M452.06283,148.01755a1.968,1.968,0,0,1-2.0186-2.22129V119.52577a1.98159,1.98159,0,0,1,2.0186-2.22026,1.95545,1.95545,0,0,1,1.96026,2.22026V121.573h.11567a7.71746,7.71746,0,0,1,7.12243-4.49886,4.07671,4.07671,0,0,1,2.04829.433,1.58536,1.58536,0,0,1,.92229,1.49962,1.50558,1.50558,0,0,1-.92229,1.55694,5.04724,5.04724,0,0,1-2.077.28867c-4.49887,0-7.20944,2.56624-7.20944,8.01708v16.92678C454.02309,147.18124,453.30245,148.01755,452.06283,148.01755Z"/><path class="cls-1" d="M472.15673,145.79626V108.36511a2.00189,2.00189,0,1,1,3.97988,0v37.43115a2.002,2.002,0,1,1-3.97988,0Z"/><path class="cls-1" d="M485.77,130.42643c0-8.07441,5.04651-13.35226,12.28461-13.35226,7.03645,0,11.997,5.13352,11.997,12.91926,0,2.76893-.519,3.60523-2.30727,3.60523H489.77855v1.644c0,5.91147,3.40256,9.4297,8.88206,9.4297a8.80734,8.80734,0,0,0,6.71912-2.88358c1.298-1.298,1.61529-1.49962,2.30727-1.49962a1.6656,1.6656,0,0,1,1.61426,1.7586,4.972,4.972,0,0,1-1.61426,3.05657c-1.817,1.93262-5.27785,3.14357-9.19938,3.14357-7.90142,0-12.71761-4.95949-12.71761-13.23658Zm20.273-.28867v-.086c0-5.82549-3.11491-9.45938-7.98842-9.45938-4.93084,0-8.27607,3.74956-8.27607,9.45938v.086Z"/><path class="cls-1" d="M519.27758,139.59715c.72064,0,1.24065.37465,2.04727,1.4986a8.76976,8.76976,0,0,0,7.6711,3.77822c4.15287,0,7.03644-1.87427,7.03644-5.10383,0-2.48026-1.90293-4.09555-4.75784-4.81619l-5.53682-1.32662c-5.10486-1.23962-7.69977-3.74854-7.69977-7.95874,0-5.27785,4.18154-8.59442,10.64066-8.59442a13.78675,13.78675,0,0,1,7.6711,2.10561c1.87427,1.32663,2.94089,3.11389,2.94089,4.49887a1.61965,1.61965,0,0,1-1.72993,1.72993c-.80765,0-1.211-.28866-2.16294-1.41261a7.7746,7.7746,0,0,0-6.86345-3.54791c-3.9502,0-6.54613,1.817-6.54613,4.93186,0,2.45058,1.61529,3.92154,4.87351,4.75784l5.33517,1.32663c5.10486,1.298,7.75709,3.6339,7.75709,7.95874,0,5.53785-4.46918,8.82473-11.15964,8.82473a15.83583,15.83583,0,0,1-7.87275-1.96128c-2.13428-1.23961-3.4609-3.14255-3.4609-4.81516A1.712,1.712,0,0,1,519.27758,139.59715Z"/><path class="cls-1" d="M548.95268,139.59715c.72063,0,1.24064.37465,2.04726,1.4986a8.76977,8.76977,0,0,0,7.6711,3.77822c4.15288,0,7.03645-1.87427,7.03645-5.10383,0-2.48026-1.90294-4.09555-4.75785-4.81619l-5.53682-1.32662c-5.10485-1.23962-7.69976-3.74854-7.69976-7.95874,0-5.27785,4.18154-8.59442,10.64065-8.59442a13.78675,13.78675,0,0,1,7.6711,2.10561c1.87427,1.32663,2.9409,3.11389,2.9409,4.49887a1.61965,1.61965,0,0,1-1.72994,1.72993c-.80765,0-1.211-.28866-2.16294-1.41261a7.77459,7.77459,0,0,0-6.86345-3.54791c-3.95019,0-6.54613,1.817-6.54613,4.93186,0,2.45058,1.6153,3.92154,4.87352,4.75784l5.33517,1.32663c5.10485,1.298,7.75708,3.6339,7.75708,7.95874,0,5.53785-4.46918,8.82473-11.15964,8.82473a15.83583,15.83583,0,0,1-7.87275-1.96128c-2.13427-1.23961-3.4609-3.14255-3.4609-4.81516A1.712,1.712,0,0,1,548.95268,139.59715Z"/><path class="cls-1" d="M296.42571,178.91383a5.93833,5.93833,0,0,1-.20165-1.471,2.12813,2.12813,0,0,1,2.22026-2.19159c1.09631,0,1.90293.89363,2.2786,2.48026l7.35275,31.0007h.23134l7.87276-30.82771c.432-1.72994,1.26828-2.59491,2.71057-2.59491,1.471,0,2.27759.865,2.71058,2.59491l7.84409,30.82771h.23032l7.38244-31.0007c.37465-1.58663,1.18229-2.48026,2.2786-2.48026a2.12871,2.12871,0,0,1,2.22026,2.19159,5.93792,5.93792,0,0,1-.20166,1.471l-9.11339,33.45128c-.605,2.13427-1.15261,2.74026-2.50893,2.74026-1.38395,0-2.10458-.75032-2.62356-2.74026L319.006,182.2304h-.23134l-8.10307,30.13471c-.519,2.0186-1.24064,2.74026-2.62459,2.74026-1.35529,0-1.93159-.606-2.50892-2.74026Z"/><path class="cls-1" d="M371.94929,197.54291v4.75785c0,8.45008-5.50817,13.20792-12.65926,13.20792-7.20944,0-12.68894-4.75784-12.68894-13.20792v-4.75785c0-8.47874,5.4795-13.20792,12.68894-13.20792C366.44112,184.335,371.94929,189.09385,371.94929,197.54291Zm-21.311.433v3.89287c0,6.28613,3.4609,10.06435,8.65174,10.06435,5.2195,0,8.65072-3.74956,8.65072-10.06435v-3.89287c0-6.17148-3.45988-10.06435-8.65072-10.06435S350.63829,191.77577,350.63829,197.97591Z"/><path class="cls-1" d="M383.36893,215.27836a1.968,1.968,0,0,1-2.0186-2.22128V186.78659a1.98159,1.98159,0,0,1,2.0186-2.22026,1.95544,1.95544,0,0,1,1.96025,2.22026v2.04726h.11567a7.71749,7.71749,0,0,1,7.12244-4.49886,4.07678,4.07678,0,0,1,2.04828.433,1.58537,1.58537,0,0,1,.9223,1.49963,1.50559,1.50559,0,0,1-.9223,1.55694,5.04724,5.04724,0,0,1-2.077.28866c-4.49886,0-7.20944,2.56625-7.20944,8.01709v16.92678C385.32918,214.44206,384.60855,215.27836,383.36893,215.27836Z"/><path class="cls-1" d="M405.27875,215.27836c-1.24064,0-1.96128-.8363-1.96128-2.22128V175.62593c0-1.35529.72064-2.22026,1.96128-2.22026a1.98211,1.98211,0,0,1,2.0186,2.22026v23.01329h.14433l13.35124-13.20792a2.75393,2.75393,0,0,1,1.93261-1.09631,1.61463,1.61463,0,0,1,1.64293,1.67261,2.40425,2.40425,0,0,1-.89363,1.731l-9.747,9.747,10.84333,14.01455a2.91094,2.91094,0,0,1,.72064,1.75962,1.898,1.898,0,0,1-1.84561,1.84561c-.66331,0-1.23962-.40434-1.90293-1.2693l-10.64168-13.72691-3.60421,3.37389v9.574A1.96848,1.96848,0,0,1,405.27875,215.27836Z"/><path class="cls-1" d="M436.99292,215.27836a1.9484,1.9484,0,0,1-1.98994-2.22128V188.28621h-2.99822a1.70135,1.70135,0,0,1-1.904-1.72994,1.6675,1.6675,0,0,1,1.904-1.7023H435.003v-3.22956c0-5.59415,2.7116-8.2474,8.19008-8.2474a6.12559,6.12559,0,0,1,3.31657.7493,1.75711,1.75711,0,0,1,.779,1.44229,1.45345,1.45345,0,0,1-1.558,1.557c-1.06662,0-1.55694-.23032-2.91223-.23032-2.59491,0-3.83555,1.38395-3.83555,4.49886V184.854h5.01784a1.7253,1.7253,0,1,1,0,3.43224h-5.01784v24.77087A1.9479,1.9479,0,0,1,436.99292,215.27836Z"/><path class="cls-1" d="M454.57278,213.05708V175.62593a2.00189,2.00189,0,1,1,3.97988,0v37.43115a2.002,2.002,0,1,1-3.97988,0Z"/><path class="cls-1" d="M493.53426,197.54291v4.75785c0,8.45008-5.50816,13.20792-12.65926,13.20792-7.20944,0-12.68894-4.75784-12.68894-13.20792v-4.75785c0-8.47874,5.4795-13.20792,12.68894-13.20792C488.0261,184.335,493.53426,189.09385,493.53426,197.54291Zm-21.311.433v3.89287c0,6.28613,3.4609,10.06435,8.65174,10.06435,5.2195,0,8.65072-3.74956,8.65072-10.06435v-3.89287c0-6.17148-3.45988-10.06435-8.65072-10.06435S472.22326,191.77577,472.22326,197.97591Z"/><path class="cls-1" d="M500.3107,188.17054a5.13172,5.13172,0,0,1-.20165-1.35529,2.029,2.029,0,0,1,2.10459-2.10459c1.038,0,1.81694.778,2.16293,2.30624l5.42116,22.782h.173l6.20014-21.33966c.866-3.17223,1.35529-3.80689,2.97058-3.80689,1.58663,0,2.04726.606,2.97058,3.80689l6.31479,21.33966h.20268l5.53682-22.8966c.346-1.4423,1.038-2.22128,2.0186-2.22128a1.79439,1.79439,0,0,1,1.90294,1.87529,4.69491,4.69491,0,0,1-.23032,1.29694l-6.34447,23.61826c-.80765,3.11492-1.384,3.80689-2.88357,3.80689-1.52829,0-2.16294-.66331-3.11492-3.80689l-6.31581-20.90768h-.11464L512.884,211.47147c-.89466,3.11492-1.41364,3.80689-2.97058,3.80689-1.644,0-2.22026-.66331-3.08523-3.80689Z"/><path class="cls-1" d="M299.28062,271.78285c1.00931,0,1.70128.54765,2.56625,1.98994,1.84561,3.48854,5.13351,5.30549,9.834,5.30549,5.76715,0,9.401-2.73924,9.401-7.12243,0-3.66256-2.1916-5.88282-7.18078-7.23811l-6.34447-1.731c-6.20014-1.70127-9.28537-5.07517-9.28537-10.20868,0-6.63211,5.27683-11.044,13.14958-11.044a15.05532,15.05532,0,0,1,9.63238,3.08523,8.02651,8.02651,0,0,1,3.2009,5.79683,1.71961,1.71961,0,0,1-1.78829,1.87427,1.89464,1.89464,0,0,1-1.98994-1.4423c-1.09529-3.4609-4.58485-5.65249-8.968-5.65249-5.4795,0-8.99773,2.79758-8.99773,7.12345,0,3.28688,2.01861,5.4795,6.17148,6.60345l6.20014,1.731c7.2381,1.98892,10.29467,5.16116,10.29467,10.66932,0,6.92078-5.33415,11.24665-13.75557,11.24665-4.29618,0-8.07441-1.15364-10.46766-3.2009-2.1916-1.84561-3.48956-3.97988-3.48956-5.79581A1.8219,1.8219,0,0,1,299.28062,271.78285Z"/><path class="cls-1" d="M335.99114,292.74786c-1.24064,0-1.96128-.866-1.96128-2.22128v-36.7965c0-1.41261.692-2.24892,1.87427-2.24892,1.211,0,1.904.83631,1.904,2.24892v3.08523h.20165c1.09529-2.9409,4.44052-5.56549,9.314-5.56549,7.00779,0,11.564,4.96052,11.564,12.77493v5.59517c0,8.01709-4.75784,12.80359-11.737,12.80359-4.61351,0-7.6711-2.27758-8.93938-5.27682h-.20166v13.37989A1.983,1.983,0,0,1,335.99114,292.74786ZM346.6318,278.848c5.01784,0,8.27606-3.57657,8.27606-10.18v-3.69122c0-6.51746-3.17121-10.15033-8.39173-10.15033-5.30549,0-8.50639,3.80586-8.50639,9.45836v5.56549C338.00974,275.0984,341.49931,278.848,346.6318,278.848Z"/><path class="cls-1" d="M367.10751,264.60207c0-8.07441,5.04651-13.35225,12.28461-13.35225,7.03644,0,11.997,5.13351,11.997,12.91926,0,2.76892-.519,3.60523-2.30727,3.60523H371.116v1.64395c0,5.91148,3.40256,9.4297,8.88206,9.4297a8.80737,8.80737,0,0,0,6.71912-2.88357c1.298-1.298,1.61529-1.49962,2.30727-1.49962a1.6656,1.6656,0,0,1,1.61426,1.7586,4.972,4.972,0,0,1-1.61426,3.05656c-1.81695,1.93262-5.27785,3.14358-9.19939,3.14358-7.90141,0-12.7176-4.9595-12.7176-13.23659Zm20.273-.28866v-.086c0-5.82549-3.11491-9.45938-7.98842-9.45938-4.93084,0-8.27607,3.74957-8.27607,9.45938v.086Z"/><path class="cls-1" d="M399.43381,264.16908c0-7.87276,4.52753-12.91926,12.19862-12.91926a13.527,13.527,0,0,1,7.09377,1.84561c2.01861,1.24064,3.71988,3.23058,3.71988,5.01784a1.72737,1.72737,0,0,1-1.7586,1.93262,2.63094,2.63094,0,0,1-2.19159-1.52828,7.84073,7.84073,0,0,0-6.86346-3.66256c-5.33517,0-8.19008,3.83555-8.19008,9.574v4.7865c0,5.70982,2.79759,9.574,8.24741,9.574a7.97976,7.97976,0,0,0,6.89211-3.57554,2.78921,2.78921,0,0,1,2.16294-1.52828,1.73378,1.73378,0,0,1,1.75962,1.90293c0,1.75962-1.58663,3.7209-3.74956,5.0465a13.47654,13.47654,0,0,1-6.9781,1.78829c-7.8441,0-12.343-5.01785-12.343-12.97659Z"/><path class="cls-1" d="M434.2414,241.35846a2.70692,2.70692,0,0,1,2.82624,2.74026,2.78329,2.78329,0,1,1-5.56651,0A2.70287,2.70287,0,0,1,434.2414,241.35846Zm.02866,40.83473a1.96259,1.96259,0,0,1-1.98994-2.22128V253.70142a1.96717,1.96717,0,0,1,2.0186-2.22026,1.94216,1.94216,0,0,1,1.96128,2.22026v26.27049A1.94839,1.94839,0,0,1,434.27006,282.19319Z"/><path class="cls-1" d="M450.91227,282.19319a1.9484,1.9484,0,0,1-1.98994-2.22128V255.201h-2.99822a1.70135,1.70135,0,0,1-1.904-1.72994,1.6675,1.6675,0,0,1,1.904-1.7023h2.99822v-3.22956c0-5.59415,2.7116-8.2474,8.19008-8.2474a6.12565,6.12565,0,0,1,3.31656.74929,1.75715,1.75715,0,0,1,.779,1.4423,1.45345,1.45345,0,0,1-1.558,1.557c-1.06662,0-1.55694-.23032-2.91223-.23032-2.59491,0-3.83555,1.38395-3.83555,4.49886v3.45988h5.01784a1.7253,1.7253,0,1,1,0,3.43224h-5.01784v24.77087A1.9479,1.9479,0,0,1,450.91227,282.19319Z"/><path class="cls-1" d="M470.24663,241.35846a2.70692,2.70692,0,0,1,2.82625,2.74026,2.78329,2.78329,0,1,1-5.56651,0A2.70287,2.70287,0,0,1,470.24663,241.35846Zm.02866,40.83473a1.96259,1.96259,0,0,1-1.98994-2.22128V253.70142a1.96717,1.96717,0,0,1,2.0186-2.22026,1.94215,1.94215,0,0,1,1.96128,2.22026v26.27049A1.94839,1.94839,0,0,1,470.27529,282.19319Z"/><path class="cls-1" d="M482.01533,264.16908c0-7.87276,4.52752-12.91926,12.19862-12.91926a13.527,13.527,0,0,1,7.09377,1.84561c2.0186,1.24064,3.71988,3.23058,3.71988,5.01784a1.72737,1.72737,0,0,1-1.7586,1.93262,2.631,2.631,0,0,1-2.1916-1.52828,7.8407,7.8407,0,0,0-6.86345-3.66256c-5.33517,0-8.19008,3.83555-8.19008,9.574v4.7865c0,5.70982,2.79759,9.574,8.24741,9.574a7.97977,7.97977,0,0,0,6.89211-3.57554,2.78921,2.78921,0,0,1,2.16293-1.52828,1.73378,1.73378,0,0,1,1.75963,1.90293c0,1.75962-1.58663,3.7209-3.74957,5.0465a13.4765,13.4765,0,0,1-6.9781,1.78829c-7.84409,0-12.34295-5.01785-12.34295-12.97659Z"/><path class="cls-1" d="M522.6484,282.42351c-5.88281,0-9.833-3.71988-9.833-9.19938,0-5.44982,3.92154-8.79505,10.46767-8.79505h8.39173v-3.31657c0-4.18153-2.50892-6.37313-7.15109-6.37313a7.60432,7.60432,0,0,0-6.57582,3.40255,2.189,2.189,0,0,1-1.93159,1.0093,1.51415,1.51415,0,0,1-1.58663-1.64293c0-1.58663,1.26931-3.31656,3.48956-4.64319a13.02141,13.02141,0,0,1,6.83479-1.61529c7.00779,0,10.90066,3.4609,10.90066,9.747v18.94641c0,1.385-.72063,2.22128-1.93261,2.22128-1.211,0-1.9316-.83631-1.9316-2.22128V277.637h-.173A9.94794,9.94794,0,0,1,522.6484,282.42351Zm.952-3.48956c4.58485,0,8.07441-3.17224,8.07441-7.32409V267.889h-8.30473c-4.12421,0-6.43148,1.87529-6.43148,5.24918C516.93858,276.598,519.59184,278.934,523.60038,278.934Z"/><path class="cls-1" d="M547.67928,255.201H544.939a1.69481,1.69481,0,0,1-1.90294-1.70128,1.67284,1.67284,0,0,1,1.90294-1.731h2.74026v-5.42116a2.00143,2.00143,0,1,1,3.97886,0v5.42116H556.59a1.67283,1.67283,0,0,1,1.90293,1.731A1.6948,1.6948,0,0,1,556.59,255.201h-4.93186v19.29239c0,3.37389,1.039,4.35453,4.09555,4.35453.98064,0,1.55694-.087,2.07592-.087a1.47751,1.47751,0,0,1,1.6153,1.52829,1.62074,1.62074,0,0,1-1.09631,1.58663,7.80381,7.80381,0,0,1-3.25823.49032c-5.39249,0-7.41109-2.01861-7.41109-8.1041Z"/><path class="cls-1" d="M569.2902,241.35846a2.70692,2.70692,0,0,1,2.82625,2.74026,2.78329,2.78329,0,1,1-5.56651,0A2.70287,2.70287,0,0,1,569.2902,241.35846Zm.02866,40.83473a1.96259,1.96259,0,0,1-1.98994-2.22128V253.70142a1.96717,1.96717,0,0,1,2.0186-2.22026,1.94216,1.94216,0,0,1,1.96128,2.22026v26.27049A1.94839,1.94839,0,0,1,569.31886,282.19319Z"/><path class="cls-1" d="M606.4071,264.45774v4.75784c0,8.45009-5.50817,13.20793-12.65926,13.20793-7.20944,0-12.68894-4.75784-12.68894-13.20793v-4.75784c0-8.47874,5.4795-13.20792,12.68894-13.20792C600.89893,251.24982,606.4071,256.00868,606.4071,264.45774Zm-21.311.433v3.89287c0,6.28613,3.4609,10.06435,8.65174,10.06435,5.2195,0,8.65071-3.74956,8.65071-10.06435v-3.89287c0-6.17148-3.45987-10.06435-8.65071-10.06435S585.0961,258.6906,585.0961,264.89074Z"/><path class="cls-1" d="M637.63811,282.19319a1.9479,1.9479,0,0,1-1.98994-2.22128v-17.4171c0-4.9032-2.53758-7.72842-7.18078-7.72842-5.42115,0-8.6804,3.95019-8.6804,9.92v15.2255a2.002,2.002,0,1,1-3.97988,0V253.73008a1.992,1.992,0,0,1,2.01963-2.24892c1.211,0,1.96025.865,1.96025,2.24892v3.66255h.20166c1.212-3.71988,4.4702-6.14281,9.37237-6.14281,6.4018,0,10.2957,3.69121,10.2957,10.1227v18.59939A1.96849,1.96849,0,0,1,637.63811,282.19319Z"/></svg>