<?xml version="1.0" encoding="UTF-8" standalone="no"?>
<svg
   xmlns:dc="http://purl.org/dc/elements/1.1/"
   xmlns:cc="http://creativecommons.org/ns#"
   xmlns:rdf="http://www.w3.org/1999/02/22-rdf-syntax-ns#"
   xmlns:svg="http://www.w3.org/2000/svg"
   xmlns="http://www.w3.org/2000/svg"
   viewBox="0 0 566.93335 566.93335"
   height="566.93335"
   width="566.93335"
   xml:space="preserve"
   id="svg2"
   version="1.1"><metadata
     id="metadata8"><rdf:RDF><cc:Work
         rdf:about=""><dc:format>image/svg+xml</dc:format><dc:type
           rdf:resource="http://purl.org/dc/dcmitype/StillImage" /></cc:Work></rdf:RDF></metadata><defs
     id="defs6"><clipPath
       id="clipPath18"
       clipPathUnits="userSpaceOnUse"><path
         id="path16"
         d="M 0,425.2 H 425.2 V 0 H 0 Z" /></clipPath></defs><g
     transform="matrix(1.3333333,0,0,-1.3333333,0,566.93333)"
     id="g10"><g
       id="g12"><g
         clip-path="url(#clipPath18)"
         id="g14"><g
           transform="translate(305.8906,290.0034)"
           id="g20"><path
             id="path22"
             style="fill:none;stroke:#000000;stroke-width:8;stroke-linecap:round;stroke-linejoin:round;stroke-miterlimit:10;stroke-dasharray:none;stroke-opacity:1"
             d="m 0,0 c -34.12,-1.919 -45.215,-31.385 -45.215,-31.385 -16.74,34.174 -49.693,31.418 -49.693,31.418 -35.221,-2.06 -46.728,-31.788 -46.728,-31.788 -14.124,31.189 -45.728,31.701 -45.728,31.701 -30.384,1.515 -45.728,-23.05 -45.728,-23.05 0,0 -9.612,17.491 8.054,50.505 17.667,33.015 48.833,60.048 89.481,70.07 40.649,10.023 73.421,4.129 90.16,-1.798 16.739,-5.926 51.038,-18.34 75.303,-56.222 0,0 18.249,-23.236 18.249,-50.959 0,0 -0.131,-5.388 -2.418,-11.395 l -139.51,-119.096" /></g><g
           transform="translate(321.814,290.0596)"
           id="g24"><path
             id="path26"
             style="fill:#0082ca;fill-opacity:1;fill-rule:nonzero;stroke:none"
             d="m 0,0 c 0,-4.635 -3.758,-8.394 -8.396,-8.394 -4.635,0 -8.394,3.759 -8.394,8.394 0,4.637 3.759,8.396 8.394,8.396 C -3.758,8.396 0,4.637 0,0" /></g><g
           transform="translate(72.7983,266.8989)"
           id="g28"><path
             id="path30"
             style="fill:none;stroke:#000000;stroke-width:8;stroke-linecap:round;stroke-linejoin:round;stroke-miterlimit:10;stroke-dasharray:none;stroke-opacity:1"
             d="M 0,0 138.577,-118.241" /></g><g
           transform="translate(164.2544,258.2485)"
           id="g32"><path
             id="path34"
             style="fill:none;stroke:#000000;stroke-width:8;stroke-linecap:round;stroke-linejoin:round;stroke-miterlimit:10;stroke-dasharray:none;stroke-opacity:1"
             d="M 0,0 47.545,-109.59" /></g><g
           transform="translate(260.6758,258.6182)"
           id="g36"><path
             id="path38"
             style="fill:none;stroke:#000000;stroke-width:8;stroke-linecap:round;stroke-linejoin:round;stroke-miterlimit:10;stroke-dasharray:none;stroke-opacity:1"
             d="M 0,0 -48.558,-110.614" /></g><g
           transform="translate(212.7153,147.8193)"
           id="g40"><path
             id="path42"
             style="fill:none;stroke:#000000;stroke-width:8;stroke-linecap:round;stroke-linejoin:round;stroke-miterlimit:4;stroke-dasharray:none;stroke-opacity:1"
             d="M 0,0 H 48.248 V -77.886 H -50.64 V 0 h 24.565" /></g><g
           transform="translate(191.7856,148.0034)"
           id="g44"><path
             id="path46"
             style="fill:#0082ca;fill-opacity:1;fill-rule:nonzero;stroke:none"
             d="m 0,0 c 0,-4.635 -3.758,-8.394 -8.396,-8.394 -4.635,0 -8.394,3.759 -8.394,8.394 0,4.637 3.759,8.396 8.394,8.396 C -3.758,8.396 0,4.637 0,0" /></g><g
           transform="translate(241.0693,87.7192)"
           id="g48"><path
             id="path50"
             style="fill:none;stroke:#000000;stroke-width:8;stroke-linecap:round;stroke-linejoin:round;stroke-miterlimit:4;stroke-dasharray:none;stroke-opacity:1"
             d="M 0,0 V 42.755 L 9.144,33.611" /></g><g
           transform="translate(241.0693,130.4746)"
           id="g52"><path
             id="path54"
             style="fill:none;stroke:#000000;stroke-width:8;stroke-linecap:round;stroke-linejoin:round;stroke-miterlimit:4;stroke-dasharray:none;stroke-opacity:1"
             d="M 0,0 -9.161,-9.161" /></g></g></g><text
       id="text58"
       style="font-variant:normal;font-weight:500;font-stretch:normal;font-size:22.0788002px;font-family:'Helvetica 65 Medium';-inkscape-font-specification:HelveticaNeue-Medium;writing-mode:lr-tb;fill:#000000;fill-opacity:1;fill-rule:nonzero;stroke:none"
       transform="matrix(1,0,0,-0.90028444,60.6831,36.0313)"><tspan
         id="tspan56"
         y="0"
         x="0 16.18376 31.948023 47.314869 56.543808 75.575729 92.156914 108.73809 124.10493 134.5482 149.91505 159.144 175.32774 186.19052 201.55736 223.85695 239.2238 259.49213 275.6759 286.53867">The Update Framework</tspan></text>
</g></svg>