<?xml version="1.0" encoding="UTF-8"?>
<svg width="660px" height="320px" viewBox="0 0 660 320" version="1.1" xmlns="http://www.w3.org/2000/svg" xmlns:xlink="http://www.w3.org/1999/xlink">
    <!-- Generator: Sketch 51.3 (57544) - http://www.bohemiancoding.com/sketch -->
    <title>porter-horizontal-black</title>
    <desc>Created with Sketch.</desc>
    <defs>
        <rect id="path-1" x="0" y="0.306505732" width="24.020654" height="13.8882522"></rect>
        <rect id="path-3" x="0" y="0.306505732" width="24.020654" height="13.8882522"></rect>
    </defs>
    <g id="porter-horizontal-black" stroke="none" stroke-width="1" fill="none" fill-rule="evenodd">
        <g id="Group-3" transform="translate(68.000000, 40.000000)">
            <path d="M121.541915,194.534326 C150.646564,197.21911 171.067446,203.502503 171.067446,210.825704 C171.067446,220.591124 134.755095,228.50756 89.9615408,228.50756 C45.1679865,228.50756 8.85563605,220.591124 8.85563605,210.825704 C8.85563605,203.899823 27.1207589,197.903981 53.7225089,195.002684 L53.7225159,209.675878 C53.7225159,214.466713 57.6062551,218.350452 62.3970902,218.350452 C67.1879253,218.350452 71.0716645,214.466713 71.0716645,209.675878 L71.0716645,193.625952 C77.132698,193.31074 83.4577202,193.143848 89.9615408,193.143848 C94.8167378,193.143848 99.5722933,193.236855 104.192766,193.415141 L104.192766,209.675878 C104.192766,214.466713 108.076506,218.350452 112.867341,218.350452 C117.658176,218.350452 121.541915,214.466713 121.541915,209.675878 L121.541915,194.534326 Z" id="Combined-Shape" fill="#F0EEEE" fill-rule="nonzero"></path>
            <g id="Porter-Cat" transform="translate(0.500000, 0.000000)">
                <path d="M24.6091027,144.984369 C21.391059,144.191724 18.3904415,142.208319 15.6072502,139.034154 C7.63117017,131.570201 10.2726643,122.063132 14.13094,114.975765 C16.2107636,111.333121 15.688369,108.721405 12.5637561,107.140616 C9.01403984,105.519267 5.86786374,107.25947 3.12522786,112.361224 C-0.988725963,120.013856 -1.7603811,132.948181 5.40168752,142.499671 C12.5637561,152.051162 15.6072502,153.730663 23.3111381,156.612018" id="T-A-I-L" stroke="#000000" stroke-width="6" fill-rule="nonzero"></path>
                <path d="M67.5716645,195.84622 C63.5833217,194.429981 59.7778693,192.566642 56.2225159,190.299077 L56.2225159,209.675878 C56.2225159,212.809859 58.7631093,215.350452 61.8970902,215.350452 C65.031071,215.350452 67.5716645,212.809859 67.5716645,209.675878 L67.5716645,195.84622 Z" id="Combined-Shape" stroke="#000000" stroke-width="6" fill-rule="nonzero"></path>
                <path d="M118.041915,189.255392 C114.507046,191.681063 110.700468,193.698192 106.692766,195.259195 L106.692766,209.675878 C106.692766,212.809859 109.23336,215.350452 112.367341,215.350452 C115.501321,215.350452 118.041915,212.809859 118.041915,209.675878 L118.041915,189.255392 Z" id="Combined-Shape" stroke="#000000" stroke-width="6" fill-rule="nonzero"></path>
                <path d="M102.598509,30.4268527 L118.297882,19.5515638 L118.297882,37.3311676 C133.111848,46.5348786 142.774104,61.645182 142.774104,78.7252037 C142.774104,93.3324518 135.707049,106.499031 124.394366,115.762355 C131.586157,124.397686 135.91221,135.503736 135.91221,147.620191 C135.91221,175.130665 113.610564,197.432311 86.1000895,197.432311 C65.70152,197.432311 48.1667546,185.170908 40.4639606,167.616268 C40.1598554,173.192911 37.994623,176.566886 33.9682648,177.738197 C28.2826512,177.525185 25.0041374,172.882514 24.1327234,163.810184 C22.8820585,150.789457 25.7777486,132.127086 45.411775,118.877988 C45.8121259,118.312271 46.223978,117.75527 46.6469908,117.207326 C34.2650738,107.895933 26.4260512,94.1095881 26.4260512,78.7252037 C26.4260512,70.4198376 28.7106989,62.5802129 32.7613853,55.6589797 L32.7613853,29.7549358 L47.2529982,39.7935836 C57.3579466,32.4010423 70.383471,27.950007 84.6000775,27.950007 C90.8818366,27.950007 96.9310478,28.8190309 102.598509,30.4268527 Z" id="Combined-Shape" stroke="#000000" stroke-width="6" stroke-linejoin="round" fill-rule="nonzero"></path>
                <path d="M122.108725,107.552601 C141.705153,103.051356 155.023648,97.9505389 162.064211,92.2501498 C172.625055,83.699566 177.034794,81.6905538 181.081574,84.3588944 C186.252274,89.0931305 185.217633,93.8471895 176.899623,100.699895 C174.646036,102.556489 172.096325,104.664426 168.947729,106.87742 C160.474827,112.832608 147.665076,119.548564 124.618563,124.17457" id="arm" stroke="#000000" stroke-width="6" fill-rule="nonzero" transform="translate(153.173856, 103.715866) rotate(-17.000000) translate(-153.173856, -103.715866) "></path>
                <path d="M46.8757048,178.541755 C42.0316386,173.976603 39.6096055,167.351951 39.6096055,158.667796 C39.6096055,149.983642 42.0316386,143.52021 46.8757048,139.2775" id="Path-2" stroke="#000000" stroke-width="6" stroke-linecap="round" fill-rule="nonzero"></path>
                <g id="mouth" transform="translate(71.806765, 84.992418)">
                    <g id="Group-10" transform="translate(20.229542, 5.701477)">
                        <mask id="mask-2" fill="white">
                            <use xlink:href="#path-1"></use>
                        </mask>
                        <g id="Rectangle-5" fill-rule="nonzero"></g>
                        <path d="M3.17364055,1.42111326 C4.05241825,4.35317419 8.21226778,6.57370083 13.2113597,6.57370083 C17.6093393,6.57370083 21.3577703,4.85507967 22.7940001,2.44531713 C22.9063389,2.82013804 22.9650589,3.20658675 22.9650589,3.60151087 C22.9650589,7.08575457 18.3944333,9.91029217 12.7562809,9.91029217 C7.11812853,9.91029217 2.54750295,7.08575457 2.54750295,3.60151087 C2.54750295,2.83511364 2.76864252,2.10063483 3.17364055,1.42111326 Z" id="Combined-Shape" fill="#000000" fill-rule="nonzero" mask="url(#mask-2)"></path>
                    </g>
                    <g id="Group-10" transform="translate(12.855427, 13.201477) scale(-1, 1) translate(-12.855427, -13.201477) translate(0.355427, 5.701477)">
                        <mask id="mask-4" fill="white">
                            <use xlink:href="#path-3"></use>
                        </mask>
                        <g id="Rectangle-5" fill-rule="nonzero"></g>
                        <path d="M3.17364055,1.42111326 C4.05241825,4.35317419 8.21226778,6.57370083 13.2113597,6.57370083 C17.6093393,6.57370083 21.3577703,4.85507967 22.7940001,2.44531713 C22.9063389,2.82013804 22.9650589,3.20658675 22.9650589,3.60151087 C22.9650589,7.08575457 18.3944333,9.91029217 12.7562809,9.91029217 C7.11812853,9.91029217 2.54750295,7.08575457 2.54750295,3.60151087 C2.54750295,2.83511364 2.76864252,2.10063483 3.17364055,1.42111326 Z" id="Combined-Shape" fill="#000000" fill-rule="nonzero" mask="url(#mask-4)"></path>
                    </g>
                    <polygon id="Path-24" fill="#000000" fill-rule="nonzero" points="18.3689448 0 27.203703 0 22.7863239 9.19517197"></polygon>
                </g>
                <circle id="Combined-Shape" fill="#FFFFFF" fill-rule="nonzero" cx="74.9366758" cy="70.8187698" r="9.46317196"></circle>
                <circle id="Combined-Shape" fill="#FFFFFF" fill-rule="nonzero" cx="111.212168" cy="70.8187698" r="9.46317196"></circle>
                <ellipse id="Oval" fill="#000000" fill-rule="nonzero" cx="75.4757562" cy="70.8187698" rx="3.15439065" ry="6.3087813"></ellipse>
                <ellipse id="Oval-2" fill="#000000" fill-rule="nonzero" cx="111.751249" cy="70.8187698" rx="3.15439065" ry="6.3087813"></ellipse>
                <polygon id="ear-left" fill="#000000" fill-rule="nonzero" points="38.2438006 39.8487679 38.2438006 62.120491 53.1393631 50.9846295"></polygon>
                <polyline id="ear-right" fill="#000000" fill-rule="nonzero" points="103.833944 35.9754301 113.515058 27.965465 113.515058 43.4917516 103.833944 37.0743841"></polyline>
                <path d="M102.155918,29.5499922 L92.6724749,3.58385796 C75.8731025,-1.763106 60.4744047,2.49096583 46.4763816,16.3460734 C46.4763816,22.0353317 46.4763816,22.0353317 46.4763816,42.4032353 C57.302298,45.0707654 75.8621435,40.786351 102.155918,29.5499922 Z" id="Path-14" fill="#000000" fill-rule="nonzero" transform="translate(74.316150, 22.260703) rotate(2.000000) translate(-74.316150, -22.260703) "></path>
                <g id="bow" transform="translate(65.977351, 113.920892)" fill="#000000" fill-rule="nonzero" stroke="#000000">
                    <polygon id="Path-3" points="0.0362701555 0.213760822 0.0362701555 27.2571158 52.5324266 0.213760822 52.5324266 27.2571158"></polygon>
                    <circle id="Oval" cx="26.2843484" cy="13.7354383" r="5.54770735"></circle>
                </g>
                <g id="whiskers" transform="translate(21.238760, 71.413639)" fill-rule="nonzero" stroke="#000000" stroke-linecap="round" stroke-width="6">
                    <path d="M115.805916,2.9220937 L128.792273,0.0745131546" id="Path-26"></path>
                    <path d="M114.087806,15.2719339 L127.355992,16.1141888" id="Path-26"></path>
                    <path d="M10.8989615,20.8915837 L0.43324239,21.8871847" id="Path-26"></path>
                    <path d="M10.611899,9.4165795 L1.70996346,8.62664159" id="Path-27"></path>
                </g>
            </g>
            <path d="M196.727056,112.636878 L227.783394,112.636878 C238.41725,112.636878 246.339706,114.168553 251.551,117.231948 C256.762294,120.295344 259.367901,125.770641 259.367901,133.658005 C259.367901,142.390443 256.198919,148.411509 249.860859,151.721385 C243.945337,154.749569 235.670771,156.263639 225.036915,156.263639 L224.191845,156.263639 L224.191845,184.573498 L237.39607,184.573498 L237.39607,186.58054 L196.727056,186.58054 L196.727056,184.573498 L203.593253,184.573498 L203.593253,114.64392 L196.727056,114.64392 L196.727056,112.636878 Z M224.191845,114.64392 L224.191845,154.256596 L226.410155,154.256596 C230.635528,154.256596 233.558034,152.812949 235.17776,149.92561 C236.797487,147.038272 237.607338,142.35522 237.607338,135.876315 L237.607338,130.805892 C237.607338,124.819947 236.850303,120.629848 235.336211,118.23547 C233.822119,115.841091 231.058062,114.64392 227.043958,114.64392 L224.191845,114.64392 Z M296.417809,165.770681 L296.417809,156.791808 C296.417809,149.960788 296.048095,144.978443 295.308655,141.844625 C294.569214,138.710806 292.861485,137.14392 290.185415,137.14392 C288.636112,137.14392 287.386124,137.584057 286.435415,138.464343 C285.484706,139.344629 284.798093,140.805882 284.375556,142.848146 C283.74175,146.017176 283.424852,150.841071 283.424852,157.319977 L283.424852,165.559413 C283.424852,173.235508 283.653723,177.848138 284.111471,179.397441 C284.56922,180.946745 285.044568,182.214338 285.537528,183.200258 C286.31218,184.890408 287.826249,185.73547 290.079781,185.73547 C292.826274,185.73547 294.622031,184.150978 295.467105,180.981948 C296.100911,178.728416 296.417809,173.658044 296.417809,165.770681 Z M289.868514,187.636878 C281.065653,187.636878 274.41079,185.383379 269.903725,180.876315 C265.39666,176.36925 263.143162,169.908047 263.143162,161.492512 C263.143162,153.076977 265.555109,146.598168 270.379077,142.055892 C275.203045,137.513616 281.981146,135.242512 290.713584,135.242512 C299.446022,135.242512 305.960042,137.337561 310.255838,141.527723 C314.551634,145.717885 316.6995,152.108666 316.6995,160.700258 C316.6995,178.658095 307.755927,187.636878 289.868514,187.636878 Z M357.235323,139.256596 C354.629676,139.256596 352.340967,140.94672 350.369126,144.327019 C348.397285,147.707317 347.41138,151.721362 347.41138,156.369272 L347.41138,184.679132 L354.91138,184.679132 L354.91138,186.58054 L321.953633,186.58054 L321.953633,184.679132 L327.763492,184.679132 L327.763492,138.200258 L321.953633,138.200258 L321.953633,136.29885 L347.41138,136.29885 L347.41138,146.439695 C348.326877,142.848128 350.087423,140.084071 352.69307,138.147441 C355.298717,136.210812 358.256433,135.242512 361.566309,135.242512 C364.876185,135.242512 367.56982,136.175601 369.647295,138.041808 C371.72477,139.908014 372.763492,142.548833 372.763492,145.964343 C372.763492,149.379853 371.988852,152.003066 370.439549,153.834061 C368.890245,155.665056 366.513508,156.58054 363.309267,156.58054 C360.105026,156.58054 357.745894,155.524213 356.231802,153.411526 C354.71771,151.298839 354.52405,148.376333 355.650816,144.64392 L359.453633,144.64392 C361.214205,141.052353 360.474776,139.256596 357.235323,139.256596 Z M381.820443,171.474906 L381.820443,138.200258 L376.010584,138.200258 L376.010584,136.29885 L381.820443,136.29885 L381.820443,122.672089 L401.46833,117.812934 L401.46833,136.29885 L415.200724,136.29885 L415.200724,138.200258 L401.46833,138.200258 L401.46833,173.79885 C401.46833,177.108726 401.802834,179.538279 402.471851,181.087582 C403.140869,182.636886 404.5317,183.411526 406.644386,183.411526 C408.757073,183.411526 410.605646,182.355198 412.190161,180.242512 C413.774676,178.129825 414.813398,175.24253 415.306358,171.58054 L417.102133,171.791808 C416.53875,176.650987 414.989469,180.506582 412.454245,183.358709 C409.919022,186.210836 405.728923,187.636878 399.883823,187.636878 C394.038723,187.636878 389.566937,186.474918 386.46833,184.150963 C383.369723,181.827007 381.820443,177.601697 381.820443,171.474906 Z M448.236548,187.636878 C439.151996,187.636878 432.338683,185.295352 427.796407,180.61223 C423.254131,175.929108 420.983027,169.415089 420.983027,161.069977 C420.983027,152.724864 423.535818,146.334083 428.641478,141.897441 C433.747137,137.4608 440.243551,135.242512 448.130914,135.242512 C464.11691,135.242512 471.792889,143.270601 471.159083,159.327019 L441.370351,159.327019 L441.370351,163.446737 C441.370351,170.34818 442.250624,175.559396 444.011196,179.08054 C445.771768,182.601684 448.835118,184.36223 453.201337,184.36223 C461.370392,184.36223 466.722451,179.996077 469.257675,171.263639 L471.159083,171.58054 C469.821048,176.650988 467.409101,180.59461 463.923168,183.411526 C460.437235,186.228441 455.208414,187.636878 448.236548,187.636878 Z M441.475985,157.214343 L452.356266,157.214343 L452.356266,152.038287 C452.356266,146.334033 452.021763,142.443226 451.352745,140.365751 C450.683728,138.288276 449.345713,137.249554 447.338661,137.249554 C445.331608,137.249554 443.85275,138.358698 442.902041,140.577019 C441.951332,142.79534 441.475985,146.615724 441.475985,152.038287 L441.475985,157.214343 Z M512.539977,139.256596 C509.93433,139.256596 507.645621,140.94672 505.67378,144.327019 C503.701939,147.707317 502.716034,151.721362 502.716034,156.369272 L502.716034,184.679132 L510.216034,184.679132 L510.216034,186.58054 L477.258287,186.58054 L477.258287,184.679132 L483.068146,184.679132 L483.068146,138.200258 L477.258287,138.200258 L477.258287,136.29885 L502.716034,136.29885 L502.716034,146.439695 C503.631531,142.848128 505.392077,140.084071 507.997724,138.147441 C510.603371,136.210812 513.561087,135.242512 516.870963,135.242512 C520.180839,135.242512 522.874474,136.175601 524.951949,138.041808 C527.029424,139.908014 528.068146,142.548833 528.068146,145.964343 C528.068146,149.379853 527.293506,152.003066 525.744203,153.834061 C524.194899,155.665056 521.818162,156.58054 518.613921,156.58054 C515.40968,156.58054 513.050548,155.524213 511.536456,153.411526 C510.022364,151.298839 509.828704,148.376333 510.95547,144.64392 L514.758287,144.64392 C516.518859,141.052353 515.77943,139.256596 512.539977,139.256596 Z" id="Porter" fill="#000000"></path>
        </g>
    </g>
</svg>