<svg xmlns="http://www.w3.org/2000/svg" role="img" viewBox="-2.27 -2.02 364.28 364.78"><defs><style>.cls-2{fill:#fff}.cls-3{fill:#3c6eb4}.cls-4{fill:#294172}</style></defs><path fill="none" d="M310.311 284.444q-11.666 0-19.337 7.82-7.506 7.671-7.506 19.975 0 12.3 7.497 20.128l.013-.017q7.667 7.675 19.329 7.675 11.666 0 19.167-7.67 7.676-7.82 7.676-20.116 0-12.304-7.672-19.975-7.505-7.82-19.167-7.82z"/><path d="M135.43 9.937L80.307 79.554l19.997 86.546 80.07 38.305 79.841-38.786 19.484-86.67L224.17 9.662zm90.573 50.153l-24.423 5.328-6.347 12.644 12.699 15.827a2.23 2.23 0 0 1 .354.666l13.192-2.544 11.602-21.78 3.957 2.111-9.902 18.573 35.36-6.821.85 4.42-35.535 6.852 16.336 13.756-2.897 3.441-19.12-16.101-14.54 2.804-4.338 19.25a2.238 2.238 0 0 1-.203.535l10.436 9.022 24.301-4.352.786 4.432-20.714 3.698 27.213 23.562-2.946 3.412-27.356-23.684-.71 21.336-4.497-.15.832-24.974-11.371-9.845-16.874 8.186v14.354l19.185 15.525-2.826 3.494-16.363-13.235v35.998h-4.488v-36.171l-16.584 13.414-2.829-3.497 19.413-15.701v-14.363l-16.261-7.77-11.1 9.607.837 24.969-4.492.144-.723-21.335-27.37 23.69-2.945-3.4 27.59-23.885-18.836-3.371.793-4.428 22.418 4.012 9.657-8.36a2.235 2.235 0 0 1-.331-.733l-4.522-19.504-13.84-2.67-19.112 16.086-2.899-3.442 16.329-13.753-35.539-6.855.85-4.42 35.358 6.834-9.904-18.577 3.968-2.116L139.2 92.027l12.604 2.436a2.243 2.243 0 0 1 .257-.412l13.595-17.125-6.083-11.97-24.14-5.143.935-4.398 20.582 4.394-16.307-32.096 4.012-2.04 16.396 32.266 8.717-19.482 4.106 1.837-10.202 22.802 6.022 11.85 21.9-.067h.007c.066 0 .13.016.195.022l5.86-11.67-10.187-22.483 4.102-1.857 8.682 19.167 16.15-32.172 4.012 2.014-16.24 32.348 20.87-4.553z" class="cls-2"/><path d="M169.399 79.446l-13.141 16.552 4.772 20.583 19.063 9.11 19.008-9.221 4.644-20.611-13.221-16.479-21.125.066z" class="cls-2"/><path d="M283.884 76.98L227.002 6.003a2.248 2.248 0 0 0-1.754-.842h-.008l-90.907.28a2.25 2.25 0 0 0-1.756.853L76.108 77.61a2.25 2.25 0 0 0-.428 1.903l20.485 88.655a2.247 2.247 0 0 0 1.22 1.522l82.025 39.24a2.247 2.247 0 0 0 1.953-.005l81.791-39.734a2.247 2.247 0 0 0 1.211-1.53l19.958-88.782a2.249 2.249 0 0 0-.44-1.9zm-21.713 90.188l-81.79 39.733-82.025-39.24L77.87 79.006l56.47-71.314 90.907-.28 56.881 70.974z" class="cls-3"/><path d="M134.34 7.692L77.87 79.006l20.486 88.655 82.024 39.24 81.791-39.733 19.958-88.782L225.248 7.41zm125.874 157.927l-79.841 38.786-80.07-38.305-19.997-86.546L135.43 9.937l88.74-.274 55.527 69.285z" class="cls-3"/><path d="M209.561 156.328l4.496.149.711-21.336-4.375-3.788-.832 24.975zM173.874 40.294l-4.106-1.837-8.717 19.482 2.621 5.157 10.202-22.802zm-15.631 119.282l2.829 3.497 16.584-13.414v-5.784l-19.413 15.701zm-30.661-89.341l-3.968 2.116 9.904 18.577 5.682 1.099-11.618-21.792zm-2.433 53.498l-.793 4.428 18.837 3.371 4.374-3.787-22.418-4.012zm76.431-58.315l24.423-5.328-.959-4.395-20.868 4.553-2.596 5.17zm39.669 47.145l2.897-3.441-16.336-13.756-5.682 1.096 19.121 16.101z" class="cls-3"/><path d="M202.038 120.045l-3.016 1.463 11.371 9.845.035-1.052 4.496.15-.156 4.69 27.356 23.684 2.945-3.412-27.212-23.562 20.714-3.698-.786-4.432-24.301 4.352-10.436-9.022a2.245 2.245 0 0 1-1.01.994zm-33.735-45.094l1.391-.004-6.022-11.851-.431.964-4.106-1.837 1.916-4.284-16.396-32.266-4.012 2.04L156.95 59.81l-20.582-4.394-.935 4.398 24.14 5.143 6.083 11.97.893-1.124a2.25 2.25 0 0 1 1.754-.851zm11.797 55.485a2.254 2.254 0 0 1-.97-.22l-1.474-.704v14.363l.838-.678 2.83 3.496-3.668 2.966v36.17h4.488v-35.997l16.363 13.235 2.826-3.494-19.185-15.525v-14.354l-1.066.517a2.248 2.248 0 0 1-.982.225zm19.504-69.191l4.572-.997 16.24-32.348-4.013-2.014-16.15 32.172-8.682-19.167-4.102 1.857 10.188 22.482-5.86 11.671a2.24 2.24 0 0 1 1.558.82l1.878 2.34 6.347-12.643-1.017.222zm8.768 34.545l-.783 3.476 14.54-2.804-.795-.67 2.897-3.44 3.579 3.014 35.534-6.852-.85-4.42-35.36 6.82 9.903-18.572-3.957-2.112-11.602 21.781-13.192 2.544a2.235 2.235 0 0 1 .086 1.236zm-51.148 23.595l-9.657 8.36 3.23.579-.793 4.427-6.811-1.219-27.59 23.885 2.944 3.4 27.37-23.69.723 21.335 4.492-.144-.837-24.969 11.1-9.608-3.281-1.568a2.238 2.238 0 0 1-.89-.788zm-5.42-24.922L139.2 92.027l.63 1.183-3.968 2.116-2.344-4.398-35.358-6.834-.85 4.42 35.539 6.855-16.329 13.753 2.899 3.442 19.112-16.086 13.84 2.67-.74-3.19a2.247 2.247 0 0 1 .173-1.495z" class="cls-4"/><path d="M139.831 93.21l-.631-1.183-5.682-1.099 2.344 4.398 3.969-2.116zm10.966 35.114l-3.23-.579-4.374 3.787 6.811 1.219.793-4.427zm12.444-64.264l.431-.964-2.621-5.157-1.916 4.284 4.106 1.837zm36.363-2.815l.959 4.395 1.017-.222 2.596-5.17-4.572.997zm21.73 34.548l.794.669 5.682-1.096-3.579-3.014-2.897 3.441zm-10.906 34.508l-.035 1.052 4.375 3.788.156-4.69-4.496-.15zm-31.933 12.895l-.839.679v5.784l3.667-2.966-2.828-3.497zm13.101-66.068h-.918l1.118-2.227c-.065-.006-.129-.022-.195-.022h-.008l-21.899.068 1.132 2.228-2.524.012-1.53 1.934-1.116-2.195-13.595 17.125a2.243 2.243 0 0 0-.257.412l2.443.472-.425.536.97 4.144-2.42-.467 4.52 19.504a2.235 2.235 0 0 0 .332.733l1.792-1.55.076.31 4.165 1.984-1.862 1.612 16.261 7.771v-2.498l2.435 1.16 2.057-.998v2.518l16.874-8.186-1.863-1.612 3.902-1.888.127-.565 1.86 1.608a2.238 2.238 0 0 0 .203-.536l4.338-19.25-2.427.469 1.012-4.437-.234-.29 2.346-.452a2.23 2.23 0 0 0-.354-.666l-12.7-15.827-1.116 2.224zm12.15 18.73L199.1 116.47l-19.008 9.221-19.063-9.11-4.772-20.583L169.4 79.446l21.125-.066z" class="cls-4"/><path d="M191.796 74.901l-1.118 2.227h.918l2.52 3.158 1.117-2.224-1.878-2.341a2.24 2.24 0 0 0-1.559-.82zm-23.494 2.286l2.524-.012-1.132-2.228-1.39.004a2.25 2.25 0 0 0-1.755.85l-.893 1.125 1.116 2.195zm37.872 18.11l-1.012 4.437 2.427-.468.783-3.475a2.235 2.235 0 0 0-.086-1.236l-2.346.452zm-26.083 32.877l-2.435-1.16v2.498l1.474.705a2.252 2.252 0 0 0 1.952-.006l1.066-.517v-2.518zm20.969-10.166l-3.9 1.887 1.862 1.613 3.016-1.463a2.245 2.245 0 0 0 1.01-.994l-1.86-1.608zm-41.968.136l-.076-.31-1.792 1.551a2.238 2.238 0 0 0 .89.788l3.28 1.568 1.863-1.612zm-5.27-22.674l.425-.535-2.443-.472a2.247 2.247 0 0 0-.172 1.495l.74 3.19 2.42.467zm-5.839 172.981a28.65 28.65 0 0 0-15.81 5.27 37.33 37.33 0 0 0-11.662 13.103v-17.102h-17.893v85h17.893V318.29q0-14.535 6.702-23.162 6.715-8.628 19.975-8.628h.965zm17.977 1.271h17.892v85H165.96zm-114.97 69.98a27.154 27.154 0 0 1-19.975-8.151 26.963 26.963 0 0 1-8.152-19.813q0-11.815 8.152-19.176a28.116 28.116 0 0 1 19.49-7.514q11.182 0 22.21 9.592l10.54-12.941q-13.26-13.26-32.427-13.26-19.176 0-32.597 12.312-13.26 12.142-13.26 31.632 0 19.495 12.784 31.633a43.064 43.064 0 0 0 30.515 11.985v-.004q20.29 0 35.785-15.657l-10.54-11.505q-10.549 10.867-22.525 10.867zm116.25-102.726a11.186 11.186 0 0 0-.162 15.818 10.912 10.912 0 0 0 7.99 3.358 11.186 11.186 0 1 0-7.828-19.176z" class="cls-4"/><path d="M200.343 298.648h53.04v16.775h-53.04z" class="cls-3"/><path d="M355.03 312.226q0-18.372-12.776-30.995-12.793-12.78-31.96-12.78-19.172 0-31.951 12.78-12.767 12.623-12.767 30.995a42.391 42.391 0 0 0 12.78 31.153Q291.135 356 310.302 356q19.176 0 31.96-12.622h-.017a42.384 42.384 0 0 0 12.783-31.153zm-25.556 20.128q-7.5 7.671-19.167 7.671-11.662 0-19.33-7.675l-.012.017q-7.497-7.829-7.497-20.128 0-12.304 7.506-19.975 7.67-7.82 19.337-7.82 11.662 0 19.168 7.82 7.67 7.671 7.67 19.975 0 12.295-7.675 20.115z" class="cls-4"/></svg>