<?xml version="1.0" encoding="UTF-8"?><svg xmlns="http://www.w3.org/2000/svg" viewBox="0 0 235.98 191.61"><defs><style>.d,.e,.f,.g{fill:#fff;}.e,.h,.i,.j,.f,.k{stroke:#fff;}.e,.h,.i,.j,.k{stroke-linecap:round;}.e,.h,.j{stroke-width:5.25px;}.h,.i,.j,.k{fill:none;}.i{stroke-width:2.42px;}.i,.f{stroke-miterlimit:10;}.j,.k{stroke-linejoin:round;}.f{stroke-width:1.31px;}.g{font-family:Asap-Bold, Asap;font-size:12.59px;letter-spacing:.1em;}.k{stroke-width:3.94px;}</style></defs><g id="a"/><g id="b"><g id="c"><g><g><path class="h" d="M120.46,40.71c6.45,0,11.68,5.23,11.68,11.68"/><path class="j" d="M87.96,63.39c0-16.62,13.47-30.09,30.09-30.09s30.09,13.47,30.09,30.09"/><g><path class="d" d="M109.47,110.6c-.28,.38-.56,.56-.85,.56s-.58-.13-.87-.38c-.29-.25-.43-.5-.43-.73s.11-.48,.34-.73l2.11-2.97-2.82-.9c-.55-.18-.83-.46-.83-.87,0-.23,.04-.43,.11-.6,.15-.53,.46-.79,.94-.79,.1,0,.28,.03,.53,.08l2.9,.94v-3.09c0-.75,.38-1.13,1.13-1.13s1.13,.38,1.13,1.13v3.09l2.82-.94c.25-.05,.46-.08,.64-.08s.38,.13,.6,.38c.23,.25,.34,.58,.34,1s-.28,.71-.83,.88l-2.86,.9,2.15,2.97c.2,.23,.3,.46,.3,.72s-.14,.5-.43,.75c-.29,.25-.57,.38-.85,.38s-.55-.19-.83-.56l-2.22-3.12-2.22,3.12Z"/><path class="d" d="M96.77,110.6c-.28,.38-.56,.56-.85,.56s-.58-.13-.87-.38c-.29-.25-.43-.5-.43-.73s.11-.48,.34-.73l2.11-2.97-2.82-.9c-.55-.18-.83-.46-.83-.87,0-.23,.04-.43,.11-.6,.15-.53,.46-.79,.94-.79,.1,0,.28,.03,.53,.08l2.9,.94v-3.09c0-.75,.38-1.13,1.13-1.13s1.13,.38,1.13,1.13v3.09l2.82-.94c.25-.05,.46-.08,.64-.08s.38,.13,.6,.38c.23,.25,.34,.58,.34,1s-.28,.71-.83,.88l-2.86,.9,2.15,2.97c.2,.23,.3,.46,.3,.72s-.14,.5-.43,.75c-.29,.25-.57,.38-.85,.38s-.55-.19-.83-.56l-2.22-3.12-2.22,3.12Z"/><path class="d" d="M122.18,110.6c-.28,.38-.56,.56-.85,.56s-.58-.13-.87-.38c-.29-.25-.43-.5-.43-.73s.11-.48,.34-.73l2.11-2.97-2.82-.9c-.55-.18-.83-.46-.83-.87,0-.23,.04-.43,.11-.6,.15-.53,.46-.79,.94-.79,.1,0,.28,.03,.53,.08l2.9,.94v-3.09c0-.75,.38-1.13,1.13-1.13s1.13,.38,1.13,1.13v3.09l2.82-.94c.25-.05,.46-.08,.64-.08s.38,.13,.6,.38c.23,.25,.34,.58,.34,1s-.28,.71-.83,.88l-2.86,.9,2.15,2.97c.2,.23,.3,.46,.3,.72s-.14,.5-.43,.75c-.29,.25-.57,.38-.85,.38s-.55-.19-.83-.56l-2.22-3.12-2.22,3.12Z"/><path class="d" d="M134.88,110.6c-.28,.38-.56,.56-.85,.56s-.58-.13-.87-.38c-.29-.25-.43-.5-.43-.73s.11-.48,.34-.73l2.11-2.97-2.82-.9c-.55-.18-.83-.46-.83-.87,0-.23,.04-.43,.11-.6,.15-.53,.46-.79,.94-.79,.1,0,.28,.03,.53,.08l2.9,.94v-3.09c0-.75,.38-1.13,1.13-1.13s1.13,.38,1.13,1.13v3.09l2.82-.94c.25-.05,.46-.08,.64-.08s.38,.13,.6,.38c.23,.25,.34,.58,.34,1s-.28,.71-.83,.88l-2.86,.9,2.15,2.97c.2,.23,.3,.46,.3,.72s-.14,.5-.43,.75c-.29,.25-.57,.38-.85,.38s-.55-.19-.83-.56l-2.22-3.12-2.22,3.12Z"/></g><rect class="k" x="84.94" y="95.78" width="66.2" height="19.6" rx="1.14" ry="1.14"/><g><path class="h" d="M50.28,114.1c0-6.45,5.23-11.68,11.68-11.68"/><path class="h" d="M42.12,123.45c0-4.51,3.65-8.16,8.16-8.16s8.16,3.65,8.16,8.16"/><line class="j" x1="67.53" y1="91.11" x2="67.53" y2="115.73"/></g><g><path class="h" d="M185.7,114.1c0-6.45-5.23-11.68-11.68-11.68"/><path class="h" d="M193.86,123.45c0-4.51-3.65-8.16-8.16-8.16-4.51,0-8.16,3.65-8.16,8.16"/><line class="j" x1="168.44" y1="91.11" x2="168.44" y2="115.73"/></g><g><circle class="f" cx="118.04" cy="6.29" r="5.64"/><line class="e" x1="118.04" y1="8.58" x2="118.04" y2="32.14"/></g><g><polyline class="j" points="113.39 140.24 75.4 140.63 75.4 70.52 160.58 70.52 160.58 140.63 128.66 140.32"/><polygon class="d" points="130.25 135.09 121.13 140.24 130.14 145.57 130.25 135.09"/></g></g><g><path class="i" d="M225.11,190.4h8.44c.67,0,1.21-.54,1.21-1.21v-24.54c0-.67-.54-1.21-1.21-1.21h-8.44"/><text class="g" transform="translate(14.56 182.07)"><tspan x="0" y="0">EXTERNAL SECRETS OPERATOR</tspan></text><path class="i" d="M10.87,163.43H2.42c-.67,0-1.21,.54-1.21,1.21v24.54c0,.67,.54,1.21,1.21,1.21H10.87"/></g></g></g></g></svg>