<svg version="1.1" id="Layer_1" xmlns="http://www.w3.org/2000/svg" xmlns:xlink="http://www.w3.org/1999/xlink" x="0px" y="0px"
	 width="100%" viewBox="0 0 1080 1080" enable-background="new 0 0 1080 1080" xml:space="preserve">
<path fill="#D8D8D8" opacity="1.000000" stroke="none" 
	d="
M478.000000,1081.000000 
	C320.184814,1081.000000 162.869629,1080.985840 5.554523,1081.088135 
	C1.903975,1081.090576 0.897040,1080.432129 0.898230,1076.555542 
	C1.007788,719.596741 1.009866,362.637909 0.880606,5.679136 
	C0.879084,1.475224 1.912930,0.898198 5.819842,0.899385 
	C362.611969,1.007750 719.404114,1.007994 1076.196289,0.897088 
	C1080.136719,0.895863 1081.118896,1.525690 1081.117310,5.695227 
	C1080.990356,362.487335 1080.988892,719.279480 1081.125610,1076.071655 
	C1081.127319,1080.493774 1079.970825,1081.099365 1075.929443,1081.097168 
	C876.786316,1080.986328 677.643127,1081.000000 478.000000,1081.000000 
z"/>
<path fill="#FEFEFE" opacity="1.000000" stroke="none" 
	d="
M530.013733,645.940308 
	C479.315216,644.603516 429.870972,638.345276 381.635834,623.765259 
	C352.797180,615.048218 325.140686,603.667175 299.843903,587.239868 
	C277.573944,572.778137 257.667023,555.717773 246.066986,530.971802 
	C234.522049,506.343384 235.463486,482.121368 248.806488,458.336304 
	C261.041870,436.525665 279.392029,420.822723 300.003113,407.647736 
	C342.377502,380.561249 389.609955,366.646515 438.612305,357.922089 
	C463.477081,353.495148 488.522095,350.850983 513.803284,349.751801 
	C528.960693,349.092773 544.107544,348.747620 559.214478,349.241089 
	C584.762451,350.075745 610.208801,352.406799 635.482300,356.601624 
	C660.297241,360.720367 684.768250,366.200012 708.657471,374.027679 
	C743.360962,385.398773 776.043823,400.612366 804.194885,424.556976 
	C818.940735,437.099274 830.921631,451.647583 837.858154,469.685455 
	C848.701477,497.882477 843.089722,523.918579 825.570068,547.830261 
	C810.703552,568.120911 790.936584,582.660461 769.273987,594.753357 
	C731.841980,615.649475 691.490906,628.241028 649.500977,635.959106 
	C628.429626,639.832214 607.238525,642.639648 585.834595,644.138306 
	C567.398621,645.429138 548.978333,646.132019 530.013733,645.940308 
z"/>
<path fill="#FCFCFC" opacity="1.000000" stroke="none" 
	d="
M694.999634,707.085938 
	C700.660645,707.087402 705.825195,707.201477 710.981689,707.047546 
	C714.038330,706.956299 715.074036,708.182861 715.020996,711.168884 
	C714.787231,724.339966 716.444458,721.815918 704.770081,721.980225 
	C694.283325,722.127869 683.790710,722.135376 673.305298,721.947144 
	C669.646790,721.881531 668.829224,723.404480 668.831299,726.704590 
	C668.833374,729.963928 669.978516,731.071411 673.214233,731.037781 
	C685.533081,730.909790 697.855774,731.102844 710.173218,730.919312 
	C713.855469,730.864441 715.152466,732.005798 715.049072,735.749573 
	C714.717529,747.748291 716.422852,745.768311 705.079529,745.891968 
	C695.257812,745.998962 685.432617,745.819702 675.612183,745.975098 
	C672.868713,746.018494 668.933838,744.297485 668.851196,749.837463 
	C668.762939,755.758667 672.987000,753.884155 675.846252,753.924011 
	C687.165344,754.081970 698.489746,754.105103 709.808105,753.923279 
	C713.534058,753.863464 715.211731,754.704529 715.068176,758.885010 
	C714.661743,770.719543 716.464417,768.784241 704.945251,768.889648 
	C692.959045,768.999390 680.970947,768.945679 668.983887,768.904236 
	C658.988586,768.869751 654.005859,763.820679 653.992310,753.798706 
	C653.978088,743.309875 653.976440,732.821045 653.993103,722.332214 
	C654.008545,712.592651 659.208252,707.251953 669.027222,707.112610 
	C677.516479,706.992065 686.008789,707.086487 694.999634,707.085938 
z"/>
<path fill="#FCFCFC" opacity="1.000000" stroke="none" 
	d="
M389.101776,745.914001 
	C386.469543,746.338257 383.760559,744.778381 382.250671,747.391541 
	C380.362701,750.658997 382.422546,753.952881 386.344055,753.968750 
	C398.498444,754.017944 410.654755,754.098083 422.806793,753.923401 
	C426.530762,753.869873 428.211731,754.701843 428.068237,758.884216 
	C427.662109,770.721680 429.462891,768.784058 417.944794,768.889648 
	C405.957703,768.999573 393.968719,768.945801 381.980774,768.904236 
	C371.986450,768.869629 367.005737,763.820007 366.992371,753.793945 
	C366.978210,743.137878 366.969696,732.481689 366.995758,721.825684 
	C367.017517,712.921021 372.065155,707.335693 381.038025,707.167542 
	C395.352112,706.899170 409.675262,707.147705 423.993652,707.045898 
	C427.056732,707.024109 428.073303,708.205627 428.020630,711.180237 
	C427.787689,724.336975 429.444977,721.815979 417.757385,721.980286 
	C407.269836,722.127808 396.776428,722.136414 386.290283,721.946960 
	C382.614014,721.880615 381.835999,723.437683 381.831818,726.720032 
	C381.827667,729.996948 383.012054,731.070312 386.230438,731.037354 
	C398.550232,730.911194 410.873871,731.105042 423.192108,730.918518 
	C426.897949,730.862427 428.150452,732.048279 428.048157,735.768982 
	C427.718781,747.750854 429.424438,745.764771 418.058838,745.892273 
	C408.569458,745.998779 399.077911,745.914124 389.101776,745.914001 
z"/>
<path fill="#FCFCFC" opacity="1.000000" stroke="none" 
	d="
M316.849213,707.336182 
	C321.085358,707.185303 324.913177,707.189941 328.737671,707.079529 
	C331.696014,706.994141 333.063049,708.337219 332.910309,711.280457 
	C332.875854,711.944336 332.916473,712.611755 332.913300,713.277588 
	C332.864594,723.397278 333.653870,721.991760 324.575043,721.956909 
	C321.703125,721.945923 319.496307,722.674316 317.516571,724.822205 
	C314.360260,728.246460 311.119354,731.627686 307.617737,734.687866 
	C304.684509,737.251282 304.969330,739.138062 307.766357,741.470581 
	C309.930725,743.275635 311.987305,745.281860 313.763763,747.465454 
	C317.682556,752.282532 322.220825,755.259766 328.785156,754.031067 
	C331.668793,753.491333 332.855804,754.851013 332.978424,757.933838 
	C333.415558,768.925903 333.517212,768.713867 322.539856,768.999146 
	C316.776886,769.148865 312.349518,767.458679 308.472412,763.105896 
	C303.830109,757.893982 298.611359,753.199158 293.733795,748.191284 
	C291.942566,746.352173 289.912476,745.258423 287.506012,746.209717 
	C285.027802,747.189148 286.084106,749.666931 286.029480,751.511658 
	C285.891602,756.168518 285.932404,760.832520 285.992188,765.492554 
	C286.020905,767.731689 285.171509,768.688232 282.826813,768.945923 
	C271.494720,770.191101 271.047516,769.858582 271.047577,758.623718 
	C271.047699,743.143005 271.154144,727.661011 270.973328,712.182373 
	C270.928192,708.320435 271.989410,706.883057 276.033325,707.008057 
	C287.742798,707.369995 285.792999,705.761475 285.976410,716.700745 
	C286.032227,720.028992 285.932404,723.360291 286.012115,726.687561 
	C286.045898,728.096741 285.452179,729.896667 287.249725,730.653442 
	C289.141479,731.449890 290.773224,730.736694 292.195618,729.305725 
	C298.180511,723.284851 304.229248,717.327271 310.186218,711.279053 
	C311.979889,709.457947 313.853333,707.905884 316.849213,707.336182 
z"/>
<path fill="#FCFCFC" opacity="1.000000" stroke="none" 
	d="
M779.272583,755.726807 
	C776.429810,752.889893 773.802307,750.336792 771.256592,747.704590 
	C769.554871,745.945068 767.515015,745.401978 765.350525,746.275574 
	C763.342346,747.086060 764.071472,749.138306 764.042603,750.696655 
	C763.956177,755.356384 763.857605,760.025391 764.059937,764.677856 
	C764.204956,768.010437 762.830078,768.997925 759.658325,768.959595 
	C747.593140,768.813904 749.136230,769.838745 749.098511,758.630310 
	C749.047607,743.481201 749.256226,728.328735 748.988342,713.184143 
	C748.901306,708.262512 750.655701,706.902954 755.357910,706.997375 
	C768.171387,707.254700 780.993469,707.057312 793.812073,707.094360 
	C805.727234,707.128784 810.924866,712.323608 810.951538,724.117493 
	C810.956055,726.115173 810.969482,728.113098 810.948303,730.110535 
	C810.853333,739.062683 807.155090,743.583801 798.475647,745.279480 
	C796.373535,745.690186 794.237061,745.925171 791.524231,746.329102 
	C794.802856,750.852661 797.692810,754.632202 804.118652,754.114685 
	C810.909790,753.567810 810.976013,754.002930 810.944824,760.715454 
	C810.903137,769.675354 811.883911,768.466797 803.086060,769.035889 
	C795.444946,769.530212 789.446838,767.424805 784.778442,761.305969 
	C783.277283,759.338379 781.288391,757.742737 779.272583,755.726807 
z"/>
<path fill="#FCFCFC" opacity="1.000000" stroke="none" 
	d="
M487.037781,745.914001 
	C475.563751,746.069519 477.159637,744.498901 477.017517,755.442322 
	C476.976471,758.601807 476.874878,761.769409 477.045563,764.920044 
	C477.212616,768.003540 475.874481,768.976685 472.922668,768.950439 
	C460.381470,768.838928 462.151245,769.853577 462.101837,758.414429 
	C462.036499,743.280090 462.231018,728.143127 461.998444,713.012146 
	C461.927704,708.412170 463.427917,706.912354 468.019867,706.998901 
	C481.153992,707.246643 494.296143,707.028748 507.434509,707.104004 
	C518.647644,707.168213 523.548096,712.545654 524.034546,723.711304 
	C524.799011,741.261230 519.616943,746.462646 501.999115,745.936096 
	C497.180298,745.791992 492.353546,745.914124 487.037781,745.914001 
z"/>
<path fill="#FCFCFC" opacity="1.000000" stroke="none" 
	d="
M619.876099,765.548218 
	C619.535095,768.699524 617.582642,768.912964 615.455566,768.911743 
	C600.963501,768.903625 586.468933,769.069092 571.980469,768.839417 
	C564.115417,768.714722 558.302917,763.057373 558.148315,755.206177 
	C557.863037,740.719727 558.095398,726.223633 558.021423,711.731995 
	C558.007202,708.948853 559.088989,707.881836 561.865906,707.920837 
	C575.555420,708.113525 572.760071,706.484131 572.951294,718.413879 
	C573.114075,728.572327 573.129883,738.738647 572.911499,748.895020 
	C572.828613,752.748169 573.908020,754.159363 577.962280,754.075256 
	C589.783997,753.830078 601.614136,753.984802 613.440979,753.990417 
	C619.905334,753.993469 619.906494,754.000366 619.913269,760.604248 
	C619.914795,762.103394 619.905212,763.602539 619.876099,765.548218 
z"/>
<path fill="#D8D8D8" opacity="1.000000" stroke="none" 
	d="
M824.453003,490.695404 
	C826.593506,506.838318 821.446777,520.584412 813.064758,533.495056 
	C801.236084,551.714661 784.372681,564.389465 766.179993,575.331421 
	C733.607056,594.922302 697.879700,606.384949 661.095703,615.000854 
	C641.007141,619.706177 620.602783,622.394409 600.172363,624.809448 
	C588.976440,626.132812 577.652893,626.716797 566.373962,626.920166 
	C547.939819,627.252502 529.480103,627.460999 511.059418,626.858154 
	C494.989746,626.332336 478.996094,624.372803 463.007660,622.409546 
	C438.178864,619.360840 413.865692,614.051086 389.959717,606.940186 
	C356.283020,596.923035 323.990173,583.816711 295.923309,561.985229 
	C282.929779,551.878418 271.732727,540.202759 263.776337,525.600769 
	C252.018982,504.023163 255.771622,476.057678 272.708374,455.657379 
	C291.128113,433.470764 314.701874,418.655090 340.413574,406.629364 
	C368.616150,393.438660 398.196655,384.587524 428.661926,378.621796 
	C449.019745,374.635315 469.538086,371.744873 490.225403,369.810608 
	C516.146973,367.386932 542.112732,367.377319 568.028015,368.230011 
	C594.727905,369.108582 621.242432,372.489990 647.557983,377.508636 
	C675.270813,382.793762 702.297729,390.276794 728.362183,400.990601 
	C754.994385,411.937775 780.111877,425.551666 800.633850,446.261139 
	C811.303650,457.028442 819.762634,469.296875 823.304810,484.383636 
	C823.758972,486.317871 823.989624,488.304596 824.453003,490.695404 
z"/>
<path fill="#D8D8D8" opacity="1.000000" stroke="none" 
	d="
M703.921509,710.952209 
	C707.037842,711.881592 711.565674,708.487793 712.013855,714.433716 
	C712.273376,717.875732 711.057739,719.129700 707.512024,719.079041 
	C695.527893,718.907959 683.539856,719.004272 671.553284,719.019897 
	C665.523804,719.027710 665.161438,719.417297 665.088196,725.634094 
	C665.074463,726.799316 665.173645,727.972351 665.072571,729.128784 
	C664.744324,732.883728 666.559082,734.037842 670.129517,734.001038 
	C682.614136,733.872131 695.102417,734.060547 707.585999,733.887512 
	C711.223022,733.837097 712.115845,735.280701 712.053223,738.619385 
	C711.985901,742.208130 709.779602,742.057312 707.349854,742.054077 
	C695.363281,742.038147 683.376770,742.035767 671.390198,742.052612 
	C665.084290,742.061462 665.084290,742.083679 665.085815,749.104614 
	C665.087402,756.605469 665.347046,756.966614 671.290894,756.977783 
	C683.277466,757.000366 695.264099,757.016602 707.250427,756.961792 
	C709.994385,756.949280 712.042175,757.048767 712.083801,760.800781 
	C712.125793,764.588318 710.363464,765.157227 707.190125,765.130432 
	C694.039124,765.019043 680.886475,765.127136 667.734924,765.055969 
	C660.877563,765.018860 657.137451,761.486267 657.035950,754.656067 
	C656.872620,743.670837 656.900269,732.680420 657.021729,721.694092 
	C657.098083,714.786987 661.069092,710.991638 667.975037,710.965698 
	C679.794922,710.921326 691.615051,710.952698 703.921509,710.952209 
z"/>
<path fill="#D8D8D8" opacity="1.000000" stroke="none" 
	d="
M421.683777,742.032410 
	C408.730103,742.044678 396.240112,742.193909 383.756897,741.968140 
	C379.369690,741.888855 377.565765,743.403015 378.063263,747.745361 
	C378.213928,749.060364 378.125305,750.407654 378.087311,751.738464 
	C377.982178,755.422913 379.447723,757.111206 383.430847,757.050659 
	C395.582336,756.865906 407.738556,757.009949 419.892731,756.966309 
	C422.723511,756.956177 425.095764,756.808716 425.090515,760.944519 
	C425.085541,764.883667 423.065613,765.139343 420.046936,765.119812 
	C406.894165,765.034729 393.740295,765.129456 380.587433,765.050598 
	C373.823608,765.010010 370.119019,761.382507 370.029327,754.506897 
	C369.885925,743.519897 369.891968,732.528503 370.027405,721.541321 
	C370.109558,714.877563 374.090118,711.000549 380.630310,710.971924 
	C393.783356,710.914429 406.937195,711.004272 420.089905,710.915039 
	C423.142578,710.894348 425.096710,711.212219 425.089996,715.122009 
	C425.082764,719.322998 422.590790,719.033081 419.826630,719.026733 
	C407.838867,718.999268 395.847687,719.177612 383.864899,718.932251 
	C379.368591,718.840149 377.836884,720.705200 378.075928,724.827637 
	C378.152893,726.155151 378.195557,727.501404 378.067291,728.820923 
	C377.683899,732.765625 379.469727,734.060730 383.322876,734.011353 
	C395.808105,733.851257 408.296783,733.939697 420.784027,733.971680 
	C422.543762,733.976135 424.848267,733.572021 424.859680,736.320862 
	C424.868835,738.531067 426.266357,741.672119 421.683777,742.032410 
z"/>
<path fill="#D8D8D8" opacity="1.000000" stroke="none" 
	d="
M312.788940,751.242798 
	C316.227539,755.490173 320.004456,757.963379 325.475403,757.041992 
	C328.896942,756.465759 329.068726,758.918030 329.079956,761.482544 
	C329.091370,764.084595 328.837860,765.857849 325.432526,766.025146 
	C319.128265,766.334778 313.803497,765.259399 309.377594,760.059387 
	C304.750122,754.622498 299.347961,749.844543 294.278320,744.784729 
	C292.986542,743.495605 291.759369,742.266296 289.708038,742.032898 
	C283.912262,741.373352 283.033875,742.063232 283.017456,747.928955 
	C283.003906,752.759521 282.907166,757.592957 283.041901,762.419678 
	C283.126862,765.463013 281.512512,766.043213 278.970490,765.967590 
	C276.511932,765.894470 274.096375,765.916992 274.092590,762.517944 
	C274.074646,746.360596 274.094727,730.203186 274.059998,714.045898 
	C274.052826,710.710510 276.347351,710.960449 278.546234,710.955200 
	C280.758423,710.949890 283.050049,710.741638 283.009613,714.067993 
	C282.954987,718.564636 282.863586,723.069580 283.078857,727.556946 
	C283.180328,729.672607 281.683167,732.836243 284.745300,733.635742 
	C287.674500,734.400574 290.945709,734.692749 293.591675,731.957031 
	C299.149475,726.210693 305.245331,720.942444 310.420105,714.880249 
	C315.298065,709.165771 321.339294,711.167358 327.080017,711.180786 
	C329.634308,711.186768 328.918060,713.868958 329.018921,715.586853 
	C329.127014,717.428223 328.670837,719.138367 326.398926,718.940552 
	C312.995361,717.773315 309.419464,730.646606 301.061188,736.664429 
	C299.313385,737.922791 300.896027,739.325867 301.942566,740.381165 
	C305.461182,743.929565 309.002777,747.455139 312.788940,751.242798 
z"/>
<path fill="#D8D8D8" opacity="1.000000" stroke="none" 
	d="
M766.637695,742.052246 
	C762.477966,741.563721 760.679260,742.783691 760.969849,746.962646 
	C761.304382,751.772034 760.950928,756.625244 761.070312,761.455139 
	C761.143066,764.400146 759.683289,765.143372 757.060791,765.119080 
	C754.552246,765.095764 752.919678,764.626404 752.933167,761.578247 
	C753.002747,745.913208 753.002014,730.247437 752.927979,714.582458 
	C752.914062,711.647034 754.303894,710.914612 756.931213,710.927490 
	C770.596436,710.994751 784.263245,710.867920 797.927185,711.016846 
	C803.284546,711.075317 806.824890,714.846252 807.029053,720.313965 
	C807.184448,724.474304 807.193298,728.650757 807.023254,732.809998 
	C806.802734,738.204285 803.199463,741.767273 797.786743,741.994568 
	C793.960144,742.155273 790.121826,742.021973 786.289307,742.068237 
	C785.342468,742.079590 784.134949,741.792725 783.681274,742.969177 
	C783.341980,743.848816 784.112122,744.494202 784.688171,745.071899 
	C788.218445,748.611877 791.735596,752.165588 795.312256,755.658325 
	C797.522400,757.816467 800.377014,756.953003 802.954163,756.926636 
	C805.887085,756.896667 807.178284,757.841980 807.146179,760.951965 
	C807.115723,763.891785 806.134277,764.932800 803.097961,765.174316 
	C796.183594,765.724426 790.527893,764.249939 785.883301,758.519592 
	C781.917358,753.626587 777.023438,749.487549 772.559570,744.995544 
	C771.018250,743.444519 769.543457,741.820801 766.637695,742.052246 
z"/>
<path fill="#D8D8D8" opacity="1.000000" stroke="none" 
	d="
M479.200226,742.048218 
	C474.893646,741.507996 473.810059,743.362000 473.990845,746.946838 
	C474.225098,751.592346 473.947083,756.261597 474.079926,760.915161 
	C474.162415,763.806030 473.248596,765.176392 470.113678,765.144836 
	C467.215210,765.115601 465.894958,764.258118 465.914093,761.144714 
	C466.008942,745.675903 465.993469,730.206116 465.925446,714.737061 
	C465.913208,711.954407 467.003693,710.910095 469.764221,710.925110 
	C483.403442,710.999512 497.044037,710.877319 510.682465,711.006287 
	C516.300659,711.059387 519.845215,714.812622 520.041565,720.540161 
	C520.172546,724.361450 520.151245,728.192688 520.057495,732.015991 
	C519.902771,738.325928 516.390015,741.941528 510.113434,742.010620 
	C499.968109,742.122375 489.820679,742.045166 479.200226,742.048218 
z"/>
<path fill="#D8D8D8" opacity="1.000000" stroke="none" 
	d="
M561.053040,735.000000 
	C561.054321,728.001892 561.196655,721.499451 561.000183,715.007324 
	C560.893616,711.484375 562.604187,710.913391 565.587158,710.883972 
	C568.695435,710.853333 570.109924,711.710938 570.068726,715.111450 
	C569.923340,727.106201 570.190247,739.107788 569.924072,751.098389 
	C569.825134,755.554443 570.937073,757.232056 575.716553,757.095520 
	C587.536804,756.757874 599.374939,757.097473 611.202087,756.918457 
	C614.846069,756.863281 616.169495,757.947266 616.158569,761.726013 
	C616.147339,765.583618 614.282410,766.013123 611.180542,765.987183 
	C599.184875,765.886780 587.187683,765.913269 575.191345,765.956482 
	C566.246826,765.988708 560.169556,760.978210 560.972473,751.488586 
	C561.420349,746.194702 561.052979,740.831787 561.053040,735.000000 
z"/>
<path fill="#FEFEFE" opacity="1.000000" stroke="none" 
	d="
M484.659637,484.592285 
	C490.419006,510.448395 478.636200,533.241089 454.148773,541.629517 
	C422.457733,552.485474 391.292084,528.894592 390.890320,498.211212 
	C390.527344,470.486023 413.339386,449.338715 439.958984,450.170197 
	C459.486755,450.780182 477.684662,462.525421 484.659637,484.592285 
z"/>
<path fill="#FCFCFC" opacity="1.000000" stroke="none" 
	d="
M523.821777,499.977325 
	C516.386902,499.975555 509.426880,499.985321 502.466980,499.964447 
	C500.621216,499.958923 498.437866,500.000793 498.329987,497.521362 
	C498.229706,495.216309 500.418335,494.390564 502.138367,494.348419 
	C510.248352,494.149628 518.366272,494.153778 526.478760,494.270691 
	C528.364624,494.297882 530.253296,495.284271 529.897461,497.648834 
	C529.355103,501.252930 526.315735,499.533600 523.821777,499.977325 
z"/>
<path fill="#FCFCFC" opacity="1.000000" stroke="none" 
	d="
M352.336334,499.976105 
	C349.743225,499.872192 347.074219,500.225586 347.210999,497.008392 
	C347.322968,494.375519 349.721771,494.168518 351.712250,494.145508 
	C358.863281,494.062653 366.015930,494.088928 373.167633,494.132690 
	C374.141907,494.138641 375.152588,494.366516 376.078430,494.687622 
	C377.526062,495.189636 378.996063,495.910400 378.686310,497.800171 
	C378.380035,499.668640 376.817993,499.947662 375.246857,499.952087 
	C367.762238,499.973267 360.277527,499.970947 352.336334,499.976105 
z"/>
<path fill="#FEFEFE" opacity="1.000000" stroke="none" 
	d="
M390.828003,454.252441 
	C385.619232,449.058685 380.647766,444.134033 375.722198,439.163910 
	C374.797272,438.230621 373.868591,437.210449 373.284058,436.056824 
	C372.739288,434.981628 372.987854,433.706787 374.027618,432.892487 
	C374.979614,432.146942 375.892151,432.608368 376.727722,433.269897 
	C383.669495,438.766205 389.627441,445.293182 395.836029,451.554565 
	C397.143433,452.873047 397.581451,454.635956 396.066010,455.987152 
	C393.831238,457.979706 392.540527,455.722351 390.828003,454.252441 
z"/>
<path fill="#FEFEFE" opacity="1.000000" stroke="none" 
	d="
M500.631897,433.315552 
	C505.109985,433.181671 504.611053,435.580841 502.755646,437.539886 
	C496.935181,443.685394 490.845245,449.576202 484.839081,455.544922 
	C483.692383,456.684479 482.320953,457.422791 480.938171,456.008331 
	C479.509827,454.547302 479.873901,452.900909 481.158997,451.572083 
	C483.811554,448.829224 486.524658,446.140350 489.302734,443.524689 
	C492.919769,440.119049 496.624054,436.806152 500.631897,433.315552 
z"/>
<path fill="#FEFEFE" opacity="1.000000" stroke="none" 
	d="
M436.739441,408.122711 
	C440.150269,406.282013 440.928741,408.225677 440.953125,410.717560 
	C441.032959,418.873291 440.999084,427.030365 440.971771,435.186798 
	C440.965851,436.952362 440.584106,438.735626 438.343018,438.636200 
	C436.456146,438.552490 436.010620,436.933563 436.044769,435.347351 
	C436.237762,426.381958 435.408447,417.399628 436.739441,408.122711 
z"/>
<path fill="#FEFEFE" opacity="1.000000" stroke="none" 
	d="
M435.998779,566.081543 
	C436.038422,563.273132 436.006897,560.946899 436.146271,558.630920 
	C436.221802,557.375671 436.964935,556.390137 438.306641,556.283752 
	C439.946411,556.153748 440.852112,557.237183 440.865265,558.697632 
	C440.944611,567.492737 440.942719,576.288818 440.906342,585.084290 
	C440.900177,586.574524 440.049866,587.728271 438.465851,587.664368 
	C436.581146,587.588318 436.053192,586.112854 436.042084,584.496033 
	C436.001099,578.520203 436.009186,572.544067 435.998779,566.081543 
z"/>
<path fill="#FEFEFE" opacity="1.000000" stroke="none" 
	d="
M494.767212,549.233643 
	C497.600891,552.082825 500.206726,554.660461 502.757690,557.291199 
	C503.878632,558.447205 504.610046,559.929871 503.309540,561.261108 
	C501.989075,562.612793 500.483978,561.862549 499.350952,560.744385 
	C493.304291,554.777039 487.288544,548.778137 481.290314,542.762024 
	C480.122803,541.591064 479.539612,540.186951 481.008698,538.855774 
	C482.481720,537.520874 483.791962,538.371887 484.929718,539.488525 
	C488.139771,542.639038 491.323151,545.816650 494.767212,549.233643 
z"/>
<path fill="#FEFEFE" opacity="1.000000" stroke="none" 
	d="
M392.916626,538.785522 
	C394.637390,537.874817 395.822754,538.143616 396.576416,539.575378 
	C397.225433,540.808167 396.642334,541.840393 395.771912,542.710205 
	C389.760193,548.717834 383.746979,554.724121 377.705566,560.701843 
	C376.569916,561.825500 375.057495,562.637817 373.751007,561.297180 
	C372.236481,559.742981 373.299744,558.201294 374.540222,556.962708 
	C380.554382,550.957825 386.594604,544.979004 392.916626,538.785522 
z"/>
<path fill="#FEFEFE" opacity="1.000000" stroke="none" 
	d="
M463.330780,551.807251 
	C466.750549,555.567566 467.823090,560.135681 469.543488,564.391418 
	C470.132660,565.848816 469.619385,567.064026 468.187500,567.661865 
	C466.781555,568.249023 465.489990,567.841858 464.848694,566.411194 
	C463.224365,562.787659 461.480621,559.192078 460.232086,555.436462 
	C459.607391,553.557495 459.833038,551.257385 463.330780,551.807251 
z"/>
<path fill="#FEFEFE" opacity="1.000000" stroke="none" 
	d="
M497.014130,524.089966 
	C494.837830,523.157166 492.577545,522.423889 494.006958,519.771057 
	C495.092102,517.757141 496.930634,518.082031 498.791351,518.938904 
	C501.804352,520.326477 504.851349,521.650696 507.939087,522.861145 
	C509.667664,523.538757 510.301941,524.716980 509.831207,526.357056 
	C509.270660,528.310181 507.551331,528.220947 506.137238,527.726685 
	C503.165588,526.688049 500.284546,525.390320 497.014130,524.089966 
z"/>
<path fill="#FCFCFC" opacity="1.000000" stroke="none" 
	d="
M410.669250,567.777527 
	C407.197571,567.737854 406.700897,566.089355 407.806244,563.516907 
	C409.180389,560.318726 410.586975,557.133850 411.908081,553.913879 
	C412.539734,552.374329 413.548737,551.144592 415.218231,551.572754 
	C417.332062,552.114685 417.374115,554.161865 416.768768,555.674438 
	C415.122009,559.789062 414.200317,564.282776 410.669250,567.777527 
z"/>
<path fill="#FEFEFE" opacity="1.000000" stroke="none" 
	d="
M368.472229,467.192871 
	C373.671692,467.021576 377.632324,469.526855 381.726959,471.545410 
	C383.031494,472.188568 384.257050,473.373962 383.114288,475.138702 
	C382.316956,476.369965 381.207489,476.868713 379.721558,476.255554 
	C376.226868,474.813416 372.656525,473.538635 369.232391,471.947418 
	C367.214142,471.009491 366.081055,469.438538 368.472229,467.192871 
z"/>
<path fill="#FCFCFC" opacity="1.000000" stroke="none" 
	d="
M381.370422,523.605774 
	C377.819702,525.057617 374.619904,526.418213 371.358856,527.611450 
	C369.977081,528.117065 368.253754,528.546814 367.399231,526.835144 
	C366.454468,524.942688 367.613647,523.678162 369.292419,522.911865 
	C372.452515,521.469482 375.655396,520.120850 378.813354,518.673950 
	C380.375824,517.958008 381.737305,518.106628 382.837311,519.423828 
	C384.377197,521.267822 383.169159,522.413757 381.370422,523.605774 
z"/>
<path fill="#FCFCFC" opacity="1.000000" stroke="none" 
	d="
M408.732544,426.953796 
	C410.602417,426.016388 411.723877,426.897552 412.263672,428.126862 
	C413.921570,431.902466 415.449097,435.740997 416.857239,439.616852 
	C417.232758,440.650513 417.179871,442.074677 415.834290,442.596344 
	C415.155884,442.859283 414.157745,442.818085 413.494751,442.507538 
	C410.974854,441.327301 407.273407,429.840485 408.732544,426.953796 
z"/>
<path fill="#FEFEFE" opacity="1.000000" stroke="none" 
	d="
M509.880127,468.909058 
	C506.726044,474.471710 500.780273,474.427917 495.956238,476.380646 
	C494.606110,476.927185 492.942780,475.091461 493.795410,473.017029 
	C495.012726,470.055237 507.054718,466.747437 509.880127,468.909058 
z"/>
<path fill="#FCFCFC" opacity="1.000000" stroke="none" 
	d="
M465.122925,441.165436 
	C463.814880,442.701355 462.455627,443.529388 460.972870,442.516174 
	C459.481659,441.497162 459.888031,439.817108 460.461334,438.423187 
	C461.787048,435.199890 463.217377,432.018311 464.662994,428.846100 
	C465.392548,427.245209 466.698883,426.593323 468.334442,427.369019 
	C470.054138,428.184662 469.997772,429.621704 469.337524,431.187225 
	C467.983032,434.398926 466.675385,437.630371 465.122925,441.165436 
z"/>
<path fill="#FCFCFC" opacity="1.000000" stroke="none" 
	d="
M761.051025,729.770264 
	C761.044983,719.015442 761.044983,719.015015 771.338379,719.015564 
	C779.169250,719.015991 787.001343,719.094971 794.830444,718.978394 
	C797.731812,718.935181 799.081787,719.800842 799.023071,722.945007 
	C798.771667,736.414856 800.538452,733.701172 788.410706,733.925659 
	C780.749084,734.067505 773.082031,733.894836 765.418701,733.980103 
	C762.720703,734.010071 760.725342,733.566956 761.051025,729.770264 
z"/>
<path fill="#FCFCFC" opacity="1.000000" stroke="none" 
	d="
M511.718384,732.502258 
	C510.423584,734.270996 508.842896,733.932251 507.393829,733.936523 
	C497.775024,733.964661 488.153778,733.829895 478.538452,734.014038 
	C475.021729,734.081299 473.914490,732.815186 473.995453,729.388916 
	C474.288300,716.992737 472.595306,719.206970 484.164886,719.036682 
	C491.791992,718.924438 499.430389,719.227661 507.047546,718.930603 
	C511.134247,718.771240 512.380371,720.325012 512.024109,724.125549 
	C511.777374,726.757935 511.906128,729.425598 511.718384,732.502258 
z"/>
<path fill="#D8D8D8" opacity="1.000000" stroke="none" 
	d="
M777.011108,722.011230 
	C782.489807,722.014343 787.474487,722.142029 792.449524,721.978271 
	C795.950073,721.863098 796.016296,723.970642 796.015930,726.499390 
	C796.015625,729.027161 795.950195,731.084778 792.451172,731.024841 
	C784.152710,730.882751 775.848450,730.882690 767.549988,731.024963 
	C764.051941,731.084961 763.983704,729.029358 763.984131,726.500549 
	C763.984497,723.972839 764.047607,721.797363 767.549866,721.986816 
	C770.529297,722.148010 773.524658,722.014404 777.011108,722.011230 
z"/>
<path fill="#D8D8D8" opacity="1.000000" stroke="none" 
	d="
M507.476624,730.759033 
	C498.402313,730.919983 489.756958,730.834839 481.118683,731.043518 
	C477.681061,731.126526 476.905121,729.630615 476.944855,726.560425 
	C476.982666,723.639771 477.416260,721.852783 480.996277,721.954468 
	C488.138123,722.157349 495.289886,722.007812 502.437531,722.012451 
	C509.589966,722.017151 510.609863,723.628723 507.476624,730.759033 
z"/>
</svg>