<svg xmlns="http://www.w3.org/2000/svg" role="img" viewBox="-6.06 -1.56 445.12 435.12"><style>svg {enable-background:new 0 0 432 432}</style><style>.st1{fill:#fff}</style><path fill="none" d="M294.2 127.1c-17.9-14.1-39.5-23.3-62.6-26.1l1.5 26.1h61.1zm-94.4 0l1.5-26.1c-4.3.5-8.7 1.3-12.9 2.2-18.9 4.3-35.9 12.6-50.1 23.8h61.5zm-71.1 189.3c6.1 5.9 12.7 11.2 19.9 15.8l6.5-15.8h-26.4zm149.3 0l6.6 16c7.3-4.7 14.1-10 20.2-16H278zm-85.9 0l-16 29.1c21.4 7.3 45 8.9 68.6 3.5 4.3-1 8.3-2.1 12.4-3.4L241 316.4h-48.9z"/><path d="M420.2 260c-1.1-.2-2.6-.6-3.5-.9-4.3-.7-7.7-.6-11.6-1-8.5-.9-15.5-1.6-21.8-3.6-2.6-1-4.4-4.1-5.2-5.2l-4.9-1.4c2.6-18.4 1.8-37.6-2.6-56.7-4.5-19.3-12.3-37.1-22.8-52.7 1.3-1.2 3.6-3.2 4.3-3.8.2-2.1 0-4.5 2.2-6.8 4.8-4.5 10.8-8.2 18.1-12.7 3.4-2 6.6-3.3 10.1-5.9.7-.5 1.8-1.5 2.7-2.1 5.9-4.7 7.2-12.7 3-17.9-4.2-5.2-12.3-5.8-18.2-1.1-.9.6-1.9 1.5-2.7 2.1-3.3 2.8-5.2 5.6-8 8.5-6 6.1-11 11.2-16.3 14.8-2.4 1.4-5.8.9-7.4.9l-4.6 3.3C304.6 90.1 268.7 72.5 230 69c-.1-1.6-.2-4.6-.3-5.4-1.6-1.5-3.5-2.8-4-6.1-.5-6.5.3-13.6 1.4-22 .5-4 1.5-7.3 1.7-11.5v-3.4c0-7.5-5.4-13.5-12.2-13.5s-12.2 6.1-12.2 13.5v.3c0 1-.1 2.2 0 3.1.1 4.3 1.1 7.6 1.7 11.5 1.1 8.4 1.9 15.5 1.4 22-.5 2.5-2.4 4.7-4 6.3l-.3 5.1c-7.3.6-14.6 1.7-22 3.4-31.6 7.2-58.8 23.4-79.5 45.4-1.4-1-3.7-2.6-4.4-3.1-2.1.3-4.4 1-7.3-.7-5.4-3.6-10.4-8.8-16.3-14.8-2.8-2.9-4.7-5.7-8-8.5-.7-.6-1.9-1.5-2.7-2.1-2.6-2-5.6-3.1-8.4-3.2-3.6-.3-7.3 1.1-9.6 4.1-4.2 5.2-2.9 13.2 3 17.9.1 0 .1.1.2.1.9.6 1.8 1.5 2.6 2 3.4 2.6 6.6 3.8 10 5.9 7.3 4.5 13.4 8.2 18.1 12.7 1.8 2 2.2 5.4 2.5 7.1l3.8 3.5C64.3 170 54.6 208.8 60.4 248.3l-5.1 1.5c-1.4 1.7-3.2 4.5-5.2 5.2-6.3 1.9-13.4 2.7-21.8 3.6-4 .3-7.5.1-11.6 1-1 .2-2.2.5-3.2.7h-.3C6 262 1.4 268.6 2.9 275.1s8.4 10.5 15.7 8.9h.2c.1 0 .1-.1.2-.1 1-.2 2.2-.4 3.1-.7 4.2-1.1 7.2-2.8 10.9-4.2 8-2.9 14.7-5.3 21.2-6.2 2.7-.2 5.6 1.7 6.9 2.5l5.3-1c12.2 37.8 37.7 68.4 70.1 87.6l-2.2 5.3c.7 2 1.7 4.8 1.1 6.8-2.4 6.1-6.4 12.6-11 19.8-2.2 3.3-4.5 5.9-6.5 9.7-.5 1-1.1 2.4-1.6 3.3-3.1 6.7-.9 14.4 5.1 17.3 6.1 2.9 13.6-.1 16.8-6.8.4-1 1.1-2.2 1.5-3.1 1.7-4 2.2-7.4 3.5-11.1 3.2-8.1 5-16.6 9.4-21.9 1.2-1.5 3.2-2 5.2-2.6l2.8-5c28.2 10.8 59.8 13.8 91.3 6.6 7.2-1.6 14.1-3.7 20.8-6.3.7 1.4 2.2 4.1 2.6 4.7 2 .6 4.4 1.1 6.2 3.7 3.3 5.7 5.6 12.4 8.3 20.4 1.2 3.8 1.8 7.2 3.5 11.1.4.9 1.1 2.1 1.5 3.1 3.2 6.7 10.8 9.8 16.8 6.8 6-2.9 8.3-10.6 5.1-17.3-.4-1-1.1-2.4-1.6-3.3-2-3.8-4.3-6.4-6.5-9.7-4.6-7.2-8.4-13.1-10.8-19.3-1-3.2.2-5.1 1-7.2-.4-.5-1.5-3.5-2-4.9 33.7-19.9 58.4-51.6 70.1-88.2 1.6.2 4.3.7 5.2 1 1.8-1.2 3.5-2.8 6.8-2.6 6.5 1 13.1 3.3 21.2 6.2 3.7 1.4 6.7 3.1 10.9 4.2.9.2 2.1.4 3.1.6.1 0 .1.1.2.1h.2c7.2 1.6 14.2-2.4 15.7-8.9 1.7-6.1-2.9-12.7-10-14.4zm-89.6-113.3v49.9H102.2v-49.9h228.4zm-34 84.4c1.1.7 2.6 1.2 4.3 1.2 1.2 0 2.2-.1 3.4-.3 1.1-.2 2-.5 2.8-.9l.9 5.3c-.3.2-.7.3-1.4.5-.5.2-1.2.3-1.9.4-.7.1-1.4.2-2.2.3-.7.1-1.6.1-2.4.1-2 0-3.7-.3-5.2-1-1.5-.6-2.7-1.5-3.7-2.6s-1.7-2.4-2.1-3.7c-.4-1.5-.7-3-.7-4.7 0-2 .3-3.8 1-5.3.6-1.5 1.4-2.8 2.4-3.8 1-1.1 2.1-1.8 3.4-2.4 1.3-.5 2.6-.7 4-.7 3.2 0 5.7 1 7.5 3 1.8 2 2.8 4.9 2.8 8.9v1.3c0 .4-.1.9-.1 1.2h-14.3c-.2 1.4.4 2.5 1.5 3.2zm-19.2-23.6v6.8h7.6v5.4h-7.6v8.1c0 1.4.2 2.5.7 3.3.4.9 1.4 1.2 2.8 1.2.6 0 1.4-.1 2.1-.2.7-.1 1.4-.3 1.9-.5l.9 5.1c-.7.3-1.6.6-2.6.9-1 .2-2 .3-3.4.3-1.7 0-3.2-.2-4.3-.7-1.2-.5-2-1.2-2.7-2-.6-.9-1.2-1.9-1.4-3.1-.3-1.2-.4-2.6-.4-4.1v-19.3l6.4-1.2zm36.5 23.7c1.1.4 2.1.7 3.3 1.1 1.2.2 2.2.3 3.3.3 1.2 0 2-.1 2.5-.3.4-.2.7-.6.7-1.4 0-.5-.3-1-1-1.4-.6-.4-1.6-.9-2.9-1.3-1-.4-1.9-.7-2.7-1.2-.9-.4-1.5-.9-2-1.5s-1-1.3-1.3-2c-.3-.7-.4-1.7-.4-2.9 0-2.1.7-3.8 2.4-5.1s3.7-1.9 6.4-1.9c1.4 0 2.7.1 4 .3 1.3.2 2.2.5 3 .9l-1.1 5.1c-.7-.2-1.5-.5-2.4-.7-.9-.2-1.8-.3-2.9-.3-2 0-3 .5-3 1.7 0 .2 0 .5.1.7.1.2.2.4.5.6.3.2.6.4 1.1.6.4.2 1 .4 1.7.7 1.4.5 2.6 1.1 3.4 1.6.9.5 1.6 1.1 2.1 1.7.5.6.9 1.3 1.1 2 .2.7.3 1.6.3 2.6 0 2.2-.9 4-2.5 5.1-1.6 1.2-4 1.7-7.1 1.7-2 0-3.6-.2-4.9-.5-1.3-.3-2.2-.6-2.8-.9l1.1-5.3zm-60.1-.1c1.1.7 2.6 1.2 4.3 1.2 1.2 0 2.2-.1 3.4-.3 1.1-.2 2-.5 2.8-.9l.9 5.3c-.3.2-.7.3-1.4.5-.5.2-1.2.3-1.9.4-.7.1-1.4.2-2.2.3-.7.1-1.6.1-2.4.1-2 0-3.7-.3-5.2-1-1.5-.6-2.7-1.5-3.7-2.6s-1.7-2.4-2.1-3.7c-.4-1.5-.7-3-.7-4.7 0-2 .3-3.8 1-5.3.6-1.5 1.4-2.8 2.4-3.8 1-1.1 2.1-1.8 3.4-2.4 1.3-.5 2.6-.7 4-.7 3.2 0 5.7 1 7.5 3 1.8 2 2.8 4.9 2.8 8.9v1.3c0 .4-.1.9-.1 1.2h-14.3c-.2 1.4.5 2.5 1.5 3.2zm-19.3 6.2v-12.2c0-2.1-.3-3.6-.9-4.5s-1.5-1.3-3-1.3c-.4 0-1 0-1.4.1-.5 0-1 .1-1.4.1v17.7h-6.3V215c1.1-.3 2.5-.6 4.2-.9 1.7-.2 3.5-.4 5.3-.4 1.9 0 3.4.2 4.7.7 1.3.5 2.2 1.3 3 2.1.7 1 1.3 2 1.6 3.3s.4 2.7.4 4.3v13l-6.2.2zm-48.3-6.2c1.1.7 2.6 1.2 4.3 1.2 1.2 0 2.2-.1 3.4-.3 1.1-.2 2-.5 2.8-.9l.9 5.3c-.3.2-.7.3-1.4.5-.5.2-1.2.3-1.9.4-.7.1-1.4.2-2.2.3-.7.1-1.6.1-2.4.1-2 0-3.7-.3-5.2-1-1.5-.6-2.7-1.5-3.7-2.6s-1.7-2.4-2.1-3.7c-.4-1.5-.7-3-.7-4.7 0-2 .3-3.8 1-5.3.6-1.5 1.4-2.8 2.4-3.8 1-1.1 2.1-1.8 3.4-2.4s2.6-.7 4-.7c3.2 0 5.7 1 7.5 3 1.8 2 2.8 4.9 2.8 8.9v1.3c0 .4-.1.9-.1 1.2h-14.3c-.2 1.4.4 2.5 1.5 3.2zm25.1-11.6c-.5.1-1 .1-1.3.2v17.6h-6.3v-21.8c1.2-.4 2.5-.7 4.1-1.2 1.5-.3 3.2-.5 5.1-.5.3 0 .7 0 1.3.1.4 0 1 .1 1.4.2s1 .2 1.4.2c.4.1.9.2 1.3.3l-1.1 5.3c-.5-.1-1.3-.3-2-.4-.7-.1-1.6-.2-2.5-.2-.4.1-.9.1-1.4.2zm-90 11.1c.9 1.2 1.6 2.4 2.4 3.5.7 1.2 1.3 2.2 1.8 3.2h-7.3c-.4-.7-1-1.6-1.5-2.6s-1.2-1.8-1.8-2.8-1.3-1.8-2-2.7c-.7-.9-1.4-1.6-2.1-2.1v10.1h-6.5v-32.9l6.3-1.1v19.2c.6-.7 1.3-1.4 1.9-2.1.6-.7 1.3-1.5 1.9-2.2.6-.7 1.2-1.5 1.7-2.1.5-.6 1.1-1.3 1.4-1.7h7.5c-1.5 1.8-3 3.5-4.4 5.1-1.4 1.6-3 3.3-4.7 5 .9.7 1.7 1.7 2.7 2.8.9 1 1.8 2.2 2.7 3.4zm6.8-3.5v-12.8h6.3v12.1c0 2.1.3 3.6.9 4.6.5 1 1.5 1.4 3 1.4.4 0 1 0 1.4-.1.5 0 1-.1 1.4-.1v-17.7h6.3v22.1c-1.1.3-2.5.6-4.2.9-1.7.2-3.5.4-5.3.4-1.9 0-3.4-.2-4.7-.7s-2.2-1.3-3-2.2c-.7-1-1.3-2-1.6-3.4-.3-1.5-.5-2.9-.5-4.5zm25.2-22.8l6.3-1.1v11.4c.7-.3 1.4-.5 2.2-.7.7-.2 1.6-.2 2.5-.2 1.6 0 3 .3 4.2.9 1.2.5 2.2 1.4 3.1 2.5.9 1.1 1.4 2.4 1.8 3.7.4 1.4.6 3.1.6 4.9 0 1.8-.2 3.5-.7 5-.5 1.5-1.3 2.8-2.2 3.8-1 1.1-2.2 1.8-3.6 2.5-1.5.5-3.1.9-4.9.9-.7 0-1.6 0-2.4-.1-.9-.1-1.6-.2-2.5-.3s-1.6-.2-2.4-.4c-.7-.1-1.4-.3-1.9-.5v-32.2h-.1zm-51.1 43h228.4v49.9H102.2v-49.9zm192-120.2h-61.1l-1.5-26.1c23.2 2.8 44.8 12 62.6 26.1zm-106-24c4.4-1 8.7-1.7 12.9-2.2l-1.5 26.1H138c14.3-11.1 31.3-19.5 50.2-23.9zm-39.6 229c-7.2-4.6-13.8-9.8-19.9-15.8h26.4l-6.5 15.8zm96.2 16.9c-23.7 5.3-47.2 3.7-68.6-3.5l16-29.1h48.7l16.1 29.2c-3.9 1.2-8.1 2.4-12.2 3.4zm39.8-16.6l-6.6-16h26.8c-6.2 6-12.9 11.3-20.2 16z"/><path d="M302.9 221.8c-.1-.5-.4-1-.7-1.4-.3-.4-.7-.7-1.3-1s-1.1-.4-1.8-.4-1.3.1-1.8.3-1 .5-1.3 1c-.3.4-.6.9-.7 1.4-.2.5-.3 1.1-.4 1.6h8.3c-.1-.4-.2-.9-.3-1.5zm-143.3 10.3c.3.1.7.1 1.2.1s1 .1 1.6.1c1.7 0 3-.6 4-1.8.9-1.2 1.3-2.9 1.3-4.9 0-4.2-1.5-6.3-4.5-6.3-.6 0-1.3.1-1.9.2-.6.2-1.2.4-1.5.6v12h-.2zm32.2-11.7c-.3-.4-.7-.7-1.3-1s-1.1-.4-1.8-.4-1.3.1-1.8.3c-.5.2-1 .5-1.3 1-.3.4-.6.9-.7 1.4-.2.5-.3 1.1-.4 1.6h8.3c0-.5-.1-1.1-.3-1.6-.3-.5-.4-.8-.7-1.3zm67.6 0c-.3-.4-.7-.7-1.3-1s-1.1-.4-1.8-.4-1.3.1-1.8.3-1 .5-1.3 1c-.3.4-.6.9-.7 1.4-.2.5-.3 1.1-.4 1.6h8.3c0-.5-.1-1.1-.3-1.6s-.4-.8-.7-1.3z"/><path d="M304.8 180c4.6 0 7.6-3.1 7.6-7.6v-.1c0-4.5-3.1-7.6-7.6-7.6h-4.3V180h4.3zm-126-8.1c2.7 0 4.3-1.5 4.3-3.6v-.1c0-2.4-1.7-3.6-4.4-3.6h-5.6v7.3h5.7z" class="st1"/><path d="M102.2 146.7v49.9h228.4v-49.9H102.2zm24.5 38.7c-7.5 0-13-5.8-13-13v-.1c0-7.2 5.4-13.1 13.2-13.1 4.8 0 7.6 1.6 9.9 4l-3.5 4.1c-1.9-1.8-4-2.9-6.5-2.9-4.3 0-7.4 3.5-7.4 7.9v.1c0 4.4 3 7.9 7.4 7.9 2.9 0 4.7-1.2 6.6-3l3.5 3.6c-2.4 2.7-5.3 4.5-10.2 4.5zm35-.4h-19.2v-25.3h19.1v4.9H148v5.1h12v4.9h-12v5.3h13.8v5h-.1zm21.3 0l-5.4-8.1h-4.4v8.1h-5.6v-25.3h11.5c3.2 0 5.7.9 7.4 2.6 1.4 1.4 2.1 3.4 2.1 5.8v.1c0 4.1-2.2 6.6-5.4 7.8l6.2 9.1H183zm30.9-20.2h-7.7V185h-5.6v-20.2h-7.8v-5.1h20.9v5.1h.2zm11 20.2h-5.6v-25.3h5.6V185zm70.1-25.3h9.8c7.9 0 13.5 5.4 13.5 12.6v.1c0 7.2-5.4 12.7-13.5 12.7H295v-25.4zm-6.1 0v4.9h-13.6v5.1h12v4.9h-12v5.3h13.8v4.9h-19.2v-25.3h19v.2zm-26.3 0V185h-5.7v-25.3h5.7zm-11.2 5h-13.7v5.3h12.1v5h-12.1v9.8h-5.6v-25.3h19.2v5.2zm60.5 102.5h-3.6v4.7h3.6c1.7 0 2.8-1 2.8-2.4.1-1.5-1-2.3-2.8-2.3z" class="st1"/><path d="M330.6 297.1v-49.9H102.2v49.9h228.4zm-181.7-24.9c0 4.6-3.5 8.2-8.8 8.2h-6.4v-16.5h6.4c5.2 0 8.8 3.6 8.8 8.3zm11.3 4.4l-4.6-6.9v10.7h-3.5v-16.5h4l4.3 6.9 4.3-6.9h4v16.5h-3.6v-10.8l-4.9 7zm122.5-9.4h-5v13.1H274v-13.1h-5v-3.3h13.7v3.3zm18.8 5c0 4.7-3.7 8.5-8.8 8.5-5.1 0-8.8-3.7-8.8-8.4s3.7-8.5 8.8-8.5c5.1-.1 8.8 3.7 8.8 8.4zm15.6-6.6c1 1 1.4 2.2 1.4 3.7 0 2.7-1.4 4.3-3.5 5.1l4.1 5.9h-4.3l-3.5-5.2h-2.8v5.2h-3.6v-16.5h7.5c1.9.1 3.6.8 4.7 1.8zm-57.7-1.8h3.3l7.1 16.6H266l-1.5-3.7h-6.9l-1.5 3.7h-3.7l7-16.6zm-22.7.1h7.5c2.1 0 3.7.5 4.8 1.7 1 1 1.4 2.2 1.4 3.7 0 2.7-1.4 4.3-3.5 5.1l4.1 5.9h-4.3l-3.5-5.2h-2.8v5.2h-3.6v-16.4zm-16.3 0h13.7v3.3h-5v13.1h-3.6v-13.1h-5l-.1-3.3zm-8.6 9.9c-3.3-.9-5.4-1.8-5.4-5 0-3 2.4-4.9 5.8-4.9 2.4 0 4.5.7 6.1 2.1l-1.9 2.6c-1.5-1-2.9-1.6-4.3-1.6s-2.1.6-2.1 1.4c0 1.1.7 1.4 3.5 2.1 3.3.9 5.2 2 5.2 4.9 0 3.3-2.5 5.1-6.1 5.1-2.5 0-5-.9-6.9-2.7l2.1-2.6c1.5 1.2 3 2 4.9 2 1.5 0 2.4-.5 2.4-1.6.1-.7-.5-1.1-3.3-1.8zm-12.7-9.9h3.6v16.5h-3.6v-16.5zm-18.7 0h3.3l7.7 10.1v-10.1h3.5v16.5h-3.1l-8-10.5v10.5h-3.5v-16.5h.1zm-4.1 0v16.5h-3.6v-16.5h3.6zm-55.5-.1h3.3l7.1 16.6h-3.7l-1.5-3.7h-7l-1.5 3.7h-3.7l7-16.6z" class="st1"/><path d="M292.7 267c-2.9 0-4.9 2.4-4.9 5.1 0 2.8 2 5.1 5 5.1 2.9 0 4.9-2.4 4.9-5.1 0-2.7-2-5.1-5-5.1zm-170.3 1.2l-2.2 5.3h4.4zm17.8-1h-2.8v9.9h2.8c3 0 4.9-2 4.9-4.9 0-2.9-1.9-5-4.9-5zm123 6.3l-2.2-5.3-2.1 5.3zm-16.3-3.9c0-1.6-1.1-2.4-2.9-2.4h-3.6v4.7h3.6c1.8 0 2.9-.9 2.9-2.3z" class="st1"/><path d="M137.2 180.8l-3.5-3.6c-2 1.8-3.7 3-6.6 3-4.4 0-7.4-3.6-7.4-7.9v-.1c0-4.4 3.1-7.9 7.4-7.9 2.6 0 4.5 1.1 6.5 2.9l3.5-4.1c-2.4-2.4-5.2-4-9.9-4-7.8 0-13.2 5.9-13.2 13.1v.1c0 7.3 5.6 13 13 13 4.6.1 7.5-1.7 10.2-4.5zm10.9-6.2h11.8v-4.9h-11.8v-5.1h13.5v-4.9h-19.1V185h19.2v-5h-13.6zm40.7-6.5c0-2.5-.7-4.5-2.1-5.9-1.7-1.7-4.2-2.6-7.4-2.6h-11.5V185h5.6v-8.1h4.4l5.4 8.1h6.5l-6.2-9.1c3-1.2 5.3-3.7 5.3-7.8zm-15.6 3.8v-7.3h5.6c2.7 0 4.4 1.3 4.4 3.6v.1c0 2.1-1.6 3.6-4.3 3.6h-5.7zm19.6-12.2v5.1h7.8V185h5.6v-20.2h7.7v-5.1zm26.5 0h5.6V185h-5.6zm12.8 0V185h5.6v-9.8h12.1V170h-12.1v-5.3h13.7v-5zm24.8 0h5.6V185h-5.6zm12.8 25.3h19.4v-5h-13.8v-5.4h12v-4.9h-12v-5.1h13.6v-4.9h-19.2zm35.1 0c7.9 0 13.5-5.6 13.5-12.7v-.1c0-7.2-5.4-12.6-13.5-12.6H295v25.3h9.8v.1zm-4.3-20.3h4.3c4.6 0 7.6 3.1 7.6 7.6v.1c0 4.5-3.1 7.6-7.6 7.6h-4.3v-15.3zM117.4 280.4l1.5-3.7h6.9l1.5 3.7h3.7l-7.1-16.6h-3.3l-7.1 16.6h3.9zm5-12.2l2.1 5.3h-4.4l2.3-5.3zm17.8-4.3h-6.4v16.5h6.4c5.1 0 8.8-3.6 8.8-8.2-.1-4.7-3.7-8.3-8.8-8.3zm4.9 8.4c0 2.9-2 4.9-4.9 4.9h-2.8v-9.9h2.8c3-.1 4.9 2 4.9 5zm19.8 8.1h3.7v-16.5h-4l-4.2 7-4.4-7h-3.9v16.5h3.6v-10.7l4.5 6.9h.2l4.5-6.9zm7.7-16.5h3.6v16.5h-3.6zm11.4 6l8 10.5h3.1v-16.5h-3.7v10.2l-7.6-10.2h-3.4v16.5h3.6zm15.1-6h3.6v16.5h-3.6zm13.7 13.5c-1.9 0-3.4-.7-4.9-2l-2.1 2.6c1.9 1.8 4.5 2.7 6.9 2.7 3.5 0 6.1-1.8 6.1-5.1 0-2.9-1.9-4.1-5.2-4.9-2.9-.7-3.5-1.1-3.5-2.1 0-.7.7-1.4 2.1-1.4s2.8.6 4.3 1.6l1.9-2.8c-1.7-1.4-3.7-2.1-6.1-2.1-3.3 0-5.8 1.9-5.8 4.9 0 3.3 2.1 4.2 5.4 5 2.8.7 3.3 1.2 3.3 2.1 0 1-.9 1.5-2.4 1.5zm12.6 3h3.6v-13.2h5v-3.3h-13.6v3.3h5zm15-5.3h2.8l3.5 5.2h4.3l-4.1-5.9c2.1-.7 3.5-2.5 3.5-5.1 0-1.6-.5-2.9-1.4-3.7-1.1-1.1-2.7-1.7-4.8-1.7h-7.5v16.5h3.6v-5.3zm0-7.9h3.6c1.8 0 2.9.7 2.9 2.4 0 1.4-1 2.4-2.8 2.4h-3.6v-4.7h-.1zm17.2 9.5h6.9l1.5 3.7h3.7l-7.1-16.6h-3.3l-7.1 16.6h3.7l1.7-3.7zm3.4-8.5l2.1 5.3h-4.4l2.3-5.3zm8-1h5v13.2h3.7v-13.2h5v-3.3H269zm23.8-3.5c-5.1 0-8.8 3.8-8.8 8.5s3.6 8.4 8.8 8.4c5.1 0 8.8-3.8 8.8-8.5-.1-4.6-3.8-8.4-8.8-8.4zm4.9 8.6c0 2.8-2 5.1-4.9 5.1-2.9 0-5-2.4-5-5.1 0-2.8 2-5.1 4.9-5.1 3-.2 5 2.2 5 5.1zm7-8.4v16.5h3.6v-5.2h2.8l3.5 5.2h4.3l-4.1-5.9c2.1-.7 3.5-2.5 3.5-5.1 0-1.6-.5-2.9-1.4-3.7-1.1-1.1-2.7-1.7-4.8-1.7h-7.4zm10.1 5.7c0 1.4-1 2.4-2.8 2.4h-3.6v-4.7h3.6c1.7-.1 2.8.7 2.8 2.3z"/><path d="M116 224.4c1.7-1.7 3.2-3.4 4.7-5 1.4-1.6 2.9-3.3 4.4-5.1h-7.5c-.4.5-.9 1.1-1.4 1.7-.5.6-1.2 1.4-1.7 2.1-.6.7-1.3 1.5-1.9 2.2-.6.7-1.3 1.5-1.9 2.1v-19.2l-6.3 1.1v32.9h6.3v-10.1c.7.5 1.4 1.3 2.1 2.1.7.9 1.4 1.7 2 2.7.6 1 1.3 1.8 1.8 2.8.5 1 1.1 1.8 1.5 2.6h7.3c-.5-1-1.1-2-1.8-3.2-.7-1.2-1.5-2.4-2.4-3.5-.9-1.2-1.7-2.4-2.7-3.4-.8-1.1-1.6-2.1-2.5-2.8zm14.1 10.5c.7 1 1.7 1.7 3 2.2s2.9.7 4.7.7 3.6-.1 5.3-.4c1.7-.3 3.1-.5 4.2-.9v-22.2H141V232c-.4.1-.9.1-1.4.1s-1 .1-1.4.1c-1.5 0-2.5-.4-3-1.4-.5-1-.9-2.5-.9-4.6v-12.1H128v12.8c0 1.6.1 3 .4 4.4.5 1.4 1.1 2.6 1.7 3.6zm27.5 2.5c.9.1 1.6.2 2.5.3.9.1 1.6.1 2.4.1 1.8 0 3.5-.3 4.9-.9 1.4-.5 2.7-1.4 3.6-2.5s1.7-2.4 2.2-3.8.7-3.2.7-5-.2-3.4-.6-4.9c-.4-1.5-1.1-2.8-1.8-3.7-.9-1.1-1.8-1.8-3.1-2.5-1.2-.5-2.6-.9-4.2-.9-.9 0-1.7.1-2.5.2-.7.2-1.5.4-2.2.7v-11.3l-6.3 1.1v32.2c.5.2 1.2.3 1.9.5.9.2 1.7.3 2.5.4zm3.6-17.8c.6-.2 1.3-.2 1.9-.2 3 0 4.5 2.1 4.5 6.3 0 2-.4 3.6-1.3 4.9-.9 1.2-2.1 1.8-4 1.8-.5 0-1.1 0-1.6-.1-.5 0-.9-.1-1.2-.1v-11.9c.5-.4 1.1-.6 1.7-.7zm37.5 8.3c0-.3.1-.7.1-1.2v-1.3c0-3.8-1-6.8-2.8-8.9-1.8-2-4.4-3-7.5-3-1.4 0-2.7.2-4 .7s-2.5 1.3-3.4 2.4-1.8 2.4-2.4 3.8c-.6 1.5-1 3.3-1 5.3 0 1.7.2 3.3.7 4.7.4 1.5 1.2 2.7 2.1 3.7 1 1.1 2.2 1.9 3.7 2.6 1.5.6 3.2 1 5.2 1 .7 0 1.6 0 2.4-.1.7-.1 1.5-.2 2.2-.3s1.3-.3 1.9-.4c.5-.2 1.1-.3 1.4-.5l-.9-5.3c-.7.3-1.6.6-2.8.9-1.1.2-2.2.3-3.4.3-1.8 0-3.2-.4-4.3-1.2-1.1-.7-1.7-1.8-1.8-3.2h14.6zm-14.3-4.5c.1-.5.2-1.1.4-1.6s.4-1 .7-1.4c.3-.4.7-.7 1.3-1s1.1-.3 1.8-.3 1.4.1 1.8.4c.5.2.9.6 1.3 1 .4.3.5.9.7 1.4s.2 1.1.3 1.6h-8.4v-.1zm32.8-3.4l1.1-5.3c-.3-.1-.7-.3-1.3-.3-.5-.1-1-.2-1.4-.2-.5-.1-1-.1-1.4-.2-.5 0-.9-.1-1.3-.1-1.9 0-3.6.2-5.1.5-1.5.3-2.9.7-4.1 1.2v21.8h6.3v-17.6c.3-.1.7-.2 1.3-.2.5-.1 1.1-.1 1.4-.1.9 0 1.7.1 2.5.2.7 0 1.3.2 2 .3zm23.6 4.3c0-1.6-.1-3-.4-4.3-.3-1.3-.9-2.4-1.6-3.3s-1.7-1.7-3-2.1c-1.3-.5-2.9-.7-4.7-.7-1.8 0-3.6.1-5.3.4-1.7.3-3.1.5-4.2.9v22.2h6.3v-17.7c.4-.1.9-.1 1.4-.1s1-.1 1.4-.1c1.5 0 2.5.4 3 1.3s.9 2.4.9 4.5v12.2h6.3l-.1-13.2zm25.6 2.4v-1.3c0-3.8-1-6.8-2.8-8.9-1.8-2-4.4-3-7.5-3-1.4 0-2.7.2-4 .7s-2.5 1.3-3.4 2.4-1.8 2.4-2.4 3.8c-.6 1.5-1 3.3-1 5.3 0 1.7.2 3.3.7 4.7.4 1.5 1.2 2.7 2.1 3.7 1 1.1 2.2 1.9 3.7 2.6 1.5.6 3.2 1 5.2 1 .7 0 1.6 0 2.4-.1.7-.1 1.5-.2 2.2-.3.7-.1 1.3-.3 1.9-.4.5-.2 1.1-.3 1.4-.5l-.9-5.3c-.7.3-1.6.6-2.8.9-1.1.2-2.2.3-3.4.3-1.8 0-3.2-.4-4.3-1.2-1.1-.7-1.7-1.8-1.8-3.2H266c.3-.3.4-.7.4-1.2zm-14.4-3.3c.1-.5.2-1.1.4-1.6s.4-1 .7-1.4c.3-.4.7-.7 1.3-1s1.1-.3 1.8-.3 1.4.1 1.8.4c.5.2.9.6 1.3 1s.5.9.7 1.4c.2.5.2 1.1.3 1.6H252v-.1zm19.1 4.5c0 1.5.1 2.9.4 4.1.3 1.2.7 2.2 1.4 3.1.6.9 1.6 1.5 2.7 2 1.2.5 2.6.7 4.3.7 1.4 0 2.5-.1 3.4-.3 1-.2 1.8-.5 2.6-.9l-.9-5.1c-.6.2-1.3.4-1.9.5-.6.1-1.4.2-2.1.2-1.4 0-2.4-.4-2.8-1.2-.4-.9-.7-1.9-.7-3.3v-8.1h7.6v-5.4h-7.6v-6.8l-6.3 1.1v19.4zm38 0c0-.3.1-.7.1-1.2v-1.3c0-3.8-1-6.8-2.8-8.9-1.8-2-4.4-3-7.5-3-1.4 0-2.7.2-4 .7-1.3.5-2.5 1.3-3.4 2.4-1 1.1-1.8 2.4-2.4 3.8-.6 1.5-1 3.3-1 5.3 0 1.7.2 3.3.7 4.7.4 1.5 1.2 2.7 2.1 3.7s2.2 1.9 3.7 2.6 3.2 1 5.2 1c.7 0 1.6 0 2.4-.1.7-.1 1.5-.2 2.2-.3.7-.1 1.3-.3 1.9-.4.5-.2 1.1-.3 1.4-.5l-.9-5.3c-.7.3-1.6.6-2.8.9-1.1.2-2.2.3-3.4.3-1.8 0-3.2-.4-4.3-1.2-1.1-.7-1.7-1.8-1.8-3.2h14.6zm-13.9-6.1c.2-.5.4-1 .7-1.4.3-.4.7-.7 1.3-1s1.1-.3 1.8-.3 1.4.1 1.8.4c.5.2.9.6 1.3 1 .4.3.5.9.7 1.4s.2 1.1.3 1.6h-8.3c.1-.6.2-1.1.4-1.7zm25.3 16.1c3 0 5.3-.5 7.1-1.7 1.6-1.2 2.5-2.9 2.5-5.1 0-1-.1-1.8-.3-2.6-.2-.7-.5-1.4-1.1-2-.5-.6-1.3-1.2-2.1-1.7s-2-1.1-3.4-1.6c-.6-.2-1.3-.5-1.7-.7s-.7-.4-1.1-.6c-.3-.2-.4-.4-.5-.6-.1-.2-.1-.4-.1-.7 0-1.2 1-1.7 3-1.7 1.1 0 2 .1 2.9.3.9.2 1.7.4 2.4.7l1.1-5.1c-.7-.3-1.7-.5-3-.9-1.3-.2-2.6-.3-4-.3-2.7 0-4.8.6-6.4 1.9s-2.4 3-2.4 5.1c0 1.1.1 2 .4 2.9.3.7.7 1.5 1.3 2s1.3 1.1 2 1.5c.9.4 1.7.9 2.7 1.2 1.3.5 2.2 1 2.9 1.3.6.4 1 .9 1 1.4 0 .6-.2 1.2-.7 1.4s-1.3.3-2.5.3c-1.1 0-2.2-.1-3.3-.3-1.2-.2-2.2-.6-3.3-1.1l-1.1 5.3c.5.2 1.4.5 2.8.9 1.3.4 2.9.5 4.9.5z" class="st1"/></svg>