<?xml version="1.0" encoding="utf-8"?>
<!-- Generator: Adobe Illustrator 21.1.0, SVG Export Plug-In . SVG Version: 6.00 Build 0)  -->
<svg version="1.1" id="Layer_1" xmlns="http://www.w3.org/2000/svg" xmlns:xlink="http://www.w3.org/1999/xlink" x="0px" y="0px"
	 viewBox="0 0 406 398" style="enable-background:new 0 0 406 398;" xml:space="preserve">
<style type="text/css">
	.st0{fill:#FFFFFF;}
	.st1{enable-background:new    ;}
</style>
<path d="M202.1,263.4c1.6-0.1,3.2,0.3,4.7,1c2,1,3.5,2.5,4.5,4.3h0.2l29,52.3c-3.8,1.3-7.6,2.3-11.6,3.2c-22.2,5-44.2,3.5-64.2-3.3
	l28.9-52.3h0C195.4,265.5,198.6,263.6,202.1,263.4z M152.5,239.3c4.5,0.1,8.6,3.2,9.6,7.8c0.5,2.2,0.3,4.3-0.6,6.2l0.2,0.2l-22.8,55
	c-21.3-13.7-38.2-34.1-47.3-59.2l58.8-10l0.1,0.1C151.2,239.4,151.8,239.3,152.5,239.3z M252,239.1c0.8,0,1.6,0,2.3,0.2l0.1-0.1
	l59.3,10c-8.7,24.4-25.3,45.5-47.5,59.6l-23-55.6l0.1-0.1c-2.1-4.9,0-10.7,4.9-13C249.4,239.5,250.7,239.1,252,239.1z M193.3,190.4
	h18.3l11.4,14.2l-4.1,17.8l-16.4,7.9l-16.5-7.9l-4.1-17.8L193.3,190.4z M302.8,147.3c6.6,10.8,11.7,22.8,14.7,35.8
	c3,12.9,3.7,25.7,2.5,38.2l-57.6-16.6l0-0.2c-5.2-1.4-8.3-6.7-7.1-11.9c0.5-2.2,1.6-4,3.2-5.3l0-0.1L302.8,147.3z M101.8,147.3
	l44.7,40l0,0.2c4,3.5,4.6,9.6,1.3,13.8c-1.4,1.7-3.2,2.9-5.2,3.4l0,0.2l-57.3,16.5C82.3,194.8,88.6,168.9,101.8,147.3z M216.8,92.1
	c25.9,3.2,49.8,14.9,68.2,32.9l-48.6,34.5l-0.2-0.1c-4.3,3.2-10.4,2.4-13.8-1.8c-1.4-1.7-2.1-3.8-2.2-5.8l0,0L216.8,92.1z
	 M188.2,92.1l-3.4,59.7l-0.2,0.1c-0.2,5.3-4.6,9.6-10,9.6c-2.2,0-4.3-0.7-5.9-1.9l-0.1,0l-49-34.7c15-14.8,34.3-25.7,56.5-30.8
	C180.1,93.3,184.2,92.6,188.2,92.1z M202.5,3.8c-6.3,0-11.4,5.7-11.4,12.6c0,0.1,0,0.2,0,0.3c0,0.9-0.1,2.1,0,2.9
	c0.1,4,1,7.1,1.6,10.8c1,7.9,1.8,14.5,1.3,20.6c-0.5,2.3-2.2,4.4-3.7,5.9l-0.3,4.8c-6.8,0.6-13.7,1.6-20.6,3.2
	c-29.6,6.7-55,21.9-74.4,42.5c-1.3-0.9-3.5-2.4-4.1-2.9c-2,0.3-4.1,0.9-6.8-0.7c-5.1-3.4-9.7-8.2-15.3-13.9c-2.6-2.7-4.4-5.3-7.5-8
	c-0.7-0.6-1.8-1.4-2.5-2c-2.4-1.9-5.2-2.9-7.9-3c-3.5-0.1-6.9,1.2-9.1,4c-3.9,4.9-2.7,12.4,2.8,16.8c0.1,0,0.1,0.1,0.2,0.1
	c0.8,0.6,1.7,1.4,2.4,1.9c3.2,2.4,6.2,3.6,9.4,5.5c6.8,4.2,12.5,7.7,16.9,11.9c1.7,1.9,2.1,5.1,2.3,6.6l3.6,3.3
	c-19.5,29.4-28.6,65.7-23.2,102.7l-4.8,1.4c-1.3,1.6-3,4.2-4.9,4.9c-5.9,1.8-12.5,2.5-20.4,3.4c-3.7,0.3-7,0.1-10.9,0.9
	c-0.9,0.2-2.1,0.5-3,0.7c0,0-0.1,0-0.1,0c-0.1,0-0.1,0-0.2,0c-6.7,1.6-11,7.8-9.6,13.9c1.4,6.1,7.9,9.8,14.7,8.3c0,0,0.1,0,0.2,0
	c0.1,0,0.1-0.1,0.2-0.1c0.9-0.2,2.1-0.4,2.9-0.7c3.9-1,6.7-2.6,10.2-3.9c7.5-2.7,13.8-5,19.8-5.8c2.5-0.2,5.2,1.6,6.5,2.3l5-0.9
	c11.4,35.4,35.3,64,65.6,82l-2.1,5c0.7,1.9,1.6,4.5,1,6.4c-2.2,5.7-6,11.8-10.3,18.5c-2.1,3.1-4.2,5.5-6.1,9.1
	c-0.5,0.9-1,2.2-1.5,3.1c-2.9,6.3-0.8,13.5,4.8,16.2c5.7,2.7,12.7-0.1,15.7-6.4c0,0,0,0,0,0c0,0,0,0,0,0c0.4-0.9,1-2.1,1.4-2.9
	c1.6-3.7,2.1-6.9,3.3-10.4c3-7.6,4.7-15.5,8.8-20.5c1.1-1.4,3-1.9,4.9-2.4l2.6-4.7c26.4,10.1,56,12.9,85.5,6.2
	c6.7-1.5,13.2-3.5,19.5-5.9c0.7,1.3,2.1,3.8,2.4,4.4c1.9,0.6,4.1,1,5.8,3.5c3.1,5.3,5.2,11.6,7.8,19.1c1.1,3.6,1.7,6.7,3.3,10.4
	c0.4,0.8,1,2,1.4,2.9c3,6.3,10.1,9.2,15.7,6.4c5.6-2.7,7.8-9.9,4.8-16.2c-0.4-0.9-1-2.2-1.5-3.1c-1.9-3.6-4-6-6.1-9.1
	c-4.3-6.7-7.9-12.3-10.1-18.1c-0.9-3,0.2-4.8,0.9-6.7c-0.4-0.5-1.4-3.3-1.9-4.6c31.5-18.6,54.7-48.3,65.6-82.6
	c1.5,0.2,4,0.7,4.9,0.9c1.7-1.1,3.3-2.6,6.4-2.4c6.1,0.9,12.3,3.1,19.8,5.8c3.5,1.3,6.3,2.9,10.2,3.9c0.8,0.2,2,0.4,2.9,0.6
	c0.1,0,0.1,0.1,0.2,0.1c0,0,0.1,0,0.2,0c6.7,1.5,13.3-2.2,14.7-8.3c1.4-6.1-2.9-12.2-9.6-13.9c-1-0.2-2.4-0.6-3.3-0.8
	c-4-0.7-7.2-0.6-10.9-0.9c-8-0.8-14.5-1.5-20.4-3.4c-2.4-0.9-4.1-3.8-4.9-4.9l-4.6-1.3c2.4-17.2,1.7-35.2-2.4-53.1
	c-4.2-18.1-11.5-34.7-21.3-49.3c1.2-1.1,3.4-3,4-3.6c0.2-2,0-4.2,2.1-6.4c4.5-4.2,10.1-7.7,16.9-11.9c3.2-1.9,6.2-3.1,9.5-5.5
	c0.7-0.5,1.7-1.4,2.5-2c5.5-4.4,6.7-11.9,2.8-16.8c-3.9-4.9-11.5-5.4-17-1c-0.8,0.6-1.8,1.4-2.5,2c-3.1,2.6-4.9,5.2-7.5,8
	c-5.6,5.7-10.3,10.5-15.3,13.9c-2.2,1.3-5.4,0.8-6.9,0.8l-4.3,3.1C284.8,81.7,251.2,65.2,215,62c-0.1-1.5-0.2-4.3-0.3-5.1
	c-1.5-1.4-3.3-2.6-3.7-5.7c-0.5-6.1,0.3-12.7,1.3-20.6c0.5-3.7,1.4-6.8,1.6-10.8c0-0.9,0-2.2,0-3.2C213.9,9.5,208.8,3.8,202.5,3.8z"
	/>
<rect x="81.8" y="116.6" width="241.5" height="177.2"/>
<rect x="95.6" y="135" class="st0" width="213.8" height="46.7"/>
<rect x="95.6" y="229.1" class="st0" width="213.8" height="46.7"/>
<g>
	<path d="M106.4,159L106.4,159c0-6.8,5.1-12.3,12.4-12.3c4.5,0,7.1,1.5,9.3,3.7l-3.3,3.8c-1.8-1.7-3.7-2.7-6.1-2.7
		c-4,0-6.9,3.3-6.9,7.4v0.1c0,4.1,2.8,7.4,6.9,7.4c2.7,0,4.4-1.1,6.2-2.8l3.3,3.4c-2.4,2.6-5.1,4.2-9.7,4.2
		C111.5,171.2,106.4,165.8,106.4,159z"/>
	<path d="M133.2,147.1h17.9v4.6h-12.7v4.8h11.2v4.6h-11.2v5h12.9v4.6h-18V147.1z"/>
	<path d="M156.8,147.1h10.8c3,0,5.3,0.8,6.9,2.4c1.3,1.3,2,3.2,2,5.4v0.1c0,3.8-2.1,6.2-5.1,7.3l5.8,8.5h-6.1l-5.1-7.6H166h-4v7.6
		h-5.2V147.1z M167.3,158.6c2.5,0,4-1.4,4-3.4v-0.1c0-2.2-1.6-3.4-4.1-3.4H162v6.8H167.3z"/>
	<path d="M187.6,151.9h-7.2v-4.8H200v4.8h-7.2v18.9h-5.2V151.9z"/>
	<path d="M205.1,147.1h5.2v23.7h-5.2V147.1z"/>
	<path d="M217.1,147.1h18v4.7h-12.8v5h11.3v4.7h-11.3v9.2h-5.2V147.1z"/>
	<path d="M240.4,147.1h5.2v23.7h-5.2V147.1z"/>
	<path d="M252.4,147.1h17.9v4.6h-12.7v4.8h11.2v4.6h-11.2v5h12.9v4.6h-18V147.1z"/>
	<path d="M275.9,147.1h9.2c7.4,0,12.6,5.1,12.6,11.8v0.1c0,6.7-5.1,11.9-12.6,11.9h-9.2V147.1z M285.2,166.1c4.3,0,7.1-2.9,7.1-7.1
		v-0.1c0-4.2-2.9-7.1-7.1-7.1h-4v14.3H285.2z"/>
</g>
<g>
	<path d="M112.9,244.6h3.1l6.6,15.5h-3.5l-1.4-3.5h-6.5l-1.4,3.5h-3.5L112.9,244.6z M116.5,253.7l-2-5l-2,5H116.5z"/>
	<path d="M125,244.7h6c4.8,0,8.2,3.3,8.2,7.7v0c0,4.3-3.3,7.7-8.2,7.7h-6V244.7z M131,257.1c2.8,0,4.6-1.9,4.6-4.6v0
		c0-2.7-1.9-4.6-4.6-4.6h-2.6v9.3H131z"/>
	<path d="M142.2,244.7h3.7l4,6.5l4-6.5h3.7v15.4h-3.4v-10.1l-4.3,6.6h-0.1l-4.3-6.5v10h-3.3V244.7z"/>
	<path d="M161.5,244.7h3.4v15.4h-3.4V244.7z"/>
	<path d="M168.7,244.7h3.1l7.2,9.5v-9.5h3.3v15.4h-2.9l-7.5-9.8v9.8h-3.3V244.7z"/>
	<path d="M186.3,244.7h3.4v15.4h-3.4V244.7z"/>
	<path d="M192.4,257.9l2-2.4c1.4,1.1,2.8,1.9,4.6,1.9c1.4,0,2.2-0.5,2.2-1.5v0c0-0.9-0.5-1.3-3.1-2c-3.1-0.8-5.1-1.7-5.1-4.7v0
		c0-2.8,2.2-4.6,5.4-4.6c2.2,0,4.2,0.7,5.7,2l-1.8,2.6c-1.4-0.9-2.7-1.5-4-1.5c-1.3,0-2,0.6-2,1.3v0c0,1,0.7,1.3,3.3,2
		c3.1,0.8,4.9,1.9,4.9,4.6v0c0,3.1-2.3,4.8-5.7,4.8C196.6,260.3,194.3,259.5,192.4,257.9z"/>
	<path d="M210.8,247.8h-4.7v-3.1h12.8v3.1h-4.7v12.3h-3.4V247.8z"/>
	<path d="M221.5,244.7h7c2,0,3.5,0.5,4.5,1.6c0.9,0.9,1.3,2.1,1.3,3.5v0c0,2.5-1.3,4-3.3,4.8l3.8,5.5h-4l-3.3-4.9h0h-2.6v4.9h-3.4
		V244.7z M228.3,252.2c1.6,0,2.6-0.9,2.6-2.2v0c0-1.5-1-2.2-2.7-2.2h-3.4v4.4H228.3z"/>
	<path d="M242.7,244.6h3.1l6.6,15.5h-3.5l-1.4-3.5H241l-1.4,3.5h-3.5L242.7,244.6z M246.3,253.7l-2-5l-2,5H246.3z"/>
	<path d="M256.4,247.8h-4.7v-3.1h12.8v3.1h-4.7v12.3h-3.4V247.8z"/>
	<path d="M265.7,252.5L265.7,252.5c0-4.4,3.5-8,8.2-8c4.8,0,8.2,3.5,8.2,7.9v0c0,4.4-3.5,8-8.2,8
		C269.1,260.4,265.7,256.8,265.7,252.5z M278.6,252.5L278.6,252.5c0-2.7-1.9-4.9-4.7-4.9c-2.7,0-4.6,2.2-4.6,4.8v0
		c0,2.6,1.9,4.8,4.7,4.8C276.7,257.3,278.6,255.1,278.6,252.5z"/>
	<path d="M285.1,244.7h7c2,0,3.5,0.5,4.5,1.6c0.9,0.9,1.3,2.1,1.3,3.5v0c0,2.5-1.3,4-3.3,4.8l3.8,5.5h-4l-3.3-4.9h0h-2.6v4.9h-3.4
		V244.7z M291.9,252.2c1.6,0,2.6-0.9,2.6-2.2v0c0-1.5-1-2.2-2.7-2.2h-3.4v4.4H291.9z"/>
</g>
<g id="layer1_6_" transform="translate(-6.1051208,-305.36552)" inkscape:groupmode="layer" inkscape:label="Layer 1">
	<g class="st1">
		<path class="st0" d="M109.4,511.3c0.6-0.7,1.2-1.3,1.8-2c0.6-0.7,1.2-1.4,1.8-2.1c0.6-0.7,1.1-1.4,1.6-2c0.5-0.6,1-1.2,1.3-1.6h7
			c-1.4,1.7-2.8,3.3-4.1,4.8c-1.3,1.5-2.8,3.1-4.4,4.7c0.8,0.7,1.6,1.6,2.5,2.6c0.8,1,1.7,2.1,2.5,3.2s1.5,2.2,2.2,3.3
			c0.7,1.1,1.2,2.1,1.7,3h-6.8c-0.4-0.7-0.9-1.5-1.4-2.4c-0.5-0.9-1.1-1.7-1.7-2.6c-0.6-0.9-1.2-1.7-1.9-2.5c-0.7-0.8-1.3-1.5-2-2
			v9.5h-5.9v-30.8l5.9-1V511.3z"/>
		<path class="st0" d="M143.9,524.4c-1,0.3-2.3,0.6-3.9,0.8s-3.3,0.4-5,0.4c-1.8,0-3.2-0.2-4.4-0.7c-1.2-0.5-2.1-1.2-2.8-2.1
			c-0.7-0.9-1.2-1.9-1.5-3.2c-0.3-1.2-0.4-2.6-0.4-4.1v-12h5.9v11.3c0,2,0.3,3.4,0.8,4.3c0.5,0.9,1.4,1.3,2.8,1.3
			c0.4,0,0.9,0,1.3-0.1c0.5,0,0.9-0.1,1.3-0.1v-16.6h5.9V524.4z"/>
		<path class="st0" d="M168.9,514.4c0,1.7-0.2,3.3-0.7,4.7c-0.5,1.4-1.2,2.6-2.1,3.6c-0.9,1-2.1,1.7-3.4,2.3
			c-1.4,0.5-2.9,0.8-4.6,0.8c-0.7,0-1.5,0-2.2-0.1c-0.8-0.1-1.5-0.2-2.3-0.3c-0.8-0.1-1.5-0.2-2.2-0.4c-0.7-0.1-1.3-0.3-1.8-0.5
			v-30.1l5.9-1v10.7c0.7-0.3,1.3-0.5,2.1-0.7c0.7-0.2,1.5-0.2,2.3-0.2c1.5,0,2.8,0.3,3.9,0.8c1.1,0.5,2.1,1.3,2.9,2.3
			c0.8,1,1.3,2.2,1.7,3.5S168.9,512.7,168.9,514.4z M162.9,514.2c0-3.9-1.4-5.9-4.2-5.9c-0.6,0-1.2,0.1-1.8,0.2
			c-0.6,0.2-1.1,0.4-1.4,0.6v11.1c0.3,0.1,0.7,0.1,1.1,0.1c0.4,0,0.9,0.1,1.5,0.1c1.6,0,2.8-0.6,3.7-1.7
			C162.5,517.6,162.9,516.1,162.9,514.2z"/>
		<path class="st0" d="M172.5,514.5c0-1.9,0.3-3.6,0.9-5c0.6-1.4,1.3-2.6,2.2-3.6c0.9-1,2-1.7,3.2-2.2c1.2-0.5,2.4-0.7,3.7-0.7
			c3,0,5.3,0.9,7,2.8s2.6,4.6,2.6,8.3c0,0.4,0,0.7,0,1.2c0,0.4-0.1,0.8-0.1,1.1h-13.4c0.1,1.3,0.7,2.3,1.7,3c1,0.7,2.4,1.1,4,1.1
			c1.1,0,2.1-0.1,3.2-0.3c1-0.2,1.9-0.5,2.6-0.8l0.8,5c-0.3,0.2-0.7,0.3-1.3,0.5c-0.5,0.2-1.1,0.3-1.8,0.4s-1.3,0.2-2.1,0.3
			c-0.7,0.1-1.5,0.1-2.2,0.1c-1.9,0-3.5-0.3-4.9-0.9s-2.5-1.4-3.5-2.4c-0.9-1-1.6-2.2-2-3.5C172.7,517.6,172.5,516.1,172.5,514.5z
			 M186.4,512.2c0-0.5-0.1-1-0.3-1.5s-0.4-0.9-0.7-1.3s-0.7-0.7-1.2-0.9c-0.5-0.2-1-0.4-1.7-0.4c-0.7,0-1.2,0.1-1.7,0.3
			c-0.5,0.2-0.9,0.5-1.2,0.9c-0.3,0.4-0.6,0.8-0.7,1.3c-0.2,0.5-0.3,1-0.4,1.5H186.4z"/>
		<path class="st0" d="M209.2,509c-0.5-0.1-1.2-0.3-1.9-0.4c-0.7-0.1-1.5-0.2-2.3-0.2c-0.4,0-0.8,0-1.3,0.1
			c-0.5,0.1-0.9,0.1-1.2,0.2v16.5h-5.9v-20.4c1.1-0.4,2.3-0.7,3.8-1.1c1.4-0.3,3-0.5,4.8-0.5c0.3,0,0.7,0,1.2,0.1
			c0.4,0,0.9,0.1,1.3,0.2c0.4,0.1,0.9,0.2,1.3,0.2c0.4,0.1,0.8,0.2,1.2,0.3L209.2,509z"/>
		<path class="st0" d="M213.4,504.3c1-0.3,2.3-0.6,3.9-0.8s3.3-0.4,5-0.4c1.8,0,3.2,0.2,4.4,0.7c1.2,0.5,2.1,1.2,2.8,2
			c0.7,0.9,1.2,1.9,1.5,3.1c0.3,1.2,0.4,2.5,0.4,4v12.2h-5.9v-11.4c0-2-0.3-3.4-0.8-4.2c-0.5-0.8-1.4-1.2-2.8-1.2
			c-0.4,0-0.9,0-1.3,0.1c-0.5,0-0.9,0.1-1.3,0.1v16.6h-5.9V504.3z"/>
		<path class="st0" d="M235.8,514.5c0-1.9,0.3-3.6,0.9-5c0.6-1.4,1.3-2.6,2.2-3.6c0.9-1,2-1.7,3.2-2.2c1.2-0.5,2.4-0.7,3.7-0.7
			c3,0,5.3,0.9,7,2.8s2.6,4.6,2.6,8.3c0,0.4,0,0.7,0,1.2c0,0.4-0.1,0.8-0.1,1.1h-13.4c0.1,1.3,0.7,2.3,1.7,3c1,0.7,2.4,1.1,4,1.1
			c1.1,0,2.1-0.1,3.2-0.3c1-0.2,1.9-0.5,2.6-0.8l0.8,5c-0.3,0.2-0.7,0.3-1.3,0.5c-0.5,0.2-1.1,0.3-1.8,0.4s-1.3,0.2-2.1,0.3
			c-0.7,0.1-1.5,0.1-2.2,0.1c-1.9,0-3.5-0.3-4.9-0.9s-2.5-1.4-3.5-2.4c-0.9-1-1.6-2.2-2-3.5C236,517.6,235.8,516.1,235.8,514.5z
			 M249.7,512.2c0-0.5-0.1-1-0.3-1.5s-0.4-0.9-0.7-1.3s-0.7-0.7-1.2-0.9c-0.5-0.2-1-0.4-1.7-0.4c-0.7,0-1.2,0.1-1.7,0.3
			c-0.5,0.2-0.9,0.5-1.2,0.9c-0.3,0.4-0.6,0.8-0.7,1.3c-0.2,0.5-0.3,1-0.4,1.5H249.7z"/>
		<path class="st0" d="M259.8,498.2l5.9-1v6.4h7.1v5.1h-7.1v7.6c0,1.3,0.2,2.3,0.7,3.1c0.4,0.8,1.3,1.1,2.6,1.1c0.6,0,1.3-0.1,2-0.2
			s1.3-0.3,1.8-0.5l0.8,4.8c-0.7,0.3-1.5,0.6-2.4,0.8c-0.9,0.2-1.9,0.3-3.2,0.3c-1.6,0-3-0.2-4-0.7c-1.1-0.5-1.9-1.1-2.5-1.9
			c-0.6-0.8-1.1-1.8-1.3-2.9c-0.3-1.1-0.4-2.4-0.4-3.8V498.2z"/>
		<path class="st0" d="M275.8,514.5c0-1.9,0.3-3.6,0.9-5c0.6-1.4,1.3-2.6,2.2-3.6c0.9-1,2-1.7,3.2-2.2c1.2-0.5,2.4-0.7,3.7-0.7
			c3,0,5.3,0.9,7,2.8s2.6,4.6,2.6,8.3c0,0.4,0,0.7,0,1.2c0,0.4-0.1,0.8-0.1,1.1h-13.4c0.1,1.3,0.7,2.3,1.7,3c1,0.7,2.4,1.1,4,1.1
			c1.1,0,2.1-0.1,3.2-0.3c1-0.2,1.9-0.5,2.6-0.8l0.8,5c-0.3,0.2-0.7,0.3-1.3,0.5c-0.5,0.2-1.1,0.3-1.8,0.4s-1.3,0.2-2.1,0.3
			c-0.7,0.1-1.5,0.1-2.2,0.1c-1.9,0-3.5-0.3-4.9-0.9s-2.5-1.4-3.5-2.4c-0.9-1-1.6-2.2-2-3.5C276,517.6,275.8,516.1,275.8,514.5z
			 M289.7,512.2c0-0.5-0.1-1-0.3-1.5s-0.4-0.9-0.7-1.3s-0.7-0.7-1.2-0.9c-0.5-0.2-1-0.4-1.7-0.4c-0.7,0-1.2,0.1-1.7,0.3
			c-0.5,0.2-0.9,0.5-1.2,0.9c-0.3,0.4-0.6,0.8-0.7,1.3c-0.2,0.5-0.3,1-0.4,1.5H289.7z"/>
		<path class="st0" d="M306,520.7c1.1,0,1.9-0.1,2.3-0.3c0.4-0.2,0.7-0.6,0.7-1.3c0-0.5-0.3-0.9-0.9-1.3c-0.6-0.4-1.5-0.8-2.7-1.2
			c-0.9-0.4-1.8-0.7-2.5-1.1c-0.8-0.4-1.4-0.8-1.9-1.4s-0.9-1.2-1.2-1.9c-0.3-0.7-0.4-1.6-0.4-2.7c0-2,0.7-3.6,2.2-4.8
			c1.5-1.2,3.5-1.8,6-1.8c1.3,0,2.5,0.1,3.7,0.3c1.2,0.2,2.1,0.5,2.8,0.8l-1,4.8c-0.7-0.2-1.4-0.5-2.2-0.7c-0.8-0.2-1.7-0.3-2.7-0.3
			c-1.9,0-2.8,0.5-2.8,1.6c0,0.2,0,0.5,0.1,0.7c0.1,0.2,0.2,0.4,0.5,0.6s0.6,0.4,1,0.6c0.4,0.2,0.9,0.4,1.6,0.7
			c1.3,0.5,2.4,1,3.2,1.5c0.8,0.5,1.5,1,2,1.6c0.5,0.6,0.8,1.2,1,1.9c0.2,0.7,0.3,1.5,0.3,2.4c0,2.1-0.8,3.7-2.3,4.8
			c-1.5,1.1-3.7,1.6-6.6,1.6c-1.9,0-3.4-0.2-4.6-0.5c-1.2-0.3-2.1-0.6-2.6-0.8l1-5c1,0.4,2,0.7,3.1,1
			C303.9,520.6,304.9,520.7,306,520.7z"/>
	</g>
</g>
</svg>
