<?xml version="1.0" encoding="UTF-8"?>
<svg width="28px" height="28px" viewBox="0 0 28 28" version="1.1" xmlns="http://www.w3.org/2000/svg" xmlns:xlink="http://www.w3.org/1999/xlink">
    <title>icon-color</title>
    <defs>
        <linearGradient x1="-1.11022302e-14%" y1="50%" x2="100%" y2="50%" id="linearGradient-1">
            <stop stop-color="#134AFF" offset="0%"></stop>
            <stop stop-color="#8768FF" offset="100%"></stop>
        </linearGradient>
    </defs>
    <g id="页面-1" stroke="none" stroke-width="1" fill="none" fill-rule="evenodd">
        <g id="icon-color" fill-rule="nonzero">
            <path d="M5.1277704,0 L22.8722296,0 C24.6552671,0 25.3018396,0.185651222 25.9536914,0.534265408 C26.6055433,0.882879593 27.1171204,1.39445674 27.4657346,2.04630859 C27.8143488,2.69816044 28,3.34473292 28,5.1277704 L28,22.8722296 C28,24.6552671 27.8143488,25.3018396 27.4657346,25.9536914 C27.1171204,26.6055433 26.6055433,27.1171204 25.9536914,27.4657346 C25.3018396,27.8143488 24.6552671,28 22.8722296,28 L5.1277704,28 C3.34473292,28 2.69816044,27.8143488 2.04630859,27.4657346 C1.39445674,27.1171204 0.882879593,26.6055433 0.534265408,25.9536914 C0.185651222,25.3018396 0,24.6552671 0,22.8722296 L0,5.1277704 C0,3.34473292 0.185651222,2.69816044 0.534265408,2.04630859 C0.882879593,1.39445674 1.39445674,0.882879593 2.04630859,0.534265408 C2.69816044,0.185651222 3.34473292,0 5.1277704,0 Z" id="矩形" fill="url(#linearGradient-1)"></path>
            <g id="编组-10" transform="translate(5.000000, 5.000000)" fill="#FFFFFF">
                <rect id="矩形" opacity="0" x="0" y="0" width="18" height="18"></rect>
                <path d="M6.53100775,14.2623357 C5.46124031,14.2623357 4.61046512,14.0200876 3.97965116,13.5355915 C3.34883721,13.0510953 3.02228682,12.3553589 3,11.4483822 L4.96996124,11.4483822 C5.05135659,12.2390798 5.56782946,12.6344287 6.52034884,12.6344287 C6.87403101,12.6344287 7.1753876,12.5627233 7.42248062,12.4193124 C7.66957364,12.2759016 7.79263566,12.0578783 7.79263566,11.7633047 C7.79263566,11.5607853 7.71511628,11.3931496 7.56007752,11.2565217 C7.40600775,11.1218318 7.24806202,11.0268705 7.09108527,10.971638 C6.93120155,10.9183434 6.63081395,10.8321031 6.1879845,10.715824 C6.16666667,10.7090411 6.15116279,10.7032271 6.14341085,10.6983822 C6.13565891,10.6954752 6.125,10.6915992 6.11046512,10.6877233 C6.09593023,10.6838473 6.08139535,10.6819093 6.06589147,10.6819093 C5.72674419,10.596638 5.44767442,10.5210566 5.22965116,10.4551651 C5.0125969,10.3892736 4.76550388,10.2884984 4.48837209,10.1528395 C4.21124031,10.0171806 3.99224806,9.86698682 3.83042636,9.70516512 C3.66666667,9.54237442 3.52906977,9.32725814 3.41472868,9.05981628 C3.30135659,8.79334341 3.24321705,8.49295581 3.24321705,8.15962248 C3.24321705,7.3069093 3.53294574,6.66737442 4.11143411,6.24101783 C4.69186047,5.81466124 5.4496124,5.60148295 6.38662791,5.60148295 C7.2877907,5.60148295 8.02422481,5.8195062 8.59593023,6.25264574 C9.16763566,6.68675426 9.47189922,7.32241318 9.50968992,8.15962248 L7.59399225,8.15962248 C7.55620155,7.84179302 7.42732558,7.59663798 7.20639535,7.42125039 C6.98449612,7.24683178 6.68992248,7.15962248 6.32073643,7.15962248 C5.98062016,7.15962248 5.70639535,7.23132791 5.49612403,7.37473876 C5.28585271,7.51814961 5.18023256,7.70613411 5.18023256,7.93869225 C5.18023256,8.20225814 5.30523256,8.3941186 5.55620155,8.51330465 C5.80813953,8.63345969 6.28003876,8.77590155 6.9748062,8.93772326 C7.40891473,9.04625039 7.76744186,9.15283953 8.04748062,9.2574907 C8.32751938,9.36214186 8.61337209,9.51233566 8.90600775,9.70516512 C9.19670543,9.89896357 9.41472868,10.1489636 9.55910853,10.4551651 C9.70155039,10.7603977 9.7751938,11.1276457 9.7751938,11.5540023 C9.7751938,12.3989636 9.46996124,13.0607853 8.86143411,13.5414054 C8.25193798,14.0220256 7.47577519,14.2623357 6.53100775,14.2623357" id="Fill-1"></path>
                <polygon id="Fill-19" points="11.7684109 3.0447 9.78294574 3.88869225 14.002907 14.2627233 16 13.4487698"></polygon>
            </g>
        </g>
    </g>
</svg>