<svg xmlns="http://www.w3.org/2000/svg" role="img" viewBox="-1.35 -1.35 187.20 50.20"><style>svg {enable-background:new 0 0 184 47.3}</style><style>.st0{fill:#fff}</style><path d="M152.3 2.3v43h30v-43h-30zm25 38h-20v-19h14v-7h6v26z" class="st0"/><path d="M163.3 26.3h8v9h-8z" class="st0"/><path fill="#fff" d="M76.3 26.3h10v3h-14v11h18v-18h-14v4zm10 10h-10v-3h10v3zm-20-21h-4v7h-3v4h3v14h8v-4h-4v-10h4v-4h-4zm26 7h4v18h-4zm-90 0v18h18v-4h-14v-10h14v-4h-15zm43 0h-3v18h4v-14h7v14h4v-18h-3zm-23 3.5v14.5h18v-18h-18v3.5zm4 .5h10v10h-10v-10zm112-4h-4v18h4v-14h11v-4zm-46-7h4v4h-4zm23 7v18h15v-4h-11v-3h13v-11h-17zm4 4h9v3h-9v-3zm-17.5-4h-3.5v18h4v-14h7v14h4v-18h-3.5z" opacity=".66"/></svg>