<?xml version="1.0" encoding="utf-8"?>
<!-- Generator: Adobe Illustrator 26.3.1, SVG Export Plug-In . SVG Version: 6.00 Build 0)  -->
<svg version="1.1" id="图层_1" xmlns="http://www.w3.org/2000/svg" xmlns:xlink="http://www.w3.org/1999/xlink" x="0px" y="0px"
	 viewBox="0 0 1500 1500" style="enable-background:new 0 0 1500 1500;" xml:space="preserve">
<style type="text/css">
	.st0{opacity:0.9771;}
	.st1{opacity:0.5;fill:#676767;}
	.st2{opacity:0.5;fill:#6B6B6B;}
	.st3{opacity:0.5;}
	.st4{fill:#6B6B6B;}
	.st5{opacity:0.8;fill:#676767;}
	.st6{fill:#F5F5F5;}
	.st7{fill:#F6F6F6;}
	.st8{fill:#DDDDDD;}
	.st9{opacity:0.49;}
	.st10{fill:url(#SVGID_1_);}
	.st11{fill:url(#SVGID_00000044179041767621647280000005120074632665131920_);}
	.st12{fill:#9E9E9E;}
	.st13{fill:#E9E9E9;}
	.st14{opacity:0.9891;fill:#A6A6A6;}
	.st15{fill:url(#SVGID_00000132082374082747640880000010941924790488721542_);}
	.st16{fill:url(#SVGID_00000128457639558183405310000002880937790265291437_);}
	.st17{fill:url(#SVGID_00000084517857557882989360000017143890752334221213_);}
</style>
<g>
	<polygon points="890.6,1322.4 731.1,1322.4 731.1,1205.2 677,1205.2 677,1491.4 731.1,1491.4 731.1,1366.5 890.6,1366.5 	"/>
	<rect x="19.4" y="1205.6" width="54.3" height="286.2"/>
	<polygon points="274.9,1205.9 206.3,1205.9 83.1,1335.6 83.1,1402.7 123.9,1361.3 214,1491.4 283.4,1491.4 158.1,1325.6 	"/>
	<rect x="1232.8" y="1205.6" width="54.4" height="286.2"/>
	<polygon points="1425.3,1205.6 1425.3,1323.1 1296.6,1323.1 1296.6,1369.7 1425.3,1369.7 1425.3,1491.8 1479.9,1491.8 
		1479.9,1205.6 	"/>
	<rect x="740.5" y="1205.2" width="157.6" height="44.4"/>
	<rect x="740.5" y="1447" width="158.2" height="44.4"/>
	<path d="M1120.2,1291.3l53.8-10.8c-6.1-26.6-18.2-46.3-36.3-59.1c-17.4-12.4-41.3-19-71.8-20.1v43.4c15.2,0.8,27.3,5,36.2,12.4
		C1111.8,1264.9,1117.8,1276.4,1120.2,1291.3z"/>
	<path d="M333.5,1258.7v233.1h49.3v-173.9c0-25.5-0.3-45.2-0.9-59.2H333.5z"/>
	<path d="M487.3,1401.8c-3.8,17.5-5.8,27.6-6,30.4h-0.7c0-3-1.8-13.3-5.3-30.8c-19.9-65.3-40-130.6-60.2-195.9h-81.7v43.7h47.9
		c0,0,0,0,0,0h1.8c1.6,8.9,6.3,25.7,14.1,50.4c20.4,63.9,40.8,127.8,61.2,191.7h47.5c36.4-119.4,56-184.2,58.8-194.5
		c3.3-12.7,6.6-25.5,9.8-38.2h-45.4C502.2,1350.5,488.3,1398.3,487.3,1401.8z"/>
	<path d="M531.8,1249.3l46.2-0.1c-0.7,21-1.4,41.7-2.1,62.7v179.8h53.5v-286.2h-84.8C540.1,1221.1,535.8,1235.7,531.8,1249.3z"/>
	<path d="M997,1390l-53.8,11.5c7,32.7,20.6,56.7,40.8,72.1c17.7,13.6,42,21.3,72.6,23v-43.5C1022.6,1449.8,1002.7,1428.8,997,1390z"
		/>
	<path d="M1123.3,1335.7c-19.5-7.9-37.7-13.6-54.6-17.1c-22.5-5.1-37.9-10.6-46.1-16.4c-8-5.8-12-13.8-12-23.8
		c0-9.1,4.1-16.8,12.3-23.1c8.5-6.7,19.7-10.2,33.6-10.7V1201c-30.9,0.1-56.1,7.7-75.5,22.7c-18.5,14.5-27.8,32.5-27.8,54.2
		c0,21.5,6,38.3,17.9,50.4c12.4,12.6,33.9,22.5,64.4,29.7c13.4,3,28.3,7.2,44.7,12.6c16.4,5.6,27.9,11.9,34.5,18.9
		c5.9,6.1,8.8,13.9,8.8,23.4c0,11.7-4.5,21.1-13.4,28.3c-9.9,8.2-23.6,12.2-41.2,12.2c-1.1,0-2.1,0-3.1,0v43.3
		c1.6,0,3.2,0.1,4.9,0.1c35.4,0,63-8,82.7-24.1c18.8-15.4,28.2-36,28.2-61.9C1181.8,1377.1,1162.3,1352.1,1123.3,1335.7z"/>
</g>
<g>
	<g>
		<g class="st0">
			<g>
				<polygon points="270.2,283.9 270.2,834.2 747.3,1109.4 1229.1,831.9 1229.1,283.9 749.6,8.7 				"/>
			</g>
		</g>
		<polygon class="st1" points="1154.8,790.6 1154.8,324 1065.1,274.9 1065.1,743.8 		"/>
		<polygon class="st2" points="998.9,704.9 998.9,237.2 911.6,185.7 897.4,648.7 		"/>
		<g class="st3">
			<g>
				<polygon class="st4" points="845.5,616.4 845.5,148 755.7,98.8 755.7,567.3 				"/>
			</g>
		</g>
		<polygon class="st5" points="755.6,567.4 434.6,751.6 434.6,852.2 843.8,616.1 		"/>
		<polygon class="st5" points="902.8,649.2 590.4,838.4 590.4,941.4 999.6,702.9 		"/>
		<g>
			<g>
				<polygon class="st6" points="910.8,184 500.2,418.3 590,469.8 998.2,235.5 				"/>
			</g>
		</g>
		<polygon class="st7" points="755.7,95 344.8,330.8 434.6,382.3 845.4,146.5 		"/>
		<g>
			<polygon class="st8" points="434.6,851.2 434.6,382.7 344.8,331.2 344.8,799.7 			"/>
		</g>
		<g class="st9">
			<linearGradient id="SVGID_1_" gradientUnits="userSpaceOnUse" x1="545.548" y1="418.075" x2="545.548" y2="938.0026">
				<stop  offset="6.355514e-02" style="stop-color:#FFFFFF"/>
				<stop  offset="0.5824" style="stop-color:#FFFFFF;stop-opacity:0.17"/>
			</linearGradient>
			<polygon class="st10" points="590.4,938 590.4,469.6 500.7,418.1 500.7,886.5 			"/>
			
				<linearGradient id="SVGID_00000090270962203006249020000006383691254536498602_" gradientUnits="userSpaceOnUse" x1="545.548" y1="967.8167" x2="545.548" y2="1019.7856">
				<stop  offset="6.355514e-02" style="stop-color:#FFFFFF"/>
				<stop  offset="0.5824" style="stop-color:#FFFFFF;stop-opacity:0"/>
			</linearGradient>
			<polygon style="fill:url(#SVGID_00000090270962203006249020000006383691254536498602_);" points="500.7,967.8 500.7,968.3 
				590.4,1019.8 590.4,1019.3 			"/>
		</g>
		<polygon class="st5" points="1064.9,743.1 746.3,927.6 743.9,1030.6 1153.1,789.8 		"/>
		<g>
			<polygon class="st12" points="1154.7,790.4 774.9,696.2 741.9,790.1 1033.7,859.6 			"/>
		</g>
		<polygon class="st13" points="1067,273.7 656.2,509.4 745.9,560.9 1156.7,325.2 		"/>
		<polygon class="st14" points="746.1,1030 746.1,561.1 656.4,509.6 656.4,978.5 		"/>
		
			<linearGradient id="SVGID_00000159446563897588288120000018336434101349022097_" gradientUnits="userSpaceOnUse" x1="438.3411" y1="417.2799" x2="1098.0881" y2="417.2799">
			<stop  offset="6.355514e-02" style="stop-color:#FFFFFF"/>
			<stop  offset="0.2933" style="stop-color:#FFFFFF;stop-opacity:0.9022"/>
			<stop  offset="0.7332" style="stop-color:#FFFFFF;stop-opacity:0"/>
		</linearGradient>
		<polygon style="fill:url(#SVGID_00000159446563897588288120000018336434101349022097_);" points="1067.5,273.6 656.7,509.4 
			746.4,560.9 1157.3,325.1 		"/>
		
			<linearGradient id="SVGID_00000041262588749468495540000016179373770605654453_" gradientUnits="userSpaceOnUse" x1="282.3494" y1="324.5549" x2="942.0965" y2="324.5549">
			<stop  offset="6.355514e-02" style="stop-color:#FFFFFF"/>
			<stop  offset="0.2933" style="stop-color:#FFFFFF;stop-opacity:0.9022"/>
			<stop  offset="1" style="stop-color:#FFFFFF;stop-opacity:0"/>
		</linearGradient>
		<polygon style="fill:url(#SVGID_00000041262588749468495540000016179373770605654453_);" points="913.9,180.9 500.7,416.7 
			590.4,468.2 1001.3,232.4 		"/>
		<polygon class="st8" points="590.4,942 590.4,469.6 500.7,418.1 500.7,890.5 		"/>
		
			<linearGradient id="SVGID_00000115494503378322152620000016288177950175485869_" gradientUnits="userSpaceOnUse" x1="746.2704" y1="689.3427" x2="746.2704" y2="689.3427">
			<stop  offset="1.553748e-02" style="stop-color:#FFFFFF"/>
			<stop  offset="0.5451" style="stop-color:#FFFFFF;stop-opacity:0"/>
		</linearGradient>
		<path style="fill:url(#SVGID_00000115494503378322152620000016288177950175485869_);" d="M746.3,689.3"/>
		<polygon class="st14" points="745.3,670.1 745.3,796.2 1153.8,561.8 1153.8,442.7 		"/>
	</g>
</g>
</svg>
