<svg id="Assets" xmlns="http://www.w3.org/2000/svg" viewBox="0 0 2079.95225 456.05423"><defs><style>.cls-1{fill:#fff;}</style></defs><path class="cls-1" d="M302.896,180.03675a80.38385,80.38385,0,0,0,13.44824-10.37127c.79419-.76227,1.55041-1.53052,2.30078-2.30079a82.04714,82.04714,0,0,0,7.9292-9.37811,63.42434,63.42434,0,0,0,6.26929-10.76538,48.61593,48.61593,0,0,0,4.35876-16.39783c1.48279-19.39117-9.96728-38.67492-35.62195-54.22686L198.42484,13.9886l-120.26,115.22662L-.13254,204.2364l108.60108,65.90777A111.60533,111.60533,0,0,0,166.23026,286.56c24.92212,0,48.80127-8.803,66.41919-25.68647,19.15832-18.36218,25.51928-42.128,13.697-61.87146a49.00947,49.00947,0,0,0-6.79871-8.86865,89.32571,89.32571,0,0,0,19.28577,2.14356c.05163,0,.10144.004.15112.004a85.01219,85.01219,0,0,0,30.9707-5.7937A80.53563,80.53563,0,0,0,302.896,180.03675ZM202.3129,239.84443c-19.3197,18.51-50.39856,21.23663-75.69983,5.89935L51.48074,200.13612l67.44336-64.6424L195.341,181.87989C222.87821,198.57264,221.35819,221.596,202.3129,239.84443Zm8.93347-82.21734-70.64722-42.8888,64.40723-61.76837,69.36938,42.11426c25.94007,15.72455,29.31006,37.04126,10.55042,55.017A60.70506,60.70506,0,0,1,211.24637,157.62709Zm29.86572,190.0401C221.5358,366.42347,194.9418,376.755,166.23026,376.755a123.81622,123.81622,0,0,1-64.10669-18.19305L-.13254,296.50532v24.67731L108.46854,387.0904a111.60524,111.60524,0,0,0,57.76172,16.41571c24.92212,0,48.80127-8.80291,66.41919-25.6864,12.87707-12.34161,19.99023-27.12933,19.67981-41.4931l-.00208-1.79126A87.09542,87.09542,0,0,1,241.11209,347.66719Zm0-38.98346c-19.57629,18.75634-46.17029,29.08783-74.88183,29.08783a123.81614,123.81614,0,0,1-64.10669-18.19306L-.13254,257.52192v24.67932L108.46854,348.109a111.6059,111.6059,0,0,0,57.76172,16.41571c24.92212,0,48.80127-8.803,66.41919-25.6864,12.87707-12.34363,19.99023-27.12934,19.67981-41.49512l-.00208-1.78925A86.98012,86.98012,0,0,1,241.11209,308.68373Zm0-38.98139c-19.57629,18.75629-46.17029,29.08777-74.88183,29.08777a123.81566,123.81566,0,0,1-64.10669-18.19305L-.13254,218.54048v24.67736l108.60108,65.90778a111.60581,111.60581,0,0,0,57.76172,16.41571c24.92212,0,48.80127-8.803,66.41919-25.6864,12.87707-12.34168,19.99023-27.1294,19.67981-41.49316l-.00208-1.82306A86.47081,86.47081,0,0,1,241.11209,269.70234Zm83.6908,25.73816a94.13736,94.13736,0,0,1-60.19177,25.85559v-.002h-.01185l.01185,26.66766a81.65282,81.65282,0,0,0,51.73315-22.36865c13.96777-13.38458,21.14453-28.1106,20.98535-42.64154v-2.19727A95.161,95.161,0,0,1,324.80289,295.4405Zm-83.6908,91.20807c-19.57629,18.75629-46.17029,29.08777-74.88183,29.08777a123.81614,123.81614,0,0,1-64.10669-18.19306L-.13254,335.4867v24.67737l108.60108,65.90772a111.60541,111.60541,0,0,0,57.76172,16.41577c24.92212,0,48.80127-8.803,66.41919-25.6864,12.87707-12.34168,19.99023-27.1294,19.67981-41.49317l-.00208-1.78924A86.98338,86.98338,0,0,1,241.11209,386.64857Zm85.74475-210.20624c-.67859.68665-1.34533,1.37329-2.05395,2.05194a99.29591,99.29591,0,0,1-22.23133,15.68732A94.67969,94.67969,0,0,1,276.326,202.893a98.08805,98.08805,0,0,1-14.16089,1.56634c.50562,1.61212.90369,3.25006,1.25,4.902a53.15906,53.15906,0,0,1,1.13843,12.00128l.0039,9.65283h.05372a84.26969,84.26969,0,0,0,25.34423-5.54687,80.95355,80.95355,0,0,0,26.38892-16.82178c.802-.7702,1.50464-1.55835,2.26294-2.33655a82.04814,82.04814,0,0,0,7.92725-9.38019,63.32844,63.32844,0,0,0,6.2832-10.77526,48.442,48.442,0,0,0,4.319-16.44165c.09155-1.236.20495-2.47388.193-3.70789v-2.048q-1.08069,1.55246-2.257,3.08892A97.66445,97.66445,0,0,1,326.85684,176.44233Zm-.03186,77.921c-.68652.69458-1.30566,1.40711-2.02209,2.09375a94.13052,94.13052,0,0,1-60.19177,25.85761v-.002h-.02979l.012,26.66761h.01392l.00391.002v-.002a81.65283,81.65283,0,0,0,51.73315-22.36866,73.54657,73.54657,0,0,0,16.47339-22.492,48.45363,48.45363,0,0,0,4.319-16.44159c.09155-1.238.20495-2.47394.193-3.7099v-2.19324c-.74438,1.07471-1.46484,2.15344-2.27283,3.21625A97.10255,97.10255,0,0,1,326.825,254.36335Zm0-38.98144c-.68652.69464-1.30359,1.40716-2.02209,2.09381a97.18515,97.18515,0,0,1-22.25122,15.67535,95.66881,95.66881,0,0,1-37.94055,10.18024h-.04761l.01184,26.6676h.02991l.00586.00195v-.00195a81.65064,81.65064,0,0,0,51.73315-22.37067c.802-.7702,1.50464-1.55834,2.26294-2.33654a82.05456,82.05456,0,0,0,7.92725-9.38013,63.33129,63.33129,0,0,0,6.2832-10.77533,48.44157,48.44157,0,0,0,4.319-16.44159c.09155-1.236.20495-2.47394.193-3.70788v-2.1933c-.74438,1.07476-1.46484,2.1535-2.27283,3.21631A97.33676,97.33676,0,0,1,326.825,215.38191Zm240.96446-88.84473q7.93743,0,17.08825.17139,9.14283.17688,18.124,1.02869a139.96656,139.96656,0,0,1,16.74292,2.57177,42.543,42.543,0,0,1,13.291,5.14344,64.11217,64.11217,0,0,1,20.54041,19.88818q8.45544,12.68994,8.458,31.20373,0,19.54524-9.49366,33.77564-9.49878,14.233-27.09948,21.08826v.68579q22.78436,4.806,34.86706,20.57385,12.07983,15.77619,12.08252,38.40466a72.65481,72.65481,0,0,1-4.833,26.06043,65.30564,65.30564,0,0,1-14.32666,22.45984,71.61862,71.61862,0,0,1-23.47473,15.77331q-13.98156,6.00348-32.27783,6.00073H478.37818V126.53718Zm8.9757,105.2699q27.96241,0,40.21778-9.77258,12.24975-9.77271,12.25537-29.31787,0-13.02741-4.14282-20.574a29.36278,29.36278,0,0,0-11.39209-11.65857,45.08413,45.08413,0,0,0-16.74292-5.31494,161.6513,161.6513,0,0,0-20.19532-1.20007h-65.5913v77.838ZM593.33546,343.935q21.74889,0,34.00415-11.65857,12.24975-11.6532,12.25525-32.23254,0-11.99872-4.48792-19.88807A34.73123,34.73123,0,0,0,623.19678,267.64a50.1986,50.1986,0,0,0-17.08813-6.515,104.63731,104.63731,0,0,0-20.0227-1.886H511.17384v84.696Zm274.7926,26.74609q-7.59741,4.45239-21.05835,4.45764-11.3921,0-18.124-6.34362-6.7317-6.341-6.73169-20.74536a70.17875,70.17875,0,0,1-28.13526,20.74536,97.80328,97.80328,0,0,1-57.65112,3.60046,53.43518,53.43518,0,0,1-18.81445-8.57251,41.12567,41.12567,0,0,1-12.60035-15.25891q-4.66075-9.427-4.66064-22.80286,0-15.08478,5.17847-24.68872a44.9759,44.9759,0,0,1,13.636-15.6018,62.72606,62.72606,0,0,1,19.33228-9.0868q10.87426-3.08624,22.26636-5.14355,12.07983-2.39484,22.957-3.60046a127.98361,127.98361,0,0,0,19.15967-3.429q8.28514-2.22619,13.11816-6.515,4.83031-4.28358,4.833-12.51587,0-9.59583-3.62476-15.43042a24.79873,24.79873,0,0,0-9.3208-8.91541,38.10666,38.10666,0,0,0-12.77319-4.11475,97.138,97.138,0,0,0-13.9812-1.02868q-18.64161,0-31.06958,7.02942-12.42774,7.032-13.46338,26.57458H707.25672q.68775-16.459,6.9043-27.77478A52.13367,52.13367,0,0,1,730.73133,203.175a69.823,69.823,0,0,1,23.64746-10.11548,125.65427,125.65427,0,0,1,28.48047-3.08606,168.44905,168.44905,0,0,1,23.99268,1.71448,63.1107,63.1107,0,0,1,21.57592,7.0133,41.26376,41.26376,0,0,1,15.53492,14.88392q5.866,9.57988,5.86865,24.97277v91.01819q0,10.27093,1.20825,15.05542,1.20557,4.78986,8.11255,4.7898a35.73456,35.73456,0,0,0,8.97583-1.37158Zm-47.64014-90.86816q-5.52612,4.09863-14.499,5.97388-8.98132,1.88067-18.81445,3.07006-9.83863,1.19751-19.8501,2.73243a73.70769,73.70769,0,0,0-17.95117,4.94531,32.51083,32.51083,0,0,0-12.94556,9.72436q-5.00866,6.31678-5.00586,17.23072a23.35037,23.35037,0,0,0,2.93433,12.11389,24.23845,24.23845,0,0,0,7.595,8.02063,32.09862,32.09862,0,0,0,10.87426,4.43628,60.94267,60.94267,0,0,0,13.11817,1.36084q14.49939,0,24.85571-3.92188a52.40632,52.40632,0,0,0,16.91577-9.89587,39.13161,39.13161,0,0,0,9.666-12.96582,32.47727,32.47727,0,0,0,3.10693-13.13733ZM1002.068,224.94905q-11.05224-9.25818-29.68872-9.25818-15.88257,0-26.58179,5.82922a47.30769,47.30769,0,0,0-17.08813,15.43042,64.60464,64.60464,0,0,0-9.14844,22.11707,119.60477,119.60477,0,0,0-2.76172,25.88879,97.85524,97.85524,0,0,0,2.93433,24.00293,63.99168,63.99168,0,0,0,9.14844,20.74536,46.15876,46.15876,0,0,0,16.22509,14.57324q10.00856,5.489,23.82007,5.48633,21.74853,0,34.00391-11.31567,12.24975-11.31555,15.01709-31.88953h30.03393q-4.83875,32.91834-24.6831,50.749-19.85559,17.83337-54.02661,17.83068-20.373,0-36.0752-6.515a69.8303,69.8303,0,0,1-26.23657-18.5166,79.80569,79.80569,0,0,1-15.87988-28.632,118.57732,118.57732,0,0,1-5.35108-36.5188,129.2898,129.2898,0,0,1,5.17847-37.20447,85.8185,85.8185,0,0,1,15.70727-30.17517,73.67049,73.67049,0,0,1,26.40918-20.231q15.87451-7.36963,36.93824-7.37232a108.57055,108.57055,0,0,1,28.48046,3.60046,69.67671,69.67671,0,0,1,23.47486,11.14417A61.08088,61.08088,0,0,1,1038.661,223.749q6.55371,11.49243,8.28515,27.2605H1016.567Q1013.11219,234.21267,1002.068,224.94905Zm109.7749-98.41187V271.58332l81.47119-77.49511h39.355l-70.76977,64.465,75.948,112.81372h-37.28369l-61.10328-92.58264-27.61743,25.37451v67.20813h-29.3435V126.53718ZM1282.379,331.762a31.09673,31.09673,0,0,0,10.87451,10.62988,48.993,48.993,0,0,0,15.18945,5.65784,87.23653,87.23653,0,0,0,17.43359,1.71447,108.189,108.189,0,0,0,14.499-1.02868,53.37694,53.37694,0,0,0,13.98144-3.77185,26.19522,26.19522,0,0,0,10.52906-8.05811q4.14257-5.31225,4.14257-13.54456,0-11.31555-8.63037-17.14489a73.75912,73.75912,0,0,0-21.57617-9.42969q-12.94555-3.60059-28.13525-6.51514a146.14443,146.14443,0,0,1-28.13526-8.22961,58.18068,58.18068,0,0,1-21.57592-14.916q-8.63307-9.59581-8.63062-26.74609,0-13.37312,6.0415-22.97424a49.20876,49.20876,0,0,1,15.53467-15.60193,71.70508,71.70508,0,0,1,21.40357-8.91541,99.36606,99.36606,0,0,1,23.64746-2.91455,141.86812,141.86812,0,0,1,27.9624,2.57166,65.0085,65.0085,0,0,1,22.61182,8.9154,46.31763,46.31763,0,0,1,15.70752,17.1449q5.866,10.80139,6.90429,26.9176h-29.3435a27.89843,27.89843,0,0,0-14.15381-23.31714,44.27611,44.27611,0,0,0-12.9458-4.972,67.06877,67.06877,0,0,0-14.32642-1.543,87.87366,87.87366,0,0,0-13.291,1.02868,44.94666,44.94666,0,0,0-12.25513,3.60047,24.63529,24.63529,0,0,0-8.97559,6.85791q-3.45519,4.29162-3.45239,11.14429a16.33846,16.33846,0,0,0,5.35107,12.51574,42.68283,42.68283,0,0,0,13.636,8.22962,119.52612,119.52612,0,0,0,18.64185,5.48633q10.35643,2.23425,20.71289,4.62915a223.4744,223.4744,0,0,1,21.57617,5.82922,70.66,70.66,0,0,1,18.64184,9.08691,44.59592,44.59592,0,0,1,13.11817,14.23023q5.00023,8.5752,5.00561,21.25976,0,16.12152-6.73169,26.7461a52.39911,52.39911,0,0,1-17.6062,17.14489,73.87812,73.87812,0,0,1-24.51025,9.08692,145.98255,145.98255,0,0,1-27.09961,2.57165,126.35323,126.35323,0,0,1-28.30786-3.08606,69.656,69.656,0,0,1-23.82007-10.11547,51.63927,51.63927,0,0,1-16.57031-18.51661q-6.21423-11.48437-6.90454-27.94616h29.3435A32.602,32.602,0,0,0,1282.379,331.762Zm226.46289-137.67383v25.7174h-35.55738V329.87617a31.52247,31.52247,0,0,0,.863,8.22949,8.44024,8.44024,0,0,0,3.27954,4.80066,14.48742,14.48742,0,0,0,6.73169,2.22876,98.45215,98.45215,0,0,0,11.21973.51441h13.46338v25.7174h-22.43921a106.03247,106.03247,0,0,1-19.50464-1.54309,28.72045,28.72045,0,0,1-13.11841-5.65783,24.1136,24.1136,0,0,1-7.42212-11.65845q-2.41918-7.53846-2.4165-19.88818V219.80561H1413.5619v-25.7174H1443.941V140.93892h29.3435v53.14929Zm190.5559,176.59289q-7.59741,4.45239-21.05834,4.45764-11.39209,0-18.124-6.34362-6.73168-6.341-6.73169-20.74536a70.17872,70.17872,0,0,1-28.13525,20.74536,97.80328,97.80328,0,0,1-57.65112,3.60046,53.43531,53.43531,0,0,1-18.81446-8.57251,41.12565,41.12565,0,0,1-12.60034-15.25891q-4.66077-9.427-4.66064-22.80286,0-15.08478,5.17846-24.68872a44.97592,44.97592,0,0,1,13.636-15.6018,62.72611,62.72611,0,0,1,19.33227-9.0868q10.87428-3.08624,22.26636-5.14355,12.07983-2.39484,22.957-3.60046a127.98338,127.98338,0,0,0,19.15967-3.429q8.28516-2.22619,13.11816-6.515,4.83033-4.28358,4.833-12.51587,0-9.59583-3.62475-15.43042a24.79881,24.79881,0,0,0-9.3208-8.91541,38.10671,38.10671,0,0,0-12.7732-4.11475,97.13775,97.13775,0,0,0-13.9812-1.02868q-18.64159,0-31.06958,7.02942-12.42773,7.032-13.46338,26.57458h-29.3435q.68773-16.459,6.90429-27.77478a52.1337,52.1337,0,0,1,16.57032-18.34509,69.82292,69.82292,0,0,1,23.64746-10.11548,125.65415,125.65415,0,0,1,28.48047-3.08606,168.44881,168.44881,0,0,1,23.99267,1.71448,63.11076,63.11076,0,0,1,21.57593,7.0133,41.26373,41.26373,0,0,1,15.53491,14.88392q5.866,9.57988,5.86865,24.97277v91.01819q0,10.27093,1.20826,15.05542,1.20557,4.78986,8.11254,4.7898a35.73443,35.73443,0,0,0,8.97583-1.37158Zm-47.64013-90.86816q-5.52612,4.09863-14.499,5.97388-8.98131,1.88067-18.81445,3.07006-9.83862,1.19751-19.8501,2.73243a73.70794,73.70794,0,0,0-17.95117,4.94531,32.5108,32.5108,0,0,0-12.94555,9.72436q-5.00868,6.31678-5.00586,17.23072a23.35037,23.35037,0,0,0,2.93432,12.11389,24.23865,24.23865,0,0,0,7.595,8.02063,32.09867,32.09867,0,0,0,10.87427,4.43628,60.94264,60.94264,0,0,0,13.11816,1.36084q14.49939,0,24.85572-3.92188a52.40642,52.40642,0,0,0,16.91577-9.89587,39.13144,39.13144,0,0,0,9.666-12.96582,32.47729,32.47729,0,0,0,3.10694-13.13733ZM1860.61,421.43013q-20.02551,21.6026-62.82959,21.60266a122.32266,122.32266,0,0,1-25.37353-2.74329,78.13926,78.13926,0,0,1-23.47486-8.91528,54.50209,54.50209,0,0,1-17.43335-16.11634q-6.90966-9.94939-7.59472-24.3457h29.3435a21.46218,21.46218,0,0,0,5.00562,13.37305,36.55511,36.55511,0,0,0,11.39209,8.91528,55.53107,55.53107,0,0,0,14.67163,4.972,79.65118,79.65118,0,0,0,15.1897,1.54309q14.499,0,24.5105-4.972a45.98826,45.98826,0,0,0,16.57031-13.71594,56.50906,56.50906,0,0,0,9.49365-21.08826,117.30366,117.30366,0,0,0,2.93433-27.089V341.19184h-.69043q-7.59779,16.459-22.957,24.17432a71.72676,71.72676,0,0,1-32.623,7.71521q-20.02551,0-34.86694-7.2008a72.83968,72.83968,0,0,1-24.85572-19.37378,82.16424,82.16424,0,0,1-15.01684-28.4607,116.56848,116.56848,0,0,1-5.00586-34.4613,133.85673,133.85673,0,0,1,4.14282-32.40393,88.1,88.1,0,0,1,13.80859-30.175,75.50151,75.50151,0,0,1,25.54615-22.28845q15.8745-8.744,39.00952-8.7439a66.277,66.277,0,0,1,31.06958,7.37232,52.12956,52.12956,0,0,1,22.094,22.11694h.34522V194.08821h27.61743V356.27937Q1880.6327,399.82221,1860.61,421.43013Zm-37.45605-79.724a47.99739,47.99739,0,0,0,16.3977-15.77332,71.87958,71.87958,0,0,0,9.14844-22.11694,106.62463,106.62463,0,0,0,2.93433-24.68872,96.66476,96.66476,0,0,0-2.76172-22.97425,64.0466,64.0466,0,0,0-8.80322-20.40246,45.704,45.704,0,0,0-15.70728-14.57324q-9.6687-5.48109-23.47485-5.48633-14.15919,0-24.16529,5.31494a46.89994,46.89994,0,0,0-16.3977,14.23022,60.07609,60.07609,0,0,0-9.32105,20.574,99.32894,99.32894,0,0,0-2.93432,24.34582,121.15082,121.15082,0,0,0,2.4165,24.00293,67.80407,67.80407,0,0,0,8.2854,21.77405,46.39273,46.39273,0,0,0,15.53467,15.77332q9.66064,6.00348,24.16528,6.00073Q1812.96986,347.70686,1823.15394,341.70613Zm228.01269,18.34509q-20.02551,15.09283-50.40185,15.08752-21.40869,0-37.11084-6.85791a73.05211,73.05211,0,0,1-26.40918-19.20239,81.324,81.324,0,0,1-16.05249-29.48926,140.96878,140.96878,0,0,1-6.04151-37.376,106.04063,106.04063,0,0,1,6.21412-37.03308,88.39247,88.39247,0,0,1,17.43335-29.14637A79.08035,79.08035,0,0,1,1965.38,196.83137a81.63433,81.63433,0,0,1,33.65869-6.85791q23.8202,0,39.52735,9.77258a77.98163,77.98163,0,0,1,25.20093,24.86011,97.98523,97.98523,0,0,1,13.11816,32.91834,140.312,140.312,0,0,1,2.93457,33.947H1946.22034a69.85723,69.85723,0,0,0,2.76172,22.11694,49.8838,49.8838,0,0,0,10.01148,18.51648,49.299,49.299,0,0,0,17.606,12.85877q10.69629,4.806,25.20093,4.80053,18.642,0,30.55176-8.57239,11.90991-8.56713,15.70752-26.0603H2077.058Q2071.1836,344.96363,2051.16663,360.05122Zm-7.07714-113.84241a49.9658,49.9658,0,0,0-10.70167-15.94482,50.30747,50.30747,0,0,0-36.07519-14.57312,51.44371,51.44371,0,0,0-20.54053,3.94336,47.43883,47.43883,0,0,0-15.70727,10.80127,51.65746,51.65746,0,0,0-10.35645,15.94482,60.23165,60.23165,0,0,0-4.488,19.37378h102.52979A59.48159,59.48159,0,0,0,2044.08949,246.20881ZM302.896,180.03675a80.38385,80.38385,0,0,0,13.44824-10.37127c.79419-.76227,1.55041-1.53052,2.30078-2.30079a82.04714,82.04714,0,0,0,7.9292-9.37811,63.42434,63.42434,0,0,0,6.26929-10.76538,48.61593,48.61593,0,0,0,4.35876-16.39783c1.48279-19.39117-9.96728-38.67492-35.62195-54.22686L198.42484,13.9886l-120.26,115.22662L-.13254,204.2364l108.60108,65.90777A111.60533,111.60533,0,0,0,166.23026,286.56c24.92212,0,48.80127-8.803,66.41919-25.68647,19.15832-18.36218,25.51928-42.128,13.697-61.87146a49.00947,49.00947,0,0,0-6.79871-8.86865,89.32571,89.32571,0,0,0,19.28577,2.14356c.05163,0,.10144.004.15112.004a85.01219,85.01219,0,0,0,30.9707-5.7937A80.53563,80.53563,0,0,0,302.896,180.03675ZM202.3129,239.84443c-19.3197,18.51-50.39856,21.23663-75.69983,5.89935L51.48074,200.13612l67.44336-64.6424L195.341,181.87989C222.87821,198.57264,221.35819,221.596,202.3129,239.84443Zm8.93347-82.21734-70.64722-42.8888,64.40723-61.76837,69.36938,42.11426c25.94007,15.72455,29.31006,37.04126,10.55042,55.017A60.70506,60.70506,0,0,1,211.24637,157.62709Zm29.86572,190.0401C221.5358,366.42347,194.9418,376.755,166.23026,376.755a123.81622,123.81622,0,0,1-64.10669-18.19305L-.13254,296.50532v24.67731L108.46854,387.0904a111.60524,111.60524,0,0,0,57.76172,16.41571c24.92212,0,48.80127-8.80291,66.41919-25.6864,12.87707-12.34161,19.99023-27.12933,19.67981-41.4931l-.00208-1.79126A87.09542,87.09542,0,0,1,241.11209,347.66719Zm0-38.98346c-19.57629,18.75634-46.17029,29.08783-74.88183,29.08783a123.81614,123.81614,0,0,1-64.10669-18.19306L-.13254,257.52192v24.67932L108.46854,348.109a111.6059,111.6059,0,0,0,57.76172,16.41571c24.92212,0,48.80127-8.803,66.41919-25.6864,12.87707-12.34363,19.99023-27.12934,19.67981-41.49512l-.00208-1.78925A86.98012,86.98012,0,0,1,241.11209,308.68373Zm0-38.98139c-19.57629,18.75629-46.17029,29.08777-74.88183,29.08777a123.81566,123.81566,0,0,1-64.10669-18.19305L-.13254,218.54048v24.67736l108.60108,65.90778a111.60581,111.60581,0,0,0,57.76172,16.41571c24.92212,0,48.80127-8.803,66.41919-25.6864,12.87707-12.34168,19.99023-27.1294,19.67981-41.49316l-.00208-1.82306A86.47081,86.47081,0,0,1,241.11209,269.70234Zm83.6908,25.73816a94.13736,94.13736,0,0,1-60.19177,25.85559v-.002h-.01185l.01185,26.66766a81.65282,81.65282,0,0,0,51.73315-22.36865c13.96777-13.38458,21.14453-28.1106,20.98535-42.64154v-2.19727A95.161,95.161,0,0,1,324.80289,295.4405Zm-83.6908,91.20807c-19.57629,18.75629-46.17029,29.08777-74.88183,29.08777a123.81614,123.81614,0,0,1-64.10669-18.19306L-.13254,335.4867v24.67737l108.60108,65.90772a111.60541,111.60541,0,0,0,57.76172,16.41577c24.92212,0,48.80127-8.803,66.41919-25.6864,12.87707-12.34168,19.99023-27.1294,19.67981-41.49317l-.00208-1.78924A86.98338,86.98338,0,0,1,241.11209,386.64857Zm85.74475-210.20624c-.67859.68665-1.34533,1.37329-2.05395,2.05194a99.29591,99.29591,0,0,1-22.23133,15.68732A94.67969,94.67969,0,0,1,276.326,202.893a98.08805,98.08805,0,0,1-14.16089,1.56634c.50562,1.61212.90369,3.25006,1.25,4.902a53.15906,53.15906,0,0,1,1.13843,12.00128l.0039,9.65283h.05372a84.26969,84.26969,0,0,0,25.34423-5.54687,80.95355,80.95355,0,0,0,26.38892-16.82178c.802-.7702,1.50464-1.55835,2.26294-2.33655a82.04814,82.04814,0,0,0,7.92725-9.38019,63.32844,63.32844,0,0,0,6.2832-10.77526,48.442,48.442,0,0,0,4.319-16.44165c.09155-1.236.20495-2.47388.193-3.70789v-2.048q-1.08069,1.55246-2.257,3.08892A97.66445,97.66445,0,0,1,326.85684,176.44233Zm-.03186,77.921c-.68652.69458-1.30566,1.40711-2.02209,2.09375a94.13052,94.13052,0,0,1-60.19177,25.85761v-.002h-.02979l.012,26.66761h.01392l.00391.002v-.002a81.65283,81.65283,0,0,0,51.73315-22.36866,73.54657,73.54657,0,0,0,16.47339-22.492,48.45363,48.45363,0,0,0,4.319-16.44159c.09155-1.238.20495-2.47394.193-3.7099v-2.19324c-.74438,1.07471-1.46484,2.15344-2.27283,3.21625A97.10255,97.10255,0,0,1,326.825,254.36335Zm0-38.98144c-.68652.69464-1.30359,1.40716-2.02209,2.09381a97.18515,97.18515,0,0,1-22.25122,15.67535,95.66881,95.66881,0,0,1-37.94055,10.18024h-.04761l.01184,26.6676h.02991l.00586.00195v-.00195a81.65064,81.65064,0,0,0,51.73315-22.37067c.802-.7702,1.50464-1.55834,2.26294-2.33654a82.05456,82.05456,0,0,0,7.92725-9.38013,63.33129,63.33129,0,0,0,6.2832-10.77533,48.44157,48.44157,0,0,0,4.319-16.44159c.09155-1.236.20495-2.47394.193-3.70788v-2.1933c-.74438,1.07476-1.46484,2.1535-2.27283,3.21631A97.33676,97.33676,0,0,1,326.825,215.38191Z"/></svg>