<?xml version="1.0" encoding="UTF-8"?><svg id="artwork" xmlns="http://www.w3.org/2000/svg" viewBox="0 0 310 240"><defs><style>.cls-1{fill:none;}</style></defs><path d="M19.17167,230.23632c-4.10391-2.42351-7.51373-5.86408-9.90029-9.98959-4.88974-8.35728-4.88974-18.70264,0-27.05991,2.39578-4.10505,5.8045-7.52696,9.90029-9.93855,7.15475-4.30374,15.94327-4.90199,23.61524-1.60751,3.24239,1.38917,6.1811,3.40034,8.64999,5.91976l-4.05708,4.13363c-1.91136-2.06568-4.21413-3.73097-6.77455-4.8991-5.96089-2.71442-12.88414-2.26915-18.44821,1.18649-3.18611,1.96077-5.82049,4.70054-7.65486,7.96106-3.82054,6.67478-3.82054,14.87365,0,21.54843,1.84903,3.2496,4.48024,5.98606,7.65486,7.96106,5.54213,3.50497,12.47636,3.98451,18.44821,1.27581,2.56302-1.16368,4.86661-2.82957,6.77455-4.8991l4.05708,4.13363c-2.48686,2.49141-5.42154,4.49115-8.64999,5.89423-3.21661,1.41483-6.69246,2.14475-10.20648,2.14335-4.73093,.00442-9.37115-1.29804-13.40876-3.76367Z"/><path d="M94.99304,221.12703h-29.34362l-5.28185,11.94158h-6.50663l23.19422-52.57613h6.50663l23.23249,52.53785h-6.50663l-5.29461-11.90331Zm-2.44955-5.6646l-12.17123-27.63404-12.24777,27.63404h24.419Z"/><path d="M153.34858,205.24321c-1.4282,2.42366-3.44166,4.45027-5.85596,5.89423-2.56482,1.55082-5.43967,2.51782-8.42035,2.8323l13.396,19.0606h-6.81282l-13.34498-18.90751h-11.60987v18.90749h-5.97079v-52.57611h21.40809c3.38667-.04104,6.73799,.69204,9.79821,2.14335,2.83629,1.32508,5.25781,3.39814,7.0042,5.9963,3.24612,5.02983,3.42317,11.4482,.45929,16.64932l-.05102,.00002Zm-32.64797,3.21505h14.31459c3.71684,.18393,7.39026-.86561,10.44888-2.98539,4.5236-3.60577,5.26764-10.19593,1.66187-14.71953-.48986-.61454-1.04732-1.17201-1.66187-1.66187-3.05979-2.11616-6.73339-3.16126-10.44888-2.97264h-14.3146v22.33942Z"/><path d="M211.70411,180.45421l-23.18146,52.57611h-6.45559l-23.19421-52.57611h6.50664l19.97918,45.22745,19.88987-45.22745h6.45557Z"/><path d="M225.71251,186.11881v17.28723h28.55263v5.6646h-28.55263v18.29511h31.69111v5.6646h-37.73845v-52.57613h37.73845v5.6646h-31.69111Z"/><path d="M302.40143,227.36574v5.6646h-34.66377v-52.57613h5.97078v46.91153h28.69299Z"/><path class="cls-1" d="M88.16746,21.99865s0,1.07168,.08931,3.01091c-.02552-.99513-.06379-1.99026-.08931-3.01091Z"/><g><path class="cls-1" d="M118.2951,120.64642l.04529,.01093v-.00568c-.01318-.00159-.03253-.00366-.04529-.00525Z"/><path class="cls-1" d="M168.71906,130.61713c.14191-.02246,.28253-.05182,.42426-.07532-.00476,.00079-.00946,.00134-.01422,.00214-.13733,.02264-.2724,.05151-.41003,.07318Z"/><path class="cls-1" d="M165.86902,130.99255c.24072-.02606,.48065-.05768,.72101-.08667-.07465,.00903-.14954,.01483-.22424,.02356-.16614,.01923-.3302,.04523-.49677,.06311Z"/><path class="cls-1" d="M162.96387,131.23022c.35266-.02051,.70465-.04565,1.05676-.07257-.20447,.01569-.4093,.02539-.61395,.03888-.14807,.00958-.29443,.02521-.44281,.03369Z"/><path class="cls-1" d="M217.9173,72.97998c-.08606-32.23578-26.28809-58.29828-58.52393-58.21222-21.48309,.05731-41.19818,11.91132-51.3233,30.85889,11.91608,6.37903,31.21912,14.68457,61.90234,23.8576,2.60724,.78546,8.0379,1.81305,13.90082,2.71765,7.86206,1.20947,16.4942,2.19623,20.18878,2.07941,4.27216-.12714,8.96301-.0777,13.84412-.3551,.00238-.14758,.00995-.29388,.01117-.44171v-.50452Z"/><path class="cls-1" d="M217.9173,73.4845v.44122c.00861-.00049,.01691-.00061,.02551-.0011v-.94464c-.00061-2.95129-.23169-5.86755-.66553-8.73254,.42755,2.84906,.65277,5.76434,.65277,8.73254,0,.16919-.01129,.33563-.01276,.50452Z"/><path class="cls-1" d="M186.94043,21.43707c-.00507-.00269-.01025-.00494-.01532-.00763,.00665,.0036,.01367,.00677,.02032,.01038-.00171-.00092-.0033-.00183-.005-.00275Z"/><path class="cls-1" d="M200.86761,31.74725c1.26453,1.26636,2.46869,2.59265,3.6131,3.97028-1.14105-1.37506-2.34521-2.70062-3.6131-3.97028Z"/><path class="cls-1" d="M159.61548,14.62549c1.97058,.0014,3.91797,.10144,5.83832,.29358-1.94751-.19647-3.89587-.29297-5.83832-.29358Z"/><path class="cls-1" d="M94.03619,74.94476c.48297,2.59595,1.05579,5.16339,1.7077,7.71155-.5705-2.41681-1.15051-4.99811-1.7077-7.71155Z"/><path class="cls-1" d="M98.04224,77.9314c-.02209-.00757-.05566-.01971-.07654-.02679v.21692c2.28717,7.672,5.1488,15.16095,8.56067,22.4032l.06378,.02039v-.0459l.01276,.00409,1.8244,.58276c.00073,.00024,.00146,.00043,.0022,.00067,31.45465,9.82825,64.72784,12.39758,97.31848,7.51532,1.83435-2.36871,3.48077-4.87714,4.92273-7.50323,.16589-.2934,.31897-.59961,.47205-.89307-39.94562,2.52612-94.3844-15.59039-109.59204-21.02533-.00031-.00012-.00049-.00012-.00079-.00024-.00092-.00897-.00244-.01776-.00336-.02667-1.6759-.56696-2.85175-.99866-3.50433-1.24579v.02368Z"/><path class="cls-1" d="M108.08844,45.5036c-.01843,.03461-.03912,.06732-.0575,.10193,.0014,.00073,.00275,.00146,.00415,.0022,.01831-.03442,.03497-.06976,.05334-.10413Z"/><path class="cls-1" d="M126.89246,24.6297c-6.45935,4.35675-12.11426,10.06836-16.5141,16.98169,4.29498-6.72174,9.9165-12.51337,16.5141-16.98169Z"/><path class="cls-1" d="M204.61139,110.09082c.32794-.39807,.66248-.78796,.98163-1.19678l.22961-.2807c1.84564-2.37933,3.50079-4.90051,4.95013-7.54004,.16589-.2934,.31897-.59961,.47205-.89307,.00433-.00818,.00824-.0166,.01257-.02478-.01459,.00098-.0293,.00153-.04388,.00244-1.86682,3.53961-4.07581,6.87061-6.60211,9.93292Z"/><path class="cls-1" d="M204.70282,35.9856c1.08704,1.32446,2.1145,2.69934,3.08344,4.11749-.96576-1.41595-1.99469-2.78937-3.08344-4.11749Z"/><path class="cls-1" d="M149.10016,73.64343c-22.05511-6.37805-36.55963-12.59021-45.49078-17.19556,.00391-.01312,.00732-.02643,.01123-.03955-3.25482-1.67914-5.77417-3.14233-7.63245-4.31335-2.1828-1.36426-3.46692-2.31403-4.00604-2.72949v.19067c.47205,3.52124,1.07172,7.23383,1.83716,11.17609,.16589,.82928,.34448,1.69684,.52307,2.55157l.01398,.06519,.00079,.00372c2.20111,1.74524,4.58002,3.25385,7.09961,4.49609,.00018-.00201,.00031-.00403,.00049-.00604,24.83136,12.75568,80.7757,21.26349,80.7757,21.26349,3.36053,.48224,6.73364,.85419,10.11328,1.13977,7.5957,.63379,15.22729,.7818,22.84796,.41919,.96124-3.02563,1.67804-6.15857,2.1369-9.37561-18.5448,2.33942-42.19623-.14941-68.2309-7.64618Z"/><path class="cls-1" d="M204.59882,110.10608c-.7453,.90283-1.52069,1.77942-2.32086,2.63251,.79266-.8526,1.57166-1.72357,2.32086-2.63251Z"/><path class="cls-1" d="M217.33105,81.28961c.01233-.00159,.02533-.0025,.03766-.00409,.00055-.00385,.00092-.00769,.00146-.01154-.01233,.00153-.02533,.00256-.03766,.00409-.00055,.00378-.00092,.00769-.00146,.01154Z"/><path class="cls-1" d="M142.3335,121.88434c-6.04785-.02124-11.2605-.24255-15.31104-.49591,3.16223,2.12891,6.46265,3.90765,9.8537,5.34515,.01184,.005,.02368,.01001,.03558,.01501,.0163,.00684,.03259,.01373,.04889,.02057,.79071,.33368,1.58679,.64667,2.38678,.9433,.08209,.03064,.16418,.06128,.24646,.09155,.75635,.27643,1.51685,.53442,2.28027,.77814,.10699,.03406,.2135,.07037,.32062,.10382,.55176,.17261,1.10706,.32587,1.66205,.48071,.78204,.21832,1.56995,.42188,2.36481,.60809,.3183,.0744,.63519,.15845,.95416,.22791,.06409,.01385,.12738,.02979,.19122,.04419,.01068,.00238,.0213,.00513,.03204,.00739,.00024,.00006,.00043,.00006,.00067,.00012,.63507,.13544,1.27289,.24878,1.91052,.36279,.31293,.05554,.62378,.117,.93842,.1676,.50287,.08142,1.00696,.14655,1.51093,.2146,.42767,.05731,.85516,.11536,1.28571,.16333,.12634,.01416,.25287,.02588,.37927,.03918,.32343,.03418,.64709,.06348,.97076,.09222,.52557,.04626,1.05243,.08807,1.58191,.1203,.0675,.00409,.13501,.00848,.20258,.01239,.32703,.01898,.65393,.03424,.98096,.04767,.61426,.02502,1.23077,.04083,1.84985,.04675,.34137,.00323,.68268,.00537,1.0238,.00262,.61719-.00476,1.23114-.02277,1.84363-.04657,.26776-.01062,.53546-.02051,.80292-.03479,.242-.013,.48383-.02997,.72571-.04596,.40222-.02612,.80286-.05719,1.20282-.09143,.18756-.01624,.37518-.03229,.56262-.05029,.39825-.03845,.79626-.07874,1.19366-.12537,.26825-.03113,.53485-.0672,.80194-.10193,.14301-.01874,.28589-.03833,.42877-.05811,.51147-.07104,1.02307-.14093,1.53259-.22546,.04333-.00714,.08612-.01593,.12939-.02313,.15204-.02551,.30347-.05487,.45508-.08301,.42279-.0741,.83673-.17273,1.25635-.25568,.54681-.10803,1.09406-.21405,1.6377-.33734,.00012,0,.00018-.00006,.00031-.00006,.00012-.00006,.00031-.00006,.00043-.00012,.3139-.07166,.62695-.1474,.93982-.22406,.39117-.09558,.77893-.2052,1.16815-.30896,.27881-.07465,.56018-.14282,.83734-.2215,1.04486-.29584,2.08502-.61072,3.11407-.96692-.12653,.04376-.25385,.08588-.38074,.12885,.35016-.1181,.70197-.23053,1.05011-.35535-.21606,.07776-.43658,.14594-.65387,.22125,.73859-.25586,1.47223-.52844,2.2016-.81458,.05078-.01959,.10126-.04034,.15204-.06,.00543-.00208,.0108-.00433,.01624-.00641,.71545-.2832,1.42664-.5802,2.13226-.89252,.00989-.00439,.01978-.00897,.02972-.01337,.49103-.21576,.98169-.43262,1.46704-.66327-.45093,.21527-.91077,.41443-1.36798,.61841,.90051-.40118,1.79193-.82764,2.67456-1.27606,.04242-.02136,.08453-.04352,.12695-.065,.71924-.36768,1.42841-.75995,2.13452-1.159-.24713,.14001-.48328,.29669-.73273,.43304,.36914-.20087,.72949-.42041,1.09473-.62964,.06824-.03906,.13629-.07819,.20441-.11755,.61926-.35803,1.23315-.72656,1.84064-1.10858-.29504,.18695-.60461,.35217-.90326,.53387,.44568-.26984,.89355-.53473,1.33319-.81738-.06805,.04395-.13232,.09308-.20056,.13672,1.08667-.69037,2.15021-1.42462,3.19525-2.19098,.77533-.56854,1.53406-1.16522,2.28448-1.77539,.32098-.26099,.63782-.52783,.95404-.79639,.55585-.47211,1.10254-.95831,1.64307-1.4538,.24359-.22321,.4906-.44061,.73199-.66699,.02502-.0238,.04999-.04773,.07501-.07153-20.91528,5.41846-41.92224,6.67877-57.43695,6.6228Z"/><path class="cls-1" d="M200.9801,114.04547c-.40375,.40497-.79523,.82196-1.20966,1.21606,.00098-.00024,.00208-.00055,.00305-.00079,.83728-.79712,1.65942-1.61652,2.45587-2.47119-.27637,.29395-.57135,.56982-.85364,.85815-.13031,.13416-.26404,.26483-.39563,.39777Z"/><path class="cls-1" d="M153.14294,130.97516c-.03271-.0036-.06494-.00879-.09766-.01245-.16528-.01849-.33093-.03131-.49609-.05121,.19781,.02393,.39581,.04175,.59375,.06366Z"/><path class="cls-1" d="M156.07135,131.22156c-.03149-.00189-.06256-.00519-.09412-.00714-.297-.01819-.59412-.03192-.89087-.05469,.32831,.02521,.65656,.04218,.98499,.06183Z"/><path d="M164.02063,131.15765c.19653-.01495,.39252-.03558,.58887-.05255-.39996,.03424-.8006,.06531-1.20282,.09143,.20465-.01349,.40948-.02319,.61395-.03888Z"/><path d="M199.69543,115.33307c.02161-.02026,.04407-.03931,.06555-.05975,.00421-.00409,.00824-.00848,.01251-.01257-.00098,.00024-.00208,.00055-.00305,.00079-.02502,.0238-.04999,.04773-.07501,.07153Z"/><path d="M169.14331,130.54181c.03845-.00635,.07666-.01453,.11517-.021-.04327,.0072-.08606,.01599-.12939,.02313,.00476-.00079,.00946-.00134,.01422-.00214Z"/><path d="M160.15997,131.32422c.42566-.00446,.85114-.0141,1.27643-.02783,.14734-.00476,.29443-.01331,.44165-.0191-.61249,.0238-1.22644,.04181-1.84363,.04657,.04187-.00031,.08374,.00079,.12555,.00037Z"/><path d="M157.62671,131.29712c.40051,.01318,.80103,.01874,1.20154,.02368,.06079,.00079,.12158-.00018,.18237,.00043-.61908-.00592-1.2356-.02173-1.84985-.04675,.15527,.00641,.31067,.01752,.46594,.02264Z"/><path d="M152.54919,130.9115c.16516,.0199,.33081,.03271,.49609,.05121-.43054-.04797-.85803-.10602-1.28571-.16333,.26337,.03558,.52606,.0802,.78961,.11212Z"/><path d="M155.08636,131.15973c.29675,.02277,.59387,.0365,.89087,.05469-.52948-.03223-1.05634-.07404-1.58191-.1203,.23041,.02051,.46051,.04785,.69104,.06561Z"/><path d="M166.59003,130.90588c.19293-.02332,.38495-.05316,.5777-.07837-.26709,.03473-.53369,.0708-.80194,.10193,.07471-.00873,.1496-.01453,.22424-.02356Z"/><path d="M150.02167,130.55231c.02155,.0036,.04327,.00592,.06488,.00946,.05396,.00885,.10815,.01428,.16211,.02301-.31464-.0506-.62549-.11206-.93842-.1676,.23743,.04242,.47369,.0957,.71143,.13513Z"/><path d="M217.90613,73.92621c.00378-.00024,.00739-.00024,.01117-.00049v-.44122c-.00122,.14783-.00879,.29413-.01117,.44171Z"/><path d="M159.63831,6h-.06378c-24.68152-.00159-47.36121,13.57587-59.01862,35.32916-3.63672-2.10211-6.99628-4.65021-10.00226-7.58411-.00012-.00287-.00031-.0061-.00043-.00897-.30621-6.37903-.14038-10.11719-.14038-10.11719l-2.14331-1.60748c0,1.02063,0,2.01575,.08929,3.01086,0,.5614,0,1.21204,.07654,1.901,.12909,5.11755,.40784,10.22833,.82849,15.3266-.50061-5.73419-.84076-11.48303-1.00708-17.24036,0-1.93921-.08929-3.01086-.08929-3.01086l-3.06195,1.96472c.10205,3.59778,.24237,7.07648,.42102,10.43616,0,.49756,.06378,.9696,.08929,1.46716l-14.27631,22.47974,2.98541,7.13177,.04138-.05518,5.08734,10.95062,8.93066-12.75812c-.65491-4.33771-1.229-9.01569-1.72235-14.03387,.00684-.03406,.005-.08899,.00684-.13544,.00922,.08838,.01892,.177,.04425,.263,.49261,4.99432,1.06592,9.66595,1.71967,14.01575l-8.88977,12.69971,4.26123,8.07587,4.35095-3.87848-4.32544,3.91675c.12756,.24243,3.08746,5.69012,5.10321,8.81586,1.97723,3.06586,4.81995,7.25214,5.3255,7.98956l-.08191,.06079s5.52429,7.13177,6.04736,7.65485c.99512,1.02069,1.9137,1.84991,2.73022,2.55164-2.26611-3.93195-4.1911-8.0509-5.75391-12.31158-.01208-.01813-.01971-.03864-.02911-.05823l.0929-.06934c-.00482,.03815-.00482,.07672,0,.11487,1.56281,4.26062,3.48779,8.37958,5.75391,12.31152,.8551,1.4953,1.82776,2.92017,2.90887,4.26123,.09937,.11462,.21552,.2135,.34442,.2934l4.47809,2.55164,.26532,.14862c.02429,.02557,.04089,.04272,.04089,.04272l6.74902,1.67133h.16589l.30426,.07373c.00067,.00092,.00122,.00189,.00189,.00281l.06384,.01416v.04962l-.42102-.10205h-.15314l-6.74902-1.67126-.31891-.17865c25.26202,27.01331,67.63959,28.43292,94.65289,3.1709,3.66101-3.42371,6.92609-7.24762,9.73383-11.39984,.84204-1.27582,1.6203-2.55164,2.38574-3.82745,.0376-.07916,.08026-.15588,.12762-.22961,1.19171-2.06781,2.27344-4.19714,3.24054-6.37909,.15308-.34442,.31891-.6889,.47205-1.04614,1.01801-2.42114,1.89136-4.90057,2.61542-7.42523,.17859-.62512,.36993-1.27582,.53583-1.90094,.83105-3.23413,1.41534-6.52667,1.74786-9.84924,.00623-.05084,.00623-.10229,0-.15314,.2309-2.21661,.34589-4.44379,.34442-6.67249,.03528-36.992-29.92413-67.00854-66.9162-67.04376Zm58.3045,66.97998v.94464c-.00861,.00049-.01691,.00061-.02551,.0011-.00378,.00024-.00739,.00024-.01117,.00049-4.8811,.2774-9.57196,.22797-13.84412,.3551-3.69458,.11682-12.32672-.86993-20.18878-2.07941-5.86292-.9046-11.29358-1.93219-13.90082-2.71765-30.68323-9.17303-49.98627-17.47858-61.90234-23.8576,10.12512-18.94757,29.84021-30.80157,51.3233-30.85889,32.23584-.08606,58.43787,25.97644,58.52393,58.21222v.50452c.00146-.16888,.01276-.33533,.01276-.50452,0-2.9682-.22522-5.88348-.65277-8.73254,.43384,2.86499,.66492,5.78125,.66553,8.73254Zm-10.15656-32.87689c-.96893-1.41815-1.9964-2.79303-3.08344-4.11749,1.08875,1.32812,2.11768,2.70154,3.08344,4.11749Zm-3.30554-4.38556c-1.14441-1.37762-2.34857-2.70392-3.6131-3.97028,1.26788,1.26965,2.47205,2.59521,3.6131,3.97028Zm-17.54028-14.28046c.00171,.00092,.0033,.00183,.005,.00275-.00665-.0036-.01367-.00677-.02032-.01038,.00507,.00269,.01025,.00494,.01532,.00763Zm-21.48663-6.51801c-1.92035-.19214-3.86774-.29218-5.83832-.29358,1.94244,.00061,3.89081,.09711,5.83832,.29358Zm-38.56134,9.71063c-6.5976,4.46832-12.21912,10.25995-16.5141,16.98169,4.39984-6.91333,10.05475-12.62494,16.5141-16.98169Zm-18.80402,20.8739c-.01837,.03436-.03503,.0697-.05334,.10413-.0014-.00073-.00275-.00146-.00415-.0022,.01837-.03461,.03906-.06732,.0575-.10193Zm-6.54187,33.6499c.00092,.00891,.00244,.0177,.00336,.02667,.00031,.00012,.00049,.00012,.00079,.00024,15.20764,5.43494,69.64642,23.55145,109.59204,21.02533-.15308,.29346-.30615,.59967-.47205,.89307-1.44196,2.6261-3.08838,5.13452-4.92273,7.50323-32.59064,4.88226-65.86383,2.31293-97.31848-7.51532-.00073-.00024-.00146-.00043-.0022-.00067l-1.8244-.58276-.01276-.00409v.0459l-.06378-.02039c-3.41187-7.24225-6.2735-14.7312-8.56067-22.4032v-.21692c.02087,.00708,.05444,.01923,.07654,.02679v-.02368c.65259,.24713,1.82843,.67883,3.50433,1.24579Zm-7.51038-4.20874c.55719,2.71344,1.13721,5.29474,1.7077,7.71155-.65192-2.54816-1.22473-5.1156-1.7077-7.71155Zm24.25891,45.70166c.01276,.00159,.0321,.00366,.04529,.00525v.00568l-.04529-.01093Zm81.47839-5.38568c-.00427,.00409-.0083,.00848-.01251,.01257-.02148,.02045-.04395,.03949-.06555,.05975-.24139,.22638-.4884,.44379-.73199,.66699-.54053,.49548-1.08722,.98169-1.64307,1.4538-.31622,.26855-.63306,.5354-.95404,.79639-.75043,.61017-1.50916,1.20685-2.28448,1.77539-1.04504,.76636-2.10858,1.50061-3.19525,2.19098,.06824-.04364,.13251-.09277,.20056-.13672-.43964,.28265-.88751,.54755-1.33319,.81738,.29865-.1817,.60822-.34692,.90326-.53387-.60748,.38202-1.22137,.75055-1.84064,1.10858-.06812,.03937-.13617,.07849-.20441,.11755-.36523,.20923-.72559,.42877-1.09473,.62964,.24945-.13635,.4856-.29303,.73273-.43304-.70612,.39905-1.41528,.79132-2.13452,1.159-.04242,.02148-.08453,.04364-.12695,.065-.88263,.44843-1.77405,.87488-2.67456,1.27606,.45721-.20398,.91705-.40314,1.36798-.61841-.48535,.23065-.97601,.44751-1.46704,.66327-.00995,.00439-.01984,.00897-.02972,.01337-.70563,.31232-1.41681,.60931-2.13226,.89252-.00543,.00208-.0108,.00433-.01624,.00641-.05078,.01965-.10126,.04041-.15204,.06-.72937,.28613-1.46301,.55872-2.2016,.81458,.21729-.07532,.43781-.14349,.65387-.22125-.34814,.12482-.69995,.23724-1.05011,.35535,.12689-.04297,.25421-.08508,.38074-.12885-1.02905,.3562-2.06921,.67108-3.11407,.96692-.27716,.07867-.55853,.14685-.83734,.2215-.38922,.10376-.77698,.21338-1.16815,.30896-.31287,.07666-.62592,.1524-.93982,.22406-.00012,.00006-.00031,.00006-.00043,.00012-.00012,0-.00018,.00006-.00031,.00006-.54364,.12329-1.09088,.22931-1.6377,.33734-.41962,.08295-.83356,.18158-1.25635,.25568-.15161,.02814-.30304,.0575-.45508,.08301-.03851,.00647-.07672,.01465-.11517,.021-.14172,.0235-.28235,.05286-.42426,.07532,.13763-.02167,.27271-.05054,.41003-.07318-.50952,.08453-1.02112,.15442-1.53259,.22546-.14288,.01978-.28577,.03937-.42877,.05811-.19275,.02521-.38477,.05505-.5777,.07837-.24036,.02899-.48029,.06061-.72101,.08667,.16656-.01788,.33063-.04388,.49677-.06311-.3974,.04663-.79541,.08691-1.19366,.12537-.18744,.01801-.37506,.03406-.56262,.05029-.19635,.01697-.39233,.0376-.58887,.05255-.35211,.02692-.7041,.05206-1.05676,.07257,.14838-.00848,.29474-.02411,.44281-.03369-.24188,.01599-.4837,.03296-.72571,.04596-.26746,.01428-.53516,.02417-.80292,.03479-.14722,.0058-.29431,.01434-.44165,.0191-.42529,.01373-.85077,.02338-1.27643,.02783-.04181,.00043-.08368-.00067-.12555-.00037-.34113,.00275-.68243,.00061-1.0238-.00262-.06079-.00061-.12158,.00037-.18237-.00043-.40051-.00494-.80103-.0105-1.20154-.02368-.15527-.00513-.31067-.01624-.46594-.02264-.32703-.01343-.65393-.02869-.98096-.04767-.06757-.00391-.13507-.0083-.20258-.01239,.03156,.00195,.06262,.00525,.09412,.00714-.32843-.01965-.65668-.03662-.98499-.06183-.23053-.01776-.46063-.0451-.69104-.06561-.32367-.02875-.64734-.05804-.97076-.09222-.1264-.01331-.25293-.02502-.37927-.03918,.03271,.00366,.06494,.00885,.09766,.01245-.19794-.02191-.39594-.03973-.59375-.06366-.26355-.03192-.52625-.07654-.78961-.11212-.50397-.06805-1.00806-.13318-1.51093-.2146-.05396-.00873-.10815-.01416-.16211-.02301-.02161-.00354-.04333-.00586-.06488-.00946-.23773-.03943-.474-.09271-.71143-.13513-.63763-.11401-1.27545-.22736-1.91052-.36279-.00024-.00006-.00043-.00006-.00067-.00012-.01074-.00226-.02136-.005-.03204-.00739-.06384-.0144-.12714-.03033-.19122-.04419-.31897-.06946-.63586-.1535-.95416-.22791-.79486-.18622-1.58276-.38977-2.36481-.60809-.55499-.15485-1.11029-.30811-1.66205-.48071-.10712-.03345-.21362-.06976-.32062-.10382-.76343-.24371-1.52393-.50171-2.28027-.77814-.08228-.03027-.16437-.06091-.24646-.09155-.79999-.29663-1.59607-.60962-2.38678-.9433-.0163-.00684-.03259-.01373-.04889-.02057-.0119-.005-.02374-.01001-.03558-.01501-3.39105-1.4375-6.69147-3.21625-9.8537-5.34515,4.05054,.25336,9.26318,.47467,15.31104,.49591,15.51471,.05597,36.52167-1.20435,57.43695-6.6228,.41443-.3941,.80591-.8111,1.20966-1.21606,.13159-.13293,.26532-.26361,.39563-.39777,.28229-.28833,.57727-.56421,.85364-.85815-.79645,.85468-1.61859,1.67407-2.45587,2.47119Zm2.50446-2.52216c.80017-.85309,1.57556-1.72968,2.32086-2.63251-.74921,.90894-1.5282,1.77991-2.32086,2.63251Zm8.96686-12.55835c-.15308,.29346-.30615,.59967-.47205,.89307-1.44934,2.63953-3.10449,5.16071-4.95013,7.54004l-.22961,.2807c-.31915,.40881-.65369,.79871-.98163,1.19678,2.52631-3.06232,4.73529-6.39331,6.60211-9.93292,.01459-.00092,.0293-.00146,.04388-.00244-.00433,.00818-.00824,.0166-.01257,.02478Zm6.1239-18.89471c-.01233,.00159-.02533,.0025-.03766,.00409-.45886,3.21704-1.17566,6.34998-2.1369,9.37561-7.62067,.36261-15.25226,.2146-22.84796-.41919-3.37964-.28558-6.75275-.65753-10.11328-1.13977,0,0-55.94434-8.50781-80.7757-21.26349-.00018,.00201-.00031,.00403-.00049,.00604-2.51959-1.24225-4.8985-2.75085-7.09961-4.49609l-.00079-.00372-.01398-.06519c-.17859-.85474-.35718-1.72229-.52307-2.55157-.76544-3.94226-1.36511-7.65485-1.83716-11.17609v-.19067c.53912,.41547,1.82324,1.36523,4.00604,2.72949,1.85828,1.17102,4.37762,2.63422,7.63245,4.31335-.00391,.01312-.00732,.02643-.01123,.03955,8.93115,4.60535,23.43567,10.8175,45.49078,17.19556,26.03467,7.49677,49.6861,9.9856,68.2309,7.64618,.00055-.00385,.00092-.00775,.00146-.01154,.01233-.00153,.02533-.00256,.03766-.00409-.00055,.00385-.00092,.00769-.00146,.01154Z"/></g></svg>