<svg xmlns="http://www.w3.org/2000/svg" role="img" viewBox="-15.77 -15.77 820.04 210.04"><defs><style>.cls-1{fill:none}.cls-2{fill:#00aab2}.cls-3{fill:#fff}.cls-4{fill:#00797f}.cls-5{fill:#3accc5}</style></defs><g id="Layer_2" data-name="Layer 2"><g id="svg10488"><path d="M305.7 47.5c-3 3.2-6.3 6.8-10 10.8s-7.6 8-11.7 12.2c-4 4.1-8 8.2-12 12.2s-7.8 7.7-11.3 11.2a120.235 120.235 0 0113 10.6c4.6 4.2 9.1 8.7 13.4 13.4 4.4 4.8 8.5 9.6 12.4 14.6a114.046 114.046 0 019.6 14.2h-16.3a129.813 129.813 0 00-9.9-13.5c-3.7-4.5-7.7-8.9-11.8-13a167.907 167.907 0 00-12.6-11.5 100.561 100.561 0 00-12.4-9v47h-13.9V47.5h13.9v43.8c3.3-3.1 7-6.7 11-10.7s8-7.9 11.9-11.9 7.6-7.8 11.1-11.5 6.4-6.9 8.8-9.7zm72.2 97c-3.1.8-7.1 1.6-12.1 2.4a112.312 112.312 0 01-17.4 1.3 37.382 37.382 0 01-14.4-2.5 22.016 22.016 0 01-9.4-7.1 27.565 27.565 0 01-5.1-10.8 58.469 58.469 0 01-1.6-13.8V72.3h13.3v38.9c0 9.1 1.4 15.5 4.3 19.5 2.9 3.9 7.7 5.9 14.4 5.9 1.4 0 2.9 0 4.4-.1s3-.2 4.3-.4c1.3-.1 2.6-.3 3.6-.4a10.266 10.266 0 002.4-.5V72.3h13.3zm35.3-68.9a32.779 32.779 0 017.4-3.3 33.915 33.915 0 0111.4-1.7 32.856 32.856 0 0114.2 2.9 28.574 28.574 0 0110.5 8 33.9 33.9 0 016.5 12.3 52.265 52.265 0 012.2 15.7 47.01 47.01 0 01-2.6 16.2 34.15 34.15 0 01-7.5 12.2 32.676 32.676 0 01-11.7 7.7 40.682 40.682 0 01-15.4 2.7 91.781 91.781 0 01-16.5-1.3c-4.8-.9-8.7-1.7-11.7-2.6V38l13.3-2.3zm0 59.5a55.356 55.356 0 005.6 1.1 68.455 68.455 0 009.1.5c7.2 0 12.9-2.4 17.2-7.1s6.4-11.4 6.4-20.1a54.715 54.715 0 00-1.1-10.7 25.709 25.709 0 00-3.7-8.7 18.109 18.109 0 00-6.6-5.7 20.88 20.88 0 00-9.8-2.1 26.52 26.52 0 00-10 1.9 24.12 24.12 0 00-7 3.9zm66-25.5a47.77 47.77 0 012.8-17.2 36.853 36.853 0 017.6-12.2 30.773 30.773 0 0110.9-7.3 33.993 33.993 0 0112.6-2.4c10 0 17.7 3.1 23 9.4 5.3 6.2 8 15.8 8 28.5v4.7h-51c.6 7.7 2.8 13.6 6.7 17.6s10 6 18.3 6a46.85 46.85 0 0011.8-1.2 43.45 43.45 0 007.2-2.4l1.9 11.1a42.043 42.043 0 01-8.5 2.7 58.273 58.273 0 01-13.8 1.4 46.087 46.087 0 01-16.8-2.9 31.255 31.255 0 01-11.6-8.1 33.348 33.348 0 01-6.8-12.2 45.56 45.56 0 01-2.3-15.5zm51-7.3c.1-6-1.4-10.9-4.5-14.8s-7.4-5.8-12.8-5.8a17.453 17.453 0 00-8.1 1.8 16.85 16.85 0 00-5.9 4.7 22.741 22.741 0 00-3.8 6.6 32.395 32.395 0 00-1.8 7.6zm113.1-54.8c-3.6 10.5-7.1 20.2-10.3 29.1-3.3 8.9-6.5 17.4-9.7 25.4-3.1 8-6.3 15.7-9.4 23s-6.3 14.6-9.5 21.7h-13c-3.2-7.2-6.4-14.4-9.5-21.7s-6.2-15-9.4-23-6.5-16.5-9.8-25.4-6.8-18.6-10.3-29.1h15.3c5.1 15.1 10.2 29.6 15.2 43.5s10.1 27 15.3 39.2c5.2-12.1 10.3-25.1 15.3-39.1s10-28.5 15-43.5zm18.6 11.3a8.703 8.703 0 01-6.1-2.4 8.51 8.51 0 01-2.5-6.4 8.51 8.51 0 012.5-6.4 8.952 8.952 0 0112.2 0 8.51 8.51 0 012.5 6.4 8.51 8.51 0 01-2.5 6.4 8.137 8.137 0 01-6.1 2.4zm6.7 87.8h-13.3V72.3h13.3zm49.5-75.9c1.1 0 2.5.1 3.9.2a33.21 33.21 0 014.4.6c1.4.2 2.7.5 3.9.7l2.7.6-2.3 11.6a42.356 42.356 0 00-14.6-2.1 37.241 37.241 0 00-7.4.8c-2.4.5-4 .9-4.8 1.1v62.5h-13.3V75.4a96.509 96.509 0 0111.7-3.2 84.524 84.524 0 0115.8-1.5zm39.4 1.6h28.2v11.2h-28.2v34.3a35.493 35.493 0 00.9 9.2 13.47 13.47 0 002.6 5.7 8.492 8.492 0 004.3 2.9 20.288 20.288 0 006 .9 26.861 26.861 0 009.7-1.4c2.4-.9 4.1-1.5 5.1-1.9l2.6 11a58.309 58.309 0 01-7 2.5 36.865 36.865 0 01-11.4 1.5 35.158 35.158 0 01-12.5-1.9 18.325 18.325 0 01-7.9-5.8 22.578 22.578 0 01-4.2-9.5 57.587 57.587 0 01-1.2-13.1V51.5l13.3-2.3z"/><path d="M23.1 35.5l.1-.1-.1.1a10.584 10.584 0 00-3.2 4.3 10.584 10.584 0 013.2-4.3zm-3.7 6.1a6.356 6.356 0 01.6-1.8 6.356 6.356 0 00-.6 1.8zm38.9 133.1a5.701 5.701 0 01-1.3-.1c.5 0 .9.1 1.3.1z" class="cls-1"/><path d="M158.7 34.5L97.1 5l-.6-.3a4.95 4.95 0 00-1.3-.4 5.02 5.02 0 00-1.2-.2 12.102 12.102 0 00-1.9-.1 24.204 24.204 0 00-3.8.2c-.4.1-.8.1-1.3.2L25.4 34.1a9.172 9.172 0 00-2.1 1.3l-.1.1 31.9 64.2-24-49h40.5l16.2 29.9L82.2 91l-.2.1-16.4-30.4H47.7l28.2 59.8 4-7.6a5.032 5.032 0 118.9 4.7l-7.3 13.7-5.6 10.4 16.4 32.9 15.5-30.6a5.072 5.072 0 01-7 1.1 4.864 4.864 0 01-1.5-6.2l3.6-7.2a4.934 4.934 0 016.8-1.8 5.101 5.101 0 012.2 6.1l7.3-14.4a5.005 5.005 0 01-8.5-5.2l7.2-14.3a4.986 4.986 0 018.9 4.5l-1.8 3.5 9.2-18.2a4.989 4.989 0 01-8.6-5l7.1-14.3a4.986 4.986 0 118.9 4.5l-4 8.1L149 62.7a4.966 4.966 0 01-6.8 1.9 5.084 5.084 0 01-2.4-3.3h-6a5 5 0 010-10h20.9l-5 9.9L162 36.9a10.59 10.59 0 00-1.2-1 10.961 10.961 0 00-2.1-1.4zM106.1 87l-7.5 14.1a5.07 5.07 0 01-6.8 2.1 4.984 4.984 0 01-2.1-6.8l7.5-14.1a5.07 5.07 0 016.8-2.1 5.01 5.01 0 012.1 6.8zm15.4-29.2L114 72a5.032 5.032 0 01-8.9-4.7l8.8-16.8h3.2a4.645 4.645 0 012.3.6 4.896 4.896 0 012.1 6.7z" class="cls-2"/><path d="M23.3 35.4a23.924 23.924 0 012.1-1.3L87 4.4a5.02 5.02 0 011.2-.2 25.487 25.487 0 013.9-.2 12.102 12.102 0 011.9.1c.4.1.9.1 1.3.2a6.468 6.468 0 011.3.4l.6.3 61.6 29.5a10.961 10.961 0 012.1 1.4 10.59 10.59 0 011.2 1l1.9-3.7a18.955 18.955 0 00-3.3-2.2h-.2L98.9 1.4A14.584 14.584 0 0092.1 0a24.343 24.343 0 00-6 .5l-.4.1-.4.2-61.6 29.7a17.61 17.61 0 00-2.3 1.4l1.8 3.6zm161.2 72.2l-.1-.4-15.4-66v-.3a15.548 15.548 0 00-5.1-7.5l-1.9 3.7a12.567 12.567 0 012.7 3.8 5.638 5.638 0 01.4 1.2l15.3 66a22.6 22.6 0 01.1 2.6 18.104 18.104 0 01-.3 2.3c0 .2-.1.4-.1.6a14.042 14.042 0 01-2 4.3l-18.4 22.8-24.2 29.9a10.232 10.232 0 01-6.8 4 21.05 21.05 0 01-2.5.2H92.3l15.4 4h18.5a15.165 15.165 0 0012.5-5.8l42.6-52.7.1-.1.1-.1a17.93 17.93 0 003-12.5z" class="cls-3"/><path d="M58.3 174.7c-.4 0-.9-.1-1.3-.1a10.464 10.464 0 01-1.7-.4l-.9-.3c-.6-.2-1.2-.5-1.7-.7a15.762 15.762 0 01-2.4-1.5 17.414 17.414 0 01-1.4-1.2l-14.2-17.6-28.3-35.2a13.29 13.29 0 01-2.3-5.9 4.869 4.869 0 01-.1-1.2 11.404 11.404 0 01.2-2.6l15.2-66.4a6.356 6.356 0 01.6-1.8 11.296 11.296 0 013.2-4.3l-1.8-3.6a14.552 14.552 0 00-5.9 8.8L.3 107.1v.2A16.85 16.85 0 003.2 120l.1.1.1.1L45.9 173l.1.2.2.1a18.507 18.507 0 0011.9 5.4h34.2v-4z" class="cls-3"/><path d="M92.3 174.7v4h15.4l-15.4-4z" class="cls-3"/><path d="M75.8 142L55.1 99.8l-32-64.3a10.584 10.584 0 00-3.2 4.3l-.6 1.8L4.2 108a11.404 11.404 0 00-.2 2.6 6.15 6.15 0 00.1 1.3 14.285 14.285 0 002.3 5.9L34.8 153 49 170.4a17.408 17.408 0 001.4 1.2 9.736 9.736 0 002.4 1.5 12.199 12.199 0 001.7.7l.9.3a8.468 8.468 0 001.7.4 5.701 5.701 0 001.3.1h34l-16.3-32.9z" class="cls-4"/><path d="M4 110.6a11.404 11.404 0 01.2-2.6" class="cls-1"/><path d="M50.4 171.7a17.412 17.412 0 01-1.4-1.2 17.412 17.412 0 001.4 1.2z" class="cls-4"/><path d="M52.8 173.1a15.762 15.762 0 01-2.4-1.5m-1.4-1.2l-14.2-17.5m20.6 21.3l-.9-.3" class="cls-1"/><path d="M54.5 173.9c-.6-.2-1.2-.5-1.7-.7.5.2 1.1.5 1.7.7z" class="cls-4"/><path d="M149.1 62.5L137.7 85l-3.1 6.2a2.186 2.186 0 01-.3.5l-9.2 18.1-5.4 10.8c-.1.2-.3.5-.4.7l-7.3 14.5c0 .1 0 .1-.1.2l-3.6 7.2c-.1.2-.3.5-.4.7l-15.5 30.6h33.9a21.054 21.054 0 002.5-.2 10.464 10.464 0 006.8-4l24.2-29.9 18.4-22.8a13.036 13.036 0 002-4.3 1.268 1.268 0 00.1-.6 9.08 9.08 0 00.3-2.3 22.6 22.6 0 00-.1-2.6L165.2 42c-.1-.4-.3-.8-.4-1.2a12.568 12.568 0 00-2.7-3.8l-12.3 24.2z" class="cls-5"/><path d="M180.6 110.6a18.102 18.102 0 01-.3 2.3m-.2.6a11.764 11.764 0 01-.7 2m-50.7 59a10.464 10.464 0 006.8-4l24.2-29.9m20.9-32.6a22.602 22.602 0 01.1 2.6" class="cls-1"/><path d="M104 80.2a5.01 5.01 0 00-6.8 2.1l-7.5 14.1a5.032 5.032 0 108.9 4.7l7.5-14.1a5.098 5.098 0 00-2.1-6.8zm5.6 49.2a5.05 5.05 0 00-6.7 2.2l-3.6 7.2a5.004 5.004 0 008.5 5.2l4.1-8.1a4.977 4.977 0 00-2.3-6.5zm2.3 6.7c0-.1 0-.1.1-.2l-4.1 8.1a1.612 1.612 0 00.4-.7zm-30.4-4.7l7.3-13.7a5.032 5.032 0 10-8.9-4.7l-4 7.6-28.2-59.9h17.9L82 91.1l.2-.1 5.5-10.3-16.2-30H31l24 49 20.9 42z" class="cls-3"/><path d="M75.9 141.8l-20.8-42L75.8 142l.1-.2zm78.8-90.5h-20.9a5 5 0 000 10h6a5.032 5.032 0 006 3.8 5.084 5.084 0 003.3-2.4l.7-1.4z" class="cls-3"/><path d="M149.8 61.2l-.7 1.4.1-.1zM141.7 77a4.88 4.88 0 00-2.2-6.7 4.963 4.963 0 00-6.7 2.2v.1l-7.1 14.3a5 5 0 002.3 6.7 4.922 4.922 0 006.3-1.7l3.4-6.8z" class="cls-3"/><path d="M137.7 85.1l-3.4 6.8a2.186 2.186 0 01.3-.5zm-10.9 21.4a4.986 4.986 0 10-8.9-4.5l-7.1 14.3a5.004 5.004 0 008.5 5.2l5.8-11.5zm-1.7 3.5l-5.8 11.5a2.507 2.507 0 00.4-.7zm-5.7-58.9a4.645 4.645 0 00-2.3-.6H114l-8.8 16.8a5.034 5.034 0 008.3 5.7 3.128 3.128 0 00.5-1l7.5-14.1a4.984 4.984 0 00-2.1-6.8z" class="cls-3"/></g></g><path d="M4.1 111.9a14.285 14.285 0 002.3 5.9l28.4 35.1-28.4-35.2a13.37 13.37 0 01-2.3-5.8zm0 0a6.15 6.15 0 01-.1-1.3 6.15 6.15 0 00.1 1.3zM57 174.6a10.463 10.463 0 01-1.7-.4c.6.1 1.1.3 1.7.4zM94 4.1c.4.1.9.1 1.3.2-.4-.1-.9-.1-1.3-.2zm64.7 30.4a10.961 10.961 0 012.1 1.4 10.961 10.961 0 00-2.1-1.4zm21.6 78.4c0 .2-.1.4-.1.6a1.268 1.268 0 01.1-.6zM95.2 4.3a6.468 6.468 0 011.3.4c-.4-.1-.8-.3-1.3-.4zm63.5 30.2L97.1 5l-.6-.3.6.3zM94 4.1a12.102 12.102 0 00-1.9-.1 24.204 24.204 0 00-3.8.2 23.578 23.578 0 013.8-.2 12.102 12.102 0 011.9.1zm-7 .3L25.4 34.1a9.172 9.172 0 00-2.1 1.3 23.924 23.924 0 012.1-1.3zm5.3 170.3h-34a5.701 5.701 0 01-1.3-.1 5.702 5.702 0 001.3.1h67.9a21.054 21.054 0 002.5-.2 21.05 21.05 0 01-2.5.2zm88.3-66.7l-15.4-66c-.1-.4-.3-.8-.4-1.2a5.637 5.637 0 01.4 1.2zm-13.3 23.1l10.8-13.4a15.917 15.917 0 001.3-2.2 15.914 15.914 0 01-1.3 2.2z" class="cls-1"/><path d="M19.4 41.6L4.2 108l15.2-66.4a10.987 10.987 0 013.8-6.1l.1-.1a10.261 10.261 0 00-3.9 6.2z" class="cls-1"/><path d="M55.1 99.8l-24-49h40.5l16.2 29.9L82.2 91l-.2.1-16.4-30.4H47.7l28.2 59.8 4-7.6a5.032 5.032 0 118.9 4.7l-7.3 13.7-5.6 10.4 16.4 32.9 15.5-30.6a5.072 5.072 0 01-7 1.1 4.864 4.864 0 01-1.5-6.2l3.6-7.2a4.934 4.934 0 016.8-1.8 5.101 5.101 0 012.2 6.1l7.3-14.4a5.005 5.005 0 01-8.5-5.2l7.2-14.3a4.986 4.986 0 018.9 4.5l-1.8 3.5 9.2-18.2a4.989 4.989 0 01-8.6-5l7.1-14.3a4.986 4.986 0 118.9 4.5l-4 8.1L149 62.7a4.966 4.966 0 01-6.8 1.9 5.084 5.084 0 01-2.4-3.3h-6a5 5 0 010-10h20.9l-5 9.9L162 36.9a10.59 10.59 0 00-1.2-1c-.7-.5-1.4-1-2.1-1.4L97.1 5l-.6-.3a4.95 4.95 0 00-1.3-.4 5.02 5.02 0 00-1.2-.2 12.102 12.102 0 00-1.9-.1 24.204 24.204 0 00-3.8.2c-.4.1-.8.1-1.3.2L25.4 34.1a9.172 9.172 0 00-2.1 1.3l-.1.1zm50.1-32.5l8.8-16.8h3.2a4.645 4.645 0 012.3.6 5.07 5.07 0 012.1 6.8L114 72a4.989 4.989 0 11-8.8-4.7zM89.8 96.5l7.5-14.1a5.07 5.07 0 016.8-2.1 4.984 4.984 0 012.1 6.8l-7.5 14.1a5.07 5.07 0 01-6.8 2.1 5.01 5.01 0 01-2.1-6.8z" class="cls-2"/><path d="M15.4 40.7L.3 107.1v.2A16.85 16.85 0 003.2 120l.1.1.1.1L45.9 173l.1.2.2.1a18.507 18.507 0 0011.9 5.4h68.1a15.165 15.165 0 0012.5-5.8l42.6-52.7.1-.1.1-.1a17.38 17.38 0 003.1-12.5l-.1-.4L169.1 41v-.3a16.944 16.944 0 00-8.4-9.8h-.2L98.9 1.4A14.584 14.584 0 0092.1 0a24.343 24.343 0 00-6 .5l-.4.1-.4.2-61.6 29.7a15.007 15.007 0 00-8.3 10.2zm10.1-6.6L87 4.4a5.02 5.02 0 011.2-.2 25.487 25.487 0 013.9-.2 12.102 12.102 0 011.9.1c.4.1.9.1 1.3.2a6.468 6.468 0 011.3.4l.6.3 61.6 29.5a10.961 10.961 0 012.1 1.4 10.59 10.59 0 011.2 1 12.567 12.567 0 012.7 3.8 5.638 5.638 0 01.4 1.2l15.4 66.1a13.526 13.526 0 01-.3 4.9c0 .2-.1.4-.1.6a14.043 14.043 0 01-2 4.3l-10.8 13.4-31.8 39.3a10.232 10.232 0 01-6.8 4 21.05 21.05 0 01-2.5.2h-68c-.4 0-.9-.1-1.3-.1a10.464 10.464 0 01-1.7-.4 15.841 15.841 0 01-6.4-3.7l-14.2-17.6-28.3-35.2a13.29 13.29 0 01-2.3-5.9 4.869 4.869 0 01-.1-1.2 11.404 11.404 0 01.2-2.6l15.2-66.4a11.215 11.215 0 014-6.2 7.434 7.434 0 012.1-1.3z" class="cls-3"/><path d="M92.3 174.7l-16.4-32.9-.2.3-20.6-42.3-32-64.3a10.658 10.658 0 00-3.8 6.1L4.2 108a11.404 11.404 0 00-.2 2.6 6.15 6.15 0 00.1 1.3 14.285 14.285 0 002.3 5.9L34.8 153 49 170.4a15.03 15.03 0 006.3 3.7 8.468 8.468 0 001.7.4 5.701 5.701 0 001.3.1h34z" class="cls-4"/><path d="M149.1 62.5L137.7 85l-3.1 6.2a2.186 2.186 0 01-.3.5l-9.2 18.1-5.4 10.8c-.1.2-.3.5-.4.7l-7.3 14.5c0 .1 0 .1-.1.2l-3.6 7.2c-.1.2-.3.5-.4.7l-15.5 30.6h33.9a21.054 21.054 0 002.5-.2 10.464 10.464 0 006.8-4l31.8-39.3 10.8-13.4a13.035 13.035 0 002-4.3 1.268 1.268 0 00.1-.6 13.39 13.39 0 00.3-4.9l-15.3-66c-.1-.4-.3-.8-.4-1.2a12.568 12.568 0 00-2.7-3.8L149.9 61z" class="cls-5"/><path d="M91.8 103.2a5.01 5.01 0 006.8-2.1l7.5-14.1a5.032 5.032 0 00-8.9-4.7l-7.5 14.1a5.161 5.161 0 002.1 6.8zm20.1 32.9c0-.1 0-.1.1-.2a4.88 4.88 0 00-2.9-6.4 4.986 4.986 0 00-6.1 2.2l-3.6 7.2a5 5 0 002.3 6.7 5.08 5.08 0 006.7-2.2zm-36 5.7l5.6-10.4 7.3-13.7a5.032 5.032 0 10-8.9-4.7l-4 7.6-28.2-59.9h17.9L82 91.1l.2-.1 5.5-10.3-16.2-30H31l24 49L75.8 142zm73.9-80.6l5-9.9h-20.9a5 5 0 000 10h6a5.032 5.032 0 006 3.8 5.084 5.084 0 003.3-2.4l.1-.1zm-12.1 23.9l4-8.1a4.88 4.88 0 00-2.2-6.7 4.963 4.963 0 00-6.7 2.2v.1l-7.1 14.3a5 5 0 002.3 6.7 5.08 5.08 0 006.7-2.2zM125.1 110l1.8-3.5a4.986 4.986 0 10-8.9-4.5l-7.1 14.3a5 5 0 002.3 6.7 5.08 5.08 0 006.7-2.2zm-17.8-35.9A4.896 4.896 0 00114 72l7.5-14.1a5.01 5.01 0 00-2.1-6.8 4.645 4.645 0 00-2.3-.6H114l-8.8 16.8a5.19 5.19 0 002.1 6.8z" class="cls-3"/></svg>