<svg xmlns="http://www.w3.org/2000/svg" role="img" viewBox="14.90 -7.60 688.70 733.20"><title>tekton-icon-white</title><path fill="#fff" fill-rule="evenodd" d="M297.48578 319.77739v6.908m182.3884 217.19737l6.01085-1.61484.7177 4.66513c3.40912 21.44165 1.884 40.01239-6.81824 58.94206 13.45709 1.884 25.20959 8.34338 31.39987 22.0696 4.396 9.68909 8.61252 20.99307 8.70226 31.75874 0 7.98456-2.512 15.96907-8.79195 21.17247a20.85922 20.85922 0 0 1-13.188 4.75482h-70.246c-4.03713 11.0348-12.02169 21.17246-23.6845 24.22276a54.19875 54.19875 0 0 1-9.95822 1.34571c-3.58856.17944-7.08742.26913-10.58623.26913-9.06109.08969-18.12222 0-27.18331 0q-21.26219-.26916-42.52439-.80745a22.65777 22.65777 0 0 1-20.00619-13.00852 22.58017 22.58017 0 0 1-19.9165 13.00852c-14.26451.35888-28.43932.628-42.61411.80745-9.06111.08969-18.12222.17944-27.1833 0-3.49884 0-6.99768-.08969-10.58623-.26913a47.50134 47.50134 0 0 1-10.048-1.34571c-11.66281-3.0503-19.55763-13.27765-23.68447-24.22276h-69.618a20.85954 20.85954 0 0 1-13.18795-4.75482c-6.28-5.2034-8.792-13.188-8.792-21.17247 0-10.76567 4.30627-22.0696 8.61254-31.75874a36.13827 36.13827 0 0 1 10.4069-13.45711 42.39123 42.39123 0 0 1 20.365-8.61251c-8.70224-18.92962-10.22738-37.50041-6.81826-58.94206l.71771-4.66513 6.72855 1.79428a95.20082 95.20082 0 0 1 3.2297-12.02169 78.07568 78.07568 0 0 1 24.85077-36.1547 64.90455 64.90455 0 0 1 13.54681-8.34338 239.91837 239.91837 0 0 1 5.1137-38.21813 174.14735 174.14735 0 0 1 14.89252-49.16322 68.053 68.053 0 0 1-9.15083-14.44394c-.35885-.80742-.71771-1.61484-.98686-2.42229a209.47848 209.47848 0 0 1-59.48033-50.41923c-9.86853-12.11138-24.31248-30.9513-25.56847-46.83067-.628-5.56228-.80742-11.12452-.89714-16.59708a296.92619 296.92619 0 0 1 2.15313-39.92269c.89714-7.7154 2.15313-15.43079 3.67828-23.05647a214.15469 214.15469 0 0 1-26.645-38.39756A194.37 194.37 0 0 1 30.587 98.54285a189.92957 189.92957 0 0 1 5.47255-72.13A27.18638 27.18638 0 0 1 62.2559 6.49639c45.93352 0 85.58708 18.75021 122.45951 42.973a216.02294 216.02294 0 0 1 225.72024 0c36.78265-24.22276 76.43621-42.973 122.36974-42.973a26.90132 26.90132 0 0 1 26.10673 20.00621 191.98621 191.98621 0 0 1 5.38284 72.13 194.3704 194.3704 0 0 1-22.249 69.52828 213.69252 213.69252 0 0 1-26.5553 38.39756c1.4354 7.26683 2.60172 14.53365 3.58856 21.97991a293.13977 293.13977 0 0 1 2.24284 40.64039c-.08969 5.652-.26913 11.304-.89714 16.77652-1.4354 16.32794-15.4308 34.62957-25.56846 47.01008a210.939 210.939 0 0 1-59.48031 50.41923q-.53832 1.21113-1.07658 2.42229a124.21963 124.21963 0 0 1-6.36967 11.75253 55.53839 55.53839 0 0 1-7.35655 9.5994 140.82 140.82 0 0 1 5.024 13.36736 183.2288 183.2288 0 0 1 6.908 29.51588c1.07658 5.1137 2.06341 10.3171 2.78111 15.4308 20.36507-34.09129 47.45868-64.86315 81.55-83.79279 20.00619-11.12452 42.7038-18.21191 65.76029-17.58393 24.49188.628 48.5352 12.02166 67.106 27.63187 20.36507 17.13537 36.96215 41.62725 39.74326 68.63115a39.07919 39.07919 0 0 1-.89714 13.27764c-3.49887 14.44392-14.62336 25.74791-27.81132 31.93814-16.8662 7.89481-37.949 7.62568-52.12376-5.74172-7.98456-7.62568-10.49654-15.96906-14.53366-25.7479-2.42229-5.74171-4.93427-10.13766-10.048-13.99538a35.138 35.138 0 0 0-23.6845-7.08739c-12.11138.80742-22.87705 7.7154-31.39987 15.96907a162.57529 162.57529 0 0 0-13.45709 14.89248 253.30269 253.30269 0 0 0-21.80047 31.57931 203.90217 203.90217 0 0 0-13.27764 26.10673 11.68547 11.68547 0 0 1-.7177 1.52515 3.32788 3.32788 0 0 0 .17943.8075zm18.5708-76.43627a7.68926 7.68926 0 0 1 3.22967.628c4.12682-4.84454 8.43313-9.5994 12.91883-13.99537 1.4354-1.34571 2.87086-2.69142 4.21657-3.85769a43.42451 43.42451 0 0 1-13.45709-14.8028 47.29255 47.29255 0 0 1-5.83141-16.32794 209.51769 209.51769 0 0 0-25.29933 26.37588c-.44857 6.19026 5.652 13.36737 9.86853 16.6868 3.94738 3.14 9.15077 5.56224 14.35423 5.29311zm-6.36973 12.82908a38.15841 38.15841 0 0 1-16.1485-7.536 43.88664 43.88664 0 0 1-11.7525-13.99538 291.1036 291.1036 0 0 0-21.53134 35.97529 61.62551 61.62551 0 0 1 6.54911 4.57539 69.17285 69.17285 0 0 1 17.94278 21.53133 279.83605 279.83605 0 0 1 24.94045-40.55065zm109.63042-34.809a5.23483 5.23483 0 0 1-.53826 2.33257c13.63652 13.36737 13.00851 28.97761 21.53134 37.05186 14.98223 14.26454 48.26607-1.79427 46.20266-22.33876-1.884-17.85306-12.20107-35.61643-26.55529-49.61178-.0897-.08972-.17944-.17944-.26914-.17944a10.7816 10.7816 0 0 0-7.62568-2.87085c-18.12227-.80742-32.11762 18.21191-32.74563 35.6164zm-12.73939-6.5491a53.81652 53.81652 0 0 1 3.85769-13.09824c5.8314-13.27765 16.77651-24.133 30.14385-27.99075-12.91882-7.89481-27.1833-12.73939-40.90952-13.09824a76.40247 76.40247 0 0 0-11.93194.53829c-1.256.89714-2.42229 1.79428-3.05029 2.33257a21.44947 21.44947 0 0 0-2.06341 1.97372c-9.06109 10.22738-7.98456 29.96444-.17944 40.5507a7.38223 7.38223 0 0 1 1.07658 2.24284 55.7575 55.7575 0 0 1 23.05648 6.54911zm-37.949-5.47256a51.29108 51.29108 0 0 1-5.83141-22.96676 48.481 48.481 0 0 1 3.94744-20.72392 129.97162 129.97162 0 0 0-22.249 9.86853c-4.21657 2.33257-8.43313 5.024-12.64964 7.89481 0 .08972-.08969.08972-.08969.17944-3.85769 5.652-.17944 15.69994 2.87085 20.993 2.78111 4.75483 7.08742 9.68909 12.11138 11.84225a4.8833 4.8833 0 0 1 1.61484.98686 66.06409 66.06409 0 0 1 20.27527-8.07426zM277.83844 64.72073a6.36969 6.36969 0 1 1-6.36969 6.36968 6.28135 6.28135 0 0 1 6.36969-6.36968zm0 28.08045a6.36969 6.36969 0 1 1-6.36969 6.36968 6.39422 6.39422 0 0 1 6.36969-6.36968zm39.3844-28.08045a6.36969 6.36969 0 1 1-6.36969 6.36968 6.39423 6.39423 0 0 1 6.36969-6.36968zm0 28.08045a6.36969 6.36969 0 1 1-6.36969 6.36968 6.39423 6.39423 0 0 1 6.36969-6.36968zm-14.35422-48.9838v76.16712c40.73011.89713 80.74255 12.20109 105.32413 33.82214 28.34957 25.03017 47.27924 68.362 45.21583 91.14933-1.79428 20.45476-34.45016 34.27072-77.96141 41.44784a39.576 39.576 0 0 1 4.48569 12.55994 57.15884 57.15884 0 0 1-.08969 18.75021c16.41764-1.884 31.22043-4.396 44.40839-7.17712a434.35363 434.35363 0 0 0 68.63114-20.6342 24.58491 24.58491 0 0 0 1.52515-6.28s9.42-85.76651-39.205-156.01249c-37.59015-54.27692-94.73793-82.178-152.33424-83.7928zm-10.67595 76.16712V43.81738c-58.58318 1.70457-116.62809 30.50273-153.94909 86.30478-46.65123 69.79742-37.50041 153.59023-37.50041 153.59023a27.51116 27.51116 0 0 0 1.79427 6.45941 440.2272 440.2272 0 0 0 68.27228 20.45476c13.27765 2.78114 27.99076 5.29312 44.49811 7.17712a57.15637 57.15637 0 0 1-.08972-18.75021 39.57618 39.57618 0 0 1 4.4857-12.56c-43.51125-7.17711-76.16711-21.08276-77.96139-41.44783-2.06341-22.78733 16.86621-66.11916 45.21581-91.14935 24.49191-21.71075 64.50432-33.01471 105.23444-33.91184zm-73.386 208.9437a481.49042 481.49042 0 0 1-50.15008-7.89482 440.16787 440.16787 0 0 1-58.67289-16.77651 152.25753 152.25753 0 0 0 9.59938 13.09824c23.59477 28.88789 53.29008 48.53523 88.90649 60.826a278.37451 278.37451 0 0 0 34.71929 9.33024c0-.08972-.08972-.26913-.08972-.35885a19.20491 19.20491 0 0 1-.98686-9.77881c1.43543-8.25369 7.62569-13.45709 15.61022-16.77651-15.07193-5.11371-28.61873-13.63653-36.51358-27.18331a24.6258 24.6258 0 0 1-2.42225-4.48569zm38.2181 52.9312c1.70456 4.396 7.35655 7.80513 14.44395 10.13767 8.61254.98685 17.31477 1.79427 26.017 2.33256 8.792-.53829 17.58393-1.256 26.19648-2.33256 6.63882-2.15313 12.02165-5.2034 14.08509-9.24053 8.97136-17.40449-86.84308-16.95592-80.74255-.89714zm227.96309-77.51281a446.4702 446.4702 0 0 1-58.49348 16.68679 485.35186 485.35186 0 0 1-50.1501 7.89482c-.7177 1.52514-1.4354 2.96054-2.24285 4.396-7.89482 13.45709-21.3519 22.06963-36.42386 27.18331 7.80513 3.31942 13.81594 8.4331 15.34109 16.41763a18.98881 18.98881 0 0 1-.98686 10.49654c28.97761-5.8314 56.25061-15.61021 80.47336-31.39987 17.49422-11.39368 31.75875-26.28617 45.12609-42.345 2.60173-2.96052 5.024-6.19022 7.35661-9.33021zm-191.3598 27.901c-4.03712 7.08739-12.38051 17.67365-29.96444 14.0851-21.62106-6.99768-37.14155-21.53134-33.28387-44.76724 3.49884-20.993 38.39755-34.09129 67.01628-33.82216h.26916c28.61873-.26913 63.51747 12.82908 66.92659 33.82216 3.31942 20.09591-7.80513 33.73244-24.94046 41.53753-25.389 9.42-34.27073-2.87086-38.21813-10.67595-1.884-3.768-2.69142-5.74169-3.67828-5.8314h-.26913c-.80745.35885-1.79431 2.15312-3.85772 5.652zm3.85769-54.72549c-17.31477 0-38.30785 5.024-40.37126 15.78966-3.40912 17.85306 23.05649 26.4656 40.37126 26.4656h.35885c17.31478-.08972 43.51125-8.70226 40.10213-26.4656-2.06341-10.76567-23.05648-15.78966-40.37126-15.78966zm-48.26607-34.98842a6.45942 6.45942 0 0 1-12.91883 0 28.94359 28.94359 0 0 0-6.81826-19.01935 20.77118 20.77118 0 0 0-15.5205-7.44626 19.4789 19.4789 0 0 0-11.12452 3.49884 24.702 24.702 0 0 0-8.4331 10.13767 6.40088 6.40088 0 0 1-11.57309-5.47255 39.0656 39.0656 0 0 1 12.82911-15.34103 32.36034 32.36034 0 0 1 18.39135-5.74169 33.08621 33.08621 0 0 1 25.1199 11.84223 42.30551 42.30551 0 0 1 10.048 27.54219zm96.62187 0a6.45941 6.45941 0 0 0 12.91882 0 28.94384 28.94384 0 0 1 6.81824-19.01935 20.62588 20.62588 0 0 1 15.52049-7.44626 19.479 19.479 0 0 1 11.12455 3.49884 24.7022 24.7022 0 0 1 8.43313 10.13767 6.44174 6.44174 0 0 0 11.66281-5.47255 39.06569 39.06569 0 0 0-12.82905-15.34103 32.36037 32.36037 0 0 0-18.39135-5.74169 33.08617 33.08617 0 0 0-25.1199 11.84223 41.90384 41.90384 0 0 0-10.13771 27.54219zm5.20345 171.71245a175.60646 175.60646 0 0 1-42.345 7.98454 178.65522 178.65522 0 0 1-95.36588-21.08277c-5.652-1.61484-11.12452-3.49884-16.59707-5.47256a109.98419 109.98419 0 0 0 53.55921 38.75642c-21.80047-3.67827-43.87009-10.40682-60.91574-22.249C178.34574 436.04663 171.6172 469.24075 177 514.54628q1.884 15.47565 4.84455 29.33646c28.70845-13.00852 48.80436-7.80512 73.74482 8.792 2.87086-39.38443 11.12452-68.99 15.07193-81.1014 1.70456-5.1137 3.9474-7.62568 6.99767-7.89481 3.22971-.26913 8.70226-.08972 8.52282 9.42-.98686 3.85769-1.79428 8.43313-2.42228 11.7525-1.70456 8.792-3.05027 17.76334-4.396 26.645-1.256 8.792-2.512 17.58391-3.58856 26.46561-.7177 5.652-1.43543 11.48337-1.884 17.22508-.17944 3.22968-.35885 6.45941-.44857 9.68909a162.1696 162.1696 0 0 0 40.64039-.26913c-.08972-3.14-.26913-6.36967-.44857-9.50965-.98686-14.17479-3.14-29.06733-5.2034-43.15237-1.256-8.43313-2.6017-16.956-4.21656-25.29934-.98686-4.75482-2.06341-10.76567-3.768-15.34106.26913-9.42 12.56-11.48337 15.96907-1.07657 3.768 11.30393 12.73938 41.89641 15.61021 83.43394 22.5182-12.91883 52.30323-22.51817 73.83457-10.49654 1.884-9.06109 3.40912-18.57079 4.66514-28.61876 5.024-41.89641-.35888-73.47569-9.95823-96.80131-17.22508 10.13766-39.11524 15.5205-60.198 18.21191a109.92539 109.92539 0 0 0 58.22433-40.28154c-5.47253 1.97372-11.0348 3.85769-16.59708 5.47256a168.98746 168.98746 0 0 1-30.95125 13.09818zM100.56374 38.7934c22.69762 6.10055 44.04954 17.13536 64.32486 29.96445a210.95077 210.95077 0 0 0-23.2359 21.71077c-3.85769-6.36968-8.07425-12.55994-12.47023-18.66049a220.17232 220.17232 0 0 0-28.61873-33.01473zm-37.76955-5.29312h2.15313c25.47875 13.99537 48.26609 42.43468 65.0426 70.69457-3.40913 4.396-6.72854 8.97139-9.95825 13.63651a235.58737 235.58737 0 0 0-28.61873 60.10833C70.86846 150.3078 44.7617 99.52973 62.07649 34.03858c.26913-.08973.44856-.35887.7177-.5383zm469.47289 0h-2.15316c-25.47877 13.99537-48.26607 42.43468-65.04259 70.69457 2.78111 3.49884 5.47253 7.17711 7.98456 10.94509a234.56672 234.56672 0 0 1 30.50274 62.88945c20.5445-27.63188 46.65123-78.41 29.33646-143.90111l-.628-.628zm-37.76954 5.29312c-22.69761 6.10055-44.13925 17.13536-64.32489 29.96445a211.87485 211.87485 0 0 1 23.23593 21.80048c3.94743-6.36969 8.07425-12.64966 12.47026-18.75021a220.17081 220.17081 0 0 1 28.6187-33.01472zm-308.16729 524.647a318.167 318.167 0 0 0 25.92731 67.106c1.52515 2.87085 2.6017 3.67825 5.47256 5.38283 8.88167 5.38284 21.3519 11.21424 23.50505 33.37359-10.13766-12.91883-19.82678-22.15935-34.71929-25.389-7.26683-.08969-15.5205 1.34571-21.26221 7.26681-12.29082 12.73938-3.40912 34.71929 4.03713 36.693s83.88251 0 83.88251 0 3.14-14.26453-2.78114-22.15935c-5.83141-7.98456-14.89252-48.62495-15.5205-91.86707-17.94278-15.69988-45.66437-26.28616-68.54142-10.40679zm214.68538 0a324.01176 324.01176 0 0 1-25.83759 67.106c-1.61484 2.87085-2.69142 3.67825-5.47253 5.38283-8.8817 5.38284-21.3519 11.21424-23.50506 33.37359 10.13766-12.91883 19.82676-22.15935 34.7193-25.389 7.2668-.08969 15.61024 1.34571 21.26221 7.26681 12.29081 12.73938 3.40911 34.71929-4.03713 36.693s-83.88251 0-83.88251 0-3.14-14.26453 2.78114-22.15935c5.8314-7.98456 14.98223-48.62495 15.61021-91.86707 17.76332-15.69988 45.48491-26.28616 68.362-10.40679zM300.62577 659.524c-2.24285 0-4.57542.08969-6.908.08969h-5.47256a49.1872 49.1872 0 0 0-2.78114-4.66514 54.15635 54.15635 0 0 1-2.87085-8.07425 212.85024 212.85024 0 0 1-5.2034-23.32562 300.085 300.085 0 0 1-4.12684-44.04951 143.78713 143.78713 0 0 0 42.07582-.35887 286.45732 286.45732 0 0 1-5.29312 51.04723c-1.16627 5.9211-4.12684 20.27533-7.17711 25.56847a41.59164 41.59164 0 0 0-2.24282 3.768zm167.04729-92.49508c.628 41.35809-25.47877 57.686-40.73014 69.88716 69.43859-31.57931 77.4231 22.15935 70.246 28.08044h-71.86084a38.8733 38.8733 0 0 0-29.87472-36.60326 275.23015 275.23015 0 0 0 13.99535-35.70613c20.27537-10.85542 44.13931-21.97991 58.22435-25.65821zm-37.949-60.73633c17.40453 8.07425 28.34958 26.4656 30.77187 47.0998-14.0851 4.12682-29.5159 11.48337-42.52442 17.94278a391.86934 391.86934 0 0 0 10.676-54.63579c.44857-3.31937.80744-6.81824 1.07657-10.40679zm-272.10229.35887c-17.13536 8.2537-27.81131 26.5553-30.14388 47.01012 13.90566 4.21656 28.97759 11.39367 41.80669 17.76334a391.87361 391.87361 0 0 1-10.67595-54.63579c-.35885-3.31943-.71772-6.72855-.98686-10.13767zm-38.03867 60.37746c-.628 41.35809 25.47875 57.686 40.81983 69.88716-69.52828-31.57931-77.42311 22.15935-70.3357 28.08044h70.60486a40.68675 40.68675 0 0 1 11.12452-26.645 41.42221 41.42221 0 0 1 18.21191-10.85536c-1.43542-2.96055-2.78113-5.9211-4.12684-8.97139q-5.78653-13.32255-10.49654-27.18331c-19.64734-10.3171-42.16554-20.72395-55.802-24.3125z"/></svg>
