<svg xmlns="http://www.w3.org/2000/svg" role="img" viewBox="-1.61 6.39 811.72 545.72"><defs><radialGradient id="a" cx="530.656" cy="3.516" r="127.064" gradientTransform="scale(1 -1) rotate(65.374 662.237 -222.484)" gradientUnits="userSpaceOnUse"><stop offset="0"/><stop offset="0" stop-color="#000505"/><stop offset="0" stop-color="#011214"/><stop offset="0" stop-color="#03282c"/><stop offset="0" stop-color="#05474f"/><stop offset="0" stop-color="#076f7b"/><stop offset="0" stop-color="#0aa0b0"/><stop offset="0" stop-color="#0ed8ee"/><stop offset=".143" stop-color="#0ed3ee"/><stop offset=".324" stop-color="#0dc3ed"/><stop offset=".526" stop-color="#0da9eb"/><stop offset=".742" stop-color="#0c85e9"/><stop offset=".967" stop-color="#0a57e6"/><stop offset="1" stop-color="#0a50e6"/></radialGradient><radialGradient id="b" cx="404.925" cy="313.225" r="216.214" gradientTransform="matrix(1 0 0 -1 0 550)" gradientUnits="userSpaceOnUse"><stop offset="0" stop-color="#0ed8ee"/><stop offset=".238" stop-color="#0ed5ee"/><stop offset=".407" stop-color="#0ecced"/><stop offset=".553" stop-color="#0dbcec"/><stop offset=".688" stop-color="#0da6eb"/><stop offset=".814" stop-color="#0c8ae9"/><stop offset=".932" stop-color="#0b67e7"/><stop offset="1" stop-color="#0a50e6"/></radialGradient></defs><path fill="#0a50e6" d="M57.235 482.125a3.484 3.484 0 01.776 2.366v48.96a3.373 3.373 0 01-.814 2.366 2.947 2.947 0 01-2.29.892 3.233 3.233 0 01-2.56-1.319l-32.2-43.062v41.122a3.372 3.372 0 01-.814 2.367 2.85 2.85 0 01-2.211.892 2.728 2.728 0 01-2.173-.892 3.476 3.476 0 01-.776-2.367v-48.959a3.375 3.375 0 01.815-2.366 2.945 2.945 0 012.289-.893 3.308 3.308 0 012.638 1.32l32.122 43.062v-41.123a3.377 3.377 0 01.814-2.366 2.85 2.85 0 012.212-.893 2.73 2.73 0 012.172.893zm44.847 46.127a2.588 2.588 0 01.62 1.784q0 1.94-2.715 3.57a23.508 23.508 0 01-5.897 2.444 23.803 23.803 0 01-6.052.814q-8.769 0-13.85-5.198-5.082-5.198-5.081-14.354a22.523 22.523 0 012.25-10.28 16.796 16.796 0 016.323-6.945 17.462 17.462 0 019.272-2.483q7.37 0 11.716 4.81 4.345 4.812 4.345 13.035a3.343 3.343 0 01-.62 2.25 2.578 2.578 0 01-2.018.699H75.391q.699 13.346 12.647 13.345a14.823 14.823 0 005.199-.814 33.91 33.91 0 004.655-2.212 7.377 7.377 0 012.716-1.164 1.912 1.912 0 011.474.699zm-23.005-22.656q-2.988 3.104-3.53 8.767h21.957q-.156-5.74-2.87-8.806a9.63 9.63 0 00-7.604-3.065 10.53 10.53 0 00-7.953 3.104zm53.886 28.63a2.233 2.233 0 01-.97 1.979 4.554 4.554 0 01-2.91.504l-2.094-.155q-6.209-.466-9.156-3.724-2.95-3.259-2.949-9.854V503.5h-5.198a2.972 2.972 0 01-2.056-.66 2.223 2.223 0 01-.737-1.745 2.442 2.442 0 01.737-1.863 2.869 2.869 0 012.056-.698h5.198v-8.768a3.012 3.012 0 01.854-2.288 3.23 3.23 0 012.328-.815 3.124 3.124 0 012.25.815 3.017 3.017 0 01.853 2.288v8.768h8.613a2.76 2.76 0 011.978.698 2.445 2.445 0 01.737 1.862 2.227 2.227 0 01-.737 1.746 2.858 2.858 0 01-1.978.66h-8.613v19.785q0 4.268 1.746 6.169a7.478 7.478 0 005.237 2.133l2.095.155q2.715.233 2.716 2.483zm61.683-36.312a3.191 3.191 0 012.095.776 2.424 2.424 0 01.931 1.94 3.319 3.319 0 01-.233 1.164l-12.88 32.587a3.713 3.713 0 01-1.357 1.591 3.549 3.549 0 01-1.979.582 3.418 3.418 0 01-1.9-.582 3.705 3.705 0 01-1.359-1.59l-10.707-27.235-10.63 27.234a3.18 3.18 0 01-1.319 1.591 3.691 3.691 0 01-5.354-1.59l-12.88-32.51a3.165 3.165 0 01-.232-1.087 2.61 2.61 0 011.047-2.095 3.55 3.55 0 012.29-.853 2.695 2.695 0 012.637 1.862l10.63 28.63 10.94-28.397a3.648 3.648 0 011.28-1.552 3.096 3.096 0 011.746-.543 3.221 3.221 0 011.824.543 3.179 3.179 0 011.202 1.552l10.94 28.32 10.708-28.476a2.645 2.645 0 012.56-1.862zm17.651 36.545a16.021 16.021 0 01-6.284-6.867 25.366 25.366 0 010-20.716 16.034 16.034 0 016.284-6.867 18.198 18.198 0 019.428-2.405 18.41 18.41 0 019.466 2.405 15.963 15.963 0 016.323 6.867 25.366 25.366 0 010 20.716 15.95 15.95 0 01-6.323 6.867 18.4 18.4 0 01-9.466 2.405 18.188 18.188 0 01-9.428-2.405zm18.001-6.479q2.986-3.684 2.987-10.746 0-6.905-3.026-10.668a11.56 11.56 0 00-16.332-.738q-.385.352-.737.738-3.026 3.764-3.026 10.668 0 6.983 2.987 10.707 2.986 3.725 8.574 3.725 5.586 0 8.573-3.686zm41.549-27.583a2.758 2.758 0 01-.698 1.979 3.708 3.708 0 01-2.405.892l-2.328.233q-5.2.465-7.72 3.685a11.908 11.908 0 00-2.522 7.565v18.855a2.988 2.988 0 01-.853 2.327 3.22 3.22 0 01-2.25.776 3.263 3.263 0 01-2.29-.815 2.942 2.942 0 01-.892-2.288v-32.743a2.881 2.881 0 01.931-2.29 3.297 3.297 0 012.25-.814 2.859 2.859 0 012.952 2.763q.005.131-.003.263v4.345a11.783 11.783 0 014.616-5.198 15.625 15.625 0 016.867-2.095l1.087-.078q3.258-.233 3.258 2.638zm37.631 33.441a2.822 2.822 0 01-.815 2.017 2.634 2.634 0 01-1.979.854 3.278 3.278 0 01-2.095-.931l-20.25-17.458v15.286a2.946 2.946 0 01-.893 2.288 3.16 3.16 0 01-2.211.815 3.263 3.263 0 01-2.289-.815 2.942 2.942 0 01-.892-2.288v-49.27a2.944 2.944 0 01.892-2.289 3.263 3.263 0 012.289-.815 3.16 3.16 0 012.211.815 2.947 2.947 0 01.892 2.289v31.502l18.544-16.993a2.856 2.856 0 014.966 1.94 3.093 3.093 0 01-1.086 2.328l-15.285 13.655 16.76 14.587a3.4 3.4 0 011.24 2.483zm36.956 1.31a22.745 22.745 0 01-8.496-4.694 3.56 3.56 0 01-1.164-2.716 3.047 3.047 0 01.62-1.9 1.815 1.815 0 011.475-.816 3.756 3.756 0 012.173.854 26.15 26.15 0 0016.449 5.586q6.672 0 10.242-2.56a8.441 8.441 0 003.568-7.294 5.86 5.86 0 00-1.706-4.383 12.338 12.338 0 00-4.5-2.677 68.027 68.027 0 00-7.527-2.095 73.232 73.232 0 01-10.436-3.104 16.247 16.247 0 01-6.595-4.655 11.952 11.952 0 01-2.521-7.914 14.067 14.067 0 012.521-8.263 16.321 16.321 0 017.061-5.587 25.687 25.687 0 0110.358-1.979 30.043 30.043 0 0110.126 1.669 21.34 21.34 0 017.875 4.771 3.787 3.787 0 011.242 2.716 3.05 3.05 0 01-.621 1.901 1.817 1.817 0 01-1.475.815 4.717 4.717 0 01-2.25-.854 26.415 26.415 0 00-7.06-4.345 22.068 22.068 0 00-7.837-1.241q-6.441 0-10.009 2.677a8.822 8.822 0 00-3.569 7.487 6.878 6.878 0 003.143 6.168 31.673 31.673 0 009.66 3.609q7.059 1.707 11.095 3.142a16.635 16.635 0 016.711 4.306 10.814 10.814 0 012.677 7.681 13.428 13.428 0 01-2.521 8.07 16.383 16.383 0 01-7.1 5.431 26.64 26.64 0 01-10.475 1.94 35.448 35.448 0 01-11.134-1.746zm72.119-6.944a2.588 2.588 0 01.62 1.784q0 1.94-2.715 3.57a23.508 23.508 0 01-5.897 2.444 23.804 23.804 0 01-6.052.814q-8.769 0-13.85-5.198-5.082-5.198-5.081-14.354a22.523 22.523 0 012.25-10.28 16.797 16.797 0 016.323-6.945 17.462 17.462 0 019.272-2.483q7.37 0 11.716 4.81 4.345 4.812 4.345 13.035a3.343 3.343 0 01-.62 2.25 2.578 2.578 0 01-2.018.699h-24.984q.699 13.346 12.647 13.345a14.824 14.824 0 005.199-.814 33.914 33.914 0 004.655-2.212 7.378 7.378 0 012.716-1.164 1.912 1.912 0 011.474.699zm-23.005-22.656q-2.988 3.104-3.53 8.767h21.957q-.156-5.741-2.87-8.806a9.63 9.63 0 00-7.604-3.065 10.53 10.53 0 00-7.953 3.104zm55.902-5.199a2.758 2.758 0 01-.698 1.979 3.708 3.708 0 01-2.405.892l-2.328.232q-5.2.466-7.72 3.686a11.908 11.908 0 00-2.522 7.565v18.855a2.988 2.988 0 01-.853 2.327 3.22 3.22 0 01-2.25.776 3.263 3.263 0 01-2.29-.815 2.942 2.942 0 01-.892-2.289v-32.742a2.881 2.881 0 01.932-2.29 3.297 3.297 0 012.25-.814 2.859 2.859 0 012.952 2.763q.004.131-.004.263v4.345a11.783 11.783 0 014.616-5.198 15.624 15.624 0 016.867-2.095l1.087-.078q3.258-.233 3.258 2.638zm38.484-2.56a3.191 3.191 0 012.095.775 2.425 2.425 0 01.931 1.94 2.461 2.461 0 01-.31 1.242l-15.13 32.587a3.625 3.625 0 01-1.397 1.591 3.738 3.738 0 01-2.017.582 3.609 3.609 0 01-1.94-.582 4.152 4.152 0 01-1.474-1.59l-15.052-32.588a2.298 2.298 0 01-.31-1.164 2.54 2.54 0 011.047-2.018 3.55 3.55 0 012.289-.853 2.804 2.804 0 011.513.466 2.976 2.976 0 011.125 1.319l12.957 29.096 12.957-28.941a2.835 2.835 0 012.716-1.862zm10.862-9.311a3.741 3.741 0 01-1.164-2.871 3.652 3.652 0 011.164-2.793 4.759 4.759 0 016.052 0 3.652 3.652 0 011.164 2.793 3.741 3.741 0 01-1.164 2.87 4.759 4.759 0 01-6.052 0zm.737 47.368a2.942 2.942 0 01-.892-2.289v-32.742a2.944 2.944 0 01.892-2.29 3.262 3.262 0 012.289-.814 3.124 3.124 0 012.25.815 3.016 3.016 0 01.854 2.289v32.743a2.988 2.988 0 01-.854 2.327 3.22 3.22 0 01-2.25.776 3.263 3.263 0 01-2.289-.815zm24.131-1.436a16.07 16.07 0 01-6.285-6.827 24.613 24.613 0 01.077-20.561 16.912 16.912 0 016.401-6.984 17.959 17.959 0 019.467-2.482 21.628 21.628 0 015.857.814 16.17 16.17 0 015.083 2.367 6.905 6.905 0 011.978 1.823 3.547 3.547 0 01.582 1.979 2.692 2.692 0 01-.582 1.785 1.877 1.877 0 01-1.513.698 2.61 2.61 0 01-1.164-.31 7.255 7.255 0 01-1.047-.621 5.585 5.585 0 00-.582-.388 25.072 25.072 0 00-3.84-2.095 11.416 11.416 0 00-4.462-.776 10.742 10.742 0 00-8.807 3.84q-3.142 3.841-3.142 10.67 0 6.828 3.142 10.551 3.143 3.725 8.807 3.725a11.984 11.984 0 004.539-.776 20.845 20.845 0 003.84-2.095 18.547 18.547 0 011.63-.931 3.084 3.084 0 011.319-.388 1.8 1.8 0 011.436.698 2.694 2.694 0 01.581 1.785 3.217 3.217 0 01-.543 1.823 7.591 7.591 0 01-2.017 1.824 18.455 18.455 0 01-5.238 2.366 22.01 22.01 0 01-6.168.892 18.034 18.034 0 01-9.35-2.405zm62.419-6.206a2.588 2.588 0 01.621 1.784q0 1.94-2.715 3.57a23.508 23.508 0 01-5.897 2.444 23.804 23.804 0 01-6.052.814q-8.77 0-13.85-5.198-5.083-5.198-5.082-14.354a22.523 22.523 0 012.25-10.28 16.797 16.797 0 016.324-6.945 17.462 17.462 0 019.272-2.483q7.37 0 11.715 4.81 4.345 4.812 4.346 13.035a3.343 3.343 0 01-.621 2.25 2.578 2.578 0 01-2.018.699h-24.983q.698 13.346 12.647 13.345a14.824 14.824 0 005.198-.814 33.918 33.918 0 004.656-2.212 7.378 7.378 0 012.715-1.164 1.912 1.912 0 011.474.699zm-23.005-22.656q-2.988 3.104-3.53 8.767h21.958q-.157-5.741-2.871-8.806a9.63 9.63 0 00-7.604-3.065 10.53 10.53 0 00-7.953 3.104zm102.949-23.471a3.377 3.377 0 01.814 2.366v49.115a3.217 3.217 0 01-.776 2.25 2.788 2.788 0 01-2.172.853 2.55 2.55 0 01-2.095-.854 3.44 3.44 0 01-.698-2.25V493.91l-16.837 32.277a3.43 3.43 0 01-3.181 2.25 3.53 3.53 0 01-3.181-2.25l-16.915-31.889v39.26a3.321 3.321 0 01-.737 2.25 2.668 2.668 0 01-2.134.854 2.788 2.788 0 01-2.173-.854 3.214 3.214 0 01-.775-2.25v-49.114a3.28 3.28 0 01.853-2.366 3.071 3.071 0 012.328-.893 3.491 3.491 0 013.103 2.25l19.708 37.787 19.475-37.786a4.503 4.503 0 011.358-1.746 3.02 3.02 0 011.746-.505 2.947 2.947 0 012.289.893zm44.963 46.127a2.588 2.588 0 01.62 1.784q0 1.94-2.716 3.57a23.508 23.508 0 01-5.897 2.444 23.804 23.804 0 01-6.051.814q-8.77 0-13.85-5.198-5.083-5.198-5.082-14.354a22.523 22.523 0 012.25-10.28 16.797 16.797 0 016.323-6.945 17.462 17.462 0 019.272-2.483q7.37 0 11.716 4.81 4.345 4.812 4.345 13.035a3.343 3.343 0 01-.62 2.25 2.578 2.578 0 01-2.018.699h-24.984q.699 13.346 12.647 13.345a14.824 14.824 0 005.199-.814 33.918 33.918 0 004.655-2.212 7.378 7.378 0 012.716-1.164 1.912 1.912 0 011.474.699zm-23.006-22.656q-2.988 3.104-3.53 8.767h21.957q-.156-5.741-2.87-8.806a9.63 9.63 0 00-7.604-3.065 10.53 10.53 0 00-7.953 3.104zm39.88 30.415a20.646 20.646 0 01-5.703-2.405 7.636 7.636 0 01-1.978-1.746 3.313 3.313 0 01-.582-1.979 2.43 2.43 0 01.582-1.668 1.926 1.926 0 011.513-.66 5.79 5.79 0 012.715 1.164 25.837 25.837 0 004.617 2.212 17.168 17.168 0 005.703.814 12.16 12.16 0 006.517-1.474 4.75 4.75 0 002.328-4.268 4.226 4.226 0 00-.854-2.754 7.059 7.059 0 00-2.948-1.862 41.994 41.994 0 00-6.13-1.668q-6.828-1.473-9.776-3.957a8.359 8.359 0 01-2.948-6.75 9.767 9.767 0 011.862-5.897 12.53 12.53 0 015.16-4.035 18.176 18.176 0 017.487-1.474 21.083 21.083 0 015.858.814 17.452 17.452 0 015.004 2.29q2.637 1.861 2.639 3.879a2.479 2.479 0 01-.621 1.707 1.914 1.914 0 01-1.474.698 5.79 5.79 0 01-2.793-1.319 24.669 24.669 0 00-4.113-2.173 13.039 13.039 0 00-4.81-.775 9.647 9.647 0 00-5.859 1.629 5.132 5.132 0 00-2.21 4.345 4.363 4.363 0 00.814 2.754 6.731 6.731 0 002.716 1.863 31.602 31.602 0 005.47 1.59 39.092 39.092 0 018.185 2.56 9.52 9.52 0 014.151 3.415 9.64 9.64 0 011.242 5.12 9.287 9.287 0 01-4.112 7.876q-4.114 2.988-10.863 2.987a26.403 26.403 0 01-6.789-.853zm61.256-34.644q3.415 3.764 3.415 11.212v21.027a3.016 3.016 0 01-.853 2.288 3.126 3.126 0 01-2.25.815 3.231 3.231 0 01-2.328-.815 3.01 3.01 0 01-.854-2.289v-20.871q0-5.043-2.056-7.449-2.056-2.404-6.556-2.405a11.066 11.066 0 00-8.302 3.181 11.804 11.804 0 00-3.104 8.612v18.933a2.831 2.831 0 01-3.104 3.103 3.231 3.231 0 01-2.327-.815 3.01 3.01 0 01-.854-2.289V484.21a2.877 2.877 0 01.892-2.172 3.176 3.176 0 012.29-.854 3.096 3.096 0 012.288.815 2.988 2.988 0 01.815 2.211v20.329a12.594 12.594 0 015.198-5.199 15.872 15.872 0 017.605-1.784q6.671 0 10.086 3.763z"/><path fill="none" d="M374.97 419.38l104.45-12.548-35.161-45.04-42.246-.776-27.043 58.364zm88.264-279.31l2.263-38.257a14.184 14.184 0 01-5.97-3.84l-108.274 7.92 25.069 18.6 29.329-13.467zM266.714 348.7q-.602-.194-1.183-.433a15.982 15.982 0 01-.722-.315q-.154-.072-.305-.147a16.112 16.112 0 01-9.077-13.85l-43.97-22.068 47.895 65.604a14.377 14.377 0 011.934-1.014l5.684-27.688c-.08-.024-.156-.056-.236-.082zm18.674-24.057l28.595-3.793-16.528-21.524-12.067 25.317zm-9.054 24.148l-4.963 27.266a14.44 14.44 0 019.373 17.9l70.477 34.893a16.444 16.444 0 014.103-6.15l-75.174-75.65a16.025 16.025 0 01-3.816 1.741zM510.89 178.4l41.37-10.78a14.406 14.406 0 011.515-3.057L475.96 101.14l-3.262 43.706 34.852 17.579zm-4.808 125.713l34.845-2.368c-.005-.162-.024-.32-.024-.483a14.978 14.978 0 014.528-10.742l-14.582-16.626.05.244zM346.014 113.369a13.876 13.876 0 01-4.928 2.343l-3.104 26.384 28.88-13.26zm207.852 171.163l9.45-97.432a13.602 13.602 0 01-10.92-7.958l-39.448 9.105 13.803 66.04zM382.1 429.212a16.385 16.385 0 01.943 5.449c0 .248-.027.49-.037.736l54.543-.057 41.21-14.742a15.428 15.428 0 01-.5-3.678zm94.722-339.604l-.003.038c.188-.127.211-.154.003-.038zm-6.896-15.471a14.188 14.188 0 0113.216 9.043l57.153 15.247-58.98-42.254a12.52 12.52 0 01-20.574-9.592l.002-.033-77.325-8.39c-.038.299-.08.596-.136.89l78.451 37.705a14.115 14.115 0 018.193-2.616zM213.86 302.73l44.588 21.145a16.199 16.199 0 012.228-2.494l-35.511-101.09-17.143 68.574a13.444 13.444 0 015.837 13.865zm366.472-130.234a14.416 14.416 0 01-1.157 5.671l19.281 29.798-22.741-70.487-.966 23.617a14.428 14.428 0 015.583 11.401zM468.105 94.735l-.166-.135c-.152.186-.073.216.166.135zm-117.361 1.992l105.001-8.679a14.166 14.166 0 01.506-3.478l-78.069-37.197a13.76 13.76 0 01-11.028 2.753l-19.908 41.652a13.618 13.618 0 013.498 4.95zM235.609 187.25l88.684-81.147a13.938 13.938 0 01-.547-3.527l-49.334-13.708a13.632 13.632 0 01-10.16 10.034L234.71 186.76c.309.15.605.318.9.49zM215.194 199a13.608 13.608 0 019.086-12.793l.103-.413.104.348c.297-.1.593-.199.898-.28l24.997-74.339-41.387 60.723a13.506 13.506 0 01-4.088 23.39l.143 67.498 13.744-54.982a13.532 13.532 0 01-3.6-9.153zM337.5 88.243l21.007-43.383a13.94 13.94 0 01-1.433-2.307l-79.063 37.85 48.486 13.467a13.918 13.918 0 0111.003-5.627zM482.405 94.6l80.245 63.8a14.48 14.48 0 012.893-.354l1.265-26.788a14.353 14.353 0 01-13.136-15.475q.047-.576.14-1.147zm66.922 220.147l-46.833 89.272a15.512 15.512 0 012.475 2.149l54.606-38.495a13.53 13.53 0 016.188-14.238l-10.581-37.18a14.926 14.926 0 01-5.855-1.508zM284.03 230.945l-46.454-21.586a13.52 13.52 0 01-5.326 2.78l36.746 105.24a15.661 15.661 0 019.406 1.335c.034.015.07.026.103.042l12.85-27.374-16.856-21.952zm44.245-84.392l3.72-31.625c-.368-.165-.73-.34-1.08-.535l-89.38 79.798a12.752 12.752 0 01.672 7.255l44.057 20.474 15.669-63.272zm-6.685 184.204l-33.8 4.767.002-2.174a4.34 4.34 0 01-.235 1.757 16.06 16.06 0 01-.639 3.045l77.157 78.349 26.597-55.693-46.666-.857zm175.833-16.186l-39.307 47.475-.611-.01 31.392 40a15.345 15.345 0 013.216-.69l48.105-89.646zm73.437-15.021a15.146 15.146 0 01.103 1.712c0 5.329-1.996 8.286-4.968 11.67l7.664 31.941 28.239-84.552-31.28 37.334a14.056 14.056 0 01.241 1.895zm24.875-60.072a13.561 13.561 0 015.312-10.72l-28.207-43.59c-.096.053-.195.1-.291.15l-9.528 102.69c.11.06.215.126.324.188l36.22-39.286a13.562 13.562 0 01-3.83-9.432z"/><path fill="url(#a)" d="M478.706 186.785l32.184-8.385-3.34-15.976-34.851-17.58-2.623 35.144a15.05 15.05 0 018.63 6.797zm-63.062 144.813l-13.631 29.418 42.246.776-24.174-30.966a16.091 16.091 0 01-4.441.772zm81.779-17.027l-66.611 4.469a16.038 16.038 0 01-2.549 5.736l29.242 37.259.61.011zm-44.625-111.436l-117.286 36.857c-.086 2.261-.735 3.25-1.796 5.1l74.43 55.846a16.043 16.043 0 016.935-1.583c.385 0 .762.032 1.14.058l39.101-93.733a13.682 13.682 0 01-2.524-2.545zm12.953 6.275c-.501 0-.996-.027-1.485-.075L425.05 302.82a16.17 16.17 0 014.926 6.464l76.107-5.17 24.818-29.975-.051-.244-58.087-66.224a14.955 14.955 0 01-7.01 1.74zm13.391-8.228l47.609 53.105-13.803-66.04-32.232 7.44a14.914 14.914 0 01-1.574 5.495zm-18.28-21.003l2.372-40.108-57.583-29.045-29.33 13.467 79.283 58.822a14.998 14.998 0 015.258-3.136zm-61.327 139.585l-77.946 10.993 22.417 29.194 46.666.857 15.288-32.011a16.147 16.147 0 01-6.425-9.033zm-66.771-88.47l117.284-36.86a13.465 13.465 0 01.6-3.432l-83.787-62.166-28.88 13.26-10.024 85.217a13.65 13.65 0 014.807 3.981zm-13.861-5.079l9.372-79.662-26.342 12.095-15.669 63.272 23.771 11.046a13.611 13.611 0 018.868-6.751zm81.761 82.059l-73.194-56.367a12.824 12.824 0 01-7.872.964l-22.143 46.455 16.527 21.524 86.153-11.426c.16-.393.34-.773.529-1.15zm-92.034-65.897l-24.6-11.432-9.531 38.485 16.856 21.952 20.243-43.123a13.527 13.527 0 01-2.968-5.882z"/><path fill="url(#b)" d="M614.099 226.745l-32.906-102.003-.55-.714a14.437 14.437 0 00-16.424-21.099l-78.442-56.638a12.505 12.505 0 00-21.894-7.987l-82.289-9.12c-.096-.135-.21-.256-.311-.387a13.938 13.938 0 00-24.794 2.809L269.135 74.6a13.567 13.567 0 00-18.197 19.903l-50.927 74.721a13.576 13.576 0 00-4.226 26.326l.195 91.851a13.595 13.595 0 004.505 26.435c.35 0 .679-.078 1.023-.104l51.858 71.034a14.428 14.428 0 0019.76 18.066l78.547 38.792a1.678 1.678 0 00.2.345 16.422 16.422 0 0026.214 4.448c.124.013.236.037.365.045h60.68l46.832-16.383a15.416 15.416 0 0023.144-12.483l56.76-41.02a13.562 13.562 0 0017.202-20.618l31.294-103.83a13.574 13.574 0 00-.265-25.383zm-38.384-89.267l22.741 70.487-19.28-29.798a14.449 14.449 0 00-4.427-17.072zm-8.907-6.22l-1.265 26.788a14.478 14.478 0 00-2.893.354l-80.245-63.8 71.407 20.036a14.353 14.353 0 0011.85 16.481q.57.093 1.146.14zm-183.39-93.1l77.325 8.39-.002.034a12.52 12.52 0 0020.573 9.591l58.981 42.254-57.153-15.247a14.166 14.166 0 00-21.409-6.427l-78.451-37.706c.056-.293.098-.59.136-.89zm93.4 51.488l.004-.038c.208-.116.185-.089-.003.038zm-8.713 5.09c-.239.08-.318.05-.166-.136zm-100.951-44.61a13.76 13.76 0 0011.028-2.753l78.07 37.197a14.166 14.166 0 00-.507 3.478l-105.001 8.68a13.617 13.617 0 00-3.498-4.95zm-10.08-7.573a13.94 13.94 0 001.433 2.307L337.5 88.243a13.918 13.918 0 00-11.003 5.627L278.01 80.402zm-92.822 56.349a13.632 13.632 0 0010.16-10.034l49.334 13.708a13.938 13.938 0 00.547 3.527l-88.684 81.146a13.93 13.93 0 00-.9-.49zm-59.345 96.735a13.506 13.506 0 004.088-23.391l41.387-60.723-24.997 74.34c-.305.08-.601.179-.898.28l-.104-.349-.103.413a13.508 13.508 0 00-5.486 21.945l-13.744 54.982zm3.116 93.228l17.142-68.575 35.51 101.091a16.199 16.199 0 00-2.227 2.494l-44.589-21.145a13.444 13.444 0 00-5.837-13.865zm53.263 87.612a14.378 14.378 0 00-1.934 1.014l-47.896-65.604 43.97 22.067a16.112 16.112 0 009.078 13.85q.151.076.305.148c.238.11.477.217.722.315q.58.239 1.183.433l.02.007c.08.026.156.058.236.082zm89.935 52.373l-70.477-34.892a14.44 14.44 0 00-9.373-17.901l4.963-27.266a16.025 16.025 0 003.816-1.74l75.174 75.65a16.444 16.444 0 00-4.103 6.15zm86.328 6.49l-54.543.057c.01-.246.037-.488.037-.736a16.385 16.385 0 00-.944-5.449l96.16-12.292a15.428 15.428 0 00.5 3.678zm54.564-33.995a15.345 15.345 0 00-3.216.69l-31.392-40-13.246-.243 35.16 45.04-104.45 12.548 27.044-58.364-11.341-.208-26.597 55.693-77.157-78.35a16.06 16.06 0 00.639-3.044 4.34 4.34 0 00.235-1.757c0-.018-.002 2.191-.003 2.174l33.8-4.767-7.607-9.907-28.595 3.793 12.068-25.317-6.1-7.944-12.85 27.374c-.034-.016-.07-.027-.103-.042a15.661 15.661 0 00-9.406-1.335l-36.746-105.24a13.52 13.52 0 005.326-2.78l46.453 21.586 2.235-9.025-44.057-20.474a12.752 12.752 0 00-.673-7.255l89.38-79.798c.351.194.713.37 1.081.535l-3.72 31.625 9.707-4.457 3.104-26.384a13.876 13.876 0 004.928-2.343l20.847 15.467 9.46-4.343-25.068-18.6 108.275-7.92a14.184 14.184 0 005.969 3.84l-2.263 38.258 9.465 4.774 3.262-43.706 77.814 63.424a14.406 14.406 0 00-1.516 3.058L510.89 178.4l2.059 9.847 39.447-9.105a13.602 13.602 0 0010.92 7.958l-9.45 97.432-27.114-30.245 4.098 19.607 14.582 16.626a14.978 14.978 0 00-4.528 10.742c0 .163.019.321.024.483l-34.845 2.368-8.66 10.458 42.796-2.87zm67.19-36.368a13.632 13.632 0 00.272 2.696l-54.606 38.495a15.514 15.514 0 00-2.475-2.15l46.833-89.27a14.926 14.926 0 005.855 1.507l10.581 37.18a13.594 13.594 0 00-6.46 11.542zm4.042-76.78c-.109-.063-.214-.129-.325-.188l9.528-102.69c.097-.05.196-.098.291-.15l28.208 43.59a13.496 13.496 0 00-1.481 20.151zm10.314 56.676l-7.664-31.94c2.972-3.385 4.968-6.342 4.968-11.67a15.146 15.146 0 00-.104-1.713 14.051 14.051 0 00-.24-1.895l31.279-37.334z"/></svg>