<?xml version="1.0" encoding="utf-8"?>
<!-- Generator: Adobe Illustrator 27.0.1, SVG Export Plug-In . SVG Version: 6.00 Build 0)  -->
<svg version="1.1"
	 id="svg64973" xmlns:inkscape="http://www.inkscape.org/namespaces/inkscape" xmlns:sodipodi="http://sodipodi.sourceforge.net/DTD/sodipodi-0.dtd" xmlns:cc="http://creativecommons.org/ns#" xmlns:dc="http://purl.org/dc/elements/1.1/" xmlns:svg="http://www.w3.org/2000/svg" xmlns:rdf="http://www.w3.org/1999/02/22-rdf-syntax-ns#" inkscape:version="1.0.1 (3bc2e813f5, 2020-09-07)"
	 xmlns="http://www.w3.org/2000/svg" xmlns:xlink="http://www.w3.org/1999/xlink" x="0px" y="0px" viewBox="0 0 170.1 170.1"
	 style="enable-background:new 0 0 170.1 170.1;" xml:space="preserve">
<style type="text/css">
	.st0{fill:#AC9565;}
	.st1{fill:#FFFFFF;}
</style>
<sodipodi:namedview  bordercolor="#666666" borderopacity="1.0" fit-margin-bottom="6" fit-margin-left="6" fit-margin-right="6" fit-margin-top="6" id="base" inkscape:current-layer="layer1" inkscape:cx="780.09858" inkscape:cy="197.95846" inkscape:document-rotation="0" inkscape:document-units="mm" inkscape:pageopacity="0.0" inkscape:pageshadow="2" inkscape:snap-page="true" inkscape:window-height="1136" inkscape:window-maximized="1" inkscape:window-width="3840" inkscape:window-x="0" inkscape:window-y="27" inkscape:zoom="1.4142136" lock-margins="true" pagecolor="#ffffff" showgrid="false">
	</sodipodi:namedview>
<g id="layer1" transform="translate(-4.3148108,-7.706439)" inkscape:groupmode="layer" inkscape:label="Layer 1">
	<g id="g6695" transform="matrix(1.0414387,8.3916573e-4,-8.3916573e-4,1.0414387,163.87705,-297.38488)">
		<g id="g6693">
			<g id="g6673" transform="matrix(1.1182761,0,0,1.1182761,-290.91861,37.306378)">
				<path id="rect6665" d="M157.6,290.9l24.5,0v9.5l-24.5,0V290.9z"/>
				<path id="rect6667" d="M203.4,290.9h24.5v9.5h-24.5V290.9z"/>
				<path id="rect6669" d="M180.2,247.4h24.5l0,9.5h-24.5V247.4z"/>
				<path id="path6671" inkscape:connector-curvature="0" class="st0" d="M173,244.2c-0.6,0-1,0.5-1,1v39.4c0,0.6,0.5,1,1,1h39.4
					c0.6,0,1-0.4,1-1v-39.4c0-0.6-0.5-1-1-1L173,244.2z M187.7,249.8h10c0.9,0,1.6,0.7,1.6,1.6c0,0.9-0.7,1.6-1.6,1.6h-10
					c-0.9,0-1.6-0.7-1.6-1.6C186.1,250.5,186.8,249.8,187.7,249.8z M150.4,288.5c-0.6,0-1,0.5-1,1l0,39.4c0,0.6,0.4,1,1,1h39.4
					c0.6,0,1-0.5,1-1v-39.4c0-0.6-0.4-1-1-1L150.4,288.5z M195.6,288.5c-0.6,0-1,0.5-1,1v39.4c0,0.6,0.5,1,1,1l39.4,0
					c0.6,0,1-0.5,1-1l0-39.4c0-0.6-0.4-1-1-1H195.6z M165.1,294.1l10,0c0.9,0,1.6,0.7,1.6,1.6c0,0.9-0.7,1.6-1.6,1.6h-10
					c-0.9,0-1.6-0.7-1.6-1.6C163.4,294.8,164.2,294.1,165.1,294.1z M210.3,294.1h10c0.9,0,1.6,0.7,1.6,1.6s-0.7,1.6-1.6,1.6h-10
					c-0.9,0-1.6-0.7-1.6-1.6C208.7,294.8,209.4,294.1,210.3,294.1z"/>
			</g>
			<g id="g6691" transform="matrix(0.43450182,0,0,0.43450182,-146.91981,253.85275)">
				<path id="path6675" inkscape:connector-curvature="0" class="st1" d="M55.6,370.5c-15.2,0-27.7,12.5-27.7,27.7
					s12.5,27.7,27.7,27.7s27.7-12.5,27.7-27.7C83.3,383,70.8,370.5,55.6,370.5z M55.6,383.2c8.4,0,15,6.6,15,15s-6.6,15-15,15
					s-15-6.6-15-15C40.6,389.8,47.2,383.2,55.6,383.2z"/>
				<path id="path6677" inkscape:connector-curvature="0" class="st1" d="M-9.2,421.8l0-47.2h13l0,17.9l14.3-17.9h14.6l-17.1,21.1
					l18.3,26H19L7.3,404.4l-3.6,3.7l0,13.6L-9.2,421.8L-9.2,421.8z"/>
				<path id="path6679" inkscape:connector-curvature="0" class="st1" d="M100.3,398.6v23.2h-13l0-47.2h10.1l18.9,24v-24h13l0,47.2
					H119L100.3,398.6z"/>
				<path id="path6681" inkscape:connector-curvature="0" class="st1" d="M146.5,374.6l9.2,30.9l9.1-30.9h13.6l-17.3,47.2h-10.8
					l-17.5-47.2H146.5z"/>
				<path id="path6683" inkscape:connector-curvature="0" class="st1" d="M215.6,410.5v11.3H182v-47.2h33v11.3h-20v6.6h17.1V403H195
					v7.4L215.6,410.5z"/>
				<path id="path6685" inkscape:connector-curvature="0" class="st1" d="M231.3,374.6l8.4,20.4l8.6-20.4h14.1l-16.3,31.5v15.6
					h-12.9l0-15.7l-16-31.4H231.3z"/>
				<path id="path6687" inkscape:connector-curvature="0" class="st1" d="M317,421.8v-47.2h21.7c2.3,0,4.4,0.5,6.4,1.5
					c1.9,0.9,3.6,2.2,5,3.7s2.5,3.3,3.3,5.2c0.8,1.9,1.2,3.9,1.2,5.9c0,2.7-0.6,5.3-1.8,7.7c-1.2,2.3-2.9,4.3-5,5.8l10,17.3h-14.6
					l-8.3-14.5H330v14.5L317,421.8z M330,396l8.2,0c0.8,0,1.5-0.4,2.2-1.3s1.1-2.1,1.1-3.7s-0.4-2.9-1.2-3.7
					c-0.8-0.9-1.6-1.3-2.4-1.3H330V396z"/>
				<path id="path6689" inkscape:connector-curvature="0" class="st1" d="M285.8,370.5c-15.2,0-27.7,12.5-27.7,27.7
					s12.5,27.7,27.7,27.7c15.2,0,27.7-12.5,27.7-27.7C313.5,383,301,370.5,285.8,370.5z M285.8,383.2c8.4,0,15,6.6,15,15
					s-6.6,15-15,15c-8.4,0-15-6.6-15-15C270.8,389.8,277.4,383.2,285.8,383.2z"/>
			</g>
		</g>
	</g>
</g>
</svg>
