<svg xmlns="http://www.w3.org/2000/svg" role="img" viewBox="-4.44 -1.19 222.37 321.62"><defs><style>.cls-3{clip-rule:evenodd}.cls-2,.cls-3{fill:none}.cls-8{clip-path:url(#clip-path-2)}.cls-9{clip-path:url(#clip-path-3)}.cls-10{fill:#383d49}.cls-12{clip-path:url(#clip-path-4)}.cls-14{fill:#3a6ede}</style><clipPath id="clip-path"><path fill="#fff" d="M211.865 302.314h-3.746v7.344a2.79 2.79 0 0 0 .475 1.829 1.903 1.903 0 0 0 1.517.55 4.26 4.26 0 0 0 .832-.09 3.184 3.184 0 0 0 .803-.267l.09 2.29a6.777 6.777 0 0 1-1.116.282 7.498 7.498 0 0 1-1.263.104 4.028 4.028 0 0 1-3.048-1.1 4.6 4.6 0 0 1-1.055-3.3v-7.642h-2.706v-2.29h2.706v-4.043h2.765v4.044h3.746zm-11.266 4.638v.476a3.824 3.824 0 0 1-.03.476H189.39a4.227 4.227 0 0 0 .402 1.68 4.42 4.42 0 0 0 .996 1.367 4.652 4.652 0 0 0 3.18 1.234 4.707 4.707 0 0 0 2.469-.624 5.036 5.036 0 0 0 1.635-1.517l1.962 1.576a6.967 6.967 0 0 1-2.66 2.186 8.589 8.589 0 0 1-6.378.163 6.87 6.87 0 0 1-2.35-1.501 6.96 6.96 0 0 1-1.545-2.334 7.87 7.87 0 0 1-.565-3.033 8.092 8.092 0 0 1 .55-3.018 6.907 6.907 0 0 1 1.531-2.364 7.009 7.009 0 0 1 2.32-1.53 7.946 7.946 0 0 1 5.693-.045 5.793 5.793 0 0 1 2.14 1.457 6.562 6.562 0 0 1 1.353 2.304 9.148 9.148 0 0 1 .476 3.047zm-2.824-1.13a5.316 5.316 0 0 0-.283-1.56 3.585 3.585 0 0 0-.743-1.264 3.495 3.495 0 0 0-1.22-.847 4.315 4.315 0 0 0-1.709-.313 4.518 4.518 0 0 0-1.68.313 4.361 4.361 0 0 0-1.367.847 4.462 4.462 0 0 0-.952 1.264 4.03 4.03 0 0 0-.43 1.56zm-15.667 8.296h-2.794V291.64h2.794zm-7.222-7.166v.476a3.824 3.824 0 0 1-.03.476h-11.179a4.228 4.228 0 0 0 .402 1.68 4.42 4.42 0 0 0 .996 1.367 4.652 4.652 0 0 0 3.181 1.234 4.707 4.707 0 0 0 2.468-.624 5.036 5.036 0 0 0 1.635-1.517l1.962 1.576a6.967 6.967 0 0 1-2.66 2.186 8.589 8.589 0 0 1-6.378.163 6.87 6.87 0 0 1-2.349-1.501 6.96 6.96 0 0 1-1.546-2.334 7.87 7.87 0 0 1-.565-3.033 8.092 8.092 0 0 1 .55-3.018 6.906 6.906 0 0 1 1.531-2.364 7.01 7.01 0 0 1 2.32-1.53 7.946 7.946 0 0 1 5.693-.045 5.793 5.793 0 0 1 2.14 1.457 6.562 6.562 0 0 1 1.354 2.304 9.148 9.148 0 0 1 .475 3.047zm-2.824-1.13a5.316 5.316 0 0 0-.283-1.56 3.584 3.584 0 0 0-.743-1.264 3.495 3.495 0 0 0-1.219-.847 4.315 4.315 0 0 0-1.71-.313 4.518 4.518 0 0 0-1.68.313 4.361 4.361 0 0 0-1.367.847 4.462 4.462 0 0 0-.952 1.264 4.031 4.031 0 0 0-.43 1.56zm-17.57 1.22a6.159 6.159 0 0 0-.296-1.903 4.856 4.856 0 0 0-.892-1.636 4.27 4.27 0 0 0-1.472-1.13 4.701 4.701 0 0 0-2.037-.416 4.485 4.485 0 0 0-1.947.417 4.58 4.58 0 0 0-1.502 1.13 5.212 5.212 0 0 0-.966 1.635 5.633 5.633 0 0 0 0 3.865 5.033 5.033 0 0 0 .966 1.62 4.68 4.68 0 0 0 1.502 1.115 4.485 4.485 0 0 0 1.947.416 4.563 4.563 0 0 0 2.037-.43 4.433 4.433 0 0 0 1.472-1.145 4.856 4.856 0 0 0 .892-1.636 6.159 6.159 0 0 0 .297-1.902zm-9.365 4.846v2.23h-2.705V291.64h2.794v10.496h.09a5.898 5.898 0 0 1 1.992-1.77 6.026 6.026 0 0 1 3.032-.728 7.093 7.093 0 0 1 2.87.565 6.61 6.61 0 0 1 2.23 1.576 7.085 7.085 0 0 1 1.441 2.364 8.216 8.216 0 0 1 .506 2.899 8.339 8.339 0 0 1-.506 2.913 7.182 7.182 0 0 1-1.427 2.379 6.591 6.591 0 0 1-2.23 1.59 7.19 7.19 0 0 1-2.943.58 6.481 6.481 0 0 1-2.884-.669 5.423 5.423 0 0 1-2.2-1.947zm-10.611 2.23q-.06-.535-.09-1.204t-.03-1.115h-.059a4.603 4.603 0 0 1-1.799 1.917 5.203 5.203 0 0 1-2.81.788 5.748 5.748 0 0 1-2.363-.446 4.36 4.36 0 0 1-1.635-1.234 5.272 5.272 0 0 1-.952-1.828 7.724 7.724 0 0 1-.312-2.23v-8.741h2.795v7.79a9.848 9.848 0 0 0 .134 1.65 3.945 3.945 0 0 0 .49 1.382 2.66 2.66 0 0 0 .981.952 3.21 3.21 0 0 0 1.606.356 3.37 3.37 0 0 0 2.735-1.263 5.144 5.144 0 0 0 1.041-3.375v-7.492h2.795v11.06q0 .565.03 1.457t.089 1.576zm-26.013-11.774h.06l9.395-9.277h4.073l-10.228 9.634 10.852 11.417h-4.222l-9.87-10.882h-.06v10.882h-2.944v-21.05h2.944zm-16.347 11.774H89.36V291.64h2.795zm-11.355-6.72q-1.041 0-2.156.09a9.956 9.956 0 0 0-2.022.356 3.823 3.823 0 0 0-1.501.803 1.826 1.826 0 0 0-.595 1.427 1.974 1.974 0 0 0 .253 1.04 2.1 2.1 0 0 0 .669.685 2.692 2.692 0 0 0 .922.371 5.148 5.148 0 0 0 1.04.104 3.848 3.848 0 0 0 3.018-1.174 4.26 4.26 0 0 0 1.055-2.958v-.744zm.683-2.408a2.804 2.804 0 0 0-.951-2.334 3.938 3.938 0 0 0-2.527-.758 5.549 5.549 0 0 0-2.245.46 5.684 5.684 0 0 0-1.77 1.175l-1.486-1.784a7.506 7.506 0 0 1 2.542-1.546 9.086 9.086 0 0 1 3.226-.565 7.284 7.284 0 0 1 2.632.431 4.976 4.976 0 0 1 1.828 1.175 4.811 4.811 0 0 1 1.07 1.754 6.475 6.475 0 0 1 .357 2.17v6.155q0 .714.045 1.501a7.711 7.711 0 0 0 .163 1.294h-2.527a8.8 8.8 0 0 1-.238-2.022h-.089a5.412 5.412 0 0 1-1.947 1.754 5.842 5.842 0 0 1-2.78.625 7.282 7.282 0 0 1-1.74-.223 5.054 5.054 0 0 1-1.65-.729 4.114 4.114 0 0 1-1.234-1.338 3.98 3.98 0 0 1-.49-2.051 3.608 3.608 0 0 1 .862-2.542 5.462 5.462 0 0 1 2.26-1.428 12.76 12.76 0 0 1 3.151-.639q1.754-.148 3.538-.148zm-16.617 9.128q-.06-.535-.09-1.204t-.029-1.115h-.06a4.603 4.603 0 0 1-1.798 1.917 5.203 5.203 0 0 1-2.81.788 5.749 5.749 0 0 1-2.364-.446 4.36 4.36 0 0 1-1.635-1.234 5.271 5.271 0 0 1-.951-1.828 7.724 7.724 0 0 1-.313-2.23v-8.741h2.795v7.79a9.847 9.847 0 0 0 .134 1.65 3.945 3.945 0 0 0 .49 1.382 2.66 2.66 0 0 0 .982.952 3.21 3.21 0 0 0 1.605.356 3.37 3.37 0 0 0 2.736-1.263 5.144 5.144 0 0 0 1.04-3.375v-7.492h2.795v11.06q0 .565.03 1.457t.089 1.576zm-13.288-11.804h-3.746v7.344a2.79 2.79 0 0 0 .476 1.829 1.903 1.903 0 0 0 1.516.55 4.26 4.26 0 0 0 .833-.09 3.184 3.184 0 0 0 .802-.267l.09 2.29a6.78 6.78 0 0 1-1.115.282 7.498 7.498 0 0 1-1.264.104 4.027 4.027 0 0 1-3.048-1.1 4.6 4.6 0 0 1-1.055-3.3v-7.642h-2.706v-2.29h2.706v-4.043h2.765v4.044h3.746zm-17.777.743q0-.564-.03-1.456t-.089-1.576h2.647q.059.535.089 1.234t.03 1.144h.089a4.877 4.877 0 0 1 1.739-2.007 4.554 4.554 0 0 1 2.572-.758 4.338 4.338 0 0 1 1.1.12l-.119 2.586a5.26 5.26 0 0 0-1.278-.149 3.879 3.879 0 0 0-1.755.372 3.582 3.582 0 0 0-1.234.996 4.21 4.21 0 0 0-.728 1.442 6.09 6.09 0 0 0-.238 1.71v7.403h-2.795zm-4.873-8.116a1.661 1.661 0 0 1-.55 1.278 1.887 1.887 0 0 1-1.323.506 1.806 1.806 0 0 1-1.308-.52 1.696 1.696 0 0 1-.536-1.264 1.73 1.73 0 0 1 .536-1.294 1.806 1.806 0 0 1 1.308-.52 1.857 1.857 0 0 1 1.323.52 1.708 1.708 0 0 1 .55 1.294zm-.476 19.177h-2.795v-14.093h2.795zm-14.714-3.806h.089l6.333-17.245h3.181l-8.266 21.05h-2.735l-8.206-21.05h3.27z" clip-rule="evenodd"/></clipPath><clipPath id="clip-path-2"><path d="M106.848 5.386L22.634 45.94 1.831 137.068l58.282 73.081h93.475l58.277-73.081-20.797-91.128-84.22-40.554z" class="cls-3"/></clipPath><clipPath id="clip-path-3"><path d="M-47.689-42.426h623.27V264.94h-623.27z" class="cls-2"/></clipPath><clipPath id="clip-path-4"><path d="M1.831 5.386h210.033v204.911H1.831z" class="cls-2"/></clipPath><clipPath id="clip-path-7"><path d="M22.646 45.956l82.128 150.68 86.283-150.68H22.646z" class="cls-3"/></clipPath><clipPath id="clip-path-9"><path d="M106.848 5.048l84.099 40.931-34.375 60.155H55.44L22.749 45.979l84.099-40.931z" class="cls-3"/></clipPath></defs><path fill="#fff" fill-rule="evenodd" d="M211.865 302.314h-3.746v7.344a2.79 2.79 0 0 0 .475 1.829 1.903 1.903 0 0 0 1.517.55 4.26 4.26 0 0 0 .832-.09 3.184 3.184 0 0 0 .803-.267l.09 2.29a6.777 6.777 0 0 1-1.116.282 7.498 7.498 0 0 1-1.263.104 4.028 4.028 0 0 1-3.048-1.1 4.6 4.6 0 0 1-1.055-3.3v-7.642h-2.706v-2.29h2.706v-4.043h2.765v4.044h3.746zm-11.266 4.638v.476a3.824 3.824 0 0 1-.03.476H189.39a4.227 4.227 0 0 0 .402 1.68 4.42 4.42 0 0 0 .996 1.367 4.652 4.652 0 0 0 3.18 1.234 4.707 4.707 0 0 0 2.469-.624 5.036 5.036 0 0 0 1.635-1.517l1.962 1.576a6.967 6.967 0 0 1-2.66 2.186 8.589 8.589 0 0 1-6.378.163 6.87 6.87 0 0 1-2.35-1.501 6.96 6.96 0 0 1-1.545-2.334 7.87 7.87 0 0 1-.565-3.033 8.092 8.092 0 0 1 .55-3.018 6.907 6.907 0 0 1 1.531-2.364 7.009 7.009 0 0 1 2.32-1.53 7.946 7.946 0 0 1 5.693-.045 5.793 5.793 0 0 1 2.14 1.457 6.562 6.562 0 0 1 1.353 2.304 9.148 9.148 0 0 1 .476 3.047zm-2.824-1.13a5.316 5.316 0 0 0-.283-1.56 3.585 3.585 0 0 0-.743-1.264 3.495 3.495 0 0 0-1.22-.847 4.315 4.315 0 0 0-1.709-.313 4.518 4.518 0 0 0-1.68.313 4.361 4.361 0 0 0-1.367.847 4.462 4.462 0 0 0-.952 1.264 4.03 4.03 0 0 0-.43 1.56zm-15.667 8.296h-2.794V291.64h2.794zm-7.222-7.166v.476a3.824 3.824 0 0 1-.03.476h-11.179a4.228 4.228 0 0 0 .402 1.68 4.42 4.42 0 0 0 .996 1.367 4.652 4.652 0 0 0 3.181 1.234 4.707 4.707 0 0 0 2.468-.624 5.036 5.036 0 0 0 1.635-1.517l1.962 1.576a6.967 6.967 0 0 1-2.66 2.186 8.589 8.589 0 0 1-6.378.163 6.87 6.87 0 0 1-2.349-1.501 6.96 6.96 0 0 1-1.546-2.334 7.87 7.87 0 0 1-.565-3.033 8.092 8.092 0 0 1 .55-3.018 6.906 6.906 0 0 1 1.531-2.364 7.01 7.01 0 0 1 2.32-1.53 7.946 7.946 0 0 1 5.693-.045 5.793 5.793 0 0 1 2.14 1.457 6.562 6.562 0 0 1 1.354 2.304 9.148 9.148 0 0 1 .475 3.047zm-2.824-1.13a5.316 5.316 0 0 0-.283-1.56 3.584 3.584 0 0 0-.743-1.264 3.495 3.495 0 0 0-1.219-.847 4.315 4.315 0 0 0-1.71-.313 4.518 4.518 0 0 0-1.68.313 4.361 4.361 0 0 0-1.367.847 4.462 4.462 0 0 0-.952 1.264 4.031 4.031 0 0 0-.43 1.56zm-17.57 1.22a6.159 6.159 0 0 0-.296-1.903 4.856 4.856 0 0 0-.892-1.636 4.27 4.27 0 0 0-1.472-1.13 4.701 4.701 0 0 0-2.037-.416 4.485 4.485 0 0 0-1.947.417 4.58 4.58 0 0 0-1.502 1.13 5.212 5.212 0 0 0-.966 1.635 5.633 5.633 0 0 0 0 3.865 5.033 5.033 0 0 0 .966 1.62 4.68 4.68 0 0 0 1.502 1.115 4.485 4.485 0 0 0 1.947.416 4.563 4.563 0 0 0 2.037-.43 4.433 4.433 0 0 0 1.472-1.145 4.856 4.856 0 0 0 .892-1.636 6.159 6.159 0 0 0 .297-1.902zm-9.365 4.846v2.23h-2.705V291.64h2.794v10.496h.09a5.898 5.898 0 0 1 1.992-1.77 6.026 6.026 0 0 1 3.032-.728 7.093 7.093 0 0 1 2.87.565 6.61 6.61 0 0 1 2.23 1.576 7.085 7.085 0 0 1 1.441 2.364 8.216 8.216 0 0 1 .506 2.899 8.339 8.339 0 0 1-.506 2.913 7.182 7.182 0 0 1-1.427 2.379 6.591 6.591 0 0 1-2.23 1.59 7.19 7.19 0 0 1-2.943.58 6.481 6.481 0 0 1-2.884-.669 5.423 5.423 0 0 1-2.2-1.947zm-10.611 2.23q-.06-.535-.09-1.204t-.03-1.115h-.059a4.603 4.603 0 0 1-1.799 1.917 5.203 5.203 0 0 1-2.81.788 5.748 5.748 0 0 1-2.363-.446 4.36 4.36 0 0 1-1.635-1.234 5.272 5.272 0 0 1-.952-1.828 7.724 7.724 0 0 1-.312-2.23v-8.741h2.795v7.79a9.848 9.848 0 0 0 .134 1.65 3.945 3.945 0 0 0 .49 1.382 2.66 2.66 0 0 0 .981.952 3.21 3.21 0 0 0 1.606.356 3.37 3.37 0 0 0 2.735-1.263 5.144 5.144 0 0 0 1.041-3.375v-7.492h2.795v11.06q0 .565.03 1.457t.089 1.576zm-26.013-11.774h.06l9.395-9.277h4.073l-10.228 9.634 10.852 11.417h-4.222l-9.87-10.882h-.06v10.882h-2.944v-21.05h2.944zm-16.347 11.774H89.36V291.64h2.795zm-11.355-6.72q-1.041 0-2.156.09a9.956 9.956 0 0 0-2.022.356 3.823 3.823 0 0 0-1.501.803 1.826 1.826 0 0 0-.595 1.427 1.974 1.974 0 0 0 .253 1.04 2.1 2.1 0 0 0 .669.685 2.692 2.692 0 0 0 .922.371 5.148 5.148 0 0 0 1.04.104 3.848 3.848 0 0 0 3.018-1.174 4.26 4.26 0 0 0 1.055-2.958v-.744zm.683-2.408a2.804 2.804 0 0 0-.951-2.334 3.938 3.938 0 0 0-2.527-.758 5.549 5.549 0 0 0-2.245.46 5.684 5.684 0 0 0-1.77 1.175l-1.486-1.784a7.506 7.506 0 0 1 2.542-1.546 9.086 9.086 0 0 1 3.226-.565 7.284 7.284 0 0 1 2.632.431 4.976 4.976 0 0 1 1.828 1.175 4.811 4.811 0 0 1 1.07 1.754 6.475 6.475 0 0 1 .357 2.17v6.155q0 .714.045 1.501a7.711 7.711 0 0 0 .163 1.294h-2.527a8.8 8.8 0 0 1-.238-2.022h-.089a5.412 5.412 0 0 1-1.947 1.754 5.842 5.842 0 0 1-2.78.625 7.282 7.282 0 0 1-1.74-.223 5.054 5.054 0 0 1-1.65-.729 4.114 4.114 0 0 1-1.234-1.338 3.98 3.98 0 0 1-.49-2.051 3.608 3.608 0 0 1 .862-2.542 5.462 5.462 0 0 1 2.26-1.428 12.76 12.76 0 0 1 3.151-.639q1.754-.148 3.538-.148zm-16.617 9.128q-.06-.535-.09-1.204t-.029-1.115h-.06a4.603 4.603 0 0 1-1.798 1.917 5.203 5.203 0 0 1-2.81.788 5.749 5.749 0 0 1-2.364-.446 4.36 4.36 0 0 1-1.635-1.234 5.271 5.271 0 0 1-.951-1.828 7.724 7.724 0 0 1-.313-2.23v-8.741h2.795v7.79a9.847 9.847 0 0 0 .134 1.65 3.945 3.945 0 0 0 .49 1.382 2.66 2.66 0 0 0 .982.952 3.21 3.21 0 0 0 1.605.356 3.37 3.37 0 0 0 2.736-1.263 5.144 5.144 0 0 0 1.04-3.375v-7.492h2.795v11.06q0 .565.03 1.457t.089 1.576zm-13.288-11.804h-3.746v7.344a2.79 2.79 0 0 0 .476 1.829 1.903 1.903 0 0 0 1.516.55 4.26 4.26 0 0 0 .833-.09 3.184 3.184 0 0 0 .802-.267l.09 2.29a6.78 6.78 0 0 1-1.115.282 7.498 7.498 0 0 1-1.264.104 4.027 4.027 0 0 1-3.048-1.1 4.6 4.6 0 0 1-1.055-3.3v-7.642h-2.706v-2.29h2.706v-4.043h2.765v4.044h3.746zm-17.777.743q0-.564-.03-1.456t-.089-1.576h2.647q.059.535.089 1.234t.03 1.144h.089a4.877 4.877 0 0 1 1.739-2.007 4.554 4.554 0 0 1 2.572-.758 4.338 4.338 0 0 1 1.1.12l-.119 2.586a5.26 5.26 0 0 0-1.278-.149 3.879 3.879 0 0 0-1.755.372 3.582 3.582 0 0 0-1.234.996 4.21 4.21 0 0 0-.728 1.442 6.09 6.09 0 0 0-.238 1.71v7.403h-2.795zm-4.873-8.116a1.661 1.661 0 0 1-.55 1.278 1.887 1.887 0 0 1-1.323.506 1.806 1.806 0 0 1-1.308-.52 1.696 1.696 0 0 1-.536-1.264 1.73 1.73 0 0 1 .536-1.294 1.806 1.806 0 0 1 1.308-.52 1.857 1.857 0 0 1 1.323.52 1.708 1.708 0 0 1 .55 1.294zm-.476 19.177h-2.795v-14.093h2.795zm-14.714-3.806h.089l6.333-17.245h3.181l-8.266 21.05h-2.735l-8.206-21.05h3.27z"/><g clip-path="url(#clip-path)"><path fill="#fff" d="M-37.701 46.529h290.563v317.592H-37.701z"/></g><g class="cls-8"><g class="cls-9"><path d="M160.168 223.81H53.534l-66.485-83.37L10.78 36.488l96.07-46.263 96.074 46.263 23.724 103.954zM66.69 196.49h80.318l50.074-62.796-17.87-78.3-72.365-34.846-72.36 34.846-17.874 78.3z" class="cls-10"/></g></g><g style="isolation:isolate"><g class="cls-12"><g class="cls-8"><g class="cls-12"><path d="M160.168 223.81H53.534l-66.485-83.37L10.78 36.488l96.07-46.263 96.074 46.263 23.724 103.954zM66.69 196.49h80.318l50.074-62.796-17.87-78.3-72.365-34.846-72.36 34.846-17.874 78.3z" class="cls-10"/></g></g><g clip-path="url(#clip-path-7)"><g class="cls-12"><path d="M14.108 37.418h185.487v167.756H14.108z" class="cls-14"/></g></g></g></g><path d="M106.848 5.386L22.634 45.94 1.831 137.068l58.282 73.081h93.475l58.277-73.081-20.797-91.128-84.22-40.554z" class="cls-2"/><g clip-path="url(#clip-path-9)"><g class="cls-9"><path d="M14.211-3.49h185.273v118.162H14.211z" class="cls-14"/></g></g></svg>