<?xml version="1.0" encoding="UTF-8"?>
<svg id="Layer_1" data-name="Layer 1" xmlns="http://www.w3.org/2000/svg" viewBox="0 0 2440 1760">
  <defs>
    <style>
      .cls-1 {
        fill: #000;
        stroke-width: 0px;
      }
    </style>
  </defs>
  <path class="cls-1" d="M1061.74,1030.39c.48.48,0,1.61,0,2.41-67.27.64-171.14-100.34-170.98-167.77,14.24,15.01,30.76,26.64,47.85,37.13,18.3,11.88,35.01,20.54,53.46,27.9,5,1.99,9.95,3.05,10.6,9.31,3.69,35.96,26.33,60.05,50.89,83.16,2.73,2.57,5.46,5.14,8.19,7.87ZM1263.77,52.33l-.03-.28.18-.19c.22-.25.4-.46.65-.59,1.02-.83,2.44-1.36,3.7-1.27.74-.37,1.6-.62,2.47-.83,80.33,8.7,154.98,36.12,219.54,77.8.15.09.28.19.46.28,1.76,1.14,3.49,2.34,5.24,3.49,104.48,70.05,181.57,177.8,211.74,303.81,0,5.06.4,10.61.77,15.98.62,8.82,1.26,17.95.25,25.45.19,1.2.25,2.5.25,4.26v1.57l-1.05-1.11c-3.08-3.24-5.03-5.95-5.77-10.18-4.32-2.71-7.68-7.56-5.89-12.56-1.54-1.26-2.56-2.07-4.53-1.94h-.22l-.19-.15c-.34-.28-.59-.52-.8-.77l-.03-.03c1.11,7,2.71,13.51,4.41,20.36.4,1.57.77,3.18,1.17,4.78.4,1.57.93,5.55,1.3,10.03-2.41.12-4.75.31-7.06.52-.49-2.22-.93-4.44-1.36-6.66-.49-2.53-.99-5.12-1.57-7.65-.28-.06-.52-.18-.74-.25-.43-.19-.83-.34-1.54-.37l-.46-.03-.09-.46c-.15-.74-.56-1.48-.99-2.28-.52-.96-1.11-2.04-1.23-3.21-2.75-.62-3.58-1.42-5.4-3.18l-.12-.12c-2.65,1.2-4.44.46-5.46-.4-2.59-2.16-3.27-7.4-2.34-11.26-.19-.09-.34-.25-.46-.43-1.48.59-3.27,1.36-4.63,1.97-.25,3.05-1.26,4.84-3.45,5.89v.37c.03.37.06.96-.37,1.45l-.25.15c-.68.28-1.33.49-2.01.71-2.31.83-4.5,1.57-5.95,3.27l-.56.68-.43-.77c-1.08-1.82-1.6-3.76-2.16-5.8-.25-.77-.46-1.57-.68-2.34h-1.7c-.65,1.63-1.08,3.64-1.51,5.61-.77,3.58-1.57,7.25-3.76,9.22l-.49.46-.4-.52c-2.22-2.81-4.41-3.58-6.76-2.31l-.37.19-.31-.28c-.34-.28-.59-.65-.8-1.02-.19-.31-.34-.59-.56-.74-1.88.52-3.42.37-4.5-.4-.99-.77-1.48-2.07-1.51-3.83-2.87-1.02-5.28-3.21-7.65-5.37-2.07-1.85-4.16-3.76-6.51-4.84.62,2.75,2.59,4.81,4.53,6.79,1.67,1.73,3.24,3.36,3.98,5.4l.25.65-.65.19c-2.07.56-3.98.52-5.8.43-.89,0-1.79-.03-2.65,0,1.33,1.23,2.96,2.22,4.69,3.21,2.31,1.33,4.72,2.71,6.54,4.97.83.96,2.59,4.35,4.01,7.19l.18.4c.52,1.05.99,2.13,1.48,3.3.56,1.33,1.14,2.71,1.82,4.01,2.75-2.38.74-6.42.03-7.65l-.46-.77.86-.15c4.1-.83,5.4,1.73,6.51,3.98.74,1.48,1.51,3.02,3.02,3.89,1.02-1.36,1.79-2.81,2.53-4.23,1.76-3.24,3.42-6.32,7.37-7.71l.31-.12.28.22c2.9,2.19,6.08,4.29,9.78,4.66,2.93.28,4.35-.49,5.98-1.39,1.17-.62,2.47-1.33,4.44-1.73l.49-.09.18.49c1.17,2.9,1.54,6.48,1.08,10.64-.8.09-1.57.22-2.34.34-19.87,2.99-48.89,7.37-73.11,26.87-13.2-6.63-28.32-9.96-45.28-9.96-6.32,0-12.99.43-21.07,1.33-4.32.46-8.11.71-11.6.71-11.88,0-18.85-2.53-24.89-9.47.4.12.8.31,1.2.46,1.11.46,2.25.93,3.02.89,2.68-.22,9.87-2.04,12.22-2.65l.28-.06c.46-.15.89-.25,1.33-.34,3.73-.93,6.2-1.54,5.61-7.84l-.12-.99.96.34c2.16.89,3.83.99,4.9.31,1.79-1.11,2.07-4.16,2.34-6.91.06-.74.12-1.45.22-2.07.06-.37-.28-.83-.68-1.33-.56-.71-1.23-1.57-1.11-2.75.12-.89,1.02-1.73,1.91-2.65.65-.62,1.3-1.23,1.54-1.7.59-1.27,1.39-2.16,2.07-2.93,1.11-1.23,2-2.22,1.88-4.41-2.31-2.25-2.19-6.17-2.1-9.93.06-2.41.15-4.84-.4-6.72-.46-1.45-1.11-2.75-1.73-4.01-1.39-2.78-2.81-5.65-1.6-10.15-.22-.46-.74-1.54-1.23-2.38-.56,1.14-1.11,2.38-1.67,3.7-.96,2.28-1.94,4.63-3.15,6.6l-.34.52-.56-.31c-2.07-1.33-3.45-1.2-4.94.49,2.47,3.33,1.51,5.21.28,6.26-4.1,3.39-17.4,1.45-20.42-1.3-.43.09-1.05.28-1.63.49-.4.12-.8.25-1.2.34.12.68.06,1.3.06,1.85-.06.99-.09,1.85.49,2.9l.28.43-.4.34c-3.27,2.78-6.79,3.64-9.9,2.44-3.61-1.42-6.23-5.49-6.94-10.64-.71-.22-1.48-.46-2.25-.65-2.25-.62-4.6-1.23-5.43-3.02-.49-1.08-.37-2.38.34-3.98-1.05-2.5-3.15-3.89-5.61-5.52-.8-.52-1.67-1.08-2.5-1.73l-.65-.46.59-.52c.59-.43,1.11-1.57,1.54-2.47.09-.22.18-.4.28-.59-1.54-.31-2.71-1.2-3.27-2.53-.46-1.11-.43-2.38.09-3.64-.71.34-1.48.56-2.44.68-1.57,3.67-5.83,4.6-9.93,5.49-1.02.22-2.04.43-3.02.71-1.54.4-3.02.89-4.29,1.67-1.14.68-2.13,1.57-2.81,2.75l-.28.49-.49-.18c-.56-.22-1.17-.31-1.85-.37-.15-.03-.28-.03-.4-.03,1.23,1.11,3.02,2.1,4.9,3.15,4.44,2.47,9.47,5.27,8.24,10.92,1.23,1.88,2.68,3.33,4.26,4.84.49.46.99.96,1.45,1.48l.86.86-1.2.15c-.68.12-1.48.37-2.34.68-.8.31-1.73.62-2.65.8,2.22,2.28,2.59,5.21,1.02,8.02,4.53,2.87,4.69,8.02,4.47,12.65l-.06,1.11-.93-.62c-2.65-1.85-4.26-4.69-5.83-7.43-1.23-2.22-2.41-4.29-4.04-5.68-.96-.86-2.16-1.08-3.3-1.33-1.39-.28-2.93-.59-3.76-2.04-.52-.83-.77-2.04-.68-3.86,0-.09-.06-.15-.09-.31-.22-.46-.49-1.17-.65-1.79-4.2-1.67-7.25-5.34-10.24-8.91-1.45-1.76-2.93-3.58-4.57-5.12-3.83-3.7-4.13-5.86-4.44-8.36-.22-1.45-.43-3.15-1.45-5.46-1.33-3.02-2.07-3.24-3.76-3.7-.93-.25-2.04-.59-3.58-1.36-7.19-3.73-13.48-7.9-19.56-11.91-5.77-3.83-11.72-7.74-18.32-11.23-.49.83-1.23,1.54-1.85,2.13-.34.34-.68.68-.8.86l-.68,1.17-.43-1.3c-1.23-3.49-3.79-5.55-6.94-5.58-.96,1.33-1.39,2.31-1.23,2.93.12.59.89,1.02,1.79,1.48.96.52,2.01,1.08,2.78,2.1.49.74,1.39,1.45,2.22,2.13.71.59,1.42,1.2,1.94,1.79.59.71.49,1.73.37,2.81-.09.93-.19,1.94.19,2.47,3.21,4.53,10.92,9.25,16.69,11.72,1.26.52,2.5.99,3.73,1.42,1.73.62,3.49,1.26,5.21,2.1,1.79.89,3.3,2.25,4.53,3.33.8.71,1.48,1.33,2.04,1.63.8.49,2.16.99,3.73,1.57,4.44,1.6,10.49,3.86,10.49,8.54v.68l-.65-.09c-1.88-.15-3.67.12-5.4.37-2.47.37-5.03.74-7.68-.22-.03.46-.03.96-.03,1.45.62.22,1.23.46,1.79.68,1.57.62,3.08,1.23,4.69,1.11l.46-.03.15.4c1.26,3.18-.49,5.27-2.1,7.13-1.73,2-3.21,3.73-1.76,6.82l.06.19-.03.25c-.34,1.27-1.88,4.23-2.84,5.55l-.34.46-.49-.31c-.19-.12-.37-.19-.65-.22-1.05,2.38.4,4.84,2.53,8.02l.31.43-.4.37c-2.56,2.34-5.95,2.28-9.01,2.25h-.15l-.12-.09c-1.39-.83-3.76-1.63-6.29-2.5-5.98-2.04-12.74-4.35-11.78-8.48l.15-.68.65.22c4.41,1.57,13.36-.12,18.32-4.63,1.88-1.67,3.89-4.41,3.12-8.11-.65-.31-1.3-.62-1.97-.89-3.33-1.45-7.1-3.12-6.39-8.3-3.21-2.07-5.86-2.47-8.67-2.87-2.13-.31-4.35-.65-6.88-1.73-4.75-1.97-10.3-6.02-15.21-9.59-1.57-1.14-3.05-2.25-4.47-3.24-1.45-1.02-3.21-2.99-5.09-5.15-3.12-3.52-6.94-7.83-9.25-7.19-2.22.65-2.96,3.12-3.7,5.52-.65,2.16-1.33,4.41-3.18,5.24-1.26.56-2.93.34-5.06-.65-.34.12-.56.34-.8.52-.06,1.42-.37,3.02-.8,4.44l-.03.19c-.31.8-.62,1.6-1.05,2.44l-.28.59-.59-.31c-11.01-6.35-26.5-8.21-34.86,2.44,1.57.86,3.64,1.54,5.15,1.73.43-.4,1.05-.74,1.08-.74l.89-.37-.06.99c-.34,5.61-4.94,9.47-9.44,13.23-5.4,4.53-10.49,8.82-9.13,15.92,2.04-.28,3.92.22,5.34,1.39,1.6,1.3,2.44,3.33,2.37,5.71v.28l-.25.19c-2.22,1.73-4.16,4.41-6.05,7-1.57,2.22-3.24,4.5-5.09,6.2-2.93,2.59-5.86,3.08-8.67,3.58-1.63.28-3.27.59-5,1.23-2.78,1.05-5.31,2.65-7.53,4.04-3.12,1.91-5.95,3.67-8.73,3.67-1.45,0-2.9-.46-4.35-1.6-1.36-1.08-2.65-2.65-4.01-4.9-1.3.56-2.75.68-4.16.8-.89.09-1.76.15-2.56.34l-.77.22.03-.83c.06-4.16-.71-5.4-1.36-5.71-1.39-.68-4.23,1.82-6.72,4.01-2.31,1.97-4.47,3.86-6.23,4.2l-.56.12-.19-.52c-.49-1.73-.03-5.12.52-9.07.77-5.49,1.76-12.34-.4-14-.68-.49-1.76-.49-3.18.12l-.83.37-.03-.93c-.12-3.15,1.2-7.59,2.78-12.74,3.05-10.33,6.91-23.23-1.2-28.26l-.49-.31.28-.46c.12-.31.25-.62.34-.89l.15-.43.49.03c.65.03,1.2.06,1.76.06h.89c1.54-1.76,2.56-3.18,2.47-6.08v-.71l.71.09c2.96.34,5.74.93,8.45,1.48,3.76.74,7.34,1.48,11.35,1.67,2.5.15,5.74.74,9.16,1.39,6.42,1.17,13.7,2.53,17.4.96,1.82-.8,3.05-2.07,3.79-3.98,1.91-4.87.25-13.73-4.75-24.92-.19-.46-.46-1.2-.74-2.04-.62-1.7-1.63-4.57-2.38-5.18-1.39-1.17-2.71-1.11-4.23-1.05-1.36.06-2.87.12-4.57-.65-2.28-.99-10.52-8.24-11.23-12.62-.25-1.33.28-2.13.74-2.56,1.33-1.2,3.12.34,4.69,1.7.62.56,1.6,1.36,1.91,1.36.74,0,1.3-.56,1.88-1.17.68-.65,1.42-1.42,2.62-1.54,4.78-.49,9.16-.15,13.02.99,1.05-2.22,2.5-4.32,4.23-6.05l.06-.06.71-.68.28.28c1.79-.77,3.05-2.81,4.38-5.06,1.26-2.1,2.56-4.29,4.47-5.71l.25-.19.28.09c1.6.43,11.1-8.24,14.07-11.88,4.35-5.31,3.46-9.32,2.19-14.87l-.49-2.28.71-.06c5.21-.31,12.22-.68,12.65-7.74l.06-1.05.93.56c.56.4,1.42.56,2.25.71.62.15,1.2.28,1.73.43.74-1.7,1.05-3.83.77-5.65-5.77-2.28-5.03-9.62-4.47-15.55.15-1.51.31-2.9.34-4.13l.03-.71.68.09c1.39.22,2.99.71,4.69,1.2,4.01,1.17,8.58,2.5,11.17.65,1.42-.99,2.16-2.87,2.31-5.65-2.41-1.57-7.9.09-12.74,1.6-2.87.86-5.58,1.7-7.47,1.79-1.79.12-3.79.49-5.92.93-6.26,1.23-13.33,2.65-16.04-3.92l-.12-.37.25-.28c.68-.8,1.39-1.54,2.07-2.25,2.31-2.34,4.32-4.41,4.47-7.93-1.85.06-3.42-.34-4.97-.71-.62-.15-1.2-.31-1.82-.43l-.86-.15.43-.74c.28-.56.59-1.26.89-2,.56-1.33,1.17-2.81,2.1-3.95-1.82-2.34-2.99-6.05-1.73-9.53-2.13-.4-3.45-1.33-3.98-2.75-1.67-4.53,5.8-12.74,11.23-18.79,2.04-2.19,3.76-4.13,4.35-5.18,2.47-4.16,2.13-9.1,1.82-13.88-.31-4.94-.65-9.99,2.16-14.04-.62-.25-1.26-.43-1.91-.56l-.31-.06-.12-.31c-.62-1.33-1.2-2.47-1.73-3.42-1.17-2.22-1.94-3.67-1.42-5.06.52-1.39,2.1-2.38,6.35-4.01,1.67-.65,3.24-1.08,4.81-1.51,5.21-1.48,8.98-2.53,9.59-8.73l.03-.34.34-.15c.52-.25,1.33-.43,1.94-.59.19-.03.37-.06.52-.09l.28-.09.22.15c1.11.77,1.39,1.51,1.6,2.41l.31-.06c.06.46.19.56.19.56.4,0,1.6-1.42,1.97-1.91.34-.37.59-.68.77-.83.43-.37.83-.74,1.23-1.14,1.33-1.2,2.71-2.5,4.47-3.12.25-.09.49-.19.77-.25.83-.28,1.73-.52,2.34-.99.31-.22.59-.52.83-.86.34-.46.74-.99,1.36-1.33,1.05-.62,2.16-.86,3.27-1.11,1.39-.28,2.68-.59,3.83-1.57l.89-.77.09,1.2c.25,2.44,2.13,2.96,5,3.49,1.05.19,2.01.34,2.78.71.34.15.62.46.89.77.25.28.52.56.71.68.46.25.83.25,1.3.28.34.03.71.03,1.08.12,1.3.25,2.01.83,2.68,1.36.4.34.83.68,1.39.96,1.23.65,2.96.8,4.5.93.34.03.71.06,1.02.09,2.34.25,3.05.71,4.44,1.63.25.18.52.34.83.56.96.62,1.82.65,2.78.68.8.03,1.7.06,2.65.4,1.14.4,1.97,1.17,2.81,1.91.65.59,1.23,1.14,1.94,1.48.37.15.65.31.93.43,1.02.46,1.7.8,2.78,1.91l.19.19c.59.65,1.11,1.2,1.91,1.57.25.12.68.19,1.08.22.59.09,1.2.15,1.67.49.74.62,1.08,1.26,1.02,1.97-.09.89-.86,1.7-2.31,2.44l-.52.28c-1.17.59-1.57.77-1.42,2.22l.03.28-.15.18c-.06.09-.15.19-.25.28-.15.22-.37.43-.56.71l-.18.28h-.74l-.18-.12c-.96-.77-3.86-2.22-4.66-1.76-.22.15-.19.68-.12.96l.12.96-.89-.25c-.46-.12-.74-.09-.86.15-.25.4-.03,1.39.52,1.94.12.09.28.12.56.19.37.06.86.19,1.33.68.31.37.43.8.59,1.23.09.4.22.77.43.99.56.62,1.33.93,2.16,1.23.8.31,1.67.65,2.44,1.3,1.14.99,1.45.96,2.34.89.43-.03.96-.06,1.67-.03.96.06,1.33.09,1.6.62.03.09.12.25.52.49.31.22.52.46.68.68.34.34.34.4.96.03.96-.52.86-1.3.46-2.81-.09-.43-.19-.8-.25-1.17-.28-.28-.56-.68-.52-1.23.06-.59.52-.83.77-.96.03-.03.12-.06.12-.09.12-.65.03-.93-.12-1.39-.09-.34-.22-.74-.31-1.39-.06-.46,0-.96.06-1.42.06-.37.09-.77.09-1.08-.03-.34-.06-.56-.06-.74-.09-.92-.09-1.17.34-2.19.15-.34.34-.71.46-1.02.56-1.2.99-2.16,1.14-3.55.09-.96,0-1.94-.12-2.96-.12-1.2-.28-2.41-.09-3.7.4-2.44.15-4.6-.09-6.85-.12-1.08-.25-2.19-.28-3.33-.03-.49-.12-1.05-.22-1.6-.09-.59-.19-1.17-.22-1.7,0-.62.19-1.05.37-1.48.12-.31.25-.56.25-.8.03-.74-.25-1.42-.52-2.13-.28-.74-.59-1.51-.59-2.41-.03-1.88.74-4.32,2.37-5.34.93-.62,2.07-.74,3.18-.89,1.02-.12,2.01-.22,2.56-.71.34-.28.59-1.3.77-1.97.06-.25.12-.46.19-.65-.56-.77-1.39-1.23-2.04-1.45-1.08-.52-2.84-1.33-4.1-.99l-.12-.49-.03.03v.68l-.43-.12c-1.54-.93-2.56-1.17-4.01-1.3-.93-.12-1.6.03-2.41.22-.56.15-1.11.28-1.79.31-.43.03-.86-.09-1.23-.22-.25-.09-.59-.22-.68-.15-.37.12-.43.19-.56.43-.12.25-.31.56-.68.89-1.23,1.05-1.85,1.27-2.87,1.27-.28,0-.59-.03-.96-.03l-.77-.06c-1.7-.09-2.93-.31-4.81-1.23q-1.17-.59-2.34-.62h-.28c-.28-.03-.46-.06-.68-.06-.71-.03-1.45-.06-2.31-.59-.68-.46-1.05-1.08-1.45-1.67-.28-.4-.56-.8-.89-1.14-.22-.19-.49-.37-.8-.56-.43-.28-.93-.56-1.3-.92-.99-.96-1.48-2.07-1.97-3.15l-.12-.25-.09.15c-1.51-1.23-2.13-3.33-2.65-5.4l-.37-1.51,1.33.83c1.42.93,2.65,1.91,3.89,2.87,1.54,1.2,2.99,2.38,4.75,3.3.68.4,1.39.68,2.1.99.89.37,1.82.77,2.75,1.3l.37.22c1.08.65,3.64,2.19,4.69,1.94l.34-.06.25.31c.12.15.22.28.28.37.8-.03,1.82.09,2.56.37,2.1-1.48,4.44-1.27,6.76-1.08,1.3.12,2.13-.19,3.15-.56.56-.22,1.14-.43,1.82-.56,1.26-.28,2.53-.31,3.76-.31.71,0,1.42-.03,2.13-.06.59-.06,1.27,0,2.01.06,1.02.09,2.13.12,3.05-.06l-.12-.09c.77-1.14,2.25-1.91,3.45-1.79.77.09,1.42.46,1.85,1.11.52-.09.99-.06,1.42-.03.46.03.89.09,1.39-.06.52-.15,1.2-.59,1.85-1.02.49-.34,1.02-.65,1.48-.86l.31-.19.28.19c.52.34,1.11.18,1.51,0,.25-.83.62-1.76,1.45-2.53l.28-.15.19-.03c.12-.06.31-.09.37-.12l.28-.12.25.09c1.42.62,2.44,1.76,2.68,3.05.25.06.49.09.74.15.86.15,1.82.34,2.59.96,1.45,1.17,1.33,2.44,1.2,3.42,0,.25-.03.46-.03.65,1.08-.37,2.65-.71,3.79-.83-.71-.43-.89-1.14-1.05-1.67-.12-.49-.25-.89-.62-1.2-.43-.34-.83-.43-1.33-.49-.65-.12-1.39-.25-2.04-1.11-.43-.52-.65-1.27-.86-2.01-.15-.49-.28-.99-.46-1.26-.15-.25-.34-.49-.56-.74-.37-.46-.71-1.02-.83-1.63-.46-.12-.89-.25-1.33-.34-.71-.18-1.39-.34-1.97-.52l-.06.28-.43.03c-1.11.15-1.76-.34-2.25-.74-.31-.25-.56-.46-.96-.56-1.08-.15-1.23-.06-1.57.15-.31.19-.71.43-1.57.65-1.54.37-3.42.59-4.94-.71-5.58,3.64-9.78,4.9-12.49,3.7-1.39-.62-2.25-1.48-3.08-2.28-.52-.49-1.05-1.05-1.7-1.51-1.11-.83-1.82-.8-2.68-.8-.71.03-1.51.03-2.56-.37-1.14-.4-2.07-1.39-2.93-2.34-.49-.56-.96-1.08-1.45-1.45-1.05-.83-2.25-1.11-3.55-1.42-1.05-.25-2.13-.49-3.08-1.05-1.7-1.08-1.85-2.41-2.01-3.7-.06-.68-.15-1.39-.43-2.13-.71-1.82-2.01-3.15-3.83-4.01l-.37-.15v-.4c0-.37.77-2,.83-2.07l.12-.19.25-.09c1.76-.49,2.84.22,3.79.83.93.62,1.76,1.14,3.3.68,3.15-.92,6.35-1.11,9.9-.59.03-.15.09-.28.09-.4-.22.03-.4.03-.62.03-.83.03-1.63.09-2.31-.09-.71-.19-1.14-.52-1.45-.8-.19-.19-.34-.31-.49-.34-.93-.31-1.79-.4-2.65-.46-.96-.09-1.94-.19-2.93-.59-2.04-.96-3.49-3.33-4.01-4.32-.25-.46-.37-1.02-.46-1.54-.12-.59-.28-1.2-.56-1.33-.12-.06-.49-.15-1.48.34l-.4.18-.31-.31c-1.23-1.23-2-2.5-2.37-3.89-3.02.89-4.66-.96-6.14-2.62-.77-.89-1.6-1.82-2.59-2.31-.34-.19-.8-.22-1.27-.25-.46,0-1.02-.06-1.54-.28-.43-.22-.59-.59-.71-.93-.12-.31-.25-.62-.46-.71-.22-.15-.65-.15-1.02-.15-.49-.03-.99-.06-1.42-.25-.59-.22-.89-.52-1.11-.74.31,1.33.43,2.71-.31,4.01l-.46.83-.56-.77c-.43-.59-.8-1.2-1.2-1.88-.68-1.17-1.39-2.38-2.38-3.27-.28-.25-1.51-.8-2.47-1.23-1.2-.52-2.31-1.02-2.87-1.39l-.56-.43c-.77-.56-1.63-1.17-2.41-1.7-.89-.65-1.85-1.3-2.78-1.97-2.13-1.54-4.32-3.12-6.54-4.47-.86.37-1.91.59-2.96.77-1.17.25-2.41.46-3.05.86-.25.15-.52.28-.8.37-.65.28-1.3.59-1.48,1.05-.15.43.22.86.71,1.39.37.4.77.8.59,1.33-.56,2.41-1.05,2.56-3.33,2.87l-.89.12c-.59.09-1.08.15-1.57.15-.68,0-1.17-.09-1.7-.22-.37-.09-.8-.19-1.36-.22-.28,0-.49.03-.71.12-.22.03-.43.12-.68.15l-.37.06-.25-.31c-.15-.25-.28-.52-.37-.77v-.03c-.37.06-.71.09-1.08.09-2.93,0-5.46-1.97-7.56-3.92l-1.23-1.11,1.67.06c.96.03,1.91.03,2.9.03,2.34,0,4.26-.12,6.05-.4q2.28-.31,2.68-.99c.25-.4.65-1.02,1.45-1.94,2.25-2.56,4.1-3.64,6.29-3.64,1.36,0,2.9.46,4.81,1.39.8.4,1.57.86,2.31,1.33.18-.12.4-.22.52-.4.52-.68.52-.96.52-1.02-.03-.12-.34-.34-.65-.56-.65-.43-1.51-1.05-2.16-2.31l-.34-.68.71-.22c3.3-.99,8.76-.56,12.25.4,1.67.49,2.96,1.27,4.23,2.04.62.37,1.23.71,1.85,1.02-.19-.65-.25-1.36-.09-2.16-2.07-.89-3.3-1.94-4.6-3.12-.56-.46-1.14-.99-1.79-1.48-1.26-.96-3.27-1.63-5.06-2.22-.56-.22-1.11-.4-1.63-.56-1.33-.49-3.05-.83-4.87-1.2-4.69-.89-9.99-1.94-12.15-5.98l-.89-1.73,1.76.89c1.2.62,2.53.49,3.95.37.86-.09,1.79-.19,2.71-.06.49.06,1.05.15,1.67.28,1.82.31,4.01.71,5.43-.06-.68-.4-1.42-.65-2.41-.8-1.08-.22-2.13-.22-3.24-.25-1.39-.03-2.81-.03-4.26-.43l-1.42-.37c-1.94-.49-3.95-1.05-5.98-1.39l-1.3-.28c-2.01-.4-3.92-.8-5.77-.96l-1.02-.06c-2.53-.15-4.69-.31-7.34-1.11-1.54-.46-2.96-.37-4.44-.28-1.14.03-2.28.12-3.55-.03-2.13-.28-5.21-1.26-7.1-2.31-1.7-.89-3.18-1.33-4.75-1.79-1.02-.31-2.07-.59-3.21-1.05-2.16-.77-3.36-2.07-4.57-3.33-.62-.68-1.23-1.3-1.97-1.85l-.56.46c-.31-.06-.74-.25-.77-1.02ZM1375.9,266.31c-2.04-1.79-2.93-4.63-4.01-6.85-.25.15-.49.25-.8.18-7.19,14.62-27.18,3.49-23.26-9.07-9.96-8.7-4.16-16.53-4.13-28.9-6.02,1.94-6.66,16.63-8.27,21.93-2.71,9.01-5.95,10.7-1.54,19.68,3.15-1.11,6.6-.49,9.62-.56.25,5.15,6.45,11.54,11.6,11.54-.8,2.28-2.75,3.86-5.03,4.57-.18-.28-.37-.46-.56-.65-1.02.49-1.94.99-2.75,1.42-.74-.4-1.45-.93-2.13-1.23-4.16,5.61.68,7.25,1.48,12.31.49,2.96-1.82,4.16-1.48,6.57.25,2.04,3.27,4.32,3.83,6.29-2.19,1.54-5.18,3.02-7.99,3.83.4.68,1.05,1.67,1.57,2.31-4.9,4.6-8.85.4-12.37,8.82,13.42-1.3,24.06-1.54,33.59-11.41.83-.83,4.35-4.44,4.53-5.49.62-3.67-2.31-2.81-2.71-6.45-.49-4.75.93-12.96,1.85-18.45,11.75,13.48,8.39-1.05,8.95-10.4ZM1456.32,381.62c2.31,1.88,2.68,3.98,3.12,6.39.06.4.15.8.22,1.26l-.59.12.22.49c-.4.31-1.94,2.56-2.01,3.12.06.71.59,1.17,1.17,1.67.52.43,1.17.99,1.23,1.79.62,6.08,2.34,7.93,4.94,10.73,1.2,1.3,2.59,2.78,4.04,4.9l.28.34-.71,1.05c-1.23,1.88-2.81,4.23-4.9,5.89.31-.09.59-.18.93-.28,2.16-.62,4.38-1.23,5.95-2.65,1.45-1.33,2.47-3.36,3.45-5.31.93-1.85,1.82-3.61,3.05-4.78.77-.71,1.67-1.02,2.53-1.36,1.05-.37,2-.71,2.84-1.67.52-.62,1.45-2.1,2.28-3.39.86-1.39,1.39-2.19,1.63-2.44,2.13-1.91,8.82-3.24,16.53-4.78,10.21-2.01,22.92-4.53,25.79-8.98.52-.77.71-1.6.56-2.47-.89-1.2-2.65-3.33-3.79-4.6-4.69,1.08-5.86-.25-7.34-2.44-.62-.89-1.33-1.94-2.59-2.9-3.15-2.38-5.18-2.78-8.88-3.55-.86.06-2.44.15-3.64-.12l-.34-.06-.12-.28c-1.3-3.3-8.02-6.08-12.37-6.88l-.52-.09.03-.56c.15-2.81,1.17-5.61,2.25-8.27-.8-.56-2.04-1.05-2.9-1.2-.37.52-.8.89-1.23,1.3-.56.49-1.08.96-1.39,1.63l-.18.4-.43-.03c-2.59-.28-3.24.25-4.5,2.65,1.63,3.58,5.31,5.83,9.59,5.68l.89-.03-.31.86c-.96,2.78-3.42,4.9-7.31,6.32-1.02,2.16-1.11,5-.22,7.68l.19.52-.52.22c-2.07.92-3.61,1.02-5.95.22l-.71-.22.4-.68c.4-.74.59-2.07.77-3.33.12-.93.25-1.91.49-2.71-1.11-.12-2.19-.31-3.21-.46-2.22-.37-4.32-.74-5.89-.22l-.12.06-.15-.03c-.59-.06-1.17-.34-1.67-.83l-.37-.37.31-.43c.28-.37.62-1.23.93-2.1.34-.89.71-1.79,1.08-2.5-.12-.12-.31-.25-.43-.4-4.87,1.82-8.85,2.1-11.91.86.28,2.16.96,3.95,1.54,5.55,1.42,3.76,2.56,6.79-2,11.66ZM1344.99,88.17c.43,1.02.89,2.1.93,3.36.03,1.54.18,2.68.49,3.76.19-.59.49-1.11.77-1.54.37-.56.68-1.02.71-1.7.09-.99-.46-2.5-.96-3.79-.65.06-1.3,0-1.94-.09ZM1192.82,591.94c47.87,24.4,94.95,47.6,144.37,63.3,25.97,8.21,51.64,12.37,76.22,12.37,15.64,0,31.16-1.7,46.15-5.03,16.6-3.67,30.66-8.95,42.51-16.01-41.12-19.68-67.4-57.31-78.14-112.01-.34-1.67-.56-3.3-.68-4.81-2.47-.52-4.78-.99-7.68-1.08-.62-.03-1.76.15-2.93.34-1.08.22-2.9.52-3.27.34-.8-.52-.71-1.33-.46-2.62.15-.99.37-2.1-.37-2.87-.52-.52-.93-.99-1.33-1.36-2.34-2.5-2.5-2.56-6.23-2.31-.59.06-1.26.12-2.07.15-4.57.28-5.12.15-8.64-.8l-.86-.22c-1.39-.34-3.15-.96-5.03-1.63-3.21-1.11-6.72-2.31-9.72-2.68v-.03l1.14-2.44-2.1,1.7c-.28.25-.56.43-.8.59h-.03c-1.2,0-2.28.22-3.12.65l.37.68c-.34.15-.65.31-.96.43-.25-3.21-2.38-3.76-4.13-4.19-1.51-.37-2.84-.71-3.3-2.5-.43-1.76,3.12-5.55,4.6-7.16.46-.49.8-.86.99-1.11l.28-.34-.25-.37c-1.63-2.44-2.5-5.43-3.33-8.3-.93-3.18-1.79-6.14-3.61-8.27l-.4-.43-.43.37c-1.39,1.14-2.62,1.54-3.86,1.27-3.02-.77-5.15-5.92-5.86-7.59l-.15-.4h-.43c-2.65.06-5.58,1.23-8.42,2.34-1.7.68-3.27,1.3-4.78,1.7-1.76.46-3.73.71-5.8,1.02-2.78.37-5.64.8-8.05,1.67-1.2.4-2.16,1.2-3.05,1.94-1.17.99-2.25,1.88-3.79,1.97-1.51.12-2.65-.71-3.86-1.57-.99-.74-2.04-1.54-3.27-1.6-2.56-.12-4.9.68-7.16,1.45-2.59.89-5,1.73-7.37,1.02l-.43-.12-.25.34c-2.78,3.7-6.02,4.53-9.41,5.4-2.16.52-4.35,1.08-6.51,2.38-2.96,1.73-5.12,3.58-7.19,5.4-2.81,2.44-5.46,4.72-9.84,6.29-2.65.93-4.75.89-6.76.86-.99,0-1.97,0-2.99.09-.22,0-.62.06-1.17.12-1.73.19-6.23.65-6.79.59-.89-.31-2.19-1.42-3.55-2.59-2.38-2.07-5.03-4.35-7.53-4.35-2.04,0-3.55,1.63-4.5,4.94l-.06.22.09.25c.99,1.94.93,4.53-.12,6.6-.93,1.79-2.47,2.99-4.35,3.3l-.34.03-.12.31c-1.36,2.75-3.49,4.78-5.77,5.43-1.67.46-3.3.22-4.87-.8l-.59-.34-.31.59c-1.33,2.53-2.99,4.07-4.87,5.86-.65.62-1.33,1.23-2.01,1.94-3.24,3.3-3.49,4.16-4.07,6.23-.15.65-.37,1.42-.77,2.5-.22.62-.49,1.3-.8,2.07-1.91,5.03-4.84,12.52-1.7,16.07.28,8.08-11.01,15.98-17.21,18.45-1.42.56-2.68.99-3.86,1.39-2.22.8-4.19,1.48-6.45,2.78,7.71,3.89,15.36,7.74,22.98,11.63l1.2.62ZM1213.65,320.89c.09.39.21.81.3,1.25.38,1.63.81,3.43,1.48,4.88-.99.2-1.96.52-2.89.81-2.31.73-4.5,1.31-6.28.6l-.41-.16-.28.33c-.93,1.06-1.48,2.48-1.67,3.46l-.09.47.43.21c.65.3,1.25.77,1.85,1.26.87.71,1.83,1.48,3.09,1.88-.11,1.09-.82,3.16-1.56,5.34-1.67,4.83-3.57,10.33-1.86,12.71,1.34,1.88,4.37,1.48,9.51-1.39,1.91-1.09,4.07-2.75,6.19-4.36,1.64-1.26,3.19-2.45,4.55-3.3,2.18-1.4,6.79-6.6,5.92-9.54-.27-.96-1.25-2.08-4.28-1.91.08-6.57,9.02-8.94,14.79-9.79.33,1.01.58,1.99.84,2.97.65,2.54,1.26,4.96,3.41,7.18-.14.05-.25.14-.47.28l-.3.21c-.79-.02-3.38-.4-5.12-.65-1.58-.24-1.99-.3-2.15-.3h-.21l-.14.11c-1.47.96-2.18,1.85-2.21,2.78-.05,1.25,1.09,2.15,2.43,3.19.88.7,1.86,1.47,2.56,2.4-.68.27-1.31.65-1.93,1.01-.87.52-1.69,1.03-2.72,1.22l-.43.09-.06.41c-.11.7-.35,1.55-.6,2.46-.71,2.57-1.45,5.24-.36,6.68.87,1.14,2.57,1.18,5.31.08-.55,1.22-1.75,2.76-2.92,4.29-2.57,3.35-5.23,6.82-3.13,8.89.6.58,1.31.88,2.08.88,2.04,0,4.03-2.1,5.48-3.66.51-.52,1.01-1.06,1.25-1.2l1.18-.68c2.19-1.26,2.59-1.48,6.13-2.32,1.14-.27,2.34-.52,3.55-.79,10.45-2.24,23.45-5.01,24.36-19.44l.05-.73-.73.06c-3.24.3-6.44-.57-8.87-2.27.43-.84.71-1.83.98-2.81.3-1.07.62-2.2,1.11-2.97l.43-.69-.77-.24c-.36-.11-.58-.41-.92-.85-.22-.28-.46-.62-.79-.9l-.25-.22-.32.08c-.52.14-1.26.13-2.02.08-.49-.02-.98-.05-1.45-.02-.74-2.84-2.59-4.55-5.15-4.72-.74-1.01-1.85-1.89-2.59-2.48l-.03-.02c-.24-2.08-.05-4.53.51-6.17l.22-.63-.68-.16c-1.66-.35-4.33-.84-6.6-.46-3.02-3.17-1.82-5.38-.14-8.43,1.03-1.86,2.18-3.96,2.48-6.65l.03-.3-.24-.22c-.19-.16-.41-.36-.63-.57-.43-.41-.88-.85-1.28-1.17l-.43-.38-.41.43c-2.34,2.35-4.2,2.92-5.4,1.42-1.28-1.59-1.71-5.24-.98-8.49l.21-.9-.92.16c-1.8.3-3.46.82-5.04,1.34-2.42.77-4.69,1.49-7.42,1.49-.62,0-1.25-.03-1.88-.09l-.52-.08-.14.52c-1.25,4.37.52,6.52,2.05,8.43.98,1.2,1.83,2.24,1.88,3.73.05,1.8-.96,2.87-2.15,4.12-1.31,1.37-2.79,2.95-2.65,5.7l.03.68.68-.09c.52-.06,1.14.03,1.82.13.51.06,1.03.14,1.52.14.3.99.73,3,.84,3.93-1.37.74-3.36,1.18-5.13.99-1.07-1.63-2.04-1.93-3.14-2.27-.43-.13-.92-.27-1.47-.52l-.43-.19-.3.33c-1.83,2.04-4.48,2.79-7.09,3.32l-.63.13.16.65ZM722.77,474.81c-.06-1.48-.12-3.02-.06-4.57.09-2.04.74-3.89,1.42-5.83.65-1.97,1.36-3.98,1.45-6.17.12-2-.03-3.73-.15-5.4-.19-2.34-.34-4.57.19-7.31.25-1.2.49-2.41.77-3.58.65-2.84,1.33-5.77,1.3-8.7,0-3.52.03-5.34.77-9.13.09-.46.19-.89.31-1.39.8-3.46,1.76-7.77.4-10.95l-.31-.71-.65.49c-6.48,22.27-11.48,45.16-14.87,68.54-.22,1.48-.43,2.96-.62,4.44,3.33-1.63,6.66-3.21,10.06-4.69.12-1.73.06-3.39,0-5.06ZM753.57,346.71c-1.39,3.05-2.84,6.14-5.34,8.64,68.39-160.96,217.47-279.2,396.33-304.21t.03.03l-.56,1.08h-.03c-.37.65-.89,1.27-1.48,1.85-.37.37-.71.71-1.02,1.08.77.43,1.3.25,2.1-.03.71-.22,1.48-.49,2.44-.34,1.42.19,2.31,1.08,2.93,1.7.34.37.68.68.93.74.99.22,1.88-.12,2.81-.49.89-.37,1.82-.74,2.84-.62.89.09,1.57.62,2.22,1.11.49.4.96.77,1.54.89,1.91.4,3.86-.03,5.89-.52,1.54-.37,3.12-.68,4.72-.74,3.05,0,6.17.19,9.22.34l2.28.12.15.43c.28.93.19,1.82-.25,2.59-.31.56-.8,1.02-1.39,1.42.09,0,.19-.03.28-.06,1.97-.37,4.01-.74,6.29-.37,1.54.25,3.15.46,4.75.68,1.42.18,2.84.4,4.26.62l.34.03.12.34c.25.49.25.96,0,1.48l-.09.18-.15.09c-2.53,1.36-5,1.45-7.37,1.54-1.11.06-2.25.09-3.39.28-1.51.18-2.84.77-4.29,1.39-1.51.62-3.05,1.3-4.94,1.57-1.36.25-2.71.22-4.04.19-1.85-.03-3.61-.06-5.15.62-2.93,1.23-5.21,4.23-6.91,6.54.43.4,1.02.71,1.63,1.02.56.31,1.11.59,1.63.99l.56.43-.49.49c-2.56,2.62-6.05,3.7-9.13,4.66-1.08.31-2.07.62-3.02.99-1.97.77-3.61,1.97-5.34,3.27-1.88,1.42-3.86,2.87-6.42,3.83l-.22.06-.19-.06c-4.13-1.39-7.22-2.9-9.13-4.47l-.52-.46.52-.49c.19-.15.43-.65.65-1.05.09-.19.19-.34.28-.49-1.36-.22-2.93.25-4.53.71-1.54.46-3.18.93-4.69.83l-1.02-.06c-2.1-.12-4.94-.31-6.72-1.08-2.19-.89-3.3-1.94-3.33-3.18-.03-2.41,4.35-4.44,8.61-6.42,1.73-.8,3.3-1.54,4.38-2.22-.86-.09-1.91-.15-3.08-.15-3.33-.06-6.82-.12-7.65-1.85l-.28-.52.52-.28c.86-.49,1.94-.83,3.02-1.11,1.76-.56,3.46-1.02,4.26-2.28-.83-.15-1.6-.22-2.44-.25-.37-.03-.77-.06-1.17-.09l-2.59-.25,2.41-.96c.52-.22.86-.56,1.23-.96.03-.03.06-.06.12-.09-1.05-.4-1.94-1.17-2.47-2.16l-.46-.83.96-.06c.96-.06,1.82-.15,2.62-.28l-.12-.06c-2.71-.8-5.37.34-7.96,1.42l-.93.4c-1.36.59-2.9,1.14-4.5,1.73-2.25.83-4.6,1.67-6.66,2.68-2.13,1.05-4.35,1.85-6.51,2.62-1.97.74-3.83,1.42-5.61,2.28-1.08.49-2.28,1.39-3.52,2.38-2.71,2.07-5.77,4.44-9.04,3.89-.74,1.17-1.63,1.26-2.41,1.39-.46.06-.93.09-1.39.4-.83.59-1.51,1.45-2.25,2.34-.68.83-1.42,1.73-2.31,2.41-1.6,1.17-3.24,1.79-4.87,2.44-1.26.46-2.47.93-3.42,1.57-1.26.86-2.99,1.67-4.81,2.47-2.81,1.3-5.92,2.68-7.9,4.66l.31-.09c2.99-.77,6.72-1.79,8.91-2.84l.86-.43.03.99c0,.68-.12,1.3-.37,1.88,1.82-2.38,3.83-4.63,6.2-5.52,1.02-.4,2.38-.62,3.58-.83.71-.09,1.36-.22,1.85-.34.59-.12,1.14-.31,1.63-.49,1.14-.37,2.28-.77,3.64-.59,0-.03,0-.06.03-.12-.68-1.05-2.25-1.2-3.83-1.23l-1.23-.03.77-.99c1.05-1.33,8.21-4.04,11.44-3.76.59.06,1.02.22,1.36.43l.46-.43c1.33-1.17,2.71-2.38,4.2-3.39-.25-.4-.22-.89.06-1.33,1.48-2.71,12.55-5.77,14.96-5.77h.03l.68.03-.06.65c-.19,2.28-2.01,3.02-3.58,3.67-.77.31-1.48.62-2.04,1.08-1.14.89-2.1,2.59-1.85,3.18.12.25.77.43,2.22.12l2.22-.46-1.7,1.54c-.19.15-.31.37-.46.62-.03.03-.06.03-.06.06.77.09,1.67-.03,2.53-.12,1.17-.15,2.28-.28,3.18-.03l1.26.31-1.05.77c-1.88,1.45-3.95,2.9-6.54,3.39-.68,1.14-1.88,1.94-3.02,2.53.74.56,1.26,1.02,1.51,1.3.49-.22.93-.52,1.39-.83.83-.56,1.67-1.14,2.78-1.23l.46-.06.15.43q.06.06.19.12l.34.18.09.4c.03,1.42.96,2.47,2.41,2.75l.52.09v.49c0,.96.83,1.6,1.82,2.34.93.68,1.94,1.42,2.41,2.62,1.23.37,2.41.37,3.33,0-.31-.56-.46-1.17-.62-1.73-.09-.34-.15-.65-.28-.93l-.28-.65.71-.18c1.6-.4,2.65-.89,3.45-1.64l.22-.22.31.06c.59.12,1.3.09,2.04.06.34,0,.68-.03,1.02-.03h.37c.99.06,1.6.28,2.25.49.46.19.93.34,1.6.46,2.13.46,4.35.71,6.26.03.46-.31,1.36-.49,2.47-.49,3.92,0,10.83,2.44,11.97,5.71.22.59.28,1.36-.19,2.19,1.39-1.2,3.33-1.36,4.69-.34,2.16-.74,3.79-1.3,6.08-.99,1.82.19,6.11.96,8.05,1.88,1.2.56,2.13,1.23,2.96,1.91,1.05.83,2.04,1.6,3.58,2.1.49.15,1.11.37,1.79.65,1.76.68,4.16,1.51,5.34,1.23l.68-.15.06.71c.06.83-.06,1.48-.49,1.94-.62.71-1.6.77-2.68.83-.43.03-.89.06-1.33.12.09.19.19.37.28.52.22.49.4.96.74,1.3l.46.46-.49.43c-.62.49-.86.99-.8,1.45.19.86,1.42,1.88,3.08,2.47,1.57.56,3.42.15,5.18-.31,1.39-.4,2.84-.77,4.29-.59l.22.09c3.89,2.07,8.45,2.25,12.22.37l.37-.19.28.25c1.2.99,4.13,1.63,6.29,1.91l.68.09-.15.65c-.12.52-.28.99-.4,1.48-.28.86-.52,1.7-.56,2.56,1.45-.03,2.81.59,3.73,1.67l.34.4-.34.4c-.22.28-.46.59-.74.86-1.17,1.3-2.19,2.44-1.7,4.07l.06.18-.09.22c-.06.15-.15.25-.22.34.89.22,1.94-.22,2.96-.65.65-.31,1.36-.62,2.04-.74.77-.16,1.82-.12,2.81-.06.43.03.86.06,1.3.06,1.11,0,1.91-.22,2.68-.71l.65-.4.28.71c.52,1.45.15,3.24-.99,4.87-1.26,1.82-3.18,2.87-4.78,2.53-1.3,1.73-5.58,10.55-6.14,12.15l.06.09-.22.34c-.19.28-.37.56-.56.8-1.14,1.63-1.79,2.71-1.05,3.86l.06.28c.22,1.67-.25,3.15-.68,4.47-.28.92-.59,1.82-.59,2.65,0,.12.12.28.37.56.43.4,1.05,1.05.86,2.22-.22,1.57-1.3,2.22-2.25,2.81-.56.34-1.11.68-1.51,1.17-.74.89-1.3,1.7-1.79,2.38-1.2,1.67-2.13,2.99-4.57,4.35l-1.6.93c-1.57.89-3.18,1.85-4.72,2.81-.37.28-.71.71-1.05,1.14-.4.49-.77.99-1.3,1.36-.59.4-1.17.37-1.7.34-.56-.03-.93,0-1.2.31-.93,1.2-.62,1.85-.06,2.9.28.59.62,1.2.74,2.04.4,2.5-.31,6.54-2.1,8.64-1.14,1.33-2.62,1.76-4.23,1.27.12,1.11-.19,2.19-.89,3.18-4.35,6.26-23.6,8.36-31.71,8.36-1.42,0-3.3-.06-4.57-.34-.31.31-.65.59-.99.93-3.21,2.9-7.59,6.85-11.26,7.99-.71.19-1.57.12-2.38.03-.49-.09-1.02-.15-1.39-.09-.56.15-.96.43-1.45.74-.62.4-1.33.86-2.34.96-1.54.12-3.08-.09-4.57-.28-1.14-.19-2.31-.37-3.45-.37h-.4c-1.76.06-3.55.03-5.31-.06-1.76-.06-3.52-.12-5.27-.03-.28.65-.43,1.33-.59,2-.25,1.2-.52,2.44-1.45,3.55-.49.68-1.45,1.3-2.47,1.97-.83.56-1.7,1.14-2.19,1.7-.49.49-.93.99-1.36,1.48-.65.74-1.3,1.48-2.01,2.13-1.54,1.51-2.53,1.85-3.61,2.19-.43.15-.89.28-1.42.52-2.81,1.23-4.63,3.49-6.35,5.61-2.5,3.05-5.06,6.2-10.36,6.48-.49.86-.93,1.76-1.36,2.62-1.36,2.81-2.56,5.18-5,5.18-1.14,0-2.44-.56-3.98-1.67l-.34-.28c-2.44-1.82-2.62-2.04-3.18-5.24-.09-.46-.09-1.02-.12-1.63-.03-1.94-.19-2.84-.89-2.84-.25,0-.62.06-1.26.37l-.28.15-.28-.15c-3.98-1.82-3.27-7.59-2.53-10.86,1.57-7.13,3.61-12.99,6.35-18.48.62-1.23,1.26-2.31,1.88-3.36.65-1.14,1.3-2.22,1.82-3.39.34-.71.59-1.57.89-2.5.59-1.94,1.23-4.16,2.87-5.61.8-.71,1.57-1.08,2.31-1.42.93-.4,1.76-.77,2.65-1.79,1.82-2.13,2.93-2.9,4.78-4.13l1.11-.77c.68-.43,1.54-1.33,2.47-2.25,2-2.1,4.32-4.44,6.51-4.44,1.14,0,2.1.62,2.84,1.91.43-.62.77-1.23,1.11-1.88.37-.77.8-1.54,1.42-2.34l.22-.31.37.06c.93.12,1.42-.34,2.07-.96.34-.34.77-.74,1.3-1.02.59-1.63,1.2-2.93,2.16-4.78l.28-.56.56.28c.12.06.28.09.4.09.43,0,1.36-.4,2.68-3.12.22-.46.43-.83.59-1.17q.68-1.23-1.85-2.81l-.37-.22.09-.43c.34-1.73,1.23-2.59,2.78-2.62.89-1.82,2.53-5,3.95-6.42.77-.74,1.63-1.2,2.47-1.67,1.05-.56,2.04-1.11,2.75-2.1.43-.62.62-1.54.83-2.41.15-.86.34-1.79.8-2.47,1.14-1.97,1.54-2.19,2.5-2.38.4-.06.86-.15,1.76-.65,4.26-2.59,3.49-4.94,2.56-6.48-.8-1.36-1.6-1.42-2.5-1.48-.71-.06-1.48-.12-2.13-.8-.77-.8-.8-1.94-.83-2.96,0-.8-.03-1.54-.37-1.97-.28-.31-.93-.43-1.57-.52-.74-.12-1.48-.22-2.04-.65-.65-.4-3.24-3.7-3.55-4.35-.62-1.3-.74-2.5-.86-3.67-.19-1.57-.31-2.9-1.57-4.38-1.33-1.51-3.58-3.3-4.9-2.41l.12.25c.62,1.33,1.42,2.96,2.47,3.83l.15.12.06.22c.99,4.75-3.02,5.74-6.26,6.51-1.73.43-3.36.83-4.16,1.67l-.49.52-.43-.56c-4.23-5.46-5.4-12.09-3.55-20.3.37-1.57,1.08-3.02,1.76-4.44.8-1.6,1.57-3.18,1.82-4.84.25-1.67-.34-3.11-.93-4.63-.15-.37-.28-.74-.4-1.11-.59.34-1.11.62-1.48.77-1.45.62-2.75.59-4.01.56-1.17,0-2.28-.03-3.39.4-.86.31-1.51.86-2.19,1.42-1.08.89-2.31,1.94-4.26,1.6-.03.06-.09.15-.12.22-.06.06-.12.12-.19.19,1.33.71,3.15,0,4.94-.65.62-.25,1.23-.46,1.76-.62l.62-.19.15.62c.86,3.58-3.64,5.06-7.62,6.35-1.94.62-3.95,1.3-5.15,2.13-.03.06-.06.15-.09.22,1.17-.06,2.07.19,2.84.46.52.18,1.05.34,1.63.37,1.3.12,2.28-.31,3.42-.77.68-.31,1.39-.59,2.22-.8l1.14-.25-.37,1.08c-.8,2.16-2.78,4.16-5.09,5.4,1.3-.43,2.56-1.23,3.83-2,1.2-.74,2.31-1.42,3.39-1.79l3.49-1.08-2.93,2.19c-.8.59-.59,1.23.09,2.78.56,1.3,1.26,2.9.56,4.63-1.33,3.24-3.61,3.15-6.02,2.99-.62,0-1.26-.06-1.97-.03-.83.03-1.67.06-2.47.09-5.71.19-10.61.34-15.82,3.76-1.2.77-2.41,1.42-3.61,2.04-1.54.77-2.96,1.48-4.29,2.5-.62.49-1.02,1.08-1.48,1.73-.43.56-.83,1.14-1.45,1.7-.4.4-.68.68-.89.93-.62.62-.99,1.02-2.28,1.6-.8.4-1.51-.15-1.94-.49-.09-.09-.22-.19-.31-.25-1.23.52-2.31,1.48-3.45,2.44-1.23,1.05-2.5,2.1-3.95,2.75-.56.22-1.3.43-2.13.65-.06.03-.15.03-.25.06.52.06,1.02.19,1.45.46l.46-.06c3.21-.59,5.55-1.05,7.74-3.86l.19-.25h.31c.06,0,.19-.03.31-.03h.31l.22.28c.25.37.37.46.56.56.19.06.37.15.59.34.89-.4,1.79-.74,2.87-1.08.4-.56.77-1.11,1.14-1.7.86-1.36,1.73-2.75,2.96-3.67,1.2-.93,2.44-1.2,3.52-1.48,1.73-.4,2.81-.62,3.02-3.42l.03-.52.89-.09c4.2-.56,7.84-.99,11.57-2.93,3.55-1.79,8.33-2.34,12.49-1.51l.62.12-.12.59c-.19.96-1.08,1.79-2.25,2.47l.31.25c.49.34,1.2.65,1.97,1.02,1.73.77,3.7,1.7,4.47,3.36l.19.43-.34.28c-1.08,1.02-1.08,2.31-1.08,3.67,0,1.82-.03,3.86-2.81,4.94-2.38.89-3.89-.34-5.21-1.45-.96-.74-1.79-1.45-2.87-1.48.31.65.96.99,1.82,1.45.8.43,1.73.89,2.34,1.79l.4.62-.68.28c-.28.15-.59.43-.89.74-.19.19-.37.37-.59.52.12.18.25.4.4.59l.19.25-.09.28c-.65,2.34-1.94,3.73-3.21,5.06-.74.8-1.48,1.6-2.16,2.65-.28.4-.49.71-.65.96-.62.93-.68.99-.96,2.13-.09.34-.03.89.03,1.45.09.71.22,1.57,0,2.31-.99,3.76-3.08,4.6-5.52,5.55-.56.22-1.11.43-1.67.71-1.14.52-1.88,1.39-2.59,2.22-.71.83-1.48,1.73-2.56,2.19-.34.89-.4,1.76-.46,2.68-.06.74-.12,1.51-.31,2.28-.22.77-.56,1.51-.93,2.25-.59,1.14-1.17,2.31-1.05,3.36.06.15.46.37.74.52.65.4,1.51.93,1.63,1.94.34,2.31-.77,3.64-1.97,5.03-.22.25-.4.49-.62.77l-.25.31-.4-.09c-.99-.28-2.65.37-4.23.96-1.3.52-2.62,1.05-3.79,1.11-.86.09-1.54.06-2.07.03-.99-.06-1.6-.09-3.08.71-1.02.56-1.91,1.54-2.78,2.53-.68.71-1.36,1.48-2.1,2.04l-.43.31-.37-.37c-.8-.8-.86-.93-.93-.99l-.31-.46.43-.34c.86-.8,1.11-1.91,1.42-3.21.22-.99.46-2.04,1.02-3.02.46-.83,1.02-1.45,1.54-2,.74-.8,1.36-1.48,1.54-2.53-3.55,1.51-6.39,3.49-9.13,7.77-.25.43-.65,1.76-1.05,3.02-1.23,4.13-2.22,7.06-3.89,7.43-.25.03-.59.03-.96-.12-.49,1.17-1.33,1.85-2.34,1.85h-.03c-.99,0-1.94-.68-2.5-1.82-.28.34-.49.68-.77,1.02-.89,1.26-1.94,2.71-4.32,2.13l-.43-.12-.03-.43c-.09-1.11.19-2.28.49-3.42.37-1.45.62-2.53.37-3.36-.46,1.3-1.3,2.19-2.1,3.08-.74.83-1.45,1.6-1.91,2.68-.52,1.33-.49,2.81-.46,4.35.03,2.5.09,5.12-2.44,7.06l-.89.71-.09-1.14c-.06-.71-.09-1.57-.12-2.56-.09-4.53-.28-12.12-3.92-12.65l-.4-.06-.09-.4c-.52-2.41,1.08-4.63,2.65-6.79,2.13-2.96,3.33-4.9,1.48-6.94l-.43-.46.49-.43c2.19-1.91,3.49-4.63,2.9-5.98-.52-1.23-2.47-1.33-4.04-1.2l-1.73.15,1.51-1.45c3.39-3.27,4.6-4.44,9.72-3.73,2.5-2.22,5.95-1.67,9.29-1.14,3.67.56,6.88,1.08,8.36-2.04l-.43-.28c.09-.12.49-.49.93-.68.34-.37.56-.74.71-1.17l.25-.52.12-.03c0-.06-.03-.12-.03-.15l.59-.22v-.22h-.03c-.25,0-.56.03-.86.03-1.91.12-3.58.25-3.95-.77-.37-.86.65-1.85,1.63-2.65l.12-.09.19-.03c1.85-.31,3.95-.86,5.31-1.51-1.67-.15-3.24-.46-4.72-1.6l-.71-.56.8-.46c.43-.28.99-.71,1.57-1.14,1.26-1.02,2.62-2.07,3.79-2.13,1.3-.09,2.16.43,2.9.89.56.37,1.11.68,1.91.77.15-.12.34-.25.52-.37.09-.06.22-.15.31-.22.09-2.78,1.63-3.55,2.99-4.19,1.05-.49,2.04-.96,2.56-2.34.15-.43.31-.99.12-1.27-.37-.49-1.94-.49-3.33-.49-.59,0-1.23-.03-1.85-.06-1.67.8-4.6,1.97-5.43,2.13-1.26.25-2.13.31-2.75.34-1.39.09-1.48.09-3.18,2.56-.22.34-.43.65-.62.93-1.26,1.91-1.91,2.87-4.94,3.98-.62.25-1.3.4-1.94.56-.68.19-1.33.34-1.88.56-.43.19-.93.49-1.51.83-.89.56-1.85,1.14-2.65,1.26-.25.03-.46.03-.68.03-1.82,0-3.49-.99-5.12-1.94-.52-.34-1.08-.65-1.6-.93-1.23-.62-2.19-.96-3.12-1.11-.19.28-.4.56-.46.77-.4.99-.77,1.94-1.14,2.87-.71,1.82-1.36,3.55-2.25,5.46l-.25.52c-1.42,2.99-4.38,9.19-8.17,9.96l-.71.12-.03-.71c-.09-1.45.83-2.62,1.73-3.76.12-.19.28-.4.43-.59-.03-.09-.09-.22-.15-.37,0-.06-.03-.12-.06-.18-.65.06-1.23,0-1.82-.09-.46-.06-.93-.15-1.36-.12l-.8.03.19-.77c.09-.49.34-1.08.71-1.6-1.39.68-2.93,1.67-4.26,2.53-.56.34-1.08.71-1.57.99.8.19,1.85.34,2.62.25l.68-.09v.68c.06,1.54-.68,2.99-2.13,4.2-3.18,2.62-9.56,3.76-12.92,3.02l-.71-.15.28-.68c.4-1.05,1.14-1.85,1.88-2.59.71-.77,1.45-1.48,1.7-2.41-1.82-.37-5.21.99-6.54,1.54-2.25.89-3.86,2.22-5.68,3.73-.56.46-1.11.96-1.7,1.42l-.15.12h-.19c-.34.03-.68.06-1.02.06-1.08,0-2.07-.22-2.34-1.05-.62-1.7,2.65-4.32,8.91-8.58.77-.52,1.36-.92,1.63-1.14,1.17-.96,2.1-2.31,2.99-3.64.74-1.08,1.42-2.1,2.25-2.96,1.11-1.11,2.68-1.42,4.1-1.7,2.1-.4,2.87-.68,2.75-1.94l-.09-.77.8.09c1.54.19,2.04,1.23,2.41,2.1.28.56.52,1.08,1.02,1.39.96-.71,1.48-1.85,2-3.05-1.08-.28-1.91-.71-2.65-1.17-.96-.59-1.82-1.14-3.24-1.2-1.85-.06-4.41,1.08-7.68,3.39-.62.46-1.2,1.08-1.85,1.76-1.79,1.85-3.79,3.95-6.79,2.9l-.89-.34.99-1.05c.96-1.02,2.04-2.13,2.13-3.36-1.42.93-2.78,1.67-4.1,2.38-1.11.62-2.22,1.23-3.33,1.91-2.07,1.27-3.7,2.99-5.43,4.84-1.3,1.39-2.65,2.84-4.23,4.07-1.82,1.42-3.52,2.5-5.18,3.52-3.79,2.38-6.88,4.29-8.61,9.38.83-.18,1.48-.77,2.22-1.39.83-.71,1.7-1.45,2.87-1.7l.8-.15-.03.8c-.12,2.31-1.97,4.69-3.58,6.76-.65.83-1.26,1.63-1.73,2.34-1.54,2.53-2.96,5.31-2.93,8.64.06,4.26-.15,4.97-2.47,8.48-.59.86-1.11,1.85-1.67,2.9-1.23,2.22-2.5,4.53-4.29,6.11-.46.4-.89.74-1.33,1.08,1.45.25,2.5.62,3.7,1.02l.77.28c.86.28,1.45.52,1.91.71,1.11.49,1.11.46,3.67-.93l.46-.22c1.94-1.02,6.54-3.39,6.51-5.34,0-.68-.56-1.3-1.67-1.88-2.07,1.39-6.2,3.21-8.85,3.21h-.22l-.96-.03.43-.83c3.27-6.97,11.2-8.7,16.47-9.87.59-.12,1.33-.28,2.16-.43,5.18-.96,12.99-2.44,12.25-8.33l-.09-.74.74.03c6.29.31,8.95-2.19,13.05-6.66l.34-.4.43.28c2.25,1.45,3.95-.37,6.51-3.49,1.6-1.97,3.12-3.86,5-4.16l.31-.06.22.22c.19.19,1.23,1.6,1.36,1.85l.12.25-.09.28c-.09.22-.19.43-.31.65-.37.83-.8,1.79-.8,2.81.86-.03,1.57.15,2.13.62.99.83,1.2,2.34,1.2,3.95.37,0,.74.06,1.11.12.49.06.99.15,1.3.06l.71-.15.06.74c.28,3.83-2.47,6.72-4.87,9.32-.65.68-1.26,1.36-1.82,1.97.65,0,1.3-.06,1.97-.15.68-.09,1.36-.19,2.04-.19l.74-.03-.09.74c-.43,2.96-3.55,4.57-6.29,5.98-1.54.8-2.99,1.51-3.86,2.38-1.26,1.23-1.42,1.88-1.73,3.02-.15.52-.31,1.11-.59,1.91-.46,1.23-1.17,2.31-1.88,3.33-.71,1.02-1.39,1.97-1.63,2.96-.46,1.91-.25,2.25-.22,2.28.34.19,2.22-.86,2.84-1.23,2.5-1.33,4.47-2.04,6.79-2.81,2.59-.8,4.5-2.56,6.54-4.38,1.6-1.48,3.3-3.02,5.43-4.07l.93-.52-.03,1.08c-.15,3.61-2.93,7.09-5.65,10.46-2.19,2.68-4.23,5.24-4.78,7.65-.22,1.05-.31,2.22-.37,3.36-.12,1.97-.25,3.98-1.2,5.65-.31.49-.52.89-.77,1.3l-.34.62c-.06.25-.09.49-.22.74l-.15-.06c-.19.31-.37.65-.56.93l-.06.15c-.34,2.07-.74,3.86-1.91,4.9-.93.83-1.79.96-2.53,1.11-.83.15-1.45.28-2.19,1.36-.46.74-.77,2.59-.77,5-.03,1.33.25,2.68.46,3.95.34,1.97.71,3.98.22,6.02-.19.83-.62,1.57-1.02,2.31-.96,1.63-1.54,2.65.43,3.89l.19.12.06.15c3.02,6.97-2.31,12.03-6.6,16.1-.62.59-1.23,1.17-1.79,1.73.12.15.22.31.34.43.25.37.46.68.8.86l.31.19v.34c.15,3.3-2.19,4.01-4.26,4.66-.65.19-1.33.4-1.91.68-1.17.52-2.04,1.33-2.96,2.22-.96.83-1.91,1.73-3.18,2.34-.28.09-.68.15-1.6.31-1.14.19-4.66.71-4.84,1.54-.06.15.12.56.83,1.11.46.34,2.28-.03,3.45-.31,1.02-.22,2.01-.43,2.71-.37l.4.03.15.37.74.31-.34.71c-.99,1.33-2.56,1.94-4.07,2.53-.37.15-.77.28-1.17.46.03.03.09.06.12.12.4.46.8.89,1.33,1.11l.77.28-.49.68c-.12.16-.25.52-.37.86-.06.18-.12.37-.19.59.71.22,1.48.09,2.38,0,.86-.12,1.73-.25,2.65-.06.89-.62,1.23-.59,2.1-.34.19.06.4.12.71.19l.52.15-.06.52c-.28,2.07-1.23,3.08-2.28,4.2-.4.43-.8.86-1.2,1.39-1.42,2-1.36,2.81-1.17,4.35.09.71.19,1.57.15,2.68,0,2.13-.34,3.18-1.11,3.55-.93.46-1.97-.31-3.18-1.2-1.76-1.33-3.08-2.19-4.23-1.11l-.46.43-.4-.46c-.31-.31-.56-.65-.86-.96-.8-.99-1.57-1.91-2.53-2.1.09.4.25.96.37,1.39.52,1.88,1.14,4.01.25,5.18-.37.49-.93.8-1.76.74-1.14-.06-2.01-1.91-3.27-5.37-.06-.12-.09-.25-.12-.34-2.75-.49-3.83-1.63-4.97-2.87-.56-.59-1.08-1.2-1.91-1.79-.31-.25-.93-.46-1.57-.65-.83-.28-1.79-.59-2.47-1.11-.43-.34-.77-.83-1.08-1.3-.43-.59-.8-1.17-1.42-1.45l-.8-.31.56-.65c1.26-1.45,3.61-1.26,5.65-1.11,1.42.12,2.87.22,3.45-.28.06-.03.12-.12.19-.28l-.37-.19c-1.23-.56-2.5-1.14-3.42-1.82l-.71-.56.8-.46c.93-.56,2.04-.96,3.08-1.36,1.36-.52,2.75-1.02,3.89-1.88.43-.34.8-.99,1.17-1.67.52-.86,1.02-1.76,1.82-2.31.74-.52,1.67-.68,2.56-.83.86-.15,1.67-.28,2.19-.71.59-.49.93-1.17,1.26-1.88.43-.89.96-1.91,2.07-2.65,1.23-.83,2.9-1.11,4.35-1.36.62-.09,1.2-.19,1.73-.34.4-.09.83-.19,1.33-.28,2.22-.46,5.15-1.11,6.35-2.62-.34.09-.71.15-1.08.28-5.58,1.39-10.4,2.47-12.09,1.14-1.11.34-2.31.8-3.58,1.36-3.08,1.3-6.6,2.78-9.99,1.45-1.73-.65-3.05-1.97-4.35-3.24-.52-.49-1.05-1.02-1.6-1.45-.49-.4-1.14-.96-1.67-1.42l-.8-.68c-.31-.25-.71-.52-1.14-.77-.59-.37-1.3-.8-1.88-1.39-.77-.77-1.36-1.57-1.88-2.28-1.26-1.67-2.16-2.87-4.78-3.24-2.1-.28-2.78.18-3.92.99-.65.46-1.45,1.05-2.71,1.54-2.34.96-4.9.99-7.37.99s-4.69.03-6.82.8c3.27.15,6.35.43,9.62.71l2.81.25c1.91-1.45,3.79-1.82,5.27-1.11,1.45.71,2.28,2.31,2.28,4.5.22,1.23.52,2.01,1.11,2.93l.12.12v.18c.12,2.71-2.1,6.05-5.12,6.29-.62.03-1.17-.06-1.67-.25l-1.94.37c0,.06-.12.12-.28.25-.19.18-.43.4-.68.56.09.22.15.43.22.65.19.49.31.93.62,1.23l.19.15v.31c-.09,1.94-2.47,3.15-4.78,4.32-1.02.52-2.07,1.08-2.81,1.63.06.06.12.12.19.19.31.31.49.52,1.11.65l.31.06.12.25c.83,1.67.68,3.27-.46,4.44.31.28.71.49,1.33.65,2.34-1.48,3.64-.89,4.1-.59.65.46.93,1.26.71,2.07-.31,1.23-1.6,2.65-4.35,3.21.22.65.96,1.36,3.49,1.63,2.9-.74,9.99-4.72,10.98-7.47l1.91-5.43-.71,5.74c-.09.74-.03,1.57.06,2.44.15,1.14.25,2.34-.09,3.49-.37,1.33-1.11,1.97-1.73,2.56-.46.37-.83.71-1.14,1.27-1.08,2.25-.37,3.89.43,5.83.59,1.39,1.17,2.84,1.14,4.6l-.03.43-.37.15c-.19.03-.37.12-.52.22-.22.06-.4.19-.62.28l-.37.12-.28-.28c-.62-.59-1.11-1.2-1.57-1.79-1.14-1.45-2-2.47-3.76-2.19-1.88,1.88-3.95.4-5.46-.71-.12-.09-.28-.19-.4-.28-2.9,1.11-4.66.06-6.35-.92-1.08-.62-2.1-1.23-3.45-1.33-.86-.03-2.07.56-3.21,1.14-2.04,1.05-4.57,2.34-6.35.34-1.82,1.91-5,3.58-7.87,3.3l-1.02-.12.59-.86c.56-.8,1.02-1.82,1.51-2.93.96-2.13,2-4.5,4.01-5.77,1.76-1.14,3.64-1.2,5.46-1.27.89-.03,1.79-.06,2.68-.22.52-.52.74-.99.68-1.27-.22-.68-2.25-1.17-3.89-1.57-1.82-.43-3.67-.89-4.69-1.82-.37.34-.71.62-1.02.86-1.73,1.54-2.28,1.88-5.34,1.11l-.83-.19c-2.22-.52-2.62-.62-5.49.09-.43.12-.86.22-1.26.31-1.88.46-3.12.74-4.97,2.41l-.8.8c-1.23,1.23-2.84,2.9-4.72,2.56.06.86.37,2,.68,3.02.49,1.7.93,3.18.49,4.16-1.08,2.31-2.5,1.73-3.64,1.26-.49-.25-1.02-.43-1.54-.49-.8-.09-1.39-.12-1.94-.15-1.6-.06-2.68-.09-4.97-1.57-.83-.56-1.33-1.05-1.67-1.42-.68-.68-.74-.74-2.62.46-1.05.65-1.88,1.48-2.68,2.28-1.3,1.23-2.65,2.56-4.78,3.27-.62.25-1.45.31-2.34.37-.96.06-2.07.15-2.59.49-.28.15-.43.49-.62.93-.22.46-.43,1.02-.96,1.39-1.17.93-2.84,1.6-4.47,2.25-3.05,1.2-5.95,2.34-5.68,5l.03.4-.37.19c-2.31,1.26-4.66,7.16-5.31,8.91-.31.89-.52,1.88-.71,2.81-.46,2.1-.86,4.04-2.34,4.69-1.02.46-2.28.25-4.01-.68-1.63,1.85-4.32,2.22-6.51,2.5-.4.06-.77.09-1.14.15-4.16.68-4.94-.06-6.91-2.78-.22-.28-.46-.62-.71-.93h-.12c-.46.06-1.91,1.82-2.78,2.84-1.17,1.42-2.28,2.78-3.15,3.21-.83.4-1.54.74-2.22,1.02-2.65,1.23-3.98,1.85-5.74,5.31-.37.77-.62,1.54-.89,2.41-.25.71-.46,1.42-.77,2.1-.59,1.48-1.26,2.16-1.94,2.84-.37.37-.71.74-1.08,1.27-1.36,1.97-1.57,3.86-1.82,6.02-.15,1.23-.31,2.5-.68,3.86-1.45,5.52-4.16,13.42-8.67,19.53-1.91,2.56-3.36,4.66-4.35,8.11-.22.74-.34,1.63-.49,2.59-.49,3.11-1.11,6.97-4.53,7.71l-.62.12-.12-.65c-.56-3.45.19-8.08.86-12.15.15-.89.31-1.79.43-2.59.46-3.3,1.82-6.05,3.15-8.7.89-1.82,1.82-3.67,2.47-5.77.56-1.85.86-3.7,1.17-5.49.49-3.12,1.02-6.35,2.99-9.62l.56-.93c1.7-2.78,5.15-8.36,3.3-10.92-.49.37-1.05.62-1.57.83-.34.15-.65.31-.86.43l-.8.59-.15-1.02c-.28-1.88.09-3.73.43-5.52.28-1.57.59-3.24.46-4.84-.06-.62-.03-1.45-.03-2.38.03-2.07.09-5.06-.77-6.29-.71.52-1.26,1.23-1.85,1.94-.68.83-1.39,1.7-2.34,2.28l-.8.49-.15-.93c-.52-3.39-.46-11.54.37-15.21.37-1.67.96-3.33,1.6-5.12,1.26-3.64,2.59-7.34,2.1-11.07-2.31,5.15-5.52,10.58-7.8,14.34-.96,1.57-1.76,3.3-2.5,4.97ZM907.72,296.43c.8.8,1.76,1.36,2.81,1.67l.62.18c-.34-.22-.65-.46-.99-.68-.96-.74-1.6-1.23-2.44-1.17ZM1067.1,125.5c.06.03.15.03.22.06,1.7.15,4.13-1.02,5.18-1.91l.09-.09c-1.73.89-3.92,1.54-5.49,1.94ZM1036.5,142.1c.4.09.89.12,1.36.15.4-.25.77-.43.93-.56,1.36-1.08,1.57-2.28,1.79-3.67.09-.56.19-1.17.37-1.79-.22.06-.4.12-.59.19l-.56.15c-.28.4-.59.83-1.02,1.14-.4.59-.71,1.3-1.02,2.01-.37.83-.77,1.67-1.26,2.38ZM1083.85,90.62c0,.34.09.65.15.99.28-.15.56-.31.83-.49,1.14-.68,2.22-1.36,3.21-1.79l.06-.03c-.74-.46-1.33-.8-1.48-.8-.62-.09-1.11-.12-1.51-.12-1.11,0-1.14,0-1.23,2.1l-.03.15ZM1118.46,61.99c2.13-.43,3.67-1.14,4.63-2.13-1.14.4-2.25.96-3.24,1.45-.49.22-.96.46-1.39.68ZM1019.57,119.49c.31.15.37.15.96-.03l.37-.09.22.06c.25.06.4.19.52.28.09.09.12.12.22.12,2.31-1.76,4.16-.52,5.65.43.83.56,1.67,1.11,2.47,1.11h.03c.59-.03,1.48-.49,2.31-.93,1.54-.77,3.08-1.57,4.35-.89.74.46,1.23,1.39,1.42,2.84.77-.06,1.73-.22,2.22-.4.74-.65,1.36-1.2,1.97-1.73.74-.56,3.12-2.1,5.46-1.33.93-.77,2.16-1.23,3.33-1.45-.06,0-.09-.03-.12-.03-.99-.31-2.38-.74-2.47-2.41l-.06-.8.77.15c.46.06.74-.03,1.08-.12.22-.09.43-.15.68-.19.86-1.7,2.16-1.97,3.3-2.25.8-.19,1.51-.34,2.19-.89.52-.46.68-1.14.83-1.85.03-.19.12-.31.15-.49-1.2.12-2.53.09-3.83,0-2.93-.19-5.74-.4-7.43,1.6.86.09,1.51.46,1.91,1.02.56.83.49,1.94-.19,3.15-1.42,2.41-4.07,1.94-6.02,1.63-.28-.06-.56-.12-.8-.15-2.62-.34-4.78.19-7.06.74-1.85.46-3.79.96-6.02.96h-.31l-.93-.03.37-.83c.59-1.45,1.63-2.62,2.56-3.67,1.94-2.19,3.12-3.52.46-6.2l-.4-.43.4-.43c1.2-1.23,1.79-2.5,1.76-3.86-.03.03-.09.06-.12.12-1.73,1.42-5.06,4.19-6.82,6.76l.25-.03c.15.83-.37,1.85-1.39,2.96,0,.28.03.56.12.8.37-.65.8-1.27,1.17-1.73.25-.34.52-.74.59-.89l1.17.4c-.12.34-.37.71-.77,1.2-.49.68-1.11,1.54-1.42,2.38l-.28.83-.34-.28c-.03.09.03.18,0,.28-.19,1.45-1.51,2.38-2.78,3.27-.62.43-1.23.86-1.73,1.33ZM902.19,237.85c3.39-1.67,6.26-5.06,9.01-8.33,1.11-1.33,2.16-2.56,3.21-3.67,2.22-2.31,4.23-5.43,5.98-8.27-.68.4-1.39.74-2.07,1.11-2.65,1.36-4.9,2.5-6.79,6.05-1.14,2.13-2.78,3.98-4.38,5.8-2.1,2.34-4.1,4.6-4.97,7.31ZM1817.11,520.34c-13.63,44.79-39.82,76.81-82.83,91.65-23.29,7.99-47.23,9.38-71.29,8.33-12.52-.49-23.29,4.1-33.87,9.38-12.86,6.48-11.72,20.45-13.17,32.02-12.22,105.62-59.72,186.22-148.04,239.03-27.3,16.16-56.02,27.76-86.22,35.6-2.87.83-5.77,1.36-8.82,1.7-2.41.34-5.61.86-5.77-3.05-.18-2.56,2.41-3.58,4.32-4.1,10.61-3.58,21.19-7.31,30.51-13.79,2.56-1.88,5.95-3.42,3.36-7.16-1.91-2.9-4.47-.52-6.72.83-15.58,10.24-33.56,13.48-50.74,18.42-7.37,2.22-13.02-2.75-17.18-6.82-5.61-5.61,1.3-5.95,4.5-6.29,19.74-2.9,38.37-9.56,56.51-18.08,7.71-3.73,15.24-8.17,22.64-12.77,2.87-1.88,8.82-3.24,5.61-8.36-2.25-3.39-5.77.52-8.82,2.22-27.45,16.53-56.36,27.95-88.32,30.51-12.03,1.02-20.54-3.24-26.81-13.48,1.91-4.07,5.46-2.87,8.17-2.87,39.36-1.73,74.99-16.53,110-34.09,3.02-1.54,7.87-2.56,5.61-6.97-1.79-3.58-6.11-1.2-9.16.49-35.47,19.09-73.2,29.98-112.38,35.44-5.95.83-12.06.83-17.49-4.6,7.37,20.27,28.07,48.89,52.32,73.94,20.88,21.62,44.48,39.67,71.94,59.1-28.26.49-52.81-.34-76.59-5.46-22.46-4.78-44.79-11.23-66.44-20.27-68.57-28.78-122.34-76.32-162.32-141.74-2.1-3.39-4.35-6.82-6.26-10.21-5.8-10.06-10.77-18.91,3.21-27.95,14.28-9.19,11.72-25.88,10.43-44.98-6.11,20.61-14.13,35.6-29.71,44.98-5.61,3.42-9.13,3.76-15.08,1.54-74.65-29.64-135.17-80.76-190.88-139.52-22.18-23.17-42.72-47.87-62.16-73.6-2.87-3.73-6.23-7.16-9.62-11.07-3.52,5.61-1.11,9.19,1.6,12.77,50.44,65.27,106.15,124.72,172.59,171.73,28.41,20.11,58.46,37.82,91.18,48.55,14.62,4.78,17.52,16.53,22.64,28.78-65.98-21.62-126.01-55.86-180.92-99.82-55.4-44.3-102.1-97.26-138.23-161.82-3.55,7.31-1.3,11.41,1.26,15.83,38.37,65.43,88.78,118.58,147.54,163.21,52.5,39.85,109.35,71.2,170.99,92.33,13.17,4.44,17.68,17.37,26.16,26.41.83.86,0,3.24-.15,4.94-2.07-.15-4.16,0-6.08-.68-19.28-5.95-38.87-11.07-57.65-18.57-37.42-14.81-74-32.02-108.21-54.17-56.51-36.62-107.07-80.42-149.3-135.27-21.19-27.58-39.82-56.73-56.85-87.21-1.26-2.22-.46-8.02-5.12-5.8-5,2.38-1.45,6.14,0,9.04,12.52,27.76,29.21,52.63,47.04,76.66,51.05,68.48,113.49,122.8,185.76,163.86,39.79,22.49,81.53,40.9,125.21,53.33,10.77,3.05,21.53,6.14,32.27,8.7,10.12,2.53,14.47,13.45,21.38,20.76,4.16,4.44,7.87,9.22,14.44,16.87-11.23-2.71-19.28-4.44-26.96-6.63-134.06-37.82-250.94-106.98-345.37-216.02-29.52-34.06-55.06-71.72-75.45-112.93-.96-2.07-1.26-5.31-2.71-5.98-2.75-1.17-.99-9.01-6.6-5.27-3.86,2.75-.62,6.14.49,8.36,11.23,23.66,24.4,46.15,39.18,67.62,40.93,59.29,90.07,110.06,146.43,152.63,47.66,36.12,98.9,65.09,153.31,87.76,41.09,17.03,83.01,30.66,126.2,40.35,9.47,2.07,14.59,10.73,21.99,15.67,1.6,1.05,2.41,2.75,1.26,4.63-1.76,2.87-4.81,1.7-7.06,1.51-19.59-2.56-39.64-3.58-58.73-8.17-29.55-7.16-58.46-16.16-86.71-28.44-58.92-25.91-122.06-60.65-171.66-102.54-63.27-53.52-106.76-111.14-160.5-182.31-12.52-16.57-26.34-31.83-33.9-51.79-1.76-4.6-3.67-9.35-4.32-14.31-2.75-18.72.96-20.27,18.29-16.5,23.29,5.09,47.2,3.58,70.64-.52,18.94-3.24,38.07-4.94,57.01-9.87,16.23-4.44,27.76,8.85,38.84,19.4,26.34,25.23,47.04,56.39,74.84,80.26,21.19,18.23,44.94,28.78,72.24,31.49,12.68,1.2,25.2,6.66,38.22,4.44,6.88-1.2,15.24-.52,17.64-10.58.65-.15,1.14-.34,1.76-.68-.31-.34-.62-.83-.8-.83-2.07-.52-2.41,0-1.6,1.02-24.86,2.04-48.8-2.04-72.89-9.53-27.61-8.51-47.2-28.13-66.78-48.06-19.9-20.08-39.18-40.87-58.58-61.48-14.47-15.33-32.3-20.45-51.7-17.74-27.61,3.76-55.25,8.51-82.7,13.3-7.87,1.36-15.08,2.04-22.8-1.36-10.58-4.78-11.88-9.72-2.41-16.69,24.25-18.23,53.33-29.71,83.19-34.24,60-9.1,103.52-3.76,155.22,12.77,84.31,27.08,163.27,67.28,242.43,107.5,48.8,24.86,97.94,49.05,149.95,65.58,46.39,14.65,94.24,18.72,141.62,8.17,40.93-9.04,77.37-28.29,100.65-67.99,2.1-3.58,6.11-6.82,3.55-12.59-16.07,14.13-32.45,3.58-46.73-1.88-38.22-14.99-56.82-48.03-64.87-88.93-.31-1.54.49-3.24.99-6.29,19.4,27.08,46.06,30.14,73.2,27.08,26.16-2.9,49.6-1.54,66.94,24.86,15.73-33.38,44.48-38.84,73.85-43.28,21.38-3.21,43.03-3.58,64.56-2.71,24.71.86,48.46-3.24,71.44-13.11,2.07-.86,4.01-2.04,5.77,0,1.76,2.04.96,4.41.15,6.48ZM1022.04,641.28c0-7.18-5.82-13-13-13s-13,5.82-13,13,5.82,13,13,13,13-5.82,13-13ZM1162.13,234.77h-.01c-.51.32-1.1.59-1.61.72l.23.9c.48-.14.99-.36,1.48-.63.7,1.13,1.52,1.98,2.5,2.48.2.09.4.15.62.2.79.19,1.53.02,2.19-.13.47-.11.91-.21,1.22-.14.3.07.72.35,1,1.94l.09.51.49-.15c.75-.21,1.67-.28,2.65-.36,2.67-.21,5.98-.45,6.63-4.26l.04-.22-.15-.16c-.37-.44-.49-1.03-.63-1.66-.07-.3-.13-.62-.23-.92.34-.08.72-.15,1.13-.24,1.43-.27,3.03-.57,3.73-1.59.75-1.06.99-1.7.81-2.19-.18-.5-.72-.64-1.19-.77-.48-.12-.96-.24-1.25-.69-.15-.19-.4-.3-.92-.5-.36-.13-.96-.38-1.13-.56-.2-.23-.16-.58-.08-1.11.07-.58.15-1.24-.27-1.79l-.16-.23c-.78-1.07-1.51-2.09-3.04-2.82l-.51-.25-.14.55c-.43,1.69-1.34,2.75-2.72,3.18-.89-1.37-2.37-1.7-3.82-.84-.22-.09-.44-.18-.67-.27-.72-.29-1.4-.56-2.09-.72-1.26-.3-2.31-.15-3.27.47-.35-.32-.81-.78-1.18-1.18,1-.26,1.3-.67,1.82-1.54.12-.2.25-.42.41-.68l.41-.64-.76-.07c-1.55-.14-3.03-.17-4.46-.18-.54,0-1.07-.01-1.62-.03h-.26s-.14.22-.14.22c-.04.07-3.89,8.03-3.63,8.56.16.49.58,1.1,1.61,1.34,2.03.48,5.62-.81,6.93-2.11.81.7,1.27,1.42,1.29,2.02,0,.44-.22.82-.67,1.19l-.65.52.78.27c.78.29,1.73.77,1.8,1.54.07.88-1,2.12-2.61,3.02Z"/>
  <g>
    <path class="cls-1" d="M110.48,1667.41c-7.73-4.51-13.88-10.59-18.44-18.23-4.56-7.63-6.84-15.87-6.84-24.72s2.28-17.06,6.84-24.65c4.56-7.59,10.71-13.64,18.44-18.16,7.73-4.51,16.06-6.77,25-6.77,6.89,0,13.48,1.37,19.77,4.12,6.28,2.75,11.8,6.54,16.55,11.38l-12.43,11.59c-3.07-3.54-6.68-6.29-10.82-8.24-4.15-1.96-8.5-2.93-13.06-2.93-5.77,0-11.15,1.54-16.13,4.61-4.98,3.07-8.97,7.19-11.95,12.36s-4.47,10.73-4.47,16.69,1.49,11.66,4.47,16.83c2.98,5.17,6.96,9.29,11.95,12.36,4.98,3.07,10.36,4.61,16.13,4.61,4.56,0,8.92-.98,13.06-2.93,4.14-1.96,7.79-4.7,10.96-8.24l12.29,11.46c-4.65,4.94-10.13,8.78-16.41,11.52-6.29,2.75-12.92,4.12-19.9,4.12-8.94,0-17.27-2.26-25-6.78Z"/>
    <path class="cls-1" d="M187.16,1574.88h17.04v97.64h-17.04v-97.64Z"/>
    <path class="cls-1" d="M239.26,1669.09c-5.96-3.4-10.69-8.01-14.18-13.83s-5.24-12.13-5.24-18.93,1.75-13.08,5.24-18.86c3.49-5.77,8.22-10.36,14.18-13.76,5.96-3.4,12.43-5.1,19.41-5.1s13.43,1.7,19.35,5.1c5.91,3.4,10.59,7.99,14.04,13.76,3.44,5.77,5.17,12.06,5.17,18.86s-1.72,13.11-5.17,18.93c-3.45,5.82-8.13,10.43-14.04,13.83-5.91,3.4-12.36,5.1-19.35,5.1s-13.46-1.7-19.41-5.1ZM269.57,1656.52c3.35-2.1,6.03-4.94,8.03-8.52s3-7.47,3-11.67-.98-8.05-2.93-11.59c-1.96-3.53-4.63-6.36-8.03-8.45s-7.05-3.14-10.96-3.14-7.68,1.04-11.04,3.14-6.03,4.92-8.03,8.45c-2,3.54-3,7.41-3,11.59s1,8.08,3,11.67c2,3.58,4.68,6.42,8.03,8.52s7.03,3.14,11.04,3.14,7.54-1.05,10.9-3.14Z"/>
    <path class="cls-1" d="M377.82,1600.3v72.22h-17.04v-9.78c-2.24,3.45-5.33,6.22-9.29,8.31-3.96,2.1-8.31,3.14-13.06,3.14-5.22,0-9.87-1.19-13.97-3.56-4.1-2.37-7.29-5.68-9.57-9.92-2.28-4.24-3.42-9.05-3.42-14.46v-45.96h16.62v42.61c0,4.94,1.4,8.96,4.19,12.08,2.79,3.12,6.42,4.68,10.9,4.68,4.94,0,9.1-1.51,12.5-4.54,3.4-3.03,5.1-6.73,5.1-11.1v-43.72h17.04Z"/>
    <path class="cls-1" d="M469.46,1574.88v97.64h-17.04v-11.45c-2.79,4.19-6.35,7.43-10.68,9.71s-9.1,3.42-14.32,3.42c-6.33,0-12.03-1.61-17.11-4.82-5.08-3.21-9.03-7.7-11.87-13.48-2.84-5.77-4.26-12.29-4.26-19.56s1.42-13.76,4.26-19.48c2.84-5.73,6.8-10.2,11.87-13.41,5.08-3.21,10.78-4.82,17.11-4.82,5.22,0,9.99,1.14,14.32,3.42,4.33,2.28,7.89,5.47,10.68,9.57v-36.74h17.04ZM446.55,1653.1c3.82-4.38,5.73-9.97,5.73-16.76s-1.91-12.36-5.73-16.69c-3.82-4.33-8.71-6.49-14.67-6.49s-11.04,2.16-14.95,6.49c-3.91,4.33-5.87,9.9-5.87,16.69s1.96,12.39,5.87,16.76c3.91,4.38,8.89,6.56,14.95,6.56s10.85-2.19,14.67-6.56Z"/>
    <path class="cls-1" d="M531.47,1576.55h17.32l50.7,67.47v-67.47h17.32v95.96h-17.32l-50.7-67.47v67.47h-17.32v-95.96Z"/>
    <path class="cls-1" d="M692.17,1606.93c5.54,5.54,8.31,12.92,8.31,22.14v43.44h-16.62v-8.52c-2.61,3.17-5.96,5.66-10.06,7.47-4.1,1.81-8.29,2.73-12.57,2.73-5.12,0-9.71-.96-13.76-2.87-4.05-1.91-7.24-4.61-9.57-8.1-2.33-3.49-3.49-7.52-3.49-12.08s1.31-8.8,3.91-12.43c2.6-3.63,6.15-6.47,10.61-8.52,4.47-2.05,9.4-3.07,14.81-3.07,6.42,0,13.13,1.26,20.11,3.77v-1.81c0-4.75-1.42-8.68-4.26-11.8s-7.29-4.68-13.34-4.68-12.29,1.82-19.56,5.45l-5.87-11.87c10.24-5.03,19.84-7.54,28.77-7.54,9.5,0,17.02,2.77,22.56,8.31ZM677.09,1658.55c3.68-2.14,5.94-5.03,6.78-8.66v-8.24c-5.59-1.77-11.46-2.66-17.6-2.66-4.38,0-8.06,1.1-11.04,3.28-2.98,2.19-4.47,4.96-4.47,8.31s1.35,6.05,4.05,8.1c2.7,2.05,6.1,3.07,10.2,3.07,4.38,0,8.4-1.07,12.08-3.21Z"/>
    <path class="cls-1" d="M758.87,1668.46c-2.05,1.77-4.45,3.17-7.19,4.19-2.75,1.02-5.52,1.54-8.31,1.54-5.96,0-10.83-1.96-14.6-5.87-3.77-3.91-5.66-8.89-5.66-14.95v-38.97h-10.48v-14.11h10.48v-19.83h16.48v19.83h16.34v14.11h-16.34v36.87c0,2.43.7,4.43,2.1,6.01,1.4,1.59,3.12,2.38,5.17,2.38,1.4,0,2.73-.23,3.98-.7,1.26-.46,2.31-1.12,3.15-1.96l4.89,11.45Z"/>
    <path class="cls-1" d="M774.44,1586.47c-1.91-1.96-2.86-4.24-2.86-6.84s.95-4.86,2.86-6.78c1.91-1.91,4.21-2.86,6.92-2.86s4.86.96,6.77,2.86c1.91,1.91,2.86,4.17,2.86,6.78s-.96,4.89-2.86,6.84c-1.91,1.96-4.17,2.93-6.77,2.93s-5.01-.98-6.92-2.93ZM772.84,1600.3h17.04v72.22h-17.04v-72.22Z"/>
    <path class="cls-1" d="M802.03,1600.3h18.16l20.95,52.52,20.54-52.52h18.02l-30.59,72.22h-15.92l-31.15-72.22Z"/>
    <path class="cls-1" d="M935.14,1658.4c3.73-1.4,6.75-3.21,9.08-5.45l9.78,10.06c-3.07,3.26-7.4,5.94-12.99,8.03s-11.03,3.14-16.34,3.14c-6.89,0-13.25-1.63-19.07-4.89-5.82-3.26-10.43-7.77-13.83-13.55s-5.1-12.29-5.1-19.55,1.63-13.6,4.89-19.28,7.73-10.15,13.41-13.41c5.68-3.26,11.92-4.89,18.72-4.89,11.08,0,19.76,3.82,26.05,11.45,6.29,7.64,9.43,18.07,9.43,31.29h-56.01c.93,5.77,3.28,10.41,7.05,13.9,3.77,3.49,8.4,5.24,13.9,5.24,3.63,0,7.31-.7,11.03-2.1ZM910.56,1617.13c-3.72,3.21-6.15,7.52-7.26,12.92h39.39c-.84-5.31-2.87-9.59-6.08-12.85s-7.47-4.89-12.78-4.89-9.54,1.61-13.27,4.82Z"/>
    <path class="cls-1" d="M1025.86,1670.07c-6.94-2.65-13.11-6.5-18.51-11.52l10.2-12.43c9.59,8.66,20.12,12.99,31.57,12.99,5.59,0,9.97-1.21,13.13-3.63,3.16-2.42,4.75-5.45,4.75-9.08,0-2.61-.77-4.73-2.3-6.36-1.54-1.63-3.82-3.02-6.84-4.19s-7.38-2.4-13.06-3.7c-7.45-1.77-13.55-3.7-18.3-5.8-4.75-2.1-8.47-4.94-11.18-8.52-2.7-3.58-4.05-8.26-4.05-14.04s1.47-10.45,4.4-14.87,7.01-7.87,12.22-10.34c5.21-2.47,11.12-3.7,17.74-3.7,13.88,0,25.98,4.47,36.32,13.41l-9.5,12.71c-4.19-3.63-8.61-6.4-13.27-8.31-4.66-1.91-9.36-2.86-14.11-2.86s-8.64,1.21-11.67,3.63c-3.03,2.42-4.54,5.35-4.54,8.8,0,2.51.76,4.61,2.3,6.28,1.53,1.68,3.86,3.07,6.98,4.19,3.12,1.12,7.43,2.33,12.92,3.63,11.08,2.51,19.41,5.84,25,9.99,5.59,4.14,8.38,10.27,8.38,18.37,0,5.77-1.42,10.87-4.26,15.3s-6.96,7.87-12.36,10.34c-5.4,2.46-11.87,3.7-19.42,3.7-8.1,0-15.62-1.33-22.56-3.98Z"/>
    <path class="cls-1" d="M1166.45,1600.3v72.22h-17.04v-9.78c-2.24,3.45-5.33,6.22-9.29,8.31-3.96,2.1-8.31,3.14-13.06,3.14-5.22,0-9.87-1.19-13.97-3.56-4.1-2.37-7.29-5.68-9.57-9.92-2.28-4.24-3.42-9.05-3.42-14.46v-45.96h16.62v42.61c0,4.94,1.4,8.96,4.19,12.08,2.79,3.12,6.42,4.68,10.9,4.68,4.94,0,9.1-1.51,12.5-4.54,3.4-3.03,5.1-6.73,5.1-11.1v-43.72h17.04Z"/>
    <path class="cls-1" d="M1195.92,1671.32c-5.59-1.91-10.57-4.54-14.95-7.89l7.26-11.17c3.91,2.79,8.03,4.96,12.36,6.5,4.33,1.54,8.45,2.3,12.36,2.3s6.82-.74,9.01-2.24c2.19-1.49,3.28-3.49,3.28-6.01s-1.24-4.56-3.7-5.87c-2.47-1.31-6.31-2.65-11.53-4.05-5.96-1.58-10.73-3.19-14.32-4.82-3.58-1.63-6.38-3.79-8.38-6.5-2-2.7-3-6.15-3-10.33s1.14-8.29,3.42-11.73c2.28-3.44,5.5-6.12,9.64-8.03,4.14-1.91,8.87-2.86,14.18-2.86,4.75,0,9.5.77,14.25,2.3,4.75,1.54,9.22,3.66,13.41,6.36l-6.7,11.45c-3.45-2.23-6.99-3.98-10.61-5.24-3.63-1.26-7.08-1.89-10.34-1.89s-5.96.72-8.1,2.16c-2.14,1.45-3.21,3.38-3.21,5.8,0,1.58.51,2.84,1.54,3.77,1.02.93,2.46,1.75,4.33,2.44,1.86.7,5.03,1.75,9.5,3.14,5.31,1.49,9.68,2.98,13.13,4.47,3.44,1.49,6.36,3.68,8.73,6.56,2.37,2.89,3.56,6.66,3.56,11.31,0,6.89-2.6,12.43-7.82,16.62-5.22,4.19-12.06,6.29-20.53,6.29-5.59,0-11.18-.96-16.76-2.87Z"/>
    <path class="cls-1" d="M1295.38,1668.46c-2.05,1.77-4.45,3.17-7.19,4.19-2.75,1.02-5.52,1.54-8.31,1.54-5.96,0-10.83-1.96-14.6-5.87s-5.66-8.89-5.66-14.95v-38.97h-10.48v-14.11h10.48v-19.83h16.48v19.83h16.34v14.11h-16.34v36.87c0,2.43.7,4.43,2.1,6.01,1.4,1.59,3.12,2.38,5.17,2.38,1.4,0,2.73-.23,3.98-.7,1.26-.46,2.31-1.12,3.15-1.96l4.89,11.45Z"/>
    <path class="cls-1" d="M1360.81,1606.93c5.54,5.54,8.31,12.92,8.31,22.14v43.44h-16.62v-8.52c-2.61,3.17-5.96,5.66-10.06,7.47-4.1,1.81-8.29,2.73-12.57,2.73-5.12,0-9.71-.96-13.76-2.87-4.05-1.91-7.24-4.61-9.57-8.1-2.33-3.49-3.49-7.52-3.49-12.08s1.31-8.8,3.91-12.43c2.6-3.63,6.15-6.47,10.61-8.52,4.47-2.05,9.4-3.07,14.81-3.07,6.42,0,13.13,1.26,20.11,3.77v-1.81c0-4.75-1.42-8.68-4.26-11.8s-7.29-4.68-13.34-4.68-12.29,1.82-19.56,5.45l-5.87-11.87c10.24-5.03,19.84-7.54,28.77-7.54,9.5,0,17.02,2.77,22.56,8.31ZM1345.73,1658.55c3.68-2.14,5.94-5.03,6.78-8.66v-8.24c-5.59-1.77-11.46-2.66-17.6-2.66-4.38,0-8.06,1.1-11.04,3.28-2.98,2.19-4.47,4.96-4.47,8.31s1.35,6.05,4.05,8.1c2.7,2.05,6.1,3.07,10.2,3.07,4.38,0,8.4-1.07,12.08-3.21Z"/>
    <path class="cls-1" d="M1390.43,1586.47c-1.91-1.96-2.87-4.24-2.87-6.84s.96-4.86,2.87-6.78c1.91-1.91,4.21-2.86,6.91-2.86s4.86.96,6.78,2.86c1.91,1.91,2.86,4.17,2.86,6.78s-.96,4.89-2.86,6.84c-1.91,1.96-4.17,2.93-6.78,2.93s-5.01-.98-6.91-2.93ZM1388.82,1600.3h17.04v72.22h-17.04v-72.22Z"/>
    <path class="cls-1" d="M1480.45,1602.18c4.1,2.38,7.29,5.68,9.57,9.92,2.28,4.24,3.42,9.05,3.42,14.46v45.95h-16.62v-42.6c0-4.94-1.4-8.96-4.19-12.08-2.79-3.12-6.43-4.68-10.9-4.68-4.94,0-9.1,1.51-12.5,4.54-3.4,3.03-5.1,6.73-5.1,11.1v43.72h-17.04v-72.22h17.04v9.78c2.23-3.44,5.33-6.21,9.29-8.31,3.96-2.1,8.31-3.14,13.06-3.14,5.21,0,9.87,1.19,13.97,3.56Z"/>
    <path class="cls-1" d="M1564.61,1606.93c5.54,5.54,8.31,12.92,8.31,22.14v43.44h-16.62v-8.52c-2.61,3.17-5.96,5.66-10.06,7.47-4.1,1.81-8.29,2.73-12.57,2.73-5.12,0-9.71-.96-13.75-2.87-4.05-1.91-7.24-4.61-9.57-8.1-2.33-3.49-3.49-7.52-3.49-12.08s1.31-8.8,3.91-12.43c2.6-3.63,6.15-6.47,10.61-8.52,4.47-2.05,9.41-3.07,14.81-3.07,6.43,0,13.13,1.26,20.11,3.77v-1.81c0-4.75-1.42-8.68-4.26-11.8-2.84-3.12-7.29-4.68-13.34-4.68s-12.29,1.82-19.55,5.45l-5.87-11.87c10.24-5.03,19.84-7.54,28.78-7.54,9.5,0,17.02,2.77,22.56,8.31ZM1549.52,1658.55c3.68-2.14,5.93-5.03,6.77-8.66v-8.24c-5.58-1.77-11.45-2.66-17.6-2.66-4.38,0-8.06,1.1-11.04,3.28-2.98,2.19-4.47,4.96-4.47,8.31s1.35,6.05,4.05,8.1c2.7,2.05,6.1,3.07,10.2,3.07,4.37,0,8.4-1.07,12.08-3.21Z"/>
    <path class="cls-1" d="M1652.25,1603.44c5.03,3.22,8.99,7.68,11.87,13.41,2.89,5.73,4.33,12.22,4.33,19.48s-1.44,13.78-4.33,19.56c-2.89,5.77-6.85,10.27-11.87,13.48-5.03,3.21-10.71,4.82-17.04,4.82-5.49,0-10.43-1.21-14.81-3.63-4.38-2.42-7.96-5.87-10.75-10.34v12.29h-17.04v-97.64h17.04v37.58c2.79-4.38,6.4-7.77,10.82-10.2s9.34-3.63,14.74-3.63c6.33,0,12.01,1.61,17.04,4.82ZM1645.69,1653.1c3.91-4.38,5.87-9.97,5.87-16.76s-1.96-12.36-5.87-16.69c-3.91-4.33-8.94-6.49-15.08-6.49s-10.85,2.16-14.67,6.49c-3.82,4.33-5.73,9.9-5.73,16.69,0,4.47.86,8.48,2.58,12.01,1.72,3.54,4.15,6.31,7.27,8.31,3.12,2,6.63,3,10.55,3,6.15,0,11.17-2.19,15.08-6.56Z"/>
    <path class="cls-1" d="M1686.26,1586.47c-1.91-1.96-2.87-4.24-2.87-6.84s.96-4.86,2.87-6.78c1.91-1.91,4.21-2.86,6.91-2.86s4.86.96,6.78,2.86c1.91,1.91,2.86,4.17,2.86,6.78s-.96,4.89-2.86,6.84c-1.91,1.96-4.17,2.93-6.78,2.93s-5.01-.98-6.91-2.93ZM1684.66,1600.3h17.04v72.22h-17.04v-72.22Z"/>
    <path class="cls-1" d="M1722.93,1574.88h17.04v97.64h-17.04v-97.64Z"/>
    <path class="cls-1" d="M1762.81,1586.47c-1.91-1.96-2.87-4.24-2.87-6.84s.96-4.86,2.87-6.78c1.91-1.91,4.21-2.86,6.91-2.86s4.86.96,6.78,2.86c1.91,1.91,2.86,4.17,2.86,6.78s-.96,4.89-2.86,6.84c-1.91,1.96-4.17,2.93-6.78,2.93s-5.01-.98-6.91-2.93ZM1761.2,1600.3h17.04v72.22h-17.04v-72.22Z"/>
    <path class="cls-1" d="M1838.16,1668.46c-2.05,1.77-4.45,3.17-7.19,4.19-2.75,1.02-5.52,1.54-8.31,1.54-5.96,0-10.82-1.96-14.6-5.87-3.77-3.91-5.65-8.89-5.65-14.95v-38.97h-10.48v-14.11h10.48v-19.83h16.48v19.83h16.34v14.11h-16.34v36.87c0,2.43.7,4.43,2.1,6.01,1.4,1.59,3.12,2.38,5.17,2.38,1.4,0,2.73-.23,3.98-.7,1.26-.46,2.3-1.12,3.14-1.96l4.89,11.45Z"/>
    <path class="cls-1" d="M1855.97,1696.68c-2.84-.65-5.33-1.58-7.47-2.79l3.63-12.29c3.26,1.77,6.33,2.65,9.22,2.65,4.28,0,7.35-1.59,9.22-4.75l3.07-6.43-30.59-72.77h18.02l21.09,53.92,19.84-53.92h17.6l-30.59,77.25c-5.31,13.22-13.55,19.92-24.72,20.11-2.7,0-5.47-.33-8.31-.98Z"/>
    <path class="cls-1" d="M1963.6,1576.55h19.13l20.53,68.72,22.77-68.72h18.86l22.63,68.72,20.67-68.72h19l-30.31,95.96h-17.32l-24.03-71.24-24.16,71.24h-17.32l-30.45-95.96Z"/>
    <path class="cls-1" d="M2165.15,1658.4c3.73-1.4,6.75-3.21,9.08-5.45l9.78,10.06c-3.07,3.26-7.4,5.94-12.99,8.03s-11.03,3.14-16.34,3.14c-6.89,0-13.25-1.63-19.07-4.89-5.82-3.26-10.43-7.77-13.83-13.55s-5.1-12.29-5.1-19.55,1.63-13.6,4.89-19.28c3.26-5.68,7.73-10.15,13.41-13.41,5.68-3.26,11.92-4.89,18.72-4.89,11.08,0,19.76,3.82,26.05,11.45,6.29,7.64,9.43,18.07,9.43,31.29h-56.01c.93,5.77,3.28,10.41,7.05,13.9,3.77,3.49,8.4,5.24,13.9,5.24,3.63,0,7.31-.7,11.03-2.1ZM2140.57,1617.13c-3.72,3.21-6.15,7.52-7.26,12.92h39.39c-.84-5.31-2.87-9.59-6.08-12.85-3.21-3.26-7.47-4.89-12.78-4.89s-9.54,1.61-13.27,4.82Z"/>
    <path class="cls-1" d="M2247.56,1658.4c3.72-1.4,6.75-3.21,9.08-5.45l9.78,10.06c-3.07,3.26-7.4,5.94-12.99,8.03-5.58,2.1-11.03,3.14-16.34,3.14-6.89,0-13.25-1.63-19.07-4.89-5.82-3.26-10.43-7.77-13.83-13.55-3.4-5.77-5.1-12.29-5.1-19.55s1.63-13.6,4.89-19.28c3.26-5.68,7.73-10.15,13.41-13.41,5.68-3.26,11.92-4.89,18.72-4.89,11.08,0,19.77,3.82,26.05,11.45,6.29,7.64,9.43,18.07,9.43,31.29h-56.01c.93,5.77,3.28,10.41,7.05,13.9,3.77,3.49,8.4,5.24,13.9,5.24,3.63,0,7.31-.7,11.04-2.1ZM2222.98,1617.13c-3.73,3.21-6.15,7.52-7.27,12.92h39.39c-.84-5.31-2.86-9.59-6.08-12.85-3.21-3.26-7.47-4.89-12.78-4.89s-9.55,1.61-13.27,4.82Z"/>
    <path class="cls-1" d="M2286.81,1574.88h17.04v59.5l31.15-34.08h20.11l-29.61,32.27,28.78,39.95h-19.98l-20.26-28.78-10.2,10.62v18.16h-17.04v-97.64Z"/>
  </g>
  <path class="cls-1" d="M972.87,1201.77v27.02h50.17v12.96h-50.17v28.81h55.55v12.96h-69.62v-94.7h69.62v12.96h-55.55ZM1063.7,1188.82h13.92l54.31,71.82v-71.82h14.06v94.7h-14.06l-54.31-71.82v71.82h-13.92v-94.7ZM1273.78,1188.82l-40.8,94.7h-15.3l-40.8-94.7h15.44l33.08,76.92,32.95-76.92h15.44ZM1304.8,1188.82h13.92v94.7h-13.92v-94.7ZM1427.69,1239.55c-5.1,5.51-11.7,8.96-19.78,10.34l23.57,33.64h-15.99l-23.16-32.95h-18.06v32.95h-13.92v-94.7h39.84c6.52,0,12.48,1.31,17.85,3.93,5.37,2.62,9.6,6.3,12.68,11.03,3.08,4.73,4.62,10.04,4.62,15.92,0,7.72-2.55,14.34-7.65,19.85ZM1374.27,1237.62h23.85c6.89,0,12.45-1.61,16.68-4.82,4.23-3.22,6.34-7.58,6.34-13.1s-2.12-9.88-6.34-13.1c-4.23-3.22-9.79-4.82-16.68-4.82h-23.85v35.84ZM1487.72,1278.49c-7.54-4.46-13.56-10.45-18.06-17.99-4.5-7.53-6.75-15.67-6.75-24.4s2.25-16.84,6.75-24.33c4.5-7.49,10.52-13.46,18.06-17.92,7.53-4.46,15.62-6.68,24.26-6.68s16.86,2.23,24.4,6.68c7.53,4.46,13.53,10.43,17.99,17.92,4.46,7.49,6.68,15.6,6.68,24.33s-2.23,16.87-6.68,24.4c-4.46,7.54-10.45,13.53-17.99,17.99-7.54,4.46-15.67,6.68-24.4,6.68s-16.72-2.23-24.26-6.68ZM1529.28,1267.39c5.38-3.31,9.65-7.74,12.82-13.3,3.17-5.56,4.76-11.55,4.76-17.99s-1.59-12.41-4.76-17.92c-3.17-5.51-7.44-9.93-12.82-13.23-5.37-3.31-11.14-4.96-17.3-4.96s-11.92,1.65-17.3,4.96c-5.37,3.31-9.65,7.72-12.82,13.23-3.17,5.51-4.75,11.49-4.75,17.92s1.59,12.43,4.75,17.99c3.17,5.56,7.45,9.99,12.82,13.3,5.38,3.31,11.14,4.96,17.3,4.96s11.93-1.65,17.3-4.96ZM1595.93,1188.82h13.92l54.31,71.82v-71.82h14.06v94.7h-14.06l-54.31-71.82v71.82h-13.92v-94.7ZM1719.71,1188.82h13.92l33.22,61.9,33.22-61.9h13.92v94.7h-13.92v-67.41l-33.22,61.9-33.22-61.9v67.41h-13.92v-94.7ZM1869.69,1201.77v27.02h50.17v12.96h-50.17v28.81h55.55v12.96h-69.62v-94.7h69.62v12.96h-55.55ZM1960.53,1188.82h13.92l54.31,71.82v-71.82h14.06v94.7h-14.06l-54.31-71.82v71.82h-13.92v-94.7ZM2105.13,1201.77h-31.15v-12.96h76.09v12.96h-31.02v81.74h-13.92v-81.74ZM2243.66,1263.81h-49.07l-8.41,19.71h-15.44l40.66-94.7h15.44l40.67,94.7h-15.44l-8.41-19.71ZM2238.43,1251.67l-19.3-44.94-19.3,44.94h38.6ZM2362.63,1270.56v12.96h-64.1v-94.7h13.92v81.74h50.18ZM950.67,1434.12l8.27-10.34c9.28,8.82,19.67,13.23,31.16,13.23,6.25,0,11.12-1.4,14.61-4.2,3.49-2.8,5.24-6.22,5.24-10.27s-1.81-7.46-5.44-9.72c-3.63-2.25-9.72-4.34-18.27-6.27-7.17-1.65-13.02-3.54-17.57-5.65-4.55-2.11-8.11-4.92-10.68-8.41-2.58-3.49-3.86-7.95-3.86-13.37s1.42-9.97,4.28-14.2c2.85-4.22,6.78-7.53,11.78-9.92s10.64-3.58,16.89-3.58c6.89,0,13.16,1.15,18.81,3.44,5.65,2.3,10.87,5.61,15.65,9.93l-8,10.48c-4.04-3.68-8.39-6.52-13.02-8.55-4.64-2.02-9.35-3.03-14.13-3.03-3.4,0-6.48.65-9.23,1.93s-4.92,3.03-6.48,5.24c-1.56,2.21-2.34,4.55-2.34,7.03,0,2.85.87,5.19,2.62,7.03,1.75,1.84,4.25,3.38,7.51,4.62s7.79,2.55,13.58,3.93c10.57,2.48,18.54,5.74,23.92,9.79,5.37,4.04,8.06,10.02,8.06,17.92,0,5.42-1.33,10.25-4,14.48-2.67,4.23-6.6,7.56-11.79,9.99-5.19,2.43-11.42,3.66-18.68,3.66-15.53,0-28.49-5.06-38.87-15.16ZM1075.77,1444.12c-6.2-3.54-11.03-8.45-14.47-14.75-3.45-6.29-5.17-13.44-5.17-21.43v-54.86h13.92v54.59c0,5.61,1.12,10.61,3.38,15.03,2.25,4.41,5.42,7.86,9.51,10.34,4.09,2.48,8.71,3.72,13.86,3.72s9.74-1.24,13.78-3.72c4.04-2.48,7.19-5.93,9.44-10.34,2.25-4.41,3.38-9.42,3.38-15.03v-54.59h14.06v54.86c0,7.99-1.75,15.14-5.24,21.43-3.49,6.3-8.32,11.21-14.47,14.75-6.16,3.54-13.14,5.31-20.95,5.31s-14.82-1.77-21.02-5.31ZM1168.47,1434.12l8.27-10.34c9.28,8.82,19.67,13.23,31.16,13.23,6.25,0,11.12-1.4,14.61-4.2,3.49-2.8,5.24-6.22,5.24-10.27s-1.82-7.46-5.45-9.72c-3.63-2.25-9.71-4.34-18.26-6.27-7.17-1.65-13.03-3.54-17.58-5.65-4.55-2.11-8.11-4.92-10.68-8.41-2.58-3.49-3.86-7.95-3.86-13.37s1.42-9.97,4.27-14.2c2.85-4.22,6.78-7.53,11.79-9.92,5.01-2.39,10.64-3.58,16.88-3.58,6.89,0,13.17,1.15,18.82,3.44,5.65,2.3,10.87,5.61,15.64,9.93l-7.99,10.48c-4.04-3.68-8.39-6.52-13.03-8.55-4.64-2.02-9.35-3.03-14.13-3.03-3.4,0-6.48.65-9.23,1.93-2.76,1.29-4.92,3.03-6.48,5.24-1.56,2.21-2.34,4.55-2.34,7.03,0,2.85.87,5.19,2.62,7.03,1.75,1.84,4.25,3.38,7.51,4.62,3.26,1.24,7.79,2.55,13.58,3.93,10.57,2.48,18.54,5.74,23.92,9.79,5.38,4.04,8.06,10.02,8.06,17.92,0,5.42-1.33,10.25-4,14.48-2.67,4.23-6.59,7.56-11.79,9.99-5.19,2.43-11.42,3.66-18.68,3.66-15.53,0-28.49-5.06-38.87-15.16ZM1297.08,1366.03h-31.15v-12.96h76.09v12.96h-31.02v81.74h-13.92v-81.74ZM1435.61,1428.06h-49.07l-8.41,19.71h-15.44l40.66-94.7h15.44l40.67,94.7h-15.44l-8.41-19.71ZM1430.38,1415.93l-19.3-44.94-19.3,44.94h38.6ZM1490.48,1353.07h13.92v94.7h-13.92v-94.7ZM1546.03,1353.07h13.92l54.31,71.82v-71.82h14.06v94.7h-14.06l-54.31-71.82v71.82h-13.92v-94.7ZM1732.12,1428.06h-49.07l-8.41,19.71h-15.44l40.67-94.7h15.44l40.67,94.7h-15.44l-8.41-19.71ZM1726.88,1415.93l-19.3-44.94-19.3,44.94h38.59ZM1786.99,1353.07h44.94c5.24,0,9.88,1.02,13.92,3.04,4.04,2.02,7.21,4.82,9.51,8.41,2.29,3.58,3.44,7.63,3.44,12.13,0,4.78-1.12,8.85-3.38,12.2s-5.58,6.27-9.99,8.75c5.52,2.76,9.77,6.23,12.75,10.41,2.99,4.18,4.48,8.85,4.48,13.99s-1.24,9.4-3.72,13.3c-2.48,3.91-5.93,6.96-10.34,9.17-4.41,2.21-9.42,3.31-15.03,3.31h-46.59v-94.7ZM1828.34,1392.49c4.78,0,8.68-1.26,11.71-3.79,3.03-2.53,4.55-5.76,4.55-9.72s-1.52-7.21-4.55-9.79c-3.03-2.57-6.94-3.86-11.71-3.86h-27.43v27.16h27.43ZM1830.54,1435.5c5.24,0,9.53-1.45,12.89-4.34,3.35-2.9,5.03-6.64,5.03-11.23s-1.68-8.34-5.03-11.23c-3.36-2.9-7.65-4.34-12.89-4.34h-29.64v31.15h29.64ZM1898.23,1353.07h13.92v94.7h-13.92v-94.7ZM2017.88,1434.81v12.96h-64.1v-94.7h13.92v81.74h50.17ZM2049.17,1353.07h13.92v94.7h-13.92v-94.7ZM2125.54,1366.03h-31.16v-12.96h76.09v12.96h-31.02v81.74h-13.92v-81.74ZM2228.37,1410.69l-37.91-57.62h16.82l28.26,44.39,28.67-44.39h16.13l-37.63,57.62v37.08h-14.34v-37.08ZM154.11,1248.51h-76.73v-56.44h216.91v56.44h-77.1v196.99h-63.08v-196.99ZM501.23,1406.76h-98.86l-15.49,38.73h-70.83l100.34-253.43h70.83l100.34,253.43h-70.83l-15.49-38.73ZM482.42,1359.18l-30.62-77.84-30.62,77.84h61.24ZM738.8,1300.16h115.09v105.87c-12.54,13.78-28.03,24.53-46.48,32.28-18.45,7.75-37.39,11.62-56.81,11.62-24.6,0-47.47-5.96-68.62-17.89-21.15-11.93-37.99-27.97-50.54-48.14-12.54-20.16-18.81-41.93-18.81-65.29s6.27-45.06,18.81-65.11c12.54-20.04,29.39-36.03,50.54-47.96,21.15-11.92,44.02-17.89,68.62-17.89,19.42,0,38.3,3.87,56.62,11.62,18.32,7.75,33.87,18.39,46.67,31.91l-46.11,40.95c-6.89-8.36-15.44-15-25.64-19.92-10.21-4.92-20.72-7.38-31.54-7.38-13.04,0-25.15,3.38-36.34,10.14-11.2,6.77-20.11,15.8-26.75,27.11-6.64,11.31-9.96,23.49-9.96,36.52s3.32,25.58,9.96,36.89c6.64,11.32,15.55,20.35,26.75,27.11,11.19,6.77,23.3,10.14,36.34,10.14,15,0,29.02-4.43,42.05-13.28v-31.73h-53.86v-47.59Z"/>
</svg>