<svg id="Layer_1" data-name="Layer 1" xmlns="http://www.w3.org/2000/svg" viewBox="0 0 306 258"><defs><style>.cls-1{fill:#021f3f;}.cls-2{fill:#416ba9;}.cls-3{fill:#74c3d5;}.cls-4{fill:#1c446b;}.cls-5{isolation:isolate;}.cls-6{fill:#fff;}</style></defs><polygon class="cls-1" points="301.048 108.499 250.076 144.064 250.076 110.732 301.048 108.499"/><polygon class="cls-1" points="54.505 69.068 5.875 99.982 53.968 100.26 54.505 69.068"/><polygon class="cls-2" points="82.348 137.514 54.338 137.514 54.338 202.861 119.682 202.861 119.682 174.853 82.348 174.853 82.348 137.514"/><polygon class="cls-2" points="222.368 137.723 222.368 174.853 185.236 174.853 185.03 174.648 185.03 202.861 250.374 202.861 250.374 137.514 222.159 137.514 222.368 137.723"/><polygon class="cls-2" points="54.338 72.179 82.557 72.179 82.348 71.964 82.348 34.841 82.348 34.832 119.477 34.832 119.682 35.041 119.682 6.827 54.338 6.827 54.338 72.179"/><polygon class="cls-2" points="185.03 6.827 185.03 34.832 222.368 34.832 222.368 72.179 250.374 72.179 250.374 6.827 185.03 6.827"/><polygon class="cls-3" points="181.573 72.179 144.228 34.832 185.03 34.832 185.03 6.827 119.682 6.827 119.682 35.041 156.818 72.179 181.573 72.179"/><polygon class="cls-3" points="147.895 137.514 123.143 137.514 154.083 168.457 160.484 174.853 147.692 174.853 119.682 174.853 119.682 202.861 185.03 202.861 185.03 174.648 166.46 156.078 147.895 137.514"/><polygon class="cls-3" points="222.368 72.179 222.368 100.182 222.368 112.972 215.97 106.572 185.03 75.636 185.03 100.389 203.592 118.95 222.159 137.514 250.374 137.514 250.374 72.179 222.368 72.179"/><polygon class="cls-3" points="119.682 109.298 82.557 72.179 54.338 72.179 54.338 137.514 82.348 137.514 82.348 96.717 119.682 134.051 119.682 109.298"/><rect class="cls-4" x="9.66181" y="70.8337" width="287.85705" height="67.39275" transform="translate(-17.57427 32.286) rotate(-11.35498)"/><path class="cls-4" d="M30.5747,244.321a8.16564,8.16564,0,0,0,6.6691-3.228l3.547,3.6538a12.91615,12.91615,0,0,1-9.95,4.7532,12.94836,12.94836,0,0,1-9.43543-3.618,13.105,13.105,0,0,1,.0709-18.33952,12.72557,12.72557,0,0,1,9.24066-3.68884,13.09713,13.09713,0,0,1,10.21574,4.6468l-3.4407,3.902a8.06254,8.06254,0,0,0-6.52689-3.26345,7.60824,7.60824,0,0,0-5.33871,2.0394,7.10656,7.10656,0,0,0-2.217,5.49843,7.50066,7.50066,0,0,0,2.09318,5.55141A6.90511,6.90511,0,0,0,30.5747,244.321Z"/><path class="cls-4" d="M45.15406,249.2164V224.4213h5.53348v19.86428H61.25859v4.93082Z"/><path class="cls-4" d="M85.48609,245.79321a13.51069,13.51069,0,0,1-18.51677,0,12.97528,12.97528,0,0,1,0-18.2682,13.50961,13.50961,0,0,1,18.51677,0A12.97427,12.97427,0,0,1,85.48609,245.79321ZM83.606,236.67683a8.11353,8.11353,0,0,0-2.12822-5.65774,7.01678,7.01678,0,0,0-10.46431,0,8.56,8.56,0,0,0,0,11.298,7.05295,7.05295,0,0,0,10.46431,0A8.04968,8.04968,0,0,0,83.606,236.67683Z"/><path class="cls-4" d="M100.49045,242.81378a4.52942,4.52942,0,0,0,3.72389,1.72035,4.483,4.483,0,0,0,3.708-1.72035,7.369,7.369,0,0,0,1.36585-4.70019V224.42128h5.53347v13.86955q0,5.39266-2.97944,8.28269a11.50463,11.50463,0,0,1-15.27166-.01752q-2.998-2.90813-2.99736-8.26517V224.4213h5.53389v13.6923A7.29548,7.29548,0,0,0,100.49045,242.81378Z"/><path class="cls-4" d="M139.5096,227.66681q3.54624,3.24552,3.54745,9.028,0,5.782-3.45863,9.15182-3.45822,3.37021-10.55354,3.3698H120.567V224.4213h8.76228Q135.96215,224.42132,139.5096,227.66681Zm-4.06168,14.73869a7.27459,7.27459,0,0,0,2.0398-5.56892,7.45455,7.45455,0,0,0-2.0398-5.6223q-2.04023-1.9687-6.2604-1.9689h-3.0862V244.321h3.5116A8.20539,8.20539,0,0,0,135.44792,242.4055Z"/><path class="cls-4" d="M174.5563,224.4213h5.53431v24.7951H174.5563l-11.81181-15.53693V249.2164h-5.53428V224.4213h5.179l12.16711,15.96232Z"/><path class="cls-4" d="M203.856,249.2164l-2.30548-5.35623h-10.3938l-2.30548,5.35623h-5.88879l10.71327-24.7951h5.3558l10.71329,24.7951Zm-7.48446-17.417-3.12206,7.20085h6.20825Z"/><path class="cls-4" d="M221.30888,229.20992V249.2164H215.7746V229.20992h-7.0232V224.4213h19.58069v4.78862Z"/><path class="cls-4" d="M232.375,224.4213h5.53429v24.7951H232.375Z"/><path class="cls-4" d="M253.1618,240.20638,259.476,224.4213h5.99555l-9.9684,24.7951h-4.68186l-9.96841-24.7951h5.99554Z"/><path class="cls-4" d="M286.29257,224.4213v4.93042h-12.344v5.10807h11.10281v4.71772H273.94861V244.321H286.683v4.89537H268.41431V224.4213Z"/><g class="cls-5"><path class="cls-6" d="M52.5874,117.98535,46.645,119.17871l-.7959-3.96191,16.18262-3.24951.79492,3.96191-5.94238,1.19336,3.126,15.56885-4.29687.8623Z"/><path class="cls-6" d="M66.023,111.16553l4.29687-.8628,1.55176,7.72852,7.92383-1.59131-1.55176-7.72851,4.2959-.8628,3.92285,19.53028-4.29687.86279-1.57422-7.84082-7.92383,1.59131L74.2417,129.833l-4.29688.86328Z"/><path class="cls-6" d="M88.12354,106.72754l4.29589-.86279L96.34131,125.395l-4.2959.86279Z"/><path class="cls-6" d="M100.01221,121.69727l1.92773-3.55176a9.13218,9.13218,0,0,0,6.30762,1.20068c1.75781-.35254,2.67773-1.26269,2.44824-2.40625l-.01074-.05566c-.21875-1.08887-1.001-1.51319-4.43262-1.69336-4.13574-.21485-6.89355-.793-7.67187-4.6709l-.01172-.05566c-.71094-3.54395,1.66406-6.45948,5.65332-7.26075a11.53622,11.53622,0,0,1,7.75293,1.02686l-1.582,3.68457a9.35124,9.35124,0,0,0-5.46485-.90625c-1.64551.33057-2.35937,1.2583-2.16894,2.20752l.01074.05566c.25781,1.28321,1.17871,1.53418,4.72852,1.72071,4.16894.23632,6.6875,1.21093,7.37109,4.61523l.01074.05566c.77832,3.87793-1.74121,6.64747-5.9541,7.49366A12.68125,12.68125,0,0,1,100.01221,121.69727Z"/><path class="cls-6" d="M124.11768,99.499l4.60449-.9248,6.70117,12.41211,1.71289-14.15967,3.68262-.73975,7.04785,12.40088,1.38965-14.03711,4.49219-.90234-2.71778,21.00928-3.73926.75049-6.97461-11.894-1.84179,13.66455-3.73828.751Z"/><path class="cls-6" d="M157.62988,92.769l14.73145-2.95849.76758,3.82226L162.666,95.73389l.79589,3.96191,9.207-1.84863.76757,3.82226-9.207,1.84864.82324,4.10156,10.60254-2.12891.76758,3.82227-14.87109,2.98633Z"/><path class="cls-6" d="M177.02344,88.87451,191.75391,85.916l.76757,3.82226-10.46289,2.10108.7959,3.96191,9.207-1.84863.76758,3.82226-9.207,1.84864.82422,4.10156,10.60254-2.12891.76758,3.82227-14.8711,2.98633Z"/><path class="cls-6" d="M196.416,84.98l4.29687-.86279,1.71387,8.53808,6.21-10.12939,5.18945-1.042-6.28808,9.88281,10.57226,9.57422-5.16113,1.03662-7.72461-7.09863-1.78906,2.79785,1.19922,5.9707-4.29688.86279Z"/><path class="cls-6" d="M226.74707,78.88916l4.2959-.86328,3.92285,19.53027-4.29687.86328Z"/><path class="cls-6" d="M236.625,76.90527l3.96094-.79541,11.5664,10.1875L249.7373,74.272l4.24122-.85156,3.92187,19.53027-3.65527.73389L242.293,83.168l2.49414,12.416-4.24023.85157Z"/></g></svg>