<svg xmlns="http://www.w3.org/2000/svg" role="img" viewBox="182.65 132.65 659.70 668.20"><path fill="#190763" d="M627.367 145.891l3.74436.0016c3.3935.00268 6.78694.00995 10.18043.01952 2.88559.00741 5.77118.0113 8.65678.0152 9.24023.01265 18.4804.0378 27.7206.0655 3.05305.00893 6.1061.01691 9.15915.02488 17.24305.04537 34.48584.11434 51.72864.21768 8.43474.05028 16.8694.09036 25.30425.11856 6.08892.0212 12.17771.05362 18.26653.0944 3.58247.0237 7.1648.04259 10.74735.04892 3.92878.00715 7.8572.03753 11.78586.07001l3.49626-.00435c7.24071.08497 12.51086.63064 18.2181 5.43672 3.41668 4.20516 2.7969 8.99237 2.83031 14.1394l.03 2.84014c.0317 3.11487.05645 6.22975.08109 9.34468.0206 2.18025.0416 4.36049.06297 6.54073.04402 4.58918.08491 9.17838.1233 13.76762.04864 5.81223.10226 11.6244.15798 17.43657.05358 5.60585.10484 11.21171.15575 16.81758l.02896 3.14786c.2488 27.52001.17994 55.03972-.02927 82.55982-.03986 5.29643-.0719 10.59268-.0871 15.88925-.01514 5.19555-.0495 10.39064-.0973 15.586a829.70394 829.70394 0 0 0-.02358 5.88578c-.00237 2.72898-.02941 5.45669-.06222 8.18544l.01524 2.41635c-.10355 5.57518-1.40428 8.8288-4.56114 13.44278-3.71489 3.3871-7.57208 3.56382-12.41797 3.42578-4.11471-.67852-7.61228-2.48091-10.58203-5.42578v-3l-1.6875-.125c-3.48543-1.31881-5.03991-4.00436-7.3125-6.875l-2-1v-3l-1.73828-.29687c-2.73247-.84948-4.28773-2.08768-6.44922-3.95313l-2.10547-1.76562c-1.9988-2.32354-2.35958-3.97664-2.70703-6.98438l-1.6875-.1875c-3.30318-1.16057-5.03145-3.21463-7.3125-5.8125v-2l-2.3125-.75c-2.9483-1.3713-4.04584-2.4851-5.6875-5.25v-2l-1.78906-.79297c-2.32808-1.27098-3.77124-2.59833-5.58594-4.51953-3.04802-3.14677-6.21352-5.94167-9.625-8.6875-3.02874 1.35632-5.1252 2.87647-7.46411 5.2212l-1.99336 1.98403-2.12456 2.14634-2.2194 2.22079a2183.6798 2183.6798 0 0 0-4.64217 4.66544c-2.34453 2.36264-4.69682 4.71732-7.05054 7.0708a10173.70567 10173.70567 0 0 0-4.52539 4.54297l-2.10616 2.10952-2.02201 2.04135-1.74666 1.75821c-1.7755 1.88825-3.46124 3.8127-5.14765 5.77938-4.80109 5.51008-9.97967 10.64582-15.13817 15.81715a14999.3628 14999.3628 0 0 0-3.34817 3.36809c-3.63545 3.6563-7.27607 7.30744-10.91696 10.95833a104595.2567 104595.2567 0 0 0-3.77289 3.78523c-5.90115 5.92015-11.80467 11.83792-17.71115 17.75276-6.80978 6.8196-13.61118 13.64741-20.4057 20.4822-5.2628 5.29293-10.53322 10.57819-15.80944 15.85773-3.14777 3.15012-6.29213 6.30346-9.42848 9.46494-2.94457 2.96778-5.89844 5.92598-8.85978 8.87702a703.70457 703.70457 0 0 0-3.24463 3.26419c-1.47112 1.48876-2.95404 2.96468-4.44057 4.43803l-2.50598 2.51322c-2.54512 2.01492-4.1822 2.55316-7.37607 2.88108v2h-2l-.3086 1.76172c-1.92806 6.24171-8.3524 10.89984-13.1914 14.99219-3.46856 3.11628-6.72114 6.4323-10 9.7461-5.00784 5.04629-10.0242 9.9583-15.5 14.5l-2.61719 2.24609c-43.31254 36.8214-94.8775 54.07598-151.65234 53.85156a6876.36843 6876.36843 0 0 0-4.24895-.00429c-3.68073-.00377-7.36141-.01355-11.04213-.0247-3.77471-.01034-7.54943-.01482-11.32415-.01984-7.37177-.01064-14.7435-.02765-22.11524-.04883 1.54335 2.83744 3.097 5.66912 4.65234 8.5l1.30408 2.39844c6.52245 11.83805 14.70919 22.34442 24.04358 32.10156l2.03125 2.22266c27.26146 28.83815 68.11807 41.4295 106.67969 44.02734 3.125.06297 6.17072-.0373 9.28906-.25l1.9751-.1289c33.62642-2.39586 66.84593-16.4898 90.93896-40.25391 2.08594-1.61719 2.08594-1.61719 6.08594-1.61719l.16797-1.65185c1.20471-3.39992 3.60282-5.46835 6.14453-7.91846l1.60278-1.58273c1.68795-1.66458 3.38574-3.31865 5.08472-4.97196 1.6972-1.66214 3.39225-3.3264 5.08472-4.99338a717.79594 717.79594 0 0 1 3.16845-3.09844c2.72166-2.62488 2.72166-2.62488 4.74683-5.78318h3l.27734-1.73437c2.67163-8.3759 13.70105-16.31849 19.8733-22.37989 4.50982-4.45039 8.7215-9.08096 12.84936-13.88574 5.70049-6.44914 11.744-12.00058 20.54297-13.40625 2.56267-.09535 4.91759.05866 7.45703.40625l2.20703.30078c7.32684 1.7294 12.18725 7.25351 17.38135 12.34961 2.56568 2.45298 5.33073 4.67409 8.0835 6.91211 1.32812 1.4375 1.32812 1.4375 1.32812 4.4375l1.81763.34961c3.50725 1.04523 5.78452 3.67083 8.36987 6.1504l1.74292 1.6394c4.08913 3.8654 8.07238 7.83025 12.0149 11.84497 2.00646 1.96832 4.08832 3.77376 6.24218 5.57812 6.13876 5.2933 11.05816 11.23778 12.0625 19.49219.42869 7.74318-2.2371 13.82133-7.1875 19.69531-3.96475 4.2816-8.14833 8.36134-12.2959 12.46509-3.51045 3.4836-6.82778 7.05554-10.02832 10.82788-2.15089 2.42156-4.4344 4.68078-6.73828 6.95703-2.84863 2.81457-5.6053 5.62736-8.1875 8.6875-3.55057 4.1607-7.4293 7.9664-11.3125 11.8125-4.41496 4.3771-8.74658 8.74982-12.78125 13.48438-6.46021 7.57606-12.94579 14.52196-20.79687 20.6875-2.66114 2.12037-5.2128 4.3164-7.7627 6.5664-50.44261 44.29108-120.44599 66.52196-187.2334 62.41407-12.73853-.88597-25.33607-2.37396-37.94067-4.4087-2.31348-.32486-2.31348-.32486-5.9851-.24365v-2l-1.70313-.22656c-44.44662-6.9533-87.92333-31.38409-121.29688-60.77344l-2.15625-1.85547c-1.96571-1.69583-3.90758-3.41503-5.84375-5.14453l-2.83594-2.51953c-10.98275-9.84425-20.22537-20.7852-29.16406-32.48047l-1.36768-1.76904c-7.55548-9.80444-14.00255-20.12689-20.21289-30.82715-.94175-1.59486-1.90757-3.17577-2.89746-4.74121-4.3286-6.89453-7.47498-14.12975-10.52197-21.6626l-.7923-1.94226c-10.00789-24.55739-17.15024-49.64018-20.2077-76.05774l-.28564-2.2876c-1.06628-9.7414-.95817-19.54993-.96436-29.3374l-.00204-2.90396c.02523-22.59078 2.7263-43.79984 7.66757-65.85531.82664-3.69952 1.6106-7.40745 2.39697-11.11573.39508-1.8335.79055-3.6669 1.1875-5.5h3l.29297-3.92968c.5768-5.10654 2.06064-9.46705 4.01953-14.19532l1.05322-2.5769c6.8424-16.2991 15.20234-32.01106 25.63428-46.2981l1.20899-1.65967c12.6833-17.24296 26.87438-33.1591 43.79101-46.34033a9597.57484 9597.57484 0 0 0 3.76563-3.02343c31.17551-24.75802 67.98536-40.53665 107.23437-46.97657l3.30542-.55981c10.844-1.65682 21.55739-1.7964 32.50708-1.75269l2.86981.00553c15.29509.04946 30.20938.74433 45.3177 3.30697l3.1577.52002c18.96461 3.20904 37.0633 8.22566 54.32276 16.8042 2.73935 1.30431 5.40328 2.40024 8.23437 3.46485 5.94153 2.34443 11.24269 5.54088 16.66016 8.89843l3.0542 1.86768c6.41938 3.97104 12.46973 8.12326 18.26611 12.96826 2.67356 1.71289 4.1888 1.79813 7.3047 1.47656v-3h3l.3125-1.75c.81284-2.66022 1.75594-4.2469 3.6875-6.25h4l1-4h3l.30468-1.79687c.82258-2.60637 1.82537-3.61027 3.82031-5.45313 3.34646-3.16817 6.24314-6.53706 9.10156-10.14843 2.19157-1.97918 3.88172-2.25614 6.77344-2.60157l.57422-2.55468c1.88598-4.55736 4.7102-7.20508 8.23828-10.57032l1.86914-1.83984c2.60094-2.53736 5.19665-4.93855 8.04492-7.19922 2.98052-2.40695 5.16197-5.23297 7.52735-8.22656 1.7461-1.60938 1.7461-1.60938 5.7461-1.60938v-2h2l-1-8c-.5904-.10054-1.18079-.2011-1.78907-.30468-2.61458-.82226-3.70291-1.84889-5.58594-3.82032l-1.83984-1.91406c-1.62466-1.78463-3.18124-3.6045-4.72266-5.46094-2.08797-2.48725-4.26865-4.62069-6.74463-6.71997-4.3345-3.74948-8.4117-7.71237-12.4663-11.7605l-2.2382-2.2281a3896.40332 3896.40332 0 0 1-4.63339-4.62614c-2.36422-2.36202-4.73636-4.7159-7.10889-7.06958a9668.03889 9668.03889 0 0 1-4.51953-4.51368l-2.14633-2.12455-1.98404-1.99337-1.74374-1.73942c-4.11367-4.80206-3.8966-9.47375-3.79386-15.58406.40926-4.06223 1.47146-6.21879 4.31641-9.14063 6.81184-5.339 16.16644-4.13817 24.3667-4.10864zM353.7503 408.31214c-13.07165 14.9605-25.90362 35.59598-26 56.125l.25 3.5625c6.87348 1.27926 13.71453 1.15038 20.6875 1.125l3.97095-.00805c9.2649-.03536 18.5193-.23542 27.77905-.55445l3.51245-.11865c5.41852-.2095 10.70311-.52833 16.05005-1.44385v-3h2v2c19.0597-2.34208 37.63176-11.45777 52-24l2.09595-1.81836c8.18507-7.23562 15.83154-14.99811 23.52905-22.74414a17682.8365 17682.8365 0 0 1 4.19922-4.21289c3.39462-3.40553 6.78608-6.81418 10.17578-10.2246l-1-3 3 1c1.50596-1.45218 3.00462-2.91194 4.5-4.375l2.53125-2.46094c2.19306-1.92303 2.19306-1.92303 1.96875-4.16407-17.52582-16.02454-42.43014-22.68908-65.78516-22.1875-34.25483 1.99785-61.9292 15.7527-85.46484 40.5z"/></svg>