<svg xmlns="http://www.w3.org/2000/svg" role="img" viewBox="-8.68 -11.68 1015.36 1023.36"><style>svg {enable-background:new 0 0 1000 1000}</style><style>.st0{fill:#3377fd}.st1{fill:#fff}</style><path d="M913 88.6L521.4 11.1l-.4-.1c-13.9-3.2-28.6-3.2-42.6 0l-392 77.6c-44 10.1-74.8 48.6-74.8 93.8v518.8c0 33.5 17 64 45.4 81.7l395.7 196.4c14.5 9 30.7 13.5 47 13.5s32.5-4.5 47-13.5L942.3 783c28.4-17.7 45.4-48.2 45.4-81.7V182.5c0-45.2-30.7-83.8-74.7-93.9z" class="st0"/><path d="M499.7 917.9c-2.6 0-5.1-.7-7.4-2.2l-1.3-.8L95.7 718.7c-5.7-4-9.1-10.5-9.1-17.5V182.5c0-9.9 6.7-18.4 16.3-20.7l391.9-77.5.4-.1c1.4-.3 3-.5 4.5-.5s3.1.2 4.6.5l.8.2L896 161.6h.1c9.8 2.2 16.7 10.8 16.7 20.8v518.8c0 7-3.4 13.5-9.1 17.5L508.4 914.9l-1.3.8c-2.3 1.5-4.9 2.2-7.4 2.2z" class="st1"/><path d="M337.2 780.3h-19.6l-3.2 7.8h-10.9l18.4-45.2h10.9l18.4 45.2h-10.9l-3.1-7.8zm-3.1-7.6l-6.7-16.5-6.7 16.5h13.4zm21.2 8.6l5.5-6.6c4.3 3.7 9.1 5.9 14.9 5.9 4.9 0 7.4-2.2 7.4-5.1 0-3.2-2.6-4.2-9.5-5.8-9.5-2.2-16.4-4.9-16.4-13.6 0-8.4 6.8-14.1 16.8-14.1 7.4 0 13 2.3 17.7 6.3l-5.1 7c-4.1-3.3-8.6-5.1-13-5.1-4.1 0-6.6 2.2-6.6 4.9 0 3.3 2.8 4.3 9.7 5.9 9.7 2.2 16.2 5.1 16.2 13.4 0 8.6-6.6 14.3-17.6 14.3-7.8.1-14.8-2.5-20-7.4zm42.9 0l5.5-6.6c4.3 3.7 9.1 5.9 14.9 5.9 4.9 0 7.4-2.2 7.4-5.1 0-3.2-2.6-4.2-9.5-5.8-9.5-2.2-16.4-4.9-16.4-13.6 0-8.4 6.8-14.1 16.8-14.1 7.4 0 13 2.3 17.7 6.3l-5.1 7c-4.1-3.3-8.6-5.1-13-5.1-4.1 0-6.6 2.2-6.6 4.9 0 3.3 2.8 4.3 9.7 5.9 9.7 2.2 16.2 5.1 16.2 13.4 0 8.6-6.6 14.3-17.6 14.3-7.8.1-14.7-2.5-20-7.4zm43.6-15.9c0-12.7 11.1-23.4 24.1-23.4 13 0 24 10.7 24 23.4s-10.9 23.4-24 23.4-24.1-10.7-24.1-23.4zm38.1 0c0-7.8-6.4-14.5-14-14.5s-14.1 6.7-14.1 14.5c0 7.9 6.4 14.6 14.1 14.6 7.5 0 14-6.7 14-14.6zm16 0c0-12.7 11.1-23.4 24.1-23.4 6.8 0 13.1 2.9 17.5 7.6l-7 6.3c-2.6-3-6.4-5.1-10.5-5.1-7.6 0-14.1 6.7-14.1 14.5 0 7.9 6.4 14.6 14.1 14.6 4.1 0 7.9-2 10.5-5.1l7 6.3c-4.4 4.6-10.7 7.6-17.5 7.6-13 .1-24.1-10.6-24.1-23.3zm49.4-22.6h9.7V788h-9.7v-45.2zm50.8 37.5h-19.6l-3.2 7.8h-10.9l18.4-45.2h10.9l18.4 45.2h-10.9l-3.1-7.8zm-3.1-7.6l-6.7-16.5-6.7 16.5H593zm35-21.1h-14.1v-8.8h37.9v8.8h-14.1v36.5H628v-36.5zm41.3 0v9h22.8v8.8h-22.8v9.9h25.1v8.8h-34.8v-45.2h34.8v8.8h-25.1z" class="st0"/><path d="M457.9 417.7h-19.6l-3.2 7.8h-10.9l18.4-45.2h10.9l18.4 45.2H461l-3.1-7.8zm-3-7.6l-6.7-16.5-6.7 16.5h13.4zm24.5-29.9h9.7l21.8 29.2v-29.2h9.7v45.2h-9.7l-21.8-29.2v29.2h-9.7v-45.2zm52.7 0h16.3c15.2 0 26 9.3 26 22.6 0 13.2-10.8 22.6-26 22.6h-16.3v-45.2zm17.5 36.4c8.6 0 14.7-5.7 14.7-13.8 0-8-6.1-13.8-14.7-13.8h-7.8v27.6h7.8z" class="st0"/><path fill="none" stroke="#fff" stroke-linecap="round" stroke-miterlimit="10" stroke-width="12" d="M928.4 727.6c-3.2 4.5-7.3 8.5-12.1 11.6l-.5.3-395.7 196.4-.3.2c-6.1 3.8-13 5.8-20.1 5.8-7 0-14-2-20.1-5.8l-.3-.2L83.6 739.6l-.5-.3c-4.8-3.1-8.9-7.1-12.1-11.6m865.8-368.2v90.8M66.7 163.5c5.7-12.4 16.9-21.9 30.9-25.2l.3-.1 391.9-77.6c3.2-.7 6.6-1.1 9.9-1.1 3.3 0 6.6.4 9.8 1.1l.4.1L901 138.1l.5.1c14.7 3.3 26.3 13.5 31.8 26.8M62.6 449.3v-89.8"/><path d="M52.3 457.3h895.3v252.9H52.3z" class="st0"/><path d="M120.6 533.7c0-19.5 17-35.8 36.9-35.8 10.5 0 20.1 4.4 26.9 11.6l-10.8 9.7c-3.9-4.6-9.8-7.8-16.1-7.8-11.7 0-21.6 10.3-21.6 22.3 0 12.1 9.9 22.4 21.6 22.4 6.4 0 12.1-3.1 16.1-7.8l10.8 9.7c-6.8 7.1-16.4 11.6-26.9 11.6-19.9.1-36.9-16.4-36.9-35.9zM243.5 555v13.4H194V499h14.9v56h34.6zm3.3-21.3c0-19.5 17-35.8 36.9-35.8s36.7 16.4 36.7 35.8-16.8 35.9-36.7 35.9-36.9-16.4-36.9-35.9zm58.5 0c0-12-9.9-22.3-21.5-22.3-11.7 0-21.6 10.3-21.6 22.3 0 12.1 9.9 22.4 21.6 22.4 11.6 0 21.5-10.3 21.5-22.4zm25.7 4.8v-39.4h14.8v38.8c0 10.7 6.9 18.3 16.6 18.3 9.6 0 16.5-7.6 16.5-18.3v-38.8h14.9v39.4c0 18.3-13 31.2-31.4 31.2-18.5 0-31.4-13-31.4-31.2zm77.9-39.4h24.9c23.3 0 39.9 14.3 39.9 34.6s-16.6 34.7-39.9 34.7h-24.9v-69.3zm26.9 55.8c13.2 0 22.6-8.8 22.6-21.2 0-12.3-9.4-21.1-22.6-21.1h-11.9v42.3h11.9zm78.7-55.8h14.9l33.4 44.8v-44.8h14.9v69.4h-14.9l-33.4-44.8v44.8h-14.9v-69.4zm123.3 57.4h-30.1l-4.8 11.9h-16.7l28.3-69.4h16.7l28.3 69.4h-16.8l-4.9-11.9zm-4.8-11.6l-10.3-25.3-10.3 25.3H633zm42.1-32.4h-21.6v-13.4h58.1v13.4h-21.7v55.9h-14.8v-55.9zm45.1-13.4h14.9v69.4h-14.9v-69.4zm96.4 0l-28.3 69.4h-16.7l-28.3-69.4h16.8L780 548l19.8-48.9h16.8zm23.3 13.4v13.8h34.9v13.4h-34.9V555h38.5v13.4H825V499h53.4v13.4h-38.5zM247 655.3l8.5-10.2c6.6 5.7 14 9.1 22.8 9.1 7.6 0 11.4-3.4 11.4-7.8 0-4.9-4-6.5-14.6-8.9-14.6-3.3-25.1-7.5-25.1-20.9 0-12.8 10.5-21.6 25.7-21.6 11.3 0 20 3.5 27.2 9.6l-7.8 10.8c-6.3-5-13.2-7.8-19.9-7.8-6.3 0-10.2 3.3-10.2 7.5 0 5 4.2 6.7 14.9 9.1 14.9 3.3 24.8 7.8 24.8 20.6 0 13.2-10.1 22-27 22-12 0-22.6-4-30.7-11.5zm84.7-45.6v13.8h34.9v13.4h-34.9v15.2h38.5v13.4h-53.4v-69.4h53.4v13.4h-38.5zm46.7 21.2c0-19.5 17-35.8 36.9-35.8 10.5 0 20.1 4.4 26.9 11.6l-10.8 9.7c-3.9-4.6-9.8-7.8-16.1-7.8-11.7 0-21.6 10.3-21.6 22.3 0 12.1 9.9 22.4 21.6 22.4 6.4 0 12.1-3.1 16.1-7.8l10.8 9.7c-6.8 7.1-16.4 11.6-26.9 11.6-20 0-36.9-16.5-36.9-35.9zm71.7 4.7v-39.4H465V635c0 10.7 6.9 18.3 16.6 18.3 9.6 0 16.5-7.6 16.5-18.3v-38.8H513v39.4c0 18.3-13 31.2-31.4 31.2-18.5 0-31.5-12.9-31.5-31.2zm118 6.3l16.7 23.7h-17L552 643.1h-9v22.5h-15v-69.4h31.2c15.1 0 26.1 9.7 26.1 23.4.1 11-6.8 19.2-17.2 22.3zM543 629.5h14.7c7.4 0 12.4-3.8 12.4-9.8 0-6-5-9.8-12.4-9.8H543v19.6zm54.7-33.3h14.9v69.4h-14.9v-69.4zm45.1 13.5h-21.6v-13.4h58.1v13.4h-21.7v55.9h-14.8v-55.9zm69.4 30.9L685 596.2h17.4l17.3 30.4 18-30.4h16.7l-27.1 44.3v25h-15v-24.9z" class="st1"/><path d="M52.3 180.5h895.3v171.3H52.3z" class="st0"/><path d="M182.3 221.8v89.8h17.8V284c2 1.7 4 3.5 6 5.8s4 4.6 5.8 7.2c1.7 2.6 3.5 4.9 5.2 7.5 1.7 2.6 3.2 4.9 4.3 6.9h20.4c-1.4-2.6-3.2-5.5-4.9-8.6-2-3.2-4.3-6.3-6.6-9.5s-4.9-6.3-7.5-9.2-4.9-5.5-7.5-7.8c4.9-4.6 9.2-9.2 13.2-13.5 4-4.3 8.1-8.9 12.4-13.8h-21c-1.2 1.4-2.3 2.9-4 4.6-1.4 1.7-3.2 3.7-4.9 5.8-1.7 2-3.5 4-5.5 6-1.7 2-3.7 4-5.5 6V219l-17.7 2.8zm67.3 27v34.8c0 4.3.6 8.3 1.4 11.8.9 3.5 2.3 6.6 4.3 9.2 2 2.6 4.9 4.6 8.3 6 3.5 1.4 8.1 2 13.2 2 5.2 0 10.4-.3 15-1.2 4.6-.9 8.6-1.4 11.8-2.3v-60.7h-17.8v48.4c-1.2.3-2.3.3-3.7.3-1.4 0-2.9.3-4 .3-4 0-6.9-1.2-8.3-3.7-1.4-2.6-2.3-6.6-2.3-12.4v-32.8h-17.8v.3zm71.1-27v87.8c1.7.6 3.5.9 5.5 1.4 2 .6 4.3.9 6.6 1.2l6.9.9c2.3.3 4.6.3 6.6.3 5.2 0 9.8-.9 13.8-2.3s7.5-3.7 10.4-6.6c2.9-2.9 4.9-6.3 6.3-10.4 1.4-4 2.3-8.6 2.3-13.5s-.6-9.5-1.7-13.5c-1.2-4-2.9-7.5-5.2-10.4-2.3-2.9-5.2-5.2-8.6-6.6-3.5-1.4-7.5-2.3-11.8-2.3-2.6 0-4.9.3-6.9.6-2 .6-4.3 1.2-6.3 2V219l-17.9 2.8zm21.9 41.4c1.7-.6 3.7-.6 5.5-.6 8.3 0 12.7 5.8 12.7 17.3 0 5.5-1.2 9.8-3.7 13.2-2.6 3.5-6 4.9-10.9 4.9-1.7 0-3.2 0-4.3-.3-1.4 0-2.6-.3-3.5-.3v-32.2c1-1.1 2.4-1.7 4.2-2zm105.9 19.6v-3.5c0-10.6-2.6-18.7-7.8-24.2s-12.1-8.1-21-8.1c-3.7 0-7.5.6-11.2 2-3.7 1.4-6.9 3.5-9.5 6.3-2.9 2.9-4.9 6.3-6.6 10.4-1.7 4.3-2.6 8.9-2.6 14.7 0 4.6.6 8.9 2 13 1.4 4 3.5 7.5 6 10.4 2.6 2.9 6.3 5.2 10.4 6.9 4.3 1.7 9.2 2.6 14.7 2.6 2.3 0 4.3 0 6.6-.3s4.3-.6 6.3-.9c2-.3 3.7-.9 5.2-1.2 1.7-.6 2.9-.9 3.7-1.4l-2.3-14.4c-2 .9-4.6 1.7-7.8 2.3-3.2.6-6.3.9-9.5.9-5.2 0-9.2-1.2-12.1-3.2-3.2-2-4.6-5.2-5.2-8.6h40.3c.1-1.4.4-2.5.4-3.7zm-40.6-8.9c.3-1.4.6-2.9 1.2-4.6.6-1.4 1.2-2.9 2.3-3.7.9-1.2 2-2 3.5-2.6 1.4-.6 3.2-1.2 5.2-1.2s3.7.3 5.2 1.2c1.4.6 2.6 1.7 3.5 2.9.9 1.2 1.7 2.3 2 3.7.6 1.4.6 2.9.9 4.3h-23.8zm83.8-26.2c-1.4 0-2.6-.3-3.5-.3-5.5 0-10.1.6-14.4 1.4-4.3.9-8.1 2-11.2 3.2v59.3h17.8v-48.1c.9-.3 2-.6 3.5-.6s2.9-.3 4-.3c2.6 0 4.9.3 6.9.6 2 .6 4 .9 5.5 1.2l2.9-14.7c-.9-.3-2-.9-3.5-1.2-1.4-.3-2.6-.6-4-.6-1.5.4-2.9.1-4 .1zm75.1 63.9v-35.4c0-4.3-.6-8.1-1.4-11.8-.9-3.5-2.3-6.6-4.3-9.2-2-2.6-4.9-4.6-8.3-6-3.5-1.4-8.1-2-13.2-2s-10.4.3-15 1.2c-4.6.9-8.6 1.4-11.8 2.3v60.7h17.8V263c1.2-.3 2.3-.3 3.7-.3s2.9-.3 4-.3c4 0 6.9 1.2 8.3 3.5 1.4 2.3 2.3 6.3 2.3 12.1v33.4h17.8v.2zm71.9-28.8v-3.5c0-10.6-2.6-18.7-7.8-24.2-5.2-5.5-12.1-8.1-21-8.1-3.7 0-7.5.6-11.2 2-3.7 1.4-6.9 3.5-9.5 6.3-2.9 2.9-4.9 6.3-6.6 10.4-1.7 4.3-2.6 8.9-2.6 14.7 0 4.6.6 8.9 2 13s3.5 7.5 6 10.4c2.9 2.9 6.3 5.2 10.4 6.9 4.3 1.7 9.2 2.6 14.7 2.6 2.3 0 4.3 0 6.6-.3s4.3-.6 6.3-.9c2-.3 3.7-.9 5.2-1.2s2.9-.9 3.7-1.4l-2.3-14.4c-2 .9-4.6 1.7-7.8 2.3-3.2.6-6.3.9-9.5.9-5.2 0-9.2-1.2-12.1-3.2-3.2-2-4.6-5.2-5.2-8.6h40.3c.4-1.4.4-2.5.4-3.7zm-40.6-8.9c.3-1.4.6-2.9 1.2-4.6.6-1.4 1.2-2.9 2.3-3.7.9-1.2 2-2 3.5-2.6 1.4-.6 3.2-1.2 5.2-1.2s3.7.3 5.2 1.2c1.4.6 2.6 1.7 3.5 2.9.9 1.2 1.7 2.3 2 3.7.6 1.4.6 2.9.9 4.3h-23.8zM652 233v52.7c0 4 .3 7.8 1.2 11.2.9 3.5 2 6 4 8.6 2 2.3 4.3 4.3 7.8 5.5 3.2 1.4 7.2 2 12.1 2 3.7 0 6.9-.3 9.8-.9 2.9-.6 4.9-1.4 7.2-2.3l-2.6-13.8c-1.7.6-3.5 1.2-5.5 1.4-2 .3-4 .6-6 .6-4 0-6.6-1.2-8.1-3.5s-2-5.2-2-8.9v-22.2h21.3v-14.7h-21.3v-18.4L652 233zm107 49.8v-3.5c0-10.6-2.6-18.7-7.8-24.2-5.2-5.5-12.1-8.1-21-8.1-3.7 0-7.5.6-11.2 2-3.7 1.4-6.9 3.5-9.5 6.3-2.9 2.9-4.9 6.3-6.6 10.4-1.7 4.3-2.6 8.9-2.6 14.7 0 4.6.6 8.9 2 13s3.5 7.5 6 10.4c2.9 2.9 6.3 5.2 10.4 6.9 4.3 1.7 9.2 2.6 14.7 2.6 2.3 0 4.3 0 6.6-.3s4.3-.6 6.3-.9c2-.3 3.7-.9 5.2-1.2s2.9-.9 3.7-1.4l-2.3-14.4c-2 .9-4.6 1.7-7.8 2.3-3.2.6-6.3.9-9.5.9-5.2 0-9.2-1.2-12.1-3.2-3.2-2-4.6-5.2-5.2-8.6h40.3c.4-1.4.4-2.5.4-3.7zm-40.6-8.9c.3-1.4.6-2.9 1.2-4.6.6-1.4 1.2-2.9 2.3-3.7.9-1.2 2-2 3.5-2.6 1.4-.6 3.2-1.2 5.2-1.2s3.7.3 5.2 1.2c1.4.6 2.6 1.7 3.5 2.9.9 1.2 1.7 2.3 2 3.7.6 1.4.6 2.9.9 4.3h-23.8zm79.5 23.9c-1.4.6-3.7.9-6.9.9s-6.3-.3-9.5-1.2c-3.2-.6-6.3-1.7-9.2-2.9l-2.9 14.4c1.4.6 4 1.4 7.8 2.3 3.7.9 8.3 1.4 13.8 1.4 8.6 0 15-1.7 19.9-4.9 4.6-3.2 6.9-7.8 6.9-14.1 0-2.6-.3-4.9-.9-6.9-.6-2-1.7-3.7-3.2-5.5-1.4-1.7-3.5-3.2-6-4.6-2.6-1.4-5.8-2.9-9.8-4.3-2-.6-3.5-1.4-4.6-2-1.2-.6-2.3-1.2-2.9-1.7-.6-.6-1.2-1.2-1.4-1.7-.3-.6-.3-1.2-.3-2 0-3.2 2.9-4.6 8.3-4.6 2.9 0 5.8.3 8.1.9 2.3.6 4.6 1.2 6.6 2l3.2-13.8c-2-.9-4.9-1.4-8.3-2.3-3.5-.6-7.2-1.2-10.9-1.2-7.8 0-13.5 1.7-18.1 5.2-4.3 3.5-6.6 8.1-6.6 14.1 0 3.2.6 5.5 1.4 7.8.9 2 2 4 3.7 5.5 1.7 1.4 3.5 2.9 5.8 4s4.9 2.3 7.5 3.2c3.5 1.4 6.3 2.6 8.1 3.7 1.7 1.2 2.6 2.3 2.6 3.7-.2 2.6-.8 4-2.2 4.6z" class="st1"/></svg>