<svg xmlns="http://www.w3.org/2000/svg" role="img" viewBox="-7.53 -6.03 625.56 210.06"><style>svg {enable-background:new 0 0 612 196.5}</style><style>.st4{fill:#62269e}.st5{fill:#fff}.st6{fill:#2c256c}.st7{fill:#5b2d82}.st12{fill:#250671}.st13{fill:#8547ad}</style><path fill="#434343" d="M284.5 79.5c9.2 0 16.1 3.1 21.9 8.4.5.5.5 1.2.1 1.6l-1.4 1.5c-.5.5-1 .5-1.5-.1-5.1-4.6-11.6-7.4-19.1-7.4-15.8 0-28.2 12.9-28.2 28.5 0 15.5 12.4 28.4 28.2 28.4 7.8 0 13.6-3.1 19.1-7.6.5-.5 1.1-.5 1.4-.2l1.5 1.5c.5.4.5 1.1 0 1.5-6.1 6-14 8.8-22 8.8-18.1 0-32.7-14.3-32.7-32.4 0-17.9 14.7-32.5 32.7-32.5zm48.4 27.1c10.1 0 18.1 8.6 18.1 18.9 0 10.6-8 19.1-18.1 19.1-10.2 0-18.1-8.5-18.1-19.1 0-10.3 7.9-18.9 18.1-18.9zm0 34.2c7.9 0 14.2-6.8 14.2-15.3 0-8.3-6.2-15.1-14.2-15.1-8 0-14.3 6.8-14.3 15.1.1 8.6 6.3 15.3 14.3 15.3zm29.2-32.1c0-.6.5-1.2 1.2-1.2h1.1c.5 0 1 .4 1.1 1l.4 3.7c.9-1.3 4.5-5.6 11.3-5.6 2.9 0 4.9.8 5.6 1.1.8.3 1.3.9 1 1.6l-.7 1.8c-.3.6-.8.7-1.4.5-.5-.2-2.3-1.1-4.7-1.1-7 0-10.5 5.7-10.7 6.2v25.7c0 .7-.4 1.2-1.2 1.2h-1.8c-.6 0-1-.5-1-1.2v-33.7zm44.1-2.1c9.5 0 16.3 7 16.3 16.5 0 1.4 0 3.5-1.4 3.5h-28.8c.4 7.8 6 14.3 14.1 14.3 4.8 0 8.5-1.9 10.7-3.3.8-.5 1.2-.6 1.6 0l.9 1.3c.3.4.2.9-.4 1.4-1.8 1.8-7.5 4.2-13.1 4.2-11 0-17.8-8.5-17.8-19.1.2-10.2 6.9-18.8 17.9-18.8zm12.4 16.8c0-7-4.2-13.2-12.4-13.2-7.9 0-13.3 5.8-13.7 13.2h26.1z"/><path fill="#9a9a9a" d="M434.5 81.6c0-.6.5-1.2 1.1-1.2h19.1c17.5 0 31.8 14.2 31.8 31.5 0 17.6-14.3 31.7-31.8 31.7h-19.1c-.5 0-1.1-.5-1.1-1.2V81.6zm19.5 58.2c15.8 0 28-12 28-27.8 0-15.6-12.2-27.6-28-27.6h-15.3v55.4H454zm47.1-59.1c0-.7.6-1.2 1.4-1.2h1.5l43.3 56.4h.1V81.6c0-.6.5-1.2 1.2-1.2h1.8c.6 0 1.2.5 1.2 1.2v61.8c0 .8-.7 1.2-1.4 1.2H549c-.1 0-.8-.3-43.7-57h-.1v54.9c0 .6-.5 1.2-1.2 1.2h-1.7c-.6 0-1.2-.5-1.2-1.2V80.7zm65.9 54.5l.8-1.1c.6-.7 1.3-1 2-.4.9.8 7.6 7 16.7 7 8.2 0 15.2-5.5 15.2-12.1 0-8-6.6-11.6-17.5-15.3-10.5-3.7-17.4-7.4-17.4-17.8 0-6.8 5.4-16 19.5-16 8.9 0 15.5 4.6 15.5 4.6.4.3 1 .9.4 1.9-.3.4-.5.8-.7 1.2-.5.7-1.1 1-2 .5-.3-.2-6.3-4.2-13.3-4.2-11.1 0-15.3 6.9-15.3 12 0 7.7 5.9 11 15 14 12.4 4.2 20.2 8.6 20.2 19.1 0 9-9.3 16.1-19.7 16.1-10.7 0-18-6.3-19.1-7.4-.6-.6-1-1.1-.3-2.1z"/><linearGradient id="SVGID_1_" x1="1417.934" x2="1568.024" y1="-3717.982" y2="-3717.982" gradientTransform="rotate(-45.001 5375.108 -121.784)" gradientUnits="userSpaceOnUse"><stop offset="0" stop-color="#623393"/><stop offset=".574" stop-color="#452b7c"/><stop offset="1" stop-color="#2c256c"/></linearGradient><path fill="url(#SVGID_1_)" d="M63.3 103.6c-1.5 1.5-2.7 3.1-3.6 4.9.9-1.8 2.1-3.4 3.6-4.9z"/><linearGradient id="SVGID_2_" x1="1417.934" x2="1568.024" y1="-3697.598" y2="-3697.598" gradientTransform="rotate(-45.001 5375.108 -121.784)" gradientUnits="userSpaceOnUse"><stop offset="0" stop-color="#623393"/><stop offset=".574" stop-color="#452b7c"/><stop offset="1" stop-color="#2c256c"/></linearGradient><path fill="url(#SVGID_2_)" d="M124.3 60.4c2.8 0 5.5 1.1 7.6 3.2l6.3 6.3-6.3-6.3c-2.1-2.1-4.9-3.2-7.6-3.2z"/><path d="M63.3 68c6.9-6.9 18.2-6.9 25.2 0l5.2 5.2L110 56.9c7.9-7.9 20.7-7.9 28.6 0l6.3 6.3 15.7-15.7-34.1-34.1c-9.8-9.8-25.9-9.8-35.7 0L20.2 83.9c-8.3 8.3-9.6 21.2-3.7 30.9l.2-.2L63.3 68zm91.9 61.3c-6.9 6.9-18.2 6.9-25.2 0l-6.2-6.2-20.5 20.5c-7.9 7.9-20.7 7.9-28.6 0l-5.3-5.3-15.2 15.2 31.4 31.4c9.8 9.8 25.9 9.8 35.7 0l70.4-70.4c7.3-7.3 9.2-18.1 5.6-27.2l-2.3 2.3-39.8 39.7z" class="st4"/><path d="M96.6 136.9c-1.1 1.1-2.3 1.8-3.6 2.4-1.3.5-2.7.8-4.1.8-2.8 0-5.5-1.1-7.6-3.2l-5.3-5.3-6.1-6.1c-2.1-2.1-3.2-4.9-3.2-7.6 0-1.4.3-2.8.8-4.1.5-1.3 1.3-2.5 2.4-3.6l30.4-30.4 16.3-16.3c1.6-1.6 3.5-2.6 5.6-3 .7-.1 1.4-.2 2.1-.2 2.8 0 5.5 1.1 7.6 3.2l6.3 6.3 6.7-6.7-6.3-6.3c-7.9-7.9-20.7-7.9-28.6 0L93.7 73.2l-30.4 30.4c-1.5 1.5-2.7 3.1-3.6 4.9-.3.6-.6 1.2-.8 1.8-2.2 5.5-1.9 11.7.8 17 .9 1.8 2.1 3.4 3.6 4.9l6.1 6.1 5.3 5.3c7.9 7.9 20.7 7.9 28.6 0l20.5-20.5-6.7-6.7-20.5 20.5z" class="st5"/><path d="M195 89.5l2.3-2.3c-.8-2.1-2-4.1-3.4-5.9.4 2.7.8 5.4 1.1 8.2z" class="st6"/><path d="M16.7 114.5l-.2.2c.1.2.3.5.4.7 0-.2-.1-.6-.2-.9z" class="st7"/><linearGradient id="SVGID_3_" x1="1417.934" x2="1568.024" y1="-3690.151" y2="-3690.151" gradientTransform="rotate(-45.001 5375.108 -121.784)" gradientUnits="userSpaceOnUse"><stop offset="0" stop-color="#623393"/><stop offset=".574" stop-color="#452b7c"/><stop offset="1" stop-color="#2c256c"/></linearGradient><path fill="url(#SVGID_3_)" d="M117 91l21.2-21.2-6.3-6.3c-2.1-2.1-4.9-3.2-7.6-3.2-.7 0-1.4.1-2.1.2-2 .4-4 1.4-5.6 3l-16.3 16.3 1.2 1.2c6.9 6.9 6.9 18.2 0 25.2l-25.4 25.4 5.3 5.3c2.1 2.1 4.9 3.2 7.6 3.2 1.4 0 2.8-.3 4.1-.8 1.3-.5 2.5-1.3 3.6-2.4l20.5-20.5-.2-.2c-7-7-7-18.2 0-25.2z"/><path d="M117 91l21.2-21.2-6.3-6.3c-2.1-2.1-4.9-3.2-7.6-3.2-.7 0-1.4.1-2.1.2-2 .4-4 1.4-5.6 3l-16.3 16.3 1.2 1.2c6.9 6.9 6.9 18.2 0 25.2l-25.4 25.4 5.3 5.3c2.1 2.1 4.9 3.2 7.6 3.2 1.4 0 2.8-.3 4.1-.8 1.3-.5 2.5-1.3 3.6-2.4l20.5-20.5-.2-.2c-7-7-7-18.2 0-25.2z" class="st4"/><path d="M96.6 136.9c-1.1 1.1-2.3 1.8-3.6 2.4 1.4-.5 2.6-1.3 3.6-2.4z" class="st5"/><linearGradient id="SVGID_4_" x1="1403.705" x2="1583.957" y1="-3671.719" y2="-3671.719" gradientTransform="rotate(-45.001 5375.108 -121.784)" gradientUnits="userSpaceOnUse"><stop offset="0" stop-color="#623393"/><stop offset=".574" stop-color="#452b7c"/><stop offset="1" stop-color="#2c256c"/></linearGradient><path fill="url(#SVGID_4_)" d="M96.6 136.9c-1.1 1.1-2.3 1.8-3.6 2.4 1.4-.5 2.6-1.3 3.6-2.4z"/><path d="M76.1 131.6l5.3 5.3c2.1 2.1 4.9 3.2 7.6 3.2-2.8 0-5.5-1.1-7.6-3.2l-5.3-5.3z" class="st5"/><linearGradient id="SVGID_5_" x1="1403.705" x2="1583.957" y1="-3682.018" y2="-3682.018" gradientTransform="rotate(-45.001 5375.108 -121.784)" gradientUnits="userSpaceOnUse"><stop offset="0" stop-color="#623393"/><stop offset=".574" stop-color="#452b7c"/><stop offset="1" stop-color="#2c256c"/></linearGradient><path fill="url(#SVGID_5_)" d="M76.1 131.6l5.3 5.3c2.1 2.1 4.9 3.2 7.6 3.2-2.8 0-5.5-1.1-7.6-3.2l-5.3-5.3z"/><path d="M116.6 63.6c1.6-1.6 3.5-2.6 5.6-3-2.1.4-4 1.4-5.6 3z" class="st5"/><linearGradient id="SVGID_6_" x1="1403.705" x2="1583.957" y1="-3708.085" y2="-3708.085" gradientTransform="rotate(-45.001 5375.108 -121.784)" gradientUnits="userSpaceOnUse"><stop offset="0" stop-color="#623393"/><stop offset=".574" stop-color="#452b7c"/><stop offset="1" stop-color="#2c256c"/></linearGradient><path fill="url(#SVGID_6_)" d="M116.6 63.6c1.6-1.6 3.5-2.6 5.6-3-2.1.4-4 1.4-5.6 3z"/><path d="M20.2 119.6c-1.3-1.3-2.4-2.7-3.3-4.1-.1-.2-.3-.5-.4-.7l-6.7 6.7c-6.9 6.9-6.9 18.2 0 25.2l13.1 13.1c5.6 5.6 14 6.7 20.7 3.2 1.6-.8 3.1-1.9 4.5-3.2l4.2-4.2 1.5-1.5.5-.5-34.1-34z" class="st12"/><path d="M63.3 132.2c-1.5-1.5-2.7-3.1-3.6-4.9-2.8-5.3-3-11.5-.8-17 .2-.6.5-1.2.8-1.8.9-1.8 2.1-3.4 3.6-4.9l30.4-30.4-5.3-5.2c-6.9-7-18.2-7-25.1 0l-46.5 46.5c.1.3.1.6.2.9.9 1.5 2 2.8 3.3 4.1l33.9 33.9 15.2-15.2-6.1-6z" class="st13"/><path d="M58.9 110.3c-2.2 5.5-1.9 11.7.8 17-2.8-5.3-3-11.6-.8-17z" class="st7"/><path d="M76.1 131.6l25.4-25.4c6.9-6.9 6.9-18.2 0-25.2l-1.2-1.2L70 110.2c-1.1 1.1-1.8 2.3-2.4 3.6-.5 1.3-.8 2.7-.8 4.1 0 2.8 1.1 5.5 3.2 7.6l6.1 6.1z" class="st13"/><path d="M70 125.5c-2.1-2.1-3.2-4.9-3.2-7.6 0 2.7 1.1 5.5 3.2 7.6l6.1 6.1-6.1-6.1zm0-15.3c-1.1 1.1-1.8 2.3-2.4 3.6.5-1.3 1.3-2.5 2.4-3.6z" class="st7"/><path d="M138.2 69.9L117 91c-6.9 6.9-6.9 18.2 0 25.2l.2.2 26.1-26.1c1.6-1.6 2.6-3.5 3-5.6.1-.7.2-1.4.2-2.1 0-2.8-1.1-5.5-3.2-7.6l-5.1-5.1z" class="st12"/><path d="M143.3 90.3c1.6-1.6 2.6-3.5 3-5.6-.5 2-1.4 4-3 5.6z" class="st6"/><path fill="#623393" d="M143.3 75c2.1 2.1 3.2 4.9 3.2 7.6-.1-2.7-1.1-5.5-3.2-7.6l-5.1-5.1 5.1 5.1zm6.6 21.9c2-2 3.5-4.3 4.4-6.7-.9 2.5-2.4 4.8-4.4 6.7z"/><path d="M154.4 90.3c.2-.6.5-1.2.6-1.9 2-6.9.3-14.6-5.1-20.1l-5.1-5.1-6.7 6.7 5.1 5.1c2.1 2.1 3.2 4.9 3.2 7.6 0 .7-.1 1.4-.2 2.1-.4 2-1.4 4-3 5.6l-26.1 26.1 6.7 6.7L149.9 97c2-2 3.5-4.3 4.5-6.7zm54.3-39.7l-13.1-13.1c-6.5-6.5-16.9-6.9-23.9-1.2-.4.4-.9.7-1.3 1.2L162 46l-1.5 1.5 31.2 31.2c.8.8 1.5 1.7 2.2 2.6 1.4 1.8 2.5 3.8 3.4 5.9l11.4-11.4c6.9-7 6.9-18.2 0-25.2z" class="st4"/><path d="M150 68.3c5.4 5.4 7.1 13.2 5.1 20.1-.2.6-.4 1.2-.6 1.9-1 2.4-2.5 4.7-4.4 6.7L124 123.1l6.2 6.2c6.9 6.9 18.2 6.9 25.2 0L195 89.5c-.2-2.7-.6-5.5-1.1-8.2-.7-.9-1.4-1.7-2.2-2.6l-31.2-31.2-15.7 15.7 5.2 5.1z" class="st12"/><path d="M150 68.3c5.4 5.4 7.1 13.2 5.1 20.1 2-6.9.3-14.6-5.1-20.1l-5.1-5.1 5.1 5.1z" class="st6"/></svg>