<svg id="Layer_1" data-name="Layer 1" xmlns="http://www.w3.org/2000/svg" xmlns:xlink="http://www.w3.org/1999/xlink" viewBox="0 0 608.4 216"><defs><style>.cls-1{fill:#fff;}.cls-2{fill:url(#linear-gradient);}.cls-3{fill:url(#linear-gradient-2);}.cls-4{fill:url(#linear-gradient-3);}.cls-5{fill:url(#linear-gradient-4);}.cls-6{fill:url(#linear-gradient-5);}.cls-7{fill:url(#linear-gradient-6);}.cls-8{fill:url(#linear-gradient-7);}</style><linearGradient id="linear-gradient" x1="-3.66" y1="579.25" x2="260.25" y2="579.25" gradientTransform="matrix(1, 0, 0, -1, 0, 644.6)" gradientUnits="userSpaceOnUse"><stop offset="0" stop-color="#fff" stop-opacity="0.75"/><stop offset="0.32" stop-color="#fff" stop-opacity="0.57"/><stop offset="0.68" stop-color="#fff" stop-opacity="0.55"/><stop offset="0.9" stop-color="#fff" stop-opacity="0.45"/></linearGradient><linearGradient id="linear-gradient-2" x1="6.43" y1="530.89" x2="257.77" y2="530.89" gradientTransform="matrix(1, 0, 0, -1, 0, 644.6)" gradientUnits="userSpaceOnUse"><stop offset="0" stop-color="#fff" stop-opacity="0.4"/><stop offset="0.67" stop-color="#fff" stop-opacity="0.5"/></linearGradient><linearGradient id="linear-gradient-3" x1="96.53" y1="570.05" x2="259.21" y2="570.05" gradientTransform="matrix(1, 0, 0, -1, 0, 644.6)" gradientUnits="userSpaceOnUse"><stop offset="0" stop-color="#fff" stop-opacity="0.38"/><stop offset="0.97" stop-color="#fff" stop-opacity="0.5"/></linearGradient><linearGradient id="linear-gradient-4" x1="189.79" y1="609.73" x2="189.79" y2="431.04" gradientTransform="matrix(1, 0, 0, -1, 0, 644.6)" gradientUnits="userSpaceOnUse"><stop offset="0" stop-color="#4faac4"/><stop offset="0" stop-color="#fff" stop-opacity="0.35"/><stop offset="0.96" stop-color="#fff" stop-opacity="0.38"/><stop offset="1" stop-color="#fff" stop-opacity="0.26"/></linearGradient><linearGradient id="linear-gradient-5" x1="-20.69" y1="648.01" x2="164.36" y2="648.01" gradientTransform="translate(0 -508)" gradientUnits="userSpaceOnUse"><stop offset="0" stop-color="#fff" stop-opacity="0.6"/><stop offset="0.93" stop-color="#fff" stop-opacity="0.47"/></linearGradient><linearGradient id="linear-gradient-6" x1="6.4" y1="477.82" x2="257.74" y2="477.82" gradientTransform="matrix(1, 0, 0, -1, 0, 644.6)" gradientUnits="userSpaceOnUse"><stop offset="0" stop-color="#fff" stop-opacity="0.38"/><stop offset="0.98" stop-color="#fff" stop-opacity="0.5"/></linearGradient><linearGradient id="linear-gradient-7" x1="201.8" y1="658.99" x2="201.8" y2="569.1" gradientTransform="translate(0 -508)" gradientUnits="userSpaceOnUse"><stop offset="0" stop-color="#fff" stop-opacity="0.3"/><stop offset="1" stop-color="#fff" stop-opacity="0.35"/></linearGradient></defs><title>fluentd-horizontal-white</title><g id="g6987"><g id="g6989"><g id="g6991"><path id="path6993" class="cls-1" d="M401.6,134.7a28.53,28.53,0,0,0-28.51,28.53v8.47a28.55,28.55,0,0,0,28.51,28.53h18.14V189.89H401.6a18.19,18.19,0,0,1-18.14-17.21H420.7a9.44,9.44,0,0,0,9.42-9.42A28.56,28.56,0,0,0,401.6,134.7Zm-18.14,27.56a18.16,18.16,0,0,1,36.27,0Z"/><path id="path6995" class="cls-1" d="M233.23,120.51A22.12,22.12,0,0,0,227,135.94v1.39h-6v10.35h6v52.51h10.35V147.67h13.95V137.33H237.32v-1.39c0-6.33,5.16-11.68,11.25-11.68h7.64V113.91h-7.64A21.16,21.16,0,0,0,233.23,120.51Z"/><rect id="rect6997" class="cls-1" x="272.48" y="113.81" width="10.35" height="86.37"/><path id="path6999" class="cls-1" d="M345.73,173.55a16.29,16.29,0,1,1-32.57,0V134.7H302.81v38.85a26.63,26.63,0,1,0,53.26,0V134.7H345.73Z"/><path id="path7001" class="cls-1" d="M467.18,134.7a26.65,26.65,0,0,0-26.63,26.63v38.85h10.35V161.33a16.29,16.29,0,1,1,32.57,0v38.85h10.35V161.33A26.65,26.65,0,0,0,467.18,134.7Z"/><path id="path7003" class="cls-1" d="M523.78,178.13V145h14V134.65h-14V113.79H513.43v20.86h-9.2V145h9.2V178.1A21.65,21.65,0,0,0,535,199.72h4.58V189.37H535A11.24,11.24,0,0,1,523.78,178.13Z"/><path id="path7005" class="cls-1" d="M591.35,113.81v26.46a26.62,26.62,0,0,0-42.92,21.06v12.24a26.63,26.63,0,1,0,53.26,0V113.79l-10.35,0Zm0,53.34v6.4a16.29,16.29,0,1,1-32.57,0V161.31a16.29,16.29,0,1,1,32.57,0v5.84Z"/></g><g id="g7007"><circle id="circle7009" class="cls-1" cx="220.55" cy="78.32" r="5.23"/><g id="g7011"><g id="g7013"><path id="path7024" class="cls-2" d="M96.57,46.6c-8.33-6.38-16.82-13-25.15-19h0c-1.92-1.36-3.87-2.7-5.6-4.07h0C43.38,8.11,22.49-1.58,10.88,12,2,22.43,6.81,46.6,25,75.81l.58,1c9.47,14.9,37.12,49.9,102.71,48.35,4.26-4.65,10.83-13.34,19.35-22.83C133.89,79.85,113.2,60.33,96.57,46.6Z"/><path id="path7031" class="cls-3" d="M147.64,102.3c-8.52,9.47-15.09,18.18-19.35,22.83a215.56,215.56,0,0,0,29.41-2.51,63.94,63.94,0,0,0-3.48-8.33C152.27,110.23,150,106.17,147.64,102.3Z"/><path id="path7038" class="cls-4" d="M196.77,66.32c-17.8,5.4-35.4,14.51-58,7.35C127.31,70.19,112.42,59,96.37,46.79c16.82,13.54,37.51,33.08,51.24,55.5C160.2,88.18,177,72.7,196.77,66.32Z"/><path id="path7049" class="cls-5" d="M157.7,122.6c.78,2.12,1.56,4.26,2.12,6.38a87.24,87.24,0,0,1,2.7,15.87c.19,2.31.19,4.65.19,7-.39,14.9-7.16,23.39-8.89,25,24.17-22.64,35-49.9,58.6-70.6a54.71,54.71,0,0,1,13.34-8.52h0C210.3,104.22,193.48,117.2,157.7,122.6Z"/><path id="path7056" class="cls-6" d="M25.58,77c18,28.24,46,50.68,40.61,82-6.94,40.41-59.74,44.09-59.74,44.09H7.62c5.23,0,28.63-1.75,64-25.73,30.36-20.69,48.74-43.72,56.67-52.22a172,172,0,0,1-20.5-.78C56.91,119.12,34.1,90.1,25.58,77Z"/><path id="path7063" class="cls-7" d="M162.52,151.81a79.49,79.49,0,0,0-5-29.21l-4.45.58a214.89,214.89,0,0,1-25,1.75c-8.13,8.52-26.32,31.53-56.67,52.22-40.24,27.65-65,25.93-65,25.93s59.23,18.36,107.19-1a126.44,126.44,0,0,0,40.24-25.34C155.55,175,162.32,166.71,162.52,151.81Z"/><path id="path7070" class="cls-8" d="M251.3,87.4a32.75,32.75,0,0,1-7.35-5c-2.12-2.12-4.45-7.74-5.4-9.27-2.9-4.84-7.16-8.72-16-9.86s-17.21.58-25.54,3.09c-19.91,6.38-36.76,21.86-49.32,36a103.11,103.11,0,0,1,6.57,12,73.68,73.68,0,0,1,3.48,8.33c35.79-5.4,52.61-18.38,68.09-25A58.79,58.79,0,0,1,250.15,93h4.45C257.87,93.19,254.58,89.35,251.3,87.4Z"/></g></g><g id="g7072"><g id="g7074"><path id="path7085" class="cls-2" d="M96.57,46.6c-8.33-6.38-16.82-13-25.15-19h0c-1.92-1.36-3.87-2.7-5.6-4.07h0C43.38,8.11,22.49-1.58,10.88,12,2,22.43,6.81,46.6,25,75.81l.58,1c9.47,14.9,37.12,49.9,102.71,48.35,4.26-4.65,10.83-13.34,19.35-22.83C133.89,79.85,113.2,60.33,96.57,46.6Z"/><path id="path7092" class="cls-3" d="M147.64,102.3c-8.52,9.47-15.09,18.18-19.35,22.83a215.56,215.56,0,0,0,29.41-2.51,63.94,63.94,0,0,0-3.48-8.33C152.27,110.23,150,106.17,147.64,102.3Z"/><path id="path7099" class="cls-4" d="M196.77,66.32c-17.8,5.4-35.4,14.51-58,7.35C127.31,70.19,112.42,59,96.37,46.79c16.82,13.54,37.51,33.08,51.24,55.5C160.2,88.18,177,72.7,196.77,66.32Z"/><path id="path7110" class="cls-5" d="M157.7,122.6c.78,2.12,1.56,4.26,2.12,6.38a87.24,87.24,0,0,1,2.7,15.87c.19,2.31.19,4.65.19,7-.39,14.9-7.16,23.39-8.89,25,24.17-22.64,35-49.9,58.6-70.6a54.71,54.71,0,0,1,13.34-8.52h0C210.3,104.22,193.48,117.2,157.7,122.6Z"/><path id="path7117" class="cls-6" d="M25.58,77c18,28.24,46,50.68,40.61,82-6.94,40.41-59.74,44.09-59.74,44.09H7.62c5.23,0,28.63-1.75,64-25.73,30.36-20.69,48.74-43.72,56.67-52.22a172,172,0,0,1-20.5-.78C56.91,119.12,34.1,90.1,25.58,77Z"/><path id="path7124" class="cls-7" d="M162.52,151.81a79.49,79.49,0,0,0-5-29.21l-4.45.58a214.89,214.89,0,0,1-25,1.75c-8.13,8.52-26.32,31.53-56.67,52.22-40.24,27.65-65,25.93-65,25.93s59.23,18.36,107.19-1a126.44,126.44,0,0,0,40.24-25.34C155.55,175,162.32,166.71,162.52,151.81Z"/><path id="path7131" class="cls-8" d="M251.3,87.4a32.75,32.75,0,0,1-7.35-5c-2.12-2.12-4.45-7.74-5.4-9.27-2.9-4.84-7.16-8.72-16-9.86s-17.21.58-25.54,3.09c-19.91,6.38-36.76,21.86-49.32,36a103.11,103.11,0,0,1,6.57,12,73.68,73.68,0,0,1,3.48,8.33c35.79-5.4,52.61-18.38,68.09-25A58.79,58.79,0,0,1,250.15,93h4.45C257.87,93.19,254.58,89.35,251.3,87.4Z"/></g></g><g id="g7133"><g id="g7135"><path id="path7146" class="cls-2" d="M96.57,46.6c-8.33-6.38-16.82-13-25.15-19h0c-1.92-1.36-3.87-2.7-5.6-4.07h0C43.38,8.11,22.49-1.58,10.88,12,2,22.43,6.81,46.6,25,75.81l.58,1c9.47,14.9,37.12,49.9,102.71,48.35,4.26-4.65,10.83-13.34,19.35-22.83C133.89,79.85,113.2,60.33,96.57,46.6Z"/><path id="path7153" class="cls-3" d="M147.64,102.3c-8.52,9.47-15.09,18.18-19.35,22.83a215.56,215.56,0,0,0,29.41-2.51,63.94,63.94,0,0,0-3.48-8.33C152.27,110.23,150,106.17,147.64,102.3Z"/><path id="path7160" class="cls-4" d="M196.77,66.32c-17.8,5.4-35.4,14.51-58,7.35C127.31,70.19,112.42,59,96.37,46.79c16.82,13.54,37.51,33.08,51.24,55.5C160.2,88.18,177,72.7,196.77,66.32Z"/><path id="path7171" class="cls-5" d="M157.7,122.6c.78,2.12,1.56,4.26,2.12,6.38a87.24,87.24,0,0,1,2.7,15.87c.19,2.31.19,4.65.19,7-.39,14.9-7.16,23.39-8.89,25,24.17-22.64,35-49.9,58.6-70.6a54.71,54.71,0,0,1,13.34-8.52h0C210.3,104.22,193.48,117.2,157.7,122.6Z"/><path id="path7178" class="cls-6" d="M25.58,77c18,28.24,46,50.68,40.61,82-6.94,40.41-59.74,44.09-59.74,44.09H7.62c5.23,0,28.63-1.75,64-25.73,30.36-20.69,48.74-43.72,56.67-52.22a172,172,0,0,1-20.5-.78C56.91,119.12,34.1,90.1,25.58,77Z"/><path id="path7185" class="cls-7" d="M162.52,151.81a79.49,79.49,0,0,0-5-29.21l-4.45.58a214.89,214.89,0,0,1-25,1.75c-8.13,8.52-26.32,31.53-56.67,52.22-40.24,27.65-65,25.93-65,25.93s59.23,18.36,107.19-1a126.44,126.44,0,0,0,40.24-25.34C155.55,175,162.32,166.71,162.52,151.81Z"/><path id="path7192" class="cls-8" d="M251.3,87.4a32.75,32.75,0,0,1-7.35-5c-2.12-2.12-4.45-7.74-5.4-9.27-2.9-4.84-7.16-8.72-16-9.86s-17.21.58-25.54,3.09c-19.91,6.38-36.76,21.86-49.32,36a103.11,103.11,0,0,1,6.57,12,73.68,73.68,0,0,1,3.48,8.33c35.79-5.4,52.61-18.38,68.09-25A58.79,58.79,0,0,1,250.15,93h4.45C257.87,93.19,254.58,89.35,251.3,87.4Z"/></g></g><g id="g7194"><g id="g7196"><path id="path7207" class="cls-2" d="M96.57,46.6c-8.33-6.38-16.82-13-25.15-19h0c-1.92-1.36-3.87-2.7-5.6-4.07h0C43.38,8.11,22.49-1.58,10.88,12,2,22.43,6.81,46.6,25,75.81l.58,1c9.47,14.9,37.12,49.9,102.71,48.35,4.26-4.65,10.83-13.34,19.35-22.83C133.89,79.85,113.2,60.33,96.57,46.6Z"/><path id="path7214" class="cls-3" d="M147.64,102.3c-8.52,9.47-15.09,18.18-19.35,22.83a215.56,215.56,0,0,0,29.41-2.51,63.94,63.94,0,0,0-3.48-8.33C152.27,110.23,150,106.17,147.64,102.3Z"/><path id="path7221" class="cls-4" d="M196.77,66.32c-17.8,5.4-35.4,14.51-58,7.35C127.31,70.19,112.42,59,96.37,46.79c16.82,13.54,37.51,33.08,51.24,55.5C160.2,88.18,177,72.7,196.77,66.32Z"/><path id="path7232" class="cls-5" d="M157.7,122.6c.78,2.12,1.56,4.26,2.12,6.38a87.24,87.24,0,0,1,2.7,15.87c.19,2.31.19,4.65.19,7-.39,14.9-7.16,23.39-8.89,25,24.17-22.64,35-49.9,58.6-70.6a54.71,54.71,0,0,1,13.34-8.52h0C210.3,104.22,193.48,117.2,157.7,122.6Z"/><path id="path7239" class="cls-6" d="M25.58,77c18,28.24,46,50.68,40.61,82-6.94,40.41-59.74,44.09-59.74,44.09H7.62c5.23,0,28.63-1.75,64-25.73,30.36-20.69,48.74-43.72,56.67-52.22a172,172,0,0,1-20.5-.78C56.91,119.12,34.1,90.1,25.58,77Z"/><path id="path7246" class="cls-7" d="M162.52,151.81a79.49,79.49,0,0,0-5-29.21l-4.45.58a214.89,214.89,0,0,1-25,1.75c-8.13,8.52-26.32,31.53-56.67,52.22-40.24,27.65-65,25.93-65,25.93s59.23,18.36,107.19-1a126.44,126.44,0,0,0,40.24-25.34C155.55,175,162.32,166.71,162.52,151.81Z"/><path id="path7253" class="cls-8" d="M251.3,87.4a32.75,32.75,0,0,1-7.35-5c-2.12-2.12-4.45-7.74-5.4-9.27-2.9-4.84-7.16-8.72-16-9.86s-17.21.58-25.54,3.09c-19.91,6.38-36.76,21.86-49.32,36a103.11,103.11,0,0,1,6.57,12,73.68,73.68,0,0,1,3.48,8.33c35.79-5.4,52.61-18.38,68.09-25A58.79,58.79,0,0,1,250.15,93h4.45C257.87,93.19,254.58,89.35,251.3,87.4Z"/></g></g></g></g></g></svg>