<?xml version="1.0" encoding="utf-8"?>
<!-- Generator: Adobe Illustrator 21.1.0, SVG Export Plug-In . SVG Version: 6.00 Build 0)  -->
<svg version="1.1"
	 id="Layer_1" inkscape:version="0.91 r13725" sodipodi:docname="fluentd_logo_horizontal_white.svg" xmlns:cc="http://creativecommons.org/ns#" xmlns:dc="http://purl.org/dc/elements/1.1/" xmlns:inkscape="http://www.inkscape.org/namespaces/inkscape" xmlns:rdf="http://www.w3.org/1999/02/22-rdf-syntax-ns#" xmlns:sodipodi="http://sodipodi.sourceforge.net/DTD/sodipodi-0.dtd" xmlns:svg="http://www.w3.org/2000/svg"
	 xmlns="http://www.w3.org/2000/svg" xmlns:xlink="http://www.w3.org/1999/xlink" x="0px" y="0px" viewBox="0 0 2513 896"
	 style="enable-background:new 0 0 2513 896;" xml:space="preserve">
<style type="text/css">
	.st0{fill:#FFFFFF;}
	.st1{fill:url(#path7024_1_);}
	.st2{fill:url(#path7031_1_);}
	.st3{fill:url(#path7038_1_);}
	.st4{fill:url(#path7049_1_);}
	.st5{fill:url(#path7056_1_);}
	.st6{fill:url(#path7063_1_);}
	.st7{fill:url(#path7070_1_);}
	.st8{fill:url(#path7085_1_);}
	.st9{fill:url(#path7092_1_);}
	.st10{fill:url(#path7099_1_);}
	.st11{fill:url(#path7110_1_);}
	.st12{fill:url(#path7117_1_);}
	.st13{fill:url(#path7124_1_);}
	.st14{fill:url(#path7131_1_);}
	.st15{fill:url(#path7146_1_);}
	.st16{fill:url(#path7153_1_);}
	.st17{fill:url(#path7160_1_);}
	.st18{fill:url(#path7171_1_);}
	.st19{fill:url(#path7178_1_);}
	.st20{fill:url(#path7185_1_);}
	.st21{fill:url(#path7192_1_);}
	.st22{fill:url(#path7207_1_);}
	.st23{fill:url(#path7214_1_);}
	.st24{fill:url(#path7221_1_);}
	.st25{fill:url(#path7232_1_);}
	.st26{fill:url(#path7239_1_);}
	.st27{fill:url(#path7246_1_);}
	.st28{fill:url(#path7253_1_);}
</style>
<g id="g6987">
	<g id="g6989">
		<g id="g6991">
			<path id="path6993" class="st0" d="M1657.1,556.7c-64.6,0-117.1,52.5-117.1,117.2v34.8c0,64.6,52.5,117.2,117.1,117.2h74.5v-42.5
				h-74.5c-39.8,0-72.5-31.4-74.5-70.7h153c21.3,0,38.7-17.4,38.7-38.7C1774.3,609.2,1721.7,556.7,1657.1,556.7z M1582.6,669.9
				c2-39.3,34.7-70.7,74.5-70.7s72.5,31.4,74.5,70.7H1582.6z"/>
			<path id="path6995" class="st0" d="M965.5,498.4c-16.6,17.2-25.7,39.7-25.7,63.4v5.7h-24.6V610h24.6v215.7h42.5V610h57.3v-42.5
				h-57.3v-5.7c0-26,21.2-48,46.2-48h31.4v-42.5h-31.4C1004.7,471.3,982.4,480.9,965.5,498.4z"/>
			<rect id="rect6997" x="1126.7" y="470.9" class="st0" width="42.5" height="354.8"/>
			<path id="path6999" class="st0" d="M1427.6,716.3c0,36.9-30,66.9-66.9,66.9s-66.9-30-66.9-66.9V556.7h-42.5v159.6
				c0,60.4,49.1,109.4,109.4,109.4s109.4-49.1,109.4-109.4V556.7h-42.5V716.3z"/>
			<path id="path7001" class="st0" d="M1926.5,556.7c-60.4,0-109.4,49.1-109.4,109.4v159.6h42.5V666.1c0-36.9,30-66.9,66.9-66.9
				s66.9,30,66.9,66.9v159.6h42.5V666.1C2035.9,605.7,1986.8,556.7,1926.5,556.7z"/>
			<path id="path7003" class="st0" d="M2159,735.1v-136h57.6V599v-42.5H2159v-85.7h-42.5v85.7h-37.8V599h37.8v136
				c0,48.9,39.8,88.8,88.8,88.8h18.8v-42.5h-18.9C2179.7,781.4,2159,760.6,2159,735.1z"/>
			<path id="path7005" class="st0" d="M2436.6,470.9v108.7c-18.5-14.3-41.7-22.9-66.9-22.9c-60.3,0-109.4,49.1-109.4,109.4v17.6v6.4
				v26.3c0,60.3,49.1,109.4,109.4,109.4c60.4,0,109.4-49.1,109.4-109.4v-7.7V690v-6.4V666V470.8L2436.6,470.9L2436.6,470.9z
				 M2436.6,690v18.6v7.7c0,36.9-30,66.9-66.9,66.9s-66.9-30-66.9-66.9V690v-6.4V666c0-36.9,30-66.9,66.9-66.9s66.9,30,66.9,66.9
				v17.6V690z"/>
		</g>
		<g id="g7007">
			<circle id="circle7009" class="st0" cx="913.4" cy="325.1" r="21.5"/>
			<g id="g7011">
				<g id="g7013">
					
						<linearGradient id="path7024_1_" gradientUnits="userSpaceOnUse" x1="-7.6401" y1="1052.7595" x2="1076.4784" y2="1052.7595" gradientTransform="matrix(1 0 0 -1 0 1324.6)">
						<stop  offset="0" style="stop-color:#FFFFFF;stop-opacity:0.75"/>
						<stop  offset="0.32" style="stop-color:#FFFFFF;stop-opacity:0.57"/>
						<stop  offset="0.68" style="stop-color:#FFFFFF;stop-opacity:0.55"/>
						<stop  offset="0.9" style="stop-color:#FFFFFF;stop-opacity:0.45"/>
					</linearGradient>
					<path id="path7024" class="st1" d="M404.1,194.8c-34.2-26.2-69.1-53.2-103.3-77.9l0,0c-7.9-5.6-15.9-11.1-23-16.7l0,0
						C185.6,36.7,99.8-3.1,52.1,52.6c-36.5,42.9-16.7,142.2,58,262.2l2.4,4c38.9,61.2,152.5,205,421.9,198.6
						c17.5-19.1,44.5-54.8,79.5-93.8C557.4,331.4,472.4,251.2,404.1,194.8z"/>
					
						<linearGradient id="path7031_1_" gradientUnits="userSpaceOnUse" x1="33.834" y1="854.1" x2="1066.3086" y2="854.1" gradientTransform="matrix(1 0 0 -1 0 1324.6)">
						<stop  offset="0" style="stop-color:#FFFFFF;stop-opacity:0.4"/>
						<stop  offset="0.67" style="stop-color:#FFFFFF;stop-opacity:0.5"/>
					</linearGradient>
					<path id="path7031" class="st2" d="M613.9,423.6c-35,38.9-62,74.7-79.5,93.8c40.5-0.8,81-4,120.8-10.3
						c-4-11.9-8.7-23-14.3-34.2C632.9,456.2,623.4,439.5,613.9,423.6z"/>
					
						<linearGradient id="path7038_1_" gradientUnits="userSpaceOnUse" x1="403.9197" y1="1015" x2="1072.188" y2="1015" gradientTransform="matrix(1 0 0 -1 0 1324.6)">
						<stop  offset="0" style="stop-color:#FFFFFF;stop-opacity:0.38"/>
						<stop  offset="0.97" style="stop-color:#FFFFFF;stop-opacity:0.5"/>
					</linearGradient>
					<path id="path7038" class="st3" d="M815.7,275.8C742.6,298,670.3,335.4,577.3,306c-46.9-14.3-108.1-60.4-174-110.4
						c69.1,55.6,154.1,135.9,210.5,228C665.5,365.6,734.6,302,815.7,275.8z"/>
					
						<linearGradient id="path7049_1_" gradientUnits="userSpaceOnUse" x1="787.05" y1="1177.9966" x2="787.05" y2="443.9424" gradientTransform="matrix(1 0 0 -1 0 1324.6)">
						<stop  offset="0" style="stop-color:#4FAAC4"/>
						<stop  offset="0" style="stop-color:#FFFFFF;stop-opacity:0.35"/>
						<stop  offset="0.9644" style="stop-color:#FFFFFF;stop-opacity:0.38"/>
						<stop  offset="1" style="stop-color:#FFFFFF;stop-opacity:0.26"/>
					</linearGradient>
					<path id="path7049" class="st4" d="M655.2,507c3.2,8.7,6.4,17.5,8.7,26.2c5.6,21.5,9.5,42.9,11.1,65.2
						c0.8,9.5,0.8,19.1,0.8,28.6c-1.6,61.2-29.4,96.1-36.5,102.5c99.3-93,143.8-205,240.7-290c16.7-14.3,35-26.2,54.8-35l0,0
						C871.3,431.5,802.2,484.8,655.2,507z"/>
					
						<linearGradient id="path7056_1_" gradientUnits="userSpaceOnUse" x1="-77.5838" y1="1086.5" x2="682.564" y2="1086.5" gradientTransform="matrix(1 0 0 1 0 -508)">
						<stop  offset="0" style="stop-color:#FFFFFF;stop-opacity:0.6"/>
						<stop  offset="0.93" style="stop-color:#FFFFFF;stop-opacity:0.47"/>
					</linearGradient>
					<path id="path7056" class="st5" d="M112.5,319.5c73.9,116,189.1,208.2,166.8,336.9c-28.5,166-245.4,181.1-245.4,181.1
						s0.8,0,2.4,0c0.8,0,1.6,0,2.4,0c21.5,0,117.6-7.2,263-105.7c124.7-85,200.2-179.6,232.8-214.5c-30.2,0.8-58-0.8-84.2-3.2
						C241.2,492.7,147.5,373.5,112.5,319.5z"/>
					
						<linearGradient id="path7063_1_" gradientUnits="userSpaceOnUse" x1="33.7" y1="636.1217" x2="1066.1747" y2="636.1217" gradientTransform="matrix(1 0 0 -1 0 1324.6)">
						<stop  offset="0" style="stop-color:#FFFFFF;stop-opacity:0.38"/>
						<stop  offset="0.98" style="stop-color:#FFFFFF;stop-opacity:0.5"/>
					</linearGradient>
					<path id="path7063" class="st6" d="M675,627c0.8-40.5-6.4-81.8-20.7-120c-6.4,0.8-11.9,1.6-18.3,2.4
						c-34.2,4-68.3,7.2-102.5,7.2c-33.4,35-108.1,129.5-232.8,214.5c-165.3,113.6-267,106.5-267,106.5S277,913,474,833.6
						c61.2-23.8,117.6-59.6,165.3-104.1C646.4,722.3,674.2,688.2,675,627z"/>
					
						<linearGradient id="path7070_1_" gradientUnits="userSpaceOnUse" x1="836.3636" y1="1131.6116" x2="836.3636" y2="762.374" gradientTransform="matrix(1 0 0 1 0 -508)">
						<stop  offset="0" style="stop-color:#FFFFFF;stop-opacity:0.3"/>
						<stop  offset="1" style="stop-color:#FFFFFF;stop-opacity:0.35"/>
					</linearGradient>
					<path id="path7070" class="st7" d="M1039.7,362.4c-11.1-5.6-21.5-12.7-30.2-20.7c-8.7-8.7-18.3-31.8-22.2-38.1
						c-11.9-19.9-29.4-35.8-65.9-40.5c-36.5-4.8-70.7,2.4-104.9,12.7c-81.8,26.2-151,89.8-202.6,147.8c10.3,15.9,19.1,32.6,27,49.3
						c5.6,11.1,10.3,23,14.3,34.2c147-22.2,216.1-75.5,279.7-102.5c31.8-13.5,65.9-19.9,100.1-19.1h18.3
						C1066.7,386.2,1053.2,370.4,1039.7,362.4z"/>
				</g>
			</g>
			<g id="g7072">
				<g id="g7074">
					
						<linearGradient id="path7085_1_" gradientUnits="userSpaceOnUse" x1="-7.6401" y1="1052.7595" x2="1076.4784" y2="1052.7595" gradientTransform="matrix(1 0 0 -1 0 1324.6)">
						<stop  offset="0" style="stop-color:#FFFFFF;stop-opacity:0.75"/>
						<stop  offset="0.32" style="stop-color:#FFFFFF;stop-opacity:0.57"/>
						<stop  offset="0.68" style="stop-color:#FFFFFF;stop-opacity:0.55"/>
						<stop  offset="0.9" style="stop-color:#FFFFFF;stop-opacity:0.45"/>
					</linearGradient>
					<path id="path7085" class="st8" d="M404.1,194.8c-34.2-26.2-69.1-53.2-103.3-77.9l0,0c-7.9-5.6-15.9-11.1-23-16.7l0,0
						C185.6,36.7,99.8-3.1,52.1,52.6c-36.5,42.9-16.7,142.2,58,262.2l2.4,4c38.9,61.2,152.5,205,421.9,198.6
						c17.5-19.1,44.5-54.8,79.5-93.8C557.4,331.4,472.4,251.2,404.1,194.8z"/>
					
						<linearGradient id="path7092_1_" gradientUnits="userSpaceOnUse" x1="33.834" y1="854.1" x2="1066.3086" y2="854.1" gradientTransform="matrix(1 0 0 -1 0 1324.6)">
						<stop  offset="0" style="stop-color:#FFFFFF;stop-opacity:0.4"/>
						<stop  offset="0.67" style="stop-color:#FFFFFF;stop-opacity:0.5"/>
					</linearGradient>
					<path id="path7092" class="st9" d="M613.9,423.6c-35,38.9-62,74.7-79.5,93.8c40.5-0.8,81-4,120.8-10.3
						c-4-11.9-8.7-23-14.3-34.2C632.9,456.2,623.4,439.5,613.9,423.6z"/>
					
						<linearGradient id="path7099_1_" gradientUnits="userSpaceOnUse" x1="403.9197" y1="1015" x2="1072.188" y2="1015" gradientTransform="matrix(1 0 0 -1 0 1324.6)">
						<stop  offset="0" style="stop-color:#FFFFFF;stop-opacity:0.38"/>
						<stop  offset="0.97" style="stop-color:#FFFFFF;stop-opacity:0.5"/>
					</linearGradient>
					<path id="path7099" class="st10" d="M815.7,275.8C742.6,298,670.3,335.4,577.3,306c-46.9-14.3-108.1-60.4-174-110.4
						c69.1,55.6,154.1,135.9,210.5,228C665.5,365.6,734.6,302,815.7,275.8z"/>
					
						<linearGradient id="path7110_1_" gradientUnits="userSpaceOnUse" x1="787.05" y1="1177.9966" x2="787.05" y2="443.9424" gradientTransform="matrix(1 0 0 -1 0 1324.6)">
						<stop  offset="0" style="stop-color:#4FAAC4"/>
						<stop  offset="0" style="stop-color:#FFFFFF;stop-opacity:0.35"/>
						<stop  offset="0.9644" style="stop-color:#FFFFFF;stop-opacity:0.38"/>
						<stop  offset="1" style="stop-color:#FFFFFF;stop-opacity:0.26"/>
					</linearGradient>
					<path id="path7110" class="st11" d="M655.2,507c3.2,8.7,6.4,17.5,8.7,26.2c5.6,21.5,9.5,42.9,11.1,65.2
						c0.8,9.5,0.8,19.1,0.8,28.6c-1.6,61.2-29.4,96.1-36.5,102.5c99.3-93,143.8-205,240.7-290c16.7-14.3,35-26.2,54.8-35l0,0
						C871.3,431.5,802.2,484.8,655.2,507z"/>
					
						<linearGradient id="path7117_1_" gradientUnits="userSpaceOnUse" x1="-77.5838" y1="1086.5" x2="682.564" y2="1086.5" gradientTransform="matrix(1 0 0 1 0 -508)">
						<stop  offset="0" style="stop-color:#FFFFFF;stop-opacity:0.6"/>
						<stop  offset="0.93" style="stop-color:#FFFFFF;stop-opacity:0.47"/>
					</linearGradient>
					<path id="path7117" class="st12" d="M112.5,319.5c73.9,116,189.1,208.2,166.8,336.9c-28.5,166-245.4,181.1-245.4,181.1
						s0.8,0,2.4,0c0.8,0,1.6,0,2.4,0c21.5,0,117.6-7.2,263-105.7c124.7-85,200.2-179.6,232.8-214.5c-30.2,0.8-58-0.8-84.2-3.2
						C241.2,492.7,147.5,373.5,112.5,319.5z"/>
					
						<linearGradient id="path7124_1_" gradientUnits="userSpaceOnUse" x1="33.7" y1="636.1217" x2="1066.1747" y2="636.1217" gradientTransform="matrix(1 0 0 -1 0 1324.6)">
						<stop  offset="0" style="stop-color:#FFFFFF;stop-opacity:0.38"/>
						<stop  offset="0.98" style="stop-color:#FFFFFF;stop-opacity:0.5"/>
					</linearGradient>
					<path id="path7124" class="st13" d="M675,627c0.8-40.5-6.4-81.8-20.7-120c-6.4,0.8-11.9,1.6-18.3,2.4
						c-34.2,4-68.3,7.2-102.5,7.2c-33.4,35-108.1,129.5-232.8,214.5c-165.3,113.6-267,106.5-267,106.5S277,913,474,833.6
						c61.2-23.8,117.6-59.6,165.3-104.1C646.4,722.3,674.2,688.2,675,627z"/>
					
						<linearGradient id="path7131_1_" gradientUnits="userSpaceOnUse" x1="836.3636" y1="1131.6116" x2="836.3636" y2="762.374" gradientTransform="matrix(1 0 0 1 0 -508)">
						<stop  offset="0" style="stop-color:#FFFFFF;stop-opacity:0.3"/>
						<stop  offset="1" style="stop-color:#FFFFFF;stop-opacity:0.35"/>
					</linearGradient>
					<path id="path7131" class="st14" d="M1039.7,362.4c-11.1-5.6-21.5-12.7-30.2-20.7c-8.7-8.7-18.3-31.8-22.2-38.1
						c-11.9-19.9-29.4-35.8-65.9-40.5c-36.5-4.8-70.7,2.4-104.9,12.7c-81.8,26.2-151,89.8-202.6,147.8c10.3,15.9,19.1,32.6,27,49.3
						c5.6,11.1,10.3,23,14.3,34.2c147-22.2,216.1-75.5,279.7-102.5c31.8-13.5,65.9-19.9,100.1-19.1h18.3
						C1066.7,386.2,1053.2,370.4,1039.7,362.4z"/>
				</g>
			</g>
			<g id="g7133">
				<g id="g7135">
					
						<linearGradient id="path7146_1_" gradientUnits="userSpaceOnUse" x1="-7.6401" y1="1052.7595" x2="1076.4784" y2="1052.7595" gradientTransform="matrix(1 0 0 -1 0 1324.6)">
						<stop  offset="0" style="stop-color:#FFFFFF;stop-opacity:0.75"/>
						<stop  offset="0.32" style="stop-color:#FFFFFF;stop-opacity:0.57"/>
						<stop  offset="0.68" style="stop-color:#FFFFFF;stop-opacity:0.55"/>
						<stop  offset="0.9" style="stop-color:#FFFFFF;stop-opacity:0.45"/>
					</linearGradient>
					<path id="path7146" class="st15" d="M404.1,194.8c-34.2-26.2-69.1-53.2-103.3-77.9l0,0c-7.9-5.6-15.9-11.1-23-16.7l0,0
						C185.6,36.7,99.8-3.1,52.1,52.6c-36.5,42.9-16.7,142.2,58,262.2l2.4,4c38.9,61.2,152.5,205,421.9,198.6
						c17.5-19.1,44.5-54.8,79.5-93.8C557.4,331.4,472.4,251.2,404.1,194.8z"/>
					
						<linearGradient id="path7153_1_" gradientUnits="userSpaceOnUse" x1="33.834" y1="854.1" x2="1066.3086" y2="854.1" gradientTransform="matrix(1 0 0 -1 0 1324.6)">
						<stop  offset="0" style="stop-color:#FFFFFF;stop-opacity:0.4"/>
						<stop  offset="0.67" style="stop-color:#FFFFFF;stop-opacity:0.5"/>
					</linearGradient>
					<path id="path7153" class="st16" d="M613.9,423.6c-35,38.9-62,74.7-79.5,93.8c40.5-0.8,81-4,120.8-10.3
						c-4-11.9-8.7-23-14.3-34.2C632.9,456.2,623.4,439.5,613.9,423.6z"/>
					
						<linearGradient id="path7160_1_" gradientUnits="userSpaceOnUse" x1="403.9197" y1="1015" x2="1072.188" y2="1015" gradientTransform="matrix(1 0 0 -1 0 1324.6)">
						<stop  offset="0" style="stop-color:#FFFFFF;stop-opacity:0.38"/>
						<stop  offset="0.97" style="stop-color:#FFFFFF;stop-opacity:0.5"/>
					</linearGradient>
					<path id="path7160" class="st17" d="M815.7,275.8C742.6,298,670.3,335.4,577.3,306c-46.9-14.3-108.1-60.4-174-110.4
						c69.1,55.6,154.1,135.9,210.5,228C665.5,365.6,734.6,302,815.7,275.8z"/>
					
						<linearGradient id="path7171_1_" gradientUnits="userSpaceOnUse" x1="787.05" y1="1177.9966" x2="787.05" y2="443.9424" gradientTransform="matrix(1 0 0 -1 0 1324.6)">
						<stop  offset="0" style="stop-color:#4FAAC4"/>
						<stop  offset="0" style="stop-color:#FFFFFF;stop-opacity:0.35"/>
						<stop  offset="0.9644" style="stop-color:#FFFFFF;stop-opacity:0.38"/>
						<stop  offset="1" style="stop-color:#FFFFFF;stop-opacity:0.26"/>
					</linearGradient>
					<path id="path7171" class="st18" d="M655.2,507c3.2,8.7,6.4,17.5,8.7,26.2c5.6,21.5,9.5,42.9,11.1,65.2
						c0.8,9.5,0.8,19.1,0.8,28.6c-1.6,61.2-29.4,96.1-36.5,102.5c99.3-93,143.8-205,240.7-290c16.7-14.3,35-26.2,54.8-35l0,0
						C871.3,431.5,802.2,484.8,655.2,507z"/>
					
						<linearGradient id="path7178_1_" gradientUnits="userSpaceOnUse" x1="-77.5838" y1="1086.5" x2="682.564" y2="1086.5" gradientTransform="matrix(1 0 0 1 0 -508)">
						<stop  offset="0" style="stop-color:#FFFFFF;stop-opacity:0.6"/>
						<stop  offset="0.93" style="stop-color:#FFFFFF;stop-opacity:0.47"/>
					</linearGradient>
					<path id="path7178" class="st19" d="M112.5,319.5c73.9,116,189.1,208.2,166.8,336.9c-28.5,166-245.4,181.1-245.4,181.1
						s0.8,0,2.4,0c0.8,0,1.6,0,2.4,0c21.5,0,117.6-7.2,263-105.7c124.7-85,200.2-179.6,232.8-214.5c-30.2,0.8-58-0.8-84.2-3.2
						C241.2,492.7,147.5,373.5,112.5,319.5z"/>
					
						<linearGradient id="path7185_1_" gradientUnits="userSpaceOnUse" x1="33.7" y1="636.1217" x2="1066.1747" y2="636.1217" gradientTransform="matrix(1 0 0 -1 0 1324.6)">
						<stop  offset="0" style="stop-color:#FFFFFF;stop-opacity:0.38"/>
						<stop  offset="0.98" style="stop-color:#FFFFFF;stop-opacity:0.5"/>
					</linearGradient>
					<path id="path7185" class="st20" d="M675,627c0.8-40.5-6.4-81.8-20.7-120c-6.4,0.8-11.9,1.6-18.3,2.4
						c-34.2,4-68.3,7.2-102.5,7.2c-33.4,35-108.1,129.5-232.8,214.5c-165.3,113.6-267,106.5-267,106.5S277,913,474,833.6
						c61.2-23.8,117.6-59.6,165.3-104.1C646.4,722.3,674.2,688.2,675,627z"/>
					
						<linearGradient id="path7192_1_" gradientUnits="userSpaceOnUse" x1="836.3636" y1="1131.6116" x2="836.3636" y2="762.374" gradientTransform="matrix(1 0 0 1 0 -508)">
						<stop  offset="0" style="stop-color:#FFFFFF;stop-opacity:0.3"/>
						<stop  offset="1" style="stop-color:#FFFFFF;stop-opacity:0.35"/>
					</linearGradient>
					<path id="path7192" class="st21" d="M1039.7,362.4c-11.1-5.6-21.5-12.7-30.2-20.7c-8.7-8.7-18.3-31.8-22.2-38.1
						c-11.9-19.9-29.4-35.8-65.9-40.5c-36.5-4.8-70.7,2.4-104.9,12.7c-81.8,26.2-151,89.8-202.6,147.8c10.3,15.9,19.1,32.6,27,49.3
						c5.6,11.1,10.3,23,14.3,34.2c147-22.2,216.1-75.5,279.7-102.5c31.8-13.5,65.9-19.9,100.1-19.1h18.3
						C1066.7,386.2,1053.2,370.4,1039.7,362.4z"/>
				</g>
			</g>
			<g id="g7194">
				<g id="g7196">
					
						<linearGradient id="path7207_1_" gradientUnits="userSpaceOnUse" x1="-7.6401" y1="1052.7595" x2="1076.4784" y2="1052.7595" gradientTransform="matrix(1 0 0 -1 0 1324.6)">
						<stop  offset="0" style="stop-color:#FFFFFF;stop-opacity:0.75"/>
						<stop  offset="0.32" style="stop-color:#FFFFFF;stop-opacity:0.57"/>
						<stop  offset="0.68" style="stop-color:#FFFFFF;stop-opacity:0.55"/>
						<stop  offset="0.9" style="stop-color:#FFFFFF;stop-opacity:0.45"/>
					</linearGradient>
					<path id="path7207" class="st22" d="M404.1,194.8c-34.2-26.2-69.1-53.2-103.3-77.9l0,0c-7.9-5.6-15.9-11.1-23-16.7l0,0
						C185.6,36.7,99.8-3.1,52.1,52.6c-36.5,42.9-16.7,142.2,58,262.2l2.4,4c38.9,61.2,152.5,205,421.9,198.6
						c17.5-19.1,44.5-54.8,79.5-93.8C557.4,331.4,472.4,251.2,404.1,194.8z"/>
					
						<linearGradient id="path7214_1_" gradientUnits="userSpaceOnUse" x1="33.834" y1="854.1" x2="1066.3086" y2="854.1" gradientTransform="matrix(1 0 0 -1 0 1324.6)">
						<stop  offset="0" style="stop-color:#FFFFFF;stop-opacity:0.4"/>
						<stop  offset="0.67" style="stop-color:#FFFFFF;stop-opacity:0.5"/>
					</linearGradient>
					<path id="path7214" class="st23" d="M613.9,423.6c-35,38.9-62,74.7-79.5,93.8c40.5-0.8,81-4,120.8-10.3
						c-4-11.9-8.7-23-14.3-34.2C632.9,456.2,623.4,439.5,613.9,423.6z"/>
					
						<linearGradient id="path7221_1_" gradientUnits="userSpaceOnUse" x1="403.9197" y1="1015" x2="1072.188" y2="1015" gradientTransform="matrix(1 0 0 -1 0 1324.6)">
						<stop  offset="0" style="stop-color:#FFFFFF;stop-opacity:0.38"/>
						<stop  offset="0.97" style="stop-color:#FFFFFF;stop-opacity:0.5"/>
					</linearGradient>
					<path id="path7221" class="st24" d="M815.7,275.8C742.6,298,670.3,335.4,577.3,306c-46.9-14.3-108.1-60.4-174-110.4
						c69.1,55.6,154.1,135.9,210.5,228C665.5,365.6,734.6,302,815.7,275.8z"/>
					
						<linearGradient id="path7232_1_" gradientUnits="userSpaceOnUse" x1="787.05" y1="1177.9966" x2="787.05" y2="443.9424" gradientTransform="matrix(1 0 0 -1 0 1324.6)">
						<stop  offset="0" style="stop-color:#4FAAC4"/>
						<stop  offset="0" style="stop-color:#FFFFFF;stop-opacity:0.35"/>
						<stop  offset="0.9644" style="stop-color:#FFFFFF;stop-opacity:0.38"/>
						<stop  offset="1" style="stop-color:#FFFFFF;stop-opacity:0.26"/>
					</linearGradient>
					<path id="path7232" class="st25" d="M655.2,507c3.2,8.7,6.4,17.5,8.7,26.2c5.6,21.5,9.5,42.9,11.1,65.2
						c0.8,9.5,0.8,19.1,0.8,28.6c-1.6,61.2-29.4,96.1-36.5,102.5c99.3-93,143.8-205,240.7-290c16.7-14.3,35-26.2,54.8-35l0,0
						C871.3,431.5,802.2,484.8,655.2,507z"/>
					
						<linearGradient id="path7239_1_" gradientUnits="userSpaceOnUse" x1="-77.5838" y1="1086.5" x2="682.564" y2="1086.5" gradientTransform="matrix(1 0 0 1 0 -508)">
						<stop  offset="0" style="stop-color:#FFFFFF;stop-opacity:0.6"/>
						<stop  offset="0.93" style="stop-color:#FFFFFF;stop-opacity:0.47"/>
					</linearGradient>
					<path id="path7239" class="st26" d="M112.5,319.5c73.9,116,189.1,208.2,166.8,336.9c-28.5,166-245.4,181.1-245.4,181.1
						s0.8,0,2.4,0c0.8,0,1.6,0,2.4,0c21.5,0,117.6-7.2,263-105.7c124.7-85,200.2-179.6,232.8-214.5c-30.2,0.8-58-0.8-84.2-3.2
						C241.2,492.7,147.5,373.5,112.5,319.5z"/>
					
						<linearGradient id="path7246_1_" gradientUnits="userSpaceOnUse" x1="33.7" y1="636.1217" x2="1066.1747" y2="636.1217" gradientTransform="matrix(1 0 0 -1 0 1324.6)">
						<stop  offset="0" style="stop-color:#FFFFFF;stop-opacity:0.38"/>
						<stop  offset="0.98" style="stop-color:#FFFFFF;stop-opacity:0.5"/>
					</linearGradient>
					<path id="path7246" class="st27" d="M675,627c0.8-40.5-6.4-81.8-20.7-120c-6.4,0.8-11.9,1.6-18.3,2.4
						c-34.2,4-68.3,7.2-102.5,7.2c-33.4,35-108.1,129.5-232.8,214.5c-165.3,113.6-267,106.5-267,106.5S277,913,474,833.6
						c61.2-23.8,117.6-59.6,165.3-104.1C646.4,722.3,674.2,688.2,675,627z"/>
					
						<linearGradient id="path7253_1_" gradientUnits="userSpaceOnUse" x1="836.3636" y1="1131.6116" x2="836.3636" y2="762.374" gradientTransform="matrix(1 0 0 1 0 -508)">
						<stop  offset="0" style="stop-color:#FFFFFF;stop-opacity:0.3"/>
						<stop  offset="1" style="stop-color:#FFFFFF;stop-opacity:0.35"/>
					</linearGradient>
					<path id="path7253" class="st28" d="M1039.7,362.4c-11.1-5.6-21.5-12.7-30.2-20.7c-8.7-8.7-18.3-31.8-22.2-38.1
						c-11.9-19.9-29.4-35.8-65.9-40.5c-36.5-4.8-70.7,2.4-104.9,12.7c-81.8,26.2-151,89.8-202.6,147.8c10.3,15.9,19.1,32.6,27,49.3
						c5.6,11.1,10.3,23,14.3,34.2c147-22.2,216.1-75.5,279.7-102.5c31.8-13.5,65.9-19.9,100.1-19.1h18.3
						C1066.7,386.2,1053.2,370.4,1039.7,362.4z"/>
				</g>
			</g>
		</g>
	</g>
</g>
</svg>
