<svg xmlns="http://www.w3.org/2000/svg" role="img" viewBox="4.23 0.86 65.78 57.28"><g stroke-dasharray="none" stroke-opacity="1" transform="translate(-987.997 -257.192)"><path fill="none" stroke="#1d252e" stroke-linecap="square" stroke-linejoin="round" stroke-width="1" d="M1007.3715 300.17698l-6.3792 6.63416 6.8496 6.67196"/><path fill="none" stroke="#1d252e" stroke-linecap="butt" stroke-linejoin="miter" stroke-width="1.129" d="M1036.634 265.78447s2.8721 4.37395-.5871 9.1886"/><path fill="none" stroke="#1d252e" stroke-linecap="butt" stroke-linejoin="miter" stroke-width="1" d="M1013.8543 265.8805s-2.8721 4.37398.5871 9.18861"/><path fill="#4c4c4c" fill-opacity="1" stroke="#1d252e" stroke-width=".7" d="M1043.1827 279.79304c-.053-.0193-.1532-.0429-.2234-.0458-.07-.003-1.0061.1125-2.0833.2582-1.0749.14406-2.0453.27076-2.1575.28015-.3265.026-.3157.0322-.9131-.50775l-.5325-.47581-.041-.14656c-.041-.14654-.032-.17106.5793-1.69025.3386-.84869.6334-1.58397.651-1.63658.042-.11894 0-.25992-.1027-.36375-.088-.0859-3.371-1.75563-3.5209-1.79121-.2248-.0514-.3741-.00048-.7312.25004-.7208.51118-2.1747 1.53836-2.511 1.77284l-.3735.26336-.2076.0315c-.2001.0304-.2438.0246-.997-.15415-.433-.10353-.8328-.21115-.8871-.23969-.2295-.12619-.242-.15084-.8609-1.85489-.635-1.74888-.6143-1.69995-.8643-1.80093-.1242-.0475-4.0415-.0848-4.197-.0392-.091.0297-.141.0592-.2004.12052-.049.055-.2699.65262-.6156 1.66696-.4707 1.37315-.5576 1.59644-.649 1.6837-.1406.12963-.1406.12963-1.2116.35552-.9547.20403-1.109.21325-1.3408.10128-.068-.0334-.8328-.54365-1.7015-1.13949-1.6523-1.13316-1.6611-1.13761-1.9067-1.13152-.2881.006-3.666 1.62383-3.6454 1.74683 0 .0183.3113.75727.685 1.6415.3737.88419.6858 1.65057.6946 1.70018.035.19131-.046.28859-.7863.92818-.3763.32658-.7387.6254-.809.66769-.083.0459-.1873.0839-.2833.0969-.106.0156-.8007-.0561-2.2484-.2325-1.152-.14139-2.1491-.25036-2.2133-.2473-.08.007-.1608.0361-.2474.091-.1207.0709-.2012.20184-.8945 1.36094-.4176.70582-.7696 1.3274-.7807 1.38238-.011.051.01.14153.037.19684.052.0953.4518.38171 1.9753 1.33483 1.718 1.07421 1.493.91053 1.5534 1.10954.5632 1.53629 32.3129.21335 32.9626.1376.076-.13028.046-.10784 1.8528-1.27368 1.4944-.96325 1.5467-.99839 1.6162-1.11129.1195-.19134.2111-.0111-1.2371-2.42837-.2467-.40608-.4661-.76081-.4906-.78478-.027-.0225-.089-.0589-.1423-.082z"/><path fill="none" stroke="#1d252e" stroke-linecap="square" stroke-linejoin="round" stroke-width="1" d="M1010.0854 304.49063l-3.0878 3.01565 3.0423 2.53558"/><path fill="none" stroke="#1d252e" stroke-linecap="butt" stroke-linejoin="miter" stroke-width="1" d="M997.61508 284.1551s.077 4.95173 2.87612 7.69448c2.7987 2.74277 6.6199 3.00238 6.6199 3.00238"/><path fill="none" stroke="#1d252e" stroke-linecap="butt" stroke-linejoin="miter" stroke-width="1" d="M1052.7514 284.1551s-.077 4.95173-2.8761 7.69448c-2.7988 2.74277-6.6203 3.00238-6.6203 3.00238"/><path fill="none" stroke="#1d252e" stroke-linecap="square" stroke-linejoin="round" stroke-width="1" d="M1043.3959 300.17698l6.3795 6.63416-6.85 6.67196"/><path fill="none" stroke="#1d252e" stroke-linecap="square" stroke-linejoin="round" stroke-width="1" d="M1040.682 304.49063l3.0878 3.01565-3.0423 2.53558"/><path fill="#f74c00" fill-opacity="1" stroke="#a52b00" stroke-linecap="butt" stroke-linejoin="miter" stroke-width=".7" d="M1007.0671 284.22594h36.2474v21.16668h-36.2474z"/><path fill="#000" fill-opacity="1" stroke="#1d252e" stroke-dashoffset="0" stroke-linecap="square" stroke-linejoin="miter" stroke-miterlimit="4" stroke-width="1.303" d="M1015.9347 260.09324c-2.4647-.31292-4.9501 1.42412-5.5326 3.8338-.7533 2.4717.6279 5.37982 3.076 6.26556 2.2526.94365 5.0296-.10037 6.214-2.20957 1.3767-2.17396.817-5.30372-1.2485-6.84721-.7149-.57588-1.5973-.93811-2.5089-1.04258z"/><ellipse cx="-1047.371" cy="65.609" fill="#000" fill-opacity="1" stroke="#f74c00" stroke-dashoffset="0" stroke-linecap="square" stroke-linejoin="miter" stroke-miterlimit="4" stroke-width="1.36" rx="4.383" ry="4.507" transform="scale(-1 1) rotate(-11.06)"/><ellipse cx="-1048.834" cy="64.341" fill="#fff" fill-opacity="1" stroke="none" stroke-dashoffset="0" stroke-linecap="square" stroke-linejoin="miter" stroke-miterlimit="4" stroke-width="1.36" rx="2.155" ry="2.246" transform="scale(-1 1) rotate(-11.06)"/><path fill="#000" fill-opacity="1" stroke="#1d252e" stroke-dashoffset="0" stroke-linecap="square" stroke-linejoin="miter" stroke-miterlimit="4" stroke-width="1.303" d="M1034.5536 259.99719c2.4647-.31293 4.9501 1.42418 5.5326 3.8338.7533 2.47169-.6279 5.37981-3.076 6.26558-2.2526.94364-5.0296-.10037-6.214-2.20955-1.3767-2.17397-.817-5.30375 1.2485-6.84725.7149-.57583 1.5972-.93806 2.5089-1.04258z"/><ellipse cx="965.069" cy="458.856" fill="#000" fill-opacity="1" stroke="#f74c00" stroke-dashoffset="0" stroke-linecap="square" stroke-linejoin="miter" stroke-miterlimit="4" stroke-width="1.36" rx="4.383" ry="4.507" transform="rotate(-11.06)"/><ellipse cx="963.607" cy="457.588" fill="#fff" fill-opacity="1" stroke="none" stroke-dashoffset="0" stroke-linecap="square" stroke-linejoin="miter" stroke-miterlimit="4" stroke-width="1.36" rx="2.155" ry="2.246" transform="rotate(-11.06)"/><path fill="#f74c00" fill-opacity="1" stroke="#a52b00" stroke-linecap="round" stroke-linejoin="round" stroke-width=".7" d="M996.28437 283.73227s-2.39739-1.80963-2.44595-5.0626c-.049-3.25295 1.85195-3.70417 1.85195-3.70417s-.52915 1.85209 0 2.91043c.52921 1.05833 1.58746 2.38124 1.58746 2.38124"/><path fill="#f74c00" fill-opacity="1" stroke="#a52b00" stroke-linecap="round" stroke-linejoin="round" stroke-width=".7" d="M997.27783 280.25717s-1.32281.52917-1.32281 2.38127c0 1.85205 1.85185 1.5875 1.85185 1.5875s2.91033 0 4.23313-3.70418-.2646-6.87917-.2646-6.87917-.5291 2.64584-1.85187 4.49791c-1.32286 1.8521-2.6457 2.11667-2.6457 2.11667z"/><circle cx="998.193" cy="282.207" r=".751" fill="#4c4c4c" fill-opacity="1" stroke="#1d252e" stroke-linecap="round" stroke-linejoin="round" stroke-width=".567" stop-color="#000"/><path fill="#f74c00" fill-opacity="1" stroke="#a52b00" stroke-linecap="round" stroke-linejoin="round" stroke-width=".7" d="M1054.0821 283.73227s2.3974-1.80963 2.446-5.0626c.049-3.25295-1.852-3.70417-1.852-3.70417s.5292 1.85209 0 2.91043c-.5292 1.05833-1.5874 2.38124-1.5874 2.38124"/><path fill="#f74c00" fill-opacity="1" stroke="#a52b00" stroke-linecap="round" stroke-linejoin="round" stroke-width=".7" d="M1053.0887 280.25717s1.3228.52917 1.3228 2.38127c0 1.85205-1.8519 1.5875-1.8519 1.5875s-2.9103 0-4.2331-3.70418c-1.3229-3.70418.2645-6.87917.2645-6.87917s.5292 2.64584 1.852 4.49791c1.3229 1.8521 2.6457 2.11667 2.6457 2.11667z"/><circle cx="1052.345" cy="282.171" r=".751" fill="#4c4c4c" fill-opacity="1" stroke="#1d252e" stroke-linecap="round" stroke-linejoin="round" stroke-width=".567" stop-color="#000"/><path fill="none" stroke="#cd3c00" stroke-linecap="round" stroke-linejoin="round" stroke-width="1.421" d="M1015.083 286.95534v15.81908"/><path fill="none" fill-opacity="1" stroke="#ff8751" stroke-linecap="round" stroke-linejoin="round" stroke-width="1.421" d="M1009.3288 286.95534v15.81908h5.7542"/><path fill="none" stroke="#a52b00" stroke-linecap="round" stroke-linejoin="round" stroke-width="1.421" d="M1015.083 286.95534h-5.7542"/><path fill="none" stroke="#cd3c00" stroke-linecap="round" stroke-linejoin="round" stroke-width="1.421" d="M1023.7158 286.95534v15.81908"/><path fill="none" fill-opacity="1" stroke="#ff8751" stroke-linecap="round" stroke-linejoin="round" stroke-width="1.421" d="M1017.9608 286.95534v15.81908h5.755"/><path fill="none" stroke="#a52b00" stroke-linecap="round" stroke-linejoin="round" stroke-width="1.421" d="M1023.7158 286.95534h-5.755"/><path fill="none" stroke="#cd3c00" stroke-linecap="round" stroke-linejoin="round" stroke-width="1.421" d="M1032.3484 286.95534v15.81908"/><path fill="none" fill-opacity="1" stroke="#ff8751" stroke-linecap="round" stroke-linejoin="round" stroke-width="1.421" d="M1026.5934 286.95534v15.81908h5.755"/><path fill="none" stroke="#a52b00" stroke-linecap="round" stroke-linejoin="round" stroke-width="1.421" d="M1032.3484 286.95534h-5.755"/><path fill="none" stroke="#cd3c00" stroke-linecap="round" stroke-linejoin="round" stroke-width="1.421" d="M1040.9805 286.95534v15.81908"/><path fill="none" fill-opacity="1" stroke="#ff8751" stroke-linecap="round" stroke-linejoin="round" stroke-width="1.421" d="M1035.2263 286.95534v15.81908h5.7542"/><path fill="none" stroke="#a52b00" stroke-linecap="round" stroke-linejoin="round" stroke-width="1.421" d="M1040.9805 286.95534h-5.7542"/></g></svg>