<?xml version="1.0" encoding="utf-8"?>
<!-- Generator: Adobe Illustrator 21.1.0, SVG Export Plug-In . SVG Version: 6.00 Build 0)  -->
<svg version="1.1" id="Layer_1" xmlns="http://www.w3.org/2000/svg" xmlns:xlink="http://www.w3.org/1999/xlink" x="0px" y="0px"
	 viewBox="0 0 500 500" style="enable-background:new 0 0 500 500;" xml:space="preserve">
<style type="text/css">
	.st0{fill:url(#SVGID_1_);}
	.st1{fill:url(#SVGID_2_);}
	.st2{fill:#2BEDA7;}
	.st3{fill:url(#SVGID_3_);}
	.st4{fill:url(#SVGID_4_);}
	.st5{fill:url(#SVGID_5_);}
	.st6{fill:url(#SVGID_6_);}
	.st7{fill:url(#SVGID_7_);}
	.st8{fill:url(#SVGID_8_);}
</style>
<g>
	<g>
		<g>
			<linearGradient id="SVGID_1_" gradientUnits="userSpaceOnUse" x1="477.2207" y1="106.5148" x2="477.2207" y2="308.7998">
				<stop  offset="0" style="stop-color:#2BEDA7"/>
				<stop  offset="1" style="stop-color:#018AFD"/>
			</linearGradient>
			<polygon class="st0" points="460.4,106.5 460.4,289.3 494.1,308.8 494.1,126 			"/>
			<linearGradient id="SVGID_2_" gradientUnits="userSpaceOnUse" x1="25.4595" y1="106.5198" x2="25.4595" y2="308.8116">
				<stop  offset="0" style="stop-color:#2BEDA7"/>
				<stop  offset="1" style="stop-color:#018AFD"/>
			</linearGradient>
			<polygon class="st1" points="8.6,308.8 42.3,289.3 42.3,106.5 8.6,126 			"/>
		</g>
		<g>
			<polygon class="st2" points="173.8,307 328.9,396.5 328.9,357.6 183.7,273.8 173.8,279.5 173.8,279.5 			"/>
			<path class="st2" d="M337.8,448.4l-164-94.7v38.9l43.8,25.3l-52.7,30.4c-3.5,2-3.5,7.2,0,9.2l25.7,14.9l60.7-35l60.7,35
				l25.7-14.9C341.3,455.6,341.3,450.4,337.8,448.4z"/>
		</g>
		<g>
			<linearGradient id="SVGID_3_" gradientUnits="userSpaceOnUse" x1="477.2207" y1="196.0616" x2="477.2207" y2="382.938">
				<stop  offset="0" style="stop-color:#2BEDA7"/>
				<stop  offset="1" style="stop-color:#018AFD"/>
			</linearGradient>
			<path class="st3" d="M460.4,215.5v162.1c0,4.1,4.4,6.7,8,4.6l23.1-13.3c1.6-0.9,2.7-2.7,2.7-4.6V196.1L460.4,215.5z"/>
			<linearGradient id="SVGID_4_" gradientUnits="userSpaceOnUse" x1="403.0482" y1="238.884" x2="403.0482" y2="425.7602">
				<stop  offset="0" style="stop-color:#2BEDA7"/>
				<stop  offset="1" style="stop-color:#018AFD"/>
			</linearGradient>
			<path class="st4" d="M394.2,425l21.7-12.6c2.5-1.4,4-4.1,4-6.9V238.9l-33.7,19.5v162.1C386.2,424.5,390.6,427.1,394.2,425z"/>
			<linearGradient id="SVGID_5_" gradientUnits="userSpaceOnUse" x1="328.8766" y1="281.7037" x2="328.8766" y2="472.4685">
				<stop  offset="0" style="stop-color:#2BEDA7"/>
				<stop  offset="1" style="stop-color:#018AFD"/>
			</linearGradient>
			<path class="st5" d="M312,472.5l31.1-17.9c1.6-0.9,2.7-2.7,2.7-4.6V281.7L312,301.2V472.5z"/>
			<linearGradient id="SVGID_6_" gradientUnits="userSpaceOnUse" x1="173.8204" y1="281.704" x2="173.8204" y2="472.4656">
				<stop  offset="0" style="stop-color:#2BEDA7"/>
				<stop  offset="1" style="stop-color:#018AFD"/>
			</linearGradient>
			<path class="st6" d="M159.6,454.5l31.1,17.9V301.2L157,281.7v168.2C157,451.8,158,453.6,159.6,454.5z"/>
			<linearGradient id="SVGID_7_" gradientUnits="userSpaceOnUse" x1="99.6492" y1="238.8827" x2="99.6492" y2="425.7597">
				<stop  offset="0" style="stop-color:#2BEDA7"/>
				<stop  offset="1" style="stop-color:#018AFD"/>
			</linearGradient>
			<path class="st7" d="M86.8,412.5l21.7,12.6c3.5,2,8-0.5,8-4.6V258.3l-33.7-19.5v166.7C82.8,408.4,84.3,411.1,86.8,412.5z"/>
			<linearGradient id="SVGID_8_" gradientUnits="userSpaceOnUse" x1="25.4776" y1="196.0585" x2="25.4776" y2="382.9356">
				<stop  offset="0" style="stop-color:#2BEDA7"/>
				<stop  offset="1" style="stop-color:#018AFD"/>
			</linearGradient>
			<path class="st8" d="M12.6,369.7l21.7,12.6c3.5,2,8-0.5,8-4.6V215.5L8.6,196.1v166.7C8.6,365.6,10.1,368.2,12.6,369.7z"/>
		</g>
		<g>
			<path class="st2" d="M494.1,126l-33.7-19.5l-60.7,35l-40.4-23.3l52.7-30.4c3.5-2,3.5-7.2,0-9.2L390.2,66c-2.5-1.4-5.5-1.4-8,0
				l-56.7,32.7l-40.4-23.3L337.8,45c3.5-2,3.5-7.2,0-9.2L316,23.2c-2.5-1.4-5.5-1.4-8,0l-56.7,32.7l-56.7-32.7c-2.5-1.4-5.5-1.4-8,0
				l-21.8,12.6c-3.5,2-3.5,7.2,0,9.2l295.4,170.6l33.7-19.5l-60.7-35L494.1,126z"/>
			<path class="st2" d="M112.5,66L90.8,78.6c-3.5,2-3.5,7.2,0,9.2l295.4,170.6l33.7-19.5L120.5,66C118,64.6,115,64.6,112.5,66z"/>
			<polygon class="st2" points="8.6,126 69.3,161 8.6,196.1 42.4,215.5 103,180.5 143.5,203.9 82.8,238.9 116.5,258.4 177.2,223.3 
				217.6,246.7 156.9,281.7 190.7,301.2 251.3,266.1 312,301.2 345.7,281.7 42.3,106.5 			"/>
		</g>
	</g>
</g>
</svg>
