<svg xmlns="http://www.w3.org/2000/svg" role="img" viewBox="6.75 6.25 401.00 455.00"><defs><style>.cls-2{fill:#0028aa}.cls-3{fill:#4279f4}.cls-4{fill:#fff}</style></defs><path d="M17.9442 384.68653V322.6883h7.94708v32.41132l28.3547-32.41132h8.86085l-24.07658 27.27478 26.30564 34.7096h-9.31773L33.9768 355.87491l-8.08552 9.20698v19.60463H17.9442zm55.40799-13.55434v-30.7499h7.51787v30.99915c-.06947 2.38604 1.18136 4.61622 3.25359 5.80108 4.71205 2.72051 10.51753 2.72051 15.22958 0 2.05707-1.19648 3.29485-3.42235 3.2259-5.80108V340.3823h7.51787v30.72222c.13238 4.37226-2.0175 8.499-5.67647 10.89606-7.65842 5.2713-17.775 5.2713-25.4334 0-3.63665-2.39986-5.76936-6.51332-5.63494-10.86839zm49.62074 13.55434v-66.45635h7.51787v23.27356a40.55234 40.55234 0 0 1 12.9036-2.39519 18.13708 18.13708 0 0 1 8.58395 1.95216 14.82823 14.82823 0 0 1 5.78724 5.17807 25.01816 25.01816 0 0 1 3.08746 7.0056 29.43504 29.43504 0 0 1 1.0107 7.72555c0 7.78095-2.02139 13.68353-6.06415 17.70784-4.04275 4.02428-10.42072 6.02722-19.1339 6.00876h-13.69277zm7.51787-6.74254h6.29951c6.24874 0 10.73455-1.36144 13.45742-4.08432 2.72286-2.72287 4.10737-7.11178 4.15352-13.16665a19.67383 19.67383 0 0 0-2.76902-10.4115c-1.71826-2.92172-4.92247-4.6413-8.30704-4.45812a34.23866 34.23866 0 0 0-12.8067 2.13213l-.02769 29.98846zm40.80143-15.49264c.00001-7.11637 1.88754-12.79286 5.66263-17.02945 3.78467-4.2456 9.2694-6.57662 14.95269-6.35488 12.32212 0 18.48778 8.70394 18.49701 26.1118h-31.59445a17.02946 17.02946 0 0 0 4.01507 9.78848c2.39058 2.87055 6.03644 4.3012 10.9376 4.29199a34.50178 34.50178 0 0 0 14.60656-2.76902v6.92254a38.40602 38.40602 0 0 1-13.65125 2.58902 27.45526 27.45526 0 0 1-10.6607-1.89677 18.42788 18.42788 0 0 1-7.3102-5.20576 22.44306 22.44306 0 0 1-4.15352-7.44866 28.85323 28.85323 0 0 1-1.30144-8.9993zm7.78094-2.93515h23.8966a20.64306 20.64306 0 0 0-3.28128-9.85769c-1.75182-2.54419-4.69567-4.0004-7.78093-3.84893-3.27497-.04368-6.40925 1.32914-8.5978 3.76587a16.71101 16.71101 0 0 0-4.2089 9.94075h-.0277z" class="cls-3"/><path d="M194.0679 388.2248c-3.69705 0-7.3448-.69137-10.82117-2.05848-3.15412-1.23333-5.986-3.24982-8.18558-5.82975-2.04774-2.43249-3.5828-5.18526-4.572-8.19486-.98677-3.1678-1.45842-6.42152-1.41204-9.70551.00293-7.63679 2.09705-13.85617 6.22426-18.48774 4.24-4.75804 10.31876-7.34774 16.69243-7.09531 17.02005-.00147 20.61897 15.40246 20.6258 28.32508l.00098 2.21667h-31.2336c.53805 2.2528 1.59756 4.34254 3.1253 6.13736 1.97353 2.369 4.9797 3.5125 9.20457 3.5125h.04199c4.7224.12694 9.45406-.7568 13.7385-2.59068l3.08722-1.3222v11.79818l-1.41545.54782c-4.62132 1.78994-9.47896 2.71176-14.43816 2.7391-.22118.00586-.44235.00782-.66305.00782zm-2.84115-46.95588c-4.87082 0-9.4106 2.0287-12.61794 5.62713-3.38507 3.79861-5.10128 9.0322-5.10128 15.55577v.03223c-.0415 2.82015.36277 5.6159 1.2011 8.30813.80074 2.43443 2.06043 4.69407 3.7332 6.68029 1.71816 2.01551 3.94216 3.5994 6.42249 4.56908 3.13752 1.2343 6.42981 1.81435 9.80463 1.746 3.94753-.02246 7.79546-.66989 11.4852-1.92568v-2.17761c-4.00906 1.29973-8.26175 1.9159-12.45732 1.78896-.01758.00098-.03515.00098-.05273.00098-5.47284 0-9.70844-1.7128-12.52079-5.08859-2.6517-3.11603-4.22095-6.94102-4.5227-11.0443l-.17479-2.37682h31.72528c-.748-21.68239-12.34843-21.68239-16.24372-21.68239a17.63859 17.63859 0 0 0-.68063-.01318zm-99.51007 46.87385c-4.89817.00098-9.80121-1.43742-13.98555-4.31714-4.2649-2.8143-6.74132-7.57966-6.59436-12.72683v-32.93176h11.94855v33.21397c-.04638 1.63663.7729 3.09846 2.13758 3.87771 4.02272 2.32312 9.00926 2.32312 13.0232.00489 1.35002-.78512 2.16443-2.24988 2.11902-3.81815l-.00098-33.27842h11.94807v32.93762c.15331 5.03878-2.40465 9.94964-6.67785 12.74831-4.15211 2.85824-9.0327 4.2898-13.91768 4.2898zm-16.1495-45.54531l-.00097 28.6029c-.11132 3.61308 1.62345 6.95957 4.64086 8.95165 6.8917 4.7429 16.10213 4.74094 22.9577.02343 3.0345-1.98817 4.8264-5.4284 4.718-9.0034l-.00098-28.57458h-3.08723V371.381c.0913 3.1297-1.56632 6.11099-4.3274 7.71637-5.38788 3.11017-12.07207 3.11017-17.45117.0039-2.77963-1.58878-4.45336-4.57396-4.3601-7.78472l-.00098-28.7191h-3.08772zm61.21583 44.30515c-.04101 0-.08105 0-.12206-.00098h-15.90341v-70.88667h11.94855v22.45529c3.46319-.97114 7.02988-1.5004 10.6415-1.57658 3.34405-.0664 6.66125.68649 9.63179 2.19129 2.69565 1.35197 4.99581 3.40996 6.64416 5.94742 1.51554 2.37145 2.64633 4.93723 3.36944 7.63922.7275 2.70493 1.0932 5.4997 1.08587 8.30374 0 8.35012-2.25964 14.83609-6.71642 19.27236-4.43627 4.41577-11.3602 6.6549-20.57942 6.6549zm-11.59505-4.43042h11.59164c8.0098 0 13.88106-1.80459 17.45703-5.36494 3.5911-3.57402 5.4118-9.0034 5.4118-16.13777.00635-2.41734-.30808-4.82102-.93451-7.1495-.60641-2.2655-1.55314-4.41382-2.81479-6.38832-1.21087-1.86415-2.91292-3.38702-4.91378-4.39087-2.3319-1.1806-4.9216-1.76504-7.54353-1.71767-4.17164.08788-8.2759.84956-12.19951 2.26452l-2.96664 1.06976v-24.21203h-3.08771v62.02682zm-97.0815 4.42944H15.72921V320.4732h12.37723v28.72985L53.2408 320.4732h14.77652L41.89084 350.0702l27.90323 36.8168H54.92381l-21.06475-27.52094-5.7526 6.55042v20.98516zm-7.94683-4.42944h3.5164v-18.22555l10.41837-11.86262 23.01776 30.07352h3.76542l-24.7081-32.6012 22.0271-24.95272h-2.94515l-31.5754 36.09223v-36.09223h-3.5164v57.56857zm116.6307-2.31237h-8.5166l.03124-33.7447 1.4423-.5361c4.35181-1.61613 8.91308-2.37634 13.55003-2.27234 4.19654-.1826 8.11283 1.92811 10.24454 5.55194 2.07997 3.4915 3.14534 7.49714 3.07405 11.57357-.0498 6.60705-1.66543 11.55795-4.80198 14.69352-3.13947 3.14045-8.19436 4.7341-15.02357 4.7341zm-4.08229-4.4314h4.0823c5.61101 0 9.61177-1.1552 11.89045-3.43535 2.28503-2.28405 3.46416-6.19302 3.50517-11.61654.05713-3.27277-.79243-6.4679-2.4569-9.2612-1.31047-2.2279-3.71268-3.51739-6.2843-3.38019l-.08838.00489-.08838-.00196c-3.59062-.09374-7.129.41014-10.53554 1.4965l-.02442 26.19385zm72.63023-13.99629h-26.26513v-2.21765l-2.18152-.15673c.29783-4.15504 1.9906-8.15335 4.76633-11.25865 2.60386-2.89925 6.33461-4.5227 10.21086-4.50512 3.85818-.166 7.45515 1.6293 9.64448 4.80833 2.15027 3.31232 3.40704 7.087 3.66679 10.96619l.1582 2.36363zm-23.65542-4.4309h18.76263c-.45554-2.28454-1.34221-4.47534-2.61509-6.43665-1.2924-1.87588-3.46074-2.96517-5.81462-2.84213l-.06884.00342-.06933-.00098c-2.65855-.0415-5.15792 1.06928-6.91954 3.0306-1.5878 1.77626-2.71323 3.93727-3.2752 6.24574z" class="cls-3"/><path d="M219.69462 347.15254v-6.77024h6.92253v-10.5084c-.13826-3.11426 1.01956-6.14667 3.19821-8.37628 2.08422-2.08458 4.93085-3.22523 7.87785-3.15668h10.88223v6.81178h-6.92254c-3.05977 0-5.08113.62302-6.05029 1.85523-.96915 1.23221-1.46757 3.5305-1.46757 6.92254v6.4518h11.71294v6.74255h-11.71294v37.5617h-7.53172v-37.52017l-6.9087-.01383zm38.68311 37.53399v-66.45635h7.51787v66.45635h-7.51787zm26.51331-5.46882c-9.90974-9.39668-10.32564-25.04761-.92897-34.95735 9.39668-9.90972 25.04761-10.32565 34.95733-.92897 9.90974 9.39667 10.32567 25.04763.929 34.95733-4.65574 4.90996-11.1201 7.69752-17.88638 7.71307-6.38685.21497-12.57389-2.24379-17.07098-6.78408zm5.3165-28.59007c-5.905 6.83966-5.905 16.9739 0 23.81354 6.5149 6.46212 17.02174 6.46212 23.53663 0 5.94683-6.82404 5.94683-16.98949 0-23.81352-6.5149-6.46211-17.02174-6.46211-23.53663 0v-.00002zm41.81212-10.24534h7.96092l10.1069 35.05573 10.28688-35.05573h7.42096l10.16228 35.0834 10.20386-35.0834h7.94705l-13.90046 44.30423h-8.47318l-9.45619-34.0312-9.3454 34.0312h-8.95776l-13.95586-44.30423z" class="cls-2"/><path d="M301.14152 388.23163c-6.61584 0-13.08227-2.68051-17.80027-7.43122-5.20626-4.94895-8.17826-11.62826-8.36916-18.81048-.19091-7.19393 2.43101-14.03144 7.38288-19.2538 10.2216-10.78066 27.30756-11.23473 38.0887-1.01216 10.78016 10.22209 11.23424 27.30854 1.01215 38.08919-5.04854 5.32392-12.15215 8.38722-19.48915 8.4048-.27488.00879-.55075.01367-.82515.01367zm.7695-49.45867c-5.96647 0-11.9217 2.35095-16.34138 7.01182-4.13747 4.36304-6.32826 10.07659-6.1686 16.08797.15966 6.0104 2.65073 11.59994 7.01426 15.7374l.0498.04883c4.04958 4.08766 9.68598 6.32777 15.42199 6.12954 6.19985-.01562 12.13506-2.57505 16.35407-7.02402 8.54103-9.00731 8.16116-23.28435-.84615-31.82586-4.34643-4.12136-9.91985-6.16568-15.484-6.16568zm81.92365 48.12867h-11.78352l-7.75983-27.92667-7.669 27.92667h-12.27178l-15.3512-48.73459h12.64823l8.45851 29.34016 8.60987-29.34016h10.74403l8.50197 29.35188 8.53712-29.35188h12.62625l-15.29065 48.73459zm-5.6076-4.43042h2.35387l12.51054-39.87375h-3.2674l-11.597 39.87375zm-2.80892 0h2.26256l-11.54964-39.87375h-1.79239l11.07947 39.87375zm-25.086 0h2.91243l10.94958-39.87375h-2.16101l-11.701 39.87375zm-2.73179 0h2.20935l-11.49594-39.87375h-3.27374l12.56033 39.87375zm-79.4897 4.43042h-11.94807v-70.88667h11.94806v70.88667zm-7.51766-4.43042h3.08723v-62.02584H260.593v62.02584zm-24.24278 4.43042h-11.96223v-37.52428l-6.9088-.01416v-11.19615h6.92296v-8.293c-.16308-3.61307 1.23187-7.26619 3.82889-9.92473 2.5189-2.5189 5.99576-3.9075 9.51412-3.82303l13.04566-.00049v11.24205h-9.13768c-3.26153 0-4.12281.7729-4.30933 1.0097-.2988.37987-.9936 1.68155-.9936 5.55292v4.23658h11.71322v11.1732h-11.71321v37.56139zm-7.53181-4.43042h3.10139v-37.56138H243.633v-2.31237H231.9198v-8.667c0-3.91824.63522-6.63049 1.94178-8.29202 1.42912-1.81728 3.97781-2.70102 7.79156-2.70102h4.70726v-2.38121h-8.667c-2.40807-.06396-4.6638.85932-6.31166 2.50767-1.72598 1.7665-2.66245 4.2195-2.55161 6.71154l.00244 12.82204h-6.92296v2.3441l6.9088.01417v37.51548zm73.15754-.99018c-4.82785 0-9.65327-1.82216-13.32836-5.46649l-.11669-.12597c-6.57288-7.61286-6.57288-19.09513 0-26.70847l.1167-.125c7.3492-7.28963 19.30751-7.28963 26.6567 0l.10987.11719c6.6383 7.61774 6.6383 19.10635 0 26.7241l-.10986.11815c-3.6746 3.64335-8.50246 5.4665-13.32836 5.4665zm-10.14738-8.55225c5.61345 5.5036 14.68424 5.5036 20.29867-.00391 5.1213-5.93815 5.1213-14.84292 0-20.78058-5.61346-5.50653-14.68424-5.5075-20.29867-.0039-5.07296 5.94107-5.07296 14.84731 0 20.78839z" class="cls-2"/><path d="M15.729 402.123h383.396v50.822H15.729z" class="cls-2"/><g><path d="M98.3851 415.39608h11.48243c5.47168 0 9.39453 3.4912 9.39453 8.49414 0 5.0039-3.92285 8.49511-9.39453 8.49511h-5.32715v7.73926H98.3851v-24.72851zm10.94239 11.37402c2.12402 0 3.5996-1.15137 3.5996-2.87988 0-1.72754-1.47558-2.8789-3.5996-2.8789h-4.78711v5.75878h4.7871zm17.46191-11.37402h6.15528v24.72851h-6.15528v-24.72851zm15.15625 0h11.48242c5.47168 0 9.39454 3.4912 9.39454 8.49414 0 5.0039-3.92286 8.49511-9.39454 8.49511h-5.32714v7.73926h-6.15528v-24.72851zm10.94239 11.37402c2.12402 0 3.5996-1.15137 3.5996-2.87988 0-1.72754-1.47558-2.8789-3.5996-2.8789h-4.78711v5.75878h4.7871zm23.6162-5.86719v3.85156H188.598v5.50782h-12.09375v4.35547h13.31836v5.50683h-19.47364v-24.72851h19.47364v5.50683h-13.31836zm39.5254 13.71485v5.50683H197.9603v-24.72851h6.15527v19.22168h11.91407zm7.34668-19.22168h6.15527v24.72851h-6.15527v-24.72851zm15.15625 0h6.15527l10.79883 14.61425v-14.61425h6.11914v24.72851h-6.11914l-10.79883-14.61426v14.61426h-6.15527v-24.72851zm38.26562 5.50683v3.85156h12.09375v5.50782H276.7982v4.35547h13.31836v5.50683h-19.47363v-24.72851h19.47363v5.50683H276.7982zm19.72754 15.51367l3.49219-4.13867c2.41113 1.9795 5.11133 3.13086 8.13476 3.13086 2.30371 0 3.49121-.93555 3.49121-2.26758 0-1.47558-1.15136-1.7998-4.75097-2.66308-5.29102-1.18848-9.21485-2.62793-9.21485-7.5957 0-4.75098 3.81543-7.91895 9.43067-7.91895 4.17578 0 7.41504 1.2246 10.04297 3.38379l-3.13184 4.3916c-2.26758-1.72754-4.75098-2.62793-7.05469-2.62793-1.98047 0-3.0957.93652-3.0957 2.16016 0 1.51172 1.1875 2.01562 4.85938 2.80761 5.54296 1.1875 9.10644 2.77149 9.10644 7.41504 0 4.9668-3.7793 8.0625-9.89844 8.0625-4.3916 0-8.38672-1.43945-11.41113-4.13965z" class="cls-4"/></g><g><path fill="none" d="M275.0524 284.31831c-3.49575 4.33742-8.79205 6.86092-14.39067 6.85685l-106.84074.02465c-5.60078.00107-10.89735-2.52715-14.39067-6.8691L72.8072 201.49499a18.25589 18.25589 0 0 1-1.0463-1.4526c-2.3661-3.62002-3.35225-7.93588-2.8213-12.17854-.536 4.24832.4494 8.57124 2.81887 12.19631a18.257 18.257 0 0 0 1.04639 1.4526l66.62303 82.83572c3.49332 4.34195 8.78998 6.87018 14.39067 6.86905l106.84073-.02464c5.59873.00406 10.89493-2.51943 14.39068-6.8568l66.59852-82.84806c2.18482-2.7155 3.51558-5.95564 3.90173-9.32689-.38877 3.36493-1.71822 6.59852-3.8993 9.3093l-66.59852 82.84787z"/><path fill="#326ce5" d="M345.20616 186.03866L321.4227 82.73101c-1.24685-5.41594-4.91238-9.97403-9.959-12.3841l-96.2662-45.96652c-2.77734-1.32688-5.84615-1.94068-8.92498-1.78497l.0001.0001c-2.4476.12328-4.84579.73015-7.05381 1.78496L102.96496 70.3716c-5.04663 2.41012-8.71207 6.96821-9.95901 12.3841L69.25953 186.0634a18.10553 18.10553 0 0 0-.31992 1.80045c-.53096 4.24266.45518 8.55852 2.8213 12.17854.3246.50084.67389.98558 1.04629 1.4526l66.62312 82.83572c3.49332 4.34195 8.7899 6.87017 14.39067 6.8691l106.84074-.02465c5.59862.00407 10.89492-2.51943 14.39067-6.85685l66.59852-82.84787c2.18108-2.71078 3.51053-5.94437 3.8993-9.3093.23162-2.02196.12348-4.09107-.34406-6.12248z"/><path d="M352.88765 187.66353L327.7871 78.59476c-1.31954-5.7127-5.18853-10.5194-10.5129-13.06118L215.65306 16.99427c-2.93439-1.40177-6.17692-2.04942-9.42964-1.88352-2.58098.13522-5.10883.77974-7.43547 1.89582L97.1668 65.54588c-5.32735 2.54436-9.19672 7.35619-10.51298 13.07348L61.59015 187.67597c-1.17304 5.07876-.22272 10.41219 2.63445 14.78459a19.28465 19.28465 0 0 0 1.10775 1.5264l70.3285 87.45204c3.6878 4.58316 9.27876 7.25184 15.19086 7.25076l112.7866-.02465c5.91003.00407 11.50062-2.65988 15.19085-7.23841l70.3038-87.46438c3.68622-4.58363 5.06805-10.58225 3.7547-16.2988zm-11.23916 13.8245l-66.59852 82.84806c-3.49575 4.33737-8.79195 6.86086-14.39068 6.8568l-106.84073.02464c-5.60069.00113-10.89735-2.5271-14.39067-6.86905l-66.62303-82.83571a18.257 18.257 0 0 1-1.04639-1.4526c-2.36948-3.62508-3.35487-7.948-2.81886-12.19632a18.10553 18.10553 0 0 1 .31992-1.80044L93.00595 82.7557c1.24694-5.4159 4.91238-9.97399 9.959-12.3841l96.25386-45.99113c2.20802-1.0548 4.60622-1.66168 7.0538-1.78497l-.00009-.0001c3.07882-.1557 6.14764.4581 8.92497 1.78498l96.2662 45.96652c5.04663 2.41007 8.71216 6.96816 9.95901 12.3841l23.78346 103.30765c.46754 2.03141.57568 4.10052.34406 6.12248-.38615 3.37124-1.71691 6.61139-3.90173 9.32689z" class="cls-2"/></g><g><path d="M275.07846 214.02498h-5v-8.84619c0-11.46582-4.11523-20.25683-12.23046-26.12988l-31.97559-23.13916 2.93164-4.05078 31.97559 23.13916c9.35449 6.76953 14.29882 17.20605 14.29882 30.18066v8.8462z" class="cls-4"/><path d="M272.582 220.879l-14.027-13.373 4.141-4.343 9.884 9.425 9.879-9.423 4.141 4.342-14.018 13.372zm-87.98693-4.14503h-5V202.503c0-10.74316 5.3457-21.0254 14.29882-27.50488l31.97559-23.13916 2.93164 4.05078-31.97558 23.13916c-7.6582 5.54199-12.23047 14.31006-12.23047 23.4541v14.23096z" class="cls-4"/><path d="M182.1 220.879l-14.027-13.373 4.14-4.343 9.885 9.425 9.879-9.423 4.141 4.342-14.018 13.372z" class="cls-4"/><circle cx="272.578" cy="239.285" r="16.206" class="cls-3" pointer-events="all"/><path d="M272.57756 257.65268c10.12761 0 18.36738-8.23977 18.36738-18.36739s-8.23977-18.36738-18.36738-18.36738-18.36739 8.23977-18.36739 18.36738 8.23977 18.36739 18.36739 18.36739zm0-32.4128c7.74469 0 14.04542 6.30072 14.04542 14.04541s-6.30073 14.04542-14.04542 14.04542-14.04542-6.30072-14.04542-14.04542 6.30072-14.04542 14.04542-14.04542z" class="cls-4"/><circle cx="182.093" cy="239.285" r="16.206" class="cls-3" pointer-events="all"/><path d="M182.0931 257.65268c-10.12762 0-18.36738-8.23977-18.36738-18.36739s8.23976-18.36738 18.36738-18.36738 18.36738 8.23977 18.36738 18.36738-8.23977 18.36739-18.36738 18.36739zm0-32.4128c-7.7447 0-14.04542 6.30072-14.04542 14.04541s6.30073 14.04542 14.04542 14.04542 14.04542-6.30072 14.04542-14.04542-6.30073-14.04542-14.04542-14.04542z" class="cls-4"/><circle cx="227.336" cy="153.885" r="16.206" class="cls-2" pointer-events="all"/><path d="M227.3363 172.25202c-10.12762 0-18.36738-8.23976-18.36738-18.36738s8.23976-18.36738 18.36738-18.36738 18.36738 8.23977 18.36738 18.36738-8.23976 18.36738-18.36738 18.36738zm0-32.4128c-7.7447 0-14.04542 6.30073-14.04542 14.04542s6.30073 14.04542 14.04542 14.04542 14.04542-6.30073 14.04542-14.04542-6.30073-14.04542-14.04542-14.04542z" class="cls-4"/><path d="M229.83628 128.6573h-5v-8.84618c0-11.46583-4.11524-20.25684-12.23047-26.12989l-31.97559-23.13965 2.93164-4.05078 31.97559 23.13965c9.3545 6.76953 14.29883 17.20606 14.29883 30.18067v8.84619z" class="cls-4"/><path d="M227.34 135.511l-14.027-13.373 4.14-4.343 9.885 9.425 9.879-9.423 4.141 4.342-14.018 13.372zm-87.98712-4.1452h-5v-14.23095c0-10.74268 5.3457-21.0249 14.29883-27.5044l31.97558-23.13965 2.93164 4.05078-31.97558 23.13965c-7.6582 5.542-12.23047 14.30957-12.23047 23.45362v14.23095z" class="cls-4"/><g><circle cx="136.853" cy="153.884" r="16.206" class="cls-3" pointer-events="all"/><path d="M136.85304 172.25167c-10.12762 0-18.36738-8.23976-18.36738-18.36738s8.23976-18.36738 18.36738-18.36738 18.36738 8.23976 18.36738 18.36738-8.23976 18.36738-18.36738 18.36738zm0-32.4128c-7.7447 0-14.04542 6.30073-14.04542 14.04542s6.30073 14.04542 14.04542 14.04542 14.04542-6.30073 14.04542-14.04542-6.30073-14.04542-14.04542-14.04542z" class="cls-4"/></g><g><circle cx="182.093" cy="68.516" r="16.206" class="cls-2" pointer-events="all"/><path d="M182.09315 86.88375c-10.12761 0-18.36738-8.23977-18.36738-18.36738s8.23977-18.36739 18.36738-18.36739 18.36738 8.23977 18.36738 18.36739-8.23976 18.36738-18.36738 18.36738zm0-32.4128c-7.74469 0-14.04542 6.30072-14.04542 14.04542s6.30073 14.04542 14.04542 14.04542 14.04542-6.30073 14.04542-14.04542-6.30072-14.04542-14.04542-14.04542z" class="cls-4"/></g><path d="M136.858 135.511l-14.028-13.373 4.141-4.343 9.885 9.425 9.879-9.423 4.14 4.342-14.017 13.372z" class="cls-4"/></g></svg>