<?xml version="1.0" encoding="utf-8"?>
<!-- Generator: Adobe Illustrator 21.1.0, SVG Export Plug-In . SVG Version: 6.00 Build 0)  -->
<svg version="1.1" id="Layer_1" xmlns="http://www.w3.org/2000/svg" xmlns:xlink="http://www.w3.org/1999/xlink" x="0px" y="0px"
	 viewBox="0 0 432 432" enable-background="new 0 0 432 432" xml:space="preserve">
<g>
	<path fill="#231F20" d="M284.362,428.998c0,0,10.012-48.359,51.868-106.405c29.092-16.808,58.267-37.404,82.98-62.111
		c22.847-113.299-11.836-234.858-11.836-234.858S285.815-9.054,172.521,13.793c-24.718,24.723-45.303,53.898-62.111,82.98
		C52.348,138.619,4,148.631,4,148.631s38.672,26.552,57.33,56.68c-7.946,22.92-11.681,37.687-11.681,37.687
		c3.025,14.144,11.975,30.644,24.326,47.292c-8.528,6.76-18.524,13.794-29.386,19.673c-1.298,0.716-2.628,1.402-3.952,2.071
		c9.321,30.747,50.492,69.47,80.481,79.904c0.608-1.201,1.242-2.386,1.886-3.566c6.049-11.156,13.31-21.405,20.235-30.087
		c16.803,12.191,33.225,21.276,46.756,25.048c0,0,14.783-3.731,37.698-11.676C257.81,390.321,284.362,428.998,284.362,428.998z
		 M198.909,326.592c-17.246-7.471-40.15-25.867-55.763-41.49c-21.111-21.111-32.55-39.094-36.94-50.286
		c7.415-25.274,35.899-112.583,90.606-171.278c65.976-11.202,135.09,0.84,165.172,7.472c6.626,30.072,18.684,99.201,7.471,165.172
		C311.12,290.6,225.074,318.899,198.909,326.592z"/>
	<circle fill="#231F20" cx="256.759" cy="176.244" r="45.185"/>
</g>
</svg>
