<svg xmlns="http://www.w3.org/2000/svg" role="img" viewBox="12.17 8.67 823.16 399.66"><title>oauth2-proxy-horizontal-color</title><defs><style>.cls-3{fill:#06ed94}</style></defs><path fill="#333" d="M474.20933 196.63116a41.46679 41.46679 0 0 1-16.33506-3.18964 39.80757 39.80757 0 0 1-21.67092-21.83518 42.99409 42.99409 0 0 1 0-32.23 39.80765 39.80765 0 0 1 21.67092-21.83518 43.41665 43.41665 0 0 1 32.67012 0 39.8101 39.8101 0 0 1 21.66989 21.83518 42.994 42.994 0 0 1 0 32.23 39.81 39.81 0 0 1-21.66989 21.83518 41.485 41.485 0 0 1-16.33506 3.18964zm0-14.07985a26.63714 26.63714 0 0 0 10.28431-1.9799 25.89889 25.89889 0 0 0 8.36072-5.50012 25.04229 25.04229 0 0 0 5.60963-8.525 31.04294 31.04294 0 0 0 0-22.11 25.07963 25.07963 0 0 0-5.60963-8.52549 25.9145 25.9145 0 0 0-8.36072-5.49961 27.6962 27.6962 0 0 0-20.56965 0 25.89233 25.89233 0 0 0-8.36072 5.49961 25.03434 25.03434 0 0 0-5.60962 8.52549 31.04279 31.04279 0 0 0 0 22.11 24.99714 24.99714 0 0 0 5.60962 8.525 25.87675 25.87675 0 0 0 8.36072 5.50012 26.63112 26.63112 0 0 0 10.28534 1.9799zm73.91998-66.44048h16.94044l29.59051 78.76048h-16.39084l-6.48981-18.81031h-30.36016l-6.48981 18.81033h-16.38981zm18.81032 46.3104l-7.03941-19.69-2.8606-9.56994h-.88018l-2.85957 9.56994-7.04044 19.69zm69.7391 25.41015h-.88019a18.26469 18.26469 0 0 1-6.82039 6.43506 19.94541 19.94541 0 0 1-9.78947 2.36472q-10.23059 0-15.23483-6.26977-5.00682-6.27052-5.00527-16.7204v-32.67012H613.359v30.91027q0 5.832 2.58477 8.635 2.58321 2.80482 7.53425 2.80533a10.50006 10.50006 0 0 0 5.22532-1.265 12.21407 12.21407 0 0 0 3.85029-3.41019 15.44293 15.44293 0 0 0 2.41947-5.06 22.69746 22.69746 0 0 0 .82543-6.215v-26.40041H650.209v53.90044h-13.53027zm32.3385-34.54h-9.461v-12.32051h9.461V124.471h14.4094v16.49984h13.2007v12.32051h-13.2007V174.829a15.54561 15.54561 0 0 0 .38534 3.57135 5.7936 5.7936 0 0 0 1.48454 2.77744 5.44914 5.44914 0 0 0 4.39988 1.81357 8.00547 8.00547 0 0 0 5.06-1.4303l4.07034 12.65007a23.83924 23.83924 0 0 1-5.44434 1.81512 31.8029 31.8029 0 0 1-6.43505.60487 19.66528 19.66528 0 0 1-7.31524-1.29084 15.54151 15.54151 0 0 1-5.44537-3.53675q-5.17107-5.05331-5.16953-14.37272zm38.71777-37.18055h14.4094v22.1105l-.87915 9.79h.87915a17.85447 17.85447 0 0 1 6.65511-6.325 19.31492 19.31492 0 0 1 9.73574-2.47526q10.44909 0 15.45488 6.16026 5.00371 6.16128 5.00527 16.8299v32.67013H744.585V163.961q0-5.60962-2.64055-8.525a9.44018 9.44018 0 0 0-7.37-2.91484 10.82482 10.82482 0 0 0-5.28007 1.265 11.76092 11.76092 0 0 0-3.904 3.465 16.09429 16.09429 0 0 0-2.4205 5.11478 22.748 22.748 0 0 0-.82544 6.215v26.29034H707.735zm62.03853 78.76048v-13.09016q6.48979-6.37824 11.98992-11.87991 2.31048-2.3097 4.73048-4.73 2.4174-2.41818 4.50939-4.50991 2.08888-2.08889 3.74078-3.795 1.6488-1.70458 2.53-2.69531 1.75726-2.08811 3.13436-3.73975a18.16413 18.16413 0 0 0 2.20046-3.24542 16.47472 16.47472 0 0 0 1.26449-3.18963 13.02445 13.02445 0 0 0 .44009-3.465 8.4276 8.4276 0 0 0-2.85956-6.325 10.93308 10.93308 0 0 0-7.81009-2.6953q-4.951 0-7.70058 2.80533a14.59773 14.59773 0 0 0-3.73975 6.325l-13.09015-5.3901a24.55547 24.55547 0 0 1 2.8606-6.105 22.76637 22.76637 0 0 1 5.06-5.61014 26.44875 26.44875 0 0 1 7.31421-4.07034 26.86184 26.86184 0 0 1 9.5157-1.59456 29.71878 29.71878 0 0 1 10.3401 1.70458 23.00883 23.00883 0 0 1 7.81008 4.67521 20.92923 20.92923 0 0 1 4.94949 6.98517 21.28551 21.28551 0 0 1 1.76037 8.635 25.00612 25.00612 0 0 1-3.465 12.92486 56.87664 56.87664 0 0 1-8.41546 10.945l-9.45992 9.46043q-3.74077 3.74077-8.47022 8.35968l.44009.66014h30.4707v12.65007z"/><path fill="#7c7c82" d="M447.03623 265.05824v31.9h-10.12v-78.7605h26.84045a24.25664 24.25664 0 0 1 17.38054 6.82039 22.75761 22.75761 0 0 1 0 33.32974 24.22463 24.22463 0 0 1-17.38054 6.71037zm0-37.18055v27.50059h16.94045a13.378 13.378 0 0 0 10.01054-4.07033 13.80577 13.80577 0 0 0-10.01054-23.43026zm60.28022 69.08052h-10.12v-53.90044h9.68v8.80029h.44009a14.60805 14.60805 0 0 1 6.32451-7.31523 17.56035 17.56035 0 0 1 9.40516-3.02486 18.97706 18.97706 0 0 1 7.48054 1.31976l-3.08065 9.7905a16.79182 16.79182 0 0 0-5.94021-.77017 13.09674 13.09674 0 0 0-9.95489 4.61994 15.45278 15.45278 0 0 0-4.23459 10.78019zm23.42922-26.94996q0-12.42951 7.81009-20.57018a26.6222 26.6222 0 0 1 19.91055-8.14015q11.98785 0 19.8 8.14015 7.92011 8.14172 7.91959 20.57018 0 12.53952-7.91959 20.57017-7.81164 8.1417-19.8 8.13964a26.616 26.616 0 0 1-19.91055-8.13964q-7.81164-8.13942-7.81009-20.57017zm10.12 0q0 8.691 5.06 14.07984a17.28222 17.28222 0 0 0 25.08008 0q5.05952-5.388 5.06-14.07984 0-8.58025-5.06-13.97034a17.04544 17.04544 0 0 0-25.08008 0q-5.06098 5.39109-5.05995 13.97034zm79.09059-.44009l19.25041 27.39005h-11.88042l-13.3102-19.91-13.09016 19.91h-11.87938l19.03036-27.39005-18.59027-26.51039h11.43929l13.31021 19.03037 12.65006-19.03037h11.88042zm74.46854-26.51039l-33.77035 77.66076h-10.44961l12.53953-27.17053-22.21949-50.49024h11.00024l16.06026 38.72036h.219l15.62017-38.72036z"/><path d="M211.931 392.63536c-101.38027 0-183.85932-82.47852-183.85932-183.8588S110.55071 24.91776 211.931 24.91776s183.8593 82.47853 183.8593 183.8588-82.47905 183.8588-183.8593 183.8588zm0-354.70389c-94.2045 0-170.84457 76.64111-170.84457 170.84509S117.72648 379.62165 211.931 379.62165s170.84457-76.6411 170.84457-170.84509S306.13548 37.93147 211.931 37.93147z" class="cls-3"/><path fill="#059b61" d="M244.602 112.007l-5.307 19.836 42.664 35.013 40.096-4.944-77.453-49.905z"/><path d="M348.449 195.562v-36.828l-58.24-49.555-45.607 2.828 55.607 44.663H76.642v41.38l271.807-2.488z" class="cls-3"/><path fill="#1957ba" d="M180.489 297.175l5.307-19.835-43.926-36.782-38.833 6.713 77.452 49.904z"/><path fill="#6ca8ff" d="M76.642 213.62v36.828l58.24 49.556 45.607-2.829-55.607-44.663h223.567v-41.38L76.642 213.62z"/></svg>