<svg xmlns="http://www.w3.org/2000/svg" viewBox="0 0 709.76 143.99"><defs><style>.cls-1{fill:#fff;}</style></defs><g id="图层_2" data-name="图层 2"><g id="图层_1-2" data-name="图层 1"><path class="cls-1" d="M247.47,106.75H210.25a15.1,15.1,0,0,1-15.1-15.1V52.34a15.1,15.1,0,0,1,15.1-15.1h37.22V47H209a2.26,2.26,0,0,0-2.26,2.26V94.58A2.27,2.27,0,0,0,209,96.85h38.47Z"/><path class="cls-1" d="M271.42,106.75H260.54V37.24h10.88Z"/><path class="cls-1" d="M319.22,106.75H298.33a15.11,15.11,0,0,1-15.1-15.1V51.9H293.7V95.27A2.27,2.27,0,0,0,296,97.54h25.2a2.26,2.26,0,0,0,2.26-2.27V51.9h10.89V91.65A15.1,15.1,0,0,1,319.22,106.75Z"/><path class="cls-1" d="M380,106.75H342.78V97.54H382a2.27,2.27,0,0,0,2.27-2.27V86A2.27,2.27,0,0,0,382,83.72H357.88a15.1,15.1,0,0,1-15.1-15.1V67a15.1,15.1,0,0,1,15.1-15.1H394.7v9.63H355.51a2.26,2.26,0,0,0-2.26,2.26v8.45a2.27,2.27,0,0,0,2.26,2.27H380a15.1,15.1,0,0,1,15.1,15.1v2A15.1,15.1,0,0,1,380,106.75Z"/><path class="cls-1" d="M400.32,51.9h6.11a2.27,2.27,0,0,0,2.27-2.27V38.92h10.47V49.63a2.27,2.27,0,0,0,2.26,2.27h19.09V62H421.43a2.26,2.26,0,0,0-2.26,2.26V94.86a2.26,2.26,0,0,0,2.26,2.26H440.1v9.63H423.8a15.1,15.1,0,0,1-15.1-15.1V64.21A2.27,2.27,0,0,0,406.43,62h-6.11Z"/><path class="cls-1" d="M501.2,106.75H463.54a15.1,15.1,0,0,1-15.1-15.1V67a15.1,15.1,0,0,1,15.1-15.1H486.1A15.1,15.1,0,0,1,501.2,67v.78a15.1,15.1,0,0,1-15.1,15.1H461.18a2.27,2.27,0,0,0-2.27,2.27v9.71a2.26,2.26,0,0,0,2.27,2.26h40ZM490.73,71V64.21A2.26,2.26,0,0,0,488.47,62H461.18a2.26,2.26,0,0,0-2.27,2.26V71a2.26,2.26,0,0,0,2.27,2.26h27.29A2.26,2.26,0,0,0,490.73,71Z"/><path class="cls-1" d="M545.93,62H523.49a2.27,2.27,0,0,0-2.27,2.26v42.54H510.34V67a15.1,15.1,0,0,1,15.1-15.1h20.49Z"/><path class="cls-1" d="M602.47,106.75H592V64.21A2.26,2.26,0,0,0,589.73,62H565.79a2.26,2.26,0,0,0-2.26,2.26v42.54H553.06V67a15.1,15.1,0,0,1,15.1-15.1h19.21A15.1,15.1,0,0,1,602.47,67Z"/><path class="cls-1" d="M665.2,106.75H627.54a15.1,15.1,0,0,1-15.1-15.1V67a15.1,15.1,0,0,1,15.1-15.1H650.1A15.1,15.1,0,0,1,665.2,67v.78a15.1,15.1,0,0,1-15.1,15.1H625.17a2.27,2.27,0,0,0-2.26,2.27v9.71a2.26,2.26,0,0,0,2.26,2.26h40ZM654.73,71V64.21A2.26,2.26,0,0,0,652.47,62h-27.3a2.26,2.26,0,0,0-2.26,2.26V71a2.26,2.26,0,0,0,2.26,2.26h27.3A2.26,2.26,0,0,0,654.73,71Z"/><path class="cls-1" d="M669.56,51.9h6.11a2.27,2.27,0,0,0,2.27-2.27V38.92H688.4V49.63a2.27,2.27,0,0,0,2.27,2.27h19.09V62H690.67a2.27,2.27,0,0,0-2.27,2.26V94.86a2.27,2.27,0,0,0,2.27,2.26h18.67v9.63H693a15.1,15.1,0,0,1-15.1-15.1V64.21A2.27,2.27,0,0,0,675.67,62h-6.11Z"/><path class="cls-1" d="M21.72,88.55,2.45,99.68A4.88,4.88,0,0,0,0,103.93v22.24a4.91,4.91,0,0,0,2.45,4.25l19.27,11.12a4.88,4.88,0,0,0,4.9,0L47.2,129.66a4.93,4.93,0,0,1,2.46-.66H79.4a4.9,4.9,0,0,0,4.9-4.9V106a4.9,4.9,0,0,0-4.9-4.91H49.66a4.92,4.92,0,0,1-2.46-.65L26.62,88.55A4.93,4.93,0,0,0,21.72,88.55Z"/><path class="cls-1" d="M134.5,87.89,121.7,67.31a4.91,4.91,0,0,0-6.62-1.66l-15.67,9a4.91,4.91,0,0,0-1.71,6.84l12.54,20.16a4.93,4.93,0,0,1,.74,2.59V128a4.88,4.88,0,0,0,2.45,4.24l19.27,11.13a4.93,4.93,0,0,0,4.9,0l19.27-11.13a4.9,4.9,0,0,0,2.45-4.24V105.72a4.93,4.93,0,0,0-2.45-4.25L136.21,89.55A5,5,0,0,1,134.5,87.89Z"/><path class="cls-1" d="M80.71,54.45l20.67-11.93a4.88,4.88,0,0,0,2.45-4.25V16a4.91,4.91,0,0,0-2.45-4.25L82.11.66a4.88,4.88,0,0,0-4.9,0L57.94,11.78A4.91,4.91,0,0,0,55.49,16V39.69a4.89,4.89,0,0,1-.75,2.61L41.59,63.2a4.91,4.91,0,0,0,1.7,6.86l15.67,9a4.91,4.91,0,0,0,6.6-1.64L79,56.09A4.94,4.94,0,0,1,80.71,54.45Z"/></g></g></svg>