<?xml version="1.0" encoding="UTF-8" standalone="no"?>
<svg
   role="img"
   viewBox="15.06 11.56 360.62 112.37"
   version="1.1"
   id="svg1"
   sodipodi:docname="bootc-horizontal-white.svg"
   inkscape:version="1.4.2 (ebf0e940d0, 2025-05-08)"
   xmlns:inkscape="http://www.inkscape.org/namespaces/inkscape"
   xmlns:sodipodi="http://sodipodi.sourceforge.net/DTD/sodipodi-0.dtd"
   xmlns="http://www.w3.org/2000/svg"
   xmlns:svg="http://www.w3.org/2000/svg">
  <defs
     id="defs1" />
  <sodipodi:namedview
     id="namedview1"
     pagecolor="#ffffff"
     bordercolor="#000000"
     borderopacity="0.25"
     inkscape:showpageshadow="2"
     inkscape:pageopacity="0.0"
     inkscape:pagecheckerboard="0"
     inkscape:deskcolor="#d1d1d1"
     inkscape:zoom="6.691254"
     inkscape:cx="180.38472"
     inkscape:cy="56.192755"
     inkscape:window-width="2560"
     inkscape:window-height="1371"
     inkscape:window-x="0"
     inkscape:window-y="0"
     inkscape:window-maximized="1"
     inkscape:current-layer="svg1" />
  <g
     id="g25"
     transform="translate(-407.825 -152.576)">
    <g
       id="g15"
       transform="translate(-53.664 -238.213)">
      <path
         id="path9-1-30-5-5-25"
         fill="#fff"
         fill-opacity="1"
         stroke="#000"
         stroke-dasharray="none"
         stroke-linecap="butt"
         stroke-linejoin="bevel"
         stroke-opacity="1"
         stroke-width="1.849"
         d="m 489.38218,452.3837 c 0.43711,-0.67463 4.6996,-7.95662 4.6996,-7.95662 l 82.00966,-0.17153 5.13323,8.7686 z" />
      <path
         id="path4123-7-30-6-6-34"
         fill="#fff"
         fill-opacity="1"
         stroke="#000"
         stroke-dasharray="none"
         stroke-linecap="round"
         stroke-linejoin="round"
         stroke-opacity="1"
         stroke-width="1.249"
         d="m 516.03296,459.2308 c 8.55084,-0.34018 15.81865,-5.30965 17.64142,-8.70507 4.10909,-7.65431 6.03628,-22.25087 10.99915,-29.89052 3.8505,-5.92733 8.13291,-9.40142 15.7727,-10.44184 9.12283,-1.24239 17.67791,1.86514 21.80841,10.70143 2.42446,5.1866 3.51683,10.22107 2.36198,19.64461 -0.50667,4.13448 -2.60391,14.4518 -9.34962,20.82226 -6.74571,6.37046 -22.96977,16.31343 -34.23023,17.76339 z" />
      <g
         id="g184916-1-1-2-9-9-9"
         fill-opacity="1"
         stroke="#000"
         stroke-dasharray="none"
         stroke-dashoffset="0"
         stroke-linecap="square"
         stroke-linejoin="miter"
         stroke-miterlimit="4"
         stroke-opacity="1"
         stroke-width=".852"
         transform="matrix(1.28072 -.45061 .45038 1.28006 -931.428 1119.328)">
        <ellipse
           id="ellipse184912-8-5-5-1-1-0"
           cx="-1206.346"
           cy="-75.636"
           fill="#000"
           rx="1.87"
           ry="1.943"
           transform="matrix(-.99938 .03515 .03513 .99938 0 0)" />
        <ellipse
           id="ellipse184914-7-9-4-2-27-2"
           cx="1206.915"
           cy="-76.183"
           fill="#fff"
           rx=".919"
           ry=".968"
           transform="rotate(-2.014) skewX(-.001)" />
      </g>
      <g
         id="g184942-8-7-0-7-0-01"
         fill-opacity="1"
         stroke="#000"
         stroke-dasharray="none"
         stroke-dashoffset="0"
         stroke-linecap="square"
         stroke-linejoin="miter"
         stroke-miterlimit="4"
         stroke-opacity="1"
         stroke-width=".852"
         transform="matrix(1.28072 -.45061 .45038 1.28006 -896.41 1113.78)">
        <ellipse
           id="ellipse184938-9-7-5-0-9-9"
           cx="1193.299"
           cy="-87.545"
           fill="#000"
           rx="1.87"
           ry="1.943"
           transform="rotate(-1.455)" />
        <ellipse
           id="ellipse184940-7-6-9-9-3-6"
           cx="-1192.73"
           cy="-88.092"
           fill="#fff"
           rx=".919"
           ry=".968"
           transform="matrix(-.99968 .02539 .02538 .99968 0 0)" />
      </g>
      <ellipse
         id="ellipse184896-9-3-6-6-6-2"
         cx="551.341"
         cy="446.099"
         fill="#fff"
         fill-opacity="1"
         stroke="#000"
         stroke-dasharray="none"
         stroke-dashoffset="6"
         stroke-linecap="square"
         stroke-linejoin="miter"
         stroke-miterlimit="4"
         stroke-opacity="1"
         stroke-width="1.232"
         rx="5.549"
         ry="4.903"
         transform="matrix(.99957 -.02944 .03446 .9994 0 0)" />
      <g
         id="g184906-7-6-9-0-2-1"
         stroke="#000"
         stroke-dasharray="none"
         stroke-miterlimit="4"
         stroke-opacity="1"
         stroke-width=".82"
         transform="matrix(1.00329 -.00095 .00092 .99943 -398.994 436.373)">
        <g
           id="g184904-8-5-22-6-61-2"
           fill="none"
           fill-rule="evenodd"
           stroke="#000"
           stroke-dasharray="none"
           stroke-linecap="butt"
           stroke-linejoin="miter"
           stroke-miterlimit="4"
           stroke-opacity="1"
           stroke-width=".82"
           transform="translate(0 -.53)">
          <path
             id="path184900-4-6-47-2-8-07"
             d="m 962.30591,-5.7829972 0.0993,1.9843749 c 0,0 1.58751,1.4221355 2.51355,-0.033073 0,0 -0.0993,-0.8268214 -0.16541,-1.0914047" />
          <path
             id="path184902-5-3-75-6-7-3"
             d="m 962.28751,-5.7829972 -0.0993,1.9843749 c 0,0 -1.58751,1.4221355 -2.51355,-0.033073 0,0 0.0993,-0.8268214 0.16541,-1.0914047" />
        </g>
      </g>
      <path
         id="path184908-0-9-4-1-92-11"
         fill="#000"
         fill-opacity="1"
         stroke="#000"
         stroke-dasharray="none"
         stroke-dashoffset="0"
         stroke-linecap="square"
         stroke-linejoin="miter"
         stroke-miterlimit="4"
         stroke-opacity="1"
         stroke-width=".821"
         d="m 568.30658,428.15947 c -0.14515,-0.37343 -0.14515,-1.12058 -0.57863,-1.12018 -0.43319,0.002 -0.83421,-0.27942 -1.26031,-0.27895 -0.4261,0.002 -0.82678,0.28115 -1.26026,0.2816 -0.4329,0.002 -0.43274,0.74765 -0.57643,1.1214 -0.14745,0.37389 1.83891,1.5859 1.83891,1.5859 0,0 1.98158,-1.21613 1.83672,-1.58977 z" />
      <path
         id="path184910-6-2-48-8-8-0-9"
         fill="none"
         fill-opacity="1"
         stroke="#000"
         stroke-dasharray="none"
         stroke-dashoffset="0"
         stroke-linecap="square"
         stroke-linejoin="miter"
         stroke-miterlimit="4"
         stroke-opacity="1"
         stroke-width=".932"
         d="m 553.20353,419.15722 c 0.0862,-0.70872 0.50356,-1.37011 1.10624,-1.75285 0.56836,-0.36094 1.29087,-0.46937 1.94015,-0.29115" />
      <path
         id="path184910-6-2-4-1-1-7-2-05"
         fill="none"
         fill-opacity="1"
         stroke="#000"
         stroke-dasharray="none"
         stroke-dashoffset="0"
         stroke-linecap="square"
         stroke-linejoin="miter"
         stroke-miterlimit="4"
         stroke-opacity="1"
         stroke-width=".932"
         d="m 578.66593,419.6953 c -0.11656,-0.70437 -0.56215,-1.34714 -1.18074,-1.70355 -0.58339,-0.33612 -1.30992,-0.41331 -1.9509,-0.20728" />
      <g
         id="g3934-0-3-9-0-5-6"
         stroke="#000"
         stroke-opacity="1"
         transform="rotate(-3.23 6384.31 -9168.711) scale(1.45672)">
        <g
           id="g184926-9-7-9-36-2-9-7"
           stroke="#000"
           stroke-dasharray="none"
           stroke-miterlimit="4"
           stroke-opacity="1"
           stroke-width=".655"
           transform="matrix(-.80864 -.0407 -.04101 .80568 801.15 104.048)">
          <g
             id="g184924-2-8-0-80-3-2-7"
             fill="none"
             fill-rule="evenodd"
             stroke="#000"
             stroke-dasharray="none"
             stroke-linecap="butt"
             stroke-linejoin="miter"
             stroke-miterlimit="4"
             stroke-opacity="1"
             stroke-width=".655">
            <path
               id="path184918-0-6-8-2-7-2-4"
               d="m 956.32834,-6.2874931 c -2.17461,0.00852 -3.90258,0.727992 -5.25392,1.62519" />
            <path
               id="path184920-2-8-8-10-5-8-0"
               d="m 957.00529,-5.3889116 c -2.45021,0.3102076 -3.99116,1.6666651 -5.21618,2.999397" />
            <path
               id="path184922-3-8-5-5-9-9-6"
               d="m 957.14608,-4.4502461 c -2.0377,0.8062397 -3.03766,2.4684328 -3.7999,4.05763317" />
          </g>
        </g>
      </g>
      <g
         id="g3934-4-0-1-2-7-4"
         stroke="#000"
         stroke-opacity="1"
         transform="matrix(-1.45523 .06598 .06598 1.45523 597.348 341.251)">
        <g
           id="g184926-9-3-9-1-2-3-74"
           stroke="#000"
           stroke-dasharray="none"
           stroke-miterlimit="4"
           stroke-opacity="1"
           stroke-width=".655"
           transform="matrix(-.80864 -.0407 -.04101 .80568 801.15 104.048)">
          <g
             id="g184924-2-1-6-0-8-6-8"
             fill="none"
             fill-rule="evenodd"
             stroke="#000"
             stroke-dasharray="none"
             stroke-linecap="butt"
             stroke-linejoin="miter"
             stroke-miterlimit="4"
             stroke-opacity="1"
             stroke-width=".655">
            <path
               id="path184918-0-4-3-8-9-1-5"
               d="m 956.32834,-6.2874931 c -2.17461,0.00852 -3.90258,0.727992 -5.25392,1.62519" />
            <path
               id="path184920-2-9-8-50-7-2-8"
               d="m 957.00529,-5.3889116 c -2.45021,0.3102076 -3.99116,1.6666651 -5.21618,2.999397" />
            <path
               id="path184922-3-2-5-6-3-9-2"
               d="m 957.14608,-4.4502461 c -2.0377,0.8062397 -3.03766,2.4684328 -3.7999,4.05763317" />
          </g>
        </g>
      </g>
      <path
         id="path1396-61-4-6-3-6"
         fill="#fff"
         fill-opacity="1"
         stroke="#000"
         stroke-dasharray="none"
         stroke-linecap="square"
         stroke-linejoin="miter"
         stroke-opacity="1"
         stroke-width="1.249"
         d="m 517.75393,457.75527 c -0.63408,-0.013 -6.71528,-6.29098 -7.54648,-8.05225 -1.44444,-3.0607 -3.95527,-7.54126 -4.1481,-10.02897 -0.19558,-2.52316 -0.88667,-7.67045 -2.24603,-9.4043 -1.29338,-1.64969 -5.76453,-1.83087 -7.29705,0.39904 -1.53259,2.22991 -0.13175,7.07277 -0.13175,7.07277 0,0 -7.60976,-1.96017 -9.99155,-0.21297 -2.38182,1.74719 -2.99546,4.8238 -0.86045,6.44098 4.55125,2.93085 9.60893,0.62289 12.03711,2.14185 2.20957,1.3822 2.03196,9.66781 3.43081,12.03999" />
      <g
         id="shape-e0c7bf36-69e6-80bd-8003-ed1bfda97bd7-98-5-9-4-0"
         fill="#fff"
         fill-opacity="1"
         transform="rotate(-17.993 1538.449 -1172.39) scale(.26623)">
        <g
           id="fills-e0c7bf36-69e6-80bd-8003-ed1bfda97bd7-4-8-3-7-6"
           fill="#fff"
           fill-opacity="1"
           class="fills">
          <path
             id="path12-8-6-1-8-6"
             fill="#fff"
             fill-opacity="1"
             stroke="#8708a8"
             stroke-opacity="1"
             d="M 145.477,186.202 474.547,292.908 412.092,485.514 83.021,378.808 Z"
             color="#000" />
        </g>
        <g
           id="strokes-e0c7bf36-69e6-80bd-8003-ed1bfda97bd7-1-2-9-4-4"
           fill="#fff"
           fill-opacity="1"
           class="strokes">
          <g
             id="g13-0-8-4-5-6"
             fill="#fff"
             fill-opacity="1"
             class="stroke-shape">
            <path
               id="path13-3-4-7-0-2"
               fill="#fff"
               fill-opacity="1"
               stroke-width=".7"
               d="M 145.477,186.202 474.547,292.908 412.092,485.514 83.021,378.808 Z"
               color="#000" />
          </g>
        </g>
      </g>
      <g
         id="shape-e0c7bf36-69e6-80bd-8003-ed1bfda97bd8-0-7-8-3-8"
         fill="#000"
         fill-opacity="1"
         stroke="none"
         transform="rotate(-17.993 1538.449 -1172.39) scale(.26623)">
        <g
           id="fills-e0c7bf36-69e6-80bd-8003-ed1bfda97bd8-44-2-4-6-96"
           fill="#000"
           fill-opacity="1"
           stroke="none"
           class="fills">
          <path
             id="path14-4-4-5-1-07"
             fill="#000"
             fill-opacity="1"
             stroke="none"
             stroke-opacity="1"
             d="m 143.33,181.991 -1.032,3.182 -63.485,195.781 335.418,108.764 64.516,-198.962 z m 4.284,8.421 L 470.337,295.06 409.946,481.298 87.224,376.65 Z"
             color="#000" />
        </g>
      </g>
      <g
         id="shape-e0c7bf36-69e6-80bd-8003-ed1bfda97bc9-47-06-0-06-0"
         fill="#000"
         fill-opacity="1"
         transform="rotate(-17.993 1538.449 -1172.39) scale(.26623)">
        <g
           id="fills-e0c7bf36-69e6-80bd-8003-ed1bfda97bc9-6-2-3-3-1"
           fill="#000"
           fill-opacity="1"
           class="fills">
          <path
             id="path45-31-9-6-2-0"
             fill="#000"
             fill-opacity="1"
             stroke-linejoin="round"
             d="m 212.298,228.18 c -3.557,-1.156 -7.381,0.795 -8.545,4.359 l -46.681,143.957 c -0.557,1.715 -0.411,3.582 0.406,5.188 0.817,1.606 2.238,2.82 3.95,3.374 3.561,1.146 7.38,-0.815 8.535,-4.382 l 46.68,-143.957 c 1.147,-3.563 -0.796,-7.38 -4.345,-8.539 z"
             color="#000" />
        </g>
      </g>
      <g
         id="shape-e0c7bf36-69e6-80bd-8003-ed1bfda97bca-7-9-1-0-1"
         fill="#000"
         fill-opacity="1"
         transform="rotate(-17.993 1538.449 -1172.39) scale(.26623)">
        <g
           id="fills-e0c7bf36-69e6-80bd-8003-ed1bfda97bca-5-0-0-6-3"
           fill="#000"
           fill-opacity="1"
           class="fills">
          <path
             id="path46-9-8-6-1-7"
             fill="#000"
             fill-opacity="1"
             stroke-linejoin="round"
             d="m 160.045,211.236 c -3.554,-1.144 -7.366,0.807 -8.528,4.365 l -46.68,143.957 c -1.159,3.566 0.783,7.394 4.338,8.556 l 52.253,16.944 c 3.561,1.146 7.38,-0.815 8.535,-4.382 1.158,-3.566 -0.783,-7.395 -4.339,-8.557 l -45.799,-14.851 44.582,-137.487 c 1.149,-3.57 -0.803,-7.393 -4.362,-8.545 z"
             color="#000" />
        </g>
      </g>
      <g
         id="shape-e0c7bf36-69e6-80bd-8003-ed1bfda97bcb-62-1-3-5-7"
         fill="#000"
         fill-opacity="1"
         transform="rotate(-17.993 1538.449 -1172.39) scale(.26623)">
        <g
           id="fills-e0c7bf36-69e6-80bd-8003-ed1bfda97bcb-1-3-2-5-2"
           fill="#000"
           fill-opacity="1"
           class="fills">
          <path
             id="path47-7-1-0-4-6"
             fill="#000"
             fill-opacity="1"
             stroke-linejoin="round"
             d="m 160.045,211.236 c -3.554,-1.144 -7.366,0.807 -8.528,4.365 -1.159,3.566 0.782,7.395 4.339,8.556 l 52.253,16.944 c 3.561,1.146 7.379,-0.815 8.534,-4.382 1.147,-3.563 -0.796,-7.38 -4.345,-8.539 z"
             color="#000" />
        </g>
      </g>
      <g
         id="shape-e0c7bf36-69e6-80bd-8003-ed1bfda97bcc-8-1-6-7-4"
         fill="#000"
         transform="rotate(-17.993 1538.449 -1172.39) scale(.26623)">
        <g
           id="fills-e0c7bf36-69e6-80bd-8003-ed1bfda97bcc-5-0-1-65-5"
           class="fills">
          <path
             id="path48-7-34-5-6-2"
             fill="#000"
             fill-opacity="1"
             stroke-linejoin="round"
             d="m 290.67,253.594 c -3.558,-1.157 -7.382,0.793 -8.546,4.358 l -46.681,143.957 c -0.557,1.716 -0.411,3.582 0.406,5.188 0.817,1.606 2.239,2.82 3.951,3.374 3.561,1.146 7.38,-0.815 8.534,-4.382 l 46.68,-143.957 c 1.147,-3.562 -0.795,-7.379 -4.344,-8.538 z"
             color="#000" />
        </g>
      </g>
      <g
         id="shape-e0c7bf36-69e6-80bd-8003-ed1bfda97bcd-41-0-5-9-0"
         fill="#000"
         fill-opacity="1"
         transform="rotate(-17.993 1538.449 -1172.39) scale(.26623)">
        <g
           id="fills-e0c7bf36-69e6-80bd-8003-ed1bfda97bcd-8-3-4-3-2"
           fill="#000"
           fill-opacity="1"
           class="fills">
          <path
             id="path49-5-9-7-7-9"
             fill="#000"
             fill-opacity="1"
             stroke-linejoin="round"
             d="m 238.416,236.65 c -3.557,-1.156 -7.381,0.794 -8.545,4.358 l -46.68,143.957 c -0.558,1.716 -0.412,3.582 0.405,5.188 0.817,1.606 2.238,2.82 3.951,3.374 l 52.253,16.944 c 3.561,1.146 7.38,-0.815 8.534,-4.382 1.158,-3.566 -0.783,-7.395 -4.338,-8.556 l -45.8,-14.852 44.582,-137.487 c 1.149,-3.569 -0.802,-7.393 -4.362,-8.544 z"
             color="#000" />
        </g>
      </g>
      <g
         id="shape-e0c7bf36-69e6-80bd-8003-ed1bfda97bce-9-1-6-4-0"
         fill="#000"
         fill-opacity="1"
         transform="rotate(-17.993 1538.449 -1172.39) scale(.26623)">
        <g
           id="fills-e0c7bf36-69e6-80bd-8003-ed1bfda97bce-7-9-5-5-9"
           fill="#000"
           fill-opacity="1"
           class="fills">
          <path
             id="path50-5-69-6-2-9"
             fill="#000"
             fill-opacity="1"
             stroke-linejoin="round"
             d="m 238.416,236.65 c -3.557,-1.156 -7.381,0.794 -8.545,4.358 -0.558,1.716 -0.412,3.582 0.405,5.188 0.817,1.606 2.238,2.82 3.951,3.374 l 52.254,16.944 c 3.56,1.146 7.379,-0.815 8.533,-4.382 1.147,-3.562 -0.795,-7.379 -4.344,-8.538 z"
             color="#000" />
        </g>
      </g>
      <g
         id="shape-e0c7bf36-69e6-80bd-8003-ed1bfda97bcf-3-3-9-5-4"
         fill="#000"
         fill-opacity="1"
         transform="rotate(-17.993 1538.449 -1172.39) scale(.26623)">
        <g
           id="fills-e0c7bf36-69e6-80bd-8003-ed1bfda97bcf-8-3-3-4-5"
           fill="#000"
           fill-opacity="1"
           class="fills">
          <path
             id="path51-8-80-7-7-1"
             fill="#000"
             fill-opacity="1"
             stroke-linejoin="round"
             d="m 369.023,279.001 c -3.554,-1.145 -7.366,0.806 -8.528,4.364 l -46.68,143.957 c -1.159,3.566 0.782,7.395 4.338,8.556 1.712,0.557 3.575,0.408 5.18,-0.413 1.604,-0.821 2.817,-2.246 3.373,-3.963 l 46.68,-143.957 c 1.149,-3.569 -0.803,-7.393 -4.363,-8.544 z"
             color="#000" />
        </g>
      </g>
      <g
         id="fills-e0c7bf36-69e6-80bd-8003-ed1bfda97bd0-1-6-5-43-0"
         fill="#000"
         fill-opacity="1"
         class="fills"
         transform="rotate(-17.993 1538.449 -1172.39) scale(.26623)">
        <path
           id="path52-8-6-2-0-3"
           fill="#000"
           fill-opacity="1"
           stroke-linejoin="round"
           d="m 316.788,262.063 c -3.558,-1.156 -7.382,0.794 -8.546,4.358 l -46.68,143.957 c -0.558,1.716 -0.412,3.582 0.405,5.188 0.817,1.606 2.238,2.82 3.951,3.374 l 52.235,16.938 c 1.712,0.557 3.575,0.408 5.18,-0.413 1.604,-0.821 2.817,-2.246 3.373,-3.963 0.557,-1.716 0.411,-3.582 -0.406,-5.188 -0.817,-1.606 -2.239,-2.82 -3.951,-3.374 L 276.568,408.095 321.15,270.607 c 1.15,-3.57 -0.803,-7.393 -4.362,-8.544 z"
           color="#000" />
      </g>
      <g
         id="shape-e0c7bf36-69e6-80bd-8003-ed1bfda97bd1-9-4-5-7-7"
         fill="#000"
         fill-opacity="1"
         transform="rotate(-17.993 1538.449 -1172.39) scale(.26623)">
        <g
           id="fills-e0c7bf36-69e6-80bd-8003-ed1bfda97bd1-6-0-4-8-8"
           fill="#000"
           fill-opacity="1"
           class="fills">
          <path
             id="path53-43-0-7-6-8"
             fill="#000"
             fill-opacity="1"
             stroke-linejoin="round"
             d="m 316.788,262.063 c -3.558,-1.156 -7.382,0.794 -8.546,4.358 -0.558,1.716 -0.412,3.582 0.405,5.188 0.817,1.606 2.239,2.82 3.951,3.374 l 52.236,16.938 c 1.711,0.557 3.575,0.408 5.179,-0.413 1.604,-0.821 2.818,-2.246 3.373,-3.963 1.149,-3.569 -0.803,-7.393 -4.363,-8.544 z"
             color="#000" />
        </g>
      </g>
      <g
         id="shape-e0c7bf36-69e6-80bd-8003-ed1bfda97bd2-3-4-4-8-60"
         fill="#000"
         fill-opacity="1"
         transform="rotate(-17.993 1538.449 -1172.39) scale(.26623)">
        <g
           id="fills-e0c7bf36-69e6-80bd-8003-ed1bfda97bd2-3-6-4-8-4"
           fill="#000"
           fill-opacity="1"
           class="fills">
          <path
             id="path54-8-26-3-4-6"
             fill="#000"
             fill-opacity="1"
             stroke-linejoin="round"
             d="m 447.394,304.414 c -3.557,-1.156 -7.381,0.794 -8.545,4.358 l -46.681,143.957 c -0.557,1.716 -0.411,3.582 0.406,5.188 0.817,1.606 2.238,2.82 3.95,3.374 1.712,0.557 3.576,0.408 5.18,-0.413 1.604,-0.821 2.817,-2.246 3.373,-3.963 l 46.68,-143.957 c 1.149,-3.569 -0.803,-7.393 -4.363,-8.544 z"
             color="#000" />
        </g>
      </g>
      <g
         id="shape-e0c7bf36-69e6-80bd-8003-ed1bfda97bd3-6-75-0-3-76"
         fill="#000"
         fill-opacity="1"
         transform="rotate(-17.993 1538.449 -1172.39) scale(.26623)">
        <g
           id="fills-e0c7bf36-69e6-80bd-8003-ed1bfda97bd3-0-6-7-1-0"
           fill="#000"
           fill-opacity="1"
           class="fills">
          <path
             id="path55-4-9-8-4-97"
             fill="#000"
             fill-opacity="1"
             stroke-linejoin="round"
             d="m 395.159,287.476 c -3.558,-1.156 -7.382,0.794 -8.546,4.358 l -46.68,143.957 c -0.558,1.716 -0.412,3.582 0.405,5.188 0.817,1.606 2.239,2.82 3.951,3.374 l 52.235,16.938 c 1.712,0.557 3.576,0.408 5.18,-0.413 1.604,-0.821 2.817,-2.246 3.373,-3.963 0.557,-1.716 0.412,-3.582 -0.406,-5.188 -0.817,-1.606 -2.239,-2.82 -3.951,-3.374 L 354.939,433.508 399.521,296.02 c 1.15,-3.569 -0.803,-7.393 -4.362,-8.544 z"
             color="#000" />
        </g>
      </g>
      <g
         id="shape-e0c7bf36-69e6-80bd-8003-ed1bfda97bd4-8-8-6-9-5"
         fill="#000"
         fill-opacity="1"
         transform="rotate(-17.993 1538.449 -1172.39) scale(.26623)">
        <g
           id="fills-e0c7bf36-69e6-80bd-8003-ed1bfda97bd4-8-7-8-20-9"
           fill="#000"
           fill-opacity="1"
           class="fills">
          <path
             id="path56-8-2-8-6-7"
             fill="#000"
             fill-opacity="1"
             stroke-linejoin="round"
             d="m 395.159,287.476 c -3.558,-1.156 -7.382,0.794 -8.546,4.358 -0.558,1.716 -0.412,3.582 0.405,5.188 0.817,1.606 2.239,2.82 3.951,3.374 l 52.236,16.938 c 1.711,0.557 3.575,0.408 5.179,-0.413 1.604,-0.82 2.818,-2.246 3.373,-3.963 1.149,-3.569 -0.803,-7.393 -4.363,-8.544 z"
             color="#000" />
        </g>
      </g>
      <g
         id="g11495-9-8-4-8-8"
         fill="#fff"
         fill-opacity="1"
         transform="rotate(-74.033 566.67 -3.864) scale(1.29479)">
        <path
           id="path11491-7-2-3-9-5"
           fill="#fff"
           fill-opacity="1"
           stroke="#000"
           stroke-dasharray="none"
           stroke-linecap="butt"
           stroke-linejoin="round"
           stroke-opacity="1"
           stroke-width=".794"
           d="m 98.105295,75.736849 c 0,0 -6.898663,3.713006 -7.770256,5.255805 -0.910575,1.611803 -1.257276,3.325657 -0.413422,4.427228 0.843851,1.101572 1.961685,1.442466 2.611363,1.530689 0.939363,0.127561 2.357887,-0.230373 3.202721,-1.22455 0.943318,-1.11007 4.230379,-5.585777 5.215659,-6.268258" />
      </g>
      <g
         id="g11495-79-7-9-1-2-3"
         fill="#fff"
         fill-opacity="1"
         transform="scale(-1.29479 1.29479) rotate(-74.033 3.347 574.507)">
        <path
           id="path11491-2-6-9-4-6-38"
           fill="#fff"
           fill-opacity="1"
           stroke="#000"
           stroke-dasharray="none"
           stroke-linecap="butt"
           stroke-linejoin="round"
           stroke-opacity="1"
           stroke-width=".794"
           d="m 98.105295,75.736849 c 0,0 -6.898663,3.713006 -7.770256,5.255805 -0.910575,1.611803 -1.257276,3.325657 -0.413422,4.427228 0.843851,1.101572 1.961685,1.442466 2.611363,1.530689 0.939363,0.127561 2.357887,-0.230373 3.202721,-1.22455 0.943318,-1.11007 4.230379,-5.585777 5.215659,-6.268258" />
      </g>
      <circle
         id="button-outline-8-7-6-0-2-4-3"
         cx="535.537"
         cy="479.967"
         r="13.948"
         fill="none"
         fill-opacity="1"
         stroke="#000"
         stroke-dasharray="none"
         stroke-opacity="1"
         stroke-width="2.833"
         paint-order="stroke fill markers" />
      <path
         id="button-fill-7-7-2-2-0-9-7"
         fill="#fff"
         fill-opacity="1"
         stroke-width=".472"
         d="m 549.48579,479.96723 a 13.94833,13.94833 0 0 1 -13.94833,13.94833 13.94833,13.94833 0 0 1 -13.94833,-13.94833 13.94833,13.94833 0 0 1 13.94833,-13.94833 13.94833,13.94833 0 0 1 13.94833,13.94833 z" />
      <path
         id="button-0-1-6-9-7-6-50-9"
         fill="none"
         stroke="#000"
         stroke-dasharray="none"
         stroke-linecap="round"
         stroke-linejoin="round"
         stroke-opacity="1"
         stroke-width="4.721"
         d="m 542.72022,475.88652 c 2.0125,3.47995 1.23181,7.9001 -1.85152,10.48302 -3.08333,2.58291 -7.57917,2.58291 -10.66249,0 -3.08333,-2.58292 -3.86402,-7.00307 -1.85152,-10.48302"
         display="inline"
         paint-order="stroke fill markers" />
      <path
         id="button-1-7-4-1-6-8-4-3"
         fill="#000"
         fill-opacity="1"
         stroke="#000"
         stroke-dasharray="none"
         stroke-linecap="round"
         stroke-linejoin="round"
         stroke-opacity="1"
         stroke-width="4.721"
         d="m 535.53746,470.3914 v 4.75579"
         paint-order="stroke fill markers" />
    </g>
    <g
       id="text1-9-7-8"
       stroke-width="2.153">
      <path
         id="path34"
         d="m 551.65934,266.84985 v -60.28637 l 8.61234,-1.63635 v 22.21984 q 5.5119,-4.82291 13.34913,-4.82291 6.20089,0 11.19604,3.01432 5.08128,3.01431 8.00948,8.0956 2.92819,5.08128 2.92819,11.45441 0,6.37313 -3.01431,11.54053 -2.9282,5.08128 -8.00948,8.0956 -4.99516,3.01432 -11.28217,3.01432 -3.61718,0 -7.06211,-1.1196 -3.35882,-1.20573 -6.20089,-3.35882 v 3.78943 z m 20.84187,-6.80374 q 4.22004,0 7.49273,-1.98084 3.35881,-1.98084 5.33965,-5.33965 1.98084,-3.44494 1.98084,-7.75111 0,-4.30617 -1.98084,-7.75111 -1.98084,-3.44493 -5.33965,-5.42577 -3.27269,-1.98084 -7.49273,-1.98084 -3.70331,0 -6.88988,1.37798 -3.18656,1.37797 -5.33965,3.87555 v 19.80838 q 2.15309,2.41146 5.33965,3.78943 3.27269,1.37798 6.88988,1.37798 z m 52.27693,7.66498 q -6.37313,0 -11.62666,-3.01432 -5.1674,-3.01432 -8.18172,-8.18172 -3.01432,-5.16741 -3.01432,-11.54054 0,-6.37313 3.01432,-11.54053 3.01432,-5.16741 8.18172,-8.18173 5.25353,-3.10044 11.62666,-3.10044 6.45925,0 11.62666,3.10044 5.1674,3.01432 8.18172,8.18173 3.01432,5.1674 3.01432,11.54053 0,6.37313 -3.01432,11.54054 -3.01432,5.1674 -8.18172,8.18172 -5.16741,3.01432 -11.62666,3.01432 z m 0,-7.57886 q 4.0478,0 7.32049,-1.98084 3.27269,-2.06696 5.1674,-5.5119 1.89472,-3.44493 1.89472,-7.7511 0,-4.22005 -1.98084,-7.57886 -1.89472,-3.44494 -5.16741,-5.5119 -3.18656,-2.06696 -7.23436,-2.06696 -4.0478,0 -7.32049,2.06696 -3.18657,2.06696 -5.1674,5.5119 -1.89472,3.35881 -1.89472,7.57886 0,4.30617 1.89472,7.7511 1.89471,3.44494 5.1674,5.5119 3.27269,1.98084 7.32049,1.98084 z m 51.84622,7.57886 q -6.37313,0 -11.62666,-3.01432 -5.1674,-3.01432 -8.18172,-8.18172 -3.01432,-5.16741 -3.01432,-11.54054 0,-6.37313 3.01432,-11.54053 3.01432,-5.16741 8.18172,-8.18173 5.25353,-3.10044 11.62666,-3.10044 6.45926,0 11.62666,3.10044 5.1674,3.01432 8.18172,8.18173 3.01432,5.1674 3.01432,11.54053 0,6.37313 -3.01432,11.54054 -3.01432,5.1674 -8.18172,8.18172 -5.1674,3.01432 -11.62666,3.01432 z m 0,-7.57886 q 4.0478,0 7.32049,-1.98084 3.27269,-2.06696 5.1674,-5.5119 1.89472,-3.44493 1.89472,-7.7511 0,-4.22005 -1.98084,-7.57886 -1.89472,-3.44494 -5.1674,-5.5119 -3.18657,-2.06696 -7.23437,-2.06696 -4.0478,0 -7.32049,2.06696 -3.18656,2.06696 -5.1674,5.5119 -1.89472,3.35881 -1.89472,7.57886 0,4.30617 1.89472,7.7511 1.89471,3.44494 5.1674,5.5119 3.27269,1.98084 7.32049,1.98084 z m 47.28175,7.49273 q -6.37313,0 -9.73195,-2.92819 -3.35881,-3.01432 -3.35881,-8.69846 v -25.7509 h -9.30133 v -7.23437 h 9.30133 V 211.817 l 8.52622,-2.06696 v 13.263 h 12.91851 v 7.23437 h -12.91851 v 23.77006 q 0,3.35881 1.4641,4.82291 1.55022,1.37797 4.99515,1.37797 1.80859,0 3.18657,-0.25837 1.4641,-0.25837 3.10044,-0.77511 v 7.23437 q -1.72247,0.60286 -4.0478,0.86123 -2.23921,0.34449 -4.13392,0.34449 z"
         style="fill:#ffffff;fill-opacity:1" />
      <path
         id="path35"
         d="m 759.21668,267.62496 q -6.28701,0 -11.45441,-3.01431 -5.1674,-3.01432 -8.18172,-8.18173 -2.9282,-5.1674 -2.9282,-11.54053 0,-6.37313 3.01432,-11.45441 3.01432,-5.16741 8.0956,-8.18173 5.1674,-3.10044 11.45441,-3.10044 4.99516,0 9.5597,1.89471 4.65066,1.89472 8.00948,5.33966 l -5.33965,5.94251 q -2.49758,-2.75595 -5.59803,-4.13392 -3.10044,-1.37798 -6.45925,-1.37798 -3.96168,0 -7.23437,1.98084 -3.18656,1.98084 -5.08128,5.42577 -1.89471,3.44494 -1.89471,7.66499 0,4.22004 1.89471,7.66498 1.89472,3.44494 5.16741,5.5119 3.27269,1.98084 7.32049,1.98084 3.35881,0 6.287,-1.29186 2.9282,-1.37797 5.5119,-3.96167 l 5.25353,5.5119 q -3.44494,3.53105 -8.00948,5.42577 -4.47841,1.89471 -9.38745,1.89471 z"
         style="fill:#ffffff;fill-opacity:1" />
    </g>
  </g>
</svg>
