<svg width="1024" height="192" viewBox="0 0 1024 192" fill="none" xmlns="http://www.w3.org/2000/svg">
<path d="M571.243 0.259766C585.032 0.259766 597.785 3.71018 609.468 10.6113C621.138 17.3327 630.346 26.5404 637.067 38.2109C643.968 49.8932 647.419 62.6464 647.419 76.4346V115.825C647.419 129.613 643.968 142.367 637.067 154.049C630.347 165.718 621.142 175.009 609.477 181.902L609.459 181.913C597.777 188.639 585.026 192.001 571.243 192.001C557.46 192.001 544.711 188.639 533.028 181.913L533.011 181.902C521.347 175.01 512.058 165.722 505.166 154.059L505.156 154.041C498.43 142.359 495.068 129.608 495.068 115.825V76.4346C495.068 62.6518 498.43 49.9021 505.156 38.2197L505.166 38.2021C512.059 26.5372 521.35 17.332 533.02 10.6113C544.702 3.71025 557.455 0.259821 571.243 0.259766ZM943.76 0C956.113 6.36875e-05 967.451 2.6481 977.74 7.9668C988.206 13.1146 996.49 20.4123 1002.55 29.8525C1008.62 39.3222 1011.64 50.1171 1011.64 62.1807V63.9805H998.454V62.1807C998.454 52.297 996.029 43.6594 991.226 36.2051C986.402 28.7205 979.836 22.9786 971.486 18.9707L971.461 18.958C963.095 14.7749 953.785 12.6699 943.5 12.6699C934.363 12.6699 925.847 14.1073 917.938 16.9678C910.091 19.8064 903.711 24.1256 898.748 29.9111C894.055 35.581 891.656 42.7515 891.656 51.5557C891.656 59.4705 893.951 65.6381 898.396 70.249C903 74.8481 909.044 78.4279 916.6 80.9463C924.278 83.5057 935.084 86.254 949.052 89.1855C963.234 92.1258 974.289 94.9928 982.176 97.7949C990.415 100.486 997.337 105.068 1002.9 111.53C1008.81 118.179 1011.64 127.38 1011.64 138.889C1011.64 150.458 1008.52 160.364 1002.19 168.497C996.1 176.383 987.96 182.271 977.838 186.178C967.764 190.066 956.83 192 945.055 192C930.49 192 917.597 189.279 906.425 183.781C895.256 178.285 886.609 170.544 880.544 160.555L880.524 160.522C874.648 150.372 871.73 138.825 871.73 125.932V124.132H884.918V125.932C884.918 136.713 887.273 146.062 891.922 154.037C896.74 162.007 903.638 168.255 912.677 172.776C921.71 177.123 932.484 179.33 945.055 179.33C960.658 179.33 973.39 175.603 983.381 168.276L983.393 168.268C993.456 161.008 998.454 151.189 998.454 138.63C998.454 129.934 996.283 123.522 992.197 119.122C987.943 114.541 982.528 111.246 975.895 109.256L975.869 109.248L975.843 109.239C969.213 107.029 959.107 104.542 945.478 101.781C930.742 98.8341 918.635 95.6161 909.186 92.1162L909.147 92.1016C899.785 88.392 892.275 83.4089 886.695 77.1094L886.66 77.0684C881.157 70.4652 878.469 62.0844 878.469 52.0742C878.469 41.7261 881.151 32.5551 886.556 24.6279L886.571 24.6045C892.138 16.7036 899.841 10.6326 909.609 6.37012L909.62 6.36523C919.559 2.10581 930.952 0 943.76 0ZM289.535 4.54883V17.7363H246.431V175.327H289.535V188.516H190.656V175.327H233.502V17.7363H190.656V4.54883H289.535ZM478.508 17.334H410.353V188.113H397.424V17.334H329.268V4.14648H478.508V17.334ZM772.893 4.14648C785.251 4.14652 796.674 6.79633 807.133 12.1133C817.779 17.4375 826.234 24.9984 832.46 34.7822C838.709 44.6027 841.812 55.9159 841.812 68.6602C841.811 80.9087 838.612 92.2058 832.218 102.512C825.996 112.819 817.451 120.735 806.619 126.24C797.156 131.061 785.892 133.433 772.893 133.433H711.719V188.113H698.531V4.14648H772.893ZM571.243 13.4473C559.811 13.4473 549.242 16.3015 539.501 22.0117L539.492 22.0166C529.921 27.5578 522.283 35.1916 516.563 44.9473C511.028 54.5104 508.256 64.9944 508.256 76.4346V115.825C508.256 127.261 511.026 137.833 516.563 147.572C522.28 157.151 529.919 164.789 539.497 170.506C549.236 176.044 559.807 178.812 571.243 178.812C582.683 178.812 593.167 176.041 602.73 170.506C612.487 164.786 620.121 157.148 625.662 147.576L625.667 147.568C631.377 137.827 634.23 127.257 634.23 115.825V76.4346C634.23 65.0029 631.377 54.5246 625.674 44.9629L625.655 44.9316C620.114 35.1926 612.486 27.5647 602.747 22.0234L602.715 22.0049C593.153 16.3014 582.675 13.4473 571.243 13.4473ZM711.719 120.245H772.893C783.779 120.245 792.554 118.541 799.313 115.244L799.335 115.233C808.181 111.061 815.266 104.812 820.614 96.4551C825.952 88.1148 828.624 78.865 828.624 68.6602C828.624 58.6342 825.955 49.4694 820.614 41.124C815.271 32.7754 808.107 26.526 799.088 22.3506L799.055 22.335C792.292 19.0363 783.601 17.334 772.893 17.334H711.719V120.245Z" fill="black"/>
<path d="M0 154V186.699H150.181L73.9982 80.002L64.7143 89.3541L124.855 173.524H13.175V140.893" fill="black"/>
<path d="M151 3H0V154L151 3Z" fill="white"/>
</svg>
