<?xml version="1.0" encoding="UTF-8"?>
<svg id="Layer_1" data-name="Layer 1" xmlns="http://www.w3.org/2000/svg" viewBox="0 0 414.85 468.03">
  <g>
    <rect x="190.13" y="222.26" width="33.96" height="15.48"/>
    <path d="M353.27,187.66l-25.1-109.07c-1.32-5.71-5.19-10.52-10.51-13.06l-101.62-48.54c-2.93-1.4-6.18-2.05-9.43-1.88-2.58.14-5.11.78-7.44,1.9l-101.62,48.54c-5.33,2.54-9.2,7.36-10.51,13.07l-25.06,109.06c-1.17,5.08-.22,10.41,2.63,14.78.34.53.71,1.04,1.11,1.53l70.33,87.45c3.69,4.58,9.28,7.25,15.19,7.25l112.79-.02c5.91,0,11.5-2.66,15.19-7.24l70.3-87.46c3.69-4.58,5.07-10.58,3.75-16.3ZM295.84,211.87c0,5.73-4.66,10.4-10.4,10.4h-50.95v15.48h28.07c2.87,0,5.2,2.33,5.2,5.2s-2.33,5.2-5.2,5.2h-110.91c-2.87,0-5.2-2.33-5.2-5.2s2.33-5.2,5.2-5.2h28.07v-15.48h-50.95c-5.73,0-10.4-4.66-10.4-10.4v-103.28c0-5.73,4.66-10.4,10.4-10.4h156.65c5.73,0,10.4,4.66,10.4,10.4v103.28Z"/>
    <path d="M128.79,108.58v103.28h156.65s0,2.24,0-103.28h-156.65ZM258.32,167.89c2.74-2.47,4.54-5.53,5.62-9.04.09-.31.18-.67.27-1.03.36-1.26,1.66-1.66,2.61-.76,1.93,1.8,3.51,3.91,4.81,6.2.63,1.12,1.17,2.25,1.12,3.6-.04,1.89-.81,3.46-2.38,4.54-2.97,2.02-6.16,3.64-9.67,4.54-.67.18-1.35.27-2.02.36-.04.09-.18.04-.18.04-.27-1.21-.45-2.38-.85-3.51-.4-1.08-1.08-2.02-1.66-3.06.72-.58,1.57-1.21,2.34-1.89ZM256.66,176.34c-.04,4.5-3.55,8.05-8.09,8.09-4.45.04-8.09-3.64-8.09-8.14s3.6-8.05,8.09-8.05,8.14,3.64,8.09,8.09ZM252.97,150.94c1.44,1.08,2.2,2.52,2.34,4.32.13,2.2.13,4.41-.18,6.56-.27,1.98-.72,3.96-1.53,5.8,0,.09-.04.18-.13.31-2.16-1.21-4.45-1.57-6.83-1.12-.13-.9-.18-1.75-.36-2.61-.49-2.74-1.57-5.3-3.24-7.55-.76-1.08-1.66-2.07-2.56-3.06-.94-1.03-.67-2.34.67-2.74,2.7-.81,5.48-1.12,8.27-1.03,1.3.04,2.47.36,3.55,1.12ZM190.82,127.2h46.24c6.21,0,11.26,5.05,11.26,11.26v6.27c0,1.23-1,2.24-2.24,2.24s-2.24-1-2.24-2.24v-6.27c0-3.74-3.04-6.78-6.78-6.78h-46.24c-1.24,0-2.24-1-2.24-2.24s1-2.24,2.24-2.24ZM189.53,152.33c-.72,3.19-1.93,6.2-3.91,8.81-1.66,2.16-4.59,2.65-7.01,1.44-2.79-1.39-5.39-3.01-7.69-5.17-.9-.94-1.62-1.84-2.47-2.74,2.2-1.35,3.69-3.1,4.5-5.44,1.53.76,3.06,1.35,4.68,1.71,3.28.72,6.56.54,9.8-.36,1.21-.36,2.38.54,2.11,1.75ZM163.68,154.22c-4.45.04-8.09-3.64-8.09-8.14s3.6-8.05,8.09-8.05,8.14,3.64,8.09,8.09c-.04,4.5-3.55,8.05-8.09,8.09ZM173.44,137.67c2.74-2.47,4.54-5.53,5.62-9.04.09-.31.18-.67.27-1.03.36-1.26,1.66-1.66,2.61-.76,1.93,1.8,3.51,3.91,4.81,6.2.63,1.12,1.17,2.25,1.12,3.6-.04,1.89-.81,3.46-2.38,4.54-2.97,2.02-6.16,3.64-9.67,4.54-.67.18-1.35.27-2.02.36-.04.09-.18.04-.18.04-.27-1.21-.45-2.38-.85-3.51-.4-1.08-1.08-2.02-1.66-3.06.72-.58,1.57-1.21,2.34-1.89ZM156.26,120.63c2.7-.81,5.48-1.12,8.27-1.03,1.3.04,2.47.36,3.55,1.12,1.44,1.08,2.2,2.52,2.34,4.32.13,2.2.13,4.41-.18,6.56-.27,1.98-.72,3.96-1.53,5.8,0,.09-.04.18-.13.31-2.16-1.21-4.45-1.57-6.83-1.12-.13-.9-.18-1.75-.36-2.61-.49-2.74-1.57-5.3-3.24-7.55-.76-1.08-1.66-2.07-2.56-3.06-.94-1.03-.67-2.34.67-2.74ZM137.83,139.87c.72-2.97,1.84-5.75,3.6-8.27,1.66-2.43,4.45-3.15,7.1-1.89,3.46,1.66,6.61,3.73,9.22,6.65.4.4.72.81,1.12,1.3-2.16,1.3-3.6,3.06-4.45,5.39-.67-.27-1.26-.58-1.89-.81-1.98-.76-4-1.17-6.11-1.26-2.25-.09-4.45.22-6.61.81-1.26.36-2.25-.67-1.98-1.93ZM154.82,153.77c-2.74,2.16-4.72,4.9-5.98,8.14-.36.85-.58,1.75-.85,2.65-.4,1.35-1.71,1.71-2.74.72-2.07-1.98-3.78-4.27-5.12-6.83-1.48-2.79-.63-5.93,2.07-7.69,2.43-1.57,4.95-2.97,7.73-3.82,1.3-.36,2.61-.63,3.96-.94.09,2.56.85,4.72,2.47,6.61-.54.4-1.03.76-1.53,1.17ZM159.68,171.79c-1.66-1.03-2.61-2.56-2.74-4.5-.22-3.06-.09-6.07.58-9.08.31-1.17.76-2.43,1.17-3.73,2.25,1.26,4.54,1.62,6.92,1.17.13.94.22,1.89.36,2.79.58,2.97,1.8,5.62,3.64,8,.67.9,1.48,1.71,2.2,2.52.9.99.49,2.29-.76,2.65-2.61.72-5.21,1.08-7.91,1.03-1.21,0-2.38-.18-3.46-.85ZM221.08,194.58h-46.24c-6.21,0-11.26-5.05-11.26-11.26v-6.27c0-1.23,1-2.24,2.24-2.24s2.24,1,2.24,2.24v6.27c0,3.74,3.04,6.78,6.78,6.78h46.24c1.24,0,2.24,1,2.24,2.24s-1,2.24-2.24,2.24ZM222.72,170.09c.72-2.97,1.84-5.75,3.6-8.27,1.66-2.43,4.45-3.15,7.1-1.89,3.46,1.66,6.61,3.73,9.22,6.65.4.4.72.81,1.12,1.3-2.16,1.3-3.6,3.06-4.45,5.39-.67-.27-1.26-.58-1.89-.81-1.98-.76-4-1.17-6.11-1.26-2.25-.09-4.45.22-6.61.81-1.26.36-2.25-.67-1.98-1.93ZM239.71,183.98c-2.74,2.16-4.72,4.9-5.98,8.14-.36.85-.58,1.75-.85,2.65-.4,1.35-1.71,1.71-2.74.72-2.07-1.98-3.78-4.27-5.12-6.83-1.48-2.79-.63-5.93,2.07-7.69,2.43-1.57,4.95-2.97,7.73-3.82,1.3-.36,2.61-.63,3.96-.94.09,2.56.85,4.72,2.47,6.61-.54.4-1.03.76-1.53,1.17ZM255.94,201.83c-2.61.72-5.21,1.08-7.91,1.03-1.21,0-2.38-.18-3.46-.85-1.66-1.03-2.61-2.56-2.74-4.5-.22-3.06-.09-6.07.58-9.08.31-1.17.76-2.43,1.17-3.73,2.25,1.26,4.54,1.62,6.92,1.17.13.94.22,1.89.36,2.79.58,2.97,1.8,5.62,3.64,8,.67.9,1.48,1.71,2.2,2.52.9.99.49,2.29-.76,2.65ZM274.42,182.55c-.72,3.19-1.93,6.2-3.91,8.81-1.66,2.16-4.59,2.65-7.01,1.44-2.79-1.39-5.39-3.01-7.69-5.17-.9-.94-1.62-1.84-2.47-2.74,2.2-1.35,3.69-3.1,4.5-5.44,1.53.76,3.06,1.35,4.68,1.71,3.28.72,6.56.54,9.8-.36,1.21-.36,2.38.54,2.11,1.75Z"/>
  </g>
  <g>
    <g>
      <path d="M18.26,384.69v-62h7.95v32.41l28.35-32.41h8.86l-24.08,27.27,26.31,34.71h-9.32l-22.04-28.8-8.09,9.21v19.6h-7.95ZM73.67,371.13v-30.75h7.52v31c-.07,2.39,1.18,4.62,3.25,5.8,4.71,2.72,10.52,2.72,15.23,0,2.06-1.2,3.29-3.42,3.23-5.8v-31h7.52v30.72c.13,4.37-2.02,8.5-5.68,10.9-7.66,5.27-17.77,5.27-25.43,0-3.64-2.4-5.77-6.51-5.63-10.87ZM123.29,384.69v-66.46h7.52v23.27c4.14-1.49,8.5-2.3,12.9-2.4,2.98-.06,5.93.61,8.58,1.95,2.35,1.18,4.35,2.97,5.79,5.18,1.38,2.16,2.42,4.53,3.09,7.01.68,2.52,1.02,5.12,1.01,7.73,0,7.78-2.02,13.68-6.06,17.71-4.04,4.02-10.42,6.03-19.13,6.01h-13.69ZM130.8,377.94h6.3c6.25,0,10.73-1.36,13.46-4.08s4.11-7.11,4.15-13.17c.06-3.66-.9-7.27-2.77-10.41-1.72-2.92-4.92-4.64-8.31-4.46-4.37-.11-8.71.61-12.81,2.13l-.03,29.99ZM171.61,362.45c0-7.12,1.89-12.79,5.66-17.03,3.78-4.25,9.27-6.58,14.95-6.35,12.32,0,18.49,8.7,18.5,26.11h-31.59c.27,3.61,1.67,7.03,4.02,9.79,2.39,2.87,6.04,4.3,10.94,4.29,5.01.15,10-.8,14.61-2.77v6.92c-4.36,1.69-8.98,2.56-13.65,2.59-3.64.08-7.27-.56-10.66-1.9-2.83-1.11-5.34-2.89-7.31-5.21-1.85-2.19-3.26-4.72-4.15-7.45-.91-2.91-1.35-5.95-1.3-9ZM179.39,359.52h23.9c-.24-3.51-1.37-6.91-3.28-9.86-1.75-2.54-4.7-4-7.78-3.85-3.27-.04-6.41,1.33-8.6,3.77-2.46,2.76-3.94,6.25-4.21,9.94h-.03Z"/>
      <path d="M194.38,388.22c-3.7,0-7.34-.69-10.82-2.06-3.15-1.23-5.99-3.25-8.19-5.83-2.05-2.43-3.58-5.19-4.57-8.19-.99-3.17-1.46-6.42-1.41-9.71,0-7.64,2.1-13.86,6.22-18.49,4.24-4.76,10.32-7.35,16.69-7.1,17.02,0,20.62,15.4,20.63,28.33v2.22s-31.23,0-31.23,0c.54,2.25,1.6,4.34,3.13,6.14,1.97,2.37,4.98,3.51,9.2,3.51h.04c4.72.13,9.45-.76,13.74-2.59l3.09-1.32v11.8l-1.42.55c-4.62,1.79-9.48,2.71-14.44,2.74-.22,0-.44,0-.66,0ZM191.54,341.27c-4.87,0-9.41,2.03-12.62,5.63-3.39,3.8-5.1,9.03-5.1,15.56v.03c-.04,2.82.36,5.62,1.2,8.31.8,2.43,2.06,4.69,3.73,6.68,1.72,2.02,3.94,3.6,6.42,4.57,3.14,1.23,6.43,1.81,9.8,1.75,3.95-.02,7.8-.67,11.49-1.93v-2.18c-4.01,1.3-8.26,1.92-12.46,1.79-.02,0-.04,0-.05,0-5.47,0-9.71-1.71-12.52-5.09-2.65-3.12-4.22-6.94-4.52-11.04l-.17-2.38h31.73c-.75-21.68-12.35-21.68-16.24-21.68-.23,0-.45-.01-.68-.01ZM92.03,388.14c-4.9,0-9.8-1.44-13.99-4.32-4.26-2.81-6.74-7.58-6.59-12.73v-32.93h11.95v33.21c-.05,1.64.77,3.1,2.14,3.88,4.02,2.32,9.01,2.32,13.02,0,1.35-.79,2.16-2.25,2.12-3.82v-33.28s11.95,0,11.95,0v32.94c.15,5.04-2.4,9.95-6.68,12.75-4.15,2.86-9.03,4.29-13.92,4.29ZM75.88,342.6v28.6c-.11,3.61,1.62,6.96,4.64,8.95,6.89,4.74,16.1,4.74,22.96.02,3.03-1.99,4.83-5.43,4.72-9v-28.57h-3.09v28.78c.09,3.13-1.57,6.11-4.33,7.72-5.39,3.11-12.07,3.11-17.45,0-2.78-1.59-4.45-4.57-4.36-7.78v-28.72h-3.09ZM137.1,386.9s-.08,0-.12,0h-15.9v-70.89h11.95v22.46c3.46-.97,7.03-1.5,10.64-1.58,3.34-.07,6.66.69,9.63,2.19,2.7,1.35,5,3.41,6.64,5.95,1.52,2.37,2.65,4.94,3.37,7.64.73,2.7,1.09,5.5,1.09,8.3,0,8.35-2.26,14.84-6.72,19.27-4.44,4.42-11.36,6.65-20.58,6.65ZM125.5,382.47h11.59c8.01,0,13.88-1.8,17.46-5.36,3.59-3.57,5.41-9,5.41-16.14,0-2.42-.31-4.82-.93-7.15-.61-2.27-1.55-4.41-2.81-6.39-1.21-1.86-2.91-3.39-4.91-4.39-2.33-1.18-4.92-1.77-7.54-1.72-4.17.09-8.28.85-12.2,2.26l-2.97,1.07v-24.21h-3.09v62.03ZM28.42,386.9h-12.38v-66.43h12.38v28.73l25.13-28.73h14.78l-26.13,29.6,27.9,36.82h-14.87l-21.06-27.52-5.75,6.55v20.99ZM20.47,382.47h3.52v-18.23l10.42-11.86,23.02,30.07h3.77l-24.71-32.6,22.03-24.95h-2.95l-31.58,36.09v-36.09h-3.52v57.57ZM137.1,380.16h-8.52l.03-33.74,1.44-.54c4.35-1.62,8.91-2.38,13.55-2.27,4.2-.18,8.11,1.93,10.24,5.55,2.08,3.49,3.15,7.5,3.07,11.57-.05,6.61-1.67,11.56-4.8,14.69-3.14,3.14-8.19,4.73-15.02,4.73ZM133.02,375.73h4.08c5.61,0,9.61-1.16,11.89-3.44,2.29-2.28,3.46-6.19,3.51-11.62.06-3.27-.79-6.47-2.46-9.26-1.31-2.23-3.71-3.52-6.28-3.38h-.09s-.09,0-.09,0c-3.59-.09-7.13.41-10.54,1.5l-.02,26.19ZM205.65,361.73h-26.27v-2.22l-2.18-.16c.3-4.16,1.99-8.15,4.77-11.26,2.6-2.9,6.33-4.52,10.21-4.51,3.86-.17,7.46,1.63,9.64,4.81,2.15,3.31,3.41,7.09,3.67,10.97l.16,2.36ZM182,357.3h18.76c-.46-2.28-1.34-4.48-2.62-6.44-1.29-1.88-3.46-2.97-5.81-2.84h-.07s-.07,0-.07,0c-2.66-.04-5.16,1.07-6.92,3.03-1.59,1.78-2.71,3.94-3.28,6.25Z"/>
    </g>
    <g>
      <path d="M220.01,347.15v-6.77h6.92v-10.51c-.14-3.11,1.02-6.15,3.2-8.38,2.08-2.08,4.93-3.23,7.88-3.16h10.88v6.81h-6.92c-3.06,0-5.08.62-6.05,1.86s-1.47,3.53-1.47,6.92v6.45h11.71v6.74h-11.71v37.56h-7.53v-37.52h-6.91ZM258.69,384.69v-66.46h7.52v66.46h-7.52ZM285.2,379.22c-9.91-9.4-10.33-25.05-.93-34.96,9.4-9.91,25.05-10.33,34.96-.93,9.91,9.4,10.33,25.05.93,34.96-4.66,4.91-11.12,7.7-17.89,7.71-6.39.21-12.57-2.24-17.07-6.78ZM290.52,350.63c-5.91,6.84-5.91,16.97,0,23.81,6.51,6.46,17.02,6.46,23.54,0,5.95-6.82,5.95-16.99,0-23.81-6.51-6.46-17.02-6.46-23.54,0h0ZM332.33,340.38h7.96l10.11,35.06,10.29-35.06h7.42l10.16,35.08,10.2-35.08h7.95l-13.9,44.3h-8.47l-9.46-34.03-9.35,34.03h-8.96l-13.96-44.3Z"/>
      <path d="M301.46,388.23c-6.62,0-13.08-2.68-17.8-7.43-5.21-4.95-8.18-11.63-8.37-18.81-.19-7.19,2.43-14.03,7.38-19.25,10.22-10.78,27.31-11.23,38.09-1.01,10.78,10.22,11.23,27.31,1.01,38.09-5.05,5.32-12.15,8.39-19.49,8.4-.27,0-.55.01-.83.01ZM302.22,338.77c-5.97,0-11.92,2.35-16.34,7.01-4.14,4.36-6.33,10.08-6.17,16.09.16,6.01,2.65,11.6,7.01,15.74l.05.05c4.05,4.09,9.69,6.33,15.42,6.13,6.2-.02,12.14-2.58,16.35-7.02,8.54-9.01,8.16-23.28-.85-31.83-4.35-4.12-9.92-6.17-15.48-6.17ZM384.15,386.9h-11.78l-7.76-27.93-7.67,27.93h-12.27l-15.35-48.73h12.65l8.46,29.34,8.61-29.34h10.74l8.5,29.35,8.54-29.35h12.63l-15.29,48.73ZM378.54,382.47h2.35l12.51-39.87h-3.27l-11.6,39.87ZM375.73,382.47h2.26l-11.55-39.87h-1.79l11.08,39.87ZM350.65,382.47h2.91l10.95-39.87h-2.16l-11.7,39.87ZM347.91,382.47h2.21l-11.5-39.87h-3.27l12.56,39.87ZM268.42,386.9h-11.95v-70.89h11.95v70.89ZM260.91,382.47h3.09v-62.03h-3.09v62.03ZM236.66,386.9h-11.96v-37.52h-6.91v-11.21h6.92v-8.29c-.16-3.61,1.23-7.27,3.83-9.92,2.52-2.52,6-3.91,9.51-3.82h13.05s0,11.24,0,11.24h-9.14c-3.26,0-4.12.77-4.31,1.01-.3.38-.99,1.68-.99,5.55v4.24h11.71v11.17h-11.71v37.56ZM229.13,382.47h3.1v-37.56h11.71v-2.31h-11.71v-8.67c0-3.92.64-6.63,1.94-8.29,1.43-1.82,3.98-2.7,7.79-2.7h4.71v-2.38h-8.67c-2.41-.06-4.66.86-6.31,2.51-1.73,1.77-2.66,4.22-2.55,6.71v12.82s-6.92,0-6.92,0v2.34h6.91v37.53ZM302.29,381.48c-4.83,0-9.65-1.82-13.33-5.47l-.12-.13c-6.57-7.61-6.57-19.1,0-26.71l.12-.12c7.35-7.29,19.31-7.29,26.66,0l.11.12c6.64,7.62,6.64,19.11,0,26.72l-.11.12c-3.67,3.64-8.5,5.47-13.33,5.47ZM292.14,372.93c5.61,5.5,14.68,5.5,20.3,0,5.12-5.94,5.12-14.84,0-20.78-5.61-5.51-14.68-5.51-20.3,0-5.07,5.94-5.07,14.85,0,20.79Z"/>
    </g>
  </g>
  <g>
    <path d="M269.53,419.85c-4.03,0-7.44,3.53-7.44,7.66s3.41,7.7,7.44,7.7,7.4-3.53,7.4-7.7-3.37-7.66-7.4-7.66Z"/>
    <path d="M235.95,419.85c-4.03,0-7.44,3.53-7.44,7.66s3.41,7.7,7.44,7.7,7.4-3.53,7.4-7.7-3.37-7.66-7.4-7.66Z"/>
    <path d="M208.67,422.34c0-1.42-1.3-2.41-3.1-2.41h-5.67v4.87h5.67c1.8,0,3.1-1.04,3.1-2.45Z"/>
    <path d="M206.52,429.85h-6.63v5.29h6.63c1.95,0,3.34-1.11,3.34-2.64s-1.38-2.64-3.34-2.64Z"/>
    <path d="M117.64,419.85c-4.03,0-7.44,3.53-7.44,7.66s3.41,7.7,7.44,7.7,7.4-3.53,7.4-7.7-3.37-7.66-7.4-7.66Z"/>
    <path d="M15.42,402.12v50.82h383.4v-50.82H15.42ZM96.79,440.7h-6.52l-11.5-15.56v15.56h-6.55v-26.33h6.55l11.5,15.56v-15.56h6.52v26.33ZM117.64,441.16c-7.7,0-14.18-6.25-14.18-13.65s6.48-13.61,14.18-13.61,14.14,6.21,14.14,13.61-6.48,13.65-14.14,13.65ZM159.23,420.23h-8.01v20.47h-6.55v-20.47h-7.97v-5.86h22.54v5.86ZM186.25,420.23h-14.18v4.1h12.88v5.87h-12.88v4.64h14.18v5.86h-20.74v-26.33h20.74v5.86ZM207.67,440.7h-14.3v-26.33h13.76c4.87,0,8.28,2.8,8.28,6.63,0,2.61-1.38,4.71-3.68,5.86,3.07,1.34,4.87,3.83,4.87,6.71,0,4.22-3.72,7.13-8.93,7.13ZM235.95,441.16c-7.7,0-14.18-6.25-14.18-13.65s6.48-13.61,14.18-13.61,14.14,6.21,14.14,13.61-6.48,13.65-14.14,13.65ZM269.53,441.16c-7.7,0-14.18-6.25-14.18-13.65s6.48-13.61,14.18-13.61,14.14,6.21,14.14,13.61-6.48,13.65-14.14,13.65ZM307.32,440.7l-7.44-10.43-2.99,3.26v7.17h-6.55v-26.33h6.55v11.23l9.74-11.23h7.82l-10,11.19,10.77,15.14h-7.9ZM331.46,441.16c-4.68,0-8.93-1.53-12.15-4.41l3.72-4.41c2.57,2.11,5.44,3.33,8.66,3.33,2.45,0,3.72-1,3.72-2.41,0-1.57-1.23-1.92-5.06-2.84-5.63-1.26-9.81-2.8-9.81-8.09s4.06-8.43,10.04-8.43c4.45,0,7.9,1.3,10.69,3.6l-3.34,4.68c-2.41-1.84-5.06-2.8-7.51-2.8-2.11,0-3.3,1-3.3,2.3,0,1.61,1.26,2.15,5.17,2.99,5.9,1.26,9.7,2.95,9.7,7.9,0,5.29-4.02,8.59-10.54,8.59Z"/>
  </g>
</svg>