<?xml version="1.0" encoding="utf-8"?>
<!-- Generator: Adobe Illustrator 21.0.0, SVG Export Plug-In . SVG Version: 6.00 Build 0)  -->
<svg version="1.1" id="图层_2" xmlns="http://www.w3.org/2000/svg" xmlns:xlink="http://www.w3.org/1999/xlink" x="0px" y="0px"
	 viewBox="0 0 97 86" style="enable-background:new 0 0 97 86;" xml:space="preserve">
<style type="text/css">
	.st0{fill:url(#SVGID_1_);}
	.st1{fill:url(#SVGID_2_);}
	.st2{fill:url(#SVGID_3_);}
	.st3{fill:url(#SVGID_4_);}
	.st4{fill:url(#SVGID_5_);}
	.st5{fill:url(#SVGID_6_);}
	.st6{fill:url(#SVGID_7_);}
	.st7{fill:url(#SVGID_8_);}
	.st8{fill:url(#SVGID_9_);}
	.st9{fill:url(#SVGID_10_);}
	.st10{fill:url(#SVGID_11_);}
	.st11{fill:url(#SVGID_12_);}
	.st12{fill:url(#SVGID_13_);}
	.st13{fill:url(#SVGID_14_);}
	.st14{fill:url(#SVGID_15_);}
	.st15{fill:url(#SVGID_16_);}
	.st16{fill:url(#SVGID_17_);}
	.st17{fill:url(#SVGID_18_);}
	.st18{fill:url(#SVGID_19_);}
	.st19{fill:url(#SVGID_20_);}
	.st20{fill:url(#SVGID_21_);}
	.st21{fill:url(#SVGID_22_);}
	.st22{fill:url(#SVGID_23_);}
	.st23{fill:#231815;}
	.st24{fill:#FFFFFF;}
	.st25{fill:url(#SVGID_24_);}
	.st26{fill:url(#SVGID_25_);}
	.st27{fill:url(#SVGID_26_);}
	.st28{fill:url(#SVGID_27_);}
	.st29{fill:url(#SVGID_28_);}
	.st30{fill:url(#SVGID_29_);}
	.st31{fill:url(#SVGID_30_);}
	.st32{fill:url(#SVGID_31_);}
	.st33{fill:url(#SVGID_32_);}
	.st34{fill:url(#SVGID_33_);}
	.st35{fill:url(#SVGID_34_);}
	.st36{fill:url(#SVGID_35_);}
	.st37{fill:url(#SVGID_36_);}
	.st38{fill:url(#SVGID_37_);}
</style>
<g>
	
		<linearGradient id="SVGID_1_" gradientUnits="userSpaceOnUse" x1="2.1345" y1="33.9878" x2="20.4679" y2="-8.6789" gradientTransform="matrix(1 0 0 -1 0 78.72)">
		<stop  offset="0" style="stop-color:#9ED8F5"/>
		<stop  offset="0.25" style="stop-color:#73C9F2"/>
		<stop  offset="0.45" style="stop-color:#009CE5"/>
		<stop  offset="0.5618" style="stop-color:#0090DA"/>
		<stop  offset="0.764" style="stop-color:#31468F"/>
	</linearGradient>
	<path class="st0" d="M2.2,58v21.4h4.7V65.6H18V61H6.9v-3.3c0-3.9,2.2-6.1,6.2-6.1H18v-4.5h-4.7C5.8,47,2.2,50.5,2.2,58z"/>
	
		<linearGradient id="SVGID_2_" gradientUnits="userSpaceOnUse" x1="15.9122" y1="39.9079" x2="34.2456" y2="-2.7587" gradientTransform="matrix(1 0 0 -1 0 78.72)">
		<stop  offset="0" style="stop-color:#9ED8F5"/>
		<stop  offset="0.25" style="stop-color:#73C9F2"/>
		<stop  offset="0.45" style="stop-color:#009CE5"/>
		<stop  offset="0.5618" style="stop-color:#0090DA"/>
		<stop  offset="0.764" style="stop-color:#31468F"/>
	</linearGradient>
	<rect x="24.3" y="47" class="st1" width="4.2" height="32.4"/>
	
		<linearGradient id="SVGID_3_" gradientUnits="userSpaceOnUse" x1="31.1778" y1="46.4673" x2="49.5111" y2="3.8006" gradientTransform="matrix(1 0 0 -1 0 78.72)">
		<stop  offset="0" style="stop-color:#9ED8F5"/>
		<stop  offset="0.25" style="stop-color:#73C9F2"/>
		<stop  offset="0.45" style="stop-color:#009CE5"/>
		<stop  offset="0.5618" style="stop-color:#0090DA"/>
		<stop  offset="0.764" style="stop-color:#31468F"/>
	</linearGradient>
	<path class="st2" d="M39,69.9V54.2h-4.2v14.7c0,3,0.3,5.1,1.8,7c1.9,2.4,4.8,3.8,7.9,3.8c6,0,9.7-4.2,9.7-10.9V54.1H50v15.7
		c0,3.5-2.3,5.9-5.5,5.9C41.3,75.8,39,73.4,39,69.9z"/>
	
		<linearGradient id="SVGID_4_" gradientUnits="userSpaceOnUse" x1="45.1645" y1="52.4773" x2="63.4978" y2="9.8106" gradientTransform="matrix(1 0 0 -1 0 78.72)">
		<stop  offset="0" style="stop-color:#9ED8F5"/>
		<stop  offset="0.25" style="stop-color:#73C9F2"/>
		<stop  offset="0.45" style="stop-color:#009CE5"/>
		<stop  offset="0.5618" style="stop-color:#0090DA"/>
		<stop  offset="0.764" style="stop-color:#31468F"/>
	</linearGradient>
	<rect x="60.5" y="54.2" class="st3" width="4.2" height="25.2"/>
	
		<linearGradient id="SVGID_5_" gradientUnits="userSpaceOnUse" x1="63.7181" y1="60.4495" x2="82.0514" y2="17.7828" gradientTransform="matrix(1 0 0 -1 0 78.72)">
		<stop  offset="0" style="stop-color:#9ED8F5"/>
		<stop  offset="0.25" style="stop-color:#73C9F2"/>
		<stop  offset="0.45" style="stop-color:#009CE5"/>
		<stop  offset="0.5618" style="stop-color:#0090DA"/>
		<stop  offset="0.764" style="stop-color:#31468F"/>
	</linearGradient>
	<path class="st4" d="M81.2,75.8c-3.9,0-6.7-3-6.7-7.2c0-4.6,2.8-7.6,7-7.6c1.2,0,2.4,0.3,3.6,0.8v-4c-1.3-0.5-2.7-0.7-4.1-0.7
		c-6.4,0-10.8,4.6-10.8,11.3c0,6.6,4.6,11.5,10.9,11.5c4.2,0,7.9-2.1,9.8-5.5c1.1-2,1.4-4.3,1.4-7.6V47h-4.2v21.3
		C88,72.8,85.3,75.8,81.2,75.8z"/>
	<g>
		
			<radialGradient id="SVGID_6_" cx="33.8638" cy="54.6724" r="40.0031" fx="-1.3112" fy="67.6168" gradientTransform="matrix(1 0 0 -1 0 78.72)" gradientUnits="userSpaceOnUse">
			<stop  offset="0" style="stop-color:#00ADEE"/>
			<stop  offset="0.86" style="stop-color:#16469D"/>
			<stop  offset="1" style="stop-color:#16469D"/>
		</radialGradient>
		<path class="st5" d="M30.5,21.5c0-0.6-0.1-1.4-0.5-1.4c-0.5,0-0.6,0.8-0.6,1.4c0,0.9,0.2,1.3,0.5,1.3
			C30.4,22.8,30.5,22.1,30.5,21.5z"/>
		
			<radialGradient id="SVGID_7_" cx="33.8638" cy="54.6724" r="40.0031" fx="-1.3112" fy="67.6168" gradientTransform="matrix(1 0 0 -1 0 78.72)" gradientUnits="userSpaceOnUse">
			<stop  offset="0" style="stop-color:#00ADEE"/>
			<stop  offset="0.86" style="stop-color:#16469D"/>
			<stop  offset="1" style="stop-color:#16469D"/>
		</radialGradient>
		<path class="st6" d="M63,9.4c0-1.3-0.3-1.9-0.7-1.9c-0.5,0-0.8,0.6-0.8,1.9c0,1.2,0.3,1.8,0.8,1.8C62.7,11.2,63,10.6,63,9.4z"/>
		
			<radialGradient id="SVGID_8_" cx="33.8638" cy="54.6724" r="40.0031" fx="-1.3112" fy="67.6168" gradientTransform="matrix(1 0 0 -1 0 78.72)" gradientUnits="userSpaceOnUse">
			<stop  offset="0" style="stop-color:#00ADEE"/>
			<stop  offset="0.86" style="stop-color:#16469D"/>
			<stop  offset="1" style="stop-color:#16469D"/>
		</radialGradient>
		<path class="st7" d="M19.5,28.6c-0.8,0-1.2,0.9-1.2,2.6c0,1.6,0.4,2.5,1.1,2.5c0.7,0,1.1-0.8,1.1-2.5
			C20.6,29.5,20.2,28.6,19.5,28.6z"/>
		
			<radialGradient id="SVGID_9_" cx="33.8638" cy="54.6724" r="40.0031" fx="-1.3112" fy="67.6168" gradientTransform="matrix(1 0 0 -1 0 78.72)" gradientUnits="userSpaceOnUse">
			<stop  offset="0" style="stop-color:#00ADEE"/>
			<stop  offset="0.86" style="stop-color:#16469D"/>
			<stop  offset="1" style="stop-color:#16469D"/>
		</radialGradient>
		<path class="st8" d="M42.5,21.4c-1.3,0-2,1.5-2,4.5c0,2.8,0.7,4.2,2,4.2s2-1.4,2-4.2C44.4,22.9,43.7,21.4,42.5,21.4z"/>
		
			<radialGradient id="SVGID_10_" cx="33.8638" cy="54.6724" r="40.0031" fx="-1.3112" fy="67.6168" gradientTransform="matrix(1 0 0 -1 0 78.72)" gradientUnits="userSpaceOnUse">
			<stop  offset="0" style="stop-color:#00ADEE"/>
			<stop  offset="0.86" style="stop-color:#16469D"/>
			<stop  offset="1" style="stop-color:#16469D"/>
		</radialGradient>
		<path class="st9" d="M74.6,41.4L74.6,41.4c0-0.2,0.1-0.5,0.1-0.8c0-1.7-0.4-2.6-1.1-2.6c-0.8,0-1.2,0.9-1.2,2.6c0,0.3,0,0.6,0,0.8
			h1.8C74.3,41.5,74.5,41.5,74.6,41.4z"/>
		
			<radialGradient id="SVGID_11_" cx="33.8638" cy="54.6724" r="40.0031" fx="-1.3112" fy="67.6168" gradientTransform="matrix(1 0 0 -1 0 78.72)" gradientUnits="userSpaceOnUse">
			<stop  offset="0" style="stop-color:#00ADEE"/>
			<stop  offset="0.86" style="stop-color:#16469D"/>
			<stop  offset="1" style="stop-color:#16469D"/>
		</radialGradient>
		<path class="st10" d="M65.1,20.5c-0.9,0-1.4,1.1-1.4,3.2c0,2,0.5,2.9,1.4,2.9s1.3-1,1.3-3S65.9,20.5,65.1,20.5z"/>
		
			<radialGradient id="SVGID_12_" cx="33.8638" cy="54.6724" r="40.0031" fx="-1.3112" fy="67.6168" gradientTransform="matrix(1 0 0 -1 0 78.72)" gradientUnits="userSpaceOnUse">
			<stop  offset="0" style="stop-color:#00ADEE"/>
			<stop  offset="0.86" style="stop-color:#16469D"/>
			<stop  offset="1" style="stop-color:#16469D"/>
		</radialGradient>
		<path class="st11" d="M81,28.2c-0.1-0.4-0.2-0.7-0.4-1.1c-0.1-0.2-0.2-0.4-0.3-0.6c-0.3-0.7-0.7-1.4-1.2-2l0,0
			c-3.3-4.4-8.8-4.3-8.8-4.3c0.1-0.8,0.1-1.5,0-2.1c0-0.2,0-0.4,0-0.6c-0.4-7.3-4.5-10.3-4.5-10.3c-3.2-3.4-6.7-4.5-8.8-5
			c-0.5-0.1-2.7-0.3-3-0.3s-2.1,0-2.8,0.2S49.7,2.4,49,2.6c-0.4,0.1-0.8,0.2-1.1,0.4c-0.1,0-0.1,0-0.2,0.1V6h2.4v1.7h-6.6V6h2.4V3.9
			c-2.8,1.4-4.7,3.3-5.9,5c1.3,0.2,2,1.4,2,3.7c0,1.2-0.2,2.1-0.7,2.8c-0.5,0.7-1.1,1-1.9,1c-0.8,0-1.4-0.3-1.8-1
			c-0.4-0.6-0.6-1.5-0.6-2.7c0-0.3,0-0.6,0-0.8c-0.2-0.2-0.5-0.4-0.7-0.5c-0.9-0.7-2-1-3.1-1.1c-0.9-0.1-1.8-0.2-2.6,0.1
			c-0.6,0.2-1.3,0.4-1.9,0.6c-0.6,0.3-1.2,0.7-1.7,1.2c-3.1,2.2-2.6,6.8-2.6,6.8c-0.1,0-0.3,0.1-0.4,0.1v3.7h1.5V24h-4.4v-1.2h1.5
			v-3.2c-8,3.3-7.1,11.4-7.1,11.4c0,0.2,0.1,0.4,0.1,0.6c0,0.8,0.1,1.7,0.4,2.5c0.6,1.4,1.1,2.8,2.1,3.9c0.5,0.5,1,1.2,1.5,1.6
			c1.2,0.9,2.4,1.6,3.9,2.1c1,0.3,2,0.5,3.1,0.6c3.5,0.1,7,0,10.6,0c3.1,0,6.3,0,9.4,0c0.2,0,0.6,0.1,0.6,0.3l0,0l15.9,7.2
			c-0.2-0.3-1-2.4-1.2-3c-0.5-1.8,0.1-3.9,0.5-5.5l8.4,0.2c0-0.2,0-0.5,0-0.7c0-1.3,0.2-2.2,0.6-2.9c0.4-0.7,1.1-1,1.9-1
			c1.6,0,2.4,1.3,2.4,3.7c0,0.1,0,0.1,0,0.2c0.8-0.4,1.5-0.9,2.1-1.5c0.4-0.5,1-0.9,1.4-1.4c0.4-0.6,0.7-1.2,1-1.8
			c0.5-1.2,1-2.4,1-3.8C81.4,30.8,81.4,29.5,81,28.2z M21.3,33.9c-0.5,0.7-1.1,1-1.9,1c-0.8,0-1.4-0.3-1.8-1
			c-0.4-0.6-0.6-1.5-0.6-2.7c0-1.3,0.2-2.2,0.6-2.9c0.4-0.7,1.1-1,1.9-1c1.6,0,2.4,1.3,2.4,3.7C22,32.3,21.8,33.3,21.3,33.9z
			 M28.8,23.1c-0.2-0.4-0.4-0.9-0.4-1.6c0-0.8,0.1-1.3,0.4-1.7c0.3-0.4,0.7-0.6,1.2-0.6c0.7,0,1.5,0.4,1.5,2.3
			c0,0.7-0.1,1.3-0.4,1.7c-0.3,0.4-0.7,0.6-1.2,0.6C29.4,23.7,29,23.5,28.8,23.1z M34.2,37.3h-4.4v-1.2h1.5v-4.6L29.7,32v-1.3
			l2.9-0.8v6.3h1.5v1.1H34.2z M45.9,38.9H43v-1h0.9v-2.6l-1,0.3v-1l2-0.6v3.9h0.9v1H45.9z M45.3,30.1c-0.7,1.1-1.7,1.6-3,1.6
			c-1.2,0-2.2-0.5-2.8-1.5s-1-2.4-1-4.2c0-2,0.3-3.5,1-4.6s1.7-1.6,3-1.6c2.5,0,3.8,2,3.8,5.9C46.3,27.6,46,29.1,45.3,30.1z
			 M50.5,14.8v-1.3l2.8-0.8v6h1.4v1.2h-4.2v-1.2H52v-4.3L50.5,14.8z M58.3,45.3h-4.4v-1.2h1.5v-4.6L53.8,40v-1.3l2.9-0.8v6.3h1.5
			v1.1H58.3z M60.2,34.7h-6.7V33h2.4v-7.7L53.4,26v-1.8l4.4-1.3v10h2.4L60.2,34.7L60.2,34.7z M60.8,11.5c-0.3-0.5-0.5-1.2-0.5-2
			c0-1,0.2-1.7,0.5-2.2s0.9-0.8,1.5-0.8c1.2,0,1.9,1,1.9,2.9c0,0.9-0.2,1.6-0.5,2.1c-0.4,0.5-0.9,0.8-1.5,0.8
			C61.6,12.3,61.1,12,60.8,11.5z M67.2,26.8C66.7,27.6,65.9,28,65,28c-0.9,0-1.6-0.4-2.1-1.1s-0.7-1.8-0.7-3.1
			c0-1.5,0.2-2.6,0.7-3.3c0.5-0.8,1.3-1.2,2.2-1.2c1.9,0,2.8,1.5,2.8,4.4C67.9,24.9,67.7,26,67.2,26.8z M75.2,31
			c-0.5,0.7-1.1,1-1.9,1s-1.4-0.3-1.8-1c-0.4-0.6-0.6-1.5-0.6-2.7c0-1.3,0.2-2.2,0.6-2.9c0.4-0.7,1.1-1,1.9-1c1.6,0,2.4,1.3,2.4,3.7
			C75.9,29.5,75.7,30.4,75.2,31z"/>
		
			<radialGradient id="SVGID_13_" cx="33.8638" cy="54.6724" r="40.0031" fx="-1.3112" fy="67.6168" gradientTransform="matrix(1 0 0 -1 0 78.72)" gradientUnits="userSpaceOnUse">
			<stop  offset="0" style="stop-color:#00ADEE"/>
			<stop  offset="0.86" style="stop-color:#16469D"/>
			<stop  offset="1" style="stop-color:#16469D"/>
		</radialGradient>
		<path class="st12" d="M38.4,12.6c0,1.6,0.4,2.5,1.1,2.5c0.7,0,1.1-0.8,1.1-2.5S40.2,10,39.5,10c-0.1,0-0.3,0-0.4,0.1
			c-0.3,0.5-0.5,0.9-0.7,1.3C38.4,11.8,38.4,12.2,38.4,12.6z"/>
		
			<radialGradient id="SVGID_14_" cx="33.8638" cy="54.6724" r="40.0031" fx="-1.3112" fy="67.6168" gradientTransform="matrix(1 0 0 -1 0 78.72)" gradientUnits="userSpaceOnUse">
			<stop  offset="0" style="stop-color:#00ADEE"/>
			<stop  offset="0.86" style="stop-color:#16469D"/>
			<stop  offset="1" style="stop-color:#16469D"/>
		</radialGradient>
		<path class="st13" d="M73.4,25.7c-0.8,0-1.2,0.9-1.2,2.6c0,1.6,0.4,2.5,1.1,2.5s1.1-0.8,1.1-2.5C74.5,26.6,74.1,25.7,73.4,25.7z"
			/>
	</g>
</g>
</svg>
