<svg width="1500" height="1610" viewBox="0 0 1500 1610" fill="none" xmlns="http://www.w3.org/2000/svg">
<path d="M1021.8 742.259C989.643 802.45 937.987 849.912 875.311 876.852C812.635 903.792 742.666 908.608 676.893 890.508C611.121 872.409 553.455 832.471 513.366 777.253C473.278 722.034 453.149 654.818 456.286 586.643C459.424 518.468 485.64 453.387 530.631 402.087C575.621 350.787 636.711 316.319 703.867 304.343C771.024 292.366 840.255 303.594 900.191 336.181C960.128 368.769 1007.21 420.779 1033.7 483.671H1313.62C1284.93 346.933 1206.98 225.524 1094.62 142.558C982.253 59.5914 843.317 20.8617 704.26 33.7417C565.202 46.6218 435.735 110.212 340.504 212.407C245.274 314.601 190.932 448.263 187.822 587.946C184.713 727.629 233.054 863.579 323.643 969.914C414.232 1076.25 540.741 1145.54 679.088 1164.6C817.434 1183.66 957.956 1151.16 1073.9 1073.28C1189.85 995.401 1273.12 877.584 1307.86 742.259H1021.8Z" fill="url(#paint0_linear_2356_7922)"/>
<path d="M1307.86 742.259H1021.8C990.284 801.295 939.997 848.133 878.889 875.363C817.782 902.593 749.343 908.66 684.402 892.604C619.461 876.548 561.725 839.286 520.329 786.713C478.934 734.141 456.241 669.259 455.843 602.334C455.836 603.393 455.798 604.445 455.798 605.506C455.798 892.761 703.16 1104.84 1010.67 1110.12C1083.62 1073.63 1147.89 1021.91 1199.16 958.448C1250.42 894.989 1287.49 821.269 1307.86 742.259Z" fill="url(#paint1_linear_2356_7922)"/>
<path opacity="0.59" d="M456.019 591.767C455.997 592.509 455.982 593.254 455.963 593.998C455.979 593.253 455.997 592.51 456.019 591.767Z" fill="url(#paint2_linear_2356_7922)"/>
<path d="M577.075 841.966C577.682 842.418 578.315 842.834 578.925 843.282C578.315 842.835 577.682 842.417 577.075 841.966Z" fill="url(#paint3_linear_2356_7922)"/>
<path d="M588.824 850.293C589.604 850.818 590.416 851.299 591.202 851.817C590.416 851.299 589.604 850.818 588.824 850.293Z" fill="url(#paint4_linear_2356_7922)"/>
<path d="M613.536 865.264C614.684 865.886 615.87 866.445 617.027 867.053C615.87 866.445 614.684 865.886 613.536 865.264Z" fill="url(#paint5_linear_2356_7922)"/>
<path d="M600.986 858.066C601.936 858.642 602.921 859.165 603.878 859.73C602.921 859.165 601.936 858.642 600.986 858.066Z" fill="url(#paint6_linear_2356_7922)"/>
<path d="M626.458 871.866C627.829 872.525 629.239 873.11 630.621 873.749C629.239 873.111 627.829 872.525 626.458 871.866Z" fill="url(#paint7_linear_2356_7922)"/>
<path d="M544.884 814.234C544.748 814.099 544.604 813.972 544.468 813.837C544.604 813.972 544.748 814.099 544.884 814.234Z" fill="url(#paint8_linear_2356_7922)"/>
<path d="M565.755 833.102C566.187 833.457 566.641 833.787 567.075 834.14C566.641 833.787 566.187 833.457 565.755 833.102Z" fill="url(#paint9_linear_2356_7922)"/>
<path d="M534.536 803.472L534.629 803.568L534.536 803.472Z" fill="url(#paint10_linear_2356_7922)"/>
<path d="M554.879 823.719C555.157 823.97 555.45 824.204 555.728 824.454C555.45 824.204 555.157 823.97 554.879 823.719Z" fill="url(#paint11_linear_2356_7922)"/>
<path d="M1033.42 1098.05C1031.78 1098.96 1030.14 1099.86 1028.5 1100.76C1030.14 1099.86 1031.78 1098.96 1033.42 1098.05Z" fill="url(#paint12_linear_2356_7922)"/>
<path d="M725.823 899.842C729.094 900.173 732.405 900.367 735.707 900.594C732.405 900.367 729.094 900.174 725.823 899.842Z" fill="url(#paint13_linear_2356_7922)"/>
<path d="M741.069 901C746.185 901.259 751.333 901.389 756.514 901.391C751.334 901.391 746.186 901.26 741.069 901Z" fill="url(#paint14_linear_2356_7922)"/>
<path d="M1010.67 1110.13C703.16 1104.84 455.798 892.761 455.798 605.506C455.798 604.445 455.836 603.393 455.843 602.334V602.338C455.84 601.734 455.798 601.138 455.798 600.533C455.806 528.93 481.335 459.676 527.798 405.214C574.262 350.751 638.614 314.65 709.294 303.396V301.262C462.058 343.484 286.8 554.742 286.8 831.771C286.735 871.601 293.322 911.162 306.288 948.821C386.919 1053.09 501.196 1126.15 629.642 1155.56C758.088 1184.98 892.754 1168.91 1010.69 1110.12L1010.67 1110.13Z" fill="url(#paint15_linear_2356_7922)"/>
<path d="M639.736 877.856C641.32 878.525 642.946 879.111 644.544 879.753C642.946 879.111 641.32 878.525 639.736 877.856Z" fill="url(#paint16_linear_2356_7922)"/>
<path d="M710.808 897.936C713.656 898.37 716.544 898.676 719.418 899.03C716.544 898.676 713.656 898.37 710.808 897.936Z" fill="url(#paint17_linear_2356_7922)"/>
<path d="M696.035 895.301C698.486 895.802 700.977 896.185 703.449 896.625C700.977 896.185 698.486 895.802 696.035 895.301Z" fill="url(#paint18_linear_2356_7922)"/>
<path d="M653.352 883.214C655.174 883.88 657.04 884.453 658.878 885.085C657.04 884.453 655.174 883.88 653.352 883.214Z" fill="url(#paint19_linear_2356_7922)"/>
<path d="M681.516 891.955C683.761 892.532 686.048 892.999 688.312 893.525C686.048 892.999 683.761 892.532 681.516 891.955Z" fill="url(#paint20_linear_2356_7922)"/>
<path d="M667.282 887.919C669.354 888.562 671.469 889.103 673.56 889.703C671.469 889.103 669.354 888.562 667.282 887.919Z" fill="url(#paint21_linear_2356_7922)"/>
<path d="M1243.82 894.756C1244.64 893.396 1245.44 892.024 1246.25 890.656C1245.44 892.023 1244.64 893.397 1243.82 894.756Z" fill="url(#paint22_linear_2356_7922)"/>
<path d="M1230.9 915.111C1231.63 914.007 1232.38 912.916 1233.11 911.807C1232.38 912.916 1231.63 914.007 1230.9 915.111Z" fill="url(#paint23_linear_2356_7922)"/>
<path d="M1255.12 875.167C1255.66 874.187 1256.22 873.22 1256.76 872.237C1256.22 873.221 1255.66 874.187 1255.12 875.167Z" fill="url(#paint24_linear_2356_7922)"/>
<path d="M1266.12 854.208C1266.86 852.743 1267.57 851.268 1268.29 849.796C1267.57 851.268 1266.86 852.743 1266.12 854.208Z" fill="url(#paint25_linear_2356_7922)"/>
<path d="M1276.16 832.993C1276.5 832.22 1276.87 831.457 1277.21 830.683C1276.87 831.457 1276.5 832.22 1276.16 832.993Z" fill="url(#paint26_linear_2356_7922)"/>
<path d="M1173.59 987.869C1174.69 986.677 1175.81 985.495 1176.91 984.293C1175.81 985.495 1174.69 986.677 1173.59 987.869Z" fill="url(#paint27_linear_2356_7922)"/>
<path d="M1190.05 969.387C1190.99 968.277 1191.92 967.148 1192.85 966.031C1191.92 967.148 1190.99 968.278 1190.05 969.387Z" fill="url(#paint28_linear_2356_7922)"/>
<path d="M1203.67 952.71C1204.59 951.546 1205.52 950.394 1206.43 949.222C1205.52 950.393 1204.59 951.546 1203.67 952.71Z" fill="url(#paint29_linear_2356_7922)"/>
<path d="M1218.41 933.203C1219.3 931.962 1220.17 930.705 1221.06 929.456C1220.17 930.704 1219.3 931.962 1218.41 933.203Z" fill="url(#paint30_linear_2356_7922)"/>
<path d="M1300.73 767.459C1301.23 765.843 1301.72 764.224 1302.19 762.603C1301.71 764.224 1301.23 765.843 1300.73 767.459Z" fill="url(#paint31_linear_2356_7922)"/>
<path d="M1285.16 811.719C1285.77 810.169 1286.38 808.614 1286.98 807.058C1286.38 808.614 1285.77 810.17 1285.16 811.719Z" fill="url(#paint32_linear_2356_7922)"/>
<path d="M1109.9 1046.83C1108.5 1047.94 1107.08 1049.04 1105.66 1050.15C1107.08 1049.04 1108.5 1047.94 1109.9 1046.83Z" fill="url(#paint33_linear_2356_7922)"/>
<path d="M1091.44 1060.88C1090.67 1061.45 1089.91 1062.03 1089.14 1062.59C1089.91 1062.03 1090.67 1061.45 1091.44 1060.88Z" fill="url(#paint34_linear_2356_7922)"/>
<path d="M1072.77 1073.93C1071.24 1074.96 1069.7 1075.98 1068.15 1076.99C1069.69 1075.98 1071.24 1074.96 1072.77 1073.93Z" fill="url(#paint35_linear_2356_7922)"/>
<path d="M1127.93 1031.91C1127.03 1032.68 1126.15 1033.47 1125.25 1034.24C1126.15 1033.47 1127.03 1032.68 1127.93 1031.91Z" fill="url(#paint36_linear_2356_7922)"/>
<path d="M1052.39 1086.99C1051.85 1087.32 1051.32 1087.67 1050.77 1088C1051.32 1087.67 1051.85 1087.32 1052.39 1086.99Z" fill="url(#paint37_linear_2356_7922)"/>
<path d="M1144.67 1016.9C1143.41 1018.07 1142.14 1019.22 1140.88 1020.38C1142.14 1019.22 1143.41 1018.07 1144.67 1016.9Z" fill="url(#paint38_linear_2356_7922)"/>
<path d="M1293.79 788.704C1293.96 788.233 1294.14 787.768 1294.3 787.295C1294.14 787.767 1293.96 788.232 1293.79 788.704Z" fill="url(#paint39_linear_2356_7922)"/>
<path d="M1158.95 1003.11C1159.89 1002.17 1160.82 1001.2 1161.76 1000.24C1160.82 1001.2 1159.89 1002.17 1158.95 1003.11Z" fill="url(#paint40_linear_2356_7922)"/>
<path fill-rule="evenodd" clip-rule="evenodd" d="M947.16 607.953C940.05 594.937 929.385 584.215 916.41 577.037C902.324 568.729 879.001 560.516 846.442 552.399C833.287 549.228 824.955 545.803 821.448 542.125C819.766 540.609 818.416 538.762 817.482 536.7C816.548 534.637 816.051 532.403 816.021 530.139C815.975 527.238 816.536 524.36 817.669 521.689C818.802 519.019 820.481 516.615 822.599 514.633C828.029 510.016 835.06 507.726 842.167 508.26C851.222 507.734 860.118 510.812 866.915 516.821C872.89 522.529 876.809 531.661 878.672 544.218L948.887 539.461C945.818 510.542 936.198 489.456 920.028 476.202C903.859 462.948 880.371 456.32 849.567 456.32C824.462 456.32 804.702 459.967 790.287 467.26C776.702 473.777 765.409 484.257 757.892 497.32C750.813 509.684 747.099 523.69 747.122 537.939C746.783 547.875 748.475 557.775 752.094 567.033C755.713 576.291 761.184 584.712 768.17 591.782C782.092 605.86 805.388 617.149 838.056 625.647C858.008 630.72 870.725 636.111 876.206 641.819C878.794 644.346 880.854 647.363 882.265 650.695C883.677 654.027 884.412 657.606 884.428 661.224C884.432 664.982 883.668 668.701 882.183 672.152C880.699 675.604 878.525 678.716 875.795 681.296C872.492 684.323 868.612 686.65 864.387 688.138C860.162 689.625 855.681 690.243 851.211 689.953C844.733 690.224 838.295 688.807 832.529 685.838C826.763 682.869 821.868 678.452 818.323 673.02C812.864 663.745 809.654 653.32 808.951 642.579L738.078 647.716C740.161 675.874 749.095 699.085 764.881 717.349C780.667 735.614 809.06 744.746 850.06 744.746C873.411 744.746 892.759 740.846 908.107 733.045C923.231 725.459 935.722 713.493 943.954 698.704C952.5 683.63 956.924 666.568 956.78 649.238C956.988 634.898 953.685 620.724 947.16 607.953V607.953Z" fill="url(#paint41_linear_2356_7922)"/>
<path fill-rule="evenodd" clip-rule="evenodd" d="M752.092 593.489C746.313 586.393 741.775 578.37 738.669 569.759H648.763V521.13H734.829C740.027 496.894 754.19 475.52 774.479 461.293H574.05V739.773H648.763V625.987H752.092V593.489Z" fill="url(#paint42_linear_2356_7922)"/>
<path d="M287.115 1558.13C313.615 1558.13 330.762 1545.39 338.556 1519.92L376.26 1537.42C370.999 1555.5 360.671 1569.7 345.278 1580.01C329.885 1590.31 310.789 1595.47 287.992 1595.47C266.168 1595.47 246.781 1590.22 229.829 1579.72C212.876 1569.41 199.724 1554.82 190.371 1535.96C181.018 1517.1 176.342 1495.32 176.342 1470.62C176.342 1446.12 181.018 1424.43 190.371 1405.57C199.724 1386.71 212.876 1372.02 229.829 1361.52C246.781 1351.02 266.168 1345.77 287.992 1345.77C310.789 1345.77 329.885 1350.92 345.278 1361.23C360.671 1371.34 370.999 1385.44 376.26 1403.53L338.556 1421.32C330.762 1395.85 313.615 1383.11 287.115 1383.11C274.45 1383.11 263.148 1386.8 253.211 1394.19C243.468 1401.39 235.869 1411.6 230.413 1424.82C224.957 1438.05 222.229 1453.31 222.229 1470.62C222.229 1487.93 224.957 1503.19 230.413 1516.42C235.869 1529.64 243.468 1539.95 253.211 1547.34C263.148 1554.53 274.45 1558.13 287.115 1558.13Z" fill="#212121"/>
<path d="M523.702 1591.38C522.533 1584.58 521.851 1575.73 521.656 1564.84C508.211 1585.26 487.46 1595.47 459.401 1595.47C440.306 1595.47 425.302 1589.73 414.39 1578.26C403.479 1566.78 398.023 1550.74 398.023 1530.13V1411.99H440.403V1523.13C440.403 1547.63 451.997 1559.88 475.184 1559.88C488.239 1559.88 498.566 1555.6 506.165 1547.05C513.765 1538.29 517.564 1526.43 517.564 1511.46V1411.99H559.944V1550.25C559.944 1566.98 560.432 1580.69 561.406 1591.38H523.702Z" fill="#212121"/>
<path d="M767.546 1501.83C767.546 1520.11 764.136 1536.35 757.316 1550.55C750.496 1564.74 741.241 1575.73 729.55 1583.51C717.859 1591.48 704.998 1595.47 690.969 1595.47C678.304 1595.47 667.002 1592.84 657.065 1587.59C647.128 1582.54 638.846 1575.15 632.221 1565.42C632.027 1575.92 631.345 1584.58 630.175 1591.38H592.472C593.446 1580.69 593.933 1566.98 593.933 1550.25V1339.35H636.313V1432.7C642.743 1424.73 650.635 1418.6 659.988 1414.32C669.341 1410.04 679.668 1407.9 690.969 1407.9C704.998 1407.9 717.859 1411.89 729.55 1419.86C741.241 1427.64 750.496 1438.73 757.316 1453.12C764.136 1467.31 767.546 1483.55 767.546 1501.83ZM724.873 1501.83C724.873 1483.55 720.781 1468.97 712.598 1458.08C704.414 1446.99 693.697 1441.45 680.447 1441.45C667.197 1441.45 656.48 1446.99 648.297 1458.08C640.308 1469.16 636.313 1483.75 636.313 1501.83C636.313 1519.92 640.308 1534.5 648.297 1545.59C656.48 1556.48 667.197 1561.92 680.447 1561.92C693.697 1561.92 704.414 1556.48 712.598 1545.59C720.781 1534.5 724.873 1519.92 724.873 1501.83Z" fill="#212121"/>
<path d="M951.642 1513.21H829.178C830.541 1529.15 835.218 1541.31 843.207 1549.67C851.391 1557.84 862.01 1561.92 875.065 1561.92C885.197 1561.92 893.186 1559.78 899.032 1555.5C905.072 1551.03 909.749 1544.71 913.061 1536.54L948.134 1553.17C936.248 1581.37 912.087 1595.47 875.65 1595.47C857.528 1595.47 841.745 1591.48 828.301 1583.51C814.856 1575.73 804.529 1564.74 797.319 1550.55C790.11 1536.35 786.505 1520.11 786.505 1501.83C786.505 1483.55 790.11 1467.31 797.319 1453.12C804.724 1438.92 814.759 1427.84 827.424 1419.86C840.089 1411.89 854.313 1407.9 870.096 1407.9C886.854 1407.9 901.37 1411.79 913.646 1419.57C926.116 1427.35 935.664 1438.34 942.289 1452.53C948.914 1466.54 952.226 1482.97 952.226 1501.83C952.226 1505.92 952.031 1509.71 951.642 1513.21ZM830.054 1482.87H908.969C907.41 1469.26 903.319 1458.95 896.694 1451.95C890.069 1444.95 881.105 1441.45 869.804 1441.45C859.282 1441.45 850.514 1445.05 843.499 1452.24C836.484 1459.44 832.003 1469.65 830.054 1482.87Z" fill="#212121"/>
<path d="M1025.91 1388.07V1448.74H1119.14V1487.25H1025.91V1591.38H980.018V1349.56H1125.86V1388.07H1025.91Z" fill="#212121"/>
<path d="M1151.87 1415.78C1151.87 1402.17 1155.18 1390.11 1161.81 1379.61C1168.63 1368.91 1178.37 1360.65 1191.04 1354.81C1203.7 1348.79 1218.61 1345.77 1235.75 1345.77C1257.58 1345.77 1275.5 1350.15 1289.53 1358.9C1303.56 1367.45 1313.21 1380 1318.47 1396.53L1281.93 1413.45C1278.23 1403.92 1272.78 1396.72 1265.57 1391.86C1258.55 1387 1249 1384.57 1236.92 1384.57C1223.87 1384.57 1214.03 1387.1 1207.4 1392.15C1200.97 1397.01 1197.76 1404.21 1197.76 1413.74C1197.76 1422.88 1201.17 1429.88 1207.99 1434.74C1214.81 1439.6 1226.79 1443.59 1243.94 1446.7C1271.41 1451.56 1291.38 1460.02 1303.85 1472.08C1316.32 1484.14 1322.56 1500.86 1322.56 1522.25C1322.56 1536.25 1318.76 1548.89 1311.16 1560.17C1303.76 1571.26 1293.23 1579.91 1279.6 1586.13C1266.15 1592.36 1250.85 1595.47 1233.71 1595.47C1209.94 1595.47 1190.16 1590.61 1174.38 1580.88C1158.59 1571.16 1148.07 1557.35 1142.81 1539.46L1179.64 1522.25C1183.14 1533.53 1189.48 1542.09 1198.63 1547.92C1207.79 1553.75 1219.39 1556.67 1233.42 1556.67C1247.44 1556.67 1258.06 1553.85 1265.27 1548.21C1272.68 1542.38 1276.38 1534.11 1276.38 1523.42C1276.38 1513.31 1272.48 1505.33 1264.69 1499.5C1257.09 1493.66 1243.84 1489 1224.94 1485.5C1200 1481.02 1181.58 1473.05 1169.7 1461.58C1157.81 1450.1 1151.87 1434.84 1151.87 1415.78Z" fill="#212121"/>
<defs>
<linearGradient id="paint0_linear_2356_7922" x1="195.944" y1="699.421" x2="1316.83" y2="501.874" gradientUnits="userSpaceOnUse">
<stop stop-color="#328DBB"/>
<stop offset="1" stop-color="#0F578B"/>
</linearGradient>
<linearGradient id="paint1_linear_2356_7922" x1="1255.13" y1="623.769" x2="556.909" y2="934.488" gradientUnits="userSpaceOnUse">
<stop stop-color="#3282B4"/>
<stop offset="1" stop-color="#0F578B"/>
</linearGradient>
<linearGradient id="paint2_linear_2356_7922" x1="456.562" y1="592.31" x2="455.42" y2="593.451" gradientUnits="userSpaceOnUse">
<stop stop-color="#3F8DBB"/>
<stop offset="1" stop-color="#0F578B"/>
</linearGradient>
<linearGradient id="paint3_linear_2356_7922" x1="578.979" y1="843.187" x2="577.019" y2="842.059" gradientUnits="userSpaceOnUse">
<stop stop-color="#4798C7"/>
<stop offset="1" stop-color="#0A5183"/>
</linearGradient>
<linearGradient id="paint4_linear_2356_7922" x1="591.235" y1="851.763" x2="588.792" y2="850.349" gradientUnits="userSpaceOnUse">
<stop stop-color="#4798C7"/>
<stop offset="1" stop-color="#0A5183"/>
</linearGradient>
<linearGradient id="paint5_linear_2356_7922" x1="616.98" y1="867.139" x2="613.585" y2="865.18" gradientUnits="userSpaceOnUse">
<stop stop-color="#4798C7"/>
<stop offset="1" stop-color="#0A5183"/>
</linearGradient>
<linearGradient id="paint6_linear_2356_7922" x1="603.877" y1="859.734" x2="600.985" y2="858.069" gradientUnits="userSpaceOnUse">
<stop stop-color="#4798C7"/>
<stop offset="1" stop-color="#0A5183"/>
</linearGradient>
<linearGradient id="paint7_linear_2356_7922" x1="630.508" y1="873.944" x2="626.571" y2="871.671" gradientUnits="userSpaceOnUse">
<stop stop-color="#4798C7"/>
<stop offset="1" stop-color="#0A5183"/>
</linearGradient>
<linearGradient id="paint8_linear_2356_7922" x1="544.917" y1="814.176" x2="544.435" y2="813.895" gradientUnits="userSpaceOnUse">
<stop stop-color="#4798C7"/>
<stop offset="1" stop-color="#0A5183"/>
</linearGradient>
<linearGradient id="paint9_linear_2356_7922" x1="567.134" y1="834.036" x2="565.695" y2="833.205" gradientUnits="userSpaceOnUse">
<stop stop-color="#4798C7"/>
<stop offset="1" stop-color="#0A5183"/>
</linearGradient>
<linearGradient id="paint10_linear_2356_7922" x1="534.637" y1="803.551" x2="534.529" y2="803.489" gradientUnits="userSpaceOnUse">
<stop stop-color="#4798C7"/>
<stop offset="1" stop-color="#0A5183"/>
</linearGradient>
<linearGradient id="paint11_linear_2356_7922" x1="555.78" y1="824.364" x2="554.828" y2="823.81" gradientUnits="userSpaceOnUse">
<stop stop-color="#4798C7"/>
<stop offset="1" stop-color="#0A5183"/>
</linearGradient>
<linearGradient id="paint12_linear_2356_7922" x1="1032.21" y1="1100.13" x2="1029.7" y2="1098.68" gradientUnits="userSpaceOnUse">
<stop stop-color="#4798C7"/>
<stop offset="1" stop-color="#0A5183"/>
</linearGradient>
<linearGradient id="paint13_linear_2356_7922" x1="734.635" y1="902.451" x2="726.892" y2="897.984" gradientUnits="userSpaceOnUse">
<stop stop-color="#4798C7"/>
<stop offset="1" stop-color="#0A5183"/>
</linearGradient>
<linearGradient id="paint14_linear_2356_7922" x1="754.67" y1="904.589" x2="742.913" y2="897.807" gradientUnits="userSpaceOnUse">
<stop stop-color="#4798C7"/>
<stop offset="1" stop-color="#0A5183"/>
</linearGradient>
<linearGradient id="paint15_linear_2356_7922" x1="1084.26" y1="982.629" x2="351.44" y2="559.737" gradientUnits="userSpaceOnUse">
<stop stop-color="#4798C7"/>
<stop offset="1" stop-color="#0A5183"/>
</linearGradient>
<linearGradient id="paint16_linear_2356_7922" x1="644.354" y1="880.081" x2="639.926" y2="877.527" gradientUnits="userSpaceOnUse">
<stop stop-color="#4798C7"/>
<stop offset="1" stop-color="#0A5183"/>
</linearGradient>
<linearGradient id="paint17_linear_2356_7922" x1="718.578" y1="900.486" x2="711.644" y2="896.485" gradientUnits="userSpaceOnUse">
<stop stop-color="#4798C7"/>
<stop offset="1" stop-color="#0A5183"/>
</linearGradient>
<linearGradient id="paint18_linear_2356_7922" x1="702.81" y1="897.733" x2="696.674" y2="894.192" gradientUnits="userSpaceOnUse">
<stop stop-color="#4798C7"/>
<stop offset="1" stop-color="#0A5183"/>
</linearGradient>
<linearGradient id="paint19_linear_2356_7922" x1="658.595" y1="885.58" x2="653.638" y2="882.719" gradientUnits="userSpaceOnUse">
<stop stop-color="#4798C7"/>
<stop offset="1" stop-color="#0A5183"/>
</linearGradient>
<linearGradient id="paint20_linear_2356_7922" x1="687.801" y1="894.409" x2="682.026" y2="891.074" gradientUnits="userSpaceOnUse">
<stop stop-color="#4798C7"/>
<stop offset="1" stop-color="#0A5183"/>
</linearGradient>
<linearGradient id="paint21_linear_2356_7922" x1="673.162" y1="890.395" x2="667.681" y2="887.232" gradientUnits="userSpaceOnUse">
<stop stop-color="#4798C7"/>
<stop offset="1" stop-color="#0A5183"/>
</linearGradient>
<linearGradient id="paint22_linear_2356_7922" x1="1245.06" y1="892.721" x2="1245.01" y2="892.691" gradientUnits="userSpaceOnUse">
<stop stop-color="#4798C7"/>
<stop offset="1" stop-color="#0A5183"/>
</linearGradient>
<linearGradient id="paint23_linear_2356_7922" x1="1232.12" y1="913.525" x2="1231.89" y2="913.395" gradientUnits="userSpaceOnUse">
<stop stop-color="#4798C7"/>
<stop offset="1" stop-color="#0A5183"/>
</linearGradient>
<linearGradient id="paint24_linear_2356_7922" x1="1255.96" y1="873.713" x2="1255.92" y2="873.688" gradientUnits="userSpaceOnUse">
<stop stop-color="#4798C7"/>
<stop offset="1" stop-color="#0A5183"/>
</linearGradient>
<linearGradient id="paint25_linear_2356_7922" x1="1267.35" y1="852.087" x2="1267.06" y2="851.919" gradientUnits="userSpaceOnUse">
<stop stop-color="#4798C7"/>
<stop offset="1" stop-color="#0A5183"/>
</linearGradient>
<linearGradient id="paint26_linear_2356_7922" x1="1276.79" y1="831.899" x2="1276.58" y2="831.778" gradientUnits="userSpaceOnUse">
<stop stop-color="#4798C7"/>
<stop offset="1" stop-color="#0A5183"/>
</linearGradient>
<linearGradient id="paint27_linear_2356_7922" x1="1175.72" y1="986.352" x2="1174.77" y2="985.811" gradientUnits="userSpaceOnUse">
<stop stop-color="#4798C7"/>
<stop offset="1" stop-color="#0A5183"/>
</linearGradient>
<linearGradient id="paint28_linear_2356_7922" x1="1191.78" y1="967.895" x2="1191.13" y2="967.522" gradientUnits="userSpaceOnUse">
<stop stop-color="#4798C7"/>
<stop offset="1" stop-color="#0A5183"/>
</linearGradient>
<linearGradient id="paint29_linear_2356_7922" x1="1205.33" y1="951.129" x2="1204.77" y2="950.806" gradientUnits="userSpaceOnUse">
<stop stop-color="#4798C7"/>
<stop offset="1" stop-color="#0A5183"/>
</linearGradient>
<linearGradient id="paint30_linear_2356_7922" x1="1219.91" y1="931.437" x2="1219.55" y2="931.223" gradientUnits="userSpaceOnUse">
<stop stop-color="#4798C7"/>
<stop offset="1" stop-color="#0A5183"/>
</linearGradient>
<linearGradient id="paint31_linear_2356_7922" x1="1301.97" y1="765.323" x2="1300.96" y2="764.74" gradientUnits="userSpaceOnUse">
<stop stop-color="#4798C7"/>
<stop offset="1" stop-color="#0A5183"/>
</linearGradient>
<linearGradient id="paint32_linear_2356_7922" x1="1286.39" y1="809.575" x2="1285.75" y2="809.202" gradientUnits="userSpaceOnUse">
<stop stop-color="#4798C7"/>
<stop offset="1" stop-color="#0A5183"/>
</linearGradient>
<linearGradient id="paint33_linear_2356_7922" x1="1108.66" y1="1048.99" x2="1106.91" y2="1047.98" gradientUnits="userSpaceOnUse">
<stop stop-color="#4798C7"/>
<stop offset="1" stop-color="#0A5183"/>
</linearGradient>
<linearGradient id="paint34_linear_2356_7922" x1="1090.78" y1="1062.02" x2="1089.79" y2="1061.45" gradientUnits="userSpaceOnUse">
<stop stop-color="#4798C7"/>
<stop offset="1" stop-color="#0A5183"/>
</linearGradient>
<linearGradient id="paint35_linear_2356_7922" x1="1071.53" y1="1076.08" x2="1069.39" y2="1074.84" gradientUnits="userSpaceOnUse">
<stop stop-color="#4798C7"/>
<stop offset="1" stop-color="#0A5183"/>
</linearGradient>
<linearGradient id="paint36_linear_2356_7922" x1="1127.09" y1="1033.36" x2="1126.09" y2="1032.78" gradientUnits="userSpaceOnUse">
<stop stop-color="#4798C7"/>
<stop offset="1" stop-color="#0A5183"/>
</linearGradient>
<linearGradient id="paint37_linear_2356_7922" x1="1051.97" y1="1087.72" x2="1051.2" y2="1087.27" gradientUnits="userSpaceOnUse">
<stop stop-color="#4798C7"/>
<stop offset="1" stop-color="#0A5183"/>
</linearGradient>
<linearGradient id="paint38_linear_2356_7922" x1="1143.44" y1="1019.02" x2="1142.1" y2="1018.26" gradientUnits="userSpaceOnUse">
<stop stop-color="#4798C7"/>
<stop offset="1" stop-color="#0A5183"/>
</linearGradient>
<linearGradient id="paint39_linear_2356_7922" x1="1294.16" y1="788.066" x2="1293.94" y2="787.932" gradientUnits="userSpaceOnUse">
<stop stop-color="#4798C7"/>
<stop offset="1" stop-color="#0A5183"/>
</linearGradient>
<linearGradient id="paint40_linear_2356_7922" x1="1160.79" y1="1001.93" x2="1159.92" y2="1001.43" gradientUnits="userSpaceOnUse">
<stop stop-color="#4798C7"/>
<stop offset="1" stop-color="#0A5183"/>
</linearGradient>
<linearGradient id="paint41_linear_2356_7922" x1="748.381" y1="701.05" x2="946.889" y2="502.631" gradientUnits="userSpaceOnUse">
<stop stop-color="#51A2D1"/>
<stop offset="1" stop-color="#0E5688"/>
</linearGradient>
<linearGradient id="paint42_linear_2356_7922" x1="523.141" y1="688.839" x2="762.641" y2="449.452" gradientUnits="userSpaceOnUse">
<stop stop-color="#51A2D1"/>
<stop offset="1" stop-color="#0E5688"/>
</linearGradient>
</defs>
</svg>
