<svg width="377" height="377" viewBox="0 0 377 377" fill="none" xmlns="http://www.w3.org/2000/svg">
<path d="M77.7275 83.1941L225.221 173.095L364.329 85.0401L215.255 0L77.7275 83.1941Z" fill="#232323"/>
<path d="M376.362 236.599V284.534L230.022 376.65V326.5L376.362 236.599Z" fill="#232323"/>
<path d="M75.6006 98.5781L77.7276 152.482L216.045 237.091V184.172L75.6006 98.5781Z" fill="#232323"/>
<path d="M0 224.476L2.12702 278.38L134.549 361.205V308.285L0 224.476Z" fill="#868686"/>
<path d="M370.71 99.7466L368.583 156.912L230.265 243.183V185.402L370.71 99.7466Z" fill="#232323"/>
<path d="M76.0865 168.542L4.98315 210.754L143.118 298.871L214.1 253.951L76.0865 168.542Z" fill="#868686"/>
<path d="M369.677 221.031L333.578 198.264L305.319 214.939V261.767L369.677 221.031Z" fill="#232323"/>
<path d="M214.343 372.651L215.133 337.207L185.112 354.56L214.343 372.651Z" fill="#232323"/>
<path d="M289.64 223.615V271.366L152.416 357.821L152.113 308.409L289.64 223.615Z" fill="#868686"/>
</svg>
