<svg id="图层_1" data-name="图层 1" xmlns="http://www.w3.org/2000/svg" viewBox="0 0 1889 689"><title>未标题-1</title><path d="M674,302.69h0a14,14,0,0,0,0,28,48.19,48.19,0,0,1-.05,96.37H305a64.69,64.69,0,0,1-13.21-128,14,14,0,1,0-5.68-27.43A92.71,92.71,0,0,0,305,455.09H673.91a76.2,76.2,0,0,0,.08-152.4Z"/><path d="M493.27,204.8a14,14,0,0,0,17.81-8.66,64.61,64.61,0,1,1,116.75,53.78A14,14,0,0,0,652,264.14,92.61,92.61,0,1,0,484.61,187a14,14,0,0,0,8.66,17.82Z"/><path d="M320.18,257.28h.2a14,14,0,0,0,14-13.82,48.17,48.17,0,0,1,85.07-30.31,14,14,0,1,0,21.43-18,76.18,76.18,0,0,0-134.51,48,14,14,0,0,0,13.81,14.19Z"/><path d="M218.65,227.42c1-.66,2-1.3,3.08-1.93A21.79,21.79,0,0,0,218.65,227.42Z"/><path d="M305,480.67a118.26,118.26,0,0,1-63.41-218.1c.58-.33,1.14-.68,1.69-1.06a21,21,0,0,0,9.07-17.3,21,21,0,0,0-3.07-11,21,21,0,0,0-25.37-8.73,18.4,18.4,0,0,0-3.29,1.65l-2,1.24c-44.85,28.86-74,79.31-74,135,0,88.36,71.91,160.28,160.29,160.28H432.64a21,21,0,0,0,21-21h0a21,21,0,0,0-21-21Z"/><path d="M453,130.21l-1.38-3.51A21.33,21.33,0,0,0,453,130.21Z"/><path d="M487.58,134.68l-1.17,1.23Q487,135.33,487.58,134.68Z"/><path d="M729.72,246.38a159,159,0,0,0,2.69-29.12C732.41,128.88,660.5,57,572.12,57a160.17,160.17,0,0,0-115.45,49.22l-.32.34a21,21,0,0,0-5.58,14.26,21.37,21.37,0,0,0,.84,5.91l1.38,3.51a21,21,0,0,0,29.07,8.94l1.7-1.06a20.47,20.47,0,0,0,2.65-2.18l1.17-1.23A117.68,117.68,0,0,1,570.88,99c65.35-.68,119.18,52.31,119.51,117.66A117.55,117.55,0,0,1,674,277.1,101.79,101.79,0,0,1,697.11,478a21,21,0,0,0-16.17,20.44h0a21,21,0,0,0,25.91,20.42c63.46-14.93,110.85-72,110.85-140A144,144,0,0,0,729.72,246.38Z"/><path d="M508.13,517.23a15.37,15.37,0,0,1-15.37-15.36v-.26a15.37,15.37,0,0,1,30.73,0v.26A15.36,15.36,0,0,1,508.13,517.23Z"/><path d="M508.13,618.26a15.37,15.37,0,0,1-15.37-15.37v-.5a15.37,15.37,0,0,1,30.73,0v.5A15.37,15.37,0,0,1,508.13,618.26Zm0-50.51a15.37,15.37,0,0,1-15.37-15.37v-.5a15.37,15.37,0,0,1,30.73,0v.5A15.37,15.37,0,0,1,508.13,567.75Z"/><path d="M508,668.53h0a15.29,15.29,0,0,1-15.28-15.29h0a15.59,15.59,0,0,1,15.14-15.7,15.79,15.79,0,0,1,15.84,15.85A15.58,15.58,0,0,1,508,668.53Z"/><path d="M670.3,668.53h-.53a15.37,15.37,0,1,1,0-30.73h.53a15.37,15.37,0,0,1,0,30.73Zm-54,0h-.54a15.37,15.37,0,0,1,0-30.73h.54a15.37,15.37,0,0,1,0,30.73Zm-54,0h-.54a15.37,15.37,0,0,1,0-30.73h.54a15.37,15.37,0,0,1,0,30.73Z"/><path d="M724,668.53h-.25a15.37,15.37,0,1,1,0-30.73H724a15.37,15.37,0,1,1,0,30.73Z"/><path d="M623.93,512a15.37,15.37,0,0,1-15.36-15.37v-.25a15.36,15.36,0,1,1,30.72,0v.25A15.36,15.36,0,0,1,623.93,512Z"/><path d="M623.87,579.78h0a15.3,15.3,0,0,1-15.3-15.3h0a15.57,15.57,0,0,1,15.11-15.68,15.81,15.81,0,0,1,15.87,15.87A15.57,15.57,0,0,1,623.87,579.78Z"/><path d="M825.55,579.78h-.5a15.36,15.36,0,1,1,0-30.72h.5a15.36,15.36,0,1,1,0,30.72Z"/><path d="M872.43,579.65h-.49a15.36,15.36,0,1,1,0-30.72h.49a15.36,15.36,0,1,1,0,30.72Z"/><path d="M775.21,579.78h-.5a15.36,15.36,0,1,1,0-30.72h.5a15.36,15.36,0,1,1,0,30.72Z"/><path d="M724.87,579.78h-.5a15.36,15.36,0,0,1,0-30.72h.5a15.36,15.36,0,0,1,0,30.72Z"/><path d="M674.53,579.78H674a15.36,15.36,0,1,1,0-30.72h.5a15.36,15.36,0,1,1,0,30.72Z"/><path d="M784.43,684.54a31.38,31.38,0,1,1,31.37-31.38A31.41,31.41,0,0,1,784.43,684.54Zm0-45.34a14,14,0,1,0,14,14A14,14,0,0,0,784.43,639.2Z"/><path d="M934.7,595.8a31.38,31.38,0,1,1,31.38-31.38A31.42,31.42,0,0,1,934.7,595.8Zm0-45.35a14,14,0,1,0,14,14A14,14,0,0,0,934.7,550.45Z"/><path d="M409.48,153a15.37,15.37,0,0,1-15.37-15.37v-.25a15.37,15.37,0,1,1,30.73,0v.25A15.37,15.37,0,0,1,409.48,153Z"/><path d="M409.48,105.59a15.37,15.37,0,0,1-15.37-15.37v-.47a15.37,15.37,0,0,1,30.73,0v.47A15.37,15.37,0,0,1,409.48,105.59Z"/><path d="M409.73,58a15.81,15.81,0,0,1-15.87-15.88A15.58,15.58,0,0,1,409.54,27h0a15.31,15.31,0,0,1,15.3,15.31h0A15.57,15.57,0,0,1,409.73,58Z"/><path d="M355.78,57.74h-.53a15.37,15.37,0,0,1,0-30.73h.53a15.37,15.37,0,1,1,0,30.73Zm-54,0h-.53a15.37,15.37,0,1,1,0-30.73h.53a15.37,15.37,0,1,1,0,30.73Zm-54,0h-.54a15.37,15.37,0,0,1,0-30.73h.54a15.37,15.37,0,0,1,0,30.73Z"/><path d="M288.55,203.8a15.36,15.36,0,0,1-15.36-15.36v-.26a15.37,15.37,0,0,1,30.73,0v.26A15.36,15.36,0,0,1,288.55,203.8Z"/><path d="M288.8,157a15.79,15.79,0,0,1-15.87-15.87A15.57,15.57,0,0,1,288.61,126h0a15.31,15.31,0,0,1,15.31,15.31h0A15.57,15.57,0,0,1,288.8,157Z"/><path d="M241.5,156.73H241A15.37,15.37,0,0,1,241,126h.47a15.37,15.37,0,1,1,0,30.73Zm-47.26,0h-.47a15.37,15.37,0,0,1,0-30.73h.47a15.37,15.37,0,0,1,0,30.73Zm-47.26,0h-.47a15.37,15.37,0,0,1,0-30.73H147a15.37,15.37,0,0,1,0,30.73Zm-47.26,0h-.47a15.37,15.37,0,1,1,0-30.73h.47a15.37,15.37,0,0,1,0,30.73Z"/><path d="M183.37,73.76a31.38,31.38,0,1,1,31.38-31.38A31.42,31.42,0,0,1,183.37,73.76Zm0-45.35a14,14,0,1,0,14,14A14,14,0,0,0,183.37,28.41Z"/><path d="M36.83,172.74a31.38,31.38,0,1,1,31.38-31.38A31.4,31.4,0,0,1,36.83,172.74Zm0-45.34a14,14,0,1,0,14,14A14,14,0,0,0,36.83,127.4Z"/><rect x="515.02" y="295.95" width="40.05" height="34.96"/><rect x="515.02" y="340.96" width="40.05" height="34.96"/><rect x="565.41" y="340.96" width="40.05" height="34.96"/><rect x="465.11" y="295.95" width="40.05" height="34.96"/><rect x="465.11" y="340.96" width="40.05" height="34.96"/><rect x="415.29" y="295.95" width="40.05" height="34.96"/><rect x="415.29" y="340.96" width="40.05" height="34.96"/><rect x="367.36" y="340.96" width="40.05" height="34.96"/><rect x="515.02" y="250.95" width="40.05" height="34.96"/><path d="M984.35,239.09h87.12a13.27,13.27,0,0,1,13.28,13.28h0a13.28,13.28,0,0,1-13.28,13.29h-58a13.29,13.29,0,0,0-13.28,13.28v18.23a13.29,13.29,0,0,0,13.28,13.28h46a13.29,13.29,0,0,1,13.28,13.29v.12a13.29,13.29,0,0,1-13.28,13.28h-46a13.29,13.29,0,0,0-13.28,13.29v44.09a13.28,13.28,0,0,1-13.29,13.28h-2.58a13.28,13.28,0,0,1-13.29-13.28V252.37A13.28,13.28,0,0,1,984.35,239.09Z"/><path d="M1170.92,290a61.39,61.39,0,0,1,13.29,6.12v-3.88a4.82,4.82,0,0,1,4.82-4.82h10.47a13.28,13.28,0,0,1,13.28,13.28v92.78a13.28,13.28,0,0,1-13.28,13.28H1189a4.82,4.82,0,0,1-4.82-4.82v-3.3a61.39,61.39,0,0,1-13.29,6.12,60.55,60.55,0,0,1-18.34,2.82,60.2,60.2,0,1,1,0-120.4A60.55,60.55,0,0,1,1170.92,290Zm-18.34,25.75a31.72,31.72,0,1,0,22.34,9.29A30.47,30.47,0,0,0,1152.58,315.74Z"/><path d="M1288.85,298.58a54.62,54.62,0,0,1,38.68,93.23,52.69,52.69,0,0,1-38.68,16,54.42,54.42,0,0,1-16.58-2.58,52,52,0,0,1-12-5.53v2.47a4.82,4.82,0,0,1-4.82,4.82h-7.88a13.28,13.28,0,0,1-13.28-13.28V252.21a13.36,13.36,0,0,1,13.36-13.36h0a12.62,12.62,0,0,1,12.62,12.62v55.22a52.38,52.38,0,0,1,12-5.53A54.42,54.42,0,0,1,1288.85,298.58Zm-20.22,34.33a28.8,28.8,0,1,0,20.22-8.35A27.9,27.9,0,0,0,1268.63,332.91Z"/><path d="M1382.82,239.44h86.66a13.29,13.29,0,0,1,13.29,13.28h0A13.29,13.29,0,0,1,1469.48,266h-70.89v44.8h57a13.28,13.28,0,0,1,13.29,13.28h0a13.29,13.29,0,0,1-13.29,13.29h-57v43.85h70.89a13.29,13.29,0,0,1,13.29,13.29h0a13.28,13.28,0,0,1-13.29,13.28h-83.09A16.84,16.84,0,0,1,1369.55,391V252.71A13.27,13.27,0,0,1,1382.82,239.44Z"/><path d="M1562.24,301.4a59.07,59.07,0,0,1,12,5.53V252.25a12.93,12.93,0,0,1,12.93-12.93h0a12.93,12.93,0,0,1,12.94,12.93V393.7A13.29,13.29,0,0,1,1586.81,407h-7.76a4.82,4.82,0,0,1-4.82-4.82v-2.47a52,52,0,0,1-12,5.53,53.67,53.67,0,0,1-16.58,2.58,54.45,54.45,0,0,1-38.45-93,52.37,52.37,0,0,1,38.45-15.87A55.76,55.76,0,0,1,1562.24,301.4Zm-16.58,23.4a28.49,28.49,0,1,0,20.22,8.34A27.79,27.79,0,0,0,1545.66,324.8Z"/><path d="M1621.26,414.62a41.74,41.74,0,0,1-.35-5.52h0a2,2,0,0,1,2-2h22.46a2,2,0,0,1,2,2h0c0,.78,0,1.6.12,2.47a12.38,12.38,0,0,0,.47,2.35,20.71,20.71,0,0,0,10.11,13.52,21.93,21.93,0,0,0,7.29,2.47,22.15,22.15,0,0,0,7.52-.36,20.68,20.68,0,0,0,11.53-7.4,20.43,20.43,0,0,0,4.58-13V394.16a47.34,47.34,0,0,1-54.32-9.05,45.51,45.51,0,0,1-13.87-33.39V334.67a47.23,47.23,0,0,1,59.61-45.73,41.88,41.88,0,0,1,8.58,3.29h0a4.82,4.82,0,0,1,4.82-4.82h8.35a13.28,13.28,0,0,1,13.29,13.28V411.57h-.12A47.67,47.67,0,0,1,1679,455.42a47.07,47.07,0,0,1-18.11.71,45.5,45.5,0,0,1-17.16-6.35,47.21,47.21,0,0,1-13.76-12.7A46.15,46.15,0,0,1,1622.2,420,31.94,31.94,0,0,1,1621.26,414.62Zm32.33-94.53a19.7,19.7,0,0,0-6,14.46v17.17a20.52,20.52,0,0,0,41,0V334.55a19.71,19.71,0,0,0-6-14.46,20.1,20.1,0,0,0-14.58-6A19.74,19.74,0,0,0,1653.59,320.09Z"/><path d="M1775.4,373.12a33.51,33.51,0,0,0,16.1,8.35,35,35,0,0,0,17.76-.83,32.47,32.47,0,0,0,14.69-9.28l.06-.06a2.21,2.21,0,0,1,1.57-.65H1851a2.22,2.22,0,0,1,2,3.17h0a60.2,60.2,0,0,1-22.34,25.05,60.76,60.76,0,0,1-55.14,4.23,60.48,60.48,0,0,1-19-12.58,57.28,57.28,0,0,1-13-18.58,55.28,55.28,0,0,1-4.82-22.57v-1.18q.35-28.44,19.16-45.38a57.32,57.32,0,0,1,19-11.52,62.27,62.27,0,0,1,21.87-3.88h.82c2.35.08,4.74.27,7.17.59A59.5,59.5,0,0,1,1843,306.69q16.35,17.28,16,42.09a58.84,58.84,0,0,1-.7,8.94h0a2.12,2.12,0,0,1-2.11,1.87h-89.71A35.79,35.79,0,0,0,1775.4,373.12ZM1832,337.26a33.38,33.38,0,0,0-3.88-8.11,37.39,37.39,0,0,0-7.88-8.94,34.61,34.61,0,0,0-21.4-7.29,32.18,32.18,0,0,0-21.16,7.29,33.91,33.91,0,0,0-12,17.05Z"/></svg>