<svg xmlns="http://www.w3.org/2000/svg" role="img" viewBox="-3.42 -4.92 363.59 411.84"><style>svg {enable-background:new 0 0 358.4 400.5}</style><path d="M65 114.9l6.1 11.3 3.3 5.9 34.9 64 5.6 10.5 29.2 53.7 32.9 60.4h.1l68.4-123.9 36.1-65.4 39.6-71.7 31.2-56.6h-69.5v.1-.1.1l-11.6 21.2-23.8 43.3-12.4 22.5-22.8 41.4-25.4 46.7-8.7 16 10.5 19.3.2.3-22.5-41.4-15.7-28.9-27.3-50.4-14.1-25.9-35-64.1v-.1H4.5zm17.7 265.9l-.8 3.4h-.3l-.8-3.5-13.9-46.9H53.3l21.9 64.3h13.2l21.9-64.3H96.7zm33.5-30.5h12.9v47.8h-12.9zm0-21.1h12.9v9.7h-12.9zm45 59.6c-.5.1-1.1.1-1.8.1-1.3 0-2.3-.4-3.1-1.2-.8-.8-1.2-2.1-1.2-4v-24.3h8.1v-9.1h-8.1v-11.7h-12.9v11.7h-7v9.1h7v24.4c0 5.3 1.2 9.2 3.6 11.6 2.4 2.4 5.8 3.7 10.3 3.7 1.4 0 2.8-.1 4-.3 1.2-.2 2.5-.6 3.8-1l-1.1-9.3c-.6.1-1.1.2-1.6.3zm29.9-39.4c-6.8 0-12.1 2.2-16 6.8-3.9 4.6-5.8 10.4-5.8 17.6v1.8c0 6.9 2 12.5 6 16.9 4 4.4 9.6 6.6 16.7 6.6 3.9 0 7.4-.5 10.7-1.6 3.3-1.1 5.9-2.4 7.8-3.9l-3.5-8c-2.2 1.2-4.2 2.1-6.3 2.7-2 .6-4.5.9-7.4.9-3.5 0-6.1-1-7.9-3-1.8-2-2.8-4.7-3-8l.1-.3H211v-6.7c0-6.7-1.7-11.9-5.1-15.9-3.5-3.9-8.4-5.9-14.8-5.9zm7.3 19.9h-15.7l-.1-.2c.3-2.9 1.1-5.3 2.5-7.1 1.4-1.8 3.4-2.7 6-2.7s4.4.8 5.6 2.4c1.1 1.6 1.7 3.8 1.7 6.6v1zm54.2 5.6c-2.9-2.3-7.2-4-13.1-5.2-3.8-.7-6.4-1.6-7.6-2.5-1.3-.9-1.9-2.1-1.9-3.6s.6-2.8 1.8-3.8c1.2-1 2.8-1.5 4.9-1.5 2.3 0 4.1.6 5.3 1.8 1.2 1.2 1.9 2.8 1.9 4.7h12.5l.1-.3c.1-4.3-1.6-7.9-5.2-10.8-3.6-2.9-8.5-4.3-14.5-4.3-5.8 0-10.4 1.4-13.9 4.3s-5.2 6.4-5.2 10.5c0 3.9 1.5 7 4.4 9.2 2.9 2.3 7.1 4 12.7 5.1 3.7.8 6.3 1.7 7.6 2.7 1.4 1 2.1 2.2 2.1 3.6 0 1.6-.6 3-1.9 3.9-1.3 1-3.1 1.4-5.5 1.4-2.6 0-4.6-.6-6.2-1.7-1.6-1.1-2.4-3-2.5-5.6h-11.8l-.1.3c-.2 4.1 1.6 7.8 5.3 11 3.7 3.2 8.7 4.8 15.1 4.8 6 0 10.9-1.4 14.6-4.1 3.7-2.7 5.5-6.3 5.5-10.6-.1-3.8-1.6-7-4.4-9.3zm46.6 0c-2.9-2.3-7.2-4-13.1-5.2-3.8-.7-6.4-1.6-7.6-2.5-1.3-.9-1.9-2.1-1.9-3.6s.6-2.8 1.8-3.8c1.2-1 2.8-1.5 4.9-1.5 2.3 0 4.1.6 5.3 1.8 1.2 1.2 1.9 2.8 1.9 4.7H303l.1-.3c.1-4.3-1.6-7.9-5.2-10.8-3.6-2.9-8.5-4.3-14.5-4.3-5.8 0-10.4 1.4-13.9 4.3s-5.2 6.4-5.2 10.5c0 3.9 1.5 7 4.4 9.2 2.9 2.3 7.1 4 12.7 5.1 3.7.8 6.3 1.7 7.6 2.7 1.4 1 2.1 2.2 2.1 3.6 0 1.6-.6 3-1.9 3.9-1.3 1-3.1 1.4-5.5 1.4-2.6 0-4.6-.6-6.2-1.7-1.6-1.1-2.4-3-2.5-5.6h-11.8l-.1.3c-.2 4.1 1.6 7.8 5.3 11 3.7 3.2 8.7 4.8 15.1 4.8 6 0 10.9-1.4 14.6-4.1 3.7-2.7 5.5-6.3 5.5-10.6-.1-3.8-1.5-7-4.4-9.3z"/></svg>