<svg id="svg2" xmlns="http://www.w3.org/2000/svg" xmlns:xlink="http://www.w3.org/1999/xlink" viewBox="0 0 680 181"><defs><style>.cls-1{fill:none;}.cls-2{fill:#fff;}.cls-3{fill:#696566;}.cls-4{clip-path:url(#clip-path);}.cls-5{fill:url(#linear-gradient);}.cls-6{clip-path:url(#clip-path-2);}.cls-7{fill:url(#linear-gradient-2);}.cls-8{clip-path:url(#clip-path-3);}.cls-9{fill:url(#linear-gradient-3);}.cls-10{clip-path:url(#clip-path-4);}.cls-11{fill:url(#linear-gradient-4);}.cls-12{clip-path:url(#clip-path-5);}.cls-13{fill:url(#linear-gradient-5);}.cls-14{clip-path:url(#clip-path-6);}.cls-15{fill:url(#linear-gradient-6);}.cls-16{clip-path:url(#clip-path-7);}.cls-17{fill:url(#linear-gradient-7);}.cls-18{clip-path:url(#clip-path-8);}.cls-19{fill:url(#linear-gradient-8);}</style><clipPath id="clip-path"><polygon class="cls-1" points="88.07 151.07 53.82 135.98 51.91 157.53 89.58 169.5 88.07 151.07"/></clipPath><linearGradient id="linear-gradient" x1="31.14" y1="477.58" x2="32.38" y2="477.58" gradientTransform="matrix(30.43, 0, 0, -30.43, -895.58, 14684.9)" gradientUnits="userSpaceOnUse"><stop offset="0" stop-color="#60b932"/><stop offset="0.28" stop-color="#60b932"/><stop offset="1" stop-color="#367c34"/></linearGradient><clipPath id="clip-path-2"><path class="cls-1" d="M60.52,67.69H79.76V84.1H75.19v-7a5.05,5.05,0,1,0-10.11,0v7H60.52Zm-3.84,35.94L85.22,116.2l-2-24.06H87v-8H84.21V67.69H87V63L71.59,47.91V46.85a1.45,1.45,0,0,0-2.91,0v1.06L53.3,63v4.72h2.77V84.1H53.3v8h4.4Z"/></clipPath><linearGradient id="linear-gradient-2" x1="30.81" y1="476.98" x2="32.05" y2="476.98" gradientTransform="matrix(27.21, 0, 0, -27.21, -785.19, 13061.63)" xlink:href="#linear-gradient"/><clipPath id="clip-path-3"><polygon class="cls-1" points="55.01 122.52 86.88 136.56 86.4 130.71 55.49 117.09 55.01 122.52"/></clipPath><linearGradient id="linear-gradient-3" x1="30.64" y1="476.06" x2="31.88" y2="476.06" gradientTransform="matrix(25.75, 0, 0, -25.75, -733.99, 12385.19)" xlink:href="#linear-gradient"/><clipPath id="clip-path-4"><polygon class="cls-1" points="54.17 131.96 87.71 146.74 87.24 140.89 54.65 126.53 54.17 131.96"/></clipPath><linearGradient id="linear-gradient-4" x1="30.8" y1="476.54" x2="32.04" y2="476.54" gradientTransform="matrix(27.1, 0, 0, -27.1, -780.48, 13049.4)" xlink:href="#linear-gradient"/><clipPath id="clip-path-5"><polygon class="cls-1" points="56.33 107.65 55.84 113.07 86.05 126.38 85.57 120.53 56.33 107.65"/></clipPath><linearGradient id="linear-gradient-5" x1="30.46" y1="475.54" x2="31.7" y2="475.54" gradientTransform="matrix(24.4, 0, 0, -24.4, -687.5, 11720.99)" xlink:href="#linear-gradient"/><clipPath id="clip-path-6"><path class="cls-1" d="M157.28,33.87a87.46,87.46,0,0,0-14.84-14c-.79-.58-1.58-1.15-2.39-1.71l-11.25,11.7L87.71,72.55l56.56-29.27,14.5-7.5C158.28,35.14,157.79,34.49,157.28,33.87Z"/></clipPath><linearGradient id="linear-gradient-6" x1="30.58" y1="484.42" x2="31.82" y2="484.42" gradientTransform="matrix(53.11, -39.33, -39.33, -53.11, 17517.84, 27003.58)" gradientUnits="userSpaceOnUse"><stop offset="0" stop-color="#4596d8"/><stop offset="0.2" stop-color="#4596d8"/><stop offset="1" stop-color="#fff"/></linearGradient><clipPath id="clip-path-7"><path class="cls-1" d="M177.46,88.75c0-1-.07-2-.11-3l-16.07-1.15L87.71,79.36l72.17,25,15.17,5.26c0-.18.1-.36.14-.54a86.63,86.63,0,0,0,2.28-19.69c0-.23,0-.46,0-.69Z"/></clipPath><linearGradient id="linear-gradient-7" x1="33.69" y1="483.36" x2="34.93" y2="483.36" gradientTransform="matrix(76.22, 15.56, 15.56, -76.22, -9999.27, 36398.45)" gradientUnits="userSpaceOnUse"><stop offset="0" stop-color="#4194d7"/><stop offset="0.2" stop-color="#4194d7"/><stop offset="1" stop-color="#fff"/></linearGradient><clipPath id="clip-path-8"><path class="cls-1" d="M175.09,69.3a86.08,86.08,0,0,0-6.9-18.81l-15.43,5L88.83,76l70.83-2.41L175.87,73C175.63,71.78,175.39,70.53,175.09,69.3Z"/></clipPath><linearGradient id="linear-gradient-8" x1="32.22" y1="483.45" x2="33.46" y2="483.45" gradientTransform="matrix(70.22, -12.67, -12.67, -70.22, 3950.15, 34433.63)" gradientUnits="userSpaceOnUse"><stop offset="0" stop-color="#4194d7"/><stop offset="0.33" stop-color="#4496d8"/><stop offset="1" stop-color="#fff"/></linearGradient></defs><title>harbor-horizontal-color</title><g id="g10"><g id="g12"><path id="path14" class="cls-2" d="M16.47,89.44a74.27,74.27,0,1,1,74.27,74.27A74.27,74.27,0,0,1,16.47,89.44"/><path id="path16" class="cls-3" d="M215.22,59.15a3.9,3.9,0,1,1,7.8,0V86.41h39.9V59.15a3.9,3.9,0,1,1,7.8,0v62.22a3.9,3.9,0,1,1-7.8,0V93.72H223v27.65a3.9,3.9,0,1,1-7.8,0V59.15"/><path id="path18" class="cls-3" d="M331.87,99.45,316,64.09l-15.9,35.36ZM283,119.69,311,58.36c1-2.17,2.47-3.46,4.94-3.46h.4a5,5,0,0,1,4.84,3.46l28,61.23a5.26,5.26,0,0,1,.5,2,3.75,3.75,0,0,1-3.75,3.75,4.26,4.26,0,0,1-3.85-2.87l-7.21-15.9H297l-7.21,16.1a3.91,3.91,0,0,1-3.75,2.67,3.54,3.54,0,0,1-3.55-3.56,4.5,4.5,0,0,1,.5-2.07"/><path id="path20" class="cls-3" d="M390.64,91c10.37,0,17.78-5.33,17.78-14.22v-.2c0-8.49-6.52-13.63-17.68-13.63H369.4V91Zm-29-31.31a3.94,3.94,0,0,1,3.85-4h25.87c8.5,0,15.31,2.57,19.66,6.91a19.09,19.09,0,0,1,5.33,13.63v.2c0,11.36-7.7,18-18.47,20.05L415,118.61a4.25,4.25,0,0,1,1.28,2.87,4.08,4.08,0,0,1-4,3.85,4.55,4.55,0,0,1-3.65-2.07L389.26,98H369.4v23.41a3.9,3.9,0,1,1-7.8,0V59.64"/><path id="path22" class="cls-3" d="M460.87,117.82c10.47,0,17-4.64,17-12.34v-.2c0-7.51-6.32-11.85-18.37-11.85H437.66v24.4ZM458.1,86.51c9.38,0,15.9-4.25,15.9-12.35V74c0-6.81-5.43-11.26-15.31-11.26h-21v23.8ZM430,59.64a3.94,3.94,0,0,1,3.85-4h25.58c7.9,0,14.12,2.27,18.07,6.12a15.36,15.36,0,0,1,4.44,11.06v.2c0,9-5.53,13.63-11,16,8.2,2.47,14.81,7.21,14.81,16.69v.2c0,11.85-10,18.86-25.09,18.86H433.81a3.94,3.94,0,0,1-3.85-3.95V59.64"/><path id="path24" class="cls-3" d="M557.57,90.46v-.2c0-15.7-11.46-28.54-27.26-28.54s-27.06,12.64-27.06,28.34v.2c0,15.7,11.46,28.54,27.26,28.54S557.57,106.16,557.57,90.46Zm-62.42,0v-.2c0-19.06,14.32-35.75,35.36-35.75S565.66,71,565.66,90.06v.2c0,19.06-14.32,35.75-35.36,35.75s-35.16-16.5-35.16-35.56"/><path id="path26" class="cls-3" d="M608.14,91c10.37,0,17.78-5.33,17.78-14.22v-.2c0-8.49-6.52-13.63-17.68-13.63H586.91V91Zm-29-31.31a3.94,3.94,0,0,1,3.85-4h25.87c8.5,0,15.31,2.57,19.66,6.91a19.09,19.09,0,0,1,5.33,13.63v.2c0,11.36-7.7,18-18.47,20.05l17.19,22.12a4.25,4.25,0,0,1,1.28,2.87,4.08,4.08,0,0,1-4,3.85,4.55,4.55,0,0,1-3.65-2.07L606.76,98H586.91v23.41a3.9,3.9,0,1,1-7.8,0V59.64"/><path id="path28" class="cls-3" d="M657,56.13a1.21,1.21,0,0,1,1.27-1.27h.34a1.32,1.32,0,0,1,1.15.64L666,65.17l6.34-9.67a1.31,1.31,0,0,1,1.09-.64h.34A1.27,1.27,0,0,1,675,56.13V71.68a1.28,1.28,0,0,1-1.27,1.27,1.23,1.23,0,0,1-1.21-1.27v-12l-5.36,8a1.26,1.26,0,0,1-2.3,0l-5.3-8v12a1.27,1.27,0,1,1-2.53,0Zm-12.15,1.21H640.1a1.21,1.21,0,1,1,0-2.42h12a1.21,1.21,0,1,1,0,2.42h-4.72V71.68a1.29,1.29,0,0,1-1.32,1.27,1.23,1.23,0,0,1-1.21-1.27V57.34"/><g id="g30"><g class="cls-4"><g id="g32"><path id="path46" class="cls-5" d="M88.07,151.07,53.82,136l-1.91,21.55,37.66,12-1.51-18.43"/></g></g></g><g id="g48"><g class="cls-6"><g id="g50"><path id="path64" class="cls-7" d="M60.52,67.69H79.76V84.1H75.19v-7a5.05,5.05,0,1,0-10.11,0v7H60.52Zm-3.84,35.94L85.22,116.2l-2-24.06H87v-8H84.21V67.69H87V63L71.59,47.91V46.85a1.45,1.45,0,0,0-2.91,0v1.06L53.3,63v4.72h2.77V84.1H53.3v8h4.4l-1,11.49"/></g></g></g><g id="g66"><g class="cls-8"><g id="g68"><path id="path82" class="cls-9" d="M55,122.51l31.87,14-.48-5.85L55.49,117.09,55,122.51"/></g></g></g><g id="g84"><g class="cls-10"><g id="g86"><path id="path100" class="cls-11" d="M54.17,132l33.54,14.78-.48-5.85L54.65,126.53,54.17,132"/></g></g></g><g id="g102"><g class="cls-12"><g id="g104"><path id="path118" class="cls-13" d="M56.32,107.65l-.48,5.43L86,126.38l-.48-5.85L56.32,107.65"/></g></g></g><path id="path120" class="cls-3" d="M152.76,55.45l15.43-5c-.06-.11-.1-.22-.16-.33a87,87,0,0,0-9.26-14.38l-14.5,7.5a71.2,71.2,0,0,1,8.34,11.91l.14.26"/><path id="path122" class="cls-3" d="M161.28,84.64l16.07,1.15A86.24,86.24,0,0,0,175.87,73l-16.22.55a70.33,70.33,0,0,1,1.62,11.06"/><path id="path124" class="cls-3" d="M90.74,160.19A70.75,70.75,0,1,1,128.79,29.83L140,18.13a86.72,86.72,0,1,0,35,91.54l-15.17-5.26a70.87,70.87,0,0,1-69.15,55.79"/><g id="g126"><g class="cls-14"><g id="g128"><path id="path142" class="cls-15" d="M157.28,33.87a87.46,87.46,0,0,0-14.84-14c-.79-.58-1.58-1.15-2.39-1.71l-11.25,11.7L87.71,72.55l56.56-29.27,14.5-7.5c-.5-.64-1-1.29-1.5-1.91"/></g></g></g><g id="g144"><g class="cls-16"><g id="g146"><path id="path160" class="cls-17" d="M177.46,88.75c0-1-.07-2-.11-3l-16.07-1.15L87.71,79.36l72.17,25,15.17,5.26c0-.18.1-.36.14-.54a86.63,86.63,0,0,0,2.28-19.69c0-.23,0-.46,0-.69"/></g></g></g><g id="g162"><g class="cls-18"><g id="g164"><path id="path178" class="cls-19" d="M175.09,69.3a86.08,86.08,0,0,0-6.9-18.81l-15.43,5L88.83,76l70.83-2.41L175.87,73c-.24-1.25-.49-2.5-.78-3.73"/></g></g></g></g></g></svg>