<?xml version="1.0" encoding="UTF-8"?>
<svg id="Layer_1" xmlns="http://www.w3.org/2000/svg" version="1.1" viewBox="0 0 456.7 511.6">
  <!-- Generator: Adobe Illustrator 30.3.0, SVG Export Plug-In . SVG Version: 2.1.3 Build 182)  -->
  <g>
    <g>
      <path d="M112.7,404.6c0,1.7-.8,3.3-2.3,4.1-4.3,2.5-9.7,2.5-14.1,0-1.5-.8-2.4-2.4-2.3-4.2v-35.9h-12.9v35.6c-.2,5.6,2.5,10.7,7.1,13.7,4.5,3.1,9.8,4.7,15.1,4.7,5.3,0,10.5-1.5,15-4.6,4.6-3,7.4-8.3,7.2-13.8v-35.6h-12.9v35.9Z"/>
      <path d="M176.7,376.1c-1.8-2.7-4.3-5-7.2-6.4-3.2-1.6-6.8-2.4-10.4-2.4-3.9,0-7.8.7-11.5,1.7v-24.3h-12.9v76.6h17.2s0,0,.1,0c10,0,17.4-2.4,22.2-7.2,4.8-4.8,7.3-11.8,7.3-20.8,0-3-.4-6-1.2-9-.8-2.9-2-5.7-3.6-8.3ZM152,409.2h-4.4s0-28.3,0-28.3c3.7-1.2,7.5-1.7,11.4-1.6h0s0,0,0,0c2.8-.1,5.4,1.2,6.8,3.7,1.8,3,2.7,6.5,2.7,10,0,5.9-1.3,10.1-3.8,12.5-2.5,2.5-6.8,3.7-12.8,3.7Z"/>
      <polygon points="77.7 349.6 61.8 349.6 34.6 380.6 34.6 349.6 21.3 349.6 21.3 421.3 34.6 421.3 34.6 398.6 40.8 391.6 63.6 421.3 79.7 421.3 49.5 381.5 77.7 349.6"/>
      <path d="M233.9,397.9c0-14-3.9-30.6-22.3-30.6-6.9-.3-13.5,2.5-18,7.7-4.5,5-6.7,11.7-6.7,20,0,3.5.5,7.1,1.5,10.5,1.1,3.3,2.7,6.2,4.9,8.9,2.4,2.8,5.4,5,8.8,6.3,3.8,1.5,7.7,2.2,11.7,2.2h0c.2,0,.5,0,.7,0,5.4,0,10.6-1,15.6-3l1.5-.6v-12.7l-3.3,1.4c-4.6,2-9.7,2.9-14.8,2.8h0c-4.6,0-7.8-1.2-9.9-3.8-1.7-1.9-2.8-4.2-3.4-6.6h33.7v-2.4ZM200.5,389.3c.6-2.5,1.8-4.8,3.5-6.7,1.9-2.1,4.6-3.3,7.5-3.3h0s0,0,0,0c2.5-.1,4.9,1,6.3,3.1,1.4,2.1,2.3,4.5,2.8,7h-20.3Z"/>
      <path d="M350.4,372.5c-11.6-11-30.1-10.6-41.1,1.1-5.3,5.6-8.2,13-8,20.8.2,7.8,3.4,15,9,20.3,5.1,5.1,12.1,8,19.2,8s.6,0,.9,0c7.9,0,15.6-3.3,21.1-9.1,11-11.6,10.6-30.1-1.1-41.1ZM341.4,406.2c-6.1,5.9-15.9,5.9-21.9,0-5.5-6.4-5.5-16,0-22.5,6.1-5.9,15.9-5.9,21.9,0,5.5,6.4,5.5,16,0,22.4Z"/>
      <path d="M250.8,349c-2.8,2.9-4.3,6.8-4.1,10.7v9h-7.5v12.1h7.5v40.5h12.9v-40.6h12.7v-12.1h-12.7v-4.6c0-4.2.8-5.6,1.1-6,.2-.3,1.1-1.1,4.7-1.1h9.9v-12.1h-14.1c-3.8,0-7.6,1.4-10.3,4.1Z"/>
      <rect x="281" y="344.7" width="12.9" height="76.6"/>
      <polygon points="421.8 368.7 412.5 400.4 403.4 368.7 391.8 368.7 382.5 400.4 373.3 368.7 359.7 368.7 376.2 421.3 389.5 421.3 397.8 391.2 406.2 421.3 418.9 421.3 435.4 368.7 421.8 368.7"/>
    </g>
    <path d="M74.9,223.7l76,94.5c4,5,10,7.8,16.4,7.8h121.8c6.4,0,12.4-2.9,16.4-7.8l75.9-94.5c4-5,5.5-11.4,4.1-17.6l-27.1-117.8c-1.4-6.2-5.6-11.4-11.4-14.1l-109.8-52.4c-3.2-1.5-6.7-2.2-10.2-2-2.8.1-5.5.8-8,2l-109.8,52.4c-5.8,2.7-9.9,7.9-11.4,14.1l-27.1,117.8c-1.3,5.5-.2,11.2,2.8,16,.4.6.8,1.1,1.2,1.6ZM78.8,206.3c0-.7.2-1.3.3-1.9l25.7-111.6c1.3-5.9,5.3-10.8,10.8-13.4l104-49.7c2.4-1.1,5-1.8,7.6-1.9h0c3.3-.2,6.6.5,9.6,1.9l104,49.7c5.5,2.6,9.4,7.5,10.8,13.4l25.7,111.6c.5,2.2.6,4.4.4,6.6-.4,3.6-1.9,7.1-4.2,10.1h0s-71.9,89.5-71.9,89.5c-3.8,4.7-9.5,7.4-15.5,7.4h-115.4c-6,0-11.8-2.7-15.5-7.4l-72-89.5c-.4-.5-.8-1-1.1-1.6-2.6-3.9-3.6-8.6-3-13.2Z"/>
    <path d="M198.9,207.4l-42.1-12.1c-4.3-1.5-3.8-8.2.7-9,1.3-.2,2.1,0,3.3.3,13.5,2.9,27.3,8.6,40.8,11.8,5.4,2.4,2.9,10-2.7,9ZM160,131.8c1.6-.3,2.3.1,3.7.5,13.9,4.1,28,11.3,41.9,15.8,5.2,2.6,2.5,10.1-3.2,8.8l-43.3-16.2c-4.1-1.7-3.5-8.1.9-8.9ZM157.2,160.3c1.8-.3,3.9.6,5.6,1.1,13.9,4,27.6,9.5,41.5,13.6,5.1,2.5,2.6,10-3,8.9l-45.1-14.7c-4.1-1.7-3.5-8.1.9-8.9Z"/>
    <path d="M114.1,224.9c.9,2.6,2.8,4.4,5.4,5.2l93.3,24.1c9.7,8.3,19.2,8,29,0l93.2-24c3.1-1.1,5.4-3.9,5.6-7.3v-102.1c-2.4-9.9-13.7-1.9-19.4.1v-15.5c0-3.2-4.3-6.1-7.3-6.1-3.5,0-10.9,2-14.7,2.9-27.1,6-53.9,16.4-71.8,38.4-13.8-16.2-32.7-26.8-52.9-33.3-8.7-2.8-18-5.1-27-6.8-4.6-.9-10.1-2.7-13.2,2.1-.4.6-1.3,2.7-1.3,3.4v14.9c-5.4-2.3-16.4-9.6-19.1-.4.1,34.7-.4,69.6.3,104.3ZM232.2,149.7c1.3-7.7,20.8-20.5,27.6-24.1,11.8-6.4,31.7-13.8,45-15.4,3.7-.5,6.2.9,6.7,4.8v92.1c0,2.3-1.3,4.5-3.6,5.2-26,5-51.1,14.8-71.8,31.6l-3.9,3.8v-97.9ZM142.9,114.9c.4-3.7,2.9-5.1,6.4-4.8,11.7,1.1,32.5,8.7,43.1,14.2,6.5,3.4,29.7,17.9,29.7,25.7v97.6c-1.1-1-2.2-2.1-3.3-3.1-20.3-17.4-46.9-26.9-72.8-32.4-1.8-1-3.3-2.8-3.1-5v-92.1Z"/>
    <path d="M156.3,169.2l45.1,14.7c5.6,1.1,8.1-6.4,3-8.9-13.8-4.2-27.6-9.6-41.5-13.6-1.8-.5-3.8-1.4-5.6-1.1-4.4.8-5,7.2-.9,8.9Z"/>
    <path d="M159.1,140.7l43.3,16.2c5.7,1.3,8.4-6.2,3.2-8.8-13.9-4.4-28-11.7-41.9-15.8-1.4-.4-2.1-.8-3.7-.5-4.4.8-5,7.2-.9,8.9Z"/>
    <path d="M201.6,198.4c-13.5-3.2-27.4-8.9-40.8-11.8-1.2-.3-1.9-.6-3.3-.3-4.5.8-5,7.5-.7,9l42.1,12.1c5.7,1,8.1-6.6,2.7-9Z"/>
    <path d="M243,198.3c1.4,3.9,4.5,6.3,8.7,6.6,13.2,1,27.7-.8,41.1,0,4.3-.1,8.1-3.3,8.6-7.7v-45.7c-.1-1.2-.9-3-1.7-3.9-1.4-1.6-2.6-1.8-4.3-2.5-.2,0-.3-.4-.4-.5-.7-.3-1.1-.4-1.9-.5-13.5-1-28.3.8-42,0-4.2.6-7.3,3.3-8.3,7.3.2,15.6-.3,31.2.2,46.8ZM253.5,185.7c.4-.3,1.8-.8,1.8-.9.2-.3,0-4.2.6-5.8.7-1.9,3.8-4.8,5.9-4.8s6.7.4,8.1,0c.7-.2.1-1.2.1-1.7,0-1.6.3-5.2,0-6.5,0-.2-2-1.1-2.7-1.8-4.9-5.2.8-13.4,7.6-10.7,5.3,2.1,5.5,9.3.6,12-.4.2-1.2.2-1.2.2v8.5h8.3c3,0,6.2,3.7,6.7,6.5.1.8,0,4,.1,4.1,0,0,.8,0,1.1.3,7,4,2.9,14.1-4.7,12.3-5.4-1.3-6.7-8.4-2.4-11.7.4-.3,1.8-.7,1.9-1,.4-1.8-.2-4.9-2.2-5.6l-20.5-.2c-2.8.2-3.9,3.4-3.3,5.7,0,.2,1.6.8,2,1.2,4.2,3.3,3.1,10-2,11.4-7.2,2.1-12.1-7-5.9-11.6Z"/>
  </g>
  <g>
    <path d="M273.9,468.1c-1.4-.8-3.4-1.2-6-1.2h-5.7v10.3c.7,0,1.4.1,2.1.2.8,0,1.6,0,2.5,0,2.7,0,4.9-.4,6.5-1.2,1.7-.8,2.5-2.2,2.5-4.3s-.7-3.2-2.1-4Z"/>
    <path d="M272.7,458.9c1.2-.7,1.8-1.9,1.8-3.4s-.6-2.8-1.9-3.4c-1.2-.7-3-1-5.4-1s-1.6,0-2.5,0-1.7,0-2.4.1v8.7h4.4c2.8,0,4.8-.4,6-1.1Z"/>
    <path d="M20.8,437v54.9h414.7v-54.9H20.8ZM203.4,484.3h-9v-17h-15.1v17h-9v-40.1h9v15.3h15.1v-15.3h9v40.1ZM244.9,469.2c0,2.4-.3,4.5-1,6.5-.7,2-1.7,3.7-3,5.1-1.3,1.4-3.1,2.5-5.1,3.3s-4.5,1.2-7.4,1.2-5.2-.4-7.3-1.2c-2-.8-3.7-1.9-5.1-3.3-1.3-1.4-2.3-3.1-2.9-5-.6-1.9-1-4.1-1-6.4v-24.9h9v24.2c0,1.6.2,3,.5,4.1.4,1.1.9,2.1,1.5,2.8.6.7,1.4,1.2,2.3,1.5.9.3,1.9.5,3,.5,2.2,0,4-.7,5.3-2,1.4-1.3,2.1-3.6,2.1-6.9v-24.2h9v24.9ZM280.6,481.7c-3.1,2.1-7.6,3.2-13.7,3.2s-4.4,0-6.6-.2c-2.2-.1-4.4-.5-6.8-1v-38.8c1.8-.3,3.9-.6,6.1-.8,2.2-.2,4.2-.3,6.1-.3s4.9.2,7,.5c2.1.4,4,1,5.5,1.9,1.5.9,2.7,2.1,3.6,3.5s1.3,3.2,1.3,5.3c0,3.2-1.5,5.7-4.6,7.6,2.5,1,4.3,2.3,5.2,3.9.9,1.7,1.4,3.5,1.4,5.6,0,4.2-1.5,7.4-4.6,9.5Z"/>
  </g>
  <metadata>
    <sfw xmlns="http://ns.adobe.com/SaveForWeb/1.0/">
      <slices/>
      <sliceSourceBounds x="47" y="-175.26" width="1410.03" height="473.07" bottomLeftOrigin="true"/>
    </sfw>
  </metadata>
</svg>