<?xml version="1.0" encoding="utf-8"?>
<!-- Generator: Adobe Illustrator 27.1.1, SVG Export Plug-In . SVG Version: 6.00 Build 0)  -->
<svg version="1.1" id="Layer_1" xmlns="http://www.w3.org/2000/svg" xmlns:xlink="http://www.w3.org/1999/xlink" x="0px" y="0px"
	 viewBox="0 0 295 76" style="enable-background:new 0 0 295 76;" xml:space="preserve">
<style type="text/css">
	.st0{fill:#FFFFFF;}
	.st1{fill:#2916FC;}
	.st2{fill:url(#SVGID_1_);}
	.st3{opacity:0.68;fill:#FFFFFF;enable-background:new    ;}
	.st4{fill:#0C162D;}
</style>
<path class="st0" d="M53.2,1.7c0.6,0,1.1,0.1,1.6,0.4s0.9,0.7,1.2,1.2l16.1,27.9c0.3,0.5,0.4,1,0.4,1.6c0,0.6-0.1,1.1-0.4,1.6
	L56,62.3c-0.3,0.5-0.7,0.9-1.2,1.2c-0.5,0.3-1,0.4-1.6,0.4H21c-0.6,0-1.1-0.2-1.6-0.4c-0.5-0.3-0.9-0.7-1.2-1.2L2.1,34.4
	c-0.3-0.5-0.4-1-0.4-1.6c0-0.6,0.1-1.1,0.4-1.6L18.2,3.3c0.3-0.5,0.7-0.9,1.2-1.2s1-0.4,1.6-0.4L53.2,1.7L53.2,1.7z M53.2,0H21
	c-0.9,0-1.7,0.2-2.4,0.7c-0.7,0.4-1.3,1-1.8,1.8L0.7,30.4C0.2,31.1,0,31.9,0,32.8c0,0.9,0.2,1.7,0.7,2.4l16.1,27.9
	c0.4,0.7,1,1.4,1.8,1.8c0.7,0.4,1.6,0.7,2.4,0.7h32.2c0.9,0,1.7-0.2,2.4-0.7c0.7-0.4,1.4-1,1.8-1.8l16.1-27.9
	c0.4-0.7,0.7-1.6,0.7-2.4c0-0.9-0.2-1.7-0.7-2.4L57.4,2.4c-0.4-0.7-1-1.4-1.8-1.8C54.9,0.2,54.1,0,53.2,0L53.2,0z"/>
<path class="st1" d="M21,64.8c-0.7,0-1.4-0.2-2-0.5s-1.1-0.9-1.5-1.5L1.4,34.9c-0.4-0.6-0.5-1.3-0.5-2c0-0.7,0.2-1.4,0.5-2L17.5,2.9
	c0.4-0.6,0.9-1.1,1.5-1.5c0.6-0.4,1.3-0.5,2-0.5h32.3c0.7,0,1.4,0.2,2,0.5c0.6,0.4,1.1,0.9,1.5,1.5l16.1,27.9c0.4,0.6,0.5,1.3,0.5,2
	c0,0.7-0.2,1.4-0.5,2L56.8,62.8c-0.4,0.6-0.9,1.1-1.5,1.5s-1.3,0.5-2,0.5H21z"/>
<path class="st0" d="M53.3,1.7c0.6,0,1.1,0.1,1.6,0.4c0.5,0.3,0.9,0.7,1.2,1.2l16.1,27.9c0.3,0.5,0.4,1,0.4,1.6
	c0,0.6-0.1,1.1-0.4,1.6L56.1,62.4c-0.3,0.5-0.7,0.9-1.2,1.2c-0.5,0.3-1,0.4-1.6,0.4H21c-0.6,0-1.1-0.2-1.6-0.4
	c-0.5-0.3-0.9-0.7-1.2-1.2L2.1,34.4c-0.3-0.5-0.4-1-0.4-1.6c0-0.6,0.1-1.1,0.4-1.6L18.2,3.3c0.3-0.5,0.7-0.9,1.2-1.2
	c0.5-0.3,1-0.4,1.6-0.4L53.3,1.7L53.3,1.7z M53.3,0H21c-0.9,0-1.7,0.2-2.4,0.7c-0.7,0.4-1.4,1-1.8,1.8L0.7,30.4
	C0.2,31.1,0,32,0,32.8c0,0.9,0.2,1.7,0.7,2.4l16.1,27.9c0.4,0.7,1,1.4,1.8,1.8c0.7,0.4,1.6,0.7,2.4,0.7h32.3c0.9,0,1.7-0.2,2.4-0.7
	c0.7-0.4,1.4-1,1.8-1.8l16.1-27.9c0.4-0.7,0.7-1.6,0.7-2.4c0-0.9-0.2-1.7-0.7-2.4L57.5,2.4c-0.4-0.7-1-1.4-1.8-1.8
	C55,0.2,54.1,0,53.3,0L53.3,0z"/>
<path class="st0" d="M35.2,16.2v32.2c0,0.4-0.2,0.9-0.5,1.2c-0.3,0.3-0.7,0.5-1.2,0.5h-6.2c-0.4,0-0.9-0.2-1.2-0.5
	c-0.3-0.3-0.5-0.7-0.5-1.2V16.2c0-0.4,0.2-0.9,0.5-1.2c0.3-0.3,0.7-0.5,1.2-0.5h6.2c0.4,0,0.9,0.2,1.2,0.5
	C35,15.4,35.2,15.8,35.2,16.2z M52.3,17.2L44,29.6c-0.2,0.3-0.3,0.6-0.3,0.9c0,0.3,0.1,0.6,0.2,0.9l9.6,16.3
	c0.1,0.3,0.2,0.5,0.2,0.8c0,0.3-0.1,0.6-0.2,0.8c-0.1,0.3-0.4,0.5-0.6,0.6c-0.2,0.1-0.5,0.2-0.8,0.2h-7c-0.3,0-0.6-0.1-0.8-0.2
	c-0.3-0.1-0.5-0.4-0.6-0.6l-9.5-17.2c-0.1-0.3-0.2-0.6-0.2-0.8c0-0.3,0.1-0.6,0.3-0.8l9.5-15c0.1-0.2,0.4-0.4,0.6-0.6
	c0.2-0.1,0.5-0.2,0.8-0.2H51c0.3,0,0.6,0.1,0.8,0.2c0.3,0.2,0.5,0.4,0.6,0.6c0.1,0.3,0.2,0.6,0.2,0.8C52.6,16.6,52.5,16.9,52.3,17.2
	L52.3,17.2z"/>
<linearGradient id="SVGID_1_" gradientUnits="userSpaceOnUse" x1="45.3027" y1="31.6343" x2="71.8195" y2="31.6343" gradientTransform="matrix(1 0 0 -1 0 78)">
	<stop  offset="0" style="stop-color:#FF7879"/>
	<stop  offset="0.21" style="stop-color:#FC777B"/>
	<stop  offset="0.36" style="stop-color:#F27281"/>
	<stop  offset="0.5" style="stop-color:#E26B8A"/>
	<stop  offset="0.63" style="stop-color:#CB6098"/>
	<stop  offset="0.75" style="stop-color:#AE52AA"/>
	<stop  offset="0.86" style="stop-color:#8A41C0"/>
	<stop  offset="0.98" style="stop-color:#602EDA"/>
	<stop  offset="1" style="stop-color:#5529E0"/>
</linearGradient>
<path class="st2" d="M71.8,38.6L59.6,59.8H53l-6-10.4l-1.8-3.1l3-5.2l2.5-4.3l2.2-3.9h15.5L71.8,38.6z"/>
<path class="st3" d="M51.8,50.1h-5.9l-0.4-0.7l-1.8-3.1l3-5.2l1.3-2.2l5.1,8.7c0.1,0.3,0.2,0.5,0.2,0.8c0,0.3-0.1,0.6-0.2,0.8
	c-0.1,0.3-0.4,0.5-0.6,0.6C52.4,50,52.1,50.1,51.8,50.1L51.8,50.1z"/>
<path class="st4" d="M82,44.7c-0.1-0.4-0.3-0.7-0.5-1.1L74.8,32L74,30.7l-0.5-0.9c-0.2-0.4-0.5-0.8-0.9-1.1c-1-1-2.4-1.6-3.8-1.6
	H52.8c-0.8,0-1.5,0.2-2.2,0.5c-0.7,0.3-1.3,0.8-1.8,1.4c-0.2,0.2-0.4,0.5-0.6,0.8l-3.2,5.5l-4.8,8.4c0,0,0,0.1,0,0.1
	c-0.4,0.8-0.7,1.7-0.7,2.7c0,0.9,0.3,1.8,0.7,2.6l8,13.9c0.4,0.8,1,1.4,1.8,1.8c0.7,0.5,1.6,0.7,2.4,0.8c0.1,0,0.3,0,0.4,0h16.1
	c0.2,0,0.4,0,0.5,0l5.7,9.1c0.3,0.5,0.8,0.9,1.4,1c0.6,0.1,1.2,0,1.7-0.3l0.3-0.2c0.5-0.3,0.9-0.8,1-1.4c0.1-0.6,0-1.2-0.3-1.7
	l-5.8-9.2l8-13.8c0.4-0.6,0.6-1.4,0.7-2.1C82.3,46.2,82.2,45.4,82,44.7L82,44.7z M74.5,49.4l-6,10.4H53.1l0-0.1l-5.9-10.3l-1.8-3.1
	l3-5.2l2.5-4.3L53,33h15.6l3.2,5.6l4.5,7.8L74.5,49.4z"/>
<path class="st1" d="M96,48.2c-0.3,0-0.5-0.1-0.7-0.3c-0.2-0.2-0.3-0.4-0.3-0.7V21.7c0-0.3,0.1-0.5,0.2-0.7c0.2-0.2,0.4-0.3,0.7-0.3
	h3.5c0.3,0,0.5,0.1,0.7,0.3c0.2,0.2,0.3,0.4,0.3,0.7v9.2l8.9-9.4c0.3-0.5,0.9-0.7,1.5-0.7h3.9c0.2,0,0.4,0.1,0.6,0.2
	c0.2,0.2,0.3,0.4,0.3,0.6c0,0.2-0.1,0.3-0.2,0.5l-10.8,11.8l11.6,13c0.1,0.2,0.2,0.3,0.2,0.5c0,0.2-0.1,0.4-0.3,0.6
	c-0.2,0.2-0.3,0.2-0.6,0.2h-4.1c-0.7,0-1.2-0.2-1.5-0.7l-9.5-10.4v10.1c0,0.3-0.1,0.5-0.3,0.7c-0.2,0.2-0.4,0.2-0.7,0.2H96z"/>
<path class="st1" d="M125.8,48.5c-2.4,0-4.3-0.8-5.7-2.4c-1.4-1.6-2.1-3.7-2.1-6.5v-11c0-0.3,0.1-0.5,0.3-0.7s0.4-0.3,0.7-0.3h3.5
	c0.3,0,0.5,0.1,0.7,0.3c0.2,0.2,0.3,0.4,0.3,0.7v10.8c0,3.2,1.4,4.9,4.3,4.9c1.4,0,2.4-0.4,3.2-1.3c0.8-0.9,1.2-2.1,1.2-3.6V28.7
	c0-0.3,0.1-0.5,0.3-0.7c0.2-0.2,0.4-0.3,0.7-0.3h3.5c0.3,0,0.5,0.1,0.7,0.3c0.2,0.2,0.3,0.4,0.3,0.7v18.5c0,0.3-0.1,0.5-0.3,0.7
	c-0.2,0.2-0.4,0.3-0.7,0.3h-3.2c-0.3,0-0.5-0.1-0.7-0.3c-0.2-0.2-0.3-0.4-0.3-0.7v-1.6C130.9,47.6,128.7,48.5,125.8,48.5z"/>
<path class="st1" d="M153.5,48.5c-2.7,0-4.8-0.9-6.3-2.8v1.4c0,0.3-0.1,0.5-0.3,0.7c-0.2,0.2-0.4,0.3-0.7,0.3h-3.1
	c-0.3,0-0.5-0.1-0.7-0.3c-0.2-0.2-0.3-0.4-0.3-0.7V21.3c0-0.3,0.1-0.5,0.3-0.7c0.2-0.2,0.4-0.3,0.7-0.3h3.3c0.3,0,0.5,0.1,0.7,0.3
	c0.2,0.2,0.3,0.4,0.3,0.7V30c1.5-1.7,3.5-2.6,6.1-2.6c2.7,0,4.7,0.9,6.1,2.6c1.4,1.7,2.2,4,2.3,6.7c0,0.3,0,0.7,0,1.3
	c0,0.5,0,1,0,1.3c-0.1,2.8-0.9,5.1-2.3,6.8C158.2,47.7,156.1,48.5,153.5,48.5z M152,44.4c2.8,0,4.3-1.7,4.5-5.2c0-0.3,0-0.7,0-1.2
	c0-0.5,0-0.9,0-1.2c-0.2-3.5-1.7-5.2-4.5-5.2c-1.5,0-2.6,0.5-3.4,1.4c-0.8,0.9-1.2,2-1.2,3.3l0,1.5l0,1.5c0.1,1.4,0.5,2.6,1.2,3.6
	C149.4,43.9,150.5,44.4,152,44.4z"/>
<path class="st1" d="M175.1,48.5c-2.9,0-5.2-0.8-7-2.5c-1.7-1.7-2.6-4.1-2.7-7.1l0-1l0-1c0.1-3,1.1-5.3,2.8-7c1.7-1.7,4-2.5,6.9-2.5
	c3.1,0,5.5,0.9,7.2,2.8c1.7,1.9,2.6,4.4,2.6,7.5v0.8c0,0.3-0.1,0.5-0.3,0.7c-0.2,0.2-0.4,0.3-0.7,0.3h-13.1v0.3
	c0.1,1.4,0.4,2.7,1.2,3.6c0.8,1,1.8,1.4,3.1,1.4c1.5,0,2.8-0.6,3.7-1.8c0.2-0.3,0.4-0.5,0.6-0.5c0.2-0.1,0.4-0.1,0.7-0.1h3.4
	c0.2,0,0.4,0.1,0.6,0.2c0.2,0.1,0.3,0.3,0.3,0.5c0,0.6-0.4,1.4-1.1,2.2c-0.7,0.8-1.8,1.6-3.2,2.2C178.6,48.2,177,48.5,175.1,48.5z
	 M179.5,36.2v-0.1c0-1.5-0.4-2.8-1.2-3.7c-0.8-0.9-1.8-1.4-3.2-1.4c-1.4,0-2.4,0.5-3.2,1.4c-0.8,0.9-1.1,2.2-1.1,3.7v0.1H179.5z"/>
<path class="st1" d="M196.8,48.5c-2,0-3.6-0.3-5-0.9c-1.3-0.6-2.3-1.3-3-2.1c-0.6-0.8-0.9-1.5-0.9-2.1c0-0.3,0.1-0.5,0.3-0.6
	c0.2-0.2,0.4-0.2,0.6-0.2h3.1c0.2,0,0.4,0.1,0.6,0.3c0.1,0.1,0.4,0.3,0.8,0.7c0.4,0.4,1,0.7,1.6,1c0.6,0.2,1.3,0.4,2,0.4
	c1,0,1.9-0.2,2.6-0.6c0.7-0.4,1-1,1-1.7c0-0.5-0.2-1-0.5-1.3c-0.3-0.3-0.8-0.6-1.6-0.9c-0.8-0.3-2-0.6-3.5-0.9
	c-2.2-0.5-3.9-1.2-5-2.2c-1.1-1-1.6-2.2-1.6-3.8c0-1,0.3-2,0.9-2.9c0.6-0.9,1.6-1.7,2.8-2.3c1.3-0.6,2.8-0.9,4.5-0.9
	c1.8,0,3.3,0.3,4.6,0.9c1.3,0.5,2.3,1.2,2.9,2c0.7,0.8,1,1.4,1,2c0,0.2-0.1,0.4-0.3,0.6c-0.2,0.2-0.4,0.2-0.6,0.2h-2.9
	c-0.2,0-0.4-0.1-0.7-0.3c-0.2-0.1-0.5-0.4-0.9-0.7c-0.4-0.4-0.9-0.7-1.4-0.9c-0.5-0.2-1.1-0.3-1.9-0.3c-1,0-1.7,0.2-2.3,0.6
	c-0.5,0.4-0.8,1-0.8,1.6c0,0.5,0.1,0.9,0.4,1.2c0.3,0.3,0.8,0.6,1.5,0.9c0.8,0.3,1.9,0.6,3.4,0.9c2.5,0.5,4.3,1.3,5.4,2.3
	c1.1,1,1.7,2.3,1.7,3.8c0,1.8-0.8,3.3-2.4,4.5C201.9,48,199.7,48.5,196.8,48.5z"/>
<path class="st1" d="M218.8,48.5c-2.9,0-5.2-0.8-6.9-2.4c-1.7-1.6-2.6-3.8-2.7-6.6l0-1.6l0-1.6c0.1-2.8,1-5,2.7-6.6
	c1.7-1.6,4-2.4,6.9-2.4c2,0,3.8,0.4,5.2,1.1c1.4,0.7,2.5,1.6,3.2,2.7c0.7,1,1.1,2,1.1,3c0,0.3-0.1,0.5-0.3,0.7
	c-0.2,0.2-0.4,0.3-0.7,0.3h-3.5c-0.3,0-0.5-0.1-0.6-0.2c-0.1-0.1-0.3-0.3-0.4-0.6c-0.4-1-0.9-1.8-1.6-2.2c-0.6-0.4-1.4-0.7-2.4-0.7
	c-1.3,0-2.4,0.4-3.1,1.3c-0.8,0.8-1.2,2.1-1.2,3.8l0,1.4l0,1.3c0.1,3.4,1.6,5.1,4.4,5.1c1,0,1.9-0.2,2.5-0.7
	c0.6-0.4,1.1-1.2,1.5-2.2c0.1-0.3,0.3-0.5,0.4-0.6c0.2-0.1,0.4-0.2,0.6-0.2h3.5c0.3,0,0.5,0.1,0.7,0.3c0.2,0.2,0.3,0.4,0.3,0.7
	c-0.1,0.9-0.4,1.9-1.1,2.9c-0.7,1-1.7,1.9-3.2,2.7C222.7,48.2,220.9,48.5,218.8,48.5z"/>
<path class="st1" d="M238.4,48.5c-1.3,0-2.6-0.3-3.7-0.8c-1.1-0.5-2-1.3-2.6-2.2c-0.6-0.9-0.9-1.9-0.9-3c0-1.8,0.7-3.2,2.2-4.3
	c1.4-1.1,3.4-1.8,5.9-2.2l5.4-0.8v-0.8c0-1.1-0.3-2-0.9-2.6c-0.6-0.6-1.5-0.9-2.8-0.9c-0.9,0-1.6,0.2-2.1,0.5
	c-0.5,0.3-0.9,0.6-1.3,0.9c-0.3,0.3-0.5,0.6-0.6,0.7c-0.1,0.3-0.3,0.5-0.6,0.5h-3c-0.2,0-0.4-0.1-0.6-0.2c-0.2-0.2-0.2-0.4-0.2-0.6
	c0-0.7,0.3-1.4,0.9-2.2c0.6-0.8,1.6-1.6,2.9-2.2c1.3-0.6,2.9-0.9,4.7-0.9c3.1,0,5.4,0.7,6.8,2.1c1.4,1.4,2.1,3.2,2.1,5.4v12.3
	c0,0.3-0.1,0.5-0.3,0.7c-0.2,0.2-0.4,0.3-0.7,0.3h-3.2c-0.3,0-0.5-0.1-0.7-0.3c-0.2-0.2-0.3-0.4-0.3-0.7v-1.5
	c-0.6,0.8-1.4,1.5-2.5,2.1C241.3,48.3,240,48.5,238.4,48.5z M239.7,44.8c1.4,0,2.6-0.5,3.5-1.4c0.9-0.9,1.4-2.3,1.4-4.1v-0.8
	l-3.9,0.6c-1.5,0.2-2.7,0.6-3.5,1.1c-0.8,0.5-1.1,1.2-1.1,1.9c0,0.8,0.4,1.5,1.1,2C237.9,44.6,238.7,44.8,239.7,44.8z"/>
<path class="st1" d="M253.7,55.6c-0.3,0-0.5-0.1-0.7-0.3c-0.2-0.2-0.3-0.4-0.3-0.7V28.7c0-0.3,0.1-0.5,0.3-0.7
	c0.2-0.2,0.4-0.3,0.7-0.3h3.1c0.3,0,0.5,0.1,0.7,0.3c0.2,0.2,0.3,0.4,0.3,0.7v1.6c1.5-1.9,3.6-2.9,6.3-2.9c2.7,0,4.7,0.8,6.1,2.5
	c1.4,1.6,2.2,3.9,2.3,6.7c0,0.3,0,0.8,0,1.4c0,0.6,0,1.1,0,1.4c-0.1,2.7-0.9,5-2.3,6.7c-1.4,1.7-3.5,2.5-6.1,2.5s-4.7-0.9-6.1-2.8
	v8.9c0,0.3-0.1,0.5-0.3,0.7c-0.2,0.2-0.4,0.3-0.7,0.3H253.7z M262.6,44.4c2.8,0,4.3-1.7,4.5-5.2c0-0.3,0-0.7,0-1.2
	c0-0.5,0-0.9,0-1.2c-0.2-3.5-1.7-5.2-4.5-5.2c-1.5,0-2.7,0.5-3.4,1.4c-0.7,1-1.1,2.2-1.2,3.6l0,1.5l0,1.5c0.1,1.3,0.5,2.4,1.2,3.4
	C260,43.9,261.2,44.4,262.6,44.4z"/>
<path class="st1" d="M285.3,48.5c-2.9,0-5.2-0.8-7-2.5c-1.7-1.7-2.6-4.1-2.7-7.1l0-1l0-1c0.1-3,1-5.3,2.8-7c1.7-1.7,4-2.5,6.9-2.5
	c3.1,0,5.5,0.9,7.2,2.8c1.7,1.9,2.6,4.4,2.6,7.5v0.8c0,0.3-0.1,0.5-0.3,0.7c-0.2,0.2-0.4,0.3-0.7,0.3h-13.1v0.3
	c0.1,1.4,0.4,2.7,1.2,3.6c0.8,1,1.8,1.4,3.1,1.4c1.5,0,2.8-0.6,3.7-1.8c0.2-0.3,0.4-0.5,0.6-0.5c0.2-0.1,0.4-0.1,0.7-0.1h3.4
	c0.2,0,0.4,0.1,0.6,0.2c0.2,0.1,0.3,0.3,0.3,0.5c0,0.6-0.4,1.4-1.1,2.2c-0.7,0.8-1.8,1.6-3.2,2.2C288.7,48.2,287.1,48.5,285.3,48.5z
	 M289.6,36.2v-0.1c0-1.5-0.4-2.8-1.2-3.7c-0.8-0.9-1.8-1.4-3.2-1.4s-2.4,0.5-3.2,1.4c-0.8,0.9-1.1,2.2-1.1,3.7v0.1H289.6z"/>
</svg>
