<svg width="414" height="147" viewBox="0 0 414 147" fill="none" xmlns="http://www.w3.org/2000/svg">
<path d="M117 135C117 141.627 111.627 147 105 147H12C5.37258 147 0 141.627 0 135V0H117V135ZM18 120C18 124.971 22.0294 129 27 129C31.9706 129 36 124.971 36 120V58H18V120ZM41 111V129H90C94.9706 129 99 124.971 99 120C99 115.029 94.9706 111 90 111H41Z" fill="white"/>
<path d="M18 25C18 20.5817 21.5817 17 26 17H28C32.4183 17 36 20.5817 36 25V58H18V25Z" fill="#696F8C"/>
<path d="M155.23 89.7797H171.68V96.2197H147.25V47.5697H155.23V89.7797ZM182.414 52.5397C180.967 52.5397 179.754 52.0497 178.774 51.0697C177.794 50.0897 177.304 48.8764 177.304 47.4297C177.304 45.9831 177.794 44.7697 178.774 43.7897C179.754 42.8097 180.967 42.3197 182.414 42.3197C183.814 42.3197 185.004 42.8097 185.984 43.7897C186.964 44.7697 187.454 45.9831 187.454 47.4297C187.454 48.8764 186.964 50.0897 185.984 51.0697C185.004 52.0497 183.814 52.5397 182.414 52.5397ZM186.334 57.6497V96.2197H178.354V57.6497H186.334ZM206.121 64.1597V85.5097C206.121 86.9564 206.447 88.0064 207.101 88.6597C207.801 89.2664 208.967 89.5697 210.601 89.5697H215.501V96.2197H209.201C205.607 96.2197 202.854 95.3797 200.941 93.6997C199.027 92.0197 198.071 89.2897 198.071 85.5097V64.1597H193.521V57.6497H198.071V48.0597H206.121V57.6497H215.501V64.1597H206.121ZM269.545 57.0197C272.579 57.0197 275.285 57.6497 277.665 58.9097C280.092 60.1697 281.982 62.0364 283.335 64.5097C284.735 66.9831 285.435 69.9697 285.435 73.4697V96.2197H277.525V74.6597C277.525 71.2064 276.662 68.5697 274.935 66.7497C273.209 64.8831 270.852 63.9497 267.865 63.9497C264.879 63.9497 262.499 64.8831 260.725 66.7497C258.999 68.5697 258.135 71.2064 258.135 74.6597V96.2197H250.225V74.6597C250.225 71.2064 249.362 68.5697 247.635 66.7497C245.909 64.8831 243.552 63.9497 240.565 63.9497C237.579 63.9497 235.199 64.8831 233.425 66.7497C231.699 68.5697 230.835 71.2064 230.835 74.6597V96.2197H222.855V57.6497H230.835V62.0597C232.142 60.4731 233.799 59.2364 235.805 58.3497C237.812 57.4631 239.959 57.0197 242.245 57.0197C245.325 57.0197 248.079 57.6731 250.505 58.9797C252.932 60.2864 254.799 62.1764 256.105 64.6497C257.272 62.3164 259.092 60.4731 261.565 59.1197C264.039 57.7197 266.699 57.0197 269.545 57.0197ZM330.52 57.6497V96.2197H322.54V91.6697C321.28 93.2564 319.623 94.5164 317.57 95.4497C315.563 96.3364 313.417 96.7797 311.13 96.7797C308.097 96.7797 305.367 96.1497 302.94 94.8897C300.56 93.6297 298.67 91.7631 297.27 89.2897C295.917 86.8164 295.24 83.8297 295.24 80.3297V57.6497H303.15V79.1397C303.15 82.5931 304.013 85.2531 305.74 87.1197C307.467 88.9397 309.823 89.8497 312.81 89.8497C315.797 89.8497 318.153 88.9397 319.88 87.1197C321.653 85.2531 322.54 82.5931 322.54 79.1397V57.6497H330.52ZM355.049 96.8497C352.015 96.8497 349.285 96.3131 346.859 95.2397C344.479 94.1197 342.589 92.6264 341.189 90.7597C339.789 88.8464 339.042 86.7231 338.949 84.3897H347.209C347.349 86.0231 348.119 87.3997 349.519 88.5197C350.965 89.5931 352.762 90.1297 354.909 90.1297C357.149 90.1297 358.875 89.7097 360.089 88.8697C361.349 87.9831 361.979 86.8631 361.979 85.5097C361.979 84.0631 361.279 82.9897 359.879 82.2897C358.525 81.5897 356.355 80.8197 353.369 79.9797C350.475 79.1864 348.119 78.4164 346.299 77.6697C344.479 76.9231 342.892 75.7797 341.539 74.2397C340.232 72.6997 339.579 70.6697 339.579 68.1497C339.579 66.0964 340.185 64.2297 341.399 62.5497C342.612 60.8231 344.339 59.4697 346.579 58.4897C348.865 57.5097 351.479 57.0197 354.419 57.0197C358.805 57.0197 362.329 58.1397 364.989 60.3797C367.695 62.5731 369.142 65.5831 369.329 69.4097H361.349C361.209 67.6831 360.509 66.3064 359.249 65.2797C357.989 64.2531 356.285 63.7397 354.139 63.7397C352.039 63.7397 350.429 64.1364 349.309 64.9297C348.189 65.7231 347.629 66.7731 347.629 68.0797C347.629 69.1064 348.002 69.9697 348.749 70.6697C349.495 71.3697 350.405 71.9297 351.479 72.3497C352.552 72.7231 354.139 73.2131 356.239 73.8197C359.039 74.5664 361.325 75.3364 363.099 76.1297C364.919 76.8764 366.482 77.9964 367.789 79.4897C369.095 80.9831 369.772 82.9664 369.819 85.4397C369.819 87.6331 369.212 89.5931 367.999 91.3197C366.785 93.0464 365.059 94.3997 362.819 95.3797C360.625 96.3597 358.035 96.8497 355.049 96.8497Z" fill="#170A36"/>
</svg>
