<svg width="1167" height="180" viewBox="0 0 1167 180" fill="none" xmlns="http://www.w3.org/2000/svg">
<path d="M152.4 0L136.3 4.4L109.2 11.7L91.6 16.5L70.9 22.2L9.8 38.7L0 77.3L25.1 102.4L44.2 121.5L62.2 103.3L62 80.2L97.7 44.5L104.6 51.3L101.8 70.4L112 80.6L131.1 77.8L137.9 84.7L102.2 120.3L78.8 119.9L60.8 137.9L75.3 152.6L102.7 180L141.5 170.6L146.3 152.6L152.1 131.2L164.7 84.1L170.3 63.4L179.9 27.7L152.4 0Z" fill="white"/>
<path d="M228.4 131.7H220.1V123.4V115.1V106.8V98.5V90.2V81.9V73.6V65.3V57V48.7H228.4H236.7V57V65.3V73.6V81.9V90.2V98.5V106.8V115.1V123.4V131.7H228.4Z" fill="white"/>
<path d="M293.4 131.7H285.1V123.4V115.1V106.8V98.5V90.2V81.9V73.6V65.3H276.8H268.5V73.6V81.9V90.2V98.5V106.8V115.1V123.4V131.7H260.2H251.9V123.4V115.1V106.8V98.5V90.2V81.9V73.6V65.3V57V48.7H260.2H268.5H276.8H285.1H293.4H301.7V57V65.3V73.6V81.9V90.2V98.5V106.8V115.1V123.4V131.7H293.4Z" fill="white"/>
<path d="M333.4 81.7H325.1H316.8V73.4V65.1V56.8V48.5H325.1H333.4H341.7H350H358.3H366.6V56.8V65.1H358.3H350H341.7H333.4V73.4V81.7ZM358.4 131.7H350.1H341.8H333.5H325.2H316.9V123.4V115.1H325.2H333.5H341.8H350.1V106.8V98.5H358.4H366.7V106.8V115.1V123.4V131.7H358.4ZM350 98.4H341.7H333.4V90.1V81.8H341.7H350V90.1V98.4Z" fill="white"/>
<path d="M390 131.7H381.7V123.4V115.1V106.8V98.5V90.2V81.9V73.6V65.3V57V48.7H390H398.3H406.6H414.9H423.2H431.5V57V65.3V73.6V81.9V90.2V98.5H423.2H414.9H406.6H398.3V106.8V115.1V123.4V131.7H390ZM406.7 81.7H415V73.4V65.1H406.7H398.4V73.4V81.7H406.7Z" fill="white"/>
<path d="M488.4 131.7H480.1H471.8H463.5H455.2H446.9V123.4V115.1V106.8V98.5V90.2V81.9V73.6V65.3V57V48.7H455.2H463.5H471.8H480.1H488.4H496.7V57V65.3H488.4H480.1H471.8H463.5V73.6V81.9H471.8H480.1H488.4H496.7V90.2V98.5H488.4H480.1H471.8H463.5V106.8V115.1H471.8H480.1H488.4H496.7V123.4V131.7H488.4Z" fill="white"/>
<path d="M520 131.7H511.7V123.4V115.1V106.8V98.5V90.2V81.9V73.6V65.3V57V48.7H520H528.3V57V65.3V73.6V81.9H536.6H544.9V90.2V98.5H536.6H528.3V106.8V115.1V123.4V131.7H520ZM545 81.7V73.4V65.1V56.8V48.5H553.3H561.6V56.8V65.1V73.4V81.7H553.3H545ZM553.4 131.7H545.1V123.4V115.1V106.8V98.5H553.4H561.7V106.8V115.1V123.4V131.7H553.4Z" fill="white"/>
<path d="M601.7 131.7H593.4V123.4V115.1V106.8V98.5V90.2V81.9V73.6V65.3H585.1H576.8V57V48.7H585.1H593.4H601.7H610H618.3H626.6V57V65.3H618.3H610V73.6V81.9V90.2V98.5V106.8V115.1V123.4V131.7H601.7Z" fill="white"/>
<path d="M683.4 131.7H675.1H666.8H658.5H650.2H641.9V123.4V115.1V106.8V98.5V90.2V81.9V73.6V65.3V57V48.7H650.2H658.5H666.8H675.1H683.4H691.7V57V65.3V73.6V81.9V90.2V98.5V106.8V115.1V123.4V131.7H683.4ZM666.7 115H675V106.7V98.4V90.1V81.8V73.5V65.2H666.7H658.4V73.5V81.8V90.1V98.4V106.7V115H666.7Z" fill="white"/>
<path d="M715 131.7H706.7V123.4V115.1V106.8V98.5V90.2V81.9V73.6V65.3V57V48.7H715H723.3H731.6H739.9H748.2H756.5V57V65.3V73.6V81.9V90.2V98.5H748.2H739.9V106.8V115.1H731.6H723.3V123.4V131.7H715ZM731.7 81.7H740V73.4V65.1H731.7H723.4V73.4V81.7H731.7ZM748.4 131.7H740.1V123.4V115.1H748.4H756.7V123.4V131.7H748.4Z" fill="white"/>
<path d="M833 131.7H824.7H816.4H808.1H799.8H791.5V123.4V115.1V106.8V98.5V90.2V81.9V73.6V65.3V57V48.7H799.8H808.1H816.4H824.7H833H841.3V57V65.3H833H824.7H816.4H808.1V73.6V81.9H816.4H824.7H833H841.3V90.2V98.5V106.8V115.1V123.4V131.7H833ZM816.4 115H824.7V106.7V98.4H816.4H808.1V106.7V115H816.4Z" fill="white"/>
<path d="M898 131.7H889.7V123.4V115.1V106.8V98.5H881.4H873.1V106.8V115.1V123.4V131.7H864.8H856.5V123.4V115.1V106.8V98.5V90.2V81.9V73.6V65.3V57V48.7H864.8H873.1H881.4H889.7H898H906.3V57V65.3V73.6V81.9V90.2V98.5V106.8V115.1V123.4V131.7H898ZM881.4 81.7H889.7V73.4V65.1H881.4H873.1V73.4V81.7H881.4Z" fill="white"/>
<path d="M946.4 131.7H938.1H929.8H921.5V123.4V115.1V106.8V98.5V90.2V81.9V73.6V65.3V57V48.7H929.8H938.1H946.4H954.7V57V65.3H963H971.3V73.6V81.9V90.2V98.5V106.8V115.1H963H954.7V106.8V98.5V90.2V81.9V73.6V65.3H946.4H938.1V73.6V81.9V90.2V98.5V106.8V115.1H946.4H954.7V123.4V131.7H946.4Z" fill="white"/>
<path d="M1028 131.7H1019.7H1011.4H1003.1H994.8H986.5V123.4V115.1V106.8V98.5V90.2V81.9V73.6V65.3V57V48.7H994.8H1003.1H1011.4H1019.7H1028H1036.3V57V65.3H1028H1019.7H1011.4H1003.1V73.6V81.9H1011.4H1019.7H1028H1036.3V90.2V98.5V106.8V115.1V123.4V131.7H1028ZM1011.4 115H1019.7V106.7V98.4H1011.4H1003.1V106.7V115H1011.4Z" fill="white"/>
<path d="M1093 131.7H1084.7H1076.4H1068.1H1059.8H1051.5V123.4V115.1V106.8V98.5V90.2V81.9V73.6V65.3V57V48.7H1059.8H1068.1H1076.4H1084.7H1093H1101.3V57V65.3H1093H1084.7H1076.4H1068.1V73.6V81.9H1076.4H1084.7H1093H1101.3V90.2V98.5H1093H1084.7H1076.4H1068.1V106.8V115.1H1076.4H1084.7H1093H1101.3V123.4V131.7H1093Z" fill="white"/>
<path d="M1141.4 131.7H1133.1V123.4V115.1V106.8V98.5V90.2V81.9V73.6V65.3H1124.8H1116.5V57V48.7H1124.8H1133.1H1141.4H1149.7H1158H1166.3V57V65.3H1158H1149.7V73.6V81.9V90.2V98.5V106.8V115.1V123.4V131.7H1141.4Z" fill="white"/>
</svg>
