<?xml version="1.0" encoding="utf-8"?>
<!-- Generator: Adobe Illustrator 21.1.0, SVG Export Plug-In . SVG Version: 6.00 Build 0)  -->
<svg version="1.1" id="Layer_1" xmlns="http://www.w3.org/2000/svg" xmlns:xlink="http://www.w3.org/1999/xlink" x="0px" y="0px"
	 viewBox="0 0 379 109" style="enable-background:new 0 0 379 109;" xml:space="preserve">
<style type="text/css">
	.st0{fill:#FFFFFF;}
	.st1{opacity:0.8;}
</style>
<g>
	<g>
		<g>
			<path class="st0" d="M215.7,67.7h1.6l6.7,14.8h-1.8l-1.7-3.9h-8l-1.7,3.9H209L215.7,67.7z M219.9,77.1l-3.3-7.5l-3.4,7.5H219.9z"
				/>
			<path class="st0" d="M227.8,67.8h1.7l5.4,8l5.4-8h1.7v14.7h-1.7V70.6l-5.4,7.9h-0.1l-5.4-7.9v11.9h-1.6V67.8z"/>
			<path class="st0" d="M246.9,67.8h6.3c1.7,0,3,0.5,3.9,1.3c0.6,0.6,0.9,1.4,0.9,2.4l0,0c0,1.9-1.2,2.9-2.3,3.4
				c1.7,0.5,3.2,1.5,3.2,3.6l0,0c0,2.5-2.1,4-5.3,4h-6.5V67.8H246.9z M256.3,71.7c0-1.5-1.2-2.4-3.3-2.4h-4.5v5.1h4.4
				C254.9,74.3,256.3,73.4,256.3,71.7L256.3,71.7z M253.2,75.8h-4.6V81h4.9c2.2,0,3.6-1,3.6-2.6l0,0
				C257.1,76.7,255.7,75.8,253.2,75.8z"/>
			<path class="st0" d="M268.1,67.7h1.6l6.7,14.8h-1.8l-1.7-3.9h-8l-1.7,3.9h-1.7L268.1,67.7z M272.2,77.1l-3.3-7.5l-3.4,7.5H272.2z
				"/>
			<path class="st0" d="M278.9,80.4l1-1.2c1.5,1.4,3,2.1,5,2.1s3.3-1.1,3.3-2.5l0,0c0-1.4-0.7-2.1-3.8-2.8c-3.4-0.7-4.9-1.8-4.9-4.2
				l0,0c0-2.3,2-4,4.8-4c2.1,0,3.7,0.6,5.2,1.8l-1,1.3c-1.4-1.1-2.7-1.6-4.3-1.6c-1.9,0-3.1,1.1-3.1,2.4l0,0c0,1.4,0.8,2.2,4,2.9
				c3.3,0.7,4.8,1.9,4.8,4.2l0,0c0,2.5-2.1,4.2-5,4.2C282.6,82.7,280.6,81.9,278.9,80.4z"/>
			<path class="st0" d="M293,80.4l1-1.2c1.5,1.4,3,2.1,5,2.1s3.3-1.1,3.3-2.5l0,0c0-1.4-0.7-2.1-3.8-2.8c-3.4-0.7-4.9-1.8-4.9-4.2
				l0,0c0-2.3,2-4,4.8-4c2.1,0,3.7,0.6,5.2,1.8l-1,1.3c-1.4-1.1-2.7-1.6-4.3-1.6c-1.9,0-3.1,1.1-3.1,2.4l0,0c0,1.4,0.8,2.2,4,2.9
				c3.3,0.7,4.8,1.9,4.8,4.2l0,0c0,2.5-2.1,4.2-5,4.2C296.7,82.7,294.7,81.9,293,80.4z"/>
			<path class="st0" d="M313.4,67.7h1.6l6.7,14.8h-1.8l-1.7-3.9h-8l-1.7,3.9h-1.7L313.4,67.7z M317.5,77.1l-3.3-7.5l-3.4,7.5H317.5z
				"/>
			<path class="st0" d="M325.4,67.8h5.1c4.6,0,7.8,3.2,7.8,7.3l0,0c0,4.1-3.2,7.4-7.8,7.4h-5.1V67.8z M327.1,69.3V81h3.5
				c3.7,0,6.1-2.5,6.1-5.8l0,0c0-3.3-2.4-5.8-6.1-5.8L327.1,69.3L327.1,69.3z"/>
			<path class="st0" d="M342,75.2L342,75.2c0-4.1,3.1-7.7,7.5-7.7s7.5,3.5,7.5,7.6l0,0c0,4.1-3.1,7.6-7.5,7.6S342,79.2,342,75.2z
				 M355.3,75.2L355.3,75.2c0-3.4-2.4-6.1-5.8-6.1s-5.8,2.7-5.8,6l0,0c0,3.3,2.4,6.1,5.8,6.1S355.3,78.5,355.3,75.2z"/>
			<path class="st0" d="M361.4,67.8h6.3c1.8,0,3.3,0.5,4.2,1.5c0.7,0.7,1.1,1.7,1.1,2.9l0,0c0,2.4-1.7,3.9-4,4.3l4.5,6h-2l-4.3-5.7
				H363v5.7h-1.7V67.8H361.4z M367.6,75.3c2.2,0,3.8-1.1,3.8-3l0,0c0-1.8-1.4-2.9-3.8-2.9h-4.5v6L367.6,75.3L367.6,75.3z"/>
		</g>
		<g>
			<g id="XMLID_1262_">
				<g>
					<path id="XMLID_3121_" class="st0" d="M248.4,39.4c1.3,0,2.4-0.5,3.3-1.6l1.7,1.8c-1.4,1.6-3,2.3-4.9,2.3s-3.4-0.6-4.6-1.8
						c-1.2-1.2-1.8-2.7-1.8-4.5s0.6-3.3,1.8-4.5c1.2-1.2,2.7-1.8,4.5-1.8c2,0,3.7,0.8,5,2.3l-1.7,1.9c-0.9-1.1-1.9-1.6-3.2-1.6
						c-1,0-1.9,0.3-2.6,1s-1.1,1.6-1.1,2.7s0.3,2,1,2.7C246.6,39.1,247.4,39.4,248.4,39.4z"/>
					<path id="XMLID_3119_" class="st0" d="M255.5,41.8V29.7h2.7v9.7h5.2v2.4C263.4,41.8,255.5,41.8,255.5,41.8z"/>
					<path id="XMLID_3116_" class="st0" d="M275.3,40.2c-1.2,1.2-2.7,1.8-4.5,1.8s-3.3-0.6-4.5-1.8c-1.2-1.2-1.8-2.7-1.8-4.5
						s0.6-3.3,1.8-4.5c1.2-1.2,2.7-1.8,4.5-1.8s3.3,0.6,4.5,1.8c1.2,1.2,1.8,2.7,1.8,4.5C277.1,37.5,276.5,39,275.3,40.2z
						 M274.4,35.7c0-1.1-0.3-2-1-2.8s-1.5-1.1-2.6-1.1c-1,0-1.9,0.4-2.6,1.1c-0.7,0.8-1,1.7-1,2.8c0,1.1,0.3,2,1,2.8
						s1.5,1.1,2.6,1.1c1,0,1.9-0.4,2.6-1.1C274,37.7,274.4,36.8,274.4,35.7z"/>
					<path id="XMLID_3114_" class="st0" d="M282.6,38.7c0.5,0.6,1.1,0.8,1.8,0.8c0.8,0,1.4-0.3,1.8-0.8c0.4-0.6,0.7-1.3,0.7-2.3
						v-6.7h2.7v6.8c0,1.8-0.5,3.1-1.5,4.1c-1,0.9-2.2,1.4-3.7,1.4s-2.8-0.5-3.7-1.4c-1-0.9-1.5-2.3-1.5-4v-6.8h2.7v6.7
						C282,37.4,282.2,38.1,282.6,38.7z"/>
					<path id="XMLID_3111_" class="st0" d="M301.7,31.3c1.2,1.1,1.7,2.5,1.7,4.4s-0.6,3.4-1.7,4.5s-2.9,1.6-5.2,1.6h-4.2V29.7h4.3
						C298.9,29.7,300.6,30.2,301.7,31.3z M299.7,38.5c0.7-0.6,1-1.5,1-2.7s-0.3-2.1-1-2.8c-0.7-0.6-1.7-1-3.1-1h-1.5v7.4h1.7
						C298.1,39.4,299.1,39.1,299.7,38.5z"/>
					<path id="XMLID_3109_" class="st0" d="M318.9,29.7h2.7v12.1h-2.7l-5.8-7.6v7.6h-2.7V29.7h2.5l6,7.8V29.7z"/>
					<path id="XMLID_3106_" class="st0" d="M333.2,41.8l-1.1-2.6H327l-1.1,2.6H323l5.2-12.1h2.6l5.2,12.1H333.2z M329.6,33.3
						l-1.5,3.5h3L329.6,33.3z"/>
					<path id="XMLID_3104_" class="st0" d="M341.8,32v9.8h-2.7V32h-3.4v-2.3h9.6V32H341.8z"/>
					<path id="XMLID_3102_" class="st0" d="M347.2,29.7h2.7v12.1h-2.7V29.7z"/>
					<path id="XMLID_3100_" class="st0" d="M357.4,37.4l3.1-7.7h2.9l-4.9,12.1h-2.3l-4.9-12.1h2.9L357.4,37.4z"/>
					<path id="XMLID_3098_" class="st0" d="M373.6,29.7v2.4h-6v2.5h5.4v2.3h-5.4v2.5h6.2v2.4h-8.9V29.7H373.6z"/>
					<path id="XMLID_3096_" class="st0" d="M245.3,52.2c0.7,0,1.4-0.3,1.8-0.9l1,1c-0.8,0.9-1.7,1.3-2.7,1.3s-1.9-0.3-2.6-1
						s-1-1.5-1-2.5s0.3-1.9,1-2.5c0.7-0.7,1.5-1,2.5-1c1.1,0,2.1,0.4,2.8,1.3l-0.9,1.1c-0.5-0.6-1.1-0.9-1.8-0.9
						c-0.6,0-1.1,0.2-1.5,0.6s-0.6,0.9-0.6,1.5s0.2,1.1,0.6,1.5C244.3,52,244.8,52.2,245.3,52.2z"/>
					<path id="XMLID_3093_" class="st0" d="M254.9,52.6c-0.7,0.7-1.5,1-2.5,1s-1.9-0.3-2.5-1c-0.7-0.7-1-1.5-1-2.5s0.3-1.8,1-2.5
						s1.5-1,2.5-1s1.9,0.3,2.5,1c0.7,0.7,1,1.5,1,2.5S255.6,51.9,254.9,52.6z M254.4,50.1c0-0.6-0.2-1.1-0.6-1.6
						c-0.4-0.4-0.9-0.6-1.4-0.6s-1,0.2-1.4,0.6s-0.6,0.9-0.6,1.6s0.2,1.1,0.6,1.5s0.9,0.6,1.4,0.6s1-0.2,1.4-0.6
						C254.2,51.2,254.4,50.7,254.4,50.1z"/>
					<path id="XMLID_3091_" class="st0" d="M263.3,49.2l-1.8,3.7h-0.9l-1.8-3.7v4.3h-1.5v-6.8h2.1l1.8,3.7l1.8-3.7h2v6.8h-1.5v-4.3
						H263.3z"/>
					<path id="XMLID_3088_" class="st0" d="M271.2,47.3c0.5,0.4,0.7,1,0.7,1.9c0,0.8-0.2,1.5-0.7,1.8c-0.5,0.4-1.2,0.6-2.2,0.6h-1
						v1.9h-1.5v-6.8h2.4C269.9,46.7,270.7,46.9,271.2,47.3z M270.1,50c0.2-0.2,0.3-0.5,0.3-0.9s-0.1-0.7-0.4-0.8
						c-0.2-0.2-0.6-0.2-1.1-0.2H268v2.3h1C269.5,50.3,269.9,50.2,270.1,50z"/>
					<path id="XMLID_3086_" class="st0" d="M274.9,51.8c0.3,0.3,0.6,0.5,1,0.5s0.8-0.2,1-0.5s0.4-0.7,0.4-1.3v-3.8h1.5v3.8
						c0,1-0.3,1.7-0.8,2.3c-0.5,0.5-1.2,0.8-2.1,0.8s-1.5-0.3-2.1-0.8c-0.5-0.5-0.8-1.3-0.8-2.3v-3.8h1.5v3.8
						C274.5,51,274.6,51.4,274.9,51.8z"/>
					<path id="XMLID_3084_" class="st0" d="M283.3,48v5.5h-1.5V48h-1.9v-1.3h5.4V48H283.3z"/>
					<path id="XMLID_3082_" class="st0" d="M286.3,46.7h1.5v6.8h-1.5V46.7z"/>
					<path id="XMLID_3080_" class="st0" d="M294.2,46.7h1.5v6.8h-1.5l-3.2-4.3v4.3h-1.5v-6.8h1.4l3.3,4.4L294.2,46.7L294.2,46.7z"/>
					<path id="XMLID_3078_" class="st0" d="M301.9,50h1.5v2.4c-0.7,0.8-1.6,1.1-2.8,1.1c-1,0-1.8-0.3-2.5-1s-1-1.5-1-2.5
						s0.3-1.9,1-2.5s1.5-1,2.5-1s1.8,0.3,2.5,1l-0.8,1.1c-0.3-0.3-0.6-0.4-0.8-0.6c-0.3-0.1-0.5-0.2-0.8-0.2c-0.6,0-1.1,0.2-1.5,0.6
						s-0.6,0.9-0.6,1.6c0,0.6,0.2,1.2,0.6,1.5c0.4,0.4,0.8,0.6,1.4,0.6c0.5,0,1-0.1,1.3-0.3L301.9,50L301.9,50z"/>
					<path id="XMLID_3076_" class="st0" d="M312,46.7V48h-3.2v1.5h3v1.3h-3v2.7h-1.5v-6.8H312z"/>
					<path id="XMLID_3073_" class="st0" d="M319,52.6c-0.7,0.7-1.5,1-2.5,1s-1.9-0.3-2.5-1c-0.7-0.7-1-1.5-1-2.5s0.3-1.8,1-2.5
						s1.5-1,2.5-1s1.9,0.3,2.5,1c0.7,0.7,1,1.5,1,2.5S319.7,51.9,319,52.6z M318.5,50.1c0-0.6-0.2-1.1-0.6-1.6
						c-0.4-0.4-0.9-0.6-1.4-0.6c-0.6,0-1,0.2-1.4,0.6s-0.6,0.9-0.6,1.6s0.2,1.1,0.6,1.5s0.9,0.6,1.4,0.6c0.6,0,1-0.2,1.4-0.6
						S318.5,50.7,318.5,50.1z"/>
					<path id="XMLID_3071_" class="st0" d="M323.1,51.8c0.3,0.3,0.6,0.5,1,0.5s0.8-0.2,1-0.5s0.4-0.7,0.4-1.3v-3.8h1.5v3.8
						c0,1-0.3,1.7-0.8,2.3c-0.5,0.5-1.2,0.8-2.1,0.8s-1.5-0.3-2.1-0.8c-0.5-0.5-0.8-1.3-0.8-2.3v-3.8h1.5v3.8
						C322.7,51,322.9,51.4,323.1,51.8z"/>
					<path id="XMLID_3069_" class="st0" d="M333.4,46.7h1.5v6.8h-1.5l-3.2-4.3v4.3h-1.5v-6.8h1.4l3.3,4.4L333.4,46.7L333.4,46.7z"/>
					<path id="XMLID_3066_" class="st0" d="M341.8,47.6c0.6,0.6,1,1.4,1,2.5s-0.3,1.9-0.9,2.5s-1.6,0.9-2.9,0.9h-2.3v-6.8h2.4
						C340.2,46.7,341.1,47,341.8,47.6z M340.7,51.6c0.4-0.4,0.6-0.9,0.6-1.5c0-0.7-0.2-1.2-0.6-1.5c-0.4-0.4-0.9-0.5-1.7-0.5h-0.8
						v4.1h1C339.7,52.2,340.3,52,340.7,51.6z"/>
					<path id="XMLID_3063_" class="st0" d="M348.7,53.5l-0.6-1.5h-2.9l-0.6,1.5H343l2.9-6.8h1.5l2.9,6.8H348.7z M346.7,48.7l-0.9,2
						h1.7L346.7,48.7z"/>
					<path id="XMLID_3061_" class="st0" d="M353.5,48v5.5H352V48h-1.9v-1.3h5.4V48H353.5z"/>
					<path id="XMLID_3059_" class="st0" d="M356.5,46.7h1.5v6.8h-1.5V46.7z"/>
					<path id="XMLID_3056_" class="st0" d="M365.4,52.6c-0.7,0.7-1.5,1-2.5,1s-1.9-0.3-2.5-1c-0.7-0.7-1-1.5-1-2.5s0.3-1.8,1-2.5
						s1.5-1,2.5-1s1.9,0.3,2.5,1c0.7,0.7,1,1.5,1,2.5C366.5,51.1,366.1,51.9,365.4,52.6z M364.9,50.1c0-0.6-0.2-1.1-0.6-1.6
						c-0.4-0.4-0.9-0.6-1.4-0.6c-0.6,0-1,0.2-1.4,0.6s-0.6,0.9-0.6,1.6s0.2,1.1,0.6,1.5s0.9,0.6,1.4,0.6c0.6,0,1-0.2,1.4-0.6
						C364.7,51.2,364.9,50.7,364.9,50.1z"/>
					<path id="XMLID_3054_" class="st0" d="M372.5,46.7h1.5v6.8h-1.5l-3.2-4.3v4.3h-1.5v-6.8h1.4l3.3,4.4L372.5,46.7L372.5,46.7z"/>
				</g>
			</g>
			<g id="XMLID_1257_">
				<polygon id="XMLID_1261_" class="st0" points="213,45.5 209.3,45.5 209.3,54.2 218,54.2 218,50.4 213,50.4 				"/>
				<polygon id="XMLID_1260_" class="st0" points="231.7,45.5 231.7,50.4 226.7,50.4 226.7,50.4 226.7,54.2 235.4,54.2 235.4,45.5 
									"/>
				<polygon id="XMLID_1259_" class="st0" points="209.3,36.7 213,36.7 213,36.7 213,31.8 213,31.7 218,31.7 218,31.8 218,28 
					209.3,28 				"/>
				<polygon id="XMLID_1258_" class="st0" points="226.7,28 226.7,31.7 231.7,31.7 231.7,36.7 235.4,36.7 235.4,28 				"/>
			</g>
			<g id="XMLID_1252_" class="st1">
				<polygon id="XMLID_1256_" class="st0" points="226.2,36.7 221.3,31.7 226.7,31.7 226.7,28 218,28 218,31.8 222.9,36.7 				"/>
				<polygon id="XMLID_1255_" class="st0" points="221.7,45.5 218.4,45.5 222.6,49.6 223.4,50.4 221.7,50.4 218,50.4 218,54.2 
					226.7,54.2 226.7,50.4 224.2,47.9 				"/>
				<polygon id="XMLID_1254_" class="st0" points="231.7,36.7 231.7,40.5 231.7,42.2 230.8,41.3 226.7,37.2 226.7,40.5 229.2,43 
					231.7,45.5 235.4,45.5 235.4,36.7 				"/>
				<polygon id="XMLID_1253_" class="st0" points="218,41.7 213,36.7 209.3,36.7 209.3,45.5 213,45.5 213,40 218,45 				"/>
			</g>
		</g>
	</g>
	<g>
		<path class="st0" d="M8.3,56.3c-1.1,1.9-2,3.9-2.7,6l9.7-2.8l2.9-0.8L8.3,56.3z"/>
		<path class="st0" d="M20.3,58l-0.1-13.2c-4.6,2.5-8.5,6.2-11.3,10.6l5,1.2l6.2,1.5L20.3,58z"/>
		<path class="st0" d="M8.9,55.4l5,1.2L8.9,55.4z"/>
		<path class="st0" d="M43.1,51.3v-4.6v-5c-2.5-0.6-5-0.9-7.6-0.9c-5,0-9.8,1.2-14.3,3.4l0.1,13.5L43.1,51.3z"/>
		<polygon class="st0" points="21.2,44.3 21.2,44.3 21.3,57.7 21.3,57.7 		"/>
		<path class="st0" d="M71.2,33.2l-0.1-11.3L63.3,20l-6.4-1.5c-5.9,6.7-9.4,14.9-10.3,23.8l-0.1,0.6l-0.6-0.2
			c-0.6-0.2-1.3-0.4-2-0.6l0.1,9.5l27.4,6.5L71.2,33.2z"/>
		<path class="st0" d="M77.2,50.3c2.6,0,4.8,2,5.1,4.6l3.7-1.1l8.2-2.4l-0.2-36l-21.8,6.4l0.1,9.4l0.2,22.4
			C73.2,51.6,75,50.3,77.2,50.3z"/>
		<polygon class="st0" points="72.4,53.5 72.4,53.5 72.2,31.2 		"/>
		<path class="st0" d="M93.9,14.1l0.5,0.1l15.1-4.4c-6.4-3.7-13.6-5.6-21-5.6c-4.1,0-8.2,0.6-12.1,1.8c-7.1,2.1-13.6,6.2-18.7,11.7
			L71.6,21l22-6.5l0.4-0.1L93.9,14.1z"/>
		<path class="st0" d="M95,15.3l0.1,15.2l0.2,21l7.3,1.7l2.7,0.7c0.7-2.1,2.7-3.6,4.9-3.6c2.8,0,5.1,2.3,5.1,5.1
			c0,0.3,0,0.5-0.1,0.8l1.6,0.4l5.8,1.4l-0.2-24.8l-0.1-11.3L95,15.3z"/>
		<polygon class="st0" points="95,15.3 95,15.3 95.1,30.5 		"/>
		<path class="st0" d="M132.2,55.2l12.9-3.8l-0.2-23.9c-5.7,0-12.5,2.1-16.4,4l-0.5,0.2l-0.2-0.5c-0.2-0.5-0.4-1.1-0.7-1.6
			c-1.1-2.5-2.4-4.8-3.9-7.1l0.3,35.1L132.2,55.2z"/>
		<polygon class="st0" points="123.6,57.7 123.6,57.7 123.3,22.6 123.3,22.6 		"/>
		<path class="st0" d="M110.7,10.5l-14.2,4.2l25.5,6.1C118.8,16.6,115.1,13.2,110.7,10.5z"/>
		<polygon class="st0" points="110.7,10.5 96.4,14.6 96.4,14.6 		"/>
		<path class="st0" d="M12.2,74.5l-8.3-2C4,81.9,8.2,90.7,15.5,96.7l-0.1-17.1v-4.4L12.2,74.5z"/>
		<path class="st0" d="M35.3,103.8h3.2l-0.3-35l-21.8,6.4v3.1l0.2,19.2C22,101.6,28.5,103.8,35.3,103.8z"/>
		<path class="st0" d="M16.6,97.5l-0.2-19.2L16.6,97.5z"/>
		<path class="st0" d="M37.5,68l0.7-0.2v-0.2l0.5,0.1l31-9.1l-25.5-6.1l0,0l-0.8-0.2L5.3,63.5c-0.8,2.6-1.2,5.3-1.3,8.1L5.8,72
			l10.1,2.4L37.5,68z"/>
		<path class="st0" d="M44.1,52.5l-0.8-0.2L44.1,52.5z"/>
		<path class="st0" d="M4,71.5L5.8,72L4,71.5z"/>
		<polygon class="st0" points="39.2,68.8 39.5,103.8 66.8,103.8 66.7,94 66.6,75.3 		"/>
		<polygon class="st0" points="39.2,68.8 39.5,103.8 39.5,103.8 		"/>
		<path class="st0" d="M67.7,93.6l0.1,10.2h21.9l-0.1-16.3c-7.5-1.5-13.5-6.8-15.9-14.1l-6.1,1.8L67.7,93.6z"/>
		<polygon class="st0" points="67.8,103.8 67.8,103.8 67.7,93.6 		"/>
		<path class="st0" d="M94.5,52.3l-12.2,3.6c-0.3,2.6-2.5,4.6-5.1,4.6c-1.6,0-3-0.7-4-2l0,0L40.7,68L67,74.2l6.3-1.8
			c-0.5-1.9-0.8-3.8-0.8-5.7v-0.5h21.9l26.4-7.7l-5.8-1.4c-0.8,2-2.6,3.4-4.8,3.4c-2.8,0-5.1-2.3-5.1-5.1c0-0.2,0-0.4,0-0.6
			l-9.8-2.3l0,0L94.5,52.3z"/>
		<polygon class="st0" points="95.3,52.5 95.3,52.5 94.5,52.3 		"/>
		<polygon class="st0" points="73.2,58.6 72,58.9 71.6,59 71.6,59 40.6,68.1 40.7,68.1 		"/>
		<path class="st0" d="M71.6,59l0.4-0.1L71.6,59z"/>
		<path class="st0" d="M113.5,74.3c-3.1,8.2-11,13.7-19.8,13.7c-1,0-2.1-0.1-3.2-0.3l0.1,16.1H118l-0.1-9.8l-0.2-18.7L113.5,74.3z"
			/>
		<polygon class="st0" points="90.5,87.7 90.7,103.8 90.7,103.8 		"/>
		<path class="st0" d="M118.7,75.2l0.2,18.4l0.1,10.2h21.5l0,0V101l-0.3-32.1L118.7,75.2z"/>
		<polygon class="st0" points="119,103.8 119,103.8 118.9,93.6 		"/>
		<path class="st0" d="M139,68.3l-0.3-0.1l1.4-0.4v-0.3l0.5,0.1l30.7-9l-15.6-3.7l-10.5-2.5L98,66.3h16.9v0.5c0,2.2-0.4,4.4-1.1,6.5
			l4.2,1h0.2L139,68.3z"/>
		<path class="st0" d="M113.8,73.3l4.2,1L113.8,73.3z"/>
		<path class="st0" d="M146.1,51.6l27.2,6.4l0.2-0.1l-0.1-10l-0.1-10.3c-6.3-5.7-15.2-9.1-26.5-10.1c-0.3,0-0.6,0-0.9,0l0.2,23.6
			l0,0L146.1,51.6z"/>
		<path class="st0" d="M183.3,55.2c-1.1-4.6-2.9-8.8-5.4-12.3c-1-1.5-2.2-2.9-3.6-4.2l0.2,19.1L183.3,55.2z"/>
		<polygon class="st0" points="174.3,38.7 174.3,38.7 174.5,57.7 174.5,57.7 		"/>
		<path class="st0" d="M149.2,70.7l-8-1.9l0.2,23.3l0.1,11.8c0.4,0,0.8,0,1.3,0c0.8,0,1.7,0,2.7,0h0.8c1.8,0,3.4,0,4.9,0
			c10.6-0.2,15.4-1.9,17.3-2.9c0.1,0,0.1-0.1,0.2-0.1v-3.4l-0.1-10.8l-0.1-11.4L149.2,70.7z"/>
		<polygon class="st0" points="141.5,103.8 141.5,103.8 141.4,92 		"/>
		<path class="st0" d="M170.3,99.7v0.1c5.8-4,12.6-11.5,14-25c0.1-1.3,0.2-2.6,0.3-4l-9.5,2.8l-5.5,1.6l0.2,24.8L170.3,99.7z"/>
		<path class="st0" d="M169.1,74.4l15.6-4.6c0.2-4.9-0.2-9.5-1.1-13.7l-30.2,8.8L142.7,68L169.1,74.4z"/>
		<path class="st0" d="M142.7,68.1l10.6-3.1L142.7,68.1z"/>
	</g>
</g>
</svg>
