<?xml version="1.0" encoding="UTF-8"?>
<svg xmlns="http://www.w3.org/2000/svg" viewBox="0 0 1080 1080">
  <defs>
    <style>
      .cls-1 {
        fill: #fff;
      }

      .cls-2 {
        fill: #239de0;
      }
    </style>
  </defs>
  <rect class="cls-1" width="1080" height="1080"/>
  <g id="Layer_1" data-name="Layer 1">
    <g>
      <g id="path14">
        <path class="cls-2" d="M923.92,889.35c-33.52,0-49.59,12.75-68.2,27.52-20.2,16.04-43.11,34.22-87.38,34.22s-67.17-18.17-87.38-34.22c-18.6-14.77-34.67-27.52-68.17-27.52s-49.59,12.75-68.19,27.52c-20.21,16.04-43.11,34.22-87.38,34.22s-67.17-18.17-87.37-34.22c-18.6-14.77-34.67-27.52-68.18-27.52s-49.57,12.75-68.17,27.52c-14.39,12.66-31.1,22.39-49.21,28.65,86.77,76.49,195.9,122.94,311.18,132.48,3.23.27,6.46.52,9.71.74,11.61.75,23.29,1.26,35.09,1.26s23.48-.51,35.09-1.26c3.25-.22,6.48-.47,9.71-.74,140.94-11.75,271.61-78.42,363.84-185.63-8.17-2.07-16.57-3.08-24.99-3.01"/>
      </g>
      <g id="path16">
        <path class="cls-2" d="M146.13,486.62c36.44,0,54.4-14.25,73.41-29.35,20.06-15.92,40.8-32.39,82.13-32.39s62.08,16.47,82.14,32.39c19.01,15.1,36.97,29.35,73.41,29.35s54.4-14.25,73.42-29.35c20.06-15.92,40.8-32.39,82.15-32.39s62.08,16.47,82.13,32.39c19.01,15.1,36.97,29.35,73.42,29.35s54.41-14.25,73.42-29.35c20.05-15.92,40.81-32.39,82.15-32.39s62.09,16.47,82.15,32.39c18.65,14.8,36.4,28.72,71.46,29.25-4.81-48.43-16.21-95.98-33.87-141.33-16.39-5.93-31.52-14.91-44.57-26.46-19.42-15.41-37.74-29.96-75.17-29.96s-55.76,14.56-75.17,29.96c-19.69,15.63-40.05,31.78-80.41,31.78s-60.71-16.16-80.4-31.78c-19.4-15.41-37.74-29.96-75.15-29.96s-55.76,14.56-75.16,29.96c-19.69,15.63-40.04,31.78-80.4,31.78s-60.71-16.16-80.39-31.78c-19.41-15.41-37.74-29.96-75.16-29.96s-55.75,14.56-75.15,29.96c-19.69,15.62-40.04,31.78-80.39,31.78s-60.71-16.16-80.39-31.78c-4.36-3.47-8.7-6.86-13.18-10.08-17.95,37.68-31.42,77.33-40.16,118.14,27.4,4.65,44.18,17.66,60.32,30.48,19.01,15.1,36.98,29.35,73.42,29.35"/>
      </g>
      <g id="path18">
        <path class="cls-2" d="M146.13,342.09c37.42,0,55.75-14.55,75.16-29.96,19.69-15.62,40.04-31.79,80.39-31.79s60.71,16.16,80.39,31.79c19.41,15.4,37.74,29.96,75.16,29.96s55.75-14.55,75.16-29.96c19.69-15.62,40.03-31.79,80.4-31.79s60.7,16.16,80.39,31.79c19.41,15.4,37.74,29.96,75.16,29.96s55.75-14.55,75.16-29.96c19.69-15.62,40.05-31.79,80.41-31.79s60.72,16.16,80.4,31.79c10.59,9.16,22.44,16.75,35.18,22.55C926.19,58.99,610.84-72.65,335.14,40.66,213.62,90.61,114.49,183.17,56.34,300.99c5.09,3.6,9.89,7.38,14.63,11.15,19.41,15.4,37.74,29.96,75.16,29.96"/>
      </g>
      <g id="path20">
        <path class="cls-2" d="M923.92,739.2c-34.49,0-50.93,13.04-69.93,28.14-19.85,15.76-42.34,33.61-85.64,33.61s-65.78-17.85-85.63-33.61c-19.02-15.09-35.45-28.14-69.92-28.14s-50.91,13.04-69.93,28.14c-19.85,15.76-42.34,33.61-85.63,33.61s-65.78-17.85-85.63-33.61c-19.02-15.09-35.44-28.14-69.92-28.14s-50.9,13.04-69.92,28.14c-19.85,15.76-42.33,33.61-85.63,33.61s-65.78-17.85-85.63-33.61c-5.03-4-9.9-7.82-14.96-11.32,26.72,60.92,64.42,116.41,111.23,163.68,26.46-2.43,41.03-13.9,57.53-27,20.21-16.03,43.11-34.22,87.37-34.22s67.17,18.18,87.37,34.22c18.6,14.77,34.67,27.52,68.18,27.52s49.57-12.75,68.19-27.52c20.19-16.03,43.11-34.22,87.38-34.22s67.17,18.18,87.36,34.22c18.61,14.77,34.68,27.52,68.19,27.52s49.58-12.75,68.18-27.52c20.21-16.03,43.12-34.22,87.4-34.22,15.68-.22,31.25,2.59,45.86,8.27,19.28-25.32,36.29-52.29,50.84-80.6-9.4-5.56-18.35-11.85-26.77-18.82-19.01-15.09-35.44-28.14-69.92-28.14"/>
      </g>
      <g id="path22">
        <path class="cls-2" d="M1078.58,500.56c-40.65-.28-61.35-16.51-81.25-32.29-19.01-15.09-36.98-29.35-73.42-29.35s-54.41,14.26-73.43,29.35c-20.05,15.92-40.81,32.39-82.14,32.39s-62.08-16.47-82.15-32.39c-19.01-15.09-36.97-29.35-73.4-29.35s-54.41,14.26-73.42,29.35c-20.07,15.92-40.81,32.39-82.15,32.39s-62.08-16.47-82.14-32.39c-19.01-15.09-36.97-29.35-73.41-29.35s-54.4,14.26-73.41,29.35c-20.05,15.92-40.8,32.39-82.13,32.39s-62.08-16.47-82.14-32.39c-15.32-12.16-30.13-23.65-54.3-27.7-4.87,25.97-7.81,52.27-8.82,78.67-.27,6.93-.53,13.84-.53,20.83s.27,13.92.53,20.84c.11,3.02.17,6.05.33,9.05,35.41,2.7,55.5,18.35,73.26,32.45,18.62,14.78,36.2,28.74,71.67,28.74s53.05-13.96,71.66-28.74c19.49-15.47,41.57-33,83.88-33s64.4,17.53,83.88,33c18.62,14.78,36.21,28.74,71.67,28.74s53.05-13.96,71.67-28.74c19.48-15.47,41.57-33,83.89-33s64.4,17.53,83.88,33c18.63,14.78,36.21,28.74,71.67,28.74s53.06-13.96,71.67-28.74c19.49-15.47,41.58-33,83.9-33s64.4,17.53,83.89,33c17.31,13.74,33.92,26.61,64.62,28.39,2.79-16.43,4.81-33.09,6.08-49.98.5-6.6.92-13.22,1.16-19.89v-41.72c-.25-6.67-1.08-18.65-1.08-18.65"/>
      </g>
      <g id="path24">
        <path class="cls-2" d="M923.92,589.06c-35.48,0-53.07,13.96-71.68,28.74-19.49,15.47-41.58,32.99-83.89,32.99s-64.4-17.53-83.89-32.99c-18.62-14.78-36.2-28.74-71.66-28.74s-53.06,13.96-71.68,28.74c-19.48,15.47-41.57,32.99-83.88,32.99s-64.4-17.53-83.88-32.99c-18.62-14.78-36.21-28.74-71.67-28.74s-53.05,13.96-71.67,28.74c-19.48,15.47-41.57,32.99-83.88,32.99s-64.4-17.53-83.89-32.99c-16.36-12.99-31.94-25.33-59.53-28.13,4.07,44.61,13.71,88.53,28.72,130.74,16.4,6.34,31.56,15.53,44.78,27.14,19.02,15.1,35.44,28.14,69.93,28.14s50.91-13.04,69.92-28.14c19.85-15.75,42.33-33.61,85.63-33.61s65.78,17.85,85.63,33.61c19.01,15.1,35.44,28.14,69.92,28.14s50.91-13.04,69.92-28.14c19.85-15.75,42.34-33.61,85.64-33.61s65.78,17.85,85.62,33.61c19.01,15.1,35.44,28.14,69.93,28.14s50.91-13.04,69.93-28.14c19.85-15.75,42.35-33.61,85.65-33.61s65.79,17.85,85.64,33.61c6.98,5.8,14.36,11.12,22.07,15.9,16.59-36.23,29.08-74.21,37.23-113.21-35.4-2.7-55.5-18.35-73.27-32.44-18.61-14.78-36.2-28.74-71.67-28.74"/>
      </g>
      <g id="path26">
        <path class="cls-1" d="M836.52,892.69c-18.59,14.77-34.67,27.52-68.18,27.52s-49.57-12.75-68.19-27.52c-20.2-16.03-43.09-34.22-87.36-34.22s-67.18,18.18-87.38,34.22c-18.61,14.77-34.68,27.52-68.19,27.52s-49.57-12.75-68.18-27.52c-20.2-16.03-43.1-34.22-87.37-34.22s-67.17,18.18-87.37,34.22c-16.5,13.1-31.07,24.57-57.53,27,8.85,8.94,18.07,17.52,27.52,25.82,18.11-6.26,34.83-15.99,49.21-28.65,18.6-14.77,34.67-27.52,68.17-27.52s49.57,12.75,68.18,27.52c20.2,16.04,43.1,34.22,87.37,34.22s67.17-18.17,87.38-34.22c18.6-14.77,34.67-27.52,68.19-27.52s49.57,12.75,68.17,27.52c20.2,16.04,43.11,34.22,87.38,34.22s67.18-18.17,87.38-34.22c18.6-14.77,34.68-27.52,68.2-27.52,8.42-.07,16.82.95,24.99,3.01,7.19-8.33,14.18-16.85,20.87-25.61-14.61-5.69-30.18-8.5-45.86-8.27-44.27,0-67.19,18.18-87.4,34.22"/>
      </g>
      <g id="path28">
        <path class="cls-1" d="M923.92,713.94c-43.3,0-65.8,17.85-85.65,33.61-19.02,15.1-35.44,28.14-69.93,28.14s-50.91-13.04-69.93-28.14c-19.84-15.75-42.34-33.61-85.62-33.61s-65.8,17.85-85.64,33.61c-19.01,15.1-35.44,28.14-69.92,28.14s-50.91-13.04-69.92-28.14c-19.85-15.75-42.34-33.61-85.63-33.61s-65.78,17.85-85.63,33.61c-19.01,15.1-35.44,28.14-69.92,28.14s-50.91-13.04-69.93-28.14c-13.22-11.61-28.37-20.79-44.78-27.14,4.29,12.07,8.99,23.94,14.11,35.6,5.06,3.5,9.93,7.32,14.96,11.32,19.85,15.76,42.34,33.61,85.63,33.61s65.78-17.85,85.63-33.61c19.02-15.09,35.44-28.14,69.92-28.14s50.9,13.04,69.92,28.14c19.85,15.76,42.34,33.61,85.63,33.61s65.78-17.85,85.63-33.61c19.02-15.09,35.45-28.14,69.93-28.14s50.9,13.04,69.92,28.14c19.85,15.76,42.33,33.61,85.63,33.61s65.79-17.85,85.64-33.61c19.01-15.09,35.44-28.14,69.93-28.14s50.92,13.04,69.92,28.14c8.42,6.96,17.37,13.26,26.77,18.82,3.85-7.47,7.52-15.03,11.01-22.7-7.71-4.79-15.09-10.1-22.07-15.9-19.85-15.75-42.35-33.61-85.64-33.61"/>
      </g>
      <g id="path30">
        <path class="cls-1" d="M923.92,569.41c-42.32,0-64.41,17.53-83.9,33-18.61,14.78-36.21,28.74-71.67,28.74s-53.05-13.96-71.67-28.74c-19.48-15.47-41.57-33-83.88-33s-64.41,17.53-83.89,33c-18.62,14.78-36.21,28.74-71.67,28.74s-53.05-13.96-71.67-28.74c-19.48-15.47-41.57-33-83.88-33s-64.4,17.53-83.88,33c-18.62,14.78-36.2,28.74-71.66,28.74s-53.05-13.96-71.67-28.74c-17.76-14.1-37.85-29.74-73.26-32.45.36,6.6.9,13.17,1.51,19.7,27.59,2.81,43.17,15.14,59.53,28.13,19.48,15.47,41.58,32.99,83.89,32.99s64.4-17.53,83.88-32.99c18.62-14.78,36.2-28.74,71.67-28.74s53.05,13.96,71.67,28.74c19.48,15.47,41.57,32.99,83.88,32.99s64.4-17.53,83.88-32.99c18.62-14.78,36.22-28.74,71.68-28.74s53.05,13.96,71.66,28.74c19.49,15.47,41.57,32.99,83.89,32.99s64.4-17.53,83.89-32.99c18.61-14.78,36.2-28.74,71.68-28.74s53.06,13.96,71.67,28.74c17.76,14.09,37.87,29.74,73.27,32.44,1.35-6.43,2.47-12.93,3.57-19.44-30.7-1.77-47.31-14.65-64.62-28.38-19.49-15.47-41.57-33-83.89-33"/>
      </g>
      <g id="path32">
        <path class="cls-1" d="M146.13,500.66c41.33,0,62.08-16.47,82.13-32.39,19.01-15.09,36.98-29.35,73.41-29.35s54.4,14.26,73.41,29.35c20.06,15.92,40.8,32.39,82.14,32.39s62.08-16.47,82.15-32.39c19.01-15.09,36.97-29.35,73.42-29.35s54.39,14.26,73.4,29.35c20.07,15.92,40.8,32.39,82.15,32.39s62.09-16.47,82.14-32.39c19.02-15.09,36.98-29.35,73.43-29.35s54.41,14.26,73.42,29.35c19.9,15.79,40.59,32.06,81.25,32.34l-.08-1.29c-.32-4.27-.56-8.56-.98-12.79-35.06-.53-52.81-14.45-71.46-29.25-20.06-15.92-40.82-32.39-82.15-32.39s-62.1,16.47-82.15,32.39c-19.02,15.1-36.97,29.35-73.42,29.35s-54.41-14.25-73.42-29.35c-20.06-15.92-40.81-32.39-82.13-32.39s-62.09,16.47-82.15,32.39c-19.02,15.1-36.98,29.35-73.42,29.35s-54.4-14.25-73.41-29.35c-20.06-15.92-40.8-32.39-82.14-32.39s-62.08,16.47-82.13,32.39c-19.01,15.1-36.98,29.35-73.41,29.35s-54.4-14.25-73.42-29.35c-16.14-12.82-32.92-25.83-60.32-30.48-.98,4.56-1.85,9.17-2.7,13.77,24.17,4.05,38.98,15.54,54.3,27.7,20.06,15.92,40.8,32.39,82.14,32.39"/>
      </g>
      <g id="path34">
        <path class="cls-1" d="M146.13,350.51c40.35,0,60.71-16.16,80.39-31.78,19.4-15.41,37.73-29.96,75.15-29.96s55.75,14.56,75.16,29.96c19.69,15.62,40.04,31.78,80.39,31.78s60.71-16.15,80.4-31.78c19.4-15.41,37.74-29.96,75.16-29.96s55.75,14.56,75.15,29.96c19.69,15.62,40.04,31.78,80.4,31.78s60.71-16.15,80.41-31.78c19.41-15.41,37.74-29.96,75.17-29.96s55.75,14.56,75.17,29.96c13.06,11.55,28.18,20.53,44.57,26.46-1.37-3.52-2.73-7.03-4.15-10.51-12.75-5.79-24.6-13.38-35.18-22.55-19.68-15.62-40.05-31.79-80.4-31.79s-60.72,16.16-80.41,31.79c-19.41,15.4-37.74,29.96-75.16,29.96s-55.75-14.55-75.16-29.96c-19.69-15.62-40.03-31.79-80.39-31.79s-60.71,16.16-80.4,31.79c-19.41,15.4-37.74,29.96-75.16,29.96s-55.75-14.55-75.16-29.96c-19.69-15.62-40.04-31.79-80.39-31.79s-60.71,16.16-80.39,31.79c-19.4,15.4-37.74,29.96-75.16,29.96s-55.75-14.55-75.16-29.96c-4.74-3.76-9.54-7.55-14.63-11.15-1.27,2.56-2.55,5.09-3.78,7.66,4.48,3.22,8.82,6.62,13.18,10.08,19.69,15.62,40.04,31.78,80.39,31.78"/>
      </g>
    </g>
  </g>
</svg>