<?xml version="1.0" encoding="utf-8"?>
<!-- Generator: Adobe Illustrator 28.3.0, SVG Export Plug-In . SVG Version: 6.00 Build 0)  -->
<svg version="1.1" id="Layer_1" xmlns="http://www.w3.org/2000/svg" xmlns:xlink="http://www.w3.org/1999/xlink" x="0px" y="0px"
	 width="495.5px" height="800px" viewBox="0 0 495.5 800" style="enable-background:new 0 0 495.5 800;" xml:space="preserve">
<style type="text/css">
	.st0{fill-rule:evenodd;clip-rule:evenodd;fill:url(#SVGID_1_);}
	.st1{fill-rule:evenodd;clip-rule:evenodd;fill:url(#SVGID_00000165920938464570545280000016852323768038018456_);}
	.st2{fill-rule:evenodd;clip-rule:evenodd;fill:url(#SVGID_00000031185914692663912030000011025479899405417643_);}
	.st3{fill:#FFFFFF;fill-opacity:0.85;}
	.st4{fill-rule:evenodd;clip-rule:evenodd;fill:#FFFFFF;fill-opacity:0.9;}
	.st5{fill-rule:evenodd;clip-rule:evenodd;fill:url(#_x34__00000098212205705692172350000004834775967361384634_);}
	.st6{fill-rule:evenodd;clip-rule:evenodd;fill:url(#_x37__00000033358687681651361530000009733346821143826311_);}
	.st7{fill-rule:evenodd;clip-rule:evenodd;fill:url(#_x31_0_00000127012921083566570160000016497916423946514577_);}
	.st8{fill:#FFFFFF;fill-opacity:0.8538;}
	.st9{fill-rule:evenodd;clip-rule:evenodd;fill:#FFFFFF;fill-opacity:0.8955;}
	.st10{fill-rule:evenodd;clip-rule:evenodd;fill:url(#_x34__00000150059970893128042270000007475854604696859812_);}
	.st11{fill-rule:evenodd;clip-rule:evenodd;fill:url(#_x37__00000130610147622844658300000014520506013772163748_);}
	.st12{fill-rule:evenodd;clip-rule:evenodd;fill:url(#_x31_0_00000041254509323764701000000005614648637681919111_);}
	.st13{fill-rule:evenodd;clip-rule:evenodd;fill:url(#SVGID_00000058566812623118913170000008025017897281508992_);}
	.st14{fill-rule:evenodd;clip-rule:evenodd;fill:url(#SVGID_00000111149473151425038510000014934547000654039203_);}
	.st15{fill-rule:evenodd;clip-rule:evenodd;fill:url(#SVGID_00000152950176657715452710000015094870730023594377_);}
	.st16{fill-rule:evenodd;clip-rule:evenodd;fill:url(#_x34__00000008138979553777621830000011948596420201189547_);}
	.st17{fill-rule:evenodd;clip-rule:evenodd;fill:url(#_x37__00000076581842775320135980000005601578344223036559_);}
	.st18{fill-rule:evenodd;clip-rule:evenodd;fill:url(#_x31_0_00000063625011678015574400000014187962313949862819_);}
	.st19{fill-rule:evenodd;clip-rule:evenodd;fill:url(#SVGID_00000116952935373599953690000000321369513048679335_);}
	.st20{fill-rule:evenodd;clip-rule:evenodd;fill:url(#SVGID_00000152958500612950750370000015791962919440324250_);}
	.st21{fill-rule:evenodd;clip-rule:evenodd;fill:url(#SVGID_00000013900136071714531930000012077083221041408911_);}
	.st22{fill-rule:evenodd;clip-rule:evenodd;fill:url(#SVGID_00000181070190356685081730000009019585069322015671_);}
	.st23{fill-rule:evenodd;clip-rule:evenodd;fill:url(#SVGID_00000137126122837758603530000002876926469963550603_);}
	.st24{fill-rule:evenodd;clip-rule:evenodd;fill:url(#SVGID_00000013896115799865073950000013973825438084583070_);}
	.st25{fill:#FFFFFF;}
	.st26{fill-rule:evenodd;clip-rule:evenodd;fill:url(#SVGID_00000079468007692487197490000002301354442983489414_);}
	.st27{fill-rule:evenodd;clip-rule:evenodd;fill:url(#SVGID_00000121986083649898149080000001665960961471412396_);}
	.st28{fill-rule:evenodd;clip-rule:evenodd;fill:url(#SVGID_00000156588326921884316940000017643306945973032371_);}
	.st29{fill-rule:evenodd;clip-rule:evenodd;fill:url(#SVGID_00000165932161911094741850000009527408987851854211_);}
	.st30{fill-rule:evenodd;clip-rule:evenodd;fill:url(#SVGID_00000121984854785512252870000017328605431900049077_);}
	.st31{fill-rule:evenodd;clip-rule:evenodd;fill:url(#SVGID_00000000904696488990915060000010564400119312235699_);}
</style>
<g>
	<g>
		
			<linearGradient id="SVGID_1_" gradientUnits="userSpaceOnUse" x1="703.0629" y1="269.9868" x2="505.4073" y2="146.9741" gradientTransform="matrix(1 0 0 1 -256 91.24)">
			<stop  offset="0.53" style="stop-color:#BCBCBC"/>
			<stop  offset="1" style="stop-color:#C4C4C4"/>
		</linearGradient>
		<path class="st0" d="M453.4,119.9L243.1,239.8v239.8l210.4-120.1V119.9"/>
		
			<linearGradient id="SVGID_00000124151936382774876800000007067266633729838780_" gradientUnits="userSpaceOnUse" x1="288.6849" y1="208.4848" x2="499.0563" y2="208.4848" gradientTransform="matrix(1 0 0 1 -256 91.24)">
			<stop  offset="0" style="stop-color:#B0B0B0"/>
			<stop  offset="1" style="stop-color:#ACACAC"/>
		</linearGradient>
		<path style="fill-rule:evenodd;clip-rule:evenodd;fill:url(#SVGID_00000124151936382774876800000007067266633729838780_);" d="
			M243.1,239.8L32.7,119.9v239.8l210.4,119.9V239.8"/>
		
			<linearGradient id="SVGID_00000067225858129494328760000014519439824906208906_" gradientUnits="userSpaceOnUse" x1="502.7343" y1="-91.127" x2="495.3794" y2="148.4082" gradientTransform="matrix(1 0 0 1 -256 91.24)">
			<stop  offset="0" style="stop-color:#D6D5D5"/>
			<stop  offset="0.41" style="stop-color:#CECECD"/>
			<stop  offset="1" style="stop-color:#DDDDDD"/>
		</linearGradient>
		<path style="fill-rule:evenodd;clip-rule:evenodd;fill:url(#SVGID_00000067225858129494328760000014519439824906208906_);" d="
			M243.1,239.8L32.7,119.9L243.1,0l210.4,119.9L243.1,239.8"/>
		<path class="st3" d="M243.1,119.9l105.2,59.9v119.9l-105.2,59.9l-105.2-59.9V179.8L243.1,119.9z"/>
		<path class="st4" d="M137.9,299.7v-14.8L32.7,344.4v15.3l13,7.4L152,307.9L137.9,299.7z"/>
		<path class="st4" d="M243.1,119.9l13.5,7.7V7.7L243.1,0l-13.5,7.7v119.9L243.1,119.9z"/>
		<path class="st4" d="M348.2,299.7v-14.8l105.2,60v14.6l-13.3,7.6L335,307.4L348.2,299.7z"/>
	</g>
	<g>
		<g>
			<path class="st25" d="M54.4,637.1c4.6-5,9.3-10.1,14.2-15.5c4.9-5.4,9.6-10.7,14.2-16c4.6-5.3,8.9-10.3,12.9-15
				c4.1-4.8,7.5-8.9,10.4-12.4h55.3c-11,12.7-21.8,24.8-32.3,36.3c-10.5,11.5-22,23.4-34.5,35.7c6.2,5.6,12.7,12.4,19.3,20.2
				c6.7,7.8,13.1,15.9,19.4,24.2c6.2,8.3,12,16.7,17.2,25c5.2,8.3,9.6,15.9,13.1,22.8h-53.5c-3.3-5.4-7.1-11.4-11.4-18
				c-4.3-6.6-8.8-13.1-13.6-19.7c-4.8-6.6-9.8-12.9-15.1-18.9c-5.3-6-10.5-11.2-15.7-15.3v72H7.9V507.6l46.5-7.5V637.1z"/>
			<path class="st25" d="M169.6,660.2c0-11.9,1.9-23,5.8-33.5c3.8-10.5,9.4-19.7,16.7-27.5c7.3-7.8,16.1-14,26.5-18.6
				c10.4-4.6,22.3-6.9,35.6-6.9c8.7,0,16.7,0.8,24,2.3c7.3,1.6,14.4,3.8,21.2,6.7l-9.7,37.1c-4.4-1.7-9.2-3.1-14.4-4.4
				c-5.2-1.2-11-1.9-17.5-1.9c-13.7,0-24,4.3-30.7,12.8c-6.8,8.5-10.1,19.8-10.1,33.7c0,14.8,3.2,26.2,9.5,34.3
				c6.3,8.1,17.4,12.2,33.2,12.2c5.6,0,11.6-0.5,18.1-1.6c6.4-1,12.4-2.7,17.8-5l6.6,38.1c-5.4,2.3-12.2,4.3-20.3,5.9
				c-8.1,1.7-17.1,2.5-26.8,2.5c-15,0-27.9-2.2-38.7-6.7c-10.8-4.5-19.7-10.6-26.7-18.3c-7-7.7-12.1-16.8-15.3-27.3
				C171.2,683.9,169.6,672.5,169.6,660.2z"/>
			<path class="st25" d="M486,660.2c0,12.7-1.6,24.2-4.7,34.6c-3.1,10.4-7.7,19.4-13.7,26.8c-6,7.5-13.5,13.3-22.5,17.5
				c-8.9,4.2-19.2,6.2-30.9,6.2c-6.5,0-12.5-0.6-18.1-1.9c-5.6-1.2-11-3-16.2-5.3V800h-46.5V583.7c4.2-1.2,8.9-2.4,14.4-3.6
				c5.4-1.1,11.1-2.1,17-3c5.9-0.8,12-1.5,18.1-2c6.1-0.5,12-0.8,17.6-0.8c13.5,0,25.6,2,36.2,6.1c10.6,4.1,19.6,9.8,26.8,17.2
				c7.3,7.4,12.8,16.4,16.7,27C484.1,635.2,486,647.1,486,660.2z M438.6,661.4c0-14.4-3.2-25.8-9.7-34.5c-6.5-8.6-16-13-28.7-13
				c-4.2,0-8,0.2-11.5,0.5c-3.5,0.3-6.5,0.7-8.7,1.1v84c2.9,1.9,6.7,3.4,11.4,4.7s9.4,1.9,14.2,1.9
				C427.6,706.1,438.6,691.2,438.6,661.4z"/>
		</g>
	</g>
</g>
</svg>
