<svg id="Layer_1" data-name="Layer 1" xmlns="http://www.w3.org/2000/svg" viewBox="0 0 180 180"><path d="M176.79765,111.42677c-.50622-2.77122-1.22288-5.50417-1.85322-8.25248q-3.28-14.30128-6.5657-28.60112c-2.10792-9.16807-4.27476-18.323-6.30983-27.5071-.93207-4.20646-3.06883-7.34133-7.02034-9.19611-4.77252-2.24037-9.52134-4.53153-14.27926-6.80311Q117.89508,20.14645,95.01951,9.2294a11.20178,11.20178,0,0,0-10.03817-.03088q-16.61751,7.89822-33.20677,15.856c-9.15528,4.37585-18.31949,8.73323-27.45829,13.14328a10.83131,10.83131,0,0,0-6.05594,7.47278c-1.65429,6.87551-3.20177,13.77688-4.78708,20.669C10.12506,80.89505,6.80507,95.457,3.4192,110.00383a11.77588,11.77588,0,0,0,2.0857,10.56725c4.67721,5.88591,9.40869,11.72874,14.12176,17.58624q1.31509,1.63444,2.631,3.26835h46.4428c-2.18038-4.278-4.22643-8.60982-6.199-12.97133-1.90524-4.21273-3.7454-8.45162-5.56571-12.6985a7.78264,7.78264,0,0,1-.39443-5.0027c.86126-3.52422,7.63215-10.584,7.63215-10.584-.52865-1.285-.948-2.60622-1.35486-3.93165a31.30288,31.30288,0,0,0-3.475-8.48764q-8.53691,4.11212-16.20821-1.2642a11.43469,11.43469,0,0,1-3.88118-4.4626,10.2988,10.2988,0,0,1-.53534-1.34566,5.15414,5.15414,0,0,1-2.83164-1.52072C34.734,78.05955,33.75387,76.90442,34.48,75.25451c.69231-1.57316,2.16657-1.77974,3.75788-1.72676,3.4754-1.58349,6.96162-3.14729,10.41884-4.76407a6.75187,6.75187,0,0,1,2.76281-.5576q1.01952-2.353,2.03882-4.706c2.5191-5.82608,7.4198-8.34068,13.95617-8.56787.7941-.02756,1.59088.0098,2.38648.01718-.73507-6.3185-.64077-12.545,2.49544-18.41015A24.57666,24.57666,0,0,1,83.38656,26.15845c1.41031-.70719,3.018-.56885,3.58721.66351a22.701,22.701,0,0,1,6.9011-3.90136c3.80524-1.3106,5.17037.13,6.22875,3.824,1.3547,4.728-.26508,9.04953-2.28142,13.27793-2.92284,6.12932-7.13557,11.51521-11.57858,16.74912a3.9572,3.9572,0,0,0-1.13432,3.576,67.77262,67.77262,0,0,0,4.85147,15.92376q.49113.50605.98243,1.01138c2.40521-3.168,5.8804-5.32815,8.85579-7.95487,3.27092-2.88762,6.78395-5.54008,10.152-8.33575l2.11546-1.58c4.545-4.10489,8.46639-4.667,12.85953-1.83331a7.21689,7.21689,0,0,1,3.24844,4.54828,77.12878,77.12878,0,0,1,3.467,16.1906c.99068,12.3677-1.62507,24.51534-4.73843,36.50605-1.18944,4.5811-2.48078,9.13018-3.921,13.63057q-2.10125,6.5661-4.6916,12.97133h39.397q8.45044-10.50177,16.88013-21.02007A10.78912,10.78912,0,0,0,176.79765,111.42677Z"/><path d="M56.41375,71.51991c1.58317-1.29181,2.58872-2.74788,1.60185-4.77782a1.61343,1.61343,0,0,0-1.58649-1.10354c-.7978.02216-1.00368.60165-1.2961,1.11783a3.10331,3.10331,0,0,0-.19663.41541,3.27208,3.27208,0,0,0-.19834.84119,4.3551,4.3551,0,0,0-.0214.53117l.00139.02189a12.06891,12.06891,0,0,0,.18335,1.58547l.00064.00038Q55.65847,70.83537,56.41375,71.51991Z"/><path d="M81.99628,54.50958c6.791-7.00658,12.06265-14.7598,13.62516-24.26733.23158-1.4087.86485-3.37383-.31875-4.11046-.77526-.48241-2.42549,1.167-3.49516,2.12462-8.41079,7.52918-11.16317,17.13476-12.11632,27.965A21.1287,21.1287,0,0,0,81.99628,54.50958Z"/></svg>