<svg width="356" height="132" viewBox="0 0 356 132" fill="none" xmlns="http://www.w3.org/2000/svg">
<rect width="24.7561" height="24.7561" transform="matrix(-0.866041 0.499972 0.866041 0.499972 47.2544 4.10938)" fill="#D4D4D4"/>
<path fill-rule="evenodd" clip-rule="evenodd" d="M47.2545 28.8631L25.8154 16.4844L25.8156 21.5612L25.8154 21.5611L25.816 41.2476L25.8125 41.2455L25.8133 66.0017L47.2523 78.3804L47.2517 58.6939L47.2552 58.696L47.2551 53.6191L47.2552 53.6192L47.2545 28.8631Z" fill="#BFBFBF"/>
<rect width="24.7561" height="24.7561" transform="matrix(-3.17834e-05 1 0.866009 -0.500028 4.37451 53.6211)" fill="#999999"/>
<rect width="24.7561" height="24.7561" transform="matrix(-0.866009 -0.500028 3.18033e-05 1 47.2568 103.129)" fill="#BFBFBF"/>
<path fill-rule="evenodd" clip-rule="evenodd" d="M25.8125 65.9922L4.37265 78.3696L25.8125 90.7469L25.8171 90.7443L25.8238 90.7481L25.8171 90.752L47.257 103.129L68.6968 90.752L47.257 78.3746L47.2372 78.386L47.2305 78.3821L47.2523 78.3696L25.8125 65.9922Z" fill="#D4D4D4"/>
<path fill-rule="evenodd" clip-rule="evenodd" d="M68.6972 90.7558L47.2581 103.135L47.2573 127.891L68.6916 115.515V115.525L90.1306 103.146L90.1314 78.3898L68.6972 90.7658V90.7558Z" fill="#999999"/>
<rect width="24.7561" height="24.7561" transform="matrix(0.866041 -0.499972 -0.866041 -0.499972 90.1318 127.895)" fill="#D4D4D4"/>
<rect width="24.7561" height="24.7561" transform="matrix(-0.86601 0.500028 -3.19781e-05 1 133.013 53.6133)" fill="#999999"/>
<path fill-rule="evenodd" clip-rule="evenodd" d="M111.572 65.992L90.1334 53.6133L90.1342 78.3694L90.1743 78.3926L90.1743 78.4082L90.131 78.3832L90.1318 103.139L111.571 115.518L111.57 90.7619L111.537 90.7426L111.537 90.727L111.573 90.7481L111.572 65.992Z" fill="#BFBFBF"/>
<path fill-rule="evenodd" clip-rule="evenodd" d="M68.6952 16.4823L47.2562 28.8611L47.2554 53.6172L63.1859 44.419L63.1859 44.4712L84.6249 32.0925V32.0525L90.1325 28.8725L90.1332 4.11636L68.6952 16.4945V16.4823Z" fill="#999999"/>
<rect width="24.7561" height="24.7561" transform="matrix(0.86601 0.500028 -3.18907e-05 -1 90.1338 28.8672)" fill="#BFBFBF"/>
<path fill-rule="evenodd" clip-rule="evenodd" d="M111.573 41.2374L111.565 41.2418L90.1337 28.8692L68.6938 41.2465L74.9377 44.8511L74.8191 44.9196L96.2589 57.297L96.385 57.2241L111.573 65.9922L133.013 53.6148L111.573 41.2374Z" fill="#D4D4D4"/>
<path d="M193.274 86.5L178.751 68.7176V86.5H170.746V46.5896H178.751V64.4864L193.274 46.5896H202.937L186.47 66.3733L203.395 86.5H193.274ZM206.602 70.5473C206.602 67.3453 207.231 64.5054 208.489 62.0277C209.785 59.55 211.519 57.6441 213.692 56.3099C215.903 54.9757 218.361 54.3087 221.068 54.3087C223.431 54.3087 225.49 54.7851 227.243 55.7381C229.035 56.6911 230.464 57.8918 231.531 59.3403V54.8233H239.594V86.5H231.531V81.8686C230.502 83.3552 229.073 84.5941 227.243 85.5851C225.452 86.5381 223.374 87.0146 221.011 87.0146C218.342 87.0146 215.903 86.3285 213.692 84.9562C211.519 83.5839 209.785 81.6589 208.489 79.1812C207.231 76.6653 206.602 73.7874 206.602 70.5473ZM231.531 70.6616C231.531 68.7176 231.15 67.0594 230.388 65.6871C229.626 64.2767 228.596 63.2094 227.3 62.4851C226.004 61.7228 224.613 61.3416 223.126 61.3416C221.64 61.3416 220.267 61.7037 219.009 62.428C217.751 63.1522 216.722 64.2195 215.922 65.6299C215.159 67.0022 214.778 68.6413 214.778 70.5473C214.778 72.4532 215.159 74.1304 215.922 75.579C216.722 76.9894 217.751 78.0757 219.009 78.8381C220.305 79.6005 221.678 79.9817 223.126 79.9817C224.613 79.9817 226.004 79.6196 227.3 78.8953C228.596 78.1329 229.626 77.0656 230.388 75.6933C231.15 74.2829 231.531 72.6057 231.531 70.6616ZM251.471 51.0495C250.061 51.0495 248.879 50.6111 247.926 49.7344C247.012 48.8195 246.554 47.695 246.554 46.3609C246.554 45.0267 247.012 43.9213 247.926 43.0445C248.879 42.1297 250.061 41.6723 251.471 41.6723C252.882 41.6723 254.044 42.1297 254.959 43.0445C255.912 43.9213 256.389 45.0267 256.389 46.3609C256.389 47.695 255.912 48.8195 254.959 49.7344C254.044 50.6111 252.882 51.0495 251.471 51.0495ZM255.417 54.8233V86.5H247.412V54.8233H255.417ZM271.331 59.7406C272.36 58.0634 273.694 56.7483 275.333 55.7953C277.01 54.8423 278.916 54.3658 281.051 54.3658V62.771H278.935C276.419 62.771 274.514 63.3619 273.218 64.5436C271.96 65.7252 271.331 67.7837 271.331 70.7188V86.5H263.326V54.8233H271.331V59.7406ZM300.509 87.0146C297.459 87.0146 294.714 86.3475 292.275 85.0134C289.835 83.6411 287.91 81.7161 286.5 79.2384C285.128 76.7606 284.441 73.9017 284.441 70.6616C284.441 67.4215 285.147 64.5626 286.557 62.0849C288.006 59.6072 289.969 57.7012 292.446 56.3671C294.924 54.9948 297.688 54.3087 300.737 54.3087C303.787 54.3087 306.55 54.9948 309.028 56.3671C311.506 57.7012 313.45 59.6072 314.86 62.0849C316.309 64.5626 317.033 67.4215 317.033 70.6616C317.033 73.9017 316.29 76.7606 314.803 79.2384C313.355 81.7161 311.372 83.6411 308.857 85.0134C306.379 86.3475 303.596 87.0146 300.509 87.0146ZM300.509 80.0389C301.957 80.0389 303.31 79.6958 304.568 79.0097C305.864 78.2854 306.893 77.2181 307.656 75.8077C308.418 74.3973 308.799 72.6819 308.799 70.6616C308.799 67.6502 307.999 65.3441 306.398 63.7431C304.835 62.104 302.91 61.2844 300.623 61.2844C298.336 61.2844 296.411 62.104 294.848 63.7431C293.323 65.3441 292.561 67.6502 292.561 70.6616C292.561 73.673 293.304 75.9983 294.791 77.6374C296.315 79.2384 298.221 80.0389 300.509 80.0389ZM335.027 87.0146C332.435 87.0146 330.109 86.5572 328.051 85.6423C325.993 84.6894 324.353 83.4124 323.134 81.8114C321.952 80.2104 321.304 78.4379 321.19 76.4938H329.252C329.404 77.7136 329.995 78.7238 331.024 79.5243C332.092 80.3248 333.407 80.725 334.97 80.725C336.494 80.725 337.676 80.42 338.515 79.8101C339.391 79.2002 339.83 78.4188 339.83 77.4658C339.83 76.4366 339.296 75.6743 338.229 75.1787C337.199 74.645 335.541 74.0733 333.254 73.4634C330.891 72.8916 328.947 72.3007 327.422 71.6908C325.935 71.0809 324.639 70.147 323.534 68.8891C322.467 67.6312 321.933 65.9349 321.933 63.8002C321.933 62.0468 322.428 60.4458 323.42 58.9973C324.449 57.5488 325.897 56.4052 327.765 55.5666C329.671 54.728 331.901 54.3087 334.455 54.3087C338.229 54.3087 341.24 55.2616 343.489 57.1676C345.738 59.0354 346.977 61.5703 347.206 64.7723H339.544C339.429 63.5144 338.896 62.5233 337.943 61.799C337.028 61.0366 335.789 60.6554 334.226 60.6554C332.778 60.6554 331.653 60.9223 330.853 61.4559C330.09 61.9896 329.709 62.7329 329.709 63.6859C329.709 64.7532 330.243 65.5728 331.31 66.1445C332.377 66.6782 334.036 67.2309 336.285 67.8027C338.572 68.3745 340.459 68.9653 341.945 69.5752C343.432 70.1851 344.709 71.1381 345.776 72.4342C346.882 73.6921 347.453 75.3693 347.492 77.4658C347.492 79.2955 346.977 80.9347 345.948 82.3832C344.957 83.8317 343.508 84.9752 341.602 85.8139C339.734 86.6144 337.543 87.0146 335.027 87.0146Z" fill="white"/>
</svg>
