<svg version="1.1" id="Layer_1" xmlns="http://www.w3.org/2000/svg" xmlns:xlink="http://www.w3.org/1999/xlink" x="0px" y="0px"
	 width="100%" viewBox="0 0 1024 1024" enable-background="new 0 0 1024 1024" xml:space="preserve">
<path fill="#000000" opacity="1.000000" stroke="none" 
	d="
M530.521484,612.645691 
	C511.061249,613.710510 492.120087,612.622192 473.160797,611.525024 
	C445.017883,609.896362 417.271301,605.535767 389.847473,599.321777 
	C354.264160,591.258911 320.038818,579.307678 288.746155,560.164246 
	C270.313171,548.887756 253.364792,535.697083 241.050659,517.507324 
	C219.184067,485.207153 220.132935,452.016449 244.184479,421.352692 
	C261.858826,398.819427 285.271057,383.673981 310.747009,371.423126 
	C353.549988,350.840210 399.025024,340.055817 445.957611,334.618927 
	C472.291443,331.568268 498.709137,330.103333 525.209961,330.784943 
	C582.680176,332.263062 638.928467,340.715515 692.763855,361.712799 
	C721.194336,372.801514 747.825134,387.179657 769.877502,408.776367 
	C785.988342,424.554291 797.650513,442.867950 799.773682,465.978058 
	C802.097534,491.273163 791.253296,511.651855 774.945312,529.635864 
	C756.359253,550.132019 733.005920,563.891357 708.141907,575.250732 
	C675.366272,590.224609 640.881836,599.477417 605.410095,605.292297 
	C580.760437,609.333069 555.986206,612.107666 530.521484,612.645691 
M599.645142,356.041840 
	C581.075928,353.081665 562.436401,350.981140 543.631470,349.991974 
	C515.135681,348.493073 486.642212,348.558716 458.326599,351.648041 
	C418.216034,356.024261 378.638550,363.322754 340.877136,378.336853 
	C312.001923,389.817749 285.082428,404.246185 263.407928,427.254944 
	C239.348831,452.795135 237.656235,484.447418 259.502380,511.773346 
	C273.078491,528.754883 290.578735,540.921936 309.493835,550.987732 
	C343.468658,569.067627 380.053284,579.738342 417.709503,586.557739 
	C454.993683,593.309814 492.660492,595.218811 530.583862,594.143738 
	C573.414978,592.929504 615.392334,587.134216 656.476746,574.837524 
	C685.205261,566.238953 712.673706,554.984131 737.463257,537.839539 
	C750.574341,528.771851 762.407166,518.351379 771.153259,504.823242 
	C785.648438,482.402618 785.241028,459.954498 770.627380,437.868469 
	C760.325195,422.298492 746.106079,410.669312 730.404358,400.993073 
	C690.480042,376.389526 646.435669,363.494263 599.645142,356.041840 
z"/>
<path fill="#000000" opacity="1.000000" stroke="none" 
	d="
M371.088196,692.682861 
	C381.397491,692.684265 391.221802,692.807983 401.040497,692.627197 
	C404.827332,692.557495 406.356201,693.698853 406.368378,697.712036 
	C406.397369,707.263306 406.575073,707.273254 397.017639,707.288757 
	C387.195618,707.304626 377.373474,707.321228 367.551575,707.284912 
	C364.695129,707.274353 362.174591,707.308411 362.217194,711.305908 
	C362.260834,715.395813 365.139740,714.629028 367.497284,714.639648 
	C378.650940,714.690002 389.807892,714.811157 400.957214,714.585999 
	C405.145935,714.501465 406.762238,716.024353 406.304749,720.082642 
	C406.175079,721.232849 406.188202,722.422668 406.316650,723.574158 
	C406.762909,727.574951 405.253601,729.268311 401.016235,729.210144 
	C387.867218,729.029846 374.713379,729.236389 361.562775,729.125854 
	C352.610809,729.050598 347.702301,724.012146 347.664246,715.117554 
	C347.620056,704.796265 347.605713,694.474243 347.675690,684.153259 
	C347.732971,675.711182 352.612579,670.753845 360.943970,670.702820 
	C374.261566,670.621277 387.581573,670.765991 400.896729,670.563721 
	C405.032501,670.500854 406.785370,671.956055 406.298920,676.064880 
	C406.201782,676.885437 406.292999,677.727905 406.292847,678.560303 
	C406.291687,685.265320 406.291412,685.282166 399.705933,685.289185 
	C389.217957,685.300232 378.729675,685.239258 368.242279,685.316406 
	C365.647614,685.335449 362.264313,684.199524 362.184509,688.926025 
	C362.104095,693.688232 365.486572,692.477173 368.104248,692.675415 
	C368.931976,692.738098 369.768463,692.684143 371.088196,692.682861 
M369.528381,696.236755 
	C358.104370,696.059082 358.745667,697.782104 358.575928,687.294800 
	C358.506805,683.023071 359.794800,681.408813 364.262634,681.519104 
	C375.248840,681.790405 386.246399,681.591064 397.239410,681.604980 
	C399.962219,681.608459 402.679626,681.998962 402.687042,677.805664 
	C402.694214,673.741455 399.966431,674.349854 397.538513,674.343323 
	C385.879333,674.312012 374.220001,674.291809 362.560883,674.324829 
	C354.752167,674.346985 351.368317,677.727783 351.322357,685.595764 
	C351.266907,695.089417 351.286285,704.583740 351.327271,714.077515 
	C351.359619,721.577454 354.838196,725.466858 362.160461,725.315369 
	C374.152161,725.067383 386.131287,724.958435 398.109711,725.618591 
	C400.759857,725.764709 402.609283,725.270630 402.689636,721.939087 
	C402.773376,718.467102 400.773987,718.278259 398.193298,718.286926 
	C387.200439,718.324036 376.207336,718.302612 365.214355,718.280823 
	C358.661560,718.267761 358.660583,718.249634 358.653961,711.574768 
	C358.652985,710.575439 358.776825,709.562622 358.655334,708.579163 
	C358.128296,704.311768 360.325348,703.046448 364.199799,703.087341 
	C375.357086,703.205017 386.516388,703.132385 397.673798,703.242798 
	C400.096832,703.266846 402.395416,703.803162 402.670044,700.205994 
	C402.952850,696.500977 400.826630,696.210815 398.004120,696.230164 
	C388.843781,696.292908 379.682617,696.244141 369.528381,696.236755 
z"/>
<path fill="#000000" opacity="1.000000" stroke="none" 
	d="
M619.651611,707.982300 
	C619.657410,699.655457 619.586731,691.824219 619.690979,683.995300 
	C619.802002,675.664734 624.806213,670.759338 633.211121,670.709717 
	C646.372253,670.632080 659.536743,670.793701 672.693848,670.542786 
	C677.124329,670.458313 678.856445,672.017273 678.317322,676.340515 
	C678.174133,677.488464 678.192139,678.682922 678.325562,679.834045 
	C678.801025,683.933655 677.106750,685.437561 672.940979,685.359314 
	C661.782593,685.149475 650.617615,685.309692 639.455505,685.260742 
	C636.603455,685.248291 634.110291,685.185364 634.219604,689.262268 
	C634.327454,693.287354 637.071289,692.662842 639.481384,692.670471 
	C650.643555,692.705933 661.808777,692.833435 672.966614,692.609680 
	C677.157715,692.525696 678.779053,694.050110 678.315674,698.114990 
	C678.184448,699.265747 678.185303,700.459534 678.327576,701.608643 
	C678.870911,705.994507 676.994568,707.449219 672.629883,707.354980 
	C661.639404,707.117737 650.640198,707.298462 639.644592,707.274353 
	C636.824951,707.268127 634.251160,707.209534 634.264465,711.250061 
	C634.277893,715.331604 637.102234,714.636719 639.490356,714.644836 
	C650.652527,714.682739 661.817810,714.804138 672.975586,714.577942 
	C677.163818,714.493103 678.803894,716.009766 678.307312,720.076843 
	C678.207092,720.897278 678.300293,721.741028 678.299500,722.574036 
	C678.293213,729.095947 678.292908,729.128235 671.521790,729.141968 
	C659.359985,729.166626 647.197876,729.183228 635.036194,729.137695 
	C624.312866,729.097595 619.686768,724.345520 619.654663,713.477173 
	C619.649780,711.811096 619.652710,710.144958 619.651611,707.982300 
M644.509399,674.294678 
	C641.179688,674.297241 637.849609,674.267883 634.520325,674.308899 
	C626.781555,674.404114 623.370911,677.837891 623.330139,685.690491 
	C623.281738,695.013306 623.300964,704.336670 623.333191,713.659668 
	C623.360779,721.656128 626.715698,725.335876 634.770630,725.490295 
	C646.578003,725.716553 658.392273,725.556396 670.203064,725.643982 
	C672.915771,725.664124 674.635559,725.132935 674.693237,721.859253 
	C674.755371,718.326416 672.635986,718.281677 670.124329,718.287720 
	C659.968933,718.312317 649.813416,718.287048 639.657898,718.280640 
	C630.489746,718.274841 630.638672,718.275391 630.653809,708.894470 
	C630.659790,705.158142 631.742615,703.553284 635.703735,703.384949 
	C647.023010,702.903931 658.335815,703.041992 669.648804,703.274719 
	C672.350098,703.330322 674.627991,703.787598 674.701294,699.874207 
	C674.775696,695.903748 672.208191,696.255310 669.681458,696.252319 
	C659.692444,696.240601 649.703369,696.233093 639.714355,696.223999 
	C630.465393,696.215637 630.624390,696.216309 630.665039,686.821411 
	C630.681641,682.974915 631.907227,681.509216 635.851990,681.569641 
	C647.336548,681.745544 658.825928,681.572754 670.312866,681.640259 
	C673.117493,681.656738 674.685791,680.927979 674.687683,677.736877 
	C674.689575,674.581970 672.898926,674.307434 670.478516,674.317566 
	C662.154602,674.352539 653.830322,674.309143 644.509399,674.294678 
z"/>
<path fill="#000000" opacity="1.000000" stroke="none" 
	d="
M256.767944,707.999878 
	C256.767334,697.510620 256.954102,687.516296 256.686157,677.534180 
	C256.555908,672.682190 257.561401,669.721863 263.185638,670.543579 
	C264.147675,670.684021 265.175140,670.437744 266.165314,670.313843 
	C270.011230,669.832581 271.659363,671.388000 271.449646,675.368408 
	C271.222260,679.684570 271.390137,684.023132 271.436096,688.351379 
	C271.451538,689.806885 271.099854,691.563965 272.821381,692.300720 
	C274.652435,693.084290 275.970398,691.870972 277.184143,690.666687 
	C282.854706,685.040283 288.499298,679.387207 294.209290,673.801025 
	C296.868103,671.199829 311.104980,669.124268 314.177551,670.872253 
	C316.329834,672.096680 315.779144,674.360779 315.851196,676.264771 
	C316.186188,685.118103 316.147400,685.327881 307.446777,685.193665 
	C303.733734,685.136414 301.547516,687.029358 299.456329,689.421082 
	C296.320770,693.007324 290.319092,695.545166 290.398041,700.042908 
	C290.471100,704.202881 296.367065,706.710876 299.272552,710.311584 
	C302.173950,713.907227 305.775146,715.316589 310.243866,714.652893 
	C314.741455,713.984924 316.269470,716.155701 315.943268,720.326416 
	C315.800812,722.148438 315.887299,723.987488 315.776611,725.813171 
	C315.645874,727.969482 314.514099,729.072876 312.269440,729.174988 
	C303.856628,729.557434 295.736664,729.853516 289.824860,721.803101 
	C286.511932,717.291748 281.969818,713.680725 277.962799,709.682861 
	C276.657928,708.380920 275.287048,706.933594 273.214844,707.604736 
	C270.835724,708.375305 271.484314,710.550171 271.452087,712.282776 
	C271.371613,716.610107 271.349182,720.940308 271.410309,725.267822 
	C271.448975,728.005005 270.193756,729.001404 267.507324,729.212036 
	C257.194153,730.020508 256.778625,729.714661 256.765808,719.488098 
	C256.761230,715.825317 256.767090,712.162598 256.767944,707.999878 
M260.902985,683.570557 
	C260.872101,696.215454 260.917450,708.861328 260.748138,721.504333 
	C260.712830,724.142273 261.622620,725.049438 264.111389,725.208984 
	C266.672699,725.373169 267.804138,724.471252 267.764069,721.853577 
	C267.695374,717.362549 267.958588,712.860474 267.743011,708.379333 
	C267.533447,704.021912 269.712433,702.916321 273.554016,703.075745 
	C276.092224,703.181030 277.948883,704.223938 279.654755,705.967285 
	C283.960114,710.367004 288.574005,714.489258 292.619659,719.111755 
	C296.540070,723.591125 300.961609,725.894348 306.993164,725.153992 
	C309.277435,724.873596 311.717896,725.770630 311.774994,721.980896 
	C311.833710,718.086792 309.381958,718.305359 306.790405,718.291992 
	C304.820007,718.281799 302.619476,718.765015 301.043060,717.247498 
	C295.771393,712.173157 290.602936,706.991333 285.416473,701.828979 
	C284.360596,700.778015 283.818451,699.328552 285.121887,698.330200 
	C292.967133,692.321106 296.870758,680.724854 309.311157,681.198486 
	C311.361053,681.276550 311.734863,679.850830 311.718414,678.186646 
	C311.701660,676.493286 311.810577,674.531738 309.480072,674.451355 
	C304.071594,674.264709 298.684814,673.405212 294.347229,678.492493 
	C289.612549,684.045593 284.101349,688.934265 278.964630,694.148010 
	C276.229126,696.924500 272.804871,696.786438 269.660126,695.767639 
	C266.808319,694.843750 267.901459,691.804932 267.819855,689.614380 
	C267.671234,685.626282 267.733765,681.629211 267.756317,677.636169 
	C267.769196,675.353394 266.739349,674.312317 264.422424,674.336182 
	C262.170105,674.359497 261.000336,675.344421 260.961731,677.608887 
	C260.933350,679.272156 260.921783,680.935669 260.902985,683.570557 
z"/>
<path fill="#000000" opacity="1.000000" stroke="none" 
	d="
M768.365234,697.854492 
	C765.481445,706.361450 758.813354,707.666321 750.820007,707.324829 
	C754.063110,712.465393 757.508179,715.540222 763.285828,714.673584 
	C767.770569,714.000916 769.856018,715.808228 769.252441,720.485168 
	C769.040955,722.123535 769.164429,723.808655 769.180847,725.471985 
	C769.205627,727.988953 767.875244,728.899658 765.477417,729.126648 
	C756.474426,729.979187 748.362122,728.996643 742.351013,720.924500 
	C739.298401,716.825195 735.245972,713.467834 731.622131,709.798096 
	C730.336853,708.496521 729.016357,706.947510 726.933655,707.580872 
	C724.490051,708.324036 725.297058,710.570496 725.244141,712.258606 
	C725.119080,716.248291 725.054749,720.248901 725.208984,724.235657 
	C725.351624,727.926636 723.719604,729.120605 720.141479,729.191528 
	C710.091248,729.390747 710.089233,729.512024 710.087280,719.641907 
	C710.084534,705.499023 710.195557,691.354858 710.030640,677.213867 
	C709.975464,672.480835 711.296570,670.393616 716.546204,670.539368 
	C729.348206,670.894531 742.166687,670.629822 754.978455,670.667236 
	C763.061157,670.690857 767.829346,674.573059 768.913635,682.583130 
	C769.579102,687.499023 769.750732,692.531982 768.365234,697.854492 
M759.468201,718.278687 
	C750.769165,717.343201 748.107178,709.321045 742.159302,704.991821 
	C744.483887,702.548828 746.381165,703.520020 748.117798,703.525940 
	C763.144043,703.577454 767.203186,699.244202 765.486206,684.888977 
	C765.368225,683.902466 765.077454,682.936768 764.866821,681.961365 
	C763.810425,677.069641 760.738831,674.391174 755.781555,674.347534 
	C743.295532,674.237549 730.807495,674.363831 718.321289,674.265076 
	C715.293030,674.241150 714.188782,675.443176 714.202393,678.399902 
	C714.269226,692.884460 714.261597,707.369568 714.197021,721.854187 
	C714.184570,724.645508 715.318359,725.706665 718.083374,725.658325 
	C721.265259,725.602661 721.295593,723.776978 721.266968,721.326660 
	C721.210632,716.508484 721.538513,711.687195 721.595581,706.865845 
	C721.626221,704.277771 722.916016,703.443298 725.337097,703.347473 
	C728.669983,703.215393 731.348267,704.002686 733.740295,706.613647 
	C738.122681,711.397034 743.002686,715.724182 747.390503,720.503052 
	C750.794861,724.210693 754.619141,725.967102 759.718811,725.692444 
	C765.818481,725.364014 766.043945,725.311768 764.643555,718.884399 
	C763.297058,717.998596 761.754822,718.403870 759.468201,718.278687 
z"/>
<path fill="#000000" opacity="1.000000" stroke="none" 
	d="
M438.001648,696.000000 
	C438.021545,688.844788 438.091064,682.189270 438.041321,675.534546 
	C438.014709,671.972595 439.526489,670.579651 443.176880,670.617126 
	C456.818909,670.757324 470.463745,670.603882 484.106812,670.683716 
	C490.439392,670.720764 494.776917,674.239075 496.371460,680.337646 
	C497.698639,685.413696 497.614563,690.604065 496.781494,695.690125 
	C495.578094,703.037109 490.818359,707.055908 483.330505,707.228394 
	C475.514343,707.408508 467.691284,707.291565 459.871246,707.301453 
	C453.127014,707.309937 453.123932,707.308044 453.086853,714.274048 
	C453.071808,717.102539 452.903900,719.943237 453.105896,722.756897 
	C453.435669,727.350708 451.815765,729.787231 446.881287,729.135132 
	C446.390991,729.070251 445.884155,729.130676 445.385010,729.132141 
	C438.221954,729.153564 438.040314,728.988220 438.024048,721.957092 
	C438.004486,713.471375 438.008057,704.985718 438.001648,696.000000 
M452.546967,674.301697 
	C451.380554,674.301758 450.214172,674.301636 449.047760,674.301880 
	C442.211975,674.303223 442.189880,674.303284 442.181610,681.152161 
	C442.165955,694.149048 442.142242,707.146057 442.212830,720.142578 
	C442.225250,722.427551 441.233582,725.581238 445.347382,725.581055 
	C449.521179,725.580872 448.896271,722.443665 448.954376,719.855530 
	C449.029114,716.524536 449.205688,713.173462 448.943146,709.862366 
	C448.553894,704.952637 450.441376,702.856018 455.484406,703.046387 
	C462.139740,703.297607 468.834320,702.745483 475.472687,703.163452 
	C494.196259,704.342468 493.251068,698.675232 492.950653,684.320679 
	C492.807800,677.494629 489.325500,674.366028 482.527222,674.318115 
	C472.863373,674.249939 463.198639,674.301880 452.546967,674.301697 
z"/>
<path fill="#000000" opacity="1.000000" stroke="none" 
	d="
M528.844971,678.105103 
	C529.217041,675.304626 527.700562,671.842468 530.815002,671.075928 
	C534.605835,670.142883 538.824646,669.789978 542.588867,671.333374 
	C544.391479,672.072449 543.910217,674.570740 543.919983,676.359070 
	C543.979919,687.352356 544.125854,698.348572 543.928223,709.338135 
	C543.853027,713.518494 545.363586,714.815796 549.448425,714.737793 
	C560.604431,714.524719 571.769592,714.796875 582.926086,714.598022 
	C586.669373,714.531311 588.097900,715.970032 587.941589,719.511719 
	C587.853577,721.506653 587.911865,723.507751 587.843689,725.503967 
	C587.761230,727.920166 586.504761,729.118958 584.047302,729.113342 
	C569.557007,729.080322 555.058472,729.352600 540.579956,728.929871 
	C533.380737,728.719666 528.995972,722.719543 528.887512,714.069824 
	C528.739258,702.245300 528.847290,690.417542 528.844971,678.105103 
M539.877563,702.495300 
	C539.872192,694.676514 539.865601,686.857727 539.862122,679.038940 
	C539.861023,676.622314 539.958923,674.264221 536.402527,674.309082 
	C532.885315,674.353577 532.959167,676.726990 532.959656,679.124268 
	C532.962097,690.935486 532.880615,702.748047 533.032410,714.557495 
	C533.129395,722.101074 536.573792,725.324036 544.241211,725.399292 
	C555.544128,725.510254 566.847839,725.568054 578.151245,725.573853 
	C580.645874,725.575134 583.736755,726.494263 583.820129,722.103333 
	C583.909363,717.408020 580.617126,718.322815 577.945374,718.309326 
	C567.298828,718.255737 556.645935,718.077820 546.007568,718.377563 
	C541.083862,718.516296 539.419067,716.641174 539.835632,711.972961 
	C540.085999,709.167358 539.878967,706.320984 539.877563,702.495300 
z"/>
<path fill="#000000" opacity="1.000000" stroke="none" 
	d="
M417.608215,426.576294 
	C439.231079,426.841370 458.975372,443.970825 461.312042,466.102753 
	C464.136139,492.851685 445.665924,512.209351 423.353851,516.052307 
	C401.082733,519.888123 379.318909,506.668152 372.363037,485.322235 
	C365.315887,463.696167 375.124939,441.221985 395.907501,430.860443 
	C402.681732,427.483063 409.773163,426.435822 417.608215,426.576294 
z"/>
<path fill="#000000" opacity="1.000000" stroke="none" 
	d="
M353.337830,530.273804 
	C358.542694,522.717957 365.610779,517.355408 371.684387,511.030914 
	C372.920807,509.743378 374.588562,509.259033 376.063507,510.857880 
	C377.537811,512.455933 376.836945,513.946167 375.553101,515.225952 
	C369.907532,520.853882 364.309967,526.534241 358.521759,532.012512 
	C356.449371,533.973877 354.282440,533.965576 353.337830,530.273804 
z"/>
<path fill="#000000" opacity="1.000000" stroke="none" 
	d="
M477.260437,532.773560 
	C475.332031,533.536316 474.017120,532.928894 472.887695,531.828491 
	C467.546143,526.624146 462.180359,521.443237 456.920227,516.157532 
	C455.435333,514.665344 453.556671,512.808899 455.963684,510.703247 
	C458.070648,508.860138 459.606873,510.715637 461.026093,512.082642 
	C466.039124,516.911255 471.039307,521.753418 476.004089,526.631531 
	C477.669220,528.267578 479.520782,529.946289 477.260437,532.773560 
z"/>
<path fill="#000000" opacity="1.000000" stroke="none" 
	d="
M365.134949,425.871674 
	C361.582764,422.358307 358.241058,419.134399 355.000244,415.812073 
	C353.554657,414.330048 352.295776,412.476868 354.288544,410.646362 
	C356.077271,409.003296 357.713837,410.361938 359.043243,411.662262 
	C364.494904,416.994476 369.917175,422.357178 375.305969,427.752869 
	C376.650085,429.098663 377.836731,430.720215 375.909119,432.425842 
	C374.148163,433.984009 372.488586,433.008362 371.076508,431.683899 
	C369.142334,429.869659 367.279816,427.978973 365.134949,425.871674 
z"/>
<path fill="#000000" opacity="1.000000" stroke="none" 
	d="
M471.304199,421.302551 
	C467.617615,424.897858 464.219910,428.284943 460.709564,431.550812 
	C459.202118,432.953278 457.284424,434.133453 455.519653,432.110260 
	C453.892792,430.245148 455.455292,428.722260 456.744385,427.435883 
	C462.013977,422.177429 467.314453,416.949615 472.635406,411.743103 
	C473.957367,410.449524 475.524506,409.021179 477.358673,410.619537 
	C479.391571,412.391083 478.231964,414.218109 476.786438,415.756958 
	C475.088226,417.564911 473.297852,419.286285 471.304199,421.302551 
z"/>
<path fill="#000000" opacity="1.000000" stroke="none" 
	d="
M330.541779,469.086853 
	C338.950470,468.828247 346.937378,468.721283 354.924591,468.670166 
	C356.995636,468.656891 359.286652,468.900909 359.378265,471.546295 
	C359.477570,474.413940 357.047516,474.336029 355.042053,474.344666 
	C347.716003,474.376190 340.389160,474.403168 333.063751,474.325439 
	C329.435455,474.286896 327.366730,473.115723 330.541779,469.086853 
z"/>
<path fill="#000000" opacity="1.000000" stroke="none" 
	d="
M500.552002,474.236755 
	C492.466736,474.324921 484.831238,474.358337 477.195770,474.359161 
	C475.023804,474.359406 472.279388,474.506653 472.313721,471.541443 
	C472.346985,468.671234 475.073395,468.683594 477.251160,468.677490 
	C484.554779,468.657196 491.858551,468.686157 499.162201,468.719757 
	C500.725525,468.726959 502.241486,469.087799 502.840302,470.722778 
	C503.462769,472.422333 502.706024,473.601318 500.552002,474.236755 
z"/>
<path fill="#000000" opacity="1.000000" stroke="none" 
	d="
M418.421112,547.916504 
	C418.407562,550.232727 418.416779,552.063049 418.373596,553.892090 
	C418.332489,555.635742 418.133301,557.426270 415.825073,557.394287 
	C413.752777,557.365662 412.942993,555.790222 412.889984,554.012390 
	C412.751221,549.358765 412.768402,544.700195 412.745636,540.043457 
	C412.731812,537.215637 412.734680,534.387268 412.776215,531.559875 
	C412.807068,529.459656 413.168854,527.173767 415.689362,527.078857 
	C418.522583,526.972229 418.398682,529.462036 418.411407,531.460449 
	C418.445343,536.783508 418.421692,542.106812 418.421112,547.916504 
z"/>
<path fill="#000000" opacity="1.000000" stroke="none" 
	d="
M412.750305,404.949158 
	C412.763428,399.804688 412.731018,395.149567 412.811859,390.496399 
	C412.846893,388.479248 412.994507,386.126404 415.626495,385.966797 
	C418.586151,385.787262 418.373108,388.287628 418.385345,390.245300 
	C418.430084,397.392883 418.425934,404.541107 418.377289,411.688690 
	C418.365143,413.470551 418.601593,415.771240 416.102356,415.975647 
	C413.464355,416.191406 412.917999,414.031708 412.815033,411.920715 
	C412.709808,409.764343 412.765442,407.600128 412.750305,404.949158 
z"/>
<path fill="#000000" opacity="1.000000" stroke="none" 
	d="
M394.433594,530.360596 
	C393.330566,532.833618 392.479279,535.009399 391.396149,537.062927 
	C390.664062,538.450806 389.408478,539.550232 387.718750,538.754395 
	C385.951843,537.922180 385.548615,536.328918 386.269165,534.524963 
	C387.442322,531.587830 388.615143,528.649414 389.861725,525.743103 
	C390.683868,523.826416 391.787964,521.883545 394.293182,522.970520 
	C396.392090,523.881165 396.246521,525.828979 395.536804,527.704102 
	C395.242554,528.481628 394.904694,529.242737 394.433594,530.360596 
z"/>
<path fill="#000000" opacity="1.000000" stroke="none" 
	d="
M392.278870,407.881714 
	C393.481903,410.845276 394.581024,413.449799 395.622894,416.076996 
	C396.331116,417.862823 396.047150,419.466919 394.131317,420.208832 
	C392.183472,420.963135 390.924194,419.787842 390.186188,418.129578 
	C388.969421,415.395660 387.852173,412.616272 386.744904,409.835327 
	C386.069061,408.137878 385.076416,406.162231 387.250092,404.968964 
	C389.875671,403.527527 391.203033,405.349121 392.278870,407.881714 
z"/>
<path fill="#000000" opacity="1.000000" stroke="none" 
	d="
M349.414124,447.492645 
	C347.784454,446.167053 347.301270,444.766937 348.302307,443.328064 
	C349.165802,442.086914 350.634949,442.092194 351.936249,442.581360 
	C355.198303,443.807587 358.451050,445.069672 361.645782,446.459320 
	C363.282043,447.171021 364.505432,448.495178 363.663940,450.400909 
	C362.844818,452.256073 361.118042,452.380554 359.399567,451.697235 
	C356.161438,450.409668 352.955109,449.042175 349.414124,447.492645 
z"/>
<path fill="#000000" opacity="1.000000" stroke="none" 
	d="
M441.087280,537.998108 
	C439.270233,534.246155 437.645660,530.803223 436.183197,527.292847 
	C435.501587,525.656677 435.496246,523.882507 437.457672,523.069336 
	C439.342957,522.287598 440.676422,523.315552 441.426819,525.015442 
	C442.831116,528.196777 444.416595,531.336304 445.417755,534.647156 
	C446.479858,538.159668 445.214600,539.881714 441.087280,537.998108 
z"/>
<path fill="#000000" opacity="1.000000" stroke="none" 
	d="
M363.952698,493.955963 
	C360.551392,498.788452 355.161469,499.269470 350.446228,501.052216 
	C349.492950,501.412659 348.476166,500.759857 347.987823,499.766357 
	C347.426666,498.624786 347.372742,497.221283 348.430634,496.565247 
	C352.396759,494.105591 356.669830,492.217438 361.218597,491.166840 
	C362.626740,490.841614 363.546509,492.196198 363.952698,493.955963 
z"/>
<path fill="#000000" opacity="1.000000" stroke="none" 
	d="
M441.080200,405.298523 
	C445.596497,403.906769 446.596008,405.788666 445.254486,409.477997 
	C444.233337,412.286255 442.956390,415.003265 441.749847,417.741791 
	C440.950684,419.555695 439.740875,421.048981 437.547150,420.184357 
	C435.281281,419.291321 435.550323,417.329102 436.316223,415.537140 
	C437.751465,412.179138 439.316284,408.876556 441.080200,405.298523 
z"/>
<path fill="#000000" opacity="1.000000" stroke="none" 
	d="
M482.343994,495.701874 
	C484.195526,497.102264 484.736969,498.519318 483.369751,500.138947 
	C482.214996,501.506866 480.750427,501.271240 479.282532,500.662018 
	C476.380280,499.457672 473.441071,498.335114 470.583374,497.033325 
	C468.861237,496.248810 467.205505,495.010284 468.153442,492.834595 
	C469.084320,490.697968 470.982422,490.965637 472.831787,491.738098 
	C475.881989,493.012177 478.945129,494.255280 482.343994,495.701874 
z"/>
<path fill="#000000" opacity="1.000000" stroke="none" 
	d="
M483.242615,442.985474 
	C484.529327,444.720215 484.340942,446.190033 482.879089,447.091705 
	C479.220520,449.348328 475.210144,450.863770 471.075775,451.996460 
	C469.868225,452.327301 468.777222,451.719879 468.226379,450.545685 
	C467.583801,449.176056 467.825836,447.651520 469.164764,447.119171 
	C473.644226,445.338379 477.642883,441.944031 483.242615,442.985474 
z"/>
<path fill="#000000" opacity="1.000000" stroke="none" 
	d="
M742.995056,681.605408 
	C746.816101,681.608704 750.144836,681.744751 753.458435,681.578796 
	C756.953369,681.403625 758.314453,683.044250 758.160034,686.336548 
	C758.136719,686.833496 758.166992,687.332886 758.174744,687.831177 
	C758.304871,696.205444 758.304932,696.213501 750.119080,696.224731 
	C742.312134,696.235413 734.502808,696.113892 726.699219,696.275513 
	C722.930725,696.353577 721.275330,695.180054 721.474854,691.115601 
	C722.022461,679.961853 719.950928,681.801636 731.034912,681.623047 
	C734.854431,681.561462 738.675659,681.608154 742.995056,681.605408 
M735.550903,692.675659 
	C739.858093,692.675110 744.165405,692.699890 748.472351,692.667664 
	C754.291016,692.624207 754.768311,691.943054 753.330322,685.333191 
	C745.024719,685.333191 736.610596,685.334900 728.196533,685.332092 
	C725.731445,685.331238 725.206543,686.872803 725.197388,688.949341 
	C725.188293,691.003540 725.631714,692.606201 728.115723,692.631958 
	C730.269043,692.654236 732.422546,692.661194 735.550903,692.675659 
z"/>
<path fill="#000000" opacity="1.000000" stroke="none" 
	d="
M453.351715,696.208374 
	C446.032227,694.373718 449.634705,688.912048 449.260010,685.048889 
	C448.867737,681.004333 452.366119,681.618103 454.947510,681.605103 
	C463.737061,681.560791 472.530396,681.696777 481.314819,681.472229 
	C484.847412,681.382019 486.167664,682.800720 486.073578,686.096802 
	C486.031036,687.587891 485.991669,689.088745 486.107300,690.572937 
	C486.446014,694.921387 484.406158,696.384338 480.183838,696.284607 
	C471.398743,696.076965 462.605255,696.223022 453.351715,696.208374 
M468.491302,692.677124 
	C471.803925,692.666992 475.117645,692.600464 478.428802,692.664856 
	C481.014984,692.715088 481.931824,691.444153 481.919006,688.997559 
	C481.906311,686.578735 481.025482,685.280334 478.434418,685.297852 
	C471.147034,685.347107 463.858948,685.344666 456.571472,685.304016 
	C454.003082,685.289673 453.076813,686.556885 453.073029,688.994873 
	C453.069244,691.438171 453.987671,692.710571 456.568512,692.668274 
	C460.211334,692.608521 463.856049,692.667664 468.491302,692.677124 
z"/>
</svg>