<svg xmlns="http://www.w3.org/2000/svg" role="img" viewBox="0.68 1.68 484.64 118.14"><path d="M125.16558 30.038h58.29725v11.68823h-22.71494v64.03169h-12.8674V41.72623h-22.71491zm82.02464 22.71492h33.30995v53.005H228.168V64.44115h-20.97778v41.31675h-12.33046V30.038h12.33044zm50.98355 10.81613V52.75292h38.83206v53.005h-24.2345c-11.79352 0-19.25284-6.703-19.25284-16.87695s8.005-16.8787 19.25284-16.8787h12.11814v-8.43322zm26.72094 31.58506V82.61133H272.5625c-4.76407 0-7.89627 1.946-7.89627 6.26963s3.13571 6.27138 7.89627 6.27138zm27.28071-42.40119h45.64041v53.005h-12.33048V64.44115h-20.983v41.31675h-12.33044zm85.48672-1.29498a27.74572 27.74572 0 1 1-27.35883 28.12729q-.00228-.16533-.00259-.33069a27.1614 27.1614 0 0 1 26.51794-27.78994q.42165-.00989.84348-.00666zm0 44.34717c8.54376 0 14.70813-6.92414 14.70813-16.55056s-6.16434-16.54882-14.70813-16.54882c-8.65781 0-14.82391 6.9224-14.82391 16.54882s6.16607 16.55055 14.82391 16.55056zm53.46121-11.79351c-9.944-2.48469-16.11715-7.56637-16.11715-16.76114 0-9.84751 8.22616-15.79252 19.36691-15.79252a26.091 26.091 0 0 1 19.79156 8.87013l-7.68042 8.43672a15.37666 15.37666 0 0 0-12.43576-6.71008c-4.54474 0-7.24875 2.28115-7.24875 4.9764 0 2.597 2.28116 4.33242 5.19574 4.97465l8.32267 1.94774c9.08947 2.16534 15.79254 7.24877 15.79254 16.54882 0 9.19475-7.13471 16.44353-21.08478 16.44353a26.79815 26.79815 0 0 1-22.07269-10.27743l7.7857-7.998a18.38954 18.38954 0 0 0 15.25559 7.68043c6.38543 0 8.21737-2.8181 8.21737-5.41684 0-2.26359-1.40377-3.999-6.05029-5.187z" data-name="Layer 1-2"/><path d="M10.23913 11.29812v99.71227h70.62068a29.0916 29.0916 0 0 0 29.08984-29.09159V11.29812zm77.72205 62.85426H91.683v3.72177h-3.72182zM86.79077 58.13h6.04679v6.04854h-6.04679zm-.93-15.79253h7.90854V50.253h-7.90855zM73.09339 89.01315h3.71825v3.72177h-3.72177zM71.93 72.80125h6.04854V78.855H71.93zM71 57.2h7.91732v7.90854h-7.90854zm.93-7.88223V43.271h6.04854v6.04678zM43.3736 89.01315h3.72178v3.72177H43.3736zm-1.16339-16.0224h6.04854v6.03976h-6.04852zm1.16339-9.97561v-3.72177h3.72178v3.72177zM42.21021 43.271h6.04854v6.04678h-6.04852zM28.51284 89.01315h3.72879v3.72177h-3.72879zm0-14.86077h3.72879v3.72177h-3.72879zM27.35121 58.13H33.398v6.04854h-6.04679zm-.93176-15.79253h7.9103V50.253h-7.9103zm-3.47787-18.33338h74.29857v14.86076H67.52388v59.43957h-14.859V38.86485h-29.7233z"/></svg>