<?xml version="1.0" encoding="UTF-8"?><svg xmlns="http://www.w3.org/2000/svg" viewBox="0 0 629.79 110.39"><defs><style>.d{fill:#fff;}.d,.e,.f{stroke-width:4px;}.d,.e,.f,.g,.h{stroke:#000;stroke-linecap:round;}.e,.f,.g,.h{fill:none;}.f,.h{stroke-linejoin:round;}.g{stroke-miterlimit:10;stroke-width:5.01px;}.i{font-family:Asap-Bold, Asap;font-size:26px;letter-spacing:.1em;}.h{stroke-width:3px;}</style></defs><g id="a"/><g id="b"><g id="c"><g><path class="e" d="M61.68,30.51c4.91,0,8.9,3.98,8.9,8.9"/><path class="f" d="M36.92,47.79c0-12.66,10.26-22.92,22.92-22.92s22.92,10.26,22.92,22.92"/><g><path d="M53.31,83.75c-.21,.29-.43,.43-.65,.43s-.44-.1-.66-.29c-.22-.19-.33-.38-.33-.56s.09-.37,.26-.56l1.61-2.26-2.15-.69c-.42-.13-.63-.35-.63-.66,0-.17,.03-.32,.09-.46,.11-.4,.35-.6,.72-.6,.08,0,.21,.02,.4,.06l2.21,.72v-2.35c0-.57,.29-.86,.86-.86s.86,.29,.86,.86v2.35l2.15-.72c.19-.04,.35-.06,.49-.06s.29,.1,.46,.29c.17,.19,.26,.44,.26,.76s-.21,.54-.63,.67l-2.18,.69,1.63,2.26c.15,.17,.23,.35,.23,.54s-.11,.38-.33,.57c-.22,.19-.43,.29-.64,.29s-.42-.14-.63-.43l-1.69-2.38-1.69,2.38Z"/><path d="M43.63,83.75c-.21,.29-.43,.43-.65,.43s-.44-.1-.66-.29c-.22-.19-.33-.38-.33-.56s.09-.37,.26-.56l1.61-2.26-2.15-.69c-.42-.13-.63-.35-.63-.66,0-.17,.03-.32,.09-.46,.11-.4,.35-.6,.72-.6,.08,0,.21,.02,.4,.06l2.21,.72v-2.35c0-.57,.29-.86,.86-.86s.86,.29,.86,.86v2.35l2.15-.72c.19-.04,.35-.06,.49-.06s.29,.1,.46,.29c.17,.19,.26,.44,.26,.76s-.21,.54-.63,.67l-2.18,.69,1.63,2.26c.15,.17,.23,.35,.23,.54s-.11,.38-.33,.57c-.22,.19-.43,.29-.64,.29s-.42-.14-.63-.43l-1.69-2.38-1.69,2.38Z"/><path d="M62.99,83.75c-.21,.29-.43,.43-.65,.43s-.44-.1-.66-.29c-.22-.19-.33-.38-.33-.56s.09-.37,.26-.56l1.61-2.26-2.15-.69c-.42-.13-.63-.35-.63-.66,0-.17,.03-.32,.09-.46,.11-.4,.35-.6,.72-.6,.08,0,.21,.02,.4,.06l2.21,.72v-2.35c0-.57,.29-.86,.86-.86s.86,.29,.86,.86v2.35l2.15-.72c.19-.04,.35-.06,.49-.06s.29,.1,.46,.29c.17,.19,.26,.44,.26,.76s-.21,.54-.63,.67l-2.18,.69,1.63,2.26c.15,.17,.23,.35,.23,.54s-.11,.38-.33,.57c-.22,.19-.43,.29-.64,.29s-.42-.14-.63-.43l-1.69-2.38-1.69,2.38Z"/><path d="M72.67,83.75c-.21,.29-.43,.43-.65,.43s-.44-.1-.66-.29c-.22-.19-.33-.38-.33-.56s.09-.37,.26-.56l1.61-2.26-2.15-.69c-.42-.13-.63-.35-.63-.66,0-.17,.03-.32,.09-.46,.11-.4,.35-.6,.72-.6,.08,0,.21,.02,.4,.06l2.21,.72v-2.35c0-.57,.29-.86,.86-.86s.86,.29,.86,.86v2.35l2.15-.72c.19-.04,.35-.06,.49-.06s.29,.1,.46,.29c.17,.19,.26,.44,.26,.76s-.21,.54-.63,.67l-2.18,.69,1.63,2.26c.15,.17,.23,.35,.23,.54s-.11,.38-.33,.57c-.22,.19-.43,.29-.64,.29s-.42-.14-.63-.43l-1.69-2.38-1.69,2.38Z"/></g><rect class="h" x="34.62" y="72.46" width="50.43" height="14.93" rx=".87" ry=".87"/><g><path class="e" d="M8.22,86.42c0-4.91,3.98-8.9,8.9-8.9"/><path class="e" d="M2,93.54c0-3.43,2.78-6.22,6.22-6.22s6.22,2.78,6.22,6.22"/><line class="f" x1="21.36" y1="68.9" x2="21.36" y2="87.66"/></g><g><path class="e" d="M111.37,86.42c0-4.91-3.98-8.9-8.9-8.9"/><path class="e" d="M117.59,93.54c0-3.43-2.78-6.22-6.22-6.22s-6.22,2.78-6.22,6.22"/><line class="f" x1="98.23" y1="68.9" x2="98.23" y2="87.66"/></g><g><circle cx="59.84" cy="4.3" r="4.3"/><line class="d" x1="59.84" y1="6.03" x2="59.84" y2="23.99"/></g><g><polyline class="f" points="56.3 106.33 27.35 106.63 27.35 53.22 92.24 53.22 92.24 106.63 67.93 106.39"/><polygon points="69.14 102.41 62.19 106.33 69.06 110.39 69.14 102.41"/></g><path class="g" d="M607.35,106.33h17.43c1.38,0,2.5-1.12,2.5-2.5V53.16c0-1.38-1.12-2.5-2.5-2.5h-17.43"/><text class="i" transform="translate(172.61 89.14)"><tspan x="0" y="0">EXTERNAL SECRETS OPERATOR</tspan></text><path class="g" d="M164.99,50.66h-17.43c-1.38,0-2.5,1.12-2.5,2.5v50.67c0,1.38,1.12,2.5,2.5,2.5h17.43"/></g></g></g></svg>