<svg id="Layer_1" data-name="Layer 1" xmlns="http://www.w3.org/2000/svg" viewBox="0 0 937 236"><defs><style>.cls-1{fill:#020202;}</style></defs><title>kubernetes-community-days-black-01</title><path class="cls-1" d="M785.7686,106.50047c-.11194-25.08624,18.70886-43.941,43.88281-43.97511,24.54144-.02912,43.44977,18.84015,43.55206,43.44989a48.05879,48.05879,0,0,1-.41266,6.4414h10.80145a49.79593,49.79593,0,0,0,.33741-5.8479c-.09247-29.92669-24.96955-54.91083-54.56537-54.80359-29.53729.10687-54.35114,25.04255-54.33167,54.58954a51.32955,51.32955,0,0,0,.37671,6.062h10.7605A47.992,47.992,0,0,1,785.7686,106.50047Z"/><path class="cls-1" d="M864.19938,51.38573a4.84368,4.84368,0,0,0,4.46076-2.3349c3.40026-5.80335,6.82971-11.59687,10.05975-17.49286,1.61011-2.94293.535-5.44318-2.24744-7.07764a4.70185,4.70185,0,0,0-6.87842,1.68286c-3.54138,5.71607-6.98059,11.51435-10.07434,17.47827a5.14664,5.14664,0,0,0,4.67969,7.74427Z"/><path class="cls-1" d="M790.64811,49.43089c1.40589,2.26685,3.95972,2.49042,6.30927,1.51776A4.96461,4.96461,0,0,0,800.134,46.1082a3.439,3.439,0,0,0-.13629-1.30847c-3.69708-6.46485-7.24335-13.03211-11.25647-19.29743-1.46417-2.2865-4.28082-2.413-6.71307-.84649a4.83336,4.83336,0,0,0-1.92145,6.55243C783.37077,37.41533,786.951,43.4669,790.64811,49.43089Z"/><path class="cls-1" d="M749.06486,65.85844c6.01251,3.619,12.02026,7.26264,18.22253,10.517,2.58783,1.35236,5.3266.38416,6.75684-2.34,1.27448-2.42719,1.0506-5.13678-1.3913-6.64-6.09521-3.75525-12.27325-7.41851-18.64575-10.66307-3.157-1.61012-6.6206.98748-6.927,4.9812A4.2743,4.2743,0,0,0,749.06486,65.85844Z"/><path class="cls-1" d="M889.80467,76.78667a3.43375,3.43375,0,0,0,1.182-.14582,131.39392,131.39392,0,0,0,19.62348-11.49469c2.03827-1.508,1.96533-4.22265.394-6.38739-1.49817-2.08667-3.75531-3.31256-6.11462-2.04773-6.3191,3.371-12.52131,6.97553-18.636,10.702-2.1015,1.28412-2.35938,3.64338-1.615,5.92C885.42173,75.70683,887.21672,76.78191,889.80467,76.78667Z"/><path class="cls-1" d="M829.556,42.135c3.21063-.08282,5.0835-2.00915,5.16131-5.32208.073-3.0694.01465-6.13879.01465-9.20856.00476-3.507.09235-7.0144-.02435-10.52172-.09735-3.07923-1.795-4.95691-4.90338-5.10767-3.28363-.16064-5.497,1.62463-5.61377,4.84991-.253,6.71277-.24316,13.4502-.03888,20.16321A4.94059,4.94059,0,0,0,829.556,42.135Z"/><path class="cls-1" d="M899.49913,100.89873c-3.40033.01458-5.79371,1.63922-5.925,5.11242-.13141,3.7262,2.34955,5.49695,5.87634,5.6576,3.0647.13629,6.14392.02911,9.2135.03381,3.0694.00509,6.14374.08291,9.20838-.01928,3.5755-.11193,5.94451-1.84375,5.86187-5.61865-.0827-3.57032-2.38373-5.132-5.818-5.1466C911.782,100.89873,905.64305,100.87437,899.49913,100.89873Z"/><path class="cls-1" d="M740.04991,111.55235c6.7276.28235,13.46991.25293,20.19751.03412a5.04222,5.04222,0,0,0,5.17089-5.46277c-.068-3.1864-2.08679-5.07861-5.3897-5.1662-3.2204-.08758-6.44068-.01959-9.66584-.01959v.01489c-3.36139,0-6.73736-.10217-10.09881.03382-3.07434.117-5.00067,1.91687-5.15638,4.92779C734.94224,109.159,736.89781,111.41637,740.04991,111.55235Z"/><path class="cls-1" d="M282.45743,111.19785q-1.82081-2.92238-4.291-6.31739-2.47046-3.394-5.32373-6.84375-2.85356-3.44822-5.97171-6.61223a63.90766,63.90766,0,0,0-6.23535-5.58985v25.36329h-13.48V51.31406h13.48V73.82089Q265.83438,68.36,271.19815,62.398q5.3628-5.96044,9.90625-11.084h15.99707q-6.11206,7.28173-12.29883,13.999-6.18529,6.71923-13.01953,13.52344a102.67106,102.67106,0,0,1,13.86231,14.2207,177.53871,177.53871,0,0,1,12.83886,18.14064Z"/><path class="cls-1" d="M341.25723,109.64218a71.49078,71.49078,0,0,1-8.46826,1.77149,69.63768,69.63768,0,0,1-10.88769.82129,25.8467,25.8467,0,0,1-9.63526-1.55565,14.61991,14.61991,0,0,1-6.0918-4.36328,17.01411,17.01411,0,0,1-3.19726-6.69729,35.96815,35.96815,0,0,1-.95068-8.55468V65.74472h12.87548V89.50839q0,6.22119,1.64161,8.98731,1.64063,2.76564,6.13525,2.76465,1.38135,0,2.938-.12989,1.55567-.12888,2.76513-.30175v-35.084h12.87549Z"/><path class="cls-1" d="M395.60977,88.47128a28.73974,28.73974,0,0,1-1.59863,9.85157,20.81349,20.81349,0,0,1-4.623,7.51757,20.31339,20.31339,0,0,1-7.43115,4.7959,27.92548,27.92548,0,0,1-10.02393,1.68457q-2.33349,0-4.88232-.21582-2.54956-.21681-5.01172-.56152-2.46314-.34572-4.70947-.82129-2.24853-.47316-3.9751-.99316V46.2164l12.87549-2.07421V66.78183a24.16327,24.16327,0,0,1,4.49316-1.46875,23.07233,23.07233,0,0,1,5.01221-.51855A20.5098,20.5098,0,0,1,384.29,66.48007a16.76444,16.76444,0,0,1,6.22168,4.7959,21.54822,21.54822,0,0,1,3.80224,7.47461A34.089,34.089,0,0,1,395.60977,88.47128Zm-13.13476-.3457q0-12.44238-9.15967-12.44336a15.19071,15.19071,0,0,0-3.93164.51856,11.1835,11.1835,0,0,0-3.15381,1.29687v23.417q.95.1743,2.41943.30274,1.46852.12888,3.19727.12989,5.26977,0,7.94971-3.62989Q382.474,94.08894,382.475,88.12558Z"/><path class="cls-1" d="M403.38614,88.817a27.776,27.776,0,0,1,1.85791-10.585,22.68462,22.68462,0,0,1,4.88184-7.56153,20.31441,20.31441,0,0,1,6.95654-4.58007,21.792,21.792,0,0,1,8.07959-1.55468q9.67675,0,15.29443,5.91893,5.61621,5.91946,5.61719,17.41211,0,1.12353-.08643,2.46289-.08715,1.34034-.17285,2.376H416.60684a8.553,8.553,0,0,0,3.71582,6.3086q3.28272,2.332,8.814,2.333a37.24877,37.24877,0,0,0,6.95605-.64844,26.17829,26.17829,0,0,0,5.57373-1.59863l1.72852,10.456a17.80165,17.80165,0,0,1-2.76563,1.03711,36.34991,36.34991,0,0,1-3.84521.90722q-2.11821.3882-4.53662.64746a45.396,45.396,0,0,1-4.83887.25978,28.65627,28.65627,0,0,1-10.67187-1.81446,20.78125,20.78125,0,0,1-7.51807-4.96875,19.71317,19.71317,0,0,1-4.40674-7.47461A29.60283,29.60283,0,0,1,403.38614,88.817Zm30.24414-4.92578a13.36148,13.36148,0,0,0-.562-3.19629,8.00858,8.00858,0,0,0-1.46875-2.76563,7.84853,7.84853,0,0,0-2.50586-1.9873,8.167,8.167,0,0,0-3.75928-.77832,8.63847,8.63847,0,0,0-3.71533.73536,7.67638,7.67638,0,0,0-2.59229,1.94335,8.70425,8.70425,0,0,0-1.59863,2.80861,18.414,18.414,0,0,0-.82129,3.24022Z"/><path class="cls-1" d="M483.40323,77.152q-1.72924-.43212-4.06152-.90722a25.13056,25.13056,0,0,0-5.01172-.4756,23.33092,23.33092,0,0,0-2.895.21583,17.06946,17.06946,0,0,0-2.54883.47559v34.73731H456.01065V68.16464a77.78629,77.78629,0,0,1,8.166-2.29,47.06778,47.06778,0,0,1,10.499-1.08007q1.0371,0,2.50586.12988,1.4685.12891,2.938.34571,1.4685.21681,2.938.51857a13.87227,13.87227,0,0,1,2.50586.73436Z"/><path class="cls-1" d="M492.47647,67.30038a72.24117,72.24117,0,0,1,8.46777-1.77147,69.64623,69.64623,0,0,1,10.88868-.82031,26.55557,26.55557,0,0,1,9.63473,1.51171,14.491,14.491,0,0,1,6.0918,4.27733,16.68945,16.68945,0,0,1,3.19726,6.56739,34.943,34.943,0,0,1,.95118,8.46875v25.66407h-12.876V87.08849q0-6.22119-1.6416-8.81347-1.64209-2.59275-6.13574-2.59278-1.38282,0-2.9375.12988-1.55566.13038-2.76563.30275v35.083h-12.875Z"/><path class="cls-1" d="M541.21179,88.817a27.7866,27.7866,0,0,1,1.85742-10.585,22.68765,22.68765,0,0,1,4.88282-7.5615,20.30686,20.30686,0,0,1,6.95605-4.58,21.79127,21.79127,0,0,1,8.0791-1.55467q9.67676,0,15.29492,5.91893,5.61622,5.91945,5.61719,17.41211,0,1.12351-.08691,2.46289-.08643,1.34036-.17285,2.376h-29.207a8.55608,8.55608,0,0,0,3.71582,6.30858q3.2827,2.332,8.81445,2.333a37.25429,37.25429,0,0,0,6.95605-.64843,26.18973,26.18973,0,0,0,5.57325-1.59864l1.72851,10.456a17.78455,17.78455,0,0,1-2.76562,1.03711,36.427,36.427,0,0,1-3.84473.90723q-2.11964.38818-4.53711.64746a45.3954,45.3954,0,0,1-4.83887.25977,28.658,28.658,0,0,1-10.67187-1.81446,20.77606,20.77606,0,0,1-7.51758-4.96875A19.702,19.702,0,0,1,542.63757,98.15,29.61709,29.61709,0,0,1,541.21179,88.817Zm30.2442-4.92578a13.40917,13.40917,0,0,0-.56152-3.19629,8.01021,8.01021,0,0,0-1.46973-2.76564,7.83186,7.83186,0,0,0-2.50586-1.98729,8.16025,8.16025,0,0,0-3.75878-.77832,8.64239,8.64239,0,0,0-3.71583.73536,7.68876,7.68876,0,0,0-2.59179,1.94335,8.70382,8.70382,0,0,0-1.59863,2.80858,18.37342,18.37342,0,0,0-.82129,3.24023Z"/><path class="cls-1" d="M593.40515,54.42538l12.875-2.07421V65.74472h15.46777V76.46054H606.28015V92.44688a12.71656,12.71656,0,0,0,1.42578,6.48047q1.4253,2.41992,5.7461,2.41992a24.54724,24.54724,0,0,0,4.27734-.38965,21.91874,21.91874,0,0,0,4.01855-1.08008l1.81446,10.02442a36.49766,36.49766,0,0,1-5.18457,1.64161,30.2622,30.2622,0,0,1-6.999.69139,23.04008,23.04008,0,0,1-8.72753-1.42578A13.686,13.686,0,0,1,597.12,106.8336a14.794,14.794,0,0,1-2.89454-6.17774,36.4438,36.4438,0,0,1-.82031-8.03613Z"/><path class="cls-1" d="M628.31531,88.817a27.78545,27.78545,0,0,1,1.85742-10.585,22.68785,22.68785,0,0,1,4.88281-7.56153,20.30745,20.30745,0,0,1,6.95606-4.58007,21.791,21.791,0,0,1,8.0791-1.55468q9.67676,0,15.29492,5.91893,5.61621,5.91946,5.61719,17.41211,0,1.12353-.08692,2.46289-.08641,1.34034-.17285,2.376H641.536a8.5562,8.5562,0,0,0,3.71582,6.3086q3.28272,2.332,8.81445,2.333a37.25441,37.25441,0,0,0,6.95606-.64844,26.19037,26.19037,0,0,0,5.57324-1.59863l1.72852,10.456a17.78429,17.78429,0,0,1-2.76563,1.03711,36.4243,36.4243,0,0,1-3.84472.90722q-2.11964.3882-4.53711.64746a45.39555,45.39555,0,0,1-4.83887.25978,28.65848,28.65848,0,0,1-10.67188-1.81446,20.77513,20.77513,0,0,1-7.51757-4.96875,19.70176,19.70176,0,0,1-4.40723-7.47461A29.61636,29.61636,0,0,1,628.31531,88.817Zm30.24414-4.92578a13.40986,13.40986,0,0,0-.56153-3.19629,8.01031,8.01031,0,0,0-1.46972-2.76563,7.83252,7.83252,0,0,0-2.50586-1.9873,8.16054,8.16054,0,0,0-3.75879-.77832,8.64237,8.64237,0,0,0-3.71582.73536,7.68919,7.68919,0,0,0-2.5918,1.94335A8.70425,8.70425,0,0,0,642.3573,80.651a18.37375,18.37375,0,0,0-.82129,3.24022Z"/><path class="cls-1" d="M693.98718,101.95175a12.8401,12.8401,0,0,0,5.0127-.6914,2.66978,2.66978,0,0,0,1.46875-2.67872A3.282,3.282,0,0,0,698.56726,95.86a36.19394,36.19394,0,0,0-5.78906-2.63575,58.62513,58.62513,0,0,1-5.48731-2.333,16.11556,16.11556,0,0,1-4.1914-2.89453,11.69958,11.69958,0,0,1-2.67871-4.01855,14.85392,14.85392,0,0,1-.9502-5.61718,12.14737,12.14737,0,0,1,4.75195-10.10936q4.752-3.71485,13.04883-3.71582a41.89358,41.89358,0,0,1,7.9502.73436,37.18861,37.18861,0,0,1,6.04883,1.59864L709.02332,76.8922a47.6364,47.6364,0,0,0-4.88282-1.38282,26.59592,26.59592,0,0,0-5.91894-.60449q-6.0499,0-6.04883,3.37011a3.47778,3.47778,0,0,0,.25977,1.38282,2.95,2.95,0,0,0,1.03613,1.166,14.55789,14.55789,0,0,0,2.11719,1.21582q1.33876.65334,3.41406,1.43653a52.82619,52.82619,0,0,1,6.999,3.09278,16.72906,16.72906,0,0,1,4.36328,3.292,10.17545,10.17545,0,0,1,2.24707,3.92383,17.42008,17.42008,0,0,1,.64844,4.999q-.00009,6.72656-5.05566,10.17578-5.05527,3.44677-14.30078,3.44825a41.09528,41.09528,0,0,1-10.06739-1.03711,40.668,40.668,0,0,1-5.57324-1.72853l2.16016-10.456a42.15018,42.15018,0,0,0,6.74023,2.03125A32.73274,32.73274,0,0,0,693.98718,101.95175Z"/><path class="cls-1" d="M274.46182,193.09917q-14.6045,0-22.251-8.123-7.648-8.12111-7.64748-23.07227a35.47666,35.47666,0,0,1,2.333-13.26369,28.55948,28.55948,0,0,1,6.39453-9.85058,26.71461,26.71461,0,0,1,9.67826-6.09278,34.89712,34.89712,0,0,1,12.18359-2.07325,39.09276,39.09276,0,0,1,6.91309.56152,45.1618,45.1618,0,0,1,5.44384,1.2959,26.91671,26.91671,0,0,1,3.88868,1.51269q1.55565.77637,2.24658,1.209l-3.88819,10.88869a32.6532,32.6532,0,0,0-6.438-2.50684,30.758,30.758,0,0,0-8.33838-1.03613,18.441,18.441,0,0,0-6.09229,1.03613,13.78516,13.78516,0,0,0-5.271,3.32715,16.55527,16.55527,0,0,0-3.67237,5.919,24.82542,24.82542,0,0,0-1.38281,8.81445,31.44312,31.44312,0,0,0,.90723,7.7334,16.39783,16.39783,0,0,0,2.938,6.17871,14.07635,14.07635,0,0,0,5.31446,4.10449,18.89966,18.89966,0,0,0,7.9497,1.5127,36.23524,36.23524,0,0,0,5.27149-.3457,38.75477,38.75477,0,0,0,4.14746-.82129,21.49338,21.49338,0,0,0,3.19727-1.08007q1.38129-.60353,2.50585-1.123l3.71583,10.80176a31.539,31.539,0,0,1-8.03617,3.11035A46.8808,46.8808,0,0,1,274.46182,193.09917Z"/><path class="cls-1" d="M343.76407,169.07671a29.56172,29.56172,0,0,1-1.55518,9.80761,21.31277,21.31277,0,0,1-4.49365,7.6045,20.21162,20.21162,0,0,1-7.04248,4.88183,23.52008,23.52008,0,0,1-9.20312,1.72852,23.27913,23.27913,0,0,1-9.11622-1.72852,20.185,20.185,0,0,1-7.04248-4.88183,22.32063,22.32063,0,0,1-4.58007-7.6045,28.13458,28.13458,0,0,1-1.64161-9.80761,27.13853,27.13853,0,0,1,1.68506-9.76465,22.129,22.129,0,0,1,4.666-7.51757,20.965,20.965,0,0,1,7.08594-4.83984,22.82043,22.82043,0,0,1,8.94335-1.72754,23.05682,23.05682,0,0,1,9.03028,1.72754,20.52915,20.52915,0,0,1,7.04248,4.83984,21.97093,21.97093,0,0,1,4.58008,7.51757A27.81241,27.81241,0,0,1,343.76407,169.07671Zm-13.13477,0q0-5.96336-2.376-9.376a7.77282,7.77282,0,0,0-6.7837-3.41309,7.87816,7.87816,0,0,0-6.82617,3.41309q-2.42066,3.41457-2.41992,9.376,0,5.96193,2.41992,9.46191a7.81814,7.81814,0,0,0,6.82617,3.5,7.71508,7.71508,0,0,0,6.7837-3.5Q330.62858,175.03914,330.6293,169.07671Z"/><path class="cls-1" d="M378.67422,167.77985q0-6.22119-1.59863-8.81348-1.60034-2.59278-5.4873-2.59277-1.21069,0-2.50586.12988-1.29639.13037-2.50586.30273v35.083H353.70108V147.99178q1.64063-.43067,3.84522-.90723,2.20385-.47315,4.6665-.86426,2.4624-.38816,5.05517-.60449,2.592-.21534,5.09815-.21582a21.4387,21.4387,0,0,1,7.99316,1.25293,18.09979,18.09979,0,0,1,5.05518,2.98047A24.07455,24.07455,0,0,1,398.37589,145.4a22.72724,22.72724,0,0,1,8.94384,1.51172,13.4918,13.4918,0,0,1,5.57373,4.27734,16.20192,16.20192,0,0,1,2.85157,6.56738,42.4257,42.4257,0,0,1,.77734,8.46875v25.66407h-12.875V167.77985q0-6.22119-1.59863-8.81348-1.60035-2.59278-5.48731-2.59277a11.59531,11.59531,0,0,0-2.895.51855,11.275,11.275,0,0,0-3.06738,1.29688,19.74214,19.74214,0,0,1,.77783,4.19043q.17208,2.20313.17285,4.71v24.79981H378.67422Z"/><path class="cls-1" d="M453.161,167.77985q0-6.22119-1.59863-8.81348-1.60035-2.59278-5.48731-2.59277-1.21069,0-2.50586.12988-1.29633.13037-2.50586.30273v35.083H428.1879V147.99178q1.64063-.43067,3.84521-.90723,2.20386-.47315,4.66651-.86426,2.4624-.38816,5.05517-.60449,2.592-.21534,5.09815-.21582a21.43873,21.43873,0,0,1,7.99316,1.25293,18.10027,18.10027,0,0,1,5.05518,2.98047A24.07454,24.07454,0,0,1,472.8627,145.4a22.72732,22.72732,0,0,1,8.94385,1.51172,13.492,13.492,0,0,1,5.57373,4.27734,16.20272,16.20272,0,0,1,2.852,6.56738,42.45933,42.45933,0,0,1,.77734,8.46875v25.66407H478.13419V167.77985q0-6.22119-1.59864-8.81348-1.60034-2.59278-5.4873-2.59277a11.59531,11.59531,0,0,0-2.895.51855,11.27489,11.27489,0,0,0-3.06738,1.29688,19.74214,19.74214,0,0,1,.77783,4.19043q.17207,2.20313.17285,4.71v24.79981H453.161Z"/><path class="cls-1" d="M541.47449,190.33356a71.487,71.487,0,0,1-8.46778,1.77148,69.64425,69.64425,0,0,1-10.88867.82129,25.84159,25.84159,0,0,1-9.63476-1.55566,14.62274,14.62274,0,0,1-6.0918-4.36328,17.00732,17.00732,0,0,1-3.19727-6.69727,35.96742,35.96742,0,0,1-.95117-8.55469V146.4361h12.876v23.76367q0,6.22124,1.6416,8.9873,1.64063,2.76567,6.13574,2.76465,1.38135,0,2.9375-.12988,1.55567-.12887,2.76563-.30176v-35.084h12.875Z"/><path class="cls-1" d="M553.57117,147.99178a72.21836,72.21836,0,0,1,8.46875-1.77149A69.62788,69.62788,0,0,1,572.92761,145.4a26.55565,26.55565,0,0,1,9.63477,1.51172,14.49094,14.49094,0,0,1,6.09179,4.27734,16.69044,16.69044,0,0,1,3.19727,6.56738,34.94244,34.94244,0,0,1,.95117,8.46875v25.66407h-12.876V167.77985q0-6.22119-1.64161-8.81348-1.64208-2.59278-6.13574-2.59277-1.3828,0-2.9375.12988-1.55566.13037-2.76562.30273v35.083h-12.875Z"/><path class="cls-1" d="M618.55164,133.30231a7.06454,7.06454,0,0,1-2.29,5.57325,8.19745,8.19745,0,0,1-10.80078,0,7.92805,7.92805,0,0,1,0-11.14747,8.19743,8.19743,0,0,1,10.80078,0A7.07066,7.07066,0,0,1,618.55164,133.30231Zm-1.21,58.58693h-12.875V146.4361h12.875Z"/><path class="cls-1" d="M629.00671,135.11678l12.875-2.07422v13.39355h15.46778v10.71582H641.88171v15.98633a12.7165,12.7165,0,0,0,1.42579,6.48047q1.42529,2.42,5.74609,2.41992a24.54616,24.54616,0,0,0,4.27734-.38963,21.91986,21.91986,0,0,0,4.01856-1.08008l1.81445,10.02441a36.4977,36.4977,0,0,1-5.18457,1.64162,30.26213,30.26213,0,0,1-6.999.69141,23.04068,23.04068,0,0,1-8.72754-1.42578,13.686,13.686,0,0,1-5.53125-3.97559,14.79386,14.79386,0,0,1-2.89453-6.17773,36.44377,36.44377,0,0,1-.82032-8.03614Z"/><path class="cls-1" d="M709.10828,146.4361q-3.89805,13.13676-8.14258,24.62793-4.24521,11.49316-9.27051,22.29394a50.539,50.539,0,0,1-3.63477,6.61035,20.373,20.373,0,0,1-3.98144,4.49416,14.05189,14.05189,0,0,1-4.88867,2.5918,22.1448,22.1448,0,0,1-6.35938.82128,26.011,26.011,0,0,1-5.583-.56152,25.03248,25.03248,0,0,1-4.19726-1.25293l2.24707-10.2832a22.11485,22.11485,0,0,0,3.54394.95019,19.99465,19.99465,0,0,0,3.28711.25977,7.19561,7.19561,0,0,0,5.31543-1.8584,14.948,14.948,0,0,0,3.15625-5.1416q-4.41065-8.63962-8.81933-19.39941a241.142,241.142,0,0,1-8.29785-24.15235H677.1366q.86572,3.3706,2.04,7.30274,1.17042,3.9331,2.47364,7.94921,1.29931,4.01808,2.64551,7.82032,1.34619,3.80417,2.56152,6.91308,1.12647-3.1113,2.34277-6.91308,1.21582-3.80127,2.38574-7.82032,1.17042-4.01806,2.25586-7.94921,1.084-3.93162,1.95313-7.30274Z"/><path class="cls-1" d="M789.98914,161.90389a35.0201,35.0201,0,0,1-2.41993,13.56738,25.129,25.129,0,0,1-6.86914,9.59179,29.30153,29.30153,0,0,1-10.84472,5.70313,50.317,50.317,0,0,1-14.34473,1.90039q-3.63,0-8.46875-.30174a69.376,69.376,0,0,1-9.50488-1.25293V132.78374a79.87236,79.87236,0,0,1,9.72168-1.167q5.05362-.30175,8.68359-.30273a52.48712,52.48712,0,0,1,13.95606,1.72851,28.58184,28.58184,0,0,1,10.75781,5.44434,24.21322,24.21322,0,0,1,6.91308,9.5049A36.02833,36.02833,0,0,1,789.98914,161.90389Zm-38.97168,19.01074q.94912.08787,2.20312.12988,1.25088.044,2.98145.043,10.11025,0,14.99218-5.09766,4.88078-5.09764,4.88282-14.08593-.00009-9.41748-4.667-14.25782-4.66562-4.8384-14.77636-4.83886-1.38291,0-2.85157.043a27.3035,27.3035,0,0,0-2.76464.21679Z"/><path class="cls-1" d="M816.69031,145.2271a29.81455,29.81455,0,0,1,9.50488,1.2959,14.77123,14.77123,0,0,1,6.0918,3.71582,13.676,13.676,0,0,1,3.24121,5.876,29.02862,29.02862,0,0,1,.95019,7.69043v26.78809q-2.76717.605-7.69043,1.42579a73.961,73.961,0,0,1-11.9248.82032,37.79017,37.79017,0,0,1-7.99316-.77735,17.35042,17.35042,0,0,1-6.17872-2.54881,11.65834,11.65834,0,0,1-3.97461-4.623,15.94417,15.94417,0,0,1-1.38281-7,13.26459,13.26459,0,0,1,1.59864-6.74023,12.30233,12.30233,0,0,1,4.27734-4.40625,19.34659,19.34659,0,0,1,6.13574-2.377,34.494,34.494,0,0,1,7.17188-.73438,41.09357,41.09357,0,0,1,4.45019.21582,19.88862,19.88862,0,0,1,3.1543.5625v-1.21a7.12818,7.12818,0,0,0-1.98828-5.27148q-1.98789-1.98633-6.91211-1.9873a44.06628,44.06628,0,0,0-6.48145.47558,27.90007,27.90007,0,0,0-5.53027,1.33887l-1.6416-10.36914q1.122-.34427,2.80859-.73438,1.68448-.38964,3.67188-.6914,1.98769-.30178,4.1914-.51856Q814.44315,145.22761,816.69031,145.2271Zm1.03711,37.6748q1.89981,0,3.6289-.08594a25.0575,25.0575,0,0,0,2.76563-.25879v-9.76464q-.77793-.17286-2.334-.34571a25.96245,25.96245,0,0,0-2.85156-.17285,25.59713,25.59713,0,0,0-3.41308.21582,8.95135,8.95135,0,0,0-2.8086.82128,4.80851,4.80851,0,0,0-1.90039,1.64161,4.56669,4.56669,0,0,0-.69141,2.5918q-.00009,3.02639,2.03028,4.19141a11.22466,11.22466,0,0,0,5.57422,1.166Z"/><path class="cls-1" d="M887.46179,146.4361q-3.898,13.13676-8.14258,24.62793-4.24521,11.49316-9.2705,22.29394a50.54013,50.54013,0,0,1-3.63477,6.61035,20.37343,20.37343,0,0,1-3.98144,4.49414,14.05193,14.05193,0,0,1-4.88868,2.5918,22.14469,22.14469,0,0,1-6.35937.82129,26.01156,26.01156,0,0,1-5.583-.56152,25.03474,25.03474,0,0,1-4.19727-1.25293l2.24708-10.28321a22.1146,22.1146,0,0,0,3.54394.9502,19.99464,19.99464,0,0,0,3.28711.25976,7.19566,7.19566,0,0,0,5.31543-1.85839,14.94817,14.94817,0,0,0,3.15625-5.14161q-4.41073-8.63964-8.81934-19.39941a241.14264,241.14264,0,0,1-8.29785-24.15234h13.65332q.86563,3.3706,2.04,7.30273,1.1704,3.9331,2.47363,7.94922,1.29931,4.01807,2.64551,7.82031,1.34619,3.80418,2.56152,6.91309,1.12647-3.11128,2.34278-6.91309,1.21581-3.80127,2.38574-7.82031,1.17041-4.01807,2.25586-7.94922,1.084-3.93164,1.95312-7.30273Z"/><path class="cls-1" d="M907.33679,182.64313a12.8403,12.8403,0,0,0,5.0127-.69141,2.66979,2.66979,0,0,0,1.46875-2.67871,3.28188,3.28188,0,0,0-1.90137-2.72168,36.1931,36.1931,0,0,0-5.78906-2.63576,58.62125,58.62125,0,0,1-5.48731-2.333,16.1154,16.1154,0,0,1-4.1914-2.89453,11.69938,11.69938,0,0,1-2.67871-4.01856,14.85392,14.85392,0,0,1-.9502-5.61718,12.14742,12.14742,0,0,1,4.752-10.10938q4.752-3.71484,13.04883-3.71582a41.89441,41.89441,0,0,1,7.9502.73438,37.18831,37.18831,0,0,1,6.04883,1.59863L922.373,157.58356a47.63386,47.63386,0,0,0-4.88282-1.38282,26.59592,26.59592,0,0,0-5.91894-.60449q-6.04982,0-6.04883,3.37012a3.47777,3.47777,0,0,0,.25977,1.38281,2.94989,2.94989,0,0,0,1.03613,1.166,14.56065,14.56065,0,0,0,2.11719,1.21582q1.33886.6533,3.41406,1.43653a52.82613,52.82613,0,0,1,6.999,3.09277,16.7291,16.7291,0,0,1,4.36328,3.292,10.17538,10.17538,0,0,1,2.24707,3.92381,17.42005,17.42005,0,0,1,.64844,4.999q0,6.72654-5.05566,10.17578-5.05518,3.44676-14.30078,3.44825a41.09528,41.09528,0,0,1-10.06739-1.03711,40.67254,40.67254,0,0,1-5.57324-1.72852l2.16016-10.456a42.15018,42.15018,0,0,0,6.74023,2.03125A32.73337,32.73337,0,0,0,907.33679,182.64313Z"/><path class="cls-1" d="M139.97693,133.06293a3.67956,3.67956,0,0,0-.87639-.06664,3.77725,3.77725,0,0,0-1.46066.37926,3.81824,3.81824,0,0,0-1.84812,4.94575l-.02665.03794,8.74142,21.11862a44.61964,44.61964,0,0,0,18.03536-22.65517l-22.526-3.807ZM104.92715,136.056a3.8131,3.8131,0,0,0-3.65729-2.96642,3.74818,3.74818,0,0,0-.75135.06664l-.03793-.04613-22.33021,3.79055a44.78863,44.78863,0,0,0,17.979,22.49525l8.65329-20.90953-.06765-.082a3.77538,3.77538,0,0,0,.21215-2.34834Zm18.70163,8.20023a3.811,3.811,0,0,0-6.7211.00819h-.01845l-10.98112,19.85681a44.72921,44.72921,0,0,0,24.411,1.25566q2.252-.51254,4.39941-1.229l-11.00674-19.8927ZM158.39154,98.13,141.496,113.25224l.00922.04818a3.81822,3.81822,0,0,0,1.49655,6.555l.02051.09123,21.88434,6.30391A45.38629,45.38629,0,0,0,158.39154,98.132Zm-31.38941,1.69435a3.81824,3.81824,0,0,0,6.061,2.91108l.06663.0287,18.48738-13.10908A44.94735,44.94735,0,0,0,125.69728,77.16l1.28436,22.65822Zm-19.578,2.99514a3.81311,3.81311,0,0,0,6.05176-2.92134l.0943-.0451L114.85455,77.16a45.79463,45.79463,0,0,0-4.61364.79441,44.55468,44.55468,0,0,0-21.461,11.69452L107.38824,102.84ZM97.5039,119.96614a3.81311,3.81311,0,0,0,1.49859-6.55607l.01845-.08917-16.9888-15.196a44.54141,44.54141,0,0,0-6.32236,28.19952l21.7767-6.28341Zm16.50089,6.675,6.267,3.01358,6.24857-3.00639,1.55189-6.74672-4.32459-5.40806h-6.95994l-4.33689,5.39985Z"/><path class="cls-1" d="M223.87482,139.929,206.0174,62.36273a13.94252,13.94252,0,0,0-7.47553-9.3001L126.25586,18.55a13.92877,13.92877,0,0,0-11.99793,0L41.98639,53.08112a13.93843,13.93843,0,0,0-7.4776,9.299L16.6795,139.947a13.64732,13.64732,0,0,0-.00408,5.95539,13.84061,13.84061,0,0,0,.50323,1.761,13.42762,13.42762,0,0,0,1.37665,2.79425c.245.37415.50329.738.78412,1.09064l50.02545,62.1966c.21832.27056.45923.51764.69806.76873A13.75915,13.75915,0,0,0,72.70135,216.7a14.27345,14.27345,0,0,0,3.9535,1.719,13.63063,13.63063,0,0,0,3.51587.4848h.778l79.44367-.01843a13.31571,13.31571,0,0,0,1.44531-.08508,13.80475,13.80475,0,0,0,2.03875-.38746,14.21635,14.21635,0,0,0,1.41559-.45306c.36182-.13837.7226-.27679,1.07111-.44385a14.27667,14.27667,0,0,0,1.51605-.84259,13.63679,13.63679,0,0,0,3.318-2.9367l1.52521-1.8963,48.48279-60.31257A13.51512,13.51512,0,0,0,223.366,147.648a14.0163,14.0163,0,0,0,.51251-1.76715A13.615,13.615,0,0,0,223.87482,139.929Zm-27.41437-1.339a4.32858,4.32858,0,0,1-3.66321,3.70892c-.10235.01563-.20148.04425-.30524.05249-.10992.00843-.22345-.00543-.33508-.00543a4.24963,4.24963,0,0,1-.53985-.0163c-.00934-.00116-.01832.00037-.02765-.00085a4.343,4.343,0,0,1-.6283-.14349c-.055-.01569-.1106-.01844-.16547-.03644l-.06152-.00922c-.02869-.0072-.0553-.02051-.08508-.02875-.35871-.07891-.80463-.1568-1.11725-.23883a36.01231,36.01231,0,0,1-3.88281-1.49859,40.45539,40.45539,0,0,0-6.6128-2.01783c-.31054-.06689-.61926-.14184-.93145-.20141-.07544-.00238-.14881.01214-.22382.01471a3.41,3.41,0,0,0-2.19513.88415l-.00165-.0003-.00049.00036q-.92248-.17532-1.84906-.32391a56.285,56.285,0,0,1-11.37744,20.11841q-1.60034,1.82016-3.35229,3.504l-.0022.00219a56.28029,56.28029,0,0,1-10.20495,7.7464h.00006c.14367.42224.3291.82819.51,1.2356.0747.16821.12963.3446.21057.51h0v.00006l-.00818.01825a3.3958,3.3958,0,0,0-.324,2.534,40.35429,40.35429,0,0,0,3.8357,6.86767,35.94755,35.94755,0,0,1,2.31964,3.44824c.11847.22425.2633.53107.39642.81281.05921.12524.11658.24664.16736.35162l.00812.01734a4.34867,4.34867,0,0,1,.3537.7481l.003.01191a4.2945,4.2945,0,0,1,.19122.76947c.00409.02514.01459.05.01819.07513a4.3345,4.3345,0,0,1,.03644.845,4.282,4.282,0,0,1-.07178.47266c-.01971.11853-.02557.23932-.055.35577-.03156.12433-.08618.24024-.12842.361a4.35942,4.35942,0,0,1-.1543.42829c-.0354.07513-.08716.14136-.12683.21435a4.62093,4.62093,0,0,1-.86395,1.1341c-.02893.02655-.0658.046-.09558.0719a4.29592,4.29592,0,0,1-.60193.44787l-.01093.00812a4.2655,4.2655,0,0,1-.41357.19409c-.11835.05481-.227.12287-.35211.16767l-.01123.0028a4.30418,4.30418,0,0,1-.78833.19593c-.0188.00293-.03754.011-.05634.01367a4.33729,4.33729,0,0,1-.8457.03644,4.28189,4.28189,0,0,1-.46-.06989c-.12274-.02008-.24774-.02649-.36829-.05688-.12384-.03144-.23944-.08594-.35974-.12793a4.34793,4.34793,0,0,1-.4295-.15479c-.0763-.036-.1435-.08844-.21759-.12872a4.3903,4.3903,0,0,1-1.13117-.86231c-.02209-.02411-.03827-.05493-.05988-.07965a4.299,4.299,0,0,1-.46008-.61841l-.00751-.01007a4.33534,4.33534,0,0,1-.35394-.74878l-.008-.0169c-.15668-.32013-.36445-.7323-.50586-1.04724-.00849-.01886-.02124-.04377-.02918-.06183-.0639-.1676-.11566-.33936-.17706-.50788q-.54117-1.48543-.95191-3.01287c-.03985-.14869-.08874-.2948-.12671-.444-.00592-.01984-.01324-.03925-.01922-.05909a40.28878,40.28878,0,0,0-2.95136-7.21454,3.60985,3.60985,0,0,0-2.20581-1.34069l-.00085-.00147-.00226-.00061c-.10242-.17932-.42084-.7594-.68884-1.24359-.08594-.15485-.16693-.3-.23365-.418a55.98419,55.98419,0,0,1-39.9215-.10211l-.53339.96411-.44678.80982a3.51475,3.51475,0,0,0-1.8645.90814,30.25813,30.25813,0,0,0-3.34979,7.77179,35.76177,35.76177,0,0,1-1.24848,3.96478c-.13836.31775-.37.76263-.53509,1.09985v.00922l-.00714.00818c-.01483.04162-.03961.07623-.05561.11712a4.33951,4.33951,0,0,1-.30877.65064l-.00092.00122a4.34327,4.34327,0,0,1-7.8172-3.68915l.00043-.00171c.01471-.0412.04016-.07757.05609-.11822a4.32685,4.32685,0,0,1,.31415-.66638c.165-.34137.38336-.84052.55554-1.16651a36.07551,36.07551,0,0,1,2.31964-3.45636q.57221-.83056,1.10388-1.687a42.27013,42.27013,0,0,0,2.8108-5.34882A4.28715,4.28715,0,0,0,91.03,171.979c-.01935-.04383-.03168-.09-.05255-.13318l.04925-.11786.738-1.76813A56.41071,56.41071,0,0,1,66.81659,138.8125l-.19092.03247-1.69513.29023a4.79758,4.79758,0,0,0-2.48669-.87842,40.51174,40.51174,0,0,0-7.5401,2.21918c-.696.313-1.40332.59906-2.11731.86773-.58362.21985-1.17108.42981-1.7655.61957-.31366.08508-.76264.1712-1.11933.2522a.42066.42066,0,0,0-.06122.0191l-.02075.00751-.01581.00146-.04883.00775a4.3431,4.3431,0,0,1-.78973.18006c-.01636.00213-.0321-.00049-.04846.00146-.1153.014-.22852.00568-.34332.01038a4.41122,4.41122,0,0,1-.5221.00879c-.07312-.00586-.14245-.02741-.2149-.03693a4.32548,4.32548,0,0,1-.61975-.11249c-.0174-.00494-.033-.01422-.0503-.01934a4.33232,4.33232,0,0,1-.72394-.2826c-.0501-.02527-.09356-.06207-.1427-.08923a4.366,4.366,0,0,1-.55456-.35016c-.112-.08624-.20758-.19269-.3111-.28985-.09857-.09284-.20544-.1764-.29516-.27826-.09412-.10675-.16889-.23133-.25275-.348-.08118-.113-.17133-.21832-.2417-.33947-.065-.11206-.10937-.23853-.16479-.35773a4.23677,4.23677,0,0,1-.19129-.43042c-.00445-.01318-.01227-.02411-.0166-.03735a4.27979,4.27979,0,0,1-.11731-.5315c-.01684-.08685-.04858-.16717-.0603-.2561-.00086-.00665.00024-.01306-.00061-.01972a4.29075,4.29075,0,0,1-.02362-.78c.00152-.028-.00342-.05712-.00141-.085a4.32744,4.32744,0,0,1,.14087-.81952l.003-.0166a4.34033,4.34033,0,0,1,1.95948-2.56976c.01117-.00672.02032-.01593.03155-.02252a4.40024,4.40024,0,0,1,.53565-.24677c.08679-.03607.16656-.08337.25634-.11395.01563-.00531.02869-.01453.04444-.01972a4.34359,4.34359,0,0,1,.79211-.18048l.0622-.01532.0003-.00006.00031-.00006.03766-.01019c.12622-.02966.27032-.065.41125-.09931.12091-.02966.22791-.05346.34619-.0805.1388-.03235.28174-.06641.39777-.08875a36.13857,36.13857,0,0,1,4.15137-.33416c1.03906-.06794,2.07287-.1875,3.10247-.33533a40.36018,40.36018,0,0,0,4.65076-.94086,5.98088,5.98088,0,0,0,1.85944-1.87274l.06884-.02,1.74213-.50879a55.97993,55.97993,0,0,1,8.82678-39.02386l-1.38482-1.23822a4.807,4.807,0,0,0-.87024-2.49494,40.35148,40.35148,0,0,0-6.433-4.5224c-.03631-.01855-.071-.04-.10724-.05871a36.14856,36.14856,0,0,1-3.47937-2.03858c-.11132-.083-.24194-.18847-.3728-.29467-.05029-.04084-.09534-.076-.14618-.11786-.12878-.10566-.25921-.21344-.37689-.30909l-.06458-.0451a4.58647,4.58647,0,0,1-1.064-6.3797,4.16788,4.16788,0,0,1,3.44714-1.52631,5.15649,5.15649,0,0,1,3.01563,1.13782c.29523.23474.69806.54224.96149.76776.69055.65381,1.34454,1.34394,1.98114,2.04993.29083.3222.58624.64026.86535.97284a40.37356,40.37356,0,0,0,5.8324,5.27069,3.41662,3.41662,0,0,0,2.56872.24908l.00019.00013.00085-.00019c.13947.10175.28217.1994.42237.3003.37805.27148.75579.54327,1.13891.80749a55.64723,55.64723,0,0,1,28.266-16.147,56.42009,56.42009,0,0,1,7.821-1.20233l.002-.03595.10046-1.79468a4.7161,4.7161,0,0,0,1.4043-2.23663,40.45944,40.45944,0,0,0-.48175-7.84559c-.01721-.085-.02765-.17108-.04425-.25616a36.3608,36.3608,0,0,1-.54614-3.85834c-.01129-.31469.00616-.74926.01025-1.108-.001-.041-.01025-.08-.01025-.121v-.00043a4.33164,4.33164,0,0,1,.17352-1.72888c.03223-.10419.08484-.1972.12445-.29767a4.36652,4.36652,0,0,1,.203-.47845,4.28277,4.28277,0,0,1,.25025-.37488c.07294-.10675.1358-.22034.21789-.32019.088-.10675.193-.19611.29047-.29376.10028-.10077.19251-.2088.30249-.29956.09595-.079.20532-.13916.30768-.20984a4.28616,4.28616,0,0,1,.38708-.259,4.36323,4.36323,0,0,1,.45435-.19324c.10815-.04346.2088-.09986.32135-.13477a4.779,4.779,0,0,1,2.58374-.00091c.1.03094.18909.08172.28558.11944a4.36049,4.36049,0,0,1,.49036.208,4.28353,4.28353,0,0,1,.37158.248c.10791.07361.2226.13708.32337.22.1062.08752.19494.192.29217.28888.10138.10077.21.1936.30127.30414.07861.0954.13831.20416.20856.30591a4.28078,4.28078,0,0,1,.26007.38879,4.37475,4.37475,0,0,1,.194.45587c.04321.10761.0993.20776.134.3197a4.33737,4.33737,0,0,1,.17493,1.51105c-.00366.07251.00738.14514.00012.21747,0,.37927.02252.88251.00922,1.23q-.08844,1.03161-.23627,2.05627-.14777,1.03337-.35522,2.05732a40.52538,40.52538,0,0,0-.49,7.84759A3.41766,3.41766,0,0,0,124.77,63.62079c.05762.04566.10693.09986.16772.142.01538.31262.06665,1.35614.10456,1.93115A56.69322,56.69322,0,0,1,160.951,83.04468l1.64624-1.17572a4.80749,4.80749,0,0,0,2.624-.285q1.583-1.17426,3.04456-2.49658.72985-.66038,1.42731-1.35584.69717-.69525,1.36053-1.42444a35.87716,35.87716,0,0,1,2.85681-3.02386c.26544-.22754.66626-.533.95941-.76465a4.35851,4.35851,0,0,1,.7099-.5647l.00611-.00488c.0415-.02649.087-.0401.129-.065a4.33308,4.33308,0,0,1,.637-.32111c.09833-.03821.2-.05585.29986-.08655a4.34483,4.34483,0,0,1,.51105-.13946c.12378-.02191.24786-.022.37232-.033a4.36285,4.36285,0,0,1,.46307-.03247c.11963.00213.23645.02459.35516.03656a4.34869,4.34869,0,0,1,.47779.05877c.10876.02326.21191.06543.31866.09693a4.29036,4.29036,0,0,1,.47943.15545c.11572.04932.22193.11908.33338.17847a4.23931,4.23931,0,0,1,.40435.22406,4.36049,4.36049,0,0,1,.40577.33624c.08068.07062.16967.12647.24621.204l.01117.01386c.08374.08575.15143.19037.22876.28412a4.41093,4.41093,0,0,1,.32452.41144l.00617.00781c.0329.05157.05029.10779.08075.16022a4.33494,4.33494,0,0,1,.30371.60253c.04437.11383.066.23121.10016.347a4.362,4.362,0,0,1,.1261.4621,4.274,4.274,0,0,1,.03808.4292c.01038.135.03052.26892.02838.40423-.00238.14234-.02734.28162-.04351.42267-.01557.1369-.02186.27411-.05036.4093-.02881.136-.07947.26557-.12115.39838-.042.13385-.07434.26959-.12958.3996a4.36236,4.36236,0,0,1-.23035.43035c-.058.10254-.10394.2096-.17083.30817a4.33324,4.33324,0,0,1-.437.52728c-.03924.04187-.06713.09021-.10839.13086l-.00715.00568a4.35942,4.35942,0,0,1-.709.5661c-.29211.23364-.67346.56171-.95227.76874a35.97817,35.97817,0,0,1-3.59479,2.09723,40.486,40.486,0,0,0-6.43408,4.52032,3.4218,3.4218,0,0,0-.81183,2.44983c-.23883.2204-1.08551.96967-1.53241,1.37561a56.209,56.209,0,0,1,9.01,38.93353l1.74658.50843.00006.00006h0c.009.01623.021.03039.03016.04651a4.86066,4.86066,0,0,0,1.83532,1.83026c.82752.22046,1.66321.40454,2.50214.5719a40.45011,40.45011,0,0,0,5.25738.70227,36.54248,36.54248,0,0,1,4.14728.33416c.2796.05146.656.14942.98365.23084.09667.02393.19061.047.275.06635.02045.00268.03857.01086.059.01385a4.34239,4.34239,0,0,1,.72253.165c.00873.00287.016.008.02472.011a4.27248,4.27248,0,0,1,.655.29053c.04273.02265.091.03723.13269.06116a4.32113,4.32113,0,0,1,.6529.46423c.0111.00946.02465.0163.03564.02588a4.32922,4.32922,0,0,1,1.46137,3.67133c-.00324.03473.001.06878-.00312.10351C196.45984,138.54712,196.46332,138.56812,196.46045,138.59Z"/><polygon class="cls-1" points="223.874 139.926 223.875 139.929 223.875 139.932 223.874 139.926"/></svg>