<svg xmlns="http://www.w3.org/2000/svg" role="img" viewBox="-6.88 -6.38 773.76 264.76"><defs><style>.cls-1{fill:#1c77c8}.cls-2{fill:#fff}</style></defs><path d="M72.882 175.773a3.135 3.135 0 1 0 3.234 3.134 3.189 3.189 0 0 0-3.234-3.134zm103.022 6.267a3.135 3.135 0 1 0-3.234-3.133 3.188 3.188 0 0 0 3.234 3.133zm-11.022-25.987c14.178 0 25.74-11.065 25.74-24.657a24.78 24.78 0 0 0-15.847-22.78c0-.732.066-1.479.066-2.226 0-20.555-17.383-37.263-38.903-37.263a38.97 38.97 0 0 0-35.06 21.238 18.648 18.648 0 0 0-10.989-3.608c-9.975 0-17.955 7.71-17.955 17.2a16.827 16.827 0 0 0 .769 5.088A25.04 25.04 0 0 0 59.8 130.776c0 13.783 11.627 24.403 25.936 25.213h77.74c.458 0 .9.064 1.406.064zM64.728 130.776a20.109 20.109 0 0 1 10.413-17.45l3.45-1.963-1.185-3.789a11.901 11.901 0 0 1-.544-3.616c0-6.747 5.754-12.274 13.027-12.274a13.717 13.717 0 0 1 8.076 2.656l4.712 3.454 2.61-5.227a34.045 34.045 0 0 1 30.651-18.513c18.823 0 33.975 14.53 33.975 32.336 0 .215-.007.42-.028.902a26.94 26.94 0 0 0-.037 1.324v3.33l3.09 1.242a19.852 19.852 0 0 1 12.755 18.208c0 10.818-9.304 19.73-20.811 19.73-.066 0-.152-.005-.383-.02a19.491 19.491 0 0 0-.53-.033c-.228-.009-.228-.009-.493-.011h-77.74c-11.79-.676-21.008-9.47-21.008-20.286zm57.249 59.461a3.235 3.235 0 1 0 3.233-3.134 3.188 3.188 0 0 0-3.233 3.134z" class="cls-1"/><path d="M187.992 236.63l56.174-70.44a18.71 18.71 0 0 0 3.613-15.828L227.73 62.525a18.71 18.71 0 0 0-10.123-12.694l-81.173-39.09a18.71 18.71 0 0 0-16.237 0L39.025 49.83a18.71 18.71 0 0 0-10.123 12.695L8.854 150.362a18.71 18.71 0 0 0 3.613 15.829l56.174 70.44a18.71 18.71 0 0 0 14.628 7.044h90.095a18.71 18.71 0 0 0 14.628-7.045zm-21.315-60.994a9.711 9.711 0 1 1 0 6.541H148.23v-1.652h-.126v-19.603q-7.848-.004-19.623-.006v20.177a9.811 9.811 0 1 1-6.54 0v-20.179l-19.624-.003v19.614h-.126v1.652H82.11a9.711 9.711 0 1 1 0-6.54h13.667V160.91l-10.32-.001c-17.075-.968-30.583-13.854-30.583-30.133a29.779 29.779 0 0 1 12.308-24.012 22.32 22.32 0 0 1-.175-2.806c0-12.28 10.254-22.129 22.883-22.129a23.482 23.482 0 0 1 9.162 1.87 44.103 44.103 0 0 1 36.887-19.5c23.873 0 43.338 18.378 43.821 41.317a29.523 29.523 0 0 1 15.79 25.88c0 16.359-13.81 29.585-30.667 29.585-.358 0-.614-.013-1.06-.044-.076-.004-3.141-.008-9.177-.012v14.711z" class="cls-1"/><path d="M163.97 151.073c.166.008.306.017.529.032.23.016.317.02.383.02 11.507 0 20.811-8.91 20.811-19.729a19.852 19.852 0 0 0-12.755-18.208l-3.09-1.242v-3.33c0-.402.01-.69.037-1.324.021-.483.028-.687.028-.902 0-17.806-15.152-32.336-33.975-32.336a34.045 34.045 0 0 0-30.651 18.513l-2.61 5.227-4.712-3.454a13.717 13.717 0 0 0-8.076-2.656c-7.273 0-13.027 5.527-13.027 12.274a11.901 11.901 0 0 0 .544 3.616l1.184 3.789-3.45 1.964a20.109 20.109 0 0 0-10.412 17.45c0 10.814 9.219 19.609 21.008 20.285h77.74c.265.002.265.002.493.011z" class="cls-2"/><path d="M154.645 156.248v4.677c6.036.003 9.1.008 9.177.012.446.03.702.044 1.06.044 16.856 0 30.667-13.226 30.667-29.585a29.523 29.523 0 0 0-15.79-25.88c-.483-22.939-19.948-41.317-43.821-41.317a44.103 44.103 0 0 0-36.887 19.5 23.482 23.482 0 0 0-9.162-1.87c-12.63 0-22.883 9.848-22.883 22.128a22.32 22.32 0 0 0 .175 2.807 29.779 29.779 0 0 0-12.308 24.012c0 16.279 13.508 29.165 30.584 30.133l10.32.001v-4.662h6.54v4.663l19.623.003v-3.048h6.541v3.05q11.77.002 19.623.006v-4.674zm-68.91-.259c-14.308-.81-25.935-11.43-25.935-25.213a25.04 25.04 0 0 1 12.903-21.731 16.827 16.827 0 0 1-.769-5.087c0-9.491 7.98-17.201 17.955-17.201a18.648 18.648 0 0 1 10.99 3.608 38.97 38.97 0 0 1 35.059-21.238c21.52 0 38.903 16.708 38.903 37.263 0 .747-.066 1.494-.066 2.226a24.78 24.78 0 0 1 15.846 22.78c0 13.592-11.561 24.657-25.739 24.657-.507 0-.948-.064-1.406-.064z" class="cls-2"/><path d="M154.645 156.248h-6.54v24.277h.125v1.652h18.447a9.436 9.436 0 0 1 0-6.54h-12.032v-19.39zm-32.705 1.618v23.226a9.721 9.721 0 0 1 6.541 0v-23.226zm-26.164-1.618v19.388H82.11a9.438 9.438 0 0 1 0 6.541h20.082v-1.652h.126v-24.277z" class="cls-2"/><path d="M82.109 175.636a9.711 9.711 0 1 0 0 6.541 9.438 9.438 0 0 0 0-6.54zm-9.227 6.404a3.135 3.135 0 1 1 3.234-3.133 3.188 3.188 0 0 1-3.234 3.133zm49.058-.948a9.812 9.812 0 1 0 6.541 0 9.721 9.721 0 0 0-6.54 0zm6.505 9.145a3.235 3.235 0 1 1-3.235-3.134 3.188 3.188 0 0 1 3.235 3.134zm38.232-8.06a9.711 9.711 0 1 0 0-6.54 9.436 9.436 0 0 0 0 6.54zm9.227-6.404a3.135 3.135 0 1 1-3.234 3.134 3.19 3.19 0 0 1 3.234-3.134z" class="cls-2"/><path fill="none" d="M668.85 117.498c-4.466 0-7.939 1.488-10.32 4.663-2.58 2.977-3.771 7.244-3.771 12.701 0 4.962.992 8.93 2.977 11.808 2.282 3.374 5.953 5.16 11.113 5.16 4.465 0 7.938-1.489 10.518-4.465 2.381-3.076 3.671-7.244 3.671-12.503 0-5.358-1.29-9.625-3.671-12.7-2.58-3.176-6.053-4.664-10.518-4.664zm-179.798.099c-3.969 0-7.045 1.091-9.426 3.473-2.183 2.282-3.671 5.557-4.267 9.923h27.684q-1.488-13.396-13.99-13.396zm-57.551-.099a11.228 11.228 0 0 0-9.525 4.663c-2.779 3.374-4.069 7.84-4.069 13.396v.893c0 5.16 1.092 9.327 3.275 12.602a12.276 12.276 0 0 0 10.617 5.457c5.16 0 8.93-1.885 11.411-5.557 1.985-3.175 3.076-7.54 3.076-13.197s-1.091-10.022-3.274-12.998c-2.481-3.572-6.35-5.26-11.51-5.26zm178.706 0c-5.16 0-9.03 1.687-11.51 5.259-2.183 2.976-3.275 7.342-3.275 12.998s.992 10.022 3.076 13.197c2.382 3.672 6.251 5.557 11.411 5.557a12.396 12.396 0 0 0 10.617-5.458c2.183-3.274 3.275-7.442 3.275-12.601v-.893c0-5.557-1.39-10.022-3.97-13.396a11.788 11.788 0 0 0-9.624-4.663zm117.185.099c-3.969 0-7.045 1.091-9.426 3.473-2.183 2.282-3.672 5.557-4.267 9.923h27.684q-1.488-13.396-13.99-13.396z"/><path fill="#646b76" d="M507.905 117.498c-4.366-5.755-10.815-8.534-19.15-8.534-7.542 0-13.594 2.58-17.96 7.84-4.565 5.159-6.748 11.51-6.748 19.15 0 8.434 2.382 15.082 7.145 20.043 4.366 4.664 10.418 7.045 17.96 7.045 6.846 0 12.502-1.984 16.967-5.854a23.14 23.14 0 0 0 7.045-12.006h-10.518c-1.389 2.976-2.877 5.259-4.663 6.648a14.667 14.667 0 0 1-8.93 2.58 12.77 12.77 0 0 1-9.824-3.97c-2.382-2.678-3.672-6.548-4.068-11.51h38.896c-.1-9.128-2.183-16.273-6.152-21.432zm-32.546 13.494c.595-4.365 2.084-7.64 4.267-9.922 2.381-2.382 5.457-3.473 9.426-3.473q12.503 0 13.991 13.396zm260.964 20.838a14.667 14.667 0 0 1-8.93 2.58 12.77 12.77 0 0 1-9.824-3.97c-2.382-2.679-3.672-6.548-4.068-11.51h38.896c-.1-9.128-2.183-16.273-6.152-21.432-4.366-5.755-10.816-8.534-19.15-8.534-7.542 0-13.594 2.58-17.96 7.84-4.565 5.159-6.748 11.51-6.748 19.15 0 8.434 2.382 15.082 7.145 20.043 4.365 4.664 10.418 7.045 17.96 7.045 6.846 0 12.502-1.984 16.967-5.854a23.14 23.14 0 0 0 7.045-12.006h-10.518c-1.389 2.976-2.877 5.259-4.663 6.648zm-18.357-30.76c2.381-2.382 5.457-3.473 9.426-3.473q12.503 0 13.991 13.395H713.7c.595-4.365 2.084-7.64 4.267-9.922zm-284.083-12.106c-6.35 0-11.51 2.977-15.678 9.03V89.417h-10.518v72.236h9.823v-6.152c3.573 4.961 8.832 7.541 15.877 7.541 7.54 0 13.395-2.679 17.761-8.037 3.969-4.961 5.953-11.411 5.953-19.25 0-7.54-1.984-13.792-5.854-18.753-4.266-5.359-10.022-8.038-17.364-8.038zm9.327 39.988c-2.48 3.672-6.251 5.557-11.411 5.557a12.276 12.276 0 0 1-10.617-5.457c-2.183-3.275-3.275-7.442-3.275-12.602v-.893c0-5.557 1.29-10.022 4.069-13.396a11.228 11.228 0 0 1 9.525-4.663c5.16 0 9.03 1.687 11.51 5.259 2.183 2.976 3.275 7.342 3.275 12.998s-1.091 10.022-3.076 13.197zm91.585-19.051h37.706v-9.228h-37.706v-20.639h40.087v-9.228H523.98v70.847h52.589v-9.228h-41.774v-22.524zm-149.632 11.808a18.175 18.175 0 0 1-4.961 9.129 11.162 11.162 0 0 1-7.64 3.373c-4.069 0-7.046-1.091-8.832-3.076-1.885-1.984-2.778-5.16-2.778-9.525v-31.257h-10.518v31.951c0 13.793 6.152 20.738 18.555 20.738 6.45 0 11.808-2.778 16.174-8.335v6.946h10.518v-51.3h-10.518zM682.94 117.2a17.766 17.766 0 0 0-15.679-8.236c-6.945 0-12.601 2.382-16.868 7.244-4.366 4.763-6.45 10.915-6.45 18.654s2.084 13.892 6.45 18.556c4.267 4.663 9.923 7.044 16.868 7.044 6.748 0 11.908-2.877 15.678-8.533v7.938c0 9.625-4.465 14.487-13.395 14.487-4.168 0-7.244-.695-9.13-1.885-1.984-1.29-3.174-3.473-3.77-6.45h-10.518c.993 5.656 3.275 9.823 7.046 12.602 3.77 2.679 9.227 4.068 16.372 4.068 15.876 0 23.913-8.137 23.913-24.41v-47.926h-10.518zm-3.573 30.165c-2.58 2.976-6.053 4.465-10.518 4.465-5.16 0-8.83-1.786-11.113-5.16-1.985-2.878-2.977-6.846-2.977-11.808 0-5.457 1.19-9.724 3.77-12.7 2.382-3.176 5.855-4.664 10.32-4.664s7.938 1.488 10.518 4.663c2.382 3.076 3.671 7.343 3.671 12.701 0 5.26-1.29 9.427-3.671 12.503zM339.916 90.806h-13.693l-34.233 34.233V90.806h-10.815v70.847h10.815v-24.509l9.228-8.831 28.776 33.34h14.487l-35.92-40.385 31.355-30.462zm283.587 27.188c-4.168-6.053-9.426-9.03-15.678-9.03-7.342 0-13.197 2.68-17.364 8.038-3.97 4.961-5.854 11.212-5.854 18.753 0 7.839 1.984 14.289 5.953 19.25 4.267 5.358 10.22 8.037 17.761 8.037 6.946 0 12.305-2.58 15.876-7.54v6.151h9.824V89.417h-10.518zm.298 18.456c0 5.16-1.092 9.327-3.275 12.602a12.396 12.396 0 0 1-10.617 5.457c-5.16 0-9.03-1.885-11.41-5.557-2.085-3.175-3.077-7.54-3.077-13.197s1.092-10.022 3.275-12.998c2.48-3.572 6.35-5.26 11.51-5.26a11.788 11.788 0 0 1 9.625 4.664c2.58 3.374 3.969 7.84 3.969 13.396z"/></svg>