<svg id="Layer_1" data-name="Layer 1" xmlns="http://www.w3.org/2000/svg" viewBox="0 0 130.2323 245"><defs><style>.cls-1{opacity:0.8;}.cls-2{fill:#fff;}</style></defs><title>sig-security-stacked-black</title><g class="cls-1"><polygon points="10.329 102.555 10.329 133.93 62.976 165.447 115.275 136.546 115.626 104.674 62.128 134.184 10.329 102.555"/><polygon points="10.49 63.022 10.49 63.117 10.647 63.024 10.49 63.022"/><polyline points="10.808 63.024 63.799 34.233 115.304 60.143 114.953 30.275 63.298 4.047 10.651 33.239"/></g><path d="M48.473,101.16211s7.21207-4.66763,6.7537-11.98531c-.04382-.70063.49285-7.39912-6.24493-10.17527C42.073,76.15489,34.28055,80.50284,30.52217,81.915a7.7198,7.7198,0,0,0-2.73483,1.93549c-.226.2326-.47864.49246-.251.84367.1804.27853.50077.22454.7715.188.27649-.03736.5407-.15449.8161-.209.43565-.08636.95971-.43092,1.26934.10831.28391.49444-.14611.8683-.48645,1.17543a24.69075,24.69075,0,0,1-5.13474,3.36732,11.60507,11.60507,0,0,1-7.93035,1.06783,10.57386,10.57386,0,0,1-5.38015-3.35159c-.1845-.18462-.34161-.50845-.67651-.38383-.33106.12315-.23548.46169-.24329.72033a6.37092,6.37092,0,0,0,.7671,3.18218c1.92845,3.69927,5.18394,6.00222,8.8037,7.87418L52.1281,117.54353C49.25573,113.72534,41.72381,107.32572,48.473,101.16211ZM37.75464,86.392a1.92921,1.92921,0,0,1,.14208-1.99978,5.84172,5.84172,0,0,1,5.13162-2.2091,8.55757,8.55757,0,0,1,2.414.2612,8.35356,8.35356,0,0,1,5.87222,5.2501,1.58189,1.58189,0,0,1-.28077,1.56553,5.93146,5.93146,0,0,1-5.05511,2.20225,9.63637,9.63637,0,0,1-5.06476-1.36447A7.988,7.988,0,0,1,37.75464,86.392Z"/><path d="M115.10957,86.65667c-.335-.12462-.492.19927-.67651.38383a10.57371,10.57371,0,0,1-5.38015,3.35159,11.605,11.605,0,0,1-7.93035-1.06783,24.68815,24.68815,0,0,1-5.13475-3.36732c-.34027-.30713-.77035-.681-.48651-1.17543.30963-.53923.83375-.19467,1.26941-.10831.27533.05451.5396.17164.81609.209.2708.03653.59111.09052.77151-.188.22755-.35121-.02508-.61107-.251-.84367A7.72114,7.72114,0,0,0,95.37246,81.915c-3.75838-1.41219-11.55087-5.76014-18.45964-2.9135-6.73777,2.77615-6.2011,9.47464-6.245,10.17527-.45836,7.31768,6.7537,11.98531,6.7537,11.98531,6.74929,6.16368-.78264,12.56323-3.655,16.38142l32.01553-19.11011c3.61975-1.872,6.87525-4.175,8.8037-7.87424a6.37084,6.37084,0,0,0,.76709-3.18212C115.34505,87.11836,115.44062,86.77982,115.10957,86.65667ZM88.13993,86.392a7.98739,7.98739,0,0,1-3.15922,3.70573A9.6364,9.6364,0,0,1,79.916,91.46215a5.93156,5.93156,0,0,1-5.05517-2.20225,1.582,1.582,0,0,1-.28071-1.56553,8.35344,8.35344,0,0,1,5.87216-5.2501,8.55843,8.55843,0,0,1,2.41413-.2612,5.84185,5.84185,0,0,1,5.13155,2.2091A1.9291,1.9291,0,0,1,88.13993,86.392Z"/><path d="M15.20921,80.44232c-.70287.92223-1.75189,1.58421-2.29674,2.79323a7.26037,7.26037,0,0,0,3.97275-1.18944,52.49919,52.49919,0,0,0,5.72061-4.2527c.55611-.47781,1.54711-.93969,1.39863-1.59029-.15385-.67408-1.25092-.49988-1.94623-.66384-.3088-.07287-.709-.04075-.75968-.46444-.04567-.382.27771-.55963.56206-.71956,5.1322-2.88631,12.60207-5.88432,20.75146-3.83163L41.2595,67.00446s10.1324,5.97528,19.486,7.5238c.74054.12257,1.47648.21942,2.2018.28135.72532-.06193,1.46126-.15878,2.20181-.28135,9.3536-1.54852,19.486-7.5238,19.486-7.5238L83.2825,70.52365C91.432,68.471,98.90182,71.469,104.034,74.35528c.2843.15993.60768.33758.56206.71956-.05066.42369-.45094.39157-.75967.46444-.69531.164-1.79244-.01024-1.94623.66384-.14855.6506.84251,1.11248,1.39863,1.59029a52.49339,52.49339,0,0,0,5.72061,4.2527,7.26037,7.26037,0,0,0,3.97275,1.18944c-.54485-1.209-1.59387-1.871-2.2968-2.79323-.70076-.91941-1.47892-1.78272-2.17686-2.704-.51171-.67542-.24239-1.04838.57665-.97277.74637.06884,1.48352.235,2.22439.3603.40008.06768.874.33815,1.13461-.15686.216-.41026-.05911-.79947-.32229-1.12637-.81386-1.011-1.65164-2.00362-2.46077-3.01822-.7802-.9782-1.51026-1.9953-2.30755-2.95975-2.5516-3.08629-2.65351-6.56191-1.28725-10.02212a45.44355,45.44355,0,0,0,2.716-20.71863c-.111-1.373-.17528-2.7505-.31756-4.1204-.2676-2.57739-1.79481-4.03558-4.44122-4.36216-2.39686-.29581-4.51639.60064-6.68832,1.35967-5.78471,2.02134-13.97536,8.22744-18.893,12.44175-.30144.25832-.59373.51108-.86926.753l-14.62558-.36567-14.62557.36567c-.27553-.24194-.56782-.4947-.86933-.753C42.53485,40.2284,34.3442,34.0223,28.55949,32.001c-2.172-.759-4.29146-1.65548-6.68832-1.35967-2.64641.32658-4.17369,1.78477-4.44122,4.36216-.14228,1.3699-.20657,2.74736-.31756,4.1204a45.4426,45.4426,0,0,0,2.71595,20.71863c1.36626,3.46021,1.26435,6.93583-1.28726,10.02212-.79729.96445-1.5274,1.98155-2.30755,2.95975-.80912,1.0146-1.6469,2.00726-2.46076,3.01822-.26319.3269-.53833.71611-.3223,1.12637.26063.495.73454.22454,1.13462.15686.74086-.12533,1.478-.29146,2.22439-.3603.819-.07561,1.08836.29735.57664.97277C16.68818,78.6596,15.91,79.52291,15.20921,80.44232Zm87.4952-40.64183L97.76068,48.1638l4.8408.75794-4.70307,5.066L96.521,60.68206l-1.43029-4.67479-4.41519.1843,2.96231-6.06465L86.58757,48.1638ZM39.30706,48.1638l-7.05028,1.96312,2.96231,6.06465-4.41525-.18436-1.4303,4.67485-1.37733-6.69434-4.70306-5.066,4.84073-.75794-4.94373-8.36331Z"/><path d="M71.22554,103.09894a14.64144,14.64144,0,0,0-8.27823-2.98048,14.64149,14.64149,0,0,0-8.27823,2.98048,2.90864,2.90864,0,0,0-1.23338,2.82758,2.81421,2.81421,0,0,0,1.556,2.5589,2.26939,2.26939,0,0,0,.81168.3031c.52681.04414,1.06936.0183,1.95833.015h.00966c.05156-.00019.09192-.001.14585-.001,1.53662-.33157,2.89143.92831,3.95344,3.195.37379.79761.72576,1.22968,1.07665,1.33792.35089-.10824.70287-.54031,1.0766-1.33792,1.06207-2.26673,2.41688-3.52661,3.95343-3.195.054,0,.09436.00077.14592.001h.00966c.889.00327,1.43151.02911,1.95833-.015a2.26946,2.26946,0,0,0,.81168-.3031,2.81433,2.81433,0,0,0,1.556-2.5589A2.90876,2.90876,0,0,0,71.22554,103.09894Z"/><path d="M13.95544,208.75336l6.17275-6.98713c4.273,3.33386,8.75007,5.44865,14.17656,5.44865,4.27348,0,6.8508-1.602,6.8508-4.23057v-.128c0-2.50063-1.62795-3.78221-9.564-5.70555-9.564-2.30723-15.73679-4.80786-15.73679-13.71833v-.128c0-8.14074,6.91851-13.5259,16.61847-13.5259a28.50955,28.50955,0,0,1,17.63606,5.70555l-5.42648,7.43549c-4.20526-2.75656-8.34334-4.423-12.345-4.423-4.00216,0-6.10505,1.73091-6.10505,3.91017v.12894c0,2.948,2.03518,3.91017,10.24261,5.897,9.63174,2.37169,15.05822,5.64108,15.05822,13.46142v.12894c0,8.90949-7.18983,13.90979-17.43244,13.90979A31.2543,31.2543,0,0,1,13.95544,208.75336Z"/><path d="M58.27367,172.01365h9.87165v43.27848H58.27367Z"/><path d="M75.37046,192.9847v-.12894c0-12.75617,9.47088-23.20511,22.42492-23.20511,7.69811,0,12.34231,2.17927,16.80216,6.15391l-5.92629,7.49995c-3.29973-2.88452-6.23261-4.551-11.1822-4.551-6.84339,0-12.28086,6.34634-12.28086,13.97425v.128c0,8.20521,5.37695,14.23116,12.9531,14.23116a14.516,14.516,0,0,0,8.8601-2.69209V197.984H97.5505v-8.5256h18.57493v19.48737a27.03213,27.03213,0,0,1-18.26953,7.11509C84.536,216.06088,75.37046,206.2537,75.37046,192.9847Z"/><path d="M14.7649,235.33842l1.80554-2.16271a6.37114,6.37114,0,0,0,4.14637,1.68585c1.25013,0,2.00376-.49556,2.00376-1.309v-.03927c0-.7742-.47593-1.17065-2.79713-1.76626-2.7976-.71436-4.60313-1.48763-4.60313-4.246v-.03927c0-2.5199,2.02386-4.18611,4.86073-4.18611a8.04143,8.04143,0,0,1,5.15854,1.76532l-1.58721,2.302a6.51418,6.51418,0,0,0-3.61107-1.36981c-1.17065,0-1.78543.53576-1.78543,1.21085v.03927c0,.91259.59514,1.21086,2.99582,1.82517,2.81723.734,4.40444,1.74663,4.40444,4.16648v.04021c0,2.75739-2.10287,4.30485-5.09869,4.30485A8.83792,8.83792,0,0,1,14.7649,235.33842Z"/><path d="M28.21618,223.47388H38.69174V226.192h-7.44v2.81723h6.547v2.71812h-6.547v2.91635h7.53912v2.71812H28.21618Z"/><path d="M40.695,230.45759v-.04021a7.05885,7.05885,0,0,1,7.24177-7.18193,7.166,7.166,0,0,1,5.476,2.14308l-1.94439,2.24219a5.12561,5.12561,0,0,0-3.55169-1.568,4.1151,4.1151,0,0,0-4.02716,4.32543v.03927a4.12509,4.12509,0,0,0,4.02716,4.36564,5.01316,5.01316,0,0,0,3.6508-1.62695l1.94439,1.96356a7.09969,7.09969,0,0,1-5.69431,2.48062A7.01041,7.01041,0,0,1,40.695,230.45759Z"/><path d="M55.5353,231.40944v-7.93556h3.05519V231.33c0,2.26182,1.13092,3.43248,2.99582,3.43248,1.86538,0,2.99583-1.13045,2.99583-3.33244v-7.95613H67.6378v7.83645c0,4.20668-2.36094,6.26935-6.09076,6.26935C57.81676,237.57968,55.5353,235.49644,55.5353,231.40944Z"/><path d="M70.55321,223.47388H76.902a5.53449,5.53449,0,0,1,4.04772,1.40815,4.35893,4.35893,0,0,1,1.19029,3.17441v.04021a4.31153,4.31153,0,0,1-2.97619,4.30486l3.39321,4.96031h-3.5718L76.01,232.91764H73.60887v4.44418H70.55321Zm6.1506,6.74528c1.48856,0,2.3413-.79291,2.3413-1.96356v-.0402c0-1.309-.91258-1.98413-2.40021-1.98413h-3.036v3.98789Z"/><path d="M84.83853,223.47388H87.8942v13.88794H84.83853Z"/><path d="M94.401,226.29111H90.17472v-2.81723h11.50737v2.81723H97.4567v11.07071H94.401Z"/><path d="M107.73264,231.88631l-5.33619-8.41243h3.57086l3.31373,5.57462,3.37264-5.57462h3.47175l-5.33713,8.35259v5.53535h-3.05566Z"/><polygon class="cls-2" points="90.676 56.192 95.091 56.007 96.521 60.682 95.091 56.007 90.676 56.192"/><polygon class="cls-2" points="23.293 48.922 27.996 53.988 29.374 60.682 30.804 56.007 35.219 56.192 32.257 50.127 39.307 48.164 23.19 39.8 28.134 48.164 23.293 48.922"/><polygon class="cls-2" points="90.676 56.192 95.091 56.007 96.521 60.682 97.898 53.988 102.601 48.922 97.761 48.164 102.704 39.8 86.588 48.164 93.638 50.127 90.676 56.192"/></svg>