<?xml version="1.0" encoding="UTF-8"?>
<svg id="Layer_1" data-name="Layer 1" xmlns="http://www.w3.org/2000/svg" viewBox="0 0 2253.98 946.87">
  <defs>
    <style>
      .cls-1 {
        fill: none;
      }

      .cls-2 {
        fill: #bb311e;
      }

      .cls-3 {
        fill: #c74325;
      }

      .cls-4 {
        fill: #da4c2a;
      }
    </style>
  </defs>
  <rect class="cls-1" width="2253.98" height="946.87"/>
  <g>
    <path class="cls-3" d="m673.37,495.02c0-59.65-23.62-113.75-61.96-153.57l-116.95,126.65c11.91,18.83,10.29,43.99-5.54,61.14-18.9,20.46-50.81,21.74-71.27,2.84-20.46-18.9-21.74-50.81-2.84-71.27,15.55-16.84,39.89-20.65,59.43-10.96l117.13-126.84c-34.52-28.03-77.62-45.84-124.76-48.95.03-.01.05-.02.08-.03-.39-.03-.78-.02-1.17-.04-4.52-.28-9.07-.47-13.66-.47-7.65,0-15.2.39-22.65,1.14-7.45.76-14.78,1.88-21.99,3.36-14.42,2.95-28.33,7.3-41.58,12.91-13.25,5.6-25.84,12.46-37.63,20.42-14.73,9.95-28.2,21.63-40.12,34.74-4.77,5.24-9.29,10.72-13.54,16.41-8.5,11.37-15.94,23.59-22.16,36.5-4.14,8.59-7.69,17.52-10.71,26.68-1.78,5.4-3.37,10.89-4.73,16.47-4.15,16.95-6.4,34.65-6.4,52.89h0c0,19.12,2.42,37.67,6.97,55.36,9.1,35.39,26.74,67.35,50.57,93.58,7.15,7.87,14.86,15.22,23.06,21.99,5.47,4.51,11.16,8.77,17.05,12.75,4.64,3.13,9.44,6.05,14.32,8.83,3.03,1.73,6.1,3.39,9.22,4.97,30.12,15.34,64.19,24.03,100.31,24.03,1.31,0,2.61-.02,3.91-.05,3.31-.07,6.6-.22,9.88-.42.35-.02.7-.01,1.04-.04-.03-.01-.06-.02-.09-.04,115.46-7.59,206.78-103.59,206.78-220.97Z"/>
    <g>
      <path class="cls-4" d="m274.35,362.48c4.25-5.69,8.77-11.16,13.54-16.41-4.77,5.24-9.29,10.72-13.54,16.41Z"/>
      <path class="cls-4" d="m241.48,425.66c3.02-9.16,6.57-18.09,10.71-26.68-4.14,8.59-7.69,17.52-10.71,26.68Z"/>
      <path class="cls-4" d="m252.19,398.98c6.22-12.91,13.66-25.13,22.16-36.5-8.5,11.37-15.94,23.59-22.16,36.5Z"/>
      <path class="cls-4" d="m328.01,678.7c-5.89-3.98-11.58-8.24-17.05-12.75,5.47,4.51,11.16,8.77,17.05,12.75Z"/>
      <path class="cls-4" d="m287.89,643.96c-23.84-26.22-41.47-58.19-50.57-93.58,9.1,35.39,26.74,67.36,50.57,93.58Z"/>
      <path class="cls-4" d="m236.75,442.13c-4.15,16.95-6.4,34.65-6.4,52.89s2.42,37.66,6.97,55.36c-4.55-17.69-6.97-36.24-6.97-55.36s2.25-35.93,6.4-52.89Z"/>
      <path class="cls-4" d="m451.86,273.51c4.59,0,9.14.19,13.66.47-4.52-.28-9.07-.47-13.66-.47Z"/>
      <path class="cls-4" d="m342.33,687.53c32.31,18.42,69.67,29,109.53,29,4.63,0,9.22-.19,13.79-.47-4.56.28-9.15.47-13.79.47-39.86,0-77.22-10.58-109.53-29Z"/>
      <path class="cls-2" d="m466.69,274.01c-.39-.03-.78-.02-1.17-.04.36.02.73.05,1.09.07.03-.01.05-.02.08-.03Z"/>
      <path class="cls-2" d="m342.33,687.53c-4.88-2.78-9.68-5.69-14.32-8.83,4.64,3.13,9.44,6.05,14.32,8.83Z"/>
      <path class="cls-2" d="m466.69,716.02s-.06-.02-.09-.04c-.32.02-.63.05-.95.07.35-.02.7-.01,1.04-.04Z"/>
      <path class="cls-2" d="m407.22,278.01c7.21-1.48,14.55-2.6,21.99-3.36-7.45.76-14.78,1.88-21.99,3.36Z"/>
      <path class="cls-2" d="m236.75,442.13c1.37-5.58,2.95-11.06,4.73-16.47-1.78,5.4-3.37,10.89-4.73,16.47Z"/>
      <path class="cls-2" d="m328.01,311.34c11.78-7.96,24.38-14.82,37.63-20.42-13.25,5.6-25.84,12.46-37.63,20.42Z"/>
      <path class="cls-4" d="m311.94,495.02c0-101.59,64.44-188.12,154.67-220.97-.36-.02-.73-.05-1.09-.07-4.52-.28-9.07-.47-13.66-.47-7.65,0-15.2.39-22.65,1.14-7.45.76-14.78,1.88-21.99,3.36-14.42,2.95-28.33,7.3-41.58,12.91-13.25,5.6-25.84,12.46-37.63,20.42-14.73,9.95-28.2,21.63-40.12,34.74-4.77,5.24-9.29,10.72-13.54,16.41-8.5,11.37-15.94,23.59-22.16,36.5-4.14,8.59-7.69,17.52-10.71,26.68-1.78,5.4-3.37,10.89-4.73,16.47-4.15,16.95-6.4,34.65-6.4,52.89s2.42,37.67,6.97,55.36c9.1,35.39,26.74,67.36,50.57,93.58,7.15,7.87,14.86,15.22,23.06,21.99,5.47,4.51,11.16,8.77,17.05,12.75,4.64,3.13,9.44,6.04,14.32,8.83,32.31,18.42,69.67,29,109.53,29,4.63,0,9.22-.19,13.79-.47.32-.02.63-.05.95-.07-90.22-32.85-154.66-119.38-154.66-220.97Z"/>
    </g>
    <g>
      <path class="cls-3" d="m1101.83,510.71c-6.72,16.27-22.72,27.73-41.42,27.73-24.74,0-44.8-20.06-44.8-44.8s20.06-44.8,44.8-44.8c18.7,0,34.7,11.46,41.42,27.73h109.75v-94.83h-77.22v21.38c-18.32-17.89-43.19-27.92-73.29-27.92-65.44,0-111.25,53.22-111.25,118.66s45.81,118.23,111.25,118.23c30.54,0,56.71-13.52,73.29-31.85h.87v25.3h76.34v-94.82h-109.75Z"/>
      <path class="cls-3" d="m913,375.19c-44.06,0-68.49,38.83-68.49,38.83h-.87v-32.28h-77.22v223.8h77.22v-117.79c0-5.67,5.67-45.37,45.81-45.37,25.74,0,40.14,12.21,40.14,12.21l32.28-65.44s-20.07-13.96-48.86-13.96Z"/>
      <path class="cls-3" d="m1534.67,342.9c20.07,0,37.08-17.45,37.08-38.39s-17.01-38.39-37.08-38.39-37.08,17.45-37.08,38.39,17.01,38.39,37.08,38.39Z"/>
      <path class="cls-3" d="m1395.79,403.11c-18.32-17.89-43.19-27.92-73.29-27.92-59.55,0-102.72,44.12-110.03,101.37h67.95c6.72-16.27,22.72-27.73,41.42-27.73,24.74,0,44.8,20.06,44.8,44.8s-20.06,44.8-44.8,44.8c-18.7,0-34.7-11.46-41.42-27.73h-68.01c7.15,57.39,50.39,101.37,110.08,101.37,30.54,0,56.71-13.52,73.29-31.85h.87v25.3h76.35V230.35h-77.22v172.76Z"/>
      <path class="cls-3" d="m1955.57,464.18c-19.2-6.11-34.9-9.6-34.9-21.38,0-10.47,6.98-13.52,23.99-13.52,23.56,0,49.73,13.96,49.73,13.96l25.3-50.61s-31.85-17.45-75.04-17.45c-58.9,0-97.72,26.18-97.72,71.98,0,33.59,22.69,49.3,45.37,61.08,25.3,13.09,49.73,14.4,49.73,30.54,0,14.83-13.09,16.14-23.99,16.14-24.87,0-55.41-25.74-55.41-25.74l-31.41,52.79s32.28,30.1,86.38,30.1c45.81,0,106.01-10.47,106.01-76.34,0-45.81-38.39-62.38-68.06-71.55Z"/>
      <rect class="cls-3" x="1494.53" y="376.06" width="78.53" height="229.47"/>
      <path class="cls-3" d="m1747.84,488.18c0,44.06-5.78,61.07-38.06,61.07s-38.06-17.01-38.06-61.07v-112.12h-77.22v130.88c0,75.04,31.52,105.14,115.28,105.14s115.28-30.1,115.28-105.14v-130.88h-77.22v112.12Z"/>
    </g>
  </g>
</svg>