<svg height="240" viewBox="0 0 200 240" width="200" xmlns="http://www.w3.org/2000/svg"><g fill="#fff" transform="translate(10 7.53804)"><g fill-rule="evenodd"><g fill-rule="nonzero"><path d="m60.608247 127.70573 25.61523 40.25723h47.105533l33.7947-40.31564-55.10148-17.61028zm53.144273-22.4982 60.25769 19.23232c1.84039.58739 2.54764 2.19874 1.50847 3.43678l-36.89883 43.95959c-.60618.72219-1.69532 1.16378-2.87032 1.16378h-51.389495c-1.311331 0-2.502143-.54885-3.047339-1.40454l-28.008625-43.9596c-.759927-1.1927-.04737-2.60232 1.60151-3.16821l56.039259-19.23232c.88508-.30375 1.91125-.31392 2.80768-.0278z"/><path d="m2.9787234 175c-1.6451035 0-2.9787234-1.34227-2.9787234-2.99805v-137.053516c0-.831568.34315657-1.62578.94746574-2.192845l34.04255326-31.94444996c1.90446-1.78708477 5.009981-.42781309 5.009981 2.19284476v168.9979662c0 1.65578-1.33362 2.99805-2.978723 2.99805zm31.0638296-5.99609v-159.1058745l-28.0851062 26.3541715v132.751703z"/><path d="m150.5808 31.140041-113.216159-25.4280595 1.334783-5.7119815 138.977676 31.21403c3.46975.779296 2.89224 5.78597-.66739 5.78597h-173.00971v-5.859959z"/><path d="m79.565074 117.23897c0 1.52487-1.245784 2.76103-2.782537 2.76103s-2.782537-1.23616-2.782537-2.76103v-18.477939c0-1.524875 1.245784-2.761031 2.782537-2.761031h30.434923c1.53676 0 2.78254 1.236156 2.78254 2.761031v8.166429c0 1.52487-1.24578 2.76103-2.78254 2.76103-1.53675 0-2.78253-1.23616-2.78253-2.76103v-5.4054h-24.869856z"/><path d="m120.56507 120.15665c0 1.57034-1.24578 2.84335-2.78253 2.84335-1.53676 0-2.78254-1.27301-2.78254-2.84335v-21.313304c0-1.570337 1.24578-2.843346 2.78254-2.843346h30.43492c1.53676 0 2.78254 1.273009 2.78254 2.843346v11.646344c0 1.57034-1.24578 2.84335-2.78254 2.84335-1.53675 0-2.78253-1.27301-2.78253-2.84335v-8.803h-24.86986z" transform="matrix(-1 0 0 1 266 0)"/><path d="m121.49316 85.466146h24.01368v-22.932292h-24.01368zm-3.29589-28.466146h30.60546c1.21352 0 2.19727.991036 2.19727 2.213542v29.572916c0 1.222506-.98375 2.213542-2.19727 2.213542h-30.60546c-1.21352 0-2.19727-.991036-2.19727-2.213542v-29.572916c0-1.222506.98375-2.213542 2.19727-2.213542z"/></g><path d="m133.33297 168 35.66703-42.4968-57-17.5032v60z"/><path d="m90.5 91c-9.664983 0-17.5-7.835017-17.5-17.5s7.835017-17.5 17.5-17.5c9.66498 0 17.5 7.835017 17.5 17.5s-7.83502 17.5-17.5 17.5zm0-5.46875c6.644676 0 12.03125-5.386574 12.03125-12.03125s-5.386574-12.03125-12.03125-12.03125-12.03125 5.386574-12.03125 12.03125 5.386574 12.03125 12.03125 12.03125z" fill-rule="nonzero"/></g><g stroke-width=".44411"><path d="m14.02293 204.85728q2.35911 0 4.14975-.6253 1.81907-.62531 3.04126-1.7338 1.25061-1.13692 1.87592-2.70019.62531-1.56326.62531-3.43918 0-3.89395-2.41596-6.08252-2.38753-2.18857-7.27628-2.18857h-6.53729v16.76956zm0-21.11828q3.86552 0 6.70782.90953 2.87073.88112 4.74664 2.52965 1.87592 1.64853 2.78546 3.97922.93796 2.33069.93796 5.20141 0 2.8423-.99481 5.20141-.99481 2.3591-2.92757 4.06448-1.90434 1.70539-4.74664 2.67177-2.81388.93796-6.50886.93796h-6.53729v15.23472h-5.48564v-40.73015z"/><path d="m40.11512 195.67666v28.79249h-5.0593v-28.79249zm1.08007-9.03852q0 .739-.31265 1.39273-.28423.62531-.79585 1.13692-.48319.48319-1.16534.76742-.65373.28423-1.39273.28423-.73899 0-1.39272-.28423-.62531-.28423-1.1085-.76742-.48319-.51161-.76742-1.13692-.28423-.65373-.28423-1.39273 0-.739.28423-1.39272.28423-.68216.76742-1.16535.48319-.51161 1.1085-.79584.65373-.28423 1.39272-.28423.739 0 1.39273.28423.68215.28423 1.16534.79584.51162.48319.79585 1.16535.31265.65372.31265 1.39272z"/><path d="m53.2181 201.44652q1.36431-2.95599 3.35392-4.60452 1.98961-1.67696 4.86033-1.67696.90954 0 1.7338.19896.85269.19896 1.50642.62531l-.3695 3.78026q-.17054.71057-.85269.71057-.39792 0-1.16534-.17053-.76742-.17054-1.7338-.17054-1.36431 0-2.44438.39792-1.05165.39792-1.90434 1.19376-.82427.76743-1.50642 1.93277-.65373 1.13692-1.19377 2.61491v18.19072h-5.08771v-28.79249h2.89914q.82427 0 1.13692.31265.31266.31265.42635 1.08007z"/><path d="m84.25585 211.50826q-3.49603.1137-5.96883.56847-2.44437.42634-4.00764 1.13692-1.53484.71057-2.24542 1.67695-.68215.96638-.68215 2.16015 0 1.13692.3695 1.96119.3695.82426.99481 1.3643.65372.51161 1.50641.76742.88112.22739 1.87592.22739 1.33588 0 2.44438-.25581 1.1085-.28423 2.07488-.79585.9948-.51161 1.87591-1.22218.90954-.71058 1.76223-1.62012zm-16.34322-11.76711q2.38753-2.30227 5.14456-3.43919 2.75703-1.13692 6.11094-1.13692 2.41596 0 4.29188.79585 1.87591.79584 3.15495 2.21699 1.27903 1.42115 1.93276 3.43918.65373 2.01803.65373 4.43399v18.4181h-2.24542q-.73899 0-1.13691-.22738-.39793-.25581-.62531-.96638l-.56846-2.72861q-1.13692 1.05165-2.21699 1.87592-1.08008.79584-2.27384 1.3643-1.19377.54004-2.55807.82427-1.33589.31265-2.98442.31265-1.67695 0-3.15495-.45477-1.478-.48319-2.58649-1.42115-1.08008-.93796-1.73381-2.35911-.6253-1.44957-.6253-3.41076 0-1.70538.93796-3.26864.93795-1.59169 3.04126-2.81388 2.1033-1.22219 5.48563-1.98961 3.38234-.79584 8.29952-.90953v-2.24542q0-3.35392-1.44957-5.05929-1.44958-1.73381-4.23503-1.73381-1.87592 0-3.15495.4832-1.25061.45476-2.18857 1.05164-.90954.56847-1.59169 1.05166-.65373.45477-1.30746.45477-.51161 0-.88111-.25581-.3695-.28423-.62531-.68215z"/><path d="m116.17486 206.93216q0-1.76222-.51161-3.2118-.48319-1.47799-1.44958-2.52964-.93796-1.08008-2.30226-1.64854-1.3643-.59688-3.09811-.59688-3.63814 0-5.76986 2.13173-2.1033 2.1033-2.61492 5.85513zm4.09291 13.50093q-.93796 1.13691-2.24542 1.98961-1.30745.82426-2.81387 1.3643-1.478.54004-3.06968.79584-1.59169.28423-3.15496.28423-2.98441 0-5.51406-.9948-2.50122-1.02323-4.34872-2.95599-1.81907-1.96119-2.8423-4.83191-1.02322-2.87072-1.02322-6.59414 0-3.01284.90953-5.62775.93796-2.61492 2.67176-4.51926 1.73381-1.93276 4.23503-3.01283 2.50123-1.1085 5.62775-1.1085 2.5865 0 4.77507.88111 2.21699.85269 3.80868 2.50122 1.62011 1.62011 2.52964 4.03607.90954 2.38753.90954 5.45721 0 1.19377-.25581 1.59169-.2558.39793-.96638.39793h-19.24236q.0853 2.7286.73899 4.74664.68215 2.01803 1.87592 3.38233 1.19377 1.33588 2.8423 2.01804 1.64853.65372 3.69499.65372 1.90434 0 3.26864-.42634 1.39273-.45477 2.38754-.96638.9948-.51162 1.64853-.93796.68215-.45477 1.16534-.45477.62531 0 .96638.48319z"/><path d="m150.5951 195.67666v28.79249h-3.01284q-1.08007 0-1.3643-1.05165l-.39792-3.09811q-1.87592 2.07488-4.20661 3.35392-2.33068 1.25061-5.34352 1.25061-2.35911 0-4.17818-.76742-1.79065-.79584-3.01284-2.217-1.22219-1.42114-1.84749-3.43918-.59689-2.01803-.59689-4.46241v-18.36125h5.0593v18.36125q0 3.26865 1.47799 5.05929 1.50642 1.79065 4.57611 1.79065 2.24541 0 4.17818-1.05165 1.96118-1.08007 3.60972-2.95599v-21.20355z"/><path d="m175.37989 200.4233q-.34108.6253-1.05165.6253-.42634 0-.96638-.31265-.54004-.31265-1.33588-.68215-.76742-.39792-1.8475-.71058-1.08007-.34107-2.55807-.34107-1.27903 0-2.30226.34107-1.02323.31266-1.76223.88111-.71057.56846-1.10849 1.33589-.3695.739-.3695 1.62011 0 1.10849.6253 1.84749.65373.739 1.70539 1.27904 1.05164.54003 2.38752.96638 1.33589.39792 2.72861.88111 1.42115.45477 2.75704 1.02323 1.33587.56846 2.38752 1.42115 1.05166.85269 1.67696 2.1033.65373 1.22219.65373 2.95599 0 1.98961-.71057 3.69499-.71058 1.67696-2.1033 2.92757-1.39273 1.22219-3.41077 1.93276-2.01803.71058-4.66137.71058-3.01283 0-5.45721-.96638-2.44438-.99481-4.14976-2.52965l1.19377-1.93276q.22738-.3695.54003-.56846.31266-.19896.79585-.19896.51161 0 1.08007.39792.56846.39792 1.36431.88111.82426.48319 1.98961.88111 1.16534.39792 2.89914.39792 1.478 0 2.58649-.36949 1.1085-.39792 1.8475-1.05165.739-.65373 1.08007-1.50642.3695-.85269.3695-1.81908 0-1.19376-.65373-1.96118-.6253-.79585-1.67696-1.33588-1.05165-.56846-2.41595-.96638-1.33588-.42635-2.75703-.88112-1.39273-.45477-2.75703-1.02322-1.33588-.59689-2.38753-1.478-1.05165-.88111-1.70538-2.16015-.62531-1.30745-.62531-3.15495 0-1.64853.68215-3.15495.68216-1.53485 1.98961-2.67177 1.30746-1.16534 3.2118-1.84749 1.90434-.68215 4.34872-.68215 2.8423 0 5.08772.90953 2.27384.88112 3.92237 2.44438z"/></g></g></svg>