<svg xmlns="http://www.w3.org/2000/svg" role="img" viewBox="46.26 26.01 322.24 415.74"><defs><style>.cls-2{fill:#0028aa}.cls-3{fill:#4279f4}.cls-4{fill:#fff}.cls-5{fill:#a1c3ff}</style></defs><g><path d="M257.8395655,231.0757745s5.4808813-51.2343251,59.3364975-52.1875219c53.8556162-.9531967,50.7577268,64.8173788,27.6427057,120.1027901-23.1150211,55.2854113-84.8940852,73.8727479-84.8940852,73.8727479,0,0-12.8085813-119.3878925-2.0851179-141.7880161Z" class="cls-3"/><path d="M330.1119389,180.1499991c38.2058291,18.3531099,29.5492155,70.6723188,5.8898762,119.317642-19.3085174,39.6996787-57.6627017,60.7381051-76.5223137,69.0655447.2782096,2.7715371.4450656,4.3305757.4450656,4.3305757,0,0,61.7792969-18.5873366,84.8940852-73.872777,21.0765624-50.4098774,25.5020855-109.5269837-14.7067134-118.8409854Z" class="cls-5"/><g><path d="M315.9845671 182.2709929s25.0214146 25.5733632 39.3193658 69.0020138c0 0-8.1021723-50.844724-39.3193658-69.0020138zM287.6269639 190.6840624s36.9363739 25.8554618 57.430104 96.6303202c0 0-34.3150829-75.0642438-57.430104-96.6303202zM270.504459 211.0586429s36.9013373 31.2171935 60.0163584 105.8048389c0 0-42.5854812-85.0728096-60.0163584-105.8048389zM264.2736436 244.6588282s37.8895707 56.5584694 46.7066406 93.3349126c0 0-31.6937918-57.3517355-46.7066406-93.3349126zM262.6229785 293.9805621s22.1443951 44.5681456 27.6252764 58.7469473c0 0-28.3576032-45.3959951-33.6001853-60.5279934l5.9749089 1.7810462z" class="cls-5"/><path d="M329.5676207 185.7386707s-43.4300268 10.7837218-68.0642052 51.7711819c0 0 27.3150443-32.0526078 68.0642052-51.7711819zM269.6850676 263.0574098s17.4652979-40.3221068 77.0400946-58.432845c0 0-48.7519486 24.1673064-77.0400946 58.432845zM352.920941 231.0757745s-59.8537782 40.3957479-91.7655281 97.52596c0 0 21.9438664-64.6406722 91.7655281-97.52596zM352.920941 260.3865745s-53.1407186 46.4683414-88.6472974 99.3707608c0 0 26.6895089-58.1450015 88.6472974-99.3707608z" class="cls-5"/></g><path d="M101.3961495,193.5436526s-1.1319211,7.8638732-8.9660069,12.2724081c-7.8340858,4.408535-8.0128102,6.7915268,0,3.9319366,0,0-8.6383455,10.842613-16.934136,19.0639349-8.2957904,8.2213219-14.1341205,16.305083-18.5426555,27.6930748-4.408535,11.3879918-3.0978894,16.2731251,1.4297951,7.6943544,0,0-1.6680943,26.5703593,15.4894471,28.0001544,17.1575414,1.4297951,15.1319984,4.8851333,15.1319984,4.8851333,0,0-6.6103129,32.2895398-6.7604946,46.1108926-.1501818,13.8213528.4455662,24.902265,2.8285581,25.3788634,2.3829919.4765984,1.3106455-5.0042829,1.3106455-5.0042829,0,0,2.0255431,13.761778,10.1277154,19.2724467,8.1021723,5.5106687,9.8894162,7.774511,9.8894162,7.774511,0,0-19.6596829-3.9319366-30.8597447,4.5276845-11.2000618,8.4596211-12.7490065,15.9660455-11.0809122,17.1575414s8.9362195-.9531967,8.9362195-.9531967c0,0-2.9787398,7.5064244-.4765984,8.4596211s8.1021723-3.217039,15.7277463-4.2893854c0,0-1.4297951,8.2213219,1.7872439,8.4596211,3.217039.2382992,8.6979203-4.5276845,25.9746113-8.1021723,17.276691-3.5744878,35.3874292-6.3149284,37.0555235-12.3915577,1.6680943-6.0766293-4.5276845-10.842613-1.9063935-19.8979821,0,0,22.5192731,3.1574642,38.7236178.6851102,0,0,4.1702358,9.2043061,14.4171008,14.208589,0,0-12.5107073,6.1957789-17.1575414,13.8213528s-3.6636215,14.2979512-2.0701099,14.8936992,8.504188-5.4808813,13.5084709-5.6000309c0,0-.595748,10.0085658,2.5021415,10.9617626s6.8693778-5.7191805,16.0645458-9.1745187c0,0,1.6995685,10.0085658,4.9111951,10.6043138s8.9262763-8.5787707,18.22221-14.1788016,11.6789255-10.6043138,10.1895556-16.8000927c-1.4893699-6.1957789-3.8723618-14.357526,0-18.7362736s12.9575183-75.5110548,12.9575183-75.5110548v-7.8638732s3.495624-1.5489447,6.6776264-7.2681252c0,0-1.5139081,2.7404406,0,2.9787398s11.0458756-12.9737838,9.6160804-28.4699919c-1.4297951-15.4962081-9.6160804-28.4835137-9.6160804-28.4835137,0,0,4.3624865,4.5276845,5.5594884,4.408535s-12.8626502-26.6895089-22.7520664-33.9576341c0,0,6.3149284,2.0255431,7.1489756.3574488s-20.4865159-6.434078-14.8900921-28.8342016c5.5964238-22.4001235-144.174615,11.9149593-144.174615,11.9149593Z" class="cls-5"/><path d="M80.0873932 308.4086305s-2.6700994-.5409431-4.0105323 1.1569386-4.2604841 24.2974243 2.2485055 27.8764585l1.7620269-29.0333971zM216.3800761 348.1700374h-13.4982605l1.4199463-25.9155296h9.5716037s.1076384-3.1271838 3.6729881-4.3782545c3.5653497-1.2510707 6.0674912.0893622 6.6036643.5361732 0 0 23.1448085-1.4297951 39.6768146-9.6511171v-2.0553305s4.9552066-1.6085195 6.6776264 4.5574719c1.7224199 6.1659915-1.5442494 23.503322-.8193915 30.6512329 0 0 4.686504.6255354 6.1162991 2.0553305 1.4297951 1.4297951-3.3554776 33.1533743-5.2969077 35.8342402s-15.2563972 7.5064244-29.1968996 8.0425975c-13.9405024.5361732-21.2499262-2.6808658-23.7612058-5.4510939-2.5112796-2.770228-1.1662776-34.2257207-1.1662776-34.2257207z" class="cls-3"/><path d="M132.0385762 58.666313s-4.9536467-16.5617935-13.7469505-18.5873366c-8.7933039-2.0255431-22.2572079 3.6936374-22.0189087 19.1830845.2382992 15.4894471 17.8813694 21.5660764 17.8813694 21.5660764l17.8844898-22.1618244zM220.188294 60.7684879s2.6212911-21.6427083 22.1618244-21.8810074 24.306517 23.9490683 15.8468959 35.2682796c-8.4596211 11.3192114-26.6895089 13.9339638-26.6895089 13.9339638l-11.3192114-27.321236z" class="cls-5"/><path d="M145.9580974,209.271399c-30.8597447,0-52.0683723-15.6085967-58.3833007-25.9746113,0,0,1.9063935,4.0510862,0,4.408535s-10.4851642-10.3660146-10.246865-30.2639967l-4.1702358,10.842613s-6.1957789-19.4213837,5.4808813-29.4299496c0,0-4.6468341,2.7404406-6.1957789,0-1.5489447-2.7404406,12.9873057-10.4851642,16.6809431-21.685226,3.6936374-11.2000618,13.3509798-61.6003398,64.6417671-69.3450633,0,0-6.0201672-.9531967-6.1393167-2.7404406s18.5839032,1.5489447,18.5839032,1.5489447c0,0-12.5010486-6.0766293-12.4445865-9.0553691.0564621-2.9787398,16.1009797-1.3106455,24.7000892,6.5532276,0,0-6.6520385-8.6979203-5.4605425-10.0085658s11.438361,9.8894162,19.7788325,11.9149593c8.3404715,2.0255431,29.5490991,5.1234325,43.2513024,26.9278081,13.7022032,21.8043756,12.6298569,34.5831695,17.6341398,45.05344s17.1575414,22.8916093,14.8936992,24.1873643-9.5319675-5.6149214-9.5319675-5.6149214c0,0,10.1277154,15.4298723,6.434078,24.2767296l-3.6936374-6.0468419s1.7872439,13.463904-2.2638423,20.4937301c-4.0510862,7.029826-12.0341089,14.6554-13.8213528,14.1788016s.9531967-4.7659837.9531967-4.7659837c0,0-6.6723772,24.5448162-100.6814064,24.5448162Z" class="cls-5"/><path d="M159.8108537,176.8385157s-.5377892,14.2327829-3.4867417,16.3774755c-2.9489524,2.1446927-16.3979628,1.5638384-18.0511634-.2680866-1.6532006-1.831925-5.4536889-11.5873344-6.167289-16.2267035,0,0,6.6140999-3.4776605,9.5630524-6.769168,0,0,5.7787553,4.9447081,18.1421417,6.8864825Z" class="cls-4"/><path d="M142.2235733,171.6348867s.7408905,11.7959442,3.3323942,18.0959789c0,0-1.4304996-10.5881302-.9386553-16.6654044l-2.3937389-1.4305745Z" class="cls-5"/><path d="M193.0221868,98.223978c6.5532276,0,15.0503824,3.6500951,15.1319984,16.8000927.0813457,13.1064553-8.6979203,17.9915886-15.1319984,17.9915886s-15.0299-4.7617795-14.5362504-17.9915886c.446811-11.9745341,8.2213219-16.8000927,14.5362504-16.8000927Z" class="cls-4"/><path d="M194.5015028,105.551678c5.3258043,0,12.231437,2.8813251,12.2977662,13.261717.0661096,10.3460203-7.0687948,14.2022643-12.2977662,14.2022643s-12.214791-3.7588704-11.8136022-14.2022643c.363123-9.4525004,6.6814635-13.261717,11.8136022-13.261717Z" class="cls-3"/><path d="M121.1154072,99.5644158c6.0170545.8042549,9.6511171,6.8808841,7.774511,17.8724385-2.0971659,12.2833959-8.7872825,14.8043326-13.6724158,13.493687-5.0231369-1.3476709-9.2637359-7.7694811-7.6851488-17.872439,1.1914959-7.625574,6.1002148-14.4938729,13.5830536-13.4936866Z" class="cls-4"/><path d="M122.89822 105.6279938c4.4964573.6310642 7.2121394 5.3991046 5.809779 14.0236482-1.5671816 9.6381969-6.5666084 11.6162553-10.2171975 10.5878544-3.7537172-1.0574529-6.9226552-6.0963402-5.7429999-14.0236482.8903876-5.9834232 4.5586018-11.372649 10.1504185-10.5878544zM108.8281054 88.0366877c.3545436.6011826 5.0042829-4.110661 11.3936799-3.9319366s6.9255701 2.1380817 8.3553652 1.9850033.0036159-7.8797818-7.4617433-8.5084382c-8.4894085-.7148975-13.3149671 8.7128086-12.2873018 10.4553714zM208.7359088 87.0090225c-.3545436.6011826-6.5480198-2.9666507-12.9109491-3.5744878-6.8389654-.6533118-11.7189578 2.4879927-12.7815514 1.5191573-1.5191573-1.385114 3.2317244-8.8660457 10.7234634-8.8915384 10.8128256-.0367936 15.9967023 9.2043061 14.9690371 10.9468689z" class="cls-3"/><path d="M139.8814681,159.7051681c9.3830305.7148976,24.8426902-11.6170853,26.0937609-18.0511634,1.2510707-6.434078-1.8766061-16.978817-24.6639658-16.978817s-22.5192731,13.1362466-20.0171317,19.8384073c2.5021415,6.7021646,11.6166967,14.6604768,18.5873366,15.1915731Z" class="cls-3"/><path d="M148.7283254 153.3604523s-.446811-3.8425744 3.3957634-7.6851451c3.8425744-3.8425781 8.4894085-1.7872439 5.9872671 1.9659682 0 0 .4480964-1.7923676-2.0553305-1.6383106-1.9361809.1191496-5.1234325 1.7872439-7.3277 7.3574874zM131.421847 152.5561925s1.8766061-3.365976-.9171831-6.880889c-3.3813259-4.2541028-8.4894085-1.7872439-5.9872671 1.9659683 0 0-.4245353-2.2093875 2.0788916-2.0553305 1.9361809.1191496 4.9744955 2.1446927 4.8255585 6.9702512z" class="cls-4"/><path d="M194.7355482,157.4413259l.6696304.9531967c-7.5638027,9.4327728-20.3704946,18.5834099-32.527839,18.5499261-13.5830536-.0374104-21.2086276-5.68177-21.2086276-5.68177,0,0-6.5532276,8.2213219-17.1575414,4.8851333-10.6043138-3.3361886-12.0137071-14.7745496-12.0137071-14.7745496,0,0,10.6794262,21.2417814,28.6828325,7.3293832,0,0,12.5969935,6.4175011,26.6268581,4.1834463s26.9283942-15.444766,26.9283942-15.444766Z" class="cls-3"/><path d="M139.2857202 157.4413259s.4352358 8.9019388 1.4000077 13.0766679h1.6978817s-.8489409-8.3553652.1787244-14.0133685l-3.2766138.9367006zM198.7711546 160.8668767c-3.5744878-5.6298183-9.2043061-4.2000232-9.2043061-4.2000232 0 0 2.1593559.7861316 4.14778 1.7632861s5.0565261 2.436737 5.0565261 2.436737z" class="cls-3"/><g><path d="M245.5707645,186.7507586c.8580167-1.2580522,1.0688556-2.0241759,1.0688556-2.0241759,0,0-.6115725.9617781-1.0688556,2.0241759Z" class="cls-5"/><path d="M238.9436501 77.8480885c2.9259137-.8713687 6.654691-2.3231553 9.8703337-4.6455251 6.434078-4.6468341 8.6681329-18.8554231-1.7872439-20.7320292-10.4553768-1.8766061-14.4930819 15.5110604-14.4930819 15.5110604l.0024435.0187626c1.2074368 1.5403634 2.3803157 3.1837027 3.4990884 4.9638779 1.0573363 1.6827844 2.0172817 3.3055285 2.9084602 4.8838534zM119.8734123 62.4276993c-1.6769374-3.7959734-5.4573772-11.2853806-9.5708307-12.2805822-5.5404561-1.3404329-9.6511171 5.8979049-7.1489756 13.3149671 1.1927759 3.5354791 4.4140037 6.2282134 7.4606961 8.0891113 2.7231034-3.214421 5.7844568-6.2958459 9.2591102-9.1234961z" class="cls-3"/></g><path d="M207.9754607,221.9012558l3.5744878,2.3234171s-8.5787707,94.1877535-8.0425975,127.4304901l-4.2893854,1.0723463s-9.8298414-106.6984608,8.7574951-130.8262535Z" class="cls-3"/><path d="M85.728 215.467L77.864 345.042 199.218 352.728 207.975 221.901 85.728 215.467z" class="cls-4"/><path d="M208.7129498,257.6527326s11.4753442,2.4955427,15.64558,12.6232581c0,0-2.8302493-11.9149593-15.4984172-14.4371618l-.1471627,1.8139037Z" class="cls-3"/><path d="M243.1245907,256.5142127s-11.0650655,4.370252-19.6596829,11.6238463l-.9991379-1.8103117s9.6970582-10.1709834,20.6588208-9.8135346Z" class="cls-3"/><path d="M223.4649079,240.1311436s6.5532276,11.2000618,8.1617471,20.6128796l-2.8595902,1.6708465s-2.6212911-16.5645457-5.3021569-22.2837261Z" class="cls-3"/><path d="M213.158468,262.8887159s-9.5319675-3.1574642-16.978817,1.1914959c-7.4468496,4.3489602-6.6723772,8.8170699-4.7659837,12.5107073,0,0-5.4808813,2.0255431-5.6000309,7.5064244s6.0170545,8.1021723,6.0170545,8.1021723c0,0-.5361732,8.1021723,8.3404715,10.3660146,8.8766447,2.2638423,17.3958406,1.1914959,23.2937455-1.9063935,5.8979049-3.0978894,7.3277-29.6682487-10.3064398-37.7704211Z" class="cls-5"/><path d="M191.4136672 276.5909192c-1.742984 1.1897616 9.9043099-3.4851256 16.5617935-3.217039 0 0-8.7723888-2.1000116-16.5617935 3.217039zM191.8306908 292.1995159s6.6723772 3.0234209 15.6979589 2.3978856c0 0-8.8766447 3.8276807-15.6979589-2.3978856zM259.9246834 302.3272313s-17.8815005 5.5779211-38.4898494-.7259524c0 0 19.0684657 12.2238882 38.4898494.7259524z" class="cls-3"/><path d="M80.8130572,252.7312131s9.2936683,1.7872439,14.0298646,6.7021646,2.9489524,9.1745187-1.1617085,10.842613c0,0,6.1659915,3.365976,5.2723695,8.8170699-.8936219,5.4510939-6.5234402,6.1659915-6.5234402,6.1659915,0,0,4.2893854,7.9532354-12.0638963,9.2043061-16.3532817,1.2510707-16.8000927-21.8937378-12.8681561-29.4001622,3.9319366-7.5064244,13.3149671-12.3319829,13.3149671-12.3319829Z" class="cls-5"/><path d="M83.789027 247.4158022s-5.4334301.4451713-8.2930203 4.4664701c0 0 4.4362409-2.2278539 8.1383659-1.9181867l.1546544-2.5482834zM93.6812133 270.2759907s-7.3574874-3.1872516-12.8979435-4.408535c0 0 6.7021646-1.3106455 12.8979435 4.408535zM92.4301426 285.2590521s-5.3915191.5063858-13.3447545-.9234093c0 0 7.0000386 3.7829996 13.3447545.9234093z" class="cls-3"/><path d="M274.9077448,311.7549429c.5992798-.5618248,3.9766177.7595787,4.4234287,1.5638384.446811.8042598-.0446811,9.1149439-.5808543,10.6787823s-4.5574719,4.110661-4.8702396,5.495775c-.3127677,1.385114-6.6128024,20.3298994-6.6128024,20.3298994l-5.7638616-1.9212872s7.6851488-18.9001042,8.0872786-20.1064939c.4021299-1.2063896-1.0723463-6.3447158-.4914921-7.9979165.5808543-1.6532006,5.0936451-7.3723811,5.8085427-8.0425975Z" class="cls-4"/><path d="M255.5608296 356.1679538s1.4297951-6.0319482 2.0553305-6.3447158-.0446811-3.9021492 2.0106494-3.8276807 9.7404793 2.6659722 10.0532469 4.0510862c.3127677 1.385114-14.1192268 6.1213104-14.1192268 6.1213104zM266.5970606 329.8507874s-5.1830073 4.6468341-19.0341475 6.1659915-20.1064939-1.2510707-20.642667-1.6978817.9829841-10.0085658-.8936219-13.5830536c0 0 3.66385 3.3064012 2.8595902 12.0638963 0 0 13.4936914 5.4510939 37.7108463-2.9489524z" class="cls-5"/><path d="M242.2309688,356.1679538l2.2638423-15.4745534s-9.6511171-2.1446927-8.4000463-12.4511325c.9421639-7.7616362,10.1352371-9.8346787,10.3064398-8.4596211.1625807,1.3058074-.4170236,9.2340935-.4170236,9.2340935,0,0,3.0383146,2.5250053,4.110661,2.8228793s4.4681097-2.1675565,4.4681097-2.1675565c0,0,.7148976-6.7915268.9978778-9.4128179.1198916-1.1105748,7.0449043,1.1763663,7.062119,10.0681406.0194922,10.0681406-9.489792,10.9021878-9.489792,10.9021878l-1.4893699,15.3702975-9.4128179-.4319173Z" class="cls-4"/><path d="M273.3290127 345.9955573s-2.0851179 5.0638577-15.9064707 8.4596211-29.012926-2.8595902-29.012926-2.8595902c0 0 11.2596366 8.5191959 25.5575878 6.1957789 14.2979512-2.3234171 18.468187-8.8170699 19.3618089-11.7958097zM238.805418 362.9147995s15.3212212 5.1830073 31.699041-5.7191805c0 0-14.9883106 14.5660378-31.699041 5.7191805zM227.0989704 354.425391v29.8469731s-4.5574719-15.7277463 0-29.8469731zM220.3074436 321.6294655c1.6085195 1.2510707 2.1501051 9.8298414 1.8766061 19.6596829-.2693528 9.6808235-2.0106494 35.6108347.273499 41.5534207 0 0-2.6586769-2.7522845-2.7756405-16.6213683-.1145513-13.5830536 1.7872439-30.1150597.6255354-44.5917353M215.2137985 322.8805362s2.5021415.5361732 2.3234171 6.880889c-.1787244 6.3447158-1.1571395 18.4086122-1.1571395 18.4086122h-1.1662776s.9234093-16.8894549 1.0425589-18.4979744c.1191496-1.6085195-.1191496-5.7787553-1.0425589-6.7915268z" class="cls-5"/><path d="M205.3741827 303.5265424s8.8773576 1.3700828 16.0606513-1.9252635c0 0-7.2543908 5.9536409-17.3494738 3.272775l1.2888225-1.3475115zM116.3792108 361.4807962s16.0256203 19.1872928 35.1789174 22.1064578l-.4731024 2.1480633s-22.0163833-2.8118026-34.705815-24.2545212zM190.2817461 384.2723642c-1.6085195-3.217039-2.6808658-12.5275403-1.2510707-18.5063909 0 0-3.3957634 5.6382348-2.6808658 10.7318799s3.9319366 7.774511 3.9319366 7.774511zM73.3959951 411.3491092s5.8532238-9.7404793 17.6937146-13.761778c0 0-14.1192268.446811-17.6937146 13.761778zM88.647143 415.519345s1.0127715-8.4596211 16.0256203-13.5085851c0 0-16.6809431.6553228-16.0256203 13.5085851zM198.9796664 421.5959743s.6404291-10.1575028 12.07879-15.8766833c0 0-14.6851874 3.2021453-12.07879 15.8766833zM217.5463537 423.3832182s-1.2751025-9.4872864 8.5398452-14.0447583c0 0-12.2839193 1.4595825-8.5398452 14.0447583z" class="cls-3"/></g><g><g><g><g><g><path d="M95.2297617,314.0936581l.83627-14.2629992,1.8807711.117186-.4383895,7.4611895,7.1551774-7.0426838,2.1010177.130909-6.0769614,5.9257189,5.758026,8.3838499-2.2073067-.1409821-4.8271572-6.9576116-2.0377277,1.9972826-.2648804,4.5081442-1.8788393-.1200033ZM108.5309833,311.8111083l.4214435-7.0834741,1.7837585.1119378-.4257767,7.1421984c-.0492325.548419.2168272,1.0808393.6920846,1.3849711,1.0804546.6976885,2.4580532.785511,3.6140312.2301483.504889-.2445384.8295276-.7386546.8460136-1.2877754l.4284336-7.1460593,1.7864594.1121073-.4255213,7.0835786c-.0290824,1.0095713-.5968199,1.927894-1.4988438,2.4247001-1.8907242,1.0979315-4.2910143.9444662-6.0349393-.3850491-.8293837-.6074508-1.2786687-1.5866221-1.1871434-2.5872837ZM120.1229587,315.6836114l.9239673-15.3296535,1.7890081.1112672-.3244864,5.3730899c1.0065672-.282888,2.0551594-.4045534,3.1045764-.3601643.7100348.0296839,1.4027254.2285318,2.0168295.5790069.544349.3079918.9951301.7506085,1.3059348,1.2822963.298983.5201696.5138836,1.0813701.6371519,1.6638819.1260688.5917619.1705287,1.1966268.1322188,1.798685-.1093353,1.7958612-.673684,3.1272808-1.6928061,3.9943855-1.0187838.8668077-2.5646149,1.2317695-4.6370471,1.0951275l-3.2553472-.2079223ZM122.0038471,314.243546l1.4981229.095432c1.4865306.0946936,2.5730167-.1513022,3.2592073-.738109.6863441-.5869381,1.0775151-1.5786519,1.1734105-2.975223.0665105-.8439015-.1113024-1.6906041-.5134455-2.4447849-.3682448-.7002452-1.1071507-1.1452148-1.9155251-1.1536056-1.0376445-.0913366-2.0822587.01062-3.0774929.3003061l-.4242772,6.9159844ZM131.9339944,311.2862036c.1002866-1.6431579.6302897-2.9257604,1.5902389-3.8477599.962671-.9242398,2.3042113-1.3808339,3.6574139-1.2445142,2.94211.1845313,4.2908975,2.2895426,4.0450581,6.3133525l-7.5390494-.4778197c.0122986.8366674.2991576,1.6494424.8190469,2.3207068.5294418.6989517,1.3786418,1.084616,2.5478081,1.1569972,1.1937155.1107147,2.396684-.031691,3.5251624-.4174226l-.0985128,1.5988605c-1.0634933.3229052-2.179858.4549448-3.2943279.3897189-.870366-.0366844-1.725468-.2407368-2.515472-.6002149-.6586792-.2983787-1.2320298-.749289-1.6690962-1.3126128-.4094676-.5345502-.7098554-1.1395147-.884906-1.7821692-.1750613-.6859145-.236955-1.3937348-.183364-2.0971226ZM133.8303409,310.7258281l5.7016697.3605538c-.0062852-.8151132-.2277261-1.6163685-.6432746-2.3275697-.3820842-.614371-1.0641579-.9951529-1.8027042-1.006456-.7809292-.0592482-1.5482101.2109349-2.1047846.7410662-.6267085.5998076-1.029116,1.3850636-1.1443022,2.2328234l-.0066041-.0004176Z" class="cls-3"/><path d="M137.0002396,317.5815442c-.8817411-.0563963-1.7417786-.2715866-2.5512699-.6400732-.7344565-.3326568-1.3809727-.8410915-1.8688086-1.4698981-.4537109-.5924506-.7807326-1.2510268-.9740644-1.9606124-.1905303-.7460909-.2571104-1.50427-.199815-2.261678.1082496-1.7631943.6950598-3.1680438,1.7444411-4.1760303,1.0784443-1.0358788,2.5653445-1.5434669,4.0829131-1.3897996,4.0645006.2543614,4.7046965,3.8702093,4.5220932,6.8572199l-.0313624.5122544-7.4535953-.4728201c.0964669.5282938.3195734,1.0268174.6585015,1.4643525.4371212.5768727,1.1378908.8865162,2.1456677.9506898l.0100172.0006379c1.1249176.101063,2.2666841-.0311335,3.3155069-.3896387l.7559415-.2585635-.1680056,2.7251858-.3457059.1049249c-1.1285042.3428168-2.300738.4815175-3.4841906.4121609-.0528404-.0020219-.1056248-.0049454-.1582644-.0083123ZM136.98793,306.6926949c-1.162386-.0729703-2.2741959.3278171-3.090073,1.1111233-.8608535.8266587-1.3438549,2.0095743-1.4358419,3.5159244l-.0004543.0074403c-.0496528.6504798.0072929,1.3020088.1691512,1.9361745.1565269.5740664.4249091,1.1147315.7956097,1.5985583.3811212.491291.8889405.8906688,1.4665935,1.1522036.7306814.3326477,1.5076336.5166674,2.3135787.5522847.9420832.0549446,1.8694683-.0359255,2.7679482-.2697186l.030969-.5029111c-.9753432.2391457-1.9988774.3166966-2.9980087.2235362-.0042067-.000042-.0083996-.0003095-.0125925-.000577-1.3053193-.0832664-2.2910859-.5430386-2.9139056-1.3649828-.5881654-.7595129-.9082725-1.66627-.9223066-2.6181605l-.0081328-.5514282,7.5696363.4793357c.1301161-5.0232828-2.6400818-5.1971864-3.5699084-5.2555578-.0541813-.0054405-.1083078-.009858-.1622629-.0132451ZM112.6531015,316.0053398c-1.1620042-.0740939-2.3051148-.4795668-3.2578207-1.205836-.9725772-.7123333-1.4943887-1.846687-1.3890887-3.0294527l.4510749-7.5859227,2.8351252.1777568-.4565031,7.6531734c-.0334854.376214.1407802.7252193.4538047.9252695.9224493.5957566,2.1057639.6711242,3.0904805.1977868.3313296-.160476.5449034-.4856389.5557729-.8476505l.4594269-7.6713303,2.8393023.1780187-.4565098,7.5950531c-.0333756,1.1635384-.7089783,2.2563603-1.7624819,2.8363283-1.0252595.5953465-2.2034263.8509429-3.362583.7768055ZM109.4475135,305.2711379l-.3924855,6.5890176c-.0759208.830233.289546,1.626885.9777561,2.1311136,1.5694523,1.1962731,3.75486,1.3354173,5.4473342.3527236.7480307-.4121002,1.2211746-1.1776611,1.2448889-2.0031058l.3952792-6.5878235-.733586-.0460764-.398051,6.6354559c-.0215779.7225208-.456392,1.3843308-1.1341035,1.7123877-1.3217825.6347953-2.9078327.5335918-4.1411459-.2630131-.6374464-.4078146-.993424-1.120423-.9272586-1.8583526l.3939648-6.6163129-.7325928-.046014ZM123.3753052,316.4041475c-.0097537-.0006235-.0192752-.0012322-.0290153-.0020808l-3.7805508-.2416786.9849418-16.3507053,2.8434692.1766902-.3133001,5.1848766c.8377343-.1724993,1.694109-.2414754,2.5550121-.2051777.7972116.0345666,1.5766832.2579356,2.2631443.649802.6231924.3525063,1.1423003.8621773,1.4993898,1.4728375.3277817.5703398.5611553,1.17978.6954635,1.8145357.1353082.6354699.1831408,1.2862039.1419624,1.933413-.1174083,1.9273175-.7467985,3.3897714-1.8703895,4.3455988-1.1180122.9510609-2.7971007,1.3620819-4.9901273,1.2218886ZM120.6801838,315.2069168l2.7290296.1741536.0270569.0017266c1.9054192.1215947,3.3278743-.2054193,4.228988-.9723694.9051741-.7701,1.4149924-1.995348,1.5151827-3.6419026.0354645-.5578891-.0056777-1.1174891-.1222024-1.6644513-.1126448-.5321408-.3080089-1.0423519-.5808351-1.5171589-.2622774-.4485654-.6463365-.8256766-1.1088236-1.0874045-.5388118-.307468-1.1473101-.4811223-1.7722478-.5093784-.9943126-.0420563-1.9817761.0724208-2.9351314.3403341l-.7206727.2025055.3373306-5.5889867-.7347487-.0457387-.862926,14.3086706ZM97.6025108,314.756349l-2.926108-.1870567.8954504-15.2813457,2.929332.1823553-.3888919,6.6148766,6.3432299-6.2442101,3.5041802.2181405-6.5961754,6.4311954,6.1083432,8.8935779-3.5228389-.2252026-4.6129917-6.6488287-1.4498276,1.4208536-.2837021,4.8256445ZM95.7833141,313.6181182l.8313758.0530544.2461005-4.1909824,2.6255607-2.5736068,5.041315,7.2661745.8919558.05692-5.407806-7.8739382,5.5581304-5.4204131-.6982351-.0435443-7.9670108,7.8406418.4878032-8.3070701-.8321696-.0518969-.7770198,13.244661ZM123.4710723,314.8498584l-2.0251937-.1291201.4771385-7.7817456.3505696-.1021218c1.0579344-.3078518,2.154058-.4150946,3.2563952-.321733,1.0017409.0206257,1.9048045.5665587,2.3617004,1.4351437.4464257.8372626.643968,1.7779431.5697813,2.7177739-.1045667,1.5240103-.5587216,2.6419157-1.3493985,3.3177711-.7912388.6767631-2.0164074.9676104-3.6409929.8640318ZM122.561952,313.7663312l.9709247.0617947c1.3348485.0849567,2.3030131-.1208917,2.8772532-.6123447.5759133-.4923502.9113997-1.3764166.9971709-2.6273142.0594743-.754454-.0980471-1.5046905-.4552542-2.1744416-.2808372-.5339285-.834749-.8675926-1.4489008-.8744611l-.0211061-.0001973-.0210104-.001775c-.8533685-.0754351-1.7024896-.0121596-2.5281992.1874837l-.3708779,6.0412556ZM140.0659893,311.6342066l-6.2669503-.3966503.0313182-.5121244-.517941-.0690857c.1296647-.9550906.589789-1.8531474,1.2956929-2.5288178.6621542-.6307988,1.5752842-.9500033,2.5000923-.8878153.9232872.0194947,1.756524.4884583,2.2340743,1.256181.4663355.7979568.7127348,1.6893177.7195682,2.5897275l.0041453.5485851ZM134.483967,310.2536084l4.4768918.282853c-.0762891-.5347892-.2568355-1.0544291-.5328402-1.5268545-.2818779-.4529685-.7839922-.7373015-1.3475373-.7442293l-.0164784-.0002444-.0165326-.0012672c-.63384-.0495253-1.2459308.1695924-1.6939624.5962664-.4038863.3864767-.7028775.868733-.869541,1.393476Z" class="cls-3"/></g><g><path d="M143.7033732,308.4803108l.0967579-1.5658463,1.6549873.103857.150513-2.4314815c.0115453-.7228029.3319279-1.4074017.8850549-1.8910502.5285512-.4515638,1.2260838-.6732927,1.9303843-.613552l2.6053045.1620439-.0982052,1.5776454-1.6572996-.1033652c-.7323386-.0456757-1.2250289.06839-1.4746367.3391763-.2495859.2707626-.4018325.7952961-.4505234,1.5803776l-.0925985,1.4930368,2.8026913.1758799-.0970684,1.5604609-2.8023748-.1763367-.5386273,8.6847023-1.7999666-.1149657.5369006-8.6734623-1.6512933-.1071202ZM152.4161479,317.7462095l.9598491-15.3815488,1.801628.112052-.9618554,15.3844404-1.7996216-.1149436ZM158.8455173,316.8863396c-2.2383503-2.3256113-2.1110035-5.9547063.285681-8.107835,2.398579-2.1548261,6.1619741-2.016053,8.4045238.3119921,2.2430706,2.3285809,2.1125798,5.9627766-.2902062,8.1151623-1.1897942,1.0658126-2.7820662,1.6121289-4.4056107,1.5119917-1.5348938-.0481347-2.9824604-.7118842-3.9943879-1.8313112ZM160.5364008,310.3477392c-1.515685,1.4947264-1.6630633,3.8410621-.3468768,5.514256,1.4680853,1.5953059,3.9885814,1.7560522,5.6468357.359211,1.5280286-1.4901025,1.6773105-3.8457473.3491354-5.5174993-1.4697346-1.5962665-3.9917863-1.7547759-5.6490946-.3559628l.0000003-.0000049ZM170.7276702,308.6042733l1.9144409.1201387,1.9124699,8.2834117,2.9954516-7.9754204,1.7872061.1121542,1.9249677,8.2965717,2.9834079-7.9885519,1.9167096.1202811-4.0138951,10.0723815-2.0405679-.1303331-1.7704229-8.0390287-2.7542866,7.7500309-2.1541786-.1375895-2.7013027-10.4840463Z" class="cls-2"/><path d="M162.610543,319.2211715c-1.5865434-.1014758-3.0977371-.8208325-4.1594704-1.9922742-1.175743-1.2246403-1.7909616-2.8155722-1.7325345-4.4808001.0586093-1.668288.7862933-3.2119462,2.0494398-4.3469015,2.6090471-2.34442,6.7176589-2.193174,9.1575955.3395888,2.4403197,2.5332686,2.2977074,6.5010374-.3164441,8.8425633-1.2902567,1.1555907-3.0400154,1.7558316-4.8004696,1.6473184-.0660626-.0021831-.1323015-.0052851-.1981168-.0094947ZM163.5178527,307.777326c-1.4320866-.0898109-2.8953005.3653298-4.0233099,1.3785518-1.0555992.9481316-1.6638287,2.2380898-1.7128693,3.6322794-.0490179,1.3937204.4668249,2.7253281,1.4525793,3.7494377l.0112279.0120601c.9113126,1.0078869,2.2301443,1.6125836,3.6087728,1.6545429,1.4876772.091354,2.9495901-.4103539,4.0277064-1.3761603,2.1837414-1.9564158,2.3025398-5.2713802.2639351-7.3879147-.9835719-1.0210923-2.2921211-1.5790168-3.6280423-1.6627969ZM182.5071843,320.184034l-2.8376774-.1814037-1.4527311-6.5960404-2.2601658,6.3586868-2.9510331-.1886501-2.9713858-11.5317457,3.0416497.1907055,1.6006222,6.933807,2.5071698-6.6762565,2.5876054.1622378,1.6105583,6.9421218,2.4961308-6.6846404,3.0454807.1909457-4.4162239,11.0802324ZM181.222627,319.0702173l.566939.0361793,3.6117906-9.0646122-.7879889-.0494934-3.3907407,9.0779263ZM180.5461779,319.0270496l.5448671.0347708-2.1876407-9.4281711-.4316727-.0271133,2.0744463,9.4205136ZM174.5093221,318.6418066l.7004622.0447001,3.2271425-9.0821568-.5203956-.0326859-3.4072091,9.0701427ZM173.852405,318.5998853l.5312796.0339037-2.1751908-9.4206458-.787268-.0494482,2.4311792,9.4361903ZM154.7140952,318.4073104l-2.8600139-.1828316,1.0232073-16.4060541,2.8634152.1779296-1.0266086,16.410956ZM152.9783498,317.2678039l.7390466.0471624.8971785-14.3579948-.7398156-.0460541-.8964095,14.3568865ZM147.1154949,317.9215561l-2.8586825-.1827465.5365911-8.6733519-1.6510606-.107272.1599123-2.5893449,1.6549581.1037626.1187119-1.9188283c.0127308-.8385769.3986592-1.6632891,1.0579542-2.2400153.6387426-.5456812,1.4906285-.8154953,2.3314607-.7436095l3.1235567.1939898-.1621764,2.6038667-2.1876625-.136566c-.7805972-.0487292-.9978156.1173315-1.0458506.1693631-.0769618.083469-.2619133.3744001-.3175195,1.2704773l-.0608445.9804898,2.8031834.1757541-.1609532,2.5860144-2.8026588-.1765112-.5389197,8.6845275ZM145.3787689,316.7828353l.7412121.0473006.5383261-8.6847349,2.8022216.1761705.0332693-.5351341-2.8023301-.1760138.1243105-2.0054831c.0562099-.9068266.2470912-1.5251195.5835399-1.8902287.3680507-.3993832.9906672-.5659777,1.903483-.5090967l1.1269245.0702228.0343088-.5514723-2.0747615-.1291614c-.5753743-.0506857-1.1283999.1294732-1.5463177.4865164-.4382432.3831799-.6974208.9369797-.7066331,1.5154033l-.1831753,2.9669257-1.6552162-.1039638-.0335219.5421839,1.6515625.1071202-.5372023,8.6734452ZM162.9092701,317.6714069c-1.1580022-.0738692-2.288585-.5694132-3.1166598-1.469033l-.026143-.0309371c-1.4649275-1.862237-1.2980537-4.5205191.3888652-6.1843457l.0298096-.0271914c1.8694724-1.5780841,4.7400507-1.3978439,6.3981265.4029073l.0246667.0288242c1.4827343,1.8663085,1.3139118,4.5287295-.3919881,6.1921269l-.0281067.0256878c-.9354628.7875647-2.120746,1.1358188-3.2785704,1.0619609ZM160.6002463,315.5366122c1.2659877,1.3597223,3.4420768,1.4983683,4.8701776.3087116,1.316655-1.297488,1.4473358-3.3608708.3045332-4.8145838-1.2671789-1.3610991-3.4444161-1.4983-4.8717638-.3080761-1.3032185,1.299189-1.4328263,3.3613372-.302947,4.8139483Z" class="cls-2"/></g></g><path d="M185.203 335.728L93.788 329.732 94.471 318.067 185.964 323.95 185.203 335.728z" class="cls-2"/></g><g><path d="M113.8598353 322.3797308l2.7248329.1761455c1.2990249.0839748 2.1821788.9478466 2.1128417 2.0993382-.0693402 1.1515421-1.0489951 1.8942659-2.3476531 1.8097595l-1.2640017-.0822513-.106763 1.7798425-1.4598741-.0952814.3406172-5.687553zM116.2992867 325.164852c.5041088.0327322.8702781-.2094486.8941885-.6071867.0238981-.3975341-.3104505-.6851864-.8146076-.7178487l-1.1360626-.0736008-.0794722 1.3248777 1.1359538.0737584zM120.6032607 322.8156562l1.4626222.0945505-.3439913 5.6924401-1.4620204-.0954215.3433895-5.6915691zM124.2055432 323.048524l2.730983.176543c1.3019575.0841644 2.1866126.9490435 2.1164127 2.1017834-.0702029 1.1527903-1.0525618 1.8962479-2.3541509 1.8115507l-1.2668541-.0824369-.108095 1.7817704-1.4631676-.0954964.3448719-5.6937143zM126.6488958 325.8368606c.5052465.0328061.8724049-.2096105.8966131-.6077796.0241958-.3979649-.3107451-.6859557-.8160401-.7186917l-1.1386267-.0737669-.0804637 1.3263133 1.1385174.0739249zM132.3523079 324.8495857l-.054251.8877136 2.8811317.1869281-.0778338 1.2696506-2.880867-.1873103-.0613309 1.0035623 3.1724529.2066165-.0778235 1.2690849-4.6374827-.3026741.347656-5.697739 4.639396.2999114-.0778689 1.2698243-3.1731789-.2055685zM141.5805615 328.6237303l-.0783981 1.2699133-4.3090664-.2812394.35037-5.7016568 1.4680253.0948998-.2728393 4.4329944 2.8419085.1850887zM143.6081849 324.3027981l1.469962.095025-.3534823 5.7061432-1.4693545-.0959002.3528748-5.705268zM147.2285466 324.5368346l1.4711188.0950997 2.3716183 3.5418801.2104526-3.3749634 1.4637696.0946247-.3566542 5.7107083-1.4631637-.0954961-2.3712458-3.5414732-.2097567 3.3730192-1.4705103-.0959756.3543714-5.7074236zM156.30193 326.4011174l-.0557932.8899355 2.8961655.1879035-.0800414 1.272829-2.8958981-.1882876-.0630743 1.0060735 3.1890045.2076945-.0800303 1.272261-4.6616738-.304253.3575497-5.7119958 4.6636062.3014765-.0800771 1.2730042-3.1897377-.2066412zM160.8015309 330.2929442l.89712-.9019566c.5490185.4951285 1.1794483.8033999 1.9042561.8506199.5523444.0359843.8507669-.1617395.8702426-.4696815.0215755-.3411438-.2497831-.4340618-1.1002607-.6897711-1.25103-.3571926-2.1704737-.751027-2.0981002-1.8993821.0692253-1.0984024 1.0300407-1.7717921 2.3764773-1.6847671 1.0015355.0647329 1.7606722.3982427 2.3595365.9384972l-.8156362.967103c-.5186297-.4347829-1.1010765-.6815957-1.6535286-.7173742-.4748827-.0307549-.7559445.1684805-.7738036.4514122-.0220628.3495292.2552831.4845034 1.1241428.7247476 1.3120012.360876 2.143618.7826902 2.0756012 1.8564822-.0727409 1.1483719-1.024443 1.8048752-2.4915883 1.7091032-1.0526572-.0687151-1.9890969-.4638274-2.6744589-1.1350327z" class="cls-4"/></g></g><g><path fill="none" d="M157.8657926,294.7489672c-.9017087.9547822-2.2086191,1.4620057-3.5509522,1.3784892l-25.5429849-1.5654694c-1.3350991-.0818753-2.5618945-.7440876-3.3334527-1.7991878l-14.7071391-20.1188618c-.0821138-.1133292-.1584895-.2304351-.228772-.3509167-.512732-.8711101-.6878184-1.8839097-.5032163-2.8585996-.1858809.9759291-.0110696,1.9903525.5023934,2.8626788.0703047.1204829.1466582.2375874.2287942.3509179l14.7071115,20.1188557c.771558,1.0551,1.9983751,1.7173138,3.333452,1.7991775l25.542974,1.5654801c1.3423549.0835184,2.6492423-.4237056,3.5509499-1.3784759l17.2361185-18.297267c.5671641-.6015597.9362505-1.3376865,1.0795016-2.1179409-.1437889.7787455-.5124622,1.5133653-1.078654,2.1138781l-17.236124,18.2972418Z"/><path fill="#326ce5" d="M176.1886062,272.9057504l-4.205121-24.4451377c-.2206762-1.2828351-1.0377991-2.3979205-2.2198712-3.0294344l-22.50559-12.0218712c-.6480785-.3463597-1.3763605-.5300062-2.118007-.5340966l.0000211.0000231c-.5894956-.0033656-1.1739992.1068065-1.7191956.3240209l-23.6889476,9.4401078c-1.2378191.4930001-2.1756466,1.5035679-2.548337,2.745566l-7.0834402,23.6371434c-.0409365.1363339-.0744938.2739571-.1008422.4123494-.1846021.97469-.0095157,1.9874895.5032163,2.8585996.0702825.1204816.1466583.2375874.228772.3509167l14.7071391,20.1188618c.7715583,1.0551003,1.9983536,1.7173125,3.3334527,1.7991878l25.5429849,1.5654694c1.3423331.0835165,2.6492435-.423707,3.5509522-1.3784892l17.236124-18.2972418c.5661918-.6005128.9348652-1.3351325,1.078654-2.1138781.0859294-.4680167.0906103-.9518862.0080355-1.432097Z"/><path d="M178.0177135,273.3936903l-4.4365703-25.813662c-.2337909-1.3535488-1.0965772-2.529743-2.3441522-3.1958438l-23.7630377-12.693882c-.6848254-.3658603-1.4544487-.5595894-2.2381057-.5634312-.6217727-.0022122-1.2380153.1151914-1.8126262.3453085l-25.007726,9.9677658c-1.3063306.5206307-2.2960009,1.5875575-2.6891993,2.8986761l-7.4715968,24.949407c-.3484995,1.15901-.1958542,2.406546.4231163,3.4584536.0745158.1266356.1554004.2497177.2423022.3687806l15.5208877,21.2358228c.814327,1.1135335,2.1089516,1.8125705,3.5178558,1.8992523l26.9611057,1.657803c1.4170529.0883806,2.7966866-.44674,3.7486724-1.4542935l18.2005902-19.3145313c.9574537-1.0155416,1.380233-2.3941429,1.148484-3.7456258ZM175.1010691,276.4557883l-17.2361185,18.297267c-.9017076.9547704-2.208595,1.4619944-3.5509499,1.3784759l-25.542974-1.5654801c-1.3350769-.0818637-2.5618941-.7440775-3.333452-1.7991775l-14.7071115-20.1188557c-.082136-.1133305-.1584895-.230435-.2287942-.3509179-.5134629-.8723263-.6882743-1.8867497-.5023934-2.8626788.0263484-.1383923.0599057-.2760156.1008422-.4123494l7.0834402-23.6371434c.3726904-1.2419981,1.310518-2.2525659,2.548337-2.745566l23.6889476-9.4401078c.5451964-.2172144,1.1297-.3273866,1.7191956-.3240209l-.0000211-.0000231c.7416465.0040904,1.4699285.1877369,2.118007.5340966l22.50559,12.0218712c1.1820721.6315139,1.999195,1.7465993,2.2198712,3.0294344l4.205121,24.4451377c.0825748.4802108.0778939.9640803-.0080355,1.432097-.143251.7802545-.5123375,1.5163813-1.0795016,2.1179409Z" class="cls-2"/></g><g><path d="M158.8952107,278.422185l-1.2009827-.0715312.1287385-2.056941c.1669136-2.6668895-.6937858-4.7704243-2.5576544-6.2514252l-7.3396026-5.8315001.7615745-.9016734,7.3409826,5.8318721c2.1489451,1.7072147,3.1850055,4.2057249,2.9958612,7.2239994l-.1289172,2.0571994Z" class="cls-4"/><path d="M158.196 279.98L155.022 276.671 156.079 275.72 158.316 278.052 160.827 276.002 161.759 277.071 158.196 279.98zM137.1712232 277.7590244l-1.1952855-.0712739.2019265-3.3015156c.1524953-2.4933101 1.5771888-4.8053014 3.8119751-6.1846523l7.9934957-4.9332873.64487.9832988-7.9943763 4.9321955c-1.9118585 1.179565-3.1304178 3.1509102-3.2603941 5.2733054l-.2022114 3.3019294z" class="cls-4"/><path d="M136.516 278.685L133.353 275.383 134.404 274.435 136.633 276.762 139.13 274.715 140.058 275.782 136.516 278.685z" class="cls-4"/><g><path d="M158.1626462,280.4911949c-2.1490562-.1284916-3.9956132,1.4530767-4.1252754,3.5319644-.1296269,2.0783213,1.5057869,3.8682076,3.6536731,3.9983905,2.1488876.1302435,3.9976467-1.4498957,4.128444-3.5299082.130833-2.0805798-1.5067829-3.8718951-3.6568416-4.0004466Z" class="cls-3" pointer-events="all"/><path d="M157.6596159,288.523369c2.4314763.1475041,4.531104-1.6468036,4.6791884-4.0004463.1481301-2.3543691-1.7117222-4.388705-4.1447005-4.5340391-2.4316947-.1452574-4.5284898,1.6508883-4.6751185,4.0030873-.1465835,2.351474,1.7104363,4.3839718,4.1406306,4.5313981ZM158.1311885,280.9934887c1.8602729.111327,3.2821969,1.6667636,3.1690597,3.4669131-.1131105,1.7997249-1.7183844,3.1719492-3.5777791,3.0593534-1.8586449-.1125504-3.2789126-1.6669122-3.1666798-3.4653688.1122593-1.7988807,1.7158769-3.1721798,3.5753992-3.0608977Z" class="cls-4"/></g><g><path d="M136.4830059,279.1949744c2.1399564.1279475,3.7720202,1.914947,3.6444462,3.9908099-.1275393,2.0752981-1.9654717,3.6521138-4.1042675,3.5224819-2.1378014-.1295716-3.7676769-1.9151491-3.6412976-3.9887637.1264137-2.0741783,1.9621579-3.652416,4.1011188-3.524528Z" class="cls-3" pointer-events="all"/><path d="M135.992543,287.2089491c-2.4187845-.1467341-4.2695161-2.1743393-4.1266064-4.5204883.1429537-2.3468707,2.2274707-4.1392337,4.6477422-3.9946586,2.4215461.1446512,4.2750924,2.1740856,4.1306507,4.5231166-.1443972,2.3483079-2.231729,4.1388418-4.6517865,3.9920304ZM136.4523353,279.6961296c-1.8507873-.1107594-3.4450147,1.259648-3.5544625,3.0544535-.1094221,1.7943834,1.3060356,3.3450031,3.1559533,3.4570251,1.8506622.1120671,3.4465354-1.2572708,3.5568274-3.0529167.110318-1.7960687-1.3067856-3.347758-3.1583182-3.4585619Z" class="cls-4"/></g><g><path d="M148.5395168,259.9883758c2.1480766.1237846,3.7851365,1.9137078,3.6556002,3.9973385-.129501,2.0830625-1.9756036,3.6695355-4.122511,3.5440537-2.1459068-.1254233-3.7807656-1.9139205-3.6524331-3.9952867.1283675-2.0819335,1.972269-3.6698324,4.119344-3.5461055Z" class="cls-2" pointer-events="all"/><path d="M148.0414918,268.0323229c-2.4279548-.1420413-4.2843444-2.1729619-4.1392254-4.5278808.1451638-2.355645,2.2389435-4.1589797,4.6683962-4.0191138,2.4307353.1399397,4.2899561,2.1726946,4.1432934,4.5305162-.1466175,2.3570941-2.2432284,4.1585946-4.6724642,4.0164783ZM148.5083733,260.4914059c-1.857808-.1071595-3.4591197,1.2716372-3.5702586,3.0731536-.1111127,1.8010916,1.3086731,3.354247,3.165605,3.4626786,1.8576812.1084754,3.4606484-1.2692487,3.5726374-3.0716125.1120154-1.8027891-1.3094259-3.357017-3.1679838-3.4642198Z" class="cls-4"/></g><path d="M149.2695182,257.9226149l-1.1998747-.0688691.1274569-2.0599538c.165252-2.6707958-.6958091-4.775134-2.5587297-6.253813l-7.3358615-5.82247.7603383-.9046128,7.3372406,5.8228394c2.147852,1.7045374,3.1843289,4.2039703,2.9970653,7.2266664l-.1276353,2.060213Z" class="cls-4"/><path d="M148.572 259.484L145.399 256.177 146.455 255.223 148.691 257.554 151.198 255.494 152.13 256.563 148.572 259.484zM127.565942 257.3083286l-1.1941821-.0686244.1998734-3.3063396c.1509379-2.4968399 1.572966-4.8151553 3.8048374-6.201458l7.9830782-4.9582671.6448071.9831176-7.9839587 4.9571757c-1.9093651 1.1855117-3.1256413 3.1621443-3.2542975 5.2876412l-.2001578 3.3067547z" class="cls-4"/><g><path d="M126.8801622,258.740157c2.1379825.1232029,3.7694926,1.9088169,3.6432098,3.9877165-.1262484,2.078334-1.9615354,3.6614537-4.0983592,3.5365613-2.1358302-.1248343-3.7651531-1.9090293-3.6400627-3.9856746.1251244-2.07721,1.9582242-3.6617487,4.0952121-3.5386032Z" class="cls-3" pointer-events="all"/><path d="M126.3946824,266.7658498c-2.4165543-.1413743-4.2666584-2.1674098-4.125207-4.5169877.1414949-2.3503007,2.2230091-4.1498191,4.6410479-4.0106103,2.4193124.1392821,4.2722298,2.1671429,4.1292493,4.5196104-.1429364,2.3517433-2.227264,4.1494363-4.6450903,4.0079876ZM126.8498032,259.242045c-1.8490801-.106656-3.4410111,1.2692232-3.5493432,3.0666522-.1083067,1.7970061,1.306671,3.3464252,3.1548829,3.4543476,1.8489559.1079659,3.442532-1.266846,3.5517071-3.0651185.1092008-1.7986959-1.307422-3.3491823-3.1572468-3.4558813Z" class="cls-4"/></g><g><path d="M138.9131229,239.4880711c2.1460921.119017,3.7825947,1.9075471,3.6543558,3.994228-.1282039,2.0861118-1.9716474,3.6789184-4.1165722,3.5581991-2.143925-.1206631-3.7782276-1.9077701-3.6511903-3.9921805.1270719-2.0849785,1.9683154-3.6792081,4.1134066-3.5602465Z" class="cls-2" pointer-events="all"/><path d="M138.4201053,247.5437883c-2.4257126-.1366556-4.2814706-2.1659978-4.1378169-4.5243606.143698-2.3590902,2.2344592-4.1696138,4.6616673-4.0351401,2.4284896.1345446,4.2870775,2.1657171,4.141883,4.5269906-.1451497,2.3605447-2.2387408,4.1692379-4.6657333,4.0325102ZM138.8822925,239.9918373c-1.8560916-.1030363-3.4550951,1.2812579-3.5651128,3.0854093-.1099918,1.803726,1.3093108,3.355674,3.1645278,3.4599863,1.8559657.1043544,3.4566239-1.2788695,3.5674905-3.0838714.1108928-1.805428-1.3100646-3.3584463-3.1669055-3.4615242Z" class="cls-4"/></g><path d="M126.912 258.237L123.75 254.938 124.799 253.986 127.028 256.311 129.521 254.256 130.449 255.322 126.912 258.237z" class="cls-4"/></g></g></svg>