<?xml version="1.0"?>
<svg xmlns="http://www.w3.org/2000/svg" width="300" height="378" viewBox="0 0 300 378"><defs><linearGradient id="g_t" gradientUnits="userSpaceOnUse" x1="128" y1="0" x2="128" y2="86"><stop offset="0" stop-color="#6FA8FF"></stop><stop offset="1" stop-color="#2E6FE6"></stop></linearGradient><linearGradient id="g_r" gradientUnits="userSpaceOnUse" x1="212" y1="66" x2="150" y2="236"><stop offset="0" stop-color="#69E79F"></stop><stop offset="1" stop-color="#1CA85E"></stop></linearGradient><linearGradient id="g_l" gradientUnits="userSpaceOnUse" x1="44" y1="66" x2="106" y2="236"><stop offset="0" stop-color="#6FEDE1"></stop><stop offset="1" stop-color="#15A99D"></stop></linearGradient></defs><g transform="translate(22 0)"><path fill="url(#g_t)" d="M 60.45 79.77 L 23.97 58.7 A 125 125 0 0 1 232.03 58.7 L 195.55 79.77 A 83 83 0 0 0 60.45 79.77 Z"></path><path fill="url(#g_r)" d="M 203.55 93.62 L 240.03 72.56 A 125 125 0 0 1 136 252.74 L 136 210.61 A 83 83 0 0 0 203.55 93.62 Z"></path><path fill="url(#g_l)" d="M 120 210.61 L 120 252.74 A 125 125 0 0 1 15.97 72.56 L 52.45 93.62 A 83 83 0 0 0 120 210.61 Z"></path><circle cx="128" cy="128" r="70" fill="#D5DAE0"></circle><circle cx="103" cy="128" r="10" fill="#5A6573"></circle><circle cx="153" cy="128" r="10" fill="#5A6573"></circle></g><path transform="translate(-8.73 367.02) scale(1.0650)" fill="#5A6573" d="M31.30-24.10L18.40-11.90L18.70-27.60L46.60-53.40L61.60-53.40L37.90-29.60L31.30-24.10ZM20.70 0L8.20 0L8.20-74.20L20.70-74.20L20.70 0ZM63.70 0L48.50 0L29-24.10L36.90-34.10L63.70 0ZM101.30 0.70L101.30 0.70Q94.50 0.70 89.20-2.30Q83.90-5.30 80.85-11.35Q77.80-17.40 77.80-26.70L77.80-26.70Q77.80-36.10 80.95-42.10Q84.10-48.10 89.45-51.05Q94.80-54 101.30-54L101.30-54Q109.20-54 115.25-50.60Q121.30-47.20 124.85-41.10Q128.40-35 128.40-26.70L128.40-26.70Q128.40-18.40 124.85-12.30Q121.30-6.20 115.25-2.75Q109.20 0.70 101.30 0.70ZM83.60 0L71.70 0L71.70-74.20L84.20-74.20L84.20-41L83.20-26.80L83.60-12.60L83.60 0ZM99.90-10L99.90-10Q104.40-10 107.95-12Q111.50-14 113.60-17.80Q115.70-21.60 115.70-26.70L115.70-26.70Q115.70-31.90 113.60-35.65Q111.50-39.40 107.95-41.40Q104.40-43.40 99.90-43.40L99.90-43.40Q95.40-43.40 91.80-41.40Q88.20-39.40 86.10-35.65Q84-31.90 84-26.70L84-26.70Q84-21.60 86.10-17.80Q88.20-14 91.80-12Q95.40-10 99.90-10ZM152.80 0L140.30 0L140.30-53.40L152.80-53.40L152.80 0ZM146.60-62.20L146.60-62.20Q143.10-62.20 140.85-64.40Q138.60-66.60 138.60-69.70L138.60-69.70Q138.60-72.90 140.85-75.05Q143.10-77.20 146.60-77.20L146.60-77.20Q150.10-77.20 152.35-75.15Q154.60-73.10 154.60-70L154.60-70Q154.60-66.70 152.40-64.45Q150.20-62.20 146.60-62.20ZM181.70 0L169.20 0L169.20-53.40L181.10-53.40L181.10-39L179.00-43.40Q181.80-48.50 187.15-51.25Q192.50-54 199.50-54L199.50-54Q205.90-54 210.95-51.50Q216.00-49 218.90-43.85Q221.80-38.70 221.80-30.60L221.80-30.60L221.80 0L209.30 0L209.30-29Q209.30-36.10 205.95-39.60Q202.60-43.10 196.60-43.10L196.60-43.10Q192.20-43.10 188.80-41.30Q185.40-39.50 183.55-35.95Q181.70-32.40 181.70-27L181.70-27L181.70 0ZM260.30 0.70L260.30 0.70Q252.60 0.70 246.45-2.75Q240.30-6.20 236.80-12.30Q233.30-18.40 233.30-26.70L233.30-26.70Q233.30-35 236.80-41.10Q240.30-47.20 246.45-50.60Q252.60-54 260.30-54L260.30-54Q267-54 272.30-51.05Q277.60-48.10 280.70-42.10Q283.80-36.10 283.80-26.70L283.80-26.70Q283.80-17.40 280.80-11.35Q277.80-5.30 272.50-2.30Q267.20 0.70 260.30 0.70ZM261.80-10L261.80-10Q266.30-10 269.85-12Q273.40-14 275.55-17.80Q277.70-21.60 277.70-26.70L277.70-26.70Q277.70-31.90 275.55-35.65Q273.40-39.40 269.85-41.40Q266.30-43.40 261.80-43.40L261.80-43.40Q257.30-43.40 253.75-41.40Q250.20-39.40 248.05-35.65Q245.90-31.90 245.90-26.70L245.90-26.70Q245.90-21.60 248.05-17.80Q250.20-14 253.75-12Q257.30-10 261.80-10ZM289.90 0L278 0L278-12.60L278.50-26.80L277.50-41L277.50-74.20L289.90-74.20L289.90 0Z"></path></svg>