<?xml version="1.0" encoding="utf-8"?>
<!-- Generator: Adobe Illustrator 21.1.0, SVG Export Plug-In . SVG Version: 6.00 Build 0)  -->
<svg version="1.1" id="レイヤー_1" xmlns="http://www.w3.org/2000/svg" xmlns:xlink="http://www.w3.org/1999/xlink" x="0px"
	 y="0px" viewBox="0 0 216 216" style="enable-background:new 0 0 216 216;" xml:space="preserve">
<style type="text/css">
	.st0{opacity:0.5;fill:#FFFFFF;}
	.st1{opacity:0.61;fill:#FFFFFF;}
	.st2{opacity:0.81;fill:#FFFFFF;}
	.st3{fill:#FFFFFF;}
</style>
<g>
	<path class="st0" d="M143.4,50.6c12.4-0.1,22.1,9.7,22.1,22.2c0,12-10,22-22,22c-12.3,0-22.2-9.7-22.4-22.1
		C121,60.6,131,50.7,143.4,50.6z"/>
	<path class="st1" d="M145.9,124.2c-5.9,4.9-12.2,9.4-18.2,14.2c-2.6,2.1-4.4,2-6.7-0.4c-10.9-11.1-22.1-22-33-33.1
		c-2.8-2.8-4.7-2.9-7.7-0.4c-14.7,12.1-29.6,24.2-44.5,36.2v2.5v38.5h38.5h28.9h13.2l25.3-0.2l0.2,0.2h38.3v-38.3l-0.2-0.2l0-0.6
		c-8.5-6.1-17-12.3-25.3-18.5C151.5,121.7,149.1,121.5,145.9,124.2z"/>
	<polygon class="st2" points="74.3,181.7 35.8,181.7 35.8,143.2 6.9,143.2 6.9,210.6 74.3,210.6 	"/>
	<polygon class="st2" points="180,143.2 180.2,143.4 180.2,181.7 141.9,181.7 141.7,181.5 141.7,210.6 209.1,210.6 209.1,143.2 	"/>
	<polygon class="st2" points="36,75.8 35.8,75.5 35.8,37.3 35.8,37.2 74.1,37.2 74.3,37.5 74.3,8.4 6.9,8.4 6.9,75.8 	"/>
	<polygon class="st2" points="141.7,8.4 141.7,37.2 180.2,37.2 180.2,75.8 209.1,75.8 209.1,8.4 	"/>
	<polygon class="st3" points="74.3,37.5 99.6,37.2 141.7,37.2 141.7,8.4 93,8.4 74.3,8.4 	"/>
	<polygon class="st3" points="141.7,181.5 116.4,181.7 103.2,181.7 74.3,181.7 74.3,210.6 141.7,210.6 	"/>
	<polygon class="st3" points="180.2,75.8 180.2,104.7 180.2,117.8 180,142.6 180,143.2 209.1,143.2 209.1,75.8 	"/>
	<polygon class="st3" points="35.8,143.2 35.8,140.7 35.8,101.1 36,75.8 6.9,75.8 6.9,143.2 	"/>
</g>
</svg>
