<svg id="Layer_1" data-name="Layer 1" xmlns="http://www.w3.org/2000/svg" viewBox="0 0 446.16 129.91"><title>notary-horizontal-color</title><rect x="306.77203" y="44.81198" width="13.547" height="54.18903"/><path d="M90.014,31.264V8.685H8.73V121.58H90.015V99.001h-.001ZM76.467,99.001H62.92V44.812H35.825V99.001H22.277V31.264h54.19Z"/><rect x="306.77203" y="31.26401" width="54.18896" height="13.547"/><path d="M153.235,99.001h13.547V31.264H99.046V99.001h54.189Zm-40.642-54.19h40.642V85.454H112.593Z"/><polygon points="424.183 31.264 424.183 85.453 383.541 85.453 383.541 31.264 369.994 31.264 369.994 99.001 424.183 99.001 424.183 108.033 424.183 108.033 99.046 108.033 99.046 121.58 437.73 121.58 437.73 31.264 424.183 31.264"/><polygon points="202.909 31.264 202.909 8.685 189.362 8.685 189.362 31.264 175.815 31.264 175.815 44.812 189.362 44.812 189.362 99 202.909 99 202.909 99.001 216.456 99.001 216.456 85.454 202.909 85.454 202.909 44.811 297.741 44.811 297.741 31.264 202.909 31.264"/><path d="M284.194,58.359h-54.19V99.001h67.737V44.812H284.194Zm-.001,27.094H243.551V71.906h40.642Z"/></svg>