<svg xmlns="http://www.w3.org/2000/svg" role="img" viewBox="-7.33 -7.58 446.16 129.91"><path d="M28.495 91.421V37.232H55.59v54.189h27.095V114H1.4V91.421h27.095zm248.368-13.547V64.326h-40.642v13.547h40.642zm13.548 2.258v11.289h-67.737V50.779h54.19V37.232h13.547v42.9zm126.442 20.321v-9.032h-54.189V23.684h13.547v54.189h40.642V23.684H430.4V114H91.716v-13.547h325.137zM182.032 23.684V1.105h13.547v22.579h94.832v13.547h-94.832V91.42h-13.547V37.232h-13.547V23.684h13.547zM1.4 1.105h81.284v22.579H1.4V1.105zm90.316 22.579h13.547v67.737H91.716V23.684zm54.189 0h13.547v67.737h-13.547V23.684zm-40.642 54.19h40.642v13.547h-40.642V77.874zm0-54.19h40.642v13.547h-40.642V23.684zm90.316 54.19h13.547v13.547h-13.547V77.874zm103.863-54.19h54.189v13.547h-54.189V23.684zm0 13.548h13.547v54.189h-13.547V37.232zM1.4 23.684h13.547v67.737H1.4V23.684zm67.737 0h13.547v67.737H69.137V23.684z"/></svg>