<?xml version="1.0" encoding="UTF-8"?><svg id="Layer_1" xmlns="http://www.w3.org/2000/svg" viewBox="0 0 2146.76147 2564.47886"><g><path d="M891.69911,1124.30151v-.00012c-2.30835-.02765-4.60986,.177-6.87451,.61157l-.34937-.4621-205.13501,34.84442c30.79443,85.19586,88.84277,157.84888,165.1394,206.68921l79.48999-192.08289-.59326-.77246c1.80249-4.1994,2.76367-8.71155,2.83032-13.27979,.28735-19.34589-15.16284-35.26062-34.50757-35.54785Z"/><path d="M857.13612,1003.72241c6.67456-1.82202,12.65918-5.57983,17.19995-10.79883,12.70044-14.59607,11.16455-36.72412-3.43042-49.42334l.16797-.84814-156.08081-139.60083v.00928c-47.61499,77.5-68.0542,168.65698-58.08521,259.06787l200.07007-57.72766,.15845-.67834Z"/><polygon points="1066.30409 1092.70673 1123.71083 1065.07587 1137.95863 1003.10986 1098.21815 953.42554 1034.2931 953.42554 994.44935 1003.02588 1008.7245 1065.01953 1066.30409 1092.70673"/><path d="M2026.17714,1190.46777v.00024l.00928,.0575-165.95508-720.85132c-9.03662-37.76282-34.5332-69.48218-69.47021-86.42603L1119.00453,62.52063c-35.26123-16.82678-76.23608-16.82678-111.49731,0L335.88417,383.41968c-34.94531,16.93286-60.45068,48.65088-69.48926,86.41626L100.70643,1190.66821c-4.08667,18.22028-4.09961,37.11798-.03809,55.34375,1.1958,5.55225,2.7583,11.01917,4.677,16.36505,3.24243,9.1225,7.53564,17.83679,12.79272,25.9668,2.27686,3.47693,4.67725,6.85846,7.28711,10.13519l464.88843,577.99554c2.02905,2.51495,4.26758,4.81049,6.48706,7.14429,7.29443,7.76788,15.53125,14.59357,24.51904,20.31812,11.36719,7.15448,23.75537,12.54071,36.74023,15.97449,10.64795,2.91925,21.63208,4.4342,32.67285,4.50555h7.22998l738.27344-.17151c4.48828-.01971,8.97192-.28369,13.4314-.79053,6.39673-.72321,12.73022-1.92688,18.94629-3.60071,4.45557-1.17322,8.84644-2.57861,13.15503-4.21033,3.3623-1.28589,6.71558-2.57196,9.9541-4.12457,4.85034-2.32239,9.55518-4.93713,14.08838-7.8302,11.69727-7.3551,22.11304-16.57373,30.83447-27.29102l14.17432-17.62244,450.55225-560.48743c8.63574-10.8288,15.42041-23.01129,20.08008-36.05457,1.94531-5.36383,3.53662-10.84955,4.7627-16.42218,4.07178-18.22461,4.05859-37.12476-.03809-55.34375Zm-261.61914-8.40082c-6.86963,20.93292-29.4082,32.33319-50.34155,25.46338l-.56567-.08502c-.26196-.07538-.50586-.18793-.78174-.26318-3.29468-.72534-7.3916-1.44098-10.26318-2.19458-12.14648-3.89752-24.05811-8.49457-35.67334-13.76764-22.38672-9.03046-45.59863-15.85883-69.30957-20.38867-8.20312-.25409-16.17871,2.71008-22.22559,8.25903-2.90845-.59326-11.86572-2.15662-17.00659-2.97559-38.42993,120.92151-119.96851,223.4975-229.10327,288.21405,1.8667,5.48047,4.07617,10.83752,6.62134,16.03754-4.05347,7.11353-5.15015,15.53528-3.05103,23.44891,9.66309,22.12915,21.46704,43.26147,35.23877,63.0954,7.70898,10.13977,14.82471,20.71747,21.31055,31.67975,1.57275,2.97559,3.6626,7.56183,5.17993,10.69788,1.33569,2.23126,2.44849,4.58783,3.3269,7.0365,7.4375,20.75989-3.36353,43.61835-24.12476,51.0556-20.76099,7.43701-43.6189-3.36365-51.05444-24.12421-1.52661-3.12622-3.62793-7.25146-4.91553-10.18909-4.54297-11.91064-8.39404-24.07294-11.53711-36.42621-6.89722-23.11084-16.03857-45.49164-27.29053-66.82416-4.89014-6.60992-12.17627-11.03925-20.29443-12.33661-1.24365-2.17548-5.95239-10.78296-8.47681-15.28455-118.21436,44.76917-248.7771,44.4375-366.76147-.93231l-9.01245,16.29211c-6.42163,1.00079-12.39233,3.91479-17.13086,8.36255-13.55347,22.24115-23.91333,46.27631-30.77612,71.401-3.11304,12.35376-6.94336,24.51678-11.47021,36.42566-1.26929,2.9101-3.40747,6.98761-4.91553,10.09552v.0943l-.06445,.07538c-.88281,2.45477-2.00488,4.81781-3.34766,7.0542-11.35303,18.89417-35.87085,25.00873-54.76514,13.65741s-25.00757-35.87042-13.65674-54.76471c1.51733-3.13605,3.52222-7.72217,5.104-10.7168,6.48584-10.98639,13.60156-21.58875,21.31055-31.75439,14.02246-20.35242,26.06763-41.99762,35.97461-64.63995,1.05054-7.67914-.18408-15.49786-3.5498-22.47919l7.24219-17.32745c-108.78564-64.19733-190.31738-165.98492-229.21631-286.16138l-17.32837,2.96643c-6.71118-4.77185-14.6272-7.56769-22.84399-8.07056-23.7041,4.53387-46.91162,11.3623-69.29346,20.38861-11.61523,5.22821-23.51782,9.79077-35.65259,13.66425-2.88306,.78168-7.00781,1.56335-10.28394,2.31647-.26465,.04712-.48975,.17932-.75415,.23566l-.59326,.0943c-2.36108,.77655-4.7937,1.33057-7.2583,1.65466-21.8418,2.8717-41.87866-12.50842-44.75024-34.35175-2.87158-21.84283,12.50732-41.8786,34.35132-44.75134l.56543-.16791,.34717-.07581c3.32471-.82892,7.56421-1.90253,10.61279-2.46692,12.64062-1.75659,25.37329-2.78094,38.1311-3.07062,24.07422-1.58868,47.93213-5.5213,71.24316-11.74274,6.90186-4.39258,12.73926-10.27032,17.08252-17.20673l16.63867-4.8396c-18.06201-125.4231,10.81494-253.09949,81.09253-358.54199l-12.72339-11.37622c-.47119-8.23779-3.2417-16.17773-7.99414-22.92236-18.30103-15.73962-38.09644-29.65625-59.10352-41.54736-11.34399-5.7915-22.34521-12.23145-32.95117-19.28735-2.40942-1.76123-5.6123-4.48218-8.2124-6.60999l-.61157-.43469c-18.81836-13.51758-23.18677-39.69775-9.77368-58.59302,7.71582-9.45874,19.48047-14.66968,31.67041-14.03174,10.11401,.43457,19.82324,4.09717,27.70459,10.45312,2.71289,2.16675,6.41211,4.99121,8.83325,7.06274,9.24243,8.75171,17.97461,18.02649,26.15015,27.78149,16.24561,17.84131,34.19263,34.05713,53.58594,48.41284,7.26514,3.81885,15.73511,4.64075,23.60059,2.28882,4.74512,3.45898,9.53418,6.85596,14.36938,10.1897,69.83374-74.22974,160.26074-125.89453,259.67041-148.35925,17.66406-4.00061,35.54663-6.89514,53.52368-9.01501v-168.33032l306.04834,210.94482-306.04834,226.89966v-164.17017c-10.08398,1.48975-20.12891,3.21399-30.07495,5.45349-74.45044,16.72839-142.74365,53.93616-197.16846,107.422l170.96069,121.21802,.32861-.18848c5.58008,4.05444,12.23145,6.37317,19.11963,6.66382,1.75195,1.42114,6.45142,.29675,12.88916-1.94946,.50098-.17236,.99536-.34033,1.48511-.53564,13.91895-5.00305,35.07227-13.56714,52.64087-15.63757,60.16406-7.09045,84.38013,2.59558,113.48486,13.74988,1.58179,.76685,3.18188,1.45081,4.85107,1.97046,59.70923,27.2666,88.90723,82.99841,96.78418,118.62573,.02295,4.33728,.80688,8.54346,2.34277,12.48083,1.87842,12.31763,1.84619,20.24622,1.84619,20.24622l222.65674,59.66113c10.17554-92.45593-18.40845-196.15601-81.55908-293.2085l85.75195-61.15649c95.72314,162.8623,104.36475,267.89185,97.20312,383.57996l16.04541,4.67065c4.00757,7.22504,9.94165,13.19586,17.14014,17.25153,23.32715,6.20532,47.20117,10.12305,71.28662,11.69678,12.75122,.29877,25.46997,1.32312,38.10352,3.0705,3.32471,.61157,8.16431,1.94965,11.55542,2.73138h-.0022c2.44385,.32416,4.85107,.87366,7.19385,1.64154,20.93359,6.86975,32.33301,29.4082,25.46289,50.34161Z"/><path d="M1097.14442,1226.91113v-.00018c-3.25562-6.02374-8.20557-10.96289-14.23608-14.20868-17.05957-9.18158-38.3313-2.79456-47.51392,14.26501h-.16772l-100.88794,182.4306c72.23853,24.58746,149.89355,28.57526,224.27051,11.51746v.01904c13.82471-3.14575,27.30225-6.90948,40.42798-11.2915l-101.13867-182.73175h-.75415Z"/><path d="M1247.33949,1124.05536c-2.65088-.51733-5.35474-.71729-8.05151-.59314-4.6626,.24719-9.22632,1.43231-13.41992,3.48547-16.89648,8.16083-24.37793,28.17462-16.97925,45.41864l-.24585,.34827,80.31079,194.04175v.00983c76.84155-49.03705,135.14478-122.28595,165.6958-208.1676l-206.96289-34.97546-.34717,.43225Z"/></g><g><path d="M260.1651,2136.19381h92.96969v159.29869l138.09553-159.29869h110.91144l-141.90134,158.75529,152.77487,214.75467h-111.99875l-105.47443-147.88126-42.40733,46.21214v101.66912h-92.96969v-373.50996Z"/><path d="M934.32819,2228.62009v281.08367h-91.88239v-31.5333c-17.39785,23.37827-46.75655,38.05712-82.09616,38.05712-60.89249,0-103.84322-45.12534-103.84322-108.73634v-178.87116h88.62048v158.21089c0,30.9899,19.57246,52.73796,47.84385,52.73796s49.47505-21.20367,49.47505-48.93215v-162.0167h91.88239Z"/><path d="M1189.31158,2222.09527v76.65964c-57.08618,0-92.42629,32.6211-92.42629,84.27026v126.67859h-91.88189v-281.08367h91.88189v51.10576c18.48566-35.33911,51.65016-57.63058,92.42629-57.63058Z"/><path d="M1444.29497,2421.08329l51.10576,51.65016c-25.00948,25.55288-72.85383,43.49413-115.26116,43.49413-86.98927,0-152.77487-61.43539-152.77487-147.88126,0-85.35807,63.611-146.25105,148.42566-146.25105,89.16388,0,143.53205,63.611,143.53205,170.17273h-204.96844c7.06822,32.0777,29.90309,53.82477,61.97979,53.82477,23.92267,0,49.47555-9.78623,67.96121-25.00948Zm-128.8532-80.46445h115.80456c-6.52482-28.81529-26.09728-48.38775-54.91257-48.38775-29.90209,0-52.19356,19.02806-60.89199,48.38775Z"/><path d="M1866.72608,2129.66899v380.03478h-91.88189v-37.51372c-22.29147,27.72749-54.91257,44.03754-92.96969,44.03754-75.02843,0-128.8532-60.89199-128.8532-147.33786,0-85.90147,53.82477-146.79446,128.8532-146.79446,38.05712,0,70.67822,16.31105,92.96969,44.03854v-136.46482h91.88189Zm-92.42629,239.22074c0-40.77613-26.63968-70.13482-64.1544-70.13482-40.23273,0-68.50361,29.35869-68.50361,70.13482,0,41.32053,28.27089,70.67922,68.50361,70.67922,37.51472,0,64.1544-29.35869,64.1544-70.67922Z"/></g></svg>