<?xml version="1.0" encoding="UTF-8" standalone="no"?>
<svg
   xmlns:dc="http://purl.org/dc/elements/1.1/"
   xmlns:cc="http://creativecommons.org/ns#"
   xmlns:rdf="http://www.w3.org/1999/02/22-rdf-syntax-ns#"
   xmlns:svg="http://www.w3.org/2000/svg"
   xmlns="http://www.w3.org/2000/svg"
   xmlns:sodipodi="http://sodipodi.sourceforge.net/DTD/sodipodi-0.dtd"
   xmlns:inkscape="http://www.inkscape.org/namespaces/inkscape"
   id="a"
   viewBox="0 0 93.066978 118.06933"
   version="1.1"
   sodipodi:docname="kubewarden.icon_black.svg"
   inkscape:version="1.0.1 (3bc2e813f5, 2020-09-07)"
   width="93.066978"
   height="118.06933"
   inkscape:export-filename="/home/flavio/cncf-artwork/projects/kubewarden/icon/black/kubewarden.icon_black.png"
   inkscape:export-xdpi="144"
   inkscape:export-ydpi="144">
  <metadata
     id="metadata13">
    <rdf:RDF>
      <cc:Work
         rdf:about="">
        <dc:format>image/svg+xml</dc:format>
        <dc:type
           rdf:resource="http://purl.org/dc/dcmitype/StillImage" />
        <dc:title />
      </cc:Work>
    </rdf:RDF>
  </metadata>
  <defs
     id="defs11" />
  <sodipodi:namedview
     pagecolor="#ffffff"
     bordercolor="#666666"
     borderopacity="1"
     objecttolerance="10"
     gridtolerance="10"
     guidetolerance="10"
     inkscape:pageopacity="0"
     inkscape:pageshadow="2"
     inkscape:window-width="1920"
     inkscape:window-height="1043"
     id="namedview9"
     showgrid="false"
     inkscape:zoom="5.1575758"
     inkscape:cx="46.533488"
     inkscape:cy="59.143047"
     inkscape:window-x="0"
     inkscape:window-y="0"
     inkscape:window-maximized="1"
     inkscape:current-layer="a"
     inkscape:document-rotation="0" />
  <path
     d="m 14.972208,31.883767 v 38.2771 c 0,17.43066 31.5614,31.561283 31.5614,31.561283 0,0 31.56116,-14.130623 31.56116,-31.561283 v -38.2771 l -31.56116,-15.31982 z m 46.28998,11.99683 3.31464,1.59619 0.8186,3.58667 2.81909,12.35107 0.8186,3.58667 -2.2937,2.87622 -7.89893,9.90503 -2.29382,2.87622 h -20.02649 l -2.2937,-2.87622 -7.8988,-9.90503 -2.2937,-2.87622 0.8186,-3.58667 2.81909,-12.35107 0.8186,-3.58667 3.31458,-1.59619 11.41406,-5.49683 3.31458,-1.59619 3.31458,1.59619 z"
     id="path2"
     style="fill:none" />
  <polygon
     points="93.66565,96.37646 106.33435,96.37646 114.23328,86.47144 111.41418,74.12036 100,68.62354 88.58594,74.12036 85.76685,86.47144 "
     id="polygon4"
     style="fill:none"
     transform="translate(-53.466512,-23.356953)" />
  <path
     d="M 126.23997,-23.356953 H -33.172992 c -11.20783,0 -20.29352,9.08569 -20.29352,20.29352 V 121.34953 c 0,11.20776 9.08569,20.29352 20.29352,20.29352 H 126.23997 c 11.20782,0 20.29352,-9.08575 20.29352,-20.29352 V -3.063433 c 0,-11.20782 -9.08569,-20.29352 -20.29352,-20.29352 z m -33.145262,93.51782 c 0,12.31128 -7.39685,23.90796 -21.98511,34.467773 -5.79645,4.16608 -11.9726,7.77667 -18.44653,10.78394 l -6.12952,2.74438 -6.12946,-2.74438 c -6.474,-3.00726 -12.65015,-6.61786 -18.44666,-10.78394 C 7.369048,94.068887 -0.027802,82.472147 -0.027802,70.160867 v -47.66992 l 8.44983,-4.10156 31.5614,-15.31982 6.55017,-3.1792 6.55017,3.1792 31.5611,15.31982 8.44983,4.10156 v 47.66992 z"
     id="path6"
     style="fill:none" />
  <path
     style="fill:#000000;fill-opacity:1;stroke-width:0.19389"
     d="M 42.946531,116.45559 C 33.823557,112.27991 27.150199,108.40009 20.580027,103.45193 7.997383,93.975627 1.263661,83.853397 0.197268,72.81226 0.088552,71.68664 0.007904,60.745459 0.005,46.727858 L 0,22.582351 23.26981,11.291175 46.539618,0 l 23.26368,11.289311 23.26368,11.289309 -0.005,24.147372 c -0.003,14.018802 -0.0836,24.960638 -0.19227,26.086268 -1.06582,11.035167 -7.80691,21.168477 -20.38276,30.63967 -6.64657,5.00569 -13.9523,9.23013 -22.84017,13.20701 -1.75347,0.78459 -3.193095,1.41923 -3.199175,1.4103 -0.0061,-0.009 -1.581563,-0.73507 -3.50107,-1.61365 z m 6.883077,-16.26177 c 15.41997,-8.078273 25.30004,-17.270133 27.76439,-25.830444 l 0.44654,-1.551116 V 52.27826 31.744262 L 62.287758,24.100878 46.534968,16.457495 30.780703,24.10373 15.026437,31.749964 V 52.281112 72.81226 l 0.447197,1.551116 c 2.492019,8.643651 12.692453,18.077301 28.127383,26.013004 1.970659,1.01319 2.907952,1.39725 3.199181,1.31088 0.22654,-0.0672 1.58978,-0.73924 3.02941,-1.49344 z"
     id="path15" />
  <path
     style="fill:#000000;fill-opacity:1;stroke-width:0.19389"
     d="m 30.516994,72.966582 c -3.379151,-4.23401 -6.180682,-7.838812 -6.225624,-8.01067 -0.08912,-0.340804 4.162192,-19.212205 4.372348,-19.408667 0.07088,-0.06626 4.121186,-2.042163 9.000674,-4.390888 l 8.871796,-4.270409 8.8691,4.267277 c 4.878,2.347002 8.92718,4.322901 8.99818,4.390887 0.21193,0.202937 4.46268,19.065567 4.37341,19.406925 -0.0452,0.172909 -2.84461,3.779237 -6.22087,8.014064 l -6.13866,7.699686 h -9.87822 -9.878223 z m 26.229344,-4.662254 c 2.09588,-2.639322 3.87876,-4.889061 3.96196,-4.999423 0.0832,-0.11036 -0.48492,-2.989619 -1.26248,-6.398354 l -1.41376,-6.197699 -5.74303,-2.774806 -5.74303,-2.774806 -5.755386,2.774806 -5.755387,2.774806 -1.413909,6.197699 c -0.77765,3.408735 -1.343675,6.287994 -1.257833,6.398354 0.08584,0.110362 1.869777,2.360101 3.9643,4.999423 l 3.808225,4.798766 h 6.39983 6.39982 z"
     id="path17" />
</svg>
