<?xml version="1.0" encoding="UTF-8"?><svg id="Layer_1" xmlns="http://www.w3.org/2000/svg" viewBox="0 0 779.7796 294.84298"><defs><style>.cls-1{fill:none;}</style></defs><polygon class="cls-1" points="276.0559 181.38685 276.05614 181.38533 276.0559 181.38618 276.0559 181.38685"/><path class="cls-1" d="m548.54589,135.96766c-5.18701,0-9.22607,1.79425-12.11743,5.3847-2.89331,3.59039-4.33789,8.32843-4.33789,14.21204v.44806h33.06042v-.44806c0-5.88361-1.47278-10.62164-4.41321-14.21204-2.94287-3.59045-7.00769-5.3847-12.19189-5.3847Z"/><path class="cls-1" d="m272.75756,188.35169l-22.62183,28.14148,22.62048-28.13885c1.14795-1.43848,2.04993-3.05713,2.66956-4.7901.19434-.53717.33508-1.091.47534-1.64453-.14075.55304-.28198,1.10645-.47668,1.64319-.61877,1.73242-1.52002,3.35052-2.66687,4.78882Z"/><path class="cls-1" d="m85.44689,265.26417c.24152.28693.49701.56036.7561.83392.39502.42017.82404.80463,1.25897,1.18176-.4353-.37799-.86493-.76343-1.26031-1.18439-.25824-.27161-.513-.54449-.75476-.8313Z"/><path class="cls-1" d="m206.93682,268.76124c-.60205.38428-1.22699.73157-1.87115,1.04004-.43018.20624-.87561.37701-1.3222.54785-.5722.21661-1.1554.40344-1.74713.55914-.82562.22235-1.66687.3822-2.51648.47827-.59229.06738-1.18787.10236-1.78406.10498l-98.05768.02277h-.96033c-1.46643-.00952-2.92529-.21069-4.33966-.59839-1.30768-.34595-2.56915-.84222-3.76117-1.47559,1.19232.63483,2.45404,1.13251,3.76251,1.47949,1.41394.38715,2.8725.58795,4.33832.59711h.96161l98.05774-.02289c.59613-.00214,1.19159-.03674,1.78394-.10364.84973-.09656,1.69092-.25684,2.51648-.47955.59271-.15698,1.1767-.34491,1.74982-.56293.44861-.1629.88947-.34418,1.32208-.54407.64203-.30865,1.26483-.65601,1.86481-1.04004,1.55511-.97662,2.93982-2.20105,4.0993-3.62476l1.34851-1.68079-1.34973,1.67816c-1.15845,1.42352-2.54187,2.64789-4.09552,3.62482Z"/><path class="cls-1" d="m51.54681,66.83839l12.97186-6.19794-12.9707,6.19672c-2.32117,1.12457-4.32867,2.74036-5.90601,4.70197,1.57709-1.96112,3.58423-3.57629,5.90485-4.70074Z"/><path class="cls-1" d="m727.7578,135.96766c-5.18701,0-9.22546,1.79425-12.11743,5.3847-2.8938,3.59039-4.33789,8.32843-4.33789,14.21204v.44806h33.06042v-.44806c0-5.88361-1.47278-10.62164-4.41272-14.21204-2.94275-3.59045-7.00818-5.3847-12.19238-5.3847Z"/><path d="m368.885,147.03736l41.13892-45.17792c.39722-.49799.59814-1.09576.59814-1.79523,0-.89709-.32471-1.64551-.97241-2.24426-.64966-.59778-1.37207-.89709-2.16895-.89709h-14.80981c-2.59497,0-4.53943.89709-5.83423,2.69232l-33.80884,36.0531v-35.00531c0-1.09674-.35071-1.99384-1.04688-2.6933-.69897-.69666-1.59656-1.04681-2.69275-1.04681h-13.16431c-1.09863,0-1.97083.35016-2.61804,1.04681-.65002.69946-.97241,1.59656-.97241,2.6933v97.38605c0,.99786.34827,1.84705,1.04736,2.54364.69653.69849,1.54468,1.04675,2.54309,1.04675h13.16431c1.09619,0,1.99377-.32239,2.69275-.97192.69617-.64771,1.04688-1.51984,1.04688-2.61847v-38.74548l36.20227,39.64355c1.39514,1.79523,3.33997,2.69232,5.83423,2.69232h15.40808c.79736,0,1.51929-.29932,2.16943-.89709.64722-.59875.97192-1.34717.97192-2.24426,0-.69659-.25-1.34619-.7478-1.94489l-43.98096-49.51581Z"/><path d="m491.70141,123.85017h-13.16418c-.99792,0-1.84656.35022-2.54309,1.04681-.6991.69946-1.04688,1.54767-1.04688,2.54358v41.13843c0,5.78485-1.52173,10.32233-4.56299,13.61334-3.04346,3.29108-7.15723,4.93665-12.34143,4.93665-10.87158,0-16.30579-6.18298-16.30579-18.54999v-41.13843c0-1.09668-.3252-1.96887-.97241-2.61841-.65002-.64771-1.52173-.97198-2.61792-.97198h-13.16431c-.99829,0-1.84656.35022-2.54321,1.04681-.69897.69946-1.04724,1.54767-1.04724,2.54358v42.03558c0,10.37408,2.64148,18.57587,7.92834,24.60919,5.28491,6.03522,12.51465,9.04999,21.69141,9.04999,11.07007,0,19.39624-3.74017,24.98242-11.21942v6.13312c0,.99786.34814,1.84705,1.04712,2.54364.69666.69849,1.54541,1.04675,2.54321,1.04675h12.11694c1.09631,0,1.96851-.34827,2.61816-1.04675.64758-.69659.97241-1.54578.97241-2.54364v-70.60846c0-1.09668-.32483-1.96887-.97241-2.61841-.64966-.64771-1.52185-.97198-2.61816-.97198Z"/><path d="m548.54589,122.35432c-10.9718,0-19.72339,3.24213-26.25415,9.72351-6.53271,6.48431-10.04834,15.40857-10.54639,26.77765l-.14966,3.74011.14966,3.73914c.39722,11.66846,3.86401,20.71942,10.39722,27.15186,6.53027,6.4325,15.33325,9.64874,26.40332,9.64874,6.97949,0,13.11304-1.19653,18.40039-3.59045,5.28491-2.39301,9.34924-5.21008,12.19128-8.45221,2.84302-3.23926,4.26404-6.05829,4.26404-8.45221,0-.79639-.32532-1.46997-.9729-2.0188-.64966-.54688-1.42114-.82324-2.31812-.82324h-12.86499c-1.09912,0-1.92188.14966-2.46875.44904-.54932.29938-1.27148.99786-2.16895,2.0946-3.59058,4.58832-8.32849,6.88055-14.21167,6.88055-4.98792,0-8.90076-1.86908-11.74329-5.60925-2.84204-3.74011-4.36377-8.35144-4.56238-13.83783v-1.19653h49.66553c1.0957,0,1.99377-.34827,2.69226-1.04675.69666-.69659,1.04773-1.54578,1.04773-2.54364v-3.14142c0-11.96777-3.21619-21.54163-9.64966-28.72253-6.43237-7.17993-15.53418-10.77032-27.30054-10.77032Zm16.6051,33.65814h-33.06042v-.44806c0-5.88361,1.44458-10.62164,4.33789-14.21204,2.89136-3.59045,6.93042-5.3847,12.11743-5.3847,5.1842,0,9.24902,1.79425,12.19189,5.3847,2.94043,3.59039,4.41321,8.32843,4.41321,14.21204v.44806Z"/><path d="m670.91344,123.85017h-13.16431c-.99792,0-1.84607.35022-2.5426,1.04681-.69946.69946-1.04785,1.54767-1.04785,2.54358v41.13843c0,5.78485-1.52173,10.32233-4.56238,13.61334-3.04358,3.29108-7.15686,4.93665-12.34204,4.93665-10.87109,0-16.30566-6.18298-16.30566-18.54999v-41.13843c0-1.09668-.32434-1.96887-.97205-2.61841-.64941-.64771-1.52173-.97198-2.61841-.97198h-13.16431c-.9978,0-1.84607.35022-2.54272,1.04681-.69946.69946-1.04675,1.54767-1.04675,2.54358v42.03558c0,10.37408,2.6405,18.57587,7.92834,24.60919,5.28491,6.03522,12.51465,9.04999,21.69141,9.04999,11.06958,0,19.39526-3.74017,24.98242-11.21942v6.13312c0,.99786.34827,1.84705,1.04675,2.54364.69666.69849,1.5448,1.04675,2.5426,1.04675h12.11755c1.09668,0,1.9679-.34827,2.61853-1.04675.64661-.69659.97192-1.54578.97192-2.54364v-70.60846c0-1.09668-.32532-1.96887-.97192-2.61841-.65063-.64771-1.52185-.97198-2.61853-.97198Z"/><path d="m755.05846,133.12464c-6.4325-7.17993-15.5343-10.77032-27.30066-10.77032-10.9718,0-19.72339,3.24213-26.25366,9.72351-6.5332,6.48431-10.04883,15.40857-10.54688,26.77765l-.14966,3.74011.14966,3.73914c.39722,11.66846,3.86401,20.71942,10.39722,27.15186,6.53027,6.4325,15.33374,9.64874,26.40332,9.64874,6.97949,0,13.11255-1.19653,18.40039-3.59045,5.28491-2.39301,9.34937-5.21008,12.19141-8.45221,2.8429-3.23926,4.26392-6.05829,4.26392-8.45221,0-.79639-.3252-1.46997-.9729-2.0188-.64966-.54688-1.42102-.82324-2.31812-.82324h-12.86499c-1.09863,0-1.92188.14966-2.46875.44904-.54883.29938-1.27136.99786-2.16943,2.0946-3.58948,4.58832-8.32751,6.88055-14.21118,6.88055-4.9884,0-8.90112-1.86908-11.74316-5.60925-2.84204-3.74011-4.36389-8.35144-4.5625-13.83783v-1.19653h49.66553c1.0957,0,1.9939-.34827,2.69238-1.04675.69653-.69659,1.04773-1.54578,1.04773-2.54364v-3.14142c0-11.96777-3.21619-21.54163-9.64966-28.72253Zm-10.69556,22.88782h-33.06042v-.44806c0-5.88361,1.44409-10.62164,4.33789-14.21204,2.89197-3.59045,6.93042-5.3847,12.11743-5.3847,5.1842,0,9.24963,1.79425,12.19238,5.3847,2.93994,3.59039,4.41272,8.32843,4.41272,14.21204v.44806Z"/><path d="m254.01104,78.29737c-1.20038-5.01575-4.58673-9.22864-9.22705-11.47919l-89.22046-42.59912c-4.68329-2.23499-10.12567-2.23499-14.80908,0l-76.23578,36.42139-12.97186,6.19794c-2.32062,1.12445-4.32776,2.73962-5.90485,4.70074-.19391.24127-.36066.50305-.54144.75446-.18634.25922-.38623.50836-.55798.77771-.25867.40582-.48462.83234-.70892,1.25964-.06946.13214-.15326.25562-.2193.38971-.55884,1.13507-.99573,2.33832-1.2959,3.59192l-22.00684,95.74365c-.5426,2.41968-.54431,4.9292-.00513,7.34961.15887.73779.36646,1.46436.62134,2.17487.43066,1.21161,1.00079,2.36908,1.69916,3.44885.30096.46564.62372.91528.96771,1.34875l61.74799,76.77081c.03253.04041.0708.07544.10425.11505.24176.2868.49652.55969.75476.8313.39539.42096.82501.8064,1.26031,1.18439.09851.08551.18475.18463.28528.26776.06995.05811.1496.10382.22058.16077.48077.38513.97363.75586,1.49432,1.0871.36377.22906.73615.44318,1.11481.64484,1.19202.63336,2.45349,1.12964,3.76117,1.47559,1.41437.3877,2.87323.58887,4.33966.59839h.96033l98.05768-.02277c.59619-.00262,1.19177-.0376,1.78406-.10498.84961-.09607,1.69086-.25592,2.51648-.47827.59174-.1557,1.17493-.34253,1.74713-.55914.44659-.17084.89203-.34161,1.3222-.54785.64417-.30847,1.2691-.65576,1.87115-1.04004,1.55365-.97693,2.93707-2.20129,4.09552-3.62482l1.34973-1.67816.53156-.66241,37.22211-46.30267,22.62183-28.14148c1.14685-1.43829,2.0481-3.0564,2.66687-4.78882.1947-.53674.33594-1.09015.47668-1.64319.04553-.18024.11487-.3537.15479-.53534v.00183c0-.00031,0-.00055.00024-.00085.54077-2.4187.53979-4.92719-.00293-7.3454l-22.04218-95.74255Zm-157.06696,104.61859l-19.67908,19.67908c-1.19629,1.19623-2.6665,1.73138-4.10919,1.73138-3.01807,0-5.91357-2.34399-5.91357-5.88293v-96.12665c0-3.52002,2.88263-5.88275,5.9079-5.88275,1.36426,0,2.75812.48096,3.92865,1.55298l19.8653,18.19354,3.53088,3.23376,3.53143,3.23425,23.24689,21.29059c2.46588,2.2583,2.55054,6.11688.18622,8.48126l-23.43311,23.43311-3.53143,3.53143-3.53088,3.53094Zm36.76367.00049l-19.67859,19.67859c-1.19629,1.19623-2.6665,1.73138-4.10919,1.73138-3.01801,0-5.91357-2.34399-5.91357-5.88293v-12.60223l28.42694-28.42694c.46417-.46417.88965-.96185,1.27441-1.48694,1.67297-2.28345,2.57324-5.08868,2.51056-7.94238-.05841-2.66144-.95331-5.24316-2.51056-7.37006-.4964-.67798-1.05878-1.31079-1.68457-1.88391l-28.01678-25.65906v-10.75513c0-3.52002,2.88263-5.88275,5.9079-5.88275,1.36426,0,2.75806.48096,3.92859,1.55298l19.86487,18.19312,3.53101,3.23389,3.53137,3.23413,23.24738,21.29102c2.46582,2.2583,2.55048,6.11688.18616,8.48126l-23.43353,23.43359-3.53137,3.53131-3.53101,3.53107Zm36.76367,0l-19.67859,19.67859c-1.19623,1.19623-2.66644,1.73138-4.10919,1.73138-3.01801,0-5.91351-2.34399-5.91351-5.88293v-12.60181l28.42737-28.42737c.46399-.46399.88928-.96143,1.27393-1.48633,1.67328-2.28357,2.57379-5.08905,2.51111-7.94299-.05841-2.66174-.95349-5.24371-2.51111-7.37073-.49628-.67773-1.05847-1.3103-1.68408-1.88324l-28.01721-25.65942v-10.75476c0-3.52002,2.88257-5.88275,5.9079-5.88275,1.3642,0,2.758.48096,3.92859,1.55298l19.86481,18.19305,3.53113,3.23401,3.53119,3.23407,23.24744,21.29102c2.46582,2.2583,2.55054,6.11688.18616,8.48126l-23.43359,23.43359-3.53119,3.53119-3.53113,3.53119Zm67.25958-30.49597l-50.1745,50.17456c-1.19629,1.19623-2.66644,1.73138-4.10919,1.73138-3.01801,0-5.91357-2.34399-5.91357-5.88293v-12.60175l28.42743-28.42743c2.48248-2.48254,3.86212-5.91937,3.78503-9.42932-.07703-3.50989-1.60614-6.88287-4.19519-9.25397l-28.01727-25.65948v-10.7547c0-3.52002,2.88269-5.88275,5.90796-5.88275,1.3642,0,2.75806.48096,3.92859,1.55298l50.17456,45.95215c2.46582,2.2583,2.55048,6.11688.18616,8.48126Z"/></svg>