<svg height="500" viewBox="0 0 1593 500" width="1593" xmlns="http://www.w3.org/2000/svg"><g fill="none" fill-rule="evenodd"><g transform="translate(100 100)"><circle cx="190" cy="100" fill="#6f38ff" r="100"/><path d="m354 30h92c7.732 0 14 6.268 14 14v92c0 7.732-6.268 14-14 14h-92c-7.732 0-14-6.268-14-14v-92c0-7.732 6.268-14 14-14z" fill="#0080ff"/><path d="m376 100c7.732 0 14 6.268 14 14v86c0 55.228-44.772 100-100 100s-100-44.772-100-100c0-54.676 43.88-99.104 98.346-99.987l1.654-.013z" fill="#1ee7e7"/><path d="m376 100c7.732 0 14 6.268 14 14v36h-36c-7.732 0-14-6.268-14-14v-36z" fill="#03bde3"/><path d="m290 100-.013 1.654c-.883 54.465-45.31 98.346-99.987 98.346 0-54.676 43.88-99.104 98.346-99.987z" fill="#5570ff"/><circle cx="70" cy="170" fill="#ed58ed" r="70"/><path d="m90.044 102.912c28.892 8.62 49.956 35.394 49.956 67.088 0 5.358-.602 10.575-1.742 15.588-28.047-16.99-47.072-47.377-48.205-82.287z" fill="#cb6afb"/></g><path d="m733.533 313.187v-.187h15.334v-121.087c0-5.523-4.477-10-10-10h-14.684v81.345l-61.138-77.359a10 10 0 0 0 -7.846-3.799h-15.166v130.9h24.684v-88.264zm79.849 1.87c29.92 0 48.059-21.505 48.059-48.059v-34.059c0-7.732-6.268-14-14-14h-34.246c-29.359 0-47.685 21.692-47.685 48.059 0 26.554 17.952 48.059 47.872 48.059zm0-20.944c-16.643 0-25.058-13.09-25.058-27.115 0-13.838 8.602-27.302 25.058-27.302 15.334 0 25.058 13.464 25.058 27.302 0 14.025-8.415 27.115-25.058 27.115zm107.338 21.692c13.651 0 24.871-4.114 35.53-14.586l-15.334-14.96c-5.61 5.61-12.903 7.667-20.196 7.667-14.212 0-26.18-9.35-26.18-26.928 0-16.082 11.22-27.302 26.554-27.302 6.358 0 13.09 2.431 18.513 7.293l14.399-15.147c-10.098-9.911-20.196-13.651-33.286-13.651-26.741 0-48.994 16.082-48.994 48.807s22.253 48.807 48.994 48.807zm88.077 0c10.285-.187 24.684-5.423 29.92-16.269l1.122 13.464h21.505v-82.191c0-5.523-4.477-10-10-10h-11.879l-.748 12.716c-5.236-9.163-17.017-14.96-29.359-14.96-26.928-.187-48.059 16.456-48.059 48.246 0 32.351 20.196 49.181 47.498 48.994zm2.618-20.944c-15.147 0-27.302-10.472-27.302-28.05s12.155-27.863 27.302-27.863c35.904 0 35.904 55.913 0 55.913zm91.817 18.139v-120.713c0-5.523-4.477-10-10-10h-12.627v130.713zm42.823 0v-47.124c0-13.838 9.35-25.245 22.814-25.245 12.155 0 20.944 7.106 20.944 23.936v48.433h22.814v-48.62c0-27.115-11.594-44.88-37.774-44.88-10.472 0-20.57 3.179-28.798 13.838v-41.238c0-5.523-4.477-10-10-10h-12.814v130.9zm129.404 2.057c29.92 0 48.059-21.505 48.059-48.059 0-26.367-18.887-48.059-48.246-48.059s-47.685 21.692-47.685 48.059c0 26.554 17.952 48.059 47.872 48.059zm0-20.944c-16.643 0-25.058-13.09-25.058-27.115 0-13.838 8.602-27.302 25.058-27.302 15.334 0 25.058 13.464 25.058 27.302 0 14.025-8.415 27.115-25.058 27.115zm101.354 22.066c26.367 0 39.644-14.025 39.644-30.294 0-20.577-15.57-26.64-30.86-28.72l-1.091-.141c-.546-.068-1.09-.13-1.633-.19l-1.083-.11-1.078-.102-1.072-.091-1.591-.121-1.523-.103-.928-.072-.9-.083c-10.187-1.028-14.902-4.331-14.902-9.911 0-5.797 5.984-9.163 16.83-9.163 8.789 0 16.269 2.057 22.814 8.228l12.716-14.96c-10.659-9.35-21.505-12.155-35.904-12.155-16.83 0-38.896 7.48-38.896 28.798 0 18.85 16.813 25.885 32.854 28.057l1.068.138c.355.044.71.085 1.064.124l1.06.11 1.055.097c.35.03.7.059 1.047.085l.911.056.885.062.433.034.847.072.821.079.796.085.389.046.759.096c.248.033.493.068.734.104l.71.11.685.119.661.126.637.134c.522.115 1.019.238 1.491.37l.556.162.27.085.52.175c4.336 1.526 6.221 3.994 6.221 7.809 0 6.732-8.041 11.22-16.643 11.033-10.285-.187-25.245-5.61-31.79-12.903l-11.22 16.269c10.622 11.064 21.941 14.913 33.409 16.045l.97.089.484.04.97.071.486.031.97.054.487.023.971.039.486.016.972.024.972.016.973.008zm96.08-2.038.599-.019c6.919-.187 12.342-1.309 18.887-3.927l-6.358-19.448c-3.366 1.683-7.48 2.805-11.033 2.805-7.106 0-11.968-4.301-11.968-13.09v-39.831h25.619v-19.635h-25.432v-15.058c0-5.523-4.477-10-10-10a10 10 0 0 0 -1.06.056l-11.754 1.253v23.749h-17.204v19.635h17.204v39.831c0 22.771 12.83 34.179 32.5 33.679z" fill="#0b0f13" fill-rule="nonzero"/></g></svg>