<?xml version="1.0" encoding="utf-8"?>
<!-- Generator: Adobe Illustrator 24.1.2, SVG Export Plug-In . SVG Version: 6.00 Build 0)  -->
<svg version="1.1" id="Layer_1" xmlns="http://www.w3.org/2000/svg" xmlns:xlink="http://www.w3.org/1999/xlink" x="0px" y="0px"
	 viewBox="0 0 112.7 30.5" style="enable-background:new 0 0 112.7 30.5;" xml:space="preserve">
<style type="text/css">
	.st0{fill:#0087AC;}
	.st1{fill:#FFD100;}
	.st2{fill:#FFFFFF;}
	.st3{fill:none;}
</style>
<path class="st0" d="M112.6,13.7c-0.1-0.1-0.4,0.1-0.5,0.4c-0.1,0.4-0.3,0.7-0.6,0.9c-0.2,0.1,0.2-0.7,0-1s-0.3-0.2-0.4,0.1
	c-0.2,0.7-0.5,1.4-0.9,2l-0.1,0.3c0.1-0.2,0.4-0.9,0.4-1c0.2-0.5,0.3-1,0.4-1.5c0-0.3,0.1-0.6,0.1-0.9l0.2-0.5c0,0.1,0,0.5,0,0.6
	c0,0.2,0,0.4,0,0.6c0.1,0.1,0.4,0.1,0.5-0.1c0.1-0.2,0.2-0.4,0.2-0.7c0.1-1.2,0.1-2.4-0.2-3.5c-0.2-0.9-0.6-1.7-1-2.5
	c-0.7-1.1-1.1-2.5-1.2-2.5s-0.1-0.3-0.1-0.4c-0.2-0.3-0.4-0.6-0.7-0.9c-0.2-0.2-1.3-0.8-0.7,0c0.2,0.2,0.3,0.4,0.4,0.7h0
	c-0.2-0.1-0.4-0.4-0.5-0.6c-0.2-0.2-0.4-0.3-0.6-0.4c-0.2-0.1-0.4-0.2-0.7-0.3s-0.4-0.2-0.6-0.3c-0.2-0.1-0.4-0.2-0.5-0.4
	c-0.2-0.1-0.5-0.1-0.7,0h-0.1l-0.1-0.1c0,0,0-0.1,0-0.1c-0.1-0.1-0.2-0.2-0.4-0.2l0,0l-0.3-0.2c-0.3-0.2-0.7-0.5-1-0.7
	c-0.3-0.2-0.6-0.4-1-0.4c-0.2,0-0.7-0.2-0.8-0.1s-0.1,0.3,0,0.4c0.4,0.1,0.7,0.3,1,0.5l0.1,0.1h-0.4c-0.6,0-1.2,0-1.8,0.1
	c-0.2,0-0.3,0.1-0.5,0.1c-0.5,0.1-0.9,0.2-1.4,0.2c-0.2,0-0.3,0-0.5,0.1c-0.1,0.1-0.1,0.2-0.2,0.2S96.7,1.9,96.5,2
	c-0.3,0.1-0.6,0.2-0.8,0.5c-0.3,0.2-1.1,0.7-1.2,0.9l0,0c-0.1,0-0.2,0-0.3,0.1c-0.4,0.3-0.8,0.6-1.1,1c-0.3,0.3-0.5,0.6-0.7,0.9
	l-0.2,0.3c-0.4,0.6-0.8,1.2-1,1.9c0,0.2-0.2,1.2,0.1,0.9c0-0.2,0.1-0.3,0.3-0.4c0,0.1-0.1,0.2-0.1,0.2c0,0.1,0.1,0.2,0.1,0.3
	S91.5,8.9,91.4,9c-0.1,0.4-0.2,0.8-0.3,1.2c-0.1,0.5-0.1,1,0,1.6H91c-0.1,0.1-0.2,0.3-0.2,0.4c0,0.3-0.1,0.5-0.1,0.4
	c0-0.4-0.1-0.7-0.2-1.1c-0.2-0.3-0.2-0.7-0.2-1.1c0-0.2,0.1-0.5,0.1-0.7c0-0.1,0-0.2,0-0.4V9.1c0-0.4,0.1-1.3,0.1-1.4
	c0.1-0.4,0.6-1.1,0.4-1.5s-0.4,0-0.5,0.1c-0.1,0.1-0.2,0.2-0.2,0.3c-0.2,0.6-0.3,1.2-0.4,1.9c-0.1,0.5-0.1,1-0.2,1.5
	c0,0.1,0,0.3,0,0.4c0,0.4,0,0.8,0,1.2c0,0.1,0.2,0.7,0.2,1c0,0.5,0.7,1.8,0.6,1.9c-0.1,0.1-0.1,0.3,0,0.4c0.4,1.2,1,2.4,1.8,3.4
	c0.2,0.2,0.9,1.1,1,1.2s0.2,0.2,0.2,0.4l0.1,0.1l1.8-2.3c0.7-0.9,1.1-1.1,1.7-2c0.5-0.6,1-1.5,1.4-1.3c0.2,0.1,0.2,0.1,0.4,0.3
	s0.1,0.6-0.3,1c-0.7,0.9-1.1,1.4-1.8,2.3l-1.2,1.5l0.4,0.2c0,0.1,0,0.1,0,0.2c0,0.1,0.1,0.3,0.3,0.3c0.6,0.4,1.2,0.7,1.9,0.9
	l0.6,0.1c0.4,0.1,0.3,0.3,0.7,0.4c0.1,0,0.2,0.2,0.3,0.3c-0.6,0.2-1-0.4-1.2-0.1c-0.1,0.1-0.1,0.3,0,0.5l0,0c-0.1,0-0.3-0.1-0.4-0.1
	c-0.1-0.1-0.3-0.2-0.4-0.3l-0.2-0.1l-0.1-0.1c-0.2-0.2-0.5-0.4-0.8-0.5c-0.1,0-0.3-0.3-0.5-0.4c-0.4-0.2-0.6-0.4-0.9-0.5l-0.4,0.4
	c0.2,0.2,0.5,0.4,0.7,0.6c0.4,0.3,0.7,0.6,1.1,0.9c0.3,0.2,0.7,0.4,1,0.5l0.3,0.1c0.3,0.1,0.5,0.2,0.7,0.4c0.1,0.1,0.7,0.2,0.8,0.3
	c0.3,0.3,1.6,0.3,1.2-0.2c-0.2-0.2-0.5-0.4-0.8-0.5h-0.1h0.3c0.3,0,0.6,0,0.9,0h0.2c0.5,0,0.9,0,1.4,0c0.2,0.1,0.7-0.2,1-0.3
	s0.8-0.1,0.9-0.2s1.2-0.4,1.5-0.4c0.1,0,0.1,0,0.2-0.1c0.2-0.1,0.4-0.2,0.6-0.3c0.5-0.1,0.7-0.3,1.2-0.4c0.1,0,0.3-0.1,0.3-0.2
	s0-0.1,0-0.2c0-0.1,0.1-0.1,0.2-0.1c0.5-0.2,1.2-0.5,1.3-1.1c0-0.2-0.1-0.3-0.3-0.2c-0.3,0.2-0.5,0.4-0.9,0.5l0,0l0.1-0.1
	c0.1-0.1,0.3-0.3,0.4-0.4s0.4-0.4,0.5-0.6s0.4-0.4,0.6-0.6s0.3-0.3,0.4-0.5c0.3-0.6,0.7-1.1,1.2-1.5c0.2-0.2,0.4-0.5,0.5-0.8
	c0.1-0.3,0.2-0.5,0.5-0.7C112.7,14.3,112.7,13.8,112.6,13.7z M92.1,16.2c-0.1-0.3-0.2-0.5-0.2-0.8l-0.1-0.4l-0.1-0.2
	c-0.1-0.5-0.3-1-0.4-1.5c0-0.1,0-0.3,0.1-0.4c0,0.1,0.1,0.2,0.1,0.3s0.3,1.3,0.5,1.9c0.1,0.2,0.1,0.3,0.2,0.5
	c0.2,0.4,0.4,0.4,0.5,0.9c0.2,0.4,0.4,0.7,0.6,1c0.1,0.1,0.2,0.2,0.2,0.4C92.9,17.4,92.5,16.8,92.1,16.2L92.1,16.2z M96.1,4.2
	c-0.1,0.1-0.2,0.1-0.3,0.2c-0.2,0.2-0.5,0.4-0.8,0.6c-0.1,0-0.3,0.1-0.3,0.2s-0.4,0.2-0.5,0.3c-0.3,0.2-0.5,0.4-0.7,0.7
	C93.3,6.5,93.2,6.7,93,7c-0.2,0.4-0.4,0.8-0.6,1.2V8c0-0.4,0.1-0.9,0.3-1.2c0.1-0.2,0.3-0.5,0.5-0.7l0.2-0.3l0.2-0.2
	c0.4-0.4,0.8-0.7,1.3-1C95.2,4.3,95.7,4.1,96.1,4.2L96.1,4.2L96.1,4.2z M100.5,2c-0.3,0-0.6,0-0.9,0.1l-0.5,0.1
	c-0.5,0.1-0.9,0.2-1.4,0.3h-0.2L98,2.2c0.4-0.2,0.9-0.4,1.3-0.4c0.1,0,0.3,0,0.5,0h0.5h0.4l0,0C100.6,1.8,100.6,1.9,100.5,2L100.5,2
	z M105.4,21.2c-0.3,0.1-0.7,0.2-1,0.2c-0.7,0.4-1.6,0.4-2.4,0.1l0,0c0-0.1,0.1-0.1,0.2-0.1c0.1-0.1,0.3,0,0.5,0c0.3,0,0.6,0,0.8-0.2
	c0.3-0.1,1.4-0.3,1.5-0.3s0.2,0,0.4,0.1c0.2,0,0.3,0,0.5,0C105.7,21.1,105.5,21.2,105.4,21.2L105.4,21.2z M109.3,6.3
	c-0.3-0.4-0.5-0.7-0.7-1.1c0.4,0.2,0.7,0.6,0.9,1c0,0.1,0,0.4,0,0.5L109.3,6.3z"/>
<path class="st1" d="M106.3,9.4c-0.3-0.1-0.6-0.2-0.7-0.5c0-0.1,0-0.2,0-0.2c0.1-0.2,0.3-0.3,0.4-0.3c0.1-0.1,0.3-0.1,0.4,0l0.3,0.3
	c0.1,0.2,0.1,0.5-0.1,0.6C106.5,9.3,106.4,9.4,106.3,9.4z"/>
<path class="st1" d="M103.3,16.2c0.2,0.2,0.3,0.5,0.2,0.8c0,0.1-0.1,0.2-0.2,0.3c-0.2,0.1-0.4,0.1-0.6,0.1c-0.2-0.1-0.3-0.2-0.3-0.4
	c-0.1-0.6,0.1-0.9,0.4-1C102.9,16,103.2,16,103.3,16.2z"/>
<path class="st1" d="M103.4,5.8c0.1,0.2,0.1,0.4,0,0.6c-0.1,0.2-0.4,0.3-0.6,0.2c0,0-0.1,0-0.1-0.1c-0.2-0.2-0.3-0.5-0.2-0.9
	c0.1-0.2,0.2-0.3,0.4-0.2C103.1,5.5,103.3,5.6,103.4,5.8z"/>
<path class="st1" d="M96.1,11.1c-0.1,0.1-0.2,0-0.3,0c-0.1,0-0.2-0.1-0.3-0.2c-0.1-0.2,0-0.5,0.2-0.6c0.1-0.2,0.4-0.2,0.5-0.1
	c0.2,0.1,0.3,0.3,0.3,0.5c0,0,0,0.1-0.1,0.1l-0.1,0.1L96.1,11.1z"/>
<path class="st1" d="M98.9,6.8C99,6.9,99.1,7,99.1,7.1c0.1,0.1,0.1,0.2,0,0.3c-0.2,0.2-0.4,0.3-0.6,0.2c-0.2-0.1-0.4-0.2-0.4-0.4
	c-0.1-0.2,0.1-0.4,0.2-0.4c0.1,0,0.1,0,0.2,0h0.2L98.9,6.8z"/>
<path class="st1" d="M106.9,13.8c0,0.1-0.1,0.2-0.1,0.2c-0.2,0.2-0.6,0.1-0.7-0.1c-0.1-0.1-0.1-0.3,0-0.4c0.1-0.2,0.3-0.3,0.4-0.2
	C106.7,13.3,106.9,13.5,106.9,13.8z"/>
<path class="st1" d="M106.7,17.1c-0.2-0.2-0.3-0.4-0.5-0.6s-0.3-0.4-1.2-1.3c-0.1-0.1-0.3-0.2-0.4-0.4s-0.2-0.3-0.3-0.4
	c-0.3-0.4-0.5-0.6-0.6-0.7s-0.7-0.5-0.8-0.7s-0.4-0.4-0.4-0.6s0.3-0.1,0.4-0.2l0,0c0.2-0.1,0.9-0.1,1.1-0.2c0.3-0.1,0.6-0.2,0.9-0.2
	c0.5,0,2.5-0.9,3.1-1c0.3-0.1,0.6-0.3,0.7-0.5c0-0.1,0-0.1,0-0.2c0-0.1-0.1-0.1-0.2-0.1c-0.1,0-0.1,0-0.2,0c-1,0.2-3.6,1-4.6,1.3
	c-0.1,0-0.7,0.2-1,0.3s-0.6-0.1-0.5-0.5s0.6-0.6,0.8-0.8c0.1-0.2,0.3-0.4,0.4-0.6c0.2-0.3,1.9-2.7,2.1-3c0.2-0.3,0.4-0.6,0.6-0.9
	c0-0.1,0-0.2,0-0.3c0-0.1-0.1-0.2-0.2-0.2s-0.3,0.1-0.3,0.2c-0.3,0.4-0.5,0.5-0.8,0.9c-0.2,0.2-1.8,2.5-2,2.8
	c-0.3,0.3-0.6,0.6-0.9,1l-0.1,0.1c0,0-0.6,0.5-0.6,0l0,0c0-0.4,0-0.7,0-1.1c0-0.4,0-0.8,0-1.1c-0.1-1.2-0.1-2.5,0-3.8
	c0,0,0-0.1,0-0.1s-0.1-0.3-0.3-0.2c-0.2,0-0.4,0.1-0.5,0.3c-0.2,0.3-0.2,0.7-0.2,1c0,0.5,0.1,3.2,0.2,3.7c0,0.4,0.1,0.7,0.1,1.1
	c0,0.1,0.1,0.6-0.1,0.5c-0.1-0.1-0.3-0.2-0.4-0.3c-0.3-0.2-0.3-0.4-1.2-1.1c-0.7-0.6-1.2-1.1-1.4-1.3c-0.3-0.3-0.5-0.5-0.8-0.7
	c-0.2-0.1-0.4,0-0.5,0.1c-0.2,0.2-0.2,0.5,0,0.7c0.2,0.2,0.6,0.5,0.9,0.7c0.2,0.3,0.5,0.5,0.8,0.8c0.2,0.1,0.5,0.3,0.6,0.5
	c0.9,0.7,0.8,0.6,0.8,0.6s0.8,0.6,0.6,0.8c-0.2,0.2-0.4,0.3-0.7,0.4c-0.1,0-3.6,0.6-4,0.6c-0.3-0.1-0.6,0-0.9,0.1
	c-0.1,0.1-0.3,0.2-0.4,0.4c-0.1,0.1-0.1,0.3,0,0.5c0,0,0.1,0,0.1,0.1h0c0.8,0.3,2.8-0.3,3.9-0.5c0.8-0.2,1.6-0.3,1.8-0.3
	s0.6-0.2,0.8,0.1s0,0.8,0,0.8c0,0.2,0,0.5-0.1,0.7c-0.1,0.8-0.1,4-0.1,4.6c0,0.2,0.1,0.3,0.2,0.5c0,0.1,0.3,0.2,0.4,0.1
	c0,0,0.1-0.1,0.1-0.1c0-0.1,0.1-0.2,0.1-0.3v-0.9c0-0.1,0-0.3,0-0.4c0.1-0.8,0.1-1.6,0-2.4c0-0.5,0-0.9,0.1-1.4
	c0-0.2,0.4-0.8,0.8-0.7l0,0c0.1,0.1,0.3,0.2,0.4,0.3c0.2,0.3,0.5,0.5,0.7,0.8c0.1,0.1,0.4,0.3,0.4,0.4s0.4,0.5,0.5,0.6
	c0.8,0.9,0.8,1,1,1.2c0.4,0.5,0.4,0.3,0.8,0.7c0.1,0.1,0.3,0.2,0.5,0.2c0.1,0,0.3,0,0.4-0.1C106.7,17.4,106.7,17.2,106.7,17.1z"/>
<path class="st2" d="M73.6,25.4"/>
<path class="st3" d="M39.4,23.4c1-1.1,1.6-2.5,1-2.8s-1.4,0.4-2,1.6c-0.4,0.7-0.7,1.6-0.8,2.4v0.5C38.2,24.6,38.9,24.1,39.4,23.4z"
	/>
<path class="st3" d="M32.1,21.1c-0.6,0-1.2,0.2-1.7,0.5c-1,0.5-1.7,1.4-1.8,2.5v0c1.2-0.1,2.4-0.5,3.4-1.2
	C33.2,22.1,32.6,21.1,32.1,21.1z"/>
<path class="st3" d="M59,20.8c-1-1.3-3.7,1.4-3.9,1.6c-0.1,0.9-0.2,1.4-0.2,2.3c-0.1,1.9,0.2,3.1,0.5,3.2c0.7,0.4,2.2-0.8,3.5-3
	C59.7,23.7,59.7,22.1,59,20.8z"/>
<path class="st3" d="M74.8,11.5c-0.6-0.4-1.6,0.4-2,3.7c-0.1,0.8-0.2,1.6-0.3,2.7c-0.1,0.8-0.1,4.2-0.1,5c1.4-1.8,2.4-4,2.8-6.3
	C75.8,12.9,75.1,11.8,74.8,11.5z"/>
<path class="st2" d="M13.5,19.4c0.6-0.5,0.1-1.2-0.3-1.5s-0.8-0.5-1.2,0.2c-0.1,0.4,0,0.8,0.3,1.1C12.7,19.5,13.1,19.5,13.5,19.4z"
	/>
<path class="st2" d="M87.4,26.2C87.3,26,87,25.9,86.8,26c0,0-0.1,0.1-0.1,0.1c-0.6,0.6-1.3,1-2.1,1.4c-0.9,0.5-2.1,0.3-2.8-0.4
	c-0.6-0.7-0.9-1.6-0.9-2.5c1.3-1.8,2.3-3.8,3.1-5.9c0.6-1.7,0.9-3.4,0.9-5.2c0-1.7-0.7-3.4-1.9-3.5c-1.2-0.3-2.4,0.4-2.8,1.6
	c0,0,0,0,0,0.1c-0.6,2.1-0.9,4.3-0.9,6.5c-0.1,1.8,0,3.6,0.1,5.4c-0.3,0.9-0.7,1.8-1.3,2.6c-2.5,3.9-4.8,0.9-5.3-1.3
	c1.5-1.9,2.7-4.1,3.5-6.4c0.4-1.6,0.6-3.2,0.7-4.8c0-1.2-0.8-3.3-2-3.5c-1.2-0.3-2.4,0.3-2.8,1.5c0,0,0,0.1,0,0.1c-0.7,2-1,4-1,6.1
	c0,2,0,3.9,0.2,5.9c-0.6,1.3-1.4,2.4-2.3,3.4c-0.5,0.5-1.2,0.9-1.9,0.9c-1.2,0.1-2.2-0.6-2.7-1.7c1-0.7,1.9-1.4,2.8-2.2
	c1-0.8,1.5-2,1.5-3.2c-0.2-1.3-1.5-2.1-2.7-1.8c-0.1,0-0.2,0-0.3,0.1c-1.2,0.3-2.2,1.2-2.5,2.4c-0.5,1.3-0.7,2.7-0.5,4
	c-1.1,1.1-2.5,1.8-4,2c0.9-0.8,1.6-1.9,2-3.1c0.8-2.7,0.1-3.9,0.1-4c-0.5-1.5-2.1-2.3-3.6-1.8c-0.8,0.3-1.5,0.9-2,1.5
	c0-0.2,0.1-0.4,0.1-0.6l0.9-4.1c0.3-1.2,0.5-2.4,0.6-3.6c0-0.5-0.2-1-0.7-1.4c-0.3-0.2-0.6-0.2-0.8,0.2c-0.2,0.5-0.5,2.6-0.9,4.6
	l-0.8,4.7c0,0.3-0.1,0.6-0.1,0.9c-0.1,0.5-2.6,7.3-4,6.9c-0.5-0.2-0.9-1.3-0.7-3.1c0.1-1.1,0.3-2.2,0.4-2.5c0.1-0.5,0-1.1-0.3-1.5
	c-0.2-0.2-0.4-0.4-0.7-0.5c-0.6-0.3-1.2-0.3-1.2-0.5c0-0.3,0.1-0.2,0.1-0.7c0-0.3-0.3-0.5-0.7-0.7c-0.3-0.2-0.8-0.3-0.8-0.1
	c-0.2,0.8-0.4,1.6-0.7,2.3l-0.8,2.4c-0.3,0.9-1.7,4.8-4.1,4.9c-0.8,0-2.1-0.2-2.4-1.3c1-0.7,1.9-1.5,2.7-2.3c0.9-0.8,1.4-2,1.4-3.2
	c-0.3-1.3-1.5-2.2-2.9-1.9c-0.1,0-0.2,0-0.2,0.1c-1.2,0.4-2.1,1.3-2.5,2.5c-0.5,1.3-0.6,2.7-0.4,4.1c-1,0.9-2.3,1.3-3.6,1.3
	c-1.3-0.1-2.4-0.7-3.2-1.7c0.5-0.1,1.1-0.3,1.6-0.5c0.5-0.2,1-0.4,1.5-0.7c2.4-1.4,2-2.7,2-3.2c-0.1-1.5-2.1-2.1-3.9-1.3
	c-0.5,0.2-0.9,0.5-1.3,0.9c0.4-2.6,1.4-8.2,1.4-8.6c0-0.3-0.2-0.6-0.5-0.8c-0.4-0.3-0.7-0.3-0.8,0.2c-0.1,0.5-1.5,8.1-1.8,10.4
	c0,0.2,0,0.5-0.1,0.7s-0.1,0.5-0.3,0.9c-0.6,2.5-1.4,4.5-2.5,4.3c-0.7-0.1-1.1-1.3-1.1-2.7c0.1-1.2,0.2-2.4,0.4-3.5
	c0.3-0.9-0.2-2-1.1-2.3c-0.3-0.1-0.7-0.1-1,0c-0.8,0.2-1.5,1.2-2.3,2.4c-0.5,0.7-0.9,1.5-1.3,2.2c0,0,0,0,0.2-0.8
	c0.2-1,0.4-2.4,0.5-2.9c0-0.3-0.3-0.7-0.7-0.9c-0.4-0.2-0.6-0.2-0.6,0c-0.3,1.3-0.6,2.7-0.8,4c-0.2,0.4-0.4,0.9-0.6,1.3
	c-0.9,1.7-2.2,3.8-2.9,3.5c-0.5-0.2-0.7-1.4-0.6-2.8c0-1.1,0.1-2.3,0.3-3.4c0.1-0.5-0.5-1-1-1.2c-0.3-0.1-0.6-0.1-0.6,0.2
	c0,0,0,0.1,0,0.1c-1.2,3.2-2.5,4.9-3.4,5.5c-3.2,2.5-4.4,0-3.2-7.9C5,18.1,5.1,17,5.2,16.7c0.8-0.2,1.7-0.5,2.5-0.6
	c0.9-0.2,1.8-0.4,2.7-0.4c0.5,0,0.5-0.1,0.4-0.2c-0.1-0.2-0.6-0.8-1-0.9c-0.7-0.1-1.5-0.1-2.2,0.1c-0.7,0.1-1.3,0.2-2,0.4l0.4-1.6
	c0.1-0.4,0.1-0.7,0.2-1.1c0-0.4-0.2-0.9-0.5-1.2c-0.2-0.2-0.4-0.4-0.6-0.5c-0.3-0.1-0.4,0.5-0.4,0.6c-0.2,1-0.9,4.3-0.9,4.3
	C3,15.7,2.5,15.8,2,16c-0.8,0.2-1.3,0.3-1.7,0.4c-0.4,0.1-0.4,0.7,0,1.1c0.4,0.4,0.9,0.7,1.2,0.5c0.2-0.1,0.9-0.3,1.9-0.7
	C3.2,19,3,20.9,2.9,22.7c0,2.5,0.1,4.1,1.3,5.8c1.5,2.2,3.8,0.7,4.3,0.3c1.2-0.9,2.1-2.1,2.6-3.6c0,0.4,0.1,0.7,0.1,1.1
	c0.1,1.1,0.6,2.1,1.4,2.8c0.5,0.4,1.2,0.6,1.8,0.5c0.6-0.1,1.2-0.8,1.8-1.6c0,0.1,0,0.1,0,0.2c0,0.5,0.3,0.9,0.7,1.2
	c0.4,0.2,0.6,0.2,0.6,0c0.5-2,1.2-3.9,2.2-5.7c1.2-1.9,1.9-3,2.4-2.6c0.3,0.2,0.1,0.8,0,2.1c-0.1,1.1-0.2,2.1,0,3.2
	c0.1,0.9,0.5,1.8,1.2,2.5c0.6,0.7,1.6,0.8,2.5,0.4c0.5-0.4,0.9-0.9,1.2-1.4c0,0.4,0,0.9,0.1,1.3c0.1,0.4,0.4,0.8,0.8,1
	c0.5,0.4,1.1,0.6,0.9,0.2c-0.4-1.2-0.5-2.5-0.3-3.7c0.8,1.5,2.4,2.3,4.1,2.2c1.1,0,2.1-0.2,3.1-0.8c0.6-0.2,0.9-0.5,0.9-0.4
	c0.9,1.5,2.2,2,4.2,2c3.8-0.2,5.6-6.6,5.8-7.1l0.3-1.1c0,0,1,0.1,1.1,0.7c0,0.9,0,1.9-0.2,2.8c-0.2,1.1-0.1,2.2,0.2,3.2
	c0.2,0.5,1.5,2.3,3.3,1.2c0.9-0.8,1.6-1.9,2.1-3c0-0.1,0.2,1.2,0.4,1.6c0.2,0.5,0.6,0.9,1,1.3c0.1,0.1,0.3,0.2,0.4,0.3l0.2,0.1
	l0.1,0h0.2h0.1c0.6,0.1,1.2,0,1.8-0.1c1.8,0,4.2-1.4,5.4-2c0.8,1.5,2.3,2.4,4,2.3c1.5-0.1,2.9-1.3,3.9-2.7c0.2-0.3,0.5-0.6,0.7-0.9
	c0.2,0.7,0.5,1.3,1,1.9c3.5,4.1,6.7-1.1,7.1-1.7c0.3,1,1,1.9,1.9,2.5c1.1,0.6,2.4,0.6,3.5,0c0.7-0.4,1.4-1,2.1-1.5
	C87.7,26.8,87.6,26.6,87.4,26.2z M28.6,24.2L28.6,24.2L28.6,24.2c0.1-1.2,0.8-2.1,1.8-2.6c0.5-0.3,1.1-0.5,1.7-0.5
	c0.5,0.1,1.1,1-0.1,1.9C31,23.7,29.8,24.1,28.6,24.2z M37.6,24.6c0.1-0.8,0.4-1.7,0.8-2.4c0.6-1.2,1.5-1.9,2-1.6
	c0.5,0.3,0,1.7-1,2.8c-0.6,0.6-1.2,1.2-1.9,1.7L37.6,24.6z M64.2,24.4c0.1-0.9,0.4-1.7,0.8-2.5c0.6-1.2,1.8-1.7,2.2-1.3
	c0.7,0.7-0.1,1.5-1.2,2.6c-0.6,0.6-1.2,1.2-1.9,1.7L64.2,24.4z M55.4,27.9L55.4,27.9c-0.3-0.2-0.6-1.4-0.5-3.3
	c0.1-1,0.1-1.4,0.2-2.3c0.2-0.2,2.9-2.9,3.9-1.6c0.7,1.3,0.6,2.9-0.1,4.1C57.6,27.1,56,28.3,55.4,27.9z M72.4,23L72.4,23
	c0-0.8,0-4.3,0.1-5c0.1-1.1,0.2-1.9,0.3-2.7c0.4-3.3,1.5-4.2,2-3.7c0.3,0.2,1,1.3,0.4,5.1C74.8,19,73.9,21.1,72.4,23z M80.6,22.8
	c0-0.8,0-4,0-4.8c0.1-1.1,0.1-1.9,0.2-2.7c0.4-3.3,1.3-4.3,1.9-3.9c0.3,0.2,1.1,1.1,0.4,4.9C82.6,18.6,81.8,20.8,80.6,22.8
	L80.6,22.8z"/>
</svg>
