<?xml version="1.0" encoding="utf-8"?>
<!-- Generator: Adobe Illustrator 21.1.0, SVG Export Plug-In . SVG Version: 6.00 Build 0)  -->
<svg version="1.1" id="Layer_1" xmlns:sketch="http://www.bohemiancoding.com/sketch/ns"
	 xmlns="http://www.w3.org/2000/svg" xmlns:xlink="http://www.w3.org/1999/xlink" x="0px" y="0px" viewBox="0 0 432 432"
	 style="enable-background:new 0 0 432 432;" xml:space="preserve">
<g id="gRPC-Logo" sketch:type="MSPage">
	<path id="grpc" sketch:type="MSShapeGroup" d="M163.6,207.5h11.5c3.6,0,6.4-0.5,8.5-1.4c2.1-1,3.7-2.3,4.9-4.1
		c1.1-1.8,1.9-4,2.3-6.6s0.6-5.6,0.6-9c0-3.4-0.2-6.4-0.6-9s-1.2-4.8-2.5-6.7c-1.3-1.8-3-3.2-5.2-4.1c-2.2-0.9-5.2-1.3-8.9-1.3
		h-10.5V207.5L163.6,207.5z M143.4,146.2h32.5c23.8,0,35.6,13.8,35.6,41.5c0,8.2-1.3,15.2-3.9,21.1c-2.6,5.9-7.1,10.6-13.6,14.2
		l21.8,64.5h-21.4l-19.1-61.4h-11.8v61.4h-20.2V146.2L143.4,146.2z M227.8,146.2h30.3c5.5,0,10.4,0.7,14.7,2.2s8.1,4,11.5,7.7
		c3.4,3.7,5.8,8,7.1,13c1.3,5,2,11.7,2,20.1c0,6.2-0.5,10.7-1.2,15.1c-0.7,4.4-3.1,12.1-12.3,17.4c-5.8,3.3-14,4.4-21.6,4.4H248
		v61.3h-20.2V146.2L227.8,146.2z M248,207.5h9.7c4.1,0,7.3-0.5,9.5-1.6c2.2-1,3.9-2.5,5-4.3c1.1-1.8,1.7-4,1.9-6.5
		c0.2-2.6,0.3-5.4,0.3-8.6c0-2.9-0.1-5.7-0.3-8.3c-0.2-2.6-0.8-4.9-1.8-6.8s-2.5-3.4-4.7-4.5c-2.1-1.1-5.1-1.7-9.1-1.7H248V207.5
		L248,207.5z M372.5,255.9c0,4.4-0.8,8.5-2.5,12.5s-3.9,7.4-6.8,10.4s-6.3,5.4-10.2,7.1c-3.9,1.8-8.1,2.7-12.6,2.7
		c-3.8,0-7.7-0.5-11.7-1.6c-4-1.1-7.5-2.9-10.7-5.5c-3.2-2.6-5.8-6-7.8-10.2s-3.1-9.6-3.1-16.1v-77.8c0-4.6,0.8-8.9,2.4-12.9
		s3.8-7.4,6.7-10.3c2.9-2.9,6.4-5.2,10.4-6.8c4-1.7,8.5-2.5,13.4-2.5c4.6,0,8.9,0.8,12.9,2.5c4,1.7,7.4,4,10.3,6.9s5.2,6.5,6.8,10.7
		s2.5,8.7,2.5,13.6v7.9h-20.2v-6.7c0-4-1.1-7.4-3.4-10.3c-2.2-2.9-5.3-4.4-9.1-4.4c-5,0-8.4,1.6-10,4.7c-1.7,3.1-2.5,7-2.5,11.8
		v72.2c0,4.1,0.9,7.5,2.7,10.3c1.8,2.8,5,4.2,9.6,4.2c1.3,0,2.7-0.2,4.3-0.7c1.5-0.5,2.9-1.2,4.2-2.3c1.3-1.1,2.3-2.5,3.1-4.4
		c0.8-1.9,1.2-4.2,1.2-6.9v-6.9h20.2V255.9L372.5,255.9z M412.1,216.6c0-5.2-4.2-9.3-9.3-9.3l-50.4,0V226h41.1v20.8h-6.3l15.8,22.3
		l15.8-22.3h-6.6V216.6L412.1,216.6z M57.8,226.2v28c0,5.8,1,10.9,3,15.2c2,4.3,4.6,7.9,7.8,10.7c3.2,2.8,6.9,5,10.9,6.4
		c4,1.5,8.1,2.2,12.2,2.2c4.1,0,8.2-0.7,12.2-2.2s7.7-3.6,10.9-6.4c3.2-2.8,5.8-6.4,7.8-10.7c2-4.3,3-9.4,3-15.2v-46.6l-36.2-0.1
		l0,18.7h16v28c0,4.9-1.4,8.5-4.1,10.8s-5.9,3.5-9.6,3.5c-3.7,0-6.9-1.2-9.6-3.5c-2.7-2.3-4.1-5.9-4.1-10.8v-74.6
		c0-4.9,1.4-8.5,4.1-10.8c2.7-2.3,5.9-3.5,9.6-3.5c3.7,0,6.9,1.2,9.6,3.5s4.1,5.9,4.1,10.8v7.1h20.2v-7.1c0-5.7-1-10.7-3-15.1
		c-2-4.4-4.6-8-7.8-10.8c-3.2-2.8-6.9-5-10.9-6.4c-4-1.5-8.1-2.2-12.2-2.2c-4.1,0-8.2,0.7-12.2,2.2c-4,1.5-7.7,3.6-10.9,6.4
		c-3.2,2.8-5.8,6.4-7.8,10.8c-2,4.4-3,9.4-3,15.1v28H37.2v-20.8h6.3l-15.8-22.3L12,186.7h6.6v30.2c0,5.2,4.2,9.3,9.3,9.3H57.8
		L57.8,226.2L57.8,226.2z"/>
</g>
</svg>
