<svg id="Layer_1" data-name="Layer 1" xmlns="http://www.w3.org/2000/svg" xmlns:xlink="http://www.w3.org/1999/xlink" viewBox="0 0 641.15997 492.7452"><defs><style>.cls-1{clip-path:url(#clip-path);}.cls-2{clip-path:url(#clip-path-2);}.cls-3{fill-rule:evenodd;}.cls-4{opacity:0.8;isolation:isolate;}.cls-5{clip-path:url(#clip-path-3);}</style><clipPath id="clip-path"><rect id="SVGID" x="434.15847" y="261.53384" width="196.52884" height="1.00475"/></clipPath><clipPath id="clip-path-2"><rect id="SVGID-2" data-name="SVGID" x="11.46076" y="261.53384" width="192.20838" height="1.00475"/></clipPath><clipPath id="clip-path-3"><rect id="SVGID-3" data-name="SVGID" x="246.67239" y="16.17426" width="1.00475" height="204.46632"/></clipPath></defs><path id="SVGID-4" data-name="SVGID" d="M434.15843,261.53384H630.68724v1.00475H434.15843Z"/><rect x="434.15847" y="261.53384" width="196.52884" height="1.00475"/><rect id="SVGID-5" data-name="SVGID" x="434.15847" y="261.53384" width="196.52884" height="1.00475"/><g class="cls-1"><path d="M434.15843,261.53384H630.68724v1.00475H434.15843Z"/></g><path id="SVGID-2-2" data-name="SVGID-2" d="M11.46076,261.53384H203.66914v1.00475H11.46076Z"/><rect x="11.46076" y="261.53384" width="192.20838" height="1.00475"/><rect id="SVGID-6" data-name="SVGID" x="11.46076" y="261.53384" width="192.20838" height="1.00475"/><g class="cls-2"><path d="M11.46076,261.53384H203.66914v1.00475H11.46076Z"/></g><path d="M185.28225,190.9c1.10523-.30142,2.41139-.60285,4.11948-.90426a29.74927,29.74927,0,0,1,5.22469-.4019,12.08827,12.08827,0,0,1,4.62185.70332,7.06382,7.06382,0,0,1,2.91376,2.11,7.95107,7.95107,0,0,1,1.50712,3.21519,17.12532,17.12532,0,0,1,.50238,4.11948v12.45887h-6.22944V200.54563a8.389,8.389,0,0,0-.8038-4.21994q-.75357-1.20571-3.01425-1.2057a7.11831,7.11831,0,0,0-1.40664.10048c-.50237,0-.90427.10048-1.30617.10048V212.3012h-6.129V190.9Zm-11.45412,10.24844a8.34814,8.34814,0,0,0-1.10523-4.52137,4.22311,4.22311,0,0,0-6.63135,0,7.54506,7.54506,0,0,0-1.20569,4.52137,8.09734,8.09734,0,0,0,1.20569,4.62185,4.07227,4.07227,0,0,0,6.63135,0,8.98228,8.98228,0,0,0,1.10523-4.62185m6.32992,0a14.12131,14.12131,0,0,1-.70333,4.72231,10.75315,10.75315,0,0,1-2.21044,3.71757,10.05481,10.05481,0,0,1-7.837,3.21519,12.36551,12.36551,0,0,1-4.42089-.8038,10.08517,10.08517,0,0,1-3.41614-2.41139,10.45232,10.45232,0,0,1-2.21044-3.71757,14.27371,14.27371,0,0,1,0-9.44463,10.93955,10.93955,0,0,1,2.21044-3.6171,9.80206,9.80206,0,0,1,3.41614-2.31092,10.34277,10.34277,0,0,1,4.32042-.80381,11.814,11.814,0,0,1,4.32043.80381,11.3937,11.3937,0,0,1,3.41613,2.31092,10.93874,10.93874,0,0,1,2.21045,3.6171,10.44311,10.44311,0,0,1,.90427,4.72232m-33.86,11.5546c-4.72232,0-8.33942-1.30617-10.75081-3.91851-2.51187-2.61235-3.71757-6.32992-3.71757-11.15271a18.34642,18.34642,0,0,1,1.10523-6.43039,12.986,12.986,0,0,1,7.837-7.63609,16.33216,16.33216,0,0,1,5.928-1.00475,16.93743,16.93743,0,0,1,3.31568.30143c1.00475.20094,1.909.40189,2.61235.60285a19.77342,19.77342,0,0,1,1.909.70332,3.59748,3.59748,0,0,1,1.10523.60286l-1.909,5.22469a12.58111,12.58111,0,0,0-3.11473-1.2057,16.27569,16.27569,0,0,0-4.019-.50237,9.33465,9.33465,0,0,0-2.91377.50237,6.01074,6.01074,0,0,0-2.51187,1.60761,9.6974,9.6974,0,0,0-1.80855,2.81329,13.23479,13.23479,0,0,0-.70332,4.21994,14.55117,14.55117,0,0,0,.40189,3.71757,9.27175,9.27175,0,0,0,1.40665,3.01425,7.56523,7.56523,0,0,0,2.61235,2.00949,8.93886,8.93886,0,0,0,3.818.70332,18.18224,18.18224,0,0,0,2.51187-.20094,10.13245,10.13245,0,0,0,2.00949-.4019,13.13846,13.13846,0,0,0,1.50713-.50237,6.14626,6.14626,0,0,1,1.20569-.50237l1.80855,5.22469a12.25125,12.25125,0,0,1-3.91851,1.50712,19.41212,19.41212,0,0,1-5.72706.70332M121.58124,198.938a4.03148,4.03148,0,0,0-.30142-1.50713,5.41321,5.41321,0,0,0-.70332-1.30617,4.02079,4.02079,0,0,0-1.2057-1.00475,4.799,4.799,0,0,0-1.80855-.40189,3.441,3.441,0,0,0-1.80855.40189,2.74288,2.74288,0,0,0-1.20569.90427,4.70046,4.70046,0,0,0-.80381,1.40664,7.52651,7.52651,0,0,0-.4019,1.6076h8.23894Zm-14.66932,2.41139a13.70273,13.70273,0,0,1,.90427-5.12423,9.52337,9.52337,0,0,1,2.4114-3.6171,10.09222,10.09222,0,0,1,3.31567-2.21044,10.77425,10.77425,0,0,1,3.91853-.70332,9.77053,9.77053,0,0,1,7.43514,2.8133q2.71281,2.86355,2.71281,8.43988v1.20569c0,.4019-.10047.80381-.10047,1.10523H113.34232a3.73485,3.73485,0,0,0,1.80855,3.01425,7.73453,7.73453,0,0,0,4.21994,1.10523,17.69261,17.69261,0,0,0,3.31567-.30143,12.60217,12.60217,0,0,0,2.71282-.8038l.8038,5.02374a8.97266,8.97266,0,0,1-1.30617.50238,10.672,10.672,0,0,1-1.909.40189c-.70332.10048-1.40665.20095-2.21044.30143a18.57284,18.57284,0,0,1-2.31093.10048,12.99,12.99,0,0,1-5.12421-.90427,9.52338,9.52338,0,0,1-3.6171-2.41139,8.21722,8.21722,0,0,1-2.11-3.6171,11.46893,11.46893,0,0,1-.70332-4.32042m-4.11946-.201a14.1,14.1,0,0,1-.80381,4.72232,10.93888,10.93888,0,0,1-2.21044,3.6171,9.71841,9.71841,0,0,1-3.61709,2.31092,14.26148,14.26148,0,0,1-4.8228.8038,21.02861,21.02861,0,0,1-2.4114-.10048l-2.41139-.30143a18.54471,18.54471,0,0,1-2.31093-.40189c-.70332-.201-1.40665-.30143-1.909-.50237V180.55114l6.22944-1.00475v10.95175a14.22839,14.22839,0,0,1,2.21044-.70332,9.38967,9.38967,0,0,1,2.4114-.20095,10.37942,10.37942,0,0,1,4.11946.80381,7.59647,7.59647,0,0,1,3.01425,2.31092,10.20017,10.20017,0,0,1,1.80855,3.6171,15.14284,15.14284,0,0,1,.70332,4.8228m-6.32992-.10048c0-4.019-1.50712-6.0285-4.42089-6.0285a12.31385,12.31385,0,0,0-1.909.201,11.69065,11.69065,0,0,0-1.50712.60286V207.177a4.14051,4.14051,0,0,0,1.2057.10048c.50237,0,1.00474.10048,1.50712.10048a4.47317,4.47317,0,0,0,3.818-1.70807,7.41194,7.41194,0,0,0,1.30617-4.62185M76.16661,211.39694c-1.10522.30143-2.4114.60286-4.11947.90427a29.74934,29.74934,0,0,1-5.22469.40189,12.088,12.088,0,0,1-4.62184-.70332,7.064,7.064,0,0,1-2.91377-2.11,8.63375,8.63375,0,0,1-1.50712-3.2152,17.1263,17.1263,0,0,1-.50238-4.11947V190.29721h6.22944v11.45413a9.12024,9.12024,0,0,0,.8038,4.32042c.50238.90427,1.50712,1.30617,3.01425,1.30617a7.11614,7.11614,0,0,0,1.40665-.10048c.50237,0,.90427-.10048,1.30617-.10048V190.19673h6.22944v21.2002Zm-28.73581.80381c-.60284-.90427-1.30617-2.0095-2.11-3.11473a37.63872,37.63872,0,0,0-2.61234-3.31567c-.90428-1.10523-1.909-2.11-2.91377-3.2152a36.70566,36.70566,0,0,0-3.01425-2.71281v12.25792H30.24961V183.1635h6.53086v10.95176c1.70807-1.80855,3.41615-3.6171,5.12422-5.6266,1.70807-1.909,3.31567-3.71757,4.82279-5.32517H54.464c-2.00949,2.31092-3.91852,4.62185-5.928,6.73181-2.0095,2.21044-4.11947,4.32042-6.32992,6.53087a54.30183,54.30183,0,0,1,6.73182,6.83229,88.9678,88.9678,0,0,1,6.22944,8.74131H47.4308Z"/><path class="cls-3" d="M99.67768,84.29622,96.06059,85.1c0-.50237-.10048-1.00474-.10048-1.50712a20.80616,20.80616,0,0,1,3.01425-10.85129l7.03324,6.22944a1.3866,1.3866,0,0,0,.4019.30143,11.45742,11.45742,0,0,0-.8038,3.31567c-.20095.10048-.50238.10048-.70332.201Zm13.66458-21.30067v9.84654a8.71062,8.71062,0,0,0-2.71282,1.40665c-.30143-.20095-.60285-.50238-.90428-.70332l-7.13371-5.02375a20.17284,20.17284,0,0,1,10.75081-5.52611M64.51148,85.70287c3.41615-14.97075,6.32992-27.63058,9.74606-42.60134,1.50712-6.83228,2.51187-8.54036,8.54036-12.057,8.43989-4.82279,14.7698-8.43988,23.81254-13.66458,5.62659-3.21519,6.73182-3.01424,6.73182,3.91852v34.7643A27.43374,27.43374,0,0,0,96.86438,64.4022l-3.01425-2.11a1.45223,1.45223,0,0,1-.70332-1.00475,4.89382,4.89382,0,0,0-1.60759-2.4114,3.28739,3.28739,0,0,0-4.11947,5.12422,3.48128,3.48128,0,0,0,1.6076.8038c.4019.10047.8038.10047,1.20569.20095a2.48247,2.48247,0,0,1,.90428.4019l2.8133,2.51187A27.50848,27.50848,0,0,0,89.2283,83.392c0,1.00475.10047,2.00949.20095,3.01424l-6.129,1.30618a6.18026,6.18026,0,0,0-1.30617.10047l-.90428.30143c-4.019.8038-8.038,1.70807-12.15745,2.61234-5.52612,1.40665-5.62659.30143-4.4209-5.02374M120.476,72.84209V62.99555a21.12769,21.12769,0,0,1,10.7508,5.42564l-7.73656,5.52612c-.10047.10047-.20094.20095-.30143.20095a17.0182,17.0182,0,0,0-2.71281-1.30618m17.28167,11.65508-9.64559-2.21044a9.51358,9.51358,0,0,0-.80381-3.01425c.10048-.10047.201-.20094.30143-.20094l7.13372-6.32992a20.9933,20.9933,0,0,1,3.11473,10.95176,1.9585,1.9585,0,0,0-.10048.8038M125.19829,31.346c5.22469,2.51187,8.94226,4.32042,14.167,6.83229,7.23419,3.51662,14.46837,7.03324,21.803,10.44938,1.80855,7.837,3.6171,15.67408,5.32517,23.51112,1.10523,4.72231,1.6076,7.23419,2.71282,11.856,1.70807,7.33467,1.50712,7.93752-6.02849,6.22944l-18.58785-4.21994a19.3566,19.3566,0,0,0,.10048-2.4114,26.9336,26.9336,0,0,0-4.82279-15.5736l2.61235-2.4114a2.23028,2.23028,0,0,1,1.10523-.50237,5.25876,5.25876,0,0,0,2.71282-1.00475,3.28739,3.28739,0,1,0-4.11948-5.12421,4.09074,4.09074,0,0,0-1.20569,1.40665c-.201.4019-.30143.70332-.50238,1.10522a1.56255,1.56255,0,0,1-.60285.80379l-3.01425,2.11a27.43378,27.43378,0,0,0-16.47788-8.33942V34.86259c.10048-5.02374.60285-5.62659,4.8228-3.51662m-6.32992,63.29916a11.12823,11.12823,0,0,1-1.909.20094,10.9199,10.9199,0,0,1-1.80855-.10047l-.30143.60285-4.4209,8.13846a20.8636,20.8636,0,0,0,6.63134,1.10522,21.973,21.973,0,0,0,6.73181-1.10522l-4.42089-8.038a4.47276,4.47276,0,0,1-.50237-.8038m7.73656-5.42564,9.64558,2.21044a20.84126,20.84126,0,0,1-7.837,9.54511l-3.818-9.24368a9.62445,9.62445,0,0,0,2.0095-2.51187M97.66816,91.42992l9.64558-2.21044a13.35374,13.35374,0,0,0,2.11,2.61234l-.30142.60285-3.51662,8.54036a19.87993,19.87993,0,0,1-7.93752-9.54511M176.5409,108.3097c-4.62185,5.72706-6.73181,8.43989-11.35366,14.167-5.22469,6.53086-9.44463,11.856-14.66934,18.38689-3.71756,4.72232-6.43038,4.8228-12.55935,4.8228H95.75911c-8.038,0-8.64083,0-13.5641-6.22944-4.92327-6.129-8.74131-10.95176-13.56411-17.08072-3.818-4.8228-4.82279-6.0285-8.64083-10.85129-5.928-7.43514-6.93277-10.148,2.31092-12.15746L90.83584,92.937a28.21478,28.21478,0,0,0,11.95651,14.46838l-1.30617,3.01425a1.773,1.773,0,0,1-.80381.90427,4.55667,4.55667,0,0,0-2.00949,2.11,3.30271,3.30271,0,1,0,5.924,2.9219l.004-.00813a5.36538,5.36538,0,0,0,.50238-1.80855,4.89194,4.89194,0,0,0-.10047-1.20569,1.81156,1.81156,0,0,1,.20094-1.00475l1.6076-2.91377a28.10654,28.10654,0,0,0,9.947,1.80855,26.64617,26.64617,0,0,0,10.04748-1.909l1.60761,2.91377a1.64429,1.64429,0,0,1,.20094,1.20569,4.52055,4.52055,0,0,0,.4019,2.8133,3.3027,3.3027,0,1,0,5.9338-2.902l-.00579-.0118a4.19671,4.19671,0,0,0-1.10523-1.50712,6.09852,6.09852,0,0,0-1.00475-.70332,1.24793,1.24793,0,0,1-.60286-.80381l-1.30617-3.21519a27.55768,27.55768,0,0,0,11.856-14.46838l31.44863,7.13371c6.32992,1.80856,5.928,4.019,2.31093,8.54037"/><path class="cls-3" d="M120.476,72.84209V62.99555a21.12772,21.12772,0,0,1,10.75081,5.42564l-7.73656,5.52612c-.10047.10047-.20094.20095-.30143.20095a17.0182,17.0182,0,0,0-2.71281-1.30618m17.28167,11.65508-9.64559-2.21044a9.51358,9.51358,0,0,0-.80381-3.01425c.10048-.10047.201-.20094.30143-.20094l7.13372-6.32992a20.9933,20.9933,0,0,1,3.11473,10.95176,1.9585,1.9585,0,0,0-.10048.8038M125.19829,31.346c5.22469,2.51187,8.94226,4.32042,14.167,6.83229,7.23419,3.51662,14.46837,7.03324,21.803,10.44938,1.80855,7.837,3.6171,15.67408,5.32517,23.51112,1.10523,4.72231,1.6076,7.23419,2.71282,11.856,1.70807,7.33467,1.50712,7.93752-6.02849,6.22944l-18.58785-4.21994a19.3566,19.3566,0,0,0,.10048-2.4114,26.9336,26.9336,0,0,0-4.82279-15.5736l2.61235-2.4114a2.23028,2.23028,0,0,1,1.10523-.50237,5.25876,5.25876,0,0,0,2.71282-1.00475,3.28739,3.28739,0,1,0-4.11948-5.12421,4.09074,4.09074,0,0,0-1.20569,1.40665c-.201.4019-.30143.70332-.50238,1.10522a1.56255,1.56255,0,0,1-.60285.80379l-3.01425,2.11a27.43378,27.43378,0,0,0-16.47788-8.33942V34.86259c.10048-5.02374.60285-5.62659,4.8228-3.51662M126.605,89.21948l9.64559,2.21045a20.84114,20.84114,0,0,1-7.837,9.54511l-3.818-9.24369a9.62412,9.62412,0,0,0,2.0095-2.51187m-9.64559,15.1717V94.7456a12.31006,12.31006,0,0,0,1.909-.20095,2.51836,2.51836,0,0,0,.4019.70332l4.42089,8.038a19.70243,19.70243,0,0,1-6.73181,1.10522M176.541,108.3097c-4.62185,5.72707-6.73181,8.43989-11.35366,14.167-5.22469,6.53086-9.44463,11.856-14.66933,18.3869-3.71757,4.72231-6.43039,4.82279-12.55936,4.82279H116.95936V111.324a26.646,26.646,0,0,0,10.04749-1.909l1.6076,2.91378a1.64434,1.64434,0,0,1,.20094,1.20569,4.52055,4.52055,0,0,0,.4019,2.8133,3.30271,3.30271,0,0,0,5.928-2.91377,4.19662,4.19662,0,0,0-1.10523-1.50712,6.09858,6.09858,0,0,0-1.00475-.70333,1.24789,1.24789,0,0,1-.60286-.8038l-1.30617-3.21519a27.5575,27.5575,0,0,0,11.856-14.46838L174.431,99.86982c6.129,1.70807,5.72707,3.91852,2.11,8.43989"/><path d="M409.64258,107.104H392.96375v38.98424H431.948V129.40942H409.64255Zm83.4946.20095v22.10446H471.03272l-.10049-.10047v16.7793h38.98423V107.104H493.0367ZM392.96378,68.22024h16.77931l-.10048-.201V45.91483h22.20495l.10048.10047V29.236H392.96381ZM470.93227,29.236V45.91483h22.20494V68.22024h16.77932V29.236Z"/><path class="cls-4" d="M468.82226,68.22025,446.51683,45.91483H470.9322V29.236H431.948V46.0153l22.10446,22.20495Zm-20.095,38.88377H433.95747l18.48737,18.48737,3.818,3.818H431.94794v16.67882h38.98423V129.309l-11.15271-11.05223Zm44.40989-38.88377V92.53516l-3.818-3.818L470.93227,70.22974v14.7698L481.9845,96.05178,493.03673,107.104h16.87976V68.22025ZM431.948,90.32472,409.74306,68.22025H392.96375V107.104h16.67883V82.7891L431.948,105.09452Z"/><path d="M311.47867,188.58911l-4.22,5.02374a9.87745,9.87745,0,0,0-7.2342-3.71756,8.069,8.069,0,0,0-8.04249,8.09532q.00041.12207.0045.24409c0,4.8228,3.41614,8.43988,8.038,8.43988a10.625,10.625,0,0,0,7.2342-3.41614l4.32041,4.52137a17.59159,17.59159,0,0,1-11.856,5.22469c-8.64084,0-15.07123-6.32992-15.07123-14.7698,0-8.33941,6.63135-14.56885,15.37264-14.56885a17.50173,17.50173,0,0,1,11.45413,4.92326Zm3.51662,24.21444V182.35967H322.129v30.44388ZM350.262,201.65084c0,6.83229-4.82278,11.35366-12.057,11.35366s-12.15747-4.52137-12.15747-11.35366,4.82278-11.25318,12.15747-11.25318c7.23417,0,12.05695,4.52137,12.05695,11.25318Zm-16.98025.10048c0,3.41614,2.0095,5.72706,4.92327,5.72706s4.92326-2.31092,4.92326-5.72706-2.0095-5.72706-4.92326-5.72706-4.9233,2.31091-4.9233,5.72706Zm42.4004,11.05223H368.5484V209.086a7.83345,7.83345,0,0,1-7.2342,3.91851c-4.82278,0-7.93751-3.31567-7.93751-8.43988v-13.966h7.13372v11.9565c0,2.61236,1.40665,4.21994,3.71759,4.21994,2.71283,0,4.3204-2.21044,4.3204-5.22469V190.59862h7.13372Zm27.932,0H396.4804v-2.91376a8.19055,8.19055,0,0,1-6.63135,3.21519c-6.22945,0-10.3489-4.62185-10.3489-11.45412,0-6.73182,4.019-11.25318,10.148-11.25318a8.1661,8.1661,0,0,1,6.83228,3.21519V182.35969h7.13372v30.44386Zm-7.03324-11.05223c0-3.41614-2.0095-5.72706-4.92326-5.72706s-4.92326,2.31092-4.92326,5.72706,2.00949,5.82755,4.92326,5.82755,4.92323-2.41141,4.92323-5.82755Z"/><path d="M429.63707,212.80355,416.37437,195.12v17.68358H409.5421V184.06774h6.43038l13.26269,17.78405V184.06774h6.83228v28.73581Zm31.75-14.46837v14.46837h-6.93275v-2.51187c-1.40665,1.909-3.818,2.91377-6.73183,2.91377-4.72233,0-7.6361-2.91377-7.6361-6.93276,0-4.21994,3.01425-6.63135,8.54037-6.73181h5.82753v-.30143c0-2.21044-1.40665-3.51662-4.32041-3.51662a16.91675,16.91675,0,0,0-6.63135,1.80855l-2.00949-4.72231a23.03009,23.03009,0,0,1,10.24844-2.51188c6.129,0,9.64559,3.01423,9.64559,8.038Zm-6.93275,6.93276v-2.0095H449.933c-2.11,0-3.21521.70332-3.21521,2.41139,0,1.60761,1.10523,2.61236,3.11473,2.61236C452.14346,208.28219,453.952,207.07649,454.45437,205.26794Zm26.12346,6.32992a12.64366,12.64366,0,0,1-5.928,1.50712c-4.32041,0-7.33466-2.41139-7.33466-7.03324v-9.746h-3.11472v-4.62185h3.11472v-6.129h7.03324v6.129h5.82753v4.72231H474.3484V205.067c0,1.70807.70334,2.51188,2.0095,2.41139a8.32183,8.32183,0,0,0,2.71283-.70332l1.50713,4.8228ZM491.4291,184.2687a3.6718,3.6718,0,0,1-3.52233,3.81544q-.09754.00392-.19525.00261a3.76814,3.76814,0,0,1,0-7.53561,3.53348,3.53348,0,0,1,3.71758,3.71755Zm-7.2342,28.53485V190.69909h7.03324v22.10446Zm17.985,0-8.3394-22.10446h7.33465l4.72233,15.67408,4.82278-15.67408h7.03324l-8.3394,22.10446Zm39.08474-9.14321H525.691a5.16922,5.16922,0,0,0,5.2247,4.11947,7.89419,7.89419,0,0,0,5.32516-2.21044l3.71758,3.6171a12.54573,12.54573,0,0,1-9.64556,3.91851c-7.2342,0-11.75557-4.52137-11.75557-11.25318,0-6.83229,4.72233-11.35366,11.55461-11.35366,7.73657-.10048,11.65505,5.02374,11.15268,13.16221Zm-6.83228-3.818a4.16922,4.16922,0,0,0-4.3204-4.52137c-2.51188,0-4.11945,1.80855-4.62182,4.52137h8.94222Z"/><path d="M570.20137,188.58911l-4.22,5.02374a9.87738,9.87738,0,0,0-7.2342-3.71756,8.06895,8.06895,0,0,0-8.04247,8.09532q.00038.12207.00448.24409c0,4.8228,3.41617,8.43988,8.038,8.43988a10.62487,10.62487,0,0,0,7.2342-3.41614l4.3204,4.52137a17.59137,17.59137,0,0,1-11.856,5.22469c-8.64081,0-15.07122-6.32992-15.07122-14.7698,0-8.33941,6.63131-14.56885,15.37264-14.56885A17.2922,17.2922,0,0,1,570.20137,188.58911Zm24.91775,13.06173c0,6.83229-4.82278,11.35366-12.057,11.35366s-12.15743-4.52137-12.15743-11.35366,4.82278-11.25318,12.15743-11.25318C590.19583,190.39766,595.11912,194.919,595.11912,201.65084Zm-17.08072.10048c0,3.41614,2.0095,5.72706,4.92329,5.72706s4.92329-2.31092,4.92329-5.72706-2.00949-5.72706-4.92329-5.72706S578.0384,198.33517,578.0384,201.75132Zm43.5056-2.91376v13.966h-7.03324v-11.9565c0-2.61235-1.50713-4.21994-3.91855-4.21994-2.61232,0-4.22,1.80855-4.52137,4.52137V212.904h-7.13369V190.79957h7.13369v3.6171a8.15529,8.15529,0,0,1,7.43517-3.91851c4.82278-.201,8.038,3.11472,8.038,8.33941Z"/><path id="SVGID-3-2" data-name="SVGID-3" d="M246.67238,16.17427h1.00475V220.6406h-1.00475Z"/><rect x="246.67239" y="16.17426" width="1.00475" height="204.46632"/><rect id="SVGID-7" data-name="SVGID" x="246.67239" y="16.17426" width="1.00475" height="204.46632"/><g class="cls-5"><path d="M246.67238,16.17427h1.00475V220.6406h-1.00475Z"/></g><path d="M242.85433,269.57183H229.99355V247.26642h12.86078v3.91851h-8.13847v4.92326h7.53561v3.91853h-7.53561v5.72708h8.13847Zm16.37739,0-.60286-2.21046h-.201a4.64818,4.64818,0,0,1-2.11,1.80853,7.48983,7.48983,0,0,1-3.11472.60286,5.78753,5.78753,0,0,1-4.52137-1.6076,6.56492,6.56492,0,0,1-1.50712-4.62185V252.39059h4.62184v9.947a4.67634,4.67634,0,0,0,.70333,2.81328,2.34672,2.34672,0,0,0,2.11.90427,3.07236,3.07236,0,0,0,2.8133-1.30616,7.90464,7.90464,0,0,0,.90427-4.32041v-8.038h4.62185v17.08073h-3.71758Zm17.985-17.38215a8.12006,8.12006,0,0,1,1.6076.10048l-.30141,4.32042a5.23667,5.23667,0,0,0-1.40664-.201,5.45013,5.45013,0,0,0-3.51662,1.10523,4.24263,4.24263,0,0,0-1.20571,3.21519v8.64085H267.6716V252.29017h3.51662l.70333,2.91377h.201a5.8552,5.8552,0,0,1,2.11-2.31093,5.1647,5.1647,0,0,1,3.01425-.70332Zm20.19545,8.84179a9.03348,9.03348,0,0,1-2.21046,6.53086,7.88577,7.88577,0,0,1-6.129,2.31091,8.62381,8.62381,0,0,1-4.32041-1.10523,7.30858,7.30858,0,0,1-2.91376-3.11473,9.9255,9.9255,0,0,1-1.00475-4.72233,9.03349,9.03349,0,0,1,2.21046-6.53086,8.10222,8.10222,0,0,1,6.129-2.31093,8.62371,8.62371,0,0,1,4.32041,1.10523,7.30858,7.30858,0,0,1,2.91376,3.11473,11.64716,11.64716,0,0,1,1.00475,4.72232Zm-11.856,0a7.44981,7.44981,0,0,0,.80379,3.818,3.47027,3.47027,0,0,0,5.42563,0,6.754,6.754,0,0,0,.80379-3.818,7.716,7.716,0,0,0-.80379-3.81805,3.47024,3.47024,0,0,0-5.42563,0A7.716,7.716,0,0,0,285.55614,261.03147Zm25.01823,8.94225a5.508,5.508,0,0,1-4.72233-2.21046h-.201a16.80746,16.80746,0,0,1,.201,2.51187v6.93276h-4.62185V252.59155h3.818l.70334,2.21045h.201a5.35056,5.35056,0,0,1,4.82278-2.51187,5.58754,5.58754,0,0,1,4.72233,2.31092,11.208,11.208,0,0,1,1.70809,6.53087,13.25341,13.25341,0,0,1-.80379,4.72233A6.70934,6.70934,0,0,1,314.091,268.969a6.8508,6.8508,0,0,1-3.51662,1.00475Zm-1.30616-13.966a2.98424,2.98424,0,0,0-2.51187,1.10523,6.25068,6.25068,0,0,0-.80379,3.51662v.50238a7.6116,7.6116,0,0,0,.80379,3.91851,2.87089,2.87089,0,0,0,2.61235,1.20571c2.11,0,3.11473-1.70808,3.11473-5.12422a7.716,7.716,0,0,0-.80379-3.81805,2.61759,2.61759,0,0,0-2.41139-1.30618Zm19.49211,13.966a8.82833,8.82833,0,0,1-6.43038-2.31091,8.668,8.668,0,0,1-2.31091-6.43038,9.72828,9.72828,0,0,1,2.11-6.63135,7.44324,7.44324,0,0,1,5.928-2.31092,7.34951,7.34951,0,0,1,5.6266,2.11,8.10921,8.10921,0,0,1,2.00949,5.72706v2.21046H324.64088a4.58843,4.58843,0,0,0,1.20571,3.11472,4.35193,4.35193,0,0,0,3.11473,1.10523,13.63992,13.63992,0,0,0,2.91376-.30141,20.13818,20.13818,0,0,0,2.91377-1.00475v3.6171a11.47717,11.47717,0,0,1-2.61236.90427,32.9614,32.9614,0,0,1-3.41613.201Zm-.70333-14.46837a2.88281,2.88281,0,0,0-2.31091.90427,4.18758,4.18758,0,0,0-1.00475,2.71281h6.53087a4.02123,4.02123,0,0,0-.90427-2.71281,3.25406,3.25406,0,0,0-2.31091-.90427Z"/><path d="M361.12529,269.4134H345.63218v-3.25955l5.5634-5.62424q2.47114-2.53149,3.22913-3.50877a7.70031,7.70031,0,0,0,1.09109-1.81227,4.60019,4.60019,0,0,0,.33358-1.7279,2.5207,2.5207,0,0,0-.73492-1.98594,2.85213,2.85213,0,0,0-1.96338-.65152,5.65468,5.65468,0,0,0-2.50108.59068,12.94478,12.94478,0,0,0-2.53149,1.68276l-2.5472-3.01625a16.5883,16.5883,0,0,1,2.714-1.97123,10.008,10.008,0,0,1,2.349-.887,12.05786,12.05786,0,0,1,2.85039-.31006,8.44082,8.44082,0,0,1,3.6687.75749,5.85227,5.85227,0,0,1,2.47069,2.12233,5.64139,5.64139,0,0,1,.87916,3.12315,7.65979,7.65979,0,0,1-.5377,2.873,11.03432,11.03432,0,0,1-1.668,2.75128,40.67665,40.67665,0,0,1-3.97879,4.017l-2.85039,2.68358v.21194h9.657Z"/><path d="M378.7251,258.33171q0,5.80628-1.90255,8.59533a6.602,6.602,0,0,1-5.85874,2.78955,6.52432,6.52432,0,0,1-5.78319-2.87983q-1.94867-2.8803-1.94867-8.505,0-5.8666,1.89568-8.6483a7.36851,7.36851,0,0,1,11.63409.12854Q378.7251,252.72322,378.7251,258.33171Zm-10.83931,0a17.23783,17.23783,0,0,0,.70548,5.844,2.44134,2.44134,0,0,0,2.37254,1.76616,2.4663,2.4663,0,0,0,2.36469-1.78873,23.664,23.664,0,0,0-.00785-11.6802,2.45481,2.45481,0,0,0-4.72153,0A17.18074,17.18074,0,0,0,367.88579,258.33171Z"/><path d="M396.56821,269.4134H381.07507v-3.25955l5.5634-5.62424q2.47116-2.53149,3.22913-3.50877a7.70035,7.70035,0,0,0,1.0911-1.81227,4.6,4.6,0,0,0,.33357-1.7279,2.52063,2.52063,0,0,0-.73492-1.98594,2.85211,2.85211,0,0,0-1.96338-.65152,5.65464,5.65464,0,0,0-2.50107.59068,12.94485,12.94485,0,0,0-2.5315,1.68276l-2.54719-3.01625a16.58822,16.58822,0,0,1,2.714-1.97123,10.00812,10.00812,0,0,1,2.349-.887,12.05783,12.05783,0,0,1,2.85038-.31006,8.44086,8.44086,0,0,1,3.66871.75749,5.85239,5.85239,0,0,1,2.47069,2.12233,5.64138,5.64138,0,0,1,.87915,3.12315,7.65978,7.65978,0,0,1-.53769,2.873,11.03461,11.03461,0,0,1-1.668,2.75128,40.67565,40.67565,0,0,1-3.9788,4.017l-2.85038,2.68358v.21194h9.657Z"/><path d="M414.168,258.33171q0,5.80628-1.90254,8.59533a6.60205,6.60205,0,0,1-5.85875,2.78955,6.52434,6.52434,0,0,1-5.78319-2.87983q-1.94867-2.8803-1.94866-8.505,0-5.8666,1.89568-8.6483a7.36848,7.36848,0,0,1,11.63408.12854Q414.168,252.72322,414.168,258.33171Zm-10.83931,0a17.23783,17.23783,0,0,0,.70548,5.844,2.44135,2.44135,0,0,0,2.37254,1.76616,2.4663,2.4663,0,0,0,2.36469-1.78873,23.66392,23.66392,0,0,0-.00785-11.6802,2.45481,2.45481,0,0,0-4.72153,0,17.181,17.181,0,0,0-.7133,5.85876Z"/><path d="M282.16121,463.17564c-4.53,1.3595-9.35029.02978-13.95113,1.89888-2.85416,1.15946-6.31805.78189-9.49614,1.18858-6.09089.7794-12.151,1.59228-18.01309,3.67943-2.2997.81882-5.084.18475-7.20491,1.94737l-1.88047.12978c-3.67634.75791-7.36856,1.44732-11.02331,2.29787a19.76849,19.76849,0,0,1-7.25457.368c-4.21522-.59786-8.16881-2.84625-8.77-7.73814a20.52726,20.52726,0,0,1,.92539-4.33283c.92556-2.076,2.38344-3.68632,5.07519-2.97359a36.56651,36.56651,0,0,0,23.50642-1.43625c1.80926-.72,3.95347-.59995,5.944-.86312,8.33773-1.1024,16.592-2.73922,24.89547-3.98682,2.98638-.44871,5.85779-2.10342,9.02288-1.37679a1.31387,1.31387,0,0,0,1.72674-.01193l.24195.01887,1.58261-.57551c3.97845-.30355,7.93387-1.16882,11.95257-.48955-.167.26492-.31542.74741-.50378.76353-8.74926.74838-17.47963,2.08862-26.09562,3.4186-7.22861,1.11581-15.02355,1.07523-21.41666,4.80712,4.03595.95976,8.07257-1.7254,12.46869-1.23868a19.33459,19.33459,0,0,0,8.70379-1.47759,6.81022,6.81022,0,0,1,2.48134-.4891,55.1161,55.1161,0,0,0,12.61458-.57894c3.05946-.59368,6.44289.17363,9.373-.70057,3.70781-1.10621,7.59323-.30823,11.12731-1.5878,3.57929-1.29591,7.27308-1.05179,10.91065-1.40337,4.88574-.4722,10.01574.22662,14.6683-.99538,7.65717-2.01109,15.35405.09616,23.02262-1.38381,4.92114-.94975,10.2354.16276,15.37465.31024,7.1033.2039,14.21823.19028,21.30838.60651a96.2784,96.2784,0,0,1,17.9197,3.14042c-.05812-.83636-.11668-1.41333-.78009-1.67078-4.05884-1.57509-8.43661-1.77881-12.61853-3.01374-5.57523-1.64642-11.54123-1.50821-17.40359-1.65567-5.66622-.14253-11.31133-.98674-16.9783-1.28008-4.59529-.23787-9.14261.844-13.80513.64777-1.84389-.07764-4.03927.74339-6.1642.8033-3.36821.095-6.81551-.50569-10.029-.2353-4.55235.383-8.9954,1.942-13.72037,1.97185-5.75856.03631-11.43353,1.56084-17.22831,1.38793-1.037-.03095-2.14382,1.47012-3.11618-.11177.48419-1.14959,1.36759-1.22254,2.54138-1.37041,5.69211-.717,11.42553-1.40871,17.10432-1.83094,5.8006-.43123,11.632-.85556,17.445-1.2819a276.60542,276.60542,0,0,1,29.29842-.86974c6.82453.22164,13.70839.12955,20.53655.50185,8.71.47491,17.1683,2.68455,25.66128,4.61446,3.66459.83273,7.18852,2.24881,9.0796,5.14909,3.07648,4.71842,7.41943,9.16367,6.038,15.80307-.42786,2.0562-2.29728,2.83421-2.92517,4.58207a2.14469,2.14469,0,0,1-1.75491-.01668c-1.01585-.73374-.64468-1.79135-.30712-2.82318,1.27085-3.8844.61005-6.80537-2.41158-8.30094-1.97166-.97588-3.87387-2.48463-5.91576-2.86086-4.14612-.76392-8.06972-2.47771-12.40272-2.51828-5.41135-.05062-10.50442-2.4103-15.93677-2.59178-10.82269-.36157-21.69344-1.31411-32.453.07274-8.97573,1.15692-18.06044-.09368-26.90617,1.512-8.0173,1.45529-16.17884,1.43253-24.19325,3.1126C288.926,462.4931,285.43647,462.45173,282.16121,463.17564Zm56.79894-9.68512c-2.22314-.43621-4.45428-1.02122-6.70272.29594C334.6546,455.23711,336.81165,454.44367,338.96015,453.49052Zm-36.6956,2.90592c-2.96295-1.75135-4.49285-.02-7.10731,1.10822Zm75.01827-2.36813c-1.31359-.82151-2.59064-1.99383-4.32632-.77715C374.57506,452.824,375.67641,454.40635,377.28282,454.02831Z"/><g id="_45W0Vf" data-name="45W0Vf"><path d="M88.27917,411.96988c1.93854-1.668,2.404-4.03135,2.99068-6.33721a23.21438,23.21438,0,0,1,.70615-2.68729c.27707-.7146.32436-2.09176,1.35407-1.76016,1.0571.3404.15973,1.46341.10969,2.24359-.02749.42852-.54674.80143-.07675,1.38271,1.26419-1.56841.74155-3.84563,2.20527-5.271.37145-.3617.55643-1.08564,1.19613-.86563.814.28.561,1.04475.35087,1.588a18.9245,18.9245,0,0,0-1.55986,6.67594,147.53638,147.53638,0,0,0,5.09738-17.261c-.63507.33169-.83464,1.48866-1.73146.93639-.63685-.39218-.49809-1.08-.333-1.68468.488-1.78676.96751-3.57712,1.52064-5.34407.20263-.6473.58429-1.49974,1.442-1.04545.68229.36136.29139,1.07861-.04919,1.62484-.37043.59406-.78177,1.18951-.1286,2.025,6.72691-17.2907,14.745-33.93165,21.74174-51.04559a52.60655,52.60655,0,0,0-7.56868,10.44319,2.66792,2.66792,0,0,0-.32487,2.22483c.23256.62.27071,1.3241-.38633,1.64671-1.3131.64474-1.84337,1.52933-1.357,2.9745.07449.22135-.14184.77745-.27892.79731-1.82164.26387-2.26089,2.14167-3.53489,3.174-.54773-1.13261.05138-1.93157.326-2.766,4.92242-14.954,12.51764-28.779,18.32919-43.35887,1.40412-3.5226,5.97929-7.36027,11.11375-5.40575,5.00373,1.90476,7.38473,5.84438,3.6058,11.71832a153.19453,153.19453,0,0,0-8.28727,13.66773q-8.4051,16.6557-16.23029,33.59484a140.22816,140.22816,0,0,0-6.0292,14.23664c-1.69568,5.05738-3.76477,10.02044-5.17447,15.23145-1.79161,6.62277-3.29975,13.33609-5.31014,19.9069-.36263,1.18524-1.351,2.95478-.21385,3.65335,1.2062.741,2.129-1.08047,3.08941-1.88235,10.26968-8.57472,20.427-17.26454,29.76381-26.88471a338.18944,338.18944,0,0,0,32.1319-38.06853c6.47508-9.00943,13.38778-17.79431,17.69255-28.18788.35473-.85649.80875-1.67352,1.13673-2.53916,1.9036-5.02447,1.687-9.82844-1.54478-14.30569-.80317-1.11271-2.03036-2.26622-.93827-3.69932.95561-1.254,2.29832-2.11382,4.04776-1.2664a.95435.95435,0,0,0,.671.12007c2.41874-1.07874,4.50224-.48794,6.40528,1.19493a13.85475,13.85475,0,0,1,4.8948,8.19315,15.379,15.379,0,0,1-.15828,5.5301c-1.55085,7.83455-5.60492,14.57952-9.69409,21.19136A260.062,260.062,0,0,1,170.608,362.1459c-4.91226,6.11718-9.65248,12.40139-14.76463,18.34761-12.41405,14.43942-25.85811,27.83384-41.07625,39.38778a23.64061,23.64061,0,0,1-14.76951,5.1198,9.01815,9.01815,0,0,1-5.44718-2.022,13.99949,13.99949,0,0,1-4.85073-8.17462,8.97473,8.97473,0,0,0-1.42049-2.37053Zm99.86308-81.92981c-13.17059,18.85963-26.92545,37.26619-42.18225,54.508A289.586,289.586,0,0,0,188.14225,330.04007Z"/><path d="M386.66725,398.91356c3.823-.45628,7.04609-1.91665,9.03751-4.6601,3.59468-4.95216,8.15285-9.26273,10.45906-15.13036a10.6036,10.6036,0,0,1,2.22536-3.22282c3.42308-3.6295,6.84206-7.27094,10.429-10.73556a60.56943,60.56943,0,0,1,12.5101-9.14657c3.4471-1.9352,9.92189-.87415,11.927,3.85918.245.57844.42187,1.19209,1.12785,1.35439,2.43327.55944,3.72621,2.79088,5.8156,3.95347,2.6306,1.46374,3.42682,6.48546,2.15024,9.24709-2.69109,5.82151-5.31711,11.673-7.98294,17.50625-1.9906,4.35572-4.00573,8.70036-5.57914,13.2317-.27426.78984-.85473,1.62287-.24172,2.41106.68228.87734,1.702.56887,2.58472.33319a33.902,33.902,0,0,0,8.18493-3.77947c2.27271-1.32047,4.47221-2.77781,6.80392-3.9813,1.151-.59412,2.47551-1.867,3.84495-.20294.2326.28265.5607.17162.84666.02983,1.12171-.55624,1.97262-1.64053,3.40142.06616.61691.73689,2.15608-.54011,2.14311-2.10969-.023-2.77777-.49579-5.6191.30048-8.315,2.86666-9.70524,5.657-19.4593,10.58243-28.38782,1.68493-3.0543,2.81809-6.39742,4.68884-9.31177a179.61986,179.61986,0,0,1,11.83268-17.05874c2.23748-2.73362,4.56757-5.45726,6.59207-8.404,1.0975-1.59745,3.29943-2.27123,4.22194-4.19147-.32289-.42957-1.25621.36451-1.24653-.50225a1.98837,1.98837,0,0,1,1.60275-1.7891,7.0627,7.0627,0,0,0,4.88068-4.29771c.78815-2.4707,2.46575-4.0112,3.92862-5.84444a27.72651,27.72651,0,0,1,4.01833-3.839c3.58749-3.005,7.86363-3.64392,11.37559-1.689,3.06162,1.70426,5.24747,6.94584,4.54678,10.994a29.38976,29.38976,0,0,1-3.04268,8.22461c-8.39867,16.59761-19.94857,30.85726-32.64848,44.277-2.39,2.52555-4.57722,5.25581-7.32867,7.41551-1.84523,1.4484-3.75008,2.76954-6.33647,1.81267-1.15187-.42615-1.45933.58365-1.76984,1.35379a64.25854,64.25854,0,0,0-2.52,7.70534c-1.46978,5.58878-3.02367,11.13208-3.21844,16.98942-.11263,3.38742,1.72337,5.81234,5.146,6.03265,4.95519.319,9.45646-1.1861,13.82147-3.27648,6.68378-3.2008,12.482-7.69414,18.145-12.40035.92885-.7719,2.09808-2.68263,3.37633-1.12922,1.16875,1.42036-.4129,2.60052-1.56862,3.5634-3.15452,2.62821-6.568,4.89822-9.918,7.25708a4.48748,4.48748,0,0,0-2.34648,3.05652,10.506,10.506,0,0,0,5.0124-1.86109c3.75243-2.63363,7.7619-5.13741,10.166-9.30229.22572-.391.49675-.97339,1.01979-.69074.74342.40175.31532,1.08818.11393,1.63683-2.74539,7.478-7.95573,12.72088-14.92959,16.3211a43.09251,43.09251,0,0,0-5.7683,3.87575c-5.06307,3.74811-10.80095,4.35671-16.789,3.70114a7.63863,7.63863,0,0,1-6.32709-4.14973c-2.02969-3.93152-5.36161-6.97347-7.43055-10.87625-.83745-1.57973-1.44947-1.30175-2.66215-.13529-5.97359,5.74595-12.18494,11.04818-20.26894,13.92333-5.05709,1.79862-8.99562.29666-12.24252-2.91517a22.64521,22.64521,0,0,1-5.54218-8.94846,13.678,13.678,0,0,1,.55946-9.54386c-1.30937.231-1.72093,1.11363-2.25371,1.74067a186.306,186.306,0,0,1-16.633,17.41054c-7.90266,7.1794-14.837,2.516-17.94859-5.39528-1.5601-3.96654-1.23441-4.09463-.20222-6.70435-.31445-.281-.613-.07846-.79859.12347-3.60919,3.92761-8.38174,6.31048-12.56876,9.46889a31.9272,31.9272,0,0,1-7.58073,3.97233c-6.37051,2.5307-10.91989.96877-15.31059-4.28923-3.77172-4.51675-4.47907-9.60337-4.37451-15.08282.01258-.659.39084-1.52567-.40708-1.88357-.78806-.35346-1.20858.48666-1.69145.9334-7.4958,6.93479-15.31615,13.49234-23.25166,19.91106-3.95379,3.19808-8.04987,3.49149-10.95475.77987-1.81577-1.695-2.8682-4.02184-4.07909-6.1549-.84852-1.4947-1.15916-1.33125-2.4133-.36294-4.36977,3.37384-8.54813,7.14564-14.33628,8.06511a16.7,16.7,0,0,1-17.899-8.69731c-1.84545-3.3746-4.39907-6.40531-5.171-10.3103-1.08995-5.5139.242-10.82109,1.9547-15.928,3.10343-9.254,7.56911-17.92822,12.23476-26.4866a142.72046,142.72046,0,0,1,9.75458-16.30953c.4703-.64218,1.2683-1.39462.73155-2.27212-.51887-.84829-1.556-.55766-2.362-.49134-2.9234.24054-5.83567.61912-8.75982.84682a20.43639,20.43639,0,0,1-5.99649-.36819,8.26333,8.26333,0,0,1-6.46155-8.0194c.026-.88887.47038-1.75267,1.4186-1.00667,4.38913,3.45313,9.471,1.99682,14.29161,2.04386,3.31341.03233,6.63639-.36436,9.95466-.00349,1.96969.21422,3.27649-.5928,4.53548-2.12729,3.6373-4.43335,5.45768-9.83553,8.16609-14.75833a42.9151,42.9151,0,0,1,5.74779-8.67708c2.30251-2.49472,3.01264-5.8874,5.11319-8.50331,2.28259-2.84263,4.49581-2.6638,7.78953-1.104,2.66141,1.26034,3.01951,3.48538,4.08758,5.40663,1.39912,2.51673.77877,4.85436-1.13692,7.21518-3.64691,4.49427-6.898,9.30783-10.376,13.94181-1.70112,2.26649-2.95441,4.9212-5.53523,6.459-.8932.53224-.63234,1.16361.20288,1.519a3.81305,3.81305,0,0,0,1.56771.32087c5.49193-.18679,10.962.34864,16.44415.45707a8.11644,8.11644,0,0,0,1.8454-.1173c2.87584-.61608,4.57086.37674,5.38993,3.23429.12716.44375.16607.91207.26237,1.36551.75447,3.55289.26907,3.80423-3.23376,3.41558a112.11555,112.11555,0,0,0-14.238-1.04861c-4.29993.07142-8.60876-.08332-12.90525-.30282a2.67085,2.67085,0,0,0-2.68927,1.29866,94.66819,94.66819,0,0,1-7.43587,9.72162c-1.24716,1.40538-2.82538,3.10308-2.35142,5.44838.09612.47566-.07037.74887-.57649.74793-.40133-.00075-.99174.06077-.96526.43376.24389,3.43548-3.88282,4.31393-4.28541,7.38953-.065.49649-.46317.93179-.09237,1.46578a1.2193,1.2193,0,0,1-.25328,1.67646c-2.89307,2.84816-3.92073,6.85122-6.24587,10.0512a1.60173,1.60173,0,0,0-.4041,1.70136,5.9907,5.9907,0,0,1-1.5655,7.257,2.46052,2.46052,0,0,0-.94033,2.53162c.35082,3.513-1.07953,6.82961-1.45145,10.28389a59.14058,59.14058,0,0,0-.356,6.7043q.03327,5.44774,5.51516,4.63953a20.85927,20.85927,0,0,0,5.73635-1.79874,109.98631,109.98631,0,0,0,18.89016-11.26566c2.89614-2.1305,4.55676-5.07463,5.984-8.10385a23.13778,23.13778,0,0,1,2.9854-4.84988,18.05283,18.05283,0,0,0,2.70773-4.56938,77.868,77.868,0,0,1,10.11595-17.14249c2.611-3.53325,6.1173-4.08167,9.71645-1.60985,2.8414,1.95141,3.44062,6.41134,1.1689,10.01206a58.90307,58.90307,0,0,1-8.97285,11.49714c-5.50554,5.22849-8.74753,11.92565-12.468,18.32453-1.08649,1.8687-2.00494,3.83506-3.00112,5.75631-.2071.39939-.65194.8315-.33433,1.25256.39294.52092,1.00538.27536,1.48852.043a15.924,15.924,0,0,0,1.80833-1.03469,56.32464,56.32464,0,0,0,10.21922-8.35093c6.67726-7.07627,13.59451-13.91763,20.14812-21.12052a231.93619,231.93619,0,0,1,18.06585-18.17509c1.5484-1.3636,3.17711-2.54272,5.42008-1.68266.57841.22179,1.51241.57511,1.37454,1.07331-.62488,2.25792.97187,2.1063,2.32128,2.61337,1.70629.64117,2.12068,2.3591,2.2396,4.01832a12.65687,12.65687,0,0,1-2.74462,9.08122A201.87821,201.87821,0,0,0,365.24426,395.961a97.45939,97.45939,0,0,0-4.4406,9.17619c-.3121.67191-.768,1.49524-.15769,2.18384.66418.74941,1.62189.461,2.40015.204a37.29039,37.29039,0,0,0,7.78039-3.58344c5.07579-3.10479,10.38715-5.82768,15.20488-9.35307.54643-.39983,1.2141-1.04865,1.85308-.54181.78792.625-.14515,1.00018-.47529,1.44331a.60944.60944,0,0,0-.08929.40113C389.72273,397.17015,387.29542,397.6417,386.66725,398.91356Zm53.05206-32.32581a9.55759,9.55759,0,0,0-5.18163,1.99118c-6.3436,4.11559-11.54386,9.46278-16.73019,14.91082a123.78807,123.78807,0,0,0-15.90338,20.74868,27.45543,27.45543,0,0,0-1.99355,4.1735c-.28641.71585-1.07785,1.68013-.12773,2.29672.91565.59423,1.82073-.16911,2.43281-.83972,3.98381-4.36446,9.06829-7.59046,12.6161-12.43419a16.78192,16.78192,0,0,1,5.07766-4.03269c1.68032-1.02071,1.65879-4.57463,3.54565-5.44111,2.33672-1.073,2.58645-3.42941,4.19093-4.66509,2.20445-1.69773,3.00147-5.0437,6.31962-5.40118.08023-.00865.21818-.272.18986-.38-.44665-1.70384.30933-2.0439,1.82646-1.74294.34164.06778.67563-.5018.54923-.8722-.45685-1.33871.49225-1.98764,1.24318-2.73732a12.36462,12.36462,0,0,0,2.42927-3.90062C440.76552,366.99821,440.541,366.5232,439.71931,366.58775Zm47.01363,2.20235a5.9271,5.9271,0,0,0,2.308-1.9259c3.05329-3.38516,6.05918-6.8131,9.11247-10.19827,10.65584-11.814,20.061-24.50765,27.25125-38.75437.44532-.8824,1.59748-2.0698.55286-2.81581-.76544-.54666-1.63875.8327-2.36586,1.47336-6.36216,5.60532-11.01274,12.687-16.36284,19.15853a117.0832,117.0832,0,0,0-7.85318,11.24994c-4.01933,6.22437-7.7346,12.6353-11.719,18.87723A4.20587,4.20587,0,0,0,486.73294,368.7901ZM336.62451,402.67678c10.3997-6.97368,19.59125-15.18463,26.91556-25.37641-.92429-.00919-1.37913.63007-1.90964,1.13178-3.57924,3.385-6.99224,6.96693-10.76164,10.12379-3.5149,2.94373-6.02958,7.27518-10.98968,8.32777a.45907.45907,0,0,0-.28338.3356C339.6952,399.62628,337.73736,400.90994,336.62451,402.67678ZM274.41971,389.62c5.62135-17.98518,15.01987-34.07432,25.02565-49.85863A161.63342,161.63342,0,0,0,274.41971,389.62ZM485.004,355.59575c7.76745-13.27425,17.23716-25.30979,27.24155-37.08682-1.64469-.0854-3.01778.0209-3.46545,1.40866-.716,2.21962-2.26268,3.85122-3.66225,5.56242-4.16153,5.08825-8.00283,10.40754-11.63325,15.87679A121.01321,121.01321,0,0,0,485.004,355.59575Z"/><path d="M250.852,361.04454c2.43451-1.7084,4.87469-3.40881,7.302-5.12743,2.529-1.79066,5.06612-3.592,8.07945-4.46994,2.25716-.65759,4.5598-1.13227,6.39554,1.07023a2.70051,2.70051,0,0,0,1.01253.5195c2.72334,1.18126,3.61539,2.78718,2.74147,5.71183-1.71869,5.75178-4.54,10.837-9.58835,14.38354a44.84768,44.84768,0,0,1-5.0939,3.20638c-.76048.39366-2.01527,1.86155-2.70722-.29467-.05019-.15641-.84127-.07253-1.28756-.105-.563-.041-1.24927.7244-1.6563-.06179-.29806-.57571.18255-1.1802.48946-1.7139,1.88372-3.27561,4.58361-6.04925,5.93877-9.64944.20824-.55321.75186-.99889.53826-1.80211a80.30422,80.30422,0,0,0-12.62807,9.34378c-5.74184,5.1851-11.31742,10.53877-15.93546,16.79868a12.418,12.418,0,0,1-4.33782,4.10545,2.75823,2.75823,0,0,0-.973.95514c-3.59112,5.40745-7.19556,10.80659-10.72332,16.25531a18.20444,18.20444,0,0,0-2.97051,6.99242,7.20256,7.20256,0,0,1-1.72929,3.2483c-.96659,1.19572-1.89548,1.31661-2.55092-.32222-.13377-.3345.03535-.979-.43051-.96123-2.873.10928-3.32466-2.41862-4.492-4.1067-.657-.95-1.21143-1.09132-2.01776-.32267-4.13014,3.93709-9.8168,4.50381-14.77819,6.5442-5.05931,2.08067-11.87623-1.48245-14.208-6.4042-.53054-1.11986-.92317-2.31436-2.4912-2.39554-.60779-.03147-.83088-.6391-.99316-1.16319-1.35674-4.38161-1.7-8.6586.1582-13.10082,5.08471-12.15562,11.542-23.571,18.28761-34.84406a41.598,41.598,0,0,0,3.02318-5.73778,4.59233,4.59233,0,0,1,6.01761-2.61987c4.94722,1.73393,7.62439,9.205,4.72011,13.61913-5.43473,8.26007-11.25379,16.294-15.9792,24.99022-2.48149,4.56669-5.41208,9.04042-5.93534,14.45165a3.81971,3.81971,0,0,1-.20415.66017c-.26.89295-1.6138,1.63815-.68331,2.66242.851.93675,2.0445.33665,3.07025.0871,8.72161-2.12172,16.71963-5.9462,24.443-10.41636a5.02194,5.02194,0,0,0,1.89519-2.27839c1.99144-3.94729,4.63048-7.4869,6.98412-11.20761,4.54261-7.18116,8.71174-14.59877,13.26247-21.77454a123.18205,123.18205,0,0,0,7.24479-12.66079c1.62111-3.38152,3.94362-4.44387,7.591-3.85308a7.29006,7.29006,0,0,1,6.45248,6.32985C252.42769,357.567,250.97735,358.99761,250.852,361.04454Zm-24.68914,30.46768c-.66526-.07763-.99456.37838-1.30315.79053-4.16348,5.56084-7.54291,11.62525-11.21247,17.50325-.33475.53624-.61738,1.2674.03215,1.65892.92536.55781,1.19623-.41508,1.46054-.9669a46.88833,46.88833,0,0,1,3.77336-6.61087c2.24478-3.22218,4.38223-6.5207,6.49915-9.82911C225.87143,393.34073,226.62536,392.60649,226.16288,391.51222Zm-9.444,4.77626c5.055-5.82408,8.29506-12.79714,12.19157-19.35462A117.27359,117.27359,0,0,0,216.71891,396.28848ZM184.06877,382.812a73.43693,73.43693,0,0,0-8.77024,19.629,1.55274,1.55274,0,0,0,.91822,2.11988C177.51062,396.71593,180.73087,389.77634,184.06877,382.812Z"/><path d="M214.76307,318.18412c4.13622.09025,9.37553,4.53355,9.98611,8.20143a5.10058,5.10058,0,0,1-1.64476,4.38664q-4.78243,5.178-9.6502,10.2771c-1.86648,1.95846-3.66663,2.1657-6.01331.80878a7.81131,7.81131,0,0,1-3.57054-7.87313,27.01019,27.01019,0,0,1,6.42917-13.35626A7.2104,7.2104,0,0,1,214.76307,318.18412Z"/><path d="M101.13989,379.27677c2.03292-4.42175,2.423-9.812,5.267-14.3215.4049-.642.96272-1.46217,1.8054-1.10768,1.04666.44032.36851,1.32632.11524,1.97675q-2.75493,7.07474-5.584,14.12039c-.19558.48668-.19544,1.40253-1.09436,1.1277C101.02892,380.88281,101.178,380.1916,101.13989,379.27677Z"/></g></svg>