<svg height="1350" width="1728" xmlns="http://www.w3.org/2000/svg"><path d="m0 0c1.94724156.96616341 3.85655144 2.01048012 5.734375 3.10546875 1.11842285.64654541 2.2368457 1.29309082 3.38916016 1.95922852.5903302.34555938 1.1806604.69111877 1.78887939 1.04714965 2.50670891 1.46733267 5.0220641 2.91953814 7.53707886 4.37257386 1.29396119.74769759 2.58747624 1.4961678 3.8805542 2.24539184 6.06216254 3.50941863 12.17343772 6.92797511 18.29495239 10.33268738 9.60192608 5.35327948 19.13319865 10.82075965 28.64501953 16.33227539 7.37495319 4.26607751 14.78868191 8.45612627 22.22998047 12.60522461 2.0418461 1.1442111 4.08351165 2.28874447 6.125 3.43359375 3.32116153 1.86216319 6.64549363 3.71789271 9.98046875 5.55517578 3.05233473 1.68188333 6.09511194 3.38002788 9.13256836 5.08862305 1.72730894.96573251 3.46429479 1.9140915 5.20141601 2.86206054 1.04091797.58845704 2.08183594 1.17691407 3.15429688 1.78320313.92490234.51312744 1.84980469 1.02625488 2.80273438 1.55493164 2.68745431 2.20055597 2.64178121 3.33090728 3.10351562 6.72241211.08654673 1.97057905.12202356 3.94373611.12025452 5.91621399.00206199 1.77728233.00206199 1.77728233.00416565 3.59046936-.00359528 1.29112701-.00719056 2.58225403-.01089478 3.9125061-.00028222 1.3800303-.00012345 2.76006074.00044251 4.14009095.0002866 3.73926728-.00558812 7.47850241-.01257396 11.21776223-.0062562 3.91043298-.00683913 7.82086672-.00802541 11.73130393-.00310663 7.40177775-.01131102 14.80354071-.02134949 22.20531195-.01118188 8.42800676-.01667682 16.85601423-.02169543 25.28402656-.01044926 17.33411353-.02803577 34.66821267-.05032361 52.00231493-1.07523926.53036865-2.15047852 1.0607373-3.25830078 1.60717773-1.43740494.71283551-2.87473837 1.42581523-4.31201172 2.13891602-.70552002.34752319-1.41104004.69504639-2.13793945 1.05310059-5.80431063 2.88544745-11.32943057 6.1155642-16.84643555 9.51721191-5.75125513 3.50377883-11.60544852 6.83049641-17.4453125 10.18359375-8.00594636 4.60248771-15.9681612 9.25566142-23.8671875 14.0390625-7.01176265 4.20705759-14.12404279 8.24687939-21.21289062 12.32226562-1.07958985.6206836-2.15917969 1.24136719-3.27148438 1.88085938-.96760254.5554248-1.93520508 1.11084961-2.93212891 1.68310547-1.81056244 1.049625-3.60758307 2.12296453-5.39013671 3.21948242-2.32617188 1.35522461-2.32617188 1.35522461-5.19335938 2.29663086-3.68848369 1.24635795-6.91534732 3.03733727-10.2578125 4.99609375-.91072266.52110352-.91072266.52110352-1.83984375 1.05273438-2.54197279 1.47035681-4.96235249 2.95281634-7.27734375 4.76367187-1.7578125 1.24609375-1.7578125 1.24609375-4.7578125 1.24609375v2c-1.98.99-3.96 1.98-6 3-.33 5.94-.66 11.88-1 18-.99 0-1.98 0-3 0l1-1c.08651611-1.41570123.10704904-2.835595.09765625-4.25390625-.00322266-.85400391-.00644531-1.70800781-.00976563-2.58789063-.0083789-.89783203-.01675781-1.79566406-.02539062-2.72070312-.00676758-1.35254883-.00676758-1.35254883-.01367188-2.73242188-.01182587-2.23509126-.02830592-4.47005249-.04882812-6.70507812-.80179688-.22429687-1.60359375-.44859375-2.4296875-.6796875-4.54741043-1.68164631-8.520023-4.00012194-12.6953125-6.4453125-1.88393571-1.09015293-3.76806025-2.17997957-5.65234375-3.26953125-1.00530762-.58346191-2.01061523-1.16692383-3.04638672-1.76806641-5.01828408-2.90296741-10.05696851-5.77003353-15.09375-8.64074707-9.92209613-5.65696336-19.82153628-11.3517934-29.70751953-17.07165527-7.99305562-4.6241015-16.01873581-9.17594977-24.10620117-13.63256836-5.6489996-3.12272275-11.22167025-6.36327441-16.77319336-9.65576172-3.88996191-2.30679559-7.79197388-4.58923857-11.71435547-6.84057617-.86955322-.49959229-1.73910645-.99918457-2.63500977-1.51391602-1.69174139-.97047736-3.38488815-1.93850996-5.07958984-2.90380859-1.14480835-.65754272-1.14480835-.65754272-2.31274414-1.32836914-.67732178-.38671875-1.35464355-.7734375-2.05249023-1.171875-1.70141602-1.078125-1.70141602-1.078125-3.70141602-3.078125-.24609566-2.37005806-.24609566-2.37005806-.24050903-5.40359497-.00274933-1.14707428-.00549866-2.29414856-.0083313-3.47598267.00719055-1.26450988.0143811-2.52901977.02178955-3.83184814.00056392-1.34017936.00024792-2.68035933-.00088501-4.02053833-.00057525-3.64444725.01120671-7.28876359.02514791-10.93318033.01247885-3.80634449.01367561-7.61269177.01605082-11.41905356.00622316-7.21065337.02264525-14.42124629.04269898-21.63187301.02233303-8.20786237.03334589-16.41572758.04339087-24.62361276.02092093-16.88680708.0561131-33.77355527.10064721-50.66031623.73809402-.40158325 1.47618805-.8031665 2.23664856-1.21691895.97740646-.53234252 1.95481293-1.06468505 2.96183777-1.61315917.96496902-.52533326 1.92993805-1.05066651 2.92414856-1.59191895 4.21565667-2.31194802 8.39334289-4.68757546 12.56486511-7.07800293.89227295-.51062988 1.7845459-1.02125977 2.70385742-1.54736328 9.88561508-5.6682434 19.72396398-11.41722815 29.56030274-17.17041016 6.01070926-3.5141901 12.0263133-7.01999408 18.04101562-10.52734375 5.03923625-2.93893843 10.07724088-5.87994826 15.11279297-8.82519531 10.48666621-6.13044679 20.98617816-12.23367138 31.55932617-18.21411133 3.98222087-2.2606578 7.92455506-4.55698927 11.80004883-6.99682617 1.02951782-.64328247 1.02951782-.64328247 2.07983398-1.29956055 1.25910923-.79313348 2.51067866-1.59843139 3.75244141-2.41845703 3.75676438-2.36313483 5.49029815-2.73922865 9.70288086-1.50073242z" transform="translate(1045 391)"/><path d="m0 0c2.89945255 1.37166006 5.65899957 2.87655305 8.43652344 4.48144531 1.67787597.96510498 1.67787597.96510498 3.38964844 1.94970703.59035034.34146058 1.18070068.68292115 1.78894042 1.03472901 3.15011965 1.82185303 6.30624476 3.63324633 9.46203614 5.44525146.64217468.36902436 1.28434936.73804871 1.94598388 1.11825562 6.11459681 3.50910163 12.26874623 6.94573557 18.42901612 10.37393188 9.07277886 5.05845836 18.06817692 10.23588236 27.02929687 15.48925781 9.69359077 5.67821448 19.44536803 11.25193793 29.20507813 16.81542969 12.01024419 6.84794625 24.01185871 13.71101748 36.015625 20.5703125v140c-7.92 3.96-7.92 3.96-16 8-4.13432552 2.29656272-8.23340167 4.6114748-12.3125 7-1.09755615.63736084-2.19511231 1.27472168-3.32592774 1.93139649-9.13244365 5.31586134-18.20877629 10.72566358-27.28637695 16.13452148-8.81137924 5.23119562-17.71487145 10.28192871-26.6809082 15.24291992-5.49251992 3.04214628-10.89679234 6.17115452-16.21826172 9.50512696-2.09864774 1.14386073-3.86454405 1.65602342-6.17602539 2.18603515-3.12933305 1.75158642-6.16722292 3.62683534-9.22265625 5.50390625-2.77734375 1.49609375-2.77734375 1.49609375-5.77734375 1.49609375v2c-2.64738917 1.46062851-3.89448335 2-7 2v2c-1.96147874 1.38938078-3.96166576 2.7260411-6 4-.8353125-.433125-.8353125-.433125-1.6875-.875-2.39744646-1.1663253-4.82846939-2.15898809-7.3125-3.125 0-.66 0-1.32 0-2-.70833985-.26699707-1.41667969-.53399414-2.14648438-.80908203-2.96863417-1.23896282-5.70047451-2.67924391-8.50976562-4.24560547-1.6416211-.91313965-1.6416211-.91313965-3.31640625-1.84472656-1.17587488-.65836144-2.35165394-1.31689406-3.52734375-1.97558594-1.21738266-.67947891-2.43483131-1.3588396-3.65234375-2.03808593-13.8133686-7.71584708-27.53860338-15.58193186-41.22265625-23.52441407-6.89327795-4.00006124-13.81200543-7.95301257-20.75-11.875-.9502002-.53770019-1.90040039-1.07540039-2.87939453-1.62939453-5.19421177-2.93306934-10.4022784-5.83853165-15.62841797-8.71435547-1.10456543-.61061279-2.20913086-1.22122558-3.34716797-1.85034179-2.1075788-1.16393612-4.21835809-2.32210492-6.33300781-3.47314454-2.92990708-1.62096976-5.8060906-3.31391203-8.68701172-5.02026367-.96437391-.53339744-1.92874781-1.06679489-2.92234516-1.61635589-7.46858635-4.62474746-7.46858635-4.62474746-9.0699091-9.24912262-.36269848-3.49340457-.36993136-6.83293489-.25652504-10.34350586-.00160629-1.30814667-.00321258-2.61629334-.00486755-3.96408081-.00314151-3.56721693.06125943-7.13031996.13831353-10.6965847.06902704-3.73403039.07524603-7.46816786.08827948-11.20273781.03411499-7.06258203.12427294-14.12327862.23484439-21.18503237.12319109-8.04329599.18349079-16.08668473.23864979-24.1306901.11480825-16.53839827.30813499-33.07490303.55355966-49.61188984h2c0-.99 0-1.98 0-3 .92296875-.43828125 1.8459375-.8765625 2.796875-1.328125 8.62963319-4.16855163 16.88384496-8.76518251 25.06665039-13.75048828 7.04772333-4.28945563 14.16979273-8.43717509 21.32397461-12.54638672 7.08292452-4.07054082 14.1592939-8.14813031 21.1875-12.3125 8.65961188-5.12423073 17.40533382-10.0981033 26.14819336-15.07836914 5.45388284-3.10774537 10.90293709-6.22242734 16.32446289-9.38647461.86963379-.50732666 1.73926758-1.01465332 2.6352539-1.53735351 1.58344424-.92590697 3.1652764-1.85457902 4.74511719-2.7866211 3.52824229-2.06269609 6.9428029-3.81428845 10.77197266-5.27368164.825-.5775 1.65-1.155 2.5-1.75 2.5-1.25 2.5-1.25 4.79785156-.52832031z" transform="translate(574.297852 148.72168)"/><path d="m0 0v2c.77472656.21011719 1.54945313.42023437 2.34765625.63671875 5.01340215 1.87131267 9.46351906 4.50453219 14.08984375 7.17578125 2.06891893 1.18245175 4.13793199 2.36473882 6.20703125 3.546875 1.05525879.60521484 2.11051758 1.21042969 3.19775391 1.83398438 4.91498982 2.81203995 9.84972893 5.58883753 14.78271484 8.36914062 8.17112619 4.61461639 16.32489862 9.25877232 24.46801758 13.92260742 6.3911455 3.65747146 12.80300889 7.27708692 19.21948242 10.88989258 9.13110126 5.1420639 18.18445833 10.40840397 27.21826172 15.71923828 6.87831426 4.02652521 13.83277291 7.83513706 20.93408203 11.45263672 2.53515625 1.453125 2.53515625 1.453125 3.53515625 3.453125.0986696 2.79394309.13626776 5.56295307.12939453 8.35717773.00262848 1.30134636.00262848 1.30134636.00531006 2.62898255.00443302 2.89916436.00146513 5.79826836-.00189209 8.69743347.0006751 2.0464733.00164683 4.09294653.00289917 6.13941956.00148087 4.32715098-.00068096 8.65428145-.00534058 12.98143005-.00555263 5.40717486-.00242606 10.81429891.0034523 16.22147179.02559945 28.00513025-.33436176 55.98029606-1.13382339 83.97408485-1.73267523.73452791-3.46535047 1.46905581-5.1980257 2.20358372-2.4995092 1.10470489-4.86726021 2.39574685-7.25119305 3.73001003-1.00232666.56009766-2.00465332 1.12019531-3.03735352 1.69726563-1.05630615.5961914-2.1126123 1.19238281-3.20092773 1.80664062-1.10851318.62326172-2.21702637 1.24652344-3.35913086 1.88867188-7.55005605 4.26504135-15.01865429 8.6481766-22.43603516 13.13916015-9.36077807 5.66737814-18.81825954 11.16600684-28.28344726 16.65673828-2.83659505 1.64722099-5.67061791 3.298729-8.50366211 4.95204163-2.35756632 1.37471745-4.71720316 2.74585186-7.07733154 4.11616516-1.67238638.97222148-3.34260154 1.94817481-5.01275635 2.92422485-5.1315262 2.97306542-10.15942996 5.63324833-15.64013672 7.88549805-1.70862805.96345546-3.3986579 1.96111323-5.0625 3-9.34624556 5.70687418-9.34624556 5.70687418-13.3125 6.4375-3.28586272.70411344-5.78293888 2.21442817-8.66015625 3.91796875-1.96484375.64453125-1.96484375.64453125-3.86328125-.19262695-1.04027344-.57560669-1.04027344-.57560669-2.1015625-1.1628418-.87773071-.47252197-.87773071-.47252197-1.77319336-.95458984-2.05557597-1.13870235-4.11083557-2.27791414-6.16430664-3.42041016-.7935791-.44134277-1.5871582-.88268555-2.40478516-1.33740234-8.59919255-4.79483335-17.14240716-9.68633213-25.68359375-14.5834961-4.91872284-2.81831271-9.84147543-5.62957055-14.76388549-8.44143677-2.98164669-1.70324815-5.96315272-3.40674241-8.9446106-5.11032104-.59844223-.34193893-1.19688446-.68387787-1.8134613-1.03617859-4.21922902-2.41102343-8.43742323-4.82385108-12.6552887-7.23725891-11.25396805-6.43851612-22.51359107-12.86685318-33.796875-19.25390625-.95559814-.54164795-1.91119629-1.0832959-2.89575195-1.64135742-.88002686-.49733643-1.76005371-.99467285-2.66674805-1.50708008-.76441406-.43231934-1.52882813-.86463867-2.31640625-1.31005859-2.01709462-1.10930918-4.06089195-2.14027909-6.12109375-3.16650391-1.73766579-1.006298-3.4665405-2.02789067-5.1875-3.0625-1.32064453-.79083984-1.32064453-.79083984-2.66796875-1.59765625-2.14453125-1.33984375-2.14453125-1.33984375-3.14453125-2.33984375-.09634459-1.77160318-.12187481-3.54708408-.12025452-5.32130432-.00137466-1.15411377-.00274933-2.30822754-.00416565-3.49731445.00359528-1.27745591.00719056-2.55491181.01089478-3.8710785.00028187-1.34988401.00012414-2.69976817-.00044251-4.0496521-.00028797-3.67545671.00560874-7.35088106.01257396-11.02633023.00623356-3.83705189.00683734-7.67410444.00802541-11.51116061.00311331-7.27087197.0113267-14.54172898.02134949-21.81259435.01116114-8.27555896.01667159-16.55111862.02169543-24.82668323.01046439-17.0279694.02806383-34.05592423.05032361-51.08388221.67401855-.33555908 1.34803711-.67111816 2.04248047-1.0168457.89090332-.44432373 1.78180664-.88864746 2.69970703-1.34643555.88026855-.43868408 1.76053711-.87736816 2.66748047-1.3293457 5.77061459-2.91250153 11.29384551-6.10034915 16.75390625-9.56347657 8.11981116-5.1494197 16.39784294-9.94513729 24.78442383-14.64648437 7.03518238-3.94706954 14.02605509-7.96266108 20.98950195-12.03491211.98742187-.57669434 1.97484375-1.15338867 2.9921875-1.74755859 5.12609768-2.99716732 10.2442152-6.00737543 15.35546875-9.02978516 9.25861475-5.46028288 18.47000756-10.85102357 28.16479492-15.50341797 5.47195874-2.65171193 10.63476526-5.73611132 15.76904297-8.98999023 4.47309266-2.79174805 4.47309266-2.79174805 7.78100586-2.79174805z" transform="translate(885 636)"/><path d="m0 0c5.04540934 2.11963565 9.61782541 4.91292231 14.30859375 7.71875 8.42423365 4.97818995 16.88675157 9.8672969 25.4375 14.625 8.96375909 4.99614739 17.90271966 10.03334804 26.8125 15.125.58790314.33592163 1.17580627.67184326 1.78152466 1.01794434 9.11789618 5.21344705 18.19332308 10.49761019 27.25167847 15.81384277 8.46755176 4.95289308 17.02378612 9.74112144 25.62182617 14.46362305.98137939.54317871 1.96275879 1.08635742 2.97387695 1.64599609.85795166.47123291 1.71590332.94246582 2.59985352 1.42797852.89388427.53810302 1.78776855 1.07620605 2.70874023 1.63061523.5844712.3166521 1.16894239.6333042 1.77112484.95955181 1.99561044 1.20606744 3.60832734 2.35864745 5.22887516 4.04044819.66177004 3.14081595.83992953 5.22513825.70117187 8.34667969-.00851486.83212257-.01702972 1.66424515-.02580261 2.52158355-.03604901 2.76949006-.12161273 5.53522655-.20661926 8.30361176-.03439122 1.96663822-.06528469 3.93334035-.09289551 5.90008545-.06318168 4.16950477-.14542232 8.33802507-.24157715 12.50689697-.14052669 6.3127392-.2085369 12.62466727-.25537109 18.9387207-.01594223 2.09257006-.03189276 4.18514004-.04785156 6.27770997-.01178284 1.555055-.01178284 1.555055-.02380371 3.14152526-.04331762 5.2334243-.10267067 10.46665026-.16271973 15.6999054-.01181305 1.0334832-.0236261 2.0669664-.03579712 3.13176727-.0240353 2.09704917-.04813427 4.19409761-.07229614 6.29114533-.0621286 5.43973839-.12140131 10.87950798-.18096924 16.3192749-.11581563 10.54039552-.23459464 21.0807551-.35546875 31.62109375-.94404694.30717957-1.88809387.61435913-2.86074829.93084717-2.73944501.93298839-4.98438189 1.95368276-7.47518921 3.39727783-.804375.46277344-1.60875.92554688-2.4375 1.40234375-.85851562.50144531-1.71703125 1.00289062-2.6015625 1.51953125-.91265625.52722656-1.8253125 1.05445313-2.765625 1.59765625-2.9569902 1.71088728-5.90878354 3.43044715-8.859375 5.15234375-1.47774902.86141602-1.47774902.86141602-2.98535156 1.74023438-4.02248128 2.34546247-8.0439422 4.69266554-12.06445313 7.0415039-14.66304581 8.56248301-29.39615553 16.96277024-44.32446289 25.05493164-5.69380126 3.09136135-11.32984218 6.24765625-16.89526367 9.56567383-2.2953422 1.34305431-4.60558103 2.64087722-6.93359375 3.92578125-3.27933751 1.81421029-6.52912736 3.67015099-9.76171875 5.56640625-.81919922.48017578-1.63839844.96035156-2.48242188 1.45507813-1.68901662.99221447-3.37646939 1.98709493-5.0625 2.984375-.81017578.47373046-1.62035156.94746093-2.45507812 1.43554687-.72823975.42901611-1.45647949.85803223-2.20678711 1.30004883-1.82836914.93041992-1.82836914.93041992-3.82836914.93041992v5c-.66 0-1.32 0-2 0 0-1.65 0-3.3 0-5-.70672852-.26393555-1.41345703-.52787109-2.14160156-.79980469-3.02076515-1.26837047-5.75622529-2.76432299-8.59277344-4.40332031-1.67763428-.96498413-1.67763428-.96498413-3.38916016-1.94946289-.8854953-.51217575-.8854953-.51217575-1.78887939-1.03469849-3.15284471-1.82335522-6.31183048-3.63601448-9.47039795-5.44943237-.96388138-.55384621-.96388138-.55384621-1.94723511-1.11888123-6.07125734-3.48429333-12.17939415-6.90103317-18.29495239-10.30690002-9.64595272-5.3793852-19.22460467-10.86793239-28.78344727-16.40039062-7.03219072-4.06757244-14.080821-8.10381963-21.15405273-12.09960938-.91910156-.51949219-1.83820312-1.03898438-2.78515625-1.57421875-5.14496446-2.90210391-10.30196517-5.78145015-15.46875-8.64453125-1.1355835-.63091553-2.27116699-1.26183105-3.44116211-1.91186523-2.19254756-1.21716354-4.38726857-2.43042278-6.58447266-3.63916016-1.48971313-.82745728-1.48971313-.82745728-3.00952148-1.67163086-.87479004-.48283447-1.74958008-.96566895-2.65087891-1.46313477-2.77026553-1.70034186-5.13273765-3.28944619-7.49755859-5.53295898-.61523914-2.63177109-.61523914-2.63177109-.60127258-5.68206787-.00687332-1.15823776-.01374665-2.31647553-.02082825-3.5098114.01797638-1.26667008.03595276-2.53334015.05447388-3.83839417.0014107-1.350326.00061805-2.70065584-.00221253-4.05097961-.00143474-3.66320568.02796304-7.32559292.06286979-10.98860836.03125458-3.82898593.0341935-7.65799058.04012704-11.48708439.01554119-7.24969628.05657304-14.49901561.10674745-21.74854589.05588517-8.25381227.08337783-16.50764254.10847717-24.76159691.0522643-16.97785519.14021157-33.95534344.25161803-50.9329114 1.64624359-.69760437 1.64624359-.69760437 3.32574463-1.40930176 3.16711445-1.34208139 6.15839607-2.87079772 9.15863037-4.55944824 1.51376221-.84933105 1.51376221-.84933105 3.05810547-1.71582031 1.05848144-.5990918 2.11696289-1.1981836 3.20751953-1.81542969 1.64379639-.92570801 1.64379639-.92570801 3.32080078-1.87011719 16.19988871-8.92450508 16.19988871-8.92450508 31.92919922-18.62988281h3c0-.66 0-1.32 0-2 .73065674-.35481445 1.46131348-.70962891 2.21411133-1.07519531 7.34029831-3.61061737 14.43451667-7.51085874 21.47338867-11.67480469 1.56463989-.91906128 1.56463989-.91906128 3.16088867-1.85668945 3.05272906-1.79407983 6.10251147-3.59307161 9.15161133-5.39331055 1.55452114-.91564708 3.10919151-1.83104088 4.6640625-2.74609375.69826904-.4110498 1.39653809-.82209961 2.1159668-1.24560547 2.68301604-1.57854805 5.3672166-3.15507679 8.05151367-4.73144531 1.56300225-.92034472 3.12432233-1.84354837 4.68457031-2.76855469 2.61617109-1.55037729 5.23714459-3.09236757 7.85888672-4.63330078.81573486-.48621826 1.63146973-.97243652 2.47192383-1.47338867.75949951-.44448487 1.51899902-.88896973 2.30151367-1.34692383.67208496-.39719238 1.34416992-.79438477 2.03662109-1.20361328 1.81494141-.85107422 1.81494141-.85107422 4.81494141-.85107422 0-.66 0-1.32 0-2 2.66557268-2.1951775 4.04513792-3.20259164 7.50390625-2.46875z" transform="translate(885.503906 146.53125)"/><path d="m0 0c1.56207348.78129671 3.09819633 1.61545855 4.61328125 2.484375.9060498.51618896 1.81209961 1.03237793 2.74560547 1.56420898.97469238.56146729 1.94938476 1.12293457 2.95361328 1.70141602 2.0923872 1.19411682 4.18483681 2.38812428 6.27734375 3.58203125 1.06847168.61182129 2.13694336 1.22364258 3.23779297 1.85400391 4.83962828 2.76731092 9.69318597 5.50978093 14.54736328 8.25146484 1.4065686.79579468 1.4065686.79579468 2.84155273 1.60766602 5.05551056 2.85828314 10.1180147 5.70346177 15.18969727 8.53295898 9.70245177 5.41300837 19.38253906 10.84017158 28.92773438 16.52636719 7.75155183 4.5878802 15.65317772 8.9078193 23.53588867 13.26464843 9.78541072 5.41659035 19.4801064 10.97719326 29.13012695 16.63085938-.66.33-1.32.66-2 1v141c-7.92 4.29-15.84 8.58-24 13-4.36526447 2.63421132-8.69126364 5.28181646-13 8-2.20102778 1.3453589-4.40927531 2.67898599-6.625 4-.96164062.5775-1.92328125 1.155-2.9140625 1.75-2.4609375 1.25-2.4609375 1.25-5.4609375 1.25v2c-.98552856.53004639-.98552856.53004639-1.9909668 1.07080078-7.022515 3.80053636-13.93647033 7.76097067-20.8215332 11.80419922-2.10669447 1.22929755-4.21346496 2.45846482-6.3203125 3.6875-3.46382421 2.02435609-6.91871105 4.06155693-10.359375 6.125-.95749146.56678467-.95749146.56678467-1.93432617 1.14501953-1.62637424.9627919-3.24670176 1.93577855-4.86645508 2.90966797-2.84116623 1.32013785-4.61680306 1.54028308-7.70703125 1.2578125v2c-1.95585325 1.00484204-3.91476237 2.00373805-5.875 3-1.63582031.8353125-1.63582031.8353125-3.3046875 1.6875-2.8203125 1.3125-2.8203125 1.3125-4.8203125 1.3125v2c-2.88959761 1.44479881-5.77953921 2.88881098-8.671875 4.328125-2.10229211 1.05608101-4.19720273 2.12710619-6.28125 3.21875-.88171875.45890625-1.7634375.9178125-2.671875 1.390625-1.19496094.63228516-1.19496094.63228516-2.4140625 1.27734375-.97066406.38865234-.97066406.38865234-1.9609375.78515625-.66-.33-1.32-.66-2-1l2.4375-1.375c2.65106572-1.37225665 2.65106572-1.37225665 3.5625-3.625-.7204248-.27529541-1.44084961-.55059082-2.18310547-.83422852-2.73595252-1.13227364-5.28361917-2.41026187-7.88720703-3.81811523-.96897217-.52343994-1.93794434-1.04687988-2.9362793-1.58618164-1.0290747-.56066162-2.05814941-1.12132324-3.1184082-1.69897461-1.07096924-.58193115-2.14193848-1.1638623-3.24536133-1.76342773-8.8411285-4.82536338-17.56464956-9.83269446-26.25805664-14.91772461-4.19356327-2.44257577-8.40732103-4.84971159-12.62158203-7.25634766-.86616943-.49491943-1.73233887-.98983887-2.62475586-1.49975586-5.63199874-3.21377448-11.27642977-6.40498106-16.92578125-9.58813476-9.8549327-5.55354539-19.65093701-11.19162282-29.3815918-16.95996094-7.44272006-4.41005653-14.91495047-8.72829965-22.54052734-12.81542969-2.27734375-1.26171875-2.27734375-1.26171875-5.27734375-3.26171875-.36914349-2.38567543-.36914349-2.38567543-.36076355-5.44155884-.00412399-1.15548843-.00824799-2.31097687-.01249695-3.5014801.01078583-1.27386063.02157166-2.54772125.03268433-3.86018372.00084588-1.35003134.00037188-2.70006406-.00132752-4.0500946-.00086289-3.67137225.01681014-7.34245214.03772188-11.01375628.01871796-3.83436344.02051337-7.66873312.02407622-11.5031352.00933486-7.26381313.03396803-14.52749126.06404847-21.79124486.03349928-8.26831017.05001874-16.53662669.0650863-24.80498779.03138165-17.01126437.08417002-34.02239723.15097082-51.03355861 1.75628662-1.00021362 3.51257324-2.00042725 5.26885986-3.00064087 1.86180656-1.07479074 3.67614291-2.20690679 5.48114014-3.37435913 4.01728858-2.53398203 8.16549438-4.77958694 12.34375-7.03515625 6.95388078-3.80407188 13.74784213-7.88563717 20.53173828-11.98291016 4.87082419-2.94066647 9.73573415-5.85114488 14.74951172-8.54443359 4.50151792-2.41882442 8.91356124-4.96371223 13.3125-7.5625.70697021-.41757568 1.41394043-.83515137 2.14233398-1.26538086 1.54048458-.91017228 3.08092851-1.82041335 4.6213379-2.73071289 12.70521796-7.49656539 25.415844-14.9836418 38.35375976-22.07348633 3.46000795-1.89739797 6.88882603-3.82639825 10.27319336-5.85620117.64243652-.38172363 1.28487305-.76344727 1.94677734-1.15673828 1.72385973-1.02958421 3.43966338-2.0726239 5.15478516-3.11669922 3.18627714-1.46957103 3.65282815-1.40542814 6.8203125-.30078125z" transform="translate(732 391)"/><path d="m0 0c4.85498838 2.34918793 9.45542466 5.06443583 14.08203125 7.83203125 8.50384624 5.02736565 17.05174302 9.95273473 25.6875 14.75 9.22974156 5.13552839 18.37238792 10.40213603 27.48046875 15.75 7.12481813 4.17244251 14.30509948 8.2347534 21.51953125 12.25 8.56971903 4.77202787 17.08979964 9.62009145 25.5625 14.5625.98097656.57169922 1.96195313 1.14339844 2.97265625 1.73242187 2.66161897 1.55815611 5.32097921 3.11695229 7.96484375 4.70507813.65205225.25927591 1.3041045.51855183 1.97591591.78568459 2.48978012 1.15512464 4.13587806 2.20720827 6.02408409 4.21431541 1.25996593 4.39845729 1.14418464 8.74099788 1.11450195 13.29223633.01903752 1.36709905.041396 2.73415528.06681824 4.10115051.05777636 3.70713786.06426626 7.41268204.05794168 11.12020326-.0013107 3.09884115.02071502 6.19734984.04216045 9.29610342.04954999 7.31440089.05577674 14.62798774.03620463 21.94250375-.01931128 7.5351606.03866965 15.06696403.13419754 22.60146886.07912572 6.47765558.10771842 12.95423648.09668862 19.43236386-.00593766 3.86551348.00747857 7.72846843.07049972 11.59352667.05731363 3.6387398.05128827 7.27210275-.00226593 10.91084671-.01350082 1.96191239.0369167 3.92394292.08958245 5.88519477-.09209952 3.69798843-.31014702 6.39325037-1.70632935 9.82440186-3.9847105 3.56903572-8.16005658 5.70545769-13 8-1.93696238 1.08081434-3.86802441 2.17237869-5.7890625 3.28125-1.94431059 1.07473124-3.8896567 2.14759085-5.8359375 3.21875-9.04906931 5.02056177-17.99151759 10.19224279-26.875 15.5-9.88791684 5.90559139-19.85589261 11.6380322-29.9296875 17.22070313-4.99300598 2.76749381-9.94452936 5.58296565-14.85546875 8.49414062-3.0934572 1.81738421-6.10913543 3.56107975-9.43359375 4.9140625-4.1672895 1.74133168-7.9178387 3.98294455-11.78125 6.30859375-2.83207492 1.68961894-5.66533757 3.37722569-8.5 5.0625-.66644531.39848145-1.33289063.79696289-2.01953125 1.20751953-4.75127456 2.79248047-4.75127456 2.79248047-6.98046875 2.79248047v5c-.66-.33-1.32-.66-2-1-.12689209-.6285791-.25378418-1.2571582-.38452148-1.90478516-.43174332-2.20785571-.43174332-2.20785571-2.27587891-3.42871093-.72179443-.39268067-1.44358887-.78536133-2.18725586-1.18994141-.82016602-.45616699-1.64033203-.91233398-2.48535156-1.38232422-.90073242-.48484863-1.80146485-.96969726-2.72949219-1.46923828-1.93437189-1.07151311-3.8679357-2.14448605-5.80078125-3.21875-1.01143066-.55816406-2.02286133-1.11632812-3.06494141-1.69140625-4.98708345-2.78407838-9.90026322-5.69197052-14.82177734-8.58984375-9.30443864-5.45157231-18.68098107-10.76240364-28.10009766-16.01293945-7.4724319-4.16621673-14.91170209-8.38637523-22.33374023-12.64160157-5.49008668-3.14592256-10.9923215-6.26927828-16.50415039-9.37695312-4.77408111-2.6918198-9.54404024-5.39088088-14.31201172-8.09350586-1.3926709-.78914795-1.3926709-.78914795-2.81347656-1.59423828-2.64880946-1.50455755-5.29334895-3.01633141-7.93652344-4.53076172-.79229004-.44931885-1.58458008-.8986377-2.40087891-1.36157227-.72880371-.41950927-1.45760742-.83901855-2.20849609-1.27124023-.63389648-.3623877-1.26779297-.72477539-1.92089844-1.09814453-1.91231558-1.27216224-3.26765255-2.35248872-4.71972656-4.14404297-.36749268-2.30595398-.36749268-2.30595398-.35644531-5.07299805-.00296082-1.05128586-.00592163-2.10257171-.00897217-3.18571472.01230652-1.15599197.02461304-2.31198395.03729248-3.50300598.00151062-1.22233841.00302124-2.44467682.00457764-3.70405579.00784269-3.36955517.02948356-6.73848348.0576477-10.10789489.02122275-2.82152535.03127994-5.64304429.04129029-8.46462822.12321658-33.98903551.66433163-67.97752449 1.22460937-101.96170235 1.65805664-.8657666 1.65805664-.8657666 3.34960937-1.74902344 8.18582282-4.2921147 16.27529229-8.6547622 24.15039063-13.50097656 4.7745902-2.91695221 9.55409647-5.82271817 14.40625-8.609375.71478516-.41217773 1.42957031-.82435547 2.16601563-1.24902344 1.92773437-.89160156 1.92773437-.89160156 4.92773437-.89160156 0-.66 0-1.32 0-2 .71542969-.3403125 1.43085938-.680625 2.16796875-1.03125 6.48671515-3.15524566 12.61261833-6.62125315 18.71875-10.453125 6.55077547-4.05564363 13.27565333-7.823172 19.95678711-11.65820313 6.38334473-3.66870408 12.74186921-7.373226 19.06689453-11.14160156 3.54707981-2.11172083 7.10379652-4.20662711 10.6652832-6.29394531 1.57822766-.92563926 3.15420261-1.85513372 4.72753907-2.7890625 2.05404041-1.21176909 4.12153739-2.3953278 6.19677734-3.5703125 1.1240625-.64839844 2.248125-1.29679688 3.40625-1.96484375 3.09375-1.09765625 3.09375-1.09765625 5.82421875-.6796875z" transform="translate(575.730469 634.417969)"/><path d="m0 0v2c.71051514.26844727 1.42103027.53689453 2.15307617.81347656 2.92757896 1.22013839 5.62535712 2.63120033 8.39770508 4.17089844 1.07813965.59804443 2.1562793 1.19608887 3.26708984 1.81225586 1.16499626.65090839 2.32986933 1.30203732 3.49462891 1.95336914.59774231.33291046 1.19548462.66582092 1.81134033 1.00881958 9.29288865 5.17616272 18.49435845 10.49546111 27.66131592 15.89181519 7.93515396 4.65080939 15.96370344 9.11443581 24.02734375 13.53686523 10.2717922 5.6349733 20.46775331 11.37704472 30.58056641 17.29345703 3.11747687 1.81653316 6.24239782 3.62002127 9.36865234 5.42138672.5877269.33866592 1.1754538.67733185 1.7809906 1.02626038 2.91353714 1.67853278 5.82739165 3.35651419 8.7412262 5.03453064 1.05872314.61029052 2.11744629 1.22058105 3.20825195 1.84936523.94214355.54269531 1.88428711 1.08539062 2.85498047 1.64453125.87543457.50917969 1.75086914 1.01835938 2.65283203 1.54296875.93859863.49886719 1.87719727.99773437 2.84423828 1.51171875.71140137.49113281 1.42280274.98226562 2.15576172 1.48828125v3c.01137894 1.37370077.02314231 2.74739838.03515625 4.12109375.02832826 3.77819088.01065074 7.55391801-.0234375 11.33203125-.03557813 4.43853984.07208756 8.84682776.2578125 13.28125.48286093 19.22738614-5.2847176 32.10272358-15.26953125 48.265625-1.19276444 1.990072-2.38422174 3.98092818-3.57421875 5.97265625-2.63386429 4.35905673-5.33741638 8.66723713-8.09228516 12.95068359-1.11857086 1.74195602-2.21852442 3.4958476-3.31396484 5.25244141-9.11733674 14.61805772-19.27928483 28.36645394-30.01953125 41.82421875-.87205078 1.09272217-.87205078 1.09272217-1.76171875 2.20751953-6.22051998 7.77040796-12.49836606 15.46205912-19.23828125 22.79248047-.99-.33-1.98-.66-3-1v2c-.66.33-1.32.66-2 1-.33.66-.66 1.32-1 2-.66 0-1.32 0-2 0-.66 2.31-1.32 4.62-2 7-.928125.0928125-.928125.0928125-1.875.1875-2.40261141.641419-2.40261141.641419-3.375 3.375-.37125 1.2065625-.37125 1.2065625-.75 2.4375-.99-.33-1.98-.66-3-1v4c-.969375.268125-1.93875.53625-2.9375.8125-1.010625.391875-2.02125.78375-3.0625 1.1875-.33.99-.66 1.98-1 3-2.72265625 1.82421875-2.72265625 1.82421875-6.0625 3.6875-1.10472656.62261719-2.20945312 1.24523437-3.34765625 1.88671875-1.28197266.70576172-1.28197266.70576172-2.58984375 1.42578125 1.45264038-.8638129 2.9123163-1.71580454 4.375-2.5625.81210938-.47566406 1.62421875-.95132812 2.4609375-1.44140625.71414063-.32871094 1.42828125-.65742187 2.1640625-.99609375l2 1c-5.1416432 4.89325464-10.24966532 9.06667367-16.45703125 12.53125-2.60204586 1.44769597-2.60204586 1.44769597-5.1171875 3.3125-2.46532385 1.72157378-4.59190418 3.14415105-7.42578125 4.15625-3.16973355-.67922862-5.45513427-2.02381935-8-4 0-.66 0-1.32 0-2-.87744873-.27005859-1.75489746-.54011719-2.65893555-.81835938-3.17104662-1.12151009-5.87441996-2.43753314-8.7980957-4.08789062-1.0209375-.57363281-2.041875-1.14726563-3.09375-1.73828125-1.61455078-.91845703-1.61455078-.91845703-3.26171875-1.85546875-1.68222656-.94939453-1.68222656-.94939453-3.3984375-1.91796875-6.79999219-3.84890488-13.55536218-7.76607448-20.27050781-11.76074219-6.13314188-3.6330449-12.35318402-7.10375667-18.58105469-10.57128906-8.36733735-4.65977625-16.67879663-9.40030964-24.9375-14.25-12.23288258-7.18096364-24.59996398-14.11269517-37-21-1.56116985-.86729091-3.12233163-1.73459636-4.68348694-2.60191345-1.21323236-.67402312-1.21323236-.67402312-2.45097446-1.36166287-.61562774-.34201981-1.23125548-.68403963-1.8655386-1.03642368-.3039869-17.72396044-.53306922-35.44724255-.67355824-53.17324829-.06697314-8.2310613-.15823296-16.46050105-.30715465-24.69052124-.1297753-7.17534698-.21348801-14.34951972-.24243754-21.52600765-.01691975-3.79899293-.05651752-7.59462754-.15134031-11.39254094-.08864929-3.57984923-.11539263-7.15498006-.09590912-10.73582267-.00525052-1.93138149-.07502815-3.86225443-.1470623-5.79229927.05617686-3.65823915.24306567-6.29268507 1.61746216-9.68955994 3.99051919-3.5512617 8.16954185-5.70326476 13-8 1.68182329-.95630585 3.35716315-1.92432376 5.01953125-2.9140625 1.59658461-.90553789 3.19426689-1.80914282 4.79296875-2.7109375 7.65453659-4.34623765 15.2770194-8.74313943 22.875-13.1875 8.38143885-4.90017859 16.77636147-9.77596601 25.1875-14.625 1.6077832-.92703735 1.6077832-.92703735 3.24804688-1.87280273 5.58874791-3.22122253 11.17950335-6.43893482 16.77148437-9.65454102 13.73492365-7.88891355 13.73492365-7.88891355 27.35546875-15.97265625 4.83057905-2.91720388 9.67698641-5.80099285 14.5625-8.625 1.14082031-.66128906 2.28164062-1.32257812 3.45703125-2.00390625 2.73046875-1.43359375 2.73046875-1.43359375 4.73046875-1.43359375zm9 284c-.66.66-1.32 1.32-2 2h3c-.33-.66-.66-1.32-1-2z" transform="translate(1197 643)"/><path d="m0 0c3.25440988 1.83926649 5.78732473 3.85900553 8.52734375 6.3984375 1.30517578 1.08474609 1.30517578 1.08474609 2.63671875 2.19140625 5.12794886 4.38977552 9.8476618 9.22109946 14.55078125 14.05859375 1.70502684 1.82107096 1.70502684 1.82107096 3.8125 2.75v2h2c1.3046875 1.328125 1.3046875 1.328125 2.875 3.25 3.15051024 3.72154022 6.51551395 7.15751835 10 10.5625 4.68096001 4.60467555 8.90554309 9.41000769 12.9921875 14.55859375 2.05982496 2.53894175 4.21739115 4.92478459 6.4453125 7.31640625 5.53389866 6.08247644 10.34519846 12.67550394 15.20410156 19.29833984 1.36537005 1.85390107 2.74513949 3.69571865 4.13183594 5.53369141 11.51053797 15.33872291 22.41371556 31.28338671 31.54296875 48.16015625 1.54493071 2.83626588 3.16583469 5.57923295 4.87109375 8.3203125 4.1107382 6.74759829 7.4635931 13.91135215 10.9375 21 .35323334.63733063.70646667 1.27466125 1.07040405 1.93130493 5.63351749 12.53666163 4.3636963 37.02511584.92959595 50.06869507-3.47153307 6.97171061-10.73012336 9.53124036-17.66015625 12.01171875-1.08941895.33177246-2.17883789.66354492-3.30126953 1.00537109-4.20315053 1.3596243-7.73047592 3.43494673-11.47607422 5.73291016-1.27311799.71874517-2.54914005 1.43237254-3.828125 2.140625-6.06221182 3.40722854-12.03403686 6.96941601-18.02050781 10.50732422-44.35418895 26.18317631-44.35418895 26.18317631-51.10839844 29.03564453-4.91816479 2.13671082-9.45429567 4.82102155-14.08398438 7.51367187-5.31847483 3.05273438-5.31847483 3.05273438-7.52148437 3.05273438v2c-4.38461538 3-4.38461538 3-7 3-.33 6.27-.66 12.54-1 19-.99 0-1.98 0-3 0l1-1c.8837764-5.98105017 1.49685533-12.06998849 0-18-2.9121093-3.57676868-6.45690006-5.0581582-10.63232422-6.89453125-4.94760555-2.31003897-9.62632392-5.15421043-14.36767578-7.85546875-2.19794475-1.22754432-4.39716892-2.45280059-6.59765625-3.67578125-5.63185952-3.13850536-11.24368465-6.31003874-16.83984375-9.51171875-1.26021973-.72098877-1.26021973-.72098877-2.54589844-1.45654297-4.74758482-2.72095843-9.48749177-5.45497504-14.22363281-8.19580078-11.78127539-6.81649295-23.59564504-13.56013829-35.48754883-20.18188477-10.51062793-5.86898471-20.89881939-11.9438452-31.27197265-18.05175781-1.32235655-.76509019-2.66699497-1.49328752-4.03344727-2.17651367 0-45.54 0-91.08 0-138l11-6c3.23548111-1.82339664 6.46527689-3.65360039 9.6875-5.5.89372314-.51135498 1.78744629-1.02270996 2.70825195-1.54956055 7.7947776-4.46870022 15.55581419-8.99441042 23.3125-13.52880859 10.62277261-6.20727769 21.28225683-12.35025959 31.94360352-18.4909668 3.46307154-1.99693523 6.92349236-3.99839648 10.38330078-6.00097656 1.16745524-.67525522 2.33493546-1.35046723 3.50244141-2.02563477 2.19167241-1.26769505 4.38279556-2.53634042 6.57324218-3.80615234 4.82797532-2.7906767 9.67034294-5.53185158 14.58447266-8.16821289 3.41482448-1.84205074 6.67404138-3.78616116 9.89453125-5.94921875 11.21683232-7.36041463 11.21683232-7.36041463 16.8828125-6.37890625z" transform="translate(1199.472656 146.601563)"/><path d="m0 0c9.62793552 4.97284459 19.05257943 10.27159601 28.4375 15.6875 1.11294434.64138916 2.22588867 1.28277832 3.37255859 1.94360352 3.07054762 1.77757615 6.13102224 3.57140884 9.18994141 5.36889648.84578613.48291504 1.69157227.96583008 2.56298828 1.46337891 1.86388321 1.09555868 3.66066389 2.30418535 5.43701172 3.53662109v3c.99.35964844.99.35964844 2 .7265625 3.82634061 1.62420188 7.38022789 3.61157296 11 5.6484375.78906738.44134277 1.57813477.88268555 2.39111328 1.33740234 8.56501903 4.80198304 17.08564212 9.68182084 25.60400391 14.56591797 5.061753 2.90018543 10.12766863 5.7930861 15.19317627 8.68670655 3.01031681 1.71970293 6.02037418 3.43985987 9.03045654 5.15997314 1.16666543.66666883 2.33333207 1.33333555 3.5 2 2.91666667 1.66666667 5.83333333 3.33333333 8.75 5 1.25925293.71953857 1.25925293.71953857 2.54394531 1.45361328 1.65567913.94614879 3.31127834 1.89243743 4.96679688 2.83886719 4.37690759 2.50193274 8.75506854 5.0016384 13.13520813 7.49790954 6.56324746 3.74044425 13.12139044 7.48964038 19.67485046 11.24720765 2.90883065 1.66478018 5.82279026 3.32018444 8.73779297 4.97412109 1.55374819.89129499 3.10716511 1.78316785 4.66015625 2.67578125 1.04172363.58515381 1.04172363.58515381 2.10449219 1.18212891 4.59381248 2.66278511 4.59381248 2.66278511 5.70800781 6.00537109-.66 0-1.32 0-2 0-.66 44.22-1.32 88.44-2 134-8 4-8 4-11 4v2c-.49064941.26514404-.98129883.53028809-1.48681641.8034668-9.8390386 5.33070978-19.5903636 10.77504186-29.20068359 16.5090332-8.96865639 5.34920576-18.03804572 10.49339797-27.16186523 15.57275391-10.40343154 5.79644214-20.82456482 11.60951748-30.97094727 17.84912109-2.62130674 1.52204908-5.30418883 2.32796239-8.1796875 3.265625-.99.66-1.98 1.32-3 2-.99 0-1.98 0-3 0v2c-6.625 4-6.625 4-10 4v2c-1.71571224 1.06368149-3.44823601 2.10028172-5.1875 3.125-.96292969.58007812-1.92585938 1.16015625-2.91796875 1.7578125-2.89453125 1.1171875-2.89453125 1.1171875-5.24926758.36425781-2.68768052-1.2670671-5.27472627-2.62524088-7.86401367-4.08300781-1.00377686-.56340088-2.00755371-1.12680176-3.04174805-1.70727539-1.60355346-.90673462-1.60355346-.90673462-3.23950195-1.83178711-1.1135083-.62704834-2.2270166-1.25409668-3.37426758-1.90014648-3.3775321-1.90426873-6.75210154-3.81368332-10.12573242-5.72485352-.94665527-.53544434-1.89331055-1.07088867-2.86865234-1.62255859-10.18069084-5.76416328-20.30314629-11.62335795-30.38134766-17.56494141-.95994873-.56533447-1.91989746-1.13066895-2.90893555-1.71313477-.88083252-.52134521-1.76166504-1.04269043-2.66918945-1.57983398-1.1741748-.69452271-1.1741748-.69452271-2.37207031-1.40307617-1.79980469-1.11645508-1.79980469-1.11645508-2.79980469-2.11645508-.10213503-2.45724776-.13887365-4.88654034-.13371277-7.34443665-.00339833-1.16698599-.00339833-1.16698599-.00686532-2.35754746-.00636918-2.62710405-.00550877-5.25415689-.00468558-7.88126784-.00298972-1.87540759-.00639181-3.75081456-.01017761-5.62622071-.00886434-5.10955381-.01117917-10.2190909-.01181579-15.32865166-.00094727-4.25952757-.00462355-8.51905121-.0081721-12.77857727-.00815418-10.04767375-.01058339-20.09533853-.00987356-30.14301521.00060071-10.37629911-.00994759-20.75254621-.02574367-31.12883216-.01306292-8.89682682-.01844074-17.79363662-.01780092-26.69047296.0002554-5.31875251-.0026188-10.63745886-.01317806-15.95620185-.00965975-5.00268351-.00977477-10.00527654-.00248336-15.00796318.00104856-1.83824991-.00133309-3.67650539-.00736046-5.51474571-.00768476-2.50566734-.00309853-5.01101952.00463104-7.51667977-.00514356-.73083764-.01028713-1.46167527-.01558655-2.21465951.02556348-3.73922798.39473153-6.27627826 2.26282471-9.51072806 0-.99 0-1.98 0-3h2c-.33-.680625-.66-1.36125-1-2.0625-1.21956366-3.58246824-1.40345105-6.17195682-1-9.9375l1.9375-2.375c4.03598061-5.1367026 3.19658287-12.32310524 3.0625-18.625l3-1 1-2 1-1c.07258946-2.18639453.08373783-4.37500389.0625-6.5625-.00902344-1.19753906-.01804687-2.39507812-.02734375-3.62890625-.01160156-.92683594-.02320313-1.85367188-.03515625-2.80859375h2c.336611-1.77021322.66917293-3.54119674 1-5.3125.185625-.98613281.37125-1.97226562.5625-2.98828125.51749796-2.7370368.51749796-2.7370368.4375-5.69921875 0-.66 0-1.32 0-2l5-2c0-3.3 0-6.6 0-10 .99-.33 1.98-.66 3-1 .33-.99.66-1.98 1-3zm-8 21c-.33 2.97-.66 5.94-1 9 2.41121859-1.95633975 2.41121859-1.95633975 2.125-5.625-.04125-1.11375-.0825-2.2275-.125-3.375-.33 0-.66 0-1 0z" transform="translate(365 359)"/><path d="m0 0c.94875.30292969 1.8975.60585938 2.875.91796875 8.34086478 3.38847632 8.34086478 3.38847632 10.46508789 7.97631836.40593384 1.67461304.40593384 1.67461304.82006836 3.38305664.31211426 1.24982666.62422852 2.49965332.94580078 3.78735352.29990458 1.3113367.59792905 2.62310485.89404297 3.93530273.43675049 1.8406604.43675049 1.8406604.88232422 3.71850586.89480823 3.8769122 1.73761613 7.76275515 2.55517578 11.65649414.14835297.70177368.29670593 1.40354736.44955444 2.12658691 2.25144424 10.70611379 4.22320307 21.44163441 5.92544556 32.24841309.19456787 1.22122559.38913574 2.44245117.58959961 3.70068359.58304106 3.84401822 1.10616237 7.69283238 1.59790039 11.54931641.09289307.69679871.18578613 1.39359741.28149414 2.11151123 2.18764099 16.9410956 2.09344398 33.97074607 2.08911133 51.02081299-.00016129 3.30361117.01355501 6.60666033.04101562 9.91015625.36570383 44.72402357-2.96184606 94.89266144-19.41162109 136.95751953-2.71484375 2.1171875-2.71484375 2.1171875-5.9375 3.875-1.06089844.59554688-2.12179687 1.19109375-3.21484375 1.8046875-2.84765625 1.3203125-2.84765625 1.3203125-5.84765625 1.3203125v4c-.99 0-1.98 0-3 0-.07444336-.60199219-.14888672-1.20398438-.22558594-1.82421875-1.05886792-2.97497822-2.41461794-3.49645456-5.16503906-4.98828125-.92619141-.51175781-1.85238281-1.02351563-2.80664062-1.55078125-1.00740235-.54011719-2.01480469-1.08023437-3.05273438-1.63671875-2.12014943-1.16601638-4.23993378-2.33269681-6.359375-3.5-1.07443359-.58652344-2.14886719-1.17304687-3.25585938-1.77734375-4.57860394-2.51609264-9.10686555-5.11677694-13.63476562-7.72265625-6.29732309-3.6088254-12.60809209-7.19248717-18.93261719-10.75341797-9.81902016-5.52881756-19.57119145-11.15871451-29.28735351-16.86621094-5.3771601-3.14520533-10.78013855-6.23576111-16.2331543-9.24755859-.58811462-.32495453-1.17622925-.64990906-1.78216553-.98471069-2.82202837-1.55695612-5.6477887-3.10663613-8.47857666-4.64761353-2.0710217-1.13659872-4.12290957-2.30894937-6.15142822-3.51977539-2.51928643-1.45553831-4.98147296-2.49314139-7.72674561-3.44802856-4.86973079-1.94567013-8.86646576-4.15095481-11.90795898-8.53268433-2.81673692-9.1002789-1.91329275-19.24496042-1.62230301-28.67822504.10056978-3.81252519.10946058-7.62528505.12840653-11.43893194.04957808-7.20869609.18063943-14.41347302.34159183-21.62044895.17933866-8.20991848.26693058-16.4200323.34712696-24.63142431.16689094-16.87925076.4479914-33.75469497.80517769-50.63096976 1.13445541-.61773788 1.13445541-.61773788 2.29182911-1.24795532.99156947-.54030853 1.98313894-1.08061707 3.00475597-1.63729859 1.47476791-.80336288 1.47476791-.80336288 2.97932911-1.62295532 2.90086799-1.58860197 5.77844631-3.21199323 8.64205456-4.86679077 1.52077148-.87785156 1.52077148-.87785156 3.07226563-1.7734375 1.05509765-.61101562 2.11019531-1.22203125 3.19726562-1.8515625 1.69286133-.97839844 1.69286133-.97839844 3.41992188-1.9765625 8.46000538-4.89189121 16.90176523-9.81492853 25.33935546-14.74536133 10.65590197-6.22280158 21.34929047-12.38029203 32.04101563-18.54125976 4.46498664-2.57447844 8.92660834-5.1547448 13.38720703-7.73681641 1.15508057-.66781494 1.15508057-.66781494 2.33349609-1.34912109 4.25760127-2.46374688 8.49651368-4.95665244 12.72900391-7.46337891 4.82420952-2.82705425 9.76849872-5.3199287 14.796875-7.76171875 3.19680396-1.64806984 6.12664563-3.54651315 9.046875-5.640625 2.35094748-1.07395555 3.29884376-.64439832 5.71875.21484375z" transform="translate(1354 400)"/><path d="m0 0c4.8746468 1.75838963 9.29265669 4.24633299 13.8125 6.75.87164795.48098145 1.7432959.96196289 2.64135742 1.45751953 7.87441572 4.37073529 15.64975717 8.90506465 23.41748047 13.46191406 6.75993685 3.96188744 13.55121003 7.8612589 20.37866211 11.70556641 49.85597919 28.07624501 49.85597919 28.07624501 62.60667419 35.89846802 3.05526126 1.81489442 3.05526126 1.81489442 6.30085755 2.70468139 3.9980549 1.47934334 6.05852941 2.75170397 8.84246826 6.02185059 2.33212754 8.01987882 1.38775628 16.93579904 1.171875 25.18359375-.02239082 2.50102161-.03946797 5.00209597-.05145264 7.50318909-.04107584 5.90136517-.13554954 11.79996651-.25619387 17.70020109-.14761176 7.38029195-.2118057 14.76092155-.27829099 22.14231295-.12856889 13.15826356-.33096479 26.31431294-.5859375 39.47070312-8.06652174.02312737-16.13302972.04091709-24.19957638.05181217-3.74525399.00522797-7.49048538.01232405-11.23572635.02362728-3.61151414.01083196-7.22300648.01683804-10.8345356.01943779-1.38076496.0018537-2.76152867.00547325-4.1422844.01085282-1.92763679.00721441-3.85529534.00767803-5.78294563.00779533-1.64880409.00333092-1.64880409.00333092-3.33091736.00672913-2.47401428-.12025452-2.47401428-.12025452-3.47401428-1.12025452-2.52258918-.39866584-5.03239866-.74162436-7.56640625-1.05078125-1.60377646-.2033189-3.20753552-.40677504-4.8112793-.61035156-.84573578-.10590454-1.69147155-.21180908-2.56283569-.32092285-51.57015747-6.49931522-101.44300837-18.84799546-149.05947876-40.01794434-1.07443359-.47324707-2.14886719-.94649414-3.25585938-1.43408203-13.51905306-5.97704011-26.84890259-12.32671493-39.74414062-19.56591797-.89332031-.32911377-1.78664063-.65822754-2.70703125-.99731445-2.29296875-2.00268555-2.29296875-2.00268555-2.72505188-4.00949097-.14978843-2.72364359-.12883248-5.4030423-.05619812-8.12991333.00707474-.99457718.01414948-1.98915436.0214386-3.01387024.02801107-3.17973234.09076343-6.35771007.15434265-9.53691101.02507412-2.15427146.04788883-4.3085705.06835938-6.46289062.05515722-5.28380279.13884964-10.56658076.24414062-15.84960938.63341309-.30945557 1.26682617-.61891113 1.91943359-.93774414 5.36336493-2.64648318 10.57971732-5.42124998 15.70556641-8.49975586 1.46713439-.8716217 2.93460301-1.74268098 4.40234375-2.61328125.78874512-.46873535 1.57749023-.9374707 2.39013672-1.42041016 4.91032038-2.90682796 9.84076709-5.77924143 14.77001953-8.65380859 1.04172363-.6077124 2.08344727-1.2154248 3.15673828-1.84155273 6.28042206-3.6600045 12.57917408-7.28386972 18.89794922-10.87719727 4.98298205-2.84741831 9.92924988-5.75808435 14.8828125-8.65625 10.37841044-6.07079786 20.80514663-12.05330088 31.25830078-17.99414062 5.87304496-3.3433412 11.70462733-6.72892273 17.45117188-10.28613282 3.25287066-1.83216931 6.65489646-2.96592982 10.16552734-4.21972656z" transform="translate(726 878)"/><path d="m0 0c3.86967828.03137325 7.73942158.04453287 11.60919189.05950928 7.51579371.03162894 15.03127994.08243018 22.546875.14648437.13053396 24.00577047-.07229204 47.9982627-.5 72-.01793672 1.00690573-.01793672 1.00690573-.0362358 2.03415299-.14878075 8.32205965-.30345115 16.64400181-.4637642 24.96584701-.66753799.25825058-1.33507598.51650116-2.0228424.78257752-.88586289.34752823-1.77172577.69505645-2.68443299 1.05311584-.87378799.34075058-1.74757598.68150116-2.6478424 1.03257752-4.27433903 1.82896386-8.14368997 4.24070895-12.08238221 6.69422912-1.76354879 1.07809025-3.52789056 2.15488429-5.29296875 3.23046875-.88220214.53931153-1.76440429 1.07862305-2.67333984 1.63427735-3.91636444 2.37250515-7.87728369 4.66457415-11.84619141 6.9477539-1.57429893.90741299-3.14851578 1.81496839-4.72265625 2.72265625-.80969238.46680176-1.61938476.93360352-2.45361328 1.41455078-4.76192266 2.75271834-9.51114885 5.52720813-14.26123047 8.30029297-.99523681.58096436-1.99047363 1.16192871-3.01586914 1.76049805-2.04422528 1.19337937-4.08841428 2.38682091-6.13256836 3.58032226-3.28317814 1.91620058-6.56725091 3.83086-9.8515625 5.74511719-1.08837158.63446045-2.17674316 1.2689209-3.2980957 1.92260742-2.08695027 1.21652572-4.1740212 2.43284448-6.26123047 3.64892579-.94335205.55002685-1.8867041 1.10005371-2.85864258 1.66674804-.82653076.48170655-1.65306152.96341309-2.50463867 1.4597168-1.68436895.98921617-3.35640089 1.99958838-5.01904297 3.02490234-2.37084961 1.37866211-2.37084961 1.37866211-5.19897461 2.30053711-3.94004767 1.33922803-7.32761153 3.25472646-10.921875 5.328125-.70374755.39751465-1.40749511.7950293-2.13256835 1.20458985-4.73595868 2.69028084-9.33108835 5.54130416-13.8088379 8.64697265-3.49394896 1.35974325-5.68877568.80811024-9.30859375-.1015625-2.92426305-1.35368228-5.63281666-2.9999121-8.375-4.6875-1.6928209-1.01110876-3.38689622-2.02011946-5.08203125-3.02734375-.89799316-.53608886-1.79598632-1.07217773-2.7211914-1.62451172-4.91235981-2.89097347-9.90163364-5.64320198-14.88427735-8.41064453-9.71072013-5.41466484-19.36060741-10.92712215-28.98339843-16.49633789-8.074405-4.67265455-16.16489788-9.31607538-24.26660157-13.94116211-.58739959-.33537781-1.17479919-.67075561-1.77999877-1.01629638-2.88156599-1.64514426-5.76336561-3.28987817-8.64529419-4.93438721-5.73226455-3.27153491-11.46255941-6.54651862-17.19213868-9.82275391-3.80967688-2.17804161-7.62085012-4.35329821-11.43725586-6.51953125-.99314209-.56460937-.99314209-.56460937-2.00634765-1.140625-1.73419432-.98555305-3.46934951-1.96941481-5.20458985-2.953125-2.421875-1.42578125-2.421875-1.42578125-3.421875-2.42578125-.08843793-2.44830426-.11528751-4.86820599-.09765625-7.31640625.00141495-.73105453.0028299-1.46210907.00428772-2.21531677.00561445-2.3436333.01816932-4.68717237.03086853-7.03077698.00501315-1.58528508.00957638-3.17057165.01367188-4.75585937.01104816-3.89391673.02832241-7.78776268.04882812-11.68164063h3c.433125-.433125.86625-.86625 1.3125-1.3125 2.25451555-2.25451554 4.84301867-3.26525933 7.6875-4.6875.78375-.7425 1.5675-1.485 2.375-2.25 2.94250933-1.96167288 3.58100458-1.9247235 6.9375-1.5l3.6875.75c0-1.32 0-2.64 0-4 .33-.66.66-1.32 1-2 1.92578125-.5625 1.92578125-.5625 4.3125-1 2.50569783-.46386472 4.51154908-.91120844 6.79296875-2.0625 1.89453125-.9375 1.89453125-.9375 4.89453125-.9375.2475-.639375.495-1.27875.75-1.9375 1.25-2.0625 1.25-2.0625 3.07421875-2.6015625.71800782-.15210937 1.43601563-.30421875 2.17578125-.4609375 1.35725865-.47033715 2.71129127-.9500546 4.0625-1.4375 5.21395691-1.77274535 10.5091079-2.70004518 15.9375-3.5625 0-.66 0-1.32 0-2 .71285157-.18175781 1.42570313-.36351562 2.16015625-.55078125 6.41226572-1.65899695 6.41226572-1.65899695 12.58984375-4.01171875 3.36977512-1.49047745 6.71096737-2.42634782 10.25-3.4375 1.155-.495 2.31-.99 3.5-1.5 3.46638873-1.48559516 6.86558958-2.50879716 10.5-3.5.928125-.33 1.85625-.66 2.8125-1 3.54474528-1.11207695 7.06824207-1.79090539 10.72265625-2.4375 2.48408262-.4930282 2.48408262-.4930282 4.78125-1.53125 3.44245189-1.32286361 6.9392938-1.91563075 10.55859375-2.53125 5.16008805-.88765219 10.08514662-2.04913312 15.125-3.5 1.90976819-.35221134 3.82728375-.66468215 5.75-.9375 3.80661691-.55306125 7.60869933-1.11437902 11.40234375-1.75 4.94129101-.82550666 9.89218324-1.57737769 14.84765625-2.3125.89258011-.13339782 1.78516022-.26679565 2.70478821-.40423584 18.76549355-2.71108982 37.23372252-2.97200324 56.1391449-2.80175781zm-196.84393311 41.20599365c-.33.66-.66 1.32-1 2h2c-.33-.66-.66-1.32-1-2zm-15 7c-.33.66-.66 1.32-1 2 1.32-.33 2.64-.66 4-1-.99-.33-1.98-.66-3-1zm-14 7c1 2 1 2 1 2z" transform="translate(842.843933 18.794006)"/><path d="m0 0c4.47532574.53429364 7.59707845 1.62849839 11.46484375 3.921875 1.03511719.60650391 2.07023437 1.21300781 3.13671875 1.83789062 1.10085938.65677735 2.20171875 1.31355469 3.3359375 1.99023438 1.75620022 1.03339351 3.51434512 2.06342765 5.27249146 3.09350586 1.19439651.7002261 2.38813948 1.40156811 3.58123779 2.10400391 5.53058922 3.25452699 11.11288601 6.41205298 16.70877075 9.55249023 9.18949399 5.17405702 18.33155904 10.42688402 27.46142578 15.70532227 7.37784385 4.2639037 14.76650984 8.50840473 22.16625977 12.73416137 1.73706816.99216397 3.47363817 1.98519992 5.21020507 2.97824097 5.53077534 3.16151745 11.06637196 6.31403098 16.61401368 9.44587707 2.61648807 1.47778772 5.23073908 2.95950686 7.84478759 4.44160462 1.25355564.70924486 2.50822563 1.416524 3.76403809 2.12176514 1.73638454.97524203 3.46879247 1.95755423 5.20098877 2.94021606.98959717.55800293 1.97919434 1.11600586 2.9987793 1.69091797 2.23950195 1.44189453 2.23950195 1.44189453 3.23950195 3.44189453-5.75-.875-5.75-.875-8-2v2c-.804375.2475-1.60875.495-2.4375.75-2.733581.97238859-2.733581.97238859-3.375 3.375-.061875.61875-.12375 1.2375-.1875 1.875-.99 0-1.98 0-3 0-.66 1.32-1.32 2.64-2 4-.66 0-1.32 0-2 0v3c-.598125-.226875-1.19625-.45375-1.8125-.6875-.721875-.103125-1.44375-.20625-2.1875-.3125-1.58333333 1.41666667-1.58333333 1.41666667-3 3-.99 0-1.98 0-3 0 .33.99.66 1.98 1 3-1.98.99-1.98.99-4 2-.66-.66-1.32-1.32-2-2-.0825.5775-.165 1.155-.25 1.75-.99520556 2.98561669-2.27450434 4.32461449-4.75 6.25-2.75.25-2.75.25-5 0-.33.99-.66 1.98-1 3-2.0625.6875-2.0625.6875-4 1v3c-.66 0-1.32 0-2 0v2c-2.64738916 1.4606285-3.89448334 2-7 2v2c-18.43902783 9.82979283-36.92173219 19.33809775-56.25 27.3125-.72288208.2994754-1.44576416.59895081-2.19055176.90750122-16.24741379 6.69942664-32.76560657 12.32481917-49.62194824 17.27999878-.80952118.23811401-1.61904236.47622803-2.45309448.72155762-4.80386169 1.40948915-9.61196129 2.80362995-14.42385864 4.1854248-1.79616787.5169303-3.5906204 1.03981343-5.38476563 1.5637207-24.91109295 7.18785288-51.42318042 10.86112969-77.20077515 13.39593506-3.86204865.3390992-3.86204865.3390992-7.4750061 1.63336182-.07113866-23.44360722.09997451-46.87546186.46356201-70.31616211.06225514-4.05148507.12145191-8.10301497.18096924-12.15454101.11563583-7.84314361.23442678-15.68623464.35546875-23.52929688.73007263-.3960997 1.46014526-.7921994 2.21234131-1.20030212 7.19785144-3.91331842 7.19785144-3.91331842 14.30328369-7.99110413 1.39532959-.81911865 1.39532959-.81911865 2.81884766-1.65478516.96212402-.56638183 1.92424804-1.13276367 2.91552734-1.71630859 9.36484217-5.4931948 18.78208016-10.88310671 28.26269531-16.17407227 3.54921686-1.98948994 7.03088103-3.94971335 10.38574219-6.25561523 3.83818635-2.48466975 7.86575772-4.40731092 11.96533203-6.42333984 4.81188366-2.43103884 9.43608972-5.1516564 14.07373047-7.89697266 1.0012793-.58813477 2.00255859-1.17626953 3.03417969-1.78222656 2.74643178-1.61362308 5.49092876-3.23048205 8.23480224-4.84844971 5.19553651-3.06145021 10.39704015-6.11275995 15.59823609-9.1645813 1.91739172-1.12586566 3.83363552-2.25366481 5.74972534-3.38174438 1.18494784-.69625768 2.36992368-1.3924677 3.55493164-2.08862305 1.04124023-.61262695 2.08248047-1.22525391 3.15527344-1.85644531 6.230049-3.56542969 6.230049-3.56542969 9.73535156-3.56542969 0-.66 0-1.32 0-2zm125 73 3 3 2-1c-2.475-.99-2.475-.99-5-2zm-11 14c1 2 1 2 1 2z" transform="translate(1037 884)"/><path d="m0 0c13.61701564 1.57689973 27.09348179 3.30108053 40.5 6.1875 1.05619537.22351135 1.05619537.22351135 2.13372803.45153809 5.12980492 1.08639207 10.25008925 2.21224398 15.36627197 3.36096191.68743286.15382141 1.37486572.30764282 2.08312988.46612549 21.17327751 4.76010434 41.54232509 11.08784136 61.91687012 18.53387451 1.14162598.40976074 2.28325195.81952148 3.45947266 1.24169922 16.70580399 6.01546947 32.58919561 13.31027873 48.45654296 21.22363281 2.54631471 1.26711006 5.09943202 2.51600181 7.66210938 3.74951172 17.85936182 8.64579254 34.93610802 18.76615101 51.421875 29.78515625 1.37715975.91082856 2.75476522 1.82098356 4.1328125 2.73046875 6.03172264 3.99196423 11.99692718 8.04234634 17.8671875 12.26953125-3.71813606 2.97643534-7.76933082 5.29794015-11.875 7.6875-.75522949.44206787-1.51045898.88413574-2.28857422 1.33959961-4.63690271 2.70868091-9.29302582 5.38144699-13.96142578 8.03540039-4.58027686 2.60548481-9.11769217 5.27080443-13.625 8-10.39727443 6.29016603-20.95673495 12.30919512-31.49731445 18.35498047-1.63723735.94124811-3.2721212 1.88663987-4.90185547 2.84082031-3.30893489 1.93069821-6.59591217 3.59358209-10.16333008 4.99169922-.84175781.33515625-1.68351562.6703125-2.55078125 1.015625-2.13671875.734375-2.13671875.734375-4.13671875.734375v2c-1.24735567.6509259-2.49801832 1.29551669-3.75 1.9375-.69609375.35964844-1.3921875.71929687-2.109375 1.08984375-2.04286933.92823807-3.95177876 1.50432203-6.140625 1.97265625v2c-.63808594.15210938-1.27617188.30421875-1.93359375.4609375-3.14974799 1.14983-4.80507739 2.01746749-7.06640625 4.5390625-1.52095566 5.81050381-1.15461801 12.04411428-1 18-.33 0-.66 0-1 0 .17144531-1.23234375.34289063-2.4646875.51953125-3.734375.43319427-5.29537107.54373574-10.28733996-1.51953125-15.265625-4.71180548-5.11648388-11.65637939-7.69112688-17.87646484-10.52685547-5.30173651-2.50044381-10.34682417-5.44577867-15.43603516-8.34814453-2.12061603-1.18575061-4.24171224-2.37064283-6.36328125-3.5546875-7.15284222-4.01928927-14.22884448-8.16576911-21.30395508-12.31982422-7.12500526-4.1726936-14.30547082-8.23529434-21.52026367-12.25048828-9.42277715-5.24403794-18.76210288-10.61552192-28.06274414-16.07299805-6.58575362-3.86095669-13.20510397-7.6523161-19.8828125-11.35205078-4.45627438-2.47678219-4.45627438-2.47678219-5.55444336-3.57495117-.09516211-2.7388842-.12554594-5.45247941-.11352539-8.19165039-.00014603-.85846024-.00029205-1.71692047-.00044251-2.60139465.00069943-2.85156234.0084932-5.70306021.01631165-8.55461121.00186407-1.97155217.00328803-3.9431048.00428772-5.91465759.00382602-5.19994883.01365701-10.39986991.02470398-15.59980774.01021233-5.30181503.01479326-10.60363452.01983643-15.90545654.01073879-10.41081951.02781621-20.82161839.04882812-31.23242188z" transform="translate(915 22)"/><path d="m0 0 40.25-.25c4.17172852-.03641602 8.34345703-.07283203 12.64160156-.11035156 5.15087891-.01806641 5.15087891-.01806641 7.57318115-.02142334 1.66784961-.00608475 3.33568321-.02003164 5.00341797-.04052735 12.93540485-.15082454 25.11554444.05029543 34.97711182 9.62542725 5.79834251 6.70160189 5.75552408 14.2772203 5.8046875 22.671875.020625.87269531.04125 1.74539063.0625 2.64453125.0417288 6.93741375-.99594548 11.71347307-5.5625 17.16796875-3.11029648 2.61547658-6.16366437 4.41385172-9.75 6.3125.66386719.268125 1.32773437.53625 2.01171875.8125 6.49947263 2.88443749 10.05139602 5.65805285 12.98828125 12.1875 1.73745357 5.21236072 1.22706431 10.73167178 1.25 16.1875.020625 1.20720703.04125 2.41441406.0625 3.65820312.03391631 7.75411685-.33003221 13.75575023-4.78515625 20.32617188-12.87325658 12.77836771-32.30001076 10.98688566-49.109375 10.92578125-1.37674926-.00147529-2.75349909-.00249237-4.13024902-.00305176-5.03341528-.0051849-10.06681846-.0191457-15.10021973-.03210449-11.281875-.020625-22.56375-.04125-34.1875-.0625 0-40.26 0-80.52 0-122zm26 26v70l19.375.125c1.99724121.01820801 3.99448242.03641602 6.05224609.05517578 1.61539442.00585116 3.23079183.01094523 4.84619141.01513672.81251221.01023193 1.62502441.02046387 2.4621582.03100586 10.060696.16123495 10.060696.16123495 18.98812867-3.61227417 3.41280731-4.31601267 2.8386883-10.41552712 2.27627563-15.61404419-2.09780939-3.61691275-3.04874226-4.68291409-7-6-2.65894107-.08494728-5.29085377-.11594796-7.94921875-.09765625-1.15892509.00212242-1.15892509.00212242-2.34126282.00428772-2.46571232.00559387-4.93133358.0181452-7.39701843.03086853-1.67252473.00501579-3.34505088.00957856-5.01757812.01367188-4.09837054.01016965-8.19654436.02974618-12.29492188.04882812 0-7.92 0-15.84 0-24 2.74957031.03480469 2.74957031.03480469 5.5546875.0703125 2.44010007.01877 4.88020457.03696887 7.3203125.0546875 1.80597656.02513672 1.80597656.02513672 3.6484375.05078125 12.26375116.40791097 12.26375116.40791097 23.1015625-4.30078125 1.79931714-3.76220857 2.21904616-6.77889362 1.375-10.875-1.79363911-2.8100346-3.01880935-4.50940468-6-6-1.51164392-.08977728-3.02720179-.11757433-4.54150391-.11352539-1.43098022.00018127-1.43098022.00018127-2.89086914.00036621-1.00458252.00511597-2.00916504.01023193-3.04418945.01550293-1.38288208.00151062-1.38288208.00151062-2.79370117.00305176-3.45159139.00524127-6.90316508.01920249-10.35473633.03210449-11.570625.0309375-11.570625.0309375-23.375.0625z" transform="translate(375 1193)"/><path d="m0 0 39.6875-.25c4.11041748-.03641602 8.22083496-.07283203 12.45581055-.11035156 5.08288574-.01806641 5.08288574-.01806641 7.47468567-.02142334 1.64363966-.00607689 3.28726334-.02000666 4.93078613-.04052735 11.75948185-.13927739 23.51659581-.11433081 33.51371765 7.04730225 5.1075115 5.05332664 7.11706581 12.03697296 7.43359375 19.06640625.00130737 1.95712827-.01839614 3.9143779-.05859375 5.87109375.00708984.97646484.01417969 1.95292969.02148438 2.95898438-.06669291 7.66968408-.98266727 15.54267026-6.39648438 21.41601562-.48339844.54527344-.96679688 1.09054687-1.46484375 1.65234375-1.74915655 1.54387656-3.47501223 2.46115558-5.59765625 3.41015625.47050781.49628906.94101563.99257812 1.42578125 1.50390625.93392578 1.01900391.93392578 1.01900391 1.88671875 2.05859375.92232422.99193359.92232422.99193359 1.86328125 2.00390625 4.29033113 5.72350385 5.65357392 12.29348111 7.0859375 19.1640625.19551956.91284256.39103912 1.82568512.59248352 2.76618958.40920182 1.91794823.81492344 3.83664196 1.21733093 5.75602722.61660598 2.93785985 1.24529721 5.87294142 1.87573242 8.80786133.39719761 1.86898919.79370607 3.738125 1.18945313 5.60742187.18745285.87609421.3749057 1.75218842.56803894 2.65483093.25575554 1.22696343.25575554 1.22696343.51667786 2.47871399.15083542.71612961.30167083 1.43225922.45707702 2.17008972.32148743 2.02839661.32148743 2.02839661.32148743 6.02839661-9.24 0-18.48 0-28 0-3.35284777-14.52900699-3.35284777-14.52900699-4.24609375-19.74609375-.19787109-1.10408203-.39574219-2.20816406-.59960937-3.34570313-.39910546-2.25632887-.78954349-4.51420581-1.171875-6.7734375-1.32147532-7.26597594-2.70139031-11.85373405-7.98242188-17.13476562-3.20538403-.37346668-3.20538403-.37346668-6.9765625-.4140625-.6852475-.01936615-1.370495-.0387323-2.07650757-.0586853-2.19051637-.05982051-4.38108523-.10618976-6.57192993-.1522522-1.48439802-.03817763-2.96877384-.07722924-4.453125-.1171875-3.64051-.09773181-7.28078115-.17727608-10.921875-.2578125 0-8.58 0-17.16 0-26 2.87525391-.07347656 2.87525391-.07347656 5.80859375-.1484375 2.54298211-.07506958 5.08595019-.15061558 7.62890625-.2265625 1.26005859-.0309375 2.52011719-.061875 3.81835938-.09375 11.70591454.20017382 11.70591454.20017382 21.74414062-4.53125.39689576-3.02172534.39689576-3.02172534.375-6.4375.02835938-1.15371094.05671875-2.30742188.0859375-3.49609375-.17136368-3.58039569-.17136368-3.58039569-4.4609375-6.06640625-15.18-.33-30.36-.66-46-1v96c-8.91 0-17.82 0-27 0 0-40.26 0-80.52 0-122z" transform="translate(1576 1193)"/><path d="m0 0c1.62238164.00560599 3.24476841.00987134 4.86715698.01286316 4.23821414.01136995 8.47611227.04076795 12.71420288.07411194 4.33741992.03087168 8.67489166.04442967 13.01239014.05950928 8.48713925.03202535 16.97396247.08472752 25.4609375.14648437v26c-1.94285889.00410889-3.88571777.00821777-5.88745117.01245117-6.4263452.01941236-12.85222139.06174206-19.2783308.1196394-3.89541955.03426035-7.79044734.05937837-11.68602467.06346607-3.76104538.0042852-7.52120719.0327643-11.2819767.07787514-1.43322473.01296826-2.86655525.01728499-4.29983139.01272201-2.01072966-.00490952-4.02145495.02406616-6.03196144.05442238-1.14361496.00666184-2.28722992.01332367-3.46549988.02018738-3.85323393.51011592-3.85323393.51011592-8.06892395 5.63923645-.33 4.95-.66 9.9-1 15h71v26c-23.43 0-46.86 0-71 0-.81578383 15.2869189-.81578383 15.2869189 6 21 2.55226842.67966994 4.40160378.92124113 7 1 .94301971.03586212 1.88603943.07172424 2.8576355.1086731 3.50456263.10385954 7.00768802.16019743 10.51345825.20773315 1.27746597.0207811 2.55493195.04156219 3.87110901.06297302 3.37498343.05411527 6.74997903.10442194 10.12504578.15284729 3.45250445.05048623 6.90492827.10598147 10.35736084.16113281 6.75840055.10759845 13.51685114.20690708 20.27539062.30664063v26c-7.59164091.02106838-15.18317365.04109265-22.77481842.05175018-3.53658064.00524341-7.07313664.01223004-10.60970306.02368927-4.07365128.01311435-8.14727717.01782806-12.22094727.0222168-1.86799507.00774193-1.86799507.00774193-3.77372742.01564026-29.15300494.00183456-29.15300494.00183456-39.05830383-7.30079651-9.54503201-10.47625465-9.87845651-22.37551696-9.86328125-35.92578125-.00389705-1.46054707-.00823375-2.92109303-.01298523-4.38163757-.00742562-3.05015244-.00719815-6.10018905-.00190735-9.15034485.00578309-3.87629411-.01112585-7.75210859-.03434467-11.62832356-.01485465-3.01407343-.01559315-6.02803453-.01249027-9.0421381-.00050757-1.42750114-.00563699-2.85500954-.01581192-4.28247451-.07653017-12.23805495.36145693-24.25200966 9.37832069-33.40180016 9.46832945-7.96200431 21.27042866-7.41235117 32.9453125-7.29296875z" transform="translate(1043.945313 1192.707031)"/><path d="m0 0c1.62238164.00560599 3.24476841.00987134 4.86715698.01286316 4.23821414.01136995 8.47611227.04076795 12.71420288.07411194 4.33741992.03087168 8.67489166.04442967 13.01239014.05950928 8.48713925.03202535 16.97396247.08472752 25.4609375.14648437v26c-1.94285889.00410889-3.88571777.00821777-5.88745117.01245117-6.4263452.01941236-12.85222139.06174206-19.2783308.1196394-3.89541955.03426035-7.79044734.05937837-11.68602467.06346607-3.76104538.0042852-7.52120719.0327643-11.2819767.07787514-1.43322473.01296826-2.86655525.01728499-4.29983139.01272201-2.01072966-.00490952-4.02145495.02406616-6.03196144.05442238-1.14361496.00666184-2.28722992.01332367-3.46549988.02018738-3.85323393.51011592-3.85323393.51011592-8.06892395 5.63923645-.33 4.95-.66 9.9-1 15h71v26c-23.43 0-46.86 0-71 0-.81578383 15.2869189-.81578383 15.2869189 6 21 2.55226842.67966994 4.40160378.92124113 7 1 .94301971.03586212 1.88603943.07172424 2.8576355.1086731 3.50456263.10385954 7.00768802.16019743 10.51345825.20773315 1.27746597.0207811 2.55493195.04156219 3.87110901.06297302 3.37498343.05411527 6.74997903.10442194 10.12504578.15284729 3.45250445.05048623 6.90492827.10598147 10.35736084.16113281 6.75840055.10759845 13.51685114.20690708 20.27539062.30664063v26c-7.59164091.02106838-15.18317365.04109265-22.77481842.05175018-3.53658064.00524341-7.07313664.01223004-10.60970306.02368927-4.07365128.01311435-8.14727717.01782806-12.22094727.0222168-1.86799507.00774193-1.86799507.00774193-3.77372742.01564026-29.15300494.00183456-29.15300494.00183456-39.05830383-7.30079651-9.54503201-10.47625465-9.87845651-22.37551696-9.86328125-35.92578125-.00389705-1.46054707-.00823375-2.92109303-.01298523-4.38163757-.00742562-3.05015244-.00719815-6.10018905-.00190735-9.15034485.00578309-3.87629411-.01112585-7.75210859-.03434467-11.62832356-.01485465-3.01407343-.01559315-6.02803453-.01249027-9.0421381-.00050757-1.42750114-.00563699-2.85500954-.01581192-4.28247451-.07653017-12.23805495.36145693-24.25200966 9.37832069-33.40180016 9.46832945-7.96200431 21.27042866-7.41235117 32.9453125-7.29296875z" transform="translate(580.945313 1192.707031)"/><path d="m0 0c1.64480194.00560578 3.28960895.00987123 4.93441772.01286316 4.29739583.01137155 8.59448013.04077102 12.89175416.07411194 4.39774361.03086815 8.7955383.04442893 13.19335937.05950928 8.60562658.03202819 17.21094159.08473175 25.81640625.14648437v26c-2.09956055.01458252-4.19912109.02916504-6.36230469.04418945-6.93716392.05033838-13.87410319.11693201-20.8110466.19152546-4.20586862.04472655-8.41163987.08397748-12.61766433.11072064-4.05911358.02601043-8.1178529.06639637-12.17673493.11675071-1.54849085.01668411-3.09704646.02818879-4.64561462.03442765-2.16931639.00962467-4.337672.03766209-6.50675202.07001304-1.85199005.01665459-1.85199005.01665459-3.74139404.03364563-3.3609935.4269954-4.75826859 1.03521962-7.13848877 3.39872742-1.38206127 4.03290011-1.33284794 7.88258193-.125 11.9375 4.93688849 4.79168588 13.32029285 4.34470065 19.859375 4.3359375 1.64323589.0202958 3.28646501.04114671 4.9296875.0625 2.53814478.02247876 5.07601837.03903951 7.61425781.04492187 13.36487918.0519832 26.10650333.4645453 36.78417969 9.63085938 7.98569811 8.19500068 10.29229246 16.64732008 10.25 27.86328125.01611328.84691406.03222656 1.69382812.04882812 2.56640625.00791959 10.34297415-3.1560025 18.11495969-10.36132812 25.55859375-12.80408778 11.08882319-30.10622088 10.16028107-46.07421875 10.09765625-1.41917368-.00186996-2.83834802-.00329113-4.25752258-.00428772-3.69719797-.00377973-7.39435533-.01357-11.09153748-.02470398-3.78793794-.01031301-7.57588257-.01481462-11.36383057-.01983642-7.40431734-.01065695-14.80859307-.02821571-22.21289062-.04882813 0-8.58 0-17.16 0-26 1.89161865-.01981934 3.7832373-.03963867 5.73217773-.06005859 6.27851165-.06801227 12.55686893-.14480489 18.83520413-.22746849 3.80326789-.04975906 7.60651072-.09608927 11.40991306-.13434792 3.67652435-.03711248 7.35282794-.08353932 11.02916146-.13618851 1.39643827-.01840708 2.79292361-.03356446 4.18943405-.04528045 12.7037831.26854885 12.7037831.26854885 24.30410957-4.08415604 2.07268082-3.19538293 2.43447453-5.51202297 2.5-9.3125-1.11392297-3.10725881-1.90279588-5.24083239-4.65698242-7.14648437-3.25923191-1.18727465-6.17825147-1.14774256-9.64379883-1.19726563-.71343063-.0146228-1.42686127-.02924561-2.16191101-.04431152-2.2832115-.04636121-4.56634465-.08054237-6.84980774-.11193848-31.28630939-.44146534-31.28630939-.44146534-41.6875-6.5-.62261719-.34804687-1.24523437-.69609375-1.88671875-1.0546875-7.03246259-4.42389187-10.81818741-10.99340592-12.98828125-18.8828125-2.47445276-11.65054842-1.60593713-23.2297178 5-33.4375 10.25630282-13.39554854 24.41104623-14.07554211 40.0390625-13.91796875z" transform="translate(738.164063 1192.707031)"/><path d="m0 0h27v46c4.95-.268125 9.9-.53625 15-.8125 1.54558594-.07710205 3.09117188-.1542041 4.68359375-.23364258 11.48187396-.45897132 11.48187396-.45897132 21.39331055-5.75048828 5.86916349-6.72453987 7.33399701-17.89652213 9.6105957-26.32836914.60508097-2.23258387 1.21299241-4.46440325 1.82421875-6.6953125.26256592-.97211426.52513184-1.94422852.7956543-2.94580078.69262695-2.23388672.69262695-2.23388672 1.69262695-3.23388672 2.07262076-.08767112 4.14820294-.10695873 6.22265625-.09765625 1.26005859.00322266 2.52011719.00644531 3.81835937.00976563 1.34049547.00835659 2.68099026.01682155 4.02148438.02539062 1.34439942.0050134 2.6888006.00957658 4.03320312.01367188 3.30147629.01183324 6.60286491.02831841 9.90429688.04882812-2.03688693 8.47713145-4.3177165 16.87053402-6.796875 25.22827148-.38659035 1.31012989-.76840242 2.62167888-1.14550781 3.93457032-5.97592791 20.79963509-5.97592791 20.79963509-13.74511719 25.3371582-.76699219.4640625-1.53398437.928125-2.32421875 1.40625-1.31557247.72369409-2.6453102 1.42226448-3.98828125 2.09375.97839844.38478516.97839844.38478516 1.9765625.77734375 9.65206931 4.22811886 13.13595038 10.4812084 16.86376953 19.97827148 2.31096125 6.4653398 4.22273016 13.05727845 6.16113281 19.64208985.75455453 2.56021876 1.51863687 5.11746219 2.28369141 7.67456054.48363756 1.63069202.96673056 3.26154567 1.44921875 4.89257813.22806335.76247543.45612671 1.52495087.69110107 2.31053162.8799747 3.00628099 1.57452393 5.57452823 1.57452393 8.72462463-9.24 0-18.48 0-28 0-1.94565876-5.18842337-3.64624534-10.01981751-5.0859375-15.31640625-.37697116-1.35499398-.75459504-2.7098065-1.1328125-4.06445313-.58113586-2.09361065-1.15797529-4.18803918-1.72363281-6.28588867-3.13795622-13.05769713-3.13795622-13.05769713-12.30761719-22.2277832-6.89609907-2.12100415-14.59752064-1.68505292-21.75-1.79296875-7.92-.1546875-7.92-.1546875-16-.3125v50c-8.91 0-17.82 0-27 0 0-40.26 0-80.52 0-122z" transform="translate(42 1193)"/><path d="m0 0h27c.01458252 2.60406738.02916504 5.20813477.04418945 7.89111328.05036562 8.60951522.11696429 17.21884996.19152546 25.82818794.04470321 5.21920156.08395957 10.43832506.11072064 15.6576519.02603328 5.03814508.06643617 10.07598978.11675071 15.11394883.01666849 1.92085276.02818288 3.84175748.03442765 5.76267242.0096412 2.69330107.03770075 5.38583373.07001304 8.07894516-.00215263 1.1879139-.00215263 1.1879139-.00434875 2.39982605.09483394 5.59920144 1.15641981 9.90591307 5.1867218 14.08015442 6.73802517 3.55617995 15.81608972 2.3711707 23.1875 2.375 1.23685547.01224609 2.47371094.02449219 3.74804688.03710938 11.05314595.29349813 11.05314595.29349813 20.75195312-4.22460938 3.0912911-3.95685261 2.73406905-7.55856851 2.76782227-12.39697266.00989959-.86835983.01979919-1.73671966.02999877-2.63139343.03166054-2.87853746.05639041-5.75709144.08108521-8.63569641.0205656-1.99254797.04156196-3.98509155.06297302-5.97763062.0552614-5.2508488.10465272-10.50173724.15284729-15.75265502.05018535-5.35556578.10588688-10.71107382.16113282-16.06658936.10763134-10.5129734.20855567-21.02599569.30664062-31.5390625h27c.06791537 12.0833641.12289665 24.16660036.15543652 36.25011253.01562152 5.61152582.03679553 11.22291368.07088184 16.83436013.03271882 5.42056245.05056106 10.84099264.05831337 16.26164627.00552107 2.06274241.01630215 4.12547801.03255844 6.18816375.02194076 2.90067526.02476982 5.80081161.023386 8.70155716.01078583.84301667.02157166 1.68603333.03268433 2.55459595-.05070103 9.89283-2.94199247 18.64088852-9.3732605 26.20956421-9.15556491 9.03278914-19.14796387 10.46637679-31.62109375 10.43359375-1.18054459.00524185-2.36108917.0104837-3.57740784.0158844-2.48338539.00639067-4.96680117.0051218-7.45018005-.00343323-3.77456141-.00851277-7.54760898.02030072-11.32202148.05200196-2.42512976.00161234-4.85026217.00103385-7.27539063-.00195313-1.11491318.01123398-2.22982635.02246796-3.37852478.03404236-11.34418853-.09964038-20.04615227-3.08672189-28.21131897-11.05747986-11.12622146-12.7128126-9.45173806-30.79319422-9.359375-46.65234375.00373924-1.90813039.0065819-3.81626273.00857544-5.72439575.00756479-4.97457362.02715012-9.9490268.04940796-14.92355347.02061428-5.09519828.02962678-10.19041639.03967285-15.28564453.02132336-9.96230048.05644544-19.92448067.09765625-29.88671875z" transform="translate(205 1193)"/><path d="m0 0c.83490967.00572021 1.66981934.01144043 2.5300293.01733398 8.39619042.24302394 14.46294424 2.48174904 20.4074707 8.54516602 6.48910944 8.69915459 9.27741317 20.27795862 12.63671875 30.45703125.46178771 1.38843912.92393969 2.77675714 1.38642883 4.16496277.96663401 2.90447523 1.93034779 5.80989568 2.89164734 8.71614075 1.19810487 3.62210544 2.40115965 7.24253876 3.60616875 10.86235237 3.07535649 9.2391621 6.12804041 18.48566733 9.16653633 27.73701286.24148018.73460197.48296036 1.46920395.73175812 2.22606659 1.44039196 4.38349431 2.87522401 8.76874386 4.30227852 13.15659904.4451925 1.36704507.89182406 2.73362241 1.339962 4.09970475.61633667 1.88037819 1.2264304 3.76279923 1.83620644 5.64531517.34694412 1.06542526.69388824 2.13085052 1.05134582 3.2285614.7384491 2.64375305.7384491 2.64375305.7384491 5.64375305-9.24 0-18.48 0-28 0-3.37523972-9.00063925-3.37523972-9.00063925-4.81835938-13.41748047-.32499481-.99188827-.64998962-1.98377655-.98483276-3.00572204-.34338409-1.05401505-.68676819-2.10803009-1.04055786-3.19398499-.36602325-1.11899185-.73204651-2.2379837-1.10916138-3.3908844-1.18411044-3.62174104-2.36567141-7.24430772-3.54708862-10.8669281-.81158998-2.48448781-1.62327655-4.96894408-2.43505859-7.45336914-6.0570147-18.54576811-12.08385767-37.10123296-18.06494141-55.67163086-1.65 0-3.3 0-5 0-5.78123413 17.11435833-11.45829451 34.26105259-16.9921875 51.45703125-.21410963.66531298-.42821926 1.33062595-.64881706 2.01609993-2.16734634 6.73681635-4.3302921 13.47503647-6.48854256 20.21477222-.62003109 1.93566751-1.24069428 3.87113113-1.86157226 5.80652714-.76989429 2.40067147-1.53840355 4.80178766-2.30535889 7.20339966-.34197418 1.06602951-.68394837 2.13205902-1.0362854 3.23039246-.29911789.93510406-.59823578 1.87020813-.90641785 2.83364868-.76081848 2.23812866-.76081848 2.23812866-1.76081848 4.23812866-9.24 0-18.48 0-28 0 1.12505635-7.87539445 1.12505635-7.87539445 2.30145264-11.45698547.26340179-.811344.52680359-1.62268799.79818725-2.45861817.28777313-.86614425.57554627-1.73228851.8720398-2.62467956.30422882-.93105561.60845764-1.86211121.92190552-2.82138062 1.00341711-3.06505002 2.01547731-6.12716029 3.02828979-9.18911743.70433405-2.14070647 1.40836998-4.28151104 2.11212158-6.42240906 1.4756051-4.48412651 2.95564332-8.96675992 4.43865967-13.44844055 1.89324405-5.72296802 3.77420145-11.4498868 5.65165329-17.17805195 1.45131442-4.42263826 2.90983355-8.84287542 4.37041855-13.26245975.69602771-2.10938307 1.38970511-4.21954326 2.08091736-6.33050919.97097698-2.96212797 1.95181238-5.92081977 2.93509674-8.87888145.27967621-.86007157.55935241-1.72014313.84750366-2.60627747 3.00555183-8.97026366 6.55433178-18.74822547 14.64175415-24.32218933 5.70910619-2.84296268 11.05306205-3.55033086 17.375-3.5z" transform="translate(1470.375 1190.5)"/><path d="m0 0h100v26c-12.21 0-24.42 0-37 0v96c-8.58 0-17.16 0-26 0 0-31.68 0-63.36 0-96-12.21 0-24.42 0-37 0 0-8.58 0-17.16 0-26z" transform="translate(850 1193)"/><path d="m0 0h27c.01981934 2.57377441.03963867 5.14754883.06005859 7.79931641.06694712 8.50969869.14458615 17.01927573.22746849 25.52883339.0499171 5.15865585.09624764 10.31729168.13434792 15.47604942.03691061 4.97973308.08328642 9.95929677.13618851 14.93888473.01851322 1.89853185.0336325 3.79709997.04528045 5.69568634.01691498 2.66202464.04596272 5.32366395.07780838 7.98554612.00216019.78259185.00432038 1.56518371.00654602 2.37149047.06755121 4.42858008.5699114 8.11755302 2.31230164 12.20419312 5.21772341 4.05822932 13.85469301 3.18629524 20.21484375 3.31640625.85574112.0207811 1.71148224.04156219 2.59315491.06297302 2.7097591.06492027 5.41960774.12411051 8.12950134.18312073 1.84701414.04324005 3.69401952.08685601 5.54101562.13085938 4.50707142.10726303 9.01421917.20676251 13.52148438.30664062v26c-5.68868947.04637519-11.37670048.08605708-17.06542969.10986328-1.92775721.00994351-3.85549981.02350307-5.78320312.04101563-37.72031273.3336344-37.72031273.3336344-47.20605469-7.94384766-12.19571191-13.08129265-10.23960976-32.67182658-10.140625-49.36328125.00374114-1.88285164.00658289-3.76570526.00857544-5.64855957.00754995-4.89892172.02712164-9.79772036.04940796-14.69659424.02064714-5.02165055.02963365-10.04332146.03967285-15.06500244.02129701-9.81126004.05640607-19.62239729.09765625-29.43359375z" transform="translate(1290 1193)"/><path d="m0 0h27c.01981934 2.57377441.03963867 5.14754883.06005859 7.79931641.06694712 8.50969869.14458615 17.01927573.22746849 25.52883339.0499171 5.15865585.09624764 10.31729168.13434792 15.47604942.03691061 4.97973308.08328642 9.95929677.13618851 14.93888473.01851322 1.89853185.0336325 3.79709997.04528045 5.69568634.01691498 2.66202464.04596272 5.32366395.07780838 7.98554612.00216019.78259185.00432038 1.56518371.00654602 2.37149047.06755121 4.42858008.5699114 8.11755302 2.31230164 12.20419312 5.21772341 4.05822932 13.85469301 3.18629524 20.21484375 3.31640625.85574112.0207811 1.71148224.04156219 2.59315491.06297302 2.7097591.06492027 5.41960774.12411051 8.12950134.18312073 1.84701414.04324005 3.69401952.08685601 5.54101562.13085938 4.50707142.10726303 9.01421917.20676251 13.52148438.30664062v26c-5.68868947.04637519-11.37670048.08605708-17.06542969.10986328-1.92775721.00994351-3.85549981.02350307-5.78320312.04101563-37.72031273.3336344-37.72031273.3336344-47.20605469-7.94384766-12.19571191-13.08129265-10.23960976-32.67182658-10.140625-49.36328125.00374114-1.88285164.00658289-3.76570526.00857544-5.64855957.00754995-4.89892172.02712164-9.79772036.04940796-14.69659424.02064714-5.02165055.02963365-10.04332146.03967285-15.06500244.02129701-9.81126004.05640607-19.62239729.09765625-29.43359375z" transform="translate(1157 1193)"/><path d="m0 0c4.44314791 1.33955484 8.23449831 3.10266592 12.25390625 5.4140625.58216782.33333344 1.16433563.66666687 1.7641449 1.01010132 1.22924643.70519749 2.45701439 1.4129778 3.68336487 2.12319946 1.82874366 1.05891047 3.6617849 2.11000646 5.4958496 3.15966797 8.03097443 4.61149332 15.94273229 9.39576607 23.80273438 14.29296875-2.7790738 2.99721398-5.42535769 4.99210285-9.02734375 6.91015625-.95712891.51498047-1.91425781 1.02996094-2.90039063 1.56054687-.99322265.52529297-1.98644531 1.05058594-3.00976562 1.59179688-1.96790107 1.05253862-3.93536377 2.10589731-5.90234375 3.16015625-.87003662.46156494-1.74007324.92312988-2.63647461 1.39868164-1.7691853.96648828-3.50813791 1.98943664-5.22119141 3.05224609-2.30249023 1.32641602-2.30249023 1.32641602-4.30249023 1.32641602-1.27253436-3.64793184-2.32829194-7.1936543-3-11-.66 0-1.32 0-2 0-2.47552242-5.05419161-3.10975925-8.29251881-3-14-.66-.99-1.32-1.98-2-3-.29871063-3.03404655-.37787078-6.04280551-.4609375-9.08984375-.64798681-3.49818967-1.84120828-4.67985844-4.5390625-6.91015625zm7 21c.33 2.31.66 4.62 1 7h1c0-1.98 0-3.96 0-6-.66-.33-1.32-.66-2-1z" transform="translate(349 683)"/><path d="m0 0c1.66413655 3.3282731.81867406 6.99733973.5625 10.625-.05220703.80179688-.10441406 1.60359375-.15820312 2.4296875-.12978059 1.98210353-.26639423 3.96375749-.40429688 5.9453125-2.49210439-2.49210439-2.26015661-4.00360788-2.2734375-7.41015625.00773438-.68964844.01546875-1.37929687.0234375-2.08984375-.00773438-.68964844-.01546875-1.37929687-.0234375-2.08984375.02010457-5.15682332.02010457-5.15682332 2.2734375-7.41015625z" transform="translate(572 127)"/><path d="m0 0 2 1c-.33 4.62-.66 9.24-1 14-.66 0-1.32 0-2 0-.02685412-2.31243792-.04632841-4.6249627-.0625-6.9375-.01160156-1.28777344-.02320313-2.57554687-.03515625-3.90234375.09765625-3.16015625.09765625-3.16015625 1.09765625-4.16015625z" transform="translate(412 369)"/><path d="m0 0c.99.33 1.98.66 3 1-.99.66-1.98 1.32-3 2 3.3 1.98 6.6 3.96 10 6-.33.66-.66 1.32-1 2-3.63-1.98-7.26-3.96-11-6 1-4 1-4 2-5z" transform="translate(1178 940)"/><path d="m0 0 2 1c-2.119212 1.36405618-4.24448118 2.71631775-6.375 4.0625-.60328125.38994141-1.2065625.77988281-1.828125 1.18164062-1.56180057.9804637-3.17679714 1.87502013-4.796875 2.75585938-.66-.33-1.32-.66-2-1 2.119212-1.36405618 4.24448118-2.71631775 6.375-4.0625.60328125-.38994141 1.2065625-.77988281 1.828125-1.18164062 1.56180057-.9804637 3.17679714-1.87502013 4.796875-2.75585938z" transform="translate(898 627)"/><path d="m0 0c2 2 2 2 2.1953125 3.9453125-.06510417 2.01822917-.13020833 4.03645833-.1953125 6.0546875-.99.33-1.98.66-3 1z" transform="translate(562 106)"/><path d="m0 0h2c-.33 5.94-.66 11.88-1 18-.33 0-.66 0-1 0 0-5.94 0-11.88 0-18z" transform="translate(725 858)"/><path d="m0 0c.99.33 1.98.66 3 1-1.6188996 1.03048037-3.24532489 2.04914678-4.875 3.0625-.90492188.56847656-1.80984375 1.13695312-2.7421875 1.72265625-.78632812.40089844-1.57265625.80179688-2.3828125 1.21484375-.66-.33-1.32-.66-2-1 1.42859407-1.03325986 2.86822383-2.05127634 4.3125-3.0625.80050781-.56847656 1.60101562-1.13695312 2.42578125-1.72265625.74636719-.40089844 1.49273438-.80179688 2.26171875-1.21484375z" transform="translate(725 197)"/><path d="m0 0h1v16c-.66-.33-1.32-.66-2-1 .33-4.95.66-9.9 1-15z" transform="translate(1349 378)"/><path d="m0 0h1v15c-.66-.66-1.32-1.32-2-2 .0234375-3.0390625.0234375-3.0390625.375-6.625.11085938-1.18851563.22171875-2.37703125.3359375-3.6015625.09539063-.91523437.19078125-1.83046875.2890625-2.7734375z" transform="translate(573 933)"/><path d="m0 0h1v16c-.33 0-.66 0-1 0 0-5.28 0-10.56 0-16z" transform="translate(572 615)"/><path d="m0 0 2 1c-1.28524261.86380259-2.57842419 1.71580369-3.875 2.5625-.71929688.47566406-1.43859375.95132813-2.1796875 1.44140625-.64195313.32871094-1.28390625.65742187-1.9453125.99609375-.66-.33-1.32-.66-2-1 1.28524261-.86380259 2.57842419-1.71580369 3.875-2.5625 1.07894531-.71349609 1.07894531-.71349609 2.1796875-1.44140625.64195313-.32871094 1.28390625-.65742187 1.9453125-.99609375z" transform="translate(1034 706)"/><path d="m0 0 2 1c-2.97 1.65-5.94 3.3-9 5 0-.66 0-1.32 0-2 5.2734375-3.22265625 5.2734375-3.22265625 7-4z" transform="translate(556 443)"/><path d="m0 0c.99.33 1.98.66 3 1-2.375 1.5625-2.375 1.5625-5 3-.66-.33-1.32-.66-2-1 1.8125-1.5625 1.8125-1.5625 4-3z" transform="translate(1028 200)"/><path d="m0 0c.99.33 1.98.66 3 1-2.375 1.5625-2.375 1.5625-5 3-.66-.33-1.32-.66-2-1 1.8125-1.5625 1.8125-1.5625 4-3z" transform="translate(871 932)"/><path d="m0 0 2 1c-2.375 1.5625-2.375 1.5625-5 3-.66-.33-1.32-.66-2-1 2.375-1.5625 2.375-1.5625 5-3z" transform="translate(718 688)"/><path d="m0 0c.99.33 1.98.66 3 1-1.98.66-3.96 1.32-6 2z" transform="translate(1036 196)"/><path d="m0 0c2.475.99 2.475.99 5 2-.99.495-.99.495-2 1-.99-.99-1.98-1.98-3-3z" transform="translate(716 697)"/><path d="m0 0 2 1c-.33.66-.66 1.32-1 2-.99-.33-1.98-.66-3-1z" transform="translate(711 692)"/><path d="m0 0c2.475.99 2.475.99 5 2-.99.495-.99.495-2 1-.99-.99-1.98-1.98-3-3z" transform="translate(564 453)"/><path d="m0 0 2 1c-1.65.66-3.3 1.32-5 2z" transform="translate(561 440)"/><path d="m0 0 2 1c-1.65.66-3.3 1.32-5 2z" transform="translate(745 380)"/><path d="m0 0 2 1c-1.65.66-3.3 1.32-5 2z" transform="translate(712 205)"/><path d="m0 0h2c-.33.99-.66 1.98-1 3-.66 0-1.32 0-2 0 .33-.99.66-1.98 1-3z" transform="translate(624 69)"/><path d="m0 0 2 1c-1.98.99-1.98.99-4 2 0-.66 0-1.32 0-2z" transform="translate(1024 712)"/><path d="m0 0 4 2c-.99.495-.99.495-2 1-.66-.33-1.32-.66-2-1 0-.66 0-1.32 0-2z" transform="translate(560 450)"/><path d="m0 0 4 1c-.99.495-.99.495-2 1-.66-.66-1.32-1.32-2-2z" transform="translate(1186 463)"/><path d="m0 0 2 1c-.99 0-1.98 0-3 0z" transform="translate(1182 938)"/><path d="m0 0 2 1c-.99 0-1.98 0-3 0z" transform="translate(877 929)"/><path d="m0 0 2 1c-.99 0-1.98 0-3 0z" transform="translate(1198 641)"/><path d="m0 0c.99.33 1.98.66 3 1-.99 0-1.98 0-3 0 0-.33 0-.66 0-1z" transform="translate(571 457)"/><path d="m0 0 2 1c-.33.66-.66 1.32-1 2-.33-.99-.66-1.98-1-3z" transform="translate(555 447)"/><path d="m0 0v3z" transform="translate(342 426)"/><path d="m0 0 2 1c-.99 0-1.98 0-3 0z" transform="translate(1045 387)"/><path d="m0 0 2 1c-.99 0-1.98 0-3 0z" transform="translate(736 385)"/><path d="m0 0 2 1c-.99 0-1.98 0-3 0z" transform="translate(1022 204)"/><path d="m0 0 2 2c-.66 0-1.32 0-2 0 0-.66 0-1.32 0-2z" transform="translate(882 459)"/><path d="m0 0c2 1 2 1 2 1z" transform="translate(576 949)"/><path d="m0 0c2 1 2 1 2 1z" transform="translate(574 948)"/><path d="m0 0c2 1 2 1 2 1z" transform="translate(566 943)"/><path d="m0 0c2 1 2 1 2 1z" transform="translate(1184 937)"/><path d="m0 0c2 1 2 1 2 1z" transform="translate(865 936)"/><path d="m0 0c2 1 2 1 2 1z" transform="translate(874 931)"/><path d="m0 0c2 1 2 1 2 1z" transform="translate(361 728)"/><path d="m0 0c2 1 2 1 2 1z" transform="translate(734 707)"/><path d="m0 0c2 1 2 1 2 1z" transform="translate(732 706)"/><path d="m0 0c2 1 2 1 2 1z" transform="translate(725 702)"/><path d="m0 0c2 1 2 1 2 1z" transform="translate(723 701)"/><path d="m0 0c2 1 2 1 2 1z" transform="translate(352 701)"/><path d="m0 0c2 1 2 1 2 1z" transform="translate(721 700)"/><path d="m0 0c2 1 2 1 2 1z" transform="translate(714 696)"/><path d="m0 0c2 1 2 1 2 1z" transform="translate(712 695)"/><path d="m0 0c2 1 2 1 2 1z" transform="translate(1200 640)"/><path d="m0 0c2 1 2 1 2 1z" transform="translate(1202 639)"/><path d="m0 0c2 1 2 1 2 1z" transform="translate(1204 638)"/><path d="m0 0c2 1 2 1 2 1z" transform="translate(1206 637)"/><path d="m0 0c2 1 2 1 2 1z" transform="translate(1209 635)"/><path d="m0 0c2 1 2 1 2 1z" transform="translate(1201 471)"/><path d="m0 0c2 1 2 1 2 1z" transform="translate(1199 470)"/><path d="m0 0c2 1 2 1 2 1z" transform="translate(1197 469)"/><path d="m0 0c2 1 2 1 2 1z" transform="translate(1192 466)"/><path d="m0 0c2 1 2 1 2 1z" transform="translate(1190 465)"/><path d="m0 0c2 1 2 1 2 1z" transform="translate(891 465)"/><path d="m0 0c2 1 2 1 2 1z" transform="translate(889 464)"/><path d="m0 0c2 1 2 1 2 1z" transform="translate(1189 462)"/><path d="m0 0c2 1 2 1 2 1z" transform="translate(886 462)"/><path d="m0 0c2 1 2 1 2 1z" transform="translate(884 461)"/><path d="m0 0c2 1 2 1 2 1z" transform="translate(578 461)"/><path d="m0 0c2 1 2 1 2 1z" transform="translate(576 460)"/><path d="m0 0c2 1 2 1 2 1z" transform="translate(574 459)"/><path d="m0 0c2 1 2 1 2 1z" transform="translate(1177 458)"/><path d="m0 0c2 1 2 1 2 1z" transform="translate(569 456)"/><path d="m0 0c2 1 2 1 2 1z" transform="translate(563 439)"/><path d="m0 0c2 1 2 1 2 1z" transform="translate(731 388)"/><path d="m0 0c2 1 2 1 2 1z" transform="translate(733 387)"/><path d="m0 0c2 1 2 1 2 1z" transform="translate(1047 386)"/><path d="m0 0c2 1 2 1 2 1z" transform="translate(1049 385)"/><path d="m0 0c2 1 2 1 2 1z" transform="translate(1051 384)"/><path d="m0 0c2 1 2 1 2 1z" transform="translate(738 384)"/><path d="m0 0c2 1 2 1 2 1z" transform="translate(740 383)"/><path d="m0 0c2 1 2 1 2 1z" transform="translate(1054 382)"/><path d="m0 0c2 1 2 1 2 1z" transform="translate(1056 381)"/><path d="m0 0c2 1 2 1 2 1z" transform="translate(714 204)"/><path d="m0 0c2 1 2 1 2 1z" transform="translate(1031 199)"/><path d="m0 0c2 1 2 1 2 1z" transform="translate(640 62)"/><path d="m0 0c2 1 2 1 2 1z" transform="translate(675 48)"/><path d="m0 0c2 1 2 1 2 1z" transform="translate(677 47)"/></svg>