<?xml version="1.0" encoding="UTF-8"?><svg id="_层_1" xmlns="http://www.w3.org/2000/svg" viewBox="0 0 427.3 375.65"><defs><style>.cls-1{fill:#fff;}</style></defs><g><path class="cls-1" d="M56.79,324.35H25.53c-4.24,0-7.68-3.44-7.68-7.68v-.22c0-4.24,3.44-7.68,7.68-7.68h45.49c4.93,0,8.93-4,8.93-8.93h0c0-4.93-4-8.93-8.93-8.93H25.53c-14.1,0-25.53,11.43-25.53,25.53v.22c0,14.1,11.43,25.53,25.53,25.53h31.04c4.13,0,7.69,3.17,7.89,7.29,.22,4.41-3.31,8.06-7.67,8.06H13.09c-4.93,0-8.93,4-8.93,8.93h0c0,4.93,4,8.93,8.93,8.93H56.34c14.28,0,26.22-11.69,25.97-25.97-.24-13.87-11.6-25.08-25.52-25.08Z"/><path class="cls-1" d="M87.03,345.04c.32,16.79,14.38,30.07,31.17,30.07h12.62c4.11,0,7.44-3.33,7.44-7.44h0c0-4.11-3.33-7.44-7.44-7.44h-13.14c-6.13,0-11.45-3.52-14.07-8.64h27.21c4.11,0,7.44-3.33,7.44-7.44h0c0-4.11-3.33-7.44-7.44-7.44h-26.9c2.71-4.81,7.86-8.06,13.76-8.06h13.14c4.11,0,7.44-3.33,7.44-7.44h0c0-4.11-3.33-7.44-7.44-7.44h-13.14c-17.1,0-30.98,14.08-30.66,31.26Z"/><path class="cls-1" d="M349.79,313.36h-19.44c-3.94,0-7.14,3.2-7.14,7.14v47.7c0,4.11,3.33,7.44,7.44,7.44h0c4.11,0,7.44-3.33,7.44-7.44v-39.97h11.7c6.74,0,12.2,5.46,12.2,12.2v27.77c0,4.11,3.33,7.44,7.44,7.44h0c4.11,0,7.44-3.33,7.44-7.44v-27.77c0-14.95-12.12-27.07-27.07-27.07Z"/><path class="cls-1" d="M425.51,320.8h0c0-4.11-3.33-7.44-7.44-7.44h-11.55v-15.02c0-4.11-3.33-7.44-7.44-7.44h0c-4.11,0-7.44,3.33-7.44,7.44v15.02h-3.82c-4.11,0-7.44,3.33-7.44,7.44h0c0,4.11,3.33,7.44,7.44,7.44h3.82v20.24c0,14.95,12.12,27.07,27.07,27.07h1.14c4.11,0,7.44-3.33,7.44-7.44h0c0-4.11-3.33-7.44-7.44-7.44h-1.14c-6.74,0-12.2-5.46-12.2-12.2v-20.24h11.55c4.11,0,7.44-3.33,7.44-7.44Z"/><path class="cls-1" d="M286.27,313.78h-13.14c-4.11,0-7.44,3.33-7.44,7.44h0c0,4.11,3.33,7.44,7.44,7.44h13.14c6.13,0,11.46,3.52,14.07,8.64h-19.21c-10.29,0-18.99,8.05-19.3,18.33-.32,10.68,8.28,19.48,18.9,19.48h29.06c3.94,0,7.14-3.2,7.14-7.14v-23.52c0-16.93-13.73-30.66-30.66-30.66Zm15.79,46.45h-21.33c-2.22,0-4.03-1.81-4.03-4.03s1.81-4.03,4.03-4.03h21.33v8.06Z"/><path class="cls-1" d="M232.01,314.4h-39.38c-3.97,0-7.19,3.22-7.19,7.19v46.62c0,4.11,3.33,7.44,7.44,7.44h0c4.11,0,7.44-3.33,7.44-7.44v-38.94h13.62v38.94c0,4.11,3.33,7.44,7.44,7.44h0c4.11,0,7.44-3.33,7.44-7.44v-38.94h3.2c5.75,0,10.41,4.66,10.41,10.41v28.52c0,4.11,3.33,7.44,7.44,7.44h0c4.11,0,7.44-3.33,7.44-7.44v-28.52c0-13.97-11.32-25.29-25.29-25.29Z"/><path class="cls-1" d="M178.57,315.97c-1.34-1.34-3.21-2.18-5.26-2.18h-.08c-.33,0-.67,0-1,.02-1.59,0-6.49,.2-11.65,2.15-7.18,2.71-14.88,8.82-14.88,22.54v29.55c0,4.11,3.33,7.44,7.44,7.44,2.05,0,3.91-.83,5.26-2.18,1.34-1.35,2.18-3.21,2.18-5.26v-26.73c0-6.99,5.66-12.65,12.65-12.65h.08c4.11,0,7.44-3.33,7.44-7.44,0-2.06-.83-3.92-2.18-5.26Z"/></g><path class="cls-1" d="M182.29,247.56s.07,0,.11,0h6.73s-.09,0-.13,0h-6.7Z"/><g><path class="cls-1" d="M256.59,71.66h.08c-.53-.03-1.05-.05-1.58-.05,.39,0,.78,0,1.16,.03,.11,0,.22,.01,.33,.02Z"/><path class="cls-1" d="M243.6,73.74l.05-.02-.05,.02Z"/><path class="cls-1" d="M247.03,72.61h0Z"/><path class="cls-1" d="M253.69,71.63c.29-.01,.58-.02,.87-.02-.29,0-.58,0-.87,.02Z"/><path class="cls-1" d="M250.11,71.97c.28-.04,.56-.08,.84-.12-.28,.04-.56,.08-.84,.12Z"/><path class="cls-1" d="M248.3,72.31c.25-.05,.51-.11,.76-.16-.25,.05-.51,.1-.76,.16Z"/><path class="cls-1" d="M252.11,71.72c.26-.02,.53-.04,.79-.05-.26,.02-.53,.03-.79,.05Z"/><path class="cls-1" d="M257.67,71.74c.16,.01,.32,.04,.47,.05h0c.15,.02,.31,.03,.47,.05-.43-.05-.87-.1-1.3-.14,.12,.01,.24,.03,.36,.03Z"/><path class="cls-1" d="M152.58,221.14c-.77-6.24,.41-12.84,4.04-18.93,.11-.18,.22-.36,.33-.54l72.36-115.95c1.47-2.35,3.18-4.41,5.08-6.18,.71-.66,1.44-1.28,2.2-1.86,1.27-.97,2.6-1.82,3.97-2.55,.83-.44,1.67-.84,2.53-1.2,.17-.07,.34-.13,.51-.19l.05-.02c.39-.15,.78-.31,1.17-.45,.73-.25,1.47-.47,2.21-.67h.02c.14-.04,.29-.09,.43-.12,.27-.07,.55-.12,.82-.17,.25-.06,.5-.11,.76-.16,.07-.01,.15-.03,.22-.05,.28-.05,.56-.09,.84-.13,.28-.04,.56-.08,.84-.12,.39-.05,.77-.09,1.16-.13,.26-.02,.53-.04,.79-.05,.26-.02,.52-.03,.78-.04,.29-.01,.58-.02,.87-.02,.07,0,.14,0,.2,0,.11,0,.22,0,.34,0,.53,0,1.05,.02,1.58,.06,.15,0,.3,.02,.45,.03,.07,0,.13,.01,.19,.02,.43,.04,.87,.08,1.3,.14h.04c8.01,1.03,15.67,5.23,20.79,12.64L235.43,14.1c-11.75-18.8-39.12-18.8-50.87,0L67.3,201.66c-12.49,19.98,1.88,45.91,25.44,45.9h89.55c-16.15-.06-27.96-12.31-29.72-26.42Z"/><path class="cls-1" d="M352.56,201.67l-72.35-115.95c-5.09-8.17-13.13-12.78-21.56-13.87h-.04c-.15-.02-.31-.04-.47-.06-.72,.08-1.43,.18-2.14,.31-.6,.11-1.2,.23-1.8,.38-.9,.22-1.78,.49-2.66,.79-.58,.2-1.16,.42-1.73,.66-.86,.36-1.7,.76-2.53,1.2-1.37,.73-2.7,1.58-3.97,2.55-.76,.58-1.49,1.2-2.2,1.86-1.9,1.77-3.61,3.83-5.08,6.18l-15.74,25.22-30.08,136.62h-1.22s.09,0,.13,0h137.97c23.55,0,37.92-25.9,25.45-45.89Z"/><path class="cls-1" d="M163.34,202.21c-3.63,6.09-4.81,12.69-4.04,18.93,1.76,14.11,13.55,26.35,29.7,26.42h4.48l32.19-145.24-62,99.35c-.11,.18-.22,.36-.33,.54Z"/><path class="cls-1" d="M163.34,202.21c-3.63,6.09-4.81,12.69-4.04,18.93,1.76,14.11,13.55,26.35,29.7,26.42h4.48l32.19-145.24-62,99.35c-.11,.18-.22,.36-.33,.54Z"/><path class="cls-1" d="M258.61,71.85h0Z"/><path class="cls-1" d="M258.61,71.85h0Z"/><path class="cls-1" d="M257.67,71.74c.16,.01,.32,.04,.47,.05h0c-.16-.02-.31-.04-.47-.05Z"/><path class="cls-1" d="M244.82,73.27c-.39,.14-.78,.29-1.17,.45,1.11-.44,2.24-.81,3.39-1.12-.74,.2-1.48,.42-2.21,.67Z"/><path class="cls-1" d="M247.48,72.48c-.14,.04-.29,.08-.43,.12,.41-.11,.83-.2,1.25-.29-.27,.06-.55,.1-.82,.17Z"/><path class="cls-1" d="M257.12,71.69c-.15,0-.3-.02-.45-.03,.21,.01,.43,.03,.64,.04-.06,0-.12-.01-.19-.02Z"/><path class="cls-1" d="M254.76,71.6c-.07,0-.14,0-.2,0,.18,0,.36,0,.54,0-.11,0-.22,0-.34,0Z"/><path class="cls-1" d="M252.9,71.67c.26-.02,.52-.03,.78-.04-.26,0-.52,.02-.78,.04Z"/><path class="cls-1" d="M249.28,72.1c-.07,.01-.15,.03-.22,.05,.35-.07,.71-.13,1.06-.18-.28,.04-.56,.08-.84,.13Z"/><path class="cls-1" d="M250.95,71.85c.39-.05,.77-.09,1.16-.13-.39,.03-.77,.08-1.16,.13Z"/></g></svg>