<svg width="1252" height="1518" viewBox="0 0 1252 1518" fill="none" xmlns="http://www.w3.org/2000/svg">
<path d="M951.312 1050.56C952.579 1050.57 953.846 1050.58 955.151 1050.59C979.529 1051.03 1000.65 1060.05 1018.31 1076.81C1037.05 1096.54 1045.45 1122.26 1045.31 1149.19C1045.3 1150.96 1045.3 1150.96 1045.3 1152.77C1044.94 1179.85 1035.99 1204.46 1017.06 1224.31C998.374 1242.05 972.827 1249.88 947.426 1249.25C922.289 1248.13 899.341 1238.34 882 1220C861.4 1196.52 856.502 1167.3 858 1137C860.143 1111.96 871.7 1087.36 891 1071C898.294 1065.28 906.02 1060.66 914.562 1057.06C915.197 1056.79 915.832 1056.52 916.486 1056.24C927.732 1051.81 939.304 1050.46 951.312 1050.56ZM901.91 1097.34C886.858 1118.33 884.123 1144.16 887.613 1169.35C890.86 1187.53 900.154 1202.8 914.875 1213.94C929.628 1223.54 948.086 1226.43 965.297 1223.31C982.253 1219.68 995.949 1211.28 1005.44 1196.69C1017.64 1175.31 1019.94 1146.82 1013.97 1123.01C1009.43 1107.3 1000.59 1092.81 986.285 1084.23C985.531 1083.83 984.777 1083.42 984 1083C983.194 1082.55 982.388 1082.1 981.558 1081.64C955.408 1068.39 920.804 1074.76 901.91 1097.34Z" fill="white"/>
<path d="M224 1053C232.91 1053 241.82 1053 251 1053C252.545 1054.54 252.14 1055.99 252.158 1058.14C252.168 1059.04 252.178 1059.93 252.188 1060.85C252.197 1062.33 252.197 1062.33 252.205 1063.84C252.215 1064.88 252.225 1065.91 252.235 1066.98C252.267 1070.41 252.292 1073.85 252.316 1077.29C252.337 1079.66 252.358 1082.04 252.379 1084.41C252.435 1090.68 252.484 1096.94 252.532 1103.21C252.582 1109.59 252.638 1115.98 252.693 1122.37C252.801 1134.91 252.903 1147.46 253 1160C255.074 1157.62 257.147 1155.23 259.219 1152.84C259.801 1152.17 260.383 1151.51 260.983 1150.82C264.216 1147.09 267.399 1143.34 270.5 1139.5C275.629 1133.17 280.993 1127.05 286.34 1120.91C292.461 1113.87 298.56 1106.81 304.438 1099.56C308.539 1094.51 312.786 1089.6 317.058 1084.69C320.15 1081.14 323.232 1077.58 326.265 1073.98C327.172 1072.91 328.092 1071.85 329.024 1070.8C331.411 1068.09 333.321 1065.53 334.969 1062.3C337.345 1058.1 339.453 1054.97 344 1053C354.879 1051.36 366.072 1052.21 377 1053C376.159 1057.12 374.42 1059 371.5 1062.06C368.037 1065.75 364.729 1069.49 361.562 1073.44C357.905 1077.97 354.054 1082.26 350.088 1086.52C346.286 1090.63 342.757 1094.92 339.246 1099.29C336.912 1102.11 334.48 1104.81 332 1107.5C327.913 1111.94 324.088 1116.53 320.301 1121.23C317.085 1125.1 313.685 1128.8 310.262 1132.49C308.07 1134.92 306.018 1137.42 304 1140C305.461 1144.33 307.664 1147.38 310.5 1150.94C314.047 1155.45 317.496 1160 320.812 1164.69C321.22 1165.26 321.627 1165.84 322.046 1166.43C322.906 1167.64 323.766 1168.85 324.625 1170.07C332.225 1180.76 339.973 1191.34 347.766 1201.89C353.345 1209.45 358.846 1217.07 364.334 1224.69C366.118 1227.16 367.91 1229.63 369.703 1232.09C370.609 1233.34 370.609 1233.34 371.533 1234.61C372.7 1236.22 373.869 1237.82 375.039 1239.43C375.559 1240.14 376.078 1240.86 376.613 1241.6C377.075 1242.23 377.537 1242.87 378.013 1243.52C379 1245 379 1245 379 1246C350.209 1249.15 350.209 1249.15 342.209 1244.31C337.734 1239.83 335.021 1234.38 332.342 1228.69C330.289 1224.57 327.612 1221 324.875 1217.31C323.89 1215.93 322.908 1214.54 321.93 1213.14C321.447 1212.46 320.965 1211.78 320.468 1211.08C317.478 1206.85 314.492 1202.61 311.506 1198.38C308.971 1194.79 306.434 1191.2 303.895 1187.61C297.881 1179.11 291.907 1170.58 286 1162C277.589 1170.32 269.603 1179.01 262.23 1188.27C260 1191 260 1191 258.283 1192.63C253.632 1197.24 252.19 1200.54 252.054 1207.07C252.076 1208.55 252.076 1208.55 252.098 1210.06C252.079 1211.61 252.079 1211.61 252.06 1213.19C252.029 1216.46 252.045 1219.73 252.062 1223C252.049 1225.23 252.033 1227.46 252.014 1229.68C251.967 1235.12 251.985 1240.56 252 1246C242.76 1246 233.52 1246 224 1246C224 1182.31 224 1118.62 224 1053Z" fill="white"/>
<path d="M476.5 1050.89C477.584 1050.89 478.668 1050.9 479.785 1050.9C480.955 1050.91 482.125 1050.91 483.33 1050.91C484.562 1050.92 485.793 1050.93 487.062 1050.94C488.916 1050.94 488.916 1050.94 490.807 1050.95C493.871 1050.96 496.936 1050.98 500 1051C504.088 1060.67 507.966 1070.42 511.812 1080.19C512.471 1081.86 513.13 1083.53 513.789 1085.2C520.563 1102.39 527.276 1119.61 533.984 1136.83C536.987 1144.53 539.995 1152.24 543.003 1159.95C543.996 1162.49 544.989 1165.04 545.982 1167.58C549.054 1175.45 552.128 1183.33 555.205 1191.2C568.29 1224.67 568.29 1224.67 573 1237C573.32 1237.84 573.641 1238.67 573.971 1239.53C576 1244.88 576 1244.88 576 1246C566.76 1246 557.52 1246 548 1246C541.953 1231.49 536.521 1216.72 531 1202C487.44 1201.5 487.44 1201.5 443 1201C442.01 1204.3 441.02 1207.6 440 1211C438.98 1213.89 437.943 1216.76 436.863 1219.63C436.437 1220.78 436.437 1220.78 436.002 1221.94C435.108 1224.34 434.211 1226.73 433.312 1229.12C432.7 1230.77 432.087 1232.41 431.475 1234.05C429.987 1238.03 428.493 1242.02 427 1246C417.43 1246 407.86 1246 398 1246C399.976 1239.41 402.003 1233.11 404.527 1226.75C404.868 1225.89 405.208 1225.02 405.559 1224.13C406.682 1221.27 407.81 1218.42 408.938 1215.56C409.741 1213.52 410.544 1211.48 411.346 1209.44C413.036 1205.14 414.729 1200.84 416.422 1196.54C418.933 1190.17 421.435 1183.8 423.934 1177.42C424.34 1176.39 424.746 1175.35 425.164 1174.28C425.988 1172.18 426.811 1170.08 427.634 1167.98C429.724 1162.65 431.815 1157.32 433.906 1151.98C434.324 1150.92 434.741 1149.86 435.172 1148.76C437.751 1142.18 440.332 1135.61 442.913 1129.03C444.642 1124.62 446.371 1120.22 448.1 1115.81C448.945 1113.66 449.79 1111.51 450.635 1109.35C454.887 1098.52 459.13 1087.68 463.332 1076.83C463.665 1075.97 463.999 1075.11 464.342 1074.23C465.883 1070.25 467.42 1066.27 468.953 1062.29C469.483 1060.92 470.013 1059.55 470.543 1058.18C470.997 1057 471.451 1055.82 471.919 1054.61C473.403 1051.03 473.403 1051.03 476.5 1050.89ZM487 1083C481.994 1095.32 477.194 1107.7 472.669 1120.21C471.071 1124.63 469.463 1129.04 467.855 1133.45C467.534 1134.34 467.212 1135.22 466.88 1136.13C463.164 1146.32 459.344 1156.47 455.505 1166.62C455.04 1167.85 454.576 1169.08 454.098 1170.34C453.69 1171.42 453.283 1172.49 452.864 1173.6C451.944 1175.73 451.944 1175.73 452 1177C475.1 1177 498.2 1177 522 1177C521.346 1173.73 520.768 1171.08 519.656 1168.03C519.383 1167.28 519.111 1166.52 518.83 1165.75C518.533 1164.94 518.236 1164.13 517.93 1163.29C517.616 1162.43 517.303 1161.57 516.98 1160.68C515.949 1157.85 514.912 1155.02 513.875 1152.19C513.158 1150.22 512.441 1148.26 511.724 1146.29C505.546 1129.39 499.257 1112.53 492.914 1095.69C492.647 1094.98 492.38 1094.27 492.105 1093.54C490.773 1090.01 489.416 1086.5 488 1083C487.67 1083 487.34 1083 487 1083Z" fill="white"/>
<path d="M693.466 1052.88C694.571 1052.88 695.676 1052.88 696.815 1052.88C698.71 1052.88 698.71 1052.88 700.644 1052.88C702.057 1052.88 703.47 1052.88 704.883 1052.89C706.361 1052.89 707.839 1052.89 709.317 1052.89C713.342 1052.89 717.366 1052.89 721.391 1052.9C725.592 1052.9 729.794 1052.91 733.995 1052.91C741.956 1052.91 749.918 1052.92 757.879 1052.93C766.941 1052.94 776.002 1052.94 785.064 1052.95C803.709 1052.96 822.355 1052.98 841 1053C841 1061.25 841 1069.5 841 1078C820.54 1078 800.08 1078 779 1078C779 1133.44 779 1188.88 779 1246C770.09 1246 761.18 1246 752 1246C752 1190.56 752 1135.12 752 1078C731.54 1078 711.08 1078 690 1078C690 1053.05 690 1053.05 693.466 1052.88Z" fill="white"/>
<path d="M623.969 1052.87C625.179 1052.87 626.39 1052.86 627.637 1052.86C628.912 1052.87 630.187 1052.87 631.5 1052.88C633.412 1052.87 633.412 1052.87 635.363 1052.86C637.179 1052.87 637.179 1052.87 639.031 1052.87C640.151 1052.87 641.271 1052.87 642.424 1052.87C645 1053 645 1053 646 1054C646.098 1056.48 646.13 1058.93 646.12 1061.41C646.121 1062.19 646.122 1062.98 646.123 1063.79C646.125 1066.44 646.119 1069.09 646.114 1071.74C646.113 1073.63 646.114 1075.52 646.114 1077.41C646.114 1082.57 646.109 1087.72 646.102 1092.87C646.095 1098.25 646.095 1103.63 646.094 1109.01C646.09 1119.2 646.082 1129.39 646.072 1139.59C646.061 1151.19 646.056 1162.79 646.05 1174.39C646.04 1198.26 646.022 1222.13 646 1246C636.43 1246 626.86 1246 617 1246C616.977 1220.98 616.959 1195.97 616.948 1170.95C616.943 1159.34 616.936 1147.72 616.925 1136.11C616.915 1125.99 616.908 1115.87 616.906 1105.75C616.905 1100.39 616.902 1095.03 616.894 1089.66C616.888 1084.62 616.886 1079.58 616.887 1074.54C616.887 1072.69 616.885 1070.83 616.881 1068.98C616.876 1066.45 616.877 1063.93 616.88 1061.41C616.877 1060.67 616.874 1059.92 616.871 1059.15C616.89 1052.67 617.645 1052.87 623.969 1052.87Z" fill="white"/>
<path d="M629.165 83.3692C633.915 84.2442 633.915 84.2442 636.165 85.3692C636.165 86.3592 636.165 87.3492 636.165 88.3692C637.485 88.3692 638.805 88.3692 640.165 88.3692C641.9 90.3105 643.57 92.3119 645.165 94.3692C646.155 94.8642 646.155 94.8642 647.165 95.3692C647.165 96.0292 647.165 96.6892 647.165 97.3692C647.825 97.3692 648.485 97.3692 649.165 97.3692C649.165 98.0292 649.165 98.6892 649.165 99.3692C649.722 99.5961 650.279 99.823 650.853 100.057C653.827 101.745 655.885 103.836 658.165 106.369C658.165 107.029 658.165 107.689 658.165 108.369C658.825 108.369 659.485 108.369 660.165 108.369C660.165 109.029 660.165 109.689 660.165 110.369C660.763 110.637 661.361 110.905 661.978 111.182C664.165 112.369 664.165 112.369 665.665 113.932C667.063 115.531 667.063 115.531 669.103 115.744C672.225 116.69 673.371 118.743 675.165 121.369C675.165 122.029 675.165 122.689 675.165 123.369C676.155 123.369 677.145 123.369 678.165 123.369C678.495 125.019 678.825 126.669 679.165 128.369C680.155 128.369 681.145 128.369 682.165 128.369C682.165 129.029 682.165 129.689 682.165 130.369C682.825 130.369 683.485 130.369 684.165 130.369C684.165 131.029 684.165 131.689 684.165 132.369C684.949 132.514 685.733 132.658 686.54 132.807C689.165 133.369 689.165 133.369 691.165 134.369C691.165 135.029 691.165 135.689 691.165 136.369C691.825 136.369 692.485 136.369 693.165 136.369C694.155 138.844 694.155 138.844 695.165 141.369C695.825 141.369 696.485 141.369 697.165 141.369C697.165 142.029 697.165 142.689 697.165 143.369C698.815 143.369 700.465 143.369 702.165 143.369C702.165 144.029 702.165 144.689 702.165 145.369C702.825 145.369 703.485 145.369 704.165 145.369C704.165 146.029 704.165 146.689 704.165 147.369C704.825 147.369 705.485 147.369 706.165 147.369C706.165 148.029 706.165 148.689 706.165 149.369C707.815 150.029 709.465 150.689 711.165 151.369C711.165 152.359 711.165 153.349 711.165 154.369C712.485 154.369 713.805 154.369 715.165 154.369C718.289 157.047 720.605 159.54 722.165 163.369C722.825 163.369 723.485 163.369 724.165 163.369C724.165 164.029 724.165 164.689 724.165 165.369C724.866 165.41 725.568 165.452 726.29 165.494C730.244 166.698 732.658 169.121 735.165 172.369C735.165 173.029 735.165 173.689 735.165 174.369C735.825 174.369 736.485 174.369 737.165 174.369C737.165 175.029 737.165 175.689 737.165 176.369C738.815 176.369 740.465 176.369 742.165 176.369C742.165 177.029 742.165 177.689 742.165 178.369C742.825 178.369 743.485 178.369 744.165 178.369C744.165 179.029 744.165 179.689 744.165 180.369C744.825 180.369 745.485 180.369 746.165 180.369C750.165 184.84 750.165 184.84 750.165 187.369C750.825 187.369 751.485 187.369 752.165 187.369C752.165 188.029 752.165 188.689 752.165 189.369C753.815 189.369 755.465 189.369 757.165 189.369C757.165 190.029 757.165 190.689 757.165 191.369C757.825 191.369 758.485 191.369 759.165 191.369C759.825 193.019 760.485 194.669 761.165 196.369C761.825 196.369 762.485 196.369 763.165 196.369C763.165 197.029 763.165 197.689 763.165 198.369C763.763 198.637 764.361 198.905 764.978 199.182C767.164 200.368 768.578 201.465 770.165 203.369C770.165 204.029 770.165 204.689 770.165 205.369C771.485 205.369 772.805 205.369 774.165 205.369C774.165 206.029 774.165 206.689 774.165 207.369C774.763 207.637 775.361 207.905 775.978 208.182C778.164 209.368 779.578 210.465 781.165 212.369C781.165 213.029 781.165 213.689 781.165 214.369C781.825 214.369 782.485 214.369 783.165 214.369C783.165 215.029 783.165 215.689 783.165 216.369C783.825 216.369 784.485 216.369 785.165 216.369C785.165 217.029 785.165 217.689 785.165 218.369C785.866 218.225 786.568 218.08 787.29 217.932C791.256 218.535 792.508 220.477 795.028 223.447C796.165 225.369 796.165 225.369 796.165 229.369C795.443 229.596 794.721 229.823 793.978 230.057C789.179 232.296 786.233 236.288 782.853 240.244C779.812 243.762 776.538 246.782 773.001 249.791C770.591 251.863 768.384 254.094 766.165 256.369C764.833 257.704 763.5 259.037 762.165 260.369C761.475 261.06 760.786 261.751 760.075 262.463C758.594 263.941 757.101 265.408 755.603 266.869C753.585 268.939 751.723 271.045 749.853 273.244C746.812 276.762 743.538 279.782 740.001 282.791C737.591 284.863 735.384 287.094 733.165 289.369C732.49 290.034 731.814 290.7 731.118 291.385C730.391 292.102 729.664 292.818 728.915 293.557C728.229 294.231 727.543 294.905 726.837 295.6C725.091 297.277 725.091 297.277 724.165 299.369C722.515 299.369 720.865 299.369 719.165 299.369C719.165 300.689 719.165 302.009 719.165 303.369C717.845 303.369 716.525 303.369 715.165 303.369C714.175 307.329 714.175 307.329 713.165 311.369C711.845 311.369 710.525 311.369 709.165 311.369C709.165 312.029 709.165 312.689 709.165 313.369C708.457 313.793 707.75 314.217 707.021 314.654C703.709 316.643 701.168 319.093 698.473 321.819C697.655 322.634 697.655 322.634 696.82 323.465C695.029 325.253 693.245 327.047 691.462 328.842C690.216 330.089 688.97 331.335 687.724 332.581C685.119 335.188 682.516 337.799 679.917 340.411C676.581 343.765 673.238 347.111 669.893 350.456C667.322 353.027 664.754 355.6 662.187 358.174C660.955 359.409 659.722 360.644 658.489 361.878C656.77 363.6 655.054 365.324 653.34 367.049C652.828 367.561 652.315 368.073 651.788 368.6C649.146 371.236 649.146 371.236 647.165 374.369C645.515 374.369 643.865 374.369 642.165 374.369C642.165 375.689 642.165 377.009 642.165 378.369C640.845 378.369 639.525 378.369 638.165 378.369C637.835 380.019 637.505 381.669 637.165 383.369C638.155 383.369 639.145 383.369 640.165 383.369C641.155 384.854 641.155 384.854 642.165 386.369C644.728 387.099 644.728 387.099 647.165 387.369C647.165 388.359 647.165 389.349 647.165 390.369C648.485 390.369 649.805 390.369 651.165 390.369C651.165 391.029 651.165 391.689 651.165 392.369C653.475 392.369 655.785 392.369 658.165 392.369C658.165 393.029 658.165 393.689 658.165 394.369C659.485 394.369 660.805 394.369 662.165 394.369C662.165 395.029 662.165 395.689 662.165 396.369C662.908 396.514 663.65 396.658 664.415 396.807C666.685 397.271 668.923 397.788 671.165 398.369C671.165 399.359 671.165 400.349 671.165 401.369C672.485 401.369 673.805 401.369 675.165 401.369C675.165 402.029 675.165 402.689 675.165 403.369C676.815 403.369 678.465 403.369 680.165 403.369C680.165 404.029 680.165 404.689 680.165 405.369C682.145 405.369 684.125 405.369 686.165 405.369C686.165 406.029 686.165 406.689 686.165 407.369C687.815 407.369 689.465 407.369 691.165 407.369C691.165 408.029 691.165 408.689 691.165 409.369C692.485 409.369 693.805 409.369 695.165 409.369C695.165 410.359 695.165 411.349 695.165 412.369C696.485 412.369 697.805 412.369 699.165 412.369C699.165 414.349 699.165 416.329 699.165 418.369C697.845 418.369 696.525 418.369 695.165 418.369C695.165 419.029 695.165 419.689 695.165 420.369C694.505 420.369 693.845 420.369 693.165 420.369C693.165 421.029 693.165 421.689 693.165 422.369C692.505 422.369 691.845 422.369 691.165 422.369C690.835 423.359 690.505 424.349 690.165 425.369C689.505 425.369 688.845 425.369 688.165 425.369C688.165 426.029 688.165 426.689 688.165 427.369C687.505 427.369 686.845 427.369 686.165 427.369C686.165 428.029 686.165 428.689 686.165 429.369C685.505 429.369 684.845 429.369 684.165 429.369C684.165 430.029 684.165 430.689 684.165 431.369C683.505 431.369 682.845 431.369 682.165 431.369C682.165 432.029 682.165 432.689 682.165 433.369C681.505 433.369 680.845 433.369 680.165 433.369C679.835 434.359 679.505 435.349 679.165 436.369C678.505 436.369 677.845 436.369 677.165 436.369C677.165 437.029 677.165 437.689 677.165 438.369C676.505 438.369 675.845 438.369 675.165 438.369C675.165 439.029 675.165 439.689 675.165 440.369C674.505 440.369 673.845 440.369 673.165 440.369C673.165 441.029 673.165 441.689 673.165 442.369C672.505 442.369 671.845 442.369 671.165 442.369C671.165 443.029 671.165 443.689 671.165 444.369C670.505 444.369 669.845 444.369 669.165 444.369C668.835 445.359 668.505 446.349 668.165 447.369C667.505 447.369 666.845 447.369 666.165 447.369C666.165 448.029 666.165 448.689 666.165 449.369C665.505 449.369 664.845 449.369 664.165 449.369C664.165 450.689 664.165 452.009 664.165 453.369C663.505 453.369 662.845 453.369 662.165 453.369C662.165 454.029 662.165 454.689 662.165 455.369C661.505 455.369 660.845 455.369 660.165 455.369C659.897 455.967 659.629 456.565 659.353 457.182C658.166 459.368 657.069 460.783 655.165 462.369C654.505 462.369 653.845 462.369 653.165 462.369C653.165 463.029 653.165 463.689 653.165 464.369C652.505 464.369 651.845 464.369 651.165 464.369C651.165 465.029 651.165 465.689 651.165 466.369C650.505 466.369 649.845 466.369 649.165 466.369C649.165 468.019 649.165 469.669 649.165 471.369C649.825 471.369 650.485 471.369 651.165 471.369C651.165 473.019 651.165 474.669 651.165 476.369C651.825 476.369 652.485 476.369 653.165 476.369C653.165 477.689 653.165 479.009 653.165 480.369C654.815 480.699 656.465 481.029 658.165 481.369C658.165 483.019 658.165 484.669 658.165 486.369C658.825 486.369 659.485 486.369 660.165 486.369C660.165 488.019 660.165 489.669 660.165 491.369C660.825 491.369 661.485 491.369 662.165 491.369C663.967 495.199 664.361 498.15 664.165 502.369C665.155 502.369 666.145 502.369 667.165 502.369C667.165 513.919 667.165 525.469 667.165 537.369C666.175 537.369 665.185 537.369 664.165 537.369C664.206 538.256 664.248 539.143 664.29 540.057C664.166 543.342 663.551 545.424 662.165 548.369C661.505 548.369 660.845 548.369 660.165 548.369C660.165 550.019 660.165 551.669 660.165 553.369C659.505 553.369 658.845 553.369 658.165 553.369C658.165 554.689 658.165 556.009 658.165 557.369C657.175 557.369 656.185 557.369 655.165 557.369C655.165 558.029 655.165 558.689 655.165 559.369C654.505 559.369 653.845 559.369 653.165 559.369C653.165 560.029 653.165 560.689 653.165 561.369C652.505 561.369 651.845 561.369 651.165 561.369C651.165 562.029 651.165 562.689 651.165 563.369C650.505 563.369 649.845 563.369 649.165 563.369C649.165 564.029 649.165 564.689 649.165 565.369C648.505 565.369 647.845 565.369 647.165 565.369C646.505 567.019 645.845 568.669 645.165 570.369C643.515 570.369 641.865 570.369 640.165 570.369C640.165 571.029 640.165 571.689 640.165 572.369C639.505 572.369 638.845 572.369 638.165 572.369C638.165 573.029 638.165 573.689 638.165 574.369C634.31 574.728 632.587 574.645 629.29 572.494C628.589 571.793 627.888 571.092 627.165 570.369C627.165 569.709 627.165 569.049 627.165 568.369C626.505 568.369 625.845 568.369 625.165 568.369C625.165 567.709 625.165 567.049 625.165 566.369C624.567 566.101 623.969 565.833 623.353 565.557C621.089 564.328 619.65 563.479 618.165 561.369C618.165 558.869 618.165 558.869 619.165 556.369C622.061 554.159 623.497 553.369 627.165 553.369C627.165 551.719 627.165 550.069 627.165 548.369C627.825 548.369 628.485 548.369 629.165 548.369C630.688 545.432 631.966 542.452 633.165 539.369C634.155 539.369 635.145 539.369 636.165 539.369C636.165 537.389 636.165 535.409 636.165 533.369C636.825 533.369 637.485 533.369 638.165 533.369C638.165 531.059 638.165 528.749 638.165 526.369C638.825 526.369 639.485 526.369 640.165 526.369C640.165 522.739 640.165 519.109 640.165 515.369C639.505 515.369 638.845 515.369 638.165 515.369C638.165 511.739 638.165 508.109 638.165 504.369C637.505 504.369 636.845 504.369 636.165 504.369C636.165 502.059 636.165 499.749 636.165 497.369C635.505 497.369 634.845 497.369 634.165 497.369C634.165 496.049 634.165 494.729 634.165 493.369C633.175 493.369 632.185 493.369 631.165 493.369C630.685 492.099 630.206 490.828 629.728 489.557C629.461 488.849 629.194 488.141 628.919 487.412C628.303 485.742 627.728 484.058 627.165 482.369C626.505 482.369 625.845 482.369 625.165 482.369C625.165 480.719 625.165 479.069 625.165 477.369C624.33 477.276 624.33 477.276 623.478 477.182C620.174 476.021 618.446 473.967 616.165 471.369C616.165 470.709 616.165 470.049 616.165 469.369C615.505 469.369 614.845 469.369 614.165 469.369C614.165 468.709 614.165 468.049 614.165 467.369C613.608 467.142 613.051 466.915 612.478 466.682C609.503 464.994 607.445 462.902 605.165 460.369C605.165 459.709 605.165 459.049 605.165 458.369C604.608 458.163 604.051 457.957 603.478 457.744C601.218 456.401 600.165 455.318 598.54 453.307C596.494 450.361 596.494 450.361 594.165 449.369C594.165 448.709 594.165 448.049 594.165 447.369C593.505 447.369 592.845 447.369 592.165 447.369C592.165 446.709 592.165 446.049 592.165 445.369C591.33 445.029 591.33 445.029 590.478 444.682C587.503 442.994 585.445 440.902 583.165 438.369C583.165 437.709 583.165 437.049 583.165 436.369C582.505 436.369 581.845 436.369 581.165 436.369C579.509 434.654 579.509 434.654 577.665 432.432C575.276 429.449 575.276 429.449 572.165 427.369C572.165 426.709 572.165 426.049 572.165 425.369C571.505 425.369 570.845 425.369 570.165 425.369C570.165 424.709 570.165 424.049 570.165 423.369C569.33 423.029 569.33 423.029 568.478 422.682C565.438 420.957 563.408 419.048 561.165 416.369C560.853 413.557 560.853 413.557 561.165 411.369C561.825 411.369 562.485 411.369 563.165 411.369C563.165 410.709 563.165 410.049 563.165 409.369C567.042 408.176 570.081 407.369 574.165 407.369C574.165 406.709 574.165 406.049 574.165 405.369C575.815 405.369 577.465 405.369 579.165 405.369C579.165 404.709 579.165 404.049 579.165 403.369C580.485 403.369 581.805 403.369 583.165 403.369C583.165 402.709 583.165 402.049 583.165 401.369C585.475 401.369 587.785 401.369 590.165 401.369C590.165 400.379 590.165 399.389 590.165 398.369C591.485 398.369 592.805 398.369 594.165 398.369C594.165 397.709 594.165 397.049 594.165 396.369C596.475 396.369 598.785 396.369 601.165 396.369C601.165 395.709 601.165 395.049 601.165 394.369C602.485 394.369 603.805 394.369 605.165 394.369C605.165 393.709 605.165 393.049 605.165 392.369C606.815 392.369 608.465 392.369 610.165 392.369C610.165 391.709 610.165 391.049 610.165 390.369C611.485 390.369 612.805 390.369 614.165 390.369C614.165 389.379 614.165 388.389 614.165 387.369C615.485 387.369 616.805 387.369 618.165 387.369C618.165 386.709 618.165 386.049 618.165 385.369C619.485 385.369 620.805 385.369 622.165 385.369C622.165 384.709 622.165 384.049 622.165 383.369C622.825 383.369 623.485 383.369 624.165 383.369C622.544 380.298 621.262 378.443 618.478 376.307C617.714 375.667 616.951 375.028 616.165 374.369C616.165 373.049 616.165 371.729 616.165 370.369C615.505 370.369 614.845 370.369 614.165 370.369C612.614 368.795 612.614 368.795 610.853 366.682C606.946 362.1 602.873 357.963 598.29 354.057C594.772 351.016 591.752 347.743 588.743 344.205C586.671 341.795 584.44 339.588 582.165 337.369C581.167 336.356 581.167 336.356 580.149 335.322C579.433 334.595 578.716 333.868 577.978 333.119C577.303 332.433 576.629 331.748 575.935 331.041C574.257 329.295 574.257 329.295 572.165 328.369C572.165 327.709 572.165 327.049 572.165 326.369C569.855 325.709 567.545 325.049 565.165 324.369C565.165 322.719 565.165 321.069 565.165 319.369C563.845 319.369 562.525 319.369 561.165 319.369C561.165 318.709 561.165 318.049 561.165 317.369C560.505 317.369 559.845 317.369 559.165 317.369C559.165 315.719 559.165 314.069 559.165 312.369C557.845 312.039 556.525 311.709 555.165 311.369C555.165 310.379 555.165 309.389 555.165 308.369C553.515 308.369 551.865 308.369 550.165 308.369C550.165 307.709 550.165 307.049 550.165 306.369C549.582 306.111 549 305.854 548.399 305.588C545.985 304.271 544.348 302.818 542.415 300.869C541.801 300.261 541.188 299.652 540.556 299.025C539.165 297.369 539.165 297.369 539.165 295.369C538.582 295.111 538 294.854 537.399 294.588C534.985 293.271 533.348 291.818 531.415 289.869C530.801 289.261 530.188 288.652 529.556 288.025C528.165 286.369 528.165 286.369 528.165 284.369C527.505 284.369 526.845 284.369 526.165 284.369C524.509 282.654 524.509 282.654 522.665 280.432C520.276 277.449 520.276 277.449 517.165 275.369C517.165 274.709 517.165 274.049 517.165 273.369C516.582 273.111 516 272.854 515.399 272.588C512.985 271.271 511.348 269.818 509.415 267.869C508.801 267.261 508.188 266.652 507.556 266.025C506.165 264.369 506.165 264.369 506.165 262.369C505.582 262.111 505 261.854 504.399 261.588C501.985 260.271 500.348 258.818 498.415 256.869C497.801 256.261 497.188 255.652 496.556 255.025C495.165 253.369 495.165 253.369 495.165 251.369C494.33 251.029 494.33 251.029 493.478 250.682C490.503 248.994 488.445 246.902 486.165 244.369C486.165 243.709 486.165 243.049 486.165 242.369C485.505 242.369 484.845 242.369 484.165 242.369C484.165 241.709 484.165 241.049 484.165 240.369C483.33 240.029 483.33 240.029 482.478 239.682C479.503 237.994 477.445 235.902 475.165 233.369C475.165 232.709 475.165 232.049 475.165 231.369C474.505 231.369 473.845 231.369 473.165 231.369C473.165 230.709 473.165 230.049 473.165 229.369C472.505 229.369 471.845 229.369 471.165 229.369C471.165 227.059 471.165 224.749 471.165 222.369C472.485 222.369 473.805 222.369 475.165 222.369C475.165 221.709 475.165 221.049 475.165 220.369C475.825 220.369 476.485 220.369 477.165 220.369C477.433 219.771 477.701 219.173 477.978 218.557C479.164 216.371 480.261 214.956 482.165 213.369C482.825 213.369 483.485 213.369 484.165 213.369C484.165 212.709 484.165 212.049 484.165 211.369C484.825 211.369 485.485 211.369 486.165 211.369C486.165 210.709 486.165 210.049 486.165 209.369C487.815 209.369 489.465 209.369 491.165 209.369C491.825 207.719 492.485 206.069 493.165 204.369C493.825 204.369 494.485 204.369 495.165 204.369C495.165 203.709 495.165 203.049 495.165 202.369C495.825 202.369 496.485 202.369 497.165 202.369C497.165 201.709 497.165 201.049 497.165 200.369C497.825 200.369 498.485 200.369 499.165 200.369C499.165 199.709 499.165 199.049 499.165 198.369C499.825 198.369 500.485 198.369 501.165 198.369C501.165 197.709 501.165 197.049 501.165 196.369C502.815 196.369 504.465 196.369 506.165 196.369C506.33 195.689 506.495 195.008 506.665 194.307C508.883 189.963 512.435 187.419 516.165 184.369C516.495 184.039 516.825 183.709 517.165 183.369C518.831 183.329 520.499 183.326 522.165 183.369C522.277 182.771 522.389 182.174 522.504 181.558C523.59 177.963 526.368 175.695 528.978 173.119C529.512 172.565 530.046 172.011 530.597 171.44C534.672 167.369 534.672 167.369 539.165 167.369C539.552 166.495 539.552 166.495 539.946 165.604C541.263 163.189 542.716 161.552 544.665 159.619C545.273 159.006 545.882 158.392 546.509 157.76C548.165 156.369 548.165 156.369 550.165 156.369C550.165 155.709 550.165 155.049 550.165 154.369C550.825 154.369 551.485 154.369 552.165 154.369C552.165 153.709 552.165 153.049 552.165 152.369C553.815 152.369 555.465 152.369 557.165 152.369C557.165 151.379 557.165 150.389 557.165 149.369C557.825 149.369 558.485 149.369 559.165 149.369C559.165 148.709 559.165 148.049 559.165 147.369C559.825 147.369 560.485 147.369 561.165 147.369C561.165 146.709 561.165 146.049 561.165 145.369C561.825 145.369 562.485 145.369 563.165 145.369C563.165 144.709 563.165 144.049 563.165 143.369C563.825 143.369 564.485 143.369 565.165 143.369C565.433 142.73 565.701 142.09 565.978 141.432C567.165 139.369 567.165 139.369 570.165 138.369C570.165 137.709 570.165 137.049 570.165 136.369C571.485 136.369 572.805 136.369 574.165 136.369C574.165 135.709 574.165 135.049 574.165 134.369C574.825 134.369 575.485 134.369 576.165 134.369C576.165 133.709 576.165 133.049 576.165 132.369C576.825 132.369 577.485 132.369 578.165 132.369C578.165 131.709 578.165 131.049 578.165 130.369C579.54 128.744 579.54 128.744 581.165 127.369C581.825 127.369 582.485 127.369 583.165 127.369C583.165 126.709 583.165 126.049 583.165 125.369C583.825 125.369 584.485 125.369 585.165 125.369C585.165 124.709 585.165 124.049 585.165 123.369C586.485 123.369 587.805 123.369 589.165 123.369C589.165 122.709 589.165 122.049 589.165 121.369C590.544 120.182 591.928 118.998 593.364 117.881C595.782 115.852 597.95 113.617 600.165 111.369C610.165 101.369 610.165 101.369 612.759 98.8262C615.505 96.0225 617.903 93.0291 620.321 89.9434C622.165 88.3692 622.165 88.3692 624.884 88.1387C625.637 88.2148 626.389 88.2908 627.165 88.3692C627.825 86.7192 628.485 85.0692 629.165 83.3692Z" fill="white"/>
<path fill-rule="evenodd" clip-rule="evenodd" d="M679.72 21.4004C671.177 17.3449 662.714 13.1651 654.29 8.86918C652.837 8.12424 651.35 7.29255 649.835 6.44523C642.299 2.23082 634.072 -2.37022 625.958 1.39262C621.17 3.87604 616.359 6.29025 611.486 8.60209C601.1 13.5209 590.762 18.5286 580.487 23.6747L578.602 24.6192C573.455 27.1989 568.309 29.7832 563.165 32.3692C558.655 34.6361 554.145 36.9021 549.633 39.1642L547.727 40.1192C539.989 43.9979 532.237 47.8427 524.42 51.5625C515.403 55.8385 506.433 60.1948 497.51 64.6632L495.602 65.6192C490.455 68.1989 485.309 70.7832 480.165 73.3692C475.655 75.636 471.145 77.9021 466.633 80.1642L464.727 81.1192C456.989 84.9979 449.237 88.8427 441.42 92.5625C432.403 96.8385 423.433 101.195 414.51 105.663L412.602 106.619C407.455 109.199 402.309 111.783 397.165 114.369C392.655 116.636 388.144 118.903 383.631 121.165L381.727 122.119C372.959 126.514 364.165 130.844 355.306 135.053C345.483 139.716 335.733 144.515 326.009 149.379C322.954 150.909 319.899 152.439 316.843 153.965C311.838 156.462 306.839 158.969 301.85 161.499C299.019 162.935 296.184 164.36 293.33 165.75C291.516 166.63 289.705 167.519 287.899 168.417L285.368 169.678L282.975 170.806L280.779 171.918L278.873 172.846C275.186 176.134 275.186 176.134 272.556 187.774L272.03 190.199C271.409 192.98 270.789 195.761 270.178 198.544C269.728 200.594 269.276 202.644 268.821 204.693C267.827 209.159 266.834 213.625 265.848 218.093C264.225 225.449 262.599 232.803 260.966 240.157C260.251 243.376 259.536 246.595 258.822 249.814L258.385 251.783C257.339 256.495 256.294 261.207 255.25 265.919C250.843 285.818 246.417 305.713 241.975 325.605L241.001 329.969L240.512 332.159L238.547 340.955L237.561 345.372C233.248 364.688 228.944 384.006 224.643 403.325L222.145 414.541L221.644 416.79C218.909 429.073 216.169 441.356 213.426 453.637C210.538 466.569 207.655 479.502 204.777 492.436C203.026 500.308 201.274 508.18 199.513 516.049C198.313 521.408 197.118 526.768 195.928 532.129C195.378 534.608 194.827 537.087 194.276 539.567L194.263 539.623C193.493 543.052 192.723 546.48 191.964 549.911L191.274 553.031C190.495 556.467 189.725 559.89 189.165 563.369C188.564 571.172 188.564 571.172 208.454 596.623C211.452 600.455 214.442 604.293 217.428 608.135C218.59 609.629 219.751 611.123 220.913 612.617L222.665 614.869L369.665 803.869L373.165 808.369L373.831 809.226C376.546 812.718 379.262 816.209 381.979 819.7C383.193 821.258 384.406 822.816 385.619 824.374L387.415 826.682C390.987 831.27 394.551 835.865 398.085 840.482C402.005 845.605 405.991 850.661 410.04 855.682C412.653 858.913 415.254 862.147 417.738 865.48L419.313 867.631C420.349 869.042 421.383 870.455 422.415 871.869C423.758 873.761 425.106 875.62 426.559 877.429L428.165 879.369C428.889 880.276 429.26 880.74 429.649 881.188C430.057 881.659 430.485 882.113 431.361 883.043C436.494 887.415 436.494 887.415 449.688 887.272H449.688C451.26 887.253 452.832 887.248 454.404 887.254C458.752 887.288 463.098 887.296 467.446 887.271C472.195 887.244 476.943 887.247 481.691 887.261C490.997 887.291 500.303 887.289 509.609 887.262C520.541 887.231 531.472 887.226 542.404 887.231C561.872 887.242 581.34 887.224 600.808 887.18C619.772 887.137 638.735 887.113 657.699 887.128C678.425 887.146 699.15 887.153 719.876 887.128L726.504 887.12L729.8 887.116C737.445 887.107 745.09 887.103 752.735 887.109C762.142 887.117 771.548 887.114 780.955 887.084L782.631 887.078C786.874 887.062 791.117 887.046 795.36 887.052C799.812 887.064 804.264 887.07 808.716 887.045C810.336 887.034 811.957 887.025 813.577 887.018C814.684 887.025 815.825 887.066 816.982 887.108C822.609 887.312 828.627 887.53 833.03 883.95L835.165 881.369L836.909 879.435L838.321 877.576L839.958 875.445C841.132 873.889 842.312 872.337 843.497 870.789L845.384 868.326C848.377 864.396 851.396 860.487 854.432 856.591C855.594 855.102 856.754 853.612 857.913 852.122L859.665 849.869L1034.66 624.869L1038.16 620.369L1038.8 619.555C1041.52 616.056 1044.24 612.556 1046.96 609.055L1048.77 606.729L1052.35 602.119C1055.64 597.88 1058.94 593.645 1062.28 589.443L1062.64 588.987C1066.45 584.194 1070.27 579.396 1073.85 574.432C1076.7 569.978 1076.85 566.644 1075.77 561.46L1075.29 559.364L1074.75 556.951C1074.52 555.927 1074.29 554.903 1074.06 553.879C1073.9 553.172 1073.74 552.465 1073.58 551.758L1072.98 549.013L1072.32 546.085L1070.87 539.555L1070.08 535.961C1063.76 507.503 1057.44 479.045 1051.11 450.587L1048.33 438.053L1047.77 435.532C1046.05 427.788 1044.33 420.044 1042.61 412.3L1040 400.541L1035.11 378.555L1034.58 376.127C1030.51 357.824 1026.44 339.522 1022.37 321.221L1021.85 318.886C1020.16 311.282 1018.47 303.677 1016.77 296.073C1013.45 281.134 1010.12 266.195 1006.82 251.252C1004.85 242.354 1002.88 233.457 1000.9 224.561C999.606 218.765 998.316 212.969 997.041 207.17C996.274 203.685 995.503 200.201 994.725 196.718C994.372 195.142 994.02 193.566 993.668 191.99C993.2 189.841 992.732 187.692 992.249 185.546L991.816 183.629C990.711 178.643 989.62 174.979 985.213 172.089L982.967 170.978L980.402 169.691L977.618 168.334C974.598 166.831 971.577 165.332 968.549 163.845C966.493 162.836 964.44 161.823 962.389 160.806C952.564 155.923 942.715 151.093 932.806 146.383C918.473 139.572 904.29 132.474 890.113 125.348C884.954 122.755 879.795 120.162 874.633 117.574L872.727 116.619C864.079 112.285 855.406 108.014 846.665 103.869C838.567 100.029 830.523 96.0881 822.51 92.0751L820.602 91.1192C816.104 88.865 811.608 86.6076 807.113 84.3482C801.954 81.755 796.795 79.1619 791.633 76.5741L789.727 75.6192C781.079 71.2847 772.406 67.0143 763.665 62.8692C755.567 59.029 747.523 55.0881 739.51 51.0751L737.602 50.1192C733.104 47.865 728.608 45.6076 724.113 43.3482C718.952 40.7543 713.792 38.1606 708.629 35.5721L706.727 34.6192C697.765 30.1269 688.774 25.7055 679.72 21.4004ZM622.87 26.7462L625.556 25.3977C631.134 22.5579 634.733 22.8663 640.325 25.679L642.282 26.7012C644.459 27.8047 646.635 28.9101 648.805 30.0281C651.684 31.5142 654.57 32.9868 657.457 34.4572L659.657 35.5762C665.453 38.5314 671.281 41.4015 677.157 44.1952C686.304 48.5349 695.408 52.9491 704.461 57.4834L706.29 58.4004C710.625 60.5731 714.958 62.7488 719.29 64.9266C724.259 67.4248 729.228 69.9228 734.2 72.4156L736.04 73.3379C743.525 77.0898 751.023 80.8076 758.586 84.4009C768.34 89.0216 778.028 93.7605 787.678 98.5922L789.915 99.7129C795.229 102.375 800.541 105.041 805.853 107.708C811.962 110.776 818.071 113.844 824.182 116.907L826.415 118.025C836.346 123.006 846.302 127.913 856.352 132.65C861.232 134.915 865.974 137.17 870.516 140.063C873.062 141.755 875.471 142.963 878.352 143.994L878.614 144.086C882.627 145.496 886.193 146.749 888.477 150.557L889.165 152.369H893.165V154.369C895.25 154.179 896.261 154.086 897.155 154.366C897.996 154.629 898.734 155.221 900.165 156.369V158.369H904.165V161.369C906.25 161.179 907.261 161.086 908.155 161.366C908.996 161.629 909.734 162.221 911.165 163.369V165.369H915.165V167.369H920.165V169.369H924.165V172.369H926.165V174.369H931.165V176.369H935.165L937.165 181.369C940.999 181.369 942.79 181.77 946.165 183.369C947.16 184.365 947.66 184.865 948.235 185.254C948.815 185.648 949.471 185.929 950.79 186.494L953.165 187.369V189.369H957.165V191.369L959.54 191.619C960.97 191.866 961.662 191.985 962.157 192.363C962.622 192.718 962.913 193.301 963.477 194.432L964.165 196.369H968.165V198.369L973.165 199.369C974.13 203.899 975.098 208.428 976.071 212.957L976.602 215.432C978.683 225.141 980.786 234.843 983.065 244.508L983.7 247.193L984.042 248.647C984.944 252.477 985.846 256.307 986.774 260.131C987.166 261.745 987.554 263.36 987.937 264.976L988.477 267.26C989.931 273.102 990.324 278.335 990.165 284.369H986.165V286.369H981.165V288.369H979.165V290.369H975.165V293.369L968.165 295.369V297.369C965.922 297.951 963.685 298.467 961.415 298.932L959.165 299.369V301.369H955.165L954.415 303.807C953.888 305.285 953.652 305.946 953.19 306.349C952.817 306.676 952.296 306.834 951.352 307.119L949.165 307.369L946.415 307.932L944.165 308.369V310.369L942.29 310.619C941.26 310.983 940.729 311.17 940.313 311.502C939.871 311.854 939.559 312.369 938.915 313.432L938.165 315.369H933.165V317.369H928.165V319.369H926.165V321.369H922.165V323.369C919.922 323.951 917.685 324.467 915.415 324.932L913.165 325.369V328.369L906.165 330.369V332.369H902.165V334.369H898.165V337.369H896.165V339.369H891.165V341.369C890.296 341.543 889.83 341.636 889.368 341.748C888.834 341.878 888.305 342.034 887.165 342.369C886.222 343.489 885.757 344.041 885.168 344.368C884.594 344.685 883.903 344.789 882.54 344.994L880.165 345.369V348.369L873.165 350.369V352.369H869.165V354.369C867.835 354.714 866.5 355.044 865.165 355.369C863.815 355.498 863.16 355.56 862.518 355.692C861.912 355.817 861.319 356.005 860.165 356.369L858.852 358.932L858.165 361.369H854.165V363.369L847.165 365.369V367.369H843.165V370.369L836.165 372.369V374.369C833.922 374.951 831.685 375.467 829.415 375.932L827.165 376.369V379.369H823.165V381.369H819.165V383.369H814.165V385.369H809.165C808.272 389.014 808.029 392.512 807.977 396.259L807.96 398.556C807.928 401.127 807.898 403.698 807.874 406.269C807.857 408.104 807.838 409.939 807.818 411.775C807.762 416.586 807.71 421.397 807.662 426.208C807.613 431.193 807.559 436.178 807.504 441.163C807.385 451.898 807.272 462.634 807.165 473.369H809.165V475.369H814.165V473.369C815.122 472.841 815.63 472.562 816.168 472.368C816.773 472.15 817.418 472.04 818.79 471.807L821.165 471.369V469.369H825.165V467.369H830.165V464.369H834.165V462.369H836.165V460.369H841.165V458.369H843.165V456.369H847.165V453.369C848.034 453.195 848.5 453.102 848.962 452.99C849.496 452.86 850.025 452.705 851.165 452.369C852.108 451.249 852.573 450.697 853.162 450.371C853.735 450.053 854.427 449.949 855.79 449.744L858.165 449.369V447.369H863.165V445.369H867.165V442.369H869.165V440.369H873.165V438.369H878.165L878.915 435.932C879.442 434.454 879.678 433.792 880.14 433.389C880.513 433.062 881.034 432.905 881.977 432.619L884.165 432.369L886.915 431.807L889.165 431.369V429.369H891.165V427.369H895.165V425.369H900.165V422.369C902.914 421.237 905.661 420.201 908.477 419.244L911.165 418.369V416.369C913.407 415.788 915.645 415.271 917.915 414.807L920.165 414.369V411.369H922.165V409.369C922.435 409.264 922.705 409.158 922.975 409.053C925.362 408.121 927.737 407.193 930.165 406.369C931.794 406.157 932.5 406.065 933.192 405.911C933.722 405.794 934.244 405.64 935.165 405.369L936.227 402.869L937.165 400.369L938.977 399.619L941.165 399.369L943.915 398.807L946.165 398.369V396.369C947.122 395.841 947.63 395.562 948.168 395.368C948.773 395.15 949.418 395.04 950.79 394.807L953.165 394.369V392.369H957.165L958.165 389.369C960.757 387.497 962.865 386.442 965.977 385.682L968.165 385.369V383.369C969.122 382.841 969.63 382.562 970.168 382.368C970.773 382.15 971.418 382.04 972.79 381.807L975.165 381.369V378.369H979.165V376.369C980.638 375.192 981.348 374.625 982.156 374.372C982.906 374.137 983.741 374.174 985.352 374.244L988.165 374.369V372.369H993.165L994.165 368.369L999.165 367.369V365.369H1003.16V363.369H1005.16V361.369H1009.16C1010.44 366.379 1011.64 371.396 1012.74 376.448L1013.29 379.022C1013.69 380.868 1014.09 382.715 1014.49 384.563C1015.11 387.437 1015.73 390.312 1016.35 393.185C1016.77 395.075 1017.17 396.965 1017.58 398.855L1018.17 401.584C1019.54 407.843 1020.55 413.988 1021.16 420.369C1019.88 420.942 1019.18 421.253 1018.49 421.589C1017.68 421.987 1016.89 422.422 1015.16 423.369C1014.17 424.707 1013.17 426.041 1012.16 427.369H1008.16V429.369H1003.16V431.369H999.165V433.369H997.165V436.369C994.922 436.951 992.685 437.467 990.415 437.932L988.165 438.369V440.369C987.207 440.897 986.7 441.176 986.162 441.37C985.556 441.589 984.911 441.698 983.54 441.932L981.165 442.369V444.369H977.165L976.415 446.807C975.888 448.285 975.652 448.946 975.19 449.349C974.817 449.676 974.296 449.834 973.352 450.119L971.165 450.369L968.415 450.932L966.165 451.369V453.369C965.207 453.897 964.7 454.176 964.162 454.37C963.556 454.589 962.911 454.698 961.54 454.932L959.165 455.369V458.369H955.165V460.369H950.165V462.369H948.165V464.369H944.165V466.369C943.363 466.48 942.916 466.541 942.478 466.641C941.925 466.766 941.385 466.951 940.165 467.369C939.185 468.717 938.185 470.051 937.165 471.369H933.165V473.369H928.165V475.369H924.165V477.369H922.165V480.369H918.165V482.369H913.165V484.369C912.296 484.543 911.83 484.636 911.368 484.748C910.834 484.878 910.305 485.034 909.165 485.369C908.222 486.489 907.757 487.041 907.168 487.368C906.594 487.685 905.903 487.789 904.54 487.994L902.165 488.369V491.369H898.165V493.369L891.165 495.369V497.369C889.835 497.714 888.5 498.044 887.165 498.369C885.815 498.498 885.16 498.56 884.518 498.692C883.912 498.817 883.319 499.005 882.165 499.369L881.165 501.807C880.782 503.209 880.595 503.895 880.17 504.364C879.763 504.813 879.138 505.065 877.915 505.557L875.165 506.369L871.852 507.494L869.165 508.369V510.369H865.165V513.369H860.165V515.369H856.165V517.369C855.207 517.897 854.7 518.176 854.162 518.37C853.556 518.589 852.911 518.698 851.54 518.932L849.165 519.369V521.369H845.165L844.415 523.807C843.888 525.285 843.652 525.946 843.19 526.349C842.817 526.676 842.296 526.834 841.352 527.119L839.165 527.369L836.415 527.932L834.165 528.369V530.369C833.207 530.897 832.7 531.176 832.162 531.37C831.556 531.589 830.911 531.698 829.54 531.932L827.165 532.369V535.369H823.165V537.369H818.165V539.369H816.165V541.369H812.165V544.369L803.165 545.369L801.165 550.369H796.165V553.369H792.165V555.369H788.165V557.369H786.165V559.369H781.165V561.369C780.296 561.543 779.83 561.636 779.368 561.748C778.834 561.878 778.305 562.034 777.165 562.369C776.222 563.489 775.757 564.041 775.168 564.368C774.594 564.685 773.903 564.789 772.54 564.994L770.165 565.369V568.369H765.165V570.369H763.165V572.369H759.165V574.369H755.165V577.369L748.165 579.369V581.369H744.165V583.369H739.165V585.369H737.165V587.369H733.165V590.369H728.165V592.369H724.165V594.369C723.207 594.897 722.7 595.176 722.162 595.37C721.556 595.589 720.911 595.698 719.54 595.932L717.165 596.369V598.369H713.165L711.165 603.369H706.165V605.369H702.165V607.369C701.207 607.897 700.7 608.176 700.162 608.37C699.556 608.589 698.911 608.698 697.54 608.932L695.165 609.369V612.369C694.296 612.543 693.83 612.636 693.368 612.748C692.834 612.878 692.305 613.034 691.165 613.369C690.222 614.489 689.757 615.041 689.168 615.368C688.594 615.685 687.903 615.789 686.54 615.994L684.165 616.369V618.369H680.165V620.369C679.363 620.48 678.916 620.541 678.478 620.641C677.925 620.766 677.385 620.951 676.165 621.369C675.185 622.717 674.185 624.051 673.165 625.369H669.165V627.369H664.165V630.369C663.302 630.513 662.837 630.591 662.378 630.699C661.84 630.827 661.312 630.998 660.165 631.369L658.165 634.369L655.54 634.557L653.165 634.369V636.369H649.165V638.369C646.212 639.949 643.556 641.276 640.29 642.057L638.165 642.369V645.369H633.165V647.369H631.165V649.369H629.165V651.369H625.165V654.369H620.165V656.369H616.165V658.369C615.207 658.897 614.7 659.176 614.162 659.37C613.556 659.589 612.911 659.698 611.54 659.932L609.165 660.369V662.369H605.165L604.415 664.807C603.888 666.285 603.652 666.946 603.19 667.35C602.817 667.676 602.296 667.834 601.352 668.119L599.165 668.369L596.415 668.932L594.165 669.369V671.369H592.165V674.369C591.773 674.519 591.382 674.668 590.992 674.816C586.988 676.34 583.046 677.841 579.352 680.057C578.303 680.757 577.757 681.121 577.162 681.37C576.517 681.641 575.816 681.776 574.352 682.057L572.165 682.369V684.369C571.296 684.543 570.83 684.636 570.368 684.748C569.834 684.878 569.305 685.034 568.165 685.369C567.222 686.489 566.757 687.041 566.168 687.368C565.594 687.685 564.903 687.789 563.54 687.994L561.165 688.369V691.369H556.165L555.165 694.369L550.165 695.369V698.369H546.165V700.369H544.165V702.369H539.165V704.369C538.363 704.48 537.916 704.541 537.478 704.641C536.925 704.766 536.385 704.951 535.165 705.369C534.185 706.717 533.185 708.051 532.165 709.369H528.165V711.369H523.165V713.369H521.165V715.369H517.165V717.369C516.363 717.48 515.916 717.541 515.478 717.641C514.925 717.766 514.385 717.951 513.165 718.369C512.185 719.717 511.185 721.051 510.165 722.369H506.165V724.369H501.165V726.369H497.165V728.369H495.165V731.369H491.165V733.369H486.165V735.369C485.296 735.543 484.83 735.636 484.368 735.748C483.834 735.878 483.305 736.034 482.165 736.369C481.222 737.489 480.757 738.041 480.168 738.368C479.594 738.685 478.903 738.789 477.54 738.994L475.165 739.369V742.369H470.165V744.369H468.165V746.369H464.165V748.369C463.296 748.543 462.83 748.636 462.368 748.748C461.834 748.878 461.305 749.034 460.165 749.369C459.222 750.489 458.757 751.041 458.168 751.368C457.594 751.685 456.903 751.789 455.54 751.994L453.165 752.369V755.369H449.165V757.369L442.165 759.369V761.369H438.165V764.369H436.165V766.369H431.165V768.369C430.296 768.543 429.83 768.636 429.368 768.748C428.834 768.878 428.305 769.034 427.165 769.369L425.165 771.369C423.933 771.523 423.308 771.601 422.692 771.723C422.058 771.849 421.433 772.021 420.165 772.369L418.852 774.932L418.165 777.369H413.165V779.369H409.165V781.369H407.165V783.369C404.923 783.951 402.685 784.467 400.415 784.932L398.165 785.369V788.369H393.165V790.369H391.165V792.369H388.165L386.177 790.158C384.971 788.518 383.765 786.877 382.549 785.245L381.161 783.389C378.547 779.864 375.871 776.392 373.172 772.931C371.987 771.414 370.803 769.896 369.621 768.378L367.806 766.045C364.837 762.233 361.871 758.42 358.905 754.607L357.358 752.618C354.356 748.757 351.354 744.897 348.35 741.039C345.38 737.224 342.411 733.41 339.446 729.592C337.838 727.521 336.229 725.451 334.614 723.384C333.652 722.154 332.691 720.922 331.732 719.689L330.415 717.994C327.984 714.879 325.776 711.986 324.165 708.369L330.165 706.369V704.369H334.165V702.369H339.165V700.369H343.165L343.915 697.932C344.442 696.454 344.678 695.792 345.14 695.389C345.513 695.062 346.034 694.905 346.977 694.619L349.165 694.369L351.915 693.807L354.165 693.369V691.369C355.122 690.841 355.63 690.562 356.168 690.368C356.773 690.15 357.418 690.04 358.79 689.807L361.165 689.369V686.369H365.165V684.369H367.165V682.369H371.165V680.369H376.165V678.369H381.165V676.369H383.165V673.369H387.165V671.369H391.165V669.369H396.165L396.915 666.932C397.442 665.454 397.678 664.792 398.14 664.389C398.513 664.062 399.034 663.905 399.977 663.619L402.165 663.369L404.915 662.807L407.165 662.369V660.369H409.165V658.369H413.165V656.369H418.165L420.165 651.369H424.165V649.369H429.165V647.369H433.165L433.852 645.432C434.417 644.301 434.708 643.718 435.173 643.363C435.668 642.985 436.36 642.866 437.79 642.619L440.165 642.369V640.369L443.852 638.932C445.277 638.376 446.716 637.857 448.165 637.369L453.165 636.369V554.369H455.165V543.369H451.165L450.165 546.369C447.572 548.242 445.465 549.296 442.352 550.057L440.165 550.369V552.369C439.207 552.897 438.7 553.176 438.162 553.37C437.556 553.589 436.911 553.698 435.54 553.932L433.165 554.369V557.369H431.165V559.369C430.296 559.543 429.83 559.636 429.368 559.748C428.834 559.878 428.305 560.034 427.165 560.369C426.222 561.489 425.757 562.041 425.168 562.368C424.594 562.685 423.903 562.789 422.54 562.994L420.165 563.369V566.369H416.165V568.369H411.165V570.369H407.165V572.369C406.207 572.897 405.7 573.176 405.162 573.37C404.556 573.589 403.911 573.698 402.54 573.932L400.165 574.369V577.369H396.165V579.369H391.165V581.369H389.165V583.369H385.165V585.369C384.363 585.48 383.916 585.541 383.478 585.641C382.925 585.766 382.385 585.951 381.165 586.369C380.185 587.717 379.185 589.051 378.165 590.369H374.165V592.369H369.165V594.369H365.165V596.369H363.165V599.369H359.165V601.369H354.165V603.369C353.296 603.543 352.83 603.636 352.368 603.748C351.834 603.878 351.305 604.034 350.165 604.369C349.222 605.489 348.757 606.041 348.168 606.368C347.594 606.685 346.903 606.789 345.54 606.994L343.165 607.369V610.369H339.165V612.369H337.165V614.369H332.165V616.369C331.296 616.543 330.83 616.636 330.368 616.748C329.834 616.878 329.305 617.034 328.165 617.369C327.222 618.489 326.757 619.041 326.168 619.368C325.594 619.685 324.903 619.789 323.54 619.994L321.165 620.369V623.369H317.165V625.369H312.165V627.369H308.165V629.369C307.207 629.897 306.7 630.176 306.162 630.37C305.556 630.589 304.911 630.698 303.54 630.932L301.165 631.369V634.369C300.296 634.543 299.83 634.636 299.368 634.748C298.834 634.878 298.305 635.034 297.165 635.369C296.222 636.489 295.757 637.041 295.168 637.368C294.594 637.685 293.903 637.789 292.54 637.994L290.165 638.369V641.369H286.165V643.369C285.051 643.516 284.46 643.594 283.875 643.706C283.213 643.833 282.559 644.004 281.165 644.369L279.165 647.369H275.165L273.298 645.377C272.256 643.881 271.212 642.385 270.153 640.9L268.923 639.19C266.371 635.615 263.694 632.151 260.988 628.693C256.652 623.165 252.328 617.628 248.079 612.033L246.915 610.494C244.675 607.538 242.705 604.748 241.165 601.369H244.165C244.504 600.161 244.679 599.534 244.915 598.931C245.169 598.282 245.493 597.66 246.165 596.369L248.165 595.682L250.165 595.369C252.024 593.16 252.024 593.16 254.79 592.744L257.165 592.369V590.369H262.165V587.369H266.165V585.369H268.165V583.369H272.165V581.369H277.165V578.369C278.034 578.195 278.5 578.102 278.962 577.99C279.496 577.86 280.025 577.705 281.165 577.369C282.108 576.249 282.573 575.697 283.162 575.371C283.735 575.053 284.427 574.949 285.79 574.744L288.165 574.369V572.369H292.165V570.369H297.165L299.165 566.369H304.165V563.369H308.165V561.369H312.165V559.369H314.165V557.369H319.165V555.369H323.165V552.369L330.165 550.369V548.369H334.165V546.369H339.165V543.369H343.165V541.369H345.165V539.369H350.165V537.369H354.165L354.915 534.932C355.442 533.454 355.678 532.792 356.14 532.389C356.513 532.062 357.034 531.905 357.977 531.619L360.165 531.369L362.915 530.807L365.165 530.369V528.369H369.165V526.369H371.165V524.369H376.165V522.369H381.165L382.165 518.369L387.165 517.369V515.369H392.165V513.369H396.165V511.369H400.165L402.165 506.369H407.165L409.165 501.369L418.165 500.369V498.369H423.165V495.369H427.165V493.369H431.165L431.915 490.932C432.442 489.454 432.678 488.792 433.14 488.389C433.513 488.062 434.034 487.905 434.977 487.619L437.165 487.369L439.915 486.807L442.165 486.369V484.369C444.201 483.247 444.201 483.247 446.79 482.807L449.165 482.369V480.369H453.165V451.369C449.369 451.369 447.536 450.867 444.165 449.369V447.369H439.165L438.165 442.369C434.369 442.369 432.536 441.867 429.165 440.369V438.369H424.165V435.369H420.165V433.369H418.165V431.369C414.369 431.369 412.536 430.867 409.165 429.369V427.369H407.165V425.369H402.165V423.369H398.165V420.369C394.369 420.369 392.536 419.867 389.165 418.369V416.369H385.165V414.369L378.165 412.369V409.369H374.165V407.369H370.165V405.369H365.165V403.369H363.165V401.369H358.165V398.369H354.165V396.369C349.839 396.369 348.559 395.87 345.165 393.369C344.53 392.02 343.866 390.685 343.165 389.369L341.04 388.807C338.274 388.158 336.886 387.833 335.531 387.406C334.167 386.975 332.836 386.441 330.165 385.369V383.369L323.165 381.369V379.369H319.165V376.369H314.165L312.165 372.369H308.165V370.369H303.165V368.369H299.165V365.369C296.93 365.534 296.028 365.601 295.202 365.383C294.644 365.235 294.121 364.958 293.243 364.494L291.415 363.369L288.165 361.369V359.369H284.165V356.369C280.369 356.369 278.536 355.867 275.165 354.369V352.369H270.165V350.369H268.165V348.369H264.165V346.369H260.165C260.165 342.954 260.566 340.122 261.307 336.813L261.817 334.6C262.374 332.134 262.932 329.67 263.496 327.206C263.903 325.426 264.309 323.646 264.713 321.865C266.75 312.877 268.807 303.893 270.893 294.916C271.449 292.526 272.005 290.136 272.56 287.746L273.665 282.994C276.877 269.191 279.913 255.358 282.852 241.494C286.053 226.39 289.412 211.348 293.165 196.369H297.165V193.369H299.165V191.369H303.165V189.369H308.165L310.165 184.369L319.165 183.369V180.369H321.165V178.369H325.165V176.369H330.165L330.915 173.932C331.442 172.454 331.678 171.792 332.14 171.389C332.513 171.062 333.034 170.905 333.977 170.619L336.165 170.369L338.915 169.807L341.165 169.369V167.369H345.165V165.369H347.165V163.369H352.165V161.369H356.165C357.126 159.444 357.613 158.469 358.348 157.746C359.102 157.005 360.118 156.53 362.177 155.567L364.329 154.525C366.669 153.363 369.01 152.203 371.358 151.057C372.942 150.283 374.524 149.506 376.104 148.725C383.526 145.043 390.97 141.407 398.453 137.85C414.468 130.24 430.324 122.332 446.165 114.369C450.675 112.102 455.185 109.836 459.697 107.574L461.602 106.619C469.341 102.74 477.093 98.8957 484.91 95.1758C493.926 90.8999 502.897 86.5435 511.82 82.0751L513.727 81.1192C518.875 78.5395 524.02 75.9551 529.165 73.3692C533.675 71.1021 538.186 68.8359 542.698 66.5735L544.602 65.6192C553.351 61.2338 562.127 56.9178 570.97 52.7247C577.872 49.4532 584.729 46.1082 591.546 42.6622L594.735 41.045C598.921 38.9264 603.107 36.8068 607.29 34.6817C610.505 33.0384 613.721 31.3963 616.943 29.7677L619.985 28.2325L622.87 26.7462ZM1042.37 511.381C1041.97 509.71 1041.57 508.04 1041.17 506.369C1039.07 506.369 1038.07 506.369 1037.17 506.657C1036.34 506.918 1035.59 507.417 1034.17 508.369V510.369H1030.17V513.369C1026.37 513.369 1024.54 513.871 1021.17 515.369V517.369L1014.17 519.369V521.369H1010.17L1008.17 526.369C1004.37 526.369 1002.54 526.871 999.165 528.369V530.369H995.165C994.216 531.441 993.74 531.979 993.165 532.369C992.586 532.762 991.905 533.006 990.54 533.494L988.165 534.369V537.369H984.165V539.369H979.165V541.369H977.165V543.369C974.788 543.369 973.823 543.369 972.881 543.514C972.238 543.612 971.605 543.778 970.54 544.057C969.395 544.689 968.802 545.017 968.348 545.481C967.86 545.979 967.532 546.634 966.853 547.994L966.165 550.369H961.165V553.369H957.165V555.369H953.165V557.369C951.069 557.369 950.072 557.369 949.165 557.657C948.342 557.918 947.593 558.417 946.165 559.369V561.369C942.369 561.369 940.536 561.871 937.165 563.369V565.369H933.165C930.447 569.311 928.26 570.346 923.81 571.854L922.165 572.369V574.369H920.165V577.369C916.303 577.369 914.549 577.72 911.165 579.369C909.508 581.119 908.327 582.294 906.122 583.318L903.978 584.057L901.81 584.818L900.165 585.369V588.369L891.165 589.369L889.165 594.369H884.165V597.369H880.165V599.369H876.165V601.369C874.069 601.369 873.072 601.369 872.165 601.657C871.342 601.918 870.593 602.417 869.165 603.369V605.369C865.369 605.369 863.536 605.871 860.165 607.369V610.369H856.165L854.165 614.369H849.165V616.369H845.165V618.369L838.165 620.369V623.369H834.165V625.369H829.165L827.165 630.369H823.165V632.369H819.165V634.369H814.165V636.369H810.165C809.216 637.441 808.74 637.979 808.165 638.369C807.586 638.762 806.905 639.006 805.54 639.494L803.165 640.369V643.369H799.165V645.369H797.165V647.369H792.165V649.369H788.165C787.216 650.441 786.74 650.979 786.165 651.369C785.586 651.762 784.905 652.006 783.54 652.494L781.165 653.369V656.369H777.165V658.369H772.165V660.369H770.165V662.369H766.165V665.369C764.069 665.369 763.072 665.369 762.165 665.657C761.342 665.918 760.593 666.417 759.165 667.369V669.369H754.165V671.369H750.165V673.369H746.165V675.369H744.165V678.369H739.165V680.369H735.165V682.369H733.165V685.369H729.165V687.369H724.165V689.369H719.165V691.369H717.165V693.369H713.165V695.369L706.165 697.369V700.369H702.165V702.369H697.165V704.369H695.165V707.369L687.165 708.369L686.165 711.369H682.165V713.369H680.165V715.369H675.165V718.369H671.165V720.369H667.165V722.369H665.165V724.369H660.165V726.369C657.788 726.369 656.823 726.369 655.881 726.514C655.238 726.612 654.605 726.778 653.54 727.057C652.395 727.689 651.802 728.017 651.348 728.481C650.86 728.979 650.532 729.634 649.853 730.994L649.165 733.369H645.165V735.369H640.165V737.369H636.165V740.369H629.165V742.369H625.165V744.369H620.165V746.369H618.165V748.369C613.839 748.369 612.559 748.868 609.165 751.369C608.53 752.718 607.867 754.054 607.165 755.369L605.04 755.932C604.029 756.086 603.32 756.193 602.622 756.348C600.992 756.708 599.417 757.322 594.165 759.369V761.369L589.165 762.369L588.165 766.369H583.165V768.369H578.165C577.759 769.43 577.543 769.995 577.152 770.383C576.708 770.824 576.037 771.038 574.603 771.494L572.165 772.369V775.369H568.165V777.369H566.165V779.369H561.165V781.369H557.165C556.216 782.441 555.74 782.979 555.165 783.369C554.585 783.762 553.905 784.006 552.54 784.494L550.165 785.369V788.369H545.165V790.369H543.165V792.369H539.165V794.369C536.788 794.369 535.823 794.369 534.881 794.514C534.238 794.612 533.605 794.778 532.54 795.057C531.395 795.689 530.802 796.017 530.348 796.481C529.86 796.979 529.532 797.634 528.853 798.994L528.165 801.369H523.165V803.369H519.165V805.369H517.165V808.369H513.165V810.369H508.165V812.369L503.165 813.369L502.165 817.369H497.165V819.369C495.069 819.369 494.072 819.369 493.165 819.657C492.342 819.918 491.593 820.417 490.165 821.369V823.369H486.165V825.369H482.165L480.165 827.369C477.821 827.997 475.487 828.664 473.165 829.369C472.248 831.051 471.82 831.835 471.179 832.359C470.619 832.816 469.896 833.074 468.54 833.557L466.165 834.369V836.369H462.165V838.369H460.165V841.369C456.369 841.369 454.536 841.871 451.165 843.369V845.369L444.165 847.369V850.369L438.165 851.369L437.165 854.369H440.165V856.369L442.04 856.619C443.172 856.895 443.749 857.036 444.169 857.372C444.606 857.723 444.872 858.285 445.415 859.432L446.165 861.369H451.165V863.369H455.165V865.369H631.165L632.165 808.369L636.165 805.369V803.369H638.165V801.369H642.165V799.369H647.165V797.369H652.165V795.369H656.165V792.369H658.165V790.369H662.165V788.369H667.165V786.369H671.165V783.369H675.165L677.165 779.369H682.165V777.369H686.165V775.369H691.165V772.369H693.165V770.369H697.165V768.369H702.165L704.165 763.369C707.961 763.369 709.794 762.867 713.165 761.369V759.369H717.165V757.369H719.165V755.369H724.165L726.165 750.369H730.165V748.369H735.165V746.369H739.165V744.369H744.165L746.165 739.369H750.165V737.369H754.165V735.369H759.165V733.369H764.165V731.369H766.165V728.369H770.165V726.369H774.165V724.369H776.165V722.369H781.165V719.369H785.165C786.114 718.297 786.59 717.759 787.165 717.369C787.745 716.976 788.425 716.733 789.79 716.244L792.165 715.369V713.369H796.165V711.369H801.165V709.369H805.165C806.082 707.687 806.51 706.903 807.151 706.38C807.711 705.922 808.435 705.665 809.79 705.182L812.165 704.369V702.369H814.165V700.369H819.165V698.369H823.165V696.369H827.165L829.165 691.369H834.165V689.369H838.165V686.369C840.261 686.369 841.258 686.369 842.165 686.082C842.989 685.82 843.737 685.321 845.165 684.369V682.369H849.165V680.369H851.165V678.369H856.165V676.369C859.961 676.369 861.794 675.867 865.165 674.369V671.369H867.165V669.369H871.165V667.369H876.165V664.369H880.165V662.369C881.853 661.806 883.538 661.231 885.208 660.615L887.353 659.807C888.624 659.328 889.894 658.849 891.165 658.369V656.369L898.165 654.369V651.369H902.165V649.369L909.165 647.369V645.369H913.165V642.369H917.165C918.114 641.297 918.59 640.759 919.165 640.369C919.745 639.976 920.425 639.733 921.79 639.244L924.165 638.369V636.369H929.165V634.369H933.165L935.165 629.369H939.165V627.369H944.165V625.369C947.961 625.369 949.794 624.867 953.165 623.369V620.369H955.165V618.369C956.72 618.126 957.746 617.966 958.754 617.731C960.711 617.275 962.603 616.538 968.165 614.369V612.369L975.165 610.369V607.369H979.165V605.369L982.165 604.369C982.592 604.244 983.007 604.127 983.411 604.012C986.977 603.004 989.679 602.24 991.665 598.682L992.165 596.369C995.961 596.369 997.794 595.867 1001.17 594.369V592.369H1006.17V590.369H1010.17L1012.17 585.369H1016.17V583.369H1021.17V581.369H1023.17V579.369H1028.17V576.369H1032.17V574.369H1034.17V572.369H1039.17V570.369H1043.17V568.369H1048.17V566.369H1050.17C1050.19 565.391 1050.22 564.413 1050.25 563.436C1050.53 553.911 1050.81 544.41 1048.23 535.15C1047.33 531.766 1046.88 530.073 1046.45 528.375C1046.02 526.676 1045.62 524.971 1044.81 521.562C1044.26 519.239 1043.7 516.917 1043.15 514.596L1042.37 511.381Z" fill="white"/>
<path d="M566.165 511.369C568.805 511.369 571.445 511.369 574.165 511.369C574.165 512.029 574.165 512.689 574.165 513.369C575.815 513.369 577.465 513.369 579.165 513.369C579.165 514.029 579.165 514.689 579.165 515.369C580.485 515.369 581.805 515.369 583.165 515.369C584.603 516.682 584.603 516.682 586.165 518.369C587.011 518.823 587.856 519.277 588.728 519.744C591.607 521.664 592.196 523.108 593.165 526.369C592.505 526.369 591.845 526.369 591.165 526.369C590.835 529.999 590.505 533.629 590.165 537.369C589.175 537.369 588.185 537.369 587.165 537.369C587.165 538.689 587.165 540.009 587.165 541.369C586.505 541.369 585.845 541.369 585.165 541.369C585.165 543.019 585.165 544.669 585.165 546.369C584.505 546.369 583.845 546.369 583.165 546.369C583.165 547.689 583.165 549.009 583.165 550.369C581.591 552.115 581.591 552.115 579.478 553.807C578.745 554.413 578.013 555.018 577.259 555.643C576.568 556.212 575.877 556.782 575.165 557.369C572.435 559.972 569.979 562.59 567.665 565.557C565.071 568.475 563.754 569.144 560.165 570.369C559.196 571.07 558.226 571.772 557.228 572.494C553.834 574.572 552.063 574.74 548.165 574.369C548.165 575.359 548.165 576.349 548.165 577.369C545.855 577.369 543.545 577.369 541.165 577.369C541.165 578.029 541.165 578.689 541.165 579.369C534.565 579.369 527.965 579.369 521.165 579.369C521.165 578.709 521.165 578.049 521.165 577.369C518.195 577.369 515.225 577.369 512.165 577.369C512.165 576.379 512.165 575.389 512.165 574.369C510.845 574.369 509.525 574.369 508.165 574.369C508.165 573.709 508.165 573.049 508.165 572.369C507.381 572.225 506.598 572.08 505.79 571.932C503.165 571.369 503.165 571.369 501.165 570.369C501.165 565.419 501.165 560.469 501.165 555.369C506.445 555.369 511.725 555.369 517.165 555.369C517.165 554.379 517.165 553.389 517.165 552.369C521.455 552.369 525.745 552.369 530.165 552.369C530.165 551.709 530.165 551.049 530.165 550.369C531.485 550.369 532.805 550.369 534.165 550.369C534.165 549.709 534.165 549.049 534.165 548.369C535.815 548.369 537.465 548.369 539.165 548.369C539.165 547.709 539.165 547.049 539.165 546.369C540.815 546.369 542.465 546.369 544.165 546.369C544.268 545.771 544.371 545.173 544.478 544.557C545.263 542.057 546.134 540.994 548.165 539.369C548.825 539.369 549.485 539.369 550.165 539.369C550.454 538.75 550.743 538.132 551.04 537.494C552.165 535.369 552.165 535.369 554.165 533.369C555.155 533.369 556.145 533.369 557.165 533.369C557.165 531.719 557.165 530.069 557.165 528.369C557.825 528.369 558.485 528.369 559.165 528.369C559.165 527.049 559.165 525.729 559.165 524.369C559.825 524.369 560.485 524.369 561.165 524.369C561.165 522.719 561.165 521.069 561.165 519.369C561.825 519.369 562.485 519.369 563.165 519.369C563.165 518.049 563.165 516.729 563.165 515.369C564.155 515.369 565.145 515.369 566.165 515.369C566.165 514.049 566.165 512.729 566.165 511.369Z" fill="white"/>
<path d="M638.165 801.369C639.485 801.699 640.805 802.029 642.165 802.369C641.175 802.369 640.185 802.369 639.165 802.369C638.917 802.947 638.67 803.524 638.415 804.119C637.165 806.369 637.165 806.369 635.121 808.166C632.68 810.915 632.652 812.24 632.619 815.872C632.599 816.973 632.58 818.074 632.559 819.208C632.558 820.39 632.557 821.573 632.556 822.791C632.539 824.006 632.523 825.221 632.505 826.473C632.457 830.355 632.436 834.237 632.415 838.119C632.387 840.751 632.357 843.382 632.325 846.014C632.251 852.465 632.2 858.917 632.165 865.369C631.835 865.369 631.505 865.369 631.165 865.369C631.095 857.989 631.042 850.609 631.01 843.229C630.994 839.802 630.973 836.375 630.939 832.948C630.9 829.009 630.885 825.07 630.872 821.131C630.857 819.9 630.841 818.668 630.825 817.4C630.825 816.259 630.825 815.118 630.824 813.942C630.814 812.433 630.814 812.433 630.804 810.894C631.165 808.369 631.165 808.369 632.561 806.521C634.165 805.369 634.165 805.369 636.165 805.369C636.165 804.709 636.165 804.049 636.165 803.369C636.825 803.369 637.485 803.369 638.165 803.369C638.165 802.709 638.165 802.049 638.165 801.369Z" fill="white"/>
<path d="M583.165 550.369C581.814 553.379 580.302 555.489 577.978 557.822C577.361 558.441 576.745 559.06 576.11 559.697C575.147 560.649 575.147 560.649 574.165 561.619C573.523 562.269 572.881 562.919 572.22 563.588C571.295 564.508 571.295 564.508 570.353 565.447C569.789 566.008 569.226 566.569 568.646 567.147C567.165 568.369 567.165 568.369 565.165 568.369C566.45 565.502 567.736 563.393 570.165 561.369C570.825 561.369 571.485 561.369 572.165 561.369C572.423 560.786 572.681 560.204 572.946 559.604C574.263 557.189 575.716 555.552 577.665 553.619C578.273 553.006 578.882 552.392 579.509 551.76C581.165 550.369 581.165 550.369 583.165 550.369Z" fill="white"/>
<path d="M552.165 152.369C553.815 152.369 555.465 152.369 557.165 152.369C556.464 152.9 555.763 153.431 555.04 153.979C552.93 155.733 551.101 157.41 549.228 159.385C548.725 159.913 548.222 160.442 547.704 160.986C546.67 162.083 545.644 163.188 544.626 164.299C540.791 168.291 540.791 168.291 537.29 168.729C536.589 168.61 535.888 168.491 535.165 168.369C536.093 168.245 536.093 168.245 537.04 168.119C539.862 167.123 539.861 165.997 541.165 163.369C542.821 161.447 542.821 161.447 544.665 159.619C545.273 159.006 545.882 158.392 546.509 157.76C548.165 156.369 548.165 156.369 550.165 156.369C550.165 155.709 550.165 155.049 550.165 154.369C550.825 154.369 551.485 154.369 552.165 154.369C552.165 153.709 552.165 153.049 552.165 152.369Z" fill="white"/>
<path d="M484.165 211.369C484.825 211.369 485.485 211.369 486.165 211.369C484.717 214.813 482.888 216.73 480.04 219.119C478.953 220.04 478.953 220.04 477.845 220.979C477.29 221.437 476.736 221.896 476.165 222.369C475.835 221.709 475.505 221.049 475.165 220.369C475.825 220.369 476.485 220.369 477.165 220.369C477.433 219.771 477.701 219.173 477.978 218.557C479.164 216.371 480.261 214.956 482.165 213.369C482.825 213.369 483.485 213.369 484.165 213.369C484.165 212.709 484.165 212.049 484.165 211.369Z" fill="white"/>
<path d="M534.165 795.369C534.495 796.359 534.825 797.349 535.165 798.369C531.31 800.939 527.645 802.227 523.165 803.369C523.165 802.709 523.165 802.049 523.165 801.369C524.815 801.369 526.465 801.369 528.165 801.369C528.413 800.565 528.66 799.76 528.915 798.932C530.165 796.369 530.165 796.369 532.29 795.557C532.909 795.495 533.528 795.433 534.165 795.369Z" fill="white"/>
<path d="M895.165 588.369C895.495 589.359 895.825 590.349 896.165 591.369C892.31 593.939 888.645 595.227 884.165 596.369C884.165 595.709 884.165 595.049 884.165 594.369C885.815 594.369 887.465 594.369 889.165 594.369C889.413 593.565 889.66 592.76 889.915 591.932C891.165 589.369 891.165 589.369 893.29 588.557C893.909 588.495 894.528 588.433 895.165 588.369Z" fill="white"/>
<path d="M972.165 544.369C972.495 545.359 972.825 546.349 973.165 547.369C969.31 549.939 965.645 551.227 961.165 552.369C961.165 551.709 961.165 551.049 961.165 550.369C962.815 550.369 964.465 550.369 966.165 550.369C966.413 549.565 966.66 548.76 966.915 547.932C968.165 545.369 968.165 545.369 970.29 544.557C970.909 544.495 971.528 544.433 972.165 544.369Z" fill="white"/>
<path d="M570.165 136.369C571.485 136.699 572.805 137.029 574.165 137.369C570.865 140.009 567.565 142.649 564.165 145.369C563.835 144.709 563.505 144.049 563.165 143.369C563.825 143.369 564.485 143.369 565.165 143.369C565.433 142.73 565.701 142.09 565.978 141.432C567.165 139.369 567.165 139.369 570.165 138.369C570.165 137.709 570.165 137.049 570.165 136.369Z" fill="white"/>
<path d="M633.165 539.369C633.495 539.369 633.825 539.369 634.165 539.369C634.502 543.072 634.642 544.764 632.29 547.744C630.165 549.369 630.165 549.369 628.165 549.369C627.835 550.359 627.505 551.349 627.165 552.369C627.165 551.049 627.165 549.729 627.165 548.369C627.825 548.369 628.485 548.369 629.165 548.369C630.688 545.432 631.966 542.452 633.165 539.369Z" fill="white"/>
<path d="M638.165 801.369C639.485 801.699 640.805 802.029 642.165 802.369C641.175 802.369 640.185 802.369 639.165 802.369C638.938 802.947 638.711 803.524 638.478 804.119C636.835 806.936 634.77 808.45 632.165 810.369C632.478 808.432 632.478 808.432 633.165 806.369C634.155 806.039 635.145 805.709 636.165 805.369C636.165 804.709 636.165 804.049 636.165 803.369C636.825 803.369 637.485 803.369 638.165 803.369C638.165 802.709 638.165 802.049 638.165 801.369Z" fill="white"/>
<path d="M482.165 825.369C484.29 825.744 484.29 825.744 486.165 826.369C483.951 828.583 482.235 830.235 479.052 830.635C477.088 830.621 475.125 830.502 473.165 830.369C473.165 830.039 473.165 829.709 473.165 829.369C474.279 829.08 475.393 828.792 476.54 828.494C480.168 827.677 480.168 827.677 482.165 825.369Z" fill="white"/>
<path d="M444.165 549.369C444.495 550.029 444.825 550.689 445.165 551.369C441.31 553.939 437.645 555.227 433.165 556.369C433.165 555.709 433.165 555.049 433.165 554.369C435.475 553.709 437.785 553.049 440.165 552.369C440.165 551.709 440.165 551.049 440.165 550.369C441.485 550.039 442.805 549.709 444.165 549.369Z" fill="white"/>
<path d="M838.165 527.369C838.495 528.029 838.825 528.689 839.165 529.369C835.31 531.939 831.645 533.227 827.165 534.369C827.165 533.709 827.165 533.049 827.165 532.369C829.475 531.709 831.785 531.049 834.165 530.369C834.165 529.709 834.165 529.049 834.165 528.369C835.485 528.039 836.805 527.709 838.165 527.369Z" fill="white"/>
<path d="M624.165 553.369C624.495 554.359 624.825 555.349 625.165 556.369C623.989 557.05 623.989 557.05 622.79 557.744C620.128 559.253 620.128 559.253 618.165 561.369C618.353 559.057 618.353 559.057 619.165 556.369C621.728 554.557 621.728 554.557 624.165 553.369Z" fill="white"/>
<path d="M557.165 781.369C559.353 781.682 559.353 781.682 561.165 782.369C558.293 785.072 556.855 786.317 552.853 786.619C551.966 786.537 551.079 786.454 550.165 786.369C550.763 786.101 551.361 785.833 551.978 785.557C554.22 784.5 554.22 784.5 555.665 782.682C556.408 782.032 556.408 782.032 557.165 781.369Z" fill="white"/>
<path d="M713.165 762.369C709.937 764.521 708.881 764.57 705.165 764.369C704.835 765.359 704.505 766.349 704.165 767.369C703.505 767.039 702.845 766.709 702.165 766.369C705.022 762.084 708.193 760.528 713.165 762.369Z" fill="white"/>
<path d="M460.165 748.369C462.353 748.682 462.353 748.682 464.165 749.369C461.293 752.072 459.855 753.317 455.853 753.619C454.966 753.537 454.079 753.454 453.165 753.369C453.763 753.101 454.361 752.833 454.978 752.557C457.22 751.5 457.22 751.5 458.665 749.682C459.408 749.032 459.408 749.032 460.165 748.369Z" fill="white"/>
<path d="M788.165 715.369C790.353 715.682 790.353 715.682 792.165 716.369C789.293 719.072 787.855 720.317 783.853 720.619C782.966 720.537 782.079 720.454 781.165 720.369C781.763 720.101 782.361 719.833 782.978 719.557C785.22 718.5 785.22 718.5 786.665 716.682C787.408 716.032 787.408 716.032 788.165 715.369Z" fill="white"/>
<path d="M568.165 684.369C570.353 684.682 570.353 684.682 572.165 685.369C569.293 688.072 567.855 689.317 563.853 689.619C562.966 689.537 562.079 689.454 561.165 689.369C561.763 689.101 562.361 688.833 562.978 688.557C565.22 687.5 565.22 687.5 566.665 685.682C567.408 685.032 567.408 685.032 568.165 684.369Z" fill="white"/>
<path d="M845.165 682.369C846.485 682.699 847.805 683.029 849.165 683.369C845.555 686.66 843.039 687.916 838.165 688.369C838.165 687.709 838.165 687.049 838.165 686.369C840.475 685.709 842.785 685.049 845.165 684.369C845.165 683.709 845.165 683.049 845.165 682.369Z" fill="white"/>
<path d="M788.165 649.369C790.353 649.682 790.353 649.682 792.165 650.369C789.293 653.072 787.855 654.317 783.853 654.619C782.966 654.537 782.079 654.454 781.165 654.369C781.763 654.101 782.361 653.833 782.978 653.557C785.22 652.5 785.22 652.5 786.665 650.682C787.408 650.032 787.408 650.032 788.165 649.369Z" fill="white"/>
<path d="M920.165 638.369C922.353 638.682 922.353 638.682 924.165 639.369C921.293 642.072 919.855 643.317 915.853 643.619C914.966 643.537 914.079 643.454 913.165 643.369C913.763 643.101 914.361 642.833 914.978 642.557C917.22 641.5 917.22 641.5 918.665 639.682C919.408 639.032 919.408 639.032 920.165 638.369Z" fill="white"/>
<path d="M845.165 616.369C846.485 616.699 847.805 617.029 849.165 617.369C845.555 620.66 843.039 621.916 838.165 622.369C838.165 621.709 838.165 621.049 838.165 620.369C840.475 619.709 842.785 619.049 845.165 618.369C845.165 617.709 845.165 617.049 845.165 616.369Z" fill="white"/>
<path d="M328.165 616.369C330.353 616.682 330.353 616.682 332.165 617.369C329.293 620.072 327.855 621.317 323.853 621.619C322.966 621.537 322.079 621.454 321.165 621.369C321.763 621.101 322.361 620.833 322.978 620.557C325.22 619.5 325.22 619.5 326.665 617.682C327.408 617.032 327.408 617.032 328.165 616.369Z" fill="white"/>
<path d="M284.165 574.369C286.353 574.682 286.353 574.682 288.165 575.369C285.293 578.072 283.855 579.317 279.853 579.619C278.966 579.537 278.079 579.454 277.165 579.369C277.763 579.101 278.361 578.833 278.978 578.557C281.22 577.5 281.22 577.5 282.665 575.682C283.408 575.032 283.408 575.032 284.165 574.369Z" fill="white"/>
<path d="M777.165 561.369C779.353 561.682 779.353 561.682 781.165 562.369C778.293 565.072 776.855 566.317 772.853 566.619C771.966 566.537 771.079 566.454 770.165 566.369C770.763 566.101 771.361 565.833 771.978 565.557C774.22 564.5 774.22 564.5 775.665 562.682C776.408 562.032 776.408 562.032 777.165 561.369Z" fill="white"/>
<path d="M360.165 531.369C360.495 532.359 360.825 533.349 361.165 534.369C356.415 537.369 356.415 537.369 354.165 537.369C354.915 534.932 354.915 534.932 356.165 532.369C358.29 531.557 358.29 531.557 360.165 531.369Z" fill="white"/>
<path d="M995.165 530.369C997.353 530.682 997.353 530.682 999.165 531.369C996.293 534.072 994.855 535.317 990.853 535.619C989.966 535.537 989.079 535.454 988.165 535.369C988.763 535.101 989.361 534.833 989.978 534.557C992.22 533.5 992.22 533.5 993.665 531.682C994.408 531.032 994.408 531.032 995.165 530.369Z" fill="white"/>
<path d="M886.165 498.369C886.495 499.359 886.825 500.349 887.165 501.369C882.415 504.369 882.415 504.369 880.165 504.369C880.915 501.932 880.915 501.932 882.165 499.369C884.29 498.557 884.29 498.557 886.165 498.369Z" fill="white"/>
<path d="M437.165 487.369C437.495 488.359 437.825 489.349 438.165 490.369C433.415 493.369 433.415 493.369 431.165 493.369C431.915 490.932 431.915 490.932 433.165 488.369C435.29 487.557 435.29 487.557 437.165 487.369Z" fill="white"/>
<path d="M909.165 484.369C911.353 484.682 911.353 484.682 913.165 485.369C910.293 488.072 908.855 489.317 904.853 489.619C903.966 489.537 903.079 489.454 902.165 489.369C902.763 489.101 903.361 488.833 903.978 488.557C906.22 487.5 906.22 487.5 907.665 485.682C908.408 485.032 908.408 485.032 909.165 484.369Z" fill="white"/>
<path d="M941.165 399.369C941.495 400.359 941.825 401.349 942.165 402.369C937.415 405.369 937.415 405.369 935.165 405.369C935.915 402.932 935.915 402.932 937.165 400.369C939.29 399.557 939.29 399.557 941.165 399.369Z" fill="white"/>
<path d="M330.165 704.369C331.485 704.699 332.805 705.029 334.165 705.369C330.877 708.281 328.566 709.866 324.165 710.369C324.165 709.709 324.165 709.049 324.165 708.369C326.145 707.709 328.125 707.049 330.165 706.369C330.165 705.709 330.165 705.049 330.165 704.369Z" fill="white"/>
<path d="M713.165 693.369C714.485 693.699 715.805 694.029 717.165 694.369C714.293 697.072 712.855 698.317 708.853 698.619C707.966 698.537 707.079 698.454 706.165 698.369C708.497 697.163 710.661 696.204 713.165 695.369C713.165 694.709 713.165 694.049 713.165 693.369Z" fill="white"/>
<path d="M308.165 627.369C309.485 627.699 310.805 628.029 312.165 628.369C309.293 631.072 307.855 632.317 303.853 632.619C302.966 632.537 302.079 632.454 301.165 632.369C303.497 631.163 305.661 630.204 308.165 629.369C308.165 628.709 308.165 628.049 308.165 627.369Z" fill="white"/>
<path d="M702.165 605.369C703.485 605.699 704.805 606.029 706.165 606.369C703.293 609.072 701.855 610.317 697.853 610.619C696.966 610.537 696.079 610.454 695.165 610.369C697.497 609.163 699.661 608.204 702.165 607.369C702.165 606.709 702.165 606.049 702.165 605.369Z" fill="white"/>
<path d="M1018.17 421.369C1018.5 422.359 1018.83 423.349 1019.17 424.369C1014.42 427.369 1014.42 427.369 1012.17 427.369C1013.21 424.747 1013.81 423.575 1016.29 422.119C1016.91 421.872 1017.53 421.624 1018.17 421.369Z" fill="white"/>
<path d="M613.165 749.369C613.165 750.359 613.165 751.349 613.165 752.369C609.832 755.369 609.832 755.369 607.165 755.369C608.214 752.747 608.814 751.575 611.29 750.119C611.909 749.872 612.528 749.624 613.165 749.369Z" fill="white"/>
<path d="M436.165 642.369C437.485 642.369 438.805 642.369 440.165 642.369C440.165 643.029 440.165 643.689 440.165 644.369C435.78 647.369 435.78 647.369 433.165 647.369C435.04 643.494 435.04 643.494 436.165 642.369Z" fill="white"/>
<path d="M676.165 620.369C677.485 620.369 678.805 620.369 680.165 620.369C680.165 621.029 680.165 621.689 680.165 622.369C675.78 625.369 675.78 625.369 673.165 625.369C675.04 621.494 675.04 621.494 676.165 620.369Z" fill="white"/>
<path d="M940.165 466.369C941.485 466.369 942.805 466.369 944.165 466.369C944.165 467.029 944.165 467.689 944.165 468.369C939.78 471.369 939.78 471.369 937.165 471.369C939.04 467.494 939.04 467.494 940.165 466.369Z" fill="white"/>
</svg>
