<svg xmlns="http://www.w3.org/2000/svg" fill="none" viewBox="0 0 545 826">
  <path fill="#000" fill-rule="evenodd" d="M146 682.2c0 11.6-.6 57.2-.6 57.2-3.3 17-21.7 20.7-30 7a3.9 3.9 0 0 0-5.4-1 73.1 73.1 0 1 1 36.1-63.2Zm-33.3.3a40 40 0 1 1-80.1.1 40 40 0 0 1 80.1 0Z" clip-rule="evenodd"/>
  <path fill="#000" d="M157.8 739c0 22 32 19.7 32 0 0 0-.7-51.1.6-62.8 4-20 15.4-32.4 40-34.4 19.2-1.6 23.8-28.8 0-31.8a71.5 71.5 0 0 0-72.6 66.2c-.7 20.7 0 62.8 0 62.8Z"/>
  <path fill="#000" fill-rule="evenodd" d="M387.6 682.2v59.6c.4 13.1 1.1 44.3-26 65.8-51.4 43-108.8.6-114.1-26.1a16 16 0 0 1 28.7-13c11.6 18.3 27.5 26.5 45.3 24 17.4-2.6 32.7-16.6 32.7-46.1 0-1.7-1.5-2.4-3.3-1.3a72.8 72.8 0 1 1-36.8-135.8 73.4 73.4 0 0 1 73.5 72.9ZM314.2 722a40 40 0 1 0 0-80.2 40 40 0 0 0 0 80.2ZM472 609a73.1 73.1 0 1 1-.2 146.2A73.1 73.1 0 0 1 472 609Zm39.6 73.5a40 40 0 1 1-80 .1 40 40 0 0 1 80 0Z" clip-rule="evenodd"/>
  <path fill="#000" d="M211.1 55.8a10 10 0 1 1-19.8 0 10 10 0 0 1 19.8 0Zm-79 259.6a3.4 3.4 0 0 1-4.8-.5C57.2 225.2 98 109.4 177.1 64a3.4 3.4 0 1 1 3.4 6c-76.2 43.6-115 154.8-47.8 240.6 1.2 1.5 1 3.7-.6 4.8Zm60.6-68.2a14.1 14.1 0 1 0 0-28.3 14.1 14.1 0 0 0 0 28.3Zm138.1 0a14.1 14.1 0 1 0 0-28.3 14.1 14.1 0 0 0 0 28.3Z"/>
  <path fill="#000" fill-rule="evenodd" d="M57.9 259a8.2 8.2 0 0 1-12.9-6.7v-80.2a8.2 8.2 0 0 1 12.7-6.8 211.7 211.7 0 0 1 413-.2 8.2 8.2 0 0 1 12.3 7v80.3a8.2 8.2 0 0 1-12.6 6.8A212.1 212.1 0 0 1 353.3 404l-.1 1.5s5.7 9.6 14.6 14.8c9 5.2 19.3 6.9 29 8.2 0 0-13.4 6.7-29.7 5.2-10.2-.8-14.5 1.8-16.1 6.7l1-16.5-1 16.5c-1.8 37.5-3.7 59.5-4.4 67.3l-.3 3.1v.9c-.3 2-.7 5.4 7.5 8.8 4.7 1.9 12.4 4 19 6a52.6 52.6 0 0 1 12.3 4c0 1.2-36.9 0-36.9 0-21 0-21-15.8-21-19.7 0-3.8-5.8-69.7-5.8-69.7l-2 85.1c0 3.9 2 9.6 15.4 13.5 0 0 29.3 4.4 29.3 6 0 1.6-35 0-35 0-26.8 0-26.8-15.6-26.8-15.6l-5.7-69.8s-2 69.8-2 79.4c0 7.5 1.3 13.3 22.3 17.1 4 1.1 9.8 2.4 15.2 3.5 8 1.8 15.4 3.3 15.4 4.2 0 1.4-46.7 0-46.7 0-25-2-27.3-19.2-27.3-19.2l-9.4-34.8-9.5 34.8s-3.8 17.3-28.8 19.2c0 0-42.3 1.4-42.3 0 0-.9 6.2-2.3 13.4-4 4.8-1.2 10-2.4 14.3-3.7 14.6-4.3 22.3-9.6 22.3-17.1 0-9.6-2-79.4-2-79.4l-5.7 69.8s0 17-26.7 17c0 0-38 .2-38-1.4 0-1.6 32-6 32-6 13.5-3.9 15.4-9.6 15.4-13.5l-1.9-85.1s-5.7 66-5.7 69.7c0 3.9 0 21.2-21.2 21.2 0 0-35.5-1.8-35.5-3 0-.6 4.5-1.6 10.2-3 6.5-1.5 14.7-3.5 19.7-5.5 8.3-3.4 7.9-6.7 7.6-8.8v-.9L177 441c-1.7-5-6-7.5-16.2-6.7-16.3 1.5-29.7-5.2-29.7-5.2 9.7-1.3 20-3 29-8.2a33.2 33.2 0 0 0 12.8-14.8v-3.4A212.1 212.1 0 0 1 57.8 259Zm295.9 133.4 1-17.4c1.4-28.5 2.8-53.1 3.9-81.8a59.2 59.2 0 0 0 2.7-103.8v-1.1c0-53.6-41-100-98.6-100-57.8 0-96 48.2-96 100a59.2 59.2 0 0 0 3 105.9l2.7 97.1a201.6 201.6 0 1 1 181.3 1Zm-55-58.6c-.5 21.4-9.4 53-37 53-28.7 0-35.7-35.7-35.7-55 0 0 12.7 17.9 35.6 17.9 23 0 37.2-17.9 37.2-17.9v2Zm-104-46.8a46.5 46.5 0 1 0 0-93 46.5 46.5 0 0 0 0 93Zm136.8 0a46.5 46.5 0 1 0 0-93 46.5 46.5 0 0 0 0 93Z" clip-rule="evenodd"/>
</svg>