<svg width="13260" height="6692" viewBox="0 0 13260 6692" fill="none" xmlns="http://www.w3.org/2000/svg">
<g filter="url(#filter0_d_2079_211)">
<mask id="path-1-outside-1_2079_211" maskUnits="userSpaceOnUse" x="160" y="4869" width="12856" height="1815" fill="black">
<rect fill="white" x="160" y="4869" width="12856" height="1815"/>
<path d="M165.6 6650V5390H520.8V5663.6H532.8C539.2 5628.4 550.4 5594.8 566.4 5562.8C582.4 5529.2 603.2 5499.6 628.8 5474C656 5448.4 688 5428.4 724.8 5414C761.6 5398 804.8 5390 854.4 5390H916.8V5721.2H828C724 5721.2 646.4 5734.8 595.2 5762C545.6 5789.2 520.8 5839.6 520.8 5913.2V6650H165.6ZM1999.91 6438.8H1987.91C1976.71 6470.8 1961.51 6501.2 1942.31 6530C1924.71 6558.8 1901.51 6584.4 1872.71 6606.8C1843.91 6629.2 1809.51 6646.8 1769.51 6659.6C1731.11 6672.4 1686.31 6678.8 1635.11 6678.8C1505.51 6678.8 1407.11 6636.4 1339.91 6551.6C1274.31 6465.2 1241.51 6342 1241.51 6182V5390H1596.71V6150.8C1596.71 6227.6 1610.31 6286.8 1637.51 6328.4C1664.71 6370 1711.11 6390.8 1776.71 6390.8C1803.91 6390.8 1831.11 6386.8 1858.31 6378.8C1885.51 6370.8 1909.51 6359.6 1930.31 6345.2C1951.11 6329.2 1967.91 6310 1980.71 6287.6C1993.51 6265.2 1999.91 6238.8 1999.91 6208.4V5390H2355.11V6650H1999.91V6438.8ZM2805.6 6650V5390H3160.8V5603.6H3175.2C3197.6 5538 3236.8 5481.2 3292.8 5433.2C3348.8 5385.2 3426.4 5361.2 3525.6 5361.2C3655.2 5361.2 3752.8 5404.4 3818.4 5490.8C3885.6 5577.2 3919.2 5700.4 3919.2 5860.4V6650H3564V5889.2C3564 5807.6 3551.2 5747.6 3525.6 5709.2C3500 5669.2 3454.4 5649.2 3388.8 5649.2C3360 5649.2 3332 5653.2 3304.8 5661.2C3277.6 5667.6 3252.8 5678.8 3230.4 5694.8C3209.6 5710.8 3192.8 5730.8 3180 5754.8C3167.2 5777.2 3160.8 5803.6 3160.8 5834V6650H2805.6ZM4355.29 6650V5390H4710.49V5603.6H4724.89C4747.29 5536.4 4785.69 5479.6 4840.09 5433.2C4894.49 5385.2 4968.89 5361.2 5063.29 5361.2C5149.69 5361.2 5223.29 5382.8 5284.09 5426C5344.89 5469.2 5388.89 5532.4 5416.09 5615.6H5423.29C5434.49 5580.4 5451.29 5547.6 5473.69 5517.2C5497.69 5485.2 5526.49 5458 5560.09 5435.6C5593.69 5413.2 5631.29 5395.6 5672.89 5382.8C5714.49 5368.4 5759.29 5361.2 5807.29 5361.2C5928.89 5361.2 6021.69 5404.4 6085.69 5490.8C6151.29 5577.2 6184.09 5700.4 6184.09 5860.4V6650H5828.89V5889.2C5828.89 5729.2 5771.29 5649.2 5656.09 5649.2C5603.29 5649.2 5555.29 5664.4 5512.09 5694.8C5468.89 5725.2 5447.29 5771.6 5447.29 5834V6650H5092.09V5889.2C5092.09 5729.2 5034.49 5649.2 4919.29 5649.2C4893.69 5649.2 4868.09 5653.2 4842.49 5661.2C4818.49 5667.6 4796.09 5678.8 4775.29 5694.8C4756.09 5710.8 4740.09 5730.8 4727.29 5754.8C4716.09 5777.2 4710.49 5803.6 4710.49 5834V6650H4355.29ZM7145.42 6678.8C7049.42 6678.8 6963.82 6663.6 6888.62 6633.2C6813.42 6601.2 6749.42 6557.2 6696.62 6501.2C6645.42 6443.6 6606.22 6374 6579.02 6292.4C6553.42 6210.8 6540.62 6119.6 6540.62 6018.8C6540.62 5919.6 6553.42 5830 6579.02 5750C6604.62 5668.4 6642.22 5598.8 6691.82 5541.2C6743.02 5483.6 6805.42 5439.6 6879.02 5409.2C6952.62 5377.2 7036.62 5361.2 7131.02 5361.2C7235.02 5361.2 7323.82 5378.8 7397.42 5414C7472.62 5449.2 7533.42 5496.4 7579.82 5555.6C7627.82 5614.8 7662.22 5683.6 7683.02 5762C7705.42 5838.8 7716.62 5919.6 7716.62 6004.4V6110H6907.82V6129.2C6907.82 6212.4 6930.22 6278.8 6975.02 6328.4C7019.82 6376.4 7090.22 6400.4 7186.22 6400.4C7259.82 6400.4 7319.82 6386 7366.22 6357.2C7412.62 6326.8 7455.82 6290.8 7495.82 6249.2L7673.42 6470C7617.42 6535.6 7543.82 6586.8 7452.62 6623.6C7363.02 6660.4 7260.62 6678.8 7145.42 6678.8ZM7138.22 5622.8C7066.22 5622.8 7009.42 5646.8 6967.82 5694.8C6927.82 5741.2 6907.82 5803.6 6907.82 5882V5901.2H7349.42V5879.6C7349.42 5802.8 7331.82 5741.2 7296.62 5694.8C7263.02 5646.8 7210.22 5622.8 7138.22 5622.8ZM8258.72 6676.4C8186.72 6676.4 8133.12 6658.8 8097.92 6623.6C8064.32 6586.8 8047.52 6540.4 8047.52 6484.4V6436.4C8047.52 6380.4 8064.32 6334.8 8097.92 6299.6C8133.12 6262.8 8186.72 6244.4 8258.72 6244.4C8330.72 6244.4 8383.52 6262.8 8417.12 6299.6C8452.32 6334.8 8469.92 6380.4 8469.92 6436.4V6484.4C8469.92 6540.4 8452.32 6586.8 8417.12 6623.6C8383.52 6658.8 8330.72 6676.4 8258.72 6676.4ZM9652.93 6438.8H9640.93C9631.33 6472.4 9616.13 6504.4 9595.33 6534.8C9574.53 6563.6 9548.93 6589.2 9518.53 6611.6C9489.73 6632.4 9456.13 6648.4 9417.73 6659.6C9380.93 6672.4 9342.53 6678.8 9302.53 6678.8C9142.53 6678.8 9021.73 6622.8 8940.13 6510.8C8858.53 6397.2 8817.73 6233.2 8817.73 6018.8C8817.73 5804.4 8858.53 5641.2 8940.13 5529.2C9021.73 5417.2 9142.53 5361.2 9302.53 5361.2C9384.13 5361.2 9456.13 5383.6 9518.53 5428.4C9582.53 5473.2 9623.33 5530.8 9640.93 5601.2H9652.93V4874H10008.1V6650H9652.93V6438.8ZM9420.13 6390.8C9487.33 6390.8 9542.53 6374.8 9585.73 6342.8C9630.53 6309.2 9652.93 6263.6 9652.93 6206V5834C9652.93 5776.4 9630.53 5731.6 9585.73 5699.6C9542.53 5666 9487.33 5649.2 9420.13 5649.2C9352.93 5649.2 9296.93 5673.2 9252.13 5721.2C9208.93 5767.6 9187.33 5830.8 9187.33 5910.8V6129.2C9187.33 6209.2 9208.93 6273.2 9252.13 6321.2C9296.93 6367.6 9352.93 6390.8 9420.13 6390.8ZM10985.9 6678.8C10889.9 6678.8 10804.3 6663.6 10729.1 6633.2C10653.9 6601.2 10589.9 6557.2 10537.1 6501.2C10485.9 6443.6 10446.7 6374 10419.5 6292.4C10393.9 6210.8 10381.1 6119.6 10381.1 6018.8C10381.1 5919.6 10393.9 5830 10419.5 5750C10445.1 5668.4 10482.7 5598.8 10532.3 5541.2C10583.5 5483.6 10645.9 5439.6 10719.5 5409.2C10793.1 5377.2 10877.1 5361.2 10971.5 5361.2C11075.5 5361.2 11164.3 5378.8 11237.9 5414C11313.1 5449.2 11373.9 5496.4 11420.3 5555.6C11468.3 5614.8 11502.7 5683.6 11523.5 5762C11545.9 5838.8 11557.1 5919.6 11557.1 6004.4V6110H10748.3V6129.2C10748.3 6212.4 10770.7 6278.8 10815.5 6328.4C10860.3 6376.4 10930.7 6400.4 11026.7 6400.4C11100.3 6400.4 11160.3 6386 11206.7 6357.2C11253.1 6326.8 11296.3 6290.8 11336.3 6249.2L11513.9 6470C11457.9 6535.6 11384.3 6586.8 11293.1 6623.6C11203.5 6660.4 11101.1 6678.8 10985.9 6678.8ZM10978.7 5622.8C10906.7 5622.8 10849.9 5646.8 10808.3 5694.8C10768.3 5741.2 10748.3 5803.6 10748.3 5882V5901.2H11189.9V5879.6C11189.9 5802.8 11172.3 5741.2 11137.1 5694.8C11103.5 5646.8 11050.7 5622.8 10978.7 5622.8ZM12173.3 6650L11760.5 5390H12110.9L12266.9 5898.8L12384.5 6354.8H12403.7L12521.3 5898.8L12672.5 5390H13008.5L12595.7 6650H12173.3Z"/>
</mask>
<path d="M165.6 6650V5390H520.8V5663.6H532.8C539.2 5628.4 550.4 5594.8 566.4 5562.8C582.4 5529.2 603.2 5499.6 628.8 5474C656 5448.4 688 5428.4 724.8 5414C761.6 5398 804.8 5390 854.4 5390H916.8V5721.2H828C724 5721.2 646.4 5734.8 595.2 5762C545.6 5789.2 520.8 5839.6 520.8 5913.2V6650H165.6ZM1999.91 6438.8H1987.91C1976.71 6470.8 1961.51 6501.2 1942.31 6530C1924.71 6558.8 1901.51 6584.4 1872.71 6606.8C1843.91 6629.2 1809.51 6646.8 1769.51 6659.6C1731.11 6672.4 1686.31 6678.8 1635.11 6678.8C1505.51 6678.8 1407.11 6636.4 1339.91 6551.6C1274.31 6465.2 1241.51 6342 1241.51 6182V5390H1596.71V6150.8C1596.71 6227.6 1610.31 6286.8 1637.51 6328.4C1664.71 6370 1711.11 6390.8 1776.71 6390.8C1803.91 6390.8 1831.11 6386.8 1858.31 6378.8C1885.51 6370.8 1909.51 6359.6 1930.31 6345.2C1951.11 6329.2 1967.91 6310 1980.71 6287.6C1993.51 6265.2 1999.91 6238.8 1999.91 6208.4V5390H2355.11V6650H1999.91V6438.8ZM2805.6 6650V5390H3160.8V5603.6H3175.2C3197.6 5538 3236.8 5481.2 3292.8 5433.2C3348.8 5385.2 3426.4 5361.2 3525.6 5361.2C3655.2 5361.2 3752.8 5404.4 3818.4 5490.8C3885.6 5577.2 3919.2 5700.4 3919.2 5860.4V6650H3564V5889.2C3564 5807.6 3551.2 5747.6 3525.6 5709.2C3500 5669.2 3454.4 5649.2 3388.8 5649.2C3360 5649.2 3332 5653.2 3304.8 5661.2C3277.6 5667.6 3252.8 5678.8 3230.4 5694.8C3209.6 5710.8 3192.8 5730.8 3180 5754.8C3167.2 5777.2 3160.8 5803.6 3160.8 5834V6650H2805.6ZM4355.29 6650V5390H4710.49V5603.6H4724.89C4747.29 5536.4 4785.69 5479.6 4840.09 5433.2C4894.49 5385.2 4968.89 5361.2 5063.29 5361.2C5149.69 5361.2 5223.29 5382.8 5284.09 5426C5344.89 5469.2 5388.89 5532.4 5416.09 5615.6H5423.29C5434.49 5580.4 5451.29 5547.6 5473.69 5517.2C5497.69 5485.2 5526.49 5458 5560.09 5435.6C5593.69 5413.2 5631.29 5395.6 5672.89 5382.8C5714.49 5368.4 5759.29 5361.2 5807.29 5361.2C5928.89 5361.2 6021.69 5404.4 6085.69 5490.8C6151.29 5577.2 6184.09 5700.4 6184.09 5860.4V6650H5828.89V5889.2C5828.89 5729.2 5771.29 5649.2 5656.09 5649.2C5603.29 5649.2 5555.29 5664.4 5512.09 5694.8C5468.89 5725.2 5447.29 5771.6 5447.29 5834V6650H5092.09V5889.2C5092.09 5729.2 5034.49 5649.2 4919.29 5649.2C4893.69 5649.2 4868.09 5653.2 4842.49 5661.2C4818.49 5667.6 4796.09 5678.8 4775.29 5694.8C4756.09 5710.8 4740.09 5730.8 4727.29 5754.8C4716.09 5777.2 4710.49 5803.6 4710.49 5834V6650H4355.29ZM7145.42 6678.8C7049.42 6678.8 6963.82 6663.6 6888.62 6633.2C6813.42 6601.2 6749.42 6557.2 6696.62 6501.2C6645.42 6443.6 6606.22 6374 6579.02 6292.4C6553.42 6210.8 6540.62 6119.6 6540.62 6018.8C6540.62 5919.6 6553.42 5830 6579.02 5750C6604.62 5668.4 6642.22 5598.8 6691.82 5541.2C6743.02 5483.6 6805.42 5439.6 6879.02 5409.2C6952.62 5377.2 7036.62 5361.2 7131.02 5361.2C7235.02 5361.2 7323.82 5378.8 7397.42 5414C7472.62 5449.2 7533.42 5496.4 7579.82 5555.6C7627.82 5614.8 7662.22 5683.6 7683.02 5762C7705.42 5838.8 7716.62 5919.6 7716.62 6004.4V6110H6907.82V6129.2C6907.82 6212.4 6930.22 6278.8 6975.02 6328.4C7019.82 6376.4 7090.22 6400.4 7186.22 6400.4C7259.82 6400.4 7319.82 6386 7366.22 6357.2C7412.62 6326.8 7455.82 6290.8 7495.82 6249.2L7673.42 6470C7617.42 6535.6 7543.82 6586.8 7452.62 6623.6C7363.02 6660.4 7260.62 6678.8 7145.42 6678.8ZM7138.22 5622.8C7066.22 5622.8 7009.42 5646.8 6967.82 5694.8C6927.82 5741.2 6907.82 5803.6 6907.82 5882V5901.2H7349.42V5879.6C7349.42 5802.8 7331.82 5741.2 7296.62 5694.8C7263.02 5646.8 7210.22 5622.8 7138.22 5622.8ZM8258.72 6676.4C8186.72 6676.4 8133.12 6658.8 8097.92 6623.6C8064.32 6586.8 8047.52 6540.4 8047.52 6484.4V6436.4C8047.52 6380.4 8064.32 6334.8 8097.92 6299.6C8133.12 6262.8 8186.72 6244.4 8258.72 6244.4C8330.72 6244.4 8383.52 6262.8 8417.12 6299.6C8452.32 6334.8 8469.92 6380.4 8469.92 6436.4V6484.4C8469.92 6540.4 8452.32 6586.8 8417.12 6623.6C8383.52 6658.8 8330.72 6676.4 8258.72 6676.4ZM9652.93 6438.8H9640.93C9631.33 6472.4 9616.13 6504.4 9595.33 6534.8C9574.53 6563.6 9548.93 6589.2 9518.53 6611.6C9489.73 6632.4 9456.13 6648.4 9417.73 6659.6C9380.93 6672.4 9342.53 6678.8 9302.53 6678.8C9142.53 6678.8 9021.73 6622.8 8940.13 6510.8C8858.53 6397.2 8817.73 6233.2 8817.73 6018.8C8817.73 5804.4 8858.53 5641.2 8940.13 5529.2C9021.73 5417.2 9142.53 5361.2 9302.53 5361.2C9384.13 5361.2 9456.13 5383.6 9518.53 5428.4C9582.53 5473.2 9623.33 5530.8 9640.93 5601.2H9652.93V4874H10008.1V6650H9652.93V6438.8ZM9420.13 6390.8C9487.33 6390.8 9542.53 6374.8 9585.73 6342.8C9630.53 6309.2 9652.93 6263.6 9652.93 6206V5834C9652.93 5776.4 9630.53 5731.6 9585.73 5699.6C9542.53 5666 9487.33 5649.2 9420.13 5649.2C9352.93 5649.2 9296.93 5673.2 9252.13 5721.2C9208.93 5767.6 9187.33 5830.8 9187.33 5910.8V6129.2C9187.33 6209.2 9208.93 6273.2 9252.13 6321.2C9296.93 6367.6 9352.93 6390.8 9420.13 6390.8ZM10985.9 6678.8C10889.9 6678.8 10804.3 6663.6 10729.1 6633.2C10653.9 6601.2 10589.9 6557.2 10537.1 6501.2C10485.9 6443.6 10446.7 6374 10419.5 6292.4C10393.9 6210.8 10381.1 6119.6 10381.1 6018.8C10381.1 5919.6 10393.9 5830 10419.5 5750C10445.1 5668.4 10482.7 5598.8 10532.3 5541.2C10583.5 5483.6 10645.9 5439.6 10719.5 5409.2C10793.1 5377.2 10877.1 5361.2 10971.5 5361.2C11075.5 5361.2 11164.3 5378.8 11237.9 5414C11313.1 5449.2 11373.9 5496.4 11420.3 5555.6C11468.3 5614.8 11502.7 5683.6 11523.5 5762C11545.9 5838.8 11557.1 5919.6 11557.1 6004.4V6110H10748.3V6129.2C10748.3 6212.4 10770.7 6278.8 10815.5 6328.4C10860.3 6376.4 10930.7 6400.4 11026.7 6400.4C11100.3 6400.4 11160.3 6386 11206.7 6357.2C11253.1 6326.8 11296.3 6290.8 11336.3 6249.2L11513.9 6470C11457.9 6535.6 11384.3 6586.8 11293.1 6623.6C11203.5 6660.4 11101.1 6678.8 10985.9 6678.8ZM10978.7 5622.8C10906.7 5622.8 10849.9 5646.8 10808.3 5694.8C10768.3 5741.2 10748.3 5803.6 10748.3 5882V5901.2H11189.9V5879.6C11189.9 5802.8 11172.3 5741.2 11137.1 5694.8C11103.5 5646.8 11050.7 5622.8 10978.7 5622.8ZM12173.3 6650L11760.5 5390H12110.9L12266.9 5898.8L12384.5 6354.8H12403.7L12521.3 5898.8L12672.5 5390H13008.5L12595.7 6650H12173.3Z" fill="#5B3ADF"/>
<path d="M165.6 6650H160.6V6655H165.6V6650ZM165.6 5390V5385H160.6V5390H165.6ZM520.8 5390H525.8V5385H520.8V5390ZM520.8 5663.6H515.8V5668.6H520.8V5663.6ZM532.8 5663.6V5668.6H536.973L537.719 5664.49L532.8 5663.6ZM566.4 5562.8L570.872 5565.04L570.894 5564.99L570.914 5564.95L566.4 5562.8ZM628.8 5474L625.373 5470.36L625.318 5470.41L625.265 5470.46L628.8 5474ZM724.8 5414L726.622 5418.66L726.709 5418.62L726.794 5418.59L724.8 5414ZM916.8 5390H921.8V5385H916.8V5390ZM916.8 5721.2V5726.2H921.8V5721.2H916.8ZM595.2 5762L592.854 5757.58L592.825 5757.6L592.796 5757.62L595.2 5762ZM520.8 6650V6655H525.8V6650H520.8ZM170.6 6650V5390H160.6V6650H170.6ZM165.6 5395H520.8V5385H165.6V5395ZM515.8 5390V5663.6H525.8V5390H515.8ZM520.8 5668.6H532.8V5658.6H520.8V5668.6ZM537.719 5664.49C544.035 5629.76 555.084 5596.61 570.872 5565.04L561.928 5560.56C545.716 5592.99 534.365 5627.04 527.881 5662.71L537.719 5664.49ZM570.914 5564.95C586.676 5531.85 607.15 5502.72 632.336 5477.54L625.265 5470.46C599.25 5496.48 578.124 5526.55 561.886 5560.65L570.914 5564.95ZM632.227 5477.64C658.935 5452.5 690.382 5432.84 726.622 5418.66L722.978 5409.34C685.618 5423.96 653.065 5444.3 625.373 5470.36L632.227 5477.64ZM726.794 5418.59C762.835 5402.92 805.329 5395 854.4 5395V5385C804.271 5385 760.365 5393.08 722.806 5409.41L726.794 5418.59ZM854.4 5395H916.8V5385H854.4V5395ZM911.8 5390V5721.2H921.8V5390H911.8ZM916.8 5716.2H828V5726.2H916.8V5716.2ZM828 5716.2C723.736 5716.2 645.144 5729.81 592.854 5757.58L597.546 5766.42C647.656 5739.79 724.264 5726.2 828 5726.2V5716.2ZM592.796 5757.62C541.105 5785.96 515.8 5838.41 515.8 5913.2H525.8C525.8 5840.79 550.095 5792.44 597.604 5766.38L592.796 5757.62ZM515.8 5913.2V6650H525.8V5913.2H515.8ZM520.8 6645H165.6V6655H520.8V6645ZM1999.91 6438.8H2004.91V6433.8H1999.91V6438.8ZM1987.91 6438.8V6433.8H1984.37L1983.19 6437.15L1987.91 6438.8ZM1942.31 6530L1938.15 6527.23L1938.1 6527.31L1938.05 6527.39L1942.31 6530ZM1872.71 6606.8L1869.64 6602.85L1869.64 6602.85L1872.71 6606.8ZM1769.51 6659.6L1767.99 6654.84L1767.96 6654.85L1767.93 6654.86L1769.51 6659.6ZM1339.91 6551.6L1335.93 6554.62L1335.96 6554.66L1335.99 6554.71L1339.91 6551.6ZM1241.51 5390V5385H1236.51V5390H1241.51ZM1596.71 5390H1601.71V5385H1596.71V5390ZM1637.51 6328.4L1641.7 6325.66L1641.7 6325.66L1637.51 6328.4ZM1858.31 6378.8L1859.72 6383.6L1859.72 6383.6L1858.31 6378.8ZM1930.31 6345.2L1933.16 6349.31L1933.26 6349.24L1933.36 6349.16L1930.31 6345.2ZM1980.71 6287.6L1985.05 6290.08L1985.05 6290.08L1980.71 6287.6ZM1999.91 5390V5385H1994.91V5390H1999.91ZM2355.11 5390H2360.11V5385H2355.11V5390ZM2355.11 6650V6655H2360.11V6650H2355.11ZM1999.91 6650H1994.91V6655H1999.91V6650ZM1999.91 6433.8H1987.91V6443.8H1999.91V6433.8ZM1983.19 6437.15C1972.13 6468.74 1957.12 6498.77 1938.15 6527.23L1946.47 6532.77C1965.9 6503.63 1981.29 6472.86 1992.63 6440.45L1983.19 6437.15ZM1938.05 6527.39C1920.79 6555.64 1898.01 6580.79 1869.64 6602.85L1875.78 6610.75C1905.02 6588.01 1928.64 6561.96 1946.58 6532.61L1938.05 6527.39ZM1869.64 6602.85C1841.37 6624.84 1807.51 6642.19 1767.99 6654.84L1771.04 6664.36C1811.51 6651.41 1846.45 6633.56 1875.78 6610.75L1869.64 6602.85ZM1767.93 6654.86C1730.16 6667.45 1685.91 6673.8 1635.11 6673.8V6683.8C1686.71 6683.8 1732.07 6677.35 1771.09 6664.34L1767.93 6654.86ZM1635.11 6673.8C1506.7 6673.8 1409.89 6631.86 1343.83 6548.49L1335.99 6554.71C1404.33 6640.94 1504.32 6683.8 1635.11 6683.8V6673.8ZM1343.89 6548.58C1279.2 6463.37 1246.51 6341.4 1246.51 6182H1236.51C1236.51 6342.6 1269.42 6467.03 1335.93 6554.62L1343.89 6548.58ZM1246.51 6182V5390H1236.51V6182H1246.51ZM1241.51 5395H1596.71V5385H1241.51V5395ZM1591.71 5390V6150.8H1601.71V5390H1591.71ZM1591.71 6150.8C1591.71 6228.08 1605.38 6288.39 1633.33 6331.14L1641.7 6325.66C1615.25 6285.21 1601.71 6227.12 1601.71 6150.8H1591.71ZM1633.33 6331.14C1661.74 6374.59 1710.03 6395.8 1776.71 6395.8V6385.8C1712.2 6385.8 1667.69 6365.41 1641.7 6325.66L1633.33 6331.14ZM1776.71 6395.8C1804.41 6395.8 1832.08 6391.73 1859.72 6383.6L1856.9 6374C1830.14 6381.87 1803.42 6385.8 1776.71 6385.8V6395.8ZM1859.72 6383.6C1887.37 6375.46 1911.87 6364.05 1933.16 6349.31L1927.47 6341.09C1907.15 6355.15 1883.65 6366.14 1856.9 6374L1859.72 6383.6ZM1933.36 6349.16C1954.68 6332.77 1971.92 6313.07 1985.05 6290.08L1976.37 6285.12C1963.91 6306.93 1947.55 6325.63 1927.26 6341.24L1933.36 6349.16ZM1985.05 6290.08C1998.36 6266.8 2004.91 6239.51 2004.91 6208.4H1994.91C1994.91 6238.09 1988.67 6263.6 1976.37 6285.12L1985.05 6290.08ZM2004.91 6208.4V5390H1994.91V6208.4H2004.91ZM1999.91 5395H2355.11V5385H1999.91V5395ZM2350.11 5390V6650H2360.11V5390H2350.11ZM2355.11 6645H1999.91V6655H2355.11V6645ZM2004.91 6650V6438.8H1994.91V6650H2004.91ZM2805.6 6650H2800.6V6655H2805.6V6650ZM2805.6 5390V5385H2800.6V5390H2805.6ZM3160.8 5390H3165.8V5385H3160.8V5390ZM3160.8 5603.6H3155.8V5608.6H3160.8V5603.6ZM3175.2 5603.6V5608.6H3178.78L3179.93 5605.22L3175.2 5603.6ZM3292.8 5433.2L3289.55 5429.4L3289.55 5429.4L3292.8 5433.2ZM3818.4 5490.8L3814.42 5493.82L3814.44 5493.85L3814.45 5493.87L3818.4 5490.8ZM3919.2 6650V6655H3924.2V6650H3919.2ZM3564 6650H3559V6655H3564V6650ZM3525.6 5709.2L3521.39 5711.9L3521.41 5711.93L3521.44 5711.97L3525.6 5709.2ZM3304.8 5661.2L3305.95 5666.07L3306.08 5666.04L3306.21 5666L3304.8 5661.2ZM3230.4 5694.8L3227.49 5690.73L3227.42 5690.78L3227.35 5690.84L3230.4 5694.8ZM3180 5754.8L3184.34 5757.28L3184.38 5757.22L3184.41 5757.15L3180 5754.8ZM3160.8 6650V6655H3165.8V6650H3160.8ZM2810.6 6650V5390H2800.6V6650H2810.6ZM2805.6 5395H3160.8V5385H2805.6V5395ZM3155.8 5390V5603.6H3165.8V5390H3155.8ZM3160.8 5608.6H3175.2V5598.6H3160.8V5608.6ZM3179.93 5605.22C3202.02 5540.52 3240.69 5484.45 3296.05 5437L3289.55 5429.4C3232.91 5477.95 3193.18 5535.48 3170.47 5601.98L3179.93 5605.22ZM3296.05 5437C3350.88 5390.01 3427.18 5366.2 3525.6 5366.2V5356.2C3425.62 5356.2 3346.72 5380.39 3289.55 5429.4L3296.05 5437ZM3525.6 5366.2C3653.98 5366.2 3749.95 5408.92 3814.42 5493.82L3822.38 5487.78C3755.65 5399.88 3656.42 5356.2 3525.6 5356.2V5366.2ZM3814.45 5493.87C3880.72 5579.07 3914.2 5701.02 3914.2 5860.4H3924.2C3924.2 5699.78 3890.48 5575.33 3822.35 5487.73L3814.45 5493.87ZM3914.2 5860.4V6650H3924.2V5860.4H3914.2ZM3919.2 6645H3564V6655H3919.2V6645ZM3569 6650V5889.2H3559V6650H3569ZM3569 5889.2C3569 5807.28 3556.19 5746.07 3529.76 5706.43L3521.44 5711.97C3546.21 5749.13 3559 5807.92 3559 5889.2H3569ZM3529.81 5706.5C3502.96 5664.55 3455.39 5644.2 3388.8 5644.2V5654.2C3453.41 5654.2 3497.04 5673.85 3521.39 5711.9L3529.81 5706.5ZM3388.8 5644.2C3359.53 5644.2 3331.05 5648.27 3303.39 5656.4L3306.21 5666C3332.95 5658.13 3360.47 5654.2 3388.8 5654.2V5644.2ZM3303.65 5656.33C3275.83 5662.88 3250.43 5674.35 3227.49 5690.73L3233.31 5698.87C3255.17 5683.25 3279.37 5672.32 3305.95 5666.07L3303.65 5656.33ZM3227.35 5690.84C3205.97 5707.29 3188.71 5727.84 3175.59 5752.45L3184.41 5757.15C3196.89 5733.76 3213.23 5714.31 3233.45 5698.76L3227.35 5690.84ZM3175.66 5752.32C3162.36 5775.6 3155.8 5802.89 3155.8 5834H3165.8C3165.8 5804.31 3172.04 5778.8 3184.34 5757.28L3175.66 5752.32ZM3155.8 5834V6650H3165.8V5834H3155.8ZM3160.8 6645H2805.6V6655H3160.8V6645ZM4355.29 6650H4350.29V6655H4355.29V6650ZM4355.29 5390V5385H4350.29V5390H4355.29ZM4710.49 5390H4715.49V5385H4710.49V5390ZM4710.49 5603.6H4705.49V5608.6H4710.49V5603.6ZM4724.89 5603.6V5608.6H4728.49L4729.63 5605.18L4724.89 5603.6ZM4840.09 5433.2L4843.33 5437L4843.36 5436.98L4843.4 5436.95L4840.09 5433.2ZM5284.09 5426L5286.98 5421.92L5286.98 5421.92L5284.09 5426ZM5416.09 5615.6L5411.34 5617.15L5412.46 5620.6H5416.09V5615.6ZM5423.29 5615.6V5620.6H5426.94L5428.05 5617.12L5423.29 5615.6ZM5473.69 5517.2L5469.69 5514.2L5469.67 5514.22L5469.66 5514.23L5473.69 5517.2ZM5560.09 5435.6L5562.86 5439.76L5562.86 5439.76L5560.09 5435.6ZM5672.89 5382.8L5674.36 5387.58L5674.44 5387.55L5674.52 5387.52L5672.89 5382.8ZM6085.69 5490.8L6081.67 5493.78L6081.69 5493.8L6081.71 5493.82L6085.69 5490.8ZM6184.09 6650V6655H6189.09V6650H6184.09ZM5828.89 6650H5823.89V6655H5828.89V6650ZM5512.09 5694.8L5509.21 5690.71L5509.21 5690.71L5512.09 5694.8ZM5447.29 6650V6655H5452.29V6650H5447.29ZM5092.09 6650H5087.09V6655H5092.09V6650ZM4842.49 5661.2L4843.78 5666.03L4843.88 5666L4843.98 5665.97L4842.49 5661.2ZM4775.29 5694.8L4772.24 5690.84L4772.16 5690.9L4772.09 5690.96L4775.29 5694.8ZM4727.29 5754.8L4722.88 5752.45L4722.84 5752.51L4722.82 5752.56L4727.29 5754.8ZM4710.49 6650V6655H4715.49V6650H4710.49ZM4360.29 6650V5390H4350.29V6650H4360.29ZM4355.29 5395H4710.49V5385H4355.29V5395ZM4705.49 5390V5603.6H4715.49V5390H4705.49ZM4710.49 5608.6H4724.89V5598.6H4710.49V5608.6ZM4729.63 5605.18C4751.74 5538.85 4789.62 5482.82 4843.33 5437L4836.84 5429.4C4781.76 5476.38 4742.83 5533.95 4720.14 5602.02L4729.63 5605.18ZM4843.4 5436.95C4896.64 5389.97 4969.73 5366.2 5063.29 5366.2V5356.2C4968.04 5356.2 4892.34 5380.43 4836.78 5429.45L4843.4 5436.95ZM5063.29 5366.2C5148.82 5366.2 5221.37 5387.57 5281.19 5430.08L5286.98 5421.92C5225.21 5378.03 5150.56 5356.2 5063.29 5356.2V5366.2ZM5281.19 5430.08C5340.97 5472.55 5384.41 5534.79 5411.34 5617.15L5420.84 5614.05C5393.37 5530.01 5348.8 5465.85 5286.98 5421.92L5281.19 5430.08ZM5416.09 5620.6H5423.29V5610.6H5416.09V5620.6ZM5428.05 5617.12C5439.08 5582.45 5455.63 5550.14 5477.71 5520.17L5469.66 5514.23C5446.95 5545.06 5429.89 5578.35 5418.52 5614.08L5428.05 5617.12ZM5477.69 5520.2C5501.34 5488.66 5529.73 5461.85 5562.86 5439.76L5557.31 5431.44C5523.25 5454.15 5494.03 5481.74 5469.69 5514.2L5477.69 5520.2ZM5562.86 5439.76C5596.03 5417.65 5633.18 5400.25 5674.36 5387.58L5671.42 5378.02C5629.39 5390.95 5591.35 5408.75 5557.31 5431.44L5562.86 5439.76ZM5674.52 5387.52C5715.55 5373.32 5759.79 5366.2 5807.29 5366.2V5356.2C5758.78 5356.2 5713.42 5363.48 5671.25 5378.08L5674.52 5387.52ZM5807.29 5366.2C5927.54 5366.2 6018.75 5408.83 6081.67 5493.78L6089.71 5487.82C6024.63 5399.97 5930.23 5356.2 5807.29 5356.2V5366.2ZM6081.71 5493.82C6146.4 5579.03 6179.09 5701 6179.09 5860.4H6189.09C6189.09 5699.8 6156.18 5575.37 6089.67 5487.78L6081.71 5493.82ZM6179.09 5860.4V6650H6189.09V5860.4H6179.09ZM6184.09 6645H5828.89V6655H6184.09V6645ZM5833.89 6650V5889.2H5823.89V6650H5833.89ZM5833.89 5889.2C5833.89 5808.75 5819.43 5747.51 5789.75 5706.28C5759.84 5664.74 5714.99 5644.2 5656.09 5644.2V5654.2C5712.39 5654.2 5753.94 5673.66 5781.63 5712.12C5809.54 5750.89 5823.89 5809.65 5823.89 5889.2H5833.89ZM5656.09 5644.2C5602.26 5644.2 5553.25 5659.72 5509.21 5690.71L5514.96 5698.89C5557.32 5669.08 5604.32 5654.2 5656.09 5654.2V5644.2ZM5509.21 5690.71C5464.43 5722.23 5442.29 5770.31 5442.29 5834H5452.29C5452.29 5772.89 5473.35 5728.17 5514.96 5698.89L5509.21 5690.71ZM5442.29 5834V6650H5452.29V5834H5442.29ZM5447.29 6645H5092.09V6655H5447.29V6645ZM5097.09 6650V5889.2H5087.09V6650H5097.09ZM5097.09 5889.2C5097.09 5808.75 5082.63 5747.51 5052.95 5706.28C5023.04 5664.74 4978.19 5644.2 4919.29 5644.2V5654.2C4975.59 5654.2 5017.14 5673.66 5044.83 5712.12C5072.74 5750.89 5087.09 5809.65 5087.09 5889.2H5097.09ZM4919.29 5644.2C4893.16 5644.2 4867.06 5648.28 4841 5656.43L4843.98 5665.97C4869.12 5658.12 4894.22 5654.2 4919.29 5654.2V5644.2ZM4841.2 5656.37C4816.53 5662.95 4793.53 5674.46 4772.24 5690.84L4778.34 5698.76C4798.64 5683.14 4820.45 5672.25 4843.78 5666.03L4841.2 5656.37ZM4772.09 5690.96C4752.35 5707.41 4735.95 5727.93 4722.88 5752.45L4731.7 5757.15C4744.22 5733.67 4759.83 5714.19 4778.49 5698.64L4772.09 5690.96ZM4722.82 5752.56C4711.2 5775.79 4705.49 5802.99 4705.49 5834H4715.49C4715.49 5804.21 4720.97 5778.61 4731.76 5757.04L4722.82 5752.56ZM4705.49 5834V6650H4715.49V5834H4705.49ZM4710.49 6645H4355.29V6655H4710.49V6645ZM6888.62 6633.2L6886.66 6637.8L6886.7 6637.82L6886.74 6637.84L6888.62 6633.2ZM6696.62 6501.2L6692.88 6504.52L6692.93 6504.58L6692.98 6504.63L6696.62 6501.2ZM6579.02 6292.4L6574.25 6293.9L6574.26 6293.94L6574.28 6293.98L6579.02 6292.4ZM6579.02 5750L6583.78 5751.52L6583.79 5751.51L6583.79 5751.5L6579.02 5750ZM6691.82 5541.2L6688.08 5537.88L6688.06 5537.91L6688.03 5537.94L6691.82 5541.2ZM6879.02 5409.2L6880.93 5413.82L6880.97 5413.8L6881.01 5413.79L6879.02 5409.2ZM7397.42 5414L7395.26 5418.51L7395.28 5418.52L7395.3 5418.53L7397.42 5414ZM7579.82 5555.6L7575.88 5558.68L7575.91 5558.72L7575.93 5558.75L7579.82 5555.6ZM7683.02 5762L7678.19 5763.28L7678.2 5763.34L7678.22 5763.4L7683.02 5762ZM7716.62 6110V6115H7721.62V6110H7716.62ZM6907.82 6110V6105H6902.82V6110H6907.82ZM6975.02 6328.4L6971.31 6331.75L6971.34 6331.78L6971.36 6331.81L6975.02 6328.4ZM7366.22 6357.2L7368.86 6361.45L7368.91 6361.42L7368.96 6361.38L7366.22 6357.2ZM7495.82 6249.2L7499.71 6246.07L7496.15 6241.64L7492.21 6245.73L7495.82 6249.2ZM7673.42 6470L7677.22 6473.25L7679.91 6470.09L7677.31 6466.87L7673.42 6470ZM7452.62 6623.6L7450.75 6618.96L7450.73 6618.97L7450.72 6618.97L7452.62 6623.6ZM6967.82 5694.8L6964.04 5691.53L6964.03 5691.54L6967.82 5694.8ZM6907.82 5901.2H6902.82V5906.2H6907.82V5901.2ZM7349.42 5901.2V5906.2H7354.42V5901.2H7349.42ZM7296.62 5694.8L7292.52 5697.67L7292.58 5697.75L7292.64 5697.82L7296.62 5694.8ZM7145.42 6673.8C7049.95 6673.8 6965 6658.68 6890.49 6628.56L6886.74 6637.84C6962.64 6668.52 7048.89 6683.8 7145.42 6683.8V6673.8ZM6890.58 6628.6C6815.97 6596.85 6752.55 6553.24 6700.26 6497.77L6692.98 6504.63C6746.28 6561.16 6810.87 6605.55 6886.66 6637.8L6890.58 6628.6ZM6700.36 6497.88C6649.66 6440.84 6610.77 6371.85 6583.76 6290.82L6574.28 6293.98C6601.66 6376.15 6641.18 6446.36 6692.88 6504.52L6700.36 6497.88ZM6583.79 6290.9C6558.37 6209.87 6545.62 6119.18 6545.62 6018.8H6535.62C6535.62 6120.02 6548.47 6211.73 6574.25 6293.9L6583.79 6290.9ZM6545.62 6018.8C6545.62 5920.03 6558.36 5830.95 6583.78 5751.52L6574.26 5748.48C6548.47 5829.05 6535.62 5919.17 6535.62 6018.8H6545.62ZM6583.79 5751.5C6609.21 5670.46 6646.5 5601.49 6695.61 5544.46L6688.03 5537.94C6637.93 5596.11 6600.03 5666.34 6574.25 5748.5L6583.79 5751.5ZM6695.56 5544.52C6746.24 5487.51 6808 5443.94 6880.93 5413.82L6877.11 5404.58C6802.83 5435.26 6739.8 5479.69 6688.08 5537.88L6695.56 5544.52ZM6881.01 5413.79C6953.88 5382.1 7037.19 5366.2 7131.02 5366.2V5356.2C7036.05 5356.2 6951.36 5372.3 6877.03 5404.61L6881.01 5413.79ZM7131.02 5366.2C7234.47 5366.2 7322.49 5383.71 7395.26 5418.51L7399.58 5409.49C7325.14 5373.89 7235.57 5356.2 7131.02 5356.2V5366.2ZM7395.3 5418.53C7469.86 5453.43 7530.02 5500.16 7575.88 5558.68L7583.75 5552.52C7536.82 5492.64 7475.37 5444.97 7399.54 5409.47L7395.3 5418.53ZM7575.93 5558.75C7623.46 5617.37 7657.56 5685.52 7678.19 5763.28L7687.85 5760.72C7666.88 5681.68 7632.18 5612.23 7583.7 5552.45L7575.93 5558.75ZM7678.22 5763.4C7700.48 5839.72 7711.62 5920.05 7711.62 6004.4H7721.62C7721.62 5919.15 7710.36 5837.88 7687.82 5760.6L7678.22 5763.4ZM7711.62 6004.4V6110H7721.62V6004.4H7711.62ZM7716.62 6105H6907.82V6115H7716.62V6105ZM6902.82 6110V6129.2H6912.82V6110H6902.82ZM6902.82 6129.2C6902.82 6213.32 6925.49 6281.02 6971.31 6331.75L6978.73 6325.05C6934.95 6276.58 6912.82 6211.48 6912.82 6129.2H6902.82ZM6971.36 6331.81C7017.47 6381.22 7089.48 6405.4 7186.22 6405.4V6395.4C7090.96 6395.4 7022.16 6371.58 6978.67 6324.99L6971.36 6331.81ZM7186.22 6405.4C7260.44 6405.4 7321.43 6390.88 7368.86 6361.45L7363.58 6352.95C7318.2 6381.12 7259.2 6395.4 7186.22 6395.4V6405.4ZM7368.96 6361.38C7415.69 6330.77 7459.17 6294.53 7499.42 6252.67L7492.21 6245.73C7452.46 6287.07 7409.55 6322.83 7363.48 6353.02L7368.96 6361.38ZM7491.92 6252.33L7669.52 6473.13L7677.31 6466.87L7499.71 6246.07L7491.92 6252.33ZM7669.62 6466.75C7614.21 6531.66 7541.31 6582.42 7450.75 6618.96L7454.49 6628.24C7546.33 6591.18 7620.63 6539.54 7677.22 6473.25L7669.62 6466.75ZM7450.72 6618.97C7361.82 6655.49 7260.09 6673.8 7145.42 6673.8V6683.8C7261.15 6683.8 7364.21 6665.31 7454.52 6628.23L7450.72 6618.97ZM7138.22 5617.8C7064.98 5617.8 7006.72 5642.28 6964.04 5691.53L6971.6 5698.07C7012.11 5651.32 7067.45 5627.8 7138.22 5627.8V5617.8ZM6964.03 5691.54C6923.05 5739.07 6902.82 5802.75 6902.82 5882H6912.82C6912.82 5804.45 6932.59 5743.33 6971.61 5698.06L6964.03 5691.54ZM6902.82 5882V5901.2H6912.82V5882H6902.82ZM6907.82 5906.2H7349.42V5896.2H6907.82V5906.2ZM7354.42 5901.2V5879.6H7344.42V5901.2H7354.42ZM7354.42 5879.6C7354.42 5802.06 7336.64 5739.29 7300.6 5691.78L7292.64 5697.82C7326.99 5743.11 7344.42 5803.54 7344.42 5879.6H7354.42ZM7300.71 5691.93C7265.96 5642.28 7211.43 5617.8 7138.22 5617.8V5627.8C7209.01 5627.8 7260.08 5651.32 7292.52 5697.67L7300.71 5691.93ZM8097.92 6623.6L8094.23 6626.97L8094.3 6627.06L8094.38 6627.14L8097.92 6623.6ZM8097.92 6299.6L8094.31 6296.14L8094.3 6296.15L8097.92 6299.6ZM8417.12 6299.6L8413.43 6302.97L8413.5 6303.06L8413.58 6303.14L8417.12 6299.6ZM8417.12 6623.6L8413.51 6620.14L8413.5 6620.15L8417.12 6623.6ZM8258.72 6671.4C8187.45 6671.4 8135.37 6653.98 8101.45 6620.06L8094.38 6627.14C8130.87 6663.62 8185.99 6681.4 8258.72 6681.4V6671.4ZM8101.61 6620.23C8068.96 6584.47 8052.52 6539.32 8052.52 6484.4H8042.52C8042.52 6541.48 8059.68 6589.13 8094.23 6626.97L8101.61 6620.23ZM8052.52 6484.4V6436.4H8042.52V6484.4H8052.52ZM8052.52 6436.4C8052.52 6381.48 8068.96 6337.18 8101.54 6303.05L8094.3 6296.15C8059.68 6332.42 8042.52 6379.32 8042.52 6436.4H8052.52ZM8101.53 6303.06C8135.45 6267.59 8187.51 6249.4 8258.72 6249.4V6239.4C8185.93 6239.4 8130.78 6258.01 8094.31 6296.14L8101.53 6303.06ZM8258.72 6249.4C8329.95 6249.4 8381.13 6267.6 8413.43 6302.97L8420.81 6296.23C8385.91 6258 8331.49 6239.4 8258.72 6239.4V6249.4ZM8413.58 6303.14C8447.72 6337.28 8464.92 6381.55 8464.92 6436.4H8474.92C8474.92 6379.25 8456.91 6332.32 8420.65 6296.06L8413.58 6303.14ZM8464.92 6436.4V6484.4H8474.92V6436.4H8464.92ZM8464.92 6484.4C8464.92 6539.25 8447.72 6584.37 8413.51 6620.14L8420.73 6627.06C8456.91 6589.23 8474.92 6541.55 8474.92 6484.4H8464.92ZM8413.5 6620.15C8381.22 6653.97 8330.01 6671.4 8258.72 6671.4V6681.4C8331.43 6681.4 8385.82 6663.63 8420.74 6627.05L8413.5 6620.15ZM9652.93 6438.8H9657.93V6433.8H9652.93V6438.8ZM9640.93 6438.8V6433.8H9637.16L9636.12 6437.43L9640.93 6438.8ZM9595.33 6534.8L9599.38 6537.73L9599.42 6537.68L9599.46 6537.62L9595.33 6534.8ZM9518.53 6611.6L9521.46 6615.65L9521.48 6615.64L9521.5 6615.63L9518.53 6611.6ZM9417.73 6659.6L9416.33 6654.8L9416.21 6654.84L9416.09 6654.88L9417.73 6659.6ZM8940.13 6510.8L8936.07 6513.72L8936.08 6513.73L8936.09 6513.74L8940.13 6510.8ZM8940.13 5529.2L8936.09 5526.26L8936.09 5526.26L8940.13 5529.2ZM9518.53 5428.4L9515.62 5432.46L9515.64 5432.48L9515.66 5432.5L9518.53 5428.4ZM9640.93 5601.2L9636.08 5602.41L9637.03 5606.2H9640.93V5601.2ZM9652.93 5601.2V5606.2H9657.93V5601.2H9652.93ZM9652.93 4874V4869H9647.93V4874H9652.93ZM10008.1 4874H10013.1V4869H10008.1V4874ZM10008.1 6650V6655H10013.1V6650H10008.1ZM9652.93 6650H9647.93V6655H9652.93V6650ZM9585.73 6342.8L9588.71 6346.82L9588.72 6346.81L9588.73 6346.8L9585.73 6342.8ZM9585.73 5699.6L9582.66 5703.55L9582.74 5703.61L9582.83 5703.67L9585.73 5699.6ZM9252.13 5721.2L9248.48 5717.79L9248.47 5717.79L9252.13 5721.2ZM9252.13 6321.2L9248.41 6324.54L9248.47 6324.61L9248.53 6324.67L9252.13 6321.2ZM9652.93 6433.8H9640.93V6443.8H9652.93V6433.8ZM9636.12 6437.43C9626.68 6470.48 9611.72 6502 9591.2 6531.98L9599.46 6537.62C9620.54 6506.8 9635.98 6474.32 9645.74 6440.17L9636.12 6437.43ZM9591.28 6531.87C9570.8 6560.23 9545.57 6585.46 9515.57 6607.57L9521.5 6615.63C9552.29 6592.94 9578.26 6566.97 9599.38 6537.73L9591.28 6531.87ZM9515.6 6607.55C9487.32 6627.97 9454.25 6643.74 9416.33 6654.8L9419.13 6664.4C9458.01 6653.06 9492.14 6636.83 9521.46 6615.65L9515.6 6607.55ZM9416.09 6654.88C9379.83 6667.49 9341.99 6673.8 9302.53 6673.8V6683.8C9343.08 6683.8 9382.03 6677.31 9419.37 6664.32L9416.09 6654.88ZM9302.53 6673.8C9143.85 6673.8 9024.68 6618.35 8944.17 6507.86L8936.09 6513.74C9018.79 6627.25 9141.22 6683.8 9302.53 6683.8V6673.8ZM8944.19 6507.88C8863.45 6395.48 8822.73 6232.68 8822.73 6018.8H8812.73C8812.73 6233.72 8853.61 6398.92 8936.07 6513.72L8944.19 6507.88ZM8822.73 6018.8C8822.73 5804.92 8863.45 5642.94 8944.17 5532.14L8936.09 5526.26C8853.61 5639.46 8812.73 5803.88 8812.73 6018.8H8822.73ZM8944.17 5532.14C9024.68 5421.65 9143.85 5366.2 9302.53 5366.2V5356.2C9141.22 5356.2 9018.79 5412.75 8936.09 5526.26L8944.17 5532.14ZM9302.53 5366.2C9383.15 5366.2 9454.12 5388.31 9515.62 5432.46L9521.45 5424.34C9458.14 5378.89 9385.11 5356.2 9302.53 5356.2V5366.2ZM9515.66 5432.5C9578.76 5476.66 9618.8 5533.27 9636.08 5602.41L9645.78 5599.99C9627.87 5528.33 9586.3 5469.74 9521.4 5424.3L9515.66 5432.5ZM9640.93 5606.2H9652.93V5596.2H9640.93V5606.2ZM9657.93 5601.2V4874H9647.93V5601.2H9657.93ZM9652.93 4879H10008.1V4869H9652.93V4879ZM10003.1 4874V6650H10013.1V4874H10003.1ZM10008.1 6645H9652.93V6655H10008.1V6645ZM9657.93 6650V6438.8H9647.93V6650H9657.93ZM9420.13 6395.8C9488.13 6395.8 9544.45 6379.6 9588.71 6346.82L9582.76 6338.78C9540.61 6370 9486.53 6385.8 9420.13 6385.8V6395.8ZM9588.73 6346.8C9634.83 6312.22 9657.93 6265.12 9657.93 6206H9647.93C9647.93 6262.08 9626.23 6306.18 9582.73 6338.8L9588.73 6346.8ZM9657.93 6206V5834H9647.93V6206H9657.93ZM9657.93 5834C9657.93 5774.87 9634.82 5728.52 9588.64 5695.53L9582.83 5703.67C9626.24 5734.68 9647.93 5777.93 9647.93 5834H9657.93ZM9588.8 5695.65C9544.54 5661.23 9488.18 5644.2 9420.13 5644.2V5654.2C9486.48 5654.2 9540.52 5670.77 9582.66 5703.55L9588.8 5695.65ZM9420.13 5644.2C9351.58 5644.2 9294.25 5668.75 9248.48 5717.79L9255.79 5724.61C9299.62 5677.65 9354.28 5654.2 9420.13 5654.2V5644.2ZM9248.47 5717.79C9204.2 5765.34 9182.33 5829.88 9182.33 5910.8H9192.33C9192.33 5831.72 9213.66 5769.86 9255.79 5724.61L9248.47 5717.79ZM9182.33 5910.8V6129.2H9192.33V5910.8H9182.33ZM9182.33 6129.2C9182.33 6210.13 9204.2 6275.42 9248.41 6324.54L9255.85 6317.86C9213.66 6270.98 9192.33 6208.27 9192.33 6129.2H9182.33ZM9248.53 6324.67C9294.32 6372.09 9351.64 6395.8 9420.13 6395.8V6385.8C9354.22 6385.8 9299.54 6363.11 9255.73 6317.73L9248.53 6324.67ZM10729.1 6633.2L10727.1 6637.8L10727.2 6637.82L10727.2 6637.84L10729.1 6633.2ZM10537.1 6501.2L10533.4 6504.52L10533.4 6504.58L10533.4 6504.63L10537.1 6501.2ZM10419.5 6292.4L10414.7 6293.9L10414.7 6293.94L10414.7 6293.98L10419.5 6292.4ZM10419.5 5750L10424.2 5751.52L10424.3 5751.51L10424.3 5751.5L10419.5 5750ZM10532.3 5541.2L10528.6 5537.88L10528.5 5537.91L10528.5 5537.94L10532.3 5541.2ZM10719.5 5409.2L10721.4 5413.82L10721.4 5413.8L10721.5 5413.79L10719.5 5409.2ZM11237.9 5414L11235.7 5418.51L11235.7 5418.52L11235.8 5418.53L11237.9 5414ZM11420.3 5555.6L11416.4 5558.68L11416.4 5558.72L11416.4 5558.75L11420.3 5555.6ZM11523.5 5762L11518.7 5763.28L11518.7 5763.34L11518.7 5763.4L11523.5 5762ZM11557.1 6110V6115H11562.1V6110H11557.1ZM10748.3 6110V6105H10743.3V6110H10748.3ZM10815.5 6328.4L10811.8 6331.75L10811.8 6331.78L10811.8 6331.81L10815.5 6328.4ZM11206.7 6357.2L11209.3 6361.45L11209.4 6361.42L11209.4 6361.38L11206.7 6357.2ZM11336.3 6249.2L11340.2 6246.07L11336.6 6241.64L11332.7 6245.73L11336.3 6249.2ZM11513.9 6470L11517.7 6473.25L11520.4 6470.09L11517.8 6466.87L11513.9 6470ZM11293.1 6623.6L11291.2 6618.96L11291.2 6618.97L11291.2 6618.97L11293.1 6623.6ZM10808.3 5694.8L10804.5 5691.53L10804.5 5691.54L10808.3 5694.8ZM10748.3 5901.2H10743.3V5906.2H10748.3V5901.2ZM11189.9 5901.2V5906.2H11194.9V5901.2H11189.9ZM11137.1 5694.8L11133 5697.67L11133 5697.75L11133.1 5697.82L11137.1 5694.8ZM10985.9 6673.8C10890.4 6673.8 10805.5 6658.68 10731 6628.56L10727.2 6637.84C10803.1 6668.52 10889.4 6683.8 10985.9 6683.8V6673.8ZM10731 6628.6C10656.4 6596.85 10593 6553.24 10540.7 6497.77L10533.4 6504.63C10586.8 6561.16 10651.3 6605.55 10727.1 6637.8L10731 6628.6ZM10540.8 6497.88C10490.1 6440.84 10451.2 6371.85 10424.2 6290.82L10414.7 6293.98C10442.1 6376.15 10481.7 6446.36 10533.4 6504.52L10540.8 6497.88ZM10424.3 6290.9C10398.8 6209.87 10386.1 6119.18 10386.1 6018.8H10376.1C10376.1 6120.02 10388.9 6211.73 10414.7 6293.9L10424.3 6290.9ZM10386.1 6018.8C10386.1 5920.03 10398.8 5830.95 10424.2 5751.52L10414.7 5748.48C10388.9 5829.05 10376.1 5919.17 10376.1 6018.8H10386.1ZM10424.3 5751.5C10449.7 5670.46 10487 5601.49 10536.1 5544.46L10528.5 5537.94C10478.4 5596.11 10440.5 5666.34 10414.7 5748.5L10424.3 5751.5ZM10536 5544.52C10586.7 5487.51 10648.5 5443.94 10721.4 5413.82L10717.6 5404.58C10643.3 5435.26 10580.3 5479.69 10528.6 5537.88L10536 5544.52ZM10721.5 5413.79C10794.4 5382.1 10877.7 5366.2 10971.5 5366.2V5356.2C10876.5 5356.2 10791.8 5372.3 10717.5 5404.61L10721.5 5413.79ZM10971.5 5366.2C11074.9 5366.2 11163 5383.71 11235.7 5418.51L11240 5409.49C11165.6 5373.89 11076 5356.2 10971.5 5356.2V5366.2ZM11235.8 5418.53C11310.3 5453.43 11370.5 5500.16 11416.4 5558.68L11424.2 5552.52C11377.3 5492.64 11315.8 5444.97 11240 5409.47L11235.8 5418.53ZM11416.4 5558.75C11463.9 5617.37 11498 5685.52 11518.7 5763.28L11528.3 5760.72C11507.4 5681.68 11472.6 5612.23 11424.2 5552.45L11416.4 5558.75ZM11518.7 5763.4C11540.9 5839.72 11552.1 5920.05 11552.1 6004.4H11562.1C11562.1 5919.15 11550.8 5837.88 11528.3 5760.6L11518.7 5763.4ZM11552.1 6004.4V6110H11562.1V6004.4H11552.1ZM11557.1 6105H10748.3V6115H11557.1V6105ZM10743.3 6110V6129.2H10753.3V6110H10743.3ZM10743.3 6129.2C10743.3 6213.32 10766 6281.02 10811.8 6331.75L10819.2 6325.05C10775.4 6276.58 10753.3 6211.48 10753.3 6129.2H10743.3ZM10811.8 6331.81C10857.9 6381.22 10929.9 6405.4 11026.7 6405.4V6395.4C10931.4 6395.4 10862.6 6371.58 10819.1 6324.99L10811.8 6331.81ZM11026.7 6405.4C11100.9 6405.4 11161.9 6390.88 11209.3 6361.45L11204.1 6352.95C11158.7 6381.12 11099.7 6395.4 11026.7 6395.4V6405.4ZM11209.4 6361.38C11256.2 6330.77 11299.6 6294.53 11339.9 6252.67L11332.7 6245.73C11292.9 6287.07 11250 6322.83 11203.9 6353.02L11209.4 6361.38ZM11332.4 6252.33L11510 6473.13L11517.8 6466.87L11340.2 6246.07L11332.4 6252.33ZM11510.1 6466.75C11454.7 6531.66 11381.8 6582.42 11291.2 6618.96L11295 6628.24C11386.8 6591.18 11461.1 6539.54 11517.7 6473.25L11510.1 6466.75ZM11291.2 6618.97C11202.3 6655.49 11100.6 6673.8 10985.9 6673.8V6683.8C11101.6 6683.8 11204.7 6665.31 11295 6628.23L11291.2 6618.97ZM10978.7 5617.8C10905.5 5617.8 10847.2 5642.28 10804.5 5691.53L10812.1 5698.07C10852.6 5651.32 10907.9 5627.8 10978.7 5627.8V5617.8ZM10804.5 5691.54C10763.5 5739.07 10743.3 5802.75 10743.3 5882H10753.3C10753.3 5804.45 10773.1 5743.33 10812.1 5698.06L10804.5 5691.54ZM10743.3 5882V5901.2H10753.3V5882H10743.3ZM10748.3 5906.2H11189.9V5896.2H10748.3V5906.2ZM11194.9 5901.2V5879.6H11184.9V5901.2H11194.9ZM11194.9 5879.6C11194.9 5802.06 11177.1 5739.29 11141.1 5691.78L11133.1 5697.82C11167.5 5743.11 11184.9 5803.54 11184.9 5879.6H11194.9ZM11141.2 5691.93C11106.4 5642.28 11051.9 5617.8 10978.7 5617.8V5627.8C11049.5 5627.8 11100.5 5651.32 11133 5697.67L11141.2 5691.93ZM12173.3 6650L12168.6 6651.56L12169.7 6655H12173.3V6650ZM11760.5 5390V5385H11753.6L11755.8 5391.56L11760.5 5390ZM12110.9 5390L12115.7 5388.53L12114.6 5385H12110.9V5390ZM12266.9 5898.8L12271.7 5897.55L12271.7 5897.44L12271.7 5897.33L12266.9 5898.8ZM12384.5 6354.8L12379.7 6356.05L12380.6 6359.8H12384.5V6354.8ZM12403.7 6354.8V6359.8H12407.6L12408.5 6356.05L12403.7 6354.8ZM12521.3 5898.8L12516.5 5897.38L12516.5 5897.46L12516.5 5897.55L12521.3 5898.8ZM12672.5 5390V5385H12668.8L12667.7 5388.58L12672.5 5390ZM13008.5 5390L13013.3 5391.56L13015.4 5385H13008.5V5390ZM12595.7 6650V6655H12599.3L12600.5 6651.56L12595.7 6650ZM12178.1 6648.44L11765.3 5388.44L11755.8 5391.56L12168.6 6651.56L12178.1 6648.44ZM11760.5 5395H12110.9V5385H11760.5V5395ZM12106.1 5391.47L12262.1 5900.27L12271.7 5897.33L12115.7 5388.53L12106.1 5391.47ZM12262.1 5900.05L12379.7 6356.05L12389.3 6353.55L12271.7 5897.55L12262.1 5900.05ZM12384.5 6359.8H12403.7V6349.8H12384.5V6359.8ZM12408.5 6356.05L12526.1 5900.05L12516.5 5897.55L12398.9 6353.55L12408.5 6356.05ZM12526.1 5900.22L12677.3 5391.42L12667.7 5388.58L12516.5 5897.38L12526.1 5900.22ZM12672.5 5395H13008.5V5385H12672.5V5395ZM13003.8 5388.44L12591 6648.44L12600.5 6651.56L13013.3 5391.56L13003.8 5388.44ZM12595.7 6645H12173.3V6655H12595.7V6645Z" fill="#5B3ADF" mask="url(#path-1-outside-1_2079_211)"/>
</g>
<rect x="4010.5" y="0.5" width="4322" height="3981" rx="399.5" fill="#5B3ADF" stroke="black"/>
<path d="M7256 2095.81L5717.18 2976.03C5637.14 3021.82 5537.5 2963.96 5537.6 2871.75L5539.43 1108.11C5539.53 1015.89 5639.28 958.24 5719.23 1004.19L7256.21 1887.61C7336.58 1933.8 7336.46 2049.79 7256 2095.81Z" fill="white" stroke="#5B3ADF" stroke-width="60"/>
<defs>
<filter id="filter0_d_2079_211" x="156.602" y="4869" width="12862.8" height="1822.8" filterUnits="userSpaceOnUse" color-interpolation-filters="sRGB">
<feFlood flood-opacity="0" result="BackgroundImageFix"/>
<feColorMatrix in="SourceAlpha" type="matrix" values="0 0 0 0 0 0 0 0 0 0 0 0 0 0 0 0 0 0 127 0" result="hardAlpha"/>
<feOffset dy="4"/>
<feGaussianBlur stdDeviation="2"/>
<feComposite in2="hardAlpha" operator="out"/>
<feColorMatrix type="matrix" values="0 0 0 0 0 0 0 0 0 0 0 0 0 0 0 0 0 0 0.25 0"/>
<feBlend mode="normal" in2="BackgroundImageFix" result="effect1_dropShadow_2079_211"/>
<feBlend mode="normal" in="SourceGraphic" in2="effect1_dropShadow_2079_211" result="shape"/>
</filter>
</defs>
</svg>
