<svg xmlns="http://www.w3.org/2000/svg" role="img" viewBox="-0.62 -6.12 682.24 339.24"><defs><style>.cls-4,.cls-5,.cls-6,.cls-7,.cls-8{fill:#666;isolation:isolate}.cls-3{fill:#284e64}.cls-4{opacity:.6}.cls-5{opacity:.1}.cls-6{opacity:.2}.cls-7{opacity:.4}.cls-8{opacity:.75}</style></defs><path d="M286.646 213.402h26.323v97.542h-26.323zm0-43.093h26.323v19.743h-26.323zm91.775 121.568a25.203 25.203 0 0 1-3.606.225 8.39 8.39 0 0 1-6.267-2.434q-2.388-2.435-2.388-8.113V231.88h16.497V213.4H366.16v-23.89h-26.233v23.89h-14.245v18.48h14.245v49.764q0 16.225 7.346 23.708 7.346 7.486 20.96 7.485a46.045 46.045 0 0 0 8.16-.677 53.377 53.377 0 0 0 7.706-2.029l-2.163-19.022a30.18 30.18 0 0 1-3.515.767zm61.031-80.279q-20.826-.09-32.725 13.884-11.898 13.975-11.9 35.878v3.608q0 21.093 12.261 34.482 12.26 13.387 34.077 13.388a70.371 70.371 0 0 0 21.816-3.246q10.006-3.245 15.866-8.025l-7.12-16.226a61.243 61.243 0 0 1-12.757 5.5 54.16 54.16 0 0 1-15.011 1.802q-10.727 0-16.182-6.221-5.454-6.219-6.084-16.226l.27-.542h58.148V256.04q0-20.372-10.504-32.407-10.502-12.037-30.155-12.036zm14.876 40.657h-32.094l-.181-.45q.9-9.014 5.184-14.468 4.28-5.455 12.215-5.456 7.842 0 11.359 4.913 3.516 4.916 3.517 13.478zm110.568 11.405q-8.792-6.986-26.732-10.594-11.719-2.252-15.55-5.092a8.757 8.757 0 0 1-3.83-7.347 9.81 9.81 0 0 1 3.695-7.754q3.695-3.155 10.007-3.155 7.118 0 10.907 3.696a12.767 12.767 0 0 1 3.786 9.557h25.424l.18-.542q.45-13.162-10.683-21.997-11.134-8.832-29.614-8.834-17.67 0-28.308 8.834-10.638 8.838-10.638 21.366 0 11.901 8.88 18.84 8.879 6.944 26.009 10.37 11.359 2.345 15.55 5.453 4.191 3.11 4.193 7.438a9.508 9.508 0 0 1-3.83 7.978q-3.835 2.931-11.135 2.929-7.843 0-12.71-3.515-4.87-3.516-5.14-11.359h-24.07l-.181.54q-.54 12.623 10.774 22.493 11.313 9.87 30.787 9.873 18.477 0 29.748-8.385 11.27-8.385 11.268-21.546 0-12.259-8.787-19.247zm95.2 0q-8.793-6.986-26.732-10.594-11.719-2.252-15.55-5.092a8.757 8.757 0 0 1-3.831-7.347 9.81 9.81 0 0 1 3.696-7.754q3.695-3.155 10.007-3.155 7.118 0 10.907 3.696a12.766 12.766 0 0 1 3.786 9.557h25.424l.18-.542q.45-13.162-10.684-21.997-11.134-8.832-29.613-8.834-17.67 0-28.308 8.834-10.638 8.838-10.638 21.366 0 11.901 8.88 18.84 8.879 6.944 26.008 10.37 11.36 2.345 15.551 5.453 4.191 3.11 4.192 7.438a9.508 9.508 0 0 1-3.83 7.978q-3.834 2.931-11.134 2.929-7.843 0-12.71-3.515-4.87-3.516-5.14-11.359h-24.07l-.181.54q-.54 12.623 10.774 22.493 11.313 9.87 30.787 9.873 18.477 0 29.748-8.385 11.27-8.385 11.268-21.546 0-12.259-8.787-19.247z" style="isolation:isolate" fill="#666" opacity=".7"/><path fill="none" d="M72.139 117.416l-.009.009.009-.009z"/><path d="M206.436 198.417l.033-.166 10.998-64.396-11.031 64.562zm79.445-64.715l-35.697 64.513-67.481 122.241.003.005 67.493-122.262 35.698-64.504 38.998-70.738-39.014 70.745zM287.1 7.167l-11.458 20.94 11.463-20.94h-.005zM72.139 117.416L115.9 70.451l-43.761 46.965zm9.315 17.008l48.327-38.388-48.327 38.388zm0 0l-3.242-5.91 3.234 5.91 34.385 63.119 5.583 10.294-5.588-10.308-34.372-63.105z" class="cls-3"/><path d="M93.51 112.034l22.39-41.583 13.881 25.585 26.915 49.648-26.899-49.656-13.893-25.597L81.3 7.167h-.007L115.9 70.451l-22.39 41.583zm100.729 102.762l.158.293L200.876 227l-6.637-12.204zm45.739-121.73l-22.523 40.775-25.054 46.136 25.066-46.122 22.511-40.789z" class="cls-3"/><path d="M150.175 260.894l32.52 59.575 17.897-92.009-50.417 32.434z" class="cls-4"/><path d="M200.876 227l-6.479-11.911-22.214-40.838-22.008 86.643 50.417-32.434.284-1.46z" class="cls-5"/><path d="M115.826 197.529l5.588 10.308 28.761 53.057 22.008-86.643-56.357 23.278z" class="cls-6"/><path d="M115.826 197.529l56.357-23.278-15.487-28.567-26.915-49.648-13.955 101.493z" class="cls-4"/><path d="M206.436 198.417l11.031-64.562-25.066 46.122-8.547 15.727 10.385 19.092L200.876 227l5.56-28.583z" class="cls-7"/><path d="M81.454 134.424l34.372 63.105 13.955-101.493-48.327 38.388z" class="cls-6"/><path d="M250.184 198.215l35.697-64.513-79.412 64.549 43.715-.036zM115.9 70.451l-22.39 41.583-12.056 22.39 48.327-38.388L115.9 70.451z" class="cls-5"/><path d="M206.469 198.251l45.762-127.383-12.253 22.198-22.511 40.789-10.998 64.396z" class="cls-5"/><path d="M81.454 134.424l12.056-22.39 22.39-41.583-43.761 46.965-.009.009 6.082 11.089 3.242 5.91z" class="cls-8"/><path d="M285.881 133.702l-33.65-62.834-45.762 127.383 79.412-64.549zM72.139 117.416L115.9 70.451 81.293 7.167l-.005-.009-9.158 110.267.009-.009z" class="cls-7"/><path d="M285.881 133.702L287.11 7.167v-.009l-.005.009-11.463 20.94-23.411 42.761 33.65 62.834zM81.288 7.158H12.443L72.13 117.425 81.288 7.158z" class="cls-6"/><path d="M287.11 7.158v.009l-1.229 126.535 39.014-70.745 30.771-55.799H287.11zm-80.641 191.093l-.033.166-5.56 28.583-.284 1.46-17.897 92.009.008-.013 67.481-122.241-43.715.036z" class="cls-8"/></svg>