<?xml version="1.0" encoding="UTF-8" standalone="no"?>
<!-- Created with Inkscape (http://www.inkscape.org/) -->

<svg
   width="344.29135mm"
   height="115.09025mm"
   viewBox="0 0 344.29135 115.09025"
   version="1.1"
   id="svg201550"
   inkscape:version="1.2-alpha1 (7125ea6, 2022-03-22)"
   sodipodi:docname="confidential-containers-logo-black.svg"
   xmlns:inkscape="http://www.inkscape.org/namespaces/inkscape"
   xmlns:sodipodi="http://sodipodi.sourceforge.net/DTD/sodipodi-0.dtd"
   xmlns="http://www.w3.org/2000/svg"
   xmlns:svg="http://www.w3.org/2000/svg">
  <sodipodi:namedview
     id="namedview201552"
     pagecolor="#ffffff"
     bordercolor="#666666"
     borderopacity="1.0"
     inkscape:pageshadow="2"
     inkscape:pageopacity="0.0"
     inkscape:pagecheckerboard="true"
     inkscape:document-units="mm"
     showgrid="false"
     fit-margin-top="10"
     fit-margin-left="10"
     fit-margin-right="10"
     lock-margins="true"
     fit-margin-bottom="10"
     inkscape:zoom="0.68589358"
     inkscape:cx="682.32159"
     inkscape:cy="425.72202"
     inkscape:window-width="1950"
     inkscape:window-height="1131"
     inkscape:window-x="26"
     inkscape:window-y="23"
     inkscape:window-maximized="0"
     inkscape:current-layer="layer1"
     inkscape:deskcolor="#d1d1d1" />
  <defs
     id="defs201547" />
  <g
     inkscape:label="Layer 1"
     inkscape:groupmode="layer"
     id="layer1"
     transform="translate(146.70743,-140.34478)">
    <path
       sodipodi:type="star"
       style="font-variation-settings:normal;opacity:1;fill:none;fill-opacity:1;stroke:#000000;stroke-width:21.8871;stroke-linecap:round;stroke-linejoin:round;stroke-miterlimit:4;stroke-dasharray:none;stroke-dashoffset:0;stroke-opacity:1;stop-color:#000000;stop-opacity:1"
       id="path1439"
       inkscape:flatsided="true"
       sodipodi:sides="6"
       sodipodi:cx="-1737.2913"
       sodipodi:cy="742.20764"
       sodipodi:r1="200.46967"
       sodipodi:r2="173.61182"
       sodipodi:arg1="1.5707963"
       sodipodi:arg2="2.0943951"
       inkscape:rounded="0.1"
       inkscape:randomized="0"
       transform="matrix(0.22489192,0,0,0.22489192,297.191,30.9734)"
       inkscape:transform-center-x="-2.0702374e-05"
       inkscape:transform-center-y="-3.2239512e-06"
       d="m -1737.2913,942.67731 c -20.0469,0 -163.5883,-82.87365 -173.6118,-100.23483 -10.0235,-17.36118 -10.0235,-183.10848 0,-200.46967 10.0235,-17.36118 153.5649,-100.23483 173.6118,-100.23483 20.047,0 163.5884,82.87364 173.6119,100.23482 10.0234,17.36119 10.0234,183.10849 0,200.46967 -10.0235,17.36118 -153.5649,100.23484 -173.6119,100.23484 z" />
    <path
       id="path1441"
       style="fill:none;fill-opacity:1;stroke-width:2.26361;stroke-linecap:round;stroke-linejoin:round;stop-color:#000000;stroke:#000000"
       d="m -93.5108,223.4354 c -0.7664,0 -21.7398,-12.109 -22.1229,-12.7727 -0.3832,-0.6638 -0.3832,-24.8819 0,-25.5456 0.3831,-0.6637 21.3565,-12.7727 22.1229,-12.7727 0.7664,0 21.7398,12.109 22.1231,12.7727 0.3831,0.6637 0.3831,24.8818 0,25.5456 -0.3833,0.6637 -21.3567,12.7727 -22.1231,12.7727 z" />
    <g
       aria-label="CONFIDENTIAL CONTAINERS"
       id="text1447"
       style="font-size:27.7362px;line-height:1;font-family:'Futura Bk BT';-inkscape-font-specification:'Futura Bk BT';letter-spacing:0px;word-spacing:0px;stroke-width:0.325033">
      <path
         d="m -21.324828,193.58668 c 3.383816,0 6.185172,-1.22039 8.015762,-3.46703 l -2.884565,-2.66267 c -1.303602,1.52549 -2.940037,2.3021 -4.881571,2.3021 -3.633443,0 -6.212909,-2.55173 -6.212909,-6.2129 0,-3.66118 2.579466,-6.21291 6.212909,-6.21291 1.941534,0 3.577969,0.77661 4.881571,2.27436 l 2.884565,-2.66267 c -1.83059,-2.2189 -4.631946,-3.43929 -7.988026,-3.43929 -6.046492,0 -10.539756,4.18817 -10.539756,10.04051 0,5.85233 4.493264,10.0405 10.51202,10.0405 z"
         style="font-weight:bold;font-family:Montserrat;-inkscape-font-specification:'Montserrat Bold'"
         id="path203871" />
      <path
         d="m -1.2993327,193.58668 c 6.1019641,0 10.6229647,-4.24364 10.6229647,-10.0405 0,-5.79687 -4.5210006,-10.04051 -10.6229647,-10.04051 -6.1297003,0 -10.6229643,4.27138 -10.6229643,10.04051 0,5.76912 4.493264,10.0405 10.6229643,10.0405 z m 0,-3.8276 c -3.467025,0 -6.0742279,-2.52399 -6.0742279,-6.2129 0,-3.68892 2.6072029,-6.21291 6.0742279,-6.21291 3.467025,0 6.0742279,2.52399 6.0742279,6.21291 0,3.68891 -2.6072029,6.2129 -6.0742279,6.2129 z"
         style="font-weight:bold;font-family:Montserrat;-inkscape-font-specification:'Montserrat Bold'"
         id="path203873" />
      <path
         d="m 26.076291,173.8385 v 11.78789 L 16.424094,173.8385 h -3.716651 v 19.41535 h 4.437792 v -11.78789 l 9.679934,11.78789 h 3.688915 V 173.8385 Z"
         style="font-weight:bold;font-family:Montserrat;-inkscape-font-specification:'Montserrat Bold'"
         id="path203875" />
      <path
         d="m 49.790705,177.44421 v -3.60571 h -14.67245 v 19.41535 h 4.493265 v -7.07274 h 8.986529 v -3.6057 H 39.61152 v -5.1312 z"
         style="font-weight:bold;font-family:Montserrat;-inkscape-font-specification:'Montserrat Bold'"
         id="path203877" />
      <path
         d="m 52.84169,193.25385 h 4.493264 V 173.8385 H 52.84169 Z"
         style="font-weight:bold;font-family:Montserrat;-inkscape-font-specification:'Montserrat Bold'"
         id="path203879" />
      <path
         d="m 61.93914,193.25385 h 8.820112 c 6.35159,0 10.706173,-3.8276 10.706173,-9.70767 0,-5.88008 -4.354583,-9.70768 -10.706173,-9.70768 H 61.93914 Z m 4.493264,-3.68892 v -12.03751 h 4.104958 c 3.855332,0 6.379326,2.3021 6.379326,6.01876 0,3.71665 -2.523994,6.01875 -6.379326,6.01875 z"
         style="font-weight:bold;font-family:Montserrat;-inkscape-font-specification:'Montserrat Bold'"
         id="path203881" />
      <path
         d="m 89.314718,189.64814 v -4.49327 h 9.014265 v -3.49476 h -9.014265 v -4.2159 h 10.206921 v -3.60571 h -14.67245 v 19.41535 H 99.88221 v -3.60571 z"
         style="font-weight:bold;font-family:Montserrat;-inkscape-font-specification:'Montserrat Bold'"
         id="path203883" />
      <path
         d="m 116.82902,173.8385 v 11.78789 l -9.65219,-11.78789 h -3.71666 v 19.41535 h 4.4378 v -11.78789 l 9.67993,11.78789 h 3.68891 V 173.8385 Z"
         style="font-weight:bold;font-family:Montserrat;-inkscape-font-specification:'Montserrat Bold'"
         id="path203885" />
      <path
         d="m 129.89274,193.25385 h 4.49326 v -15.75417 h 6.21291 v -3.66118 h -16.91908 v 3.66118 h 6.21291 z"
         style="font-weight:bold;font-family:Montserrat;-inkscape-font-specification:'Montserrat Bold'"
         id="path203887" />
      <path
         d="m 143.0119,193.25385 h 4.49327 V 173.8385 h -4.49327 z"
         style="font-weight:bold;font-family:Montserrat;-inkscape-font-specification:'Montserrat Bold'"
         id="path203889" />
      <path
         d="m 166.61538,193.25385 h 4.71515 L 162.6491,173.8385 h -4.43779 l -8.6537,19.41535 h 4.60421 l 1.71965,-4.16043 h 9.01426 z m -9.29163,-7.57199 3.07872,-7.4333 3.07872,7.4333 z"
         style="font-weight:bold;font-family:Montserrat;-inkscape-font-specification:'Montserrat Bold'"
         id="path203891" />
      <path
         d="m 173.35525,193.25385 h 14.22868 v -3.66118 h -9.73541 V 173.8385 h -4.49327 z"
         style="font-weight:bold;font-family:Montserrat;-inkscape-font-specification:'Montserrat Bold'"
         id="path203893" />
      <path
         d="m -21.324828,222.27501 c 3.383816,0 6.185172,-1.2204 8.015762,-3.46703 l -2.884565,-2.66267 c -1.303602,1.52549 -2.940037,2.3021 -4.881571,2.3021 -3.633443,0 -6.212909,-2.55173 -6.212909,-6.21291 0,-3.66118 2.579466,-6.21291 6.212909,-6.21291 1.941534,0 3.577969,0.77662 4.881571,2.27437 l 2.884565,-2.66267 c -1.83059,-2.2189 -4.631946,-3.43929 -7.988026,-3.43929 -6.046492,0 -10.539756,4.18816 -10.539756,10.0405 0,5.85234 4.493264,10.04051 10.51202,10.04051 z"
         style="font-weight:bold;font-family:Montserrat;-inkscape-font-specification:'Montserrat Bold'"
         id="path203895" />
      <path
         d="m -1.2993327,222.27501 c 6.1019641,0 10.6229647,-4.24364 10.6229647,-10.04051 0,-5.79687 -4.5210006,-10.0405 -10.6229647,-10.0405 -6.1297003,0 -10.6229643,4.27137 -10.6229643,10.0405 0,5.76913 4.493264,10.04051 10.6229643,10.04051 z m 0,-3.8276 c -3.467025,0 -6.0742279,-2.52399 -6.0742279,-6.21291 0,-3.68891 2.6072029,-6.21291 6.0742279,-6.21291 3.467025,0 6.0742279,2.524 6.0742279,6.21291 0,3.68892 -2.6072029,6.21291 -6.0742279,6.21291 z"
         style="font-weight:bold;font-family:Montserrat;-inkscape-font-specification:'Montserrat Bold'"
         id="path203897" />
      <path
         d="m 26.076291,202.52683 v 11.78789 l -9.652197,-11.78789 h -3.716651 v 19.41534 h 4.437792 v -11.78788 l 9.679934,11.78788 h 3.688915 v -19.41534 z"
         style="font-weight:bold;font-family:Montserrat;-inkscape-font-specification:'Montserrat Bold'"
         id="path203899" />
      <path
         d="m 39.140004,221.94217 h 4.493265 v -15.75416 h 6.212909 v -3.66118 H 32.927095 v 3.66118 h 6.212909 z"
         style="font-weight:bold;font-family:Montserrat;-inkscape-font-specification:'Montserrat Bold'"
         id="path203901" />
      <path
         d="m 65.794393,221.94217 h 4.715154 l -8.681431,-19.41534 h -4.437792 l -8.653694,19.41534 h 4.604209 l 1.719645,-4.16043 h 9.014265 z m -9.291627,-7.57198 3.078718,-7.4333 3.078718,7.4333 z"
         style="font-weight:bold;font-family:Montserrat;-inkscape-font-specification:'Montserrat Bold'"
         id="path203903" />
      <path
         d="M 72.534256,221.94217 H 77.02752 V 202.52683 H 72.534256 Z"
         style="font-weight:bold;font-family:Montserrat;-inkscape-font-specification:'Montserrat Bold'"
         id="path203905" />
      <path
         d="m 95.000554,202.52683 v 11.78789 l -9.652197,-11.78789 h -3.716651 v 19.41534 h 4.437792 v -11.78788 l 9.679934,11.78788 h 3.688915 v -19.41534 z"
         style="font-weight:bold;font-family:Montserrat;-inkscape-font-specification:'Montserrat Bold'"
         id="path203907" />
      <path
         d="m 108.50805,218.33646 v -4.49326 h 9.01427 v -3.49476 h -9.01427 v -4.2159 h 10.20693 v -3.60571 h -14.67245 v 19.41534 h 15.03302 v -3.60571 z"
         style="font-weight:bold;font-family:Montserrat;-inkscape-font-specification:'Montserrat Bold'"
         id="path203909" />
      <path
         d="m 139.84995,221.94217 -4.35459,-6.24064 c 2.524,-1.08172 3.99402,-3.2174 3.99402,-6.1297 0,-4.35459 -3.24514,-7.045 -8.43181,-7.045 h -8.40407 v 19.41534 h 4.49327 v -5.40856 h 3.9108 0.22189 l 3.74439,5.40856 z m -4.90931,-12.37034 c 0,2.10795 -1.38681,3.38381 -4.13269,3.38381 h -3.66118 v -6.76763 h 3.66118 c 2.74588,0 4.13269,1.24813 4.13269,3.38382 z"
         style="font-weight:bold;font-family:Montserrat;-inkscape-font-specification:'Montserrat Bold'"
         id="path203911" />
      <path
         d="m 149.41889,222.27501 c 5.54724,0 8.23765,-2.77362 8.23765,-6.01876 0,-7.1282 -11.28863,-4.65968 -11.28863,-8.23765 0,-1.22039 1.02624,-2.2189 3.68891,-2.2189 1.71965,0 3.57797,0.49925 5.38083,1.52549 l 1.38681,-3.41155 c -1.80286,-1.13718 -4.29911,-1.71964 -6.7399,-1.71964 -5.5195,0 -8.18218,2.74588 -8.18218,6.04649 0,7.21141 11.28864,4.71515 11.28864,8.34859 0,1.19266 -1.08172,2.08022 -3.74439,2.08022 -2.32984,0 -4.77063,-0.83209 -6.40706,-2.02474 l -1.5255,3.38381 c 1.71965,1.33134 4.8261,2.24664 7.90482,2.24664 z"
         style="font-weight:bold;font-family:Montserrat;-inkscape-font-specification:'Montserrat Bold'"
         id="path203913" />
    </g>
    <path
       id="path1449"
       style="fill:#000000;stroke-width:2.26362;stroke-linecap:round;stroke-linejoin:round;stop-color:#000000"
       d="m -71.3875,185.1171 c -0.7664,0 -21.7402,12.1088 -22.1233,12.7725 -0.3833,0.6637 -0.3833,24.882 0,25.5458 0.7662,0 21.74,-12.1088 22.1233,-12.7726 0.3831,-0.6637 0.3831,-24.8822 0,-25.5457 z" />
  </g>
</svg>
