<svg width="185" height="215" viewBox="0 0 185 215" fill="none" xmlns="http://www.w3.org/2000/svg">
<rect width="24.8171" height="24.8171" transform="matrix(-0.86601 0.500028 -3.18907e-05 1 92.074 12.4062)" fill="#A6A6A6"/>
<rect width="24.8171" height="24.8171" transform="matrix(-0.86601 -0.500028 3.18907e-05 1 70.5808 24.8164)" fill="#C9C9C9"/>
<rect width="24.8171" height="24.8171" transform="matrix(-0.866041 0.499972 0.866041 0.499972 70.5808 0)" fill="#E2E2E2"/>
<rect width="24.8171" height="24.8171" transform="matrix(3.19859e-05 1 0.86601 0.500028 49.0859 37.2266)" fill="#C9C9C9"/>
<rect width="24.8171" height="24.8171" transform="matrix(-0.866041 0.499973 0.866041 0.499972 49.0859 62.0391)" fill="#E2E2E2"/>
<rect width="24.8171" height="24.8171" transform="matrix(-3.17834e-05 1 0.866009 -0.500028 27.5948 49.6367)" fill="#A6A6A6"/>
<rect width="24.8171" height="24.8171" transform="matrix(-0.86601 0.500028 -3.19781e-05 1 92.0762 86.8594)" fill="#A6A6A6"/>
<rect width="24.8171" height="24.8171" transform="matrix(-0.866009 -0.500028 3.18033e-05 1 70.583 99.2695)" fill="#C9C9C9"/>
<rect width="24.8171" height="24.8171" transform="matrix(-0.866041 0.499972 0.866041 0.499973 70.583 74.4531)" fill="#E2E2E2"/>
<rect width="24.8171" height="24.8171" transform="matrix(0.86601 -0.500028 3.18907e-05 -1 92.0706 111.688)" fill="#A6A6A6"/>
<rect width="24.8171" height="24.8171" transform="matrix(0.86601 0.500028 -3.18907e-05 -1 113.564 99.2773)" fill="#C9C9C9"/>
<rect width="24.8171" height="24.8171" transform="matrix(0.866041 -0.499972 -0.866041 -0.499972 113.564 124.094)" fill="#E2E2E2"/>
<rect width="24.8171" height="24.8171" transform="matrix(-0.86601 0.500028 -3.19781e-05 1 156.551 49.6328)" fill="#A6A6A6"/>
<rect width="24.8171" height="24.8171" transform="matrix(-0.866009 -0.500028 3.18033e-05 1 135.058 62.043)" fill="#C9C9C9"/>
<rect width="24.8171" height="24.8171" transform="matrix(-0.866041 0.499972 0.866041 0.499973 135.058 37.2266)" fill="#E2E2E2"/>
<rect width="24.8171" height="24.8171" transform="matrix(0.86601 -0.500028 3.18907e-05 -1 92.0723 37.2344)" fill="#A6A6A6"/>
<rect width="24.8171" height="24.8171" transform="matrix(0.86601 0.500028 -3.18907e-05 -1 113.565 24.8242)" fill="#C9C9C9"/>
<rect width="24.8171" height="24.8171" transform="matrix(0.866041 -0.499972 -0.866041 -0.499972 113.565 49.6406)" fill="#E2E2E2"/>
<path d="M26.5455 206.883L12.0223 189.1V206.883H4.01732V166.972H12.0223V184.869L26.5455 166.972H36.2087L19.7413 186.756L36.6661 206.883H26.5455ZM39.873 190.93C39.873 187.728 40.5019 184.888 41.7599 182.411C43.0559 179.933 44.7903 178.027 46.9631 176.693C49.174 175.359 51.6326 174.691 54.3391 174.691C56.7024 174.691 58.7609 175.168 60.5143 176.121C62.3059 177.074 63.7354 178.275 64.8027 179.723V175.206H72.8648V206.883H64.8027V202.251C63.7735 203.738 62.344 204.977 60.5143 205.968C58.7227 206.921 56.6453 207.397 54.2819 207.397C51.6136 207.397 49.174 206.711 46.9631 205.339C44.7903 203.967 43.0559 202.042 41.7599 199.564C40.5019 197.048 39.873 194.17 39.873 190.93ZM64.8027 191.044C64.8027 189.1 64.4215 187.442 63.6591 186.07C62.8968 184.66 61.8675 183.592 60.5715 182.868C59.2755 182.106 57.8841 181.724 56.3975 181.724C54.9109 181.724 53.5386 182.087 52.2807 182.811C51.0227 183.535 49.9935 184.602 49.193 186.013C48.4307 187.385 48.0495 189.024 48.0495 190.93C48.0495 192.836 48.4307 194.513 49.193 195.962C49.9935 197.372 51.0227 198.459 52.2807 199.221C53.5767 199.983 54.949 200.364 56.3975 200.364C57.8841 200.364 59.2755 200.002 60.5715 199.278C61.8675 198.516 62.8968 197.448 63.6591 196.076C64.4215 194.666 64.8027 192.989 64.8027 191.044ZM84.7427 171.432C83.3323 171.432 82.1506 170.994 81.1977 170.117C80.2828 169.202 79.8254 168.078 79.8254 166.744C79.8254 165.41 80.2828 164.304 81.1977 163.427C82.1506 162.513 83.3323 162.055 84.7427 162.055C86.1531 162.055 87.3157 162.513 88.2306 163.427C89.1836 164.304 89.66 165.41 89.66 166.744C89.66 168.078 89.1836 169.202 88.2306 170.117C87.3157 170.994 86.1531 171.432 84.7427 171.432ZM88.688 175.206V206.883H80.6831V175.206H88.688ZM104.602 180.123C105.631 178.446 106.965 177.131 108.604 176.178C110.282 175.225 112.188 174.749 114.322 174.749V183.154H112.207C109.691 183.154 107.785 183.745 106.489 184.926C105.231 186.108 104.602 188.166 104.602 191.102V206.883H96.5969V175.206H104.602V180.123ZM133.78 207.397C130.73 207.397 127.986 206.73 125.546 205.396C123.106 204.024 121.181 202.099 119.771 199.621C118.399 197.143 117.713 194.285 117.713 191.044C117.713 187.804 118.418 184.945 119.828 182.468C121.277 179.99 123.24 178.084 125.718 176.75C128.195 175.378 130.959 174.691 134.008 174.691C137.058 174.691 139.822 175.378 142.299 176.75C144.777 178.084 146.721 179.99 148.131 182.468C149.58 184.945 150.304 187.804 150.304 191.044C150.304 194.285 149.561 197.143 148.074 199.621C146.626 202.099 144.644 204.024 142.128 205.396C139.65 206.73 136.867 207.397 133.78 207.397ZM133.78 200.422C135.228 200.422 136.581 200.079 137.839 199.392C139.135 198.668 140.165 197.601 140.927 196.19C141.689 194.78 142.071 193.065 142.071 191.044C142.071 188.033 141.27 185.727 139.669 184.126C138.106 182.487 136.181 181.667 133.894 181.667C131.607 181.667 129.682 182.487 128.119 184.126C126.594 185.727 125.832 188.033 125.832 191.044C125.832 194.056 126.575 196.381 128.062 198.02C129.587 199.621 131.493 200.422 133.78 200.422ZM168.298 207.397C165.706 207.397 163.381 206.94 161.322 206.025C159.264 205.072 157.625 203.795 156.405 202.194C155.223 200.593 154.575 198.821 154.461 196.877H162.523C162.675 198.096 163.266 199.107 164.295 199.907C165.363 200.708 166.678 201.108 168.241 201.108C169.766 201.108 170.947 200.803 171.786 200.193C172.663 199.583 173.101 198.802 173.101 197.849C173.101 196.819 172.567 196.057 171.5 195.562C170.471 195.028 168.813 194.456 166.525 193.846C164.162 193.274 162.218 192.684 160.693 192.074C159.207 191.464 157.911 190.53 156.805 189.272C155.738 188.014 155.204 186.318 155.204 184.183C155.204 182.43 155.7 180.829 156.691 179.38C157.72 177.932 159.169 176.788 161.036 175.949C162.942 175.111 165.172 174.691 167.726 174.691C171.5 174.691 174.511 175.644 176.76 177.55C179.009 179.418 180.248 181.953 180.477 185.155H172.815C172.701 183.897 172.167 182.906 171.214 182.182C170.299 181.419 169.06 181.038 167.497 181.038C166.049 181.038 164.924 181.305 164.124 181.839C163.362 182.372 162.98 183.116 162.98 184.069C162.98 185.136 163.514 185.956 164.581 186.527C165.649 187.061 167.307 187.614 169.556 188.186C171.843 188.757 173.73 189.348 175.217 189.958C176.703 190.568 177.98 191.521 179.047 192.817C180.153 194.075 180.725 195.752 180.763 197.849C180.763 199.678 180.248 201.317 179.219 202.766C178.228 204.214 176.779 205.358 174.873 206.197C173.006 206.997 170.814 207.397 168.298 207.397Z" fill="black"/>
</svg>
