<svg xmlns="http://www.w3.org/2000/svg" role="img" viewBox="6.75 6.25 401.00 455.00"><path d="M71.13675 338.16704v32.93176c-.14692 5.14716 2.32946 9.91254 6.59436 12.72681 4.18438 2.8797 9.0874 4.31812 13.9856 4.31714 4.88494 0 9.76556-1.43158 13.91765-4.2898 4.2732-2.79864 6.83118-7.70953 6.67786-12.74829v-32.93762h-11.94806l.00098 33.27838c.0454 1.5683-.76904 3.03308-2.11902 3.81818-4.01398 2.31824-9.00049 2.31824-13.0232-.00488-1.36468-.77924-2.18395-2.2411-2.13757-3.87775v-33.21393h-11.9486zM28.106 365.916l5.753-6.55 21.065 27.521h14.87L41.891 350.07l26.126-29.597H53.241l-25.135 28.73v-28.73H15.729v66.429h12.377v-20.986zm92.65153-49.90106v70.88666h15.90345c.04101.00098.08105.00098.12207.00098 9.21923 0 16.14306-2.23914 20.57934-6.65491 4.45679-4.43628 6.71655-10.92224 6.71655-19.27234.00733-2.80408-.3584-5.59882-1.08593-8.30371-.72315-2.70203-1.854-5.26782-3.36939-7.63928-1.64844-2.53742-3.9486-4.5954-6.64428-5.9474-2.97046-1.50481-6.28772-2.25768-9.63184-2.19128-3.61157.07618-7.17822.60541-10.64136 1.57654v-22.45526h-11.9486zm11.97498 33.5196c3.4065-1.08637 6.94482-1.59022 10.53552-1.49647l.08826.00196.08838-.00489c2.57177-.1372 4.97387 1.15229 6.28442 3.3802 1.66443 2.79327 2.51392 5.9884 2.45679 9.26116-.04102 5.42352-1.2201 9.33252-3.50513 11.61658-2.27856 2.28015-6.27942 3.4353-11.89038 3.4353h-4.08227l.0244-26.19385zm79.88708 15.64367c-.00683-12.9226-3.60583-28.32654-20.62585-28.32507-6.37354-.25244-12.4524 2.33728-16.69238 7.09527-4.1272 4.6316-6.22132 10.85102-6.22425 18.4878-.04638 3.284.4253 6.53772 1.412 9.7055.98925 3.00958 2.52428 5.76233 4.57201 8.19483 2.19959 2.57995 5.0315 4.59643 8.18555 5.82977 3.47644 1.36712 7.12415 2.05847 10.82129 2.05847.2207 0 .4419-.00195.66308-.00781 4.95911-.02735 9.81678-.94916 14.438-2.73908l1.41552-.54785v-11.79816l-3.08716 1.3222c-4.28442 1.83387-9.01611 2.7176-13.73852 2.59065h-.042c-4.22485 0-7.23107-1.1435-9.20459-3.51252-1.52783-1.7948-2.58728-3.88452-3.12524-6.13732h31.23352l-.00098-2.21668zm-30.93676-7.87701c.562-2.30848 1.68737-4.46949 3.27527-6.24573 1.7616-1.9613 4.26098-3.07208 6.91943-3.03058l.06933.00098.06885-.00342c2.354-.12305 4.52222.96625 5.8147 2.8421 1.27295 1.9613 2.15955 4.1521 2.61499 6.43665h-18.76257zM341.648 338.167h-12.649l15.352 48.735h12.271l7.669-27.927 7.76 27.927h11.784l15.29-48.735h-12.626l-8.537 29.352-8.502-29.352h-10.744l-8.61 29.34-8.458-29.34zm-59.29305 4.56913c-4.95179 5.22235-7.57386 12.05988-7.38294 19.25379.19092 7.18219 3.16297 13.8615 8.36926 18.81048 4.7179 4.75067 11.18445 7.43122 17.80017 7.43122.27442 0 .5503-.00489.8252-.01368 7.33704-.01757 14.44067-3.08087 19.48926-8.40478 10.22192-10.78064 9.76794-27.86713-1.0122-38.08917-10.78114-10.2226-27.8672-9.76856-38.08875 1.01214zm29.77233 30.18872c-5.6145 5.50751-14.6853 5.50751-20.2987.00391-5.073-5.9411-5.073-14.84729 0-20.7884 5.61438-5.5036 14.68518-5.50262 20.2987.00391 5.12134 5.93769 5.12134 14.84241 0 20.78058zm-74.78344-44.5473c.18652-.23682 1.04785-1.0097 4.30932-1.0097h9.1377v-11.24207l-13.04566.00049c-3.51843-.08447-6.99523 1.30414-9.51416 3.823-2.59704 2.65857-3.99194 6.3117-3.82885 9.92474v8.29303h-6.92298v11.19617l6.90882.01416v37.52423h11.96216v-37.56134h11.71325v-11.17322H236.3502v-4.23657c0-3.8714.69482-5.1731.99365-5.55292zM256.163 316.015h11.948v70.887h-11.948zM112.92709 423.89019c0-1.72754-1.47559-2.87891-3.59961-2.87891h-4.7871v5.75879h4.7871c2.12402 0 3.5996-1.15137 3.5996-2.87988zm43.56055 0c0-1.72754-1.47559-2.87891-3.59961-2.87891h-4.78711v5.75879h4.7871c2.12403 0 3.59962-1.15137 3.59962-2.87988z"/><path d="M15.72921 452.945h383.39612v-50.82184H15.72921v50.82183zm291.1637-22.46692c-5.29102-1.18848-9.21484-2.62793-9.21484-7.5957 0-4.75098 3.81543-7.91895 9.43066-7.91895 4.17578 0 7.41504 1.2246 10.04297 3.38379l-3.13184 4.3916c-2.26758-1.72754-4.75097-2.62793-7.05468-2.62793-1.98047 0-3.0957.93652-3.0957 2.16015 0 1.51172 1.1875 2.01563 4.85937 2.80762 5.54297 1.1875 9.10644 2.77149 9.10644 7.41504 0 4.9668-3.7793 8.0625-9.89843 8.0625-4.3916 0-8.38672-1.43945-11.41114-4.13965l3.49219-4.13867c2.41113 1.9795 5.11133 3.13086 8.13477 3.13086 2.3037 0 3.4912-.93555 3.4912-2.26758 0-1.47558-1.15136-1.7998-4.75097-2.66308zm-36.25-15.08204h19.47363v5.50684h-13.31836v3.85156h12.09375v5.50782h-12.09375v4.35546h13.31836v5.50684h-19.47363v-24.72852zm-32.11035 0h6.15527l10.79883 14.61426v-14.61426h6.11914v24.72852h-6.11914l-10.79883-14.61426v14.61426h-6.15527v-24.72852zm-15.15625 0h6.15527v24.72852h-6.15527v-24.72852zm-25.41602 0h6.15528v19.22168h11.91406v5.50684h-18.06934v-24.72852zm-27.61133 0h19.47364v5.50684h-13.31836v3.85156h12.09375v5.50782h-12.09375v4.35546h13.31836v5.50684h-19.47364v-24.72852zm-28.40332 0h11.48243c5.47168 0 9.39453 3.49122 9.39453 8.49415 0 5.0039-3.92285 8.49511-9.39453 8.49511h-5.32715v7.73926h-6.15528v-24.72852zm-15.15625 0h6.15528v24.72852h-6.15528v-24.72852zm-28.4043 0h11.48243c5.47168 0 9.39453 3.49122 9.39453 8.49415 0 5.0039-3.92285 8.49511-9.39453 8.49511h-5.32715v7.73926H98.3851v-24.72852zM65.33237 203.98693l70.3285 87.45208c3.68786 4.58313 9.27868 7.25183 15.19079 7.25074l112.78662-.02466c5.91016.00409 11.50073-2.65985 15.19092-7.2384l70.30371-87.46436c3.68628-4.58368 5.06812-10.58228 3.75476-16.29883L327.78707 78.59471c-1.31945-5.7127-5.1886-10.51934-10.51281-13.06115L215.65304 16.99425c-2.93445-1.40173-6.17688-2.04944-9.42956-1.88354-2.58106.13525-5.1089.77978-7.43555 1.89587L97.16677 65.54588c-5.32733 2.54432-9.19671 7.35615-10.51294 13.0735L61.59018 187.67594c-1.1731 5.07874-.22278 10.41217 2.6344 14.7846a19.2751 19.2751 0 0 0 1.10778 1.52638zm116.76075 53.6657c-10.12769 0-18.36744-8.23974-18.36744-18.36736s8.23975-18.36737 18.36743-18.36737 18.36744 8.23974 18.36744 18.36737-8.23975 18.36737-18.36743 18.36737zm90.48437 0c-10.12756 0-18.36731-8.23974-18.36731-18.36736s8.23975-18.36737 18.36731-18.36737c10.12769 0 18.36743 8.23974 18.36743 18.36737s-8.23974 18.36737-18.36743 18.36737zm-11.79785-82.65453c9.3545 6.76953 14.29883 17.20605 14.29883 30.18066v5.0268l7.38086-7.04047 4.14062 4.3418-14.01758 13.37255-14.02734-13.37353 4.14062-4.34278 7.38282 7.03962v-5.02399c0-11.46582-4.11524-20.25684-12.23047-26.12988l-17.25427-12.48609c-3.34607 3.49756-8.04651 5.68921-13.25745 5.68921-5.2107 0-9.91089-2.1914-13.25708-5.68878l-17.25366 12.48566c-7.6582 5.54199-12.23047 14.31006-12.23047 23.4541v7.70355l7.38183-7.04144 4.14063 4.3418-14.01758 13.37255-14.02734-13.37353 4.14062-4.34278 7.38184 7.0387v-7.69885c0-10.74317 5.3457-21.0254 14.29883-27.50488l17.24145-12.47681c-1.37915-2.5766-2.1665-5.51556-2.1665-8.63666 0-10.12762 8.23987-18.36737 18.36743-18.36737 10.12768 0 18.36743 8.23975 18.36743 18.36737 0 3.12085-.78735 6.05963-2.16626 8.63611l17.24219 12.47736zm-133.8086-57.20313l7.38184 7.0387v-7.69886c0-10.74267 5.3457-21.0249 14.29883-27.50439l17.24097-12.47675c-1.3794-2.57678-2.16687-5.51599-2.16687-8.63732 0-10.12763 8.23974-18.36738 18.3673-18.36738 10.1277 0 18.36744 8.23975 18.36744 18.36738 0 3.12078-.78723 6.05944-2.16614 8.63586l17.24304 12.47821c9.3545 6.76953 14.29883 17.20605 14.29883 30.18066v5.02631l7.38086-7.04047 4.14062 4.3418-14.01757 13.37256-14.02735-13.37354 4.14063-4.34277 7.3828 7.03961v-5.0235c0-11.46582-4.11523-20.25683-12.23046-26.12988l-17.25513-12.48694c-3.34619 3.49768-8.04638 5.68946-13.25757 5.68946-5.21044 0-9.9104-2.19117-13.25634-5.68818L151.58334 93.6812c-7.6582 5.542-12.23047 14.30957-12.23047 23.45361v7.70356l7.38184-7.04145 4.14062 4.3418-14.01758 13.37256-14.02734-13.37354 4.14062-4.34277zm9.88208 17.72192c10.12757 0 18.36731 8.23975 18.36731 18.36737s-8.23974 18.36738-18.3673 18.36738c-10.1277 0-18.36744-8.23975-18.36744-18.36738s8.23975-18.36737 18.36743-18.36737z"/><circle cx="227.336" cy="153.885" r="14.021"/><path d="M136.85311 167.90532c7.74366 0 14.021-6.27746 14.021-14.02112s-6.27734-14.02111-14.021-14.02111-14.02124 6.27746-14.02124 14.02111 6.2776 14.02112 14.02124 14.02112z"/><circle cx="182.093" cy="68.516" r="14.045" transform="rotate(-22.5 182.093 68.516)"/><circle cx="272.577" cy="239.285" r="14.045"/><circle cx="182.093" cy="239.285" r="14.045"/></svg>