<svg xmlns="http://www.w3.org/2000/svg" role="img" viewBox="6.10 10.85 345.80 334.30"><defs><style>.cls-1{fill:#fff}</style></defs><path d="M115.093 338.742l-1.852-.08a14.868 14.868 0 001.852.08z" class="cls-1"/><path d="M345.188 212.876L316.402 88.704c-.188-.752-.564-1.505-.752-2.257a23.645 23.645 0 00-5.08-7.15l-.128.253c-.02-.02-.04-.044-.06-.065a19.938 19.938 0 00-2.258-1.88 20.626 20.626 0 00-3.95-2.635l-115.896-55.5-1.129-.565a12.172 12.172 0 00-2.446-.752c-.176-.044-.38-.06-.572-.088-.628-.093-1.297-.144-1.873-.288a22.765 22.765 0 00-3.575-.189 47.945 47.945 0 00-7.337.377 9.442 9.442 0 00-2.258.376L53.383 74.218c-.275.103-.538.23-.8.357a13.604 13.604 0 00-2.246 1.373c-.314.234-.616.474-.905.715-.114.092-.217.192-.329.284l-.131.114-.046-.092-.015-.031-.043-.087a20.05 20.05 0 00-7.15 11.477L13.31 213.253a21.458 21.458 0 00-.376 4.891 11.571 11.571 0 00.188 2.446 26.875 26.875 0 004.327 11.1l42.961 53.25 10.282 12.789 26.716 33.112a29.802 29.802 0 0012.04 6.961h.003a19.7 19.7 0 003.196.753c.753 0 1.693.188 2.446.188h127.935a39.614 39.614 0 004.703-.376 19.25 19.25 0 0012.794-7.526l59.828-73.939 20.32-25.21a26.421 26.421 0 003.762-8.09v-.001a3.981 3.981 0 01.125-.774c.007-.034.015-.068.021-.103.007-.042.017-.084.021-.126.005-.042.021-.083.021-.125a25.544 25.544 0 00.737-6.98c-.017-.86-.068-1.73-.172-2.616zM257.31 184.11l-.015.016a9.548 9.548 0 01-11.07 2.035 9.408 9.408 0 01-4.327-12.606l13.358-26.904v-.188a8.937 8.937 0 012.174-2.866 9.55 9.55 0 0110.431-1.273 9.182 9.182 0 014.14 12.606l-3.86 7.815-.096.195-3.57 7.229-5.644 11.853a9.875 9.875 0 01-1.521 2.088zm-13.154 26.32l-3.387 6.586-9.783 20.319a9.871 9.871 0 01-1.72 2.299c-.055.055-.116.105-.173.16a9.617 9.617 0 01-2.668 1.798 9.43 9.43 0 01-12.372-12.724l13.358-26.904a9.564 9.564 0 0112.606-4.139 9.453 9.453 0 014.75 10.948c-.034.128-.077.256-.118.383a9.697 9.697 0 01-.493 1.275zm-36.53 71.727a9.5 9.5 0 01-10.06 2.183 9.918 9.918 0 01-.821-.347 9.408 9.408 0 01-4.328-12.605l6.773-13.546a9.495 9.495 0 015.65-4.406 9.365 9.365 0 0111.46 11.769l-.007.021c-.056.173-.104.346-.17.518-.188.188-.188.188-.188.376l-6.585 13.734a9.88 9.88 0 01-1.524 2.092c-.067.07-.131.143-.2.211zm2.259-131.743a9.218 9.218 0 01-2.605-.94 9.766 9.766 0 01-3.95-12.794l16.556-31.608h5.832a8.739 8.739 0 014.327 1.13 9.426 9.426 0 013.951 12.793l-14.11 26.528a9.24 9.24 0 01-10.001 4.89zm77.355-25.21l-.94 2.633-.19.189a9.5 9.5 0 01-1.197 1.62l-.005.006a9.524 9.524 0 01-5.006 2.889c-.072.016-.145.022-.217.037a9.46 9.46 0 01-11.071-7.186h-11.288a9.407 9.407 0 110-18.814h39.32l-8.918 17.658zM188.279 164.9a9.468 9.468 0 1116.745 8.843l-14.11 26.527a9.366 9.366 0 01-16.99-.714 9.954 9.954 0 01.245-8.128zm-86.747 17.726L63.731 105.45h76.196l.102.188 30.377 56.254-10.348 19.378-.376.188-30.855-57.194H95.15l53.055 112.695 7.526-14.298a9.484 9.484 0 0117.442 1.648c.018.056.03.114.046.171.048.18.098.358.136.54a9.317 9.317 0 01-.88 6.483l-13.734 25.776-10.487 19.476-.049.09-.188.376-.026-.054-29.068-59.113-10.039-20.416-5.881-12.008z" class="cls-1"/></svg>