<?xml version="1.0" encoding="utf-8"?>
<!-- Generator: Adobe Illustrator 21.1.0, SVG Export Plug-In . SVG Version: 6.00 Build 0)  -->
<svg version="1.1" id="Layer_1" xmlns="http://www.w3.org/2000/svg" xmlns:xlink="http://www.w3.org/1999/xlink" x="0px" y="0px"
	 viewBox="0 0 792 340.5" style="enable-background:new 0 0 792 340.5;" xml:space="preserve">
<style type="text/css">
	.st0{opacity:0.8;}
	.st1{clip-path:url(#SVGID_2_);fill:#231F20;}
	.st2{clip-path:url(#SVGID_4_);fill:#231F20;}
	.st3{fill:#231F20;}
	.st4{fill-rule:evenodd;clip-rule:evenodd;fill:#231F20;}
	.st5{opacity:0.8;fill:#231F20;}
	.st6{clip-path:url(#SVGID_6_);fill:#231F20;}
</style>
<g class="st0">
	<g>
		<defs>
			<rect id="SVGID_1_" x="537.5" y="310.9" width="246.6" height="1.3"/>
		</defs>
		<use xlink:href="#SVGID_1_"  style="overflow:visible;fill:#231F20;"/>
		<clipPath id="SVGID_2_">
			<use xlink:href="#SVGID_1_"  style="overflow:visible;"/>
		</clipPath>
		<rect x="537.5" y="310.9" class="st1" width="246.6" height="1.3"/>
	</g>
</g>
<g class="st0">
	<g>
		<defs>
			<rect id="SVGID_3_" x="7.1" y="310.9" width="241.1" height="1.3"/>
		</defs>
		<use xlink:href="#SVGID_3_"  style="overflow:visible;fill:#231F20;"/>
		<clipPath id="SVGID_4_">
			<use xlink:href="#SVGID_3_"  style="overflow:visible;"/>
		</clipPath>
		<rect x="7.1" y="310.9" class="st2" width="241.1" height="1.3"/>
	</g>
</g>
<path class="st3" d="M225.3,225.3c1.3-0.4,3-0.7,5.1-1.1c2.1-0.3,4.3-0.5,6.6-0.5c2.3,0,4.3,0.3,5.8,0.9c1.6,0.6,2.8,1.5,3.7,2.6
	c0.9,1.1,1.6,2.4,1.9,4c0.4,1.5,0.6,3.3,0.6,5.1V252h-7.8v-14.6c0-2.5-0.3-4.3-1-5.3c-0.7-1-1.9-1.6-3.7-1.6c-0.6,0-1.2,0-1.8,0.1
	c-0.6,0.1-1.2,0.1-1.7,0.2V252h-7.8V225.3z M210.8,238.1c0-2.4-0.5-4.3-1.4-5.7c-1-1.4-2.3-2.1-4.1-2.1s-3.2,0.7-4.1,2.1
	c-1,1.4-1.5,3.3-1.5,5.7s0.5,4.3,1.5,5.7s2.4,2.1,4.1,2.1s3.2-0.7,4.1-2.1C210.4,242.5,210.8,240.5,210.8,238.1 M218.8,238.1
	c0,2.2-0.3,4.2-0.9,6c-0.6,1.8-1.5,3.3-2.7,4.6c-1.2,1.3-2.6,2.3-4.3,3c-1.7,0.7-3.5,1-5.6,1c-2,0-3.9-0.3-5.5-1
	c-1.7-0.7-3.1-1.7-4.3-3c-1.2-1.3-2.1-2.8-2.8-4.6c-0.7-1.8-1-3.8-1-6c0-2.2,0.3-4.1,1-5.9c0.7-1.8,1.6-3.3,2.8-4.6
	c1.2-1.3,2.6-2.2,4.3-2.9c1.7-0.7,3.5-1,5.4-1c2,0,3.8,0.3,5.5,1c1.7,0.7,3.1,1.7,4.3,2.9c1.2,1.3,2.1,2.8,2.8,4.6
	C218.5,234,218.8,236,218.8,238.1 M176.3,252.7c-5.9,0-10.4-1.6-13.5-4.9c-3.1-3.3-4.6-8-4.6-14c0-3,0.5-5.7,1.4-8
	c0.9-2.4,2.2-4.4,3.9-6c1.6-1.6,3.6-2.9,5.9-3.7c2.3-0.8,4.7-1.3,7.4-1.3c1.5,0,2.9,0.1,4.2,0.3c1.3,0.2,2.4,0.5,3.3,0.8
	c0.9,0.3,1.7,0.6,2.4,0.9c0.6,0.3,1.1,0.6,1.4,0.7l-2.4,6.6c-1.1-0.6-2.4-1.1-3.9-1.5c-1.5-0.4-3.2-0.6-5.1-0.6
	c-1.3,0-2.5,0.2-3.7,0.6c-1.2,0.4-2.3,1.1-3.2,2c-0.9,0.9-1.7,2.1-2.2,3.6c-0.6,1.5-0.8,3.3-0.8,5.3c0,1.7,0.2,3.2,0.6,4.7
	c0.4,1.5,1,2.7,1.8,3.7c0.8,1,1.9,1.9,3.2,2.5c1.3,0.6,2.9,0.9,4.8,0.9c1.2,0,2.3-0.1,3.2-0.2c0.9-0.1,1.8-0.3,2.5-0.5
	c0.7-0.2,1.4-0.4,1.9-0.7c0.6-0.2,1.1-0.5,1.5-0.7l2.3,6.6c-1.2,0.7-2.8,1.3-4.9,1.9C181.5,252.4,179.1,252.7,176.3,252.7
	 M145.2,235.4c0-0.7-0.1-1.3-0.3-1.9c-0.2-0.6-0.5-1.2-0.9-1.7c-0.4-0.5-0.9-0.9-1.5-1.2c-0.6-0.3-1.4-0.5-2.3-0.5
	c-0.9,0-1.6,0.1-2.3,0.4c-0.6,0.3-1.2,0.7-1.6,1.2c-0.4,0.5-0.7,1.1-1,1.7c-0.2,0.6-0.4,1.3-0.5,2H145.2z M126.9,238.4
	c0-2.4,0.4-4.6,1.1-6.4c0.8-1.8,1.7-3.4,3-4.6c1.2-1.2,2.6-2.2,4.2-2.8c1.6-0.6,3.2-0.9,4.9-0.9c3.9,0,7,1.2,9.3,3.6
	c2.3,2.4,3.4,5.9,3.4,10.6c0,0.5,0,1-0.1,1.5c0,0.5-0.1,1-0.1,1.4h-17.7c0.2,1.6,0.9,2.9,2.3,3.8c1.3,0.9,3.1,1.4,5.3,1.4
	c1.4,0,2.8-0.1,4.2-0.4c1.4-0.3,2.5-0.6,3.4-1l1,6.3c-0.4,0.2-1,0.4-1.7,0.6c-0.7,0.2-1.5,0.4-2.3,0.6c-0.9,0.2-1.8,0.3-2.8,0.4
	c-1,0.1-2,0.2-2.9,0.2c-2.5,0-4.6-0.4-6.5-1.1c-1.8-0.7-3.4-1.7-4.6-3c-1.2-1.3-2.1-2.8-2.7-4.5
	C127.2,242.3,126.9,240.4,126.9,238.4 M121.8,238.2c0,2.2-0.3,4.2-1,6c-0.6,1.8-1.6,3.3-2.8,4.6c-1.2,1.3-2.7,2.2-4.5,2.9
	c-1.8,0.7-3.8,1-6.1,1c-0.9,0-1.9,0-3-0.1c-1-0.1-2-0.2-3-0.3c-1-0.1-1.9-0.3-2.9-0.5c-0.9-0.2-1.7-0.4-2.4-0.6v-38.5l7.8-1.3V225
	c0.9-0.4,1.8-0.7,2.7-0.9c0.9-0.2,2-0.3,3-0.3c2,0,3.7,0.3,5.2,1c1.5,0.7,2.8,1.7,3.8,2.9c1,1.3,1.8,2.8,2.3,4.5
	C121.5,234.1,121.8,236,121.8,238.2 M113.8,238c0-5-1.9-7.6-5.6-7.6c-0.8,0-1.6,0.1-2.4,0.3c-0.8,0.2-1.4,0.5-1.9,0.8v14.2
	c0.4,0.1,0.9,0.1,1.5,0.2c0.6,0.1,1.2,0.1,1.9,0.1c2.1,0,3.7-0.7,4.8-2.2C113.2,242.3,113.8,240.4,113.8,238 M88.4,251
	c-1.3,0.4-3,0.7-5.1,1.1c-2.1,0.3-4.3,0.5-6.6,0.5c-2.3,0-4.3-0.3-5.8-0.9c-1.6-0.6-2.8-1.5-3.7-2.6c-0.9-1.1-1.6-2.5-1.9-4.1
	c-0.4-1.6-0.6-3.3-0.6-5.2v-15.4h7.8v14.4c0,2.5,0.3,4.3,1,5.5c0.7,1.1,1.9,1.7,3.7,1.7c0.6,0,1.2,0,1.8-0.1
	c0.6-0.1,1.2-0.1,1.7-0.2v-21.3h7.8V251z M52.3,252c-0.7-1.2-1.6-2.5-2.6-3.9s-2.1-2.8-3.3-4.1c-1.2-1.4-2.4-2.7-3.6-4
	c-1.3-1.3-2.5-2.4-3.8-3.4V252h-8.2v-36.3H39v13.7c2.1-2.2,4.3-4.6,6.4-7c2.1-2.4,4.2-4.7,6-6.7h9.7c-2.5,2.9-5,5.8-7.5,8.5
	c-2.5,2.7-5.1,5.5-7.9,8.2c2.9,2.4,5.7,5.3,8.4,8.6c2.7,3.3,5.3,7,7.8,11H52.3z"/>
<path class="st4" d="M117.9,91.6l-4.5,1c0-0.6-0.1-1.3-0.1-1.9c0-4.8,1.3-9.5,3.8-13.6l8.8,7.8c0.2,0.1,0.3,0.3,0.5,0.4
	c-0.5,1.3-0.9,2.7-1,4.2c-0.3,0.1-0.6,0.2-0.9,0.2L117.9,91.6z M135,64.9v12.4c-1.2,0.4-2.4,1-3.4,1.7c-0.4-0.3-0.8-0.6-1.2-0.9
	l-8.9-6.3C125.2,68.2,129.9,65.8,135,64.9 M73.6,93.4c4.3-18.8,7.9-34.7,12.2-53.5c1.9-8.5,3.2-10.7,10.8-15.1
	c10.6-6.1,18.5-10.6,29.9-17.2c7.1-4.1,8.4-3.8,8.4,4.9v43.6c-7.9,1-15.2,4.7-20.7,10.5l-3.8-2.7c-0.5-0.3-0.7-0.7-0.9-1.2
	c-0.5-1.3-0.8-2.1-2-3c-1.8-1.4-4.4-1.1-5.8,0.7c-1.4,1.8-1.1,4.4,0.7,5.8c0.6,0.5,1.3,0.9,2.1,1.1c0.5,0.1,1,0.2,1.5,0.2
	c0.5,0.1,0.8,0.2,1.1,0.5l3.5,3.2c-3.9,5.8-5.9,12.5-5.9,19.5c0,1.2,0.1,2.5,0.2,3.7L97.2,96c-0.5,0-1,0-1.6,0.1
	c-0.4,0.1-0.8,0.2-1.1,0.4c-5,1.1-10.1,2.2-15.2,3.3C72.3,101.4,72.1,100,73.6,93.4 M143.9,77.2V64.9c5.1,0.9,9.7,3.2,13.5,6.8
	l-9.7,6.9c-0.1,0.1-0.3,0.2-0.4,0.3C146.2,78.2,145.1,77.6,143.9,77.2 M165.6,91.8L153.5,89c-0.2-1.3-0.5-2.6-1-3.8
	c0.1-0.1,0.2-0.2,0.3-0.3l8.9-8c2.6,4.1,3.9,8.9,3.9,13.7C165.6,91,165.6,91.4,165.6,91.8 M149.8,25.1c6.5,3.1,11.3,5.4,17.8,8.6
	c9.1,4.4,18.2,8.8,27.3,13.1c2.2,9.8,4.5,19.7,6.7,29.5c1.3,5.9,2.1,9,3.4,14.9c2.1,9.2,1.9,10-7.6,7.8l-23.3-5.3
	c0.1-1,0.1-2,0.1-3.1c0-7-2.1-13.8-6-19.6l3.3-3c0.4-0.4,0.8-0.5,1.4-0.6c1.4-0.2,2.2-0.4,3.4-1.3c1.8-1.4,2.1-4,0.7-5.8
	c-1.4-1.8-4-2.1-5.8-0.7c-0.6,0.5-1.1,1.1-1.5,1.8c-0.2,0.5-0.4,0.9-0.6,1.4c-0.2,0.4-0.4,0.7-0.8,1l-3.8,2.7
	c-5.5-5.8-12.8-9.4-20.6-10.4V29.5C143.9,23.3,144.5,22.5,149.8,25.1 M141.8,104.5c-0.8,0.1-1.6,0.2-2.4,0.2c-0.8,0-1.5-0.1-2.2-0.2
	c-0.1,0.3-0.3,0.5-0.4,0.8l-5.6,10.2c2.7,0.9,5.5,1.3,8.3,1.3c2.9,0,5.7-0.5,8.4-1.4l-5.5-10C142.1,105.1,142,104.8,141.8,104.5
	 M151.6,97.7l12.1,2.8c-2,4.9-5.4,9-9.8,11.9l-4.8-11.6C150.1,100,150.9,98.9,151.6,97.7 M115.2,100.5l12.1-2.8
	c0.7,1.2,1.6,2.3,2.6,3.2c-0.1,0.3-0.2,0.5-0.3,0.8l-4.5,10.8C120.7,109.6,117.2,105.4,115.2,100.5 M214.2,121.7
	c-5.8,7.2-8.4,10.5-14.2,17.8c-6.6,8.2-11.9,14.9-18.4,23.1c-4.7,5.9-8,6.1-15.8,6.1h-26.4h-26.5c-10.1,0-10.8,0-17-7.8
	c-6.1-7.7-10.9-13.7-17.1-21.4c-4.8-6-6-7.6-10.8-13.6c-7.5-9.4-8.7-12.7,2.9-15.3l35.8-8.2c2.7,7.6,8.1,14.1,15,18.2l-1.6,3.8
	c-0.2,0.6-0.5,0.8-1,1.2c-1.2,0.8-1.8,1.3-2.5,2.6c-1,2.1-0.1,4.5,1.9,5.5c2.1,1,4.5,0.1,5.5-1.9c0.3-0.7,0.5-1.4,0.6-2.2
	c0-0.5-0.1-1-0.1-1.5c0-0.5,0-0.8,0.3-1.2l2-3.7c4,1.5,8.2,2.3,12.5,2.3c4.3,0,8.6-0.8,12.6-2.4l2,3.6c0.3,0.5,0.3,0.9,0.3,1.5
	c-0.1,1.4-0.2,2.2,0.5,3.6c1,2.1,3.5,2.9,5.5,1.9c2.1-1,2.9-3.5,1.9-5.5c-0.3-0.7-0.8-1.3-1.4-1.8c-0.4-0.3-0.8-0.6-1.2-0.9
	c-0.4-0.3-0.6-0.5-0.8-1l-1.7-4c6.9-4.1,12.2-10.5,14.9-18.1l39.5,9C219.3,113.2,218.8,116,214.2,121.7"/>
<path class="st4" d="M143.9,77.2V64.9c5.1,0.9,9.7,3.2,13.5,6.8l-9.7,6.9c-0.1,0.1-0.3,0.2-0.4,0.3
	C146.2,78.2,145.1,77.6,143.9,77.2 M165.6,91.8L153.5,89c-0.2-1.3-0.5-2.6-1-3.8c0.1-0.1,0.2-0.2,0.3-0.3l8.9-8
	c2.6,4.1,3.9,8.9,3.9,13.7C165.6,91,165.6,91.4,165.6,91.8 M149.8,25.1c6.5,3.1,11.3,5.4,17.8,8.6c9.1,4.4,18.2,8.8,27.3,13.1
	c2.2,9.8,4.5,19.7,6.7,29.5c1.3,5.9,2.1,9,3.4,14.9c2.1,9.2,1.9,10-7.6,7.8l-23.3-5.3c0.1-1,0.1-2,0.1-3.1c0-7-2.1-13.8-6-19.6
	l3.3-3c0.4-0.4,0.8-0.5,1.4-0.6c1.4-0.2,2.2-0.4,3.4-1.3c1.8-1.4,2.1-4,0.7-5.8c-1.4-1.8-4-2.1-5.8-0.7c-0.6,0.5-1.1,1.1-1.5,1.8
	c-0.2,0.5-0.4,0.9-0.6,1.4c-0.2,0.4-0.4,0.7-0.8,1l-3.8,2.7c-5.5-5.8-12.8-9.4-20.6-10.4V29.5C143.9,23.3,144.5,22.5,149.8,25.1
	 M151.6,97.7l12.1,2.8c-2,4.9-5.4,9-9.8,11.9l-4.8-11.6C150.1,100,150.9,98.9,151.6,97.7 M139.5,116.8v-12.1c0.8,0,1.6-0.1,2.4-0.2
	c0.2,0.3,0.3,0.6,0.5,0.9l5.5,10C145.1,116.3,142.3,116.8,139.5,116.8 M214.2,121.7c-5.8,7.2-8.4,10.5-14.2,17.8
	c-6.6,8.2-11.9,14.9-18.4,23.1c-4.7,5.9-8,6.1-15.8,6.1h-26.4v-43.2c4.3,0,8.6-0.8,12.6-2.4l2,3.6c0.3,0.5,0.3,0.9,0.3,1.5
	c-0.1,1.4-0.2,2.2,0.5,3.6c1,2.1,3.5,2.9,5.5,1.9c2.1-1,2.9-3.5,1.9-5.5c-0.3-0.7-0.8-1.3-1.4-1.8c-0.4-0.3-0.8-0.6-1.2-0.9
	c-0.4-0.3-0.6-0.5-0.8-1l-1.7-4c6.9-4.1,12.2-10.5,14.9-18.1l39.5,9C219.3,113.2,218.8,116,214.2,121.7"/>
<polygon class="st3" points="506.7,120.2 485.7,120.2 485.7,169.1 534.6,169.1 534.6,148.2 506.7,148.2 "/>
<polygon class="st3" points="611.5,120.4 611.5,148.2 583.7,148.2 583.5,148 583.5,169.1 632.4,169.1 632.4,120.2 611.3,120.2 "/>
<polygon class="st3" points="485.7,71.3 506.9,71.3 506.7,71.2 506.7,43.4 506.7,43.4 534.5,43.4 534.6,43.5 534.6,22.4 485.7,22.4 
	"/>
<polygon class="st3" points="583.5,22.4 583.5,43.4 611.5,43.4 611.5,71.3 632.4,71.3 632.4,22.4 "/>
<polygon class="st5" points="581,71.3 553,43.4 583.5,43.4 583.5,22.4 534.6,22.4 534.6,43.5 562.4,71.3 "/>
<polygon class="st5" points="555.8,120.2 537.2,120.2 560.4,143.4 565.2,148.2 555.6,148.2 534.6,148.2 534.6,169.1 583.5,169.1 
	583.5,148 569.6,134.1 "/>
<polygon class="st5" points="611.5,71.3 611.5,92.3 611.5,101.9 606.7,97.1 583.5,73.9 583.5,92.4 597.4,106.3 611.3,120.2 
	632.4,120.2 632.4,71.3 "/>
<polygon class="st5" points="534.6,99.1 506.9,71.3 485.7,71.3 485.7,120.2 506.7,120.2 506.7,89.7 534.6,117.6 "/>
<path class="st3" d="M383.5,222.5l-5.3,6.3c-2.4-2.9-5.9-4.7-9.1-4.7c-5.7,0-10.1,4.5-10.1,10.5c0,6,4.3,10.6,10.1,10.6
	c3,0,6.5-1.6,9.1-4.2l5.4,5.7c-3.9,4-9.6,6.6-14.9,6.6c-10.9,0-19-8-19-18.6c0-10.4,8.3-18.2,19.3-18.2
	C374.3,216.4,379.9,218.8,383.5,222.5z"/>
<path class="st3" d="M387.9,252.8v-38.2h8.9v38.2H387.9z"/>
<path class="st3" d="M432.2,238.9c0,8.6-6.1,14.2-15.2,14.2c-9.1,0-15.2-5.7-15.2-14.2c0-8.6,6.1-14.2,15.2-14.2
	C426.1,224.7,432.2,230.3,432.2,238.9z M410.8,239c0,4.3,2.5,7.2,6.2,7.2c3.7,0,6.2-2.9,6.2-7.2c0-4.3-2.5-7.2-6.2-7.2
	C413.4,231.7,410.8,234.7,410.8,239z"/>
<path class="st3" d="M464.1,252.8h-8.9v-4.6c-1.9,3.3-5,4.9-9,4.9c-6,0-9.9-4.1-9.9-10.6V225h8.9v15c0,3.3,1.8,5.3,4.6,5.3
	c3.4-0.1,5.4-2.8,5.4-6.6V225h8.9V252.8z"/>
<path class="st3" d="M499.2,252.8h-8.9v-3.7c-2,2.6-4.8,4-8.3,4c-7.8,0-13-5.8-13-14.4c0-8.5,5.1-14.1,12.8-14.1
	c3.7,0,6.6,1.4,8.6,4v-14.1h8.9V252.8z M490.3,239c0-4.3-2.5-7.2-6.2-7.2c-3.7,0-6.2,2.9-6.2,7.2c0.1,4.3,2.5,7.3,6.2,7.3
	C487.8,246.2,490.3,243.2,490.3,239z"/>
<path class="st3" d="M531.8,252.8l-16.6-22.2v22.2h-8.6v-36.1h8.1l16.6,22.3v-22.3h8.6v36.1H531.8z"/>
<path class="st3" d="M571.7,234.6v18.1h-8.7v-3.2c-1.8,2.4-4.7,3.6-8.5,3.6c-5.9,0-9.5-3.6-9.5-8.7c0-5.3,3.8-8.3,10.7-8.4h7.3v-0.4
	c0-2.7-1.8-4.4-5.4-4.4c-2.3,0-5.4,0.8-8.3,2.3l-2.5-5.9c4.3-2,8.2-3.1,12.9-3.1C567.2,224.6,571.6,228.3,571.7,234.6z M562.9,243.3
	v-2.5h-5.6c-2.7,0-4,0.9-4,3c0,2,1.4,3.3,3.9,3.3C560,247.2,562.3,245.6,562.9,243.3z"/>
<path class="st3" d="M595.7,251.3c-2,1.2-4.7,1.9-7.4,1.9c-5.4,0-9.2-3-9.2-8.8v-12.3h-3.9v-5.8h3.9v-7.7h8.9v7.7h7.3v5.9h-7.3V243
	c0,2.2,0.9,3.1,2.6,3c0.9,0,2.1-0.4,3.5-0.9L595.7,251.3z"/>
<path class="st3" d="M609.3,217c0,2.8-2,4.7-4.7,4.7c-2.7,0-4.7-2-4.7-4.7c0-2.7,2-4.7,4.7-4.7C607.4,212.3,609.3,214.3,609.3,217z
	 M600.2,252.8V225h8.9v27.8H600.2z"/>
<path class="st3" d="M622.8,252.8L612.4,225h9.2l6,19.6l6-19.6h8.9L632,252.8H622.8z"/>
<path class="st3" d="M671.8,241.3h-19.5c0.9,3.3,3.2,5.2,6.5,5.2c2.4,0,4.8-1,6.6-2.8l4.7,4.6c-2.8,3.1-7,4.9-12.1,4.9
	c-9.1,0-14.7-5.7-14.7-14.1c0-8.6,5.9-14.3,14.5-14.3C667.6,224.7,672.4,231.1,671.8,241.3z M663.3,236.5c0-3.4-2.2-5.6-5.4-5.6
	c-3.1,0-5.2,2.3-5.8,5.6H663.3z"/>
<path class="st3" d="M708.1,222.5l-5.3,6.3c-2.4-2.9-5.9-4.7-9.1-4.7c-5.7,0-10.1,4.5-10.1,10.5c0,6,4.3,10.6,10.1,10.6
	c3,0,6.5-1.6,9.1-4.2l5.4,5.7c-3.9,4-9.6,6.6-14.9,6.6c-10.9,0-19-8-19-18.6c0-10.4,8.3-18.2,19.3-18.2
	C699,216.4,704.5,218.8,708.1,222.5z"/>
<path class="st3" d="M739.3,238.9c0,8.6-6.1,14.2-15.2,14.2c-9.1,0-15.2-5.7-15.2-14.2c0-8.6,6.1-14.2,15.2-14.2
	C733.2,224.7,739.3,230.3,739.3,238.9z M717.9,239c0,4.3,2.5,7.2,6.2,7.2c3.7,0,6.2-2.9,6.2-7.2c0-4.3-2.5-7.2-6.2-7.2
	C720.5,231.7,717.9,234.7,717.9,239z"/>
<path class="st3" d="M772.5,235.2v17.5h-8.9v-15c0-3.2-1.9-5.3-4.9-5.3c-3.2,0-5.3,2.3-5.7,5.6v14.7h-8.9V225h8.9v4.5
	c2-3.2,5.2-4.9,9.3-4.9C768.5,224.6,772.5,228.8,772.5,235.2z"/>
<g class="st0">
	<g>
		<defs>
			<rect id="SVGID_5_" x="302.2" y="6.1" width="1.3" height="256.5"/>
		</defs>
		<use xlink:href="#SVGID_5_"  style="overflow:visible;fill:#231F20;"/>
		<clipPath id="SVGID_6_">
			<use xlink:href="#SVGID_5_"  style="overflow:visible;"/>
		</clipPath>
		<rect x="302.2" y="6.1" class="st6" width="1.3" height="256.5"/>
	</g>
</g>
<g class="st0">
	<path class="st3" d="M296.4,326.2h-16.1v-28h16.1v4.9h-10.2v6.1h9.5v4.9h-9.5v7.2h10.2V326.2z"/>
	<path class="st3" d="M317,326.2l-0.8-2.7h-0.3c-0.6,1-1.5,1.8-2.7,2.3c-1.1,0.5-2.5,0.8-3.9,0.8c-2.5,0-4.4-0.7-5.7-2
		c-1.3-1.3-1.9-3.3-1.9-5.8v-14h5.8v12.5c0,1.5,0.3,2.7,0.8,3.5c0.5,0.8,1.4,1.2,2.6,1.2c1.6,0,2.8-0.5,3.5-1.6
		c0.7-1.1,1.1-2.9,1.1-5.4v-10.1h5.8v21.4H317z"/>
	<path class="st3" d="M339.6,304.4c0.8,0,1.4,0.1,2,0.2l-0.4,5.5c-0.5-0.1-1-0.2-1.7-0.2c-1.9,0-3.3,0.5-4.4,1.4c-1,1-1.6,2.3-1.6,4
		v10.9h-5.8v-21.4h4.4l0.9,3.6h0.3c0.7-1.2,1.6-2.2,2.7-2.9C337,304.8,338.2,304.4,339.6,304.4z"/>
	<path class="st3" d="M364.9,315.5c0,3.5-0.9,6.2-2.8,8.2s-4.4,2.9-7.7,2.9c-2.1,0-3.9-0.4-5.4-1.4c-1.6-0.9-2.8-2.2-3.6-3.9
		c-0.8-1.7-1.3-3.6-1.3-5.9c0-3.5,0.9-6.2,2.7-8.2s4.4-2.9,7.7-2.9c2.1,0,3.9,0.4,5.4,1.3c1.6,0.9,2.8,2.2,3.6,3.8
		C364.4,311.3,364.9,313.2,364.9,315.5z M350.1,315.5c0,2.1,0.3,3.7,1,4.8c0.7,1.1,1.8,1.6,3.4,1.6c1.6,0,2.7-0.5,3.4-1.6
		c0.7-1.1,1-2.7,1-4.8c0-2.1-0.3-3.7-1-4.8c-0.7-1.1-1.8-1.6-3.4-1.6c-1.6,0-2.7,0.5-3.4,1.6C350.4,311.7,350.1,313.3,350.1,315.5z"
		/>
	<path class="st3" d="M381.5,326.6c-2.5,0-4.5-0.9-5.9-2.7h-0.3c0.2,1.8,0.3,2.8,0.3,3.1v8.7h-5.8v-30.8h4.7l0.8,2.8h0.3
		c1.4-2.1,3.4-3.2,6.1-3.2c2.5,0,4.5,1,5.9,2.9c1.4,2,2.1,4.7,2.1,8.1c0,2.3-0.3,4.3-1,6c-0.7,1.7-1.6,3-2.9,3.8
		C384.6,326.1,383.1,326.6,381.5,326.6z M379.7,309.1c-1.4,0-2.5,0.4-3.2,1.3c-0.7,0.9-1,2.4-1,4.4v0.6c0,2.3,0.3,3.9,1,4.9
		c0.7,1,1.8,1.5,3.2,1.5c2.6,0,3.9-2.2,3.9-6.5c0-2.1-0.3-3.7-1-4.7C382.1,309.6,381.1,309.1,379.7,309.1z"/>
	<path class="st3" d="M404.2,326.6c-3.4,0-6.1-1-8.1-2.9c-1.9-1.9-2.9-4.6-2.9-8.1c0-3.6,0.9-6.4,2.7-8.3c1.8-2,4.3-2.9,7.4-2.9
		c3,0,5.4,0.9,7.1,2.6c1.7,1.7,2.5,4.1,2.5,7.1v2.8h-13.8c0.1,1.7,0.6,3,1.5,3.9c0.9,0.9,2.2,1.4,3.9,1.4c1.3,0,2.5-0.1,3.7-0.4
		c1.1-0.3,2.3-0.7,3.6-1.3v4.5c-1,0.5-2.1,0.9-3.3,1.1C407.3,326.5,405.9,326.6,404.2,326.6z M403.4,308.5c-1.2,0-2.2,0.4-2.9,1.2
		c-0.7,0.8-1.1,1.9-1.2,3.3h8.2c0-1.4-0.4-2.6-1.1-3.3C405.6,308.9,404.6,308.5,403.4,308.5z"/>
	<path class="st3" d="M445.9,326.2h-19.6v-4.1l7-7.1c2.1-2.1,3.4-3.6,4.1-4.4c0.6-0.8,1.1-1.6,1.4-2.3c0.3-0.7,0.4-1.4,0.4-2.2
		c0-1.1-0.3-2-0.9-2.5c-0.6-0.5-1.4-0.8-2.5-0.8c-1.1,0-2.1,0.2-3.2,0.7c-1,0.5-2.1,1.2-3.2,2.1l-3.2-3.8c1.4-1.2,2.5-2,3.4-2.5
		c0.9-0.5,1.9-0.9,3-1.1c1.1-0.3,2.3-0.4,3.6-0.4c1.7,0,3.3,0.3,4.6,1c1.3,0.6,2.4,1.5,3.1,2.7c0.7,1.1,1.1,2.5,1.1,3.9
		c0,1.3-0.2,2.5-0.7,3.6s-1.2,2.3-2.1,3.5c-1,1.2-2.6,2.9-5,5.1l-3.6,3.4v0.3h12.2V326.2z"/>
	<path class="st3" d="M468.2,312.2c0,4.9-0.8,8.5-2.4,10.9c-1.6,2.3-4.1,3.5-7.4,3.5c-3.2,0-5.7-1.2-7.3-3.6
		c-1.6-2.4-2.5-6-2.5-10.7c0-4.9,0.8-8.6,2.4-10.9c1.6-2.3,4.1-3.5,7.4-3.5c3.2,0,5.7,1.2,7.3,3.7S468.2,307.5,468.2,312.2z
		 M454.5,312.2c0,3.4,0.3,5.9,0.9,7.4c0.6,1.5,1.6,2.2,3,2.2c1.4,0,2.4-0.8,3-2.3c0.6-1.5,0.9-4,0.9-7.4c0-3.4-0.3-5.9-0.9-7.4
		c-0.6-1.5-1.6-2.3-3-2.3c-1.4,0-2.4,0.7-3,2.3C454.8,306.3,454.5,308.8,454.5,312.2z"/>
	<path class="st3" d="M485.8,326.2h-5.9V310l0.1-2.7l0.1-2.9c-1,1-1.7,1.6-2,1.9l-3.2,2.6l-2.9-3.6l9-7.2h4.9V326.2z"/>
	<path class="st3" d="M503.2,297.8c2.7,0,4.8,0.6,6.5,1.8c1.6,1.2,2.5,2.9,2.5,4.9c0,1.4-0.4,2.7-1.2,3.8c-0.8,1.1-2.1,2.1-3.8,3
		c2.1,1.1,3.6,2.3,4.5,3.5c0.9,1.2,1.4,2.6,1.4,4c0,2.3-0.9,4.1-2.7,5.5c-1.8,1.4-4.2,2.1-7.1,2.1c-3.1,0-5.5-0.7-7.2-2
		c-1.7-1.3-2.6-3.1-2.6-5.5c0-1.6,0.4-3,1.3-4.3c0.8-1.2,2.2-2.3,4.1-3.3c-1.6-1-2.7-2.1-3.4-3.2c-0.7-1.1-1.1-2.4-1.1-3.8
		c0-2,0.8-3.6,2.5-4.9C498.3,298.5,500.5,297.8,503.2,297.8z M498.8,318.8c0,1.1,0.4,2,1.1,2.6c0.8,0.6,1.8,0.9,3.1,0.9
		c1.5,0,2.6-0.3,3.3-0.9c0.7-0.6,1.1-1.5,1.1-2.5c0-0.9-0.4-1.7-1.1-2.4c-0.7-0.7-1.9-1.5-3.5-2.4
		C500.2,315.3,498.8,316.8,498.8,318.8z M503.1,302.2c-1,0-1.8,0.3-2.4,0.8c-0.6,0.5-0.9,1.2-0.9,2.1c0,0.8,0.2,1.5,0.7,2.1
		c0.5,0.6,1.4,1.2,2.7,1.9c1.3-0.6,2.1-1.2,2.6-1.8c0.5-0.6,0.7-1.3,0.7-2.1c0-0.9-0.3-1.6-1-2.1C505,302.4,504.1,302.2,503.1,302.2
		z"/>
</g>
</svg>
