<?xml version="1.0" encoding="utf-8"?>
<!-- Generator: Adobe Illustrator 21.1.0, SVG Export Plug-In . SVG Version: 6.00 Build 0)  -->
<svg version="1.1" id="Layer_1" xmlns="http://www.w3.org/2000/svg" xmlns:xlink="http://www.w3.org/1999/xlink" x="0px" y="0px"
	 viewBox="0 0 288 387.2" style="enable-background:new 0 0 288 387.2;" xml:space="preserve">
<style type="text/css">
	.st0{fill:#D2E4F4;}
	.st1{fill:#F3C887;}
	.st2{fill:#9DB57F;}
	.st3{fill:#829F60;}
	.st4{fill:#B5CA9C;}
	.st5{fill:#86AE4F;}
	.st6{fill:#89AC5F;}
	.st7{fill:#708E48;}
	.st8{fill:#739648;}
	.st9{fill:#485D2A;}
	.st10{fill:#A4C27F;}
	.st11{fill:#49652F;}
	.st12{fill:#648140;}
	.st13{fill:#557234;}
	.st14{fill:#7BA848;}
	.st15{fill:#456DAA;}
	.st16{fill:#34679A;}
	.st17{fill:#77C4D5;}
	.st18{fill:#666766;}
	.st19{fill:#CB9866;}
	.st20{fill:#DBB27B;}
	.st21{fill:#9FBC75;}
</style>
<g>
	<g>
		<path id="XMLID_207_" class="st18" d="M21,321.6c2.8,0,5-1.1,6.7-3.3l3.6,3.7c-2.8,3.2-6.2,4.8-10.1,4.8c-3.9,0-7-1.2-9.5-3.7
			c-2.5-2.4-3.8-5.5-3.8-9.2c0-3.7,1.3-6.8,3.8-9.3c2.5-2.5,5.7-3.7,9.4-3.7c4.1,0,7.6,1.6,10.3,4.7l-3.5,3.9
			c-1.8-2.2-4-3.3-6.6-3.3c-2.1,0-3.9,0.7-5.4,2.1c-1.5,1.4-2.2,3.2-2.2,5.6s0.7,4.2,2.1,5.6C17.3,320.9,19,321.6,21,321.6z"/>
		<path id="XMLID_205_" class="st18" d="M35.8,326.6v-25.1h5.6v20.1h10.7v5H35.8z"/>
		<path id="XMLID_157_" class="st18" d="M76.6,323.1c-2.5,2.5-5.7,3.7-9.4,3.7c-3.7,0-6.8-1.2-9.4-3.7c-2.5-2.5-3.8-5.6-3.8-9.2
			c0-3.7,1.3-6.8,3.8-9.2c2.5-2.5,5.7-3.7,9.4-3.7c3.7,0,6.8,1.2,9.4,3.7c2.5,2.5,3.8,5.6,3.8,9.2C80.4,317.5,79.1,320.6,76.6,323.1
			z M74.7,313.9c0-2.2-0.7-4.1-2.2-5.7c-1.4-1.6-3.2-2.4-5.3-2.4c-2.1,0-3.9,0.8-5.3,2.4c-1.4,1.6-2.2,3.5-2.2,5.7
			c0,2.2,0.7,4.1,2.2,5.7c1.4,1.6,3.2,2.4,5.3,2.4c2.1,0,3.9-0.8,5.3-2.4C74,318,74.7,316.1,74.7,313.9z"/>
		<path id="XMLID_155_" class="st18" d="M91.8,320.1c0.9,1.2,2.2,1.7,3.8,1.7c1.6,0,2.8-0.6,3.8-1.7c0.9-1.2,1.4-2.7,1.4-4.8v-13.9
			h5.6v14c0,3.6-1,6.4-3,8.4c-2,2-4.6,2.9-7.7,2.9c-3.1,0-5.7-1-7.7-2.9c-2-2-3-4.8-3-8.4v-14h5.6v13.9
			C90.4,317.3,90.8,318.9,91.8,320.1z"/>
		<path id="XMLID_151_" class="st18" d="M131.3,304.7c2.4,2.2,3.6,5.2,3.6,9.1s-1.2,7-3.5,9.3c-2.3,2.3-5.9,3.4-10.7,3.4h-8.6v-25.1
			h8.9C125.4,301.5,128.9,302.6,131.3,304.7z M127.1,319.7c1.4-1.3,2.1-3.2,2.1-5.6c0-2.5-0.7-4.4-2.1-5.7c-1.4-1.3-3.5-2-6.3-2
			h-3.1v15.3h3.6C123.8,321.6,125.8,321,127.1,319.7z"/>
		<path id="XMLID_103_" class="st18" d="M166.7,301.5h5.6v25.1h-5.6l-12-15.7v15.7h-5.6v-25.1h5.2l12.3,16.2V301.5z"/>
		<path id="XMLID_100_" class="st18" d="M196.4,326.6l-2.3-5.4h-10.5l-2.3,5.4h-6l10.8-25.1h5.4l10.8,25.1H196.4z M188.8,308.9
			l-3.2,7.3h6.3L188.8,308.9z"/>
		<path id="XMLID_98_" class="st18" d="M214,306.3v20.2h-5.6v-20.2h-7.1v-4.8h19.8v4.8H214z"/>
		<path id="XMLID_96_" class="st18" d="M225.2,301.5h5.6v25.1h-5.6V301.5z"/>
		<path id="XMLID_94_" class="st18" d="M246.3,317.4l6.4-16h6.1l-10.1,25.1h-4.7l-10.1-25.1h6.1L246.3,317.4z"/>
		<path id="XMLID_12_" class="st18" d="M279.8,301.5v5h-12.5v5.2h11.2v4.8h-11.2v5.2h12.9v5h-18.5v-25.1H279.8z"/>
	</g>
	<g>
		<path class="st19" d="M8,367.3l2.5-2.9c3.7,3.3,7.2,5,12,5c4.7,0,7.8-2.5,7.8-6v-0.1c0-3.3-1.8-5.1-9.1-6.7
			c-8.1-1.8-11.8-4.4-11.8-10.1v-0.1c0-5.5,4.9-9.6,11.5-9.6c5.1,0,8.8,1.5,12.3,4.3l-2.3,3.1c-3.3-2.7-6.5-3.8-10.1-3.8
			c-4.6,0-7.5,2.5-7.5,5.7v0.1c0,3.3,1.8,5.2,9.5,6.8c7.8,1.7,11.4,4.6,11.4,9.9v0.1c0,6-5,9.9-12,9.9C16.7,372.9,12.2,371,8,367.3z
			"/>
		<path class="st19" d="M57.1,337.1h3.7l16,35.3h-4.3l-4.1-9.3H49.3l-4.2,9.3h-4.1L57.1,337.1z M66.8,359.6l-8-17.9l-8,17.9H66.8z"
			/>
		<path class="st19" d="M86.2,337.3h3.7l22.1,28.1v-28.1h3.9v35.1h-3.2L90,343.7v28.7h-3.9V337.3z"/>
		<path class="st19" d="M128.2,337.3h12.2c11,0,18.6,7.6,18.6,17.4v0.1c0,9.9-7.6,17.5-18.6,17.5h-12.2V337.3z M140.4,368.7
			c8.9,0,14.5-6,14.5-13.8v-0.1c0-7.8-5.7-13.9-14.5-13.9h-8.2v27.7H140.4z"/>
		<path class="st19" d="M169.9,337.3h14.9c4,0,7.2,1.2,9.2,3.1c1.5,1.5,2.3,3.4,2.3,5.6v0.1c0,4.6-2.8,6.9-5.6,8.1
			c4.2,1.3,7.5,3.7,7.5,8.5v0.1c0,6-5.1,9.6-12.7,9.6h-15.6V337.3z M184.2,353c4.8,0,8.1-2.2,8.1-6.3v-0.1c0-3.5-2.8-5.7-7.8-5.7
			h-10.7V353H184.2z M185.6,368.8c5.3,0,8.6-2.4,8.6-6.3v-0.1c0-3.8-3.2-6-9.3-6h-11.1v12.4H185.6z"/>
		<path class="st19" d="M207,355v-0.1c0-9.7,7.3-18.1,17.9-18.1c10.7,0,17.8,8.4,17.8,18v0.1c0,9.7-7.3,18.1-17.9,18.1
			C214.2,373,207,364.6,207,355z M238.7,355v-0.1c0-8-5.8-14.5-13.8-14.5c-8,0-13.7,6.4-13.7,14.4v0.1c0,8,5.8,14.5,13.8,14.5
			C233,369.3,238.7,362.9,238.7,355z"/>
		<path class="st19" d="M262,354.5l-13-17.2h4.7l10.8,14.3l10.7-14.3h4.6l-13,17.1l13.5,17.9h-4.7l-11.2-15.1L253,372.4h-4.6
			L262,354.5z"/>
	</g>
</g>
<g>
	<path class="st0" d="M53.1,241.1c-0.3,0.3-0.7,0.6-1.1,0.8h47h9.4c0-0.3,0.1-0.5,0.2-0.8C90.1,241.1,71.6,241.1,53.1,241.1z"/>
	<path class="st0" d="M172.6,241.1c-0.2,0.2-0.3,0.5-0.4,0.7l17.3-0.1l0.3,0.3H241v-1c-0.9,0.1-1.9,0.1-3,0.1
		C216.2,241.1,194.4,241.1,172.6,241.1z"/>
	<path class="st0" d="M99,48.4l-0.3-0.3H47.4v51.3l0.3,0.4l-0.3,33.9v55.9c6.9-5.7,13.3-12.4,20.2-18.1
		c10.7-8.9,22.7-13.2,35.9-11.5l16.3,6.6c4.2-5.9,10.7-8.6,18.3-8.7c6.2-0.1,12.4,0.6,18.6,0.9c0,0,0,0,0,0c0.7-2.1,1.4-4.3,2-6.4
		l0,0c1.7-10.8,6.1-20.8,9.3-31c6-19.2,11.2-38.6,18.4-57.4c0.4-3.4,3.7-4.3,5.5-6.5c0.4,0,0.9,0,1.3,0c2.7,0,5.3,0,8,0
		c0.9,0.9,1.7,1.8,2.6,2.7v0c0,0,0,0,0,0c3.8,3.1,6.3,6.5,4.3,11.8c-10.9,28.6-21.8,57.2-32.7,85.7c0,0,0,0,0,0h0
		c0.9,4,4.2,2.5,6.5,2.6c10.5,0.5,12.8,3.1,11.2,13.3c-0.5,3.5,0.1,7,0.1,10.5c5.5-2.4,11-4.5,16.8-5.9c11.5-2.8,21.4,0.7,30.7,7.7
		l0.3-29.9v-17.8V99.8V48.1h-51.6h-56.6L99,48.4z"/>
	<path class="st0" d="M196,72.3c0-0.1,0.1-0.1,0.1-0.2c0,0-0.1-0.1-0.1-0.2C196,72.1,196,72.2,196,72.3z"/>
	<path class="st1" d="M117.8,210.9C117.8,210.9,117.8,210.9,117.8,210.9C117.8,210.9,117.8,210.8,117.8,210.9
		C117.7,210.9,117.8,210.9,117.8,210.9z"/>
	<path class="st1" d="M210.1,178.4c-5.8,1.4-11.4,3.5-16.8,5.9c0,1.9-0.3,3.8-1.1,5.7l0,0c0,0,0,0,0,0c-3.8,10-10.2,18.5-14.8,28
		c-1.2,2.8-2.5,6.8-6.8,5.5c0,0-0.1,0-0.1,0c0,0-0.1-0.1-0.1-0.1c-0.3-0.1-0.7-0.2-1-0.3c-6.5,0.3-13.1,0.9-18.5-4.2
		c-1.9-1.8-4.6-0.9-7-1.2v0c0,0,0,0,0,0c-6.3,0.6-12.6,1-18.7,2.7c-5.1-0.4-10.8,3.8-15.8,4.2l0-0.1c-3.3,2-11.8,3.7-15.5-0.6
		c-0.1,0-0.1,0-0.2,0c0,0,0-0.1,0-0.1c-0.1-0.1-0.2-0.2-0.3-0.3l1.1-2c5.6-14.9,17.1-38.5,23.5-51.7c0.6-1.1,1.2-2.2,1.9-3.1
		l-16.3-6.6c-13.2-1.7-25.2,2.6-35.9,11.5c-6.9,5.8-13.3,12.4-20.2,18.1v0.5v51.7H52c0.4-0.2-1.6,1.9-1.3,1.6
		c18.5,0,35.4-0.4,53.9-0.4c-0.1,0.3,3.8-1.5,3.7-1.2h29.4h17.6l16.8-0.1c0.2-0.2-1.3,2.6-1.2,2.4c21.8,0,45.6,0.8,67.4,0.8
		c1.1,0,3.1-1.2,4-1.3l-1.4-53.2l-0.3-0.3l0-4C231.5,179.1,221.6,175.7,210.1,178.4z"/>
	<path class="st2" d="M196,72c0,0.1,0.1,0.1,0.1,0.2c0.8-1.7,1.7-3.5,2.5-5.2c0,0,0,0,0,0c0,0,0,0,0,0c0.8-4.6-2.2-7-5.4-9.3
		c-0.4,0-0.9,0-1.3,0c-1.9,2.1-5.1,3.1-5.5,6.5c0.2,0.6,0.6,1.7,0.7,1.7C195,63.3,195.7,63.7,196,72z"/>
	<path class="st3" d="M198.7,66.9C198.7,66.9,198.7,66.9,198.7,66.9c0.4,0.5,0.9,0.9,1.3,1.4c3.6-1.6-0.5-6.8,3.9-8v0
		c-0.9-0.9-1.7-1.8-2.6-2.7c-2.7,0-5.3,0-8,0C196.4,59.9,199.5,62.3,198.7,66.9z"/>
	<path class="st21" d="M159.7,151.6c7.7,1.7,8.6-4.4,10.7-9.3c10.1-22.8,19.2-45.9,25.7-70c0,0,0,0,0,0c0-0.1,0-0.2,0-0.3
		c-0.3-8.3-1-8.7-8.9-6.3c-0.1,0-0.5-1.1-0.7-1.7c-7.2,18.8-12.3,38.2-18.4,57.4c-3.2,10.3-7.6,20.3-9.3,31
		C159.1,152.2,159.4,151.6,159.7,151.6z"/>
	<path class="st5" d="M93.6,223.9c0.1,0,0.1,0,0.2,0c-0.1-0.1-0.1-0.1-0.2-0.2C93.6,223.8,93.6,223.9,93.6,223.9z"/>
	<path class="st5" d="M94.5,221.5l14.2-25.2c4.1-8.5,7.8-17.2,12.3-25.2c2.7-3.8,5.9-7.1,10.7-8c0.8-0.3,1.5-0.5,2.2-0.6
		c7.8-2,15.6,0,23.3,0.8c8.8,0.4,17.6,0.7,26.3,1.3c5.4,0.4,7.6,4.3,5.7,9.2c-0.3,0.8-0.7,1.6-1.1,2.4c-3.5,7.7-5.3,11.8-11.6,11.6
		c4.9,1,5.3,4,2.5,10.4c-2.8,6.2-5.9,12.4-8.4,18.7c-0.9,2.1-1.5,4.1-1.4,6.3c0.3,0.1,0.7,0.2,1,0.3c3.7-12.5,10.4-23.1,16.2-36
		c2.8-4.9,3-6.3,5.7-9.5c0,4,0,8,0,12l0,0c0.8-1.9,1.1-3.8,1.1-5.7c0.1-3.5-0.6-7.1-0.1-10.5c1.5-10.2-0.7-12.8-11.2-13.3
		c-2.3-0.1-5.6,1.4-6.5-2.6h0c-1.4,1.4-2.5,4.1-4.9,1.2c-4.6,1.2-9.2,0.3-13.8-0.2c0,0,0,0,0,0c0,0,0,0,0,0
		c-6.2-0.3-12.4-1-18.6-0.9c-7.6,0.1-14.1,2.8-18.3,8.7c-0.7,1-1.3,2-1.9,3.1C111.5,183,100.1,206.7,94.5,221.5z"/>
	<path class="st5" d="M170.4,223.6C170.4,223.5,170.5,223.5,170.4,223.6c0-0.1,0-0.1-0.1-0.1C170.3,223.5,170.4,223.5,170.4,223.6z"
		/>
	<path class="st6" d="M170.5,159.1c3.5-12,9.1-23.2,13.4-34.9c4.2-11.5,8.9-22.8,12.1-34.7c1.8-7,4.9-13.7,4-21.2h0
		c-0.4-0.5-0.9-0.9-1.3-1.4c0,0,0,0,0,0c-0.8,1.7-1.7,3.5-2.5,5.2c0,0.1-0.1,0.1-0.1,0.2c0,0,0,0,0,0c-6.4,24.1-15.6,47.2-25.7,70
		c-2.1,4.9-3,11-10.7,9.3c-0.2-0.1-0.6,0.6-0.9,0.9l0,0c-0.7,2.1-1.4,4.3-2,6.4c0,0,0,0,0,0C161.3,159.4,165.9,160.3,170.5,159.1z"
		/>
	<path class="st7" d="M117.8,210.9C117.8,210.9,117.7,210.9,117.8,210.9c-0.2-0.4-0.4-0.7-0.6-1l-8.6-13.3c0.1-0.1,0.1-0.2,0.1-0.3
		l-14.2,25.2l-1.1,2c0.1,0.1,0.2,0.2,0.3,0.3c0,0.1,0.1,0.1,0.2,0.2c3.7,4.3,12.2,2.6,15.5,0.6l7.5-12.2
		C117.1,211.9,117.4,211.4,117.8,210.9z"/>
	<path class="st8" d="M200,68.3L200,68.3c0.9,7.5-2.1,14.2-4,21.2c-3.1,11.9-7.9,23.2-12.1,34.7c-4.3,11.7-9.9,22.9-13.4,34.9
		c2.5,2.9,3.5,0.2,4.9-1.2c0,0,0,0,0,0c10.9-28.6,21.7-57.2,32.7-85.7c2.1-5.4-0.4-8.8-4.3-11.8c0,0,0,0,0,0
		C199.5,61.5,203.6,66.7,200,68.3z"/>
	<path class="st9" d="M192.2,178c-2.6,3.2-2.8,4.6-5.7,9.5c-5.8,12.9-12.5,23.5-16.2,36c0.1,0,0.1,0,0.2,0c4.3,1.3,5.6-2.7,6.8-5.5
		c4.6-9.5,11.1-18,14.8-28c0,0,0,0,0,0C192.2,186,192.2,182,192.2,178z"/>
	<path class="st21" d="M179.1,198.1c2.8-6.3,2.4-9.4-2.5-10.4c-1,0-2.1-0.1-3.4-0.4c-10.4-0.5-20.7-1.1-31.1-1.6
		c-2.9-0.1-5.9-0.3-7.7,2.6c0,0,0,0,0,0c0,0,0,0,0,0c4.3,9.4,9.2,18.6,9.5,29.3v0c2.3,0.4,5-0.6,7,1.2c5.4,5.1,12,4.4,18.5,4.2
		c-0.1-2.2,0.6-4.2,1.4-6.3C173.2,210.5,176.3,204.4,179.1,198.1z"/>
	<path class="st11" d="M126.5,196.9c0,0.2,0,0.4,0,0.6c0.1-0.2,0.2-0.3,0.4-0.5c2.9-3.9,4.5-6,7.5-8.6c0,0,0,0,0,0
		c1.9-3,4.8-2.8,7.7-2.6c10.4,0.5,20.7,1.1,31.1,1.6c1.3,0.3,2.4,0.4,3.4,0.4c6.3,0.2,8.1-3.9,11.6-11.6c0.4-0.8,0.8-1.6,1.1-2.4
		c1.9-4.9-0.3-8.8-5.7-9.2c-8.8-0.7-17.6-0.9-26.3-1.3c-7.8-0.8-15.5-2.8-23.3-0.8c-0.6,0.1-1.3,0.3-2.2,0.6c-4.9,0.9-8,4.2-10.7,8
		C128.1,178.6,132.1,186.7,126.5,196.9z"/>
	<path class="st12" d="M117.2,209.9c0.2,0.4,0.4,0.7,0.6,0.9c0,0,0,0,0,0.1c3.2-4.8,5.4-8.8,8.7-13.4c0-0.2,0-0.4,0-0.6
		c5.6-10.2,1.6-18.3-5.5-25.8c-4.6,8.1-8.2,16.7-12.3,25.2c-0.1,0.1-0.1,0.2-0.1,0.3L117.2,209.9z"/>
	<path class="st14" d="M134.3,188.4C134.3,188.4,134.3,188.4,134.3,188.4c-3,2.6-4.6,4.6-7.5,8.6c-0.1,0.2-0.2,0.3-0.4,0.5
		c-3.3,4.6-5.5,8.5-8.7,13.4c0,0,0,0,0,0c-0.3,0.5-0.6,0.9-1,1.4l-7.5,12.2l0,0.1c5-0.4,10.7-4.6,15.8-4.2c6.1-1.7,12.5-2,18.7-2.7
		c0,0,0,0,0,0C143.5,207.1,138.7,197.8,134.3,188.4z"/>
	<polygon class="st15" points="99,241.9 52,241.9 47.4,241.9 47.4,190.2 8.6,190.2 8.6,280.5 99,280.5 	"/>
	<polygon class="st15" points="240.8,190.2 241,190.5 241,240.9 241.1,241.5 189.5,241.6 189.5,241.6 189.5,280.5 279.8,280.5 
		279.8,190.2 	"/>
	<polygon class="st15" points="47.7,99.8 47.7,99.8 47.4,48.6 99,48.4 99,48.4 99,9.3 8.6,9.3 8.6,99.8 	"/>
	<polygon class="st16" points="189.5,9.3 189.5,48.1 241,48.1 241,99.8 279.8,99.8 279.8,9.3 	"/>
	<polygon class="st17" points="99,48.4 132.9,48.1 189.5,48.1 189.5,9.3 99,9.3 	"/>
	<polygon class="st17" points="189.5,241.6 172.2,241.7 155.4,241.9 137.8,241.9 108.4,241.9 99,241.9 99,280.5 189.5,280.5 	"/>
	<polygon class="st17" points="241,99.8 241,138.5 241,156.2 240.8,186.1 240.8,190.2 279.8,190.2 279.8,99.8 	"/>
	<polygon class="st17" points="47.4,190.2 47.4,189.7 47.4,133.8 47.7,99.8 8.6,99.8 8.6,190.2 	"/>
</g>
</svg>
