<svg id="Layer_1" data-name="Layer 1" xmlns="http://www.w3.org/2000/svg" viewBox="0 0 537.07731 111.36215"><title>longhorn</title><path d="M163.8199,30.426h12.49637V71.6567h21.02705v9.2785H163.8199Z"/><path d="M199.36637,54.9705c0-18.1843,9.653-25.44218,23.19746-25.44218,13.31912,0,22.97215,7.25788,22.97215,25.44218,0,20.2037-9.952,26.86356-22.97215,26.86356C209.01939,81.83406,199.36637,74.575,199.36637,54.9705Zm33.37361,0c0-12.57189-4.93826-16.61311-10.326-16.61311s-10.25165,4.04122-10.25165,16.61311c0,13.992,4.864,18.03327,10.25165,18.03327S232.74,68.96255,232.74,54.9705Z"/><path d="M252.34626,30.426h13.394l13.24543,25.06827c1.12175,2.17042,2.61863,5.98511,3.8159,8.97888h.29962c-.14981-2.84274-.52373-6.884-.52373-9.80223V30.426h10.25166V80.9352H279.73354L265.9656,55.94244a69.66287,69.66287,0,0,1-3.6667-8.231h-.29962c.22472,2.844.59863,6.21165.59863,8.97888V80.9352H252.34626Z"/><path d="M322.31257,55.41872h20.80294V80.9352h-8.45515V72.40453c-1.79651,5.61241-5.83773,9.42953-14.517,9.42953-11.67425,0-20.429-8.08245-20.429-26.41534s8.83028-25.8904,22.59822-25.8904c15.49015,0,21.55077,8.75477,19.82978,17.65935L330.395,48.45923c.89764-6.95826-2.54434-10.10184-7.48322-10.10184-5.46259,0-10.25165,3.96571-10.25165,17.28543s4.11552,17.06133,10.17614,17.06133c5.61241,0,8.756-3.442,8.9058-6.884V64.39881h-9.42953Z"/><path d="M350.59994,30.426h12.49638V49.50669h15.34033V30.426H390.933V80.9352H378.43665V59.53546H363.09632V80.9352H350.59994Z"/><path d="M397.74392,54.9705c0-18.1843,9.65242-25.44218,23.19625-25.44218,13.31973,0,22.97336,7.25788,22.97336,25.44218,0,20.2037-9.952,26.86356-22.97336,26.86356C407.39634,81.83406,397.74392,74.575,397.74392,54.9705Zm33.37361,0c0-12.57189-4.93887-16.61311-10.32595-16.61311-5.3883,0-10.25166,4.04122-10.25166,16.61311,0,13.992,4.86336,18.03327,10.25166,18.03327C426.17866,73.00377,431.11753,68.96255,431.11753,54.9705Z"/><path d="M450.7232,30.426h20.80294c9.87774,0,16.5376,4.78906,16.5376,14.06756a14.13463,14.13463,0,0,1-10.17736,13.69486,14.97566,14.97566,0,0,1,3.5175,4.78906c2.09491,4.26533,3.51628,8.97888,7.93143,8.97888a5.82264,5.82264,0,0,0,2.02061-.37392l-.97316,8.90459a24.46839,24.46839,0,0,1-5.01317.67353c-5.98632,0-9.42831-2.32023-12.94581-10.32717-1.49566-3.59058-3.59179-9.87774-6.36024-9.87774h-2.844V80.9352H450.7232Zm12.49638,9.05439V51.90122h4.49066c3.59179,0,7.78161-1.12175,7.78161-6.50884,0-4.41514-2.84274-5.912-6.28594-5.912Z"/><path d="M496.59441,30.426h13.39524l13.24421,25.06827c1.123,2.17042,2.61864,5.98511,3.8159,8.97888h.29962c-.14981-2.84274-.52372-6.884-.52372-9.80223V30.426h10.25165V80.9352h-13.0944L510.21376,55.94244a69.76067,69.76067,0,0,1-3.6661-8.231H506.248c.22411,2.844.598,6.21165.598,8.97888V80.9352H496.59441Z"/><path d="M67.9895,56.43871a7.00631,7.00631,0,0,1-1.3706-.13535l-3.69875-.73845,3.184,19.58817a6.94655,6.94655,0,0,1,.09092,1.12314h3.58818a6.99974,6.99974,0,0,1,.11416-1.25815L73.4661,55.4836l-4.106.81976A7.00631,7.00631,0,0,1,67.9895,56.43871Z"/><path d="M121.58665,0H14.39244A14.43472,14.43472,0,0,0,0,14.39244V96.96972a14.43471,14.43471,0,0,0,14.39244,14.39243H121.58665A14.4347,14.4347,0,0,0,135.979,96.96972V14.39244A14.4347,14.4347,0,0,0,121.58665,0Zm2.41846,29.10664-1.75136,11.9a7.00043,7.00043,0,0,1-5.55487,5.8454l-28.46727,5.6836c-.00487.0285-.006.05674-.01119.08524L83.76408,77.01621a14.01853,14.01853,0,0,1-13.98083,13.26H66.19507A14.01808,14.01808,0,0,1,52.21014,76.93555l-3.949-24.29736L19.28012,46.852a7.00043,7.00043,0,0,1-5.55487-5.8454l-1.75136-11.9a7.00008,7.00008,0,0,1,13.85095-2.03848l1.03291,7.0205,41.13175,8.212,41.13175-8.212,1.03291-7.0205a7.00008,7.00008,0,0,1,13.85095,2.03848Z"/></svg>