<?xml version="1.0" encoding="utf-8"?>
<!-- Generator: Adobe Illustrator 21.1.0, SVG Export Plug-In . SVG Version: 6.00 Build 0)  -->
<svg version="1.1" id="Layer_1" xmlns="http://www.w3.org/2000/svg" xmlns:xlink="http://www.w3.org/1999/xlink" x="0px" y="0px"
	 viewBox="0 0 432 432" style="enable-background:new 0 0 432 432;" xml:space="preserve">
<style type="text/css">
	.st0{fill:#FFFFFF;}
	.st1{opacity:0.9;fill:#FFFFFF;}
	.st2{opacity:0.85;fill:#FFFFFF;}
	.st3{opacity:0.8;fill:#FFFFFF;}
	.st4{opacity:0.7;fill:#FFFFFF;}
	.st5{opacity:0.6;fill:#FFFFFF;}
</style>
<polygon class="st0" points="77.1,158.4 77.1,158.4 77.1,158.4 77.1,158.4 "/>
<polygon class="st0" points="244.2,259.2 244.2,259 257.9,178.9 "/>
<polygon class="st0" points="343,178.7 298.6,258.9 214.6,411 214.6,411 298.6,258.9 343,178.7 391.5,90.7 343,178.7 "/>
<polygon class="st0" points="344.5,21.2 330.3,47.3 344.5,21.2 "/>
<polygon class="st0" points="77.1,158.4 131.5,100 77.1,158.4 "/>
<polygon class="st0" points="88.7,179.6 88.7,179.6 148.8,131.8 "/>
<polygon class="st0" points="88.7,179.6 84.6,172.2 88.7,179.6 131.4,258.1 138.4,270.9 131.4,258.1 "/>
<polygon class="st0" points="103.7,151.7 131.5,100 148.8,131.8 182.3,193.6 148.8,131.8 131.5,100 88.5,21.2 88.5,21.2 131.5,100 
	"/>
<polygon class="st0" points="229,279.6 229.2,279.9 237.3,294.7 "/>
<polygon class="st0" points="285.9,128.1 257.9,178.8 226.7,236.2 257.9,178.9 "/>
<polygon class="st1" points="174.2,336.9 214.6,411 236.9,296.6 "/>
<polygon class="st2" points="237.3,294.7 229.2,279.9 201.6,229.1 174.2,336.9 236.9,296.6 "/>
<polygon class="st3" points="131.4,258.1 138.4,270.9 174.2,336.9 201.6,229.1 "/>
<polygon class="st1" points="131.4,258.1 201.6,229.1 182.3,193.6 148.8,131.8 "/>
<polygon class="st4" points="244.2,259.2 257.9,178.9 226.7,236.2 216.1,255.8 229,279.6 237.3,294.7 "/>
<polygon class="st2" points="88.7,179.6 131.4,258.1 148.8,131.8 "/>
<polygon class="st1" points="298.6,258.9 343,178.7 244.2,259 "/>
<polygon class="st4" points="131.5,100 103.7,151.7 88.7,179.6 148.8,131.8 "/>
<polygon class="st5" points="244.2,259 301.1,100.5 285.9,128.1 257.9,178.9 "/>
<polygon class="st1" points="88.7,179.6 103.7,151.7 131.5,100 77.1,158.4 77.1,158.4 84.6,172.2 88.7,179.6 "/>
<polygon class="st2" points="343,178.7 301.1,100.5 301.1,100.5 244.2,259 "/>
<polygon class="st2" points="77.1,158.4 131.5,100 88.5,21.2 88.5,21.2 88.5,21.2 77.1,158.4 "/>
<polygon class="st3" points="343,178.7 344.5,21.2 344.5,21.2 344.5,21.2 330.3,47.3 301.1,100.5 301.1,100.5 343,178.7 "/>
<polygon class="st4" points="88.5,21.2 2.8,21.2 77.1,158.4 77.1,158.4 "/>
<polygon class="st1" points="344.5,21.2 344.5,21.2 343,178.7 391.5,90.7 429.8,21.2 "/>
<polygon class="st0" points="244.2,259 244.2,259.2 237.3,294.7 236.9,296.6 214.6,411 214.6,411 298.6,258.9 "/>
</svg>
