<svg xmlns="http://www.w3.org/2000/svg" role="img" viewBox="-14.49 -14.49 753.48 635.48"><title>tekton-friends-black</title><style>svg {enable-background:new 0 0 725 607}</style><path d="M153.4 120.6c-1.4.1-2.5 1.4-2.4 2.8.1 1.4 1.4 2.5 2.8 2.4 1.4-.1 2.5-1.4 2.4-2.8-.1-1.5-1.3-2.5-2.8-2.4zm-16.6-5.1c1.4-.1 2.5-1.4 2.4-2.8-.1-1.4-1.4-2.5-2.8-2.4-1.4.1-2.5 1.4-2.4 2.8.1 1.4 1.4 2.5 2.8 2.4zm.5 6.3c-1.4.1-2.5 1.4-2.4 2.8.1 1.4 1.4 2.5 2.8 2.4 1.4-.1 2.5-1.4 2.4-2.8-.1-1.4-1.4-2.5-2.8-2.4zm15.7-7.6c1.4-.1 2.5-1.4 2.4-2.8-.1-1.4-1.4-2.5-2.8-2.4-1.4.1-2.5 1.4-2.4 2.8.1 1.5 1.3 2.6 2.8 2.4z"/><path d="M41.5 242.9c5.7 0 10.8-2.5 14.3-6.4 8.1 4 15 10.1 20.7 17.5 5.5 7.2 10 15.5 13.5 24.3-7.3 1.6-13.8 5.8-17.9 12.4-2.5 4.1-3.9 8.7-4.1 13.5l-7-1.9c1.1 15 4.4 20.2 12.2 31.1-3.1.3-6 1-8.4 2.2-8.1 4.3-11.9 15.9-12.9 24.5-.3 2.4.4 4.6 1.9 6.4v.1h.1c1.6 1.8 3.7 2.7 6.1 2.7h20.5c.2.8.5 1.5.8 2.2.6 1.6 1.6 2.9 2.9 3.8v.1h.1c1.3.9 2.9 1.4 4.6 1.4h49.8c1.6 0 3.1-.4 4.5-1.1 2.9-1.5 4.5-3.9 5.3-6.7l17 .2c.8 2.8 2.4 5.1 5.2 6.6 1.4.7 2.9 1.1 4.5 1.1H225c1.7 0 3.3-.5 4.6-1.4h.1v-.1c1.3-.9 2.3-2.2 2.9-3.8.3-.7.5-1.5.8-2.2h20.5c2.4 0 4.5-.9 6.1-2.7h.1v-.1c1.6-1.8 2.2-4 1.9-6.4-1.1-8.6-4.8-20.2-12.9-24.5-2.3-1.2-5.1-1.9-8.2-2.2 6.2-9.7 8.9-16.9 12.3-28l-7.2 1.9c0-.6.1-1.2.1-1.7 0-5.2-1.4-10.4-4.2-14.8-4.4-7.1-11.6-11.4-19.7-12.7-.1-14.5-3.4-30.8-14.6-40.6l.6-1.5c4.4-2.8 8.2-6.4 10.8-11 .9-1.5 1.6-3 2.2-4.6 2.4-2.2 4.6-4.7 6.5-7.5 11-15.3 13.2-35.3 9.3-53.4-1.9-8.7-5.2-17.1-9.7-24.6 13.6-31.2 4.4-83.8-11.7-112.6l-2.5 7.1c-11.7 22-27.7 47.1-40.5 68.7-8.6-1.6-17.4-2-26.2-1-9.9 1.1-19.3 4.1-27.8 8.6-1-.9-2-1.8-2.9-2.7-5.9-5.3-12-10.4-18.1-15.4-9.2-7.4-18.6-14.6-27-22.4-2-1.8-8.4-8.5-11.1-11.6l-2.4-3.1c-6.1 30.7.3 80 20.3 106.7-5 18.9-2.1 38.6 9.1 56.8v.2c-.6 7 1.1 13.7 5.1 19.4 2.7 3.7 6.1 6.7 9.9 8.9-4.3 5.8-6.9 12.8-8.4 20.1-2.7-5.1-5.8-10-9.2-14.4-6.6-8.5-14.5-15.5-23.8-20.1.3-1.4.5-2.9.5-4.4 0-10.6-8.6-19.2-19.2-19.2s-19.2 8.6-19.2 19.2c0 10.5 8.6 19.1 19.3 19.1zM79 361.1H60s1.8-14.7 8.7-18.3c4.3-2.3 13.1-1.4 19-.3-6.8 4-9.1 11.3-8.7 18.6zm61.9 2.7c-.1 3-.8 4.7-2.3 4.7H88.8s-.3-.8-.6-2c-.4-1.4-.8-3.3-1-5.4-.3-4.3.4-9.3 5-11.9 8.6-4.8 29.5 4.5 31.4 5.3.1 0 .1.1.1.1 0-.1-.1-.1-.1-.2-6-9.4-11-19.7-14.9-30.2-.7-1.9-1.3-3.8-2-5.7 2.5-.8 5-1.3 7.4-1.6 4.4-.5 8.7-.1 12.7.7.1 0 .2 0 .2.1 2.7.6 5.3 1.4 7.7 2.4.6.2 1.1.5 1.7.7.5.2 1 .5 1.5.7-.1 1.4-.1 2.7-.1 4.1 0 8.2 1 17 1.9 24.4.5 3.9.8 7.5 1 10.4v.2c.2 1.3.2 2.3.2 3.2zm26.4-31c-.5 7.7-1.6 15.2-2.3 22.8-.2 1.8-.4 3.9-.4 5.9l-15.5-.1c-.1-2-.2-4-.4-5.8-.7-7.6-1.8-15.2-2.3-22.8 0-.8-.1-2.1-.1-3.6 5 .9 15.3.9 21.2 0-.1 1.5-.2 2.8-.2 3.6zm59.2 28.3c-.2 2.1-.6 4.1-1 5.4-.3 1.2-.6 2-.6 2h-49.7c-1.6 0-2.2-1.8-2.3-4.7v-3-.2c.1-2.9.5-6.5 1-10.4.9-7.4 1.9-16.2 1.9-24.4 0-1.4 0-2.8-.1-4.1.5-.3 1-.5 1.5-.7.5-.3 1.1-.5 1.7-.7 2.4-1 5-1.8 7.7-2.4.1 0 .2 0 .2-.1 4-.9 8.4-1.2 12.7-.7 2.5.3 5 .8 7.4 1.6-.6 1.9-1.3 3.8-2 5.7-3.8 10.5-8.8 20.8-14.9 30.2 0 .1-.1.1-.1.2l.1-.1c1.9-.8 22.8-10.1 31.4-5.3 4.6 2.4 5.4 7.4 5.1 11.7zm18.5-18.3c6.9 3.6 8.7 18.3 8.7 18.3h-19c.4-7.3-1.9-14.5-8.5-18.6 4.9-.9 13.9-2.3 18.8.3zm-23.4-56.5c9.9 2 15.9 10 15.9 19.3 0 1.3-.1 2.6-.3 4l-20.8 5.5c2.7-9.5 4.6-19.3 5.2-28.8zm17.8 30c-3.9 11.3-11.7 21.3-15 25.2-4.8-2.2-11.1-2.2-17.4-1.1 2.6-5.5 4.9-11.3 6.9-17.3l25.5-6.8zm-84.3-88.9c0-5.6-.1-7.2-.7-25.3 7.5-1.4 13.3-5.6 16-11.1.6-1.3.9-2.4.9-3.5 3.6-1.1 7-2.4 10-3.9 2.3-1.2 4.5-2.5 6.4-4 11.2 4 20.2 10.6 24.2 20.1 14 33.6-40.8 46.7-56.8 27.7zm18.3 16.3c-6.1 3.3-14.2 4.6-20.8 4.4-5-.1-9.6-1.1-13.1-2.7 5.2-1.7 10.1-4.1 14.5-7.2 5.7 3.3 12.6 5 19.4 5.5zm-22.8-59c.1-1.3 3.5-2.2 7.6-1.9 4.1.3 7.4 1.7 7.3 3-.1 1.3-3.5 2.2-7.6 1.9-4.1-.3-7.4-1.6-7.3-3zm32.1-28.2c-2.4-.6-4.9-.1-7 1.3-2.2 1.5-3.9 3.8-4.7 6.8-.4 1.4-1.8 2.2-3.2 1.9-1.4-.4-2.2-1.8-1.9-3.2 1.1-4.2 3.7-7.7 6.9-9.8 3.3-2.2 7.3-3.1 11.2-2 2.7.7 4.9 2.2 6.7 4.2 1.7 2 2.9 4.6 3.4 7.4.3 1.4-.7 2.8-2.1 3-1.4.3-2.8-.7-3-2.1-.3-1.9-1.1-3.6-2.3-4.9-1-1.3-2.4-2.2-4-2.6zm34.2-114.4c8.2 23.3 9.3 63.6 4.1 84.3-4.6-5.8-10.1-10.8-16.3-15-3.1-2.1-6.3-3.9-9.6-5.6 7.6-23.5 21.8-63.7 21.8-63.7zM201 62.8c-1.9 5.5-3.8 11.1-5.7 16.6l-7.8 23.1c-2.4-.9-4.8-1.8-7.3-2.5 5.2-9.5 13.5-24.4 20.8-37.2zm-54 42.4c19.4-2.2 38 2.9 53.1 13 29.6 19.7 38.4 62.3 22 87.9-.5-3.2-1.4-6.4-2.7-9.4-2.5-6.1-6.5-11-11.3-15 3.1-2.5 4.8-5.3 4.9-8.3.1-8.9-8.5-25.2-20.3-34.1-10.7-8.1-27.8-11.2-44.5-9.9l-1.8-24.2h.6zm0 70.6c12-1.4 24.7-.7 35.9 2.4-1.1.7-2.2 1.3-3.4 1.9-3 1.5-6.3 2.8-9.9 3.8-6.6-6.7-31-5.3-36.6 2.1-3.6-.5-7-1.3-10.3-2.2-.8-.2-1.5-.5-2.3-.7 8-3.8 17-6.2 26.6-7.3zM117.2 162c-1.7.2-3.1 1-4.3 2.1-1.3 1.2-2.3 2.8-2.9 4.6-.4 1.4-1.9 2.2-3.3 1.7-1.4-.4-2.2-1.9-1.7-3.3.9-2.7 2.4-5.1 4.3-6.9 2-1.8 4.4-3 7.2-3.4 4-.6 7.9.8 10.9 3.4 2.9 2.5 5 6.3 5.6 10.6.2 1.4-.8 2.8-2.3 3-1.4.2-2.8-.8-3-2.3-.4-3-1.9-5.6-3.8-7.4-1.9-1.6-4.3-2.4-6.7-2.1zm-6.3-51.9c-2 1.3-3.9 2.8-5.7 4.3-3.8-5.2-7.7-10.4-11.5-15.5-2.3-3.1-4.6-6.1-6.9-9.2 8.4 6.8 17.2 14 24.1 20.4zM61.6 69.9s22.7 29.7 37.5 49.9c-2.1 2.1-4.1 4.4-6 6.7-5 6.3-9 13-12 19.8-11-21.9-22.2-62.9-19.5-76.4zm27.8 132.3c-10.9-23.5-7.1-48.8 10.2-70.5 10.9-13.8 26-22.6 42.5-25.7l1.8 23.9c-14.8 1.9-28.7 7.3-37.1 15.9-10.3 10.6-16.4 28-14.9 36.8.5 2.8 2.4 5.1 5.5 7.1-3.4 3.6-6.1 7.8-8 12.5zm5.2 12.8c1-12.7 9.2-22.7 21.1-29.5 1.9.8 3.8 1.5 5.9 2.1 3.3 1 6.7 1.7 10.3 2.3.3 1.9 1.6 4 4.2 6.3 3.6 3.2 9 5.8 13.5 6.3 1.4 15.1 1.6 18.6 2.1 22.7-.1.3-.3.7-.5 1.2-9.3 21.3-59 17.8-56.6-11.4zm14.8 31c1 .3 2 .6 3 .8 5.9 6.7 14.5 12 24.6 15.1-6.5-3.3-11.8-8.1-15.4-13.9h1.6c1.8 0 3.5-.1 5.3-.3 5.7 6 16.5 8.3 23.9 8.5 11.6.3 26.6-3.2 34-12.9 2-.3 4-.6 6-1.1.9 0 1.8.1 2.6.1-3.3 8.3-9.8 15.2-18.3 19.5 11.2-3.4 20.5-9.5 26.4-17.2 12.6 12.5 13.5 39.6 5.8 67.4-2.8-.9-5.7-1.5-8.7-1.8-5-.5-10-.2-14.9.9-.1 0-.2 0-.3.1-3 .7-6 1.6-8.9 2.8-.2.1-.5.2-.7.3-.8-10.6-3.7-19.6-11.1-23.3 2.6 6.5 3.2 22.2 3.2 32.7l-.8.1c-5.2.8-14.4 1-19.5 0l-1-.2c0-10.5.5-26.2 3.2-32.7-7.3 3.7-10.3 12.7-11.1 23.3-.2-.1-.5-.2-.7-.3-2.9-1.2-5.8-2.1-8.9-2.8-.1 0-.2 0-.3-.1-4.9-1-9.9-1.4-14.9-.9-3 .3-5.9.9-8.7 1.8-7.4-26.7-6.8-52.9 4.6-65.9zm-2.7 94.5c-5.7-1-11.4-1.1-16 .5-4.9-4.7-14.7-15.4-18.3-26.7l26.9 7.4c2 6.5 4.5 12.8 7.4 18.8zm-10.3-28.4l-20.2-5.6v-.9c0-9.3 6-17.2 15.9-19.3.5 8.5 2 17.2 4.3 25.8zm-54.9-99.4c6.1 0 11.1 4.9 11.1 11.1 0 6.1-4.9 11.1-11.1 11.1-6.1 0-11.1-4.9-11.1-11.1 0-6.2 5-11.1 11.1-11.1zm540.3-59.6c-1.4 0-2.5 1.1-2.5 2.5s1.1 2.5 2.5 2.5 2.5-1.1 2.5-2.5c-.1-1.4-1.2-2.5-2.5-2.5zm-18.4 85.8c2.9 2.6 6.7 4 10.4 4.1 4.9.1 9.6-1.9 12.3-6.4 6.6-11-36.3-9.6-22.7 2.3zm18.4-74.8c-1.4 0-2.5 1.1-2.5 2.5s1.1 2.5 2.5 2.5 2.5-1.1 2.5-2.5c-.1-1.4-1.2-2.5-2.5-2.5zm-15.6-6c1.4 0 2.5-1.1 2.5-2.5s-1.1-2.5-2.5-2.5-2.5 1.1-2.5 2.5c0 1.3 1.1 2.5 2.5 2.5z"/><path d="M517.1 161.7c-3.4 3.8-6.3 8.1-8.5 12.7-8.6 18.1-20.7 45-12.9 65 1.8 4.6 4.6 8.6 8.3 11.9 4.7 4.2 9.9 7.8 15.4 10.8-.6.7-1.2 1.5-1.8 2.3-3.5 5.2-5.7 11.3-7.1 17.5-8.9 1.2-16.9 5.8-21.7 13.5-.9 1.4-1.7 3-2.3 4.6-1.1-.5-6.4-3-7-2.6-3 24.2 9.8 37 13.3 42.4l-2.4-.1c-7.3-.4-23.1-2.6-29.5.8-8.6 4.6-12.6 16.6-13.7 25.7l-.9 7.5c-.1.8.1 1.5.7 2.1.5.6 1.2.9 2 .9h96.7l12.7-.1c1.1 0 2-.6 2.4-1.6l1.7-4 .1-.2.1-.2.1-.2.1-.2.1-.2.1-.2.1-.2.1-.2.1-.2.1-.2c5.8 1.3 11.8 1.6 17.7.7.2 0 .4-.1.6-.1.2 0 .4-.1.6-.1.4-.1.8-.2 1.2-.2.2 0 .4-.1.6-.1.2 0 .4-.1.6-.1h.1c.2 0 .3-.1.5-.1h.1c.2 0 .3-.1.5-.1v.1l.1.3.1.2.1.2.1.2.1.2.1.1.1.2.1.2.1.2.1.2 1.7 4c.4 1 1.4 1.6 2.4 1.6l12.6.1h96.7c.8 0 1.5-.3 2-.9.5-.6.7-1.3.7-2.1l-.9-7.5c-1.1-9.1-5.1-21.2-13.7-25.7-6.5-3.4-24.3-.7-32.9-.2 8.1-8.5 12.9-19.2 13.8-28l1-15.3-3.7 1.5-3.8 1.6c-.6-1.6-1.4-3.1-2.3-4.6-4.9-7.8-12.9-12.4-21.9-13.6-1.4-6.1-3.6-12.3-7.1-17.4-.7-1-1.4-1.9-2.2-2.8 5.2-2.9 10.1-6.3 14.6-10.3 14.2-12.6 12-32.5 7-48.8-3-9.7-7.2-18.9-11.5-28-2.1-4.4-4.8-8.5-8.1-12.2 32.5-20.6 48.8-53.2 52.5-91 1.5-14.9 1-30-1-44.9-.9-6.6-2-13.1-3.8-19.5-.8-2.8-2.6-4.9-5.2-6.1-2.6-1.2-5.4-1.1-8 .1-26.1 12.7-47.6 39.3-59.2 65.5-5.5 12.4-9.3 25.7-10.9 39.2-.7 5.7-.9 11.5-.8 17.3.2 6.7 1 13.3 2.3 19.8-7.5-1.9-15.5-2.8-23.2-2.2-7.2-.5-14.7.3-21.8 1.9 5.3-25.6 1.1-52.2-9.4-76-12-26.2-33.5-52.8-59.6-65.5-2.6-1.2-5.4-1.3-8-.1-2.6 1.2-4.4 3.3-5.2 6.1-1.8 6.4-2.9 13-3.8 19.5-2 14.8-2.5 30-1 44.9 3.8 37.3 19.8 69.7 51.8 90.3zm-5.5 129.4c0 .3-.1.7-.1 1-.8 6.9-.9 14.1-.3 21.1l-16.8-7.1c1.7-7.7 8-13.8 17.2-15zm42.2 76.1l-8.3.1h-75.1c1.8-14.7 2.2-11.2 19.7-14.7-18.9-3.4-22.2-2.5-25.8 14.6v.2h-7.9s1.8-14.9 8.8-18.6c9.2-4.9 46.1.2 57.2 4.9-15.3-10-31.2-21.9-33.1-42.3L512 321c2.4 15 8.4 31.2 20.7 40 2.9 2.1 6.1 3.7 9.5 4.8 3.8 1.2 7.8 1.8 11.6 1.3v.1zm-9.9-6.6c-2.9-.9-5.6-2.3-8-4-11.8-8.5-17.8-25.8-19.3-43.3 2.7-4.8 8.1-8.2 14.3-9.7 3.6-.9 7.4-1.1 11.1-.7l2.5.3c6.3 7.5 15.5 12.6 21 17.4 1.8 1.6 3.3 3.2 4.1 4.8 1.7 3.4.4 5.3-1.8 6.4-3-4.8-9.3-5.5-9.3-5.5s.3.3 4.1 6.5h-.1c7.2 11.9 2.4 34.5-18.6 27.8zm11.9-54.1c11.6-5.7 25.9-5.6 36.7.5-1 .8-2.1 1.6-3.1 2.3-3.2 2.4-6.6 4.6-9.6 7.3-2.1 1.8-4.1 3.9-5.3 6.4-1.2-2.5-3.2-4.6-5.3-6.4-3-2.6-6.4-4.9-9.6-7.3-1.4-.9-2.6-1.8-3.8-2.8zM584 362c-.2.1-.5.1-.7.2-.2.1-.5.1-.7.2-.2.1-.4.1-.7.1-.3.1-.5.1-.8.2-.2 0-.4.1-.6.1-.3 0-.6.1-.8.1-.2 0-.4.1-.5.1-.3 0-.6.1-.9.1h-.4c-.4 0-.7.1-1.1.1h-.3c-.4 0-.8 0-1.1.1h-1.5c-3.2 0-6.4-.4-9.5-1.1.2-.2.4-.4.6-.5 4.8-4.9 6.6-12.1 6.2-18.9-.1-2-.4-4.1-1-6.1 1.7-.8 3.1-1.9 4.2-3.4.1-.1.2-.2.2-.3.1.1.1.2.2.3 1.1 1.5 2.5 2.6 4.2 3.4-.5 2-.9 4-1 6.1-.4 6.7 1.4 14 6.2 18.9l.3.3h-.5zm70.6-55.9l-17 7.2c.6-7 .5-14.2-.3-21.1 0-.3-.1-.7-.1-1 9.3 1.1 15.6 7.2 17.4 14.9zm5 5.2c-1.9 20.4-17.8 32.3-33.1 42.3 11.1-4.7 48-9.8 57.2-4.9 7 3.7 8.8 18.6 8.8 18.6h-7.9v-.2c-3.7-17-6.9-17.9-25.8-14.6 17.5 3.5 18 0 19.7 14.7h-75.1l-8.3-.1-.1-.1c3.7.5 7.7-.1 11.5-1.3 3.4-1.1 6.6-2.7 9.5-4.8 12.3-8.9 18.3-25 20.7-40l22.9-9.6zm-46.7 45.3c-2.4 1.7-5.1 3.1-8 4-21 6.7-25.8-15.9-18.7-27.8h-.1c3.8-6.2 4.1-6.5 4.1-6.5s-6.3.6-9.3 5.5c-2.1-1-3.5-2.9-1.8-6.4.8-1.6 2.2-3.2 4.1-4.8 5.6-4.9 14.8-9.9 21-17.4l2.5-.3c3.7-.4 7.6-.2 11.1.7 6.2 1.5 11.6 4.9 14.3 9.7-1.3 17.5-7.4 34.8-19.2 43.3zm18.7-66.8c-6.5-2.5-14.9-1.6-21.1.3.1-.5.2-1 .2-1.6-.1-6.6-2-12.2-2-12.2l-4 15.2c-.9 2.9-2.4 5.5-4.5 8.1 0 0 0 .1-.1.1-.5.6-1 1.1-1.5 1.7-.5.6-1.1 1.1-1.7 1.7l-1.8-1.2c-11.2-6.6-25.4-7.3-37.5-2.7-2.3.9-4.6 2-6.6 3.2l-1-1c-.5-.5-1-1.1-1.5-1.7 0 0 0-.1-.1-.1-2.1-2.6-3.7-5.3-4.5-8.2v.2l-2.1-6.7-2.7-8.6s-.4 1.5-.8 3.9c0 .3-.1.6-.1.9-.5 3.2-.5 6.2 0 8.9-6.2-1.9-14.6-2.8-21.1-.3 1.3-8.6 3.7-16 7.1-20.9 1.5-2.2 3.3-3.6 5.2-4.1 1.9 2.3 4.2 4.5 6.8 6.5l.2.1.1.1.2.2.3.2.2.2.1.1.2.1c.2.1.3.2.5.3 5.2 3.5 11.6 6.2 18.8 7.9-7.2-2.8-13.2-7.3-17.2-12.8 21.7 6.5 46.4 6.5 68 0-4 5.6-10 10.1-17.2 12.8 5.1-1.2 9.7-2.9 13.9-5 1.6-.9 4.4-2.6 6.2-3.7v-.1c3-2.1 5.5-4.5 7.6-7.1 2.2.2 4.5 1.7 6.3 4.4 3.5 4.9 6 12.4 7.2 20.9zm5.7-45.5c-32.2 28.6-94.9 28.6-127.1 0-3.3-2.9-5.4-6.5-6.6-10.5 5.3 2 12.4 4.3 21.4 6.3 6.7 1.5 14.5 2.8 23.4 3.5.3.6.6 1.2 1 1.8 4.7 6.6 15.4 8.7 24 8.8 8.7 0 19.8-2.1 24.5-8.8.4-.6.8-1.2 1-1.8 8.9-.8 16.7-2.1 23.4-3.5 9-2 16.1-4.4 21.4-6.3-1 4-3.1 7.6-6.4 10.5zM547 208.7c-1.6-1.8-3.7-2.9-6.1-2.9-1.6 0-3.1.5-4.4 1.4-1.4 1-2.5 2.3-3.3 4-.6 1.3-2.1 1.8-3.3 1.2-1.3-.6-1.8-2.1-1.2-3.3 1.2-2.5 2.9-4.6 5-6 2.1-1.4 4.6-2.3 7.2-2.3 3.9 0 7.4 1.8 9.9 4.7 2.4 2.8 3.9 6.6 3.9 10.8 0 1.4-1.1 2.5-2.5 2.5s-2.5-1.1-2.5-2.5c0-3-1-5.7-2.7-7.6zm48.3 10.1c-1.4 0-2.5-1.1-2.5-2.5 0-4.2 1.5-8 3.9-10.8 2.5-2.9 6-4.7 9.9-4.7 2.6 0 5.1.8 7.2 2.3 2.1 1.5 3.9 3.5 5 6 .6 1.3 0 2.8-1.2 3.3-1.3.6-2.8 0-3.3-1.2-.8-1.6-1.9-3-3.3-4-1.3-.9-2.8-1.4-4.4-1.4-2.4 0-4.5 1.1-6.1 2.9-1.7 1.9-2.7 4.5-2.7 7.5 0 1.4-1.1 2.6-2.5 2.6zm32.8-69.8c-1.9-3.2-4.8-5.8-8.2-7.3-9.8-45.1 14.8-91.9 44.6-115.7 6.2 30.1 3.9 61.7-8.4 89.9 15.6-25.9 17-62.9 11.3-92.2l3.3-2.4c4.5 25.5 10.5 92.7-42.6 127.7zm-2.3 6c-3.8-2.4-7.1-5.5-11.7-6.1-1.3-.2-2.2-1.4-2-2.7.2-1.3 1.4-2.2 2.7-2 5.9 1.9 9 4.9 11 10.8zM669.6 9.4s.5 1.8 1.2 5c-.5.2-.9.4-1.2.7-20.7 14-37.5 36.5-47.1 59.4-8.8 21-12.4 43.8-8.7 66h-.8c-2.4 0-4.7.5-6.8 1.4C594 86.1 631.7 27.8 669.6 9.4zm-93.5 140.4c15.4-.6 43.4 5.5 54.4 28.6 8.4 17.6 15.9 36.2 14.3 50.5-5.3 2-13 4.8-23.2 7-6.2 1.4-13.4 2.6-21.5 3.3 0-1 0-1.9-.2-2.9-.2-.8-.5-1.6-.9-2.4 16.4-2.3 28.9-7.1 29.7-14.6.8-8-5.7-23.4-15.6-32.3-8.6-7.7-22.7-11.9-37-12.4v-24.8zm-2.4 78.4c9.1-.1 20.2 3.4 21.3 8.9 1 5.3-2.5 8.9-7.9 10.9-8.1 2.5-10.9-.8-12.1-2.8-.6-.9-.8-1.4-1.1-1.5h-.2c-.3.1-.6.6-1.2 1.5-1.3 1.9-3.9 4.6-9.5 3.7-6.9-1.8-11.8-5.7-10.6-11.8 1.2-5.5 12.2-9 21.3-8.9zm-1.8-78.3v24.8c-14.2.2-28.2 4-36.8 11.5-10.1 8.7-17 23.9-16.3 32 .6 7.6 13.4 12.8 30 15.4-.5.9-.9 1.8-1.1 2.9-.2 1-.3 2-.2 2.9-8.1-.8-15.3-2-21.5-3.3-10.2-2.3-17.9-5-23.2-7-1.6-14.3 5.9-32.9 14.3-50.5 11-23.5 39.5-29.4 54.8-28.7zm-47.3 5.1c2-5.9 5.2-8.9 11-10.8 1.3-.2 2.5.7 2.7 2 .2 1.3-.7 2.5-2 2.7-4.6.6-7.9 3.7-11.7 6.1zM479.2 9.4c37.7 18.3 75.1 75.8 63.6 131.1-1.8-.7-3.8-1-5.9-1-.6 0-1.2 0-1.8.1 3.5-21.7 0-43.9-8.4-64.5-9.2-22.2-25-44-44.7-58.3-.8-.6-1.6-1.2-2.5-1.7-.3-.2-.8-.6-1.4-1 .6-3 1.1-4.7 1.1-4.7zm-.6 12.7c.8.6 1.7 1.2 2.5 1.8-5.7 29.3-4.3 66.3 11.3 92.2-12.3-28.3-14.6-59.8-8.4-90 29.9 23.5 54.6 70.4 44.6 115.5-3.5 1.9-6.2 4.9-7.8 8.5-53.9-35.3-46.7-104.1-42.2-128z"/><path d="M566.2 169.1c1.4 0 2.5-1.1 2.5-2.5s-1.1-2.5-2.5-2.5-2.5 1.1-2.5 2.5 1.1 2.5 2.5 2.5zm-216.5-41.4c1.3 0 2.4-1 2.4-2.4 0-1.3-1-2.4-2.4-2.4-1.3 0-2.4 1.1-2.4 2.4s.9 2.4 2.4 2.4zm0 11c1.3 0 2.4-1.1 2.4-2.4 0-1.3-1-2.4-2.4-2.4-1.3 0-2.4 1.1-2.4 2.4-.1 1.2.9 2.4 2.4 2.4z"/><path d="M261.2 163.6c2.9 5.3 6.5 10.5 10.5 15.1-.6 3-1 6-1.4 9-.6 5.2-1 10.3-.9 15.6 0 2.3 0 4.4.3 6.6.4 6.2 6.2 13.6 10 18.4 6.9 8.5 14.8 14.9 23.4 19.8.1.4.3.7.4 1 1 2 2.2 3.9 3.6 5.6-3 6.2-4.9 12.6-5.9 19.4-1.1 5-1.7 10-2 15.1-1.9.9-3.6 2-5.3 3.3-4.6 3.6-7.9 8.6-9.8 14.2-.6 1.6-1 3.2-1.3 4.7l-2.7-.7-.3 1.9c-1.3 8.5-.7 15.8 2.7 23.2-2.9.4-5.7 1.4-8 3.3-1.7 1.4-3.2 3.3-4 5.3-1.7 3.9-3.4 8.3-3.4 12.5 0 3.2 1 6.3 3.4 8.3 1.4 1.1 3.3 1.9 5.2 1.9h27.4c1.6 4.4 4.7 8.5 9.3 9.6 1.3.4 2.6.4 3.9.6 1.4.1 2.7.1 4.2.1h10.8c5.6 0 11.2-.1 16.8-.3 3.4-.1 6.5-2.2 7.9-5.2 1.4 3 4.4 5 7.9 5.2 5.6.1 11.2.3 16.8.3h10.8c1.4 0 2.7-.1 4.2-.1 1.3-.1 2.6-.3 3.9-.6 4.6-1.3 7.7-5.3 9.3-9.6h27.7c1.9 0 3.7-.7 5.2-1.9 2.4-2 3.4-5.2 3.4-8.3 0-4.3-1.7-8.6-3.4-12.5-2.4-5.3-7-7.9-12.3-8.6 2.6-5.6 3.6-11.2 3.3-17.2 12.2-3 21.5-9 29.4-18.8 17.1-21.3 19.5-52.8-1.3-72.6-6.1-5.9-17.2-4.5-23 1.2-7.2 7.2-4.4 17.1 1 24.5 5.2 7 6.7 8.5 5.6 17.5-1.6 12.4-13.7 20.9-25.8 24.2-.3-.3-.7-.6-1.1-.9l-2.3-1.5c-.2.3-.3.5-.3.5l-3.7-6 .9-6.5c-.3-1.8-.7-3.7-1.1-5.5-.6-4-1.4-7.9-2.7-11.6-.6-1.9-1.3-3.6-2-5.3 1-1.1 2-2.3 2.9-3.7.9-1.4 1.7-3 2.4-4.6.1-.4.3-.7.4-1 8.6-4.9 16.5-11.3 23.4-19.8 4-4.9 9.5-12 10-18.5.1-2.2.3-4.3.3-6.6.1-5.4-.1-10.8-.9-16.1-.4-2.9-.9-5.7-1.4-8.6 4-4.6 7.6-9.6 10.5-15.1 4.6-8.6 7.6-17.8 8.7-27.4 1.1-9.6.3-19.1-2.2-28.4-1.3-4.7-5.4-7.9-10.3-7.9-18.1 0-33.7 7.5-48.2 16.9-27.2-16.8-61.7-16.6-88.8 0-14.5-9.6-30.1-16.9-48.2-16.9-4.7 0-8.9 3.3-10.2 7.9-2.4 9.3-3.3 18.9-2.2 28.4 1 9.5 4 18.8 8.6 27.2zm26.1 58.4c-1.6-1.9-2.7-3.6-3.7-5.2 5.6 2 13.2 4.4 23.1 6.6 5.9 1.3 12.5 2.4 19.8 3.2.3.6.6 1.1.9 1.7 3.2 5.4 8.5 8.7 14.3 10.8-3.2 1.3-5.6 3.3-6.2 6.6-.1 1.3 0 2.6.4 3.9v.1c-4.6-1-9.2-2.2-13.6-3.7-14.1-4.9-25.7-12.7-35-24zm37.1-39.7c-1.6 0-3.2.6-4.4 1.4-1.4 1-2.6 2.3-3.3 4-.6 1.3-2.2 1.9-3.3 1.1-1.3-.6-1.9-2.2-1.1-3.3 1.1-2.4 2.9-4.6 5-6 2.2-1.4 4.6-2.3 7.2-2.3 3.9 0 7.3 1.7 9.9 4.6 2.6 2.9 4.2 6.6 4.2 10.8 0 1.4-1.1 2.6-2.6 2.6-1.4 0-2.6-1.1-2.6-2.6 0-2.9-1-5.6-2.7-7.5-1.7-1.8-3.8-2.8-6.3-2.8zm73.3 79.3c3.7 9 5.9 21.5 3.9 38-.6 3.9-1.1 7.6-1.9 11.2-8.5-4.7-20.1-.9-29 4.2-1.1-16.3-4.7-28.4-6.2-32.8-1.3-4-6.2-3.3-6.3.4.6 1.7 1 4.2 1.4 6 .7 3.3 1.3 6.6 1.7 9.9.7 5.4 1.6 11.3 2 16.9 0 1.3.1 2.4.1 3.7-5.3.7-10.6.7-15.9.1 0-1.3 0-2.6.1-3.9.1-2.3.4-4.4.7-6.7.4-3.4.9-6.9 1.4-10.3.6-3.4 1-7 1.7-10.5.3-1.3.6-3 1-4.6.1-3.7-2-3.9-3.3-3.7-1.1.1-2 1.1-2.7 3.2-1.4 4.7-4.7 16.3-5.9 31.8-9.8-6.6-17.6-8.6-29-3.4-.7-3.6-1.4-7.5-1.9-11.5-2.2-17.8.6-31 4.9-40.3 6.7 4.7 15.3 7.3 23.9 8.7-9.5-3.2-16.3-8.9-21.1-15.2 2.2.7 4.4 1.6 6.6 2.2 5.3 2.9 10.9 5 16.8 6.5 6.9 1.7 13.8 2.3 20.8 1.9 5.6-.4 11.2-1.4 16.6-3.2 4.6-1.4 8.7-3.2 11.9-5 2.3-.6 4.4-1.3 6.6-2.2-5.2 6.7-12.5 12.8-22.9 15.8 8.7-1.1 17.3-3.2 24-7.2zm-24.4-13.8c-.9 1.6-3 2.7-5.6 3.6-3.4.3-6.9.6-10.3.9-3.4-.1-6.9-.4-10.2-.9-2.9-1-5-2.3-5.7-4-2.3-6.3 35.3-6.5 31.8.4zm-70.8 48.8c.1 1.3.3 2.6.4 4 .9 7.3 2.3 14.5 4.2 21.5-5-2.6-11-5.3-16.5-7 1-8.1 5.1-15.2 11.9-18.5zm1.3 62.2H276c-2.7-2.3.3-23.4 27.7-11-6-4.9-16.3-11.3-16.1-27.5 5.3 1.4 14.2 5.5 22.1 9.6 1.3 3.6 2.6 7.2 4.2 10.6.4 1.3 1 2.4 1.6 3.6-2.7.9-5.2 2.2-7.2 4.3-2.9 2.8-4.4 6.5-4.5 10.4zm44.1 9s-30.1.9-33 0c-2.9-.9-6.5-9.5-1.6-14.5 2.2-2.3 5.4-2.9 8.3-2.9 5.9 1.3 9.6 5 13.6 10-.9-8.7-5.9-11-9.3-13.2-1.1-.7-1.6-1-2.2-2.1-2.9-5.5-7-14.5-10.2-26.4 9-6.2 19.9-2 27 4.2.3 17.1 3.9 33 6.2 36.1 2.5 3.2 1.2 8.8 1.2 8.8zm11.7-12.7c-.3.6-.6 1-.9 1.6h-4.9c-.3-.6-.7-1.3-1.1-1.9-.4-.7-.9-2.3-1.1-3.2-.9-3-1.6-6.2-2-9.2-1-5.7-1.6-11.5-1.6-17.4 5.4.7 11 .7 16.5-.1-.1 6.7-.9 13.5-2 20.1-.5 2.3-1.7 8.1-2.9 10.1zm37.2 12.7c-2.9.9-33 0-33 0s-1.3-5.6 1.1-8.7c2.3-3.2 5.9-19.1 6.2-36.1 7-6.2 17.9-10.3 27-4.2-3.2 11.9-7.3 20.9-10.2 26.4-.6 1.1-1 1.4-2.2 2.1-3.4 2.2-8.5 4.4-9.3 13.2 4-5 7.7-8.7 13.6-10 2.9 0 6.2.6 8.3 2.9 5 5 1.4 13.6-1.5 14.4zm39.2-9h-28.2c-.1-3.7-1.6-7.3-4.3-10-2.2-2.2-4.7-3.6-7.5-4.3 2.2-4.6 4-9.3 5.4-14.1 8-4.3 17.4-8.7 22.9-10.2.3 16.2-10 22.7-16.1 27.5 27.4-12.3 30.5 8.8 27.8 11.1zm24.7-69.1c-1.1.1-2.4 0-3.8-.3-1.6-.4-3.3-1-4.9-1.9-2.1-1.2-4-3-5.2-5.3 1.5-2.5 2.6-5.1 3.3-8 2.5 1.5 5.3 2.2 8.1 2.4 2.3.1 4.6-.1 6.6-.7.7-.2 1.4-.4 2-.6-1.3 5-3.4 9.9-6.1 14.4zm7.4-20.3c-.2.1-.3.3-.5.4-1 .7-2.3 1.3-3.9 1.7-1.6.4-3.4.6-5.2.5-2.7-.2-5.4-1-7.6-2.8.4-3.8.2-6.6-.4-9 3.9 0 7.4-1.5 10.3-3.7 2-1.5 4.5-4.2 6-7.1 1.9 6.5 2.3 13.3 1.3 20zm-24.2-20.5c-12.1-16.5 6.4-22.2 12-16.9 3.4 3.3 6.1 6.9 8.2 10.8 0 4.1-2.6 7.6-6 10.1-2.6 2-6 3.2-9.6 2.6-1.2-2-2.7-4.1-4.6-6.6zm.1 37.4c1.5 2.2 3.5 3.9 5.7 5.2 2 1.2 4.1 2 6.2 2.4.6.1 1.2.2 1.7.3-.4.5-.7.9-1.1 1.4-3.7 4.7-7.6 8.1-11.7 10.6-.9-.4-1.9-.9-2.8-1.6-1.3-1-2.6-2.3-3.6-3.8-1.5-2.1-2.5-4.6-2.5-7.2 3.1-2.1 5.8-4.6 8.1-7.3zm-12.4 10c.5 2.6 1.6 5.1 3.1 7.2 1.3 1.9 3 3.5 4.6 4.8.3.2.5.4.8.6-3.6 1.7-7.1 2.4-10.6 4-1.5-6.8-3.9-9.1-6.5-12.8 3-1.1 5.9-2.3 8.6-3.8zm-22.7 4.1c.3-1.3.4-2.7.6-4 6.9 3.2 11.2 10.5 12 18.5-5.6 1.6-11.6 4.4-16.8 7 1.9-7 3.3-14.1 4.2-21.5zm19.3-79.7c-5.3 6.3-10.9 12.2-17.8 16.6-9.6 6.2-20.2 10-31.7 12.3.6-1.3.7-2.7.4-4.2-.6-3.2-3-5.2-6-6.5 5.9-1.9 11.2-5.3 14.3-10.6.3-.6.6-1.1.9-1.7 7.5-.9 14.1-1.9 19.8-3.2 9.8-2.2 17.4-4.6 22.9-6.6-.7 1.5-1.8 2.6-2.8 3.9zm-43.8-35.5c-1.7 1.9-2.7 4.6-2.7 7.5 0 1.4-1.1 2.6-2.6 2.6-1.4 0-2.6-1.1-2.6-2.6 0-4.2 1.4-7.9 4.3-10.8 2.6-2.9 6-4.6 9.9-4.6 2.6 0 5 .9 7.2 2.3s3.9 3.6 5 6c.6 1.1 0 2.7-1.3 3.3-1.1.7-2.7.1-3.3-1.1-.7-1.7-1.9-3-3.3-4-1.3-.9-2.9-1.4-4.4-1.4-2.5-.1-4.7.9-6.2 2.8zm64.5-74.8h.9c.1.1.1.1.3.1 6.9 25.8-3.4 45.7-11.5 56.6-2.9-8.7-6.7-17.1-12-24.7-1-1.4-2-2.9-3.2-4.3 6.6-11 15.5-22.2 25.5-27.7zm-14.1 2.2c-4.2 3.9-7.9 8.5-11.2 13-1.7 2.3-3.3 4.7-4.9 7.3-2.9-3.2-6-6-9.2-8.6 8-5 16.5-9.3 25.3-11.7zm-75.2 2c22.7.6 45.2 11.5 59.8 32.8 19.2 27.7 15.5 61.4 15.5 61.4 0 .7-.3 1.6-.6 2.4-5.5 2.2-14.3 5.4-27 8.2-5.2 1.1-11 2.2-17.5 2.9.4-2.3.4-4.9 0-7.3-.3-1.9-.9-3.4-1.7-5 17.1-2.9 30-8.3 30.7-16.2.9-9-6.6-26-17.8-35.8-9.8-8.6-25.4-13-41.4-13.3v-30.1zm-2 87.9c11.2-.1 25 5 26.4 13.3 1.3 7.9-3.2 13.2-9.8 16.3-10 3.7-13.5-1.1-15.1-4.2-.7-1.4-1-2.3-1.4-2.3h-.1c-.4.1-.9.9-1.6 2.2-1.6 2.7-4.9 7-11.8 5.6-8.5-2.7-14.6-8.5-13-17.6 1.4-8.3 15-13.3 26.4-13.3zm-2.2-87.9v29.8c-16.1.4-31.8 4.9-41.4 13.5-11.2 9.9-18.6 26.8-17.8 35.8.7 8 13.6 13.5 30.7 16.3-.9 1.6-1.4 3.2-1.7 5-.4 2.4-.4 4.9 0 7.3-6.5-.7-12.3-1.7-17.5-2.9-12.5-2.6-21.4-6-26.8-8-.7-1.7-.7-2.6-.7-2.6s-3.6-33 14.8-60.4c14.5-21.8 37.3-33.1 60.4-33.8zm-50.2 9.8c-3.2 2.6-6.3 5.4-9.2 8.6-1.6-2.6-3.2-5-4.9-7.3-3.2-4.6-6.9-9.2-11.2-13 9 2.3 17.4 6.6 25.3 11.7zm-40.1-13.8c-.1 0 0 0 .1-.1h.9c10 5.4 18.9 16.6 25.5 27.8-1.3 1.7-2.6 3.6-3.9 5.3-4.9 7.3-8.6 15.3-11.2 23.7-8-11-18.3-30.9-11.4-56.7z"/><path d="M365.2 133.8c-1.3 0-2.4 1.1-2.4 2.4 0 1.3 1 2.4 2.4 2.4 1.3 0 2.4-1.1 2.4-2.4 0-1.2-1-2.4-2.4-2.4zm0-11c-1.3 0-2.4 1.1-2.4 2.4s1 2.4 2.4 2.4c1.3 0 2.4-1 2.4-2.4 0-1.3-1-2.4-2.4-2.4zM357.4 223h.1c6.7 0 17.1-3.4 15.8-10.5-.7-4.2-9-6.2-15.9-6.2-6.7 0-15.1 2-15.9 6.2-1.3 7.1 9 10.5 15.9 10.5z"/><g><path d="M413.9 533.9l-11.8 32.6c-1.6 4.4-3.4 10.2-5.3 17.5h-.4l-21.7-50.1h-38.6l-20.3 56.2-5.7 15.9h26.1l11.7-32.5c1.5-4.2 3.3-10.3 5.2-18.3h.6l21.6 50.8H414l26-72.1h-26.1zm-103.2 56.2h-35.4l4.9-13.6H313l5.6-15.6h-32.8l4.1-11.3h35.4l5.7-15.7h-65L240 606H305.1l5.7-15.9zM685.4 390l-16 46.8c-4.8 14.1-8.3 28-10.5 41.5-.8-8.7-2.8-18.9-6.2-30.4L635.6 390h-45.8l-15.3 44.8c-.4-8.8-2.7-16.6-6.9-23.4-8.9-14.2-24.3-21.4-46.1-21.5h-143l-39.1 37.9h32.4L339 523.5h46l32.7-95.6h24c-10.7 12.2-18.8 26.4-24.4 42.5-7.5 21.5-8.2 39.3-2 53.1h117.1c7-6.2 13.2-13.1 18.7-20.7l-7.1 20.7h39.4l17.8-52c2.4-7.1 4.1-15.8 5-25.9 1 13 2.8 23.9 5.3 32.8l19.6 69.7h39.6L725 390h-39.6zm-168.1 75.9c-6.5 18.7-12.8 31.6-18.8 38.7-6 7.1-13.2 10.6-21.4 10.6-15.4 0-18-14.5-8-43.6 10.8-31 24.1-46.4 40.1-46.4 14.8.1 17.5 13.6 8.1 40.7zm-290.6 68L202.1 602l-17.9-27.4c14-4.6 22.5-11 25.5-19.4 5.1-14.2-7.2-21.3-36.9-21.3H68.4l-26 72.1h29.1l9.8-27.1H114l5.7-15.7H87l5-13.7h39.5L111.1 606h29.5l9.5-26.2h7.5l13.7 26.2h59l26-72.1h-29.6zm-47 22.2c-2.2 6-8.4 9-18.8 9h-5.5l5.9-16.4h5.9c10 0 14.2 2.4 12.5 7.4z"/><path d="M530.1 568.4c4-11.2 2.3-19.7-5-25.7-7.4-5.9-19.9-8.9-37.4-8.9h-37.8l-5.6 15.7c11.7 0 39-1.7 48.8 1.5 2.5.8 4.3 1.9 5.7 3.4 2.8 3.2 3 8.1.6 14.7-2.6 7.1-6.6 12.3-12 15.7-5.4 3.4-12.6 5.2-21.6 5.2h-6.6l9-24.8h-29.5L423.8 606h35.4c18.2 0 33.5-3.3 45.9-9.8 12.3-6.5 20.7-15.7 25-27.8z"/><path d="M553.2 538.4c-8.7 3.7-14.2 8.9-16.6 15.5-1.3 3.5-1.5 6.7-.7 9.2.8 2.6 2.6 4.9 5.4 6.9 2.8 2 7.4 4.1 13.8 6.2 7 2.3 11.3 3.9 12.8 4.7 1.6.7 2.6 1.5 3.2 2.2.6.7.7 1.6.3 2.6-.6 1.6-2.1 2.9-4.5 3.9-4.1 1.7-35.5.6-42.7.6l-17.7 16.3 43.9.5c8.7.1 16.7-1 23.8-2.9 7.2-1.9 13.1-4.6 17.8-8.1 4.7-3.5 7.8-7.4 9.4-11.9 1.8-4.9 1.4-8.9-1.1-12.1-2.5-3.2-7.9-6.2-16.4-9-8.8-3-14-5-15.8-6.1-1.8-1.1-2.5-2.4-2-3.8.5-1.3 1.7-2.4 3.8-3.3 2.1-.9 5-1.3 8.9-1.3 7.4 0 15.7 1.6 24.8 4.6l14.5-15c-10.5-3.5-21.4-5.2-32.7-5.2-12.8 0-23.6 1.9-32.2 5.5zM366.3 390h-43.6l-65.8 65.2 22.4-65.2h-45.8l-38 111.1-7.5 22.4h45.6l4.1-11.9 24.2-22.9 4.1 34.8h52.2l-11.6-75.8zM127.5 510.4l8.8-25.8h57.5l11.7-35.1h-57.2l7.9-23h56.3l12.4-36.5H21.4l-13 37.9h32.7L0 548.1h45.5l2.9-7.1 38.7-113.1H108l-32.7 95.6h105.5l4.4-13.1z"/></g></svg>
