<?xml version="1.0" encoding="UTF-8"?><svg id="Layer_1" xmlns="http://www.w3.org/2000/svg" xmlns:xlink="http://www.w3.org/1999/xlink" viewBox="0 0 201.06 199.56"><defs><style>.cls-1{fill:url(#linear-gradient-2);}.cls-2,.cls-3{fill:#fff;}.cls-3{opacity:.76;}.cls-4{fill:#2916fc;}.cls-5{fill:#000d33;}.cls-6{fill:url(#linear-gradient);}</style><linearGradient id="linear-gradient" x1="97.41" y1="116.84" x2="171.78" y2="116.84" gradientUnits="userSpaceOnUse"><stop offset="0" stop-color="#ff7879"/><stop offset=".21" stop-color="#fb767a"/><stop offset=".36" stop-color="#f27280"/><stop offset=".5" stop-color="#e26a8a"/><stop offset=".63" stop-color="#cb6098"/><stop offset=".75" stop-color="#ad52aa"/><stop offset=".86" stop-color="#8941c0"/><stop offset=".98" stop-color="#5f2dd9"/><stop offset="1" stop-color="#5529e0"/></linearGradient><linearGradient id="linear-gradient-2" x1="137.1" y1="124.77" x2="171.79" y2="124.77" xlink:href="#linear-gradient"/></defs><path class="cls-6" d="M171.78,95.05l-33.13,57.36c-.44,.76-.95,1.45-1.54,2.08h-17.97l-16.77-29.05-4.96-8.61,8.5-14.72,6.96-12.07,6.27-10.85h43.48l9.16,15.86Z"/><path class="cls-4" d="M177.56,85.03l-5.78,10.02-9.16-15.86h-43.48l-6.27,10.85-6.96,12.07-8.5,14.72,4.96,8.61,16.77,29.05h17.97c-2.19,2.39-5.31,3.8-8.64,3.8H50.66c-4.2,0-8.08-2.24-10.18-5.88L1.58,85.03c-2.1-3.64-2.1-8.13,0-11.77L40.47,5.88c2.1-3.63,5.98-5.88,10.18-5.88h77.81c4.2,0,8.08,2.25,10.18,5.88l38.91,67.38c2.1,3.64,2.1,8.13,0,11.77Z"/><path class="cls-2" d="M80.22,39.33h-13.8c-2.05,0-3.7,1.65-3.7,3.7V115.27c0,2.04,1.65,3.69,3.7,3.69h13.8c.21,0,.42-.02,.62-.05,1.74-.29,3.08-1.81,3.08-3.64V43.03c0-2.05-1.66-3.7-3.7-3.7Zm23.31,33.58l1.24-1.83,2.09-3.11,15.42-22.88c1.66-2.45-.1-5.76-3.06-5.76h-13.13c-1.27,0-2.45,.65-3.12,1.72l-19.05,30.03-2.3,3.63c-.72,1.15-.76,2.59-.11,3.78l2.41,4.35,6.88,12.42,9.34,16.85,5.77-10,6.13-10.61-8.63-14.64c-.49-.82-.63-1.78-.43-2.69,.1-.44,.29-.87,.55-1.26Z"/><path class="cls-5" d="M200.35,112.26c-.32-1.02-.75-2.01-1.3-2.96l-22.56-39.08c-.67-1.15-1.48-2.21-2.42-3.14-2.79-2.77-6.61-4.39-10.64-4.39h-45.13c-4.43,0-8.62,1.97-11.45,5.28-.6,.7-1.13,1.44-1.6,2.25l-.49,.86-1.79,3.09-6.7,11.61-5.48,9.48-6.88,11.93-1.22,2.11c-.04,.08-.08,.15-.12,.23-1.61,2.88-2.19,6.19-1.74,9.38,.25,1.9,.88,3.76,1.86,5.47l22.56,39.07c2.69,4.65,7.69,7.54,13.05,7.54h45.13c.5,0,.99-.02,1.47-.07l16.03,25.61c1.89,3.02,5.92,3.93,8.93,2.05l.97-.61c3.03-1.89,3.95-5.91,2.07-8.92l-16.23-25.92,22.38-38.75c2.13-3.71,2.57-8.13,1.3-12.12Zm-20.92,13.09l-16.82,29.14h-43.48l-16.76-29.05-4.97-8.61,2.73-4.72,5.77-10,6.13-10.61,.84-1.46,6.26-10.85h43.48l9.18,15.89,12.55,21.75-4.91,8.52Z"/><path class="cls-3" d="M121.76,118.96h-15.64c-1.35,0-2.58-.73-3.24-1.9l-2.74-4.95,5.77-10,6.13-10.61,12.9,21.89c1.46,2.46-.32,5.57-3.18,5.57Z"/><path class="cls-1" d="M171.79,95.09l-34.31,59.4h-.38c.59-.63,1.1-1.32,1.54-2.08l33.13-57.36,.02,.04Z"/></svg>