<svg id="图层_1" data-name="图层 1" xmlns="http://www.w3.org/2000/svg" viewBox="0 0 416.46 61.2"><defs><style>.cls-1,.cls-2{fill:#231815;}.cls-2{opacity:0.3;}</style></defs><path class="cls-1" d="M72.45,2.59H30.22a22,22,0,0,0-19,11L1.2,30.94l10,17.39a22,22,0,0,0,19,11H72.45a20.7,20.7,0,0,1-5.54-14c0-9.42,5.39-14.39,5.39-14.39s-5.39-5-5.39-14.39A20.71,20.71,0,0,1,72.45,2.59Zm-12.52,49H30.22a14.24,14.24,0,0,1-12.3-7.1L10.11,30.94l7.81-13.53a14.24,14.24,0,0,1,12.3-7.1H59.93a25.14,25.14,0,0,0-.83,6.24,25.83,25.83,0,0,0,4.19,14.39A25.77,25.77,0,0,0,59.1,45.32,25.22,25.22,0,0,0,59.93,51.57ZM98.84,20.2V41.68H94.31V36.51H84.66a11.06,11.06,0,0,0-3.79,8.17,17.2,17.2,0,0,0,8,14.6H79.31a20.1,20.1,0,0,1-6-14,20.64,20.64,0,0,1,5.39-14.39,20.67,20.67,0,0,1-5.39-14.39,20.11,20.11,0,0,1,6-14h9.56a17.2,17.2,0,0,0-8,14.61,11.06,11.06,0,0,0,3.79,8.17h9.65V20.2Z"/><path class="cls-2" d="M30.22,51.57H59.93a25.22,25.22,0,0,1-.83-6.25,25.77,25.77,0,0,1,4.19-14.38H10.11l7.81,13.53A14.24,14.24,0,0,0,30.22,51.57Z"/><path class="cls-1" d="M147,19c4.64,0,7.59,1.3,9.26,4.27h7.78c-1.2-6.57-8.1-10.8-17-10.8-12.73,0-19.84,8.89-19.84,19.85S134.3,52.2,147,52.2c8.94,0,15.24-3.55,17-10.8h-7.78c-1.95,3.35-4.62,4.28-9.26,4.28-8.54,0-12.16-5.74-12.16-13.32S138.49,19,147,19Z"/><path class="cls-1" d="M414.65,37.74c0-7.55-4.14-13.67-13.67-13.67s-13.67,6.12-13.67,13.67S391.45,51.41,401,51.41h11.49V45.6H401c-4,0-5.5-2.13-6-5.1h19.65ZM395,35.24c.44-3.11,2-5.36,6-5.36s5.59,2.25,6,5.36Z"/><path class="cls-1" d="M237.41,23.53c-9.11,0-13.56,6.36-13.56,14.21s4.45,14.2,13.56,14.2S251,45.58,251,37.74,246.53,23.53,237.41,23.53Zm0,22.82c-5.09,0-6.6-3.85-6.6-8.61s1.51-8.62,6.6-8.62S244,33,244,37.74,242.51,46.35,237.41,46.35Z"/><path class="cls-1" d="M209.3,24.06h-8.58v5.3h6.93a5,5,0,0,1,4.91,4.22h-6.9c-5.46,0-9.87,4-9.87,8.91s4.41,8.92,9.87,8.92h13.81V34.24A10.18,10.18,0,0,0,209.3,24.06Zm3.34,22.05h-5.23c-2.67,0-4.8-1.18-4.8-3.33s2.17-3.9,4.84-3.9h5.19Z"/><path class="cls-1" d="M342.74,24.06h-8.58v5.3h6.93A5,5,0,0,1,346,33.58h-6.9c-5.46,0-9.87,4-9.87,8.91s4.41,8.92,9.87,8.92h13.81V34.24A10.18,10.18,0,0,0,342.74,24.06Zm3.34,22.05h-5.23c-2.67,0-4.8-1.18-4.8-3.33s2.17-3.9,4.84-3.9h5.19Z"/><path class="cls-1" d="M270.73,35.89c-3.11-1.37-10.63-2.32-10.72-4.08-.08-1.14.78-2,3.4-2h10.06V24.05H263.29c-5.43,0-9.37,3.14-9.37,7.45a7.58,7.58,0,0,0,4.85,7.12c2.4.87,10.54,2.15,10.54,4.38,0,1.73-1.58,2.43-3.38,2.43H255.3v6H266c6.34,0,9.71-3.76,9.71-8.57C275.75,39.47,274.13,37.4,270.73,35.89Z"/><path class="cls-1" d="M308.15,32.26a9.92,9.92,0,0,0,3.42-7.49c0-5.89-5.26-10.41-11.75-10.41h-18V51.41h18.24c6.68,0,12.09-4.92,12.09-11A10.54,10.54,0,0,0,308.15,32.26ZM288.64,20.08H299c3.18,0,5.71,1.57,5.71,4.69s-2.57,4.64-5.74,4.65H288.64ZM299.4,45.69H288.64V35.14h10.81c3.27,0,5.87,2,5.87,5.21S302.67,45.69,299.4,45.69Z"/><polygon class="cls-1" points="317.27 51.41 324.1 51.41 324.1 14.36 317.27 16.27 317.27 51.41"/><path class="cls-1" d="M182.05,24.06h-6.46v-9.7l-6.83,1.91V51.41h6.83v-22h4.19a4.29,4.29,0,0,1,4.29,4.3V51.41h6.83V32.91A8.85,8.85,0,0,0,182.05,24.06Z"/><path class="cls-1" d="M375.63,26.48H370c-8.69,0-12.46,5.58-12.46,12.46S361.3,51.41,370,51.41h12.47v-37l-6.83,1.91Zm0,19.63H370c-4.68,0-5.63-3.21-5.63-7.17s.95-7.16,5.63-7.16h5.64Z"/></svg>