<svg id="Layer_1" data-name="Layer 1" xmlns="http://www.w3.org/2000/svg" viewBox="0 0 352 143.67464"><defs><style>.cls-1{fill:#fff;}</style></defs><path class="cls-1" d="M281.51468,131.16539a17.18635,17.18635,0,0,1-2.97635-.67143,30.87787,30.87787,0,0,1-9.50851-4.85422,40.7292,40.7292,0,0,1-7.69907-7.57733,54.72647,54.72647,0,0,1-6.81149-11.339,66.66828,66.66828,0,0,1-4.05661-11.95775c-.402-1.67157-.75434-3.35608-.99994-5.059-.12029-.83393-.20227-1.67447-.26985-2.51458-.06766-.84051-.09673-1.68415-.14051-2.52653a4.09587,4.09587,0,0,1-.00877-.506c.09735-1.34487.08571-2.695.27324-4.03656a30.00872,30.00872,0,0,1,.81036-3.95884,25.1202,25.1202,0,0,1,3.961-8.03572,34.45377,34.45377,0,0,1,5.47444-5.80837,60.42906,60.42906,0,0,1,9.58319-6.581c2.34632-1.33767,4.75046-2.566,7.19724-3.70806,1.4671-.68478,2.95489-1.32542,4.43695-1.9778,3.86011-1.6992,7.70206-3.4374,11.51117-5.249,3.01776-1.43519,6.00149-2.93567,8.93793-4.52952,2.78921-1.51395,5.52166-3.12469,8.16021-4.89006a62.92375,62.92375,0,0,0,7.06528-5.41722,38.67042,38.67042,0,0,0,6.24765-7.01572,27.43744,27.43744,0,0,0,4.17859-9.48115,29.59764,29.59764,0,0,0,.53757-3.39441c.11264-1.07789.13726-2.15359.142-3.23335a29.52472,29.52472,0,0,0-.32-4.03129c-.00577-.0434.0274-.092.04239-.13818a.80918.80918,0,0,1,.13644.14126,2.75305,2.75305,0,0,1,.17941.35892,45.35722,45.35722,0,0,1,2.42307,8.025c.21939,1.09245.40463,2.19116.51986,3.29569a34.74074,34.74074,0,0,1,.21369,5.35575,35.7315,35.7315,0,0,1-4.66971,15.97267,47.40488,47.40488,0,0,1-5.29416,7.52188A67.47452,67.47452,0,0,1,313.935,50.2234a97.00973,97.00973,0,0,1-11.9635,8.82954A163.44023,163.44023,0,0,1,285.205,68.2476c-2.7666,1.33247-5.56537,2.59395-8.37571,3.83052a2.12882,2.12882,0,0,0-.3363.20835.12036.12036,0,0,0-.02951.09352c.00092.015.043.04139.06415.03939.56958-.0536,1.14172-.08968,1.70761-.17,2.03674-.28919,4.06528-.62291,6.07541-1.06956A81.355,81.355,0,0,0,305.711,63.04408a74.72006,74.72006,0,0,0,9.50912-6.15769,56.5688,56.5688,0,0,0,7.4206-6.72121,35.35619,35.35619,0,0,0,4.71475-6.31546c.4353-.76041.81555-1.55228,1.222-2.32925.078-.1491.15863-.297.2443-.44169.00851-.01435.0632-.0092.09286-.00065.02368.00683.06043.03324.05985.0499-.02249.67339-.04337,1.34691-.077,2.01978-.01175.23511-.06848.46782-.08322.703-.07187,1.14559-.24036,2.27933-.38846,3.41639-.20932,1.607-.50751,3.19659-.866,4.77505A43.98375,43.98375,0,0,1,324.442,61.2198a35.70548,35.70548,0,0,1-4.95722,7.73409,37.47382,37.47382,0,0,1-7.94507,7.00975A54.45679,54.45679,0,0,1,303.354,80.382a113.58944,113.58944,0,0,1-10.899,4.0635q-4.95424,1.61466-9.91031,3.22361c-1.05823.34455-2.11814.68462-3.17136,1.044a25.864,25.864,0,0,0-6.41925,3.1791,19.65942,19.65942,0,0,0-6.39306,7.18907,19.07544,19.07544,0,0,0-1.94178,6.14568,17.8898,17.8898,0,0,0-.20193,3.83522,25.53,25.53,0,0,0,.85455,5.18068,24.708,24.708,0,0,0,6.19476,10.64694,23.88333,23.88333,0,0,0,7.06876,5.00125c.76386.35394,1.56155.6353,2.3461.94388A1.82786,1.82786,0,0,1,281.51468,131.16539Z"/><path class="cls-1" d="M293.72437,21.69169A20.45748,20.45748,0,0,1,293.618,25.125a22.58156,22.58156,0,0,1-.58347,2.97424,21.742,21.742,0,0,1-3.63427,7.29195,33.31859,33.31859,0,0,1-4.77191,5.08332,67.72555,67.72555,0,0,1-7.2775,5.4688c-2.44251,1.629-4.94888,3.15723-7.43784,4.71313-2.17416,1.35909-4.35015,2.71644-6.49566,4.11986a72.606,72.606,0,0,0-6.61737,4.83423,41.50308,41.50308,0,0,0-5.36054,5.21765,27.6117,27.6117,0,0,0-3.90707,6.006,22.86026,22.86026,0,0,0-1.83682,5.65908q-.10837.59655-.21117,1.19408c-.01424.08371-.054.116-.14114.08539a.15174.15174,0,0,1-.08036-.05257c-.0821-.14556-.16563-.291-.23568-.44254a20.18546,20.18546,0,0,0-5.38463-6.881,22.38361,22.38361,0,0,0-5.29126-3.337,16.34174,16.34174,0,0,0-5.04822-1.40236,9.17974,9.17974,0,0,0-4.94429.736,8.08535,8.08535,0,0,0-1.70351,1.082.23919.23919,0,0,1-.33821-.00519l-.01832-.02127a3.68166,3.68166,0,0,1-.70557-1.549,2.52786,2.52786,0,0,1,.53012-2.08807,5.28006,5.28006,0,0,1,1.19032-1.08911,13.33635,13.33635,0,0,1,2.79969-1.39845,34.0044,34.0044,0,0,1,4.75659-1.37807c.75722-.16552,1.52072-.3022,2.28026-.4573.198-.04043.392-.10031.58749-.15245a.44017.44017,0,0,0,.28361-.26546,7.123,7.123,0,0,0,.522-1.73863A1.46291,1.46291,0,0,0,234.539,56.93a.50621.50621,0,0,0-.5562-.45071l-.01005.00116a2.20316,2.20316,0,0,0-.48329.13159,4.37433,4.37433,0,0,0-1.10819.69866,20.65136,20.65136,0,0,1-2.52615,1.85621,5.67875,5.67875,0,0,1-1.47383.65484,1.9989,1.9989,0,0,1-.399.04581.38253.38253,0,0,1-.33015-.326,6.707,6.707,0,0,1,.26413-1.69466,8.265,8.265,0,0,1,4.16685-5.34885,12.57335,12.57335,0,0,1,3.40845-1.2497,20.11078,20.11078,0,0,1,3.50545-.46552,21.77234,21.77234,0,0,1,2.52695-.08605c1.41237.10835,2.82928.11619,4.241.27258,1.30773.14487,2.61351.30386,3.91288.49989,1.63281.24628,3.25708.55141,4.88131.85138,1.16.21422,2.31378.46225,3.47058.694a.60774.60774,0,0,0,.575-.09436,29.86773,29.86773,0,0,1,4.946-3.50615c2.50168-1.53514,5.02606-3.03325,7.52747-4.56876,3.33682-2.04832,6.60873-4.19407,9.72915-6.56436a58.66634,58.66634,0,0,0,5.53519-4.73481,33.75156,33.75156,0,0,0,4.02365-4.673,19.09229,19.09229,0,0,0,3.18091-6.9426.75871.75871,0,0,1,.0614-.184C293.62057,21.72311,293.667,21.71736,293.72437,21.69169Z"/><path class="cls-1" d="M344.97806,91.51761a.46428.46428,0,0,1-.05026.38637c-.20057.35162-.39393.70758-.60291,1.05413a65.15088,65.15088,0,0,1-5.95636,8.41993,43.97141,43.97141,0,0,1-9.85742,8.79619,34.82376,34.82376,0,0,1-10.64877,4.55685,40.60553,40.60553,0,0,1-4.07944.73118c-1.34268.18377-2.6929.17172-4.03751.279a16.59115,16.59115,0,0,1-1.81988-.0309c-.37091-.01139-.74115-.04536-1.11209-.05484a36.42974,36.42974,0,0,1-3.92551-.37691c-1.43894-.19354-2.85919-.47607-4.27744-.77684a.8262.8262,0,0,0-.265.03378,1.08555,1.08555,0,0,0,.13476.26385,18.78879,18.78879,0,0,0,6.94849,4.77328,23.48747,23.48747,0,0,0,5.37839,1.36474c.97345.13657,1.94925.15548,2.92407.2264.13461.00979-.038-.03416.0412.07505a.09323.09323,0,0,1-.01111.08851.48269.48269,0,0,1-.15195.1242,29.60621,29.60621,0,0,1-6.20282,1.80941,24.99023,24.99023,0,0,1-4.63928.30285,20.14755,20.14755,0,0,1-9.58191-2.54691,19.84313,19.84313,0,0,1-6.9335-6.3855,20.93857,20.93857,0,0,1-3.187-7.81592,13.99134,13.99134,0,0,1-.29376-2.40808c-.01227-.64018-.06549-1.27949-.08738-1.91964a1.09621,1.09621,0,0,1,.08313-.38847c.01877-.053.10233-.12721.14493-.12033a5.83489,5.83489,0,0,1,.69043.15125q2.7703.80161,5.58762,1.41656c1.74585.38128,3.49557.7408,5.26794.98024,1.26966.17154,2.53528.377,3.80814.51868,1.10565.1231,2.2185.18393,3.329.26085.77411.05363,1.549.10562,2.32446.12689a39.09541,39.09541,0,0,0,3.94663-.02587c.4374-.03222.87616-.062,1.31448-.06433a35.61279,35.61279,0,0,0,3.83429-.28616,59.82266,59.82266,0,0,0,18.26169-5.01278,61.93012,61.93012,0,0,0,11.84778-7.14787c.45575-.34819.89843-.71342,1.35223-1.06422a1.04305,1.04305,0,0,1,.5166-.29726Z"/><path class="cls-1" d="M190.33189,113.54541c-.0294-.05331-.04582-.12575-.09074-.15632-.167-.1137-.35423-.19951-.514-.32171a8.136,8.136,0,0,1-.937-.7678,4.85212,4.85212,0,0,1-1.08042-5.4199,6.126,6.126,0,0,1,1.39585-2.09108,11.34781,11.34781,0,0,1,1.70428-1.4291c.22052-.15506.44464-.305.66321-.4628.09936-.07171.11636-.181.01066-.229-.15313-.06959-.2994-.15407-.45105-.22715a9.58511,9.58511,0,0,1-4.61732-4.77843,11.24074,11.24074,0,0,1-1.0632-4.60009,13.623,13.623,0,0,1,.32084-3.51774,10.37955,10.37955,0,0,1,7.68743-7.93962,15.24868,15.24868,0,0,1,3.49536-.5301,20.76036,20.76036,0,0,1,4.83812.32209,2.86277,2.86277,0,0,1,.49122.11634,5.44519,5.44519,0,0,0,1.99.26518c3.00455-.00979,6.00919-.00531,9.01378-.00206a5.62173,5.62173,0,0,1,.70209.053c.0512.00653.0971.08294.1376.13346a.15954.15954,0,0,1,.02618.09369c.00234.57331.00426,1.1466.00238,1.71991a.333.333,0,0,1-.2518.27491c-.504.04825-1.00755.10473-1.5126.13845-1.44812.09671-2.89708.18042-4.34518.27771a1.88124,1.88124,0,0,0-.79114.11109c-.07292.03821-.11.09575-.07416.1672a3.26608,3.26608,0,0,0,.24313.43268,13.21686,13.21686,0,0,1,1.26551,2.18666,11.93318,11.93318,0,0,1,1.10951,4.99765,12.858,12.858,0,0,1-.42874,3.50364,9.35935,9.35935,0,0,1-1.2491,2.75244,10.82357,10.82357,0,0,1-6.08025,4.44762,15.40842,15.40842,0,0,1-3.48964.56455,19.44212,19.44212,0,0,1-3.43829-.08194c-.134-.01635-.27055-.01764-.40263-.043a1.34062,1.34062,0,0,0-1.0481.24614,11.2015,11.2015,0,0,0-2.02455,1.67212,4.9058,4.9058,0,0,0-1.22673,2.29232,3.95473,3.95473,0,0,0-.044,1.60947,2.57313,2.57313,0,0,0,1.65827,2.01738,6.415,6.415,0,0,0,2.07327.42767q1.1631.05136,2.32826.05539c1.8905.00767,3.78118-.00988,5.67156.00665a19.394,19.394,0,0,1,4.61288.54834,12.08218,12.08218,0,0,1,3.26775,1.32892,6.96422,6.96422,0,0,1,3.21551,4.2509,10.49788,10.49788,0,0,1,.31506,4.11193,11.77592,11.77592,0,0,1-.37243,1.98607,9.28529,9.28529,0,0,1-2.95119,4.5078,13.0854,13.0854,0,0,1-3.45859,2.07283,19.42367,19.42367,0,0,1-4.07315,1.179,34.04931,34.04931,0,0,1-9.17784.38786,17.268,17.268,0,0,1-5.00647-1.17451,10.38922,10.38922,0,0,1-3.69119-2.43085,7.825,7.825,0,0,1-2.15694-4.90215,9.945,9.945,0,0,1,.20493-3.21891,8.36081,8.36081,0,0,1,2.60946-4.35848,11.50386,11.50386,0,0,1,4.23592-2.30342c.19289-.06075.387-.11782.57871-.18218A1.35157,1.35157,0,0,0,190.33189,113.54541Zm8.30335,1.48293v.0009q-1.7711,0-3.54219.00048a16.21433,16.21433,0,0,0-3.51018.4058,8.77374,8.77374,0,0,0-2.27177.83081,5.87538,5.87538,0,0,0-2.96318,3.55342,8.71822,8.71822,0,0,0-.19051,4.49407,5.55236,5.55236,0,0,0,2.14587,3.32452A8.11245,8.11245,0,0,0,190.53641,128.8a14.86963,14.86963,0,0,0,4.16.784,33.54331,33.54331,0,0,0,6.36264-.20172,18.37641,18.37641,0,0,0,3.63849-.84107,10.155,10.155,0,0,0,3.01587-1.61782,6.78453,6.78453,0,0,0,2.30212-3.37374,8.6134,8.6134,0,0,0,.23563-4.005,4.52147,4.52147,0,0,0-1.8752-3.012,6.18343,6.18343,0,0,0-1.51579-.79814,9.79938,9.79938,0,0,0-2.06226-.48874,22.81942,22.81942,0,0,0-3.32893-.22085c-.94437.01608-1.88916.00342-2.83373.00342Zm-.842-13.87352c.35126-.02229.89-.05316,1.42815-.09131a9.26428,9.26428,0,0,0,2.6534-.59895,6.955,6.955,0,0,0,3.98959-3.8,8.78239,8.78239,0,0,0,.64754-2.43322,12.17993,12.17993,0,0,0-.31856-5.01189,6.90017,6.90017,0,0,0-4.22759-4.71913c-.2489-.10224-.50793-.18123-.76541-.261a12.91364,12.91364,0,0,0-4.30537-.4484,9.01828,9.01828,0,0,0-2.68115.466,7.69835,7.69835,0,0,0-5.2358,5.56684,11.24249,11.24249,0,0,0-.12468,5.21252,7.04713,7.04713,0,0,0,2.992,4.52454,8.66726,8.66726,0,0,0,2.16993,1.06845,12.53814,12.53814,0,0,0,3.778.52555Z"/><path class="cls-1" d="M308.7225,126.009a.56372.56372,0,0,1-.35067.34122,30.72855,30.72855,0,0,1-4.50052,1.81311,31.44816,31.44816,0,0,1-5.12491,1.15866,21.85822,21.85822,0,0,1-2.81921.27347c-.945.00723-1.89066.03671-2.835.013a27.95575,27.95575,0,0,1-11.62249-2.77156,21.42207,21.42207,0,0,1-6.55808-4.84212,18.74347,18.74347,0,0,1-3.51678-5.52066,16.13418,16.13418,0,0,1-.64573-2.12717,19.24863,19.24863,0,0,1-.45227-6.73264,18.0919,18.0919,0,0,1,1.66007-5.91395,21.88376,21.88376,0,0,1,4.057-5.893,26.53983,26.53983,0,0,1,7.043-5.22075,30.31934,30.31934,0,0,1,6.52172-2.44722,2.50688,2.50688,0,0,1,.40043-.04967.14421.14421,0,0,1,.09051.032c-.00491.05561-.00449.13359-.03964.16115-.26532.20819-.53687.40863-.80948.60738a31.093,31.093,0,0,0-5.29779,4.8344,21.95056,21.95056,0,0,0-3.866,6.25578,18.0503,18.0503,0,0,0-1.16806,4.59248,15.76838,15.76838,0,0,0-.10812,2.827,17.40251,17.40251,0,0,0,1.481,6.06009,19.66967,19.66967,0,0,0,5.50933,7.15386,24.67487,24.67487,0,0,0,8.71424,4.59366,30.53477,30.53477,0,0,0,4.04223.91188,31.80706,31.80706,0,0,0,5.24924.30538A35.56886,35.56886,0,0,0,308.7225,126.009Z"/><path class="cls-1" d="M35.74464,93.23418q0-11.02924.00031-22.05851c0-.33725.001-.67456.00807-1.01171.0049-.23439.12878-.34422.39064-.34956.26979-.00551.53974-.00426.80963-.00428q5.06049-.00033,10.121.00241c.84315.00154,1.688.00642,2.529.05841a22.53545,22.53545,0,0,1,6.23787,1.18727,14.73248,14.73248,0,0,1,2.12118.94588,10.782,10.782,0,0,1,5.449,7.07744,17.92506,17.92506,0,0,1,.43577,5.42347,13.9635,13.9635,0,0,1-.60359,3.37526,11.54072,11.54072,0,0,1-3.63011,5.48994A15.28247,15.28247,0,0,1,53.157,96.58333a25.03373,25.03373,0,0,1-4.29439.64952q-1.76884.11617-3.53925.10783c-1.6868-.0075-3.37365-.00275-5.06048-.00114-.30334.0003-.60673.00883-.91.01741a.28219.28219,0,0,0-.27172.24c-.01048.33677-.02238.67373-.02246,1.01061q-.002,8.34783-.00166,16.69566c-.00006.337-.00707.674-.01689,1.01084a.32787.32787,0,0,1-.32875.31c-.236.006-.47247.01316-.70831.006a13.97543,13.97543,0,0,1-2.11655-.06287c-.1306-.02391-.142-.293-.142-2.18518Zm3.39051-9.51906v5.77072q0,1.9742.00086,3.94839c.00038.26957.00939.53922.01874.80869a.30367.30367,0,0,0,.24558.27387c.13428.01017.26885.02356.40328.02357,2.19406.00026,4.38843.02092,6.58208-.00938a29.27777,29.27777,0,0,0,5.629-.59214,14.74777,14.74777,0,0,0,3.9965-1.39727,7.85052,7.85052,0,0,0,3.18715-3.1639,9.36734,9.36734,0,0,0,.77742-1.86322,13.74755,13.74755,0,0,0,.501-3.08881,14.06906,14.06906,0,0,0-.29608-4.02317,8.484,8.484,0,0,0-4.79-6.03846,11.82182,11.82182,0,0,0-2.47972-.86045,22.45952,22.45952,0,0,0-5.01446-.60048c-2.70025-.02063-5.4007-.01175-8.10107-.01374-.13434-.0001-.26878.01409-.403.02363a.29058.29058,0,0,0-.241.274c-.00785.30337-.01541.60686-.01551.91031Q39.13421,78.90619,39.13515,83.71512Z"/><path class="cls-1" d="M242.6209,103.58224q0,6.02289-.0022,12.0458a7.33841,7.33841,0,0,1-.05521.8019c-.00561.05068-.08279.09717-.13338.13749a.17965.17965,0,0,1-.09623.02771,2.99293,2.99293,0,0,1-.40317.01671,5.92088,5.92088,0,0,1-1.79678-.10871c-.10375-.56243-.21347-1.12384-.31-1.68747-.19367-1.12994-.37914-2.2613-.57271-3.39125a.4209.4209,0,0,0-.09752-.152c-.03781-.0504-.17872.00157-.26275.09835-.08848.1019-.17319.20708-.26139.30923-.28666.332-.5578.67932-.865.99119-.5204.52838-1.04592,1.05432-1.60083,1.54562a11.85243,11.85243,0,0,1-5.08649,2.59961,16.65857,16.65857,0,0,1-7.129.19106,10.657,10.657,0,0,1-4.17853-1.72229,8.09369,8.09369,0,0,1-2.79507-3.51827,10.03951,10.03951,0,0,1-.76237-3.13233,11.1692,11.1692,0,0,1,.25665-3.81818,8.64694,8.64694,0,0,1,3.02305-4.67315,13.47453,13.47453,0,0,1,3.8772-2.14626,21.58372,21.58372,0,0,1,3.90756-1.02259,29.98922,29.98922,0,0,1,4.12363-.42648c2.09129-.06085,4.183-.11377,6.27341-.19667a3.66772,3.66772,0,0,0,1.67737-.1814,5.7654,5.7654,0,0,0,.07809-1.6044,18.60741,18.60741,0,0,0-.17319-3.12935,12.23491,12.23491,0,0,0-.83935-3.21952,6.3414,6.3414,0,0,0-4.09058-3.78731,11.16025,11.16025,0,0,0-3.596-.46939,19.26554,19.26554,0,0,0-7.00115,1.40972c-.78331.30844-1.54464.67251-2.31589,1.0115-.06164.0271-.12173.05784-.18342.08486-.19534.08555-.34606.0448-.42046-.1251q-.4869-1.11158-.96685-2.22622a.3172.3172,0,0,1,.17324-.41378l.00524-.00209a29.87541,29.87541,0,0,1,3.77905-1.43531,24.3161,24.3161,0,0,1,5.05173-1.0052,20.65764,20.65764,0,0,1,5.44937.15495,11.32379,11.32379,0,0,1,3.25264,1.07527,8.277,8.277,0,0,1,3.53271,3.51379,12.217,12.217,0,0,1,1.19425,3.53077,21.25231,21.25231,0,0,1,.33833,3.92662Q242.62811,98.521,242.6209,103.58224Zm-7.18454-4.51159-.00045-.00956c-.63894.04173-1.27733.099-1.91694.1223a39.57317,39.57317,0,0,0-5.81885.65759,19.32884,19.32884,0,0,0-3.02272.80276,9.57979,9.57979,0,0,0-2.58707,1.3499,6.05406,6.05406,0,0,0-2.23526,3.2817,8.495,8.495,0,0,0-.026,4.49662,5.53377,5.53377,0,0,0,3.1147,3.76268,7.656,7.656,0,0,0,1.12933.4362,10.41755,10.41755,0,0,0,2.68668.4291,17.92029,17.92029,0,0,0,2.82246-.1534,12.55446,12.55446,0,0,0,3.20894-.86212,9.895,9.895,0,0,0,5.33088-5.12969,10.6775,10.6775,0,0,0,.70388-2.10307,16.10794,16.10794,0,0,0,.40427-3.50637c-.00131-.94352.00091-1.887-.00052-2.83053-.0003-.202-.00594-.40418-.01565-.606a.32527.32527,0,0,0-.3435-.2912Q237.15331,98.99174,235.43636,99.07065Z"/><path class="cls-1" d="M116.60647,103.71785q0,5.97192.0009,11.94387c.00057,1.02706.00549.95109-.92476.95181-.43854.00033-.87713-.00528-1.31562-.01288a.27985.27985,0,0,1-.29373-.22306c-.07056-.3639-.14138-.72792-.20193-1.09359q-.32226-1.94559-.63565-3.89265c-.01366-.08461-.04352-.13383-.129-.12259-.06286.00826-.14507.01378-.18158.0541-.20371.225-.3961.46016-.5924.69184a19.98294,19.98294,0,0,1-2.128,2.162,12.2342,12.2342,0,0,1-5.2732,2.66843,16.85953,16.85953,0,0,1-6.931.17576,11.07507,11.07507,0,0,1-3.50425-1.26428,8.108,8.108,0,0,1-3.54834-4.01887,9.85573,9.85573,0,0,1-.69429-2.63214,11.405,11.405,0,0,1,.17862-4.22289,8.63428,8.63428,0,0,1,3.06787-4.76,13.29988,13.29988,0,0,1,3.31725-1.91689,20.39342,20.39342,0,0,1,4.27425-1.20514,29.77115,29.77115,0,0,1,4.32377-.45362c1.99007-.05379,3.97982-.12,5.96968-.18185.53964-.01676,1.07933-.03269,1.61865-.057.25348-.01142.39814-.14176.4027-.35855a24.34253,24.34253,0,0,0-.35821-5.64218,11.38248,11.38248,0,0,0-.82541-2.48963,6.273,6.273,0,0,0-3.75119-3.33442,8.91234,8.91234,0,0,0-2.27175-.4711,18.93334,18.93334,0,0,0-7.855,1.11458,24.02917,24.02917,0,0,0-2.61026,1.09342c-.21088.1038-.43058.18985-.64738.28133a.21723.21723,0,0,1-.25615-.1005q-.506-1.1576-1.0071-2.31736a.3138.3138,0,0,1,.1267-.35086c.05891-.03232.11633-.0681.1775-.09539a29.2168,29.2168,0,0,1,7.1369-2.18446,23.62523,23.62523,0,0,1,5.65186-.2211,12.69142,12.69142,0,0,1,3.54628.77508,8.45808,8.45808,0,0,1,4.934,4.66256,13.17054,13.17054,0,0,1,.89383,2.99694,24.0346,24.0346,0,0,1,.31285,4.23307C116.612,97.17233,116.60646,100.4451,116.60647,103.71785ZM108.97915,99.095c-1.14059.12585-2.69448.11165-4.23787.29505a38.342,38.342,0,0,0-4.0866.66989,15.43592,15.43592,0,0,0-2.97018.97925,8.16914,8.16914,0,0,0-1.72492,1.045,6.1736,6.1736,0,0,0-2.15914,3.3335,9.451,9.451,0,0,0-.21019,3.11239,6.47746,6.47746,0,0,0,.62576,2.32874,5.37044,5.37044,0,0,0,2.22141,2.419,7.27448,7.27448,0,0,0,1.67041.70863,10.68007,10.68007,0,0,0,2.69071.41416,17.05645,17.05645,0,0,0,2.82347-.16143,12.60076,12.60076,0,0,0,3.48188-1.00334,9.85413,9.85413,0,0,0,5.39085-5.97887,14.798,14.798,0,0,0,.71182-4.27152c.04358-1.21221.01439-2.427.01626-3.64072.0001-.06709-.0101-.13426-.01642-.20131a.34338.34338,0,0,0-.2879-.23616C111.7397,98.96258,110.561,99.01934,108.97915,99.095Z"/><path class="cls-1" d="M167.03456,99.64546q-5.77308,0-11.54617-.0003c-.97736-.00021-.958-.04776-.93456.92524a18.85494,18.85494,0,0,0,1.21535,6.42907,13.94435,13.94435,0,0,0,.81889,1.737,10.41919,10.41919,0,0,0,6.32114,5.04225,15.2143,15.2143,0,0,0,3.79021.59551,30.44386,30.44386,0,0,0,4.65019-.2077,18.76581,18.76581,0,0,0,3.73926-.86906c.89743-.292,1.78544-.61281,2.67987-.91422a1.97946,1.97946,0,0,1,.39309-.06494c.01914-.00233.05437.03166.06275.05561a.63466.63466,0,0,1,.04652.19382c.00617.43867.01346.87751.00768,1.31612-.01924,1.46206.211,1.13353-1.19315,1.69723a21.78719,21.78719,0,0,1-4.65783,1.34062,23.57252,23.57252,0,0,1-2.71608.28537c-1.2132.05211-2.43111.06286-3.64463.02176a16.36117,16.36117,0,0,1-4.86065-.89125,13.82141,13.82141,0,0,1-8.63175-8.26309,20.35785,20.35785,0,0,1-1.25322-5.19747,29.60154,29.60154,0,0,1-.16749-4.44747,24.548,24.548,0,0,1,1.00712-6.379,17.33532,17.33532,0,0,1,2.68366-5.41281,13.20428,13.20428,0,0,1,7.09132-4.94784,16.4403,16.4403,0,0,1,5.01163-.5428,13.49605,13.49605,0,0,1,3.49072.53921,11.26519,11.26519,0,0,1,5.693,3.85276,14.41589,14.41589,0,0,1,2.51754,4.81367,18.74939,18.74939,0,0,1,.85,4.8711c.04654,1.28129.04631,2.5643.06212,3.84662a1.61237,1.61237,0,0,1-.05.39671.19931.19931,0,0,1-.127.12933,6.16665,6.16665,0,0,1-.70213.047q-4.05131.00442-8.10257.00193Zm-1.56229-2.6734q4.8078,0,9.61557-.00076c.30336-.00012.60679-.00866.91007-.01765a.28153.28153,0,0,0,.25035-.26455c.00473-.06709.01408-.13408.01454-.20118a18.01729,18.01729,0,0,0-.69789-5.09305,11.74017,11.74017,0,0,0-2.23176-4.27214,8.21326,8.21326,0,0,0-5.939-3.06356,13.232,13.232,0,0,0-3.22673.13694A10.07308,10.07308,0,0,0,158.45,87.1957a11.667,11.667,0,0,0-2.60938,4.28654,21.87617,21.87617,0,0,0-1.05092,4.83065c-.00782.06691-.00962.13456-.01335.20191-.0189.34166.06394.44481.37189.45283.20232.00527.40481.00423.60722.00425Q160.61387,96.97223,165.47227,96.97206Z"/><path class="cls-1" d="M121.27215,81.82584c.30378,0,.60759.003.91133-.0006.75161-.00895.67669.02947.927.67457.59747,1.53985,1.17221,3.08851,1.76054,4.63193q3.69213,9.68586,7.38418,19.37175c.79044,2.07991,1.54085,4.17464,2.12229,6.32545a2.1275,2.1275,0,0,0,.14493.37717c.01965.04021.08549.06472.13523.07963.01766.00528.06092-.03415.07416-.0619a2.64991,2.64991,0,0,0,.16092-.3699c1.18511-3.94214,2.64616-7.78621,4.11968-11.62629q3.53232-9.20552,7.05137-18.41613c.08438-.22043.15871-.44607.26308-.65673.03911-.07893.14865-.12491.23019-.17975a.18125.18125,0,0,1,.09716-.01921q1.36579.0084,2.73161.02018a.20362.20362,0,0,1,.17183.20266c-.02385.09819-.04.19911-.07327.294-.067.19081-.14264.37857-.21581.56717q-5.81508,14.99112-11.63,29.98228c-.39008,1.00575-.77515,2.01346-1.16324,3.02-.0485.12583-.10294.24939-.15184.37507a.39731.39731,0,0,1-.397.252c-.30351.00933-.60745.006-.91122.0065-.4388.00071-.87761-.00258-1.31638.0007-.80067.006-.68277-.0344-.92877-.66811q-3.16564-8.15478-6.31244-16.31684-3.22645-8.34835-6.45012-16.69773c-.12085-.3132-.21792-.63568-.3223-.95506-.02726-.08341.07322-.20243.1695-.20278.47248-.00171.945-.00077,1.41744-.00077Z"/><path class="cls-1" d="M70.92418,99.33054q0-8.2475.00066-16.495c.00024-.94692-.08135-.95423.92953-.94629.10121.0008.20248-.0017.30365.00036,1.69953.0346,1.42251-.27732,1.542,1.5198.09842,1.48011.15924,2.96273.23493,4.44433.00453.08892.0385.13041.12484.12047.029-.00335.06925-.0021.08411-.01986a2.033,2.033,0,0,0,.18045-.24276c.15783-.25915.30448-.5252.46577-.78212a15.89228,15.89228,0,0,1,2.24839-2.855,9.77442,9.77442,0,0,1,5.33725-2.67739,14.64117,14.64117,0,0,1,4.4347-.07c.76908.09791,1.53669.20733,2.30455.3146a.31109.31109,0,0,1,.26284.35278l-.00209.01248c-.11065.63043-.22946,1.25946-.3481,1.88848-.04369.23156-.08814.46357-.14964.69065a.19761.19761,0,0,1-.15624.10476,3.87,3.87,0,0,1-.59814-.06774,19.30847,19.30847,0,0,0-3.62074-.34289,9.29373,9.29373,0,0,0-3.08619.46926A8.67129,8.67129,0,0,0,78.01605,86.874a12.38463,12.38463,0,0,0-2.847,4.49363,16.21711,16.21711,0,0,0-1.01651,5.03386c-.02574.57254-.02579,1.14654-.026,1.71986q-.00261,8.70288-.00144,17.40574c0,.30346-.00242.607-.00957.91042a.32789.32789,0,0,1-.33083.31146c-.67446.00883-1.349.00917-2.02352.01561-.87957.0084-.83675-.03626-.8368-.838Q70.92382,107.62863,70.92418,99.33054Z"/><path class="cls-1" d="M344.993,91.535c.01441-.08348.04782-.11525.09577-.0875.00439.00257-.00748.05688-.023.06462a.22447.22447,0,0,1-.08768.0055Z"/></svg>