<svg xmlns="http://www.w3.org/2000/svg" role="img" viewBox="75.26 13.26 1858.48 744.48"><title>dalec-horizontal-color</title><defs><style>.cls-1{fill:#dbeefa}.cls-2{fill:#0d304a}.cls-3{fill:#f6c65e}.cls-4{fill:#fff}.cls-5{fill:#61c4c4}.cls-6{fill:#66869e}.cls-9{fill:#a6c3da}</style></defs><path d="M729.14 562.86c-3.04 0-5.66-.68-7.85-2.03-2.2-1.35-3.89-3.21-5.06-5.57-1.19-2.36-1.77-5.06-1.77-8.1V224.03c0-3.37.59-6.16 1.77-8.36 1.18-2.19 2.95-3.88 5.32-5.06 2.36-1.18 5.06-1.77 8.1-1.77l103.83.51c25.32 0 48.03 3.97 68.12 11.9 20.08 7.94 37.14 19.42 51.15 34.44 14.01 15.03 24.64 33.35 31.91 54.95 7.26 21.61 10.89 46.09 10.89 73.44s-3.72 53.1-11.14 75.21c-7.43 22.12-18.15 40.86-32.16 56.22-14.01 15.37-31.15 27.1-51.41 35.2-20.26 8.1-43.22 12.16-68.88 12.16h-102.81zM744.34 532.47h89.14c27.68 0 51.32-5.83 70.91-17.47 19.58-11.65 34.61-28.36 45.08-50.14 10.46-21.78 15.7-47.86 15.7-78.25s-5.24-57.06-15.7-79.01c-10.47-21.94-25.58-38.74-45.33-50.39-19.75-11.65-43.48-17.47-71.16-17.47h-88.63v292.74zM1245.59 562.36c-4.73 0-8.1-1.19-10.13-3.55-2.03-2.36-3.38-6.75-4.05-13.17v-33.93c-3.72 6.42-9.54 13.59-17.47 21.52-7.94 7.94-18.23 14.86-30.89 20.77-12.66 5.9-27.94 8.86-45.83 8.86-16.55 0-31.83-3.13-45.84-9.37-14.02-6.24-26.26-14.94-36.72-26.08-10.47-11.14-18.66-24.06-24.56-38.75-5.91-14.69-8.86-30.64-8.86-47.86s2.95-31.99 8.86-46.34c5.9-14.35 14.18-27.01 24.82-37.99 10.64-10.97 22.96-19.58 36.97-25.83 14.01-6.24 29.12-9.37 45.33-9.37s29.45 2.03 40.77 6.08c11.31 4.05 21.27 9.62 29.88 16.71 8.61 7.09 16.46 15.37 23.55 24.82v-28.87c0-6.75 1.09-11.56 3.29-14.43 2.19-2.87 5.99-4.31 11.4-4.31 3.37 0 5.99.59 7.85 1.77 1.85 1.19 3.2 3.13 4.05 5.82.84 2.71 1.27 6.42 1.27 11.14v205.63c0 4.05-.43 7.34-1.27 9.88-.85 2.53-2.28 4.31-4.3 5.32-2.03 1.01-4.73 1.52-8.1 1.52zM1142.78 536.53c16.21 0 30.89-4.13 44.06-12.41 13.17-8.27 23.63-19.5 31.4-33.68 7.76-14.18 11.65-30.39 11.65-48.62 0-19.25-4.05-35.96-12.16-50.14-8.1-14.18-18.83-25.24-32.16-33.17-13.34-7.93-27.94-11.9-43.81-11.9-18.57 0-34.78 4.23-48.62 12.66-13.85 8.44-24.65 19.84-32.41 34.19-7.77 14.36-11.65 30.82-11.65 49.38s3.88 33.93 11.65 48.11c7.76 14.18 18.74 25.32 32.92 33.43 14.18 8.1 30.55 12.16 49.13 12.16zM1386.58 562.86c-9.46 0-17.98-1.01-25.58-3.04-7.6-2.03-14.27-5.06-20.01-9.12-5.75-4.05-10.56-9.12-14.43-15.19-3.89-6.08-6.76-13.17-8.61-21.27-1.86-8.1-2.79-17.05-2.79-26.84V224.03c0-4.05.42-7.17 1.27-9.37.84-2.19 2.36-3.8 4.56-4.81 2.19-1.01 4.98-1.52 8.36-1.52 3.71 0 6.66.43 8.86 1.27 2.19.85 3.8 2.28 4.81 4.3 1.01 2.03 1.52 4.9 1.52 8.61v265.9c0 7.43.84 13.93 2.53 19.5 1.68 5.57 4.3 10.3 7.85 14.18 3.55 3.89 7.93 6.76 13.17 8.61 5.23 1.86 11.22 2.79 17.98 2.79 4.05 0 7.17.43 9.37 1.27 2.19.85 3.8 2.37 4.81 4.56 1.01 2.2 1.52 5.15 1.52 8.86s-.51 6.67-1.52 8.86c-1.01 2.19-2.62 3.71-4.81 4.56-2.2.84-5.15 1.27-8.86 1.27zM1539.27 563.87c-18.57 0-35.54-3.04-50.9-9.12-15.37-6.08-28.54-14.69-39.5-25.83-10.98-11.14-19.5-24.31-25.58-39.5-6.08-15.19-9.12-32.07-9.12-50.65 0-21.94 5.23-41.7 15.7-59.26 10.46-17.55 24.98-31.48 43.56-41.78 18.57-10.3 39.84-15.45 63.82-15.45 15.53 0 29.71 2.37 42.54 7.09 12.83 4.73 23.97 11.14 33.43 19.25 9.45 8.1 16.79 17.39 22.03 27.86 5.23 10.47 7.85 21.27 7.85 32.41 0 16.55-3.8 27.78-11.4 33.68-7.6 5.91-16.8 8.86-27.6 8.86h-159.54c-.68 17.9 3.8 33.26 13.42 46.09 9.62 12.84 21.78 22.71 36.47 29.63 14.69 6.92 29.45 10.38 44.32 10.38 9.79 0 18.31-.51 25.58-1.52 7.26-1.01 13.5-2.45 18.74-4.31 5.23-1.85 9.7-3.71 13.42-5.57 3.71-1.85 7.09-3.71 10.13-5.57 3.04-1.85 5.9-3.29 8.61-4.31 1.69-.67 3.62-.93 5.82-.76 2.19.17 3.8 1.1 4.81 2.79 1.69 2.37 2.86 4.48 3.55 6.33.67 1.86 1.01 3.97 1.01 6.33 0 3.04-4.05 7.18-12.16 12.41-8.1 5.24-19.08 9.96-32.92 14.18-13.85 4.22-29.21 6.33-46.09 6.33zM1444.56 427.13h150.93c6.75 0 11.98-.76 15.7-2.28 3.71-1.52 5.57-6.5 5.57-14.94 0-11.14-3.47-21.35-10.38-30.64-6.92-9.28-16.29-16.79-28.11-22.54-11.82-5.74-25.32-8.61-40.52-8.61-16.89 0-32.5 3.38-46.85 10.13-14.35 6.76-25.75 16.13-34.19 28.11-8.44 11.99-12.5 25.58-12.16 40.77zM1809.29 562.86c-18.57 0-35.54-2.87-50.9-8.61-15.37-5.74-28.62-13.93-39.76-24.56s-19.67-23.3-25.58-37.99c-5.91-14.69-8.86-31.15-8.86-49.38s2.95-34.69 8.86-49.38c5.9-14.69 14.35-27.43 25.32-38.24 10.97-10.8 24.06-19.07 39.25-24.82 15.19-5.74 32.07-8.61 50.65-8.61 11.14 0 22.54 1.95 34.19 5.82 11.65 3.89 22.2 8.95 31.65 15.19 9.45 6.25 16.21 13.26 20.26 21.02 2.36 4.39 3.55 7.6 3.55 9.62s-.85 4.05-2.53 6.08c-2.03 2.37-4.3 4.23-6.84 5.57-2.53 1.35-4.81 2.03-6.84 2.03-4.05 0-7.94-2.36-11.65-7.09-3.38-4.72-7.43-8.94-12.16-12.66-4.73-3.71-9.88-6.92-15.45-9.62-5.57-2.7-11.23-4.81-16.97-6.33-5.75-1.52-11.48-2.28-17.22-2.28-18.91 0-35.45 3.89-49.63 11.65-14.18 7.77-25.16 18.66-32.92 32.67-7.77 14.01-11.65 30.47-11.65 49.38s3.88 34.87 11.65 48.87c7.76 14.02 18.65 24.9 32.67 32.67 14.01 7.77 30.3 11.65 48.87 11.65 7.76 0 15.53-1.01 23.3-3.04 7.76-2.03 15.19-4.98 22.28-8.86 7.09-3.88 13.17-8.36 18.23-13.42 2.7-2.36 4.98-4.3 6.84-5.82 1.85-1.52 4.13-2.28 6.84-2.28 2.03 0 3.96.76 5.82 2.28 1.85 1.52 3.8 3.63 5.82 6.33 1.35 1.35 2.19 2.96 2.53 4.81.33 1.86.25 3.8-.25 5.82-.51 2.03-1.61 3.89-3.29 5.57-7.09 7.09-15.62 13.34-25.58 18.74-9.96 5.41-20.26 9.62-30.89 12.66-10.64 3.04-20.51 4.56-29.63 4.56zM578.25 358.89c1.95-24.66-3.99-50.63-29.44-59.89l.11-123.56c-.61-6.43-2.5-7.66-8.06-9.87-27.96-11.18-43.07-8.41-71.73-8.4-4.35 0-8.42-.36-13.68-1.02v-90.12c0-1.67-4.03-4.84-5.66-5.67-5.15-2.62-26.01-9.45-31.58-9.94-45.73-3.96-97.14 3.05-143.47.04-4.53-.63-11.79 5.89-11.79 9.91v96.72c-21.85 1.11-45.8-3.07-67.46-.94-7.99.79-13.85 4.05-14.68 12.69l.08 131.05c-15.38 6.69-27.5 23.18-29.17 39.91-.61 6.06.56 12.3-.53 18.34-5.49 1.28-10.42 1.68-15.61 4.21-36.88 17.92-30.6 97.32 16.03 98.58-.49 5.21.68 11.4-.07 16.46-.84 5.77-4.08 12.09-4.64 18.95-2.37 28.73 10.71 54.72 35.55 69.16 16.73 9.71 32.07 11.37 51.25 8.67v17.46c.2 5.44 2.26 8.69 2.93 10.27 4.76 11.2 17.8 19.98 30.1 19.45l.05 47.54c-18.16 6.5-34.29 45.42-10.93 52.51 21.98 2.18 49.05 2.14 71.78.02 7.25-.67 11.93-6.74 12.7-13.72 1.66-15.11-7.04-28.36-17.93-37.75v-48.6h76.43s0 45.77 0 45.77c-4.3 5.4-10.5 8.75-14.57 14.68-8.15 11.87-12.97 35.83 5.56 39.62 23.71.89 47.76 2.07 69.91-.01 17.72-1.65 14.32-23.48 8.5-34.98-3.25-6.4-9.03-12.19-14.57-16.62l.85-48.46h14.62c4.42-.42 9.26-2.91 11.16-3.94 11.85-6.42 17.49-21.72 15.73-34.75 33.44-.35 63.89-18.06 76.22-49.76 8.82-22.7 5.15-47.5 5.84-71.34 43.33-13.35 45.07-90.3.17-102.67zM151.6 444.9c-20.88-1.76-24.86-24.67-23.63-42.04.99-14.04 8.21-27.76 23.63-28.74v70.78zM554.43 320.91c9.83 10.55 7.46 24.35 7.71 37.54-36.46 9.17-37.11 58.54-23.65 86.44l-9.04 5.41-8.89 9.69v-118.42c-.11-8.27-5.4-17.62-8.49-21.7-2.17-2.86-3.42-4.54-7.55-8.03 10.46-.54 25.21-1.69 35.38 0 2.85.48 12.43 6.81 14.53 9.07zM502.63 518.5c2.38-1.56 3.49-2.77 5.2-4.71 2.32-2.64 6.16-8.19 7.55-11.33 1.84-4.17 5.3-9.17 6.52-10.99.18 4.65 3.22 8.4 4.11 12.62 1.03 4.93.93 9.39-.73 14.41h-22.65zM513.95 533.6c.22 1.39-1.43 1.66-2.44 2-3.33 1.14-9.78 2.74-13.12 2.75-2.73 0-1.81-3.74-1.42-4.75h16.98zM517.07 295.8v-100.97s7.69 1.75 7.69 1.76l8.15 1.19 3.73.63v97.39h-19.57zM515.68 172.17l21.84 7.93.19 10.72-22.03-7.11v-11.54zM426.43 65.89l14.73 5.47.13 7.41-14.86-4.91v-7.97zM441.29 86.4v8.2l.68 61.55h-14.83l-.71-73.61 14.86 3.86zM507.18 171.24c-.02 2.26-.53 12.27-.53 12.27h-138.01v-12.27h138.54zM503.57 194.83v101.92h-135.88v-101.92h135.88zM277.24 64.75c1.27-.64 2.68-.95 4.1-1.08 20.26-1.91 43-.08 63.19-.04 24.44.05 48.86-.2 73.18.98v9.44h-134s-6.61 0-6.61 0l.14-9.3zM277.1 82.54h134.94v73.61c-12.69.94-25.58-.82-38.25-.04-3.4.2-11.15.88-13.61 2.44-1.41.89-2.6 3.16-3.83 3.73-3.76 1.74-16.52-4.14-21.44-4.97-3.33-.56-9.4-.96-12.99-1.16-14.49-.8-30.43-.1-44.82.94v-74.55zM341.74 196.71c1.57.1 11.66 2.7 11.84 3.47l.9 95.62h-14.15v-96.72c.1-1.43-.34-2.49 1.41-2.37zM338.83 181.9v-10.66l16.47 7.32.15 9.91-16.62-6.57zM195.48 171.24h132.58v11.33s-132.97.84-132.97.84c-.68-.4-1.76-11.42.39-12.17zM195.48 194.83h131.64l-1.42 101.92h-131.63l1.41-101.92zM170.49 533.59c-3.25-6.3-6.39-12.7-7.56-19.81l14.11 13.78c.27 1.27-5.36 6.85-6.55 6.03zM196.37 554.4c-7.67-1.63-14.17-7.08-19.26-12.85l7.98-7.69c5.14 2.71 10.57 5.21 16.53 5.4l-5.25 15.14zM208.22 559.08c-.21-3.27.68-6.45 1.22-9.63 2.06-12.07-2.86-7.89 16.68-11.14l7.57 17.93c-8.53 2.05-16.6 3.55-25.47 2.84zM325.23 705.33c-10.23.09-20.48-.08-30.71-.03-4.77.02-9.29.05-14.07 0-5.91-.07-18.51.26-19.91.22q-1.48-.03-1.4-1.6c.51-9.42 8.22-19.76 17.03-22.64 7.36-2.4 22.56-1.73 30.24-.06 10.75 2.33 18 13.66 18.82 24.11zM282.29 641.17h25.95v23.59h-26.42c-.95-.95-.71-19.47.47-23.59zM281.82 627.96v-6.61l26.43.95-1.42 5.66h-25.01zM263.4 605.33c-4.95.04-14.6-10.44-14.6-13.7v-56.15h75.49c-2.3 1.49-3.13 2.3-4.59 4.38-4.48 6.41-3.96 36.88-1.27 44.42 2.01 5.61 6.24 9.11 11.94 10.7 7.34 2.05 45.98 1.89 54.78.9 7.14-.8 14.36-6.39 15.51-13.74 1.08-6.91.79-27.54.1-34.9-.6-6.35-2.89-7.27-6.65-11.76h29.26v54.26c-.59 5.87-5.64 9.58-7.09 10.85-3.16 2.76-8.04 4.38-12.22 4.76l-140.66-.02zM331.38 547.77c.23-.89 1.24-2.18 2.36-2.36h49.97c1.62 0 3.06 1.19 3.59 3.18.63 2.35.31 28.83-.28 30.28-.37.9-.46 1.82-2.36 2.36l-51.04-.66c-2.44-.06-2.69-2.74-2.77-4.94-.13-4.04.22-26.58.53-27.86zM412.99 627.96l.48-6.62c8.33.4 17.24.13 25.94.4v6.22h-26.42zM439.41 641.17v23.59h-26.42v-23.59h26.42zM457.35 705.9c-4.38 1.02-26.73.42-40.16.42-2.74.01-5.03.07-7.54.01-5.65-.14-8.82-.19-15.99-.01-1.24.04-1.45-.17-1.47-2.4-.07-10.4 10.43-22.13 20.55-23.84 5.57-.94 21.05-.6 26.67.63 9.3 2.04 18.4 15.28 17.94 25.19zM475.73 601.53c-.93.86-3.21 3.2-6.6 3.78h-37.27c1.48-2.41 5.99-5.84 6.6-13.68v-56.15h11.32c-1.63 3.64-3.98 6.37-5.16 10.41-6.29 21.64 15.2 37.69 35.36 35.84.34 1.94 2.17 13.85-4.25 19.8zM484.7 565.67c-11.12 1.79-32.4-4.5-23.45-19.19 6.66-10.92 15.4.66 24.4.33-.52 6.29-3.71 12.64-.95 18.86zM471.05 518.53c-28.52 2.48-64.11-.13-93.49-.07-55.19.11-113.97 2.57-168.91 1.02-20.89-.59-35.35-12.87-40.92-32.68-.5-41.81.35-83.64-.05-125.45-.04-4.83-1.37-9.63-1.02-15.1 1.05-16.49 10.4-30.12 27.18-33.22l280.99-.28c14.14 2.02 26.22 13.46 29.26 27.36.19 43.95 4.4 92.66 1.41 136.44-1.32 19.38-13.43 40.16-34.45 41.98zM495.99 566.18c-3.22-2.12-1.38-13.81-.77-17.35l16.84-2.96c.58 5.99 2.77 11.46 5.65 16.51-.12 2.16-19.55 5.23-21.72 3.8zM531.48 557.25c-4.84 2.36-5.04-1.08-7.31-5.09-.98-1.72-3.9-6.82-3.48-8.46 5.01-3.18 9.79-8.02 13.46-13.84l16.23 8.23c3.68 4.24-15.13 17.32-18.9 19.16zM534.41 529.44c1.07-1.73 2.04-3.56 2.89-5.45-.98 2.33-2.31 4.55-2.89 5.45zM556.59 530.66l-19.23-6.8c1.68-3.79 2.88-7.85 3.39-12.04.63.66 15.26 2.55 21.6 1.96.92.92-3.64 16.44-5.76 16.88zM541.01 505.5c.05.96.05 1.95.01 2.86.16-4.75-.6-9.61-2.53-14.39l23.61.41.92 10.91-22.01.21zM534.7 483.13c-8.32-15.94 5.01-31.18 21.86-21.87 7.64 4.22 6.01 13.91 6.47 21.39l-28.33.48zM546.99 419.88c-1.48-15.29-.92-42.19 18.61-45.53 33.64-5.75 38.74 55.21 14.72 68.49-17.92 9.9-31.67-5.81-33.33-22.96z" class="cls-2"/><path fill="#e2eefa" d="M423.37 535.48v54.26c-.59 5.87-5.64 9.58-7.09 10.85-3.16 2.76-8.04 4.38-12.22 4.76l-140.66-.02c-4.95.04-14.6-10.44-14.6-13.7v-56.15h75.49c-2.3 1.49-3.13 2.3-4.59 4.38-4.48 6.41-3.96 36.88-1.27 44.42 2.01 5.61 6.24 9.11 11.94 10.7 7.34 2.05 45.98 1.89 54.78.9 7.14-.8 14.36-6.39 15.51-13.74 1.08-6.91.79-27.54.1-34.9-.6-6.35-2.89-7.27-6.65-11.76h29.26zM505.5 476.55c-1.32 19.38-13.43 40.16-34.45 41.98-28.52 2.48-64.11-.13-93.49-.07-55.19.11-113.97 2.57-168.91 1.02-20.89-.59-35.35-12.87-40.92-32.68-.5-41.81.35-83.64-.05-125.45-.04-4.83-1.37-9.63-1.02-15.1 1.05-16.49 10.4-30.12 27.18-33.22l280.99-.28c14.14 2.02 26.22 13.46 29.26 27.36.19 43.95 4.4 92.66 1.41 136.44z"/><path d="M457.35 705.9c-4.38 1.02-26.73.42-40.16.42-2.74.01-5.03.07-7.54.01-5.65-.14-8.82-.19-15.99-.01-1.24.04-1.45-.17-1.47-2.4-.07-10.4 10.43-22.13 20.55-23.84 5.57-.94 21.05-.6 26.67.63 9.3 2.04 18.4 15.28 17.94 25.19zM412.99 641.17H439.41V664.76H412.99zM439.41 621.74v6.22h-26.42l.48-6.62c8.33.4 17.24.13 25.94.4zM308.25 622.3L306.83 627.96 281.82 627.96 281.82 621.35 308.25 622.3zM308.24 641.17v23.59h-26.42c-.95-.95-.71-19.47.47-23.59h25.95zM325.23 705.33c-10.23.09-20.48-.08-30.71-.03-4.77.02-9.29.05-14.07 0-5.91-.07-18.51.26-19.91.22q-1.48-.03-1.4-1.6c.51-9.42 8.22-19.76 17.03-22.64 7.36-2.4 22.56-1.73 30.24-.06 10.75 2.33 18 13.66 18.82 24.11z" class="cls-6"/><path d="M541.01 505.5c.05.96.05 1.95.01 2.86.16-4.75-.6-9.61-2.53-14.39l23.61.41.92 10.91-22.01.21zM556.59 530.66l-19.23-6.8c1.68-3.79 2.88-7.85 3.39-12.04.63.66 15.26 2.55 21.6 1.96.92.92-3.64 16.44-5.76 16.88zM531.48 557.25c-4.84 2.36-5.04-1.08-7.31-5.09-.98-1.72-3.9-6.82-3.48-8.46 5.01-3.18 9.79-8.02 13.46-13.84l16.23 8.23c3.68 4.24-15.13 17.32-18.9 19.16zM517.71 562.38c-.12 2.16-19.55 5.23-21.72 3.8-3.22-2.12-1.38-13.81-.77-17.35l16.84-2.96c.58 5.99 2.77 11.46 5.65 16.51zM484.7 565.67c-11.12 1.79-32.4-4.5-23.45-19.19 6.66-10.92 15.4.66 24.4.33-.52 6.29-3.71 12.64-.95 18.86z" class="cls-1"/><path d="M475.73,601.53c-.93.86-3.21,3.2-6.6,3.78h-37.27c1.48-2.41,5.99-5.84,6.6-13.68v-56.15h11.32c-1.63,3.64-3.98,6.37-5.16,10.41-6.29,21.64,15.2,37.69,35.36,35.84.34,1.94,2.17,13.85-4.25,19.8Z" class="cls-9"/><path d="M387.02,578.87c-.37.9-.46,1.82-2.36,2.36l-51.04-.66c-2.44-.06-2.69-2.74-2.77-4.94-.13-4.04.22-26.58.53-27.86.23-.89,1.24-2.18,2.36-2.36h49.97c1.62,0,3.06,1.19,3.59,3.18.63,2.35.31,28.83-.28,30.28Z" class="cls-4"/><path d="M233.69 556.24c-8.53 2.05-16.6 3.55-25.47 2.84-.21-3.27.68-6.45 1.22-9.63 2.06-12.07-2.86-7.89 16.68-11.14l7.57 17.93zM201.62 539.26l-5.25 15.14c-7.67-1.63-14.17-7.08-19.26-12.85l7.98-7.69c5.14 2.71 10.57 5.21 16.53 5.4zM177.04 527.56c.27 1.27-5.36 6.85-6.55 6.03-3.25-6.3-6.39-12.7-7.56-19.81l14.11 13.78z" class="cls-1"/><path d="M151.6,374.12v70.78c-20.88-1.76-24.86-24.67-23.63-42.04.99-14.04,8.21-27.76,23.63-28.74Z" class="cls-6"/><path d="M513.95,533.6c.22,1.39-1.43,1.66-2.44,2-3.33,1.14-9.78,2.74-13.12,2.75-2.73,0-1.81-3.74-1.42-4.75h16.98Z" class="cls-4"/><path d="M525.28,518.5h-22.65c2.38-1.56,3.49-2.77,5.2-4.71,2.32-2.64,6.16-8.19,7.55-11.33,1.84-4.17,5.3-9.17,6.52-10.99.18,4.65,3.22,8.4,4.11,12.62,1.03,4.93.93,9.39-.73,14.41Z" class="cls-9"/><path d="M563.03,482.65l-28.33.48c-8.32-15.94,5.01-31.18,21.86-21.87,7.64,4.22,6.01,13.91,6.47,21.39Z" class="cls-1"/><path d="M580.32,442.84c-17.92,9.9-31.67-5.81-33.33-22.96-1.48-15.29-.92-42.19,18.61-45.53,33.64-5.75,38.74,55.21,14.72,68.49Z" class="cls-6"/><path d="M562.14,358.45c-36.46,9.17-37.11,58.54-23.65,86.44l-9.04,5.41-8.89,9.69v-118.42c-.11-8.27-5.4-17.62-8.49-21.7-2.17-2.86-3.42-4.54-7.55-8.03,10.46-.54,25.21-1.69,35.38,0,2.85.48,12.43,6.81,14.53,9.07,9.83,10.55,7.46,24.35,7.71,37.54Z" class="cls-9"/><path d="M536.64 198.41v97.39h-19.57v-100.97s7.69 1.75 7.69 1.76l8.15 1.19 3.73.63zM537.71 190.82L515.68 183.71 515.68 172.17 537.52 180.1 537.71 190.82z" class="cls-3"/><path d="M355.45 188.47L338.83 181.9 338.83 171.24 355.3 178.56 355.45 188.47zM354.48 295.8h-14.15v-96.72c.1-1.43-.34-2.49 1.41-2.37 1.57.1 11.66 2.7 11.84 3.47l.9 95.62z" class="cls-5"/><path d="M503.57,194.83v101.92h-135.88v-101.92h135.88Z" class="cls-3"/><path d="M327.12 194.83L325.7 296.75 194.07 296.75 195.48 194.83 327.12 194.83zM328.07 182.57l-132.98.84c-.68-.4-1.76-11.42.39-12.17h132.58v11.33z" class="cls-5"/><path d="M507.18,171.24c-.02,2.26-.53,12.27-.53,12.27h-138.01v-12.27h138.54Z" class="cls-3"/><path fill="#f19897" d="M441.97 156.15h-14.83l-.71-73.61 14.86 3.86v8.2l.68 61.55zM441.29 78.77L426.43 73.86 426.43 65.89 441.16 71.36 441.29 78.77zM417.71 64.61v9.44h-134s-6.61 0-6.61 0l.14-9.3c1.27-.64 2.68-.95 4.1-1.08 20.26-1.91 43-.08 63.19-.04 24.44.05 48.86-.2 73.18.98zM412.04 82.54v73.61c-12.69.94-25.58-.82-38.25-.04-3.4.2-11.15.88-13.61 2.44-1.41.89-2.6 3.16-3.83 3.73-3.76 1.74-16.52-4.14-21.44-4.97-3.33-.56-9.4-.96-12.99-1.16-14.49-.8-30.43-.1-44.82.94v-74.55h134.94z"/><path d="M413.19,391.87c-38.57,6.01-31.02,67.72,11.79,61.81,40.83-5.63,32.95-68.77-11.79-61.81ZM410.08,426.59c-16.74.32-16.8-24.1-1.63-27.18,19.97-4.05,21.61,26.8,1.63,27.18ZM429.71,442.36c-5.66-5.35,2.2-15.05,8.75-9.21,6.61,5.9-3.67,14-8.75,9.21Z" class="cls-2"/><path d="M429.71 442.36c-5.66-5.35 2.2-15.05 8.75-9.21 6.61 5.9-3.67 14-8.75 9.21zM410.08 426.59c-16.74.32-16.8-24.1-1.63-27.18 19.97-4.05 21.61 26.8 1.63 27.18z" class="cls-4"/><path d="M255.54,391.07c-43.6,1.14-39.04,67.15,5.49,62.85,38.4-3.71,36.48-63.96-5.49-62.85ZM253.67,424.86c-21.18,8.88-24.96-22.02-8.46-25.44,18.22-3.78,23.23,19.24,8.46,25.44ZM265.22,441.25c-4.64-7.79,5.24-13.11,10.19-7.84,5.6,5.95-5.32,16.01-10.19,7.84Z" class="cls-2"/><path d="M265.22 441.25c-4.64-7.79 5.24-13.11 10.19-7.84 5.6 5.95-5.32 16.01-10.19 7.84zM253.67 424.86c-21.18 8.88-24.96-22.02-8.46-25.44 18.22-3.78 23.23 19.24 8.46 25.44z" class="cls-4"/><path d="M309.39 431.43c5.56-1 7.65 5.13 10.72 7.77 10.16 8.76 23.58 10.47 34.32 1.49 3.97-3.32 8.4-13.26 14.62-7.95 8.42 7.18-5.99 20.7-12.53 24.19-15.39 8.22-35.52 5.14-46.85-8.22-3.73-4.4-10.1-15.51-.27-17.28zM252.82 355.13c8.09-.8 31.89.03 32.17 11.5.3 12.35-18.58 3.78-25.69 3.69-8.47-.11-15.38 3.83-21.97 4.33-7.09.53-10.3-7.63-5.14-12.77 3.54-3.52 15.6-6.25 20.62-6.75zM413.24 355.13c8.74-.87 34.49 1.14 35.57 12.81 1.13 12.11-17.92 3.41-23.55 2.92-3.14-.28-8.19-.24-11.34.05-5.9.53-19.29 7.02-20.3-3.41-.9-9.38 12.54-11.67 19.62-12.37zM308.93 564.57c-3.44-.87-26.93-.78-30.69-.02-10.65 2.14-8.1 19.01-.97 20.35 3.11.58 27.29.7 30.89.14 9.34-1.46 9.46-18.28.77-20.47zM305.86 574.71h-25.48v-2.83h25.48v2.83zM311.58 536.43c-3.49-2.53-18.18-2.02-18.18-2.02 0 0-14.67-1.25-18.76 2.01-6.44 5.13-3.63 17.47 4.27 18.52 4.12.55 27.59.53 30.77-.47 6.52-2.04 7.55-13.95 1.9-18.04zM305.86 544.51h-25.48v-2.83h25.48v2.83zM405.84 65.9c5.87-1.96 6.37 5.49 4.19 7.03-5.35 3.79-8.05-5.74-4.19-7.03zM280.64 65.62c5.87-1.96 6.37 5.49 4.19 7.03-5.35 3.79-8.05-5.74-4.19-7.03zM197.81 174.14c5.87-1.96 6.37 5.49 4.19 7.03-5.35 3.79-8.05-5.74-4.19-7.03zM317.04 173.68c5.87-1.96 6.37 5.49 4.19 7.03-5.35 3.79-8.05-5.74-4.19-7.03zM373.6 173.82c5.87-1.96 6.37 5.49 4.19 7.03-5.35 3.79-8.05-5.74-4.19-7.03zM494.1 173.82c5.87-1.96 6.37 5.49 4.19 7.03-5.35 3.79-8.05-5.74-4.19-7.03z" class="cls-2"/></svg>