<?xml version="1.0" encoding="utf-8"?>
<!-- Generator: Adobe Illustrator 26.4.1, SVG Export Plug-In . SVG Version: 6.00 Build 0)  -->
<svg version="1.1" id="图层_1" xmlns="http://www.w3.org/2000/svg" xmlns:xlink="http://www.w3.org/1999/xlink" x="0px" y="0px"
	 viewBox="0 0 470 160" style="enable-background:new 0 0 470 160;" xml:space="preserve">
<style type="text/css">
	.st0{fill:#FFFFFF;}
	.st1{fill:#0FD05D;}
	.st2{fill:none;}
</style>
<g id="Text" transform="translate(188.000000, 45.000000)">
	<path id="形状结合" class="st0" d="M50,4l-1.3,40.7L49.8,69H36.6l1.1-22.7l-0.2-5H12.2l-0.1,3.4L13.2,69H0l1.1-22.7L0,6.3
		L13.4,4l-0.9,27.4h24.8L36.6,6.3L50,4z M104.4,70l-4.6-18.4H77.1l-5,17.9L60,68.6l8.3-22.9L81,5.2L97.9,4l12.2,40.3l7.9,23.6
		L104.4,70z M89.4,16.2h-1.2l-8.1,25.4h16.8L89.4,16.2z M156.4,41h1l14.1-36.5l13.3,0.4l0.4,41.3L187,71h-13l0.5-25l-1.1-25.3
		l-11.6,31.8L150,53.1l-10.8-32.4L138.3,46l0.7,25h-12l1.4-23.4l0.6-41.2L144.3,4L156.4,41z M211,22l-1.2,24l1.1,22.6L198,71
		l1.2-23.4l-1.1-23.2L211,22z"/>
	<path id="路径" class="st1" d="M196,8.5c0-2.2,0.9-4.2,2.7-5.9c1.8-1.7,3.8-2.6,6.2-2.6s4.1,0.6,5.3,1.8c1.2,1.2,1.8,3,1.8,5.4
		s-0.9,4.5-2.6,6.2s-3.8,2.6-6.1,2.6c-2.3,0-4.1-0.7-5.4-2.1S196,10.6,196,8.5z"/>
</g>
<g id="HAMi-Graph" transform="translate(40.000000, 16.000000)">
	<rect id="Frame_00000137828736533646269710000007143956169608382355_" class="st2" width="128" height="128"/>
	<g id="资源-4" transform="translate(8.000000, 0.000000)">
		<path id="形状结合_00000111158913229118040460000017819710340699940233_" class="st1" d="M72,0c4.8,5.7,10.6,10.4,17.2,13.9
			c6.8,3.6,14.1,5.8,21.8,6.4l-0.4,4.9c-8.3-0.7-16.3-3.1-23.7-7c-1-0.5-2.1-1.1-3.1-1.7c-2,2.1-3.9,4.4-5.5,6.9
			c9.5,4.7,17.4,12.2,22.8,21.7c7.2,12.7,9,27.5,5.2,41.7c-3.8,14.2-12.8,26.1-25.3,33.6c-8.5,5-17.9,7.6-27.3,7.6
			c-4.6,0-9.2-0.6-13.8-1.8c-14-3.7-25.6-12.8-32.8-25.5C0,88-1.9,73.2,1.9,59c3.8-14.2,12.8-26.1,25.3-33.6
			C39.8,18,54.4,16,68.4,19.7c1.8,0.5,3.6,1.1,5.3,1.7c1.7-2.7,3.7-5.3,5.9-7.6c-4.2-3-8.1-6.6-11.4-10.6L72,0z M54.6,22.8
			c-8.6,0-17.1,2.3-24.8,6.9C18.4,36.5,10.2,47.3,6.7,60.3s-1.8,26.4,4.7,38c6.5,11.5,17.1,19.7,29.7,23.1c4.1,1.1,8.3,1.6,12.5,1.6
			c8.6,0,17.1-2.3,24.8-6.9c11.4-6.8,19.6-17.6,23.1-30.6s1.8-26.4-4.7-38c-6.5-11.5-17.1-19.7-29.7-23.1
			C63,23.4,58.8,22.8,54.6,22.8z M51.5,27c19.4,18,32,41.9,35.7,68.4c0.4,2.7,0.7,5.8,0.9,8.9c-1.5,1.7-3.1,3.3-4.7,4.7
			c-0.1-4.5-0.5-9.1-1-12.9C78.9,71.9,67.8,49.9,50.6,33C60.7,48,67,65.2,69.2,83.5c1.4,11.6,1,23.1-1.1,34.4
			c-3,1.1-6.2,1.8-9.4,2.2c0-1.1,0-2.2,0-3.3c0-1.5,0-3.1-0.1-4.6c-1.8,0.2-3.6,0.3-5.4,0.3c-2,0-4.1-0.1-6.1-0.4
			c0.2-1.6,0.3-3.3,0.4-4.9c3.6,0.4,7.2,0.5,10.8,0.1c-1.1-12.5-4.2-24.5-9.4-35.9C43.6,59.6,36.5,49.1,27.6,40
			c11.1,18,16.9,38.6,16.9,59.9c0,6.4-0.5,12.9-1.6,19.2c-0.4-0.1-0.7-0.2-1.1-0.3c-1.3-0.3-2.5-0.7-3.7-1.2
			c0.4-2.4,0.7-4.8,0.9-7.3c-3.3-0.9-6.5-2.2-9.5-3.7c0.1-1.8,0.2-3.7,0.2-5.5c3,1.7,6.3,3.1,9.7,4.1c0.1-1.8,0.1-3.6,0.1-5.4
			c0-21.3-6-41.7-17.5-59.5c2.2-2.2,4.6-4.2,7.2-5.9c10.2,10,18.4,21.6,24.3,34.6c6.5,14.2,9.9,29.3,10.3,45
			c1.6-9.9,1.8-20,0.6-30.1C61.9,63.7,54,44.7,41.4,28.8C44.6,27.8,48,27.2,51.5,27z M15,50.4c3.3,6.9,5.8,14.2,7.6,21.7
			c2.2,9,3.3,18.3,3.3,27.6c0,3.4-0.2,6.9-0.5,10.3c-1.6-1.4-3.2-2.8-4.6-4.4c0.1-2,0.2-4,0.2-6c0-15-3-29.9-8.8-43.5
			C13.1,54.1,14,52.2,15,50.4z M87.5,47.6c4.5,6.8,7.4,14.6,8.5,22.7L91.1,71c-1-7.4-3.7-14.5-7.7-20.7L87.5,47.6z M77.2,36
			c2.3,2,4.5,4.1,6.5,6.5l-3.8,3.2c-1.8-2.1-3.8-4.1-5.9-5.9L77.2,36z"/>
	</g>
</g>
</svg>
