<svg width="13260" height="6691" viewBox="0 0 13260 6691" fill="none" xmlns="http://www.w3.org/2000/svg">
<g filter="url(#filter0_d_2079_210)">
<mask id="path-1-outside-1_2079_210" maskUnits="userSpaceOnUse" x="160" y="4868" width="12856" height="1815" fill="black">
<rect fill="white" x="160" y="4868" width="12856" height="1815"/>
<path d="M165.6 6649V5389H520.8V5662.6H532.8C539.2 5627.4 550.4 5593.8 566.4 5561.8C582.4 5528.2 603.2 5498.6 628.8 5473C656 5447.4 688 5427.4 724.8 5413C761.6 5397 804.8 5389 854.4 5389H916.8V5720.2H828C724 5720.2 646.4 5733.8 595.2 5761C545.6 5788.2 520.8 5838.6 520.8 5912.2V6649H165.6ZM1999.91 6437.8H1987.91C1976.71 6469.8 1961.51 6500.2 1942.31 6529C1924.71 6557.8 1901.51 6583.4 1872.71 6605.8C1843.91 6628.2 1809.51 6645.8 1769.51 6658.6C1731.11 6671.4 1686.31 6677.8 1635.11 6677.8C1505.51 6677.8 1407.11 6635.4 1339.91 6550.6C1274.31 6464.2 1241.51 6341 1241.51 6181V5389H1596.71V6149.8C1596.71 6226.6 1610.31 6285.8 1637.51 6327.4C1664.71 6369 1711.11 6389.8 1776.71 6389.8C1803.91 6389.8 1831.11 6385.8 1858.31 6377.8C1885.51 6369.8 1909.51 6358.6 1930.31 6344.2C1951.11 6328.2 1967.91 6309 1980.71 6286.6C1993.51 6264.2 1999.91 6237.8 1999.91 6207.4V5389H2355.11V6649H1999.91V6437.8ZM2805.6 6649V5389H3160.8V5602.6H3175.2C3197.6 5537 3236.8 5480.2 3292.8 5432.2C3348.8 5384.2 3426.4 5360.2 3525.6 5360.2C3655.2 5360.2 3752.8 5403.4 3818.4 5489.8C3885.6 5576.2 3919.2 5699.4 3919.2 5859.4V6649H3564V5888.2C3564 5806.6 3551.2 5746.6 3525.6 5708.2C3500 5668.2 3454.4 5648.2 3388.8 5648.2C3360 5648.2 3332 5652.2 3304.8 5660.2C3277.6 5666.6 3252.8 5677.8 3230.4 5693.8C3209.6 5709.8 3192.8 5729.8 3180 5753.8C3167.2 5776.2 3160.8 5802.6 3160.8 5833V6649H2805.6ZM4355.29 6649V5389H4710.49V5602.6H4724.89C4747.29 5535.4 4785.69 5478.6 4840.09 5432.2C4894.49 5384.2 4968.89 5360.2 5063.29 5360.2C5149.69 5360.2 5223.29 5381.8 5284.09 5425C5344.89 5468.2 5388.89 5531.4 5416.09 5614.6H5423.29C5434.49 5579.4 5451.29 5546.6 5473.69 5516.2C5497.69 5484.2 5526.49 5457 5560.09 5434.6C5593.69 5412.2 5631.29 5394.6 5672.89 5381.8C5714.49 5367.4 5759.29 5360.2 5807.29 5360.2C5928.89 5360.2 6021.69 5403.4 6085.69 5489.8C6151.29 5576.2 6184.09 5699.4 6184.09 5859.4V6649H5828.89V5888.2C5828.89 5728.2 5771.29 5648.2 5656.09 5648.2C5603.29 5648.2 5555.29 5663.4 5512.09 5693.8C5468.89 5724.2 5447.29 5770.6 5447.29 5833V6649H5092.09V5888.2C5092.09 5728.2 5034.49 5648.2 4919.29 5648.2C4893.69 5648.2 4868.09 5652.2 4842.49 5660.2C4818.49 5666.6 4796.09 5677.8 4775.29 5693.8C4756.09 5709.8 4740.09 5729.8 4727.29 5753.8C4716.09 5776.2 4710.49 5802.6 4710.49 5833V6649H4355.29ZM7145.42 6677.8C7049.42 6677.8 6963.82 6662.6 6888.62 6632.2C6813.42 6600.2 6749.42 6556.2 6696.62 6500.2C6645.42 6442.6 6606.22 6373 6579.02 6291.4C6553.42 6209.8 6540.62 6118.6 6540.62 6017.8C6540.62 5918.6 6553.42 5829 6579.02 5749C6604.62 5667.4 6642.22 5597.8 6691.82 5540.2C6743.02 5482.6 6805.42 5438.6 6879.02 5408.2C6952.62 5376.2 7036.62 5360.2 7131.02 5360.2C7235.02 5360.2 7323.82 5377.8 7397.42 5413C7472.62 5448.2 7533.42 5495.4 7579.82 5554.6C7627.82 5613.8 7662.22 5682.6 7683.02 5761C7705.42 5837.8 7716.62 5918.6 7716.62 6003.4V6109H6907.82V6128.2C6907.82 6211.4 6930.22 6277.8 6975.02 6327.4C7019.82 6375.4 7090.22 6399.4 7186.22 6399.4C7259.82 6399.4 7319.82 6385 7366.22 6356.2C7412.62 6325.8 7455.82 6289.8 7495.82 6248.2L7673.42 6469C7617.42 6534.6 7543.82 6585.8 7452.62 6622.6C7363.02 6659.4 7260.62 6677.8 7145.42 6677.8ZM7138.22 5621.8C7066.22 5621.8 7009.42 5645.8 6967.82 5693.8C6927.82 5740.2 6907.82 5802.6 6907.82 5881V5900.2H7349.42V5878.6C7349.42 5801.8 7331.82 5740.2 7296.62 5693.8C7263.02 5645.8 7210.22 5621.8 7138.22 5621.8ZM8258.72 6675.4C8186.72 6675.4 8133.12 6657.8 8097.92 6622.6C8064.32 6585.8 8047.52 6539.4 8047.52 6483.4V6435.4C8047.52 6379.4 8064.32 6333.8 8097.92 6298.6C8133.12 6261.8 8186.72 6243.4 8258.72 6243.4C8330.72 6243.4 8383.52 6261.8 8417.12 6298.6C8452.32 6333.8 8469.92 6379.4 8469.92 6435.4V6483.4C8469.92 6539.4 8452.32 6585.8 8417.12 6622.6C8383.52 6657.8 8330.72 6675.4 8258.72 6675.4ZM9652.93 6437.8H9640.93C9631.33 6471.4 9616.13 6503.4 9595.33 6533.8C9574.53 6562.6 9548.93 6588.2 9518.53 6610.6C9489.73 6631.4 9456.13 6647.4 9417.73 6658.6C9380.93 6671.4 9342.53 6677.8 9302.53 6677.8C9142.53 6677.8 9021.73 6621.8 8940.13 6509.8C8858.53 6396.2 8817.73 6232.2 8817.73 6017.8C8817.73 5803.4 8858.53 5640.2 8940.13 5528.2C9021.73 5416.2 9142.53 5360.2 9302.53 5360.2C9384.13 5360.2 9456.13 5382.6 9518.53 5427.4C9582.53 5472.2 9623.33 5529.8 9640.93 5600.2H9652.93V4873H10008.1V6649H9652.93V6437.8ZM9420.13 6389.8C9487.33 6389.8 9542.53 6373.8 9585.73 6341.8C9630.53 6308.2 9652.93 6262.6 9652.93 6205V5833C9652.93 5775.4 9630.53 5730.6 9585.73 5698.6C9542.53 5665 9487.33 5648.2 9420.13 5648.2C9352.93 5648.2 9296.93 5672.2 9252.13 5720.2C9208.93 5766.6 9187.33 5829.8 9187.33 5909.8V6128.2C9187.33 6208.2 9208.93 6272.2 9252.13 6320.2C9296.93 6366.6 9352.93 6389.8 9420.13 6389.8ZM10985.9 6677.8C10889.9 6677.8 10804.3 6662.6 10729.1 6632.2C10653.9 6600.2 10589.9 6556.2 10537.1 6500.2C10485.9 6442.6 10446.7 6373 10419.5 6291.4C10393.9 6209.8 10381.1 6118.6 10381.1 6017.8C10381.1 5918.6 10393.9 5829 10419.5 5749C10445.1 5667.4 10482.7 5597.8 10532.3 5540.2C10583.5 5482.6 10645.9 5438.6 10719.5 5408.2C10793.1 5376.2 10877.1 5360.2 10971.5 5360.2C11075.5 5360.2 11164.3 5377.8 11237.9 5413C11313.1 5448.2 11373.9 5495.4 11420.3 5554.6C11468.3 5613.8 11502.7 5682.6 11523.5 5761C11545.9 5837.8 11557.1 5918.6 11557.1 6003.4V6109H10748.3V6128.2C10748.3 6211.4 10770.7 6277.8 10815.5 6327.4C10860.3 6375.4 10930.7 6399.4 11026.7 6399.4C11100.3 6399.4 11160.3 6385 11206.7 6356.2C11253.1 6325.8 11296.3 6289.8 11336.3 6248.2L11513.9 6469C11457.9 6534.6 11384.3 6585.8 11293.1 6622.6C11203.5 6659.4 11101.1 6677.8 10985.9 6677.8ZM10978.7 5621.8C10906.7 5621.8 10849.9 5645.8 10808.3 5693.8C10768.3 5740.2 10748.3 5802.6 10748.3 5881V5900.2H11189.9V5878.6C11189.9 5801.8 11172.3 5740.2 11137.1 5693.8C11103.5 5645.8 11050.7 5621.8 10978.7 5621.8ZM12173.3 6649L11760.5 5389H12110.9L12266.9 5897.8L12384.5 6353.8H12403.7L12521.3 5897.8L12672.5 5389H13008.5L12595.7 6649H12173.3Z"/>
</mask>
<path d="M165.6 6649V5389H520.8V5662.6H532.8C539.2 5627.4 550.4 5593.8 566.4 5561.8C582.4 5528.2 603.2 5498.6 628.8 5473C656 5447.4 688 5427.4 724.8 5413C761.6 5397 804.8 5389 854.4 5389H916.8V5720.2H828C724 5720.2 646.4 5733.8 595.2 5761C545.6 5788.2 520.8 5838.6 520.8 5912.2V6649H165.6ZM1999.91 6437.8H1987.91C1976.71 6469.8 1961.51 6500.2 1942.31 6529C1924.71 6557.8 1901.51 6583.4 1872.71 6605.8C1843.91 6628.2 1809.51 6645.8 1769.51 6658.6C1731.11 6671.4 1686.31 6677.8 1635.11 6677.8C1505.51 6677.8 1407.11 6635.4 1339.91 6550.6C1274.31 6464.2 1241.51 6341 1241.51 6181V5389H1596.71V6149.8C1596.71 6226.6 1610.31 6285.8 1637.51 6327.4C1664.71 6369 1711.11 6389.8 1776.71 6389.8C1803.91 6389.8 1831.11 6385.8 1858.31 6377.8C1885.51 6369.8 1909.51 6358.6 1930.31 6344.2C1951.11 6328.2 1967.91 6309 1980.71 6286.6C1993.51 6264.2 1999.91 6237.8 1999.91 6207.4V5389H2355.11V6649H1999.91V6437.8ZM2805.6 6649V5389H3160.8V5602.6H3175.2C3197.6 5537 3236.8 5480.2 3292.8 5432.2C3348.8 5384.2 3426.4 5360.2 3525.6 5360.2C3655.2 5360.2 3752.8 5403.4 3818.4 5489.8C3885.6 5576.2 3919.2 5699.4 3919.2 5859.4V6649H3564V5888.2C3564 5806.6 3551.2 5746.6 3525.6 5708.2C3500 5668.2 3454.4 5648.2 3388.8 5648.2C3360 5648.2 3332 5652.2 3304.8 5660.2C3277.6 5666.6 3252.8 5677.8 3230.4 5693.8C3209.6 5709.8 3192.8 5729.8 3180 5753.8C3167.2 5776.2 3160.8 5802.6 3160.8 5833V6649H2805.6ZM4355.29 6649V5389H4710.49V5602.6H4724.89C4747.29 5535.4 4785.69 5478.6 4840.09 5432.2C4894.49 5384.2 4968.89 5360.2 5063.29 5360.2C5149.69 5360.2 5223.29 5381.8 5284.09 5425C5344.89 5468.2 5388.89 5531.4 5416.09 5614.6H5423.29C5434.49 5579.4 5451.29 5546.6 5473.69 5516.2C5497.69 5484.2 5526.49 5457 5560.09 5434.6C5593.69 5412.2 5631.29 5394.6 5672.89 5381.8C5714.49 5367.4 5759.29 5360.2 5807.29 5360.2C5928.89 5360.2 6021.69 5403.4 6085.69 5489.8C6151.29 5576.2 6184.09 5699.4 6184.09 5859.4V6649H5828.89V5888.2C5828.89 5728.2 5771.29 5648.2 5656.09 5648.2C5603.29 5648.2 5555.29 5663.4 5512.09 5693.8C5468.89 5724.2 5447.29 5770.6 5447.29 5833V6649H5092.09V5888.2C5092.09 5728.2 5034.49 5648.2 4919.29 5648.2C4893.69 5648.2 4868.09 5652.2 4842.49 5660.2C4818.49 5666.6 4796.09 5677.8 4775.29 5693.8C4756.09 5709.8 4740.09 5729.8 4727.29 5753.8C4716.09 5776.2 4710.49 5802.6 4710.49 5833V6649H4355.29ZM7145.42 6677.8C7049.42 6677.8 6963.82 6662.6 6888.62 6632.2C6813.42 6600.2 6749.42 6556.2 6696.62 6500.2C6645.42 6442.6 6606.22 6373 6579.02 6291.4C6553.42 6209.8 6540.62 6118.6 6540.62 6017.8C6540.62 5918.6 6553.42 5829 6579.02 5749C6604.62 5667.4 6642.22 5597.8 6691.82 5540.2C6743.02 5482.6 6805.42 5438.6 6879.02 5408.2C6952.62 5376.2 7036.62 5360.2 7131.02 5360.2C7235.02 5360.2 7323.82 5377.8 7397.42 5413C7472.62 5448.2 7533.42 5495.4 7579.82 5554.6C7627.82 5613.8 7662.22 5682.6 7683.02 5761C7705.42 5837.8 7716.62 5918.6 7716.62 6003.4V6109H6907.82V6128.2C6907.82 6211.4 6930.22 6277.8 6975.02 6327.4C7019.82 6375.4 7090.22 6399.4 7186.22 6399.4C7259.82 6399.4 7319.82 6385 7366.22 6356.2C7412.62 6325.8 7455.82 6289.8 7495.82 6248.2L7673.42 6469C7617.42 6534.6 7543.82 6585.8 7452.62 6622.6C7363.02 6659.4 7260.62 6677.8 7145.42 6677.8ZM7138.22 5621.8C7066.22 5621.8 7009.42 5645.8 6967.82 5693.8C6927.82 5740.2 6907.82 5802.6 6907.82 5881V5900.2H7349.42V5878.6C7349.42 5801.8 7331.82 5740.2 7296.62 5693.8C7263.02 5645.8 7210.22 5621.8 7138.22 5621.8ZM8258.72 6675.4C8186.72 6675.4 8133.12 6657.8 8097.92 6622.6C8064.32 6585.8 8047.52 6539.4 8047.52 6483.4V6435.4C8047.52 6379.4 8064.32 6333.8 8097.92 6298.6C8133.12 6261.8 8186.72 6243.4 8258.72 6243.4C8330.72 6243.4 8383.52 6261.8 8417.12 6298.6C8452.32 6333.8 8469.92 6379.4 8469.92 6435.4V6483.4C8469.92 6539.4 8452.32 6585.8 8417.12 6622.6C8383.52 6657.8 8330.72 6675.4 8258.72 6675.4ZM9652.93 6437.8H9640.93C9631.33 6471.4 9616.13 6503.4 9595.33 6533.8C9574.53 6562.6 9548.93 6588.2 9518.53 6610.6C9489.73 6631.4 9456.13 6647.4 9417.73 6658.6C9380.93 6671.4 9342.53 6677.8 9302.53 6677.8C9142.53 6677.8 9021.73 6621.8 8940.13 6509.8C8858.53 6396.2 8817.73 6232.2 8817.73 6017.8C8817.73 5803.4 8858.53 5640.2 8940.13 5528.2C9021.73 5416.2 9142.53 5360.2 9302.53 5360.2C9384.13 5360.2 9456.13 5382.6 9518.53 5427.4C9582.53 5472.2 9623.33 5529.8 9640.93 5600.2H9652.93V4873H10008.1V6649H9652.93V6437.8ZM9420.13 6389.8C9487.33 6389.8 9542.53 6373.8 9585.73 6341.8C9630.53 6308.2 9652.93 6262.6 9652.93 6205V5833C9652.93 5775.4 9630.53 5730.6 9585.73 5698.6C9542.53 5665 9487.33 5648.2 9420.13 5648.2C9352.93 5648.2 9296.93 5672.2 9252.13 5720.2C9208.93 5766.6 9187.33 5829.8 9187.33 5909.8V6128.2C9187.33 6208.2 9208.93 6272.2 9252.13 6320.2C9296.93 6366.6 9352.93 6389.8 9420.13 6389.8ZM10985.9 6677.8C10889.9 6677.8 10804.3 6662.6 10729.1 6632.2C10653.9 6600.2 10589.9 6556.2 10537.1 6500.2C10485.9 6442.6 10446.7 6373 10419.5 6291.4C10393.9 6209.8 10381.1 6118.6 10381.1 6017.8C10381.1 5918.6 10393.9 5829 10419.5 5749C10445.1 5667.4 10482.7 5597.8 10532.3 5540.2C10583.5 5482.6 10645.9 5438.6 10719.5 5408.2C10793.1 5376.2 10877.1 5360.2 10971.5 5360.2C11075.5 5360.2 11164.3 5377.8 11237.9 5413C11313.1 5448.2 11373.9 5495.4 11420.3 5554.6C11468.3 5613.8 11502.7 5682.6 11523.5 5761C11545.9 5837.8 11557.1 5918.6 11557.1 6003.4V6109H10748.3V6128.2C10748.3 6211.4 10770.7 6277.8 10815.5 6327.4C10860.3 6375.4 10930.7 6399.4 11026.7 6399.4C11100.3 6399.4 11160.3 6385 11206.7 6356.2C11253.1 6325.8 11296.3 6289.8 11336.3 6248.2L11513.9 6469C11457.9 6534.6 11384.3 6585.8 11293.1 6622.6C11203.5 6659.4 11101.1 6677.8 10985.9 6677.8ZM10978.7 5621.8C10906.7 5621.8 10849.9 5645.8 10808.3 5693.8C10768.3 5740.2 10748.3 5802.6 10748.3 5881V5900.2H11189.9V5878.6C11189.9 5801.8 11172.3 5740.2 11137.1 5693.8C11103.5 5645.8 11050.7 5621.8 10978.7 5621.8ZM12173.3 6649L11760.5 5389H12110.9L12266.9 5897.8L12384.5 6353.8H12403.7L12521.3 5897.8L12672.5 5389H13008.5L12595.7 6649H12173.3Z" fill="white"/>
<path d="M165.6 6649H160.6V6654H165.6V6649ZM165.6 5389V5384H160.6V5389H165.6ZM520.8 5389H525.8V5384H520.8V5389ZM520.8 5662.6H515.8V5667.6H520.8V5662.6ZM532.8 5662.6V5667.6H536.973L537.719 5663.49L532.8 5662.6ZM566.4 5561.8L570.872 5564.04L570.894 5563.99L570.914 5563.95L566.4 5561.8ZM628.8 5473L625.373 5469.36L625.318 5469.41L625.265 5469.46L628.8 5473ZM724.8 5413L726.622 5417.66L726.709 5417.62L726.794 5417.59L724.8 5413ZM916.8 5389H921.8V5384H916.8V5389ZM916.8 5720.2V5725.2H921.8V5720.2H916.8ZM595.2 5761L592.854 5756.58L592.825 5756.6L592.796 5756.62L595.2 5761ZM520.8 6649V6654H525.8V6649H520.8ZM170.6 6649V5389H160.6V6649H170.6ZM165.6 5394H520.8V5384H165.6V5394ZM515.8 5389V5662.6H525.8V5389H515.8ZM520.8 5667.6H532.8V5657.6H520.8V5667.6ZM537.719 5663.49C544.035 5628.76 555.084 5595.61 570.872 5564.04L561.928 5559.56C545.716 5591.99 534.365 5626.04 527.881 5661.71L537.719 5663.49ZM570.914 5563.95C586.676 5530.85 607.15 5501.72 632.336 5476.54L625.265 5469.46C599.25 5495.48 578.124 5525.55 561.886 5559.65L570.914 5563.95ZM632.227 5476.64C658.935 5451.5 690.382 5431.84 726.622 5417.66L722.978 5408.34C685.618 5422.96 653.065 5443.3 625.373 5469.36L632.227 5476.64ZM726.794 5417.59C762.835 5401.92 805.329 5394 854.4 5394V5384C804.271 5384 760.365 5392.08 722.806 5408.41L726.794 5417.59ZM854.4 5394H916.8V5384H854.4V5394ZM911.8 5389V5720.2H921.8V5389H911.8ZM916.8 5715.2H828V5725.2H916.8V5715.2ZM828 5715.2C723.736 5715.2 645.144 5728.81 592.854 5756.58L597.546 5765.42C647.656 5738.79 724.264 5725.2 828 5725.2V5715.2ZM592.796 5756.62C541.105 5784.96 515.8 5837.41 515.8 5912.2H525.8C525.8 5839.79 550.095 5791.44 597.604 5765.38L592.796 5756.62ZM515.8 5912.2V6649H525.8V5912.2H515.8ZM520.8 6644H165.6V6654H520.8V6644ZM1999.91 6437.8H2004.91V6432.8H1999.91V6437.8ZM1987.91 6437.8V6432.8H1984.37L1983.19 6436.15L1987.91 6437.8ZM1942.31 6529L1938.15 6526.23L1938.1 6526.31L1938.05 6526.39L1942.31 6529ZM1872.71 6605.8L1869.64 6601.85L1869.64 6601.85L1872.71 6605.8ZM1769.51 6658.6L1767.99 6653.84L1767.96 6653.85L1767.93 6653.86L1769.51 6658.6ZM1339.91 6550.6L1335.93 6553.62L1335.96 6553.66L1335.99 6553.71L1339.91 6550.6ZM1241.51 5389V5384H1236.51V5389H1241.51ZM1596.71 5389H1601.71V5384H1596.71V5389ZM1637.51 6327.4L1641.7 6324.66L1641.7 6324.66L1637.51 6327.4ZM1858.31 6377.8L1859.72 6382.6L1859.72 6382.6L1858.31 6377.8ZM1930.31 6344.2L1933.16 6348.31L1933.26 6348.24L1933.36 6348.16L1930.31 6344.2ZM1980.71 6286.6L1985.05 6289.08L1985.05 6289.08L1980.71 6286.6ZM1999.91 5389V5384H1994.91V5389H1999.91ZM2355.11 5389H2360.11V5384H2355.11V5389ZM2355.11 6649V6654H2360.11V6649H2355.11ZM1999.91 6649H1994.91V6654H1999.91V6649ZM1999.91 6432.8H1987.91V6442.8H1999.91V6432.8ZM1983.19 6436.15C1972.13 6467.74 1957.12 6497.77 1938.15 6526.23L1946.47 6531.77C1965.9 6502.63 1981.29 6471.86 1992.63 6439.45L1983.19 6436.15ZM1938.05 6526.39C1920.79 6554.64 1898.01 6579.79 1869.64 6601.85L1875.78 6609.75C1905.02 6587.01 1928.64 6560.96 1946.58 6531.61L1938.05 6526.39ZM1869.64 6601.85C1841.37 6623.84 1807.51 6641.19 1767.99 6653.84L1771.04 6663.36C1811.51 6650.41 1846.45 6632.56 1875.78 6609.75L1869.64 6601.85ZM1767.93 6653.86C1730.16 6666.45 1685.91 6672.8 1635.11 6672.8V6682.8C1686.71 6682.8 1732.07 6676.35 1771.09 6663.34L1767.93 6653.86ZM1635.11 6672.8C1506.7 6672.8 1409.89 6630.86 1343.83 6547.49L1335.99 6553.71C1404.33 6639.94 1504.32 6682.8 1635.11 6682.8V6672.8ZM1343.89 6547.58C1279.2 6462.37 1246.51 6340.4 1246.51 6181H1236.51C1236.51 6341.6 1269.42 6466.03 1335.93 6553.62L1343.89 6547.58ZM1246.51 6181V5389H1236.51V6181H1246.51ZM1241.51 5394H1596.71V5384H1241.51V5394ZM1591.71 5389V6149.8H1601.71V5389H1591.71ZM1591.71 6149.8C1591.71 6227.08 1605.38 6287.39 1633.33 6330.14L1641.7 6324.66C1615.25 6284.21 1601.71 6226.12 1601.71 6149.8H1591.71ZM1633.33 6330.14C1661.74 6373.59 1710.03 6394.8 1776.71 6394.8V6384.8C1712.2 6384.8 1667.69 6364.41 1641.7 6324.66L1633.33 6330.14ZM1776.71 6394.8C1804.41 6394.8 1832.08 6390.73 1859.72 6382.6L1856.9 6373C1830.14 6380.87 1803.42 6384.8 1776.71 6384.8V6394.8ZM1859.72 6382.6C1887.37 6374.46 1911.87 6363.05 1933.16 6348.31L1927.47 6340.09C1907.15 6354.15 1883.65 6365.14 1856.9 6373L1859.72 6382.6ZM1933.36 6348.16C1954.68 6331.77 1971.92 6312.07 1985.05 6289.08L1976.37 6284.12C1963.91 6305.93 1947.55 6324.63 1927.26 6340.24L1933.36 6348.16ZM1985.05 6289.08C1998.36 6265.8 2004.91 6238.51 2004.91 6207.4H1994.91C1994.91 6237.09 1988.67 6262.6 1976.37 6284.12L1985.05 6289.08ZM2004.91 6207.4V5389H1994.91V6207.4H2004.91ZM1999.91 5394H2355.11V5384H1999.91V5394ZM2350.11 5389V6649H2360.11V5389H2350.11ZM2355.11 6644H1999.91V6654H2355.11V6644ZM2004.91 6649V6437.8H1994.91V6649H2004.91ZM2805.6 6649H2800.6V6654H2805.6V6649ZM2805.6 5389V5384H2800.6V5389H2805.6ZM3160.8 5389H3165.8V5384H3160.8V5389ZM3160.8 5602.6H3155.8V5607.6H3160.8V5602.6ZM3175.2 5602.6V5607.6H3178.78L3179.93 5604.22L3175.2 5602.6ZM3292.8 5432.2L3289.55 5428.4L3289.55 5428.4L3292.8 5432.2ZM3818.4 5489.8L3814.42 5492.82L3814.44 5492.85L3814.45 5492.87L3818.4 5489.8ZM3919.2 6649V6654H3924.2V6649H3919.2ZM3564 6649H3559V6654H3564V6649ZM3525.6 5708.2L3521.39 5710.9L3521.41 5710.93L3521.44 5710.97L3525.6 5708.2ZM3304.8 5660.2L3305.95 5665.07L3306.08 5665.04L3306.21 5665L3304.8 5660.2ZM3230.4 5693.8L3227.49 5689.73L3227.42 5689.78L3227.35 5689.84L3230.4 5693.8ZM3180 5753.8L3184.34 5756.28L3184.38 5756.22L3184.41 5756.15L3180 5753.8ZM3160.8 6649V6654H3165.8V6649H3160.8ZM2810.6 6649V5389H2800.6V6649H2810.6ZM2805.6 5394H3160.8V5384H2805.6V5394ZM3155.8 5389V5602.6H3165.8V5389H3155.8ZM3160.8 5607.6H3175.2V5597.6H3160.8V5607.6ZM3179.93 5604.22C3202.02 5539.52 3240.69 5483.45 3296.05 5436L3289.55 5428.4C3232.91 5476.95 3193.18 5534.48 3170.47 5600.98L3179.93 5604.22ZM3296.05 5436C3350.88 5389.01 3427.18 5365.2 3525.6 5365.2V5355.2C3425.62 5355.2 3346.72 5379.39 3289.55 5428.4L3296.05 5436ZM3525.6 5365.2C3653.98 5365.2 3749.95 5407.92 3814.42 5492.82L3822.38 5486.78C3755.65 5398.88 3656.42 5355.2 3525.6 5355.2V5365.2ZM3814.45 5492.87C3880.72 5578.07 3914.2 5700.02 3914.2 5859.4H3924.2C3924.2 5698.78 3890.48 5574.33 3822.35 5486.73L3814.45 5492.87ZM3914.2 5859.4V6649H3924.2V5859.4H3914.2ZM3919.2 6644H3564V6654H3919.2V6644ZM3569 6649V5888.2H3559V6649H3569ZM3569 5888.2C3569 5806.28 3556.19 5745.07 3529.76 5705.43L3521.44 5710.97C3546.21 5748.13 3559 5806.92 3559 5888.2H3569ZM3529.81 5705.5C3502.96 5663.55 3455.39 5643.2 3388.8 5643.2V5653.2C3453.41 5653.2 3497.04 5672.85 3521.39 5710.9L3529.81 5705.5ZM3388.8 5643.2C3359.53 5643.2 3331.05 5647.27 3303.39 5655.4L3306.21 5665C3332.95 5657.13 3360.47 5653.2 3388.8 5653.2V5643.2ZM3303.65 5655.33C3275.83 5661.88 3250.43 5673.35 3227.49 5689.73L3233.31 5697.87C3255.17 5682.25 3279.37 5671.32 3305.95 5665.07L3303.65 5655.33ZM3227.35 5689.84C3205.97 5706.29 3188.71 5726.84 3175.59 5751.45L3184.41 5756.15C3196.89 5732.76 3213.23 5713.31 3233.45 5697.76L3227.35 5689.84ZM3175.66 5751.32C3162.36 5774.6 3155.8 5801.89 3155.8 5833H3165.8C3165.8 5803.31 3172.04 5777.8 3184.34 5756.28L3175.66 5751.32ZM3155.8 5833V6649H3165.8V5833H3155.8ZM3160.8 6644H2805.6V6654H3160.8V6644ZM4355.29 6649H4350.29V6654H4355.29V6649ZM4355.29 5389V5384H4350.29V5389H4355.29ZM4710.49 5389H4715.49V5384H4710.49V5389ZM4710.49 5602.6H4705.49V5607.6H4710.49V5602.6ZM4724.89 5602.6V5607.6H4728.49L4729.63 5604.18L4724.89 5602.6ZM4840.09 5432.2L4843.33 5436L4843.36 5435.98L4843.4 5435.95L4840.09 5432.2ZM5284.09 5425L5286.98 5420.92L5286.98 5420.92L5284.09 5425ZM5416.09 5614.6L5411.34 5616.15L5412.46 5619.6H5416.09V5614.6ZM5423.29 5614.6V5619.6H5426.94L5428.05 5616.12L5423.29 5614.6ZM5473.69 5516.2L5469.69 5513.2L5469.67 5513.22L5469.66 5513.23L5473.69 5516.2ZM5560.09 5434.6L5562.86 5438.76L5562.86 5438.76L5560.09 5434.6ZM5672.89 5381.8L5674.36 5386.58L5674.44 5386.55L5674.52 5386.52L5672.89 5381.8ZM6085.69 5489.8L6081.67 5492.78L6081.69 5492.8L6081.71 5492.82L6085.69 5489.8ZM6184.09 6649V6654H6189.09V6649H6184.09ZM5828.89 6649H5823.89V6654H5828.89V6649ZM5512.09 5693.8L5509.21 5689.71L5509.21 5689.71L5512.09 5693.8ZM5447.29 6649V6654H5452.29V6649H5447.29ZM5092.09 6649H5087.09V6654H5092.09V6649ZM4842.49 5660.2L4843.78 5665.03L4843.88 5665L4843.98 5664.97L4842.49 5660.2ZM4775.29 5693.8L4772.24 5689.84L4772.16 5689.9L4772.09 5689.96L4775.29 5693.8ZM4727.29 5753.8L4722.88 5751.45L4722.84 5751.51L4722.82 5751.56L4727.29 5753.8ZM4710.49 6649V6654H4715.49V6649H4710.49ZM4360.29 6649V5389H4350.29V6649H4360.29ZM4355.29 5394H4710.49V5384H4355.29V5394ZM4705.49 5389V5602.6H4715.49V5389H4705.49ZM4710.49 5607.6H4724.89V5597.6H4710.49V5607.6ZM4729.63 5604.18C4751.74 5537.85 4789.62 5481.82 4843.33 5436L4836.84 5428.4C4781.76 5475.38 4742.83 5532.95 4720.14 5601.02L4729.63 5604.18ZM4843.4 5435.95C4896.64 5388.97 4969.73 5365.2 5063.29 5365.2V5355.2C4968.04 5355.2 4892.34 5379.43 4836.78 5428.45L4843.4 5435.95ZM5063.29 5365.2C5148.82 5365.2 5221.37 5386.57 5281.19 5429.08L5286.98 5420.92C5225.21 5377.03 5150.56 5355.2 5063.29 5355.2V5365.2ZM5281.19 5429.08C5340.97 5471.55 5384.41 5533.79 5411.34 5616.15L5420.84 5613.05C5393.37 5529.01 5348.8 5464.85 5286.98 5420.92L5281.19 5429.08ZM5416.09 5619.6H5423.29V5609.6H5416.09V5619.6ZM5428.05 5616.12C5439.08 5581.45 5455.63 5549.14 5477.71 5519.17L5469.66 5513.23C5446.95 5544.06 5429.89 5577.35 5418.52 5613.08L5428.05 5616.12ZM5477.69 5519.2C5501.34 5487.66 5529.73 5460.85 5562.86 5438.76L5557.31 5430.44C5523.25 5453.15 5494.03 5480.74 5469.69 5513.2L5477.69 5519.2ZM5562.86 5438.76C5596.03 5416.65 5633.18 5399.25 5674.36 5386.58L5671.42 5377.02C5629.39 5389.95 5591.35 5407.75 5557.31 5430.44L5562.86 5438.76ZM5674.52 5386.52C5715.55 5372.32 5759.79 5365.2 5807.29 5365.2V5355.2C5758.78 5355.2 5713.42 5362.48 5671.25 5377.08L5674.52 5386.52ZM5807.29 5365.2C5927.54 5365.2 6018.75 5407.83 6081.67 5492.78L6089.71 5486.82C6024.63 5398.97 5930.23 5355.2 5807.29 5355.2V5365.2ZM6081.71 5492.82C6146.4 5578.03 6179.09 5700 6179.09 5859.4H6189.09C6189.09 5698.8 6156.18 5574.37 6089.67 5486.78L6081.71 5492.82ZM6179.09 5859.4V6649H6189.09V5859.4H6179.09ZM6184.09 6644H5828.89V6654H6184.09V6644ZM5833.89 6649V5888.2H5823.89V6649H5833.89ZM5833.89 5888.2C5833.89 5807.75 5819.43 5746.51 5789.75 5705.28C5759.84 5663.74 5714.99 5643.2 5656.09 5643.2V5653.2C5712.39 5653.2 5753.94 5672.66 5781.63 5711.12C5809.54 5749.89 5823.89 5808.65 5823.89 5888.2H5833.89ZM5656.09 5643.2C5602.26 5643.2 5553.25 5658.72 5509.21 5689.71L5514.96 5697.89C5557.32 5668.08 5604.32 5653.2 5656.09 5653.2V5643.2ZM5509.21 5689.71C5464.43 5721.23 5442.29 5769.31 5442.29 5833H5452.29C5452.29 5771.89 5473.35 5727.17 5514.96 5697.89L5509.21 5689.71ZM5442.29 5833V6649H5452.29V5833H5442.29ZM5447.29 6644H5092.09V6654H5447.29V6644ZM5097.09 6649V5888.2H5087.09V6649H5097.09ZM5097.09 5888.2C5097.09 5807.75 5082.63 5746.51 5052.95 5705.28C5023.04 5663.74 4978.19 5643.2 4919.29 5643.2V5653.2C4975.59 5653.2 5017.14 5672.66 5044.83 5711.12C5072.74 5749.89 5087.09 5808.65 5087.09 5888.2H5097.09ZM4919.29 5643.2C4893.16 5643.2 4867.06 5647.28 4841 5655.43L4843.98 5664.97C4869.12 5657.12 4894.22 5653.2 4919.29 5653.2V5643.2ZM4841.2 5655.37C4816.53 5661.95 4793.53 5673.46 4772.24 5689.84L4778.34 5697.76C4798.64 5682.14 4820.45 5671.25 4843.78 5665.03L4841.2 5655.37ZM4772.09 5689.96C4752.35 5706.41 4735.95 5726.93 4722.88 5751.45L4731.7 5756.15C4744.22 5732.67 4759.83 5713.19 4778.49 5697.64L4772.09 5689.96ZM4722.82 5751.56C4711.2 5774.79 4705.49 5801.99 4705.49 5833H4715.49C4715.49 5803.21 4720.97 5777.61 4731.76 5756.04L4722.82 5751.56ZM4705.49 5833V6649H4715.49V5833H4705.49ZM4710.49 6644H4355.29V6654H4710.49V6644ZM6888.62 6632.2L6886.66 6636.8L6886.7 6636.82L6886.74 6636.84L6888.62 6632.2ZM6696.62 6500.2L6692.88 6503.52L6692.93 6503.58L6692.98 6503.63L6696.62 6500.2ZM6579.02 6291.4L6574.25 6292.9L6574.26 6292.94L6574.28 6292.98L6579.02 6291.4ZM6579.02 5749L6583.78 5750.52L6583.79 5750.51L6583.79 5750.5L6579.02 5749ZM6691.82 5540.2L6688.08 5536.88L6688.06 5536.91L6688.03 5536.94L6691.82 5540.2ZM6879.02 5408.2L6880.93 5412.82L6880.97 5412.8L6881.01 5412.79L6879.02 5408.2ZM7397.42 5413L7395.26 5417.51L7395.28 5417.52L7395.3 5417.53L7397.42 5413ZM7579.82 5554.6L7575.88 5557.68L7575.91 5557.72L7575.93 5557.75L7579.82 5554.6ZM7683.02 5761L7678.19 5762.28L7678.2 5762.34L7678.22 5762.4L7683.02 5761ZM7716.62 6109V6114H7721.62V6109H7716.62ZM6907.82 6109V6104H6902.82V6109H6907.82ZM6975.02 6327.4L6971.31 6330.75L6971.34 6330.78L6971.36 6330.81L6975.02 6327.4ZM7366.22 6356.2L7368.86 6360.45L7368.91 6360.42L7368.96 6360.38L7366.22 6356.2ZM7495.82 6248.2L7499.71 6245.07L7496.15 6240.64L7492.21 6244.73L7495.82 6248.2ZM7673.42 6469L7677.22 6472.25L7679.91 6469.09L7677.31 6465.87L7673.42 6469ZM7452.62 6622.6L7450.75 6617.96L7450.73 6617.97L7450.72 6617.97L7452.62 6622.6ZM6967.82 5693.8L6964.04 5690.53L6964.03 5690.54L6967.82 5693.8ZM6907.82 5900.2H6902.82V5905.2H6907.82V5900.2ZM7349.42 5900.2V5905.2H7354.42V5900.2H7349.42ZM7296.62 5693.8L7292.52 5696.67L7292.58 5696.75L7292.64 5696.82L7296.62 5693.8ZM7145.42 6672.8C7049.95 6672.8 6965 6657.68 6890.49 6627.56L6886.74 6636.84C6962.64 6667.52 7048.89 6682.8 7145.42 6682.8V6672.8ZM6890.58 6627.6C6815.97 6595.85 6752.55 6552.24 6700.26 6496.77L6692.98 6503.63C6746.28 6560.16 6810.87 6604.55 6886.66 6636.8L6890.58 6627.6ZM6700.36 6496.88C6649.66 6439.84 6610.77 6370.85 6583.76 6289.82L6574.28 6292.98C6601.66 6375.15 6641.18 6445.36 6692.88 6503.52L6700.36 6496.88ZM6583.79 6289.9C6558.37 6208.87 6545.62 6118.18 6545.62 6017.8H6535.62C6535.62 6119.02 6548.47 6210.73 6574.25 6292.9L6583.79 6289.9ZM6545.62 6017.8C6545.62 5919.03 6558.36 5829.95 6583.78 5750.52L6574.26 5747.48C6548.47 5828.05 6535.62 5918.17 6535.62 6017.8H6545.62ZM6583.79 5750.5C6609.21 5669.46 6646.5 5600.49 6695.61 5543.46L6688.03 5536.94C6637.93 5595.11 6600.03 5665.34 6574.25 5747.5L6583.79 5750.5ZM6695.56 5543.52C6746.24 5486.51 6808 5442.94 6880.93 5412.82L6877.11 5403.58C6802.83 5434.26 6739.8 5478.69 6688.08 5536.88L6695.56 5543.52ZM6881.01 5412.79C6953.88 5381.1 7037.19 5365.2 7131.02 5365.2V5355.2C7036.05 5355.2 6951.36 5371.3 6877.03 5403.61L6881.01 5412.79ZM7131.02 5365.2C7234.47 5365.2 7322.49 5382.71 7395.26 5417.51L7399.58 5408.49C7325.14 5372.89 7235.57 5355.2 7131.02 5355.2V5365.2ZM7395.3 5417.53C7469.86 5452.43 7530.02 5499.16 7575.88 5557.68L7583.75 5551.52C7536.82 5491.64 7475.37 5443.97 7399.54 5408.47L7395.3 5417.53ZM7575.93 5557.75C7623.46 5616.37 7657.56 5684.52 7678.19 5762.28L7687.85 5759.72C7666.88 5680.68 7632.18 5611.23 7583.7 5551.45L7575.93 5557.75ZM7678.22 5762.4C7700.48 5838.72 7711.62 5919.05 7711.62 6003.4H7721.62C7721.62 5918.15 7710.36 5836.88 7687.82 5759.6L7678.22 5762.4ZM7711.62 6003.4V6109H7721.62V6003.4H7711.62ZM7716.62 6104H6907.82V6114H7716.62V6104ZM6902.82 6109V6128.2H6912.82V6109H6902.82ZM6902.82 6128.2C6902.82 6212.32 6925.49 6280.02 6971.31 6330.75L6978.73 6324.05C6934.95 6275.58 6912.82 6210.48 6912.82 6128.2H6902.82ZM6971.36 6330.81C7017.47 6380.22 7089.48 6404.4 7186.22 6404.4V6394.4C7090.96 6394.4 7022.16 6370.58 6978.67 6323.99L6971.36 6330.81ZM7186.22 6404.4C7260.44 6404.4 7321.43 6389.88 7368.86 6360.45L7363.58 6351.95C7318.2 6380.12 7259.2 6394.4 7186.22 6394.4V6404.4ZM7368.96 6360.38C7415.69 6329.77 7459.17 6293.53 7499.42 6251.67L7492.21 6244.73C7452.46 6286.07 7409.55 6321.83 7363.48 6352.02L7368.96 6360.38ZM7491.92 6251.33L7669.52 6472.13L7677.31 6465.87L7499.71 6245.07L7491.92 6251.33ZM7669.62 6465.75C7614.21 6530.66 7541.31 6581.42 7450.75 6617.96L7454.49 6627.24C7546.33 6590.18 7620.63 6538.54 7677.22 6472.25L7669.62 6465.75ZM7450.72 6617.97C7361.82 6654.49 7260.09 6672.8 7145.42 6672.8V6682.8C7261.15 6682.8 7364.21 6664.31 7454.52 6627.23L7450.72 6617.97ZM7138.22 5616.8C7064.98 5616.8 7006.72 5641.28 6964.04 5690.53L6971.6 5697.07C7012.11 5650.32 7067.45 5626.8 7138.22 5626.8V5616.8ZM6964.03 5690.54C6923.05 5738.07 6902.82 5801.75 6902.82 5881H6912.82C6912.82 5803.45 6932.59 5742.33 6971.61 5697.06L6964.03 5690.54ZM6902.82 5881V5900.2H6912.82V5881H6902.82ZM6907.82 5905.2H7349.42V5895.2H6907.82V5905.2ZM7354.42 5900.2V5878.6H7344.42V5900.2H7354.42ZM7354.42 5878.6C7354.42 5801.06 7336.64 5738.29 7300.6 5690.78L7292.64 5696.82C7326.99 5742.11 7344.42 5802.54 7344.42 5878.6H7354.42ZM7300.71 5690.93C7265.96 5641.28 7211.43 5616.8 7138.22 5616.8V5626.8C7209.01 5626.8 7260.08 5650.32 7292.52 5696.67L7300.71 5690.93ZM8097.92 6622.6L8094.23 6625.97L8094.3 6626.06L8094.38 6626.14L8097.92 6622.6ZM8097.92 6298.6L8094.31 6295.14L8094.3 6295.15L8097.92 6298.6ZM8417.12 6298.6L8413.43 6301.97L8413.5 6302.06L8413.58 6302.14L8417.12 6298.6ZM8417.12 6622.6L8413.51 6619.14L8413.5 6619.15L8417.12 6622.6ZM8258.72 6670.4C8187.45 6670.4 8135.37 6652.98 8101.45 6619.06L8094.38 6626.14C8130.87 6662.62 8185.99 6680.4 8258.72 6680.4V6670.4ZM8101.61 6619.23C8068.96 6583.47 8052.52 6538.32 8052.52 6483.4H8042.52C8042.52 6540.48 8059.68 6588.13 8094.23 6625.97L8101.61 6619.23ZM8052.52 6483.4V6435.4H8042.52V6483.4H8052.52ZM8052.52 6435.4C8052.52 6380.48 8068.96 6336.18 8101.54 6302.05L8094.3 6295.15C8059.68 6331.42 8042.52 6378.32 8042.52 6435.4H8052.52ZM8101.53 6302.06C8135.45 6266.59 8187.51 6248.4 8258.72 6248.4V6238.4C8185.93 6238.4 8130.78 6257.01 8094.31 6295.14L8101.53 6302.06ZM8258.72 6248.4C8329.95 6248.4 8381.13 6266.6 8413.43 6301.97L8420.81 6295.23C8385.91 6257 8331.49 6238.4 8258.72 6238.4V6248.4ZM8413.58 6302.14C8447.72 6336.28 8464.92 6380.55 8464.92 6435.4H8474.92C8474.92 6378.25 8456.91 6331.32 8420.65 6295.06L8413.58 6302.14ZM8464.92 6435.4V6483.4H8474.92V6435.4H8464.92ZM8464.92 6483.4C8464.92 6538.25 8447.72 6583.37 8413.51 6619.14L8420.73 6626.06C8456.91 6588.23 8474.92 6540.55 8474.92 6483.4H8464.92ZM8413.5 6619.15C8381.22 6652.97 8330.01 6670.4 8258.72 6670.4V6680.4C8331.43 6680.4 8385.82 6662.63 8420.74 6626.05L8413.5 6619.15ZM9652.93 6437.8H9657.93V6432.8H9652.93V6437.8ZM9640.93 6437.8V6432.8H9637.16L9636.12 6436.43L9640.93 6437.8ZM9595.33 6533.8L9599.38 6536.73L9599.42 6536.68L9599.46 6536.62L9595.33 6533.8ZM9518.53 6610.6L9521.46 6614.65L9521.48 6614.64L9521.5 6614.63L9518.53 6610.6ZM9417.73 6658.6L9416.33 6653.8L9416.21 6653.84L9416.09 6653.88L9417.73 6658.6ZM8940.13 6509.8L8936.07 6512.72L8936.08 6512.73L8936.09 6512.74L8940.13 6509.8ZM8940.13 5528.2L8936.09 5525.26L8936.09 5525.26L8940.13 5528.2ZM9518.53 5427.4L9515.62 5431.46L9515.64 5431.48L9515.66 5431.5L9518.53 5427.4ZM9640.93 5600.2L9636.08 5601.41L9637.03 5605.2H9640.93V5600.2ZM9652.93 5600.2V5605.2H9657.93V5600.2H9652.93ZM9652.93 4873V4868H9647.93V4873H9652.93ZM10008.1 4873H10013.1V4868H10008.1V4873ZM10008.1 6649V6654H10013.1V6649H10008.1ZM9652.93 6649H9647.93V6654H9652.93V6649ZM9585.73 6341.8L9588.71 6345.82L9588.72 6345.81L9588.73 6345.8L9585.73 6341.8ZM9585.73 5698.6L9582.66 5702.55L9582.74 5702.61L9582.83 5702.67L9585.73 5698.6ZM9252.13 5720.2L9248.48 5716.79L9248.47 5716.79L9252.13 5720.2ZM9252.13 6320.2L9248.41 6323.54L9248.47 6323.61L9248.53 6323.67L9252.13 6320.2ZM9652.93 6432.8H9640.93V6442.8H9652.93V6432.8ZM9636.12 6436.43C9626.68 6469.48 9611.72 6501 9591.2 6530.98L9599.46 6536.62C9620.54 6505.8 9635.98 6473.32 9645.74 6439.17L9636.12 6436.43ZM9591.28 6530.87C9570.8 6559.23 9545.57 6584.46 9515.57 6606.57L9521.5 6614.63C9552.29 6591.94 9578.26 6565.97 9599.38 6536.73L9591.28 6530.87ZM9515.6 6606.55C9487.32 6626.97 9454.25 6642.74 9416.33 6653.8L9419.13 6663.4C9458.01 6652.06 9492.14 6635.83 9521.46 6614.65L9515.6 6606.55ZM9416.09 6653.88C9379.83 6666.49 9341.99 6672.8 9302.53 6672.8V6682.8C9343.08 6682.8 9382.03 6676.31 9419.37 6663.32L9416.09 6653.88ZM9302.53 6672.8C9143.85 6672.8 9024.68 6617.35 8944.17 6506.86L8936.09 6512.74C9018.79 6626.25 9141.22 6682.8 9302.53 6682.8V6672.8ZM8944.19 6506.88C8863.45 6394.48 8822.73 6231.68 8822.73 6017.8H8812.73C8812.73 6232.72 8853.61 6397.92 8936.07 6512.72L8944.19 6506.88ZM8822.73 6017.8C8822.73 5803.92 8863.45 5641.94 8944.17 5531.14L8936.09 5525.26C8853.61 5638.46 8812.73 5802.88 8812.73 6017.8H8822.73ZM8944.17 5531.14C9024.68 5420.65 9143.85 5365.2 9302.53 5365.2V5355.2C9141.22 5355.2 9018.79 5411.75 8936.09 5525.26L8944.17 5531.14ZM9302.53 5365.2C9383.15 5365.2 9454.12 5387.31 9515.62 5431.46L9521.45 5423.34C9458.14 5377.89 9385.11 5355.2 9302.53 5355.2V5365.2ZM9515.66 5431.5C9578.76 5475.66 9618.8 5532.27 9636.08 5601.41L9645.78 5598.99C9627.87 5527.33 9586.3 5468.74 9521.4 5423.3L9515.66 5431.5ZM9640.93 5605.2H9652.93V5595.2H9640.93V5605.2ZM9657.93 5600.2V4873H9647.93V5600.2H9657.93ZM9652.93 4878H10008.1V4868H9652.93V4878ZM10003.1 4873V6649H10013.1V4873H10003.1ZM10008.1 6644H9652.93V6654H10008.1V6644ZM9657.93 6649V6437.8H9647.93V6649H9657.93ZM9420.13 6394.8C9488.13 6394.8 9544.45 6378.6 9588.71 6345.82L9582.76 6337.78C9540.61 6369 9486.53 6384.8 9420.13 6384.8V6394.8ZM9588.73 6345.8C9634.83 6311.22 9657.93 6264.12 9657.93 6205H9647.93C9647.93 6261.08 9626.23 6305.18 9582.73 6337.8L9588.73 6345.8ZM9657.93 6205V5833H9647.93V6205H9657.93ZM9657.93 5833C9657.93 5773.87 9634.82 5727.52 9588.64 5694.53L9582.83 5702.67C9626.24 5733.68 9647.93 5776.93 9647.93 5833H9657.93ZM9588.8 5694.65C9544.54 5660.23 9488.18 5643.2 9420.13 5643.2V5653.2C9486.48 5653.2 9540.52 5669.77 9582.66 5702.55L9588.8 5694.65ZM9420.13 5643.2C9351.58 5643.2 9294.25 5667.75 9248.48 5716.79L9255.79 5723.61C9299.62 5676.65 9354.28 5653.2 9420.13 5653.2V5643.2ZM9248.47 5716.79C9204.2 5764.34 9182.33 5828.88 9182.33 5909.8H9192.33C9192.33 5830.72 9213.66 5768.86 9255.79 5723.61L9248.47 5716.79ZM9182.33 5909.8V6128.2H9192.33V5909.8H9182.33ZM9182.33 6128.2C9182.33 6209.13 9204.2 6274.42 9248.41 6323.54L9255.85 6316.86C9213.66 6269.98 9192.33 6207.27 9192.33 6128.2H9182.33ZM9248.53 6323.67C9294.32 6371.09 9351.64 6394.8 9420.13 6394.8V6384.8C9354.22 6384.8 9299.54 6362.11 9255.73 6316.73L9248.53 6323.67ZM10729.1 6632.2L10727.1 6636.8L10727.2 6636.82L10727.2 6636.84L10729.1 6632.2ZM10537.1 6500.2L10533.4 6503.52L10533.4 6503.58L10533.4 6503.63L10537.1 6500.2ZM10419.5 6291.4L10414.7 6292.9L10414.7 6292.94L10414.7 6292.98L10419.5 6291.4ZM10419.5 5749L10424.2 5750.52L10424.3 5750.51L10424.3 5750.5L10419.5 5749ZM10532.3 5540.2L10528.6 5536.88L10528.5 5536.91L10528.5 5536.94L10532.3 5540.2ZM10719.5 5408.2L10721.4 5412.82L10721.4 5412.8L10721.5 5412.79L10719.5 5408.2ZM11237.9 5413L11235.7 5417.51L11235.7 5417.52L11235.8 5417.53L11237.9 5413ZM11420.3 5554.6L11416.4 5557.68L11416.4 5557.72L11416.4 5557.75L11420.3 5554.6ZM11523.5 5761L11518.7 5762.28L11518.7 5762.34L11518.7 5762.4L11523.5 5761ZM11557.1 6109V6114H11562.1V6109H11557.1ZM10748.3 6109V6104H10743.3V6109H10748.3ZM10815.5 6327.4L10811.8 6330.75L10811.8 6330.78L10811.8 6330.81L10815.5 6327.4ZM11206.7 6356.2L11209.3 6360.45L11209.4 6360.42L11209.4 6360.38L11206.7 6356.2ZM11336.3 6248.2L11340.2 6245.07L11336.6 6240.64L11332.7 6244.73L11336.3 6248.2ZM11513.9 6469L11517.7 6472.25L11520.4 6469.09L11517.8 6465.87L11513.9 6469ZM11293.1 6622.6L11291.2 6617.96L11291.2 6617.97L11291.2 6617.97L11293.1 6622.6ZM10808.3 5693.8L10804.5 5690.53L10804.5 5690.54L10808.3 5693.8ZM10748.3 5900.2H10743.3V5905.2H10748.3V5900.2ZM11189.9 5900.2V5905.2H11194.9V5900.2H11189.9ZM11137.1 5693.8L11133 5696.67L11133 5696.75L11133.1 5696.82L11137.1 5693.8ZM10985.9 6672.8C10890.4 6672.8 10805.5 6657.68 10731 6627.56L10727.2 6636.84C10803.1 6667.52 10889.4 6682.8 10985.9 6682.8V6672.8ZM10731 6627.6C10656.4 6595.85 10593 6552.24 10540.7 6496.77L10533.4 6503.63C10586.8 6560.16 10651.3 6604.55 10727.1 6636.8L10731 6627.6ZM10540.8 6496.88C10490.1 6439.84 10451.2 6370.85 10424.2 6289.82L10414.7 6292.98C10442.1 6375.15 10481.7 6445.36 10533.4 6503.52L10540.8 6496.88ZM10424.3 6289.9C10398.8 6208.87 10386.1 6118.18 10386.1 6017.8H10376.1C10376.1 6119.02 10388.9 6210.73 10414.7 6292.9L10424.3 6289.9ZM10386.1 6017.8C10386.1 5919.03 10398.8 5829.95 10424.2 5750.52L10414.7 5747.48C10388.9 5828.05 10376.1 5918.17 10376.1 6017.8H10386.1ZM10424.3 5750.5C10449.7 5669.46 10487 5600.49 10536.1 5543.46L10528.5 5536.94C10478.4 5595.11 10440.5 5665.34 10414.7 5747.5L10424.3 5750.5ZM10536 5543.52C10586.7 5486.51 10648.5 5442.94 10721.4 5412.82L10717.6 5403.58C10643.3 5434.26 10580.3 5478.69 10528.6 5536.88L10536 5543.52ZM10721.5 5412.79C10794.4 5381.1 10877.7 5365.2 10971.5 5365.2V5355.2C10876.5 5355.2 10791.8 5371.3 10717.5 5403.61L10721.5 5412.79ZM10971.5 5365.2C11074.9 5365.2 11163 5382.71 11235.7 5417.51L11240 5408.49C11165.6 5372.89 11076 5355.2 10971.5 5355.2V5365.2ZM11235.8 5417.53C11310.3 5452.43 11370.5 5499.16 11416.4 5557.68L11424.2 5551.52C11377.3 5491.64 11315.8 5443.97 11240 5408.47L11235.8 5417.53ZM11416.4 5557.75C11463.9 5616.37 11498 5684.52 11518.7 5762.28L11528.3 5759.72C11507.4 5680.68 11472.6 5611.23 11424.2 5551.45L11416.4 5557.75ZM11518.7 5762.4C11540.9 5838.72 11552.1 5919.05 11552.1 6003.4H11562.1C11562.1 5918.15 11550.8 5836.88 11528.3 5759.6L11518.7 5762.4ZM11552.1 6003.4V6109H11562.1V6003.4H11552.1ZM11557.1 6104H10748.3V6114H11557.1V6104ZM10743.3 6109V6128.2H10753.3V6109H10743.3ZM10743.3 6128.2C10743.3 6212.32 10766 6280.02 10811.8 6330.75L10819.2 6324.05C10775.4 6275.58 10753.3 6210.48 10753.3 6128.2H10743.3ZM10811.8 6330.81C10857.9 6380.22 10929.9 6404.4 11026.7 6404.4V6394.4C10931.4 6394.4 10862.6 6370.58 10819.1 6323.99L10811.8 6330.81ZM11026.7 6404.4C11100.9 6404.4 11161.9 6389.88 11209.3 6360.45L11204.1 6351.95C11158.7 6380.12 11099.7 6394.4 11026.7 6394.4V6404.4ZM11209.4 6360.38C11256.2 6329.77 11299.6 6293.53 11339.9 6251.67L11332.7 6244.73C11292.9 6286.07 11250 6321.83 11203.9 6352.02L11209.4 6360.38ZM11332.4 6251.33L11510 6472.13L11517.8 6465.87L11340.2 6245.07L11332.4 6251.33ZM11510.1 6465.75C11454.7 6530.66 11381.8 6581.42 11291.2 6617.96L11295 6627.24C11386.8 6590.18 11461.1 6538.54 11517.7 6472.25L11510.1 6465.75ZM11291.2 6617.97C11202.3 6654.49 11100.6 6672.8 10985.9 6672.8V6682.8C11101.6 6682.8 11204.7 6664.31 11295 6627.23L11291.2 6617.97ZM10978.7 5616.8C10905.5 5616.8 10847.2 5641.28 10804.5 5690.53L10812.1 5697.07C10852.6 5650.32 10907.9 5626.8 10978.7 5626.8V5616.8ZM10804.5 5690.54C10763.5 5738.07 10743.3 5801.75 10743.3 5881H10753.3C10753.3 5803.45 10773.1 5742.33 10812.1 5697.06L10804.5 5690.54ZM10743.3 5881V5900.2H10753.3V5881H10743.3ZM10748.3 5905.2H11189.9V5895.2H10748.3V5905.2ZM11194.9 5900.2V5878.6H11184.9V5900.2H11194.9ZM11194.9 5878.6C11194.9 5801.06 11177.1 5738.29 11141.1 5690.78L11133.1 5696.82C11167.5 5742.11 11184.9 5802.54 11184.9 5878.6H11194.9ZM11141.2 5690.93C11106.4 5641.28 11051.9 5616.8 10978.7 5616.8V5626.8C11049.5 5626.8 11100.5 5650.32 11133 5696.67L11141.2 5690.93ZM12173.3 6649L12168.6 6650.56L12169.7 6654H12173.3V6649ZM11760.5 5389V5384H11753.6L11755.8 5390.56L11760.5 5389ZM12110.9 5389L12115.7 5387.53L12114.6 5384H12110.9V5389ZM12266.9 5897.8L12271.7 5896.55L12271.7 5896.44L12271.7 5896.33L12266.9 5897.8ZM12384.5 6353.8L12379.7 6355.05L12380.6 6358.8H12384.5V6353.8ZM12403.7 6353.8V6358.8H12407.6L12408.5 6355.05L12403.7 6353.8ZM12521.3 5897.8L12516.5 5896.38L12516.5 5896.46L12516.5 5896.55L12521.3 5897.8ZM12672.5 5389V5384H12668.8L12667.7 5387.58L12672.5 5389ZM13008.5 5389L13013.3 5390.56L13015.4 5384H13008.5V5389ZM12595.7 6649V6654H12599.3L12600.5 6650.56L12595.7 6649ZM12178.1 6647.44L11765.3 5387.44L11755.8 5390.56L12168.6 6650.56L12178.1 6647.44ZM11760.5 5394H12110.9V5384H11760.5V5394ZM12106.1 5390.47L12262.1 5899.27L12271.7 5896.33L12115.7 5387.53L12106.1 5390.47ZM12262.1 5899.05L12379.7 6355.05L12389.3 6352.55L12271.7 5896.55L12262.1 5899.05ZM12384.5 6358.8H12403.7V6348.8H12384.5V6358.8ZM12408.5 6355.05L12526.1 5899.05L12516.5 5896.55L12398.9 6352.55L12408.5 6355.05ZM12526.1 5899.22L12677.3 5390.42L12667.7 5387.58L12516.5 5896.38L12526.1 5899.22ZM12672.5 5394H13008.5V5384H12672.5V5394ZM13003.8 5387.44L12591 6647.44L12600.5 6650.56L13013.3 5390.56L13003.8 5387.44ZM12595.7 6644H12173.3V6654H12595.7V6644Z" fill="white" mask="url(#path-1-outside-1_2079_210)"/>
</g>
<rect x="4157" y="70" width="4183" height="3841.71" rx="340" stroke="white" stroke-width="140"/>
<path d="M7087.1 2096.75L5548.28 2976.97C5468.24 3022.76 5368.61 2964.9 5368.7 2872.68L5370.53 1109.05C5370.63 1016.83 5470.38 959.179 5550.33 1005.13L7087.31 1888.55C7167.68 1934.74 7167.56 2050.72 7087.1 2096.75Z" fill="white" stroke="white" stroke-width="60"/>
<defs>
<filter id="filter0_d_2079_210" x="156.602" y="4868" width="12862.8" height="1822.8" filterUnits="userSpaceOnUse" color-interpolation-filters="sRGB">
<feFlood flood-opacity="0" result="BackgroundImageFix"/>
<feColorMatrix in="SourceAlpha" type="matrix" values="0 0 0 0 0 0 0 0 0 0 0 0 0 0 0 0 0 0 127 0" result="hardAlpha"/>
<feOffset dy="4"/>
<feGaussianBlur stdDeviation="2"/>
<feComposite in2="hardAlpha" operator="out"/>
<feColorMatrix type="matrix" values="0 0 0 0 0 0 0 0 0 0 0 0 0 0 0 0 0 0 0.25 0"/>
<feBlend mode="normal" in2="BackgroundImageFix" result="effect1_dropShadow_2079_210"/>
<feBlend mode="normal" in="SourceGraphic" in2="effect1_dropShadow_2079_210" result="shape"/>
</filter>
</defs>
</svg>
