<svg xmlns="http://www.w3.org/2000/svg" role="img" viewBox="-7.98 -6.48 518.96 196.46"><style>svg {enable-background:new 0 0 504 183.7}</style><style/><path d="M221 51.1c1.1.1 1.6.6 1.6 1.5V58c0 1.2-.5 1.8-1.5 1.8h-26.4c-10.2 0-15.4 3.5-15.4 10.4v2c0 6.1 1.9 9.2 8.8 12l25.6 10.6c10.2 4.2 13.5 10.4 13.5 20.4v3.8c0 6.9-2.5 12-6.1 14.9-1.8 1.5-4 2.7-6.8 3.5-5.6 1.5-10.7 2-18.1 2-9.9 0-19.4-.6-28.6-1.6-.9-.2-1.4-.8-1.4-1.9v-5.3c0-1.1.6-1.6 1.6-1.6H200c10.4 0 15.3-2.9 15.3-10.3v-2.2c0-6.5-2-9.9-8.9-12.7l-27.8-11.3c-8.5-3.3-11-10-11-20v-2.8c0-6.9 2.5-12 5.9-14.8 1.8-1.5 4.1-2.6 6.8-3.4 5.6-1.8 10.6-2.1 18.1-2.1 5.6 0 13.1.5 22.6 1.7zm78.8 3.5c6 4.2 7.9 11.1 7.9 23.4 0 12.6-2.2 19-7.6 23.1-1.6 1.2-3.9 2.1-6.8 2.8-5.8 1.3-11.3 1.6-20.8 1.6h-14.9V137c0 1.4-.4 1.8-1.8 1.8h-8.3c-1.4 0-1.8-.4-1.8-1.8V51.9c0-1.4.4-1.6 1.8-1.8 7.7-.6 16.1-.8 25-.8 14 .1 21.5 1.1 27.3 5.3zm-42.3 5.2v35.7h13.8c3.2 0 5.8 0 7.5-.1 3.6-.1 8.2-.5 10.2-1.4 4.9-2.1 6.7-6.2 6.6-15.7 0-7.9-1.5-12.9-4.7-15.1-3.1-2.2-9.6-3.3-19.6-3.3h-13.8zm78.4-9.9c1.2 0 1.8.6 1.8 1.9V137c0 1.2-.6 1.8-1.8 1.8h-8.3c-1.2 0-1.8-.6-1.8-1.8V51.8c0-1.3.6-1.9 1.8-1.9h8.3zm79.3 4.7c6 4.2 7.9 11.1 7.9 23.4 0 9.3-1.4 15.8-4.3 19.7-2.8 3.9-7.7 6.2-14.9 7.2l19.8 31.6c.9 1.3.3 2.3-1.4 2.3h-7.5c-2.5 0-3.4-.7-4.7-2.6l-19.4-30.6H373V137c0 1.4-.3 1.8-1.8 1.8h-8.3c-1.4 0-1.8-.4-1.8-1.8V51.9c0-1.4.4-1.6 1.8-1.8 7.7-.6 16.1-.8 25-.8 14 .1 21.5 1.1 27.3 5.3zm-42.3 5.2v35.7h13.9c3.2 0 5.8 0 7.5-.1 3.6-.1 8.2-.5 10.2-1.4 4.9-2.1 6.7-6.2 6.6-15.7 0-7.9-1.5-12.9-4.7-15.1-3.1-2.2-9.6-3.3-19.6-3.3h-13.9zm126.5-9.9c1.2 0 1.8.6 1.8 1.8v6.9c0 1.2-.6 1.8-1.8 1.8h-44.8v30.2h40.8c1.2 0 1.8.6 1.8 1.8v6.8c0 1.2-.6 1.8-1.8 1.8h-40.8v27.5h44.8c1.2 0 1.8.6 1.8 1.8v6.9c0 1.2-.6 1.8-1.8 1.8h-54.9c-1.2 0-1.8-.6-1.8-1.8V51.7c0-1.2.6-1.8 1.8-1.8h54.9zM111.7 3.6c-2.9-.5-5.7 1.4-6.2 4.3l-6.3 34.8H110l6-32.9c.5-2.9-1.4-5.6-4.3-6.2zM27.9 7.9c-.6-2.9-3.3-4.8-6.2-4.3s-4.8 3.3-4.3 6.2l5.9 32.9h10.9L27.9 7.9zm102.9 143.9l-21.9-92h11.5c2.7 0 4.8-2.2 4.8-4.8 0-2.6-2.2-4.8-4.8-4.8H78.2v10.2h8.4L72 71.6V27.8c0-2.9-2.4-5.3-5.4-5.3-2.9 0-5.3 2.4-5.3 5.3v43.7L46.8 60.4h8.4V50.2H12.8C10.2 50.2 8 52.4 8 55c0 2.7 2.1 4.8 4.8 4.8h11.6L2.5 151.9c-.7 2.9 1.1 5.8 3.9 6.4.4.1.8.1 1.2.1 2.4 0 4.6-1.7 5.2-4.1l11.7-49 36.8 27.1v42.8c0 2.9 2.4 5.3 5.3 5.3s5.4-2.4 5.4-5.3v-42.8l36.8-27.1 11.6 48.9c.6 2.5 2.8 4.1 5.2 4.1.4 0 .8 0 1.2-.2 2.9-.6 4.7-3.4 4-6.3zm-69.5-32.6l-23.9-17.6h17.7V91H27.9l6.4-26.7 27 20.7v34.2zm34.6-17.6L72 119.2V85l27.1-20.7 6.3 26.7H78.2v10.7h17.7z"/></svg>