<svg xmlns="http://www.w3.org/2000/svg" role="img" viewBox="0 0 900 453"><title>cozystack-stacked-color</title><path fill="#1E1E1E" d="M0 0H900V453H0z"/><path fill="#fff" d="M452.861 321.903C458.45 321.974 463.446 322.886 467.849 324.642C472.289 326.397 475.964 328.925 478.873 332.226C481.82 335.491 483.849 339.458 484.959 344.128L472.097 346.129C471.522 343.285 470.298 340.845 468.423 338.809C466.547 336.737 464.25 335.158 461.532 334.069C458.814 332.946 455.867 332.366 452.689 332.331C449.627 332.261 446.814 332.682 444.249 333.595C441.723 334.508 439.694 335.789 438.163 337.439C436.67 339.089 435.923 340.985 435.923 343.127C435.923 345.234 436.594 346.937 437.934 348.236C439.273 349.535 440.919 350.571 442.871 351.344C444.861 352.081 446.833 352.695 448.785 353.187L464.059 357.137C465.973 357.628 468.135 358.296 470.547 359.139C472.997 359.946 475.351 361.087 477.609 362.562C479.906 364.036 481.801 366.002 483.294 368.46C484.787 370.883 485.534 373.938 485.534 377.624C485.534 381.451 484.691 384.821 483.007 387.735C481.323 390.614 479.007 393.038 476.06 395.004C473.15 396.935 469.782 398.392 465.954 399.375C462.126 400.358 458.087 400.851 453.838 400.851C447.905 400.851 442.546 399.919 437.761 398.059C433.014 396.163 429.09 393.477 425.989 390.001C422.927 386.49 420.937 382.329 420.019 377.519L432.535 375.781C433.798 380.416 436.44 384.032 440.459 386.63C444.478 389.193 449.167 390.474 454.526 390.475C457.857 390.475 460.92 390.001 463.714 389.053C466.508 388.07 468.747 386.683 470.432 384.893C472.154 383.067 473.017 380.889 473.017 378.361C473.017 376.992 472.748 375.781 472.212 374.728C471.714 373.674 471.006 372.761 470.088 371.988C469.208 371.181 468.116 370.496 466.814 369.935C465.551 369.338 464.154 368.828 462.623 368.407L441.436 362.666C439.369 362.104 437.263 361.386 435.119 360.508C432.976 359.595 431.004 358.418 429.205 356.979C427.444 355.504 426.009 353.695 424.898 351.554C423.788 349.377 423.233 346.744 423.233 343.654C423.233 338.985 424.535 335.035 427.138 331.805C429.779 328.539 433.34 326.082 437.818 324.432C442.297 322.746 447.311 321.903 452.861 321.903ZM145.103 321.851C154.634 321.851 162.52 324.062 168.76 328.486C175.037 332.91 179.402 338.861 181.852 346.34L169.679 349.342C168.071 344.04 165.2 339.879 161.065 336.859C156.97 333.84 151.648 332.33 145.103 332.33C139.246 332.33 134.365 333.542 130.461 335.965C126.557 338.387 123.609 341.775 121.618 346.129C119.666 350.483 118.689 355.556 118.689 361.35C118.651 367.143 119.608 372.217 121.561 376.57C123.551 380.924 126.499 384.313 130.403 386.735C134.346 389.158 139.246 390.369 145.103 390.369C151.648 390.369 156.97 388.859 161.065 385.84C165.2 382.785 168.071 378.624 169.679 373.357L181.852 376.359C179.402 383.838 175.037 389.789 168.76 394.213C162.52 398.637 154.634 400.85 145.103 400.85C136.834 400.85 129.791 399.199 123.973 395.898C118.154 392.563 113.694 387.929 110.594 381.995C107.531 376.061 106 369.179 106 361.35C106 353.52 107.531 346.639 110.594 340.705C113.694 334.771 118.154 330.154 123.973 326.854C129.791 323.518 136.834 321.851 145.103 321.851ZM230.536 321.851C238.766 321.851 245.79 323.518 251.608 326.854C257.465 330.154 261.925 334.771 264.987 340.705C268.05 346.639 269.581 353.52 269.581 361.35C269.581 369.179 268.05 376.061 264.987 381.995C261.925 387.929 257.465 392.563 251.608 395.898C245.79 399.199 238.766 400.85 230.536 400.85C222.268 400.85 215.224 399.199 209.405 395.898C203.587 392.563 199.127 387.929 196.026 381.995C192.964 376.061 191.434 369.179 191.434 361.35C191.434 353.52 192.964 346.639 196.026 340.705C199.127 334.771 203.587 330.154 209.405 326.854C215.224 323.518 222.268 321.851 230.536 321.851ZM678.827 321.851C688.359 321.851 696.244 324.063 702.483 328.486C708.761 332.91 713.126 338.861 715.576 346.34L703.403 349.342C701.796 344.04 698.924 339.879 694.79 336.859C690.694 333.84 685.373 332.33 678.827 332.33C672.971 332.33 668.09 333.542 664.186 335.965C660.281 338.387 657.333 341.775 655.343 346.129C653.391 350.483 652.414 355.556 652.414 361.35C652.376 367.143 653.333 372.217 655.285 376.57C657.276 380.924 660.223 384.313 664.128 386.735C668.071 389.158 672.971 390.369 678.827 390.369C685.373 390.369 690.694 388.859 694.79 385.84C698.924 382.785 701.796 378.624 703.403 373.357L715.576 376.359C713.126 383.838 708.761 389.789 702.483 394.213C696.244 398.637 688.359 400.85 678.827 400.85C670.559 400.85 663.516 399.199 657.697 395.898C651.879 392.563 647.418 387.929 644.317 381.995C641.255 376.061 639.725 369.179 639.725 361.35C639.725 353.52 641.255 346.639 644.317 340.705C647.418 334.771 651.879 330.154 657.697 326.854C663.516 323.518 670.559 321.851 678.827 321.851ZM341.591 325.221L299.617 388.842H340.811V399.27H278.774V397.531L320.978 333.806H280.33V323.431H341.591V325.221ZM383.734 355.294L403.774 323.431H417.785L389.821 367.934V399.27H377.648V367.934L349.686 323.431H363.696L383.734 355.294ZM560.186 333.806H532.682V399.27H520.681V333.806H493.177V323.431H560.186V333.806ZM633.962 399.27H621.502L615.382 382.153H581.444L575.394 399.27H562.934L589.806 323.431H607.09L633.962 399.27ZM741.748 358.822L776.372 323.431H791.302L754.725 360.454L794 399.27H778.611L741.748 363.036V399.27H729.747V323.431H741.748V358.822ZM230.536 332.33C224.679 332.26 219.798 333.437 215.894 335.859C212.028 338.282 209.118 341.688 207.166 346.076C205.214 350.465 204.219 355.556 204.181 361.35C204.142 367.143 205.099 372.217 207.051 376.57C209.003 380.889 211.932 384.259 215.836 386.682C219.779 389.104 224.679 390.334 230.536 390.369C236.393 390.439 241.255 389.263 245.121 386.841C249.026 384.383 251.954 380.977 253.906 376.623C255.858 372.234 256.834 367.143 256.834 361.35C256.834 355.556 255.858 350.5 253.906 346.182C251.954 341.828 249.025 338.44 245.121 336.018C241.255 333.595 236.393 332.365 230.536 332.33ZM585.093 371.831H611.689L598.313 334.427L585.093 371.831ZM544.546 111.978C544.825 113.08 544.979 114.223 544.998 115.386V115.402L545 115.614V214.601C545 219.689 542.401 224.417 538.123 227.139L538.111 227.146L537.932 227.258L537.926 227.263L537.918 227.268L458.366 276.078C456.564 277.184 454.583 277.871 452.561 278.138L450.44 278.416V265.124L451.337 264.574L530.889 215.765C531.292 215.517 531.539 215.075 531.539 214.601V117.828L532.355 117.268L541.669 110.888L543.886 109.369L544.546 111.978ZM450.56 65.292L449.663 65.8418L370.111 114.652C369.708 114.9 369.461 115.342 369.461 115.816V212.589L368.645 213.148L359.331 219.529L357.114 221.047L356.454 218.438C356.175 217.336 356.021 216.194 356.002 215.031V215.015L356 214.803V115.816C356 110.728 358.599 105.999 362.877 103.277L362.883 103.273L362.889 103.271L363.068 103.158L363.074 103.153L363.082 103.149L442.634 54.3389C444.436 53.233 446.417 52.5459 448.439 52.2793L450.56 52V65.292ZM493.695 182.689C499.482 184.739 499.192 191.479 494.2 194.515L468.062 209.807C464.132 212.082 460.242 214.432 456.26 216.612C449.957 220.06 444.972 216.239 439.664 213.164L426.082 205.203L413.721 197.993C411.015 196.415 405.918 194.03 404.608 191.187C403.837 189.513 403.784 187.597 404.464 185.882C405.172 184.11 406.297 183.408 407.974 182.723C409.507 182.981 412.014 184.79 413.44 185.602C421.764 190.331 429.94 195.35 438.262 200.086C441.435 201.744 444.605 204.24 447.958 205.446C453.464 207.427 459.309 202.587 463.825 199.979L481.827 189.49C485.581 187.283 489.863 184.631 493.695 182.689ZM493.759 158.636C495.244 159.245 496.229 159.937 497.069 161.357C497.934 162.821 498.167 164.572 497.718 166.211C497.188 168.185 496.029 169.359 494.336 170.379L468.084 185.802C463.675 188.393 458.877 191.524 454.237 193.501C449.196 195.649 443.446 191.364 439.354 188.983L425.227 180.692L413.573 173.841C409.283 171.33 402.266 168.753 404.347 162.408C404.973 160.499 406.119 159.66 407.801 158.774C409.106 158.794 415.689 162.889 417.144 163.736L438.364 176.229C442.83 178.869 449.222 183.872 454.572 181.355C458.799 179.369 463.063 176.486 467.166 174.115C476.019 168.998 484.77 163.519 493.759 158.636ZM449.205 111.564C452.416 111.342 454.102 111.485 456.979 113.127L482.748 128.1L490.938 132.825C493.794 134.476 496.889 135.687 497.754 139.197C498.15 140.856 497.86 142.603 496.946 144.045C495.651 146.133 491.047 148.371 488.744 149.73L475.988 157.273L463.307 164.745C460.177 166.585 456.37 169.21 452.907 170.012C450.38 170.219 448.039 170.078 445.779 168.785C442.771 167.064 439.776 165.281 436.789 163.524L420.032 153.667L410.818 148.26C409.503 147.486 407.325 146.372 406.241 145.454C402.931 142.65 403.425 137.389 407.098 135.144C409.458 133.7 411.574 132.48 413.842 131.167L426.253 123.99L438.073 117.185C441.275 115.318 445.695 112.316 449.205 111.564Z"/></svg>
