<svg width="652" height="736" viewBox="0 0 652 736" fill="none" xmlns="http://www.w3.org/2000/svg">
<path fill-rule="evenodd" clip-rule="evenodd" d="M526.013 400.496L552.636 479.455L599.093 400.496H526.013ZM521.164 229.758V375.776H599.995L521.164 229.758ZM496.244 312.198V194.257H456.478L496.244 312.198ZM409.52 55.028L448.134 169.525H488.652L422.888 47.7165L409.52 55.0155V55.028ZM355.233 690.965H414.343L392.042 650.18L384.65 658.138C375.88 668.745 366.108 679.712 355.233 690.965ZM326.291 653.774L327.293 415.902C320.929 419.57 311.783 425.265 301.021 432.713C302.035 462.084 306.784 562.107 326.291 653.774ZM258.849 465.366C259.751 484.18 265.389 551.724 300.444 625.249C287.803 553.241 283.205 481.917 281.601 446.864C273.836 452.808 266.248 458.979 258.849 465.366ZM237.274 690.965H298.79L294.092 685.494C282.543 673.264 271.556 660.523 261.167 647.308L237.274 690.953V690.965ZM217.604 506.214C219.822 519.481 237.124 569.505 280.123 629.067C251.808 568.113 242.824 512.331 240.005 482.588C232.193 490.137 224.714 498.02 217.591 506.214H217.604ZM248.688 383.56V440.137C258.685 431.567 269.127 423.524 279.972 416.039C307.548 395.77 318.774 391.605 325.853 391.157H325.815V383.56H248.688ZM52.5247 400.496L102.189 484.889L136.367 400.496H52.5247ZM142.356 266.489L56.3585 375.763H142.344V266.489H142.356ZM167.288 234.818V324.185L227.765 174.834L219.684 168.232L167.276 234.818H167.288ZM569.086 500.568H619.164L631.63 512.941V703.313L619.164 715.698H32.4536L20 703.338V512.953L32.4536 500.581H82.5437L20.0501 394.39L20.9772 380.538L207.907 143.027L224.883 141.162L225.196 140.739L309.177 203.26L294.217 223.055L248.813 189.233L118.1 511.958L215.925 678.146L244.879 625.249C195.829 554.534 192.258 505.841 192.083 503.093L195.002 494.388C204.142 483.602 213.735 473.201 223.756 463.215V371.2L236.234 358.828H415.396L427.862 371.2V460.343C438.06 470.315 448.685 481.606 459.535 494.401L462.441 503.093C462.291 505.878 458.62 555.616 408.029 627.587L435.718 678.146L535.923 507.867L387.344 67.164L346.588 89.484L334.56 67.8231L421.873 20L438.887 24.9987L631.793 382.304L631.568 394.39L569.061 500.581L569.086 500.568Z" fill="#0066FF"/>
</svg>
