<svg width="1001" height="712" viewBox="0 0 1001 712" fill="none" xmlns="http://www.w3.org/2000/svg">
<path fill-rule="evenodd" clip-rule="evenodd" d="M135.693 252.269C99.848 271.285 14.837 329.856 1.96903 462.205C-4.69597 531.17 22.418 595.57 80.546 648.814C123.635 688.159 169.013 707.967 173.672 710.001C179.24 712.05 532.305 711.986 712.979 711.953C732.875 711.949 750.68 711.946 765.7 711.946C848.647 685.83 914.36 645.013 953.88 592.781C989.72 545.37 1005.57 489.337 999.83 430.26C995.23 382.594 976.62 337.462 949.28 300.19C917.34 247.122 832.331 207.141 789.826 202.575C730.777 80.621 654.496 7.85498 570.633 1.51598C502.623 -3.81102 443.117 31.433 402.449 67.438C384.068 83.916 369.363 100.398 359.481 113.327C359.039 113.128 358.601 112.921 358.166 112.707C357.342 112.307 356.458 111.878 355.574 111.554C323.64 98.115 265.509 87.215 215.649 114.598C161.886 144.009 144.191 203.085 138.678 247.202C138.447 249.48 137.299 251.513 135.693 252.269ZM193.342 284.883C161.687 300.859 86.613 344.285 75.249 455.473C69.363 513.412 81.747 567.515 133.081 612.246C171.133 645.3 199.647 650.381 203.761 652.09C208.678 653.811 520.476 653.757 680.031 653.73C697.601 653.727 713.324 653.724 726.589 653.724C799.84 631.783 852.089 609.053 886.989 565.172C918.64 525.341 932.64 484.048 927.57 434.416C923.51 394.371 901.3 356.455 877.15 325.142C848.94 280.559 779.651 258.531 742.114 254.695C689.967 152.239 634.163 79.547 560.102 74.221C500.042 69.746 453.272 99.355 417.357 129.603C401.125 143.447 382.358 168.855 373.631 179.716C373.241 179.549 372.854 179.375 372.47 179.195C371.743 178.859 370.962 178.499 370.181 178.226C341.98 166.937 290.644 151.999 246.612 175.003C199.133 199.712 200.847 243.563 195.978 280.626C195.774 282.54 194.761 284.247 193.342 284.883Z" fill="#00BDFF"/>
<path d="M401.545 399.056L270.909 465.461V540.674L467.44 437.002C484.782 427.958 484.782 370.154 467.44 361.11L270.909 257.438V332.651L401.545 399.056ZM744.897 569.576C750.677 546.455 750.677 534.894 744.897 511.773H489.161C483.322 534.665 483.322 546.111 489.161 569.576H744.897Z" fill="#00BDFF"/>
</svg>
