<svg width="355" height="405" viewBox="0 0 355 405" fill="none" xmlns="http://www.w3.org/2000/svg">
<path d="M160.155 2.94706C151.395 2.7554 142.881 5.86446 136.306 11.6578C125.8 21.072 127.218 30.072 117.842 43.3021C115.221 47.5301 111.762 51.1767 107.677 54.0157C103.593 56.8546 98.9695 58.8265 94.0932 59.8091L93.7294 59.896C87.1401 61.719 81.279 65.5433 76.9573 70.841C72.6355 76.1387 70.0663 82.6475 69.6039 89.4686C61.4575 153.347 83.4109 252.649 136.406 307.013C150.865 320.727 166.626 332.996 183.465 343.652C200.783 349.633 219.607 349.633 236.925 343.652C253.948 333.129 269.812 320.834 284.248 306.974C335.549 254.355 359.36 154.616 351.05 89.4318C350.655 82.5256 348.068 75.9256 343.663 70.5912C339.259 65.2568 333.269 61.4658 326.562 59.7704C321.685 58.7878 317.061 56.8159 312.977 53.977C308.892 51.1379 305.434 47.4929 302.813 43.2649C294.328 31.2901 294.44 20.6709 284.347 11.6208C277.773 5.82726 269.26 2.71671 260.498 2.90825L160.155 2.94706Z" fill="#E6E6E6" stroke="#1A1A1A" stroke-width="4"/>
<path d="M259.486 21.7748H209.165L168.82 177.659L209.165 335.581C234.27 335.581 234.27 329.305 259.374 310.477C259.374 310.477 340.964 253.992 334.688 97.0883C334.688 97.0883 334.718 81.398 322.136 78.26C290.755 71.9838 278.203 34.327 278.203 34.327C276.546 30.1337 271.927 21.7748 259.486 21.7748Z" fill="#AEDDFF"/>
<path d="M159.19 21.7748H209.51V335.581C184.406 335.581 184.406 329.305 159.301 310.477C159.301 310.477 77.7113 253.992 83.9874 97.0883C83.9874 97.0883 83.9574 81.398 96.5397 78.26C127.92 71.9838 140.473 34.327 140.473 34.327C142.129 30.1337 146.749 21.7748 159.19 21.7748Z" fill="#00A6ED"/>
<path d="M127.298 30.328C118.538 30.1364 110.024 33.2454 103.449 39.0388C92.943 48.453 94.3613 57.453 84.9848 70.6831C82.3641 74.9111 78.9052 78.5577 74.8205 81.3967C70.7358 84.2356 66.1126 86.2074 61.2363 87.19L60.8724 87.277C54.2831 89.0999 48.4221 92.9243 44.1004 98.222C39.7786 103.52 37.2094 110.028 36.747 116.85C28.6006 180.728 50.554 280.03 103.55 334.394C118.008 348.108 133.769 360.377 150.608 371.033C167.926 377.014 186.75 377.014 204.068 371.033C221.091 360.51 236.955 348.215 251.391 334.355C302.692 281.736 326.503 181.997 318.193 116.813C317.798 109.907 315.211 103.307 310.806 97.9721C306.402 92.6378 300.412 88.8468 293.705 87.1514C288.829 86.1687 284.204 84.1969 280.12 81.358C276.035 78.5189 272.577 74.8739 269.956 70.6459C261.471 58.6711 261.583 48.0519 251.491 39.0017C244.916 33.2082 236.403 30.0977 227.641 30.2892L127.298 30.328Z" fill="#E6E6E6" stroke="#1A1A1A" stroke-width="4"/>
<path d="M226.629 49.1556H176.308L135.963 205.04L176.308 362.962C201.413 362.962 201.413 356.686 226.517 337.858C226.517 337.858 308.107 281.372 301.831 124.469C301.831 124.469 301.861 108.779 289.279 105.641C257.898 99.3647 245.346 61.7079 245.346 61.7079C243.689 57.5146 239.07 49.1556 226.629 49.1556Z" fill="#AEDDFF"/>
<path d="M126.333 49.1556H176.654V362.962C151.549 362.962 151.549 356.686 126.444 337.858C126.444 337.858 44.8544 281.372 51.1305 124.469C51.1305 124.469 51.1005 108.779 63.6828 105.641C95.0634 99.3647 107.616 61.7079 107.616 61.7079C109.272 57.5146 113.892 49.1556 126.333 49.1556Z" fill="#00A6ED"/>
<path d="M94.4409 57.709C85.6807 57.5174 77.1665 60.6264 70.5916 66.4198C60.0856 75.834 61.5039 84.834 52.1274 98.0641C49.5067 102.292 46.0478 105.939 41.963 108.778C37.8784 111.617 33.2552 113.588 28.3789 114.571L28.015 114.658C21.4257 116.481 15.5647 120.305 11.2429 125.603C6.92119 130.901 4.35198 137.409 3.88956 144.231C-4.25687 208.109 17.6966 307.411 70.6921 361.775C85.151 375.489 100.912 387.758 117.751 398.414C135.069 404.395 153.892 404.395 171.211 398.414C188.234 387.891 204.098 375.596 218.534 361.736C269.835 309.117 293.645 209.378 285.336 144.194C284.94 137.288 282.353 130.688 277.949 125.353C273.544 120.019 267.554 116.228 260.848 114.532C255.971 113.55 251.347 111.578 247.262 108.739C243.178 105.9 239.72 102.255 237.099 98.0269C228.613 86.052 228.725 75.4329 218.633 66.3827C212.058 60.5892 203.545 57.4787 194.784 57.6702L94.4409 57.709Z" fill="#E6E6E6" stroke="#1A1A1A" stroke-width="4"/>
<path d="M193.772 76.5367H143.451L103.105 232.421L143.451 390.343C168.555 390.343 168.555 384.067 193.66 365.239C193.66 365.239 275.25 308.754 268.974 151.85C268.974 151.85 269.004 136.16 256.421 133.022C225.041 126.746 212.488 89.089 212.488 89.089C210.832 84.8957 206.212 76.5367 193.772 76.5367Z" fill="#AEDDFF"/>
<path d="M93.4753 76.5367H143.796V390.343C118.692 390.343 118.692 384.067 93.587 365.239C93.587 365.239 11.9969 308.754 18.2731 151.85C18.2731 151.85 18.2431 136.16 30.8253 133.022C62.206 126.746 74.7587 89.089 74.7587 89.089C76.4143 84.8957 81.0348 76.5367 93.4753 76.5367Z" fill="#00A6ED"/>
<g clip-path="url(#clip0_5998_126)">
<path d="M171.255 115.186L190.222 128.715C214.33 145.911 231.519 171.074 238.799 199.738C246.464 229.98 240.425 262.114 222.289 287.541L211.744 302.324C211.744 302.324 211.944 300.407 212.143 297.049C211.32 299.07 210.82 300.155 210.82 300.155L210.107 301.156L192.276 288.437C182.815 281.689 175.243 273.062 169.833 263.232C169.202 262.096 170.175 260.732 171.455 260.958L184.602 263.404C185.323 263.644 185.693 262.741 185.102 262.319L164.496 247.622C163.541 246.941 162.891 245.928 162.585 244.817C160.234 235.317 159.682 225.315 161.176 215.331C161.758 211.629 162.637 204.913 163.108 201.269C163.296 199.755 164.282 198.468 165.698 197.831L179.151 192.055C180.158 191.606 180.293 190.261 179.429 189.645L167.33 181.015C166.147 180.171 165.464 178.723 165.587 177.301C167.094 158.062 167.425 137.778 165.347 119.139C165.21 118.08 165.508 116.989 166.124 116.124C167.279 114.409 169.617 114.018 171.255 115.186Z" fill="url(#paint0_linear_5998_126)"/>
<path d="M171.255 115.186L190.222 128.715C214.33 145.911 231.519 171.074 238.799 199.738C246.464 229.98 240.425 262.114 222.289 287.541L211.744 302.324C211.744 302.324 211.944 300.407 212.143 297.049C211.32 299.07 210.82 300.155 210.82 300.155L210.107 301.156L192.276 288.437C182.815 281.689 175.243 273.062 169.833 263.232C169.202 262.096 170.175 260.732 171.455 260.958L184.602 263.404C185.323 263.644 185.693 262.741 185.102 262.319L164.496 247.622C163.541 246.941 162.891 245.928 162.585 244.817C160.234 235.317 159.682 225.315 161.176 215.331C161.758 211.629 162.637 204.913 163.108 201.269C163.296 199.755 164.282 198.468 165.698 197.831L179.151 192.055C180.158 191.606 180.293 190.261 179.429 189.645L167.33 181.015C166.147 180.171 165.464 178.723 165.587 177.301C167.094 158.062 167.425 137.778 165.347 119.139C165.21 118.08 165.508 116.989 166.124 116.124C167.279 114.409 169.617 114.018 171.255 115.186Z" fill="url(#paint1_radial_5998_126)"/>
<path d="M171.255 115.186L190.222 128.715C214.33 145.911 231.519 171.074 238.799 199.738C246.464 229.98 240.425 262.114 222.289 287.541L211.744 302.324C211.744 302.324 211.944 300.407 212.143 297.049C211.32 299.07 210.82 300.155 210.82 300.155L210.107 301.156L192.276 288.437C182.815 281.689 175.243 273.062 169.833 263.232C169.202 262.096 170.175 260.732 171.455 260.958L184.602 263.404C185.323 263.644 185.693 262.741 185.102 262.319L164.496 247.622C163.541 246.941 162.891 245.928 162.585 244.817C160.234 235.317 159.682 225.315 161.176 215.331C161.758 211.629 162.637 204.913 163.108 201.269C163.296 199.755 164.282 198.468 165.698 197.831L179.151 192.055C180.158 191.606 180.293 190.261 179.429 189.645L167.33 181.015C166.147 180.171 165.464 178.723 165.587 177.301C167.094 158.062 167.425 137.778 165.347 119.139C165.21 118.08 165.508 116.989 166.124 116.124C167.279 114.409 169.617 114.018 171.255 115.186Z" fill="url(#paint2_radial_5998_126)"/>
<path d="M171.255 115.186L190.222 128.715C214.33 145.911 231.519 171.074 238.799 199.738C246.464 229.98 240.425 262.114 222.289 287.541L211.744 302.324C211.744 302.324 211.944 300.407 212.143 297.049C211.32 299.07 210.82 300.155 210.82 300.155L210.107 301.156L192.276 288.437C182.815 281.689 175.243 273.062 169.833 263.232C169.202 262.096 170.175 260.732 171.455 260.958L184.602 263.404C185.323 263.644 185.693 262.741 185.102 262.319L164.496 247.622C163.541 246.941 162.891 245.928 162.585 244.817C160.234 235.317 159.682 225.315 161.176 215.331C161.758 211.629 162.637 204.913 163.108 201.269C163.296 199.755 164.282 198.468 165.698 197.831L179.151 192.055C180.158 191.606 180.293 190.261 179.429 189.645L167.33 181.015C166.147 180.171 165.464 178.723 165.587 177.301C167.094 158.062 167.425 137.778 165.347 119.139C165.21 118.08 165.508 116.989 166.124 116.124C167.279 114.409 169.617 114.018 171.255 115.186Z" fill="url(#paint3_radial_5998_126)"/>
<path d="M171.255 115.186L190.222 128.715C214.33 145.911 231.519 171.074 238.799 199.738C246.464 229.98 240.425 262.114 222.289 287.541L211.744 302.324C211.744 302.324 211.944 300.407 212.143 297.049C211.32 299.07 210.82 300.155 210.82 300.155L210.107 301.156L192.276 288.437C182.815 281.689 175.243 273.062 169.833 263.232C169.202 262.096 170.175 260.732 171.455 260.958L184.602 263.404C185.323 263.644 185.693 262.741 185.102 262.319L164.496 247.622C163.541 246.941 162.891 245.928 162.585 244.817C160.234 235.317 159.682 225.315 161.176 215.331C161.758 211.629 162.637 204.913 163.108 201.269C163.296 199.755 164.282 198.468 165.698 197.831L179.151 192.055C180.158 191.606 180.293 190.261 179.429 189.645L167.33 181.015C166.147 180.171 165.464 178.723 165.587 177.301C167.094 158.062 167.425 137.778 165.347 119.139C165.21 118.08 165.508 116.989 166.124 116.124C167.279 114.409 169.617 114.018 171.255 115.186Z" fill="url(#paint4_radial_5998_126)" fill-opacity="0.6"/>
<path d="M171.255 115.186L190.222 128.715C214.33 145.911 231.519 171.074 238.799 199.738C246.464 229.98 240.425 262.114 222.289 287.541L211.744 302.324C211.744 302.324 211.944 300.407 212.143 297.049C211.32 299.07 210.82 300.155 210.82 300.155L210.107 301.156L192.276 288.437C182.815 281.689 175.243 273.062 169.833 263.232C169.202 262.096 170.175 260.732 171.455 260.958L184.602 263.404C185.323 263.644 185.693 262.741 185.102 262.319L164.496 247.622C163.541 246.941 162.891 245.928 162.585 244.817C160.234 235.317 159.682 225.315 161.176 215.331C161.758 211.629 162.637 204.913 163.108 201.269C163.296 199.755 164.282 198.468 165.698 197.831L179.151 192.055C180.158 191.606 180.293 190.261 179.429 189.645L167.33 181.015C166.147 180.171 165.464 178.723 165.587 177.301C167.094 158.062 167.425 137.778 165.347 119.139C165.21 118.08 165.508 116.989 166.124 116.124C167.279 114.409 169.617 114.018 171.255 115.186Z" fill="url(#paint5_radial_5998_126)"/>
<path d="M171.255 115.186L190.222 128.715C214.33 145.911 231.519 171.074 238.799 199.738C246.464 229.98 240.425 262.114 222.289 287.541L211.744 302.324C211.744 302.324 211.944 300.407 212.143 297.049C211.32 299.07 210.82 300.155 210.82 300.155L210.107 301.156L192.276 288.437C182.815 281.689 175.243 273.062 169.833 263.232C169.202 262.096 170.175 260.732 171.455 260.958L184.602 263.404C185.323 263.644 185.693 262.741 185.102 262.319L164.496 247.622C163.541 246.941 162.891 245.928 162.585 244.817C160.234 235.317 159.682 225.315 161.176 215.331C161.758 211.629 162.637 204.913 163.108 201.269C163.296 199.755 164.282 198.468 165.698 197.831L179.151 192.055C180.158 191.606 180.293 190.261 179.429 189.645L167.33 181.015C166.147 180.171 165.464 178.723 165.587 177.301C167.094 158.062 167.425 137.778 165.347 119.139C165.21 118.08 165.508 116.989 166.124 116.124C167.279 114.409 169.617 114.018 171.255 115.186Z" fill="url(#paint6_radial_5998_126)"/>
<path d="M171.255 115.186L190.222 128.715C214.33 145.911 231.519 171.074 238.799 199.738C246.464 229.98 240.425 262.114 222.289 287.541L211.744 302.324C211.744 302.324 211.944 300.407 212.143 297.049C211.32 299.07 210.82 300.155 210.82 300.155L210.107 301.156L192.276 288.437C182.815 281.689 175.243 273.062 169.833 263.232C169.202 262.096 170.175 260.732 171.455 260.958L184.602 263.404C185.323 263.644 185.693 262.741 185.102 262.319L164.496 247.622C163.541 246.941 162.891 245.928 162.585 244.817C160.234 235.317 159.682 225.315 161.176 215.331C161.758 211.629 162.637 204.913 163.108 201.269C163.296 199.755 164.282 198.468 165.698 197.831L179.151 192.055C180.158 191.606 180.293 190.261 179.429 189.645L167.33 181.015C166.147 180.171 165.464 178.723 165.587 177.301C167.094 158.062 167.425 137.778 165.347 119.139C165.21 118.08 165.508 116.989 166.124 116.124C167.279 114.409 169.617 114.018 171.255 115.186Z" fill="url(#paint7_radial_5998_126)" fill-opacity="0.6"/>
<path d="M171.255 115.186L190.222 128.715C214.33 145.911 231.519 171.074 238.799 199.738C246.464 229.98 240.425 262.114 222.289 287.541L211.744 302.324C211.744 302.324 211.944 300.407 212.143 297.049C211.32 299.07 210.82 300.155 210.82 300.155L210.107 301.156L192.276 288.437C182.815 281.689 175.243 273.062 169.833 263.232C169.202 262.096 170.175 260.732 171.455 260.958L184.602 263.404C185.323 263.644 185.693 262.741 185.102 262.319L164.496 247.622C163.541 246.941 162.891 245.928 162.585 244.817C160.234 235.317 159.682 225.315 161.176 215.331C161.758 211.629 162.637 204.913 163.108 201.269C163.296 199.755 164.282 198.468 165.698 197.831L179.151 192.055C180.158 191.606 180.293 190.261 179.429 189.645L167.33 181.015C166.147 180.171 165.464 178.723 165.587 177.301C167.094 158.062 167.425 137.778 165.347 119.139C165.21 118.08 165.508 116.989 166.124 116.124C167.279 114.409 169.617 114.018 171.255 115.186Z" fill="url(#paint8_radial_5998_126)" fill-opacity="0.6"/>
<path d="M171.255 115.186L190.222 128.715C214.33 145.911 231.519 171.074 238.799 199.738C246.464 229.98 240.425 262.114 222.289 287.541L211.744 302.324C211.744 302.324 211.944 300.407 212.143 297.049C211.32 299.07 210.82 300.155 210.82 300.155L210.107 301.156L192.276 288.437C182.815 281.689 175.243 273.062 169.833 263.232C169.202 262.096 170.175 260.732 171.455 260.958L184.602 263.404C185.323 263.644 185.693 262.741 185.102 262.319L164.496 247.622C163.541 246.941 162.891 245.928 162.585 244.817C160.234 235.317 159.682 225.315 161.176 215.331C161.758 211.629 162.637 204.913 163.108 201.269C163.296 199.755 164.282 198.468 165.698 197.831L179.151 192.055C180.158 191.606 180.293 190.261 179.429 189.645L167.33 181.015C166.147 180.171 165.464 178.723 165.587 177.301C167.094 158.062 167.425 137.778 165.347 119.139C165.21 118.08 165.508 116.989 166.124 116.124C167.279 114.409 169.617 114.018 171.255 115.186Z" fill="url(#paint9_radial_5998_126)"/>
<path d="M171.255 115.186L190.222 128.715C214.33 145.911 231.519 171.074 238.799 199.738C246.464 229.98 240.425 262.114 222.289 287.541L211.744 302.324C211.744 302.324 211.944 300.407 212.143 297.049C211.32 299.07 210.82 300.155 210.82 300.155L210.107 301.156L192.276 288.437C182.815 281.689 175.243 273.062 169.833 263.232C169.202 262.096 170.175 260.732 171.455 260.958L184.602 263.404C185.323 263.644 185.693 262.741 185.102 262.319L164.496 247.622C163.541 246.941 162.891 245.928 162.585 244.817C160.234 235.317 159.682 225.315 161.176 215.331C161.758 211.629 162.637 204.913 163.108 201.269C163.296 199.755 164.282 198.468 165.698 197.831L179.151 192.055C180.158 191.606 180.293 190.261 179.429 189.645L167.33 181.015C166.147 180.171 165.464 178.723 165.587 177.301C167.094 158.062 167.425 137.778 165.347 119.139C165.21 118.08 165.508 116.989 166.124 116.124C167.279 114.409 169.617 114.018 171.255 115.186Z" fill="url(#paint10_radial_5998_126)" fill-opacity="0.8"/>
<path d="M171.255 115.186L190.222 128.715C214.33 145.911 231.519 171.074 238.799 199.738C246.464 229.98 240.425 262.114 222.289 287.541L211.744 302.324C211.744 302.324 211.944 300.407 212.143 297.049C211.32 299.07 210.82 300.155 210.82 300.155L210.107 301.156L192.276 288.437C182.815 281.689 175.243 273.062 169.833 263.232C169.202 262.096 170.175 260.732 171.455 260.958L184.602 263.404C185.323 263.644 185.693 262.741 185.102 262.319L164.496 247.622C163.541 246.941 162.891 245.928 162.585 244.817C160.234 235.317 159.682 225.315 161.176 215.331C161.758 211.629 162.637 204.913 163.108 201.269C163.296 199.755 164.282 198.468 165.698 197.831L179.151 192.055C180.158 191.606 180.293 190.261 179.429 189.645L167.33 181.015C166.147 180.171 165.464 178.723 165.587 177.301C167.094 158.062 167.425 137.778 165.347 119.139C165.21 118.08 165.508 116.989 166.124 116.124C167.279 114.409 169.617 114.018 171.255 115.186Z" fill="url(#paint11_radial_5998_126)" fill-opacity="0.8"/>
<path d="M171.255 115.186L190.222 128.715C214.33 145.911 231.519 171.074 238.799 199.738C246.464 229.98 240.425 262.114 222.289 287.541L211.744 302.324C211.744 302.324 211.944 300.407 212.143 297.049C211.32 299.07 210.82 300.155 210.82 300.155L210.107 301.156L192.276 288.437C182.815 281.689 175.243 273.062 169.833 263.232C169.202 262.096 170.175 260.732 171.455 260.958L184.602 263.404C185.323 263.644 185.693 262.741 185.102 262.319L164.496 247.622C163.541 246.941 162.891 245.928 162.585 244.817C160.234 235.317 159.682 225.315 161.176 215.331C161.758 211.629 162.637 204.913 163.108 201.269C163.296 199.755 164.282 198.468 165.698 197.831L179.151 192.055C180.158 191.606 180.293 190.261 179.429 189.645L167.33 181.015C166.147 180.171 165.464 178.723 165.587 177.301C167.094 158.062 167.425 137.778 165.347 119.139C165.21 118.08 165.508 116.989 166.124 116.124C167.279 114.409 169.617 114.018 171.255 115.186Z" fill="url(#paint12_radial_5998_126)" fill-opacity="0.8"/>
<path d="M171.255 115.186L190.222 128.715C214.33 145.911 231.519 171.074 238.799 199.738C246.464 229.98 240.425 262.114 222.289 287.541L211.744 302.324C211.744 302.324 211.944 300.407 212.143 297.049C211.32 299.07 210.82 300.155 210.82 300.155L210.107 301.156L192.276 288.437C182.815 281.689 175.243 273.062 169.833 263.232C169.202 262.096 170.175 260.732 171.455 260.958L184.602 263.404C185.323 263.644 185.693 262.741 185.102 262.319L164.496 247.622C163.541 246.941 162.891 245.928 162.585 244.817C160.234 235.317 159.682 225.315 161.176 215.331C161.758 211.629 162.637 204.913 163.108 201.269C163.296 199.755 164.282 198.468 165.698 197.831L179.151 192.055C180.158 191.606 180.293 190.261 179.429 189.645L167.33 181.015C166.147 180.171 165.464 178.723 165.587 177.301C167.094 158.062 167.425 137.778 165.347 119.139C165.21 118.08 165.508 116.989 166.124 116.124C167.279 114.409 169.617 114.018 171.255 115.186Z" fill="url(#paint13_radial_5998_126)"/>
<path d="M171.255 115.186L190.222 128.715C214.33 145.911 231.519 171.074 238.799 199.738C246.464 229.98 240.425 262.114 222.289 287.541L211.744 302.324C211.744 302.324 211.944 300.407 212.143 297.049C211.32 299.07 210.82 300.155 210.82 300.155L210.107 301.156L192.276 288.437C182.815 281.689 175.243 273.062 169.833 263.232C169.202 262.096 170.175 260.732 171.455 260.958L184.602 263.404C185.323 263.644 185.693 262.741 185.102 262.319L164.496 247.622C163.541 246.941 162.891 245.928 162.585 244.817C160.234 235.317 159.682 225.315 161.176 215.331C161.758 211.629 162.637 204.913 163.108 201.269C163.296 199.755 164.282 198.468 165.698 197.831L179.151 192.055C180.158 191.606 180.293 190.261 179.429 189.645L167.33 181.015C166.147 180.171 165.464 178.723 165.587 177.301C167.094 158.062 167.425 137.778 165.347 119.139C165.21 118.08 165.508 116.989 166.124 116.124C167.279 114.409 169.617 114.018 171.255 115.186Z" fill="url(#paint14_radial_5998_126)" fill-opacity="0.8"/>
<path d="M171.255 115.186L190.222 128.715C214.33 145.911 231.519 171.074 238.799 199.738C246.464 229.98 240.425 262.114 222.289 287.541L211.744 302.324C211.744 302.324 211.944 300.407 212.143 297.049C211.32 299.07 210.82 300.155 210.82 300.155L210.107 301.156L192.276 288.437C182.815 281.689 175.243 273.062 169.833 263.232C169.202 262.096 170.175 260.732 171.455 260.958L184.602 263.404C185.323 263.644 185.693 262.741 185.102 262.319L164.496 247.622C163.541 246.941 162.891 245.928 162.585 244.817C160.234 235.317 159.682 225.315 161.176 215.331C161.758 211.629 162.637 204.913 163.108 201.269C163.296 199.755 164.282 198.468 165.698 197.831L179.151 192.055C180.158 191.606 180.293 190.261 179.429 189.645L167.33 181.015C166.147 180.171 165.464 178.723 165.587 177.301C167.094 158.062 167.425 137.778 165.347 119.139C165.21 118.08 165.508 116.989 166.124 116.124C167.279 114.409 169.617 114.018 171.255 115.186Z" fill="url(#paint15_radial_5998_126)" fill-opacity="0.8"/>
<path d="M171.255 115.186L190.222 128.715C214.33 145.911 231.519 171.074 238.799 199.738C246.464 229.98 240.425 262.114 222.289 287.541L211.744 302.324C211.744 302.324 211.944 300.407 212.143 297.049C211.32 299.07 210.82 300.155 210.82 300.155L210.107 301.156L192.276 288.437C182.815 281.689 175.243 273.062 169.833 263.232C169.202 262.096 170.175 260.732 171.455 260.958L184.602 263.404C185.323 263.644 185.693 262.741 185.102 262.319L164.496 247.622C163.541 246.941 162.891 245.928 162.585 244.817C160.234 235.317 159.682 225.315 161.176 215.331C161.758 211.629 162.637 204.913 163.108 201.269C163.296 199.755 164.282 198.468 165.698 197.831L179.151 192.055C180.158 191.606 180.293 190.261 179.429 189.645L167.33 181.015C166.147 180.171 165.464 178.723 165.587 177.301C167.094 158.062 167.425 137.778 165.347 119.139C165.21 118.08 165.508 116.989 166.124 116.124C167.279 114.409 169.617 114.018 171.255 115.186Z" fill="url(#paint16_radial_5998_126)"/>
<path d="M166.768 146.299L202.201 171.573L215.568 152.833C221.965 160.896 227.374 169.764 231.602 179.231L209.086 210.798L167.284 180.982C166.102 180.138 165.419 178.69 165.541 177.268C166.359 167.076 166.813 156.626 166.768 146.299Z" fill="url(#paint17_linear_5998_126)"/>
<path d="M166.768 146.299L202.201 171.573L215.568 152.833C221.965 160.896 227.374 169.764 231.602 179.231L209.086 210.798L167.284 180.982C166.102 180.138 165.419 178.69 165.541 177.268C166.359 167.076 166.813 156.626 166.768 146.299Z" fill="url(#paint18_radial_5998_126)"/>
<path d="M166.768 146.299L202.201 171.573L215.568 152.833C221.965 160.896 227.374 169.764 231.602 179.231L209.086 210.798L167.284 180.982C166.102 180.138 165.419 178.69 165.541 177.268C166.359 167.076 166.813 156.626 166.768 146.299Z" fill="url(#paint19_linear_5998_126)"/>
<path d="M171.255 115.186L190.222 128.715C214.33 145.911 231.519 171.074 238.799 199.738C246.464 229.98 240.425 262.114 222.289 287.541L211.744 302.324C211.744 302.324 211.944 300.407 212.143 297.049C211.32 299.07 210.82 300.155 210.82 300.155L210.107 301.156L192.276 288.437C182.815 281.689 175.243 273.062 169.833 263.232C169.202 262.096 170.175 260.732 171.455 260.958L184.602 263.404C185.323 263.644 185.693 262.741 185.102 262.319L164.496 247.622C163.541 246.941 162.891 245.928 162.585 244.817C160.234 235.317 159.682 225.315 161.176 215.331C161.758 211.629 162.637 204.913 163.108 201.269C163.296 199.755 164.282 198.468 165.698 197.831L179.151 192.055C180.158 191.606 180.293 190.261 179.429 189.645L167.33 181.015C166.147 180.171 165.464 178.723 165.587 177.301C167.094 158.062 167.425 137.778 165.347 119.139C165.21 118.08 165.508 116.989 166.124 116.124C167.279 114.409 169.617 114.018 171.255 115.186Z" fill="url(#paint20_radial_5998_126)" fill-opacity="0.8"/>
<path d="M171.255 115.186L190.222 128.715C214.33 145.911 231.519 171.074 238.799 199.738C246.464 229.98 240.425 262.114 222.289 287.541L211.744 302.324C211.744 302.324 211.944 300.407 212.143 297.049C211.32 299.07 210.82 300.155 210.82 300.155L210.107 301.156L192.276 288.437C182.815 281.689 175.243 273.062 169.833 263.232C169.202 262.096 170.175 260.732 171.455 260.958L184.602 263.404C185.323 263.644 185.693 262.741 185.102 262.319L164.496 247.622C163.541 246.941 162.891 245.928 162.585 244.817C160.234 235.317 159.682 225.315 161.176 215.331C161.758 211.629 162.637 204.913 163.108 201.269C163.296 199.755 164.282 198.468 165.698 197.831L179.151 192.055C180.158 191.606 180.293 190.261 179.429 189.645L167.33 181.015C166.147 180.171 165.464 178.723 165.587 177.301C167.094 158.062 167.425 137.778 165.347 119.139C165.21 118.08 165.508 116.989 166.124 116.124C167.279 114.409 169.617 114.018 171.255 115.186Z" fill="url(#paint21_radial_5998_126)" fill-opacity="0.2"/>
<path d="M171.255 115.186L190.222 128.715C214.33 145.911 231.519 171.074 238.799 199.738C246.464 229.98 240.425 262.114 222.289 287.541L211.744 302.324C211.744 302.324 211.944 300.407 212.143 297.049C211.32 299.07 210.82 300.155 210.82 300.155L210.107 301.156L192.276 288.437C182.815 281.689 175.243 273.062 169.833 263.232C169.202 262.096 170.175 260.732 171.455 260.958L184.602 263.404C185.323 263.644 185.693 262.741 185.102 262.319L164.496 247.622C163.541 246.941 162.891 245.928 162.585 244.817C160.234 235.317 159.682 225.315 161.176 215.331C161.758 211.629 162.637 204.913 163.108 201.269C163.296 199.755 164.282 198.468 165.698 197.831L179.151 192.055C180.158 191.606 180.293 190.261 179.429 189.645L167.33 181.015C166.147 180.171 165.464 178.723 165.587 177.301C167.094 158.062 167.425 137.778 165.347 119.139C165.21 118.08 165.508 116.989 166.124 116.124C167.279 114.409 169.617 114.018 171.255 115.186Z" fill="url(#paint22_linear_5998_126)"/>
<path d="M171.255 115.186L190.222 128.715C214.33 145.911 231.519 171.074 238.799 199.738C246.464 229.98 240.425 262.114 222.289 287.541L211.744 302.324C211.744 302.324 211.944 300.407 212.143 297.049C211.32 299.07 210.82 300.155 210.82 300.155L210.107 301.156L192.276 288.437C182.815 281.689 175.243 273.062 169.833 263.232C169.202 262.096 170.175 260.732 171.455 260.958L184.602 263.404C185.323 263.644 185.693 262.741 185.102 262.319L164.496 247.622C163.541 246.941 162.891 245.928 162.585 244.817C160.234 235.317 159.682 225.315 161.176 215.331C161.758 211.629 162.637 204.913 163.108 201.269C163.296 199.755 164.282 198.468 165.698 197.831L179.151 192.055C180.158 191.606 180.293 190.261 179.429 189.645L167.33 181.015C166.147 180.171 165.464 178.723 165.587 177.301C167.094 158.062 167.425 137.778 165.347 119.139C165.21 118.08 165.508 116.989 166.124 116.124C167.279 114.409 169.617 114.018 171.255 115.186Z" fill="url(#paint23_radial_5998_126)"/>
<path d="M171.255 115.186L190.222 128.715C214.33 145.911 231.519 171.074 238.799 199.738C246.464 229.98 240.425 262.114 222.289 287.541L211.744 302.324C211.744 302.324 211.944 300.407 212.143 297.049C211.32 299.07 210.82 300.155 210.82 300.155L210.107 301.156L192.276 288.437C182.815 281.689 175.243 273.062 169.833 263.232C169.202 262.096 170.175 260.732 171.455 260.958L184.602 263.404C185.323 263.644 185.693 262.741 185.102 262.319L164.496 247.622C163.541 246.941 162.891 245.928 162.585 244.817C160.234 235.317 159.682 225.315 161.176 215.331C161.758 211.629 162.637 204.913 163.108 201.269C163.296 199.755 164.282 198.468 165.698 197.831L179.151 192.055C180.158 191.606 180.293 190.261 179.429 189.645L167.33 181.015C166.147 180.171 165.464 178.723 165.587 177.301C167.094 158.062 167.425 137.778 165.347 119.139C165.21 118.08 165.508 116.989 166.124 116.124C167.279 114.409 169.617 114.018 171.255 115.186Z" fill="url(#paint24_radial_5998_126)"/>
<path d="M171.255 115.186L190.222 128.715C214.33 145.911 231.519 171.074 238.799 199.738C246.464 229.98 240.425 262.114 222.289 287.541L211.744 302.324C211.744 302.324 211.944 300.407 212.143 297.049C211.32 299.07 210.82 300.155 210.82 300.155L210.107 301.156L192.276 288.437C182.815 281.689 175.243 273.062 169.833 263.232C169.202 262.096 170.175 260.732 171.455 260.958L184.602 263.404C185.323 263.644 185.693 262.741 185.102 262.319L164.496 247.622C163.541 246.941 162.891 245.928 162.585 244.817C160.234 235.317 159.682 225.315 161.176 215.331C161.758 211.629 162.637 204.913 163.108 201.269C163.296 199.755 164.282 198.468 165.698 197.831L179.151 192.055C180.158 191.606 180.293 190.261 179.429 189.645L167.33 181.015C166.147 180.171 165.464 178.723 165.587 177.301C167.094 158.062 167.425 137.778 165.347 119.139C165.21 118.08 165.508 116.989 166.124 116.124C167.279 114.409 169.617 114.018 171.255 115.186Z" fill="url(#paint25_radial_5998_126)"/>
<path d="M182.915 138.19C184.239 137.487 185.883 137.973 186.617 139.252C200.825 163.593 210.344 190.079 215.072 218.089C220.054 247.858 219.262 277.833 212.753 307.162C211.147 314.32 209.236 321.329 206.987 328.235C206.423 329.892 204.644 330.75 203.117 330.004C201.772 329.388 201.2 327.882 201.66 326.563C203.857 319.826 205.749 312.94 207.303 305.951C213.695 277.362 214.481 248.07 209.584 219.047C205.007 191.693 195.682 165.895 181.813 142.139C180.974 140.717 181.447 138.996 182.915 138.19C182.882 138.235 182.882 138.235 182.915 138.19Z" fill="url(#paint26_linear_5998_126)"/>
<path d="M182.915 138.19C184.239 137.487 185.883 137.973 186.617 139.252C200.825 163.593 210.344 190.079 215.072 218.089C220.054 247.858 219.262 277.833 212.753 307.162C211.147 314.32 209.236 321.329 206.987 328.235C206.423 329.892 204.644 330.75 203.117 330.004C201.772 329.388 201.2 327.882 201.66 326.563C203.857 319.826 205.749 312.94 207.303 305.951C213.695 277.362 214.481 248.07 209.584 219.047C205.007 191.693 195.682 165.895 181.813 142.139C180.974 140.717 181.447 138.996 182.915 138.19C182.882 138.235 182.882 138.235 182.915 138.19Z" fill="url(#paint27_linear_5998_126)"/>
<path d="M182.915 138.19C184.239 137.487 185.883 137.973 186.617 139.252C200.825 163.593 210.344 190.079 215.072 218.089C220.054 247.858 219.262 277.833 212.753 307.162C211.147 314.32 209.236 321.329 206.987 328.235C206.423 329.892 204.644 330.75 203.117 330.004C201.772 329.388 201.2 327.882 201.66 326.563C203.857 319.826 205.749 312.94 207.303 305.951C213.695 277.362 214.481 248.07 209.584 219.047C205.007 191.693 195.682 165.895 181.813 142.139C180.974 140.717 181.447 138.996 182.915 138.19C182.882 138.235 182.882 138.235 182.915 138.19Z" fill="url(#paint28_radial_5998_126)" fill-opacity="0.8"/>
<path d="M182.915 138.19C184.239 137.487 185.883 137.973 186.617 139.252C200.825 163.593 210.344 190.079 215.072 218.089C220.054 247.858 219.262 277.833 212.753 307.162C211.147 314.32 209.236 321.329 206.987 328.235C206.423 329.892 204.644 330.75 203.117 330.004C201.772 329.388 201.2 327.882 201.66 326.563C203.857 319.826 205.749 312.94 207.303 305.951C213.695 277.362 214.481 248.07 209.584 219.047C205.007 191.693 195.682 165.895 181.813 142.139C180.974 140.717 181.447 138.996 182.915 138.19C182.882 138.235 182.882 138.235 182.915 138.19Z" fill="url(#paint29_radial_5998_126)"/>
<path d="M182.915 138.19C184.239 137.487 185.883 137.973 186.617 139.252C200.825 163.593 210.344 190.079 215.072 218.089C220.054 247.858 219.262 277.833 212.753 307.162C211.147 314.32 209.236 321.329 206.987 328.235C206.423 329.892 204.644 330.75 203.117 330.004C201.772 329.388 201.2 327.882 201.66 326.563C203.857 319.826 205.749 312.94 207.303 305.951C213.695 277.362 214.481 248.07 209.584 219.047C205.007 191.693 195.682 165.895 181.813 142.139C180.974 140.717 181.447 138.996 182.915 138.19C182.882 138.235 182.882 138.235 182.915 138.19Z" fill="url(#paint30_radial_5998_126)"/>
<path d="M182.915 138.19C184.239 137.487 185.883 137.973 186.617 139.252C200.825 163.593 210.344 190.079 215.072 218.089C220.054 247.858 219.262 277.833 212.753 307.162C211.147 314.32 209.236 321.329 206.987 328.235C206.423 329.892 204.644 330.75 203.117 330.004C201.772 329.388 201.2 327.882 201.66 326.563C203.857 319.826 205.749 312.94 207.303 305.951C213.695 277.362 214.481 248.07 209.584 219.047C205.007 191.693 195.682 165.895 181.813 142.139C180.974 140.717 181.447 138.996 182.915 138.19C182.882 138.235 182.882 138.235 182.915 138.19Z" fill="url(#paint31_radial_5998_126)"/>
<path d="M182.915 138.19C184.239 137.487 185.883 137.973 186.617 139.252C200.825 163.593 210.344 190.079 215.072 218.089C220.054 247.858 219.262 277.833 212.753 307.162C211.147 314.32 209.236 321.329 206.987 328.235C206.423 329.892 204.644 330.75 203.117 330.004C201.772 329.388 201.2 327.882 201.66 326.563C203.857 319.826 205.749 312.94 207.303 305.951C213.695 277.362 214.481 248.07 209.584 219.047C205.007 191.693 195.682 165.895 181.813 142.139C180.974 140.717 181.447 138.996 182.915 138.19C182.882 138.235 182.882 138.235 182.915 138.19Z" fill="url(#paint32_radial_5998_126)" fill-opacity="0.6"/>
<path d="M182.915 138.19C184.239 137.487 185.883 137.973 186.617 139.252C200.825 163.593 210.344 190.079 215.072 218.089C220.054 247.858 219.262 277.833 212.753 307.162C211.147 314.32 209.236 321.329 206.987 328.235C206.423 329.892 204.644 330.75 203.117 330.004C201.772 329.388 201.2 327.882 201.66 326.563C203.857 319.826 205.749 312.94 207.303 305.951C213.695 277.362 214.481 248.07 209.584 219.047C205.007 191.693 195.682 165.895 181.813 142.139C180.974 140.717 181.447 138.996 182.915 138.19C182.882 138.235 182.882 138.235 182.915 138.19Z" fill="url(#paint33_radial_5998_126)"/>
<path d="M182.915 138.19C184.239 137.487 185.883 137.973 186.617 139.252C200.825 163.593 210.344 190.079 215.072 218.089C220.054 247.858 219.262 277.833 212.753 307.162C211.147 314.32 209.236 321.329 206.987 328.235C206.423 329.892 204.644 330.75 203.117 330.004C201.772 329.388 201.2 327.882 201.66 326.563C203.857 319.826 205.749 312.94 207.303 305.951C213.695 277.362 214.481 248.07 209.584 219.047C205.007 191.693 195.682 165.895 181.813 142.139C180.974 140.717 181.447 138.996 182.915 138.19C182.882 138.235 182.882 138.235 182.915 138.19Z" fill="url(#paint34_radial_5998_126)"/>
</g>
<path d="M98.9677 153.313L51.208 229.456C50.1157 231.197 51.3437 233.464 53.3992 233.5L76.8736 233.914C78.6238 233.945 80.0176 235.389 79.9867 237.139L79.1205 286.273L76.3296 286.224L76.0949 299.538L80.3726 299.614C80.9132 299.662 81.4809 299.438 81.8364 298.878L134.943 215.222C135.606 214.178 134.87 212.81 133.633 212.788L106.847 212.316C105.389 212.29 104.227 211.087 104.253 209.628L105.327 148.712C105.343 147.773 104.631 147.169 103.865 147.102L99.0787 147.014L98.9677 153.313Z" fill="url(#paint35_linear_5998_126)"/>
<path d="M98.9677 153.313L51.208 229.456C50.1157 231.197 51.3437 233.464 53.3992 233.5L76.8736 233.914C78.6238 233.945 80.0176 235.389 79.9867 237.139L79.1205 286.273L76.3296 286.224L76.0949 299.538L80.3726 299.614C80.9132 299.662 81.4809 299.438 81.8364 298.878L134.943 215.222C135.606 214.178 134.87 212.81 133.633 212.788L106.847 212.316C105.389 212.29 104.227 211.087 104.253 209.628L105.327 148.712C105.343 147.773 104.631 147.169 103.865 147.102L99.0787 147.014L98.9677 153.313Z" fill="url(#paint36_linear_5998_126)"/>
<path d="M97.7482 147.76L46.5566 229.374C45.4643 231.115 46.6924 233.382 48.7477 233.419L72.222 233.832C73.9722 233.863 75.3661 235.307 75.3353 237.057L74.2623 297.918C74.2341 299.519 76.3268 300.147 77.1848 298.796L130.291 215.14C130.954 214.096 130.218 212.728 128.981 212.706L102.196 212.234C100.737 212.208 99.5757 211.005 99.6014 209.546L100.675 148.63C100.704 147.025 98.6013 146.4 97.7482 147.76Z" fill="url(#paint37_linear_5998_126)"/>
<path d="M97.7482 147.76L46.5566 229.374C45.4643 231.115 46.6924 233.382 48.7477 233.419L72.222 233.832C73.9722 233.863 75.3661 235.307 75.3353 237.057L74.2623 297.918C74.2341 299.519 76.3268 300.147 77.1848 298.796L130.291 215.14C130.954 214.096 130.218 212.728 128.981 212.706L102.196 212.234C100.737 212.208 99.5757 211.005 99.6014 209.546L100.675 148.63C100.704 147.025 98.6013 146.4 97.7482 147.76Z" fill="url(#paint38_linear_5998_126)" fill-opacity="0.8"/>
<path d="M97.7482 147.76L46.5566 229.374C45.4643 231.115 46.6924 233.382 48.7477 233.419L72.222 233.832C73.9722 233.863 75.3661 235.307 75.3353 237.057L74.2623 297.918C74.2341 299.519 76.3268 300.147 77.1848 298.796L130.291 215.14C130.954 214.096 130.218 212.728 128.981 212.706L102.196 212.234C100.737 212.208 99.5757 211.005 99.6014 209.546L100.675 148.63C100.704 147.025 98.6013 146.4 97.7482 147.76Z" fill="url(#paint39_radial_5998_126)"/>
<path d="M97.7482 147.76L46.5566 229.374C45.4643 231.115 46.6924 233.382 48.7477 233.419L72.222 233.832C73.9722 233.863 75.3661 235.307 75.3353 237.057L74.2623 297.918C74.2341 299.519 76.3268 300.147 77.1848 298.796L130.291 215.14C130.954 214.096 130.218 212.728 128.981 212.706L102.196 212.234C100.737 212.208 99.5757 211.005 99.6014 209.546L100.675 148.63C100.704 147.025 98.6013 146.4 97.7482 147.76Z" fill="url(#paint40_linear_5998_126)"/>
<path d="M97.7482 147.76L46.5566 229.374C45.4643 231.115 46.6924 233.382 48.7477 233.419L72.222 233.832C73.9722 233.863 75.3661 235.307 75.3353 237.057L74.2623 297.918C74.2341 299.519 76.3268 300.147 77.1848 298.796L130.291 215.14C130.954 214.096 130.218 212.728 128.981 212.706L102.196 212.234C100.737 212.208 99.5757 211.005 99.6014 209.546L100.675 148.63C100.704 147.025 98.6013 146.4 97.7482 147.76Z" fill="url(#paint41_radial_5998_126)"/>
<path d="M97.7482 147.76L46.5566 229.374C45.4643 231.115 46.6924 233.382 48.7477 233.419L72.222 233.832C73.9722 233.863 75.3661 235.307 75.3353 237.057L74.2623 297.918C74.2341 299.519 76.3268 300.147 77.1848 298.796L130.291 215.14C130.954 214.096 130.218 212.728 128.981 212.706L102.196 212.234C100.737 212.208 99.5757 211.005 99.6014 209.546L100.675 148.63C100.704 147.025 98.6013 146.4 97.7482 147.76Z" fill="url(#paint42_radial_5998_126)"/>
<path d="M97.7482 147.76L46.5566 229.374C45.4643 231.115 46.6924 233.382 48.7477 233.419L72.222 233.832C73.9722 233.863 75.3661 235.307 75.3353 237.057L74.2623 297.918C74.2341 299.519 76.3268 300.147 77.1848 298.796L130.291 215.14C130.954 214.096 130.218 212.728 128.981 212.706L102.196 212.234C100.737 212.208 99.5757 211.005 99.6014 209.546L100.675 148.63C100.704 147.025 98.6013 146.4 97.7482 147.76Z" fill="url(#paint43_linear_5998_126)"/>
<path d="M97.7482 147.76L46.5566 229.374C45.4643 231.115 46.6924 233.382 48.7477 233.419L72.222 233.832C73.9722 233.863 75.3661 235.307 75.3353 237.057L74.2623 297.918C74.2341 299.519 76.3268 300.147 77.1848 298.796L130.291 215.14C130.954 214.096 130.218 212.728 128.981 212.706L102.196 212.234C100.737 212.208 99.5757 211.005 99.6014 209.546L100.675 148.63C100.704 147.025 98.6013 146.4 97.7482 147.76Z" fill="url(#paint44_radial_5998_126)" fill-opacity="0.7"/>
<path d="M97.7482 147.76L46.5566 229.374C45.4643 231.115 46.6924 233.382 48.7477 233.419L72.222 233.832C73.9722 233.863 75.3661 235.307 75.3353 237.057L74.2623 297.918C74.2341 299.519 76.3268 300.147 77.1848 298.796L130.291 215.14C130.954 214.096 130.218 212.728 128.981 212.706L102.196 212.234C100.737 212.208 99.5757 211.005 99.6014 209.546L100.675 148.63C100.704 147.025 98.6013 146.4 97.7482 147.76Z" fill="url(#paint45_radial_5998_126)" fill-opacity="0.7"/>
<path d="M97.7482 147.76L46.5566 229.374C45.4643 231.115 46.6924 233.382 48.7477 233.419L72.222 233.832C73.9722 233.863 75.3661 235.307 75.3353 237.057L74.2623 297.918C74.2341 299.519 76.3268 300.147 77.1848 298.796L130.291 215.14C130.954 214.096 130.218 212.728 128.981 212.706L102.196 212.234C100.737 212.208 99.5757 211.005 99.6014 209.546L100.675 148.63C100.704 147.025 98.6013 146.4 97.7482 147.76Z" fill="url(#paint46_radial_5998_126)" fill-opacity="0.7"/>
<path d="M97.7482 147.76L46.5566 229.374C45.4643 231.115 46.6924 233.382 48.7477 233.419L72.222 233.832C73.9722 233.863 75.3661 235.307 75.3353 237.057L74.2623 297.918C74.2341 299.519 76.3268 300.147 77.1848 298.796L130.291 215.14C130.954 214.096 130.218 212.728 128.981 212.706L102.196 212.234C100.737 212.208 99.5757 211.005 99.6014 209.546L100.675 148.63C100.704 147.025 98.6013 146.4 97.7482 147.76Z" fill="url(#paint47_radial_5998_126)" fill-opacity="0.7"/>
<path d="M97.7482 147.76L46.5566 229.374C45.4643 231.115 46.6924 233.382 48.7477 233.419L72.222 233.832C73.9722 233.863 75.3661 235.307 75.3353 237.057L74.2623 297.918C74.2341 299.519 76.3268 300.147 77.1848 298.796L130.291 215.14C130.954 214.096 130.218 212.728 128.981 212.706L102.196 212.234C100.737 212.208 99.5757 211.005 99.6014 209.546L100.675 148.63C100.704 147.025 98.6013 146.4 97.7482 147.76Z" fill="url(#paint48_radial_5998_126)" fill-opacity="0.7"/>
<path d="M97.7482 147.76L46.5566 229.374C45.4643 231.115 46.6924 233.382 48.7477 233.419L72.222 233.832C73.9722 233.863 75.3661 235.307 75.3353 237.057L74.2623 297.918C74.2341 299.519 76.3268 300.147 77.1848 298.796L130.291 215.14C130.954 214.096 130.218 212.728 128.981 212.706L102.196 212.234C100.737 212.208 99.5757 211.005 99.6014 209.546L100.675 148.63C100.704 147.025 98.6013 146.4 97.7482 147.76Z" fill="url(#paint49_radial_5998_126)" fill-opacity="0.7"/>
<path d="M97.7482 147.76L46.5566 229.374C45.4643 231.115 46.6924 233.382 48.7477 233.419L72.222 233.832C73.9722 233.863 75.3661 235.307 75.3353 237.057L74.2623 297.918C74.2341 299.519 76.3268 300.147 77.1848 298.796L130.291 215.14C130.954 214.096 130.218 212.728 128.981 212.706L102.196 212.234C100.737 212.208 99.5757 211.005 99.6014 209.546L100.675 148.63C100.704 147.025 98.6013 146.4 97.7482 147.76Z" fill="url(#paint50_radial_5998_126)" fill-opacity="0.7"/>
<path d="M97.7482 147.76L46.5566 229.374C45.4643 231.115 46.6924 233.382 48.7477 233.419L72.222 233.832C73.9722 233.863 75.3661 235.307 75.3353 237.057L74.2623 297.918C74.2341 299.519 76.3268 300.147 77.1848 298.796L130.291 215.14C130.954 214.096 130.218 212.728 128.981 212.706L102.196 212.234C100.737 212.208 99.5757 211.005 99.6014 209.546L100.675 148.63C100.704 147.025 98.6013 146.4 97.7482 147.76Z" fill="url(#paint51_radial_5998_126)" fill-opacity="0.7"/>
<path d="M97.7482 147.76L46.5566 229.374C45.4643 231.115 46.6924 233.382 48.7477 233.419L72.222 233.832C73.9722 233.863 75.3661 235.307 75.3353 237.057L74.2623 297.918C74.2341 299.519 76.3268 300.147 77.1848 298.796L130.291 215.14C130.954 214.096 130.218 212.728 128.981 212.706L102.196 212.234C100.737 212.208 99.5757 211.005 99.6014 209.546L100.675 148.63C100.704 147.025 98.6013 146.4 97.7482 147.76Z" fill="url(#paint52_radial_5998_126)" fill-opacity="0.7"/>
<path d="M97.7482 147.76L46.5566 229.374C45.4643 231.115 46.6924 233.382 48.7477 233.419L72.222 233.832C73.9722 233.863 75.3661 235.307 75.3353 237.057L74.2623 297.918C74.2341 299.519 76.3268 300.147 77.1848 298.796L130.291 215.14C130.954 214.096 130.218 212.728 128.981 212.706L102.196 212.234C100.737 212.208 99.5757 211.005 99.6014 209.546L100.675 148.63C100.704 147.025 98.6013 146.4 97.7482 147.76Z" fill="url(#paint53_radial_5998_126)" fill-opacity="0.7"/>
<path d="M97.7482 147.76L46.5566 229.374C45.4643 231.115 46.6924 233.382 48.7477 233.419L72.222 233.832C73.9722 233.863 75.3661 235.307 75.3353 237.057L74.2623 297.918C74.2341 299.519 76.3268 300.147 77.1848 298.796L130.291 215.14C130.954 214.096 130.218 212.728 128.981 212.706L102.196 212.234C100.737 212.208 99.5757 211.005 99.6014 209.546L100.675 148.63C100.704 147.025 98.6013 146.4 97.7482 147.76Z" fill="url(#paint54_radial_5998_126)" fill-opacity="0.7"/>
<path d="M97.7482 147.76L46.5566 229.374C45.4643 231.115 46.6924 233.382 48.7477 233.419L72.222 233.832C73.9722 233.863 75.3661 235.307 75.3353 237.057L74.2623 297.918C74.2341 299.519 76.3268 300.147 77.1848 298.796L130.291 215.14C130.954 214.096 130.218 212.728 128.981 212.706L102.196 212.234C100.737 212.208 99.5757 211.005 99.6014 209.546L100.675 148.63C100.704 147.025 98.6013 146.4 97.7482 147.76Z" fill="url(#paint55_radial_5998_126)" fill-opacity="0.7"/>
<path d="M97.7482 147.76L46.5566 229.374C45.4643 231.115 46.6924 233.382 48.7477 233.419L72.222 233.832C73.9722 233.863 75.3661 235.307 75.3353 237.057L74.2623 297.918C74.2341 299.519 76.3268 300.147 77.1848 298.796L130.291 215.14C130.954 214.096 130.218 212.728 128.981 212.706L102.196 212.234C100.737 212.208 99.5757 211.005 99.6014 209.546L100.675 148.63C100.704 147.025 98.6013 146.4 97.7482 147.76Z" fill="url(#paint56_radial_5998_126)"/>
<path d="M97.7482 147.76L46.5566 229.374C45.4643 231.115 46.6924 233.382 48.7477 233.419L72.222 233.832C73.9722 233.863 75.3661 235.307 75.3353 237.057L74.2623 297.918C74.2341 299.519 76.3268 300.147 77.1848 298.796L130.291 215.14C130.954 214.096 130.218 212.728 128.981 212.706L102.196 212.234C100.737 212.208 99.5757 211.005 99.6014 209.546L100.675 148.63C100.704 147.025 98.6013 146.4 97.7482 147.76Z" fill="url(#paint57_radial_5998_126)"/>
<path d="M97.7482 147.76L46.5566 229.374C45.4643 231.115 46.6924 233.382 48.7477 233.419L72.222 233.832C73.9722 233.863 75.3661 235.307 75.3353 237.057L74.2623 297.918C74.2341 299.519 76.3268 300.147 77.1848 298.796L130.291 215.14C130.954 214.096 130.218 212.728 128.981 212.706L102.196 212.234C100.737 212.208 99.5757 211.005 99.6014 209.546L100.675 148.63C100.704 147.025 98.6013 146.4 97.7482 147.76Z" fill="url(#paint58_radial_5998_126)"/>
<path d="M97.7482 147.76L46.5566 229.374C45.4643 231.115 46.6924 233.382 48.7477 233.419L72.222 233.832C73.9722 233.863 75.3661 235.307 75.3353 237.057L74.2623 297.918C74.2341 299.519 76.3268 300.147 77.1848 298.796L130.291 215.14C130.954 214.096 130.218 212.728 128.981 212.706L102.196 212.234C100.737 212.208 99.5757 211.005 99.6014 209.546L100.675 148.63C100.704 147.025 98.6013 146.4 97.7482 147.76Z" fill="url(#paint59_radial_5998_126)"/>
<path d="M97.7482 147.76L46.5566 229.374C45.4643 231.115 46.6924 233.382 48.7477 233.419L72.222 233.832C73.9722 233.863 75.3661 235.307 75.3353 237.057L74.2623 297.918C74.2341 299.519 76.3268 300.147 77.1848 298.796L130.291 215.14C130.954 214.096 130.218 212.728 128.981 212.706L102.196 212.234C100.737 212.208 99.5757 211.005 99.6014 209.546L100.675 148.63C100.704 147.025 98.6013 146.4 97.7482 147.76Z" fill="url(#paint60_radial_5998_126)"/>
<path d="M97.7482 147.76L46.5566 229.374C45.4643 231.115 46.6924 233.382 48.7477 233.419L72.222 233.832C73.9722 233.863 75.3661 235.307 75.3353 237.057L74.2623 297.918C74.2341 299.519 76.3268 300.147 77.1848 298.796L130.291 215.14C130.954 214.096 130.218 212.728 128.981 212.706L102.196 212.234C100.737 212.208 99.5757 211.005 99.6014 209.546L100.675 148.63C100.704 147.025 98.6013 146.4 97.7482 147.76Z" fill="url(#paint61_radial_5998_126)"/>
<path d="M97.7482 147.76L46.5566 229.374C45.4643 231.115 46.6924 233.382 48.7477 233.419L72.222 233.832C73.9722 233.863 75.3661 235.307 75.3353 237.057L74.2623 297.918C74.2341 299.519 76.3268 300.147 77.1848 298.796L130.291 215.14C130.954 214.096 130.218 212.728 128.981 212.706L102.196 212.234C100.737 212.208 99.5757 211.005 99.6014 209.546L100.675 148.63C100.704 147.025 98.6013 146.4 97.7482 147.76Z" fill="url(#paint62_radial_5998_126)"/>
<path d="M97.7482 147.76L46.5566 229.374C45.4643 231.115 46.6924 233.382 48.7477 233.419L72.222 233.832C73.9722 233.863 75.3661 235.307 75.3353 237.057L74.2623 297.918C74.2341 299.519 76.3268 300.147 77.1848 298.796L130.291 215.14C130.954 214.096 130.218 212.728 128.981 212.706L102.196 212.234C100.737 212.208 99.5757 211.005 99.6014 209.546L100.675 148.63C100.704 147.025 98.6013 146.4 97.7482 147.76Z" fill="url(#paint63_radial_5998_126)"/>
<path d="M97.7482 147.76L46.5566 229.374C45.4643 231.115 46.6924 233.382 48.7477 233.419L72.222 233.832C73.9722 233.863 75.3661 235.307 75.3353 237.057L74.2623 297.918C74.2341 299.519 76.3268 300.147 77.1848 298.796L130.291 215.14C130.954 214.096 130.218 212.728 128.981 212.706L102.196 212.234C100.737 212.208 99.5757 211.005 99.6014 209.546L100.675 148.63C100.704 147.025 98.6013 146.4 97.7482 147.76Z" fill="url(#paint64_radial_5998_126)"/>
<path d="M97.7482 147.76L46.5566 229.374C45.4643 231.115 46.6924 233.382 48.7477 233.419L72.222 233.832C73.9722 233.863 75.3661 235.307 75.3353 237.057L74.2623 297.918C74.2341 299.519 76.3268 300.147 77.1848 298.796L130.291 215.14C130.954 214.096 130.218 212.728 128.981 212.706L102.196 212.234C100.737 212.208 99.5757 211.005 99.6014 209.546L100.675 148.63C100.704 147.025 98.6013 146.4 97.7482 147.76Z" fill="url(#paint65_radial_5998_126)"/>
<defs>
<linearGradient id="paint0_linear_5998_126" x1="215.229" y1="324.128" x2="188.102" y2="121.726" gradientUnits="userSpaceOnUse">
<stop stop-color="#CE9270"/>
<stop offset="1" stop-color="#D78C55"/>
</linearGradient>
<radialGradient id="paint1_radial_5998_126" cx="0" cy="0" r="1" gradientUnits="userSpaceOnUse" gradientTransform="translate(173.132 252.062) rotate(-34.0198) scale(64.12 324.542)">
<stop stop-color="#E6A180"/>
<stop offset="0.496561" stop-color="#E6A180" stop-opacity="0.652038"/>
<stop offset="1" stop-color="#E6A180" stop-opacity="0"/>
</radialGradient>
<radialGradient id="paint2_radial_5998_126" cx="0" cy="0" r="1" gradientUnits="userSpaceOnUse" gradientTransform="translate(166.12 266.075) rotate(10.647) scale(48.0734 18.4635)">
<stop stop-color="#F2C48E"/>
<stop offset="0.746586" stop-color="#F2C48E" stop-opacity="0.171201"/>
<stop offset="1" stop-color="#F2C48E" stop-opacity="0"/>
</radialGradient>
<radialGradient id="paint3_radial_5998_126" cx="0" cy="0" r="1" gradientUnits="userSpaceOnUse" gradientTransform="translate(141.089 231.932) rotate(9.8916) scale(68.4509 55.3666)">
<stop stop-color="#F2C48E"/>
<stop offset="1" stop-color="#F2C48E" stop-opacity="0"/>
</radialGradient>
<radialGradient id="paint4_radial_5998_126" cx="0" cy="0" r="1" gradientUnits="userSpaceOnUse" gradientTransform="translate(158.141 249.843) rotate(-19.2082) scale(45.5006 44.1617)">
<stop stop-color="#D07480"/>
<stop offset="0.215225" stop-color="#D07480" stop-opacity="0.855736"/>
<stop offset="0.662403" stop-color="#D07480" stop-opacity="0.219296"/>
<stop offset="0.844671" stop-color="#D07480" stop-opacity="0.161874"/>
<stop offset="1" stop-color="#D07480" stop-opacity="0"/>
</radialGradient>
<radialGradient id="paint5_radial_5998_126" cx="0" cy="0" r="1" gradientUnits="userSpaceOnUse" gradientTransform="translate(159.326 192.034) rotate(-21.6239) scale(34.0946 19.4346)">
<stop stop-color="#F2C48E"/>
<stop offset="1" stop-color="#F2C48E" stop-opacity="0"/>
</radialGradient>
<radialGradient id="paint6_radial_5998_126" cx="0" cy="0" r="1" gradientUnits="userSpaceOnUse" gradientTransform="translate(141.167 233.126) rotate(-1.12147) scale(96.5888 177.104)">
<stop offset="0.685432" stop-color="#C68A61" stop-opacity="0"/>
<stop offset="1" stop-color="#C68A61"/>
</radialGradient>
<radialGradient id="paint7_radial_5998_126" cx="0" cy="0" r="1" gradientUnits="userSpaceOnUse" gradientTransform="translate(189.153 290.267) rotate(-59.4939) scale(22.205 257.76)">
<stop stop-color="#D07480"/>
<stop offset="0.559083" stop-color="#D07480" stop-opacity="0.219296"/>
<stop offset="0.744534" stop-color="#D07480" stop-opacity="0.161874"/>
<stop offset="1" stop-color="#D07480" stop-opacity="0"/>
</radialGradient>
<radialGradient id="paint8_radial_5998_126" cx="0" cy="0" r="1" gradientUnits="userSpaceOnUse" gradientTransform="translate(172.236 270.928) rotate(-43.3625) scale(11.4735 133.186)">
<stop stop-color="#D07480"/>
<stop offset="0.557828" stop-color="#D07480" stop-opacity="0.219296"/>
<stop offset="1" stop-color="#D07480" stop-opacity="0"/>
</radialGradient>
<radialGradient id="paint9_radial_5998_126" cx="0" cy="0" r="1" gradientUnits="userSpaceOnUse" gradientTransform="translate(174.917 258.272) rotate(27.0109) scale(23.6554 5.48213)">
<stop stop-color="#F2C48E"/>
<stop offset="1" stop-color="#F2C48E" stop-opacity="0"/>
</radialGradient>
<radialGradient id="paint10_radial_5998_126" cx="0" cy="0" r="1" gradientUnits="userSpaceOnUse" gradientTransform="translate(171.761 252.536) rotate(-56.849) scale(13.6311 56.9022)">
<stop stop-color="#D07480"/>
<stop offset="0.322015" stop-color="#D07480" stop-opacity="0.259666"/>
<stop offset="0.497134" stop-color="#D07480" stop-opacity="0.04"/>
<stop offset="1" stop-color="#D07480" stop-opacity="0"/>
</radialGradient>
<radialGradient id="paint11_radial_5998_126" cx="0" cy="0" r="1" gradientUnits="userSpaceOnUse" gradientTransform="translate(181.144 258.837) rotate(-51.6377) scale(10.2405 25.1896)">
<stop stop-color="#D07480"/>
<stop offset="0.322015" stop-color="#D07480" stop-opacity="0.259666"/>
<stop offset="0.497134" stop-color="#D07480" stop-opacity="0.04"/>
<stop offset="1" stop-color="#D07480" stop-opacity="0"/>
</radialGradient>
<radialGradient id="paint12_radial_5998_126" cx="0" cy="0" r="1" gradientUnits="userSpaceOnUse" gradientTransform="translate(160.448 242.995) rotate(-23.4247) scale(15.631 70.6802)">
<stop stop-color="#D07480"/>
<stop offset="0.290201" stop-color="#D07480" stop-opacity="0.259666"/>
<stop offset="0.420966" stop-color="#D07480" stop-opacity="0.04"/>
<stop offset="1" stop-color="#D07480" stop-opacity="0"/>
</radialGradient>
<radialGradient id="paint13_radial_5998_126" cx="0" cy="0" r="1" gradientUnits="userSpaceOnUse" gradientTransform="translate(170.576 261.449) rotate(16.5777) scale(26.518 6.14555)">
<stop stop-color="#F2C48E"/>
<stop offset="0.709179" stop-color="#F2C48E" stop-opacity="0.177268"/>
<stop offset="1" stop-color="#F2C48E" stop-opacity="0"/>
</radialGradient>
<radialGradient id="paint14_radial_5998_126" cx="0" cy="0" r="1" gradientUnits="userSpaceOnUse" gradientTransform="translate(156.919 211.914) rotate(5.4809) scale(9.78929 53.7189)">
<stop stop-color="#B07749"/>
<stop offset="0.664814" stop-color="#B07749" stop-opacity="0.287718"/>
<stop offset="0.833333" stop-color="#B07749" stop-opacity="0.107298"/>
<stop offset="1" stop-color="#B07749" stop-opacity="0"/>
</radialGradient>
<radialGradient id="paint15_radial_5998_126" cx="0" cy="0" r="1" gradientUnits="userSpaceOnUse" gradientTransform="translate(156.721 228.648) rotate(-16.2891) scale(7.14563 39.2117)">
<stop stop-color="#B07749"/>
<stop offset="0.533615" stop-color="#B07749" stop-opacity="0.287718"/>
<stop offset="0.833333" stop-color="#B07749" stop-opacity="0.107298"/>
<stop offset="1" stop-color="#B07749" stop-opacity="0"/>
</radialGradient>
<radialGradient id="paint16_radial_5998_126" cx="0" cy="0" r="1" gradientUnits="userSpaceOnUse" gradientTransform="translate(170.539 189.729) rotate(70.7539) scale(16.7703 22.0066)">
<stop stop-color="#F2C48E"/>
<stop offset="0.481511" stop-color="#F2C48E" stop-opacity="0.770711"/>
<stop offset="0.732955" stop-color="#F2C48E" stop-opacity="0.150173"/>
<stop offset="0.907088" stop-color="#F2C48E" stop-opacity="0"/>
</radialGradient>
<linearGradient id="paint17_linear_5998_126" x1="207.035" y1="209.335" x2="183.536" y2="155.686" gradientUnits="userSpaceOnUse">
<stop stop-color="#9F6562"/>
<stop offset="1" stop-color="#BC755B"/>
</linearGradient>
<radialGradient id="paint18_radial_5998_126" cx="0" cy="0" r="1" gradientUnits="userSpaceOnUse" gradientTransform="translate(165.146 184.175) rotate(8.17091) scale(29.2837 11.8936)">
<stop stop-color="#934E4C"/>
<stop offset="1" stop-color="#934E4C" stop-opacity="0"/>
</radialGradient>
<linearGradient id="paint19_linear_5998_126" x1="205.905" y1="220.54" x2="199.232" y2="195.62" gradientUnits="userSpaceOnUse">
<stop stop-color="#9C6361"/>
<stop offset="1" stop-color="#9C6361" stop-opacity="0"/>
</linearGradient>
<radialGradient id="paint20_radial_5998_126" cx="0" cy="0" r="1" gradientUnits="userSpaceOnUse" gradientTransform="translate(68.2291 245.252) rotate(-7.44004) scale(153.794 187.444)">
<stop stop-color="#995E44" stop-opacity="0"/>
<stop offset="0.955438" stop-color="#995E44" stop-opacity="0"/>
<stop offset="0.968729" stop-color="#995E44"/>
<stop offset="0.980177" stop-color="#995E44" stop-opacity="0.360619"/>
<stop offset="0.985975" stop-color="#995E44" stop-opacity="0.207532"/>
<stop offset="0.992365" stop-color="#995E44" stop-opacity="0.0546294"/>
<stop offset="1" stop-color="#995E44" stop-opacity="0"/>
</radialGradient>
<radialGradient id="paint21_radial_5998_126" cx="0" cy="0" r="1" gradientUnits="userSpaceOnUse" gradientTransform="translate(68.2291 245.252) rotate(-7.46589) scale(148.995 186.46)">
<stop stop-color="#995E44" stop-opacity="0"/>
<stop offset="0.955438" stop-color="#995E44" stop-opacity="0"/>
<stop offset="0.968729" stop-color="#995E44"/>
<stop offset="0.980177" stop-color="#995E44" stop-opacity="0.360619"/>
<stop offset="0.985975" stop-color="#995E44" stop-opacity="0.207532"/>
<stop offset="0.992365" stop-color="#995E44" stop-opacity="0.0546294"/>
<stop offset="1" stop-color="#995E44" stop-opacity="0"/>
</radialGradient>
<linearGradient id="paint22_linear_5998_126" x1="189.719" y1="129.06" x2="180.341" y2="162.478" gradientUnits="userSpaceOnUse">
<stop stop-color="#CE8646"/>
<stop offset="0.308437" stop-color="#CE8646"/>
<stop offset="0.54386" stop-color="#CE8646" stop-opacity="0.27"/>
<stop offset="0.715824" stop-color="#CE8646" stop-opacity="0"/>
<stop offset="1" stop-color="#CE8646" stop-opacity="0"/>
</linearGradient>
<radialGradient id="paint23_radial_5998_126" cx="0" cy="0" r="1" gradientUnits="userSpaceOnUse" gradientTransform="translate(150.047 217.388) rotate(-12.0685) scale(91.4474 109.285)">
<stop stop-color="#B07749" stop-opacity="0"/>
<stop offset="0.922379" stop-color="#B07749" stop-opacity="0"/>
<stop offset="0.938682" stop-color="#B07749" stop-opacity="0.085242"/>
<stop offset="0.952942" stop-color="#B07749" stop-opacity="0.303401"/>
<stop offset="0.986331" stop-color="#B07749"/>
</radialGradient>
<radialGradient id="paint24_radial_5998_126" cx="0" cy="0" r="1" gradientUnits="userSpaceOnUse" gradientTransform="translate(167.077 142.588) rotate(-4.30573) scale(4.73832 54.2305)">
<stop stop-color="#B07749"/>
<stop offset="0.534456" stop-color="#B07749" stop-opacity="0.27444"/>
<stop offset="1" stop-color="#B07749" stop-opacity="0"/>
</radialGradient>
<radialGradient id="paint25_radial_5998_126" cx="0" cy="0" r="1" gradientUnits="userSpaceOnUse" gradientTransform="translate(167.587 114.071) rotate(68.1961) scale(15.5145 7.49669)">
<stop stop-color="#EFA86F"/>
<stop offset="1" stop-color="#E39C62" stop-opacity="0"/>
</radialGradient>
<linearGradient id="paint26_linear_5998_126" x1="190.856" y1="175.492" x2="196.811" y2="342.732" gradientUnits="userSpaceOnUse">
<stop offset="0.00558659" stop-color="#D38750"/>
<stop offset="1" stop-color="#EEA374"/>
</linearGradient>
<linearGradient id="paint27_linear_5998_126" x1="153.469" y1="52.3155" x2="213.734" y2="273.306" gradientUnits="userSpaceOnUse">
<stop stop-color="#D77D2C"/>
<stop offset="1" stop-color="#D77D2C" stop-opacity="0"/>
</linearGradient>
<radialGradient id="paint28_radial_5998_126" cx="0" cy="0" r="1" gradientUnits="userSpaceOnUse" gradientTransform="translate(102.309 242.083) rotate(-8.16638) scale(114.028 163.37)">
<stop stop-color="#FAAD7C" stop-opacity="0"/>
<stop offset="0.961329" stop-color="#FAAD7C" stop-opacity="0"/>
<stop offset="0.981307" stop-color="#FAAD7C"/>
<stop offset="0.995115" stop-color="#FAAD7C" stop-opacity="0.12"/>
<stop offset="1" stop-color="#FAAD7C" stop-opacity="0"/>
</radialGradient>
<radialGradient id="paint29_radial_5998_126" cx="0" cy="0" r="1" gradientUnits="userSpaceOnUse" gradientTransform="translate(181.97 142.445) rotate(55.4221) scale(100.418 89.6781)">
<stop stop-color="#D38750"/>
<stop offset="0.723831" stop-color="#D38750" stop-opacity="0.575789"/>
<stop offset="1" stop-color="#D38750" stop-opacity="0"/>
</radialGradient>
<radialGradient id="paint30_radial_5998_126" cx="0" cy="0" r="1" gradientUnits="userSpaceOnUse" gradientTransform="translate(150.33 235.248) rotate(-7.27352) scale(67.2065 131.967)">
<stop stop-color="#AE7145" stop-opacity="0"/>
<stop offset="0.954853" stop-color="#AE7145" stop-opacity="0"/>
<stop offset="0.965823" stop-color="#AE7145" stop-opacity="0.234332"/>
<stop offset="0.987806" stop-color="#AE7145"/>
</radialGradient>
<radialGradient id="paint31_radial_5998_126" cx="0" cy="0" r="1" gradientUnits="userSpaceOnUse" gradientTransform="translate(203.137 329.354) rotate(-79.5171) scale(3.85332 11.2018)">
<stop stop-color="#D07480"/>
<stop offset="1" stop-color="#D07480" stop-opacity="0"/>
</radialGradient>
<radialGradient id="paint32_radial_5998_126" cx="0" cy="0" r="1" gradientUnits="userSpaceOnUse" gradientTransform="translate(140.085 240.24) rotate(-5.82198) scale(73.426 135.573)">
<stop stop-color="#D86443" stop-opacity="0"/>
<stop offset="0.969001" stop-color="#D86443"/>
<stop offset="0.988258" stop-color="#D86443" stop-opacity="0.443584"/>
<stop offset="0.999307" stop-color="#D86443" stop-opacity="0"/>
<stop offset="1" stop-color="#D86443" stop-opacity="0"/>
</radialGradient>
<radialGradient id="paint33_radial_5998_126" cx="0" cy="0" r="1" gradientUnits="userSpaceOnUse" gradientTransform="translate(189.94 172.265) rotate(-20.4808) scale(8.42607 42.3464)">
<stop stop-color="#BB3CCF"/>
<stop offset="1" stop-color="#BB3CCF" stop-opacity="0"/>
</radialGradient>
<radialGradient id="paint34_radial_5998_126" cx="0" cy="0" r="1" gradientUnits="userSpaceOnUse" gradientTransform="translate(182.563 138.158) rotate(59.3892) scale(4.74253 3.52221)">
<stop stop-color="#F3A963"/>
<stop offset="1" stop-color="#F3A963" stop-opacity="0"/>
</radialGradient>
<linearGradient id="paint35_linear_5998_126" x1="108.124" y1="177.162" x2="106.545" y2="266.733" gradientUnits="userSpaceOnUse">
<stop stop-color="#FFBD61"/>
<stop offset="1" stop-color="#EB5C74"/>
</linearGradient>
<linearGradient id="paint36_linear_5998_126" x1="102.619" y1="142.712" x2="102.381" y2="156.177" gradientUnits="userSpaceOnUse">
<stop stop-color="#C76C38" stop-opacity="0.78"/>
<stop offset="0.596593" stop-color="#C76C38" stop-opacity="0.135201"/>
<stop offset="1" stop-color="#C76C38" stop-opacity="0"/>
</linearGradient>
<linearGradient id="paint37_linear_5998_126" x1="88.8411" y1="194.371" x2="87.283" y2="282.748" gradientUnits="userSpaceOnUse">
<stop stop-color="#FFA547"/>
<stop offset="1" stop-color="#F14B49"/>
</linearGradient>
<linearGradient id="paint38_linear_5998_126" x1="89.6789" y1="146.848" x2="88.5692" y2="209.792" gradientUnits="userSpaceOnUse">
<stop stop-color="#DF9844"/>
<stop offset="1" stop-color="#DF9844" stop-opacity="0"/>
</linearGradient>
<radialGradient id="paint39_radial_5998_126" cx="0" cy="0" r="1" gradientUnits="userSpaceOnUse" gradientTransform="translate(100.686 176.791) rotate(91.01) scale(36.7312 8.01408)">
<stop stop-color="#FE9052"/>
<stop offset="1" stop-color="#FE9052" stop-opacity="0"/>
</radialGradient>
<linearGradient id="paint40_linear_5998_126" x1="77.6817" y1="178.938" x2="80.8387" y2="180.944" gradientUnits="userSpaceOnUse">
<stop stop-color="#C76C38"/>
<stop offset="0.729244" stop-color="#C76C38" stop-opacity="0.135201"/>
<stop offset="1" stop-color="#C76C38" stop-opacity="0"/>
</linearGradient>
<radialGradient id="paint41_radial_5998_126" cx="0" cy="0" r="1" gradientUnits="userSpaceOnUse" gradientTransform="translate(101.035 175.615) rotate(91.01) scale(49.1581 19.9641)">
<stop stop-color="#FFB54B"/>
<stop offset="0.452058" stop-color="#FFB54B" stop-opacity="0.767787"/>
<stop offset="0.666597" stop-color="#FFB54B" stop-opacity="0.425441"/>
<stop offset="0.878406" stop-color="#FFB54B" stop-opacity="0.0875269"/>
<stop offset="1" stop-color="#FFB54B" stop-opacity="0"/>
</radialGradient>
<radialGradient id="paint42_radial_5998_126" cx="0" cy="0" r="1" gradientUnits="userSpaceOnUse" gradientTransform="translate(117.301 209.229) rotate(91.01) scale(16.1173 36.4131)">
<stop stop-color="#FFB54B"/>
<stop offset="0.352008" stop-color="#FFB54B" stop-opacity="0.425441"/>
<stop offset="0.745956" stop-color="#FFB54B" stop-opacity="0.10675"/>
<stop offset="1" stop-color="#FFB54B" stop-opacity="0"/>
</radialGradient>
<linearGradient id="paint43_linear_5998_126" x1="105.679" y1="254.261" x2="103.692" y2="252.989" gradientUnits="userSpaceOnUse">
<stop stop-color="#F76E56"/>
<stop offset="0.536961" stop-color="#F76E56" stop-opacity="0.255981"/>
<stop offset="1" stop-color="#F76E56" stop-opacity="0"/>
</linearGradient>
<radialGradient id="paint44_radial_5998_126" cx="0" cy="0" r="1" gradientUnits="userSpaceOnUse" gradientTransform="translate(100.445 210.83) rotate(-178.99) scale(3.2729)">
<stop stop-color="#F76E56"/>
<stop offset="0.536961" stop-color="#F76E56" stop-opacity="0.255981"/>
<stop offset="0.736799" stop-color="#F76E56" stop-opacity="0.109481"/>
<stop offset="1" stop-color="#F76E56" stop-opacity="0"/>
</radialGradient>
<radialGradient id="paint45_radial_5998_126" cx="0" cy="0" r="1" gradientUnits="userSpaceOnUse" gradientTransform="translate(100.107 204.433) rotate(-178.99) scale(3.26591 9.57656)">
<stop stop-color="#F76E56"/>
<stop offset="0.536961" stop-color="#F76E56" stop-opacity="0.255981"/>
<stop offset="0.736799" stop-color="#F76E56" stop-opacity="0.109481"/>
<stop offset="1" stop-color="#F76E56" stop-opacity="0"/>
</radialGradient>
<radialGradient id="paint46_radial_5998_126" cx="0" cy="0" r="1" gradientUnits="userSpaceOnUse" gradientTransform="translate(100.043 208.017) rotate(-178.99) scale(2.42951 3.38539)">
<stop stop-color="#F76E56"/>
<stop offset="0.536961" stop-color="#F76E56" stop-opacity="0.255981"/>
<stop offset="0.736799" stop-color="#F76E56" stop-opacity="0.109481"/>
<stop offset="1" stop-color="#F76E56" stop-opacity="0"/>
</radialGradient>
<radialGradient id="paint47_radial_5998_126" cx="0" cy="0" r="1" gradientUnits="userSpaceOnUse" gradientTransform="translate(100.99 187.508) rotate(-178.99) scale(2.09507 16.0622)">
<stop stop-color="#F76E56"/>
<stop offset="0.536961" stop-color="#F76E56" stop-opacity="0.255981"/>
<stop offset="0.736799" stop-color="#F76E56" stop-opacity="0.109481"/>
<stop offset="1" stop-color="#F76E56" stop-opacity="0"/>
</radialGradient>
<radialGradient id="paint48_radial_5998_126" cx="0" cy="0" r="1" gradientUnits="userSpaceOnUse" gradientTransform="translate(100.694 195.938) rotate(-178.99) scale(3.30554 15.0021)">
<stop stop-color="#F76E56"/>
<stop offset="0.536961" stop-color="#F76E56" stop-opacity="0.255981"/>
<stop offset="0.736799" stop-color="#F76E56" stop-opacity="0.109481"/>
<stop offset="1" stop-color="#F76E56" stop-opacity="0"/>
</radialGradient>
<radialGradient id="paint49_radial_5998_126" cx="0" cy="0" r="1" gradientUnits="userSpaceOnUse" gradientTransform="translate(100.907 174.564) rotate(-178.99) scale(3.27962 39.4866)">
<stop stop-color="#F76E56"/>
<stop offset="0.536961" stop-color="#F76E56" stop-opacity="0.255981"/>
<stop offset="0.736799" stop-color="#F76E56" stop-opacity="0.109481"/>
<stop offset="1" stop-color="#F76E56" stop-opacity="0"/>
</radialGradient>
<radialGradient id="paint50_radial_5998_126" cx="0" cy="0" r="1" gradientUnits="userSpaceOnUse" gradientTransform="translate(103.324 212.104) rotate(91.01) scale(3.68035 6.8086)">
<stop stop-color="#F76E56"/>
<stop offset="0.536961" stop-color="#F76E56" stop-opacity="0.255981"/>
<stop offset="0.736799" stop-color="#F76E56" stop-opacity="0.109481"/>
<stop offset="1" stop-color="#F76E56" stop-opacity="0"/>
</radialGradient>
<radialGradient id="paint51_radial_5998_126" cx="0" cy="0" r="1" gradientUnits="userSpaceOnUse" gradientTransform="translate(106.453 212.188) rotate(91.01) scale(2.72403 5.03942)">
<stop stop-color="#F76E56"/>
<stop offset="0.536961" stop-color="#F76E56" stop-opacity="0.255981"/>
<stop offset="0.736799" stop-color="#F76E56" stop-opacity="0.109481"/>
<stop offset="1" stop-color="#F76E56" stop-opacity="0"/>
</radialGradient>
<radialGradient id="paint52_radial_5998_126" cx="0" cy="0" r="1" gradientUnits="userSpaceOnUse" gradientTransform="translate(113.606 211.904) rotate(91.01) scale(2.83303 5.24107)">
<stop stop-color="#F76E56"/>
<stop offset="0.536961" stop-color="#F76E56" stop-opacity="0.255981"/>
<stop offset="0.736799" stop-color="#F76E56" stop-opacity="0.109481"/>
<stop offset="1" stop-color="#F76E56" stop-opacity="0"/>
</radialGradient>
<radialGradient id="paint53_radial_5998_126" cx="0" cy="0" r="1" gradientUnits="userSpaceOnUse" gradientTransform="translate(110.02 212.344) rotate(91.01) scale(2.86973 5.30896)">
<stop stop-color="#F76E56"/>
<stop offset="0.536961" stop-color="#F76E56" stop-opacity="0.255981"/>
<stop offset="0.736799" stop-color="#F76E56" stop-opacity="0.109481"/>
<stop offset="1" stop-color="#F76E56" stop-opacity="0"/>
</radialGradient>
<radialGradient id="paint54_radial_5998_126" cx="0" cy="0" r="1" gradientUnits="userSpaceOnUse" gradientTransform="translate(119.259 212.463) rotate(91.01) scale(3.56135 17.4676)">
<stop stop-color="#F76E56"/>
<stop offset="0.536961" stop-color="#F76E56" stop-opacity="0.255981"/>
<stop offset="0.736799" stop-color="#F76E56" stop-opacity="0.109481"/>
<stop offset="1" stop-color="#F76E56" stop-opacity="0"/>
</radialGradient>
<radialGradient id="paint55_radial_5998_126" cx="0" cy="0" r="1" gradientUnits="userSpaceOnUse" gradientTransform="translate(128.057 212.51) rotate(91.01) scale(2.87046 14.0789)">
<stop stop-color="#F76E56"/>
<stop offset="0.536961" stop-color="#F76E56" stop-opacity="0.255981"/>
<stop offset="0.736799" stop-color="#F76E56" stop-opacity="0.109481"/>
<stop offset="1" stop-color="#F76E56" stop-opacity="0"/>
</radialGradient>
<radialGradient id="paint56_radial_5998_126" cx="0" cy="0" r="1" gradientUnits="userSpaceOnUse" gradientTransform="translate(49.43 234.292) rotate(-88.99) scale(4.73665 25.499)">
<stop stop-color="#C76C38"/>
<stop offset="0.729244" stop-color="#C76C38" stop-opacity="0.135201"/>
<stop offset="1" stop-color="#C76C38" stop-opacity="0"/>
</radialGradient>
<radialGradient id="paint57_radial_5998_126" cx="0" cy="0" r="1" gradientUnits="userSpaceOnUse" gradientTransform="translate(45.724 232.179) rotate(-34.6837) scale(4.60845 24.8088)">
<stop stop-color="#C76C38"/>
<stop offset="0.729244" stop-color="#C76C38" stop-opacity="0.135201"/>
<stop offset="1" stop-color="#C76C38" stop-opacity="0"/>
</radialGradient>
<radialGradient id="paint58_radial_5998_126" cx="0" cy="0" r="1" gradientUnits="userSpaceOnUse" gradientTransform="translate(66.5347 234.599) rotate(-88.99) scale(4.74908 11.6632)">
<stop stop-color="#C76C38"/>
<stop offset="0.74702" stop-color="#C76C38" stop-opacity="0.135201"/>
<stop offset="1" stop-color="#C76C38" stop-opacity="0"/>
</radialGradient>
<radialGradient id="paint59_radial_5998_126" cx="0" cy="0" r="1" gradientUnits="userSpaceOnUse" gradientTransform="translate(59.3674 234.271) rotate(-88.99) scale(3.96253 9.73152)">
<stop stop-color="#C76C38"/>
<stop offset="0.74702" stop-color="#C76C38" stop-opacity="0.135201"/>
<stop offset="1" stop-color="#C76C38" stop-opacity="0"/>
</radialGradient>
<radialGradient id="paint60_radial_5998_126" cx="0" cy="0" r="1" gradientUnits="userSpaceOnUse" gradientTransform="translate(51.2388 234.311) rotate(-88.99) scale(4.2602 10.4625)">
<stop stop-color="#C76C38"/>
<stop offset="0.74702" stop-color="#C76C38" stop-opacity="0.135201"/>
<stop offset="1" stop-color="#C76C38" stop-opacity="0"/>
</radialGradient>
<radialGradient id="paint61_radial_5998_126" cx="0" cy="0" r="1" gradientUnits="userSpaceOnUse" gradientTransform="translate(72.5253 236.252) rotate(-50.2158) scale(5.54065 5.92711)">
<stop stop-color="#C76C38"/>
<stop offset="0.74702" stop-color="#C76C38" stop-opacity="0.135201"/>
<stop offset="1" stop-color="#C76C38" stop-opacity="0"/>
</radialGradient>
<radialGradient id="paint62_radial_5998_126" cx="0" cy="0" r="1" gradientUnits="userSpaceOnUse" gradientTransform="translate(74.6223 240.042) rotate(1.01002) scale(3.77401 6.81516)">
<stop stop-color="#C76C38"/>
<stop offset="0.74702" stop-color="#C76C38" stop-opacity="0.135201"/>
<stop offset="1" stop-color="#C76C38" stop-opacity="0"/>
</radialGradient>
<radialGradient id="paint63_radial_5998_126" cx="0" cy="0" r="1" gradientUnits="userSpaceOnUse" gradientTransform="translate(74.5299 248.966) rotate(1.01002) scale(4.16799 19.0953)">
<stop stop-color="#C76C38"/>
<stop offset="0.74702" stop-color="#C76C38" stop-opacity="0.135201"/>
<stop offset="1" stop-color="#C76C38" stop-opacity="0"/>
</radialGradient>
<radialGradient id="paint64_radial_5998_126" cx="0" cy="0" r="1" gradientUnits="userSpaceOnUse" gradientTransform="translate(74.1243 264.023) rotate(1.01002) scale(4.08013 26.7319)">
<stop stop-color="#C76C38"/>
<stop offset="0.74702" stop-color="#C76C38" stop-opacity="0.135201"/>
<stop offset="1" stop-color="#C76C38" stop-opacity="0"/>
</radialGradient>
<radialGradient id="paint65_radial_5998_126" cx="0" cy="0" r="1" gradientUnits="userSpaceOnUse" gradientTransform="translate(73.787 283.154) rotate(1.01002) scale(4.50221 29.4973)">
<stop stop-color="#C76C38"/>
<stop offset="0.74702" stop-color="#C76C38" stop-opacity="0.135201"/>
<stop offset="1" stop-color="#C76C38" stop-opacity="0"/>
</radialGradient>
<clipPath id="clip0_5998_126">
<rect width="178.789" height="178.789" fill="white" transform="matrix(-0.814117 -0.580701 -0.580701 0.814117 312.207 202)"/>
</clipPath>
</defs>
</svg>
