<svg id="Layer_1" data-name="Layer 1" xmlns="http://www.w3.org/2000/svg" viewBox="0 0 360 360"><defs><style>.cls-1{fill:none;}.cls-2{fill:#369;}.cls-3{fill:#66cbcc;}</style></defs><title>cnftestbed-icon-color</title><path class="cls-1" d="M118.00811,140.59673a84.327,84.327,0,0,1,10.13267-12.59341,9.14384,9.14384,0,0,0,2.82242-6.83717c-.20194-4.11808-2.04336-7.45579-6.063-9.0259a9.40367,9.40367,0,0,0-10.647,2.09845A88.13507,88.13507,0,0,0,98.55573,134.863C90.739,148.92344,86.739,164.01533,86.76941,181.89147v-.00009a76.56634,76.56634,0,0,0,1.56171,15.78977,92.29855,92.29855,0,0,0,12.33742,31.82037,91.34084,91.34084,0,0,0,13.36424,16.89286c2.72285,2.69185,6.1,3.82506,9.899,2.59412a9.84533,9.84533,0,0,0,4.09522-16.38694,98.771,98.771,0,0,1-7.04988-8.16313,72.64711,72.64711,0,0,1-14.3836-38.265,70.11745,70.11745,0,0,1,.87994-18.56954A75.07385,75.07385,0,0,1,118.00811,140.59673Z"/><path class="cls-1" d="M90.58483,264.43612A107.95711,107.95711,0,0,1,77.735,248.36339a122.23239,122.23239,0,0,1-19.9907-78.78465,138.32,138.32,0,0,1,2.8642-17.86256A121.89617,121.89617,0,0,1,87.79613,99.344c1.79693-2.018,3.73258-3.90335,5.4964-5.94163,6.20427-7.16951,1.085-15.43843-5.14961-16.49186a9.75658,9.75658,0,0,0-9.13029,2.95939A159.24406,159.24406,0,0,0,66.94747,93.74279a142.40756,142.40756,0,0,0-18.68094,32.42682,145.2383,145.2383,0,0,0-8.54872,29.35113,115.78424,115.78424,0,0,0-1.91708,16.762,161.51954,161.51954,0,0,0,.2974,19.86082,152.7898,152.7898,0,0,0,2.77373,18.86792,142.65941,142.65941,0,0,0,38.54869,70.19986,8.8214,8.8214,0,0,0,6.85757,2.7873c4.2187-.16814,7.31584-2.0438,8.97388-6.02658a9.16942,9.16942,0,0,0-1.72766-10.24292C92.555,266.62205,91.61514,265.4842,90.58483,264.43612Z"/><path class="cls-1" d="M90.58483,264.43612A107.95711,107.95711,0,0,1,77.735,248.36339a122.23239,122.23239,0,0,1-19.9907-78.78465,138.32,138.32,0,0,1,2.8642-17.86256A121.89617,121.89617,0,0,1,87.79613,99.344c1.79693-2.018,3.73258-3.90335,5.4964-5.94163,6.20427-7.16951,1.085-15.43843-5.14961-16.49186a9.75658,9.75658,0,0,0-9.13029,2.95939A159.24406,159.24406,0,0,0,66.94747,93.74279a142.40756,142.40756,0,0,0-18.68094,32.42682,145.2383,145.2383,0,0,0-8.54872,29.35113,115.78424,115.78424,0,0,0-1.91708,16.762,161.51954,161.51954,0,0,0,.2974,19.86082,152.7898,152.7898,0,0,0,2.77373,18.86792,142.65941,142.65941,0,0,0,38.54869,70.19986,8.8214,8.8214,0,0,0,6.85757,2.7873c4.2187-.16814,7.31584-2.0438,8.97388-6.02658a9.16942,9.16942,0,0,0-1.72766-10.24292C92.555,266.62205,91.61514,265.4842,90.58483,264.43612Z"/><path class="cls-1" d="M118.00811,140.59673a84.327,84.327,0,0,1,10.13267-12.59341,9.14384,9.14384,0,0,0,2.82242-6.83717c-.20194-4.11808-2.04336-7.45579-6.063-9.0259a9.40367,9.40367,0,0,0-10.647,2.09845A88.13507,88.13507,0,0,0,98.55573,134.863C90.739,148.92344,86.739,164.01533,86.76941,181.89147v-.00009a76.56634,76.56634,0,0,0,1.56171,15.78977,92.29855,92.29855,0,0,0,12.33742,31.82037,91.34084,91.34084,0,0,0,13.36424,16.89286c2.72285,2.69185,6.1,3.82506,9.899,2.59412a9.84533,9.84533,0,0,0,4.09522-16.38694,98.771,98.771,0,0,1-7.04988-8.16313,72.64711,72.64711,0,0,1-14.3836-38.265,70.11745,70.11745,0,0,1,.87994-18.56954A75.07385,75.07385,0,0,1,118.00811,140.59673Z"/><path class="cls-2" d="M339.28271,115.21147Q308.81615,43.88965,235.9169,17.696a149.25451,149.25451,0,0,0-47.76331-9.14027c-5.02047-.09379-15.426.16721-20.42883.59752-22.02407,1.89433-42.44932,6.47934-62.09848,16.22422Q38.18238,58.84843,15.4648,130.57563a178.63956,178.63956,0,0,0-7.21216,39.47592c-.43769,5.85275.32937,22.513.32937,22.513a168.64907,168.64907,0,0,0,30.86065,86.7708A170.84623,170.84623,0,0,0,109.59593,337.301c.88835.40459,1.8183.71776,2.72889,1.07357,1.4032-4.0045,2.7726-8.02117,4.21652-12.01095,3.03006-8.3726,6.10014-16.73076,9.15244-25.09539q7.48916-20.48509,14.94889-40.981,5.2932-14.63388,10.6074-29.26032c4.017-11.056,8.0111-22.12067,12.11526-33.14432a3.3793,3.3793,0,0,0-.50706-3.7648c-5.0764-6.50413-6.29307-13.75832-3.40619-21.46589,2.96316-7.91152,8.82965-12.547,17.15137-14.04678,7.02151-1.26545,13.05256.91944,18.38617,5.37993a15.754,15.754,0,0,1,3.90317,4.988,6.79053,6.79053,0,0,0,2.56452-.745q14.49228-5.24513,28.96528-10.54278c5.738-2.10037,11.45985-4.24515,17.18895-6.36987-1.52476-4.81421-4.28176-8.97748-7.07817-13.09179a74.021,74.021,0,0,0-8.1464-9.772c-4.12885-4.26757-4.21713-10.12172-.354-14.06833a9.70192,9.70192,0,0,1,14.22159.10027,91.45442,91.45442,0,0,1,12.52877,15.65369,82.98257,82.98257,0,0,1,7.43031,14.33718,6.24512,6.24512,0,0,0,2.33393-.65383q11.7957-4.29879,23.58763-8.60826a6.81337,6.81337,0,0,0,2.20765-.98512c-1.32893-2.80307-2.62625-5.62173-3.99241-8.4065a118.2833,118.2833,0,0,0-17.98578-26.74764c-1.74123-1.95317-3.63992-3.75789-5.31942-5.75458-4.01719-4.77567-3.66418-10.807,1.31265-14.6655,3.95011-3.06246,9.17758-2.68493,12.91007,1.09424a144.89393,144.89393,0,0,1,30.14193,44.58867,9.704,9.704,0,0,1,1.03556,3.2468c1.243-.36431,2.50891-.6653,3.72505-1.104,7.2267-2.60726,14.441-5.2484,21.66118-7.87378C340.55262,117.61546,340.40287,117.82407,339.28271,115.21147ZM95.252,277.97208c-1.658,3.98278-4.75518,5.85844-8.97388,6.02658a8.8214,8.8214,0,0,1-6.85757-2.7873A142.65941,142.65941,0,0,1,40.87186,211.0115a152.7898,152.7898,0,0,1-2.77373-18.86792,161.51954,161.51954,0,0,1-.2974-19.86082,115.78424,115.78424,0,0,1,1.91708-16.762,145.2383,145.2383,0,0,1,8.54872-29.35113A142.40756,142.40756,0,0,1,66.94747,93.74279,159.24406,159.24406,0,0,1,79.01263,79.86992a9.75658,9.75658,0,0,1,9.13029-2.95939c6.23457,1.05343,11.35388,9.32235,5.14961,16.49186-1.76382,2.03828-3.69947,3.92366-5.4964,5.94163a121.89617,121.89617,0,0,0-27.18762,52.37216,138.32,138.32,0,0,0-2.8642,17.86256A122.23239,122.23239,0,0,0,77.735,248.36339a107.95711,107.95711,0,0,0,12.84982,16.07273c1.03031,1.04808,1.97016,2.18593,2.93951,3.293A9.16942,9.16942,0,0,1,95.252,277.97208Zm11.34154-91.79868a72.64711,72.64711,0,0,0,14.3836,38.265,98.771,98.771,0,0,0,7.04988,8.16313,9.84533,9.84533,0,0,1-4.09522,16.38694c-3.799,1.23094-7.17617.09773-9.899-2.59412a91.34084,91.34084,0,0,1-13.36424-16.89286,92.29855,92.29855,0,0,1-12.33742-31.82037,76.56634,76.56634,0,0,1-1.56171-15.78977v.00009c-.03039-17.87614,3.96955-32.968,11.78632-47.02848A88.13507,88.13507,0,0,1,114.2532,114.2387a9.40367,9.40367,0,0,1,10.647-2.09845c4.01965,1.57011,5.86107,4.90782,6.063,9.0259a9.14384,9.14384,0,0,1-2.82242,6.83717,84.327,84.327,0,0,0-10.13267,12.59341,75.07385,75.07385,0,0,0-10.53463,27.00713A70.11745,70.11745,0,0,0,106.59354,186.1734Z"/><path class="cls-2" d="M166.03874,351.76764a165.25132,165.25132,0,0,1-37.564-7.31695,54.73243,54.73243,0,0,1,2.59892-7.6349c2.14647-6.07612,4.3513-12.13178,6.55915-18.186.63792-1.74923.73789-1.78,2.47043-1.27529,5.1667,1.50534,10.407,2.65646,15.70119,3.64031a158.10559,158.10559,0,0,0,21.859,2.1737,127.71375,127.71375,0,0,0,17.08637-.82482,131.56331,131.56331,0,0,0,18.05625-2.97532c2.93591-.68119,5.85366-1.44073,8.77963-2.16482q3.61281,9.74228,7.22443,19.48506c.62313,1.68257,1.25959,3.36108,1.84137,5.058,1.04809,3.05708,1.37808,2.64761-1.74273,3.58648a156.031,156.031,0,0,1-15.19378,3.75147,166.9,166.9,0,0,1-18.8904,2.64553c-2.7495.06438-4.94234.3363-8.23108.51074-3.18589.169-9.061.16567-12.28437,0C171.496,352.09626,168.80216,351.80974,166.03874,351.76764Z"/><path class="cls-3" d="M221.58572,317.20351c-2.926.72409-5.84372,1.48363-8.77963,2.16482a131.56331,131.56331,0,0,1-18.05625,2.97532,127.71382,127.71382,0,0,1-17.08638.82482,158.1147,158.1147,0,0,1-21.859-2.1737c-5.29415-.98385-10.53449-2.135-15.70119-3.64031-1.73255-.50472-1.8325-.47391-2.47043,1.27529-2.20785,6.05426-4.41268,12.10992-6.55916,18.186a54.73376,54.73376,0,0,0-2.59892,7.6349,99.94511,99.94511,0,0,1-16.14962-6.07608c1.40293-4.00454,2.77233-8.02125,4.21626-12.011,3.03011-8.37262,6.10021-16.73074,9.15247-25.09538q7.47669-20.48968,14.94887-40.981,5.3223-14.62337,10.60744-29.26033c4.017-11.056,8.01112-22.12069,12.11525-33.14437a3.37939,3.37939,0,0,0-.507-3.76484c-5.07648-6.50408-6.29307-13.75827-3.40626-21.46584,2.96316-7.91152,8.82974-12.547,17.15145-14.04678,7.02144-1.26548,13.0525.91944,18.38611,5.37988a15.75282,15.75282,0,0,1,3.90314,4.988c-4.21622,1.95348-8.661,3.3031-13.0109,4.90177a15.02959,15.02959,0,0,0-8.45374,7.03094,14.59815,14.59815,0,0,0-1.06689,11.61512c.88468,2.88123,2.00581,5.69008,3.03144,8.52764a3.2236,3.2236,0,0,1,.36318,1.64846c-1.07786,3.68023-2.54517,7.2215-3.85261,10.81943-3.7326,10.27163-7.51241,20.52634-11.19315,30.81646-.86853,2.42811-2.05482,4.76682-2.50082,7.36616.32681.129.54342.23963.77316.30153,7.00333,1.88567,14.15218,2.18175,21.3514,1.97682a63.34591,63.34591,0,0,0,13.49935-2.01017c2.36364,6.10935,4.7921,12.19548,6.61934,18.497-.77977.23989-1.54939.51751-2.3393.713a93.96955,93.96955,0,0,1-25.02588,2.48451,86.75372,86.75372,0,0,1-10.22824-.91876,95.29438,95.29438,0,0,1-9.59264-1.91452c-1.80241-.451-2.053-.28038-2.70854,1.4626-.489,1.30024-.95753,2.60814-1.431,3.91419q-3.67529,10.139-7.33968,20.28195c-.64473,1.79714-.60289,1.83737,1.349,2.40564a127.90659,127.90659,0,0,0,33.34515,4.69008c2.95762.06063,5.86149-.4588,8.80568-.476a75.858,75.858,0,0,0,11.16831-1.28959c4.84286-.75144,9.58624-1.96912,14.33235-3.16724,1.69221,3.61934,2.80366,7.45914,4.23027,11.17957C219.9494,312.25854,220.73487,314.74359,221.58572,317.20351Z"/><path class="cls-2" d="M214.78772,298.65c-4.74608,1.19812-9.48948,2.4158-14.33235,3.16724a75.85852,75.85852,0,0,1-11.16831,1.28959c-2.94421.01719-5.84806.53662-8.80568.476a127.9049,127.9049,0,0,1-33.34515-4.69008c-1.95188-.56827-1.99372-.60854-1.349-2.40564q3.64167-10.15106,7.33968-20.28192c.47344-1.306.942-2.614,1.431-3.91419.65551-1.743.90615-1.91361,2.70854-1.4626a95.29438,95.29438,0,0,0,9.59264,1.91452,86.75372,86.75372,0,0,0,10.22824.91876,93.96914,93.96914,0,0,0,25.02588-2.48451c.78993-.19548,1.55953-.4731,2.3393-.713a3.66477,3.66477,0,0,1,.79713,1.4928q4.59589,12.63545,9.18874,25.27195A13.20951,13.20951,0,0,1,214.78772,298.65Z"/><path class="cls-3" d="M352.12061,173.72366c.196,1.32387-.43685,1.8783-1.64257,2.30983-8.16056,2.92044-16.28979,5.92831-24.43317,8.89675q-21.779,7.93886-43.56532,15.85745c-1.83782.66725-3.64653,1.31159-5.71677.68552a7.726,7.726,0,0,1-5.56537-6.48,7.62442,7.62442,0,0,1,4.13868-7.23269c1.62586-.7587,3.33819-1.33815,5.02808-1.953q34.117-12.41344,68.23925-24.81272c.30718-.11167.6111-.23429.92315-.33036.99982-.30783,1.547-.01325,1.62455,1.10976.14066,2.0366.40741,4.06564.50882,6.10342A44.835,44.835,0,0,0,352.12061,173.72366Z"/><path class="cls-3" d="M294.34284,134.22725c-1.3289-2.80312-2.62619-5.62173-3.99241-8.40654a118.28176,118.28176,0,0,0-17.98578-26.74764c-1.74119-1.95314-3.63986-3.75788-5.31939-5.75454-4.01718-4.77567-3.6642-10.807,1.31265-14.6655,3.95015-3.06252,9.17756-2.685,12.91011,1.0942A144.895,144.895,0,0,1,311.41,124.3359a9.70669,9.70669,0,0,1,1.03554,3.24678c-1.44228,1.15514-3.26413,1.41773-4.92776,2.01689C303.139,131.17663,298.852,133.02118,294.34284,134.22725Z"/><path class="cls-3" d="M254.99413,187.63511c-.31968,3.75245-1.18756,7.4178-1.81684,11.11973-1.533,9.01786-3.17041,18.018-4.71709,27.03359-.71147,4.14705-2.71158,6.58754-6.1659,7.37278a10.8035,10.8035,0,0,1-4.36568-.31682q-11.1008-1.951-22.19932-3.91482a7.1997,7.1997,0,0,1-5.87495-4.62694,7.4021,7.4021,0,0,1,7.96354-9.99944c4.83861.76812,9.64888,1.71475,14.47144,2.58376.32162.058.64122.127.96183.19038,1.1889.23522,1.78928-.16991,1.99723-1.45141.77178-4.75616,1.638-9.497,2.46971-14.24343.87406-4.9879,1.76216-9.97339,2.61871-14.96432a7.53749,7.53749,0,0,1,4.0673-5.79311A7.26122,7.26122,0,0,1,254.99413,187.63511Z"/><path class="cls-3" d="M280.05329,250.28422a58.89463,58.89463,0,0,1-1.24948,8.2335c-1.72545,10.0618-3.546,20.10731-5.28172,30.16738-.72714,4.21432-2.76416,6.52355-6.52135,7.32307-1.52337.32421-2.93894-.16829-4.36227-.40535-7.33107-1.221-14.64394-2.55178-21.95929-3.86577-3.89558-.69976-6.82957-4.52737-6.28428-8.141a7.60854,7.60854,0,0,1,8.57931-6.49421q.16414.02271.32721.05255c2.98437.47154,5.95285,1.04455,8.92607,1.58524,2.00855.36528,4.00974.77167,6.0203,1.12521,1.54955.27247,1.7588.11491,2.0576-1.55622q1.9622-10.97436,3.90163-21.95276c.47194-2.65314.88487-5.31938,1.45113-7.95242a6.89032,6.89032,0,0,1,5.76654-5.65292c3.21437-.62118,5.75733.67281,7.64106,3.30937A6.63229,6.63229,0,0,1,280.05329,250.28422Z"/><path class="cls-2" d="M197.83314,251.96712a63.3479,63.3479,0,0,1-13.49935,2.01017c-7.19924.20492-14.34808-.09116-21.3514-1.97683-.22974-.06188-.44635-.17252-.77316-.30153.446-2.59932,1.63229-4.93805,2.50081-7.36614,3.68076-10.29015,7.46057-20.54483,11.19316-30.81646,1.30745-3.59793,2.77475-7.1392,3.85261-10.81943a3.36409,3.36409,0,0,1,.89472,1.69914q8.4081,23.08124,16.79431,46.17048C197.60979,251.02049,197.70527,251.49969,197.83314,251.96712Z"/><path class="cls-3" d="M247.61153,151.31531c-1.52469-4.81416-4.28169-8.97746-7.0781-13.09176a74.02158,74.02158,0,0,0-8.14642-9.7719c-4.12892-4.26763-4.21712-10.12176-.35395-14.06834a9.70187,9.70187,0,0,1,14.22155.10023,91.45292,91.45292,0,0,1,12.52874,15.65372,82.98017,82.98017,0,0,1,7.43032,14.33715c-1.7901,1.14927-3.87428,1.569-5.82831,2.299C256.15252,148.35462,251.87234,149.809,247.61153,151.31531Z"/><path class="cls-3" d="M342.69665,235.47031c.36941.88234-.18593,1.60823-.43691,2.33005-1.63981,4.71513-3.51258,9.33751-5.57185,13.88838A3.47115,3.47115,0,0,1,334.518,253.761c-9.38915,3.37848-18.7394,6.86559-28.13742,10.21874-4.5182,1.612-8.679-.73188-9.86863-5.35378a6.93477,6.93477,0,0,1,3.78725-7.97858,53.06577,53.06577,0,0,1,5.24658-2.06613q17.518-6.39371,35.05135-12.74527C341.24123,235.603,341.89016,235.07651,342.69665,235.47031Z"/><path class="cls-3" d="M86.27808,283.99868a8.82137,8.82137,0,0,1-6.85757-2.7874,142.65986,142.65986,0,0,1-38.54868-70.19981,152.79647,152.79647,0,0,1-2.77368-18.86789,161.52,161.52,0,0,1-.29744-19.86084,115.798,115.798,0,0,1,1.91708-16.762,145.2384,145.2384,0,0,1,8.54873-29.35115A142.40825,142.40825,0,0,1,66.94744,93.74275,159.24469,159.24469,0,0,1,79.01265,79.86992a9.75646,9.75646,0,0,1,9.13023-2.9594c6.23463,1.05346,11.35393,9.32234,5.14962,16.4919-1.76382,2.03824-3.69944,3.92363-5.49641,5.94164A121.89525,121.89525,0,0,0,60.60848,151.7162a138.31678,138.31678,0,0,0-2.86417,17.86252A122.233,122.233,0,0,0,77.735,248.36342a107.96173,107.96173,0,0,0,12.84983,16.07277c1.03037,1.048,1.9702,2.18589,2.93952,3.293A9.16953,9.16953,0,0,1,95.252,277.97216C93.594,281.95489,90.4968,283.83051,86.27808,283.99868Z"/><path class="cls-3" d="M86.76937,181.89144c-.03038-17.87611,3.96962-32.968,11.78639-47.02845a88.13312,88.13312,0,0,1,15.69745-20.62426,9.40358,9.40358,0,0,1,10.64692-2.0985c4.01968,1.57013,5.86114,4.90786,6.063,9.0259a9.14357,9.14357,0,0,1-2.82245,6.8372,84.33,84.33,0,0,0-10.13262,12.59336,75.07374,75.07374,0,0,0-10.53461,27.00714,70.1137,70.1137,0,0,0-.88,18.56954,72.64714,72.64714,0,0,0,14.38362,38.26506,98.78586,98.78586,0,0,0,7.04988,8.16309,9.84537,9.84537,0,0,1-4.09525,16.387c-3.79891,1.2309-7.17612.09779-9.899-2.5941a91.341,91.341,0,0,1-13.36425-16.8929,92.2977,92.2977,0,0,1-12.33742-31.82032A76.57052,76.57052,0,0,1,86.76937,181.89144Z"/></svg>