<svg xmlns="http://www.w3.org/2000/svg" role="img" viewBox="-5.35 -6.35 367.20 460.20"><style>svg {enable-background:new 0 0 357 449}</style><style>.st2{fill:#fff}</style><path fill="none" d="M298.051 228.211l-3.717-2.753-2.622 3.497-1.083 9.082zm6.057 7.159l-3.717-2.753-10.815 14.256-1.11 9.311zM200.173 405.934l-3.304-5.92c-1.239-2.202-4.405-3.992-7.02-3.992h-13.767c-2.616 0-5.92 1.652-7.571 3.717l-5.232 6.608c-1.651 2.065-4.955 3.992-7.571 4.405l-2.797.395.457 13.545c0 .613-.21 1.197-.55 1.682v.942a620.515 620.515 0 0 1 26.706-.559c11.164 0 21.775.281 31.387.784v-.99a2.951 2.951 0 0 1-.689-1.859l.46-13.62-3.626-.458c-2.615-.275-5.644-2.477-6.883-4.68zM53.012 249.411l17.031 22.663-1.105-9.321-12.209-16.095zm98.68 177.929l-.024.029c.257-.012.508-.025.766-.036-.057-.115-.132-.225-.201-.337a2.767 2.767 0 0 1-.54.343zm59.514.217l1.059.058c-.06-.067-.115-.138-.172-.207a2.711 2.711 0 0 1-.647-.336c-.094.16-.17.32-.24.485zM65.802 236.302l-.182-1.538-.632.468zm-6.733 5.951l8.824 11.681-1.074-9.057-4.033-5.377z"/><path fill="#fff" d="M240.921 434.604l-12.252-2.89-12.665-2.066c-1.464-.22-2.798-.993-3.74-2.033l-1.058-.058c-.177.42-.295.847-.295 1.265v-1.28c-9.612-.504-20.223-.785-31.387-.785-9.38 0-18.372.198-26.707.56v1.505c0-.493-.14-1-.383-1.49l-.766.037c-.944 1.164-2.368 2.043-3.944 2.28l-12.665 2.064-12.252 2.891c-2.754.688-5.094-1.101-5.094-3.992v-.24c-10.342 1.586-16.52 3.58-16.52 5.746 0 5.17 35.07 9.361 78.33 9.361s78.33-4.19 78.33-9.36c0-1.82-4.356-3.517-11.87-4.953-.278 2.56-2.49 4.081-5.062 3.438z" opacity=".5"/><path d="M53.012 249.411l3.717-2.753 12.209 16.095-1.045-8.819-8.824-11.681 3.717-2.753 4.033 5.377-1.017-8.575-.814-1.07.632-.468L62 204.222c-15.234-2.829-26.334-15.735-26.334-32.59v-2.17c-15.359 3.05-32.552 14.913-31.8 32.456 1.24 28.496 59.195 93.06 59.195 93.06l6.997-22.776-.015-.128-17.031-22.663zm271.195-93.352v15.573c0 18.039-12.712 31.559-29.6 33.037l-2.895 24.286 2.622-3.497 3.717 2.753-7.422 9.826-1.053 8.836 10.815-14.256 3.717 2.753-15.642 20.814-.562 4.718 6.155 20.034s57.956-64.15 59.195-93.06c.707-16.5-14.461-27.973-29.047-31.817zM152.09 426.776c.449-.73.727-1.533.727-2.359v1.957a2.94 2.94 0 0 0 .55-1.682l-.456-13.545-18.652 2.633.359 10.637h12.968c1.931 0 3.598 1.05 4.504 2.36zm-14.553 1.22c-1.515 0-2.891-1.239-2.891-2.753l-.028-.826h-11.811a5.229 5.229 0 0 0-5.231 5.231h.137v.724c6.913-1.06 15.688-1.938 25.747-2.563l-5.923.187z" class="st2"/><path d="M151.604 427.372l.064-.003.024-.03c-.028.014-.06.02-.088.033z"/><path d="M122.807 434.604l12.252-2.89 12.665-2.066c1.576-.236 3-1.115 3.944-2.28l-.064.004c-.309.131-.64.211-.99.211l-7.154.226c-10.059.625-18.834 1.502-25.747 2.563v.24c0 2.89 2.34 4.68 5.094 3.992z" class="st2"/><path d="M137.537 427.996l5.923-.187c2.631-.163 5.348-.31 8.144-.437.029-.012.06-.02.088-.033a5.52 5.52 0 0 0 .398-.563c-.906-1.309-2.573-2.359-4.504-2.359h-12.968l.028.826c0 1.514 1.376 2.753 2.89 2.753zm72.685-3.304c0 .69.266 1.343.689 1.859v-2.134c0 .826.278 1.63.727 2.36.906-1.31 2.573-2.36 4.504-2.36h12.83l.371-10.99-18.66-2.355-.46 13.62zm15.832 3.304l-13.078-.413c-.31 0-.604-.07-.883-.175.057.07.111.14.172.207 13.93.767 25.651 2.008 33.719 3.55.02-.18.03-.363.03-.553v-.964h.138c0-2.89-2.34-5.23-5.23-5.23h-11.95l-.027.825c0 1.514-1.377 2.753-2.891 2.753z" class="st2"/><path d="M216.004 429.648l12.665 2.065 12.252 2.891c2.573.643 4.784-.878 5.063-3.438-8.068-1.543-19.788-2.784-33.72-3.551.942 1.04 2.276 1.814 3.74 2.033zm-4.366-2.872c.135.22.287.43.455.632.279.105.572.175.883.175l13.078.413c1.514 0 2.89-1.239 2.89-2.753l.028-.826h-12.83c-1.931 0-3.598 1.05-4.504 2.36z" class="st2"/><path fill="#fff" d="M288.466 256.184l1.11-9.31-4.327 5.704-1.652-5.231 7.032-9.31 1.083-9.082-9.767 13.023-1.652-5.232 11.839-15.555-3.717-2.754-9.774 12.94-6.883-21.888s1.476-2.5 3.75-6.372l-76.987-9.459c-10.325-1.239-26.982-1.239-37.169 0L74.14 204.373a3704.318 3704.318 0 0 0 11.223 19.158l-6.883 21.888-9.774-12.94-3.085 2.285.182 1.538 11.025 14.486-1.652 5.231-8.356-11.142 1.074 9.057 5.63 7.454-1.652 5.231-2.933-3.866 1.105 9.321.039.052-.024.076 2.331 19.664c7.253 4.917 38.995 23.762 94.883 20.044 59.326-4.082 111.431-31.218 118.744-35.17l1.888-15.838-.866-2.818 1.428-1.9zm-82.098-23.154l-24.504 52.45c-1.101 2.34-2.891 2.34-4.13 0l-26.844-52.45c-1.24-2.34-.688-5.645 1.101-7.434l23.265-23.265c1.79-1.79 4.818-1.79 6.608 0l23.127 23.127c1.79 1.79 2.478 5.231 1.377 7.572zm80.395-167.26c2.727 0 5.384.3 7.947.856C277.516 28.484 239.353 2.72 192.051 2.72h-27.395c-47.703 0-86.11 26.202-103.09 64.878A37.296 37.296 0 0 1 73.11 65.77h213.653z" opacity=".8"/><path d="M75.175 256.019l1.652-5.231-11.025-14.486 1.017 8.575zm-5.132 16.055l.015.128.024-.076zM62 204.222l3.62 30.542 3.085-2.285 9.774 12.94 6.883-21.888s-5.245-8.88-11.223-19.158l-1.304.16c-3.769.456-7.406.325-10.836-.311zm9.871 62.397l1.652-5.231-5.63-7.454 1.045 8.819zm215.167-8.535l.866 2.818.562-4.718zm-1.789-5.506l4.327-5.705 1.053-8.836-7.032 9.31zm1.789-48.045l-11.53-1.416c-2.274 3.873-3.75 6.372-3.75 6.372l6.883 21.889 9.774-12.94 3.717 2.753-11.84 15.555 1.653 5.232 9.767-13.023 2.894-24.286a36.505 36.505 0 0 1-7.568-.136z" class="st2"/><path d="M62 204.222l-3.18-26.826c-.384-.722-.72-1.37-.99-1.91-3.031-6.278-12.213-8-22.164-6.024v2.17c0 16.855 11.1 29.761 26.333 32.59z"/><radialGradient id="SVGID_1_" cx="-757.042" cy="580.261" r="3.723" gradientTransform="matrix(-38.7287 45.0999 -45.1 -38.7286 -2969.555 56706.715)" gradientUnits="userSpaceOnUse"><stop offset="0" stop-color="#fff"/><stop offset="1" stop-color="#fff"/></radialGradient><path fill="url(#SVGID_1_)" d="M62 204.222l-3.18-26.826c-.384-.722-.72-1.37-.99-1.91-3.031-6.278-12.213-8-22.164-6.024v2.17c0 16.855 11.1 29.761 26.333 32.59z"/><path d="M299.881 160.41l-5.275 44.259c16.889-1.478 29.601-14.998 29.601-33.037V156.06c-10.39-2.738-20.477-1.601-24.326 4.352z"/><radialGradient id="SVGID_2_" cx="-757.042" cy="580.261" r="3.723" gradientTransform="matrix(-38.7287 45.0999 -45.1 -38.7286 -2969.555 56706.715)" gradientUnits="userSpaceOnUse"><stop offset="0" stop-color="#fff"/><stop offset="1" stop-color="#fff"/></radialGradient><path fill="url(#SVGID_2_)" d="M299.881 160.41l-5.275 44.259c16.889-1.478 29.601-14.998 29.601-33.037V156.06c-10.39-2.738-20.477-1.601-24.326 4.352z"/><path d="M149.789 127.305c0-2.478-1.515-3.304-4.268-3.304h-2.89v7.02h2.89c2.89 0 4.268-1.238 4.268-3.716z" class="st2"/><radialGradient id="SVGID_3_" cx="-757.042" cy="580.261" r="3.723" gradientTransform="matrix(-38.7287 45.0999 -45.1 -38.7286 -2969.555 56706.715)" gradientUnits="userSpaceOnUse"><stop offset="0" stop-color="#7f7f7f"/><stop offset="1"/></radialGradient><path fill="url(#SVGID_3_)" d="M149.789 127.305c0-2.478-1.515-3.304-4.268-3.304h-2.89v7.02h2.89c2.89 0 4.268-1.238 4.268-3.716z"/><path d="M171.126 127.167c0-2.34-1.514-3.029-4.267-3.029h-2.616v6.47h2.616c2.753 0 4.267-1.238 4.267-3.441z" class="st2"/><radialGradient id="SVGID_4_" cx="-757.042" cy="580.261" r="3.723" gradientTransform="matrix(-38.7287 45.0999 -45.1 -38.7286 -2969.555 56706.715)" gradientUnits="userSpaceOnUse"><stop offset="0" stop-color="#7f7f7f"/><stop offset="1"/></radialGradient><path fill="url(#SVGID_4_)" d="M171.126 127.167c0-2.34-1.514-3.029-4.267-3.029h-2.616v6.47h2.616c2.753 0 4.267-1.238 4.267-3.441z"/><path d="M62 204.222c3.429.636 7.066.767 10.835.311l1.304-.16c-5.782-9.94-12.243-21.178-15.32-26.977L62 204.222z" class="st2"/><radialGradient id="SVGID_5_" cx="-757.042" cy="580.261" r="3.723" gradientTransform="matrix(-38.7287 45.0999 -45.1 -38.7286 -2969.555 56706.715)" gradientUnits="userSpaceOnUse"><stop offset="0" stop-color="#fff"/><stop offset="1" stop-color="#fff"/></radialGradient><path fill="url(#SVGID_5_)" d="M62 204.222c3.429.636 7.066.767 10.835.311l1.304-.16c-5.782-9.94-12.243-21.178-15.32-26.977L62 204.222z"/><path d="M299.29 161.445c-3.492 6.985-17.097 30.288-23.782 41.672l11.53 1.416a36.45 36.45 0 0 0 7.568.136l5.275-44.258a9.575 9.575 0 0 0-.59 1.034z" class="st2"/><radialGradient id="SVGID_6_" cx="-757.042" cy="580.261" r="3.723" gradientTransform="matrix(-38.7287 45.0999 -45.1 -38.7286 -2969.555 56706.715)" gradientUnits="userSpaceOnUse"><stop offset="0" stop-color="#fff"/><stop offset="1" stop-color="#fff"/></radialGradient><path fill="url(#SVGID_6_)" d="M299.29 161.445c-3.492 6.985-17.097 30.288-23.782 41.672l11.53 1.416a36.45 36.45 0 0 0 7.568.136l5.275-44.258a9.575 9.575 0 0 0-.59 1.034z"/><ellipse cx="60.996" cy="93.44" class="st2" rx="6.608" ry="6.745"/><path d="M229.979 394.599l-.636 18.828 6.072.767c2.615.413 5.644-1.24 6.745-3.58l10.05-20.236 1.376-.55c12.94-5.782 27.67-21.2 32.764-34.416 0 0 3.58-3.717 5.782-24.504 2.202-20.787-5.231-54.652-5.231-54.652s-.307.172-.885.484l-8.063 67.659c-2.93 25.016-23.493 45.799-47.974 50.2zm-74.271 16.153c2.616-.413 5.92-2.34 7.571-4.405l5.232-6.608c1.652-2.065 4.955-3.717 7.571-3.717h13.766c2.616 0 5.782 1.79 7.021 3.992l3.304 5.92c1.239 2.203 4.268 4.405 6.883 4.68l3.626.458.527-15.6H152.38l.53 15.675 2.797-.395zm-77.091-66.353l-6.228-52.533c-1.072-.728-1.619-1.156-1.619-1.156l-2.34 20.374c-1.652 14.042 1.377 36.206 6.608 49.421l1.376 3.442c3.717 9.499 14.73 20.099 24.504 23.678l12.252 4.405c2.478.826 5.37 3.442 6.47 5.782l6.058 12.665c1.1 2.34 3.992 3.992 6.607 3.58l1.954-.277-.62-18.372c-27.348-1.303-51.683-23.627-55.022-51.01z" class="st2"/><path d="M152.381 395.472H136.16c-.843 0-1.683-.024-2.521-.064l.62 18.372 18.652-2.633-.53-15.675zm68.029 0h-9.201l-.527 15.6 18.661 2.355.636-18.828a54.055 54.055 0 0 1-9.57.873zm16.794-75.44c.551-.137.826-.413.964-.688.138-.275 0-.826-.138-1.377-.137-.688-.413-1.1-.688-1.238-.275-.276-.688-.276-1.101-.138l-2.616.688.964 3.442 2.615-.689z" class="st2"/><path d="M72.39 291.866l6.227 52.533c3.34 27.382 27.674 49.706 55.022 51.01l-.095-2.792c0-1.514 1.24-2.89 2.754-2.89l13.078-.414c1.514 0 2.89 1.239 2.89 2.753l.115 3.406h58.828l.115-3.406c0-1.514 1.376-2.753 2.89-2.753l13.079.413c1.514 0 2.753 1.377 2.753 2.891l-.067 1.982c24.48-4.401 45.045-25.184 47.974-50.2l8.063-67.66c-7.313 3.953-59.418 31.089-118.744 35.171-55.888 3.718-87.63-15.127-94.883-20.044zm194.412 12.198l4.543-1.24 4.68 17.484-4.68 1.239-3.442-13.078-2.615 1.239-.826-2.891 2.34-2.753zm-4.956 1.376l1.652 1.514-1.239 17.07-4.956 1.377 1.101-14.592-6.883 1.79-1.101-4.13 11.426-3.029zm-9.912 11.84l.964 3.716-7.434 2.065-.964-3.717 7.434-2.065zm-16.244-4.957c1.652-.413 3.166-.413 4.268.276 1.1.688 2.065 1.927 2.615 3.992.55 1.927.55 3.441.276 4.267-.276.413-.413.689-.551.964-.138.275-.413.413-.826.688l4.818 5.782-5.231 1.377-3.855-5.507h-1.514l1.79 6.47-4.956 1.24-4.68-17.484 7.846-2.065zm-20.512 6.746c.689-.964 1.652-1.79 3.029-2.203.55-.275 1.239-.413 1.79-.55 2.202-.551 4.13-.826 5.781-.689l.964 3.58c-1.514.275-3.442.688-5.782 1.238-.688.138-1.101.413-1.377.551s-.275.55-.137.964l.137.275c.138.413.276.688.551.826s.688.138 1.24 0l2.202-.55c1.927-.551 3.441 0 4.543 1.376.55.688.963 1.514 1.239 2.478l.275.826c.963 3.58-.138 5.782-3.442 6.608-2.34.688-3.854.963-4.543 1.101-.688.138-1.79.138-3.028 0l-.964-3.58a47.114 47.114 0 0 0 6.195-1.376c.55-.138.826-.275.964-.55.137-.276.275-.551.137-.826l-.137-.413c-.138-.413-.276-.551-.413-.689-.276-.137-.55-.137-1.102 0l-2.202.55a4.597 4.597 0 0 1-2.34.139c-.689-.138-1.24-.276-1.652-.689a4.189 4.189 0 0 1-1.102-1.101c-.275-.55-.688-1.24-.826-2.065l-.413-1.514c-.413-1.515-.275-2.754.413-3.717z" class="st2"/><path d="M152.381 395.472l-.115-3.406c0-1.514-1.376-2.753-2.89-2.753l-13.078.413c-1.515 0-2.754 1.377-2.754 2.891l.095 2.791c.838.04 1.678.064 2.521.064h16.221zm77.598-.873l.067-1.982c0-1.514-1.24-2.89-2.753-2.89l-13.078-.414c-1.515 0-2.891 1.239-2.891 2.753l-.115 3.406h9.2c3.237 0 6.434-.31 9.57-.873z" class="st2"/><radialGradient id="SVGID_7_" cx="168.235" cy="131.572" r="10.535" gradientUnits="userSpaceOnUse"><stop offset="0" stop-color="#fff"/><stop offset="1" stop-color="#fff"/></radialGradient><path fill="url(#SVGID_7_)" d="M166.859 124.138h-2.616v6.47h2.616c2.753 0 4.267-1.238 4.267-3.441 0-2.34-1.514-3.029-4.267-3.029z"/><radialGradient id="SVGID_8_" cx="146.209" cy="131.435" r="10.28" gradientUnits="userSpaceOnUse"><stop offset="0" stop-color="#fff"/><stop offset="1" stop-color="#fff"/></radialGradient><path fill="url(#SVGID_8_)" d="M145.521 124h-2.89v7.022h2.89c2.89 0 4.268-1.24 4.268-3.717 0-2.478-1.515-3.304-4.268-3.304z"/><radialGradient id="SVGID_9_" cx="-757.042" cy="580.261" r="3.723" gradientTransform="matrix(-38.7287 45.0999 -45.1 -38.7286 -2969.555 56706.715)" gradientUnits="userSpaceOnUse"><stop offset="0" stop-color="#fff"/><stop offset="1" stop-color="#fff"/></radialGradient><path fill="url(#SVGID_9_)" d="M294.71 66.626c8.226 18.249 11.658 39.328 8.985 61.78l-3.814 32.005c3.849-5.953 13.936-7.09 24.326-4.352v-52.845c0-17.922-12.654-32.933-29.497-36.588z"/><radialGradient id="SVGID_10_" cx="-757.042" cy="580.261" r="3.723" gradientTransform="matrix(-38.7287 45.0999 -45.1 -38.7286 -2969.555 56706.715)" gradientUnits="userSpaceOnUse"><stop offset="0" stop-color="#fff"/><stop offset="1" stop-color="#fff"/></radialGradient><path fill="url(#SVGID_10_)" d="M294.71 66.626a37.434 37.434 0 0 0-7.947-.856H73.11c-4.028 0-7.906.646-11.545 1.828-15.014 4.878-25.899 18.995-25.899 35.616v66.248c9.951-1.976 19.133-.254 22.164 6.025.27.54.606 1.187.99 1.909 3.076 5.799 9.537 17.037 15.319 26.977l87.213-10.715c10.187-1.239 26.844-1.239 37.17 0l76.986 9.459c6.685-11.384 20.29-34.687 23.782-41.672a9.61 9.61 0 0 1 .591-1.034l3.814-32.005c2.673-22.452-.759-43.531-8.985-61.78zM54.388 93.44c0-3.726 2.959-6.746 6.608-6.746 3.65 0 6.608 3.02 6.608 6.746 0 3.725-2.958 6.745-6.608 6.745-3.65 0-6.608-3.02-6.608-6.745zm22.026 30.836h-6.332v18.86H64.85v-18.86h-6.47v-4.405h18.033v4.405zm18.447 18.86H79.994V119.87h14.592v4.405h-9.361v4.68h7.984v4.406h-7.984v5.369h9.636v4.405zm19.135 0H99.542V119.87h5.23v18.86h9.224v4.405zm18.722 0h-14.867V119.87h14.592v4.405h-9.361v4.68h7.984v4.406h-7.984v5.369h9.636v4.405zm13.216-7.985h-3.304v7.847h-5.23v-23.127h8.535c5.094 0 9.086 1.79 9.086 7.434 0 5.506-4.13 7.846-9.086 7.846zm25.605 8.123v-.138l-4.405-8.398h-2.89v8.398h-5.232V119.87h8.397c4.956 0 8.948 1.652 8.948 7.296 0 3.442-1.651 5.644-4.13 6.746l5.232 9.36h-5.92zm24.229-.138h-15.005V119.87h14.73v4.405h-9.361v4.68h7.984v4.406h-7.984v5.369h9.636v4.405zm11.839.688a13.153 13.153 0 0 1-8.673-3.304l2.891-3.854c1.652 1.376 3.717 2.478 5.644 2.478 2.203 0 3.304-.826 3.304-2.203 0-1.514-1.377-1.927-3.304-2.753l-3.028-1.24c-2.478-.963-4.68-3.028-4.68-6.332 0-3.854 3.44-6.883 8.259-6.883 2.615 0 5.506 1.102 7.434 3.029l-2.616 3.304c-1.514-1.24-3.028-1.79-4.818-1.79s-2.891.826-2.891 2.065c0 1.377 1.514 1.927 3.58 2.753l3.028 1.24c2.753 1.1 4.543 3.028 4.543 6.332 0 3.854-3.167 7.158-8.673 7.158zm27.395-.688h-15.005V119.87h14.729v4.405h-9.36v4.68h7.984v4.406h-7.985v5.369h9.637v4.405zm22.714-.138h-5.369l-6.057-11.563-2.34-5.094h-.138c.275 2.616.688 5.644.688 8.397v8.26h-5.093v-23.127h5.506l6.058 11.564 2.34 5.093h.138c-.276-2.478-.689-5.782-.689-8.535v-8.26h4.956v23.265zm15.143.55c-6.057 0-11.013-4.129-11.013-11.976.275-7.571 5.369-12.114 11.288-12.114 2.891 0 5.37 1.377 6.883 3.028l-2.89 3.304c-1.24-1.1-2.34-1.79-3.993-1.79-3.304 0-5.782 2.754-5.782 7.435 0 4.818 2.203 7.571 5.645 7.571 1.927 0 3.304-.826 4.405-2.065l2.89 3.166c-1.926 2.203-4.542 3.442-7.433 3.442zm25.88-.412h-15.005V119.87h14.73v4.405h-9.36v4.68h7.984v4.406h-7.985v5.369h9.637v4.405z"/></svg>