<svg xmlns="http://www.w3.org/2000/svg" role="img" viewBox="-5.73 -4.73 440.70 440.70"><g fill="#FFF"><path d="M283.771 427.745s10.036-48.474 51.991-106.657c29.162-16.848 58.406-37.493 83.177-62.259 22.902-113.568-11.864-235.416-11.864-235.416s-121.848-34.76-235.411-11.859c-24.777 24.782-45.411 54.026-62.259 83.177C51.206 136.677 2.743 146.712 2.743 146.712s38.763 26.615 57.466 56.815C52.245 226.501 48.5 241.304 48.5 241.304c3.032 14.178 12.003 30.716 24.384 47.404-8.548 6.776-18.568 13.827-29.456 19.72a124.205 124.205 0 0 1-3.962 2.076c9.343 30.82 50.612 69.635 80.672 80.094a132.338 132.338 0 0 1 1.89-3.574c6.064-11.182 13.341-21.455 20.283-30.158 16.843 12.22 33.304 21.326 46.867 25.107 0 0 14.818-3.739 37.787-11.704 30.191 18.708 56.806 57.476 56.806 57.476zm-85.656-102.649c-17.287-7.489-40.246-25.928-55.896-41.589-21.161-21.161-32.627-39.187-37.028-50.405 7.432-25.334 35.985-112.85 90.821-171.685 66.133-11.229 135.411.842 165.564 7.489 6.642 30.143 18.728 99.437 7.489 165.564-58.472 54.549-144.722 82.915-170.95 90.626z"/><circle cx="256.102" cy="174.392" r="45.292"/></g></svg>