<svg xmlns="http://www.w3.org/2000/svg" role="img" viewBox="-14.29 -10.79 847.08 462.58"><defs><filter id="a" width="1" height="1" x="0" y="0" color-interpolation-filters="sRGB"><feColorMatrix result="color1" type="hueRotate" values="180"/><feColorMatrix result="color2" values="-1 0 0 0 1 0 -1 0 0 1 0 0 -1 0 1 -0.21 -0.72 -0.07 2 0"/></filter></defs><path fill="#000" d="M240.72123 434.69828c-2.62833-.71968-5.86548-2.3294-7.19366-3.57717-7.59615-7.13621-7.22093-19.39376.80095-26.16557 3.26993-2.76037 11.14636-4.83643 21.02681-5.54221l8.85533-.63256-.57157-3.59278c-.72136-4.53437-4.65767-8.09406-8.94485-8.08904-3.92892.005-9.72407 3.39434-10.43216 6.10205-.47417 1.81323-1.06269 1.9412-6.14324 1.33581-3.09036-.36825-6.04159-1.06351-6.55828-1.54502-1.79973-1.67717 2.71327-10.14251 7.02127-13.17029 8.64174-6.07364 24.73375-6.02592 32.37176.096 5.81122 4.65773 6.84203 9.44189 7.22031 33.51044l.3261 20.74927-6.5-.291c-6.19804-.27748-6.51423-.41385-6.80624-2.93553l-.30625-2.64452-5.04424 3.39452c-2.77434 1.86699-6.23653 3.40067-7.69376 3.40818-1.45723.008-3.54951.21262-4.64951.45579-1.1.24317-4.15045-.1467-6.77877-.86637zm15.56089-11.96505c4.87994-2.06546 7.03464-5.05583 7.13234-9.89849.0837-4.14654.009-4.24535-3.41446-4.50503-5.78843-.43908-13.06147 1.93692-15.34651 5.01349-2.50277 3.36973-1.46433 7.52946 2.36312 9.46601 3.20225 1.62023 5.29857 1.60304 9.26551-.076zM19.88507 433.71559c-17.76799-6.34958-23.72432-31.75636-11.2691-48.06845 6.91752-9.05962 20.39111-12.93046 31.43963-9.03231 6.3768 2.24986 10.42055 5.78815 13.3628 11.69245l2.62514 5.26799-4.77177 1.68247c-6.74727 2.379-8.01745 2.22995-9.76302-1.1456-3.5374-6.84059-14.41803-8.04047-19.66459-2.16855-6.87779 7.69758-6.03105 21.92646 1.66507 27.98022 5.01073 3.94145 13.28937 2.48745 18.20256-3.19696 2.17624-2.51783 2.28878-2.53562 7-1.10613 2.63352.79906 5.12571 1.45771 5.53821 1.46367 1.45626.021.72168 3.09512-1.62029 6.78069-3.09377 4.86866-5.20708 6.68534-10.6477 9.15318-5.25614 2.38417-16.3932 2.73563-22.09694.69733zM77 433.01667c-21.22395-9.59613-22.83056-41.85774-2.70416-54.30094 3.76398-2.32709 6.20122-3.01354 11.96547-3.37005 10.0339-.6206 17.02601 2.05076 23.12591 8.83531 5.96474 6.63424 7.9911 12.87108 7.40372 22.78759-.75184 12.69283-5.96489 20.93867-16.29094 25.76845-6.61319 3.09318-17.00378 3.21682-23.5.27964zm19.47321-13.31195c5.5325-3.62503 7.35908-16.19306 3.50924-24.14577-5.29628-10.94065-20.28853-9.39861-23.83906 2.45199-2.0773 6.9334-.9302 15.66972 2.63152 20.04181 3.84296 4.71732 11.87568 5.4671 17.6983 1.65197zM200.5 433.68357c-7.79886-3.46623-9.48687-8.68228-9.49442-29.33836l-.006-15.25h-8v-13h8v-15l5-.17857c2.75-.0982 5.9447-.21072 7.09932-.25 1.95382-.0665 2.10284.46573 2.15003 7.67857l.0507 7.75H219.99958v13h-14.99586l.24793 14.39615c.22018 12.78475.47162 14.64319 2.24634 16.60323 1.7 1.87751 2.78259 2.14205 7.25 1.77158l5.25159-.43551v6.20728c0 6.15214-.0277 6.21282-3.125 6.83227-5.12435 1.02487-13.16865.63843-16.375-.78664zm192.9532.0856c-12.69642-4.8919-19.53229-16.83687-18.17863-31.76528 1.36695-15.07495 11.30177-25.54305 25.30891-26.6674 16.60248-1.33269 27.85131 9.40153 28.5656 27.25876l.24 6-19.69454.27114c-14.7934.20366-19.68259.57695-19.64651 1.5.11168 2.85732 3.69574 8.32153 6.84985 10.4432 5.60826 3.77251 11.49817 2.93436 17.28547-2.45976l2.68335-2.50105 5.56665 2.30725c3.06166 1.26899 5.56665 2.60692 5.56665 2.9732 0 .36627-1.30879 2.47267-2.90842 4.6809-4.46551 6.16445-11.63713 9.30372-21.03792 9.20904-4.15451-.0418-8.92472-.60434-10.60046-1.25zM415 397.74309c0-.74366-1.02895-2.88116-2.28656-4.75-5.59758-8.31815-17.92473-6.40705-21.62208 3.35212l-1.04186 2.75h12.47525c9.81603 0 12.47525-.28822 12.47525-1.35212zm217.5 35.77953c-7.0634-3.67361-10.11573-9.27229-9.24873-16.9643 1.27739-11.33298 11.76326-17.43508 29.99873-17.45732 4.73119-.006 4.75-.0192 4.75-3.39501 0-4.49711-2.65907-7.53697-7.23348-8.26936-4.89444-.78362-9.37285 1.14794-10.95647 4.72558-1.23728 2.7952-1.3897 2.84235-7.28688 2.254-3.31274-.33051-6.18969-.74196-6.39321-.91433-.20352-.17238-.0503-2.01782.34052-4.10098 1.61729-8.62093 13.52083-15.06183 25.98671-14.06119 7.88938.63328 13.81647 3.70126 17.29169 8.9505 2.60403 3.93331 2.76505 4.85456 3.01162 17.23025.14327 7.19111.36827 17.46269.5 22.82573l.2395 9.75097-6.75-.00097-6.75-.00098V426.70288l-3.25 3.13483c-1.7875 1.72416-4.51679 3.61243-6.0651 4.19617-4.21738 1.59001-14.712 1.29496-18.1849-.51126zm21.21482-12.04638c2.92181-1.82187 4.12381-4.22622 4.48667-8.97464l.29851-3.90639-6.17726.16857c-7.49797.2046-13.10738 2.62519-13.96049 6.02426-1.836 7.31519 7.69098 11.46553 15.35257 6.6882zm40.91882 12.58838c-4.73837-1.41949-10.1405-5.74725-12.57015-10.07023-2.49733-4.4434-2.2358-5.06711 2.83573-6.7627 5.3053-1.77375 6.99063-1.39568 10.53601 2.36352 2.90149 3.07648 3.89499 3.5 8.21034 3.5 5.80196 0 9.35443-2.10148 9.35443-5.53365 0-3.18129-2.92885-4.97172-11.27132-6.89025-12.43551-2.85981-17.78722-7.12415-19.35516-15.42256-1.98517-10.50663 8.43745-20.16489 21.7425-20.14796 6.43844.008 11.48369 1.70406 15.4624 5.19742 3.92337 3.44476 6.82039 8.31532 6.08534 10.23085-.7003 1.82495-12.02598 3.97948-12.55627 2.38863-.22162-.66486-1.44101-2.24691-2.70976-3.51566-4.1758-4.1758-14.39773-2.22347-14.39773 2.74988 0 3.37312 3.31648 5.45522 11.53309 7.24053 14.26992 3.10057 19.69525 8.00865 19.6198 17.74924-.0608 7.8498-4.79168 13.93232-13.05211 16.7812-3.8786 1.33766-15.1999 1.42009-19.46714.14174zM124 405.09521v-29h15V383.48754l3.25-3.13483c10.52947-10.15634 27.69937-5.38123 31.77727 8.83757.535 1.86545.97273 12.7322.97273 24.14833v20.7566h-14v-18.03212c0-19.40589-.75276-23.28044-5.11687-26.33719-3.23446-2.2655-8.09856-2.03567-11.36945.53721C139.69739 394.0516 139 397.37814 139 416.56309v17.53212h-15zm165 0v-29h15v58h-15zm27 0v-29h7c7.12955 0 7.4641.20162 7.0523 4.25-.22471 2.20905 1.28573 2.254 3.07526.0915 2.26814-2.74085 9.06754-5.2962 14.15456-5.31956 8.46171-.0389 13.90731 3.56631 17.35815 11.49169 1.41942 3.25991 1.81264 7.94989 2.1578 25.73635l.42209 21.75h-15.10359l-.30828-20.08407-.30829-20.08407-3.26578-2.91593c-3.66555-3.27288-6.90033-3.65707-11.36266-1.34951C331.8001 392.28418 331 395.88182 331 416.06309v18.03212h-15zm122 0v-29h14l.004 4.75.004 4.75 1.98712-3.25914c2.721-4.46279 7.60275-7.23259 12.7554-7.23712l4.24948-.004v15l-3.75.002c-5.16159.002-10.29342 2.82589-12.69702 6.98643-1.74869 3.02691-2.06587 5.70374-2.39941 20.25l-.38436 16.76157H438zm38 23.28612v-5.71388l16.95452-17.05515c10.40132-10.46305 17.55187-18.48481 18.5-20.754 1.77826-4.25597 2.01044-10.02578.51584-12.81848-2.72187-5.08586-12.92896-6.60461-17.56827-2.61405-2.20074 1.89299-2.79823 3.40127-3.18236 8.0333l-.47291 5.70274-7.62341-.2833-7.62341-.2833.24155-4.5c.42306-7.88167 1.23136-10.66252 4.35096-14.96901 4.52642-6.24854 12.08248-9.45068 22.40749-9.49593 12.60612-.0553 20.01391 3.97721 24.23203 13.19079 2.02599 4.42535 2.41659 6.59913 2.09456 11.65664-.66269 10.40721-4.24446 16.22984-18.6805 30.36751l-12.50852 12.25H530v13h-54zm74.74607 3.96388c-.26795-.9625-4.14544-13.78025-8.61663-28.48388C537.65825 389.15769 534 376.87626 534 376.56926c0-.307 3.47557-.42675 7.72348-.26611l7.72348.29206 1.72559 6c.94907 3.3 3.16301 11.53799 4.91986 18.30665 1.75686 6.76866 3.51957 11.94366 3.91714 11.5.60779-.67825 3.98415-12.74418 8.97027-32.05665l1.09727-4.25 7.21145.0124 7.21146.0124 4.89291 17.73762c2.69111 9.7557 5.20537 18.33833 5.58726 19.07252.38278.7359 2.80934-6.66796 5.40776-16.5 2.59238-9.80919 4.90149-18.39739 5.13136-19.08489.28574-.85461 2.83711-1.25 8.06596-1.25 6.79724 0 7.59543.19467 7.17529 1.75-.26.9625-4.22401 14.0293-8.80891 29.03734l-8.33618 27.28733-8.05773-.28733-8.05772-.28739-4.96958-16.75C578.09751 401.90405 576 397.01606 576 401.62687c0 .84242-1.39092 6.12992-3.09093 11.75-1.70001 5.62009-3.78772 12.58084-4.63935 15.46834l-1.54841 5.25h-7.74403c-6.52299 0-7.82083-.27593-8.23121-1.75zM735 405.09521v-29h14l.036 3.75.036 3.75 2.21403-2.69855c6.36173-7.75391 21.1201-7.58153 26.95817.31488l2.07682 2.80906 3.5168-3.08779c4.63203-4.06705 9.07912-5.8376 14.66218-5.8376 8.5343 0 14.15843 3.94612 16.9662 11.9042 1.19497 3.3869 1.5338 9.06903 1.5338 25.72153v21.37427H802.18959l.1149-19.48066c.10741-18.21196-.0194-19.66101-1.94694-22.25-4.28935-5.76119-10.95282-5.47755-15.07661.64174-2.17423 3.22634-2.28094 4.26663-2.28094 22.2368v18.85212h-14l-.11831-17.75c-.0651-9.7625-.40258-18.95924-.75-20.43721-2.29102-9.74602-13.84212-10.53676-17.73732-1.21422C749.37681 397.12914 749 402.90391 749 416.06309v18.03212h-14zm-445.33333-37.66667c-.36667-.36666-.66667-3.51666-.66667-7v-6.33333h15v12.72142l-5.25.6306c-6.70728.80564-8.26221.80244-9.08333-.0187zM655 333.4095c-.825-.34835-10.13265-5.72311-20.68366-11.94393-10.55101-6.22081-28.55101-16.77003-40-23.4427C582.86735 291.3502 562.925 279.71007 550 272.15592c-12.925-7.55415-25.64084-14.95407-28.25741-16.44427-8.90667-5.07252-8.20622 1.81961-8.5227-83.85941-.26707-72.29954-.19283-76.02868 1.59341-80.04474 2.06906-4.65189.68998-3.74853 49.1867-32.21955 41.13657-24.15008 57.16024-33.59596 70.70659-41.68119C653.1136 6.92041 658.28523 4.6504 661.97632 5.93711c1.60352.559 21.95234 12.12853 45.21959 25.71007 86.03128 50.21811 94.80417 55.5475 96.34566 58.52842C804.7829 92.57608 805 104.60584 805 170.9898v77.99389l-2.25 2.55648c-1.86628 2.12049-66.90394 40.78736-124.15534 73.81413-13.6249 7.85983-19.39333 9.82917-23.59466 8.05521zm-10.13446-84.65228c1.32904-1.60139 3.69534-9.21145 17.66545-56.81244 5.8674-19.99226 14.63175-49.62457 19.47633-65.84957 6.69422-22.41963 8.53043-29.78384 7.6505-30.68259-1.45726-1.48843-14.26376-6.3174-16.75383-6.3174-1.02183 0-2.4808 1.0125-3.24214 2.25-.76135 1.2375-4.79895 13.94999-8.97245 28.24999-36.03081 123.4553-35.84203 122.77627-34.50136 124.10164 1.43126 1.41494 13.31631 6.10083 15.93952 6.28444.89515.0627 2.12725-.48818 2.73798-1.22407zM717.5 213.73825c4.4-3.35977 17.7875-13.89519 29.75-23.41206 26.3316-20.94833 26.24903-20.76565 13.75-30.41977-2.475-1.91166-15.075-11.80367-28-21.98224-28.53224-22.46943-27.48602-21.77152-29.54715-19.71039-2.466 2.466-2.43509 20.13858.04 22.87352.99815 1.10295 9.38387 7.74343 18.63494 14.75663 9.25106 7.0132 16.83184 12.99252 16.84616 13.28738.0143.29486-7.62623 6.72668-16.97903 14.29293-9.35279 7.56625-17.71689 14.84319-18.58689 16.17098-2.33277 3.56025-2.20706 19.44255.16763 21.17896 2.16496 1.58306 3.55978.87825 13.92434-7.03594zm-100.7 6.15696c1.8826-1.8826 1.58142-17.81043-.38999-20.62502-.8745-1.24852-9.41873-8.52972-18.98718-16.18045l-17.39718-13.91041 16.07226-12.22033c23.88754-18.16258 22.02851-15.76744 21.6878-27.94204-.36633-13.08993-1.39464-14.09141-8.59175-8.3676-2.72883 2.17022-15.02631 11.82085-27.32773 21.44585C558.0716 160.71283 550 167.86753 550 170.34157c0 .84264.7875 2.41972 1.75 3.50463 1.49484 1.68494 31.04492 24.88837 53.55977 42.05642 6.93667 5.28935 9.35363 6.12919 11.49023 3.99259zM180 315.72642c-10.175-3.52533-37.4-13.16817-60.5-21.42853-23.1-8.26035-54.71624-19.55057-70.2583-25.08936-15.54206-5.5388-29.57724-10.75259-31.18929-11.58622-6.43283-3.32654-6.0524 2.24243-6.0524-88.60172v-82.6296l2.28003-3.38337c2.14344-3.18063 4.46524-4.16657 38.75-16.4549 89.18138-31.96435 144.5983-51.47968 146.15463-51.46903 2.60119.0178 26.06151 8.53853 98.31533 35.7079 15.4 5.79082 35.14824 13.19478 43.88499 16.45325 20.88165 7.78806 22.25523 8.5579 21.05838 11.80236-1.21555 3.29518-11.84698 17.01298-12.44071 16.05232-.77009-1.24602-6.13129-3.35047-51.00266-20.02023-18.975-7.04923-45.47626-16.90442-58.89169-21.90043-13.41543-4.996-24.77793-9.08364-25.25-9.08364-.47313 0-.85831 55.64703-.85831 123.99999 0 93.44995.28598 124 1.16078 124 .63842 0 20.10092-7.02553 43.25-15.6123 50.84927-18.86169 84.44909-31.06344 87.97786-31.94911L349 243.87839v10.15387c0 9.19863-.21167 10.36488-2.25 12.39699-2.15979 2.15319-11.26994 5.72404-66.75 26.16361-12.925 4.76173-35.425 13.09658-50 18.52187-14.575 5.4253-27.625 10.12455-29 10.44278-1.66026.38426-8.71404-1.57437-21-5.83109zm9.69245-272.2721c-.31293-.31291-24.60383 7.93743-34.19245 11.61338-2.75 1.05426-10.4 3.77616-17 6.04867-6.6 2.2725-16.275 5.65693-21.5 7.52094-5.225 1.864-23.9 8.40359-41.5 14.5324-17.6 6.12882-33.9125 11.8116-36.25 12.6284L35 97.28322v143.67722l2.25.66684c2.81883.83543 29.04187 9.87585 37.75 13.01436 3.575 1.28847 20.9 7.36999 38.5 13.51449 17.6 6.1445 38.975 13.6345 47.5 16.64444 8.525 3.00995 18.425 6.48679 22 7.72633l6.5 2.25369.25388-125.50548c.13963-69.02801.11198-125.64735-.0614-125.82077zm-38.02315 212.5954c-1.43022-1.12501-3.0634-3.71251-3.62928-5.75-1.44815-5.21416-1.42302-160.06346.0266-163.8894 2.30674-6.08817 8.47653-9.54705 13.93774-7.81373 5.00306 1.58791 4.99565 1.45625 4.99565 88.81728 0 55.45313-.34245 82.36526-1.07482 84.46613-2.08383 5.97766-9.28118 8.08282-14.25588 4.16972zm-43.20742-11.23364c-1.69816-1.4607-2.9594-3.88462-3.51221-6.75-1.22139-6.33075-1.19313-132.63519.0306-136.90219 1.51545-5.28393 5.69541-9.06868 10.01569-9.06868 5.51515 0 7.25991 1.85623 8.1027 8.62043.90172 7.23708 1.12753 128.85168.25278 136.13447-.80666 6.71582-3.82018 10.2451-8.74793 10.2451-2.19283 0-4.47776-.84793-6.14163-2.27913zm-42.7119-11.80098C61.05731 230.28188 61 229.55301 61 172.61275c0-57.54619.0664-58.34936 5.11687-61.88685 2.38696-1.67189 6.46371-2.1126 9.33833-1.00951C79.89181 111.41888 80 112.89191 80 171.59521s-.10819 60.17633-4.5448 61.87882c-2.4473.93912-7.73414.68912-9.70522-.45893zM365 239.65192v-18.44329l28.25-25.71508c44.89055-40.86246 51.00539-47.25937 56.53062-59.13832 7.52899-16.18692-.72851-32.98515-17.83919-36.29025-7.48032-1.4449-13.84652-.37813-20.12176 3.37173-6.1634 3.68303-11.34938 11.33955-12.39261 18.29631l-.65415 4.36219h-35.0491l.67345-6.57323c3.29866-32.19687 29.5621-55.476 62.5127-55.4094 47.3586.0957 76.13396 42.64244 57.15264 84.50484-3.36591 7.42335-11.44585 18.76064-19.51001 27.37527-5.72558 6.11641-37.58614 35.61563-44.80259 41.48206-2.6125 2.12376-4.75 4.24033-4.75 4.70349 0 .46316 17.10009.74646 38.00019.62954l38.00019-.21257-.00019 17.75-.00019 17.75H365zm-117.88993 6.04778c-5.16547-2.863-5.03665-.85927-5.07463-78.93141L242 93.94136l2.92308-2.92306c3.87937-3.87938 7.97296-3.88118 12.31114-.005L260.5 93.93096l.26923 72.59481c.23847 64.30233.0902 72.94098-1.2979 75.62529-2.38495 4.61198-7.69358 6.13615-12.36126 3.54905zM293.5 233.14985c-1.1-.45022-2.9-1.81868-4-3.04103-1.94295-2.15905-2.00863-3.85244-2.30257-59.36802-.20743-39.17651.0405-58.32292.7884-60.88977 1.14354-3.92462 4.94226-6.75582 9.06451-6.75582 1.18231 0 3.67966 1.53 5.54966 3.4l3.4 3.4v58.66574c0 40.11169-.34172 59.30426-1.08049 60.68466-.59427 1.1104-2.60482 2.65582-4.46788 3.43426-3.8084 1.59125-4.15487 1.61467-6.95163.46998z" filter="url(#a)"/></svg>