<?xml version="1.0" encoding="UTF-8" standalone="no"?>
<svg
   role="img"
   viewBox="6.00 7.88 77.87 74.12"
   version="1.1"
   id="svg1"
   sodipodi:docname="podman-icon-white.svg"
   inkscape:export-filename="podman-icon-white.png"
   inkscape:export-xdpi="300"
   inkscape:export-ydpi="300"
   inkscape:version="1.4 (e7c3feb1, 2024-10-09)"
   xmlns:inkscape="http://www.inkscape.org/namespaces/inkscape"
   xmlns:sodipodi="http://sodipodi.sourceforge.net/DTD/sodipodi-0.dtd"
   xmlns="http://www.w3.org/2000/svg"
   xmlns:svg="http://www.w3.org/2000/svg">
  <defs
     id="defs1" />
  <sodipodi:namedview
     id="namedview1"
     pagecolor="#ffffff"
     bordercolor="#000000"
     borderopacity="0.25"
     inkscape:showpageshadow="2"
     inkscape:pageopacity="0.0"
     inkscape:pagecheckerboard="0"
     inkscape:deskcolor="#d1d1d1"
     inkscape:zoom="0.64759846"
     inkscape:cx="39.376251"
     inkscape:cy="36.287918"
     inkscape:window-width="1472"
     inkscape:window-height="792"
     inkscape:window-x="0"
     inkscape:window-y="38"
     inkscape:window-maximized="0"
     inkscape:current-layer="svg1" />
  <g
     id="layer1"
     transform="translate(-62.242 -106.993)">
    <g
       id="g3147"
       fill="#fff"
       fill-opacity="1"
       stroke-dasharray="none"
       stroke-width="0"
       transform="translate(646.148 327.639) scale(1.1372)">
      <g
         id="g3"
         stroke="none"
         stroke-linejoin="round"
         stroke-opacity="1">
        <path
           id="path10348"
           d="m -444.23828,-151.29297 c -2.72945,0.6409 -4.70817,0.8266 -7.61133,0.83594 l 0.004,1.37305 c 2.96152,-0.01 5.10406,-0.21141 7.92187,-0.87305 z" />
        <path
           id="path10198"
           d="m -487.69922,-131.5957 -0.32617,1.33593 c 10.40394,2.52901 16.81548,3.50544 29.26953,3.25196 l -0.0293,-1.37305 c -12.37363,0.25184 -18.5561,-0.69701 -28.91406,-3.21484 z" />
        <path
           id="path10200"
           d="m -455.97656,-125.00391 c -5.5237,0.60858 -10.05472,0.71908 -14.91016,0.0156 l -0.19726,1.35937 c 4.99643,0.72388 9.6707,0.6058 15.25781,-0.01 z" />
        <path
           id="path10340"
           d="m -505.17773,-135.13281 -0.34961,1.33008 c 4.83177,1.27453 8.47455,1.65738 13.56445,1.67578 l 0.004,-1.37305 c -5.02434,-0.0182 -8.48423,-0.38393 -13.21875,-1.63281 z" />
      </g>
      <g
         id="g9866"
         transform="matrix(1.61304 0 0 1.6122 -2404.495 261.954)">
        <path
           id="path34"
           stroke-linejoin="round"
           d="m 1196.4004,-277.71472 c -6.5447,0 -11.8594,5.31344 -11.8594,11.85733 0,2.8087 0.032,5.51327 -0.4181,7.53133 -0.2248,1.00903 -0.5672,1.83923 -1.0623,2.43923 -0.495,0.60001 -1.1345,0.98783 -2.0585,1.13675 a 0.42597908,0.42597908 0 0 0 -0.306,0.56287 l 0.1533,-0.19843 c 0.2358,-0.30641 0.5973,-0.49754 0.9832,-0.51975 0.3737,-0.0215 0.7421,0.11629 1.0099,0.37798 l 0.2034,0.19871 -0.3972,0.40701 -0.2023,-0.19872 c -0.1492,-0.14586 -0.3728,-0.22985 -0.5811,-0.21788 -0.2147,0.0123 -0.4343,0.12858 -0.5654,0.29906 l -0.1733,0.22408 -0.3888,-0.29906 a 0.42597908,0.42597908 0 0 0 0.069,0.12008 c 0.2283,0.17984 0.504,0.27995 0.8632,0.38079 0.3593,0.10083 0.7979,0.18917 1.3108,0.26946 1.0257,0.16059 2.3477,0.28696 3.8691,0.38671 0.4759,0.0312 1.0008,0.0549 1.5122,0.0806 0.2921,-0.25204 0.6653,-0.41072 1.077,-0.42505 0.031,-10e-4 0.061,-10e-4 0.092,-8.5e-4 0.4701,0.008 0.8985,0.20686 1.2133,0.52314 2.1526,0.0693 4.4534,0.1037 6.7502,0.0958 0.3855,-0.001 0.7624,-0.008 1.1455,-0.0115 l -0.1578,-0.10965 0.1623,-0.23394 c 0.087,-0.12552 0.1912,-0.23749 0.3068,-0.33485 -3.3961,0.0359 -6.9226,0.001 -9.9857,-0.13304 a 8.2351559,7.2429689 0 0 1 0.4059,-0.74524 c -0.099,-0.0445 -0.2068,-0.0695 -0.3121,-0.0696 -0.2076,-3.1e-4 -0.4248,0.0941 -0.5665,0.24578 l -0.1939,0.20717 -0.4141,-0.38756 0.1938,-0.20717 c 0.2534,-0.27116 0.6108,-0.42587 0.9818,-0.42533 0.2127,3.1e-4 0.4206,0.0519 0.6068,0.14657 a 8.2351559,7.2429689 0 0 1 6.9939,-3.45364 8.2351559,7.2429689 0 0 1 7.7064,4.70031 c -1.012,0.0399 -2.0971,0.0676 -3.1944,0.091 0.037,0.0297 0.074,0.0602 0.1084,0.093 l 0.2071,0.19392 -0.3634,0.38615 c 2.4407,-0.0513 4.7375,-0.14174 6.5978,-0.27482 0.3498,-0.025 0.6364,-0.0556 0.9547,-0.0834 l 0.088,-0.0958 c 0.3327,-0.36098 0.8096,-0.56688 1.3004,-0.56316 0.3854,0.003 0.7598,0.1359 1.0609,0.36896 0.3859,-0.0691 0.7009,-0.14213 0.9477,-0.23395 0.1293,-0.0481 0.2431,-0.0972 0.3536,-0.18152 0.1106,-0.0844 0.2499,-0.2426 0.2499,-0.46873 a 0.42597908,0.42597908 0 0 0 -0.3829,-0.42195 c -0.9039,-0.0939 -1.5268,-0.41144 -2.0154,-0.93155 -0.4886,-0.52011 -0.8407,-1.26913 -1.0899,-2.23459 -0.4985,-1.93093 -0.5656,-4.68784 -0.6874,-7.90621 -0.2518,-6.64548 -5.557,-11.95683 -12.1017,-11.95683 z m -5.9972,6.38303 c 0.5412,-0.0133 1.0767,0.18958 1.4717,0.56203 l 0.2051,0.19533 -0.3885,0.41208 -0.207,-0.19505 c -0.3004,-0.28313 -0.7351,-0.4347 -1.1466,-0.4025 -0.4359,0.0341 -0.8636,0.27796 -1.1134,0.63673 l -0.162,0.23451 -0.4668,-0.32443 0.164,-0.23422 c 0.3512,-0.50445 0.9223,-0.83085 1.5351,-0.87885 0.036,-0.003 0.072,-0.005 0.1084,-0.006 z m 12.1983,0.0465 c 0.6147,0.005 1.2078,0.29096 1.5937,0.76949 l 0.1797,0.22267 -0.4434,0.35542 -0.1777,-0.22069 c -0.2744,-0.34036 -0.719,-0.55537 -1.1562,-0.55837 -0.4128,-0.003 -0.8356,0.17874 -1.1153,0.48226 l -0.1913,0.20914 -0.4181,-0.38502 0.1916,-0.20886 c 0.3924,-0.42587 0.9578,-0.67004 1.537,-0.66604 z m 0.2448,1.93329 c 1.2179,0.0215 2.2142,1.03448 2.2583,2.28787 0.046,1.29382 -0.9391,2.40382 -2.2101,2.44852 -1.271,0.0447 -2.3313,-0.9932 -2.3768,-2.28702 -0.046,-1.29382 0.9393,-2.40382 2.2103,-2.44852 0.04,-0.001 0.079,-0.002 0.1183,-8.5e-4 z m -12.347,0.002 c 1.2714,-0.0323 2.3217,1.01593 2.3546,2.31014 0.033,1.2942 -0.9629,2.39425 -2.2343,2.42654 -1.2713,0.0323 -2.3214,-1.01593 -2.3543,-2.31014 -0.033,-1.2942 0.9627,-2.39425 2.234,-2.42654 z m 6.2482,1.46314 c 2.2278,0.0279 4.1089,1.61272 4.1868,3.67829 0.014,0.37582 -0.034,0.7392 -0.1326,1.08404 1.6355,0.21498 2.9477,0.86782 3.9783,1.62746 l -0.3391,0.4569 c -0.9991,-0.73633 -2.258,-1.35351 -3.8477,-1.5353 -0.058,0.12042 -0.1218,0.23756 -0.1924,0.3512 1.7049,0.53719 2.8284,1.65257 3.7076,2.70869 l -0.4363,0.36247 c -0.888,-1.06647 -1.9561,-2.12051 -3.6283,-2.58636 -0.087,0.10017 -0.1789,0.19617 -0.276,0.28807 1.6075,0.85912 2.383,2.32533 2.9461,3.66588 l -0.5242,0.21901 c -0.5755,-1.36965 -1.3142,-2.74101 -2.9051,-3.49283 -0.6876,0.47939 -1.5408,0.77556 -2.4656,0.80585 -1.0098,0.0331 -1.9594,-0.25495 -2.7168,-0.76639 -1.5849,0.8428 -2.2479,2.27531 -2.7456,3.69492 l -0.5384,-0.18687 c 0.4895,-1.39604 1.1923,-2.93521 2.8028,-3.88687 -0.09,-0.0826 -0.1768,-0.16888 -0.2586,-0.25874 -1.6338,0.56744 -2.6333,1.68139 -3.453,2.7969 l -0.4575,-0.33541 c 0.8151,-1.10926 1.8712,-2.2925 3.5454,-2.93108 -0.072,-0.10966 -0.1384,-0.22297 -0.1984,-0.33964 -1.5869,0.27489 -2.8136,0.96993 -3.771,1.76924 l -0.3662,-0.43575 c 0.991,-0.82746 2.2756,-1.56247 3.9144,-1.87156 -0.094,-0.29401 -0.1504,-0.60346 -0.1625,-0.92479 -0.081,-2.1322 1.7961,-3.87934 4.1172,-3.95535 0.073,-0.002 0.1448,-0.003 0.2167,-0.002 z m -0.01,0.85122 c 0.1106,0.001 0.2197,0.008 0.3273,0.0178 -0.1075,-0.0102 -0.2168,-0.0165 -0.3273,-0.0178 z m -0.1783,0.002 c -0.1153,0.004 -0.2285,0.0127 -0.3401,0.0259 0.1116,-0.0132 0.2249,-0.0222 0.3401,-0.0259 z m -0.3674,0.0293 c -0.1066,0.0134 -0.2116,0.0311 -0.3144,0.0527 0.1029,-0.0216 0.2077,-0.0393 0.3144,-0.0527 z m 1.5353,0.10851 c 0.095,0.0265 0.1884,0.057 0.2798,0.0905 -0.091,-0.0334 -0.1845,-0.064 -0.2798,-0.0905 z m 0.3066,0.10006 c 0.089,0.0334 0.1757,0.0703 0.2605,0.10993 -0.085,-0.0397 -0.1715,-0.0765 -0.2605,-0.10993 z m 0.2893,0.1229 c 0.083,0.0399 0.1643,0.0832 0.2431,0.12881 -0.079,-0.0457 -0.1597,-0.0889 -0.2431,-0.12881 z m -3.3984,0.0609 c -0.09,0.0471 -0.177,0.0976 -0.2611,0.15136 0.084,-0.0537 0.1713,-0.10434 0.2611,-0.15136 z m 3.9274,0.25311 c 0.072,0.0521 0.1419,0.1067 0.2088,0.16376 -0.067,-0.0571 -0.1366,-0.11164 -0.2088,-0.16376 z m 0.2319,0.18377 c 0.068,0.0588 0.1326,0.11994 0.1944,0.18349 -0.062,-0.0636 -0.1267,-0.12466 -0.1944,-0.18349 z m 0.2121,0.2021 c 0.061,0.0641 0.1195,0.13045 0.1744,0.19899 -0.055,-0.0686 -0.1131,-0.13484 -0.1744,-0.19899 z m 0.1919,0.22126 c 0.054,0.069 0.1055,0.13986 0.1529,0.2128 -0.047,-0.073 -0.099,-0.14381 -0.1529,-0.2128 z m 0.1668,0.23479 c 0.047,0.074 0.091,0.1498 0.1309,0.22746 -0.04,-0.0777 -0.084,-0.15345 -0.1309,-0.22746 z m 0.1408,0.24747 c 0.039,0.0777 0.075,0.15689 0.1065,0.23789 -0.032,-0.081 -0.067,-0.16018 -0.1065,-0.23789 z m 0.1169,0.26636 c 0.03,0.0808 0.057,0.16299 0.08,0.24663 -0.022,-0.0836 -0.049,-0.16583 -0.08,-0.24663 z m -11.9969,0.11077 a 1.2784375,1.2185711 88.005466 0 1 1.2627,1.23484 1.2784375,1.2185711 88.005466 0 1 -1.1728,1.32052 1.2784375,1.2185711 88.005466 0 1 -1.2629,-1.23484 1.2784375,1.2185711 88.005466 0 1 1.173,-1.32052 z m 17.6941,0 a 1.2784375,1.2185711 88.005466 0 1 1.2626,1.23484 1.2784375,1.2185711 88.005466 0 1 -1.1728,1.32052 1.2784375,1.2185711 88.005466 0 1 -1.2629,-1.23484 1.2784375,1.2185711 88.005466 0 1 1.1731,-1.32052 z m -5.6127,0.15474 c 0.023,0.0871 0.041,0.17551 0.055,0.26524 -0.014,-0.0898 -0.032,-0.1781 -0.055,-0.26524 z m 0.076,0.85799 c -0.01,0.0979 -0.021,0.1946 -0.039,0.29004 0.018,-0.0954 0.032,-0.19219 0.039,-0.29004 z m -6.7818,0.23225 c 0.014,0.0909 0.034,0.18072 0.057,0.2689 -0.024,-0.0883 -0.043,-0.17789 -0.057,-0.2689 z m 6.6694,0.34726 c -0.029,0.0921 -0.063,0.18278 -0.1014,0.27143 0.039,-0.0887 0.072,-0.17927 0.1014,-0.27143 z m -4.197,2.09648 c 0.1049,0.0246 0.2117,0.0451 0.3206,0.0609 -0.1088,-0.0158 -0.2158,-0.0363 -0.3206,-0.0609 z m 1.7106,0.0158 c -0.1099,0.0234 -0.222,0.0424 -0.3361,0.0564 0.1141,-0.014 0.2262,-0.033 0.3361,-0.0564 z m 2.5706,7.96878 c -0.02,4.5e-4 -0.041,0.002 -0.061,0.003 -0.3426,0.0268 -0.6817,0.22052 -0.8782,0.50256 l -0.01,0.0144 c 0.6665,-0.007 1.3205,-0.017 1.9697,-0.0304 l -0.1774,-0.16798 c -0.2215,-0.20873 -0.5382,-0.32832 -0.8435,-0.32161 z" />
        <path
           id="path10202"
           stroke-linejoin="round"
           d="m -501.67574,-149.15447 -0.97654,0.96701 c 0.84433,0.85168 2.28942,1.29131 4.24972,1.69543 1.96029,0.40413 4.43045,0.69836 7.20525,0.91565 1.03093,0.0807 2.11395,0.14726 3.21682,0.20722 0.50194,-0.61537 1.24741,-1.02165 2.09351,-1.05107 0.0494,-0.002 0.0988,-0.002 0.14769,-0.001 0.93773,0.0165 1.77186,0.50199 2.28481,1.23557 3.55436,0.10975 7.22851,0.15103 10.7279,0.13723 6.14015,-0.0242 12.48301,0.0866 18.08403,-0.10724 1.25519,-0.0434 2.46505,-0.10387 3.63489,-0.18177 l -0.14451,-0.17768 c -0.34809,-0.43134 -0.91443,-0.70716 -1.46868,-0.71116 -0.52345,-0.004 -1.06336,0.23048 -1.41824,0.61528 l -0.31036,0.33582 -0.67391,-0.61892 0.31037,-0.33809 c 0.10442,-0.11322 0.21807,-0.2167 0.33854,-0.31037 -0.10636,0.004 -0.20796,0.01 -0.31491,0.0136 -3.75771,0.13004 -7.89281,0.12434 -12.0748,0.11315 l 0.3131,0.2931 -0.62892,0.66799 -0.33218,-0.31446 c -0.38102,-0.35894 -0.93682,-0.55429 -1.45868,-0.51349 -0.55259,0.0432 -1.09948,0.35552 -1.41642,0.81023 l -0.26129,0.37717 -0.75206,-0.52349 0.26174,-0.37717 c 0.10756,-0.15432 0.23055,-0.29556 0.36535,-0.42397 -0.68852,-10e-6 -1.37346,-0.005 -2.05897,-0.002 -6.13947,0.0242 -12.87504,-0.0937 -18.35712,-0.52304 -2.08402,-0.16319 -3.98352,-0.37285 -5.59616,-0.63255 l -0.15405,0.15769 -0.2313,-0.22721 c -0.36079,-0.0619 -0.72634,-0.12335 -1.05379,-0.19086 -0.17064,-0.0352 -0.31066,-0.0772 -0.47169,-0.11496 -0.16372,0.0843 -0.31019,0.20223 -0.41897,0.34354 l -0.27947,0.36126 -0.72616,-0.55848 0.27901,-0.36126 c 0.0192,-0.025 0.0393,-0.0491 0.0595,-0.0732 -1.01392,-0.31293 -1.735,-0.65305 -1.99308,-0.91338 z m 60.22858,0.74843 c -2.2751,0.91106 -5.68162,1.42201 -9.69365,1.69543 0.26463,0.16465 0.50307,0.37288 0.70162,0.61892 l 0.28901,0.35717 -0.46259,0.37263 c 3.88472,-0.27643 7.2269,-0.78852 9.67547,-1.76905 z"
           transform="matrix(.61995 0 0 .62027 1490.664 -162.482)" />
        <path
           id="path36"
           stroke-dashoffset="6"
           stroke-linecap="square"
           d="m 1205.977,-227.7245 c -0.059,-0.003 -0.1184,-0.004 -0.1783,-0.004 -1.9154,0 -3.4121,1.35397 -3.4121,2.96694 0,1.61298 1.4968,2.9668 3.4122,2.9668 1.9154,0 3.4101,-1.35375 3.4101,-2.96673 0,-1.56257 -1.4029,-2.88193 -3.2319,-2.96287 z m -0.1078,0.71235 c 0.2097,0.006 0.379,0.076 0.5205,0.12846 0.1416,0.0526 0.2548,0.089 0.3427,0.0913 0.1564,0.004 0.305,0.0957 0.3852,0.1985 0.08,0.10284 0.1156,0.20815 0.1428,0.30761 0.055,0.19889 0.079,0.39816 0.1035,0.46851 0.056,0.15993 -0.01,0.28421 -0.059,0.3656 -0.051,0.0813 -0.1124,0.14547 -0.1819,0.21095 -0.1384,0.13086 -0.3119,0.25982 -0.4874,0.38061 -0.2039,0.14034 -0.4012,0.26232 -0.5381,0.34482 l 0.011,0.66209 c 0.061,0.0523 0.1988,0.18274 0.4354,0.27038 0.1414,0.0524 0.2825,0.0733 0.4064,0.0455 0.1043,-0.0234 0.2114,-0.11465 0.3229,-0.24893 -0.01,-0.0566 -0.01,-0.0772 -0.016,-0.16665 -0.017,-0.16352 -0.043,-0.36071 -0.055,-0.41756 l 0.5557,-0.12199 c 0.027,0.12731 0.047,0.30961 0.065,0.47882 0.018,0.16921 0.03,0.31436 0.03,0.31436 l 0.01,0.10155 -0.057,0.0833 c -0.2015,0.29453 -0.4657,0.47083 -0.732,0.53056 -0.2663,0.0597 -0.5183,0.0111 -0.7283,-0.0667 -0.266,-0.0985 -0.4815,-0.25039 -0.6042,-0.34867 -0.1286,0.0911 -0.3533,0.2303 -0.6254,0.31347 -0.2149,0.0657 -0.4695,0.0999 -0.7313,0.0251 -0.2618,-0.0748 -0.5138,-0.26565 -0.6952,-0.5711 l -0.051,-0.0866 0.016,-0.10075 c 0,0 0.022,-0.1441 0.051,-0.31197 0.029,-0.16788 0.06,-0.34889 0.096,-0.47439 l 0.5478,0.15362 c -0.016,0.056 -0.055,0.25137 -0.083,0.4136 -0.015,0.0887 -0.018,0.10929 -0.027,0.16552 0.1023,0.14037 0.2032,0.23741 0.3057,0.26669 0.1218,0.0348 0.2627,0.022 0.4073,-0.0222 0.2421,-0.074 0.3898,-0.19651 0.454,-0.24519 l 0.056,-0.66438 c -0.1311,-0.0903 -0.3162,-0.22113 -0.5061,-0.36944 -0.1672,-0.13056 -0.3322,-0.26913 -0.4616,-0.40775 -0.065,-0.0693 -0.1217,-0.13624 -0.1675,-0.2207 -0.042,-0.0843 -0.099,-0.21429 -0.031,-0.37023 v 0.002 c 0.029,-0.0694 0.067,-0.26734 0.1347,-0.46268 0.034,-0.0977 0.077,-0.2016 0.1635,-0.29955 0.087,-0.0979 0.2411,-0.17896 0.3975,-0.17483 0.089,0.002 0.2058,-0.0284 0.3506,-0.0726 0.1448,-0.0442 0.3183,-0.10365 0.5274,-0.0978 z"
           transform="matrix(.99946 -.03273 .03772 .99929 0 0)" />
        <ellipse
           id="ellipse9784"
           cx="1206.915"
           cy="-76.183"
           stroke-linecap="square"
           rx=".919"
           ry=".968"
           transform="rotate(-2.014 -4237.884 -70.733) skewX(-.001)" />
        <ellipse
           id="ellipse9810"
           cx="-1192.73"
           cy="-88.092"
           stroke-linecap="square"
           rx=".919"
           ry=".968"
           transform="matrix(-.99968 .02539 .02538 .99968 -.132 -149.168)" />
      </g>
      <g
         id="g2">
        <path
           id="path10111"
           stroke-linejoin="round"
           d="m -481.09747,-133.66426 -0.25039,1.35189 4.3715,0.8125 a 0.68694367,0.68694367 0 0 0 0.002,0 c 10.99504,2.01768 21.97944,2.06008 32.41773,0.0154 a 0.68694367,0.68694367 0 0 0 0.0568,-0.0154 l 2.87692,-0.8284 -0.3808,-1.32009 -2.83966,0.81841 c -2.70061,0.5282 -5.44062,0.90958 -8.20861,1.15422 0.0574,0.12466 0.11306,0.24917 0.16586,0.37217 l -0.85476,0.35081 c -0.0925,-0.21547 -0.18933,-0.42967 -0.29128,-0.64164 -1.15649,0.0883 -2.3174,0.15447 -3.48266,0.19495 -0.81773,0.4516 -1.7616,0.72404 -2.76741,0.75842 -1.15769,0.0396 -2.25494,-0.24222 -3.19001,-0.76024 -1.04362,-0.0365 -2.08963,-0.0932 -3.13731,-0.16677 -0.12475,0.28889 -0.23727,0.583 -0.34308,0.87839 l -0.87476,-0.29765 c 0.0772,-0.21552 0.16051,-0.43523 0.25039,-0.65618 -3.03968,-0.24641 -6.09294,-0.64517 -9.14926,-1.20602 z" />
        <path
           id="path23"
           stroke-linejoin="round"
           d="m -461.07036,-154.08218 c -9.05336,-2e-5 -16.43948,7.05429 -16.43948,16.80666 0,1.74289 1.6e-4,3.45606 -0.0291,5.08812 a 0.68694367,0.68694367 0 0 0 0.56257,0.68753 c 10.99504,2.01772 21.97869,2.06018 32.31049,0.0309 a 0.68694367,0.68694367 0 0 0 0.55439,-0.70707 c -0.0723,-1.5422 -0.12224,-3.19841 -0.18358,-4.95089 -0.34698,-9.90538 -7.72212,-16.95524 -16.7753,-16.95525 z m -7.72329,6.87717 c 0.73933,-0.0181 1.46829,0.2604 2.00853,0.76933 l 0.334,0.31264 -0.62892,0.66799 -0.33218,-0.31446 c -0.38102,-0.35894 -0.93682,-0.55429 -1.45868,-0.51349 -0.55259,0.0432 -1.09948,0.35552 -1.41642,0.81023 l -0.26129,0.37717 -0.75206,-0.52349 0.26174,-0.37717 c 0.48054,-0.68943 1.25978,-1.13553 2.09759,-1.20103 0.0493,-0.004 0.0984,-0.007 0.14769,-0.008 z m 16.17819,0.0645 c 0.84034,0.007 1.64845,0.39482 2.17621,1.0488 l 0.28901,0.35717 -0.71298,0.57439 -0.28901,-0.35536 c -0.34809,-0.43134 -0.91443,-0.70716 -1.46868,-0.71116 -0.52345,-0.004 -1.06336,0.23048 -1.41824,0.61528 l -0.31037,0.33582 -0.6739,-0.61892 0.31037,-0.33809 c 0.53673,-0.58197 1.30592,-0.91393 2.09759,-0.90793 z m -16.05095,2.57883 c 1.75418,-0.0445 3.20253,1.40325 3.24772,3.18229 0.0452,1.77903 -1.32768,3.29635 -3.08186,3.34088 -1.75419,0.0445 -3.20298,-1.40144 -3.24818,-3.18047 -0.0452,-1.77904 1.32813,-3.29817 3.08232,-3.3427 z m 16.37813,0 c 1.68019,0.0296 3.05445,1.42709 3.11504,3.15002 0.0626,1.77852 -1.29548,3.30923 -3.04914,3.37088 -1.75366,0.0616 -3.21654,-1.37015 -3.27909,-3.14867 -0.0625,-1.77851 1.29595,-3.30923 3.0496,-3.37087 0.0548,-0.002 0.1094,-0.002 0.16359,-0.001 z m -8.09,3.01824 c 2.82187,0.0368 5.22598,1.9704 5.67295,4.57008 1.62352,0.27407 2.94446,0.93533 3.99389,1.69226 l -0.5503,0.72661 c -0.90909,-0.65571 -2.01424,-1.2202 -3.37179,-1.4864 -10e-4,0.0944 8.4e-4,0.18949 -0.005,0.28265 1.42125,0.63958 2.42865,1.64529 3.23364,2.59155 l -0.7148,0.57756 c -0.71829,-0.84435 -1.5553,-1.64959 -2.68379,-2.19802 -0.0378,0.14105 -0.0824,0.27929 -0.13179,0.41579 0.99754,0.89215 1.59932,2.01921 2.04943,3.06778 l -0.85476,0.35081 c -0.39762,-0.92629 -0.86009,-1.8388 -1.58546,-2.57655 -0.96129,1.66294 -2.81612,2.81513 -4.95589,2.88828 -2.21078,0.0756 -4.20313,-1.01668 -5.25762,-2.70151 -0.67229,0.77656 -1.07485,1.70954 -1.41278,2.65289 l -0.87476,-0.29765 c 0.38759,-1.08195 0.90599,-2.2642 1.85039,-3.22455 -0.0498,-0.1274 -0.0907,-0.25844 -0.13041,-0.39034 -1.03565,0.62097 -1.77634,1.47063 -2.42387,2.33298 l -0.74934,-0.53439 c 0.73007,-0.97226 1.65069,-2.01338 2.98508,-2.73469 -0.0106,-0.1005 -0.0226,-0.20044 -0.0273,-0.30265 -1.29819,0.35054 -2.33869,0.96789 -3.18683,1.6609 l -0.59393,-0.69298 c 0.98992,-0.80887 2.25014,-1.54053 3.82938,-1.91401 0.36751,-2.61535 2.72588,-4.65503 5.59798,-4.75322 0.0998,-0.003 0.19924,-0.004 0.2981,-0.003 z m -1.12423,1.48368 c -0.006,0.001 -0.0119,0.002 -0.0177,0.004 0.006,-0.001 0.0119,-0.002 0.0177,-0.004 z m -0.81704,0.25447 c -0.007,0.003 -0.0144,0.005 -0.0214,0.008 0.007,-0.003 0.0143,-0.005 0.0214,-0.008 z m -10.77335,1.25692 a 2.0611057,1.9655981 87.983815 0 1 2.0367,1.99081 2.0611057,1.9655981 87.983815 0 1 -1.89219,2.12849 2.0611057,1.9655981 87.983815 0 1 -2.03671,-1.9908 2.0611057,1.9655981 87.983815 0 1 1.8922,-2.1285 z m 25.20157,0 a 2.0611057,1.9655981 87.983815 0 1 2.03716,1.99081 2.0611057,1.9655981 87.983815 0 1 -1.8922,2.12849 2.0611057,1.9655981 87.983815 0 1 -2.0367,-1.9908 2.0611057,1.9655981 87.983815 0 1 1.89174,-2.1285 z m -10.60475,6.11056 c -0.005,0.002 -0.0109,0.005 -0.0164,0.008 0.006,-0.002 0.0109,-0.005 0.0164,-0.008 z m -0.56621,0.21403 c -0.0102,0.003 -0.0206,0.006 -0.0309,0.009 0.0103,-0.003 0.0206,-0.006 0.0309,-0.009 z m -2.30162,0.13769 c 0.0191,0.003 0.0381,0.007 0.0572,0.01 -0.0192,-0.003 -0.0382,-0.007 -0.0572,-0.01 z m 1.40006,0.0459 c -0.0235,0.003 -0.0469,0.005 -0.0704,0.007 0.0236,-0.002 0.047,-0.005 0.0704,-0.007 z m -1.04698,0.004 c 0.008,8.5e-4 0.0167,0.001 0.025,0.002 -0.008,-8e-4 -0.0167,-0.001 -0.025,-0.002 z m 0.30491,0.0209 c 0.0212,8.5e-4 0.0423,0.002 0.0636,0.002 -0.0212,-5.8e-4 -0.0425,-10e-4 -0.0636,-0.002 z" />
        <ellipse
           id="ellipse9890"
           cx="-446.337"
           cy="-157.828"
           stroke="none"
           stroke-dashoffset="0"
           stroke-linecap="square"
           stroke-linejoin="miter"
           stroke-miterlimit="4"
           stroke-opacity="1"
           rx="1.219"
           ry="1.283"
           transform="rotate(-2.013) skewX(.001)" />
        <path
           id="path17"
           stroke-dashoffset="6"
           stroke-linecap="square"
           d="m -455.02791,-155.81894 c -0.0774,-0.004 -0.15552,-0.005 -0.23397,-0.005 -2.51049,0 -4.47839,1.84978 -4.47839,4.08029 0,2.23051 1.96794,4.08003 4.47843,4.08003 2.51049,0 4.48066,-1.8497 4.48066,-4.08021 0,-2.16081 -1.84877,-3.96423 -4.24673,-4.07483 z m -0.12955,0.56487 1.49311,0.37935 c 0.22543,0.0573 0.41306,0.20714 0.5279,0.36409 0.11486,0.15693 0.1742,0.31844 0.21942,0.47085 0.0903,0.30482 0.12978,0.59775 0.17513,0.72717 0.0905,0.2581 -0.009,0.45787 -0.0918,0.5889 -0.0824,0.13103 -0.17999,0.23438 -0.29146,0.33971 -0.22294,0.21064 -0.50376,0.41811 -0.78646,0.61244 -0.28347,0.19486 -0.56946,0.37441 -0.78441,0.5052 0.0102,0.0275 0.0196,0.0513 0.0303,0.0806 0.0681,0.11154 0.16986,0.20908 0.28776,0.26584 0.13033,0.0622 0.29606,0.0878 0.46039,0.0685 0.10929,-0.0128 0.22103,-0.0496 0.33438,-0.10588 a 0.45751178,0.45841413 44.999843 0 1 0.66101,0.41774 c -1.3e-4,0.009 -6.3e-4,0.0203 -10e-4,0.0309 -0.0478,1.32151 -1.16824,2.36595 -2.48964,2.32078 -1.32141,-0.0452 -2.36184,-1.16345 -2.31406,-2.48502 l 9.2e-4,-0.0254 a 0.45751178,0.45841413 44.999843 0 1 0.69208,-0.37876 c 0.10697,0.0637 0.22054,0.10976 0.32948,0.1304 0.16122,0.0305 0.32835,0.0169 0.4642,-0.0369 0.11779,-0.047 0.22111,-0.13523 0.29589,-0.23588 0.0147,-0.0374 0.026,-0.0684 0.0397,-0.10414 -0.20239,-0.14137 -0.46019,-0.32713 -0.71837,-0.52884 -0.26991,-0.21087 -0.53695,-0.43515 -0.74596,-0.65892 -0.1045,-0.11187 -0.19709,-0.2209 -0.27081,-0.35711 -0.0734,-0.13622 -0.15929,-0.34459 -0.0507,-0.59605 0.0533,-0.12796 0.11032,-0.41431 0.21942,-0.7114 0.0549,-0.14941 0.12428,-0.30697 0.24885,-0.45667 0.12457,-0.1497 0.3208,-0.28763 0.54942,-0.33135 z m -0.16651,4.65559 c -0.16678,0.18861 -0.34489,0.37128 -0.57971,0.46491 -0.22734,0.09 -0.46421,0.0711 -0.69791,0.0621 0.21394,0.52346 0.61548,0.9473 1.22175,0.96802 0.60637,0.0207 1.03935,-0.37439 1.29046,-0.88213 -0.23224,-0.007 -0.46812,-0.004 -0.68808,-0.10947 -0.22862,-0.11007 -0.39365,-0.30305 -0.54651,-0.50341 z"
           transform="rotate(-1.958) skewX(.113)" />
        <ellipse
           id="ellipse9916"
           cx="465.598"
           cy="-153.87"
           stroke="none"
           stroke-dashoffset="0"
           stroke-linecap="square"
           stroke-linejoin="miter"
           stroke-miterlimit="4"
           stroke-opacity="1"
           rx="1.219"
           ry="1.283"
           transform="matrix(-.99968 .02538 .0254 .99968 0 0)" />
        <path
           id="path13"
           stroke-linejoin="round"
           d="m -460.50006,-134.94345 c -0.15987,0.19418 -0.33127,0.38282 -0.56257,0.48441 -0.22396,0.0977 -0.46137,0.0869 -0.69526,0.0859 0.23273,0.51581 0.64935,0.92564 1.25601,0.92564 0.60677,0 1.02522,-0.40965 1.25783,-0.92564 -0.23235,9e-4 -0.46797,0.0122 -0.69162,-0.0859 -0.23247,-0.10219 -0.40438,-0.2894 -0.56439,-0.48441 z" />
      </g>
      <g
         id="g4">
        <path
           id="path12"
           stroke-linejoin="round"
           d="m -492.24617,-153.62503 c -3.11696,0 -6.12541,0.92597 -8.37083,2.89282 -2.24542,1.96685 -3.6817,4.97644 -3.6817,8.93932 0,1.40777 -10e-4,2.79043 -0.0236,4.10748 a 0.68694367,0.68694367 0 0 0 0.54894,0.68526 c 7.95818,1.636 15.91336,1.67052 23.39844,0.0236 a 0.68694367,0.68694367 0 0 0 0.53894,-0.69935 c -0.05,-1.24717 -0.0894,-2.5855 -0.13269,-3.99978 -0.12585,-4.02499 -1.61584,-7.05758 -3.88482,-9.03929 -2.26897,-1.98171 -5.27571,-2.91009 -8.39265,-2.91009 z m -5.79701,4.61552 c 0.56358,-0.003 1.11092,0.21749 1.51594,0.61301 l 0.32809,0.32037 -0.64073,0.65618 -0.32627,-0.32037 c -0.2408,-0.23516 -0.60144,-0.37056 -0.93747,-0.35126 -0.34628,0.0199 -0.70043,0.20729 -0.91202,0.48213 l -0.27946,0.36127 -0.72616,-0.55848 0.27901,-0.36127 c 0.38033,-0.494 0.9635,-0.80214 1.58592,-0.83794 0.0377,-0.002 0.0756,-0.003 0.11315,-0.004 z m 11.54495,0.0309 c 0.6298,9.2e-4 1.2338,0.27898 1.64272,0.75797 l 0.29673,0.34763 -0.69707,0.59574 -0.29674,-0.34763 c -0.2281,-0.26718 -0.59616,-0.43891 -0.94746,-0.43942 -0.33479,-4.9e-4 -0.68523,0.15168 -0.91384,0.39625 l -0.31264,0.334 -0.66799,-0.62482 0.31264,-0.334 c 0.40864,-0.43717 0.98524,-0.68659 1.58365,-0.68572 z m 0.75887,2.55701 c 1.51534,0.0267 2.76114,1.27764 2.81603,2.82194 0.0567,1.59411 -1.17486,2.96417 -2.75604,3.01915 -1.58118,0.055 -2.9066,-1.22646 -2.96326,-2.82057 -0.0567,-1.59412 1.17441,-2.96417 2.75559,-3.01915 0.0494,-0.002 0.0988,-0.002 0.14768,-0.001 z m -12.66599,0.001 c 1.58163,-0.0397 2.89459,1.25279 2.93554,2.84738 0.041,1.5946 -1.20395,2.95308 -2.78558,2.9928 -1.58165,0.0397 -2.89278,-1.2546 -2.93373,-2.8492 -0.041,-1.5946 1.20213,-2.95126 2.78377,-2.99098 z m 6.29233,3.1423 c 2.29232,0.0304 4.23575,1.73218 4.31606,3.94571 v 0.002 c 0.0157,0.45989 -0.045,1.02871 -0.17177,1.60546 -0.12681,0.57675 -0.2935,1.14172 -0.65027,1.60546 l -0.19722,0.25357 -0.32037,0.0141 c -2.01449,0.0806 -4.08418,0.0674 -6.16599,-0.045 l -0.32446,-0.0177 -0.19131,-0.26174 c -0.31761,-0.43233 -0.4525,-0.93471 -0.56848,-1.45096 -0.11601,-0.51626 -0.1812,-1.02241 -0.1954,-1.40233 v -0.002 c 0.10866,-2.47345 1.96768,-4.18112 4.24609,-4.24382 v -4.5e-4 c 0.0746,-0.003 0.14917,-0.003 0.22312,-0.002 z m -0.0173,1.3737 c -0.0526,-6.1e-4 -0.10529,10e-6 -0.15859,0.002 -1.70589,0.058 -2.97369,1.34447 -2.92009,2.82239 0.01,0.25831 0.0659,0.7237 0.16222,1.15241 0.068,0.30286 0.1562,0.48247 0.2363,0.6639 1.75513,0.0831 3.49774,0.0921 5.20309,0.035 0.10314,-0.20928 0.21973,-0.44054 0.29673,-0.79069 0.10343,-0.47028 0.15087,-0.98098 0.14087,-1.26373 -0.052,-1.43169 -1.32989,-2.60208 -2.96053,-2.62109 z m -0.0804,1.0488 1.13831,0.24402 c 0.19519,0.042 0.36452,0.16471 0.46715,0.2931 0.10261,0.12839 0.15474,0.25735 0.19494,0.3749 0.0804,0.2351 0.11858,0.4477 0.14678,0.5194 0.0962,0.24241 0.006,0.42998 -0.0609,0.54303 -0.0665,0.11305 -0.1426,0.19576 -0.2263,0.27946 -0.16745,0.16736 -0.37177,0.32803 -0.57802,0.47851 -0.41249,0.30096 -0.83204,0.55666 -0.83204,0.55666 l -0.23448,0.14269 -0.23812,-0.14087 c 0,0 -0.42095,-0.25147 -0.83613,-0.54894 -0.20759,-0.14874 -0.41325,-0.30654 -0.58211,-0.4726 -0.0844,-0.083 -0.16117,-0.1662 -0.22857,-0.27901 -0.0674,-0.11281 -0.15937,-0.3025 -0.0641,-0.5453 l -0.002,0.002 c 0.0275,-0.0712 0.0646,-0.28368 0.14269,-0.5194 0.0391,-0.11787 0.0916,-0.24778 0.19313,-0.37716 0.10156,-0.12938 0.26997,-0.25314 0.46487,-0.29674 z m -7.23661,0.68754 a 1.6968153,1.6181881 87.983815 0 1 1.6768,1.63908 1.6968153,1.6181881 87.983815 0 1 -1.55774,1.75269 1.6968153,1.6181881 87.983815 0 1 -1.67681,-1.63908 1.6968153,1.6181881 87.983815 0 1 1.55775,-1.75269 z m 14.65316,0 a 1.6968153,1.6181881 87.983815 0 1 1.67681,1.63908 1.6968153,1.6181881 87.983815 0 1 -1.55775,1.75269 1.6968153,1.6181881 87.983815 0 1 -1.6768,-1.63908 1.6968153,1.6181881 87.983815 0 1 1.55774,-1.75269 z" />
        <path
           id="path6"
           stroke-dashoffset="6"
           stroke-linecap="square"
           d="m -492.13029,-141.90423 c -0.0526,-6.1e-4 -0.10528,1e-5 -0.15859,0.002 -1.70589,0.058 -2.97369,1.34447 -2.92009,2.82239 0.01,0.25831 0.0659,0.7237 0.16222,1.15241 0.068,0.30286 0.1562,0.48247 0.2363,0.6639 1.75513,0.0831 3.49774,0.0921 5.20309,0.035 0.10314,-0.20928 0.21973,-0.44054 0.29673,-0.79069 0.10343,-0.47028 0.15087,-0.98098 0.14087,-1.26373 -0.052,-1.43169 -1.32989,-2.60208 -2.96053,-2.62109 z m -0.0804,1.0488 1.13831,0.24402 c 0.19519,0.042 0.36452,0.16471 0.46715,0.2931 0.10261,0.12839 0.15474,0.25735 0.19494,0.3749 0.0804,0.2351 0.11858,0.4477 0.14678,0.5194 0.0962,0.24241 0.006,0.42998 -0.0609,0.54303 -0.0665,0.11305 -0.1426,0.19576 -0.2263,0.27946 -0.16745,0.16736 -0.37177,0.32803 -0.57802,0.47851 -0.41249,0.30096 -0.83204,0.55666 -0.83204,0.55666 l -0.23448,0.14269 -0.23812,-0.14087 c 0,0 -0.42095,-0.25147 -0.83613,-0.54894 -0.20759,-0.14874 -0.41325,-0.30654 -0.58211,-0.4726 -0.0844,-0.083 -0.16117,-0.1662 -0.22857,-0.27901 -0.0674,-0.11281 -0.15937,-0.3025 -0.0641,-0.5453 l -0.002,0.002 c 0.0275,-0.0712 0.0646,-0.28368 0.14269,-0.5194 0.0391,-0.11787 0.0916,-0.24778 0.19313,-0.37716 0.10156,-0.12938 0.26997,-0.25314 0.46487,-0.29674 z" />
        <path
           id="ellipse10308"
           stroke-linecap="square"
           d="m -478.64769,-160.92535 a 1.0690199,1.1132268 0 0 1 -1.06902,1.11322 1.0690199,1.1132268 0 0 1 -1.06902,-1.11322 1.0690199,1.1132268 0 0 1 1.06902,-1.11323 1.0690199,1.1132268 0 0 1 1.06902,1.11323 z"
           baseline-shift="baseline"
           display="inline"
           overflow="visible"
           stop-color="#000"
           stop-opacity="1"
           transform="rotate(-1.992) skewX(.044)" />
        <path
           id="ellipse10312"
           stroke-linecap="square"
           d="m 496.21283,-156.59453 a 1.0690267,1.1132195 0 0 1 -1.06903,1.11322 1.0690267,1.1132195 0 0 1 -1.06903,-1.11322 1.0690267,1.1132195 0 0 1 1.06903,-1.11322 1.0690267,1.1132195 0 0 1 1.06903,1.11322 z"
           baseline-shift="baseline"
           display="inline"
           overflow="visible"
           stop-color="#000"
           stop-opacity="1"
           transform="matrix(-.99968 .0251 .02567 .99967 0 0)" />
        <path
           id="path10338"
           stroke-linejoin="round"
           d="m -506.49023,-139.02344 -0.34961,1.32813 c 9.69952,2.55848 20.71707,2.37142 28.74218,0.16992 l -0.36523,-1.32422 c -7.73193,2.12108 -18.59391,2.31447 -28.02734,-0.17383 z" />
      </g>
    </g>
  </g>
</svg>
