<?xml version="1.0" encoding="utf-8"?>
<!-- Generator: Adobe Illustrator 21.1.0, SVG Export Plug-In . SVG Version: 6.00 Build 0)  -->
<svg version="1.1" id="tikv_1" xmlns="http://www.w3.org/2000/svg" xmlns:xlink="http://www.w3.org/1999/xlink" x="0px" y="0px"
	 viewBox="0 0 360 178" style="enable-background:new 0 0 360 178;" xml:space="preserve">
<style type="text/css">
	.st0{fill:#FFFFFF;}
	.st1{fill:#353558;}
	.st2{fill:#EC1A3B;}
</style>
<g>
	<polygon class="st0" points="270.6965942,44.6297607 246.366745,44.6297607 212.8881073,80.1191406 212.8881073,44.6297607 
		192.4791718,44.6297607 192.4791718,129.8847656 212.8881073,129.8847656 212.8881073,102.940979 222.5395966,93.1889038 
		248.1764374,129.9852905 273.6121216,129.9852905 236.41362,79.3148804 	"/>
	<polygon class="st0" points="335.0401001,44.6297607 319.1553345,105.0522461 317.8482056,105.0522461 300.9580688,44.6297607 
		278.5383911,44.6297607 306.7892456,129.9852905 328.9072876,129.9852905 357.7612915,44.6297607 	"/>
	<path class="st0" d="M1.7612809,46.0372925v85.5565796l82.3394775,42.7280273l82.0378342-42.7280273V46.0372925
		L84.1007614,3.2086792L1.7612809,46.0372925z M119.5901413,123.7520142l-20.4089355,10.6569214V70.0654907l20.4089355-10.5563354
		V123.7520142z M78.4707565,59.5091553V139.43573l-20.1074257-10.4558105V69.9649658L32.5254402,83.4368896V62.022583
		l51.4748573-26.7427368l20.5093994,10.6568604L78.4707565,59.5091553z"/>
</g>
</svg>
