<?xml version="1.0" encoding="UTF-8" standalone="no"?>
<!-- Created with Inkscape (http://www.inkscape.org/) -->

<svg
   width="97.362816mm"
   height="97.362816mm"
   viewBox="0 0 97.362816 97.362816"
   version="1.1"
   id="svg1"
   inkscape:version="1.4 (e7c3feb1, 2024-10-09)"
   sodipodi:docname="icon-full-color-white.svg"
   inkscape:export-filename="icon-full-color-white.png"
   inkscape:export-xdpi="267.14099"
   inkscape:export-ydpi="267.14099"
   xmlns:inkscape="http://www.inkscape.org/namespaces/inkscape"
   xmlns:sodipodi="http://sodipodi.sourceforge.net/DTD/sodipodi-0.dtd"
   xmlns="http://www.w3.org/2000/svg"
   xmlns:svg="http://www.w3.org/2000/svg">
  <sodipodi:namedview
     id="namedview1"
     pagecolor="#ffffff"
     bordercolor="#000000"
     borderopacity="0.25"
     inkscape:showpageshadow="2"
     inkscape:pageopacity="0.0"
     inkscape:pagecheckerboard="0"
     inkscape:deskcolor="#d1d1d1"
     inkscape:document-units="mm"
     inkscape:zoom="0.53417909"
     inkscape:cx="204.98743"
     inkscape:cy="270.50853"
     inkscape:window-width="1712"
     inkscape:window-height="810"
     inkscape:window-x="0"
     inkscape:window-y="25"
     inkscape:window-maximized="0"
     inkscape:current-layer="layer1" />
  <defs
     id="defs1" />
  <g
     inkscape:label="Layer 1"
     inkscape:groupmode="layer"
     id="layer1"
     transform="translate(-52.160616,-86.378431)">
    <path
       d="m 109.24465,150.26748 -7.61449,-7.39334 7.29364,-7.6387 c 0,0 1.4193,-0.99667 2.37664,-0.0393 0.95758,0.95757 -0.42823,3.54024 2.15938,5.02176 0,0 2.03288,1.0789 5.13386,-2.02231 3.101,-3.101 1.78372,-4.89528 1.78372,-4.89528 -1.48152,-2.5876 -4.06419,-1.2018 -5.02176,-2.15937 -0.95734,-0.95736 -0.004,-2.38944 -0.004,-2.38944 l 7.55059,-7.14684 21.4411,21.33049 -7.40402,7.40401 c 0,0 -0.9533,1.43209 0.004,2.38945 0.95757,0.95756 3.54023,-0.42825 5.02175,2.15914 0,0 1.31728,1.79451 -1.7837,4.89549 -3.10101,3.101 -5.13389,2.02232 -5.13389,2.02232 -2.58761,-1.48152 -1.20179,-4.06418 -2.15936,-5.02175 -0.95736,-0.95736 -2.38945,-0.004 -2.38945,-0.004 l -7.42558,7.42558 -7.43435,-7.4959 c 0,0 -1.3667,-0.93735 -2.32069,0.0168 -0.9542,0.9542 0.44037,3.5416 -2.14207,5.01436 0,0 -2.02929,1.0717 -5.14106,-2.04008 -3.11156,-3.11177 -1.80057,-4.90156 -1.80057,-4.90156 1.47276,-2.58243 4.06014,-1.18786 5.01434,-2.14185 0.95422,-0.9542 -0.004,-2.38966 -0.004,-2.38966 z"
       fill="#127be8"
       id="path1-4-4"
       sodipodi:nodetypes="cccscccsccccscscsccccccccc"
       style="stroke-width:0.224677" />
    <path
       d="m 72.438464,129.09659 7.775407,-7.7753 7.463779,7.46367 c 0,0 1.005586,1.44259 0.03588,2.41229 -0.969931,0.96994 -3.589448,-0.43744 -5.089169,2.18454 0,0 -1.091709,2.05984 2.054892,5.20667 3.146605,3.1466 4.964703,1.8127 4.964703,1.8127 2.621752,-1.49973 1.214602,-4.11923 2.184309,-5.08894 0.969931,-0.96993 2.422475,-0.003 2.422475,-0.003 l 7.38515,7.56364 -21.737988,21.81494 -7.506618,-7.51562 c 0,0 -1.452765,-0.96768 -2.422471,0.003 -0.969932,0.96993 0.437448,3.58944 -2.184492,5.08894 0,0 -1.817955,1.33391 -4.964602,-1.8127 -3.146628,-3.1466 -2.054833,-5.20666 -2.054833,-5.20666 1.499698,-2.62199 4.119234,-1.21462 5.08901,-2.18433 0.969795,-0.96993 0.0021,-2.42246 0.0021,-2.42246 l -7.534864,-7.53478 7.592542,-7.53006 c 0,0 0.948968,-1.38469 -0.01923,-2.35282 -0.968204,-0.96814 -3.590052,0.44329 -5.085435,-2.176 0,0 -1.088428,-2.05826 2.063391,-5.21004 3.151818,-3.152 4.967569,-1.82101 4.967569,-1.82101 2.619557,1.49546 1.207911,4.11721 2.176045,5.08534 0.968134,0.96837 2.422471,-0.003 2.422471,-0.003 z"
       fill="#0e5fb5"
       id="path2-3-4"
       sodipodi:nodetypes="cccscccsccccscccccccsccccc"
       style="fill:#0b4a8c;fill-opacity:1;stroke-width:0.224677" />
    <path
       d="m 87.805498,128.93796 -7.592302,-7.61589 7.271458,-7.41617 c 0,0 1.419281,-0.99673 2.376635,-0.0393 0.957577,0.95745 -0.42823,3.54012 2.159378,5.02172 0,0 2.03287,1.07877 5.13387,-2.02227 3.101003,-3.10104 1.783718,-4.89545 1.783718,-4.89545 -1.481523,-2.58758 -4.064189,-1.20175 -5.021766,-2.15921 -0.957354,-0.95745 -0.0039,-2.38954 -0.0039,-2.38954 l 7.432091,-7.37588 21.55957,21.5596 -7.40401,7.40403 c 0,0 -0.70531,1.32441 0.25205,2.28198 0.22022,0.22018 0.53431,0.20182 0.90218,0.2243 0.34668,0.0212 0.70759,0.029 1.10203,0.0786 0.14496,0.0181 0.30052,0.0724 0.45292,0.0916 0.90603,0.11407 1.6811,0.60535 2.38275,1.83087 0,0 1.25116,1.83583 -1.84983,4.93683 -3.101,3.10098 -5.13388,2.02231 -5.13388,2.02231 -1.63103,-0.93398 -1.82737,-2.2458 -1.88298,-3.37185 -0.0174,-0.35079 -0.0639,-0.68465 -0.0916,-0.98295 -0.0244,-0.26328 -0.0189,-0.50104 -0.18482,-0.66696 -0.95735,-0.95734 -2.38945,-0.004 -2.38945,-0.004 l -7.42557,7.4256 -7.43436,-7.49614 c 0,0 -1.366698,-0.93713 -2.320687,0.0171 -0.9542,0.95421 0.440373,3.54159 -2.14207,5.01436 0,0 -0.783848,0.67212 -2.124209,0.23845 -0.452254,-0.14633 -1.007584,-0.3693 -1.577817,-0.75709 -0.458983,-0.31213 -1.032777,-0.8572 -1.557971,-1.38243 -3.111778,-3.11178 -1.899853,-5.08029 -1.899853,-5.08029 0.299526,-0.52529 0.724629,-1.04491 1.093294,-1.29434 0.532002,-0.35994 1.33036,-0.50793 1.888659,-0.56427 0.956815,-0.0966 1.591971,0.0576 2.071877,-0.42248 0.292496,-0.2924 0.405296,-0.51091 0.42108,-0.8386 0.03575,-0.74134 -0.246379,-1.3721 -0.246379,-1.3721 z"
       fill="#b6d9ff"
       id="path3-6-9"
       sodipodi:nodetypes="cccccscccccccssscscssccccccssccsscsc"
       style="stroke-width:0.224677" />
  </g>
</svg>
