<?xml version="1.0" encoding="utf-8"?>
<!-- Generator: Adobe Illustrator 21.1.0, SVG Export Plug-In . SVG Version: 6.00 Build 0)  -->
<svg version="1.1" id="Layer_1" xmlns="http://www.w3.org/2000/svg" xmlns:xlink="http://www.w3.org/1999/xlink" x="0px" y="0px"
	 viewBox="0 0 1000 1000" enable-background="new 0 0 1000 1000" xml:space="preserve">
<polygon fill="#FFFFFF" points="697.474,398.661 599.217,566.364 500.002,566.364 401.338,566.364 302.529,396.674 368.151,274.707 
	269.333,274.707 203.297,397.472 351.787,653.861 500.002,653.861 648.768,653.861 796.707,398.661 "/>
<polygon fill="#FFFFFF" points="648.768,128.878 347.531,128.878 300.997,216.375 452.607,216.375 452.607,508.033 540.104,508.033 
	540.104,216.375 599.217,216.375 666.032,340.33 764.72,340.33 "/>
<g>
	<g>
		<path fill="#FFFFFF" d="M12.324,795.585v-0.256c0-24.625,18.501-46.188,45.679-46.188c27.178,0,45.423,21.308,45.423,45.934v0.255
			c0,24.626-18.501,46.189-45.678,46.189C30.57,841.519,12.324,820.21,12.324,795.585z M92.963,795.585v-0.256
			c0-20.287-14.801-36.874-35.216-36.874s-34.961,16.332-34.961,36.619v0.255c0,20.288,14.801,36.875,35.216,36.875
			S92.963,815.872,92.963,795.585z"/>
		<path fill="#FFFFFF" d="M124.738,750.672h33.43c20.16,0,33.43,10.718,33.43,28.325v0.256c0,19.267-16.077,29.219-35.088,29.219
			h-21.691v31.516h-10.08V750.672z M156.892,799.285c14.801,0,24.498-7.911,24.498-19.649v-0.256
			c0-12.759-9.57-19.394-23.988-19.394h-22.584v39.299H156.892z"/>
		<path fill="#FFFFFF" d="M209.975,750.672h64.562v9.187h-54.482v30.495h48.741v9.187h-48.741v31.261h55.121v9.187h-65.201V750.672z
			"/>
		<path fill="#FFFFFF" d="M295.467,750.672h9.442l56.269,71.58v-71.58h9.825v89.315h-8.039l-57.672-73.239v73.239h-9.825V750.672z"
			/>
	</g>
</g>
<g>
	<g>
		<path fill="#FFFFFF" d="M429.938,759.986h-29.985v-9.314h70.177v9.314h-29.984v80.001h-10.208V759.986z"/>
		<path fill="#FFFFFF" d="M489.017,750.672h38.407c10.973,0,19.777,3.317,25.392,8.932c4.338,4.338,6.89,10.59,6.89,17.607v0.255
			c0,14.802-10.207,23.478-24.243,26.029l27.433,36.492h-12.376l-25.901-34.705h-25.52v34.705h-10.08V750.672z M526.53,796.223
			c13.397,0,22.968-6.891,22.968-18.374v-0.255c0-10.973-8.422-17.607-22.84-17.607h-27.561v36.236H526.53z"/>
		<path fill="#FFFFFF" d="M614.319,750.033h9.442l40.702,89.954h-10.846l-10.463-23.604h-48.613l-10.59,23.604h-10.335
			L614.319,750.033z M639.2,807.195l-20.287-45.423l-20.415,45.423H639.2z"/>
		<path fill="#FFFFFF" d="M672.891,795.585v-0.256c0-25.264,18.884-46.188,45.168-46.188c16.204,0,25.901,5.741,34.833,14.163
			l-6.89,7.4c-7.528-7.146-15.949-12.249-28.071-12.249c-19.776,0-34.578,16.076-34.578,36.619v0.255
			c0,20.671,14.929,36.875,34.578,36.875c12.249,0,20.288-4.721,28.837-12.887l6.635,6.507
			c-9.314,9.442-19.522,15.694-35.727,15.694C691.901,841.519,672.891,821.231,672.891,795.585z"/>
		<path fill="#FFFFFF" d="M771.906,750.672h10.079v89.315h-10.079V750.672z"/>
		<path fill="#FFFFFF" d="M808.143,750.672h9.442l56.269,71.58v-71.58h9.824v89.315h-8.038l-57.673-73.239v73.239h-9.824V750.672z"
			/>
		<path fill="#FFFFFF" d="M904.991,795.585v-0.256c0-24.498,17.99-46.188,44.785-46.188c15.056,0,24.37,4.338,33.302,11.866
			l-6.507,7.655c-6.891-5.997-14.546-10.207-27.178-10.207c-19.777,0-33.94,16.715-33.94,36.619v0.255
			c0,21.309,13.653,37.13,35.344,37.13c10.208,0,19.649-3.955,25.774-8.932v-22.201h-27.178v-9.059h36.875v35.599
			c-8.294,7.4-20.798,13.652-35.854,13.652C922.344,841.519,904.991,821.104,904.991,795.585z"/>
	</g>
</g>
</svg>
