<?xml version="1.0" encoding="utf-8"?>
<!-- Generator: Adobe Illustrator 21.1.0, SVG Export Plug-In . SVG Version: 6.00 Build 0)  -->
<svg version="1.1" id="Layer_1" xmlns="http://www.w3.org/2000/svg" xmlns:xlink="http://www.w3.org/1999/xlink" x="0px" y="0px"
	 viewBox="0 0 1000 730.5" style="enable-background:new 0 0 1000 730.5;" xml:space="preserve">
<style type="text/css">
	.st0{fill:#FFFFFF;}
</style>
<polygon class="st0" points="697.5,278.1 599.2,445.8 500,445.8 401.3,445.8 302.5,276.1 368.2,154.1 269.3,154.1 203.3,276.9 
	351.8,533.3 500,533.3 648.8,533.3 796.7,278.1 "/>
<polygon class="st0" points="648.8,8.3 347.5,8.3 301,95.8 452.6,95.8 452.6,387.4 540.1,387.4 540.1,95.8 599.2,95.8 666,219.7 
	764.7,219.7 "/>
<g>
	<g>
		<path class="st0" d="M12.3,675v-0.3c0-24.6,18.5-46.2,45.7-46.2s45.4,21.3,45.4,45.9v0.3c0,24.6-18.5,46.2-45.7,46.2
			C30.6,720.9,12.3,699.6,12.3,675z M93,675v-0.3c0-20.3-14.8-36.9-35.2-36.9s-35,16.3-35,36.6v0.3c0,20.3,14.8,36.9,35.2,36.9
			S93,695.3,93,675z"/>
		<path class="st0" d="M124.7,630.1h33.4c20.2,0,33.4,10.7,33.4,28.3v0.3c0,19.3-16.1,29.2-35.1,29.2h-21.7v31.5h-10.1L124.7,630.1
			L124.7,630.1z M156.9,678.7c14.8,0,24.5-7.9,24.5-19.6v-0.3c0-12.8-9.6-19.4-24-19.4h-22.6v39.3L156.9,678.7L156.9,678.7z"/>
		<path class="st0" d="M210,630.1h64.6v9.2h-54.5v30.5h48.7v9.2h-48.7v31.3h55.1v9.2H210V630.1z"/>
		<path class="st0" d="M295.5,630.1h9.4l56.3,71.6v-71.6h9.8v89.3h-8l-57.7-73.2v73.2h-9.8V630.1z"/>
	</g>
</g>
<g>
	<g>
		<path class="st0" d="M429.9,639.4h-30v-9.3h70.2v9.3h-30v80h-10.2V639.4z"/>
		<path class="st0" d="M489,630.1h38.4c11,0,19.8,3.3,25.4,8.9c4.3,4.3,6.9,10.6,6.9,17.6v0.3c0,14.8-10.2,23.5-24.2,26l27.4,36.5
			h-12.4l-25.9-34.7h-25.5v34.7H489L489,630.1L489,630.1z M526.5,675.6c13.4,0,23-6.9,23-18.4V657c0-11-8.4-17.6-22.8-17.6h-27.6
			v36.2H526.5z"/>
		<path class="st0" d="M614.3,629.4h9.4l40.7,90h-10.8l-10.5-23.6h-48.6L584,719.4h-10.3L614.3,629.4z M639.2,686.6l-20.3-45.4
			l-20.4,45.4H639.2z"/>
		<path class="st0" d="M672.9,675v-0.3c0-25.3,18.9-46.2,45.2-46.2c16.2,0,25.9,5.7,34.8,14.2l-6.9,7.4
			c-7.5-7.1-15.9-12.2-28.1-12.2c-19.8,0-34.6,16.1-34.6,36.6v0.3c0,20.7,14.9,36.9,34.6,36.9c12.2,0,20.3-4.7,28.8-12.9l6.6,6.5
			c-9.3,9.4-19.5,15.7-35.7,15.7C691.9,720.9,672.9,700.6,672.9,675z"/>
		<path class="st0" d="M771.9,630.1H782v89.3h-10.1V630.1z"/>
		<path class="st0" d="M808.1,630.1h9.4l56.3,71.6v-71.6h9.8v89.3h-8L818,646.1v73.2h-9.8V630.1z"/>
		<path class="st0" d="M905,675v-0.3c0-24.5,18-46.2,44.8-46.2c15.1,0,24.4,4.3,33.3,11.9l-6.5,7.7c-6.9-6-14.5-10.2-27.2-10.2
			c-19.8,0-33.9,16.7-33.9,36.6v0.3c0,21.3,13.7,37.1,35.3,37.1c10.2,0,19.6-4,25.8-8.9v-22.2h-27.2v-9.1h36.9v35.6
			c-8.3,7.4-20.8,13.7-35.9,13.7C922.3,720.9,905,700.5,905,675z"/>
	</g>
</g>
</svg>
