<?xml version="1.0" encoding="UTF-8"?><svg id="Layer_1" xmlns="http://www.w3.org/2000/svg" viewBox="0 0 2819.75096 1120.27746"><defs><style>.cls-1{fill:#fff;}</style></defs><g><path class="cls-1" d="M477.52154,626.14066c-1.16131-.01391-2.31915,.08904-3.45848,.30768l-.17579-.23249-103.20187,17.52998c15.49248,42.86139,44.69616,79.41255,83.08036,103.98374l39.99083-96.63544-.29843-.38862c.90684-2.11266,1.39033-4.38269,1.42388-6.68094,.14459-9.73278-7.62825-17.73935-17.3605-17.88385v-.00006Z"/><path class="cls-1" d="M460.13325,565.47829c3.35784-.91664,6.36866-2.8072,8.65309-5.43285,6.38946-7.34314,5.6168-18.47555-1.72575-24.86443l.08443-.42677-78.52309-70.23209v.00464c-23.95472,38.9897-34.23753,84.8501-29.2222,130.33509l100.65372-29.04233,.0798-.34125Z"/><polygon class="cls-1" points="565.36393 610.24562 594.24491 596.34474 601.41285 565.17009 581.41974 540.17436 549.25953 540.17436 529.21442 565.12789 536.39621 596.31639 565.36393 610.24562"/><path class="cls-1" d="M1048.26885,659.42856l.0047,.02894-83.49084-362.6548c-4.54633-18.99817-17.37344-34.95595-34.94997-43.48027L591.87722,91.96685c-17.73964-8.46544-38.35386-8.46544-56.0935,0L197.89539,253.40868c-17.58087,8.51885-30.41233,24.47593-34.95956,43.47539l-83.3567,362.64521c-2.05588,9.16649-2.06242,18.67377-.01917,27.84302,.60174,2.79329,1.38778,5.54367,2.35299,8.23313,1.63131,4.58947,3.79116,8.97356,6.43603,13.06371,1.14534,1.74922,2.35299,3.45044,3.66608,5.09894l233.88179,290.78516c1.02076,1.26523,2.14694,2.42011,3.26355,3.59424,3.66978,3.90796,7.81363,7.3419,12.33528,10.22188,5.71879,3.59934,11.95115,6.30911,18.48377,8.03662,5.35696,1.46866,10.88294,2.23082,16.43749,2.26674h3.63732l371.41982-.08628c2.25793-.00992,4.51363-.14275,6.75713-.39772,3.21818-.36385,6.40449-.9694,9.53181-1.8115,2.2415-.59024,4.45048-1.29727,6.61814-2.11818,1.69159-.64693,3.37853-1.29393,5.00784-2.07504,2.44018-1.16838,4.80711-2.48385,7.08781-3.93931,5.8848-3.7003,11.12485-8.33813,15.51252-13.7299l7.13096-8.86574,226.66942-281.97694c4.34448-5.44788,7.75793-11.5768,10.10209-18.13876,.9788-2.6985,1.77939-5.45833,2.39616-8.26189,2.04845-9.16866,2.04188-18.67717-.01913-27.84302v.00012Zm-131.61863-4.2265c-3.45607,10.53121-14.79498,16.26657-25.32648,12.81045l-.28455-.04279c-.13183-.03792-.2545-.09456-.39326-.13242-1.65754-.36491-3.71873-.72494-5.16339-1.10405-6.11072-1.96082-12.10347-4.27357-17.94695-6.9264-11.26254-4.54316-22.94035-7.97845-34.86909-10.2574-4.12701-.12784-8.13951,1.36342-11.18155,4.15507-1.4632-.29846-5.96962-1.08497-8.55595-1.49701-19.33373,60.83469-60.35521,112.43991-115.26014,144.9983,.93924,2.75719,2.0508,5.45228,3.33117,8.06837-2.03918,3.57874-2.59091,7.81569-1.53487,11.79696,4.86146,11.133,10.79985,21.76452,17.72831,31.74282,3.87832,5.10123,7.45824,10.4228,10.7212,15.93782,.79121,1.49701,1.84261,3.80431,2.60599,5.38202,.672,1.12254,1.23183,2.30812,1.67368,3.54,3.74186,10.44416-1.69217,21.94407-12.13692,25.68569-10.44475,3.7415-21.94442-1.69223-25.6851-12.13669-.76808-1.57279-1.82523-3.64818-2.47299-5.12606-2.28558-5.99216-4.22304-12.11092-5.80416-18.32577-3.47004-11.62686-8.06896-22.88647-13.72972-33.61871-2.46025-3.32542-6.12575-5.55377-10.20997-6.20645-.62575-1.09448-2.99461-5.42481-4.26465-7.68955-59.47268,22.52303-125.15782,22.35616-184.51484-.46903l-4.53415,8.19644c-3.23059,.50348-6.23448,1.96951-8.61837,4.20713-6.81861,11.18935-12.03057,23.28125-15.48323,35.92131-1.56615,6.21508-3.49317,12.33419-5.77064,18.32547-.63848,1.46403-1.71421,3.51541-2.47299,5.07898v.04743l-.03237,.03792c-.44417,1.235-1.00861,2.4238-1.68413,3.54893-5.71165,9.50551-18.04641,12.58171-27.55195,6.87094-9.50554-5.71077-12.58112-18.04614-6.87064-27.55172,.76341-1.57772,1.77203-3.88495,2.56781-5.39153,3.26299-5.52718,6.84288-10.86113,10.7212-15.97539,7.05456-10.23914,13.11437-21.12868,18.09847-32.51988,.52861-3.8633-.09253-7.79685-1.78588-11.30909l3.64351-8.7173c-54.72916-32.29719-95.74712-83.50575-115.31687-143.96562l-8.71786,1.49238c-3.3763-2.40068-7.35875-3.80724-11.49269-4.06022-11.9253,2.28094-23.60076,5.71629-34.86099,10.25734-5.84351,2.63029-11.83162,4.92567-17.93653,6.8744-1.45047,.39326-3.52554,.78651-5.1738,1.16539-.133,.02371-.24637,.09021-.37937,.11856l-.29843,.04743c-1.1879,.39067-2.41165,.66941-3.65161,.83247-10.98841,1.44472-21.06881-6.29291-22.5135-17.28211-1.44469-10.98897,6.29229-21.06881,17.28185-22.51405l.28455-.08446,.17465-.03815c1.67257-.41703,3.80545-.95714,5.33921-1.2411,6.35941-.88371,12.76504-1.39905,19.18344-1.54479,12.11151-.79925,24.11431-2.77773,35.84184-5.9077,3.47233-2.20986,6.40913-5.16691,8.59407-8.65655l8.37085-2.43478c-9.08684-63.0994,5.44098-127.33241,40.79703-180.37976l-6.40106-5.72322c-.2371-4.14438-1.6309-8.13892-4.02174-11.53207-9.20711-7.91852-19.16607-14.91988-29.73461-20.90218-5.70702-2.91367-11.24171-6.15357-16.57742-9.70332-1.2122-.88606-2.82346-2.25494-4.13165-3.32547l-.30768-.21864c-9.46736-6.80062-11.66504-19.97169-4.91701-29.47779,3.88178-4.75857,9.80048-7.38017,15.93319-7.05917,5.0882,.21858,9.97281,2.06119,13.93789,5.25882,1.36489,1.09014,3.22599,2.51108,4.44396,3.55327,4.64981,4.40288,9.04285,9.06894,13.15598,13.97665,8.17305,8.97579,17.20205,17.13385,26.9586,24.35607,3.65508,1.92126,7.91626,2.33476,11.87323,1.15148,2.38738,1.74024,4.79672,3.4492,7.22921,5.12635,35.1328-37.34437,80.62592-63.3365,130.63816-74.63837,8.88672-2.01265,17.88332-3.46887,26.92735-4.53535v-84.68575l153.9706,106.12475-153.9706,114.15151v-82.59281c-5.07317,.74947-10.12665,1.61698-15.13045,2.74363-37.45539,8.4159-71.81321,27.13492-99.19398,54.04317l86.00906,60.98389,.1654-.09479c2.80726,2.03976,6.15351,3.20627,9.61891,3.35253,.88139,.7149,3.24562,.14926,6.48431-.98079,.25215-.08675,.50084-.17121,.74721-.26953,7.0025-2.51695,17.64464-6.82551,26.48321-7.86711,30.26805-3.56718,42.45105,1.30584,57.09336,6.91748,.79584,.38574,1.60084,.72987,2.44059,.9913,30.03926,13.71757,44.72853,41.75587,48.69131,59.67969,.01156,2.18207,.40599,4.29819,1.17865,6.27903,.94499,6.19689,.92879,10.18567,.92879,10.18567l112.0169,30.01508c5.11925-46.51385-9.26111-98.68454-41.03175-147.51091l43.14119-30.76737c48.15754,81.93473,52.50513,134.7743,48.90214,192.97611l8.07242,2.34979c2.01611,3.63485,5.00151,6.63874,8.62304,8.67909,11.73562,3.12186,23.74647,5.09283,35.86379,5.88457,6.41494,.15032,12.81367,.66566,19.16956,1.54473,1.67257,.30768,4.10735,.98085,5.81343,1.37416h-.00117c1.22954,.16305,2.44065,.43951,3.61924,.82584,10.5315,3.45613,16.26634,14.79504,12.81015,25.32648Z"/><path class="cls-1" d="M580.87951,677.76272c-1.63782-3.03047-4.12813-5.51532-7.16206-7.14827-8.58254-4.61917-19.28408-1.40592-23.90383,7.17662h-.0844l-50.75602,91.77944c36.34268,12.36976,75.41044,14.37601,112.82888,5.79436v.00957c6.95505-1.58259,13.73548-3.47609,20.33894-5.68066l-50.8821-91.93093h-.3794v-.00012Z"/><path class="cls-1" d="M656.44156,626.01687c-1.33366-.26025-2.69392-.36086-4.05071-.2984-2.34568,.12437-4.64171,.7206-6.75143,1.75351-8.50042,4.10565-12.26429,14.17445-8.5421,22.84979l-.12373,.1752,40.40378,97.62093v.00493c38.65831-24.67015,67.99036-61.52113,83.36025-104.72752l-104.12144-17.5959-.17462,.21746Z"/></g><g><path class="cls-1" d="M1275.79515,389.12808h85.13537v145.87501l126.45858-145.87501h101.56522l-129.94368,145.3774,139.90093,196.65785h-102.5609l-96.58637-135.41969-38.83378,42.31797v93.10172h-85.13537V389.12808Z"/><path class="cls-1" d="M1893.14827,473.76584v257.39748h-84.13969v-28.87607c-15.93178,21.40825-42.81649,34.85014-75.17812,34.85014-55.76124,0-95.09262-41.32274-95.09262-99.57341v-163.79815h81.15266v144.87887c0,28.37846,17.92314,48.29387,43.81217,48.29387s45.30592-19.41689,45.30592-44.80877v-148.36398h84.13969Z"/><path class="cls-1" d="M2126.64487,467.79085v70.19973c-52.27567,0-84.63776,29.87221-84.63776,77.16902v116.00372h-84.13924V473.76584h84.13924v46.79921c16.92792-32.36117,47.29774-52.7742,84.63776-52.7742Z"/><path class="cls-1" d="M2360.14147,650.01066l46.79921,47.29774c-22.90199,23.3996-66.71462,39.829-105.5484,39.829-79.65891,0-139.90093-56.25839-139.90093-135.41969,0-78.16516,58.25066-133.92686,135.91822-133.92686,81.65027,0,131.43697,58.25066,131.43697,155.83271h-187.69628c6.4726,29.3746,27.38324,49.28909,56.75692,49.28909,21.90677,0,45.30638-8.96157,62.2343-22.90199Zm-117.99508-73.68392h106.04601c-5.97499-26.3871-23.89813-44.31024-50.28523-44.31024-27.38232,0-47.79535,17.42461-55.76078,44.31024Z"/><path class="cls-1" d="M2746.9754,383.15308v348.01023h-84.13924v-34.35253c-20.41303,25.39096-50.28523,40.32661-85.13537,40.32661-68.70598,0-117.99508-55.76078-117.99508-134.92208,0-78.66277,49.28909-134.42447,117.99508-134.42447,34.85014,0,64.72235,14.93656,85.13537,40.32752v-124.96529h84.13924Zm-84.63776,219.06223c0-37.34003-24.39483-64.22474-58.74827-64.22474-36.84242,0-62.73099,26.88471-62.73099,64.22474,0,37.83855,25.88857,64.72327,62.73099,64.72327,34.35345,0,58.74827-26.88471,58.74827-64.72327Z"/></g></svg>