<?xml version="1.0" encoding="UTF-8"?><svg id="artwork" xmlns="http://www.w3.org/2000/svg" viewBox="0 0 616.65758 187.50874"><defs><style>.cls-1{fill:none;}.cls-2{fill:#fff;}.cls-3{fill:#1e4488;}.cls-4{fill:#208fce;}.cls-5{fill:#17bed2;}.cls-6{fill:#727074;}.cls-7{fill:#794499;}</style></defs><circle class="cls-2" cx="117.7895" cy="94.89728" r="72.32308"/><path class="cls-6" d="M255.08318,125.31914c-5.09067-3.00312-9.32187-7.26701-12.28576-12.38063-6.06011-10.35762-6.06011-23.17916,0-33.53678,2.9753-5.08827,7.20515-9.329,12.28576-12.31737,8.86725-5.33385,19.75932-6.07529,29.26759-1.99228,4.01847,1.72168,7.66057,4.21421,10.72038,7.33666l-5.02813,5.07558c-2.373-2.55541-5.22595-4.61856-8.39605-6.07172-7.39182-3.3413-15.96093-2.79018-22.86384,1.47049-3.9452,2.43444-7.20915,5.82894-9.48707,9.86655-4.73499,8.27239-4.73499,18.4337,0,26.70609,2.29162,4.0274,5.5526,7.41883,9.48707,9.86655,6.86865,4.3439,15.46261,4.93821,22.86384,1.58118,3.17647-1.44221,6.03145-3.50683,8.39605-6.07172l5.02813,5.12301c-3.08209,3.08773-6.71919,5.56611-10.72038,7.30505-3.98651,1.75347-8.29431,2.65812-12.64942,2.65638-5.85875,.01977-11.60929-1.57791-16.61817-4.61704Z"/><path class="cls-6" d="M349.03676,113.9821h-36.36709l-6.54608,14.79983h-8.06402l28.73-65.16034h8.06402l28.74583,65.16034h-8.06402l-6.49864-14.79983Zm-3.03586-7.02043l-15.02119-34.20087-15.16349,34.24832,30.18468-.04745Z"/><path class="cls-6" d="M421.37568,94.34387c-1.77004,3.00377-4.26544,5.51546-7.2576,7.30505-3.17871,1.92202-6.74167,3.12047-10.43578,3.51022l16.60237,23.6228h-8.44348l-16.5075-23.43307h-14.42033v23.43306h-7.39995V63.62159h26.4689c4.1973-.05087,8.35074,.8577,12.14343,2.65638,3.51514,1.64224,6.51628,4.21149,8.68065,7.43153,4.02306,6.23373,4.24252,14.18834,.5692,20.63438h.0001Zm-40.46234,3.98456h17.74077c4.6118,.2315,9.17062-1.06944,12.96568-3.69995,5.60197-4.47429,6.51613-12.6427,2.04186-18.24467-.60259-.75443-1.28741-1.43928-2.04186-2.04184-3.79216-2.62265-8.34505-3.91792-12.94985-3.68415h-17.75664l.00005,27.67061Z"/><path class="cls-6" d="M493.69874,63.62159l-28.7458,65.16034h-8.06402l-28.73002-65.16034h8.04819l24.76125,56.05275,24.66638-56.05276h8.06402Z"/><path class="cls-6" d="M511.06009,70.64201v21.42496h35.38677v7.02043h-35.38677v22.6899h39.27645v7.02043h-46.77127V63.62159h46.77122v7.02043h-39.2764Z"/><path class="cls-6" d="M606.10467,121.77731v7.02043h-42.9764V63.62159h7.3999v58.15572h35.5765Z"/><path class="cls-1" d="M77.3746,154.88718c28.13522,18.94261,65.65376,15.7936,90.23781-7.57384-36.06665,9.32895-72.37049,8.71229-90.23781,7.57384Z"/><path class="cls-1" d="M172.86193,96.47846c5.32856-.15812,11.16311-.11068,17.21903-.45854v-1.18588c-.0664-39.94288-32.50032-72.26916-72.4432-72.20276-26.70431,.04439-51.21115,14.80046-63.74365,38.38136,14.75239,7.90589,38.69142,18.19936,76.71875,29.55222,7.62128,2.27689,34.34319,6.21403,42.24907,5.9136Z"/><path class="cls-1" d="M29.29098,31.65017s0,1.344,.11068,3.74739c-.04743-1.18588-.09487-2.4192-.11068-3.74739Z"/><path class="cls-6" d="M117.7895,11.90126c-30.60345-.01443-58.72965,16.81996-73.17691,43.79863,2.59313,1.58118,5.66062,3.38372,9.28151,5.31276,18.71263-35.28846,62.48916-48.72582,97.77763-30.01319,23.65275,12.5425,38.44175,37.12531,38.44086,63.89783v1.18588c-.04343,3.0479-.2811,6.08992-.71153,9.10759v.17393c-.56163,3.898-1.44481,7.74283-2.64056,11.49516-.2688,.83802-.55342,1.67604-.85383,2.49826-1.13879,3.17612-2.50203,6.26722-4.07944,9.24989l-.58503,1.10682c-1.80732,3.26821-3.86365,6.39236-6.15078,9.34475l-.2688,.34786c-23.36902,29.92887-65.90423,36.68894-97.40056,15.47973-5.54994-.34786-9.31314-.74316-10.75201-.90127h0l-.52179-.1265h-.17395l-8.38025-2.03971-.4111-.23718c31.3086,33.479,83.82931,35.23845,117.30831,3.92986,4.5373-4.24317,8.58388-8.98233,12.06367-14.12845,1.04358-1.58118,2.02391-3.16236,2.95679-4.74353l.15813-.30043c1.49155-2.5574,2.8377-5.19689,4.03201-7.90589,.18973-.42691,.39529-.85384,.56923-1.29657,1.26147-2.99531,2.34385-6.06292,3.24142-9.18664,.22136-.79059,.45853-1.58118,.66409-2.37177,1.03661-4.00751,1.76606-8.08824,2.18203-12.2067-.00777-.06301-.00777-.12674,0-.18975,.2688-2.71963,.4111-5.47087,.4111-8.26957h0c.00873-45.83744-37.14279-83.0031-82.98022-83.01183h-.00001Z"/><path class="cls-6" d="M38.22463,105.254c-.20555-.90127-.4111-1.78673-.61666-2.71963,.18975,.90127,.41111,1.84998,.61666,2.71963Z"/><path class="cls-6" d="M38.73061,107.37278c.15812,.71153,.33205,1.39143,.50598,2.07134-.34786-1.39143-.67991-2.79868-1.01195-4.19012,.23718,.71154,.33205,1.43888,.50598,2.11878Z"/><path class="cls-6" d="M37.60797,102.53437c-.39529-1.73929-.77478-3.46278-1.12263-5.20208,.39529,1.78673,.74316,3.51022,1.12263,5.20208Z"/><path class="cls-5" d="M145.87122,114.89919s-69.35046-10.51484-100.12018-26.32661c-3.1462-1.57844-6.1191-3.48089-8.87041-5.67642l.37949,1.75511c1.15426,5.24951,2.52988,10.72038,4.20593,16.33357l4.44311,1.58118c18.86345,6.70419,86.3165,29.17273,135.9813,26.01037,1.57741-2.98267,2.94065-6.07377,4.07944-9.24989,.30043-.82221,.58503-1.58118,.85383-2.49826-13.68114,.65065-27.39313,.00475-40.95251-1.92904Z"/><path class="cls-5" d="M29.67046,83.71836c.00889-.12106,.00889-.24262,0-.36368l-11.06825,15.81178h0l5.20208,9.96143h0l9.06015-7.90589c-1.15426-5.34438-2.22946-11.06825-3.19398-17.50364Z"/><path class="cls-7" d="M104.87128,95.71949c-27.41762-7.85844-45.3798-15.60622-56.44805-21.37752-4.06363-2.08715-7.19436-3.90551-9.48707-5.36019-1.73605-1.05322-3.41449-2.19857-5.02815-3.43115v.23718c.56923,4.33243,1.32819,8.98109,2.27689,13.85112,.20555,1.05939,.4111,2.11877,.63247,3.16236,2.76687,2.23227,5.76129,4.16672,8.93366,5.77129,30.76972,15.81178,100.12018,26.34243,100.12018,26.34243,13.52191,1.93739,27.19651,2.59384,40.84182,1.96066,1.19575-3.75233,2.07894-7.59716,2.64056-11.49516v-.17393c-22.94288,2.90936-52.25792-.18975-84.48232-9.48708Z"/><path class="cls-7" d="M54.40008,129.6832l-2.29271-.72734v.11068c4.10695,8.68676,8.94707,17.00753,14.46777,24.87192,1.43888,.15812,5.20208,.55341,10.75201,.90127,17.86731,1.13845,54.17115,1.75511,90.23781-7.57384,2.57899-2.45533,4.97308-5.09782,7.16273-7.90589l.2688-.34786c-40.38717,6.04659-81.61966,2.85698-120.59642-9.32894Z"/><path class="cls-7" d="M27.39356,65.18695l-15.22674,20.30233h0l6.32471,13.61394,11.06825-15.81178c-.79059-5.37601-1.58118-11.1473-2.13459-17.39296-.03162-.15812-.03162-.44273-.03162-.71154Z"/><path class="cls-7" d="M40.40666,127.39049l-3.68414,2.75125s6.8465,8.82298,7.51059,9.48707c1.23332,1.26495,2.35596,2.2927,3.36791,3.16236-2.80589-4.86896-5.19157-9.96828-7.13111-15.24255-.01823-.0538-.03934-.10658-.06325-.15812Z"/><path class="cls-3" d="M130.61285,90.56486c-37.94827-11.35286-61.96636-21.69376-76.71875-29.55222-3.6209-1.92904-6.68838-3.69996-9.28151-5.31276-4.55061-2.62501-8.75268-5.81243-12.50712-9.48707,.25299,5.20208,.77478,11.8114,1.77092,19.36943,1.61365,1.23258,3.2921,2.37794,5.02815,3.43115,2.32433,1.45468,5.45506,3.27304,9.48707,5.36019,11.06825,5.70805,29.03043,13.45583,56.36899,21.31428,32.30346,9.29732,61.66593,12.39643,84.5772,9.48707,.43042-3.01767,.6681-6.05969,.71153-9.10759-6.05591,.34786-11.89046,.30043-17.21903,.45854-7.87426,.25299-34.59617-3.68415-42.21744-5.96104Z"/><path class="cls-3" d="M45.86172,102.59762l-4.44311-1.58118,.07906,.25299c2.8416,9.50598,6.388,18.78686,10.6097,27.76548l2.29271,.72734c38.99168,12.19314,80.24124,15.38283,120.64388,9.32895,2.28713-2.95239,4.34346-6.07654,6.15078-9.34475l.58503-1.10682c-49.60155,3.13071-117.0546-19.33782-135.91805-26.04201Z"/><path class="cls-3" d="M36.48534,97.3323c-.52179-2.49826-1.01195-5.10721-1.58118-7.79521-3.19029-17.86329-5.05589-35.93796-5.58156-54.07628-.01582-2.40339-.03162-3.81064-.03162-3.81064l-3.76321,2.43502c.1265,4.47474,.30042,8.77554,.52179,12.93404,0,.61666,.07906,1.21751,.11068,1.81836l-17.74082,27.9236,3.69996,8.79135,15.27418-20.36557v.83802c.61666,6.18241,1.344,11.9537,2.13459,17.39296,.00889,.12106,.00889,.24262,0,.36368,.96452,6.32471,2.03972,12.15926,3.16236,17.39296l-9.04434,8.04819h0c.17393,.30043,3.82645,7.06787,6.32471,10.92594s6.11916,9.20245,6.64095,9.96143l3.68414-2.75125c.00264,.05267,.00264,.10545,0,.15812,1.93955,5.27428,4.32522,10.3736,7.13112,15.24255,1.05532,1.85596,2.26106,3.62225,3.60508,5.28113,.1242,.14717,.27424,.27043,.44273,.36368l5.53412,3.16236,.4111,.23718s-10.30928-10.38834-18.35748-42.37557c-.83802-3.98458-1.7551-8.0482-2.57731-12.09601Z"/><path class="cls-4" d="M66.62258,153.9859c-5.52071-7.86439-10.36083-16.18517-14.46778-24.87193v-.11068c-4.23861-8.98239-7.80088-18.26862-10.65714-27.78129l-.07906-.25299c-1.67605-5.61319-3.05167-11.06825-4.20593-16.33357l-.33205-1.73928c-.22136-1.0752-.42692-2.13459-.63247-3.16236-.9487-4.87003-1.70768-9.48707-2.27689-13.85112v-.23718c-.99614-7.55803-1.58118-14.2306-1.77092-19.36943-.37949-7.90589-.15812-12.53874-.15812-12.53874l-2.75125-2.08715c0,1.26494,0,2.49826,.11068,3.74739,0,.67991,0,1.48631,.09487,2.34014,.46836,17.38358,2.30291,34.70343,5.48668,51.79939,.49017,2.688,.98033,5.29694,1.58118,7.79521,.72734,3.55765,1.48631,6.90975,2.24527,10.04048,.15812,.71153,.33205,1.39143,.50598,2.07134,7.96914,31.98723,18.27842,42.37557,18.27842,42.37557l8.36443,2.05554h.18975l.52179,.1265-.04745-.01582Z"/></svg>