<svg width="612" height="206" viewBox="0 0 612 206" fill="none" xmlns="http://www.w3.org/2000/svg">
<g clip-path="url(#clip0)">
<path d="M180.6 105.9V96.5C180.6 87.2 182.9 80.1 187.6 75.4C192.2 70.7 198.8 68.3 207.3 68.3C214.9 68.3 220.9 70.1001 225.3 73.7001C229.7 77.3001 231.9 82.3001 231.9 88.7001V89.2001H223.6V88.8C223.6 84.7 222.2 81.5 219.3 79.3C216.5 77.1 212.4 76 207.2 76C201 76 196.5 77.7 193.5 81.1C190.5 84.5 189 89.8 189 97V106C189 113 190.5 118.1 193.5 121.5C196.5 124.8 201.1 126.5 207.3 126.5C212.5 126.5 216.6 125.4 219.4 123.2C222.2 121 223.6 117.8 223.6 113.6V113.2H231.8V113.7C231.8 120.1 229.6 125.1 225.2 128.8C220.8 132.4 214.7 134.2 207.1 134.2C198.7 134.2 192.2 131.8 187.6 127.1C182.9 122.3 180.6 115.2 180.6 105.9Z" fill="black"/>
<path d="M241.8 114.4V85.8H249.6V113.6C249.6 122.4 253.7 126.9 261.9 126.9C266.1 126.9 269.2 125.8 271.2 123.6C273.2 121.4 274.2 118.1 274.2 113.6V85.8H282V114.4C282 120.6 280.3 125.4 276.8 128.8C273.4 132.2 268.4 133.9 261.8 133.9C255.3 133.9 250.4 132.2 247 128.8C243.5 125.5 241.8 120.7 241.8 114.4Z" fill="black"/>
<path d="M300.3 85.8001V92.5001C301.8 90.1001 304 88.2001 306.5 87.0001C309.2 85.8001 312.2 85.1001 315.2 85.2001C316.5 85.2001 317.7 85.3001 319 85.5001V93.0001C317.3 92.5001 315.6 92.3001 313.9 92.3001C310.3 92.1001 306.8 93.5001 304.2 96.0001C301.7 98.5001 300.5 101.8 300.5 106V133.3H292.6V85.8001H300.3Z" fill="black"/>
<path d="M334.1 69.4V77.9H326.3V69.4H334.1ZM334.1 85.8V133.3H326.3V85.8H334.1Z" fill="black"/>
<path d="M351.9 111.8C351.9 122.1 356.6 127.2 366.1 127.2C369.7 127.2 372.5 126.4 374.5 124.7C376.4 123.1 377.6 120.8 377.6 118.3V118H385.3V118.4C385.3 121.2 384.4 124 382.9 126.4C381.2 128.9 378.9 130.8 376.2 132.1C373 133.6 369.5 134.3 366 134.2C359.2 134.2 353.8 132.3 350 128.4C346.2 124.5 344.2 118.9 344.2 111.5V107.7C344.2 100.4 346 94.8 349.7 90.9C353.4 87 358.5 85 365 85C371.4 85 376.4 86.8 380.1 90.4C383.8 94 385.6 99.2 385.6 106V111.6H352V111.8H351.9ZM351.9 105.5H377.7V104.7C377.7 100.4 376.6 97.1 374.4 95C372.2 92.9 369 91.8 364.9 91.8C360.9 91.8 357.8 92.9001 355.6 95.2001C353.4 97.4001 352.2 100.9 351.9 105.5Z" fill="black"/>
<path d="M407 82.2001V85.8H418.7V91.7001H407V133.2H399.2V91.7001H392.6V85.8H399.2V82.5C399.2 78.2 400.4 75.0001 402.8 72.7001C405.2 70.4001 408.6 69.3 413.1 69.3H418.7V75.1H414.4C411.8 75.1 410 75.7 408.8 76.8C407.6 78 407 79.8001 407 82.2001Z" fill="black"/>
<path d="M432.1 111.8C432.1 122.1 436.8 127.2 446.3 127.2C449.9 127.2 452.7 126.4 454.7 124.7C456.6 123.1 457.8 120.8 457.8 118.3V118H465.5V118.4C465.5 121.2 464.6 124 463.1 126.4C461.4 128.9 459.1 130.8 456.4 132.1C453.2 133.6 449.7 134.3 446.2 134.2C439.4 134.2 434 132.3 430.2 128.4C426.4 124.5 424.4 118.9 424.4 111.5V107.7C424.4 100.4 426.2 94.8 429.9 90.9C433.6 87 438.7 85 445.2 85C451.6 85 456.6 86.8 460.3 90.4C464 94 465.8 99.2 465.8 106V111.6H432.2V111.8H432.1ZM432.1 105.5H457.9V104.7C457.9 100.4 456.8 97.1 454.6 95C452.4 92.9 449.2 91.8 445.1 91.8C441.1 91.8 438 92.9001 435.8 95.2001C433.6 97.4001 432.4 100.9 432.1 105.5Z" fill="black"/>
<path d="M482.8 85.8V92.2001C484.4 89.9001 486.6 88.2 489.1 87C491.8 85.8 494.7 85.2001 497.7 85.2001C503.3 85.2001 507.6 86.8 510.6 90C513.7 93.2 515.2 97.7 515.2 103.3V133.1H507.4V104.3C507.4 100.3 506.4 97.3001 504.4 95.2001C502.4 93.2001 499.5 92.1 495.7 92.1C492.2 91.9 488.8 93.2 486.3 95.6C484 97.9 482.8 101.2 482.8 105.2V133H475V85.5H482.8V85.8Z" fill="black"/>
<path d="M523.6 119.1V118.8H531V119C530.9 121.4 532.1 123.7 534.1 125C536.2 126.5 539.4 127.2 543.7 127.2C547.6 127.2 550.7 126.6 552.9 125.3C555 124.2 556.3 122 556.2 119.6C556.3 117.7 555.4 116 553.8 115C552.2 114 549.6 113.2 546.1 112.9L539.4 112.1C534.2 111.5 530.4 110.1 528 108.1C525.6 106 524.3 103.1 524.3 99.3C524.2 95.2 526.1 91.3 529.4 89C532.8 86.5 537.5 85.2001 543.3 85.2001C549.4 85.2001 554.2 86.5 557.7 89C561.1 91.3 563 95.2 562.9 99.3V99.7001H555.5V99.4C555.6 97 554.4 94.8 552.3 93.6C550.2 92.3 547.2 91.6 543.4 91.6C539.5 91.6 536.6 92.2 534.6 93.5C532.7 94.6 531.6 96.6 531.7 98.8C531.6 100.6 532.4 102.3 533.8 103.3C535.2 104.3 537.6 105 541 105.4L548.1 106.3C553.3 106.9 557.2 108.3 559.8 110.4C562.3 112.5 563.6 115.5 563.6 119.3C563.8 123.6 561.7 127.7 558.2 130.1C554.6 132.7 549.6 133.9 543.3 133.9C537.1 133.9 532.2 132.6 528.7 130C525.4 127.3 523.4 123.3 523.6 119.1Z" fill="black"/>
<path d="M578 111.8C578 122.1 582.7 127.2 592.2 127.2C595.8 127.2 598.6 126.4 600.6 124.7C602.5 123.1 603.7 120.8 603.7 118.3V118H611.4V118.4C611.4 121.2 610.5 124 609 126.4C607.3 128.9 605 130.8 602.3 132.1C599.1 133.6 595.6 134.3 592.1 134.2C585.3 134.2 579.9 132.3 576.1 128.4C572.3 124.5 570.3 118.9 570.3 111.5V107.7C570.3 100.4 572.1 94.8 575.8 90.9C579.5 87 584.6 85 591.1 85C597.5 85 602.5 86.8 606.2 90.4C609.9 94 611.7 99.2 611.7 106V111.6H578.1V111.8H578ZM578 105.5H603.8V104.7C603.8 100.4 602.7 97.1 600.5 95C598.3 92.9 595.1 91.8 591 91.8C587 91.8 583.9 92.9001 581.7 95.2001C579.5 97.4001 578.3 100.9 578 105.5Z" fill="black"/>
<path d="M161 45.7V103.7C161 138.4 130.4 176.1 85.5 198.4V130.1L98.1 131.4C106.3 132.2 119.9 127.6 130.1 114.4C130.6 113.7 131 113.1 131.4 112.6C132 111.7 132.5 110.8 132.9 109.8L133 109.7C133 109.7 134.4 107.1 134.8 106.2C139.6 94.9 140.7 75.9 127.6 63.8C131.4 86.3 114 91.8 114 91.8C114 91.8 114.1 91.6 114.3 91.3C117.1 86.4 116.7 80.3 113.5 75.7C109.4 83.8 106.4 85.5 101.9 86.5L85.6 79.4V0L161 45.7Z" fill="black"/>
<path d="M75.6 59.9L26.1 143.3H42.7L73.9 129L75.5 129.2V205.9C30.6 183.6 0 145.8 0 111.2V53.0999L75.5 17.2V59.9H75.6Z" fill="black"/>
<path d="M94.9 104.9C97.4957 104.9 99.6 102.796 99.6 100.2C99.6 97.6042 97.4957 95.5 94.9 95.5C92.3043 95.5 90.2 97.6042 90.2 100.2C90.2 102.796 92.3043 104.9 94.9 104.9Z" fill="black"/>
</g>
<defs>
<clipPath id="clip0">
<rect width="611.7" height="205.9" fill="white"/>
</clipPath>
</defs>
</svg>
