<svg xmlns="http://www.w3.org/2000/svg" role="img" viewBox="-4.34 -3.34 226.42 316.42"><style>svg {enable-background:new 0 0 220 309}</style><path d="M64 297.3s-8 9.9-24.8 9.9c-22 0-37.3-17.1-37.3-39.2 0-22.3 15.3-39.3 37.3-39.3 16.8 0 24.8 9.8 24.8 9.8l-4 5.5s-7.6-8.5-20.6-8.5c-17.8 0-30 14.8-30 32.5 0 17.6 12.3 32.4 30 32.4 13 0 20.6-8.5 20.6-8.5l4 5.4zm96.1 8.1h-5.5l-49.2-62.9v62.9h-7.1v-75.1h5.8l48.9 62.6v-62.6h7.1v75.1zm56 0H209v-75.1h7.1v75.1zm-16.2-183.2l-37.5-26.9 37.5-26.9c.8-.6 1.3-1.7 1.3-2.9s-.5-2.3-1.3-2.9L117 3.3c-.8-.6-1.8-.6-2.7 0L31.4 62.7c-.8.6-1.3 1.7-1.3 2.9V125c0 1.2.5 2.3 1.3 2.9l82.9 59.4c.4.3.9.4 1.3.4.5 0 .9-.1 1.3-.4l82.9-59.4c.8-.6 1.3-1.7 1.3-2.9.2-1.2-.3-2.3-1.2-2.8zm-52.8-23.5l-11.6-8.5 31.7-23.8.9-.8.3-.2-16.2-11.8 12-9 29.1 20.8-6.6 5-39.6 28.3zM100.3 21l11.7 8.5-45.4 34.1L54 54.4l3.5-2.6L100.3 21zm60.2 21.1l-11.9 9-44.7-32.6 11.8-8.5 44.8 32.1zm-41.3 36.2l29.4-22.1 12.6 9.2-29.4 22.1-12.6-9.2zm9.1 11.9l-12.5 9.4L70 66.2l45.4-34.1L145 53.7l-32.9 24.7 16.2 11.8zM50.4 57l12.7 9.2L51.4 75l-12.8-9.1L50.4 57zm4.4 20.6l11.7-8.8 45.9 33.5-11.3 8.5-46.3-33.2zM132 92.8l11.5 8.4-27.8 19.9-11-7.9L132 92.8zM35.4 71.3l33.5 24-33.5 24v-48zm80.3 109.3L38.1 125l36.2-25.9 40.1 28.8c.4.3.9.4 1.3.4h.1l.4.3 1.9-1.4 39.1-28 36.2 25.9-77.7 55.5z"/></svg>