<svg xmlns="http://www.w3.org/2000/svg" role="img" viewBox="-0.69 8.31 360.88 347.13"><path d="M52.315 285.844c-1.87 1.995-3.929 4.24-6.236 6.734s-4.739 4.989-7.295 7.607c-2.494 2.557-4.988 5.113-7.483 7.608s-4.863 4.8-7.046 6.983a74.97 74.97 0 018.106 6.61 132.007 132.007 0 018.356 8.355c2.743 2.993 5.3 5.986 7.732 9.104a71.11 71.11 0 015.986 8.854H44.27a80.943 80.943 0 00-6.173-8.418 113.45 113.45 0 00-7.358-8.106 104.698 104.698 0 00-7.856-7.17 62.706 62.706 0 00-7.732-5.612v29.306H6.485v-61.855h8.667v27.311c2.057-1.933 4.365-4.178 6.859-6.672s4.988-4.926 7.42-7.42 4.739-4.863 6.921-7.17 3.99-4.303 5.487-6.049zm45.019 60.483c-1.933.5-4.427.998-7.545 1.497a70.032 70.032 0 01-10.85.81 23.31 23.31 0 01-8.978-1.558 13.728 13.728 0 01-5.861-4.427 17.188 17.188 0 01-3.18-6.735 36.458 36.458 0 01-.998-8.605v-26.001h8.293v24.256c0 5.674.873 9.664 2.681 12.159 1.808 2.431 4.801 3.678 8.98 3.678.872 0 1.807 0 2.743-.062s1.87-.125 2.681-.25c.81-.062 1.621-.186 2.245-.249a6.401 6.401 0 001.496-.311v-39.221h8.293zm22.011-42.961a20.439 20.439 0 014.614-2.058 21.147 21.147 0 017.109-1.06 20.487 20.487 0 018.854 1.808 17.817 17.817 0 016.547 4.988 21.138 21.138 0 014.053 7.67 32.59 32.59 0 011.372 9.79 29.313 29.313 0 01-1.621 10.1 21.294 21.294 0 01-4.677 7.608 20.375 20.375 0 01-7.295 4.801 25.367 25.367 0 01-9.603 1.684 57.229 57.229 0 01-10.288-.81c-2.993-.562-5.425-1.06-7.295-1.622V279.92l8.293-1.434zm0 37.1a34.516 34.516 0 003.492.686 42.684 42.684 0 005.674.312 13.825 13.825 0 0010.725-4.427c2.681-2.93 3.99-7.109 3.99-12.533a34.118 34.118 0 00-.685-6.672 16.03 16.03 0 00-2.307-5.425 11.291 11.291 0 00-4.116-3.554 13.02 13.02 0 00-6.11-1.31 16.536 16.536 0 00-6.236 1.185 15.04 15.04 0 00-4.364 2.432zm41.154-15.9a29.786 29.786 0 011.746-10.725 22.98 22.98 0 014.739-7.607 19.188 19.188 0 016.796-4.552 21.196 21.196 0 017.857-1.497c6.235 0 11.037 1.933 14.341 5.862 3.305 3.866 4.989 9.852 4.989 17.77v2.931h-31.8c.373 4.802 1.745 8.48 4.177 10.975s6.235 3.74 11.41 3.74a29.213 29.213 0 007.358-.747 27.093 27.093 0 004.49-1.497l1.185 6.921a26.216 26.216 0 01-5.3 1.684 36.336 36.336 0 01-8.605.873 28.737 28.737 0 01-10.476-1.808 19.49 19.49 0 01-7.233-5.051 20.794 20.794 0 01-4.24-7.607 28.409 28.409 0 01-1.434-9.665zm31.8-4.552a13.937 13.937 0 00-2.805-9.228 9.639 9.639 0 00-7.982-3.617 10.882 10.882 0 00-5.05 1.123 10.507 10.507 0 00-3.68 2.93 14.18 14.18 0 00-2.369 4.116 20.2 20.2 0 00-1.122 4.738zm70.523-34.17c-2.245 6.547-4.427 12.596-6.423 18.145-2.057 5.55-4.053 10.85-6.048 15.838-1.933 4.988-3.928 9.79-5.861 14.341s-3.929 9.104-5.924 13.531h-8.106c-1.995-4.49-3.99-8.979-5.924-13.53s-3.865-9.354-5.86-14.342-4.054-10.288-6.111-15.838-4.24-11.598-6.423-18.145h9.54c3.18 9.416 6.36 18.457 9.478 27.124s6.298 16.836 9.54 24.443c3.243-7.545 6.423-15.651 9.54-24.38s6.236-17.771 9.353-27.125zm11.598 7.046a5.427 5.427 0 01-3.804-1.496 5.887 5.887 0 010-7.982 5.582 5.582 0 017.607 0 5.887 5.887 0 010 7.982 5.073 5.073 0 01-3.803 1.496zm4.177 54.747h-8.293v-46.33h8.293zm30.866-47.327c.686 0 1.558.063 2.431.125a20.706 20.706 0 012.744.374c.873.125 1.684.312 2.432.437l1.683.374-1.434 7.233a26.41 26.41 0 00-9.103-1.31 23.221 23.221 0 00-4.615.5c-1.496.31-2.494.56-2.993.685v38.971h-8.293v-44.458a60.177 60.177 0 017.296-1.995 52.704 52.704 0 019.852-.936zm24.567.998h17.584v6.984H334.03v21.387a22.132 22.132 0 00.561 5.737 8.4 8.4 0 001.622 3.554 5.295 5.295 0 002.68 1.808 12.65 12.65 0 003.742.561 16.75 16.75 0 006.048-.873c1.497-.561 2.557-.935 3.18-1.185l1.622 6.86a36.358 36.358 0 01-4.365 1.558 22.987 22.987 0 01-7.109.936 21.923 21.923 0 01-7.794-1.185 11.427 11.427 0 01-4.926-3.617 14.078 14.078 0 01-2.619-5.923 35.908 35.908 0 01-.748-8.169v-41.403l8.293-1.434z" data-name="Layer 2"/><path d="M300.96 157.75l-20.974-90.475c-.137-.548-.41-1.096-.548-1.645a17.228 17.228 0 00-3.701-5.209l-.094.184-.043-.047a14.524 14.524 0 00-1.645-1.37 15.028 15.028 0 00-2.879-1.92L186.634 16.83l-.823-.411a8.867 8.867 0 00-1.782-.548c-.128-.033-.277-.044-.417-.065-.458-.067-.945-.105-1.365-.21a16.59 16.59 0 00-2.604-.137 34.938 34.938 0 00-5.347.274 6.88 6.88 0 00-1.645.275L88.346 56.72c-.2.075-.392.168-.583.26a9.909 9.909 0 00-1.636 1c-.229.171-.449.347-.66.522-.083.066-.158.14-.24.207l-.095.083-.033-.067-.011-.023-.032-.063a14.61 14.61 0 00-5.209 8.362l-20.7 91.022a15.635 15.635 0 00-.273 3.564 8.432 8.432 0 00.137 1.783 19.582 19.582 0 003.153 8.087l31.302 38.798 7.492 9.318 19.465 24.126a21.715 21.715 0 008.774 5.072 14.357 14.357 0 002.33.549c.548 0 1.234.137 1.782.137h93.215a28.857 28.857 0 003.428-.274 14.026 14.026 0 009.321-5.484l43.592-53.873 14.805-18.369a19.251 19.251 0 002.741-5.894 3.859 3.859 0 01.107-.64c.005-.03.012-.06.015-.091.003-.03.016-.061.016-.091a18.612 18.612 0 00.537-5.086c-.013-.627-.05-1.26-.126-1.906zm-64.029-20.96l-.01.011a6.957 6.957 0 01-8.066 1.483 6.855 6.855 0 01-3.153-9.185l9.733-19.603v-.137a6.512 6.512 0 011.584-2.088 6.958 6.958 0 017.6-.927 6.69 6.69 0 013.016 9.184l-2.812 5.694-.07.143-2.601 5.267-4.113 8.636a7.197 7.197 0 01-1.108 1.521zm-9.584 19.177l-2.467 4.798-7.129 14.805a7.193 7.193 0 01-1.253 1.675c-.04.04-.084.077-.126.116a7.008 7.008 0 01-1.944 1.31 6.87 6.87 0 01-9.014-9.27l9.733-19.603a6.968 6.968 0 019.184-3.015 6.888 6.888 0 013.462 7.977c-.026.093-.057.186-.086.278a7.07 7.07 0 01-.36.93zm-26.616 52.261a6.922 6.922 0 01-7.33 1.59c-.2-.074-.4-.157-.599-.252a6.855 6.855 0 01-3.152-9.184l4.934-9.87a6.918 6.918 0 014.116-3.21 6.823 6.823 0 018.35 8.574l-.004.016c-.04.126-.076.252-.124.377-.137.137-.137.137-.137.274l-4.798 10.007a7.198 7.198 0 01-1.11 1.524c-.049.051-.096.104-.146.154zm1.646-95.99a6.718 6.718 0 01-1.898-.685 7.116 7.116 0 01-2.879-9.322l12.063-23.03h4.25a6.368 6.368 0 013.153.823 6.868 6.868 0 012.879 9.321l-10.281 19.329a6.733 6.733 0 01-7.287 3.564zm56.362-18.369l-.686 1.92-.137.136a6.92 6.92 0 01-.872 1.181l-.004.004a6.939 6.939 0 01-3.647 2.105c-.053.012-.106.017-.159.027a6.893 6.893 0 01-8.066-5.236h-8.225a6.854 6.854 0 010-13.708h28.65l-6.498 12.866zm-72.105 28.924a6.899 6.899 0 1112.2 6.443l-10.281 19.329a6.824 6.824 0 01-12.378-.52 7.252 7.252 0 01.178-5.923zm-63.205 12.916L95.886 79.476h55.518l.074.137L173.61 120.6l-7.54 14.12-.274.137-22.481-41.673h-24.538l38.657 82.112 5.484-10.419a6.91 6.91 0 0112.708 1.201c.013.041.021.084.033.125.035.13.072.261.1.394a6.788 6.788 0 01-.641 4.723l-10.007 18.78-7.641 14.191-.036.066-.137.274-.02-.04-21.178-43.07-7.315-14.875-4.285-8.75z"/></svg>