<svg id="Layer_1" data-name="Layer 1" xmlns="http://www.w3.org/2000/svg" viewBox="0 0 590 240"><defs><style>.cls-1{fill:#fff;}</style></defs><title>kubernetes-summit-seoul-white</title><path class="cls-1" d="M324.37287,121.98878a5.09483,5.09483,0,0,0,4.37689-1.99811,8.687,8.687,0,0,0,1.47381-5.28009v.00006q0-6.85044-5.04229-6.85047a8.37578,8.37578,0,0,0-2.16431.2854,6.17442,6.17442,0,0,0-1.73663.71369V121.7511q.52339.09531,1.33209.1662Q323.42084,121.9888,324.37287,121.98878Z"/><path class="cls-1" d="M433.94971,110.61963a4.41567,4.41567,0,0,0-.809-1.5227,4.3184,4.3184,0,0,0-1.3797-1.09375,4.49572,4.49572,0,0,0-2.069-.42835,4.76469,4.76469,0,0,0-2.04578.40448,4.23285,4.23285,0,0,0-1.42737,1.07056,4.80827,4.80827,0,0,0-.87994,1.546,10.15256,10.15256,0,0,0-.45215,1.78363h9.37219A7.426,7.426,0,0,0,433.94971,110.61963Z"/><path class="cls-1" d="M358.075,110.61963a4.39294,4.39294,0,0,0-.8078-1.5227,4.31852,4.31852,0,0,0-1.37976-1.09375,4.4974,4.4974,0,0,0-2.07019-.42835,4.76277,4.76277,0,0,0-2.04455.40448,4.22071,4.22071,0,0,0-1.42743,1.07056,4.80814,4.80814,0,0,0-.87989,1.546,10.1536,10.1536,0,0,0-.45221,1.78363h9.37226A7.31109,7.31109,0,0,0,358.075,110.61963Z"/><path class="cls-1" d="M481.90082,110.61963a4.41434,4.41434,0,0,0-.809-1.5227,4.31852,4.31852,0,0,0-1.37976-1.09375,4.49544,4.49544,0,0,0-2.069-.42835,4.76469,4.76469,0,0,0-2.04578.40448,4.23367,4.23367,0,0,0-1.42743,1.07056,4.80811,4.80811,0,0,0-.87988,1.546,10.15272,10.15272,0,0,0-.45221,1.78363H482.21A7.426,7.426,0,0,0,481.90082,110.61963Z"/><path class="cls-1" d="M461.51056,154.15589a5.18789,5.18789,0,0,0,2.71228-2.4541,13.78071,13.78071,0,0,0,1.41138-6.12079,7.47781,7.47781,0,0,0-.068-1.12787c-.14209-.69855-.01879-1.70618-.8786-1.86334-.82995-.15174-1.18621.759-1.52124,1.39667a23.69572,23.69572,0,0,0-2.51935,9.51446C460.59174,154.28986,460.89044,154.38685,461.51056,154.15589Z"/><path class="cls-1" d="M187.3626,75.33448l20.45775,60.09733L173.462,189.85816H580.9978V75.33448Zm316.8719,43.6333a20.05716,20.05716,0,0,0-3.18714-1.45068,32.29376,32.29376,0,0,1-3.021-1.28443,8.86186,8.86186,0,0,1-2.30731-1.59363,6.4405,6.4405,0,0,1-1.4751-2.212,8.17348,8.17348,0,0,1-.52307-3.09186,6.68467,6.68467,0,0,1,2.61651-5.566,11.38172,11.38172,0,0,1,7.18341-2.04517,23.09781,23.09781,0,0,1,4.37635.40394,20.48253,20.48253,0,0,1,3.3302.88049l-1.23676,5.51776a26.07088,26.07088,0,0,0-2.6886-.76074,14.61492,14.61492,0,0,0-3.25811-.333q-3.33078,0-3.3302,1.8551a1.90919,1.90919,0,0,0,.143.76074,1.61674,1.61674,0,0,0,.57074.64222,7.92187,7.92187,0,0,0,1.16589.66912q.73692.36018,1.87836.79065a29.22663,29.22663,0,0,1,3.85321,1.703,9.2305,9.2305,0,0,1,2.40265,1.81237,5.60977,5.60977,0,0,1,1.23676,2.16,9.56521,9.56521,0,0,1,.35681,2.75214,6.3433,6.3433,0,0,1-2.78272,5.60144q-2.78274,1.89816-7.87268,1.89849a22.22482,22.22482,0,0,1-8.61084-1.52209l1.18909-5.756a23.20244,23.20244,0,0,0,3.71026,1.11761,18.0086,18.0086,0,0,0,3.75916.40454,7.06575,7.06575,0,0,0,2.75824-.38067,1.47018,1.47018,0,0,0,.809-1.47449A1.80891,1.80891,0,0,0,504.2345,118.96778Zm-37.65131-9.704a12.46352,12.46352,0,0,1,2.68738-4.16242,11.17424,11.17424,0,0,1,3.8288-2.52124,11.99547,11.99547,0,0,1,4.44836-.85608,11.05992,11.05992,0,0,1,8.42023,3.25812q3.09063,3.25928,3.09186,9.58545c0,.41248-.01709.86463-.04767,1.3559q-.04761.73782-.09528,1.30829h-16.079a4.71062,4.71062,0,0,0,2.04578,3.47253,8.22083,8.22083,0,0,0,4.85174,1.28442,20.5112,20.5112,0,0,0,3.83-.35681,14.41771,14.41771,0,0,0,3.06866-.87994l.95081,5.756a9.80953,9.80953,0,0,1-1.52155.57074,19.975,19.975,0,0,1-2.11786.49921q-1.16592.2145-2.49676.35687a24.98322,24.98322,0,0,1-2.66412.143,15.76326,15.76326,0,0,1-5.87464-.99909,11.43185,11.43185,0,0,1-4.13922-2.735,10.8562,10.8562,0,0,1-2.42584-4.11481,16.307,16.307,0,0,1-.78449-5.1377A15.27889,15.27889,0,0,1,466.58319,109.26374Zm-152.39038-17.625,7.08753-1.14142v12.4635a13.29037,13.29037,0,0,1,2.47412-.809,12.71357,12.71357,0,0,1,2.75891-.28534,11.29928,11.29928,0,0,1,4.7099.92755,9.2187,9.2187,0,0,1,3.42431,2.64032,11.86813,11.86813,0,0,1,2.09345,4.11475,18.77353,18.77353,0,0,1,.71368,5.35156,15.81571,15.81571,0,0,1-.88116,5.423,11.44665,11.44665,0,0,1-2.54437,4.13861,11.173,11.173,0,0,1-4.09156,2.64032,15.36219,15.36219,0,0,1-5.51776.92756q-1.28412,0-2.68738-.11914-1.40414-.11912-2.75885-.30915-1.35653-.19069-2.59265-.4516-1.23834-.2612-2.18817-.54687Zm-58.46356,2.80652h7.42114v12.39019q2.86149-3.00632,5.8147-6.28826,2.95221-3.28135,5.45355-6.10193h8.8064q-3.36475,4.00818-6.771,7.70654-3.4042,3.69929-7.16693,7.445a56.5546,56.5546,0,0,1,7.63135,7.82806,97.74112,97.74112,0,0,1,7.06732,9.98694l-8.8222-.00006q-1.00278-1.60849-2.36231-3.478-1.3602-1.868-2.93121-3.7677-1.57-1.89734-3.28742-3.6394a35.14365,35.14365,0,0,0-3.43225-3.07721v13.96234h-7.42114Zm18.74261,73.63586q-3.23547,2.54535-9.75164,2.54505a27.15155,27.15155,0,0,1-3.94855-.26154,25.58212,25.58212,0,0,1-3.11572-.64221,17.84609,17.84609,0,0,1-2.33112-.809,17.61049,17.61049,0,0,1-1.6413-.80841l2.09345-5.899a18.61544,18.61544,0,0,0,3.6394,1.45123,18.8842,18.8842,0,0,0,5.30378.64209,10.71863,10.71863,0,0,0,2.59265-.26153,4.77463,4.77463,0,0,0,1.64129-.71369,2.39191,2.39191,0,0,0,.85608-1.07055,3.82034,3.82034,0,0,0,.23767-1.37977,3.18849,3.18849,0,0,0-1.52209-2.68737,21.76535,21.76535,0,0,0-5.233-2.30725q-1.61775-.571-3.23487-1.30829a11.89644,11.89644,0,0,1-2.90124-1.85511,8.85685,8.85685,0,0,1-2.09345-2.71124,8.4885,8.4885,0,0,1-.80841-3.87707,9.5992,9.5992,0,0,1,.85608-4.11475,8.79367,8.79367,0,0,1,2.42584-3.11633,11.10625,11.10625,0,0,1,3.80561-1.9737,17.09358,17.09358,0,0,1,5.043-.68982,20.16334,20.16334,0,0,1,9.7517,2.28345l-2.1405,5.85077a20.355,20.355,0,0,0-3.06866-1.26062,13.30151,13.30151,0,0,0-4.06714-.54687,7.46277,7.46277,0,0,0-3.82941.73754,2.48778,2.48778,0,0,0-1.16522,2.25965,2.60824,2.60824,0,0,0,.42773,1.52209,4.16278,4.16278,0,0,0,1.2135,1.11762,10.5841,10.5841,0,0,0,1.8075.90375q1.022.40512,2.25964.83282,2.56915.95233,4.47162,1.879a11.96319,11.96319,0,0,1,3.16339,2.1643,7.85016,7.85016,0,0,1,1.879,2.90186,11.67112,11.67112,0,0,1,.61841,4.04327A8.5873,8.5873,0,0,1,274.47186,168.08112Zm29.8263,1.02289a39.526,39.526,0,0,1-4.66223.97522,38.39215,38.39215,0,0,1-5.99378.45154,14.22892,14.22892,0,0,1-5.30383-.85608,8.04186,8.04186,0,0,1-3.354-2.40265,9.35726,9.35726,0,0,1-1.75983-3.6864,19.797,19.797,0,0,1-.52362-4.70935V144.93775H289.789v13.08191a10.13953,10.13953,0,0,0,.90375,4.94763,3.594,3.594,0,0,0,3.37781,1.5221q.75989,0,1.61743-.07148.85611-.07058,1.52216-.1662v-19.314h7.08813Zm3.23547-42.54828a39.52653,39.52653,0,0,1-4.66229.97522,38.38874,38.38874,0,0,1-5.99371.45154,14.22945,14.22945,0,0,1-5.3039-.85608,8.04262,8.04262,0,0,1-3.354-2.40265,9.35645,9.35645,0,0,1-1.75977-3.6864,19.79391,19.79391,0,0,1-.52368-4.70935V102.38947h7.08807v13.08185a10.14008,10.14008,0,0,0,.90375,4.94763,3.594,3.594,0,0,0,3.37787,1.52216q.75979,0,1.61743-.07154.85611-.07048,1.52216-.1662v-19.3139h7.08813Zm38.00769,43.40436h-7.08813V156.68818a9.77635,9.77635,0,0,0-.88-4.8523,3.26523,3.26523,0,0,0-3.021-1.42743,6.39264,6.39264,0,0,0-1.59357.2854,6.224,6.224,0,0,0-1.689.71369,10.86355,10.86355,0,0,1,.42773,2.30731q.09531,1.21261.09534,2.59265v13.65259h-7.08814V156.68818a9.77688,9.77688,0,0,0-.87994-4.8523,3.264,3.264,0,0,0-3.02039-1.42743c-.44482,0-.90368.02387-1.3797.07147q-.7131.07151-1.37976.16688v19.31329h-7.08752V145.79444q.90281-.23741,2.1167-.49982,1.21261-.26028,2.56884-.4754,1.35553-.21452,2.78272-.333,1.427-.11819,2.80652-.11914a11.805,11.805,0,0,1,4.40069.68988,9.94347,9.94347,0,0,1,2.78211,1.64124,13.25893,13.25893,0,0,1,7.1358-2.33112,12.50227,12.50227,0,0,1,4.92377.83283,7.41228,7.41228,0,0,1,3.06744,2.35437,8.88957,8.88957,0,0,1,1.57044,3.61554,23.29155,23.29155,0,0,1,.42895,4.66168Zm-.59533-45.61633a10.85431,10.85431,0,0,1-2.42585-4.11475,16.30765,16.30765,0,0,1-.78448-5.13776,15.30358,15.30358,0,0,1,1.02167-5.82751,12.4852,12.4852,0,0,1,2.68859-4.16242,11.16865,11.16865,0,0,1,3.83-2.52118,11.98353,11.98353,0,0,1,4.44714-.85607,11.058,11.058,0,0,1,8.42023,3.258q3.09064,3.25937,3.09186,9.58551c0,.41242-.01709.86463-.04767,1.3559q-.04761.73782-.09527,1.30823h-16.079a4.7073,4.7073,0,0,0,2.04578,3.47259,8.2223,8.2223,0,0,0,4.85291,1.28443,20.4998,20.4998,0,0,0,3.82879-.35688,14.43633,14.43633,0,0,0,3.06867-.87988l.9508,5.756a9.80344,9.80344,0,0,1-1.52154.57068,19.9752,19.9752,0,0,1-2.11786.49927q-1.16592.21441-2.498.35681a24.91436,24.91436,0,0,1-2.663.143,15.76144,15.76144,0,0,1-5.87457-.999A11.43,11.43,0,0,1,344.946,124.34376Zm41.60131,45.61633h-7.08813V156.68818a9.79087,9.79087,0,0,0-.87995-4.8523,3.26522,3.26522,0,0,0-3.021-1.42743,6.39264,6.39264,0,0,0-1.59357.2854,6.2066,6.2066,0,0,0-1.689.71369,10.86355,10.86355,0,0,1,.42773,2.30731q.09531,1.21261.09534,2.59265v13.65259h-7.08814V156.68818a9.77606,9.77606,0,0,0-.87988-4.8523,3.264,3.264,0,0,0-3.021-1.42743c-.44488,0-.90313.02387-1.37854.07147q-.71493.07151-1.381.16688v19.31329h-7.08685V145.79444q.90372-.23741,2.11664-.49982,1.2117-.26028,2.56885-.4754,1.3547-.21452,2.78271-.333,1.42622-.11819,2.80591-.11914a11.80036,11.80036,0,0,1,4.40076.68988,9.93894,9.93894,0,0,1,2.78271,1.64124,13.25032,13.25032,0,0,1,7.13574-2.33112,12.50235,12.50235,0,0,1,4.92383.83283,7.42478,7.42478,0,0,1,3.06867,2.35437,8.90408,8.90408,0,0,1,1.56915,3.61554,23.28715,23.28715,0,0,1,.42895,4.66168Zm-.76257-61.2909q-.95151-.23739-2.23523-.49981a13.89433,13.89433,0,0,0-2.75946-.26154,12.893,12.893,0,0,0-1.59363.11914,9.3528,9.3528,0,0,0-1.403.26154v19.12323h-7.088V103.72156a42.76188,42.76188,0,0,1,4.49482-1.26056,25.931,25.931,0,0,1,5.78051-.5946q.5701,0,1.3797.07153.80658.07151,1.61683.19.80841.11919,1.61682.28533a7.69535,7.69535,0,0,1,1.37976.40455Zm7.18463,61.2909V144.93775h7.08814l.00006,25.02234Zm6.493-29.18475a4.5122,4.5122,0,0,1-5.94671,0,4.3653,4.3653,0,0,1,0-6.13611,4.51217,4.51217,0,0,1,5.94671,0,4.36242,4.36242,0,0,1,0,6.13611Zm4.92255-31.4878q-.90372-1.427-3.37665-1.42737-.76254,0-1.618.07148-.85611.07149-1.52155.16681v19.31335h-7.08813V103.24616a39.5977,39.5977,0,0,1,4.661-.97522,38.31015,38.31015,0,0,1,5.99439-.45215,14.6046,14.6046,0,0,1,5.30389.83283,7.98116,7.98116,0,0,1,3.35461,2.35437,9.20327,9.20327,0,0,1,1.75983,3.61554,19.26542,19.26542,0,0,1,.52307,4.66168v14.12854h-7.08813V114.1399A9.555,9.555,0,0,0,404.38489,109.28754Zm41.185,64.09754a18.58048,18.58048,0,0,1-16.60877.93927,11.06812,11.06812,0,0,1-5.99768-5.71833l.11585.64038a20.01434,20.01434,0,0,1-2.85358.90369,16.64788,16.64788,0,0,1-3.85321.38074,12.68953,12.68953,0,0,1-4.8053-.78461,7.541,7.541,0,0,1-3.04419-2.18817,8.13612,8.13612,0,0,1-1.59363-3.40167,20.04388,20.04388,0,0,1-.45214-4.424l-.00013-21.02607,7.08814-1.14141v7.37286h8.51556v5.899h-8.51556v8.80035a6.99946,6.99946,0,0,0,.7846,3.56787q.78462,1.33273,3.164,1.33209a13.578,13.578,0,0,0,2.355-.21386,12.13675,12.13675,0,0,0,2.09631-.5575,11.06614,11.06614,0,0,1,.77386-3.87616q.09082-.22842.19166-.4527a8.67557,8.67557,0,0,1,4.61334-4.59765,17.584,17.584,0,0,1,6.5354-1.67725c.67-.01672,1.65271-.17608,1.85919.59473.20581.76825-.76605.93121-1.32373,1.21564A9.36236,9.36236,0,0,0,429.923,164.231a10.24215,10.24215,0,0,0,.2005,1.507c.79693,3.473,2.98108,5.49371,6.00988,5.58612a7.3905,7.3905,0,0,0,7.46686-5.26c1.05664-3.39831.24549-6.5556-1.26605-9.61035a30.04207,30.04207,0,0,0-4.37994-6.05859,23.34171,23.34171,0,0,1-5.67682-12.25324,13.817,13.817,0,0,1,2.37567-10.35077c-.37543.05213-.75812.1012-1.1557.14374a24.95186,24.95186,0,0,1-2.66413.143,15.762,15.762,0,0,1-5.87463-.999,11.43111,11.43111,0,0,1-4.13922-2.735,10.85583,10.85583,0,0,1-2.42584-4.11475,16.30738,16.30738,0,0,1-.78449-5.13776,15.27889,15.27889,0,0,1,1.02289-5.82751,12.46445,12.46445,0,0,1,2.68738-4.16242,11.17557,11.17557,0,0,1,3.82879-2.52118,11.99543,11.99543,0,0,1,4.44843-.85607,11.05971,11.05971,0,0,1,8.42017,3.258q3.09072,3.25937,3.09191,9.58551c0,.41242-.01708.86463-.04766,1.3559q-.0477.73782-.09534,1.30823h-16.079a4.71073,4.71073,0,0,0,2.04578,3.47259,8.22061,8.22061,0,0,0,4.85168,1.28443,20.51212,20.51212,0,0,0,3.83-.35688,14.41365,14.41365,0,0,0,3.06866-.87988l.55457,3.35718a15.53741,15.53741,0,0,1,5.67413-1.37238c.42908-.02508.85864-.04223,1.19074-.05841.33654-.0094.67211.0058,1.00775.01819a8.11948,8.11948,0,0,1-.316-1.0885,20.04426,20.04426,0,0,1-.45215-4.424l-.00012-21.026,7.08813-1.14142v7.37286h8.51556v5.899h-8.51556v8.80029a6.99948,6.99948,0,0,0,.78461,3.56787q.78451,1.33264,3.164,1.3321a13.5848,13.5848,0,0,0,2.355-.21387,12.14169,12.14169,0,0,0,2.212-.59455l.99841,5.5177a20.01458,20.01458,0,0,1-2.85358.90375,16.64109,16.64109,0,0,1-3.72674.37561,7.45964,7.45964,0,0,1,.10846,4.57941c-1.52686,5.57654-5.15833,9.09686-10.86548,9.00256a4.81807,4.81807,0,0,1-.7013-.03753c-.30322-.04993-.6568-.08765-.786-.41236-.145-.36456.172-.57025.398-.7716a18.65566,18.65566,0,0,0,3.501-4.07581,12.49539,12.49539,0,0,0,2.00684-5.44049c.31085-3.29492-1.58387-4.94672-4.81775-4.17108a7.399,7.399,0,0,0-5.57617,7.35077c-.08973,4.068,1.57067,7.52221,3.92315,10.67633,2.38153,3.193,4.91217,6.27667,6.4986,9.9848a19.398,19.398,0,0,1,1.79339,7.9325A11.74873,11.74873,0,0,1,445.56989,173.38508Zm104.27282-18.511a25.15,25.15,0,0,1-5.45819,13.23682,7.683,7.683,0,0,1-5.37219,3.01312,5.11089,5.11089,0,0,1-5.53754-3.41535c-.25067-.5957-.42877-1.22186-.676-1.93725-.67664.858-1.26111,1.67407-1.92267,2.422a7.87375,7.87375,0,0,1-4.95593,2.872,5.49429,5.49429,0,0,1-5.82044-3.44738,16.34873,16.34873,0,0,1-1.23547-6.78968c-.63965.99622-1.13452,1.80066-1.66272,2.58258a15.98152,15.98152,0,0,1-3.69251,4.05286,5.54319,5.54319,0,0,1-8.42034-1.49365,12.80749,12.80749,0,0,1-1.87244-6.68213c-.02283-.46655-.0033-.93524-.0033-1.5744a20.98038,20.98038,0,0,1-3.10431,1.75323c-.37188.151-.38635.65088-.52832,1.00977-1.63916,4.14514-4.12964,7.53161-8.40942,9.26568a11.22905,11.22905,0,0,1-14.65222-5.33831c-.10736-.203-.22107-.40259-.39386-.7165a17.447,17.447,0,0,1-5.356,5.405c-5.6051,3.31836-11.69067,2.85181-15.60748-3.655a16.35837,16.35837,0,0,1-2.10126-5.67865,20.7235,20.7235,0,0,1,1.10956-11.39794,9.68372,9.68372,0,0,1,6.03308-5.9842,1.41966,1.41966,0,0,0,.96142-1.04614,10.03927,10.03927,0,0,1,2.21515-3.81982c3.08026-3.25891,7.62989-2.54059,9.52265,1.52789a11.65593,11.65593,0,0,1,.33868,8.3642c-1.63769,5.71344-5.70843,8.64666-11.37109,9.6-.91883.15473-1.18469.37549-.93707,1.30628a15.01307,15.01307,0,0,0,1.11676,3.1925c1.79071,3.40009,5.37237,4.33136,8.79205,2.27582a10.46312,10.46312,0,0,0,4.06512-5.01636,2.85419,2.85419,0,0,0,.10059-1.26831,20.205,20.205,0,0,1,2.02808-9.9928,11.91541,11.91541,0,0,1,8.82019-6.65362,1.954,1.954,0,0,0,1.05926-.66419,8.51988,8.51988,0,0,1,7.08576-2.38476,6.0286,6.0286,0,0,1,4.189,2.543,15.50711,15.50711,0,0,1,2.88635,8.17132,44.66509,44.66509,0,0,1,.0943,5.418,8.06045,8.06045,0,0,0,3.40064-4.88153,37.6622,37.6622,0,0,0,1.16742-9.86023c-.035-.7008.229-1.00659.87335-1.10052a11.48114,11.48114,0,0,1,3.02862-.20081c2.82392.33283,5.40253,2.18,4.837,6.0199-.50769,3.44745-1.48029,6.7843-2.2605,10.167a20.17483,20.17483,0,0,0-.75683,5.78571c.059.94641.02545,2.15466,1.184,2.4494,1.14013.2901,1.7146-.74939,2.2373-1.553a26.215,26.215,0,0,0,2.688-6.08612,69.09168,69.09168,0,0,0,2.82123-12.06433,6.8634,6.8634,0,0,0-.021-2.33173c-.13452-.68371.11933-.993.82868-1.08355,4.16327-.53125,8.7763,3.53125,7.911,7.68011-.71143,3.41089-1.773,6.71033-2.58667,10.08209a13.22153,13.22153,0,0,0-.63849,5.53925c.18353,1.00537.52649,1.93683,1.61755,2.23315a2.29828,2.29828,0,0,0,2.507-1.13665,13.53046,13.53046,0,0,0,2.60968-6.8014c.53436-5.41516,1.88788-10.68365,2.76764-16.03631,1.0285-6.25733,1.91357-12.51978,1.29645-18.88208-.11158-1.15045.28119-1.55628,1.40045-1.49866a10.87082,10.87082,0,0,1,7.33826,3.195,4.30737,4.30737,0,0,1,1.03,4.4469c-1.332,5.2171-2.71258,10.42266-3.96759,15.65826a109.9977,109.9977,0,0,0-2.79425,16.61664,9.683,9.683,0,0,0,.11737,2.685c.15253.76922.39307,1.55859,1.272,1.8186a2.13663,2.13663,0,0,0,2.20764-.75372,9.16629,9.16629,0,0,0,1.86554-3.22089,35.3959,35.3959,0,0,0,1.86932-7.7215c.09278-.61517.22351-1.19976.923-1.33075a1.48264,1.48264,0,0,1,1.59613.93885A3.37619,3.37619,0,0,1,549.84271,154.874Z"/><path class="cls-1" d="M494.43732,143.59467c-.53015-1.00964-1.23261-1.02655-1.81946-.05743a4.03533,4.03533,0,0,0-.45642,1.0675,11.698,11.698,0,0,0,.47046,7.4422,4.44351,4.44351,0,0,0,2.57422,2.675v.00006a36.4387,36.4387,0,0,0,.08453-7.87048A9.00044,9.00044,0,0,0,494.43732,143.59467Z"/><path class="cls-1" d="M493.24359,159.60712a11.414,11.414,0,0,1-7.67956-6.3457,19.72349,19.72349,0,0,1-1.45166-4.7558l-.00006.00006a18.99186,18.99186,0,0,0-1.2677,7.24225,12.84193,12.84193,0,0,0,1.88531,7.26471c1.88013,2.81036,5.05585,3.004,7.31757.48236a11.593,11.593,0,0,0,1.75274-2.89075C494.11823,159.93036,493.86432,159.7641,493.24359,159.60712Z"/><path class="cls-1" d="M240.15789,141.42613a6.67766,6.67766,0,0,0-1.21051-.24231c-.57074-.11548-1.3866-.31738-1.9455-.40478a56.17,56.17,0,0,0-6.38849-.34174A62.1972,62.1972,0,0,1,218.6339,138.802a7.47829,7.47829,0,0,1-2.94531-2.809l-2.70575-.70911a86.4287,86.4287,0,0,0-15.46228-59.47c.67017-.6424,1.94049-1.82923,2.29846-2.17786a5.26078,5.26078,0,0,1,1.1463-3.79913,62.24674,62.24674,0,0,1,9.70227-7.21472,55.29988,55.29988,0,0,0,5.43848-3.3725c.42-.32984.99249-.84979,1.43182-1.22107a6.68584,6.68584,0,1,0-8.56134-10.17529c-.44409.36987-1.04895.856-1.443,1.21667a55.19333,55.19333,0,0,0-4.26886,4.7663,62.31135,62.31135,0,0,1-8.74609,8.35254,7.3925,7.3925,0,0,1-4.02155.54669l-2.48157,1.87536a87.17293,87.17293,0,0,0-55.913-25.181c-.08527-.88227-.204-2.481-.24072-2.96405a5.27015,5.27015,0,0,1-2.2591-3.26587,62.30439,62.30439,0,0,1,.42792-12.08258,55.332,55.332,0,0,0,.73547-6.3454c.006-.53626-.04644-1.31372-.06195-1.892a6.68582,6.68582,0,1,0-13.29889.36487c.00171.063.01746.1225.02075.18548.00855.55158-.00024,1.22034.0301,1.702a55.92581,55.92581,0,0,0,1.078,6.30127,62.21041,62.21041,0,0,1,1.06561,12.03912,7.2515,7.2515,0,0,1-2.06579,3.496l-.08167,2.81811a86.77092,86.77092,0,0,0-11.9715,2.17218A85.56425,85.56425,0,0,0,62.70623,67.95122q-1.23577-.80392-2.45026-1.64a5.25326,5.25326,0,0,1-3.95862-.27636,62.07882,62.07882,0,0,1-9.1831-7.85816A55.56784,55.56784,0,0,0,42.6137,53.6469c-.41425-.3357-1.0462-.79169-1.50964-1.14026a7.92772,7.92772,0,0,0-4.68238-1.62384,6.40854,6.40854,0,0,0-5.23529,2.48877,7.05,7.05,0,0,0,1.89972,9.75891l.10437.0697c.4444.34436.99237.78522,1.40363,1.069a55.55606,55.55606,0,0,0,5.59979,3.07806,62.04319,62.04319,0,0,1,10.07544,6.6847,7.392,7.392,0,0,1,1.441,3.79876l2.17981,1.84589a86.07574,86.07574,0,0,0-11.94971,60.35089l-2.76214.88489a9.19631,9.19631,0,0,1-2.7804,2.95556,62.08205,62.08205,0,0,1-11.86591,2.286,55.57927,55.57927,0,0,0-6.36554.68554c-.50787.10834-1.212.307-1.76446.4607l-.058.01416-.09375.03088a6.67639,6.67639,0,1,0,3.3034,12.87756l.09882-.01843c.04388-.01062.08111-.03375.125-.04279.54492-.13922,1.23144-.29016,1.71-.434a56.07449,56.07449,0,0,0,5.90332-2.4469,62.29586,62.29586,0,0,1,11.50079-3.72351,7.37578,7.37578,0,0,1,3.85871,1.24726l2.88562-.57447a86.56254,86.56254,0,0,0,39.6391,46.8418l-1.13343,2.93164a6.60094,6.60094,0,0,1,.69538,3.74475,64.97966,64.97966,0,0,1-5.727,10.97669,55.444,55.444,0,0,0-3.42224,5.40881c-.25116.50812-.566,1.28449-.80561,1.816A6.67955,6.67955,0,1,0,87.0429,231.323l.01074-.01288-.00043-.01574c.238-.52674.57727-1.21857.77686-1.71118a54.9963,54.9963,0,0,0,1.7547-6.14588,46.52175,46.52175,0,0,1,4.82684-12.08447,5.406,5.406,0,0,1,2.82813-1.47632l1.43432-2.7663a86.08216,86.08216,0,0,0,61.36481-1.49823c.44257.7417,1.26917,2.16053,1.48688,2.51886a5.25611,5.25611,0,0,1,3.45093,1.97242,61.95351,61.95351,0,0,1,4.8673,11.05682,55.5921,55.5921,0,0,0,2.0943,6.04211c.22913.48572.59913,1.168.86841,1.68256a6.68267,6.68267,0,1,0,11.86811-6.007c-.26783-.51776-.63825-1.27563-.9148-1.76642a55.26119,55.26119,0,0,0-3.70831-5.204,62.05546,62.05546,0,0,1-6.18024-10.39715,5.22332,5.22332,0,0,1,.40472-3.93683,22.878,22.878,0,0,1-1.17993-2.65326,86.55949,86.55949,0,0,0,37.02954-49.25244c.864.11389,2.36933.335,2.85883.42114a5.25951,5.25951,0,0,1,3.681-1.482,62.22127,62.22127,0,0,1,11.68787,3.09839,55.36655,55.36655,0,0,0,6.03021,2.14251c.48389.1131,1.17248.21436,1.72717.3208.046.01142.08753.03076.132.04059l.09491.01166a6.67636,6.67636,0,1,0,3.82007-12.79462ZM126.91527,194.75981a70.0795,70.0795,0,1,1,70.07953-70.07947A70.07951,70.07951,0,0,1,126.91527,194.75981Z"/><path class="cls-1" d="M60.50537,101.1249c1.52719-2.41962,2.23663-5.20978,3.53559-7.74085A74.66821,74.66821,0,0,1,79.1743,72.89051a7.02894,7.02894,0,0,1,.73175-.62863.67408.67408,0,0,1,.8882-.0043c.40745.34272.19412.67017-.05275.975a25.85758,25.85758,0,0,0-2.44213,2.94526,9.76943,9.76943,0,0,0-1.26583,3.84053,10.02979,10.02979,0,0,0,3.83365-2.26428c.67353-.63025.67781-1.987,1.117-2.98893a7.456,7.456,0,0,1,3.55893-3.32586c.36074-.20737.61028-.04216.61557.40033.01385,1.15744.33821,2.32781-.51046,3.39739a4.34153,4.34153,0,0,0-.87146,3.0922c1.49337-.45739,1.904-1.84712,2.86917-2.63178.37056-.30125.60367-.91072.99817-1.01863,1.4956-.40911,2.68975-.835,1.78914-2.80056-.21528-.46982,1.2714-.7182.65844-1.34971-.64019-.65958-1.63684-.20115-2.47019-.0915a8.1684,8.1684,0,0,0-1.03673.40534,1.69559,1.69559,0,0,1-.59947-.05575c.78809-.6592-.52782-1.56509.31953-2.29056a22.92131,22.92131,0,0,1,4.77334-2.86219c2.77026-1.38543,4.75945-3.58809,7.03051-5.4815a8.1618,8.1618,0,0,1,3.72539-1.67176c.52261-.11308,1.05526-.179,1.58013-.28256.50718-.10011,1.10173-.5738,1.50245-.0898.45987.55544.0722,1.24018-.20523,1.80081-.73229,1.47971-2.50005,2.16669-2.97212,3.90856.58453.477,1.44967-.20253,2.14383.56845.54761.60822,1.2339.8056.91479,1.90613-.23652.81569.31844,1.351,1.24855.79728A6.04776,6.04776,0,0,1,109,66.37363c.47453-.094.97508-.1743,1.03009-.81969a.97116.97116,0,0,0-.31156-.868c-.47744-.42936-.88167-.13554-1.311.10537-.2624.14723-.4683.47439-.84966.33414.36541-1.41763,2.13152-1.98172,3.67611-1.1806.51794.26864.95047.73165,1.5848.73511a.7637.7637,0,0,0,.79388-.44424c.16468-.48913-.37664-.36255-.54723-.54675-1.68383-1.81815-3.97136-.5871-5.88586-1.20085-.49185-.15767-1.45073.21721-1.251-.71984.143-.67088,1.37176-.83858,1.62706-.58971,1.21243,1.18191,1.73494.00494,2.32865-.58645a2.88234,2.88234,0,0,1,4.5.23166c.48927.64754,1.30187.70131,1.89652,1.1518.724.54851,1.563.96847,1.94819,1.86273.22712.52722.29278,1.35461-.14235,1.47826-1.82274.518-1.98735,2.79342-3.742,3.3346-.54668.16861-1.058.71489-1.62638.2568-.62034-.5-.02649-.95053.21462-1.38957a.50275.50275,0,0,0-.11579-.70149l-.011-.00769c-.484-.39857-.40644.18451-.60576.30957-.96343.60453-2.08532.27037-3.13078.42617a1.64207,1.64207,0,0,0-1.34177.53691c1.14243-.2789,1.961-.09028,2.37837.91089a.95664.95664,0,0,0,.15239.26062c2.04025-.79805,2.27172,1.80962,3.79073,2.0195.35554.04914.54415.425.69561.80931a3.12512,3.12512,0,0,0,1.97893,2.19664c1.2329.40162-.08752,1.47828.26149,2.337,1.1999-.68367,2.256-1.69783,3.75965-1.52544.40615.04656.98763-.22653,1.147.28265.22456.71753-.53616.622-.91019.83438-.13873.07878-.28321.1474-.62275.32271.89388.1949.97307,1.42939,2.22744.97122.59839-.21855.19041.75271.39225,1.15.5779.05309.65094-.44169.84438-.78463.16825-.29827.49374-.68351.71344-.52723,1.68657,1.19975,3.85219-.41014,5.50541.995a1.81043,1.81043,0,0,0,1.70827.14539c.56334-.16921.88195-.09472,1.27344.52088,1.42468,2.24038,1.46114,2.2472-1.25657,2.75982-.2551.04812-.511.09186-1.10869.19893,1.81474.5103,3.36842.78974,4.54687,1.941a1.58782,1.58782,0,0,0,1.06246.26093c1.14053-.03926,1.68986.41395,1.67167,1.607-.01365.89448.34311,1.28722,1.41683,1.12937,1.084-.15934,2.19386.53174,3.24608-.66262.30366-.34469,1.931.2775,2.82832.71122a3.48645,3.48645,0,0,0,2.71977.5871c.27469-.08591.79471-.05625.90778.11484.97477,1.475,2.39149.98443,3.73062.95562.61641-.01326,1.12138.25643,1.46368-.67711.26511-.723,1.3037-.6745,2.03556-.5322,1.20744.23477,2.39408.58425,3.57931.9212.39467.1122.6825.37368,1.1686.05413.66183-.43509,1.06291-.04585,1.25352.66871.3828,1.435.17455,1.64882-1.32816,1.31667-.40794-.09017-.82789-.12617-1.28028-.19261.01809.66964.50314,1.2317-.13683,1.84694-.65131.62613.28218.5836.50906.74027.80251.55416,1.18128,1.1034.30216,1.90149a.99553.99553,0,0,0-.25859.40429,5.9133,5.9133,0,0,1-3.47,3.44046c-1.39235.65611-1.64452,1.94122-.97846,3.36222a4.23948,4.23948,0,0,1-.14116,4.05357,5.8267,5.8267,0,0,0-.9384,2.53678c-.01565.42383-.237.91739-.71023.95237-.48882.03613-.45774-.51857-.57256-.84648-.73572-2.10094-1.97642-4.18673-.49185-6.43587.71471-1.0828,1.2083-2.27221,1.83719-3.3921a4.54784,4.54784,0,0,0,.328-2.82736c-.70248,1.21105-1.206,2.13674-2.593,1.41341-.55713-.29055-.90363.55072-1.195,1.07137-.67792,1.21156-1.07773,2.12157-3.14519,1.889-2.1517-.242-4.98942-.37786-6.58328,2.19748a7.77064,7.77064,0,0,1-1.66748,1.49087c-.44192.38136-1.43675.59647-.92358,1.35534.44244.65431.71745,1.991,2.14349,1.28237.58539-.29087,1.04364.04879.67513.6897a1.73058,1.73058,0,0,0-.02755,1.38881c.75037,3.46945-1.12765,5.803-3.36041,7.99971-.458.45055-.92113.89581-1.38254,1.34284-.6463.62617-1.54182,1.23651-2.28959.83184-1.65366-.8949-2.35288.31385-3.22885,1.16419-.45347.4402-.72037,1.05713-1.43,1.21717-1.51758.34227-1.35962,1.32449-.75329,2.3138a3.19281,3.19281,0,0,1,.40175,2.76052c-.38537,1.25213-1.41073,1.16165-2.37215,1.07489-.48184-.04348-.53836-.50153-.35514-.88014.25473-.5264.25047-1.16435.70727-1.60244.23854-.22878.49313-.76634.34729-.81459-1.7993-.59532-.6829-3.48041-2.92566-3.686-.25855-.02369-.578-.15116-.5754-.469.0176-2.16718-1.20929-1.14653-2.1224-.81884-.5.17942-.95248.48709-1.43847.71067-.47088.21662-1.47518-.07869-1.22352.82518.20448.73436.42436,1.718,1.4587,1.91256.40154.07553.99094-.10808,1.044.46765.05994.65057-.622.657-1.04062.78514-1.39309.42636-1.72654,1.18644-1.14322,2.55977a2.00688,2.00688,0,0,1-.557,2.5924,1.53617,1.53617,0,0,0-.26812,2.37921,1.27938,1.27938,0,0,1-.30111,1.97261c-1.94609,1.57487-3.71106,3.44244-6.30332,4.02366-.41694.09348-.851.37232-1.24237.18636-1.60724-.7637-3.28724-.42055-4.94442-.39671a2.19483,2.19483,0,0,1-1.43785-.575,3.75133,3.75133,0,0,0-4.83959.14,1.33233,1.33233,0,0,0-.41642,1.45457,13.158,13.158,0,0,0,.8874,3.08261,5.593,5.593,0,0,1,.50626,3.90072,2.52745,2.52745,0,0,1-1.609,2.032,2.41382,2.41382,0,0,1-2.75249-.79351,1.6565,1.6565,0,0,0-1.23665-.76748c-1.28118-.13087-1.32273-1.43394-1.74453-2.28314-.29953-.60307-.62082-1.21507-.88044-1.82194-.64292-1.50292-1.16828-1.27115-1.88137-.1263a6.01938,6.01938,0,0,1-.60114.65076,23.97426,23.97426,0,0,1,.34733-5.9937c.20389-1.16251-.20585-1.57369-1.28507-1.49855-1.04528.07278-1.51484-.45625-1.057-1.3476.85517-1.66491.56812-3.33227.34366-5.03559a9.88422,9.88422,0,0,1-.05739-1.76045c.02256-.4666-.0034-.97712-.47625-1.07308a14.54754,14.54754,0,0,1-2.29337-1.10066,1.97475,1.97475,0,0,0-1.2428-.1493,21.132,21.132,0,0,1-7.33339,1.14711,1.32651,1.32651,0,0,0-1.3882,1.11753c-.20862,1.25312-1.21917,1.98555-1.74252,3.02623a2.37215,2.37215,0,0,1-1.92155,1.03146c-1.08211.161-.88063-.74716-.82044-1.31684.54727-5.18008,1.10623-10.36361,4.1261-14.86036a2.59709,2.59709,0,0,0,.19-.519c-.50125-.311-1.39408.30854-1.609-.577-.16548-.6818-.29739-1.40173.5607-1.79082.30111-.13654.31153-.35971.21164-.65988a3.75657,3.75657,0,0,1,.35064-2.58664c.62409-1.687-.58893-2.924-1.27948-4.24235-.8984-1.71523-1.577-3.40281-.6846-5.32319a1.02418,1.02418,0,0,0,.02481-.93383c-1.06845-2.02474-.04409-3.7005.82933-5.43765.32392-.64426,1.39528-1.53612.5157-2.02944-.83293-.46716-1.10913.86042-1.458,1.50775a37.426,37.426,0,0,0-2.4142,4.72027c-.288.781-.40887,1.67055.29451,2.03923.91434.47924.78757.92317.47242,1.63856a4.08033,4.08033,0,0,0-.22954,1.25707c-.25385,2.76343-.42579,2.98776-2.99372,3.7945-.91254.28669-3.32209-.87518-4.13261-2.0052a14.10124,14.10124,0,0,1-1.27361-2.1139,6.19238,6.19238,0,0,0-.27184,4.85951c.72065,2.32229-2.25015,5.816-4.738,5.62665ZM80.94448,86.06184c-.22526.89418-.58958,1.64187.00031,2.08114.64176.47789.97194-.39428,1.40254-.69163.69012-.47658,1.31089-1.53773,1.93883-1.521,1.37285.03656,1.51788-.73342,1.868-1.669.44113-1.17884,1.22759-2.43153,2.57582-2.25516a1.67962,1.67962,0,0,0,1.92775-.88855c.32028-.5113-.03614-.90307-.46586-1.201-.7258-.50321-1.45972-.97413-2.32257-.279a10.31612,10.31612,0,0,0-2.39595,2.11364,5.48632,5.48632,0,0,1-2.88317,2.412A2.4938,2.4938,0,0,0,80.94448,86.06184Z"/><path class="cls-1" d="M123.514,192.46747c-.52-1.10835-1.089-2.0887-2.617-1.54669a1.65866,1.65866,0,0,1-1.48492-.45092,10.80192,10.80192,0,0,0-5.10646-1.78445,67.15956,67.15956,0,0,1-12.00418-2.1624c-1.03228-.31168-1.7659-.6171-2.01352-1.90973-.25434-1.32786-1.09114-2.51178-1.51538-3.85229-.49675-1.5696.29644-1.8532,1.4241-1.93354a13.73112,13.73112,0,0,1,4.61177.56543,3.43615,3.43615,0,0,0,3.61568-.586.63811.63811,0,0,1,.72193-.21481c1.146.53139,2.05015-.18809,3.04354-.52409,1.15309-.39,2.26409-.90738,3.25033.56383.42366.632,1.54367.49563,2.27082-.01081a7.01654,7.01654,0,0,1,6.92778-.19981c.54676.37216.38681.73834.08516,1.05449-.75953.796-.3141,1.17074.4302,1.53343.72174.35171,1.40659.7789,2.12679,1.13412,1.88383.92916,2.57951.72783,3.74686-1.00189a10.62316,10.62316,0,0,1,1.506-2.2709c.48643-.43157.78355-.43979,1.00575.28071a13.72624,13.72624,0,0,0,4.79357,7.31562c2.17634,1.62425,2.08,2.91554-.398,4.16969-3.37761,1.70953-6.88831,2.97145-10.79623,2.36436a8.38622,8.38622,0,0,0-1.43782.01876Z"/><path class="cls-1" d="M162.07366,69.9257a4.6295,4.6295,0,0,0-1.841-2.74353,1.51486,1.51486,0,0,0-2.04149-.29734c-.38014.273-.84209.3897-1.16051-.0039-.38386-.47453.25481-.57789.42387-.85785a5.10743,5.10743,0,0,0,.25817-.57451c.65059-1.46206.51344-1.1868,1.78815-.55112,1.95433.97459,3.864,2.19969,6.32386,2.50268-.5453-1.3507-1.77649-1.94673-2.53918-3.07362.76924-.3182,1.20982.16225,1.67592.40284,2.27087,1.17212,3.94171,3.12244,5.95375,4.63213a.9319.9319,0,0,1,.36166.83852,1.4012,1.4012,0,0,0,1.66791,1.49971c1.63829-.19587,2.38968.88012,3.00148,1.9489a3.20587,3.20587,0,0,0,1.63489,1.5932,3.76014,3.76014,0,0,1,1.21808,1.026,74.65668,74.65668,0,0,1,11.21482,16.014l-.07887.31241c-1.24281.0322-1.91489-.93757-2.57257-1.69091a42.17449,42.17449,0,0,1-4.60493-5.56284,1.32471,1.32471,0,0,0-1.312-.77564c-1.54054.35492-2.94649-.29657-4.35623-.58365a3.633,3.633,0,0,0-3.78856,1.17905,6.11514,6.11514,0,0,1-.52939.60375c-.74121.62429-2.28538.82015-1.46294,2.31089.47849.86731-.24775,2.2841,1.2602,2.67949.30114.079.33514.80162.20312.785-1.10324-.1389-1.727,1.56622-2.96507.74667a1.77019,1.77019,0,0,0-.4467-.17859c-2.74344-.86721-2.91586-1.17607-2.22185-4.0913-.71333-.11368-1.382-.377-1.96887.39388-.43585.57248-.98418.26379-1.40228-.10508-.54331-.47934-.141-.81426.22088-1.1794.74509-.7517.19534-.97851-.49426-1.1121a2.92922,2.92922,0,0,1-2.71742-3.12671q.00471-.06709.01248-.13394c-.00716-.57.05612-1.13863.5863-1.40206,1.35012-.67083,1.8973-2.16384,3.12441-2.95087.29945-.19206.54564-.31741.16186-.83582a5.08225,5.08225,0,0,1-.69348-5.324c.39439-.9656-.29668-1.92154-1.62649-1.87539Z"/><path class="cls-1" d="M131.88976,58.05552c2.63931-.91237,4.86714-1.30788,6.99744-2.07913,1.86157-.674,3.3979.8775,3.87219,2.83542a6.98162,6.98162,0,0,0,2.6521,3.82344c.43344.32707.88777.574,1.0806,1.11734.113.31851.20457.78946-.21256.74154-1.35731-.15593-2.46376,1.05709-3.88174.58855a4.57315,4.57315,0,0,0-2.384.03147,1.68882,1.68882,0,0,1-1.89936-.43131.60447.60447,0,0,0-.41733-.21924c-2.54074.11094-2.28694-2.69709-3.80936-3.6475-.1093-.06823-.22412-.33717-.17637-.41644C134.65415,58.83416,133.45629,58.518,131.88976,58.05552Z"/><path class="cls-1" d="M108.73627,157.64476c-.09687.08377-.16781.1974-.25769.2151-1.73591.34207-1.5391,1.49948-1.17871,2.743a.97539.97539,0,0,1-.43065,1.117,7.76327,7.76327,0,0,0-.7296.627c-3.14808,3.04-3.1435,2.87134-6.86452.46117-1.84525-1.19521-1.907-2.76926-2.06712-4.45192-.08078-.84906.167-1.84132,1.35653-.75056.24672.22622.61408.49453.84775.28172.85748-.781,2.08257-.25043,2.83291-.70432,1.41287-.85464,3.09-.37608,4.442-1.23092a.82138.82138,0,0,1,1.22915.37639C108.15029,156.79568,108.7018,157.066,108.73627,157.64476Z"/><path class="cls-1" d="M137.08837,175.68082a2.56452,2.56452,0,0,0-2.41318.46806,2.87506,2.87506,0,0,1-4.45863-1.3096c-.59529-1.37759-1.31229-2.41049-2.8796-2.69724a3.653,3.653,0,0,1-1.28588-.64468c-.40971-.2762-1.25486-.474-.93589-1.07033.37092-.69346.74429.174,1.12594.31293a.95033.95033,0,0,0,.92209-.05034c2.39893-1.79146,4.58253-.265,6.79109.46053a14.19358,14.19358,0,0,1,5.3583,3.02131c.192.17887.57872.32878.467.568-.53856,1.15286.56947,1.44845,1.02247,2.07646.17521.24287.589.40338.33628.77485-.20357.29917-.57727.22731-.893.18274A2.65429,2.65429,0,0,1,138.666,176.741,3.09294,3.09294,0,0,0,137.08837,175.68082Z"/><path class="cls-1" d="M84.52089,145.74318c2.07422.96413,2.22086,3.09067,3.33445,4.514,2.11323,2.70092,2.75669,6.15063,4.65555,8.96028a1.84485,1.84485,0,0,1-.42672,2.20556c-.47461.49781-1.09912-.17135-1.52227-.68452-2.3077-2.79861-3.15712-6.087-3.75329-9.60355a11.62821,11.62821,0,0,0-1.698-3.57864A2.548,2.548,0,0,1,84.52089,145.74318Z"/><path class="cls-1" d="M142.033,124.42815c-.88163.71132-.86758,1.82613-1.16972,2.82949-.45834,1.522-1.949,1.763-3.15437,2.04616-.68459.16083-1.43793-.12517-1.87041.69469a.24028.24028,0,0,1-.12892.07986c-.91376-1.07676-2.18132-.98687-3.413-1.13065-.35755-.04174-.147-.56829.1665-.704a1.85418,1.85418,0,0,1,1.07306-.22524c1.70852.4507,2.97334-.60953,4.36355-1.21281a4.72286,4.72286,0,0,0,2.59563-3.074c.15338-.46231-.13447-1.45721.7937-1.23091C142.15949,122.71291,142.19175,123.56773,142.033,124.42815Z"/><path class="cls-1" d="M91.7667,153.45032c.072.2241-.01438.45625-.24458.47056a.69967.69967,0,0,1-.53659-.23738,6.41357,6.41357,0,0,1-1.2893-2.55473c-.35833-2.15567-.29911-4.37689-1.02279-6.47608-.10967-.31816-.08178-.67758.286-.81527.29632-.111.47413.16232.64479.36586.2814.33561.61786.758.48559,1.14645-.45436,1.33431.30528,2.327.99376,3.18929C92.31814,150.08519,91.89071,151.76427,91.7667,153.45032Z"/><path class="cls-1" d="M162.07366,69.9257l.26779.43895c1.85439,2.68154-1.35359,1.08651-1.68823,2.205-.03922.27233,1.18567.463.51721.98815-.68312.53669-1.40579-.184-2.06979-.45642a.95781.95781,0,0,1-.52117-1.46c.52468-.75522.89623-1.28295-.097-1.97315-.55276-.38412.02057-.56425.34885-.71823C160.20609,68.30508,161.15337,69.06776,162.07366,69.9257Z"/><path class="cls-1" d="M151.89615,60.00888c1.36718.33951,1.48313.71.74346,1.69861-.54108.72319.123,1.16753.58131,1.54591.5315.43883,1.1904.72422,1.71739,1.16732a.7918.7918,0,0,1,.12488,1.11279q-.01773.02224-.03706.04317c-.29738.3285-.70462.16468-1.02449-.05108a8.70036,8.70036,0,0,1-3.52228-3.70012c-.19907-.47474-.92816-1.04617-.55916-1.36074A1.85451,1.85451,0,0,1,151.89615,60.00888Z"/><circle class="cls-1" cx="125.99399" cy="124.3307" r="2.54989"/></svg>