<svg xmlns="http://www.w3.org/2000/svg" role="img" viewBox="-30.40 -35.40 3140.80 1013.30"><defs><style>.cls-1{fill:#ff3800}</style></defs><path d="M1264.25444 303.55639a47.62978 47.62978 0 1 1-.57027 0q.28514-.0017.57027 0zm-36.38994 140.70723h72.77987v287.48277h-72.77987zm416.67103 101.28582v186.197h-72.78078v-168.001c0-41.24233-25.47279-58.83118-57.01112-58.83118-37.603 0-57.01113 36.99688-57.01113 36.99688v189.83525h-72.78072V444.26362h67.92827V486.113s25.47364-49.12634 86.12324-49.12634c55.79886.00002 105.53224 39.42153 105.53224 108.56278zm56.4041 1.82103H1862.876v69.13961h-161.93632zm195.29394-103.10685h56.40415v-85.51616h72.7807v85.51636h86.72938v65.50289h-86.72938v115.84154c0 35.1777 18.195 45.48777 37.603 45.48777 16.37572 0 30.32518-10.31007 30.32518-10.31007l26.68671 59.43642s-27.29378 18.8028-69.14227 18.8028c-55.798 0-98.25351-40.6371-98.25351-101.8929V509.76671h-56.404zm562.83168 143.7423c0 84.30405-67.92914 151.01925-153.4454 151.01925s-153.4454-66.7152-153.4454-151.01925c0-84.91092 67.92914-151.01924 153.4454-151.01924s153.4454 66.10812 153.4454 151.01924zm-73.99387 0c0-44.88253-30.32518-83.09173-79.45153-83.09173s-79.45153 38.2092-79.45153 83.09173c0 44.88091 30.32519 83.0901 79.45153 83.0901s79.45153-38.20919 79.45153-83.0901zm104.32417-143.7423h56.405v-85.51616h72.77983v85.51636h86.7302v65.50289h-86.7301v115.84154c0 35.1777 18.19409 45.48777 37.60222 45.48777 16.37654 0 30.32519-10.31007 30.32519-10.31007l26.68671 59.43642s-27.29215 18.8028-69.14135 18.8028c-55.798 0-98.2527-40.6371-98.2527-101.8929V509.76671h-56.405zm562.83087 143.7423c0 84.30405-67.92915 151.01925-153.4453 151.01925S2745.33571 672.31 2745.33571 588.00592c0-84.91092 67.92915-151.01924 153.44541-151.01924s153.4453 66.10812 153.4453 151.01924zm-73.99377 0c0-44.88253-30.32519-83.09173-79.45153-83.09173s-79.45153 38.2092-79.45153 83.09173c0 44.88091 30.32518 83.0901 79.45153 83.0901s79.45153-38.20919 79.45153-83.0901z"/><path d="M159.66978 481.38241q-11.13756 9.846-21.97152 20.031l1.58935-.09961c6.545-6.794 13.37456-13.42676 20.38219-19.9314m26.48341-23.3734c-9.005 7.60538-17.87951 15.391-26.48343 23.37351q13.45752-11.89911 27.28281-23.37824z" class="cls-1"/><path fill="#033" d="M990.4588 55.005c-.90222-.38378-1.80389-.757-2.70556-1.1319.80206.38508 1.59344.78577 2.38812 1.18122z"/><path d="M596.90466 487.191c6.31287 12.33649 17.688 28.03247 31.11194 40.603q4.60107 3.06573 9.37793 5.69317c15.53021 8.54492 32.37433 13.47589 50.02106 13.64313 49.59668-16.54694 45.80084-112.45581 15.55878-165.182-39.74994-69.3033-98.80829-112.41397-177.22837-127.38882-78.91638-15.06983-150.11163 3.61847-212.40167 54.21893-53.59668 43.53137-109.51044 84.51422-159.70752 131.934-31.708 29.94983-61.6991 62.12964-82.01178 97.63123-36.2262 63.32849-52.28833 116.32184-29.14 191.80926 0 0 28.326 69.56354 57.23017 98.88117 26.61343 26.98793 51.33671 51.56593 86.0505 66.33174 84.052 35.74964 165.867 30.57721 244.30162-17.09784a212.46156 212.46156 0 0 0 25.366-18.4743c23.76331-19.80927 136.63223-99.89514 117.74918-139.24139-9.2212-19.20868-60.45893-66.3877-81.732-66.3172-21.75976.07293-109.49353 81.09509-134.87659 93.76953-51.91845 25.918-113.22369 26.2511-149.0122-18.65662-37.002-46.43-31.08319-113.32349 13.92193-150.93341 61.49247-51.39343 121.10285-105.1991 185.05384-153.50159 31.02807-23.43518 61.6867-29.85919 89.70806-24.46856 42.06781 8.09289 78.18746 42.83099 100.65912 86.74657z" class="cls-1"/><path fill="#0089dd" d="M1123.46533 215.63974s-22.08972-64.35223-54.34778-98.88117c-23.34741-24.991-48.85394-46.71478-78.97625-61.70422-.79468-.39545-1.58606-.79614-2.38813-1.18122-2.4895-1.195-5.00372-2.3554-7.56842-3.44629-84.05206-35.74963-165.86688-30.5772-244.30169 17.09784A212.47324 212.47324 0 0 0 710.517 85.999c-23.76337 19.80926-136.632 99.89514-117.74933 139.2414 9.2215 19.20868 60.45923 66.38769 81.7323 66.3172 21.75977-.07294 109.49347-81.09505 134.87647-93.76954 51.91827-25.918 113.22387-26.25109 149.01208 18.65662 37.00208 46.43 31.08337 113.32349-13.92175 150.93341C882.9743 418.77139 823.36407 472.577 759.413 520.87955c-24.60853 18.58654-48.98462 26.46887-71.99744 26.25073-17.64673-.16724-34.49085-5.09821-50.02106-13.64313q-4.77346-2.62647-9.37793-5.69318c-13.42389-12.57049-24.79907-28.26647-31.11194-40.603-22.47162-43.91559-58.59131-78.65369-100.65905-86.74658-44.11823 43.46136-54.20545 113.56384-22.99286 167.978 39.745 69.30335 95.66089 109.05182 174.08093 124.02918l4.843.79559c74.1557 11.04981 141.30658-8.20538 200.42938-56.233 53.5968-43.53137 109.51056-84.51422 159.70752-131.934 31.708-29.94983 61.6991-62.12964 82.012-97.63123 36.22596-63.32839 52.28822-116.32176 29.13978-191.80919z"/></svg>