<svg xmlns="http://www.w3.org/2000/svg" role="img" xmlns:xlink="http://www.w3.org/1999/xlink" viewBox="0.33 3.83 502.84 493.34"><defs><clipPath id="clip-path"><path d="M215.164 267.82h109.101v45.571H215.164z" class="cls-1"/></clipPath><clipPath id="clip-path-4"><path d="M215.868 268.63h14.872v14.872h-14.872z" class="cls-1"/></clipPath><clipPath id="clip-path-5"><path d="M218.046 270.808h10.517v10.516h-10.517z" class="cls-1" transform="rotate(-45.213 223.305 276.066)"/></clipPath><clipPath id="clip-path-6"><path d="M239.264 271.616h8.724v8.723h-8.724z" class="cls-1"/></clipPath><clipPath id="clip-path-7"><path d="M240.541 272.894h6.169v6.168h-6.169z" class="cls-1" transform="rotate(-45.214 243.625 275.978)"/></clipPath><linearGradient id="linear-gradient" x1="252.499" x2="258.341" y1="3621.977" y2="3996.429" gradientTransform="translate(0 -3466)" gradientUnits="userSpaceOnUse"><stop offset="0" stop-color="#666"/><stop offset=".541" stop-color="#333"/><stop offset="1"/></linearGradient><linearGradient id="linear-gradient-2" x1="156.349" x2="168.587" y1="3544.097" y2="3741.566" xlink:href="#linear-gradient"/><linearGradient id="linear-gradient-3" x1="-17044.662" x2="-17032.424" y1="3544.094" y2="3741.562" gradientTransform="matrix(-1 0 0 1 -16656.22 -3466)" xlink:href="#linear-gradient"/><radialGradient id="radial-gradient" cx="-1629.679" cy="18532.1" r="204.403" gradientTransform="matrix(1.2614 0 0 .2551 2307.677 -4288.045)" gradientUnits="userSpaceOnUse"><stop offset="0"/><stop offset=".006"/><stop offset=".194"/><stop offset=".388" stop-color="#333"/><stop offset=".584" stop-color="#666"/><stop offset=".786" stop-color="#999"/><stop offset="1" stop-color="#999"/></radialGradient><style>.cls-1{fill:none}.cls-4{fill:#333}.cls-9{clip-path:url(#clip-path)}.cls-10{fill:#fff}.cls-11{opacity:.60001}</style></defs><path d="M168.953 239.117s-27.59 22.824-83.139 14.941c14.85-30.34 45.465-35.198 83.139-14.94z"/><path d="M165.653 238.659s-35.29 6.416-79.839-27.499c27.774-19.341 56.923-8.616 79.84 27.499z"/><ellipse cx="252" cy="439.493" fill="url(#radial-gradient)" rx="241.808" ry="48.307" style="isolation:isolate" opacity=".33"/><path d="M146.129 398.795c-21.908-1.192-43.357-21.908-44.274-40.699-24.565-9.35-43.906-33.182-39.14-59.03 7.058-38.774 41.799-67.832 61.506 9.715 14.85 58.115 36.39 78.006 60.59 79.84 24.199 1.74-12.741 31.073-38.682 10.174z"/><path fill="url(#linear-gradient)" d="M353.105 448.476s-204.501 22-234.292-3.941c-8.891-7.7-17.508-50.323 5.958-50.323-3.85-16.316-1.466-24.75 2.842-49.04 6.6-37.582 27.407-100.83 25.024-100.83 6.783-5.408 9.441-6.05 6.875-15.674C119.73 79.53 178.119 75.957 219.092 33.79c14.575-12.466 39.233-20.899 62.79-19.799-7.791 7.975-15.124 15.125-19.707 18.7 23.557-9.442 60.222-10.084 65.539-8.8-6.6 7.791-24.016 14.3-28.416 16.316 7.242.733 80.756 6.691 89.097 70.397 8.525 64.806 13.475 120.08-8.341 104.497-10.542 24.932-18.241 25.207-19.066 26.124 3.666 36.757 10.541 46.015 8.616 79.655-.825 14.666 9.075 39.14 11.183 62.423 31.899.183 36.024 62.606-27.682 65.172z"/><path d="M251.175 345.63c.733 35.474 6.141 108.255-9.166 115.221s-49.59 4.125-53.257 0c-11.366-12.65-2.2-34.924-2.2-34.924l-1.65-80.297" class="cls-4"/><ellipse cx="208.827" cy="134.163" rx="5.225" ry="8.708"/><path d="M306.265 340.222s6.416 101.746 11.55 111.92c4.4 8.709 39.69 8.617 51.33 4.86 9.167-2.934 8.434-22.55 1.65-33.916 1.284-23.191-.824-51.424-.824-92.58" class="cls-4"/><path d="M152.545 244.434s40.149 78.464 124.387 121.82c37.95-20.624 64.256-67.922 84.422-118.887 6.417-9.35-1.374-11.091-1.374-11.091s-125.213 17.966-201.385-12.558c-14.024 15.308-6.05 20.716-6.05 20.716z"/><circle cx="165.286" cy="239.026" r="3.392" fill="#534741" stroke="#534741" stroke-miterlimit="10" stroke-width="3"/><path fill="url(#linear-gradient-2)" d="M197.369 53.407s-14.483-.916-38.499 25.666c-51.881 57.473-59.215 98.905-34.557 129.612 28.232 35.199 67.373 52.706 72.506 37.949.916-2.659-4.217-26.674-6.783-57.107-.367-4.4 9.258 12.833 8.983 8.433-.184-3.758-20.808-95.421 9.808-104.496"/><path fill="url(#linear-gradient-3)" d="M347.422 53.407s14.482-.916 38.498 25.666c51.882 57.473 59.215 98.905 34.557 129.612-28.232 35.199-67.372 52.706-72.505 37.949-.917-2.659 4.216-26.674 6.783-57.107.366-4.4-9.258 12.833-8.983 8.433.183-3.758 20.807-95.421-9.808-104.496"/><ellipse cx="337.247" cy="133.154" rx="4.675" ry="7.7"/><path d="M261.166 191.819s-.55 24.2 7.425 26.124 22.458 2.933 29.24 0 7.425-24.932 7.425-24.932L285 183.569z"/><path d="M285.336 221.299a78.786 78.786 0 0 1-17.097-1.898c-8.893-2.146-8.632-25.016-8.573-27.616l.024-1.043 25.392-8.789 21.703 10.115-.03.987c-.068 2.349-.883 23.046-8.327 26.265-3.314 1.433-8.107 1.979-13.092 1.979zm-22.686-28.406c-.062 8.938 1.533 22.443 6.292 23.592 7.471 1.804 21.848 2.87 28.294.081 4.135-1.788 6.125-14.412 6.486-22.616l-18.806-8.764z"/><path d="M284.632 163.037l.275 18.15s.458 26.948-35.015 13.474"/><path d="M267.174 199.938q-7.597 0-17.815-3.875l1.065-2.805c12.07 4.585 21.06 4.902 26.717.943 6.303-4.409 6.267-12.907 6.266-12.992l-.275-18.15 3-.045.275 18.15c.007.408.084 10.135-7.52 15.477a19.908 19.908 0 0 1-11.713 3.297zm17.825-27.002s-6.325 37.399 32.907 22.183"/><path d="M301.65 200.257c-4.732 0-8.624-1.232-11.643-3.694-9.145-7.458-6.6-23.21-6.486-23.876l2.958.499c-.025.146-2.364 14.71 5.431 21.058 5.16 4.202 13.725 4.025 25.454-.524l1.084 2.797c-6.427 2.493-12.038 3.74-16.799 3.74z"/><path d="M294.623 165.42c0 4.308-5.774 6.508-9.716 12.1-6.508-5.684-11.183-6.784-11.733-11s6.6-5.683 11.458-5.683c5.775-.092 9.991 1.466 9.991 4.583z"/><path d="M285.174 179.744l-1.253-1.095a63.236 63.236 0 0 0-6.034-4.582c-3.344-2.312-5.76-3.982-6.2-7.353a4.682 4.682 0 0 1 1.176-3.785c3.002-3.419 10.33-3.592 11.769-3.592 4.64-.069 8.198.88 10.032 2.685a4.69 4.69 0 0 1 1.46 3.398c0 3.217-2.422 5.388-4.984 7.685a31.718 31.718 0 0 0-5.007 5.279zm-.072-17.411c-.148 0-.296.001-.447.004-3.518 0-7.986.805-9.538 2.572a1.675 1.675 0 0 0-.456 1.417c.257 1.966 1.697 3.038 4.932 5.273 1.44.996 3.172 2.193 5.077 3.756a39.924 39.924 0 0 1 4.467-4.483c2.227-1.997 3.986-3.574 3.986-5.452a1.686 1.686 0 0 0-.563-1.26c-1.172-1.152-3.94-1.827-7.458-1.827z"/><path fill="#666" d="M269.6 218.768s-2.567 36.39 15.307 32.724c12.191 1.466 13.933-10.083 13.933-29.24 0-8.709-14.666-3.484-14.666-3.484s-7.792-3.392-14.575 0z"/><g class="cls-9"><g class="cls-9"><g class="cls-9"><path d="M227.747 306.325a8.436 8.436 0 0 0 3.021 2.502 9.058 9.058 0 0 0 4.143.94 8.898 8.898 0 0 0 3.403-.58 5.906 5.906 0 0 0 2.261-1.58 6.105 6.105 0 0 0 1.241-2.342 10.464 10.464 0 0 0 .38-2.862v-3.362h-.08a7.218 7.218 0 0 1-3.122 2.722 9.631 9.631 0 0 1-3.882.8 10.098 10.098 0 0 1-3.823-.72 9.73 9.73 0 0 1-3.102-1.982 9.115 9.115 0 0 1-2.081-3.022 9.48 9.48 0 0 1-.761-3.802 9.95 9.95 0 0 1 .72-3.803 9.775 9.775 0 0 1 1.982-3.082 8.936 8.936 0 0 1 3.002-2.062 9.67 9.67 0 0 1 3.822-.74 10.72 10.72 0 0 1 1.782.16 8.448 8.448 0 0 1 1.881.56 8.663 8.663 0 0 1 3.582 2.882h.08v-3.122h2.642v18.573a15.074 15.074 0 0 1-.38 3.242 8.004 8.004 0 0 1-1.481 3.162 8.436 8.436 0 0 1-3.062 2.402 11.71 11.71 0 0 1-5.124.96 12.869 12.869 0 0 1-5.003-.92 11.624 11.624 0 0 1-4.003-2.842zm.48-13.368a7.174 7.174 0 0 0 .54 2.781 7.314 7.314 0 0 0 1.481 2.282 7.158 7.158 0 0 0 2.202 1.561 6.474 6.474 0 0 0 2.742.58 7.343 7.343 0 0 0 5.043-1.98 6.374 6.374 0 0 0 1.541-2.263 7.28 7.28 0 0 0 .5-2.961 7.973 7.973 0 0 0-.48-2.782 6.686 6.686 0 0 0-1.4-2.282 6.77 6.77 0 0 0-2.242-1.561 7.296 7.296 0 0 0-2.962-.58 6.482 6.482 0 0 0-2.742.58 7.176 7.176 0 0 0-2.202 1.561 7.323 7.323 0 0 0-1.48 2.282 7.178 7.178 0 0 0-.541 2.782m27.378 9.606h-2.882v-28.34h8.726a11.114 11.114 0 0 1 6.825 1.882 6.658 6.658 0 0 1 2.502 5.684 7.081 7.081 0 0 1-1.861 4.983 7.993 7.993 0 0 1-5.384 2.342l8.166 13.45h-3.523l-7.766-13.17h-4.803zm0-15.81h5.124a11.524 11.524 0 0 0 3.262-.401 6.06 6.06 0 0 0 2.141-1.06 3.872 3.872 0 0 0 1.161-1.562 5.183 5.183 0 0 0 .36-1.941 5.077 5.077 0 0 0-.36-1.901 4.025 4.025 0 0 0-1.16-1.582 5.66 5.66 0 0 0-2.142-1.06 12.107 12.107 0 0 0-3.262-.38h-5.124zm21.055-12.529h8.245a11.113 11.113 0 0 1 6.825 1.88 7.73 7.73 0 0 1 0 11.389 11.027 11.027 0 0 1-6.825 1.901h-5.364v13.17h-2.882zm2.881 12.528h4.644a11.528 11.528 0 0 0 3.262-.4 6.065 6.065 0 0 0 2.141-1.06 3.876 3.876 0 0 0 1.161-1.562 5.178 5.178 0 0 0 .36-1.941 5.071 5.071 0 0 0-.36-1.901 4.03 4.03 0 0 0-1.16-1.582 5.665 5.665 0 0 0-2.142-1.06 12.111 12.111 0 0 0-3.262-.38h-4.644zm43.629 11.328a10.995 10.995 0 0 1-1.78 2.041 11.248 11.248 0 0 1-2.422 1.661 13.808 13.808 0 0 1-2.942 1.101 13.588 13.588 0 0 1-3.343.4 15.163 15.163 0 0 1-5.864-1.12 14.071 14.071 0 0 1-7.785-7.806 16.432 16.432 0 0 1 0-11.928 14.068 14.068 0 0 1 7.785-7.805 15.158 15.158 0 0 1 5.864-1.12 14.323 14.323 0 0 1 5.284 1.04 10.66 10.66 0 0 1 4.523 3.442l-2.522 1.881a6.899 6.899 0 0 0-1.2-1.36 8.768 8.768 0 0 0-1.742-1.201 10.866 10.866 0 0 0-2.101-.84 8.138 8.138 0 0 0-2.242-.321 11.494 11.494 0 0 0-4.883 1 11.089 11.089 0 0 0-3.662 2.682 11.798 11.798 0 0 0-2.302 3.903 13.99 13.99 0 0 0 0 9.326 11.798 11.798 0 0 0 2.302 3.903 11.076 11.076 0 0 0 3.662 2.682 11.477 11.477 0 0 0 4.883 1 12.34 12.34 0 0 0 2.222-.2 9.221 9.221 0 0 0 2.161-.68 8.184 8.184 0 0 0 2.002-1.3 9.639 9.639 0 0 0 1.74-2.062z" class="cls-10"/><g class="cls-11"><g clip-path="url(#clip-path-4)"><path d="M215.868 276.094l7.41-7.464 7.463 7.408-7.41 7.465z" class="cls-10"/><g clip-path="url(#clip-path-5)"><path d="M216 268.63l-.132 1.164v-1.164H216z" class="cls-10"/><path d="M216.174 268.63l-.306 2.703v-1.539l.132-1.164h.174zm.174 0l-.48 4.242v-1.539l.306-2.703h.174z" class="cls-10"/><path d="M216.522 268.63l-.654 5.78v-1.538l.48-4.242h.174zm.173 0l-.827 7.319v-1.539l.654-5.78h.173z" class="cls-10"/><path d="M216.869 268.63l-1.001 8.858v-1.539l.827-7.319h.174z" class="cls-10"/><path d="M217.043 268.63l-1.175 10.396v-1.538l1.001-8.858h.174zm.174 0l-1.349 11.935v-1.539l1.175-10.396h.174z" class="cls-10"/><path d="M217.391 268.63l-1.523 13.474v-1.539l1.349-11.935h.174z" class="cls-10"/><path d="M217.565 268.63l-1.68 14.863-.017-.002v-1.387l1.523-13.474h.174z" class="cls-10"/><path d="M217.738 268.63l-1.68 14.872h-.092l-.081-.009 1.68-14.863h.173zm.174 0l-1.68 14.872h-.174l1.681-14.872h.173z" class="cls-10"/><path d="M218.086 268.63l-1.68 14.872h-.174l1.68-14.872h.174z" class="cls-10"/><path d="M218.26 268.63l-1.68 14.872h-.174l1.68-14.872h.174z" class="cls-10"/><path d="M218.434 268.63l-1.681 14.872h-.173l1.68-14.872h.174z" class="cls-10"/><path d="M218.608 268.63l-1.681 14.872h-.174l1.681-14.872h.174z" class="cls-10"/><path d="M218.782 268.63l-1.681 14.872h-.174l1.681-14.872h.174z" class="cls-10"/><path d="M218.955 268.63l-1.68 14.872h-.174l1.681-14.872h.173z" class="cls-10"/><path d="M219.129 268.63l-1.68 14.872h-.174l1.681-14.872h.173z" class="cls-10"/><path d="M219.303 268.63l-1.68 14.872h-.174l1.68-14.872h.174z" class="cls-10"/><path d="M219.477 268.63l-1.68 14.872h-.174l1.68-14.872h.174z" class="cls-10"/><path d="M219.651 268.63l-1.68 14.872h-.174l1.68-14.872h.174z" class="cls-10"/><path d="M219.825 268.63l-1.681 14.872h-.174l1.681-14.872h.174z" class="cls-10"/><path d="M219.999 268.63l-1.681 14.872h-.174l1.681-14.872h.174z" class="cls-10"/><path d="M220.172 268.63l-1.68 14.872h-.174l1.681-14.872h.173z" class="cls-10"/><path d="M220.346 268.63l-1.68 14.872h-.174l1.68-14.872h.174z" class="cls-10"/><path d="M220.52 268.63l-1.68 14.872h-.174l1.68-14.872h.174z" class="cls-10"/><path d="M220.694 268.63l-1.68 14.872h-.174l1.68-14.872h.174z" class="cls-10"/><path d="M220.868 268.63l-1.68 14.872h-.174l1.68-14.872h.174z" class="cls-10"/><path d="M221.042 268.63l-1.681 14.872h-.174l1.681-14.872h.174z" class="cls-10"/><path d="M221.216 268.63l-1.681 14.872h-.174l1.681-14.872h.174z" class="cls-10"/><path d="M221.389 268.63l-1.68 14.872h-.174l1.681-14.872h.173z" class="cls-10"/><path d="M221.563 268.63l-1.68 14.872h-.174l1.68-14.872h.174z" class="cls-10"/><path d="M221.737 268.63l-1.68 14.872h-.174l1.68-14.872h.174z" class="cls-10"/><path d="M221.911 268.63l-1.68 14.872h-.174l1.68-14.872h.174z" class="cls-10"/><path d="M222.085 268.63l-1.68 14.872h-.174l1.68-14.872h.174z" class="cls-10"/><path d="M222.259 268.63l-1.681 14.872h-.173l1.68-14.872h.174z" class="cls-10"/><path d="M222.433 268.63l-1.681 14.872h-.174l1.681-14.872h.174z" class="cls-10"/><path d="M222.606 268.63l-1.68 14.872h-.174l1.681-14.872h.173zm.174 0l-1.68 14.872h-.174l1.681-14.872h.173z" class="cls-10"/><path d="M222.954 268.63l-1.68 14.872h-.174l1.68-14.872h.174z" class="cls-10"/><path d="M223.128 268.63l-1.68 14.872h-.174l1.68-14.872h.174z" class="cls-10"/><path d="M223.302 268.63l-1.68 14.872h-.174l1.68-14.872h.174z" class="cls-10"/><path d="M223.476 268.63l-1.681 14.872h-.174l1.681-14.872h.174z" class="cls-10"/><path d="M223.65 268.63l-1.681 14.872h-.174l1.681-14.872h.174z" class="cls-10"/><path d="M223.823 268.63l-1.68 14.872h-.174l1.681-14.872h.173zm.174 0l-1.68 14.872h-.174l1.681-14.872h.173z" class="cls-10"/><path d="M224.171 268.63l-1.68 14.872h-.174l1.68-14.872h.174z" class="cls-10"/><path d="M224.345 268.63l-1.68 14.872h-.174l1.68-14.872h.174z" class="cls-10"/><path d="M224.519 268.63l-1.68 14.872h-.174l1.68-14.872h.174z" class="cls-10"/><path d="M224.693 268.63l-1.681 14.872h-.174l1.681-14.872h.174z" class="cls-10"/><path d="M224.867 268.63l-1.681 14.872h-.174l1.681-14.872h.174z" class="cls-10"/><path d="M225.04 268.63l-1.68 14.872h-.174l1.681-14.872h.173z" class="cls-10"/><path d="M225.214 268.63l-1.68 14.872h-.174l1.68-14.872h.174z" class="cls-10"/><path d="M225.388 268.63l-1.68 14.872h-.174l1.68-14.872h.174z" class="cls-10"/><path d="M225.562 268.63l-1.68 14.872h-.174l1.68-14.872h.174z" class="cls-10"/><path d="M225.736 268.63l-1.68 14.872h-.174l1.68-14.872h.174z" class="cls-10"/><path d="M225.91 268.63l-1.681 14.872h-.173l1.68-14.872h.174z" class="cls-10"/><path d="M226.084 268.63l-1.681 14.872h-.174l1.681-14.872h.174z" class="cls-10"/><path d="M226.257 268.63l-1.68 14.872h-.174l1.681-14.872h.173z" class="cls-10"/><path d="M226.431 268.63l-1.68 14.872h-.174l1.68-14.872h.174z" class="cls-10"/><path d="M226.605 268.63l-1.68 14.872h-.174l1.68-14.872h.174z" class="cls-10"/><path d="M226.779 268.63l-1.68 14.872h-.174l1.68-14.872h.174z" class="cls-10"/><path d="M226.953 268.63l-1.681 14.872h-.173l1.68-14.872h.174z" class="cls-10"/><path d="M227.127 268.63l-1.681 14.872h-.174l1.681-14.872h.174z" class="cls-10"/><path d="M227.301 268.63l-1.681 14.872h-.174l1.681-14.872h.174z" class="cls-10"/><path d="M227.474 268.63l-1.68 14.872h-.174l1.681-14.872h.173z" class="cls-10"/><path d="M227.648 268.63l-1.68 14.872h-.174l1.68-14.872h.174z" class="cls-10"/><path d="M227.822 268.63l-1.68 14.872h-.174l1.68-14.872h.174zm2.821 0l.098.011v14.861h-4.599l1.68-14.872h2.821z" class="cls-10"/></g></g></g><g class="cls-11"><g clip-path="url(#clip-path-6)"><path d="M239.264 275.994l4.345-4.377 4.377 4.345-4.345 4.377z" class="cls-10"/><g clip-path="url(#clip-path-7)"><path d="M247.987 274.164l-.119-2.548h.119v2.548z" class="cls-10"/><path d="M247.987 276.841l-.243-5.225h.124l.119 2.548v2.677z" class="cls-10"/><path d="M247.987 279.519l-.368-7.903h.125l.243 5.225v2.678z" class="cls-10"/><path d="M247.901 280.34l-.407-8.724h.125l.368 7.903v.821h-.086z" class="cls-10"/><path d="M247.776 280.34l-.406-8.724h.124l.407 8.724h-.125z" class="cls-10"/><path d="M247.651 280.34l-.406-8.724h.125l.406 8.724h-.125zm-.124 0l-.407-8.724h.125l.406 8.724h-.124zm-.125 0l-.406-8.724h.124l.407 8.724h-.125zm-.125 0l-.406-8.724h.124l.407 8.724h-.125zm-.125 0l-.406-8.724h.125l.406 8.724h-.125zm-.124 0l-.407-8.724h.125l.406 8.724h-.124zM246.903 280.34l-.406-8.724h.124l.407 8.724h-.125z" class="cls-10"/><path d="M246.778 280.34l-.406-8.724h.125l.406 8.724h-.125z" class="cls-10"/><path d="M246.654 280.34l-.407-8.724h.125l.406 8.724h-.124zm-.125 0l-.406-8.724h.124l.406 8.724h-.124zm-.125 0l-.406-8.724h.124l.407 8.724h-.125z" class="cls-10"/><path d="M246.28 280.34l-.407-8.724h.125l.406 8.724h-.124z" class="cls-10"/><path d="M246.155 280.34l-.406-8.724h.124l.407 8.724h-.125zm-.125 0l-.406-8.724h.124l.407 8.724h-.125z" class="cls-10"/><path d="M245.905 280.34l-.406-8.724h.125l.406 8.724h-.125z" class="cls-10"/><path d="M245.781 280.34l-.407-8.724h.125l.406 8.724h-.124z" class="cls-10"/><path d="M245.656 280.34l-.406-8.724h.124l.407 8.724h-.125z" class="cls-10"/><path d="M245.531 280.34l-.406-8.724h.125l.406 8.724h-.125z" class="cls-10"/><path d="M245.407 280.34l-.407-8.724h.125l.406 8.724h-.124z" class="cls-10"/><path d="M245.282 280.34l-.406-8.724H245l.407 8.724h-.125z" class="cls-10"/><path d="M245.157 280.34l-.406-8.724h.125l.406 8.724h-.125z" class="cls-10"/><path d="M245.032 280.34l-.406-8.724h.125l.406 8.724h-.125zm-.124 0l-.406-8.724h.124l.406 8.724h-.124zm-.125 0l-.406-8.724h.124l.407 8.724h-.125zm-.125 0l-.406-8.724h.125l.406 8.724h-.125z" class="cls-10"/><path d="M244.534 280.34l-.407-8.724h.125l.407 8.724h-.125z" class="cls-10"/><path d="M244.409 280.34l-.406-8.724h.124l.407 8.724h-.125z" class="cls-10"/><path d="M244.284 280.34l-.406-8.724h.125l.406 8.724h-.125z" class="cls-10"/><path d="M244.16 280.34l-.407-8.724h.125l.406 8.724h-.124z" class="cls-10"/><path d="M244.035 280.34l-.406-8.724h.124l.407 8.724h-.125z" class="cls-10"/><path d="M243.91 280.34l-.406-8.724h.125l.406 8.724h-.125z" class="cls-10"/><path d="M243.785 280.34l-.406-8.724h.125l.406 8.724h-.125z" class="cls-10"/><path d="M243.661 280.34l-.406-8.724h.124l.406 8.724h-.124zm-.125 0l-.406-8.724h.124l.407 8.724h-.125z" class="cls-10"/><path d="M243.411 280.34l-.406-8.724h.125l.406 8.724h-.125z" class="cls-10"/><path d="M243.287 280.34l-.407-8.724h.125l.406 8.724h-.124z" class="cls-10"/><path d="M243.162 280.34l-.406-8.724h.124l.407 8.724h-.125z" class="cls-10"/><path d="M243.037 280.34l-.406-8.724h.125l.406 8.724h-.125z" class="cls-10"/><path d="M242.913 280.34l-.407-8.724h.125l.406 8.724h-.124z" class="cls-10"/><path d="M242.788 280.34l-.406-8.724h.124l.407 8.724h-.125z" class="cls-10"/><path d="M242.663 280.34l-.406-8.724h.125l.406 8.724h-.125zm-.124 0l-.407-8.724h.125l.406 8.724h-.124zm-.125 0l-.406-8.724h.124l.407 8.724h-.125zm-.125 0l-.406-8.724h.124l.407 8.724h-.125zm-.125 0l-.406-8.724h.125l.406 8.724h-.125zm-.124 0l-.407-8.724h.125l.406 8.724h-.124zM241.915 280.34l-.406-8.724h.124l.407 8.724h-.125z" class="cls-10"/><path d="M241.79 280.34l-.406-8.724h.125l.406 8.724h-.125z" class="cls-10"/><path d="M241.666 280.34l-.407-8.724h.125l.406 8.724h-.124zm-.125 0l-.406-8.724h.124l.406 8.724h-.124zm-.125 0l-.406-8.724h.124l.407 8.724h-.125z" class="cls-10"/><path d="M241.292 280.34l-.407-8.724h.125l.406 8.724h-.124z" class="cls-10"/><path d="M241.167 280.34l-.406-8.724h.124l.407 8.724h-.125zm-.125 0l-.406-8.724h.124l.407 8.724h-.125z" class="cls-10"/><path d="M240.917 280.34l-.406-8.724h.125l.406 8.724h-.125z" class="cls-10"/><path d="M240.793 280.34l-.407-8.724h.125l.406 8.724h-.124z" class="cls-10"/><path d="M240.668 280.34l-.406-8.724h.124l.407 8.724h-.125z" class="cls-10"/><path d="M240.543 280.34l-.406-8.724h.125l.406 8.724h-.125z" class="cls-10"/><path d="M240.419 280.34l-.407-8.724h.125l.406 8.724h-.124z" class="cls-10"/><path d="M240.294 280.34l-.406-8.724h.124l.407 8.724h-.125z" class="cls-10"/><path d="M240.169 280.34l-.406-8.724h.125l.406 8.724h-.125z" class="cls-10"/><path d="M240.044 280.34l-.406-8.724h.125l.406 8.724h-.125zm-.124 0l-.406-8.724h.124l.406 8.724h-.124zm-.125 0l-.406-8.724h.124l.407 8.724h-.125zm-.125 0l-.406-8.724h.125l.406 8.724h-.125z" class="cls-10"/><path d="M239.546 280.34l-.283-6.057v-2.667h.001l.407 8.724h-.125z" class="cls-10"/><path d="M239.421 280.34l-.157-3.38v-2.677l.282 6.057h-.125zm-.125 0l-.033-.702v-2.678l.158 3.38h-.125z" class="cls-10"/><path d="M239.264 279.638l.032.702h-.032v-.702z" class="cls-10"/></g></g></g><path d="M223.604 271.57l-4.487 4.519 4.52 4.487 3.824-.014-4.01-3.978 19.8-.073-1.735 1.747 1.911-.007 2.244-2.26-2.26-2.243-1.912.007 1.748 1.734-19.799.074 3.979-4.007-3.823.014z" class="cls-10"/></g></g></g></svg>