<svg xmlns="http://www.w3.org/2000/svg" role="img" xmlns:xlink="http://www.w3.org/1999/xlink" viewBox="454.15 341.65 1419.20 2124.20"><defs><path id="a" d="M669.619 1145.631L.197 758.86V.795l669.422 391.51z"/><path id="b" d="M668.321.089l668.464 391.629-668.464 391.629L.568 392.106z"/><mask id="c" fill="#fff"><use width="100%" height="100%" x="0" y="0" xlink:href="#a"/></mask><mask id="d" fill="#fff"><use width="100%" height="100%" x="0" y="0" xlink:href="#b"/></mask></defs><path fill="#fff" fill-opacity="1" fill-rule="evenodd" stroke="none" stroke-width="1" d="M921.44672 2367.9763h-65.38683l-17.50356 58.0673h-44.85201l84.49799-251.0911h21.62508l84.49799 251.0911h-45.65294zm-55.60899-32.4376h45.98635l-22.80923-76.8892zm204.98797 6.007l-14.8172 14.8171v69.6808h-46.0534V2157.332h49.2571v3.6042c-1.3349 1.6019-2.2025 3.3372-2.603 5.206-.4005 1.8689-.6007 5.0726-.6007 9.6112v131.3523l71.2827-68.8799c2.1358.267 4.4051.6007 6.8079 1.0012 2.4028.4005 4.8055.7342 7.2083 1.0012 2.4028.2669 4.8056.4672 7.2084.6007 2.4028.1334 4.4051.2002 6.007.2002h21.625l-74.0859 72.4841 84.0975 112.13-51.6599 2.0023zm196.631-71.7404c.5117-1.0727 1.0557-2.1216 1.6323-3.1465 3.6041-6.4074 8.1427-12.0139 13.6157-16.8195 5.4731-4.8056 11.48-8.4097 18.0209-10.8125 6.541-2.4028 13.2821-3.6042 20.2235-3.6042 10.4121 0 19.8229 1.6686 28.2327 5.0058 8.4098 3.3372 16.2188 8.7434 23.4272 16.2188l-19.2223 38.0441-1.2014 3.2037-3.6042-1.6018c-.8009-2.1358-1.6018-4.3384-2.4028-6.6077-.8009-2.2693-2.8032-4.8723-6.0069-7.809-3.7377-2.9368-7.6756-5.2061-11.8137-6.8079-4.1382-1.6019-8.61-2.4028-13.4156-2.4028-6.4074 0-12.5478 1.0679-18.4213 3.2037-5.8735 2.1358-11.0128 5.473-15.4179 10.0116-4.4051 4.5386-7.8758 10.3453-10.4121 17.4202-2.5363 7.0749-3.8044 15.4178-3.8044 25.029v97.7133h-46.0534v-186.2159h46.8543zm134.503 156.2383v-35.6413h45.6529V2275.469h-43.2501v-35.6413h88.9031v150.5746h41.6483v35.6413zm66.4771-217.0517c-7.7424 0-14.4167-2.6697-20.0232-8.0092-5.6066-5.3396-8.4098-11.747-8.4098-19.2223 0-8.0094 2.6698-14.5502 8.0093-19.6228 5.3396-5.0726 12.1474-7.6088 20.4237-7.6088 7.4754 0 14.083 2.6697 19.823 8.0093 5.74 5.3395 8.61 11.7469 8.61 19.2223 0 7.4753-2.87 13.8827-8.61 19.2223-5.74 5.3395-12.3476 8.0092-19.823 8.0092z"/><path fill="#fff" fill-opacity="1" fill-rule="nonzero" stroke="none" stroke-width="1" d="M104.918 815.062v38.052l124.971 56.678V640.819l-126.661-79.071V441.807l237.818 140.9v387.454l344.845 199.185V378.531L-4.13-16.971v136.844l3.761 6.997 559.051 329.404v489.367L456.61 887.366V510.958l-467.252-278.01v407.871l10.273 4.404 105.287 64.923z" mask="url(#c)" transform="rotate(180 583.352 960.384)"/><path fill="#fff" fill-opacity="1" fill-rule="nonzero" stroke="none" stroke-width="1" d="M907.133 128.47l-9.83 5.581-228.785 126.581-124.83-76.168-108.285 63.135 233.115 133.888 227.875-128.474 124.659 73.78-351.624 198.834-455.552-261.816L572.961 54.595l97.376 60.47 148.57-80.132 554.373 310.681-37.234 45.888-667.528 391.776L.486 392.026l119.382-70.631L668.29 642.429l562.068-328.051z" mask="url(#d)" transform="rotate(180 916.578 583.411)"/><path fill="#fff" fill-opacity="1" fill-rule="nonzero" stroke="none" stroke-width="1" d="M1494.35 972.451v131.873l-229.563 133.006v391.891l567.495-325.147.375-529.572-119.042 69.798v398.844l-339.905 192.454v-126.127l241.994-136.277v-271.72z"/><path fill="#fff" fill-opacity="1" fill-rule="nonzero" stroke="none" stroke-width="1" d="M1832.735 1405.494l.57 120.356-667.368 393.981v-125.699z"/></svg>