<svg xmlns="http://www.w3.org/2000/svg" viewBox="0 0 514.47428 106.59397"><title>openmetrics-horizontal-black</title><g id="Layer_2" data-name="Layer 2"><path d="M141.844,34.48462c-11.06006,0-18.58917,8.77551-18.58917,18.79694v.10388c0,10.02179,7.42523,18.69305,18.48529,18.69305s18.58936-8.77515,18.58936-18.79694v-.10388C160.32952,43.15625,152.90417,34.48462,141.844,34.48462Zm14.22748,18.90082c0,8.2561-5.91943,14.90259-14.22748,14.90259s-14.33136-6.75037-14.33136-15.00647v-.10388c0-8.2561,5.91943-14.90253,14.22748-14.90253s14.33136,6.75031,14.33136,15.00641Z"/><path d="M182.6062,35.10791H169.00189V71.45557h4.102V58.63h8.82727c7.73688,0,14.2796-4.05,14.2796-11.891v-.10388C196.21075,39.4696,190.81042,35.10791,182.6062,35.10791ZM192.05663,46.895c0,4.77686-3.94635,7.99622-9.96967,7.99622h-8.98309V38.89844h9.19086c5.86749,0,9.7619,2.69989,9.7619,7.8927Z"/><polygon points="207.791 54.995 227.627 54.995 227.627 51.257 207.791 51.257 207.791 38.846 229.963 38.846 229.963 35.108 203.689 35.108 203.689 71.456 230.223 71.456 230.223 67.717 207.791 67.717 207.791 54.995"/><polygon points="265.221 64.238 242.322 35.108 238.48 35.108 238.48 71.456 242.478 71.456 242.478 41.65 265.948 71.456 269.22 71.456 269.22 35.108 265.221 35.108 265.221 64.238"/><polygon points="296.897 52.295 285.837 35.108 279.035 35.108 279.035 71.456 285.317 71.456 285.317 45.493 296.689 62.524 296.897 62.524 308.372 45.389 308.372 71.456 314.759 71.456 314.759 35.108 307.957 35.108 296.897 52.295"/><polygon points="330.494 55.982 348.719 55.982 348.719 50.27 330.494 50.27 330.494 40.82 351.056 40.82 351.056 35.108 324.107 35.108 324.107 71.456 351.316 71.456 351.316 65.744 330.494 65.744 330.494 55.982"/><polygon points="356.301 41.027 367.829 41.027 367.829 71.456 374.268 71.456 374.268 41.027 385.795 41.027 385.795 35.108 356.301 35.108 356.301 41.027"/><path d="M422.24743,46.68726v-.10388a10.98607,10.98607,0,0,0-3.01172-7.84058c-2.33655-2.28473-5.91943-3.63489-10.489-3.63489H392.5462V71.45557h6.38672V58.78564h7.99658l8.931,12.66992h7.52924L413.576,57.69537C418.66448,56.24139,422.24743,52.65863,422.24743,46.68726Zm-23.31451,6.43866V40.92365h9.29462c4.72528,0,7.5293,2.12872,7.5293,6.02313v.10388c0,3.68665-2.9079,6.07526-7.47736,6.07526Z"/><rect x="430.45226" y="35.10791" width="6.38678" height="36.34766"/><path d="M463.63238,66.211c-6.95807,0-11.99487-5.81567-11.99487-12.92944v-.10388c0-7.11371,5.0368-12.82526,11.99487-12.82526,4.15393,0,7.26959,1.81714,10.17725,4.5174l4.10217-4.72516a18.94665,18.94665,0,0,0-14.22748-5.66,18.39336,18.39336,0,0,0-18.74518,18.79694v.10388a18.28057,18.28057,0,0,0,18.48547,18.69305c6.80225,0,10.95618-2.49213,14.7467-6.43866l-4.102-4.15393C470.95373,64.39362,468.098,66.211,463.63238,66.211Z"/><path d="M498.89031,50.3739c-6.95795-1.66144-8.61951-2.90771-8.61951-5.71185v-.10388c0-2.38861,2.18085-4.30963,5.91943-4.30963,3.32318,0,6.59448,1.298,9.86572,3.7384l3.42712-4.829a20.14685,20.14685,0,0,0-13.189-4.56946c-7.21765,0-12.41028,4.30994-12.41028,10.54083v.10388c0,6.69855,4.36176,8.98328,12.09875,10.85248,6.75018,1.55756,8.20416,2.95984,8.20416,5.55585v.10388c0,2.75208-2.49249,4.56946-6.43884,4.56946-4.51752,0-7.9964-1.7135-11.4754-4.7251L482.43,66.15924A22.38977,22.38977,0,0,0,497.59228,71.975c7.633,0,12.98126-4.05042,12.98126-10.85248v-.10388C510.57354,54.99512,506.57525,52.2431,498.89031,50.3739Z"/><path d="M45.00646,4.16223C16.232,9.35724-1.52765,35.49683,4.25976,64.13489c5.44141,26.9259,34.68866,44.657,61.03339,37.31982,1.86084-.61346,3.299-1.24017,3.299-1.24017l-1.82562-9.05371s-2.29614.87762-3.493,1.28345a36.76035,36.76035,0,0,1-16.30292.99188C24.27734,89.993,8.44537,68.084,12.75976,46.41022c4.72992-23.76056,27.03967-38.121,50.22748-32.33051,28.69666,7.16614,40.06384,44.543,20.03137,65.72693-.3562-1.29126-.591-1.88281-.78174-2.73273-2.8241-12.5838-5.65228-25.16681-8.3913-37.76923-.70557-3.246-1.39362-6.48328-5.39551-6.90894-3.96375-.42151-5.50415,2.37823-6.73938,5.56348-2.81934,7.27-5.853,15.08716-9.0144,22.07782-1.11322-1.95917-1.24677-2.22632-1.84509-3.21759-2.7464-4.55029-5.23187-9.25342-7.88031-13.86139-1.22089-2.12427-3.00366-3.50623-5.569-3.23816a5.18959,5.18959,0,0,0-4.71344,3.75977C29.9721,52.45,27.556,61.44641,24.77831,70.82385l9.52863-.41223s.67316-2.58173,1.05878-4.54626c.84967-4.3291,2.16962-8.5658,3.518-13.7373,2.90778,5.54834,5.36176,10.21588,7.80133,14.891,1.433,2.746,3.47516,4.76154,6.75208,4.55225,3.23358-.2066,4.55212-3.13812,5.68011-5.70746.79181-1.80353,5.21088-13.3736,7.57507-19.91193.29688,1.54358.49432,2.124.67822,3.0144,3.0094,14.568,6.21509,29.09924,8.93018,43.72174.28455,1.53247.84039,3.905.84039,3.905a31.5734,31.5734,0,0,0,3.61517-2.18372c14.6933-10.752,22.0304-25.08838,21.54053-43.42017C101.524,22.07263,73.41058-.96588,45.00646,4.16223Z"/></g></svg>