<svg id="Layer_1" data-name="Layer 1" xmlns="http://www.w3.org/2000/svg" viewBox="0 0 1440 1440"><defs><style>.cls-1{fill:#369;}.cls-2{fill:#fff;}</style></defs><circle class="cls-1" cx="720" cy="546.28918" r="540"/><path class="cls-2" d="M583.31586,372.33929c1.566-3.5086,2.88519-5.95632,3.78106-8.54977,9.31958-26.97833,22.598-52.03442,37.25013-76.40924,21.48376-35.73959,51.53527-62.95071,87.14148-83.778,20.19036-11.81007,42.69934-18.83876,65.258-25.39755a501.648,501.648,0,0,1,95.14777-18.30648c22.2774-2.00306,44.86578-.55929,67.31524-.65121a6.077,6.077,0,0,1,1.25177.08913c4.83136,1.00264,7.5011-.49125,9.77582-5.41007,7.32764-15.84541,24.72821-23.941,42.20874-20.49888,16.47968,3.245,29.42951,18.09454,30.48615,34.95828a38.51231,38.51231,0,0,1-25.76746,38.94125,38.04818,38.04818,0,0,1-44.30957-14.55c-2.28131-3.4307-4.11084-4.32276-8.2771-3.52043-29.84668,5.74757-58.80316,14.2595-86.02277,27.85977-21.27655,10.63084-40.90667,24.15332-55.43084,43.03131-10.87635,14.13672-19.845,29.9455-28.1305,45.80759-10.95532,20.97345-20.05084,42.859-24.43206,66.35251a38.0091,38.0091,0,0,0-.71942,5.369c-.11939,2.90058-.03211,5.80957-.03211,9.44171,8.13873-1.36248,15.78534-2.56173,23.40112-3.932,28.07819-5.05194,56.37049-8.77478,84.89753-7.84976,29.85418.968,55.85546,12.29647,76.71649,33.94491,11.39282,11.82288,22.31091,24.13834,32.87042,36.711,6.15643,7.33014,11.191,15.60056,16.70795,23.46362.87829,1.25168,1.65448,2.57621,2.45031,3.88379,3.01691,4.95676,6.13,7.56217,13.21033,6.749,21.784-2.50162,37.44263,15.63659,37.98389,33.94018a35.51462,35.51462,0,0,1-70.98651,2.4635q-.05769-1.6637.04052-3.32721c.41034-5.814,2.78052-11.4902,4.734-19.10925-4.02173-3.85431-8.90136-9.41458-14.64245-13.8682-17.55078-13.61474-36.19916-25.56622-56.61768-34.52212a23.28737,23.28737,0,0,0-8.51092-1.845c-24.49866-.68006-48.1142,2.77368-69.82471,15.13113-3.51959,2.00336-6.15424,4.221-6.367,8.49546-.20733,4.16653-.61865,8.33084-.63751,12.49743-.06262,13.79987-.08282,27.60172.10236,41.39981.04382,3.26435-1.27771,4.65283-4.25775,4.8255-3.481.20166-6.97028.41992-10.45386.38855q-42.72574-.38433-85.45068-.85406c-6.26362-.05976-7.68366,1.23932-7.88971,7.4339-.75977,22.84515-1.92933,45.69-2.05811,68.53985-.2395,42.5083.03845,85.02063.30475,127.53.17181,27.43286,4.29657,54.29767,13.45557,80.21887,6.2691,17.74244,17.53118,32.04755,34.48071,40.23273,9.68146,4.67536,20.823,6.69165,31.522,8.83746,20.98334,4.20856,41.64148-.36023,62.266-3.69036,6.92591-1.11835,13.73969-2.92914,20.99115-4.50763-.325,3.31585-.7301,7.24261-1.09216,11.17334-2.696,29.27227-5.43823,58.54046-8.001,87.8244-.30389,3.473-1.93762,5.22827-4.897,6.42334A195.81219,195.81219,0,0,1,810.447,967.78107c-21.99561,3.37622-44.05121,5.43133-66.31427,4.51178a251.52677,251.52677,0,0,1-72.95-13.54572c-27.97693-9.76056-49.721-27.37652-67.00507-51.20367-13.84729-19.08942-20.216-41.03083-26.0459-63.2851-5.85644-22.35583-7.29541-45.30316-9.31054-68.20227-3.49024-39.66125-2.39331-79.39441-2.3678-119.1048.02582-40.138.61981-80.27569,1.00659-120.4132.09656-10.02143.17017-10.00208-9.68848-9.99524q-30.16231.02077-60.3247.00207c-6.23868-.00323-7.09473-.56781-7.17792-6.88244-.145-11.00629.37726-22.02454.10846-33.0253-.37756-15.45179-.84226-30.92289-2.08923-46.31958-.39588-4.8877-2.62168-10.078-5.35566-14.25122-14.24453-21.74384-33.45678-37.78312-58.10678-46.3797a82.67841,82.67841,0,0,0-47.42718-2.327c-29.24088,7.09973-47.742,26.20239-59.72367,52.72235-.79788,1.766-1.56536,3.54566-2.42706,5.50067,6.90241,5.497,11.6864,12.275,13.34708,21.04615,3.36288,17.76144-7.95069,35.16424-25.38574,38.9302-17.97712,3.883-35.67618-6.94638-39.96991-24.45611C258.8609,453.24725,269.53,435.014,287.349,430.72916c3.69876-.88941,4.56006-2.61707,5.08865-5.73966,3.04886-18.01123,6.82361-35.81506,15.088-52.34723,14.31649-28.63867,35.76736-49.44861,65.47784-62.23117a168.11534,168.11534,0,0,1,63.79431-13.5563c12.10785-.23584,24.28287,2.64425,36.41806,4.19369,29.33249,3.74533,52.11884,19.785,73.33289,38.8562C558.45679,350.60986,570.55933,361.09927,583.31586,372.33929Z"/><path class="cls-1" d="M140.27812,1389.61609l-3.25149,34.10339q-13.38974,5.74787-33.66252,5.74781-30.98481,0-46.6685-16.86011-15.6849-16.85761-15.68367-64.94971,0-28.92792.38252-65.52441-9.75447,0-26.39447,1.14953l1.33885-37.74365q14.72613,1.14954,27.3508,1.14954.1881-10.15246,1.53011-53.45423l45.32964-5.55615q-2.869,38.12878-2.869,59.01038,16.06621,0,48.00734-1.53272l-1.53012,38.12683q-29.07534-1.14953-47.24228-1.14953-.3857,25.4837-.38253,53.45422,0,34.10541,6.88552,45.6947,6.88553,11.59369,24.29056,11.59131A86.67289,86.67289,0,0,0,140.27812,1389.61609Z"/><path class="cls-1" d="M295.20221,1243.4314,284.10889,1288.264a75.67338,75.67338,0,0,0-28.68964-5.7478q-28.11587,0-37.10529,25.29016,0,76.44525,1.14759,117.63745H168.58524q3.25026-57.66669,3.25149-94.26331a377.82063,377.82063,0,0,0-9.5632-86.408l48.7724-5.36462q3.25026,21.07744,3.25149,24.71533h3.06023q17.59509-27.01446,46.85976-27.01453Q277.98845,1237.109,295.20221,1243.4314Z"/><path class="cls-1" d="M374.19437,1425.44385H322.74426q2.67649-39.65937,2.67771-91.00623,0-50.96154-6.503-89.28186l55.08413-5.55615q-2.4877,37.17132-2.48645,94.838Q371.51671,1383.67908,374.19437,1425.44385Zm8.79815-239.87317a32.80427,32.80427,0,0,1-8.8938,22.79944q-8.89374,9.77124-24.76873,9.77124-13.38969,0-20.94345-8.43006a29.35715,29.35715,0,0,1-7.55494-20.30871,32.13469,32.13469,0,0,1,8.8938-22.60791q8.89375-9.57769,24.96-9.57959,13.57855,0,20.94346,8.33423A29.21733,29.21733,0,0,1,382.99252,1185.57068Z"/><path class="cls-1" d="M562.20673,1385.20947l-3.25147,36.59412q-17.407,9.19647-47.24234,9.19641-49.34619,0-75.83581-27.58923-26.49325-27.58925-26.49012-66.2909,0-40.2343,27.73331-70.2185,27.73019-29.98224,75.93146-29.98413,23.52548,0,41.8869,5.36462l-6.503,39.08472q-17.59726-7.27863-39.40045-7.28052-23.14494,0-36.5315,16.3811-13.389,16.381-13.388,40.33008,0,26.05848,15.87445,44.06616,15.873,18.01154,44.94709,18.00965Q536.95791,1392.87305,562.20673,1385.20947Z"/><path class="cls-1" d="M767.43329,1425.44385H708.90643q0-7.08638-29.0722-47.99378-29.07468-40.90282-37.10529-40.9049h-2.48645q0,39.27831,2.29517,88.89868h-50.685q2.29513-89.47139,2.29517-142.35291,0-73.18578-5.9292-127.02551L642.53772,1153q-2.68011,72.80732-2.67767,130.09106,0,7.283.19128,28.3556H642.729q5.353,0,30.411-30.94214,25.05369-30.9397,25.05561-37.073h56.99676q0,5.94141-26.012,33.14538-26.014,27.208-42.07813,37.552v2.8739q17.7876,12.45592,49.05933,56.61548Q767.43323,1417.78222,767.43329,1425.44385Z"/><path class="cls-1" d="M921.78363,1373.13916q0,57.47772-84.92133,57.47766-30.98482,0-54.1278-6.70569l6.503-37.74365a139.615,139.615,0,0,0,47.62481,8.62158q22.95164,0,31.84552-3.83178,8.8938-3.83,8.8938-12.83667,0-13.98358-32.13238-26.63135-28.11585-11.10993-40.93054-21.84143-17.59882-14.94416-17.59632-36.59412,0-25.47931,18.93518-41.00073,18.93513-15.5191,55.08411-15.519,33.85372,0,53.17151,5.93933l-6.503,37.93518a127.34085,127.34085,0,0,0-46.66852-8.43006q-30.60424,0-30.60229,15.71057a15.39107,15.39107,0,0,0,6.503,12.9325q6.5005,4.88562,26.58575,12.35767,27.73086,10.15686,40.35675,20.88354Q921.78115,1349.19263,921.78363,1373.13916Z"/><path class="cls-1" d="M1069.4397,1389.61609l-3.25147,34.10339q-13.3905,5.74787-33.66247,5.74781-30.98484,0-46.66852-16.86011-15.68564-16.85761-15.68366-64.94971,0-28.92792.38251-65.52441-9.75458,0-26.39447,1.14953l1.33887-37.74365q14.72533,1.14954,27.35077,1.14954.18877-10.15246,1.53009-53.45423l45.32965-5.55615q-2.869,38.12878-2.869,59.01038,16.06632,0,48.00739-1.53272l-1.53016,38.12683q-29.07458-1.14953-47.24231-1.14953-.385,25.4837-.3825,53.45422,0,34.10541,6.8855,45.6947,6.88559,11.59369,24.29058,11.59131A86.67292,86.67292,0,0,0,1069.4397,1389.61609Z"/><path class="cls-1" d="M1264.338,1314.89526q0,9.77124-1.14758,25.48169l-123.17419,2.10755a56.34348,56.34348,0,0,0,18.55261,36.01928q15.873,14.36938,41.69568,14.36939,28.68969,0,61.0133-8.62158l-3.82532,37.16882q-26.39465,9.5777-65.41235,9.57959-49.34619,0-75.645-27.78088-26.30072-27.77838-26.29883-66.8656,0-40.80909,24.96-70.79322,24.96-29.98224,69.33338-29.98413,40.54614,0,60.24829,22.03308Q1264.33551,1279.64436,1264.338,1314.89526Zm-44.75586-1.72436q0-44.06415-37.48779-44.06616-35.76855,0-42.46069,45.59887Z"/><path class="cls-1" d="M1425,1243.4314l-11.09338,44.83252a75.66869,75.66869,0,0,0-28.6897-5.74781q-28.11585,0-37.10523,25.29016,0,76.44507,1.14759,117.63746h-50.87622q3.24957-57.66687,3.25146-94.26331a377.85189,377.85189,0,0,0-9.56323-86.408l48.77234-5.36462q3.24939,21.07744,3.25146,24.71533h3.06018q17.59443-27.01466,46.85974-27.01453Q1407.7862,1237.10882,1425,1243.4314Z"/></svg>