<svg xmlns="http://www.w3.org/2000/svg" width="1700" height="667" viewBox="0 0 1700 667" version="1.1"><path d="M 306.648 39.093 C 305.940 45.866, 303.052 53.243, 299.701 56.835 C 291.967 65.126, 265.812 70.269, 256.493 65.331 C 252.655 63.297, 245.337 56.072, 239.973 49.022 L 237.445 45.701 221.973 52.176 C 209.299 57.480, 206.527 59, 206.651 60.576 C 206.735 61.634, 207.359 66.100, 208.039 70.500 C 209.820 82.031, 208.601 85.806, 200.605 93.526 C 192.415 101.433, 178.013 109.004, 171.190 108.990 C 165.819 108.979, 158.156 105.753, 150.971 100.479 C 148.365 98.566, 145.895 97, 145.483 97 C 144.858 97, 139.540 101.700, 121.656 118.057 C 119.872 119.688, 119.901 119.883, 122.545 124.071 C 133.385 141.243, 132.453 150.367, 118.095 167.618 C 108.033 179.708, 100.274 182.084, 83.763 178.133 L 76.025 176.281 73.641 180.391 C 72.330 182.651, 68.680 189.347, 65.529 195.271 L 59.801 206.041 66.953 212.662 C 70.886 216.304, 75.019 221.078, 76.138 223.270 C 79.913 230.670, 78.056 244.379, 71.364 258.513 C 66.512 268.761, 59.843 272.656, 45.367 273.696 L 37.233 274.281 36.679 278.390 C 34.921 291.426, 33.769 308.154, 34.582 308.846 C 35.087 309.275, 38.200 310.441, 41.500 311.435 C 56.893 316.073, 62 324.915, 62 346.926 C 62 357.724, 61.785 359.067, 59.250 364.071 C 56.744 369.018, 55.835 369.827, 49.011 373.177 C 34.714 380.197, 34.410 381.862, 42.066 411.142 L 43.019 414.783 47.259 413.803 C 52.922 412.495, 60.849 413.372, 65.691 415.842 C 76.792 421.506, 86.881 441.434, 85.754 455.473 C 85.037 464.403, 81.442 470.091, 72.112 477.054 L 68.725 479.583 73.882 487.812 C 76.719 492.338, 81.032 499.149, 83.466 502.947 L 87.892 509.851 95.053 506.842 C 112.270 499.609, 120.710 502.654, 135.947 521.595 C 139.168 525.598, 142.353 530.540, 143.025 532.575 C 144.820 538.014, 143.613 544.897, 139.220 554.272 L 135.347 562.537 149.223 573.353 L 163.099 584.169 166.944 579.801 C 171.214 574.950, 178.577 570.582, 184.150 569.594 C 189.220 568.695, 196.107 570.426, 205.509 574.961 C 214.889 579.485, 222.248 585.606, 225.153 591.299 C 227.864 596.613, 228.500 605.118, 226.690 611.830 C 225.655 615.666, 225.567 617.272, 226.376 617.560 C 226.994 617.780, 233.967 620.029, 241.870 622.558 C 249.774 625.086, 256.820 627.377, 257.528 627.649 C 258.336 627.959, 260.194 625.519, 262.518 621.097 C 268.585 609.551, 276.205 604.008, 286 604.013 C 291.606 604.016, 301.983 605.897, 308.888 608.161 C 317.580 611.010, 321.604 614.960, 326.956 625.895 L 331.411 635 347.660 635 L 363.909 635 364.536 631.250 C 367.709 612.279, 373.106 606.341, 391.095 602.029 C 400.894 599.680, 409.705 599.432, 414.355 601.375 C 418.804 603.234, 424.205 608.119, 429.684 615.240 C 435.090 622.265, 433.719 622.326, 452.831 614.212 C 465.469 608.846, 466.136 608.421, 465.680 606.026 C 463.423 594.180, 463.067 590.960, 463.604 587.272 C 464.554 580.753, 468.991 574.767, 477.181 568.954 C 495.449 555.986, 504.879 555.565, 521.467 566.977 C 523.883 568.640, 526.229 569.996, 526.680 569.992 C 527.469 569.985, 537.306 561.532, 547.283 552.289 L 552.067 547.857 530.409 526.679 C 518.497 515.030, 508.106 505.126, 507.318 504.668 C 506.334 504.097, 504.572 504.970, 501.692 507.456 C 469.408 535.329, 443.162 550.595, 408.832 561.465 C 342.221 582.558, 263.586 570.803, 202 530.546 C 146.243 494.099, 110.114 435.116, 100.313 364.534 C 98.426 350.947, 98.177 318.149, 99.860 305 C 105.655 259.743, 122.543 219.192, 149.787 185.118 C 193.855 130.004, 254.338 99.734, 329 95.428 C 362.139 93.517, 403.841 102.018, 436.121 117.265 C 454.435 125.916, 477.477 140.585, 491.659 152.621 C 494.497 155.030, 497.249 157, 497.775 157 C 499.339 157, 537.261 106.232, 536.553 105.086 C 536.195 104.507, 530.032 99.536, 522.856 94.040 L 509.809 84.046 504.154 88.676 C 491.094 99.369, 483.422 100.331, 468.455 93.149 C 456.360 87.346, 450.634 82.924, 447.824 77.219 C 445.825 73.160, 445.488 70.907, 445.418 61.111 L 445.335 49.722 431.918 45.393 C 412.184 39.025, 414.063 39.003, 410.088 45.650 C 405.500 53.321, 400.473 58.718, 395.603 61.202 C 392.016 63.033, 390.351 63.200, 380.535 62.714 C 358.441 61.621, 350.108 56.293, 344.820 39.873 L 342.606 33 324.946 33 L 307.285 33 306.648 39.093 M 316 121.141 C 242.435 127.871, 176.797 173.407, 143.947 240.500 C 104.731 320.598, 119.472 416.104, 180.970 480.365 C 246.232 548.560, 346.144 566.453, 430.500 525.055 C 451.265 514.864, 468.742 502.447, 481.851 488.570 L 487.202 482.906 481.880 477.203 C 467.249 461.525, 444.176 438, 443.430 438 C 442.965 438, 440.990 439.537, 439.042 441.415 C 426.832 453.187, 402.092 467.800, 384.683 473.524 C 367.572 479.150, 359.041 480.402, 337.500 480.446 C 315.432 480.491, 307.428 479.371, 290.036 473.802 C 240.143 457.828, 203.415 416.283, 191.806 362.688 C 188.838 348.989, 188.566 318.188, 191.294 304.730 C 195.148 285.718, 203.416 265.743, 214.154 249.500 C 221.075 239.031, 238.184 222.012, 249.511 214.329 C 266.901 202.535, 288.587 193.258, 308.841 188.949 C 322.871 185.965, 345.357 185.286, 359.765 187.411 C 384.880 191.117, 406.209 200.042, 426.431 215.308 C 430.214 218.163, 434.027 221.043, 434.905 221.706 C 436.271 222.738, 439.480 219.623, 457.250 200.013 C 468.663 187.419, 478 176.707, 478 176.207 C 478 175.708, 475.413 173.064, 472.250 170.332 C 430.296 134.085, 372.703 115.954, 316 121.141 M 808.667 195.667 C 808.300 196.033, 808 214.467, 808 236.631 L 808 276.929 803.513 275.005 C 794.036 270.943, 773.019 264.818, 762.151 262.950 C 735.994 258.456, 715.237 261.841, 696.012 273.738 C 686.276 279.763, 670.025 296.026, 662.758 307.016 C 636.331 346.982, 642.243 400.266, 676.964 435.050 C 689.922 448.032, 704.682 456.467, 723.630 461.719 C 732.448 464.163, 735.152 464.453, 749 464.438 C 761.751 464.424, 765.923 464.036, 772.524 462.247 C 782.602 459.516, 793.097 455.211, 801.074 450.536 C 804.471 448.545, 807.503 447.170, 807.813 447.479 C 808.122 447.789, 808.570 450.733, 808.808 454.021 L 809.240 460 833.120 460 L 857 460 857 327.500 L 857 195 833.167 195 C 820.058 195, 809.033 195.300, 808.667 195.667 M 1366.625 260.554 C 1333.576 267.121, 1306.116 287.668, 1291.596 316.696 C 1283.568 332.745, 1280.581 347.556, 1281.251 368 C 1281.770 383.835, 1283.963 392.978, 1290.245 405.500 C 1301.171 427.276, 1323.045 447.588, 1345.749 457.039 C 1360.404 463.140, 1366.863 464.343, 1385 464.347 C 1399.585 464.350, 1402.611 464.052, 1411.074 461.778 C 1430.092 456.666, 1445.302 448.577, 1457.161 437.265 C 1463.997 430.745, 1472.499 418.744, 1471.721 416.715 C 1471.422 415.937, 1463.626 409.878, 1454.396 403.251 L 1437.614 391.202 1431.242 396.608 C 1398.969 423.988, 1371.092 426.724, 1348.747 404.707 C 1324.248 380.566, 1323.924 345.066, 1347.982 320.970 C 1356.193 312.746, 1362.482 308.891, 1371.535 306.533 C 1382.993 303.549, 1394.159 305.055, 1407.500 311.384 C 1414.886 314.888, 1428.493 324.583, 1433.437 329.863 C 1435.052 331.588, 1436.857 333, 1437.446 333 C 1438.842 333, 1472.234 308.799, 1472.678 307.465 C 1473.268 305.695, 1460.102 290.185, 1452.653 283.875 C 1439.083 272.380, 1422.938 264.512, 1405.500 260.894 C 1394.795 258.673, 1376.881 258.516, 1366.625 260.554 M 529.655 261.597 C 511.306 264.912, 490.113 274.807, 474.636 287.285 L 471.772 289.593 480.909 304.352 C 485.934 312.470, 491.156 320.871, 492.514 323.022 L 494.983 326.933 501.741 321.807 C 515.200 311.599, 528.681 307.050, 545.568 307.017 C 566.732 306.977, 576 314.278, 576 330.989 L 576 338.554 552.750 340.882 C 501.155 346.047, 488.585 349.566, 475.524 362.500 C 465.010 372.912, 460 386.128, 460 403.450 C 460 431.869, 476.666 452.251, 507.549 461.603 C 515.271 463.941, 518.354 464.326, 530 464.405 C 541.528 464.483, 544.589 464.154, 550.957 462.156 C 561.791 458.757, 571.259 453.783, 581.971 445.863 L 584.949 443.662 590.471 448.884 C 596.639 454.717, 603.824 458.311, 612.536 459.922 C 618.883 461.095, 636.248 461.350, 642.250 460.358 L 646 459.738 646 437.869 L 646 416 642.250 415.920 C 635.506 415.775, 629.653 413.713, 628.288 411 C 627.345 409.128, 627.021 399.083, 626.997 371 C 626.955 321.114, 625.776 310.707, 618.430 295.333 C 611.867 281.600, 599.840 271.588, 583.210 266.017 C 566.072 260.275, 546.096 258.626, 529.655 261.597 M 961 260.651 C 945.152 263.788, 929.923 269.932, 917.877 278.050 C 909.705 283.558, 897.557 295.707, 892.048 303.881 C 872.661 332.648, 868.715 370.702, 881.871 402.015 C 888.736 418.353, 903.387 436.240, 917.870 445.961 C 927.150 452.191, 943.239 459.503, 953 461.928 C 987.218 470.430, 1027.726 459.821, 1051.889 436.030 C 1057.258 430.744, 1066 418.980, 1066 417.042 C 1066 416.685, 1058.688 411.051, 1049.750 404.522 C 1040.813 397.993, 1032.932 392.220, 1032.238 391.693 C 1031.328 391.002, 1029.277 392.592, 1024.866 397.405 C 1017.521 405.421, 1008.364 412.136, 999.808 415.780 C 993.994 418.256, 992.443 418.464, 980 418.445 C 967.628 418.426, 965.873 418.187, 959 415.586 C 942.848 409.474, 933.840 400.611, 927.906 384.995 L 926.008 380 999.035 380 C 1067.645 380, 1072.106 379.894, 1072.781 378.250 C 1073.177 377.288, 1073.444 369.300, 1073.375 360.500 C 1073.268 346.796, 1072.883 343.107, 1070.694 334.794 C 1066.001 316.977, 1057.438 301.394, 1045.606 289.141 C 1036.834 280.057, 1028.891 274.290, 1017.928 269.050 C 1004.639 262.696, 995.977 260.809, 978.500 260.458 C 970.250 260.292, 962.375 260.379, 961 260.651 M 1173 261.427 C 1169.425 262.178, 1160.882 264.627, 1154.015 266.869 L 1141.530 270.947 1138.015 267.570 L 1134.500 264.194 1121.290 263.488 C 1114.024 263.099, 1104.012 263.103, 1099.040 263.497 L 1090 264.212 1090 362.106 L 1090 460 1114.393 460 L 1138.786 460 1139.255 399.750 C 1139.657 348.006, 1139.954 338.684, 1141.357 333.720 C 1144.922 321.104, 1151.301 312.982, 1161.253 308.385 C 1166.823 305.813, 1168.584 305.500, 1177.500 305.503 C 1186.619 305.505, 1188.081 305.780, 1194.089 308.624 C 1202.162 312.447, 1207.431 317.558, 1210.880 324.914 L 1213.500 330.500 1214.107 395 C 1214.441 430.475, 1214.779 459.613, 1214.857 459.750 C 1214.936 459.887, 1225.961 460, 1239.359 460 L 1263.717 460 1264.421 412.750 C 1265.239 357.828, 1264.125 325.718, 1260.974 313.396 C 1257.540 299.971, 1252.753 291.676, 1242.539 281.453 C 1235.180 274.087, 1231.921 271.636, 1225 268.263 C 1220.325 265.985, 1213.800 263.385, 1210.500 262.486 C 1202.307 260.253, 1181.403 259.663, 1173 261.427 M 1551.306 261.421 C 1528.794 265.707, 1511.789 275.019, 1495.954 291.733 C 1483.255 305.138, 1474.580 321.386, 1469.816 340.693 C 1466.606 353.704, 1466.798 373.888, 1470.257 387.011 C 1475.161 405.619, 1484.242 421.100, 1498.159 434.578 C 1512.326 448.299, 1527.196 456.771, 1545.794 461.720 C 1554.160 463.946, 1557.571 464.305, 1570.500 464.316 C 1587.395 464.331, 1595.421 462.965, 1610.863 457.446 C 1624.464 452.585, 1634.940 446.006, 1645.014 436 C 1653.128 427.941, 1659.803 418.108, 1658.544 416.071 C 1658.060 415.288, 1628.814 393.817, 1625.392 391.732 C 1624.763 391.349, 1620.215 395.057, 1614.892 400.290 C 1600.838 414.106, 1589.999 419, 1573.450 419 C 1556.935 419, 1541.955 413.039, 1532.320 402.633 C 1527.273 397.181, 1520 384.575, 1520 381.278 C 1520 380.252, 1534.525 380, 1593.624 380 L 1667.248 380 1666.745 362.250 C 1666.329 347.587, 1665.803 342.835, 1663.723 334.926 C 1653.894 297.559, 1629.592 271.962, 1595.329 262.884 C 1585.181 260.196, 1561.819 259.419, 1551.306 261.421 M 740 306.563 C 729.873 308.750, 721.495 313.520, 712.887 322 C 701.129 333.584, 696 345.987, 696 362.839 C 696 377.583, 701.921 391.842, 712.500 402.577 C 729.967 420.302, 754.548 424.686, 776.500 413.991 C 786.613 409.064, 792.617 403.851, 798.763 394.662 C 805.860 384.051, 808.517 375.078, 808.433 362 C 808.321 344.585, 802.552 331.250, 790.188 319.824 C 776.794 307.446, 758.406 302.588, 740 306.563 M 961.105 306.583 C 947.220 310.316, 933.256 322.785, 929.560 334.750 L 928.865 337 974.433 337 C 999.495 337, 1020 336.747, 1020 336.438 C 1020 336.129, 1018.843 333.430, 1017.428 330.440 C 1012.139 319.260, 1000.410 309.793, 987.632 306.390 C 981.030 304.632, 968.005 304.727, 961.105 306.583 M 1554.813 306.470 C 1552.235 307.180, 1547.960 308.798, 1545.313 310.066 C 1538.632 313.266, 1527.969 324.180, 1524.674 331.188 C 1523.203 334.317, 1522 337.129, 1522 337.438 C 1522 337.747, 1542.700 338, 1568 338 C 1593.300 338, 1614 337.762, 1614 337.471 C 1614 337.181, 1612.607 334.183, 1610.904 330.810 C 1607.269 323.608, 1599.334 314.866, 1593.137 311.234 C 1583.361 305.505, 1566.104 303.360, 1554.813 306.470 M 563 381.082 C 539.632 383.644, 527.897 385.275, 523 386.643 C 513.079 389.412, 507.995 395.200, 508.004 403.718 C 508.018 417.684, 530.055 426.933, 549.217 421.015 C 567.175 415.468, 577 403.199, 577 386.318 L 577 380 573.750 380.130 C 571.962 380.201, 567.125 380.630, 563 381.082" stroke="none" fill="#040404" fill-rule="evenodd"/></svg>