<svg xmlns="http://www.w3.org/2000/svg" role="img" viewBox="-4.57 -6.07 419.64 144.64"><style>svg {enable-background:new 0 0 409.8 133.8}</style><style>.st0{fill:#fff}.st1{fill:none}.st2{fill:#67cfe3}.st3{fill:#dfcaa3}.st4{fill:#231f20}.st5{fill:#648c1a}</style><path d="M155 91.4c0 2.4-.5 4.8-1.6 6.8-2.4 4.7-6.6 7-12.6 7-4 0-7-1.1-9.2-3.3-3.5-3.6-3.3-9-3.3-9.1l-2.5-.1c0 .3-.2 6.5 4 10.9 2.6 2.7 6.3 4.1 11 4.1 8.7 0 12.8-4.6 14.8-8.4 1.2-2.4 1.9-5.1 1.9-8V42.5H155v48.9zm34.2-48.8c-.7 0-1.2.4-1.5 1.1l-21 63.4h2.7l6.1-18H203l6.2 18h2.7l-21.2-63.4c-.3-.7-.9-1.1-1.5-1.1zm-12.8 43.9l12.8-39.2 12.9 39.2h-25.7zm47.4 20.4h30.7v-2.5h-28.1V75.7h26.4v-2.5h-26.4V44.5h28.1V42h-30.7zM307 59.6c0-.3.2-7.3-4.7-12.5-3.3-3.4-8-5.2-14.1-5.2s-10.9 1.7-14.1 5.2c-4.9 5.1-4.6 12-4.6 12.2v31.3c0 3.8 1 7.3 3 10.2 2.3 3.5 7 7.6 15.7 7.6 2.9 0 5.5-.3 7.8-.9 6.5-1.6 11-7.5 11-14.3V77.7h-16.2v2.5h13.7v13.2c0 5.6-3.7 10.5-9.1 11.8-2.1.5-4.5.8-7.2.8-6.1 0-10.7-2.2-13.6-6.5-1.7-2.5-2.6-5.5-2.6-8.8V59.3c0-.1-.2-6.1 3.9-10.4 2.8-2.9 6.9-4.4 12.3-4.4 5.3 0 9.4 1.5 12.2 4.4 4.2 4.3 4 10.6 4 10.6l2.6.1zm16.9 47.3h31v-2.5h-28.5V75.7h26.1v-2.5h-26.1V44.5h28.5V42h-31zm83.2.1l-13.7-27.9c2.7-.8 5.1-2 6.9-3.8 2.8-2.8 4.3-6.8 4.3-11.9 0-12.6-6.5-18.4-10.3-20.2-1.8-.8-3.7-1.2-5.7-1.2h-18.5v64.9h2.5V80.3c1.1 0 2.2 0 3.3.1 4.9.1 10.2.2 14.9-.7l13.4 27.3h2.9zM376 77.8c-1.2 0-2.3 0-3.4-.1V44.5h15.9c1.7 0 3.2.3 4.7 1 4 1.8 8.8 7.2 8.8 17.8 0 4.5-1.1 7.8-3.5 10.1-4.8 4.8-14.2 4.6-22.5 4.4z" class="st0"/><path d="M71.7 53.2c-1.7-1-3.6-1.6-5.7-1.6-6.1 0-11 4.9-11 11 0 4 2.1 7.5 5.3 9.4 1.7 1 3.6 1.6 5.7 1.6 6.1 0 11-4.9 11-11 0-4-2.1-7.5-5.3-9.4zM43 70.5c0-4-2.1-7.4-5.3-9.4-1.7-1-3.6-1.6-5.7-1.6-6.1 0-11 4.9-11 11 0 4 2.1 7.5 5.3 9.4 1.7 1 3.6 1.6 5.7 1.6 6.1-.1 11-5 11-11z" class="st1"/><path d="M46.7 92c.6 1.2 1.5 2.2 2.5 2.2.2 0 .4 0 .6-.1 1.1-.4 1.1-2.3.9-4-1.5.4-2.8 1.2-4 1.9z" class="st2"/><path d="M99.1 97.9c-.4-3.3-1.8-4.7-3-6-1.1-1.2-2.2-2.3-1.9-4.4.3-1.9 1.8-3.1 4.3-3.4C97 74 94.8 61.2 92 50.2c-1.4-5.5-3.7-9.3-6.7-11.8-3.4 1.8-7.6 3.7-12.2 5.7-3.3 1.4-6.8 2.9-10 4.1-2.6 2.8-5.5 5.6-7.3 6.4-1.3.6-2.4.8-3.3.8-2.1 0-3.5-1.1-4.2-2-.8.2-1.4.3-1.9.4-.5.1-1.3.1-2.2.2.4 1 .2 2.1-.5 2.9-.8.9-2 1.4-3.8 1.4-2.5 0-6.2-1-11-2.9-.7-.3-1.4-.5-2-.8h-1.1c-4.6 0-8.2-.1-11.1-.4-3.1 6.4-1.8 13.5-.6 19.4 1.1 5.6 4.9 15.6 8.4 24.3 1.3 3.2 2.6 6.2 3.6 8.7 9.5.8 21.6 1.3 34.8 1.3 15.7 0 29.9-.7 39.9-1.9-.6-2.8-1.5-7-1.7-8.1zM26.4 79.8c-3.2-1.9-5.3-5.4-5.3-9.4 0-6.1 4.9-11 11-11 2.1 0 4 .6 5.7 1.6 3.2 1.9 5.3 5.4 5.3 9.4 0 6.1-4.9 11-11 11-2.1 0-4.1-.6-5.7-1.6zm38.2 9.1c-1.1.5-2.8.7-5.4.7v.6c.1 1.5-.2 2.7-1.1 3.6-.7.8-1.8 1.2-3 1.2-.5 0-1.1-.1-1.5-.2-.5-.2-.9-.5-1.2-1-.3 1-1 1.7-1.8 2-.4.2-.9.3-1.4.3-1.6 0-3-1.1-4.1-3.2-.1.1-.3.2-.5.3-.8.4-1.7.6-2.8.6-1.9 0-3.7-.8-4.8-2-.9-1-1.3-2.3-1.1-3.7.6-4.2 6.1-5.9 6.8-6.1l1.3-.4.9 1c.1.1.7.7 3.1.7.9 0 1.9-.1 3.1-.3 3.8-.6 5.3-3.6 5.4-3.8L57 78h1.4c8.3.1 9.5 3.7 9.7 4.8.4 2.7-.9 4.9-3.5 6.1zM66 73.5c-2.1 0-4-.6-5.7-1.6-3.2-1.9-5.3-5.4-5.3-9.4 0-6.1 4.9-11 11-11 2.1 0 4 .6 5.7 1.6 3.2 1.9 5.3 5.4 5.3 9.4 0 6.1-4.9 11-11 11z" class="st2"/><path d="M58.3 80.2s-1.8 4.2-6.9 5c-1.3.2-2.4.3-3.4.3-2.7 0-4.1-.7-4.7-1.5 0 0-4.9 1.4-5.3 4.4-.3 2.2 1.9 3.4 3.9 3.4.7 0 1.3-.1 1.8-.4 1.9-1 4.9-3.3 8.8-3.8.4 0 .8-.1 1.4-.1 1.3 0 3.2.1 4.9.1 2 0 3.9-.1 5-.6 2.4-1 2.4-2.8 2.3-3.7-.3-1-1.8-3.1-7.8-3.1zm-1 9.4h-4.6c.4 1.6 1 3.2 1.6 3.4.2.1.5.1.8.1 1 0 2.3-.5 2.1-2.7.1-.2.1-.5.1-.8z" class="st2"/><path d="M14.8 44.3s0-.2-.1-.6c-.1-.4-.2-1-.3-1.6-.1-.3-.1-.7-.1-1 0-.4 0-.7.1-1 0-.1.1-.2.1-.3 0 0 .1-.1.2-.1h.2c.1 0 .2.1.3.2.3.2.5.5.8.8.3.3.5.6.8 1 .5.7.9 1.3 1.3 1.9.4.6.7 1 1 1.4.2.3.4.5.4.5v-.2c0-.1 0-.3-.1-.5-.1-.4-.2-1-.4-1.7s-.5-1.4-1-2.2c-.2-.4-.5-.8-.8-1.2-.3-.4-.6-.8-1.1-1.1-.2-.2-.5-.3-.9-.4-.1 0-.2 0-.3-.1h-1c-.3.1-.7.4-.9.7-.2.3-.3.6-.3.9-.1.6.1 1 .2 1.5.1.4.3.8.4 1.1.3.6.7 1.1.9 1.5.1.2.2.3.3.4l.3.1zm65.3-18.6l-.1-.2-.1-.1c-.1-.2-.5-.4-.5-.4h-.2l-.2-.1c-.1-.1-.3-.1-.5-.1h-1c-.7.1-1.3.4-1.7.8-.5.4-.8.8-1.1 1.3-.6.9-.9 1.8-1.1 2.5-.2.8-.3 1.4-.3 1.9v.7l.3-.6c.2-.4.5-.9.9-1.6.4-.6.8-1.4 1.4-2l.9-.9c.3-.2.7-.4 1-.4h.8l.2.1h.1c0 .1.1.2.1.4 0 .4 0 .8-.1 1.2-.1.4-.2.8-.2 1.2-.2.7-.3 1.3-.4 1.8-.1.4-.2.7-.2.7l.5-.5c.3-.4.7-.9 1.1-1.6.2-.3.4-.7.5-1.2.2-.4.3-.9.4-1.5 0-.3 0-.6-.1-1-.3-.3-.4-.3-.4-.4zm-59 44.8c0-6.1 4.9-11 11-11 2.1 0 4 .6 5.7 1.6-1.7-1-3.6-1.6-5.7-1.6-6.1 0-11 4.9-11 11 0 4 2.1 7.4 5.3 9.4-3.2-2-5.3-5.5-5.3-9.4zm39.2 1.4C57.1 70 55 66.5 55 62.5c0-6.1 4.9-11 11-11 2.1 0 4 .6 5.7 1.6-1.7-1-3.6-1.6-5.7-1.6-6.1 0-11 4.9-11 11 .1 4 2.2 7.5 5.3 9.4z" class="st1"/><path d="M31.5 118.3c-1.9.4-7.4 3.4-12.2 4.3-4.8.9-8.9 1.4-10.3 1.9-1.4.5-2.6 1.6.3 2.7 2.8 1.1 16.6 1.4 17.8 0 1.2-1.4-.9-2.1-3.9-2-2.1 0-1.9-.7-1.9-.8 0 0 .1-.9 3.4-1.4 3.3-.5 17.8-1.8 17.6-3.4-.1-1.5-8.9-1.8-10.8-1.3z" class="st0"/><ellipse cx="22.1" cy="129.7" class="st0" rx="2.9" ry=".8" transform="rotate(-12.275 22.099 129.76)"/><ellipse cx="15.5" cy="129.4" class="st0" rx="3" ry=".8" transform="matrix(.9968 -.07936 .07936 .9968 -10.217 1.637)"/><ellipse cx="10.2" cy="128.7" class="st0" rx="2" ry=".6" transform="rotate(-7.758 10.201 128.658)"/><ellipse cx="6.3" cy="128.1" class="st0" rx="1.9" ry=".5" transform="rotate(-8.27 6.287 128.081)"/><ellipse cx="5.4" cy="127" class="st0" rx="1.9" ry=".5" transform="rotate(-8.27 5.403 126.983)"/><ellipse cx="5.2" cy="125.8" class="st0" rx="1.7" ry=".4" transform="rotate(-8.27 5.174 125.76)"/><path d="M60.2 119.8c-3.3.2-10.7-.2-11.7 1.5s3 2.4 9.3 1.8c6.3-.5 15.3-1.2 15.7-3.2.4-1.9-1.7-1.6-1.9-2.8-.2-1.2 2.3-1.2 2.7-3.1.5-1.8-3.3-1.6-6.7-1.6s-9 .3-9.5 2.1 2.6 1.8 4.8 2.2c2.2.4 1.6 1.2 1.6 1.2-.2 1.2-1.1 1.7-4.3 1.9z" class="st0"/><ellipse cx="51.4" cy="124.5" class="st0" rx="2.8" ry=".9"/><ellipse cx="58.7" cy="124.3" class="st0" rx="1.9" ry=".8"/><ellipse cx="64.6" cy="123.7" class="st0" rx="2.1" ry=".7"/><ellipse cx="69.1" cy="122.9" class="st0" rx="1.5" ry=".7"/><ellipse cx="73.1" cy="122.1" class="st0" rx="1.5" ry=".7"/><path d="M6.4 102.3c0 .9 2 1.8 5.5 2.5-.3-1.8-.1-3.7.1-5.1-3.5.8-5.6 1.7-5.6 2.6zm104.5-2.4c-.1.1-.1.3-.2.4-.4 1-1.1 1.9-1.9 2.7-1.6 1.5-3 2.4-4.3 2.8 6.9-1 11-2.2 11-3.5.1-.8-1.6-1.6-4.6-2.4z" class="st0"/><path d="M18.5 109.7c2.6 0 4.4-1.4 5.6-3.2-1.5-3.4-3.8-9-6.1-15-.6.5-1.3 1.3-2.1 2.5-1.9 3-3.5 9.8-1.5 13.5.9 1.4 2.2 2.2 4.1 2.2zm90.7-17.1c-1.5-3.9-4.7-6.7-7.8-6.7h-.1s-.6-.1-1.4-.1c-1.7 0-3.7.4-4 2.1-.2 1.2.3 1.8 1.4 2.9 1.3 1.3 3 3.1 3.5 6.9.6 4.3 1.6 6.5 3.1 6.5.7 0 2-.4 4.1-2.4 2.5-2.5 2.3-6.4 1.2-9.2z" class="st3"/><path d="M55.1 62.6c0 4 2.1 7.4 5.3 9.4 1.7 1 3.6 1.6 5.7 1.6 6.1 0 11-4.9 11-11 0-4-2.1-7.4-5.3-9.4-1.7-1-3.6-1.6-5.7-1.6-6.1 0-11 4.9-11 11zM68 66.2c0 1.9-1.5 3.5-3.5 3.5-1.9 0-3.5-1.5-3.5-3.5 0-1.9 1.5-3.5 3.5-3.5 2 .1 3.5 1.6 3.5 3.5zm-46.9 4.3c0 4 2.1 7.4 5.3 9.4 1.7 1 3.6 1.6 5.7 1.6 6.1 0 11-4.9 11-11 0-4-2.1-7.4-5.3-9.4-1.7-1-3.6-1.6-5.7-1.6-6.1 0-11 4.9-11 11zm13.4 3.8c0 1.9-1.5 3.5-3.5 3.5-1.9 0-3.5-1.5-3.5-3.5 0-1.9 1.5-3.5 3.5-3.5 2 .1 3.5 1.6 3.5 3.5z" class="st0"/><circle cx="31.1" cy="74.3" r="3.5" class="st4"/><circle cx="64.6" cy="66.2" r="3.5" class="st4"/><path d="M21.6 53c-.4-.1-.6-.1-.7-.1-1.5.1-2.8-.9-3.1-2.4v-.4c-.8.5-1.6.9-2.3 1.5l-1.3.9-1-1.3c-.3-.4-1.6-2.2-2.9-4.6-2.3 1.1-4.2 2.3-4.6 3.5-.1.2-.1.3 0 .5.4.4 2.6 2.1 15.9 2.4zm62.6-21.7c-.4 2.6-1.3 5.5-1.8 6.3l-.5.7c2.4-1.2 4.5-2.3 6.3-3.3 6.3-3.5 7-5.1 7.1-5.4.1-.3 0-.3 0-.4-.1-.1-.5-.5-2.5-.5-2.2 0-5.2.5-8.4 1.2 0 .5-.1.9-.2 1.4zm-2.4 7.1l-.9-.1s-1.7-.1-3.9-.1c-2.3 0-5.4.1-8 .7.5 1 .4 2.2-.4 3.2-.6.7-1.7 2-2.9 3.4 2.2-.9 4.5-1.9 6.8-2.9 3.4-1.5 6.5-2.9 9.3-4.2zm-60.1-2.7c2.7.7 5.7 1.1 9.1 1.1 12.9 0 27.1-5.6 32.6-8l.3-.2c-.1-.8 0-1.7.2-2.6.4-1.6 1.1-3 1.9-3.9-.2-.6-.3-1.1-.4-1.3-1.8-1-17-6.6-24.9-6.6-.8 0-1.5.1-2 .2-7 1.4-17.6 13.6-18 15.3-.1.7-.1 3.1 0 5.6l1.2.4zm27.4 13.5c1.2-.7 2.6-.6 3.6.3.1 0 .4-.1.8-.3 1.4-.7 6.7-6.3 10.6-11 .1-.2.3-.3.5-.5-9.1 4.1-21.8 8.3-33.9 8.3-1.9 0-3.8-.1-5.5-.3l.3.8-1.5.6s-.3.1-.7.3c1.9.5 4.6 1.3 7.9 2.7 6 2.4 8.3 2.5 8.9 2.5.8-.4 1.8-.5 2.7 0 1.6-.1 2.8-.2 3.5-.3.3 0 .8-.1 1.5-.3-.2-1.1.3-2.2 1.3-2.8z" class="st5"/><path d="M64 30.4c-.2.1-.4.2-.5.2 0 0-.1 0-.1.1-.2.1-.4.2-.6.2h-.1c-.2.1-.4.2-.6.2H62l-.6.3s-.1 0-.1.1c-.2.1-.5.2-.7.3-.2.1-.5.2-.7.3-.1 0-.1 0-.2.1-.2.1-.5.2-.7.3h-.1c-.2.1-.5.2-.7.3 0 0-.1 0-.1.1-.3.1-.5.2-.8.3-.1 0-.1 0-.2.1-.3.1-.5.2-.8.3l-.9.3c-.1 0-.1 0-.2.1l-.9.3h-.1c-.3.1-.6.2-.8.3-.1 0-.1 0-.2.1l-.9.3c-.1 0-.1 0-.2.1l-.9.3h-.1c-.3.1-.6.2-1 .3-.1 0-.1 0-.2.1-.3.1-.7.2-1 .3h-.1c-.3.1-.6.2-.9.2h-.2c-.3.1-.7.2-1 .3h-.2c-.3.1-.6.2-1 .2h-.1c-.3.1-.7.2-1 .2h-.2c-.3.1-.7.1-1 .2h-.1c-.3.1-.7.1-1 .2h-.2c-.3.1-.7.1-1 .2h-.2c-.3.1-.7.1-1 .2h-.1c-.4.1-.7.1-1.1.2h-.2c-.4 0-.7.1-1.1.1h-.1c-.3 0-.7.1-1 .1h-.2c-.4 0-.7.1-1.1.1h-.2c-.3 0-.7 0-1 .1h-5.1c-.3 0-.7 0-1-.1h-.1c-.4 0-.7-.1-1.1-.1h-.2c-.3 0-.7-.1-1-.1H25c-.3 0-.6-.1-.9-.2h-.2c-.3-.1-.7-.1-1-.2h-.2c-.3-.1-.7-.2-1-.3l.9 1.5c1.1 2 1.9 3.9 2.4 5.1.2 0 .4.1.6.1h.2c.1 0 .3 0 .4.1h7.9c.3 0 .6 0 1-.1h.2c.3 0 .5 0 .8-.1h.3c.3 0 .6-.1.9-.1h.2c.4 0 .7-.1 1.1-.1h.3c.3 0 .6-.1.9-.1.1 0 .2 0 .4-.1.3 0 .7-.1 1-.2h.2c.4-.1.8-.1 1.2-.2.1 0 .2 0 .3-.1.3-.1.6-.1.9-.2.1 0 .3-.1.4-.1.4-.1.7-.2 1.1-.2h.2c.4-.1.9-.2 1.3-.3.1 0 .2-.1.4-.1.3-.1.7-.2 1-.3.1 0 .3-.1.4-.1.4-.1.8-.2 1.3-.3h.2c.5-.1 1-.3 1.4-.4.1 0 .3-.1.4-.1.4-.1.7-.2 1.1-.3.2 0 .3-.1.5-.1.5-.1.9-.3 1.4-.5h.1c.5-.2 1-.4 1.6-.5.2-.1.3-.1.5-.2.4-.1.8-.3 1.2-.4.2-.1.3-.1.5-.2.5-.2 1-.4 1.6-.6h.1c.6-.2 1.1-.4 1.7-.7.2-.1.3-.1.5-.2.4-.2.9-.4 1.3-.5.2-.1.3-.1.5-.2.6-.3 1.2-.5 1.8-.8.3-.8.6-1.8 1-2.9h-.1c-.2 0-.3 0-.5-.1-1.5-.4-2.3-1.2-2.7-2.4z" class="st3"/><path d="M30.8 38.5s-.1 0 0 0c-.1 0 0 0 0 0z" class="st5"/><path d="M14.1 33.1v.8z" class="st2"/><path d="M68.6 21.1c1 .2 1.8 1.1 2.2 2.4.1.2.1.4.1.7 2.4-3.3 4.9-5 7.7-5 1.2 0 2.2.3 3 .8 1.4-1.8 2.4-3 2.4-3-1.1.2-3.4.5-3.4.5 8.6-3.2 7.9-11.7 7.9-11.7 0 1.5-4.4 5-4.4 5 .2-1.3-.5-3-.5-3 .2 1.7-5.1 6-5.1 6 .4-.8.1-2.2.1-2.2-.3 1.6-2.7 2.2-2.7 2.2 1.5-1.8 4.2-11.2 2.2-11.7-2.1-.6-4.9 6.1-4.9 6.1-.1-1.6-1-1.6-1-1.6.4 4.9-3.6 8.9-3.6 8.9-.3-1-1.9-1.5-1.9-1.5.4.8.2 3.6 0 5.7-.1.8-.2 1.4-.2 1.8.5-.4 1.1-.6 1.6-.6.2.1.4.2.5.2z" class="st3"/><path d="M66.5 30.9c.3.1.7-.1 1.1-.5.3-.6.5-1.2.8-1.8.3-.6.6-1.1.8-1.6.2-1.1.2-2.2 0-3-.2-.7-.5-1.2-.9-1.3h-.1c-.9 0-2.1 1.5-2.6 3.7-.3 1.2-.3 2.3 0 3.2.1.8.5 1.3.9 1.3z" class="st0"/><path d="M78.7 26.5c0-.1 0 0 0 0zm-.1-5.6c-6.6 0-10.9 13.6-11.7 16.4.2 0 .5.1.7.2 2.8-.9 6.5-1.1 9.3-1.1 2.4 0 4.1.1 4.1.1.7-.9 5-15.6-2.4-15.6zm1.7 6c0 .6-.2 1.1-.4 1.5-.2.4-.4.8-.5 1.2-.4.7-.8 1.2-1.1 1.6-.3.4-.5.5-.5.5s.1-.3.2-.7c.1-.4.3-1.1.4-1.8.1-.4.2-.8.2-1.2.1-.4.1-.8.1-1.2 0-.2 0-.3-.1-.4h-.1l-.2-.1h-.8c-.3.1-.7.2-1 .4-.3.2-.6.5-.9.9-.5.7-1 1.4-1.4 2-.4.6-.7 1.2-.9 1.6l-.3.6v-.7c0-.5.1-1.1.3-1.9.2-.8.5-1.6 1.1-2.5.3-.4.6-.9 1.1-1.3.5-.4 1-.7 1.7-.8h1c.2 0 .3.1.5.1l.2.1h.2s.4.3.5.4l.1.1.1.1c.1.1.1.2.1.3.4.6.4.9.4 1.2z" class="st2"/><path d="M78.7 26.4s0 .1 0 0c0 .1 0 .1 0 0 0 .1 0 .1 0 0 0 .1 0 0 0 0zM52.5 53.7c.8 0 1.7-.2 2.6-.6 1.9-.9 6.7-5.7 12.1-12.2.2-.2.3-.5.3-.8 0-.3-.2-.6-.4-.8-.3-.2-.6-.3-.7-.3-.3 0-.7.2-.9.4-2.4 2.8-9 10.4-11.2 11.5-.4.2-.9.3-1.2.4l-.9.1-.6-.6c-.2-.2-.5-.3-.8-.3-.2 0-.4.1-.6.2-.3.2-.4.4-.5.7-.1.3 0 .6.2.9-.2.2.7 1.4 2.6 1.4zm-11 .3c-.2 0-.4 0-.5.1l-.3.2H40c-1.1 0-3.8-.3-9.4-2.6-6.3-2.5-8.7-2.9-9.6-2.9h-.3c-.3.1-.6.2-.7.5-.2.3-.2.6-.2.9.1.5.6 1 1.1 1h.3c.7.1 2.9.4 8.6 2.7 4.6 1.9 8.1 2.8 10.3 2.8 1.2 0 2-.3 2.4-.8.2-.2.3-.5.3-.8s-.2-.6-.4-.8c-.5-.3-.8-.3-.9-.3z" class="st0"/><path d="M23.4 45.5s-3.9-11.6-9.3-11.6c-.7 0-1.4.2-2.1.6-6.4 3.9 2.5 15.6 2.5 15.6 3.9-2.7 8.9-4.6 8.9-4.6zm-10-3.1c-.2-.3-.3-.7-.4-1.1-.1-.4-.2-.9-.2-1.5 0-.3.1-.6.3-.9.2-.3.5-.6.9-.7h1c.1 0 .2 0 .3.1.4.1.6.3.9.4.5.4.8.7 1.1 1.1.3.4.5.8.8 1.2.4.8.7 1.6 1 2.2.2.7.4 1.2.4 1.7 0 .2.1.4.1.5v.2s-.2-.2-.4-.5c-.3-.3-.6-.8-1-1.4-.4-.6-.9-1.2-1.3-1.9-.2-.3-.5-.7-.8-1-.3-.3-.5-.6-.8-.8-.1-.1-.3-.2-.3-.2h-.2c-.1 0-.1 0-.2.1 0 .1-.1.2-.1.3-.1.3-.1.7-.1 1 0 .4.1.7.1 1 .1.7.2 1.2.3 1.6.1.4.1.6.1.6l-.1-.1c-.1-.1-.2-.2-.3-.4-.4-.4-.7-.9-1.1-1.5z" class="st2"/><path d="M50.8 81.4h.4c2.8-.6 4.9-2.2 4.9-3.8v-.3c0-.2-.1-.4-.2-.6 0-.1-.1-.1-.1-.2 0 0 0-.1-.1-.1 0 0 0-.1-.1-.1-.1-.1-.1-.2-.2-.2l-.2-.2c-.3-.3-.8-.5-1.3-.7h-.1c-.1 0-.2-.1-.2-.1h-.1c-.1 0-.2 0-.2-.1h-3.1c-.1 0-.3 0-.4.1-.1 0-.3 0-.4.1h-.1c-.1 0-.3.1-.4.1-.1 0-.3.1-.4.1h-.1c-.1 0-.2.1-.4.1-.1 0-.2.1-.4.1h-.1c-.2.1-.4.2-.7.3h-.1c-.1.1-.2.1-.3.2-.1.1-.2.1-.3.2-.1 0-.1.1-.2.1h-.1c-.1 0-.1.1-.2.1h-.1c-.1.1-.3.2-.4.3l-.1.1v.1l-.1.1c0 .1-.1.1-.1.2s-.1.1-.1.2v.1l-.1.1v.1s0 .1-.1.1v.1c0 .1 0 .1-.1.2v.9c0 .1 0 .2.1.3.5 1.6 3.2 2.5 6.3 2z" class="st4"/><path d="M43.7 79.3c.1.6.4 1.1 1 1.5.1 0 .1.1.2.1.9.6 2.2 1 3.7 1 .6 0 1.2 0 1.8-.1 1.9-.3 3.5-1.1 4.5-2 .2-.2.4-.4.6-.7.2-.2.3-.5.4-.7.1-.2.1-.5.1-.7v-.4c-.1-.5-.3-.9-.7-1.2l-.3-.3c-.2-.2-.5-.3-.7-.4-.4-.2-.8-.3-1.3-.4-.2 0-.4-.1-.6-.1-.4 0-.7-.1-1.1-.1-.4 0-.8 0-1.2.1-.2 0-.4.1-.6.1-.6.1-1.2.3-1.8.5-2.6.7-4.2 2.3-4 3.8z" class="st4"/><path d="M49.2 94.2c.2 0 .4 0 .6-.1 1.1-.4 1.1-2.3.9-4-1.5.5-2.8 1.2-4 1.9.6 1.2 1.5 2.2 2.5 2.2zm5.1-1.2c.2.1.5.1.8.1 1 0 2.3-.5 2.1-2.7v-.8h-4.6c.5 1.6 1.1 3.2 1.7 3.4z" class="st0"/><path d="M58.3 80.2s-1.8 4.2-6.9 5c-1.3.2-2.4.3-3.4.3-2.7 0-4.1-.7-4.7-1.5 0 0-4.9 1.4-5.3 4.4-.3 2.2 1.9 3.4 3.9 3.4.7 0 1.3-.1 1.8-.4 1.9-1 4.9-3.3 8.8-3.8.4 0 .8-.1 1.4-.1 1.3 0 3.2.1 4.9.1 2 0 3.9-.1 5-.6 2.4-1 2.4-2.8 2.3-3.7-.3-1-1.8-3.1-7.8-3.1z" class="st3"/></svg>