<svg xmlns="http://www.w3.org/2000/svg" role="img" viewBox="-14.82 -12.82 1030.64 874.64"><title>tektoncli_white</title><style>svg {enable-background:new 0 0 1000 850}</style><style>.st11{fill:#fff}</style><path d="M341.7 695h-40l-60.4 59.9 20.4-59.9h-42L182 805.6h-59.6l8.2-23.7h52.8l10.9-32.2h-52.8l7.2-21.2h51.8L212 695H25.1l-11.9 34.9h30L5.4 840.2h42.3l37.7-110.3h19.2L66.8 840.2H212.1l11.5-33.6 22.2-21 6.4 54.6h48.7l-14-92.1z" class="st11"/><path d="M619.8 737.9c-4.4 13-7.6 25.7-9.6 38.1-.7-8-2.7-17.4-5.7-27.9l-15.6-53.2h-42l-14 40.8c-.4-8-2.4-15.1-6.2-21.2-8.3-13.1-22.5-19.7-42.7-19.7-1.7 0-3.3.1-4.9.1H352.9l-36 34.9h29.7l-35.4 103.8.9 6.6h39l37.7-110.3h22c-9.7 11.2-17.1 24.1-22.2 38.8-7.6 22.5-7.5 40.2.8 53.6 8.2 13.4 22.6 20.1 42.9 20.1 20.2 0 39.2-6.8 56.8-20.7 8.6-6.6 16-14.4 22.2-23.2l-14.2 41.6h36.1l24.1-70.3c2.3-6.4 3.9-14.4 4.7-23.8.9 11.9 2.4 21.9 4.8 30.2l18.1 64h36.4L670.9 695h-36.4l-14.7 42.9zm-139.4 26.7c-6 17.2-11.9 29-17.4 35.6s-12 9.8-19.7 9.8c-14 0-16.6-13.4-7.4-40.1 9.9-28.3 22.2-42.5 36.9-42.5 13.7-.1 16.3 12.4 7.6 37.2zm285.1 20.3c-4.6 12-13.9 24-27.5 24-20 0-12.7-24.6-7.8-39.1 4.5-13.7 15.4-43.8 35-43.8 14.9 0 14.5 15.4 10 27.6l42-2.1c9-36-4.8-57.9-41.6-57.9-45.5 0-76.9 34.5-90.8 76.2-13.6 41-1.3 72.4 42 72.4 33.3 0 64.6-21.5 78.4-54.7l-39.7-2.6zm86.1 19.8l36.2-109h-44.6l-48 144.4h101.2l11.8-35.4zm100.6-109l-48 144.4h44.6l48-144.4z" class="st11"/><circle cx="592.2" cy="64.1" r="5.6" class="st11"/><path d="M592.2 94.3c3.1 0 5.6-2.5 5.6-5.6 0-3.1-2.5-5.6-5.6-5.6-3.2 0-5.6 2.5-5.6 5.6 0 3.1 2.5 5.6 5.6 5.6zm34.4-35.8c-3.1 0-5.5 2.5-5.6 5.6 0 3.1 2.5 5.6 5.6 5.6s5.6-2.5 5.6-5.6-2.5-5.6-5.6-5.6zm-17.3 222.9h.4c15.1-.1 38-7.6 35-23.1-1.9-9.4-20.2-13.8-35.4-13.8-15.1 0-33.4 4.4-35.3 13.8-2.9 15.6 20.2 23.1 35.3 23.1zm17.3-198.3c-3.1 0-5.5 2.5-5.6 5.6 0 3.1 2.5 5.6 5.6 5.6s5.6-2.5 5.6-5.6c0-3.1-2.5-5.6-5.6-5.6z" class="st11"/><path d="M185.1 503.7l-28.6 126.9c-.2.7-.2 1.5-.2 2.3v34.2c0 5.2 4.2 9.4 9.4 9.4H803c5.2 0 9.4-4.2 9.4-9.4v-34-.3c0-.8-.1-1.6-.3-2.5l-31-120c3.5-7.7 4.6-13 4.6-13.4l.2-1.3-.1-1.3c-4.9-54.3-55.8-127.1-65.4-140.4 1-1.3 2-2.7 2.9-4.2 2.1-3.3 4-6.8 5.6-10.3.3-.7.7-1.5.9-2.1 19.1-11 36.8-25.4 52-44.1 8.8-10.8 21.1-26.7 22.3-41.1.5-4.8.7-9.8.8-14.7.1-11.9-.5-23.8-2-35.6-.8-6.6-1.9-13-3.1-19.3 9-10.3 16.7-21.5 23.3-33.6 10.2-18.9 16.8-39.3 19.4-60.7 2.5-21 .8-42.4-4.7-63C835 14.8 825.7 7.7 815 7.7c-40.1 0-74.9 16.4-107 37.6-60.4-37.2-136.9-37-197.2 0-32.2-21.1-66.9-37.6-107-37.6-10.7 0-19.9 7.1-22.9 17.4-1.3 4.8-2.4 9.7-3.3 14.6H255.9c-5.2 0-9.4 4.2-9.4 9.4v213.3c-33.9 11.6-62 37.7-83.9 78-17.3 32-19.3 76.9-5.3 117.3 6.8 19.2 16.3 34.8 27.8 46zm608.4 154H174.9v-15.3h618.6v15.3zm-2.7-34.4H177.3l24.3-107.5c1.4.8 2.9 1.5 4.3 2.1 5.7 2.5 12.2 4.4 19.1 5.9l-3.7 20.3c-.3 1.6.1 3.2 1.2 4.4 1 1.2 2.5 1.9 4.1 1.9h145c-3.3 9.2-4.1 19.2-1.9 28.5 4.4 18.5 19.9 31.2 42.6 34.7 3.1.5 6.2.7 9.3.7 15.8 0 31.4-6.1 44.2-17.1h113.1c1.6 0 3.1-.7 4.1-1.9 1-1.2 1.4-2.9 1.1-4.4l-3.4-17.8c11-3 21.4-9.7 28.1-18 9.3 11.5 25.6 19.8 40.7 19.8 1.6 0 3.1-.1 4.6-.3 6.6-.8 13.1-2.7 18.9-5.4l3.9-.2c49.1-2.3 76-21.3 89.9-36.9.2-.2.3-.4.5-.5l23.5 91.7zM683 550.1c.9-4.5.8-10.6-4.1-15.5 0 0 .1 9.4-10.9 16-2 1.2-4.3 2.3-7.1 3.2-.4.1-.8.3-1.2.4-2.6.8-5.2 1.4-8 1.7-10.8 1.3-28.7-7.7-31.6-18.4-.4-1.6-1.5-5.5 7.7-9.4 8.4-3.6 16.3-4.9 23.3-4.9 7.3 0 13.4 1.4 18.1 3 3.2-1.7 6.1-3.5 8.9-5.5 4.9-3.5 9.1-7.3 12.7-11 2.2-2.2 4-4.4 5.7-6.3 2.2-2.6 3.8-4.9 5-6.6.6-.9 1.2-1.7 1.7-2.7 2.4 2.6 4.6 5.2 6.4 7.8 11.7 16.3 12.6 31.1 11.9 39.2-7 2.9-15.1 5.2-24.4 6.9 0-.1.1-.1.1-.2-5.6 1.2-10.3 1.9-14.2 2.3zm-13.7-48.3c-2.4 1.4-4.6 2.6-6.6 3.7-11.6-1.9-26.2-1.4-42.3 5.5-4.8 2-8.7 4.6-11.8 7.6-3.1-3-7-5.5-11.8-7.6-15.7-6.8-30.1-7.3-41.6-5.6-2.3-1.1-4.8-2.5-7.5-4-2.6-1.5-5.6-3.4-8.8-5.6 6.5-24.2 35.5-42.5 70.2-42.5 33.7 0 63.1 18 70 41.8-3.5 2.8-6.9 5-9.8 6.7zm-121 24.4c9.2-3.1 24.1-5.4 41.3 2 9.2 3.9 8.2 7.8 7.7 9.4-2.9 10.7-20.8 19.7-31.6 18.4-2.6-.3-5.1-.9-7.4-1.6-.5-.2-1-.4-1.6-.6-2.8-.9-5.1-2-7.1-3.2-11-6.6-10.9-16-10.9-16-4.9 4.9-5 11-4.1 15.5-5.1-.6-11.5-1.6-19.3-3.4-.2 0-.4-.1-.6-.1-.1 0-.3-.1-.4-.1-.5-.1-.9-.2-1.3-.3-1.1-.3-2.1-.5-3.2-.8-5.5-1.5-10.5-3.3-15-5.3.5-5.4.5-10.9-.1-16.6 1.8-5.4 4.1-9.8 6.6-13.5 6.3-9.3 13.7-13.5 16-14.6 4.2 6.2 8.4 11.3 11.2 14.4 1 1.3 10.8 12.1 19.8 16.4zm-6.4 42.8l2.4.1c5.9 2.7 12.4 4.6 19.1 5.4 1.5.2 3.1.3 4.6.3.7 0 1.3 0 2-.1l2.3 11.7H476c2.7-3.3 5.2-6.9 7.4-10.7 3-5.1 5.6-10.8 7.5-17 17.7 7 35.9 9.6 51 10.3zm-74.6-2.7c-12 20.5-32.5 31.8-52.3 28.7-15.2-2.3-24.6-9.4-27.2-20.5-2.8-11.7 2.6-26.2 12.3-33.1 12.9-9.2 17.8-17.1 18.8-23.4 10.1-5.2 33-13.6 56.4 2.1 3 15.7.5 31.7-8 46.2zm-90.7-26.7H347v-16.7c10.3-1.3 19.6-2.6 27.3-3.7 7-1 12.5-1.8 16.1-2.1 4.1-.4 7-.3 8.8 0-1.4 2-4.4 5.1-10 9.1-5 3.5-9.2 8.2-12.6 13.4zm38.6-34.5c-6.4-7.3-19-7.4-26.7-6.6-2.8.3-6.6.8-11.2 1.4.1-9.4 2.6-17.3 7.4-23.6 5.8-7.6 14.1-11.6 20.1-13.6 23.1 2.7 43.2 9.8 55.3 25.3 3.5 4.5 6.4 9.1 8.8 13.9-21.9-8.3-42.3-2.1-53.7 3.2zm-41-37.1c-7.1 9.2-10.5 20.5-10.3 33.8-12.4 1.7-28.6 3.8-46 5.4-4.7-17.1 2.6-34.5 7.2-43.1 17.9-1.5 37.1-3 55.5-2.8-2.3 2-4.4 4.2-6.4 6.7zm-37.9 56.2v15.4h-30.1l.4-12.7c10.3-.7 20.3-1.7 29.7-2.7zm-31.9-15.9c-17.1 1.2-34.8 1.6-51 .5-3.6-16.1 3.1-33.5 7.2-42.1 13 1.5 29.6.5 49-1.2-4.6 10.8-8.9 26.5-5.2 42.8zm-8.4 19.3l-.4 12h-62.7l2.6-14c18.6 2.8 39.7 3 60.5 2zm-53.6-19.9c-11-1.4-21-3.6-29.1-7.1-7.9-3.4-15.3-9.6-21.9-18 2.5-22.8 21.1-34.6 32-39.6 4.5 7.8 11.2 14.7 20.9 19.4 1.7.8 3.6 1.5 5.5 2.1-4.4 9.8-10 26.5-7.4 43.2zM767 494.5c-1.3 5.2-8 25.3-32.1 40-.4-10.2-3.3-23.9-13.3-38.5-3.3-4.8-7.3-9.7-12.3-14.6 1.9-5.4 3.3-11.3 3.7-17.8-.7.5-1.3 1-1.9 1.7-5.6 6.7-11.1 12.4-16.4 17.3-12.3-28.2-46-47.9-85.3-47.9-39.9 0-73.9 20.6-85.8 49.1-6.1-5.4-12.6-11.8-19-19.5-.3-.4-.7-.8-1.1-1.1.6 6.9 3.3 14.1 6.8 20.9-3.4 1.8-9.7 5.8-15.8 12.9-1.6 1.8-3.2 3.9-4.7 6.1-3.2-8.8-8.1-17.8-14.9-26.5-4.4-5.7-9.6-10.4-15.3-14.4 13.5-39.4 40-83.6 51.4-101.8 2.5 1.3 4 1.9 4 1.9 14.8 10.3 34.2 16.2 53.2 19.4-21.1-7-36.2-19.8-46.8-33.8 4.7 1.7 9.5 3.3 14.4 4.8 11.5 6.4 24.2 11.2 37.2 14.3 15.4 3.7 30.5 5.2 46.1 4.1 12.6-.8 25-3.1 37-7 10.3-3.2 19.4-7.2 27.4-11.5 4.8-1.5 9.6-3.1 14.4-4.8-11.2 15-27.7 28.5-50.9 35.2 18.3-2.4 37.4-7.1 52.6-15.9l5.2-2.7c7.6 10.3 56.8 80.5 62.2 130.1zM574.6 317.1c-7 2.9-12.4 7.5-13.6 14.7-.5 2.8-.3 5.7.8 8.6 0 0 .1.1.1.3-10.3-2.1-20.6-4.8-30.4-8.2-31.2-10.8-57.1-27.9-77.7-53.2-3.5-4.3-6.3-8.2-8.4-11.5 12.4 4.5 29.4 10 51.3 14.7 12.8 2.8 27.4 5.2 43.9 7 .5 1.3 1.2 2.7 2 3.9 7 11.8 18.7 19.3 32 23.7zm-38.1-126.2c-3.5 0-7 1.1-9.8 3.1-3.1 2.1-5.6 5.2-7.4 8.8-1.3 2.8-4.7 4-7.5 2.7s-4-4.7-2.7-7.5c2.5-5.5 6.6-10.2 11.2-13.4 4.7-3.2 10.2-5.1 16-5.1 8.7 0 16.4 3.9 21.9 10.3 5.5 6.3 8.8 14.8 8.8 24.2 0 3.1-2.5 5.6-5.6 5.6-3.1 0-5.6-2.5-5.6-5.6 0-6.6-2.3-12.4-6-16.6-3.3-4-8.1-6.5-13.3-6.5zm108 145.6c-1.7 3.5-6.6 6.2-12.3 8-7.5.9-15.2 1.5-22.9 2-7.6-.4-15.2-1.2-22.7-2-6.2-2-11.1-4.9-12.6-8.8-5.3-14.1 78.4-14.5 70.5.8zm122.3-60.2c-11.6 14-24.2 27.1-39.4 37-21.1 13.8-45.1 22.3-70.3 27.4 1.1-2.9 1.5-6.2.8-9.2-1.3-7-6.6-11.4-13.4-14.3 13.1-4.5 24.9-12 31.8-23.8.8-1.3 1.3-2.5 2-3.9 16.3-1.7 31-4.1 43.9-7 21.8-4.7 38.8-10.2 51.1-14.6-2 2.8-4.2 5.6-6.5 8.4zm-104-62.3c0 3.1-2.5 5.6-5.6 5.6-3.1 0-5.6-2.5-5.6-5.6 0-9.4 3.5-17.9 9-24.2 5.5-6.4 13.2-10.3 21.9-10.3 5.9 0 11.4 1.9 16 5.1 4.7 3.2 8.7 7.9 11.2 13.4 1.2 2.8 0 6.2-2.8 7.5-2.8 1.3-6.2.1-7.5-2.7-1.7-3.6-4.3-6.7-7.4-8.8-2.8-2-6.3-3.1-9.8-3.1-5.2 0-10 2.5-13.5 6.6-3.6 4.1-5.9 9.9-5.9 16.5zM812.7 31.2h1.9l.5.5c15.1 57.2-7.8 101.6-25.7 125.8-6.2-19.5-15-38.1-26.6-55-2.1-3.3-4.5-6.6-7-9.6 14.8-24.7 34.6-49.5 56.9-61.7zm-31.1 4.7c-9.4 8.7-17.8 18.9-24.9 28.7-3.9 5.3-7.5 10.8-11 16.4-6.4-7-13.2-13.2-20.3-19 17.5-11.1 36.4-20.8 56.2-26.1zm-167.5 4.4c50.3 1.3 100.3 25.8 133 73.3C789.7 175 781.4 250 781.4 250c-.1 1.7-.7 3.6-1.3 5.5-12.2 4.7-32 12-60 18.1-11.5 2.4-24.5 4.7-38.8 6.3.9-5.3.9-11 .1-16.4-.7-4-2-7.6-3.9-11 38.1-6.3 66.6-18.3 68.2-36.2 1.7-19.9-14.8-57.8-39.6-79.7-21.4-18.9-56.4-28.7-92-29.6V40.3zm-4.8 195.6h.1c25-.3 55.5 11.2 58.4 29.6 2.9 17.5-6.8 29.4-21.8 36.4-22.2 8.3-30-2.5-33.4-9.4-1.6-3.3-2.4-5.1-3.2-5.1h-.3c-.5.3-1.3 1.9-3.2 4.9-3.5 6.2-10.8 15.5-26.2 12.3-18.9-6.2-32.5-18.9-29.2-39.2 3.1-18.3 33.6-29.8 58.6-29.6h.2zm-4.5-195.6v66.6c-35.6.7-70.6 10.6-92 29.6-24.9 21.9-41.3 59.8-39.6 79.7 1.6 17.8 30.2 30 68.2 36.2-1.9 3.3-3.2 7-3.9 11-.8 5.5-.8 11.1.1 16.4-14.4-1.6-27.3-3.9-38.9-6.3-27.7-5.9-47.5-13.2-59.6-17.9-1.5-3.7-1.6-5.6-1.6-5.6s-8-73.3 32.8-134.3c32.6-48.8 83.3-73.9 134.5-75.4zM493.4 62.1c-7.1 5.7-13.9 12-20.3 19-3.3-5.6-7.1-11-11-16.3-7.1-10-15.4-20.2-24.9-28.9 19.8 5.3 38.5 15 56.2 26.2zm-89.9-30.5c.3 0 .5-.3.7-.4h1.9c22.3 12.2 42.1 37 56.8 61.8-2.9 3.9-5.9 7.9-8.7 11.9-11 16.2-19.1 34-25 52.6-17.9-24.3-40.8-68.7-25.7-125.9zM392 200c3 0 5.3 2.4 5.3 5.3s-2.4 5.3-5.3 5.3h-41.3c-3 0-5.3-2.4-5.3-5.3s2.4-5.3 5.3-5.3H392zm-82.9-38.4c-4.4-2.6-5.9-8.4-3.3-12.8 2.6-4.4 8.4-5.9 12.8-3.3l30.3 18c2.7 1.6 4.5 4.5 4.6 7.7.1 3.2-1.4 6.2-4 8l-30.3 21.1c-1.6 1.1-3.5 1.7-5.3 1.7-3 0-5.9-1.4-7.7-4-3-4.2-1.9-10.1 2.3-13l18.3-12.8-17.7-10.6zM265.3 58.4h110.1c-.4 5.6-.4 11.2-.2 16.8h-92.9v180.5c-5.6.3-11.2.9-16.9 1.9V58.4zm-86.1 290.9c52.4-96.7 127.6-76.8 172.6-64.9 7.3 1.9 13.6 3.6 19.1 4.6 15.6 2.8 29.3 3.4 40.3 3.1 10.5-.3 18.5-1.4 23.3-2.3h.1c.8 1 1.6 2 2.3 2.9 15.4 18.9 32.9 33.2 52 44.1.1.7.5 1.5.8 2.1 1.8 3.6 3.8 7 6.1 10.1-11.2 17.7-38 62-52.9 103.8-7.7-3.2-15.9-5.5-24.6-7.1-6.2-33.9-25.9-56.4-44.4-70.6-28.5-21.7-59.5-28.3-60.8-28.5-.6-.1-1.2-.2-1.7-.2 76.1 36.9 86.8 93.4 87.3 96.6v.1h-.1c-26.6-2.1-55.2.4-80.9 2.7-21.5 1.9-42 3.7-55.3 2.1h-.1c-41-4-43.6-65-43.8-72.6-.5.8-.9 1.7-1.1 2.7-.4 1.8-7.3 30.6 1.5 55.3-11 5.2-28.8 16.4-35.7 36.6-3.1-5.6-5.8-11.8-8.2-18.5-12.1-34.9-10.5-75 4.2-102.1z" class="st11"/></svg>
