<svg width="1161" height="278" viewBox="0 0 1161 278" fill="none" xmlns="http://www.w3.org/2000/svg">
<path d="M366.18 120.94V151.65C366.18 185.135 386.715 203.635 418.72 203.635C450.725 203.635 471.075 185.135 471.075 151.65V120.94C471.075 87.4545 450.725 68.9545 418.72 68.9545C386.715 68.9545 366.18 87.4545 366.18 120.94ZM387.64 120.2C387.64 100.59 399.11 88.0095 418.72 88.0095C438.145 88.0095 449.615 100.59 449.615 120.2V152.39C449.615 172 438.145 184.58 418.72 184.58C399.11 184.58 387.64 172 387.64 152.39V120.2Z" fill="black"/>
<path d="M489.321 238.045H509.486V188.095H511.336C516.516 196.05 525.766 203.635 542.601 203.635C564.986 203.635 584.411 185.135 584.411 155.35C584.411 125.75 564.986 107.25 542.601 107.25C525.766 107.25 516.516 114.835 510.966 123.16H509.116V109.84H489.321V238.045ZM536.681 186.06C520.956 186.06 509.301 174.59 509.301 155.35C509.301 136.11 520.956 124.64 536.681 124.64C552.591 124.64 564.061 136.11 564.061 155.35C564.061 174.775 552.591 186.06 536.681 186.06Z" fill="black"/>
<path d="M595.959 154.98C595.959 183.655 614.829 203.635 642.579 203.635C667.739 203.635 678.469 189.205 683.834 179.585L666.999 170.52C663.299 178.475 656.824 186.06 642.949 186.06C628.334 186.06 617.604 175.885 616.864 161.825H686.054V153.5C686.054 125.565 668.294 107.065 641.839 107.065C615.014 107.065 595.959 126.49 595.959 154.98ZM617.049 146.1C618.714 133.335 627.594 124.64 641.654 124.64C655.159 124.64 664.224 132.965 665.334 146.1H617.049Z" fill="black"/>
<path d="M702.504 109.84V201.045H722.669V154.24C722.669 135.37 732.474 124.825 747.644 124.825C761.149 124.825 769.104 132.04 769.104 147.395V201.045H789.454V146.285C789.454 122.975 774.654 108.175 753.749 108.175C736.359 108.175 728.219 115.945 724.149 123.9H722.299V109.84H702.504Z" fill="black"/>
<path d="M811.449 71.5445V201.045H832.909V145.73H889.334V126.49H832.909V90.9695H893.034V71.5445H811.449Z" fill="black"/>
<path d="M904.198 151.28C904.198 184.765 924.733 203.635 957.108 203.635C988.743 203.635 1007.06 185.32 1007.06 155.165V136.85H952.113V155.165H985.968V157.57C985.968 174.035 976.348 184.58 957.108 184.58C937.683 184.58 925.658 172 925.658 151.465V121.125C925.658 100.59 937.683 88.0095 957.108 88.0095C975.978 88.0095 984.858 99.1095 984.858 114.465V116.87H1006.32V114.835C1006.32 87.2695 989.113 68.9545 957.108 68.9545C924.918 68.9545 904.198 87.8245 904.198 121.495V151.28Z" fill="black"/>
<path d="M1050.39 71.5445L1012.28 201.045H1034.3L1042.99 170.89H1091.09L1099.79 201.045H1121.62L1083.51 71.5445H1050.39ZM1048.17 151.465L1066.12 89.4895H1067.97L1085.73 151.465H1048.17Z" fill="black"/>
<path d="M1111.62 71.0942V74.8356H1119.42V96.0373H1123.52V74.8356H1131.32V71.0942H1111.62Z" fill="black"/>
<path d="M1133.96 71.0942V96.0373H1137.96V75.3701H1138.31L1144.44 96.0373H1150.25L1156.34 75.3701H1156.7V96.0373H1160.72V71.0942H1153.63L1147.5 91.8682H1147.15L1141.06 71.0942H1133.96Z" fill="black"/>
<path d="M221.099 0.303162H55.6835C24.9303 0.303162 0 25.2335 0 55.9866V221.403C0 252.156 24.9303 277.086 55.6835 277.086H221.099C251.853 277.086 276.783 252.156 276.783 221.403V55.9866C276.783 25.2335 251.853 0.303162 221.099 0.303162Z" fill="black"/>
<path d="M164.507 69.011C164.511 72.4449 165.881 75.7372 168.317 78.1654C170.753 80.5935 174.056 81.9591 177.502 81.9624C180.947 81.9591 184.25 80.5935 186.687 78.1654C189.123 75.7372 190.493 72.4449 190.496 69.011C190.493 65.5771 189.123 62.2847 186.687 59.8566C184.25 57.4284 180.947 56.0629 177.502 56.0596C174.056 56.0629 170.753 57.4284 168.317 59.8566C165.881 62.2847 164.511 65.5771 164.507 69.011V69.011Z" fill="white"/>
<path d="M86.2864 208.296C86.2897 211.73 87.6599 215.023 90.0961 217.451C92.5323 219.879 95.8355 221.244 99.2808 221.248C102.726 221.244 106.029 219.879 108.466 217.451C110.902 215.023 112.272 211.73 112.275 208.296C112.272 204.862 110.902 201.57 108.466 199.142C106.029 196.714 102.726 195.348 99.2808 195.345C95.8355 195.348 92.5323 196.714 90.0961 199.142C87.6599 201.57 86.2897 204.862 86.2864 208.296V208.296Z" fill="white"/>
<path d="M163.548 138.654C163.552 142.088 164.922 145.381 167.358 147.809C169.794 150.237 173.097 151.602 176.543 151.606C179.988 151.602 183.291 150.237 185.727 147.809C188.164 145.381 189.534 142.088 189.537 138.654C189.534 135.22 188.164 131.928 185.727 129.5C183.291 127.072 179.988 125.706 176.543 125.703C173.097 125.706 169.794 127.072 167.358 129.5C164.922 131.928 163.552 135.22 163.548 138.654V138.654Z" fill="white"/>
<path d="M46.1849 138.654C46.1882 142.088 47.5583 145.381 49.9945 147.809C52.4307 150.237 55.734 151.602 59.1793 151.606C62.6246 151.602 65.9279 150.237 68.3641 147.809C70.8003 145.381 72.1704 142.088 72.1737 138.654C72.1704 135.22 70.8003 131.928 68.3641 129.5C65.9279 127.072 62.6246 125.706 59.1793 125.703C55.734 125.706 52.4307 127.072 49.9945 129.5C47.5583 131.928 46.1882 135.22 46.1849 138.654V138.654Z" fill="white"/>
<path d="M110.094 76.2837C110.63 75.437 111.367 74.7341 112.239 74.2365C113.111 73.7389 114.092 73.4617 115.096 73.4292H122.713C123.718 73.4595 124.7 73.7358 125.572 74.2336C126.444 74.7314 127.181 75.4355 127.716 76.2837C128.908 78.0209 130.507 79.442 132.375 80.4238C134.242 81.4056 136.322 81.9185 138.434 81.918C140.366 81.9215 142.275 81.4933 144.019 80.6649C145.763 79.8366 147.299 78.6292 148.514 77.1314C149.745 75.6191 150.619 73.8503 151.072 71.9558C151.524 70.0614 151.543 68.0897 151.128 66.1869C150.602 63.7076 149.352 61.4385 147.537 59.6644C145.721 57.8902 143.42 56.6901 140.923 56.2146C138.37 55.7233 135.727 56.0044 133.336 57.0218C130.945 58.0392 128.913 59.7464 127.503 61.9237C126.943 62.7207 126.192 63.366 125.318 63.8013C124.445 64.2366 123.476 64.4481 122.5 64.4168H115.234C114.259 64.4425 113.292 64.2286 112.42 63.7938C111.547 63.359 110.796 62.7167 110.231 61.9237C108.807 59.7701 106.77 58.0886 104.382 57.0939C101.994 56.0992 99.3628 55.8365 96.8242 56.3393C94.3281 56.8178 92.0288 58.019 90.2138 59.7926C88.3987 61.5662 87.1483 63.8336 86.6188 66.3115C86.2098 68.2147 86.2322 70.1848 86.6844 72.0783C87.1366 73.9717 88.0072 75.7406 89.2327 77.256C90.4511 78.7527 91.9896 79.9593 93.7358 80.7874C95.4819 81.6156 97.3917 82.0444 99.3255 82.0427C101.457 82.0375 103.554 81.5094 105.432 80.5051C107.31 79.5007 108.911 78.0509 110.094 76.2837Z" fill="url(#paint0_linear_1011_17412)"/>
<path d="M129.65 111.186C130.186 110.339 130.923 109.636 131.795 109.138C132.667 108.641 133.648 108.364 134.652 108.331H142.269C143.274 108.361 144.256 108.638 145.128 109.135C146 109.633 146.737 110.337 147.272 111.186C148.464 112.923 150.063 114.344 151.931 115.326C153.798 116.307 155.878 116.82 157.99 116.82C159.922 116.823 161.831 116.395 163.575 115.567C165.319 114.738 166.855 113.531 168.07 112.033C169.301 110.521 170.175 108.752 170.628 106.858C171.08 104.963 171.099 102.992 170.684 101.089C170.158 98.6094 168.908 96.3403 167.093 94.5662C165.277 92.7921 162.976 91.592 160.479 91.1165C157.926 90.6251 155.283 90.9063 152.892 91.9236C150.501 92.941 148.469 94.6482 147.059 96.8256C146.498 97.6226 145.748 98.2679 144.874 98.7031C144.001 99.1384 143.032 99.3499 142.056 99.3186H134.79C133.815 99.3444 132.848 99.1304 131.976 98.6956C131.103 98.2608 130.352 97.6185 129.787 96.8256C128.363 94.6719 126.326 92.9904 123.938 91.9957C121.55 91.001 118.919 90.7383 116.38 91.2411C113.884 91.7197 111.585 92.9208 109.77 94.6944C107.955 96.468 106.704 98.7354 106.175 101.213C105.766 103.116 105.788 105.087 106.24 106.98C106.693 108.874 107.563 110.642 108.789 112.158C110.007 113.655 111.546 114.861 113.292 115.689C115.038 116.517 116.948 116.946 118.882 116.945C121.013 116.939 123.11 116.411 124.988 115.407C126.866 114.403 128.467 112.953 129.65 111.186Z" fill="url(#paint1_linear_1011_17412)"/>
<path d="M92.6422 178.781C91.7702 179.279 91.0337 179.982 90.497 180.828C89.3144 182.596 87.7133 184.045 85.8353 185.05C83.9573 186.054 81.8601 186.582 79.7288 186.587C77.795 186.589 75.8852 186.16 74.1391 185.332C72.3929 184.504 70.8544 183.297 69.636 181.801C68.4105 180.285 67.5399 178.516 67.0877 176.623C66.6355 174.73 66.6131 172.759 67.0221 170.856C67.5516 168.378 68.802 166.111 70.6171 164.337C72.4321 162.564 74.7314 161.363 77.2275 160.884C79.7661 160.381 82.3974 160.644 84.7854 161.639C87.1735 162.633 89.2099 164.315 90.6346 166.468C91.199 167.261 91.9506 167.904 92.8231 168.338C93.6956 168.773 94.6621 168.987 95.6372 168.961H102.904C103.88 168.993 104.848 168.781 105.722 168.346C106.595 167.911 107.346 167.265 107.906 166.468C109.316 164.291 111.348 162.584 113.739 161.567C116.131 160.549 118.773 160.268 121.326 160.759C123.823 161.235 126.124 162.435 127.94 164.209C128.716 164.968 129.389 165.817 129.947 166.735C130.484 167.406 131.161 167.953 131.934 168.338C132.806 168.773 133.773 168.987 134.748 168.961H142.014C142.99 168.993 143.959 168.781 144.832 168.346C145.706 167.911 146.457 167.265 147.017 166.468C148.427 164.291 150.459 162.584 152.85 161.567C155.241 160.549 157.884 160.268 160.437 160.759C162.934 161.235 165.235 162.435 167.051 164.209C168.866 165.983 170.116 168.252 170.642 170.732C171.057 172.634 171.038 174.606 170.586 176.501C170.133 178.395 169.259 180.164 168.028 181.676C166.813 183.174 165.277 184.381 163.533 185.21C161.789 186.038 159.88 186.466 157.948 186.463C155.836 186.463 153.756 185.95 151.889 184.968C150.021 183.987 148.422 182.566 147.23 180.828C146.695 179.98 145.958 179.276 145.086 178.778C144.214 178.28 143.232 178.004 142.227 177.974H134.61C133.606 178.006 132.625 178.284 131.753 178.781C130.881 179.279 130.144 179.982 129.608 180.828C128.425 182.596 126.824 184.045 124.946 185.05C123.068 186.054 120.971 186.582 118.84 186.587C116.906 186.589 114.996 186.16 113.25 185.332C111.504 184.504 109.965 183.297 108.747 181.801C108.313 181.264 107.923 180.696 107.581 180.102C107.127 179.574 106.584 179.126 105.975 178.778C105.103 178.28 104.121 178.004 103.116 177.974H95.4997C94.4954 178.006 93.5143 178.284 92.6422 178.781Z" fill="url(#paint2_linear_1011_17412)"/>
<path d="M151.35 213.603C150.477 214.1 149.741 214.803 149.204 215.65C148.022 217.417 146.421 218.867 144.543 219.871C142.665 220.876 140.567 221.404 138.436 221.409C136.502 221.411 134.593 220.982 132.846 220.154C131.1 219.326 129.562 218.119 128.343 216.622C127.118 215.107 126.247 213.338 125.795 211.445C125.343 209.551 125.32 207.581 125.729 205.678C126.259 203.2 127.509 200.933 129.324 199.159C131.139 197.385 133.439 196.184 135.935 195.706C138.473 195.203 141.105 195.466 143.493 196.46C145.881 197.455 147.917 199.137 149.342 201.29C149.906 202.083 150.658 202.725 151.53 203.16C152.403 203.595 153.369 203.809 154.345 203.783H161.611C162.587 203.815 163.555 203.603 164.429 203.168C165.302 202.732 166.053 202.087 166.614 201.29C168.024 199.113 170.055 197.406 172.447 196.388C174.838 195.371 177.48 195.09 180.033 195.581C182.531 196.057 184.832 197.257 186.647 199.031C188.463 200.805 189.712 203.074 190.239 205.553C190.654 207.456 190.635 209.428 190.182 211.322C189.73 213.217 188.856 214.986 187.625 216.498C186.41 217.996 184.874 219.203 183.13 220.031C181.385 220.86 179.477 221.288 177.544 221.284C175.433 221.285 173.353 220.772 171.485 219.79C169.618 218.808 168.018 217.387 166.826 215.65C166.291 214.802 165.555 214.098 164.683 213.6C163.81 213.102 162.828 212.826 161.824 212.796H154.207C153.203 212.828 152.222 213.105 151.35 213.603Z" fill="url(#paint3_linear_1011_17412)"/>
<path d="M204.608 138.654C204.611 142.088 205.982 145.38 208.418 147.808C210.854 150.236 214.157 151.602 217.603 151.605C221.048 151.602 224.351 150.236 226.787 147.808C229.224 145.38 230.594 142.088 230.597 138.654C230.594 135.22 229.224 131.927 226.787 129.499C224.351 127.071 221.048 125.706 217.603 125.702C214.157 125.706 210.854 127.071 208.418 129.499C205.982 131.927 204.611 135.22 204.608 138.654Z" fill="url(#paint4_linear_1011_17412)"/>
<path d="M89.1369 147.808C86.7007 145.38 85.3306 142.088 85.3273 138.654C85.3306 135.22 86.7007 131.927 89.1369 129.499C91.5731 127.071 94.8763 125.706 98.3216 125.702C101.767 125.706 105.07 127.071 107.506 129.499C109.943 131.927 111.313 135.22 111.316 138.654C111.313 142.088 109.943 145.38 107.506 147.808C105.07 150.236 101.767 151.602 98.3216 151.605C94.8763 151.602 91.5731 150.236 89.1369 147.808Z" fill="url(#paint5_linear_1011_17412)"/>
<path d="M184.021 103.832C184.025 107.266 185.395 110.558 187.831 112.986C190.267 115.415 193.57 116.78 197.016 116.783C200.461 116.78 203.764 115.415 206.201 112.986C208.637 110.558 210.007 107.266 210.01 103.832C210.007 100.398 208.637 97.1057 206.201 94.6776C203.764 92.2494 200.461 90.8839 197.016 90.8806C193.57 90.8839 190.267 92.2494 187.831 94.6776C185.395 97.1057 184.025 100.398 184.021 103.832V103.832Z" fill="white"/>
<path d="M66.7717 103.832C66.775 107.266 68.1451 110.558 70.5813 112.986C73.0175 115.415 76.3208 116.78 79.7661 116.783C83.2114 116.78 86.5147 115.415 88.9509 112.986C91.3871 110.558 92.7572 107.266 92.7605 103.832C92.7572 100.398 91.3871 97.1057 88.9509 94.6776C86.5147 92.2494 83.2114 90.8839 79.7661 90.8806C76.3208 90.8839 73.0175 92.2494 70.5813 94.6776C68.1451 97.1057 66.775 100.398 66.7717 103.832V103.832Z" fill="white"/>
<path d="M184.021 173.475C184.025 176.909 185.395 180.202 187.831 182.63C190.267 185.058 193.57 186.423 197.016 186.427C200.461 186.423 203.764 185.058 206.201 182.63C208.637 180.202 210.007 176.909 210.01 173.475C210.007 170.041 208.637 166.749 206.201 164.321C203.764 161.893 200.461 160.527 197.016 160.524C193.57 160.527 190.267 161.893 187.831 164.321C185.395 166.749 184.025 170.041 184.021 173.475V173.475Z" fill="white"/>
<defs>
<linearGradient id="paint0_linear_1011_17412" x1="66.7311" y1="48.6564" x2="200.841" y2="230.683" gradientUnits="userSpaceOnUse">
<stop stop-color="#00FAFF"/>
<stop offset="1" stop-color="#8BFF95"/>
</linearGradient>
<linearGradient id="paint1_linear_1011_17412" x1="66.7311" y1="48.6564" x2="200.841" y2="230.683" gradientUnits="userSpaceOnUse">
<stop stop-color="#00FAFF"/>
<stop offset="1" stop-color="#8BFF95"/>
</linearGradient>
<linearGradient id="paint2_linear_1011_17412" x1="66.7311" y1="48.6564" x2="200.841" y2="230.683" gradientUnits="userSpaceOnUse">
<stop stop-color="#00FAFF"/>
<stop offset="1" stop-color="#8BFF95"/>
</linearGradient>
<linearGradient id="paint3_linear_1011_17412" x1="66.7311" y1="48.6564" x2="200.841" y2="230.683" gradientUnits="userSpaceOnUse">
<stop stop-color="#00FAFF"/>
<stop offset="1" stop-color="#8BFF95"/>
</linearGradient>
<linearGradient id="paint4_linear_1011_17412" x1="66.7311" y1="48.6564" x2="200.841" y2="230.683" gradientUnits="userSpaceOnUse">
<stop stop-color="#00FAFF"/>
<stop offset="1" stop-color="#8BFF95"/>
</linearGradient>
<linearGradient id="paint5_linear_1011_17412" x1="66.7311" y1="48.6564" x2="200.841" y2="230.683" gradientUnits="userSpaceOnUse">
<stop stop-color="#00FAFF"/>
<stop offset="1" stop-color="#8BFF95"/>
</linearGradient>
</defs>
</svg>
