<?xml version="1.0" encoding="UTF-8"?><svg id="_层_1" xmlns="http://www.w3.org/2000/svg" viewBox="0 0 367.53 309"><path d="M233.93,89.83c.35-.05,.7-.1,1.04-.15-.35,.04-.7,.09-1.04,.15Z"/><path d="M243.36,89.55c.2,.02,.39,.04,.59,.07h0c.19,.02,.39,.04,.58,.07-.54-.07-1.08-.13-1.62-.17,.15,.02,.3,.03,.45,.04Z"/><path d="M238.39,89.4c.36-.01,.72-.02,1.08-.02-.36,0-.72,.01-1.08,.02Z"/><path d="M236.42,89.52c.33-.03,.66-.05,.99-.07-.33,.02-.66,.04-.99,.07Z"/><path d="M242.01,89.45h.1c-.65-.03-1.31-.06-1.96-.06,.48,0,.97,0,1.45,.04,.14,0,.27,.01,.41,.02Z"/><path d="M225.8,92.04l.06-.02-.06,.02Z"/><path d="M230.08,90.62h0Z"/><path d="M231.66,90.25c.31-.07,.63-.14,.94-.2-.32,.06-.63,.13-.94,.2Z"/><path d="M112.19,276.02c-.96-7.79,.51-16.03,5.04-23.63l.41-.67L207.96,106.99c1.83-2.93,3.97-5.5,6.34-7.71,.89-.82,1.8-1.6,2.75-2.32,1.59-1.21,3.25-2.27,4.96-3.18,1.04-.55,2.08-1.05,3.16-1.5,.21-.09,.42-.16,.64-.24l.06-.02c.49-.19,.97-.39,1.47-.56,.92-.31,1.83-.59,2.76-.83h.02c.18-.05,.36-.11,.54-.15,.34-.09,.68-.14,1.02-.22,.31-.07,.63-.14,.94-.2,.09-.02,.19-.04,.28-.06,.35-.06,.7-.11,1.05-.17,.35-.05,.7-.1,1.04-.15,.48-.06,.96-.12,1.45-.16,.33-.03,.66-.05,.99-.07,.33-.02,.65-.04,.98-.05,.36-.01,.72-.02,1.08-.02,.08,0,.17,0,.25,0,.14,0,.28,0,.42,.01,.66,0,1.31,.03,1.96,.07,.19,.01,.37,.02,.56,.03,.08,0,.16,.01,.24,.02,.54,.04,1.08,.11,1.62,.17h.05c10,1.28,19.56,6.53,25.95,15.78L215.61,17.6c-14.67-23.46-48.83-23.46-63.49,0L5.75,251.7c-15.59,24.94,2.34,57.3,31.76,57.29h111.77c-20.16-.08-34.9-15.36-37.09-32.98Z"/><path d="M361.79,251.71l-90.3-144.72c-6.35-10.19-16.39-15.96-26.91-17.31h-.05c-.19-.03-.39-.05-.58-.07-.89,.1-1.78,.22-2.67,.38-.75,.14-1.5,.29-2.25,.47-1.12,.27-2.22,.61-3.32,.99-.72,.25-1.45,.52-2.16,.82-1.07,.45-2.12,.95-3.16,1.5-1.71,.91-3.37,1.97-4.96,3.18-.95,.72-1.86,1.5-2.75,2.32-2.37,2.21-4.51,4.78-6.34,7.71l-13.14,21.06-42.61,180.93h-2.95c.06,0,.11,0,.17,0h172.21c29.39,0,47.33-32.33,31.76-57.28Z"/><path d="M125.63,252.39c-4.53,7.6-6,15.84-5.04,23.63,2.19,17.61,16.92,32.89,37.06,32.97h5.6l40.18-181.27-77.38,124c-.14,.22-.27,.45-.41,.67Z"/><path d="M125.63,252.39c-4.53,7.6-6,15.84-5.04,23.63,2.19,17.61,16.92,32.89,37.06,32.97h5.6l40.18-181.27-77.38,124c-.14,.22-.27,.45-.41,.67Z"/><path d="M244.53,89.68h0Z"/><path d="M244.53,89.68h0Z"/><path d="M243.36,89.55c.2,.02,.39,.04,.59,.07h0c-.2-.02-.39-.05-.59-.07Z"/><path d="M149.28,308.99s.09,0,.14,0h8.39c-.06,0-.11,0-.17,0h-8.37Z"/><path d="M227.32,91.45c-.49,.17-.98,.37-1.47,.56,1.39-.55,2.8-1.01,4.23-1.39-.93,.25-1.85,.52-2.76,.83Z"/><path d="M230.64,90.47c-.18,.04-.36,.1-.54,.15,.52-.14,1.04-.25,1.56-.36-.34,.07-.68,.13-1.02,.22Z"/><path d="M239.73,89.37c-.08,0-.17,0-.25,0,.22,0,.45,0,.67,0-.14,0-.28-.01-.42-.01Z"/><path d="M242.67,89.48c-.19-.01-.37-.02-.56-.03,.27,.02,.53,.03,.8,.05-.08,0-.16-.01-.24-.02Z"/><path d="M237.41,89.45c.33-.02,.65-.04,.98-.05-.33,.01-.65,.03-.98,.05Z"/><path d="M234.98,89.68c.48-.06,.96-.12,1.45-.16-.48,.04-.97,.1-1.45,.16Z"/><path d="M232.89,89.99c-.09,.02-.19,.04-.28,.06,.44-.08,.88-.16,1.32-.23-.35,.05-.7,.1-1.05,.17Z"/></svg>