<?xml version="1.0" encoding="utf-8"?>
<!-- Generator: Adobe Illustrator 21.1.0, SVG Export Plug-In . SVG Version: 6.00 Build 0)  -->
<svg version="1.1" id="Layer_1" xmlns="http://www.w3.org/2000/svg" xmlns:xlink="http://www.w3.org/1999/xlink" x="0px" y="0px"
	 viewBox="0 0 357 496" style="enable-background:new 0 0 357 496;" xml:space="preserve">
<style type="text/css">
	.st0{fill:none;}
	.st1{opacity:0.5;fill:#FFFFFF;}
	.st2{fill:#FFFFFF;}
	.st3{opacity:0.8;fill:#FFFFFF;}
	.st4{fill:url(#SVGID_1_);}
	.st5{fill:url(#SVGID_2_);}
	.st6{fill:url(#SVGID_3_);}
	.st7{fill:url(#SVGID_4_);}
	.st8{fill:url(#SVGID_5_);}
	.st9{fill:url(#SVGID_6_);}
	.st10{fill:url(#SVGID_7_);}
	.st11{fill:url(#SVGID_8_);}
	.st12{fill:url(#SVGID_9_);}
	.st13{fill:url(#SVGID_10_);}
</style>
<polygon class="st0" points="298.0512085,227.2114563 294.3343506,224.4581604 291.7115479,227.9552307 290.6291504,237.0368347 "/>
<polygon class="st0" points="304.1083984,234.3699036 300.3914795,231.6166077 289.5759888,245.8734436 288.4663086,255.1839294 "/>
<path class="st0" d="M200.1730957,404.9339294l-3.303894-5.9194946c-1.2389526-2.2025757-4.4052124-3.9921875-7.020813-3.9921875
	h-13.7662964c-2.6156006,0-5.9194946,1.6519775-7.5714111,3.7169189l-5.2312012,6.6077881
	c-1.6519775,2.0649414-4.9558716,3.9921875-7.5714722,4.4052124l-2.7974243,0.3949585l0.4572144,13.5452881
	c0,0.6121216-0.2094116,1.196167-0.5506592,1.6814575v0.9423828c8.3353271-0.3612671,17.3272095-0.5588989,26.706543-0.5588989
	c11.1647949,0,21.7754517,0.2810059,31.387085,0.7841187v-0.9906616c-0.4227295-0.5154419-0.6882935-1.1689453-0.6882935-1.8583984
	l0.4597778-13.6203003l-3.6260376-0.4576416C204.4406128,409.3391418,201.4120483,407.1365662,200.1730957,404.9339294z"/>
<polygon class="st0" points="53.0117188,248.4114685 70.0431519,271.0743103 68.9380493,261.752533 56.7285767,245.6582336 "/>
<path class="st0" d="M151.6924438,426.339325c-0.0079956,0.0100098-0.0165405,0.0195923-0.0246582,0.0296021
	c0.2567749-0.0117188,0.5078735-0.0247192,0.7659302-0.0360718c-0.0571899-0.1152954-0.1321411-0.2246704-0.2011108-0.3372803
	C152.0643311,426.1288757,151.8863525,426.2484436,151.6924438,426.339325z"/>
<path class="st0" d="M211.2061157,426.5574646c0.3543091,0.0187378,0.7070923,0.0378418,1.0586548,0.0571899
	c-0.0604248-0.0668945-0.1148682-0.1372681-0.171814-0.2062988c-0.229126-0.0861816-0.4495239-0.192627-0.6472168-0.3365479
	C211.3519897,426.2319031,211.2756958,426.3928528,211.2061157,426.5574646z"/>
<polygon class="st0" points="65.8024292,235.3018494 65.6201172,233.7641907 64.9883423,234.2322083 "/>
<polygon class="st0" points="59.0688477,241.2530212 67.8926392,252.9340515 66.8190308,243.8774719 62.7857666,238.4997864 "/>
<path class="st1" d="M240.9212646,433.6041565l-12.2520142-2.8909302l-12.664978-2.0649414
	c-1.4643555-0.2196655-2.7987671-0.9928589-3.739502-2.0336304c-0.3515625-0.0193481-0.7043457-0.0384521-1.0586548-0.0571899
	c-0.1773071,0.4192505-0.2953491,0.8464355-0.2953491,1.2648315v-1.2808228
	c-9.6116333-0.5031128-20.22229-0.7841187-31.387085-0.7841187c-9.3793335,0-18.3712158,0.1976318-26.706543,0.5588989v1.5060425
	c0-0.492981-0.1409912-1.0006714-0.3834229-1.4894409c-0.2580566,0.0113525-0.5091553,0.024353-0.7659302,0.0360718
	c-0.9438477,1.1641846-2.3677368,2.0428467-3.9441528,2.2793579l-12.664978,2.0649414l-12.2520142,2.8909302
	c-2.7532349,0.6882935-5.0935059-1.1013184-5.0935059-3.9922485v-0.2400513
	c-10.3421631,1.5864868-16.5195312,3.5796509-16.5195312,5.746521c0,5.1699829,35.0695801,9.361084,78.3300781,9.361084
	s78.3300781-4.1911011,78.3300781-9.361084c0-1.8191528-4.3565063-3.5159302-11.869873-4.9527588
	C245.7046509,432.7263489,243.4938965,434.2472839,240.9212646,433.6041565z"/>
<path class="st2" d="M53.0117188,248.4114685l3.7168579-2.7532349l12.2094727,16.0942993l-1.0454102-8.8184814
	l-8.8237915-11.6810303l3.7169189-2.7532349l4.0332642,5.3776855l-1.0166016-8.5756226l-0.8140869-1.0696411l0.6317749-0.4680176
	l-3.6207275-30.5425415c-15.2333984-2.8283081-26.3331909-15.7346191-26.3331909-32.5895386v-2.1699829
	c-15.3588867,3.0499878-32.5518799,14.9128418-31.8000488,32.4556885
	c1.2389526,28.4962158,59.1949463,93.0599976,59.1949463,93.0599976l6.9971924-22.7753906l-0.0151367-0.1281128
	L53.0117188,248.4114685z"/>
<path class="st2" d="M324.2071533,155.0588684v15.5732422c0,18.0388794-12.7125244,31.5584106-29.6010742,33.0369263
	l-2.8945312,24.2861938l2.6228027-3.4970703l3.7168579,2.7532959l-7.4220581,9.8253784l-1.0531616,8.8366089l10.8154907-14.2568359
	l3.7169189,2.7532959l-15.6420898,20.8140259l-0.5623169,4.7183228l6.1550293,20.0339966
	c0,0,57.9559937-64.1508179,59.1949463-93.0599976C353.9611206,170.375824,338.7927246,158.9026184,324.2071533,155.0588684z"/>
<path class="st2" d="M152.0900269,425.7762146c0.4489136-0.7293091,0.7271118-1.5328979,0.7271118-2.3591309v1.9567871
	c0.3412476-0.4852905,0.5506592-1.0693359,0.5506592-1.6814575l-0.4572144-13.5452881l-18.6518555,2.6331787l0.3590088,10.6367798
	h12.9682007C149.5170898,423.4170837,151.1837769,424.4673157,152.0900269,425.7762146z"/>
<path class="st2" d="M137.5365601,426.9963074c-1.5142822,0-2.8909302-1.2389526-2.8909302-2.7532349l-0.0278931-0.8259888
	h-11.8110962c-2.8908691,0-5.2311401,2.340271-5.2311401,5.2312012h0.1376343v0.7235718
	c6.9128418-1.0603638,15.6882324-1.9377441,25.746521-2.562561L137.5365601,426.9963074z"/>
<path d="M151.6035767,426.3719177c0.0215454-0.0009766,0.0426636-0.0020142,0.064209-0.0029907
	c0.0081177-0.0100098,0.0166626-0.0195923,0.0246582-0.0296021
	C151.6638794,426.3527527,151.6326294,426.3595276,151.6035767,426.3719177z"/>
<path class="st2" d="M122.8066406,433.6041565l12.2520142-2.8909302l12.664978-2.0649414
	c1.576416-0.2365112,3.0003052-1.1151733,3.9441528-2.2793579c-0.0215454,0.0009766-0.0426636,0.0020142-0.064209,0.0029907
	c-0.3081665,0.1312256-0.6398315,0.2114258-0.9890747,0.2114258l-7.1548462,0.2259521
	c-10.0582886,0.6248169-18.8336792,1.5021973-25.746521,2.562561v0.2400513
	C117.7131348,432.5028381,120.0534058,434.29245,122.8066406,433.6041565z"/>
<path class="st2" d="M137.5365601,426.9963074l5.9230957-0.1870117c2.6316528-0.1634521,5.3480225-0.3098145,8.1439209-0.4373779
	c0.0290527-0.0123901,0.0603027-0.019165,0.0888672-0.0325928c0.1455078-0.1819458,0.2775879-0.3682861,0.397583-0.5631104
	c-0.90625-1.3088989-2.572937-2.3591309-4.5040894-2.3591309h-12.9682007l0.0278931,0.8259888
	C134.6456299,425.7573547,136.0222778,426.9963074,137.5365601,426.9963074z"/>
<path class="st2" d="M210.2224731,423.6924133c0,0.6894531,0.265564,1.3429565,0.6882935,1.8583984v-2.133728
	c0,0.8262329,0.2781982,1.6298218,0.7271118,2.3591309c0.90625-1.3088989,2.572937-2.3591309,4.5040894-2.3591309h12.8305054
	l0.3709717-10.9896851l-18.6611938-2.3552856L210.2224731,423.6924133z"/>
<path class="st2" d="M226.0536499,426.9963074l-13.0779419-0.4129639c-0.3102417,0-0.6039429-0.0700684-0.8827515-0.1749878
	c0.0569458,0.0690308,0.1113892,0.1394043,0.171814,0.2062988c13.9309082,0.767395,25.6513062,2.0081177,33.7191162,3.5509644
	c0.0195923-0.1798096,0.0308838-0.3640747,0.0308838-0.5537109v-0.963623h0.1376343
	c0-2.8909302-2.340271-5.2312012-5.2311401-5.2312012h-11.9487915l-0.0278931,0.8259888
	C228.9445801,425.7573547,227.5679321,426.9963074,226.0536499,426.9963074z"/>
<path class="st2" d="M216.0042725,428.6482849l12.664978,2.0649414l12.2520142,2.8909302
	c2.5726318,0.6431274,4.7833862-0.8778076,5.0626221-3.4385376c-8.0678101-1.5428467-19.788208-2.7835693-33.7191162-3.5509644
	C213.2055054,427.655426,214.539917,428.4286194,216.0042725,428.6482849z"/>
<path class="st2" d="M211.6378784,425.7762146c0.135376,0.2198486,0.2873535,0.428894,0.4550781,0.6321411
	c0.2788086,0.1049194,0.5725098,0.1749878,0.8827515,0.1749878l13.0779419,0.4129639
	c1.5142822,0,2.8909302-1.2389526,2.8909302-2.7532349l0.0278931-0.8259888h-12.8305054
	C214.2108154,423.4170837,212.5441284,424.4673157,211.6378784,425.7762146z"/>
<path class="st3" d="M288.4663086,255.1839294l1.1096802-9.3104858l-4.3273926,5.7042847l-1.6519165-5.2312012l7.0324707-9.3096924
	l1.0823975-9.081604l-9.7668457,13.0224609l-1.6519165-5.2312012l11.8389893-15.5558472l-3.7169189-2.7532349l-9.7740479,12.9402466
	l-6.8831177-21.8883667c0,0,1.4763794-2.4993896,3.7504883-6.3724365l-76.9870605-9.4587402
	c-10.324646-1.2389526-26.9818726-1.2389526-37.1688843,0l-87.2134399,10.71521
	c5.9780884,10.2775879,11.2236328,19.1575928,11.2236328,19.1575928L78.4793091,244.41922l-9.7740479-12.9402466
	l-3.085144,2.2852173l0.182312,1.5376587l11.0249023,14.4862671l-1.6519165,5.2312012l-8.3563843-11.1418457l1.0736084,9.0565796
	l5.6307983,7.4541016l-1.6519775,5.2311401l-2.9334106-3.8667603l1.1051025,9.3217773l0.0386963,0.0515137l-0.0235596,0.0765991
	l2.3309937,19.663147c7.2524414,4.9177246,38.9945679,23.7626343,94.8824463,20.0447388
	c59.3261108-4.0826416,111.4313354-31.2181396,118.7446899-35.1705322l1.8875732-15.8375244l-0.8657837-2.8179932
	L288.4663086,255.1839294z M206.3679199,232.0296326l-24.5039673,52.4494629c-1.1013184,2.340271-2.8909302,2.340271-4.1298828,0
	l-26.8442383-52.4494629c-1.2389526-2.340271-0.6882935-5.644165,1.1013184-7.4337769l23.2650146-23.2650146
	c1.7896118-1.7896118,4.8181763-1.7896118,6.6077881,0l23.1273193,23.1273193
	C206.7808838,226.2477722,207.4692383,229.6893616,206.3679199,232.0296326z"/>
<path class="st3" d="M286.7629395,64.7695007c2.7271729,0,5.3842163,0.3005981,7.9471436,0.8566895
	c-17.1943359-38.1425781-55.3570557-63.906189-102.6591187-63.906189h-27.3948364
	c-47.7026978,0-86.1099854,26.2022705-103.0907593,64.878479c3.6387939-1.1821899,7.5168457-1.8289795,11.5450439-1.8289795
	H286.7629395z"/>
<polygon class="st2" points="75.175415,255.0193176 76.8273315,249.7881165 65.8024292,235.3018494 66.8190308,243.8774719 "/>
<polygon class="st2" points="70.0431519,271.0743103 70.0582886,271.2024231 70.0818481,271.125824 "/>
<path class="st2" d="M61.9993896,203.2216492l3.6207275,30.5425415l3.085144-2.2852173l9.7740479,12.9402466l6.8831177-21.8883057
	c0,0-5.2455444-8.8800049-11.2236328-19.1575928l-1.3036499,0.1601562
	C69.065979,203.9888,65.428772,203.8583679,61.9993896,203.2216492z"/>
<polygon class="st2" points="71.87146,265.6192932 73.5234375,260.3881531 67.8926392,252.9340515 68.9380493,261.752533 "/>
<polygon class="st2" points="287.038208,257.084259 287.9039917,259.9022522 288.4663086,255.1839294 "/>
<polygon class="st2" points="285.2485962,251.5777283 289.5759888,245.8734436 290.6291504,237.0368347 283.5966797,246.3465271 "/>
<path class="st2" d="M287.038269,203.5334778l-11.5300903-1.416626c-2.2741089,3.8730469-3.7504883,6.3724365-3.7504883,6.3724365
	l6.8831177,21.8883667l9.7740479-12.9402466l3.7169189,2.7532349l-11.8389893,15.5558472l1.6519165,5.2312012l9.7668457-13.0224609
	l2.8945312-24.2861938C292.1620483,203.8829651,289.6313477,203.8467102,287.038269,203.5334778z"/>
<path d="M61.9993896,203.2216492l-3.1801147-26.8259888c-0.3829346-0.7218628-0.7194214-1.3692017-0.9893799-1.9090576
	c-3.0310059-6.2785034-12.2125244-8.0005493-22.1636963-6.0244751v2.1699829
	C35.6661987,187.48703,46.7659912,200.3933411,61.9993896,203.2216492z"/>
<radialGradient id="SVGID_1_" cx="-757.0545654" cy="580.2717896" r="3.7233622" gradientTransform="matrix(-38.7286987 45.0998993 -45.0999985 -38.7285995 -2969.5546875 56706.7148438)" gradientUnits="userSpaceOnUse">
	<stop  offset="0" style="stop-color:#FFFFFF"/>
	<stop  offset="1" style="stop-color:#FFFFFF"/>
</radialGradient>
<path class="st4" d="M61.9993896,203.2216492l-3.1801147-26.8259888c-0.3829346-0.7218628-0.7194214-1.3692017-0.9893799-1.9090576
	c-3.0310059-6.2785034-12.2125244-8.0005493-22.1636963-6.0244751v2.1699829
	C35.6661987,187.48703,46.7659912,200.3933411,61.9993896,203.2216492z"/>
<path d="M299.8809814,159.410614l-5.2749023,44.2584229c16.8885498-1.4785156,29.6010742-14.9980469,29.6010742-33.0369263
	v-15.5732422C313.8171997,152.3208313,303.7295532,153.45755,299.8809814,159.410614z"/>
<radialGradient id="SVGID_2_" cx="-757.0545654" cy="580.2717896" r="3.7233622" gradientTransform="matrix(-38.7286987 45.0998993 -45.0999985 -38.7285995 -2969.5546875 56706.7148438)" gradientUnits="userSpaceOnUse">
	<stop  offset="0" style="stop-color:#FFFFFF"/>
	<stop  offset="1" style="stop-color:#FFFFFF"/>
</radialGradient>
<path class="st5" d="M299.8809814,159.410614l-5.2749023,44.2584229
	c16.8885498-1.4785156,29.6010742-14.9980469,29.6010742-33.0369263v-15.5732422
	C313.8171997,152.3208313,303.7295532,153.45755,299.8809814,159.410614z"/>
<path class="st2" d="M149.7885742,126.304718c0-2.4779663-1.5143433-3.303894-4.2675781-3.303894h-2.8909302v7.020752h2.8909302
	C148.4119263,130.0215759,149.7885742,128.7826233,149.7885742,126.304718z"/>
<radialGradient id="SVGID_3_" cx="-757.0545654" cy="580.2717896" r="3.7233622" gradientTransform="matrix(-38.7286987 45.0998993 -45.0999985 -38.7285995 -2969.5546875 56706.7148438)" gradientUnits="userSpaceOnUse">
	<stop  offset="0" style="stop-color:#7F7F7F"/>
	<stop  offset="1" style="stop-color:#000000"/>
</radialGradient>
<path class="st6" d="M149.7885742,126.304718c0-2.4779663-1.5143433-3.303894-4.2675781-3.303894h-2.8909302v7.020752h2.8909302
	C148.4119263,130.0215759,149.7885742,128.7826233,149.7885742,126.304718z"/>
<path class="st2" d="M171.1262817,126.1670227c0-2.340271-1.5142822-3.0285645-4.2675781-3.0285645h-2.6156006v6.4701538h2.6156006
	C169.6119995,129.6086121,171.1262817,128.3696594,171.1262817,126.1670227z"/>
<radialGradient id="SVGID_4_" cx="-757.0545654" cy="580.2717896" r="3.7233622" gradientTransform="matrix(-38.7286987 45.0998993 -45.0999985 -38.7285995 -2969.5546875 56706.7148438)" gradientUnits="userSpaceOnUse">
	<stop  offset="0" style="stop-color:#7F7F7F"/>
	<stop  offset="1" style="stop-color:#000000"/>
</radialGradient>
<path class="st7" d="M171.1262817,126.1670227c0-2.340271-1.5142822-3.0285645-4.2675781-3.0285645h-2.6156006v6.4701538h2.6156006
	C169.6119995,129.6086121,171.1262817,128.3696594,171.1262817,126.1670227z"/>
<path class="st2" d="M61.9993896,203.2216492c3.4293823,0.6367188,7.0665894,0.7671509,10.8357544,0.3118286l1.3036499-0.1601562
	c-5.7820435-9.9405518-12.243103-21.1784058-15.319519-26.9776611L61.9993896,203.2216492z"/>
<radialGradient id="SVGID_5_" cx="-757.0545654" cy="580.2717896" r="3.7233622" gradientTransform="matrix(-38.7286987 45.0998993 -45.0999985 -38.7285995 -2969.5546875 56706.7148438)" gradientUnits="userSpaceOnUse">
	<stop  offset="0" style="stop-color:#FFFFFF"/>
	<stop  offset="1" style="stop-color:#FFFFFF"/>
</radialGradient>
<path class="st8" d="M61.9993896,203.2216492c3.4293823,0.6367188,7.0665894,0.7671509,10.8357544,0.3118286l1.3036499-0.1601562
	c-5.7820435-9.9405518-12.243103-21.1784058-15.319519-26.9776611L61.9993896,203.2216492z"/>
<path class="st2" d="M299.2902222,160.4450378c-3.4923706,6.9847412-17.0977173,30.2875977-23.7820435,41.671814
	l11.5300903,1.416626c2.5930786,0.3132324,5.1237793,0.3494873,7.5678101,0.1355591l5.2749023-44.2584229
	C299.666626,159.742218,299.4647827,160.0834045,299.2902222,160.4450378z"/>
<radialGradient id="SVGID_6_" cx="-757.0545654" cy="580.2717896" r="3.7233622" gradientTransform="matrix(-38.7286987 45.0998993 -45.0999985 -38.7285995 -2969.5546875 56706.7148438)" gradientUnits="userSpaceOnUse">
	<stop  offset="0" style="stop-color:#FFFFFF"/>
	<stop  offset="1" style="stop-color:#FFFFFF"/>
</radialGradient>
<path class="st9" d="M299.2902222,160.4450378c-3.4923706,6.9847412-17.0977173,30.2875977-23.7820435,41.671814
	l11.5300903,1.416626c2.5930786,0.3132324,5.1237793,0.3494873,7.5678101,0.1355591l5.2749023-44.2584229
	C299.666626,159.742218,299.4647827,160.0834045,299.2902222,160.4450378z"/>
<ellipse class="st2" cx="60.9961395" cy="92.4396667" rx="6.6078186" ry="6.7454834"/>
<path class="st2" d="M229.9790039,393.5988464l-0.6355591,18.8285522l6.0712891,0.7662964
	c2.6156006,0.4129639,5.644165-1.2389526,6.7454224-3.5792236l10.0494385-20.2364502l1.3765869-0.5506592
	c12.9403076-5.7817993,27.6702271-21.2000122,32.7637329-34.4156494c0,0,3.5792236-3.7169189,5.7817993-24.5039062
	c2.2026367-20.7871094-5.2311401-54.6520996-5.2311401-54.6520996s-0.3063965,0.171814-0.8841553,0.4840698l-8.0639038,67.6589355
	C275.0238037,368.4147034,254.4597168,389.1978455,229.9790039,393.5988464z"/>
<path class="st2" d="M155.7080078,409.7521667c2.6156006-0.4130249,5.9194946-2.340271,7.5714722-4.4052124l5.2312012-6.6077881
	c1.6519165-2.0649414,4.9558105-3.7169189,7.5714111-3.7169189h13.7662964c2.6156006,0,5.7818604,1.7896118,7.020813,3.9921875
	l3.303894,5.9194946c1.2389526,2.2026367,4.2675171,4.4052124,6.8831177,4.680542l3.6260376,0.4576416l0.5266113-15.6005249
	h-58.8274536l0.5291748,15.6755371L155.7080078,409.7521667z"/>
<path class="st2" d="M78.6169434,343.3987122l-6.2276611-52.5331421c-1.0722656-0.7271118-1.6190796-1.1552734-1.6190796-1.1552734
	l-2.340332,20.3740234c-1.6519165,14.041626,1.3766479,36.2052612,6.6078491,49.4208984l1.3765869,3.4415894
	c3.7169189,9.4987183,14.7299194,20.0987549,24.5039673,23.6779785l12.2519531,4.4052124
	c2.4779663,0.8259888,5.3688354,3.4415894,6.4701538,5.7818604l6.0571899,12.664978
	c1.1013184,2.340271,3.9921875,3.9921875,6.6077881,3.5792236l1.9533691-0.2757568l-0.6201172-18.3718872
	C106.2909546,393.105011,81.9562378,370.7805481,78.6169434,343.3987122z"/>
<path class="st2" d="M152.3814087,394.4715881h-16.2214355c-0.8430786,0-1.6834106-0.0232544-2.5213623-0.0631714
	l0.6201172,18.3718872l18.6518555-2.6331787L152.3814087,394.4715881z"/>
<path class="st2" d="M220.4094849,394.4715881h-9.2006226l-0.5266113,15.6005249l18.6611938,2.3552856l0.6355591-18.8285522
	C226.8427734,394.1626282,223.6455688,394.4715881,220.4094849,394.4715881z"/>
<path class="st2" d="M237.2043457,319.0324402c0.5506592-0.1376953,0.8259888-0.4130249,0.963623-0.6882935
	c0.1376953-0.2753296,0-0.8259888-0.1376343-1.3766479c-0.1376953-0.6882935-0.4130249-1.1013184-0.6883545-1.2389526
	c-0.2753296-0.2753296-0.6882935-0.2753296-1.1013184-0.1376953l-2.6155396,0.6883545l0.963623,3.4415283L237.2043457,319.0324402z"
	/>
<path class="st2" d="M72.3892822,290.8655701l6.2276611,52.5331421
	c3.3392944,27.3818359,27.6740112,49.7062988,55.0216675,51.0097046l-0.0942383-2.7913818
	c0-1.5143433,1.2389526-2.8909302,2.7532349-2.8909302l13.0779419-0.4130249c1.5142822,0,2.8909302,1.2389526,2.8909302,2.7532349
	l0.1149292,3.4052734h58.8274536l0.1149292-3.4052734c0-1.5142822,1.3765869-2.7532349,2.8908691-2.7532349l13.0780029,0.4130249
	c1.5142822,0,2.7532349,1.3765869,2.7532349,2.8909302l-0.0668945,1.9818115
	c24.4807129-4.401001,45.0447998-25.1841431,47.9735107-50.2001343l8.0639038-67.6589355
	c-7.3133545,3.9523926-59.4185791,31.0878906-118.7446899,35.1705322
	C111.3838501,314.6282043,79.6417236,295.7832947,72.3892822,290.8655701z M266.8018188,303.0635071l4.5428467-1.2388916
	l4.680542,17.4831543l-4.680542,1.2389526l-3.4415283-13.0779419l-2.6156006,1.2389526l-0.8259888-2.8909302
	L266.8018188,303.0635071z M261.8459473,304.4402161l1.6519775,1.5142822l-1.2389526,17.0701904l-4.9558716,1.3765869
	l1.1013184-14.5922241l-6.8831177,1.7896118l-1.1013184-4.1298828L261.8459473,304.4402161z M251.9342651,316.2792053
	l0.963623,3.7168579l-7.4337769,2.0649414l-0.963623-3.7168579L251.9342651,316.2792053z M235.6900635,311.3233337
	c1.6519775-0.4129639,3.1662598-0.4129639,4.2675781,0.2753296c1.1012573,0.6882935,2.0649414,1.9272461,2.6155396,3.9921875
	c0.5506592,1.9273071,0.5506592,3.4415894,0.2753296,4.2675781c-0.2753296,0.4129639-0.4129639,0.6882935-0.5506592,0.963623
	c-0.1376343,0.2753296-0.4129639,0.4129639-0.8259888,0.6882935l4.8182373,5.7818604l-5.2312012,1.3765869l-3.8545532-5.5064697
	h-1.5142822l1.7896118,6.4701538l-4.9558716,1.2389526l-4.680481-17.4831543L235.6900635,311.3233337z M215.1783447,318.0688171
	c0.6882935-0.963623,1.6519165-1.7896118,3.0285645-2.2026367c0.5505981-0.2753296,1.2389526-0.4129639,1.7896118-0.5506592
	c2.2025757-0.5505981,4.1298828-0.8259888,5.7817993-0.6882935l0.963623,3.5792236
	c-1.5142822,0.2753296-3.4415283,0.6883545-5.7817993,1.2389526c-0.6882935,0.1376953-1.1013184,0.4130249-1.3766479,0.5506592
	s-0.2753296,0.5506592-0.1376343,0.963623l0.1376343,0.2753296c0.1376953,0.4130249,0.2753296,0.6882935,0.5506592,0.8259888
	s0.6882935,0.1376953,1.2389526,0l2.2026367-0.5506592c1.9272461-0.5505981,3.4415283,0,4.5428467,1.3766479
	c0.5506592,0.6882935,0.963623,1.5142822,1.2389526,2.4779053l0.2753296,0.8259888
	c0.963623,3.5792847-0.1376953,5.7818604-3.4415894,6.6078491c-2.34021,0.6882935-3.8545532,0.963623-4.5428467,1.1012573
	c-0.6882935,0.1376953-1.7896118,0.1376953-3.0285645,0l-0.963623-3.5792236
	c1.7896118-0.2753296,3.8545532-0.6882935,6.1948242-1.3765869c0.5505981-0.1376953,0.8259277-0.2753296,0.963623-0.5506592
	c0.1376343-0.2753296,0.2753296-0.5506592,0.1376343-0.8259888l-0.1376343-0.4129639
	c-0.1376953-0.4130249-0.2753296-0.5506592-0.4130249-0.6883545c-0.2753296-0.1376343-0.5505981-0.1376343-1.1013184,0
	l-2.2025757,0.5506592c-0.8259888,0.2753296-1.6519775,0.2753296-2.340271,0.1376953
	c-0.6882935-0.1376953-1.2389526-0.2753296-1.6519165-0.6883545c-0.4130249-0.2753296-0.8259888-0.6882935-1.1013184-1.1013184
	c-0.2752686-0.5506592-0.6882935-1.2389526-0.8259277-2.0649414l-0.4130249-1.5142822
	C214.352356,320.2713928,214.4899902,319.0324402,215.1783447,318.0688171z"/>
<path class="st2" d="M152.3814087,394.4715881l-0.1149292-3.4052734c0-1.5142822-1.3766479-2.7532349-2.8909302-2.7532349
	l-13.0779419,0.4130249c-1.5142822,0-2.7532349,1.3765869-2.7532349,2.8909302l0.0942383,2.7913818
	c0.8379517,0.039917,1.6782837,0.0631714,2.5213623,0.0631714H152.3814087z"/>
<path class="st2" d="M229.9790039,393.5988464l0.0668945-1.9818115c0-1.5143433-1.2389526-2.8909302-2.7532349-2.8909302
	l-13.0780029-0.4130249c-1.5142822,0-2.8908691,1.2389526-2.8908691,2.7532349l-0.1149292,3.4052734h9.2006226
	C223.6455688,394.4715881,226.8427734,394.1626282,229.9790039,393.5988464z"/>
<radialGradient id="SVGID_7_" cx="168.2353516" cy="130.5722656" r="10.5354614" gradientUnits="userSpaceOnUse">
	<stop  offset="0" style="stop-color:#FFFFFF"/>
	<stop  offset="1" style="stop-color:#FFFFFF"/>
</radialGradient>
<path class="st10" d="M166.8587036,123.1384583h-2.6156006v6.4701538h2.6156006
	c2.7532959,0,4.2675781-1.2389526,4.2675781-3.4415894C171.1262817,123.8267517,169.6119995,123.1384583,166.8587036,123.1384583z"
	/>
<radialGradient id="SVGID_8_" cx="146.2093201" cy="130.4346008" r="10.2796221" gradientUnits="userSpaceOnUse">
	<stop  offset="0" style="stop-color:#FFFFFF"/>
	<stop  offset="1" style="stop-color:#FFFFFF"/>
</radialGradient>
<path class="st11" d="M145.5209961,123.000824h-2.8909302v7.020752h2.8909302c2.8909302,0,4.2675781-1.2389526,4.2675781-3.7168579
	C149.7885742,123.8267517,148.274231,123.000824,145.5209961,123.000824z"/>
<radialGradient id="SVGID_9_" cx="-757.0545654" cy="580.2717896" r="3.7233622" gradientTransform="matrix(-38.7286987 45.0998993 -45.0999985 -38.7285995 -2969.5546875 56706.7148438)" gradientUnits="userSpaceOnUse">
	<stop  offset="0" style="stop-color:#FFFFFF"/>
	<stop  offset="1" style="stop-color:#FFFFFF"/>
</radialGradient>
<path class="st12" d="M294.710083,65.6261902c8.2262573,18.2484741,11.6582642,39.3273315,8.9853516,61.7797852
	l-3.8144531,32.0046387c3.8485718-5.953064,13.9362183-7.0897827,24.3261719-4.3517456v-52.8451538
	C324.2071533,84.2915344,311.5527344,69.2805481,294.710083,65.6261902z"/>
<radialGradient id="SVGID_10_" cx="-757.0545654" cy="580.2717896" r="3.7233622" gradientTransform="matrix(-38.7286987 45.0998993 -45.0999985 -38.7285995 -2969.5546875 56706.7148438)" gradientUnits="userSpaceOnUse">
	<stop  offset="0" style="stop-color:#FFFFFF"/>
	<stop  offset="1" style="stop-color:#FFFFFF"/>
</radialGradient>
<path class="st13" d="M294.710083,65.6261902c-2.5629272-0.5560913-5.2199707-0.8566895-7.9471436-0.8566895H73.1104126
	c-4.0281982,0-7.90625,0.6467896-11.5450439,1.8289795c-15.0142822,4.8779297-25.8991699,18.9940796-25.8991699,35.6152344
	v66.2484131c9.9511719-1.9760742,19.1326904-0.2540283,22.1636963,6.0244751
	c0.2699585,0.539856,0.6064453,1.1871948,0.9893799,1.9090576c3.076416,5.7992554,9.5374756,17.0371094,15.319519,26.9776611
	l87.2134399-10.71521c10.1870117-1.2389526,26.8442383-1.2389526,37.1688843,0l76.9870605,9.4587402
	c6.6843262-11.3842163,20.2896729-34.6870728,23.7820435-41.671814c0.1745605-0.3616333,0.3764038-0.7028198,0.5907593-1.0344238
	l3.8144531-32.0046387C306.3683472,104.9535217,302.9363403,83.8746643,294.710083,65.6261902z M54.3883057,92.4396667
	c0-3.7254028,2.9584351-6.7454834,6.6078491-6.7454834c3.649353,0,6.6077881,3.0200806,6.6077881,6.7454834
	c0,3.7254639-2.9584351,6.7454834-6.6077881,6.7454834C57.3467407,99.1851501,54.3883057,96.1651306,54.3883057,92.4396667z
	 M76.4143677,123.2760925h-6.3325195v18.8598022H64.850708v-18.8598022h-6.4701538v-4.4051514h18.0338135V123.2760925z
	 M94.861145,142.1358948H79.9935913v-23.2649536h14.5922241v4.4051514h-9.361084v4.680542h7.984436v4.4052124h-7.984436v5.3688354
	h9.6364136V142.1358948z M113.9962769,142.1358948H99.541687v-23.2649536h5.2311401v18.8597412h9.2234497V142.1358948z
	 M132.7183838,142.1358948h-14.8675537v-23.2649536h14.5922241v4.4051514h-9.361084v4.680542h7.984436v4.4052124h-7.984436
	v5.3688354h9.6364136V142.1358948z M145.93396,134.1514587h-3.303894v7.8468018h-5.2311401v-23.1273193h8.5350342
	c5.0935669,0,9.0857544,1.7896118,9.0857544,7.4337769C155.0197144,131.8111877,150.8898315,134.1514587,145.93396,134.1514587z
	 M171.5392456,142.2735901v-0.1376953l-4.4052124-8.3973999h-2.8908691v8.3973999h-5.2312012v-23.2649536h8.3973999
	c4.9558716,0,8.9480591,1.6519165,8.9480591,7.2960815c0,3.4415894-1.6519165,5.644165-4.1298828,6.7454834l5.2312012,9.361084
	H171.5392456z M195.7678833,142.1358948h-15.005188v-23.2649536h0.1376343h14.5922241v4.4051514h-9.3610229v4.680542h7.984436
	v4.4052124h-7.984436v5.3688354h9.6363525V142.1358948z M207.6068726,142.8241882
	c-3.0285645,0-6.1948242-1.1012573-8.6727295-3.303894l2.8908691-3.8545532
	c1.6519775,1.3766479,3.7169189,2.4779663,5.6442261,2.4779663c2.2025757,0,3.303894-0.8259888,3.303894-2.2026367
	c0-1.5142822-1.3766479-1.9272461-3.303894-2.7532349l-3.0286255-1.2389526
	c-2.4779053-0.963623-4.680481-3.0285645-4.680481-6.3325195c0-3.8545532,3.4415283-6.8831177,8.2597656-6.8831177
	c2.6155396,0,5.5064697,1.1013184,7.4337769,3.0285645l-2.6156006,3.3039551
	c-1.5142822-1.2390137-3.0285645-1.7896729-4.8181763-1.7896729s-2.8909302,0.8259888-2.8909302,2.0649414
	c0,1.3766479,1.5142822,1.9273071,3.5792236,2.7532959l3.0285645,1.2389526
	c2.7532959,1.1013184,4.5429077,3.0285645,4.5429077,6.3324585
	C216.2796631,139.5202942,213.1134033,142.8241882,207.6068726,142.8241882z M235.00177,142.1358948h-15.005249v-23.2649536
	h0.1376343h14.5922852v4.4051514h-9.361084v4.680542h7.984436v4.4052124h-7.984436v5.3688354h9.6364136V142.1358948z
	 M257.7160645,141.9982605h-5.3688354l-6.0571289-11.5636597l-2.340271-5.0935059h-0.1376953
	c0.2753296,2.6155396,0.6883545,5.644165,0.6883545,8.3973999v8.2597656h-5.0935059v-23.1273193h0.1376343h5.3688354
	l6.0571289,11.5636597l2.340271,5.0935059h0.1376953c-0.2753296-2.4779663-0.6883545-5.7818604-0.6883545-8.5350952v-8.2597656
	h4.9558716V141.9982605z M272.8590088,142.5489197c-6.0571289,0-11.0130005-4.1298828-11.0130005-11.9766846
	c0.2752686-7.5714111,5.3687744-12.1143188,11.288269-12.1143188c2.8909302,0,5.3688354,1.3766479,6.8831787,3.0285645
	l-2.8909302,3.3039551c-1.2389526-1.1013184-2.340271-1.7896729-3.9922485-1.7896729
	c-3.303894,0-5.7817993,2.7532959-5.7817993,7.4338379c0,4.8181763,2.2026367,7.5714111,5.644165,7.5714111
	c1.9273071,0,3.303894-0.8259888,4.4052124-2.0649414l2.8909302,3.1662598
	C278.3655396,141.309906,275.749939,142.5489197,272.8590088,142.5489197z M298.739563,142.1358948h-15.005188v-23.2649536
	h0.1376343h14.5922241v4.4051514h-9.3610229v4.680542h7.984436v4.4052124h-7.984436v5.3688354h9.6363525V142.1358948z"/>
<g>
	<path class="st2" d="M15.2618923,467.188324H6.0566158v-6.2674255h25.657259v6.2674255h-9.0094147v26.8323975h-7.4425602
		C15.2618999,494.0207214,15.2618999,467.188324,15.2618923,467.188324z"/>
	<path class="st2" d="M36.8061523,460.9208984h20.7608299v6.2674255H44.2487068v6.6591492h11.3597069v6.267395H44.2487068v7.6384277
		h13.7099838v6.2674255H36.8061523V460.9208984z"/>
	<path class="st2" d="M64.6178284,460.9208984h7.4425659v26.8323975h13.122406v6.2674255H64.6178284V460.9208984z"/>
	<path class="st2" d="M90.6668015,460.9208984h20.7608261v6.2674255H98.1093521v6.6591492h11.3597107v6.267395H98.1093521v7.6384277
		h13.7099838v6.2674255H90.6668015V460.9208984z"/>
	<path class="st2" d="M118.4784775,460.9208984h12.1431198c7.2467041,0,12.9265594,2.5461426,12.9265594,10.5762939
		c0,7.834259-5.8757172,11.1638184-12.9265594,11.1638184h-4.7005539v11.1638489h-7.4425659V460.9208984z M130.0340424,476.7853088
		c4.1129913,0,6.0715485-1.7626953,6.0715485-5.2881165c0-3.5254517-2.1544189-4.7005615-6.0715485-4.7005615h-4.112999v9.988678
		H130.0340424z"/>
	<path class="st2" d="M167.0509949,494.0207214l-6.2674103-11.9472656h-4.1129913v11.9472656h-7.4425659v-33.099823h11.9472656
		c7.0508575,0,12.7306976,2.3502808,12.7306976,10.3804321c0,4.8964233-2.3502808,8.0301208-5.8757172,9.5969849
		l7.4425812,13.3182983h-8.4218597V494.0207214z M156.670578,476.1977539h3.721283
		c3.9171295,0,6.0715637-1.7627258,6.0715637-4.8964233c0-3.3295898-2.1544342-4.3088684-6.0715637-4.3088684h-3.721283V476.1977539
		z"/>
	<path class="st2" d="M180.369278,460.9208984h20.7608337v6.2674255h-13.3182678v6.6591492h11.3596954v6.267395h-11.3596954
		v7.6384277h13.7099762v6.2674255h-21.3483887v-33.099823H180.369278z"/>
	<path class="st2" d="M210.1395111,484.8154602c2.3502808,1.9585571,5.2881317,3.5254211,8.0301514,3.5254211
		c3.1337128,0,4.7005463-1.1751404,4.7005463-3.1336975c0-2.1544495-1.9585571-2.7420044-4.7005463-3.9171448l-4.3088531-1.7627258
		c-3.5254211-1.3710022-6.6591187-4.3088379-6.6591187-9.0093994c0-5.4840088,4.8964233-9.7928467,11.7514191-9.7928467
		c3.7212677,0,7.8342743,1.566864,10.5762634,4.3088379l-3.721283,4.7005615
		c-2.1544342-1.7627258-4.3088379-2.5461426-6.8549805-2.5461426s-4.1130066,1.1751404-4.1130066,2.9378662
		c0,1.9585571,2.1544342,2.7419739,5.0922852,3.9171143l4.3088531,1.7627258
		c3.9171295,1.566864,6.4632721,4.3088379,6.4632721,9.0094299c0,5.4839783-4.504715,10.1845398-12.3389893,10.1845398
		c-4.3088379,0-8.8135529-1.566864-12.3389893-4.7005615L210.1395111,484.8154602z"/>
	<path class="st2" d="M236.1884918,460.9208984h20.760849v6.2674255h-13.3182831v6.6591492h11.3597107v6.267395h-11.3597107
		v7.6384277h13.7099762v6.2674255h-21.3483887v-33.099823H236.1884918z"/>
	<path class="st2" d="M263.8042908,460.9208984h7.6384277l8.6176758,16.4519958l3.3295593,7.2467041h0.1958618
		c-0.3916931-3.5254211-0.9792786-8.2259827-0.9792786-12.1431274v-11.7514038h7.0508728v33.099823h-7.6384277
		l-8.6176758-16.4519958l-3.3295593-7.2467041h-0.1958618c0.3916931,3.721283,0.9792786,8.0301208,0.9792786,11.9472656v11.7514343
		h-7.2467041v-32.9039917H263.8042908z"/>
	<path class="st2" d="M311.5934143,460.3333435c4.1130066,0,7.6383972,1.9585571,9.7928162,4.3088379l-4.1130066,4.7005615
		c-1.7626953-1.566864-3.3295593-2.5461426-5.6798096-2.5461426c-4.7005615,0-8.2260132,3.9171448-8.2260132,10.5762634
		c0,6.855011,3.133728,10.7721558,8.0301514,10.7721558c2.7420044,0,4.7005615-1.1751404,6.2674255-2.9378662l4.1130066,4.5047302
		c-2.7419739,3.1336975-6.4632874,4.8964233-10.5762634,4.8964233c-8.6177063,0-15.6685486-5.8757324-15.6685486-17.0395508
		C295.9248352,466.7966309,303.1715393,460.3333435,311.5934143,460.3333435z"/>
	<path class="st2" d="M326.8702393,460.9208984h20.7608337v6.2674255h-13.3182678v6.6591492h11.3597107v6.267395h-11.3597107
		v7.6384277h13.7099915v6.2674255H326.674408v-33.099823H326.8702393z"/>
</g>
</svg>
