<svg xmlns="http://www.w3.org/2000/svg" role="img" viewBox="-3.83 -2.83 589.16 242.16"><defs><style>.cls-1{fill:#fff}</style></defs><path d="M206.87238 187.91305c1.50275.17328 2.99012.36243 4.453.56763-1.46289-.2052-2.9502-.39435-4.45295-.56763v-24.55h-.00006v24.55zm-18.80572-.47998l-3.16767-.55243 2.35492.57172a6.27153 6.27153 0 0 1 .81275-.01929zm-39.49951 2.58606q-.88174.74909-1.80988 1.444-.57368.42947-1.16394.83734.59023-.40778 1.164-.83734.92767-.69459 1.80982-1.444zm3.33233-3.20343a37.63059 37.63059 0 0 1-3.33233 3.20343 37.63059 37.63059 0 0 0 3.33233-3.20343zm1.51343-1.75019l.00275-.0036-.00281.00354q-.73.89868-1.51337 1.75025.78286-.85108 1.51337-1.75019zm45.89282-29.0194a82.49 82.49 0 0 1-8.089 7.78045 82.483 82.483 0 0 0 8.089-7.78045z" class="cls-1"/><path d="M201.042 154.07705c-.09375.11023-.1828.22168-.27734.33167-.47882.55688-.96894 1.097-1.45893 1.63739.49-.54035.98011-1.08051 1.45893-1.63733.09454-.10999.18359-.2215.27734-.33173zm-14.46112 46.32684c5.68-.6372 11.34143-1.459 16.97327-2.5606.45282-.08857.90161-.19959 1.35022-.31318-.44861.11353-.8974.22455-1.35022.31311-5.63184 1.10157-11.29328 1.92347-16.97327 2.56067zm-28.64435 2.09461a14.85346 14.85346 0 0 0 .13983-.006c3.8078-.19092 7.61542-.39331 11.41962-.6355-3.8042.24219-7.61188.44458-11.41968.6355-.04657.00234-.0932.00417-.13977.006zm55.22284-10.86695a5.83808 5.83808 0 0 0-1.37158-.63848 4.83383 4.83383 0 0 0-1.09491-.53748 4.83409 4.83409 0 0 1 1.09491.53754 5.84032 5.84032 0 0 1 1.37158.63842zm.71655 1.76807a1.53759 1.53759 0 0 0 .05158-.402 1.55709 1.55709 0 0 0-.09564-.54058 1.55875 1.55875 0 0 1 .09558.54058 1.53762 1.53762 0 0 1-.05152.402zm-48.91601-17.33789q-2.08813 1.19449-4.23163 2.27521 2.14334-1.08115 4.23163-2.27521zM57.68787 154.634c-1.0827-1.35187-2.14294-2.72919-3.15588-4.16034 1.01294 1.43115 2.07318 2.80847 3.15588 4.16034zm16.82001 15.98162c-1.49127-1.07037-2.93243-2.19885-4.34692-3.35809 1.41455 1.15924 2.85565 2.28772 4.34692 3.35809zM54.532 150.47366q-2.10168-2.96952-4.00128-6.16791 1.89916 3.19868 4.00128 6.16791zm-4.24055-72.50287c.50806-.7356 1.02661-1.46344 1.56574-2.17621-.53913.71277-1.05768 1.44061-1.56574 2.17621zm77.72186 125.27209c.39441-.00158.78894-.012 1.18335-.01416q5.87394-.03231 11.749-.151-5.8743.12242-11.749.15094c-.39441.0022-.78894.01264-1.18335.01422zM113.806 197.413a37.45138 37.45138 0 0 1-17.104-10.72583 37.45089 37.45089 0 0 0 17.104 10.72583zm-73.22353-80.02473a55.57484 55.57484 0 0 1-.48957-7.24426 55.56365 55.56365 0 0 0 .48957 7.24426zm54.73101 67.68951h.00007c.3684.45313.75219.89307 1.14093 1.32831-.38874-.4353-.77253-.87524-1.14093-1.32837-.62366-.767-1.22858-1.54968-1.79114-2.36523q-1.15723-.31183-2.30493-.658 1.14769.3457 2.30493.65808c.56259.81543 1.16742 1.59812 1.79107 2.36521zm-61.37585 18.70844q.11042.07068.2207.14166c.41022.26422.82379.5213 1.23627.78107-.41248-.25977-.826-.51685-1.23633-.78113q-.11027-.07095-.22064-.1416zM131.174 137.421a21.9344 21.9344 0 0 1 3.18725.63648 21.9344 21.9344 0 0 0-3.18725-.63648zm3.18721.63646a19.23232 19.23232 0 0 1 5.74018 2.66937 19.2338 19.2338 0 0 0-5.74018-2.66937zm73.21125-22.4632c-.10059.93884-.22895 1.86945-.37122 2.796.14227-.92655.27063-1.85716.37122-2.796zm-66.94953 79.60303q1.30161-.62979 2.54578-1.35553-1.24338.72501-2.54578 1.35553zm79.64521 4.36945c-1.19367.8974-2.44623 1.73223-3.66193 2.57452 1.2157-.84226 2.46826-1.67712 3.66193-2.57452zM201.042 154.07705q1.63321-1.92105 3.08722-3.88818-1.45578 1.96663-3.08722 3.88818zm-91.42615 49.04486q-11.257-.1994-22.50342-.757 11.24516.571 22.50342.757zm107.75495-13.68256c-.25476-.04467-.51-.084-.76459-.12939-.32471-.05774-.65-.10986-.97485-.16492.32489.05506.6502.10712.97485.165.25464.04527.50979.08464.76459.12931zm-36.49994-18.16076a9.34315 9.34315 0 0 0 1.056-.66541c-.35129.22282-.70157.44727-1.056.66541zm17.54675 16.98941c2.83124.3092 5.65082.71368 8.45477 1.25012-2.80395-.53641-5.62353-.94095-8.45477-1.25012zm23.021 10.37784a21.22934 21.22934 0 0 0 1.61828-1.49787 21.24156 21.24156 0 0 1-1.61828 1.49787zM211.39033 80.23965a62.52928 62.52928 0 0 0-4.51789-8.93781V41.72939h-.00006V71.3019a62.52262 62.52262 0 0 1 4.51795 8.93775zm0 0c.34668.845.67071 1.70245.98456 2.56555-.31379-.8631-.63789-1.72058-.98456-2.56555zM40.98609 196.79012s-1.30829-.35473-2.27331-.6474c.965.29267 2.27325.6474 2.27325.6474l.02271.00544 7.40087 1.78082-7.40081-1.78082zM85.23127 36.67288v-.00007c-.33008.203-.66443.39747-.992.60535.32757-.20788.66192-.40246.992-.60528zm32.67804 161.69689a37.415 37.415 0 0 0 4.26349.49177 37.415 37.415 0 0 1-4.26349-.49177zM84.4087 179.72048c2.24554.85468 4.51324 1.64264 6.80878 2.334-2.29554-.69136-4.56324-1.47938-6.80878-2.334zm43.52814-136.44024q4.12655.1409 8.22613.6018-4.0947-.45813-8.22613-.6018zM38.71278 196.14272c-.32166-.09753-.60517-.18823-.78943-.25653.1842.0683.46777.159.78943.25653z" class="cls-1"/><path d="M59.012 187.332h.00012c10.23114-.88128 22.55664-1.7893 36.2439-2.252-13.68729.46226-26.02002 1.24028-36.24402 2.252zm-26.3923 1.68792q.54822-.08514 1.09729-.16174c.07355-.01038.14709-.02033.22064-.03046-.07361.01013-.14709.02008-.2207.03046q-.54886.07709-1.09723.16174zm1.63214 3.39246a1.507 1.507 0 0 0-.09357.35046 1.59 1.59 0 0 0-.02887.23438 1.58089 1.58089 0 0 1 .02893-.23438 1.50694 1.50694 0 0 1 .09351-.35046zm-11.42767 1.13489a1.64008 1.64008 0 0 1-.01709-.29322 1.64008 1.64008 0 0 0 .01709.29322zm11.30523-.55005a2.11288 2.11288 0 0 0 .12348.57306 1.48266 1.48266 0 0 1-.09455-.347 1.46718 1.46718 0 0 1-.02893-.22606zm1.09687-1.56177a2.48264 2.48264 0 0 0-.70514.55395 2.48181 2.48181 0 0 1 .70514-.55395zm-.58179 2.70831a1.76873 1.76873 0 0 1-.3916-.57348 1.76873 1.76873 0 0 0 .3916.57348zm.57428.45477a3.48666 3.48666 0 0 1-.57428-.45477 3.48666 3.48666 0 0 0 .57428.45477zm-12.39459-1.05126a2.44213 2.44213 0 0 0 .19378.63653 2.44443 2.44443 0 0 1-.19378-.63653zm.19383.63653a4.85209 4.85209 0 0 0 .40344.71521 4.849 4.849 0 0 1-.40344-.71521zm10.15071 9.09644c-.54669-.359-1.09345-.71766-1.63513-1.08692-.6864-.46777-1.36505-.94568-2.03034-1.43982.66529.49414 1.34394.97211 2.03034 1.43988.54175.36927 1.08856.72797 1.63513 1.08686zm7.84009-83.15009c-.12665-.69513-.23291-1.39166-.33356-2.08862.10065.6969.20685 1.39343.3335 2.08856.25219 1.38379.54657 2.76453.89923 4.14093q.43359 1.6919.96637 3.376-.53247-1.68411-.96637-3.3761c-.35266-1.37636-.64704-2.75704-.89917-4.14077zM124.661 43.231h-.01.01zm47.07949 63.46251c.6994 1.0437 1.3482 2.12 1.9732 3.21063-.62506-1.09058-1.2738-2.16693-1.9732-3.21063zm8.93551 29.2246a52.42261 52.42261 0 0 0-.31988-5.79113 52.42293 52.42293 0 0 1 .31988 5.7912zm-8.70718-80.93487a79.90473 79.90473 0 0 1 15.54339 11.06634 79.904 79.904 0 0 0-15.54339-11.06634zm29.90271 29.88629c-.324-.63-.64465-1.26178-.98334-1.88379q-1.04526-1.91967-2.22858-3.7384 1.18031 1.8209 2.22852 3.7384c.33868.62201.65942 1.25379.9834 1.88379zm-46.94409 5.57709q2.05929 1.29209 3.99127 2.746-1.93039-1.45224-3.99127-2.746zm15.46331 76.61175a55.31328 55.31328 0 0 1-6.21441 7.10242 55.31328 55.31328 0 0 0 6.21441-7.10242zM44.20136 88.47115a1.139 1.139 0 0 1-.10791-.10388 1.08686 1.08686 0 0 0 .21582.20789v-.00006a1.03929 1.03929 0 0 1-.10791-.10395zm88.99134-6.16241q2.72872.436 5.36541 1.1142-2.63451-.6763-5.36541-1.1142zM41.45942 97.83547c-.1626.73883-.3158 1.47724-.45068 2.21472a55.94531 55.94531 0 0 0-.86127 7.57984 55.94321 55.94321 0 0 1 .86133-7.57977c.13488-.73755.28802-1.47596.45062-2.21479zm7.75244-18.24011c-.62915.98529-1.2326 1.98938-1.79071 3.0268-.53046.98584-1.04944 1.97784-1.56531 2.97143.51587-.99359 1.03485-1.98559 1.56531-2.97137.55811-1.03742 1.16156-2.04157 1.79071-3.02686zM45.39228 134.351q.72537 1.66762 1.545 3.3266 1.69392 3.42973 3.59345 6.62817-1.89907-3.19876-3.59345-6.62824-.81928-1.65886-1.545-3.32653zm32.04822 38.28031a91.74827 91.74827 0 0 0 9.36255 5.38861l2.0484.93054-2.04834-.9306a91.74877 91.74877 0 0 1-9.36261-5.38855zm127.30066-43.86609c.28161-.83917.54669-1.68335.789-2.53424.32977-1.15814.607-2.33179.86285-3.51178-.25586 1.17993-.53314 2.35364-.86291 3.51178-.24225.85089-.50733 1.69507-.78894 2.53424zM127.6518 81.68691q-1.405-.092-2.828-.11914c-.38245-.0072-.76141-.02759-1.14569-.02759.38428 0 .76324.02039 1.14569.02765q1.42283.02683 2.828.11908zM62.84791 64.15164a74.88706 74.88706 0 0 0-5.77649 5.38769l-.00006.00006.00012-.00006a74.89725 74.89725 0 0 1 5.77643-5.38769zm93.92944 116.04394v.00006c.334-.1485.67316-.28656 1.00543-.43854l2.9455-1.42016-2.94556 1.42016c-.33221.15204-.67132.29004-1.00537.43848zm5.23792-129.93164c2.03991.81287 4.03259 1.71924 5.99817 2.67316-1.96558-.95398-3.95826-1.86029-5.99817-2.67316zm-20.31379-5.60584a100.10916 100.10916 0 0 1 15.22339 3.76545 100.11267 100.11267 0 0 0-15.22339-3.76545zm15.09406 135.50354a56.86629 56.86629 0 0 0 5.0423-3.87066 56.87769 56.87769 0 0 1-5.0423 3.87066zm10.65582-79.02709a55.96053 55.96053 0 0 0-4.809-4.88569q-1.7916-1.60234-3.72363-3.05627 1.93029 1.4523 3.72363 3.05634a55.95974 55.95974 0 0 1 4.809 4.88562zm-14.61383-11.93818a57.88522 57.88522 0 0 0-14.27942-5.77343 57.89142 57.89142 0 0 1 14.27942 5.77343zM208.237 189.78793c-.45429-.09473-.9093-.1828-1.36457-.26978v.0202c.46457.08252.92189.16571 1.36457.24958z" class="cls-1"/><path d="M206.87244 163.60891v24.30414c1.50275.17328 2.99006.36243 4.45295.56763s2.90124.42657 4.306.66436c.32489.05506.65014.10718.97485.16492.25464.04535.50983.08472.76459.12939.04309.00757.0863.01386.12939.02192.7.13031 1.42621.259 2.1496.41247a11.19961 11.19961 0 0 1 4.91992 2.02936 5.65416 5.65416 0 0 1 .73224.73566 1.52749 1.52749 0 0 1 0 1.59491 12.57388 12.57388 0 0 1-.80048 1.24347 15.133 15.133 0 0 1-1.44458 1.67083 21.22934 21.22934 0 0 1-1.61828 1.49787q-.57194.47351-1.17047.9209c-1.19367.8974-2.44623 1.7323-3.66193 2.57452q-.48368.335-.97485.66125c-.08826.05878-.17457.12-.26319.17841-.89868.5943-1.81018 1.16107-2.72156 1.728h27.3993v-41.34586h-33.1735zM240.04591 8.55209h-77.40357v27.88745a87.53841 87.53841 0 0 1 7.74072 5.28985h36.48938v29.57245a62.52928 62.52928 0 0 1 4.51789 8.93781c.34668.845.67077 1.70245.98456 2.56555.379 1.04224.74029 2.094 1.07251 3.1618h26.59851zM33.93763 203.78622c-.07361-.04706-.14728-.09394-.22064-.14154-.18372-.11945-.365-.24408-.54828-.36444-.54657-.35889-1.09338-.71759-1.63513-1.08686-.6864-.46777-1.36505-.94574-2.03034-1.43988a30.86072 30.86072 0 0 1-5.47247-5.04626 9.95745 9.95745 0 0 1-.60938-.80823 4.85209 4.85209 0 0 1-.40344-.71521 2.44213 2.44213 0 0 1-.19378-.63653 1.64008 1.64008 0 0 1-.01709-.29322 1.46908 1.46908 0 0 1 .27337-.80108 4.86622 4.86622 0 0 1 2.04981-1.40937q.51268-.22951 1.03393-.42852c.69477-.26606 1.4-.49415 2.11273-.69257q.53449-.14886 1.07435-.27655c.71948-.171 1.44494-.31647 2.17358-.445q.54639-.09632 1.09485-.181.54822-.08514 1.09723-.16174c.07361-.01038.14709-.02033.2207-.03046s.14709-.02051.22064-.03045c.135-.01844.27-.038.405-.056 2.14557-.28522 4.29437-.49958 6.4455-.66907v-24.70918H7.82771v41.34589H35.3946c-.41248-.25977-.826-.51685-1.23627-.78107q-.11022-.07104-.2207-.14166zM40.05689 73.5173c.30933-.56781.62915-1.12494.95185-1.67914V41.72939H77.862c2.0791-1.57629 4.19983-3.06976 6.37726-4.45123.32757-.20788.66192-.4024.992-.60535V8.552H7.82771v77.415H34.66c.1062-.31909.20374-.63983.314-.95819q1.013-2.92437 2.28-5.798 1.26881-2.87323 2.80289-5.69351z" class="cls-1"/><path d="M41.0088 189.7557v-.2747a25.62755 25.62755 0 0 0-3.40619.98071c1.05115-.24062 2.18402-.47609 3.40619-.70601zm165.86358-90.47186q-.265-1.36194-.59448-2.71161-.658-2.69963-1.56079-5.35388-.4498-1.3276-.957-2.64521c-.63184-1.23339-1.25488-2.47143-1.88861-3.70361-.324-.63-.64472-1.26178-.9834-1.88379q-1.04526-1.91967-2.22852-3.7384a75.36591 75.36591 0 0 0-8.06494-10.20215q-1.49944-1.54422-3.08246-2.99561a79.90473 79.90473 0 0 0-15.54339-11.06634q-1.9486-1.07237-3.95538-2.04614c-1.96558-.95392-3.95826-1.86029-5.99817-2.67316-1.67261-.66644-3.37506-1.26868-5.0904-1.84039a100.10916 100.10916 0 0 0-15.22339-3.76545c-1.83715-.3056-3.683-.56842-5.53851-.77606q-4.09479-.45822-8.22613-.6018c-.074-.00251-.14765-.00934-.22162-.01172-.45307-.00983-.90491-.0232-1.35962-.02753-.5647-.011-1.12964-.00787-1.69446-.00983l-.00977-.00006q-2.14635.01144-4.26947.09839-2.12237.08779-4.21716.25641a107.92027 107.92027 0 0 0-18.60043 3.1501q-2.97537.77809-5.8581 1.71417-4.44753 1.44278-8.65277 3.23944-1.83049.80906-3.61908 1.69415a85.86513 85.86513 0 0 0-10.28662 5.99944q-3.26981 2.23-6.2998 4.76844a74.89725 74.89725 0 0 0-5.77643 5.38769l-.00012.00006c-.90753 1.014-1.80243 2.03748-2.67468 3.07758s-1.72217 2.097-2.53949 3.17761c-.53913.71277-1.05768 1.44061-1.56574 2.17621q-.55389.8019-1.07959 1.62457c-.62915.98529-1.2326 1.98944-1.79071 3.02686-.53046.98578-1.04944 1.97778-1.56531 2.97137s-1.02862 1.98889-1.54657 2.98145a1.033 1.033 0 0 1-.10791-.10389 1.03929 1.03929 0 0 0 .10791.104v.00006c-.043.10815-.07977.216-.12213.32416q-.76959 1.96663-1.39414 3.92768-.28767.90573-.54065 1.80994c-.2992 1.06768-.5586 2.1336-.79291 3.19848-.1626.73883-.31574 1.47724-.45062 2.21479a55.94321 55.94321 0 0 0-.86133 7.57977q-.056 1.25866-.05457 2.514a55.57484 55.57484 0 0 0 .48957 7.24426c.02887.21789.06134.43555.09277.65326.10065.697.20691 1.39349.33356 2.08862.25213 1.38373.54651 2.76441.89917 4.14081q.43359 1.69189.96637 3.3761a68.84162 68.84162 0 0 0 2.51794 6.70392q.72537 1.66762 1.545 3.32653 1.69392 3.42975 3.59345 6.62824 1.89916 3.19868 4.00128 6.16791c1.01294 1.43115 2.07318 2.80847 3.15588 4.16034 1.16382 1.45306 2.35535 2.87451 3.59894 4.23651q1.20025 1.31451 2.44971 2.57275a84.60073 84.60073 0 0 0 6.42444 5.81427c1.41449 1.15924 2.85565 2.28772 4.34692 3.35809q1.4425 1.03546 2.93262 2.01569a91.74877 91.74877 0 0 0 9.36261 5.38855l2.04834.9306q-2.28223-1.68364-4.37531-3.577a55.928 55.928 0 0 1-3.97491-3.97528 54.54691 54.54691 0 0 1-6.61475-9.01837 52.24531 52.24531 0 0 1-6.95324-21.419q-.12012-1.246-.18659-2.50641-.06491-1.26049-.06653-2.53625a51.90686 51.90686 0 0 1 1.66559-13.063 52.5545 52.5545 0 0 1 2.48688-7.31275c8.45294-19.93341 28.9212-34.00226 52.84552-34.00226.38428 0 .76324.02039 1.14569.02759q1.42282.02684 2.828.11914 2.80994.184 5.5409.62183 2.72872.436 5.36541 1.1142a57.88522 57.88522 0 0 1 14.27942 5.77343q1.06.60406 2.08991 1.25025 2.05929 1.29209 3.99127 2.746 1.93029 1.4523 3.72363 3.05627a55.96053 55.96053 0 0 1 4.809 4.88569 54.81147 54.81147 0 0 1 4.28913 5.559c.6994 1.0437 1.34814 2.12 1.9732 3.21063a52.74273 52.74273 0 0 1 4.18128 9.2005 51.89193 51.89193 0 0 1 2.06738 8.191q.23483 1.404.39374 2.83136a52.42261 52.42261 0 0 1 .31988 5.79113v.00007c0 .48968-.02508.97351-.03863 1.46008a52.09286 52.09286 0 0 1-5.35779 21.62805 53.73348 53.73348 0 0 1-4.8888 8.05206 55.31328 55.31328 0 0 1-6.21441 7.10242q-1.13736 1.09616-2.3385 2.13019a56.86629 56.86629 0 0 1-5.0423 3.87066l-.01819.03394c.334-.14844.67316-.28644 1.00537-.43848l2.94556-1.42016q2.14334-1.08115 4.23163-2.27521 2.08813-1.19439 4.12018-2.50384a88.96894 88.96894 0 0 0 24.5169-23.22071c.51422-.72088 1.04016-1.43072 1.53418-2.17041 1.27423-1.90777 2.48908-3.87109 3.6272-5.90576q1.49908-2.67984 2.77344-5.42755 1.274-2.74777 2.32055-5.56366c.30884-.83112.60712-1.66534.8888-2.50458s.54669-1.68335.78894-2.53424c.32977-1.15814.607-2.33185.86291-3.51178.16907-.77972.33435-1.56061.47937-2.34741.1211-.65711.22711-1.31867.32886-1.98151.14227-.92657.27063-1.85718.37122-2.796q.12927-1.20776.20868-2.43023.07863-1.22269.1029-2.46119a54.16167 54.16167 0 0 0-1.01168-11.41909z" class="cls-1"/><path d="M68.34571 122.85519a52.54665 52.54665 0 0 1 2.48688-7.31275 52.5545 52.5545 0 0 0-2.48688 7.31275zm112.29163 14.52307a52.094 52.094 0 0 1-5.35779 21.62805 52.09286 52.09286 0 0 0 5.35779-21.62805zm-2.74234-18.27362a51.89683 51.89683 0 0 1 2.06738 8.191 51.89193 51.89193 0 0 0-2.06738-8.191zm-4.18131-9.2005a52.74716 52.74716 0 0 1 4.18128 9.2005 52.74273 52.74273 0 0 0-4.18128-9.2005zm6.96231 26.01404c0 .48968-.02514.97351-.03863 1.46008.01352-.48657.03863-.9704.03863-1.46008zm-13.22464-34.78363a54.82483 54.82483 0 0 1 4.28913 5.559 54.81147 54.81147 0 0 0-4.28913-5.559zm-86.95013 70.26367a55.928 55.928 0 0 0 3.97491 3.97528 55.928 55.928 0 0 1-3.97491-3.97528zm-13.75458-32.94379q.0649 1.26049.18659 2.50641a52.24531 52.24531 0 0 0 6.95324 21.419 52.24552 52.24552 0 0 1-6.95318-21.419q-.12012-1.24612-.18665-2.50641z" class="cls-1"/><path d="M68.34571 122.85519a51.90686 51.90686 0 0 0-1.66559 13.063q0 1.27587.06653 2.53625-.06491-1.26049-.06647-2.53632a51.9067 51.9067 0 0 1 1.66553-13.06293z" class="cls-1"/><path d="M212.37489 82.8052c-.31385-.8631-.63788-1.72058-.98456-2.56555a62.52262 62.52262 0 0 0-4.518-8.93775A58.0276 58.0276 0 0 0 193.1081 55.854a40.69379 40.69379 0 0 0-8.395-5.20874 29.37536 29.37536 0 0 0-5.67358-1.90143 1.14684 1.14684 0 0 1-.6358-.227 5.19325 5.19325 0 0 1-.5152-.4541q-3.61415-3.3599-7.5055-6.33332a87.53841 87.53841 0 0 0-7.74072-5.28985V8.55209H85.23127v28.12079c-.33008.20282-.66443.3974-.992.60528-2.17749 1.38153-4.2981 2.875-6.37726 4.45123q-1.09782.8323-2.181 1.69361-1.08261.8626-2.14667 1.7622c-.73071.619-1.425 1.28748-2.15393 1.91279a12.24241 12.24241 0 0 1-2.36141 1.65362 3.47708 3.47708 0 0 0-.80432.04926 7.04428 7.04428 0 0 0-1.502.48675c-.24371.10217-.48577.2074-.72888.30475q-2.0754.831-4.01141 1.81665a47.29129 47.29129 0 0 0-7.21369 4.52252q-1.67321 1.27259-3.22094 2.68073A55.2805 55.2805 0 0 0 41.0088 71.83816v.00006c-.3227.55414-.64258 1.11127-.95191 1.67914q-1.536 2.81973-2.80292 5.69342-1.26882 2.8733-2.28 5.798c-.11029.3183-.20783.6391-.314.95825H7.82764v77.396h33.1811v-17.41525a72.37688 72.37688 0 0 0 8.94763 11.45154c9.69922 10.16619 21.38257 17.34661 34.45233 22.32116 2.24554.85462 4.51324 1.64264 6.80878 2.334q1.14769.3457 2.30493.658c.56256.81555 1.16748 1.59826 1.79114 2.36523.3684.45313.75219.89307 1.14093 1.32837.08319.09314.16345.18878.24755.28107a37.247 37.247 0 0 0 25.47077 12.17438q1.08362.06243 2.18335.06274c.17364 0 .34375-.01392.51672-.0163q1.53855-.021 3.04523-.16406 1.506-.14228 2.9754-.4021 1.46869-.259 2.8963-.63061a37.11864 37.11864 0 0 0 5.51776-1.90876q.6645-.29022 1.31537-.60516 1.30161-.62979 2.54578-1.35553 1.24338-.725 2.42462-1.54126.59023-.40778 1.16394-.83734.9278-.69462 1.80988-1.444a37.63059 37.63059 0 0 0 3.33233-3.20343q.78286-.85108 1.51337-1.75025l.00281-.00354c.62213-.76654 1.22149-1.74487 1.78235-2.55914.12719-.03619.2445-.07977.37091-.11658l25.30188-11.1076-.00055.0003.00061-.0003c.35443-.21814.70471-.44263 1.056-.66541.1214-.07959.24627-.1557.36712-.2359a86.41727 86.41727 0 0 0 8.92273-6.55072 82.49 82.49 0 0 0 8.089-7.78045c.49-.54035.98011-1.08051 1.45893-1.63739.09454-.11.18359-.22144.27734-.33167q1.63321-1.92114 3.08722-3.88818 1.45578-1.96656 2.74316-3.9762v17.15039h33.17353v-77.396H213.4474V85.967h-.00007c-.33215-1.06768-.69348-2.11956-1.07244-3.1618zm-69.3371 95.97687c1.33233-19.75244-5.77527-32.46656-20.66944-41.05115a30.04743 30.04743 0 0 1 8.80561-.30994 21.9344 21.9344 0 0 1 3.18725.63648 19.2338 19.2338 0 0 1 5.74018 2.66937 21.86051 21.86051 0 0 1 5.87347 6.12933c6.44879 9.81403 4.5033 19.59021-2.93707 31.92591zm64.74335-65.618q-.07855 1.22259-.20868 2.43023c-.10059.93884-.22895 1.86945-.37122 2.796-.10175.66278-.2077 1.32434-.3288 1.98145-.145.78686-.31036 1.56769-.47943 2.34747-.25586 1.18-.53308 2.35364-.86285 3.51178-.24231.85089-.50739 1.69507-.789 2.53424s-.5799 1.67346-.88874 2.50464q-1.04616 2.81589-2.32061 5.5636-1.274 2.74777-2.77344 5.42755c-1.13812 2.03467-2.353 3.998-3.6272 5.90576-.494.73969-1.02 1.44953-1.53418 2.17041a88.96894 88.96894 0 0 1-24.5169 23.22071q-2.03184 1.30974-4.12018 2.50384-2.08813 1.19449-4.23163 2.27521l-2.9455 1.42016c-.33227.152-.67144.29-1.00543.43854v-.00006l-.00006.00006.01825-.034a37.43432 37.43432 0 1 0-64.73932.24476l-3.20477-1.45594-2.0484-.93054a91.74827 91.74827 0 0 1-9.36255-5.38861q-1.48994-.98034-2.93262-2.01569c-1.49127-1.07037-2.93237-2.19885-4.34692-3.35809a84.58924 84.58924 0 0 1-6.42444-5.81427q-1.24942-1.2582-2.44971-2.57275c-1.24359-1.362-2.43518-2.78345-3.59894-4.23651-1.0827-1.35187-2.14294-2.72919-3.15588-4.16034q-2.10168-2.96952-4.00128-6.16791-1.89907-3.19876-3.59345-6.62817-.8193-1.65894-1.545-3.3266a68.84162 68.84162 0 0 1-2.51794-6.70392q-.53247-1.68411-.96637-3.376c-.35266-1.3764-.647-2.75714-.89923-4.14093-.12665-.69513-.23285-1.39166-.3335-2.08856-.03143-.21771-.0639-.43537-.09277-.65326a55.56365 55.56365 0 0 1-.48957-7.24426q-.00146-1.25538.05457-2.514a55.94531 55.94531 0 0 1 .86127-7.57984c.13488-.73748.28808-1.47589.45068-2.21472.23431-1.06488.49371-2.13086.79291-3.19848q.25341-.90428.54065-1.80994.62274-1.96088 1.39416-3.92773c.04236-.10816.0791-.216.12213-.32416a1.08686 1.08686 0 0 1-.21582-.20789 1.139 1.139 0 0 0 .10791.10388 1.13932 1.13932 0 0 1-.10791-.10394 1.08012 1.08012 0 0 0 .21582.20783c.51795-.99256 1.0307-1.9878 1.54657-2.98145s1.03485-1.98559 1.56531-2.97143c.55811-1.03742 1.16156-2.04151 1.79071-3.0268q.52542-.82287 1.07959-1.62457c.50806-.7356 1.02661-1.46344 1.56574-2.17621.81732-1.08063 1.66711-2.13745 2.53949-3.17761s1.76715-2.0636 2.67468-3.07758l.00006-.00006a74.88706 74.88706 0 0 1 5.77649-5.38769q3.02463-2.53867 6.2998-4.76844a85.86983 85.86983 0 0 1 10.28662-5.99945q1.78785-.88513 3.619-1.69415l.0025-.001c2.79834-1.23651 5.67139-2.32434 8.59815-3.29059.92932-.3067 1.84912-.63641 2.78918-.91589a103.8361 103.8361 0 0 1 21.66069-3.95716c2.132-.1626 4.26953-.27106 6.40924-.30616.71277-.01165 1.42535.00977 2.1383.01227l.00977.00006c.56482.002 1.12976-.00116 1.69446.00977.45471.00439.90655.01776 1.35968.02759.074.00238.14758.00921.22156.01172q4.12663.1409 8.22613.6018c1.85547.20758 3.70136.47046 5.53851.77606a100.11267 100.11267 0 0 1 15.22339 3.76545c1.7154.57171 3.41779 1.17395 5.0904 1.84039 2.03991.81287 4.03259 1.71918 5.99817 2.67316q2.007.97411 3.95538 2.04614a79.904 79.904 0 0 1 15.54339 11.06634q1.58212 1.45138 3.08246 2.99561a75.36591 75.36591 0 0 1 8.06494 10.20215q1.1804 1.8209 2.22858 3.7384c.33869.622.6593 1.25379.98334 1.88379.63373 1.23224 1.25677 2.47022 1.88861 3.70355q.50674 1.31772.957 2.64527.89969 2.6553 1.56079 5.35388.329 1.34976.59454 2.71161a54.161 54.161 0 0 1 1.01166 11.419q-.02365 1.23871-.10299 2.46115z" class="cls-1"/><path d="M213.44733 85.967h.00007c-.33222-1.06775-.69355-2.11956-1.07251-3.1618.37896 1.04224.74029 2.09412 1.07244 3.1618zM84.23927 37.27816c-2.17743 1.38147-4.29816 2.87494-6.37726 4.45123 2.07916-1.57623 4.19977-3.0697 6.37726-4.45123zm-43.23053 34.56c-.3227.5542-.64252 1.11133-.95185 1.67914q-1.536 2.81982-2.80292 5.69348 1.26883-2.8733 2.80292-5.69342c.30933-.56787.62921-1.125.95191-1.67914v-.00006l-.00006.00012zM34.974 85.00881q1.013-2.92437 2.28-5.798-1.26885 2.87327-2.28 5.798zm98.8158 112.7024a37.11627 37.11627 0 0 0 5.51776-1.90876 37.11864 37.11864 0 0 1-5.51776 1.90876zm-5.8717 1.03271q1.506-.14228 2.9754-.4021-1.46868.25892-2.9754.4021zm-31.46362-12.33783c.08319.09314.16345.18872.24755.28107-.0841-.09229-.16436-.18793-.24755-.28107zm84.41632-15.1275l-25.30188 11.1076c9.18951-2.6748 16.215-6.92718 25.30133-11.1073zM156.92487 48.42355c1.71534.57171 3.41779 1.17395 5.0904 1.84039-1.67261-.66644-3.375-1.26868-5.0904-1.84039zm-29.20965-5.15503c.074.00238.14764.00921.22162.01172-.074-.00251-.14759-.00934-.22156-.01172-.45313-.00983-.905-.0232-1.35968-.02759-.5647-.01093-1.12964-.00781-1.69446-.00977.56482.002 1.12976-.00116 1.69446.00983.45471.00433.90655.0177 1.35962.02753zM49.21186 79.59536q.52542-.82278 1.07959-1.62457-.55389.8019-1.07959 1.62457zm-5.11841 8.77185a1.13932 1.13932 0 0 0 .10791.10394 1.033 1.033 0 0 0 .10791.10389 1.08012 1.08012 0 0 1-.21582-.20783zm-2.63403 9.46826c.23431-1.06488.49371-2.1308.79291-3.19848-.2992 1.06762-.5586 2.1336-.79291 3.19848zm163.25769-6.61712q-.4498-1.3276-.957-2.64527c-.63184-1.23333-1.25488-2.47131-1.88861-3.70355.63373 1.23218 1.25677 2.47022 1.88861 3.70361q.50678 1.31772.957 2.64521zM40.0929 110.144q-.00136-1.25529.05457-2.514-.05613 1.25869-.05457 2.514zm.58234 7.89753c-.03143-.21771-.0639-.43537-.09277-.65326.02887.21789.06134.43555.09277.65326zm20.61157 40.82898c-1.24359-1.362-2.43512-2.78345-3.59894-4.23651 1.16376 1.45306 2.35535 2.87451 3.59894 4.23651zm95.49048 21.32513l.00006-.00006.01819-.03394zM70.161 167.25753a84.60073 84.60073 0 0 1-6.42444-5.81427 84.58924 84.58924 0 0 0 6.42444 5.81427zM168.01344 52.9371q2.0071.974 3.95538 2.04614-1.94851-1.07224-3.95538-2.04614zM42.793 92.82705q.62274-1.96088 1.39416-3.92773-.7697 1.96668-1.39416 3.92773zM69.14771 59.3832a85.86513 85.86513 0 0 1 10.28662-5.99945 85.86983 85.86983 0 0 0-10.28662 5.99945zM44.30927 88.57516c-.043.10815-.07977.216-.12213.32416.04236-.10816.0791-.216.12213-.32416zm18.53864-24.42352q3.02454-2.53867 6.2998-4.76844-3.26971 2.22996-6.2998 4.76844zM136.163 43.882c1.85547.20764 3.70136.47046 5.53851.77606-1.83718-.30556-3.68307-.56844-5.53851-.77606zm70.23 78.8372c.16907-.77978.33441-1.56061.47943-2.34747.1211-.65711.227-1.31867.3288-1.98145-.10175.66284-.20776 1.3244-.32886 1.98151-.14501.7868-.31029 1.56769-.47937 2.34741zm-.1151-26.14697q.329 1.34976.59448 2.71161a54.16167 54.16167 0 0 1 1.01166 11.419q-.02363 1.23871-.1029 2.46119.07863-1.22269.103-2.46119a54.161 54.161 0 0 0-1.01166-11.419q-.26516-1.36194-.59458-2.71161zm-4.74609 40.26123q1.274-2.74777 2.32061-5.5636c.30884-.83118.60706-1.6654.88874-2.50464-.28168.83924-.58 1.67346-.8888 2.50458q-1.04607 2.81589-2.32055 5.56366zM83.05585 51.68856l-.0025.001q-1.83049.80906-3.619 1.69415 1.78785-.88513 3.61908-1.69415z" class="cls-1"/><path d="M216.60621 202.14126c1.2157-.84229 2.46826-1.67712 3.66193-2.57452q.59682-.4488 1.17047-.9209a21.24156 21.24156 0 0 0 1.61828-1.49787 15.14046 15.14046 0 0 0 1.44458-1.67083 12.57388 12.57388 0 0 0 .80048-1.24347 1.52749 1.52749 0 0 0 0-1.59491 5.65416 5.65416 0 0 0-.73224-.73566 11.2 11.2 0 0 0-4.91992-2.02936c-.72339-.1535-1.44959-.28216-2.14966-.41247-.043-.00806-.08624-.01435-.12933-.02192-.25476-.04467-.51-.084-.76459-.12933-.32465-.05786-.65-.10992-.97485-.165-1.40473-.23779-2.84314-.4591-4.306-.66436s-2.95026-.39435-4.453-.56763a154.58963 154.58963 0 0 0-21.71081-1.03638c-.087.0025-.17572.00134-.26258.004l3.16767.55243c3.45862.21252 6.91253.45947 10.35095.835 2.83124.30914 5.65082.71368 8.45477 1.25012h.00006c.45539.0871.91077.17517 1.36536.2699.13849.02881.27759.05261.416.08221.27124.05793.508.12226.81378.21167.22162.06476.43292.12427.63629.18451s.39886.12128.589.18915a4.83383 4.83383 0 0 1 1.09491.53748 5.83808 5.83808 0 0 1 1.37158.63848 2.18527 2.18527 0 0 1 .358.30842 1.53307 1.53307 0 0 1 .31446.51709 1.55709 1.55709 0 0 1 .09564.54058 1.53759 1.53759 0 0 1-.05158.402 1.60019 1.60019 0 0 1-.36328.6518 3.08967 3.08967 0 0 1-.59936.5025c-.33655.22467-.71161.41748-1.05054.61468-.14069.08185-.27435.15131-.40686.21442-.39752.18933-.78467.32129-1.32257.55926l-.80353.26636c-.83057.26526-1.64545.52735-2.45734.7746-.65618.19977-1.31134.38061-1.96807.54687-.44861.11359-.8974.22461-1.35022.31318-5.63184 1.10156-11.29328 1.9234-16.97327 2.5606s-11.37854 1.08991-17.0849 1.45313c-3.8042.24219-7.61182.44458-11.41962.6355-.04657.00225-.09326.00415-.13983.006s-.0932.00372-.13977.006c-1.70148.08337-3.404.15167-5.10632.21979q-5.86963.23465-11.74475.35339-5.8743.12242-11.749.151c-.39441.00214-.78894.01258-1.18335.01416q-3.56955.01438-7.13879-.00116-5.63-.02178-11.25867-.11981-11.257-.19931-22.50342-.757-5.62262-.28547-11.2409-.67718c-9.19232-.64368-18.36951-1.55231-27.46192-3.11133l-7.40087-1.78082-.02271-.00544s-1.30823-.35473-2.27325-.6474c-.32166-.09753-.60523-.18823-.78943-.25653-.30561-.11334-.59723-.21087-.88281-.321a5.79431 5.79431 0 0 1-.84656-.39661c-.31513-.18335-.65985-.36389-.97522-.57007a3.48666 3.48666 0 0 1-.57428-.45477 1.76873 1.76873 0 0 1-.3916-.57348 2.11288 2.11288 0 0 1-.12348-.57306 1.59 1.59 0 0 1 .02887-.23438 1.507 1.507 0 0 1 .09357-.35046 1.53583 1.53583 0 0 1 .26929-.423 2.48264 2.48264 0 0 1 .70514-.55395 5.85131 5.85131 0 0 1 .68847-.31171c.11835-.04584.23731-.08923.35486-.13116.44012-.19733.88605-.36658 1.333-.53095 1.05115-.24054 2.184-1.03222 3.40619-1.26214v.00006c3.23986-.60944 7.0683-.90106 11.39978-1.42383l9.1062-.51465q-1.25181.03909-2.50275.07092h.00001c-6.01508.16278-12.0191.26856-18.00317.74024-2.15119.16949-4.29993.38385-6.44556.66907-.135.01794-.27.03759-.40491.056-.07354.00994-.14715.02032-.2207.03045s-.14709.02008-.22064.03046q-.54886.07709-1.09729.16174-.54822.08514-1.09485.181c-.72858.12854-1.4541.274-2.17358.445q-.53962.12817-1.07435.27655c-.7127.19842-1.418.42651-2.11273.69257q-.52111.19949-1.03393.42852a4.86622 4.86622 0 0 0-2.04981 1.40937 1.46908 1.46908 0 0 0-.27337.80108 1.64008 1.64008 0 0 0 .01709.29322 2.44443 2.44443 0 0 0 .19378.63653 4.849 4.849 0 0 0 .40344.71521 9.95745 9.95745 0 0 0 .60938.80823 30.86712 30.86712 0 0 0 5.47247 5.04626c.66529.49414 1.34394.972 2.03034 1.43982.54168.36926 1.08844.72791 1.63513 1.08692.18329.12036.3645.24493.54822.36438.07336.0476.147.09454.2207.1416s.14716.0943.22064.1416c.41028.26428.82385.52136 1.23633.78113.27594.17376.55005.3518.82727.52264a148.244 148.244 0 0 0 26.73224 12.76367c.12787.04706.255.09607.38306.14276q3.97851 1.4545 8.03192 2.74744c3.67706 1.17639 7.38275 2.21893 11.11206 3.15186l.001.0003c.91308.2284 1.83288.42621 2.74908.6402a175.49659 175.49659 0 0 0 20.46832 3.55371l36.66181-.00354a174.47423 174.47423 0 0 0 20.28094-3.5022c1.73572-.40411 3.46948-.81775 5.19409-1.27356l.00025-.00006q4.64007-1.22653 9.22845-2.6947 3.853-1.23852 7.64008-2.62018c.12732-.04657.25372-.09521.38086-.142a149.59114 149.59114 0 0 0 26.7373-12.76367c.27649-.16974.54749-.35113.82318-.52264.91144-.567 1.82294-1.13367 2.72162-1.728.08862-.05841.17493-.11963.26319-.17841q.49036-.32747.97486-.66133z" class="cls-1"/><path d="M208.2378 189.78805c-.45459-.09473-.91-.1828-1.36536-.2699.45527.087.91028.175 1.36457.26978zm11.41199.08569a11.2 11.2 0 0 1 4.91992 2.02936 11.19961 11.19961 0 0 0-4.91992-2.02936zm4.85168 5.6034a15.14046 15.14046 0 0 1-1.44458 1.67083 15.133 15.133 0 0 0 1.44458-1.67083zm-4.85168-5.6034c-.72339-.15344-1.44959-.28216-2.1496-.41247-.04309-.00806-.0863-.01435-.12939-.02192.04309.00757.0863.01386.12933.02192.70007.13031 1.42627.25897 2.14966.41247zM31.52485 189.201c-.72864.12854-1.4541.274-2.17358.445.71948-.171 1.445-.31651 2.17358-.445zm-3.24793.72151c-.7127.19842-1.418.42651-2.11273.69257.69481-.26608 1.40003-.49415 2.11273-.69257zm-5.46984 3.33154a1.46908 1.46908 0 0 1 .27337-.80108 1.46908 1.46908 0 0 0-.27337.80108zm11.13055 10.53217c-.07367-.04706-.14734-.094-.2207-.1416-.18372-.11945-.36493-.244-.54822-.36438.18329.12036.36456.245.54828.36444.07336.0476.14701.09448.22064.14154zm0-14.9585c.07355-.01013.14716-.02051.2207-.03045.135-.01838.2699-.038.40491-.056-.135.01794-.27.03753-.405.056-.07352.00994-.14706.02032-.22061.03045zm.62561-.08642c2.14563-.28522 4.29437-.49958 6.44556-.66907h-.00006c-2.15113.16949-4.29993.38385-6.4455.66907zm-5.06 12.0122a30.86712 30.86712 0 0 1-5.47247-5.04626 30.86072 30.86072 0 0 0 5.47247 5.04626zm7.5373-5.18829a5.79431 5.79431 0 0 1-.84656-.39661 5.79431 5.79431 0 0 0 .84656.39661zm176.4721-1.51379a3.08967 3.08967 0 0 1-.59936.5025 3.08967 3.08967 0 0 0 .59936-.5025zm-179.2608-1.63904a1.53723 1.53723 0 0 1 .26929-.423 1.53583 1.53583 0 0 0-.26929.423zm179.58002.04468a1.53307 1.53307 0 0 0-.31446-.51709 2.18527 2.18527 0 0 0-.358-.30842 2.18559 2.18559 0 0 1 .358.30848 1.53281 1.53281 0 0 1 .31446.51703zm-61.14142 10.26727c1.70233-.06812 3.40484-.13642 5.10632-.21979.04657-.00232.09314-.00415.13977-.006-.04663.00189-.0932.00372-.13983.006-1.70136.08346-3.40393.15167-5.10626.21979zm56.6394-6.51575c-.83056.26532-1.64551.52741-2.45746.7746-.65619.19983-1.31128.38067-1.968.54693.65673-.16626 1.31189-.3471 1.96807-.54687.81189-.24725 1.62677-.50934 2.45734-.7746l.80353-.26636c.5379-.238.925-.36993 1.32257-.55926-.39752.18933-.78473.32129-1.32263.55926z" class="cls-1"/><path d="M208.23774 189.78805c.13849.02881.27765.05261.41608.08221-.13843-.0296-.27753-.0534-.416-.08221l-.00079-.00012zm-23.33874-2.90741c.08686-.00263.1756-.00147.26258-.004h-.00006c-.08687.00247-.17573.00136-.26252.004zm25.20489 3.3858c-.20337-.06024-.41467-.11975-.63629-.18451-.30579-.08941-.54254-.15374-.81378-.21167.27124.058.50793.12226.81372.21167.22162.06476.43292.12427.63635.18451zm-160.31928-1.98425l2.624-.22839 9.1062-.79273-9.1062.51465c-4.33148.52277-8.15992.81439-11.39978 1.42383v-.00006c-1.22217.22992-2.355 1.0216-3.40619 1.26214a25.63531 25.63531 0 0 1 3.40613-.98071c2.88198-.62671 5.84335-.85779 8.77584-1.19873z" class="cls-1"/><path d="M59.012 187.332q1.25126-.03378 2.50275-.07092-1.25171.03909-2.50269.07092zm-23.78573 4.10345a5.86113 5.86113 0 0 1 .68847-.31171 5.85131 5.85131 0 0 0-.68847.31171zM178.40376 48.51681a1.14684 1.14684 0 0 0 .6358.227 29.37536 29.37536 0 0 1 5.67358 1.90143 29.37974 29.37974 0 0 0-5.67358-1.90155 1.14628 1.14628 0 0 1-.6358-.22688zM95.31348 185.07778l-.05749.0022.05756-.00214zM41.009 41.737v-.008V71.838 41.737zm20.96336 9.672a47.29129 47.29129 0 0 0-7.21369 4.52252 47.29129 47.29129 0 0 1 7.21369-4.52252zm9.40802-4.311c.72888-.62531 1.42322-1.29383 2.15393-1.91279q1.06338-.90087 2.14667-1.7622-1.08261.8626-2.14667 1.76214c-.73071.61901-1.42505 1.28753-2.15393 1.91285zm-3.16571 1.70287a7.04428 7.04428 0 0 0-1.502.48675 7.04428 7.04428 0 0 1 1.502-.48675zM41.0088 71.838v.00012a55.2805 55.2805 0 0 1 10.52893-13.22585A55.281 55.281 0 0 0 41.0088 71.838zm.0002 0zm165.86338 117.70035v-.0202c-2.80395-.53644-5.62353-.94092-8.45477-1.25012q2.34027.29892 4.45441.61719 2.11398.31796 4.00036.65313z" class="cls-1"/><path d="M206.87238 189.53841v-.00006q-1.88616-.33489-4.00036-.65313 2.11386.31796 4.00036.65319zm-53.45953-4.47283c5.86023.19494 11.47638.44751 16.788.7514-5.31164-.30389-10.92773-.55652-16.788-.75147zm31.74866 1.81109h.00006c-3.48151-.30035-7.16834-.57525-11.035-.8222 3.8666.24695 7.55343.52185 11.03494.8222zm-29.80616-4.39673q1.96638-.55645 3.90625-1.20684-1.94027.64773-3.90576 1.20666zm10.32758-3.61084c-.84772.3429-1.68646.6991-2.54657 1.02356.85944-.32434 1.70654-.66839 2.54657-1.02356zm15.18793-7.59051l-.00061.0003c-4.98651 2.586-9.91333 5.36048-15.18732 7.59021a101.63072 101.63072 0 0 0 15.18793-7.59051z" class="cls-1"/><path d="M155.35535 182.47988l.00049-.00012.21308-.09357c-.12641.03681-.24372.08039-.37091.11658-.56086.81427-1.16022 1.7926-1.78235 2.55914.62195-.76593 1.22149-1.55017 1.78235-2.36444.05084-.07373.10699-.14337.15734-.21759zm3.90625-1.20678q1.94046-.64774 3.8581-1.37372l.01666-.00672-.01666.00666q-1.91821.72335-3.8581 1.37378z" class="cls-1"/><path d="M159.2616 181.2731q1.94046-.64774 3.8581-1.37378l.01666-.00666c.86011-.32446 1.69885-.68066 2.54657-1.02356 5.274-2.22973 10.20081-5.00421 15.18732-7.59021-9.08637 4.18012-16.11182 8.4325-25.30133 11.1073l-.21308.09357q1.9661-.55627 3.90576-1.20666zM97.56428 46.736a107.91478 107.91478 0 0 1 18.6004-3.15009q2.09409-.16947 4.21722-.25641 2.12238-.08779 4.26941-.09839h.00006c-.713-.0025-1.42553-.02392-2.1383-.01227-2.13971.0351-4.27722.14356-6.40924.30616a103.8361 103.8361 0 0 0-21.66065 3.95709c-.94006.27948-1.85986.60919-2.78918.91589-2.92676.96625-5.79981 2.05408-8.59815 3.29059q4.1945-1.80093 8.65033-3.2384 2.88153-.93485 5.8581-1.71417z" class="cls-1"/><path d="M97.56428 46.736a107.92027 107.92027 0 0 1 18.60046-3.15009q2.09409-.16947 4.21716-.25641-2.12246.08779-4.21722.25641a107.91478 107.91478 0 0 0-18.6004 3.15009zm-5.8581 1.71416q-4.44626 1.44233-8.65033 3.2384l-.00244.001q4.19559-1.80156 8.65277-3.2394zm28.67572-5.12067q2.12238-.08779 4.26947-.09839h-.00006q-2.14626.01144-4.26941.09839zm157.23275 129.96007c.65039 6.20563 3.1401 11.67111 9.98231 11.67111 6.59642 0 9.04194-4.13156 9.04194-9.69923 0-6.14764-3.02687-9.72133-12.48859-14.23677-12.8131-6.08964-17.8298-11.46951-17.8298-22.58552 0-12.00391 7.71216-20.20214 21.24607-20.20214 16.8342 0 20.98509 11.388 21.206 21.13008h-13.12929c-.42945-4.27793-1.53552-10.57194-8.31145-10.57194-5.30255 0-7.6735 3.44113-7.6735 8.52 0 5.38539 2.39719 7.90686 11.16986 11.98319 13.4262 6.20564 19.45232 12.23175 19.45232 24.75625 0 11.74844-7.27719 21.46425-23.08539 21.46425-17.20565 0-22.44881-11.01382-22.91831-22.22925zm35.25086-36.29204h7.50227v-14.30168h13.19974v14.30168h8.839v10.83707h-8.839v31.32919c0 3.32514.6062 5.21417 4.72534 5.21417a14.98712 14.98712 0 0 0 3.25609-.23475v9.713c-2.42481 1.03842-6.01369 1.16269-8.07533 1.16269-9.151 0-13.10584-3.38037-13.10584-13.66509v-33.51921h-7.50227zm76.96972 28.14214c0 20.77658-7.62793 30.19964-21.68795 30.19964-13.84737 0-21.32617-8.995-21.32617-29.89309 0-20.2767 8.5255-29.42911 22.01936-29.42911 13.71481 0 20.99476 9.95884 20.99476 29.12256zm-29.67767.22094c0 12.28975 2.0575 18.94554 8.36531 18.94554 5.946 0 7.97315-6.58675 7.97315-18.77708 0-12.65982-2.09892-18.3849-8.06981-18.3849-5.90736 0-8.26865 5.94326-8.26865 18.21644zm38.67818-8.96185c0-9.40649 0-15.32214-.11323-19.40123h12.6184a88.44515 88.44515 0 0 1 .3176 9.42306c2.15415-6.479 7.2109-10.37862 15.00177-10.38967v14.80845c-9.35678-.21265-14.61237 2.53252-14.61237 13.36407v30.04222h-13.21217zm72.4018 25.37764c0 2.81421.23475 9.88979.44188 12.46926h-12.00529a33.13687 33.13687 0 0 1-.55235-5.32464c-2.18453 3.64-5.9405 6.31886-12.90837 6.31886-11.0083 0-15.24205-8.76852-15.24205-16.97089 0-11.72359 8.04219-18.824 22.57171-18.824 1.92769 0 3.39418 0 4.68943.12428v-6.24982c0-3.33618-.4253-7.24405-6.15868-7.24405-5.48758 0-6.12554 3.61236-6.457 7.37385h-12.53c.22094-8.42607 4.17575-17.43211 19.48961-17.43211 12.28974 0 18.66108 5.57319 18.66108 16.5014zm-12.70125-12.635a25.0364 25.0364 0 0 0-4.27241-.23475c-7.523 0-10.25987 3.49913-10.25987 8.16923 0 3.4798 1.67638 7.42632 6.57295 7.42632 6.74417 0 7.95933-5.04017 7.95933-13.53529zm64.48113 20.47561c0 16.24732-4.71429 26.1813-22.02212 26.1813-16.28875 0-19.74921-9.58048-20.08062-16.5594h13.14313c.22093 1.74266.83128 5.82175 7.43736 5.82175 7.15291 0 8.5034-5.41853 8.5034-15.44365v-2.574c-2.17349 4.66458-6.56465 6.81321-12.24279 6.81321-12.18757 0-17.36859-10.699-17.36859-27.57046 0-19.59731 7.06177-30.26868 18.58651-30.26868 7.534 0 10.1135 3.56541 11.02487 6.04269.08286-1.72056.3176-3.67588.52473-5.06227h12.70125c-.11047 3.51846-.20713 9.25735-.20713 17.23879zm-29.0977-23.72059c0 11.80091 2.85288 16.819 8.19961 16.819 6.65855 0 8.08637-6.36581 8.08637-18.60585 0-10.28472-.51368-16.85214-7.68868-16.85214-5.52348-.00003-8.5973 5.7582-8.5973 18.63896zm51.36009 3.1594c0 7.26338.88928 15.34975 8.21342 15.34975 6.58675 0 7.42632-5.60081 7.66107-7.53679h12.64325c-.20989 1.80066-1.49134 18.47053-20.49764 18.47053-18.56166 0-21.14941-15.60108-21.14941-30.08089 0-18.15568 6.8933-29.24131 21.409-29.24131 16.60911 0 20.67992 12.4306 20.67992 27.37162 0 1.9995-.09666 4.68943-.20713 5.66709zm15.927-9.55839c0-5.57043-.649-12.64325-7.66107-12.64325-7.57545 0-8.03114 8.50893-8.05876 12.64325zM277.61465 79.90913c.65039 6.20563 3.1401 11.67112 9.98231 11.67112 6.59642 0 9.04194-4.13157 9.04194-9.69924 0-6.14763-3.02687-9.72133-12.48859-14.23677-12.8131-6.08964-17.8298-11.46951-17.8298-22.58552 0-12.0039 7.71216-20.20213 21.24607-20.20213 16.8342 0 20.98509 11.388 21.206 21.13008h-13.12929c-.42945-4.27794-1.53552-10.57195-8.31145-10.57195-5.30255 0-7.6735 3.44113-7.6735 8.52 0 5.3854 2.39719 7.90687 11.16986 11.9832 13.4262 6.20563 19.45232 12.23175 19.45232 24.75624 0 11.74845-7.27719 21.46425-23.08539 21.46425-17.20565 0-22.44881-11.01382-22.91831-22.22925zm55.60351-53.87466v74.83075h-13.42068V26.03447zm57.71072 74.83075H380.716a58.56338 58.56338 0 0 1-.63658-6.36857c-3.34033 5.92393-8.54068 7.65554-14.86093 7.65554-15.63007 0-21.28474-13.91917-21.28474-38.2363 0-27.31776 9.22008-39.07173 25.29341-39.07173 20.2767 0 21.39659 17.37825 21.61753 21.81637h-13.23983c-.22094-3.01858-.87133-10.47942-8.77957-10.47942-8.63459 0-11.04144 11.50679-11.04144 27.70992 0 17.44592 2.05335 27.02088 10.58989 27.02088 7.1032 0 9.24493-5.4434 9.24493-16.46827v-4.19508h-10.07621V58.815h23.38642z" class="cls-1"/></svg>