<svg id="Layer_1" data-name="Layer 1" xmlns="http://www.w3.org/2000/svg" viewBox="0 0 419.64001 115.79238"><defs><style>.cls-1{fill:#231f20;}.cls-2{fill:#416ba9;}.cls-3{fill:#73c3d5;}.cls-4{fill:#fff;}</style></defs><path class="cls-1" d="M103.104,33.19939a9.88189,9.88189,0,0,0,8.07081-3.90646l4.29258,4.42178q-5.10891,5.75316-12.04138,5.75218A15.66981,15.66981,0,0,1,92.0074,35.0885a14.79537,14.79537,0,0,1-4.48634-11.05417,14.936,14.936,0,0,1,4.57216-11.14A15.40025,15.40025,0,0,1,103.27606,8.4302a15.84988,15.84988,0,0,1,12.3629,5.62348l-4.1639,4.72208a9.75712,9.75712,0,0,0-7.89872-3.94936,9.20724,9.20724,0,0,0-6.4608,2.468,8.60027,8.60027,0,0,0-2.683,6.6541,9.07712,9.07712,0,0,0,2.53314,6.7182A8.35648,8.35648,0,0,0,103.104,33.19939Z"/><path class="cls-1" d="M120.74764,39.12371V9.11711h6.69651V33.15647h12.7929v5.96724Z"/><path class="cls-1" d="M169.5567,34.981a16.3504,16.3504,0,0,1-22.40865,0,14.822,14.822,0,0,1-4.55-11.05367,14.82379,14.82379,0,0,1,4.55-11.05417,16.349,16.349,0,0,1,22.40865,0,14.82606,14.82606,0,0,1,4.55047,11.05417A14.82425,14.82425,0,0,1,169.5567,34.981Zm-2.27524-11.03248a9.81892,9.81892,0,0,0-2.57555-6.84691,8.49169,8.49169,0,0,0-12.6637,0,9.81711,9.81711,0,0,0-2.576,6.84691,9.73982,9.73982,0,0,0,2.576,6.8257,8.53524,8.53524,0,0,0,12.6637,0A9.74163,9.74163,0,0,0,167.28146,23.94853Z"/><path class="cls-1" d="M187.71468,31.37535a5.48144,5.48144,0,0,0,4.50658,2.08192,5.42523,5.42523,0,0,0,4.48735-2.08192,8.918,8.918,0,0,0,1.65293-5.68808V9.11711h6.69651V25.90176q0,6.52614-3.60566,10.02356a13.92269,13.92269,0,0,1-18.48148-.02121q-3.6281-3.51936-3.62736-10.00235V9.11711h6.697V25.68727A8.82891,8.82891,0,0,0,187.71468,31.37535Z"/><path class="cls-1" d="M234.93492,13.04477q4.29159,3.92768,4.29306,10.92547,0,6.99731-4.18557,11.07537-4.18507,4.07856-12.77168,4.07806H212.011V9.11711h10.604Q230.64186,9.11711,234.93492,13.04477Zm-4.91538,17.83647q2.46756-2.31813,2.46854-6.73941a9.02123,9.02123,0,0,0-2.46854-6.804q-2.469-2.3825-7.57623-2.38274h-3.73485v18.2443h4.24966Q227.55148,33.19939,230.01954,30.88124Z"/><path class="cls-1" d="M277.34776,9.11711h6.69748v30.0066h-6.69748L263.05332,20.32118V39.12371h-6.69748V9.11711h6.26749L277.34776,28.4344Z"/><path class="cls-1" d="M312.8057,39.12371l-2.79-6.482H297.43726l-2.79,6.482h-7.1265l12.965-30.00656h6.48147l12.965,30.00656ZM303.74818,18.046l-3.77826,8.71433H307.483Z"/><path class="cls-1" d="M333.92683,14.91219V39.12371h-6.69748V14.91219H318.73V9.11711h23.69614V14.9122Z"/><path class="cls-1" d="M347.31886,9.11711h6.69751v30.0066h-6.69751Z"/><path class="cls-1" d="M372.47465,28.2199,380.116,9.11711h7.25567l-12.06357,30.0066h-5.66589L357.57862,9.11711h7.25571Z"/><path class="cls-1" d="M412.56886,9.11711v5.9667H397.63044V21.2655h13.4364v5.70929h-13.4364v6.2246h15.41083v5.92432H390.93293V9.11711Z"/><path class="cls-1" d="M95.42617,64.67888a5.5397,5.5397,0,0,0,4.52389-2.18944l2.4064,2.4784a9.078,9.078,0,0,1-12.792,1.088q-.18336-.15461-.35836-.31874a8.88945,8.88945,0,0,1,.04783-12.44032,8.63123,8.63123,0,0,1,6.26844-2.50308,8.88533,8.88533,0,0,1,6.93024,3.153l-2.33392,2.647a5.46873,5.46873,0,0,0-4.42768-2.214,5.16018,5.16018,0,0,0-3.62143,1.38367,4.82066,4.82066,0,0,0-1.504,3.72992,5.08683,5.08683,0,0,0,1.41967,3.7654A4.68464,4.68464,0,0,0,95.42617,64.67888Z"/><path class="cls-1" d="M119.10406,65.677a9.16253,9.16253,0,0,1-12.56113,0,8.80156,8.80156,0,0,1,0-12.392,9.16251,9.16251,0,0,1,12.56113,0A8.80036,8.80036,0,0,1,119.10406,65.677Zm-1.2752-6.18367a5.50517,5.50517,0,0,0-1.44384-3.83841,4.76108,4.76108,0,0,0-7.09889,0,5.80852,5.80852,0,0,0,0,7.664,4.785,4.785,0,0,0,7.09889,0,5.45858,5.45858,0,0,0,1.44387-3.8256Z"/><path class="cls-1" d="M139.89481,57.41135l-4.548,9.19264h-2.23825l-4.52383-9.19264V67.99952h-3.7536V51.17935h5.07713l4.33153,9.24,4.35568-9.24h5.053V67.99952h-3.75358Z"/><path class="cls-1" d="M159.37386,52.68336a5.73259,5.73259,0,0,1,1.7688,4.62049,5.47273,5.47273,0,0,1-1.81663,4.55934q-1.8174,1.44384-5.54656,1.44385h-2.23825v4.69248h-3.7536V51.17935h5.94353Q157.60481,51.17935,159.37386,52.68336Zm-2.755,6.61761a3.238,3.238,0,0,0,.6736-2.21409,2.3447,2.3447,0,0,0-.87824-2.06911,4.82532,4.82532,0,0,0-2.73135-.61443h-2.1416v5.655H154.068a3.35179,3.35179,0,0,0,2.55082-.75737Z"/><path class="cls-1" d="M168.52953,63.65616a3.07329,3.07329,0,0,0,2.52674,1.16671,3.04024,3.04024,0,0,0,2.51488-1.16671,4.99723,4.99723,0,0,0,.92607-3.18848V51.17935h3.75409V60.588a7.46769,7.46769,0,0,1-2.02124,5.61854,7.80175,7.80175,0,0,1-10.35938-.01183,7.45361,7.45361,0,0,1-2.03311-5.60672V51.17935h3.75359V60.4677A4.95289,4.95289,0,0,0,168.52953,63.65616Z"/><path class="cls-1" d="M189.27194,54.428V67.99952h-3.75409V54.428h-4.76448V51.17935H194.0369V54.428Z"/><path class="cls-1" d="M196.77963,51.17935h3.75457V67.99952h-3.75457Z"/><path class="cls-1" d="M216.43914,51.17935h3.75359V67.99952h-3.75359L208.42606,57.4597V67.99952h-3.75459V51.17935h3.51395l8.25377,10.82881Z"/><path class="cls-1" d="M235.25642,59.43312h3.77727v5.96767a8.83042,8.83042,0,0,1-6.93024,2.791,8.554,8.554,0,0,1-6.22016-2.45472,8.88885,8.88885,0,0,1,.04833-12.44032,8.5282,8.5282,0,0,1,6.18465-2.50305,9.15078,9.15078,0,0,1,6.29214,2.38273l-1.94879,2.81569a7.46343,7.46343,0,0,0-2.08193-1.36,5.58723,5.58723,0,0,0-2.05728-.37279,4.92673,4.92673,0,0,0-3.6096,1.45567,5.81134,5.81134,0,0,0-.06017,7.65217,4.54524,4.54524,0,0,0,3.35714,1.432,6.45174,6.45174,0,0,0,3.24864-.74559Z"/><path class="cls-1" d="M260.28205,51.17935v3.297h-7.79614v3.63327h7.41153v3.297h-7.41151v6.593h-3.75458V51.17935Z"/><path class="cls-1" d="M277.60713,65.677a9.16191,9.16191,0,0,1-12.56064,0,8.79917,8.79917,0,0,1,0-12.392,9.16189,9.16189,0,0,1,12.56064,0A8.80159,8.80159,0,0,1,277.60713,65.677Zm-1.27521-6.18367a5.50514,5.50514,0,0,0-1.44385-3.83841,4.7612,4.7612,0,0,0-7.09888,0,5.807,5.807,0,0,0,0,7.664,4.78494,4.78494,0,0,0,7.09888,0,5.45859,5.45859,0,0,0,1.44388-3.8256Z"/><path class="cls-1" d="M287.78605,63.65616a3.07452,3.07452,0,0,0,2.52673,1.16671,3.04026,3.04026,0,0,0,2.5149-1.16671,4.997,4.997,0,0,0,.92605-3.18848V51.17935h3.75458V60.588a7.46975,7.46975,0,0,1-2.02179,5.61855,7.80172,7.80172,0,0,1-10.35934-.01183,7.45183,7.45183,0,0,1-2.0336-5.60672V51.17935h3.75457V60.4677A4.953,4.953,0,0,0,287.78605,63.65616Z"/><path class="cls-1" d="M313.17259,51.17935h3.7536V67.99952h-3.7536L305.15946,57.4597V67.99952h-3.75457V51.17935h3.51391l8.25379,10.82881Z"/><path class="cls-1" d="M333.915,53.38061a7.88816,7.88816,0,0,1,2.4064,6.1245,8.26668,8.26668,0,0,1-2.34625,6.20832q-2.34627,2.28706-7.159,2.28608h-5.75168V51.17935h5.944Q331.5086,51.17935,333.915,53.38061ZM331.15946,63.379a4.93376,4.93376,0,0,0,1.3837-3.77726,5.05774,5.05774,0,0,0-1.3837-3.81474,5.92034,5.92034,0,0,0-4.24768-1.33533H324.819V64.67888h2.38174A5.56475,5.56475,0,0,0,331.15946,63.379Z"/><path class="cls-1" d="M351.07246,67.99952l-1.56415-3.63327h-7.05057l-1.56415,3.63327h-3.99423l7.26752-16.82016h3.63327l7.26654,16.82016Zm-5.07712-11.815-2.11743,4.8848h4.21121Z"/><path class="cls-1" d="M362.91215,54.428V67.99952h-3.75458V54.428H354.393V51.17935h13.28354V54.428Z"/><path class="cls-1" d="M370.41834,51.17935h3.75458V67.99952h-3.75458Z"/><path class="cls-1" d="M392.46061,65.677a9.16191,9.16191,0,0,1-12.56064,0,8.79913,8.79913,0,0,1,0-12.392,9.16189,9.16189,0,0,1,12.56064,0A8.80159,8.80159,0,0,1,392.46061,65.677Zm-1.27521-6.18367a5.50508,5.50508,0,0,0-1.44384-3.83841,4.7612,4.7612,0,0,0-7.09888,0,5.807,5.807,0,0,0,0,7.664,4.785,4.785,0,0,0,7.09888,0A5.4585,5.4585,0,0,0,391.1854,59.49328Z"/><path class="cls-1" d="M409.95435,51.17935H413.708V67.99952h-3.75361L401.94123,57.4597V67.99952h-3.75458V51.17935h3.514l8.25379,10.82881Z"/><polygon class="cls-2" points="15.572 48.076 6.332 48.076 6.332 69.634 27.888 69.634 27.888 60.394 15.572 60.394 15.572 48.076"/><polygon class="cls-2" points="61.763 48.145 61.763 60.394 49.514 60.394 49.446 60.326 49.446 69.634 71.002 69.634 71.002 48.076 61.694 48.076 61.763 48.145"/><polygon class="cls-2" points="6.332 26.523 15.641 26.523 15.572 26.452 15.572 14.206 15.572 14.203 27.821 14.203 27.888 14.272 27.888 4.964 6.332 4.964 6.332 26.523"/><polygon class="cls-2" points="49.446 4.964 49.446 14.203 61.763 14.203 61.763 26.523 71.002 26.523 71.002 4.964 49.446 4.964"/><polygon class="cls-3" points="48.305 26.523 35.986 14.203 49.446 14.203 49.446 4.964 27.888 4.964 27.888 14.272 40.139 26.523 48.305 26.523"/><polygon class="cls-3" points="37.195 48.076 29.03 48.076 39.237 58.284 41.349 60.394 37.129 60.394 27.888 60.394 27.888 69.634 49.446 69.634 49.446 60.326 43.32 54.201 37.195 48.076"/><polygon class="cls-3" points="61.763 26.523 61.763 35.761 61.763 39.98 59.653 37.869 49.446 27.664 49.446 35.829 55.569 41.952 61.694 48.076 71.002 48.076 71.002 26.523 61.763 26.523"/><polygon class="cls-3" points="27.888 38.768 15.641 26.523 6.332 26.523 6.332 48.076 15.572 48.076 15.572 34.618 27.888 46.934 27.888 38.768"/><rect class="cls-3" x="6.33206" y="80.88296" width="407.3758" height="29.74571"/><path class="cls-4" d="M91.32855,95.79513v-.03978a7.0773,7.0773,0,0,1,7.22909-7.13012,7.57334,7.57334,0,0,1,5.41721,1.8905L102.064,92.82014a5.07671,5.07671,0,0,0-3.60484-1.398,4.14166,4.14166,0,0,0-3.95907,4.29436v.03884a4.1313,4.1313,0,0,0,4.176,4.373,4.842,4.842,0,0,0,2.85612-.82686V97.3314H98.479V94.71159h5.98833v5.98786a8.94886,8.94886,0,0,1-5.88982,2.187A6.90124,6.90124,0,0,1,91.32855,95.79513Z"/><path class="cls-4" d="M107.87093,88.86107h6.30326A5.493,5.493,0,0,1,118.19246,90.26a4.32817,4.32817,0,0,1,1.182,3.15116v.03978a4.28312,4.28312,0,0,1-2.95462,4.27447l3.368,4.92421h-3.54564l-2.95463-4.4118h-2.38349v4.4118h-3.03324Zm6.10626,6.69727c1.47707,0,2.32429-.788,2.32429-1.95017v-.03884c0-1.30043-.90594-1.97006-2.38349-1.97006h-3.01382v3.95907Z"/><path class="cls-4" d="M127.32864,88.76256H130.126l5.90925,13.88706h-3.17152l-1.26065-3.09243h-5.83064l-1.26065,3.09243h-3.09243Zm3.19141,8.1161-1.83226-4.47148L126.856,96.87866Z"/><path class="cls-4" d="M138.6513,88.86107h5.37742c4.33367,0,7.3276,2.975,7.3276,6.85544v.03884c0,3.88045-2.99393,6.89427-7.3276,6.89427H138.6513Zm5.37742,11.05035a3.92832,3.92832,0,0,0,4.15608-4.11629v-.03978a3.95974,3.95974,0,0,0-4.15608-4.15608h-2.34419v8.31215Z"/><path class="cls-4" d="M154.32657,96.74038V88.86107h3.03371v7.8007c0,2.24568,1.12284,3.40783,2.974,3.40783,1.85167,0,2.97451-1.12332,2.97451-3.30933v-7.8992h3.03371v7.78081c0,4.176-2.34419,6.22464-6.04753,6.22464C156.59214,102.86652,154.32657,100.798,154.32657,96.74038Z"/><path class="cls-4" d="M174.15887,88.76256h2.79739l5.90925,13.88706H179.694l-1.26065-3.09243H172.6027l-1.26065,3.09243h-3.09243Zm3.19141,8.1161L175.518,92.40718l-1.83178,4.47148Z"/><path class="cls-4" d="M186.91977,91.658h-4.19586V88.86107h11.425V91.658H189.953v10.99163h-3.03323Z"/><path class="cls-4" d="M196.96236,88.86107H207.3625v2.69842h-7.38632v2.79787h6.50027v2.69842h-6.50027V99.9512H207.461v2.69842H196.96236Z"/><path class="cls-4" d="M210.6491,88.86107h5.37742c4.33414,0,7.32807,2.975,7.32807,6.85544v.03884c0,3.88045-2.99393,6.89427-7.32807,6.89427H210.6491Zm5.37742,11.05035a3.92807,3.92807,0,0,0,4.15608-4.11629v-.03978a3.95948,3.95948,0,0,0-4.15608-4.15608h-2.34419v8.31215Z"/><path class="cls-4" d="M232.94161,88.86107h5.63362c3.28944,0,5.2794,1.95017,5.2794,4.767v.03978c0,3.19093-2.48247,4.8456-5.5749,4.8456h-2.30441v4.13618h-3.03371Zm5.43662,6.953a2.13462,2.13462,0,0,0,2.40291-2.08751v-.03978c0-1.35916-.94525-2.08751-2.46163-2.08751h-2.34419v4.2148Z"/><path class="cls-4" d="M246.589,88.86107h6.30326A5.49494,5.49494,0,0,1,256.911,90.26a4.32759,4.32759,0,0,1,1.18109,3.15116v.03978a4.28219,4.28219,0,0,1-2.95415,4.27447l3.36806,4.92421h-3.54517l-2.9551-4.4118h-2.384v4.4118H246.589Zm6.10625,6.69727c1.47755,0,2.3243-.788,2.3243-1.95017v-.03884c0-1.30043-.90642-1.97006-2.384-1.97006H249.6218v3.95907Z"/><path class="cls-4" d="M260.7091,95.79513v-.03978a7.33093,7.33093,0,0,1,14.65519-.03884v.03884a7.33092,7.33092,0,0,1-14.65519.03978Zm11.48415,0v-.03978a4.18858,4.18858,0,0,0-4.176-4.3332,4.12331,4.12331,0,0,0-4.13619,4.29436v.03884a4.18839,4.18839,0,0,0,4.175,4.33319A4.12382,4.12382,0,0,0,272.19325,95.79513Z"/><path class="cls-4" d="M276.58138,100.77806l1.91039-2.12729a3.40147,3.40147,0,0,0,2.5213,1.37905c1.14321,0,1.85167-.68952,1.85167-2.28452V88.86107h3.11233v9.02157a5.0076,5.0076,0,0,1-1.29949,3.68345,4.92841,4.92841,0,0,1-3.58495,1.28054A5.6363,5.6363,0,0,1,276.58138,100.77806Z"/><path class="cls-4" d="M289.55917,88.86107h10.40062v2.69842H292.573v2.79787h6.50027v2.69842H292.573V99.9512h7.4853v2.69842H289.55917Z"/><path class="cls-4" d="M302.63548,95.79513v-.03978a7.00816,7.00816,0,0,1,7.18979-7.13012,7.11465,7.11465,0,0,1,5.43662,2.12729l-1.93029,2.22579a5.089,5.089,0,0,0-3.52622-1.55616,4.08476,4.08476,0,0,0-3.99791,4.29436v.03884a4.09466,4.09466,0,0,0,3.99791,4.33319,4.97666,4.97666,0,0,0,3.62472-1.61488l1.93029,1.95017a7.04879,7.04879,0,0,1-5.65352,2.46258A6.96013,6.96013,0,0,1,302.63548,95.79513Z"/><path class="cls-4" d="M321.48274,91.658h-4.19586V88.86107h11.42448V91.658h-4.19491v10.99163h-3.03371Z"/></svg>