<svg viewBox="0 0 590.98 295.51" xmlns="http://www.w3.org/2000/svg" xmlns:xlink="http://www.w3.org/1999/xlink"><linearGradient id="a" gradientUnits="userSpaceOnUse" x1="295.49" x2="295.49" y2="295.51"><stop offset="0" stop-color="#f3807b"/><stop offset=".34" stop-color="#ffcd3c"/><stop offset=".69" stop-color="#35d0ba"/></linearGradient><clipPath id="b"><path d="m103.9 46.49a29.23 29.23 0 0 1 29.23 29.23v51.28a16.11 16.11 0 0 1 -16.13 16.08h-26.21a16.11 16.11 0 0 1 -16.11-16.08v-51.28a29.23 29.23 0 0 1 29.22-29.23z"/></clipPath><clipPath id="c"><path clip-rule="evenodd" d="m185.29 127.25a24.71 24.71 0 1 1 18.56-41 4.1 4.1 0 0 1 -.35 5.75 4 4 0 0 1 -5.77-.35 16.48 16.48 0 1 0 0 21.72 4 4 0 0 1 5.77-.35 4.1 4.1 0 0 1 .35 5.76 24.67 24.67 0 0 1 -18.56 8.44"/></clipPath><clipPath id="d"><path clip-rule="evenodd" d="m231.33 93.44a4.09 4.09 0 0 1 -4.15 4.07c-4.5 0-7.87 3.66-7.87 8.65v17a4.08 4.08 0 1 1 -8.15 0v-30.57a4.07 4.07 0 0 1 8-1 15.7 15.7 0 0 1 8-2.18 4.1 4.1 0 0 1 4.15 4.08"/></clipPath><clipPath id="e"><path clip-rule="evenodd" d="m252.06 127.46a19.37 19.37 0 1 1 19.4-19.33 19.37 19.37 0 0 1 -19.4 19.33m0-30.58a11.21 11.21 0 1 0 11.18 11.25 11.22 11.22 0 0 0 -11.18-11.25"/></clipPath><clipPath id="f"><path clip-rule="evenodd" d="m278.21 120.15a4.07 4.07 0 1 1 7.38-3.45c.56 1.13 2.11 2.39 4.85 2.39 3.79 0 5.13-2.32 5.13-3.86 0-2.11-.56-2.74-6-4.15a21.76 21.76 0 0 1 -7.17-2.6 9.88 9.88 0 0 1 -4.57-8.57 11.1 11.1 0 0 1 3.4-7.91 13 13 0 0 1 9.21-3.51c5.2 0 9.63 2.53 11.53 6.68a4.07 4.07 0 0 1 -7.38 3.44c-.42-.91-1.76-2-4.15-2-3.23 0-4.43 2-4.43 3.24 0 1.4.28 2 5.48 3.3 4.57 1.12 12.23 3 12.23 12a11.83 11.83 0 0 1 -3.51 8.29 13.63 13.63 0 0 1 -9.77 3.73c-5.55 0-10.26-2.75-12.23-7.1"/></clipPath><clipPath id="g"><path clip-rule="evenodd" d="m310.47 120.15a4.07 4.07 0 1 1 7.38-3.45c.56 1.13 2.11 2.39 4.85 2.39 3.8 0 5.13-2.32 5.13-3.86 0-2.11-.56-2.74-6-4.15a21.84 21.84 0 0 1 -7.17-2.6 9.9 9.9 0 0 1 -4.57-8.57 11.1 11.1 0 0 1 3.4-7.91 13 13 0 0 1 9.21-3.51c5.2 0 9.63 2.53 11.53 6.68a4.07 4.07 0 0 1 -7.38 3.44c-.42-.91-1.76-2-4.15-2-3.23 0-4.43 2-4.43 3.24 0 1.4.28 2 5.49 3.3 4.56 1.12 12.22 3 12.22 12a11.83 11.83 0 0 1 -3.51 8.29 13.63 13.63 0 0 1 -9.77 3.73c-5.55 0-10.26-2.75-12.23-7.1"/></clipPath><clipPath id="h"><path clip-rule="evenodd" d="m379.14 107.85a19.77 19.77 0 0 1 -5.06 13.56 18 18 0 0 1 -13.36 5.84 18.35 18.35 0 0 1 -10.19-3.1v16.59a4.14 4.14 0 0 1 -4.14 4.08 4.08 4.08 0 0 1 -4.08-4.08v-48.15a4.08 4.08 0 0 1 4.08-4.07 4.13 4.13 0 0 1 4 3.16 18.47 18.47 0 0 1 10.33-3.16 17.93 17.93 0 0 1 13.36 5.76 19.94 19.94 0 0 1 5.06 13.57m-8.15 0c0-6.47-4.29-11.18-10.27-11.18s-10.19 4.71-10.19 11.18 4.29 11.15 10.19 11.15 10.28-4.69 10.28-11.15"/></clipPath><clipPath id="i"><path clip-rule="evenodd" d="m389.89 127.25a4.08 4.08 0 0 1 -4.07-4.08v-41.17a4.07 4.07 0 0 1 4.07-4.07 4.14 4.14 0 0 1 4.11 4.07v41.19a4.14 4.14 0 0 1 -4.15 4.08"/></clipPath><clipPath id="j"><path clip-rule="evenodd" d="m437.55 92.59v30.58a4.1 4.1 0 0 1 -8.09.91 18.1 18.1 0 0 1 -10.33 3.17 17.69 17.69 0 0 1 -13.35-5.84 20.62 20.62 0 0 1 0-27.06 17.72 17.72 0 0 1 13.35-5.83 18.09 18.09 0 0 1 10.33 3.16 4.1 4.1 0 0 1 8.09.91m-8.16 15.33c0-6.54-4.35-11.25-10.26-11.25s-10.26 4.71-10.26 11.25 4.29 11.17 10.26 11.17 10.26-4.71 10.26-11.17"/></clipPath><clipPath id="k"><path clip-rule="evenodd" d="m476.7 105.32v17.85a4.12 4.12 0 0 1 -8.23 0v-17.85c0-4.15-2.32-8.65-7.52-8.65-4.71 0-8.22 3.73-8.22 8.65v17.85a4.08 4.08 0 0 1 -8.16 0v-30.58a4.09 4.09 0 0 1 7.81-1.68 16 16 0 0 1 8.62-2.39c8.93 0 15.75 7.24 15.75 16.8"/></clipPath><clipPath id="l"><path clip-rule="evenodd" d="m501.44 127.6a17.91 17.91 0 0 1 -13.36-6 19.59 19.59 0 0 1 -5.08-13.54c0-11.11 7.8-19.4 18.06-19.4s17.86 8.15 17.86 19.4a4.1 4.1 0 0 1 -4.15 4.08h-23a10.14 10.14 0 0 0 9.63 7.3c2.75 0 5.08-.57 6.75-2.18a7 7 0 0 0 1.33-1.75 4.1 4.1 0 1 1 7 4.22c-3.17 5.69-8.65 7.87-15.11 7.87m-9.7-23.69h18.48a9.33 9.33 0 0 0 -9.14-7.1 9.67 9.67 0 0 0 -9.34 7.1"/></clipPath><rect fill="#fff" height="275.51" rx="31.78" width="570.98" x="10" y="10"/><path d="m549.2 10a31.78 31.78 0 0 1 31.8 31.78v212a31.78 31.78 0 0 1 -31.78 31.78h-507.44a31.78 31.78 0 0 1 -31.78-31.83v-211.95a31.78 31.78 0 0 1 31.78-31.78zm0-10h-507.42a41.82 41.82 0 0 0 -41.78 41.78v212a41.83 41.83 0 0 0 41.78 41.78h507.42a41.83 41.83 0 0 0 41.8-41.83v-211.95a41.82 41.82 0 0 0 -41.8-41.78z" fill="url(#a)"/><path d="m252.17-43.36h59.83a26.88 26.88 0 0 1 26.88 26.88v517.22a26.88 26.88 0 0 1 -26.88 26.88h-59.83a0 0 0 0 1 0 0v-571a0 0 0 0 1 0 .02z" fill="#35d0ba" transform="matrix(0 1 -1 0 537.68 -53.41)"/><rect fill="#f7d186" height="83.79" rx="7.34" width="14.69" x="96.55" y="84.37"/><path d="m98.15 142.61h13.09v13.34z" fill="#d8ae64" opacity=".47"/><path d="m103.9 46.49a29.23 29.23 0 0 1 29.23 29.23v51.28a16.11 16.11 0 0 1 -16.13 16.08h-26.21a16.11 16.11 0 0 1 -16.11-16.08v-51.28a29.23 29.23 0 0 1 29.22-29.23z" fill="#ffcd3c"/><g clip-path="url(#b)"><path d="m74.24 108.54 55.07-54.45-23.26-31.23-49.29 42.84z" fill="#f3807b"/><path d="m83.01 143.72 51.83-51.97v51.97z" fill="#35d0ba"/></g><path d="m185.29 127.25a24.71 24.71 0 1 1 18.56-41 4.1 4.1 0 0 1 -.35 5.75 4 4 0 0 1 -5.77-.35 16.48 16.48 0 1 0 0 21.72 4 4 0 0 1 5.77-.35 4.1 4.1 0 0 1 .35 5.76 24.67 24.67 0 0 1 -18.56 8.44" fill="#183d54" fill-rule="evenodd"/><g clip-path="url(#c)"><path d="m156.85 74.07h51.78v56.95h-51.78z" fill="#183d54"/></g><path d="m231.33 93.44a4.09 4.09 0 0 1 -4.15 4.07c-4.5 0-7.87 3.66-7.87 8.65v17a4.08 4.08 0 1 1 -8.15 0v-30.57a4.07 4.07 0 0 1 8-1 15.7 15.7 0 0 1 8-2.18 4.1 4.1 0 0 1 4.15 4.08" fill="#183d54" fill-rule="evenodd"/><g clip-path="url(#d)"><path d="m207.39 84.75h27.71v46.26h-27.71z" fill="#183d54"/></g><path d="m252.06 127.46a19.37 19.37 0 1 1 19.4-19.33 19.37 19.37 0 0 1 -19.4 19.33m0-30.58a11.21 11.21 0 1 0 11.18 11.25 11.22 11.22 0 0 0 -11.18-11.25" fill="#183d54" fill-rule="evenodd"/><g clip-path="url(#e)"><path d="m228.97 84.96h46.26v46.26h-46.26z" fill="#183d54"/></g><path d="m278.21 120.15a4.07 4.07 0 1 1 7.38-3.45c.56 1.13 2.11 2.39 4.85 2.39 3.79 0 5.13-2.32 5.13-3.86 0-2.11-.56-2.74-6-4.15a21.76 21.76 0 0 1 -7.17-2.6 9.88 9.88 0 0 1 -4.57-8.57 11.1 11.1 0 0 1 3.4-7.91 13 13 0 0 1 9.21-3.51c5.2 0 9.63 2.53 11.53 6.68a4.07 4.07 0 0 1 -7.38 3.44c-.42-.91-1.76-2-4.15-2-3.23 0-4.43 2-4.43 3.24 0 1.4.28 2 5.48 3.3 4.57 1.12 12.23 3 12.23 12a11.83 11.83 0 0 1 -3.51 8.29 13.63 13.63 0 0 1 -9.77 3.73c-5.55 0-10.26-2.75-12.23-7.1" fill="#183d54" fill-rule="evenodd"/><g clip-path="url(#f)"><path d="m274.02 84.75h33.47v46.26h-33.47z" fill="#183d54"/></g><path d="m310.47 120.15a4.07 4.07 0 1 1 7.38-3.45c.56 1.13 2.11 2.39 4.85 2.39 3.8 0 5.13-2.32 5.13-3.86 0-2.11-.56-2.74-6-4.15a21.84 21.84 0 0 1 -7.17-2.6 9.9 9.9 0 0 1 -4.57-8.57 11.1 11.1 0 0 1 3.4-7.91 13 13 0 0 1 9.21-3.51c5.2 0 9.63 2.53 11.53 6.68a4.07 4.07 0 0 1 -7.38 3.44c-.42-.91-1.76-2-4.15-2-3.23 0-4.43 2-4.43 3.24 0 1.4.28 2 5.49 3.3 4.56 1.12 12.22 3 12.22 12a11.83 11.83 0 0 1 -3.51 8.29 13.63 13.63 0 0 1 -9.77 3.73c-5.55 0-10.26-2.75-12.23-7.1" fill="#183d54" fill-rule="evenodd"/><g clip-path="url(#g)"><path d="m306.28 84.75h33.47v46.26h-33.47z" fill="#183d54"/></g><path d="m379.14 107.85a19.77 19.77 0 0 1 -5.06 13.56 18 18 0 0 1 -13.36 5.84 18.35 18.35 0 0 1 -10.19-3.1v16.59a4.14 4.14 0 0 1 -4.14 4.08 4.08 4.08 0 0 1 -4.08-4.08v-48.15a4.08 4.08 0 0 1 4.08-4.07 4.13 4.13 0 0 1 4 3.16 18.47 18.47 0 0 1 10.33-3.16 17.93 17.93 0 0 1 13.36 5.76 19.94 19.94 0 0 1 5.06 13.57m-8.15 0c0-6.47-4.29-11.18-10.27-11.18s-10.19 4.71-10.19 11.18 4.29 11.15 10.19 11.15 10.28-4.69 10.28-11.15" fill="#183d54" fill-rule="evenodd"/><g clip-path="url(#h)"><path d="m338.54 84.75h44.36v63.83h-44.36z" fill="#183d54"/></g><path d="m389.89 127.25a4.08 4.08 0 0 1 -4.07-4.08v-41.17a4.07 4.07 0 0 1 4.07-4.07 4.14 4.14 0 0 1 4.11 4.07v41.19a4.14 4.14 0 0 1 -4.15 4.08" fill="#183d54" fill-rule="evenodd"/><g clip-path="url(#i)"><path d="m382.05 74.14h15.76v56.87h-15.76z" fill="#183d54"/></g><path d="m437.55 92.59v30.58a4.1 4.1 0 0 1 -8.09.91 18.1 18.1 0 0 1 -10.33 3.17 17.69 17.69 0 0 1 -13.35-5.84 20.62 20.62 0 0 1 0-27.06 17.72 17.72 0 0 1 13.35-5.83 18.09 18.09 0 0 1 10.33 3.16 4.1 4.1 0 0 1 8.09.91m-8.16 15.33c0-6.54-4.35-11.25-10.26-11.25s-10.26 4.71-10.26 11.25 4.29 11.17 10.26 11.17 10.26-4.71 10.26-11.17" fill="#183d54" fill-rule="evenodd"/><g clip-path="url(#j)"><path d="m396.95 84.75h44.36v46.26h-44.36z" fill="#183d54"/></g><path d="m476.7 105.32v17.85a4.12 4.12 0 0 1 -8.23 0v-17.85c0-4.15-2.32-8.65-7.52-8.65-4.71 0-8.22 3.73-8.22 8.65v17.85a4.08 4.08 0 0 1 -8.16 0v-30.58a4.09 4.09 0 0 1 7.81-1.68 16 16 0 0 1 8.62-2.39c8.93 0 15.75 7.24 15.75 16.8" fill="#183d54" fill-rule="evenodd"/><g clip-path="url(#k)"><path d="m440.81 84.75h39.65v46.26h-39.65z" fill="#183d54"/></g><path d="m501.44 127.6a17.91 17.91 0 0 1 -13.36-6 19.59 19.59 0 0 1 -5.08-13.54c0-11.11 7.8-19.4 18.06-19.4s17.86 8.15 17.86 19.4a4.1 4.1 0 0 1 -4.15 4.08h-23a10.14 10.14 0 0 0 9.63 7.3c2.75 0 5.08-.57 6.75-2.18a7 7 0 0 0 1.33-1.75 4.1 4.1 0 1 1 7 4.22c-3.17 5.69-8.65 7.87-15.11 7.87m-9.7-23.69h18.48a9.33 9.33 0 0 0 -9.14-7.1 9.67 9.67 0 0 0 -9.34 7.1" fill="#183d54" fill-rule="evenodd"/><g clip-path="url(#l)"><path d="m479.25 84.89h43.45v46.47h-43.45z" fill="#183d54"/></g><text fill="#fff" font-family="Avenir-Black, Avenir" font-size="40" font-weight="800" letter-spacing=".12em" transform="translate(43.31 259.35)">C<tspan letter-spacing=".1em" x="32.28" y="0">E</tspan><tspan letter-spacing=".12em" x="61.56" y="0">R</tspan><tspan letter-spacing=".14em" x="92.44" y="0">T</tspan><tspan letter-spacing=".08em" x="121.08" y="0">I</tspan><tspan letter-spacing=".14em" x="136.2" y="0">F</tspan><tspan letter-spacing=".1em" x="165.6" y="0">I</tspan><tspan x="181.52" y="0">E</tspan><tspan letter-spacing=".14em" x="211.6" y="0">D </tspan><tspan letter-spacing=".08em" x="265.16" y="0">P</tspan><tspan letter-spacing=".1em" x="293.64" y="0">R</tspan><tspan letter-spacing=".08em" x="323.64" y="0">O</tspan><tspan letter-spacing=".12em" x="360.2" y="0">VI</tspan><tspan letter-spacing=".08em" x="409.95" y="0">D</tspan><tspan letter-spacing=".1em" x="443.59" y="0">E</tspan><tspan letter-spacing=".14em" x="472.87" y="0">R</tspan></text></svg>