<svg width="136" height="125" viewBox="0 0 136 125" fill="none" xmlns="http://www.w3.org/2000/svg">
<path d="M108.833 90.5766C110.303 86.0384 110.182 81.3694 108.793 77.1633C107.405 72.9572 104.728 69.214 101.085 66.5374C101.065 66.5273 101.045 66.5072 101.015 66.4971C100.995 66.477 100.975 66.4669 100.955 66.4468C98.7206 64.8267 97.2817 62.5124 96.7383 60.0068C96.2151 57.5013 96.5673 54.7945 97.9559 52.3996C97.9659 52.3795 97.9861 52.3493 97.9961 52.3292C98.0062 52.309 98.0263 52.2789 98.0364 52.2587C100.26 48.3243 101.166 43.8163 100.723 39.409C100.27 35.0016 98.4691 30.6949 95.2692 27.1529C92.6228 24.2247 89.3626 22.1921 85.8608 21.0651C82.3591 19.918 78.5152 19.6564 74.6512 20.4815C69.9923 21.4777 65.9975 23.9128 63.0593 27.2233C60.111 30.5339 58.2092 34.7098 57.7061 39.2077C57.7061 39.2379 57.7061 39.258 57.7061 39.2882C57.7061 39.3184 57.7061 39.3385 57.7061 39.3687C57.4243 42.1158 56.1263 44.5207 54.2345 46.2414C52.3226 47.952 49.807 48.9884 47.0399 48.9985C47.0097 48.9985 46.9895 48.9985 46.9594 48.9985C46.9292 48.9985 46.909 48.9985 46.8789 48.9985C42.3608 49.0387 38.0038 50.5079 34.4115 53.104C30.8192 55.7001 27.9916 59.4131 26.5225 63.9513C25.3049 67.7046 25.1741 71.5585 25.959 75.1508C26.7238 78.7532 28.4142 82.2147 31.0607 85.1428C34.2605 88.6848 38.356 90.9187 42.7029 91.8142C47.0399 92.7098 51.6183 92.2671 55.7539 90.4558C55.7741 90.4558 55.8043 90.4357 55.8244 90.4256C55.8445 90.4156 55.8747 90.4055 55.8948 90.3954C58.4205 89.2684 61.1374 89.1879 63.5825 89.9628C66.0176 90.7577 68.1811 92.4281 69.5596 94.8129C69.5697 94.833 69.5898 94.8632 69.5999 94.8833C69.6099 94.9034 69.6301 94.9336 69.6401 94.9537C71.9344 98.8479 75.3858 101.887 79.4208 103.698C83.466 105.509 88.0947 106.103 92.7637 105.107C96.6176 104.282 100.019 102.47 102.746 99.995C105.493 97.5297 107.636 94.3399 108.854 90.5866L108.833 90.5766Z" fill="url(#paint0_linear_409_2875)"/>
<path d="M111.309 55.9014C105.795 55.9014 100.995 58.9403 98.4792 63.4281C98.4188 63.5288 98.3685 63.6395 98.3081 63.7401C98.3081 63.7401 98.3081 63.7401 98.3081 63.7501C96.4566 66.9802 92.965 69.1637 88.9702 69.1637C83.8182 69.1637 79.5215 65.5413 78.4549 60.7113C74.1985 46.2314 60.8053 35.6558 44.9368 35.6558C25.6471 35.6558 10 51.2928 10 70.5926C10 89.8823 25.6371 105.529 44.9368 105.529C60.7953 105.529 74.1884 94.9538 78.4549 80.4739C79.5115 75.644 83.8182 72.0315 88.9702 72.0315C92.965 72.0315 96.4466 74.205 98.3081 77.4451C98.3081 77.4451 98.3081 77.4451 98.3081 77.4552C98.3685 77.5558 98.4289 77.6565 98.4792 77.7671C100.995 82.255 105.795 85.2939 111.309 85.2939C119.419 85.2939 126 78.713 126 70.6027C126 62.4823 119.419 55.9115 111.309 55.9115V55.9014Z" fill="url(#paint1_linear_409_2875)"/>
<path d="M101.095 66.5374C101.095 66.5374 101.055 66.5072 101.025 66.4972C101.005 66.477 100.985 66.467 100.965 66.4469C99.8979 65.6721 99.0225 64.7463 98.3282 63.7099C98.3282 63.7099 98.3181 63.73 98.3081 63.7401C98.3081 63.7401 98.3081 63.7401 98.3081 63.7501C96.4566 66.9802 92.9649 69.1637 88.9701 69.1637C83.8181 69.1637 79.5215 65.5412 78.4548 60.7113C75.426 50.3972 67.7584 42.0756 57.8671 38.1311C57.8067 38.4934 57.7463 38.8556 57.7061 39.2178C57.7061 39.248 57.7061 39.2682 57.7061 39.2983C57.7061 39.3285 57.7061 39.3487 57.7061 39.3788C57.4243 42.1259 56.1263 44.5308 54.2345 46.2515C52.3226 47.9621 49.807 48.9986 47.0399 49.0086C47.0097 49.0086 46.9895 49.0086 46.9594 49.0086C46.9292 49.0086 46.909 49.0086 46.8789 49.0086C42.3608 49.0489 38.0038 50.518 34.4115 53.1141C30.8192 55.7102 27.9916 59.4233 26.5225 63.9614C25.3049 67.7147 25.1741 71.5687 25.959 75.1609C26.7238 78.7633 28.4142 82.2248 31.0607 85.153C34.2605 88.6949 38.3559 90.9288 42.7029 91.8244C47.0398 92.7199 51.6183 92.2772 55.7539 90.4659C55.7741 90.4659 55.8042 90.4458 55.8244 90.4358C55.8445 90.4257 55.8747 90.4156 55.8948 90.4056C58.4205 89.2786 61.1374 89.1981 63.5825 89.9729C66.0176 90.7678 68.1811 92.4382 69.5596 94.823C69.5697 94.8431 69.5898 94.8733 69.5999 94.8934C69.6099 94.9135 69.6301 94.9437 69.6401 94.9639C69.6804 95.0343 69.7307 95.1047 69.781 95.1752C73.7959 91.12 76.8247 86.0988 78.475 80.484C79.5315 75.654 83.8383 72.0416 88.9902 72.0416C92.985 72.0416 96.4666 74.2151 98.3282 77.4552C98.3282 77.4552 98.3282 77.4552 98.3282 77.4652C98.3886 77.5659 98.4489 77.6665 98.4993 77.7772C100.783 81.8625 104.969 84.7404 109.86 85.2234C110.021 82.4562 109.659 79.7394 108.813 77.1835C107.425 72.9774 104.748 69.2342 101.105 66.5575L101.095 66.5374Z" fill="url(#paint2_linear_409_2875)"/>
<defs>
<linearGradient id="paint0_linear_409_2875" x1="48.441" y1="40.2704" x2="102.538" y2="100.182" gradientUnits="userSpaceOnUse">
<stop offset="0.4" stop-color="#C18DBE"/>
<stop offset="1" stop-color="#9EB5DD"/>
</linearGradient>
<linearGradient id="paint1_linear_409_2875" x1="10.0101" y1="70.5926" x2="126" y2="70.5926" gradientUnits="userSpaceOnUse">
<stop offset="0.4" stop-color="#3E8DCB"/>
<stop offset="0.99" stop-color="#82CDF2"/>
</linearGradient>
<linearGradient id="paint2_linear_409_2875" x1="25.4659" y1="66.6481" x2="109.88" y2="66.6481" gradientUnits="userSpaceOnUse">
<stop offset="0.4" stop-color="#304F99"/>
<stop offset="0.99" stop-color="#4A82C3"/>
</linearGradient>
</defs>
</svg>
