<?xml version="1.0" encoding="UTF-8"?><svg id="Layer_1" xmlns="http://www.w3.org/2000/svg" xmlns:xlink="http://www.w3.org/1999/xlink" viewBox="0 0 614.12 375.62"><defs><style>.cls-1{clip-path:url(#clippath);}.cls-2,.cls-3,.cls-4{fill:#fff;}.cls-5{clip-path:url(#clippath-1);}.cls-6{clip-path:url(#clippath-2);}.cls-7{opacity:.8;}.cls-3{fill-rule:evenodd;}.cls-4{opacity:.8;}</style><clipPath id="clippath"><rect class="cls-2" x="404.599" y="352.90583" width="198.047" height=".97198"/></clipPath><clipPath id="clippath-1"><rect class="cls-2" x="11.834" y="352.90583" width="194.838" height=".97198"/></clipPath><clipPath id="clippath-2"><rect class="cls-2" x="236.202" y="12.67683" width=".972" height="195.01801"/></clipPath></defs><g><g class="cls-7"><path class="cls-2" d="m404.599,352.90583h198.047v.97198h-198.047v-.97198Z"/><g><rect class="cls-2" x="404.599" y="352.90583" width="198.047" height=".97198"/><g class="cls-1"><path class="cls-2" d="m404.60001,352.90583h198.04599v.97198h-198.04599v-.97198Z"/></g></g></g><g class="cls-7"><path class="cls-2" d="m11.834,352.90583h194.838v.97198H11.834v-.97198Z"/><g><rect class="cls-2" x="11.834" y="352.90583" width="194.838" height=".97198"/><g class="cls-5"><path class="cls-2" d="m11.834,352.90583h194.83701v.97198H11.834v-.97198Z"/></g></g></g><path class="cls-2" d="m177.713,179.35283c1.28505-.35097,2.59007-.62413,3.908-.81799,1.66226-.25661,3.34206-.38266,5.024-.377,1.51245-.04488,3.02007.19182,4.446.698,1.0932.40096,2.06235,1.08118,2.811,1.97301.70959.88855,1.21335,1.92339,1.47501,3.03.30556,1.2795.45332,2.59158.44,3.907v11.84399h-5.94299v-11.125c.10831-1.3989-.15274-2.8017-.757-4.06799-.66473-.87192-1.74152-1.3266-2.83-1.19501-.42599,0-.87801.01801-1.356.058-.48001.04134-.90533.08833-1.276.14101v16.19h-5.942l-.00002-20.25801Zm-10.963,9.73c.08385-1.52042-.29892-3.03017-1.097-4.327-.69859-1.03331-1.88393-1.62939-3.13-1.57401-1.25098-.05269-2.44104.54198-3.14999,1.57401-.81102,1.29201-1.20096,2.80391-1.116,4.327-.08018,1.53505.30946,3.05806,1.117,4.366.69572,1.05159,1.89006,1.66356,3.14999,1.614,1.2551.05226,2.44475-.56119,3.13-1.614.79396-1.31288,1.17575-2.83379,1.09599-4.366m6.061,0c.01784,1.53838-.22493,3.06868-.718,4.526-.43936,1.30144-1.1454,2.4969-2.073,3.50999-.91049.97368-2.01857,1.74149-3.25,2.252-1.34787.54787-2.79221.81891-4.24699.797-1.4413.01949-2.87175-.25157-4.20599-.797-1.23164-.51056-2.3398-1.27876-3.25-2.25301-.93155-1.01704-1.65031-2.2101-2.114-3.509-.51852-1.45189-.77486-2.98439-.757-4.526-.01994-1.53697.24345-3.06447.77699-4.506.47704-1.28937,1.20932-2.46924,2.153-3.46899.92477-.96162,2.03796-1.72214,3.27-2.23399,2.6626-1.06241,5.63141-1.06241,8.29401,0,1.22797.50861,2.33525,1.26973,3.25,2.23399.93085,1.00217,1.64958,2.18211,2.11301,3.46899.52054,1.44447.77728,2.97072.758,4.506m-32.29601,11.08501c-4.49266,0-7.91533-1.24899-10.26801-3.74699-2.35266-2.49998-3.52866-6.049-3.528-10.647-.03519-2.0903.33005-4.16801,1.076-6.121.65871-1.70316,1.66316-3.25136,2.95-4.547,1.26903-1.24773,2.79285-2.2063,4.467-2.81,1.80197-.65158,3.70593-.97569,5.62199-.957,1.06889-.00803,2.1364.07864,3.19.259.84868.14778,1.68758.34715,2.51199.597.61519.18623,1.215.41994,1.79401.69901.47932.23868.825.42467,1.037.558l-1.79401,5.024c-.94627-.48941-1.94186-.87692-2.97-1.15601-1.25494-.33556-2.55009-.49673-3.849-.479-.95705.00017-1.90715.16246-2.81.48-.91757.31856-1.74966.84373-2.43201,1.535-.75261.77919-1.33046,1.70987-1.69501,2.73-.45692,1.30594-.67343,2.68387-.63901,4.067-.00877,1.20282.13231,2.40205.42,3.57001.24606,1.03477.70779,2.00595,1.355,2.85001.653.81987,1.49458,1.46968,2.453,1.894,1.15784.49518,2.40919.73366,3.668.69901.81313.0052,1.62556-.04826,2.431-.16.64482-.0914,1.28413-.21826,1.91499-.38.50401-.12758.99747-.29373,1.476-.49699.425-.187.81-.35899,1.155-.52l1.716,4.985c-1.16518.64586-2.4135,1.12871-3.71001,1.435-1.81194.45175-3.6748.66655-5.54201.63901m-23.643-13.159c-.025-.50008-.11166-.99516-.258-1.474-.14003-.46623-.37078-.90019-.679-1.27699-.31741-.38228-.7107-.69453-1.155-.91701-.54156-.256-1.13629-.37939-1.735-.36-.5898-.01518-1.1756.10095-1.715.34-.45838.21025-.86651.51608-1.197.897-.32423.38234-.57418.82188-.737,1.29601-.17176.48576-.29895.98616-.38,1.495h7.856Zm-13.956,2.27299c-.03502-1.66837.25645-3.32747.858-4.884.50993-1.30206,1.27606-2.48851,2.253-3.489.91209-.91907,2.0052-1.63861,3.21-2.11301,1.18563-.47458,2.45091-.71861,3.728-.71899,2.63398-.13542,5.20081.85829,7.057,2.73199,1.72867,1.81999,2.59267,4.498,2.592,8.034,0,.34465-.01334.72401-.04,1.138-.02232.36563-.04898.73099-.08,1.09599h-13.477c.1069,1.17792.73629,2.24586,1.715,2.91,1.21023.77414,2.63228,1.15038,4.067,1.076,1.07697.0015,2.1517-.09828,3.21-.298.88195-.1503,1.74454-.39781,2.572-.73801l.798,4.825c-.41158.19469-.83874.35458-1.277.478-.58336.17177-1.17555.31198-1.774.42-.652.12001-1.35.21933-2.094.298-.74171.07922-1.48708.11928-2.233.12-1.67967.03609-3.35083-.24832-4.924-.838-1.31069-.50041-2.49532-1.28288-3.47-2.29201-.92529-.98471-1.61945-2.16328-2.032-3.45-.44926-1.39069-.67178-2.8446-.659-4.306m-3.905-.16c.02098,1.54701-.22844,3.08582-.737,4.547-.45485,1.29544-1.18259,2.4781-2.134,3.468-.96631.9809-2.13714,1.73653-3.429,2.213-1.48097.54042-3.04873.8038-4.625.77699-.71732,0-1.46833-.03267-2.253-.09801-.784-.06667-1.55501-.15334-2.313-.25999-.75667-.10533-1.481-.23201-2.173-.38-.69067-.14534-1.302-.29765-1.834-.457v-29.30701l5.941-.95799v10.446c.66766-.29259,1.36229-.51933,2.074-.677.76-.16353,1.53563-.24335,2.313-.23801,1.35573-.02689,2.70141.23775,3.946.776,1.11858.49971,2.1023,1.25824,2.87,2.213.80647,1.02351,1.40349,2.19582,1.757,3.45.41399,1.45877.61507,2.96971.597,4.48599m-6.06-.16c0-3.82866-1.40934-5.74232-4.228-5.741-.61217.00015-1.2217.08051-1.813.239-.51306.1237-1.0041.32538-1.456.59801v10.80499c.29267.05333.665.10001,1.117.14.452.03999.943.06,1.475.06,1.42634.09105,2.80371-.53722,3.67-1.674.87802-1.30396,1.31088-2.85687,1.234-4.427m-19.335,9.929c-1.28538.35097-2.59074.62413-3.909.81799-1.66222.257-3.34203.38339-5.024.37801-1.51407.04527-3.02292-.19804-4.446-.717-1.09557-.41615-2.06421-1.10982-2.811-2.013-.71303-.90968-1.21665-1.96542-1.475-3.092-.30289-1.29382-.44993-2.61925-.438-3.948v-11.683h5.941v10.966c-.0995,1.42395.16082,2.85005.757,4.147.63486.91577,1.72345,1.4062,2.83,1.27499.426,0,.88-.01801,1.357-.05901.47867-.03999.90366-.08667,1.275-.14v-16.189h5.943v20.25699Zm-27.43201.718c-.55733-.90466-1.215-1.882-1.973-2.93201-.758-1.04933-1.582-2.09932-2.472-3.14999-.89067-1.04935-1.81466-2.05934-2.772-3.03-.89978-.91888-1.8592-1.77742-2.872-2.57001v11.68208h-6.219v-27.633h6.22v10.446c1.62133-1.7,3.25-3.47401,4.886-5.32201,1.634-1.84734,3.15567-3.55533,4.565-5.12399h7.377c-1.88866,2.23199-3.78267,4.38499-5.682,6.459-1.90067,2.07468-3.90133,4.16133-6.002,6.25999,2.33875,1.96904,4.48201,4.15919,6.4,6.53999,2.1543,2.65912,4.13219,5.45644,5.921,8.37399l-7.377-.00006Z"/><path class="cls-3" d="m96.053,77.66683l-3.414.73c-.03466-.48466-.05233-.97033-.053-1.457-.00518-3.65425,1.00132-7.23861,2.908-10.356l6.688,5.966.359.314c-.41238,1.01013-.66734,2.07755-.756,3.165-.221.06-.442.12-.662.184l-5.07,1.45399Zm13.007-20.317v9.395c-.92707.31101-1.80723.74739-2.616,1.297-.29951-.22504-.60152-.44672-.906-.665l-6.79-4.827c2.84475-2.7188,6.43459-4.52904,10.312-5.2m-46.643,21.643c3.268-14.315,6.017-26.363,9.284-40.68,1.476-6.465,2.422-8.11,8.246-11.457l22.711-13.053c5.38-3.093,6.403-2.86,6.403,3.729v33.158c-6.01253.7762-11.57452,3.59869-15.751,7.993l-2.874-2.042c-.32934-.22566-.57669-.55195-.705-.93-.25679-.90279-.78884-1.70296-1.522-2.289-1.36331-1.08717-3.34983-.86331-4.437.5-1.08717,1.36332-.86331,3.34983.5,4.437h0c.45661.3759.98859.64939,1.56.802.377.097.755.124,1.135.187.3222.03885.62389.17849.862.399l2.69,2.4c-2.95205,4.36795-4.52588,9.52104-4.518,14.793.00043.94971.05151,1.89873.153,2.843l-5.805,1.24c-.40511-.02282-.81136.01561-1.205.114-.29288.0665-.5745.1753-.836.323-3.805.815-7.644,1.637-11.556,2.48-5.312,1.144-5.489.106-4.335-4.947m53.46-12.248v-9.395c3.85005.66701,7.41711,2.45697,10.253,5.145l-7.41,5.269c-.103.074-.208.149-.31.224-.78592-.52467-1.63803-.94266-2.534-1.243m16.457,11.04l-9.215-2.103c-.11285-.99931-.36741-1.97746-.756-2.905.085-.073.17-.148.253-.222l6.78-6.05c1.93734,3.13542,2.96108,6.74934,2.956,10.435,0,.28133-.006.563-.01801.845m-11.988-50.698l13.525,6.513,20.75999,9.998,5.127,22.463,2.586,11.327c1.589,6.968,1.43201,7.574-5.757,5.932l-17.752-4.051c.06799-.77467.10234-1.55134.103-2.33.00772-5.30299-1.58505-10.48487-4.57001-14.868l2.52901-2.256c.29233-.27208.66566-.44102,1.063-.481.93724-.04973,1.83563-.39056,2.57001-.975,1.36331-1.08717,1.58717-3.07368.5-4.437-1.08717-1.36331-3.07368-1.58717-4.437-.5h0c-.46764.36247-.85283.82027-1.13,1.343-.177.345-.28799.708-.435,1.066-.10939.30463-.31198.56706-.57899.75l-2.87399,2.044c-4.17183-4.36143-9.71221-7.16162-15.698-7.934v-20.255c0-4.751.422-5.297,4.469-3.349m-6.068,60.392c-1.16251.19756-2.34952.20364-3.514.018-.105.196-.211.394-.319.589l-4.257,7.722c4.1106,1.36326,8.55312,1.35238,12.657-.031l-4.206-7.627c-.12189-.2225-.24222-.44583-.361-.67m7.443-5.15l9.173,2.094c-1.5107,3.70453-4.09961,6.86969-7.431,9.085l-3.65-8.787c.74664-.70243,1.38912-1.5079,1.908-2.392m-27.676,2.094l9.174-2.094c.53763.91683,1.20863,1.7486,1.991,2.468-.08334.19067-.16534.38233-.246.575l-3.402,8.192c-3.37212-2.21661-5.99303-5.40341-7.517-9.14m75.288,16.13l-10.784,13.522-13.998,17.55499c-3.588,4.49899-6.09399,4.63699-12.015,4.63699h-40.24702c-7.714,0-8.219-.022-12.928-5.927l-12.972-16.265c-3.646-4.572-4.58-5.745-8.228-10.317-5.673-7.116-6.596-9.64,2.19-11.645l27.21-6.21c2.09415,5.79596,6.13932,10.68291,11.442,13.823l-1.199,2.886c-.14626.37181-.40951.68595-.75.895-.82201.45182-1.48294,1.1484-1.891,1.993-.75663,1.57098-.09647,3.45787,1.4745,4.2145s3.45787.09647,4.2145-1.4745c.26452-.52913.41251-1.10883.434-1.7.01-.388-.047-.763-.07-1.148-.03387-.32256.03471-.64761.196-.929l1.553-2.816c6.1506,2.35639,12.95732,2.34356,19.099-.036l1.524,2.763c.19945.34605.28088.74759.232,1.144-.15926.92467-.02679,1.876.379,2.722.73798,1.57969,2.61681,2.26203,4.1965,1.52406s2.26203-2.61681,1.52406-4.1965c-.01059-.02264-.02144-.04517-.03255-.06756-.24804-.53723-.60889-1.01472-1.058-1.4-.295-.25-.626-.44-.94-.661-.2736-.17407-.48504-.43033-.604-.732l-1.26-3.034c5.26038-3.14281,9.27155-8.00864,11.353-13.772l30.015,6.852c5.827,1.33,5.39999,3.463,1.94,7.8"/><path class="cls-3" d="m115.876,66.74483v-9.395c3.8504.66682,7.41783,2.4568,10.254,5.145l-7.41,5.269c-.103.074-.208.149-.31.224-.78592-.52467-1.63803-.94266-2.534-1.243m16.457,11.04l-9.215-2.103c-.11285-.99931-.36741-1.97746-.756-2.905.085-.073.17-.148.253-.222l6.78-6.05c1.93734,3.13542,2.96108,6.74934,2.956,10.435,0,.28133-.006.563-.01801.845m-11.988-50.698l13.525,6.513,20.75999,9.998,5.127,22.463,2.586,11.327c1.589,6.968,1.43201,7.574-5.757,5.932l-17.752-4.051c.06799-.77467.10234-1.55134.103-2.33.00772-5.30299-1.58505-10.48487-4.57001-14.868l2.52901-2.256c.29233-.27208.66566-.44102,1.063-.481.93724-.04973,1.83563-.39056,2.57001-.975,1.36331-1.08717,1.58717-3.07368.5-4.437-1.08717-1.36331-3.07368-1.58717-4.437-.5h0c-.46764.36247-.85283.82027-1.13,1.343-.177.345-.28799.708-.435,1.066-.10939.30463-.31198.56706-.57899.75l-2.87399,2.044c-4.17183-4.36143-9.71221-7.16162-15.698-7.934v-20.255c0-4.751.422-5.297,4.469-3.349m1.375,55.243l9.173,2.094c-1.5107,3.70453-4.09961,6.86969-7.431,9.085l-3.65-8.787c.74664-.70243,1.38912-1.5079,1.908-2.392m-9.252,14.492v-9.19c.60621-.00043,1.21133-.05161,1.809-.153.12.225.239.448.361.671l4.206,7.626c-2.05408.69398-4.20785,1.04732-6.376,1.046m56.864,3.734l-10.784,13.521-13.998,17.55499c-3.588,4.49899-6.09399,4.63699-12.015,4.63699h-20.067v-32.862c3.28201.00323,6.53588-.60516,9.595-1.794l1.524,2.763c.19945.34605.28088.74759.232,1.144-.15926.92467-.02679,1.876.379,2.722.73783,1.57975,2.6166,2.26227,4.19636,1.52444,1.57974-.73783,2.26227-2.6166,1.52443-4.19636-.01065-.02282-.02159-.04552-.03279-.06808-.24804-.53723-.60889-1.01472-1.058-1.4-.295-.25-.626-.44-.94-.661-.2736-.17407-.48504-.43033-.604-.732l-1.26-3.034c5.26038-3.14281,9.27155-8.00864,11.353-13.772l30.015,6.852c5.827,1.33,5.39999,3.463,1.94,7.8"/><path class="cls-2" d="m391.73001,99.42582h-15.94v37.186h37.18399v-15.938h-21.24399v-21.248Zm79.67801.119v21.129h-21.13l-.117-.117v16.055h37.18298v-37.186h-16.056l.12.119h.00003Zm-95.61801-37.299h16.05801l-.11899-.121v-21.131h21.129l.116.119v-16.055h-37.18402v37.188Zm74.371-37.188v15.936h21.24701v21.252h15.93701V25.05783h-37.18402Z"/><path class="cls-4" d="m448.193,62.24583l-21.25101-21.252h23.21799v-15.936h-37.186v16.055l21.13199,21.133h14.08704Zm-19.16501,37.18h-14.08401l17.60599,17.609,3.642,3.639h-23.21899v15.938h37.18799v-16.055l-10.56799-10.567-10.565-10.564h.00003Zm42.38-37.18v23.214l-3.64099-3.641-17.60599-17.605v14.08599l10.56201,10.561,10.565,10.565h16.056v-37.18h-15.93604Zm-58.43399,21.124l-21.12601-21.124h-16.05798v37.18h15.94v-23.215l21.24399,21.245v-14.08601Z"/><path class="cls-2" d="m298.02201,177.16882l-4.03699,4.782c-1.6767-2.12878-4.19168-3.42892-6.89801-3.56599-4.22662.00278-7.65073,3.43141-7.64795,7.65804.00006.09901.00204.19803.00595.29697,0,4.586,3.29199,8.073,7.642,8.073,2.62567-.14922,5.0943-1.29907,6.89801-3.213l4.07599,4.31c-2.98456,3.07454-7.04453,4.87279-11.327,5.017-8.26901,0-14.422-6.075-14.422-14.108,0-7.91701,6.31-13.875,14.65799-13.875,4.14542.04514,8.10999,1.70422,11.052,4.625Zm3.37299,23.045v-29.08h6.78v29.08h-6.78Zm33.70499-10.582c0,6.506-4.62399,10.817-11.521,10.817-6.93799,0-11.56201-4.311-11.56201-10.817s4.62399-10.778,11.56201-10.778c6.897,0,11.521,4.27299,11.521,10.778Zm-16.26401.078c0,3.29201,1.92001,5.487,4.74301,5.487,2.78201,0,4.702-2.19501,4.702-5.487,0-3.252-1.92001-5.48599-4.702-5.48599-2.823,0-4.74301,2.23399-4.74301,5.48599Zm40.487,10.504h-6.78v-3.48801c-1.38541,2.45531-4.04285,3.91306-6.858,3.76199-4.586,0-7.564-3.136-7.564-8.073v-13.32498h6.78v11.40401c0,2.508,1.371,4.037,3.52701,4.037,2.586-.039,4.11499-2.155,4.11499-5.01601v-10.425h6.78v21.12399Zm26.69199,0h-6.78101v-2.783c-1.49231,1.99202-3.86115,3.1326-6.349,3.05701-5.957,0-9.87601-4.39-9.87601-10.935,0-6.466,3.88-10.73801,9.72-10.73801,2.53528-.09366,4.95911,1.04541,6.505,3.05701v-10.73801h6.78l.00101,29.08Zm-6.78101-10.504c0-3.252-1.88-5.48599-4.702-5.48599-2.823,0-4.70401,2.23399-4.742,5.48599.03799,3.25301,1.92001,5.526,4.742,5.526,2.82101,0,4.702-2.27299,4.702-5.526Z"/><path class="cls-2" d="m410.82501,200.21383l-12.62-16.892v16.892h-6.54401v-27.43401h6.15302l12.65799,16.92999v-16.92999h6.50699v27.43401h-6.15399Zm30.298-13.795v13.795h-6.62299v-2.42999c-1.371,1.802-3.60501,2.743-6.466,2.743-4.50699,0-7.25-2.743-7.25-6.623,0-3.998,2.85999-6.35001,8.11099-6.388h5.56601v-.314c0-2.077-1.37201-3.33099-4.116-3.33099-2.2081.11096-4.36356.71362-6.30899,1.76401l-1.92001-4.468c3.04022-1.53462,6.39163-2.3522,9.797-2.39,5.79999,0,9.17099,2.86,9.20999,7.642v-.00002Zm-6.66199,6.623v-1.882h-4.272c-2.03799,0-3.05701.70599-3.05701,2.274,0,1.528,1.09698,2.508,2.98001,2.508,1.9407.13484,3.72806-1.0567,4.35001-2.89999h-.00101Zm24.92801,6.035c-1.72556.96008-3.66937,1.45947-5.64401,1.45-4.07599,0-7.01501-2.312-7.01501-6.701v-9.328h-2.939v-4.429h2.94v-5.87801h6.73999v5.84h5.526v4.467h-5.526v8.27c0,1.645.70499,2.35001,1.95999,2.312.91135-.06963,1.80167-.30908,2.625-.70599l1.33304,4.70302Zm10.38699-26.062c0,1.96945-1.59656,3.56601-3.56601,3.56601s-3.56598-1.59656-3.56598-3.56599c0-1.96907,1.59595-3.56546,3.565-3.56601,1.90253-.06744,3.49951,1.4202,3.56696,3.32272.00287.08107.00287.1622.00003.24327Zm-6.97601,27.19901v-21.12402h6.741v21.12399l-6.741.00003Zm17.245,0l-7.95599-21.12399h6.97601l4.54599,14.931,4.586-14.931h6.73999l-7.95599,21.12399h-6.936Zm37.233-8.74001h-14.853c.47162,2.35121,2.58075,4.01199,4.97699,3.91901,1.90546-.01448,3.72598-.79044,5.056-2.155l3.56702,3.48801c-2.39865,2.49754-5.74957,3.85211-9.20999,3.72301-6.89801,0-11.20999-4.311-11.20999-10.739,0-6.54401,4.46899-10.856,11.01401-10.856,7.44601,0,11.12997,4.89999,10.66,12.62l-.00104-.00002Zm-6.505-3.645c.18323-2.16939-1.42685-4.07655-3.59625-4.25978-.15952-.01349-.31973-.01723-.47974-.01122-2.35199,0-3.95901,1.724-4.39001,4.271h8.466Z"/><path class="cls-2" d="m544.91101,177.16882l-4.03699,4.782c-1.67645-2.12851-4.19104-3.42863-6.89697-3.56599-4.22662.00276-7.65076,3.43138-7.64801,7.658.00006.09903.00208.19804.00598.297,0,4.586,3.29199,8.073,7.64203,8.073,2.62531-.14948,5.09351-1.29932,6.89697-3.213l4.07599,4.31c-2.98431,3.07431-7.04388,4.87253-11.32599,5.017-8.26898,0-14.422-6.075-14.422-14.108,0-7.91701,6.31-13.875,14.65698-13.875,4.14539.04514,8.10999,1.70422,11.052,4.625Zm23.71301,12.463c0,6.506-4.62402,10.817-11.52197,10.817-6.93701,0-11.56201-4.311-11.56201-10.817s4.625-10.778,11.56201-10.778c6.89801,0,11.52197,4.27299,11.52197,10.778Zm-16.26398.078c0,3.29201,1.91998,5.487,4.742,5.487,2.78302,0,4.703-2.19501,4.703-5.487,0-3.252-1.91998-5.48599-4.703-5.48599-2.82202,0-4.742,2.23399-4.742,5.48599Zm41.46698-2.821v13.325h-6.74103v-11.44398c0-2.46899-1.45001-3.998-3.72302-3.998-2.46997,0-4.03699,1.76401-4.31097,4.272v11.17h-6.78003v-21.12401h6.78003v3.448c1.48761-2.4483,4.19214-3.89029,7.05402-3.761,4.664,0,7.71997,3.174,7.71997,8.112h.00104Z"/><g class="cls-7"><path class="cls-2" d="m236.202,12.67683h.972v195.01801h-.972V12.67683Z"/><g><rect class="cls-2" x="236.202" y="12.67683" width=".972" height="195.01801"/><g class="cls-6"><path class="cls-2" d="m236.202,12.67683h.972v195.01801h-.972V12.67683Z"/></g></g></g><path class="cls-2" d="m66.106,294.08482c-20.118.0535-36.47024-16.21201-36.52374-36.33s16.212-36.47023,36.33-36.52374c20.118-.0535,36.47025,16.21201,36.52374,36.33v.00075l-12.943.034c-.03374-12.96982-10.57519-23.45657-23.545-23.42284-12.96981.03374-23.45658,10.57518-23.42284,23.545.03373,12.9698,10.57519,23.45656,23.545,23.42284h.00084l.035,12.944Z"/><path class="cls-2" d="m66.203,331.00883c-20.1088.03046-36.44748-16.22232-36.523-36.33099l12.943-.035c.03374,12.96982,10.5752,23.45657,23.54502,23.42282,12.96981-.03375,23.45657-10.5752,23.42282-23.54501-.03374-12.96982-10.5752-23.45657-23.54501-23.42282h-.00082l-.034-12.94299c20.11808-.05302,36.46999,16.21292,36.523,36.33099s-16.21292,36.47-36.33101,36.52301Z"/><path class="cls-2" d="m134.603,259.54383c21.00999-.05499,21.093,31.41699.08299,31.47299-21.009.05499-21.092-31.41699-.08299-31.47299Zm.017,6.27802c-12.213.03201-12.163,18.90601.05,18.87399,12.213-.03201,12.16299-18.90701-.05-18.87399Zm22.823,24.70801l-.08-30.48999,11.998-.03201c11.87199-.03201,11.879,18.79999.05,18.832l-5.89301.01501.03,11.65799-6.105.017Zm11.44-17.62399c4.10001-.01001,4.082-6.84299-.01801-6.83301l-5.38.01501.017,6.832,5.38101-.01401Zm15.58701,17.552l-.08-30.53299,15.287-.04001.01601,6.10699-9.18001.02399.01601,6.10599,8.02699-.01999.01601,6.10501-8.02699.022.01601,6.10699,9.69299-.026.01601,6.10599-15.80002.04202Zm28.908-.07599l-6.106.01599-.082-31.173,1.621-.004,15.464,17.89401-.04601-17.25201,6.14999-.01599.08099,31.13-1.62199.004-15.504-17.20999.04401,16.61099Zm37.979-8.47101c2.54932,1.7674,5.62279,2.61771,8.718,2.41199,1.793-.133,3.327-1.418,3.15201-3.08301-.133-1.75-1.45999-2.51599-3.16901-3.10901-4.787-1.73801-9.064-4.16101-9.077-9.285-.2151-4.93771,3.61333-9.1149,8.55103-9.32999.01633-.00073.03265-.0014.04898-.00201,2.59616-.1326,5.19034.29721,7.60501,1.26001l-.75299,5.896c-1.95288-.89935-4.08804-1.3324-6.237-1.26501-1.66895-.01547-3.03441,1.32492-3.04987,2.99387-.00134.14417.00764.28824.02687.43112.175,1.707,1.67201,2.47198,3.424,3.065,4.74399,1.73801,8.85001,4.45999,8.86401,9.328.013,5.082-3.478,8.97699-9.19901,9.29099-3.35599.13-6.68694-.62711-9.657-2.19501l.75195-6.40793Zm39.13799-22.778c21.01001-.056,21.09299,31.41701.08301,31.472s-21.09299-31.41699-.08301-31.472Zm.01599,6.27699c-12.21201.03201-12.16199,18.90701.04999,18.875,12.21301-.03299,12.164-18.90701-.04999-18.875Zm22.62399,14.07501l-.052-19.89999,6.10599-.01501.052,19.85699c.017,6.405,9.92401,6.379,9.90701-.026l-.052-19.85699,6.064-.01599.05301,19.89999c.03799,14.51801-22.04001,14.57599-22.078.05701Zm45.332,10.51401l-6.17999-11.642-2.94601.008.03101,11.65799-6.10699.01599-.07999-30.53299,12.04199-.03101c10.88901-.03,11.99701,15.298,3.03699,17.927l7.121,12.57901-6.918.01801Zm-9.14099-17.57001l5.38-.013c4.142-.01099,4.12399-6.84399-.01801-6.83301l-5.38.01401.01801,6.832Z"/><path class="cls-2" d="m384.79001,265.16084c-12.086.03201-12.03601,18.651.048,18.62,2.04446.00586,4.06183-.4678,5.89001-1.383l.828,6.31799c-2.14001.82318-4.40839,1.26257-6.70099,1.298-20.711.05499-20.75-30.94701-.082-31.00101,2.06824-.03021,4.12.3717,6.02399,1.17999l-.70901,6.27802c-1.61801-.90115-3.44748-1.35342-5.29901-1.31h.00101Zm12.91501,24.73401l-.07999-30.53201,15.28699-.04001.01599,6.10599-9.17999.02499.01599,6.10599,8.02798-.021.01599,6.10599-8.02802.01999.01599,6.108,9.69299-.026.01599,6.10699-15.79993.04108Z"/><path class="cls-2" d="m433.25,281.43083c2.54959,1.76761,5.62344,2.61795,8.71899,2.41199,1.793-.133,3.327-1.418,3.15201-3.08301-.133-1.75-1.45999-2.51599-3.16901-3.10901-4.78601-1.73801-9.06299-4.16101-9.077-9.285-.21512-4.93771,3.61331-9.1149,8.55103-9.33.01633-.00072.03265-.00137.04898-.002,2.59616-.1326,5.19034.29721,7.60501,1.26001l-.75299,5.896c-1.95288-.89935-4.08804-1.3324-6.237-1.26501-1.66895-.01547-3.03442,1.32492-3.0499,2.99387-.00134.14417.00766.28824.02689.43112.17499,1.707,1.672,2.47198,3.42401,3.065,4.74399,1.73801,8.85101,4.45999,8.86401,9.328.013,5.082-3.47699,8.97699-9.19901,9.29099-3.35599.13-6.68695-.62711-9.65701-2.19501l.75098-6.40793Zm24.33398-2.327l-.05301-19.89999,6.10599-.015.05301,19.85701c.017,6.405,9.923,6.37799,9.90601-.02701l-.052-19.85699,6.064-.01601.05301,19.90001c.03799,14.51901-22.04001,14.577-22.077.05801v-.00003Zm56.09601-20.517l1.922-.005.08197,31.00201-6.19199.01599-.00299-17.03799-7.79199,8.22-7.836-8.17899.04501,17.03799-6.19199.017-.082-31.002,1.965-.005,12.077,13.377,12.00598-13.44101Zm36.12299-.095l1.922-.005.08197,31.00201-6.19202.01599-.00299-17.03799-7.79199,8.22-7.83698-8.17899.04498,17.03799-6.19098.01599-.08197-31.00101,1.96399-.005,12.078,13.37601,12.00598-13.44Zm10.15698,30.97501l-.08002-30.532,6.10498-.017.08002,30.533-6.10498.01599Zm19.29999-.05099l-.065-24.42499-7.59998.01999-.01703-6.065,21.30902-.056.01599,6.064-7.60199.01999.065,24.42599-6.10602.01602Z"/></g><g><path class="cls-2" d="m221.91797,349.25915c0-5.80762,5.08545-10.68262,11.1333-10.68262,3.21973,0,6.13867,1.38379,8.18457,3.55078l-3.76123,3.33984c-1.05322-1.35352-2.67822-2.22656-4.42334-2.22656-3.15918,0-5.8374,2.76855-5.8374,6.01855,0,3.2793,2.67822,6.04785,5.8374,6.04785,1.77539,0,3.37012-.87305,4.45361-2.22656l3.73096,3.30957c-2.0459,2.19629-4.96484,3.58105-8.18457,3.58105-6.04785,0-11.1333-4.90527-11.1333-10.71191Z"/><path class="cls-2" d="m259.50342,349.71032v9.89941h-4.90479v-8.75586c0-1.71582-1.08301-2.91895-2.64795-2.91895-1.56445,0-2.73828,1.17285-2.73828,2.70801v8.9668h-5.08496v-21.0332h5.08496v7.22168c.96289-1.29395,2.58789-2.10645,4.54395-2.10645,3.37012,0,5.74707,2.49805,5.74707,6.01855Z"/><path class="cls-2" d="m262.96631,339.44958c0-1.41504,1.17383-2.64844,2.7085-2.64844,1.44434,0,2.64795,1.2334,2.64795,2.64844,0,1.47363-1.20361,2.70801-2.64795,2.70801-1.53467,0-2.7085-1.23438-2.7085-2.70801Zm.15088,4.60352h5.08496v15.55664h-5.08496v-15.55664Z"/><path class="cls-2" d="m287.4917,349.71032v9.89941h-4.90479v-8.75586c0-1.71582-1.08301-2.91895-2.64795-2.91895-1.56445,0-2.73828,1.17285-2.73828,2.70801v8.9668h-5.08496v-15.55664h5.08496v1.74512c.96289-1.29395,2.58789-2.10645,4.54395-2.10645,3.37012,0,5.74707,2.49805,5.74707,6.01855Z"/><path class="cls-2" d="m305.00684,350.37243v9.2373h-4.90479v-1.35449c-1.08301,1.11328-2.70801,1.71582-4.30273,1.71582-3.33984,0-5.86768-2.0166-5.86768-4.96484,0-3.03906,2.85889-5.17578,6.52979-5.17578,1.14355,0,2.4375.27051,3.64062.75195v-.20996c0-1.50488-1.11328-2.61816-3.3999-2.61816-1.38428,0-2.67822.39062-3.88184.99316l-1.62451-3.28027c2.16602-1.08301,4.39307-1.77539,6.80029-1.77539,4.00195,0,7.01074,2.52734,7.01074,6.68066Zm-4.90479,4.33301v-1.08398c-.84229-.39062-1.86523-.60156-2.91846-.60156-1.354,0-2.40723.78223-2.40723,1.83594,0,1.05273.96289,1.74512,2.22656,1.74512,1.53467,0,2.88867-.72266,3.09912-1.89551Z"/><path class="cls-2" d="m316.05371,355.42711l7.64258-5.7168c2.31738-1.74512,2.97949-2.88867,2.97949-4.15234,0-1.41504-1.23438-2.31738-2.73828-2.31738-1.92578,0-3.37012.93262-4.93457,2.58789l-3.21973-3.18945c2.19629-2.64844,4.87402-4.0625,8.27441-4.0625,4.63379,0,7.88379,2.82812,7.88379,6.77051,0,2.73828-1.14355,4.875-4.75391,7.3418l-3.25,2.31738h8.21484v4.60352h-16.09863v-4.18262Z"/><path class="cls-2" d="m334.92285,349.25915c0-6.25977,3.94141-10.68262,9.50879-10.68262,5.59668,0,9.53809,4.42285,9.53809,10.68262,0,6.28809-3.94141,10.71191-9.53809,10.71191-5.56738,0-9.50879-4.42383-9.50879-10.71191Zm13.75098,0c0-3.52148-1.74512-6.01855-4.24219-6.01855-2.46777,0-4.21289,2.49707-4.21289,6.01855,0,3.52051,1.74512,6.04785,4.21289,6.04785,2.49707,0,4.24219-2.52734,4.24219-6.04785Z"/><path class="cls-2" d="m356.59082,355.42711l7.64258-5.7168c2.31738-1.74512,2.97949-2.88867,2.97949-4.15234,0-1.41504-1.23438-2.31738-2.73828-2.31738-1.92578,0-3.37012.93262-4.93457,2.58789l-3.21973-3.18945c2.19629-2.64844,4.87402-4.0625,8.27441-4.0625,4.63379,0,7.88379,2.82812,7.88379,6.77051,0,2.73828-1.14355,4.875-4.75391,7.3418l-3.25,2.31738h8.21484v4.60352h-16.09863v-4.18262Z"/><path class="cls-2" d="m374.91895,356.5404l2.94922-3.40039c1.50391,1.50488,3.42969,2.25684,5.35547,2.25684,2.07617,0,3.21973-.87207,3.21973-2.07617,0-1.29395-.96289-1.95605-3.61035-1.95605l-2.4375.03027v-4.33301h2.4375c2.07617.03027,3.18945-.66211,3.18945-1.86523,0-1.26367-1.2334-2.0166-3.09961-2.0166-1.83496,0-3.33984.87305-4.69434,2.19727l-2.88867-3.12988c1.77539-2.07617,4.30371-3.6709,8.125-3.6709,4.875,0,7.82324,2.40723,7.82324,5.65723,0,2.31641-1.53418,4.0625-3.85156,4.72363,2.31738.54199,4.30273,2.16699,4.30273,4.81445,0,3.6416-3.24902,6.22949-8.24414,6.22949-3.82129,0-6.74023-1.41504-8.57617-3.46094Z"/></g></svg>