<svg xmlns="http://www.w3.org/2000/svg" role="img" xmlns:xlink="http://www.w3.org/1999/xlink" viewBox="-5.27 -3.77 442.78 150.03"><style>svg {enable-background:new 0 0 432 140.75}</style><path fill="none" d="M185.785 90.853h27.168l-13.64-41.3zm238.06-24.403c0-11.228-5.056-16.91-9.297-18.818-1.507-.678-3.165-1.021-4.93-1.021h-16.817v35.005c1.144.012 2.316.038 3.536.064 8.766.191 18.705.406 23.817-4.597 2.483-2.43 3.69-5.909 3.69-10.634z"/><path fill="#221f1f" d="M163.294 96.038c0 2.58-.573 5.058-1.658 7.168-2.535 4.927-6.995 7.426-13.257 7.426-4.172 0-7.421-1.179-9.657-3.504-3.659-3.804-3.48-9.517-3.478-9.571l-2.671-.116c-.012.278-.245 6.877 4.202 11.52 2.76 2.884 6.664 4.345 11.604 4.345 9.148 0 13.551-4.827 15.635-8.877 1.278-2.486 1.955-5.387 1.955-8.39V44.452h-2.675v51.585zm36.015-51.488c-.7 0-1.318.448-1.536 1.113l-22.12 66.877 2.81-.002 6.446-19.01h28.927l6.5 19.012h2.824l-22.316-66.879a1.613 1.613 0 0 0-1.535-1.11zm-13.524 46.303l13.528-41.3 13.64 41.3h-27.168zm50.073 21.528h32.336v-2.675h-29.662v-30.21h27.918v-2.675h-27.918v-30.21h29.662v-2.675h-32.336zm87.693-49.864c.014-.312.264-7.719-4.934-13.14-3.461-3.61-8.458-5.44-14.852-5.44-6.43 0-11.445 1.83-14.907 5.444-5.141 5.365-4.892 12.648-4.88 12.9V95.31c0 3.962 1.099 7.685 3.18 10.767 2.478 3.672 7.364 8.05 16.567 8.05 3.025 0 5.791-.304 8.22-.903 6.834-1.685 11.608-7.867 11.608-15.031V81.609h-17.11v2.674h14.435v13.91c0 5.93-3.937 11.045-9.574 12.435-2.22.547-4.77.824-7.58.824-6.444 0-11.273-2.312-14.35-6.872-1.78-2.638-2.722-5.844-2.722-9.27l-.001-33.087c-.003-.064-.222-6.442 4.138-10.992 2.938-3.065 7.304-4.62 12.976-4.62 5.625 0 9.966 1.547 12.902 4.597 4.41 4.581 4.215 11.133 4.212 11.197l2.672.112zm17.811 49.864h32.699v-2.675h-30.024v-30.21h27.486v-2.675h-27.486v-30.21h30.024v-2.675h-32.699zm73.342-29.369c2.812-.815 5.331-2.07 7.32-4.017 2.983-2.919 4.495-7.14 4.495-12.546 0-13.323-6.813-19.43-10.874-21.256-1.854-.834-3.881-1.257-6.026-1.257h-19.493v68.445h2.675V84.29c1.122.012 2.276.037 3.478.063 5.208.111 10.804.232 15.76-.701l14.162 28.834h2.966l-14.463-29.475zm-18.367-1.332c-1.22-.026-2.392-.052-3.536-.064V46.611h16.818c1.764 0 3.422.343 4.93 1.021 4.24 1.907 9.296 7.59 9.296 18.817 0 4.725-1.208 8.204-3.69 10.634-5.113 5.003-15.052 4.788-23.818 4.597z"/><defs><path id="a" d="M-5.551-5.095h133.895v153.058H-5.551z"/></defs><clipPath id="b"><use overflow="visible" xlink:href="#a"/></clipPath><g clip-path="url(#b)"><path d="M19.017 115.779c2.457 0 4.423-1.228 5.65-2.948l.247-.246c-.983-1.965-2.211-4.913-3.44-8.107a114.923 114.923 0 0 1-2.948-7.37c-.737.49-1.474 1.228-2.211 2.456-.983 1.229-1.72 3.44-2.211 5.65-.492 1.966-.492 4.177-.246 6.143.246.737.491 1.474.737 1.965.983 1.72 2.457 2.457 4.422 2.457m13.021-40.046c-1.965 0-3.44 1.474-3.44 3.44 0 1.965 1.475 3.44 3.44 3.44s3.44-1.475 3.44-3.44c0-1.72-1.474-3.44-3.44-3.44m34.395-8.353c-1.965 0-3.44 1.474-3.44 3.44 0 1.965 1.475 3.44 3.44 3.44 1.966 0 3.44-1.475 3.44-3.44 0-1.72-1.474-3.44-3.44-3.44M6.488 108.409c0 .982 1.965 1.72 5.65 2.702-.245-1.965 0-3.93.246-5.405-3.93.737-5.896 1.72-5.896 2.703m108.098-2.457c0 .246 0 .246-.245.491-.492.983-.983 1.966-1.966 2.703-1.72 1.474-3.194 2.456-4.422 2.948 7.125-.983 11.301-2.211 11.301-3.685.246-.983-1.474-1.72-4.668-2.457m-1.966-.492c.984-2.21.738-5.159-.245-7.37-1.474-3.93-4.913-6.879-8.107-6.879h-1.474c-1.72 0-3.931.491-4.177 2.211-.245 1.229.246 1.966 1.474 2.948 1.229 1.474 2.948 3.194 3.685 7.125v.737c.738 3.93 1.72 5.896 3.194 5.896.737 0 1.966-.491 4.177-2.456.737-.737 1.228-1.474 1.474-2.212M20.983 40.11c0-2.948-.246-5.896 0-6.633.491-1.72 11.301-14.25 18.671-15.724.492 0 1.229-.245 2.211-.245 8.108 0 23.831 5.896 25.551 6.879 0 .245.246.737.491 1.228-.982.983-1.72 2.211-1.965 3.93-.491 1.72-.246 3.195 0 4.423-8.353 3.685-28.744 11.547-44.222 7.37.245.492.737.983.983 1.474 1.228 1.966 1.965 3.931 2.456 5.16 6.388.982 20.392 1.228 42.257-8.6.491-1.227.983-3.193 1.965-5.158-.49.491-.737.491-1.228.491-.983-.246-1.474-2.211-.983-4.668.492-2.211 1.72-3.93 2.703-3.93h.245c.738.245 1.475 1.965.983 4.421 2.948-5.404 6.142-8.107 9.582-8.107 1.228 0 2.21.246 3.193.737 1.475-1.72 2.457-2.948 2.457-2.948-1.228.246-3.44.491-3.44.491 8.845-3.193 8.108-12.038 8.108-12.038 0 1.474-4.668 5.16-4.668 5.16.246-1.23-.491-2.949-.491-2.949.491 1.72-5.16 6.142-5.16 6.142.492-.737 0-2.21 0-2.21 0 1.719-2.456 2.21-2.456 2.21 1.474-1.72 4.422-11.547 2.211-12.038-2.211-.491-5.16 6.388-5.16 6.388 0-1.72-.982-1.72-.982-1.72.491 5.16-3.685 9.09-3.685 9.09-.246-.983-1.966-1.474-1.966-1.474.492.737.246 3.685 0 5.896-.982-.983-18.18-7.37-26.779-7.37-.982 0-1.72 0-2.456.245-4.423.983-9.827 5.651-12.776 8.354-3.44 3.193-6.879 7.37-7.124 8.844v4.914c.245.49.982 1.228 1.474 1.965"/><path d="M102.057 103.74c-.492-3.439-1.966-4.913-3.194-6.141s-2.211-2.457-1.966-4.422c.246-1.966 1.966-3.194 4.423-3.44-1.474-10.564-3.931-23.585-6.634-34.886-1.474-5.65-3.685-9.582-6.879-12.039.492-.245 1.229-.49 1.72-.737.737-.491 1.474-.737 1.966-1.228 6.879-3.93 7.861-5.65 8.107-6.633.246-.983 0-1.474-.246-1.966-.737-.737-1.965-1.228-3.93-1.228-2.212 0-5.16.491-8.354 1.228 0 .492 0 1.229-.245 1.72 3.193-.737 6.387-1.228 8.598-1.228 1.966 0 2.457.491 2.457.491v.491c0 .491-.983 1.966-7.37 5.65-1.966.984-3.931 2.212-6.388 3.44a180.132 180.132 0 0 1-9.581 4.423c-1.966.982-4.177 1.72-6.142 2.702.982-1.228 1.72-2.211 2.457-2.948 1.228-1.474.982-3.685-.492-4.914l-.246-.245c2.949-.737 6.388-.983 9.09-.983 2.457 0 4.177.246 4.177.246.737-.983 5.16-16.215-2.457-16.215-6.633 0-10.81 12.775-12.038 16.46-1.228-.245-2.457.246-3.44 1.229-3.93 4.913-9.335 10.564-10.81 11.301-.245 0-.49.246-.49.246-1.229-.983-2.703-.983-4.177-.246-1.229.737-1.72 1.965-1.474 3.194-.492 0-.737.245-.983.245-.491 0-1.474.246-2.457.246l-.245-.246c-.983-.982-2.457-.982-3.686-.49-.737 0-2.948-.247-8.844-2.458-5.896-2.456-8.599-2.948-10.073-3.194 1.229-.49 1.966-.737 1.966-.737S20 38.39 14.595 38.39c-.737 0-1.474.246-2.211.737-6.633 3.931 2.702 15.97 2.702 15.97.983-.738 2.212-1.475 3.44-1.966-.246.737-.491 1.474-.246 2.211.246 1.474 1.474 2.457 2.703 2.702-12.284-.49-14.495-1.965-14.741-2.702 0-.246-.246-.246 0-.491.491-1.229 2.457-2.457 4.668-3.44l-.737-1.474c-2.703 1.228-4.914 2.703-5.65 4.422-.246.737-.246 1.474.245 1.966.491.491 1.474 1.965 9.09 2.948.491 0 1.228 0 1.72.246-3.194 6.633-1.72 14.003-.737 19.9 1.228 6.633 5.405 17.197 8.599 25.304 1.474 3.686 2.948 6.88 3.685 8.845 9.827.983 22.356 1.474 36.114 1.474 16.215 0 30.71-.737 41.029-1.965-.737-2.457-1.72-6.88-1.966-8.354-.245-.737-.245-.982-.245-.982m-26.78-68.299v-.491c0-.492.246-1.229.246-1.966.246-.737.492-1.72 1.229-2.702a2.96 2.96 0 0 1 1.228-1.229c.492-.49.983-.737 1.72-.737h1.72s.491.246.491.492v.491s0 .246.246.246c.245.491.245.737 0 .982 0 .492-.246.983-.492 1.475-.245.49-.245.737-.491 1.228a14.141 14.141 0 0 0-.983 1.72l-.491.491s0-.246.246-.737c0-.491.245-.983.491-1.72 0-.491.246-.737.246-1.228v-1.719H79.7c-.246 0-.737.245-.983.49-.245.246-.737.492-.982.983l-1.475 2.211c-.49.737-.737 1.229-.982 1.72.245 0 0 .246 0 0 0 .246 0 .246 0 0m-23.831 19.9c.246 0 .246-.246.491-.246s.492 0 .737.246l.983.737 1.228-.246c.246 0 .492-.245.737-.245 2.457-1.229 9.09-9.09 11.547-11.793.246-.246.492-.246.737-.246.246 0 .492 0 .737.246.492.246.492.983.246 1.474-5.65 6.634-10.318 11.547-12.53 12.53-.982.491-1.72.737-2.702.737-.491 0-.983 0-1.474-.246-.983-.246-1.228-.983-1.474-.983.246-1.228.246-1.72.737-1.965M51.2 79.91c3.194-.491 6.142.491 6.634 2.457.245 1.965-2.212 3.93-5.405 4.422-3.194.491-6.142-.491-6.634-2.457-.491-1.965 2.211-3.93 5.405-4.422M19.51 48.954c-.246-.245-.737-.737-.983-1.228-.491-.491-.983-1.228-1.474-1.965-.246-.246-.491-.737-.737-.983s-.491-.737-.737-.737-.246-.246-.246-.246h-.246s0 .246-.245.246v.983c0 .49 0 .737.245.982 0 .737.246 1.229.246 1.72s.246.737.246.737v-.246s-.246-.245-.246-.491c-.246-.246-.737-.737-.983-1.474-.245-.246-.245-.737-.49-1.228 0-.492-.247-.983-.247-1.475 0-.245 0-.737.246-.982.246-.246.491-.737.983-.737h.737c.246 0 .737.245.983.491l1.228 1.228c.246.492.491.737.737 1.229.491.737.737 1.72.983 2.211.245.737.245 1.228.491 1.72v.737s-.246 0-.491-.492m1.72 6.142c-.492 0-.983-.245-.983-.737 0-.245 0-.737.245-.737 0-.245.246-.245.737-.491h.246c.737 0 3.194.246 9.827 2.948 5.65 2.211 8.353 2.703 9.827 2.703h.737l.492-.246h.491c.246 0 .492 0 .737.246.246.245.246.49.246.737 0 .245 0 .49-.246.737-.245.245-.491.737-2.457.737-2.21 0-5.896-.983-10.564-2.949-5.65-2.21-8.107-2.702-8.844-2.702l-.492-.246zm.49 20.392c0-6.142 5.16-11.302 11.302-11.302s11.301 5.16 11.301 11.302-5.159 11.3-11.301 11.3c-6.388 0-11.301-5.158-11.301-11.3m30.218 23.83c-2.457.738-3.194-1.965-3.44-3.193 1.23-.737 2.458-1.474 3.932-1.966.245 1.229 1.474 4.668-.492 5.16m3.685-.983c-.982-.492-1.72-3.44-1.965-4.914.246 0 .491 0 .737-.245h3.685c0 .49.246 1.228.246 2.456.491 3.194-1.966 2.948-2.703 2.703m9.828-7.616c-2.457.982-9.09.245-11.302.491-3.93.491-6.879 2.948-8.598 3.931-1.966.983-5.897 0-5.651-2.948.491-2.948 5.16-4.422 5.16-4.422.982.982 2.947 1.965 8.107 1.228s6.879-5.16 6.879-5.16c5.896 0 7.37 2.212 7.616 3.195.245.737.245 2.702-2.211 3.685m2.456-12.038c-6.142 0-11.3-5.16-11.3-11.302s5.158-11.3 11.3-11.3 11.302 5.158 11.302 11.3-4.914 11.302-11.302 11.302M32.53 124.87c-1.966.49-7.616 3.439-12.53 4.421s-9.09 1.474-10.81 1.966c-1.474.491-2.702 1.72.246 2.702 2.948 1.229 17.197 1.474 18.426 0 1.228-1.474-.983-2.21-3.931-2.21-2.211 0-1.966-.738-1.966-.738s.246-.983 3.44-1.474c3.44-.491 18.426-1.965 18.18-3.44-.245-1.474-9.336-1.72-11.055-1.228m-10.073 11.056c-1.474.245-2.703.982-2.703 1.474 0 .491 1.474.491 2.949.245s2.702-.982 2.702-1.474-1.474-.491-2.948-.245m-6.633-.246c-1.72.246-2.949.737-2.949.983 0 .491 1.474.737 3.194.491s2.948-.737 2.948-.983c-.245-.491-1.474-.737-3.193-.491m-5.651-.491c-1.228.245-1.966.491-1.966.982 0 .246.983.492 2.212.246 1.228-.246 1.965-.491 1.965-.983 0-.245-.983-.491-2.211-.245m-3.931-.492c-.983.246-1.965.492-1.965.737 0 .246.982.492 1.965.246.983-.246 1.965-.491 1.965-.737 0-.491-.982-.491-1.965-.246m-.737-.246c.983-.245 1.965-.49 1.965-.736s-.982-.492-1.965-.246-1.965.491-1.965.737.737.491 1.965.246m-.245-1.229c.982-.246 1.72-.491 1.72-.737s-.984-.491-1.966-.246c-.983.246-1.72.492-1.72.737.246.246.983.246 1.965.246m56.752-6.633c-3.44.246-11.055-.246-12.038 1.474-.983 1.72 3.194 2.457 9.581 1.965 6.634-.491 15.724-1.228 16.215-3.193.491-1.966-1.72-1.72-1.965-2.949s2.21-1.228 2.948-3.193c.491-1.966-3.44-1.72-6.88-1.72-3.439 0-9.335.245-9.826 2.21-.492 1.72 2.702 1.72 4.913 2.212 2.211.491 1.72 1.228 1.72 1.228-.246 1.229-1.228 1.72-4.668 1.966m-9.09 3.685c-1.72 0-2.948.491-2.948.983 0 .491 1.228.982 2.948.982s2.948-.49 2.948-.982-1.228-.983-2.948-.983m7.616 0c-.983 0-1.965.491-1.965.983 0 .491.982.982 1.965.982.983 0 1.965-.49 1.965-.982s-.982-.983-1.965-.983m6.142-.491c-1.228 0-2.211.245-2.211.737s.983.737 2.211.737 2.211-.246 2.211-.737c0-.492-.983-.737-2.211-.737"/><path d="M71.347 129.046c-.983 0-1.474.245-1.474.737 0 .491.737.737 1.474.737.983 0 1.474-.246 1.474-.737 0-.492-.491-.737-1.474-.737m4.176-.983c-.982 0-1.474.246-1.474.737s.737.737 1.474.737c.983 0 1.474-.246 1.474-.737 0-.246-.737-.737-1.474-.737"/></g></svg>