<svg width="152" height="227" viewBox="0 0 152 227" fill="none" xmlns="http://www.w3.org/2000/svg">
<path d="M54.3904 147.455C54.3904 146.643 54.7192 145.866 55.3017 145.301L74.0336 127.133C75.1974 126.004 77.0473 126.004 78.211 127.133L96.9429 145.301C97.5255 145.866 97.8543 146.643 97.8543 147.455V223.717C97.8543 225.374 96.5111 226.717 94.8543 226.717H57.3904C55.7335 226.717 54.3904 225.374 54.3904 223.717V147.455Z" fill="#FFFFFF"/>
<path d="M73.2187 0.931903C74.3903 -0.23967 76.2898 -0.239671 77.4614 0.931902L95.6822 19.1527C96.8538 20.3243 96.8538 22.2238 95.6822 23.3954L24.1974 94.8802C23.0258 96.0518 21.1263 96.0518 19.9547 94.8802L1.7339 76.6594C0.562332 75.4878 0.562331 73.5883 1.7339 72.4167L73.2187 0.931903Z" fill="#FFFFFF"/>
<path d="M73.2187 62.7102C74.3903 61.5387 76.2898 61.5386 77.4614 62.7102L95.6822 80.931C96.8538 82.1026 96.8538 84.0021 95.6822 85.1737L24.1974 156.659C23.0258 157.83 21.1263 157.83 19.9547 156.659L1.7339 138.438C0.562332 137.266 0.562331 135.367 1.7339 134.195L73.2187 62.7102Z" fill="#FFFFFF"/>
<path d="M109.902 31.2854C108.731 30.1138 106.831 30.1138 105.66 31.2854L87.4387 49.5062C86.2672 50.6778 86.2672 52.5773 87.4387 53.7489L128.721 95.0309C129.892 96.2024 131.792 96.2024 132.963 95.0309L151.184 76.81C152.356 75.6385 152.356 73.739 151.184 72.5674L109.902 31.2854Z" fill="#FFFFFF"/>
<path d="M109.902 92.9138C108.731 91.7423 106.831 91.7423 105.66 92.9138L87.4387 111.135C86.2672 112.306 86.2672 114.206 87.4387 115.377L128.721 156.659C129.892 157.831 131.792 157.831 132.963 156.659L151.184 138.438C152.356 137.267 152.356 135.367 151.184 134.196L109.902 92.9138Z" fill="#FFFFFF"/>
</svg>
