<svg xmlns="http://www.w3.org/2000/svg" viewBox="0 0 166.93 209.84"><defs><style>.cls-1{fill:none;}.cls-2{fill:#231815;}</style></defs><g id="書き出し用"><rect class="cls-1" width="166.93" height="209.84"/><path class="cls-2" d="M70.54,90.8c5.52-5.52,8.88-6.33,10.09-6.42a.6.6,0,0,1,.47.18L110,113.5c3.66,3.66-13.14,20.46-16.8,16.8l-29-29a.55.55,0,0,1-.17-.47C64.2,99.75,65,96.3,70.54,90.8Zm-11,5.8a.31.31,0,0,0,.51-.09,31,31,0,0,1,6.85-9.35,31,31,0,0,1,9.35-6.85.31.31,0,0,0,.09-.51l-4.13-4.13a12.67,12.67,0,0,1-.87-17c.42-.54.72-.84.72-1.28,0-1-.6-4.46-6.43-10.29-4.9-4.9-8.17-6.09-9.61-6.38a.69.69,0,0,0-.61.19h0a36.42,36.42,0,0,0,0,51.52Zm59.17-21.46a21,21,0,0,1-9.41,1.37l-.2,0c-6-.88-9.94-3.66-12.33-6.68a.59.59,0,0,0-1,0,12.51,12.51,0,0,1-1.08,1.23l-8,8a2,2,0,0,0,0,2.8l14,14a2,2,0,0,0,2.8,0l6.16-6.16c4.36-4.36,8.65-9.59,9.81-13.82A.6.6,0,0,0,118.71,75.14Zm-15-44.8C89.62,22.06,71.54,24.81,60,36.39c-.21.22,0,.27,0,.29a31.13,31.13,0,0,1,9.31,6.82c3.86,3.86,5.9,7.06,6.94,9.56.19.39.34.28.87-.15a12.94,12.94,0,0,1,17-.39A12.57,12.57,0,0,1,98.39,61,8.23,8.23,0,0,0,99,63.42a14.8,14.8,0,0,0,1.33,2.5c1.48,2.21,4.26,4.67,9.45,5.45,5.39.32,8.67-1.5,10.56-3.28a7,7,0,0,0,1.8-3.25A36.53,36.53,0,0,0,103.75,30.34ZM45.89,147.46a15.42,15.42,0,0,1,.41,3.73,16.7,16.7,0,0,1-.19,2.59,10.87,10.87,0,0,1-.63,2.4,6.92,6.92,0,0,1-1.24,2.08,5.71,5.71,0,0,1-2,1.45,8.46,8.46,0,0,1-2.67.77,30.61,30.61,0,0,1-3.48.16c-.79,0-1.43,0-1.92,0v11.9H27V142h8.52c.81,0,1.61,0,2.38.08a17.24,17.24,0,0,1,2.39.35,10.55,10.55,0,0,1,2.26.77,5.37,5.37,0,0,1,1.73,1.33A6.74,6.74,0,0,1,45.89,147.46Zm-6.76,3.85a8.28,8.28,0,0,0-.27-2.2,1.93,1.93,0,0,0-1.08-1.34,10.27,10.27,0,0,0-2.81-.25h-.78v7.66h.66a11,11,0,0,0,2-.14,3,3,0,0,0,1.41-.63,3,3,0,0,0,.71-1.37A7.77,7.77,0,0,0,39.13,151.31Zm10,1.75v19.52h6.48V153.06A9.86,9.86,0,0,0,49.15,153.06Zm0-2.79a10.55,10.55,0,0,1,6.48,0V142H49.15Zm26.71,3.85a14,14,0,0,1,.28,2.82v7.9a18.44,18.44,0,0,1-.24,3.06,9.36,9.36,0,0,1-.86,2.65,5,5,0,0,1-1.73,2,4.93,4.93,0,0,1-5.23.1,6.53,6.53,0,0,1-2.33-2.2h-.08v9.86H59.19V149.76h6v2.78h.09a6,6,0,0,1,5.29-3.43,4.66,4.66,0,0,1,4.34,2.49A8.9,8.9,0,0,1,75.86,154.12Zm-6.19,4c0-.49,0-.93,0-1.31a4.59,4.59,0,0,0-.22-1.14,2.09,2.09,0,0,0-.57-.93,1.42,1.42,0,0,0-1-.37,1.66,1.66,0,0,0-1.67,1.08,7.84,7.84,0,0,0-.45,2.95v5.38a8.7,8.7,0,0,0,.45,3A1.6,1.6,0,0,0,67.67,168a1.65,1.65,0,0,0,1.1-.35,2.18,2.18,0,0,0,.61-.89,3.88,3.88,0,0,0,.24-1.21c0-.43,0-.93,0-1.5Zm25.67-5.48a6.31,6.31,0,0,1,.69,3v6.52a33,33,0,0,0-11,.14v3.86a2.77,2.77,0,0,0,.49,1.69,1.84,1.84,0,0,0,1.5.71c1,0,1.56-.27,1.82-.81a7.68,7.68,0,0,0,.56-3.64,16.89,16.89,0,0,1,6.34.22c0,.14,0,.54,0,.54,0,2.58-.73,5.08-2.2,6.38a9.37,9.37,0,0,1-6.31,2,14,14,0,0,1-3.4-.39,8,8,0,0,1-2.77-1.24,5.8,5.8,0,0,1-1.88-2.22,7.24,7.24,0,0,1-.67-3.24v-9.29a9.3,9.3,0,0,1,.65-3.67A6,6,0,0,1,81,150.86a7.72,7.72,0,0,1,2.73-1.32,13.44,13.44,0,0,1,3.55-.43,14.35,14.35,0,0,1,3.38.37,8.58,8.58,0,0,1,2.75,1.14A5.62,5.62,0,0,1,95.34,152.68Zm-5.79,3a2.74,2.74,0,0,0-.53-1.57,2.26,2.26,0,0,0-3.44.09,4.19,4.19,0,0,0-.51,2.22v1.14a19.68,19.68,0,0,1,4.48-.29Zm21.5,3.29v4.41A13.21,13.21,0,0,1,111,165a5,5,0,0,1-.34,1.37,2.46,2.46,0,0,1-.82,1,2.3,2.3,0,0,1-1.4.41,2.5,2.5,0,0,1-2-.7,3,3,0,0,1-.61-2l0-15.11a4,4,0,0,1,.59-2.41,2.61,2.61,0,0,1,2.18-.77,1.87,1.87,0,0,1,1.67,1,14.63,14.63,0,0,1,.61,4.58l.12,3.05a10.27,10.27,0,0,1,7,0v-3.66c0-3-.84-6.93-2.52-8.35s-4.11-2.14-7.26-2.14-5.71.79-7.27,2.38-2.34,4-2.34,7.36v12.55c0,3.2.72,5.63,2.18,7.27s3.78,2.47,7,2.47c3.53,0,6.13-.8,7.82-2.39a8.58,8.58,0,0,0,2.53-6.54L118.1,159A7.78,7.78,0,0,0,111.05,159Zm28.85-8v13.57c0,3.15-1,5.35-3.05,6.6A7.67,7.67,0,0,1,134,172.3a19.47,19.47,0,0,1-3.5.28h-9.66V142h7.79a33.79,33.79,0,0,1,4.56.27,9.28,9.28,0,0,1,3.5,1.16,5.42,5.42,0,0,1,2.57,3A14.25,14.25,0,0,1,139.9,151Zm-7.13,11.89a5.76,5.76,0,0,0,0-.69v-10.8a7.17,7.17,0,0,0-.24-2.09,2.17,2.17,0,0,0-.78-1.13,3.21,3.21,0,0,0-1.36-.48,22,22,0,0,0-2.35-.17v19.56h.53a2.93,2.93,0,0,0,.45,0c1.55,0,2.57-.32,3.06-1A5.52,5.52,0,0,0,132.77,162.88Z"/></g></svg>