<?xml version="1.0" encoding="UTF-8"?>
<svg width="660px" height="320px" viewBox="0 0 660 320" version="1.1" xmlns="http://www.w3.org/2000/svg" xmlns:xlink="http://www.w3.org/1999/xlink">
    <!-- Generator: Sketch 51.3 (57544) - http://www.bohemiancoding.com/sketch -->
    <title>porter-horizontal-color</title>
    <desc>Created with Sketch.</desc>
    <defs>
        <path d="M47.9600586,28.3350806 C36.9989243,43.0564591 26.1390292,44.2695932 15.3803734,31.9744828 C7.67055762,24.7596972 10.2238712,15.5700017 13.9533466,8.71923073 C15.9637398,5.19818904 15.4587842,2.67365921 12.4384798,1.14564126 C9.00726316,-0.421582089 5.96611538,1.26052796 3.31503649,6.19197142 C-0.661581845,13.5891366 -1.70970588,25.2502609 5.51550145,35.3243111 C12.7407088,45.3983613 28.0375134,55.0860646 40.9068091,48.8538952 C49.4863396,44.6991156 54.3433424,39.4153199 55.4778176,33.0025079" id="path-1"></path>
        <circle id="path-3" cx="86.1432435" cy="51.8344979" r="51.3151763"></circle>
        <ellipse id="path-5" cx="57.9862714" cy="50.5958059" rx="57.9326742" ry="50.5645408"></ellipse>
        <rect id="path-7" x="0" y="0.296273699" width="23.2187762" height="13.4246228"></rect>
        <rect id="path-9" x="0" y="0.296273699" width="23.2187762" height="13.4246228"></rect>
        <polygon id="path-11" points="1.88334788 12.8975832 19.3307422 0.811402843 19.3307422 31.4839191"></polygon>
        <polygon id="path-13" points="0.358803826 15.1778949 17.8061982 3.09171461 17.8061982 33.7642309"></polygon>
    </defs>
    <g id="porter-horizontal-color" stroke="none" stroke-width="1" fill="none" fill-rule="evenodd">
        <g id="Group-3" transform="translate(68.179688, 45.523438)">
            <ellipse id="Oval-18" fill="#AFD5D0" fill-rule="nonzero" cx="89.7818533" cy="206.302267" rx="81.1059048" ry="17.681856"></ellipse>
            <g id="M-A-I-N-" transform="translate(0.988185, 0.342654)">
                <g id="torso" transform="translate(0.000000, 71.653571)">
                    <g id="Group" transform="translate(0.000000, 19.050296)">
                        <g id="TA-I.-L" transform="translate(0.000000, 9.577816)">
                            <g id="Group-2">
                                <mask id="mask-2" fill="white">
                                    <use xlink:href="#path-1"></use>
                                </mask>
                                <use id="T-A-I-L" stroke="#3C2E53" stroke-width="2" fill="#F7CD88" fill-rule="nonzero" xlink:href="#path-1"></use>
                                <ellipse id="Oval-5" fill="#FFFFFF" fill-rule="nonzero" mask="url(#mask-2)" cx="3.80485582" cy="6.86044826" rx="18.2945287" ry="20.5813448"></ellipse>
                            </g>
                            <path d="M47.9600586,28.3350806 C36.9989243,43.0564591 26.1390292,44.2695932 15.3803734,31.9744828 C7.67055762,24.7596972 10.2238712,15.5700017 13.9533466,8.71923073 C15.9637398,5.19818904 15.4587842,2.67365921 12.4384798,1.14564126 C9.00726316,-0.421582089 5.96611538,1.26052796 3.31503649,6.19197142 C-0.661581845,13.5891366 -1.70970588,25.2502609 5.51550145,35.3243111 C12.7407088,45.3983613 28.0375134,55.0860646 40.9068091,48.8538952 C49.4863396,44.6991156 54.3433424,39.4153199 55.4778176,33.0025079" id="T-A-I-L" stroke="#3C2E53" stroke-width="5" fill-rule="nonzero"></path>
                        </g>
                        <rect id="Rectangle-7" stroke="#3C2E53" stroke-width="6" fill="#F7CD88" fill-rule="nonzero" x="57.1278183" y="71.6044826" width="10.7699846" height="45.8344979" rx="5.38499231"></rect>
                        <rect id="Rectangle-7" stroke="#3C2E53" stroke-width="6" fill="#F7CD88" fill-rule="nonzero" x="105.913228" y="71.6044826" width="10.7699846" height="45.8344979" rx="5.38499231"></rect>
                        <mask id="mask-4" fill="white">
                            <use xlink:href="#path-3"></use>
                        </mask>
                        <use id="Oval-12" fill="#F7CD88" fill-rule="nonzero" xlink:href="#path-3"></use>
                        <ellipse id="Oval-13" fill="#FFFFFF" fill-rule="nonzero" mask="url(#mask-4)" cx="91.7449008" cy="64.1852775" rx="34.0409547" ry="35.7430024"></ellipse>
                    </g>
                    <circle id="Oval-12" stroke="#3C2E53" stroke-width="6" fill-rule="nonzero" cx="86.1432435" cy="70.8847943" r="48.3151763"></circle>
                    <path d="M119.438913,31.5398416 C138.381156,27.1888612 151.255042,22.2583241 158.060571,16.7482302 C168.268864,8.48308928 172.531393,6.54114357 176.44308,9.12040737 C181.441167,13.6966012 180.441066,18.2919562 172.400735,24.9158989 C170.222379,26.7105142 167.757785,28.7480829 164.714298,30.8872006 C156.524245,36.6435875 144.14212,43.1353453 121.864965,47.6069223" id="arm" stroke="#3C2E53" stroke-width="6" fill="#F7CD88" fill-rule="nonzero" transform="translate(149.467001, 27.831188) rotate(-17.000000) translate(-149.467001, -27.831188) "></path>
                    <path d="M21.6203142,72.0226713 C33.5200221,74.4403926 42.2189549,70.8883786 47.7171126,61.3666292 C53.2152704,51.8448799 58.7338787,48.3043424 64.2729378,50.7450168 C68.5107205,54.5802767 68.0357966,60.2700317 62.848166,67.8142818 C55.0667202,79.1306571 39.8206381,92.2647522 14.1968766,88.2219456" id="Path-29" stroke="#3C2E53" stroke-width="6" fill="#F7CD88" fill-rule="nonzero" transform="translate(40.663927, 69.484050) rotate(140.000000) translate(-40.663927, -69.484050) "></path>
                </g>
                <g id="head" transform="translate(24.405714, 0.000000)">
                    <g id="HEAD" transform="translate(2.065923, 25.366584)">
                        <mask id="mask-6" fill="white">
                            <use xlink:href="#path-5"></use>
                        </mask>
                        <use id="head" fill="#F7CD88" fill-rule="nonzero" xlink:href="#path-5"></use>
                        <ellipse id="Oval-4" fill="#FFFFFF" fill-rule="nonzero" mask="url(#mask-6)" cx="65.5553944" cy="87.6612833" rx="45.7363217" ry="29.7286091"></ellipse>
                    </g>
                    <ellipse stroke="#3C2E53" stroke-width="7" fill-rule="nonzero" cx="60.0521942" cy="75.9623895" rx="54.4326742" ry="47.0645408"></ellipse>
                    <g id="mouth" transform="translate(47.802244, 81.304798)">
                        <g id="Group-10" transform="translate(19.437937, 5.674255)">
                            <mask id="mask-8" fill="white">
                                <use xlink:href="#path-7"></use>
                            </mask>
                            <g id="Rectangle-5" fill-rule="nonzero"></g>
                            <ellipse id="Oval-10" fill="#3C2E53" fill-rule="nonzero" mask="url(#mask-8)" cx="12.3304399" cy="4.08694886" rx="9.86797989" ry="6.09817623"></ellipse>
                            <ellipse id="Oval-10" fill="#FFFFFF" fill-rule="nonzero" mask="url(#mask-8)" cx="12.7703269" cy="1.02485211" rx="9.86797989" ry="6.09817623"></ellipse>
                        </g>
                        <g id="Group-10" transform="translate(12.392705, 12.674255) scale(-1, 1) translate(-12.392705, -12.674255) translate(0.392705, 5.674255)">
                            <mask id="mask-10" fill="white">
                                <use xlink:href="#path-9"></use>
                            </mask>
                            <g id="Rectangle-5" fill-rule="nonzero"></g>
                            <ellipse id="Oval-10" fill="#3C2E53" fill-rule="nonzero" mask="url(#mask-10)" cx="12.3304399" cy="4.08694886" rx="9.86797989" ry="6.09817623"></ellipse>
                            <ellipse id="Oval-10" fill="#FFFFFF" fill-rule="nonzero" mask="url(#mask-10)" cx="12.7703269" cy="1.02485211" rx="9.86797989" ry="6.09817623"></ellipse>
                        </g>
                        <polygon id="Path-24" fill="#3C2E53" fill-rule="nonzero" points="17.1622925 0 26.3876087 0 21.7749506 9.22531618"></polygon>
                    </g>
                    <g id="eyes" transform="translate(40.948301, 59.192405)" fill-rule="nonzero">
                        <circle id="Oval" fill="#FFFFFF" cx="9.76308367" cy="9.3437876" r="9.14726434"></circle>
                        <circle id="Oval-2" fill="#FFFFFF" cx="44.827597" cy="9.3437876" r="9.14726434"></circle>
                        <ellipse id="Oval" fill="#3C2E53" cx="10.2841681" cy="9.3437876" rx="3.04908811" ry="6.09817623"></ellipse>
                        <ellipse id="Oval-2" fill="#3C2E53" cx="45.3486814" cy="9.3437876" rx="3.04908811" ry="6.09817623"></ellipse>
                    </g>
                    <g id="hat" transform="translate(21.478847, 0.218111)" fill-rule="nonzero">
                        <path d="M55.8769054,31.4615287 L46.207559,5.10805209 C30.5334952,0.499959617 15.9310986,4.89220572 2.40036931,18.2847904 C2.40036931,23.784125 2.40036931,23.784125 2.40036931,43.4720901 C12.8648858,46.0505704 30.6903978,42.0470499 55.8769054,31.4615287 Z" id="Path-14" fill="#FFFFFF" transform="translate(29.138637, 23.784125) rotate(1.000000) translate(-29.138637, -23.784125) "></path>
                        <path d="M54.692792,28.0018076 L45.5259332,2.90249678 C29.2873717,-2.2659703 14.4027263,1.8460885 0.87199706,15.2386732 C0.87199706,20.7380078 0.87199706,20.7380078 0.87199706,40.4259728 C11.3365136,43.0044532 29.2767785,38.8630647 54.692792,28.0018076 Z" id="Path-14" fill="#BB0048" transform="translate(27.782395, 20.955856) rotate(1.000000) translate(-27.782395, -20.955856) "></path>
                    </g>
                    <g id="l-ear" transform="translate(9.612640, 31.062994)">
                        <path d="M-3.16467375,9.00729667 L18.5399153,-6.02793279 L18.5399153,32.1287311 L-3.16467375,9.00729667 Z" id="Path-18" stroke="#3C2E53" stroke-width="7" stroke-linecap="square" fill-rule="nonzero" transform="translate(8.603034, 11.970364) scale(-1, 1) rotate(-5.000000) translate(-8.603034, -11.970364) "></path>
                        <mask id="mask-12" fill="white">
                            <use xlink:href="#path-11"></use>
                        </mask>
                        <use id="Path-18" fill="#F7CD88" fill-rule="nonzero" transform="translate(10.607045, 16.147661) scale(-1, 1) rotate(-5.000000) translate(-10.607045, -16.147661) " xlink:href="#path-11"></use>
                        <polygon id="Path-10" fill="#D67D54" fill-rule="nonzero" mask="url(#mask-12)" points="6.80113396 7.98562878 6.80113396 29.5138583 21.1994402 18.7497436"></polygon>
                    </g>
                    <g id="r-ear-fill" transform="translate(73.719493, 18.512640)">
                        <polygon id="Path-18" stroke="#3C2E53" stroke-width="7" fill-rule="nonzero" points="1.88334788 12.1288068 19.3307422 0.0426264941 19.3307422 18.5187903"></polygon>
                        <mask id="mask-14" fill="white">
                            <use xlink:href="#path-13"></use>
                        </mask>
                        <use id="Path-18" fill="#F7CD88" fill-rule="nonzero" xlink:href="#path-13"></use>
                        <polyline id="Path-12" fill="#D67D54" fill-rule="nonzero" mask="url(#mask-14)" points="4.92448574 15.9182174 14.2824171 8.17564772 14.2824171 23.1836227 4.92448574 16.9804852"></polyline>
                    </g>
                    <g id="bow-1" transform="translate(41.757665, 109.734614)" fill="#BB0048" fill-rule="nonzero">
                        <polygon id="Path-3" points="0.328540615 0.671454463 0.328540615 26.8120253 51.0722259 0.671454463 51.0722259 26.8120253"></polygon>
                        <circle id="Oval" stroke="#BB0048" cx="25.7003833" cy="13.7417399" r="5.37920051"></circle>
                    </g>
                    <g id="whiskers" transform="translate(0.000000, 68.604483)" fill-rule="nonzero" stroke="#3C2E53" stroke-linecap="round" stroke-width="6">
                        <path d="M110.320878,3.33126632 L122.873712,0.578746121" id="Path-26"></path>
                        <path d="M108.660123,15.2688337 L121.485379,16.0829717" id="Path-26"></path>
                        <path d="M10.1915124,20.7008836 L0.0751687689,21.6632486" id="Path-26"></path>
                        <path d="M9.91403288,9.6089477 L1.30926926,8.84538016" id="Path-27"></path>
                    </g>
                </g>
            </g>
            <path d="M196.547369,108.113441 L227.603707,108.113441 C238.237563,108.113441 246.160019,109.645115 251.371312,112.708511 C256.582606,115.771907 259.188214,121.247204 259.188214,129.134567 C259.188214,137.867005 256.019231,143.888072 249.681172,147.197948 C243.765649,150.226132 235.491084,151.740201 224.857228,151.740201 L224.012157,151.740201 L224.012157,180.05006 L237.216383,180.05006 L237.216383,182.057103 L196.547369,182.057103 L196.547369,180.05006 L203.413566,180.05006 L203.413566,110.120483 L196.547369,110.120483 L196.547369,108.113441 Z M224.012157,110.120483 L224.012157,149.733159 L226.230467,149.733159 C230.455841,149.733159 233.378347,148.289511 234.998073,145.402173 C236.617799,142.514835 237.42765,137.831783 237.42765,131.352877 L237.42765,126.282455 C237.42765,120.296509 236.670616,116.10641 235.156524,113.712032 C233.642432,111.317654 230.878375,110.120483 226.86427,110.120483 L224.012157,110.120483 Z M296.238122,161.247243 L296.238122,152.26837 C296.238122,145.43735 295.868407,140.455006 295.128967,137.321187 C294.389527,134.187369 292.681797,132.620483 290.005728,132.620483 C288.456424,132.620483 287.206437,133.060619 286.255728,133.940905 C285.305019,134.821191 284.618406,136.282444 284.195868,138.324708 C283.562062,141.493738 283.245164,146.317634 283.245164,152.796539 L283.245164,161.035976 C283.245164,168.71207 283.474035,173.3247 283.931784,174.874004 C284.389533,176.423307 284.86488,177.6909 285.35784,178.676821 C286.132492,180.36697 287.646561,181.212032 289.900094,181.212032 C292.646586,181.212032 294.442343,179.627541 295.287418,176.458511 C295.921224,174.204979 296.238122,169.134607 296.238122,161.247243 Z M289.688826,183.113441 C280.885965,183.113441 274.231102,180.859942 269.724037,176.352877 C265.216973,171.845812 262.963474,165.384609 262.963474,156.969074 C262.963474,148.553539 265.375422,142.074731 270.19939,137.532455 C275.023357,132.990178 281.801459,130.719074 290.533897,130.719074 C299.266335,130.719074 305.780354,132.814124 310.07615,137.004286 C314.371946,141.194447 316.519812,147.585229 316.519812,156.176821 C316.519812,174.134657 307.57624,183.113441 289.688826,183.113441 Z M357.055636,134.733159 C354.449989,134.733159 352.161279,136.423283 350.189439,139.803581 C348.217598,143.18388 347.231692,147.197924 347.231692,151.845835 L347.231692,180.155694 L354.731692,180.155694 L354.731692,182.057103 L321.773946,182.057103 L321.773946,180.155694 L327.583805,180.155694 L327.583805,133.676821 L321.773946,133.676821 L321.773946,131.775412 L347.231692,131.775412 L347.231692,141.916257 C348.14719,138.32469 349.907735,135.560633 352.513382,133.624004 C355.119029,131.687375 358.076746,130.719074 361.386622,130.719074 C364.696497,130.719074 367.390132,131.652164 369.467608,133.51837 C371.545083,135.384577 372.583805,138.025395 372.583805,141.440905 C372.583805,144.856415 371.809165,147.479629 370.259861,149.310624 C368.710558,151.141619 366.333821,152.057103 363.129579,152.057103 C359.925338,152.057103 357.566207,151.000775 356.052115,148.888088 C354.538023,146.775402 354.344363,143.852896 355.471129,140.120483 L359.273946,140.120483 C361.034518,136.528916 360.295089,134.733159 357.055636,134.733159 Z M381.640755,166.951469 L381.640755,133.676821 L375.830896,133.676821 L375.830896,131.775412 L381.640755,131.775412 L381.640755,118.148652 L401.288642,113.289497 L401.288642,131.775412 L415.021037,131.775412 L415.021037,133.676821 L401.288642,133.676821 L401.288642,169.275412 C401.288642,172.585288 401.623146,175.014841 402.292164,176.564145 C402.961181,178.113448 404.352012,178.888088 406.464699,178.888088 C408.577385,178.888088 410.425959,177.831761 412.010473,175.719074 C413.594988,173.606388 414.63371,170.719093 415.126671,167.057103 L416.922445,167.26837 C416.359062,172.127549 414.809782,175.983145 412.274558,178.835272 C409.739334,181.687398 405.549235,183.113441 399.704135,183.113441 C393.859036,183.113441 389.38725,181.95148 386.288642,179.627525 C383.190035,177.30357 381.640755,173.07826 381.640755,166.951469 Z M448.05686,183.113441 C438.972308,183.113441 432.158996,180.771915 427.61672,176.088793 C423.074443,171.405671 420.803339,164.891651 420.803339,156.546539 C420.803339,148.201427 423.356131,141.810646 428.46179,137.374004 C433.567449,132.937362 440.063863,130.719074 447.951227,130.719074 C463.937222,130.719074 471.613202,138.747163 470.979396,154.803581 L441.190663,154.803581 L441.190663,158.9233 C441.190663,165.824743 442.070936,171.035958 443.831508,174.557103 C445.592081,178.078247 448.65543,179.838793 453.021649,179.838793 C461.190704,179.838793 466.542763,175.472639 469.077987,166.740201 L470.979396,167.057103 C469.641361,172.12755 467.229413,176.071173 463.74348,178.888088 C460.257547,181.705004 455.028726,183.113441 448.05686,183.113441 Z M441.296297,152.690905 L452.176579,152.690905 L452.176579,147.514849 C452.176579,141.810595 451.842075,137.919789 451.173058,135.842314 C450.50404,133.764839 449.166025,132.726117 447.158973,132.726117 C445.151921,132.726117 443.673062,133.83526 442.722353,136.053581 C441.771644,138.271902 441.296297,142.092287 441.296297,147.514849 L441.296297,152.690905 Z M512.36029,134.733159 C509.754643,134.733159 507.465933,136.423283 505.494093,139.803581 C503.522252,143.18388 502.536346,147.197924 502.536346,151.845835 L502.536346,180.155694 L510.036346,180.155694 L510.036346,182.057103 L477.0786,182.057103 L477.0786,180.155694 L482.888459,180.155694 L482.888459,133.676821 L477.0786,133.676821 L477.0786,131.775412 L502.536346,131.775412 L502.536346,141.916257 C503.451844,138.32469 505.212389,135.560633 507.818036,133.624004 C510.423683,131.687375 513.3814,130.719074 516.691276,130.719074 C520.001151,130.719074 522.694786,131.652164 524.772262,133.51837 C526.849737,135.384577 527.888459,138.025395 527.888459,141.440905 C527.888459,144.856415 527.113819,147.479629 525.564515,149.310624 C524.015212,151.141619 521.638475,152.057103 518.434233,152.057103 C515.229992,152.057103 512.870861,151.000775 511.356769,148.888088 C509.842677,146.775402 509.649017,143.852896 510.775783,140.120483 L514.5786,140.120483 C516.339172,136.528916 515.599743,134.733159 512.36029,134.733159 Z" id="Porter" fill="#3C2E53"></path>
        </g>
    </g>
</svg>