<svg width="148" height="134" viewBox="0 0 148 134" fill="none" xmlns="http://www.w3.org/2000/svg">
<rect width="24.7561" height="24.7561" transform="matrix(-0.866041 0.499972 0.866041 0.499972 52.5613 5.10938)" fill="#D4D4D4"/>
<path fill-rule="evenodd" clip-rule="evenodd" d="M52.5613 29.8631L31.1223 17.4844L31.1225 22.5612L31.1223 22.5611L31.1229 42.2476L31.1194 42.2455L31.1202 67.0017L52.5592 79.3804L52.5586 59.6939L52.5621 59.696L52.562 54.6191L52.5621 54.6192L52.5613 29.8631Z" fill="#BFBFBF"/>
<rect width="24.7561" height="24.7561" transform="matrix(-3.17834e-05 1 0.866009 -0.500028 9.68115 54.6211)" fill="#999999"/>
<rect width="24.7561" height="24.7561" transform="matrix(-0.866009 -0.500028 3.18033e-05 1 52.5637 104.129)" fill="#BFBFBF"/>
<path fill-rule="evenodd" clip-rule="evenodd" d="M31.1194 66.9922L9.67953 79.3696L31.1194 91.7469L31.124 91.7443L31.1307 91.7481L31.124 91.752L52.5638 104.129L74.0037 91.752L52.5638 79.3746L52.5441 79.386L52.5374 79.3821L52.5592 79.3696L31.1194 66.9922Z" fill="#D4D4D4"/>
<path fill-rule="evenodd" clip-rule="evenodd" d="M74.0035 91.7558L52.5645 104.135L52.5637 128.891L73.998 116.515V116.525L95.437 104.146L95.4378 79.3898L74.0035 91.7658V91.7558Z" fill="#999999"/>
<rect width="24.7561" height="24.7561" transform="matrix(0.866041 -0.499972 -0.866041 -0.499972 95.4387 128.895)" fill="#D4D4D4"/>
<rect width="24.7561" height="24.7561" transform="matrix(-0.86601 0.500028 -3.19781e-05 1 138.32 54.6133)" fill="#999999"/>
<path fill-rule="evenodd" clip-rule="evenodd" d="M116.879 66.992L95.4403 54.6133L95.4411 79.3694L95.4812 79.3926L95.4812 79.4082L95.4379 79.3832L95.4386 104.139L116.878 116.518L116.877 91.7619L116.843 91.7426L116.843 91.727L116.88 91.7481L116.879 66.992Z" fill="#BFBFBF"/>
<path fill-rule="evenodd" clip-rule="evenodd" d="M74.0018 17.4823L52.5628 29.8611L52.562 54.6172L68.4925 45.419L68.4925 45.4712L89.9315 33.0925V33.0525L95.4391 29.8725L95.4399 5.11636L74.0018 17.4945V17.4823Z" fill="#999999"/>
<rect width="24.7561" height="24.7561" transform="matrix(0.86601 0.500028 -3.18907e-05 -1 95.4404 29.8672)" fill="#BFBFBF"/>
<path fill-rule="evenodd" clip-rule="evenodd" d="M116.88 42.2374L116.872 42.2418L95.4406 29.8692L74.0007 42.2465L80.2445 45.8511L80.126 45.9196L101.566 58.297L101.692 58.2241L116.88 66.9922L138.32 54.6148L116.88 42.2374Z" fill="#D4D4D4"/>
</svg>
