<svg xmlns="http://www.w3.org/2000/svg" role="img" viewBox="-12.15 -12.15 493.80 631.80"><g fill="#FFF" fill-rule="nonzero" transform="translate(.333 .277)" stroke="none" stroke-width="1"><path d="M234.25773 0c4.28872 0 9.11353.53628 13.40225 2.68139l163.50755 78.29654c8.04136 4.29022 14.47444 11.26183 17.1549 19.84228l40.74286 175.3628c1.07218 9.11672-1.07218 18.23344-6.43309 25.74133L349.51715 441.89282c-5.897 8.04416-15.01053 12.33439-24.66016 11.26183H144.19455c-9.11353-.53628-18.22707-4.8265-24.66015-11.26183L6.41934 301.92434c-5.3609-7.50789-7.50527-16.6246-5.897-25.74133L41.26521 99.74765c2.14436-9.11672 8.04135-16.08833 16.0827-19.84227L220.85548 1.07256C225.14419 0 229.969 0 234.25773 0zm98.50875 389.17876c-5.29405-10.8582-18.38495-15.36733-29.23935-10.07143-10.8544 5.2959-15.36196 18.39137-10.06791 29.24956 5.29404 10.8582 18.38494 15.36733 29.23934 10.07144 10.8544-5.2959 15.36196-18.39137 10.06792-29.24957zM165.8062 379.10733c-10.8544-5.2959-23.9453-.78676-29.23934 10.07143-5.29405 10.8582-.78649 23.95367 10.06791 29.24957s23.9453.78676 29.23935-10.07144c5.29404-10.85819.78648-23.95367-10.06792-29.24956zm76.86286-289.3088l-1.55605.31969c-2.09097.38108-4.24542.58014-6.44634.58014-2.75116 0-5.4297-.31102-8.0024-.89982l.003 29.44003c-31.61069 2.09058-59.86082 16.48064-80.0121 38.43024l-21.85545-17.70703c-1.04356 1.9391-2.28202 3.80905-3.71817 5.58316-2.02886 2.50632-4.32676 4.66633-6.81852 6.47215l22.38377 18.12778C123.12884 189.51146 115.2 213.07112 115.2 238.48332c0 6.40745.50408 12.69713 1.47472 18.83151l-24.97674 5.76423c.6156 1.5859 1.12542 3.23518 1.51921 4.94145.85095 3.68714 1.09827 7.37273.8067 10.95318l26.21102-6.05188c8.89636 29.62274 28.97307 54.4055 55.32615 69.44255l-10.60027 21.736c2.34477.5941 4.66413 1.43666 6.92416 2.53934 2.68596 1.31048 5.1341 2.91323 7.3248 4.75129l10.7515-22.04802c13.80903 5.5779 28.89873 8.64877 44.70542 8.64877 15.80668 0 30.89638-3.07087 44.70542-8.64877l10.75149 22.04802c2.1907-1.83806 4.63884-3.4408 7.3248-4.7513 2.25877-1.10205 4.5768-1.94428 6.92025-2.53835l-10.6017-21.73394c26.35571-15.03675 46.43453-39.82085 55.33149-69.44559l26.21103 6.05188c-.29158-3.58045-.04425-7.26604.8067-10.95318.39378-1.70627.9036-3.35556 1.5192-4.94145l-24.97674-5.76423c.97065-6.13438 1.47472-12.42406 1.47472-18.8315 0-25.40987-7.92739-48.96755-21.44307-68.33313l22.38104-18.13239c-2.49214-1.80596-4.79038-3.96622-6.81952-6.47287-1.43615-1.77411-2.6746-3.64406-3.71817-5.58316l-21.85544 17.70703c-20.1513-21.9496-48.40142-36.33966-80.0121-38.43024l.003-29.44003zm-8.0024 46.249l2.57866.03185 2.53456.09364 2.42048.14753c26.53016 1.92987 50.25621 13.97082 67.34315 32.2864a103.0253 103.0253 0 0 1 2.92968 3.27765l1.19472 1.43462 2.12262 2.64662a102.7661 102.7661 0 0 1 3.59614 4.96185l1.11056 1.66744c10.4792 16.07186 16.56944 35.26855 16.56944 55.8882 0 5.113-.37448 10.1385-1.0975 15.05057l-.5787 3.50726-.608 3.0587a101.70725 101.70725 0 0 1-2.3584 8.96953l-.6516 2.01244c-7.99795 23.85118-24.53123 43.785-45.96984 56.17022l-2.84405 1.57217-2.3925 1.25297-1.43746.70816-1.45003.68623-2.5401 1.13583-3.16294 1.3002c-11.56066 4.52656-24.14468 7.0115-37.30888 7.0115-13.25413 0-25.9201-2.519-37.54564-7.10455l-2.06645-.8449-.85333-.36279-2.21867-.987-.61025-.27975-2.81936-1.37091a102.16107 102.16107 0 0 1-5.49002-2.98904l-1.77121-1.05988c-21.00247-12.85712-37.0138-33.07402-44.4485-57.06307a101.68111 101.68111 0 0 1-1.75145-6.37766l.01521.06544.134.534-.75956-3.30503-.53808-2.7301-.5896-3.58078-.09172-.64026c-.65613-4.68566-.99537-9.47295-.99537-14.3395 0-21.42122 6.57295-41.3067 17.81228-57.74965a102.76152 102.76152 0 0 1 3.4173-4.70745l2.22671-2.7901a102.90348 102.90348 0 0 1 1.84802-2.17298l2.38132-2.62995.53555-.56706c17.49295-18.3824 41.74355-30.27043 68.7671-31.678l2.6091-.10298 2.80262-.03763zm181.1859 118.70037c-11.7671-2.7176-23.5085 4.6218-26.22515 16.39302-2.71665 11.77122 4.62019 23.51672 16.3873 26.23432 11.7671 2.7176 23.5085-4.6218 26.22515-16.39302 2.71665-11.77122-4.6202-23.51672-16.3873-26.23432zM79.70593 271.14092c-2.71665-11.77121-14.45806-19.11062-26.22516-16.39302-11.7671 2.7176-19.10395 14.4631-16.3873 26.23432 2.71665 11.77122 14.45806 19.11062 26.22516 16.39302 11.7671-2.7176 19.10395-14.4631 16.3873-26.23432zm212.33772-64.57542c-3.11095 0-5.97606.35449-8.59476 1.06462-2.64198.71645-4.9279 1.78118-6.85405 3.19511-1.94494 1.42773-3.45634 3.19549-4.52717 5.29609-1.07287 2.10461-1.6081 4.5207-1.6081 7.2399 0 2.66793.51602 4.96904 1.553 6.896 1.02152 1.8982 2.36365 3.52482 4.02262 4.87504 1.63388 1.32978 3.49813 2.45334 5.59111 3.37058a75.5352 75.5352 0 0 0 6.25496 2.41642c2.10178.7065 4.1684 1.38477 6.19984 2.0348 1.98577.63543 3.74692 1.35198 5.2827 2.14864 1.4932.77459 2.69074 1.66851 3.59521 2.67957.8377.9364 1.25357 2.0932 1.25357 3.5075 0 1.6461-.30703 3.01747-.91454 4.12045-.61507 1.11672-1.42992 2.0161-2.45093 2.70645-1.04303.70524-2.2543 1.21641-3.63807 1.53324-1.41943.325-2.90152.48762-4.44724.48762-1.7222 0-3.2893-.30958-4.70745-.92779-1.41994-.61899-2.65284-1.49268-3.70442-2.62505-1.0602-1.14165-1.91694-2.506-2.57097-4.09706-.12707-.30911-.31496-.87875-.53431-1.61598l-.2357-.82143-.09362-.48321-.12856-.57289-.0969-.28248c-.5564-1.5214-1.8552-2.28448-3.95353-2.28448h-4.01935c-2.5423 0-3.8676 1.64345-3.62643 4.04435l.02958.23167c.35216 2.21493.98637 4.24922 1.90729 6.12334 1.383 2.81446 3.19197 5.21802 5.42432 7.20571 2.22878 1.98452 4.7578 3.50309 7.58255 4.55324 2.8209 1.04871 5.73153 1.5735 8.7275 1.5735 3.31034 0 6.36075-.39034 9.15045-1.1722 2.81186-.78808 5.25326-1.9601 7.32007-3.51652 2.0857-1.57065 3.71553-3.5445 4.88322-5.91347 1.16858-2.37078 1.75113-5.12858 1.75113-8.26701 0-2.61335-.51699-4.874-1.55553-6.7737-1.02203-1.8695-2.36448-3.47425-4.02346-4.80963-1.63424-1.31547-3.4988-2.42462-5.59203-3.32741-2.04708-.88288-4.13668-1.6874-6.26878-2.41354a558.86787 558.86787 0 0 0-2.1012-.71101l-4.11798-1.36558c-1.98568-.6492-3.74675-1.3795-5.28251-2.1899-1.49212-.78737-2.68892-1.70062-3.59346-2.73801-.84189-.96554-1.2603-2.15374-1.2603-3.59977 0-1.26233.2698-2.30644.80415-3.14583.55243-.86777 1.27854-1.56987 2.18597-2.11273.9354-.5596 2.00622-.96478 3.21543-1.21493 1.24218-.25697 2.49746-.38542 3.76668-.38542 1.3784 0 2.67207.20478 3.88416.6139 1.19371.40291 2.25445 1.01837 3.18788 1.8495.92944.82759 1.6877 1.88005 2.27598 3.1634.30419.66357.55207 1.39347.7432 2.18997l.03753.14063c.55795 1.89153 1.99033 3.04476 4.16611 3.04476h4.16888c2.52544 0 3.81906-1.82434 3.36681-4.19066-.2262-1.1836-.53235-2.37768-.91831-3.58215-.76563-2.38927-2.00261-4.56537-3.70707-6.52294-1.71314-1.96755-3.97042-3.56682-6.76529-4.79807-2.79795-1.2326-6.27682-1.84515-10.43988-1.84515zm-131.18707 1.17744c-1.43043 0-2.58991 1.15989-2.58991 2.59068v55.30274c0 1.4308 1.15948 2.59069 2.58978 2.59069h34.42168c1.42585 0 2.58348-1.15296 2.58976-2.57929l.0235-5.34059-.00623-.18871c-.10026-1.36358-1.22513-2.41337-2.58354-2.41337l-24.30885-.00188c-.9879 0-1.78897-.80066-1.78981-1.78887l-.04277-45.58106c-.00123-1.42993-1.16035-2.58847-2.58978-2.58847zm41.03253 0h-5.06448c-.21262 0-.4244.02685-.63044.07994-1.3689.35271-2.1949 1.76176-1.84878 3.1466l13.61532 54.47687c.4085 1.63449 1.85965 2.7807 3.5248 2.7807h4.57493c1.61939 0 3.04245-1.08525 3.49257-2.66033l10.45676-36.59366.0466-.13125c.07176-.16573.23093-.30838.42486-.36552.35796-.10546.73374.10447.839.47282l10.46442 36.61761c.45012 1.57509 1.87319 2.66033 3.49257 2.66033h4.49416c1.66333 0 3.11336-1.14375 3.52359-2.7759l13.6926-54.4783a2.62265 2.62265 0 0 0 .07908-.63923c0-1.42947-1.14367-2.59068-2.55745-2.59068h-4.99564c-1.66058 0-3.10896 1.14005-3.52177 2.76865l-8.36672 33.0085c-.05946.2346-.2337.41992-.45905.49028-.35625.11124-.73515-.09251-.84615-.459l-10.05683-33.20433c-.46852-1.5469-1.87808-2.6041-3.47602-2.6041h-4.27662c-1.59895 0-3.00916 1.05853-3.47682 2.60676l-10.12726 33.52725c-.07048.23332-.25506.41103-.4855.4694-.36167.0916-.72962-.13282-.82111-.50521l-8.18224-33.30306c-.4033-1.64153-1.85774-2.79514-3.52838-2.79514zm191.12628-98.45952c-7.60007-9.38858-21.36943-10.8363-30.75473-3.23358-9.3853 7.60272-10.83252 21.3769-3.23245 30.76548 7.60006 9.38858 21.36943 10.8363 30.75473 3.23358 9.3853-7.60272 10.83252-21.3769 3.23245-30.76548zm-285.94272-3.23358c-9.3853-7.60273-23.15466-6.155-30.75473 3.23358-7.60006 9.38858-6.15285 23.16276 3.23246 30.76548 9.3853 7.60272 23.15466 6.155 30.75473-3.23358 7.60006-9.38858 6.15284-23.16276-3.23246-30.76548zm127.594-72.97162c-12.07663 0-21.86667 9.79347-21.86667 21.87431 0 12.08085 9.79004 21.87431 21.86667 21.87431 12.07662 0 21.86666-9.79346 21.86666-21.8743 0-12.08085-9.79004-21.87432-21.86666-21.87432z"/><path d="M340.15366 494.35503c7.42123 0 13.62045 1.09462 18.61173 3.29348 4.993 2.19961 9.02554 5.05883 12.08748 8.57548 3.04589 3.49821 5.25678 7.38827 6.6251 11.65837.68739 2.14512 1.2326 4.2718 1.6355 6.37993.85618 4.47986-1.69696 7.77508-6.25474 7.77508h-7.38439c-3.892 0-6.61171-2.03936-7.6658-5.6132l-.06831-.25635c-.3339-1.39147-.76664-2.66636-1.29765-3.82476-1.02427-2.23443-2.34255-4.06608-3.95914-5.5055-1.62372-1.44577-3.46784-2.5157-5.54446-3.21662-2.11704-.71456-4.37672-1.07184-6.78532-1.07184-2.22803 0-4.43142.22546-6.61197.67655-2.10808.4361-3.9742 1.14147-5.60345 2.11614-1.56747.93773-2.82026 2.14868-3.77418 3.64714-.91747 1.44121-1.37803 3.23805-1.37803 5.41302 0 2.48724.71406 4.52386 2.15938 6.18146 1.57927 1.81123 3.67172 3.40615 6.28008 4.78254 2.70614 1.42798 5.81057 2.71505 9.31197 3.85981l7.29539 2.41925c1.23269.41438 2.47369.83432 3.723 1.2598 3.78401 1.28876 7.49264 2.71662 11.12578 4.28355 3.7331 1.61004 7.0586 3.58867 9.9737 5.93514 2.9689 2.38979 5.37202 5.26247 7.20103 8.60809 1.86226 3.40645 2.79166 7.4578 2.79166 12.14058 0 5.6078-1.04322 10.5362-3.13234 14.77455-2.08895 4.23798-5.00592 7.77044-8.73728 10.58035-3.68943 2.77834-8.04659 4.87113-13.06442 6.27747-4.96652 1.39196-10.39621 2.08733-16.28826 2.08733-5.34198 0-10.5326-.93583-15.56236-2.80573-5.03814-1.873-9.5496-4.58205-13.52487-8.12165-3.9824-3.54593-7.21018-7.83398-9.67709-12.85424-1.64557-3.3488-2.77716-6.98095-3.40641-10.93957l-.0533-.41826c-.45412-4.52099 2.13057-7.4899 6.71839-7.4899h7.11952c3.81815 0 6.24523 1.40827 7.28323 4.24676l.1805.53165.2295 1.02328.15975.83055.41667 1.45222c.38856 1.30594.7177 2.302.93648 2.83424 1.14455 2.78436 2.64267 5.17133 4.49704 7.16817 1.83495 1.97592 3.9852 3.49966 6.46296 4.57978 2.4756 1.07918 5.21158 1.61873 8.22 1.61873 2.71528 0 5.31842-.28547 7.81133-.85625 2.41404-.55272 4.52628-1.44322 6.34434-2.6725 1.76998-1.19677 3.18114-2.75486 4.24777-4.69142 1.05311-1.91202 1.58315-4.29489 1.58315-7.15556 0-2.4298-.70862-4.40962-2.14495-6.01521-1.57923-1.76533-3.67332-3.32669-6.28385-4.68087-2.70618-1.4038-5.81077-2.66663-9.3112-3.78673-3.59967-1.15185-7.26165-2.35372-10.98596-3.60562a134.09216 134.09216 0 0 1-11.104-4.28972c-3.73253-1.63576-7.05737-3.64-9.97172-6.01193-2.96878-2.41624-5.37125-5.32785-7.19922-8.72464-1.85891-3.45429-2.78627-7.57652-2.78627-12.3555 0-4.866.95997-9.19078 2.8808-12.9588 1.91762-3.76174 4.62502-6.92882 8.1077-9.48536 3.44015-2.52532 7.5216-4.42754 12.23846-5.70666 4.66289-1.26447 9.76352-1.8961 15.30155-1.8961zm-248.578 2.0856l10.93606.00333c2.69552 0 4.88133 2.1847 4.88364 4.88114l.07576 80.73837c.00136 1.58683 1.28767 2.87248 2.87401 2.87248l42.6439.00332c2.56234 0 4.68287 1.9803 4.87241 4.5615l.01118.34535-.04162 9.45986c-.01183 2.68969-2.19482 4.86385-4.8836 4.86385h-59.424c-3.48983 0-6.8317-3.2951-6.8317-6.77624v-96.0676c0-2.69815 2.18652-4.88536 4.88397-4.88536zm80.98395 0c3.09514 0 5.79056 2.13607 6.53763 5.17677l14.4933 58.99016c.12276.49963.61259.80019 1.09397.67826.30748-.07788.55431-.31625.64903-.62982l17.93856-59.38727c.8663-2.86798 3.47977-4.8281 6.4422-4.8281h7.57523c2.96055 0 5.57282 1.95767 6.44071 4.82316l17.81381 58.81528c.14882.49136.65287.76405 1.1269.61604.30098-.09398.5342-.3428.61419-.65835l14.82008-58.4684c.76467-3.01676 3.44888-5.12772 6.5254-5.12772h8.84885c2.66717 0 4.82636 2.18882 4.82636 4.88534a4.942 4.942 0 0 1-.149 1.20457l-24.2539 96.49815c-.75989 3.02332-3.44717 5.14113-6.52878 5.14113h-7.96056c-3.00024 0-5.63754-2.00954-6.47134-4.92722l-18.53578-64.86128c-.14116-.49396-.64115-.77497-1.1175-.63463-.25364.07473-.46998.26297-.55703.4623l-.07688.21475-18.5222 64.81886c-.8338 2.91768-3.4711 4.92722-6.47134 4.92722h-8.10364c-3.08499 0-5.7743-2.12236-6.531-5.15002l-24.11702-96.49562c-.65273-2.61166.90652-5.26735 3.48835-5.93258a4.77138 4.77138 0 0 1 1.1906-.15098h8.9708z"/></g></svg>