<svg xmlns="http://www.w3.org/2000/svg" role="img" viewBox="-11.85 -12.85 824.20 359.70"><g transform="translate(0 .786)"><path fill="#f6c93f" d="M652.58296 330.61549c-2.24563.18269-4.75796.0471-5.58296-.3012-.825-.34835-10.13265-5.72311-20.68366-11.94393-10.55101-6.22081-28.55101-16.77003-40-23.4427-11.44899-6.67267-31.39134-18.3128-44.31634-25.86695-12.925-7.55415-25.64084-14.95407-28.25741-16.44427-2.61658-1.49019-5.54158-3.90588-6.5-5.3682-1.61162-2.45893-1.76364-8.35833-2.0227-78.49121-.26707-72.29955-.19283-76.0287 1.59341-80.04474 1.64716-3.70333 3.31218-5.07083 13.78012-11.31784C527.14204 73.4864 543.075 64.08063 556 56.49275c12.925-7.5879 31.15-18.29676 40.5-23.79747 9.35-5.5007 22.94297-13.5484 30.20659-17.88374 7.26363-4.33534 15.71481-9.03074 18.7804-10.43422 4.5971-2.10462 6.08647-2.37306 8.49935-1.53193 1.60905.56092 24.65787 13.7069 51.2196 29.21328 26.56173 15.50638 57.42849 33.60147 68.5928 40.2113 14.54303 8.6102 20.71024 12.81362 21.75 14.82428C796.78071 89.47662 797 101.69174 797 167.93456v78.03389l-2.75 2.88217c-1.5125 1.58519-29.75 18.62497-62.75 37.86617-33 19.24121-63.33767 36.91508-67.41704 39.27527-4.59463 2.65831-8.97072 4.41767-11.5 4.62343zm-461.38121-11.65618c-.93596-.0224-6.65175-1.77213-12.70175-3.88834-6.05-2.11622-18.65-6.56027-28-9.87569-9.35-3.31541-44.9-15.96525-79-28.11076-53.26368-18.97109-62.3875-22.50781-64.75-25.0994L4 248.96845V82.03155l2.75-3.0432c2.2286-2.46622 7.01596-4.56956 25.25-11.0937 12.375-4.42776 29.925-10.6705 39-13.87275 9.075-3.20225 26.625-9.42406 39-13.82625 12.375-4.40219 35.325-12.58388 51-18.18154 22.61927-8.0775 29.22219-10.0632 32-9.6233 1.925.30484 8.225 2.3157 14 4.4686 5.775 2.15288 28.95 10.77041 51.5 19.15007s52.09092 19.44399 65.64648 24.5874c13.55556 5.14342 25.79331 9.8742 27.19499 10.51284 1.40168.63865 2.81643 1.85939 3.1439 2.71275.36714.95675-2.10366 5.54263-6.44499 11.96208L341 96.19505v18.44793c0 18.04312.0517 18.49962 2.3557 20.80363 1.88206 1.88206 3.88938 2.49942 9.98342 3.07048 4.19524.39313 8.98517.51554 10.64429.27204L367 138.34639V186.52886L354 199.5l-13 12.97114-.0153 24.51443c-.008 13.48294-.34592 25.01414-.75 25.6249-.40408.61075-2.17893 1.85037-3.94412 2.7547-1.76518.90432-21.56518 8.42775-44 16.71873-22.43481 8.29098-53.97478 19.98886-70.08882 25.9953-16.11404 6.00644-30.06404 10.90249-31 10.88011zM420 255h-63v-36.88612l22.7379-20.80694c12.50585-11.44382 28.14335-25.79152 34.75-31.88379 6.60666-6.09226 14.61362-14.16551 17.79325-17.94055 3.17963-3.77503 7.08798-9.59045 8.68523-12.92315 1.59726-3.3327 3.19499-7.95537 3.55053-10.2726.4191-2.73146.0695-6.19781-.99414-9.85652-1.21954-4.19508-2.84448-6.84216-6.33167-10.31453-2.84739-2.83528-6.30879-5.15156-8.80712-5.89348-2.26381-.67228-7.21381-1.21244-11-1.20036-4.49175.01433-8.28172.65691-10.90617 1.84912-2.21221 1.00493-5.49209 3.29705-7.28863 5.09358-1.79653 1.79654-4.13713 4.97314-5.20131 7.05912-1.06419 2.08598-2.22932 5.63398-2.58919 7.88445L390.74438 123H355.7128l.65264-7.02214c.35895-3.86217 1.60302-9.82467 2.7646-13.25 1.16157-3.42532 3.48811-8.70286 5.17007-11.72786 1.68197-3.025 6.01502-8.4255 9.62901-12.0011 3.96992-3.92776 9.42068-7.99611 13.7704-10.278 3.95973-2.0773 10.66922-4.6643 14.90996-5.7489C407.53414 61.71248 413.63668 61 419.5 61c5.78799 0 11.96161.7114 16.70781 1.92527 4.14026 1.0589 10.42716 3.33897 13.97089 5.06683 3.54374 1.72786 9.17956 5.57907 12.52405 8.55825 3.34449 2.97918 7.71965 7.88557 9.72257 10.9031 2.00292 3.01753 4.79237 8.53744 6.19877 12.26648 1.76731 4.68599 2.71424 9.5598 3.06589 15.78007.34978 6.1872.0118 11.33301-1.08159 16.46482-.8747 4.10565-3.09896 10.63065-4.94278 14.5-1.84382 3.86935-6.07622 10.63518-9.40533 15.03518-3.32911 4.4-11.16208 12.95581-17.40661 19.01292-6.24452 6.05711-16.31321 15.50711-22.37486 21-6.06166 5.49289-13.03666 11.65436-15.5 13.69214L406.5 218.91012l38.25.0449L483 219v36z"/><path fill="#4b9ec9" d="M191.20175 318.95931c-.93596-.0224-6.65175-1.77213-12.70175-3.88834-6.05-2.11622-18.65-6.56027-28-9.87569-9.35-3.31541-44.9-15.96525-79-28.11076-53.26368-18.97109-62.3875-22.50781-64.75-25.0994L4 248.96845V82.03155l2.75-3.0432c2.2286-2.46622 7.01596-4.56956 25.25-11.0937 12.375-4.42776 29.925-10.6705 39-13.87275 9.075-3.20225 26.625-9.42406 39-13.82625 12.375-4.40219 35.325-12.58388 51-18.18154 22.61927-8.0775 29.22219-10.0632 32-9.6233 1.925.30484 8.225 2.3157 14 4.4686 5.775 2.15288 28.95 10.77041 51.5 19.15007s52.09092 19.44399 65.64648 24.5874c13.55556 5.14342 25.79331 9.8742 27.19499 10.51284 1.40168.63865 2.81643 1.85939 3.1439 2.71275.36714.95675-2.10366 5.54263-6.44499 11.96208L341 96.19505v18.44793c0 18.04312.0517 18.49962 2.3557 20.80363 1.88206 1.88206 3.88938 2.49942 9.98342 3.07048 4.19524.39313 8.98517.51554 10.64429.27204L367 138.34639V186.52886L354 199.5l-13 12.97114-.0153 24.51443c-.008 13.48294-.34592 25.01414-.75 25.6249-.40408.61075-2.17893 1.85037-3.94412 2.7547-1.76518.90432-21.56518 8.42775-44 16.71873-22.43481 8.29098-53.97478 19.98886-70.08882 25.9953-16.11404 6.00644-30.06404 10.90249-31 10.88011zM420 255h-63v-36.88612l22.7379-20.80694c12.50585-11.44382 28.14335-25.79152 34.75-31.88379 6.60666-6.09226 14.61362-14.16551 17.79325-17.94055 3.17963-3.77503 7.08798-9.59045 8.68523-12.92315 1.59726-3.3327 3.19499-7.95537 3.55053-10.2726.4191-2.73146.0695-6.19781-.99414-9.85652-1.21954-4.19508-2.84448-6.84216-6.33167-10.31453-2.84739-2.83528-6.30879-5.15156-8.80712-5.89348-2.26381-.67228-7.21381-1.21244-11-1.20036-4.49175.01433-8.28172.65691-10.90617 1.84912-2.21221 1.00493-5.49209 3.29705-7.28863 5.09358-1.79653 1.79654-4.13713 4.97314-5.20131 7.05912-1.06419 2.08598-2.22932 5.63398-2.58919 7.88445L390.74438 123H355.7128l.65264-7.02214c.35895-3.86217 1.60302-9.82467 2.7646-13.25 1.16157-3.42532 3.48811-8.70286 5.17007-11.72786 1.68197-3.025 6.01502-8.4255 9.62901-12.0011 3.96992-3.92776 9.42068-7.99611 13.7704-10.278 3.95973-2.0773 10.66922-4.6643 14.90996-5.7489C407.53414 61.71248 413.63668 61 419.5 61c5.78799 0 11.96161.7114 16.70781 1.92527 4.14026 1.0589 10.42716 3.33897 13.97089 5.06683 3.54374 1.72786 9.17956 5.57907 12.52405 8.55825 3.34449 2.97918 7.71965 7.88557 9.72257 10.9031 2.00292 3.01753 4.79237 8.53744 6.19877 12.26648 1.76731 4.68599 2.71424 9.5598 3.06589 15.78007.34978 6.1872.0118 11.33301-1.08159 16.46482-.8747 4.10565-3.09896 10.63065-4.94278 14.5-1.84382 3.86935-6.07622 10.63518-9.40533 15.03518-3.32911 4.4-11.16208 12.95581-17.40661 19.01292-6.24452 6.05711-16.31321 15.50711-22.37486 21-6.06166 5.49289-13.03666 11.65436-15.5 13.69214L406.5 218.91012l38.25.0449L483 219v36zm214.12756-8.11392c-.89516-.06266-4.55256-1.21046-8.12756-2.55068-3.575-1.34022-7.09038-3.02041-7.81196-3.73376-1.08105-1.06872 1.17168-9.81589 12.79946-49.69931 7.76128-26.62128 17.69876-60.51779 22.08329-75.32557 4.38453-14.80779 8.46738-27.52028 9.07299-28.25.60561-.72972 2.05851-1.29847 3.22866-1.26388 1.17016.03458 5.27756 1.29084 9.12756 2.7917 5.23225 2.0397 7.07675 3.25636 7.30391 4.81779.16715 1.14893-3.50478 14.85516-8.15985 30.4583C668.989 139.7338 660.82955 167.35 655.51196 185.5c-5.31759 18.15-11.44915 38.82316-13.62568 45.94035-2.17654 7.11719-4.44645 13.52969-5.04426 14.25-.5978.72031-1.81931 1.25839-2.71446 1.19573zM605.86529 218c-.95408 0-5.47658-2.85606-10.05-6.3468-4.57341-3.49073-17.99029-13.86939-29.81529-23.06368-11.825-9.19429-22.0754-17.525-22.77867-18.51269-.88549-1.24359-.99467-2.54278-.35509-4.22501.50797-1.33607 2.68296-3.9868 4.83331-5.89052 2.15036-1.90371 13.94995-11.3363 26.22132-20.9613 12.27137-9.625 24.54426-19.27563 27.27309-21.44585 3.94895-3.14058 5.30279-3.73113 6.63377-2.89369 1.35099.85003 1.72716 3.01359 1.95798 11.26129.28462 10.1706.27457 10.21952-2.66492 12.96541-1.62283 1.51596-10.18378 8.25593-19.02431 14.97772l-16.0737 12.22142 17.48493 14.03254c9.6167 7.7179 18.16158 14.99861 18.9886 16.17936C609.55084 197.80374 610 201.00719 610 207.02251c0 5.33805-.4532 9.03069-1.2 9.77749-.66.66-1.98062 1.2-2.93471 1.2zm91.68041 0c-1.2168 0-2.51237-.3-2.87903-.66667-.36667-.36666-.66667-4.80598-.66667-9.86514 0-7.61593.33659-9.62637 1.95639-11.68562 1.07601-1.36793 9.40101-8.49491 18.5-15.83773 9.09898-7.34282 16.53111-13.59679 16.51583-13.89771-.0153-.30092-6.85884-5.72213-15.2079-12.04713-8.34907-6.325-16.66156-12.78412-18.47222-14.35359L694 136.79282v-10.27397c0-8.14695.32735-10.54564 1.5812-11.58624 1.26618-1.05083 1.9756-1.06598 3.56078-.076 1.08877.67995 10.61473 8.0456 21.1688 16.36812 10.55407 8.32252 23.23922 18.24949 28.18922 22.05994 4.95 3.81045 9.7875 7.83008 10.75 8.93251.9625 1.10242 1.75 3.29047 1.75 4.86232 0 2.51588-2.36369 4.74252-19.75 18.60478-10.8625 8.66078-24.64194 19.47486-30.62097 24.0313C704.58362 214.32259 698.77601 218 697.5457 218z"/><path fill="#2478af" d="M191.29499 318.95526c-.43724-.0246-3.94499-1.09908-7.79499-2.38772-3.85-1.28864-13.975-4.82488-22.5-7.85831s-21.125-7.52561-28-9.98264c-6.875-2.45702-36.8-13.12494-66.5-23.7065-29.7-10.58155-55.21018-19.86232-56.6893-20.62392-1.4791-.76161-3.3916-2.38745-4.25-3.61296-1.38374-1.97557-1.56028-11.58579-1.55696-84.75572.00354-78.26167.09849-82.68256 1.83685-85.52749 1.00822-1.65 2.91903-3.54807 4.24626-4.21794C11.41408 75.6122 25.1 70.57836 40.5 65.09576c15.4-5.4826 44.65-15.88047 65-23.10637 20.35-7.2259 47.61661-16.92956 60.59247-21.5637C179.06832 15.79157 190.41794 12 191.31384 12c.89589 0 8.27929 2.4333 16.40753 5.40734C215.84962 20.38138 236 27.84256 252.5 33.98774 269 40.1329 286.775 46.75225 292 48.6974c5.225 1.94514 18.95 7.10696 30.5 11.4707 11.55 4.36376 23.32923 8.84986 26.17606 9.96913 2.84684 1.11927 5.43137 2.70033 5.7434 3.51348.3156.82242-1.27698 4.2231-3.58907 7.66387-2.28602 3.40198-5.5444 7.96576-7.24085 10.14174l-3.08444 3.95634-.35951 18.15818-.35951 18.15818 3.02303 3.38548 3.02303 3.38549 10.58393.34102L367 139.18205v47.15007l-13.48256 13.20478-13.48255 13.20478-.26745 25.37916L339.5 263.5l-3.60498 1.76308c-1.98274.96969-20.65774 8.07239-41.5 15.78378-20.84226 7.7114-42.62002 15.77546-48.39502 17.92015-5.775 2.14469-20.26725 7.52949-32.20501 11.96622-11.93775 4.43672-22.06275 8.04664-22.5 8.02203zm-9.54111-152.86805c.13963-68.97704.11604-125.55063-.0524-125.71909-.16846-.16846-8.6077 2.6346-18.75387 6.229C152.80141 50.19155 138.875 55.08855 132 57.47936c-6.875 2.3908-20.375 7.1213-30 10.5122-9.625 3.3909-28.525 10.00857-42 14.70593-13.475 4.69736-26.4125 9.20438-28.75 10.0156L27 94.188v143.31472l16.25 5.67104c8.9375 3.11907 33.8 11.82841 55.25 19.35409 21.45 7.52568 48.9 17.1231 61 21.3276l22 7.64455zM148.77217 255c-1.27994 0-3.37482-.73381-4.6553-1.63069-1.28047-.89688-2.9556-3.13243-3.7225-4.96788C139.24127 245.64167 139 231.20769 139 164.98246c0-68.74747.20947-80.48686 1.48002-82.94382.81401-1.57413 2.6747-3.80178 4.13486-4.95034C146.07504 75.93973 148.52223 75 150.05307 75c1.53085 0 3.5118.27953 4.40213.62118.89032.34165 2.27713 1.8943 3.08179 3.45034C158.78607 81.48698 159 93.8768 159 163.80112c0 57.36182-.3321 82.85309-1.10842 85.08004-.62 1.77854-2.36069 3.82719-3.95034 4.64922-1.56305.80829-3.88914 1.46962-5.16907 1.46962zm-42.27367-11c-1.77583 0-4.39897-.92047-5.8292-2.04549-1.43022-1.12501-3.0634-3.71251-3.62928-5.75-.6572-2.36631-1.03088-27.61275-1.03444-69.88941-.0037-44.4659.34444-67.1087 1.06103-69 .58664-1.5483 2.04914-3.87534 3.25-5.1712 1.20087-1.29585 3.17905-2.74081 4.39597-3.21102 1.32426-.51168 3.44056-.42685 5.27111.21128 1.68219.58641 3.61153 2.03138 4.28742 3.21102.92951 1.6223 1.30413 18.46738 1.53774 69.14482.16986 36.85.0291 69.32938-.31276 72.1764-.44188 3.67967-1.36575 5.92053-3.19521 7.75-1.70203 1.70202-3.66706 2.5736-5.80238 2.5736zm-43.3374-13.03041c-2.0136-.0167-4.44861-.48909-5.41112-1.0497s-2.42501-2.32458-3.25-3.91993C53.2209 223.5265 53 215.13207 53 169c0-46.04053.2226-54.52977 1.49429-56.98896.82186-1.5893 2.49699-3.59195 3.7225-4.45034 1.22553-.85838 3.44129-1.5607 4.92393-1.5607 1.48264 0 3.42415.27953 4.31448.62118.89032.34165 2.27713 1.8943 3.08179 3.45034C71.76989 112.45568 72 121.70464 72 168.87361v55.97294l-2.5889 3.07672c-2.03734 2.42125-3.36887 3.07025-6.25 3.04632zM206.75 289.0001c.4125.00006.63708-35.88744.49907-79.75-.13801-43.86255-.36776-99.7751-.51056-124.2501-.14279-24.475-.36738 11.4125-.49907 79.75-.13169 68.3375.0981 124.25005.51056 124.2501zm2.75-1.03073c.55 0 1.675-.43621 2.5-.96937s1.05-.96937.5-.96937-1.675.43621-2.5.96937-1.05.96937-.5.96937zM215 286c.73333 0 1.03333-.3.66667-.66667-.36667-.36666-.96667-.36666-1.33334 0-.36666.36667-.06666.66667.66667.66667zm3-1c.73333 0 1.03333-.3.66667-.66667-.36667-.36666-.96667-.36666-1.33334 0-.36666.36667-.06666.66667.66667.66667zm2.5-1c.275 0 .5-.225.5-.5s-.225-.5-.5-.5-.5.225-.5.5.225.5.5.5zm2.5-1c.73333 0 1.03333-.3.66667-.66667-.36667-.36666-.96667-.36666-1.33334 0-.36666.36667-.06666.66667.66667.66667zm3-1c.73333 0 1.03333-.3.66667-.66667-.36667-.36666-.96667-.36666-1.33334 0-.36666.36667-.06666.66667.66667.66667zm3-1c.73333 0 1.03333-.3.66667-.66667-.36667-.36666-.96667-.36666-1.33334 0-.36666.36667-.06666.66667.66667.66667zm2.5-1.03063c.55 0 1.675-.43621 2.5-.96937s1.05-.96937.5-.96937-1.675.43621-2.5.96937-1.05.96937-.5.96937zM237 278c.73333 0 1.03333-.3.66667-.66667-.36667-.36666-.96667-.36666-1.33334 0-.36666.36667-.06666.66667.66667.66667zm2.5-1c.275 0 .5-.225.5-.5s-.225-.5-.5-.5-.5.225-.5.5.225.5.5.5zm2.5-1c.73333 0 1.03333-.3.66667-.66667-.36667-.36666-.96667-.36666-1.33334 0-.36666.36667-.06666.66667.66667.66667zm3-1c.73333 0 1.03333-.3.66667-.66667-.36667-.36666-.96667-.36666-1.33334 0-.36666.36667-.06666.66667.66667.66667zm2.5-1.03063c.55 0 1.675-.43621 2.5-.96937s1.05-.96937.5-.96937-1.675.43621-2.5.96937-1.05.96937-.5.96937zM253 272c.73333 0 1.03333-.3.66667-.66667-.36667-.36666-.96667-.36666-1.33334 0-.36666.36667-.06666.66667.66667.66667zm2.5-1.03063c.55 0 1.675-.43621 2.5-.96937s1.05-.96937.5-.96937-1.675.43621-2.5.96937-1.05.96937-.5.96937zM261 269c.73333 0 1.03333-.3.66667-.66667-.36667-.36666-.96667-.36666-1.33334 0-.36666.36667-.06666.66667.66667.66667zm2.5-1.03063c.55 0 1.675-.43621 2.5-.96937s1.05-.96937.5-.96937-1.675.43621-2.5.96937-1.05.96937-.5.96937zM269 266c.73333 0 1.03333-.3.66667-.66667-.36667-.36666-.96667-.36666-1.33334 0-.36666.36667-.06666.66667.66667.66667zm3-1c.73333 0 1.03333-.3.66667-.66667-.36667-.36666-.96667-.36666-1.33334 0-.36666.36667-.06666.66667.66667.66667zm2.5-1c.275 0 .5-.225.5-.5s-.225-.5-.5-.5-.5.225-.5.5.225.5.5.5zm2.5-1c.73333 0 1.03333-.3.66667-.66667-.36667-.36666-.96667-.36666-1.33334 0-.36666.36667-.06666.66667.66667.66667zm4-1.57321c1.375-.3678 3.175-1.08577 4-1.5955 1.04249-.64411.73748-.72283-1-.25808-1.375.3678-3.175 1.08577-4 1.5955-1.04249.64411-.73748.72283 1 .25808zM288 259c.73333 0 1.03333-.3.66667-.66667-.36667-.36666-.96667-.36666-1.33334 0-.36666.36667-.06666.66667.66667.66667zm3-1c.73333 0 1.03333-.3.66667-.66667-.36667-.36666-.96667-.36666-1.33334 0-.36666.36667-.06666.66667.66667.66667zm2.5-1c.275 0 .5-.225.5-.5s-.225-.5-.5-.5-.5.225-.5.5.225.5.5.5zm2.5-1c.73333 0 1.03333-.3.66667-.66667-.36667-.36666-.96667-.36666-1.33334 0-.36666.36667-.06666.66667.66667.66667zm3-1c.73333 0 1.03333-.3.66667-.66667-.36667-.36666-.96667-.36666-1.33334 0-.36666.36667-.06666.66667.66667.66667zm2.5-1.03063c.55 0 1.675-.43621 2.5-.96937s1.05-.96937.5-.96937-1.675.43621-2.5.96937-1.05.96937-.5.96937zM307 252c.73333 0 1.03333-.3.66667-.66667-.36667-.36666-.96667-.36666-1.33334 0-.36666.36667-.06666.66667.66667.66667zm3-1c.73333 0 1.03333-.3.66667-.66667-.36667-.36666-.96667-.36666-1.33334 0-.36666.36667-.06666.66667.66667.66667zm2.5-1.03063c.55 0 1.675-.43621 2.5-.96937s1.05-.96937.5-.96937-1.675.43621-2.5.96937-1.05.96937-.5.96937zM318 248c.73333 0 1.03333-.3.66667-.66667-.36667-.36666-.96667-.36666-1.33334 0-.36666.36667-.06666.66667.66667.66667zm3-1c.73333 0 1.03333-.3.66667-.66667-.36667-.36666-.96667-.36666-1.33334 0-.36666.36667-.06666.66667.66667.66667zm3-1c.73333 0 1.03333-.3.66667-.66667-.36667-.36666-.96667-.36666-1.33334 0-.36666.36667-.06666.66667.66667.66667zm-83-1c.73333 0 1.03333-.3.66667-.66667-.36667-.36666-.96667-.36666-1.33334 0-.36666.36667-.06666.66667.66667.66667zm5.5 0c.275 0 .5-.225.5-.5s-.225-.5-.5-.5-.5.225-.5.5.225.5.5.5zm80 0c.275 0 .5-.225.5-.5s-.225-.5-.5-.5-.5.225-.5.5.225.5.5.5zm-87.82569-1c.17913 0 .32569-.14656.32569-.32569 0-.17912-1.2375-1.41662-2.75-2.75L233.5 238.5l2.42431 2.75c1.33338 1.5125 2.57088 2.75 2.75 2.75zm9.47706 0c.275 0 1.55688-1.125 2.84863-2.5s2.12363-2.5 1.84863-2.5c-.275 0-1.55688 1.125-2.84863 2.5s-2.12363 2.5-1.84863 2.5zM329 244c.73333 0 1.03333-.3.66667-.66667-.36667-.36666-.96667-.36666-1.33334 0-.36666.36667-.06666.66667.66667.66667zm3-1c.73333 0 1.03333-.3.66667-.66667-.36667-.36666-.96667-.36666-1.33334 0-.36666.36667-.06666.66667.66667.66667zm3-1c.73333 0 1.03333-.3.66667-.66667-.36667-.36666-.96667-.36666-1.33334 0-.36666.36667-.06666.66667.66667.66667zm-101.62646-4.20687c.06955-.16122-.10445-32.69313-.38667-72.29313l-.51313-72-.23687 70.66821c-.13028 38.86752.0437 71.39943.38667 72.29313.34294.8937.68044 1.49301.75 1.33179zm20.29313-.12646c.36666-.36667.36666-.96667 0-1.33334C253.3 235.96667 253 236.26667 253 237s.3 1.03333.66667.66667zm1.0829-37.91667c.15199-19.1125.15199-50.3875 0-69.5-.15199-19.1125-.27634-3.475-.27634 34.75s.12435 53.8625.27634 34.75zM288.5 231.80505c1.65.0204 2.44606-.18706 1.76903-.46099-.67703-.27392-2.02703-.29059-3-.0371-.97297.25354-.41903.47766 1.23097.49804zm-4-.80505c.275 0 .5-.225.5-.5s-.225-.5-.5-.5-.5.225-.5.5.225.5.5.5zm8.65137 0c.275 0 1.55688-1.125 2.84863-2.5s2.12363-2.5 1.84863-2.5c-.275 0-1.55688 1.125-2.84863 2.5s-2.12363 2.5-1.84863 2.5zm-10.52893-1c.20766 0 .37756-.1699.37756-.37756 0-.20765-.7875-.99515-1.75-1.75-1.58606-1.24387-1.62143-1.2085-.37756.37756.75485.9625 1.54235 1.75 1.75 1.75zM279.5 226c.275 0 .5-.225.5-.5s-.225-.5-.5-.5-.5.225-.5.5.225.5.5.5zm19-1c.275 0 .5-.225.5-.5s-.225-.5-.5-.5-.5.225-.5.5.225.5.5.5zm-19.89583-1.27083c.33229-.3323.36781-1.1948.0789-1.91667-.31922-.79773-.55618-.56078-.60416.60417-.0434 1.05416.19293 1.64479.52522 1.3125zM299.74938 194.75c.15471-15.8125.15471-41.6875 0-57.5-.1547-15.8125-.28128-2.875-.28128 28.75s.12658 44.5625.28128 28.75zM277.5 213c.275 0 .5-.225.5-.5s-.225-.5-.5-.5-.5.225-.5.5.225.5.5.5zm1-105c.275 0 .5-.225.5-.5s-.225-.5-.5-.5-.5.225-.5.5.225.5.5.5zm20.30687-.47354c.30789-.30789.00064-1.11479-.68278-1.79313-.98762-.98026-1.10248-.8654-.5598.5598.37553.98622.93469 1.54122 1.24258 1.23333zM279.5 106c.275 0 .5-.225.5-.5s-.225-.5-.5-.5-.5.225-.5.5.225.5.5.5zm.69002-2c.275 0 1.31449-.9 2.30998-2s1.58498-2 1.30998-2c-.275 0-1.31449.9-2.30998 2s-1.58498 2-1.30998 2zm16.46497 0c.18975 0 .34501-.15526.34501-.34501 0-.18976-1.0125-1.20226-2.25-2.25L292.5 99.5l1.90499 2.25c1.04774 1.2375 2.06024 2.25 2.25 2.25zM286 100c.73333 0 1.03333-.3.66667-.66667-.36667-.36666-.96667-.36666-1.33334 0C284.96667 99.7 285.26667 100 286 100zm4 0c.73333 0 1.03333-.3.66667-.66667-.36667-.36666-.96667-.36666-1.33334 0C288.96667 99.7 289.26667 100 290 100zm-36.33333-6.33333c.36666-.36667.36666-.96667 0-1.33334C253.3 91.96667 253 92.26667 253 93s.3 1.03333.66667.66667zM234.46 90.3234c.75995-1.74713 2.65484-3.86661 4.21086-4.70996 1.55603-.84335 2.23202-1.55138 1.50222-1.5734-.72981-.02202-2.64231 1.27534-4.25 2.88304-1.6077 1.60769-2.90547 3.74519-2.88394 4.75.0249 1.16189.54211.67059 1.42086-1.34968zM340.5 92c.275 0 .5-.225.5-.5s-.225-.5-.5-.5-.5.225-.5.5.225.5.5.5zm-87.84981-1c.2311 0-.0481-.87494-.62038-1.9443-.57231-1.06937-1.53482-2.24978-2.13891-2.62313-.6041-.37335-.32492.50159.62038 1.9443C251.45659 89.8196 252.4191 91 252.65019 91zM338.5 91c.275 0 .5-.225.5-.5s-.225-.5-.5-.5-.5.225-.5.5.225.5.5.5zm-3.5-1c.73333 0 1.03333-.3.66667-.66667-.36667-.36666-.96667-.36666-1.33334 0C333.96667 89.7 334.26667 90 335 90zm-2.5-1c.275 0 .5-.225.5-.5s-.225-.5-.5-.5-.5.225-.5.5.225.5.5.5zm-2.5-1c.73333 0 1.03333-.3.66667-.66667-.36667-.36666-.96667-.36666-1.33334 0C328.96667 87.7 329.26667 88 330 88zm-2.5-1c.275 0 .5-.225.5-.5s-.225-.5-.5-.5-.5.225-.5.5.225.5.5.5zm-79.69098-1.01531c.16996.00842.0309-.43469-.30902-.98469-.33992-.55-1.15398-.9931-1.80902-.98469-.71561.0092-.59227.40223.30902.98469.825.53316 1.63906.97627 1.80902.98469zM325 86c.73333 0 1.03333-.3.66667-.66667-.36667-.36666-.96667-.36666-1.33334 0C323.96667 85.7 324.26667 86 325 86zm-2.5-1c.275 0 .5-.225.5-.5s-.225-.5-.5-.5-.5.225-.5.5.225.5.5.5zm-3-1c.275 0 .5-.225.5-.5s-.225-.5-.5-.5-.5.225-.5.5.225.5.5.5zm-2.5-1c.73333 0 1.03333-.3.66667-.66667-.36667-.36666-.96667-.36666-1.33334 0C315.96667 82.7 316.26667 83 317 83zm-2.5-1.03063c.55 0 .325-.43621-.5-.96937s-1.95-.96937-2.5-.96937-.325.43621.5.96937 1.95.96937 2.5.96937zM309 80c.73333 0 1.03333-.3.66667-.66667-.36667-.36666-.96667-.36666-1.33334 0C307.96667 79.7 308.26667 80 309 80zm-2.5-1.07551c.55.0081.325-.36719-.5-.83394-.825-.46674-2.625-1.1236-4-1.45967-2.08385-.50933-2.00062-.37052.5.83393 1.65.79474 3.45 1.4516 4 1.45968zM298 76c.73333 0 1.03333-.3.66667-.66667-.36667-.36666-.96667-.36666-1.33334 0C296.96667 75.7 297.26667 76 298 76zm-2.5-1.03063c.55 0 .325-.43621-.5-.96937s-1.95-.96937-2.5-.96937-.325.43621.5.96937 1.95.96937 2.5.96937zM290 73c.73333 0 1.03333-.3.66667-.66667-.36667-.36666-.96667-.36666-1.33334 0C288.96667 72.7 289.26667 73 290 73zm-3-1c.73333 0 1.03333-.3.66667-.66667-.36667-.36666-.96667-.36666-1.33334 0C285.96667 71.7 286.26667 72 287 72zm-2.5-1c.275 0 .5-.225.5-.5s-.225-.5-.5-.5-.5.225-.5.5.225.5.5.5zm-2.5-1c.73333 0 1.03333-.3.66667-.66667-.36667-.36666-.96667-.36666-1.33334 0C280.96667 69.7 281.26667 70 282 70zm-3-1c.73333 0 1.03333-.3.66667-.66667-.36667-.36666-.96667-.36666-1.33334 0C277.96667 68.7 278.26667 69 279 69zm-2.5-1.03063c.55 0 .325-.43621-.5-.96937s-1.95-.96937-2.5-.96937-.325.43621.5.96937 1.95.96937 2.5.96937zM271 66c.73333 0 1.03333-.3.66667-.66667-.36667-.36666-.96667-.36666-1.33334 0C269.96667 65.7 270.26667 66 271 66zm-3-1c.73333 0 1.03333-.3.66667-.66667-.36667-.36666-.96667-.36666-1.33334 0C266.96667 64.7 267.26667 65 268 65zm-2.5-1c.275 0 .5-.225.5-.5s-.225-.5-.5-.5-.5.225-.5.5.225.5.5.5zm-2.5-1c.73333 0 1.03333-.3.66667-.66667-.36667-.36666-.96667-.36666-1.33334 0C261.96667 62.7 262.26667 63 263 63zm-2.5-1.03063c.55 0 .325-.43621-.5-.96937s-1.95-.96937-2.5-.96937-.325.43621.5.96937 1.95.96937 2.5.96937zM255 60c.73333 0 1.03333-.3.66667-.66667-.36667-.36666-.96667-.36666-1.33334 0C253.96667 59.7 254.26667 60 255 60zm-2.5-1.03063c.55 0 .325-.43621-.5-.96937s-1.95-.96937-2.5-.96937-.325.43621.5.96937 1.95.96937 2.5.96937zM247 57c.73333 0 1.03333-.3.66667-.66667-.36667-.36666-.96667-.36666-1.33334 0C245.96667 56.7 246.26667 57 247 57zm-2.5-1.03063c.55 0 .325-.43621-.5-.96937s-1.95-.96937-2.5-.96937-.325.43621.5.96937 1.95.96937 2.5.96937zM239 54c.73333 0 1.03333-.3.66667-.66667-.36667-.36666-.96667-.36666-1.33334 0C237.96667 53.7 238.26667 54 239 54zm-3-1c.73333 0 1.03333-.3.66667-.66667-.36667-.36666-.96667-.36666-1.33334 0C234.96667 52.7 235.26667 53 236 53zm-2.5-1.03063c.55 0 .325-.43621-.5-.96937s-1.95-.96937-2.5-.96937-.325.43621.5.96937 1.95.96937 2.5.96937zM228 50c.73333 0 1.03333-.3.66667-.66667-.36667-.36666-.96667-.36666-1.33334 0C226.96667 49.7 227.26667 50 228 50zm-2.5-1.03063c.55 0 .325-.43621-.5-.96937s-1.95-.96937-2.5-.96937-.325.43621.5.96937 1.95.96937 2.5.96937zM220 47c.73333 0 1.03333-.3.66667-.66667-.36667-.36666-.96667-.36666-1.33334 0C218.96667 46.7 219.26667 47 220 47zm-3-1c.73333 0 1.03333-.3.66667-.66667-.36667-.36666-.96667-.36666-1.33334 0C215.96667 45.7 216.26667 46 217 46zm-2.5-1.03063c.55 0 .325-.43621-.5-.96937s-1.95-.96937-2.5-.96937-.325.43621.5.96937 1.95.96937 2.5.96937zM209 43c.73333 0 1.03333-.3.66667-.66667-.36667-.36666-.96667-.36666-1.33334 0C207.96667 42.7 208.26667 43 209 43zm210.75 211.75751l-62.75.25752V218.4212l15.75-14.49959c8.6625-7.97478 23.175-21.28272 32.25-29.57321 9.075-8.29049 19.47113-18.17294 23.1025-21.96101 3.63138-3.78806 8.31477-9.56408 10.40752-12.8356 2.09276-3.27151 4.40913-7.95553 5.1475-10.40893.73836-2.4534 1.33808-6.3017 1.33271-8.55179-.005-2.25009-1.07526-6.34107-2.37754-9.09107-1.30227-2.75-3.88538-6.43969-5.74023-8.19932-1.85485-1.75962-5.02676-3.8893-7.04868-4.7326-2.02192-.8433-6.11087-1.81941-9.08656-2.16915-3.75987-.4419-7.17723-.12222-11.20231 1.0479-4.46463 1.2979-6.88322 2.80412-10.55379 6.57255-2.87971 2.95649-5.39804 6.75598-6.37147 9.61284-.88531 2.59823-1.60965 5.77952-1.60965 7.06953v2.34548l-17.25-.27362L356.5 122.5l.29193-6c.16056-3.3.98775-8.45578 1.83819-11.45729.85045-3.00151 2.68184-7.7265 4.06976-10.5 1.38792-2.77349 4.33345-7.41234 6.54563-10.30855 2.21218-2.8962 6.77442-7.35067 10.13832-9.89882 3.36389-2.54814 8.81617-5.8614 12.11617-7.3628 3.3-1.50141 9.23883-3.45944 13.19741-4.35119C408.65598 61.72961 415.08745 61 418.98956 61c3.90212 0 10.56329.70475 14.8026 1.56611 4.23931.86136 11.41519 3.34673 15.9464 5.52304 6.10836 2.93381 9.98682 5.70582 15 10.72079 3.71879 3.72012 8.16894 9.44725 9.88921 12.72696 1.72028 3.2797 3.96622 8.4381 4.991 11.4631 1.36082 4.01699 1.85561 8.3312 1.835 16-.0216 8.03412-.56618 12.26135-2.31894 18-1.2599 4.125-3.66978 9.975-5.3553 13-1.68551 3.025-5.13616 8.2-7.66809 11.5-2.53194 3.3-7.65523 9.21536-11.3851 13.14524-3.72986 3.92988-14.72143 14.27988-24.42571 23-9.70428 8.72012-19.25435 17.31483-21.22239 19.09935l-3.57824 3.2446 38.5-.0635 38.5-.0635V254.5zm214.37756-7.87143c-.89516-.06266-4.55256-1.21046-8.12756-2.55068-3.575-1.34022-7.09038-3.02041-7.81196-3.73376-1.08105-1.06871 1.17547-9.81597 12.8209-49.69931 7.77308-26.62128 17.49919-59.86454 21.61359-73.8739 4.1144-14.00936 8.02421-26.60936 8.68846-28 .66426-1.39063 2.12624-2.66046 3.24884-2.82183 1.12261-.16137 5.39339.98387 9.49064 2.54498 5.64228 2.14979 7.52326 3.34437 7.75344 4.92407.16715 1.14712-3.50478 14.85188-8.15985 30.45502C668.989 139.7338 660.82955 167.35 655.51196 185.5c-5.31759 18.15-11.44915 38.82316-13.62568 45.94035-2.17654 7.11719-4.44645 13.52969-5.04426 14.25-.5978.72031-1.81931 1.25839-2.71446 1.19573zM605.86529 218c-.95408 0-5.47658-2.85606-10.05-6.3468-4.57341-3.49073-17.99029-13.86939-29.81529-23.06368-11.825-9.19429-22.0754-17.525-22.77867-18.51269-.88549-1.24359-.99467-2.54278-.35509-4.22501.50797-1.33607 2.68296-3.9868 4.83331-5.89052 2.15036-1.90371 13.94995-11.3363 26.22132-20.9613 12.27137-9.625 24.54426-19.27563 27.27309-21.44585 3.94804-3.13985 5.30309-3.73106 6.63377-2.89434 1.31787.82868 1.73459 2.93649 1.96634 9.94586.16174 4.89188.0572 9.84079-.23222 10.99758-.30717 1.22756-8.22404 8.01703-19.0151 16.30725l-18.48881 14.20401 17.46734 14.01844c9.60704 7.71014 18.14401 14.9845 18.97103 16.16525C609.55084 197.80374 610 201.00719 610 207.02251c0 5.33805-.4532 9.03069-1.2 9.77749-.66.66-1.98062 1.2-2.93471 1.2zm91.68041 0c-1.2168 0-2.51237-.3-2.87903-.66667-.36667-.36666-.66667-4.80598-.66667-9.86514 0-7.61593.33659-9.62637 1.95639-11.68562 1.07601-1.36793 9.40101-8.49491 18.5-15.83773 9.09898-7.34282 16.53111-13.59679 16.51583-13.89771-.0153-.30092-6.85884-5.72213-15.2079-12.04713-8.34907-6.325-16.66156-12.78412-18.47222-14.35359L694 136.79282v-10.27397c0-8.14695.32735-10.54564 1.5812-11.58624 1.24697-1.03489 1.98798-1.05824 3.50561-.11047 1.05842.661 9.45938 7.13734 18.6688 14.39187 9.20941 7.25453 22.14439 17.41065 28.74439 22.56915 6.6 5.15851 12.5625 10.1036 13.25 10.9891.6875.8855 1.25 2.85991 1.25 4.38757 0 2.41146-2.60322 4.85314-19.75 18.52443-10.8625 8.66078-24.64194 19.47486-30.62097 24.0313C704.58362 214.32259 698.77601 218 697.5457 218z"/><path fill="#083d6b" d="M191.2215 317.9783c-2.04682-.01194-7.9965-1.53266-13.2215-3.37938-5.225-1.84672-43.25-15.3564-84.5-30.0215-41.25-14.66511-77.32702-27.58225-80.17116-28.70477-2.84414-1.12252-5.99414-2.95019-7-4.06149-1.73619-1.91818-1.84236-6.22095-2.09579-84.93273-.23668-73.51089-.09004-83.2543 1.29327-85.92933.92225-1.78343 3.28037-3.81593 5.76695-4.97065C13.60697 74.90402 31.925 68.20785 52 61.09805c20.075-7.10979 50-17.71974 66.5-23.57767 16.5-5.85792 39.55174-14.05484 51.22609-18.21537l21.22608-7.5646 10.37416 3.58361c5.70578 1.97099 23.82904 8.60605 40.27391 14.74458C258.04511 36.20714 274.875 42.47173 279 43.98992c4.125 1.5182 22.125 8.26811 40 14.99982 17.875 6.7317 33.0625 12.693 33.75 13.2473.6875.55432 1.25 1.79215 1.25 2.75074 0 .9586-2.55962 5.35102-5.68804 9.76094-4.30178 6.06392-5.96961 7.73648-6.84335 6.86275-.63542-.63542-8.5383-3.93432-17.56196-7.3309C314.88299 80.88402 286.125 70.19742 260 60.5326c-26.125-9.66482-48.94546-18.22303-50.71214-19.01826-1.76668-.79522-3.34168-1.12377-3.5-.7301-.15832.39368-.06286 56.58093.21214 124.86056l.5 124.14479 6-2.34021c3.3-1.28712 21.3-8.0136 40-14.94772 18.7-6.93413 45.025-16.58953 58.5-21.45645 13.475-4.86691 25.5125-9.14842 26.75-9.51445 2.23682-.66163 2.25-.60142 2.25 10.27942 0 7.57798-.38453 11.23986-1.25 11.90364-.6875.52729-4.175 2.14927-7.75 3.6044-3.575 1.45514-29.16486 10.99596-56.86635 21.20182-27.70149 10.20587-56.85181 21.01399-64.77849 24.01805-8.24201 3.12356-16.0054 5.45263-18.13366 5.44022zM182 291.92112c.275.0435.38233-56.4762.2385-125.59922-.14382-69.12303-.4375-125.85424-.65263-126.06936-.21513-.21513-21.02245 6.88688-46.2385 15.78225-25.21606 8.89536-59.97051 21.07655-77.23213 27.0693-17.26162 5.99275-31.43662 10.89563-31.5 10.8953-.06338-.00034-.02004 3.03716.0963 6.75.11636 3.71283.22886 36.04016.25 71.83849L27 237.67576l30.25 10.6178c16.6375 5.83979 50.05 17.55208 74.25 26.0273 24.2 8.47522 45.35 15.88463 47 16.46537 1.65.58073 3.225 1.09143 3.5 1.13489zM148.88543 255c-2.13038 0-3.94172-.91925-5.86208-2.975-2.7027-2.89325-2.79424-3.36724-3.33138-17.25-.30378-7.85125-.58327-44.15365-.6211-80.67201-.0423-40.80203.31196-67.811.91893-70.06513.54325-2.01746 2.05326-4.66913 3.35557-5.8926 1.30231-1.22345 3.92867-2.47775 5.83635-2.78732 2.76402-.44854 4.06259-.05187 6.3934 1.95294L158.5 79.8267V249.1639l-3.26578 2.91805C153.12249 253.96883 150.87899 255 148.88543 255zm-42.55851-11.03041c-1.5548-.0167-3.61443-.48909-4.57694-1.0497-.96251-.56061-2.42501-2.32458-3.25-3.91993C97.2085 236.50251 97 226.3486 97 165.94966V95.8l3.4-3.4c2.5815-2.5815 4.24918-3.4 6.92742-3.4 2.61966 0 4.06079.67806 5.6 2.63486C114.98057 94.24502 115 94.94413 115 166.21178v71.94207l-2.92308 2.92307c-1.88094 1.88095-3.93092 2.91224-5.75 2.89267zm-43-13.03727c-1.5548-.0372-3.81577-.54544-5.02437-1.12936-1.2086-.58393-2.8961-2.53398-3.75-4.33345-1.34318-2.83055-1.55234-10.46617-1.551-56.62064.0014-48.79261.15088-53.6466 1.75-56.83496.96165-1.91735 2.87345-4.04821 4.24845-4.73526 1.375-.68704 3.65906-1.2558 5.07569-1.26391 1.48986-.009 3.59769 1.07291 5 2.56527L71.5 111.16003l.27404 56.97287.27404 56.97287-2.94712 2.94712c-1.93647 1.93647-3.91654 2.9239-5.77404 2.87943zM419.75 254.75751l-62.75.25752v-17.95175c0-17.22929.0906-18.04964 2.25-20.38404 1.2375-1.33776 8.325-8.0009 15.75-14.80698 7.425-6.80609 18-16.42284 23.5-21.37057s15.34293-14.17218 21.87318-20.49878c6.53025-6.3266 14.07385-14.61968 16.76357-18.42906 2.68972-3.80939 5.55929-9.17857 6.37682-11.93151.81754-2.75294 1.48643-6.6435 1.48643-8.6457 0-2.0022-.70629-5.71322-1.56954-8.2467-1.01904-2.99073-3.25553-6.1834-6.37655-9.10274-3.22365-3.01535-6.55438-5.01531-10.11196-6.0718C424.02423 96.70893 420.00035 96 418 96s-5.87583.66486-8.61218 1.47747c-2.73635.8126-6.84098 3.07453-9.12141 5.02649-2.28488 1.95577-5.29552 5.97841-6.70632 8.9606-1.40805 2.97638-2.56009 6.80008-2.56009 8.49713v3.08554l-17.25-.27362L356.5 122.5l.26897-5c.14794-2.75.77047-7.25 1.3834-10 .61294-2.75 2.40915-7.88522 3.99158-11.4116 1.58244-3.52637 4.86855-8.83051 7.30247-11.78697 2.43393-2.95647 6.59168-7.17938 9.23945-9.38425 2.64777-2.20487 7.56477-5.3317 10.92666-6.9485 3.36189-1.6168 8.98689-3.7328 12.5-4.70223 4.38564-1.21021 9.99156-1.76321 17.88747-1.76453 10.01623-.0017 12.65227.37572 20.43067 2.92495 5.41798 1.77565 11.75448 4.81556 16.10997 7.72868 3.94862 2.641 9.26048 7.3298 11.80414 10.41956 2.54366 3.08976 5.985 8.38686 7.64742 11.77132 1.66242 3.38446 3.73688 9.52857 4.6099 13.65357 1.11707 5.27811 1.39949 9.85247.9533 15.44078-.34871 4.36743-1.771 11.34243-3.16065 15.5-1.38964 4.15757-4.50087 10.70922-6.91384 14.55922-2.41297 3.85-7.57331 10.71653-11.46742 15.25895-3.89412 4.54243-16.15602 16.46743-27.24866 26.5-11.09265 10.03258-21.76513 19.70112-23.71664 21.48564l-3.54819 3.2446 38.5-.0635 38.5-.0635V254.5zm214.37756-7.85256c-.89516-.0523-4.64336-1.29059-8.32934-2.75179-3.68598-1.4612-7.1849-3.13984-7.77538-3.73032-.76479-.76479 2.69264-13.99541 12.02028-45.99822 7.20163-24.70854 17.13085-58.62496 22.06494-75.36982 4.93408-16.74487 9.45836-31.03237 10.05394-31.75.59559-.71764 1.82261-1.3048 2.72672-1.3048.9041 0 5.0115 1.29082 9.12755 2.86849 5.38467 2.06392 7.5663 3.41246 7.77811 4.8079.16191 1.06668-1.93242 9.33836-4.65406 18.38151-2.72164 9.04316-6.99259 23.4171-9.491 31.9421-2.49841 8.525-7.99242 27.2-12.2089 41.5-4.21649 14.3-8.10574 27.575-8.64279 29.5-.53704 1.925-2.7522 9.32316-4.92256 16.44035-2.17037 7.11719-4.43524 13.52969-5.03305 14.25-.5978.72031-1.81931 1.26688-2.71446 1.2146zm-390.94266-2.94039c-.92669-.0195-2.76037-.63152-4.07483-1.36007-1.31446-.72855-2.98601-2.4001-3.71456-3.71456-1.06457-1.92072-1.3316-16.68801-1.36007-75.21685L234 90.84615l2.92308-2.92307C238.82912 86.01704 240.8698 85 242.78822 85c1.61813 0 4.16135.9591 5.6516 2.13132 1.49025 1.17223 3.12685 3.22893 3.63689 4.57044.53709 1.41266.93991 32.28309.9572 73.35668.0264 62.71219-.15293 71.27104-1.54992 73.97253-.86888 1.68022-2.71252 3.48562-4.09699 4.01199-1.38446.52637-3.2754.94109-4.2021.9216zM289 230.93288c-.825-.0328-2.45035-.44364-3.61188-.91295-1.16154-.46931-3.07404-2.07647-4.25-3.57147C279.00986 223.74282 279 223.46314 279 165.81548c0-49.70036.21422-58.32906 1.51035-60.8355.83069-1.60638 2.37611-3.38403 3.43426-3.95034 1.05815-.5663 3.07139-1.02964 4.47387-1.02964 1.40248 0 3.96547 1.26475 5.69553 2.81056 2.34265 2.09315 3.35247 4.07137 3.95616 7.75.44584 2.71669.83492 28.33944.86464 56.93944.0349 33.59894-.31957 53.34541-1.00175 55.80202-.70944 2.55477-2.10182 4.43982-4.24443 5.74626-1.75375 1.06933-3.86363 1.9174-4.68863 1.8846zM605.95479 218c-.90486 0-6.32736-3.55449-12.05-7.89887-5.72263-4.34438-19.17979-14.73106-29.90479-23.0815-10.725-8.35045-20.06461-15.90985-20.75469-16.79867-.69008-.88883-.97435-2.53965-.63172-3.6685.34263-1.12885 1.35724-2.89724 2.25469-3.92974.89745-1.03251 12.79908-10.70751 26.44807-21.5 13.64899-10.7925 27.23861-21.38431 30.19916-23.53736 4.53761-3.29996 5.62633-3.71254 6.93365-2.62755 1.2105 1.00462 1.55084 3.46524 1.55084 11.21238 0 9.46698-.12309 10.03939-2.66567 12.39577-1.46613 1.35876-10.0282 8.12538-19.02683 15.03695l-16.36116 12.56647 17.49743 13.95429c9.62358 7.67486 18.18566 14.93688 19.02683 16.13782 1.08395 1.54756 1.5294 4.68176 1.5294 10.76102 0 5.33805-.4532 9.03069-1.2 9.77749-.66.66-1.94034 1.2-2.84521 1.2zm91.53874 0c-1.25375 0-2.5527-.7118-2.88654-1.58179-.33385-.86998-.60699-5.26985-.60699-9.77749 0-5.77905.45639-8.8473 1.54778-10.40547.85128-1.21537 9.17628-8.33969 18.5-15.83182 9.32372-7.49213 16.93846-13.91037 16.92164-14.26274-.0168-.35238-5.05104-4.46569-11.18715-9.14069-6.13611-4.675-14.4624-11.10487-18.50286-14.28861l-7.34629-5.78861.28344-10.6049c.22785-8.52483.60451-10.80693 1.92038-11.63496 1.2741-.80174 2.60407-.27935 6 2.3567 2.39968 1.86272 8.41306 6.58002 13.36306 10.4829 4.95 3.90287 16.875 13.29657 26.5 20.87488 9.625 7.57832 17.89348 14.61046 18.37439 15.62698.48092 1.01653.60861 2.9072.28377 4.20149-.38184 1.52135-7.9379 8.21293-21.3744 18.92894-11.43107 9.11663-24.99732 19.78633-30.14722 23.71044C703.85903 214.8866 698.77836 218 697.49353 218zM360 139.66379c-4.125 0-5.8125-.17651-3.75-.39226 2.0625-.21574 5.4375-.21574 7.5 0 2.0625.21575.375.39226-3.75.39226z"/></g></svg>