<svg width="1064" height="1064" viewBox="0 0 1064 1064" fill="none" xmlns="http://www.w3.org/2000/svg">
<path fill-rule="evenodd" clip-rule="evenodd" d="M870.996 595.051L816.103 355.776C811.679 336.875 799.414 321.393 781.921 312.948L559.938 206.38C551.694 202.559 542.243 200.146 533.195 200.146C524.147 200.146 514.697 202.358 506.05 206.38L283.062 312.948C265.368 321.192 253.102 336.674 248.88 355.776L193.585 595.051C189.161 613.952 193.585 633.456 205.85 648.737L359.871 840.359C371.735 855.238 389.831 863.683 408.531 863.683H655.447C674.347 863.683 692.243 855.439 704.106 840.359L858.127 648.737C870.392 633.858 874.816 613.952 870.392 595.051H870.795H870.996ZM483.128 384.328H501.225C506.453 384.328 510.876 380.106 510.876 374.677V289.221C510.876 283.993 515.099 279.57 520.528 279.57H543.651C548.879 279.57 553.302 283.792 553.302 289.221V374.677C553.302 379.905 557.525 384.328 562.954 384.328H581.05C588.49 384.328 593.115 392.371 589.495 398.805L540.434 483.658C536.814 490.092 527.364 490.092 523.745 483.658L474.683 398.805C471.064 392.371 475.689 384.328 483.128 384.328ZM386.011 562.277C380.783 562.277 376.359 566.499 376.359 571.928V590.025C376.359 597.464 368.316 602.089 361.882 598.47L277.03 549.408C270.596 545.789 270.596 536.338 277.03 532.719L361.882 483.658C368.316 480.038 376.359 484.663 376.359 492.103V510.199C376.359 515.427 380.582 519.85 386.011 519.85H471.466C476.694 519.85 481.118 524.073 481.118 529.502V552.625C481.118 557.853 476.895 562.277 471.466 562.277H386.011ZM581.05 697.799H563.155C557.927 697.799 553.503 702.021 553.503 707.45V792.906C553.503 798.134 549.281 802.557 543.852 802.557H520.729C515.501 802.557 511.077 798.335 511.077 792.906V707.45C511.077 702.223 506.855 697.799 501.426 697.799H483.329C475.89 697.799 471.265 689.756 474.884 683.322L523.946 598.47C527.565 592.035 537.016 592.035 540.635 598.47L589.696 683.322C593.316 689.756 588.691 697.799 581.251 697.799H581.05ZM787.149 549.408L702.296 598.47C695.862 602.089 687.819 597.464 687.819 590.025V571.928C687.819 566.7 683.597 562.277 678.168 562.277H592.712C587.485 562.277 583.061 558.054 583.061 552.625V529.502C583.061 524.274 587.283 519.85 592.712 519.85H678.168C683.396 519.85 687.819 515.628 687.819 510.199V492.103C687.819 484.663 695.862 480.038 702.296 483.658L787.149 532.719C793.583 536.338 793.583 545.789 787.149 549.408Z" fill="#002DC9"/>
</svg>
