<?xml version="1.0" encoding="UTF-8" standalone="no"?>
<!-- Created with Vectornator (http://vectornator.io/) -->

<svg
   height="100%"
   stroke-miterlimit="10"
   style="fill-rule:nonzero;clip-rule:evenodd;stroke-linecap:round;stroke-linejoin:round;"
   version="1.1"
   viewBox="0 0 1024 1024"
   width="100%"
   xml:space="preserve"
   id="svg24"
   sodipodi:docname="bpfman-icon-white.svg"
   inkscape:version="1.3.2 (091e20e, 2023-11-25)"
   inkscape:export-filename="bpfman-icon-white.png"
   inkscape:export-xdpi="48"
   inkscape:export-ydpi="48"
   xmlns:inkscape="http://www.inkscape.org/namespaces/inkscape"
   xmlns:sodipodi="http://sodipodi.sourceforge.net/DTD/sodipodi-0.dtd"
   xmlns:xlink="http://www.w3.org/1999/xlink"
   xmlns="http://www.w3.org/2000/svg"
   xmlns:svg="http://www.w3.org/2000/svg"
   xmlns:vectornator="http://vectornator.io"><sodipodi:namedview
   id="namedview24"
   pagecolor="#ffffff"
   bordercolor="#666666"
   borderopacity="1.0"
   inkscape:showpageshadow="2"
   inkscape:pageopacity="0.0"
   inkscape:pagecheckerboard="0"
   inkscape:deskcolor="#d1d1d1"
   inkscape:zoom="0.72640378"
   inkscape:cx="177.58718"
   inkscape:cy="499.03375"
   inkscape:window-width="1824"
   inkscape:window-height="752"
   inkscape:window-x="12"
   inkscape:window-y="374"
   inkscape:window-maximized="0"
   inkscape:current-layer="g12" />
<defs
   id="defs2"><linearGradient
     gradientTransform="matrix(1.96824,1.96824,-1.96824,1.96824,889.271,-962.545)"
     gradientUnits="userSpaceOnUse"
     id="LinearGradient"
     x1="368.462"
     x2="242.331"
     y1="427.053"
     y2="553.614">
<stop
   offset="0.42259201"
   stop-color="#33312c"
   id="stop1"
   style="stop-color:#000000;stop-opacity:1;" />
<stop
   offset="1"
   stop-color="#f3c622"
   id="stop2"
   style="stop-color:#ffffff;stop-opacity:1;" />
</linearGradient><path
     d="M408.122 594.596C408.122 496.388 487.402 351.785 510.932 351.785C534.462 351.785 615.859 489.949 615.859 588.156C615.859 686.363 540.082 800.446 510.932 800.446C481.781 800.446 408.122 692.803 408.122 594.596Z"
     id="Fill" /><path
     d="M408.122 594.596C408.122 496.388 487.402 351.785 510.932 351.785C534.462 351.785 615.859 489.949 615.859 588.156C615.859 686.363 540.082 800.446 510.932 800.446C481.781 800.446 408.122 692.803 408.122 594.596Z"
     id="Fill_2" /><path
     d="M408.122 594.596C408.122 496.388 487.402 351.785 510.932 351.785C534.462 351.785 615.859 489.949 615.859 588.156C615.859 686.363 540.082 800.446 510.932 800.446C481.781 800.446 408.122 692.803 408.122 594.596Z"
     id="Fill_3" /><path
     d="M408.132 487.086C408.132 487.086 460.956 499.819 512.01 499.917C563.063 500.015 615.868 487.825 615.868 487.825"
     id="Fill_4" /></defs>


<g
   opacity="1"
   vectornator:layerName="Group 12"
   id="g12"
   style="fill-rule:nonzero;clip-rule:evenodd;stroke-linecap:round;stroke-linejoin:round">
<path
   d="M0 511.997C0 229.229 229.229 0 511.997 0C794.771 0 1024 229.229 1024 511.997C1024 794.764 794.771 1023.99 511.997 1023.99C229.229 1023.99 0 794.764 0 511.997"
   fill="#f28f22"
   fill-rule="nonzero"
   opacity="1"
   stroke="none"
   vectornator:layerName="path"
   id="path3"
   style="fill:#666666;stroke:#808080;fill-opacity:1" />
<g
   opacity="1"
   vectornator:layerName="Group 13"
   id="g11">
<path
   d="M23.7286 666.345C29.2546 660.137 34.4969 653.942 39.3879 647.761C133.831 528.275 98.8841 443.615 18.743 374.809C6.61673 418.491 0.00304792 464.455 0.00304792 511.994C0.00304792 565.796 8.34616 617.631 23.7286 666.345"
   fill="#e0f222"
   fill-rule="nonzero"
   opacity="1"
   stroke="none"
   vectornator:layerName="path"
   id="path4"
   style="fill:#cdcdcd;stroke:#f9f9f9;fill-opacity:1" />
<path
   d="M369.233 540.003C404.592 411.411 243.465 300.39 94.2146 216.209C82.9329 232.112 72.4685 248.622 63.031 265.795C193.366 340.511 321.465 441.399 267.846 568.612C232.595 652.233 145.347 710.074 73.0427 775.603C82.3249 791.032 92.4041 805.921 103.213 820.23C194.433 728.138 334.956 664.683 369.233 540.003"
   fill="#e0f222"
   fill-rule="nonzero"
   opacity="1"
   stroke="none"
   vectornator:layerName="path"
   id="path5"
   style="fill:#cdcdcd;stroke:#f9f9f9;fill-opacity:1" />
<path
   d="M647.043 412.24C696.345 599.572 421.475 719.557 318.621 834.232C283.013 873.935 255.504 907.915 240.581 946.071C255.437 955.38 270.772 963.98 286.6 971.748C294.754 935.228 311.69 897.958 340.435 859.269C448.821 713.389 730.251 619.352 691.663 404.532C662.438 241.838 490.273 157.684 433.297 6.02865C397.263 11.5885 362.526 20.999 329.383 33.6589C410.314 176.498 604.456 250.411 647.043 412.24"
   fill="#e0f222"
   fill-rule="nonzero"
   opacity="1"
   stroke="none"
   vectornator:layerName="path"
   id="path6"
   style="fill:#cdcdcd;stroke:#f9f9f9;fill-opacity:1" />
<path
   d="M816.089 381.589C870.938 626.62 523.993 725.724 408.311 894.018C383.883 929.546 372.243 966.357 369.385 1003.72C389.922 1009.66 410.939 1014.46 432.448 1017.81C434.63 979.084 445.676 940.983 469.746 904.3C585.556 727.798 944.168 639.003 901.946 388.203C881.949 269.407 808.172 177.349 768.719 69.0775C728.936 45.9667 685.822 27.9429 640.168 16.1747C678.891 148.28 785.102 243.175 816.089 381.589"
   fill="#e0f222"
   fill-rule="nonzero"
   opacity="1"
   stroke="none"
   vectornator:layerName="path"
   id="path7"
   style="fill:#cdcdcd;stroke:#f9f9f9;fill-opacity:1" />
<path
   d="M217.058 863.965C306.954 745.418 592.282 632.385 576.014 457.726C561.652 303.544 340.158 208.345 204.195 102.864C188.928 114.369 174.403 126.772 160.534 139.878C313.473 236.286 518.241 339.423 514.255 477.358C509.013 658.718 253.261 741.703 155.042 878.881C165.844 889.393 177.065 899.465 188.759 908.997C196.366 893.919 205.729 878.901 217.058 863.965"
   fill="#e0f222"
   fill-rule="nonzero"
   opacity="1"
   stroke="none"
   vectornator:layerName="path"
   id="path8"
   style="fill:#cdcdcd;stroke:#f9f9f9;fill-opacity:1" />
<path
   d="M710.787 892.729C772.377 785.288 887.769 731.183 998.472 671.66C1002.22 660.223 1005.64 648.637 1008.59 636.855C900.955 711.734 770.425 764.353 689.094 873.725C658.12 915.38 646.798 959.791 647.967 1005.6C660.863 1002.05 673.59 998.109 686.054 993.603C685.318 958.616 692.418 924.764 710.787 892.729"
   fill="#e0f222"
   fill-rule="nonzero"
   opacity="1"
   stroke="none"
   vectornator:layerName="path"
   id="path9"
   style="fill:#cdcdcd;stroke:#f9f9f9;fill-opacity:1" />
<path
   d="M786.212 916.681C781.666 927.652 778.713 938.839 777.004 950.155C857.355 901.454 923.12 831.21 966.572 747.508C885.35 790.426 817.18 841.964 786.212 916.681"
   fill="#e0f222"
   fill-rule="nonzero"
   opacity="1"
   stroke="none"
   vectornator:layerName="path"
   id="path10"
   style="fill:#cdcdcd;stroke:#f9f9f9;fill-opacity:1" />
<path
   d="M1022.27 552.296C1023.31 538.981 1024 525.571 1024 511.999C1024 485.909 1022.02 460.292 1018.26 435.256C1000.29 645.725 704.564 722.043 592.773 877.866C557.043 927.675 541.174 975.795 538.12 1023.33C552.929 1022.59 567.534 1021.09 581.991 1019.11C583.477 976.497 595.076 933.68 621.815 890.438C710.002 747.822 924.862 687.123 1022.27 552.296"
   fill="#e0f222"
   fill-rule="nonzero"
   opacity="1"
   stroke="none"
   vectornator:layerName="path"
   id="path11"
   style="fill:#cdcdcd;stroke:#f9f9f9;fill-opacity:1" />
</g>
</g><g
   opacity="1"
   vectornator:layerName="Group 11"
   id="g24"
   style="clip-rule:evenodd;fill-rule:nonzero;stroke-linecap:round;stroke-linejoin:round"
   transform="matrix(1.177423,0,0,1.177423,-90.840592,-90.864538)">
<path
   d="m 408.122,594.596 c 0,-98.208 79.28,-242.811 102.81,-242.811 23.53,0 104.927,138.164 104.927,236.371 0,98.207 -75.777,212.29 -104.927,212.29 -29.151,0 -102.81,-107.643 -102.81,-205.85 z"
   fill="url(#LinearGradient)"
   fill-rule="nonzero"
   opacity="1"
   stroke="#33312c"
   stroke-linecap="butt"
   stroke-linejoin="round"
   stroke-width="33.0761"
   vectornator:layerName="Oval 1"
   id="path12"
   style="fill:url(#LinearGradient);stroke:#000000" />
<path
   d="m 413.689,351.785 c 0,0 2.592,-98.301 98.301,-98.301 95.71,0 98.302,98.301 98.302,98.301 z"
   fill="#f3c622"
   fill-rule="nonzero"
   opacity="1"
   stroke="#33312c"
   stroke-linecap="butt"
   stroke-linejoin="round"
   stroke-width="33.0761"
   vectornator:layerName="Oval 2"
   id="path13"
   style="fill:#b3b3b3;stroke:#000000" />
<path
   d="m 469.02,253.484 c 0,0 -17.117,-39.975 -51.156,-27.528"
   fill="none"
   opacity="1"
   stroke="#33312c"
   stroke-linecap="round"
   stroke-linejoin="round"
   stroke-width="33.0761"
   vectornator:layerName="Curve 2"
   id="path14"
   style="fill:#800000;stroke:#000000" />
<path
   d="m 557.039,253.484 c 0,0 17.117,-39.975 51.156,-27.528"
   fill="none"
   opacity="1"
   stroke="#33312c"
   stroke-linecap="round"
   stroke-linejoin="round"
   stroke-width="33.0761"
   vectornator:layerName="Curve 3"
   id="path15"
   style="stroke:#000000" />
<g
   opacity="1"
   vectornator:layerName="Group 2"
   id="g17">
<use
   fill="none"
   opacity="1"
   stroke="#f2ac22"
   stroke-linecap="butt"
   stroke-linejoin="round"
   stroke-width="33.0761"
   vectornator:layerName="Oval 5"
   xlink:href="#Fill"
   id="use15" />
<clipPath
   clip-rule="nonzero"
   id="ClipPath">
<use
   xlink:href="#Fill"
   id="use16" />
</clipPath>
<g
   clip-path="url(#ClipPath)"
   id="g16">
<path
   d="m 408.122,563.285 c 0,0 52.824,12.733 103.878,12.831 51.054,0.097 103.859,-12.092 103.859,-12.092"
   fill="none"
   opacity="1"
   stroke="#f2de22"
   stroke-linecap="butt"
   stroke-linejoin="miter"
   stroke-width="33.0761"
   vectornator:layerName="Curve 4"
   id="path16"
   style="fill:#b3b3b3;stroke:#b3b3b3" />
</g>
</g>
<g
   opacity="1"
   vectornator:layerName="Group 3"
   id="g19">
<use
   fill="none"
   opacity="1"
   stroke="#f3c622"
   stroke-linecap="butt"
   stroke-linejoin="round"
   stroke-width="33.0761"
   vectornator:layerName="Oval 4"
   xlink:href="#Fill_2"
   id="use17"
   style="stroke:#cccccc" />
<clipPath
   clip-rule="nonzero"
   id="ClipPath_2">
<use
   xlink:href="#Fill_2"
   id="use18" />
</clipPath>
<g
   clip-path="url(#ClipPath_2)"
   id="g18">
<path
   d="m 413.689,639.504 c 0,0 49.16,16.535 98.311,16.535 49.151,0 98.292,-16.535 98.292,-16.535"
   fill="none"
   opacity="1"
   stroke="#f3c622"
   stroke-linecap="round"
   stroke-linejoin="miter"
   stroke-width="33.0761"
   vectornator:layerName="Curve 5"
   id="path18"
   style="fill:#cccccc;stroke:#cccccc" />
</g>
</g>
<g
   opacity="1"
   vectornator:layerName="Group 4"
   id="g21">
<use
   fill="none"
   opacity="1"
   stroke="#f2de22"
   stroke-linecap="butt"
   stroke-linejoin="round"
   stroke-width="33.0761"
   vectornator:layerName="Oval 3"
   xlink:href="#Fill_3"
   id="use19" />
<clipPath
   clip-rule="nonzero"
   id="ClipPath_3">
<use
   xlink:href="#Fill_3"
   id="use20" />
</clipPath>
<g
   clip-path="url(#ClipPath_3)"
   id="g20">
<path
   d="m 443.442,718.569 c 0,0 35.402,12.715 68.548,12.631 33.147,-0.084 64.037,-12.968 64.037,-12.968"
   fill="none"
   opacity="1"
   stroke="#f2de22"
   stroke-linecap="square"
   stroke-linejoin="miter"
   stroke-width="33.0761"
   vectornator:layerName="Curve 6"
   id="path20"
   style="stroke:#e6e6e6" />
</g>
</g>
<g
   opacity="1"
   vectornator:layerName="Group 1"
   id="g23">
<use
   fill="none"
   opacity="1"
   stroke="#f3c622"
   stroke-linecap="butt"
   stroke-linejoin="miter"
   stroke-width="33.0761"
   vectornator:layerName="Curve 7"
   xlink:href="#Fill_4"
   id="use21"
   style="stroke:#e6e6e6" />
<clipPath
   clip-rule="nonzero"
   id="ClipPath_4">
<use
   xlink:href="#Fill_4"
   id="use22" />
</clipPath>
<g
   clip-path="url(#ClipPath_4)"
   id="g22">
<path
   d="m 408.122,594.596 c 0,-98.208 79.28,-242.811 102.81,-242.811 23.53,0 104.927,138.164 104.927,236.371 0,98.207 -75.777,212.29 -104.927,212.29 -29.151,0 -102.81,-107.643 -102.81,-205.85 z"
   fill="none"
   opacity="1"
   stroke="#f3c622"
   stroke-linecap="butt"
   stroke-linejoin="round"
   stroke-width="33.0761"
   vectornator:layerName="Oval 4"
   id="path22" />
</g>
</g>
<path
   d="m 408.122,594.596 c 0,-98.208 79.28,-242.811 102.81,-242.811 23.53,0 104.927,138.164 104.927,236.371 0,98.207 -75.777,212.29 -104.927,212.29 -29.151,0 -102.81,-107.643 -102.81,-205.85 z"
   fill="none"
   opacity="1"
   stroke="#33312c"
   stroke-linecap="butt"
   stroke-linejoin="round"
   stroke-width="33.0761"
   vectornator:layerName="Oval 3"
   id="path23"
   style="stroke:#000000" />
<path
   d="m 482.889,352.803 c -54.484,0.482 -174.112,21.593 -259.649,75.807 -139.4575,88.389 -45.997,193.92 37.751,192.758 129.666,-1.799 250.994,-226.93 250.994,-262.607 0,-2.356 -3.876,-4.076 -10.846,-5.047 -4.737,-0.661 -10.902,-0.976 -18.25,-0.911 z m 29.096,5.958 c 0,35.677 121.328,260.808 250.994,262.607 83.748,1.162 177.252,-104.369 37.795,-192.758 -96.603,-61.227 -236.747,-80.203 -277.364,-74.956 -7.336,0.948 -11.425,2.686 -11.425,5.107 z"
   fill="#ffffff"
   fill-rule="nonzero"
   opacity="1"
   stroke="#33312c"
   stroke-linecap="butt"
   stroke-linejoin="round"
   stroke-width="33.0761"
   vectornator:layerName="Curve 1"
   id="path24"
   style="stroke:#000000" />
</g>
</svg>
