<svg xmlns="http://www.w3.org/2000/svg" width="551.708" height="349.275" viewBox="0 0 145.973 92.412"><path d="M160.923 174.687a.193.193 0 0 0-.195.195v19.503c0 .106.086.196.195.196h4.048c.106 0 .195-.09.195-.196v-5.367c0-.046.017-.093.05-.13l.182-.205 1.6-1.782a.196.196 0 0 1 .301.017l1.528 2.06 2.736 3.68 1.002 1.347.367.496c.04.05.096.08.159.08h4.699a.2.2 0 0 0 .162-.311c-.284-.397-.608-.85-.972-1.356l-1.39-1.955c-.413-.575-.856-1.197-1.332-1.865l-.215-.305-1.76-2.48c-.853-1.194-1.498-2.097-1.934-2.705a.19.19 0 0 1 .016-.242l1.551-1.723 3.724-4.14 2.24-2.488a.218.218 0 0 0 .05-.122.195.195 0 0 0-.196-.202h-4.971a.195.195 0 0 0-.142.063l-1.558 1.693-3.324 3.615-2.235 2.428a.194.194 0 0 1-.338-.132v-7.472a.195.195 0 0 0-.195-.195zm-14.403 0a.198.198 0 0 0-.18.12l-5.211 12.064-.004.004-.007.013-.003.01-.674 1.564-.04.096-.086.195-.073.166v.003l-2.027 4.693-.297.69a.196.196 0 0 0 .178.276h4.299a.196.196 0 0 0 .175-.113h.001c0-.003.003-.003.003-.006l1.498-3.486.248-.576a.199.199 0 0 1 .182-.119h8.08a.19.19 0 0 1 .178.12l1.664 3.866 1.865-6.618-1.498-3.47-1.34-3.098-2.712-6.274a.191.191 0 0 0-.178-.12h-2.527zm7.904 19.58v.003l.086.191c.03.073.1.12.179.12h4.299a.197.197 0 0 0 .179-.275l-.04-.09-2.837-6.567zm-5.869-13.363c.073 0 .146.04.18.117l.943 2.2.953 2.225.284.665a.194.194 0 0 1-.178.27h-4.389a.194.194 0 0 1-.179-.27l.516-1.191 1.69-3.9a.195.195 0 0 1 .18-.116zm-20.145-6.674c-.828 0-1.618.077-2.37.236l.001.004v-.004h-.004a9.78 9.78 0 0 0-3.555 1.488v.001a10.59 10.59 0 0 0-1.498 1.223c-1.485 1.453-2.427 3.197-2.814 5.175l-.002.003-.014.077-.005.023-.042.224-.003.012v.006l-.01.084v.01a11.29 11.29 0 0 0-.127 1.715c0 2.63.817 4.872 2.45 6.727.176.205.368.403.566.598.506.497 1.042.93 1.608 1.3 1.68 1.098 3.618 1.647 5.818 1.647.244 0 .485-.006.724-.023 2.13-.119 4.001-.784 5.615-1.99.377-.282.741-.593 1.089-.934l.01-.01a9.985 9.985 0 0 0 1.921-2.582c.15-.288.282-.583.397-.887.46-1.174.688-2.457.688-3.846 0-.374-.016-.74-.05-1.098v-.007a9.841 9.841 0 0 0-.783-3.099 9.804 9.804 0 0 0-2.183-3.125c-.397-.39-.814-.741-1.25-1.052-1.76-1.263-3.817-1.895-6.178-1.895zm.016 3.874c1.66 0 3.059.625 4.196 1.875.063.066.123.135.176.205 1.021 1.214 1.531 2.66 1.531 4.336 0 1.17-.248 2.222-.744 3.161a6.457 6.457 0 0 1-1.138 1.545 5.658 5.658 0 0 1-1.382 1.049c-.79.423-1.67.634-2.64.634-.936 0-1.789-.198-2.56-.592a5.46 5.46 0 0 1-1.12-.77 5.668 5.668 0 0 1-.516-.502c-1.14-1.244-1.71-2.752-1.71-4.525 0-.052 0-.102.003-.155.03-1.707.599-3.169 1.706-4.386.83-.913 1.803-1.495 2.914-1.74.41-.09.837-.135 1.284-.135zm-23.224-3.417a.193.193 0 0 0-.196.195v19.503c0 .106.087.196.196.196h12.528c.109 0 .195-.09.195-.196v-3.568a.195.195 0 0 0-.195-.195h-8.09a.192.192 0 0 1-.195-.192v-15.548a.19.19 0 0 0-.113-.175.174.174 0 0 0-.082-.02h-2.243zm-10.455-.456c-2.923 0-5.394.989-7.415 2.96-.367.36-.7.738-1.002 1.131v.003c-1.353 1.757-2.027 3.84-2.027 6.251 0 1.376.215 2.639.648 3.793l.006-.002-.005.003a9.24 9.24 0 0 0 1 1.948v.003c.002 0 .002.003.002.003a9.826 9.826 0 0 0 1.323 1.58c.612.596 1.27 1.1 1.984 1.513h.003c.18.102.361.201.546.294.132.066.268.13.407.189h.007l.003.003h.004c1.37.602 2.907.903 4.617.903.502 0 .996-.036 1.475-.106h.01c.308-.043.612-.102.913-.175 1.683-.404 3.224-1.257 4.63-2.556l-.001-.002.002.002c.281-.258.559-.54.83-.838a.199.199 0 0 0-.007-.27l-2.566-2.643a.19.19 0 0 0-.173-.056.212.212 0 0 0-.115.07c-.685.81-1.466 1.418-2.339 1.821v.001c-.866.4-1.825.598-2.873.598-.718 0-1.39-.112-2.012-.34a5.641 5.641 0 0 1-2.056-1.34 5.432 5.432 0 0 1-1.3-2.066h-.008l.008-.001c-.255-.715-.38-1.508-.38-2.384 0-1.724.512-3.12 1.544-4.184.076-.076.152-.153.234-.229 1.184-1.091 2.613-1.637 4.283-1.637.612 0 1.198.077 1.75.229 1.27.343 2.385 1.084 3.344 2.215.076.09.214.097.29.007l2.497-2.831a.201.201 0 0 0-.002-.265c-1.955-2.147-4.323-3.334-7.101-3.556v.001c-.321-.026-.645-.04-.976-.04zm-27.205.456a.195.195 0 0 0-.169.291l1.892 3.308 3.423 5.982 1.379 2.411a.2.2 0 0 1 .026.097v7.609c0 .106.086.196.195.196h4.049c.109 0 .195-.09.195-.196v-7.609c0-.034.01-.067.026-.097l.976-1.706 3.704-6.476.757-1.32.503-.88h-.007l.007-.002.754-1.317a.194.194 0 0 0-.168-.29H80.72a.196.196 0 0 0-.168.095l-3.952 6.803-.003.004v.003l-.212.155-.159.122a.203.203 0 0 1-.082-.076l-.066-.112-.1-.169-3.905-6.73a.196.196 0 0 0-.169-.096zm15.537 2.04v.002l-.004.002zm-31.529-2.04a.193.193 0 0 0-.194.195v19.504c0 .105.086.195.195.195h14.265c.108 0 .194-.09.194-.196v-3.539a.196.196 0 0 0-.195-.195H55.99a.195.195 0 0 1-.195-.195v-3.737c0-.106.09-.195.195-.195h8.52a.195.195 0 0 0 .195-.195v-3.393c0-.11-.09-.195-.195-.195h-8.52a.196.196 0 0 1-.195-.196v-3.705c0-.11.09-.196.195-.196h9.516a.195.195 0 0 0 .194-.196v-3.566a.195.195 0 0 0-.194-.195h-7.83zm-19.34 0a.193.193 0 0 0-.195.195v19.503c0 .106.086.196.195.196h4.048c.109 0 .195-.09.195-.196v-5.367c0-.046.017-.093.05-.13l.843-.942.939-1.045a.196.196 0 0 1 .301.017l2.808 3.777.002.002 2.016 2.713.81 1.091a.19.19 0 0 0 .155.08h4.703a.197.197 0 0 0 .159-.311l-.172-.242a690.139 690.139 0 0 1-1.846-2.586c-.565-.79-1.193-1.674-1.888-2.653l-.07-.099v.002-.002a1566.107 1566.107 0 0 0-3.627-5.086.195.195 0 0 1 .016-.242l1.773-1.967h-.006l.006-.001v-.003l1.458-1.621 1.402-1.558 2.881-3.201a.194.194 0 0 0-.145-.324h-3.268v.001l-1.7-.001a.196.196 0 0 0-.145.063l-3.08 3.345-4.038 4.39c-.119.132-.337.046-.337-.132v-7.474a.193.193 0 0 0-.195-.192h-2.11Zm.09 9.823-.001.01zm12.27 8.34v.001h-.001z" style="fill:#000;fill-opacity:1;fill-rule:nonzero;stroke:none;stroke-width:.330729" transform="translate(-32.015 -102.394)"/><path d="M74.179 194.513c-.025-.025-.045-1.789-.045-3.92v-3.875l-3.38-5.905c-1.996-3.487-3.365-5.944-3.343-6.002.033-.085.358-.099 2.279-.099 2.052 0 2.25.01 2.341.116.055.064.986 1.649 2.07 3.522 1.082 1.874 2.002 3.444 2.044 3.489.195.21.46-.182 2.48-3.662l2.01-3.465h2.275c1.894 0 2.28.016 2.31.093.02.051-1.477 2.738-3.326 5.97l-3.361 5.875-.033 3.937-.034 3.936-2.12.017c-1.168.01-2.142-.003-2.167-.027zm-22.769-.04c-.017-.045-.023-4.503-.014-9.905l.017-9.823h14.221v3.837l-4.855.017c-3.453.012-4.881.038-4.945.09-.13.109-.13 3.91 0 4.018.063.053 1.362.079 4.449.091l4.359.017v3.638l-4.36.017c-3.086.012-4.385.039-4.448.091-.07.059-.089.465-.089 1.978 0 1.048.018 1.952.04 2.01.037.094.539.104 4.999.104 3.291 0 5.001.023 5.086.069.122.065.128.157.128 1.872 0 1.314-.022 1.825-.08 1.883-.118.118-14.463.115-14.508-.003z" style="fill:#000;fill-opacity:1;stroke-width:.0661458" transform="translate(-32.015 -102.394)"/><path d="m89.19 102.394-37.515.004-9.316 16.08h-.001l-9.445 16.402v.002l3.965 6.883 5.385 9.352v.002l9.424 16.242 37.504-.013 13.278-23.303 1.03-1.784a.596.596 0 0 1 .512-.296h5.481c.216 0 .41.113.513.296l1.983 3.433.42.723a.592.592 0 0 0 1.025 0l2.398-4.156a.596.596 0 0 1 .512-.296h5.483c.21 0 .41.113.512.296l2.403 4.156a.592.592 0 0 0 1.024 0l1.327-2.291 1.078-1.865a.589.589 0 0 1 .512-.296h1.644c.216 0 .41.113.517.296l2.399 4.156a.592.592 0 0 0 1.024 0l2.399-4.156a.596.596 0 0 1 .512-.296h8.748c.21 0 .41.113.513.296l2.398 4.156a.591.591 0 0 0 1.024 0l2.405-4.156a.589.589 0 0 1 .512-.296h1.644c.216 0 .41.113.512.296l.054.097 2.35 4.059a.591.591 0 0 0 1.024 0l2.404-4.156a.596.596 0 0 1 .512-.296h5.482c.21 0 .41.113.512.296l1.461 2.528.938 1.622c.208.362.697.375.952.07l-.024.255 6.684-11.801h-.025L175.005 131h-69.824l-.49-.863h69.82l-1.787-3.122h-69.808l-.49-.863h69.804l-1.788-3.124h-69.807l-.49-.862h69.803l-2.022-3.533h-69.47ZM64.167 113.23l-.003.004 3.125 5.403-9.371 16.255 9.358 16.223-3.11 5.43-.002-.003.005.009h-6.254l-9.379-16.244.001-.002-3.136-5.388 3.18-5.52 9.336-16.167zm12.49.004.004.005-.002-.004 6.261.002 9.377 16.24v.004l-3.125 5.409 3.125-5.406 3.133 5.444-12.514 21.62h-6.243v-.001c-1.15-1.689-3.118-5.427-3.118-5.427l9.377-16.231-9.38-16.253z" style="display:inline;fill:#000;fill-opacity:1;stroke-width:.431224" transform="translate(-32.015 -102.394)"/></svg>