<svg xmlns="http://www.w3.org/2000/svg" role="img" viewBox="-0.27 -0.27 305.54 482.04"><defs><style>.cls-1{fill:#fff}</style></defs><path d="M264.062 348.315a6.624 6.624 0 01-1.926.364q-.328.012-.657-.008a17.904 17.904 0 01-3.518-.356 23.49 23.49 0 01-3.473-1.069l-1.114 5.389a21.16 21.16 0 002.85.89 21.463 21.463 0 005.21.535h.001a20.163 20.163 0 002.858-.195 10.419 10.419 0 004.489-1.587 5.943 5.943 0 002.628-5.254 8.488 8.488 0 00-.356-2.583 4.736 4.736 0 00-1.158-2.004 7.554 7.554 0 00-.946-.876c-.088-.069-.178-.133-.269-.198a7.557 7.557 0 00-1.012-.618 25.177 25.177 0 00-3.607-1.603 38.734 38.734 0 01-1.501-.596c-.09-.039-.197-.08-.28-.117l-.12-.067a16.83 16.83 0 01-.557-.314 9.083 9.083 0 01-.392-.242 1.663 1.663 0 01-.503-.577c-.009-.017-.023-.03-.03-.047a1.791 1.791 0 01-.135-.712q0-1.737 3.117-1.737a13.378 13.378 0 013.028.312q.544.12 1.08.27.538.148 1.068.32c.13.042.262.078.391.122l1.158-5.166a17.916 17.916 0 00-3.118-.802 20.407 20.407 0 00-4.085-.4h-.012q-.449-.026-.895-.013a10.655 10.655 0 00-5.829 1.928c-.138.106-.263.223-.39.338a6.252 6.252 0 00-2.06 4.872 7.668 7.668 0 00.49 2.895 6.27 6.27 0 001.381 2.093 8.77 8.77 0 002.138 1.47q1.27.613 2.8 1.183l.05.019a17.149 17.149 0 012.983 1.381 1.643 1.643 0 01.98 1.38 1.376 1.376 0 01-.757 1.38zm-41.897-.133c-.044.007-.088.01-.132.016a13.8 13.8 0 01-2.05.162 3.854 3.854 0 01-2.513-.701 2.169 2.169 0 01-.47-.546 6.718 6.718 0 01-.469-1.206l-.228-1.27a6.723 6.723 0 01-.016-.864v-8.239h7.972v-5.522h-7.972v-6.902l-6.635 1.069v19.683c0 .077.01.154.01.231a19.792 19.792 0 00.39 3.91 8.03 8.03 0 001.515 3.207 7.345 7.345 0 002.85 2.048 12.208 12.208 0 004.498.713 15.562 15.562 0 003.607-.357 18.873 18.873 0 002.672-.846l-.936-5.166a12.53 12.53 0 01-2.093.58zm20.963-18.102a10.305 10.305 0 00-4.27-.691c-.095 0-.188.011-.282.014a11.391 11.391 0 00-3.905.787 10.521 10.521 0 00-3.562 2.36 11.92 11.92 0 00-2.44 3.706c-.03.072-.069.141-.098.214-.113.298-.212.6-.301.905s-.168.613-.24.922c-.067.281-.14.56-.188.844-.018.101-.023.204-.038.305a14.44 14.44 0 00-.132 1.07c-.021.282-.018.566-.023.85-.002.179-.018.357-.014.536v.001c-.001.178.012.354.016.532.006.23.005.46.021.688.02.285.058.567.093.85.015.12.021.242.04.362.04.27.097.537.15.805.027.13.045.263.075.393.02.091.05.18.073.27.075.305.151.61.245.91q.134.403.3.794.164.391.359.767a10.775 10.775 0 001.612 2.312 11.885 11.885 0 003.874 2.54c.14.051.287.088.429.136a15.324 15.324 0 002.298.577c.115.02.23.041.345.058a14.555 14.555 0 002.45.163q.625 0 1.249-.034.623-.033 1.245-.1c.204-.022.394-.05.59-.076a22.89 22.89 0 001.726-.28q.508-.078 1.01-.19.5-.11.994-.255l.08-.026a9.176 9.176 0 001.345-.509l-.89-5.388a14.312 14.312 0 01-2.896.846 20.119 20.119 0 01-2.23.255c-.444.029-.887.058-1.332.057a7.696 7.696 0 01-4.542-1.203c-.12-.08-.215-.186-.325-.278a4.401 4.401 0 01-.998-1.132c-.036-.062-.055-.134-.088-.198a4.39 4.39 0 01-.504-1.642h15.052q.044-.53.088-1.19l.001-.013.007-.136c.015-.262.024-.506.03-.742.003-.141.007-.283.007-.413q0-5.923-2.894-8.95a10.305 10.305 0 00-3.612-2.384zm-8.279 7.637a4.767 4.767 0 01.847-1.47 3.72 3.72 0 011.336-.98 4.239 4.239 0 011.915-.4 4.07 4.07 0 011.914.4 3.733 3.733 0 011.292 1.024 3.674 3.674 0 01.757 1.426 6.218 6.218 0 01.285 1.424c.007.075.023.148.027.223h-8.773a10.27 10.27 0 01.4-1.647zm-4.278-278.664q.877.001 1.622-.065.745-.065 1.228-.154v-11.88a5.693 5.693 0 00-1.6-.658 7.718 7.718 0 00-1.995-.263 5.719 5.719 0 00-1.09.099 3.979 3.979 0 00-1.3.516c-1.494.894-2.258 2.777-2.258 5.698a8 8 0 001.36 4.867 4.692 4.692 0 004.033 1.84zm-99.173 274.106a8.644 8.644 0 00-.599-.697 10.176 10.176 0 00-5.805-2.964q-.511-.078-1.031-.107a9.939 9.939 0 00-1.046-.002 11.397 11.397 0 00-4.186.801 10.518 10.518 0 00-3.562 2.36 11.924 11.924 0 00-2.539 3.92q-.246.65-.429 1.32a14.439 14.439 0 00-.406 2.214c-.019.17-.05.34-.063.511-.02.273-.017.547-.022.82-.003.19-.019.378-.015.567v.001c0 .041.004.082.004.123a15.695 15.695 0 00.708 4.686 11.353 11.353 0 002.271 3.874 11.124 11.124 0 003.728 2.473c.05.02.097.046.147.066a14.939 14.939 0 005.522.935 23.397 23.397 0 002.494-.134q1.247-.133 2.315-.356a15.572 15.572 0 002.004-.445q.367-.104.724-.238.356-.134.701-.297l-.89-5.388a14.304 14.304 0 01-2.895.846 20.127 20.127 0 01-3.562.312 7.688 7.688 0 01-1.196-.032l-2.292-.607a7.7 7.7 0 01-1.055-.564 4.409 4.409 0 01-.743-.636c-.085-.09-.144-.198-.22-.294a4.417 4.417 0 01-.36-.48c-.05-.085-.076-.181-.12-.269a4.393 4.393 0 01-.276-.613c-.019-.058-.02-.12-.037-.18a4.38 4.38 0 01-.159-.778h15.052q.045-.535.09-1.203.044-.712.044-1.291 0-.74-.045-1.436a12.23 12.23 0 00-2.251-6.818zm-6.935 1.921a4.065 4.065 0 01.458.187 3.732 3.732 0 011.291 1.024 3.674 3.674 0 01.758 1.426 6.22 6.22 0 01.311 1.647h-8.772a10.27 10.27 0 01.4-1.647 4.765 4.765 0 01.846-1.47 3.72 3.72 0 011.336-.98 4.398 4.398 0 011.893-.4h.022a4.07 4.07 0 011.457.213zM101.98 50.198a6.791 6.791 0 00-.285-1.622 4.067 4.067 0 00-.745-1.403 3.98 3.98 0 00-1.272-1.009 4.142 4.142 0 00-1.907-.394 4.386 4.386 0 00-1.885.372 3.9 3.9 0 00-1.316.987 4.416 4.416 0 00-.81 1.425h.001a9.31 9.31 0 00-.417 1.644h8.636zM61.058 245.505l45.51 56.583a12.611 12.611 0 009.83 4.692l72.98-.016a12.61 12.61 0 009.83-4.684l45.491-56.592a13.8 13.8 0 001.44-2.247q.198-.396.365-.803a12.423 12.423 0 00.739-2.527q.077-.432.125-.87.055-.509.068-1.023a12.323 12.323 0 00-.307-3.083l-16.246-70.567c-.048-.208-.12-.407-.179-.611a12.476 12.476 0 00-6.623-7.849l-65.758-31.398a12.671 12.671 0 00-10.914 0l-65.75 31.415a12.49 12.49 0 00-6.802 8.46l-16.221 70.567a12.385 12.385 0 001.707 9.561q.333.514.715.992zm87.457-78.158l.093-1.649.005-.005.004-.004a4.267 4.267 0 001.268-2.018 36.531 36.531 0 00-.429-7.06l-.007-.062v-.006c-.063-.434-.14-.85-.214-1.25a16.304 16.304 0 01-.326-2.495c-.007-.192-.002-.437.003-.672l.005-.265.001-.074-.005-.047a.62.62 0 01-.004-.062 4.003 4.003 0 010-.817l.005-.025a3.96 3.96 0 01.155-.752c.034-.11.088-.208.13-.313a3.995 3.995 0 01.17-.399 3.916 3.916 0 01.228-.341c.068-.1.126-.204.202-.296.083-.1.181-.185.273-.277.09-.09.173-.186.271-.267.094-.077.2-.137.3-.205a3.925 3.925 0 01.338-.225 4.01 4.01 0 01.4-.171c.105-.043.203-.096.312-.13a3.964 3.964 0 01.755-.155l.022-.005c.133-.013.272 0 .408 0s.275-.013.408 0h.001l.024.005a3.958 3.958 0 01.753.155c.109.034.207.088.312.13a4.006 4.006 0 01.4.17 3.912 3.912 0 01.34.228c.1.067.204.126.297.203.099.081.182.178.273.268.091.092.189.176.27.276.077.093.137.198.205.297a3.92 3.92 0 01.226.34 4.001 4.001 0 01.17.398c.043.105.096.204.13.314a3.966 3.966 0 01.153.74c.001.013.006.024.007.037a4.011 4.011 0 010 .79v.027l.005.382c.003.13.006.262.007.388s0 .245-.004.35a16.297 16.297 0 01-.325 2.495c-.075.402-.15.816-.213 1.25l-.026.21a35.927 35.927 0 00-.42 6.922 2.715 2.715 0 001.063 1.747l.214.198.001.001.01.009v.014c0 .031.003.062.004.093q.034.767.08 1.534l.005.101a51.036 51.036 0 0117.81 4.953 52.177 52.177 0 0114.832 10.817l1.483-1.057h.012l.205.014a3.907 3.907 0 002.164-.27c.117-.086.228-.18.344-.268a35.983 35.983 0 004.82-4.391l.127-.13.008-.008c.294-.313.568-.626.832-.928a16.882 16.882 0 011.77-1.823c.117-.102.265-.22.417-.34l.212-.167.245-.192.007-.006a4.002 4.002 0 01.642-.51l.01-.008c.062-.04.13-.062.194-.098a3.982 3.982 0 01.503-.253c.114-.045.23-.067.346-.1a4.015 4.015 0 01.398-.108 3.912 3.912 0 01.405-.036c.12-.01.24-.027.36-.025.131.002.26.025.389.04.126.014.252.02.376.046.12.026.236.071.355.108a3.905 3.905 0 01.378.123 4.006 4.006 0 01.369.198c.103.057.21.104.31.171a3.983 3.983 0 01.437.364c.056.05.118.09.171.145a4.07 4.07 0 01.26.323c.084.105.178.204.25.315l.007.01c.041.065.064.135.1.2a3.978 3.978 0 01.251.498c.045.114.067.231.1.347a3.992 3.992 0 01.108.396 3.93 3.93 0 01.036.405c.009.12.027.24.025.362-.002.13-.025.257-.04.385-.014.127-.02.254-.047.379-.025.12-.07.235-.107.352a3.92 3.92 0 01-.124.381 4.008 4.008 0 01-.196.366c-.057.105-.105.213-.173.312a3.976 3.976 0 01-.36.434c-.051.057-.092.121-.148.175a4.002 4.002 0 01-.642.511l-.007.006-.275.225c-.206.17-.418.346-.592.474a15.836 15.836 0 01-2.14 1.287l-.07.039c-.347.183-.703.372-1.064.585a37.102 37.102 0 00-5.5 3.824c-.115.096-.233.186-.347.283a2.712 2.712 0 00-.481.768c-.018.042-.044.08-.06.123a2.709 2.709 0 00-.075.286c-.018.073-.045.144-.057.218a2.725 2.725 0 00-.02.301c-.003.075-.016.15-.014.225-.006.09-.012.179-.02.268l-.002.018v.013l-.01.009-.12.109-.483.432-.59.528-.182.164 1.928 3.138a51.128 51.128 0 013.047 6.308 51 51 0 01.555 1.441q.767 2.094 1.35 4.245a51.043 51.043 0 011.78 13.221v.056a51.159 51.159 0 01-.468 6.98l1.573.457.007.01.114.165a3.918 3.918 0 001.568 1.53 36.512 36.512 0 006.97 1.15l.048.005.03.003q.641.05 1.284.07a16.023 16.023 0 012.493.234h.005q.36.074.714.166l.298.072.13.03a3.983 3.983 0 01.71.163c.011.004.02.01.032.014a3.903 3.903 0 01.453.2c.09.044.188.077.274.127a3.922 3.922 0 01.34.242c.099.071.204.134.294.214.087.077.159.168.24.253a3.977 3.977 0 01.283.305c.076.1.134.21.2.317.07.109.146.212.204.327a4.01 4.01 0 01.147.375c.044.113.097.222.13.338.031.113.042.23.063.346a3.922 3.922 0 01.072.423c.007.097-.005.197-.004.296a3.902 3.902 0 01-.017.5c-.016.13-.055.257-.084.386-.027.12-.04.24-.079.36-.003.012-.01.021-.014.033a3.896 3.896 0 01-.2.451c-.044.091-.077.189-.127.275a3.93 3.93 0 01-.244.345c-.071.096-.133.2-.211.289s-.172.162-.257.243a3.996 3.996 0 01-.302.28c-.1.078-.214.136-.32.204-.108.067-.21.144-.323.2a3.984 3.984 0 01-.387.152c-.109.042-.214.093-.327.125-.115.032-.237.043-.356.065a3.932 3.932 0 01-.412.07c-.1.008-.202-.004-.303-.004a3.885 3.885 0 01-.494-.016 3.986 3.986 0 01-.746-.163l-.026-.003-.033-.005a.292.292 0 01-.045-.015.259.259 0 00-.03-.01 20.156 20.156 0 00-.377-.078l-.005-.001a13.19 13.19 0 01-.57-.125c-.022-.006-.047-.01-.067-.016a16.169 16.169 0 01-2.35-.87c-.379-.163-.772-.333-1.185-.493l-.11-.038c-.171-.069-.346-.128-.518-.194a36.279 36.279 0 00-6.228-1.783 2.48 2.48 0 00-.21-.01h-.014a2.789 2.789 0 00-1.712.654c-.082.056-.161.112-.243.166l-.012.007-.014-.002-.007-.002a55.164 55.164 0 00-1.643-.288 51.255 51.255 0 01-22.669 28.516c.036.089.078.198.121.313l.078.208a5.972 5.972 0 00.44 1.032l.007.01.005.005-.003.011-.003.008-.028.07-.08.207a2.69 2.69 0 00-.194 2.022 36.861 36.861 0 003.487 6.24q.359.529.74 1.042a16.17 16.17 0 011.371 2.097c.106.199.231.465.353.722l.161.338a4.212 4.212 0 01-1.69 5.637 3.762 3.762 0 01-3.088.056c-.087-.037-.163-.09-.247-.132a4.616 4.616 0 01-2.15-2.168l-.14-.285a16.599 16.599 0 01-.345-.72l-.003-.005c-.027-.064-.047-.13-.073-.194a16.51 16.51 0 01-.722-2.203c-.056-.208-.124-.427-.185-.642-.055-.19-.103-.375-.165-.571l-.03-.09a36.417 36.417 0 00-2.667-6.522 2.727 2.727 0 00-1.717-1.12c-.092-.028-.184-.055-.274-.084l-.01-.004-.008-.012c-.04-.07-.12-.21-.212-.377l-.184-.333c-.12-.218-.24-.437-.347-.627l-.084-.151a50.965 50.965 0 01-36.288-.093l-.884 1.602-.014.004a3.397 3.397 0 00-1.678.815 15.706 15.706 0 00-2.202 4.72c-.26.769-.53 1.56-.84 2.34-.091.29-.165.568-.242.847-.035.127-.076.26-.11.384a16.122 16.122 0 01-.783 2.378l-.01.021c-.085.19-.2.425-.316.653l-.04.082-.118.238-.003.014a.054.054 0 01-.013.016 4.445 4.445 0 01-3.902 2.586 3.61 3.61 0 01-1.572-.356 4.21 4.21 0 01-1.69-5.636c.056-.114.117-.247.18-.383l.125-.268a9.42 9.42 0 01.201-.41 16.46 16.46 0 011.378-2.113c.147-.201.298-.42.449-.632.095-.136.19-.261.285-.402v-.001a38.252 38.252 0 003.559-6.396 3.881 3.881 0 00-.35-2.2l-.005-.013.006-.012.703-1.689a51.265 51.265 0 01-22.676-28.314l-1.698.292h-.001l-.01-.006-.01-.006q-.082-.046-.163-.094a3.909 3.909 0 00-2.046-.692l-.024-.003a36.305 36.305 0 00-6.733 1.973l-.05.018-.07.026c-.406.155-.79.32-1.162.48a16.597 16.597 0 01-2.323.858l-.049.016c-.201.054-.461.109-.711.162l-.07.015-.238.051a.28.28 0 00-.03.01h-.002a.34.34 0 01-.044.014l-.033.005-.026.004-.007.002a3.98 3.98 0 01-.703.16c-.014.002-.028 0-.041.001a3.9 3.9 0 01-.401.013c-.135.003-.27.016-.402.006-.077-.007-.151-.028-.228-.039a3.971 3.971 0 01-.545-.1l-.02-.008a2.898 2.898 0 01-1.204-.62 3.948 3.948 0 01-.435-.328 4.002 4.002 0 01-.284-.345 3.88 3.88 0 01-.325-.399 3.96 3.96 0 01-.421-.892c-.009-.025-.011-.053-.02-.079a3.963 3.963 0 01-.15-.631c-.002-.023.001-.046-.001-.069-.007-.06-.002-.117-.006-.176a4.013 4.013 0 01-.008-.619c.001-.018.007-.035.009-.053a3.97 3.97 0 01.817-2.057c.027-.036.063-.065.092-.1a3.988 3.988 0 01.43-.453c.057-.05.125-.088.186-.135a3.939 3.939 0 01.445-.315c.076-.044.162-.073.242-.112a3.902 3.902 0 01.479-.21 3.992 3.992 0 01.737-.176l.03-.008.027-.01h.002l.015-.003.02-.005c.097-.022.202-.048.309-.074.245-.06.493-.12.7-.16l.042-.01a16.078 16.078 0 012.492-.233c.026 0 .054-.003.08-.004.39-.015.79-.031 1.207-.065l.094-.01a36.422 36.422 0 006.954-1.15 7.115 7.115 0 001.514-1.487l.16-.208.006-.009.012-.004 1.226-.355.394-.115a50.961 50.961 0 018.024-35.473l-1.25-1.115v-.004l-.002-.009-.017-.116-.01-.064a3.923 3.923 0 00-.754-2.072c-.177-.152-.361-.295-.542-.443a38.662 38.662 0 00-3.77-2.743q-.755-.478-1.534-.92a27.635 27.635 0 00-1.123-.618 16.14 16.14 0 01-2.142-1.292 9.109 9.109 0 01-.226-.176q-.151-.12-.31-.252l-.052-.042a25.423 25.423 0 00-.187-.153l-.042-.034-.025-.018-.034-.024a4.635 4.635 0 01-1.712-2.849 3.753 3.753 0 01.74-3 3.803 3.803 0 013.016-1.403l.146.002h.002a5.017 5.017 0 012.762 1.042l.051.04.186.146c.217.17.463.363.638.513a16.485 16.485 0 011.748 1.808c.267.307.544.625.844.944l.068.068a36.415 36.415 0 005.232 4.72 2.716 2.716 0 002.035.264q.14-.023.28-.042l.013-.002.012.008a56.183 56.183 0 001.396.992 50.647 50.647 0 0125.711-14.68 51.35 51.35 0 017.09-1.09z" class="cls-1"/><path d="M296.214 80.65V54.844a45.717 45.717 0 00-45.583-45.583H55.134A45.717 45.717 0 009.551 54.844V396.52H296.26V80.65zM218.68 50.067a17.023 17.023 0 01.537-2.478 11.022 11.022 0 012.016-3.836 8.633 8.633 0 013.222-2.411 10.81 10.81 0 014.363-.833 10.268 10.268 0 012.433.263 13.197 13.197 0 012.17.745V31.083l6.532-1.052h.001v33.275q-.877.264-2.017.504-1.14.241-2.39.417-1.25.174-2.543.284t-2.476.11a14.594 14.594 0 01-5.086-.832 10.204 10.204 0 01-3.77-2.39 10.475 10.475 0 01-2.345-3.77 15.372 15.372 0 01-.812-4.976 17.03 17.03 0 01.165-2.586zm-24.492-2.741a11.513 11.513 0 011.707-2.962l.008-.012c.141-.176.298-.34.45-.509.105-.117.201-.24.311-.353a10.303 10.303 0 013.53-2.323 11.053 11.053 0 014.1-.789 10.19 10.19 0 017.76 3.003q2.849 3.003 2.85 8.832v.001q-.002.57-.045 1.25-.044.68-.088 1.206h-14.818a4.34 4.34 0 001.885 3.2 7.578 7.578 0 004.472 1.184 18.883 18.883 0 003.068-.265c.153-.025.308-.036.461-.065.327-.055.647-.14.968-.22a13.29 13.29 0 001.86-.59l.877 5.304v.001a9.023 9.023 0 01-1.404.525 18.294 18.294 0 01-1.95.46q-1.075.198-2.302.33a23.016 23.016 0 01-2.455.131 14.525 14.525 0 01-5.414-.92 10.535 10.535 0 01-3.815-2.52h.001a10 10 0 01-2.236-3.794 15.016 15.016 0 01-.723-4.735 14.095 14.095 0 01.942-5.37zm-11.867-15.23a3.581 3.581 0 01.522-.596 4.157 4.157 0 015.48 0 3.588 3.588 0 011.162 2.827 3.587 3.587 0 01-1.16 2.828 3.997 3.997 0 01-2.74 1.03h-.002a3.995 3.995 0 01-2.74-1.03 3.583 3.583 0 01-1.162-2.828 3.585 3.585 0 01.64-2.231zm6.55 8.895v23.06h-6.532v-23.06zm-14.906-10.96a12.664 12.664 0 013.047.307 14.745 14.745 0 012.04.657l-1.14 5.13a6.256 6.256 0 00-1.558-.44 11.352 11.352 0 00-1.73-.131 5.324 5.324 0 00-1.996.33 3.08 3.08 0 00-1.27.898 3.477 3.477 0 00-.659 1.359 7.052 7.052 0 00-.197 1.71v1.14h8.067v5.436h-8.067V64.05h-6.532V39.763a9.836 9.836 0 012.52-7.102q2.52-2.63 7.475-2.63zm-23.058 2.753a3.582 3.582 0 01.897-1.284 4.154 4.154 0 015.48 0 3.586 3.586 0 011.162 2.827 3.585 3.585 0 01-1.162 2.828 4.16 4.16 0 01-5.48 0 3.583 3.583 0 01-1.16-2.828 3.584 3.584 0 01.263-1.543zm6.925 8.207v23.06H151.3v-23.06zm-26.216-5.744l6.533-1.052v6.795h7.847v5.438h-7.847v8.11a6.45 6.45 0 00.723 3.288 2.078 2.078 0 00.453.537 3.743 3.743 0 002.462.69 12.462 12.462 0 002.17-.197 11.137 11.137 0 002.04-.548l.92 5.086a18.49 18.49 0 01-2.63.833 15.332 15.332 0 01-3.552.35 11.686 11.686 0 01-4.428-.723 6.944 6.944 0 01-2.806-2.016v-.001a7.502 7.502 0 01-1.468-3.135 18.477 18.477 0 01-.417-4.077V35.247zm-18.28 6.972a39.285 39.285 0 014.142-1.162 23.884 23.884 0 015.326-.548q.526 0 1.272.066.744.066 1.491.175.744.11 1.49.263.326.063.644.157.318.093.627.216l-1.096 5.392q-.876-.219-2.06-.461a12.779 12.779 0 00-2.543-.24 11.876 11.876 0 00-1.469.11 8.632 8.632 0 00-1.293.24V64.05h-6.532zm-26.7 10.477a14.096 14.096 0 01.942-5.37 11.507 11.507 0 012.477-3.836 10.3 10.3 0 013.53-2.323 11.049 11.049 0 014.098-.789 10.19 10.19 0 017.76 3.003q2.85 3.003 2.85 8.833 0 .57-.044 1.25t-.087 1.206H93.343a4.338 4.338 0 001.886 3.2 7.576 7.576 0 004.471 1.184c.58 0 1.16-.027 1.738-.08q.9-.083 1.791-.25a13.29 13.29 0 002.828-.81l.877 5.305a9.024 9.024 0 01-1.403.525 18.312 18.312 0 01-1.95.46q-1.076.198-2.302.33a23.02 23.02 0 01-2.456.131 14.529 14.529 0 01-5.414-.921 10.534 10.534 0 01-3.814-2.52 10 10 0 01-2.236-3.793q-.185-.573-.323-1.159c-.026-.113-.042-.228-.066-.341-.059-.279-.12-.557-.162-.838-.014-.092-.019-.185-.031-.277a14.86 14.86 0 01-.103-.917c-.016-.22-.015-.443-.021-.664-.005-.18-.018-.359-.017-.539zM72.694 41.341a12.299 12.299 0 014.998-.965 16.134 16.134 0 013.376.329 16.472 16.472 0 012.981.943v.001l-1.359 5.216a16.492 16.492 0 00-2.017-.614 10.536 10.536 0 00-2.455-.263 5.175 5.175 0 00-4.318 1.798 7.4 7.4 0 00-1.425 4.734 7.662 7.662 0 001.337 4.824q1.337 1.71 4.67 1.71a15.946 15.946 0 002.541-.22 10.772 10.772 0 002.5-.701l.157.91.764 4.438a15.316 15.316 0 01-2.85.834 18.823 18.823 0 01-3.77.35 14.196 14.196 0 01-5.437-.943 10.23 10.23 0 01-3.748-2.564v-.001a9.993 9.993 0 01-2.148-3.837 16.263 16.263 0 01-.679-4.8 13.583 13.583 0 01.81-4.713 11.03 11.03 0 016.072-6.466zM287.736 389.1H16.948V84.527h270.788z" class="cls-1"/><path d="M208.305 48.576a4.07 4.07 0 00-.746-1.403 3.975 3.975 0 00-1.27-1.009 4.142 4.142 0 00-1.908-.394 4.387 4.387 0 00-1.885.372 3.897 3.897 0 00-1.316.987 4.407 4.407 0 00-.81 1.425 9.345 9.345 0 00-.417 1.644h8.637a6.792 6.792 0 00-.285-1.622zm-69.383 183.062c-.005-.033-.003-.068-.01-.101a3.405 3.405 0 00-.186-.635 3.449 3.449 0 00-.17-.331c-.047-.086-.084-.178-.137-.26-.052-.08-.12-.15-.178-.226a2.726 2.726 0 00-.74-.724c-.027-.019-.059-.03-.087-.049a3.436 3.436 0 00-.514-.284c-.086-.037-.18-.058-.27-.088a2.784 2.784 0 00-1.04-.195h-.043l-.037.003a3.538 3.538 0 00-.595.055l-.02.004-.034-.042-20.257 3.438q.572 1.575 1.267 3.09a40.72 40.72 0 005.203 8.446q1.032 1.292 2.167 2.497a40.717 40.717 0 007.658 6.357l7.848-18.965-.059-.076.008-.018a2.779 2.779 0 00.246-1.027c.009-.091.03-.18.031-.273l-.001-.013a3.435 3.435 0 00-.05-.583zm-6.782-14.894l.018-.005.012-.004a3.428 3.428 0 00.563-.217c.06-.029.118-.061.177-.094a3.406 3.406 0 00.357-.228c.053-.039.107-.075.158-.116a3.432 3.432 0 00.417-.399l.004-.005a3.446 3.446 0 00.393-.555c.044-.077.071-.162.109-.243a3.456 3.456 0 00.162-.367c.032-.096.046-.198.07-.297a3.44 3.44 0 00.078-.355c.014-.104.007-.211.011-.317a3.15 3.15 0 00-.31-1.567c-.025-.056-.056-.109-.085-.163a3.4 3.4 0 00-.23-.372c-.037-.052-.074-.104-.114-.154a3.432 3.432 0 00-.423-.451l-.014-.013.016-.084-15.41-13.785a40.5 40.5 0 00-5.73 25.56l19.754-5.701zm9.02-15.594l.033-.016.017.012a3.424 3.424 0 00.534.311c.058.028.117.052.176.077a3.409 3.409 0 00.413.14c.06.016.118.035.179.048a3.433 3.433 0 00.571.078h.012a3.446 3.446 0 00.675-.04c.103-.016.201-.052.302-.078a3.445 3.445 0 00.344-.09c.105-.039.203-.096.304-.145.1-.049.205-.089.299-.146a3.47 3.47 0 00.289-.216c.081-.062.17-.116.245-.185a3.356 3.356 0 00.753-1.009c.027-.055.049-.112.073-.169a3.396 3.396 0 00.148-.41c.017-.062.035-.124.05-.187a3.429 3.429 0 00.088-.611v-.001l.001-.019.084-.042 1.165-20.584a41.604 41.604 0 00-4.153.718 40.606 40.606 0 00-19.48 10.6zm14.75 37.753l-.009-.018a3.467 3.467 0 00-3.022-1.808c-.042 0-.083 0-.126.002a3.291 3.291 0 00-2.643 1.45 3.375 3.375 0 00-.263.365l-.008.018h-.019l-6.413 11.596-3.547 6.413a41.823 41.823 0 0022.152 1.13q2.009-.454 3.96-1.104l-9.985-18.044zm16.32-28.182l-.007.006-.008.007a3.436 3.436 0 00-.363.37c-.052.061-.095.13-.143.194-.054.074-.11.146-.158.223-.046.074-.082.153-.122.23-.04.077-.082.154-.116.235-.031.073-.055.15-.08.226-.024.067-.053.132-.072.202-.006.021-.006.042-.011.064a3.398 3.398 0 00-.067.395c-.013.094-.032.188-.037.281a3.384 3.384 0 00.015.439c.005.073.004.147.014.218a3.413 3.413 0 00.113.483c.015.05.022.1.04.149a3.452 3.452 0 00.223.498c.016.03.027.064.044.093a3.453 3.453 0 00.34.483c.013.016.023.035.037.05a3.427 3.427 0 00.454.437l.022.02a3.426 3.426 0 001.217.614l.02.005.017.085 19.853 5.718q.08-.835.125-1.67.046-.836.057-1.67a41.234 41.234 0 00-.573-7.447q-.31-1.838-.786-3.642-.476-1.803-1.113-3.56a41.233 41.233 0 00-1.613-3.829q-.453-.938-.953-1.855-.501-.918-1.05-1.812l-15.327 13.718zm-13.197-12.294l.001.02c0 .012.004.023.004.035a3.445 3.445 0 00.084.567c.016.07.036.139.056.207a3.408 3.408 0 00.139.383c.027.064.052.13.083.191a3.439 3.439 0 00.29.482l.005.007a3.467 3.467 0 00.996.914c.05.03.105.048.156.075a3.444 3.444 0 00.448.214c.026.01.055.012.082.02a3.323 3.323 0 001.822.105c.056-.012.11-.03.165-.045a3.41 3.41 0 00.426-.145c.057-.024.115-.047.17-.074a3.44 3.44 0 00.536-.313l.015-.011.06.025.987-.7 15.783-11.189q-1.194-1.168-2.473-2.228c-.112-.093-.228-.18-.341-.272-.315-.256-.63-.512-.951-.757-.195-.149-.396-.29-.593-.435-.247-.18-.49-.365-.74-.54-.25-.176-.507-.343-.76-.512-.204-.136-.403-.276-.609-.408-.297-.191-.6-.372-.902-.556-.168-.102-.334-.209-.503-.308-.331-.195-.669-.379-1.006-.564-.145-.08-.288-.165-.434-.243-.381-.204-.768-.396-1.155-.588-.106-.052-.21-.109-.316-.16-.24-.117-.486-.223-.728-.335a40.835 40.835 0 00-11.92-3.412l-.06-.009 1.166 20.55zm11.787 30.296l-.02-.004a3.405 3.405 0 00-.662-.053c-.026 0-.05.002-.076.003a3.41 3.41 0 00-1.288.28c-.1.044-.178.111-.271.163a3.518 3.518 0 00-.14.085 3.31 3.31 0 00-1.037 1.016 3.407 3.407 0 00-.151.253 3.417 3.417 0 00-.356.959c-.019.095-.03.19-.04.287-.007.06-.017.12-.02.179a3.452 3.452 0 00.006.493 3.453 3.453 0 00.084.526 3.408 3.408 0 00.18.548l.007.017-.026.035 7.932 19.159a40.53 40.53 0 009.351-8.27c.185-.224.373-.443.553-.67.194-.243.379-.494.567-.742.143-.19.29-.375.43-.566.19-.26.37-.527.554-.791.133-.192.27-.38.4-.574.178-.266.347-.538.519-.809.126-.198.256-.393.379-.593.17-.28.331-.565.495-.848.114-.197.233-.391.343-.59.156-.28.302-.565.45-.85.11-.208.226-.414.332-.625.149-.296.287-.598.43-.898.095-.202.196-.402.288-.606.148-.325.284-.656.423-.986.078-.184.161-.366.236-.552.176-.434.34-.875.501-1.317.03-.083.064-.164.094-.247l-20.434-3.454zm-23.614-5.904l5.672 2.728 5.655-2.72 1.406-6.107-3.915-4.893h-6.3l-3.924 4.885 1.406 6.107zm30.502 115.194a18.005 18.005 0 00-.34-1.983c-.015-.06-.024-.123-.039-.184a8.59 8.59 0 00-1.647-3.384 7.28 7.28 0 00-3.162-2.182 12.984 12.984 0 00-2.346-.62 13.306 13.306 0 00-2.42-.179c-.059.001-.118-.005-.177-.003l-.082.001a34.11 34.11 0 00-5.529.444 34.697 34.697 0 00-4.365.891v22.622h6.636v-18.08q.623-.089 1.425-.133h.005a13.727 13.727 0 011.51-.089 3.45 3.45 0 013.161 1.336 8.945 8.945 0 01.846 4.542v12.424h6.635v-13.248a17.99 17.99 0 00-.111-2.175zm24.83-4.749a8.66 8.66 0 00-.679-.802 10.306 10.306 0 00-7.882-3.073c-.09 0-.178.01-.268.013a11.39 11.39 0 00-3.918.788 10.521 10.521 0 00-3.562 2.36 11.922 11.922 0 00-2.471 3.771c-.021.05-.048.098-.068.149a14.447 14.447 0 00-.927 5.152c0 .094-.01.186-.008.28v.001c-.001.178.012.354.016.532.006.23.005.46.021.688.02.285.058.567.093.85.015.12.021.242.04.362.04.27.097.537.15.805.027.13.045.263.075.393.02.091.05.18.073.27.075.305.151.609.245.91.012.034.028.067.04.102a10.773 10.773 0 002.23 3.771 11.131 11.131 0 003.875 2.539 14.938 14.938 0 005.522.935q.625 0 1.249-.034.623-.033 1.245-.1c.192-.02.37-.048.556-.072.618-.079 1.212-.17 1.76-.284a15.565 15.565 0 002.004-.445 9.17 9.17 0 001.425-.535l-.891-5.388a14.304 14.304 0 01-2.895.846q-.882.157-1.774.235-.891.078-1.788.077a7.688 7.688 0 01-1.196-.032l-1.738-.389a7.698 7.698 0 01-1.609-.782 3.722 3.722 0 01-.527-.438 5.361 5.361 0 01-.45-.51 4.387 4.387 0 01-.937-2.302h15.051q.045-.535.09-1.203l.007-.136c.022-.4.035-.769.036-1.104l.001-.05v-.002a14.223 14.223 0 00-1.697-7.372 9.088 9.088 0 00-.52-.776zm-7.978 1.615a4.07 4.07 0 011.421.388 3.733 3.733 0 011.292 1.024 3.673 3.673 0 01.757 1.426 6.212 6.212 0 01.269 1.293c.013.118.036.235.042.354h-8.772a10.26 10.26 0 01.4-1.647 4.763 4.763 0 01.846-1.47 3.72 3.72 0 011.336-.98 4.239 4.239 0 011.915-.4 4.069 4.069 0 01.494.012zM73.025 348.092l-.074.01c-.399.056-.846.112-1.35.17q-.803.043-1.515.043a3.366 3.366 0 01-3.162-1.425 9.49 9.49 0 01-.429-1.11l-.425-2.33a9.492 9.492 0 01.008-1.19v-12.248h-6.635v13.048c0 .074.005.148.005.222a18.563 18.563 0 00.485 4.188 8.966 8.966 0 001.431 3.16c.074.104.138.213.216.313.065.078.141.144.21.22a7.64 7.64 0 002.907 2.006 13.503 13.503 0 003.717.779q.634.041 1.272.023a34.106 34.106 0 005.61-.446 34.67 34.67 0 004.364-.89v-22.623h-6.635zm-38.669 5.345h6.635v-10.242q.606.493 1.163 1.04.557.545 1.063 1.141a32.361 32.361 0 012.182 2.716c.198.266.383.536.573.804q.4.566.778 1.138c.19.288.383.574.564.864q.935 1.381 1.648 2.538l.001.001h7.615q-.757-1.47-1.87-3.25t-2.45-3.563v-.001q-1.337-1.781-2.762-3.43a29.19 29.19 0 00-2.761-2.894q2.672-2.627 4.9-5.076 2.27-2.494 4.629-5.21v-.001h-7.88q-.625.758-1.515 1.782-.846 1.024-1.826 2.182-.98 1.113-2.049 2.271-1.023 1.156-2.003 2.226v-19.594l-6.636 1.069v33.488h.001zm70.725-20.575a8.428 8.428 0 00-3.206-2.449 10.347 10.347 0 00-4.409-.89 11.899 11.899 0 00-2.583.267 12.43 12.43 0 00-2.315.757v-11.668l-6.636 1.07v32.73q.891.267 2.05.535 1.157.222 2.404.4 1.291.178 2.582.268.668.066 1.303.1t1.236.033a14.729 14.729 0 005.166-.846 10.71 10.71 0 003.83-2.494 10.473 10.473 0 002.36-3.874 15.103 15.103 0 00.846-5.077 17.333 17.333 0 00-.668-4.987 11.08 11.08 0 00-1.96-3.875zm-12.513 3.207a5.79 5.79 0 011.603-.668 8.085 8.085 0 012.048-.267q4.72 0 4.72 6.412a8.13 8.13 0 01-1.38 4.943 4.768 4.768 0 01-4.097 1.87q-.89 0-1.647-.044-.757-.089-1.247-.178zm61.476-5.656a6.181 6.181 0 00-1.29-.356 13.504 13.504 0 00-1.515-.267 13.168 13.168 0 00-1.514-.178 11.336 11.336 0 00-1.292-.09 23.643 23.643 0 00-5.433.58 37.298 37.298 0 00-4.186 1.157v22.177h6.636v-17.902a7.522 7.522 0 011.291-.222 10.478 10.478 0 011.514-.134 11.899 11.899 0 012.583.267q1.202.223 2.093.446l.05-.25 1.063-5.227zM9.28 438.523a34.255 34.255 0 0034.255 34.256h218.1a34.255 34.255 0 0034.255-34.255v-32.922H9.28zm167.087-.972a6.699 6.699 0 016.256-3.354 7.748 7.748 0 016.058 2.427 9.653 9.653 0 012.19 6.71 10.071 10.071 0 01-2.605 7.31 9.576 9.576 0 01-7.223 2.694 10.333 10.333 0 01-5.574-1.48 9.618 9.618 0 01-3.67-4.322 16.463 16.463 0 01-1.293-6.847q0-8.564 3.621-12.747t10.844-4.184a19.672 19.672 0 013.867.296v4.874a15.825 15.825 0 00-3.472-.394 11.92 11.92 0 00-5.121.947 6.363 6.363 0 00-2.97 2.802 12.861 12.861 0 00-1.164 5.268zm-19.753-1.302l.06-2.743.037-1.156.061-1.843q-1.52 1.52-2.111 1.992l-3.311 2.661-.004.003-.085-.105-2.177-2.718-.679-.846 9.295-7.4h5.011v28.85h-6.097zm-18.924 11.367a3.603 3.603 0 012.585-.849 3.504 3.504 0 012.536.868 3.302 3.302 0 01.898 2.486 4.014 4.014 0 01-.22 1.363 2.885 2.885 0 01-.688 1.095 3.436 3.436 0 01-2.526.898 3.535 3.535 0 01-2.565-.879 3.283 3.283 0 01-.908-2.477 3.502 3.502 0 01.663-2.23 2.523 2.523 0 01.225-.275zm-14.583-23.523h5.012v28.85h-6.097V436.25l.06-2.743.036-1.134.062-1.865q-1.52 1.52-2.112 1.992l-3.296 2.649-.02.015-.396-.495-1.855-2.315-.689-.86z" class="cls-1"/><path d="M180.925 448.464a3.612 3.612 0 003-1.312 5.872 5.872 0 001.046-3.74 5.161 5.161 0 00-.977-3.325 3.561 3.561 0 00-2.95-1.214 4.519 4.519 0 00-3.168 1.205 3.697 3.697 0 00-1.312 2.801 6.35 6.35 0 001.233 3.967 3.777 3.777 0 003.128 1.618z" class="cls-1"/></svg>