<?xml version="1.0" encoding="UTF-8"?>
<svg id="svg1" xmlns="http://www.w3.org/2000/svg" viewBox="0 0 334.5412048327 279.6933448577">
  <g id="g1">
    <g>
      <path d="M249.965929577,126.8083150238v37.6969604492l-22.8559570312-13.1950073242c-4.8520507812-2.7998046875-11.16015625-2.802734375-16.0122070312-.0009765625l-30.4067382812,17.5537109375c-4.935546875,2.849609375-8.001953125,8.1611328125-8.001953125,13.8623046875v35.1064453125c0,5.7060546875,3.068359375,11.017578125,8.0053710938,13.8623046875l30.4033203125,17.5517578125c2.46875,1.4248046875,5.236328125,2.1376953125,8.0043945312,2.1376953125,2.767578125,0,5.5361328125-.712890625,8.0048828125-2.1376953125l30.4072265625-17.552734375c4.9360351562-2.849609375,8.0024414062-8.1611328125,8.0024414062-13.8623046875v-100.0014648438l-15.55078125,8.9790039062ZM249.9644647333,182.7243306488v35.1064453125c0,.171875-.078125.3076171875-.2255859375.392578125l-30.4077148438,17.5537109375c-.1547851562.087890625-.3037109375.0888671875-.4584960938-.0009765625l-30.41015625-17.5546875c-.1416015625-.08203125-.2202148438-.2197265625-.2202148438-.3896484375v-35.1064453125c0-.1728515625.0786132812-.3095703125.2255859375-.39453125l30.4116210938-17.5556640625c.0751953125-.0439453125.1479492188-.064453125.2231445312-.064453125.0747070312,0,.1538085938.0234375.23046875.0673828125l30.4096679688,17.5537109375c.142578125.0830078125.2216796875.2216796875.2216796875.392578125Z"/>
      <path d="M257.633898327,48.1608540863l-30.3330078125-17.6811523438c-4.9243164062-2.8701171875-11.05859375-2.89453125-16.0063476562-.0639648438l-30.4741210938,17.4287109375c-.0028076172.0015869141-.0054321289.0034790039-.0082397461.005065918l-56.3252563477,32.213684082,15.5151367188,9.0415039062,32.7231445312-18.7151489258-.1064453125,26.401184082c0,2.8129882812.7314453125,5.580078125,2.115234375,8.0024414062l.0004882812.0009765625c1.3955078125,2.4399414062,3.412109375,4.4750976562,5.83203125,5.8857421875l30.3334960938,17.6801757812c2.4814453125,1.4462890625,5.26953125,2.1704101562,8.05859375,2.1704101562,2.7456054688,0,5.4921875-.7016601562,7.947265625-2.1059570312l30.474609375-17.4291992188c4.9521484375-2.8325195312,8.0400390625-8.1333007812,8.0590820312-13.8325195312l.1416015625-35.0966796875c.0434570312-5.6948242188-3.001953125-11.0229492188-7.947265625-13.9052734375ZM188.3121209833,61.7243306488c0-.1586914062.08203125-.29296875.23046875-.3779296875l30.4741210938-17.4287109375c.1552734375-.0874023438.318359375-.0869140625.4536132812-.0102539062l30.3325195312,17.681640625c.154296875.0893554688.228515625.2197265625.2280273438.3979492188l-.1416015625,35.1206054688c0,.158203125-.08203125.2924804688-.2299804688.376953125l-30.4741210938,17.4291992188c-.1533203125.0883789062-.318359375.0888671875-.455078125.0102539062l-30.333984375-17.6811523438c-.0756835938-.0439453125-.1337890625-.099609375-.171875-.1655273438-.0366210938-.0654296875-.0546875-.1435546875-.0546875-.2314453125l.142578125-35.1215820312Z"/>
      <path d="M130.8517938348,184.1007954926l22.8885498047-13.1391601562c2.3862304688-1.37109375,4.38671875-3.345703125,5.7934570312-5.716796875l.078125-.1328125c1.4116210938-2.4306640625,2.1611328125-5.1953125,2.1684570312-7.99609375l.0908203125-35.1162109375c0-5.7041015625-3.0532226562-11.0209960938-7.9682617188-13.8754882812l-30.3583984375-17.6298828125c-4.9326171875-2.8647460938-11.0668945312-2.87890625-16.0083007812-.0400390625l-30.4462890625,17.4770507812c-4.9448242188,2.8388671875-8.025390625,8.1440429688-8.0395507812,13.8447265625l-.0908203125,35.115234375c0,5.705078125,3.0532226562,11.0224609375,7.9682617188,13.8759765625l22.6705322266,13.1651611328c.0123901367.0073242188.0235595703.0160522461.0360107422.0233154297l63.7709960938,37.0322265625.0444335938-17.95703125-32.5980224609-18.9301757812ZM115.1216912958,174.9660909027l-7.677734375-4.4585571289c-.0417480469-.024230957-.0855712891-.0426635742-.1276245117-.0660400391l-22.578918457-13.1116943359c-.1484375-.0859375-.2265625-.2216796875-.2260742188-.3916015625l.0908203125-35.1166992188c0-.173828125.0751953125-.3012695312.2299804688-.3901367188l30.4536132812-17.4819335938c.0732421875-.0419921875.1518554688-.0625.2290039062-.0625.0756835938,0,.150390625.01953125.2177734375.0581054688l30.3579101562,17.6293945312c.1499023438.0869140625.2290039062.2241210938.2290039062.3940429688l-.0908203125,35.115234375c0,.08203125-.0185546875.1572265625-.0551757812.22265625-.0385742188.06640625-.0961914062.12109375-.1752929688.166015625l-30.451171875,17.482421875c-.1372680664.0773925781-.2960205078.0750732422-.4252929688.0112915039Z"/>
    </g>
  </g>
</svg>