<svg xmlns="http://www.w3.org/2000/svg" role="img" viewBox="81.10 68.60 3192.80 760.30"><path d="M1000.07 374.928c-22.592 0-42.283 8.715-54.735 25.855V376.38h-26.642v210.328h27.8v-79.6c12.742 16.56 31.854 24.984 53.577 24.984 44.88 0 77.6-31.375 77.6-78.728 0-47.062-32.72-78.436-77.6-78.436zm-2.321 132.762c-29.248 0-51.545-21.498-51.545-54.326 0-32.536 22.297-54.034 51.545-54.034 29.541 0 51.831 21.498 51.831 54.034 0 32.828-22.29 54.326-51.831 54.326zm179.511 24.402c46.05 0 79.64-32.827 79.64-78.728 0-45.9-33.59-78.436-79.64-78.436-46.04 0-79.92 32.536-79.92 78.436 0 45.901 33.88 78.728 79.92 78.728zm0-24.402c-29.53 0-51.83-21.498-51.83-54.326 0-32.827 22.3-54.034 51.83-54.034 29.54 0 51.55 21.207 51.55 54.034 0 32.828-22.01 54.326-51.55 54.326zm228.45-108.069c-12.75-16.559-31.86-24.693-53.58-24.693-44.88 0-77.6 31.374-77.6 78.437 0 47.062 32.72 78.727 77.6 78.727 22.59 0 42.28-8.714 54.73-26.146v24.404h26.65V314.792h-27.8v84.829zm-51.26 108.069c-29.54 0-51.83-21.498-51.83-54.325 0-32.828 22.29-54.035 51.83-54.035 29.25 0 51.54 21.207 51.54 54.035 0 32.827-22.29 54.325-51.54 54.325zm303.37-132.762c-26.06 0-47.49 11.039-59.07 28.469-10.14-19.173-29.83-28.469-53.29-28.469-23.16 0-41.99 8.715-52.99 24.402v-22.95h-26.64v153.97h27.8v-79.31c0-33.408 18.24-51.129 46.04-51.129 25.19 0 39.67 14.816 39.67 45.029v85.41h27.8v-79.31c0-33.408 18.25-51.129 46.05-51.129 25.19 0 39.67 14.816 39.67 45.029v85.41h27.8v-88.606c0-45.319-25.48-66.816-62.84-66.816zm153.68 0c-24.62 0-47.49 6.972-63.42 19.754l11.58 20.917c11.88-10.168 30.41-16.559 48.65-16.559 27.51 0 41.12 13.654 41.12 37.185v5.519h-44.01c-45.76 0-61.68 20.336-61.68 45.029 0 26.727 22 45.319 56.75 45.319 24.04 0 41.12-8.134 50.39-22.078v20.336h26.35v-92.963c0-42.124-23.74-62.459-65.73-62.459zm-6.37 135.667c-21.14 0-33.88-9.587-33.88-24.984 0-13.073 7.81-23.822 35.33-23.822h42.85v21.498c-6.95 17.721-23.45 27.308-44.3 27.308zm187.26-135.667c-24.33 0-44.02 9.005-55.31 24.693V376.38h-26.65v153.97h27.8v-79.31c0-33.408 19.12-51.129 48.65-51.129 26.36 0 41.41 14.816 41.41 45.029v85.41h27.8v-88.606c0-45.319-26.35-66.816-63.7-66.816zm231.48 156.727c-14.59 0-27.72-3.319-39.39-9.954-11.48-6.634-20.52-15.805-27.14-27.514-6.61-11.903-9.92-25.563-9.92-40.979 0-15.611 3.31-29.271 9.92-40.979 6.62-11.709 15.66-20.783 27.14-27.222 11.67-6.635 24.8-9.953 39.39-9.953 13.42 0 25.38 3.025 35.89 9.075 10.7 6.049 19.16 14.928 25.38 26.636 6.42 11.513 9.63 25.661 9.63 42.443 0 16.587-3.11 30.734-9.34 42.443-6.22 11.708-14.68 20.685-25.38 26.929-10.5 6.048-22.56 9.075-36.18 9.075zm1.46-18.442c10.89 0 20.62-2.439 29.17-7.317 8.76-5.074 15.57-12.099 20.43-21.075 5.06-9.172 7.59-19.709 7.59-31.613 0-12.099-2.53-22.636-7.59-31.613-4.86-8.976-11.67-15.904-20.43-20.782-8.55-5.074-18.28-7.611-29.17-7.611-10.7 0-20.33 2.537-28.89 7.611-8.56 4.878-15.36 11.806-20.42 20.782-5.06 8.977-7.59 19.514-7.59 31.613 0 11.904 2.53 22.441 7.59 31.613 5.06 8.976 11.86 16.001 20.42 21.075 8.56 4.878 18.19 7.317 28.89 7.317zm57.77 16.978v-46.249l2.04-31.027-2.92-31.027V313h20.72v217.191h-19.84zm121.33 1.464c-15.95 0-29.95-3.319-42.01-9.954-12.06-6.829-21.5-16.098-28.3-27.806-6.81-11.904-10.22-25.466-10.22-40.687 0-15.221 3.21-28.686 9.63-40.394 6.62-11.708 15.56-20.88 26.84-27.515 11.48-6.829 24.32-10.245 38.52-10.245 14.39 0 27.14 3.318 38.22 9.953 11.28 6.439 20.13 15.611 26.55 27.514 6.42 11.709 9.63 25.271 9.63 40.687 0 .976-.1 2.049-.29 3.22v3.22h-133.34v-15.514h122.25l-8.17 6.147c0-11.123-2.43-20.978-7.29-29.564-4.67-8.781-11.09-15.611-19.26-20.489-8.17-4.879-17.6-7.318-28.3-7.318-10.5 0-19.94 2.439-28.3 7.318-8.37 4.878-14.88 11.708-19.55 20.489-4.67 8.782-7 18.831-7 30.149v3.22c0 11.708 2.52 22.051 7.58 31.027 5.25 8.782 12.45 15.709 21.59 20.783 9.34 4.878 19.94 7.317 31.81 7.317 9.33 0 17.99-1.658 25.96-4.976 8.18-3.317 15.18-8.391 21.01-15.22l11.67 13.464c-6.81 8.196-15.36 14.441-25.67 18.733-10.12 4.294-21.3 6.441-33.56 6.441zm141.54 0c-12.65 0-24.61-1.757-35.89-5.27-11.28-3.707-20.14-8.293-26.55-13.757l9.33-16.392c6.23 4.684 14.2 8.782 23.93 12.294 9.72 3.317 19.94 4.976 30.63 4.976 14.59 0 25.1-2.244 31.52-6.732 6.41-4.684 9.62-10.831 9.62-18.441 0-5.659-1.84-10.05-5.54-13.172-3.5-3.317-8.17-5.756-14-7.318-5.84-1.756-12.36-3.219-19.55-4.39-7.23-1.178-14.43-2.544-21.6-4.098-7-1.561-13.42-3.805-19.25-6.733-5.84-3.122-10.6-7.317-14.3-12.586-3.5-5.269-5.25-12.294-5.25-21.075 0-8.391 2.33-15.904 7-22.539 4.67-6.634 11.48-11.806 20.43-15.513 9.14-3.903 20.23-5.855 33.26-5.855 9.92 0 19.84 1.367 29.76 4.098 9.92 2.537 18.09 5.952 24.51 10.245l-9.05 16.685c-6.8-4.684-14.1-8.001-21.88-9.952-7.78-2.147-15.56-3.22-23.34-3.22-13.81 0-24.02 2.439-30.64 7.318-6.42 4.683-9.63 10.732-9.63 18.148 0 5.854 1.76 10.439 5.25 13.757 3.7 3.317 8.47 5.952 14.3 7.903 6.03 1.756 12.55 3.22 19.55 4.391 7.16 1.163 14.27 2.628 21.3 4.39 7.2 1.561 13.71 3.805 19.55 6.733 6.03 2.732 10.8 6.732 14.3 12.001 3.69 5.073 5.54 11.806 5.54 20.197 0 8.976-2.53 16.782-7.59 23.416-4.86 6.44-12.06 11.514-21.59 15.221-9.33 3.513-20.71 5.27-34.13 5.27zm98.52-41.273l.59-26.636 95.41-87.228h25.38l-67.4 64.689-11.67 9.952-42.31 39.223zm-16.34 39.809V313h20.72v217.191h-20.72zm118.76 0l-63.9-79.91 13.42-16.099 75.86 96.009h-25.38zm96.41 1.464c-14.4 0-25.48-3.904-33.27-11.708-7.77-7.807-11.67-18.832-11.67-33.077V342.564h20.72v143.135c0 8.976 2.24 15.904 6.71 20.782 4.67 4.879 11.28 7.318 19.84 7.318 9.14 0 16.73-2.635 22.76-7.903l7.29 14.928c-4.08 3.707-9.04 6.439-14.88 8.195-5.64 1.756-11.47 2.636-17.5 2.636zm-72.36-137.867v-17.27h94.82v17.27h-94.82zm188.84 137.867c-14.77 0-28.1-3.319-39.96-9.954-11.67-6.829-20.92-16.098-27.72-27.807-6.81-11.903-10.21-25.465-10.21-40.686 0-15.416 3.4-28.979 10.21-40.687 6.8-11.708 16.05-20.88 27.72-27.515 11.67-6.634 24.99-9.952 39.96-9.952 15.19 0 28.6 3.318 40.28 9.952 11.86 6.635 21.09 15.807 27.72 27.515 6.8 11.708 10.21 25.271 10.21 40.687 0 15.221-3.41 28.783-10.21 40.686-6.63 11.709-15.86 20.978-27.72 27.807-11.87 6.635-25.3 9.954-40.28 9.954zm0-18.442c11.09 0 20.91-2.439 29.47-7.317 8.56-5.074 15.27-12.099 20.14-21.076 5.06-9.171 7.58-19.709 7.58-31.612 0-12.099-2.52-22.637-7.58-31.613-4.87-8.976-11.58-15.904-20.14-20.782-8.56-5.074-18.28-7.611-29.16-7.611-10.9 0-20.63 2.537-29.19 7.611-8.55 4.878-15.36 11.806-20.42 20.782-5.06 8.976-7.59 19.514-7.59 31.613 0 11.903 2.53 22.441 7.59 31.612 5.06 8.977 11.87 16.002 20.42 21.076 8.56 4.878 18.19 7.317 28.88 7.317zm178.3 18.442c-13.23 0-25.19-3.027-35.89-9.075-10.7-6.245-19.26-15.123-25.66-26.637-6.24-11.708-9.36-25.953-9.36-42.735s3.12-30.93 9.36-42.443c6.21-11.709 14.67-20.587 25.37-26.637 10.7-6.049 22.77-9.074 36.18-9.074 14.59 0 27.62 3.318 39.09 9.952 11.68 6.44 20.83 15.611 27.44 27.515 6.62 11.708 9.92 25.271 9.92 40.687 0 15.611-3.3 29.271-9.92 40.979-6.61 11.709-15.76 20.88-27.44 27.514-11.47 6.635-24.5 9.954-39.09 9.954zm-79.06 55.32V376.518h19.83v46.248l-2.04 30.734 2.92 31.028v102.447h-20.71zm77.61-73.762c10.89 0 20.61-2.439 29.17-7.317 8.56-5.074 15.37-12.099 20.42-21.076 5.06-9.171 7.58-19.709 7.58-31.612 0-11.904-2.52-22.344-7.58-31.32-5.05-8.977-11.86-16.002-20.42-21.075-8.56-5.074-18.28-7.611-29.17-7.611-10.9 0-20.73 2.537-29.47 7.611-8.56 5.073-15.37 12.098-20.42 21.075-4.87 8.976-7.3 19.416-7.3 31.32 0 11.903 2.43 22.441 7.3 31.612 5.05 8.977 11.86 16.002 20.42 21.076 8.74 4.878 18.57 7.317 29.47 7.317zM462.236 131.002c2.404.036 4.769.612 6.919 1.686l303 151.5c2.658 1.329 4.893 3.372 6.455 5.9 1.562 2.527 2.39 5.441 2.39 8.412v303c0 6.06-3.424 11.6-8.845 14.311l-303 151.5c-2.221 1.11-4.671 1.689-7.155 1.689s-4.934-.579-7.155-1.689l-303-151.5c-2.658-1.329-4.893-3.372-6.455-5.899-1.562-2.527-2.39-5.441-2.39-8.412v-303c0-6.06 3.424-11.6 8.845-14.312l303-151.5.425-.205c2.181-1.011 4.563-1.517 6.966-1.481zM271 343c-8.401 0-12.601 0-15.81 1.635-2.822 1.438-5.117 3.733-6.555 6.555C247 354.399 247 358.6 247 367v166c0 8.4 0 12.601 1.635 15.81 1.438 2.822 3.733 5.117 6.555 6.555C258.399 557 262.599 557 271 557h382c8.401 0 12.601 0 15.81-1.635 2.822-1.438 5.117-3.733 6.555-6.555C677 545.601 677 541.4 677 533V367c0-8.4 0-12.601-1.635-15.81-1.438-2.822-3.733-5.117-6.555-6.555C665.601 343 661.401 343 653 343H271zm40 36c2.8 0 4.2 0 5.27.545.94.48 1.706 1.245 2.185 2.185.545 1.07.545 2.47.545 5.27v90c0 2.8 0 4.201-.545 5.271-.48.94-1.245 1.705-2.185 2.184-1.07.545-2.47.545-5.27.545h-20c-2.8 0-4.2 0-5.27-.545-.94-.479-1.705-1.244-2.185-2.184C283 481.201 283 479.8 283 477v-90c0-2.8 0-4.2.545-5.27.479-.94 1.245-1.705 2.185-2.185C286.8 379 288.2 379 291 379h20zm72 0c2.8 0 4.2 0 5.27.545.94.48 1.706 1.245 2.185 2.185.545 1.07.545 2.47.545 5.27v90c0 2.8 0 4.201-.545 5.271-.48.94-1.245 1.705-2.185 2.184-1.07.545-2.47.545-5.27.545h-20c-2.8 0-4.2 0-5.27-.545-.94-.479-1.705-1.244-2.185-2.184C355 481.201 355 479.8 355 477v-90c0-2.8 0-4.2.545-5.27.479-.94 1.245-1.705 2.185-2.185C358.8 379 360.2 379 363 379h20zm72 0c2.8 0 4.2 0 5.27.545.94.48 1.706 1.245 2.185 2.185.545 1.07.545 2.47.545 5.27v90c0 2.8 0 4.201-.545 5.271-.48.94-1.245 1.705-2.185 2.184-1.07.545-2.47.545-5.27.545h-20c-2.8 0-4.2 0-5.27-.545-.94-.479-1.705-1.244-2.185-2.184C427 481.201 427 479.8 427 477v-90c0-2.8 0-4.2.545-5.27.479-.94 1.245-1.705 2.185-2.185C430.8 379 432.2 379 435 379h20zm72 0c2.8 0 4.201 0 5.271.545.94.48 1.705 1.245 2.184 2.185.545 1.07.545 2.47.545 5.27v90c0 2.8 0 4.201-.545 5.271-.479.94-1.244 1.705-2.184 2.184-1.07.545-2.471.545-5.271.545h-20c-2.8 0-4.2 0-5.27-.545-.94-.479-1.705-1.244-2.185-2.184C499 481.201 499 479.8 499 477v-90c0-2.8 0-4.2.545-5.27.479-.94 1.245-1.705 2.185-2.185C502.8 379 504.2 379 507 379h20z"/></svg>