<?xml version="1.0" encoding="UTF-8"?><svg id="Layer_1" xmlns="http://www.w3.org/2000/svg" viewBox="0 0 456.6741 511.6225"><defs><style>.cls-1{fill:none;}.cls-2{fill:#fff;}.cls-3{fill:#f5f5f4;}</style></defs><path class="cls-1" d="M212.32839,380.13575l-.07434.00366-.07489-.00104c-2.87177-.04486-5.57159,1.15503-7.47449,3.27362-1.71515,1.9187-2.93085,4.25305-3.5379,6.74664h20.2674c-.49207-2.46777-1.44983-4.83423-2.82483-6.95282-1.39606-2.02637-3.73828-3.203-6.28094-3.07007Z"/><path class="cls-1" d="M165.51796,406.35279c2.46826-2.46722,3.742-6.6897,3.78625-12.54816.06177-3.53522-.85596-6.98663-2.65393-10.00397-1.41553-2.40656-4.01044-3.7995-6.78827-3.65125l-.09546.00525-.09546-.00208c-3.8786-.10132-7.70074.44299-11.38049,1.61646l-.02637,28.29462-.00006.00006h4.40973c6.06104,0,10.38263-1.24786,12.84406-3.71094Z"/><path class="cls-1" d="M277.11116,480.26447c4.37695,0,8.63184-1.82422,11.50977-4.94434v-11.83398h-13.05078v5.7959h5.43164v2.71484c-1.17578.72949-2.51367,1.13477-3.89062,1.13477-3.93164,0-7.25488-3.32324-7.25488-7.29492,0-3.93164,3.32324-7.25391,7.25488-7.25391,2.22852,0,4.33594,1.05273,5.71387,2.83594l5.7959-5.06543c-2.87793-3.08008-7.13281-4.90332-11.50977-4.90332-8.34961,0-15.36035,6.56445-15.36035,14.38672s7.01074,14.42773,15.36035,14.42773Z"/><rect class="cls-1" x="293.64827" y="451.93635" width="7.86328" height="27.8418"/><polygon class="cls-1" points="257.85823 472.76642 243.30843 472.76642 243.30843 469.07892 256.56136 469.07892 256.56136 462.06721 243.30843 462.06721 243.30843 458.94709 257.85823 458.94709 257.85823 451.93635 235.4471 451.93635 235.4471 479.77814 257.85823 479.77814 257.85823 472.76642"/><polygon class="cls-1" points="191.14437 472.76642 178.17562 472.76642 178.17562 451.93635 170.31429 451.93635 170.31429 479.77814 191.14437 479.77814 191.14437 472.76642"/><path class="cls-1" d="M319.22347,473.73908c-3.28223,0-6.3623-1.1748-9.2002-3.4043l-4.37695,5.22852c3.52637,3.12109,8.26758,4.70117,13.29297,4.70117,6.9707,0,11.46973-3.44531,11.46973-9.32129,0-5.30957-4.05273-7.05176-10.53711-8.42969-3.97168-.85059-4.94434-1.29688-4.94434-2.71582,0-1.05273.93164-1.82324,2.83691-1.82324,2.5127,0,5.34961.93262,7.94336,2.7959l3.93066-5.55176c-3.08008-2.47168-6.84863-3.76855-11.67188-3.76855-6.60547,0-10.98242,3.60645-10.98242,9.1582,0,5.7959,4.66016,7.37695,10.69922,8.75391,3.84961.89258,4.82227,1.09473,4.82227,2.43164,0,1.2168-1.13477,1.94531-3.28223,1.94531Z"/><polygon class="cls-1" points="399.83968 479.77814 407.70101 479.77814 407.70101 470.61896 418.36019 451.93635 409.72835 451.93635 403.77034 463.24299 398.13656 451.93635 389.14046 451.93635 399.83968 470.61896 399.83968 479.77814"/><polygon class="cls-1" points="341.63656 479.77814 349.49984 479.77814 349.49984 458.94709 357.7264 458.94709 357.7264 451.93635 333.40999 451.93635 333.40999 458.94709 341.63656 458.94709 341.63656 479.77814"/><path class="cls-1" d="M370.0096,471.38947h1.9043l5.87695,8.38867h8.95605l-6.52441-9.28125c3.60645-1.49902,5.91602-4.70117,5.91602-8.83398,0-5.71484-4.41699-9.72656-10.6582-9.72656h-13.33398v27.8418h7.86328v-8.38867ZM370.0096,459.06916h4.82227c1.86426,0,3.20117,1.09375,3.20117,2.59375,0,1.49902-1.33691,2.59375-3.20117,2.59375h-4.82227v-5.1875Z"/><path class="cls-1" d="M214.36898,471.38947h1.90527l5.87598,8.38867h8.95703l-6.52539-9.28125c3.60742-1.49902,5.91797-4.70117,5.91797-8.83398,0-5.71484-4.41797-9.72656-10.65918-9.72656h-13.33301v27.8418h7.86133v-8.38867ZM214.36898,459.06916h4.82324c1.86426,0,3.20215,1.09375,3.20215,2.59375,0,1.49902-1.33789,2.59375-3.20215,2.59375h-4.82324v-5.1875Z"/><path class="cls-1" d="M91.39876,480.26447c8.22705,0,15.15723-6.60547,15.15723-14.42773s-6.93018-14.38672-15.15723-14.38672-15.15723,6.56445-15.15723,14.38672,6.93018,14.42773,15.15723,14.42773ZM91.39876,458.58283c3.80957,0,7.05176,3.32227,7.05176,7.25391,0,3.97168-3.24219,7.29492-7.05176,7.29492s-7.05176-3.32324-7.05176-7.29492c0-3.93164,3.24219-7.25391,7.05176-7.25391Z"/><path class="cls-1" d="M138.12972,465.83674c0-8.14648-6.88965-13.90039-16.61621-13.90039h-10.375v27.8418h10.375c9.72656,0,16.61621-5.79492,16.61621-13.94141ZM119.00081,459.06916h3.80957c4.21484,0,7.21387,2.7959,7.21387,6.76758s-2.99902,6.80859-7.21387,6.80859h-3.80957v-13.57617Z"/><polygon class="cls-1" points="48.88216 464.86408 56.33919 478.15705 63.79622 464.86408 63.79622 479.77814 71.65853 479.77814 71.65853 451.93635 63.79622 451.93635 56.33919 465.22931 48.88216 451.93635 41.01986 451.93635 41.01986 479.77814 48.88216 479.77814 48.88216 464.86408"/><polygon class="cls-1" points="165.08382 472.76642 150.53402 472.76642 150.53402 469.07892 163.78695 469.07892 163.78695 462.06721 150.53402 462.06721 150.53402 458.94709 165.08382 458.94709 165.08382 451.93635 142.67171 451.93635 142.67171 479.77814 165.08382 479.77814 165.08382 472.76642"/><path class="cls-1" d="M320.14614,384.58393c-5.4798,6.41754-5.4798,16.03802,0,22.45557,6.06366,5.94501,15.86194,5.94501,21.92664-.00421,5.53204-6.41437,5.53204-16.03333,0-22.44714-6.06366-5.94818-15.86194-5.94922-21.92664-.00421Z"/><path class="cls-1" d="M83.62886,221.87794l71.96613,89.47906c3.7735,4.69019,9.495,7.42114,15.5448,7.41992l115.4093-.02661c6.04773.00439,11.76868-2.7215,15.5448-7.40674l71.93964-89.49243.00006.00006c2.35999-2.93329,3.79755-6.43329,4.2146-10.07489.25024-2.18414.13342-4.41919-.37164-6.61346l-25.69086-111.5929c-1.34686-5.85028-5.30634-10.77393-10.75775-13.37732l-103.98663-49.65295c-3.00006-1.43329-6.315-2.09631-9.64075-1.92816l.00006.00012c-2.64386.13318-5.23438.7887-7.61951,1.9281l-103.97333,49.67957c-5.45135,2.60345-9.41077,7.5271-10.75775,13.37732l-25.65082,111.5929c-.14868.64508-.26355,1.29419-.34558,1.94489-.57904,4.58899.48541,9.25861,3.04492,13.17444.35071.54102.72797,1.06464,1.13031,1.56909ZM114.43221,121.40198c2.63055-9.18805,13.63239-1.8764,19.07812.44214v-14.87744c0-.64673.8913-2.76172,1.30511-3.39301,3.14844-4.80286,8.58392-2.93408,13.22882-2.0578,8.99921,1.69769,18.3009,3.96973,27.04803,6.7785,20.13654,6.46582,39.01459,17.073,52.85083,33.27625,17.9505-21.97864,44.76178-32.42926,71.82202-38.42157,3.77496-.836,11.14557-2.84399,14.6571-2.88068,2.99231-.03131,7.32672,2.89606,7.32672,6.0719v15.50385c5.7121-2.05908,17.02081-9.98938,19.38422-.12189l.04584,102.08258c-.21558,3.33594-2.45728,6.17126-5.57782,7.26373l-93.16486,23.97534c-9.74091,7.99274-19.27618,8.29852-28.98187-.00525l-93.34406-24.10919c-2.63251-.79218-4.54303-2.633-5.40887-5.24023-.67255-34.69263-.13782-69.53827-.26935-104.28723Z"/><polygon class="cls-2" points="66.60555 417.33252 70.67293 417.33252 43.98323 382.11664 67.77694 355.16279 64.5956 355.16279 30.48787 394.1496 30.48787 355.16279 26.68941 355.16279 26.68941 417.34833 30.48787 417.34833 30.48787 397.66108 41.74178 384.84711 66.60555 417.33252"/><path class="cls-2" d="M89.87703,405.29804l-.00104-31.0224h-3.33533l-.0011,30.89685c-.12024,3.90283,1.75366,7.51776,5.01306,9.66962,7.44446,5.12323,17.39349,5.12115,24.79889.02527,3.27789-2.14758,5.2135-5.86371,5.09644-9.7254l-.0011-30.86627h-3.33478v31.09198c.09857,3.38068-1.69196,6.60107-4.6745,8.33521-5.81995,3.35962-13.04022,3.35962-18.85077.00421-3.0025-1.71619-4.81049-4.9408-4.70978-8.40906Z"/><path class="cls-2" d="M143.47634,350.34699h-3.33533v67.00134h12.5213c8.65216,0,14.99426-1.94934,18.85706-5.79523,3.87909-3.8606,5.84583-9.72546,5.84583-17.43201.00684-2.61121-.33282-5.20764-1.00946-7.72284-.65503-2.4472-1.67773-4.76782-3.04053-6.9007-1.30798-2.01361-3.14655-3.65863-5.30786-4.74298-2.51892-1.27533-5.31635-1.90662-8.1485-1.85547-4.50623.09497-8.93964.91772-13.17792,2.44617l-3.20459,1.15552v-26.15381ZM143.50795,378.39948l1.55798-.5791c4.70087-1.74573,9.62793-2.56689,14.63678-2.45459,4.53308-.19727,8.76343,2.08276,11.06616,5.99725,2.24677,3.77148,3.39758,8.09839,3.32056,12.50177-.05377,7.1369-1.79901,12.48486-5.18707,15.87189-3.39124,3.39233-8.85156,5.11377-16.22845,5.11377h-9.19971l.03375-36.45099Z"/><path class="cls-2" d="M212.21126,372.8548c-.24579-.00946-.49103-.01422-.73523-.01422l.00006-.00006c-5.26147,0-10.16534,2.19141-13.62988,6.07849-3.65656,4.10321-5.51044,9.75653-5.51044,16.80328v.03479c-.0448,3.04639.39185,6.06635,1.29742,8.97449.86493,2.62964,2.22565,5.0705,4.03259,7.21606,1.85596,2.17712,4.2583,3.88806,6.93756,4.93549,3.38916,1.33331,6.9455,1.9599,10.59094,1.88605,4.2641-.02423,8.42065-.72363,12.40631-2.08008v-2.35223c-4.33057,1.40393-8.92432,2.06958-13.45636,1.93243-.01898.00104-.03796.00104-.05695.00104-5.9118,0-10.48706-1.85016-13.52496-5.4967-2.86438-3.36591-4.55951-7.49768-4.88544-11.93005l-.18884-2.56744h34.26965c-.80798-23.42133-13.33875-23.42133-17.54645-23.42133ZM226.71938,394.94495h-28.37164v-2.39551l-2.35645-.16931c.32172-4.48828,2.15027-8.80725,5.14856-12.16162,2.81274-3.13177,6.84265-4.88538,11.02979-4.86639,4.1676-.17938,8.05304,1.75995,10.41797,5.19391,2.32275,3.578,3.6803,7.6554,3.96088,11.8457l.1709,2.55322Z"/><path class="cls-2" d="M212.21151,377.74537c-3.5376-.04724-6.92328,1.43573-9.28735,4.06787-2.66168,2.97778-4.26062,6.75427-4.54645,10.73798h-.02991v.00006h25.81311c-.25439-3.79358-1.47449-7.45911-3.54443-10.64832-1.89233-2.74823-5.07227-4.32123-8.40497-4.15759ZM201.16677,390.15864c.60706-2.49359,1.82275-4.82794,3.5379-6.74664,1.90289-2.11859,4.60272-3.31848,7.47449-3.27362l.07489.00104.07434-.00366c2.54266-.13293,4.88489,1.0437,6.28094,3.07007,1.375,2.11859,2.33276,4.48505,2.82483,6.95282h-20.2674Z"/><path class="cls-2" d="M167.21053,408.04511c2.94128-2.94128,4.43683-7.68219,4.48663-14.22266.06885-3.9541-.96704-7.849-2.99109-11.24652-1.85602-3.15601-5.31726-5.01349-8.97327-4.81561-4.71594-.12158-9.41156.66016-13.83374,2.3031l-.02991,32.39349-.00006.00006h6.80475c6.74988,0,11.59546-1.47064,14.53668-4.41187ZM148.26424,410.06367l.02637-28.29462c3.67975-1.17346,7.50189-1.71777,11.38049-1.61646l.09546.00208.09546-.00525c2.77783-.14825,5.37274,1.24469,6.78827,3.65125,1.79797,3.01733,2.7157,6.46875,2.65393,10.00397-.04425,5.85846-1.31799,10.08093-3.78625,12.54816-2.46143,2.46307-6.78302,3.71094-12.84406,3.71094h-4.40973l.00006-.00006Z"/><path class="cls-2" d="M81.7549,369.48987v35.57288c-.15875,5.56,2.5163,10.70752,7.12323,13.74756,4.5199,3.11066,9.81622,4.66443,15.10718,4.66333,5.27673,0,10.54877-1.54633,15.03387-4.63379,4.61591-3.02313,7.37903-8.32788,7.21344-13.77075v-35.57922h-12.90631l.00104,35.94733c.04907,1.69403-.83069,3.27631-2.28894,4.12439-4.33588,2.50415-9.72235,2.50415-14.06769-.00531-1.47412-.84174-2.35907-2.42078-2.30902-4.18866v-35.87775h-12.9068ZM95.78334,411.6344c5.08997,2.93872,11.36102,2.93872,16.45099,0,2.22205-1.29242,3.55908-3.69684,3.48462-6.2663v-33.48529h8.12079v33.18616c.14301,4.7229-2.17926,9.1806-6.13171,11.7699-8.27258,5.69409-19.2005,5.69409-27.47314,0-3.92828-2.59235-6.23206-7.03571-6.08685-11.73999v-33.21606h8.12079v33.48529c-.07501,2.57739,1.27612,4.98639,3.51453,6.2663Z"/><path class="cls-2" d="M135.35524,345.56122v76.57178h17.17889c.04431.00104.08752.00104.13184.00104,9.95862,0,17.43787-2.4187,22.22992-7.1886,4.81421-4.79205,7.25507-11.79822,7.25507-20.81799.00787-3.02893-.38715-6.04785-1.17297-8.96973-.78107-2.9187-2.00256-5.69025-3.63965-8.25189-1.78058-2.74097-4.2652-4.96399-7.17706-6.42438-3.20874-1.62549-6.79199-2.43878-10.40424-2.36707-3.90131.08234-7.75403.65399-11.49493,1.70306v-24.25623h-12.90686ZM159.80758,370.5069c3.2171-.06921,6.40167.65503,9.2724,2.1087,2.54364,1.276,4.70148,3.20667,6.2514,5.59332,1.49335,2.33649,2.61816,4.88879,3.33502,7.56744.73212,2.72107,1.09924,5.52734,1.0918,8.34515,0,8.40497-2.18353,14.78094-6.55048,19.12799-4.367,4.34705-11.25647,6.51062-20.66846,6.49066h-14.79095v.00006-71.78613h8.12079v25.14008c4.47491-1.61353,9.18268-2.48737,13.93848-2.58728Z"/><path class="cls-2" d="M35.27358,399.46485l6.21399-7.07581,22.75409,29.72815h16.06287l-30.14105-39.76953,28.2218-31.97064h-15.96161l-27.15009,31.03394v-31.03394h-13.36987v71.75598h13.36987v-22.66815ZM32.88076,419.74024h-8.58441v-66.97046h8.58441v35.01068l30.62872-35.01068h9.57153l-26.00757,29.46222,28.41534,37.49329h-10.065l-23.80908-31.10736-8.73395,9.94543v21.17688Z"/><path class="cls-2" d="M234.58461,398.66742c-.00732-13.95905-3.8949-30.59833-22.27997-30.59674-6.88483-.27264-13.45111,2.52472-18.03113,7.66431-4.45825,5.00305-6.72028,11.72119-6.72345,19.97046-.05011,3.54736.45935,7.06207,1.52527,10.48389,1.06854,3.25098,2.72668,6.22449,4.93866,8.85211,2.37598,2.7868,5.435,4.96503,8.8421,6.29724,3.75513,1.47675,7.69543,2.22357,11.68896,2.22357v.00006c.2384,0,.47736-.00214.71625-.00848,5.35693-.02948,10.60413-1.02527,15.59607-2.95874l1.52899-.5918v-12.74432l-3.33484,1.42822c-4.62805,1.98096-9.7392,2.93561-14.84033,2.79846h-.04535c-4.56366,0-7.81097-1.23523-9.94275-3.79425-1.65027-1.93878-2.79474-4.19604-3.37598-6.62958h33.73859l-.0011-2.39441ZM198.06362,398.66804c.28644,3.89557,1.80548,7.59882,4.3371,10.57349,2.58228,3.10077,6.52057,4.64618,11.81482,4.63623,5.41418.16138,10.79852-.85931,15.77795-2.99109v7.47772c-4.70441,1.82098-9.70154,2.76874-14.74603,2.79669-3.93652.08826-7.8512-.60828-11.51575-2.04889-3.0553-1.19507-5.76788-3.12677-7.89642-5.62323-1.99609-2.37067-3.51917-5.10193-4.48663-8.04608-.97943-3.14563-1.45398-6.42676-1.40582-9.72101v-.00006c0-7.68707,2.03894-13.81885,6.11676-18.3952,4.0882-4.58612,10.01282-7.10406,16.15192-6.86456,13.3103,0,19.97046,9.40204,19.98047,28.20599h-34.12836Z"/><path class="cls-2" d="M65.42379,419.72529h10.065l-28.41534-37.49329,26.00757-29.46222h-9.57153l-30.62872,35.01068v-35.01068h-8.58441v66.97046h8.58441v-21.17688l8.73395-9.94543,23.80908,31.10736ZM30.48787,397.66108v19.68726h-3.79846v-62.18555h3.79846v38.98682l34.10773-38.98682h3.18134l-23.7937,26.95386,26.6897,35.21588h-4.06738l-24.86377-32.48541-11.25391,12.81396Z"/><path class="cls-2" d="M152.67385,414.85047h.00006c7.37689,0,12.83722-1.72144,16.22845-5.11377,3.38806-3.38702,5.1333-8.73499,5.18707-15.87189.07703-4.40338-1.07379-8.73029-3.32056-12.50177-2.30273-3.91449-6.53308-6.19452-11.06616-5.99725-5.00885-.1123-9.93591.70886-14.63678,2.45459l-1.55798.5791-.03375,36.45099h9.19965ZM145.86916,412.45691l.02991-32.39349c4.42218-1.64294,9.1178-2.42468,13.83374-2.3031,3.65601-.19788,7.11725,1.65961,8.97327,4.81561,2.02405,3.39752,3.05994,7.29242,2.99109,11.24652-.0498,6.54047-1.54535,11.28137-4.48663,14.22266s-7.7868,4.41187-14.53668,4.41187h-6.80475l.00006-.00006Z"/><path class="cls-2" d="M145.8691,347.95411h-8.12079v71.78607h14.79095c9.41199.01996,16.30145-2.14362,20.66846-6.49066,4.36694-4.34705,6.55048-10.72302,6.55048-19.12799.00745-2.81781-.35968-5.62408-1.0918-8.34515-.71686-2.67865-1.84167-5.23096-3.33502-7.56744-1.54993-2.38666-3.70776-4.31732-6.2514-5.59332-2.87073-1.45367-6.0553-2.17792-9.2724-2.1087-4.7558.09991-9.46356.97375-13.93848,2.58728v-25.14008ZM146.68093,375.34528c4.23828-1.52844,8.67169-2.3512,13.17792-2.44617,2.83215-.05115,5.62958.58014,8.1485,1.85547,2.16132,1.08435,3.99988,2.72937,5.30786,4.74298,1.36279,2.13287,2.3855,4.45349,3.04053,6.9007.67664,2.5152,1.0163,5.11163,1.00946,7.72284,0,7.70654-1.96674,13.57141-5.84583,17.43201-3.86279,3.84589-10.2049,5.79523-18.85706,5.79523h-12.5213v-67.00134h3.33533v26.15381l3.20459-1.15552Z"/><path class="cls-2" d="M92.26882,405.36811v-33.48529h-8.12079v33.21606c-.1452,4.70428,2.15857,9.14764,6.08685,11.73999,8.27264,5.69409,19.20056,5.69409,27.47314,0,3.95245-2.58929,6.27472-7.047,6.13171-11.7699v-33.18616h-8.12079v33.48529c.07446,2.56946-1.26257,4.97388-3.48462,6.2663-5.08997,2.93872-11.36102,2.93872-16.45099,0-2.2384-1.27991-3.58954-3.6889-3.51453-6.2663ZM113.43758,413.70289c2.98254-1.73413,4.77307-4.95453,4.6745-8.33521v-31.09198h3.33478l.0011,30.86627c.11707,3.86169-1.81854,7.57782-5.09644,9.7254-7.4054,5.09589-17.35443,5.09796-24.79889-.02527-3.2594-2.15186-5.1333-5.76678-5.01306-9.66962l.0011-30.89685h3.33533l.00104,31.0224c-.10071,3.46826,1.70728,6.69287,4.70978,8.40906,5.81055,3.35541,13.03082,3.35541,18.85077-.00421Z"/><path class="cls-2" d="M212.21151,370.46204c-6.1391-.2395-12.06372,2.27844-16.15192,6.86456-4.07782,4.57635-6.11676,10.70813-6.11676,18.3952v.00006c-.04816,3.29425.42639,6.57538,1.40582,9.72101.96747,2.94415,2.49054,5.67542,4.48663,8.04608,2.12854,2.49646,4.84113,4.42816,7.89642,5.62323,3.66455,1.44061,7.57922,2.13715,11.51575,2.04889,5.04449-.02795,10.04163-.97571,14.74603-2.79669v-7.47772c-4.97943,2.13177-10.36377,3.15247-15.77795,2.99109-5.29425.00995-9.23254-1.53546-11.81482-4.63623-2.53162-2.97467-4.05066-6.67792-4.3371-10.57349h34.12836c-.01001-18.80396-6.67017-28.20599-19.98047-28.20599ZM195.48806,396.27613l.18884,2.56744c.32593,4.43237,2.02106,8.56415,4.88544,11.93005,3.0379,3.64655,7.61316,5.4967,13.52496,5.4967.01898,0,.03796,0,.05695-.00104,4.53204.13715,9.12579-.5285,13.45636-1.93243v2.35223c-3.98566,1.35645-8.14221,2.05585-12.40631,2.08008-3.64545.07385-7.20178-.55273-10.59094-1.88605-2.67926-1.04742-5.0816-2.75836-6.93756-4.93549-1.80695-2.14557-3.16766-4.58643-4.03259-7.21606-.90558-2.90814-1.34222-5.9281-1.29742-8.97449v-.03479c0-7.04675,1.85388-12.70007,5.51044-16.80328,3.46454-3.88708,8.36841-6.07849,13.62988-6.07849l-.00006.00006c.2442,0,.48944.00476.73523.01422,4.2077,0,16.73846,0,17.54645,23.42133h-34.26965Z"/><path class="cls-2" d="M212.16964,375.35212c-4.18713-.01898-8.21704,1.73462-11.02979,4.86639-2.99829,3.35437-4.82684,7.67334-5.14856,12.16162l2.35645.16931v2.39551h28.37164l-.1709-2.55322c-.28058-4.19031-1.63812-8.2677-3.96088-11.8457-2.36493-3.43396-6.25037-5.37329-10.41797-5.19391ZM198.3478,392.55127v-.00006h.02991c.28583-3.9837,1.88477-7.76019,4.54645-10.73798,2.36407-2.63214,5.74976-4.11511,9.28735-4.06787,3.3327-.16364,6.51263,1.40936,8.40497,4.15759,2.06995,3.18921,3.29004,6.85474,3.54443,10.64832h-25.81311Z"/><rect class="cls-2" x="286.40548" y="350.34693" width="3.33484" height="67.00037"/><path class="cls-2" d="M331.03719,370.14441c-6.44495,0-12.87781,2.53949-17.65192,7.57416-4.4693,4.71295-6.83575,10.8847-6.66333,17.37823.17249,6.49243,2.86328,12.53027,7.57678,16.99951l.05377.05273c4.37439,4.41547,10.46283,6.83527,16.65887,6.62115,6.69708-.01691,13.10828-2.78156,17.66565-7.58734,9.22601-9.72974,8.81567-25.15179-.914-34.3783-4.69501-4.45184-10.71539-6.66016-16.72583-6.66016ZM345.62331,410.24512l-.11871.12762c-3.96924,3.93555-9.18433,5.90491-14.39728,5.90491h.00006-.00006c-5.21509,0-10.42743-1.96832-14.39728-5.90491l-.12604-.13611c-7.10004-8.22339-7.10004-20.62653,0-28.85046l.12604-.13501c7.93866-7.87427,20.85602-7.87427,28.79456,0l.11871.12659c7.17072,8.2287,7.17072,20.63867,0,28.86737Z"/><path class="cls-2" d="M257.53023,355.95655c1.5437-1.96307,4.29681-2.91766,8.41644-2.91766h5.08478v-2.57214h-9.36212c-2.6012-.06909-5.03784.92822-6.81781,2.70874-1.86444,1.9082-2.87598,4.55792-2.75629,7.24982l.00262,13.8504h-7.47815v2.5321l7.46289.01526v40.52423h3.3501v-40.57379h12.65259v-2.49786h-12.65259v-9.36206c0-4.23248.68616-7.16229,2.09753-8.95703Z"/><polygon class="cls-2" points="366.82314 374.27564 380.39083 417.3473 382.77736 417.3473 370.35946 374.27564 366.82314 374.27564"/><polygon class="cls-2" points="412.88363 417.3473 400.40767 374.27564 398.47152 374.27564 410.43959 417.3473 412.88363 417.3473"/><polygon class="cls-2" points="429.53029 374.27564 426.00087 374.27564 413.47377 417.3473 416.01644 417.3473 429.53029 374.27564"/><polygon class="cls-2" points="398.31545 374.27564 395.9811 374.27564 383.34169 417.3473 386.48769 417.3473 398.31545 374.27564"/><path class="cls-2" d="M309.91274,374.42542c-5.349,5.64124-8.18121,13.02704-7.97498,20.79797.20624,7.75818,3.41656,14.97321,9.04034,20.31903,5.09644,5.13171,12.08148,8.02722,19.22791,8.02722.29645,0,.59436-.00525.8913-.01477,7.92542-.01898,15.59869-3.328,21.05212-9.07886,11.04193-11.64526,10.55145-30.10205-1.09326-41.14392-11.64581-11.04242-30.10205-10.55194-41.14343,1.09332ZM350.41317,412.82935c-5.02911,5.30377-12.0119,8.31488-19.32086,8.33167-6.89905.23224-13.58234-2.42371-18.44006-7.32819-10.70453-10.15027-11.15381-27.0564-1.00348-37.76093,10.15027-10.70447,27.0564-11.15375,37.76093-1.00342,10.70447,10.15027,11.15381,27.05646,1.00348,37.76086Z"/><path class="cls-2" d="M261.29171,358.91529c.20148-.25574,1.13184-1.09064,4.65497-1.09064h9.87048v-12.14368l-14.09192.00049c-3.80054-.09125-7.55621,1.40875-10.2771,4.12964-2.80536,2.87177-4.31213,6.81787-4.13599,10.7207v8.95813h-7.47815v12.09406l7.46283.01526v40.53375h12.92163v-40.57379h12.65259v-12.06927h-12.65259v-4.57635c0-4.18188.75049-5.58795,1.07324-5.99829ZM270.47792,371.88282v7.28333h-12.65234v40.5741h-8.13574v-40.5293l-7.46277-.01495v.00006-7.31317h7.47772v-11.3512c-.14935-3.36407,1.10132-6.63965,3.45471-9.0481,2.25134-2.25177,5.32629-3.48389,8.50964-3.40985h11.755v7.35809h-7.47772c-3.30518,0-5.48871.67297-6.53552,2.00403-1.04688,1.33099-1.58533,3.8136-1.58533,7.47772v6.96924h12.65234Z"/><path class="cls-2" d="M281.61977,422.133h12.90625v-76.57178h-12.90625v76.57178ZM284.01253,347.95411h8.12079v71.78613h-8.12079v-71.78613Z"/><path class="cls-2" d="M318.3951,382.9499v-.00006c-6.3786,7.38824-6.3786,18.33521,0,25.72339,7.03741,6.98041,18.38684,6.98041,25.42426,0,6.42377-7.37134,6.42377-18.35205,0-25.72333-7.03741-6.98041-18.38684-6.98041-25.42426,0ZM342.07277,407.03528c-6.0647,5.94922-15.86298,5.94922-21.92664.00421-5.4798-6.41754-5.4798-16.03802,0-22.45557,6.0647-5.94501,15.86298-5.94397,21.92664.00421,5.53204,6.41382,5.53204,16.03278,0,22.44714Z"/><path class="cls-2" d="M373.96059,369.48993h-13.6626l16.5824,52.64307h13.25598l8.28406-30.16638,8.38214,30.16638h12.72852l16.51697-52.64307h-13.63892l-9.22174,31.70587-9.18384-31.70587h-11.60571l-9.30035,31.69318-9.1369-31.69318ZM394.18929,371.88282h8.01611l10.97729,37.89709,11.02222-37.89709h8.58441l-15.01532,47.85742h-9.15271l-10.2146-36.7605-10.09485,36.7605h-9.67621l-15.07513-47.85742h8.59943l10.91748,37.86719,11.11188-37.86719Z"/><path class="cls-2" d="M292.13332,347.95411h-8.12079v71.78613h8.12079v-71.78613ZM289.74031,417.3473h-3.33484v-67.00037h3.33484v67.00037Z"/><path class="cls-2" d="M345.5046,381.25117c-7.93854-7.87427-20.8559-7.87427-28.79456,0l-.12604.13501c-7.10004,8.22394-7.10004,20.62708,0,28.85046l.12604.13611c3.96985,3.93658,9.18219,5.90491,14.39728,5.90491,5.21295,0,10.42804-1.96936,14.39728-5.90491l.11871-.12762c7.17072-8.2287,7.17072-20.63867,0-28.86737l-.11871-.12659ZM343.81936,408.67322c-7.03741,6.98041-18.38684,6.98041-25.42426,0-6.3786-7.38818-6.3786-18.33514,0-25.72339v.00006c7.03741-6.98041,18.38684-6.98041,25.42426,0,6.42377,7.37128,6.42377,18.35199,0,25.72333Z"/><path class="cls-2" d="M372.15993,371.88282h-8.59943l15.07513,47.85742h9.67621l10.09485-36.7605,10.2146,36.7605h9.15271l15.01532-47.85742h-8.58441l-11.02222,37.89709-10.97729-37.89709h-8.01611l-11.11188,37.86719-10.91748-37.86719ZM380.39083,417.3473l-13.56769-43.07166h3.53632l12.41791,43.07166h-2.38654ZM426.00087,374.27564h3.52942l-13.51385,43.07166h-2.54266l12.5271-43.07166ZM400.40767,374.27564l12.47595,43.07166h-2.44403l-11.96808-43.07166h1.93616ZM395.9811,374.27564h2.33435l-11.82776,43.07166h-3.146l12.6394-43.07166Z"/><path class="cls-2" d="M349.40969,375.06849c-10.70453-10.15033-27.61066-9.70105-37.76093,1.00342-10.15033,10.70453-9.70105,27.61066,1.00348,37.76093,4.85773,4.90448,11.54102,7.56042,18.44006,7.32819,7.30896-.01678,14.29175-3.02789,19.32086-8.33167,10.15033-10.70441,9.70099-27.6106-1.00348-37.76086ZM348.67702,411.18287c-4.55737,4.80579-10.96857,7.57043-17.66565,7.58734-6.19604.21411-12.28448-2.20569-16.65887-6.62115l-.05377-.05273c-4.7135-4.46924-7.4043-10.50708-7.57678-16.99951-.17242-6.49353,2.19403-12.66528,6.66333-17.37823,4.77411-5.03467,11.20697-7.57416,17.65192-7.57416,6.01044,0,12.03082,2.20831,16.72583,6.66016,9.72968,9.2265,10.14001,24.64856.914,34.3783Z"/><path class="cls-2" d="M259.41091,357.43586c1.04681-1.33105,3.23035-2.00403,6.53552-2.00403h7.47772v-7.35809h-11.755c-3.18335-.07404-6.2583,1.15808-8.50964,3.40985-2.35339,2.40845-3.60406,5.68402-3.45471,9.0481v11.3512h-7.47772v7.31311l7.46277.01495v40.5293h8.13574v-40.5741h12.65234v-7.28333h-12.65234v-6.96924c0-3.66412.53845-6.14673,1.58533-7.47772ZM268.08529,374.27564v2.49786h-12.65259v40.57379h-3.3501v.00006-40.52429l-7.46289-.01526v-2.5321h7.47815l-.00262-13.8504c-.11969-2.69189.89185-5.34161,2.75629-7.24982,1.77997-1.78052,4.21661-2.77783,6.81781-2.70874h9.36212v2.57214h-5.08478c-4.11963,0-6.87274.95459-8.41644,2.91766-1.41138,1.79474-2.09753,4.72455-2.09753,8.95703v9.36206h12.65259Z"/><path class="cls-2" d="M378.03304,461.66291c0-1.5-1.33691-2.59375-3.20117-2.59375h-4.82227v5.1875h4.82227c1.86426,0,3.20117-1.09473,3.20117-2.59375Z"/><path class="cls-2" d="M222.39437,461.66291c0-1.5-1.33789-2.59375-3.20215-2.59375h-4.82324v5.1875h4.82324c1.86426,0,3.20215-1.09473,3.20215-2.59375Z"/><path class="cls-2" d="M21.90371,493.47303h414.14435v-54.89771H21.90371v54.89771ZM398.13656,451.93635l5.63379,11.30664,5.95801-11.30664h8.63184l-10.65918,18.68262v9.15918h-7.86133v-9.15918l-10.69922-18.68262h8.99609ZM362.14632,451.93635h13.33398c6.24121,0,10.6582,4.01172,10.6582,9.72656,0,4.13281-2.30957,7.33496-5.91602,8.83398l6.52441,9.28125h-8.95605l-5.87695-8.38867h-1.9043v8.38867h-7.86328v-27.8418ZM333.40999,451.93635h24.31641v7.01074h-8.22656v20.83105h-7.86328v-20.83105h-8.22656v-7.01074ZM317.68343,469.36213c-6.03906-1.37695-10.69922-2.95801-10.69922-8.75391,0-5.55176,4.37695-9.1582,10.98242-9.1582,4.82324,0,8.5918,1.29688,11.67188,3.76855l-3.93066,5.55176c-2.59375-1.86328-5.43066-2.7959-7.94336-2.7959-1.90527,0-2.83691.77051-2.83691,1.82324,0,1.41895.97266,1.86523,4.94434,2.71582,6.48438,1.37793,10.53711,3.12012,10.53711,8.42969,0,5.87598-4.49902,9.32129-11.46973,9.32129-5.02539,0-9.7666-1.58008-13.29297-4.70117l4.37695-5.22852c2.83789,2.22949,5.91797,3.4043,9.2002,3.4043,2.14746,0,3.28223-.72852,3.28223-1.94531,0-1.33691-.97266-1.53906-4.82227-2.43164ZM293.64827,451.93635h7.86328v27.8418h-7.86328v-27.8418ZM277.11116,451.45002c4.37695,0,8.63184,1.82324,11.50977,4.90332l-5.7959,5.06543c-1.37793-1.7832-3.48535-2.83594-5.71387-2.83594-3.93164,0-7.25488,3.32227-7.25488,7.25391,0,3.97168,3.32324,7.29492,7.25488,7.29492,1.37695,0,2.71484-.40527,3.89062-1.13477v-2.71484h-5.43164v-5.7959h13.05078v11.83398c-2.87793,3.12012-7.13281,4.94434-11.50977,4.94434-8.34961,0-15.36035-6.60547-15.36035-14.42773s7.01074-14.38672,15.36035-14.38672ZM235.4471,451.93635h22.41113v7.01074h-14.5498v3.12012h13.25293v7.01172h-13.25293v3.6875h14.5498v7.01172h-22.41113v-27.8418ZM206.50765,451.93635h13.33301c6.24121,0,10.65918,4.01172,10.65918,9.72656,0,4.13281-2.31055,7.33496-5.91797,8.83398l6.52539,9.28125h-8.95703l-5.87598-8.38867h-1.90527v8.38867h-7.86133v-27.8418ZM170.31429,451.93635h7.86133v20.83008h12.96875v7.01172h-20.83008v-27.8418ZM142.67171,451.93635h22.41211v7.01074h-14.5498v3.12012h13.25293v7.01172h-13.25293v3.6875h14.5498v7.01172h-22.41211v-27.8418ZM111.13851,451.93635h10.375c9.72656,0,16.61621,5.75391,16.61621,13.90039s-6.88965,13.94141-16.61621,13.94141h-10.375v-27.8418ZM91.39876,451.45002c8.22705,0,15.15723,6.56445,15.15723,14.38672s-6.93018,14.42773-15.15723,14.42773-15.15723-6.60547-15.15723-14.42773,6.93018-14.38672,15.15723-14.38672ZM41.01986,451.93635h7.8623l7.45703,13.29297,7.45703-13.29297h7.8623v27.8418h-7.8623v-14.91406l-7.45703,13.29297-7.45703-13.29297v14.91406h-7.8623v-27.8418Z"/><path class="cls-2" d="M130.02425,465.83674c0-3.97168-2.99902-6.76758-7.21387-6.76758h-3.80957v13.57617h3.80957c4.21484,0,7.21387-2.83691,7.21387-6.80859Z"/><path class="cls-2" d="M91.39876,473.13166c3.80957,0,7.05176-3.32324,7.05176-7.29492,0-3.93164-3.24219-7.25391-7.05176-7.25391s-7.05176,3.32227-7.05176,7.25391c0,3.97168,3.24219,7.29492,7.05176,7.29492Z"/><path class="cls-2" d="M75.55703,224.55054l75.96881,94.46558c3.98358,4.95074,10.02289,7.83344,16.40918,7.83228l121.83197-.02661c6.38403.00433,12.42297-2.87323,16.40918-7.81897l75.94214-94.47894c3.98181-4.95117,5.47449-11.43091,4.05579-17.6059l-27.11365-117.81604c-1.42535-6.17084-5.60461-11.36304-11.35602-14.10864l-109.77106-52.43213c-3.16974-1.51422-6.6723-2.21381-10.18591-2.03461-2.78796.14612-5.51855.84229-8.03174,2.04791l-109.77112,52.43213c-5.75458,2.74841-9.93427,7.94611-11.35608,14.12195l-27.07379,117.80286c-1.26709,5.48608-.2406,11.24725,2.8457,15.97028.37158.5686.771,1.1189,1.19659,1.64886ZM79.45363,207.1344c.08203-.6507.1969-1.2998.34558-1.94489l25.65082-111.5929c1.34698-5.85022,5.3064-10.77386,10.75775-13.37732l103.97333-49.67957c2.38513-1.1394,4.97565-1.79492,7.61951-1.9281l-.00006-.00012c3.32574-.16815,6.64069.49487,9.64075,1.92816l103.98663,49.65295c5.45142,2.60339,9.41089,7.52704,10.75775,13.37732l25.69086,111.5929c.50507,2.19427.62189,4.42932.37164,6.61346-.41705,3.6416-1.85461,7.1416-4.2146,10.07489l-.00006-.00006-71.93964,89.49243c-3.77612,4.68524-9.49707,7.41113-15.5448,7.40674l-115.4093.02661c-6.0498.00122-11.7713-2.72974-15.5448-7.41992l-71.96613-89.47906c-.40234-.50446-.7796-1.02808-1.13031-1.56909-2.55951-3.91583-3.62396-8.58545-3.04492-13.17444Z"/><path class="cls-3" d="M199.52169,208.20807l-42.05829-12.12598c-4.28448-1.54645-3.79694-8.21356.7063-9.01727,1.33228-.23785,2.06177.07056,3.28174.33081,13.45209,2.86896,27.32892,8.60718,40.81567,11.80365,5.37732,2.35974,2.94708,10.0257-2.74542,9.00879ZM160.67507,132.56666c1.57697-.28394,2.29712.13751,3.6908.54852,13.87164,4.09076,27.98138,11.33234,41.87488,15.75562,5.20471,2.64655,2.49707,10.13123-3.21381,8.84888l-43.27301-16.23407c-4.09131-1.698-3.46967-8.12805.92114-8.91895ZM157.85628,161.06867c1.81543-.32721,3.87146.58435,5.6488,1.09607,13.8656,3.99213,27.64392,9.45892,41.4892,13.63562,5.10034,2.48798,2.59808,10.02716-2.97321,8.92303l-45.09241-14.72937c-4.07849-1.71613-3.4657-8.13336.92761-8.92535Z"/><path class="cls-2" d="M114.70156,225.68921c.86584,2.60724,2.77637,4.44806,5.40887,5.24023l93.34406,24.10919c9.70569,8.30377,19.24097,7.99799,28.98187.00525l93.16486-23.97534c3.12054-1.09247,5.36224-3.9278,5.57782-7.26373l-.04584-102.08258c-2.3634-9.86749-13.67212-1.93719-19.38422.12189v-15.50385c0-3.17584-4.33441-6.10321-7.32672-6.0719-3.51154.03668-10.88214,2.04468-14.6571,2.88068-27.06024,5.99231-53.87152,16.44293-71.82202,38.42157-13.83624-16.20325-32.71429-26.81042-52.85083-33.27625-8.74713-2.80878-18.04883-5.08081-27.04803-6.7785-4.6449-.87628-10.08038-2.74506-13.22882,2.0578-.41382.63129-1.30511,2.74628-1.30511,3.39301v14.87744c-5.44574-2.31854-16.44757-9.63019-19.07812-.44214.13153,34.74896-.4032,69.5946.26935,104.28723ZM232.79757,150.50281c1.27777-7.65308,20.81964-20.45599,27.55573-24.1239,11.83563-6.4447,31.70337-13.77429,45.03174-15.41699,3.65076-.45001,6.23224.93005,6.66724,4.76184l.00049,92.1095c.00934,2.28552-1.34149,4.49329-3.55731,5.21259-26.02844,4.98706-51.13788,14.82233-71.77509,31.58398l-3.92279,3.75079v-97.87781ZM143.52028,115.72376c.40601-3.69476,2.8515-5.12915,6.3963-4.80286,11.69891,1.07703,32.54059,8.72845,43.11011,14.2052,6.54858,3.39325,29.74823,17.90387,29.74823,25.68988v97.56464c-1.13702-.9671-2.15997-2.14874-3.29724-3.12366-20.34961-17.4444-46.87061-26.89355-72.8172-32.42096-1.80286-1.03949-3.25549-2.80194-3.14075-5.00275l.00055-92.1095Z"/><path class="cls-2" d="M156.92867,169.99402l45.09241,14.72937c5.57129,1.10413,8.07355-6.43506,2.97321-8.92303-13.84528-4.1767-27.6236-9.64349-41.4892-13.63562-1.77734-.51172-3.83337-1.42328-5.6488-1.09607-4.39331.79199-5.0061,7.20923-.92761,8.92535Z"/><path class="cls-2" d="M159.75393,141.4856l43.27301,16.23407c5.71088,1.28235,8.41852-6.20233,3.21381-8.84888-13.89349-4.42328-28.00323-11.66486-41.87488-15.75562-1.39368-.41101-2.11383-.83246-3.6908-.54852-4.39081.79089-5.01245,7.22095-.92114,8.91895Z"/><path class="cls-2" d="M202.26711,199.19929c-13.48676-3.19647-27.36359-8.93469-40.81567-11.80365-1.21997-.26025-1.94946-.56866-3.28174-.33081-4.50323.80371-4.99078,7.47083-.7063,9.01727l42.05829,12.12598c5.6925,1.01691,8.12274-6.64905,2.74542-9.00879Z"/><path class="cls-2" d="M243.66079,199.1493c1.42279,3.93866,4.49469,6.31641,8.70111,6.64612,13.19647,1.03424,27.71576-.80603,41.05292,0,4.3269-.14746,8.11713-3.33929,8.61462-7.67224l-.01172-45.74207c-.13605-1.20038-.92426-3.00867-1.71301-3.92487-1.37964-1.60254-2.62323-1.83276-4.30957-2.51941-.20288-.08264-.2713-.44012-.36115-.47504-.70898-.27582-1.12744-.39392-1.9071-.45148-13.54382-.99945-28.30402.76764-41.97638.01508-4.1557.57428-7.34247,3.25647-8.31134,7.34906.15692,15.58325-.27948,31.22925.22162,46.77484ZM254.11544,186.54273c.42194-.31201,1.75562-.76874,1.80872-.85352.20215-.32257-.03064-4.16467.61481-5.80731.74567-1.89746,3.78625-4.79218,5.85693-4.79218,1.8551,0,6.7384.35828,8.14343,0,.65576-.1673.14905-1.15662.14093-1.70374-.02466-1.64343.33704-5.24426.02795-6.54309-.03717-.15619-2.01105-1.0564-2.68036-1.77008-4.90039-5.22552.80255-13.38977,7.58527-10.71759,5.29102,2.08459,5.49658,9.32819.62469,12.03845-.39862.2218-1.15698.18024-1.15698.23932v8.45673h8.30005c2.9549,0,6.22217,3.66437,6.65881,6.49591.12286.79681-.034,3.95697.10992,4.11969.08466.09576.79755.08887,1.12366.27332,7.01282,3.96613,2.9375,14.10022-4.72449,12.25232-5.41876-1.30688-6.72772-8.38141-2.36487-11.68781.39606-.30017,1.80719-.74652,1.87146-1.01434.43225-1.80255-.24933-4.90997-2.21954-5.56952l-20.50757-.17871c-2.79791.19824-3.86682,3.3537-3.2937,5.74823.05444.22766,1.5744.78162,2.047,1.15137,4.17371,3.26599,3.0896,9.97913-2.02142,11.44128-7.21222,2.06329-12.12268-7.01086-5.9447-11.57874Z"/></svg>