<?xml version="1.0" encoding="UTF-8"?><svg id="Layer_1" xmlns="http://www.w3.org/2000/svg" viewBox="0 0 456.6741 511.6225"><defs><style>.cls-1{fill:#0028aa;}.cls-2{fill:#4279f4;}.cls-3{fill:#fff;}.cls-4{fill:#f5f5f4;}.cls-5{fill:#326ce5;}</style></defs><path class="cls-2" d="M24.29632,419.74025v-66.97047h8.58442v35.0107l30.62875-35.0107h9.57149l-26.00752,29.46221,28.41535,37.4933h-10.06502l-23.80907-31.10733-8.73398,9.9454v21.1769h-8.58443ZM84.14801,405.09887v-33.21604h8.12082v33.48527c-.07505,2.57741,1.2761,4.98643,3.51453,6.26633,5.08996,2.93871,11.36104,2.93871,16.45098,0,2.22204-1.29246,3.5591-3.69684,3.48462-6.26633v-33.48527h8.12082v33.18614c.14299,4.72291-2.17931,9.18061-6.13174,11.76992-8.27262,5.69406-19.20054,5.69406-27.47316,0-3.9283-2.59234-6.23206-7.0357-6.08687-11.74002ZM137.74831,419.74025v-71.78614h8.12081v25.14009c4.47486-1.61354,9.18265-2.48738,13.93848-2.5873,3.21706-.06919,6.40164.65502,9.27237,2.10871,2.54367,1.27601,4.70146,3.20668,6.25138,5.59335,1.49335,2.33647,2.6182,4.88879,3.33508,7.56743.73209,2.72107,1.09922,5.52735,1.09175,8.34514.00002,8.40497-2.18349,14.78095-6.55047,19.12802-4.36698,4.34701-11.25645,6.5106-20.66843,6.49066h-14.79094l-.00002.00003ZM145.86912,412.45698h6.80473c6.74988,0,11.59545-1.47064,14.53669-4.41188s4.43679-7.68215,4.48663-14.22262c.06881-3.95413-.96705-7.84899-2.99109-11.2465-1.85607-3.15604-5.31725-5.01353-8.97326-4.81567-4.71595-.12158-9.41161.66016-13.83378,2.30314l-.02992,32.3935-.00002.00003ZM189.94282,395.72183c.00002-7.68709,2.03892-13.81883,6.11677-18.39521,4.08818-4.5861,10.0128-7.10407,16.15188-6.86455,13.31036,0,19.97051,9.402,19.98048,28.20598h-34.12834c.28642,3.89558,1.80545,7.59885,4.33708,10.57352,2.5823,3.10076,6.52056,4.64613,11.8148,4.63621,5.4142.1614,10.79852-.85933,15.77799-2.99109v7.47773c-4.70445,1.82099-9.70156,2.76874-14.74607,2.79666-3.93653.08825-7.85119-.60824-11.51569-2.04888-3.05534-1.19505-5.76793-3.12677-7.89647-5.62325-1.99607-2.37062-3.51912-5.10191-4.48663-8.04605-.97944-3.14566-1.45396-6.42674-1.40581-9.72104v-.00003ZM198.34778,392.55128h25.81311c-.25436-3.79356-1.47448-7.45907-3.54444-10.64828-1.89231-2.74823-5.07227-4.32123-8.40496-4.15762-3.53761-.04721-6.92328,1.43573-9.28733,4.06789-2.66168,2.9778-4.26064,6.75425-4.54644,10.73798h-.02992l-.00002.00003Z"/><path class="cls-2" d="M214.54509,423.56229c-3.99357,0-7.93385-.74682-11.68902-2.22356-3.40707-1.33225-6.46607-3.51045-8.84206-6.29729-2.21197-2.62758-3.87015-5.60113-4.93868-8.85208-1.06589-3.42184-1.57537-6.93651-1.52528-10.48388.00316-8.24925,2.26523-14.96743,6.72344-19.97044,4.58005-5.13962,11.14632-7.937,18.03116-7.66435,18.38505-.00158,22.27261,16.63774,22.27998,30.59674l.00105,2.39445h-33.73854c.58121,2.43348,1.72569,4.6908,3.37595,6.62957,2.1318,2.55901,5.37908,3.79421,9.94276,3.79421h.04536c5.10113.13713,10.21227-.81747,14.84032-2.79844l3.33483-1.42825v12.74437l-1.52897.59176c-4.99195,1.9335-10.23917,2.92924-15.59609,2.95878-.23891.00633-.47785.00844-.71623.00844l.00002-.00003ZM211.47609,372.84057c-5.26146,0-10.16534,2.19139-13.62991,6.07843-3.65655,4.10326-5.51041,9.75658-5.51041,16.80332v.03481c-.04483,3.04634.39186,6.0663,1.29742,8.97445.86495,2.62966,2.22567,5.07052,4.03259,7.21606,1.85597,2.17715,4.25831,3.88807,6.93757,4.93553,3.38916,1.33331,6.9455,1.95987,10.59096,1.88603,4.26412-.02426,8.42065-.72362,12.40631-2.0801v-2.35226c-4.33057,1.40398-8.92434,2.06958-13.45638,1.93245-.01899.00105-.03798.00105-.05696.00105-5.91176,0-10.48705-1.85017-13.52496-5.4967-2.86437-3.36593-4.55948-7.49768-4.88542-11.93006l-.18881-2.56745h34.26964c-.80801-23.42129-13.33878-23.42129-17.54646-23.42129-.24577-.00949-.49101-.01424-.73522-.01424l.00005-.00003ZM103.98532,423.47368c-5.29099.00105-10.58726-1.55269-15.10719-4.66337-4.60694-3.04001-7.28197-8.18754-7.12323-13.74753v-35.57288h12.90682v35.87771c-.0501,1.76788.8349,3.34694,2.30901,4.18871,4.34534,2.50943,9.7318,2.50943,14.06766.00527,1.45829-.84806,2.33802-2.43032,2.28896-4.12436l-.00105-35.94733h12.90629v35.57921c.16561,5.4429-2.5975,10.74761-7.21341,13.77073-4.48511,3.08748-9.75712,4.63384-15.03386,4.63384ZM86.54065,374.27567l-.00105,30.89685c-.12025,3.90283,1.75364,7.51772,5.01305,9.66958,7.44442,5.12327,17.39351,5.12116,24.7989.02532,3.27787-2.14761,5.21347-5.86376,5.09638-9.72546l-.00105-30.86626h-3.33482v31.09197c.09862,3.3807-1.69194,6.60109-4.67446,8.33522-5.81998,3.3596-13.04026,3.3596-18.85076.00422-3.00256-1.7162-4.81052-4.94081-4.70979-8.40906l-.00105-31.02238h-3.33535ZM152.66598,422.13404c-.04431,0-.08756,0-.13184-.00105h-17.17886v-76.57175h12.90682v24.2562c3.74094-1.04901,7.59367-1.62073,11.49494-1.70301,3.61225-.07173,7.19549.74155,10.40426,2.36702,2.91184,1.46042,5.39648,3.68345,7.17703,6.4244,1.63708,2.56165,2.85858,5.33319,3.63967,8.25188.78584,2.92186,1.18088,5.94077,1.17296,8.9697,0,9.01981-2.44087,16.02594-7.25507,20.81801-4.79207,4.76992-12.2713,7.18863-22.22989,7.18863l-.00002-.00003ZM140.14099,417.34834h12.52129c8.6522,0,14.99432-1.94932,18.85708-5.7952,3.87912-3.86064,5.84583-9.72546,5.84583-17.432.00686-2.61123-.3328-5.20766-1.00947-7.72289-.65505-2.4472-1.67771-4.76781-3.04052-6.90065-1.30799-2.01364-3.14653-3.65866-5.30787-4.74302-2.51891-1.27529-5.31631-1.9066-8.14851-1.85544-4.50621.09494-8.93964.91768-13.17792,2.44614l-3.20455,1.15556v-26.15384h-3.33536v67.00136-.00003ZM35.27358,422.13302h-13.36989v-71.75598h13.36989v31.03395l27.15011-31.03395h15.96159l-28.22181,31.97066,30.14106,39.7695h-16.06285l-22.75413-29.72811-6.21397,7.07576v22.66817ZM26.68943,417.34834h3.79843v-19.68724l11.25391-12.81399,24.86378,32.48541h4.0674l-26.68968-35.21584,23.79366-26.9539h-3.18135l-34.10773,38.98681v-38.98681h-3.79843v62.18556ZM152.67387,414.85051h-9.19965l.03376-36.45101,1.55798-.5791c4.70082-1.74573,9.62791-2.56692,14.63674-2.45458,4.53309-.19726,8.76347,2.08277,11.06616,5.99721,2.24677,3.7715,3.39758,8.0984,3.32059,12.50178-.0538,7.13694-1.799,12.4849-5.1871,15.87193-3.39125,3.3923-8.85155,5.11377-16.22846,5.11377h-.00002ZM148.2642,410.06371h4.40969c6.06103,0,10.38263-1.24786,12.84407-3.71088,2.46829-2.46724,3.74198-6.6897,3.78629-12.54819.06171-3.53524-.85599-6.98662-2.65394-10.00395-1.41557-2.40658-4.01043-3.79949-6.78832-3.65128l-.09545.00527-.09545-.00211c-3.87859-.10127-7.70074.44302-11.3805,1.61651l-.02637,28.29459-.00002.00003ZM226.71934,394.94494h-28.37159v-2.39551l-2.35648-.16931c.32172-4.48826,2.15026-8.80725,5.1486-12.16158,2.8127-3.13178,6.84264-4.88542,11.02977-4.86644,4.16761-.17933,8.05306,1.75997,10.41797,5.19395,2.32272,3.57796,3.68029,7.65538,3.96087,11.84567l.17087,2.55321h-.00002ZM201.16678,390.15867h20.26739c-.49207-2.46777-1.44985-4.83426-2.82483-6.95286-1.39605-2.02633-3.73829-3.20299-6.28095-3.07007l-.07435.00369-.0749-.00105c-2.87175-.04483-5.57158,1.15503-7.47449,3.27363-1.71514,1.91873-2.93083,4.25306-3.53788,6.74667Z"/><path class="cls-1" d="M242.22706,379.19607v-7.3132h7.47773v-11.3512c-.14936-3.36402,1.10133-6.63963,3.45471-9.04806,2.25137-2.25178,5.3263-3.48388,8.50966-3.40984h11.75499v7.35807h-7.47773c-3.30516,0-5.48865.67298-6.53552,2.00401s-1.58527,3.81363-1.58527,7.47773v6.96925h12.65231v7.2833h-12.65231v40.57411h-8.13577v-40.52928l-7.46278-.01497v.00007ZM284.01255,419.74025v-71.78614h8.12078v71.78614h-8.12078ZM312.65222,413.83284c-10.70449-10.15028-11.15377-27.05642-1.00346-37.76091,10.15028-10.70449,27.05642-11.15377,37.76091-1.00346,10.70449,10.15028,11.1538,27.05645,1.00349,37.76091-5.02912,5.30375-12.01191,8.31485-19.32087,8.33166-6.89906.23221-13.58231-2.42372-18.44007-7.32817v-.00003ZM318.3951,382.94987c-6.37858,7.3882-6.37858,18.33521,0,25.72338,7.03739,6.98039,18.38687,6.98039,25.42425,0,6.42377-7.37132,6.42377-18.35206,0-25.72334-7.03739-6.98039-18.38687-6.98039-25.42425,0v-.00003ZM363.56056,371.88283h8.59937l10.91747,37.86719,11.11187-37.86719h8.01612l10.97731,37.89708,11.0222-37.89708h8.5844l-15.0153,47.85742h-9.15272l-10.21456-36.76048-10.0949,36.76048h-9.67617l-15.07513-47.85742h.00003Z"/><path class="cls-1" d="M330.20599,423.56967c-7.14643,0-14.13147-2.89549-19.22787-8.02723-5.62378-5.34585-8.83415-12.56085-9.04038-20.31905-.20623-7.77089,2.626-15.15675,7.97501-20.79797,11.04136-11.64524,29.49762-12.13576,41.14339-1.09332,11.64472,11.04188,12.13524,29.49867,1.09332,41.14391-5.45345,5.75089-13.12676,9.05989-21.05216,9.07888-.29695.00949-.59492.01477-.89134.01477h.00003ZM331.03721,370.14442c-6.44497,0-12.87781,2.5395-17.65194,7.57416-4.46927,4.71295-6.83577,10.88474-6.66333,17.37823.17247,6.49244,2.86331,12.53026,7.57679,16.99953l.0538.05274c4.37437,4.41547,10.46279,6.83524,16.65884,6.62114,6.69709-.01688,13.1083-2.78156,17.66566-7.58734,9.226-9.72971,8.81569-25.15176-.91399-34.37829-4.69502-4.45187-10.71543-6.66017-16.72582-6.66017ZM419.53111,422.13302h-12.72854l-8.38216-30.16638-8.28406,30.16638h-13.25598l-16.58236-52.64309h13.66261l9.13687,31.69322,9.30037-31.69322h11.60569l9.18384,31.70588,9.22178-31.70588h13.63887l-16.51696,52.64309h.00003ZM413.47378,417.34728h2.54266l13.51387-43.07161h-3.52944l-12.52709,43.07161ZM410.43957,417.34728h2.44403l-12.47593-43.07161h-1.93614l11.96804,43.07161ZM383.34168,417.34728h3.14602l11.82774-43.07161h-2.33432l-12.63944,43.07161ZM380.39081,417.34728h2.38654l-12.41791-43.07161h-3.5363l13.56767,43.07161ZM294.52604,422.13302h-12.90629v-76.57178h12.90629v76.57178ZM286.40549,417.34728h3.33481v-67.00031h-3.33481v67.00031ZM260.21844,422.13302h-12.92159v-40.53373l-7.46287-.0153v-12.09406h7.47816v-8.9581c-.17617-3.90283,1.33065-7.84895,4.13596-10.72071,2.72092-2.7209,6.47662-4.22088,10.27714-4.12963l14.09191-.00053v12.14368h-9.8705c-3.52311,0-4.45347.83491-4.65493,1.09068-.32278.41032-1.07329,1.81641-1.07329,5.99826v4.57634h12.65261v12.06931h-12.65261v40.57378ZM252.08258,417.34728h3.35013v-40.57378h12.65261v-2.49783h-12.65261v-9.36208c0-4.23249.68617-7.16226,2.09752-8.95704,1.54374-1.96304,4.29683-2.91764,8.41645-2.91764h5.08478v-2.57217h-9.3621c-2.60119-.06909-5.03784.92826-6.81785,2.70877-1.86441,1.90818-2.87597,4.55788-2.75626,7.24981l.00264,13.85038h-7.47816v2.53211l7.46287.0153v40.52424-.00007ZM331.10736,416.27766c-5.21504,0-10.42745-1.96831-14.3973-5.9049l-.12606-.13608c-7.10002-8.2234-7.10002-20.62655,0-28.85048l.12606-.13502c7.93862-7.87427,20.85598-7.87427,28.79457,0l.11867.12659c7.1707,8.22868,7.1707,20.63868,0,28.86736l-.11867.12764c-3.96929,3.93554-9.18437,5.9049-14.3973,5.9049h.00003ZM320.14614,407.03953c6.06366,5.94499,15.86191,5.94499,21.92662-.00422,5.53203-6.41438,5.53203-16.03332,0-22.44718-6.06366-5.94815-15.86191-5.94921-21.92662-.00422-5.47982,6.41754-5.47982,16.03807,0,22.45561Z"/><rect class="cls-1" x="21.90369" y="438.57531" width="414.14434" height="54.89774"/><path class="cls-5" d="M377.87653,205.16276l-25.69087-111.59285c-1.34685-5.85029-5.30636-10.77394-10.75773-13.3773l-103.98668-49.653c-3.00007-1.43329-6.31501-2.09631-9.64075-1.92812l.0001.0001c-2.64388.13318-5.23441.78872-7.61952,1.92812l-103.97334,49.67957c-5.45136,2.60341-9.41076,7.52706-10.75772,13.3773l-25.65087,111.59292c-.14864.64508-.26352,1.29416-.34558,1.94484-.57354,4.5829.4917,9.24489,3.04756,13.15524.35063.54101.72793,1.06462,1.1302,1.5691l71.96624,89.47906c3.77348,4.69017,9.49483,7.42116,15.5448,7.42001l115.40928-.02664c6.04764.00438,11.7687-2.7215,15.54478-7.40676l71.93966-89.49222c2.35601-2.92817,3.79207-6.4211,4.21201-10.0559.2502-2.18412.13338-4.41917-.37165-6.61349h.00007Z"/><path class="cls-1" d="M386.17407,206.91795l-27.11361-117.816c-1.42538-6.17086-5.60466-11.36303-11.35601-14.10868l-109.77108-52.43213c-3.16972-1.51418-6.67231-2.21378-10.1859-2.03457-2.78797.14606-5.51855.84228-8.03178,2.04786l-109.77109,52.43213c-5.7546,2.74841-9.93428,7.94614-11.35612,14.12196l-27.07375,117.80287c-1.26713,5.48607-.24059,11.24724,2.84572,15.9703.37155.56858.77098,1.1189,1.19659,1.64883l75.96879,94.46561c3.98357,4.95073,10.0229,7.83343,16.40916,7.83227l121.832-.02664c6.38402.00438,12.42296-2.8732,16.40916-7.81892l75.94212-94.47896c3.98185-4.95122,5.47451-11.43094,4.05579-17.60594ZM374.03353,221.85117l-71.93966,89.49241c-3.77612,4.68523-9.49707,7.41111-15.54478,7.40673l-115.40928.02664c-6.04985.00122-11.77132-2.72977-15.5448-7.41995l-71.96615-89.47906c-.40236-.50448-.77957-1.0281-1.13031-1.5691-2.55951-3.91581-3.62393-8.58541-3.04494-13.17444.08205-.6507.19694-1.29976.34558-1.94484l25.65086-111.59291c1.34695-5.85025,5.30636-10.77388,10.75772-13.3773l103.97334-49.67958c2.38511-1.13941,4.97563-1.79494,7.61952-1.92812l-.0001-.0001c3.32575-.16819,6.64068.49483,9.64075,1.92812l103.98668,49.653c5.45137,2.60337,9.41087,7.52701,10.75773,13.3773l25.69087,111.59286c.50503,2.19432.62185,4.42937.37165,6.61349-.41711,3.64162-1.85462,7.1416-4.21465,10.07489l-.00003-.00003Z"/><path class="cls-3" d="M41.01985,451.93638h7.8623l7.45703,13.29297,7.45703-13.29297h7.8623v27.8418h-7.8623v-14.91406l-7.45703,13.29297-7.45703-13.29297v14.91406h-7.8623v-27.8418Z"/><path class="cls-3" d="M76.24153,465.83677c0-7.82227,6.93018-14.38672,15.15723-14.38672s15.15723,6.56445,15.15723,14.38672-6.93018,14.42773-15.15723,14.42773-15.15723-6.60547-15.15723-14.42773ZM98.45052,465.83677c0-3.93164-3.24219-7.25391-7.05176-7.25391s-7.05176,3.32227-7.05176,7.25391c0,3.97168,3.24219,7.29492,7.05176,7.29492s7.05176-3.32324,7.05176-7.29492Z"/><path class="cls-3" d="M111.13851,451.93638h10.375c9.72656,0,16.61621,5.75391,16.61621,13.90039s-6.88965,13.94141-16.61621,13.94141h-10.375v-27.8418ZM122.81038,472.64537c4.21484,0,7.21387-2.83691,7.21387-6.80859s-2.99902-6.76758-7.21387-6.76758h-3.80957v13.57617h3.80957Z"/><path class="cls-3" d="M150.53401,458.94713v3.12012h13.25293v7.01172h-13.25293v3.6875h14.5498v7.01172h-22.41211v-27.8418h22.41211v7.01074h-14.5498Z"/><path class="cls-3" d="M191.14436,472.76646v7.01172h-20.83008v-27.8418h7.86133v20.83008h12.96875Z"/><path class="cls-3" d="M222.15022,479.77818l-5.87598-8.38867h-1.90527v8.38867h-7.86133v-27.8418h13.33301c6.24121,0,10.65918,4.01172,10.65918,9.72656,0,4.13281-2.31055,7.33496-5.91797,8.83398l6.52539,9.28125h-8.95703ZM214.36897,464.2567h4.82324c1.86426,0,3.20215-1.09473,3.20215-2.59375,0-1.5-1.33789-2.59375-3.20215-2.59375h-4.82324v5.1875Z"/><path class="cls-3" d="M243.30843,458.94713v3.12012h13.25293v7.01172h-13.25293v3.6875h14.5498v7.01172h-22.41113v-27.8418h22.41113v7.01074h-14.5498Z"/><path class="cls-3" d="M275.57015,463.48619h13.05078v11.83398c-2.87793,3.12012-7.13281,4.94434-11.50977,4.94434-8.34961,0-15.36035-6.60547-15.36035-14.42773s7.01074-14.38672,15.36035-14.38672c4.37695,0,8.63184,1.82324,11.50977,4.90332l-5.7959,5.06543c-1.37793-1.7832-3.48535-2.83594-5.71387-2.83594-3.93164,0-7.25488,3.32227-7.25488,7.25391,0,3.97168,3.32324,7.29492,7.25488,7.29492,1.37695,0,2.71484-.40527,3.89062-1.13477v-2.71484h-5.43164v-5.7959Z"/><path class="cls-3" d="M293.64827,451.93638h7.86328v27.8418h-7.86328v-27.8418Z"/><path class="cls-3" d="M305.64632,475.56334l4.37695-5.22852c2.83789,2.22949,5.91797,3.4043,9.2002,3.4043,2.14746,0,3.28223-.72852,3.28223-1.94531,0-1.33691-.97266-1.53906-4.82227-2.43164-6.03906-1.37695-10.69922-2.95801-10.69922-8.75391,0-5.55176,4.37695-9.1582,10.98242-9.1582,4.82324,0,8.5918,1.29688,11.67188,3.76855l-3.93066,5.55176c-2.59375-1.86328-5.43066-2.7959-7.94336-2.7959-1.90527,0-2.83691.77051-2.83691,1.82324,0,1.41895.97266,1.86523,4.94434,2.71582,6.48438,1.37793,10.53711,3.12012,10.53711,8.42969,0,5.87598-4.49902,9.32129-11.46973,9.32129-5.02539,0-9.7666-1.58008-13.29297-4.70117Z"/><path class="cls-3" d="M341.63655,458.94713h-8.22656v-7.01074h24.31641v7.01074h-8.22656v20.83105h-7.86328v-20.83105Z"/><path class="cls-3" d="M377.79085,479.77818l-5.87695-8.38867h-1.9043v8.38867h-7.86328v-27.8418h13.33398c6.24121,0,10.6582,4.01172,10.6582,9.72656,0,4.13281-2.30957,7.33496-5.91602,8.83398l6.52441,9.28125h-8.95605ZM370.0096,464.2567h4.82227c1.86426,0,3.20117-1.09473,3.20117-2.59375,0-1.5-1.33691-2.59375-3.20117-2.59375h-4.82227v5.1875Z"/><path class="cls-3" d="M399.83968,470.619l-10.69922-18.68262h8.99609l5.63379,11.30664,5.95801-11.30664h8.63184l-10.65918,18.68262v9.15918h-7.86133v-9.15918Z"/><path class="cls-4" d="M305.38501,110.9619c-13.32835,1.64273-33.19609,8.97231-45.03173,15.41702-6.73608,3.66793-26.27796,16.4708-27.55568,24.12387v97.87782l3.92279-3.75081c20.63717-16.76165,45.74665-26.59688,71.77505-31.58398,2.21584-.71925,3.56667-2.92702,3.55734-5.21254l-.00052-92.1095c-.43497-3.83183-3.01648-5.21186-6.66724-4.76188ZM293.41481,205.79539c-13.33716-.80602-27.85647,1.03429-41.05294,0-4.20639-.32968-7.27828-2.70741-8.7011-6.6461-.50105-15.54561-.06467-31.19158-.22163-46.77482.96888-4.09259,4.15569-6.77476,8.31138-7.34907,13.67237.75255,28.43257-1.0145,41.97635-.01508.77966.05757,1.19813.17571,1.90714.45147.08983.03495.15823.39241.36112.47507,1.68634.68662,2.92994.91683,4.30959,2.51939.78877.91624,1.57694,2.72451,1.71299,3.92488l.01172,45.74209c-.49747,4.33289-4.28771,7.52478-8.61463,7.67218Z"/><path class="cls-4" d="M146.6605,212.83599c25.94656,5.52743,52.46758,14.9766,72.81718,32.42099,1.13727.97493,2.16021,2.15655,3.29725,3.12364v-97.56465c0-7.78598-23.19965-22.29663-29.74823-25.68983-10.56956-5.4768-31.41119-13.12823-43.1101-14.20523-3.54479-.32632-5.99033,1.10807-6.39632,4.80288l-.00052,92.1095c-.11477,2.20076,1.33784,3.96326,3.14074,5.0027ZM199.52167,208.20806l-42.05826-12.12597c-4.2845-1.54647-3.79696-8.21356.70626-9.01726,1.33231-.23783,2.06179.07057,3.2818.3308,13.45208,2.86893,27.3289,8.60716,40.81563,11.80368,5.37734,2.35974,2.94711,10.02565-2.74542,9.00875ZM160.67509,132.56668c1.57694-.28398,2.29708.13747,3.69078.54847,13.87167,4.0908,27.98139,11.33234,41.87487,15.75566,5.20469,2.64655,2.49706,10.13123-3.21377,8.84888l-43.27304-16.23409c-4.09132-1.69798-3.46967-8.12806.92116-8.91892ZM157.85627,161.06869c1.81545-.32722,3.87149.58431,5.64885,1.09605,13.86554,3.99216,27.64387,9.45895,41.48918,13.63563,5.1003,2.48795,2.59809,10.02714-2.97325,8.92303l-45.09237-14.72936c-4.07848-1.71613-3.46571-8.13336.92759-8.92534Z"/><path class="cls-1" d="M341.13319,121.72225c-2.36339-9.86749-13.67214-1.93724-19.38424.12187v-15.50387c0-3.17583-4.33438-6.10316-7.32667-6.07187-3.51156.03666-10.88214,2.04469-14.65715,2.88065-27.06023,5.99234-53.8715,16.44295-71.82202,38.42162-13.8362-16.20325-32.7143-26.81045-52.8508-33.27629-8.74717-2.80874-18.04886-5.08081-27.04806-6.7785-4.64487-.87629-10.08038-2.74505-13.22881,2.05783-.41384.63128-1.30513,2.74624-1.30513,3.39298v14.87744c-5.44574-2.31852-16.44758-9.63018-19.07808-.44214.1315,34.74899-.40323,69.5946.26934,104.28722.86583,2.60728,2.77633,4.44811,5.40885,5.24024l93.34407,24.10923c9.70567,8.30377,19.24094,7.99798,28.98186.00523l93.16485-23.97535c3.12058-1.09246,5.36225-3.92779,5.57783-7.26372l-.04585-102.08258ZM143.52028,115.72378c.406-3.69481,2.85153-5.1292,6.39632-4.80288,11.69891,1.07701,32.54054,8.72843,43.1101,14.20523,6.54858,3.39321,29.74823,17.90385,29.74823,25.68983v97.56465c-1.13704-.96709-2.15999-2.14871-3.29725-3.12364-20.34961-17.44439-46.87063-26.89356-72.81718-32.42099-1.8029-1.03945-3.25551-2.80195-3.14074-5.0027l.00052-92.1095ZM312.05224,115.72378l.00052,92.1095c.00933,2.28551-1.3415,4.49329-3.55734,5.21254-26.0284,4.9871-51.13788,14.82233-71.77505,31.58398l-3.92279,3.75081v-97.87782c1.27773-7.65307,20.8196-20.45594,27.55568-24.12387,11.83564-6.44471,31.70338-13.77429,45.03173-15.41702,3.65075-.44998,6.23227.93005,6.66724,4.76188Z"/><path class="cls-1" d="M156.92868,169.99403l45.09237,14.72936c5.57134,1.10411,8.07355-6.43508,2.97325-8.92303-13.84531-4.17667-27.62364-9.64347-41.48918-13.63563-1.77736-.51173-3.8334-1.42326-5.64885-1.09605-4.3933.79198-5.00606,7.20921-.92759,8.92534Z"/><path class="cls-1" d="M159.75393,141.4856l43.27304,16.23409c5.71083,1.28236,8.41846-6.20232,3.21377-8.84888-13.89347-4.42332-28.0032-11.66486-41.87487-15.75566-1.39369-.411-2.11384-.83245-3.69078-.54847-4.39084.79086-5.01249,7.22093-.92116,8.91892Z"/><path class="cls-1" d="M202.2671,199.19931c-13.48673-3.19652-27.36355-8.93475-40.81563-11.80368-1.22-.26023-1.94948-.56863-3.2818-.3308-4.50322.8037-4.99076,7.47079-.70626,9.01726l42.05826,12.12597c5.69253,1.01689,8.12276-6.64902,2.74542-9.00875Z"/><path class="cls-1" d="M300.30472,148.45623c-1.37965-1.60255-2.62326-1.83277-4.30959-2.51939-.20289-.08266-.27129-.44012-.36112-.47507-.70902-.27577-1.12748-.3939-1.90714-.45147-13.54378-.99942-28.30398.76764-41.97635.01508-4.15569.57431-7.3425,3.25648-8.31138,7.34907.15696,15.58324-.27943,31.22921.22163,46.77482,1.42282,3.93869,4.49471,6.31642,8.7011,6.6461,13.19648,1.03429,27.71578-.80602,41.05294,0,4.32692-.1474,8.11716-3.33929,8.61463-7.67218l-.01172-45.74209c-.13605-1.20037-.92423-3.00864-1.71299-3.92488ZM286.54879,198.23096c-5.41878-1.30685-6.72772-8.38142-2.36489-11.68779.39606-.30018,1.80723-.7465,1.87145-1.01436.43228-1.80253-.24933-4.90996-2.2195-5.56955l-20.50762-.17869c-2.79792.19826-3.86678,3.3537-3.29367,5.74824.05444.22768,1.5744.7816,2.04701,1.15138,4.17369,3.26596,3.08959,9.97912-2.02147,11.44129-7.2122,2.06328-12.12268-7.01088-5.9447-11.57876.42198-.31198,1.75563-.76876,1.80872-.85351.20214-.32259-.03062-4.16465.61486-5.8073.74561-1.89744,3.78621-4.7922,5.85689-4.7922,1.8551,0,6.7384.35828,8.14344,0,.65578-.16727.14905-1.15661.14091-1.70373-.02464-1.6434.33707-5.24427.028-6.54306-.03719-.15622-2.01109-1.0564-2.68038-1.77012-4.9004-5.22553.80258-13.38973,7.58526-10.71756,5.29102,2.08457,5.49659,9.3282.62471,12.03845-.3986.22178-1.15698.18026-1.15698.23933v8.45669h8.30003c2.95488,0,6.22219,3.66442,6.6588,6.49594.12291.79683-.03398,3.95699.10992,4.1197.08468.09573.79758.08886,1.12368.2733,7.01282,3.9661,2.93748,14.10024-4.72447,12.25231Z"/><path class="cls-4" d="M291.27327,185.97864c-.3261-.18444-1.039-.17757-1.12368-.2733-.14389-.16271.01299-3.32287-.10992-4.1197-.43661-2.83152-3.70392-6.49594-6.6588-6.49594h-8.30003v-8.45669c0-.05907.75838-.01755,1.15698-.23933,4.87188-2.71025,4.6663-9.95388-.62471-12.03845-6.78268-2.67217-12.48567,5.49204-7.58526,10.71756.66929.71372,2.64319,1.6139,2.68038,1.77012.30907,1.29878-.05264,4.89966-.028,6.54306.00814.54713.51487,1.53647-.14091,1.70373-1.40504.35828-6.28835,0-8.14344,0-2.07068,0-5.11128,2.89477-5.85689,4.7922-.64547,1.64265-.41272,5.48472-.61486,5.8073-.05309.08475-1.38675.54153-1.80872.85351-6.17798,4.56788-1.2675,13.64205,5.9447,11.57876,5.11105-1.46217,6.19515-8.17533,2.02147-11.44129-.4726-.36978-1.99257-.9237-2.04701-1.15138-.57311-2.39453.49575-5.54998,3.29367-5.74824l20.50762.17869c1.97017.65958,2.65178,3.76702,2.2195,5.56955-.06422.26785-1.47539.71417-1.87145,1.01436-4.36283,3.30636-3.05389,10.38094,2.36489,11.68779,7.66195,1.84793,11.7373-8.28622,4.72447-12.25231Z"/></svg>