<svg fill="none" height="180" viewBox="0 0 514 180" width="514" xmlns="http://www.w3.org/2000/svg" xmlns:xlink="http://www.w3.org/1999/xlink"><filter id="a" color-interpolation-filters="sRGB" filterUnits="userSpaceOnUse" height="142.802" width="147.487" x="21.4562" y="17.9392"><feFlood flood-opacity="0" result="BackgroundImageFix"/><feColorMatrix in="SourceAlpha" result="hardAlpha" type="matrix" values="0 0 0 0 0 0 0 0 0 0 0 0 0 0 0 0 0 0 127 0"/><feOffset dx=".060844" dy=".182533"/><feGaussianBlur stdDeviation=".121689"/><feComposite in2="hardAlpha" operator="out"/><feColorMatrix type="matrix" values="0 0 0 0 0 0 0 0 0 0 0 0 0 0 0 0 0 0 0.25 0"/><feBlend in2="BackgroundImageFix" mode="normal" result="effect1_dropShadow_0_43"/><feBlend in="SourceGraphic" in2="effect1_dropShadow_0_43" mode="normal" result="shape"/></filter><g filter="url(#a)"><path clip-rule="evenodd" d="m90.884 18.9581c1.1723-.5588 2.4456-.8802 3.7451-.9456 1.6346-.0824 3.264.2427 4.7386.9456l51.1113 24.3508c1.322.6302 2.485 1.5473 3.4 2.6831s1.56 2.461 1.887 3.8774l12.628 54.7276c.326 1.417.326 2.888-.001 4.305s-.972 2.743-1.888 3.879l-35.36 43.889c-.916 1.134-2.079 2.049-3.401 2.678-1.323.629-2.772.955-4.239.954l-56.7255.013c-1.4679 0-2.9171-.327-4.2398-.957s-2.4851-1.546-3.4007-2.682l-35.3724-43.882c-.1978-.247-.3832-.504-.5556-.77-.7109-1.085-1.1947-2.3-1.4226-3.574s-.1953-2.579.0958-3.84l12.6078-54.7276c.3268-1.4163.9719-2.7416 1.8873-3.8774.9154-1.1357 2.0776-2.0528 3.4003-2.6831zm-3.618 30.0356c2.563-.4708 5.2001-.7268 7.9032-.7268 24.0718 0 43.5948 19.5487 43.5948 43.6812 0 24.1329-19.515 43.6899-43.5948 43.6899-2.7031 0-5.3402-.256-7.9032-.727-.0906-.017-.1813.058-.1813.157v9.274c0 .223-.1813.397-.3955.397h-9.8646c-.2225 0-.3955-.182-.3955-.397v-12.834c0-.058-.033-.116-.0907-.14-14.6443-7.045-24.7642-22.043-24.7642-39.4117 0-17.3684 10.1199-32.3748 24.7642-39.4113.0577-.0248.0907-.0826.0907-.1404v-12.8343c0-.223.1813-.3964.3955-.3964h9.8646c.2225 0 .3955.1817.3955.3964v9.2664c0 .0992.0824.1735.1813.157zm-11.0841 15.5184c-8.6614 6.0455-14.3477 16.0883-14.3477 27.4442 0 11.3557 5.6863 21.4067 14.3477 27.4447.1071.074.2554 0 .2554-.133v-54.6238c0-.1321-.1483-.2064-.2554-.1321zm11.2077 59.9349c3.6261.875 7.4829 1.156 11.4715.718h.0083c16.0126-1.759 28.6376-15.072 29.5856-31.1935 1.137-19.334-14.233-35.4223-33.2776-35.4223-2.6866 0-5.2907.3221-7.7878.925-.1813.0413-.3049.2065-.3049.3881v64.1967c0 .181.1236.346.3049.388z" fill="#fff" fill-rule="evenodd"/></g><path d="m227.738 106.321c-2.728 0-5.096-.51-7.101-1.529-1.973-1.052-3.502-2.532-4.587-4.438-1.052-1.9402-1.578-4.2581-1.578-6.954h6.116c0 2.4987.608 4.422 1.824 5.77 1.25 1.315 3.009 1.973 5.277 1.973 1.907 0 3.419-.428 4.537-1.2826 1.151-.8548 1.726-2.0549 1.726-3.6001 0-1.1178-.345-1.9891-1.035-2.6137-.658-.6576-1.562-1.2001-2.713-1.6275-1.118-.4274-2.351-.8055-3.698-1.1343-1.348-.3616-2.696-.7561-4.044-1.1835-1.348-.4603-2.598-1.0521-3.748-1.7754-1.118-.7233-2.022-1.6603-2.713-2.811-.69-1.1836-1.035-2.6795-1.035-4.4878 0-1.9069.509-3.6001 1.528-5.0796 1.02-1.4795 2.45-2.6466 4.291-3.5014 1.841-.8877 3.994-1.3315 6.46-1.3315 2.367 0 4.504.4438 6.411 1.3315 1.94.8877 3.485 2.1535 4.636 3.7973 1.184 1.611 1.792 3.5837 1.825 5.918h-6.214c-.033-1.2494-.362-2.3015-.986-3.1563-.592-.8877-1.398-1.5616-2.417-2.0219-.986-.4603-2.071-.6905-3.255-.6905-1.677 0-3.074.411-4.192 1.2329-1.085.7891-1.627 1.9069-1.627 3.3535 0 1.0192.345 1.8247 1.036 2.4165.69.5918 1.594 1.085 2.712 1.4795 1.151.3617 2.4.7069 3.748 1.0357 1.348.3287 2.68.7233 3.995 1.1835 1.348.4275 2.58 1.0357 3.698 1.8247 1.151.7562 2.072 1.759 2.762 3.0083.69 1.2494 1.036 2.8439 1.036 4.7837 0 2.0384-.559 3.814-1.677 5.326-1.085 1.512-2.581 2.696-4.488 3.551-1.907.822-4.077 1.233-6.51 1.233zm32.026-28.4063c2.4 0 4.504.6247 6.312 1.874 1.841 1.2165 3.288 2.8932 4.34 5.0303 1.052 2.137 1.578 4.5699 1.578 7.2988 0 2.6959-.526 5.1288-1.578 7.2987-1.052 2.1375-2.499 3.8305-4.34 5.0795-1.808 1.217-3.912 1.825-6.312 1.825-1.776 0-3.403-.345-4.882-1.036-1.447-.69-2.664-1.644-3.65-2.86v12.082h-5.868v-36.0005h5.622l.148 3.3535c.986-1.2165 2.219-2.1699 3.698-2.8603 1.48-.7233 3.124-1.085 4.932-1.085zm-1.381 23.5243c1.545 0 2.893-.411 4.044-1.233 1.151-.8223 2.038-1.9237 2.663-3.3046.658-1.4137.986-3.0083.986-4.7836 0-1.8083-.328-3.4029-.986-4.7837-.625-1.4137-1.512-2.5151-2.663-3.3042-1.151-.8219-2.499-1.2329-4.044-1.2329-1.611 0-3.058.4603-4.34 1.3809-1.282.9205-2.219 2.1863-2.811 3.7973v8.2358c.592 1.611 1.529 2.8932 2.811 3.847 1.282.92 2.729 1.381 4.34 1.381zm27.39 4.29v-27.2225h5.868v27.2225zm-9.617 0v-4.784h24.707v4.784zm3.501-22.4388v-4.7837h9.025v4.7837zm5.77-9.0742v-6.0166h6.412v6.0166zm40.36 31.513v-17.0141c0-1.7753-.493-3.1891-1.479-4.2411-.954-1.0521-2.203-1.5782-3.748-1.5782-1.776 0-3.387.6411-4.833 1.9234-1.414 1.2493-2.63 3.2713-3.65 6.0658l-.887-5.8686c1.085-2.4 2.564-4.1754 4.438-5.3261 1.874-1.1836 3.88-1.7754 6.017-1.7754 2.071 0 3.846.4439 5.326 1.3315 1.512.8549 2.663 2.0713 3.452 3.6494.822 1.5453 1.233 3.37 1.233 5.4741v17.3593zm-18.986 0v-27.2225h5.622l.246 5.7207v21.5018zm33.751 0v-34.4227h6.165v8.3345l-.494 6.559 5.031-5.8686 8.186-9.0249h7.496l-20.219 22.7348v11.6879zm20.17 0-11.885-19.036 5.277-3.1069 13.957 22.1429zm16.047-27.2225v17.0141c0 1.7753.477 3.1891 1.431 4.2412.986 1.0522 2.252 1.5782 3.797 1.5782 1.775 0 3.37-.625 4.784-1.8741 1.446-1.2823 2.679-3.3207 3.698-6.1152l.888 5.8686c-1.085 2.3997-2.564 4.1917-4.438 5.3757-1.874 1.15-3.88 1.726-6.017 1.726-2.071 0-3.863-.428-5.375-1.282-1.48-.888-2.631-2.105-3.453-3.65-.789-1.5779-1.183-3.4191-1.183-5.5232v-17.3593zm18.987 0v27.2225h-5.622l-.246-5.721v-21.5015zm21.916-.5918c2.433 0 4.553.6247 6.362 1.874 1.841 1.2165 3.287 2.8932 4.339 5.0303 1.052 2.137 1.578 4.5699 1.578 7.2988 0 2.6959-.526 5.1288-1.578 7.2987-1.052 2.1375-2.498 3.8305-4.339 5.0795-1.809 1.217-3.929 1.825-6.362 1.825-1.776 0-3.419-.362-4.932-1.085-1.512-.756-2.745-1.743-3.699-2.959l-.147 3.452h-5.573v-36.346h5.819v12.3784c.986-1.1836 2.219-2.1206 3.699-2.8111 1.479-.6904 3.09-1.0356 4.833-1.0356zm-1.381 23.5243c1.545 0 2.893-.411 4.044-1.233 1.151-.8223 2.055-1.9237 2.712-3.3046.658-1.4137.987-3.0083.987-4.7836 0-1.8083-.329-3.4029-.987-4.7837-.657-1.4137-1.561-2.5151-2.712-3.3042-1.151-.8219-2.499-1.2329-4.044-1.2329-1.611 0-3.058.4767-4.34 1.4302-1.282.9205-2.219 2.2028-2.811 3.8466v8.0386c.592 1.611 1.529 2.9096 2.811 3.8956 1.282.954 2.729 1.431 4.34 1.431zm32.42 4.882c-2.86 0-5.326-.559-7.398-1.677-2.071-1.151-3.665-2.795-4.783-4.9316-1.085-2.137-1.628-4.685-1.628-7.644 0-2.9589.559-5.4905 1.677-7.5946 1.118-2.1371 2.729-3.7645 4.833-4.8823 2.104-1.1179 4.619-1.6768 7.545-1.6768 4.538 0 7.875 1.2658 10.012 3.7973 2.17 2.5316 3.107 6.0002 2.811 10.4058h-22.193l.05-4.2906 16.126.0494c-.131-1.5782-.822-2.8439-2.071-3.7974-1.25-.9534-2.828-1.4301-4.735-1.4301-2.695 0-4.734.8383-6.115 2.5151-1.381 1.6767-2.071 4.0603-2.071 7.1508 0 1.7754.312 3.37.937 4.7837.625 1.3808 1.512 2.4658 2.663 3.2553 1.184.756 2.63 1.134 4.34 1.134 1.94 0 3.551-.46 4.833-1.381 1.315-.9206 2.12-2.1535 2.416-3.6987h5.918c-.394 3.0576-1.775 5.4737-4.142 7.2497-2.335 1.775-5.343 2.663-9.025 2.663z" fill="#fff"/></svg>