<?xml version="1.0" encoding="utf-8"?>
<!-- Generator: Adobe Illustrator 21.1.0, SVG Export Plug-In . SVG Version: 6.00 Build 0)  -->
<svg version="1.1" id="Layer_1" xmlns="http://www.w3.org/2000/svg" xmlns:xlink="http://www.w3.org/1999/xlink" x="0px" y="0px"
	 viewBox="0 0 687.9 326.4" style="enable-background:new 0 0 687.9 326.4;" xml:space="preserve">
<style type="text/css">
	.st0{fill:#FFFFFF;}
	.st1{opacity:0.9;fill:#FFFFFF;}
	.st2{opacity:0.8;fill:#FFFFFF;}
	.st3{opacity:0.6;fill:#FFFFFF;}
	.st4{opacity:0.7;fill:#FFFFFF;}
	.st5{opacity:0.5;fill:#FFFFFF;}
</style>
<g>
	<polygon class="st0" points="65,114.9 65,114.9 65,114.9 65,114.9 	"/>
	<polygon class="st0" points="201.1,197 201.1,196.8 212.3,131.6 	"/>
	<polygon class="st0" points="281.6,131.4 245.4,196.8 177,320.7 177.1,320.7 245.5,196.8 281.6,131.4 321.2,59.7 281.6,131.4 	"/>
	<polygon class="st0" points="282.9,3.2 271.3,24.4 282.9,3.2 	"/>
	<polygon class="st0" points="65,114.9 109.3,67.3 65,114.9 	"/>
	<polygon class="st0" points="74.4,132.1 74.4,132.1 123.4,93.2 	"/>
	<polygon class="st0" points="74.4,132.1 71.1,126.2 74.4,132.1 109.3,196.1 114.9,206.6 109.3,196.1 	"/>
	<polygon class="st0" points="86.6,109.5 109.3,67.3 123.4,93.2 150.7,143.6 123.4,93.2 109.3,67.3 74.3,3.2 74.3,3.2 109.3,67.3 	
		"/>
	<polygon class="st0" points="188.7,213.6 188.9,213.9 195.5,226 	"/>
	<polygon class="st0" points="235.1,90.2 212.3,131.6 186.9,178.3 212.3,131.6 	"/>
	<polygon class="st1" points="144.1,260.3 177,320.7 195.2,227.5 	"/>
	<polygon class="st2" points="195.5,226 188.9,213.9 166.4,172.5 144.1,260.3 195.2,227.5 	"/>
	<polygon class="st3" points="109.3,196.1 114.9,206.6 144.1,260.3 166.4,172.5 	"/>
	<polygon class="st1" points="109.3,196.1 166.4,172.5 150.7,143.6 123.4,93.2 	"/>
	<polygon class="st3" points="201.1,197 212.3,131.6 186.9,178.3 178.2,194.3 188.7,213.6 195.5,226 	"/>
	<polygon class="st4" points="74.4,132.1 109.3,196.1 123.4,93.2 	"/>
	<polygon class="st1" points="245.4,196.8 281.6,131.4 201.1,196.8 	"/>
	<polygon class="st3" points="109.3,67.3 86.6,109.5 74.4,132.1 123.4,93.2 	"/>
	<polygon class="st5" points="201.1,196.8 247.5,67.7 235.1,90.2 212.3,131.6 	"/>
	<polygon class="st1" points="74.4,132.1 86.6,109.5 109.3,67.3 65,114.9 65,114.9 71.1,126.2 74.4,132.1 	"/>
	<polygon class="st2" points="281.6,131.4 247.5,67.7 247.5,67.7 201.1,196.8 	"/>
	<polygon class="st2" points="65,114.9 109.3,67.3 74.3,3.2 74.3,3.1 74.3,3.1 65,114.9 	"/>
	<polygon class="st4" points="281.6,131.4 282.9,3.2 282.9,3.1 282.9,3.2 271.3,24.4 247.5,67.7 247.5,67.7 281.6,131.4 	"/>
	<polygon class="st3" points="74.3,3.1 4.5,3.1 65,114.9 65,114.9 	"/>
	<polygon class="st0" points="282.9,3.1 282.9,3.2 281.6,131.4 321.2,59.7 352.4,3.1 	"/>
	<polygon class="st0" points="201.1,196.8 201.1,197 195.5,226 195.2,227.5 177,320.7 177,320.7 245.4,196.8 	"/>
	<g>
		<rect x="282.8" y="214.8" class="st0" width="27.1" height="100.3"/>
		<rect x="282.8" y="170.5" class="st0" width="27.1" height="20.3"/>
		<path class="st0" d="M377.2,295.5c-1.1,0.2-2.3,0.2-3.7,0.2c-2.7,0-4.8-0.8-6.4-2.5c-1.6-1.7-2.5-4.4-2.5-8.3v-51.1h17v-19h-17
			v-24.6h-27v24.6H323v19h14.6V285c0,11.1,2.5,19.2,7.6,24.4c5,5.1,12.2,7.7,21.6,7.7c3,0,5.8-0.2,8.4-0.7c2.6-0.5,5.2-1.2,7.9-2.1
			l-2.2-19.6C379.4,295.1,378.2,295.4,377.2,295.5z"/>
		<path class="st0" d="M439.9,213c-14.3-0.1-25.5,4.7-33.6,14.3c-8.2,9.6-12.2,21.9-12.2,36.9v3.7c0,14.5,4.2,26.3,12.6,35.5
			c8.4,9.2,20.1,13.8,35,13.8c8.1,0,15.6-1.1,22.4-3.3c6.9-2.2,12.3-5,16.3-8.3l-7.3-16.7c-4.5,2.5-8.9,4.4-13.1,5.7
			c-4.2,1.2-9.4,1.9-15.4,1.9c-7.4,0-12.9-2.1-16.6-6.4c-3.7-4.3-5.8-9.8-6.3-16.7l0.3-0.6h59.8v-14c0-14-3.6-25.1-10.8-33.3
			C463.8,217.1,453.4,213,439.9,213z M455.2,254.8h-33l-0.2-0.5c0.6-6.2,2.4-11.1,5.3-14.9c2.9-3.7,7.1-5.6,12.6-5.6
			c5.4,0,9.3,1.7,11.7,5.1c2.4,3.4,3.6,8,3.6,13.9V254.8z"/>
		<path class="st0" d="M568.9,266.5c-6-4.8-15.2-8.4-27.5-10.9c-8-1.5-13.4-3.3-16-5.2c-2.6-1.9-3.9-4.5-3.9-7.6
			c0-3.2,1.3-5.8,3.8-8c2.5-2.2,6-3.2,10.3-3.2c4.9,0,8.6,1.3,11.2,3.8c2.6,2.5,3.9,5.8,3.9,9.8h26.1l0.2-0.6
			c0.3-9-3.4-16.6-11-22.6c-7.6-6.1-17.8-9.1-30.4-9.1c-12.1,0-21.8,3-29.1,9.1c-7.3,6.1-10.9,13.4-10.9,22c0,8.2,3,14.6,9.1,19.4
			c6.1,4.8,15,8.3,26.7,10.7c7.8,1.6,13.1,3.5,16,5.6c2.9,2.1,4.3,4.7,4.3,7.6c0,3.5-1.3,6.2-3.9,8.2c-2.6,2-6.4,3-11.4,3
			c-5.4,0-9.7-1.2-13.1-3.6c-3.3-2.4-5.1-6.3-5.3-11.7h-24.7l-0.2,0.6c-0.4,8.7,3.3,16.4,11.1,23.1c7.8,6.8,18.3,10.2,31.7,10.2
			c12.7,0,22.9-2.9,30.6-8.6c7.7-5.7,11.6-13.1,11.6-22.2C578,277.9,575,271.3,568.9,266.5z"/>
		<path class="st0" d="M666.8,266.5c-6-4.8-15.2-8.4-27.5-10.9c-8-1.5-13.4-3.3-16-5.2c-2.6-1.9-3.9-4.5-3.9-7.6
			c0-3.2,1.3-5.8,3.8-8c2.5-2.2,6-3.2,10.3-3.2c4.9,0,8.6,1.3,11.2,3.8c2.6,2.5,3.9,5.8,3.9,9.8h26.1l0.2-0.6
			c0.3-9-3.4-16.6-11-22.6c-7.6-6.1-17.8-9.1-30.4-9.1c-12.1,0-21.8,3-29.1,9.1c-7.3,6.1-10.9,13.4-10.9,22c0,8.2,3,14.6,9.1,19.4
			c6.1,4.8,15,8.3,26.7,10.7c7.8,1.6,13.1,3.5,16,5.6c2.9,2.1,4.3,4.7,4.3,7.6c0,3.5-1.3,6.2-3.9,8.2c-2.6,2-6.4,3-11.4,3
			c-5.4,0-9.7-1.2-13.1-3.6c-3.3-2.4-5.1-6.3-5.3-11.7h-24.7l-0.2,0.6c-0.4,8.7,3.3,16.4,11.1,23.1c7.8,6.8,18.3,10.2,31.7,10.2
			c12.7,0,22.9-2.9,30.6-8.6c7.7-5.7,11.6-13.1,11.6-22.2C675.8,277.9,672.8,271.3,666.8,266.5z"/>
	</g>
</g>
</svg>
