<?xml version="1.0" encoding="utf-8"?>
<!-- Generator: Adobe Illustrator 21.1.0, SVG Export Plug-In . SVG Version: 6.00 Build 0)  -->
<svg version="1.1" id="Layer_1" xmlns="http://www.w3.org/2000/svg" xmlns:xlink="http://www.w3.org/1999/xlink" x="0px" y="0px"
	 viewBox="0 0 360 360" style="enable-background:new 0 0 360 360;" xml:space="preserve">
<style type="text/css">
	.st0{fill:none;}
	.st1{opacity:0.5;fill:#FFFFFF;}
	.st2{fill:#FFFFFF;}
	.st3{opacity:0.8;fill:#FFFFFF;}
	.st4{fill:url(#SVGID_1_);}
	.st5{fill:url(#SVGID_2_);}
	.st6{fill:url(#SVGID_3_);}
	.st7{fill:url(#SVGID_4_);}
	.st8{fill:url(#SVGID_5_);}
	.st9{fill:url(#SVGID_6_);}
	.st10{fill:url(#SVGID_7_);}
	.st11{fill:url(#SVGID_8_);}
	.st12{fill:url(#SVGID_9_);}
	.st13{fill:url(#SVGID_10_);}
</style>
<g>
	<polygon class="st0" points="272.2573242,184.4776154 269.3039551,182.2898865 267.2199097,185.0686188 266.3598633,192.2847595 	
		"/>
	<polygon class="st0" points="277.0703125,190.1656494 274.1168823,187.9779053 265.5230103,199.3062439 264.6412659,206.7042542 	
		"/>
	<path class="st0" d="M194.484436,325.6940002l-2.6252441-4.7035828c-0.9844513-1.7501221-3.5003357-3.1721497-5.5786591-3.1721497
		H175.34198c-2.0783234,0-4.7035675,1.3126526-6.0161591,2.9534302l-4.156662,5.2504883
		c-1.3126373,1.6407776-3.9378815,3.1721497-6.0162048,3.5003357l-2.2228088,0.3138123l0.3632965,10.76297
		c0,0.4863586-0.1663971,0.9504395-0.4375458,1.3360596v0.7488098c6.6231689-0.2870789,13.7680206-0.4440918,21.2207336-0.4440918
		c8.8714294,0,17.3025513,0.2232666,24.9398499,0.6230469v-0.7871704c-0.335907-0.4095764-0.5469208-0.928833-0.5469208-1.4766541
		l0.3653412-10.8225708l-2.8812103-0.3636169C197.8753662,329.1943359,195.4688873,327.4441833,194.484436,325.6940002z"/>
	<polygon class="st0" points="77.5515823,201.3229218 91.0845718,219.3305817 90.2064743,211.9235992 80.5049591,199.1352386 	"/>
	<path class="st0" d="M155.9622345,342.7024841c-0.0063629,0.0079651-0.0131531,0.0155945-0.0195923,0.0235291
		c0.2040253-0.0093079,0.4035492-0.0196228,0.6085968-0.028656c-0.0454407-0.0916138-0.1049957-0.1785278-0.1598053-0.2680054
		C156.2577209,342.5352783,156.1163025,342.6302795,155.9622345,342.7024841z"/>
	<path class="st0" d="M203.2511597,342.875824c0.2815247,0.0148926,0.5618439,0.0300598,0.8411865,0.0454407
		c-0.0480042-0.0531616-0.0912628-0.1090698-0.1365204-0.1639099c-0.1820526-0.0684814-0.3571777-0.1530762-0.514267-0.2674255
		C203.3670654,342.6171265,203.3064423,342.7450256,203.2511597,342.875824z"/>
	<polygon class="st0" points="87.7149429,190.9061584 87.570076,189.6843567 87.0680771,190.0562439 	"/>
	<polygon class="st0" points="82.3645096,195.634903 89.3758011,204.9165192 88.5227203,197.7202606 85.3179321,193.4472046 	"/>
	<path class="st1" d="M226.8624878,348.4750671l-9.7353058-2.2971191l-10.0634613-1.6407776
		c-1.163559-0.17453-2.223877-0.7889099-2.9713745-1.6159058c-0.2793427-0.0153809-0.5596619-0.0305481-0.8411865-0.0454407
		c-0.1408844,0.3331299-0.2346802,0.6725769-0.2346802,1.0050354v-1.0177307
		c-7.6372986-0.3997803-16.0684204-0.6230469-24.9398499-0.6230469c-7.452713,0-14.5975647,0.1570129-21.2207336,0.4440918
		v1.1966858c0-0.3917236-0.11203-0.7951355-0.304657-1.1835022c-0.2050476,0.0090332-0.4045715,0.0193481-0.6085968,0.028656
		c-0.7499847,0.9250488-1.8813782,1.62323-3.1339874,1.8111572l-10.0634613,1.6407776l-9.735321,2.2971191
		c-2.1876831,0.5469055-4.0472412-0.8751221-4.0472412-3.1722107v-0.1907349
		c-8.2177734,1.2605896-13.1262436,2.8443298-13.1262436,4.5661316c0,4.1080017,27.8659134,7.4382019,62.240242,7.4382019
		s62.2402496-3.3302002,62.2402496-7.4382019c0-1.4454956-3.4616394-2.7937317-9.4316864-3.9354248
		C230.6633301,347.7775574,228.9066772,348.986084,226.8624878,348.4750671z"/>
	<path class="st2" d="M77.5515823,201.3229218l2.9533768-2.1876831l9.7015152,12.7883606l-0.8306732-7.0070801l-7.0112915-9.2816162
		l2.9534225-2.1876984l3.2047882,4.273056l-0.8077774-6.8141022l-0.6468658-0.8499146l0.5019989-0.3718872l-2.8769913-24.2687836
		c-12.1042938-2.247345-20.9240685-12.5025482-20.9240685-25.8952942v-1.7242432
		c-12.2040062,2.4234924-25.8653755,11.8495789-25.2679787,25.7889404
		c0.9844589,22.6427917,47.0356674,73.9444733,47.0356674,73.9444733l5.5598984-18.0970764l-0.0120316-0.1017914
		L77.5515823,201.3229218z"/>
	<path class="st2" d="M293.0405579,127.1459503v12.3743286c0,14.3334961-10.1012268,25.0759735-23.5206909,26.2507935
		l-2.2999573,19.2975464l2.0840454-2.7787323l2.9533691,2.1877289l-5.8974609,7.8071442l-0.836853,7.0214844l8.5938721-11.3283386
		l2.9534302,2.1877441l-12.4290466,16.5386047l-0.4468079,3.7491302l4.8907166,15.9187927
		c0,0,46.051239-50.9735565,47.035675-73.9444733C316.6827698,139.3166351,304.6300964,130.2001495,293.0405579,127.1459503z"/>
	<path class="st2" d="M156.2781372,342.2550659c0.3567047-0.5794983,0.5777588-1.2180481,0.5777588-1.8745422v1.5548401
		c0.2711487-0.3856201,0.4375458-0.8497009,0.4375458-1.3360596l-0.3632965-10.76297l-14.8205566,2.0923157l0.2852631,8.4518738
		h10.3043976C154.2337189,340.3805237,155.5580444,341.2150269,156.2781372,342.2550659z"/>
	<path class="st2" d="M144.7141113,343.2245178c-1.2032318,0-2.2971039-0.984436-2.2971039-2.1876831l-0.0221558-0.656311
		h-9.3849792c-2.2970428,0-4.156601,1.8595581-4.156601,4.1566467h0.1093597v0.5749512
		c5.4928741-0.8425598,12.4656982-1.5397034,20.4579163-2.0361938L144.7141113,343.2245178z"/>
	<path d="M155.8916168,342.7283936c0.0171204-0.0007629,0.033905-0.0015869,0.0510254-0.0023804
		c0.0064392-0.0079346,0.0132294-0.015564,0.0195923-0.0235291
		C155.9395294,342.7131653,155.9147034,342.7185364,155.8916168,342.7283936z"/>
	<path class="st2" d="M133.0098724,348.4750671l9.735321-2.2971191l10.0634613-1.6407776
		c1.2526093-0.1879272,2.3840027-0.8861084,3.1339874-1.8111572c-0.0171204,0.0007935-0.033905,0.0016174-0.0510254,0.0023804
		c-0.244873,0.1042786-0.5084076,0.1679993-0.7859039,0.1679993l-5.6851654,0.1795349
		c-7.992218,0.4964905-14.9650421,1.193634-20.4579163,2.0361938v0.1907349
		C128.9626312,347.5999451,130.8221893,349.0219727,133.0098724,348.4750671z"/>
	<path class="st2" d="M144.7141113,343.2245178l4.7064362-0.1485901c2.0910797-0.1298828,4.2494812-0.2461853,6.4710693-0.3475342
		c0.0230865-0.0098572,0.0479126-0.0152283,0.0706177-0.0259094c0.1156158-0.1445618,0.2205658-0.2926331,0.3159027-0.4474182
		c-0.7200928-1.0400391-2.0444183-1.8745422-3.5788879-1.8745422h-10.3043976l0.0221558,0.656311
		C142.4170074,342.2400818,143.5108795,343.2245178,144.7141113,343.2245178z"/>
	<path class="st2" d="M202.4695587,340.5993042c0,0.547821,0.2110138,1.0670776,0.5469208,1.4766541v-1.6954346
		c0,0.6564941,0.2210541,1.2950439,0.5777435,1.8745422c0.720108-1.0400391,2.0444336-1.8745422,3.5789032-1.8745422h10.1949921
		l0.2947693-8.7322998l-14.8279877-1.8714905L202.4695587,340.5993042z"/>
	<path class="st2" d="M215.0488434,343.2245178l-10.3915863-0.328125c-0.246521,0-0.4798889-0.0556641-0.7014313-0.1390381
		c0.0452576,0.0548401,0.0885162,0.1107483,0.1365204,0.1639099c11.0693512,0.6097717,20.3822632,1.5956421,26.7928467,2.8215637
		c0.0155792-0.1428833,0.0245514-0.2892761,0.0245514-0.4399719v-0.765686h0.1093597
		c0-2.2970886-1.8595581-4.1566467-4.1566162-4.1566467h-9.4943695l-0.022171,0.656311
		C217.3459473,342.2400818,216.2520752,343.2245178,215.0488434,343.2245178z"/>
	<path class="st2" d="M207.0637207,344.5371704l10.0634613,1.6407776l9.7353058,2.2971191
		c2.0441895,0.5110168,3.8008423-0.6975098,4.0227051-2.7322388c-6.4105835-1.2259216-15.7234955-2.211792-26.7928467-2.8215637
		C204.8398438,343.7482605,205.9001617,344.3626404,207.0637207,344.5371704z"/>
	<path class="st2" d="M203.594223,342.2550659c0.1075745,0.1746826,0.2283325,0.3407898,0.3616028,0.5022888
		c0.2215424,0.083374,0.4549103,0.1390381,0.7014313,0.1390381l10.3915863,0.328125
		c1.2032318,0,2.2971039-0.984436,2.2971039-2.1876831l0.022171-0.656311h-10.1949921
		C205.6386566,340.3805237,204.3143311,341.2150269,203.594223,342.2550659z"/>
	<path class="st3" d="M264.6412659,206.7042542l0.8817444-7.3980103l-3.4384766,4.5325623l-1.3126221-4.156662l5.5879517-7.3973846
		l0.8600464-7.2161407l-7.7606201,10.3475037l-1.3125916-4.1566467l9.407135-12.3605194l-2.9534302-2.1876831l-7.7663574,10.2821808
		l-5.4692535-17.3922729c0,0,1.173111-1.9859772,2.9801025-5.0634613l-61.1730957-7.5158081
		c-8.2038574-0.9844666-21.4395142-0.9844666-29.5340118,0l-69.2988586,8.5141907
		c4.7501221,8.1664581,8.9181747,15.2224121,8.9181747,15.2224121l-5.4692459,17.3922119l-7.7663574-10.2821808
		l-2.4514236,1.8158112l0.1448669,1.2218018l8.7602692,11.5106354l-1.3125992,4.156662l-6.6398926-8.8531952l0.8530807,7.1962585
		l4.4741745,5.9229584l-1.312645,4.156601l-2.3308563-3.0724792l0.8780975,7.4069824l0.0307541,0.0409241l-0.0187225,0.0608673
		l1.8521805,15.6241302c5.7627106,3.9075623,30.9846649,18.8815308,75.3925705,15.9273376
		c47.1398926-3.2440338,88.54216-24.805603,94.3532562-27.9461365l1.4998474-12.5843201l-0.6879272-2.239151
		L264.6412659,206.7042542z M199.4067841,188.3060913l-19.4705963,41.6757812c-0.8750916,1.8595581-2.2971039,1.8595581-3.2815552,0
		l-21.3301544-41.6757812c-0.9844513-1.8595581-0.5469055-4.484787,0.8750916-5.9067993l18.486145-18.4861298
		c1.4219971-1.4220123,3.8284607-1.4220123,5.250473,0l18.3767242,18.3767242
		C199.7349091,183.7118835,200.2818756,186.4465332,199.4067841,188.3060913z"/>
	<path class="st3" d="M263.2878113,55.4029808c2.1669617,0,4.2782288,0.2388535,6.3146973,0.6807175
		C255.9400787,25.7760143,225.616394,5.3045249,188.0306702,5.3045249H166.263031
		c-37.9040527,0-68.4220734,20.8200436-81.9148102,51.5517464c2.8913422-0.9393539,5.9728012-1.453289,9.1735687-1.453289
		H263.2878113z"/>
	<polygon class="st2" points="95.1626129,206.5734558 96.4752121,202.4167938 87.7149429,190.9061584 88.5227203,197.7202606 	"/>
	<polygon class="st2" points="91.0845718,219.3305817 91.0966034,219.432373 91.1153259,219.3715057 	"/>
	<path class="st2" d="M84.6930847,165.4155731l2.8769913,24.2687836l2.4514236-1.8158112l7.7663574,10.2821808l5.4692459-17.3922119
		c0,0-4.1680527-7.055954-8.9181747-15.2224121l-1.0358658,0.1272583
		C90.3081207,166.0251465,87.4180374,165.9215088,84.6930847,165.4155731z"/>
	<polygon class="st2" points="92.5373306,214.9960785 93.8499756,210.8394775 89.3758011,204.9165192 90.2064743,211.9235992 	"/>
	<polygon class="st2" points="263.5065308,208.2142334 264.194458,210.4533844 264.6412659,206.7042542 	"/>
	<polygon class="st2" points="262.0845337,203.8388062 265.5230103,199.3062439 266.3598633,192.2847595 260.7719116,199.6821442 	
		"/>
	<path class="st2" d="M263.5065613,165.6633606l-9.1616669-1.1256409c-1.8069916,3.0774841-2.9801025,5.0634613-2.9801025,5.0634613
		l5.4692535,17.3922729l7.7663574-10.2821808l2.9534302,2.1876831l-9.407135,12.3605194l1.3125916,4.1566467l7.7606201-10.3475037
		l2.2999573-19.2975464C267.5778809,165.9410553,265.5670166,165.9122467,263.5065613,165.6633606z"/>
	<path d="M84.6930847,165.4155731l-2.526886-21.3156433c-0.3042755-0.5735779-0.57164-1.0879517-0.7861481-1.5169067
		c-2.4084015-4.9888306-9.7039413-6.3571625-17.6110344-4.7869873v1.7242432
		C63.7690163,152.9130249,72.5887909,163.1682281,84.6930847,165.4155731z"/>
	
		<radialGradient id="SVGID_1_" cx="-754.8405762" cy="511.7258606" r="2.9585438" gradientTransform="matrix(-38.7286987 45.0998993 -45.0999985 -38.7285995 -5976.7617188 53937.5195312)" gradientUnits="userSpaceOnUse">
		<stop  offset="0" style="stop-color:#FFFFFF"/>
		<stop  offset="1" style="stop-color:#FFFFFF"/>
	</radialGradient>
	<path class="st4" d="M84.6930847,165.4155731l-2.526886-21.3156433c-0.3042755-0.5735779-0.57164-1.0879517-0.7861481-1.5169067
		c-2.4084015-4.9888306-9.7039413-6.3571625-17.6110344-4.7869873v1.7242432
		C63.7690163,152.9130249,72.5887909,163.1682281,84.6930847,165.4155731z"/>
	<path d="M273.7112427,130.6038055l-4.1913757,35.1672668c13.4194641-1.1748199,23.5206909-11.9172974,23.5206909-26.2507935
		v-12.3743286C284.7848206,124.9703369,276.7692871,125.873558,273.7112427,130.6038055z"/>
	
		<radialGradient id="SVGID_2_" cx="-754.8405762" cy="511.7258606" r="2.9585438" gradientTransform="matrix(-38.7286987 45.0998993 -45.0999985 -38.7285995 -5976.7617188 53937.5195312)" gradientUnits="userSpaceOnUse">
		<stop  offset="0" style="stop-color:#FFFFFF"/>
		<stop  offset="1" style="stop-color:#FFFFFF"/>
	</radialGradient>
	<path class="st5" d="M273.7112427,130.6038055l-4.1913757,35.1672668
		c13.4194641-1.1748199,23.5206909-11.9172974,23.5206909-26.2507935v-12.3743286
		C284.7848206,124.9703369,276.7692871,125.873558,273.7112427,130.6038055z"/>
	<path class="st2" d="M154.4494324,104.2982101c0-1.9689713-1.2032776-2.6252441-3.390976-2.6252441h-2.2971039v5.5786209h2.2971039
		C153.3555603,107.2515869,154.4494324,106.267128,154.4494324,104.2982101z"/>
	
		<radialGradient id="SVGID_3_" cx="-754.8405762" cy="511.7258606" r="2.9585438" gradientTransform="matrix(-38.7286987 45.0998993 -45.0999985 -38.7285995 -5976.7617188 53937.5195312)" gradientUnits="userSpaceOnUse">
		<stop  offset="0" style="stop-color:#7F7F7F"/>
		<stop  offset="1" style="stop-color:#000000"/>
	</radialGradient>
	<path class="st6" d="M154.4494324,104.2982101c0-1.9689713-1.2032776-2.6252441-3.390976-2.6252441h-2.2971039v5.5786209h2.2971039
		C153.3555603,107.2515869,154.4494324,106.267128,154.4494324,104.2982101z"/>
	<path class="st2" d="M171.4041443,104.188797c0-1.8595581-1.2032318-2.4064636-3.3909607-2.4064636h-2.0783386v5.1411133h2.0783386
		C170.2009125,106.9234467,171.4041443,105.9389877,171.4041443,104.188797z"/>
	
		<radialGradient id="SVGID_4_" cx="-754.8405762" cy="511.7258606" r="2.9585438" gradientTransform="matrix(-38.7286987 45.0998993 -45.0999985 -38.7285995 -5976.7617188 53937.5195312)" gradientUnits="userSpaceOnUse">
		<stop  offset="0" style="stop-color:#7F7F7F"/>
		<stop  offset="1" style="stop-color:#000000"/>
	</radialGradient>
	<path class="st7" d="M171.4041443,104.188797c0-1.8595581-1.2032318-2.4064636-3.3909607-2.4064636h-2.0783386v5.1411133h2.0783386
		C170.2009125,106.9234467,171.4041443,105.9389877,171.4041443,104.188797z"/>
	<path class="st2" d="M84.6930847,165.4155731c2.7249527,0.5059357,5.615036,0.6095734,8.6099777,0.2477875l1.0358658-0.1272583
		c-4.5943527-7.8986664-9.728241-16.8281403-12.1727295-21.4361725L84.6930847,165.4155731z"/>
	
		<radialGradient id="SVGID_5_" cx="-754.8405762" cy="511.7258606" r="2.9585438" gradientTransform="matrix(-38.7286987 45.0998993 -45.0999985 -38.7285995 -5976.7617188 53937.5195312)" gradientUnits="userSpaceOnUse">
		<stop  offset="0" style="stop-color:#FFFFFF"/>
		<stop  offset="1" style="stop-color:#FFFFFF"/>
	</radialGradient>
	<path class="st8" d="M84.6930847,165.4155731c2.7249527,0.5059357,5.615036,0.6095734,8.6099777,0.2477875l1.0358658-0.1272583
		c-4.5943527-7.8986664-9.728241-16.8281403-12.1727295-21.4361725L84.6930847,165.4155731z"/>
	<path class="st2" d="M273.2418518,131.4257355c-2.7749939,5.5500031-13.5856628,24.0662079-18.8969574,33.1119843
		l9.1616669,1.1256409c2.0604553,0.2488861,4.0713196,0.2776947,6.0133057,0.1077118l4.1913757-35.1672668
		C273.5409241,130.8672943,273.3805542,131.1383972,273.2418518,131.4257355z"/>
	
		<radialGradient id="SVGID_6_" cx="-754.8405762" cy="511.7258606" r="2.9585438" gradientTransform="matrix(-38.7286987 45.0998993 -45.0999985 -38.7285995 -5976.7617188 53937.5195312)" gradientUnits="userSpaceOnUse">
		<stop  offset="0" style="stop-color:#FFFFFF"/>
		<stop  offset="1" style="stop-color:#FFFFFF"/>
	</radialGradient>
	<path class="st9" d="M273.2418518,131.4257355c-2.7749939,5.5500031-13.5856628,24.0662079-18.8969574,33.1119843
		l9.1616669,1.1256409c2.0604553,0.2488861,4.0713196,0.2776947,6.0133057,0.1077118l4.1913757-35.1672668
		C273.5409241,130.8672943,273.3805542,131.1383972,273.2418518,131.4257355z"/>
	<ellipse class="st2" cx="83.8959122" cy="77.3893967" rx="5.2505021" ry="5.359889"/>
	<path class="st2" d="M218.1678925,316.6872559l-0.5050049,14.960968l4.824173,0.6088867
		c2.0783386,0.3281555,4.4848022-0.984436,5.359848-2.8439941l7.9851685-16.0796814l1.0938263-0.4375305
		c10.2822266-4.5941772,21.9864807-16.8453064,26.0337219-27.3463135c0,0,2.8439941-2.9534302,4.5941467-19.4705505
		c1.7501831-16.5172119-4.1566162-43.4259644-4.1566162-43.4259644s-0.2434387,0.1365204-0.7025452,0.3846283l-6.4074707,53.7610626
		C253.9600067,296.6762085,237.6200104,313.1902771,218.1678925,316.6872559z"/>
	<path class="st2" d="M159.1529541,329.522522c2.0783234-0.328186,4.7035675-1.8595581,6.0162048-3.5003357l4.156662-5.2504883
		c1.3125916-1.6407776,3.9378357-2.9534302,6.0161591-2.9534302h10.9385529c2.0783234,0,4.5942078,1.4220276,5.5786591,3.1721497
		l2.6252441,4.7035828c0.9844513,1.7501831,3.3909302,3.5003357,5.4692535,3.7191162l2.8812103,0.3636169l0.4184418-12.3959961
		h-46.7436676l0.4204712,12.4555969L159.1529541,329.522522z"/>
	<path class="st2" d="M97.8972168,276.7987671l-4.9484329-41.7422638c-0.8520126-0.5777588-1.286499-0.9179688-1.286499-0.9179688
		l-1.8596039,16.1889801c-1.3125992,11.1573181,1.0938644,28.7683105,5.2505264,39.2693176l1.0938187,2.7346497
		c2.9534225,7.5475769,11.7042389,15.9702454,19.4705887,18.81427l9.7352753,3.5003357
		c1.9689636,0.656311,4.2660217,2.7346497,5.1411133,4.5942078l4.812973,10.063446
		c0.8751068,1.8595581,3.1721497,3.1721497,5.2504883,2.8440247l1.552124-0.2191162l-0.4927368-14.598114
		C119.8866882,316.2948608,100.5505829,298.5560913,97.8972168,276.7987671z"/>
	<path class="st2" d="M156.5096741,317.3807373h-12.8893738c-0.6699066,0-1.3376312-0.0184937-2.0034485-0.0502014
		l0.4927368,14.598114l14.8205566-2.0923157L156.5096741,317.3807373z"/>
	<path class="st2" d="M210.5640564,317.3807373h-7.3107147l-0.4184418,12.3959961l14.8279877,1.8714905l0.5050049-14.960968
		C215.6758728,317.1352234,213.1354065,317.3807373,210.5640564,317.3807373z"/>
	<path class="st2" d="M223.9090729,257.4375916c0.4375458-0.1094055,0.6563263-0.328186,0.765686-0.5469055
		c0.1094055-0.2187805,0-0.656311-0.1093597-1.0938721c-0.1094208-0.5469055-0.328186-0.8750916-0.5469666-0.9844513
		c-0.2187653-0.2187805-0.5469055-0.2187805-0.8750916-0.1094208l-2.0782776,0.5469666l0.765686,2.7345886L223.9090729,257.4375916z
		"/>
	<path class="st2" d="M92.9487839,235.0565033l4.9484329,41.7422638
		c2.6533661,21.7573242,21.9894714,39.4960938,43.719635,40.5317688l-0.0748901-2.2179871
		c0-1.2033081,0.9844666-2.2971191,2.1876984-2.2971191l10.3915863-0.328186c1.2032318,0,2.2971039,0.9844666,2.2971039,2.1876831
		l0.0913239,2.7058105h46.7436676l0.0913239-2.7058105c0-1.2032166,1.093811-2.1876831,2.2970428-2.1876831l10.3916473,0.328186
		c1.2032318,0,2.1876831,1.093811,2.1876831,2.2971191l-0.0531464,1.574707
		c19.4521179-3.4969788,35.7921143-20.0110474,38.1192474-39.8884888l6.4074707-53.7610626
		c-5.8110962,3.1405334-47.2133636,24.7021027-94.3532562,27.9461365
		C123.9334488,253.9380341,98.7114944,238.9640656,92.9487839,235.0565033z M247.4269104,244.7488556l3.6096954-0.9844208
		l3.719101,13.8919373l-3.719101,0.9844666l-2.7346039-10.3916016l-2.0783234,0.9844513l-0.6563263-2.2971039
		L247.4269104,244.7488556z M243.4890289,245.8427734l1.3126373,1.2032318l-0.9844513,13.563797l-3.9378815,1.093811
		l0.8750916-11.5948181l-5.4692535,1.4219971l-0.8750916-3.2815552L243.4890289,245.8427734z M235.6133118,255.2499084
		l0.765686,2.9533691l-5.9067993,1.6407776l-0.765686-2.9533691L235.6133118,255.2499084z M222.7058411,251.312027
		c1.3126373-0.3281403,2.5158691-0.3281403,3.390976,0.2187653c0.8750458,0.5469055,1.6407776,1.5313721,2.0782776,3.1721497
		c0.4375458,1.5314331,0.4375458,2.7346497,0.2187653,3.3909607c-0.2187653,0.3281555-0.328125,0.546936-0.4375458,0.765686
		c-0.1093597,0.2187805-0.3281403,0.3281555-0.6563263,0.546936l3.8285217,4.5941772l-4.1566467,1.0938416l-3.0627899-4.3753967
		h-1.2032318l1.4219971,5.1411133l-3.9378815,0.9844666l-3.7190552-13.891922L222.7058411,251.312027z M206.4074402,256.6719055
		c0.5469208-0.765686,1.3126068-1.4219971,2.4064636-1.7501831c0.4375-0.2187805,0.9844666-0.3281403,1.4220123-0.4375458
		c1.7501373-0.4375,3.2815552-0.6563263,4.594162-0.5469208l0.765686,2.8440247
		c-1.2032318,0.2187805-2.7346039,0.546936-4.594162,0.984436c-0.5469055,0.109436-0.8750916,0.328186-1.0938721,0.437561
		c-0.2187653,0.109375-0.2187653,0.437561-0.1093597,0.765686l0.1093597,0.2187805
		c0.1094208,0.328186,0.2187805,0.5469055,0.4375458,0.656311c0.2187805,0.1094055,0.5469208,0.1094055,0.9844666,0
		l1.7501831-0.4375305c1.5313721-0.4375,2.7346039,0,3.6096954,1.0938416c0.437561,0.546936,0.765686,1.2032471,0.9844666,1.9689331
		l0.2187653,0.656311c0.765686,2.8440857-0.1094055,4.5942078-2.7346497,5.2505493
		c-1.8594971,0.5469055-3.0627747,0.765686-3.6096954,0.8750305c-0.5469055,0.1094055-1.4219971,0.1094055-2.4064636,0
		l-0.765686-2.8440247c1.4220123-0.21875,3.0627899-0.5469055,4.922348-1.093811
		c0.4375-0.1094055,0.6562653-0.2187805,0.765686-0.4375305c0.1093597-0.2187805,0.2187653-0.437561,0.1093597-0.6563416
		l-0.1093597-0.328125c-0.1094208-0.328186-0.2187805-0.437561-0.328186-0.5469666c-0.2187805-0.109375-0.4375-0.109375-0.8750916,0
		l-1.7501526,0.437561c-0.6563263,0.21875-1.3126373,0.21875-1.8595581,0.1094055
		c-0.5469055-0.1094055-0.9844513-0.2187805-1.3125916-0.5469666c-0.328186-0.2187805-0.6563263-0.5469055-0.8750916-0.8750916
		c-0.2187195-0.437561-0.5469055-0.9844666-0.6562805-1.6407776l-0.328186-1.2032471
		C205.7511292,258.4220581,205.8604889,257.4375916,206.4074402,256.6719055z"/>
	<path class="st2" d="M156.5096741,317.3807373l-0.0913239-2.7058105c0-1.2032166-1.0938721-2.1876831-2.2971039-2.1876831
		l-10.3915863,0.328186c-1.2032318,0-2.1876984,1.093811-2.1876984,2.2971191l0.0748901,2.2179871
		c0.6658173,0.0317078,1.3335419,0.0502014,2.0034485,0.0502014H156.5096741z"/>
	<path class="st2" d="M218.1678925,316.6872559l0.0531464-1.574707c0-1.2033081-0.9844513-2.2971191-2.1876831-2.2971191
		l-10.3916473-0.328186c-1.2032318,0-2.2970428,0.9844666-2.2970428,2.1876831l-0.0913239,2.7058105h7.3107147
		C213.1354065,317.3807373,215.6758728,317.1352234,218.1678925,316.6872559z"/>
	<radialGradient id="SVGID_7_" cx="169.1070404" cy="107.6891556" r="8.3713646" gradientUnits="userSpaceOnUse">
		<stop  offset="0" style="stop-color:#FFFFFF"/>
		<stop  offset="1" style="stop-color:#FFFFFF"/>
	</radialGradient>
	<path class="st10" d="M168.0131836,101.7823334h-2.0783386v5.1411133h2.0783386
		c2.1877289,0,3.3909607-0.9844589,3.3909607-2.7346497C171.4041443,102.3292389,170.2009125,101.7823334,168.0131836,101.7823334z"
		/>
	<radialGradient id="SVGID_8_" cx="151.6053925" cy="107.5797653" r="8.1680784" gradientUnits="userSpaceOnUse">
		<stop  offset="0" style="stop-color:#FFFFFF"/>
		<stop  offset="1" style="stop-color:#FFFFFF"/>
	</radialGradient>
	<path class="st11" d="M151.0584564,101.672966h-2.2971039v5.5786209h2.2971039c2.2971039,0,3.390976-0.9844589,3.390976-2.9533768
		C154.4494324,102.3292389,153.2461548,101.672966,151.0584564,101.672966z"/>
	
		<radialGradient id="SVGID_9_" cx="-754.8405762" cy="511.7258606" r="2.9585438" gradientTransform="matrix(-38.7286987 45.0998993 -45.0999985 -38.7285995 -5976.7617188 53937.5195312)" gradientUnits="userSpaceOnUse">
		<stop  offset="0" style="stop-color:#FFFFFF"/>
		<stop  offset="1" style="stop-color:#FFFFFF"/>
	</radialGradient>
	<path class="st12" d="M269.6025085,56.0836983c6.536499,14.500042,9.2635498,31.2490807,7.139679,49.0895576l-3.0309448,25.4305496
		c3.0580444-4.7302475,11.0735779-5.6334686,19.3293152-3.4578552V85.1557541
		C293.0405579,70.914978,282.9855042,58.9874115,269.6025085,56.0836983z"/>
	
		<radialGradient id="SVGID_10_" cx="-754.8405762" cy="511.7258606" r="2.9585438" gradientTransform="matrix(-38.7286987 45.0998993 -45.0999985 -38.7285995 -5976.7617188 53937.5195312)" gradientUnits="userSpaceOnUse">
		<stop  offset="0" style="stop-color:#FFFFFF"/>
		<stop  offset="1" style="stop-color:#FFFFFF"/>
	</radialGradient>
	<path class="st13" d="M269.6025085,56.0836983c-2.0364685-0.441864-4.1477356-0.6807175-6.3146973-0.6807175H93.5217896
		c-3.2007675,0-6.2822266,0.5139351-9.1735687,1.453289c-11.930191,3.8759499-20.5792046,15.0924911-20.5792046,28.2994843
		v52.6402817c7.907093-1.5701752,15.2026329-0.2018433,17.6110344,4.7869873
		c0.2145081,0.4289551,0.4818726,0.9433289,0.7861481,1.5169067c2.4444885,4.6080322,7.5783768,13.5375061,12.1727295,21.4361725
		l69.2988586-8.5141907c8.0944977-0.9844666,21.3301544-0.9844666,29.5340118,0l61.1730957,7.5158081
		c5.3112946-9.0457764,16.1219635-27.5619812,18.8969574-33.1119843c0.1387024-0.2873383,0.2990723-0.5584412,0.4693909-0.8219299
		l3.0309448-25.4305496C278.8660583,87.3327789,276.1390076,70.5837402,269.6025085,56.0836983z M78.645401,77.3893967
		c0-2.9601593,2.3507385-5.3598862,5.2505264-5.3598862c2.8997345,0,5.2504807,2.3997269,5.2504807,5.3598862
		c0,2.9602203-2.3507462,5.3598938-5.2504807,5.3598938C80.9961395,82.7492905,78.645401,80.349617,78.645401,77.3893967z
		 M96.1470718,101.8916931h-5.0317459v14.9858017h-4.1566086v-14.9858017h-5.1411209v-3.5002823h14.3294754V101.8916931z
		 M110.8046875,116.8774948H98.9910889v-18.486084h11.5948257v3.5002823h-7.4382172v3.7191086h6.3443451v3.5003357h-6.3443451
		v4.2660217h7.6569901V116.8774948z M126.0092545,116.8774948h-11.4854584v-18.486084h4.1566086v14.9857483h7.3288498V116.8774948z
		 M140.8856506,116.8774948h-11.8136139v-18.486084h11.5948334v3.5002823h-7.4382172v3.7191086h6.3443451v3.5003357h-6.3443451
		v4.2660217h7.6569977V116.8774948z M151.3865967,110.5331421h-2.6252441v6.2349854h-4.156601V98.3914108h6.7818451
		c4.0473022,0,7.2194519,1.4220047,7.2194519,5.9067993C158.6060486,108.6735916,155.3244781,110.5331421,151.3865967,110.5331421z
		 M171.7322845,116.9869003v-0.1094055l-3.5003357-6.6724854h-2.2970581v6.6724854h-4.1566467v-18.486084h6.6724854
		c3.9378815,0,7.1100311,1.3125916,7.1100311,5.7973862c0,2.7346497-1.3126068,4.4847946-3.2815704,5.3598862l4.156662,7.4382172
		H171.7322845z M190.9841003,116.8774948H179.061142v-18.486084h0.1093597h11.5948181v3.5002823h-7.4381561v3.7191086h6.3443451
		v3.5003357h-6.3443451v4.2660217h7.6569366V116.8774948z M200.3912354,117.4244003
		c-2.4064636,0-4.922348-0.8750458-6.8912506-2.6252365l2.2970428-3.0627899
		c1.3126526,1.0938721,2.9534302,1.9689713,4.484848,1.9689713c1.7501373,0,2.6252289-0.6563263,2.6252289-1.7501984
		c0-1.2032318-1.0938568-1.5313644-2.6252289-2.1876907l-2.4065094-0.9844513
		c-1.9689178-0.765686-3.7190704-2.4064713-3.7190704-5.0317535c0-3.0627899,2.7346039-5.4692535,6.5631256-5.4692535
		c2.0782776,0,4.3753815,0.8750916,5.9067993,2.4064636l-2.0783234,2.6252899
		c-1.2032318-0.9845123-2.4064636-1.4220581-3.828476-1.4220581s-2.2971039,0.6563263-2.2971039,1.6407852
		c0,1.0938644,1.2032318,1.5314178,2.8440094,2.1877365l2.4064636,0.9844589
		c2.1877441,0.8750916,3.6097565,2.4064636,3.6097565,5.0317001
		C207.282547,114.7991638,204.7666626,117.4244003,200.3912354,117.4244003z M222.1589355,116.8774948h-11.9230194v-18.486084
		h0.1093597h11.5948792v3.5002823h-7.4382172v3.7191086h6.3443451v3.5003357h-6.3443451v4.2660217h7.6569977V116.8774948z
		 M240.2074585,116.7681274h-4.2660217l-4.8129272-9.1883621l-1.8595428-4.0472412h-0.1094208
		c0.2187805,2.0782776,0.5469666,4.4847946,0.5469666,6.6724854v6.563118h-4.0472565V98.3914108h0.109375h4.2660065
		l4.8129425,9.1883545l1.8595428,4.0472488h0.1094208c-0.2187805-1.9689636-0.5469666-4.5942078-0.5469666-6.7818985v-6.563118
		h3.9378815V116.7681274z M252.2398834,117.2056732c-4.8129272,0-8.7508087-3.2815552-8.7508087-9.5165405
		c0.2187195-6.0161667,4.265976-9.6259079,8.9695282-9.6259079c2.2971039,0,4.266037,1.0938644,5.4693146,2.4064636
		l-2.2971039,2.6252899c-0.9844666-0.8750992-1.8595581-1.4220581-3.1722107-1.4220581
		c-2.6252289,0-4.5941467,2.1877365-4.5941467,5.9068451c0,3.828476,1.7501831,6.0161667,4.484787,6.0161667
		c1.5314178,0,2.6252441-0.6563263,3.5003357-1.6407852l2.2971191,2.5158768
		C256.6153259,116.2211685,254.5369873,117.2056732,252.2398834,117.2056732z M272.8042908,116.8774948h-11.9229431v-18.486084
		h0.1093445h11.5948181v3.5002823h-7.4381714v3.7191086h6.3443604v3.5003357h-6.3443604v4.2660217h7.6569519V116.8774948z"/>
</g>
</svg>
