<?xml version="1.0" encoding="utf-8"?>
<!-- Generator: Adobe Illustrator 21.1.0, SVG Export Plug-In . SVG Version: 6.00 Build 0)  -->
<svg version="1.1" id="Layer_1" xmlns="http://www.w3.org/2000/svg" xmlns:xlink="http://www.w3.org/1999/xlink" x="0px" y="0px"
	 viewBox="0 0 52.6666679 72.75" style="enable-background:new 0 0 52.6666679 72.75;" xml:space="preserve">
<style type="text/css">
	.st0{fill:#221F1F;}
</style>
<g>
	<path class="st0" d="M10.4496241,65.8143311c0,0.3330765-0.0740585,0.6530838-0.2141247,0.9253769
		c-0.3273001,0.6362228-0.903121,0.9588394-1.7115707,0.9588394c-0.5386853,0-0.958169-0.1521606-1.2468166-0.4523621
		c-0.4723825-0.4911346-0.4492416-1.228775-0.4489889-1.2357712l-0.3449612-0.015007
		c-0.0015597,0.0359955-0.0316129,0.8879471,0.5425634,1.4874954c0.3563838,0.3721924,0.8604641,0.5609436,1.4982033,0.5609436
		c1.1811047,0,1.7496328-0.6233215,2.0185957-1.1461563c0.1651049-0.3209381,0.2523985-0.6955719,0.2523985-1.0833588v-6.6601448
		h-0.3452988V65.8143311z"/>
	<path class="st0" d="M15.0995178,59.16679h-0.0000839c-0.0904131,0-0.1700783,0.0577469-0.1982765,0.1436501l-2.855957,8.6344833
		l0.3628712-0.0003433l0.8322229-2.4543457h3.7348013l0.8391781,2.454689h0.3646545l-2.881176-8.6347389
		C15.2695122,59.224369,15.189847,59.16679,15.0995178,59.16679z M13.353384,65.1449356l1.7466402-5.3323135l1.7610331,5.3323135
		H13.353384z"/>
	<polygon class="st0" points="19.8183708,67.9243469 23.9932671,67.9243469 23.9932671,67.5790558 20.1636677,67.5790558 
		20.1636677,63.6785126 23.7680569,63.6785126 23.7680569,63.3332138 20.1636677,63.3332138 20.1636677,59.4327583 
		23.9932671,59.4327583 23.9932671,59.0874634 19.8183708,59.0874634 	"/>
	<path class="st0" d="M31.1404629,61.4864235c0.0017281-0.0402946,0.0340157-0.9966087-0.6371078-1.6965637
		c-0.4467964-0.4661026-1.0919552-0.7023964-1.9175186-0.7023964c-0.8301144,0-1.4776344,0.2364655-1.9245987,0.7029037
		c-0.6638317,0.6927032-0.63167,1.6330833-0.6301537,1.6654549v4.2644691c0,0.5115433,0.141964,0.9922256,0.4105473,1.3901291
		c0.3199654,0.4741135,0.9508362,1.0393524,2.1390209,1.0393524c0.3906517,0,0.7477112-0.0391998,1.0612698-0.1165924
		c0.8824234-0.2175751,1.4987087-1.0156631,1.4987087-1.9406967V63.951313h-2.2089062v0.345295h1.8636074v1.7958755
		c0,0.7657928-0.5082951,1.4260406-1.2361107,1.6055145c-0.2865391,0.0706482-0.615778,0.1064758-0.978569,0.1064758
		c-0.8321381,0-1.4555054-0.2985077-1.8528175-0.8872681c-0.2299309-0.3405838-0.3514519-0.7545013-0.3514519-1.1969147
		l-0.0001698-4.271801c-0.0003357-0.0082626-0.0286617-0.8317184,0.5343037-1.4192123
		c0.3793545-0.3957977,0.9429932-0.5965195,1.6753197-0.5965195c0.7262554,0,1.2866917,0.1997108,1.6658363,0.593483
		c0.5694561,0.5915413,0.5441227,1.4375076,0.543829,1.4456825L31.1404629,61.4864235z"/>
	<polygon class="st0" points="33.4400749,67.9243469 37.6618042,67.9243469 37.6618042,67.5790558 33.7853737,67.5790558 
		33.7853737,63.6785126 37.3341255,63.6785126 37.3341255,63.3332138 33.7853737,63.3332138 33.7853737,59.4327583 
		37.6618042,59.4327583 37.6618042,59.0874634 33.4400749,59.0874634 	"/>
	<path class="st0" d="M44.7764969,67.9380035l-1.8672523-3.805481c0.3630028-0.1052628,0.6882591-0.2673073,0.9451256-0.5186691
		c0.3850441-0.3768272,0.5802879-0.9217491,0.5802879-1.6197662c0-1.7201691-0.8796005-2.5086403-1.4039116-2.7444305
		c-0.239418-0.1076508-0.5011711-0.1621933-0.7780609-0.1621933h-2.5166893v8.8368835h0.3452988v-3.6267242
		c0.1449127,0.0016022,0.2939148,0.0048065,0.4490318,0.0081787c0.6724281,0.0143585,1.3949318,0.0298691,2.0347595-0.0905685
		l1.8285103,3.7227707H44.7764969z M40.5378265,63.9605865c-0.1575165-0.0034561-0.3087502-0.0067444-0.4565315-0.0082626
		v-4.5195656h2.1713905c0.2277412,0,0.4418678,0.0443459,0.6364326,0.1318474
		c0.5475388,0.2462463,1.2002411,0.9800034,1.2002411,2.4294815c0,0.6100883-0.1558723,1.0591621-0.4764709,1.3729324
		C42.9528503,64.0129395,41.6696587,63.9852028,40.5378265,63.9605865z"/>
</g>
<g>
	<path d="M8.4480295,47.8382568c1.0719242,0,1.843688-0.5518608,2.3982296-1.2888489
		c0.0320702-0.0426254,0.0637312-0.0856171,0.0943651-0.1294098c-0.3771706-0.8747864-0.8980246-2.1034813-1.4663515-3.5026855
		c-0.3977613-0.9792709-0.8185768-2.0413628-1.2304888-3.127121c-0.2708659,0.2304649-0.5837836,0.5783157-0.9223313,1.1030769
		c-0.3709564,0.5749435-0.7129502,1.4856567-0.905282,2.461937c-0.1731248,0.8787384-0.2243147,1.810112-0.0664372,2.5982361
		c0.0652881,0.3258858,0.1657009,0.6276817,0.3089142,0.8904686C7.0231123,47.5131035,7.6085582,47.8382568,8.4480295,47.8382568z"
		/>
	<circle cx="14.0037107" cy="32.2389984" r="1.5250933"/>
	<circle cx="28.7752743" cy="28.6659317" r="1.5250869"/>
	<path d="M3.0744009,44.6602936c0,0.40522,0.8838561,0.7883682,2.4536667,1.1293602
		c-0.1117878-0.8130836-0.0427051-1.6331291,0.0620422-2.2720222C3.9815454,43.8619499,3.0744009,44.2497978,3.0744009,44.6602936z"
		/>
	<path d="M49.396759,43.6103706c-0.023819,0.0658264-0.0491104,0.1308212-0.0763741,0.1946297
		c-0.1930809,0.4515877-0.4700813,0.8503685-0.8233986,1.1850052c-0.7090759,0.6716843-1.330719,1.0740662-1.886097,1.2208481
		C49.6788521,45.7796288,51.5,45.2426147,51.5,44.6602936C51.5,44.2862625,50.7467194,43.931015,49.396759,43.6103706z"/>
	<path d="M48.5669212,43.4315453c0.4252129-0.9949036,0.2737045-2.1917801-0.0869904-3.1252441
		c-0.6647224-1.7198105-2.0782738-2.9407463-3.4374504-2.9690819l-0.0486374-0.0042114
		c-0.0021706-0.0003815-0.2633553-0.0393028-0.6142883-0.0393028c-0.7402954,0-1.6489639,0.1580276-1.7744484,0.9104538
		c-0.0870628,0.5221138,0.1413155,0.7895508,0.6243744,1.2976379c0.5519905,0.5804596,1.3077316,1.3755112,1.5341988,3.0359726
		c0.0162735,0.1193657,0.0333748,0.2350082,0.0512581,0.3469963c0.2670822,1.6718063,0.713501,2.5189209,1.3284645,2.519043
		h0.0001297c0.3063736,0,0.8652687-0.1837006,1.7891235-1.0587845C48.217907,44.0747871,48.424633,43.7644463,48.5669212,43.4315453
		z"/>
	<path d="M9.3523197,15.462575c-0.0464993-1.2613401-0.0723896-2.5126801-0.0157862-2.8812265
		c0.1683817-0.7605286,4.8576393-6.1256113,7.9439039-6.755476c0.2512321-0.0512509,0.5550556-0.0772285,0.9029236-0.0772285
		c3.4821281,0,10.1591492,2.487155,10.9690132,2.9189005c0.0418968,0.1006823,0.1019459,0.299037,0.1749802,0.5704947
		c-0.3785286,0.3973694-0.6868,0.9971838-0.8425007,1.7050695c-0.1587486,0.7221403-0.1331367,1.391655,0.0414505,1.9045715
		c-3.5146065,1.5324326-12.2751122,4.8445768-18.8527718,3.069294c0.1386356,0.2098074,0.2759571,0.4336863,0.4118681,0.6724138
		c0.4939365,0.8675976,0.8552589,1.7246418,1.0520115,2.2304649c2.7232189,0.4260101,8.723362,0.5192966,18.1479683-3.7225599
		c0.1795311-0.5634718,0.4553223-1.3583851,0.8219013-2.2139044c-0.1723938,0.1608362-0.3452129,0.2363329-0.4878006,0.205081
		c-0.3815746-0.0839386-0.6382885-0.9511805-0.4108067-1.9862309c0.2153587-0.9795866,0.7649231-1.6375961,1.1430511-1.6375961
		c0.0216961,0,0.0423832,0.0022278,0.0630608,0.0067616c0.3678055,0.0809011,0.6182461,0.8901749,0.4322071,1.8754358
		c1.2364235-2.2717867,2.6261139-3.4224448,4.1375694-3.4224448c0.5093498,0,0.9565163,0.1200461,1.3315125,0.351932
		c0.6375847-0.7754188,1.0432663-1.3102145,1.0432663-1.3102145c-0.4793167,0.0871501-1.481514,0.2178745-1.481514,0.2178745
		c3.7909317-1.3943706,3.4859123-5.1853004,3.4859123-5.1853004c0,0.6536061-1.9608269,2.2222681-1.9608269,2.2222681
		c0.0871506-0.5664566-0.2178726-1.3072124-0.2178726-1.3072124c0.0871506,0.7407558-2.2658424,2.6580081-2.2658424,2.6580081
		c0.1742973-0.3485904,0.0435753-0.9586306,0.0435753-0.9586306c-0.1307259,0.6971812-1.1764984,0.9586306-1.1764984,0.9586306
		c0.6536064-0.7843308,1.8736877-4.923851,0.9586334-5.1853004c-0.9150581-0.2614407-2.1787033,2.7015831-2.1787033,2.7015831
		c-0.0435677-0.697181-0.43573-0.697181-0.43573-0.697181c0.1742897,2.1787014-1.5686646,3.9216542-1.5686646,3.9216542
		c-0.130724-0.4357405-0.8279133-0.6536059-0.8279133-0.6536059c0.1620979,0.3511925,0.0729465,1.6065011-0.0182152,2.5101123
		c-0.0093212-0.0113478-0.0175533-0.0198069-0.0247154-0.0269785C29.32127,7.7724009,21.8642521,5.0075221,18.1833611,5.0075221
		c-0.3975258,0-0.7511387,0.0310254-1.0510101,0.0922322c-1.9373388,0.3953595-4.2475653,2.3949924-5.4522676,3.5517683
		c-1.4353876,1.3781309-2.9781408,3.181551-3.0754118,3.8139048c-0.0514164,0.3343439-0.0479784,1.1820745-0.0229063,2.1234741
		C8.8425884,14.8320484,9.0994081,15.1252108,9.3523197,15.462575z"/>
	<path d="M44.0293884,42.6378517c-0.1941681-1.4233971-0.8013115-2.0619392-1.3369598-2.6254272
		c-0.4987564-0.5246735-0.969944-1.0202446-0.8182869-1.930069c0.1402092-0.8411102,0.8094025-1.3586311,1.9027863-1.4932632
		c-0.6641006-4.4884834-1.6372299-10.1512203-2.888092-14.9821339c-0.6246872-2.412571-1.6126022-4.0883732-2.9376717-5.2025051
		c0.2434883-0.1245728,0.4788895-0.2470989,0.7060051-0.367485c0.3126144-0.1656923,0.6111374-0.3277035,0.8909149-0.4845715
		c2.9291153-1.6424532,3.4061699-2.4313784,3.5100899-2.8819399c0.0878296-0.3806171-0.0360031-0.6395073-0.1554947-0.7896309
		c-0.2747192-0.3453188-0.8079491-0.5061026-1.6783142-0.5061026c-0.9613571,0-2.2616844,0.2022963-3.6205559,0.4883661
		c-0.0124207,0.2475071-0.0341492,0.5049534-0.0668831,0.773983c1.3953552-0.3028393,2.7323914-0.5212278,3.687439-0.5212278
		c0.8739433,0,1.0682411,0.1885462,1.0983696,0.2263336c0.0117416,0.0148125,0.0393181,0.0494061,0.013401,0.1616812
		c-0.0395699,0.1712532-0.3836098,0.850585-3.1506004,2.4020758c-0.7957954,0.4462099-1.7332954,0.931591-2.7842789,1.4432983
		l-0.0123482,0.0172653l-0.0198708-0.0016174c-1.2222633,0.5944099-2.5974274,1.2241783-4.0891647,1.8710136
		c-0.8845253,0.3835239-1.7662067,0.7540359-2.6272697,1.1064301c0.4127483-0.4753819,0.7742004-0.9043598,1.0469894-1.2326202
		c0.5231438-0.6295433,0.4368553-1.5640068-0.192627-2.0871487c-0.0426617-0.0354376-0.0869236-0.0675335-0.1321526-0.0974102
		c1.2173557-0.3169212,2.7135239-0.3931665,3.861824-0.3931665c1.0399055,0,1.793705,0.0617819,1.793705,0.0617819
		c0.3268013-0.4575329,2.222271-6.9282618-1.0457802-6.9282618c-2.8072777,0-4.649929,5.4980869-5.1137352,7.0484734
		c-0.5218201-0.1116486-1.0862923,0.0621729-1.4510708,0.5010977c-1.7186623,2.0676727-3.9927654,4.5010262-4.6319504,4.8245792
		c-0.0894814,0.0402756-0.1593132,0.0644703-0.210886,0.0789509c-0.4819088-0.3991795-1.1847992-0.4625015-1.7412548-0.1085072
		c-0.483511,0.3076706-0.7271881,0.8489418-0.6797581,1.3829365c-0.1908264,0.0454025-0.3463364,0.0754528-0.4588299,0.087307
		c-0.2455482,0.0258369-0.6176987,0.0569687-1.0870132,0.0899429c-0.0272579-0.0263958-0.0545578-0.0527916-0.0842438-0.0774384
		c-0.4639111-0.385273-1.0933933-0.4398479-1.6018543-0.1896935c-0.2768879,0.0042114-1.2927914-0.0684319-3.8227205-1.0901394
		c-2.4875383-1.0045471-3.7138052-1.2838879-4.3432531-1.3426762c0.5103407-0.2260647,0.8469563-0.3549175,0.8469563-0.3549175
		s-1.7401409-5.1193419-4.0886259-5.1187239c-0.3051462,0.0000782-0.6209793,0.0866013-0.9441662,0.2820139
		c-2.8105164,1.6993866,1.1111379,6.862896,1.1111379,6.862896c0.4546952-0.3147888,0.946682-0.6058464,1.423656-0.8638229
		c-0.140872,0.2782898-0.1968746,0.6023464-0.1367383,0.932888c0.1133971,0.6236324,0.5993791,1.0836201,1.1894107,1.1917171
		c-5.2698736-0.1736565-6.2008905-0.8808804-6.3631277-1.1183186c-0.0386841-0.0566807-0.0537486-0.1081924-0.0164745-0.2038708
		c0.1969879-0.5048504,1.0040417-1.0376873,2.037029-1.5250778c-0.1112046-0.2141685-0.2204509-0.4387264-0.3235703-0.670517
		c-1.1398313,0.5437679-2.1205146,1.2001858-2.4038343,1.9262428c-0.1222916,0.3132057-0.0893602,0.6214314,0.0949824,0.8913059
		c0.1768756,0.2589169,0.610214,0.8919144,3.8583763,1.2403831c0.2443485,0.0262127,0.5048146,0.050806,0.7821293,0.0735207
		c-1.3670006,2.8299065-0.7729301,5.9686565-0.272563,8.5614986c0.5417404,2.8071747,2.2800894,7.395134,3.6897078,10.8550339
		c0.6575222,1.6139145,1.2435246,2.9824638,1.6031065,3.8100128c4.1912756,0.3692627,9.5724669,0.5912857,15.4418173,0.5912857
		c6.93993,0,13.1970787-0.3104286,17.6117783-0.8076706c-0.2827187-1.0669785-0.7174759-2.9325981-0.842247-3.6222076
		C44.0446892,42.7374268,44.0352364,42.6806679,44.0293884,42.6378517z M32.565403,13.419054
		c0.0021667-0.0536966,0.001461-0.1339712,0.0117226-0.2338009c0.0157356-0.201026,0.0536804-0.4869127,0.1430054-0.8233976
		c0.0910912-0.3355446,0.2288742-0.7245426,0.4739799-1.1146717c0.1233978-0.1939764,0.275425-0.3896332,0.478157-0.5603294
		c0.1996689-0.1712275,0.4618073-0.3150673,0.7589798-0.3674669c0.0737724-0.0105038,0.1493301-0.0155697,0.2235565-0.0181885
		c0.0735817,0.0046387,0.1492729,0.0042725,0.2205048,0.0168829c0.0701866,0.0145512,0.1444664,0.0229063,0.2095795,0.0471869
		l0.0988655,0.0338717l0.0490494,0.0173092l0.0061073,0.0021763l0.0030479,0.0010958l0.0345573,0.0150213l0.0091019,0.0048647
		l0.0181885,0.0097036c0.0137939,0.0011406,0.1909218,0.1123791,0.2358818,0.1843948l0.04776,0.0606155l0.036171,0.0630083
		c0.0252724,0.0429831,0.0420876,0.084713,0.0554428,0.125947c0.0558319,0.1663971,0.0596085,0.3115511,0.0514946,0.4420233
		c-0.0207443,0.2577419-0.0875473,0.4702559-0.1602249,0.662962c-0.0739746,0.1921749-0.1578522,0.3625927-0.2415657,0.5151796
		c-0.168335,0.3045101-0.3376923,0.536623-0.4634399,0.6939344c-0.1247559,0.1577387-0.2075615,0.2394753-0.2075615,0.2394753
		s0.0261955-0.1131973,0.075592-0.3052073c0.0475616-0.1926451,0.119648-0.4645033,0.1950989-0.7839479
		c0.0374298-0.1595135,0.0749741-0.3314552,0.1042442-0.5088787c0.0303268-0.1762924,0.0497284-0.362524,0.040657-0.5239
		c-0.0071602-0.0781164-0.0218086-0.1487484-0.0417824-0.1844206c-0.0039406-0.0092163-0.0081444-0.0161963-0.0126801-0.0190849
		c0,0-0.0011902-0.0003138-0.0017319-0.0005751c-0.0022087-0.0010872-0.0034256-0.0032282-0.0051956-0.0048475l0.0042915,0.001976
		c-0.0011482-0.0015144-0.0024109-0.0029764-0.003212-0.0047255l-0.0050125-0.000905
		c0.0010452,0.0014534,0.0025673,0.0024099,0.0025673,0.0024099L34.982708,11.092535l-0.0927773-0.0250902
		c-0.039444-0.0127316-0.0773621-0.0122356-0.1155739-0.0216179c-0.0381889-0.0068398-0.0749512-0.0026455-0.1123734-0.0066481
		c-0.0367508,0.0031843-0.0730743,0.0066137-0.1095238,0.0111132c-0.144577,0.0232277-0.2896194,0.0938768-0.4315376,0.1968832
		c-0.1407242,0.1042767-0.2741814,0.239109-0.3956795,0.3838196c-0.2425575,0.2917957-0.4426689,0.613739-0.6102486,0.8946562
		c-0.1662407,0.2827625-0.301136,0.5283985-0.3973694,0.7015066c-0.0963478,0.1750307-0.151413,0.2750511-0.151413,0.2750511
		S32.5645599,13.4731588,32.565403,13.419054z M22.3970985,21.8924007c0.0712414-0.0453758,0.1496181-0.0683594,0.2329826-0.0683594
		c0.1025105,0,0.2019482,0.03549,0.2796993,0.0998898l0.4221649,0.3497219l0.5278664-0.1482773
		c0.1124668-0.0315914,0.2325916-0.0760193,0.3571815-0.1320572l0.0218353-0.0098343l0.0213127-0.0107822
		c1.0391407-0.5260143,3.9354477-3.8520145,4.9638577-5.0891514c0.0832329-0.100153,0.2057858-0.1575298,0.33638-0.1575298
		c0.0716152,0,0.1779556,0.0174847,0.2781677,0.1008492c0.1851006,0.1537609,0.2105045,0.4294376,0.0566826,0.6144867
		c-2.3818512,2.8662395-4.4700794,4.9654408-5.3200302,5.3479118c-0.396246,0.1783371-0.7711792,0.2687778-1.1140709,0.2687778
		c-0.2134438,0-0.4132252-0.034977-0.5937309-0.1039734c-0.3924255-0.1500626-0.5724163-0.4090843-0.6044617-0.459507
		C22.1339951,22.2919121,22.1940022,22.021595,22.3970985,21.8924007z M22.2537804,32.4290504
		c1.4166164-0.235199,2.672308,0.220459,2.804678,1.0177422c0.1323776,0.7972794-0.9087029,1.6342812-2.3253098,1.8694801
		c-1.4166145,0.2352028-2.6723061-0.2204742-2.8046761-1.0177574C19.7960949,33.501236,20.8371754,32.664238,22.2537804,32.4290504z
		 M8.6626844,19.2238979c-0.1107435-0.1438923-0.2627287-0.3508701-0.4382038-0.5978565
		c-0.1755877-0.2467232-0.3755078-0.5340729-0.5916767-0.8280716c-0.1083412-0.1464329-0.2228961-0.2930145-0.3396616-0.4322929
		C7.1749759,17.22966,7.05164,17.0955238,6.9324551,17.0090885c-0.0572381-0.0433846-0.1117787-0.0722771-0.1474514-0.0856438
		c-0.007493-0.0008011-0.0135851-0.0011749-0.0200772-0.0041599L6.760253,16.9167252
		c0.0019145,0.000618,0.0039248,0.000967,0.0039248,0.000967s0.010478-0.000845,0.0144815-0.0030289
		c0.0009747-0.0008621,0.0144987-0.0083904,0.0038986-0.006815l-0.0368562,0.0074406l-0.0226445,0.00457
		c-0.0304079,0.0108337-0.0475264,0.0179176-0.0685086,0.0392323c-0.0215917,0.0237503-0.0439057,0.0707531-0.0609455,0.1313152
		c-0.0340543,0.1220226-0.0340977,0.2881851-0.0253773,0.443409c0.0106087,0.1579895,0.0321217,0.3140221,0.0555844,0.4592552
		c0.0477347,0.2910824,0.1001434,0.5411911,0.1345105,0.7183018c0.0362558,0.1766415,0.0556979,0.2811527,0.0556979,0.2811527
		S6.794838,18.9740314,6.7619324,18.937149c-0.0317912-0.0373878-0.0821719-0.0908127-0.1367297-0.1643181
		c-0.1132579-0.145153-0.2648172-0.3600597-0.40763-0.6466522c-0.0708585-0.1436653-0.1401763-0.3049622-0.1954389-0.4891834
		c-0.0504327-0.1863537-0.1004825-0.3908691-0.0762539-0.6459732c0.0117922-0.1264267,0.0449414-0.2688904,0.1298804-0.4102516
		c0.0828161-0.1423779,0.2287965-0.2650089,0.3777623-0.326128l0.0281363-0.0126705l0.0141335-0.006197l0.0479608-0.0141163
		l0.0362387-0.0098076L6.616291,16.202034c0.0138726-0.0035419,0.0529218-0.007885,0.0788651-0.0101376
		c0.0291281-0.0024719,0.0585523-0.0038033,0.0878196-0.0039692l0.0437231,0.0005741l0.0324354,0.0043869
		c0.0429049,0.0067005,0.0866361,0.0147152,0.1283488,0.0247059c0.1575813,0.0473881,0.2803082,0.1208744,0.3867698,0.1967449
		c0.2052202,0.1579037,0.3529854,0.3303051,0.4829874,0.5056496c0.1302986,0.1741352,0.2367072,0.3528557,0.3315854,0.5274677
		c0.187624,0.3501396,0.3225517,0.6892357,0.4195442,0.9858704c0.0974798,0.2964096,0.1560936,0.5505219,0.1891203,0.7308521
		c0.0188942,0.0891171,0.0264835,0.1619587,0.0342112,0.2103729c0.0055437,0.0492325,0.008503,0.0754967,0.008503,0.0754967
		S8.7720346,19.368433,8.6626844,19.2238979z M9.4479809,21.7816582L9.425519,21.7822323
		c-0.209363,0-0.3885975-0.1508274-0.4263763-0.3586502c-0.0282145-0.154789,0.0320358-0.2710228,0.070467-0.3264847
		c0.0384226-0.0555344,0.1259995-0.152813,0.2807178-0.1809578c0.0444269-0.0081024,0.073782-0.0134029,0.1430998-0.0134029
		c0.3146839,0,1.3554783,0.1247196,4.2161655,1.2799644c2.3872032,0.9640083,3.5977879,1.1663399,4.1930504,1.1663399
		l0.272171-0.00383l0.2107658-0.1037197c0.0596142-0.0292931,0.1267643-0.0448017,0.1941681-0.0448017
		c0.0714836,0,0.1776924,0.0174236,0.2779064,0.1006565c0.121151,0.100605,0.1496181,0.2283268,0.1558743,0.2955303
		c0.0062504,0.0672016,0.0016537,0.1980572-0.0988102,0.3190784c-0.0640793,0.0772285-0.2593956,0.3123779-1.0031376,0.3123779
		c-0.9802818,0-2.5040121-0.4146347-4.5289173-1.2322807c-2.4616299-0.9941387-3.4619637-1.1749649-3.7777882-1.2065639
		l-0.0782557-0.0077801L9.4479809,21.7816582z M9.6027431,30.5396042c0-2.671236,2.165473-4.8367004,4.83671-4.8367004
		c2.6712456,0,4.83671,2.1654644,4.83671,4.8367004c0,2.6712532-2.1654644,4.8367195-4.83671,4.8367195
		C11.7682161,35.3763237,9.6027431,33.2108574,9.6027431,30.5396042z M22.522419,40.7794914
		c-1.0189762,0.3035164-1.3859901-0.8684006-1.495575-1.3765564c0.4803677-0.3009453,1.0375214-0.6473312,1.66675-0.8892365
		C22.8903294,39.0404778,23.3625603,40.529232,22.522419,40.7794914z M24.1782303,40.3655319
		c-0.4676971-0.175396-0.7239075-1.464035-0.818079-2.0562439c0.1199055-0.0270309,0.2417984-0.0497093,0.3661251-0.0660706
		c0.0611458-0.0080414,0.1913586-0.0176163,0.4651909-0.0176163c0.250206,0,0.553524,0.007782,0.8747101,0.0160828
		c0.0921707,0.0023842,0.1874657,0.0048409,0.2847633,0.0071716c0.0251865,0.2197266,0.0559254,0.5387573,0.0909367,1.0055389
		C25.5399132,40.5616074,24.4540749,40.4689751,24.1782303,40.3655319z M28.4049015,37.097477
		c-1.0239887,0.4575233-3.9269199,0.1228142-4.8149185,0.2396736c-1.6558113,0.2178497-2.8976669,1.2200623-3.7255726,1.6775856
		s-2.570858,0-2.3965664-1.3072281c0.1742897-1.3072128,2.2440586-1.9172287,2.2440586-1.9172287
		c0.3703747,0.4575233,1.285429,0.8714638,3.4423389,0.5228653c2.1569099-0.3485832,2.9412422-2.2004662,2.9412422-2.2004662
		c2.5708656,0.0217743,3.1956043,0.9161758,3.2680473,1.3507957C29.4288883,35.8556213,29.4288883,36.6399536,28.4049015,37.097477z
		 M29.4288883,31.890419c-2.671236,0-4.83671-2.1654663-4.83671-4.8367023c0-2.6712532,2.1654739-4.8367176,4.83671-4.8367176
		s4.83671,2.1654644,4.83671,4.8367176C34.2655983,29.7249527,32.1001244,31.890419,29.4288883,31.890419z"/>
	<polygon points="6.5167398,14.0261345 6.5166788,14.0261345 6.5167398,14.3966913 	"/>
	<polygon points="35.0285912,11.1137438 35.0201225,11.1097317 35.0162582,11.1079655 35.0179558,11.1104546 35.0188942,11.111412 
		35.0245705,11.1132832 	"/>
	<path d="M14.2143812,51.7330894c-0.8317528,0.1901245-3.2794924,1.5209198-5.3945246,1.9249191
		c-2.1150408,0.4040031-3.9448996,0.6178818-4.5865393,0.8555222c-0.6416397,0.2376366-1.1406929,0.7129326,0.1188192,1.1882286
		c1.259521,0.4752769,7.3669786,0.6416397,7.913558,0c0.5465879-0.6416397-0.3769445-0.9197311-1.7110395-0.9030571
		c-0.950572,0.0118904-0.8339806-0.3193398-0.8317528-0.3564644c0,0,0.0594139-0.4158745,1.5209274-0.6178818
		c1.459137-0.2016602,7.9135571-0.8079872,7.7947292-1.4971581C18.9197388,51.6380386,15.046134,51.5429688,14.2143812,51.7330894z"
		/>
	
		<ellipse transform="matrix(0.9771305 -0.2126405 0.2126405 0.9771305 -11.8526678 3.4313276)" cx="10.0258989" cy="56.8186836" rx="1.2654586" ry="0.3683454"/>
	
		<ellipse transform="matrix(0.9968461 -0.0793595 0.0793595 0.9968461 -4.4735169 0.7418869)" cx="7.0969315" cy="56.6523285" rx="1.3308071" ry="0.3564594"/>
	
		<ellipse transform="matrix(0.9908522 -0.1349519 0.1349519 0.9908522 -7.5625429 1.1574332)" cx="4.7561359" cy="56.3612175" rx="0.8911684" ry="0.2792337"/>
	
		<ellipse transform="matrix(0.9896255 -0.1436715 0.1436715 0.9896255 -8.0276814 1.0168821)" cx="3.0272729" cy="56.0938683" rx="0.8614582" ry="0.2257604"/>
	
		<ellipse transform="matrix(0.9896255 -0.1436715 0.1436715 0.9896255 -7.9617567 0.9554923)" cx="2.6351597" cy="55.6066933" rx="0.8614582" ry="0.2257604"/>
	
		<ellipse transform="matrix(0.9896259 -0.1436682 0.1436682 0.9896259 -7.8834987 0.9350193)" cx="2.5326757" cy="55.0558205" rx="0.7488937" ry="0.1962651"/>
	<path d="M26.9045906,52.3984909c-1.4496326,0.0712929-4.729126-0.0950546-5.180645,0.6654129
		c-0.4515266,0.7604523,1.3308067,1.0456238,4.1350136,0.8079872c2.8041973-0.2376404,6.7728653-0.5465889,6.939209-1.4021072
		c0.1663551-0.8555222-0.7366905-0.6891594-0.8317528-1.2357445c-0.0950603-0.5465889,0.9981079-0.5465889,1.2119865-1.3545761
		c0.2138786-0.8079834-1.4733925-0.7129326-2.9705524-0.7129326c-1.4971581,0-3.992424,0.1425896-4.230072,0.926815
		s1.1406937,0.7842255,2.1150322,0.9743462c0.9743481,0.1901054,0.6891747,0.5465698,0.6891747,0.5465698
		C28.7344494,52.1133156,28.3542252,52.327198,26.9045906,52.3984909z"/>
	<ellipse cx="23.028017" cy="54.4838181" rx="1.2565446" ry="0.4099365"/>
	<ellipse cx="26.2629509" cy="54.3947029" rx="0.8376964" ry="0.3742899"/>
	<ellipse cx="28.8740692" cy="54.1273537" rx="0.9179014" ry="0.3029966"/>
	<ellipse cx="30.8881054" cy="53.7887077" rx="0.6683748" ry="0.3208199"/>
	<ellipse cx="32.6258774" cy="53.4233322" rx="0.6772864" ry="0.3119082"/>
</g>
</svg>
