<svg xmlns="http://www.w3.org/2000/svg" role="img" viewBox="0.40 -0.98 52.34 70.46"><style>svg {enable-background:new 0 0 52.6666679 72.75}</style><path fill="#221f1f" d="M10.45 65.814c0 .333-.074.653-.215.926-.327.636-.903.959-1.711.959-.539 0-.958-.153-1.247-.453-.472-.49-.45-1.229-.449-1.236l-.345-.015c-.001.036-.031.888.543 1.488.356.372.86.56 1.498.56 1.181 0 1.75-.622 2.019-1.145a2.38 2.38 0 0 0 .252-1.084v-6.66h-.345v6.66zm4.65-6.647a.21.21 0 0 0-.199.143l-2.856 8.635h.363l.832-2.455h3.735l.84 2.455h.364l-2.881-8.635a.208.208 0 0 0-.198-.143zm-1.747 5.978l1.747-5.332 1.761 5.332h-3.508zm6.465 2.779h4.175v-.345h-3.829v-3.9h3.604v-.346h-3.604v-3.9h3.829v-.346h-4.175zm11.322-6.438c.002-.04.034-.996-.637-1.696-.446-.466-1.092-.703-1.917-.703-.83 0-1.478.237-1.925.703-.664.693-.631 1.633-.63 1.666v4.264c0 .512.142.993.41 1.39.32.475.951 1.04 2.14 1.04.39 0 .747-.04 1.06-.117a1.984 1.984 0 0 0 1.5-1.94V63.95h-2.21v.346h1.864v1.795a1.64 1.64 0 0 1-1.236 1.606 4.15 4.15 0 0 1-.978.106c-.832 0-1.456-.298-1.853-.887a2.127 2.127 0 0 1-.352-1.197v-4.272c0-.008-.028-.831.535-1.419.379-.396.943-.596 1.675-.596.726 0 1.287.2 1.666.593.57.592.544 1.438.544 1.446l.344.014zm2.3 6.438h4.222v-.345h-3.877v-3.9h3.549v-.346h-3.549v-3.9h3.877v-.346H33.44zm11.336.014l-1.867-3.805c.363-.106.689-.268.945-.52.385-.376.58-.92.58-1.619 0-1.72-.879-2.509-1.403-2.744a1.884 1.884 0 0 0-.778-.163h-2.517v8.837h.345v-3.626c.145.001.294.004.45.008.672.014 1.394.03 2.034-.09l1.829 3.722h.382zm-4.238-3.977a39.445 39.445 0 0 0-.457-.009v-4.52h2.172c.227 0 .442.045.636.133.548.246 1.2.98 1.2 2.43 0 .61-.156 1.058-.476 1.372-.66.646-1.943.618-3.075.594z"/><path d="M8.448 47.838c1.072 0 1.844-.552 2.398-1.289.032-.042.064-.085.095-.129a181.35 181.35 0 0 1-1.467-3.503c-.397-.979-.818-2.041-1.23-3.127-.271.23-.584.579-.923 1.103-.37.575-.712 1.486-.905 2.462-.173.879-.224 1.81-.066 2.598.065.326.165.628.309.89.364.67.95.995 1.789.995z"/><circle cx="14.004" cy="32.239" r="1.525"/><circle cx="28.775" cy="28.666" r="1.525"/><path d="M3.074 44.66c0 .406.884.789 2.454 1.13-.112-.813-.043-1.633.062-2.272-1.608.344-2.516.732-2.516 1.142zm46.323-1.05a3.537 3.537 0 0 1-.9 1.38c-.71.672-1.33 1.074-1.886 1.22 3.068-.43 4.889-.967 4.889-1.55 0-.374-.753-.729-2.103-1.05zm-.83-.178c.425-.995.274-2.192-.087-3.126-.665-1.72-2.078-2.94-3.438-2.969l-.048-.004a4.58 4.58 0 0 0-.614-.04c-.74 0-1.65.159-1.775.911-.087.522.141.79.624 1.298.552.58 1.308 1.375 1.535 3.036.016.12.033.235.05.347.268 1.672.714 2.519 1.33 2.519.306 0 .865-.184 1.789-1.059.285-.27.492-.58.634-.913zM9.352 15.463c-.046-1.262-.072-2.513-.015-2.882.168-.76 4.857-6.125 7.943-6.755a4.6 4.6 0 0 1 .903-.077c3.482 0 10.16 2.487 10.97 2.919.041.1.101.299.174.57-.378.397-.686.997-.842 1.705-.159.722-.133 1.392.041 1.905-3.514 1.532-12.275 4.844-18.852 3.069.138.21.275.434.411.672a17.36 17.36 0 0 1 1.052 2.23c2.724.427 8.724.52 18.148-3.722.18-.563.456-1.358.822-2.214-.172.161-.345.237-.488.205-.381-.083-.638-.95-.41-1.986.215-.98.765-1.637 1.143-1.637.021 0 .042.002.063.006.368.081.618.89.432 1.876 1.236-2.272 2.626-3.423 4.138-3.423.509 0 .956.12 1.331.352.638-.775 1.043-1.31 1.043-1.31-.479.087-1.481.218-1.481.218 3.79-1.394 3.486-5.185 3.486-5.185 0 .653-1.961 2.222-1.961 2.222.087-.567-.218-1.307-.218-1.307.087.74-2.266 2.658-2.266 2.658.174-.349.044-.959.044-.959-.131.697-1.177.959-1.177.959.654-.785 1.874-4.924.959-5.186-.915-.261-2.179 2.702-2.179 2.702-.043-.697-.436-.697-.436-.697.175 2.179-1.568 3.922-1.568 3.922-.13-.436-.828-.654-.828-.654.162.351.073 1.606-.018 2.51a.36.36 0 0 0-.025-.027c-.37-.37-7.827-3.134-11.508-3.134-.397 0-.75.03-1.05.092-1.938.395-4.248 2.395-5.453 3.552-1.435 1.378-2.978 3.181-3.075 3.813-.052.335-.048 1.183-.023 2.124.26.243.517.536.77.874z"/><path d="M44.03 42.638c-.195-1.424-.802-2.062-1.338-2.626-.498-.524-.97-1.02-.818-1.93.14-.84.81-1.358 1.903-1.493-.664-4.488-1.637-10.151-2.888-14.982-.625-2.413-1.613-4.088-2.938-5.203a54.896 54.896 0 0 0 1.597-.852c2.93-1.642 3.406-2.431 3.51-2.882.088-.38-.036-.64-.155-.79-.275-.344-.808-.505-1.679-.505-.961 0-2.261.202-3.62.488a10.94 10.94 0 0 1-.067.774c1.395-.303 2.732-.521 3.687-.521.874 0 1.069.188 1.099.226.011.015.04.05.013.162-.04.171-.383.85-3.15 2.402a54.83 54.83 0 0 1-2.785 1.443l-.012.017-.02-.001a104.396 104.396 0 0 1-4.09 1.87c-.884.384-1.765.755-2.626 1.107.412-.475.774-.904 1.047-1.232a1.482 1.482 0 0 0-.325-2.185c1.217-.317 2.713-.393 3.862-.393 1.04 0 1.793.062 1.793.062.327-.458 2.223-6.929-1.045-6.929-2.808 0-4.65 5.499-5.114 7.049a1.481 1.481 0 0 0-1.451.501c-1.719 2.068-3.993 4.501-4.632 4.825a1.7 1.7 0 0 1-.211.079 1.483 1.483 0 0 0-2.421 1.274c-.19.045-.346.075-.459.087-.245.026-.618.057-1.087.09a1.482 1.482 0 0 0-1.686-.267c-.277.004-1.293-.068-3.823-1.09-2.487-1.005-3.714-1.284-4.343-1.343.51-.226.847-.355.847-.355s-1.74-5.119-4.089-5.118c-.305 0-.62.086-.944.282-2.81 1.7 1.111 6.863 1.111 6.863.455-.315.947-.606 1.424-.864a1.478 1.478 0 0 0 1.053 2.125c-5.27-.174-6.201-.881-6.364-1.119-.038-.057-.053-.108-.016-.204.197-.505 1.004-1.037 2.037-1.525-.111-.214-.22-.439-.324-.67-1.14.543-2.12 1.2-2.403 1.926a.923.923 0 0 0 .095.891c.177.26.61.892 3.858 1.24.244.027.505.051.782.074-1.367 2.83-.773 5.969-.272 8.562.541 2.807 2.28 7.395 3.69 10.855a183.273 183.273 0 0 0 1.602 3.81c4.192.369 9.573.59 15.442.59 6.94 0 13.197-.31 17.612-.807-.283-1.067-.717-2.932-.842-3.622a4.143 4.143 0 0 1-.028-.166zM32.564 13.419c.003-.054.002-.134.012-.234.016-.2.054-.487.143-.823.091-.336.229-.725.474-1.115.124-.194.276-.39.478-.56.2-.171.462-.315.76-.368.073-.01.149-.015.223-.018.073.005.15.004.22.017.07.015.145.023.21.047l.099.034.049.017.006.003h.003l.035.016.009.005.018.01c.014 0 .19.112.236.184l.047.06.037.063a.62.62 0 0 1 .055.126c.056.167.06.312.052.442-.021.258-.088.47-.16.663a4.21 4.21 0 0 1-.242.515 4.932 4.932 0 0 1-.464.694c-.124.158-.207.24-.207.24s.026-.113.075-.305c.048-.193.12-.465.195-.784a7.76 7.76 0 0 0 .105-.51c.03-.175.05-.362.04-.523a.536.536 0 0 0-.041-.185.051.051 0 0 0-.013-.019h-.002l-.005-.005.004.002c0-.002-.002-.003-.003-.005h-.005a.01.01 0 0 0 .003.002l-.028-.012-.093-.026c-.04-.012-.077-.012-.116-.021-.038-.007-.075-.003-.112-.007a3.017 3.017 0 0 0-.11.011 1.03 1.03 0 0 0-.431.197c-.14.104-.274.24-.396.384a7.006 7.006 0 0 0-.61.895c-.166.282-.301.528-.397.701l-.152.275v-.083zm-10.168 8.473a.44.44 0 0 1 .513.032l.422.35.528-.149c.112-.031.232-.076.357-.132l.022-.01.021-.01c1.04-.526 3.936-3.852 4.964-5.09a.436.436 0 1 1 .671.558c-2.382 2.867-4.47 4.966-5.32 5.348-.396.179-.771.269-1.114.269-.213 0-.413-.035-.594-.104a1.255 1.255 0 0 1-.604-.46.437.437 0 0 1 .134-.602zm-.143 10.537c1.416-.235 2.672.22 2.804 1.018.133.797-.908 1.634-2.325 1.87-1.416.234-2.672-.221-2.805-1.018-.132-.798.91-1.635 2.326-1.87zM8.663 19.224a21.119 21.119 0 0 1-.439-.598c-.175-.247-.375-.534-.591-.828a9.124 9.124 0 0 0-.34-.432 2.384 2.384 0 0 0-.36-.357.63.63 0 0 0-.148-.086c-.007 0-.014 0-.02-.004l-.005-.002h.004s.01 0 .015-.002c0-.001.014-.009.004-.007l-.037.007-.023.005a.153.153 0 0 0-.068.04.35.35 0 0 0-.061.13 1.479 1.479 0 0 0-.026.444c.01.158.032.314.056.46.048.29.1.54.134.717.037.177.056.282.056.282s-.02-.019-.052-.056c-.032-.037-.082-.09-.137-.164a3.804 3.804 0 0 1-.407-.647 3.132 3.132 0 0 1-.196-.489c-.05-.186-.1-.39-.076-.646a.955.955 0 0 1 .13-.41.812.812 0 0 1 .378-.326l.028-.013.014-.006.048-.014.036-.01.036-.01a1.116 1.116 0 0 1 .167-.014h.044l.032.005c.043.007.087.015.128.025.158.047.28.12.387.196.205.158.353.33.483.506.13.174.237.353.332.527a6.118 6.118 0 0 1 .608 1.717c.02.09.027.162.035.21l.008.076s-.068-.082-.177-.226zm.785 2.558h-.022a.434.434 0 0 1-.356-.685.434.434 0 0 1 .28-.18.654.654 0 0 1 .143-.014c.315 0 1.356.124 4.217 1.28 2.387.964 3.597 1.166 4.193 1.166l.272-.004.21-.104a.443.443 0 0 1 .473.056.435.435 0 0 1 .057.615c-.064.077-.26.312-1.003.312-.98 0-2.504-.414-4.53-1.232-2.461-.994-3.461-1.175-3.777-1.207l-.078-.007-.079.004zm.155 8.758a4.837 4.837 0 1 1 9.673 0 4.837 4.837 0 0 1-9.673 0zm12.92 10.24c-1.02.303-1.387-.869-1.496-1.377.48-.301 1.037-.647 1.667-.89.196.527.669 2.016-.172 2.266zm1.655-.414c-.467-.176-.724-1.465-.818-2.057.12-.027.242-.05.366-.066a3.97 3.97 0 0 1 .465-.017c.25 0 .554.007.875.016l.285.007c.025.22.056.539.09 1.005.099 1.308-.987 1.215-1.263 1.112zm4.227-3.269c-1.024.458-3.927.123-4.815.24-1.656.218-2.898 1.22-3.726 1.678s-2.57 0-2.396-1.307c.174-1.308 2.244-1.918 2.244-1.918.37.458 1.285.872 3.442.523 2.157-.348 2.941-2.2 2.941-2.2 2.571.021 3.196.916 3.269 1.35.065.393.065 1.177-.96 1.634zm1.024-5.207a4.837 4.837 0 1 1 0-9.673 4.837 4.837 0 0 1 0 9.673zM6.517 14.026v.371z"/><path d="M35.029 11.114l-.009-.004-.004-.002.002.002.001.001.006.002zM14.214 51.733c-.831.19-3.28 1.521-5.394 1.925-2.115.404-3.945.618-4.587.856-.641.237-1.14.712.12 1.188 1.259.475 7.366.641 7.913 0 .546-.642-.377-.92-1.711-.903-.95.012-.834-.32-.832-.357 0 0 .06-.416 1.52-.618 1.46-.201 7.914-.808 7.796-1.497-.12-.689-3.993-.784-4.825-.594z"/><ellipse cx="10.026" cy="56.819" rx="1.265" ry=".368" transform="rotate(-12.277 10.026 56.819)"/><ellipse cx="7.097" cy="56.652" rx="1.331" ry=".356" transform="rotate(-4.552 7.097 56.652)"/><ellipse cx="4.756" cy="56.361" rx=".891" ry=".279" transform="rotate(-7.756 4.756 56.361)"/><ellipse cx="3.027" cy="56.094" rx=".861" ry=".226" transform="rotate(-8.26 3.027 56.094)"/><ellipse cx="2.635" cy="55.607" rx=".861" ry=".226" transform="rotate(-8.26 2.635 55.607)"/><ellipse cx="2.533" cy="55.056" rx=".749" ry=".196" transform="rotate(-8.26 2.533 55.056)"/><path d="M26.905 52.398c-1.45.072-4.73-.095-5.181.666-.452.76 1.33 1.046 4.135.808 2.804-.238 6.773-.547 6.94-1.402.166-.856-.738-.69-.833-1.236-.095-.547.999-.547 1.212-1.355.214-.808-1.473-.712-2.97-.712s-3.993.142-4.23.926 1.14.785 2.115.975c.974.19.689.546.689.546-.048.5-.428.713-1.877.784z"/><ellipse cx="23.028" cy="54.484" rx="1.257" ry=".41"/><ellipse cx="26.263" cy="54.395" rx=".838" ry=".374"/><ellipse cx="28.874" cy="54.127" rx=".918" ry=".303"/><ellipse cx="30.888" cy="53.789" rx=".668" ry=".321"/><ellipse cx="32.626" cy="53.423" rx=".677" ry=".312"/></svg>