<svg xmlns="http://www.w3.org/2000/svg" role="img" viewBox="-4.76 -0.26 442.26 429.76"><style>svg {enable-background:new 0 0 432 432}</style><style>.st0{fill:none}</style><path d="M151.6 157.6c.3 0 .5 0 .8-.1h.2c.3-.1.7-.2 1-.2 1.3-.4 2.3-.9 3.5-1.4 2.6-.9 4.8-1.7 6.9-2h.2c.8 0 1.7.6 2.1.8h.1l1.6-.3c4 12.2 12.2 22.1 22.7 28.3l-.7 1.7c.3.7.5 1.6.3 2.2-.8 2-2.1 4.1-3.6 6.4-.7 1.1-1.5 1.9-2.1 3.1-.2.3-.4.7-.5 1.1-1 2.2-.3 4.7 1.7 5.6.5.3 1.1.4 1.6.3 1.5 0 3-1 3.8-2.6.1-.3.4-.7.5-1 .6-1.3.7-2.4 1.1-3.6 1-2.6 1.6-5.4 3-7.1.4-.5 1-.6 1.7-.8l.9-1.6s.1 0 .1.1c5.7 2.2 11.8 3.3 18.1 3.3 3.7 0 7.5-.4 11.3-1.3 2.3-.5 4.6-1.2 6.8-2v.1c.3.5.7 1.3.8 1.5.7.2 1.4.3 2 1.2 1.1 1.8 1.8 4 2.7 6.6.4 1.2.6 2.3 1.1 3.6.1.3.3.7.5 1 .8 1.7 2.4 2.6 4 2.6.5 0 1-.1 1.4-.3 1.9-.9 2.7-3.4 1.7-5.6-.2-.3-.4-.8-.5-1.1-.7-1.2-1.4-2.1-2.1-3.1-1.5-2.3-2.7-4.3-3.5-6.2-.3-1 .1-1.7.3-2.3-.1-.2-.5-1.1-.7-1.6 10.9-6.4 18.9-16.7 22.7-28.5h.2c.5.1 1.3.2 1.5.3.6-.4 1.1-.9 2.2-.8 2.1.3 4.2 1.1 6.8 2 1.2.5 2.2 1 3.5 1.4.3.1.7.1 1 .2h.2c.3.1.7.1 1 .1 2 0 3.7-1.2 4.1-3 .5-2.1-1-4.2-3.3-4.8-.3-.1-.8-.2-1.1-.3-1.4-.3-2.5-.2-3.8-.3-2.8-.3-5-.5-7.1-1.2-.8-.3-1.4-1.3-1.7-1.7l-1.6-.5c.8-6 .6-12.2-.8-18.4-1.4-6.3-4-12-7.4-17 .4-.4 1.2-1.1 1.4-1.3.1-.7 0-1.4.7-2.2 1.5-1.5 3.5-2.7 5.9-4.1 1.1-.7 2.1-1.1 3.3-1.9.3-.2.6-.5.9-.7 1.9-1.5 2.3-4.1 1-5.8-.7-.8-1.7-1.3-2.7-1.4-1.1-.1-2.2.3-3.2 1-.3.2-.6.5-.9.7-1.1.9-1.7 1.8-2.6 2.7-1.9 2-3.5 3.6-5.3 4.8-.4.2-.8.3-1.3.3h-1.2l-1.4 1-.1.1c-8.5-8.9-20.2-14.7-32.7-15.8 0-.5-.1-1.5-.1-1.8-.5-.5-1.1-.9-1.3-2-.2-2.1.1-4.4.4-7.1.2-1.3.5-2.3.5-3.7v-1.1c0-2.4-1.7-4.3-3.8-4.4h-.1c-2.2 0-3.9 2-3.9 4.4v1.1c.1 1.4.4 2.5.5 3.7.3 2.7.6 5 .4 7.1-.2.8-.8 1.5-1.3 2l-.1 1.7c-2.4.2-4.7.6-7.1 1.1-10.2 2.3-18.9 7.5-25.6 14.6l-.1.1c-.4-.3-1.1-.8-1.4-1-.3 0-.6.1-1 .1s-.9-.1-1.4-.3c-1.8-1.2-3.4-2.8-5.3-4.8-.9-.9-1.5-1.8-2.6-2.7-.2-.2-.6-.5-.9-.7-.8-.6-1.8-1-2.7-1h-.1c-1.2 0-2.4.4-3.1 1.4-1.4 1.7-.9 4.3 1 5.8h.1c.3.2.6.5.8.7 1.1.8 2.1 1.3 3.3 1.9 2.4 1.5 4.3 2.7 5.9 4.1.6.6.7 1.8.8 2.3l1.3 1.1c-6.8 10.2-9.9 22.7-8 35.5l-1.6.5c-.4.6-1 1.4-1.7 1.7-2 .6-4.3.9-7.1 1.2-1.3.1-2.4 0-3.8.3-.3.1-.7.2-1.1.2h-.1c-2.3.6-3.8 2.7-3.3 4.8.7 1.8 2.5 3 4.6 3zm50.8-3.6l-7.9 19c-7.4-4.7-13.2-11.8-16.4-20.5l20.3-3.4c.2 0 .5-.1.7-.1 1.6 0 3 1.1 3.3 2.7.3.9.3 1.6 0 2.3zm23.3 24.5c-7.7 1.7-15.3 1.2-22.2-1.1l10-18.1c.6-1.1 1.7-1.8 2.9-1.8.5 0 1.1.1 1.6.3.7.3 1.2.9 1.6 1.5h.1l10 18.1c-1.3.4-2.7.8-4 1.1zm12.9-5.4l-8-19.2c-.7-1.7 0-3.7 1.7-4.5.4-.2.9-.3 1.3-.3.3 0 .5 0 .8.1l20.5 3.5c-2.9 8.2-8.7 15.5-16.3 20.4zm17.7-43.4c1 4.5 1.3 8.9.9 13.2l-19.9-5.7v-.1c-1.8-.5-2.9-2.3-2.5-4.1.2-.7.6-1.4 1.1-1.8l15.4-13.8c2.2 3.6 3.9 7.8 5 12.3zM245 109.6l-16.8 11.9h-.1c-1.5 1.1-3.6.8-4.8-.6-.5-.6-.7-1.3-.8-2l-1.2-20.6c9.1 1 17.4 5.1 23.7 11.3zm-31.6 22.6h6.3l3.9 4.9-1.4 6.1-5.7 2.7-5.7-2.7-1.4-6.1 4-4.9zm-6-33.2c1.4-.3 2.8-.6 4.2-.7l-1.2 20.6h-.1c-.1 1.8-1.6 3.3-3.5 3.3-.8 0-1.5-.2-2-.7l-16.9-12c5.2-5 11.8-8.8 19.5-10.5zm-25.7 18.3l15.5 13.8v.1c1.4 1.2 1.6 3.3.4 4.8-.5.6-1.1 1-1.8 1.2v.1L176 143c-1-9.3 1.2-18.2 5.7-25.7zm-79.5 141.1v81.5h229.1v-81.5H102.2zm141 13.1h5.1v23.4h-5.1v-23.4zm-27.6 0h4.7l11 14.4v-14.4h5.1v23.4H232L220.6 280v14.9h-5.1v-23.4zm-60.7 0h10.7c3 0 5.3.8 6.8 2.4.7.7 1.2 1.6 1.6 2.6.3.8.4 1.8.4 2.7v.1c0 1.8-.5 3.2-1.2 4.4-.9 1.3-2.2 2.3-3.8 2.9l5.7 8.4h-6l-5-7.5H160v7.5h-5.1v-23.5zm-23.4 0h19.4v4.7h-7.1v18.6h-5.1v-18.6h-7.1v-4.7zm15.8 48.5h-3.9v7h-5.1v-23.4h9.6c5.6 0 9 3.3 9 8.1v.1c-.1 5.4-4.3 8.2-9.6 8.2zm28.4 7l-2.1-5.2h-9.9l-2.1 5.2h-5.2l10-23.6h4.7l10 23.6h-5.4zm6.5-32.1H177l5.3-12.5.7-1.6 4-9.4h4.7l10 23.6h-5.4l-2.1-5.2h-9.9l-2.1 5.1zm16.6 32.1l-5-7.5h-4.1v7.5h-5.1v-23.4h10.7c3 0 5.3.8 6.8 2.4 1.3 1.3 2 3.1 2 5.3v.1c0 3.8-2 6.1-5 7.3l5.7 8.4h-6zm6.8-55.5h5.1v23.4h-5.1v-23.4zm20.9 36.9h-7.1V327h-5.1v-18.6h-7.1v-4.7h19.4v4.7zm24.7 18.6h-4.4l-11.3-14.9V327h-5.1v-23.3h4.7l7.3 9.6 1.8 2.4 1.8 2.4v-14.4h5.1V327zm23.4 0h-17.8v-23.4h17.6v4.6h-12.5v4.7h11v4.6h-11v4.9h12.7v4.6zm.4-32.1h-4.4L259.3 280v14.9h-5.1v-23.4h4.7l11 14.4v-14.4h5.1v23.4zm18.4 32.1l-5-7.5h-4.1v7.5h-5.1v-23.4h10.7c3 0 5.3.8 6.8 2.4 1.3 1.3 2 3.1 2 5.3v.1c0 3.8-2 6.1-5 7.3l5.7 8.4h-6zm8.5-35.5c-.1.1-.2.1-.3.2-2.4 1.9-5.6 3.5-9.7 3.5-7.3 0-12.3-5.1-12.3-12v-.1c0-6.6 5.2-12.1 12.3-12.1 4.2 0 6.7 1.1 9.2 3.2l-3.2 3.9c-1.8-1.5-3.4-2.4-6.1-2.4-3.7 0-6.7 3.3-6.7 7.3v.1c0 4.3 2.9 7.4 7.1 7.4 1.9 0 3.5-.5 4.8-1.4v-3.3h-5.2v-4.4H302v10.1z" class="st0"/><path d="M411.2 268.6L372.6 101 216.5 26.5 60.4 101.1l-8.9 38.5-29.7 129 108 134.3h173.3l108.1-134.3zM133 396.9h-.2L28.4 267.1l29-126.1 8.2-35.7 150.8-72.1h.1l150.8 72L404.6 267 300.3 396.9H133z" class="st0"/><path d="M306.9 249c-.6.2-1.2.3-1.9.5-.7.1-1.4.2-2.2.3-.8.1-1.5.1-2.3.1h.1c.8 0 1.6 0 2.4-.1.8-.1 1.5-.2 2.2-.3.7-.1 1.3-.3 1.9-.5s1-.4 1.4-.5l-.9-5.3c-.1 0-.1 0-.2.1l.8 5.2c-.2.1-.7.3-1.3.5zm-23.2.5c-.9.2-2 .3-3.3.3h.1c1.4 0 2.5-.1 3.4-.4s1.8-.5 2.6-.8l-.9-5.1c-.1 0-.1 0-.2.1l.9 5c-.9.4-1.7.6-2.6.9zm-5.8-23.3v-6.8h-.2v6.8zm-22.7-123.7c.2 0 .6.1.9 0-.3.1-.7 0-.9 0zm22.5 137.3c0 1.4.2 2.5.7 3.3.5.8 1.4 1.2 2.8 1.2h.1c-1.4 0-2.3-.4-2.8-1.2-.5-.8-.7-1.9-.7-3.3v-8.1h-.2v8.1zm19.2 3.3c1.1.8 2.5 1.2 4.3 1.2h.1c-1.8 0-3.2-.4-4.3-1.2-1.1-.8-1.7-1.9-1.8-3.2h-.2c.2 1.3.9 2.4 1.9 3.2zm12.7-5.7v1.3c0 .5-.1.9-.1 1.2h.2c0-.4.1-.8.1-1.2v-1.3c0-3.9-.9-6.8-2.8-8.9-1.8-2-4.4-3-7.5-3h-.1c3.1 0 5.6 1 7.4 3 1.9 2.1 2.8 5 2.8 8.9zm-24.3-11.2h.2v5.4h-.2zm-128.2-70.4c-1.2.5-2.2 1-3.5 1.4-.3.1-.7.2-1 .2h-.2c-.3.1-.5.1-.8.1.3 0 .7 0 1-.1h.2c.3-.1.7-.2 1-.2 1.3-.4 2.3-.9 3.5-1.4 2.6-.9 4.8-1.7 6.8-2h-.2c-2.1.3-4.2 1.1-6.8 2zm109.9-1.3h.1c.6-.4 1.1-.8 2.1-.8-1.1-.1-1.7.4-2.2.8zm-46.5-82.4v1.1c-.1 1.4-.4 2.5-.5 3.7-.3 2.7-.6 5-.4 7.1.2 1.1.8 1.5 1.3 2 0 .3.1 1.2.1 1.8 12.5 1.1 24.1 6.8 32.7 15.8l.1-.1c-8.5-8.9-20.1-14.6-32.6-15.7 0-.5-.1-1.5-.1-1.8-.5-.5-1.1-.9-1.3-2-.2-2.1.1-4.4.4-7.1.2-1.3.5-2.3.5-3.7v-1.1c0-2.4-1.8-4.4-3.9-4.4h-.1c2 .1 3.8 2 3.8 4.4zm51.6 22.3c1.4 1.7.9 4.3-1 5.8-.3.2-.6.5-.9.7-1.1.8-2.2 1.3-3.3 1.9-2.4 1.5-4.3 2.7-5.9 4.1-.7.8-.7 1.5-.7 2.2-.2.2-1 .9-1.4 1.3 3.4 5 5.9 10.8 7.4 17 1.4 6.2 1.6 12.4.8 18.4l1.6.5c.3.4.9 1.4 1.7 1.7 2 .6 4.3.9 7.1 1.2 1.3.1 2.4 0 3.8.3.3.1.8.2 1.1.3 2.3.6 3.8 2.7 3.3 4.8-.4 1.8-2.1 3-4.1 3 2 .1 3.8-1.1 4.3-3 .5-2.1-1-4.2-3.3-4.8-.3-.1-.8-.2-1.1-.3-1.4-.3-2.5-.2-3.8-.3-2.8-.3-5-.5-7.1-1.2-.8-.3-1.4-1.3-1.7-1.7l-1.6-.5c.8-6 .6-12.2-.8-18.4-1.4-6.3-4-12-7.4-17 .4-.4 1.2-1.1 1.4-1.3.1-.7 0-1.4.7-2.2 1.5-1.5 3.5-2.7 5.9-4.1 1.1-.7 2.1-1.1 3.3-1.9.3-.2.6-.5.9-.7 1.9-1.5 2.3-4.1 1-5.8-.7-.9-1.8-1.3-2.9-1.4 1 .1 2 .5 2.7 1.4zm-92.7 9.1c-.4-.3-1.1-.8-1.3-.9h-.1c.2.2 1 .7 1.4.9 0 .1 0 0 0 0zm-13.1 51.1s.1 0 0 0l1.6-.2-1.6.2zm76.3 28.2c.2.5.5 1.4.7 1.6-.2.7-.6 1.3-.3 2.3.8 2 2 3.9 3.5 6.2.7 1.1 1.5 1.9 2.1 3.1.2.3.4.7.5 1.1 1 2.2.3 4.7-1.7 5.6-.5.2-1 .3-1.4.3.6 0 1.1-.1 1.6-.3 1.9-.9 2.7-3.4 1.7-5.6-.2-.3-.4-.8-.5-1.1-.7-1.2-1.4-2.1-2.1-3.1-1.5-2.3-2.7-4.3-3.5-6.2-.3-1 .1-1.7.3-2.3-.1-.2-.5-1.1-.7-1.6 10.9-6.4 18.9-16.7 22.7-28.5h-.2c-3.8 11.8-11.9 22.1-22.7 28.5zm-74.9-88c1.1.9 1.7 1.8 2.6 2.7 1.9 2 3.5 3.6 5.3 4.8.5.3.9.4 1.4.3-.4 0-.7-.1-1.2-.3-1.8-1.2-3.4-2.8-5.3-4.8-.9-.9-1.5-1.8-2.6-2.7-.2-.2-.6-.5-.9-.7-.8-.7-1.8-1-2.7-1h-.1c.9 0 1.9.4 2.7 1 .2.2.6.5.8.7zm60.3 93.8c-3.8.9-7.6 1.3-11.3 1.3 3.8 0 7.7-.4 11.5-1.3 2.3-.5 4.5-1.2 6.6-2v-.1c-2.2.9-4.5 1.5-6.8 2.1zm-30.5-.5c-.7.2-1.3.4-1.7.8-1.4 1.7-2 4.5-3 7.1-.4 1.2-.6 2.3-1.1 3.6-.1.3-.3.7-.5 1-.8 1.6-2.3 2.5-3.8 2.6 1.6.1 3.2-.9 4-2.6.1-.3.4-.7.5-1 .6-1.3.7-2.4 1.1-3.6 1-2.6 1.6-5.4 3-7.1.4-.5 1-.6 1.7-.8l.9-1.6s-.1 0-.1-.1l-1 1.7zm-26 40.9c.8 1.1 1.4 2.3 1.9 3.8.4 1.5.6 3.1.6 4.9 0 1.8-.3 3.5-.8 5s-1.3 2.8-2.3 3.8c-1 1.1-2.2 1.9-3.7 2.4-1.4.6-3 .8-4.8.9h.1c1.8 0 3.5-.3 4.9-.9 1.4-.6 2.7-1.4 3.7-2.4 1-1.1 1.8-2.3 2.3-3.8.5-1.5.8-3.2.8-5 0-1.8-.2-3.5-.6-4.9-.4-1.5-1-2.7-1.9-3.8-.8-1.1-1.8-1.9-3.1-2.4-1.2-.6-2.6-.9-4.2-.9h-.1c1.5 0 2.9.3 4.1.9 1.2.5 2.3 1.3 3.1 2.4zm27.3 8.4v1.3c0 .5-.1.9-.1 1.2h.2c0-.4.1-.8.1-1.2v-1.3c0-3.9-.9-6.8-2.8-8.9-1.8-2-4.4-3-7.5-3h-.1c3.1 0 5.6 1 7.4 3 1.9 2.1 2.8 5 2.8 8.9zm130.6-10.7l-1.1 5c.1 0 .1 0 .2.1l1.1-5.1c-.7-.3-1.7-.6-3-.8-1.2-.2-2.6-.4-3.9-.4h-.1c1.3 0 2.6.1 3.8.4 1.3.3 2.3.6 3 .8zm-169.7-.1v-11.4h-.2v11.5c.1 0 .1 0 .2-.1zm160.3 5.9c0 .3 0 .5.1.7.1.2.3.4.5.6.3.2.6.4 1 .6.4.2 1 .5 1.7.7 1.4.5 2.5 1.1 3.4 1.6.9.5 1.6 1.1 2.1 1.7.5.6.9 1.3 1.1 2 .2.7.3 1.6.3 2.5 0 2.3-.8 4-2.5 5.2-1.6 1.2-4 1.7-7 1.8h.1c3 0 5.4-.6 7-1.8 1.7-1.2 2.5-2.9 2.5-5.2 0-1-.1-1.8-.3-2.5-.2-.7-.6-1.4-1.1-2-.5-.6-1.2-1.2-2.1-1.7-.9-.5-2.1-1-3.4-1.6-.7-.3-1.2-.5-1.7-.7-.4-.2-.8-.4-1-.6-.3-.2-.4-.4-.5-.6-.1-.2-.1-.4-.1-.7 0-1.1 1-1.7 2.9-1.7h-.1c-1.9 0-2.9.6-2.9 1.7z"/><path d="M57.6 141l8.2-35.7 150.8-72-.1-.1-150.8 72.1-8.2 35.7-29.1 126.1 104.4 129.8h.2L28.6 267.1zm263.3 103.6h.1c-1.1 0-2.2-.1-3.3-.4-1.1-.2-2.2-.6-3.3-1v.1c1 .4 2.1.7 3.1 1 1.2.2 2.3.3 3.4.3zM196.1 249c-.6.2-1.2.3-1.9.5-.7.1-1.4.2-2.2.3-.8.1-1.5.1-2.3.1h.1c.8 0 1.6 0 2.4-.1.8-.1 1.5-.2 2.2-.3.7-.1 1.3-.3 1.9-.5.6-.2 1-.4 1.4-.5l-.9-5.3c-.1 0-.1 0-.2.1l.8 5.2c-.2.1-.7.3-1.3.5zm57.9-5.9c1.1.8 2.5 1.2 4.3 1.2h.1c-1.8 0-3.2-.4-4.3-1.2-1.1-.8-1.7-1.9-1.8-3.2h-.2c.2 1.3.8 2.4 1.9 3.2zm12.7-5.7v1.3c0 .5-.1.9-.1 1.2h.2c0-.4.1-.8.1-1.2v-1.3c0-3.9-.9-6.8-2.8-8.9-1.8-2-4.4-3-7.5-3h-.1c3.1 0 5.6 1 7.4 3 1.9 2.1 2.8 5 2.8 8.9zm-37.3-6.1c-.5 0-1 .1-1.4.2v17.8h.2v-17.8c.4-.1.9-.1 1.4-.2.5 0 .9-.1 1.3-.1h-.1c-.4 0-.9.1-1.4.1zM264 249c-.6.2-1.2.3-1.9.5-.7.1-1.4.2-2.2.3-.8.1-1.5.1-2.3.1h.1c.8 0 1.6 0 2.4-.1.8-.1 1.5-.2 2.2-.3.7-.1 1.3-.3 1.9-.5s1-.4 1.4-.5l-.9-5.3c-.1 0-.1 0-.2.1l.8 5.2c-.3.1-.7.3-1.3.5zm-25.1-20.4c.7.9 1.3 2.1 1.6 3.3.3 1.3.5 2.7.5 4.3v13h.2v-13c0-1.6-.2-3-.5-4.3-.3-1.3-.8-2.4-1.6-3.3-.7-.9-1.7-1.7-3-2.2-1.3-.5-2.8-.8-4.7-.8h-.1c1.9 0 3.4.3 4.6.8 1.3.5 2.3 1.3 3 2.2zm-52.8 14.5c1.1.8 2.5 1.2 4.3 1.2h.1c-1.8 0-3.2-.4-4.3-1.2-1.1-.8-1.7-1.9-1.8-3.2h-.2c.3 1.3.9 2.4 1.9 3.2zm28.2-17.3c-.5 0-.9-.1-1.2-.1h-.1c.3 0 .7 0 1.2.1.5 0 1 .1 1.4.2.5.1 1 .2 1.4.3.5.1.9.2 1.2.4l-1.1 5.4h.2l1.1-5.4c-.3-.1-.8-.3-1.2-.4-.5-.1-1-.2-1.4-.3-.5-.1-1-.2-1.5-.2zm-3 5.6c-.6.1-1 .2-1.3.2v17.7h.2v-17.7c.3-.1.7-.2 1.3-.2.5-.1 1-.1 1.3-.1h-.1c-.4 0-.8 0-1.4.1z"/><path d="M110.3 249.3h.2v-10l-.2-.2v10.2zm5.4-13c.9.8 1.7 1.7 2.6 2.8.9 1.1 1.8 2.2 2.6 3.4.9 1.2 1.6 2.3 2.3 3.5.7 1.2 1.3 2.2 1.8 3.2h.2c-.5-1-1.1-2-1.8-3.2-.7-1.2-1.5-2.3-2.3-3.5-.9-1.2-1.7-2.3-2.6-3.4-.9-1.1-1.8-2-2.6-2.8 1.7-1.7 3.3-3.4 4.7-5 1.4-1.6 2.9-3.3 4.4-5.1h-.2c-1.5 1.8-3 3.5-4.4 5.1-1.4 1.6-3 3.3-4.7 5zm19.4 6.5c.5.9 1.5 1.4 3 1.4h.1c-1.4 0-2.4-.5-3-1.4-.5-.9-.8-2.5-.8-4.6v-12.1h-.2v12.1c0 2.2.3 3.7.9 4.6zm8 6.6c-1.7.3-3.4.4-5.3.4h.1c1.9 0 3.7-.1 5.4-.4s3.1-.6 4.2-.9v-22.3h-.2v22.3c-1.2.3-2.5.6-4.2.9zm73.4-222.9L372.6 101l38.6 167.6-108 134.3H129.9h173.3l108-134.3L372.6 101zM110.4 234.3v-19.1h-.2v19.3l.2-.2z"/><path d="M259.6 232.4c-.3-.4-.7-.7-1.2-1s-1.1-.4-1.9-.4c-.7 0-1.3.1-1.8.4-.5.2-.9.6-1.3 1-.3.4-.6.9-.8 1.4-.2.5-.3 1.1-.4 1.6h8.4c0-.6-.1-1.1-.3-1.6s-.4-1-.7-1.4zm-67.9 0c-.3-.4-.7-.7-1.2-1-.5-.3-1.1-.4-1.9-.4-.7 0-1.3.1-1.8.4-.5.2-.9.6-1.3 1-.3.4-.6.9-.8 1.4-.2.5-.3 1.1-.4 1.6h8.4c0-.6-.1-1.1-.3-1.6s-.4-1-.7-1.4zm111.5 1.4c-.2-.5-.4-1-.7-1.4-.3-.4-.7-.7-1.2-1-.5-.3-1.1-.4-1.9-.4-.7 0-1.3.1-1.8.4-.5.2-.9.6-1.3 1-.3.4-.6.9-.8 1.4-.2.5-.3 1.1-.4 1.6h8.4c0-.6-.1-1.1-.3-1.6zm-83.6-74.5c-.3-.6-.9-1.1-1.6-1.5-.5-.3-1.1-.4-1.6-.3-1.2 0-2.3.7-2.9 1.8l-10 18.1c6.9 2.4 14.5 2.9 22.2 1.1 1.4-.3 2.7-.7 4-1.1l-10.1-18.1zm3-40.4c0 .7.3 1.4.8 2 1.2 1.5 3.3 1.7 4.8.6h.1l16.8-11.9c-6.3-6.2-14.6-10.3-23.6-11.4l1.1 20.7zm11.9 30.2c-.3 0-.5-.1-.8-.1-.4 0-.9.1-1.3.3-1.7.8-2.4 2.8-1.7 4.5l8 19.2c7.7-4.9 13.4-12.2 16.4-20.6l-20.6-3.3zm-31.9 2.7c-.4-1.6-1.8-2.7-3.3-2.7-.2 0-.5 0-.7.1l-20.3 3.4c3.1 8.7 9 15.7 16.4 20.5l7.9-19-.1-.1c.2-.7.2-1.4.1-2.2zm8.2-8.5l5.7 2.7 5.7-2.7 1.4-6.2-3.9-4.9h-6.3l-4 4.9zm-6-21.7c.6.4 1.3.7 2 .7 1.9 0 3.4-1.5 3.5-3.3h.1l1.2-20.6c-1.4.2-2.8.4-4.2.7-7.7 1.7-14.3 5.5-19.5 10.6l16.9 11.9zm31 9.5c-.5.5-.9 1.1-1.1 1.8-.4 1.8.7 3.6 2.5 4.1v.1l19.9 5.7c.4-4.3.2-8.7-.9-13.2-1-4.5-2.8-8.7-5.1-12.4l-15.3 13.9zm-40 6.1c.7-.3 1.3-.7 1.8-1.3 1.2-1.5 1-3.6-.4-4.8v-.1l-15.5-13.8c-4.6 7.5-6.8 16.4-5.8 25.7l19.9-5.7zm-36.3 106.9c.3.1.7.1 1.2.2.5 0 1 .1 1.6.1 1.7 0 3-.6 3.9-1.8.9-1.2 1.3-2.9 1.3-4.9 0-4.2-1.5-6.3-4.5-6.3-.7 0-1.3.1-1.9.3-.6.2-1.2.4-1.6.7v11.7z"/><path d="M428.5 259.5L392 100.8c-1.9-8.2-7.7-15.4-15.3-19L228.8 11.1c-4.2-2-9-3-13.7-2.7-3.7.2-7.5 1.1-10.8 2.7L56.4 81.8c-7.6 3.6-13.4 10.8-15.3 19L4.6 259.5c-1.7 7.3-.3 15.2 3.8 21.5.5.8 1 1.5 1.6 2.2l102.3 127.3c5.3 6.6 13.6 10.6 22.1 10.6h164.1c8.5 0 16.8-4 22.1-10.5L423 283.2c5.3-6.5 7.4-15.5 5.5-23.7zm-17.3 9.1L303.2 403H129.9l-108-134.3 29.7-129 8.9-38.5 156.1-74.6 156 74.4 38.6 167.6z"/><path d="M266.7 239.9c0-.4.1-.8.1-1.2v-1.3c0-3.9-.9-6.8-2.8-8.9-1.8-2-4.4-3-7.5-3h-.2c-1.4 0-2.7.3-4 .8-1.3.5-2.4 1.3-3.4 2.3-1 1-1.8 2.3-2.4 3.8-.6 1.5-.9 3.3-.9 5.4 0 1.7.2 3.3.7 4.7.5 1.5 1.2 2.7 2.2 3.8 1 1.1 2.2 1.9 3.7 2.5 1.5.6 3.2.9 5.3.9h.2c.8 0 1.6 0 2.4-.1.8-.1 1.5-.2 2.2-.3.7-.1 1.3-.3 1.9-.5s1-.4 1.4-.5l-.9-5.3c-.1 0-.1 0-.2.1v-.1c-.7.3-1.6.6-2.7.8-1.1.2-2.2.3-3.3.3-1.8 0-3.2-.4-4.3-1.2-1.1-.8-1.7-1.9-1.8-3.2h14.3zm-31.9 9.4h6.4v-13c0-1.6-.2-3-.5-4.3-.3-1.3-.8-2.4-1.6-3.3-.7-.9-1.7-1.7-3-2.2-1.3-.5-2.8-.8-4.7-.8h-.2c-1.9 0-3.7.1-5.4.4s-3.1.6-4.2.9v22.3h6.6v-17.8c.4-.1.9-.1 1.4-.2.5 0 .9-.1 1.3-.1 1.4 0 2.4.4 3 1.3.5.9.8 2.4.8 4.5v12.3h.1zm-83.2-91.7c.3 0 .7 0 1-.1h.2c.3-.1.7-.2 1-.2 1.3-.4 2.3-.9 3.5-1.4 2.6-.9 4.8-1.7 6.8-2 .8 0 1.7.6 2.1.8h.1l1.5-.3c4 12.2 12.2 22.1 22.7 28.3l-.7 1.7c.3.7.5 1.6.3 2.2-.8 2-2.1 4.1-3.6 6.4-.7 1.1-1.5 1.9-2.1 3.1-.2.3-.4.7-.5 1.1-1 2.2-.3 4.7 1.7 5.6.5.3 1.1.4 1.6.3 1.6.1 3.2-.9 4-2.6.1-.3.4-.7.5-1 .6-1.3.7-2.4 1.1-3.6 1-2.6 1.6-5.4 3-7.1.4-.5 1-.6 1.7-.8l.9-1.6c5.7 2.2 11.8 3.3 18.1 3.3 3.8 0 7.7-.4 11.5-1.3 2.3-.5 4.5-1.2 6.6-2 .3.5.7 1.3.8 1.5.7.2 1.4.3 2 1.2 1.1 1.8 1.8 4 2.7 6.6.4 1.2.6 2.3 1.1 3.6.1.3.3.7.5 1 .8 1.7 2.4 2.6 4 2.6.6 0 1.1-.1 1.6-.3 1.9-.9 2.7-3.4 1.7-5.6-.2-.3-.4-.8-.5-1.1-.7-1.2-1.4-2.1-2.1-3.1-1.5-2.3-2.7-4.3-3.5-6.2-.3-1 .1-1.7.3-2.3-.1-.2-.5-1.1-.7-1.6 10.9-6.4 18.9-16.7 22.7-28.5.5.1 1.3.2 1.5.3h.1c.6-.4 1.1-.8 2.1-.8 2.1.3 4.2 1.1 6.8 2 1.2.5 2.2 1 3.5 1.4.3.1.7.1 1 .2h.2c.3.1.7.1 1 .1 2 .1 3.8-1.1 4.3-3 .5-2.1-1-4.2-3.3-4.8-.3-.1-.8-.2-1.1-.3-1.4-.3-2.5-.2-3.8-.3-2.8-.3-5-.5-7.1-1.2-.8-.3-1.4-1.3-1.7-1.7l-1.6-.5c.8-6 .6-12.2-.8-18.4-1.4-6.3-4-12-7.4-17 .4-.4 1.2-1.1 1.4-1.3.1-.7 0-1.4.7-2.2 1.5-1.5 3.5-2.7 5.9-4.1 1.1-.7 2.1-1.1 3.3-1.9.3-.2.6-.5.9-.7 1.9-1.5 2.3-4.1 1-5.8-.7-.9-1.8-1.3-2.9-1.4-1.1-.1-2.2.3-3.2 1-.3.2-.6.5-.9.7-1.1.9-1.7 1.8-2.6 2.7-1.9 2-3.5 3.6-5.3 4.8-.4.2-.8.3-1.3.3h-1.1l-1.4 1c-8.5-8.9-20.1-14.6-32.6-15.7 0-.5-.1-1.5-.1-1.8-.5-.5-1.1-.9-1.3-2-.2-2.1.1-4.4.4-7.1.2-1.3.5-2.3.5-3.7v-1.1c0-2.4-1.8-4.4-3.9-4.4h-.2c-2.2 0-3.9 2-3.9 4.4V73c.1 1.4.4 2.5.5 3.7.3 2.7.6 5 .4 7.1-.2.8-.8 1.5-1.3 2l-.1 1.7c-2.4.2-4.7.6-7.1 1.1-10.2 2.3-18.9 7.5-25.6 14.6-.4-.3-1.1-.8-1.3-.9h-.1c-.3 0-.6.1-1 .1s-.7-.1-1.2-.3c-1.8-1.2-3.4-2.8-5.3-4.8-.9-.9-1.5-1.8-2.6-2.7-.2-.2-.6-.5-.9-.7-.8-.7-1.8-1-2.7-1h-.2c-1.2 0-2.4.4-3.1 1.4-1.4 1.7-.9 4.3 1 5.8h.1c.3.2.6.5.8.7 1.1.8 2.1 1.3 3.3 1.9 2.4 1.5 4.3 2.7 5.9 4.1.6.6.7 1.8.8 2.3l1.3 1.1c-6.8 10.2-9.9 22.7-8 35.5l-1.6.5c-.4.6-1 1.4-1.7 1.7-2 .6-4.3.9-7.1 1.2-1.3.1-2.4 0-3.8.3-.3.1-.7.2-1.1.2h-.1c-2.3.6-3.8 2.7-3.3 4.8.5 2 2.3 3.2 4.4 3.2zm119.8 62.8v19.4c0 1.5.1 2.9.4 4.1.3 1.2.7 2.3 1.4 3.1.7.9 1.6 1.5 2.7 2s2.6.7 4.3.7h.2c1.4 0 2.5-.1 3.4-.4s1.8-.5 2.6-.8l-.9-5.1c-.1 0-.1 0-.2.1v-.1c-.6.2-1.3.4-2 .5-.7.1-1.3.2-2 .2-1.4 0-2.3-.4-2.8-1.2-.5-.8-.7-1.9-.7-3.3v-8.1h7.6v-5.4h-7.6v-6.8h-.2l-6.2 1.1zm-57.1 5.4c-.5 0-.9-.1-1.2-.1h-.2c-1.9 0-3.6.2-5.2.5-1.5.4-2.9.8-4 1.2v21.9h6.6v-17.7c.3-.1.7-.2 1.3-.2.5-.1 1-.1 1.3-.1.8 0 1.6.1 2.4.2.8.2 1.4.3 2 .5h.2l1.1-5.4c-.3-.1-.8-.3-1.2-.4-.5-.1-1-.2-1.4-.3-.7 0-1.2-.1-1.7-.1zm77.2 20.7c1 1.1 2.2 1.9 3.7 2.5 1.5.6 3.2.9 5.3.9h.2c.8 0 1.6 0 2.4-.1.8-.1 1.5-.2 2.2-.3.7-.1 1.3-.3 1.9-.5s1-.4 1.4-.5l-.9-5.3c-.1 0-.1 0-.2.1v-.1c-.7.3-1.6.6-2.7.8-1.1.2-2.2.3-3.3.3-1.8 0-3.2-.4-4.3-1.2-1.1-.8-1.7-1.9-1.8-3.2h14.4c0-.4.1-.8.1-1.2v-1.3c0-3.9-.9-6.8-2.8-8.9-1.8-2-4.4-3-7.5-3h-.2c-1.4 0-2.7.3-4 .8-1.3.5-2.4 1.3-3.4 2.3-1 1-1.8 2.3-2.4 3.8-.6 1.5-.9 3.3-.9 5.4 0 1.7.2 3.3.7 4.7.4 1.6 1.1 2.9 2.1 4zm31.9-2.3c-.5.2-1.3.3-2.3.3-1.1 0-2.2-.1-3.3-.4-1.1-.2-2.2-.6-3.3-1v.1c-.1 0-.1 0-.2-.1l-1.1 5.3c.5.2 1.4.5 2.7.9s3 .5 5 .5h.2c3 0 5.4-.6 7-1.8 1.7-1.2 2.5-2.9 2.5-5.2 0-1-.1-1.8-.3-2.5-.2-.7-.6-1.4-1.1-2-.5-.6-1.2-1.2-2.1-1.7-.9-.5-2.1-1-3.4-1.6-.7-.3-1.2-.5-1.7-.7-.4-.2-.8-.4-1-.6-.3-.2-.4-.4-.5-.6-.1-.2-.1-.4-.1-.7 0-1.1 1-1.7 2.9-1.7 1 0 2 .1 2.8.3.9.2 1.7.4 2.4.7v-.1c.1 0 .1 0 .2.1l1.1-5.1c-.7-.3-1.7-.6-3-.8-1.2-.2-2.6-.4-3.9-.4h-.2c-2.7 0-4.9.6-6.4 1.9-1.6 1.3-2.3 3-2.3 5.1 0 1.1.2 2.1.5 2.9.3.8.8 1.5 1.3 2 .6.6 1.3 1.1 2.1 1.5.8.4 1.7.8 2.7 1.2 1.3.5 2.2.9 2.9 1.3.6.4.9.9.9 1.4-.3.8-.5 1.3-1 1.5zm-221.2 14.2v81.5h229.1v-81.5h-.2zm96.7-18.5c0-.4.1-.8.1-1.2v-1.3c0-3.9-.9-6.8-2.8-8.9-1.8-2-4.4-3-7.5-3h-.2c-1.4 0-2.7.3-4 .8-1.3.5-2.4 1.3-3.4 2.3-1 1-1.8 2.3-2.4 3.8-.6 1.5-.9 3.3-.9 5.4 0 1.7.2 3.3.7 4.7.5 1.5 1.2 2.7 2.2 3.8 1 1.1 2.2 1.9 3.7 2.5 1.5.6 3.2.9 5.3.9h.2c.8 0 1.6 0 2.4-.1.8-.1 1.5-.2 2.2-.3.7-.1 1.3-.3 1.9-.5.6-.2 1-.4 1.4-.5l-.9-5.3c-.1 0-.1 0-.2.1v-.1c-.7.3-1.6.6-2.7.8-1.1.2-2.2.3-3.3.3-1.8 0-3.2-.4-4.3-1.2-1.1-.8-1.7-1.9-1.8-3.2h14.3zm-68.9 6.9c.7 1 1.7 1.7 3 2.2 1.3.5 2.8.8 4.7.8h.2c1.9 0 3.7-.1 5.4-.4s3.1-.6 4.2-.9v-22.3h-6.6V244c-.4.1-.9.1-1.4.2-.5 0-.9.1-1.3.1-1.4 0-2.4-.5-3-1.4-.5-.9-.8-2.5-.8-4.6v-12.1h-6.6v12.9c0 1.6.2 3 .5 4.3.4 1.3.9 2.5 1.7 3.4zm23.2-30.5v32.3c.6.2 1.2.3 2 .5.7.2 1.5.3 2.3.4.8.1 1.6.2 2.5.3.8.1 1.6.1 2.4.1h.2c1.8 0 3.5-.3 4.9-.9 1.4-.6 2.7-1.4 3.7-2.4 1-1.1 1.8-2.3 2.3-3.8.5-1.5.8-3.2.8-5 0-1.8-.2-3.5-.6-4.9-.4-1.5-1-2.7-1.9-3.8-.8-1.1-1.8-1.9-3.1-2.4-1.2-.6-2.6-.9-4.2-.9h-.2c-.9 0-1.7.1-2.5.3-.7.2-1.4.4-2 .7v-11.4h-.2l-6.4.9zm-42.9 33h.2v-10c.6.6 1.3 1.2 2 2 .7.9 1.4 1.7 2.1 2.7.7.9 1.3 1.8 1.8 2.8.6.9 1.1 1.8 1.5 2.5h7.5c-.5-1-1.1-2-1.8-3.2-.7-1.2-1.5-2.3-2.3-3.5-.9-1.2-1.7-2.3-2.6-3.4-.9-1.1-1.8-2-2.6-2.8 1.7-1.7 3.3-3.4 4.7-5 1.4-1.6 2.9-3.3 4.4-5.1h-7.8c-.4.5-.9 1.1-1.4 1.7-.6.7-1.1 1.4-1.8 2.1-.6.7-1.3 1.5-1.9 2.3-.6.7-1.2 1.3-1.8 2v-19.1h-.2l-6.3 1.1v33h6.3z" class="st0"/><path d="M367.4 105.2l-150.8-72-150.7 72-8.3 35.8-29 126.1L133 396.9h167.3l104.3-129.8-37.2-161.9zm-44.2 136.3c-.6-.4-1.6-.8-2.9-1.3-1-.4-1.9-.8-2.7-1.2-.8-.4-1.5-.9-2.1-1.5-.6-.6-1-1.3-1.3-2-.3-.8-.5-1.7-.5-2.9 0-2.2.8-3.9 2.3-5.1 1.6-1.3 3.7-1.9 6.4-1.9h.2c1.4 0 2.7.1 3.9.4 1.2.2 2.2.5 3 .8l-1.1 5.1c-.1 0-.1 0-.2-.1v.1c-.7-.3-1.5-.5-2.4-.7-.8-.2-1.8-.3-2.8-.3-1.9 0-2.9.6-2.9 1.7 0 .3 0 .5.1.7.1.2.3.4.5.6.3.2.6.4 1 .6.4.2 1 .5 1.7.7 1.4.5 2.5 1.1 3.4 1.6.9.5 1.6 1.1 2.1 1.7.5.6.9 1.3 1.1 2 .2.7.3 1.6.3 2.5 0 2.3-.8 4-2.5 5.2-1.7 1.2-4 1.8-7 1.8h-.2c-2 0-3.6-.2-5-.5s-2.2-.6-2.7-.9l1.1-5.3c.1 0 .1 0 .2.1v-.1c1.1.4 2.2.8 3.3 1 1.1.2 2.2.4 3.3.4 1.1 0 1.9-.1 2.3-.3.5-.2.7-.7.7-1.4.3-.7 0-1.1-.6-1.5zm-33.7-9c.6-1.5 1.4-2.8 2.4-3.8s2.1-1.8 3.4-2.3c1.3-.5 2.6-.8 4-.8h.2c3.2 0 5.7 1 7.5 3 1.8 2 2.8 5 2.8 8.9v1.3c0 .5-.1.9-.1 1.2h-14.4c.1 1.3.8 2.4 1.8 3.2 1.1.8 2.5 1.2 4.3 1.2 1.1 0 2.2-.1 3.3-.3 1.1-.2 2-.5 2.7-.8v.1c.1 0 .1 0 .2-.1l.9 5.3c-.3.2-.8.4-1.4.5s-1.2.3-1.9.5c-.7.1-1.4.2-2.2.3-.8.1-1.6.1-2.4.1h-.2c-2 0-3.8-.3-5.3-.9-1.5-.6-2.7-1.5-3.7-2.5-1-1.1-1.7-2.3-2.2-3.8-.5-1.5-.7-3-.7-4.7.1-2.2.4-4 1-5.6zm-11.6-13.1v6.8h7.6v5.4h-7.6v8.1c0 1.4.2 2.5.7 3.3.5.8 1.4 1.2 2.8 1.2.6 0 1.3-.1 2-.2s1.4-.3 2-.5v.1c.1 0 .1 0 .2-.1l.9 5.1c-.8.3-1.6.6-2.6.8s-2.1.4-3.4.4h-.2c-1.7 0-3.2-.2-4.3-.7-1.1-.5-2-1.2-2.7-2-.7-.9-1.2-1.9-1.4-3.1-.3-1.2-.4-2.6-.4-4.1v-19.4l6.3-1.1h.1zm-127.3-69.6c.1 0 .1 0 0 0 .1 0 .1 0 0 0 .4-.1.8-.2 1.1-.3 1.4-.3 2.5-.2 3.8-.3 2.8-.3 5-.5 7.1-1.2.6-.3 1.3-1.1 1.7-1.7l1.6-.5c-1.8-12.8 1.3-25.3 8-35.5l-1.3-1.1c-.1-.5-.2-1.6-.8-2.3-1.5-1.5-3.5-2.7-5.9-4.1-1.1-.7-2.1-1.1-3.3-1.9-.2-.2-.6-.4-.8-.7h-.1c-1.9-1.5-2.3-4.1-1-5.8.8-1 1.9-1.4 3.1-1.4h.2c.9 0 1.9.4 2.7 1 .3.2.6.5.9.7 1.1.9 1.7 1.8 2.6 2.7 1.9 2 3.5 3.6 5.3 4.8.4.3.8.3 1.2.3.3 0 .7-.1 1-.1h.1c.2.2.9.6 1.3.9 6.7-7.1 15.5-12.3 25.6-14.6 2.4-.5 4.8-.9 7.1-1.1l.1-1.7c.5-.5 1.1-1.2 1.3-2 .2-2.1-.1-4.4-.4-7.1-.2-1.3-.5-2.3-.5-3.7V72c0-2.4 1.8-4.4 3.9-4.4h.2c2.2 0 3.9 2 3.9 4.4v1.1c-.1 1.4-.4 2.5-.5 3.7-.3 2.7-.6 5-.4 7.1.2 1.1.8 1.5 1.3 2 0 .3.1 1.2.1 1.8 12.5 1.1 24.1 6.8 32.6 15.7l1.4-1h1.1c.4 0 .9-.1 1.3-.3 1.8-1.2 3.4-2.8 5.3-4.8.9-.9 1.5-1.8 2.6-2.7.2-.2.6-.5.9-.7 1-.8 2.1-1.1 3.2-1 1.1 0 2.2.5 2.9 1.4 1.4 1.7.9 4.3-1 5.8-.3.2-.6.5-.9.7-1.1.8-2.2 1.3-3.3 1.9-2.4 1.5-4.3 2.7-5.9 4.1-.7.8-.7 1.5-.7 2.2-.2.2-1 .9-1.4 1.3 3.4 5 5.9 10.8 7.4 17 1.4 6.2 1.6 12.4.8 18.4l1.6.5c.3.4.9 1.4 1.7 1.7 2 .6 4.3.9 7.1 1.2 1.3.1 2.4 0 3.8.3.3.1.8.2 1.1.3 2.3.6 3.8 2.7 3.3 4.8-.4 1.9-2.2 3.1-4.3 3-.3 0-.7 0-1-.1h-.2c-.3-.1-.7-.1-1-.2-1.3-.4-2.3-.9-3.5-1.4-2.6-.9-4.7-1.7-6.8-2-1 0-1.5.4-2.1.8h-.1c-.3-.1-1-.2-1.5-.3-3.8 11.8-11.8 22.1-22.7 28.5.2.5.5 1.4.7 1.6-.2.7-.6 1.3-.3 2.3.8 2 2 3.9 3.5 6.2.7 1.1 1.5 1.9 2.1 3.1.2.3.4.7.5 1.1 1 2.2.3 4.7-1.7 5.6-.5.3-1.1.4-1.6.3-1.6.1-3.2-.9-4-2.6-.1-.3-.4-.7-.5-1-.6-1.3-.8-2.4-1.1-3.6-.9-2.6-1.6-4.8-2.7-6.6-.6-.9-1.3-1-2-1.2-.1-.2-.6-1-.8-1.5-2.1.8-4.3 1.5-6.6 2-3.9.9-7.7 1.3-11.5 1.3-6.3 0-12.4-1.2-18.1-3.3l-.9 1.6c-.7.2-1.3.4-1.7.8-1.4 1.7-2 4.5-3 7.1-.4 1.2-.6 2.3-1.1 3.6-.1.3-.3.7-.5 1-.8 1.7-2.4 2.6-4 2.6-.6 0-1.1-.1-1.6-.3-1.9-.9-2.7-3.4-1.7-5.6.1-.3.3-.8.5-1.1.7-1.2 1.4-2.1 2.1-3.1 1.5-2.3 2.8-4.4 3.6-6.4.2-.7-.1-1.6-.3-2.2l.7-1.7c-10.5-6.2-18.7-16.1-22.7-28.3l-1.5.3h-.1c-.4-.2-1.3-.8-2.1-.8-2.1.3-4.3 1.1-6.8 2-1.2.5-2.2 1-3.5 1.4-.3.1-.7.2-1 .2h-.2c-.3.1-.7.1-1 .1-2 .1-3.8-1.1-4.3-3-.5-2.2 1-4.4 3.3-4.9zm103.6 93.3c1.1.8 2.5 1.2 4.3 1.2 1.1 0 2.2-.1 3.3-.3 1.1-.2 2-.5 2.7-.8v.1c.1 0 .1 0 .2-.1l.9 5.3c-.3.2-.8.4-1.4.5s-1.2.3-1.9.5c-.7.1-1.4.2-2.2.3-.8.1-1.6.1-2.4.1h-.2c-2 0-3.8-.3-5.3-.9-1.5-.6-2.7-1.5-3.7-2.5-1-1.1-1.7-2.3-2.2-3.8-.5-1.5-.7-3-.7-4.7 0-2.1.3-3.8.9-5.4.6-1.5 1.4-2.8 2.4-3.8s2.1-1.8 3.4-2.3c1.3-.5 2.6-.8 4-.8h.2c3.2 0 5.7 1 7.5 3 1.8 2 2.8 5 2.8 8.9v1.3c0 .5-.1.9-.1 1.2h-14.4c.2 1.1.8 2.2 1.9 3zm-20.4-10.6c-.5-.9-1.5-1.3-3-1.3-.4 0-.9 0-1.3.1-.5 0-1 .1-1.4.2v17.8h-6.5V227c1.1-.3 2.5-.6 4.2-.9s3.5-.4 5.4-.4h.2c1.9 0 3.5.3 4.7.8 1.3.5 2.3 1.2 3 2.2.7.9 1.3 2.1 1.6 3.3.3 1.3.5 2.7.5 4.3v13h-6.6V237c0-2.1-.2-3.6-.8-4.5zm-15.4-5.9l-1.1 5.4h-.2c-.6-.1-1.2-.3-2-.5-.7-.2-1.5-.2-2.4-.2-.4 0-.8 0-1.3.1-.6.1-1 .2-1.3.2v17.7h-6.6v-21.9c1.1-.4 2.5-.8 4-1.2 1.5-.4 3.3-.5 5.2-.5h.2c.3 0 .8 0 1.2.1.5 0 1 .1 1.4.2.5.1 1 .2 1.4.3.8 0 1.2.1 1.5.3zm-32.1 16.5c1.1.8 2.5 1.2 4.3 1.2 1.1 0 2.2-.1 3.3-.3 1.1-.2 2-.5 2.7-.8v.1c.1 0 .1 0 .2-.1l.9 5.3c-.3.2-.8.4-1.4.5-.6.2-1.2.3-1.9.5-.7.1-1.4.2-2.2.3-.8.1-1.6.1-2.4.1h-.2c-2 0-3.8-.3-5.3-.9-1.5-.6-2.7-1.5-3.7-2.5-1-1.1-1.7-2.3-2.2-3.8-.5-1.5-.7-3-.7-4.7 0-2.1.3-3.8.9-5.4.6-1.5 1.4-2.8 2.4-3.8s2.1-1.8 3.4-2.3c1.3-.5 2.6-.8 4-.8h.2c3.2 0 5.7 1 7.5 3 1.8 2 2.8 5 2.8 8.9v1.3c0 .5-.1.9-.1 1.2h-14.4c.2 1.1.9 2.2 1.9 3zm-26.6-27.9v11.4c.7-.3 1.3-.5 2-.7.8-.2 1.6-.3 2.5-.3h.2c1.6 0 3 .3 4.2.9 1.2.6 2.2 1.4 3.1 2.4.8 1.1 1.4 2.3 1.9 3.8.4 1.5.6 3.1.6 4.9 0 1.8-.3 3.5-.8 5s-1.3 2.8-2.3 3.8c-1 1.1-2.2 1.9-3.7 2.4-1.4.6-3.1.9-4.9.9h-.2c-.8 0-1.6 0-2.4-.1-.8-.1-1.7-.2-2.5-.3-.8-.1-1.6-.3-2.3-.4-.7-.2-1.4-.3-2-.5v-32.3l6.3-1.1.3.2zm-31.8 11h6.6v12.1c0 2.1.3 3.6.8 4.6.5.9 1.5 1.4 3 1.4.4 0 .9 0 1.3-.1.5 0 1-.1 1.4-.2v-17.8h6.6v22.3c-1.1.3-2.5.6-4.2.9s-3.5.4-5.4.4h-.2c-1.9 0-3.5-.3-4.7-.8-1.3-.5-2.3-1.3-3-2.2-.7-1-1.3-2.1-1.6-3.4-.3-1.3-.5-2.8-.5-4.3v-12.9zm-24-9.9l6.3-1.1h.2v19.1c.6-.6 1.2-1.3 1.8-2 .7-.8 1.3-1.5 1.9-2.3l1.8-2.1c.6-.7 1-1.3 1.4-1.7h7.8c-1.5 1.8-3 3.5-4.4 5.1-1.4 1.6-3 3.3-4.7 5 .9.8 1.7 1.7 2.6 2.8.9 1.1 1.8 2.2 2.6 3.4.9 1.2 1.6 2.3 2.3 3.5.7 1.2 1.3 2.2 1.8 3.2h-7.5c-.5-.8-1-1.6-1.5-2.5-.6-.9-1.2-1.8-1.8-2.8-.7-.9-1.3-1.8-2.1-2.7-.7-.8-1.3-1.4-2-2v10h-6.6v-32.9zm227.4 123.6H102.2v-81.5h229.1v81.5z"/><path d="M138.6 294.9h5.2v-18.7h7.1v-4.7h-19.4v4.7h7.1zm21.4-7.5h4.1l5 7.5h6l-5.7-8.4c1.6-.6 2.9-1.5 3.8-2.9.8-1.2 1.2-2.6 1.2-4.4v-.1c0-1-.2-1.9-.4-2.7-.3-1-.9-1.9-1.6-2.6-1.5-1.5-3.8-2.4-6.8-2.4h-10.7v23.4h5.1v-7.4zm0-11.3h5.1c2.5 0 4 1.1 4 3.3v.1c0 2-1.4 3.3-3.9 3.3H160v-6.7z"/><path d="M191.8 271.3H187l-4 9.4-.7 1.6-5.3 12.5h5.2l2.1-5.2h9.9l2.1 5.2h5.4l-9.9-23.5zm-5.6 13.8l3.1-7.6 3.1 7.6h-6.2z"/><path d="M205.6 271.5h5.1v23.4h-5.1zm15 8.5l11.4 14.9h4.3v-23.4h-5v14.4l-11-14.4h-4.7v23.4h5zm22.6-8.5h5.1v23.4h-5.1zm26.7 14.4L259 271.5h-4.8v23.4h5.1V280l11.3 14.9h4.4v-23.4h-5.1zm21.8-4.5v4.4h5.2v3.3c-1.3.9-3 1.4-4.8 1.4-4.1 0-7.1-3.1-7.1-7.4v-.1c0-4 3-7.3 6.7-7.3 2.7 0 4.3.9 6.1 2.4l3.2-3.9c-2.4-2.1-5-3.2-9.2-3.2-7.1 0-12.3 5.4-12.3 12.1v.1c0 6.9 5 12 12.3 12 4.1 0 7.3-1.6 9.7-3.5.1-.1.2-.1.3-.2v-10.2h-10.1zm-134.9 30.3c0-4.8-3.4-8.1-9-8.1h-9.6V327h5.1v-7h3.9c5.4 0 9.6-2.8 9.6-8.3zm-5.2.2c0 2-1.5 3.5-4.1 3.5h-4.1v-7.1h4c1.2 0 2.1.3 2.9.8.8.5 1.3 1.5 1.3 2.8z"/><path d="M165.5 317.2h6.2l-3.1-7.6z" class="st0"/><path d="M171 303.5h-4.7l-10 23.6h5.2l2.1-5.2h9.9l2.1 5.2h5.4l-10-23.6zm-5.5 13.7l3.1-7.6 3.1 7.6h-6.2zm38.7-5.8c0-2.3-.7-4.1-2-5.4-1.5-1.5-3.8-2.4-6.8-2.4h-10.7V327h5.1v-7.5h4.1l5 7.5h6l-5.7-8.4c2.9-1 5-3.4 5-7.2zm-5.3.3c0 2-1.4 3.3-3.9 3.3h-5.2v-6.7h5.1c2.5 0 4 1.1 4 3.4zm8.2-3.3h7.1V327h5.2v-18.6h7.1v-4.8h-19.4zm39-.9V318l-1.8-2.4-1.8-2.4-7.3-9.6h-4.8V327h5.1v-14.9l11.3 14.9h4.4v-23.4h-5.1zm15.8 10H273v-4.6h-11.1v-4.7h12.6v-4.6h-17.7V327h17.8v-4.6h-12.7zm36.8-6.1c0-2.3-.7-4.1-2-5.4-1.5-1.5-3.8-2.4-6.8-2.4h-10.7V327h5.1v-7.5h4.1l5 7.5h6l-5.7-8.4c3-1 5-3.4 5-7.2zm-5.2.3c0 2-1.4 3.3-3.9 3.3h-5.2v-6.7h5.1c2.5 0 4 1.1 4 3.4z"/></svg>