<svg id="Layer_1" data-name="Layer 1" xmlns="http://www.w3.org/2000/svg" viewBox="0 0 352 143.67464"><path d="M280.75946,131.492a17.18574,17.18574,0,0,1-2.97635-.67143,30.87837,30.87837,0,0,1-9.50851-4.85423,40.72951,40.72951,0,0,1-7.69907-7.57733,54.72667,54.72667,0,0,1-6.81148-11.339,66.66845,66.66845,0,0,1-4.05661-11.95776c-.402-1.67158-.75433-3.35609-.99995-5.059-.12027-.83392-.20226-1.67447-.26984-2.51457-.06766-.84051-.09674-1.68415-.1405-2.52653a4.09769,4.09769,0,0,1-.00878-.506c.09735-1.34486.0857-2.695.27323-4.03657a30.01308,30.01308,0,0,1,.81036-3.95882,25.12028,25.12028,0,0,1,3.961-8.03574,34.45375,34.45375,0,0,1,5.47444-5.80836,60.42814,60.42814,0,0,1,9.58318-6.581c2.34631-1.33767,4.75045-2.566,7.19723-3.70807,1.46709-.68477,2.95489-1.32542,4.43694-1.9778,3.8601-1.6992,7.70206-3.4374,11.51115-5.249,3.01778-1.43519,6.0015-2.93567,8.93793-4.52952,2.78919-1.514,5.52167-3.12468,8.16023-4.89006a62.9205,62.9205,0,0,0,7.06528-5.41721,38.66912,38.66912,0,0,0,6.24766-7.01572,27.43764,27.43764,0,0,0,4.17859-9.48116,29.592,29.592,0,0,0,.53757-3.39441c.11263-1.07789.13726-2.15358.142-3.23335a29.525,29.525,0,0,0-.32-4.03129c-.00579-.0434.0274-.092.04238-.13817a.80888.80888,0,0,1,.13645.14126,2.75355,2.75355,0,0,1,.17939.35892,45.35775,45.35775,0,0,1,2.42309,8.025c.21938,1.09245.40464,2.19116.51986,3.29568a34.74057,34.74057,0,0,1,.2137,5.35575,35.73158,35.73158,0,0,1-4.6697,15.97267,47.40447,47.40447,0,0,1-5.29416,7.5219,67.47284,67.47284,0,0,1-6.85624,6.8788,97.01073,97.01073,0,0,1-11.96351,8.82954,163.44113,163.44113,0,0,1-16.76649,9.19467c-2.7666,1.33247-5.56536,2.594-8.3757,3.83052a2.12774,2.12774,0,0,0-.33629.20835.12039.12039,0,0,0-.02953.09352c.00092.015.043.04138.06417.03938.56957-.0536,1.14173-.08968,1.70761-.17,2.03672-.2892,4.06526-.62292,6.07541-1.06957a81.35569,81.35569,0,0,0,21.4003-8.1357,74.71992,74.71992,0,0,0,9.50912-6.1577,56.56716,56.56716,0,0,0,7.4206-6.72121,35.3557,35.3557,0,0,0,4.71474-6.31545c.4353-.76041.81556-1.55229,1.222-2.32925.078-.1491.15863-.297.24428-.4417.00851-.01434.0632-.00919.09288-.00065.02368.00683.06043.03325.05986.0499-.0225.67339-.04337,1.34691-.077,2.01979-.01174.23511-.06847.46782-.0832.703-.07186,1.14559-.24038,2.27933-.38847,3.41639-.20931,1.607-.5075,3.19658-.866,4.775a43.98424,43.98424,0,0,1-3.11777,9.17759,35.7058,35.7058,0,0,1-4.95722,7.73408,37.47317,37.47317,0,0,1-7.94506,7.00975,54.45559,54.45559,0,0,1-8.18572,4.41831,113.59024,113.59024,0,0,1-10.899,4.06349q-4.95424,1.61469-9.91032,3.22362c-1.05825.34456-2.11813.68462-3.17135,1.044a25.86366,25.86366,0,0,0-6.41925,3.17909,19.65946,19.65946,0,0,0-6.39308,7.18907,19.0756,19.0756,0,0,0-1.94177,6.14568,17.88955,17.88955,0,0,0-.20192,3.83521,25.53013,25.53013,0,0,0,.85455,5.18068,24.708,24.708,0,0,0,6.19476,10.647,23.8836,23.8836,0,0,0,7.06875,5.00124c.76385.35395,1.56155.6353,2.34611.94388A1.82793,1.82793,0,0,1,280.75946,131.492Z"/><path d="M292.96916,22.01831a20.458,20.458,0,0,1-.10643,3.43333,22.58519,22.58519,0,0,1-.58348,2.97423,21.742,21.742,0,0,1-3.63428,7.292,33.31831,33.31831,0,0,1-4.77189,5.08332,67.72454,67.72454,0,0,1-7.2775,5.4688c-2.44249,1.629-4.94889,3.15723-7.43782,4.71313-2.17416,1.3591-4.35015,2.71645-6.49567,4.11987a72.60665,72.60665,0,0,0-6.61736,4.83422,41.50337,41.50337,0,0,0-5.36055,5.21766,27.61054,27.61054,0,0,0-3.90706,6.006,22.85992,22.85992,0,0,0-1.83683,5.65908q-.10834.59655-.21117,1.19407c-.01424.08372-.054.116-.14114.0854a.15169.15169,0,0,1-.08037-.05258c-.08209-.14556-.16562-.291-.23567-.44253a20.18547,20.18547,0,0,0-5.38463-6.881,22.38322,22.38322,0,0,0-5.29127-3.337,16.34139,16.34139,0,0,0-5.04822-1.40236,9.17965,9.17965,0,0,0-4.94429.736,8.08535,8.08535,0,0,0-1.7035,1.082.23917.23917,0,0,1-.35654-.02645,3.68172,3.68172,0,0,1-.70556-1.549,2.52778,2.52778,0,0,1,.53012-2.08807,5.27919,5.27919,0,0,1,1.19032-1.08911,13.3353,13.3353,0,0,1,2.79968-1.39845,34.00275,34.00275,0,0,1,4.75658-1.37807c.75722-.16553,1.52072-.3022,2.28027-.45731.198-.04042.392-.1003.58749-.15245a.44016.44016,0,0,0,.28362-.26545,7.12287,7.12287,0,0,0,.522-1.73864,1.46323,1.46323,0,0,0-.00423-.4023.50621.50621,0,0,0-.56625-.44955,2.20321,2.20321,0,0,0-.4833.13159,4.37453,4.37453,0,0,0-1.10817.69865,20.65211,20.65211,0,0,1-2.52615,1.85622,5.67844,5.67844,0,0,1-1.47383.65483,1.99842,1.99842,0,0,1-.399.04582.38254.38254,0,0,1-.33015-.326,6.70728,6.70728,0,0,1,.26413-1.69465,8.265,8.265,0,0,1,4.16685-5.34886,12.57309,12.57309,0,0,1,3.40844-1.24969,20.11084,20.11084,0,0,1,3.50544-.46553,21.76932,21.76932,0,0,1,2.52694-.086c1.41237.10835,2.82928.11618,4.24095.27257,1.30772.14488,2.61351.30387,3.91288.49988,1.6328.2463,3.25708.55142,4.88131.85138,1.16.21424,2.31377.46225,3.47058.694a.60767.60767,0,0,0,.575-.09437,29.86943,29.86943,0,0,1,4.946-3.50613c2.50167-1.53514,5.02607-3.03326,7.52749-4.56877,3.3368-2.04831,6.60872-4.19406,9.72917-6.56435a58.66284,58.66284,0,0,0,5.53519-4.73482,33.75076,33.75076,0,0,0,4.02365-4.673,19.09273,19.09273,0,0,0,3.18093-6.94261.75946.75946,0,0,1,.0614-.184C292.86538,22.04973,292.91182,22.044,292.96916,22.01831Z"/><path d="M344.22287,91.84424a.46422.46422,0,0,1-.05027.38636c-.20057.35163-.39393.7076-.60293,1.05415a65.15036,65.15036,0,0,1-5.95635,8.41993,43.97141,43.97141,0,0,1-9.85742,8.79618,34.824,34.824,0,0,1-10.64877,4.55686,40.60647,40.60647,0,0,1-4.07944.73118c-1.34268.18376-2.69288.17171-4.03749.279a16.59386,16.59386,0,0,1-1.8199-.0309c-.3709-.01139-.74114-.04537-1.11208-.05485a36.42824,36.42824,0,0,1-3.9255-.3769c-1.43893-.19354-2.85918-.47607-4.27743-.77684a.826.826,0,0,0-.265.03378,1.08522,1.08522,0,0,0,.13477.26385,18.78853,18.78853,0,0,0,6.9485,4.77328,23.48724,23.48724,0,0,0,5.3784,1.36473c.97343.13658,1.94924.15549,2.92406.2264.13461.00979-.038-.03415.04119.07506a.09323.09323,0,0,1-.0111.08851.48226.48226,0,0,1-.15195.1242,29.60677,29.60677,0,0,1-6.20283,1.8094,24.98826,24.98826,0,0,1-4.63928.30286,20.14765,20.14765,0,0,1-9.58189-2.54691,19.84294,19.84294,0,0,1-6.93352-6.3855,20.93821,20.93821,0,0,1-3.187-7.81591,13.99323,13.99323,0,0,1-.29376-2.40809c-.01226-.64017-.06547-1.27949-.08736-1.91963a1.09676,1.09676,0,0,1,.08313-.38847c.01877-.053.10235-.12722.14493-.12033a5.83622,5.83622,0,0,1,.69043.15124q2.77028.80162,5.58762,1.41657c1.74583.38127,3.49558.7408,5.26794.98023,1.26964.17155,2.53528.377,3.80813.51868,1.10565.1231,2.21852.18394,3.329.26086.77411.05363,1.549.10562,2.32448.1269a39.09351,39.09351,0,0,0,3.94662-.02589c.43743-.03221.87616-.062,1.31447-.06431a35.62,35.62,0,0,0,3.83429-.28616,59.82247,59.82247,0,0,0,18.26169-5.01279A61.92783,61.92783,0,0,0,342.369,93.22313c.45575-.34819.89844-.71342,1.35223-1.06421a1.043,1.043,0,0,1,.5166-.29726Z"/><path d="M189.57669,113.872c-.0294-.05331-.04582-.12574-.09074-.15631-.167-.11371-.35423-.19953-.514-.32172a8.13847,8.13847,0,0,1-.937-.76781,4.85209,4.85209,0,0,1-1.08041-5.4199,6.126,6.126,0,0,1,1.39583-2.09106,11.34719,11.34719,0,0,1,1.7043-1.4291c.22051-.15507.44464-.30505.6632-.46281.09937-.07172.11637-.181.01066-.229-.15312-.06959-.29941-.15408-.45105-.22715a9.58512,9.58512,0,0,1-4.61732-4.77843,11.24069,11.24069,0,0,1-1.06321-4.60011,13.62291,13.62291,0,0,1,.32085-3.51774,10.37953,10.37953,0,0,1,7.68742-7.93962,15.248,15.248,0,0,1,3.49537-.53009,20.75993,20.75993,0,0,1,4.83811.32208,2.86335,2.86335,0,0,1,.49123.11634,5.44533,5.44533,0,0,0,1.99.26518c3.00455-.00978,6.00919-.00531,9.01379-.00207a5.62128,5.62128,0,0,1,.70208.053c.05121.00652.0971.08293.1376.13345a.15967.15967,0,0,1,.02619.0937c.00232.5733.00425,1.14661.00237,1.7199a.33293.33293,0,0,1-.25179.27492c-.504.04825-1.00756.10474-1.51261.13846-1.44812.0967-2.89708.18042-4.34518.2777a1.88126,1.88126,0,0,0-.79115.11109c-.07292.03821-.11.09575-.07415.1672a3.26544,3.26544,0,0,0,.24314.43268,13.21812,13.21812,0,0,1,1.26551,2.18667,11.93312,11.93312,0,0,1,1.10951,4.99765,12.85743,12.85743,0,0,1-.42875,3.50362,9.3589,9.3589,0,0,1-1.24909,2.75245,10.82356,10.82356,0,0,1-6.08026,4.44762,15.40837,15.40837,0,0,1-3.48964.56455,19.44135,19.44135,0,0,1-3.43828-.08194c-.134-.01635-.27055-.01765-.40265-.043a1.34046,1.34046,0,0,0-1.04808.24614,11.20057,11.20057,0,0,0-2.02455,1.67212,4.90577,4.90577,0,0,0-1.22674,2.29232,3.955,3.955,0,0,0-.044,1.60947,2.57314,2.57314,0,0,0,1.65825,2.01738,6.41577,6.41577,0,0,0,2.07327.42767q1.16313.05134,2.32826.05538c1.8905.00768,3.78118-.00987,5.67157.00665a19.39409,19.39409,0,0,1,4.61288.54835,12.08174,12.08174,0,0,1,3.26775,1.3289,6.96426,6.96426,0,0,1,3.21551,4.25092,10.49791,10.49791,0,0,1,.31508,4.11193,11.77569,11.77569,0,0,1-.37244,1.98607,9.28525,9.28525,0,0,1-2.95119,4.50778,13.08514,13.08514,0,0,1-3.45858,2.07283,19.42366,19.42366,0,0,1-4.07316,1.179,34.04892,34.04892,0,0,1-9.17784.38788,17.2681,17.2681,0,0,1-5.00646-1.17452,10.38964,10.38964,0,0,1-3.6912-2.43085,7.825,7.825,0,0,1-2.15692-4.90215,9.94539,9.94539,0,0,1,.20492-3.21891,8.3608,8.3608,0,0,1,2.60947-4.35847,11.50377,11.50377,0,0,1,4.23592-2.30341c.1929-.06075.387-.11782.57872-.18218A1.35009,1.35009,0,0,0,189.57669,113.872ZM197.88,115.355v.00091q-1.7711,0-3.54218.00047a16.21341,16.21341,0,0,0-3.51018.4058,8.77339,8.77339,0,0,0-2.27178.83081,5.87536,5.87536,0,0,0-2.96318,3.55341,8.71839,8.71839,0,0,0-.1905,4.49407,5.55222,5.55222,0,0,0,2.14587,3.32452,8.11248,8.11248,0,0,0,2.23311,1.16171,14.86883,14.86883,0,0,0,4.16.784,33.54428,33.54428,0,0,0,6.36264-.20171,18.3765,18.3765,0,0,0,3.63849-.84107,10.1545,10.1545,0,0,0,3.01587-1.61782,6.78468,6.78468,0,0,0,2.30213-3.37373,8.61345,8.61345,0,0,0,.23562-4.005,4.52139,4.52139,0,0,0-1.87521-3.012,6.18273,6.18273,0,0,0-1.5158-.79814,9.79838,9.79838,0,0,0-2.06224-.48875,22.81723,22.81723,0,0,0-3.32894-.22085C199.76942,115.36758,198.82462,115.355,197.88,115.355Zm-.84194-13.87352c.35126-.02228.89-.05316,1.42815-.0913a9.2649,9.2649,0,0,0,2.65338-.599,6.95514,6.95514,0,0,0,3.98961-3.8,8.782,8.782,0,0,0,.64753-2.43323,12.17985,12.17985,0,0,0-.31856-5.01189,6.90015,6.90015,0,0,0-4.22758-4.71912c-.2489-.10225-.50794-.18124-.76542-.26095a12.91375,12.91375,0,0,0-4.30536-.4484,9.01805,9.01805,0,0,0-2.68115.466,7.69831,7.69831,0,0,0-5.2358,5.56683,11.24215,11.24215,0,0,0-.12468,5.21253,7.04714,7.04714,0,0,0,2.992,4.52453,8.66749,8.66749,0,0,0,2.16993,1.06846A12.53812,12.53812,0,0,0,197.0381,101.48144Z"/><path d="M307.96728,126.33565a.56367.56367,0,0,1-.35068.34121,30.72824,30.72824,0,0,1-4.50051,1.81311,31.44849,31.44849,0,0,1-5.1249,1.15867,21.85852,21.85852,0,0,1-2.81922.27346c-.945.00725-1.89066.03671-2.835.013a27.95554,27.95554,0,0,1-11.6225-2.77155,21.422,21.422,0,0,1-6.55806-4.84213,18.74291,18.74291,0,0,1-3.51677-5.52066,16.129,16.129,0,0,1-.64572-2.12717,19.24824,19.24824,0,0,1-.45226-6.73263,18.09223,18.09223,0,0,1,1.66005-5.914,21.8841,21.8841,0,0,1,4.05706-5.893,26.53993,26.53993,0,0,1,7.043-5.22073,30.31964,30.31964,0,0,1,6.52174-2.44724,2.50634,2.50634,0,0,1,.40043-.04966.1442.1442,0,0,1,.09053.032c-.0049.05561-.00451.1336-.03964.16115-.26532.20821-.53688.40865-.80949.60738a31.09455,31.09455,0,0,0-5.2978,4.83441,21.95128,21.95128,0,0,0-3.866,6.25578,18.05,18.05,0,0,0-1.16806,4.59247,15.76668,15.76668,0,0,0-.1081,2.827,17.40257,17.40257,0,0,0,1.481,6.06009,19.66955,19.66955,0,0,0,5.50933,7.15387,24.67511,24.67511,0,0,0,8.71422,4.59366,30.534,30.534,0,0,0,4.04224.91187,31.8094,31.8094,0,0,0,5.24925.30538A35.57285,35.57285,0,0,0,307.96728,126.33565Z"/><path d="M34.98944,93.56081q0-11.02926.0003-22.05852c0-.33724.001-.67455.00808-1.0117.0049-.23439.12878-.34422.39063-.34956.2698-.0055.53975-.00425.80963-.00427q5.06049-.00033,10.121.00241c.84316.00153,1.688.00642,2.52905.0584A22.535,22.535,0,0,1,55.086,71.38485a14.73042,14.73042,0,0,1,2.12117.94588,10.782,10.782,0,0,1,5.449,7.07744,17.925,17.925,0,0,1,.43577,5.42347,13.96425,13.96425,0,0,1-.60359,3.37526,11.54072,11.54072,0,0,1-3.6301,5.48994A15.28228,15.28228,0,0,1,52.40184,96.91a25.0332,25.0332,0,0,1-4.29439.64952q-1.76884.1162-3.53926.10784c-1.68679-.00749-3.37365-.00276-5.06048-.00114-.30333.0003-.60672.00883-.91.0174a.28221.28221,0,0,0-.27173.24c-.01047.33678-.02237.67373-.02245,1.0106q-.002,8.34784-.00166,16.69567c-.00006.337-.00708.674-.01689,1.01083a.32789.32789,0,0,1-.32875.31c-.236.006-.47246.01315-.70831.006a13.97607,13.97607,0,0,1-2.11655-.06288c-.1306-.0239-.142-.293-.142-2.18519ZM38.38,84.04174v5.77073q0,1.97419.00085,3.94839c.00039.26958.0094.53922.01875.80869a.30364.30364,0,0,0,.24558.27387c.13428.01017.26884.02355.40328.02357,2.19406.00025,4.38842.02092,6.58208-.00939a29.27659,29.27659,0,0,0,5.629-.59215,14.74732,14.74732,0,0,0,3.9965-1.39726,7.85041,7.85041,0,0,0,3.18715-3.16389,9.36754,9.36754,0,0,0,.77743-1.86323,13.74731,13.74731,0,0,0,.501-3.0888,14.0696,14.0696,0,0,0-.29608-4.02318,8.484,8.484,0,0,0-4.79-6.03846,11.82151,11.82151,0,0,0-2.47972-.86045,22.45916,22.45916,0,0,0-5.01447-.60047c-2.70023-.02064-5.40069-.01176-8.10106-.01374-.13435-.0001-.26878.01409-.403.02363a.29055.29055,0,0,0-.241.27395c-.00786.30338-.01542.60687-.01553.91031Q38.379,79.2328,38.38,84.04174Z"/><path d="M241.86569,103.90887q0,6.0229-.0022,12.0458a7.34157,7.34157,0,0,1-.05522.80189c-.00561.05068-.08278.09717-.13337.13749a.17972.17972,0,0,1-.09624.02771,2.99327,2.99327,0,0,1-.40318.01672,5.92084,5.92084,0,0,1-1.79677-.10872c-.10376-.56242-.21347-1.12383-.31005-1.68746-.19367-1.13-.37915-2.26129-.57271-3.39126a.421.421,0,0,0-.09752-.152c-.03781-.05039-.17873.00157-.26275.09837-.08848.1019-.17319.20708-.2614.30922-.28666.332-.55779.67932-.86495.99119-.52041.52838-1.04591,1.05433-1.60084,1.54563a11.85253,11.85253,0,0,1-5.08647,2.5996,16.65869,16.65869,0,0,1-7.129.19106,10.657,10.657,0,0,1-4.17851-1.72228,8.09372,8.09372,0,0,1-2.79509-3.51828,10.03964,10.03964,0,0,1-.76236-3.13232,11.17,11.17,0,0,1,.25664-3.81818,8.647,8.647,0,0,1,3.02307-4.67314,13.4738,13.4738,0,0,1,3.87719-2.14627,21.58521,21.58521,0,0,1,3.90756-1.02259,29.98763,29.98763,0,0,1,4.12362-.42648c2.0913-.06085,4.183-.11377,6.2734-.19667a3.66754,3.66754,0,0,0,1.67737-.1814,5.76524,5.76524,0,0,0,.07808-1.60439,18.60517,18.60517,0,0,0-.17318-3.12935,12.235,12.235,0,0,0-.83937-3.21953,6.34139,6.34139,0,0,0-4.09056-3.78731,11.16063,11.16063,0,0,0-3.59607-.46938,19.2649,19.2649,0,0,0-7.00114,1.40972c-.78331.30843-1.54466.67251-2.3159,1.01149-.06164.02711-.12173.05785-.18342.08487-.19535.08554-.34606.04478-.42046-.1251q-.4869-1.1116-.96686-2.22624a.31719.31719,0,0,1,.17848-.41587,29.876,29.876,0,0,1,3.77905-1.43529,24.31561,24.31561,0,0,1,5.05173-1.0052,20.65742,20.65742,0,0,1,5.44937.15494,11.3239,11.3239,0,0,1,3.25263,1.07528,8.27684,8.27684,0,0,1,3.53272,3.51378,12.21712,12.21712,0,0,1,1.19425,3.53077,21.2518,21.2518,0,0,1,.33834,3.92663Q241.87291,98.8476,241.86569,103.90887Zm-7.18454-4.51159-.00045-.00957c-.63895.04173-1.27733.099-1.917.12231a39.57171,39.57171,0,0,0-5.81884.65759,19.32887,19.32887,0,0,0-3.02272.80276,9.5801,9.5801,0,0,0-2.58708,1.34991,6.05391,6.05391,0,0,0-2.23526,3.28169,8.495,8.495,0,0,0-.026,4.49662,5.53373,5.53373,0,0,0,3.1147,3.76268,7.657,7.657,0,0,0,1.12934.43619,10.41717,10.41717,0,0,0,2.68668.4291,17.92066,17.92066,0,0,0,2.82245-.15339,12.55527,12.55527,0,0,0,3.20894-.86212,9.895,9.895,0,0,0,5.33088-5.1297,10.67676,10.67676,0,0,0,.70388-2.10306,16.1089,16.1089,0,0,0,.40427-3.50637c-.00131-.94352.00091-1.887-.00052-2.83053-.0003-.202-.00594-.40418-.01565-.606a.32527.32527,0,0,0-.34349-.29119Q236.39812,99.31837,234.68115,99.39728Z"/><path d="M115.85127,104.04448q0,5.97194.0009,11.94387c.00057,1.02706.00549.95109-.92476.95181-.43855.00033-.87713-.00529-1.31562-.01288a.27984.27984,0,0,1-.29373-.22306c-.07056-.36391-.14137-.72793-.20194-1.0936q-.32226-1.94558-.63565-3.89265c-.01366-.08461-.04352-.13383-.129-.1226-.06287.00826-.14508.01379-.18159.05411-.2037.225-.39609.46016-.5924.69183a19.98367,19.98367,0,0,1-2.128,2.162,12.234,12.234,0,0,1-5.2732,2.66843,16.85946,16.85946,0,0,1-6.93095.17577,11.07488,11.07488,0,0,1-3.50425-1.26429,8.10791,8.10791,0,0,1-3.54834-4.01886,9.856,9.856,0,0,1-.6943-2.63214,11.40522,11.40522,0,0,1,.17862-4.22289,8.63432,8.63432,0,0,1,3.06787-4.76,13.2995,13.2995,0,0,1,3.31724-1.91689,20.39293,20.39293,0,0,1,4.27426-1.20515,29.77385,29.77385,0,0,1,4.32376-.45362c1.99008-.05379,3.97982-.12005,5.96968-.18185.53963-.01675,1.07934-.03269,1.61865-.057.25348-.01141.39813-.14176.40269-.35854a24.34222,24.34222,0,0,0-.35821-5.64218,11.38283,11.38283,0,0,0-.82541-2.48964A6.273,6.273,0,0,0,107.71646,84.81a8.91283,8.91283,0,0,0-2.27175-.4711,18.93324,18.93324,0,0,0-7.85505,1.11459,24.0278,24.0278,0,0,0-2.61025,1.09342c-.21088.1038-.43059.18985-.64738.28132a.21721.21721,0,0,1-.25615-.1005q-.506-1.15758-1.0071-2.31735a.31379.31379,0,0,1,.1267-.35086c.0589-.03232.11633-.06809.17749-.09539a29.21693,29.21693,0,0,1,7.13691-2.18445,23.625,23.625,0,0,1,5.65186-.2211,12.69135,12.69135,0,0,1,3.54626.77508,8.458,8.458,0,0,1,4.934,4.66256,13.17025,13.17025,0,0,1,.89383,2.99694,24.033,24.033,0,0,1,.31284,4.23307C115.85683,97.49895,115.85125,100.77172,115.85127,104.04448Zm-7.62733-4.62285c-1.14059.12584-2.69448.11164-4.23786.29505a38.33931,38.33931,0,0,0-4.0866.66988,15.43515,15.43515,0,0,0-2.97019.97925,8.16988,8.16988,0,0,0-1.72492,1.045,6.17364,6.17364,0,0,0-2.15913,3.33349,9.45119,9.45119,0,0,0-.2102,3.11239,6.47762,6.47762,0,0,0,.62577,2.32873,5.37022,5.37022,0,0,0,2.22141,2.419,7.27434,7.27434,0,0,0,1.6704.70864,10.681,10.681,0,0,0,2.69071.41415,17.0566,17.0566,0,0,0,2.82347-.16143,12.60018,12.60018,0,0,0,3.48187-1.00334,9.85411,9.85411,0,0,0,5.39086-5.97887,14.79778,14.79778,0,0,0,.71182-4.27152c.04359-1.21221.01439-2.42705.01625-3.64072.0001-.06709-.0101-.13426-.01642-.2013a.34339.34339,0,0,0-.28789-.23618C110.98449,99.28921,109.80576,99.346,108.22394,99.42163Z"/><path d="M166.27936,99.97209q-5.77309,0-11.54618-.0003c-.97735-.00021-.958-.04777-.93455.92523a18.85467,18.85467,0,0,0,1.21534,6.42907,13.94241,13.94241,0,0,0,.81889,1.737,10.41924,10.41924,0,0,0,6.32113,5.04225,15.21536,15.21536,0,0,0,3.79022.59551,30.44338,30.44338,0,0,0,4.6502-.20771,18.76569,18.76569,0,0,0,3.73926-.869c.89742-.292,1.78545-.61282,2.67987-.91422a1.97854,1.97854,0,0,1,.39308-.06494c.01914-.00234.05438.03165.06276.05562a.63487.63487,0,0,1,.04653.19381c.00617.43867.01346.87751.00767,1.31613-.01923,1.462.21105,1.13352-1.19314,1.69723a21.78762,21.78762,0,0,1-4.65784,1.34062,23.5684,23.5684,0,0,1-2.71608.28537c-1.21319.0521-2.4311.06287-3.64462.02176a16.36186,16.36186,0,0,1-4.86065-.89124,13.82141,13.82141,0,0,1-8.63174-8.2631,20.357,20.357,0,0,1-1.25322-5.19747,29.60114,29.60114,0,0,1-.16751-4.44747,24.54853,24.54853,0,0,1,1.00713-6.379,17.33578,17.33578,0,0,1,2.68365-5.4128,13.20428,13.20428,0,0,1,7.09132-4.94785,16.4409,16.4409,0,0,1,5.01164-.5428,13.496,13.496,0,0,1,3.49073.53922,11.26513,11.26513,0,0,1,5.693,3.85275,14.41585,14.41585,0,0,1,2.51755,4.81367,18.75,18.75,0,0,1,.85,4.87112c.04654,1.28128.0463,2.56429.06212,3.8466a1.61145,1.61145,0,0,1-.05.39672.19934.19934,0,0,1-.127.12933,6.16685,6.16685,0,0,1-.70214.047q-4.05129.00446-8.10258.00193Zm-1.56229-2.67341q4.8078,0,9.61557-.00076c.30337-.00012.60678-.00865.91006-.01764a.28154.28154,0,0,0,.25035-.26456c.00474-.06708.0141-.13409.01454-.20117a18.01719,18.01719,0,0,0-.69788-5.093,11.73979,11.73979,0,0,0-2.23177-4.27214,8.21323,8.21323,0,0,0-5.939-3.06358,13.23309,13.23309,0,0,0-3.22673.13695,10.07316,10.07316,0,0,0-5.71745,2.9996,11.66719,11.66719,0,0,0-2.60937,4.28654,21.87533,21.87533,0,0,0-1.05091,4.83065c-.00783.0669-.00963.13455-.01336.2019-.0189.34166.06395.44482.3719.45284.20231.00527.40481.00423.60723.00424Q159.85868,97.29883,164.71707,97.29868Z"/><path d="M120.51694,82.15247c.30379,0,.6076.003.91134-.0006.7516-.009.67669.02946.927.67457.59747,1.53985,1.1722,3.0885,1.76053,4.63192q3.69214,9.68586,7.3842,19.37176c.79043,2.07992,1.54085,4.17465,2.12228,6.32545a2.1286,2.1286,0,0,0,.14493.37718c.01965.0402.08549.06472.13524.07962.01766.00529.06092-.03414.07416-.0619a2.64961,2.64961,0,0,0,.16092-.36989c1.1851-3.94213,2.64615-7.78621,4.11968-11.62629q3.53233-9.20553,7.05137-18.41614c.08438-.22042.15871-.44606.26307-.65672.0391-.07893.14864-.1249.23019-.17975a.18139.18139,0,0,1,.09717-.01922q1.36581.00841,2.73161.0202a.20362.20362,0,0,1,.17183.20265c-.02385.0982-.04.1991-.07327.294-.067.1908-.14264.37857-.21581.56717q-5.81508,14.9911-11.63,29.98227c-.39007,1.00575-.77513,2.01347-1.16323,3.02-.04851.12583-.10293.24939-.15184.37507a.39731.39731,0,0,1-.397.252c-.30353.00932-.60746.006-.91122.00649-.4388.00073-.87762-.00257-1.31639.00071-.80067.006-.68276-.0344-.92876-.66811q-3.16565-8.15478-6.31245-16.31684-3.22644-8.34833-6.45011-16.69772c-.12086-.3132-.21792-.63568-.3223-.95507-.02727-.08341.07321-.20243.1695-.20277.47247-.00171.945-.00077,1.41743-.00077Z"/><path d="M70.169,99.65716q0-8.24748.00066-16.495c.00024-.94692-.08135-.95423.92952-.9463.10122.0008.20248-.0017.30366.00036,1.69953.0346,1.4225-.27731,1.542,1.5198.09842,1.48011.15923,2.96273.23492,4.44433.00454.08892.03851.13043.12484.12047.029-.00335.06926-.00208.08412-.01984a2.03541,2.03541,0,0,0,.18045-.24278c.15782-.25914.30448-.5252.46577-.7821a15.89277,15.89277,0,0,1,2.24839-2.855,9.77437,9.77437,0,0,1,5.33725-2.6774,14.64181,14.64181,0,0,1,4.43471-.07c.76907.09792,1.53669.20733,2.30453.3146a.31107.31107,0,0,1,.26076.36526c-.11064.63045-.22945,1.25948-.3481,1.88849-.04368.23155-.08813.46356-.14963.69066a.19768.19768,0,0,1-.15624.10476,3.87347,3.87347,0,0,1-.59815-.06774,19.30871,19.30871,0,0,0-3.62074-.3429,9.29418,9.29418,0,0,0-3.08619.46925,8.67139,8.67139,0,0,0-3.40066,2.12456,12.38486,12.38486,0,0,0-2.847,4.49365,16.21723,16.21723,0,0,0-1.01651,5.03386c-.02573.57253-.02579,1.14653-.026,1.71985q-.00261,8.70288-.00144,17.40574c0,.30348-.00242.607-.00958.91042a.32789.32789,0,0,1-.33083.31147c-.67445.00882-1.349.00917-2.02352.01561-.87955.00839-.83674-.03627-.83679-.838Q70.16861,107.95525,70.169,99.65716Z"/><path d="M344.23785,91.86166c.01439-.0835.04782-.11526.09574-.08751.00441.00257-.00746.05688-.023.06462a.22474.22474,0,0,1-.08768.00551Z"/><path d="M14.44548,137.826h-1.3916a.68552.68552,0,0,1-.63135-.332l-3.01025-4.14257a.89028.89028,0,0,0-.29492-.2793,1.07747,1.07747,0,0,0-.48975-.085H7.43816V137.826H5.87663v-11.5957H9.15349a7.15437,7.15437,0,0,1,1.90137.22266,3.63651,3.63651,0,0,1,1.32324.64355,2.57556,2.57556,0,0,1,.77295,1.01563,3.39678,3.39678,0,0,1,.25049,1.331,3.33222,3.33222,0,0,1-.19385,1.14844,3.0452,3.0452,0,0,1-.5625.959,3.35955,3.35955,0,0,1-.89844.72461,4.45662,4.45662,0,0,1-1.20166.45313,1.54686,1.54686,0,0,1,.51807.49316ZM9.089,131.84652a3.97187,3.97187,0,0,0,1.20117-.166,2.45692,2.45692,0,0,0,.874-.46973,1.949,1.949,0,0,0,.53027-.72363,2.37365,2.37365,0,0,0,.17774-.93067,1.8524,1.8524,0,0,0-.67969-1.56152,3.30176,3.30176,0,0,0-2.03906-.52637H7.43816v4.37793Z"/><path d="M21.39616,136.6766a2.732,2.732,0,0,1-.63916.5625,3.97693,3.97693,0,0,1-.79687.39258,5.01243,5.01243,0,0,1-.87793.23047,5.311,5.311,0,0,1-.898.07715,4.17133,4.17133,0,0,1-1.56592-.28711,3.43,3.43,0,0,1-1.23828-.8418,3.86025,3.86025,0,0,1-.813-1.37109,5.57665,5.57665,0,0,1-.2915-1.87793,4.77493,4.77493,0,0,1,.26318-1.60157,3.77977,3.77977,0,0,1,.75635-1.291,3.48288,3.48288,0,0,1,1.206-.85742,3.95036,3.95036,0,0,1,1.60206-.31153,3.67968,3.67968,0,0,1,1.36328.24707,3.07734,3.07734,0,0,1,1.08447.71192,3.258,3.258,0,0,1,.71582,1.14843,4.37419,4.37419,0,0,1,.25928,1.55762.9337.9337,0,0,1-.07325.45313.3004.3004,0,0,1-.2749.11328h-5.478a4.78026,4.78026,0,0,0,.21436,1.35156,2.71663,2.71663,0,0,0,.53027.959,2.13341,2.13341,0,0,0,.80909.57421,2.77368,2.77368,0,0,0,1.05175.19043,3.10661,3.10661,0,0,0,.93457-.125,4.53288,4.53288,0,0,0,.67579-.27148,4.96657,4.96657,0,0,0,.47314-.27149.63184.63184,0,0,1,.32764-.125.31758.31758,0,0,1,.27539.1377Zm-1.165-3.84277a2.84764,2.84764,0,0,0-.1416-.91895,2.06158,2.06158,0,0,0-.41259-.71972,1.8384,1.8384,0,0,0-.65967-.46973,2.49215,2.49215,0,0,0-2.52051.4375,2.821,2.821,0,0,0-.74854,1.6709Z"/><path d="M24.37419,125.90707V137.826H22.93376V125.90707Z"/><path d="M28.12859,127.05648a.91371.91371,0,0,1-.085.39161,1.13048,1.13048,0,0,1-.22656.32421,1.03381,1.03381,0,0,1-.332.22266,1.01524,1.01524,0,0,1-.40039.081.96087.96087,0,0,1-.39258-.081,1.00625,1.00625,0,0,1-.31933-.22266,1.106,1.106,0,0,1-.21875-.32421.956.956,0,0,1-.08057-.39161,1.01958,1.01958,0,0,1,.08057-.40136,1.07716,1.07716,0,0,1,.21875-.33106,1.00638,1.00638,0,0,1,.31933-.22265.96072.96072,0,0,1,.39258-.08106,1.01508,1.01508,0,0,1,.40039.08106,1.034,1.034,0,0,1,.332.22265,1.09873,1.09873,0,0,1,.22656.33106A.974.974,0,0,1,28.12859,127.05648Zm-.30762,2.57227V137.826H26.38054v-8.19726Z"/><path d="M29.56853,130.786a4.68371,4.68371,0,0,1,1.46435-.97852,4.5216,4.5216,0,0,1,1.73975-.32422,3.11485,3.11485,0,0,1,1.22168.22656,2.49858,2.49858,0,0,1,.89844.63184,2.67793,2.67793,0,0,1,.55029.97852,4.07889,4.07889,0,0,1,.186,1.26269V137.826h-.63916a.62643.62643,0,0,1-.32373-.06835.47113.47113,0,0,1-.17822-.27149l-.16162-.77637a7.998,7.998,0,0,1-.63135.5293,3.59785,3.59785,0,0,1-.647.38867,3.50156,3.50156,0,0,1-.72461.24317,3.9579,3.9579,0,0,1-.85352.085,2.95429,2.95429,0,0,1-.89794-.13379,2.07388,2.07388,0,0,1-.73243-.40039,1.889,1.889,0,0,1-.49365-.67578,2.35754,2.35754,0,0,1-.18213-.9668,1.7987,1.7987,0,0,1,.26709-.93457,2.33159,2.33159,0,0,1,.86572-.79688,5.66887,5.66887,0,0,1,1.562-.57128,12.03456,12.03456,0,0,1,2.3623-.25489v-.63867a2.18894,2.18894,0,0,0-.4126-1.44434,1.48849,1.48849,0,0,0-1.20556-.49023,2.59365,2.59365,0,0,0-.89405.13379,3.35323,3.35323,0,0,0-.623.2998q-.26295.16554-.45313.29883a.65616.65616,0,0,1-.37646.13379.40854.40854,0,0,1-.25049-.07715.695.695,0,0,1-.17822-.18945Zm4.65234,3.35058a12.08717,12.08717,0,0,0-1.69482.15723,4.8399,4.8399,0,0,0-1.14112.32812,1.57074,1.57074,0,0,0-.63916.47754,1.02431,1.02431,0,0,0-.19824.61426,1.36254,1.36254,0,0,0,.105.55859,1.03947,1.03947,0,0,0,.2876.38477,1.1384,1.1384,0,0,0,.42871.21777,1.96527,1.96527,0,0,0,.52979.06934,2.915,2.915,0,0,0,.69628-.07715,2.58855,2.58855,0,0,0,.59473-.22266,3.32947,3.32947,0,0,0,.53369-.34765,4.57123,4.57123,0,0,0,.49756-.46094Z"/><path d="M38.86589,130.81039a4.224,4.224,0,0,1,1.16943-.95508,3.07918,3.07918,0,0,1,1.501-.35547,2.98308,2.98308,0,0,1,1.29834.27539,2.68354,2.68354,0,0,1,.9834.79688,3.718,3.718,0,0,1,.61865,1.26562,6.05079,6.05079,0,0,1,.21485,1.67578,6.34357,6.34357,0,0,1-.24317,1.8125,4.10883,4.10883,0,0,1-.69971,1.39551,3.174,3.174,0,0,1-1.11279.89844,3.31661,3.31661,0,0,1-1.47266.31934,2.80962,2.80962,0,0,1-1.36328-.30371,2.977,2.977,0,0,1-.96679-.86133l-.07276.74414a.347.347,0,0,1-.37256.30761h-.93017V125.90707h1.44824Zm0,5.041a2.31187,2.31187,0,0,0,.86963.75293,2.45477,2.45477,0,0,0,1.04.21875,2.083,2.083,0,0,0,1.772-.81739,4.024,4.024,0,0,0,.61475-2.43554,3.62624,3.62624,0,0,0-.5459-2.21387,1.852,1.852,0,0,0-1.55762-.708,2.27955,2.27955,0,0,0-1.22607.32422,3.61263,3.61263,0,0,0-.9668.91406Z"/><path d="M47.56413,125.90707V137.826H46.1237V125.90707Z"/><path d="M56.14079,136.6766a2.732,2.732,0,0,1-.63916.5625,3.97693,3.97693,0,0,1-.79687.39258,5.01289,5.01289,0,0,1-.87793.23047,5.311,5.311,0,0,1-.898.07715,4.17133,4.17133,0,0,1-1.56592-.28711,3.42988,3.42988,0,0,1-1.23828-.8418,3.86025,3.86025,0,0,1-.813-1.37109,5.57665,5.57665,0,0,1-.2915-1.87793,4.77493,4.77493,0,0,1,.26318-1.60157,3.77961,3.77961,0,0,1,.75635-1.291,3.48288,3.48288,0,0,1,1.206-.85742,3.95031,3.95031,0,0,1,1.602-.31153,3.6797,3.6797,0,0,1,1.36329.24707,3.07743,3.07743,0,0,1,1.08447.71192,3.258,3.258,0,0,1,.71582,1.14843,4.37419,4.37419,0,0,1,.25928,1.55762.9337.9337,0,0,1-.07325.45313.3004.3004,0,0,1-.2749.11328h-5.478a4.78026,4.78026,0,0,0,.21436,1.35156,2.71663,2.71663,0,0,0,.53027.959,2.13345,2.13345,0,0,0,.80908.57421,2.77373,2.77373,0,0,0,1.05176.19043,3.10665,3.10665,0,0,0,.93457-.125,4.53229,4.53229,0,0,0,.67578-.27148,4.96561,4.96561,0,0,0,.47315-.27149.63184.63184,0,0,1,.32764-.125.31759.31759,0,0,1,.27539.1377Zm-1.165-3.84277a2.84764,2.84764,0,0,0-.1416-.91895,2.0616,2.0616,0,0,0-.4126-.71972,1.83836,1.83836,0,0,0-.65966-.46973,2.49215,2.49215,0,0,0-2.52051.4375,2.821,2.821,0,0,0-.74854,1.6709Z"/><path d="M66.14226,130.98031a.31841.31841,0,0,1-.29932.17774.56119.56119,0,0,1-.27539-.08887c-.10254-.05859-.228-.125-.376-.19824a3.65264,3.65264,0,0,0-.53027-.20215,2.54667,2.54667,0,0,0-.728-.09278,2.16279,2.16279,0,0,0-.65527.09278,1.59573,1.59573,0,0,0-.498.25488,1.13824,1.13824,0,0,0-.31543.376,1.016,1.016,0,0,0-.10937.46582.77473.77473,0,0,0,.18213.52539,1.57842,1.57842,0,0,0,.48144.36426,4.1922,4.1922,0,0,0,.67969.27148q.38013.11719.78076.251.40064.13329.78125.29492a2.8476,2.8476,0,0,1,.67969.40527,1.84324,1.84324,0,0,1,.48144.59473,1.822,1.822,0,0,1,.18165.84473,2.676,2.676,0,0,1-.20215,1.04785,2.284,2.284,0,0,1-.59864.834,2.8905,2.8905,0,0,1-.97119.55371,3.98857,3.98857,0,0,1-1.32666.20313,4.14919,4.14919,0,0,1-1.55371-.2793,3.929,3.929,0,0,1-1.18164-.7168l.33984-.5498a.49709.49709,0,0,1,.15381-.16211.42108.42108,0,0,1,.22657-.05664.54492.54492,0,0,1,.30761.11328c.10791.07617.23877.15918.39258.251a2.94308,2.94308,0,0,0,.562.251,2.59382,2.59382,0,0,0,.82569.11328,2.24126,2.24126,0,0,0,.73632-.10937,1.54013,1.54013,0,0,0,.52588-.29492,1.17534,1.17534,0,0,0,.31153-.42871,1.33747,1.33747,0,0,0,.10107-.51856.85841.85841,0,0,0-.18213-.5625,1.54768,1.54768,0,0,0-.48144-.37988,3.90774,3.90774,0,0,0-.6836-.27539q-.38451-.11719-.78515-.24609-.40063-.13038-.78467-.2959a2.72122,2.72122,0,0,1-.68359-.417,1.8801,1.8801,0,0,1-.48145-.61816,2.00268,2.00268,0,0,1-.18213-.89453,2.18483,2.18483,0,0,1,.19385-.90234,2.227,2.227,0,0,1,.5664-.76075,2.77509,2.77509,0,0,1,.91456-.52148,3.64814,3.64814,0,0,1,1.23828-.19434,3.91494,3.91494,0,0,1,1.45215.25489,3.43854,3.43854,0,0,1,1.11279.70019Z"/><path d="M70.48747,137.9559a1.97262,1.97262,0,0,1-1.49267-.543,2.162,2.162,0,0,1-.522-1.56152V130.8348h-.9873a.31911.31911,0,0,1-.21826-.07714.297.297,0,0,1-.08887-.23829v-.57421l1.34277-.16993.332-2.5332a.35342.35342,0,0,1,.10937-.19824.3202.3202,0,0,1,.22217-.07715h.72851v2.82422h2.37061v1.04394H69.91325v4.91993a1.04552,1.04552,0,0,0,.251.76855.87613.87613,0,0,0,.647.251,1.15553,1.15553,0,0,0,.39258-.06055,1.69968,1.69968,0,0,0,.28711-.13379c.08106-.04883.1499-.09277.20654-.13379a.27264.27264,0,0,1,.14942-.06054.24853.24853,0,0,1,.20263.13769l.42041.6875a2.68647,2.68647,0,0,1-.89794.54688A3.05675,3.05675,0,0,1,70.48747,137.9559Z"/><path d="M74.73552,131.27133a3.698,3.698,0,0,1,.95508-1.31446,2.08515,2.08515,0,0,1,1.3833-.47363,2.1869,2.1869,0,0,1,.49805.05664,1.34866,1.34866,0,0,1,.4248.17871l-.10547,1.07617a.23159.23159,0,0,1-.24267.20215,1.68205,1.68205,0,0,1-.33155-.04882,2.2966,2.2966,0,0,0-.49365-.04883,1.97488,1.97488,0,0,0-.69189.11328,1.62319,1.62319,0,0,0-.542.33594,2.37727,2.37727,0,0,0-.4292.55078,4.72337,4.72337,0,0,0-.34375.748V137.826H73.36833v-8.19726h.8252a.455.455,0,0,1,.32373.08984.54218.54218,0,0,1,.12109.30664Z"/><path d="M85.17351,136.6766a2.73242,2.73242,0,0,1-.63916.5625,3.977,3.977,0,0,1-.79688.39258,5.01243,5.01243,0,0,1-.87793.23047,5.31092,5.31092,0,0,1-.89795.07715,4.17128,4.17128,0,0,1-1.56591-.28711,3.43,3.43,0,0,1-1.23829-.8418,3.86024,3.86024,0,0,1-.813-1.37109,5.57639,5.57639,0,0,1-.29151-1.87793,4.77469,4.77469,0,0,1,.26319-1.60157,3.77959,3.77959,0,0,1,.75634-1.291,3.48292,3.48292,0,0,1,1.20606-.85742,3.95031,3.95031,0,0,1,1.602-.31153,3.67968,3.67968,0,0,1,1.36328.24707,3.07725,3.07725,0,0,1,1.08447.71192,3.258,3.258,0,0,1,.71582,1.14843,4.37419,4.37419,0,0,1,.25928,1.55762.93373.93373,0,0,1-.07324.45313.30041.30041,0,0,1-.2749.11328h-5.478a4.77992,4.77992,0,0,0,.21435,1.35156,2.7168,2.7168,0,0,0,.53028.959,2.1333,2.1333,0,0,0,.80908.57421,2.7737,2.7737,0,0,0,1.05176.19043,3.10665,3.10665,0,0,0,.93457-.125A4.53273,4.53273,0,0,0,83.693,136.41a4.96406,4.96406,0,0,0,.47314-.27149.63187.63187,0,0,1,.32764-.125.31758.31758,0,0,1,.27539.1377Zm-1.165-3.84277a2.84764,2.84764,0,0,0-.1416-.91895,2.06176,2.06176,0,0,0-.4126-.71972,1.83831,1.83831,0,0,0-.65967-.46973,2.49214,2.49214,0,0,0-2.52051.4375,2.82105,2.82105,0,0,0-.74853,1.6709Z"/><path d="M86.45232,130.786a4.6836,4.6836,0,0,1,1.46435-.97852,4.5216,4.5216,0,0,1,1.73975-.32422,3.11485,3.11485,0,0,1,1.22168.22656,2.49858,2.49858,0,0,1,.89844.63184,2.67793,2.67793,0,0,1,.55029.97852,4.07889,4.07889,0,0,1,.186,1.26269V137.826H91.8737a.62643.62643,0,0,1-.32373-.06835.47113.47113,0,0,1-.17822-.27149l-.16162-.77637a7.998,7.998,0,0,1-.63135.5293,3.59785,3.59785,0,0,1-.647.38867,3.50156,3.50156,0,0,1-.72461.24317,3.9579,3.9579,0,0,1-.85352.085,2.95435,2.95435,0,0,1-.89795-.13379,2.07392,2.07392,0,0,1-.73242-.40039,1.88883,1.88883,0,0,1-.49365-.67578,2.35754,2.35754,0,0,1-.18213-.9668,1.7987,1.7987,0,0,1,.26709-.93457,2.33159,2.33159,0,0,1,.86572-.79688,5.66887,5.66887,0,0,1,1.562-.57128,12.03447,12.03447,0,0,1,2.3623-.25489v-.63867a2.18894,2.18894,0,0,0-.4126-1.44434,1.48851,1.48851,0,0,0-1.20556-.49023,2.59365,2.59365,0,0,0-.89405.13379,3.35323,3.35323,0,0,0-.623.2998q-.26295.16554-.45313.29883a.65616.65616,0,0,1-.37646.13379.40854.40854,0,0,1-.25049-.07715.695.695,0,0,1-.17822-.18945Zm4.65234,3.35058a12.08687,12.08687,0,0,0-1.69482.15723,4.8399,4.8399,0,0,0-1.14112.32812,1.57074,1.57074,0,0,0-.63916.47754,1.02431,1.02431,0,0,0-.19824.61426,1.36254,1.36254,0,0,0,.105.55859,1.03947,1.03947,0,0,0,.2876.38477,1.1384,1.1384,0,0,0,.42871.21777,1.96525,1.96525,0,0,0,.52978.06934,2.91513,2.91513,0,0,0,.69629-.07715,2.58873,2.58873,0,0,0,.59473-.22266,3.32947,3.32947,0,0,0,.53369-.34765,4.57123,4.57123,0,0,0,.49756-.46094Z"/><path d="M94.301,137.826v-8.19726h.86572a.35661.35661,0,0,1,.38037.2998l.105.8418a4.20306,4.20306,0,0,1,1.01953-.915,2.41061,2.41061,0,0,1,1.311-.35547,1.9266,1.9266,0,0,1,1.33887.46094,2.5955,2.5955,0,0,1,.74072,1.24609,2.688,2.688,0,0,1,.457-.76855,2.61513,2.61513,0,0,1,.62695-.53418,2.6966,2.6966,0,0,1,.74073-.30762,3.31454,3.31454,0,0,1,.79687-.09668,3.02607,3.02607,0,0,1,1.15283.20606,2.2911,2.2911,0,0,1,.85791.60254,2.69322,2.69322,0,0,1,.53809.97558,4.31762,4.31762,0,0,1,.186,1.32324V137.826h-1.44824v-5.21875a2.211,2.211,0,0,0-.4209-1.46093,1.50057,1.50057,0,0,0-1.21386-.49805,1.8233,1.8233,0,0,0-.6753.126,1.62523,1.62523,0,0,0-.5625.36816,1.72268,1.72268,0,0,0-.38427.61035,2.36747,2.36747,0,0,0-.1416.85449V137.826H99.12321v-5.21875a2.29649,2.29649,0,0,0-.39648-1.47265,1.4053,1.4053,0,0,0-1.15674-.48633,1.80854,1.80854,0,0,0-.9873.28809,3.26554,3.26554,0,0,0-.8335.78027V137.826Z"/><path d="M109.03581,127.05648a.91385.91385,0,0,1-.085.39161,1.13048,1.13048,0,0,1-.22656.32421,1.03392,1.03392,0,0,1-.332.22266,1.01532,1.01532,0,0,1-.40039.081.96087.96087,0,0,1-.39258-.081,1.00629,1.00629,0,0,1-.31934-.22266,1.10621,1.10621,0,0,1-.21875-.32421.956.956,0,0,1-.08056-.39161,1.01957,1.01957,0,0,1,.08056-.40136,1.07734,1.07734,0,0,1,.21875-.33106,1.00643,1.00643,0,0,1,.31934-.22265.96072.96072,0,0,1,.39258-.08106,1.01515,1.01515,0,0,1,.40039.08106,1.03405,1.03405,0,0,1,.332.22265,1.09873,1.09873,0,0,1,.22656.33106A.97416.97416,0,0,1,109.03581,127.05648Zm-.30761,2.57227V137.826h-1.44043v-8.19726Z"/><path d="M112.04607,130.8182a4.88476,4.88476,0,0,1,.5664-.542,3.70375,3.70375,0,0,1,.63526-.416,3.22992,3.22992,0,0,1,.71191-.26757,3.40771,3.40771,0,0,1,.813-.09278,2.9595,2.9595,0,0,1,1.18555.22266,2.29809,2.29809,0,0,1,.85791.63086,2.79365,2.79365,0,0,1,.52148.9834,4.27931,4.27931,0,0,1,.17822,1.2705V137.826h-1.44824v-5.21875a2.20348,2.20348,0,0,0-.4248-1.44433,1.57765,1.57765,0,0,0-1.29053-.51465,2.42151,2.42151,0,0,0-1.19385.30762,3.93542,3.93542,0,0,0-1.02344.834V137.826h-1.44824v-8.19726h.86572a.35662.35662,0,0,1,.38038.2998Z"/><path d="M126.23015,129.953v.53418q0,.26659-.33985.33984l-.93017.1211a2.54681,2.54681,0,0,1,.2749,1.18164,2.47888,2.47888,0,0,1-.86572,1.92578,2.83227,2.83227,0,0,1-.97119.53418,3.91973,3.91973,0,0,1-1.23.18554,4.14129,4.14129,0,0,1-1.084-.13769,1.45292,1.45292,0,0,0-.39648.34472.6065.6065,0,0,0-.1377.36817.48774.48774,0,0,0,.23877.44043,1.70878,1.70878,0,0,0,.627.21484,6.80284,6.80284,0,0,0,.88623.08106q.49731.01611,1.01953.05175a9.56519,9.56519,0,0,1,1.01953.126,3.091,3.091,0,0,1,.88574.291,1.67009,1.67009,0,0,1,.62744.55859,1.62535,1.62535,0,0,1,.23877.92188,2.143,2.143,0,0,1-.26318,1.01953,2.75861,2.75861,0,0,1-.75635.87793,3.87094,3.87094,0,0,1-1.21.61523,5.23912,5.23912,0,0,1-1.61426.23047,6.1904,6.1904,0,0,1-1.56982-.17773,3.70723,3.70723,0,0,1-1.1167-.47754,2.07836,2.07836,0,0,1-.66748-.69141,1.64324,1.64324,0,0,1-.22266-.82129,1.47963,1.47963,0,0,1,.38037-1.02832,2.62777,2.62777,0,0,1,1.044-.6709,1.49278,1.49278,0,0,1-.57862-.43359,1.147,1.147,0,0,1-.21435-.73145,1.12646,1.12646,0,0,1,.06494-.36816,1.49933,1.49933,0,0,1,.19824-.38086,2.02378,2.02378,0,0,1,.32764-.36035,2.10761,2.10761,0,0,1,.45312-.29883,2.51734,2.51734,0,0,1-.94677-.90234,2.477,2.477,0,0,1-.33985-1.30664,2.52521,2.52521,0,0,1,.23047-1.08887,2.40718,2.40718,0,0,1,.64356-.833,2.93392,2.93392,0,0,1,.98291-.53027,4.29637,4.29637,0,0,1,2.2456-.06836,3.13979,3.13979,0,0,1,.84131.34375Zm-1.46436,8.31836a.69052.69052,0,0,0-.16992-.48535,1.1363,1.1363,0,0,0-.457-.292,2.96921,2.96921,0,0,0-.668-.14941c-.25342-.0293-.52148-.05273-.80469-.06836q-.4248-.0249-.86181-.04883c-.29151-.0166-.57178-.043-.8418-.08105a2.26109,2.26109,0,0,0-.74023.53027,1.08262,1.08262,0,0,0-.28711.74805.98588.98588,0,0,0,.1416.51367,1.20579,1.20579,0,0,0,.43262.41309,2.5574,2.5574,0,0,0,.73242.27539,5.31863,5.31863,0,0,0,2.08349-.00489,2.61049,2.61049,0,0,0,.78076-.29882,1.47412,1.47412,0,0,0,.48975-.46094A1.07986,1.07986,0,0,0,124.76579,138.27133Zm-2.59765-4.4502a2.22957,2.22957,0,0,0,.769-.12207,1.56915,1.56915,0,0,0,.55811-.33984,1.39264,1.39264,0,0,0,.33984-.52149,1.89147,1.89147,0,0,0,.11328-.668,1.59382,1.59382,0,0,0-.457-1.19726,2.20028,2.20028,0,0,0-2.6543,0,1.59382,1.59382,0,0,0-.457,1.19726,1.83827,1.83827,0,0,0,.11719.668,1.42676,1.42676,0,0,0,.34424.52149,1.56911,1.56911,0,0,0,.5581.33984A2.22866,2.22866,0,0,0,122.16814,133.82113Z"/><path d="M135.83464,130.98031a.31841.31841,0,0,1-.29932.17774.56119.56119,0,0,1-.27539-.08887c-.10254-.05859-.228-.125-.376-.19824a3.65325,3.65325,0,0,0-.53028-.20215,2.5466,2.5466,0,0,0-.728-.09278,2.16281,2.16281,0,0,0-.65528.09278,1.59568,1.59568,0,0,0-.498.25488,1.138,1.138,0,0,0-.31543.376,1.01584,1.01584,0,0,0-.10938.46582.77478.77478,0,0,0,.18213.52539,1.57835,1.57835,0,0,0,.48145.36426,4.19171,4.19171,0,0,0,.67968.27148q.38013.11719.78076.251.40063.13329.78125.29492a2.84741,2.84741,0,0,1,.67969.40527,1.84327,1.84327,0,0,1,.48145.59473,1.82217,1.82217,0,0,1,.18164.84473,2.67579,2.67579,0,0,1-.20215,1.04785,2.284,2.284,0,0,1-.59863.834,2.8906,2.8906,0,0,1-.97119.55371,3.98866,3.98866,0,0,1-1.32666.20313,4.14921,4.14921,0,0,1-1.55372-.2793,3.929,3.929,0,0,1-1.18164-.7168l.33985-.5498a.497.497,0,0,1,.15381-.16211.421.421,0,0,1,.22656-.05664.54492.54492,0,0,1,.30762.11328c.10791.07617.23877.15918.39257.251a2.94291,2.94291,0,0,0,.562.251,2.59379,2.59379,0,0,0,.82568.11328,2.24137,2.24137,0,0,0,.73633-.10937,1.54022,1.54022,0,0,0,.52588-.29492,1.17531,1.17531,0,0,0,.31152-.42871,1.33747,1.33747,0,0,0,.10107-.51856.85836.85836,0,0,0-.18213-.5625,1.54756,1.54756,0,0,0-.48144-.37988,3.90762,3.90762,0,0,0-.68359-.27539q-.38452-.11719-.78516-.24609-.40064-.13038-.78467-.2959a2.7214,2.7214,0,0,1-.68359-.417,1.88023,1.88023,0,0,1-.48145-.61816,2.00268,2.00268,0,0,1-.18213-.89453,2.185,2.185,0,0,1,.19385-.90234,2.22691,2.22691,0,0,1,.56641-.76075,2.77493,2.77493,0,0,1,.91455-.52148,3.64818,3.64818,0,0,1,1.23828-.19434,3.9149,3.9149,0,0,1,1.45215.25489,3.43854,3.43854,0,0,1,1.11279.70019Z"/><path d="M140.17986,137.9559a1.97265,1.97265,0,0,1-1.49268-.543,2.16206,2.16206,0,0,1-.522-1.56152V130.8348h-.98731a.31913.31913,0,0,1-.21826-.07714.297.297,0,0,1-.08887-.23829v-.57421l1.34278-.16993.332-2.5332a.35342.35342,0,0,1,.10937-.19824.3202.3202,0,0,1,.22217-.07715h.72852v2.82422h2.3706v1.04394h-2.3706v4.91993a1.04551,1.04551,0,0,0,.251.76855.87617.87617,0,0,0,.647.251,1.15551,1.15551,0,0,0,.39257-.06055,1.69894,1.69894,0,0,0,.28711-.13379c.08106-.04883.14991-.09277.20655-.13379a.27261.27261,0,0,1,.14941-.06054.24854.24854,0,0,1,.20264.13769l.42041.6875a2.68662,2.68662,0,0,1-.898.54688A3.05674,3.05674,0,0,1,140.17986,137.9559Z"/><path d="M146.47527,129.49984a4.186,4.186,0,0,1,1.61816.29883,3.485,3.485,0,0,1,1.23.84961,3.7321,3.7321,0,0,1,.78076,1.33106,5.76064,5.76064,0,0,1,0,3.49218,3.74039,3.74039,0,0,1-.78076,1.32715,3.43788,3.43788,0,0,1-1.23.8457,4.241,4.241,0,0,1-1.61816.29493,4.29237,4.29237,0,0,1-1.63038-.29493,3.42943,3.42943,0,0,1-1.23437-.8457,3.74039,3.74039,0,0,1-.78076-1.32715,5.76064,5.76064,0,0,1,0-3.49218,3.7321,3.7321,0,0,1,.78076-1.33106,3.476,3.476,0,0,1,1.23437-.84961A4.23658,4.23658,0,0,1,146.47527,129.49984Zm0,7.31446a2.1045,2.1045,0,0,0,1.8125-.8125,4.62553,4.62553,0,0,0,0-4.55176,2.1003,2.1003,0,0,0-1.8125-.81738,2.55229,2.55229,0,0,0-1.07227.21,1.997,1.997,0,0,0-.76074.60742,2.69518,2.69518,0,0,0-.45313.97461,5.23565,5.23565,0,0,0-.14941,1.30664,3.74962,3.74962,0,0,0,.60254,2.27051A2.133,2.133,0,0,0,146.47527,136.8143Z"/><path d="M153.15837,131.27133a3.698,3.698,0,0,1,.95508-1.31446,2.08515,2.08515,0,0,1,1.3833-.47363,2.1869,2.1869,0,0,1,.49805.05664,1.34866,1.34866,0,0,1,.4248.17871l-.10547,1.07617a.23158.23158,0,0,1-.24267.20215,1.68205,1.68205,0,0,1-.33155-.04882,2.2966,2.2966,0,0,0-.49365-.04883,1.97492,1.97492,0,0,0-.69189.11328,1.62329,1.62329,0,0,0-.542.33594,2.37724,2.37724,0,0,0-.42919.55078,4.72158,4.72158,0,0,0-.34375.748V137.826h-1.44825v-8.19726h.8252a.455.455,0,0,1,.32373.08984.54218.54218,0,0,1,.12109.30664Z"/><path d="M156.93767,130.786a4.68371,4.68371,0,0,1,1.46435-.97852,4.5216,4.5216,0,0,1,1.73975-.32422,3.11482,3.11482,0,0,1,1.22168.22656,2.49858,2.49858,0,0,1,.89844.63184,2.67793,2.67793,0,0,1,.55029.97852,4.07889,4.07889,0,0,1,.186,1.26269V137.826h-.63916a.62643.62643,0,0,1-.32373-.06835.47113.47113,0,0,1-.17822-.27149l-.16162-.77637a7.998,7.998,0,0,1-.63135.5293,3.59785,3.59785,0,0,1-.647.38867,3.50156,3.50156,0,0,1-.72461.24317,3.95787,3.95787,0,0,1-.85351.085,2.9543,2.9543,0,0,1-.898-.13379,2.07388,2.07388,0,0,1-.73243-.40039,1.889,1.889,0,0,1-.49365-.67578,2.35754,2.35754,0,0,1-.18213-.9668,1.7987,1.7987,0,0,1,.26709-.93457,2.33162,2.33162,0,0,1,.86573-.79688,5.66867,5.66867,0,0,1,1.562-.57128,12.03456,12.03456,0,0,1,2.3623-.25489v-.63867a2.18894,2.18894,0,0,0-.4126-1.44434,1.48849,1.48849,0,0,0-1.20556-.49023,2.59365,2.59365,0,0,0-.894.13379,3.35323,3.35323,0,0,0-.623.2998q-.26295.16554-.45313.29883a.65616.65616,0,0,1-.37646.13379.40854.40854,0,0,1-.25049-.07715.695.695,0,0,1-.17822-.18945Zm4.65234,3.35058a12.08717,12.08717,0,0,0-1.69482.15723,4.8399,4.8399,0,0,0-1.14112.32812,1.57074,1.57074,0,0,0-.63916.47754,1.02431,1.02431,0,0,0-.19824.61426,1.36254,1.36254,0,0,0,.105.55859,1.03947,1.03947,0,0,0,.2876.38477,1.1384,1.1384,0,0,0,.42871.21777,1.96527,1.96527,0,0,0,.52979.06934,2.91519,2.91519,0,0,0,.69629-.07715,2.58865,2.58865,0,0,0,.59472-.22266,3.32947,3.32947,0,0,0,.53369-.34765,4.57123,4.57123,0,0,0,.49756-.46094Z"/><path d="M171.70427,129.953v.53418q0,.26659-.33984.33984l-.93018.1211a2.54668,2.54668,0,0,1,.2749,1.18164,2.47888,2.47888,0,0,1-.86572,1.92578,2.83227,2.83227,0,0,1-.97119.53418,3.91973,3.91973,0,0,1-1.23.18554,4.14135,4.14135,0,0,1-1.084-.13769,1.45307,1.45307,0,0,0-.39648.34472.6065.6065,0,0,0-.1377.36817.48774.48774,0,0,0,.23877.44043,1.70878,1.70878,0,0,0,.627.21484,6.803,6.803,0,0,0,.88623.08106q.49731.01611,1.01953.05175a9.56519,9.56519,0,0,1,1.01953.126,3.091,3.091,0,0,1,.88574.291,1.67009,1.67009,0,0,1,.62744.55859,1.62535,1.62535,0,0,1,.23877.92188,2.143,2.143,0,0,1-.26318,1.01953,2.75848,2.75848,0,0,1-.75635.87793,3.87094,3.87094,0,0,1-1.21.61523,5.23907,5.23907,0,0,1-1.61426.23047,6.1904,6.1904,0,0,1-1.56982-.17773,3.70723,3.70723,0,0,1-1.1167-.47754,2.07846,2.07846,0,0,1-.66748-.69141,1.64324,1.64324,0,0,1-.22266-.82129,1.47968,1.47968,0,0,1,.38037-1.02832,2.62784,2.62784,0,0,1,1.04395-.6709,1.49267,1.49267,0,0,1-.57861-.43359,1.14692,1.14692,0,0,1-.21436-.73145,1.12646,1.12646,0,0,1,.06494-.36816,1.49933,1.49933,0,0,1,.19824-.38086,2.02416,2.02416,0,0,1,.32764-.36035,2.10744,2.10744,0,0,1,.45313-.29883,2.5173,2.5173,0,0,1-.94678-.90234,2.4771,2.4771,0,0,1-.33985-1.30664,2.52521,2.52521,0,0,1,.23047-1.08887,2.40718,2.40718,0,0,1,.64356-.833,2.93392,2.93392,0,0,1,.98291-.53027,4.29637,4.29637,0,0,1,2.2456-.06836,3.13979,3.13979,0,0,1,.84131.34375Zm-1.46436,8.31836a.69052.69052,0,0,0-.16992-.48535,1.1363,1.1363,0,0,0-.457-.292,2.96921,2.96921,0,0,0-.668-.14941c-.25342-.0293-.52148-.05273-.80469-.06836q-.4248-.0249-.86181-.04883c-.29151-.0166-.57178-.043-.8418-.08105a2.26119,2.26119,0,0,0-.74023.53027,1.08262,1.08262,0,0,0-.28711.74805.98588.98588,0,0,0,.1416.51367,1.20579,1.20579,0,0,0,.43262.41309,2.5574,2.5574,0,0,0,.73242.27539,5.31863,5.31863,0,0,0,2.08349-.00489,2.61056,2.61056,0,0,0,.78077-.29882,1.47418,1.47418,0,0,0,.48974-.46094A1.07986,1.07986,0,0,0,170.23991,138.27133Zm-2.59765-4.4502a2.22957,2.22957,0,0,0,.769-.12207,1.56915,1.56915,0,0,0,.55811-.33984,1.39252,1.39252,0,0,0,.33984-.52149,1.89147,1.89147,0,0,0,.11328-.668,1.59382,1.59382,0,0,0-.457-1.19726,2.20028,2.20028,0,0,0-2.6543,0,1.59386,1.59386,0,0,0-.457,1.19726,1.83827,1.83827,0,0,0,.11719.668,1.42676,1.42676,0,0,0,.34424.52149,1.56911,1.56911,0,0,0,.5581.33984A2.22866,2.22866,0,0,0,167.64226,133.82113Z"/><path d="M179.318,136.6766a2.7299,2.7299,0,0,1-.63867.5625,3.977,3.977,0,0,1-.79688.39258,5.02378,5.02378,0,0,1-.87793.23047,5.31524,5.31524,0,0,1-.898.07715,4.17128,4.17128,0,0,1-1.56591-.28711,3.43,3.43,0,0,1-1.23829-.8418,3.86024,3.86024,0,0,1-.813-1.37109,5.57639,5.57639,0,0,1-.29151-1.87793,4.77469,4.77469,0,0,1,.26319-1.60157,3.77959,3.77959,0,0,1,.75634-1.291,3.48283,3.48283,0,0,1,1.20606-.85742,3.95031,3.95031,0,0,1,1.60205-.31153,3.67709,3.67709,0,0,1,1.36279.24707,3.071,3.071,0,0,1,1.084.71192,3.25307,3.25307,0,0,1,.71679,1.14843,4.39559,4.39559,0,0,1,.25977,1.55762.93079.93079,0,0,1-.07422.45313.296.296,0,0,1-.27344.11328h-5.479a4.77992,4.77992,0,0,0,.21435,1.35156,2.71665,2.71665,0,0,0,.53028.959,2.1333,2.1333,0,0,0,.80908.57421,2.7737,2.7737,0,0,0,1.05176.19043,3.10552,3.10552,0,0,0,.93408-.125,4.46916,4.46916,0,0,0,.67578-.27148,4.94767,4.94767,0,0,0,.47461-.27149.622.622,0,0,1,.32617-.125.31642.31642,0,0,1,.27539.1377Zm-1.16406-3.84277a2.80816,2.80816,0,0,0-.14258-.91895,2.03815,2.03815,0,0,0-.41211-.71972,1.836,1.836,0,0,0-.66016-.46973,2.49125,2.49125,0,0,0-2.52.4375,2.82105,2.82105,0,0,0-.74853,1.6709Z"/></svg>