<?xml version="1.0" encoding="utf-8"?>
<!-- Generator: Adobe Illustrator 21.1.0, SVG Export Plug-In . SVG Version: 6.00 Build 0)  -->
<svg version="1.1" id="Layer_1" xmlns="http://www.w3.org/2000/svg" xmlns:xlink="http://www.w3.org/1999/xlink" x="0px" y="0px"
	 viewBox="0 0 792 333" style="enable-background:new 0 0 792 333;" xml:space="preserve">
<style type="text/css">
	.st0{opacity:0.8;}
	.st1{fill:#939498;}
	.st2{clip-path:url(#SVGID_4_);fill:#939498;}
	.st3{clip-path:url(#SVGID_7_);fill:#939498;}
	.st4{fill:#4D595A;}
	.st5{fill:#0D717D;}
	.st6{fill:#009FAD;}
	.st7{fill:#446CA9;}
	.st8{fill:#76C4D5;}
	.st9{fill:#221F1F;}
	.st10{clip-path:url(#SVGID_9_);fill:#939498;}
</style>
<g class="st0">
	<g>
		<g>
			<rect id="SVGID_1_" x="626.4" y="310.6" class="st1" width="159.7" height="1.3"/>
		</g>
		<g>
			<defs>
				<rect id="SVGID_2_" x="626.4" y="310.6" width="159.7" height="1.3"/>
			</defs>
			<clipPath id="SVGID_4_">
				<use xlink:href="#SVGID_2_"  style="overflow:visible;"/>
			</clipPath>
			<rect x="626.4" y="310.6" class="st2" width="159.7" height="1.3"/>
		</g>
	</g>
</g>
<g class="st0">
	<g>
		<g>
			<rect id="SVGID_3_" x="7.6" y="310.6" class="st1" width="159.7" height="1.3"/>
		</g>
		<g>
			<defs>
				<rect id="SVGID_6_" x="7.6" y="310.6" width="159.7" height="1.3"/>
			</defs>
			<clipPath id="SVGID_7_">
				<use xlink:href="#SVGID_6_"  style="overflow:visible;"/>
			</clipPath>
			<rect x="7.6" y="310.6" class="st3" width="159.7" height="1.3"/>
		</g>
	</g>
</g>
<path class="st4" d="M226.2,224.9c1.3-0.4,3-0.7,5.1-1.1c2.1-0.3,4.3-0.5,6.6-0.5s4.3,0.3,5.9,0.9c1.6,0.6,2.8,1.5,3.7,2.6
	s1.6,2.5,1.9,4c0.4,1.5,0.6,3.3,0.6,5.1v15.6h-7.8v-14.7c0-2.5-0.3-4.3-1-5.4c-0.7-1-1.9-1.6-3.7-1.6c-0.6,0-1.2,0-1.8,0.1
	s-1.2,0.1-1.7,0.2v21.3h-7.8V224.9z M211.7,237.7c0-2.4-0.5-4.3-1.4-5.7c-1-1.4-2.3-2.1-4.1-2.1s-3.2,0.7-4.1,2.1
	c-1,1.4-1.5,3.3-1.5,5.7s0.5,4.3,1.5,5.8c1,1.4,2.4,2.1,4.1,2.1c1.8,0,3.2-0.7,4.1-2.1C211.2,242.1,211.7,240.1,211.7,237.7
	 M219.7,237.7c0,2.2-0.3,4.2-0.9,6c-0.6,1.8-1.5,3.3-2.7,4.6s-2.6,2.3-4.3,3s-3.5,1-5.6,1c-2,0-3.9-0.3-5.5-1
	c-1.7-0.7-3.1-1.7-4.3-3s-2.1-2.8-2.8-4.6s-1-3.8-1-6s0.3-4.2,1-5.9c0.7-1.8,1.6-3.3,2.8-4.6s2.6-2.2,4.3-2.9s3.5-1,5.4-1
	c2,0,3.8,0.3,5.5,1s3.1,1.7,4.3,2.9c1.2,1.3,2.1,2.8,2.8,4.6S219.7,235.6,219.7,237.7 M177.2,252.3c-5.9,0-10.4-1.6-13.5-4.9
	c-3.1-3.3-4.6-8-4.6-14c0-3,0.5-5.7,1.4-8.1c0.9-2.4,2.2-4.4,3.9-6c1.6-1.6,3.6-2.9,5.9-3.7c2.3-0.8,4.7-1.3,7.4-1.3
	c1.5,0,2.9,0.1,4.2,0.3s2.4,0.5,3.3,0.8c0.9,0.3,1.7,0.6,2.4,0.9c0.6,0.3,1.1,0.6,1.4,0.7l-2.4,6.6c-1.1-0.6-2.4-1.1-3.9-1.5
	s-3.2-0.6-5.1-0.6c-1.3,0-2.5,0.2-3.7,0.6c-1.2,0.4-2.3,1.1-3.2,2s-1.7,2.1-2.2,3.6c-0.6,1.5-0.8,3.3-0.8,5.4c0,1.7,0.2,3.2,0.6,4.7
	c0.4,1.5,1,2.7,1.8,3.8c0.8,1,1.9,1.9,3.2,2.5s2.9,0.9,4.8,0.9c1.2,0,2.3-0.1,3.2-0.2c0.9-0.1,1.8-0.3,2.5-0.5s1.4-0.4,1.9-0.7
	c0.6-0.2,1.1-0.5,1.5-0.7l2.3,6.6c-1.2,0.7-2.8,1.3-4.9,1.9C182.4,252,179.9,252.3,177.2,252.3 M146,235c0-0.7-0.1-1.3-0.3-1.9
	c-0.2-0.6-0.5-1.2-0.9-1.7s-0.9-0.9-1.5-1.2s-1.4-0.5-2.3-0.5c-0.9,0-1.6,0.1-2.3,0.4c-0.6,0.3-1.2,0.7-1.6,1.2
	c-0.4,0.5-0.7,1.1-1,1.7c-0.2,0.6-0.4,1.3-0.5,2H146z M127.6,238c0-2.5,0.4-4.6,1.1-6.4c0.8-1.8,1.7-3.4,3-4.6
	c1.2-1.2,2.6-2.2,4.2-2.8c1.6-0.6,3.2-0.9,4.9-0.9c3.9,0,7,1.2,9.3,3.6c2.3,2.4,3.4,5.9,3.4,10.6c0,0.5,0,1-0.1,1.5
	c0,0.5-0.1,1-0.1,1.4h-17.8c0.2,1.6,0.9,2.9,2.3,3.8c1.3,0.9,3.1,1.4,5.4,1.4c1.4,0,2.8-0.1,4.2-0.4c1.4-0.3,2.5-0.6,3.4-1l1.1,6.4
	c-0.4,0.2-1,0.4-1.7,0.6c-0.7,0.2-1.5,0.4-2.3,0.6c-0.9,0.2-1.8,0.3-2.8,0.4c-1,0.1-2,0.2-2.9,0.2c-2.5,0-4.7-0.4-6.5-1.1
	c-1.8-0.7-3.4-1.7-4.6-3c-1.2-1.3-2.1-2.8-2.7-4.5C127.9,241.9,127.6,240,127.6,238 M122.5,237.8c0,2.2-0.3,4.2-1,6
	c-0.6,1.8-1.6,3.3-2.8,4.6c-1.2,1.3-2.7,2.2-4.5,2.9s-3.8,1-6.1,1c-0.9,0-1.9,0-3-0.1c-1-0.1-2-0.2-3-0.3s-2-0.3-2.9-0.5
	s-1.7-0.4-2.4-0.6v-38.6l7.8-1.3v13.8c0.9-0.4,1.8-0.7,2.7-0.9c0.9-0.2,2-0.3,3-0.3c2,0,3.7,0.3,5.2,1s2.8,1.7,3.8,2.9
	c1,1.3,1.8,2.8,2.3,4.5C122.2,233.6,122.5,235.6,122.5,237.8 M114.5,237.6c0-5-1.9-7.6-5.6-7.6c-0.8,0-1.6,0.1-2.4,0.3
	s-1.4,0.5-1.9,0.8v14.2c0.4,0.1,0.9,0.1,1.5,0.2c0.6,0.1,1.2,0.1,1.9,0.1c2.1,0,3.7-0.7,4.8-2.2C113.9,241.9,114.5,240,114.5,237.6
	 M89,250.6c-1.3,0.4-3,0.7-5.1,1.1c-2.1,0.3-4.3,0.5-6.6,0.5c-2.3,0-4.3-0.3-5.9-0.9c-1.6-0.6-2.8-1.5-3.7-2.7
	c-0.9-1.1-1.6-2.5-1.9-4.1c-0.4-1.6-0.6-3.3-0.6-5.2V224H73v14.4c0,2.5,0.3,4.3,1,5.5c0.7,1.1,1.9,1.7,3.7,1.7c0.6,0,1.2,0,1.8-0.1
	c0.6-0.1,1.2-0.1,1.7-0.2V224H89V250.6z M52.9,251.6c-0.7-1.2-1.6-2.5-2.6-3.9s-2.1-2.8-3.3-4.1c-1.2-1.4-2.4-2.7-3.7-4
	s-2.5-2.4-3.8-3.4v15.4h-8.2v-36.4h8.2V229c2.1-2.2,4.3-4.6,6.4-7c2.2-2.4,4.2-4.7,6-6.8h9.7c-2.5,2.9-5,5.8-7.5,8.5
	s-5.1,5.5-7.9,8.2c2.9,2.4,5.7,5.3,8.4,8.6s5.3,7,7.8,11L52.9,251.6L52.9,251.6z"/>
<path class="st5" d="M118.6,90.9l-4.5,1c0-0.6-0.1-1.3-0.1-1.9c0-4.8,1.3-9.5,3.8-13.6l8.8,7.9c0.2,0.1,0.3,0.3,0.5,0.4
	c-0.5,1.3-0.9,2.7-1,4.2c-0.3,0.1-0.6,0.2-0.9,0.2L118.6,90.9z M135.7,64.2v12.4c-1.2,0.4-2.4,1-3.4,1.7c-0.4-0.3-0.8-0.6-1.2-0.9
	l-8.9-6.4C125.9,67.4,130.6,65,135.7,64.2 M74.3,92.7c4.3-18.9,7.9-34.7,12.2-53.6c1.9-8.5,3.2-10.7,10.9-15.1
	c10.7-6.1,18.5-10.6,29.9-17.2c7.1-4.1,8.4-3.8,8.4,4.9v43.7c-7.9,1-15.2,4.7-20.8,10.5l-3.8-2.7c-0.5-0.3-0.7-0.7-0.9-1.2
	c-0.5-1.3-0.8-2.1-2-3c-1.8-1.4-4.4-1.1-5.8,0.7s-1.1,4.4,0.7,5.8c0.6,0.5,1.3,0.9,2.1,1.1c0.5,0.1,1,0.2,1.5,0.2
	c0.5,0.1,0.8,0.2,1.1,0.5l3.5,3.2c-3.9,5.8-6,12.5-6,19.5c0,1.3,0.1,2.5,0.2,3.7l-7.6,1.6c-0.5,0-1,0-1.6,0.1
	c-0.4,0.1-0.8,0.2-1.1,0.4c-5,1.1-10.1,2.2-15.2,3.3C73,100.7,72.7,99.3,74.3,92.7 M144.7,76.5V64.2c5.1,0.9,9.8,3.2,13.5,6.8
	l-9.8,6.9c-0.1,0.1-0.3,0.2-0.4,0.3C147,77.5,145.9,76.9,144.7,76.5 M166.4,91.1l-12.1-2.8c-0.2-1.3-0.5-2.6-1-3.8
	c0.1-0.1,0.2-0.2,0.3-0.3l8.9-8c2.6,4.1,3.9,8.9,3.9,13.7C166.4,90.3,166.4,90.7,166.4,91.1 M150.6,24.3c6.5,3.1,11.3,5.4,17.8,8.6
	c9.1,4.4,18.2,8.8,27.4,13.2c2.3,9.9,4.5,19.7,6.8,29.6c1.3,5.9,2.1,9,3.4,14.9c2.1,9.2,1.9,10-7.6,7.8L174.9,93
	c0.1-1,0.1-2,0.1-3.1c0-7-2.1-13.8-6-19.6l3.3-3c0.4-0.4,0.8-0.5,1.4-0.6c1.4-0.2,2.2-0.4,3.4-1.3c1.8-1.4,2.1-4.1,0.7-5.8
	c-1.4-1.8-4.1-2.1-5.8-0.7c-0.6,0.5-1.1,1.1-1.5,1.8c-0.2,0.5-0.4,0.9-0.6,1.4c-0.2,0.4-0.4,0.7-0.8,1l-3.8,2.7
	c-5.5-5.8-12.8-9.4-20.7-10.5V28.7C144.7,22.4,145.3,21.7,150.6,24.3 M142.6,103.8c-0.8,0.1-1.6,0.2-2.4,0.2c-0.8,0-1.5-0.1-2.2-0.2
	c-0.1,0.3-0.3,0.5-0.4,0.8l-5.6,10.2c2.7,0.9,5.5,1.3,8.3,1.3c2.9,0,5.7-0.5,8.4-1.4l-5.5-10C142.9,104.4,142.7,104.1,142.6,103.8
	 M152.4,97.1l12.1,2.8c-2,4.9-5.4,9.1-9.8,12l-4.8-11.6C150.9,99.3,151.7,98.2,152.4,97.1 M115.9,99.8L128,97
	c0.7,1.2,1.6,2.3,2.6,3.3c-0.1,0.3-0.2,0.5-0.3,0.8l-4.5,10.8C121.4,108.9,117.9,104.7,115.9,99.8 M215.1,121.1
	c-5.8,7.2-8.4,10.6-14.2,17.8c-6.6,8.2-11.9,14.9-18.4,23.1c-4.7,5.9-8,6.1-15.8,6.1h-26.4h-26.6c-10.2,0-10.8,0-17-7.8
	c-6.1-7.7-10.9-13.7-17.1-21.4c-4.8-6-6-7.6-10.8-13.6c-7.5-9.4-8.7-12.7,2.9-15.3l35.9-8.2c2.7,7.6,8.1,14.1,15.1,18.2l-1.6,3.8
	c-0.2,0.6-0.5,0.8-1,1.2c-1.2,0.8-1.8,1.3-2.5,2.6c-1,2.1-0.1,4.6,1.9,5.6c2.1,1,4.6,0.1,5.6-1.9c0.3-0.7,0.5-1.4,0.6-2.2
	c0-0.5-0.1-1-0.1-1.5s0-0.8,0.3-1.2l2-3.7c4,1.5,8.2,2.3,12.5,2.3s8.6-0.8,12.6-2.4l2,3.6c0.3,0.5,0.3,0.9,0.3,1.5
	c-0.1,1.4-0.2,2.2,0.5,3.6c1,2.1,3.5,2.9,5.6,1.9s2.9-3.5,1.9-5.6c-0.3-0.7-0.8-1.3-1.4-1.8c-0.4-0.3-0.8-0.6-1.2-0.9
	s-0.6-0.5-0.8-1l-1.7-4c6.9-4.1,12.2-10.6,15-18.1l39.5,9C220.3,112.6,219.7,115.4,215.1,121.1"/>
<path class="st6" d="M144.7,76.5V64.2c5.1,0.9,9.8,3.2,13.5,6.8l-9.8,6.9c-0.1,0.1-0.3,0.2-0.4,0.3C147,77.5,145.9,76.9,144.7,76.5
	 M166.4,91.1l-12.1-2.8c-0.2-1.3-0.5-2.6-1-3.8c0.1-0.1,0.2-0.2,0.3-0.3l8.9-8c2.6,4.1,3.9,8.9,3.9,13.7
	C166.4,90.3,166.4,90.7,166.4,91.1 M150.6,24.3c6.5,3.1,11.3,5.4,17.8,8.6c9.1,4.4,18.2,8.8,27.4,13.2c2.3,9.9,4.5,19.7,6.8,29.6
	c1.3,5.9,2.1,9,3.4,14.9c2.1,9.2,1.9,10-7.6,7.8L174.9,93c0.1-1,0.1-2,0.1-3.1c0-7-2.1-13.8-6-19.6l3.3-3c0.4-0.4,0.8-0.5,1.4-0.6
	c1.4-0.2,2.2-0.4,3.4-1.3c1.8-1.4,2.1-4.1,0.7-5.8c-1.4-1.8-4.1-2.1-5.8-0.7c-0.6,0.5-1.1,1.1-1.5,1.8c-0.2,0.5-0.4,0.9-0.6,1.4
	c-0.2,0.4-0.4,0.7-0.8,1l-3.8,2.7c-5.5-5.8-12.8-9.4-20.7-10.5V28.7C144.7,22.4,145.3,21.7,150.6,24.3 M152.4,97.1l12.1,2.8
	c-2,4.9-5.4,9.1-9.8,12l-4.8-11.6C150.9,99.3,151.7,98.2,152.4,97.1 M140.2,116.2v-12.1c0.8,0,1.6-0.1,2.4-0.2
	c0.2,0.3,0.3,0.6,0.5,0.9l5.5,10C145.9,115.7,143.1,116.2,140.2,116.2 M215.1,121.1c-5.8,7.2-8.4,10.6-14.2,17.8
	c-6.6,8.2-11.9,14.9-18.4,23.1c-4.7,5.9-8,6.1-15.8,6.1h-26.4v-43.3c4.3,0,8.6-0.8,12.6-2.4l2,3.6c0.3,0.5,0.3,0.9,0.3,1.5
	c-0.1,1.4-0.2,2.2,0.5,3.6c1,2.1,3.5,2.9,5.6,1.9s2.9-3.5,1.9-5.6c-0.3-0.7-0.8-1.3-1.4-1.8c-0.4-0.3-0.8-0.6-1.2-0.9
	s-0.6-0.5-0.8-1l-1.7-4c6.9-4.1,12.2-10.6,15-18.1l39.5,9C220.3,112.6,219.7,115.4,215.1,121.1"/>
<polygon class="st7" points="508.2,119.6 487.2,119.6 487.2,168.6 536.2,168.6 536.2,147.6 508.2,147.6 "/>
<polygon class="st7" points="613.2,119.7 613.2,147.6 585.3,147.6 585.2,147.4 585.2,168.6 634.1,168.6 634.1,119.6 613,119.6 "/>
<polygon class="st7" points="487.2,70.6 508.3,70.6 508.2,70.4 508.2,42.6 508.2,42.6 536,42.6 536.2,42.8 536.2,21.6 487.2,21.6 
	"/>
<polygon class="st7" points="585.2,21.6 585.2,42.6 613.2,42.6 613.2,70.6 634.1,70.6 634.1,21.6 "/>
<polygon class="st8" points="582.6,70.6 554.6,42.6 585.2,42.6 585.2,21.6 536.2,21.6 536.2,42.8 564,70.6 "/>
<polygon class="st8" points="557.3,119.6 538.8,119.6 562,142.8 566.8,147.6 557.2,147.6 536.2,147.6 536.2,168.6 585.2,168.6 
	585.2,147.4 571.2,133.5 "/>
<polygon class="st8" points="613.2,70.6 613.2,91.6 613.2,101.2 608.4,96.4 585.2,73.2 585.2,91.8 599.1,105.7 613,119.6 
	634.1,119.6 634.1,70.6 "/>
<polygon class="st8" points="536.2,98.4 508.3,70.6 487.2,70.6 487.2,119.6 508.2,119.6 508.2,89 536.2,117 "/>
<path class="st9" d="M384.7,222l-5.3,6.3c-2.4-2.9-5.9-4.7-9.1-4.7c-5.7,0-10.1,4.5-10.1,10.5s4.3,10.6,10.1,10.6
	c3,0,6.6-1.7,9.1-4.2l5.4,5.7c-3.9,4-9.6,6.6-14.9,6.6c-10.9,0-19-8-19-18.6c0-10.4,8.3-18.3,19.3-18.3
	C375.5,215.9,381.1,218.3,384.7,222z"/>
<path class="st9" d="M389.1,252.4v-38.3h8.9v38.3H389.1z"/>
<path class="st9" d="M433.6,238.4c0,8.6-6.1,14.3-15.2,14.3s-15.2-5.7-15.2-14.3s6.1-14.2,15.2-14.2S433.6,229.9,433.6,238.4z
	 M412.1,238.5c0,4.3,2.5,7.2,6.2,7.2s6.2-2.9,6.2-7.2s-2.5-7.2-6.2-7.2C414.7,231.3,412.1,234.3,412.1,238.5z"/>
<path class="st9" d="M465.5,252.4h-8.9v-4.6c-1.9,3.3-5,5-9,5c-6,0-10-4.1-10-10.6v-17.6h8.9v15c0,3.3,1.8,5.3,4.6,5.3
	c3.4-0.1,5.4-2.8,5.4-6.6v-13.7h8.9v27.8H465.5z"/>
<path class="st9" d="M500.6,252.4h-8.9v-3.7c-2,2.6-4.8,4-8.4,4c-7.8,0-13-5.8-13-14.4c0-8.5,5.1-14.1,12.8-14.1
	c3.7,0,6.6,1.4,8.6,4v-14.1h8.9V252.4z M491.7,238.5c0-4.3-2.5-7.2-6.2-7.2s-6.2,2.9-6.2,7.2c0.1,4.3,2.5,7.3,6.2,7.3
	S491.7,242.8,491.7,238.5z"/>
<path class="st7" d="M533.3,252.4l-16.6-22.3v22.3h-8.6v-36.1h8.1l16.7,22.3v-22.3h8.6v36.1H533.3z"/>
<path class="st7" d="M573.2,234.2v18.2h-8.7v-3.2c-1.8,2.4-4.8,3.6-8.5,3.6c-5.9,0-9.6-3.6-9.6-8.7c0-5.3,3.8-8.4,10.7-8.4h7.3v-0.4
	c0-2.7-1.8-4.4-5.4-4.4c-2.3,0-5.4,0.8-8.3,2.3l-2.5-5.9c4.3-2,8.3-3.1,12.9-3.1C568.8,224.1,573.2,227.9,573.2,234.2z M564.5,242.9
	v-2.5h-5.6c-2.7,0-4,0.9-4,3c0,2,1.4,3.3,3.9,3.3C561.5,246.8,563.9,245.2,564.5,242.9z"/>
<path class="st7" d="M597.3,250.9c-2,1.2-4.8,1.9-7.4,1.9c-5.4,0-9.2-3-9.2-8.8v-12.3h-3.9v-5.8h3.9v-7.7h8.9v7.7h7.3v5.9h-7.3v10.9
	c0,2.2,0.9,3.1,2.6,3c0.9,0,2.1-0.4,3.5-0.9L597.3,250.9z"/>
<path class="st7" d="M611,216.6c0,2.8-2,4.8-4.7,4.8s-4.7-2-4.7-4.8c0-2.7,2-4.7,4.7-4.7C609,211.9,611,213.8,611,216.6z
	 M601.8,252.4v-27.8h8.9v27.8H601.8z"/>
<path class="st7" d="M624.5,252.4L614,224.6h9.2l6,19.7l6-19.7h8.9l-10.5,27.8L624.5,252.4L624.5,252.4z"/>
<path class="st7" d="M673.6,240.9H654c0.9,3.3,3.3,5.2,6.6,5.2c2.4,0,4.8-1,6.7-2.8l4.7,4.6c-2.8,3.1-7,4.9-12.1,4.9
	c-9.1,0-14.8-5.7-14.8-14.1c0-8.6,5.9-14.3,14.5-14.3C669.4,224.2,674.2,230.7,673.6,240.9z M665,236.1c0-3.4-2.2-5.6-5.4-5.6
	c-3.1,0-5.2,2.3-5.8,5.6H665z"/>
<path class="st9" d="M710,222l-5.3,6.3c-2.4-2.9-5.9-4.7-9.1-4.7c-5.7,0-10.1,4.5-10.1,10.5s4.3,10.6,10.1,10.6c3,0,6.6-1.7,9.1-4.2
	l5.4,5.7c-3.9,4-9.6,6.6-14.9,6.6c-10.9,0-19-8-19-18.6c0-10.4,8.3-18.3,19.3-18.3C700.8,215.9,706.4,218.3,710,222z"/>
<path class="st9" d="M741.2,238.4c0,8.6-6.1,14.3-15.2,14.3c-9.1,0-15.2-5.7-15.2-14.3s6.1-14.2,15.2-14.2
	C735.2,224.2,741.2,229.9,741.2,238.4z M719.8,238.5c0,4.3,2.5,7.2,6.2,7.2s6.2-2.9,6.2-7.2s-2.5-7.2-6.2-7.2
	S719.8,234.3,719.8,238.5z"/>
<path class="st9" d="M774.5,234.8v17.6h-8.9v-15.1c0-3.3-1.9-5.3-4.9-5.3c-3.3,0-5.3,2.3-5.7,5.6v14.7h-9v-27.8h8.9v4.5
	c2-3.3,5.2-4.9,9.3-5C770.4,224.1,774.5,228.3,774.5,234.8z"/>
<g class="st0">
	<g>
		<g>
			<rect id="SVGID_5_" x="303.2" y="5.3" class="st1" width="1.3" height="257"/>
		</g>
		<g>
			<defs>
				<rect id="SVGID_8_" x="303.2" y="5.3" width="1.3" height="257"/>
			</defs>
			<clipPath id="SVGID_9_">
				<use xlink:href="#SVGID_8_"  style="overflow:visible;"/>
			</clipPath>
			<rect x="303.2" y="5.3" class="st10" width="1.3" height="257"/>
		</g>
	</g>
</g>
<g>
	<path class="st1" d="M229.2,326h-7.6l-12.2-21.2h-0.2c0.2,3.7,0.4,6.4,0.4,8V326h-5.3v-28h7.5l12.2,21h0.1
		c-0.2-3.6-0.3-6.2-0.3-7.7V298h5.4L229.2,326L229.2,326z"/>
	<path class="st1" d="M255.3,315.2c0,3.5-0.9,6.2-2.8,8.2c-1.8,2-4.4,3-7.7,3c-2.1,0-3.9-0.5-5.4-1.4c-1.6-0.9-2.8-2.2-3.6-3.9
		c-0.8-1.7-1.3-3.7-1.3-5.9c0-3.5,0.9-6.2,2.7-8.2c1.8-1.9,4.4-2.9,7.7-2.9c2.1,0,3.9,0.4,5.4,1.3c1.6,0.9,2.8,2.2,3.6,3.9
		C254.8,311,255.3,312.9,255.3,315.2z M240.4,315.2c0,2.1,0.3,3.7,1,4.8c0.7,1.1,1.8,1.6,3.4,1.6c1.6,0,2.7-0.5,3.4-1.6s1-2.7,1-4.8
		c0-2.1-0.3-3.7-1-4.8c-0.7-1.1-1.8-1.6-3.4-1.6c-1.6,0-2.7,0.5-3.4,1.6C240.8,311.5,240.4,313.1,240.4,315.2z"/>
	<path class="st1" d="M272.1,304.1c0.8,0,1.5,0.1,2,0.2l-0.4,5.5c-0.5-0.1-1-0.2-1.7-0.2c-1.9,0-3.3,0.5-4.4,1.4c-1,1-1.6,2.3-1.6,4
		v11h-5.9v-21.4h4.4l0.9,3.6h0.3c0.7-1.2,1.6-2.2,2.7-2.9C269.5,304.5,270.7,304.1,272.1,304.1z"/>
	<path class="st1" d="M287,321.7c1,0,2.3-0.2,3.7-0.7v4.4c-1.5,0.7-3.2,1-5.4,1c-2.3,0-4-0.6-5.1-1.8c-1.1-1.2-1.6-3-1.6-5.3V309
		h-2.8v-2.5l3.2-2l1.7-4.5h3.7v4.6h6v4.4h-6v10.3c0,0.8,0.2,1.4,0.7,1.8C285.6,321.5,286.2,321.7,287,321.7z"/>
	<path class="st1" d="M314.8,326H309v-12.5c0-3.1-1.2-4.6-3.5-4.6c-1.6,0-2.8,0.6-3.5,1.7s-1.1,2.9-1.1,5.4v10H295v-29.9h5.9v6.1
		c0,0.5,0,1.6-0.1,3.3l-0.1,1.7h0.3c1.3-2.1,3.4-3.1,6.2-3.1c2.5,0,4.4,0.7,5.7,2c1.3,1.4,2,3.3,2,5.8V326H314.8z"/>
	<path class="st1" d="M348.7,326l-2-6.7h-10.2l-2,6.7H328l9.9-28.2h7.3l9.9,28.2H348.7z M345.2,314.3c-1.9-6-2.9-9.5-3.2-10.3
		c-0.2-0.8-0.4-1.4-0.5-1.9c-0.4,1.6-1.6,5.7-3.6,12.1L345.2,314.3L345.2,314.3z"/>
	<path class="st1" d="M377.3,326h-5.9v-12.5c0-1.5-0.3-2.7-0.8-3.5s-1.3-1.2-2.4-1.2c-1.5,0-2.6,0.6-3.3,1.7c-0.7,1.1-1,2.9-1,5.4
		V326H358v-21.4h4.5l0.8,2.7h0.3c0.6-1,1.4-1.8,2.5-2.3c1.1-0.6,2.3-0.8,3.7-0.8c3.2,0,5.4,1,6.5,3.1h0.5c0.6-1,1.4-1.8,2.5-2.3
		s2.4-0.8,3.8-0.8c2.4,0,4.3,0.6,5.5,1.9c1.2,1.2,1.9,3.2,1.9,6v14h-5.9v-12.5c0-1.5-0.3-2.7-0.8-3.5s-1.3-1.2-2.4-1.2
		c-1.4,0-2.5,0.5-3.2,1.5s-1.1,2.6-1.1,4.9V326H377.3z"/>
	<path class="st1" d="M406.4,326.3c-3.5,0-6.2-1-8.1-2.9s-2.9-4.6-2.9-8.1c0-3.6,0.9-6.4,2.7-8.3c1.8-2,4.3-2.9,7.5-2.9
		c3,0,5.4,0.9,7.1,2.6s2.5,4.1,2.5,7.2v2.8h-13.8c0.1,1.7,0.6,3,1.5,3.9s2.2,1.4,3.9,1.4c1.3,0,2.5-0.1,3.7-0.4s2.4-0.7,3.6-1.3v4.5
		c-1,0.5-2.1,0.9-3.3,1.1S408.1,326.3,406.4,326.3z M405.6,308.3c-1.2,0-2.2,0.4-2.9,1.2c-0.7,0.8-1.1,1.9-1.2,3.3h8.2
		c0-1.4-0.4-2.6-1.1-3.3C407.8,308.7,406.9,308.3,405.6,308.3z"/>
	<path class="st1" d="M431.9,304.1c0.8,0,1.5,0.1,2,0.2l-0.4,5.5c-0.5-0.1-1-0.2-1.7-0.2c-1.9,0-3.3,0.5-4.4,1.4c-1,1-1.6,2.3-1.6,4
		v11h-5.9v-21.4h4.4l0.9,3.6h0.3c0.7-1.2,1.6-2.2,2.7-2.9C429.4,304.5,430.6,304.1,431.9,304.1z"/>
	<path class="st1" d="M437.5,299c0-1.9,1.1-2.9,3.2-2.9s3.2,1,3.2,2.9c0,0.9-0.3,1.6-0.8,2.1s-1.3,0.8-2.4,0.8
		C438.6,301.8,437.5,300.9,437.5,299z M443.6,326h-5.9v-21.4h5.9V326z"/>
	<path class="st1" d="M458.5,326.3c-6.7,0-10-3.7-10-11c0-3.6,0.9-6.4,2.7-8.4c1.8-1.9,4.4-2.9,7.8-2.9c2.5,0,4.7,0.5,6.7,1.5
		L464,310c-0.9-0.4-1.8-0.7-2.6-0.9c-0.8-0.2-1.6-0.4-2.4-0.4c-3,0-4.6,2.2-4.6,6.5c0,4.2,1.5,6.3,4.6,6.3c1.1,0,2.2-0.2,3.1-0.5
		c1-0.3,1.9-0.8,2.9-1.4v5c-0.9,0.6-1.9,1-2.9,1.2C461.2,326.2,460,326.3,458.5,326.3z"/>
	<path class="st1" d="M483.6,326l-1.1-2.9h-0.2c-1,1.2-2,2.1-3,2.6s-2.4,0.7-4.1,0.7c-2.1,0-3.7-0.6-4.9-1.8c-1.2-1.2-1.8-2.9-1.8-5
		c0-2.3,0.8-4,2.4-5c1.6-1.1,4-1.7,7.2-1.8l3.7-0.1v-0.9c0-2.2-1.1-3.3-3.3-3.3c-1.7,0-3.7,0.5-6,1.6l-1.9-4
		c2.5-1.3,5.2-1.9,8.2-1.9c2.9,0,5.1,0.6,6.6,1.9s2.3,3.2,2.3,5.7V326H483.6z M481.9,316l-2.3,0.1c-1.7,0.1-3,0.4-3.8,0.9
		c-0.8,0.6-1.2,1.4-1.2,2.6c0,1.6,0.9,2.5,2.8,2.5c1.4,0,2.4-0.4,3.3-1.2c0.8-0.8,1.2-1.8,1.2-3.1V316z"/>
	<path class="st1" d="M522,326h-19.6v-4.1l7-7.1c2.1-2.1,3.4-3.6,4.1-4.4c0.6-0.8,1.1-1.6,1.4-2.3c0.3-0.7,0.4-1.4,0.4-2.2
		c0-1.1-0.3-2-0.9-2.5c-0.6-0.6-1.4-0.8-2.5-0.8c-1.1,0-2.1,0.2-3.2,0.7c-1,0.5-2.1,1.2-3.2,2.1l-3.2-3.8c1.4-1.2,2.5-2,3.4-2.5
		s1.9-0.9,3-1.1c1.1-0.3,2.3-0.4,3.6-0.4c1.8,0,3.3,0.3,4.6,1c1.3,0.6,2.4,1.5,3.1,2.7c0.7,1.2,1.1,2.5,1.1,4c0,1.3-0.2,2.5-0.7,3.6
		s-1.2,2.3-2.1,3.5c-1,1.2-2.6,2.9-5,5.1l-3.6,3.4v0.3H522V326z"/>
	<path class="st1" d="M544.3,311.9c0,4.9-0.8,8.5-2.4,10.9c-1.6,2.4-4.1,3.5-7.4,3.5c-3.2,0-5.7-1.2-7.3-3.6s-2.5-6-2.5-10.8
		c0-4.9,0.8-8.6,2.4-10.9c1.6-2.3,4.1-3.5,7.4-3.5c3.2,0,5.7,1.2,7.3,3.7C543.5,303.6,544.3,307.2,544.3,311.9z M530.6,311.9
		c0,3.4,0.3,5.9,0.9,7.4s1.6,2.2,3,2.2s2.4-0.8,3-2.3s0.9-4,0.9-7.4s-0.3-5.9-0.9-7.4c-0.6-1.5-1.6-2.3-3-2.3s-2.4,0.8-3,2.3
		C530.9,306,530.6,308.5,530.6,311.9z"/>
	<path class="st1" d="M561.9,326H556v-16.2l0.1-2.7l0.1-2.9c-1,1-1.7,1.6-2.1,1.9l-3.2,2.6l-2.9-3.6l9-7.2h4.9L561.9,326L561.9,326z
		"/>
	<path class="st1" d="M579.4,297.5c2.7,0,4.9,0.6,6.5,1.8c1.6,1.2,2.5,2.9,2.5,4.9c0,1.4-0.4,2.7-1.2,3.8c-0.8,1.1-2.1,2.1-3.8,3
		c2.1,1.1,3.6,2.3,4.5,3.5s1.4,2.6,1.4,4c0,2.3-0.9,4.2-2.7,5.6s-4.2,2.1-7.1,2.1c-3.1,0-5.5-0.7-7.2-2c-1.8-1.3-2.6-3.2-2.6-5.5
		c0-1.6,0.4-3,1.3-4.3c0.9-1.2,2.2-2.3,4.1-3.3c-1.6-1-2.7-2.1-3.5-3.2c-0.7-1.2-1.1-2.4-1.1-3.8c0-2,0.8-3.6,2.5-4.9
		C574.5,298.2,576.7,297.5,579.4,297.5z M575,318.5c0,1.1,0.4,2,1.2,2.6s1.8,0.9,3.1,0.9c1.5,0,2.6-0.3,3.3-0.9s1.1-1.5,1.1-2.5
		c0-0.9-0.4-1.7-1.1-2.4c-0.7-0.7-1.9-1.5-3.5-2.4C576.4,315,575,316.6,575,318.5z M579.3,301.9c-1,0-1.8,0.3-2.4,0.8
		c-0.6,0.5-0.9,1.2-0.9,2.1c0,0.8,0.2,1.5,0.7,2.1s1.4,1.2,2.7,1.9c1.3-0.6,2.1-1.2,2.6-1.8c0.5-0.6,0.7-1.3,0.7-2.1
		c0-0.9-0.3-1.6-1-2.1C581.2,302.1,580.3,301.9,579.3,301.9z"/>
</g>
</svg>
