<svg xmlns="http://www.w3.org/2000/svg" role="img" xmlns:xlink="http://www.w3.org/1999/xlink" viewBox="-8.07 -11.57 809.64 353.14"><style>svg {enable-background:new 0 0 792 333}</style><style>.st0{opacity:.8}.st1{fill:#939498}.st7{fill:#446ca9}.st9{fill:#221f1f}</style><g class="st0"><path id="SVGID_1_" d="M626.4 310.6h159.7v1.3H626.4z" class="st1"/><defs><path id="SVGID_2_" d="M626.4 310.6h159.7v1.3H626.4z"/></defs><clipPath id="SVGID_4_"><use overflow="visible" xlink:href="#SVGID_2_"/></clipPath><path fill="#939498" d="M626.4 310.6h159.7v1.3H626.4z" clip-path="url(#SVGID_4_)"/></g><g class="st0"><path id="SVGID_3_" d="M7.6 310.6h159.7v1.3H7.6z" class="st1"/><defs><path id="SVGID_6_" d="M7.6 310.6h159.7v1.3H7.6z"/></defs><clipPath id="SVGID_7_"><use overflow="visible" xlink:href="#SVGID_6_"/></clipPath><path fill="#939498" d="M7.6 310.6h159.7v1.3H7.6z" clip-path="url(#SVGID_7_)"/></g><path fill="#4d595a" d="M226.2 224.9c1.3-.4 3-.7 5.1-1.1 2.1-.3 4.3-.5 6.6-.5s4.3.3 5.9.9c1.6.6 2.8 1.5 3.7 2.6s1.6 2.5 1.9 4c.4 1.5.6 3.3.6 5.1v15.6h-7.8v-14.7c0-2.5-.3-4.3-1-5.4-.7-1-1.9-1.6-3.7-1.6-.6 0-1.2 0-1.8.1s-1.2.1-1.7.2v21.3h-7.8v-26.5zm-14.5 12.8c0-2.4-.5-4.3-1.4-5.7-1-1.4-2.3-2.1-4.1-2.1s-3.2.7-4.1 2.1c-1 1.4-1.5 3.3-1.5 5.7s.5 4.3 1.5 5.8c1 1.4 2.4 2.1 4.1 2.1 1.8 0 3.2-.7 4.1-2.1.9-1.4 1.4-3.4 1.4-5.8m8 0c0 2.2-.3 4.2-.9 6-.6 1.8-1.5 3.3-2.7 4.6s-2.6 2.3-4.3 3-3.5 1-5.6 1c-2 0-3.9-.3-5.5-1-1.7-.7-3.1-1.7-4.3-3s-2.1-2.8-2.8-4.6-1-3.8-1-6 .3-4.2 1-5.9c.7-1.8 1.6-3.3 2.8-4.6s2.6-2.2 4.3-2.9 3.5-1 5.4-1c2 0 3.8.3 5.5 1s3.1 1.7 4.3 2.9c1.2 1.3 2.1 2.8 2.8 4.6s1 3.8 1 5.9m-42.5 14.6c-5.9 0-10.4-1.6-13.5-4.9-3.1-3.3-4.6-8-4.6-14 0-3 .5-5.7 1.4-8.1.9-2.4 2.2-4.4 3.9-6 1.6-1.6 3.6-2.9 5.9-3.7 2.3-.8 4.7-1.3 7.4-1.3 1.5 0 2.9.1 4.2.3s2.4.5 3.3.8c.9.3 1.7.6 2.4.9.6.3 1.1.6 1.4.7l-2.4 6.6c-1.1-.6-2.4-1.1-3.9-1.5s-3.2-.6-5.1-.6c-1.3 0-2.5.2-3.7.6-1.2.4-2.3 1.1-3.2 2s-1.7 2.1-2.2 3.6c-.6 1.5-.8 3.3-.8 5.4 0 1.7.2 3.2.6 4.7.4 1.5 1 2.7 1.8 3.8.8 1 1.9 1.9 3.2 2.5s2.9.9 4.8.9c1.2 0 2.3-.1 3.2-.2.9-.1 1.8-.3 2.5-.5s1.4-.4 1.9-.7c.6-.2 1.1-.5 1.5-.7l2.3 6.6c-1.2.7-2.8 1.3-4.9 1.9-2.2.6-4.7.9-7.4.9M146 235c0-.7-.1-1.3-.3-1.9-.2-.6-.5-1.2-.9-1.7s-.9-.9-1.5-1.2-1.4-.5-2.3-.5c-.9 0-1.6.1-2.3.4-.6.3-1.2.7-1.6 1.2-.4.5-.7 1.1-1 1.7-.2.6-.4 1.3-.5 2H146zm-18.4 3c0-2.5.4-4.6 1.1-6.4.8-1.8 1.7-3.4 3-4.6 1.2-1.2 2.6-2.2 4.2-2.8 1.6-.6 3.2-.9 4.9-.9 3.9 0 7 1.2 9.3 3.6 2.3 2.4 3.4 5.9 3.4 10.6 0 .5 0 1-.1 1.5 0 .5-.1 1-.1 1.4h-17.8c.2 1.6.9 2.9 2.3 3.8 1.3.9 3.1 1.4 5.4 1.4 1.4 0 2.8-.1 4.2-.4 1.4-.3 2.5-.6 3.4-1l1.1 6.4c-.4.2-1 .4-1.7.6-.7.2-1.5.4-2.3.6-.9.2-1.8.3-2.8.4-1 .1-2 .2-2.9.2-2.5 0-4.7-.4-6.5-1.1-1.8-.7-3.4-1.7-4.6-3-1.2-1.3-2.1-2.8-2.7-4.5-.5-1.9-.8-3.8-.8-5.8m-5.1-.2c0 2.2-.3 4.2-1 6-.6 1.8-1.6 3.3-2.8 4.6-1.2 1.3-2.7 2.2-4.5 2.9s-3.8 1-6.1 1c-.9 0-1.9 0-3-.1l-3-.3c-1-.1-2-.3-2.9-.5s-1.7-.4-2.4-.6v-38.6l7.8-1.3v13.8c.9-.4 1.8-.7 2.7-.9.9-.2 2-.3 3-.3 2 0 3.7.3 5.2 1s2.8 1.7 3.8 2.9c1 1.3 1.8 2.8 2.3 4.5.6 1.7.9 3.7.9 5.9m-8-.2c0-5-1.9-7.6-5.6-7.6-.8 0-1.6.1-2.4.3s-1.4.5-1.9.8v14.2c.4.1.9.1 1.5.2s1.2.1 1.9.1c2.1 0 3.7-.7 4.8-2.2 1.1-1.5 1.7-3.4 1.7-5.8m-25.5 13c-1.3.4-3 .7-5.1 1.1-2.1.3-4.3.5-6.6.5s-4.3-.3-5.9-.9c-1.6-.6-2.8-1.5-3.7-2.7-.9-1.1-1.6-2.5-1.9-4.1-.4-1.6-.6-3.3-.6-5.2V224H73v14.4c0 2.5.3 4.3 1 5.5.7 1.1 1.9 1.7 3.7 1.7.6 0 1.2 0 1.8-.1.6-.1 1.2-.1 1.7-.2V224H89v26.6zm-36.1 1c-.7-1.2-1.6-2.5-2.6-3.9s-2.1-2.8-3.3-4.1c-1.2-1.4-2.4-2.7-3.7-4s-2.5-2.4-3.8-3.4v15.4h-8.2v-36.4h8.2V229c2.1-2.2 4.3-4.6 6.4-7 2.2-2.4 4.2-4.7 6-6.8h9.7c-2.5 2.9-5 5.8-7.5 8.5s-5.1 5.5-7.9 8.2c2.9 2.4 5.7 5.3 8.4 8.6s5.3 7 7.8 11l-9.5.1z"/><path fill="#0d717d" d="M118.6 90.9l-4.5 1c0-.6-.1-1.3-.1-1.9 0-4.8 1.3-9.5 3.8-13.6l8.8 7.9c.2.1.3.3.5.4-.5 1.3-.9 2.7-1 4.2-.3.1-.6.2-.9.2l-6.6 1.8zm17.1-26.7v12.4c-1.2.4-2.4 1-3.4 1.7l-1.2-.9-8.9-6.4c3.7-3.6 8.4-6 13.5-6.8M74.3 92.7c4.3-18.9 7.9-34.7 12.2-53.6 1.9-8.5 3.2-10.7 10.9-15.1 10.7-6.1 18.5-10.6 29.9-17.2 7.1-4.1 8.4-3.8 8.4 4.9v43.7c-7.9 1-15.2 4.7-20.8 10.5l-3.8-2.7c-.5-.3-.7-.7-.9-1.2-.5-1.3-.8-2.1-2-3-1.8-1.4-4.4-1.1-5.8.7s-1.1 4.4.7 5.8c.6.5 1.3.9 2.1 1.1.5.1 1 .2 1.5.2.5.1.8.2 1.1.5l3.5 3.2c-3.9 5.8-6 12.5-6 19.5 0 1.3.1 2.5.2 3.7l-7.6 1.6c-.5 0-1 0-1.6.1-.4.1-.8.2-1.1.4-5 1.1-10.1 2.2-15.2 3.3-7 1.6-7.3.2-5.7-6.4m70.4-16.2V64.2c5.1.9 9.8 3.2 13.5 6.8l-9.8 6.9c-.1.1-.3.2-.4.3-1-.7-2.1-1.3-3.3-1.7m21.7 14.6l-12.1-2.8c-.2-1.3-.5-2.6-1-3.8l.3-.3 8.9-8c2.6 4.1 3.9 8.9 3.9 13.7v1.2m-15.8-66.8c6.5 3.1 11.3 5.4 17.8 8.6 9.1 4.4 18.2 8.8 27.4 13.2 2.3 9.9 4.5 19.7 6.8 29.6 1.3 5.9 2.1 9 3.4 14.9 2.1 9.2 1.9 10-7.6 7.8L174.9 93c.1-1 .1-2 .1-3.1 0-7-2.1-13.8-6-19.6l3.3-3c.4-.4.8-.5 1.4-.6 1.4-.2 2.2-.4 3.4-1.3 1.8-1.4 2.1-4.1.7-5.8-1.4-1.8-4.1-2.1-5.8-.7-.6.5-1.1 1.1-1.5 1.8-.2.5-.4.9-.6 1.4-.2.4-.4.7-.8 1l-3.8 2.7c-5.5-5.8-12.8-9.4-20.7-10.5V28.7c.1-6.3.7-7 6-4.4m-8 79.5c-.8.1-1.6.2-2.4.2-.8 0-1.5-.1-2.2-.2-.1.3-.3.5-.4.8l-5.6 10.2c2.7.9 5.5 1.3 8.3 1.3 2.9 0 5.7-.5 8.4-1.4l-5.5-10c-.3-.3-.5-.6-.6-.9m9.8-6.7l12.1 2.8c-2 4.9-5.4 9.1-9.8 12l-4.8-11.6c1-1 1.8-2.1 2.5-3.2m-36.5 2.7L128 97c.7 1.2 1.6 2.3 2.6 3.3-.1.3-.2.5-.3.8l-4.5 10.8c-4.4-3-7.9-7.2-9.9-12.1m99.2 21.3c-5.8 7.2-8.4 10.6-14.2 17.8-6.6 8.2-11.9 14.9-18.4 23.1-4.7 5.9-8 6.1-15.8 6.1h-53c-10.2 0-10.8 0-17-7.8-6.1-7.7-10.9-13.7-17.1-21.4-4.8-6-6-7.6-10.8-13.6-7.5-9.4-8.7-12.7 2.9-15.3l35.9-8.2c2.7 7.6 8.1 14.1 15.1 18.2l-1.6 3.8c-.2.6-.5.8-1 1.2-1.2.8-1.8 1.3-2.5 2.6-1 2.1-.1 4.6 1.9 5.6 2.1 1 4.6.1 5.6-1.9.3-.7.5-1.4.6-2.2 0-.5-.1-1-.1-1.5s0-.8.3-1.2l2-3.7c4 1.5 8.2 2.3 12.5 2.3s8.6-.8 12.6-2.4l2 3.6c.3.5.3.9.3 1.5-.1 1.4-.2 2.2.5 3.6 1 2.1 3.5 2.9 5.6 1.9s2.9-3.5 1.9-5.6c-.3-.7-.8-1.3-1.4-1.8l-1.2-.9c-.4-.3-.6-.5-.8-1l-1.7-4c6.9-4.1 12.2-10.6 15-18.1l39.5 9c7.6 1.8 7 4.6 2.4 10.3"/><path fill="#009fad" d="M144.7 76.5V64.2c5.1.9 9.8 3.2 13.5 6.8l-9.8 6.9c-.1.1-.3.2-.4.3-1-.7-2.1-1.3-3.3-1.7m21.7 14.6l-12.1-2.8c-.2-1.3-.5-2.6-1-3.8l.3-.3 8.9-8c2.6 4.1 3.9 8.9 3.9 13.7v1.2m-15.8-66.8c6.5 3.1 11.3 5.4 17.8 8.6 9.1 4.4 18.2 8.8 27.4 13.2 2.3 9.9 4.5 19.7 6.8 29.6 1.3 5.9 2.1 9 3.4 14.9 2.1 9.2 1.9 10-7.6 7.8L174.9 93c.1-1 .1-2 .1-3.1 0-7-2.1-13.8-6-19.6l3.3-3c.4-.4.8-.5 1.4-.6 1.4-.2 2.2-.4 3.4-1.3 1.8-1.4 2.1-4.1.7-5.8-1.4-1.8-4.1-2.1-5.8-.7-.6.5-1.1 1.1-1.5 1.8-.2.5-.4.9-.6 1.4-.2.4-.4.7-.8 1l-3.8 2.7c-5.5-5.8-12.8-9.4-20.7-10.5V28.7c.1-6.3.7-7 6-4.4m1.8 72.8l12.1 2.8c-2 4.9-5.4 9.1-9.8 12l-4.8-11.6c1-1 1.8-2.1 2.5-3.2m-12.2 19.1v-12.1c.8 0 1.6-.1 2.4-.2.2.3.3.6.5.9l5.5 10c-2.7.9-5.5 1.4-8.4 1.4m74.9 4.9c-5.8 7.2-8.4 10.6-14.2 17.8-6.6 8.2-11.9 14.9-18.4 23.1-4.7 5.9-8 6.1-15.8 6.1h-26.4v-43.3c4.3 0 8.6-.8 12.6-2.4l2 3.6c.3.5.3.9.3 1.5-.1 1.4-.2 2.2.5 3.6 1 2.1 3.5 2.9 5.6 1.9s2.9-3.5 1.9-5.6c-.3-.7-.8-1.3-1.4-1.8l-1.2-.9c-.4-.3-.6-.5-.8-1l-1.7-4c6.9-4.1 12.2-10.6 15-18.1l39.5 9c7.7 2 7.1 4.8 2.5 10.5"/><path d="M508.2 119.6h-21v49h49v-21h-28zm105 .1v27.9h-27.9l-.1-.2v21.2h48.9v-49H613zm-126-49.1h21.1l-.1-.2V42.6H536l.2.2V21.6h-49zm98-49v21h28v28h20.9v-49z" class="st7"/><path fill="#76c4d5" d="M582.6 70.6l-28-28h30.6v-21h-49v21.2L564 70.6zm-25.3 49h-18.5l23.2 23.2 4.8 4.8h-30.6v21h49v-21.2l-14-13.9zm55.9-49v30.6l-4.8-4.8-23.2-23.2v18.6l13.9 13.9 13.9 13.9h21.1v-49zm-77 27.8l-27.9-27.8h-21.1v49h21V89l28 28z"/><path d="M384.7 222l-5.3 6.3c-2.4-2.9-5.9-4.7-9.1-4.7-5.7 0-10.1 4.5-10.1 10.5s4.3 10.6 10.1 10.6c3 0 6.6-1.7 9.1-4.2l5.4 5.7c-3.9 4-9.6 6.6-14.9 6.6-10.9 0-19-8-19-18.6 0-10.4 8.3-18.3 19.3-18.3 5.3 0 10.9 2.4 14.5 6.1zm4.4 30.4v-38.3h8.9v38.3h-8.9zm44.5-14c0 8.6-6.1 14.3-15.2 14.3s-15.2-5.7-15.2-14.3 6.1-14.2 15.2-14.2 15.2 5.7 15.2 14.2zm-21.5.1c0 4.3 2.5 7.2 6.2 7.2s6.2-2.9 6.2-7.2-2.5-7.2-6.2-7.2c-3.6 0-6.2 3-6.2 7.2zm53.4 13.9h-8.9v-4.6c-1.9 3.3-5 5-9 5-6 0-10-4.1-10-10.6v-17.6h8.9v15c0 3.3 1.8 5.3 4.6 5.3 3.4-.1 5.4-2.8 5.4-6.6v-13.7h8.9v27.8h.1zm35.1 0h-8.9v-3.7c-2 2.6-4.8 4-8.4 4-7.8 0-13-5.8-13-14.4 0-8.5 5.1-14.1 12.8-14.1 3.7 0 6.6 1.4 8.6 4v-14.1h8.9v38.3zm-8.9-13.9c0-4.3-2.5-7.2-6.2-7.2s-6.2 2.9-6.2 7.2c.1 4.3 2.5 7.3 6.2 7.3s6.2-3 6.2-7.3z" class="st9"/><path d="M533.3 252.4l-16.6-22.3v22.3h-8.6v-36.1h8.1l16.7 22.3v-22.3h8.6v36.1h-8.2zm39.9-18.2v18.2h-8.7v-3.2c-1.8 2.4-4.8 3.6-8.5 3.6-5.9 0-9.6-3.6-9.6-8.7 0-5.3 3.8-8.4 10.7-8.4h7.3v-.4c0-2.7-1.8-4.4-5.4-4.4-2.3 0-5.4.8-8.3 2.3l-2.5-5.9c4.3-2 8.3-3.1 12.9-3.1 7.7-.1 12.1 3.7 12.1 10zm-8.7 8.7v-2.5h-5.6c-2.7 0-4 .9-4 3 0 2 1.4 3.3 3.9 3.3 2.7.1 5.1-1.5 5.7-3.8zm32.8 8c-2 1.2-4.8 1.9-7.4 1.9-5.4 0-9.2-3-9.2-8.8v-12.3h-3.9v-5.8h3.9v-7.7h8.9v7.7h7.3v5.9h-7.3v10.9c0 2.2.9 3.1 2.6 3 .9 0 2.1-.4 3.5-.9l1.6 6.1zm13.7-34.3c0 2.8-2 4.8-4.7 4.8s-4.7-2-4.7-4.8c0-2.7 2-4.7 4.7-4.7s4.7 1.9 4.7 4.7zm-9.2 35.8v-27.8h8.9v27.8h-8.9zm22.7 0L614 224.6h9.2l6 19.7 6-19.7h8.9l-10.5 27.8h-9.1zm49.1-11.5H654c.9 3.3 3.3 5.2 6.6 5.2 2.4 0 4.8-1 6.7-2.8l4.7 4.6c-2.8 3.1-7 4.9-12.1 4.9-9.1 0-14.8-5.7-14.8-14.1 0-8.6 5.9-14.3 14.5-14.3 9.8-.2 14.6 6.3 14 16.5zm-8.6-4.8c0-3.4-2.2-5.6-5.4-5.6-3.1 0-5.2 2.3-5.8 5.6H665z" class="st7"/><path d="M710 222l-5.3 6.3c-2.4-2.9-5.9-4.7-9.1-4.7-5.7 0-10.1 4.5-10.1 10.5s4.3 10.6 10.1 10.6c3 0 6.6-1.7 9.1-4.2l5.4 5.7c-3.9 4-9.6 6.6-14.9 6.6-10.9 0-19-8-19-18.6 0-10.4 8.3-18.3 19.3-18.3 5.3 0 10.9 2.4 14.5 6.1zm31.2 16.4c0 8.6-6.1 14.3-15.2 14.3s-15.2-5.7-15.2-14.3 6.1-14.2 15.2-14.2c9.2 0 15.2 5.7 15.2 14.2zm-21.4.1c0 4.3 2.5 7.2 6.2 7.2s6.2-2.9 6.2-7.2-2.5-7.2-6.2-7.2-6.2 3-6.2 7.2zm54.7-3.7v17.6h-8.9v-15.1c0-3.3-1.9-5.3-4.9-5.3-3.3 0-5.3 2.3-5.7 5.6v14.7h-9v-27.8h8.9v4.5c2-3.3 5.2-4.9 9.3-5 6.2.1 10.3 4.3 10.3 10.8z" class="st9"/><g class="st0"><path id="SVGID_5_" d="M303.2 5.3h1.3v257h-1.3z" class="st1"/><defs><path id="SVGID_8_" d="M303.2 5.3h1.3v257h-1.3z"/></defs><clipPath id="SVGID_9_"><use overflow="visible" xlink:href="#SVGID_8_"/></clipPath><path fill="#939498" d="M303.2 5.3h1.3v257h-1.3z" clip-path="url(#SVGID_9_)"/></g><path d="M229.2 326h-7.6l-12.2-21.2h-.2c.2 3.7.4 6.4.4 8V326h-5.3v-28h7.5l12.2 21h.1c-.2-3.6-.3-6.2-.3-7.7V298h5.4v28zm26.1-10.8c0 3.5-.9 6.2-2.8 8.2-1.8 2-4.4 3-7.7 3-2.1 0-3.9-.5-5.4-1.4-1.6-.9-2.8-2.2-3.6-3.9-.8-1.7-1.3-3.7-1.3-5.9 0-3.5.9-6.2 2.7-8.2 1.8-1.9 4.4-2.9 7.7-2.9 2.1 0 3.9.4 5.4 1.3 1.6.9 2.8 2.2 3.6 3.9.9 1.7 1.4 3.6 1.4 5.9zm-14.9 0c0 2.1.3 3.7 1 4.8.7 1.1 1.8 1.6 3.4 1.6 1.6 0 2.7-.5 3.4-1.6s1-2.7 1-4.8c0-2.1-.3-3.7-1-4.8-.7-1.1-1.8-1.6-3.4-1.6-1.6 0-2.7.5-3.4 1.6-.6 1.1-1 2.7-1 4.8zm31.7-11.1c.8 0 1.5.1 2 .2l-.4 5.5c-.5-.1-1-.2-1.7-.2-1.9 0-3.3.5-4.4 1.4-1 1-1.6 2.3-1.6 4v11h-5.9v-21.4h4.4l.9 3.6h.3c.7-1.2 1.6-2.2 2.7-2.9 1.1-.8 2.3-1.2 3.7-1.2zm14.9 17.6c1 0 2.3-.2 3.7-.7v4.4c-1.5.7-3.2 1-5.4 1-2.3 0-4-.6-5.1-1.8-1.1-1.2-1.6-3-1.6-5.3V309h-2.8v-2.5l3.2-2 1.7-4.5h3.7v4.6h6v4.4h-6v10.3c0 .8.2 1.4.7 1.8.5.4 1.1.6 1.9.6zm27.8 4.3H309v-12.5c0-3.1-1.2-4.6-3.5-4.6-1.6 0-2.8.6-3.5 1.7s-1.1 2.9-1.1 5.4v10H295v-29.9h5.9v6.1c0 .5 0 1.6-.1 3.3l-.1 1.7h.3c1.3-2.1 3.4-3.1 6.2-3.1 2.5 0 4.4.7 5.7 2 1.3 1.4 2 3.3 2 5.8V326h-.1zm33.9 0l-2-6.7h-10.2l-2 6.7H328l9.9-28.2h7.3l9.9 28.2h-6.4zm-3.5-11.7c-1.9-6-2.9-9.5-3.2-10.3-.2-.8-.4-1.4-.5-1.9-.4 1.6-1.6 5.7-3.6 12.1l7.3.1zm32.1 11.7h-5.9v-12.5c0-1.5-.3-2.7-.8-3.5s-1.3-1.2-2.4-1.2c-1.5 0-2.6.6-3.3 1.7-.7 1.1-1 2.9-1 5.4V326H358v-21.4h4.5l.8 2.7h.3c.6-1 1.4-1.8 2.5-2.3 1.1-.6 2.3-.8 3.7-.8 3.2 0 5.4 1 6.5 3.1h.5c.6-1 1.4-1.8 2.5-2.3s2.4-.8 3.8-.8c2.4 0 4.3.6 5.5 1.9 1.2 1.2 1.9 3.2 1.9 6v14h-5.9v-12.5c0-1.5-.3-2.7-.8-3.5s-1.3-1.2-2.4-1.2c-1.4 0-2.5.5-3.2 1.5s-1.1 2.6-1.1 4.9V326h.2zm29.1.3c-3.5 0-6.2-1-8.1-2.9s-2.9-4.6-2.9-8.1c0-3.6.9-6.4 2.7-8.3 1.8-2 4.3-2.9 7.5-2.9 3 0 5.4.9 7.1 2.6s2.5 4.1 2.5 7.2v2.8h-13.8c.1 1.7.6 3 1.5 3.9s2.2 1.4 3.9 1.4c1.3 0 2.5-.1 3.7-.4s2.4-.7 3.6-1.3v4.5c-1 .5-2.1.9-3.3 1.1s-2.7.4-4.4.4zm-.8-18c-1.2 0-2.2.4-2.9 1.2-.7.8-1.1 1.9-1.2 3.3h8.2c0-1.4-.4-2.6-1.1-3.3-.8-.8-1.7-1.2-3-1.2zm26.3-4.2c.8 0 1.5.1 2 .2l-.4 5.5c-.5-.1-1-.2-1.7-.2-1.9 0-3.3.5-4.4 1.4-1 1-1.6 2.3-1.6 4v11h-5.9v-21.4h4.4l.9 3.6h.3c.7-1.2 1.6-2.2 2.7-2.9 1.2-.8 2.4-1.2 3.7-1.2zm5.6-5.1c0-1.9 1.1-2.9 3.2-2.9s3.2 1 3.2 2.9c0 .9-.3 1.6-.8 2.1s-1.3.8-2.4.8c-2.1-.1-3.2-1-3.2-2.9zm6.1 27h-5.9v-21.4h5.9V326zm14.9.3c-6.7 0-10-3.7-10-11 0-3.6.9-6.4 2.7-8.4 1.8-1.9 4.4-2.9 7.8-2.9 2.5 0 4.7.5 6.7 1.5L464 310c-.9-.4-1.8-.7-2.6-.9-.8-.2-1.6-.4-2.4-.4-3 0-4.6 2.2-4.6 6.5 0 4.2 1.5 6.3 4.6 6.3 1.1 0 2.2-.2 3.1-.5 1-.3 1.9-.8 2.9-1.4v5c-.9.6-1.9 1-2.9 1.2-.9.4-2.1.5-3.6.5zm25.1-.3l-1.1-2.9h-.2c-1 1.2-2 2.1-3 2.6s-2.4.7-4.1.7c-2.1 0-3.7-.6-4.9-1.8-1.2-1.2-1.8-2.9-1.8-5 0-2.3.8-4 2.4-5 1.6-1.1 4-1.7 7.2-1.8l3.7-.1v-.9c0-2.2-1.1-3.3-3.3-3.3-1.7 0-3.7.5-6 1.6l-1.9-4c2.5-1.3 5.2-1.9 8.2-1.9 2.9 0 5.1.6 6.6 1.9s2.3 3.2 2.3 5.7V326h-4.1zm-1.7-10l-2.3.1c-1.7.1-3 .4-3.8.9-.8.6-1.2 1.4-1.2 2.6 0 1.6.9 2.5 2.8 2.5 1.4 0 2.4-.4 3.3-1.2.8-.8 1.2-1.8 1.2-3.1V316zm40.1 10h-19.6v-4.1l7-7.1c2.1-2.1 3.4-3.6 4.1-4.4.6-.8 1.1-1.6 1.4-2.3.3-.7.4-1.4.4-2.2 0-1.1-.3-2-.9-2.5-.6-.6-1.4-.8-2.5-.8s-2.1.2-3.2.7c-1 .5-2.1 1.2-3.2 2.1l-3.2-3.8c1.4-1.2 2.5-2 3.4-2.5s1.9-.9 3-1.1c1.1-.3 2.3-.4 3.6-.4 1.8 0 3.3.3 4.6 1 1.3.6 2.4 1.5 3.1 2.7.7 1.2 1.1 2.5 1.1 4 0 1.3-.2 2.5-.7 3.6s-1.2 2.3-2.1 3.5c-1 1.2-2.6 2.9-5 5.1l-3.6 3.4v.3H522v4.8zm22.3-14.1c0 4.9-.8 8.5-2.4 10.9-1.6 2.4-4.1 3.5-7.4 3.5-3.2 0-5.7-1.2-7.3-3.6s-2.5-6-2.5-10.8c0-4.9.8-8.6 2.4-10.9 1.6-2.3 4.1-3.5 7.4-3.5 3.2 0 5.7 1.2 7.3 3.7 1.7 2.4 2.5 6 2.5 10.7zm-13.7 0c0 3.4.3 5.9.9 7.4s1.6 2.2 3 2.2 2.4-.8 3-2.3.9-4 .9-7.4-.3-5.9-.9-7.4c-.6-1.5-1.6-2.3-3-2.3s-2.4.8-3 2.3c-.6 1.6-.9 4.1-.9 7.5zm31.3 14.1H556v-16.2l.1-2.7.1-2.9c-1 1-1.7 1.6-2.1 1.9l-3.2 2.6-2.9-3.6 9-7.2h4.9V326zm17.5-28.5c2.7 0 4.9.6 6.5 1.8 1.6 1.2 2.5 2.9 2.5 4.9 0 1.4-.4 2.7-1.2 3.8-.8 1.1-2.1 2.1-3.8 3 2.1 1.1 3.6 2.3 4.5 3.5s1.4 2.6 1.4 4c0 2.3-.9 4.2-2.7 5.6s-4.2 2.1-7.1 2.1c-3.1 0-5.5-.7-7.2-2-1.8-1.3-2.6-3.2-2.6-5.5 0-1.6.4-3 1.3-4.3.9-1.2 2.2-2.3 4.1-3.3-1.6-1-2.7-2.1-3.5-3.2-.7-1.2-1.1-2.4-1.1-3.8 0-2 .8-3.6 2.5-4.9 1.5-1 3.7-1.7 6.4-1.7zm-4.4 21c0 1.1.4 2 1.2 2.6s1.8.9 3.1.9c1.5 0 2.6-.3 3.3-.9s1.1-1.5 1.1-2.5c0-.9-.4-1.7-1.1-2.4-.7-.7-1.9-1.5-3.5-2.4-2.7 1.2-4.1 2.8-4.1 4.7zm4.3-16.6c-1 0-1.8.3-2.4.8-.6.5-.9 1.2-.9 2.1 0 .8.2 1.5.7 2.1s1.4 1.2 2.7 1.9c1.3-.6 2.1-1.2 2.6-1.8.5-.6.7-1.3.7-2.1 0-.9-.3-1.6-1-2.1-.5-.7-1.4-.9-2.4-.9z" class="st1"/></svg>