<svg id="Layer_1" data-name="Layer 1" xmlns="http://www.w3.org/2000/svg" viewBox="0 0 419.64001 115.79238"><title>cncf-member-platinum-black</title><path d="M103.08391,33.88768a9.8819,9.8819,0,0,0,8.07082-3.90646L115.4473,34.403q-5.10891,5.75317-12.04138,5.75219A15.66985,15.66985,0,0,1,91.98734,35.7768,14.79535,14.79535,0,0,1,87.501,24.72263a14.936,14.936,0,0,1,4.57216-11.14A15.40024,15.40024,0,0,1,103.256,9.11849a15.84987,15.84987,0,0,1,12.3629,5.62349L111.455,19.46405a9.75716,9.75716,0,0,0-7.89872-3.94936,9.20727,9.20727,0,0,0-6.4608,2.468,8.60027,8.60027,0,0,0-2.683,6.6541,9.0771,9.0771,0,0,0,2.53314,6.7182A8.35642,8.35642,0,0,0,103.08391,33.88768Z"/><path d="M120.72758,39.812V9.8054h6.69651V33.84477H140.217V39.812Z"/><path d="M169.53663,35.6693a16.35037,16.35037,0,0,1-22.40864,0,14.822,14.822,0,0,1-4.55-11.05367,14.82384,14.82384,0,0,1,4.55-11.05417,16.34906,16.34906,0,0,1,22.40864,0,14.82609,14.82609,0,0,1,4.55047,11.05417A14.82422,14.82422,0,0,1,169.53663,35.6693ZM167.2614,24.63683a9.81892,9.81892,0,0,0-2.57554-6.84691,8.49157,8.49157,0,0,0-12.6637,0,9.81707,9.81707,0,0,0-2.576,6.84691,9.73977,9.73977,0,0,0,2.576,6.8257,8.5353,8.5353,0,0,0,12.6637,0A9.7416,9.7416,0,0,0,167.2614,24.63683Z"/><path d="M187.69462,32.06364a5.48146,5.48146,0,0,0,4.50658,2.08193,5.42523,5.42523,0,0,0,4.48735-2.08193,8.9179,8.9179,0,0,0,1.65292-5.68808V9.8054H205.038V26.59006q0,6.52614-3.60566,10.02356a13.92269,13.92269,0,0,1-18.48147-.02121q-3.6281-3.51936-3.62736-10.00235V9.8054h6.697V26.37556A8.82886,8.82886,0,0,0,187.69462,32.06364Z"/><path d="M234.91485,13.73306q4.29158,3.92768,4.29306,10.92547,0,6.99731-4.18556,11.07537-4.18507,4.07856-12.77169,4.07806H211.9909V9.8054h10.604Q230.62178,9.8054,234.91485,13.73306Zm-4.91537,17.83648q2.46754-2.31813,2.46853-6.73941a9.02129,9.02129,0,0,0-2.46853-6.804q-2.469-2.38249-7.57623-2.38274H218.6884V33.88768h4.24966Q227.53144,33.88768,229.99948,31.56954Z"/><path d="M277.3277,9.8054h6.69749V39.812H277.3277L263.03327,21.00947V39.812h-6.69749V9.8054h6.2675L277.3277,29.1227Z"/><path d="M312.78565,39.812l-2.79-6.482H297.41722l-2.79005,6.482h-7.1265l12.965-30.00656h6.48149l12.965,30.00656Zm-9.05754-21.07772-3.77825,8.71433h7.5131Z"/><path d="M333.90677,15.60049V39.812h-6.69749V15.60049h-8.49934V9.8054H342.4061v5.79509Z"/><path d="M347.29879,9.8054h6.6975V39.812h-6.6975Z"/><path d="M372.45458,28.9082,380.0959,9.8054h7.25569L375.288,39.812h-5.66589L357.55855,9.8054h7.2557Z"/><path d="M412.5488,9.8054v5.9667H397.61037v6.18169h13.4364v5.70929h-13.4364v6.2246h15.41084V39.812H390.91287V9.8054Z"/><path d="M95.40611,65.36717A5.53968,5.53968,0,0,0,99.93,63.17774l2.4064,2.4784a9.078,9.078,0,0,1-13.1504.76926,8.88944,8.88944,0,0,1,.04783-12.44032A8.63122,8.63122,0,0,1,95.50227,51.482a8.88532,8.88532,0,0,1,6.93024,3.153l-2.33392,2.647A5.46874,5.46874,0,0,0,95.67091,55.068a5.16019,5.16019,0,0,0-3.62144,1.38368,4.82063,4.82063,0,0,0-1.504,3.72992A5.08691,5.08691,0,0,0,91.96515,63.947,4.68466,4.68466,0,0,0,95.40611,65.36717Z"/><path d="M119.084,66.36524a9.16251,9.16251,0,0,1-12.56113,0,8.80156,8.80156,0,0,1,0-12.392,9.16251,9.16251,0,0,1,12.56113,0,8.80036,8.80036,0,0,1,0,12.392Zm-1.2752-6.18367a5.50515,5.50515,0,0,0-1.44384-3.83841,4.76114,4.76114,0,0,0-7.09889,0,5.80852,5.80852,0,0,0,0,7.664,4.785,4.785,0,0,0,7.09889,0A5.45857,5.45857,0,0,0,117.80883,60.18157Z"/><path d="M139.87476,58.09964l-4.548,9.19265H133.0885l-4.52384-9.19265V68.68781h-3.75359V51.86765h5.07712l4.33152,9.24,4.35569-9.24h5.053V68.68781h-3.75359Z"/><path d="M159.3538,53.37165a5.73265,5.73265,0,0,1,1.7688,4.62049,5.47272,5.47272,0,0,1-1.81663,4.55934q-1.81739,1.44384-5.54656,1.44385h-2.23825v4.69248h-3.7536V51.86765h5.94352Q157.58476,51.86765,159.3538,53.37165Zm-2.755,6.61761a3.23785,3.23785,0,0,0,.6736-2.21409,2.34466,2.34466,0,0,0-.87824-2.06911,4.82533,4.82533,0,0,0-2.73136-.61443h-2.1416v5.655h2.52672A3.35177,3.35177,0,0,0,156.59876,59.98926Z"/><path d="M168.50947,64.34445a3.07327,3.07327,0,0,0,2.52673,1.16671,3.04022,3.04022,0,0,0,2.51488-1.16671,4.9971,4.9971,0,0,0,.92607-3.18848V51.86765h3.75409v9.40864A7.46771,7.46771,0,0,1,176.21,66.89484a7.80174,7.80174,0,0,1-10.35937-.01183,7.45357,7.45357,0,0,1-2.03311-5.60672V51.86765h3.75359V61.156A4.95292,4.95292,0,0,0,168.50947,64.34445Z"/><path d="M189.25188,55.11629V68.68781h-3.75409V55.11629h-4.76448V51.86765h13.28354v3.24864Z"/><path d="M196.75956,51.86765h3.75458V68.68781h-3.75458Z"/><path d="M216.41908,51.86765h3.75359V68.68781h-3.75359L208.406,58.148V68.68781h-3.75459V51.86765h3.51394l8.25377,10.82881Z"/><path d="M235.23636,60.12141h3.77726v5.96768a8.83045,8.83045,0,0,1-6.93024,2.791,8.554,8.554,0,0,1-6.22016-2.45473,8.88884,8.88884,0,0,1,.04833-12.44032A8.52817,8.52817,0,0,1,232.0962,51.482a9.15076,9.15076,0,0,1,6.29215,2.38273l-1.94879,2.81569a7.46354,7.46354,0,0,0-2.08193-1.36,5.58717,5.58717,0,0,0-2.05728-.37279,4.92675,4.92675,0,0,0-3.6096,1.45567,5.81136,5.81136,0,0,0-.06016,7.65217,4.54523,4.54523,0,0,0,3.35713,1.432,6.45185,6.45185,0,0,0,3.24864-.74559Z"/><path d="M260.262,51.86765v3.297h-7.79615v3.63327h7.41152v3.297h-7.41152v6.593h-3.75458V51.86765Z"/><path d="M277.58708,66.36524a9.1619,9.1619,0,0,1-12.56064,0,8.79916,8.79916,0,0,1,0-12.392,9.1619,9.1619,0,0,1,12.56064,0,8.80156,8.80156,0,0,1,0,12.392Zm-1.2752-6.18367a5.50515,5.50515,0,0,0-1.44384-3.83841,4.76114,4.76114,0,0,0-7.09889,0,5.807,5.807,0,0,0,0,7.664,4.785,4.785,0,0,0,7.09889,0A5.45857,5.45857,0,0,0,276.31188,60.18157Z"/><path d="M287.766,64.34445a3.07453,3.07453,0,0,0,2.52672,1.16671,3.04024,3.04024,0,0,0,2.51489-1.16671,4.9971,4.9971,0,0,0,.92607-3.18848V51.86765h3.75458v9.40864a7.46982,7.46982,0,0,1-2.02178,5.61855,7.80173,7.80173,0,0,1-10.35936-.01183,7.45189,7.45189,0,0,1-2.03361-5.60672V51.86765h3.75458V61.156A4.95282,4.95282,0,0,0,287.766,64.34445Z"/><path d="M313.15253,51.86765h3.75359V68.68781h-3.75359L305.13941,58.148V68.68781h-3.75458V51.86765h3.51393l8.25377,10.82881Z"/><path d="M333.89493,54.06891a7.88822,7.88822,0,0,1,2.40641,6.1245,8.26671,8.26671,0,0,1-2.34625,6.20832q-2.34624,2.28706-7.159,2.28608h-5.75169V51.86765h5.944Q331.48853,51.86765,333.89493,54.06891Zm-2.75553,9.99841a4.93371,4.93371,0,0,0,1.38369-3.77726,5.05778,5.05778,0,0,0-1.38369-3.81474A5.92031,5.92031,0,0,0,326.89171,55.14h-2.09278V65.36717h2.38174A5.5647,5.5647,0,0,0,331.1394,64.06732Z"/><path d="M351.05239,68.68781l-1.56416-3.63327h-7.05057l-1.56416,3.63327h-3.99423l7.26753-16.82016h3.63328l7.26654,16.82016Zm-5.07712-11.815-2.11743,4.8848h4.2112Z"/><path d="M362.89209,55.11629V68.68781h-3.75458V55.11629H354.373V51.86765h13.28354v3.24864Z"/><path d="M370.39829,51.86765h3.75458V68.68781h-3.75458Z"/><path d="M392.44055,66.36524a9.1619,9.1619,0,0,1-12.56064,0,8.79914,8.79914,0,0,1,0-12.392,9.1619,9.1619,0,0,1,12.56064,0,8.80156,8.80156,0,0,1,0,12.392Zm-1.2752-6.18367a5.50515,5.50515,0,0,0-1.44384-3.83841,4.76114,4.76114,0,0,0-7.09889,0,5.807,5.807,0,0,0,0,7.664,4.785,4.785,0,0,0,7.09889,0A5.45857,5.45857,0,0,0,391.16535,60.18157Z"/><path d="M409.93431,51.86765h3.75359V68.68781h-3.75359L401.92118,58.148V68.68781H398.1666V51.86765h3.51394l8.25377,10.82881Z"/><polygon points="15.552 48.764 6.312 48.764 6.312 70.322 27.868 70.322 27.868 61.082 15.552 61.082 15.552 48.764"/><polygon points="61.743 48.833 61.743 61.082 49.494 61.082 49.426 61.014 49.426 70.322 70.982 70.322 70.982 48.764 61.674 48.764 61.743 48.833"/><polygon points="6.312 27.211 15.621 27.211 15.552 27.14 15.552 14.894 15.552 14.891 27.801 14.891 27.868 14.96 27.868 5.652 6.312 5.652 6.312 27.211"/><polygon points="49.426 5.652 49.426 14.891 61.743 14.891 61.743 27.211 70.982 27.211 70.982 5.652 49.426 5.652"/><polygon points="48.285 27.211 35.966 14.891 49.426 14.891 49.426 5.652 27.868 5.652 27.868 14.96 40.119 27.211 48.285 27.211"/><polygon points="37.175 48.764 29.01 48.764 39.217 58.972 41.329 61.082 37.109 61.082 27.868 61.082 27.868 70.322 49.426 70.322 49.426 61.014 43.3 54.889 37.175 48.764"/><polygon points="61.743 27.211 61.743 36.449 61.743 40.668 59.633 38.557 49.426 28.352 49.426 36.517 55.549 42.64 61.674 48.764 70.982 48.764 70.982 27.211 61.743 27.211"/><polygon points="27.868 39.456 15.621 27.211 6.312 27.211 6.312 48.764 15.552 48.764 15.552 35.306 27.868 47.622 27.868 39.456"/><path d="M6.31323,81.632v29.74573H413.689V81.632ZM117.72089,94.42629c0,3.08985-2.40332,4.69141-5.39795,4.69141h-2.23145v4.00586H107.154V89.772h5.45508c3.18555,0,5.11182,1.88867,5.11182,4.61621Zm12.71728,8.69727h-9.59424V89.772h2.9375v10.68164h6.65674Zm13.09863,0-1.2207-2.99414h-5.646l-1.2207,2.99414h-2.99463l5.72217-13.44727h2.7085l5.72216,13.44727ZM158.008,92.481h-4.0625v10.64258H151.008V92.481h-4.0625V89.772H158.008Zm6.2705,10.64258h-2.937V89.772h2.937Zm16.15284,0H177.9328L171.467,94.63625v8.48731h-2.89941V89.772h2.70849l6.25635,8.2207V89.772h2.89893Zm15.57714-5.81738c0,4.04394-2.27,6.02734-5.85546,6.02734-3.58594,0-5.7793-2.00293-5.7793-5.93164V89.772h2.937v7.55273c0,2.1748,1.0874,3.2998,2.88037,3.2998s2.87988-1.08691,2.87988-3.2041V89.772h2.9375Zm17.29395,5.81738H210.384v-8.7168l-3.75732,5.70313h-.07617l-3.71924-5.64551v8.65918h-2.88037V89.772h3.1665l3.50928,5.6455,3.50976-5.6455h3.166Zm24.17676,0h-2.91895v-8.7168l-3.75683,5.70313h-.07715l-3.71875-5.64551v8.65918h-2.87989V89.772h3.166l3.50977,5.6455,3.50878-5.6455h3.167Zm14.31738,0h-10.166V89.772h10.07032v2.61328h-7.15235v2.708h6.29395v2.61329h-6.29395v2.80371h7.24805Zm16.91309,0h-2.918v-8.7168l-3.75684,5.70313h-.07715L258.239,94.46438v8.65918h-2.87988V89.772h3.166l3.50976,5.6455,3.50879-5.6455h3.166Zm15.501-3.66211c0,2.44141-1.98437,3.66211-4.99707,3.66211H272.862V89.772h6.19824a4.82367,4.82367,0,0,1,3.49121,1.18261,3.06578,3.06578,0,0,1,.915,2.26953v.03809a3.106,3.106,0,0,1-1.75488,2.88086c1.54492.59082,2.499,1.4873,2.499,3.28027Zm13.53614,3.66211h-10.166V89.772h10.07031v2.61328h-7.15234v2.708h6.29394v2.61329h-6.29394v2.80371h7.24805Zm11.668,0-2.86035-4.27246h-2.30859v4.27246h-2.93652V89.772h6.10351a5.31725,5.31725,0,0,1,3.89063,1.35449,4.19047,4.19047,0,0,1,1.14453,3.05176v.03808a4.14607,4.14607,0,0,1-2.86133,4.13867l3.26172,4.76856Z"/><path d="M280.54852,93.75832v-.03808c0-.877-.68652-1.37305-1.92675-1.37305h-2.89942v2.82227h2.709C279.72821,95.16946,280.54852,94.75051,280.54852,93.75832Z"/><path d="M279.11786,97.61086h-3.39551v2.9375h3.49121c1.29688,0,2.07813-.457,2.07813-1.44922v-.03808C281.29169,98.16457,280.62469,97.61086,279.11786,97.61086Z"/><polygon points="137.719 97.535 141.267 97.535 139.493 93.206 137.719 97.535"/><path d="M112.361,92.42336h-2.26953v4.082h2.32715a2.06771,2.06771,0,0,0,2.32666-2.02246v-.03808C114.7453,93.12942,113.82977,92.42336,112.361,92.42336Z"/><path d="M307.16473,92.42336h-2.91894v3.834h2.97558c1.43067,0,2.251-.7627,2.251-1.88867v-.03809C309.47235,93.0718,308.5954,92.42336,307.16473,92.42336Z"/></svg>