<svg width="118" height="127" viewBox="0 0 118 127" fill="none" xmlns="http://www.w3.org/2000/svg">
<path d="M57.4482 0.362616L2.01131 28.9419C0.799687 29.654 0.448955 30.7168 0.459583 32.2579L0.565866 34.1816L59.0956 64.1958L117.487 34.6599C117.487 34.6599 117.551 34.3623 117.551 33.3208C117.551 33.3208 117.498 31.9497 117.19 31.312C116.85 30.5893 116.127 29.941 115.659 29.5477C114.416 28.5168 113.172 27.6028 111.057 26.4124C80.7347 9.26906 60.7961 0.437014 60.7961 0.437014C59.5101 -0.041257 58.4472 -0.211308 57.4482 0.362616Z" fill="#DEA66C"/>
<path d="M1.33112 97.4197C4.56209 99.556 10.4608 102.362 16.4232 105.593C30.2824 113.096 47.7978 122.215 56.5129 125.797C57.6926 126.286 58.3941 126.52 59.2125 126.562C59.8183 126.594 60.8173 126.19 60.8173 126.19C60.8173 126.19 59.1912 67.5331 59.0956 64.1852C58.9999 60.9117 57.6289 59.8276 56.4173 59.0411C54.5254 57.8295 50.4229 55.9377 50.4229 55.9377C50.4229 55.9377 36.0536 48.7955 21.7054 41.2707C14.8821 37.689 9.1216 34.0222 2.92534 31.0038C1.78812 30.4618 0.448975 31.142 0.448975 32.4174V95.9742C0.448975 96.58 0.820963 97.0902 1.33112 97.4197Z" fill="#B38251"/>
<path d="M115.946 97.7917L60.9342 126.158C60.052 126.615 58.9998 125.978 58.9998 124.979L59.0955 64.2064C59.0955 63.6219 58.9148 62.3359 58.7341 61.8257C58.2346 60.3377 59.3187 59.7426 59.8076 59.4981L114.373 31.3971C115.819 30.6531 117.551 31.7053 117.551 33.3314V95.1771C117.551 96.2718 116.935 97.2815 115.946 97.7917Z" fill="#966239"/>
<path opacity="0.5" d="M91.3735 45.7983C91.3735 45.7983 61.2212 61.2199 60.7323 62.5272C60.2434 63.8238 84.3908 52.2178 87.2179 50.7617C90.417 49.1143 115.542 35.6802 115.542 34.2029C115.553 32.9913 91.3735 45.7983 91.3735 45.7983Z" fill="#212121"/>
<g opacity="0.5">
<path d="M4.59387 93.9017C8.51569 95.8786 12.4056 97.9192 17.2521 100.396C17.2521 99.641 17.2521 99.2583 17.2521 98.5037C12.4269 96.038 8.52632 94.008 4.59387 92.0099C4.59387 92.7645 4.59387 93.1471 4.59387 93.9017Z" fill="#212121"/>
<path d="M12.852 94.7626C13.9573 95.3259 14.51 95.6128 15.5516 96.1442C15.5622 92.8495 15.5622 91.2021 15.5728 87.9074C14.5313 87.3759 13.9892 87.0996 12.8945 86.5363C12.8732 89.8311 12.8626 91.4678 12.852 94.7626Z" fill="#212121"/>
<path d="M5.98627 91.234C6.9003 91.7016 7.41045 91.9674 8.45202 92.4988C8.47327 89.2146 8.4839 87.5779 8.50516 84.2938C7.45296 83.7517 6.94281 83.4967 6.01815 83.0078C6.00752 86.3025 5.9969 87.9499 5.98627 91.234Z" fill="#212121"/>
<path d="M11.1195 86.6107C13.6384 87.8967 14.9776 88.5876 17.1989 89.7142C16.0935 87.7054 15.4877 86.6851 14.2761 84.6232C13.0326 85.431 12.3843 85.8242 11.1195 86.6107Z" fill="#212121"/>
<path d="M4.59387 83.2628C6.47507 84.2406 7.73983 84.8889 10.2268 86.1643C8.99396 84.0918 8.37752 83.0609 7.2403 81.0309C6.08182 81.8705 5.53979 82.3063 4.59387 83.2628Z" fill="#212121"/>
</g>
<g opacity="0.5">
<path d="M24.7877 102.989C25.6699 103.446 26.1269 103.69 27.009 104.147C26.9452 100.236 26.9134 98.2805 26.839 94.3693C25.9887 93.9229 25.5636 93.6997 24.7133 93.264C24.7452 97.1539 24.7558 99.0989 24.7877 102.989Z" fill="#212121"/>
<path d="M21.5461 102.298C24.7771 103.999 27.2853 105.274 30.3888 106.932C30.3675 105.816 29.5066 104.466 28.3375 103.839C26.5095 102.872 25.4679 102.341 23.6186 101.373C22.4282 100.768 21.5461 101.203 21.5461 102.298Z" fill="#212121"/>
<path d="M27.6998 91.2553C28.2419 92.4031 28.5182 92.9877 29.0603 94.1355C28.6351 95.0389 28.4119 95.4959 27.9655 96.3887C28.3482 96.3568 28.5395 96.3462 28.9221 96.3143C29.4322 95.6341 29.6873 95.294 30.1762 94.6138C29.7298 93.5616 29.496 93.0302 29.0284 91.978C30.325 92.6901 30.9627 93.0514 32.1424 93.7423C32.1424 97.5472 29.6554 99.2264 25.9143 97.2708C22.1732 95.3259 19.6968 90.9789 19.6968 87.1634C22.4814 88.5557 24.3519 89.4697 27.6998 91.2553Z" fill="#212121"/>
</g>
<path d="M98.0482 39.3151C97.5168 38.9218 40.4537 9.10962 40.4537 9.10962L22.747 18.2605L81.2555 48.4341L81.2873 48.466L98.4095 39.6977C98.4095 39.6977 98.3776 39.6127 98.282 39.5064C98.2076 39.4426 98.0801 39.347 98.0482 39.3151Z" fill="#FFE0B2"/>
<path d="M98.3245 39.5702C88.6315 44.3423 81.2555 48.4341 81.2555 48.4341C81.4999 48.6786 81.5105 48.9974 81.5105 49.1569C81.4787 50.3897 81.4574 51.3675 81.4255 52.5898C81.2767 58.9136 81.1917 65.248 80.9791 71.5718C81.6912 71.1467 82.5521 72.082 83.2004 71.5718C84.1995 70.7853 86.3251 67.3205 86.644 67.2142C87.0691 67.0761 87.5261 67.1824 87.9619 67.1611C89.875 67.0548 94.1581 63.1542 95.0722 62.9736C95.9543 62.8035 98.8666 63.3668 98.8666 63.3668C98.8666 63.3668 98.6646 44.0766 98.5902 40.8349C98.569 39.6871 98.3245 39.5702 98.3245 39.5702Z" fill="#BF9F85"/>
</svg>
