<?xml version="1.0" encoding="utf-8"?>
<!-- Generator: Adobe Illustrator 21.1.0, SVG Export Plug-In . SVG Version: 6.00 Build 0)  -->
<svg version="1.1" id="Layer_1" xmlns="http://www.w3.org/2000/svg" xmlns:xlink="http://www.w3.org/1999/xlink" x="0px" y="0px"
	 viewBox="0 0 504 504" style="enable-background:new 0 0 504 504;" xml:space="preserve">
<style type="text/css">
	.st0{fill:#FFFFFF;}
</style>
<g>
	<path class="st0" d="M401.3,371.7c-1.7-12.3-6.9-17.7-11.5-22.6c-4.3-4.5-8.3-8.8-7-16.6c1.2-7.2,7-11.7,16.4-12.9
		c-5.7-38.6-14.1-87.4-24.9-129c-5.4-20.8-13.9-35.2-25.3-44.8c2.1-1.1,4.1-2.1,6.1-3.2c2.7-1.4,5.3-2.8,7.7-4.2
		c25.2-14.1,29.3-20.9,30.2-24.8c0.8-3.3-0.3-5.5-1.3-6.8c-2.4-3-7-4.4-14.4-4.4c-8.3,0-19.5,1.7-31.2,4.2c-0.1,2.1-0.3,4.3-0.6,6.7
		c12-2.6,23.5-4.5,31.7-4.5c7.5,0,9.2,1.6,9.5,1.9c0.1,0.1,0.3,0.4,0.1,1.4c-0.3,1.5-3.3,7.3-27.1,20.7c-6.8,3.8-14.9,8-24,12.4
		l-0.1,0.1l-0.2,0c-10.5,5.1-22.4,10.5-35.2,16.1c-7.6,3.3-15.2,6.5-22.6,9.5c3.6-4.1,6.7-7.8,9-10.6c4.5-5.4,3.8-13.5-1.7-18
		c-0.4-0.3-0.7-0.6-1.1-0.8c10.5-2.7,23.4-3.4,33.2-3.4c9,0,15.4,0.5,15.4,0.5c2.8-3.9,19.1-59.6-9-59.6c-24.2,0-40,47.3-44,60.7
		c-4.5-1-9.4,0.5-12.5,4.3c-14.8,17.8-34.4,38.7-39.9,41.5c-0.8,0.3-1.4,0.6-1.8,0.7c-4.1-3.4-10.2-4-15-0.9
		c-4.2,2.6-6.3,7.3-5.9,11.9c-1.6,0.4-3,0.6-3.9,0.8c-2.1,0.2-5.3,0.5-9.4,0.8c-0.2-0.2-0.5-0.5-0.7-0.7c-4-3.3-9.4-3.8-13.8-1.6
		c-2.4,0-11.1-0.6-32.9-9.4c-21.4-8.6-32-11.1-37.4-11.6c4.4-1.9,7.3-3.1,7.3-3.1s-15-44.1-35.2-44.1c-2.6,0-5.3,0.7-8.1,2.4
		c-24.2,14.6,9.6,59.1,9.6,59.1c3.9-2.7,8.1-5.2,12.3-7.4c-1.2,2.4-1.7,5.2-1.2,8c1,5.4,5.2,9.3,10.2,10.3
		c-45.4-1.5-53.4-7.6-54.8-9.6c-0.3-0.5-0.5-0.9-0.1-1.8c1.7-4.3,8.6-8.9,17.5-13.1c-1-1.8-1.9-3.8-2.8-5.8
		c-9.8,4.7-18.3,10.3-20.7,16.6c-1.1,2.7-0.8,5.3,0.8,7.7c1.5,2.2,5.3,7.7,33.2,10.7c2.1,0.2,4.3,0.4,6.7,0.6
		c-11.8,24.4-6.7,51.4-2.3,73.7c4.7,24.2,19.6,63.7,31.8,93.4c5.7,13.9,10.7,25.7,13.8,32.8c36.1,3.2,82.4,5.1,132.9,5.1
		c59.7,0,113.6-2.7,151.6-7c-2.4-9.2-6.2-25.2-7.2-31.2C401.5,372.5,401.4,372,401.3,371.7z M302.7,120.2c0-0.5,0-1.2,0.1-2
		c0.1-1.7,0.5-4.2,1.2-7.1c0.8-2.9,2-6.2,4.1-9.6c1.1-1.7,2.4-3.4,4.1-4.8c0.6-0.6,1.4-1.1,2.1-1.5c0.5-0.3,1.1-0.6,1.6-0.8
		c0.9-0.4,1.8-0.6,2.7-0.8c0.6-0.1,1.3-0.1,1.9-0.2c0.6,0,1.3,0,1.9,0.1c0.6,0.1,1.2,0.2,1.8,0.4l0.3,0.1l0.6,0.2l0.3,0.1l0.1,0.1
		l0.1,0l0,0l0.3,0.1l0,0l0,0l0.1,0l0.1,0c0.1,0,1.6,1,2,1.6l0.4,0.5l0.3,0.5c0.2,0.3,0.3,0.6,0.4,0.9c0,0.1,0.1,0.1,0.1,0.2
		c0,0.1,0,0.1,0.1,0.2c0.4,1.3,0.4,2.5,0.4,3.6c-0.1,1.1-0.3,2.1-0.5,3.1c-0.2,0.9-0.5,1.8-0.9,2.6c-0.6,1.7-1.4,3.1-2.1,4.4
		c-1.4,2.6-2.9,4.6-4,6c-1.1,1.4-1.8,2.1-1.8,2.1s0.2-1,0.6-2.6c0.4-1.7,1-4,1.7-6.7c0.3-1.4,0.6-2.9,0.9-4.4
		c0.3-1.5,0.4-3.1,0.4-4.5c0-0.2,0-0.4-0.1-0.6c-0.1-0.4-0.2-0.8-0.3-1c0-0.1-0.1-0.1-0.1-0.2c0,0,0,0,0,0c0,0,0,0,0,0l-0.3-0.1
		l-0.2,0l-0.6-0.2c-0.3-0.1-0.6-0.1-0.9-0.2c0,0-0.1,0-0.1,0c-0.4-0.1-0.7,0-1-0.1c-0.3,0-0.6,0.1-0.9,0.1c-0.9,0.2-1.9,0.5-2.8,1.1
		c-0.3,0.2-0.6,0.4-0.9,0.6c-0.3,0.2-0.6,0.5-0.9,0.7c-0.6,0.5-1.2,1.1-1.7,1.7c-0.3,0.3-0.5,0.6-0.8,0.9c-0.5,0.6-1,1.3-1.5,1.9
		c-1.4,2-2.7,4-3.8,5.8c-1.1,1.8-2,3.5-2.7,4.8c-0.2,0.4-0.5,0.9-0.7,1.2c-0.8,1.5-1.3,2.4-1.3,2.4S302.7,120.6,302.7,120.2z
		 M215.2,193.1c0.2-0.1,0.3-0.2,0.5-0.3c0.5-0.2,1-0.3,1.5-0.3c0.4,0,0.9,0.1,1.3,0.2c0.4,0.1,0.8,0.4,1.1,0.6l3.6,3l4.5-1.3
		c1-0.3,2-0.7,3.1-1.1l0.2-0.1l0.2-0.1c1.4-0.7,3.2-2,5.2-3.7c11.1-9.3,30-31.1,37.5-40.1c0.7-0.9,1.8-1.4,2.9-1.4
		c0.6,0,1.5,0.2,2.4,0.9c1.6,1.3,1.8,3.7,0.5,5.3c-5.1,6.2-10.1,11.9-14.8,17.1c-6.4,7.2-12.3,13.3-17.4,18.1
		c-0.5,0.4-0.9,0.9-1.3,1.3c-0.9,0.8-1.7,1.6-2.6,2.3c-0.8,0.7-1.6,1.4-2.4,2.1c-1.9,1.6-3.6,2.9-5,3.8c-0.9,0.6-1.6,1-2.3,1.3
		c-0.4,0.2-0.8,0.4-1.3,0.5c-1.3,0.5-2.5,0.9-3.7,1.2c-1.6,0.4-3.1,0.6-4.6,0.6c-0.9,0-1.8-0.1-2.7-0.2c-0.9-0.1-1.7-0.4-2.5-0.7
		c-0.4-0.2-0.8-0.3-1.2-0.5c-0.4-0.2-0.7-0.4-1-0.6c-1.9-1.2-2.8-2.5-3-2.9c-0.1-0.2-0.3-0.4-0.3-0.7c-0.2-0.5-0.3-1-0.2-1.4
		C213.4,195,214.1,193.8,215.2,193.1z M270.6,328.4c-4.1,1.8-10.1,2.6-20.1,2.6c-0.2,0-0.3,0-0.5,0c0.2,2,0.4,4.3,0.6,7.1
		c0,0.5,0.1,1,0.1,1.5c0.1,5.7-2.1,9.1-3.9,10.9c-2.5,2.5-5.9,3.9-9.8,3.9c-1.8,0-3.7-0.3-5.1-0.8c-1.2-0.4-2.2-1.1-3.1-1.9
		c-1.9,3.6-4.9,5-6.7,5.5c-1.5,0.4-3,0.7-4.4,0.7c-7.3,0-12.8-5.4-15.3-14.9c-0.7,0.4-1.4,0.8-2.1,1.2c-2.6,1.4-5.8,2.2-9.2,2.2
		c-6.4,0-12.3-2.5-16-6.7c-3-3.5-4.3-7.8-3.7-12.5c1.9-14.2,22.2-21.4,24.5-22.2l3.7-1.3c-0.1-0.4-0.2-0.7-0.3-1.1
		c0-0.2-0.1-0.5-0.1-0.7c0-0.1,0-0.1,0-0.2c0-0.2,0-0.3,0-0.5c0-0.1,0-0.2,0-0.2c0-0.2,0-0.3,0.1-0.5c0-0.1,0-0.1,0-0.2
		c0-0.2,0.1-0.5,0.2-0.7c0,0,0,0,0,0c0.1-0.2,0.1-0.5,0.2-0.7c0-0.1,0.1-0.1,0.1-0.2c0.1-0.2,0.1-0.3,0.2-0.5c0-0.1,0.1-0.2,0.1-0.2
		c0.1-0.2,0.2-0.3,0.3-0.5c0-0.1,0.1-0.1,0.1-0.2c0.1-0.2,0.3-0.5,0.4-0.7c0,0,0,0,0,0c0.2-0.2,0.3-0.4,0.5-0.7
		c0-0.1,0.1-0.1,0.1-0.2c0.1-0.2,0.3-0.3,0.4-0.5c0.1-0.1,0.1-0.1,0.2-0.2c0.2-0.2,0.3-0.3,0.5-0.5c0,0,0.1-0.1,0.1-0.1
		c0.4-0.4,0.9-0.9,1.4-1.3c0.1-0.1,0.1-0.1,0.2-0.1c0.2-0.2,0.4-0.3,0.6-0.5c0.1-0.1,0.1-0.1,0.2-0.2c0.2-0.2,0.5-0.3,0.7-0.5
		c0.1,0,0.1-0.1,0.2-0.1c0.3-0.2,0.6-0.4,0.9-0.6l0,0c0,0,0,0,0,0c0.4-0.2,0.7-0.4,1.1-0.6c0.1,0,0.1-0.1,0.2-0.1
		c0.8-0.4,1.6-0.8,2.4-1.1c0.1,0,0.2-0.1,0.3-0.1c0.4-0.2,0.9-0.3,1.3-0.5c0,0,0,0,0,0c0.4-0.2,0.9-0.3,1.3-0.4
		c0.1,0,0.2-0.1,0.3-0.1c0.5-0.1,0.9-0.3,1.4-0.4c0,0,0,0,0,0c0.5-0.1,0.9-0.2,1.4-0.3c0.1,0,0.2-0.1,0.4-0.1c0.5-0.1,1-0.2,1.4-0.3
		c0.5-0.1,1.1-0.2,1.6-0.2c0.6-0.1,1.1-0.1,1.7-0.2c0.2,0,0.4,0,0.5,0c0.4,0,0.7,0,1.1-0.1c0.2,0,0.4,0,0.6,0c0.3,0,0.7,0,1,0
		c0.2,0,0.4,0,0.7,0c0.3,0,0.6,0,0.9,0c0.2,0,0.4,0,0.7,0c0.3,0,0.6,0.1,0.9,0.1c0.4,0,0.8,0.1,1.2,0.2c0.2,0,0.5,0.1,0.7,0.1
		c0.3,0.1,0.6,0.1,0.8,0.2c0.2,0,0.3,0.1,0.5,0.1c0.3,0.1,0.6,0.1,0.9,0.2c0.1,0,0.3,0.1,0.4,0.1c0.3,0.1,0.6,0.2,0.9,0.3
		c0.1,0,0.2,0.1,0.3,0.1c1.8,0.6,3.4,1.4,4.6,2.4c0,0,0,0,0,0c0.3,0.2,0.5,0.4,0.7,0.6c0,0,0,0,0,0c0,0,0,0,0,0
		c0.3,0.3,0.6,0.6,0.8,0.8c0.1,0.1,0.2,0.2,0.3,0.3c0.1,0.1,0.2,0.2,0.2,0.3c0.1,0.2,0.2,0.3,0.3,0.5l0,0c0.1,0.1,0.1,0.2,0.2,0.3
		l4.5,0c10.3,0.1,18.8,1.5,25.3,4.1c6.5,2.7,10.5,6.5,11.2,10.9C283.5,317,279.2,324.6,270.6,328.4z M96.9,170.1
		c-1-1.2-2.3-3-3.8-5.1c-1.5-2.1-3.2-4.6-5.1-7.1c-0.9-1.3-1.9-2.5-2.9-3.7c-0.4-0.4-0.8-0.9-1.2-1.3c-0.4-0.4-0.8-0.8-1.2-1.1
		c-0.3-0.2-0.5-0.4-0.8-0.6c-0.2-0.2-0.5-0.3-0.7-0.5c-0.2-0.1-0.4-0.2-0.6-0.3c-0.1,0-0.1,0-0.2,0l0,0c0,0,0,0,0,0
		c0.1,0,0.1,0,0.1,0c0,0,0,0,0.1,0c0,0,0,0,0,0c0,0,0,0,0,0l-0.3,0.1l-0.2,0c-0.3,0.1-0.4,0.2-0.6,0.3c-0.2,0.2-0.4,0.6-0.5,1.1
		c-0.3,1-0.3,2.5-0.2,3.8c0.1,1.4,0.3,2.7,0.5,4c0.4,2.5,0.9,4.7,1.2,6.2c0.2,0.8,0.3,1.4,0.4,1.8c0,0.1,0,0.2,0.1,0.3
		c0,0.2,0.1,0.4,0.1,0.4s-0.2-0.2-0.4-0.5c-0.3-0.3-0.7-0.8-1.2-1.4c-0.7-0.9-1.6-2.2-2.6-3.8c-0.3-0.5-0.6-1.1-0.9-1.7
		c-0.2-0.4-0.4-0.8-0.6-1.3c-0.4-0.9-0.8-1.9-1.1-2.9c-0.4-1.6-0.9-3.4-0.7-5.6c0.1-0.8,0.3-1.7,0.6-2.6c0.1-0.3,0.3-0.6,0.5-0.9
		c0.7-1.2,2-2.3,3.3-2.8l0.2-0.1l0.1-0.1l0.4-0.1l0.3-0.1l0.3-0.1c0.1,0,0.5-0.1,0.7-0.1c0.2,0,0.5,0,0.8,0l0.4,0l0.3,0
		c0.4,0.1,0.7,0.1,1.1,0.2c1,0.3,1.9,0.7,2.6,1.2c0.2,0.2,0.5,0.3,0.7,0.5c0.4,0.3,0.7,0.6,1,0.9c0.5,0.4,0.9,0.8,1.3,1.2
		c0.7,0.7,1.3,1.5,1.8,2.2c1.1,1.5,2,3,2.9,4.5c0.8,1.5,1.5,3,2.1,4.4c0.4,0.9,0.7,1.8,1,2.6c0.2,0.5,0.4,1,0.5,1.5
		c0.2,0.6,0.4,1.3,0.6,1.8c0.5,1.8,0.8,3.3,1.1,4.4c0.1,0.6,0.2,1,0.2,1.4c0,0,0,0.1,0,0.1c0,0.1,0,0.2,0,0.3c0,0.4,0.1,0.6,0.1,0.6
		S97.9,171.4,96.9,170.1z M99.8,189.1c-0.2-1.3,0.3-2.3,0.6-2.8c0.3-0.5,1.1-1.3,2.4-1.6c0.3-0.1,0.5-0.1,0.8-0.1c0.1,0,0.2,0,0.4,0
		c0.3,0,0.8,0,1.3,0.1c0.4,0,0.9,0.1,1.4,0.2c0.9,0.1,2,0.3,3.4,0.6c0.8,0.2,1.7,0.4,2.7,0.6c0.8,0.2,1.6,0.4,2.5,0.7
		c0.5,0.2,1.1,0.3,1.7,0.5c0.7,0.2,1.4,0.4,2.1,0.6c0.6,0.2,1.3,0.4,1.9,0.6c0.3,0.1,0.6,0.2,1,0.3c0.7,0.2,1.4,0.5,2.1,0.7
		c1.4,0.5,3,1,4.6,1.6c0.8,0.3,1.6,0.6,2.4,0.9c0.5,0.2,1,0.4,1.5,0.6c2.4,0.9,5,1.9,7.8,3c0.8,0.3,1.5,0.6,2.3,0.9
		c1,0.4,1.9,0.7,2.8,1.1c1.5,0.6,2.9,1.1,4.3,1.6c0.8,0.3,1.5,0.5,2.3,0.8c5.6,2,10.1,3.3,13.8,4.1c0.3,0.1,0.6,0.1,0.9,0.2
		c1.7,0.4,3.2,0.7,4.6,0.9c0.1,0,0.3,0,0.4,0.1c1.9,0.3,3.5,0.4,4.7,0.4l2.3,0l1.8-0.9c0.5-0.3,1.1-0.4,1.7-0.4c0.3,0,0.7,0,1.1,0.2
		c0.4,0.1,0.9,0.3,1.3,0.7c0.3,0.2,0.5,0.4,0.6,0.7c0.2,0.3,0.4,0.6,0.5,0.9c0,0.1,0,0.1,0.1,0.2c0.1,0.3,0.1,0.5,0.2,0.7
		c0,0.1,0,0.3,0,0.5c0,0.2,0,0.4-0.1,0.7c-0.1,0.2-0.1,0.5-0.3,0.8c-0.1,0.3-0.3,0.5-0.5,0.8c-0.1,0.1-0.2,0.2-0.3,0.3
		c-0.1,0.1-0.2,0.3-0.4,0.4c-0.1,0.1-0.2,0.1-0.3,0.2c-0.3,0.2-0.7,0.5-1.2,0.7c-0.6,0.3-1.5,0.6-2.5,0.8c-0.5,0.1-1.1,0.2-1.8,0.2
		c-0.7,0.1-1.4,0.1-2.2,0.1c-2.1,0-4.5-0.2-7.2-0.7c-2.7-0.4-5.7-1.1-8.9-2s-6.8-2-10.6-3.3c-3.8-1.3-7.9-2.9-12.3-4.6
		c-5.3-2.1-9.8-3.8-13.6-5.2c-0.5-0.2-0.9-0.3-1.4-0.5c-10.5-3.6-15.5-4.5-17.5-4.7l-0.1,0l-0.6-0.1l-0.7,0l-0.2,0
		C101.7,192.2,100.2,190.9,99.8,189.1z M96.3,267.5c0-27.8,22.6-50.3,50.3-50.3s50.3,22.6,50.3,50.3c0,27.8-22.6,50.3-50.3,50.3
		S96.3,295.3,96.3,267.5z M275.7,287.9c-27.8,0-50.3-22.6-50.3-50.3c0-27.8,22.6-50.3,50.3-50.3s50.3,22.6,50.3,50.3
		C326,265.3,303.4,287.9,275.7,287.9z"/>
	<path class="st0" d="M95.1,416.4c9.2,0,15.9-4.8,20.6-11.1c0.3-0.4,0.5-0.7,0.8-1.1c-3.2-7.5-7.7-18.1-12.6-30.1
		c-3.4-8.4-7-17.6-10.6-26.9c-2.3,2-5,5-7.9,9.5c-3.2,4.9-6.1,12.8-7.8,21.2c-1.5,7.6-1.9,15.6-0.6,22.4c0.6,2.8,1.4,5.4,2.7,7.7
		C82.8,413.6,87.9,416.4,95.1,416.4z"/>
	<path class="st0" d="M48.8,389.1c0,3.5,7.6,6.8,21.1,9.7c-1-7-0.4-14.1,0.5-19.6C56.6,382.2,48.8,385.5,48.8,389.1z"/>
	<path class="st0" d="M447.5,380c-0.2,0.6-0.4,1.1-0.7,1.7c-1.7,3.9-4,7.3-7.1,10.2c-6.1,5.8-11.5,9.2-16.2,10.5
		c26.4-3.7,42.1-8.3,42.1-13.3C465.7,385.9,459.2,382.8,447.5,380z"/>
	<path class="st0" d="M440.4,378.5c3.7-8.6,2.4-18.9-0.7-26.9c-5.7-14.8-17.9-25.3-29.6-25.6l-0.4,0c0,0-2.3-0.3-5.3-0.3
		c-6.4,0-14.2,1.4-15.3,7.8c-0.7,4.5,1.2,6.8,5.4,11.2c4.8,5,11.3,11.8,13.2,26.1c0.1,1,0.3,2,0.4,3c2.3,14.4,6.1,21.7,11.4,21.7
		c2.6,0,7.4-1.6,15.4-9.1C437.4,384,439.2,381.4,440.4,378.5z"/>
	<path class="st0" d="M102.9,137.8c-0.4-10.9-0.6-21.6-0.1-24.8c1.4-6.5,41.8-52.7,68.4-58.1c2.2-0.4,4.8-0.7,7.8-0.7
		c30,0,87.4,21.4,94.4,25.1c0.4,0.9,0.9,2.6,1.5,4.9c-3.3,3.4-5.9,8.6-7.3,14.7c-1.4,6.2-1.1,12,0.4,16.4
		c-30.3,13.2-105.7,41.7-162.3,26.4c1.2,1.8,2.4,3.7,3.5,5.8c4.3,7.5,7.4,14.8,9.1,19.2c23.4,3.7,75.1,4.5,156.2-32
		c1.5-4.8,3.9-11.7,7.1-19.1c-1.5,1.4-3,2-4.2,1.8c-3.3-0.7-5.5-8.2-3.5-17.1c1.9-8.4,6.6-14.1,9.8-14.1c0.2,0,0.4,0,0.5,0.1
		c3.2,0.7,5.3,7.7,3.7,16.1c10.6-19.6,22.6-29.5,35.6-29.5c4.4,0,8.2,1,11.5,3c5.5-6.7,9-11.3,9-11.3c-4.1,0.7-12.8,1.9-12.8,1.9
		c32.6-12,30-44.6,30-44.6c0,5.6-16.9,19.1-16.9,19.1c0.8-4.9-1.9-11.3-1.9-11.3c0.7,6.4-19.5,22.9-19.5,22.9c1.5-3,0.4-8.3,0.4-8.3
		c-1.1,6-10.1,8.3-10.1,8.3c5.6-6.8,16.1-42.4,8.3-44.6c-7.9-2.3-18.8,23.3-18.8,23.3c-0.4-6-3.8-6-3.8-6
		C300.4,44,285.4,59,285.4,59c-1.1-3.8-7.1-5.6-7.1-5.6c1.4,3,0.6,13.8-0.2,21.6c-0.1-0.1-0.2-0.2-0.2-0.2c-3.2-3.2-67.4-27-99-27
		c-3.4,0-6.5,0.3-9,0.8c-16.7,3.4-36.6,20.6-46.9,30.6C110.6,91,97.3,106.5,96.4,112c-0.4,2.9-0.4,10.2-0.2,18.3
		C98.5,132.3,100.7,134.9,102.9,137.8z"/>
	<path class="st0" d="M144.7,449.9c-7.2,1.6-28.2,13.1-46.4,16.6c-18.2,3.5-34,5.3-39.5,7.4c-5.5,2-9.8,6.1,1,10.2
		c10.8,4.1,63.4,5.5,68.1,0c4.7-5.5-3.2-7.9-14.7-7.8c-8.2,0.1-7.2-2.7-7.2-3.1c0,0,0.5-3.6,13.1-5.3c12.6-1.7,68.1-7,67.1-12.9
		C185.2,449.1,151.9,448.3,144.7,449.9z"/>
	
		<ellipse transform="matrix(0.9771 -0.2127 0.2127 0.9771 -102.5158 34.406)" class="st0" cx="108.7" cy="493.7" rx="10.9" ry="3.2"/>
	
		<ellipse transform="matrix(0.9969 -7.918606e-02 7.918606e-02 0.9969 -38.7203 8.1546)" class="st0" cx="83.5" cy="492.3" rx="11.5" ry="3.1"/>
	<ellipse transform="matrix(0.9908 -0.1351 0.1351 0.9908 -65.6035 13.0475)" class="st0" cx="63.3" cy="489.8" rx="7.7" ry="2.4"/>
	<ellipse transform="matrix(0.9896 -0.1437 0.1437 0.9896 -69.5683 12.0238)" class="st0" cx="48.4" cy="487.5" rx="7.4" ry="1.9"/>
	<ellipse transform="matrix(0.9896 -0.1437 0.1437 0.9896 -69.0006 11.4951)" class="st0" cx="45.1" cy="483.3" rx="7.4" ry="1.9"/>
	<ellipse transform="matrix(0.9896 -0.1438 0.1438 0.9896 -68.3606 11.3268)" class="st0" cx="44.2" cy="478.5" rx="6.4" ry="1.7"/>
	<path class="st0" d="M253.9,455.7c-12.5,0.6-40.7-0.8-44.6,5.7c-3.9,6.5,11.5,9,35.6,7c24.1-2,58.3-4.7,59.7-12.1
		c1.4-7.4-6.3-5.9-7.2-10.6c-0.8-4.7,8.6-4.7,10.4-11.7c1.8-7-12.7-6.1-25.6-6.1s-34.4,1.2-36.4,8c-2,6.8,9.8,6.8,18.2,8.4
		c8.4,1.6,5.9,4.7,5.9,4.7C269.7,453.2,266.4,455.1,253.9,455.7z"/>
	<ellipse class="st0" cx="220.6" cy="473.6" rx="10.8" ry="3.5"/>
	<ellipse class="st0" cx="248.4" cy="472.9" rx="7.2" ry="3.2"/>
	<ellipse class="st0" cx="270.9" cy="470.6" rx="7.9" ry="2.6"/>
	<ellipse class="st0" cx="288.2" cy="467.6" rx="5.8" ry="2.8"/>
	<ellipse class="st0" cx="303.2" cy="464.5" rx="5.8" ry="2.7"/>
	<path class="st0" d="M146.7,225.9c-10.8,0-20.6,4.1-28,10.8c-0.5,0.4-1,0.9-1.4,1.4c-7.5,7.5-12.2,17.9-12.2,29.4
		c0,4.3,0.7,8.5,1.9,12.4c0.4,1.3,0.9,2.6,1.4,3.8c0.5,1.2,1.1,2.5,1.8,3.6c1,1.8,2,3.5,3.2,5.1c7.6,10.2,19.7,16.7,33.4,16.7
		c23,0,41.6-18.6,41.6-41.6S169.6,225.9,146.7,225.9z M142.9,295.3c-3.6,0-6.9-1.5-9.3-3.8c-0.5-0.5-0.9-1-1.3-1.5
		c-0.3-0.4-0.5-0.7-0.7-1.1c-0.5-0.8-0.8-1.6-1.1-2.5c-0.1-0.2-0.1-0.4-0.2-0.6c-0.3-1.1-0.5-2.3-0.5-3.6c0-7.2,5.9-13.1,13.1-13.1
		c5.9,0,10.9,3.9,12.5,9.2c0.4,1.2,0.6,2.5,0.6,3.9C156,289.4,150.2,295.3,142.9,295.3z"/>
	<path class="st0" d="M290,198.4c-2.5-0.9-5.2-1.6-8-2c-2.1-0.3-4.2-0.5-6.3-0.5c-9.3,0-18,3.1-24.9,8.3c-3.2,2.4-6.1,5.2-8.5,8.5
		c-1.2,1.6-2.3,3.3-3.2,5.1c-0.6,1.2-1.2,2.4-1.8,3.6c-0.5,1.2-1,2.5-1.4,3.8c-1.2,3.9-1.9,8.1-1.9,12.4c0,5,0.9,9.9,2.5,14.3
		c0.2,0.6,0.5,1.3,0.7,1.9c1.1,2.5,2.3,4.9,3.8,7.1c0.4,0.6,0.8,1.1,1.2,1.6c0.8,1.1,1.7,2.1,2.5,3.1c1.3,1.5,2.8,2.9,4.3,4.1
		c7.2,5.9,16.4,9.5,26.5,9.5c23,0,41.6-18.6,41.6-41.6C317.3,219.6,305.9,204.3,290,198.4z M275.2,263.5c-1.6,0.7-3.3,1-5.1,1
		c-1.4,0-2.7-0.2-3.9-0.6c-1.5-0.5-3-1.2-4.2-2.2c-0.4-0.3-0.8-0.7-1.2-1c-0.3-0.3-0.6-0.6-0.8-0.9c-0.4-0.5-0.8-1.1-1.2-1.7
		c-0.3-0.5-0.6-1-0.8-1.6c-0.3-0.7-0.5-1.4-0.7-2.1c-0.2-1-0.4-1.9-0.4-3c0-0.5,0-0.9,0.1-1.3c0-0.4,0.1-0.9,0.2-1.3
		c1-4.7,4.4-8.5,9-9.9c1.2-0.4,2.5-0.6,3.9-0.6c1.8,0,3.5,0.4,5.1,1c0.8,0.3,1.5,0.7,2.2,1.2c0.4,0.2,0.7,0.5,1,0.8
		c2.9,2.4,4.8,6.1,4.8,10.1C283.2,256.8,279.9,261.5,275.2,263.5z"/>
	<path class="st0" d="M224.2,344.3c-0.4-1-0.7-2-0.9-2.8c-0.9-3.1-1.6-6.3-2-8.7c-1.1,0.4-2.2,0.8-3.3,1.3c-3.7,1.8-7,3.8-10,5.7
		c-0.1,0-0.1,0.1-0.2,0.1c0.8,3.7,3.3,11.8,9.8,11.8c0.8,0,1.7-0.1,2.6-0.4C223.2,350.3,224.2,347.5,224.2,344.3z"/>
	<path class="st0" d="M233.1,330.7c-1.9,0-3.3,0.1-4.2,0.2c-0.6,0.1-1.1,0.2-1.7,0.3c0.4,2.3,1,5.5,1.9,8.5c1.1,3.8,2.7,7.3,4.8,8.1
		c0.6,0.2,1.7,0.4,2.9,0.4c3.3,0,7.7-1.5,7.6-8.5c0-0.4,0-0.7,0-1.1c-0.3-3.4-0.5-5.8-0.7-7.6c-1.1,0-2.3-0.1-3.3-0.1
		C237.8,330.8,235.2,330.7,233.1,330.7z"/>
	<path class="st0" d="M245.5,299.4c0,0-1.2,14-20.9,16.9c-3.7,0.6-6.9,0.8-9.7,0.8c-10.5,0-14.6-3.5-17.1-6.5
		c0,0-18.9,6.4-20.4,17.2c-1.1,8.1,6.7,12.3,13.6,12.3c2.3,0,4.5-0.5,6.3-1.4c6.9-3.8,17.2-12.1,30.9-13.9c1.2-0.2,3-0.2,5-0.2
		c4.7,0,11.1,0.3,17.3,0.3c7.1,0,13.9-0.4,17.6-2.1c8.5-3.8,8.5-10.3,7.9-13.5C275.4,305.7,266.8,299.6,245.5,299.4z"/>
</g>
</svg>
