<?xml version="1.0" encoding="utf-8"?>
<!-- Generator: Adobe Illustrator 25.2.0, SVG Export Plug-In . SVG Version: 6.00 Build 0)  -->
<svg version="1.1" id="Layer_1" xmlns="http://www.w3.org/2000/svg" xmlns:xlink="http://www.w3.org/1999/xlink" x="0px" y="0px"
	 viewBox="0 0 700.0344238 165.8787994" style="enable-background:new 0 0 700.0344238 165.8787994;" xml:space="preserve">
<style type="text/css">
	.st0{fill:#A453B9;}
	.st1{fill:#FFFFFF;}
	.st2{fill:#344845;}
	.st3{fill:#D13306;}
	.st4{fill:#004D93;}
	.st5{fill:#0081BE;}
	.st6{fill:#1167F1;}
	.st7{fill:#FFC400;}
	.st8{fill:#FF7A3D;}
	.st9{fill:#00A580;}
	.st10{fill:#53C3D0;}
	.st11{fill:#671C4C;}
	.st12{fill:#00E3C2;}
	.st13{fill:#BC2A46;}
	.st14{fill:#FF192E;}
	.st15{fill:#00B056;}
</style>
<g>
	<g>
		<path class="st13" d="M179.6524963,165.8787994H20.3474979C9.156374,165.8787994,0,156.7224274,0,145.5312958V20.3474979
			C0,9.156374,9.156374,0,20.3474979,0h159.3049927C190.8436279,0,200,9.156374,200,20.3474979v125.1837997
			C200,156.7224274,190.8436279,165.8787994,179.6524963,165.8787994z"/>
		<g>
			<path class="st1" d="M96.6853943,62.1801224l-11.4140625,5.4968262L81.9567566,69.27314l-0.8186035,3.5866699
				l-2.8190918,12.3510742l-0.8186035,3.5866699l2.2937012,2.8762207l7.8988037,9.9050293l2.2937012,2.8762207h3.6789551h12.6687012
				h3.678833l2.2938232-2.8762207l7.8989258-9.9050293l2.2937012-2.8762207l-0.8186035-3.5866699l-2.8190918-12.3510742
				l-0.8186035-3.5866699l-3.3145752-1.5961914l-11.4141846-5.4968262l-3.3145752-1.5961914L96.6853943,62.1801224z
				 M111.4141541,74.559761l2.8190918,12.3510742l-7.8989258,9.9050293H93.6656189l-7.8988037-9.9050293L88.585907,74.559761
				l11.4140625-5.4968262L111.4141541,74.559761z"/>
			<path class="st1" d="M138.1114197,42.1857376l-31.5611572-15.3198242l-6.5501709-3.1791992l-6.5501709,3.1791992
				L61.8885231,42.1857376l-8.4498291,4.1015625v9.3928223V93.957222c0,12.3112793,7.3968506,23.907959,21.9852257,34.4677811
				c8.8873291,6.4333496,17.4945068,10.357666,18.4466553,10.7839355l6.1295166,2.7443848l6.1295166-2.7443848
				c0.9521484-0.4262695,9.5592041-4.3505859,18.4465332-10.7839355
				c14.5882568-10.5598221,21.9851074-22.1565018,21.9851074-34.4677811V55.6801224v-9.3928223L138.1114197,42.1857376z
				 M131.5612488,93.957222c0,17.4306641-31.5611572,31.5612793-31.5611572,31.5612793S68.4386902,111.387886,68.4386902,93.957222
				V55.6801224l31.5614014-15.3198242l31.5611572,15.3198242V93.957222z"/>
		</g>
	</g>
	<g>
		<path class="st2" d="M230.0149231,57.177681h12.5244141v14.1748047c0,1.5742188-0.2255859,3.8994141-0.375,5.6240234h0.2998047
			c0.8251953-1.2744141,1.875-3.2246094,3.1494141-4.7246094l12.375-15.0742188h13.4990234l-16.4990234,19.8740234
			l17.3994141,30.7490234h-14.3994141l-11.6992188-21.2246094l-3.75,4.5751953v16.6494141h-12.5244141V57.177681z"/>
		<path class="st2" d="M275.9143372,57.177681h12.5244141v32.4736328c0,6.4501953,2.7001953,9.1494141,7.875,9.1494141
			c5.0996094,0,8.1738281-2.625,8.1738281-9.3740234V57.177681H316.63797v32.0234375c0,11.625-7.5751953,19.5-20.6992188,19.5
			c-12.2998047,0-20.0244141-7.2001953-20.0244141-18.375V57.177681z"/>
		<path class="st2" d="M325.3391418,57.177681H347.01297c8.9248047,0,15.6738281,3,15.6738281,12.2246094
			c0,6.9746094-3.8242188,9.6748047-10.3496094,11.0996094v0.2998047c7.4248047,0.9003906,11.9248047,4.7998047,11.9248047,12.375
			c0,9.8994141-7.125,14.6240234-16.6494141,14.6240234h-22.2734375V57.177681z M343.3381653,76.6015091
			c3.2998047,0,6.5996094-0.8994141,6.5996094-5.2490234c0-4.4248047-2.9248047-5.0996094-5.8496094-5.0996094h-6.2998047
			v10.3486328H343.3381653z M344.5383606,98.7265091c3.8242188,0,7.1240234-1.875,7.1240234-6.9003906
			c0-4.3496094-3.2998047-6.1494141-7.1240234-6.1494141h-6.75v13.0498047H344.5383606z"/>
		<path class="st2" d="M370.9377747,57.177681h33.5234375v9.2998047h-20.9990234v10.8740234h17.6240234v9.2998047h-17.6240234
			v11.8496094h21.7490234v9.2998047h-34.2734375V57.177681z"/>
		<path class="st2" d="M407.6877747,57.177681h12.2988281l7.2753906,28.6494141
			c0.8994141,3.5244141,1.125,9.5996094,1.125,9.5996094h0.2998047c0,0,0.2246094-6.2255859,0.9746094-9.4501953
			l6.4501953-28.7988281h11.4746094l6.5244141,28.5742188c0.8251953,3.5996094,1.125,10.3496094,1.125,10.3496094h0.2998047
			c0,0,0.375-6.9003906,1.2001953-10.2001953l6.9746094-28.7236328h10.6494141l-13.1992188,50.6230469h-13.2744141
			l-5.1748047-21.7490234c-0.9755859-3.9746094-1.5-10.9492188-1.5-10.9492188h-0.2998047
			c0,0-0.4501953,6.9746094-1.4257812,10.9492188l-5.1748047,21.7490234h-13.4238281L407.6877747,57.177681z"/>
		<path class="st2" d="M489.662384,57.177681h12.6738281l17.0995789,50.6230469h-12.6747742l-3.1494141-9.5996094H486.662384
			l-3.0751953,9.5996094H472.63797L489.662384,57.177681z M489.662384,88.9013138h10.8740234l-3.4492188-10.6494141
			c-1.2001953-3.5996094-1.7255859-8.6992188-1.7255859-8.6992188h-0.2998047c0,0-0.75,5.1748047-1.875,8.6240234
			L489.662384,88.9013138z"/>
		<path class="st2" d="M524.0871582,57.177681h20.8486328c9.8994141,0,16.5742188,4.7998047,16.5742188,14.0996094
			c0,7.5742188-5.1748047,12.1494141-10.1992188,13.7246094c1.5,1.2744141,2.625,3,3.5244141,4.7998047
			c2.1005859,4.2744141,3.5253906,8.9990234,7.9501953,8.9990234c1.125,0,2.0244141-0.375,2.0244141-0.375l-0.9746094,8.9248047
			c0,0-2.7001953,0.6748047-5.0244141,0.6748047c-6,0-9.4501953-2.3242188-12.9746094-10.3496094
			c-1.5-3.5996094-3.6005859-9.8994141-6.375-9.8994141h-2.8496094v20.0244141h-12.5244141V57.177681z M536.6115723,66.2528763
			V78.702095h4.4990234c3.6005859,0,7.7998047-1.125,7.7998047-6.5253906c0-4.4248047-2.8496094-5.9238281-6.2998047-5.9238281
			H536.6115723z"/>
		<path class="st2" d="M570.0617676,57.177681h19.3486328c12.5996094,0,22.3496094,7.3496094,22.3496094,25.0488281
			c0,17.3242188-9.2998047,25.5742188-22.3496094,25.5742188h-19.3486328V57.177681z M588.2102051,98.7265091
			c5.5498047,0,10.875-3.375,10.875-16.5c0-13.0488281-5.3251953-15.9736328-10.875-15.9736328h-5.6240234v32.4736328H588.2102051z"
			/>
		<path class="st2" d="M618.661377,57.177681h33.5234375v9.2998047H631.185791v10.8740234h17.6240234v9.2998047H631.185791
			v11.8496094h21.7490234v9.2998047H618.661377V57.177681z"/>
		<path class="st2" d="M659.4611816,57.177681h13.4238281l13.2744141,25.1240234c1.125,2.1748047,2.625,6,3.8251953,9h0.2998047
			c-0.1494141-2.8505859-0.5244141-6.9003906-0.5244141-9.8251953V57.177681h10.2744141v50.6230469h-13.125l-13.7988281-25.0488281
			c-1.2753906-2.25-2.625-5.5498047-3.6748047-8.25h-0.3007812c0.2255859,2.8496094,0.6005859,6.2246094,0.6005859,9v24.2988281
			h-10.2744141V57.177681z"/>
	</g>
</g>
</svg>
