<?xml version="1.0" encoding="utf-8"?>
<!-- Generator: Adobe Illustrator 21.1.0, SVG Export Plug-In . SVG Version: 6.00 Build 0)  -->
<svg version="1.1" id="tikv_1" xmlns="http://www.w3.org/2000/svg" xmlns:xlink="http://www.w3.org/1999/xlink" x="0px" y="0px"
	 viewBox="0 0 197 323" style="enable-background:new 0 0 197 323;" xml:space="preserve">
<g>
	<polygon points="93.9880371,221.4614868 66.8800049,221.4614868 29.5783691,261.003418 29.5783691,221.4614868 
		6.8389893,221.4614868 6.8389893,316.4517822 29.5783691,316.4517822 29.5783691,286.4312744 40.3320312,275.5656128 
		68.8963623,316.5638428 97.2365723,316.5638428 55.7902832,260.1072998 	"/>
	<polygon points="147.9802246,288.7836304 146.5240479,288.7836304 127.7052002,221.4614868 102.7253418,221.4614868 
		134.2021484,316.5638428 158.8459473,316.5638428 190.994751,221.4614868 165.6789551,221.4614868 	"/>
	<path d="M99.0876465,6.1483765L5.8284912,54.6567993v96.9030151l93.2591553,48.3945923l92.9176025-48.3945923V54.6567993
		L99.0876465,6.1483765z M92.7109375,69.9153442v90.5263062l-22.7739258-11.8424072V81.7578125L40.6726074,97.0162964V72.762085
		L98.973877,42.4727783l23.229248,12.0701904L92.7109375,69.9153442z M139.2836914,142.6780396l-23.1156006,12.0701294V81.8716431
		l23.1156006-11.9562988V142.6780396z"/>
</g>
</svg>
