<?xml version="1.0" encoding="utf-8"?>
<!-- Generator: Adobe Illustrator 21.1.0, SVG Export Plug-In . SVG Version: 6.00 Build 0)  -->
<svg version="1.1" id="Layer_1" xmlns="http://www.w3.org/2000/svg" xmlns:xlink="http://www.w3.org/1999/xlink" x="0px" y="0px"
	 viewBox="0 0 175.8 208.7" style="enable-background:new 0 0 175.8 208.7;" xml:space="preserve">
<style type="text/css">
	.st0{fill:#FFFFFF;}
</style>
<g id="_x35_jYWeV.tif">
	<g>
		<g>
			<path class="st0" d="M100.1,26.2c0,0.8,0.1,1.5,0.1,2.2c0,18.1,0,36,0,54.1c0,2.6,0,2.7-2.6,2.7c-4.6,0-9.4,0-14,0
				c-1.3,0-1.9-0.3-1.9-1.8c0-18.7,0-37.4,0-56.1c0-0.3,0.1-0.6,0.1-1C87.9,26.2,94,26.2,100.1,26.2z"/>
		</g>
		<g>
			<path class="st0" d="M77.5,62.5c0,6.8,0,13.5,0,20.3c0,2.3,0,2.3-2.3,2.3c-4.8,0-9.6,0-14.4,0c-1.5,0-1.9-0.5-1.9-1.9
				c0-13.8,0-27.5,0-41.2c0-1.4,0.4-2,1.9-2c4.9,0.1,9.8,0.1,14.7,0c1.5,0,1.9,0.5,1.9,1.9C77.5,48.8,77.5,55.7,77.5,62.5z"/>
		</g>
		<g>
			<path class="st0" d="M54.9,68.7c0,4.8,0,9.7,0,14.5c0,1.5-0.4,1.9-1.9,1.9c-4.9-0.1-9.8-0.1-14.7,0c-1.5,0-1.9-0.5-1.9-2
				c0-9.7,0-19.4,0-29c0-1.4,0.4-1.9,1.8-1.9c4.9,0,9.9,0,14.8,0c1.4,0,1.8,0.5,1.8,1.9C54.8,59,54.9,63.8,54.9,68.7z"/>
		</g>
	</g>
</g>
<g id="_x39_kwjjj.tif">
	<g>
		<g>
			<path class="st0" d="M4.5,156.2c0-0.9,0-1.7,0-2.5c3.8-11.1,7.6-22,11.2-33.1c1.2-3.7,3-4.9,6.9-4.8c43.7,0.1,87.2,0.1,130.9,0
				c3.9,0,5.7,1.2,6.9,4.9c3.5,11.1,7.4,22,11.2,33.1c0,0.9,0,1.7,0,2.5c-1.6,0.1-3.3,0.3-4.9,0.3c-52.4,0-104.6,0-157,0
				C7.7,156.5,6.1,156.3,4.5,156.2z"/>
		</g>
		<g>
			<path class="st0" d="M88.4,2.2c20.4,0,40.9,0,61.3,0c6.8,0,9.2,2.2,9.2,8.9c0.1,29.6,0.1,59.3,0,88.8c0,6.7-2.5,8.9-9.2,8.9
				c-41.2,0-82.4,0-123.4,0c-6.8,0-9.2-2.3-9.2-8.9c-0.1-29.6-0.1-59.3,0-88.8c0-6.7,2.5-8.8,9.2-8.8C46.9,2.2,67.6,2.2,88.4,2.2z
				 M87.8,98.3c19.2,0,38.4,0,57.6,0c5.5,0,5.6-0.2,5.7-5.7c0-24.7,0-49.6,0-74.3c0-5.5-0.3-5.8-5.6-5.8c-38.4,0-76.8,0-115.2,0
				c-5.4,0-5.6,0.3-5.7,5.7c0,24.7,0,49.6,0,74.3c0,5.6,0.1,5.7,6,5.7C49.8,98.3,68.8,98.3,87.8,98.3z"/>
		</g>
	</g>
</g>
<g>
	<path class="st0" d="M6.3,167.2h8.5c3.2,0,5.7,0.9,7.4,2.7c1.7,1.8,2.6,4.3,2.6,7.6v18.7c0,3.8-0.9,6.6-2.7,8.3
		c-1.8,1.8-4.4,2.7-7.8,2.7h-8C6.3,207.2,6.3,167.2,6.3,167.2z M12.1,201.8h2.7c1.6,0,2.8-0.4,3.4-1.2c0.6-0.8,1-2,1-3.8v-19.2
		c0-1.6-0.3-2.8-1-3.7c-0.6-0.9-1.8-1.3-3.4-1.3h-2.7V201.8z"/>
	<path class="st0" d="M30.3,167.2h17.1v5.4H36v11.7h9.9v5.4H36v11.7h11.4v5.7H30.3V167.2z"/>
	<path class="st0" d="M62.4,207.2h-5.1l-8.2-40h6l4.5,28h0.1l4.6-28h6L62.4,207.2z"/>
	<path class="st0" d="M92.5,178.7h-5.7v-1.3c0-1.3-0.3-2.5-1-3.4c-0.6-1-1.6-1.4-3.1-1.4c-0.8,0-1.4,0.1-1.9,0.4
		c-0.5,0.3-0.9,0.6-1.2,1.2c-0.3,0.4-0.4,1-0.5,1.6c-0.1,0.6-0.2,1.3-0.2,1.9c0,0.8,0,1.4,0.1,2c0.1,0.5,0.2,1,0.4,1.4
		c0.2,0.4,0.5,0.8,1,1.1c0.4,0.3,1,0.6,1.7,0.9l4.4,1.7c1.3,0.5,2.3,1.1,3.1,1.7c0.8,0.6,1.4,1.4,1.8,2.3c0.4,0.9,0.8,1.9,0.9,3
		c0.1,1.2,0.2,2.5,0.2,3.9c0,1.7-0.2,3.2-0.5,4.7c-0.3,1.4-0.9,2.7-1.6,3.7c-0.8,1.1-1.8,1.8-3,2.5c-1.3,0.6-2.8,0.9-4.6,0.9
		c-1.4,0-2.7-0.2-3.9-0.8c-1.2-0.5-2.3-1.2-3.1-2c-0.9-0.9-1.5-1.8-2-3c-0.5-1.2-0.8-2.4-0.8-3.8v-2.2h5.7v1.8c0,1.1,0.3,2,1,2.8
		c0.6,0.9,1.6,1.3,3.1,1.3c1,0,1.7-0.1,2.3-0.4c0.5-0.3,1-0.6,1.2-1.2c0.3-0.5,0.4-1.2,0.5-1.9c0.1-0.8,0.1-1.6,0.1-2.5
		c0-1.1,0-1.9-0.1-2.6c-0.1-0.6-0.2-1.2-0.4-1.6c-0.2-0.4-0.5-0.8-1-1c-0.4-0.2-1-0.5-1.7-0.9l-4.1-1.7c-2.5-1-4.1-2.4-4.9-4
		c-0.9-1.6-1.3-3.8-1.3-6.2c0-1.5,0.2-2.9,0.6-4.3c0.4-1.4,1-2.5,1.8-3.4c0.8-1,1.8-1.7,3-2.4c1.2-0.5,2.7-0.9,4.3-0.9
		c1.4,0,2.7,0.2,3.9,0.8c1.2,0.5,2.2,1.2,3,2c0.9,0.9,1.5,1.8,1.9,2.9c0.4,1.1,0.6,2.2,0.6,3.3C92.5,175.7,92.5,178.7,92.5,178.7z"
		/>
	<path class="st0" d="M100.5,172.5h-6.7v-5.4h19v5.4h-6.7v34.6h-5.7V172.5z"/>
	<path class="st0" d="M118.6,167.2h4.7l8.9,40h-5.7l-1.7-8.6H117l-1.7,8.6h-5.7L118.6,167.2z M121.1,178.7H121l-2.8,14.5h5.7
		L121.1,178.7z"/>
	<path class="st0" d="M135.8,172.5h-6.6v-5.4h19v5.4h-6.7v34.6h-5.7v-34.6H135.8z"/>
	<path class="st0" d="M169.2,178.7h-5.7v-1.3c0-1.3-0.3-2.5-1-3.4c-0.6-1-1.6-1.4-3.1-1.4c-0.8,0-1.4,0.1-1.9,0.4
		c-0.5,0.3-0.9,0.6-1.2,1.2c-0.3,0.4-0.4,1-0.5,1.6c-0.1,0.6-0.2,1.3-0.2,1.9c0,0.8,0,1.4,0.1,2c0.1,0.5,0.2,1,0.4,1.4
		c0.2,0.4,0.5,0.8,1,1.1c0.4,0.3,1,0.6,1.7,0.9l4.4,1.7c1.3,0.5,2.3,1.1,3.1,1.7c0.8,0.6,1.4,1.4,1.8,2.3s0.8,1.9,0.9,3
		c0.1,1.2,0.2,2.5,0.2,3.9c0,1.7-0.2,3.2-0.5,4.7c-0.3,1.4-0.9,2.7-1.6,3.7c-0.8,1.1-1.8,1.8-3,2.5c-1.3,0.6-2.8,0.9-4.6,0.9
		c-1.4,0-2.7-0.2-3.9-0.8c-1.2-0.5-2.3-1.2-3.1-2c-0.9-0.9-1.5-1.8-2-3c-0.5-1.2-0.8-2.4-0.8-3.8v-2.2h5.7v1.8c0,1.1,0.3,2,1,2.8
		c0.6,0.9,1.6,1.3,3.1,1.3c1,0,1.7-0.1,2.3-0.4c0.5-0.3,1-0.6,1.2-1.2c0.3-0.5,0.4-1.2,0.5-1.9s0.1-1.6,0.1-2.5c0-1.1,0-1.9-0.1-2.6
		c-0.1-0.6-0.2-1.2-0.4-1.6s-0.5-0.8-1-1c-0.4-0.2-1-0.5-1.7-0.9l-4.1-1.7c-2.5-1-4.1-2.4-4.9-4s-1.3-3.8-1.3-6.2
		c0-1.5,0.2-2.9,0.6-4.3c0.4-1.4,1-2.5,1.8-3.4c0.8-1,1.8-1.7,3-2.4c1.2-0.5,2.7-0.9,4.3-0.9c1.4,0,2.7,0.2,3.9,0.8
		c1.2,0.5,2.2,1.2,3,2c0.9,0.9,1.5,1.8,1.9,2.9c0.4,1.1,0.6,2.2,0.6,3.3L169.2,178.7L169.2,178.7z"/>
</g>
</svg>
