<svg width="463" height="463" viewBox="0 0 463 463" fill="none" xmlns="http://www.w3.org/2000/svg">
<path d="M369.462 0H93.1716C41.8055 0 0.165039 41.6405 0.165039 93.0066V369.297C0.165039 420.663 41.8055 462.303 93.1716 462.303H369.462C420.828 462.303 462.468 420.663 462.468 369.297V93.0066C462.468 41.6405 420.828 0 369.462 0Z" fill="black"/>
<path d="M274.938 114.762C274.943 120.497 277.232 125.996 281.301 130.052C285.37 134.108 290.887 136.388 296.642 136.394C302.396 136.388 307.914 134.108 311.983 130.052C316.052 125.996 318.34 120.497 318.346 114.762C318.34 109.026 316.052 103.527 311.983 99.4712C307.914 95.4155 302.396 93.1347 296.642 93.1292C290.887 93.1347 285.37 95.4155 281.301 99.4712C277.232 103.527 274.943 109.026 274.938 114.762V114.762Z" fill="white"/>
<path d="M144.287 347.407C144.293 353.142 146.581 358.642 150.65 362.697C154.719 366.753 160.237 369.034 165.991 369.039C171.746 369.034 177.263 366.753 181.332 362.697C185.401 358.642 187.69 353.142 187.695 347.407C187.69 341.671 185.401 336.172 181.332 332.116C177.263 328.061 171.746 325.78 165.991 325.774C160.237 325.78 154.719 328.061 150.65 332.116C146.581 336.172 144.293 341.671 144.287 347.407V347.407Z" fill="white"/>
<path d="M273.335 231.084C273.341 236.82 275.629 242.319 279.699 246.375C283.768 250.43 289.285 252.711 295.04 252.717C300.794 252.711 306.312 250.43 310.381 246.375C314.45 242.319 316.738 236.82 316.744 231.084C316.738 225.349 314.45 219.85 310.381 215.794C306.312 211.738 300.794 209.457 295.04 209.452C289.285 209.457 283.768 211.738 279.699 215.794C275.629 219.85 273.341 225.349 273.335 231.084V231.084Z" fill="white"/>
<path d="M77.3064 231.084C77.312 236.82 79.6004 242.319 83.6696 246.375C87.7387 250.43 93.256 252.711 99.0106 252.717C104.765 252.711 110.283 250.43 114.352 246.375C118.421 242.319 120.709 236.82 120.715 231.084C120.709 225.349 118.421 219.85 114.352 215.794C110.283 211.738 104.765 209.457 99.0106 209.452C93.256 209.457 87.7387 211.738 83.6696 215.794C79.6004 219.85 77.312 225.349 77.3064 231.084V231.084Z" fill="white"/>
<path d="M184.052 126.909C184.948 125.495 186.178 124.321 187.635 123.49C189.091 122.659 190.73 122.196 192.408 122.141H205.129C206.808 122.192 208.448 122.653 209.905 123.485C211.362 124.316 212.591 125.492 213.485 126.909C215.476 129.811 218.147 132.184 221.267 133.824C224.387 135.464 227.86 136.321 231.387 136.32C234.615 136.326 237.803 135.611 240.716 134.227C243.63 132.843 246.195 130.827 248.224 128.325C250.28 125.799 251.74 122.845 252.496 119.68C253.252 116.516 253.284 113.223 252.59 110.045C251.711 105.904 249.624 102.114 246.591 99.1503C243.559 96.1871 239.716 94.1825 235.544 93.3883C231.28 92.5677 226.867 93.0372 222.873 94.7366C218.878 96.4359 215.485 99.2873 213.13 102.924C212.194 104.255 210.94 105.333 209.481 106.06C208.022 106.787 206.404 107.14 204.774 107.088H192.637C191.009 107.131 189.394 106.774 187.937 106.048C186.48 105.321 185.224 104.249 184.282 102.924C181.902 99.3269 178.501 96.5183 174.512 94.8569C170.523 93.1955 166.128 92.7567 161.888 93.5965C157.719 94.3959 153.878 96.4021 150.847 99.3645C147.815 102.327 145.727 106.114 144.842 110.253C144.159 113.432 144.196 116.722 144.952 119.885C145.707 123.047 147.161 126.002 149.208 128.533C151.243 131.033 153.813 133.048 156.729 134.432C159.646 135.815 162.836 136.531 166.066 136.528C169.626 136.52 173.129 135.638 176.265 133.96C179.402 132.282 182.076 129.861 184.052 126.909Z" fill="url(#paint0_linear_1011_17367)"/>
<path d="M216.716 185.205C217.612 183.79 218.842 182.616 220.299 181.785C221.755 180.954 223.394 180.491 225.071 180.437H237.793C239.471 180.488 241.111 180.949 242.569 181.78C244.026 182.612 245.255 183.788 246.149 185.205C248.14 188.106 250.811 190.48 253.931 192.12C257.05 193.76 260.524 194.616 264.051 194.616C267.279 194.621 270.466 193.906 273.38 192.523C276.294 191.139 278.859 189.122 280.888 186.621C282.944 184.095 284.404 181.14 285.16 177.976C285.916 174.812 285.948 171.519 285.254 168.34C284.375 164.199 282.288 160.409 279.255 157.446C276.223 154.483 272.38 152.478 268.208 151.684C263.944 150.863 259.531 151.333 255.537 153.032C251.542 154.731 248.149 157.583 245.794 161.22C244.858 162.551 243.604 163.629 242.145 164.356C240.686 165.083 239.068 165.436 237.438 165.384H225.301C223.672 165.427 222.058 165.069 220.601 164.343C219.144 163.617 217.888 162.544 216.945 161.22C214.566 157.623 211.164 154.814 207.176 153.152C203.187 151.491 198.792 151.052 194.552 151.892C190.383 152.691 186.542 154.698 183.511 157.66C180.479 160.622 178.39 164.41 177.506 168.548C176.823 171.727 176.86 175.018 177.616 178.181C178.371 181.343 179.825 184.298 181.872 186.829C183.907 189.329 186.477 191.344 189.393 192.727C192.31 194.11 195.5 194.827 198.73 194.824C202.29 194.815 205.793 193.933 208.929 192.256C212.066 190.578 214.74 188.156 216.716 185.205Z" fill="url(#paint1_linear_1011_17367)"/>
<path d="M154.903 298.108C153.446 298.939 152.216 300.113 151.32 301.527C149.345 304.479 146.67 306.901 143.534 308.578C140.397 310.256 136.894 311.138 133.334 311.146C130.104 311.149 126.914 310.433 123.998 309.05C121.081 307.667 118.511 305.651 116.476 303.151C114.429 300.62 112.975 297.666 112.22 294.503C111.465 291.341 111.427 288.05 112.11 284.871C112.995 280.732 115.083 276.945 118.115 273.983C121.147 271.02 124.987 269.014 129.156 268.215C133.396 267.375 137.791 267.814 141.78 269.475C145.769 271.137 149.17 273.945 151.55 277.542C152.492 278.867 153.748 279.94 155.205 280.666C156.662 281.392 158.277 281.749 159.905 281.706H172.042C173.673 281.759 175.29 281.405 176.749 280.678C178.208 279.951 179.462 278.874 180.398 277.542C182.753 273.905 186.146 271.054 190.141 269.355C194.135 267.655 198.548 267.186 202.813 268.007C206.984 268.801 210.827 270.805 213.86 273.769C215.157 275.036 216.281 276.455 217.211 277.988C218.108 279.108 219.24 280.023 220.531 280.666C221.988 281.392 223.602 281.749 225.231 281.706H237.368C238.998 281.759 240.616 281.405 242.075 280.678C243.533 279.951 244.788 278.874 245.724 277.542C248.079 273.905 251.472 271.054 255.466 269.355C259.461 267.655 263.874 267.186 268.138 268.007C272.31 268.801 276.153 270.805 279.185 273.769C282.218 276.732 284.305 280.522 285.184 284.663C285.878 287.841 285.846 291.134 285.09 294.299C284.334 297.463 282.874 300.417 280.818 302.943C278.789 305.445 276.224 307.462 273.31 308.845C270.396 310.229 267.209 310.944 263.981 310.938C260.454 310.939 256.98 310.082 253.861 308.442C250.741 306.803 248.07 304.429 246.079 301.527C245.185 300.111 243.956 298.935 242.498 298.103C241.041 297.272 239.401 296.81 237.723 296.76H225.001C223.324 296.814 221.685 297.277 220.229 298.108C218.772 298.939 217.542 300.113 216.646 301.527C214.67 304.479 211.996 306.901 208.859 308.578C205.722 310.256 202.219 311.138 198.66 311.146C195.43 311.149 192.24 310.433 189.323 309.05C186.407 307.667 183.837 305.651 181.802 303.151C181.077 302.255 180.427 301.306 179.855 300.313C179.097 299.432 178.19 298.684 177.173 298.103C175.716 297.272 174.076 296.81 172.397 296.76H159.676C157.998 296.814 156.36 297.277 154.903 298.108Z" fill="url(#paint2_linear_1011_17367)"/>
<path d="M252.96 356.27C251.504 357.101 250.274 358.275 249.377 359.689C247.402 362.641 244.728 365.062 241.591 366.74C238.454 368.418 234.951 369.3 231.391 369.308C228.161 369.311 224.972 368.595 222.055 367.212C219.138 365.828 216.569 363.813 214.534 361.313C212.487 358.782 211.033 355.827 210.277 352.665C209.522 349.502 209.484 346.212 210.168 343.033C211.052 338.894 213.141 335.107 216.172 332.145C219.204 329.182 223.044 327.176 227.213 326.377C231.454 325.537 235.849 325.975 239.837 327.637C243.826 329.298 247.227 332.107 249.607 335.704C250.55 337.029 251.805 338.101 253.262 338.828C254.72 339.554 256.334 339.911 257.963 339.868H270.1C271.73 339.92 273.347 339.567 274.806 338.84C276.265 338.113 277.519 337.035 278.455 335.704C280.811 332.067 284.204 329.216 288.198 327.517C292.192 325.817 296.606 325.348 300.87 326.168C305.041 326.963 308.884 328.967 311.917 331.93C314.949 334.894 317.036 338.684 317.916 342.825C318.609 346.003 318.577 349.296 317.821 352.46C317.066 355.625 315.606 358.579 313.55 361.105C311.521 363.607 308.955 365.623 306.042 367.007C303.128 368.391 299.94 369.106 296.713 369.1C293.186 369.101 289.712 368.244 286.592 366.604C283.473 364.964 280.802 362.591 278.811 359.689C277.917 358.272 276.687 357.096 275.23 356.265C273.773 355.433 272.133 354.972 270.455 354.921H257.733C256.056 354.976 254.417 355.439 252.96 356.27Z" fill="url(#paint3_linear_1011_17367)"/>
<path d="M341.917 231.084C341.922 236.82 344.211 242.319 348.28 246.375C352.349 250.43 357.866 252.711 363.621 252.717C369.375 252.711 374.893 250.43 378.962 246.375C383.031 242.319 385.32 236.82 385.325 231.084C385.32 225.349 383.031 219.85 378.962 215.794C374.893 211.738 369.375 209.457 363.621 209.452C357.866 209.457 352.349 211.738 348.28 215.794C344.211 219.85 341.922 225.349 341.917 231.084Z" fill="url(#paint4_linear_1011_17367)"/>
<path d="M149.048 246.375C144.979 242.319 142.691 236.82 142.685 231.084C142.691 225.349 144.979 219.85 149.048 215.794C153.117 211.738 158.635 209.457 164.389 209.452C170.144 209.457 175.661 211.738 179.73 215.794C183.799 219.85 186.088 225.349 186.093 231.084C186.088 236.82 183.799 242.319 179.73 246.375C175.661 250.43 170.144 252.711 164.389 252.717C158.635 252.711 153.117 250.43 149.048 246.375Z" fill="url(#paint5_linear_1011_17367)"/>
<path d="M307.531 172.923C307.537 178.658 309.825 184.158 313.894 188.213C317.963 192.269 323.481 194.55 329.235 194.555C334.99 194.55 340.507 192.269 344.576 188.213C348.645 184.158 350.934 178.658 350.939 172.923C350.934 167.187 348.645 161.688 344.576 157.633C340.507 153.577 334.99 151.296 329.235 151.29C323.481 151.296 317.963 153.577 313.894 157.633C309.825 161.688 307.537 167.187 307.531 172.923V172.923Z" fill="white"/>
<path d="M111.692 172.923C111.698 178.658 113.986 184.158 118.055 188.213C122.124 192.269 127.642 194.55 133.396 194.555C139.151 194.55 144.668 192.269 148.737 188.213C152.807 184.158 155.095 178.658 155.101 172.923C155.095 167.187 152.807 161.688 148.737 157.633C144.668 153.577 139.151 151.296 133.396 151.29C127.642 151.296 122.124 153.577 118.055 157.633C113.986 161.688 111.698 167.187 111.692 172.923V172.923Z" fill="white"/>
<path d="M307.531 289.246C307.537 294.981 309.825 300.48 313.894 304.536C317.963 308.592 323.481 310.872 329.235 310.878C334.99 310.872 340.507 308.592 344.576 304.536C348.645 300.48 350.934 294.981 350.939 289.246C350.934 283.51 348.645 278.011 344.576 273.955C340.507 269.899 334.99 267.619 329.235 267.613C323.481 267.619 317.963 269.899 313.894 273.955C309.825 278.011 307.537 283.51 307.531 289.246V289.246Z" fill="white"/>
<defs>
<linearGradient id="paint0_linear_1011_17367" x1="111.624" y1="80.764" x2="335.625" y2="384.799" gradientUnits="userSpaceOnUse">
<stop stop-color="#00FAFF"/>
<stop offset="1" stop-color="#8BFF95"/>
</linearGradient>
<linearGradient id="paint1_linear_1011_17367" x1="111.624" y1="80.764" x2="335.625" y2="384.799" gradientUnits="userSpaceOnUse">
<stop stop-color="#00FAFF"/>
<stop offset="1" stop-color="#8BFF95"/>
</linearGradient>
<linearGradient id="paint2_linear_1011_17367" x1="111.624" y1="80.764" x2="335.625" y2="384.799" gradientUnits="userSpaceOnUse">
<stop stop-color="#00FAFF"/>
<stop offset="1" stop-color="#8BFF95"/>
</linearGradient>
<linearGradient id="paint3_linear_1011_17367" x1="111.624" y1="80.764" x2="335.625" y2="384.799" gradientUnits="userSpaceOnUse">
<stop stop-color="#00FAFF"/>
<stop offset="1" stop-color="#8BFF95"/>
</linearGradient>
<linearGradient id="paint4_linear_1011_17367" x1="111.624" y1="80.764" x2="335.625" y2="384.799" gradientUnits="userSpaceOnUse">
<stop stop-color="#00FAFF"/>
<stop offset="1" stop-color="#8BFF95"/>
</linearGradient>
<linearGradient id="paint5_linear_1011_17367" x1="111.624" y1="80.764" x2="335.625" y2="384.799" gradientUnits="userSpaceOnUse">
<stop stop-color="#00FAFF"/>
<stop offset="1" stop-color="#8BFF95"/>
</linearGradient>
</defs>
</svg>
