<svg xmlns="http://www.w3.org/2000/svg" role="img" viewBox="-5.22 -4.97 401.18 171.93"><defs><clipPath id="clip-path"><path d="M10.366 10.745h37.821v37.821H10.366z" class="cls-1" transform="rotate(-135.213 29.277 29.656)"/></clipPath><clipPath id="clip-path-2"><path d="M91.267 18.248h22.184v22.184H91.267z" class="cls-1" transform="rotate(-135.213 102.36 29.34)"/></clipPath><style>.cls-1{fill:#fff}.cls-2{opacity:.6}</style></defs><path d="M45.253 138.483a30.334 30.334 0 0 0 10.868 8.998 32.577 32.577 0 0 0 14.9 3.382 32.006 32.006 0 0 0 12.236-2.087 21.24 21.24 0 0 0 8.133-5.686 21.932 21.932 0 0 0 4.463-8.422 37.613 37.613 0 0 0 1.367-10.292v-12.092h-.287a25.962 25.962 0 0 1-11.23 9.789 34.639 34.639 0 0 1-13.963 2.879 36.317 36.317 0 0 1-13.747-2.591 34.968 34.968 0 0 1-11.157-7.126 32.786 32.786 0 0 1-7.486-10.87 34.108 34.108 0 0 1-2.735-13.675 35.774 35.774 0 0 1 2.592-13.676 35.154 35.154 0 0 1 7.125-11.084 32.14 32.14 0 0 1 10.797-7.414 34.782 34.782 0 0 1 13.748-2.663 38.444 38.444 0 0 1 6.405.575 30.334 30.334 0 0 1 6.766 2.016A31.168 31.168 0 0 1 96.933 68.81h.287V57.58h9.502v66.796a54.197 54.197 0 0 1-1.368 11.66 28.801 28.801 0 0 1-5.326 11.372 30.33 30.33 0 0 1-11.013 8.639Q81.96 159.5 70.588 159.5a46.283 46.283 0 0 1-17.994-3.31A41.82 41.82 0 0 1 38.2 145.97zm1.727-48.08a25.794 25.794 0 0 0 1.944 10.004 26.282 26.282 0 0 0 5.325 8.205 25.756 25.756 0 0 0 7.918 5.615 23.299 23.299 0 0 0 9.861 2.087 26.407 26.407 0 0 0 18.138-7.125 22.934 22.934 0 0 0 5.543-8.135 26.201 26.201 0 0 0 1.8-10.651 28.66 28.66 0 0 0-1.728-10.006 24.031 24.031 0 0 0-5.039-8.205 24.348 24.348 0 0 0-8.061-5.614 26.241 26.241 0 0 0-10.653-2.088 23.32 23.32 0 0 0-9.861 2.088 25.827 25.827 0 0 0-7.918 5.614 26.34 26.34 0 0 0-5.326 8.205 25.814 25.814 0 0 0-1.943 10.006zm98.464 34.549H135.08V23.03h31.382q15.547 0 24.544 6.766 8.996 6.768 8.998 20.442a25.469 25.469 0 0 1-6.694 17.922q-6.695 7.271-19.362 8.421l29.367 48.37h-12.669L162.72 77.59h-17.275zm0-56.863h18.427a41.42 41.42 0 0 0 11.732-1.44 21.788 21.788 0 0 0 7.702-3.814 13.93 13.93 0 0 0 4.174-5.614 18.629 18.629 0 0 0 1.296-6.983 18.249 18.249 0 0 0-1.296-6.837 14.487 14.487 0 0 0-4.174-5.687 20.36 20.36 0 0 0-7.702-3.815 43.562 43.562 0 0 0-11.732-1.367h-18.427zm75.719-45.059h29.656q15.546 0 24.543 6.767 8.996 6.768 8.998 20.442 0 13.678-8.998 20.513-8.997 6.839-24.543 6.838h-19.29v47.362h-10.366zm10.367 45.06h16.699a41.431 41.431 0 0 0 11.732-1.44 21.8 21.8 0 0 0 7.702-3.814 13.936 13.936 0 0 0 4.174-5.614 18.614 18.614 0 0 0 1.296-6.983 18.234 18.234 0 0 0-1.296-6.837 14.492 14.492 0 0 0-4.174-5.687 20.371 20.371 0 0 0-7.702-3.815 43.573 43.573 0 0 0-11.732-1.367h-16.7zm156.907 40.739a39.53 39.53 0 0 1-6.404 7.342 40.488 40.488 0 0 1-8.71 5.973 49.675 49.675 0 0 1-10.58 3.96 48.89 48.89 0 0 1-12.022 1.439 54.522 54.522 0 0 1-21.088-4.03 50.592 50.592 0 0 1-28-28.072 55.779 55.779 0 0 1-4.03-21.45 55.783 55.783 0 0 1 4.03-21.45 50.586 50.586 0 0 1 28-28.07 54.509 54.509 0 0 1 21.088-4.031 51.525 51.525 0 0 1 19.003 3.742 38.33 38.33 0 0 1 16.266 12.381l-9.068 6.766a24.816 24.816 0 0 0-4.32-4.895 31.532 31.532 0 0 0-6.26-4.318 39.092 39.092 0 0 0-7.559-3.023 29.242 29.242 0 0 0-8.062-1.152 41.345 41.345 0 0 0-17.562 3.599 39.885 39.885 0 0 0-13.171 9.644 42.43 42.43 0 0 0-8.279 14.037 50.29 50.29 0 0 0 0 33.54 42.411 42.411 0 0 0 8.279 14.036 39.836 39.836 0 0 0 13.171 9.645 41.301 41.301 0 0 0 17.562 3.6 44.503 44.503 0 0 0 7.99-.72 33.184 33.184 0 0 0 7.774-2.447 29.415 29.415 0 0 0 7.198-4.68 34.692 34.692 0 0 0 6.261-7.412z" class="cls-1"/><g class="cls-2"><path d="M29.376 56.4L2.534 29.756 29.178 2.913 56.02 29.557z" class="cls-1"/><g clip-path="url(#clip-path)"><path d="M3.006 2.913l-.473 4.188V2.913h.473zm.626 0l-1.099 9.722V7.101l.473-4.188h.626zm.625 0L2.533 18.168v-5.533l1.099-9.722h.625zm.625 0L2.533 23.702v-5.534L4.257 2.913h.625z" class="cls-1"/><path d="M5.507 2.913L2.533 29.236v-5.534L4.882 2.913h.625z" class="cls-1"/><path d="M6.133 2.913l-3.6 31.857v-5.534L5.507 2.913h.626zm.625 0l-4.225 37.39V34.77l3.6-31.857h.625z" class="cls-1"/><path d="M7.383 2.913l-4.85 42.924v-5.534l4.225-37.39h.625z" class="cls-1"/><path d="M8.008 2.913L2.533 51.371v-5.534l4.85-42.924h.625z" class="cls-1"/><path d="M8.634 2.913l-6.04 53.454-.061-.007v-4.989L8.008 2.913h.626z" class="cls-1"/><path d="M9.259 2.913L3.215 56.4h-.331l-.29-.033 6.04-53.454h.625z" class="cls-1"/><path d="M9.884 2.913L3.841 56.4h-.626L9.259 2.913h.625z" class="cls-1"/><path d="M10.51 2.913L4.466 56.4h-.625L9.884 2.913h.626z" class="cls-1"/><path d="M11.135 2.913L5.091 56.4h-.625L10.51 2.913h.625z" class="cls-1"/><path d="M11.76 2.913L5.717 56.4h-.626l6.044-53.487h.625z" class="cls-1"/><path d="M12.385 2.913L6.342 56.4h-.625L11.76 2.913h.625z" class="cls-1"/><path d="M13.011 2.913L6.967 56.4h-.625l6.043-53.487h.626z" class="cls-1"/><path d="M13.636 2.913L7.592 56.4h-.625l6.044-53.487h.625z" class="cls-1"/><path d="M14.261 2.913L8.218 56.4h-.626l6.044-53.487h.625z" class="cls-1"/><path d="M14.886 2.913L8.843 56.4h-.625l6.043-53.487h.625z" class="cls-1"/><path d="M15.512 2.913L9.468 56.4h-.625l6.043-53.487h.626z" class="cls-1"/><path d="M16.137 2.913L10.093 56.4h-.625l6.044-53.487h.625z" class="cls-1"/><path d="M16.762 2.913L10.719 56.4h-.626l6.044-53.487h.625z" class="cls-1"/><path d="M17.387 2.913L11.344 56.4h-.625l6.043-53.487h.625z" class="cls-1"/><path d="M18.013 2.913L11.969 56.4h-.625l6.043-53.487h.626z" class="cls-1"/><path d="M18.638 2.913L12.594 56.4h-.625l6.044-53.487h.625zm.625 0L13.22 56.4h-.626l6.044-53.487h.625z" class="cls-1"/><path d="M19.888 2.913L13.845 56.4h-.625l6.043-53.487h.625z" class="cls-1"/><path d="M20.514 2.913L14.47 56.4h-.625l6.043-53.487h.626z" class="cls-1"/><path d="M21.139 2.913L15.095 56.4h-.625l6.044-53.487h.625z" class="cls-1"/><path d="M21.764 2.913L15.721 56.4h-.626l6.044-53.487h.625z" class="cls-1"/><path d="M22.389 2.913L16.346 56.4h-.625l6.043-53.487h.625z" class="cls-1"/><path d="M23.015 2.913L16.971 56.4h-.625l6.043-53.487h.626z" class="cls-1"/><path d="M23.64 2.913L17.596 56.4h-.625l6.044-53.487h.625z" class="cls-1"/><path d="M24.265 2.913L18.222 56.4h-.626L23.64 2.913h.625z" class="cls-1"/><path d="M24.891 2.913L18.847 56.4h-.625l6.043-53.487h.626z" class="cls-1"/><path d="M25.516 2.913L19.472 56.4h-.625l6.044-53.487h.625z" class="cls-1"/><path d="M26.141 2.913L20.097 56.4h-.625l6.044-53.487h.625z" class="cls-1"/><path d="M26.766 2.913L20.723 56.4h-.626l6.044-53.487h.625z" class="cls-1"/><path d="M27.392 2.913L21.348 56.4h-.625l6.043-53.487h.626z" class="cls-1"/><path d="M28.017 2.913L21.973 56.4h-.625l6.044-53.487h.625z" class="cls-1"/><path d="M28.642 2.913L22.599 56.4h-.626l6.044-53.487h.625z" class="cls-1"/><path d="M29.267 2.913L23.224 56.4h-.625l6.043-53.487h.625z" class="cls-1"/><path d="M29.893 2.913L23.849 56.4h-.625l6.043-53.487h.626z" class="cls-1"/><path d="M30.518 2.913L24.474 56.4h-.625l6.044-53.487h.625z" class="cls-1"/><path d="M31.143 2.913L25.1 56.4h-.626l6.044-53.487h.625z" class="cls-1"/><path d="M31.768 2.913L25.725 56.4H25.1l6.043-53.487h.625z" class="cls-1"/><path d="M32.394 2.913L26.35 56.4h-.625l6.043-53.487h.626z" class="cls-1"/><path d="M33.019 2.913L26.975 56.4h-.625l6.044-53.487h.625z" class="cls-1"/><path d="M33.644 2.913L27.601 56.4h-.626l6.044-53.487h.625z" class="cls-1"/><path d="M34.269 2.913L28.226 56.4h-.625l6.043-53.487h.625z" class="cls-1"/><path d="M34.895 2.913L28.851 56.4h-.625l6.043-53.487h.626z" class="cls-1"/><path d="M35.52 2.913L29.476 56.4h-.625l6.044-53.487h.625z" class="cls-1"/><path d="M36.145 2.913L30.102 56.4h-.626L35.52 2.913h.625z" class="cls-1"/><path d="M36.77 2.913L30.727 56.4h-.625l6.043-53.487h.625z" class="cls-1"/><path d="M37.396 2.913L31.352 56.4h-.625L36.77 2.913h.626z" class="cls-1"/><path d="M38.021 2.913L31.977 56.4h-.625l6.044-53.487h.625z" class="cls-1"/><path d="M38.646 2.913L32.603 56.4h-.626l6.044-53.487h.625z" class="cls-1"/><path d="M39.271 2.913L33.228 56.4h-.625l6.043-53.487h.625z" class="cls-1"/><path d="M39.897 2.913L33.853 56.4h-.625l6.043-53.487h.626z" class="cls-1"/><path d="M40.522 2.913L34.478 56.4h-.625l6.044-53.487h.625z" class="cls-1"/><path d="M41.147 2.913L35.104 56.4h-.626l6.044-53.487h.625z" class="cls-1"/><path d="M41.773 2.913L35.729 56.4h-.625l6.043-53.487h.626z" class="cls-1"/><path d="M42.398 2.913L36.354 56.4h-.625l6.044-53.487h.625z" class="cls-1"/><path d="M43.023 2.913L36.979 56.4h-.625l6.044-53.487h.625z" class="cls-1"/><path d="M43.648 2.913L37.605 56.4h-.626l6.044-53.487h.625z" class="cls-1"/><path d="M44.274 2.913L38.23 56.4h-.625l6.043-53.487h.626z" class="cls-1"/><path d="M44.899 2.913L38.855 56.4h-.625l6.044-53.487h.625z" class="cls-1"/><path d="M45.524 2.913L39.481 56.4h-.626l6.044-53.487h.625z" class="cls-1"/><path d="M55.67 2.913l.35.039V56.4H39.481l6.043-53.487H55.67z" class="cls-1"/></g></g><g class="cls-2"><path d="M102.419 45.027L86.674 29.4l15.628-15.745 15.745 15.628z" class="cls-1"/><g clip-path="url(#clip-path-2)"><path d="M118.046 22.817l-.427-9.164h.427v9.164z" class="cls-1"/><path d="M118.046 32.446l-.875-18.793h.448l.427 9.164v9.629z" class="cls-1"/><path d="M118.046 42.075l-1.324-28.422h.449l.875 18.793v9.629zm-.311 2.952l-1.461-31.374h.448l1.324 28.422v2.952h-.311z" class="cls-1"/><path d="M117.286 45.027l-1.461-31.374h.449l1.461 31.374h-.449zm-.448 0l-1.461-31.374h.448l1.461 31.374h-.448zm-.449 0l-1.461-31.374h.449l1.461 31.374h-.449zm-.448 0l-1.461-31.374h.448l1.461 31.374h-.448zm-.448 0l-1.462-31.374h.449l1.461 31.374h-.448zm-.449 0l-1.461-31.374h.448l1.462 31.374h-.449zm-.448 0l-1.462-31.374h.449l1.461 31.374h-.448zm-.449 0l-1.461-31.374h.448l1.462 31.374h-.449zm-.448 0l-1.462-31.374h.449l1.461 31.374h-.448zm-.449 0l-1.461-31.374h.448l1.462 31.374h-.449zm-.448 0l-1.462-31.374h.449l1.461 31.374h-.448zm-.449 0l-1.461-31.374h.448l1.462 31.374h-.449zm-.448 0l-1.462-31.374h.449l1.461 31.374h-.448zm-.449 0l-1.461-31.374h.448l1.462 31.374h-.449zm-.448 0l-1.461-31.374h.448l1.461 31.374h-.448zm-.449 0l-1.461-31.374h.449l1.461 31.374h-.449zm-.448 0l-1.461-31.374h.448l1.461 31.374h-.448zm-.449 0l-1.461-31.374h.449l1.461 31.374h-.449zm-.448 0l-1.461-31.374h.448l1.461 31.374h-.448zm-.449 0l-1.461-31.374h.449l1.461 31.374h-.449zm-.448 0l-1.461-31.374h.448l1.461 31.374h-.448zm-.449 0l-1.461-31.374h.449l1.461 31.374h-.449zm-.448 0l-1.461-31.374h.448l1.461 31.374h-.448zm-.448 0l-1.462-31.374h.449l1.461 31.374h-.448zm-.449 0l-1.461-31.374h.448l1.462 31.374h-.449zm-.448 0l-1.462-31.374h.449l1.461 31.374h-.448zm-.449 0l-1.461-31.374h.448l1.462 31.374h-.449zm-.448 0l-1.462-31.374h.449l1.461 31.374h-.448zm-.449 0l-1.461-31.374h.448l1.462 31.374h-.449zm-.448 0l-1.462-31.374h.449l1.461 31.374h-.448zm-.449 0l-1.461-31.374h.448l1.462 31.374h-.449zm-.448 0l-1.462-31.374h.449l1.461 31.374h-.448zm-.449 0l-1.461-31.374h.448l1.462 31.374h-.449zm-.448 0l-1.461-31.374h.448l1.461 31.374h-.448zm-.449 0l-1.461-31.374h.449l1.461 31.374h-.449zm-.448 0l-1.461-31.374h.448l1.461 31.374h-.448zm-.449 0L99.68 13.653h.449l1.461 31.374h-.449zm-.448 0l-1.461-31.374h.448l1.461 31.374h-.448zm-.449 0l-1.461-31.374h.449l1.461 31.374h-.449zm-.448 0l-1.461-31.374h.448l1.461 31.374h-.448zm-.449 0l-1.461-31.374h.449l1.461 31.374h-.449zm-.448 0l-1.461-31.374h.448l1.461 31.374h-.448zm-.449 0l-1.461-31.374h.449l1.461 31.374h-.449zm-.448 0l-1.461-31.374h.448l1.461 31.374h-.448zm-.448 0l-1.462-31.374h.449l1.461 31.374h-.448zm-.449 0l-1.461-31.374h.448l1.462 31.374h-.449zm-.448 0l-1.462-31.374h.449l1.461 31.374h-.448zm-.449 0l-1.461-31.374h.448l1.462 31.374h-.449zm-.448 0l-1.462-31.374h.449l1.461 31.374h-.448zm-.449 0L93.85 13.653h.448l1.462 31.374h-.449zm-.448 0l-1.462-31.374h.449l1.461 31.374h-.448zm-.449 0l-1.461-31.374h.448l1.462 31.374h-.449zm-.448 0l-1.462-31.374h.449l1.461 31.374h-.448zm-.449 0l-1.461-31.374h.448l1.462 31.374h-.449zm-.448 0l-1.461-31.374h.448l1.461 31.374h-.448zm-.449 0l-1.461-31.374h.449l1.461 31.374h-.449zm-.448 0l-1.461-31.374h.448l1.461 31.374h-.448zm-.449 0l-1.461-31.374h.449l1.461 31.374h-.449zm-.448 0l-1.461-31.374h.448l1.461 31.374h-.448zm-.449 0l-1.461-31.374h.449l1.461 31.374h-.449zm-.448 0l-1.461-31.374h.448l1.461 31.374h-.448zm-.449 0l-1.461-31.374h.449l1.461 31.374h-.449zm-.448 0L88.02 13.653h.448l1.461 31.374h-.448zm-.448 0l-1.462-31.374h.449l1.461 31.374h-.448zm-.449 0l-1.461-31.374h.448l1.462 31.374h-.449zm-.448 0l-1.462-31.374h.449l1.461 31.374h-.448zm-.449 0l-1.014-21.783v-9.591h.001l1.462 31.374h-.449zm-.448 0l-.566-12.154v-9.629l1.014 21.783h-.448zm-.449 0l-.117-2.525v-9.629l.566 12.154h-.449zm-.117-2.525l.117 2.525h-.117v-2.525z" class="cls-1"/></g></g><path d="M30.353 13.486L14.218 29.742l16.255 16.135 13.752-.051-14.421-14.305 71.209-.264-6.241 6.283 6.876-.025 8.068-8.128-8.128-8.067-6.876.025L101 27.583l-71.209.264 14.313-14.412-13.751.051z" class="cls-1"/></svg>