<?xml version="1.0" encoding="utf-8"?>
<!-- Generator: Adobe Illustrator 21.1.0, SVG Export Plug-In . SVG Version: 6.00 Build 0)  -->
<svg version="1.1" id="NATS-color" xmlns="http://www.w3.org/2000/svg" xmlns:xlink="http://www.w3.org/1999/xlink" x="0px" y="0px"
	 viewBox="0 0 429 110" style="enable-background:new 0 0 429 110;" xml:space="preserve">
<style type="text/css">
	.st0{fill:#FFFFFF;}
	.st1{fill:#34A574;}
	.st2{fill:#27AAE1;}
	.st3{fill:#8DC63F;}
	.st4{fill:#375C93;}
</style>
<g>
	<path class="st0" d="M4.3,84.6h42.2L70.7,107V84.6H103v-80H4.3V84.6z M20.2,23.3h18.5l35.6,33.2V23.3h11.8v42.9H68.2L32,32.4v33.8
		H20.2V23.3z"/>
	<polygon class="st0" points="159.8,30.7 147,49 172.6,49 	"/>
	<path class="st0" d="M111.3,84.6H210v-80h-98.7V84.6z M152.3,23.1H168l30.8,43.2h-14.1l-5.8-8.3h-38.1l-5.8,8.3h-13.5L152.3,23.1z"
		/>
	<path class="st0" d="M218.3,84.6H317v-80h-98.7V84.6z M233.8,23.3h66.7V33h-27.2v33.2h-12.2V33h-27.3V23.3z"/>
	<path class="st0" d="M325.3,4.6v80H424v-80H325.3z M401.8,61.3c-3.2,3.2-10.2,5.7-26.8,5.7c-12.3,0-24.1-1.9-30.7-4.7V52.3
		c6.3,2.8,20.1,5.5,30.7,5.5c9.3,0,15.8-0.3,17.5-2.1c0.6-0.6,0.7-1.3,0.7-2c0-0.8-0.2-1.3-0.7-1.8c-1-1-2.6-1.7-17.4-2.1
		c-15.7-0.4-23.4-2-27-5.6c-1.7-1.7-2.6-4.4-2.6-7.5c0-3.3,0.6-6.2,3.3-8.9c3.6-3.6,10.7-5.3,25.1-5.3c10.8,0,21.6,1.7,27.3,4v10.1
		c-6.5-2.8-17.8-4.8-27.2-4.8c-10.4,0-14.8,0.6-16.2,2c-0.5,0.5-0.8,1.1-0.8,1.9c0,0.9,0.2,1.5,0.7,2c1.3,1.3,6.1,1.7,17.3,1.9
		c16.4,0.4,23.5,1.8,27,5.2c1.8,1.8,2.8,4.7,2.8,7.7C404.9,55.7,404.2,58.9,401.8,61.3z"/>
</g>
</svg>
