<svg id="Layer_1" data-name="Layer 1" xmlns="http://www.w3.org/2000/svg" viewBox="0 0 3103.42617 946.60274"><title>in-toto-horizontal-black</title><path d="M1264.25439,303.55637q-.28509-.00165-.57031,0a48.19835,48.19835,0,1,0,.57031,0Z"/><rect x="1227.8645" y="444.26364" width="72.77979" height="287.48273"/><path d="M1539.0033,436.98667c-60.64954,0-86.12317,49.12634-86.12317,49.12634V444.26364h-67.92835V731.74637h72.78064V541.911s19.4082-36.99688,57.01123-36.99688c31.53833,0,57.01111,17.58886,57.01111,58.83124v168.001h72.78076v-186.197C1644.53552,476.40818,1594.80212,436.98667,1539.0033,436.98667Z"/><rect x="1700.9397" y="547.37046" width="161.93628" height="69.13965"/><path d="M2063.02148,671.096c-19.40808,0-37.603-10.31012-37.603-45.48779V509.7667H2112.148V444.26383h-86.72949V358.74747H1952.6377v85.51617h-56.40406V509.7667h56.40393V637.1323c0,61.2558,42.45545,101.89288,98.25354,101.89288,41.84839,0,69.14209-18.8028,69.14209-18.8028l-26.68652-59.43646S2079.39722,671.096,2063.02148,671.096Z"/><path d="M2305.61987,436.98667c-85.51635,0-153.44555,66.10833-153.44555,151.01922,0,84.30408,67.9292,151.01929,153.44555,151.01929S2459.06519,672.31,2459.06519,588.00589C2459.06519,503.09482,2391.13623,436.98667,2305.61987,436.98667Zm0,234.10937c-49.12622,0-79.45141-38.20923-79.45141-83.09015,0-44.8825,30.32519-83.09173,79.45141-83.09173s79.45142,38.20923,79.45142,83.09173C2385.07129,632.88681,2354.74609,671.096,2305.61987,671.096Z"/><path d="M2656.18262,671.096c-19.408,0-37.602-10.31012-37.602-45.48779V509.7667h86.73V444.26383h-86.73023V358.74747h-72.77978v85.51617h-56.405V509.7667h56.405V637.1323c0,61.2558,42.45459,101.89288,98.25268,101.89288,41.84912,0,69.14136-18.8028,69.14136-18.8028l-26.68677-59.43646S2672.55933,671.096,2656.18262,671.096Z"/><path d="M2898.78125,436.98667c-85.51636,0-153.44556,66.10833-153.44556,151.01922,0,84.30408,67.9292,151.01929,153.44556,151.01929,85.51611,0,153.44531-66.71521,153.44531-151.01929C3052.22656,503.09482,2984.29736,436.98667,2898.78125,436.98667Zm0,234.10937c-49.12646,0-79.45166-38.20923-79.45166-83.09015,0-44.8825,30.3252-83.09173,79.45166-83.09173,49.12622,0,79.45142,38.20923,79.45142,83.09173C2978.23267,632.88681,2947.90747,671.096,2898.78125,671.096Z"/><path d="M990.4588,55.005c-.90222-.38379-1.80389-.757-2.70557-1.1319.80207.38507,1.59345.78577,2.38813,1.18122Z"/><path d="M1069.11755,116.75858c-23.34741-24.991-48.85394-46.71478-78.97625-61.70422-.79468-.39545-1.58606-.79615-2.38813-1.18122-2.4895-1.195-5.00372-2.35541-7.56842-3.44629C896.13269,14.67722,814.31787,19.84964,735.88306,67.52469A212.471,212.471,0,0,0,710.517,85.999c-23.76337,19.80926-136.632,99.89514-117.74933,139.24139,9.2215,19.20868,60.45923,66.3877,81.7323,66.3172,21.75977-.07294,109.49347-81.095,134.87646-93.76953,51.91828-25.918,113.22388-26.2511,149.01209,18.65661,37.00207,46.43,31.08337,113.32349-13.92175,150.93342C882.9743,418.7714,823.36407,472.577,759.413,520.87955c-24.60845,18.58649-48.98449,26.46887-71.99725,26.25073,49.5965-16.54718,45.8006-112.45581,15.5586-165.18194C663.22443,312.645,604.16608,269.53434,525.746,254.55948c-78.91638-15.06982-150.11163,3.61847-212.40167,54.21894-53.59668,43.53137-109.51044,84.51422-159.70752,131.934-31.708,29.94983-61.6991,62.12963-82.01178,97.63122-36.2262,63.32849-52.28833,116.32184-29.14,191.80927,0,0,28.326,69.56353,57.23016,98.88116,26.6134,26.98792,51.33673,51.56592,86.05048,66.33173,84.052,35.74963,165.867,30.57721,244.30163-17.09784a212.46439,212.46439,0,0,0,25.366-18.47431c23.76331-19.80926,136.6322-99.89514,117.74915-139.24139-9.2212-19.20868-60.45893-66.3877-81.732-66.3172-21.75977.07294-109.49353,81.09509-134.87659,93.76953-51.91845,25.918-113.22369,26.2511-149.0122-18.65661-37.002-46.43-31.08319-113.32349,13.92193-150.93342,61.4925-51.39343,121.10285-105.19909,185.05384-153.50158,31.02807-23.43518,61.6867-29.85919,89.70806-24.46857h0c-44.11822,43.46149-54.20538,113.56378-22.99279,167.978,39.745,69.30334,95.66089,109.05182,174.08093,124.02917l4.843.7956c74.1557,11.0498,141.30658-8.20539,200.42938-56.233,53.5968-43.53137,109.51056-84.51422,159.70752-131.934,31.708-29.94983,61.6991-62.12964,82.012-97.63122,36.226-63.32843,52.28821-116.32178,29.13977-191.80921C1123.46533,215.63974,1101.37561,151.28751,1069.11755,116.75858Z"/></svg>