<svg xmlns="http://www.w3.org/2000/svg" role="img" viewBox="-30.40 -32.90 3140.80 1010.80"><path d="M1264.254 303.556h-.57a48.198 48.198 0 10.57 0zm-36.39 140.708h72.78v287.483h-72.78zm311.139-7.277c-60.65 0-86.123 49.126-86.123 49.126v-41.85h-67.928v287.483h72.78V541.911s19.409-36.997 57.012-36.997c31.538 0 57.01 17.589 57.01 58.831v168.001h72.782V545.55c0-69.14-49.734-108.562-105.533-108.562zM1700.94 547.37h161.936v69.14H1700.94zm362.081 123.726c-19.408 0-37.603-10.31-37.603-45.488V509.767h86.73v-65.503h-86.73v-85.517h-72.78v85.517h-56.404v65.503h56.404v127.365c0 61.256 42.455 101.893 98.253 101.893 41.848 0 69.142-18.803 69.142-18.803l-26.686-59.436s-13.95 10.31-30.326 10.31zm242.599-234.109c-85.516 0-153.446 66.108-153.446 151.019 0 84.304 67.93 151.02 153.446 151.02s153.445-66.716 153.445-151.02c0-84.911-67.929-151.02-153.445-151.02zm0 234.109c-49.126 0-79.452-38.21-79.452-83.09 0-44.883 30.326-83.092 79.452-83.092s79.451 38.21 79.451 83.092c0 44.88-30.325 83.09-79.451 83.09zm350.563 0c-19.408 0-37.602-10.31-37.602-45.488V509.767h86.73v-65.503h-86.73v-85.517h-72.78v85.517h-56.405v65.503h56.405v127.365c0 61.256 42.454 101.893 98.252 101.893 41.85 0 69.142-18.803 69.142-18.803l-26.687-59.436s-13.949 10.31-30.325 10.31zm242.598-234.109c-85.516 0-153.445 66.108-153.445 151.019 0 84.304 67.929 151.02 153.445 151.02 85.516 0 153.446-66.716 153.446-151.02 0-84.911-67.93-151.02-153.446-151.02zm0 234.109c-49.126 0-79.451-38.21-79.451-83.09 0-44.883 30.325-83.092 79.451-83.092 49.126 0 79.452 38.21 79.452 83.092 0 44.88-30.326 83.09-79.452 83.09zM990.459 55.005c-.902-.384-1.804-.757-2.706-1.132.802.385 1.594.786 2.388 1.181z"/><path d="M1069.118 116.759c-23.348-24.991-48.854-46.715-78.977-61.705-.794-.395-1.586-.796-2.388-1.18a183.093 183.093 0 00-7.568-3.447c-84.052-35.75-165.867-30.577-244.302 17.098a212.471 212.471 0 00-25.366 18.474c-23.763 19.81-136.632 99.895-117.75 139.241 9.222 19.21 60.46 66.388 81.733 66.318 21.76-.073 109.493-81.095 134.876-93.77 51.919-25.918 113.224-26.251 149.013 18.657 37.002 46.43 31.083 113.323-13.922 150.933-61.493 51.393-121.103 105.199-185.054 153.502-24.608 18.586-48.984 26.468-71.997 26.25 49.596-16.547 45.8-112.456 15.558-165.182-39.75-69.303-98.808-112.414-177.228-127.389-78.916-15.07-150.112 3.619-212.402 54.22-53.596 43.53-109.51 84.514-159.707 131.933-31.708 29.95-61.7 62.13-82.012 97.632-36.226 63.328-52.288 116.321-29.14 191.809 0 0 28.326 69.563 57.23 98.881 26.614 26.988 51.337 51.566 86.05 66.332 84.053 35.75 165.868 30.577 244.302-17.098a212.464 212.464 0 0025.366-18.474c23.764-19.81 136.632-99.895 117.75-139.242-9.222-19.208-60.46-66.387-81.733-66.317-21.76.073-109.493 81.095-134.876 93.77-51.919 25.918-113.224 26.25-149.012-18.657-37.002-46.43-31.084-113.324 13.922-150.933 61.492-51.394 121.102-105.2 185.053-153.502 31.029-23.435 61.687-29.86 89.708-24.469-44.118 43.462-54.205 113.564-22.992 167.978 39.745 69.304 95.66 109.052 174.08 124.03l4.844.795c74.155 11.05 141.306-8.205 200.429-56.233 53.597-43.531 109.51-84.514 159.708-131.934 31.708-29.95 61.699-62.13 82.012-97.631 36.226-63.328 52.288-116.322 29.14-191.81 0 0-22.09-64.351-54.348-98.88z"/></svg>