<svg xmlns="http://www.w3.org/2000/svg" role="img" viewBox="-3.66 -2.66 294.58 245.58"><style>svg {enable-background:new 0 0 288 239.3}</style><style>.st1{opacity:.8;fill:#6d6e71}</style><path d="M56.8 220.3h1.8l7.6 16.8h-2l-2-4.4h-9.1l-2 4.4h-1.9l7.6-16.8zm4.6 10.7l-3.8-8.5-3.8 8.5h7.6zm9-10.5h1.9l6.1 9.1 6.1-9.1h1.9v16.6h-1.9v-13.5l-6.1 8.9h-.1l-6.1-8.9v13.5h-1.8v-16.6zm21.6 0h7c1.9 0 3.4.5 4.4 1.5.7.7 1.1 1.6 1.1 2.7 0 2.2-1.3 3.3-2.6 3.9 2 .6 3.6 1.7 3.6 4 0 2.9-2.4 4.5-6 4.5H92v-16.6zm10.6 4.4c0-1.6-1.3-2.7-3.7-2.7h-5.1v5.7h4.9c2.3 0 3.9-1 3.9-3zm-3.5 4.6h-5.3v5.9h5.6c2.5 0 4.1-1.1 4.1-3 0-1.8-1.5-2.9-4.4-2.9zm16.9-9.2h1.8l7.6 16.8h-2l-2-4.4h-9.1l-2 4.4h-1.9l7.6-16.8zm4.6 10.7l-3.8-8.5-3.8 8.5h7.6zm7.5 3.7l1.2-1.4c1.7 1.6 3.4 2.4 5.7 2.4 2.2 0 3.7-1.2 3.7-2.8 0-1.5-.8-2.4-4.3-3.2-3.8-.8-5.6-2.1-5.6-4.8 0-2.6 2.3-4.5 5.5-4.5 2.4 0 4.2.7 5.9 2l-1.1 1.5c-1.5-1.3-3.1-1.8-4.8-1.8-2.2 0-3.5 1.2-3.5 2.7 0 1.6.9 2.5 4.5 3.2 3.7.8 5.4 2.2 5.4 4.7 0 2.9-2.4 4.7-5.7 4.7-2.7-.1-4.9-.9-6.9-2.7zm16 0l1.2-1.4c1.7 1.6 3.4 2.4 5.7 2.4 2.2 0 3.7-1.2 3.7-2.8 0-1.5-.8-2.4-4.3-3.2-3.8-.8-5.6-2.1-5.6-4.8 0-2.6 2.3-4.5 5.5-4.5 2.4 0 4.2.7 5.8 2l-1.1 1.5c-1.5-1.3-3.1-1.8-4.8-1.8-2.2 0-3.5 1.2-3.5 2.7 0 1.6.9 2.5 4.5 3.2 3.7.8 5.4 2.2 5.4 4.7 0 2.9-2.4 4.7-5.7 4.7-2.7-.1-4.8-.9-6.8-2.7zm23-14.4h1.8l7.6 16.8h-2l-2-4.4h-9.1l-2 4.4h-1.9l7.6-16.8zm4.7 10.7l-3.8-8.5-3.8 8.5h7.6zm8.9-10.5h5.8c5.2 0 8.8 3.6 8.8 8.3 0 4.7-3.6 8.3-8.8 8.3h-5.8v-16.6zm1.9 1.7v13.2h3.9c4.2 0 6.9-2.9 6.9-6.5 0-3.7-2.7-6.6-6.9-6.6h-3.9zm16.9 6.6c0-4.6 3.4-8.7 8.5-8.7s8.5 4 8.5 8.6-3.4 8.6-8.5 8.6-8.5-3.9-8.5-8.5zm15.1 0c0-3.8-2.8-6.9-6.6-6.9s-6.5 3-6.5 6.8 2.8 6.9 6.6 6.9 6.5-3 6.5-6.8zm6.8-8.3h7.2c2 0 3.7.6 4.7 1.7.8.8 1.3 2 1.3 3.3 0 2.8-1.9 4.4-4.5 4.9l5.1 6.8h-2.3l-4.8-6.5h-4.8v6.5h-1.9v-16.7zm7 8.4c2.5 0 4.3-1.3 4.3-3.4 0-2-1.6-3.3-4.3-3.3h-5.1v6.8h5.1z"/><g id="XMLID_563_"><path id="XMLID_631_" d="M93.7 188.4c1.5 0 2.7-.6 3.7-1.8l2 2c-1.6 1.8-3.4 2.6-5.5 2.6s-3.9-.7-5.2-2c-1.4-1.3-2.1-3-2.1-5.1 0-2 .7-3.7 2.1-5.1 1.4-1.4 3.1-2 5.1-2 2.3 0 4.1.9 5.7 2.6l-1.9 2.2c-1-1.2-2.2-1.8-3.6-1.8-1.2 0-2.1.4-3 1.1-.8.8-1.2 1.8-1.2 3 0 1.3.4 2.3 1.2 3.1.7.8 1.6 1.2 2.7 1.2z"/><path id="XMLID_629_" d="M101.8 191.1v-13.7h3.1v11h5.8v2.7h-8.9z"/><path id="XMLID_626_" d="M124.1 189.2c-1.4 1.4-3.1 2-5.1 2-2 0-3.7-.7-5.1-2-1.4-1.4-2.1-3-2.1-5.1 0-2 .7-3.7 2.1-5.1 1.4-1.4 3.1-2 5.1-2 2 0 3.7.7 5.1 2 1.4 1.4 2.1 3 2.1 5.1 0 2.1-.7 3.8-2.1 5.1zm-1.1-5c0-1.2-.4-2.3-1.2-3.1-.8-.9-1.8-1.3-2.9-1.3-1.1 0-2.1.4-2.9 1.3-.8.9-1.2 1.9-1.2 3.1 0 1.2.4 2.3 1.2 3.1.8.9 1.7 1.3 2.9 1.3 1.1 0 2.1-.4 2.9-1.3.8-.8 1.2-1.9 1.2-3.1z"/><path id="XMLID_624_" d="M132.4 187.6c.5.6 1.2 1 2.1 1 .9 0 1.5-.3 2.1-1 .5-.6.8-1.5.8-2.6v-7.6h3.1v7.7c0 2-.6 3.5-1.6 4.6-1.1 1.1-2.5 1.6-4.2 1.6-1.7 0-3.1-.5-4.2-1.6s-1.7-2.6-1.7-4.6v-7.7h3.1v7.6c-.3 1.1 0 2 .5 2.6z"/><path id="XMLID_621_" d="M154 179.2c1.3 1.2 2 2.9 2 5s-.6 3.8-1.9 5.1c-1.3 1.2-3.2 1.9-5.8 1.9h-4.7v-13.7h4.8c2.4-.1 4.3.5 5.6 1.7zm-2.3 8.2c.8-.7 1.1-1.7 1.1-3.1 0-1.3-.4-2.4-1.1-3.1-.8-.7-1.9-1.1-3.5-1.1h-1.7v8.3h1.9c1.5 0 2.6-.3 3.3-1z"/><path id="XMLID_619_" d="M173.4 177.4h3.1v13.7h-3.1l-6.5-8.6v8.6h-3.1v-13.7h2.9l6.7 8.8v-8.8z"/><path id="XMLID_616_" d="M189.6 191.1l-1.3-3h-5.8l-1.3 3H178l5.9-13.7h3l5.9 13.7h-3.2zm-4.2-9.6l-1.7 4h3.4l-1.7-4z"/><path id="XMLID_614_" d="M199.2 180.1v11.1h-3.1v-11.1h-3.9v-2.6H203v2.6h-3.8z"/><path id="XMLID_612_" d="M205.4 177.4h3.1v13.7h-3.1v-13.7z"/><path id="XMLID_610_" d="M216.9 186.1l3.5-8.7h3.3l-5.5 13.7h-2.6l-5.5-13.7h3.3l3.5 8.7z"/><path id="XMLID_608_" d="M235.2 177.4v2.7h-6.8v2.8h6.1v2.6h-6.1v2.8h7v2.7h-10.1v-13.7h9.9z"/><path id="XMLID_606_" d="M90.2 202.8c.8 0 1.5-.3 2.1-1l1.1 1.1c-.9 1-1.9 1.5-3.1 1.5s-2.2-.4-2.9-1.1c-.8-.7-1.1-1.7-1.1-2.8 0-1.1.4-2.1 1.2-2.9.8-.8 1.7-1.1 2.9-1.1 1.3 0 2.3.5 3.2 1.4l-1.1 1.2c-.5-.7-1.2-1-2-1-.6 0-1.2.2-1.7.6-.5.4-.7 1-.7 1.7s.2 1.3.6 1.7c.3.5.9.7 1.5.7z"/><path id="XMLID_603_" d="M101 203.3c-.8.8-1.7 1.1-2.9 1.1-1.1 0-2.1-.4-2.9-1.1-.8-.8-1.2-1.7-1.2-2.8 0-1.1.4-2.1 1.2-2.8.8-.8 1.7-1.1 2.9-1.1 1.1 0 2.1.4 2.9 1.1.8.8 1.2 1.7 1.2 2.8 0 1.1-.4 2-1.2 2.8zm-.6-2.9c0-.7-.2-1.3-.7-1.8-.4-.5-1-.7-1.6-.7s-1.2.2-1.6.7c-.4.5-.7 1.1-.7 1.8s.2 1.3.7 1.7c.4.5 1 .7 1.6.7s1.2-.2 1.6-.7c.5-.4.7-1 .7-1.7z"/><path id="XMLID_601_" d="M110.5 199.5l-2.1 4.2h-1l-2.1-4.2v4.8h-1.7v-7.7h2.3l2 4.2 2-4.2h2.3v7.7h-1.7v-4.8z"/><path id="XMLID_598_" d="M119.4 197.3c.5.5.8 1.2.8 2.1 0 .9-.3 1.6-.8 2.1-.6.4-1.4.7-2.5.7h-1v2.1h-1.7v-7.7h2.7c1.1 0 2 .3 2.5.7zm-1.2 3.1c.2-.2.3-.6.3-1s-.1-.8-.4-.9c-.3-.2-.7-.3-1.2-.3h-1v2.6h1.2c.5-.1.9-.2 1.1-.4z"/><path id="XMLID_596_" d="M123.6 202.4c.3.4.7.5 1.2.5s.9-.2 1.1-.5c.3-.4.4-.8.4-1.5v-4.2h1.7v4.3c0 1.1-.3 2-.9 2.6-.6.6-1.4.9-2.4.9s-1.8-.3-2.4-.9c-.6-.6-.9-1.5-.9-2.6v-4.3h1.7v4.2c.1.6.2 1.1.5 1.5z"/><path id="XMLID_594_" d="M133.1 198.1v6.2h-1.7v-6.2h-2.2v-1.5h6.1v1.5h-2.2z"/><path id="XMLID_592_" d="M136.5 196.6h1.7v7.7h-1.7v-7.7z"/><path id="XMLID_590_" d="M145.5 196.6h1.7v7.7h-1.7l-3.7-4.8v4.8h-1.7v-7.7h1.6l3.8 5v-5z"/><path id="XMLID_588_" d="M154.1 200.4h1.7v2.7c-.8.9-1.8 1.3-3.2 1.3-1.1 0-2.1-.4-2.8-1.1-.8-.7-1.1-1.7-1.1-2.8 0-1.1.4-2.1 1.2-2.9.8-.8 1.7-1.1 2.8-1.1 1.1 0 2.1.4 2.9 1.1l-.9 1.3c-.3-.3-.7-.5-1-.6-.3-.1-.6-.2-.9-.2-.7 0-1.2.2-1.7.7-.4.4-.7 1-.7 1.8 0 .7.2 1.3.6 1.7.4.4.9.7 1.5.7s1.1-.1 1.5-.3v-2.3z"/><path id="XMLID_586_" d="M165.6 196.6v1.5H162v1.7h3.4v1.5H162v3h-1.7v-7.7h5.3z"/><path id="XMLID_583_" d="M173.5 203.3c-.8.8-1.7 1.1-2.9 1.1-1.1 0-2.1-.4-2.9-1.1-.8-.8-1.2-1.7-1.2-2.8 0-1.1.4-2.1 1.2-2.8.8-.8 1.7-1.1 2.9-1.1 1.1 0 2.1.4 2.9 1.1.8.8 1.2 1.7 1.2 2.8-.1 1.1-.4 2-1.2 2.8zm-.6-2.9c0-.7-.2-1.3-.7-1.8-.4-.5-1-.7-1.6-.7-.6 0-1.2.2-1.6.7-.4.5-.7 1.1-.7 1.8s.2 1.3.7 1.7c.4.5 1 .7 1.6.7.6 0 1.2-.2 1.6-.7.5-.4.7-1 .7-1.7z"/><path id="XMLID_581_" d="M178.1 202.4c.3.4.7.5 1.2.5s.9-.2 1.1-.5c.3-.4.4-.8.4-1.5v-4.2h1.7v4.3c0 1.1-.3 2-.9 2.6-.6.6-1.4.9-2.4.9s-1.8-.3-2.4-.9c-.6-.6-.9-1.5-.9-2.6v-4.3h1.7v4.2c.1.6.2 1.1.5 1.5z"/><path id="XMLID_579_" d="M189.7 196.6h1.7v7.7h-1.7l-3.7-4.8v4.8h-1.7v-7.7h1.6l3.8 5v-5z"/><path id="XMLID_576_" d="M199.2 197.7c.7.7 1.1 1.6 1.1 2.8 0 1.2-.4 2.1-1.1 2.8-.7.7-1.8 1-3.3 1h-2.6v-7.7h2.7c1.4 0 2.5.4 3.2 1.1zm-1.2 4.5c.4-.4.6-1 .6-1.7 0-.8-.2-1.3-.6-1.7-.4-.4-1.1-.6-1.9-.6h-1v4.7h1.1c.7-.1 1.3-.3 1.8-.7z"/><path id="XMLID_573_" d="M207.1 204.3l-.7-1.7h-3.2l-.7 1.7h-1.8l3.3-7.7h1.7l3.3 7.7h-1.9zm-2.4-5.4l-1 2.2h1.9l-.9-2.2z"/><path id="XMLID_571_" d="M212.5 198.1v6.2h-1.7v-6.2h-2.2v-1.5h6.1v1.5h-2.2z"/><path id="XMLID_569_" d="M215.9 196.6h1.7v7.7h-1.7v-7.7z"/><path id="XMLID_566_" d="M226 203.3c-.8.8-1.7 1.1-2.9 1.1-1.1 0-2.1-.4-2.9-1.1-.8-.8-1.2-1.7-1.2-2.8 0-1.1.4-2.1 1.2-2.8.8-.8 1.7-1.1 2.9-1.1 1.1 0 2.1.4 2.9 1.1.8.8 1.2 1.7 1.2 2.8 0 1.1-.4 2-1.2 2.8zm-.6-2.9c0-.7-.2-1.3-.7-1.8-.4-.5-1-.7-1.6-.7-.6 0-1.2.2-1.6.7-.4.5-.7 1.1-.7 1.8s.2 1.3.7 1.7c.4.5 1 .7 1.6.7.6 0 1.2-.2 1.6-.7.5-.4.7-1 .7-1.7z"/><path id="XMLID_564_" d="M234 196.6h1.7v7.7H234l-3.7-4.8v4.8h-1.7v-7.7h1.6l3.8 5v-5z"/></g><g id="XMLID_558_"><path id="XMLID_562_" d="M53.7 195.2h-4.2v9.9h9.8v-4.2h-5.6z"/><path id="XMLID_561_" d="M74.8 195.3v5.6h-5.6v-.1 4.3H79v-9.9h-4.2z"/><path id="XMLID_560_" d="M49.5 185.4h4.2v-5.7h5.6v.1-4.3h-9.8z"/><path id="XMLID_559_" d="M69.2 175.5v4.2h5.6v5.7H79v-9.9z"/></g><path id="XMLID_557_" fill="#6d6e71" d="M68.6 185.4l-5.6-5.7h6.2v-4.2h-9.9v4.3l5.6 5.6z"/><path id="XMLID_556_" d="M63.6 195.2h-3.8l4.7 4.7 1 1h-6.2v4.2h9.9v-4.3l-2.8-2.8z" class="st1"/><path id="XMLID_555_" d="M74.8 185.4v6.1l-1-.9-4.6-4.7v3.7l2.8 2.8 2.8 2.8H79v-9.8z" class="st1"/><path id="XMLID_554_" d="M59.3 191l-5.6-5.6h-4.2v9.8h4.2v-6.1l5.6 5.6z" class="st1"/><path d="M8.9 84.9c-1.8 3-3.2 6.1-4.3 9.4l15.2-4.5 4.5-1.3-15.4-3.6zm18.7 2.7l-.2-20.7c-7.2 4-13.3 9.7-17.7 16.7l7.9 1.9 9.7 2.3.3-.2z"/><path d="M9.7 83.5l7.9 1.9-7.9-1.9zm53.7-6.3l-.1-7.2-.1-7.9c-3.9-1-7.9-1.4-11.8-1.4-7.9 0-15.4 1.8-22.4 5.4l.2 21.1 34.2-10zM29 66.1l.2 21.1zm78.5-17.5l-.2-17.8L95 27.9l-10-2.4C75.9 36.1 70.3 49 69 62.9l-.1 1-.9-.4c-1-.4-2.1-.7-3.1-1l.1 14.8 42.9 10.2-.4-38.9zm9.4 26.9c4.2 0 7.6 3.1 8 7.2l5.8-1.7 12.9-3.8-.5-56.4-34.2 10 .1 14.7.3 35.1c1.2-3 4.2-5.1 7.6-5.1zm-7.5 5.1l-.3-35.1zm33.7-61.8l.7.1 23.7-6.9c-10-5.8-21.3-8.8-32.9-8.8-6.5 0-12.8.9-19 2.8-11.2 3.4-21.3 9.7-29.3 18.3l21.8 5.2 34.4-10.1.6-.2v-.4zm1.6 1.9l.2 23.8.3 32.9 11.4 2.7 4.3 1c1-3.3 4.2-5.7 7.7-5.7 4.4 0 8.1 3.6 8.1 8.1 0 .4 0 .8-.1 1.3l2.5.6 9.1 2.1-.3-38.9-.2-17.8-43-10.1zm0 0l.2 23.8zm58.4 62.5l20.2-5.9-.3-37.4c-8.9.1-19.5 3.3-25.7 6.3l-.8.4-.3-.8c-.3-.9-.7-1.7-1-2.6-1.7-3.9-3.7-7.6-6.1-11.1l.5 55.1 13.5-4zm-13.4 4l-.5-55.1zm-20.4-74.1L147 19.6l40 9.5c-4.9-6.4-10.8-11.8-17.7-16z"/><path d="M169.3 13.1L147 19.6l22.3-6.5zM15 113.5l-13-3.1c.1 14.8 6.7 28.6 18.2 37.9l-.2-26.8-.1-6.8-4.9-1.2zm36.1 46h5.1l-.5-54.8-34.2 10v4.8l.3 30.2c8.5 6.3 18.6 9.7 29.3 9.8zm-29.3-9.9l-.3-30.2.3 30.2zm32.8-46.3l1-.3v-.3l.7.1L105 88.5 65 79l-1.2-.3L4 96.2c-1.2 4.1-1.9 8.4-2 12.6l2.8.7 15.8 3.8 34-10zM65 79l-1.3-.3 1.3.3zM2 108.8l2.8.7-2.8-.7zm55.2-4.3l.5 55h42.8l-.1-15.4-.2-29.4zm0 0l.5 55-.5-55zm44.8 39l.1 16h34.3l-.2-25.6c-11.7-2.4-21.2-10.7-24.9-22l-9.5 2.8.2 28.8zm.1 16l-.1-16zm41.8-80.8l-19.1 5.6c-.4 4.1-3.9 7.3-8 7.3-2.5 0-4.8-1.1-6.3-3.1l-51 15 41.3 9.8 9.9-2.9c-.8-2.9-1.2-5.9-1.2-9v-.8h34.3l41.4-12.1-9.1-2.1c-1.2 3.2-4.2 5.3-7.5 5.3-4.4 0-8.1-3.6-8.1-8.1 0-.3 0-.6.1-.9L145.2 79l-1.3-.3zm1.3.3l-1.3-.3z"/><path d="M110.6 88.5l-1.9.5-.7.2-48.5 14.2h.1l51-14.9zm-2.6.7l.7-.2-.7.2zm65.8 23.9c-4.9 12.9-17.2 21.5-31 21.5-1.6 0-3.3-.1-5-.4l.2 25.3h42.8l-.1-15.4-.3-29.4-6.6-1.6zm-36.1 21.1l.3 25.3-.3-25.3zm44.3-19.6l.3 28.8.1 16h33.7V155l-.4-50.3-33.7 9.9zm.4 44.9l-.2-16zm31.4-55.8l-.4-.1 2.3-.7v-.4l.8.2 48.1-14.1-24.6-5.8-16.5-3.9-74.1 21.7H176v.8c0 3.4-.6 6.9-1.6 10.2l6.6 1.6.3.1 32.5-9.6zm-39.5 7.9l6.6 1.6-6.6-1.6zm50.6-34l42.6 10.1.3-.1-.1-15.6-.1-16.2c-9.9-9-23.9-14.3-41.6-15.8-.4 0-.9-.1-1.4-.1l.3 36.9v.8zm0-.7v.7zm58.3 6.2c-1.8-7.3-4.6-13.7-8.4-19.2-1.6-2.3-3.5-4.6-5.6-6.6l.3 29.9 13.7-4.1zm-14.1-25.8l.3 29.9zm-39.4 50.2l-12.5-3 .3 36.5.2 18.4h7.6c2.8.1 5.4.1 7.7 0 16.6-.4 24.1-3 27.1-4.6.1-.1.2-.1.3-.2v-5.3l-.1-16.9-.2-17.8-30.4-7.1zm-12 51.9l-.2-18.4zm45.1-6.5v.2c9.1-6.2 19.8-18 22-39.1.2-2 .4-4.1.5-6.3l-14.9 4.4-8.6 2.5.3 38.9.7-.6zm-1.9-39.7l24.4-7.1c.2-7.7-.4-14.9-1.8-21.4l-47.3 13.9-16.7 4.9 41.4 9.7zm-41.4-9.8l16.7-4.9-16.7 4.9z"/></svg>