<?xml version="1.0" encoding="UTF-8"?><svg id="Layer_1" xmlns="http://www.w3.org/2000/svg" viewBox="0 0 1032.71997 1032.71997"><defs><style>.cls-1{fill:#fff;}</style></defs><polygon class="cls-1" points="107.76001 826.85999 108.35999 826.56598 108.35999 826.15997 109.1886 826.15997 217.58789 773.04364 217.07501 772.15997 20.15997 772.15997 69.85999 861.06 20.15997 959.56 108.35999 959.56 108.35999 826.85999 107.76001 826.85999"/><polygon class="cls-1" points="1013.56 772.15997 816.64502 772.15997 816.41998 772.54767 927.26001 826.85999 925.35999 826.85999 925.35999 959.56 1013.56 959.56 963.85999 861.06 1013.56 772.15997"/><polygon class="cls-1" points="108.35999 826.85999 108.35999 826.56598 107.76001 826.85999 108.35999 826.85999"/><polygon class="cls-1" points="780.65668 755.02344 770.70844 772.15997 739.35999 826.15997 785.30255 826.15997 816.41998 772.54767 816.64502 772.15997 1007.65997 443.06 961.76001 443.06 780.65668 755.02344"/><polygon class="cls-1" points="248.41748 826.15997 294.35999 826.15997 263.01154 772.15997 253.3512 755.51935 71.96002 443.06 26.06 443.06 217.07501 772.15997 217.58789 773.04364 248.41748 826.15997"/><polygon class="cls-1" points="294.26001 60.06 271.46002 20.16003 26.06 443.06 71.96002 443.06 294.26001 60.06"/><polygon class="cls-1" points="739.35999 59.96002 961.76001 443.06 1007.65997 443.06 762.26001 20.16003 761.85999 20.16003 739.06 59.96002 739.35999 59.96002"/><polygon class="cls-1" points="294.35999 59.96002 739.06 59.96002 761.85999 20.16003 271.46002 20.16003 294.26001 60.06 294.35999 59.96002"/><polygon class="cls-1" points="646.35999 942.35999 639.31531 959.56 638.65997 961.15997 653.85999 961.15997 653.22168 959.56 646.35999 942.35999"/><path class="cls-1" d="m474.76001,940.15997c-8.20001,0-14.90002,6.5-14.90002,15,0,1.53925.22931,3.01331.64264,4.40002,1.86914,6.27106,7.62415,10.69995,14.25739,10.69995s12.18719-4.42889,13.98346-10.69995c.39722-1.38672.61652-2.86078.61652-4.40002,0-8.5-6.59998-15-14.59998-15Z"/><path class="cls-1" d="m745.85999,870.55994h-9.40002v29.90002h9.90002c8.09998,0,14-6.09998,14-14.90002,0-8.90002-6.20001-15-14.5-15Z"/><path class="cls-1" d="m425.46002,870.36005h-10.10004v16.29999h10.10004v.09998c6,0,9.5-2.79999,9.5-8.29999,0-5.40002-3.40002-8.09998-9.5-8.09998Z"/><polygon class="cls-1" points="283.26001 942.35999 276.21533 959.56 275.56 961.15997 290.85999 961.15997 290.2132 959.56 283.26001 942.35999"/><path class="cls-1" d="m925.35999,826.15997H108.35999v187.40002h817v-187.40002Zm-199.79993,83.39996v-48.29999h20.49994v.10004c15,0,25.40002,9.90002,25.40002,24.09998s-10.59998,24.09998-25.79999,24.09998h-20.09998Zm-28.50006-28.59998v9h-23.29999v10.70001h26.59998v9h-37.5v-48.29999h36.79999v9h-25.89996v10.59998h23.29999Zm-119,28.79999h-10.90002v-48.29999h34.70001l-.09998,9h-23.70001v11.90002h21.79999v9.09998h-21.79999v18.29999Zm57.60004-48.39996v48.29999h-10.90002v-48.29999h10.90002Zm-95.80005,0v48.29999h-10.90002v-48.29999h10.90002Zm-33.20001,9.29999h-14.79999v39h-10.89996v-39h-14.70001v-9.20001h40.39996v9.20001Zm-61.39996,7.5c0,7.5-3.20001,12.79999-9,15.59998l10.29999,15.90002h-12.29999l-7.79999-13.79999h-11.10004v13.79999h-10.89996v-48.29999h21c6.37799,0,11.36572,1.56854,14.74298,4.5,3.29468,2.85974,5.05701,7.01624,5.05701,12.29999Zm-69.20001,2.79999v9h-23.29999v10.70001h26.59998v9h-37.5v-48.29999h36.79999v9h-25.89996v10.59998h23.29999Zm-57.29999-11.89996l-6.29999,7.70001c-3.29999-3.79999-8.10004-6.29999-12.60004-6.29999-8.29999,0-14.70001,6.40002-14.70001,14.79999s6.40002,14.90002,14.70001,14.90002c4.29999,0,9.10004-2.20001,12.60004-5.70001l6.39996,7c-5.09998,5.20001-12.5,8.59998-19.5,8.59998-14.39996,0-25.29999-10.70001-25.29999-24.70001,0-8.14496,3.81494-15.11835,9.90845-19.5,4.30548-3.09595,9.7467-4.90002,15.79156-4.90002,5.24237.07599,10.71283,1.8869,15.14514,4.90002,1.40149.95276,2.70172,2.02283,3.85486,3.20001Zm-20.70001,110.29999l-3.79999-9.40002h-22.29999l-3.79999,9.40002h-11.20001l8.6087-19.79999,12.3913-28.5h11.20001l12.15527,28.5,8.4447,19.79999h-11.70001Zm50.59998.20001c-7.89996,0-15.89996-3-21.29999-7.70001l4.29999-8.90002c5,4.40002,12,7.20001,17.10004,7.20001,4.5,0,7.20001-1.70001,7.20001-4.59998,0-3.3233-3.43207-4.72534-7.78375-6-7.56433-2.21564-17.91626-4.04486-17.91626-14.90002,0-8.79999,7.5-14.29999,18.70001-14.29999,6.59998.20001,13.29999,2.20001,18.19995,5.40002l-4.20001,9c-5.09998-3-11.20001-5-15-5-3.70001,0-6.09998,1.29999-6.09998,3.90002,0,7.82098,19.83978,4.91382,24.6521,15.89996.66394,1.51575,1.04791,3.29041,1.04791,5.40002,0,9.5-8.20001,14.59998-18.90002,14.59998Zm60.40002,0c-7.89996,0-15.89996-3-21.29999-7.70001l4.29999-8.90002c5,4.40002,12,7.20001,17.10004,7.20001,4.5,0,7.20001-1.70001,7.20001-4.59998,0-3.3233-3.43207-4.72534-7.78375-6-7.56433-2.21564-17.91626-4.04486-17.91626-14.90002,0-8.79999,7.5-14.29999,18.70001-14.29999,6.69995.20001,13.39996,2.20001,18.19995,5.40002l-4.20001,9c-5.09998-3-11.20001-5-15-5-3.70001,0-6.09998,1.29999-6.09998,3.90002,0,7.82098,19.83978,4.91382,24.6521,15.89996.66394,1.51575,1.04791,3.29041,1.04791,5.40002,0,9.5-8.20001,14.59998-18.90002,14.59998Zm65.60004.19995c-13.1142,0-23.43536-8.43939-25.51117-20.19995-.25104-1.42212-.38885-2.88977-.38885-4.40002,0-14.09998,11.20001-24.5,25.90002-24.5s25.89996,10.5,25.89996,24.5c0,1.50854-.13947,2.97644-.39343,4.40002-2.08636,11.69354-12.40192,20.19995-25.50653,20.19995Zm70.29999-.09998c-12.77502,0-22.78833-8.42413-24.88721-20.09998-.26697-1.48517-.41278-3.0202-.41278-4.60004,0-13.90002,11.09998-24.40002,25.70001-24.40002,6.89996.10004,14.19995,3.20007,18.99994,8.10004l-6.29999,7.70001c-3.29999-3.79999-8.09998-6.29999-12.59998-6.29999-8.29999,0-14.70001,6.40002-14.70001,14.79999,0,1.65338.25604,3.22888.71765,4.70001,1.88354,6.00269,7.3161,10.20001,13.98236,10.20001,4.29999,0,9.09998-2.20001,12.59998-5.70001l6.40002,7c-5.09998,5.20001-12.5,8.59998-19.5,8.59998Zm53.39996-.39996h-10.90002v-48.29999h10.90002v48.29999Zm62.79999.09998l-3.79999-9.40002h-22.29999l-3.79999,9.40002h-11.20001l8.6087-19.79999,12.3913-28.5h11.20001l12.15527,28.5,8.4447,19.79999h-11.70001Zm49.10004-.09998h-10.90002v-39h-14.70001v-9.20001h40.40002v9.20001h-14.79999v39Zm74.69995-9v9h-37.5v-48.29999h36.79999v9h-25.89996v10.59998h23.29999v9h-23.29999v10.70001h26.59998Z"/><rect class="cls-1" x="365.35999" y="559.76001" width="16.60004" height="17.79999"/><rect class="cls-1" x="365.76001" y="600.56" width="16.70001" height="98.29999"/><path class="cls-1" d="m767.26007,698.85999v-65.70001c.20001-6-.90002-12-3.20001-17.5-1.79999-4.20001-4.59998-7.79999-8.09998-10.70001-3.20001-2.5-6.79999-4.29999-10.70001-5.29999-3.59998-.90002-7.29999-1.40002-11-1.40002-6.89996-.09998-13.69995,1.70001-19.59998,5.20001-5.90002,3.80005-10.90002,8.70001-14.90002,14.40002h-.40002c-2.29999-5.70001-6.09998-10.59998-11.09998-14.29999-5.29999-3.60004-11.70001-5.40002-18.20001-5.20001-3.39996-.09998-6.79999.40002-10.09998,1.20001-2.90002.79999-5.79999,2-8.5,3.5-2.5,1.39996-4.90002,3.09998-7,5.09998-2.10004,1.89996-4.10004,4-5.90002,6.29999h-.29999l-3.09998-13.59998h-12.40002v98h16.09998v-69.70013c3.29999-4.89996,7.59998-9.19995,12.59998-12.59998,4.59998-3,10.09998-4.59998,15.59998-4.59998,2.79999,0,5.60004.5,8.20001,1.40002,2.39996.90002,4.59998,2.29999,6.29999,4.20001,1.79999,2.20001,3.20001,4.70001,4,7.40002,1,3.60004,1.5,7.20001,1.40002,10.90002v63h15.90009v-69.70013c3.40002-5,7.70001-9.29999,12.70001-12.59998,4.59998-3,10.09998-4.59998,15.59998-4.59998,2.79999,0,5.60004.5,8.20001,1.40002,2.39996.90002,4.59998,2.29999,6.29999,4.20001,1.89996,2.10004,3.29999,4.70001,4.09998,7.40002,1,3.60004,1.5,7.20001,1.40002,10.90002v63h16.09998Z"/><path class="cls-1" d="m511.56,600.45996v60.59998c0,3.20001.20001,6.5.59998,9.70001.40002,2.79999,1.10004,5.60004,2.10004,8.20001,1.20001,3.29999,2.89996,6.40002,5.09998,9.20001,2.09998,2.79999,4.79999,5.29999,7.79999,7.20001,3.29999,2.09998,7,3.69995,10.79999,4.59998,4.60004,1.20001,9.20001,1.79999,13.90002,1.70001,4.79999.10004,9.5-.5,13.90002-1.70001,4-1,7.70001-2.59998,11.20001-4.79999,3.09998-2,5.89996-4.5,8.09998-7.40002s3.90002-6,5.20001-9.40002c.79999-2.59998,1.5-5.29999,1.79999-8,.39996-3.09998.59998-6.20001.59998-9.29999v-60.59998h-16.09998v60.40002c.20001,4.29999-.40002,8.5-1.70001,12.59998-1.5,4.29999-4.29999,8-8,10.59998-4.29999,2.80005-9.5,4.20001-14.70001,3.90002-5,.20001-9.90002-1.09998-14.20001-3.59998-3.69995-2.29999-6.5-5.79999-8.09998-9.79999-1.59998-4.40002-2.29999-9-2.20001-13.70001v-60.40002h-16.09998Z"/><rect class="cls-1" x="415.26001" y="549.06" width="15.70001" height="149.79999"/><path class="cls-1" d="m270.26001,673.95996c2.29999,5.90002,5.79999,11.29999,10.39996,15.70001,4.40002,4.10004,9.70001,7.29999,15.40002,9.20001,6,2,12.29999,3,18.70001,3,2.5,0,5.09998-.20001,7.59998-.5,2.40002-.20001,4.80005-.70001,7.20001-1.20001,2.10004-.5,4.20001-1.09998,6.20001-1.79999,1.60004-.59998,3.10004-1.29999,4.60004-2.09998v-13.40002c-3.90002,1.60004-7.79999,2.79999-11.90002,3.70001-4,.79999-8,1.29999-12.09998,1.29999-4.90002.10004-9.90002-.89996-14.5-2.79999-4.10004-1.69995-7.70001-4.29999-10.5-7.59998-2.90002-3.39996-5-7.29999-6.29999-11.59998-1.40002-4.79999-2.10004-9.70001-2.10004-14.70001-.09998-6.20001.90002-12.39996,2.90002-18.29999,1.59998-4.5,4.20001-8.5,7.5-11.90002,2.89996-3,6.5-5.20001,10.5-6.5,3.89996-1.29999,7.89996-2,11.89996-2,3.70001,0,7.5.40002,11.10004,1.20001,4,.90002,8,2.20001,11.89996,3.70001v-13.40002c-3.5-1.90002-7.20001-3.40002-11.09998-4.20001-4.5-1-9-1.5-13.60004-1.5-3.70001,0-7.5.39996-11,1.39996-7.79999,1.59998-15,5.29999-21,10.59998-3.20001,2.79999-6,6.20001-8.20001,10-2.39996,4.29999-4.29999,8.90002-5.5,13.70001-1.39996,5.70001-2.09998,11.59998-2,17.5-.20001,7.70001,1.20001,15.29999,3.90002,22.5Z"/><rect class="cls-1" x="464.46002" y="559.76001" width="16" height="17.79999"/><rect class="cls-1" x="464.85999" y="600.56" width="16" height="98.29999"/><path class="cls-1" d="m436.76001,331.46002l35.59998-61.10004-35.59998-61.5h-70.40002l-35.29999,61.5,35.29999,61.10004h70.40002Zm-9.29999-106.20001l26.09998,45.20001-26.09998,44.69995h-51.60004l-26.09998-44.69995,26.09998-45.20001h51.60004Z"/><path class="cls-1" d="m596.85999,331.46002h70.70001l35.70001-61.10004-35.70001-61.5h-70.70001l-35.40002,61.5,35.40002,61.10004Zm61.40002-106.10004l26.20001,45.20001-26.20001,44.59998h-51.79999l-26.20001-44.59998,26.20001-45.20001h51.79999Z"/><path class="cls-1" d="m552.06,265.16003l35.70001-60.70001-35.70001-61.20001h-70.70001l-35.5,61.20001,35.5,60.70001h70.70001Zm-9.20001-105.60004l26.09998,44.90002-26.09998,44.5h-51.79999l-26.39996-44.5,26.20001-44.90002h51.99994Z"/><path class="cls-1" d="m445.85999,466.85999l35.5,60.79999h70.70001l35.79999-60.79999-13.94501-23.79999-21.85498-37.29999h-70.70001l-21.67188,37.29999-13.82812,23.79999Zm97-44.89996l12.28485,21.09998,13.91516,23.90002-26.20001,44.39996h-51.79999l-26.39996-44.39996,13.91516-23.90002,12.28485-21.09998h51.99994Z"/><path class="cls-1" d="m587.76001,335.65997l-35.70001-61.09998h-70.70001l-35.5,61.09998,35.5,60.79999h70.70001l35.70001-60.79999Zm-96.70001,44.5l-26.39996-44.39996,26.20001-45h51.99994l26.20001,45-26.20001,44.39996h-51.79999Z"/><path class="cls-1" d="m436.76001,462.15997l11.18353-19.09998,24.41644-41.70001-35.59998-61.20001h-70.40002l-35.29999,61.20001,24.21069,41.70001,11.08929,19.09998h70.40002Zm-9.29999-105.79999l26.09998,45-24.51282,41.70001-1.58716,2.70001h-51.60004l-1.58716-2.70001-24.51282-41.70001,26.09998-45h51.60004Z"/><path class="cls-1" d="m667.56,340.15997h-70.70001l-35.40002,61.20001,24.2793,41.70001,11.12073,19.09998h70.70001l11.21497-19.09998,24.48505-41.70001-35.70001-61.20001Zm-9.29999,105.60004h-51.79999l-1.59326-2.70001-24.60675-41.70001,26.20001-45h51.79999l26.20001,45-24.60675,41.70001-1.59326,2.70001Z"/></svg>