<svg xmlns="http://www.w3.org/2000/svg" role="img" viewBox="-0.72 0.28 362.44 361.44"><defs><style>.cls-2{fill:#fff}</style></defs><path fill="none" d="M53.76582 297.89631a6.20633 6.20633 0 0 0-6.10724-5.43555q-7.02.00448-14.03992.00079l-.00006.08338c-4.64642 0-9.293-.01606-13.93933.00476a6.427 6.427 0 0 0-6.64527 6.81817c.25312 4.31287.16016 8.64575.22718 12.96985.07415 4.78485.11352 9.57092.25628 14.35382a6.0921 6.0921 0 0 0 5.547 6.22705 24.39607 24.39607 0 0 0 3.38153.04334c4.75318.00226 9.50659.02771 14.25958-.00739 3.89875-.02881 7.798.12238 11.69709-.1333a6.34015 6.34015 0 0 0 5.89093-6.32654c-.198-6.90936-.1933-13.82421-.31708-20.736a72.17331 72.17331 0 0 0-.21069-7.86238zM127.118 169.67524a16.48774 16.48774 0 0 0 5.15887 8.36358c7.67218 7.38928 17.08454 10.2226 27.49262 10.32056a7.78252 7.78252 0 0 0 7.6831-4.80475 20.43975 20.43975 0 0 0 2.11731-9.10065 30.92292 30.92292 0 0 0-1.51648-9.17053 30.15139 30.15139 0 0 0-15.73523-19.33154 10.905 10.905 0 0 0-5.62054-1.27027 15.89923 15.89923 0 0 0-8.14478 3.02869 28.55991 28.55991 0 0 0-11.151 15.57373 12.39448 12.39448 0 0 0-.28387 6.39118zm13.94549 3.21014a13.1203 13.1203 0 0 1 15.04773-11.54108 2.88546 2.88546 0 0 1 2.35541 2.05066 2.44555 2.44555 0 0 1-.94385 2.72742c-.21173.18823-.40924.39337-.60492.59875-1.5794 1.65784-1.74035 3.49921-.45416 5.16327 1.50971 1.95325 3.35022 2.38288 5.41168 1.24939.37079-.20385.71363-.45843 1.0705-.68792 1.78748-1.14954 3.41486-.48774 3.72949 1.65185a10.48219 10.48219 0 0 1-2.4 8.52637 11.52824 11.52824 0 0 1-9.54444 4.50238c-2.31347-.18067-4.54254-.11041-6.63733-1.13306a13.24129 13.24129 0 0 1-7.03012-13.10803zM97.49274 309.94483c-1.31829-2.59937-3.65722-3.29321-6.30688-3.30554-5.9231-.02759-11.84637-.012-17.76959-.00605-1.24121.00122-1.393.16516-1.39417 1.43073q-.00567 6.0119-.0014 12.02374c.00006 4.11432.0155 8.22876-.01233 12.3429-.00592.87439.313 1.18628 1.1864 1.18322 6.48981-.02276 12.97986.00586 19.46967-.02056a5.44563 5.44563 0 0 0 5.38714-5.347c.03107-5.35315.00672-10.70673.01111-16.06012a4.88057 4.88057 0 0 0-.56995-2.24132zm94.36731-121.79535a22.932 22.932 0 0 0 4.15827.05591 53.25006 53.25006 0 0 0 5.7984-.3664 36.52687 36.52687 0 0 0 21.228-11.28589 13.22289 13.22289 0 0 0 3.376-13.04675 27.28668 27.28668 0 0 0-13.257-17.02869 11.61728 11.61728 0 0 0-6.60621-1.6 17.06139 17.06139 0 0 0-10.85626 4.73761 37.19845 37.19845 0 0 0-10.61279 18.03046 22.74155 22.74155 0 0 0 1.54944 16.28735 6.92873 6.92873 0 0 0 5.22215 4.2164zm-1.41552-23.19605a12.90872 12.90872 0 0 1 11.32617-3.55719 2.59337 2.59337 0 0 1 1.66595 4.39392c-.37866.46711-.82806.87635-1.21533 1.337a3.5101 3.5101 0 0 0-.24078 4.50317 3.99508 3.99508 0 0 0 4.42071 1.97321 12.754 12.754 0 0 0 2.41095-1.08148c2.30347-1.13452 4.05164-.04724 4.07917 2.518.06488 6.04651-5.63776 11.90522-11.696 12.01337-.53186.00946-1.06409.00122-1.80182.00122-3.33209-.06366-6.62427-.79852-9.15039-3.52551a12.86139 12.86139 0 0 1-3.11664-7.41882c-.51616-4.17001.04829-8.14004 3.31801-11.15689zm98.69 150.77466a9.10131 9.10131 0 0 0-1.99371-.26819q-15.52689-.06883-31.0539-.09729c-1.24017-.00293-1.39264.1612-1.39392 1.43262q-.0075 7.4979-.00061 14.99579c.001 1.38757.11945 1.5061 1.52582 1.50732q7.65839.00651 15.31677.00171c3.97107 0 7.94251.036 11.9129-.01452a23.87129 23.87129 0 0 0 6.33545-.50464 3.59065 3.59065 0 0 0 3.01044-3.81452c.03656-2.87054.03784-5.7417.03705-8.61261-.00073-2.75176-.99219-3.99871-3.69629-4.62567zM203.39442 89.22852c.23633.78564.47363 1.57129.68847 2.36279.92676 3.40967 1.73536 7.46289.70606 11.67725l-.27362 1.12042a39.3947 39.3947 0 0 0 3.16589 8.48663c1.25958 2.35407 2.03192 2.47321 4.03656.76777a52.88169 52.88169 0 0 0 8.94977-10.48963 144.68352 144.68352 0 0 0 16.18335-30.82764 117.629 117.629 0 0 0 7.08447-28.42437 28.72669 28.72669 0 0 0-2.58349-16.56635 16.66591 16.66591 0 0 0-16.79059-8.87616 13.24216 13.24216 0 0 0-7.33881 3.82794c-3.64685 3.34211-5.825 7.63514-7.73859 12.0915a84.46719 84.46719 0 0 0-5.77453 21.95422c-.61084 4.42255-1.1272 8.85352-1.32385 13.32165-.13074 2.971-.49549 5.94288-.35 8.91187.11426 2.33221.07306 4.67291.32886 7.00189a8.615 8.615 0 0 1 .09308 1.80939l.35492-.00806zm-52.80469 10.5918l-.166-1.61768c-.07617-.69189-.15039-1.38379-.19433-2.07764a40.89189 40.89189 0 0 1 1.58008-13.30566l.45019-1.667.26019.25952.0033-.02667a31.02316 31.02316 0 0 0-.00378-6.46985c-.18976-1.83264-.10468-3.67731-.22254-5.51923a160.13 160.13 0 0 0-2.33789-18.97821 74.06716 74.06716 0 0 0-6.62048-20.0293 26.92513 26.92513 0 0 0-7.53986-9.49224 12.32668 12.32668 0 0 0-9.94464-2.372c-6.61468 1.10028-11.221 4.73858-13.55127 11.16491A28.43065 28.43065 0 0 0 110.487 40.631a76.70063 76.70063 0 0 0 1.83892 13.039 129.92221 129.92221 0 0 0 8.45308 25.83934 140.95559 140.95559 0 0 0 16.29755 27.85175 40.1083 40.1083 0 0 0 6.26995 6.63189c1.49933 1.24268 2.33258 1.14618 3.30976-.5451a38.31228 38.31228 0 0 0 3.89892-10.76093c.13825-.60174.24787-1.21081.37555-1.81567q-.13092-.5115-.24615-1.0296zM255.68452 308.983c5.14435-.02173 10.28888-.01142 15.43329-.01142v-.06665c5.03772 0 10.0755.00781 15.11322-.00268 3.55474-.00745 5.24255-1.69428 5.36865-5.23438.072-2.02185.03845-4.04034-.01532-6.05969a4.13 4.13 0 0 0-2.70593-3.96039 8.31266 8.31266 0 0 0-3.20734-.67194c-9.89874-.019-19.79749-.01709-29.69617-.053-.99267-.00361-1.30169.38964-1.29455 1.326q.05209 6.86472.03131 13.73c-.00214.72815.22217 1.0073.97284 1.00415z"/><path d="M186.702 269.708a31.68363 31.68363 0 0 0 17.86133-11.67187l.2793-.34961c-1.66016 1.15527-3.25879 2.1875-4.83106 3.12011a38.82317 38.82317 0 0 1-28.98144 4.86915 75.33744 75.33744 0 0 1-19.8457-7.86915 42.54728 42.54728 0 0 0 16.78418 10.75586A32.11782 32.11782 0 0 0 186.702 269.708zm-56.64138-151.77532c.85107 1.5033.726 2.06317-.43036 3.16516a46.58877 46.58877 0 0 0-12.88123 21.037c-1.80963 6.22388-1.51416 12.541-.95209 18.88263q.7555 8.5242 1.41822 17.05652c.28705 3.70862.33288 7.44214.7644 11.132.81152 6.9389 1.28949 13.90027 1.76654 20.86444a78.86324 78.86324 0 0 0 1.851 14.41986c1.63129 6.32385 4.17249 12.32226 6.6164 18.35321.91125 2.24872 1.879 4.48285 2.88525 6.83435l.25757-.31457a3.99935 3.99935 0 0 0 .64844-2.05567c.03711-.2666.07519-.53223.12305-.793a52.73157 52.73157 0 0 1 8.27734-19.77051 79.65517 79.65517 0 0 1 12.00685-14.0439 44.85406 44.85406 0 0 1 12.42285-8.46973 27.39213 27.39213 0 0 1 14.01562-2.18847 39.14208 39.14208 0 0 1 16.25684 5.6582 66.44864 66.44864 0 0 1 17.52636 15.04394 63.47376 63.47376 0 0 1 10.167 16.62012c.02734.07031.05273.14453.07617.22168l.0733.00409a99.09788 99.09788 0 0 0 6.41895-20.41c1.23163-6.86743 2.26916-13.76966 3.39721-20.65576 1.11078-6.78052 2.25776-13.55475 3.21015-20.36091q1.57626-11.26556 2.92346-22.56a51.44849 51.44849 0 0 0-.12787-15.982c-1.6029-8.33087-5.24212-15.44354-12.07507-20.71753-1.40485-1.08435-1.514-1.79724-.5788-3.37274a224.69836 224.69836 0 0 0 12.535-24.818c5.82389-13.32709 10.94783-26.89222 12.7576-41.45472a59.37455 59.37455 0 0 0-.30468-18.95215 28.121 28.121 0 0 0-22.309-22.51081c-6.52381-1.17126-12.31836.41132-17.0141 5.28034a39.45744 39.45744 0 0 0-8.15021 12.96747c-5.63556 14.118-8.17322 28.92035-9.57721 43.96154-.52875 5.66462-.97784 11.33674-1.45526 17.00617l.045-.01727.291.20361.04394-.019c.11524-.04688.2295-.09229.34375-.12647a12.75037 12.75037 0 0 1 3.3379-.58154l1.44042-.041-.46572 1.36374a8.92885 8.92885 0 0 1-.873 1.78711 11.69025 11.69025 0 0 0-1.40821 3.582 8.0463 8.0463 0 0 0 .082 4.12305 1.1863 1.1863 0 0 0 .11328.27295c.02539-.01563.13379-.03076.32422-.09668a2.60406 2.60406 0 0 0 .84277-.52832 6.61593 6.61593 0 0 0 1.96289-3.187 27.99323 27.99323 0 0 0 .8291-8.03711l.0459-6.543 1.90625 5.76562c.16113.48584.36426.99122.57129 1.50831.02142.0534.0423.10839.06372.162-.04553-2.15741-.22589-4.30963-.32019-6.46521-.09448-2.16009.02954-4.315.11255-6.47363.40161-10.444 1.48883-20.7984 4.33124-30.88653 1.84106-6.53418 4.28839-12.851 8.51605-18.27082 2.29992-2.94836 5.13605-5.36664 8.92572-6.15045 4.93774-1.0213 9.41681.38348 13.37512 3.29443 3.71283 2.73047 5.5329 6.735 6.59424 11.09314a35.26661 35.26661 0 0 1 .282 13.57819 123.23563 123.23563 0 0 1-8.37018 30.03412 141.24435 141.24435 0 0 1-17.2995 30.63782 44.51834 44.51834 0 0 1-6.63269 7.161c-1.744 1.48474-2.76214 1.36267-3.89044-.61792a36.59178 36.59178 0 0 1-3.52179-9.256l-.16876-.07166c-.06641.13281-.13086.29395-.20606.48633a5.38582 5.38582 0 0 1-.48828 1.01513.64744.64744 0 0 0 .02051.82471c2.00586 3.38428 1.98731 6.981 1.70508 10.05322a38.16862 38.16862 0 0 1-1.67969 7.58008l1.957 5.27149-3.72851-4.46192a1.15463 1.15463 0 0 1-.25782-.88281 26.221 26.221 0 0 0-1.16894-6.0459 8.84152 8.84152 0 0 0-1.37207-2.60547 29.05383 29.05383 0 0 1-1.292 9.03516 73.97876 73.97876 0 0 1-2.77344 7.65137l-.46484 1.15039-.86316-.30414c-.1203.25561-.24012.51141-.36219.7666.03339-.28381.07691-.568.11933-.85217l-.77875-.27436c.82617-2.71582.55664-5.72167-.84668-9.46a27.2407 27.2407 0 0 0-6.69531-9.85742 23.77505 23.77505 0 0 1-.04785 5.752 31.12593 31.12593 0 0 1-5.70118 13.19433 2.0213 2.0213 0 0 1-.97363.86035l-1.62793.64063.27442-1.72852a8.46384 8.46384 0 0 0 .15918-2.06445 40.75929 40.75929 0 0 0-3.53907-12.5459 1.04272 1.04272 0 0 0-.05859-.11621 1.22964 1.22964 0 0 0-.19238.08984 4.32749 4.32749 0 0 0-1.59766 1.67481 13.64972 13.64972 0 0 0-1.52344 4.17969 60.6469 60.6469 0 0 0-1.0791 8.18554c-.15332 2.08887-.15234 4.11426-.12988 5.82031l.01172.916-.21045.02161.00244.00769-.58783.05829q-.00843.92257-.01794 1.84527c-.22461-.59155-.42176-1.18695-.62543-1.78143l-1.04321.10345-.251-.77148a55.76123 55.76123 0 0 1-2.77344-16.76563 18.63865 18.63865 0 0 0-1.05273 7.30664l.08886 1.71875.36524 3.86622-.18848-.46094.02735.5166-2.67868-6.28216c-.34765-.80273-.69531-1.60644-1.01953-2.41894a40.22837 40.22837 0 0 1-2.58691-9.62793 10.40832 10.40832 0 0 1 .15332-4.207.73016.73016 0 0 0 .03809-.2168c-.00586-.001-.042-.04-.13086-.09766a8.138 8.138 0 0 1-2.82715-3.22754 32.6059 32.6059 0 0 1-2.4256-6.24182 39.4567 39.4567 0 0 1-4.17694 12.08966c-1.11438 1.98377-2.12061 2.05756-3.88068.5304-4.63025-4.01758-8.14618-8.93506-11.42645-14.04645a144.06481 144.06481 0 0 1-16.21887-33.9173 113.911 113.911 0 0 1-4.60909-19.78056 47.256 47.256 0 0 1-.56732-7.39209 26.63331 26.63331 0 0 1 3.41186-12.77948c2.53955-4.42493 6.56909-6.84174 11.46356-7.86231 6.81867-1.42181 11.67835 1.79364 15.47437 6.97162 4.00769 5.4668 6.31244 11.76178 8.1192 18.23407a107.82021 107.82021 0 0 1 3.031 16.43634c.56726 4.81451.92248 9.63654 1.10852 14.48328.08349 2.17468.05334 4.33972.00982 6.50573a187.3088 187.3088 0 0 1 .84192-2.22912l2.86231-7.49268-.47461 6.731a46.55449 46.55449 0 0 0 .1875 7.23535 36.526 36.526 0 0 0 .792 5.19385 67.80582 67.80582 0 0 1 3.22558-9.832l.82129-4.26221.24341.89349c-.53741-7.31872-1.17175-14.627-2.41363-21.86987-1.40064-8.16907-2.883-16.32062-5.54181-24.19958a52.33426 52.33426 0 0 0-8.8994-16.80045 18.36985 18.36985 0 0 0-20.45709-6.06c-6.54736 2.05542-12.122 5.48658-15.895 11.39221-4.1759 6.5362-5.4674 13.86017-5.39434 21.43458a88.16182 88.16182 0 0 0 2.89245 19.93609c2.63385 10.84418 6.7301 21.159 11.30487 31.30213 3.947 8.75111 8.41374 17.23445 13.14116 25.58467zm55.02789 49.71308a37.19845 37.19845 0 0 1 10.61279-18.03046 17.06139 17.06139 0 0 1 10.85626-4.73761 11.61728 11.61728 0 0 1 6.60621 1.6 27.28668 27.28668 0 0 1 13.257 17.02869 13.22289 13.22289 0 0 1-3.376 13.04675 36.52687 36.52687 0 0 1-21.228 11.28589 53.25006 53.25006 0 0 1-5.7984.3664 22.932 22.932 0 0 1-4.15827-.05591 6.92873 6.92873 0 0 1-5.2221-4.21637 22.74155 22.74155 0 0 1-1.54949-16.28738zm-46.53565-19.93543a15.89923 15.89923 0 0 1 8.14478-3.02869 10.905 10.905 0 0 1 5.62054 1.27027 30.15139 30.15139 0 0 1 15.73523 19.33154 30.92292 30.92292 0 0 1 1.51648 9.17053 20.43975 20.43975 0 0 1-2.11731 9.10065 7.78252 7.78252 0 0 1-7.6831 4.80475c-10.40808-.098-19.82044-2.93128-27.49262-10.32056a16.48774 16.48774 0 0 1-5.15887-8.36358 12.39448 12.39448 0 0 1 .28387-6.39118 28.55991 28.55991 0 0 1 11.151-15.57373z" class="cls-2"/><path d="M222.546 240.56952c1.48614 5.27368 1.76153 10.529-.31018 15.72681a30.8933 30.8933 0 0 1-9.23371 12.15515 40.61323 40.61323 0 0 1-23.88238 9.46008 97.56385 97.56385 0 0 1-11.5705.26471c-8.98321-.42651-17.97326-.93676-26.62781-3.736a28.87752 28.87752 0 0 1-12.72558-7.59253 22.26858 22.26858 0 0 1-5.69153-13.22351 15.43445 15.43445 0 0 0-.37482-3.62707c-.09643.33538-.19293.67083-.36 1.252-.2262-.53339-.44831-1.0517-.67066-1.57129l-.09985.12195.18848.53125a6.71847 6.71847 0 0 1 .2539 2.07617c.01074.44238.02149.88574.06934 1.32422a23.13955 23.13955 0 0 0 5.95215 13.7959c3.26464 3.51953 7.44336 6.01855 13.15136 7.86426 8.415 2.72168 16.80078 3.30468 26.8877 3.78418 1.124.05273 2.24609.07519 3.34863.07519 3.06445 0 5.97852-.17285 8.34082-.34277a41.78686 41.78686 0 0 0 24.4541-9.69141 31.74091 31.74091 0 0 0 9.51953-12.55078c1.95411-4.90137 2.06641-10.25586.34375-16.36816l-.19433-.6875-.3642-.02033c-.13537.32629-.26727.65369-.40417.97943z" class="cls-2"/><path d="M167.63679 269.50574a33.33823 33.33823 0 0 0 19.30029 1.17371 32.89853 32.89853 0 0 0 18.41-12.02088 17.0501 17.0501 0 0 0 2.94892-4.51733 1.16947 1.16947 0 0 0-.79364.37707 86.59536 86.59536 0 0 1-8.00074 5.42841 37.6446 37.6446 0 0 1-28.25562 4.75238 75.6879 75.6879 0 0 1-20.12256-8.06561c-1.25427-.69013-2.501-1.39386-3.81183-2.12519a.961.961 0 0 0 .34113.76551 43.36657 43.36657 0 0 0 19.98405 14.23193zm3.39337-3.82995a38.82317 38.82317 0 0 0 28.98144-4.86915c1.57227-.93261 3.1709-1.96484 4.83106-3.12011l-.2793.34961A31.68363 31.68363 0 0 1 186.702 269.708a32.11782 32.11782 0 0 1-18.73339-1.14551 42.54728 42.54728 0 0 1-16.78418-10.75586 75.33744 75.33744 0 0 0 19.84573 7.86916zm51.77051-26.31153a63.47376 63.47376 0 0 0-10.167-16.62012 66.44864 66.44864 0 0 0-17.52636-15.04394 39.14208 39.14208 0 0 0-16.25684-5.6582 27.39213 27.39213 0 0 0-14.01562 2.18847 44.85406 44.85406 0 0 0-12.42285 8.46973 79.65517 79.65517 0 0 0-12.00684 14.04394 52.73157 52.73157 0 0 0-8.27734 19.77051c-.04786.26074-.08594.52637-.12305.793a3.99935 3.99935 0 0 1-.64844 2.05567l-.25757.31457c.22235.51959.44446 1.0379.67066 1.57129.16711-.58118.26361-.91663.36-1.252a86.55459 86.55459 0 0 1 2.579-10.353 59.72544 59.72544 0 0 1 9.64838-17.12573c4.43109-5.55457 9.26825-10.71082 15.24994-14.65375a29.92306 29.92306 0 0 1 13.34082-5.10767 29.36034 29.36034 0 0 1 9.78558.64661c7.1894 1.67517 13.3913 5.28711 19.10877 9.7868a68.0322 68.0322 0 0 1 19.27929 24.08136c.52265 1.076.952 2.19739 1.42469 3.29767.1369-.32574.2688-.65314.40417-.97943l-.0733-.00409c-.02336-.07716-.04876-.15138-.07609-.22169z" class="cls-2"/><path d="M138.19581 266.84772a28.87752 28.87752 0 0 0 12.72558 7.59253c8.65455 2.79926 17.6446 3.30951 26.62781 3.736a97.56385 97.56385 0 0 0 11.5705-.26471 40.61323 40.61323 0 0 0 23.88238-9.46008 30.8933 30.8933 0 0 0 9.23371-12.15515c2.07171-5.19782 1.79632-10.45313.31018-15.72681v-.00006c-.527-.02948-.544-.50848-.67389-.8327a62.62 62.62 0 0 0-10.01148-16.359 65.14539 65.14539 0 0 0-17.26446-14.81738 38.37607 38.37607 0 0 0-15.84491-5.52368 26.30831 26.30831 0 0 0-13.51013 2.10742 43.92187 43.92187 0 0 0-12.1463 8.28668 78.17094 78.17094 0 0 0-11.85627 13.86722 52.1108 52.1108 0 0 0-8.127 19.3988c-.2085 1.12006-.19452 2.3393-.98206 3.3003a15.43445 15.43445 0 0 1 .37482 3.62707 22.26858 22.26858 0 0 0 5.69152 13.22355zm-4.2096-19.26373c.03223-.23731.06543-.47266.1084-.7041a50.76432 50.76432 0 0 1 7.97656-19.02832 77.69645 77.69645 0 0 1 11.70606-13.69043 42.89941 42.89941 0 0 1 11.87012-8.10254 25.39226 25.39226 0 0 1 13.0039-2.02637 37.16739 37.16739 0 0 1 15.43457 5.38867 64.43785 64.43785 0 0 1 17.001 14.59082 61.504 61.504 0 0 1 9.85645 16.09668c.01562.03809.02734.08106.04.124a1.90782 1.90782 0 0 0 .73438 1.09863c1.458 5.4668 1.32226 10.24609-.41016 14.59473a29.79587 29.79587 0 0 1-8.94922 11.75976 39.837 39.837 0 0 1-23.30957 9.22852 97.66641 97.66641 0 0 1-11.45117.26367c-9.93652-.47168-18.1875-1.043-26.36816-3.68848-5.36914-1.73633-9.27735-4.06347-12.29981-7.32226a21.21425 21.21425 0 0 1-5.43066-12.65039c-.041-.38282-.04883-.76856-.05762-1.1543a9.865 9.865 0 0 0-.21582-2.18555 6.49592 6.49592 0 0 0 .76075-2.59273z" class="cls-2"/><path d="M167.30457 270.44922a36.18329 36.18329 0 0 0 12.05567 2.13574 33.12071 33.12071 0 0 0 7.8125-.93359 34.05729 34.05729 0 0 0 18.957-12.37109l.34375-.43067a15.9399 15.9399 0 0 0 2.75879-4.35644l.5-1.334-1.42383-.01757h-.02539a2.0601 2.0601 0 0 0-1.38281.5791 85.47474 85.47474 0 0 1-7.90821 5.36523 36.87107 36.87107 0 0 1-27.53027 4.63672c-6.12891-1.35352-12.43848-3.88477-19.85547-7.96484-.83008-.457-1.65723-.91993-2.501-1.39258l-2.71582-1.51465-.07714 1.61035a1.87649 1.87649 0 0 0 .55664 1.4336 44.5398 44.5398 0 0 0 20.43559 14.55469zm-16.18115-13.81573a75.6879 75.6879 0 0 0 20.12258 8.06561 37.6446 37.6446 0 0 0 28.25561-4.75238 86.59536 86.59536 0 0 0 8.00074-5.42841 1.16947 1.16947 0 0 1 .79364-.37707 17.0501 17.0501 0 0 1-2.94892 4.51733 32.89853 32.89853 0 0 1-18.41 12.02088 33.33823 33.33823 0 0 1-19.30029-1.17371 43.36657 43.36657 0 0 1-19.98407-14.23193.961.961 0 0 1-.34113-.76551c1.31086.73133 2.55757 1.43506 3.81184 2.12519z" class="cls-2"/><path d="M186.539 254.28418a3.35739 3.35739 0 0 0 1.41113.31543 3.74664 3.74664 0 0 0 1.45606-.31054A72.59347 72.59347 0 0 0 201.702 247.877a47.9439 47.9439 0 0 0 4.68946-3.51563 13.84837 13.84837 0 0 0 4.69238-7.54492l.03906-.17285a8.07221 8.07221 0 0 0 .04785-4.91211c-1.31543-3.3252-6.18847-6.62891-9.83886-6.66895-.03809 0-.07617-.001-.11426-.001-4.9834 0-8.51074 3.52343-8.792 8.79883a22.48477 22.48477 0 0 1-3.18457 10.37988l-.11914.20605c-.04688.083-.09375.166-.14551.249-.72168 1.1582-1.50879 2.31445-2.27051 3.43261-.459.67383-.918 1.34766-1.36719 2.02735a2.78724 2.78724 0 0 0-.4834 2.35449 2.83536 2.83536 0 0 0 1.68369 1.77443zm-.36627-3.57757c1.21124-1.83161 2.49163-3.61939 3.65222-5.48218.09741-.15637.18286-.31659.27649-.47418a23.35248 23.35248 0 0 0 3.32293-10.83582c.25544-4.79242 3.42951-7.89984 7.89728-7.85162 3.19831.03448 7.74451 3.06665 8.91907 6.03717a7.48387 7.48387 0 0 1-.13275 4.496 12.84745 12.84745 0 0 1-4.36676 7.0058 47.30435 47.30435 0 0 1-4.59308 3.4425 72.54263 72.54263 0 0 1-12.12933 6.3227 2.46359 2.46359 0 0 1-2.06275.00769 1.63779 1.63779 0 0 1-.78337-2.66806zm-33.18261-5.22418c.69727.56054 1.46 1.123 2.39941 1.76953a87.6802 87.6802 0 0 0 11.92872 6.52929 9.45493 9.45493 0 0 0 2.26757.69825 3.29147 3.29147 0 0 0 .62891.06152 3.34768 3.34768 0 0 0 2.60059-1.30566c.74511-.91114.64843-1.98243-.28711-3.18262a7.84631 7.84631 0 0 1-.71192-1.20117 8.24655 8.24655 0 0 0-.97461-1.57227 21.54573 21.54573 0 0 1-2.32226-3.35351 23.3055 23.3055 0 0 1-2.87891-10.38672 8.629 8.629 0 0 0-8.6709-8.47754h-.00879a10.13108 10.13108 0 0 0-7.00976 2.83886 9.56277 9.56277 0 0 0-1.59082 12.64258 21.57794 21.57794 0 0 0 4.62988 4.93946zm-2.363-16.84583a9.15592 9.15592 0 0 1 6.34113-2.57526 7.65832 7.65832 0 0 1 7.67444 7.53376 24.43748 24.43748 0 0 0 3.00586 10.822 22.64038 22.64038 0 0 0 2.42859 3.50635c.65863.78045.99182 1.88354 1.662 2.74334.42774.54877.86817 1.243.30127 1.93549a2.284 2.284 0 0 1-2.262.89587 8.47639 8.47639 0 0 1-2.02807-.618 86.15993 86.15993 0 0 1-11.7931-6.45105c-.79589-.54864-1.58142-1.11511-2.34137-1.72552a20.63762 20.63762 0 0 1-4.41955-4.71 8.54162 8.54162 0 0 1 1.43082-11.35698z" class="cls-2"/><path d="M141.23853 227.298a78.17094 78.17094 0 0 1 11.85627-13.86725 43.92187 43.92187 0 0 1 12.1463-8.28668 26.30831 26.30831 0 0 1 13.51013-2.10742 38.37607 38.37607 0 0 1 15.84491 5.52368 65.14539 65.14539 0 0 1 17.26446 14.81738 62.62 62.62 0 0 1 10.01148 16.359c.12994.32422.14685.80322.67389.8327-.47266-1.10028-.902-2.22162-1.42469-3.29767a68.0322 68.0322 0 0 0-19.27928-24.08131c-5.71747-4.49969-11.91937-8.11163-19.10877-9.7868a29.36034 29.36034 0 0 0-9.78558-.64661 29.92306 29.92306 0 0 0-13.34082 5.10767c-5.98169 3.94293-10.81885 9.09918-15.24994 14.65375a59.72544 59.72544 0 0 0-9.64838 17.12573 86.55459 86.55459 0 0 0-2.579 10.353c.78754-.961.77356-2.18024.98206-3.3003a52.1108 52.1108 0 0 1 8.12696-19.39887zm60.86463-138.89523a.93357.93357 0 0 1 .5.64753c1.08038 3.51288 2.10315 7.04443 1.94745 10.77093-.0456 1.09143.0769 2.27161-.73212 3.21033.57.23517.5509.81573.67718 1.28845.00617.02313.01343.04584.01966.069l.27362-1.12042c1.0293-4.21436.2207-8.26758-.70606-11.67725-.21484-.7915-.45214-1.57715-.68847-2.36279l-.582-1.85889-.35492.00806a2.85219 2.85219 0 0 1-.28235 1.00653.665.665 0 0 1-.07184.00134l-.00012.017zm-50.2937-5.58343a40.89189 40.89189 0 0 0-1.58008 13.30566c.04394.69385.11816 1.38575.19433 2.07764l.166 1.61768.09485.02136c-.04657-.20844-.10565-.41156-.14856-.62146l-.01758-.12207-.11816-1.36231.63488.13886c-.04937-.34992-.05261-.70911-.07-1.05444a39.18156 39.18156 0 0 1 1.17834-12.4759c.127-.46093.17169-.97033.62012-1.27581-.46906-.49158-.30634-1.09345-.24378-1.65668l-.26019-.25952zm31.35278-.27222l.00012.00006a1.997 1.997 0 0 1 1.3808.54523c-.17566-.28564-.33594-.578-.52277-.85852l-2.22558-3.34326.28381 2.84711c.03693.01428.07446.02563.11133.04016a1.90465 1.90465 0 0 1 .97229.76922zm5.96276 7.92774a10.83627 10.83627 0 0 1 3.383-2.35779h.00007c.03131-.36865.06115-.73743.09222-1.10614l-.45007.17218a10.84455 10.84455 0 0 0-3.356 2.24634c.0321.12134.07043.23889.09894.36236.05399.23419.01926.50165.23184.68305zM161.46192 80.2782l-.00006.00012.00006-.00006a63.51319 63.51319 0 0 1 .43646 7.244 21.08186 21.08186 0 0 0 2.21393 5.51709c1.23773-3.30212 2.25287-6.47467 1.33509-10.06286 1.18158.745 1.74566 1.84942 2.621 2.64294.21057-.2663.43194-.51312.65393-.75879a9.09646 9.09646 0 0 1-.80548-.89044 8.10862 8.10862 0 0 0-1.93653-1.83936l-2.125-1.33984.62305 2.43359a12.6908 12.6908 0 0 1-.5293 7.27393 20.92558 20.92558 0 0 1-1.081-3.2207l-.043-.17139-.09961-.14649a4.59456 4.59456 0 0 1-.55762-2.312c-.02636-.35791-.05468-.71484-.10351-1.06494a4.47118 4.47118 0 0 1 .09375-2.1167 1.63773 1.63773 0 0 0 .05371-.99219l-.88843-3.26129q.0541.73728.1084 1.47443c.03797.52833.02137 1.06056.03016 1.59095z" class="cls-2"/><path d="M202.10316 88.40259l.00012-.017-.0072.00019.00708.017zm-9.78589 34.75409a30.16287 30.16287 0 0 0-8.078-11.43652c-.04218-.03876-.127-.03107-.31574-.07172 1.54041 8.20819-1.57245 15.001-6.24945 21.37079a.55171.55171 0 0 1-.23706-.6651c.62421-4.44824-.89813-8.50208-2.30847-12.57324-.30091-.86859-.732-1.69263-1.02216-2.56409-.30145-.90558-.75537-.85193-1.43341-.409a6.4004 6.4004 0 0 0-2.33655 3.08869 31.43193 31.43193 0 0 0-1.82861 8.34826 75.17234 75.17234 0 0 0-.45117 8.10187c.06628.21942.12317.44019.19226.65924l.36963 1.173.21045-.02161-.01172-.916c-.02246-1.70605-.02344-3.73144.12988-5.82031a60.6469 60.6469 0 0 1 1.0791-8.18554 13.64972 13.64972 0 0 1 1.52344-4.17969 4.32749 4.32749 0 0 1 1.59766-1.67481 1.22964 1.22964 0 0 1 .19238-.08984 1.04272 1.04272 0 0 1 .05859.11621 40.75929 40.75929 0 0 1 3.53907 12.5459 8.46384 8.46384 0 0 1-.15918 2.06445l-.27442 1.72852 1.62793-.64063a2.0213 2.0213 0 0 0 .97363-.86035 31.12593 31.12593 0 0 0 5.70118-13.19433 23.77505 23.77505 0 0 0 .04785-5.752 27.2407 27.2407 0 0 1 6.69531 9.85742c1.40332 3.73829 1.67285 6.74414.84668 9.46l.77875.27436a20.58471 20.58471 0 0 0 .37512-3.74457 18.65222 18.65222 0 0 0-1.23297-5.98936zm11.49963-20.12317c-.41107.85413-.80725 1.71594-1.23987 2.559a.95065.95065 0 0 0 .04767 1.06818c1.91284 3.09845 2.0708 6.48944 1.71369 10.00116a37.005 37.005 0 0 1-1.7743 7.69183h-.00009c-.01965.19611-.036.46863-.2619.45728-.278-.014-.12189-.29975-.155-.46753-.49621-3.20093-.69134-6.489-2.71393-9.244a2.2476 2.2476 0 0 0-1.33721-1.06787c.42547 6.85358-1.86561 12.96918-4.678 18.94458l.86316.30414.46484-1.15039a73.97876 73.97876 0 0 0 2.77344-7.65137 29.05383 29.05383 0 0 0 1.292-9.03516 8.84152 8.84152 0 0 1 1.37207 2.60547 26.221 26.221 0 0 1 1.16894 6.0459 1.15463 1.15463 0 0 0 .25782.88281l3.72851 4.46192-1.957-5.27149a38.16862 38.16862 0 0 0 1.67969-7.58008c.28223-3.07226.30078-6.66894-1.70508-10.05322a.64744.64744 0 0 1-.02051-.82471 5.38582 5.38582 0 0 0 .48828-1.01513c.0752-.19238.13965-.35352.20606-.48633l.16876.07166c-.04651-.184-.0954-.36719-.14038-.55176-.05788-.23719-.16005-.4635-.24166-.69489zm-43.55823-22.45196a67.80582 67.80582 0 0 0-3.22558 9.832 36.526 36.526 0 0 1-.792-5.19385 46.55449 46.55449 0 0 1-.1875-7.23535l.47461-6.731-2.8623 7.49275a187.3088 187.3088 0 0 0-.84192 2.22912q-.02087 1.03931-.0426 2.07929 1.14523-3.00073 2.29059-6.00147c.16907 5.3739.33783 10.69385 2.03155 15.85907a71.2512 71.2512 0 0 1 3.94367-12.4458l.00024.00006q.20729-.0942.41443-.18805l.00006-.00012c-.00879-.53039.00781-1.06262-.03015-1.59094q-.053-.73737-.1084-1.47443l-.24341-.89349z" class="cls-2"/><path d="M192.50819 88.11707a14.98633 14.98633 0 0 1 3.77057-.99878c.26-.04547.635-.16394.78411.09827.13147.23126-.05041.54058-.20422.78668a15.17942 15.17942 0 0 0-2.24329 5.23 9.83332 9.83332 0 0 0 .11725 4.30737c.1897.73181.59381.96662 1.33972.623a6.49021 6.49021 0 0 0 3.29-4.205 23.549 23.549 0 0 0 .82184-6.16162c.08472-1.15283.01526-2.31695.20239-3.52557q.85475 2.0571 1.70948 4.11432l.0072-.00019c.01361-.59515.006-1.18945-.00647-1.78357-.02142-.05365-.0423-.10864-.06372-.162-.207-.51709-.41016-1.02247-.57129-1.50831l-1.90621-5.76567-.0459 6.543a27.99323 27.99323 0 0 1-.8291 8.03711 6.61593 6.61593 0 0 1-1.96289 3.187 2.60406 2.60406 0 0 1-.84277.52832c-.19043.06592-.29883.08105-.32422.09668a1.1863 1.1863 0 0 1-.11328-.27295 8.0463 8.0463 0 0 1-.082-4.12305 11.69025 11.69025 0 0 1 1.40821-3.582 8.92885 8.92885 0 0 0 .873-1.78711l.46582-1.36377-1.44042.041a12.75037 12.75037 0 0 0-3.3379.58154c-.11425.03418-.22851.07959-.34375.12647l-.04394.019-.291-.20361-.045.01727c-.03107.36871-.06091.73749-.09222 1.10614z" class="cls-2"/><path d="M161.21778 81.12476a.64862.64862 0 0 0 .02881-.388 5.70737 5.70737 0 0 0-.02209.12213 60.684 60.684 0 0 0-3.51789 11.23023c-.071.38427-.14111.90338-.56494.92724-.50153.02826-.6001-.533-.71-.92322a36.10384 36.10384 0 0 1-1.18628-6.79028 47.37492 47.37492 0 0 1-.1889-7.389c-.58875 1.54334-1.14863 2.9552-1.65662 4.38678-.11414.32166-.18549.70258-.61389.79242l-.01148-.01257a39.90178 39.90178 0 0 0-1.54687 12.98218c.03955.63183.10577 1.26214.17431 1.89221l.33136.07245a1.51012 1.51012 0 0 1 .76209.4129c-.016-.01605-.02429-.03509-.04138-.0506l-.043-.40381c-.07129-.66113-.14356-1.32275-.18555-1.98584a38.45509 38.45509 0 0 1 1.39258-12.20019 1.6923 1.6923 0 0 0 .4707-.54151c.0459.72217.10157 1.43213.16016 2.12793a36.7592 36.7592 0 0 0 1.2207 6.979l.02735.10107c.10742.40039.4541 1.63428 1.70117 1.54883 1.1875-.06738 1.4082-1.28418 1.49219-1.74463a44.78659 44.78659 0 0 1 1.63281-6.11377 4.95551 4.95551 0 0 0 .64648 1.77149 21.81512 21.81512 0 0 0 2.2774 5.6118l1.05859 1.83155.74316-1.981a21.57432 21.57432 0 0 0 1.752-7.64307c.11523.13135.23535.26172.36133.38867a2.6 2.6 0 0 0 .49023.814c.041.05029.083.1001.12012.15332a30.2029 30.2029 0 0 1 3.18847 5.38477c.22559.52734.44532 1.0581.69825 1.67138l1.62207 3.91162.66308-3.16259a41.7 41.7 0 0 1 2.333-7.65235 31.97829 31.97829 0 0 0 2.7197 8.2564 1.53493 1.53493 0 0 0 1.23339 1.02685 1.4556 1.4556 0 0 0 1.30274-.80175 17.47543 17.47543 0 0 0 3.07422-8.33008c.84863 1.81836 1.55859 3.686 2.22461 5.49805l.68847 1.87548 2.374-3.65576a10.7179 10.7179 0 0 1 2.625-1.92773 2.0228 2.0228 0 0 0 1.22558-.1709 1.48157 1.48157 0 0 1 .15137-.05859c.38281-.11426.73535-.207 1.07129-.27979a13.6486 13.6486 0 0 0-1.56934 4.05762 10.12564 10.12564 0 0 0 .12793 5.12793 2.27136 2.27136 0 0 0 1.10157 1.46972 2.35832 2.35832 0 0 0 1.90234.00684 4.53469 4.53469 0 0 0 1.49707-.90527 8.55027 8.55027 0 0 0 2.56543-4.11524 20.93082 20.93082 0 0 0 .81445-4.76513l.07227.24072c.23144.76806.46289 1.53613.67383 2.31006.82812 3.04736 1.55859 6.63232.78711 10.26367a3.80277 3.80277 0 0 0-.9795 1.58691 3.67579 3.67579 0 0 1-.29687.646 2.62152 2.62152 0 0 0-.02735 2.94287c1.71387 2.89209 1.68653 6.09619 1.43262 8.84912a25.07668 25.07668 0 0 1-.4541 2.90527q-.23145-.94189-.52734-1.86914a10.78517 10.78517 0 0 0-1.67774-3.19922l-.06933-.09277c-.3545-.48437-1.18946-1.61621-2.50293-1.13574a1.91529 1.91529 0 0 0-1.043 2.20312l.01562.21875a27.10423 27.10423 0 0 1-1.21484 8.499c-.28125.99219-.60352 1.9707-.94824 2.93554a23.56709 23.56709 0 0 0-1.22461-4.416 29.28419 29.28419 0 0 0-7.24707-10.66016 3.354 3.354 0 0 1-.22461-.25586 1.96122 1.96122 0 0 0-2.44531-.82812c-1.08106.56445-.82618 1.78027-.7168 2.2998a3.28711 3.28711 0 0 1 .06347.3545 22.30577 22.30577 0 0 1-.02246 5.38085 27.26021 27.26021 0 0 1-3.98242 10.249 43.76954 43.76954 0 0 0-3.61523-12.38379 2.10206 2.10206 0 0 0-1.23535-1.24317 2.2074 2.2074 0 0 0-1.82129.26661 6.25452 6.25452 0 0 0-2.35059 2.41015 15.82509 15.82509 0 0 0-1.75586 4.77735 62.53673 62.53673 0 0 0-1.11621 8.4541c-.01605.21814-.03107.43628-.04346.65442.25983 1.20538.56708 2.40545.90894 3.60138.0036-1.39264.02832-2.78577.13116-4.183a61.85816 61.85816 0 0 1 1.09833-8.31946 14.82544 14.82544 0 0 1 1.63947-4.47857 5.31688 5.31688 0 0 1 1.97363-2.04285c.75922-.422 1.31085-.28668 1.65411.50281a41.98 41.98 0 0 1 3.61792 12.851 9.286 9.286 0 0 1-.16729 2.31458 1.09506 1.09506 0 0 0 .51776-.50135 30.51309 30.51309 0 0 0 5.53448-12.77575 23.18855 23.18855 0 0 0 .03052-5.62329c-.05182-.57856-.428-1.393.11975-1.67865.65729-.34265 1.07666.49 1.50836.91247a28.43636 28.43636 0 0 1 7.00971 10.29676c1.24878 3.32824 1.88537 6.75134.86657 10.10192a86.80274 86.80274 0 0 0 3.20441-8.70037 28.1981 28.1981 0 0 0 1.2525-8.80957c-.01959-.51062-.1886-1.23981.372-1.44471.6532-.23877 1.067.40412 1.42646.88684a9.87542 9.87542 0 0 1 1.52722 2.905 26.82166 26.82166 0 0 1 1.21685 6.34723c.01111.07849-.03881.16754.0257.245a.67493.67493 0 0 1-.00348-.295 37.52649 37.52649 0 0 0 1.69061-7.54541c.3031-3.288.17615-6.50744-1.56872-9.45025a1.63325 1.63325 0 0 1 .00372-1.88471c.45654-.69623.50366-1.63165 1.25806-2.15381.02106.00721.03949.01593.05914.02405.92755-3.79828.29926-7.50116-.69983-11.17737-.31433-1.15686-.675-2.30114-1.01446-3.451l-.00708-.017c-.41547.00933-.51648-.35578-.62659-.64606-.32581-.85919-.69568-1.70239-.95734-2.494a30.3563 30.3563 0 0 1-.87579 8.79242 7.59233 7.59233 0 0 1-2.26483 3.65131 3.58627 3.58627 0 0 1-1.16986.71661c-.921.31958-1.43128.10992-1.71991-.827a9.11014 9.11014 0 0 1-.1051-4.62506 12.61781 12.61781 0 0 1 1.50384-3.84539 8.16035 8.16035 0 0 0 .80969-1.6391 11.62677 11.62677 0 0 0-3.08007.5404c-.35413.10565-.70545.38477-1.10193.10718h-.00013a10.83627 10.83627 0 0 0-3.383 2.35779c-.41767.64319-.83539 1.28631-1.35492 2.08618a45.66656 45.66656 0 0 0-4.58161-9.77313 27.39255 27.39255 0 0 1 .44263 4.22863 16.48651 16.48651 0 0 1-2.93732 8.177c-.43255.66656-.61621.24316-.82544-.17426a32.27592 32.27592 0 0 1-2.85-9.27978c-.08954-.53894-.17914-1.07782-.2962-1.78229a40.73856 40.73856 0 0 0-3.7566 10.7464c-.434-1.04444-.75146-1.83045-1.08587-2.60919a30.8885 30.8885 0 0 0-3.29-5.56763c-.20062-.28412-.48834-.52454-.52124-.90729v-.00006c-.87537-.79352-1.43945-1.89795-2.621-2.64294.91778 3.58819-.09736 6.76074-1.33509 10.06286a21.08186 21.08186 0 0 1-2.21393-5.51709c-.78442-1.15295-.645-2.52167-.8244-3.80078a5.37975 5.37975 0 0 1 .14374-2.59668zm6.63757 58.38904c-.00854-.41669-.01422-.83283-.02124-1.24921l-.2387.02368a4.36233 4.36233 0 0 1 .25994 1.22553z" class="cls-2"/><path d="M152.786 83.09308c.4284-.08984.49975-.47076.61389-.79242.508-1.43158 1.06787-2.84344 1.65662-4.38678a47.37492 47.37492 0 0 0 .1889 7.389 36.10384 36.10384 0 0 0 1.18628 6.79028c.10992.39026.20849.95148.71.92322.42383-.02386.494-.543.56494-.92724a60.684 60.684 0 0 1 3.51789-11.23023 5.64562 5.64562 0 0 1 .02209-.12213.468.468 0 0 0-.19946-.2702l.0003-.00019-.00024-.00006a71.2512 71.2512 0 0 0-3.94367 12.4458C155.4098 87.74689 155.241 82.42694 155.072 77.053q-1.14532 3.00074-2.29059 6.00147l-.0069.026zm-1.75584 16.82636l-.34558-.07776q.11581.5179.24615 1.0296c.046-.218.1-.43426.153-.65057-.00305-.01441-.00763-.02906-.01062-.04346-.01756-.08057-.03026-.16797-.04295-.25781zm6.625 20.66556c-.73926-2.83593-1.57813-6.04882-.92871-9.46093.01562-.08106.0332-.17285-.33008-.44239a9.89489 9.89489 0 0 1-3.05859-3.97216 30.70951 30.70951 0 0 1-2.11573-5.92267c-.04278.23938-.09149.477-.137.71551a32.6059 32.6059 0 0 0 2.4256 6.24182 8.138 8.138 0 0 0 2.82715 3.22754c.08886.05762.125.09668.13086.09766a.73016.73016 0 0 1-.03809.2168 10.40832 10.40832 0 0 0-.15332 4.207 40.22837 40.22837 0 0 0 2.58691 9.62793c.32422.8125.67188 1.61621 1.01953 2.41894l2.67872 6.28223-.02735-.5166.18848.46094-2.834-6.93653a49.04024 49.04024 0 0 1-2.23438-6.24509zm10.37784 17.66l.588-.058-.002-.008-.586.06v.006z" class="cls-2"/><path d="M166.5868 138.3877l-.24609-.78027a56.66386 56.66386 0 0 1-2.64258-18.61817 19.65423 19.65423 0 0 0-1.61133 8.043l.63672 6.73438-.36524-3.86622-.08886-1.71875a18.63865 18.63865 0 0 1 1.05273-7.30664 55.76123 55.76123 0 0 0 2.77344 16.76563l.251.77148 1.04321-.10345-.00116-.00336zm.32129-6.43652l.00146-.02234c-.13818-.6413-.268-1.28351-.38287-1.927.11615.65075.24139 1.30078.38141 1.94934zm-1.10938-19.77832l-1.84961 2.99314c-.01135.00494-.024.01465-.03552.0199a1.46913 1.46913 0 0 1 .60681-.14295 1.24669 1.24669 0 0 1 .52344.11426 1.30415 1.30415 0 0 1 .586.58814 1.554 1.554 0 0 0-.09576-.18091zM151.499 98.99988a2.10845 2.10845 0 0 1-.46381-1.12518l-.63488-.13886.11816 1.36231.01758.12207c.04291.2099.102.413.14856.62146l.34558.07776c.01269.08984.02539.17724.043.25781.003.0144.00757.029.01062.04346a10.73352 10.73352 0 0 1 .36639-1.23108c.0174.00262.03247.00683.0488.01025z" class="cls-2"/><path d="M162.91688 121.12989a16.51235 16.51235 0 0 1 .78125-2.14063 56.66386 56.66386 0 0 0 2.64258 18.61817l.24609.78027.80182-.0824c-.11139-.32513-.23609-.64844-.3421-.97436a54.02116 54.02116 0 0 1-2.56482-21.12323 20.30174 20.30174 0 0 0-3.21112 12.0252c-.49408-1.16034-1.00977-2.312-1.47815-3.48266a39.04485 39.04485 0 0 1-2.52429-9.38843 9.33413 9.33413 0 0 1 .1242-3.80084 1.1178 1.1178 0 0 0-.51147-1.429 7.19464 7.19464 0 0 1-2.48084-2.845 31.92261 31.92261 0 0 1-2.88458-8.26672l-.00012-.00013q-.13486.88706-.29328 1.76673a30.70951 30.70951 0 0 0 2.11573 5.92267 9.89489 9.89489 0 0 0 3.05859 3.97216c.36328.26954.3457.36133.33008.44239-.64942 3.41211.18945 6.625.92871 9.46093a49.04024 49.04024 0 0 0 2.23437 6.24512l2.834 6.93653-.63672-6.73438a16.59208 16.59208 0 0 1 .83007-5.90239zm5.13977 15.21673c-.00409.295-.01056.58985-.01367.885q-.00531.50353-.00977 1.00745l.58533-.06018-.36963-1.173c-.06909-.21908-.12598-.43989-.19226-.65927z" class="cls-2"/><path d="M166.90809 131.95118c-.14-.64856-.26526-1.29859-.38141-1.94935-.032-.17926-.05884-.35894-.089-.53833q-.13853-.82287-.252-1.64758c-.03095-.22558-.06128-.45129-.08936-.67706q-.11207-.90142-.194-1.80438c-.011-.12183-.02594-.24341-.03607-.36518-.05963-.71264-.1023-1.426-.13343-2.13958-.00885-.20319-.01318-.40638-.01971-.60956q-.02619-.81263-.028-1.62561c-.00043-.21418-.00165-.42829.00048-.64246.00727-.72137.024-1.44281.06049-2.164.00586-.12891.02148-.25586.03516-.38379a4.71866 4.71866 0 0 0 .03515-1.041 1.81637 1.81637 0 0 0-.11377-.4806 1.2721 1.2721 0 0 0-.07269-.13732 1.30415 1.30415 0 0 0-.586-.58814 1.24669 1.24669 0 0 0-.52344-.11426 1.46913 1.46913 0 0 0-.60681.14295 1.96146 1.96146 0 0 0-.3092.17346 3.072 3.072 0 0 0-.9502 1.20019 20.91225 20.91225 0 0 0-1.66113 4.02149c-.19727.69238-.39258 1.42773-.55371 2.18945-.31836-.87988-.60938-1.77539-.84863-2.6914-.68653-2.62989-1.46485-5.61133-.89942-8.58008a2.35453 2.35453 0 0 0-1.10254-2.42334 7.98388 7.98388 0 0 1-2.43652-3.2085 27.894 27.894 0 0 1-2.12207-6.10254c-.00977-.04541-.01563-.09375-.02149-.14306-.00677-.05121-.0177-.122-.03192-.20014-.00384-.02136-.008-.03937-.01275-.06225a2.35928 2.35928 0 0 0-.06714-.25135c-.00549-.017-.00867-.03155-.01477-.04876a1.84484 1.84484 0 0 0-.14331-.30787c-.01416-.02447-.03137-.047-.04712-.07122a1.49084 1.49084 0 0 0-.19629-.23975 1.51012 1.51012 0 0 0-.76209-.4129l-.33136-.07245c.038.3493.07691.69849.1117 1.048.51617.116.46234.61023.53754.96918a29.22262 29.22262 0 0 0 2.19335 6.31628 8.99771 8.99771 0 0 0 2.74762 3.59009 1.39637 1.39637 0 0 1 .71674 1.43293c-.59015 3.09771.14124 6.06109.91412 9.02087a54.37517 54.37517 0 0 0 2.46833 6.7937 17.401 17.401 0 0 1 .86389-6.27075 19.96353 19.96353 0 0 1 1.58349-3.82935 2.172 2.172 0 0 1 .63184-.84271c.36182-.24988.60474-.17157.65112.28107a8.35056 8.35056 0 0 1-.075 1.2727 55.33044 55.33044 0 0 0 2.54779 19.56928c.17371-.01807.34815-.03491.52246-.05207-.0072-.57458.00006-1.14929.00153-1.72393-.34186-1.19593-.64911-2.396-.90894-3.60138zm.68691 6.33682l.239-.023v-.005l-.24.024.001.004z" class="cls-2"/><path d="M167.2945 137.30622c.09088.28833.17084.57818.26636.8659.01233.03711.02118.07483.03333.112l.23986-.02459c-.00561-.33509-.01288-.67041-.01709-1.00538-.17431.01716-.34875.034-.52246.05207zm-2.54779-19.56928a8.35056 8.35056 0 0 0 .075-1.2727c-.04638-.45264-.2893-.531-.65112-.28107a2.172 2.172 0 0 0-.63184.84271 19.96353 19.96353 0 0 0-1.58349 3.82935 17.401 17.401 0 0 0-.86389 6.27075 54.37517 54.37517 0 0 1-2.46833-6.7937c-.77288-2.95978-1.50427-5.92316-.91412-9.02087a1.39637 1.39637 0 0 0-.71674-1.43293 8.99771 8.99771 0 0 1-2.74762-3.59009 29.22262 29.22262 0 0 1-2.19335-6.31628c-.0752-.359-.02137-.85321-.53754-.96918l.00177.017-.00006.00018.00012.00013a31.92261 31.92261 0 0 0 2.8845 8.26669 7.19464 7.19464 0 0 0 2.48084 2.845 1.1178 1.1178 0 0 1 .51147 1.429 9.33413 9.33413 0 0 0-.1242 3.80084 39.04485 39.04485 0 0 0 2.52429 9.38843c.46838 1.17065.98407 2.32232 1.47815 3.48266a20.30174 20.30174 0 0 1 3.21112-12.0252 54.02116 54.02116 0 0 0 2.56482 21.12323c.08233-.00879.16552-.01618.248-.02472a55.33044 55.33044 0 0 1-2.54778-19.56923zm28.30908 16.0058c.12207-.25519.24189-.511.36219-.7666l-.24286-.08557c-.04242.28412-.08594.56836-.11933.85217z" class="cls-2"/><path d="M198.096 114.03156a2.2476 2.2476 0 0 1 1.33721 1.06787c2.02259 2.75507 2.21772 6.04309 2.71393 9.244l.41693.01019v.00006h.00006a37.005 37.005 0 0 0 1.7743-7.69183c.35711-3.51172.19915-6.90271-1.71369-10.00116a.95065.95065 0 0 1-.04767-1.06818c.43262-.84308.8288-1.70489 1.23987-2.559l.00055-.00238c-.01965-.00812-.03808-.01684-.05914-.02405-.7544.52216-.80152 1.45758-1.25806 2.15381a1.63325 1.63325 0 0 0-.00372 1.88471c1.74487 2.94281 1.87182 6.16229 1.56872 9.45025a37.52649 37.52649 0 0 1-1.69061 7.54541.67493.67493 0 0 0 .00348.295c-.06451-.07746-.01459-.16651-.0257-.245a26.82166 26.82166 0 0 0-1.21685-6.34723 9.87542 9.87542 0 0 0-1.52722-2.905c-.35944-.48272-.77326-1.12561-1.42646-.88684-.56061.2049-.3916.93409-.372 1.44471a28.1981 28.1981 0 0 1-1.2525 8.80957 86.80274 86.80274 0 0 1-3.20441 8.70037c1.0188-3.35058.38221-6.77368-.86657-10.10192a28.43636 28.43636 0 0 0-7.00971-10.29676c-.4317-.42248-.85107-1.25512-1.50836-.91247-.54779.28564-.17157 1.10009-.11975 1.67865a23.18855 23.18855 0 0 1-.03052 5.62329 30.51309 30.51309 0 0 1-5.53448 12.77575 1.09506 1.09506 0 0 1-.51776.50135 9.286 9.286 0 0 0 .16729-2.31458 41.98 41.98 0 0 0-3.61792-12.851c-.34326-.78949-.89489-.92481-1.65411-.50281a5.31688 5.31688 0 0 0-1.97363 2.04285 14.82544 14.82544 0 0 0-1.63947 4.47857 61.85816 61.85816 0 0 0-1.09833 8.31946c-.10284 1.39722-.12756 2.79035-.13116 4.183.07788.27234.156.54461.23816.8164a75.17234 75.17234 0 0 1 .45117-8.10187 31.43193 31.43193 0 0 1 1.82861-8.34826 6.4004 6.4004 0 0 1 2.33655-3.08869c.678-.44293 1.132-.49658 1.43341.409.29016.87146.72125 1.6955 1.02216 2.56409 1.41034 4.07116 2.93268 8.125 2.30847 12.57324a.55171.55171 0 0 0 .23706.6651c4.677-6.36975 7.78986-13.1626 6.24945-21.37079.18872.04065.27356.033.31574.07172a30.16287 30.16287 0 0 1 8.078 11.43652 18.65222 18.65222 0 0 1 1.233 5.98932 20.58471 20.58471 0 0 1-.37512 3.74457l.24286.08557c2.81229-5.9754 5.10337-12.091 4.67794-18.94458z" class="cls-2"/><path d="M168.043 137.23157c.00311-.2951.00958-.59.01367-.885-.08215-.27179-.16028-.54406-.23816-.8164-.00147.57464-.00873 1.14935-.00153 1.72393.07536-.00739.1505-.01527.22602-.02253zm-.18765 2.28223a4.36233 4.36233 0 0 0-.25994-1.22553l-.20563.02039c.20367.59448.40082 1.18988.62543 1.78143q.01071-.92294.01794-1.84527l-.199.01977c.00698.41641.01266.83252.0212 1.24921z" class="cls-2"/><path d="M167.594 138.284l-.205.021.001.004.205-.021-.001-.004zm.24-.024v.005l.199-.02v-.006l-.199.021z" class="cls-2"/><path d="M167.2945 137.30622c-.08246.00854-.16565.01593-.248.02472.106.32592.23071.64923.3421.97436l.20557-.02118c-.01215-.03717-.021-.07489-.03333-.112-.0955-.28772-.17546-.57757-.26634-.8659zm.53955.95331l.19916-.02051q.00457-.50364.00977-1.00745c-.0755.00726-.15064.01514-.226.02258.00419.33497.01146.67029.01707 1.00538zm25.77607-50.24964a11.62677 11.62677 0 0 1 3.08007-.5404 8.16035 8.16035 0 0 1-.80969 1.6391 12.61781 12.61781 0 0 0-1.50384 3.84539 9.11014 9.11014 0 0 0 .1051 4.62506c.28863.93689.79889 1.14655 1.71991.827a3.58627 3.58627 0 0 0 1.16986-.71661 7.59233 7.59233 0 0 0 2.26483-3.65131 30.3563 30.3563 0 0 0 .87579-8.79242c.26166.79163.63153 1.63483.95734 2.494.11011.29028.21112.65539.62659.64606l-1.70948-4.11432c-.18713 1.20862-.11767 2.37274-.20239 3.52557a23.549 23.549 0 0 1-.82184 6.16162 6.49021 6.49021 0 0 1-3.29 4.205c-.74591.34363-1.15.10882-1.33972-.623a9.83332 9.83332 0 0 1-.11725-4.30737 15.17942 15.17942 0 0 1 2.24329-5.23c.15381-.2461.33569-.55542.20422-.78668-.1491-.26221-.5241-.14374-.78411-.09827a14.98633 14.98633 0 0 0-3.77057.99878c.39644.27757.74777-.00155 1.10189-.1072zM296.458 312.59809c-.976-.65576-2.08045-1.04132-3.17865-1.64337.12207-.03028.243-.06556.36621-.09015 3.84442-.76831 5.11212-2.20356 5.32159-6.117q.25589-4.77951.06195-9.56518a7.97084 7.97084 0 0 0-4.46033-7.09674 16.13924 16.13924 0 0 0-7.92181-1.674q-18.786-.02508-37.572-.00683c-1.512.00006-1.62433.11029-1.62231 1.64184.00866 6.66962.03161 13.33924.03021 20.00892q-.003 15.00695-.03052 30.01391c-.00165 1.68573.05493 1.74085 1.73987 1.7395q19.47729-.0152 38.95465-.02807a21.94819 21.94819 0 0 0 4.43719-.42121c4.03876-.832 7.6092-3.291 7.75721-8.4942.113-3.96856.07678-7.94385.00506-11.91437-.05102-2.83096-1.62189-4.83053-3.88832-6.35305zm-40.4831-19.67523c9.89868.03588 19.79743.034 29.69617.053a8.31266 8.31266 0 0 1 3.20734.67194 4.13 4.13 0 0 1 2.70593 3.96039c.05377 2.01935.08734 4.03784.01532 6.05969-.1261 3.5401-1.81391 5.22693-5.36865 5.23438-5.03772.01049-10.0755.00268-15.11322.00268v.06665c-5.14441 0-10.28894-.01031-15.43329.01142-.75067.00317-.975-.27594-.97284-1.00416q.02015-6.865-.03131-13.73c-.00712-.93635.3019-1.3296 1.29457-1.32599zm36.81885 36.04351a3.59065 3.59065 0 0 1-3.01044 3.81452 23.87129 23.87129 0 0 1-6.33545.50464c-3.97039.05047-7.94183.01452-11.9129.01452q-7.65839 0-15.31677-.00171c-1.40637-.00122-1.52478-.11975-1.52582-1.50732q-.00567-7.4979.00061-14.99579c.00128-1.27142.15375-1.43555 1.39392-1.43262q15.527.03645 31.0539.09729a9.10131 9.10131 0 0 1 1.99371.26819c2.7041.627 3.69556 1.8739 3.69629 4.62567.00081 2.87091-.00047 5.74207-.03703 8.61261zM60.99366 296.80164a11.82585 11.82585 0 0 0-10.303-10.66888 104.40057 104.40057 0 0 0-10.95-.11847c-7.16162-.00318-14.32367-.05732-21.48724.1098A11.85148 11.85148 0 0 0 6.269 298.13318c-.01007 4.64722-.00189 9.29456-.00189 13.94178q0 7.5575.00134 15.11492a11.88541 11.88541 0 0 0 12.13947 12.2204c5.07318.03546 10.14685.007 15.22027.007v-.03357c3.72467 0 7.44977.03467 11.17383-.01288a35.75738 35.75738 0 0 0 6.78894-.308 11.77645 11.77645 0 0 0 9.51147-11.93109q.01841-10.00561-.005-20.01123c-.01374-3.4396.1375-6.88168-.10377-10.31887zm-12.591 36.01959c-3.89911.25568-7.79834.10449-11.69709.1333-4.753.0351-9.5064.00965-14.25958.00739a24.39607 24.39607 0 0 1-3.38153-.04334 6.0921 6.0921 0 0 1-5.547-6.22705c-.14276-4.7829-.18213-9.569-.25628-14.35382-.067-4.3241.02594-8.657-.22718-12.96985a6.427 6.427 0 0 1 6.64527-6.81817c4.64636-.02082 9.29291-.00476 13.93933-.00476l.00006-.08338q7.02 0 14.03992-.00079a6.20633 6.20633 0 0 1 6.10724 5.43555 72.17331 72.17331 0 0 1 .21069 7.86236c.12378 6.91181.11908 13.82666.31708 20.736a6.34015 6.34015 0 0 1-5.89093 6.32656zm306.27771-13.24011a11.582 11.582 0 0 0-10.28736-10.774 71.91659 71.91659 0 0 0-8.39984-.0993c-6.70343.00189-13.40686.02527-20.11017.00085a6.36815 6.36815 0 0 1-5.0606-2.2926 5.65087 5.65087 0 0 1-1.16578-2.35443 13.85584 13.85584 0 0 1-.16949-5.80335c.59643-3.35363 3.01373-5.30725 6.64941-5.31359q16.2291-.0282 32.45819-.00544c.46082.00006.92176.01239 1.38233.02777.81689.02723 1.147-.38989 1.13354-1.17669-.02313-1.34741-.073-2.69727-.01617-4.04206.04333-1.0252-.34833-1.36248-1.36078-1.35888-12.05988.0423-24.11993.02795-36.17969.08374a11.385 11.385 0 0 0-11.11084 9.45764 42.51927 42.51927 0 0 0-.07928 9.54987 10.34708 10.34708 0 0 0 4.16937 7.361 13.05882 13.05882 0 0 0 8.6142 2.74866c8.69-.05249 17.38043-.02253 26.07074-.01569a5.99022 5.99022 0 0 1 6.202 5.26794 25.985 25.985 0 0 1 .03809 6.898 5.93991 5.93991 0 0 1-5.19672 5.39942 10.40334 10.40334 0 0 1-1.80206.09888q-17.55936.008-35.11871.00647c-1.43872.00054-1.33869-.22242-1.34485 1.38714q-.007 1.86237.00012 3.72473c.00543 1.37665.0769 1.45081 1.441 1.4513q9.4714.00338 18.94281.001v-.03326c6.2785 0 12.55707.01556 18.83545-.0047a11.70161 11.70161 0 0 0 11.35748-9.89026 48.237 48.237 0 0 0 .10761-10.30016zm-111.38013-33.18677c-12.52216.01508-25.04462-.043-37.56635.03113a11.68533 11.68533 0 0 0-12.05462 11.94714c-.12226 9.82392-.02692 19.65046-.025 29.47589a11.99622 11.99622 0 0 0 11.97324 11.96049q9.2049.00376 18.40979.00055 9.52415 0 19.04822-.00073c1.47137-.00037 1.5376-.07049 1.54089-1.5791q.004-1.80909 0-3.61829c-.00317-1.39984-.00506-1.40149-1.428-1.40155q-17.66583-.00074-35.3316-.00079c-4.42645-.00049-6.96466-2.51111-6.97229-6.89911-.0055-3.19183.034-6.38422-.0232-9.575-.01647-.91571.18934-1.19019 1.15613-1.18689 11.13855.03808 22.27729.02435 33.416.02392.31921 0 .63855 0 .95764-.00885.54346-.015.86609-.25622.86468-.84167q-.00585-2.50086-.001-5.00177c.00073-.50794-.19391-.80719-.752-.79181-.38928.01074-.7796-.02209-1.16949-.02173q-16.44123.01466-32.88251.0315c-1.46246.00122-1.60486-.14142-1.60016-1.566q.013-3.99024.03375-7.98041a6.04782 6.04782 0 0 1 5.817-6.25232c1.27075-.09119 2.55212-.04388 3.82861-.04413q16.28238-.00384 32.5647-.00207c1.49805-.00013 1.579-.03669 1.50659-1.56708a34.07677 34.07677 0 0 1 .02-3.82062c.0629-.97214-.38778-1.31186-1.33102-1.3107zm-138.62018 21.64374c-1.33533-4.41071-5.93664-7.57452-11.07672-7.57971q-13.51676-.01365-27.03363-.00214c-1.50751.00018-1.50824.00281-1.5083 1.56738q-.00036 12.77179-.00012 25.54364h-.02149q0 13.09077-.0075 26.18146c-.00123.87311.3858 1.19867 1.22729 1.18457 1.596-.02667 3.19489-.05621 4.78845.01233.818.03522.99781-.22851.99091-1.0108-.03827-4.32788-.00263-8.65637-.03119-12.98438-.0058-.87878.31946-1.18878 1.18671-1.184q8.72552.04817 17.45141.03247a39.52513 39.52513 0 0 0 5.205-.18554 10.69008 10.69008 0 0 0 9.22571-10.13111c.04321-6.27569.011-12.55194.00976-18.828a8.99074 8.99074 0 0 0-.40629-2.61617zm-6.62848 20.20819a5.44563 5.44563 0 0 1-5.38714 5.347c-6.48981.02642-12.97986-.0022-19.46967.02056-.87341.00306-1.19232-.30883-1.1864-1.18322.02783-4.11414.01239-8.22858.01233-12.3429q0-6.01189.0014-12.02374c.00116-1.26557.153-1.42951 1.39417-1.43073 5.92322-.006 11.84649-.02154 17.76959.00605 2.64966.01233 4.98859.70617 6.30688 3.30554a4.88057 4.88057 0 0 1 .57 2.24133c-.00444 5.35338.01991 10.70696-.01116 16.06011zm39.60321-27.58128q-9.884-.41318-19.77386-.04a10.68242 10.68242 0 0 0-10.39087 10.89557q-.02518 9.73764.00091 19.4754a9.65411 9.65411 0 0 0 .43781 3.14277 8.81335 8.81335 0 0 0 8.35846 5.634c2.62445.02881 5.24927.03009 7.8739.03222 6.24347.00513 12.487-.00384 18.73041.01331.81048.0022 1.16888-.28687 1.13348-1.12555-.04486-1.06171-.03308-2.127-.011-3.19006.0337-1.62635-.00994-1.68738-1.6231-1.68756q-12.078-.00147-24.156-.00171c-2.62506-.0011-3.81012-1.20539-3.81335-3.85529-.00183-1.56085.00921-3.12182-.00556-4.68262-.01318-1.38684.09949-1.52191 1.4892-1.52282q7.50284-.00495 15.00568-.00135 7.50275 0 15.00561-.001c1.53388-.00086 1.68891-.15711 1.6828-1.72217-.01422-3.65259-.04645-7.30511-.05346-10.9577a10.49364 10.49364 0 0 0-9.89106-10.40544zm2.95319 15.43451c-.00171 1.3186-.14118 1.4552-1.45264 1.44525q-3.82809-.0292-7.65619-.05548c-1.34735-.00751-2.69488-.00128-4.04229-.00128l-.00007.05536c-3.89947 0-7.79907-.01386-11.69836.00983-.959.00585-1.44153-.259-1.35828-1.34186.09217-1.19855.00776-2.40979.02393-3.61518a5.7203 5.7203 0 0 1 5.81378-5.78216q7.2855-.0249 14.57117-.00165a5.64536 5.64536 0 0 1 5.79346 5.67053c.03295 1.20463.00708 2.41099.00551 3.61662zm49.5058-8.58406a11.53206 11.53206 0 0 0-10.82447-7.05628c-3.90258-.01642-7.80554-.0307-11.70782.0061a78.73 78.73 0 0 0-8.07892.158c-5.02161.56354-9.42865 4.976-9.4715 9.7898-.08392 9.43628-.03772 18.87372-.06488 28.31055-.00244.849.35334 1.11767 1.15735 1.0946 1.453-.04181 2.90815-.0368 4.36188-.01642 1.35657.019 1.48181-.07446 1.4823-1.40234q.00312-8.51487.0022-17.02967c.00238-3.0509-.05384-6.10412.04791-9.15191a5.30492 5.30492 0 0 1 5.111-5.38739 153.90038 153.90038 0 0 1 16.26386-.01251 5.24586 5.24586 0 0 1 5.0462 4.2547 24.05454 24.05454 0 0 1 .24231 5.509c.03949 7.23645-.01636 14.47333-.03137 21.71-.00281 1.34393.19385 1.52966 1.41693 1.51727q2.0744-.02087 4.14917-.00055c1.25641.0141 1.42212-.12554 1.423-1.38342q.00522-7.07794.00141-14.15594c0-3.76068.03235-7.52185-.01386-11.282-.02248-1.83127.16802-3.6865-.5127-5.47159zM169.03016 85.14258l.03418.39063.001-.00049a1.02188 1.02188 0 0 1 .13867.15527c.07031.08643.13965.17334.20312.26319a32.63556 32.63556 0 0 1 3.30274 5.54589 39.88708 39.88708 0 0 1 3.126-8.00244l1.36554-2.61847-.58508-.00048v-.00031a11.66421 11.66421 0 0 0-7.89392 3.98529l.01776.01825zm8.19784-4.26642l.7768 4.69855a31.91494 31.91494 0 0 0 2.37988 8.21045 14.65989 14.65989 0 0 0 2.24707-6.82178 12.25 12.25 0 0 0-.23047-2.57715c-.0791-.498-.1582-.99609-.208-1.499l-.11463-1.14947a12.63671 12.63671 0 0 0-3.59065-.86076v.0003q-.62993-.00069-1.26-.00114z" class="cls-2"/><path d="M168.06843 85.61951a2.14439 2.14439 0 0 1 .62616.56567 29.52239 29.52239 0 0 1 4.19183 7.74891 40.35719 40.35719 0 0 1 3.07532-9.16913.35053.35053 0 0 0 .02136-.05316c.00452-.00666.01178-.01783.02619-.04175.178-.29456.28381-.76355.67614-.72992.4253.0365.40546.52936.45984.85412a43.83721 43.83721 0 0 0 1.37927 6.11145 22.151 22.151 0 0 0 1.41132 3.55085c.29962.57434.57849.549.88977.02942 1.90894-3.18628 3.06647-6.53516 2.29028-10.32319-.09216-.44982-.44647-.92846-.02594-1.4.034.00208.06537.00684.097.01135l-.02478-.227h.00012l-.00012-.00006a1.90465 1.90465 0 0 0-.97229-.76922c-.03687-.01453-.0744-.02588-.11133-.04016l.11463 1.14947c.0498.50293.1289 1.001.208 1.499a12.25 12.25 0 0 1 .23047 2.57715 14.65989 14.65989 0 0 1-2.24707 6.82178 31.91494 31.91494 0 0 1-2.37988-8.21045l-.7768-4.69855h-.02661l-1.36554 2.61847a39.88708 39.88708 0 0 0-3.126 8.00244 32.63556 32.63556 0 0 0-3.30274-5.54589c-.06347-.08985-.13281-.17676-.20312-.26319a1.02188 1.02188 0 0 0-.13867-.15527l-.001.00049-.03418-.39063-.29-.26367-.01776-.01825c-.222.24567-.44336.49249-.65393.75879z" class="cls-2"/><path d="M171.87971 92.09443c.33441.77874.65191 1.56475 1.08587 2.60919a40.73856 40.73856 0 0 1 3.7566-10.7464c.11706.70447.20666 1.24335.2962 1.78229a32.27592 32.27592 0 0 0 2.85 9.27978c.20923.41742.39289.84082.82544.17426a16.48651 16.48651 0 0 0 2.93732-8.177 27.39255 27.39255 0 0 0-.44263-4.22863l-.00146-.01374c-.03168-.00451-.063-.00927-.097-.01135-.42053.4715-.06622.95014.02594 1.4.77619 3.788-.38134 7.13691-2.29028 10.32319-.31128.51959-.59015.54492-.88977-.02942a22.151 22.151 0 0 1-1.41132-3.55085 43.83721 43.83721 0 0 1-1.37927-6.11145c-.05438-.32476-.03454-.81762-.45984-.85412-.39233-.03363-.49811.43536-.67614.72992-.01441.02392-.02167.03509-.02619.04175a.35053.35053 0 0 1-.02136.05316 40.35719 40.35719 0 0 0-3.07532 9.16913 29.52239 29.52239 0 0 0-4.19183-7.74891 2.14439 2.14439 0 0 0-.62616-.56567c.0329.38275.32062.62317.52124.90729a30.8885 30.8885 0 0 1 3.28996 5.56758zm6.57729-24.47382l.0014-.00055c.45887-.17493.92078-.34235 1.3761-.526a5.437 5.437 0 1 0-7.53442-5.2616c-.07593 2.77936 1.26355 4.53052 4.3277 5.65784a4.15557 4.15557 0 0 1 1.82922.13031zm.031 13.25639q-.01473-6.62815-.02948-13.2558l-.00152-.00055a1.719 1.719 0 0 1-1.82922-.13031l-.01154 13.38507a1.7162 1.7162 0 0 1 1.87176.00159z" class="cls-2"/><path d="M177.20136 80.87616l.02021-.03875.0064.03875q.63.00046 1.26007.0011V80.877a1.7162 1.7162 0 0 0-1.87176-.00159v.00031z" class="cls-2"/><path d="M177.20136 80.87616h.02661l-.0064-.03875zm1.25564-13.25555a4.15557 4.15557 0 0 0-1.82922-.13031 1.719 1.719 0 0 0 1.82922.13031zm9.99113 22.11768c.1145-.10523.23114-.20527.34613-.30884a11.57873 11.57873 0 0 0-3.61487-5.7666c-.20953-.18641-.41577-.3891-.63623-.57044a43.61153 43.61153 0 0 1 3.46844 7.26059z" class="cls-2"/><path d="M183.22865 82.70227a.15193.15193 0 0 1-.02771.07355c.66845.10315.8103.73926 1.05218 1.21448a46.96783 46.96783 0 0 1 3.49445 7.88715c.614-.44245.76257-1.17267 1.37744-1.40259-.21259-.1814-.17786-.44886-.23181-.68305-.02851-.12347-.06684-.241-.09894-.36236-.115.10357-.23163.20361-.34613.30884l-.43653.61474a43.61153 43.61153 0 0 0-3.46844-7.26062 1.997 1.997 0 0 0-1.3808-.54523.16228.16228 0 0 1 .06629.15509z" class="cls-2"/><path d="M187.77009 92.561c.51953-.79987.93725-1.443 1.35492-2.08618-.61487.22992-.76349.96014-1.37744 1.40259a46.96783 46.96783 0 0 0-3.49445-7.88715c-.24188-.47522-.38373-1.11133-1.05218-1.21448-.00409.00452-.00794.01209-.01246.01209a45.66656 45.66656 0 0 1 4.58161 9.77313z" class="cls-2"/><path d="M183.22865 82.70227a.16228.16228 0 0 0-.06629-.15509h-.00012l.02478.227.01392.00165a.15193.15193 0 0 0 .02771-.07356z" class="cls-2"/><path d="M183.20094 82.77582l-.01392-.00165.00146.01374c.00452 0 .00837-.00757.01246-.01209zm-21.85376-1.34997a27.43553 27.43553 0 0 0 .5512 6.09643 63.51319 63.51319 0 0 0-.43646-7.244l-.00006.00006a.67187.67187 0 0 0-.179.30829c.24514.2158.06779.57969.06432.83922z" class="cls-2"/><path d="M161.46186 80.27832q-.20718.09395-.41443.18805a.60951.60951 0 0 1 .23541.12024.67187.67187 0 0 1 .17902-.30829zm-.17902.30829c-.01464.049-.02636.09918-.03625.15015a.64862.64862 0 0 1-.02881.388 5.37975 5.37975 0 0 0-.1438 2.59674c.17938 1.27911.04 2.64783.8244 3.80078a27.43553 27.43553 0 0 1-.5512-6.09643c.00347-.25953.18082-.62342-.06434-.83924z" class="cls-2"/><path d="M161.24659 80.73676c.00989-.051.02161-.10114.03625-.15015a.60951.60951 0 0 0-.23541-.12024l-.0003.00019a.468.468 0 0 1 .19946.2702zM150.55518 102.687a38.31228 38.31228 0 0 1-3.89892 10.76093c-.97718 1.69128-1.81043 1.78778-3.30976.5451a40.1083 40.1083 0 0 1-6.26995-6.63189 140.95559 140.95559 0 0 1-16.29755-27.8518A129.92221 129.92221 0 0 1 112.32587 53.67a76.70063 76.70063 0 0 1-1.83887-13.039 28.43065 28.43065 0 0 1 1.81573-10.94172c2.33032-6.42633 6.93659-10.06463 13.55127-11.16491a12.32668 12.32668 0 0 1 9.94464 2.372 26.92513 26.92513 0 0 1 7.53986 9.49224 74.06716 74.06716 0 0 1 6.62048 20.0293 160.13 160.13 0 0 1 2.33789 18.97821c.11786 1.84192.03278 3.68659.22254 5.51923a31.02316 31.02316 0 0 1 .00378 6.46985l-.0033.02667.10114.10083c.06415-.17694.13739-.36035.203-.53748.04352-2.166.07367-4.331-.00982-6.50573-.186-4.84674-.54126-9.66877-1.10852-14.48328a107.82021 107.82021 0 0 0-3.031-16.43634c-1.80676-6.47229-4.11151-12.76727-8.1192-18.23407-3.796-5.178-8.6557-8.39343-15.47437-6.97162-4.89447 1.02057-8.924 3.43738-11.46356 7.86231a26.63331 26.63331 0 0 0-3.41192 12.77951 47.256 47.256 0 0 0 .56732 7.39209 113.911 113.911 0 0 0 4.60913 19.78057 144.06481 144.06481 0 0 0 16.21887 33.9173c3.28027 5.11139 6.7962 10.02887 11.42645 14.04645 1.76007 1.52716 2.7663 1.45337 3.88068-.5304a39.4567 39.4567 0 0 0 4.17694-12.08966c-.05737-.20776-.10071-.42157-.1543-.631-.12768.60479-.2373 1.21386-.37555 1.81565z" class="cls-2"/><path d="M152.51984 81.41187c-.06256.56323-.22528 1.1651.24378 1.65668l.01776-.014q.02005-1.04013.0426-2.07929c-.06561.17713-.13885.36054-.203.53748zm-1.43609 18.80884c-.053.21631-.107.43255-.153.65057.05359.20947.09693.42328.1543.631.04553-.23852.09424-.47613.137-.71551-.04461-.18826-.09863-.37832-.1383-.56606z" class="cls-2"/><path d="M151.45014 98.98963a10.73352 10.73352 0 0 0-.36639 1.23108c.03967.18774.09369.3778.1383.5661q.1572-.8801.29328-1.76673l-.01636-.0202c-.0163-.00342-.03137-.00763-.04883-.01025zm.69336-14.64527a39.18156 39.18156 0 0 0-1.17834 12.4759c.01739.34533.02063.70452.07 1.05444l.36676.0802c-.06854-.63007-.13476-1.26038-.17431-1.89221a39.90178 39.90178 0 0 1 1.54687-12.98218l-.01086-.012c-.44843.30549-.4931.81492-.62012 1.27585zm-.6445 14.65552l.01465.00305c-.03479-.34954-.07373-.69873-.1117-1.048l-.36676-.0802a2.10845 2.10845 0 0 0 .46381 1.12515zm.01462.00305l-.01465-.00305.01636.0202.00006-.00018z" class="cls-2"/><path d="M152.77448 83.08051l.0069-.026-.01776.014zm49.68299 4.29718a8.615 8.615 0 0 0-.09308-1.80939c-.2558-2.329-.2146-4.66968-.32886-7.00189-.14551-2.969.21924-5.94086.35-8.91187.19665-4.46813.713-8.8991 1.32385-13.32165a84.46719 84.46719 0 0 1 5.77453-21.95422c1.91358-4.45636 4.09174-8.74939 7.73859-12.0915a13.24216 13.24216 0 0 1 7.33881-3.82794 16.66591 16.66591 0 0 1 16.79059 8.87616 28.72669 28.72669 0 0 1 2.58349 16.56635 117.629 117.629 0 0 1-7.08447 28.42437 144.68352 144.68352 0 0 1-16.18335 30.82764 52.88169 52.88169 0 0 1-8.94977 10.48963c-2.00464 1.70544-2.777 1.5863-4.03656-.76777a39.3947 39.3947 0 0 1-3.16589-8.48663l-.00568.02313-.31073-.132a36.59178 36.59178 0 0 0 3.52179 9.256c1.1283 1.98059 2.14649 2.10266 3.89044.61792a44.51834 44.51834 0 0 0 6.63269-7.161 141.24435 141.24435 0 0 0 17.2995-30.63782 123.23563 123.23563 0 0 0 8.37018-30.03412 35.26661 35.26661 0 0 0-.282-13.57819c-1.06134-4.35815-2.88141-8.36267-6.59424-11.09314-3.95831-2.91095-8.43738-4.31573-13.37512-3.29443-3.78967.78381-6.6258 3.20209-8.92572 6.15045-4.22766 5.4198-6.675 11.73664-8.51605 18.27082-2.84241 10.08813-3.92963 20.44256-4.33124 30.88653-.083 2.15863-.207 4.31354-.11255 6.47363.0943 2.15558.27466 4.3078.32019 6.46521.10272.25727.20605.51551.30542.77692z" class="cls-2"/><path d="M202.17512 88.38422a2.85219 2.85219 0 0 0 .28235-1.00653l-.05524.00122c-.09937-.26141-.2027-.51965-.30542-.77692.01251.59412.02008 1.18842.00647 1.78357a.665.665 0 0 0 .07184-.00134zm2.34021 16.00478c-.00623-.02313-.01349-.04584-.01966-.069-.12628-.47272-.10717-1.05328-.67718-1.28845l-.00159.002c.08161.23139.18378.4577.24164.69489.045.18457.09387.36773.14038.55176l.31073.132zm-1.91217-15.3387a.93357.93357 0 0 0-.5-.64753c.33947 1.14985.70013 2.29413 1.01446 3.451.99909 3.67621 1.62738 7.37909.69983 11.17737l.001.00043c.809-.93872.68652-2.1189.73212-3.21033.15574-3.72651-.86703-7.25806-1.94741-10.77094z" class="cls-2"/><path d="M203.817 103.034l.001-.002-.001-.001v.003zm-1.6699 21.30945c.03314.16778-.123.45355.155.46753.22589.01135.24225-.26117.2619-.45728a.27268.27268 0 0 1-.4169-.01025z" class="cls-2"/><path d="M202.1471 124.34345a.27268.27268 0 0 0 .41693.01025v-.00006zM187.37489 252.4668a1.46411 1.46411 0 0 0 1.25586-.02148 70.64066 70.64066 0 0 0 11.96386-6.23438 45.9794 45.9794 0 0 0 4.4961-3.36914 11.88518 11.88518 0 0 0 4.042-6.4668l.04-.17382a6.37431 6.37431 0 0 0 .13867-3.73438c-1.00684-2.54492-5.19434-5.37305-8.001-5.4043-.03027 0-.06152-.001-.09179-.001-3.90821 0-6.57129 2.70117-6.79493 6.90527a24.46879 24.46879 0 0 1-3.46289 11.29395l-.09863.17285c-.06152.10742-.12305.21484-.18945.32129-.74219 1.19043-1.541 2.36425-2.31348 3.499-.4541.666-.9082 1.332-1.35254 2.00488a.98185.98185 0 0 0-.22754.7041 1.04006 1.04006 0 0 0 .59576.50396z" class="cls-2"/><path d="M186.956 253.37464a2.46359 2.46359 0 0 0 2.06275-.00769 72.54263 72.54263 0 0 0 12.12933-6.3227 47.30435 47.30435 0 0 0 4.59308-3.4425 12.84745 12.84745 0 0 0 4.36676-7.0058 7.48387 7.48387 0 0 0 .13275-4.496c-1.17456-2.97052-5.72076-6.00269-8.91907-6.03717-4.46777-.04822-7.64184 3.0592-7.89728 7.85162a23.35248 23.35248 0 0 1-3.32293 10.83582c-.09363.15759-.17908.31781-.27649.47418-1.16059 1.86279-2.441 3.65057-3.65222 5.48218a1.63779 1.63779 0 0 0 .78332 2.66806zm.05072-2.11585c.44434-.67285.89844-1.33886 1.35254-2.00488.77246-1.13477 1.57129-2.30859 2.31348-3.499.0664-.10645.12793-.21387.18945-.32129l.09863-.17285a24.46879 24.46879 0 0 0 3.46289-11.29395c.22364-4.2041 2.88672-6.90527 6.79493-6.90527.03027 0 .06152.001.09179.001 2.80664.03125 6.99414 2.85938 8.001 5.4043a6.37431 6.37431 0 0 1-.13867 3.73438l-.04.17382a11.88518 11.88518 0 0 1-4.042 6.4668 45.9794 45.9794 0 0 1-4.4961 3.36914 70.64066 70.64066 0 0 1-11.96386 6.23438 1.46411 1.46411 0 0 1-1.25586.02148 1.04006 1.04006 0 0 1-.59571-.50391.98185.98185 0 0 1 .22749-.70415zm-32.76465-7.33496c.65918.52832 1.38379 1.0625 2.28223 1.68164a86.27151 86.27151 0 0 0 11.65918 6.37305 7.6096 7.6096 0 0 0 1.78809.53809 1.298 1.298 0 0 0 1.29589-.54786c.04395-.08886.03809-.23144-.31738-.6875a9.47571 9.47571 0 0 1-.91016-1.50879 6.63181 6.63181 0 0 0-.72656-1.20312 23.85566 23.85566 0 0 1-2.53613-3.66113 25.24845 25.24845 0 0 1-3.13281-11.25782 6.67659 6.67659 0 0 0-6.67676-6.58886h-.00684a8.194 8.194 0 0 0-5.6582 2.31152 7.52911 7.52911 0 0 0-1.27051 10.07031 19.61317 19.61317 0 0 0 4.20996 4.48047z" class="cls-2"/><path d="M153.616 244.70356c.76.61041 1.54548 1.17688 2.34137 1.72552a86.15993 86.15993 0 0 0 11.7931 6.45105 8.47639 8.47639 0 0 0 2.02807.618 2.284 2.284 0 0 0 2.262-.89587c.5669-.69245.12647-1.38672-.30127-1.93549-.67022-.8598-1.00341-1.96289-1.662-2.74334a22.64038 22.64038 0 0 1-2.42859-3.50635 24.43748 24.43748 0 0 1-3.00586-10.822 7.65832 7.65832 0 0 0-7.67444-7.53376 9.15592 9.15592 0 0 0-6.34113 2.57526 8.54162 8.54162 0 0 0-1.43072 11.35693 20.63762 20.63762 0 0 0 4.41947 4.71005zm-2.31335-15.33051a8.194 8.194 0 0 1 5.6582-2.31152h.00684a6.67659 6.67659 0 0 1 6.67676 6.58886 25.24845 25.24845 0 0 0 3.13281 11.25782 23.85566 23.85566 0 0 0 2.53613 3.66113 6.63181 6.63181 0 0 1 .72656 1.20312 9.47571 9.47571 0 0 0 .91016 1.50879c.35547.45606.36133.59864.31738.6875a1.298 1.298 0 0 1-1.29589.54786 7.6096 7.6096 0 0 1-1.78809-.53809 86.27151 86.27151 0 0 1-11.65918-6.37305c-.89844-.61914-1.62305-1.15332-2.28223-1.68164a19.61317 19.61317 0 0 1-4.21-4.48047 7.52911 7.52911 0 0 1 1.27052-10.07031zm-3.20908-43.37964c2.09479 1.02265 4.32386.95239 6.63733 1.13306a11.52824 11.52824 0 0 0 9.54444-4.50238 10.48219 10.48219 0 0 0 2.4-8.52637c-.31463-2.13959-1.942-2.80139-3.72949-1.65185-.35687.22949-.69971.48407-1.0705.68792-2.06146 1.13349-3.902.70386-5.41168-1.24939-1.28619-1.66406-1.12524-3.50543.45416-5.16327.19568-.20538.39319-.41052.60492-.59875a2.44555 2.44555 0 0 0 .94385-2.72742 2.88546 2.88546 0 0 0-2.35541-2.05066 13.1203 13.1203 0 0 0-15.04773 11.54108 13.24129 13.24129 0 0 0 7.03011 13.10803zm42.14954-2.46423c2.52612 2.727 5.8183 3.46185 9.15039 3.52551.73773 0 1.27.00824 1.80182-.00122 6.05829-.10815 11.76093-5.96686 11.696-12.01337-.02753-2.56524-1.7757-3.65252-4.07917-2.518a12.754 12.754 0 0 1-2.41095 1.08148 3.99508 3.99508 0 0 1-4.42071-1.97321 3.5101 3.5101 0 0 1 .24078-4.50317c.38727-.46069.83667-.86993 1.21533-1.337a2.59337 2.59337 0 0 0-1.66595-4.39392 12.90872 12.90872 0 0 0-11.32617 3.55719c-3.26972 3.01685-3.83417 6.98688-3.31806 11.15693a12.86139 12.86139 0 0 0 3.11669 7.41878z" class="cls-2"/></svg>