<?xml version="1.0" encoding="utf-8"?>
<!-- Generator: Adobe Illustrator 26.1.0, SVG Export Plug-In . SVG Version: 6.00 Build 0)  -->
<svg version="1.1" id="a" xmlns="http://www.w3.org/2000/svg" xmlns:xlink="http://www.w3.org/1999/xlink" x="0px" y="0px"
	 viewBox="0 0 600 200" style="enable-background:new 0 0 600 200;" xml:space="preserve">
<style type="text/css">
	.st0{fill:#4B6AA4;}
	.st1{fill:none;}
	.st2{fill:url(#SVGID_1_);}
	.st3{fill:url(#SVGID_00000132064524778410518300000006508550907507652752_);}
	.st4{fill:url(#SVGID_00000165221445494322745080000010636965089611994793_);}
	.st5{fill:url(#SVGID_00000043435459755398130750000014815541860615887499_);}
	.st6{fill:url(#SVGID_00000072263793938439658670000000161207644528839343_);}
	.st7{fill:url(#SVGID_00000006690820313540111790000005422253009846011273_);}
	.st8{fill:url(#SVGID_00000008117759927459184540000015089418196848764325_);}
	.st9{fill:url(#SVGID_00000020387292738241650550000017086845075996437678_);}
	.st10{fill:url(#SVGID_00000179613780763740876820000011922082446356049336_);}
	.st11{fill:url(#SVGID_00000011024236920614090490000012432304607479101105_);}
	.st12{fill:url(#SVGID_00000003806631896164837000000002111414572300206011_);}
	.st13{fill:url(#SVGID_00000026855170978628145820000009474363804111858351_);}
	.st14{fill:url(#SVGID_00000065780604218416317420000004351220045350541482_);}
	.st15{fill:url(#SVGID_00000031184793168520955860000006805531655520519074_);}
	.st16{fill:url(#SVGID_00000057125232231794057190000010410912887574515858_);}
	.st17{fill:#819EC2;}
	.st18{fill:#82A9C4;}
</style>
<g>
	<path class="st0" d="M240.2,47.6h-14.3v40.1h-8.8V47.6h-14.3v-7.2h37.4V47.6z"/>
	<path class="st0" d="M282.4,87.7h-6.8c-0.8,0-1.4-0.2-1.9-0.6c-0.5-0.4-0.8-0.9-1.1-1.4l-3.5-9.7h-19.6l-3.5,9.7
		c-0.2,0.5-0.5,1-1,1.4c-0.5,0.4-1.1,0.6-1.9,0.6h-6.9l18.6-47.4h9L282.4,87.7L282.4,87.7z M266.8,69.8L261,54.1
		c-0.3-0.7-0.6-1.5-0.9-2.5c-0.3-1-0.6-2-0.9-3.1c-0.3,1.1-0.6,2.2-0.9,3.1c-0.3,1-0.6,1.8-0.9,2.5l-5.7,15.7L266.8,69.8L266.8,69.8
		z"/>
	<path class="st0" d="M324.9,64v19.2c-2.4,1.8-5,3.1-7.7,3.9s-5.6,1.2-8.7,1.2c-3.9,0-7.4-0.6-10.5-1.8c-3.1-1.2-5.8-2.9-8-5
		c-2.2-2.1-3.9-4.7-5.1-7.7c-1.2-3-1.8-6.2-1.8-9.7c0-3.6,0.6-6.8,1.7-9.8c1.2-3,2.8-5.5,4.9-7.7c2.1-2.1,4.7-3.8,7.7-5
		c3-1.2,6.4-1.8,10.2-1.8c1.9,0,3.7,0.2,5.4,0.5s3.2,0.7,4.7,1.3c1.4,0.5,2.7,1.2,3.9,1.9c1.2,0.8,2.3,1.6,3.2,2.5l-2.5,4
		c-0.4,0.6-0.9,1-1.5,1.2c-0.6,0.1-1.3,0-2.1-0.5c-0.7-0.4-1.4-0.8-2.2-1.2c-0.7-0.4-1.5-0.8-2.4-1.1c-0.9-0.3-1.9-0.6-3-0.8
		s-2.4-0.3-3.8-0.3c-2.3,0-4.5,0.4-6.3,1.2c-1.9,0.8-3.5,1.9-4.8,3.4c-1.3,1.5-2.4,3.2-3.1,5.3c-0.7,2.1-1.1,4.3-1.1,6.9
		c0,2.7,0.4,5.1,1.2,7.3c0.8,2.1,1.9,3.9,3.3,5.4c1.4,1.5,3.1,2.6,5.1,3.4c2,0.8,4.2,1.2,6.6,1.2c1.7,0,3.3-0.2,4.7-0.6
		c1.4-0.4,2.7-0.9,4-1.5v-8.6h-6c-0.6,0-1-0.2-1.3-0.5c-0.3-0.3-0.5-0.7-0.5-1.2v-5L324.9,64L324.9,64z"/>
	<path class="st0" d="M252.3,136c0,3.5-0.6,6.7-1.7,9.6c-1.1,3-2.8,5.5-4.9,7.7c-2.1,2.2-4.6,3.8-7.6,5.1c-2.9,1.2-6.2,1.8-9.8,1.8
		c-3.6,0-6.8-0.6-9.8-1.8c-2.9-1.2-5.5-2.9-7.6-5.1c-2.1-2.2-3.7-4.7-4.9-7.7c-1.2-3-1.7-6.2-1.7-9.6c0-3.5,0.6-6.7,1.7-9.6
		c1.2-3,2.8-5.5,4.9-7.7c2.1-2.2,4.6-3.8,7.6-5.1c2.9-1.2,6.2-1.8,9.8-1.8c2.4,0,4.7,0.3,6.8,0.8c2.1,0.6,4.1,1.3,5.8,2.4
		s3.4,2.2,4.8,3.7c1.4,1.5,2.6,3.1,3.6,4.9c1,1.8,1.7,3.7,2.2,5.8C252,131.5,252.3,133.7,252.3,136L252.3,136z M243.2,136
		c0-2.6-0.3-4.9-1-7c-0.7-2.1-1.7-3.8-3-5.3c-1.3-1.4-2.9-2.5-4.7-3.3c-1.8-0.8-3.9-1.1-6.2-1.1c-2.3,0-4.4,0.4-6.2,1.1
		c-1.8,0.8-3.4,1.9-4.7,3.3c-1.3,1.4-2.3,3.2-3,5.3c-0.7,2.1-1,4.4-1,7c0,2.6,0.3,4.9,1,7c0.7,2.1,1.7,3.8,3,5.2
		c1.3,1.4,2.9,2.5,4.7,3.3s3.9,1.1,6.2,1.1c2.3,0,4.4-0.4,6.2-1.1c1.8-0.8,3.4-1.9,4.7-3.3c1.3-1.4,2.3-3.2,3-5.2
		C242.9,140.9,243.2,138.6,243.2,136L243.2,136z"/>
	<path class="st0" d="M266.3,130.2c1.4-1.4,2.9-2.5,4.5-3.4c1.6-0.8,3.5-1.3,5.7-1.3c1.9,0,3.7,0.4,5.3,1.1c1.6,0.8,2.9,1.9,4,3.3
		c1.1,1.4,1.9,3.2,2.5,5.2c0.6,2,0.9,4.3,0.9,6.8c0,2.7-0.3,5.2-1,7.4c-0.7,2.2-1.6,4.1-2.9,5.7c-1.3,1.6-2.8,2.8-4.5,3.7
		c-1.8,0.9-3.7,1.3-5.9,1.3c-1,0-2-0.1-2.9-0.3c-0.9-0.2-1.6-0.5-2.4-0.9s-1.4-0.8-2-1.4c-0.6-0.5-1.2-1.1-1.7-1.8l-0.4,2.3
		c-0.1,0.6-0.4,1-0.7,1.2c-0.3,0.2-0.7,0.4-1.3,0.4h-5.3V111h8.1L266.3,130.2L266.3,130.2z M266.3,151c0.9,1.1,1.9,1.9,3,2.4
		c1.1,0.5,2.2,0.7,3.4,0.7c1.2,0,2.4-0.2,3.4-0.7c1-0.4,1.8-1.1,2.5-2.1c0.7-0.9,1.2-2.2,1.6-3.6c0.4-1.5,0.6-3.2,0.6-5.3
		c0-3.7-0.6-6.4-1.8-8c-1.2-1.6-3-2.5-5.3-2.5c-1.6,0-2.9,0.4-4.1,1.1c-1.2,0.7-2.3,1.7-3.3,3L266.3,151L266.3,151z"/>
	<path class="st0" d="M315.9,132.6c-0.2,0.3-0.4,0.6-0.7,0.7c-0.2,0.1-0.5,0.2-0.9,0.2c-0.4,0-0.8-0.1-1.3-0.3
		c-0.4-0.2-1-0.5-1.6-0.7c-0.6-0.3-1.3-0.5-2-0.7c-0.8-0.2-1.6-0.3-2.7-0.3c-1.6,0-2.8,0.3-3.8,1c-0.9,0.7-1.4,1.6-1.4,2.7
		c0,0.7,0.2,1.3,0.7,1.8c0.5,0.5,1.1,0.9,1.9,1.3s1.7,0.7,2.6,1c1,0.3,2,0.6,3,1c1,0.4,2,0.7,3,1.2s1.9,1,2.6,1.7
		c0.8,0.7,1.4,1.5,1.9,2.5c0.5,1,0.7,2.1,0.7,3.5c0,1.6-0.3,3.1-0.9,4.5c-0.6,1.4-1.4,2.5-2.6,3.5s-2.5,1.8-4.2,2.3
		c-1.7,0.6-3.6,0.8-5.8,0.8c-1.2,0-2.3-0.1-3.4-0.3c-1.1-0.2-2.2-0.5-3.2-0.9c-1-0.4-2-0.8-2.8-1.3c-0.9-0.5-1.6-1-2.3-1.6l1.9-3.1
		c0.2-0.4,0.5-0.7,0.9-0.9c0.3-0.2,0.7-0.3,1.2-0.3c0.5,0,1,0.1,1.4,0.4c0.4,0.3,1,0.6,1.6,0.9c0.6,0.3,1.3,0.6,2.1,0.9
		c0.8,0.3,1.8,0.4,3,0.4c1,0,1.8-0.1,2.5-0.3c0.7-0.2,1.3-0.5,1.7-0.9c0.4-0.4,0.8-0.8,1-1.3c0.2-0.5,0.3-1,0.3-1.5
		c0-0.8-0.2-1.4-0.7-1.9c-0.5-0.5-1.1-0.9-1.9-1.3c-0.8-0.4-1.7-0.7-2.7-1c-1-0.3-2-0.6-3-1s-2.1-0.8-3-1.2s-1.9-1.1-2.7-1.8
		c-0.8-0.7-1.4-1.6-1.9-2.7c-0.5-1-0.7-2.3-0.7-3.8c0-1.4,0.3-2.7,0.8-3.9c0.5-1.2,1.3-2.3,2.4-3.3c1.1-0.9,2.4-1.7,4-2.2
		c1.6-0.6,3.4-0.8,5.5-0.8c2.3,0,4.4,0.4,6.3,1.1c1.9,0.8,3.5,1.8,4.7,3L315.9,132.6L315.9,132.6z"/>
	<path class="st0" d="M330.4,143.9c0.1,1.7,0.4,3.2,0.9,4.5c0.5,1.3,1.1,2.3,1.9,3.1c0.8,0.8,1.7,1.4,2.8,1.8
		c1.1,0.4,2.3,0.6,3.6,0.6s2.4-0.2,3.4-0.5s1.8-0.6,2.5-1c0.7-0.4,1.3-0.7,1.9-1s1.1-0.5,1.6-0.5c0.7,0,1.2,0.3,1.5,0.8l2.3,2.9
		c-0.9,1-1.9,1.9-3,2.6c-1.1,0.7-2.3,1.3-3.5,1.7c-1.2,0.4-2.4,0.7-3.7,0.9s-2.5,0.3-3.7,0.3c-2.3,0-4.5-0.4-6.5-1.2
		c-2-0.8-3.8-1.9-5.2-3.4s-2.7-3.4-3.5-5.6s-1.3-4.8-1.3-7.8c0-2.3,0.4-4.4,1.1-6.5c0.7-2,1.8-3.8,3.2-5.3c1.4-1.5,3.1-2.7,5.1-3.6
		s4.3-1.3,6.8-1.3c2.1,0,4.1,0.3,5.9,1c1.8,0.7,3.3,1.7,4.6,3c1.3,1.3,2.3,2.9,3,4.8c0.7,1.9,1.1,4,1.1,6.5c0,1.2-0.1,2-0.4,2.5
		c-0.3,0.4-0.8,0.6-1.5,0.6H330.4L330.4,143.9z M345.8,139c0-1-0.1-2-0.4-3c-0.3-0.9-0.7-1.7-1.3-2.4c-0.6-0.7-1.3-1.2-2.2-1.7
		c-0.9-0.4-2-0.6-3.2-0.6c-2.3,0-4.2,0.7-5.5,2c-1.3,1.3-2.2,3.2-2.6,5.7L345.8,139L345.8,139z"/>
	<path class="st0" d="M366.8,131.9c1-2,2.3-3.6,3.7-4.7c1.4-1.1,3.1-1.7,5.1-1.7c1.6,0,2.8,0.3,3.7,1l-0.5,6.1
		c-0.1,0.4-0.3,0.7-0.5,0.8s-0.5,0.2-0.8,0.2c-0.3,0-0.8-0.1-1.5-0.2c-0.6-0.1-1.3-0.2-1.9-0.2c-0.9,0-1.7,0.1-2.4,0.4
		s-1.3,0.6-1.9,1.1c-0.6,0.5-1,1.1-1.5,1.8s-0.8,1.5-1.2,2.4v20.7h-8.1v-33.6h4.7c0.8,0,1.4,0.1,1.7,0.4s0.5,0.8,0.7,1.6
		L366.8,131.9L366.8,131.9z"/>
	<path class="st0" d="M413.9,126.1l-13.3,33.6h-7.3l-13.3-33.6h6.7c0.6,0,1.1,0.1,1.5,0.4c0.4,0.3,0.7,0.6,0.8,1.1l6.5,18
		c0.3,1,0.7,2.1,0.9,3.1c0.3,1,0.5,2,0.7,3c0.2-1,0.5-2,0.7-3c0.3-1,0.6-2,0.9-3.1l6.6-18c0.2-0.4,0.4-0.8,0.8-1.1
		c0.4-0.3,0.9-0.4,1.4-0.4H413.9z"/>
	<path class="st0" d="M416.6,130.8c3.9-3.5,8.5-5.3,14-5.3c2,0,3.7,0.3,5.3,1c1.6,0.6,2.9,1.5,3.9,2.7s1.9,2.5,2.4,4.1
		c0.6,1.6,0.8,3.3,0.8,5.2v21.2h-3.7c-0.8,0-1.4-0.1-1.8-0.3s-0.7-0.7-1-1.4l-0.7-2.4c-0.9,0.8-1.7,1.4-2.5,2
		c-0.8,0.6-1.6,1.1-2.5,1.5c-0.9,0.4-1.8,0.7-2.8,0.9c-1,0.2-2.1,0.3-3.3,0.3c-1.4,0-2.7-0.2-3.9-0.6c-1.2-0.4-2.2-1-3.1-1.7
		c-0.9-0.8-1.6-1.7-2-2.9c-0.5-1.1-0.7-2.5-0.7-4c0-0.9,0.1-1.7,0.4-2.5c0.3-0.8,0.7-1.6,1.4-2.4c0.6-0.8,1.5-1.5,2.5-2.2
		c1-0.7,2.3-1.3,3.8-1.8c1.5-0.5,3.2-0.9,5.2-1.2c2-0.3,4.3-0.5,6.8-0.6v-2c0-2.2-0.5-3.9-1.4-5s-2.3-1.6-4.2-1.6
		c-1.3,0-2.4,0.2-3.3,0.5c-0.9,0.3-1.6,0.7-2.3,1c-0.7,0.4-1.3,0.7-1.8,1c-0.5,0.3-1.1,0.5-1.8,0.5c-0.6,0-1-0.1-1.4-0.4
		c-0.4-0.3-0.7-0.6-0.9-1L416.6,130.8L416.6,130.8z M435.1,145.3c-2.3,0.1-4.3,0.3-5.9,0.6c-1.6,0.3-2.9,0.7-3.8,1.1s-1.6,1-2.1,1.6
		c-0.4,0.6-0.6,1.3-0.6,2c0,1.4,0.4,2.4,1.3,3c0.8,0.6,1.9,0.9,3.3,0.9c1.7,0,3.1-0.3,4.3-0.9c1.2-0.6,2.4-1.5,3.6-2.7L435.1,145.3
		L435.1,145.3z"/>
	<path class="st0" d="M458.7,130.2c1.4-1.4,2.9-2.5,4.5-3.4c1.6-0.8,3.5-1.3,5.6-1.3c1.9,0,3.7,0.4,5.3,1.1c1.6,0.8,2.9,1.9,4,3.3
		c1.1,1.4,1.9,3.2,2.5,5.2c0.6,2,0.9,4.3,0.9,6.8c0,2.7-0.3,5.2-1,7.4c-0.7,2.2-1.6,4.1-2.9,5.7c-1.3,1.6-2.8,2.8-4.5,3.7
		c-1.8,0.9-3.7,1.3-5.9,1.3c-1,0-2-0.1-2.8-0.3c-0.9-0.2-1.6-0.5-2.4-0.9c-0.7-0.4-1.4-0.8-2-1.4c-0.6-0.5-1.2-1.1-1.7-1.8l-0.4,2.3
		c-0.1,0.6-0.4,1-0.7,1.2c-0.3,0.2-0.7,0.4-1.3,0.4h-5.3V111h8.1L458.7,130.2L458.7,130.2z M458.7,151c0.9,1.1,1.9,1.9,3,2.4
		c1.1,0.5,2.2,0.7,3.4,0.7c1.2,0,2.4-0.2,3.4-0.7c1-0.4,1.8-1.1,2.5-2.1c0.7-0.9,1.2-2.2,1.6-3.6c0.4-1.5,0.6-3.2,0.6-5.3
		c0-3.7-0.6-6.4-1.8-8c-1.2-1.6-3-2.5-5.3-2.5c-1.6,0-2.9,0.4-4.1,1.1c-1.2,0.7-2.3,1.7-3.3,3L458.7,151L458.7,151z"/>
	<path class="st0" d="M497.3,116.3c0,0.7-0.1,1.4-0.4,2c-0.3,0.6-0.7,1.1-1.1,1.6s-1,0.8-1.7,1.1c-0.6,0.3-1.3,0.4-2,0.4
		c-0.7,0-1.4-0.1-2-0.4c-0.6-0.3-1.2-0.6-1.6-1.1s-0.8-1-1.1-1.6c-0.3-0.6-0.4-1.3-0.4-2c0-0.7,0.1-1.4,0.4-2
		c0.3-0.6,0.6-1.2,1.1-1.6s1-0.8,1.6-1.1c0.6-0.3,1.3-0.4,2-0.4c0.7,0,1.4,0.1,2,0.4c0.6,0.3,1.2,0.6,1.7,1.1s0.8,1,1.1,1.6
		C497.2,114.9,497.3,115.6,497.3,116.3z M496.2,126.1v33.6h-8.1v-33.6H496.2z"/>
	<path class="st0" d="M512.6,111v48.7h-8.1V111H512.6z"/>
	<path class="st0" d="M530.2,116.3c0,0.7-0.1,1.4-0.4,2c-0.3,0.6-0.7,1.1-1.1,1.6s-1,0.8-1.7,1.1c-0.6,0.3-1.3,0.4-2,0.4
		c-0.7,0-1.4-0.1-2-0.4c-0.6-0.3-1.2-0.6-1.6-1.1s-0.8-1-1.1-1.6c-0.3-0.6-0.4-1.3-0.4-2c0-0.7,0.1-1.4,0.4-2
		c0.3-0.6,0.6-1.2,1.1-1.6s1-0.8,1.6-1.1c0.6-0.3,1.3-0.4,2-0.4c0.7,0,1.4,0.1,2,0.4c0.6,0.3,1.2,0.6,1.7,1.1s0.8,1,1.1,1.6
		C530.1,114.9,530.2,115.6,530.2,116.3z M529.1,126.1v33.6H521v-33.6H529.1z"/>
	<path class="st0" d="M548.6,160.2c-2.9,0-5.2-0.8-6.7-2.5c-1.6-1.6-2.3-3.9-2.3-6.8v-18.8h-3.4c-0.4,0-0.8-0.1-1.1-0.4
		c-0.3-0.3-0.5-0.7-0.5-1.3v-3.2l5.4-0.9l1.7-9.2c0.1-0.4,0.3-0.8,0.6-1c0.3-0.2,0.7-0.4,1.2-0.4h4.2v10.6h9v5.8h-9v18.2
		c0,1,0.3,1.9,0.8,2.5c0.5,0.6,1.2,0.9,2.1,0.9c0.5,0,0.9-0.1,1.3-0.2c0.3-0.1,0.6-0.2,0.9-0.4c0.3-0.1,0.5-0.3,0.7-0.4
		c0.2-0.1,0.4-0.2,0.6-0.2c0.2,0,0.4,0.1,0.6,0.2c0.2,0.1,0.3,0.3,0.5,0.5l2.4,3.9c-1.2,1-2.5,1.7-4.1,2.2
		C551.8,160,550.2,160.2,548.6,160.2L548.6,160.2z"/>
	<path class="st0" d="M592.3,126.1L574,168.9c-0.2,0.6-0.6,1-0.9,1.3c-0.4,0.3-1,0.4-1.8,0.4h-6l6.3-13.5l-13.6-31.1h7.1
		c0.6,0,1.1,0.2,1.5,0.5s0.6,0.7,0.8,1l7.1,17.4c0.2,0.6,0.4,1.2,0.6,1.8c0.2,0.6,0.3,1.2,0.5,1.8c0.2-0.6,0.4-1.2,0.6-1.8
		s0.4-1.2,0.7-1.8l6.7-17.4c0.2-0.4,0.5-0.8,0.9-1.1c0.4-0.3,0.9-0.4,1.4-0.4H592.3z"/>
</g>
<g>
	<g>
		<path class="st1" d="M50.1,84.1C66.3,84,75,72.7,75.1,51.8c0-10.1-13-20.5-25.5-20.4C35,31.5,23.3,43.4,23.4,58
			C23.6,72.5,35.5,84.3,50.1,84.1z M58.1,52.5c5.7,0.2,10.3,5.1,10.2,10.7c-0.1,5.7-4.9,10.4-10.6,10.3c-5.9,0-10.8-5.1-10.5-11.1
			C47.5,56.8,52.4,52.3,58.1,52.5L58.1,52.5z"/>
		<path class="st1" d="M118.5,84.1c14.5-0.1,26.4-12,26.3-26.5c-0.1-14.5-12-26.4-26.5-26.3C105.8,31.4,93,42.1,93.3,52.1
			C93.9,73.5,102.3,84.2,118.5,84.1L118.5,84.1z M110,52.5c5.9-0.3,11,4.6,11.1,10.5c0,5.7-4.7,10.5-10.3,10.6
			c-5.7,0.1-10.5-4.5-10.7-10.2C99.8,57.7,104.3,52.8,110,52.5z"/>
		
			<linearGradient id="SVGID_1_" gradientUnits="userSpaceOnUse" x1="-41.5077" y1="201.9832" x2="135.4479" y2="13.9679" gradientTransform="matrix(1 0 0 -1 0 200)">
			<stop  offset="0" style="stop-color:#4B6AA4"/>
			<stop  offset="1" style="stop-color:#86C1D2"/>
		</linearGradient>
		<path class="st2" d="M143.7,95c-1.8-3.7-3.9-5.7-8.7-3.3c-7.7,3.9-16.3,4.3-24.4,1.3c-4.6-1.7-6.5,0.1-8.3,3.5
			c-6.9,12.5-6.1,25.3-1.6,38.2c3.7,10.4,8.8,20.1,14.8,29.4c1.9,3,1.7,4.8-1.3,6.9c-8.5,6.2-17.5,11.8-26.7,16.9
			c-2.4,1.3-4.3,1.3-6.7,0c-9.1-5-17.8-10.5-26.2-16.5c-3.1-2.2-3.7-3.9-1.5-7.3c6.3-9.8,11.9-20,15.5-31.2
			c4-12.1,4.3-24.1-1.7-35.8c-1.8-3.4-3.6-5.3-8.2-3.8c-8.5,2.9-17.1,1.7-24.9-2.5c-4.3-2.3-6.3-0.8-8.4,2.6
			c-7.3,11.8-9.3,24.9-10,37.7c-0.2,19.6,8.1,35,19.7,49.1c3,3.6,4.8,4,7.6-0.2c5.1-7.4,5.3-7.3,12.7-2.1c0.5,0.4,1,0.8,1.6,1.1
			c33.2,20,20.9,20,54,0c3-1.8,5.7-5.6,8.6-5.6c3.7-0.1,4.8,5,6.9,7.8c2.4,3.3,3.8,2.3,5.9-0.2c3.8-4.6,7.4-9.3,10.4-14.4
			C156.9,142.9,155.4,119,143.7,95L143.7,95z"/>
		
			<linearGradient id="SVGID_00000110472958689170819470000012844760001722025877_" gradientUnits="userSpaceOnUse" x1="-4.6576" y1="236.6656" x2="172.298" y2="48.6503" gradientTransform="matrix(1 0 0 -1 0 200)">
			<stop  offset="0" style="stop-color:#4B6AA4"/>
			<stop  offset="1" style="stop-color:#86C1D2"/>
		</linearGradient>
		<path style="fill:url(#SVGID_00000110472958689170819470000012844760001722025877_);" d="M149.2,50.4
			c-3.3-13.2-14.1-23.3-27.3-24.1c-12-0.7-24.2-1.2-35.7,3.8c-1.3,0.5-2.3,0.8-3.7,0.2c-11-5.1-22.7-4.6-34.4-4.1
			c-13.7,0.5-25.1,10.1-28.7,23.3c-3.6,13.2,1.6,27.1,13,34.7c11.4,7.6,26,7,37-1.4c1.3-1,2.1-2.8,4.7-2.8
			c1.2,5.2,2.7,10.5,5.4,15.3c1.3,2.2,2,6,4.5,6c3,0,3.6-3.9,5-6.3c2.6-4.6,4-9.7,5.6-15.8c2.4,1.9,4,3.3,5.8,4.6
			c10.7,7.6,25,7.6,35.9,0.2C147.2,76.5,152.4,63,149.2,50.4L149.2,50.4z M50.1,84.1C35.5,84.3,23.6,72.5,23.4,58
			C23.3,43.4,35,31.5,49.6,31.4c12.5-0.1,25.5,10.3,25.5,20.4C75,72.7,66.3,84,50.1,84.1L50.1,84.1z M118.5,84.1
			c-16.2,0.1-24.6-10.6-25.3-32c-0.3-10.1,12.5-20.7,25.1-20.8c14.6-0.1,26.5,11.7,26.5,26.3C144.9,72.1,133.1,84.1,118.5,84.1
			L118.5,84.1z"/>
		
			<linearGradient id="SVGID_00000046299430851810745630000018209143882683137175_" gradientUnits="userSpaceOnUse" x1="-13.7538" y1="228.1045" x2="163.2018" y2="40.0892" gradientTransform="matrix(1 0 0 -1 0 200)">
			<stop  offset="0" style="stop-color:#4B6AA4"/>
			<stop  offset="1" style="stop-color:#86C1D2"/>
		</linearGradient>
		<path style="fill:url(#SVGID_00000046299430851810745630000018209143882683137175_);" d="M23.8,2.6v28.1
			c7.4-5.9,15.1-9.3,25.8-10.3C40.2,13.8,32.3,8.4,23.8,2.6z"/>
		
			<linearGradient id="SVGID_00000082337247458516065360000010683600401499420338_" gradientUnits="userSpaceOnUse" x1="43.9555" y1="282.4191" x2="220.9111" y2="94.4038" gradientTransform="matrix(1 0 0 -1 0 200)">
			<stop  offset="0" style="stop-color:#4B6AA4"/>
			<stop  offset="1" style="stop-color:#86C1D2"/>
		</linearGradient>
		<path style="fill:url(#SVGID_00000082337247458516065360000010683600401499420338_);" d="M144.6,30.1V2.6
			c-8.7,6-16.6,11.4-25.1,17.2c5.2,1.5,9.3,2.2,13.1,3.8C136.6,25.2,140.2,27.7,144.6,30.1z"/>
		
			<linearGradient id="SVGID_00000173876749984134521070000002138245227944430214_" gradientUnits="userSpaceOnUse" x1="-88.7189" y1="157.5491" x2="88.2367" y2="-30.4662" gradientTransform="matrix(1 0 0 -1 0 200)">
			<stop  offset="0" style="stop-color:#4B6AA4"/>
			<stop  offset="1" style="stop-color:#86C1D2"/>
		</linearGradient>
		<path style="fill:url(#SVGID_00000173876749984134521070000002138245227944430214_);" d="M52.3,184.7c-5.6,0.1-8.9,3.8-10.2,9.2
			c6.1-0.9,12,3.8,17.8-0.2c0.4-0.3,1.6,0.4,3.3,1C61.2,188.3,58,184.5,52.3,184.7L52.3,184.7z"/>
		
			<linearGradient id="SVGID_00000053519657129496094600000013920581032630174339_" gradientUnits="userSpaceOnUse" x1="-55.8204" y1="188.5124" x2="121.1352" y2="0.4971" gradientTransform="matrix(1 0 0 -1 0 200)">
			<stop  offset="0" style="stop-color:#4B6AA4"/>
			<stop  offset="1" style="stop-color:#86C1D2"/>
		</linearGradient>
		<path style="fill:url(#SVGID_00000053519657129496094600000013920581032630174339_);" d="M116,184.7c-5.7-0.1-8.9,3.6-11.3,11.2
			c4.3-3.6,6.9-3.2,9.1-0.2c1.1,1.5,2.7,1.9,3.8,0.2c2.2-3.4,5.1-3,8.8-1.1C124.8,188.4,121.6,184.8,116,184.7L116,184.7z"/>
		
			<linearGradient id="SVGID_00000095328074996985130830000005717404034182727828_" gradientUnits="userSpaceOnUse" x1="-41.3607" y1="202.1216" x2="135.5949" y2="14.1063" gradientTransform="matrix(1 0 0 -1 0 200)">
			<stop  offset="0" style="stop-color:#4B6AA4"/>
			<stop  offset="1" style="stop-color:#86C1D2"/>
		</linearGradient>
		<path style="fill:url(#SVGID_00000095328074996985130830000005717404034182727828_);" d="M92.4,134.5c-3.3-0.1-5.4,1.8-5.4,5.2
			c0,3,1.8,5,4.8,5.1c3.4,0.2,5.1-1.9,5.6-5.1C97,136.6,95.4,134.6,92.4,134.5L92.4,134.5z"/>
		
			<linearGradient id="SVGID_00000004515567367388895250000013558640571321199266_" gradientUnits="userSpaceOnUse" x1="-60.556" y1="184.0554" x2="116.3996" y2="-3.9599" gradientTransform="matrix(1 0 0 -1 0 200)">
			<stop  offset="0" style="stop-color:#4B6AA4"/>
			<stop  offset="1" style="stop-color:#86C1D2"/>
		</linearGradient>
		<path style="fill:url(#SVGID_00000004515567367388895250000013558640571321199266_);" d="M73.6,152.6c-0.5-3-2.1-4.9-5.2-4.9
			c-3.3,0-5.3,2.1-5.2,5.4c0.1,3,2.1,4.9,5.1,4.9C71.6,158,73.3,155.8,73.6,152.6z"/>
		
			<linearGradient id="SVGID_00000101814979769646194980000000151781407064389049_" gradientUnits="userSpaceOnUse" x1="-43.7496" y1="199.8732" x2="133.206" y2="11.8579" gradientTransform="matrix(1 0 0 -1 0 200)">
			<stop  offset="0" style="stop-color:#4B6AA4"/>
			<stop  offset="1" style="stop-color:#86C1D2"/>
		</linearGradient>
		<path style="fill:url(#SVGID_00000101814979769646194980000000151781407064389049_);" d="M100.5,147.7c-3.3-0.2-5.4,1.7-5.6,5
			c-0.2,3,1.7,5,4.7,5.3c3.4,0.3,5.2-1.8,5.8-5.3C104.9,150.1,103.5,147.9,100.5,147.7L100.5,147.7z"/>
		
			<linearGradient id="SVGID_00000095340067548430260880000008086085446116775331_" gradientUnits="userSpaceOnUse" x1="-53.4631" y1="190.7311" x2="123.4925" y2="2.7158" gradientTransform="matrix(1 0 0 -1 0 200)">
			<stop  offset="0" style="stop-color:#4B6AA4"/>
			<stop  offset="1" style="stop-color:#86C1D2"/>
		</linearGradient>
		<path style="fill:url(#SVGID_00000095340067548430260880000008086085446116775331_);" d="M89.3,155.5c0-3.4-2.1-5-5.4-5.3
			c-3,0.5-4.9,2.1-4.9,5.2c0,3.3,2.1,5.3,5.4,5.2C87.4,160.5,89.3,158.5,89.3,155.5L89.3,155.5z"/>
		
			<linearGradient id="SVGID_00000131339647717055307560000010069890318581043848_" gradientUnits="userSpaceOnUse" x1="-69.8991" y1="175.2619" x2="107.0565" y2="-12.7535" gradientTransform="matrix(1 0 0 -1 0 200)">
			<stop  offset="0" style="stop-color:#4B6AA4"/>
			<stop  offset="1" style="stop-color:#86C1D2"/>
		</linearGradient>
		<path style="fill:url(#SVGID_00000131339647717055307560000010069890318581043848_);" d="M60.5,166.9c-0.3,2.3,1,3.9,3.2,4.2
			c2.6,0.4,4.2-1.1,4.4-3.6c0.2-2.3-1.4-3.5-3.7-4.1C62.5,163.6,60.8,164.6,60.5,166.9L60.5,166.9z"/>
		
			<linearGradient id="SVGID_00000103224272530444246410000017942970378148788908_" gradientUnits="userSpaceOnUse" x1="-48.9001" y1="195.0257" x2="128.0555" y2="7.0104" gradientTransform="matrix(1 0 0 -1 0 200)">
			<stop  offset="0" style="stop-color:#4B6AA4"/>
			<stop  offset="1" style="stop-color:#86C1D2"/>
		</linearGradient>
		<path style="fill:url(#SVGID_00000103224272530444246410000017942970378148788908_);" d="M100.2,167.1c-0.1,2.6,1.5,4.1,4.1,4
			c2.2-0.1,3.4-1.7,3.6-3.9c-0.4-2.2-1.6-3.7-3.9-3.7C101.7,163.5,100.2,164.9,100.2,167.1z"/>
		
			<linearGradient id="SVGID_00000091714025499191239020000005204715290614591373_" gradientUnits="userSpaceOnUse" x1="-64.2149" y1="180.6117" x2="112.7407" y2="-7.4036" gradientTransform="matrix(1 0 0 -1 0 200)">
			<stop  offset="0" style="stop-color:#4B6AA4"/>
			<stop  offset="1" style="stop-color:#86C1D2"/>
		</linearGradient>
		<path style="fill:url(#SVGID_00000091714025499191239020000005204715290614591373_);" d="M77.5,173.8c2.3,0.1,3.5-1.4,3.9-3.6
			c-0.1-2.3-1.3-3.8-3.5-4c-2.3-0.3-3.9,1.1-4.1,3.3C73.4,172,74.9,173.6,77.5,173.8L77.5,173.8z"/>
		
			<linearGradient id="SVGID_00000006675838610534073080000005763251529745220499_" gradientUnits="userSpaceOnUse" x1="-57.2069" y1="187.2075" x2="119.7487" y2="-0.8079" gradientTransform="matrix(1 0 0 -1 0 200)">
			<stop  offset="0" style="stop-color:#4B6AA4"/>
			<stop  offset="1" style="stop-color:#86C1D2"/>
		</linearGradient>
		<path style="fill:url(#SVGID_00000006675838610534073080000005763251529745220499_);" d="M90.4,173.8c2.6,0.2,4.2-1.4,4.1-4
			c0-2.2-1.6-3.4-3.8-3.7c-2.2,0.3-3.7,1.5-3.8,3.7C86.9,172.1,88.3,173.6,90.4,173.8z"/>
		
			<linearGradient id="SVGID_00000125569200354386890450000015810460240606090630_" gradientUnits="userSpaceOnUse" x1="-21.32" y1="220.9834" x2="155.6356" y2="32.9681" gradientTransform="matrix(1 0 0 -1 0 200)">
			<stop  offset="0" style="stop-color:#4B6AA4"/>
			<stop  offset="1" style="stop-color:#86C1D2"/>
		</linearGradient>
		<path style="fill:url(#SVGID_00000125569200354386890450000015810460240606090630_);" d="M58.1,52.5c-5.7-0.2-10.6,4.3-10.9,10
			c-0.3,5.9,4.6,11,10.5,11.1c5.7,0,10.5-4.7,10.6-10.3C68.4,57.5,63.8,52.7,58.1,52.5L58.1,52.5z"/>
	</g>
	<circle class="st17" cx="110.9" cy="63.2" r="10.4"/>
</g>
<circle class="st18" cx="76.3" cy="139.6" r="5.2"/>
</svg>
