<svg xmlns="http://www.w3.org/2000/svg" role="img" viewBox="-1.26 -2.51 299.26 113.76"><defs><style>.cls-1{fill:#fff}</style></defs><path d="M45.644 57.353a5.86 5.86 0 1 1-5.863-5.859 5.864 5.864 0 0 1 5.863 5.859zm7.578 0a5.863 5.863 0 1 0 5.863-5.859 5.86 5.86 0 0 0-5.863 5.859z" class="cls-1"/><path d="M93.123 63.712c-.425.034-.845.049-1.295.049a16.919 16.919 0 0 1-7.441-1.732 69.097 69.097 0 0 0 1.002-13.163 68.107 68.107 0 0 0-8.519-10.095 16.925 16.925 0 0 1 6.003-6.43l1.102-.683-.86-.971a44.861 44.861 0 0 0-15.666-11.426l-1.192-.518L65.954 20a16.879 16.879 0 0 1-4.248 7.711 68.13 68.13 0 0 0-12.274-5.056 67.89 67.89 0 0 0-12.256 5.048 16.837 16.837 0 0 1-4.231-7.694l-.308-1.261-1.188.516a45.287 45.287 0 0 0-15.665 11.422l-.859.971 1.1.682a16.898 16.898 0 0 1 5.989 6.396 68.624 68.624 0 0 0-8.504 10.058 69.05 69.05 0 0 0 .976 13.25A16.873 16.873 0 0 1 7.09 63.76c-.455 0-.883-.015-1.298-.049L4.5 63.61l.12 1.29a44.588 44.588 0 0 0 6.026 18.442l.656 1.117.984-.838a16.862 16.862 0 0 1 7.985-3.738 68.502 68.502 0 0 0 6.834 11.13 69.19 69.19 0 0 0 12.949 3.184 16.828 16.828 0 0 1-1.078 8.835l-.492 1.198 1.264.28a45.127 45.127 0 0 0 9.702 1.073l9.7-1.073 1.265-.28-.49-1.198a16.807 16.807 0 0 1-1.075-8.845 69.202 69.202 0 0 0 12.897-3.174 68.197 68.197 0 0 0 6.839-11.14 16.895 16.895 0 0 1 8.025 3.742l.985.834.657-1.108A44.484 44.484 0 0 0 94.272 64.9l.12-1.289zM63.315 79.475a52.368 52.368 0 0 1-27.775 0 53.144 53.144 0 0 1-8.452-26.265 52.879 52.879 0 0 1 10.067-9.583 53.683 53.683 0 0 1 12.278-6.679 53.85 53.85 0 0 1 12.253 6.661 53.284 53.284 0 0 1 10.111 9.649 53.535 53.535 0 0 1-2.531 13.68 53.804 53.804 0 0 1-5.951 12.537zm66.739-50.648c14.725 0 23.038 10.569 23.038 27.074a34.44 34.44 0 0 1-.357 5.343h-38.95c.713 12.47 8.196 20.308 19.237 20.308a26.083 26.083 0 0 0 14.368-4.513l3.443 6.411a34.358 34.358 0 0 1-18.998 5.938c-15.437 0-27.668-11.28-27.668-30.163 0-18.878 12.704-30.398 25.887-30.398zm14.488 26.005c0-11.756-5.225-18.285-14.25-18.285-8.075 0-15.438 6.648-16.625 18.285zm19.591-16.624h-8.55v-7.362l9.024-.594 1.189-16.149h8.191v16.149h15.557v7.957h-15.557v32.062c0 7.126 2.259 11.162 8.907 11.162a20.922 20.922 0 0 0 6.532-1.545l1.897 7.364a35.632 35.632 0 0 1-10.687 2.138c-12.348 0-16.506-7.837-16.506-19.237V38.208zm57.238-9.381a23.788 23.788 0 0 1 16.86 6.888l-4.867 6.292c-3.444-2.966-7.006-5.104-11.638-5.104-10.448 0-18.05 9.023-18.05 22.323 0 13.182 7.244 22.088 17.813 22.088 5.462 0 10.095-2.731 13.537-5.818l4.394 6.412a28.58 28.58 0 0 1-18.764 7.481c-15.315 0-27.072-11.044-27.072-30.163.001-19.355 12.944-30.399 27.787-30.399zm45.6 0c6.649 0 11.042 2.494 16.149 6.651l-.476-9.856V3.416h9.856v84.546h-8.072l-.834-6.768h-.355c-4.513 4.394-10.686 8.194-17.456 8.194-14.487 0-23.867-10.925-23.867-30.163-.001-18.76 11.874-30.398 25.055-30.398zm.949 52.367c5.343 0 9.976-2.612 14.725-7.954V43.076c-4.87-4.393-9.262-6.056-14.012-6.056-9.263 0-16.624 8.905-16.624 22.088 0 13.775 5.817 22.086 15.911 22.086z" class="cls-1"/></svg>