<svg xmlns="http://www.w3.org/2000/svg" role="img" viewBox="88.93 114.43 861.64 843.64"><path d="M520.236 131.002c2.404.036 4.769.612 6.919 1.686l303 151.5c2.658 1.329 4.893 3.372 6.455 5.9 1.562 2.527 2.39 5.441 2.39 8.412v303c0 6.06-3.424 11.6-8.845 14.311l-303 151.5c-2.221 1.11-4.671 1.689-7.155 1.689s-4.934-.579-7.155-1.689l-303-151.5a15.99755 15.99755 0 0 1-6.455-5.9c-1.562-2.527-2.39-5.44-2.39-8.411v-303c0-6.06 3.424-11.6 8.845-14.312l303-151.5.425-.205c2.181-1.011 4.563-1.517 6.966-1.481zM329 343c-8.401 0-12.601 0-15.81 1.635-2.822 1.438-5.117 3.733-6.555 6.555C305 354.399 305 358.6 305 367v166c0 8.4 0 12.601 1.635 15.81 1.438 2.822 3.733 5.117 6.555 6.555C316.399 557 320.599 557 329 557h382c8.401 0 12.601 0 15.81-1.635 2.822-1.438 5.117-3.733 6.555-6.555C735 545.601 735 541.4 735 533V367c0-8.4 0-12.601-1.635-15.81-1.438-2.822-3.733-5.117-6.555-6.555C723.601 343 719.401 343 711 343H329zm40 36c2.8 0 4.2 0 5.27.545.94.48 1.706 1.245 2.185 2.185.545 1.07.545 2.47.545 5.27v90c0 2.8 0 4.201-.545 5.271-.48.94-1.245 1.705-2.185 2.184-1.07.545-2.47.545-5.27.545h-20c-2.8 0-4.2 0-5.27-.545-.94-.479-1.705-1.244-2.185-2.184C341 481.201 341 479.8 341 477v-90c0-2.8 0-4.2.545-5.27.479-.94 1.245-1.705 2.185-2.185C344.8 379 346.2 379 349 379h20zm72 0c2.8 0 4.2 0 5.27.545.94.48 1.706 1.245 2.185 2.185.545 1.07.545 2.47.545 5.27v90c0 2.8 0 4.201-.545 5.271-.48.94-1.245 1.705-2.185 2.184-1.07.545-2.47.545-5.27.545h-20c-2.8 0-4.2 0-5.27-.545-.94-.479-1.705-1.244-2.185-2.184C413 481.201 413 479.8 413 477v-90c0-2.8 0-4.2.545-5.27.479-.94 1.245-1.705 2.185-2.185C416.8 379 418.2 379 421 379h20zm72 0c2.8 0 4.2 0 5.27.545.94.48 1.706 1.245 2.185 2.185.545 1.07.545 2.47.545 5.27v90c0 2.8 0 4.201-.545 5.271-.48.94-1.245 1.705-2.185 2.184-1.07.545-2.47.545-5.27.545h-20c-2.8 0-4.2 0-5.27-.545-.94-.479-1.705-1.244-2.185-2.184C485 481.201 485 479.8 485 477v-90c0-2.8 0-4.2.545-5.27.479-.94 1.245-1.705 2.185-2.185C488.8 379 490.2 379 493 379h20zm72 0c2.8 0 4.201 0 5.271.545.94.48 1.705 1.245 2.184 2.185.545 1.07.545 2.47.545 5.27v90c0 2.8 0 4.201-.545 5.271-.479.94-1.244 1.705-2.184 2.184-1.07.545-2.471.545-5.271.545h-20c-2.8 0-4.2 0-5.27-.545-.94-.479-1.705-1.244-2.185-2.184C557 481.201 557 479.8 557 477v-90c0-2.8 0-4.2.545-5.27.479-.94 1.245-1.705 2.185-2.185C560.8 379 562.2 379 565 379h20z"/><path fill-rule="evenodd" d="M906.895 865.423c5.269 0 9.972 1.199 14.115 3.597 4.217 2.327 7.522 5.64 9.906 9.941 2.391 4.231 3.584 9.133 3.584 14.703 0 5.641-1.193 10.576-3.584 14.807-2.385 4.231-5.689 7.546-9.906 9.943-4.143 2.397-8.846 3.596-14.115 3.596-4.777 0-9.097-1.093-12.96-3.28-3.254-1.9-5.957-4.477-8.111-7.727V942h-7.477v-76.048h7.161v10.903c2.147-3.51 4.92-6.229 8.323-8.153 3.864-2.186 8.221-3.279 13.064-3.279zm-.523 6.557c-3.938.001-7.485.917-10.642 2.75-3.091 1.834-5.549 4.372-7.374 7.617-1.759 3.243-2.635 7.016-2.635 11.317s.876 8.109 2.635 11.423c1.825 3.243 4.283 5.782 7.374 7.615 3.157 1.762 6.704 2.645 10.642 2.645 3.93 0 7.441-.883 10.532-2.645 3.09-1.833 5.548-4.372 7.374-7.615 1.825-3.314 2.737-7.122 2.737-11.423s-.912-8.074-2.737-11.317c-1.826-3.245-4.284-5.783-7.374-7.617-3.091-1.833-6.602-2.75-10.532-2.75zm-771.49-6.603c16.208 0 28.023 11.337 28.023 28.344 0 17.11-11.815 28.447-28.023 28.447-7.842 0-14.743-3.044-19.345-9.027v28.762H105.5v-76.001h9.619v8.818c4.497-6.194 11.608-9.343 19.763-9.343zm-.837 8.818c-10.56 0-18.612 7.769-18.612 19.526 0 11.862 8.052 19.63 18.612 19.63 10.666 0 18.718-7.768 18.718-19.63 0-11.757-8.052-19.526-18.718-19.526zm64.821-8.818c16.626 0 28.754 11.757 28.754 28.344 0 16.585-12.128 28.447-28.754 28.447s-28.859-11.862-28.86-28.447c0-16.587 12.234-28.344 28.86-28.344zm0 8.818c-10.665 0-18.717 7.664-18.717 19.526s8.052 19.63 18.717 19.63c10.665-.001 18.612-7.768 18.612-19.63 0-11.862-7.947-19.526-18.612-19.526zm92.525-30.547v77.891h-9.62v-8.818c-4.495 6.298-11.606 9.447-19.763 9.447-16.207 0-28.022-11.442-28.022-28.447 0-17.007 11.815-28.344 28.022-28.344 7.842 0 14.743 2.939 19.344 8.923v-30.652h10.039zm-28.546 30.547c-10.665 0-18.717 7.664-18.717 19.526s8.052 19.63 18.717 19.63c10.561-.001 18.612-7.768 18.612-19.63 0-11.862-8.051-19.526-18.612-19.526zm165.033-8.818c15.162 0 23.736 7.349 23.736 22.57v33.592h-9.515v-7.349c-3.345 5.039-9.515 7.978-18.194 7.978-12.547 0-20.494-6.718-20.494-16.375 0-8.923 5.751-16.271 22.271-16.272h15.895v-1.994c0-8.502-4.915-13.437-14.849-13.437-6.587 0-13.279 2.31-17.566 5.983l-4.182-7.557c5.75-4.62 14.01-7.139 22.898-7.139zm-1.776 31.388c-9.934 0-12.759 3.884-12.759 8.608 0 5.563 4.602 9.027 12.234 9.027 7.53 0 13.49-3.464 16-9.868v-7.767h-15.475zm179.229 24.716h-7.164v-11.005c-2.149 3.516-4.922 6.268-8.323 8.254-3.792 2.187-8.147 3.28-13.064 3.28-5.268 0-10.009-1.199-14.223-3.596-4.144-2.397-7.411-5.712-9.799-9.943-2.387-4.301-3.581-9.237-3.581-14.807 0-5.64 1.193-10.577 3.581-14.808s5.655-7.509 9.799-9.836c4.214-2.398 8.955-3.597 14.223-3.597 4.846 0 9.165 1.093 12.958 3.279 3.291 1.862 5.993 4.468 8.112 7.815V843h7.481v78.481zm-28.024-49.501c-3.863 0-7.34.917-10.431 2.75-3.09 1.764-5.549 4.267-7.376 7.51-1.825 3.244-2.738 7.053-2.738 11.424 0 4.301.913 8.109 2.738 11.423 1.827 3.243 4.286 5.782 7.376 7.615 3.091 1.763 6.568 2.645 10.431 2.645 3.932 0 7.444-.882 10.534-2.645 3.161-1.833 5.62-4.372 7.376-7.615 1.826-3.314 2.739-7.122 2.739-11.423 0-4.371-.913-8.18-2.739-11.424-1.756-3.243-4.215-5.746-7.376-7.51-3.09-1.832-6.602-2.749-10.534-2.75zm62.67-6.557c5.197 0 9.799 1.199 13.802 3.597 4.074 2.327 7.269 5.641 9.587 9.941 2.318 4.231 3.476 9.133 3.476 14.703 0 .353-.034.74-.104 1.163v1.164h-46.494c.247 3.415 1.134 6.482 2.666 9.201 1.895 3.174 4.495 5.677 7.796 7.51 3.371 1.763 7.199 2.645 11.483 2.645 3.371 0 6.497-.599 9.376-1.798 2.951-1.199 5.48-3.033 7.588-5.501l4.213 4.865c-2.459 2.962-5.55 5.218-9.272 6.77-3.652 1.551-7.69 2.327-12.115 2.327-5.76 0-10.817-1.199-15.172-3.596-4.355-2.468-7.76-5.817-10.22-10.048-2.458-4.301-3.686-9.202-3.686-14.702 0-5.499 1.157-10.365 3.476-14.597 2.388-4.23 5.619-7.545 9.692-9.942 4.144-2.468 8.781-3.702 13.908-3.702zm0 6.453c-3.792 0-7.199.881-10.219 2.644-3.021 1.762-5.374 4.231-7.06 7.404-1.343 2.529-2.15 5.35-2.422 8.462h39.413c-.268-3.123-1.114-5.944-2.539-8.462-1.686-3.173-4.003-5.642-6.953-7.404-2.95-1.764-6.357-2.644-10.22-2.644z" clip-rule="evenodd"/><path d="M694.452 865.423c3.583 0 7.166.494 10.747 1.481 3.583.916 6.533 2.15 8.85 3.701l-3.266 6.03c-2.458-1.692-5.092-2.891-7.902-3.596-2.744-.767-5.58-1.158-8.429-1.163-4.986 0-8.673.881-11.061 2.644-2.318 1.692-3.477 3.877-3.477 6.557 0 2.115.632 3.773 1.896 4.971 1.335 1.199 3.056 2.151 5.163 2.856 2.32.667 4.677 1.196 7.059 1.586 2.598.423 5.163.952 7.691 1.587 2.599.564 4.951 1.376 7.059 2.433 2.041.925 3.681 2.254 4.92 3.984l.485.703c1.172 1.789 1.758 4.105 1.758 6.948 0 3.243-.912 6.063-2.738 8.461-1.757 2.327-4.355 4.161-7.796 5.5-3.371 1.27-7.481 1.904-12.328 1.904-4.565 0-8.885-.635-12.958-1.904-4.073-1.339-7.27-2.996-9.588-4.971l3.372-5.923c2.248 1.692 5.127 3.173 8.639 4.442 3.512 1.198 7.2 1.798 11.062 1.798 5.268 0 9.061-.81 11.378-2.432 2.318-1.693 3.477-3.914 3.477-6.665 0-2.044-.667-3.63-2.002-4.758-1.264-1.199-2.949-2.081-5.056-2.645-2.108-.634-4.46-1.163-7.059-1.586-2.611-.425-5.212-.92-7.798-1.481-2.527-.564-4.845-1.376-6.952-2.433-2.107-1.129-3.828-2.644-5.163-4.548-1.264-1.904-1.896-4.443-1.896-7.616 0-3.032.843-5.746 2.528-8.143 1.686-2.399 4.144-4.267 7.375-5.607 3.302-1.41 7.305-2.115 12.01-2.115zm97.257.529h16.857v6.24h-16.857v33.211c0 3.245.807 5.748 2.423 7.51 1.685 1.763 4.073 2.645 7.164 2.645 3.301 0 6.041-.952 8.217-2.856l2.635 5.395c-1.475 1.339-3.266 2.326-5.374 2.961-2.036.634-4.144.952-6.322.952-5.197 0-9.2-1.41-12.01-4.23-2.809-2.821-4.213-6.805-4.213-11.953v-33.635h-9.904v-6.24h9.904v-12.269h7.48v12.269z"/><path fill-rule="evenodd" d="M842.514 865.423c5.482 0 10.325 1.199 14.542 3.597 4.283 2.397 7.617 5.711 10.009 9.941 2.458 4.231 3.687 9.133 3.687 14.703 0 5.5-1.229 10.401-3.687 14.702-2.392 4.23-5.726 7.58-10.009 10.048-4.284 2.397-9.134 3.596-14.542 3.596-5.336 0-10.146-1.199-14.431-3.596-4.214-2.468-7.551-5.818-10.009-10.048-2.458-4.301-3.686-9.202-3.687-14.702 0-5.57 1.229-10.472 3.687-14.703 2.458-4.23 5.795-7.544 10.009-9.941 4.214-2.398 9.025-3.597 14.431-3.597zm.11 6.557c-3.935 0-7.448.917-10.538 2.75-3.09 1.764-5.549 4.267-7.375 7.51-1.825 3.244-2.738 7.053-2.738 11.424 0 4.301.913 8.109 2.738 11.423 1.826 3.243 4.285 5.782 7.375 7.615 3.09 1.762 6.567 2.645 10.428 2.645 4.003 0 7.551-.883 10.642-2.645 3.091-1.833 5.512-4.372 7.271-7.615 1.825-3.314 2.737-7.122 2.737-11.423 0-4.371-.912-8.18-2.737-11.424-1.759-3.243-4.18-5.746-7.271-7.51-3.091-1.833-6.602-2.75-10.532-2.75z" clip-rule="evenodd"/><path d="M372.387 865.377c13.489 0 22.691 7.769 22.691 24.144v32.018h-10.039v-30.862c0-10.918-5.227-16.272-14.324-16.272-10.038 0-16.627 6.404-16.627 18.476v28.658h-10.037v-30.862c0-10.918-5.228-16.272-14.325-16.272-10.038 0-16.626 6.404-16.626 18.476v28.658h-10.039v-55.637h9.622v8.293c3.973-5.668 10.769-8.818 19.133-8.818 8.47 0 15.581 3.359 19.241 10.288 4.182-6.299 11.92-10.288 21.33-10.288zm120.808 0c13.488 0 23.004 7.769 23.004 24.144v32.018H506.16v-30.862c0-10.918-5.437-16.272-14.953-16.272-10.665 0-17.566 6.404-17.566 18.476v28.658h-10.038v-55.637h9.62v8.398c4.078-5.669 11.188-8.923 19.972-8.923zm237.046 30.84l33.082-30.265h9.166l-23.617 22.683 25.934 32.846h-9.165l-22.345-27.963-13.055 12.112v15.851h-7.48V843h7.48v53.217z"/></svg>