<svg xmlns="http://www.w3.org/2000/svg" role="img" viewBox="-3.96 -3.96 204.67 322.92"><defs><style>.cls-1{fill:#fff}.cls-2{fill:none}</style></defs><path d="M97.65 100.578a5.925 5.925 0 001.846 0 7.155 7.155 0 01-1.846 0zm70.58-54.008L101.804 3.388a5.93 5.93 0 00-6.464 0L28.917 46.57a5.93 5.93 0 000 9.942l62.664 40.74V67.63a3.496 3.496 0 00-3.496-3.496h-4.608a3.496 3.496 0 01-3.027-5.244l15.096-26.146a3.496 3.496 0 016.055 0l15.096 26.146a3.496 3.496 0 01-3.028 5.244h-4.608a3.496 3.496 0 00-3.496 3.496v29.623l62.664-40.74a5.93 5.93 0 000-9.942z" class="cls-1"/><path d="M95.34 205.289a5.898 5.898 0 002.014.816 69.328 69.328 0 00-3.857-2.015zm-3.759-93.866l-6.59 4.284a64.633 64.633 0 006.59 3.843zm13.985 13.81c5.67 1.814 11.537 3.29 17.533 4.767 6.359 1.568 12.795 3.16 19.11 5.246l-20.623-13.408a125.709 125.709 0 01-16.02-5.48zm0 36.215v.341c0 1.496-1.566 2.709-3.496 2.709h-6.993c-1.93 0-3.496-1.213-3.496-2.709v-3.846c-14.502-3.728-29.041-8.435-41.262-19.694l-8.46 5.5c13.083 12.84 29.277 16.848 46.418 21.073 15.826 3.9 32.132 7.95 45.82 19.474l8.547-5.557c-10.79-9.611-23.53-13.794-37.078-17.291zm-57.089 13.374l22.657 14.73c11.684 2.977 23.409 6.549 33.955 13.602l8.677-5.64c-11.502-7.962-24.778-11.247-38.677-14.673-8.902-2.194-17.955-4.435-26.612-8.02zm43.104-47.898a72.393 72.393 0 01-12.54-7.349l-8.62 5.605a72.521 72.521 0 0021.16 10.894zm29.937 9.488c-5.303-1.307-10.659-2.634-15.952-4.25v7.968q2.94.748 5.926 1.478c17.43 4.296 35.455 8.74 49.908 23.192.355.355.677.722 1.02 1.082l5.808-3.776a5.884 5.884 0 002.024-2.213 58.683 58.683 0 00-1.915-2.03c-13.152-13.151-29.505-17.183-46.82-21.45zM109.91 148.02q-2.167-.535-4.344-1.08v7.692c15.033 3.82 30.165 8.553 42.773 20.404l8.456-5.497-.065-.069c-13.152-13.151-29.505-17.183-46.82-21.45zm-18.329-5c-9.48-3.074-18.702-7.22-26.986-14.052l-8.55 5.558c10.406 9.06 22.585 13.203 35.536 16.596z" class="cls-2"/><path d="M36.788 148.041c-.203-.202-.383-.413-.582-.617l-7.288 4.738a5.92 5.92 0 00-.957.813 58.585 58.585 0 001.89 2.004c13.151 13.151 29.505 17.183 46.82 21.45 14.756 3.638 29.93 7.405 43.011 17.238l8.622-5.605c-12.15-9.562-26.513-13.107-41.608-16.828-17.43-4.297-35.455-8.74-49.908-23.193z" class="cls-2"/><path d="M121.586 121.838l-16.02-10.415v4.936a125.709 125.709 0 0016.02 5.48zm-16.02 3.395v6.93c5.293 1.615 10.65 2.942 15.952 4.25 17.314 4.267 33.667 8.299 46.819 21.45a58.61 58.61 0 011.915 2.03 5.936 5.936 0 00-2.024-7.731l-26.02-16.916c-6.314-2.085-12.75-3.678-19.11-5.246-5.995-1.478-11.862-2.953-17.532-4.767zm-13.985-5.683a64.633 64.633 0 01-6.59-3.843l-5.95 3.868a72.393 72.393 0 0012.54 7.35zm19.911 22.058q-2.985-.736-5.926-1.478v6.81q2.176.546 4.345 1.08c17.314 4.267 33.667 8.299 46.819 21.45l.065.069 5.625-3.657c-.343-.36-.665-.727-1.02-1.082-14.453-14.453-32.477-18.896-49.908-23.192zm-19.911-5.534a72.521 72.521 0 01-21.16-10.894l-5.826 3.788c8.284 6.833 17.506 10.978 26.986 14.051zm0 15.048c-12.951-3.394-25.13-7.537-35.536-16.596l-5.726 3.723c12.22 11.26 26.76 15.966 41.262 19.694zm13.985 10.326c13.547 3.497 26.287 7.68 37.078 17.29l5.695-3.702c-12.608-11.851-27.74-16.583-42.774-20.404zM41.859 143.75l-5.653 3.674c.199.204.38.415.582.617 14.453 14.453 32.477 18.896 49.908 23.193 15.095 3.72 29.458 7.266 41.608 16.828l5.792-3.766c-13.687-11.525-29.993-15.573-45.819-19.474-17.14-4.225-33.335-8.232-46.418-21.073zM29.85 154.978a58.585 58.585 0 01-1.89-2.003 5.913 5.913 0 00.958 9.13l19.56 12.717c8.656 3.584 17.71 5.825 26.611 8.019 13.899 3.426 27.175 6.71 38.677 14.672l5.916-3.846c-13.08-9.833-28.255-13.6-43.012-17.238-17.314-4.267-33.668-8.299-46.82-21.45zm63.647 49.112a69.342 69.342 0 013.857 2.015 5.916 5.916 0 004.452-.816l3.283-2.135c-10.546-7.053-22.271-10.625-33.955-13.603zm-63.501 22.585q-7.892 0-12.716 5.137-4.824 5.138-4.823 14.533v4.635H2.434v8.393h10.023v52.118h9.396v-52.118h12.278v-8.393H21.853v-4.635q0-5.761 2.443-8.833a8.512 8.512 0 017.078-3.07 9.737 9.737 0 013.07.439 10.936 10.936 0 012.318 1.065l2.38-7.14a12.272 12.272 0 00-4.134-1.63 24.417 24.417 0 00-5.012-.5zm19.24 1.253h9.396v83.562h-9.396zm67.176 67.527a23.017 23.017 0 01-7.517 6.39 20.832 20.832 0 01-10.398 2.755 22.657 22.657 0 01-5.513-.626 9.968 9.968 0 01-4.322-2.255 10.189 10.189 0 01-2.756-4.26 19.993 19.993 0 01-.94-6.64v-39.84H75.57v42.722q0 9.898 4.886 14.595 4.886 4.697 14.407 4.697a25.948 25.948 0 0012.403-3.005 31.943 31.943 0 009.146-7.016v8.519h9.396V250.98h-9.396zm54.998-15.034l21.924-29.441h-10.9l-16.787 23.051-16.788-23.051h-10.9l21.925 29.441-23.177 31.07h10.774l18.166-24.806 18.165 24.806h10.9l-23.302-31.07z" class="cls-1"/></svg>