<svg xmlns="http://www.w3.org/2000/svg" role="img" viewBox="-0.26 0.24 305.52 481.52"><defs><style>.cls-1,.cls-4,.cls-5,.cls-7{fill:none}.cls-2{fill:#486bb3}.cls-3{fill:#fff}.cls-4{stroke:#fff}.cls-4,.cls-5,.cls-7{stroke-linecap:round;stroke-linejoin:round;stroke-width:0}.cls-5{stroke:#486bb3}.cls-6{fill:#486cb4}.cls-7{stroke:#486cb4}</style></defs><path d="M152.675 147.55l-.022.005.023-.005zm4.378 3.56c-.001-.012-.006-.024-.008-.036.002.013.007.024.008.037zm17.776-115.306a5.324 5.324 0 00-1.995.33 5.323 5.323 0 011.996-.329 11.346 11.346 0 011.73.132 6.255 6.255 0 011.557.438 6.256 6.256 0 00-1.557-.439 11.35 11.35 0 00-1.731-.132zm9.517-4.826a4.15 4.15 0 00-1.297.772 3.581 3.581 0 00-.522.596 3.581 3.581 0 01.522-.596 4.15 4.15 0 011.297-.772zm-83.69 141.888a4.713 4.713 0 01.954.153 4.712 4.712 0 00-.954-.153zm70.052-132.765v.001a7.055 7.055 0 01.197-1.71 3.477 3.477 0 01.658-1.36 3.477 3.477 0 00-.658 1.359 7.052 7.052 0 00-.197 1.71zm-21.894 125.846v.001l.005-.005-.005.004zM182.545 41.24h6.532v.001h-6.532zm19.911 164.111a51.214 51.214 0 011.322 6.543 51.211 51.211 0 00-1.322-6.543zm6.055-156.525a4.07 4.07 0 00-.746-1.403 4.07 4.07 0 01.745 1.403zm13.911 185.15c.002-.012 0-.023.001-.035-.016.128-.055.256-.084.385.027-.117.067-.229.083-.35zm-14.086-54.46c.053-.052.09-.114.14-.168-.052.057-.094.121-.15.176zm.042-5.643c-.051-.051-.111-.087-.164-.135.056.05.118.09.171.145zM189.051 32.346a3.589 3.589 0 00-.522-.596 4.15 4.15 0 00-1.297-.772 4.15 4.15 0 011.297.772 3.586 3.586 0 01.522.596zm13.651 14.046a3.897 3.897 0 00-1.316.987 4.407 4.407 0 00-.81 1.425 4.407 4.407 0 01.811-1.425 3.895 3.895 0 011.315-.987zM152.631 31.3a4.17 4.17 0 00-.621.45 3.583 3.583 0 00-.522.596 3.582 3.582 0 01.522-.596 4.174 4.174 0 01.621-.45zm-29.796 15.027a12.774 12.774 0 012.543.241q1.183.241 2.06.46-.876-.219-2.06-.461a12.778 12.778 0 00-2.543-.24zM113.541 64.3h6.532v.001h-6.532zm50.634.001h.001V40.013a9.836 9.836 0 012.52-7.102 9.836 9.836 0 00-2.521 7.102zm71.727 272.196a3.72 3.72 0 011.336-.98 4.239 4.239 0 011.915-.4 4.07 4.07 0 011.914.4 3.733 3.733 0 011.292 1.024 3.674 3.674 0 01.757 1.426 6.218 6.218 0 01.285 1.424 6.213 6.213 0 00-.285-1.425 3.674 3.674 0 00-.757-1.425 3.733 3.733 0 00-1.292-1.024 4.07 4.07 0 00-1.914-.4 4.239 4.239 0 00-1.915.4 3.721 3.721 0 00-1.336.979 4.768 4.768 0 00-.847 1.47 10.267 10.267 0 00-.4 1.648 10.27 10.27 0 01.4-1.647 4.768 4.768 0 01.847-1.47zm-.744 9.302a4.39 4.39 0 01-.503-1.642 4.39 4.39 0 00.503 1.642zM89.801 61.474a10.535 10.535 0 003.814 2.521 14.53 14.53 0 005.414.92 14.529 14.529 0 01-5.414-.921 10.534 10.534 0 01-3.814-2.52zm30.272-14.797a8.627 8.627 0 011.293-.24 8.634 8.634 0 00-1.293.24zM247.57 347.452h-.001a14.313 14.313 0 01-2.895.846 20.119 20.119 0 01-2.23.255 20.107 20.107 0 002.231-.255 14.3 14.3 0 002.894-.846zm-4.236-17.122a10.305 10.305 0 013.612 2.382q2.894 3.028 2.894 8.95 0-5.922-2.894-8.95a10.305 10.305 0 00-3.612-2.383zM204.587 46.02a4.386 4.386 0 00-.963.082 4.386 4.386 0 01.963-.082zm-46.575-13.674a3.587 3.587 0 00-.522-.596 4.17 4.17 0 00-.621-.45 4.174 4.174 0 01.621.45 3.584 3.584 0 01.522.596zm-6.506 8.894h6.532v.001h-6.532zm-28.496-.481q.526 0 1.272.066-.745-.066-1.272-.066zm124.325 194.426a12.328 12.328 0 01.307 3.083 12.323 12.323 0 00-.307-3.083l-16.246-70.567c-.048-.208-.12-.407-.179-.612.059.205.13.404.179.612zM113.541 42.468v.001a39.287 39.287 0 014.143-1.162 39.298 39.298 0 00-4.143 1.161zm20.166 19.62a6.944 6.944 0 001.276 1.185 6.941 6.941 0 01-1.276-1.185v-.001a7.502 7.502 0 01-1.468-3.135 18.477 18.477 0 01-.417-4.077V35.498v19.378a18.477 18.477 0 00.417 4.077 7.502 7.502 0 001.468 3.135zm116.088 280.879l.001-.013.007-.136-.007.136zM123.84 283.03a3.61 3.61 0 01-1.572-.356 4.21 4.21 0 01-1.69-5.636c.056-.114.117-.247.18-.383l.125-.268-.125.267c-.063.137-.124.27-.18.384a4.21 4.21 0 001.69 5.636 3.61 3.61 0 001.572.356 4.445 4.445 0 003.902-2.586.055.055 0 00.013-.016.054.054 0 01-.013.016 4.445 4.445 0 01-3.902 2.586zm4.035-2.854l.042-.083a16.234 16.234 0 000 .001zm1.502-4.364c-.091.289-.165.567-.242.846.077-.28.15-.557.243-.847.31-.778.579-1.572.84-2.338a14.854 14.854 0 011.074-2.81 14.856 14.856 0 00-1.075 2.809c-.26.768-.53 1.56-.84 2.34zm-28.872-42.113a3.909 3.909 0 012.045.692l.164.094q-.082-.046-.163-.094a3.909 3.909 0 00-2.046-.692zm33.235 34.32a3.15 3.15 0 01.358-.083l.013-.004-.014.004a3.162 3.162 0 00-.357.083zm-10.544 4.811c-.095.141-.19.267-.285.402.095-.135.19-.26.285-.402zm56.59-8.528c.01-.023.02-.046.028-.069l.003-.009-.003.008-.028.07zm-.496-1.344a12.414 12.414 0 00-.12-.313l-.002.001c.037.088.079.197.122.312zm22.548-28.828q.824.132 1.643.288a55.162 55.162 0 00-1.643-.289zm-108.09 1.539l-.05.018.051-.018a36.3 36.3 0 016.732-1.973 36.305 36.305 0 00-6.733 1.973zm84.14 43.49c.026.064.046.13.073.194l.002.005-.002-.005c-.027-.064-.047-.13-.073-.194zm2.711 3.372c.084.042.16.096.247.132a3.76 3.76 0 001.55.303 3.761 3.761 0 01-1.55-.303c-.087-.036-.163-.09-.247-.132zm-.779-18.318l-.005-.005.005.006v-.001zm-44.825 2.117a50.965 50.965 0 0036.288.093l.084.15-.084-.15a50.965 50.965 0 01-36.288-.093zm41.791 9.323a36.418 36.418 0 00-2.667-6.522 2.727 2.727 0 00-1.717-1.12c-.092-.028-.184-.055-.274-.084l-.011-.004-.007-.012a21.833 21.833 0 010 .001l.007.011.01.004c.092.03.183.056.275.084a2.727 2.727 0 011.717 1.12 36.419 36.419 0 012.666 6.522l.03.089c.062.197.11.381.166.572-.055-.19-.103-.375-.165-.571zm17.608-228.078a11.513 11.513 0 011.707-2.961 11.513 11.513 0 00-1.707 2.961zm36.383 11.728q.877.001 1.622-.065.745-.065 1.228-.154-.482.088-1.228.154-.745.065-1.622.065a4.692 4.692 0 01-4.032-1.841 8 8 0 01-1.36-4.866c0-2.921.764-4.804 2.256-5.698-1.493.894-2.257 2.777-2.257 5.698a8 8 0 001.36 4.867 4.692 4.692 0 004.033 1.84zm-17.027 4.165h.001l-.877-5.305a13.29 13.29 0 01-1.861.591 13.291 13.291 0 001.86-.59zM102.735 234.497l1.698-.292-1.698.292z" class="cls-1"/><path d="M204.499 40.628a10.19 10.19 0 017.76 3.003q2.85 3.003 2.85 8.832 0-5.83-2.85-8.833a10.19 10.19 0 00-7.76-3.004 11.054 11.054 0 00-4.098.789 10.305 10.305 0 00-3.53 2.324 10.304 10.304 0 013.529-2.322 11.053 11.053 0 014.099-.789zm29.128 6.576a5.693 5.693 0 00-1.6-.658 7.718 7.718 0 00-1.995-.263 7.717 7.717 0 011.995.263 5.693 5.693 0 011.6.658zM202.044 58.12a7.578 7.578 0 004.472 1.184 18.883 18.883 0 003.068-.265 18.882 18.882 0 01-3.067.263 7.578 7.578 0 01-4.472-1.183 4.34 4.34 0 01-1.884-3.199h-.002a4.34 4.34 0 001.885 3.2zM89.383 237.229l-.07.015.071-.015c.25-.053.51-.108.71-.162l.049-.016-.05.016c-.2.054-.46.109-.71.162zM219.03 56.015a14.355 14.355 0 00.502 1.863 10.352 10.352 0 00.942 1.965 10.35 10.35 0 01-.941-1.964 14.36 14.36 0 01-.503-1.864zM88.999 237.319a.323.323 0 00.044-.014h.002-.002a.337.337 0 01-.044.014zm132.44-193.316a8.633 8.633 0 013.222-2.411 10.81 10.81 0 014.363-.833 10.27 10.27 0 012.433.263 13.198 13.198 0 012.17.745v-.001a13.191 13.191 0 00-2.17-.745 10.268 10.268 0 00-2.433-.263 10.81 10.81 0 00-4.363.833 8.634 8.634 0 00-3.222 2.411 11.022 11.022 0 00-2.017 3.836 17.03 17.03 0 00-.536 2.479 17.023 17.023 0 01.537-2.478 11.022 11.022 0 012.016-3.836zm18.72-13.722l-6.532 1.052 6.532-1.052zM88.94 237.328l-.007.002.007-.002.026-.004.033-.005-.033.005-.026.004zm-5.02-2.556l.004.007c-.009-.025-.011-.053-.02-.079.008.024.009.048.016.072zM230.734 64.871a14.5 14.5 0 01-2.614-.195 14.506 14.506 0 002.614.196q1.183-.001 2.476-.11 1.293-.11 2.543-.285-1.25.174-2.543.284t-2.476.11zm-54.847 267.841a8.59 8.59 0 011.648 3.384c.015.061.024.123.038.184-.014-.06-.023-.123-.038-.184a8.59 8.59 0 00-1.647-3.384 7.28 7.28 0 00-3.162-2.182 7.28 7.28 0 013.161 2.182zm-81.51 2.939a8.085 8.085 0 012.048-.267 8.084 8.084 0 00-2.048.267zm1.336 18.614q-.602 0-1.236-.033.634.033 1.236.033a14.729 14.729 0 005.166-.846 10.706 10.706 0 001.054-.466 10.704 10.704 0 01-1.054.466 14.727 14.727 0 01-5.166.846zm8.996-3.34a10.473 10.473 0 002.36-3.874 14.46 14.46 0 00.43-1.459 14.44 14.44 0 01-.43 1.459 10.473 10.473 0 01-2.36 3.874zm86.004-4.465a4.387 4.387 0 01-.938-2.303 4.387 4.387 0 00.938 2.302zm5.877 7.816q.623-.033 1.245-.1c.192-.02.37-.048.556-.072-.186.024-.364.051-.556.072q-.621.067-1.245.1zm-6.593-23.835a11.393 11.393 0 013.918-.79 11.39 11.39 0 00-3.918.789 10.521 10.521 0 00-3.562 2.36 11.922 11.922 0 00-2.471 3.771 11.922 11.922 0 012.471-3.77 10.521 10.521 0 013.562-2.36zm-78.096 11.711c-.004-.189.012-.377.015-.566-.003.189-.019.377-.015.566zm71.528 3.901c.075.304.151.609.245.909.012.035.028.068.04.103-.012-.035-.028-.068-.04-.103-.094-.3-.17-.604-.245-.909zm10.843-10.936a4.242 4.242 0 00-.494.016 4.243 4.243 0 01.494-.016zm-103.68 18.747q-1.247-.178-2.405-.4 1.158.222 2.405.4 1.291.178 2.582.268.668.066 1.303.1-.635-.034-1.303-.1-1.291-.09-2.582-.268zm10.893-289.08q1.226-.132 2.302-.33a18.294 18.294 0 001.95-.46 18.312 18.312 0 01-1.951.46q-1.075.198-2.301.33zm120.886 283.648c-.044.007-.088.01-.132.016.044-.007.088-.009.132-.016zm-90.767-15.023a12.23 12.23 0 012.25 6.818 12.23 12.23 0 00-2.25-6.818zm73.312 9.545l.007-.136-.007.136zm-7.437-6.413a3.673 3.673 0 01.757 1.426 6.213 6.213 0 01.269 1.293 6.213 6.213 0 00-.269-1.294 3.673 3.673 0 00-.757-1.425 3.733 3.733 0 00-1.292-1.024 4.069 4.069 0 00-1.42-.388 4.07 4.07 0 011.42.388 3.733 3.733 0 011.292 1.024zm-6.458-.044a3.72 3.72 0 011.336-.98 4.24 4.24 0 01.934-.312 4.24 4.24 0 00-.934.312 3.721 3.721 0 00-1.336.979 4.764 4.764 0 00-.846 1.47 10.255 10.255 0 00-.4 1.648 10.262 10.262 0 01.4-1.647 4.763 4.763 0 01.846-1.47zm13.939 5.166v-.001a14.223 14.223 0 00-1.697-7.372 14.225 14.225 0 011.697 7.373zm-37-11.932a13.306 13.306 0 012.42.179 13.311 13.311 0 00-2.42-.179zm2.42.179a12.983 12.983 0 012.346.62 12.983 12.983 0 00-2.346-.62zm33.377-95.662c-.082.056-.161.112-.243.166l-.012.007h.001l.011-.007c.082-.054.161-.11.243-.166a2.79 2.79 0 011.712-.654h.013-.013a2.789 2.789 0 00-1.712.654zm-50.569 101.643l1.062-5.227-1.062 5.227zm-26.77.65a3.674 3.674 0 01.758 1.426 6.22 6.22 0 01.311 1.647 6.222 6.222 0 00-.311-1.648 3.674 3.674 0 00-.758-1.425 3.733 3.733 0 00-1.291-1.024 4.061 4.061 0 00-.458-.187 4.062 4.062 0 01.458.187 3.732 3.732 0 011.291 1.024zm41.364-6.813l-.081.001.082-.001zm-48.909 15.208a4.38 4.38 0 01-.159-.78 4.377 4.377 0 00.16.78zm.064-14.495a11.399 11.399 0 014.186-.802 11.397 11.397 0 00-4.186.801 10.518 10.518 0 00-3.562 2.36 11.924 11.924 0 00-2.539 3.92 11.926 11.926 0 012.539-3.919 10.52 10.52 0 013.562-2.36zm-.325 22.868c.05.02.097.046.147.066a14.94 14.94 0 005.522.935 14.94 14.94 0 01-5.522-.935c-.05-.02-.097-.046-.147-.066zm64.349-11.157c-.002-.093.008-.186.007-.28 0 .094-.009.186-.007.28zm-51.357-8.743a8.642 8.642 0 00-.599-.697 10.31 10.31 0 00-.811-.743 10.31 10.31 0 01.811.743 8.653 8.653 0 01.599.697zm-7.435-3.768a9.936 9.936 0 00-1.046-.002 9.936 9.936 0 011.046.002zm43.213 5.742a13.727 13.727 0 00-1.509.09 13.727 13.727 0 011.509-.089 3.45 3.45 0 013.162 1.336 8.933 8.933 0 01.434 1.086 8.933 8.933 0 00-.434-1.086 3.451 3.451 0 00-3.162-1.337zm10.643 5.077v-.022.022zm-66.12 1.816a15.695 15.695 0 00.708 4.686 10.766 10.766 0 001.098 2.309 10.763 10.763 0 01-1.097-2.31 15.696 15.696 0 01-.71-4.685zm-25.767 10.653q.891.267 2.049.535-1.158-.268-2.049-.535zm141.703-10.777c-.004-.179.011-.357.014-.536-.003.179-.018.357-.014.536zM102.186 50.448a6.792 6.792 0 00-.285-1.622 6.788 6.788 0 01.285 1.622zM240.221 354.31a14.555 14.555 0 01-2.45-.163 14.555 14.555 0 002.45.163zm-2.795-.22a15.334 15.334 0 01-2.298-.578 15.321 15.321 0 002.298.577zM100.572 46.853a3.978 3.978 0 00-.688-.44 4.138 4.138 0 00-.457-.182 4.138 4.138 0 01.457.183 3.979 3.979 0 01.688.439zm-13.73 6.093v.001c-.002.18.012.358.017.538-.005-.18-.019-.359-.017-.539zm9.25-6.554a3.9 3.9 0 00-1.316.987 4.416 4.416 0 00-.81 1.425 4.418 4.418 0 01.811-1.425 3.9 3.9 0 011.315-.987zm-.657 11.728a4.338 4.338 0 01-1.885-3.2h-.001a4.338 4.338 0 001.886 3.2z" class="cls-1"/><path d="M97.889 40.628a10.19 10.19 0 017.76 3.003q2.85 3.003 2.85 8.833 0-5.83-2.849-8.833a10.19 10.19 0 00-7.76-3.004 11.05 11.05 0 00-4.099.789 10.3 10.3 0 00-3.53 2.324 10.3 10.3 0 013.53-2.323 11.049 11.049 0 014.098-.789zM241.47 354.276q.623-.033 1.245-.1c.204-.022.394-.051.59-.076-.196.025-.386.054-.59.076q-.621.067-1.245.1zm4.57-.646q.502-.11.995-.255c.027-.008.053-.019.08-.026-.027.007-.053.018-.08.026q-.493.144-.995.256zM101.644 59.224c-.578.052-1.158.08-1.738.079a7.577 7.577 0 01-4.471-1.183 7.576 7.576 0 004.471 1.184c.58 0 1.16-.027 1.738-.08zm133.233 271.217a11.39 11.39 0 013.905-.788 11.392 11.392 0 00-3.905.787 10.521 10.521 0 00-3.562 2.36 11.92 11.92 0 00-2.44 3.706 11.92 11.92 0 012.44-3.705 10.52 10.52 0 013.562-2.36zm29.391 18.124a6.624 6.624 0 01-1.926.364 6.622 6.622 0 001.926-.364 1.376 1.376 0 00.757-1.381 1.643 1.643 0 00-.98-1.38 17.15 17.15 0 00-2.983-1.38l-.05-.02.05.02a17.148 17.148 0 012.983 1.381 1.643 1.643 0 01.98 1.38 1.376 1.376 0 01-.757 1.38zm-35.959-2.512c.075.304.151.609.245.909a10.787 10.787 0 00.659 1.562 10.787 10.787 0 01-.659-1.562c-.094-.3-.17-.604-.245-.909zm42.283-15.212a17.917 17.917 0 00-3.118-.802 20.407 20.407 0 00-4.085-.4 20.403 20.403 0 014.085.401 17.915 17.915 0 013.118.801zm-1.604 21.687v.001a5.939 5.939 0 002.619-4.48 5.939 5.939 0 01-2.619 4.48zm-7.347 1.782a20.162 20.162 0 002.858-.195 20.17 20.17 0 01-2.859.195zM66.284 342.509a9.492 9.492 0 00-.009 1.19 9.49 9.49 0 01.009-1.19zm5.522 6.012zm138.052-24.092l6.635-1.069-6.635 1.069v19.683c0 .077.01.154.01.231 0-.077-.01-.154-.01-.231zm12.513 24.003a12.534 12.534 0 002.093-.579l.936 5.165-.936-5.166a12.53 12.53 0 01-2.093.58zm-103.256-10.465a4.764 4.764 0 01.846-1.47 3.72 3.72 0 011.336-.98 4.235 4.235 0 01.833-.285 4.235 4.235 0 00-.833.285 3.721 3.721 0 00-1.336.979 4.766 4.766 0 00-.846 1.47 10.269 10.269 0 00-.401 1.648h.001a10.268 10.268 0 01.4-1.647zm142.302.089a9.492 9.492 0 00.001 0 1.663 1.663 0 01-.503-.577 1.663 1.663 0 00.502.577zM68.62 354.198q.634.041 1.272.023a34.107 34.107 0 005.61-.446 34.112 34.112 0 01-5.611.446q-.637.018-1.27-.023zm190.81-24.038a10.653 10.653 0 00-2.777 1.394c-.138.106-.263.223-.39.338.127-.115.252-.232.39-.338a10.651 10.651 0 012.777-1.394zM59.649 343.31c0 .074.004.148.005.222 0-.074-.006-.148-.005-.222zm21.23-296.809a10.536 10.536 0 00-2.455-.263 5.175 5.175 0 00-4.318 1.798 7.4 7.4 0 00-1.425 4.734 7.4 7.4 0 011.425-4.733 5.175 5.175 0 014.318-1.798 10.54 10.54 0 012.455.263 16.513 16.513 0 012.017.614l1.359-5.217-1.359 5.216a16.492 16.492 0 00-2.017-.614zM68.845 61.407a9.992 9.992 0 01-2.148-3.837 16.263 16.263 0 01-.679-4.8 13.583 13.583 0 01.81-4.713 13.582 13.582 0 00-.811 4.714 16.262 16.262 0 00.68 4.8 9.993 9.993 0 002.148 3.836zm9.842-2.103a15.944 15.944 0 002.542-.22 10.772 10.772 0 002.5-.701l.157.91-.157-.911a10.77 10.77 0 01-2.499.701 15.952 15.952 0 01-2.542.22q-3.333 0-4.67-1.71a7.662 7.662 0 01-1.337-4.823 7.662 7.662 0 001.337 4.824q1.337 1.71 4.669 1.71zm184.08 279.492c-.09-.038-.197-.08-.28-.117l-.12-.067.12.067c.083.036.19.079.28.117zM61.57 350.88c.073.104.138.213.216.313.065.078.14.144.209.22-.068-.076-.144-.142-.209-.22-.078-.1-.143-.21-.216-.313zm113.694-178.305a51.575 51.575 0 015.592 3.164 51.567 51.567 0 00-5.591-3.164 51.036 51.036 0 00-17.81-4.953l-.006-.101.005.101a51.036 51.036 0 0117.81 4.953zm-40.163 56.482l-.034-.042.033.042h.001zm21.422-72.264l-.026.21.026-.209c.062-.435.138-.85.213-1.25a16.294 16.294 0 00.325-2.496 16.295 16.295 0 01-.325 2.495c-.075.402-.151.816-.213 1.25zm-.446 7.132a2.715 2.715 0 001.063 1.747 2.715 2.715 0 01-1.063-1.748 35.932 35.932 0 01.42-6.921 35.927 35.927 0 00-.42 6.922zm-17.124 69.953l-.059-.076.008-.018-.009.018.06.076zm10.171-81.841l-.001.074.001-.074zm7.934.273c0-.134-.005-.265-.005-.382v-.028.028zm.306 13.584l.005.093-.004-.093v-.013l-.01-.01.009.009zm41.887 11.396l-.127.129a35.985 35.985 0 01-4.82 4.392 35.98 35.98 0 004.82-4.391zm-46.166 60.037c-.042 0-.083 0-.126.002a3.45 3.45 0 00-1.304.311 3.45 3.45 0 011.304-.311q.063-.003.126-.002zm3.021 1.808l.01.018-.009-.018a3.467 3.467 0 00-3.022-1.808 3.467 3.467 0 013.021 1.808zm-16.958-6.378c.009-.091.03-.18.03-.273v-.013c-.001.095-.02.19-.03.286zm.918 24.414h.001l3.545-6.413-3.546 6.413zm51.513-74.836h.011l-.011-.001-1.483 1.058 1.483-1.057zm10.281-7.804a12.08 12.08 0 01-.001 0 16.884 16.884 0 00-1.768 1.823 16.88 16.88 0 011.769-1.823zM46.956 350.284c.19.287.383.574.564.864q.935 1.381 1.648 2.538-.713-1.158-1.647-2.537c-.182-.29-.375-.577-.565-.865zm45.238-121.272a36.421 36.421 0 006.954-1.15 4.613 4.613 0 001.209-1.109 4.612 4.612 0 01-1.209 1.108 36.418 36.418 0 01-6.954 1.15l-.094.01c-.416.035-.816.05-1.207.066.39-.016.79-.031 1.207-.065zm6.304-48.872l-.034-.024.034.024.025.018.042.034-.042-.034zm51.164-23.279l-.007-.062.006.062a36.53 36.53 0 01.43 7.06 36.53 36.53 0 00-.429-7.06zm31.885 32.584l-.001-.001-15.783 11.191 15.784-11.19zm-72.332-.478l.017.117.001.008-.001-.01zm48.841-10.849l.06.009-.06-.01 1.166 20.551zm-24.008 37.813l.004-.005a3.426 3.426 0 01-.421.404 3.431 3.431 0 00.417-.399zm-45.77 13.402c-.206.04-.454.1-.698.16l-.31.075c.097-.022.202-.048.309-.074.245-.06.493-.12.7-.16zM43.424 345.627q-.506-.596-1.064-1.143.557.546 1.063 1.142a32.359 32.359 0 012.182 2.716c.197.266.383.536.573.804-.19-.268-.375-.537-.572-.803a32.37 32.37 0 00-2.182-2.716zm116.471-145.065l.006.007a3.433 3.433 0 01-.295-.489 3.44 3.44 0 00.289.482zm-24.142 28.433l-.037.003.037-.003zm-21.533-46.584q.14-.023.28-.042a9.382 9.382 0 00-.281.042 2.716 2.716 0 01-2.034-.264 2.716 2.716 0 002.035.264zm-9.927-7.804a16.484 16.484 0 011.748 1.808 31.956 31.956 0 01.001.001 16.484 16.484 0 00-1.749-1.81c-.175-.15-.42-.342-.638-.512l-.186-.146.186.146c.217.17.463.363.638.513zm-17.088 54.979l.028-.01-.029.01-.028.007a3.984 3.984 0 00-.7.16c-.013.004-.024.012-.037.016a3.993 3.993 0 01.737-.175zm-25.941 16.169q-.382-.479-.715-.993a12.385 12.385 0 01-1.706-9.56l16.22-70.567-16.221 70.567a12.385 12.385 0 001.707 9.561q.333.514.715.992zm-18.063 90.741q1.07-1.157 2.049-2.27.979-1.158 1.826-2.183.89-1.024 1.514-1.78h7.88v-.001h-7.881q-.624.758-1.514 1.782-.846 1.024-1.826 2.182-.98 1.113-2.049 2.271-1.023 1.156-2.003 2.226.98-1.068 2.004-2.227zm149.283-128.229q.475 1.802.786 3.642-.31-1.838-.786-3.642zm.786 3.643a41.234 41.234 0 01.573 7.445 41.234 41.234 0 00-.573-7.446zm13.76 15.86a36.512 36.512 0 006.97 1.15l.048.005-.047-.005a36.507 36.507 0 01-6.97-1.15 3.918 3.918 0 01-1.569-1.53 3.918 3.918 0 001.568 1.53zM34.562 320.2l6.634-1.07v-.001l-6.635 1.069v33.488h.001V320.2zM141.4 201.384l.016.012a3.424 3.424 0 00.534.311 3.43 3.43 0 01-.534-.311zm50.093 31.001c-.03.083-.064.164-.094.247.03-.083.064-.164.094-.247l-20.434-3.454zM143.29 202.05h.01a3.436 3.436 0 01-.582-.078 3.433 3.433 0 00.571.078zm52.286-11.83l.182-.165-.182.164zm-7.821 6.991a41.247 41.247 0 012.003 3.667 41.238 41.238 0 00-2.003-3.667l-15.327 13.718zm-15.326 13.766l-.008.007a3.436 3.436 0 00-.363.37 3.394 3.394 0 01.364-.37zm41.305 25.135c-.379-.163-.772-.333-1.185-.493l-.11-.038c-.171-.069-.346-.128-.518-.194.172.066.347.125.518.194l.109.038q.598.234 1.185.493a16.178 16.178 0 002.35.871c.022.006.045.01.067.015-.02-.006-.046-.01-.066-.016a16.17 16.17 0 01-2.35-.87zm5.138-6.642a53.764 53.764 0 01-.297-.072c-.251-.063-.51-.127-.715-.165q.36.073.714.165l.298.072zm-47.506-16.806c-.005.021-.005.042-.01.064a3.16 3.16 0 01.082-.267c-.023.068-.052.133-.072.203zm45.845 24.568l-.033-.005a.292.292 0 01-.045-.015.261.261 0 00-.031-.01 20.156 20.156 0 00-.376-.078l-.005-.001.005.001q.188.037.376.078a.265.265 0 01.03.01.292.292 0 00.046.015l.033.005.026.003a3.977 3.977 0 00.71.162c.012.002.024 0 .036.001a3.985 3.985 0 01-.746-.163zm-20.381-48.137l.121-.109.01-.009-.01.009-.12.109zm-34.613 69.206a40.704 40.704 0 01-4.069.69 40.703 40.703 0 004.07-.69q2.009-.454 3.96-1.104-1.954.65-3.961 1.103zm42.383-76.236l.071-.039a15.837 15.837 0 002.14-1.287 15.836 15.836 0 01-2.14 1.287l-.07.039zm2.803-1.8l.275-.225.007-.006-.007.006-.275.225zm-60.532 18.498l.001-.019.084-.042-.085.042v.019zm50.337-11.238a2.712 2.712 0 01.482-.768c.113-.097.232-.187.347-.283-.115.096-.234.186-.347.283a2.712 2.712 0 00-.482.768zm-47.155 51.619a3.377 3.377 0 01.263-.366 3.377 3.377 0 00-.263.366l-.008.018zm-39.569-48.933l-1.25-1.115 1.25 1.115a50.961 50.961 0 00-8.025 35.473l-.393.114.394-.114a50.961 50.961 0 018.024-35.473zm56.481 41.929c.003-.059.013-.118.02-.178-.007.06-.017.119-.02.179zm3.303-3.222a3.353 3.353 0 00-3.243 2.757 3.43 3.43 0 013.243-2.757zm.758.055l-.02-.004a3.407 3.407 0 00-.663-.053 3.446 3.446 0 01.663.053zm25.935-40.009l.001-.018-.001.018z" class="cls-1"/><path d="M296.42 80.9V55.094a45.717 45.717 0 00-45.583-45.583H55.34A45.717 45.717 0 009.757 55.094V396.77h286.708V80.9zm-77.534-30.583a17.03 17.03 0 01.536-2.478v-.001a11.022 11.022 0 012.017-3.836 8.634 8.634 0 013.222-2.41 10.81 10.81 0 014.363-.834 10.268 10.268 0 012.433.263 13.191 13.191 0 012.17.745V31.333l6.532-1.052h.001v33.275q-.877.264-2.017.504-1.14.241-2.39.417-1.25.175-2.543.285-1.293.109-2.476.11a14.624 14.624 0 01-5.086-.833 10.204 10.204 0 01-3.77-2.39 10.49 10.49 0 01-2.346-3.771 15.405 15.405 0 01-.811-4.975 17.032 17.032 0 01.165-2.586zm-24.492-2.742a11.513 11.513 0 011.707-2.961l.008-.012c.141-.176.298-.34.45-.509.105-.117.201-.24.311-.353l.001-.001a10.305 10.305 0 013.53-2.324 11.054 11.054 0 014.098-.789 10.19 10.19 0 017.76 3.004q2.85 3.003 2.85 8.833v.001q-.001.57-.044 1.25-.044.68-.088 1.206H200.16a4.34 4.34 0 001.885 3.199 7.578 7.578 0 004.472 1.183 18.882 18.882 0 003.067-.263c.153-.025.308-.036.461-.065.327-.055.647-.14.968-.22a13.29 13.29 0 001.861-.591l.877 5.305h-.001v.001a9.022 9.022 0 01-1.404.525 18.294 18.294 0 01-1.95.46q-1.075.198-2.302.33a23.018 23.018 0 01-2.455.131 14.525 14.525 0 01-5.414-.92 10.535 10.535 0 01-3.815-2.52h.001a10 10 0 01-2.236-3.794 15.016 15.016 0 01-.723-4.735 14.095 14.095 0 01.942-5.37zm-11.867-15.23a3.581 3.581 0 01.522-.595 4.158 4.158 0 015.48 0 3.589 3.589 0 011.162 2.827 3.587 3.587 0 01-1.161 2.828 3.997 3.997 0 01-2.74 1.03h-.001a3.995 3.995 0 01-2.74-1.03 3.583 3.583 0 01-1.162-2.828 3.585 3.585 0 01.64-2.231zm6.55 8.895v23.061h-6.532V41.24zm-22.381-8.329q2.52-2.63 7.475-2.63a12.663 12.663 0 013.047.307 14.745 14.745 0 012.039.657l-1.14 5.13a6.255 6.255 0 00-1.557-.438 11.346 11.346 0 00-1.73-.132 5.323 5.323 0 00-1.996.329 3.08 3.08 0 00-1.271.898 3.477 3.477 0 00-.658 1.36 7.055 7.055 0 00-.197 1.71v1.139h8.067v5.436h-8.067V64.3h-6.533V40.013a9.836 9.836 0 012.521-7.102zm-15.583.123a3.583 3.583 0 01.897-1.284 4.155 4.155 0 015.48 0 3.587 3.587 0 011.162 2.827 3.585 3.585 0 01-1.162 2.828 4.16 4.16 0 01-5.48 0 3.583 3.583 0 01-1.161-2.828 3.583 3.583 0 01.264-1.543zm6.925 8.206v23.061h-6.532V41.24zm-26.216-5.742v-.001l6.533-1.052v6.795h7.847v5.438h-7.847v8.11a6.451 6.451 0 00.723 3.288 2.078 2.078 0 00.453.537 3.743 3.743 0 002.462.69 12.464 12.464 0 002.17-.197 11.137 11.137 0 002.039-.548l.92 5.086a18.489 18.489 0 01-2.63.833 15.331 15.331 0 01-3.551.35 11.686 11.686 0 01-4.428-.723 6.944 6.944 0 01-2.806-2.016 7.502 7.502 0 01-1.468-3.135 18.477 18.477 0 01-.417-4.077zM113.541 64.3V42.468a39.298 39.298 0 014.143-1.161 23.884 23.884 0 015.326-.548q.527 0 1.272.066.744.066 1.491.175.744.11 1.49.263.326.063.644.157.318.093.627.216l-1.096 5.392q-.877-.219-2.06-.46a12.774 12.774 0 00-2.543-.24 11.874 11.874 0 00-1.469.109 8.627 8.627 0 00-1.293.24v17.624h-6.532zM86.842 52.946a14.096 14.096 0 01.942-5.37 11.507 11.507 0 012.477-3.836 10.3 10.3 0 013.53-2.324 11.05 11.05 0 014.099-.789 10.19 10.19 0 017.76 3.004q2.849 3.003 2.849 8.833 0 .57-.044 1.25t-.087 1.206H93.55a4.338 4.338 0 001.885 3.2 7.577 7.577 0 004.471 1.183c.58 0 1.16-.027 1.738-.08q.9-.082 1.791-.249a13.291 13.291 0 002.828-.81l.877 5.305a9.024 9.024 0 01-1.403.525 18.294 18.294 0 01-1.95.46q-1.076.198-2.302.33a23.022 23.022 0 01-2.456.131 14.53 14.53 0 01-5.414-.92 10.535 10.535 0 01-3.814-2.521 10 10 0 01-2.236-3.793q-.185-.573-.323-1.159c-.026-.113-.042-.228-.066-.341-.059-.279-.12-.557-.162-.838-.014-.092-.02-.185-.031-.277a14.86 14.86 0 01-.103-.917c-.016-.22-.015-.443-.021-.664-.005-.18-.019-.358-.017-.538zm-20.014-4.889a11.03 11.03 0 016.072-6.466 12.299 12.299 0 014.998-.965 16.133 16.133 0 013.376.329 16.47 16.47 0 012.981.943v.001l-1.359 5.217a16.513 16.513 0 00-2.017-.614 10.54 10.54 0 00-2.455-.263 5.175 5.175 0 00-4.318 1.798 7.4 7.4 0 00-1.425 4.733 7.662 7.662 0 001.337 4.823q1.337 1.71 4.67 1.71a15.952 15.952 0 002.542-.22 10.77 10.77 0 002.499-.7l.157.91.764 4.438a15.316 15.316 0 01-2.85.834 18.823 18.823 0 01-3.77.35 14.196 14.196 0 01-5.437-.943 10.23 10.23 0 01-3.748-2.564v-.001a9.993 9.993 0 01-2.148-3.836 16.262 16.262 0 01-.68-4.8 13.582 13.582 0 01.811-4.714zM287.942 389.35H17.154V84.777h270.788z" class="cls-2"/><path d="M243.401 339.39a6.218 6.218 0 00-.285-1.423 3.674 3.674 0 00-.757-1.426 3.733 3.733 0 00-1.292-1.024 4.07 4.07 0 00-1.914-.4 4.239 4.239 0 00-1.915.4 3.72 3.72 0 00-1.336.98 4.768 4.768 0 00-.847 1.47 10.27 10.27 0 00-.4 1.647h8.773c-.004-.075-.02-.148-.027-.223zm-146.976-4.006a8.085 8.085 0 00-2.048.267 5.79 5.79 0 00-1.603.668v12.068q.49.09 1.247.178.757.044 1.647.044a4.768 4.768 0 004.097-1.87 8.13 8.13 0 001.38-4.943q0-6.412-4.72-6.412zm102.08 3.876a6.213 6.213 0 00-.269-1.293 3.673 3.673 0 00-.757-1.426 3.733 3.733 0 00-1.292-1.024 4.069 4.069 0 00-1.915-.4 4.239 4.239 0 00-1.915.4 3.72 3.72 0 00-1.336.98 4.763 4.763 0 00-.846 1.47 10.262 10.262 0 00-.4 1.647h8.772c-.006-.119-.03-.236-.042-.354zm-78.544-2.763a4.764 4.764 0 00-.846 1.47 10.268 10.268 0 00-.4 1.647h8.772a6.22 6.22 0 00-.311-1.647 3.674 3.674 0 00-.758-1.426 3.732 3.732 0 00-1.291-1.024 4.069 4.069 0 00-1.915-.4l-.022.001a4.398 4.398 0 00-1.893.4 3.72 3.72 0 00-1.336.979z" class="cls-3"/><path d="M17.154 389.35h270.788V84.777H17.154zm62.712-36.465a34.672 34.672 0 01-4.364.89 34.107 34.107 0 01-5.61.446q-.637.018-1.272-.023a13.503 13.503 0 01-3.717-.779 7.64 7.64 0 01-2.908-2.007c-.068-.074-.144-.141-.209-.219-.078-.1-.143-.21-.216-.313a8.966 8.966 0 01-1.431-3.16 18.561 18.561 0 01-.485-4.188c0-.074-.006-.148-.005-.222v-13.048h6.635v12.247a9.49 9.49 0 00.846 4.631 3.366 3.366 0 003.162 1.425q.712 0 1.514-.044c.505-.057.952-.113 1.35-.17l.075-.01v-18.08h6.635zm27.632-7.293a14.46 14.46 0 01-.429 1.459 10.473 10.473 0 01-2.36 3.874 10.712 10.712 0 01-3.83 2.494 14.729 14.729 0 01-5.166.846q-.601 0-1.236-.033t-1.303-.1q-1.291-.09-2.582-.268-1.247-.178-2.405-.4-1.158-.268-2.049-.535v-32.73l6.636-1.07v11.668a12.428 12.428 0 012.315-.757 11.898 11.898 0 012.583-.267 10.347 10.347 0 014.409.89 8.428 8.428 0 013.206 2.449 11.08 11.08 0 011.96 3.875 17.333 17.333 0 01.668 4.987 14.446 14.446 0 01-.417 3.618zm26.358-2.638q-.045.668-.09 1.203h-15.052a4.38 4.38 0 00.16.779c.015.058.017.121.036.179a4.394 4.394 0 00.276.614c.044.087.07.183.12.268a4.417 4.417 0 00.36.48c.076.096.135.204.22.294a4.408 4.408 0 00.743.636 7.696 7.696 0 004.543 1.203 20.125 20.125 0 003.562-.312 14.304 14.304 0 002.895-.846l.89 5.388q-.344.163-.701.297-.357.134-.724.238a15.575 15.575 0 01-2.004.445q-1.068.223-2.315.356a23.4 23.4 0 01-2.494.134 14.94 14.94 0 01-5.522-.935c-.05-.02-.097-.046-.147-.066a11.125 11.125 0 01-3.728-2.473 11.353 11.353 0 01-2.271-3.874 15.695 15.695 0 01-.708-4.686c0-.041-.004-.082-.004-.123-.004-.19.012-.378.015-.567.005-.274.002-.548.022-.82.013-.172.044-.341.063-.512a14.441 14.441 0 01.406-2.214q.182-.669.429-1.32a11.924 11.924 0 012.539-3.92 10.518 10.518 0 013.562-2.36 11.397 11.397 0 014.186-.8 9.936 9.936 0 011.045.001q.52.028 1.032.107a10.277 10.277 0 015.805 2.964 8.642 8.642 0 01.599.697 12.23 12.23 0 012.25 6.818q.046.695.046 1.436 0 .579-.044 1.291zm19.332-7.063l-.051.25q-.891-.223-2.093-.446a11.898 11.898 0 00-2.583-.267 10.476 10.476 0 00-1.514.134 7.523 7.523 0 00-1.291.222v17.902h-6.636v-22.177a37.3 37.3 0 014.186-1.157 23.644 23.644 0 015.433-.58 11.333 11.333 0 011.292.09 13.168 13.168 0 011.514.178 13.501 13.501 0 011.514.267 6.181 6.181 0 011.291.356v.001zm24.837 4.569v13.226h-6.635v-12.424a8.943 8.943 0 00-.846-4.542 3.45 3.45 0 00-3.162-1.336 13.727 13.727 0 00-1.509.089h-.005q-.802.044-1.425.133v18.08h-6.636v-22.622a34.7 34.7 0 014.365-.891 34.11 34.11 0 015.529-.444l.08-.001h.002c.06-.002.118.004.177.003a13.311 13.311 0 012.42.179 12.983 12.983 0 012.346.62 7.28 7.28 0 013.162 2.182 8.59 8.59 0 011.647 3.384c.015.061.024.123.038.184a17.609 17.609 0 01.451 4.158v.022zm26.935 1.203v.051c-.002.335-.015.705-.037 1.104l-.007.136q-.045.668-.09 1.203h-15.05a4.387 4.387 0 00.937 2.302 5.36 5.36 0 00.449.51 3.723 3.723 0 00.527.438 7.696 7.696 0 004.543 1.203q.896.001 1.788-.077.891-.078 1.774-.235a14.305 14.305 0 002.895-.846l.891 5.388a9.17 9.17 0 01-1.425.535 15.569 15.569 0 01-2.004.445c-.548.114-1.142.205-1.76.284-.186.024-.364.051-.556.072q-.621.067-1.245.1-.624.034-1.249.034a14.938 14.938 0 01-5.522-.935 11.131 11.131 0 01-3.875-2.54 10.773 10.773 0 01-2.23-3.77c-.012-.035-.028-.068-.04-.103-.094-.3-.17-.605-.245-.909-.023-.09-.053-.18-.073-.27-.03-.13-.048-.262-.074-.393-.054-.268-.112-.535-.152-.805-.018-.12-.024-.241-.04-.362-.034-.283-.072-.565-.092-.85-.016-.229-.015-.459-.02-.688-.005-.178-.018-.354-.017-.532v-.001c-.002-.094.008-.186.007-.28a14.447 14.447 0 01.928-5.152c.02-.05.047-.098.068-.149a11.922 11.922 0 012.471-3.771 10.521 10.521 0 013.562-2.36 11.39 11.39 0 013.918-.788c.09-.002.178-.013.268-.013a10.306 10.306 0 017.882 3.073 8.658 8.658 0 01.679.802 9.09 9.09 0 01.519.776 14.223 14.223 0 011.697 7.372zm17.768 12.201a15.562 15.562 0 01-3.607.357 12.208 12.208 0 01-4.498-.713 7.345 7.345 0 01-2.85-2.048 8.03 8.03 0 01-1.515-3.207 19.792 19.792 0 01-.39-3.91c0-.077-.01-.154-.01-.231v-19.683l6.635-1.069v6.902h7.972v5.522h-7.972v8.239a6.723 6.723 0 00.713 3.34 2.17 2.17 0 00.47.546 3.854 3.854 0 002.513.701 13.801 13.801 0 002.05-.162c.044-.007.088-.009.132-.016a12.53 12.53 0 002.093-.58l.936 5.166a18.873 18.873 0 01-2.672.846zm41.317-8.059a17.148 17.148 0 00-2.983-1.381l-.05-.02q-1.528-.57-2.8-1.182a8.77 8.77 0 01-2.138-1.47 6.27 6.27 0 01-1.381-2.093 7.668 7.668 0 01-.49-2.895 6.253 6.253 0 012.06-4.872c.127-.115.252-.232.39-.338a10.655 10.655 0 015.829-1.928q.446-.012.895.013h.012a20.407 20.407 0 014.085.4 17.917 17.917 0 013.118.802l-1.158 5.166c-.13-.044-.261-.08-.391-.121q-.53-.171-1.067-.32-.537-.15-1.08-.27a13.378 13.378 0 00-3.029-.313q-3.117 0-3.117 1.737a1.791 1.791 0 00.134.712c.008.017.022.03.031.047a1.663 1.663 0 00.503.577c.112.075.249.158.392.243.164.097.351.202.556.313l.12.067.28.117c.427.18.914.376 1.502.596a25.178 25.178 0 013.607 1.603 7.56 7.56 0 011.012.618c.091.065.181.13.269.198a7.553 7.553 0 01.946.876 4.736 4.736 0 011.158 2.004 8.489 8.489 0 01.356 2.583 5.943 5.943 0 01-2.628 5.255 10.419 10.419 0 01-4.489 1.586 20.162 20.162 0 01-2.858.195 21.464 21.464 0 01-5.21-.535 21.158 21.158 0 01-2.85-.89l1.113-5.389a23.487 23.487 0 003.473 1.07 17.903 17.903 0 003.518.355q.329.02.657.008a6.624 6.624 0 001.926-.364 1.376 1.376 0 00.757-1.38 1.643 1.643 0 00-.98-1.38zm-14.205-4.142c0 .13-.004.272-.007.413-.006.236-.016.48-.03.742l-.007.136-.001.013q-.045.66-.088 1.19h-15.052a4.39 4.39 0 00.503 1.642c.034.064.053.136.09.198a4.4 4.4 0 00.997 1.132c.11.092.206.197.325.278a7.696 7.696 0 004.542 1.203c.445 0 .888-.028 1.331-.057a20.119 20.119 0 002.231-.255 14.313 14.313 0 002.895-.846h.001l.89 5.388a9.176 9.176 0 01-1.345.509c-.027.007-.053.018-.08.026q-.493.144-.995.256-.501.11-1.009.189c-.538.112-1.12.202-1.725.28-.197.025-.387.054-.591.076q-.621.067-1.245.1-.624.034-1.249.034a14.555 14.555 0 01-2.45-.163c-.116-.017-.23-.038-.345-.058a15.321 15.321 0 01-2.298-.577c-.142-.048-.288-.085-.429-.137a11.131 11.131 0 01-3.874-2.54 10.78 10.78 0 01-2.271-3.873c-.094-.3-.17-.605-.246-.91-.022-.09-.052-.178-.072-.269-.03-.13-.048-.262-.074-.393-.054-.268-.112-.535-.152-.805-.018-.12-.024-.241-.04-.362-.034-.283-.072-.565-.092-.85-.016-.229-.015-.459-.02-.688-.005-.178-.018-.354-.017-.532v-.001c-.004-.18.011-.357.014-.536.005-.284.002-.568.023-.85.027-.36.079-.715.132-1.07.015-.102.02-.204.038-.305.049-.284.121-.563.187-.844.073-.309.152-.617.24-.922s.189-.607.302-.905c.03-.073.067-.142.097-.214a11.92 11.92 0 012.441-3.706 10.521 10.521 0 013.562-2.36 11.392 11.392 0 013.905-.787c.094-.003.187-.014.281-.014a10.308 10.308 0 017.883 3.073q2.894 3.028 2.894 8.95zM58.842 235.202l16.221-70.567a12.49 12.49 0 016.802-8.46l65.75-31.415a12.671 12.671 0 0110.914 0l65.758 31.398a12.476 12.476 0 016.623 7.849c.059.204.13.403.18.611l16.245 70.567a12.323 12.323 0 01.307 3.083q-.013.514-.068 1.023-.047.437-.125.87a12.425 12.425 0 01-.739 2.527q-.167.407-.364.803a13.803 13.803 0 01-1.441 2.247l-45.492 56.592a12.611 12.611 0 01-9.83 4.684l-72.98.016a12.612 12.612 0 01-9.83-4.692l-45.509-56.583q-.382-.478-.715-.992a12.385 12.385 0 01-1.707-9.561zm-24.281 84.996l6.635-1.069v.001h.001v19.593q.98-1.07 2.003-2.226 1.069-1.158 2.049-2.271.98-1.158 1.826-2.182.89-1.024 1.514-1.782h7.881v.001q-2.36 2.716-4.63 5.21-2.227 2.449-4.899 5.076a29.19 29.19 0 012.761 2.894q1.425 1.649 2.761 3.43l.001.001q1.337 1.783 2.45 3.563t1.87 3.25H49.17v-.001h-.001q-.713-1.157-1.648-2.538c-.181-.29-.375-.577-.564-.864q-.378-.572-.778-1.138c-.19-.268-.376-.538-.573-.804a32.359 32.359 0 00-2.182-2.716q-.505-.595-1.063-1.142-.557-.545-1.163-1.04v10.243h-6.635v-.001h-.001z" class="cls-3"/><path d="M208.511 48.826h-.001a4.07 4.07 0 00-.745-1.403 3.976 3.976 0 00-1.271-1.009 4.142 4.142 0 00-1.907-.394 4.387 4.387 0 00-1.885.372 3.895 3.895 0 00-1.315.987 4.407 4.407 0 00-.811 1.425 9.344 9.344 0 00-.417 1.644h8.637a6.792 6.792 0 00-.285-1.622zM93.55 50.448h8.636a6.788 6.788 0 00-.285-1.622 4.067 4.067 0 00-.745-1.403 3.98 3.98 0 00-1.272-1.009 4.14 4.14 0 00-1.907-.394 4.386 4.386 0 00-1.885.372 3.9 3.9 0 00-1.315.987 4.418 4.418 0 00-.811 1.425h.001a9.31 9.31 0 00-.417 1.644zm131.835 2.148a8 8 0 001.36 4.866 4.692 4.692 0 004.032 1.841q.877 0 1.622-.065.746-.066 1.228-.154v-11.88a5.693 5.693 0 00-1.6-.658 7.717 7.717 0 00-1.995-.263 5.72 5.72 0 00-1.09.099 3.98 3.98 0 00-1.3.516c-1.493.894-2.257 2.777-2.257 5.698z" class="cls-2"/><path d="M120.073 46.677a8.634 8.634 0 011.293-.24 11.874 11.874 0 011.469-.11 12.778 12.778 0 012.543.24q1.184.242 2.06.461l1.096-5.392q-.308-.123-.627-.216-.318-.094-.644-.157-.745-.153-1.491-.263-.745-.109-1.49-.175-.746-.066-1.272-.066a23.884 23.884 0 00-5.326.548 39.287 39.287 0 00-4.143 1.162V64.3h6.532zm12.166 12.275a7.502 7.502 0 001.468 3.135v.001a6.944 6.944 0 002.806 2.016 11.687 11.687 0 004.429.723 15.333 15.333 0 003.55-.35 18.489 18.489 0 002.63-.833l-.92-5.086a11.137 11.137 0 01-2.039.548 12.464 12.464 0 01-2.17.197 3.739 3.739 0 01-2.462-.69 2.078 2.078 0 01-.453-.537 6.451 6.451 0 01-.723-3.288v-8.11h7.847v-5.437h-7.847v-6.795l-6.533 1.052v19.377a18.477 18.477 0 00.417 4.077zm86.791-2.937a14.36 14.36 0 00.503 1.864 10.46 10.46 0 002.345 3.769 10.204 10.204 0 003.77 2.39 14.564 14.564 0 005.086.833q1.183 0 2.476-.11t2.543-.284q1.249-.175 2.39-.417 1.138-.241 2.016-.504V30.281l-6.532 1.052v10.434a13.198 13.198 0 00-2.17-.745 10.27 10.27 0 00-2.433-.263 10.81 10.81 0 00-4.363.833 8.633 8.633 0 00-3.222 2.411 11.022 11.022 0 00-2.016 3.836 17.077 17.077 0 00-.701 5.064 14.356 14.356 0 00.308 3.112zm8.611-9.117a3.98 3.98 0 011.302-.516 5.72 5.72 0 011.089-.099 7.718 7.718 0 011.995.263 5.693 5.693 0 011.6.658v11.88q-.483.089-1.228.154-.745.066-1.622.065a4.692 4.692 0 01-4.033-1.84 8 8 0 01-1.36-4.867c0-2.921.764-4.804 2.257-5.698zm-45.096-5.657h6.532V64.3h-6.532zM66.697 57.57a9.992 9.992 0 002.148 3.837 10.23 10.23 0 003.748 2.564 14.194 14.194 0 005.437.943 18.827 18.827 0 003.77-.351 15.324 15.324 0 002.849-.833l-.763-4.436-.157-.911a10.772 10.772 0 01-2.5.701 15.944 15.944 0 01-2.542.22q-3.332 0-4.669-1.71a7.662 7.662 0 01-1.337-4.824 7.4 7.4 0 011.425-4.734 5.175 5.175 0 014.318-1.798 10.536 10.536 0 012.455.263 16.492 16.492 0 012.017.614l1.359-5.216a16.478 16.478 0 00-2.981-.942 16.135 16.135 0 00-3.376-.33 12.298 12.298 0 00-4.998.965 11.029 11.029 0 00-6.072 6.466v-.001a13.583 13.583 0 00-.81 4.713 16.263 16.263 0 00.679 4.8zm121.832-20.165a3.587 3.587 0 001.162-2.828 3.588 3.588 0 00-1.162-2.827 4.157 4.157 0 00-5.48 0 3.584 3.584 0 00-1.162 2.827 3.583 3.583 0 001.162 2.828 4.16 4.16 0 005.48 0zm-31.039 0a3.585 3.585 0 001.162-2.828 3.586 3.586 0 00-1.162-2.827 4.154 4.154 0 00-5.48 0 3.584 3.584 0 00-1.161 2.827 3.583 3.583 0 001.161 2.828 4.16 4.16 0 005.48 0zm6.686 2.608v24.288h6.532V46.677h8.067v-5.435h-8.067v-1.141a7.052 7.052 0 01.197-1.71 3.477 3.477 0 01.658-1.359 3.08 3.08 0 011.271-.898 5.324 5.324 0 011.995-.33 11.35 11.35 0 011.731.132 6.256 6.256 0 011.557.439l1.14-5.13a14.745 14.745 0 00-2.039-.657 12.663 12.663 0 00-3.047-.307q-4.954 0-7.475 2.63a9.836 9.836 0 00-2.52 7.102zm29.277 12.933a15.017 15.017 0 00.723 4.734 9.997 9.997 0 002.236 3.793 10.535 10.535 0 003.814 2.521 14.526 14.526 0 005.414.92 23.019 23.019 0 002.455-.131q1.227-.132 2.302-.33a18.316 18.316 0 001.951-.46 9.034 9.034 0 001.402-.525l-.877-5.304a13.291 13.291 0 01-1.86.59c-.32.08-.64.165-.966.22-.153.029-.31.04-.463.065a18.883 18.883 0 01-3.068.265 7.578 7.578 0 01-4.472-1.184 4.34 4.34 0 01-1.885-3.2h.001v-.002h14.817q.044-.525.088-1.205t.044-1.25q0-5.83-2.85-8.832a10.19 10.19 0 00-7.76-3.003 11.053 11.053 0 00-4.099.789 10.304 10.304 0 00-3.53 2.322c-.11.113-.206.237-.311.354-.152.169-.309.333-.45.51l-.008.01a11.513 11.513 0 00-1.707 2.962l.001.001a14.095 14.095 0 00-.942 5.37zm7.123-4.142a4.407 4.407 0 01.81-1.425 3.897 3.897 0 011.316-.987 4.387 4.387 0 011.885-.372 4.142 4.142 0 011.907.394 3.976 3.976 0 011.271 1.009 4.07 4.07 0 01.746 1.403 6.792 6.792 0 01.285 1.622h-8.637a9.343 9.343 0 01.417-1.644zM86.88 54.15c.022.306.062.611.103.916.012.092.017.185.03.277.044.28.104.56.163.838.024.113.04.228.066.341q.138.585.323 1.159a10 10 0 002.236 3.793 10.534 10.534 0 003.814 2.52 14.529 14.529 0 005.414.921 23.022 23.022 0 002.456-.131q1.226-.132 2.301-.33a18.312 18.312 0 001.951-.46 9.024 9.024 0 001.403-.525l-.877-5.305a13.29 13.29 0 01-2.827.811q-.89.168-1.792.249a19.4 19.4 0 01-1.738.08 7.576 7.576 0 01-4.471-1.184 4.338 4.338 0 01-1.886-3.2h.001v-.001h14.818q.043-.525.087-1.205t.044-1.25q0-5.83-2.85-8.833a10.19 10.19 0 00-7.76-3.003 11.049 11.049 0 00-4.098.789 10.3 10.3 0 00-3.53 2.323 11.507 11.507 0 00-2.477 3.836v.001a14.095 14.095 0 00-.942 5.37c-.002.18.012.358.017.538.006.221.005.443.02.664zm7.086-5.346a4.416 4.416 0 01.81-1.425 3.9 3.9 0 011.316-.987 4.385 4.385 0 011.885-.372 4.141 4.141 0 011.907.394 3.98 3.98 0 011.272 1.009 4.067 4.067 0 01.745 1.403 6.792 6.792 0 01.285 1.622h-8.637a9.311 9.311 0 01.417-1.644zm57.54-7.563h6.532V64.3h-6.532z" class="cls-3"/><path d="M138.355 41.24h7.847v.001h-7.847zm-32.092 16.924a13.291 13.291 0 01-2.828.81q-.89.169-1.791.25.9-.082 1.792-.249a13.29 13.29 0 002.827-.811zm76.282 6.136h6.532v.001h-6.532zm-15.849-31.389q2.521-2.63 7.475-2.63-4.955 0-7.475 2.63zm-39.433 8.352q.326.063.644.157-.318-.094-.644-.157-.746-.153-1.49-.263-.747-.109-1.491-.175.745.066 1.49.175.746.11 1.491.263zm94.615 20.385a10.35 10.35 0 01-1.404-1.805 10.352 10.352 0 001.404 1.806 10.204 10.204 0 003.77 2.39 14.504 14.504 0 002.472.637 14.506 14.506 0 01-2.472-.638 10.204 10.204 0 01-3.77-2.39zM93.55 54.919v.001h14.818q.043-.526.087-1.206-.044.68-.087 1.205zm144.593 9.141q-1.141.242-2.39.417 1.25-.176 2.39-.417 1.14-.24 2.017-.504V30.281h-.001v33.275q-.878.263-2.016.504zm-59.368-22.818v5.435-5.436h-8.067v.001h8.067zM151.506 64.3h6.532v.001h-6.532zm63.471-9.382H200.16v.002h14.817q.044-.526.088-1.206.043-.68.044-1.25 0 .57-.044 1.249-.044.68-.088 1.205zM72.9 41.592a12.298 12.298 0 014.998-.965 16.135 16.135 0 013.376.33 16.478 16.478 0 012.98.942l.001-.001a16.47 16.47 0 00-2.981-.943 16.133 16.133 0 00-3.376-.329 12.299 12.299 0 00-4.998.965 11.03 11.03 0 00-6.072 6.466v.001a11.029 11.029 0 016.072-6.466z" class="cls-3"/><path d="M87.014 55.343c-.014-.092-.02-.185-.031-.277" class="cls-4"/><path d="M158.308 36.3a3.584 3.584 0 00.344-1.723 3.585 3.585 0 00-.048-.791 3.585 3.585 0 01.048.791 3.584 3.584 0 01-.344 1.723z" class="cls-3"/><path d="M158.604 33.786a3.589 3.589 0 00-.217-.752m-.375 3.775a3.587 3.587 0 00.296-.509" class="cls-4"/><path d="M211.013 58.754c-.321.08-.641.165-.968.22-.153.029-.308.04-.461.065.154-.025.31-.036.463-.065.326-.055.645-.14.966-.22z" class="cls-3"/><path d="M86.88 54.15c-.016-.222-.015-.444-.021-.665" class="cls-4"/><path d="M81.8 64.563a18.827 18.827 0 01-3.77.351 14.194 14.194 0 01-5.437-.943 10.23 10.23 0 01-3.748-2.564v.001a10.23 10.23 0 003.748 2.564 14.196 14.196 0 005.437.943 18.823 18.823 0 003.77-.35 15.316 15.316 0 002.85-.834l-.764-4.437.763 4.436a15.324 15.324 0 01-2.849.833zm111.652-11.617a15.016 15.016 0 00.723 4.735 10 10 0 002.236 3.793h-.001a10.535 10.535 0 003.815 2.52 14.525 14.525 0 005.414.92 23.018 23.018 0 002.455-.13q1.227-.132 2.302-.33a18.294 18.294 0 001.95-.46 9.022 9.022 0 001.404-.525 9.034 9.034 0 01-1.402.524 18.316 18.316 0 01-1.951.46q-1.075.198-2.302.33a23.019 23.019 0 01-2.455.13 14.526 14.526 0 01-5.414-.92 10.535 10.535 0 01-3.814-2.52 9.997 9.997 0 01-2.236-3.793 15.017 15.017 0 01-.723-4.734 14.095 14.095 0 01.942-5.37h-.001a14.095 14.095 0 00-.942 5.37z" class="cls-3"/><path d="M87.242 56.522c-.026-.113-.042-.228-.066-.341m108.925-11.567l.008-.012" class="cls-4"/><path d="M87.784 47.576a14.096 14.096 0 00-.942 5.37 14.095 14.095 0 01.942-5.369zm48.729 16.528a11.686 11.686 0 004.428.724 15.331 15.331 0 003.551-.351 15.333 15.333 0 01-3.55.35 11.687 11.687 0 01-4.429-.723zm3.018-5.491a3.739 3.739 0 002.462.69 3.743 3.743 0 01-2.462-.69zm79.191-5.71a17.024 17.024 0 01.164-2.586 17.032 17.032 0 00-.165 2.586 14.353 14.353 0 00.309 3.112 14.356 14.356 0 01-.308-3.112zM152.01 37.405a4.16 4.16 0 005.48 0 4.16 4.16 0 01-5.48 0zm44.86 6.335c-.11.113-.206.236-.311.353.105-.117.202-.24.312-.354zm-13.821-6.335a3.995 3.995 0 002.74 1.03h.001a3.997 3.997 0 002.74-1.03 3.587 3.587 0 001.161-2.828 3.587 3.587 0 01-1.162 2.828 4.16 4.16 0 01-5.48 0zm-44.694-2.96l-6.533 1.052v.001l6.533-1.052v-.001zM96.092 46.392a4.386 4.386 0 011.885-.372 4.385 4.385 0 00-1.885.372zm104.067 4.056a9.344 9.344 0 01.417-1.644 9.343 9.343 0 00-.417 1.644zM93.967 48.804h-.001a9.311 9.311 0 00-.417 1.644h.001a9.31 9.31 0 01.417-1.644zm110.62-2.784a4.143 4.143 0 01.977.083 4.142 4.142 0 00-.977-.083z" class="cls-3"/><path d="M227.641 46.898a3.98 3.98 0 011.302-.516" class="cls-4"/><path d="M141.399 201.384h.001l.016.012a3.43 3.43 0 00.534.312c.058.027.117.051.176.076a3.407 3.407 0 00.413.14c.06.016.118.035.179.048a3.352 3.352 0 001.257.039c.103-.017.202-.053.303-.078a3.445 3.445 0 00.344-.091c.105-.039.203-.096.304-.145.1-.049.205-.089.299-.146a3.467 3.467 0 00.289-.216c.081-.062.17-.116.245-.185a3.356 3.356 0 00.753-1.009c.027-.055.049-.112.073-.169a3.396 3.396 0 00.148-.41c.017-.062.035-.124.05-.187a3.429 3.429 0 00.088-.61v-.022l.085-.042 1.165-20.584a41.603 41.603 0 00-4.153.718 40.606 40.606 0 00-19.48 10.6l16.877 11.964zm31.029 9.545l.008.042-.007.006-.007.007a3.394 3.394 0 00-.364.37c-.052.061-.095.13-.143.194-.054.074-.11.146-.158.223-.046.074-.082.153-.122.23-.04.077-.082.154-.116.235-.032.073-.055.15-.08.225-.03.088-.06.176-.083.267a3.396 3.396 0 00-.067.395c-.013.094-.032.188-.037.281a3.386 3.386 0 00.015.439c.005.073.004.147.014.218a3.414 3.414 0 00.113.483c.014.05.022.1.039.149a3.454 3.454 0 00.224.498c.016.03.027.064.044.093a3.452 3.452 0 00.34.483c.013.016.023.035.037.05a3.428 3.428 0 00.454.437l.022.02a3.426 3.426 0 001.217.614l.02.005.017.085 19.853 5.718q.08-.835.125-1.67.045-.836.057-1.67a41.234 41.234 0 00-.573-7.447q-.31-1.838-.786-3.642-.476-1.803-1.113-3.56a41.23 41.23 0 00-3.616-7.496zm-33.3 20.959c-.005-.033-.003-.068-.01-.101a3.406 3.406 0 00-.186-.635 3.451 3.451 0 00-.17-.331c-.047-.086-.084-.178-.137-.26-.052-.08-.12-.15-.178-.226a3.446 3.446 0 00-.237-.295 3.41 3.41 0 00-.503-.429c-.027-.019-.06-.03-.087-.049a3.437 3.437 0 00-.514-.284c-.086-.037-.18-.058-.27-.088a2.784 2.784 0 00-1.04-.195h-.043l-.037.003a3.54 3.54 0 00-.595.055l-.02.004h-.001l-.033-.042-20.257 3.438q.571 1.575 1.267 3.09a40.72 40.72 0 005.203 8.446q1.032 1.292 2.167 2.497a40.717 40.717 0 007.658 6.357l7.848-18.965-.06-.076.009-.018a2.779 2.779 0 00.246-1.027c.009-.096.029-.191.03-.286a3.435 3.435 0 00-.05-.583zm16.988 7.265l-.01-.018a3.467 3.467 0 00-3.021-1.808l-.126.002a3.291 3.291 0 00-2.643 1.45 3.377 3.377 0 00-.263.365l-.008.018h-.019l-6.414 11.596-3.546 6.413a41.815 41.815 0 0022.151 1.13v-.001q2.007-.453 3.961-1.103l-9.985-18.044zm-8.704-16.084l5.672 2.728 5.655-2.72 1.406-6.107-3.915-4.893h-6.3l-3.924 4.885 1.406 6.107zm23.647 5.862l-.033.042-.02-.004a3.446 3.446 0 00-.662-.053l-.076.002a3.43 3.43 0 00-3.243 2.757c-.019.095-.03.19-.04.287-.007.06-.017.12-.02.179a3.45 3.45 0 00.006.493 3.45 3.45 0 00.084.526 3.407 3.407 0 00.179.548l.008.017-.026.035 7.932 19.159a40.53 40.53 0 009.351-8.271c.185-.223.373-.442.553-.669.194-.243.379-.494.567-.742.143-.19.29-.375.43-.566.19-.26.37-.527.554-.791.133-.192.27-.38.4-.574.178-.266.347-.538.519-.809.126-.198.256-.393.379-.593.17-.28.331-.565.495-.848.114-.197.233-.391.343-.59.156-.28.302-.566.45-.85.11-.208.226-.414.332-.625.149-.296.287-.598.43-.898.095-.202.196-.402.288-.606.148-.325.284-.656.423-.986.078-.184.161-.366.236-.552.176-.434.34-.875.501-1.317.03-.083.064-.164.094-.247zm-11.837-30.263l.017.009.001.02c0 .012.004.023.004.035a3.444 3.444 0 00.084.567c.016.07.036.138.056.207a3.41 3.41 0 00.139.383c.027.064.052.13.083.191a3.43 3.43 0 001.291 1.403c.05.03.105.048.156.075a3.447 3.447 0 00.448.214c.026.01.055.012.082.02a3.324 3.324 0 001.822.105c.056-.012.11-.03.165-.045a3.412 3.412 0 00.426-.145c.057-.024.115-.047.17-.074a3.439 3.439 0 00.536-.313l.015-.011.06.025.986-.7 15.783-11.19q-1.193-1.167-2.472-2.227c-.112-.093-.228-.18-.342-.273-.314-.255-.629-.51-.95-.756-.195-.15-.396-.29-.593-.435-.247-.18-.49-.365-.74-.54-.25-.176-.507-.343-.76-.512-.204-.136-.404-.276-.609-.408-.297-.191-.6-.372-.902-.556-.168-.102-.334-.209-.503-.308-.331-.195-.669-.379-1.006-.564-.145-.08-.288-.165-.434-.243a40.92 40.92 0 00-1.155-.588c-.106-.052-.21-.109-.316-.16-.24-.117-.486-.223-.728-.335a40.835 40.835 0 00-11.92-3.412l-.06-.009zm-26.893 18.394l.016-.068.02-.005.011-.004a3.428 3.428 0 00.563-.217c.06-.029.118-.061.177-.094a3.403 3.403 0 00.357-.228c.053-.039.107-.075.158-.116a3.321 3.321 0 00.814-.959c.043-.077.071-.162.109-.243a3.453 3.453 0 00.162-.367c.032-.096.046-.198.07-.297a3.44 3.44 0 00.078-.355c.014-.104.007-.211.011-.317a3.15 3.15 0 00-.31-1.567c-.025-.056-.056-.109-.085-.163a3.403 3.403 0 00-.23-.372c-.037-.052-.074-.104-.114-.154a3.433 3.433 0 00-.423-.451l-.014-.013.016-.084-15.41-13.785a40.5 40.5 0 00-5.73 25.56z" class="cls-2"/><path d="M60.549 244.762q.333.514.715.993l45.509 56.583a12.61 12.61 0 009.83 4.692l72.98-.016a12.61 12.61 0 009.83-4.684l45.492-56.592a13.798 13.798 0 001.44-2.247q.198-.396.365-.803a12.422 12.422 0 00.739-2.527q.077-.432.125-.87.055-.509.068-1.022a12.328 12.328 0 00-.307-3.084l-16.246-70.567c-.048-.208-.12-.407-.179-.611a12.475 12.475 0 00-6.623-7.848L158.53 124.76a12.671 12.671 0 00-10.914 0l-65.749 31.415a12.49 12.49 0 00-6.803 8.46l-16.22 70.567a12.385 12.385 0 001.706 9.56zm23.199-11.61a3.97 3.97 0 01.817-2.057c.027-.036.063-.065.091-.1a3.988 3.988 0 01.43-.453c.058-.05.126-.088.187-.135a3.937 3.937 0 01.444-.315c.077-.044.163-.073.243-.112a3.903 3.903 0 01.479-.21c.013-.005.024-.013.037-.017a3.984 3.984 0 01.7-.16l.028-.007.03-.01.016-.003.02-.005.31-.075c.244-.06.492-.12.698-.16l.043-.009a16.077 16.077 0 012.492-.233c.026 0 .054-.003.08-.004.39-.016.791-.031 1.207-.066l.094-.01a36.418 36.418 0 006.954-1.15 7.091 7.091 0 001.514-1.486l.16-.208.006-.009.012-.004 1.225-.355.394-.115a50.961 50.961 0 018.024-35.473l-1.25-1.115v-.004l-.001-.008-.018-.117-.01-.064a3.923 3.923 0 00-.753-2.072c-.177-.152-.362-.295-.542-.443a38.662 38.662 0 00-3.77-2.743q-.755-.478-1.534-.92a27.642 27.642 0 00-1.123-.618 16.14 16.14 0 01-2.142-1.292 9.085 9.085 0 01-.226-.176q-.151-.12-.31-.252l-.052-.042a26.31 26.31 0 00-.187-.153l-.042-.034-.025-.018-.034-.024a4.635 4.635 0 01-1.712-2.849 3.753 3.753 0 01.74-3 3.803 3.803 0 013.016-1.403l.146.002h.002a5.017 5.017 0 012.762 1.042l.051.04.186.146c.217.17.463.362.638.512a16.484 16.484 0 011.75 1.81c.265.306.542.624.842.943l.068.068a36.415 36.415 0 005.232 4.72 2.716 2.716 0 002.034.264c.094-.015.188-.03.281-.042l.013-.002.012.008a56.2 56.2 0 001.396.992 50.647 50.647 0 0125.711-14.68 51.352 51.352 0 017.09-1.09l.092-1.65.005-.004.004-.004a4.267 4.267 0 001.268-2.018 36.53 36.53 0 00-.43-7.06l-.006-.062v-.006c-.063-.434-.14-.85-.214-1.25a16.304 16.304 0 01-.326-2.495c-.007-.192-.002-.437.003-.672l.005-.265.001-.074-.005-.047a.62.62 0 01-.004-.062 4.003 4.003 0 010-.817l.005-.025a3.96 3.96 0 01.155-.752c.034-.11.088-.208.13-.313a3.994 3.994 0 01.17-.399 3.912 3.912 0 01.228-.341c.068-.1.126-.204.203-.296.082-.1.18-.185.272-.277.09-.09.173-.186.271-.267.094-.077.2-.137.3-.205a3.93 3.93 0 01.338-.225 4.013 4.013 0 01.4-.171c.105-.043.203-.096.312-.13a3.964 3.964 0 01.755-.155l.021-.005h.001c.133-.013.272 0 .408 0s.275-.013.408 0h.001l.024.005a3.958 3.958 0 01.753.155c.11.034.207.088.312.13a4.01 4.01 0 01.4.17 3.911 3.911 0 01.34.228c.1.067.204.126.297.203.099.081.182.178.273.269.091.09.189.175.271.275.076.093.136.198.204.297a3.915 3.915 0 01.226.34 4.003 4.003 0 01.17.398c.043.105.096.204.13.314a3.966 3.966 0 01.153.74c.001.012.006.024.007.036v.001a4.013 4.013 0 010 .79v.027c0 .117.004.248.005.382.003.13.006.262.007.388s0 .245-.004.35a16.294 16.294 0 01-.325 2.496c-.075.4-.15.815-.213 1.25l-.026.209a35.932 35.932 0 00-.42 6.921 2.715 2.715 0 001.063 1.748l.214.198.001.001.01.01v.013l.004.093q.034.767.08 1.534l.006.101a51.036 51.036 0 0117.81 4.953 52.196 52.196 0 0114.83 10.817l1.484-1.058.011.001h.001l.205.014a3.907 3.907 0 002.164-.27c.117-.086.228-.18.344-.268a35.985 35.985 0 004.82-4.392l.127-.129.008-.008c.294-.313.568-.626.832-.928a16.884 16.884 0 011.768-1.823c.119-.102.266-.22.418-.34l.213-.167.245-.192.007-.006a4 4 0 01.642-.51l.01-.008c.062-.04.13-.062.194-.098a3.983 3.983 0 01.503-.253c.113-.045.23-.067.346-.1a4.015 4.015 0 01.397-.108 3.912 3.912 0 01.406-.036c.12-.01.24-.027.36-.025.131.002.26.025.389.04.125.014.251.02.375.046.122.026.237.071.355.108a3.904 3.904 0 01.379.123 4.007 4.007 0 01.369.198c.103.057.21.104.309.171a3.984 3.984 0 01.438.364c.053.048.113.084.164.135l.007.01a4.073 4.073 0 01.26.323c.084.105.178.205.249.315l.008.01c.04.065.063.135.1.2a3.978 3.978 0 01.25.498c.045.114.068.231.1.347a3.992 3.992 0 01.109.396 3.933 3.933 0 01.036.405c.009.12.027.24.025.362-.002.13-.025.257-.04.385-.014.127-.02.254-.047.379-.025.12-.07.235-.107.353a3.917 3.917 0 01-.124.38 4.004 4.004 0 01-.196.366c-.058.105-.105.213-.173.312a3.977 3.977 0 01-.36.434c-.049.054-.086.116-.139.168l-.01.007a4.001 4.001 0 01-.64.511l-.008.006-.275.225c-.206.17-.418.346-.592.474a15.837 15.837 0 01-2.14 1.287c-.024.012-.047.026-.07.039-.347.184-.703.372-1.064.585a37.103 37.103 0 00-5.5 3.824c-.115.096-.234.186-.347.283a2.712 2.712 0 00-.482.768c-.017.042-.043.08-.059.123a2.707 2.707 0 00-.075.286c-.018.073-.045.144-.057.218a2.725 2.725 0 00-.02.302c-.003.075-.017.148-.014.224-.007.09-.012.179-.02.268l-.002.018v.013l-.01.01-.12.108-.483.432-.59.528-.182.164a51.115 51.115 0 011.927 3.138 51.127 51.127 0 013.047 6.309c.192.478.379.957.556 1.44q.767 2.094 1.35 4.245a51.044 51.044 0 011.78 13.221v.056a51.157 51.157 0 01-.468 6.98l1.573.457.007.01.114.165a3.918 3.918 0 001.569 1.53 36.507 36.507 0 006.97 1.15l.047.005.03.003q.641.05 1.284.07a16.022 16.022 0 012.493.234l.005.001c.204.038.464.102.715.165l.297.072.129.03a3.982 3.982 0 01.71.163c.012.004.021.01.033.014a3.902 3.902 0 01.452.2c.091.044.189.078.275.127a3.922 3.922 0 01.34.242c.098.072.203.134.294.214.087.077.159.169.239.253a3.982 3.982 0 01.284.305c.076.1.134.211.2.317.069.109.146.212.204.327a4.01 4.01 0 01.147.375c.043.113.097.222.13.339.03.112.041.23.063.345a3.922 3.922 0 01.072.423c.007.097-.005.197-.005.296a3.902 3.902 0 01-.016.5l-.001.036c-.016.121-.057.232-.083.35-.027.12-.04.24-.079.36-.004.012-.01.021-.014.033a3.897 3.897 0 01-.2.452c-.044.09-.078.188-.127.274a3.933 3.933 0 01-.245.345c-.07.096-.132.2-.21.289s-.172.162-.258.243a4.002 4.002 0 01-.301.28c-.1.078-.214.136-.321.204-.108.067-.21.144-.322.2a3.985 3.985 0 01-.387.152c-.11.042-.214.093-.327.125-.115.032-.237.043-.356.065a3.934 3.934 0 01-.412.07c-.1.008-.203-.004-.304-.004a3.88 3.88 0 01-.493-.016c-.012-.002-.024 0-.036-.001a3.977 3.977 0 01-.71-.162l-.026-.003-.033-.005a.292.292 0 01-.045-.015.265.265 0 00-.031-.01l-.376-.078-.006-.001c-.2-.04-.4-.082-.57-.125-.022-.006-.045-.01-.067-.015a16.178 16.178 0 01-2.35-.871q-.587-.26-1.185-.493l-.11-.038c-.17-.069-.345-.128-.517-.194a36.28 36.28 0 00-6.228-1.783 2.48 2.48 0 00-.211-.01h-.013a2.79 2.79 0 00-1.712.654c-.082.056-.161.112-.243.166l-.011.007h-.001l-.014-.002-.007-.002q-.82-.155-1.643-.288a51.255 51.255 0 01-22.67 28.516c.037.09.079.198.122.313l.078.208a5.971 5.971 0 00.44 1.032l.007.01.005.005-.004.011-.002.009-.028.07-.081.206a2.69 2.69 0 00-.193 2.022 36.862 36.862 0 003.487 6.24q.359.529.74 1.042a16.17 16.17 0 011.37 2.097c.107.199.232.465.354.722l.16.338a4.212 4.212 0 01-1.69 5.637 3.762 3.762 0 01-3.087.056c-.087-.037-.163-.09-.247-.132a4.616 4.616 0 01-2.151-2.168c-.042-.088-.09-.185-.14-.285a16.598 16.598 0 01-.345-.72l-.002-.005c-.027-.064-.047-.13-.073-.194a16.51 16.51 0 01-.722-2.203c-.057-.207-.124-.427-.185-.642-.055-.19-.104-.375-.166-.572l-.03-.089a36.419 36.419 0 00-2.666-6.522 2.727 2.727 0 00-1.717-1.12c-.092-.028-.183-.055-.274-.084l-.011-.004-.007-.011c-.04-.07-.12-.21-.212-.378l-.184-.333-.347-.627-.084-.151a50.965 50.965 0 01-36.288-.093l-.884 1.602-.013.004a3.39 3.39 0 00-1.679.815 15.67 15.67 0 00-2.201 4.722c-.261.766-.53 1.56-.84 2.338-.092.29-.166.568-.243.847-.035.127-.076.26-.11.384a16.12 16.12 0 01-.783 2.378l-.01.021c-.084.19-.2.425-.315.652l-.042.083-.117.238-.003.014a.055.055 0 01-.013.016 4.445 4.445 0 01-3.902 2.586 3.61 3.61 0 01-1.572-.356 4.21 4.21 0 01-1.69-5.636c.056-.114.117-.247.18-.384l.125-.267a9.42 9.42 0 01.201-.41 16.461 16.461 0 011.378-2.113c.147-.201.298-.42.449-.632.095-.136.19-.26.285-.403a38.25 38.25 0 003.559-6.396 3.881 3.881 0 00-.35-2.2l-.005-.013.006-.012.703-1.689a51.265 51.265 0 01-22.676-28.314l-1.698.292h-.001l-.01-.006-.01-.006-.164-.094a3.909 3.909 0 00-2.045-.692l-.024-.003a36.3 36.3 0 00-6.732 1.973l-.051.018-.07.026c-.406.155-.79.32-1.162.48a16.595 16.595 0 01-2.323.858l-.049.016c-.2.054-.46.109-.71.162l-.07.015-.239.05a.28.28 0 00-.03.01h-.002a.323.323 0 01-.044.015l-.033.005-.026.004-.007.001a3.98 3.98 0 01-.703.16c-.014.003-.028 0-.041.002a3.898 3.898 0 01-.401.013c-.135.003-.27.016-.402.005-.077-.006-.151-.027-.228-.038a3.974 3.974 0 01-.545-.101l-.02-.007a2.898 2.898 0 01-1.204-.62 3.95 3.95 0 01-.435-.328 4.004 4.004 0 01-.284-.345 3.88 3.88 0 01-.325-.399 3.96 3.96 0 01-.421-.892l-.004-.007c-.007-.024-.008-.048-.015-.072a3.965 3.965 0 01-.15-.631c-.003-.024 0-.046-.002-.07-.007-.058-.002-.116-.006-.175a4.013 4.013 0 01-.008-.62c.001-.017.007-.034.009-.052z" class="cls-2"/><path d="M111.532 305.955a12.595 12.595 0 002.262.762" class="cls-5"/><path d="M116.603 307.03a12.619 12.619 0 01-1.42-.078 12.62 12.62 0 001.42.078l72.98-.016a12.61 12.61 0 002.809-.312 12.61 12.61 0 01-2.809.312z" class="cls-2"/><path d="M115.183 306.952a12.603 12.603 0 01-1.39-.235m78.599-.015a12.613 12.613 0 002.638-.914m1.225-.67a12.604 12.604 0 002.203-1.734" class="cls-5"/><path d="M199.413 302.33l45.492-56.592a12.298 12.298 0 00.725-1.011 12.298 12.298 0 01-.725 1.01z" class="cls-2"/><path d="M247.574 239.29q-.047.438-.125.871m-.739 2.527q-.167.407-.364.803" class="cls-5"/><path d="M247.449 240.161a12.422 12.422 0 01-.739 2.527 12.425 12.425 0 00.739-2.527zm-1.103 3.33a12.365 12.365 0 01-.716 1.236 12.353 12.353 0 00.716-1.236zm-15.436-79.485a12.476 12.476 0 00-6.623-7.848l-65.758-31.398 65.758 31.399a12.475 12.475 0 016.623 7.847zm-149.044-7.831l65.749-31.415-65.75 31.415a12.49 12.49 0 00-6.802 8.46 12.49 12.49 0 016.803-8.46z" class="cls-2"/><path d="M83.753 234a4.012 4.012 0 00.152.7c.008.026.01.054.019.08a3.985 3.985 0 00.42.891 3.927 3.927 0 00.326.4 6.258 6.258 0 001.048.917 3.978 3.978 0 00.876.375l.02.007a3.974 3.974 0 00.544.1c.077.012.15.033.228.04.132.01.267-.003.402-.006a3.898 3.898 0 00.4-.013 3.994 3.994 0 00.745-.161l.007-.002.026-.004.033-.005a.337.337 0 00.044-.014h.002a.253.253 0 01.03-.011l.239-.05.069-.015c.25-.053.51-.108.71-.162l.05-.016a16.595 16.595 0 002.323-.859c.372-.16.756-.324 1.163-.48l.069-.025.05-.018a36.305 36.305 0 016.733-1.973l.024.003a3.909 3.909 0 012.046.692l.163.094.01.006.01.006 1.699-.292a51.265 51.265 0 0022.676 28.314l-.703 1.689-.006.012.005.013a3.88 3.88 0 01.35 2.2 38.255 38.255 0 01-3.56 6.396c-.094.142-.189.268-.284.403-.15.212-.302.43-.448.632a16.458 16.458 0 00-1.38 2.113c-.061.117-.13.26-.2.41l-.125.268c-.063.136-.124.269-.18.383a4.21 4.21 0 001.69 5.636 3.61 3.61 0 001.572.356 4.445 4.445 0 003.902-2.586.054.054 0 00.013-.016l.002-.015.118-.237.04-.082c.116-.228.232-.462.317-.653l.01-.021a16.117 16.117 0 00.783-2.38c.033-.123.075-.256.11-.382.077-.28.15-.557.242-.846.31-.78.58-1.572.84-2.34a15.741 15.741 0 012.201-4.721 3.402 3.402 0 011.679-.815l.014-.004.884-1.602a50.965 50.965 0 0036.288.093l.084.15.347.627.184.334c.093.167.171.308.212.377l.007.012.011.004c.09.029.182.056.274.084a2.727 2.727 0 011.717 1.12 36.418 36.418 0 012.667 6.522l.03.09c.062.196.11.38.165.571.061.215.129.435.186.642a16.497 16.497 0 00.721 2.203c.026.064.046.13.073.194l.002.005q.165.364.346.72l.14.285a4.616 4.616 0 002.15 2.168c.084.042.16.095.247.132a3.762 3.762 0 003.088-.056 4.212 4.212 0 001.689-5.637l-.16-.338c-.122-.257-.247-.522-.354-.722a16.163 16.163 0 00-1.37-2.097 32.003 32.003 0 01-.741-1.042 36.858 36.858 0 01-3.486-6.24 2.69 2.69 0 01.192-2.022l.082-.207c.01-.023.02-.047.028-.07l.003-.008.003-.01-.005-.007-.008-.01a5.971 5.971 0 01-.44-1.032l-.077-.207a9.1 9.1 0 00-.122-.312h.001v-.001a51.255 51.255 0 0022.669-28.516c.505.08 1.353.23 1.643.289l.008.001.013.002.012-.007c.082-.054.16-.11.243-.166a2.789 2.789 0 011.712-.654h.013c.07 0 .14.003.21.009a36.286 36.286 0 016.229 1.784c.172.066.347.125.518.194l.11.038c.413.16.806.33 1.185.493a16.17 16.17 0 002.35.87l.066.016c.17.043.37.084.57.125h.006c.13.027.258.053.376.079a.261.261 0 01.031.01.292.292 0 00.045.015l.033.005.026.003a3.985 3.985 0 00.746.163 3.88 3.88 0 00.493.016c.102 0 .204.012.304.005a3.934 3.934 0 00.412-.07c.119-.022.24-.033.356-.066.113-.032.218-.083.327-.125a3.985 3.985 0 00.387-.151c.113-.057.215-.134.322-.201.107-.068.22-.126.32-.204a4.002 4.002 0 00.302-.28c.086-.08.18-.154.258-.243s.14-.193.21-.29a3.933 3.933 0 00.245-.344c.05-.086.083-.183.127-.274a3.897 3.897 0 00.2-.452c.042-.126.063-.261.093-.393.03-.129.068-.257.084-.385a3.902 3.902 0 00.016-.501c0-.099.012-.199.005-.296a3.922 3.922 0 00-.072-.423c-.022-.115-.032-.233-.063-.345-.033-.117-.086-.226-.13-.339a4.01 4.01 0 00-.147-.375c-.058-.115-.135-.218-.203-.327-.067-.106-.125-.218-.201-.317a3.982 3.982 0 00-.284-.305c-.08-.084-.152-.176-.24-.253-.09-.08-.195-.142-.292-.214a3.922 3.922 0 00-.341-.242c-.086-.05-.184-.083-.274-.126a3.902 3.902 0 00-.453-.2 3.99 3.99 0 00-.743-.177l-.129-.031c-.1-.024-.199-.047-.298-.072q-.355-.092-.714-.165l-.005-.001a16.02 16.02 0 00-2.493-.234 28.342 28.342 0 01-1.284-.07l-.03-.003-.048-.005a36.512 36.512 0 01-6.97-1.15 3.918 3.918 0 01-1.568-1.53l-.114-.165-.007-.01-1.573-.457a51.157 51.157 0 00.469-6.98l-.002-.056a51.044 51.044 0 00-1.78-13.22q-.582-2.15-1.35-4.246a51.035 51.035 0 00-.555-1.44 51.127 51.127 0 00-3.046-6.31 51.115 51.115 0 00-1.928-3.137l.182-.164.59-.529.482-.431.121-.109.01-.009v-.013l.001-.018c.008-.089.014-.178.021-.269-.002-.075.01-.149.014-.223a2.725 2.725 0 01.02-.302c.012-.074.039-.145.057-.218a2.707 2.707 0 01.075-.286c.016-.043.042-.081.06-.123a2.712 2.712 0 01.481-.768c.113-.097.232-.187.347-.283a37.104 37.104 0 015.5-3.825c.35-.202.705-.396 1.063-.584l.071-.039a15.836 15.836 0 002.14-1.287c.174-.128.386-.304.592-.474l.275-.225.007-.006a4.001 4.001 0 00.642-.51c.055-.055.097-.119.149-.176a3.977 3.977 0 00.359-.434c.068-.1.115-.207.173-.311a4.004 4.004 0 00.196-.366 3.917 3.917 0 00.124-.381c.036-.118.082-.233.107-.353.027-.125.033-.252.047-.378.015-.13.038-.256.04-.386.002-.121-.016-.241-.025-.362a3.933 3.933 0 00-.036-.404 3.992 3.992 0 00-.108-.397c-.033-.116-.056-.233-.1-.347a3.978 3.978 0 00-.25-.497c-.04-.07-.066-.143-.11-.21-.07-.111-.164-.21-.247-.315a4.073 4.073 0 00-.26-.324c-.054-.054-.116-.094-.172-.145a3.984 3.984 0 00-.438-.363c-.099-.068-.206-.115-.31-.172a4.007 4.007 0 00-.368-.198 3.904 3.904 0 00-.379-.123c-.118-.036-.233-.082-.355-.108-.124-.026-.25-.032-.375-.046-.13-.015-.258-.038-.389-.04-.12-.002-.24.016-.36.025a3.912 3.912 0 00-.406.036 4.015 4.015 0 00-.397.108c-.116.033-.233.056-.346.1a3.983 3.983 0 00-.503.253c-.067.038-.139.064-.204.105a4 4 0 00-.642.511l-.007.006-.245.192-.213.167c-.152.12-.299.238-.417.34a16.88 16.88 0 00-1.769 1.823c-.264.302-.538.615-.832.928l-.008.008-.127.13a35.98 35.98 0 01-4.82 4.392c-.116.087-.227.18-.344.267a3.907 3.907 0 01-2.164.27l-.205-.014h-.012l-1.483 1.057h-.001a52.159 52.159 0 00-14.831-10.817 51.036 51.036 0 00-17.81-4.953l-.005-.1a96.535 96.535 0 01-.08-1.535l-.005-.093v-.014l-.009-.009a13.673 13.673 0 00-.215-.199 2.715 2.715 0 01-1.063-1.747 35.927 35.927 0 01.42-6.922l.026-.21c.062-.434.138-.848.213-1.25a16.295 16.295 0 00.325-2.495c.004-.105.005-.224.004-.35s-.004-.258-.007-.388l-.005-.382v-.028a4.013 4.013 0 000-.789c-.001-.012-.006-.024-.008-.037a3.966 3.966 0 00-.152-.74c-.034-.11-.088-.208-.13-.314a4.003 4.003 0 00-.17-.398 3.915 3.915 0 00-.227-.34c-.068-.1-.127-.204-.203-.297-.083-.1-.18-.184-.272-.275-.09-.09-.173-.188-.272-.27-.093-.076-.198-.135-.297-.202a3.911 3.911 0 00-.341-.227 4.01 4.01 0 00-.4-.17c-.104-.043-.202-.097-.312-.13a3.958 3.958 0 00-.752-.156c-.009 0-.016-.004-.025-.005-.133-.013-.272 0-.408 0s-.275-.013-.408 0l-.023.005a3.964 3.964 0 00-.755.155c-.108.034-.206.087-.31.13a4.013 4.013 0 00-.401.17 3.93 3.93 0 00-.339.226c-.1.068-.205.128-.299.205-.098.081-.181.178-.271.268-.092.091-.19.176-.273.276-.076.092-.135.197-.202.296a3.912 3.912 0 00-.228.341 3.994 3.994 0 00-.17.399c-.043.105-.096.203-.13.313a3.96 3.96 0 00-.155.752l-.005.025a4.003 4.003 0 000 .817.62.62 0 00.004.062l.005.046v.001l-.001.075-.005.264c-.005.235-.01.48-.003.672a16.3 16.3 0 00.326 2.494c.073.402.15.817.213 1.25v.007l.008.062a36.53 36.53 0 01.429 7.06 4.267 4.267 0 01-1.267 2.018l-.005.004-.005.005-.093 1.65a51.353 51.353 0 00-7.09 1.09 50.647 50.647 0 00-25.71 14.68 67.317 67.317 0 01-1.396-.992l-.012-.009-.013.002q-.14.019-.28.042a2.716 2.716 0 01-2.035-.264 36.414 36.414 0 01-5.232-4.719l-.068-.069c-.3-.319-.577-.637-.844-.944a16.484 16.484 0 00-1.748-1.808c-.175-.15-.421-.343-.638-.513l-.186-.146-.051-.04a5.017 5.017 0 00-2.762-1.042h-.002c-.049-.002-.097-.002-.146-.002a3.803 3.803 0 00-3.015 1.402 3.753 3.753 0 00-.74 3 4.635 4.635 0 001.71 2.85l.035.024.025.018.042.034.187.153.052.042q.158.131.31.252c.079.062.157.124.226.175a16.144 16.144 0 002.142 1.293q.568.297 1.123.618.778.441 1.534.92a38.61 38.61 0 013.77 2.744c.18.147.365.29.542.442a3.923 3.923 0 01.754 2.072l.01.064.017.116.001.009v.004l1.25 1.115a50.961 50.961 0 00-8.023 35.473l-.395.114-1.226.357-.011.003-.005.008-.16.208a7.134 7.134 0 01-1.515 1.488 36.421 36.421 0 01-6.954 1.15l-.094.01c-.417.034-.817.05-1.208.065-.025 0-.054.003-.08.004a16.07 16.07 0 00-2.491.233l-.043.01c-.206.04-.454.1-.7.16-.106.026-.211.052-.308.074l-.02.005-.015.003h-.002l-.028.01-.03.008a3.993 3.993 0 00-.737.175 3.903 3.903 0 00-.479.211c-.08.04-.166.068-.242.112a3.937 3.937 0 00-.445.315c-.06.047-.128.085-.186.135a3.988 3.988 0 00-.43.454c-.029.034-.064.063-.092.099a3.996 3.996 0 00-.817 2.057c-.002.018-.007.035-.009.053a4.013 4.013 0 00.008.619c.005.059 0 .117.007.176zm55.395-1.243a2.779 2.779 0 01-.246 1.027l-.008.018.06.076-7.849 18.965a40.717 40.717 0 01-7.658-6.357q-1.134-1.204-2.167-2.497a40.72 40.72 0 01-5.203-8.446q-.695-1.514-1.267-3.09l20.257-3.438.034.042.02-.004a3.538 3.538 0 01.595-.055l.037-.003h.042a2.784 2.784 0 011.04.195c.087.029.176.046.26.082l.011.006a3.437 3.437 0 01.514.284c.028.018.06.03.087.049a3.41 3.41 0 01.503.429 3.446 3.446 0 01.237.295c.058.076.126.146.178.226.053.082.09.174.136.26a3.451 3.451 0 01.171.331 3.406 3.406 0 01.187.635c.006.033.004.068.009.101a3.435 3.435 0 01.05.583v.013c0 .092-.021.182-.03.273zm23.07 25.544a41.831 41.831 0 01-22.152-1.129v-.001l3.547-6.413 6.412-11.596h.02l.008-.018a3.377 3.377 0 01.263-.366 3.327 3.327 0 012.643-1.449c.043-.002.084-.002.126-.002a3.467 3.467 0 013.022 1.808l.009.018h.077l9.985 18.044q-1.951.65-3.96 1.104zm29.181-25.669c-.161.442-.325.883-.5 1.317-.076.186-.16.368-.237.552-.139.33-.275.66-.423.986-.092.204-.193.404-.289.606-.142.3-.28.602-.43.898-.105.21-.22.417-.33.626-.15.283-.295.57-.45.85-.111.198-.23.392-.344.589-.164.283-.325.569-.495.848-.123.2-.253.395-.38.593-.171.27-.34.543-.518.81-.13.193-.267.381-.4.573-.183.264-.364.53-.553.79-.14.192-.288.378-.431.567-.186.245-.368.493-.559.734h-.001l-.007.008c-.18.227-.368.446-.553.669a40.318 40.318 0 01-9.351 8.271l-7.932-19.159.025-.035-.007-.017a3.407 3.407 0 01-.179-.547 3.45 3.45 0 01-.084-.527 3.45 3.45 0 01-.006-.493c.003-.06.013-.119.02-.179.01-.096.021-.192.04-.287a3.353 3.353 0 013.243-2.756c.025-.001.05-.003.076-.003a3.407 3.407 0 01.662.053l.02.004.033-.042 20.434 3.454c-.03.083-.064.164-.094.247zm-1.641-31.754a41.235 41.235 0 011.613 3.83q.637 1.754 1.113 3.559.475 1.802.786 3.642a41.234 41.234 0 01.573 7.446q-.011.835-.057 1.67t-.125 1.671l-19.853-5.718-.018-.085-.02-.005a3.411 3.411 0 01-1.216-.613c-.008-.007-.014-.015-.022-.021a3.428 3.428 0 01-.454-.436c-.014-.016-.024-.035-.038-.051a3.452 3.452 0 01-.339-.483c-.017-.03-.028-.063-.044-.093a3.454 3.454 0 01-.224-.498c-.017-.049-.025-.1-.04-.149a3.414 3.414 0 01-.112-.483c-.01-.071-.009-.145-.014-.218a3.386 3.386 0 01-.015-.439c.005-.093.024-.187.037-.281.014-.106.017-.21.041-.316h.001c.006-.027.018-.052.025-.08.005-.02.005-.042.01-.063.02-.07.05-.135.072-.202.026-.076.05-.153.08-.226.035-.081.077-.158.117-.235.04-.077.076-.156.122-.23.048-.077.104-.15.158-.223.048-.065.091-.133.143-.195a3.436 3.436 0 01.363-.369l.008-.007.006-.006-.007-.042 15.327-13.718a41.238 41.238 0 012.003 3.667zm-31.642-22.751a40.599 40.599 0 0111.92 3.412c.242.112.487.218.728.335l.01.004c.102.05.203.105.306.156.387.191.774.384 1.155.588.146.078.289.163.434.243.337.185.675.37 1.006.564.17.1.335.206.503.308.302.184.605.365.902.556.205.132.405.272.608.408.254.17.51.336.761.511.25.176.493.36.74.541.197.145.398.286.593.435.321.245.636.501.95.756.114.092.23.18.342.273q1.28 1.061 2.473 2.227v.001l-15.783 11.19-.987.699-.06-.025-.015.011a3.439 3.439 0 01-.535.313c-.056.027-.114.05-.171.074a3.412 3.412 0 01-.426.145c-.055.015-.109.033-.165.045a3.43 3.43 0 01-.57.079l-.018-.001a4.192 4.192 0 01-1.234-.182c-.027-.009-.056-.012-.082-.021a3.447 3.447 0 01-.448-.214c-.05-.027-.107-.046-.156-.075a3.408 3.408 0 01-.54-.406 3.48 3.48 0 01-.456-.508l-.006-.007a3.44 3.44 0 01-.29-.482c-.03-.062-.055-.127-.082-.19a3.41 3.41 0 01-.139-.384 3.498 3.498 0 01-.056-.207 3.444 3.444 0 01-.084-.567c0-.012-.004-.023-.005-.035v-.019l-.017-.01-1.166-20.55.06.009zm-8.186 33.95h6.3l3.915 4.893-1.406 6.107-5.655 2.72-5.672-2.728-1.406-6.107zm-25.442-22.641a40.606 40.606 0 0119.48-10.6 41.625 41.625 0 014.153-.718l-1.165 20.584-.084.042-.001.019v.001a3.43 3.43 0 01-.088.611c-.015.063-.033.125-.05.186a3.396 3.396 0 01-.148.411c-.024.057-.046.114-.073.17a3.425 3.425 0 01-.295.495l-.008.009a3.453 3.453 0 01-.45.504c-.076.07-.164.123-.245.185a3.467 3.467 0 01-.29.216c-.094.057-.198.097-.298.146-.101.049-.2.106-.304.145a3.445 3.445 0 01-.344.09c-.101.026-.2.062-.303.078a3.448 3.448 0 01-.675.04h-.01a3.433 3.433 0 01-.572-.078c-.06-.013-.12-.032-.179-.048a3.407 3.407 0 01-.413-.14c-.06-.025-.118-.049-.176-.077a3.424 3.424 0 01-.534-.311l-.017-.012-.034.016-16.877-11.964zm-6.184 7.767l15.411 13.785-.016.084.014.013a3.433 3.433 0 01.423.45c.04.05.077.103.114.155a3.403 3.403 0 01.23.372c.029.054.06.107.086.162a3.424 3.424 0 01.205.545l.001.009a2.655 2.655 0 01.103 1.014c-.004.106.003.213-.01.317a3.44 3.44 0 01-.08.355c-.023.099-.037.201-.07.297a3.453 3.453 0 01-.161.367c-.038.08-.066.166-.11.243a3.446 3.446 0 01-.392.555l-.004.005a3.431 3.431 0 01-.417.399c-.05.041-.105.077-.158.116a3.403 3.403 0 01-.357.228c-.059.032-.117.065-.177.094a3.428 3.428 0 01-.563.217l-.011.004-.02.005-.016.068-19.755 5.7a40.5 40.5 0 015.73-25.559z" class="cls-3"/><path d="M172.428 210.929l.007.042-.006.006.007-.006-.008-.042z" class="cls-3"/><path d="M136.469 229.073a3.447 3.447 0 00-.674-.078M171.635 212c.04-.076.076-.155.122-.229m.158-.223c.048-.065.091-.133.143-.195" class="cls-4"/><path d="M173.808 216.978l19.853 5.718q.08-.835.125-1.67-.045.834-.125 1.67z" class="cls-3"/><path d="M193.786 221.025q.045-.835.057-1.67" class="cls-4"/><path d="M173.771 216.888a3.426 3.426 0 01-1.217-.613 3.411 3.411 0 001.216.613l.02.005.018.085-.017-.085z" class="cls-3"/><path d="M171.657 215.191a3.454 3.454 0 01-.224-.498m-.181-1.289a3.386 3.386 0 00.015.439" class="cls-4"/><path d="M171.331 212.807h-.001c-.024.105-.027.21-.041.315a3.396 3.396 0 01.067-.394c-.007.027-.019.052-.025.079z" class="cls-3"/><path d="M189.19 237.617c-.15.283-.295.57-.45.85m-17.346-23.923a3.414 3.414 0 01-.113-.483m1.251 2.193a3.428 3.428 0 01-.454-.436m-.038-.051a3.452 3.452 0 01-.339-.483m-.263-2.823c.026-.075.05-.152.08-.225m18.432 23.857c-.142.3-.28.602-.43.898m-1.998 3.506c-.172.27-.34.543-.519.81m-48.242-10.486c-.046-.086-.083-.178-.136-.26m47.978 11.319c-.183.264-.364.53-.553.79m2.346-3.614c-.164.283-.325.569-.495.848" class="cls-4"/><path d="M185.059 243.971h.001c.191-.241.373-.489.559-.734-.188.248-.373.499-.567.742zm-49.938-14.918a3.54 3.54 0 01.595-.055 3.538 3.538 0 00-.596.055l-.02.004h.001zm40.027 23.866a40.318 40.318 0 009.351-8.27 40.53 40.53 0 01-9.351 8.27zm-25.123-13.757l-6.413 11.596 6.414-11.596h-.001zm-9.958 18.009l-.001.001a40.75 40.75 0 0018.082 1.82 40.748 40.748 0 01-18.081-1.82z" class="cls-3"/><path d="M138.932 231.152a3.406 3.406 0 01.187.635" class="cls-4"/><path d="M137.095 229.272c-.084-.036-.173-.053-.26-.082.09.03.185.05.271.088z" class="cls-3"/><path d="M139.178 232.47a3.435 3.435 0 00-.05-.582m51.534 2.613c-.139.33-.275.66-.423.986" class="cls-4"/><path d="M167.234 233.708l.007.017-.025.035.026-.035-.008-.017z" class="cls-3"/><path d="M166.971 232.634c.006.07.014.138.024.207m3.349-3.925l-.076.002m-3.034 4.79a3.407 3.407 0 01-.179-.547m-29.348-3.55c-.027-.019-.06-.03-.087-.049m.827.773a3.446 3.446 0 00-.237-.295m53.189 2.592c-.161.442-.325.883-.501 1.317" class="cls-4"/><path d="M148.121 178.118l-1.165 20.584 1.165-20.584a41.625 41.625 0 00-4.153.718 40.606 40.606 0 00-19.48 10.6 40.606 40.606 0 0119.48-10.6 41.603 41.603 0 014.153-.718zm-1.338 21.257a3.43 3.43 0 00.088-.611v-.001.001a3.429 3.429 0 01-.088.611z" class="cls-3"/><path d="M139.105 233.137a3.433 3.433 0 00.043-.38m6.366-31.422c.081-.062.17-.116.245-.185" class="cls-4"/><path d="M141.365 201.4l.034-.016-.034.016z" class="cls-3"/><path d="M144.926 201.697c.1-.049.205-.089.299-.146m-3.275.156c.058.028.117.052.176.077m1.174.266a3.448 3.448 0 00.675-.04m-9.495 10.052a3.403 3.403 0 00-.23-.372m8.29-9.766c.059.016.117.035.178.048m-8.582 9.564a3.433 3.433 0 00-.423-.451m-.774 5.683c.06-.029.118-.061.177-.094" class="cls-4"/><path d="M134.77 212.769a3.424 3.424 0 00-.204-.544 3.432 3.432 0 01.206.553zm-2.425 4.225l.02-.005.011-.004-.012.004zm1.368-5.909l-.014-.013.016-.084-.016.084.014.013z" class="cls-3"/><path d="M133.473 216.446c.053-.039.107-.075.158-.116m1.233-2.22a3.44 3.44 0 01-.079.354m-.733 1.462a3.446 3.446 0 00.393-.555m.439-1.929a3.452 3.452 0 01-.009.35m-.321 1.336a3.453 3.453 0 00.162-.367m40.364-30.468c.205.132.405.272.608.408m2.093 1.487c.322.245.637.501.951.756" class="cls-4"/><path d="M146.217 200.637a3.425 3.425 0 00.295-.496 3.427 3.427 0 01-.302.505zm35.33-11.193q-1.192-1.165-2.473-2.227 1.277 1.06 2.472 2.227z" class="cls-3"/><path d="M163.57 201.852a3.412 3.412 0 00.426-.145" class="cls-4"/><path d="M162.835 201.976a3.43 3.43 0 00.57-.08 3.437 3.437 0 01-.588.079h.018z" class="cls-3"/><path d="M164.167 201.633a3.439 3.439 0 00.535-.313m8.973-17.891c.17.1.335.206.503.308m-1.943-1.115c.146.078.289.163.434.243" class="cls-4"/><path d="M170.773 181.878l-.01-.004c.107.051.21.108.317.16-.103-.05-.204-.106-.307-.156z" class="cls-3"/><path d="M176.449 185.212c.25.176.493.36.74.541m-15.606 16.04a3.441 3.441 0 00.753.156m-1.283-.391a3.447 3.447 0 00.448.214" class="cls-4"/><path d="M156.23 212.077l3.915 4.893-3.915-4.893zm4.126-11a3.461 3.461 0 01-.455-.508 3.48 3.48 0 00.455.508zm.541.406a3.43 3.43 0 01-.54-.406 3.408 3.408 0 00.54.406z" class="cls-3"/><path d="M146.733 199.561a3.396 3.396 0 01-.148.411" class="cls-4"/><path d="M164.717 201.309l.06.025.986-.699-.986.699-.06-.025z" class="cls-3"/><path d="M159.523 199.89c.027.063.052.128.083.19" class="cls-4"/><path d="M159.239 198.677l-.017-.009.017.01v.019c0 .012.005.023.005.035 0-.012-.003-.023-.004-.035z" class="cls-3"/><path d="M159.328 199.3c.016.069.036.137.056.206" class="cls-4"/><path d="M158.116 178.127a40.835 40.835 0 0111.92 3.412 40.599 40.599 0 00-11.92-3.412z" class="cls-3"/><path d="M144.278 201.932a3.445 3.445 0 00.344-.09" class="cls-4"/><path d="M103.469 173.948l-.051-.04a4.725 4.725 0 00-1.808-.89 4.725 4.725 0 011.808.89zm-4.904 6.244l.187.153.052.042-.052-.042-.187-.153zM87.25 229.573l.02-.005-.02.005-.015.003-.002.001.002-.001.015-.003zm9.503-52.307a3.753 3.753 0 01.74-3 3.803 3.803 0 013.015-1.402c.05 0 .098 0 .146.002l-.146-.002a3.803 3.803 0 00-3.016 1.403 3.753 3.753 0 00-.74 3 4.635 4.635 0 001.712 2.849 4.635 4.635 0 01-1.711-2.85z" class="cls-3"/><path d="M85.273 230.407a3.937 3.937 0 01.444-.315m122.059-56.717a3.984 3.984 0 01.438.363M87.158 237.47a3.974 3.974 0 01-.545-.1" class="cls-4"/><path d="M114.525 182.375l-.012-.008-.013.002.013-.002zm27.107-13.688a51.353 51.353 0 017.089-1.09 51.352 51.352 0 00-7.09 1.09 50.647 50.647 0 00-25.71 14.68 50.647 50.647 0 0125.711-14.68zm-50.819 60.404l.08-.004c-.026 0-.054.003-.08.004a16.077 16.077 0 00-2.492.233l-.043.01.043-.01a16.07 16.07 0 012.492-.233zm8.527-48.277a8.574 8.574 0 010 .001 16.14 16.14 0 002.142 1.292c.365.193.741.393 1.123.618q-.555-.321-1.123-.618a16.144 16.144 0 01-2.142-1.293zm109.562-6.282l-.008-.01c.043.067.07.14.108.21-.036-.066-.06-.136-.1-.2zm-108.079 51.634l.005-.008.011-.003 1.227-.357-1.226.356-.012.004-.006.009-.16.208a4.603 4.603 0 01-.305.378 4.598 4.598 0 00.306-.379z" class="cls-3"/><path d="M205.6 172.688c.131.002.26.025.389.04" class="cls-4"/><path d="M108.451 186.831c-.177-.152-.361-.295-.542-.443.18.148.365.291.542.443a3.923 3.923 0 01.754 2.072l.01.064-.01-.064a3.923 3.923 0 00-.754-2.072zm-.541-.443z" class="cls-3"/><path d="M84.656 230.996a3.988 3.988 0 01.43-.454" class="cls-4"/><path d="M112.185 182.147a36.415 36.415 0 01-5.232-4.72l-.068-.068.068.07a36.414 36.414 0 005.232 4.718zm79.611.202l-.205-.014c.06.003.13.009.205.014zm2.164-.269c.117-.087.228-.18.344-.269-.116.088-.227.182-.344.268a3.907 3.907 0 01-2.164.27 3.907 3.907 0 002.164-.27zm-3.864 1.312a51.57 51.57 0 00-9.24-7.653 51.568 51.568 0 019.239 7.653zm-40.977-31.402l.005.047v-.001zm50.972 24.364c-.264.302-.538.615-.832.928l-.008.008.008-.008c.294-.313.568-.626.832-.928zm2.644-2.522l.007-.006-.007.006-.245.192-.213.167.213-.167z" class="cls-3"/><path d="M148.721 167.597l.093-1.649" class="cls-4"/><path d="M149.441 155.542a16.3 16.3 0 01-.326-2.494 16.304 16.304 0 00.326 2.495c.074.4.151.816.213 1.25v.006-.007c-.062-.433-.14-.848-.213-1.25z" class="cls-3"/><path d="M154.98 148.01a3.911 3.911 0 01.342.228" class="cls-4"/><path d="M150.091 163.921a4.267 4.267 0 01-1.268 2.018l-.004.004.005-.004a4.267 4.267 0 001.267-2.018zm-40.857 25.175l-.001-.004.001.004z" class="cls-3"/><path d="M207.467 173.203a4.007 4.007 0 00-.37-.198M85.96 229.98a3.903 3.903 0 01.479-.21" class="cls-4"/><path d="M149.118 152.376l.005-.265-.005.265z" class="cls-3"/><path d="M206.364 172.774c.122.026.237.071.355.108m1.927 1.325a4.073 4.073 0 00-.26-.324m13.66 61.287c-.044.092-.077.19-.127.275m-21.369-35.779c.192.478.379.957.556 1.44" class="cls-4"/><path d="M83.748 233.152a3.996 3.996 0 01.817-2.057 3.97 3.97 0 00-.817 2.057z" class="cls-3"/><path d="M221.675 235.79c-.071.096-.133.2-.211.29m-.258.242a4.002 4.002 0 01-.301.28m-23.697-49.077c-.017.042-.043.08-.059.123m-.132.504c.012-.074.039-.145.057-.218m7.163 30.694l-.002-.056m16.349 18.234c-.107.067-.209.144-.322.2m2.161-3.066a3.902 3.902 0 00.016-.5m-.811-2.422a3.982 3.982 0 00-.284-.305m.688.949c-.058-.115-.135-.218-.204-.327m-.723-.875c-.09-.08-.196-.142-.293-.214m1.632 2.898a3.922 3.922 0 00-.072-.423m-1.902-2.717c-.085-.05-.183-.083-.273-.126m2.112 2.498c-.033-.117-.087-.226-.13-.339" class="cls-4"/><path d="M222.26 234.686c.04-.12.052-.24.08-.36-.03.132-.052.267-.094.393.004-.012.01-.021.014-.033z" class="cls-3"/><path d="M209.328 177.856c.037-.118.082-.233.107-.353M87.386 237.51c.132.01.267-.003.402-.006" class="cls-4"/><path d="M88.23 237.49a3.98 3.98 0 00.703-.16 3.994 3.994 0 01-.745.161l.042-.001zm91.59 26.724l-.003.01.003-.01z" class="cls-3"/><path d="M209.253 175.23c.044.113.067.23.1.346m.129 1.549c.015-.13.038-.256.04-.386m-.062-.766a3.933 3.933 0 01.037.404m7.223 60.746c-.2-.04-.4-.082-.57-.125m2.63.421a3.934 3.934 0 00.412-.07m-10.184-58.746a4.004 4.004 0 00.196-.366m10.671 58.921c-.11.042-.214.094-.327.125m-1.072.131a3.88 3.88 0 01-.493-.016" class="cls-4"/><path d="M207.403 180.265c-.206.17-.418.346-.592.474.174-.128.386-.303.592-.474z" class="cls-3"/><path d="M208.835 178.914a3.977 3.977 0 01-.36.434m-.79.686a4.001 4.001 0 00.642-.51" class="cls-4"/><path d="M179.807 264.198l.008.01-.007-.01a5.971 5.971 0 01-.44-1.032l-.078-.208.077.207a5.971 5.971 0 00.44 1.033z" class="cls-3"/><path d="M152.676 147.55c.133-.013.272 0 .408 0" class="cls-4"/><path d="M171.367 266.574l.347.627.184.333-.184-.334-.347-.626z" class="cls-3"/><path d="M156.592 149.622a4.003 4.003 0 01.17.398" class="cls-4"/><path d="M134.111 267.932l.884-1.602-.884 1.602z" class="cls-3"/><path d="M156.163 148.985c.076.093.135.198.203.297m-5.816-.842c.093-.076.198-.136.298-.204" class="cls-4"/><path d="M128.242 279.42l-.01.021.01-.021a16.12 16.12 0 00.783-2.378c.034-.125.075-.257.11-.384-.035.126-.076.26-.11.383a16.117 16.117 0 01-.783 2.379zm3.05-8.756a14.849 14.849 0 011.127-1.913 3.16 3.16 0 011.321-.732 3.16 3.16 0 00-1.322.732 14.857 14.857 0 00-1.126 1.913z" class="cls-3"/><path d="M151.187 148.01a4.013 4.013 0 01.4-.17" class="cls-4"/><path d="M179.512 266.531a36.858 36.858 0 003.486 6.24c.247.367.498.71.741 1.042a16.163 16.163 0 011.37 2.097c.107.2.232.465.354.722l.16.338a4.212 4.212 0 01-1.689 5.637 3.76 3.76 0 01-1.538.36 3.76 3.76 0 001.538-.36 4.212 4.212 0 001.69-5.637l-.161-.338c-.122-.257-.247-.523-.353-.722a16.17 16.17 0 00-1.371-2.097q-.381-.513-.74-1.042a36.862 36.862 0 01-3.487-6.24 2.69 2.69 0 01.193-2.022l.081-.207-.082.207a2.69 2.69 0 00-.192 2.022z" class="cls-3"/><path d="M151.899 147.71a3.964 3.964 0 01.755-.155m4.399 4.345a4.013 4.013 0 000-.789m-.16-.777a3.966 3.966 0 01.153.74" class="cls-4"/><path d="M178.449 280.363l-.14-.285q-.182-.356-.346-.72c.09.207.22.467.345.72.05.1.098.197.14.285a4.616 4.616 0 002.151 2.168 4.616 4.616 0 01-2.15-2.168zm-1.469-4.049c.062.215.13.435.186.642a16.51 16.51 0 00.722 2.203 16.497 16.497 0 01-.721-2.203c-.057-.207-.124-.427-.186-.642zm-84.514-40.122a16.595 16.595 0 01-2.323.859 16.595 16.595 0 002.323-.858c.372-.16.756-.325 1.162-.48l.07-.026-.069.025c-.407.156-.791.32-1.163.48zm33.94 28.016l.703-1.689a51.265 51.265 0 01-22.676-28.314 51.265 51.265 0 0022.676 28.314l-.703 1.689-.006.012.005.013-.005-.013zm-23.692-29.723l.01.006.01.006h.001l-.011-.006-.01-.006z" class="cls-3"/><path d="M100.481 233.696l.024.003" class="cls-4"/><path d="M83.755 234.069a3.965 3.965 0 00.15.631 4.012 4.012 0 01-.152-.7c.002.023-.001.046.002.069zm5.29 3.235a.28.28 0 01.03-.009l.239-.051-.239.05a.253.253 0 00-.03.01zm-4.701-1.633a3.985 3.985 0 01-.42-.892 3.96 3.96 0 00.42.892zm.61.744a4.03 4.03 0 01-.284-.345 4.004 4.004 0 00.284.345zm.764.573a4.014 4.014 0 01-.329-.245 3.988 3.988 0 00.329.245zm-1.048-.918a3.927 3.927 0 01-.326-.399 3.88 3.88 0 00.326.4zm1.924 1.293a3.978 3.978 0 01-.876-.375 4.01 4.01 0 00.876.375zm-1.205-.62a3.998 3.998 0 01-.435-.328 3.95 3.95 0 00.435.328z" class="cls-3"/><path d="M155.619 148.44c.099.082.182.18.272.27m-72.152 84.495a4.013 4.013 0 00.008.619" class="cls-4"/><path d="M127.755 280.428l.003-.014.117-.238-.118.237zm-.999-13.995a3.88 3.88 0 00-.35-2.2h-.001a3.881 3.881 0 01.35 2.2 38.25 38.25 0 01-3.559 6.396 38.255 38.255 0 003.56-6.396zm26.737-118.883l.024.005c-.008 0-.016-.004-.024-.005z" class="cls-3"/><path d="M154.27 147.71c.109.034.207.088.312.13" class="cls-4"/><path d="M122.463 273.864c.147-.202.298-.42.448-.632-.15.213-.302.43-.449.632a16.461 16.461 0 00-1.378 2.113 16.458 16.458 0 011.379-2.113z" class="cls-3"/><path d="M197.504 193.357a51.115 51.115 0 00-1.928-3.138m-46-40.597a3.912 3.912 0 01.227-.341" class="cls-4"/><path d="M203.393 173.308l-.01.007c.066-.041.138-.067.205-.105-.064.036-.132.058-.195.098zm-54.278-22.198v.001c0-.009.004-.016.005-.025 0 .009-.004.016-.005.024zm66.247 77.888a16.02 16.02 0 012.493.234l.005.001-.005-.001a16.022 16.022 0 00-2.493-.234q-.643-.02-1.284-.07l-.03-.003.03.003c.442.037.87.054 1.284.07zm-9.9-2.758l-.114-.165-.007-.01.007.01.114.165zm14.282 3.437c-.012-.003-.021-.01-.033-.014a3.982 3.982 0 00-.71-.162l-.129-.031.13.031a3.99 3.99 0 01.742.176z" class="cls-3"/><path d="M149.275 150.334c.034-.11.088-.208.13-.313" class="cls-4"/><path d="M196.962 188.946c.01-.089.014-.178.021-.268-.002-.076.01-.15.014-.224-.003.074-.016.148-.014.223-.007.091-.012.18-.02.27z" class="cls-3"/><path d="M204.834 172.749a3.912 3.912 0 01.406-.036" class="cls-4"/><path d="M205.341 226.065l-1.573-.457 1.573.457zm-9.583-36.01l.59-.528-.59.528zm2.279-3.581a37.103 37.103 0 015.5-3.824c.361-.213.717-.401 1.063-.585a29.38 29.38 0 00-1.063.584 37.104 37.104 0 00-5.5 3.825z" class="cls-3"/><path d="M204.091 172.957c.113-.045.23-.067.346-.1" class="cls-4"/><path d="M203.481 234.418l.007.001.014.002-.013-.002-.008-.001z" class="cls-3"/><path d="M150.005 148.985c.083-.1.18-.185.273-.277" class="cls-4"/><path d="M205.482 233.595c.068 0 .139.002.211.009a36.28 36.28 0 016.228 1.783 36.286 36.286 0 00-6.228-1.784 2.761 2.761 0 00-.21-.008zm-26.313 29.05a51.255 51.255 0 0022.67-28.516h-.001a51.255 51.255 0 01-22.669 28.516zm-21.815-96.775l-.214-.198c.073.066.144.132.215.199zm.015.117c.014.338.05 1.058.08 1.534q-.046-.767-.08-1.534z" class="cls-3"/><path d="M133.766 344.156q.045-.534.089-1.202.045-.712.045-1.292 0-.74-.045-1.435a12.23 12.23 0 00-2.251-6.818 8.653 8.653 0 00-.599-.697 10.176 10.176 0 00-5.805-2.964q-.511-.078-1.031-.107a9.936 9.936 0 00-1.046-.002 11.399 11.399 0 00-4.186.802 10.52 10.52 0 00-3.562 2.36 11.926 11.926 0 00-2.539 3.919q-.246.65-.429 1.32a14.441 14.441 0 00-.406 2.214c-.019.171-.05.34-.063.511-.02.273-.017.547-.022.82-.003.19-.019.378-.015.568 0 .04.004.082.004.123a15.696 15.696 0 00.71 4.686 11.31 11.31 0 002.27 3.874 11.126 11.126 0 003.727 2.473c.05.02.097.046.147.066a14.94 14.94 0 005.522.935 23.4 23.4 0 002.494-.134q1.247-.133 2.315-.356a15.575 15.575 0 002.004-.445q.367-.104.724-.238.356-.134.701-.297l-.89-5.388a14.304 14.304 0 01-2.895.846 20.125 20.125 0 01-3.562.312 7.695 7.695 0 01-4.543-1.203 4.408 4.408 0 01-.743-.636c-.085-.09-.144-.198-.22-.294a4.417 4.417 0 01-.36-.48c-.05-.085-.076-.18-.12-.269a4.394 4.394 0 01-.276-.613c-.019-.058-.02-.12-.037-.18a4.377 4.377 0 01-.159-.778v-.001zm-14.651-6.19a4.766 4.766 0 01.846-1.47 3.721 3.721 0 011.336-.979 4.399 4.399 0 011.893-.399h.022a4.07 4.07 0 011.915.4 3.733 3.733 0 011.291 1.023 3.674 3.674 0 01.758 1.425 6.222 6.222 0 01.311 1.648h-8.773a10.269 10.269 0 01.401-1.648zm58.799.297a18.008 18.008 0 00-.34-1.983c-.015-.06-.024-.123-.039-.184a8.59 8.59 0 00-1.648-3.384 7.28 7.28 0 00-3.16-2.182 12.983 12.983 0 00-2.347-.62 13.306 13.306 0 00-2.42-.179c-.06.001-.118-.005-.177-.003l-.082.001a34.111 34.111 0 00-5.529.445 34.686 34.686 0 00-4.365.89v22.622h6.636v-18.08q.623-.089 1.425-.133h.005a13.727 13.727 0 011.51-.09 3.451 3.451 0 013.161 1.337 8.945 8.945 0 01.846 4.542v12.424h6.635v-13.248a17.988 17.988 0 00-.111-2.175zm86.131 7.541a1.643 1.643 0 01.98 1.38 1.376 1.376 0 01-.757 1.381 6.622 6.622 0 01-1.926.364q-.328.012-.657-.008a17.902 17.902 0 01-3.518-.355 23.497 23.497 0 01-3.473-1.07l-1.113 5.389a21.16 21.16 0 002.85.89 21.462 21.462 0 005.21.535 20.17 20.17 0 002.858-.195 10.422 10.422 0 004.489-1.587 5.94 5.94 0 002.628-5.254 8.489 8.489 0 00-.356-2.583 4.737 4.737 0 00-1.158-2.004 7.553 7.553 0 00-.946-.876c-.088-.069-.178-.133-.269-.198a7.55 7.55 0 00-1.012-.618 25.174 25.174 0 00-3.608-1.603 38.918 38.918 0 01-1.5-.596c-.09-.039-.197-.08-.28-.117l-.12-.067a16.83 16.83 0 01-.557-.313 9.521 9.521 0 01-.393-.243 1.663 1.663 0 01-.502-.577c-.01-.017-.023-.03-.031-.047a1.792 1.792 0 01-.134-.712q0-1.737 3.117-1.737a13.378 13.378 0 013.028.312q.544.12 1.08.27.537.149 1.068.32c.13.042.262.078.39.122l1.159-5.166a17.915 17.915 0 00-3.118-.801 20.403 20.403 0 00-4.085-.4l-.012-.001q-.449-.026-.896-.013a10.654 10.654 0 00-5.828 1.928c-.138.105-.263.223-.39.338a6.252 6.252 0 00-2.059 4.872 7.666 7.666 0 00.49 2.895 6.272 6.272 0 001.38 2.092 8.767 8.767 0 002.138 1.47q1.27.613 2.8 1.184l.05.019a17.15 17.15 0 012.983 1.38zm-61.301-12.29a8.658 8.658 0 00-.679-.802 10.306 10.306 0 00-7.882-3.073c-.09 0-.178.01-.268.013a11.393 11.393 0 00-3.918.789 10.521 10.521 0 00-3.562 2.36 11.922 11.922 0 00-2.471 3.77c-.021.05-.048.098-.068.149a14.448 14.448 0 00-.928 5.152c0 .094-.009.187-.007.28-.002.178.012.355.016.533.006.23.005.46.021.688.02.285.058.567.093.85.015.12.021.242.04.362.04.27.097.537.15.805.027.13.045.263.075.393.02.09.05.18.072.27.076.304.152.609.246.909.012.035.028.068.04.103a10.775 10.775 0 002.231 3.771 11.13 11.13 0 003.874 2.539 14.938 14.938 0 005.522.935q.625 0 1.249-.034.623-.033 1.245-.1c.192-.02.37-.048.556-.072.617-.079 1.212-.17 1.76-.284a15.569 15.569 0 002.004-.445 9.165 9.165 0 001.424-.535l-.89-5.388a14.31 14.31 0 01-2.895.846q-.882.157-1.774.235-.891.078-1.788.077a7.697 7.697 0 01-4.543-1.203 3.723 3.723 0 01-.527-.438 5.36 5.36 0 01-.45-.51 4.387 4.387 0 01-.937-2.302v-.001h15.051q.045-.534.089-1.202h.001l.007-.136c.022-.4.035-.769.036-1.104l.001-.051a14.225 14.225 0 00-1.697-7.373 9.09 9.09 0 00-.52-.776zm-12.969 6.1a10.255 10.255 0 01.4-1.648 4.764 4.764 0 01.846-1.47 3.721 3.721 0 011.336-.979 4.24 4.24 0 011.915-.4 4.07 4.07 0 011.915.4 3.733 3.733 0 011.292 1.024 3.673 3.673 0 01.757 1.425 6.213 6.213 0 01.269 1.294c.013.118.036.235.042.354zm-36.816-9.306a13.508 13.508 0 00-1.514-.267 13.166 13.166 0 00-1.514-.178 11.318 11.318 0 00-1.292-.089 23.642 23.642 0 00-5.433.578 37.29 37.29 0 00-4.186 1.158v22.176h6.636v-17.902a7.523 7.523 0 011.291-.222 10.468 10.468 0 011.514-.134 11.898 11.898 0 012.583.267q1.203.223 2.093.446l.05-.25 1.063-5.227a6.191 6.191 0 00-1.291-.356zm-45.712 6.679a11.08 11.08 0 00-1.96-3.874 8.428 8.428 0 00-3.206-2.45 10.347 10.347 0 00-4.409-.89 11.898 11.898 0 00-2.583.267 12.432 12.432 0 00-2.315.757v-11.668l-6.636 1.07v32.73q.891.267 2.049.535 1.158.222 2.405.4 1.291.179 2.582.268.668.066 1.303.1t1.236.033a14.727 14.727 0 005.166-.846 10.71 10.71 0 003.83-2.494 10.473 10.473 0 002.36-3.874 15.1 15.1 0 00.846-5.077 17.336 17.336 0 00-.668-4.987zm-7.482 9.753a4.768 4.768 0 01-4.097 1.87q-.89 0-1.647-.045-.757-.088-1.247-.178v-12.068a5.79 5.79 0 011.603-.668 8.084 8.084 0 012.048-.267q4.72 0 4.72 6.412a8.13 8.13 0 01-1.38 4.944zm-65.203 6.946h6.634v-10.242q.606.493 1.164 1.04.558.547 1.064 1.143a32.37 32.37 0 012.182 2.716c.197.266.382.535.572.803q.4.566.778 1.138c.19.288.383.574.565.865q.935 1.38 1.647 2.537h7.614q-.758-1.47-1.87-3.25-1.114-1.782-2.45-3.563t-2.761-3.429a29.185 29.185 0 00-2.761-2.895q2.672-2.627 4.899-5.077 2.27-2.493 4.63-5.209H48.59q-.624.756-1.514 1.78-.847 1.025-1.826 2.183-.98 1.113-2.049 2.27-1.024 1.159-2.004 2.227h-.001V319.13l-6.634 1.07zm187.809-5.254c-.044.007-.088.01-.132.016a13.803 13.803 0 01-2.05.162 3.854 3.854 0 01-2.513-.701 2.169 2.169 0 01-.47-.546 6.724 6.724 0 01-.713-3.34v-8.239h7.972v-5.522h-7.972v-6.902l-6.635 1.069v19.683c0 .077.01.154.01.231a19.802 19.802 0 00.391 3.91 8.03 8.03 0 001.514 3.207 7.345 7.345 0 002.85 2.048 12.208 12.208 0 004.498.713 15.562 15.562 0 003.607-.357 18.873 18.873 0 002.672-.846l-.936-5.165a12.534 12.534 0 01-2.093.579zm20.963-18.102a10.305 10.305 0 00-4.271-.691c-.094 0-.187.011-.28.013a11.39 11.39 0 00-3.906.789 10.52 10.52 0 00-3.562 2.36 11.92 11.92 0 00-2.44 3.705c-.031.072-.069.141-.098.214-.113.298-.212.6-.301.905s-.168.613-.24.922c-.067.281-.14.56-.188.844-.018.101-.023.204-.038.305-.053.355-.105.71-.132 1.07-.021.282-.018.566-.023.85-.003.179-.018.357-.014.536-.001.178.012.355.016.533.006.23.005.46.021.688.02.285.058.567.093.85.015.12.021.242.04.362.04.27.097.537.15.805.027.13.045.263.075.393.02.09.05.18.072.27.076.305.152.609.246.909a10.777 10.777 0 002.27 3.874 11.884 11.884 0 003.875 2.539c.14.052.286.089.429.137a15.334 15.334 0 002.298.577c.115.02.23.041.345.058a14.555 14.555 0 002.45.163q.625 0 1.249-.034.623-.033 1.245-.1c.204-.022.394-.051.59-.076a22.943 22.943 0 001.726-.28q.508-.078 1.01-.19.5-.11.994-.255l.08-.026a9.167 9.167 0 001.344-.509l-.89-5.388a14.3 14.3 0 01-2.894.846 20.107 20.107 0 01-2.232.255c-.443.029-.886.058-1.331.057a7.696 7.696 0 01-4.542-1.203c-.12-.081-.215-.186-.325-.278a4.4 4.4 0 01-.998-1.132c-.036-.063-.055-.134-.089-.198a4.39 4.39 0 01-.503-1.642v-.001h15.051q.045-.528.089-1.189l.001-.013.007-.136c.014-.262.024-.507.03-.742.003-.141.007-.283.007-.413q0-5.923-2.894-8.951a10.305 10.305 0 00-3.612-2.383zm-8.679 9.284a10.267 10.267 0 01.4-1.648 4.768 4.768 0 01.847-1.47 3.721 3.721 0 011.336-.979 4.239 4.239 0 011.915-.4 4.07 4.07 0 011.914.4 3.733 3.733 0 011.292 1.024 3.674 3.674 0 01.757 1.425 6.213 6.213 0 01.285 1.425c.007.075.023.148.027.223zm-161.424 8.728l-.074.01c-.399.057-.846.113-1.351.169q-.802.044-1.514.044a3.366 3.366 0 01-3.162-1.425 9.49 9.49 0 01-.846-4.631v-12.247h-6.635v13.048c0 .074.004.148.005.222a18.56 18.56 0 00.485 4.187 8.965 8.965 0 001.431 3.161c.073.104.138.213.216.313.065.078.141.144.209.22a7.642 7.642 0 002.909 2.006 13.503 13.503 0 003.716.779q.634.041 1.271.023a34.112 34.112 0 005.611-.446 34.672 34.672 0 004.364-.89v-22.623h-6.635z" class="cls-6"/><path d="M198.547 339.614h-8.772 8.772c-.006-.119-.03-.236-.042-.354.013.118.036.235.042.354zm-71.06 0h-8.772 8.772zm-4.275-4.497h-.022.022zm-1.082.115a4.244 4.244 0 011.06-.114 4.24 4.24 0 00-1.06.114zm121.298 4.382h-8.773 8.773c-.004-.075-.02-.148-.027-.223.007.075.023.148.027.223zm-150.654 8.773q.49.09 1.247.178-.757-.089-1.247-.178zm2.894.222q-.89 0-1.647-.044.757.045 1.647.045a4.768 4.768 0 004.097-1.87 8.13 8.13 0 001.38-4.944 8.13 8.13 0 01-1.38 4.943 4.768 4.768 0 01-4.097 1.87z" class="cls-6"/><path d="M194.272 335.117a4.071 4.071 0 01.494.012" class="cls-7"/><path d="M41.197 338.723V319.13h-.001v19.594l.001-.001zm187.677-2.217c-.03.072-.068.14-.097.214.029-.073.067-.142.097-.214z" class="cls-6"/><path d="M228.476 337.625c-.09.305-.168.613-.24.922" class="cls-7"/><path d="M46.94 340.549a29.185 29.185 0 012.761 2.895q1.425 1.648 2.761 3.429t2.45 3.563q1.112 1.78 1.87 3.25h-7.614l.001.001h7.615q-.757-1.47-1.87-3.25t-2.45-3.563q-1.337-1.782-2.762-3.43a29.19 29.19 0 00-2.76-2.895q2.671-2.627 4.898-5.076 2.27-2.494 4.63-5.21-2.36 2.717-4.631 5.21-2.227 2.449-4.899 5.076zm194.172 8.061c.445 0 .888-.029 1.331-.057-.443.028-.886.058-1.331.057a7.696 7.696 0 01-4.542-1.203c-.12-.081-.215-.186-.325-.278.11.092.206.197.325.278a7.696 7.696 0 004.542 1.203zm-6.457-4.454v.001h15.052q.044-.53.088-1.19-.045.66-.089 1.189zm-193.459 9.53h-6.634v.001h6.635v-10.242q.606.493 1.163 1.04-.557-.547-1.164-1.041zm197.867-24.047c-.094 0-.187.011-.28.014.093-.003.186-.014.28-.014z" class="cls-6"/><path d="M46.956 350.284q-.378-.572-.778-1.138" class="cls-7"/><path d="M247.115 353.349a9.176 9.176 0 001.345-.51l-.89-5.387.889 5.388a9.167 9.167 0 01-1.344.509zm-13.851-.669a11.103 11.103 0 001.435.695c.14.052.286.089.429.137-.143-.048-.288-.085-.429-.137a11.107 11.107 0 01-1.435-.695z" class="cls-6"/><path d="M119.306 345.997c-.05-.085-.076-.18-.12-.269m58.387-9.448a18.008 18.008 0 01.34 1.983" class="cls-7"/><path d="M167.7 329.73a34.11 34.11 0 00-5.528.443 34.7 34.7 0 00-4.365.89 34.686 34.686 0 014.365-.89 34.111 34.111 0 015.529-.444zm.083-.002c.059-.002.118.004.177.003-.06.001-.118-.005-.177-.003zm37.177 11.935v.051zm0 .051zm-4.809 12.106z" class="cls-6"/><path d="M183.429 346.053c-.023-.09-.053-.18-.073-.27" class="cls-7"/><path d="M164.443 335.606v18.08-18.08q.623-.089 1.425-.133h.005-.005q-.802.044-1.425.133zm-13.399.089q1.202.223 2.093.446l.05-.25-.05.25q-.89-.223-2.093-.446zm-19.226 17.442q.356-.134.701-.297l-.89-5.388.89 5.388q-.345.163-.701.297zm-18.107-3.867a10.765 10.765 0 001.173 1.566 11.125 11.125 0 003.728 2.473 11.126 11.126 0 01-3.727-2.473 10.768 10.768 0 01-1.174-1.565zm33.236-13.708a10.476 10.476 0 011.514-.134 11.898 11.898 0 012.583.267 11.898 11.898 0 00-2.583-.267 10.468 10.468 0 00-1.514.134z" class="cls-6"/><path d="M125.2 329.748a10.311 10.311 0 011.167.242m-6.482 16.781c-.084-.09-.143-.198-.22-.294" class="cls-7"/><path d="M148.639 329.774a11.318 11.318 0 011.292.089 13.166 13.166 0 011.514.178 13.508 13.508 0 011.514.267 6.191 6.191 0 011.29.356l.001-.001a6.181 6.181 0 00-1.291-.356 13.501 13.501 0 00-1.514-.267 13.168 13.168 0 00-1.514-.178 11.333 11.333 0 00-1.292-.09 23.644 23.644 0 00-5.433.58 37.3 37.3 0 00-4.186 1.157 37.29 37.29 0 014.186-1.157 23.642 23.642 0 015.433-.578zM133.9 341.662q0 .58-.045 1.292-.044.668-.089 1.202h-15.052v.001h15.052q.045-.535.09-1.203.044-.712.044-1.291 0-.74-.045-1.436.045.695.045 1.435z" class="cls-6"/><path d="M183.282 345.39c-.054-.268-.112-.535-.152-.805" class="cls-7"/><path d="M204.826 344.156h-15.051v.001h15.051q.045-.535.09-1.203h-.001q-.044.668-.089 1.202zm17.413 4.292a13.801 13.801 0 01-2.05.162 3.854 3.854 0 01-2.513-.701 3.854 3.854 0 002.513.701 13.803 13.803 0 002.05-.162zm-28.941-.258a7.698 7.698 0 01-1.609-.783 3.723 3.723 0 01-.527-.438 3.723 3.723 0 00.527.438 7.695 7.695 0 001.609.782z" class="cls-6"/><path d="M190.713 346.46a5.36 5.36 0 00.449.51m2.136 1.22a7.695 7.695 0 001.738.388" class="cls-7"/><path d="M198.02 348.533q-.891.078-1.788.077a7.69 7.69 0 01-1.196-.032 7.698 7.698 0 001.196.032q.896.001 1.788-.077zm11.848-4.19a19.792 19.792 0 00.39 3.91 8.03 8.03 0 001.515 3.207 8.03 8.03 0 01-1.514-3.207 19.802 19.802 0 01-.39-3.91zm7.808 3.566a2.17 2.17 0 01-.47-.546 6.72 6.72 0 01-.469-1.206 6.72 6.72 0 00.469 1.206 2.169 2.169 0 00.47.546z" class="cls-6"/><path d="M216.737 346.157a6.721 6.721 0 01-.229-1.27" class="cls-7"/><path d="M224.465 330.262v5.522-5.522h-7.972 7.972z" class="cls-6"/><path d="M183.09 344.223c-.034-.283-.072-.565-.092-.85" class="cls-7"/><path d="M182.961 342.153c-.001.178.012.354.016.532-.004-.178-.017-.355-.016-.533zm19.728 5.299l.89 5.388a9.165 9.165 0 01-1.424.535 9.17 9.17 0 001.425-.535l-.891-5.388a14.305 14.305 0 01-2.895.846q-.882.157-1.774.235.891-.078 1.774-.235a14.31 14.31 0 002.895-.846z" class="cls-6"/><path d="M112 340.254a14.441 14.441 0 01.407-2.214" class="cls-7"/><path d="M194.183 329.639c-.09 0-.178.01-.268.013.09-.002.178-.013.268-.013zm-10.469 17.426a10.773 10.773 0 002.23 3.771 11.131 11.131 0 003.875 2.539 11.13 11.13 0 01-3.874-2.539 10.775 10.775 0 01-2.23-3.771zm.25-10.494c-.021.05-.048.098-.068.149a14.447 14.447 0 00-.928 5.152 14.448 14.448 0 01.928-5.152c.02-.05.047-.098.068-.149zm87.652 10.703a5.952 5.952 0 01-.01.774 5.951 5.951 0 00.01-.774 8.489 8.489 0 00-.356-2.583 4.736 4.736 0 00-1.158-2.004 4.737 4.737 0 011.158 2.004 8.489 8.489 0 01.356 2.583zm-1.514-4.587a7.553 7.553 0 00-.946-.876 7.553 7.553 0 01.946.876zm-14.028-.936a6.272 6.272 0 01-1.38-2.092 7.666 7.666 0 01-.49-2.895 6.252 6.252 0 012.058-4.872 6.253 6.253 0 00-2.059 4.872 7.668 7.668 0 00.49 2.895 6.27 6.27 0 001.381 2.093 8.77 8.77 0 002.138 1.47q1.27.613 2.8 1.182-1.528-.57-2.8-1.183a8.767 8.767 0 01-2.138-1.47zm8.426 12.364a10.419 10.419 0 004.488-1.587 10.422 10.422 0 01-4.489 1.587zm-1.11-24.475l-.013-.001q-.449-.026-.895-.013.446-.012.895.013z" class="cls-6"/><path d="M235.158 345.799c.034.064.053.135.09.198m-7.238-6.302c.015-.1.02-.203.038-.304" class="cls-7"/><path d="M263.867 334.983q-3.117 0-3.117 1.737a1.792 1.792 0 00.134.712c.008.017.022.03.031.047-.009-.017-.023-.03-.031-.047a1.791 1.791 0 01-.134-.712q0-1.737 3.117-1.737a13.378 13.378 0 013.028.312q.544.12 1.08.27-.536-.149-1.08-.27a13.378 13.378 0 00-3.028-.312z" class="cls-6"/><path d="M267.976 335.565q.537.149 1.067.32" class="cls-7"/><path d="M267.875 340.995a7.55 7.55 0 011.012.618 7.56 7.56 0 00-1.012-.618 25.178 25.178 0 00-3.607-1.603 38.74 38.74 0 01-.001 0 25.174 25.174 0 013.608 1.603zm-18.035.668c0 .13-.004.272-.007.413.003-.141.007-.283.007-.413zm-.007.413zm-21.992.077c-.001.178.012.354.016.532-.004-.178-.017-.355-.016-.533z" class="cls-6"/><path d="M227.878 340.765c-.021.283-.018.567-.023.85m.115 2.608c-.034-.283-.072-.565-.092-.85m.431 2.68c-.023-.09-.053-.18-.073-.27m-.074-.393c-.054-.268-.112-.535-.152-.805" class="cls-7"/><path d="M111.901 342.153c0 .041.004.082.004.123 0-.041-.004-.082-.004-.124zM95.089 330.04a12.428 12.428 0 00-2.315.757 12.432 12.432 0 012.315-.757zm-33.094 21.372a7.64 7.64 0 002.908 2.007 13.503 13.503 0 003.717.779 13.503 13.503 0 01-3.716-.779 7.642 7.642 0 01-2.91-2.007zm40.086-20.749a8.428 8.428 0 013.206 2.45 11.08 11.08 0 011.96 3.874 11.08 11.08 0 00-1.96-3.875 8.428 8.428 0 00-3.206-2.449 10.347 10.347 0 00-4.409-.89 11.898 11.898 0 00-2.583.267 11.898 11.898 0 012.583-.267 10.347 10.347 0 014.409.89zm5.834 11.311a14.452 14.452 0 01-.417 3.618 14.446 14.446 0 00.417-3.618 17.333 17.333 0 00-.668-4.987 17.336 17.336 0 01.668 4.987z" class="cls-6"/><path d="M111.916 341.586c.005-.274.002-.548.022-.82m12.038 7.812a7.697 7.697 0 01-2.292-.607m-2.774-2.856c-.019-.058-.02-.12-.037-.18m143.493-6.323a16.83 16.83 0 01-.556-.313" class="cls-7"/><path d="M253.581 352.885l1.113-5.389-1.114 5.389a21.158 21.158 0 002.85.89 21.464 21.464 0 005.21.535 21.462 21.462 0 01-5.209-.535 21.16 21.16 0 01-2.85-.89zm8.104-3.964q.329.02.657.008-.328.012-.657-.008a17.903 17.903 0 01-3.518-.356 23.487 23.487 0 01-3.473-1.069 23.497 23.497 0 003.473 1.07 17.902 17.902 0 003.518.355zm-202.031-5.389a18.561 18.561 0 00.485 4.188 8.966 8.966 0 001.431 3.16 8.965 8.965 0 01-1.431-3.161 18.56 18.56 0 01-.485-4.187z" class="cls-6"/><path d="M66.275 343.7a9.488 9.488 0 00.426 2.33" class="cls-7"/><path d="M73.231 348.342l-.074.01.074-.01zm196.203-12.335l1.158-5.166-1.158 5.166z" class="cls-6"/><path d="M9.487 405.852v32.921a34.255 34.255 0 0034.254 34.256h218.1a34.255 34.255 0 0034.255-34.255v-32.922z" class="cls-2"/><path d="M128.362 453.747h-6.218v-17.023l.06-2.797.1-3.059q-1.548 1.55-2.152 2.032l-3.38 2.717-2.999-3.743 9.478-7.545h5.11zm8.853-2.877a3.372 3.372 0 01.906-2.556 3.67 3.67 0 012.636-.865 3.568 3.568 0 012.585.885 3.91 3.91 0 01-.01 5.041 3.503 3.503 0 01-2.575.915 3.61 3.61 0 01-2.616-.896 3.35 3.35 0 01-.926-2.525zm26.421 2.877h-6.218v-17.023l.06-2.797.101-3.059q-1.55 1.55-2.153 2.032l-3.38 2.717-3-3.743 9.478-7.545h5.112zm18.291-29.801a11.14 11.14 0 016.81 1.922 6.124 6.124 0 012.586 5.182 6.775 6.775 0 01-1.247 4.013 10.637 10.637 0 01-4.024 3.15 14.266 14.266 0 014.738 3.692 6.88 6.88 0 011.439 4.216 7.014 7.014 0 01-2.837 5.825 11.835 11.835 0 01-7.465 2.203 12.453 12.453 0 01-7.587-2.052 6.82 6.82 0 01-2.756-5.815 7.71 7.71 0 011.338-4.468 11.12 11.12 0 014.296-3.44 11.02 11.02 0 01-3.622-3.4 7.458 7.458 0 01-1.107-3.965 6.085 6.085 0 012.615-5.11 11.115 11.115 0 016.823-1.953zm-4.588 21.974a3.26 3.26 0 001.207 2.696 6.314 6.314 0 006.76-.03 3.308 3.308 0 001.148-2.626 3.596 3.596 0 00-1.138-2.525 14.58 14.58 0 00-3.692-2.505q-4.285 1.971-4.285 4.99zm4.547-17.426a3.872 3.872 0 00-2.566.815 2.701 2.701 0 00-.975 2.183 3.342 3.342 0 00.774 2.163 8.51 8.51 0 002.808 1.962 7.855 7.855 0 002.756-1.891 3.438 3.438 0 00.785-2.234 2.66 2.66 0 00-1.006-2.193 3.998 3.998 0 00-2.576-.805z" class="cls-3"/></svg>