<svg id="Layer_5" data-name="Layer 5" xmlns="http://www.w3.org/2000/svg" xmlns:xlink="http://www.w3.org/1999/xlink" viewBox="0 0 430.0357 736.46318"><defs><style>.cls-1{fill:#171717;}.cls-2{fill:#231f20;}.cls-3{fill:#fff;}.cls-4{fill:#f9ba16;}.cls-11,.cls-5,.cls-6{fill:none;stroke-miterlimit:10;}.cls-5,.cls-6{stroke:#231f20;stroke-width:2px;}.cls-6{stroke-linecap:round;}.cls-7{fill:url(#linear-gradient);}.cls-8{fill:url(#linear-gradient-2);}.cls-9{fill:url(#linear-gradient-3);}.cls-10{fill:url(#linear-gradient-4);}.cls-11{stroke:#fff;stroke-width:4px;opacity:0.28;}</style><linearGradient id="linear-gradient" x1="210.43846" y1="619.91479" x2="210.43846" y2="721.73757" gradientUnits="userSpaceOnUse"><stop offset="0.52356" stop-color="#f9ba16"/><stop offset="1" stop-color="#c49511"/></linearGradient><linearGradient id="linear-gradient-2" x1="104.78184" y1="496.95593" x2="46.69093" y2="597.57232" gradientUnits="userSpaceOnUse"><stop offset="0.28272" stop-color="#f9ba16"/><stop offset="1" stop-color="#c49511"/></linearGradient><linearGradient id="linear-gradient-3" x1="211.75081" y1="417.11063" x2="211.75081" y2="364.21096" gradientUnits="userSpaceOnUse"><stop offset="0.00524" stop-color="#f9ba16"/><stop offset="1" stop-color="#c49511"/></linearGradient><linearGradient id="linear-gradient-4" x1="199.70327" y1="499.7843" x2="141.61237" y2="600.40069" gradientTransform="matrix(-1, 0, 0, 1, 520.41207, 0)" xlink:href="#linear-gradient-2"/></defs><title>captainkube-color</title><path class="cls-1" d="M312.7698,318.25932c-3.14892-12.57684-7.41034-18.85583-17.85647-18.85583,0,0-14.83953,1.24449-17.9696,16.32915-3.14892,15.08466-3.14892,27.66149,12.558,32.0549C305.22747,352.1998,315.89986,330.8173,312.7698,318.25932ZM248.66,323.275c-.264-1.86673-5.65675-16.32915,6.90123-26.39816,12.57683-10.05015,66.93817-57.81195,79.9864-45.254,13.04823,12.57684,7.39149,30.16932-12.72768,44.0095,0,0,23.24923,32.67714-1.26334,55.30413S254.939,368.52894,248.66,323.275Z"/><path class="cls-1" d="M229.80417,117.74648s-28.20831,14.82068-33.94048-6.279c-3.46947-12.72768,15.7069-28.75513,25.13481-18.85582,1.37648,1.433,11.93574-23.24923,11.93574-23.24923s-44.87686-13.84018-57.94395,37.71165c-13.06709,51.533,56.26578,44.61288,62.45049,34.56272Zm99.82273,69.71c-15.59376,38.315-96.20241,43.17983-108.10044,43.68894h-.03771l-15.49948-.60339s-94.48654-2.39469-110.06145-44.93343a34.92576,34.92576,0,0,1-1.65931-6.35441s.47139-28.84941,35.35467-13.76475,4.714-32.0549-6.59954-53.7391c-8.7491-16.76283-10.16329-51.15585,20.08145-75.4233.01886-.01885.05657-.03771.07542-.07542,8.8811-7.10864,20.51514-13.34992,35.46781-18.00731a112.30555,112.30555,0,0,1,38.0322-5.18535.90842.90842,0,0,1,.22627,0,132.4717,132.4717,0,0,1,30.48987,5.8453c2.9415.90508,5.73217,1.88559,8.40969,2.92266a.06582.06582,0,0,1,.03771.01885A119.15839,119.15839,0,0,1,289.992,43.398c.132.15084.264.264.33941.35826.132.11313.20741.18856.20741.18856,22.3253,23.51321,20.42086,53.24884,12.48256,68.46549-11.3135,21.6842-41.48282,68.82376-6.59954,53.7391s35.35467,13.76476,35.35467,13.76476A33.09965,33.09965,0,0,1,329.6269,187.45647Z"/><path class="cls-2" d="M286.69219,309.11424c4.33684,0,7.844,4.09172,7.844,9.12622s-3.50719,9.12622-7.844,9.12622c-4.318,0-7.82516-4.09171-7.82516-9.12622S282.37421,309.11424,286.69219,309.11424Z"/><path class="cls-3" d="M278.867,318.24046c0,5.03451,3.50718,9.12622,7.82516,9.12622,4.33684,0,7.844-4.09171,7.844-9.12622s-3.50719-9.12622-7.844-9.12622C282.37421,309.11424,278.867,313.206,278.867,318.24046Zm16.0463-18.837c10.44613,0,14.70755,6.279,17.85647,18.85583,3.13006,12.558-7.54233,33.94048-23.26809,29.52822-15.7069-4.39341-15.7069-16.97024-12.558-32.0549C280.0738,300.648,294.91333,299.40349,294.91333,299.40349Z"/><path class="cls-3" d="M195.86369,111.46749c5.73217,21.09967,33.94048,6.279,33.94048,6.279l7.63661,23.89033c-6.18471,10.05016-75.51758,16.97024-62.45049-34.56272,13.06709-51.55183,57.944-37.71165,57.944-37.71165S222.375,94.04471,220.9985,92.61167C211.57059,82.71236,192.39422,98.73981,195.86369,111.46749Z"/><path class="cls-1" d="M243.47464,364.211l-28.01975,33.92163a4.23446,4.23446,0,0,1-6.69382,0L180.76017,364.211l28.60429-37.3911a3.47,3.47,0,0,1,5.5059,0Z"/><path class="cls-4" d="M100.69834,350.27651c24.51257,22.627,66.63649,17.59248,72.91548-27.6615.264-1.86672,5.65674-16.32914-6.92009-26.39815-12.558-10.05016-66.93818-57.812-79.96755-45.254C73.678,263.53972,79.33469,281.1322,99.45386,294.97237,99.45386,294.97237,76.18577,327.64952,100.69834,350.27651Zm108.06273,47.85608a4.23446,4.23446,0,0,0,6.69382,0L243.47464,364.211l-28.60428-37.3911a3.47,3.47,0,0,0-5.5059,0L180.76017,364.211Zm46.80016-101.25578c-12.558,10.069-7.16522,24.53143-6.90123,26.39816,6.279,45.254,48.384,50.28848,72.89661,27.66149S322.82,295.63233,322.82,295.63233c20.11917-13.84018,25.77591-31.43266,12.72768-44.0095C322.4994,239.06486,268.13806,286.82666,255.56123,296.87681ZM32.4214,564.0827a3.32889,3.32889,0,0,1-.37711-.07543c-16.348-3.77116-23.89033-37.71164-15.08466-74.15995,8.78681-36.46717,18.85582-84.07812,17.25308-99.31363s9.14507-77.93112,11.6529-95.54246c2.50782-17.59248-5.35506-60.96088-5.35506-60.96088-.1697-8.7491-.30169-13.82132-.30169-13.82132-3.14892-11.31349-5.99615-28.28373-5.99615-28.28373l3.94086,5.01564c-3.94086-5.01564,0-11.31349,0-11.31349s7.08979,3.14892,3.31863,0c-3.77117-3.13007-5.03451-8.16457,0-7.54233,4.82709.62224,50.8353,7.01437,54.45562,7.52347C111.50273,228.14733,205.98927,230.542,205.98927,230.542l15.49948.60339h.03771c11.898-.50911,92.50668-5.37391,108.10044-43.68894l.11314.05656s49.64738-6.90123,54.68189-7.54233c5.01565-.62224,3.77116,4.41227,0,7.54233-3.77117,3.14893,3.31862,0,3.31862,0s3.94087,6.29785,0,11.3135l3.94087-5.01565s-2.86608,16.97024-6.015,28.28373c0,0-.132,5.07222-.30169,13.82132,0,0-7.86288,43.3684-5.355,60.96088,2.52668,17.61134,13.2745,80.307,11.67175,95.54246s8.44741,62.84647,17.25308,99.31363c8.78682,36.44831,1.24449,70.38879-15.08466,74.16,0,0,6.59954,39.59723,5.3362,54.68189s-5.3362,7.54233-5.3362,8.80567v1.24448s5.01565,18.85583-11.31349,30.16932c0,0,2.50782,16.348-35.20383,38.975S208.1954,727.657,134.884,716.11721c-20.81683-3.28092-56.1715-17.008-56.1715-17.008-37.71165-22.627-35.20382-38.975-35.20382-38.975-16.348-11.3135-11.3135-30.16932-11.3135-30.16932v-1.24449c0-1.26334-4.09171,6.279-5.33619-8.80567-1.26334-15.08466,5.33619-54.68189,5.33619-54.68189Z"/><path class="cls-2" d="M135.56276,308.45429c4.33684,0,7.844,4.09171,7.844,9.12622s-3.50718,9.12622-7.844,9.12622c-4.318,0-7.82517-4.09172-7.82517-9.12622S131.24478,308.45429,135.56276,308.45429Z"/><path class="cls-1" d="M173.61382,322.615c-6.279,45.254-48.40291,50.28849-72.91548,27.6615s-1.24448-55.30414-1.24448-55.30414C79.33469,281.1322,73.678,263.53972,86.72618,250.96288c13.02937-12.558,67.40957,35.20382,79.96755,45.254C179.27056,306.28587,173.8778,320.74829,173.61382,322.615Zm-46.2722-23.87147c-10.42727,0-14.68868,6.279-17.83761,18.85582-3.14892,12.558,7.54233,33.94049,23.24923,29.52822,15.72576-4.3934,15.72576-16.97024,12.57684-32.0549S127.34162,298.74354,127.34162,298.74354Z"/><path class="cls-5" d="M360.5316,438.616s-5.65675,8.48512,0,23.56978c0,0-5.65675,5.65675-10.3707,0,0,0,.94279,12.25629,5.18535,18.85583,0,0-13.67047,3.77116-17.44164,0,0,0,5.65675,7.54233,0,19.79861a.97008.97008,0,0,1-.264-.132c-.50911-.24512-1.961-1.07478-6.015-3.63917l-4.41226-2.77181a.98505.98505,0,0,0-1.52732.75424c-.16971,2.65867-1.31991,8.73024-6.63725,20.87339,0,0-.32055-2.50782-6.92009-7.22178,0,0-.62224,10.05016-9.10736,14.76411"/><path class="cls-5" d="M248.66,323.275c-.264-1.86673-5.65675-16.32915,6.90123-26.39816,12.57683-10.05015,66.93817-57.81195,79.9864-45.254,13.04823,12.57684,7.39149,30.16932-12.72768,44.0095,0,0,23.24923,32.67714-1.26334,55.30413S254.939,368.52894,248.66,323.275Z"/><path class="cls-5" d="M294.91333,299.40349s-14.83953,1.24449-17.9696,16.32915c-3.14892,15.08466-3.14892,27.66149,12.558,32.0549,15.72576,4.41226,26.39815-16.97024,23.26809-29.52822C309.62088,305.68248,305.35946,299.40349,294.91333,299.40349Z"/><path class="cls-5" d="M216.68052,13.059c-45.61224-2.99808-71.99154,21.74076-73.5,23.19266"/><path class="cls-5" d="M255.80635,21.82691c-2.67752-1.03707-5.46819-2.01758-8.40969-2.92266a132.4717,132.4717,0,0,0-30.48987-5.8453"/><path class="cls-5" d="M290.33137,43.75623a2.019,2.019,0,0,0-.33941-.35826c-8.03258-8.29656-19.15752-15.80118-34.1479-21.55221"/><path class="cls-5" d="M221.52646,231.14541c11.898-.50911,92.50668-5.37391,108.10044-43.68894a33.09965,33.09965,0,0,0,2.14957-7.54233s-.4714-28.84942-35.35467-13.76476-4.714-32.0549,6.59954-53.7391c7.9383-15.21665,9.84274-44.95228-12.48256-68.46549"/><path class="cls-5" d="M220.05571,231.202s.49025-.01886,1.433-.05657"/><path class="cls-5" d="M32.19513,565.2329s-6.59953,39.59723-5.33619,54.68189c1.24448,15.08466,5.33619,7.54233,5.33619,8.80567V629.965s-5.0345,18.85582,11.3135,30.16932c0,0-2.50783,16.348,35.20382,38.975,0,0,35.35467,13.727,56.1715,17.008,73.31145,11.53976,174.73693,6.279,212.44857-16.348s35.20383-38.975,35.20383-38.975c16.32914-11.31349,11.31349-30.16932,11.31349-30.16932v-1.24448c0-1.26334,4.07286,6.279,5.3362-8.80567s-5.3362-54.68189-5.3362-54.68189"/><path class="cls-5" d="M65.51338,437.95609s5.65674,8.48512,0,23.56978c0,0,5.65674,5.65675,10.3707,0,0,0-.94279,12.25629-5.18535,18.85582,0,0,13.67047,3.77117,17.44163,0,0,0-5.65674,7.54233,0,19.79862a3.40973,3.40973,0,0,0,.6411-.33941c.73538-.396,2.30041-1.3199,5.63789-3.43176l4.39341-2.7718a.98189.98189,0,0,1,1.52732.75423c.18856,2.65867,1.33877,8.73025,6.65611,20.8734,0,0,.30169-2.50783,6.90123-7.22178,0,0,.6411,10.05015,9.12622,14.76411"/><path class="cls-5" d="M173.61382,322.615c.264-1.86672,5.65674-16.32914-6.92009-26.39815-12.558-10.05016-66.93818-57.812-79.96755-45.254C73.678,263.53972,79.33469,281.1322,99.45386,294.97237c0,0-23.26809,32.67715,1.24448,55.30414S167.33483,367.869,173.61382,322.615Z"/><path class="cls-5" d="M127.34162,298.74354s14.83954,1.24448,17.98846,16.32914,3.14892,27.6615-12.57684,32.0549c-15.7069,4.41227-26.39815-16.97024-23.24923-29.52822C112.65294,305.02253,116.91435,298.74354,127.34162,298.74354Z"/><path class="cls-5" d="M290.53878,43.94479s-.07542-.07543-.20741-.18856c-.07543-.09428-.20742-.20742-.33941-.35826a119.15839,119.15839,0,0,0-34.1479-21.55221.06582.06582,0,0,0-.03771-.01885,112.207,112.207,0,0,0-38.89956-8.768.90842.90842,0,0,0-.22627,0,112.30555,112.30555,0,0,0-38.0322,5.18535c-14.95267,4.65739-26.58671,10.89867-35.46781,18.00731-.01885.03771-.05656.05657-.07542.07542-30.24474,24.26745-28.83055,58.66047-20.08145,75.4233,11.31349,21.6842,41.48281,68.82376,6.59954,53.7391s-35.35467,13.76475-35.35467,13.76475a34.92576,34.92576,0,0,0,1.65931,6.35441C111.50273,228.14733,205.98927,230.542,205.98927,230.542l15.49948.60339h.03771l1.35762.05657"/><path class="cls-6" d="M180.76017,364.211l28.60429-37.3911a3.47,3.47,0,0,1,5.5059,0l28.60428,37.3911"/><path class="cls-6" d="M180.76017,364.211l28.0009,33.92163a4.23446,4.23446,0,0,0,6.69382,0L243.47464,364.211"/><path class="cls-6" d="M220.9985,92.61167c1.37648,1.433,11.93574-23.24923,11.93574-23.24923s-44.87686-13.84018-57.94395,37.71165c-13.06709,51.533,56.26578,44.61288,62.45049,34.56272l-7.63661-23.89033s-28.20831,14.82068-33.94048-6.279C192.39422,98.73981,211.57059,82.71236,220.9985,92.61167Z"/><path class="cls-5" d="M338.52685,499.27523a11.81308,11.81308,0,0,0-.88622,1.433c-6.86352,12.162,5.92073,24.96511,5.92073,24.96511-10.05016,11.3135,13.82132,16.32915,13.82132,16.32915-3.77117,15.08466,13.84017,5.0345,13.80246,8.80567-.01885,3.77116,6.3167,18.85582,22.6647,15.08466,16.32915-3.77117,23.87148-37.71165,15.08466-74.16-8.80567-36.46716-18.85582-84.07812-17.25308-99.31363s-9.14507-77.93112-11.67175-95.54246c-2.50783-17.59248,5.355-60.96088,5.355-60.96088.1697-8.7491.30169-13.82132.30169-13.82132,3.14893-11.31349,6.015-28.28373,6.015-28.28373l-3.94087,5.01565c3.94087-5.01565,0-11.3135,0-11.3135s-7.08979,3.14893-3.31862,0c3.77116-3.13006,5.01565-8.16457,0-7.54233-5.03451.6411-54.68189,7.54233-54.68189,7.54233"/><path class="cls-5" d="M87.34842,497.38965a16.52927,16.52927,0,0,1,1.433,2.45125c5.63789,11.84146-6.46755,23.9469-6.46755,23.9469C92.38292,535.1013,68.4926,540.117,68.4926,540.117c3.77116,15.08465-13.82132,5.0345-13.80247,8.80567.03771,3.73345-6.22242,18.62955-22.26873,15.16008a3.32889,3.32889,0,0,1-.37711-.07543c-16.348-3.77116-23.89033-37.71164-15.08466-74.15995,8.78681-36.46717,18.85582-84.07812,17.25308-99.31363s9.14507-77.93112,11.6529-95.54246c2.50782-17.59248-5.35506-60.96088-5.35506-60.96088-.1697-8.7491-.30169-13.82132-.30169-13.82132-3.14892-11.31349-5.99615-28.28373-5.99615-28.28373l3.94086,5.01564c-3.94086-5.01564,0-11.31349,0-11.31349s7.08979,3.14892,3.31863,0c-3.77117-3.13007-5.03451-8.16457,0-7.54233,4.82709.62224,50.8353,7.01437,54.45562,7.52347a1.03718,1.03718,0,0,1,.22627.01886"/><path class="cls-7" d="M43.50863,660.13427s6.79791,42.95791,100.629,57.32388S335.75736,705.4154,335.75736,705.4154s39.74716-22.43591,43.26308-33.52854l3.51591-11.09264s14.46241-6.92009,11.31349-30.16932c0,0-51.00235,32.462-143.93907,44.00321C153.74606,686.57013,84.13036,658.91492,65.51338,648.23s-38.65444-28.31517-38.65444-28.31517-2.12724,9.59628,5.33619,10.05016c0,0-3.59542,19.15168,5.86718,25.30788S43.50863,660.13427,43.50863,660.13427Z"/><path class="cls-8" d="M114.31118,510.54312c-.41374-2.49992-7.70472,5.696-7.70472,5.696l-6.26636-21.84762-12.19978,5.78875s9.45968,9.77363-5.5214,23.287c0,0,10.16,9.7421-13.72411,16.65594,0,0,6.80118,9.42791-14.19814,10.0564,0,0-3.45284,4.84182-7.80876,11.042-6.56259,4.01745-14.69279,4.01123-14.69279,4.01123v17.4108c-3.24464,4.99649-4.25349,7.07611,0,2.10505,3.91353-4.57378,42.98505-23.25559,46.75621-32.6835s18.6924-5.65675,17.20272-20.74141.396-13.82757,7.30985-7.85652,19.5597-.66,19.5597-.66S114.7248,513.043,114.31118,510.54312Z"/><path class="cls-9" d="M180.76017,364.211s24.1785,32.3068,28.0009,33.92163,3.281,4.13166,16.56423-11.94945L243.47464,364.211s2.23756,19.40893-6.03386,30.72242-17.69933,27.02669-30.26988,20.74141S175.09085,383.77074,180.76017,364.211Z"/><path class="cls-10" d="M311.17946,513.37149c.41374-2.49991,7.70472,5.696,7.70472,5.696l6.26636-21.84762,12.19978,5.78875s-9.45968,9.77364,5.5214,23.287c0,0-10.16,9.7421,13.72411,16.65594,0,0-6.80117,9.42791,14.19814,10.0564,0,0,3.45284,4.84181,7.80876,11.042,6.56259,4.01745,14.69279,4.01124,14.69279,4.01124V585.472c3.24464,4.9965,4.25349,7.07611,0,2.10505-3.91353-4.57378-42.985-23.25559-46.75621-32.6835s-18.6924-5.65675-17.20272-20.74141-.396-13.82756-7.30985-7.85651-19.5597-.66-19.5597-.66S310.76584,515.87141,311.17946,513.37149Z"/><path class="cls-11" d="M96.15409,186.17312,44.01774,179.918l-5.86417,5.70941s0,11.31349,2.30041,15.40521S49.8819,293.4262,49.8819,293.4262L38.15357,363.40025v34.20438s-5.41288,54.50845-11.45535,65.524-13.73858,54.5097-13.39954,60.33864,2.62948,21.8268,5.16561,26.71928"/><path class="cls-11" d="M68.89485,437.95609s.62853,16.05888,0,22.34415,10.813-5.65675,10.813-5.65675-1.82885,19.51578-5.419,22.627,13.85147,3.11121,13.85147,3.11121l2.12443,14.0098,10.685-2.66488,8.00318,15.08466,7.08148-3.77116s6.98919,6.631,6.98919,13.19908"/><line class="cls-11" x1="28.08455" y1="595.15952" x2="32.19513" y2="629.96495"/><path class="cls-11" d="M331.22213,187.62623l52.13636-6.25508,5.86416,5.70941s0,11.3135-2.30041,15.40521-9.42791,92.39354-9.42791,92.39354l11.72832,69.97405v34.20438s5.41288,54.50845,11.45535,65.524,13.73859,54.50969,13.39954,60.33863-2.62947,21.8268-5.16561,26.71928"/><path class="cls-11" d="M358.48137,439.4092s-.62853,16.05888,0,22.34415-10.81305-5.65674-10.81305-5.65674,1.82886,19.51577,5.419,22.627-13.85148,3.11122-13.85148,3.11122l-2.12442,14.00979-10.685-2.66487-8.00317,15.08466-7.08149-3.77117s-6.98919,6.631-6.98919,13.19908"/><line class="cls-11" x1="399.29168" y1="596.61263" x2="395.18109" y2="631.41806"/><path class="cls-1" d="M248.66,323.275c-.264-1.86673-5.65675-16.32915,6.90123-26.39816,12.57683-10.05015,66.93817-57.81195,79.9864-45.254,13.04823,12.57684,7.39149,30.16932-12.72768,44.0095,0,0,23.24923,32.67714-1.26334,55.30413S254.939,368.52894,248.66,323.275Zm46.25333-23.87148s-14.83953,1.24449-17.9696,16.32915c-3.14892,15.08466-3.14892,27.66149,12.558,32.0549,15.72576,4.41226,26.39815-16.97024,23.26809-29.52822C309.62088,305.68248,305.35946,299.40349,294.91333,299.40349Z"/><path class="cls-1" d="M221.48875,231.14541l-15.49948-.60339s-94.48654-2.39469-110.06145-44.93343a34.92576,34.92576,0,0,1-1.65931-6.35441s.47139-28.84941,35.35467-13.76475,4.714-32.0549-6.59954-53.7391c-8.7491-16.76283-10.16329-51.15585,20.08145-75.4233.01886-.01885.05657-.03771.07542-.07542,8.8811-7.10864,20.51514-13.34992,35.46781-18.00731a112.30555,112.30555,0,0,1,38.0322-5.18535.90842.90842,0,0,1,.22627,0,132.4717,132.4717,0,0,1,30.48987,5.8453c2.9415.90508,5.73217,1.88559,8.40969,2.92266a.06582.06582,0,0,1,.03771.01885A119.15839,119.15839,0,0,1,289.992,43.398c.132.15084.264.264.33941.35826.132.11313.20741.18856.20741.18856,22.3253,23.51321,20.42086,53.24884,12.48256,68.46549-11.3135,21.6842-41.48282,68.82376-6.59954,53.7391s35.35467,13.76476,35.35467,13.76476a33.09965,33.09965,0,0,1-2.14957,7.54233c-15.59376,38.315-96.20241,43.17983-108.10044,43.68894Zm8.31542-113.39893s-28.20831,14.82068-33.94048-6.279c-3.46947-12.72768,15.7069-28.75513,25.13481-18.85582,1.37648,1.433,11.93574-23.24923,11.93574-23.24923s-44.87686-13.84018-57.94395,37.71165c-13.06709,51.533,56.26578,44.61288,62.45049,34.56272Z"/><path class="cls-2" d="M286.69219,309.11424c4.33684,0,7.844,4.09172,7.844,9.12622s-3.50719,9.12622-7.844,9.12622c-4.318,0-7.82516-4.09171-7.82516-9.12622S282.37421,309.11424,286.69219,309.11424Z"/><path class="cls-3" d="M286.69219,309.11424c-4.318,0-7.82516,4.09172-7.82516,9.12622s3.50718,9.12622,7.82516,9.12622c4.33684,0,7.844-4.09171,7.844-9.12622S291.029,309.11424,286.69219,309.11424Zm-9.74846,6.6184c3.13007-15.08466,17.9696-16.32915,17.9696-16.32915,10.44613,0,14.70755,6.279,17.85647,18.85583,3.13006,12.558-7.54233,33.94048-23.26809,29.52822C273.79481,343.39413,273.79481,330.8173,276.94373,315.73264Z"/><path class="cls-3" d="M195.86369,111.46749c5.73217,21.09967,33.94048,6.279,33.94048,6.279l7.63661,23.89033c-6.18471,10.05016-75.51758,16.97024-62.45049-34.56272,13.06709-51.55183,57.944-37.71165,57.944-37.71165S222.375,94.04471,220.9985,92.61167C211.57059,82.71236,192.39422,98.73981,195.86369,111.46749Z"/><path class="cls-1" d="M215.45489,398.13259a4.23446,4.23446,0,0,1-6.69382,0L180.76017,364.211l28.60429-37.3911a3.47,3.47,0,0,1,5.5059,0l28.60428,37.3911Z"/><path class="cls-3" d="M127.34162,298.74354s14.83954,1.24448,17.98846,16.32914,3.14892,27.6615-12.57684,32.0549c-15.7069,4.41227-26.39815-16.97024-23.24923-29.52822C112.65294,305.02253,116.91435,298.74354,127.34162,298.74354Zm16.06516,18.837c0-5.03451-3.50718-9.12622-7.844-9.12622-4.318,0-7.82517,4.09171-7.82517,9.12622s3.50719,9.12622,7.82517,9.12622C139.8996,326.70673,143.40678,322.615,143.40678,317.58051Z"/><path class="cls-2" d="M135.56276,308.45429c4.33684,0,7.844,4.09171,7.844,9.12622s-3.50718,9.12622-7.844,9.12622c-4.318,0-7.82517-4.09172-7.82517-9.12622S131.24478,308.45429,135.56276,308.45429Z"/><path class="cls-1" d="M127.34162,298.74354c-10.42727,0-14.68868,6.279-17.83761,18.85582-3.14892,12.558,7.54233,33.94049,23.24923,29.52822,15.72576-4.3934,15.72576-16.97024,12.57684-32.0549S127.34162,298.74354,127.34162,298.74354Zm46.2722,23.87147c-6.279,45.254-48.40291,50.28849-72.91548,27.6615s-1.24448-55.30414-1.24448-55.30414C79.33469,281.1322,73.678,263.53972,86.72618,250.96288c13.02937-12.558,67.40957,35.20382,79.96755,45.254C179.27056,306.28587,173.8778,320.74829,173.61382,322.615Z"/><path class="cls-5" d="M360.5316,438.616s-5.65675,8.48512,0,23.56978c0,0-5.65675,5.65675-10.3707,0,0,0,.94279,12.25629,5.18535,18.85583,0,0-13.67047,3.77116-17.44164,0,0,0,5.65675,7.54233,0,19.79861a.97008.97008,0,0,1-.264-.132c-.50911-.24512-1.961-1.07478-6.015-3.63917l-4.41226-2.77181a.98505.98505,0,0,0-1.52732.75424c-.16971,2.65867-1.31991,8.73024-6.63725,20.87339,0,0-.32055-2.50782-6.92009-7.22178,0,0-.62224,10.05016-9.10736,14.76411"/><path class="cls-5" d="M248.66,323.275c-.264-1.86673-5.65675-16.32915,6.90123-26.39816,12.57683-10.05015,66.93817-57.81195,79.9864-45.254,13.04823,12.57684,7.39149,30.16932-12.72768,44.0095,0,0,23.24923,32.67714-1.26334,55.30413S254.939,368.52894,248.66,323.275Z"/><path class="cls-5" d="M294.91333,299.40349s-14.83953,1.24449-17.9696,16.32915c-3.14892,15.08466-3.14892,27.66149,12.558,32.0549,15.72576,4.41226,26.39815-16.97024,23.26809-29.52822C309.62088,305.68248,305.35946,299.40349,294.91333,299.40349Z"/><path class="cls-5" d="M216.68052,13.059c-45.61224-2.99808-71.99154,21.74076-73.5,23.19266"/><path class="cls-5" d="M255.80635,21.82691c-2.67752-1.03707-5.46819-2.01758-8.40969-2.92266a132.4717,132.4717,0,0,0-30.48987-5.8453"/><path class="cls-5" d="M290.33137,43.75623a2.019,2.019,0,0,0-.33941-.35826c-8.03258-8.29656-19.15752-15.80118-34.1479-21.55221"/><path class="cls-5" d="M221.52646,231.14541c11.898-.50911,92.50668-5.37391,108.10044-43.68894a33.09965,33.09965,0,0,0,2.14957-7.54233s-.4714-28.84942-35.35467-13.76476-4.714-32.0549,6.59954-53.7391c7.9383-15.21665,9.84274-44.95228-12.48256-68.46549"/><path class="cls-5" d="M220.05571,231.202s.49025-.01886,1.433-.05657"/><path class="cls-5" d="M32.19513,565.2329s-6.59953,39.59723-5.33619,54.68189c1.24448,15.08466,5.33619,7.54233,5.33619,8.80567V629.965s-5.0345,18.85582,11.3135,30.16932c0,0-2.50783,16.348,35.20382,38.975,0,0,35.35467,13.727,56.1715,17.008,73.31145,11.53976,174.73693,6.279,212.44857-16.348s35.20383-38.975,35.20383-38.975c16.32914-11.31349,11.31349-30.16932,11.31349-30.16932v-1.24448c0-1.26334,4.07286,6.279,5.3362-8.80567s-5.3362-54.68189-5.3362-54.68189"/><path class="cls-5" d="M65.51338,437.95609s5.65674,8.48512,0,23.56978c0,0,5.65674,5.65675,10.3707,0,0,0-.94279,12.25629-5.18535,18.85582,0,0,13.67047,3.77117,17.44163,0,0,0-5.65674,7.54233,0,19.79862a3.40973,3.40973,0,0,0,.6411-.33941c.73538-.396,2.30041-1.3199,5.63789-3.43176l4.39341-2.7718a.98189.98189,0,0,1,1.52732.75423c.18856,2.65867,1.33877,8.73025,6.65611,20.8734,0,0,.30169-2.50783,6.90123-7.22178,0,0,.6411,10.05015,9.12622,14.76411"/><path class="cls-5" d="M173.61382,322.615c.264-1.86672,5.65674-16.32914-6.92009-26.39815-12.558-10.05016-66.93818-57.812-79.96755-45.254C73.678,263.53972,79.33469,281.1322,99.45386,294.97237c0,0-23.26809,32.67715,1.24448,55.30414S167.33483,367.869,173.61382,322.615Z"/><path class="cls-5" d="M127.34162,298.74354s14.83954,1.24448,17.98846,16.32914,3.14892,27.6615-12.57684,32.0549c-15.7069,4.41227-26.39815-16.97024-23.24923-29.52822C112.65294,305.02253,116.91435,298.74354,127.34162,298.74354Z"/><path class="cls-5" d="M290.53878,43.94479s-.07542-.07543-.20741-.18856c-.07543-.09428-.20742-.20742-.33941-.35826a119.15839,119.15839,0,0,0-34.1479-21.55221.06582.06582,0,0,0-.03771-.01885,112.207,112.207,0,0,0-38.89956-8.768.90842.90842,0,0,0-.22627,0,112.30555,112.30555,0,0,0-38.0322,5.18535c-14.95267,4.65739-26.58671,10.89867-35.46781,18.00731-.01885.03771-.05656.05657-.07542.07542-30.24474,24.26745-28.83055,58.66047-20.08145,75.4233,11.31349,21.6842,41.48281,68.82376,6.59954,53.7391s-35.35467,13.76475-35.35467,13.76475a34.92576,34.92576,0,0,0,1.65931,6.35441C111.50273,228.14733,205.98927,230.542,205.98927,230.542l15.49948.60339h.03771l1.35762.05657"/><path class="cls-6" d="M180.76017,364.211l28.60429-37.3911a3.47,3.47,0,0,1,5.5059,0l28.60428,37.3911"/><path class="cls-6" d="M180.76017,364.211l28.0009,33.92163a4.23446,4.23446,0,0,0,6.69382,0L243.47464,364.211"/><path class="cls-6" d="M220.9985,92.61167c1.37648,1.433,11.93574-23.24923,11.93574-23.24923s-44.87686-13.84018-57.94395,37.71165c-13.06709,51.533,56.26578,44.61288,62.45049,34.56272l-7.63661-23.89033s-28.20831,14.82068-33.94048-6.279C192.39422,98.73981,211.57059,82.71236,220.9985,92.61167Z"/><path class="cls-5" d="M338.52685,499.27523a11.81308,11.81308,0,0,0-.88622,1.433c-6.86352,12.162,5.92073,24.96511,5.92073,24.96511-10.05016,11.3135,13.82132,16.32915,13.82132,16.32915-3.77117,15.08466,13.84017,5.0345,13.80246,8.80567-.01885,3.77116,6.3167,18.85582,22.6647,15.08466,16.32915-3.77117,23.87148-37.71165,15.08466-74.16-8.80567-36.46716-18.85582-84.07812-17.25308-99.31363s-9.14507-77.93112-11.67175-95.54246c-2.50783-17.59248,5.355-60.96088,5.355-60.96088.1697-8.7491.30169-13.82132.30169-13.82132,3.14893-11.31349,6.015-28.28373,6.015-28.28373l-3.94087,5.01565c3.94087-5.01565,0-11.3135,0-11.3135s-7.08979,3.14893-3.31862,0c3.77116-3.13006,5.01565-8.16457,0-7.54233-5.03451.6411-54.68189,7.54233-54.68189,7.54233"/><path class="cls-5" d="M87.34842,497.38965a16.52927,16.52927,0,0,1,1.433,2.45125c5.63789,11.84146-6.46755,23.9469-6.46755,23.9469C92.38292,535.1013,68.4926,540.117,68.4926,540.117c3.77116,15.08465-13.82132,5.0345-13.80247,8.80567.03771,3.73345-6.22242,18.62955-22.26873,15.16008a3.32889,3.32889,0,0,1-.37711-.07543c-16.348-3.77116-23.89033-37.71164-15.08466-74.15995,8.78681-36.46717,18.85582-84.07812,17.25308-99.31363s9.14507-77.93112,11.6529-95.54246c2.50782-17.59248-5.35506-60.96088-5.35506-60.96088-.1697-8.7491-.30169-13.82132-.30169-13.82132-3.14892-11.31349-5.99615-28.28373-5.99615-28.28373l3.94086,5.01564c-3.94086-5.01564,0-11.31349,0-11.31349s7.08979,3.14892,3.31863,0c-3.77117-3.13007-5.03451-8.16457,0-7.54233,4.82709.62224,50.8353,7.01437,54.45562,7.52347a1.03718,1.03718,0,0,1,.22627.01886"/></svg>