<?xml version="1.0" encoding="utf-8"?>
<!-- Generator: Adobe Illustrator 21.1.0, SVG Export Plug-In . SVG Version: 6.00 Build 0)  -->
<svg version="1.1" id="Capa_1" xmlns="http://www.w3.org/2000/svg" xmlns:xlink="http://www.w3.org/1999/xlink" x="0px" y="0px"
	 viewBox="0 0 300 300" style="enable-background:new 0 0 300 300;" xml:space="preserve">
<style type="text/css">
	.Arqueado:_x0020_verde{fill:url(#SVGID_1_);stroke:#FFFFFF;stroke-width:0.25;stroke-miterlimit:1;}
	.st0{fill:#416CAA;}
	.st1{opacity:0.6;}
	.st2{fill:url(#SVGID_2_);}
	.st3{opacity:0.6;fill:#F6921E;}
	.st4{fill:url(#SVGID_3_);}
	.st5{opacity:0.6;fill:#416CAA;}
	.st6{fill:#73C5D7;}
	.st7{fill:url(#SVGID_4_);}
	.st8{fill:url(#SVGID_5_);}
	.st9{fill:url(#SVGID_6_);}
	.st10{fill:url(#SVGID_7_);}
	.st11{fill:#FFFFFF;}
</style>
<linearGradient id="SVGID_1_" gradientUnits="userSpaceOnUse" x1="-1953.5" y1="263" x2="-1952.7928" y2="262.2929">
	<stop  offset="0" style="stop-color:#1EAB4B"/>
	<stop  offset="0.9831" style="stop-color:#19361A"/>
</linearGradient>
<g>
	<g>
		<g>
			<radialGradient id="SVGID_2_" cx="243.6578" cy="64.4202" r="264.601" gradientUnits="userSpaceOnUse">
				<stop  offset="0" style="stop-color:#FFF000"/>
				<stop  offset="1" style="stop-color:#F5911E"/>
			</radialGradient>
			<path class="st2" d="M271.3,216.2c-6.9,0-13.4-1.7-19.1-4.7c-7.3,17.1-23.4,30-43.2,32.4c-2.1,0.3-4.3,0.4-6.4,0.4
				c-27.3,0-50.2-20.4-53.5-47.6c-0.1-0.7-0.2-1.5-0.4-2.3c-3.2-17.1-12.3-31.9-25-42.3c4.3,0.8,8.7,1.2,13.3,1.2
				c14.5,0,29.5-4.2,44.7-12.3c0,0,0.1,0,0.1-0.1l0.2-0.1c0.2-0.1,0.5-0.3,0.6-0.4c0,0,4.7-2.9,12-4.6c0.4-0.1,0.7-0.1,1.1-0.1
				c2-0.2,4.1-0.4,6.2-0.4c13.8,0,26.6,5.5,36.5,14.4c7.6-10,19.5-16.5,33-16.5c0.7,0,1.5,0.1,2.2,0.1c-5.2-6.4-11.2-12.1-18-17
				c-14.8-11.9-31.7-18-50.1-18c-14.6,0-30,4.1-41.3,11c-6.7,3.6-16.8,7.8-27.1,7.8c-9.6,0-17.5-3.6-23.9-11
				c-5.4-6.3-8.4-13.9-8.5-22c0.5-8.5,4-16.5,9.9-22.3c6.5-6.4,15-9.9,24.1-9.9c9.2,0,17.9,3.6,24.3,10.1c2.4,2.5,4.5,5.3,6.1,8.3
				c3.2,6.2,9.5,10,16.5,10c3,0,5.9-0.7,8.6-2.1c9.1-4.7,12.6-15.9,7.9-25c-3.3-6.4-7.6-12.2-12.6-17.2c-13.5-13.6-31.4-21-50.6-21
				c-16.8,0-33.2,5.9-46,16.7c-0.2,0.1-0.6,0.4-0.9,0.7c-0.6,0.5-1.1,1-1.6,1.5c-0.2,0.2-0.5,0.4-0.7,0.7c-0.1,0.1-0.2,0.2-0.3,0.3
				c-0.3,0.2-0.5,0.5-0.8,0.7c-0.2,0.2-0.3,0.3-0.5,0.5c-1.3,1.3-2.5,2.6-3.7,4.1L84,40.5c-0.2,0.3-0.5,0.5-0.7,0.8
				C74.3,52.5,69.1,66,68.4,80.3c-0.8,18,5.4,35.6,17.5,49.6c2.5,2.8,5.1,5.4,7.8,7.7c-7.5-1.6-15.6-2-23.5-1.1
				c-39.1,4.6-67.1,40.2-62.4,79.3c4.3,35.9,34.7,62.9,70.8,62.9c2.8,0,5.7-0.2,8.5-0.5c7.2-0.9,14.1-2.8,20.6-5.7
				c9.3-4.2,13.6-15.1,9.4-24.5c-3-6.7-9.6-11-16.9-11c-2.6,0-5.1,0.5-7.5,1.6c-3.1,1.4-6.5,2.3-9.9,2.7c-1.4,0.2-2.7,0.2-4.1,0.2
				c-17.3,0-32-13-34-30.2c-1.1-9.1,1.5-18,7.1-25.2c5.7-7.2,13.8-11.8,22.9-12.8c1.4-0.2,2.7-0.2,4.1-0.2c17.3,0,32,13,34,30.1
				c0.1,0.7,0.2,1.4,0.3,2.1c3.5,21.2,14.5,40.5,31,54.5c16.4,13.9,37.3,21.6,58.7,21.6h0c3.6,0,7.2-0.2,10.8-0.6
				c39-4.7,69.4-33.5,77.9-69.7C285.4,214.4,278.6,216.2,271.3,216.2z"/>
			<path class="st3" d="M271.3,216.2c-6.9,0-13.4-1.7-19.1-4.7c-7.3,17.1-23.4,30-43.2,32.4c-2.1,0.3-4.3,0.4-6.4,0.4
				c-27.3,0-50.2-20.4-53.5-47.6c-0.1-0.7-0.2-1.5-0.4-2.3c-3.2-17.1-12.3-31.9-25-42.3c4.3,0.8,8.7,1.2,13.3,1.2
				c14.5,0,29.5-4.2,44.7-12.3c0,0,0.1,0,0.1-0.1l0.2-0.1c0.2-0.1,0.5-0.3,0.6-0.4c0,0,4.7-2.9,12-4.6c0.4-0.1,0.7-0.1,1.1-0.1
				c2-0.2,4.1-0.4,6.2-0.4c13.8,0,26.6,5.5,36.5,14.4c7.6-10,19.5-16.5,33-16.5c0.7,0,1.5,0.1,2.2,0.1c-5.2-6.4-11.2-12.1-18-17
				c-14.8-11.9-31.7-18-50.1-18c-14.6,0-30,4.1-41.3,11c-6.7,3.6-16.8,7.8-27.1,7.8c-9.6,0-17.5-3.6-23.9-11
				c-5.4-6.3-8.4-13.9-8.5-22c0.5-8.5,4-16.5,9.9-22.3c6.5-6.4,15-9.9,24.1-9.9c9.2,0,17.9,3.6,24.3,10.1c2.4,2.5,4.5,5.3,6.1,8.3
				c3.2,6.2,9.5,10,16.5,10c3,0,5.9-0.7,8.6-2.1c9.1-4.7,12.6-15.9,7.9-25c-3.3-6.4-7.6-12.2-12.6-17.2c-13.5-13.6-31.4-21-50.6-21
				c-16.8,0-33.2,5.9-46,16.7c-0.2,0.1-0.6,0.4-0.9,0.7c-0.6,0.5-1.1,1-1.6,1.5c-0.2,0.2-0.5,0.4-0.7,0.7c-0.1,0.1-0.2,0.2-0.3,0.3
				c-0.3,0.2-0.5,0.5-0.8,0.7c-0.2,0.2-0.3,0.3-0.5,0.5c-1.3,1.3-2.5,2.6-3.7,4.1L84,40.5c-0.2,0.3-0.5,0.5-0.7,0.8
				C74.3,52.5,69.1,66,68.4,80.3c-0.8,18,5.4,35.6,17.5,49.6c2.5,2.8,5.1,5.4,7.8,7.7c-7.5-1.6-15.6-2-23.5-1.1
				c-39.1,4.6-67.1,40.2-62.4,79.3c4.3,35.9,34.7,62.9,70.8,62.9c2.8,0,5.7-0.2,8.5-0.5c7.2-0.9,14.1-2.8,20.6-5.7
				c9.3-4.2,13.6-15.1,9.4-24.5c-3-6.7-9.6-11-16.9-11c-2.6,0-5.1,0.5-7.5,1.6c-3.1,1.4-6.5,2.3-9.9,2.7c-1.4,0.2-2.7,0.2-4.1,0.2
				c-17.3,0-32-13-34-30.2c-1.1-9.1,1.5-18,7.1-25.2c5.7-7.2,13.8-11.8,22.9-12.8c1.4-0.2,2.7-0.2,4.1-0.2c17.3,0,32,13,34,30.1
				c0.1,0.7,0.2,1.4,0.3,2.1c3.5,21.2,14.5,40.5,31,54.5c16.4,13.9,37.3,21.6,58.7,21.6h0c3.6,0,7.2-0.2,10.8-0.6
				c39-4.7,69.4-33.5,77.9-69.7C285.4,214.4,278.6,216.2,271.3,216.2z"/>
			<radialGradient id="SVGID_3_" cx="245.6521" cy="64.416" r="264.7116" gradientUnits="userSpaceOnUse">
				<stop  offset="0" style="stop-color:#FFF000"/>
				<stop  offset="1" style="stop-color:#F5911E"/>
			</radialGradient>
			<circle class="st4" cx="271.3" cy="174.8" r="22.2"/>
			<circle class="st3" cx="271.3" cy="174.8" r="22.2"/>
		</g>
	</g>
</g>
</svg>
