<svg id="Layer_1" data-name="Layer 1" xmlns="http://www.w3.org/2000/svg" viewBox="0 0 360 360"><defs><style>.cls-1{fill:none;}.cls-2{fill:#1c77c8;}.cls-3{fill:#fff;}.cls-4{fill:#646b76;}</style></defs><title>kubeedge-horizontal-color</title><path class="cls-1" d="M250.7389,308.17739c-3.88723,0-6.80267,1.27083-8.67152,3.96193-1.64461,2.24262-2.467,5.53183-2.467,9.79283s.74754,7.55021,2.31744,9.94235c1.79414,2.76592,4.70958,4.18629,8.59681,4.18629a9.33878,9.33878,0,0,0,7.99869-4.11147,16.73726,16.73726,0,0,0,2.467-9.49387v-.67283a16.20078,16.20078,0,0,0-2.99026-10.09178A8.88058,8.88058,0,0,0,250.7389,308.17739Z"/><path class="cls-1" d="M294.91885,308.17739c-3.36393,0-5.98043,1.1213-7.77445,3.51345-1.94367,2.24262-2.84074,5.457-2.84074,9.56859,0,3.73769.74754,6.72785,2.24262,8.89575,1.71942,2.54168,4.48534,3.88723,8.37257,3.88723a9.90982,9.90982,0,0,0,7.924-3.36393,15.01927,15.01927,0,0,0,2.76592-9.419c0-4.03676-.97178-7.25126-2.76592-9.56859A9.5773,9.5773,0,0,0,294.91885,308.17739Z"/><path class="cls-1" d="M116.106,308.17739a8.45881,8.45881,0,0,0-7.17644,3.51345c-2.0932,2.54157-3.065,5.9056-3.065,10.09178v.67283a16.73717,16.73717,0,0,0,2.46686,9.49387,9.24825,9.24825,0,0,0,7.9988,4.11147c3.88722,0,6.72785-1.42037,8.59681-4.18629,1.49508-2.39214,2.31732-5.68136,2.31732-9.94235s-.82224-7.55021-2.46685-9.79283C122.90864,309.44822,119.99319,308.17739,116.106,308.17739Z"/><path class="cls-1" d="M159.46356,308.2521a9.47723,9.47723,0,0,0-7.10162,2.61638,13.0659,13.0659,0,0,0-3.21451,7.4755h20.85649Q168.88261,308.252,159.46356,308.2521Z"/><path class="cls-1" d="M339.024,308.2521a9.47741,9.47741,0,0,0-7.10162,2.61638,13.0659,13.0659,0,0,0-3.2145,7.4755h20.8566Q348.44314,308.252,339.024,308.2521Z"/><path class="cls-2" d="M125.94824,170.875a3.13481,3.13481,0,1,0,3.2343,3.13367A3.1889,3.1889,0,0,0,125.94824,170.875Z"/><path class="cls-2" d="M228.96992,177.14148a3.13481,3.13481,0,1,0-3.23431-3.13279A3.18837,3.18837,0,0,0,228.96992,177.14148Z"/><path class="cls-2" d="M217.94815,151.1546c14.17764,0,25.7389-11.06454,25.7389-24.65675a24.78092,24.78092,0,0,0-15.84566-22.78069c0-.73135.06541-1.47845.06541-2.22566,0-20.55513-17.38274-37.26319-38.90276-37.26319a38.97021,38.97021,0,0,0-35.05984,21.2388,18.64743,18.64743,0,0,0-10.989-3.60873c-9.97506,0-17.955,7.71013-17.955,17.20083a16.82771,16.82771,0,0,0,.76854,5.08718,25.03969,25.03969,0,0,0-12.90221,21.73146c0,13.783,11.62667,24.40233,25.93524,25.21309h77.74C216.99967,151.09094,217.44115,151.1546,217.94815,151.1546ZM117.79422,125.87785a20.10856,20.10856,0,0,1,10.4125-17.44924l3.44957-1.96391-1.18442-3.78867a11.90023,11.90023,0,0,1-.54409-3.61682c0-6.74645,5.754-12.27314,13.02746-12.27314a13.71651,13.71651,0,0,1,8.0757,2.65522l4.712,3.454,2.60982-5.22687A34.04511,34.04511,0,0,1,189.004,69.156c18.82291,0,33.97517,14.52921,33.97517,32.33549,0,.2156-.00678.41949-.028.9021-.02789.63345-.03741.92223-.03741,1.32356v3.33024l3.08992,1.24185a19.85172,19.85172,0,0,1,12.75563,18.2086c0,10.8182-9.30464,19.72906-20.8112,19.72906-.0664,0-.15249-.00427-.38329-.02013-.2226-.01553-.36294-.0245-.52932-.03194-.22839-.009-.22839-.009-.49376-.01149h-77.74C127.013,145.48746,117.79422,136.69311,117.79422,125.87785Z"/><path class="cls-2" d="M178.2764,182.20471a3.13481,3.13481,0,1,0,3.23431,3.13367A3.18889,3.18889,0,0,0,178.2764,182.20471Z"/><path class="cls-2" d="M241.05841,231.73174l56.1735-70.43931a18.71042,18.71042,0,0,0,3.61288-15.829L280.79666,57.62713A18.70975,18.70975,0,0,0,270.6736,44.93319l-81.173-39.09091a18.71078,18.71078,0,0,0-16.23617,0L92.09153,44.93319A18.71,18.71,0,0,0,81.96847,57.62713l-20.048,87.83627a18.71006,18.71006,0,0,0,3.61289,15.829l56.17338,70.43931a18.71034,18.71034,0,0,0,14.62832,7.04463h90.09518A18.7101,18.7101,0,0,0,241.05841,231.73174Zm-21.31492-60.99389a9.71116,9.71116,0,1,1-.00022,6.541H201.2961v-1.65205h-.12569V156.02323q-7.84833-.00327-19.62306-.006v20.1771a9.81124,9.81124,0,1,1-6.541-.00022V156.0159q-8.87185-.0018-19.62306-.00328v19.6142h-.12579v1.65205H135.175a9.71112,9.71112,0,1,1-.00022-6.541h13.66736v-14.726c-3.322-.00044-6.75389-.00088-10.31919-.00121-17.07548-.96751-30.584-13.85408-30.584-30.1328a29.77907,29.77907,0,0,1,12.308-24.01225,22.3196,22.3196,0,0,1-.17447-2.80639c0-12.28014,10.25323-22.12842,22.88274-22.12842a23.48171,23.48171,0,0,1,9.162,1.86895,44.10344,44.10344,0,0,1,36.8868-19.499c23.873,0,43.3379,18.37825,43.82116,41.31678a29.52279,29.52279,0,0,1,15.78944,25.88034c0,16.35879-13.81011,29.58434-30.66649,29.58434-.35824,0-.61376-.01269-1.05995-.04342-.07635-.0046-3.14154-.00865-9.17677-.01226v14.71134Z"/><path class="cls-3" d="M217.03554,146.17484c.16638.00744.30672.01641.52932.03194.2308.01586.31689.02013.38329.02013,11.50656,0,20.8112-8.91086,20.8112-19.72906a19.85172,19.85172,0,0,0-12.75563-18.2086l-3.08992-1.24185v-3.33024c0-.40133.00952-.69011.03741-1.32356.02122-.48261.028-.6865.028-.9021,0-17.80628-15.15226-32.33549-33.97517-32.33549a34.04511,34.04511,0,0,0-30.65129,18.51236l-2.60982,5.22687-4.712-3.454a13.71651,13.71651,0,0,0-8.0757-2.65522c-7.27346,0-13.02746,5.52669-13.02746,12.27314a11.90023,11.90023,0,0,0,.54409,3.61682l1.18442,3.78867-3.44957,1.96391a20.10856,20.10856,0,0,0-10.4125,17.44924c0,10.81526,9.21877,19.60961,21.00755,20.2855h77.74C216.80715,146.16587,216.80715,146.16587,217.03554,146.17484Z"/><path class="cls-3" d="M207.71143,151.34953v4.677c6.03523.00361,9.10042.00766,9.17677.01226.44619.03073.70171.04342,1.05995.04342,16.85638,0,30.66649-13.22555,30.66649-29.58434a29.52279,29.52279,0,0,0-15.78944-25.88034C232.34194,77.679,212.877,59.30073,189.004,59.30073a44.10344,44.10344,0,0,0-36.8868,19.499,23.48171,23.48171,0,0,0-9.162-1.86895c-12.62951,0-22.88274,9.84828-22.88274,22.12842a22.3196,22.3196,0,0,0,.17447,2.80639,29.77907,29.77907,0,0,0-12.308,24.01225c0,16.27872,13.50853,29.16529,30.584,30.1328,3.5653.00033,6.99716.00077,10.31919.00121v-4.66233h6.54113v4.66309q10.7517.00132,19.62306.00328V152.968h6.541v3.04923q11.77029.00262,19.62306.006v-4.6737Zm-68.90966-.25859c-14.30857-.81076-25.93524-11.4301-25.93524-25.21309a25.03969,25.03969,0,0,1,12.90221-21.73146,16.82771,16.82771,0,0,1-.76854-5.08718c0-9.4907,7.98-17.20083,17.955-17.20083a18.64743,18.64743,0,0,1,10.989,3.60873A38.97021,38.97021,0,0,1,189.004,64.22831c21.52,0,38.90276,16.70806,38.90276,37.26319,0,.74721-.06541,1.49431-.06541,2.22566a24.78092,24.78092,0,0,1,15.84566,22.78069c0,13.59221-11.56126,24.65675-25.7389,24.65675-.507,0-.94848-.06366-1.40637-.06366Z"/><path class="cls-3" d="M207.71143,151.34953h-6.541v24.27729h.12569v1.65205h18.44717a9.43625,9.43625,0,0,1,.00022-6.541H207.71143V151.34953Z"/><path class="cls-3" d="M175.00633,152.968V176.1941a9.72194,9.72194,0,0,1,6.541.00022V152.968Z"/><path class="cls-3" d="M148.84214,151.34953v19.38832H135.17478a9.43806,9.43806,0,0,1,.00022,6.541h20.08248v-1.65205h.12579V151.34953Z"/><path class="cls-3" d="M135.17478,170.73785a9.71117,9.71117,0,1,0,.00022,6.541,9.43806,9.43806,0,0,0-.00022-6.541Zm-9.22654,6.40363a3.13481,3.13481,0,1,1,3.2343-3.13279A3.18816,3.18816,0,0,1,125.94824,177.14148Z"/><path class="cls-3" d="M175.00633,176.1941a9.81188,9.81188,0,1,0,6.541.00022,9.72194,9.72194,0,0,0-6.541-.00022Zm3.27007,12.27707a3.13481,3.13481,0,1,1,3.23431-3.13279A3.18816,3.18816,0,0,1,178.2764,188.47117Z"/><path class="cls-3" d="M219.74327,177.27887a9.71112,9.71112,0,1,0,.00022-6.541,9.43625,9.43625,0,0,0-.00022,6.541Zm9.22665-6.40385a3.13481,3.13481,0,1,1-3.23431,3.13367A3.18911,3.18911,0,0,1,228.96992,170.875Z"/><path class="cls-4" d="M173.66691,308.17739c-3.28922-4.33582-8.14822-6.42891-14.42759-6.42891-5.68136,0-10.24142,1.94356-13.53063,5.90561-3.43864,3.88722-5.08324,8.67151-5.08324,14.42759,0,6.35419,1.79413,11.36272,5.3823,15.10041,3.28921,3.51346,7.84927,5.3076,13.53063,5.3076a18.84011,18.84011,0,0,0,12.783-4.41053,17.43328,17.43328,0,0,0,5.30759-9.04528h-7.924a13.43959,13.43959,0,0,1-3.51345,5.00853,11.04986,11.04986,0,0,1-6.728,1.94367,9.6212,9.6212,0,0,1-7.40068-2.99027c-1.79414-2.01838-2.76592-4.93371-3.065-8.67152h29.30377C178.227,317.44691,176.65706,312.06461,173.66691,308.17739ZM149.14743,318.344a13.0659,13.0659,0,0,1,3.21451-7.4755,9.47723,9.47723,0,0,1,7.10162-2.61638q9.41905,0,10.54036,10.09188Z"/><path class="cls-4" d="M345.75193,334.04241a11.04959,11.04959,0,0,1-6.728,1.94367,9.62122,9.62122,0,0,1-7.40068-2.99027c-1.79413-2.01838-2.76591-4.93371-3.065-8.67152H357.8622c-.07482-6.87738-1.64461-12.25968-4.63488-16.1469-3.2891-4.33582-8.14822-6.42891-14.42759-6.42891-5.68136,0-10.24141,1.94356-13.53052,5.90561-3.43874,3.88722-5.08335,8.67151-5.08335,14.42759,0,6.35419,1.79414,11.36272,5.3823,15.10041,3.28922,3.51346,7.84927,5.3076,13.53063,5.3076a18.84009,18.84009,0,0,0,12.783-4.41053,17.4333,17.4333,0,0,0,5.3076-9.04528h-7.924A13.43971,13.43971,0,0,1,345.75193,334.04241Zm-13.82958-23.17393a9.47741,9.47741,0,0,1,7.10162-2.61638q9.41905,0,10.54048,10.09188h-20.8566A13.0659,13.0659,0,0,1,331.92235,310.86848Z"/><path class="cls-4" d="M117.9,301.74848c-4.7843,0-8.67152,2.24262-11.81121,6.80268V287.02184h-7.924v54.42125h7.40068v-4.63476c2.6912,3.73769,6.65325,5.68136,11.96073,5.68136,5.68136,0,10.09188-2.01838,13.3811-6.05513,2.99016-3.7377,4.48523-8.59681,4.48523-14.50241,0-5.68137-1.49507-10.39084-4.41052-14.12853A15.80222,15.80222,0,0,0,117.9,301.74848Zm7.027,30.126c-1.869,2.76592-4.70959,4.18629-8.59681,4.18629a9.24825,9.24825,0,0,1-7.9988-4.11147,16.73717,16.73717,0,0,1-2.46686-9.49387v-.67283c0-4.18618.97178-7.55021,3.065-10.09178a8.45881,8.45881,0,0,1,7.17644-3.51345c3.88722,0,6.80267,1.27083,8.67152,3.96193,1.64461,2.24262,2.46685,5.53183,2.46685,9.79283S126.4221,329.48236,124.927,331.8745Z"/><polygon class="cls-4" points="193.925 317.522 222.332 317.522 222.332 310.57 193.925 310.57 193.925 295.021 224.126 295.021 224.126 288.068 185.777 288.068 185.777 341.443 225.397 341.443 225.397 334.491 193.925 334.491 193.925 317.522"/><path class="cls-4" d="M81.19555,326.41749a13.69249,13.69249,0,0,1-3.73769,6.87738,8.40886,8.40886,0,0,1-5.75619,2.54168c-3.06486,0-5.30748-.82236-6.65314-2.31744-1.42026-1.49508-2.09308-3.88722-2.09308-7.17644V302.795h-7.924v24.071c0,10.39094,4.63476,15.62372,13.97911,15.62372,4.859,0,8.89575-2.09309,12.185-6.27937v5.23277h7.924V302.795h-7.924Z"/><path class="cls-4" d="M305.53392,307.953a13.38447,13.38447,0,0,0-11.8112-6.20456,16.09254,16.09254,0,0,0-12.70827,5.457c-3.28922,3.58827-4.859,8.223-4.859,14.05393s1.56979,10.46554,4.859,13.97911a16.47044,16.47044,0,0,0,12.70827,5.30748,13.422,13.422,0,0,0,11.8112-6.4289v5.98042c0,7.25115-3.36392,10.91413-10.09178,10.91413-3.13968,0-5.45712-.52329-6.87749-1.42025a7.08928,7.08928,0,0,1-2.84062-4.85912h-7.924c.74754,4.261,2.46686,7.40068,5.30759,9.49388,2.84063,2.01838,6.95209,3.06487,12.3345,3.06487,11.96074,0,18.01576-6.12985,18.01576-18.38964V302.795h-7.924Zm-2.6911,22.72544a9.90982,9.90982,0,0,1-7.924,3.36393c-3.88723,0-6.65315-1.34555-8.37257-3.88723-1.49508-2.1679-2.24262-5.15806-2.24262-8.89575,0-4.11158.89707-7.326,2.84074-9.56859,1.794-2.39215,4.41052-3.51345,7.77445-3.51345a9.5773,9.5773,0,0,1,7.924,3.51345c1.79414,2.31733,2.76592,5.53183,2.76592,9.56859A15.01927,15.01927,0,0,1,302.84282,330.67848Z"/><polygon class="cls-4" points="47.107 288.068 36.791 288.068 11.001 313.859 11.001 288.068 2.853 288.068 2.853 341.443 11.001 341.443 11.001 322.979 17.953 316.326 39.632 341.443 50.546 341.443 23.485 311.018 47.107 288.068"/><path class="cls-4" d="M260.756,308.55116c-3.13968-4.56006-7.10162-6.80268-11.8112-6.80268-5.53183,0-9.94235,2.01838-13.082,6.05514-2.99016,3.73769-4.41052,8.44716-4.41052,14.12853,0,5.9056,1.49507,10.76471,4.48523,14.50241,3.2145,4.03675,7.69974,6.05513,13.3811,6.05513,5.23288,0,9.26964-1.94367,11.96073-5.68136v4.63476h7.40068V287.02184h-7.924Zm.22435,13.90429a16.73726,16.73726,0,0,1-2.467,9.49387,9.33878,9.33878,0,0,1-7.99869,4.11147c-3.88723,0-6.80267-1.42037-8.59681-4.18629-1.5699-2.39214-2.31744-5.68136-2.31744-9.94235s.82236-7.55021,2.467-9.79283c1.86885-2.6911,4.78429-3.96193,8.67152-3.96193a8.88058,8.88058,0,0,1,7.25115,3.51345,16.20078,16.20078,0,0,1,2.99026,10.09178Z"/></svg>