<svg xmlns="http://www.w3.org/2000/svg" role="img" viewBox="-4.27 -2.77 305.54 482.04"><defs><style>.cls-1{fill:none}.cls-2{fill:#fff}</style></defs><path d="M147.542 38.471h6.532v23.06h-6.532zm-31.432 23.06V43.908a8.64 8.64 0 0 1 1.293-.242 11.884 11.884 0 0 1 1.468-.11 12.782 12.782 0 0 1 2.543.242q1.183.241 2.06.46l1.096-5.392a7.1 7.1 0 0 0-1.27-.373q-.747-.153-1.491-.263-.747-.109-1.49-.175-.746-.066-1.272-.066a23.882 23.882 0 0 0-5.327.548 39.281 39.281 0 0 0-4.143 1.162V61.53h6.532zm-51.229-2.893a10.23 10.23 0 0 0 3.749 2.564q.65.25 1.32.435.5.139 1.01.24a14.185 14.185 0 0 0 2.063.255q.52.026 1.043.013a18.823 18.823 0 0 0 3.77-.35 15.317 15.317 0 0 0 2.85-.834l-.92-5.348a10.745 10.745 0 0 1-1.504.486c-.33.083-.66.163-.996.215a15.96 15.96 0 0 1-1.106.14l-.222.024c-.404.033-.809.053-1.214.055a10.31 10.31 0 0 1-1.51-.103 6.765 6.765 0 0 1-1.27-.308l-.054-.016c-.136-.05-.261-.11-.388-.169-.053-.025-.113-.045-.164-.071a3.802 3.802 0 0 1-1.283-1.042A7.662 7.662 0 0 1 68.717 50a7.4 7.4 0 0 1 1.425-4.734 5.283 5.283 0 0 1 2.644-1.643 5.345 5.345 0 0 1 .826-.146 5.006 5.006 0 0 1 .848-.009 10.54 10.54 0 0 1 2.456.263q.513.121 1.018.275.504.153.998.339l1.36-5.217a16.472 16.472 0 0 0-2.982-.943 16.136 16.136 0 0 0-3.376-.329 12.119 12.119 0 0 0-4.227.687c-.258.089-.518.172-.77.278-.182.077-.352.172-.528.258a11.007 11.007 0 0 0-1.112.627c-.19.123-.378.247-.56.38a11.138 11.138 0 0 0-1.805 1.662 11.024 11.024 0 0 0-.79 1.036q-.23.338-.434.692a10.89 10.89 0 0 0-.536 1.038q-.168.379-.307.773A13.584 13.584 0 0 0 62.054 50a16.262 16.262 0 0 0 .68 4.8 9.992 9.992 0 0 0 2.147 3.837zm63.072-4.482a18.48 18.48 0 0 0 .322 2.027 7.502 7.502 0 0 0 1.469 3.135 6.944 6.944 0 0 0 2.806 2.016 12.27 12.27 0 0 0 4.408.723h.02a15.331 15.331 0 0 0 3.55-.35 18.48 18.48 0 0 0 2.63-.833l-.92-5.086a11.135 11.135 0 0 1-2.038.548 12.464 12.464 0 0 1-2.17.197l-.02-.001a3.73 3.73 0 0 1-2.443-.689 2.079 2.079 0 0 1-.453-.537 6.45 6.45 0 0 1-.723-3.288v-8.11h7.847V38.47h-7.847v-6.795l-6.532 1.052v19.378q-.005.504.018 1.008.024.522.076 1.042zm-42.831 3.697a9.985 9.985 0 0 0 .715.85 10.534 10.534 0 0 0 3.814 2.521 14.528 14.528 0 0 0 5.415.921 23.006 23.006 0 0 0 2.455-.131q1.227-.132 2.301-.33c.533-.094 1.057-.23 1.579-.372.123-.033.25-.051.372-.088.08-.022.156-.052.234-.076a9.023 9.023 0 0 0 .877-.326c.097-.042.196-.078.292-.123l-.877-5.305c-.158.065-.323.11-.484.168a13.282 13.282 0 0 1-2.343.643q-.853.16-1.717.241-.863.081-1.731.084c-.027 0-.054.004-.082.003a7.576 7.576 0 0 1-4.471-1.183 4.337 4.337 0 0 1-1.885-3.2h14.818l.001-.019q.042-.511.085-1.168l.002-.019q.043-.68.043-1.25a14.228 14.228 0 0 0-1.595-7.14 8.838 8.838 0 0 0-1.254-1.694 10.19 10.19 0 0 0-7.76-3.003 11.052 11.052 0 0 0-4.1.79 10.301 10.301 0 0 0-3.528 2.323 11.507 11.507 0 0 0-2.478 3.836 14.097 14.097 0 0 0-.942 5.37 15.02 15.02 0 0 0 .723 4.735 10 10 0 0 0 1.521 2.942zm4.464-10.175a9.31 9.31 0 0 1 .416-1.644 4.418 4.418 0 0 1 .811-1.425 3.9 3.9 0 0 1 1.315-.986 4.386 4.386 0 0 1 1.886-.373 4.144 4.144 0 0 1 1.907.394 3.98 3.98 0 0 1 1.271 1.009 4.068 4.068 0 0 1 .745 1.403 6.792 6.792 0 0 1 .285 1.622h-8.636zm33.626 287.518a3.673 3.673 0 0 0-.757-1.425 3.733 3.733 0 0 0-1.292-1.024 4.069 4.069 0 0 0-1.915-.4 4.24 4.24 0 0 0-1.915.4 3.721 3.721 0 0 0-1.335.98 4.763 4.763 0 0 0-.847 1.47 10.266 10.266 0 0 0-.4 1.647h8.772a6.223 6.223 0 0 0-.311-1.648zm-26.16 1.896a7.968 7.968 0 0 0-.39-1.582 5.244 5.244 0 0 0-.495-1.015 4.226 4.226 0 0 0-.309-.425 3.748 3.748 0 0 0-1.021-.864 3.992 3.992 0 0 0-.969-.398 5.364 5.364 0 0 0-1.406-.194 8.084 8.084 0 0 0-2.049.267 5.788 5.788 0 0 0-1.603.668v12.068q.49.09 1.247.178.757.045 1.647.045a4.62 4.62 0 0 0 1.629-.184c.109-.032.215-.07.321-.109a4.675 4.675 0 0 0 2.148-1.578 8.128 8.128 0 0 0 1.38-4.943q0-.527-.033-1.01t-.097-.924zm97.22-1.896a3.674 3.674 0 0 0-.757-1.425 3.733 3.733 0 0 0-1.291-1.024 4.069 4.069 0 0 0-1.915-.4 4.24 4.24 0 0 0-1.915.4 3.72 3.72 0 0 0-1.336.98 4.764 4.764 0 0 0-.846 1.47 10.26 10.26 0 0 0-.401 1.647h8.773a6.22 6.22 0 0 0-.312-1.648zM147.524 34.04a3.579 3.579 0 0 0 .523.595 4.15 4.15 0 0 0 2.738 1.03h.002a4.15 4.15 0 0 0 2.737-1.028l.003-.002a3.585 3.585 0 0 0 1.161-2.828 3.587 3.587 0 0 0-1.161-2.827 4.155 4.155 0 0 0-5.48 0 3.584 3.584 0 0 0-1.162 2.827 3.582 3.582 0 0 0 .64 2.232zm67.624 19.597a14.354 14.354 0 0 0 .42 1.472 10.36 10.36 0 0 0 .431 1.034q.182.377.394.739a10.355 10.355 0 0 0 1.52 1.997 10.203 10.203 0 0 0 3.771 2.39 14.503 14.503 0 0 0 5.086.832q1.183 0 2.477-.11 1.293-.11 2.543-.284 1.248-.175 2.389-.417 1.139-.241 2.017-.504V27.511l-6.533 1.052v10.434q-.525-.233-1.068-.42-.544-.186-1.102-.325a10.275 10.275 0 0 0-2.433-.263 10.813 10.813 0 0 0-4.362.833 8.634 8.634 0 0 0-3.222 2.411q-.345.425-.646.88a11.025 11.025 0 0 0-1.012 1.926q-.205.505-.36 1.03a17.024 17.024 0 0 0-.7 5.064c-.007.473.015.945.054 1.416a14.364 14.364 0 0 0 .336 2.088zm10.92-10.124a7.713 7.713 0 0 1 1.995.263 5.693 5.693 0 0 1 1.6.658v11.88q-.482.088-1.227.154-.746.065-1.622.065a4.691 4.691 0 0 1-4.034-1.84 8 8 0 0 1-1.36-4.867q0-6.313 4.648-6.313zM174.51 444.069h3.794v5.809h5.79v-5.81h3.373v-4.6h-3.373V421.85h-5.464l-.05.074-5.274 7.766-6.965 10.258v4.12h8.168zm-.21-8.749l1.418-2.142.976-1.474a21.48 21.48 0 0 0 1.706-3.067h.153q-.058.363-.153 2.626c-.027.626-.046 1.174-.062 1.677-.022.709-.034 1.31-.034 1.774v4.754h-6.748zm-38.615 14.519a3.74 3.74 0 0 0 2.803 0 3.44 3.44 0 0 0 1.908-1.907 3.74 3.74 0 0 0 0-2.803 3.447 3.447 0 0 0-1.908-1.908 3.752 3.752 0 0 0-2.803 0 3.444 3.444 0 0 0-1.907 1.908 3.74 3.74 0 0 0 0 2.803 3.439 3.439 0 0 0 1.907 1.907zm-16.193-20.982v21.021h5.606v-27.561h-5.451l-8.992 7.591 3.309 3.815 5.528-4.866zM190.61 55.948a9.998 9.998 0 0 0 1.837 2.756 10.537 10.537 0 0 0 3.814 2.52 14.522 14.522 0 0 0 2.664.719q.68.116 1.369.166.688.051 1.382.036a22.996 22.996 0 0 0 2.454-.131q1.227-.132 2.302-.33a18.298 18.298 0 0 0 1.951-.46 9.027 9.027 0 0 0 1.403-.525l-.877-5.305a13.295 13.295 0 0 1-2.827.81 18.883 18.883 0 0 1-3.53.33 7.578 7.578 0 0 1-4.472-1.184 4.34 4.34 0 0 1-1.885-3.2h14.818q.044-.526.088-1.206.044-.68.044-1.25c0-.537-.022-1.052-.059-1.554a14.036 14.036 0 0 0-1.054-4.63 9.144 9.144 0 0 0-1.737-2.65 10.19 10.19 0 0 0-7.76-3.003c-.334 0-.668.018-1.001.048a11.05 11.05 0 0 0-1.284.2q-.463.098-.918.232-.454.134-.896.31a10.306 10.306 0 0 0-3.529 2.323 11.512 11.512 0 0 0-2.477 3.836q-.247.642-.431 1.304-.184.66-.302 1.335a14.097 14.097 0 0 0-.21 2.732 15.017 15.017 0 0 0 .724 4.734 10.008 10.008 0 0 0 .398 1.037zm5.721-8.93a9.36 9.36 0 0 1 .28-.984 4.405 4.405 0 0 1 .812-1.425 3.897 3.897 0 0 1 1.315-.987 4.387 4.387 0 0 1 1.885-.372 4.142 4.142 0 0 1 1.907.394 3.975 3.975 0 0 1 1.271 1.009 4.07 4.07 0 0 1 .746 1.403 6.792 6.792 0 0 1 .285 1.622h-8.637c.035-.222.085-.442.136-.66zm-36.119 14.513h6.532V43.908h8.067V38.47h-8.067v-1.14a7.059 7.059 0 0 1 .197-1.71 3.477 3.477 0 0 1 .658-1.359 3.079 3.079 0 0 1 1.271-.898 5.324 5.324 0 0 1 1.995-.33 11.346 11.346 0 0 1 1.732.133 6.256 6.256 0 0 1 1.556.438l1.14-5.13a14.74 14.74 0 0 0-2.038-.657 12.656 12.656 0 0 0-3.047-.307 16.137 16.137 0 0 0-1.675.093c-.237.025-.477.046-.704.082a8.662 8.662 0 0 0-5.097 2.456 9.837 9.837 0 0 0-2.523 6.127q-.023.485.003.975zm18.369-23.06h6.532v23.06h-6.532zm3.244-2.806a4.15 4.15 0 0 0 2.74-1.03 3.587 3.587 0 0 0 1.162-2.828 3.589 3.589 0 0 0-1.161-2.827 4.16 4.16 0 0 0-5.48 0 3.586 3.586 0 0 0-1.163 2.827 3.583 3.583 0 0 0 1.162 2.828 4.151 4.151 0 0 0 2.74 1.03zM79.792 231.262c.002.013 0 .025.001.038.017.124.058.237.085.356.027.117.039.234.076.35.004.013.011.023.015.035a3.91 3.91 0 0 0 .201.454c.044.09.077.187.126.272a3.932 3.932 0 0 0 .247.348c.07.095.131.198.209.286.08.092.176.168.265.252.097.091.188.19.293.271.103.08.22.14.33.21.104.065.203.14.313.195a3.997 3.997 0 0 0 .386.152c.11.041.215.093.328.125.117.032.24.044.36.066a3.907 3.907 0 0 0 .408.069c.102.008.207-.004.31-.005a3.903 3.903 0 0 0 .487-.015c.013-.002.025 0 .038-.002a3.978 3.978 0 0 0 .707-.16l.026-.005.032-.005a.336.336 0 0 0 .044-.014.271.271 0 0 1 .032-.01l.308-.066c.251-.053.51-.108.711-.162a16.603 16.603 0 0 0 2.372-.874c.372-.16.757-.325 1.162-.48l.121-.044a36.297 36.297 0 0 1 6.732-1.973 3.91 3.91 0 0 1 2.07.695l.173.1.011.006 1.698-.292a51.265 51.265 0 0 0 22.676 28.314l-.703 1.689-.006.012.005.013a3.881 3.881 0 0 1 .35 2.2 38.247 38.247 0 0 1-3.558 6.396c-.244.364-.493.706-.734 1.035a16.465 16.465 0 0 0-1.379 2.113c-.072.138-.154.31-.236.486l-.09.192-.095.203-.084.18a4.394 4.394 0 0 0-.457 2.295 4.24 4.24 0 0 0 .108.67 4.176 4.176 0 0 0 2.038 2.671 3.61 3.61 0 0 0 1.572.356 4.446 4.446 0 0 0 2.803-1.108l.005-.005a4.444 4.444 0 0 0 .812-.998 4.367 4.367 0 0 0 .283-.475.055.055 0 0 0 .012-.016l.003-.014c.048-.1.103-.209.159-.32l.087-.176c.06-.122.116-.237.168-.348l.07-.15a16.125 16.125 0 0 0 .783-2.378c.108-.399.22-.81.353-1.23.31-.78.579-1.572.84-2.34a14.866 14.866 0 0 1 2.201-4.721 3.165 3.165 0 0 1 1.679-.815l.013-.004.488-.884.396-.718a50.965 50.965 0 0 0 36.288.093c.119.211.28.504.432.778.17.307.33.598.395.71l.007.012.012.004.273.085a2.727 2.727 0 0 1 1.717 1.12 36.414 36.414 0 0 1 2.667 6.521l.03.09c.132.416.243.821.35 1.213a16.504 16.504 0 0 0 .795 2.397c.09.208.221.47.348.725l.14.285a4.628 4.628 0 0 0 2.397 2.3 3.762 3.762 0 0 0 3.088-.056 4.233 4.233 0 0 0 .69-.477c.008-.006.013-.014.02-.02a4.375 4.375 0 0 0 1.162-1.678 4.126 4.126 0 0 0-.182-3.462 33.17 33.17 0 0 1-.16-.337c-.123-.258-.248-.523-.354-.723a16.171 16.171 0 0 0-1.37-2.097 29.592 29.592 0 0 1-.741-1.042 36.86 36.86 0 0 1-3.486-6.24 2.559 2.559 0 0 1 .075-1.734 2.661 2.661 0 0 1 .117-.288c.037-.092.074-.184.109-.277l.007-.018-.013-.016a5.973 5.973 0 0 1-.44-1.032c-.072-.195-.14-.379-.199-.52a51.256 51.256 0 0 0 20.335-22.52q.674-1.454 1.258-2.955.584-1.5 1.076-3.042c.508.08 1.366.232 1.651.29l.014.003.012-.008c.081-.054.16-.11.242-.166a2.789 2.789 0 0 1 1.712-.653c.072 0 .147.002.225.008a36.284 36.284 0 0 1 6.746 1.978l.109.039c.414.158.806.328 1.185.492a16.175 16.175 0 0 0 2.35.87c.182.05.416.096.642.142.13.026.258.052.376.078a.257.257 0 0 1 .031.01.29.29 0 0 0 .045.015l.033.005.026.003.007.002a3.987 3.987 0 0 0 .7.16h.037a3.9 3.9 0 0 0 .495.017c.1 0 .203.012.301.004a3.933 3.933 0 0 0 .42-.07c.116-.023.236-.033.349-.065.116-.033.225-.086.337-.129a4.01 4.01 0 0 0 .377-.148c.113-.057.215-.133.323-.2.107-.068.22-.127.32-.204a3.983 3.983 0 0 0 .301-.28c.086-.08.18-.154.258-.243.079-.09.142-.195.213-.293a3.906 3.906 0 0 0 .242-.341c.05-.087.084-.186.129-.277a3.9 3.9 0 0 0 .198-.45c.004-.012.011-.022.015-.034.039-.118.05-.237.078-.355.026-.118.067-.23.083-.352.002-.012 0-.024.001-.037a3.901 3.901 0 0 0 .017-.492c0-.101.011-.205.004-.305a3.93 3.93 0 0 0-.07-.414c-.022-.118-.033-.24-.065-.354-.033-.115-.085-.221-.127-.332a3.987 3.987 0 0 0-.15-.382c-.056-.112-.132-.212-.198-.318-.068-.109-.128-.224-.206-.325a3.983 3.983 0 0 0-.274-.295c-.083-.088-.158-.184-.25-.264-.088-.078-.19-.14-.286-.21a3.932 3.932 0 0 0-.348-.245c-.086-.05-.183-.084-.274-.127a3.887 3.887 0 0 0-.452-.2c-.012-.004-.022-.011-.035-.015a3.967 3.967 0 0 0-.698-.16l-.008-.001a23.57 23.57 0 0 1-.426-.103 13.592 13.592 0 0 0-.72-.166 16.023 16.023 0 0 0-2.493-.234 28.42 28.42 0 0 1-1.284-.07l-.077-.008a36.5 36.5 0 0 1-6.97-1.15 3.918 3.918 0 0 1-1.569-1.53l-.114-.165-.007-.01-1.572-.457a51.159 51.159 0 0 0-8.193-35.389c.105-.095.23-.208.364-.327l.408-.365c.267-.238.497-.444.603-.541l.01-.009v-.013c.01-.095.015-.19.022-.286a2.722 2.722 0 0 1 .708-1.921 37.107 37.107 0 0 1 5.846-4.107c.386-.227.766-.429 1.134-.624a15.829 15.829 0 0 0 2.14-1.287c.174-.128.387-.303.593-.474l.274-.225a4 4 0 0 0 .645-.513l.006-.004c.042-.042.07-.09.11-.133a3.975 3.975 0 0 0 .392-.472c.067-.098.114-.205.17-.308a4.007 4.007 0 0 0 .2-.37 3.926 3.926 0 0 0 .125-.386c.035-.116.08-.228.106-.347.026-.126.032-.255.046-.383.015-.127.038-.253.04-.381.002-.123-.016-.244-.026-.366a3.927 3.927 0 0 0-.034-.4 3.995 3.995 0 0 0-.113-.41c-.032-.112-.053-.225-.095-.334a3.974 3.974 0 0 0-.282-.557c-.027-.048-.043-.098-.073-.145l-.004-.005a4.08 4.08 0 0 0-.261-.331c-.083-.103-.157-.215-.248-.308l-.004-.006c-.044-.045-.096-.075-.141-.117a3.974 3.974 0 0 0-.464-.386c-.1-.068-.208-.115-.313-.173a4.01 4.01 0 0 0-.365-.196 3.943 3.943 0 0 0-.389-.126c-.115-.035-.226-.08-.344-.105-.127-.027-.255-.033-.384-.047-.127-.015-.252-.038-.38-.04-.123-.002-.244.017-.366.026a3.938 3.938 0 0 0-.4.035 4.007 4.007 0 0 0-.409.111c-.112.033-.225.054-.335.097a3.971 3.971 0 0 0-.552.278c-.05.029-.102.045-.15.076l-.006.005a4 4 0 0 0-.644.513l-.246.192c-.224.176-.457.357-.63.507q-.476.422-.919.878c-.03.03-.056.065-.086.096-.263.275-.52.556-.764.85-.236.27-.485.55-.745.831-.03.033-.056.064-.087.096l-.135.138q-.588.643-1.205 1.257-.926.92-1.917 1.772-.99.851-2.041 1.63a3.908 3.908 0 0 1-2.165.27l-.205-.014h-.012l-1.483 1.057a51.58 51.58 0 0 0-14.832-10.817 51.037 51.037 0 0 0-17.809-4.953 95.07 95.07 0 0 1-.09-1.728v-.014l-.01-.01a13.67 13.67 0 0 0-.215-.198 2.714 2.714 0 0 1-1.062-1.748q-.03-.839-.021-1.678l.002-.057a36.158 36.158 0 0 1 .408-4.956c.011-.076.018-.154.03-.23l.026-.21c.062-.434.138-.848.213-1.25a16.301 16.301 0 0 0 .326-2.495c.004-.105.004-.224.003-.35l-.006-.388-.006-.382a3.998 3.998 0 0 0 0-.824v-.008c-.007-.063-.028-.119-.038-.18a3.982 3.982 0 0 0-.122-.59c-.035-.114-.09-.217-.135-.326a4.014 4.014 0 0 0-.166-.385 3.921 3.921 0 0 0-.224-.34c-.068-.099-.128-.204-.205-.297-.083-.1-.18-.185-.272-.276-.09-.09-.173-.187-.272-.268-.095-.078-.201-.139-.303-.208a3.928 3.928 0 0 0-.335-.222 3.992 3.992 0 0 0-.389-.167c-.107-.044-.21-.098-.322-.133a3.973 3.973 0 0 0-.602-.126c-.057-.008-.11-.028-.168-.034h-.007a4.078 4.078 0 0 0-.416-.002c-.134 0-.27-.012-.4.001h-.009c-.063.007-.12.029-.181.038a3.99 3.99 0 0 0-.588.122c-.116.036-.22.092-.331.138a3.998 3.998 0 0 0-.38.163 3.918 3.918 0 0 0-.341.226c-.1.067-.204.127-.297.203-.1.083-.185.18-.276.272-.09.09-.187.174-.268.273-.078.094-.138.2-.207.301a3.92 3.92 0 0 0-.223.336 3.995 3.995 0 0 0-.166.387c-.045.108-.1.21-.134.325a3.984 3.984 0 0 0-.124.595c-.01.06-.03.114-.036.174v.008a4.002 4.002 0 0 0 0 .824c0 .022.002.042.004.062a.793.793 0 0 1 .004.047c0 .108-.003.223-.005.339-.005.235-.011.48-.003.672a16.304 16.304 0 0 0 .325 2.495c.074.4.151.816.213 1.25l.008.068a36.526 36.526 0 0 1 .429 7.06 4.267 4.267 0 0 1-1.268 2.018l-.009.009-.093 1.649a51.344 51.344 0 0 0-7.088 1.09 50.643 50.643 0 0 0-14.66 5.831q-.755.447-1.494.92-1.477.947-2.889 1.995-.705.524-1.393 1.073a50.65 50.65 0 0 0-3.955 3.51q-.672.662-1.32 1.35a66.28 66.28 0 0 1-1.397-.991l-.011-.009-.014.002c-.093.013-.186.028-.28.043a2.715 2.715 0 0 1-2.034-.264 36.41 36.41 0 0 1-5.233-4.72l-.067-.068c-.301-.319-.577-.637-.844-.944a16.5 16.5 0 0 0-1.749-1.809c-.175-.15-.42-.342-.638-.512l-.237-.186a4.735 4.735 0 0 0-2.761-1.042l-.149-.003a3.803 3.803 0 0 0-3.016 1.403 3.753 3.753 0 0 0-.739 3 4.635 4.635 0 0 0 1.712 2.85l.033.024.026.018.228.187c.205.168.416.342.588.47a16.14 16.14 0 0 0 2.143 1.292c.364.193.74.393 1.122.618a36.987 36.987 0 0 1 5.846 4.106 3.923 3.923 0 0 1 .754 2.072l.027.18.002.013 1.25 1.115q-.668 1.003-1.285 2.033-1.234 2.058-2.262 4.212-1.028 2.151-1.847 4.383a51.199 51.199 0 0 0-1.983 6.827q-.402 1.855-.667 3.737c-.13.931-.238 1.866-.316 2.804a50.945 50.945 0 0 0 .336 11.477l-1.62.47-.011.004-.007.008-.16.208a4.636 4.636 0 0 1-1.514 1.488 36.422 36.422 0 0 1-6.954 1.15l-.093.009c-.444.037-.873.053-1.288.07a16.07 16.07 0 0 0-2.492.233c-.213.04-.481.106-.741.17l-.31.074-.02.005-.015.003-.03.01-.029.007a3.987 3.987 0 0 0-.706.162c-.012.004-.023.01-.035.015a3.897 3.897 0 0 0-.448.198c-.092.044-.19.078-.278.129a3.927 3.927 0 0 0-.34.24c-.099.073-.204.136-.294.215-.09.079-.163.172-.244.258a3.983 3.983 0 0 0-.28.3c-.078.102-.137.217-.205.325-.067.106-.142.207-.198.319a3.988 3.988 0 0 0-.15.382c-.043.11-.095.217-.127.331-.033.116-.044.239-.066.358a3.908 3.908 0 0 0-.07.41c-.007.102.005.207.005.31a3.888 3.888 0 0 0 .016.487zm55.392-1.276a2.738 2.738 0 0 1-.24 1.011l-.006.017-.008.018.059.076-7.848 18.965q-.87-.558-1.708-1.157a40.704 40.704 0 0 1-3.213-2.555q-.768-.677-1.5-1.39l-.078-.073q-.648-.635-1.265-1.3-.981-1.05-1.884-2.167a40.698 40.698 0 0 1-2.454-3.371q-.558-.855-1.073-1.738-.921-1.579-1.705-3.24-.391-.83-.745-1.68t-.67-1.719l20.258-3.438.033.042.02-.004a3.52 3.52 0 0 1 .632-.058h.042a2.776 2.776 0 0 1 1.037.194c.091.03.187.052.274.09a3.434 3.434 0 0 1 .51.281c.028.02.062.032.09.052a3.411 3.411 0 0 1 .504.428 3.449 3.449 0 0 1 .239.299c.058.075.125.143.176.223.053.082.09.174.136.26a3.455 3.455 0 0 1 .171.33 3.41 3.41 0 0 1 .186.636c.007.033.004.068.01.101a3.437 3.437 0 0 1 .05.583c-.002.094-.021.189-.03.284zm25.081 25.037a42.59 42.59 0 0 1-2.012.508q-1.377.314-2.768.532-1.39.218-2.788.339-1.398.121-2.799.146a40.766 40.766 0 0 1-13.796-2.147l9.96-18.01h.019l.009-.017a3.451 3.451 0 0 1 2.906-1.815 2.63 2.63 0 0 1 .125-.002 3.467 3.467 0 0 1 3.022 1.808l.009.018h.077l9.985 18.044a40.28 40.28 0 0 1-1.949.596zm27.175-25.174c-.162.447-.329.892-.506 1.331-.079.195-.166.385-.248.578-.135.32-.267.642-.41.958-.104.23-.218.456-.327.685-.13.273-.256.549-.392.82-.118.233-.245.462-.367.693-.137.26-.27.523-.413.78-.128.23-.265.454-.397.68-.147.253-.29.508-.442.757-.14.23-.29.456-.436.683-.153.24-.302.483-.46.72-.158.234-.324.463-.486.694-.155.223-.307.448-.467.668-.176.24-.36.474-.541.711-.156.204-.308.412-.468.613-.118.15-.243.292-.363.44a40.533 40.533 0 0 1-9.533 8.489l-7.932-19.16.026-.034-.008-.017a3.41 3.41 0 0 1-.178-.546 3.425 3.425 0 0 1-.084-.523 3.449 3.449 0 0 1-.008-.492c.004-.065.014-.13.021-.194.01-.091.021-.183.038-.273a3.475 3.475 0 0 1 .204-.649 3.39 3.39 0 0 1 .153-.314c.045-.086.096-.168.149-.25a3.428 3.428 0 0 1 1.042-1.022 3.37 3.37 0 0 1 .134-.08 3.415 3.415 0 0 1 1.566-.446c.024 0 .047-.003.071-.003a3.446 3.446 0 0 1 .664.053l.02.004.033-.042 20.434 3.454c-.028.079-.06.155-.089.234zm2.257-9.923l-19.853-5.718-.017-.085-.02-.005a3.452 3.452 0 0 1-.648-.25c-.011-.006-.02-.015-.032-.02a3.415 3.415 0 0 1-.534-.342c-.017-.014-.031-.03-.048-.045a3.436 3.436 0 0 1-.429-.412c-.02-.023-.035-.05-.054-.074a3.458 3.458 0 0 1-.323-.458c-.021-.038-.035-.079-.055-.117a3.45 3.45 0 0 1-.213-.474c-.02-.056-.029-.115-.045-.172a3.41 3.41 0 0 1-.108-.46c-.01-.077-.01-.157-.015-.235a3.39 3.39 0 0 1-.014-.423c.005-.097.025-.195.038-.293a3.414 3.414 0 0 1 .066-.39c.021-.084.05-.164.076-.245.028-.084.054-.168.088-.248.03-.07.068-.137.102-.206.044-.087.086-.175.137-.258.039-.062.085-.119.127-.178.057-.08.111-.163.175-.239a3.4 3.4 0 0 1 .36-.365l.014-.013-.008-.042 15.327-13.718a41.24 41.24 0 0 1 5.906 25.485zm-23.352-41.032c.147.069.295.132.44.202.252.122.499.253.748.38.243.123.488.242.728.37.238.127.47.263.705.394.247.138.495.272.739.415.228.134.452.277.678.416.243.15.49.295.73.45.227.145.449.3.673.451.234.157.47.31.7.47.228.16.45.33.674.494.22.161.444.318.66.484.243.185.479.38.718.57.192.154.388.304.578.461.289.24.57.49.853.738.133.116.27.229.4.347q.618.556 1.214 1.139l-16.77 11.889-.06-.025-.014.011a3.438 3.438 0 0 1-.534.312c-.058.028-.117.052-.177.077a3.413 3.413 0 0 1-.413.14c-.06.017-.117.036-.177.049a4.1 4.1 0 0 1-1.905-.128c-.104-.037-.2-.095-.3-.142-.102-.05-.209-.09-.305-.148a3.393 3.393 0 0 1-1.29-1.407c-.027-.054-.048-.11-.072-.166a3.41 3.41 0 0 1-.15-.414c-.018-.061-.036-.122-.05-.184a3.437 3.437 0 0 1-.09-.612l-.001-.02-.017-.009-1.165-20.55a40.838 40.838 0 0 1 12.252 3.546zm-20.379 30.413h6.3l2.35 2.936 1.565 1.957-1.406 6.107-3.102 1.492-2.553 1.228-5.671-2.728-1.406-6.107 2.299-2.862zm-21.16-26.288a40.605 40.605 0 0 1 15.198-6.953c.55-.124 1.102-.228 1.656-.33.239-.043.478-.087.718-.127a41.49 41.49 0 0 1 1.779-.261l-1.165 20.584-.084.042-.001.02a3.433 3.433 0 0 1-.088.612c-.015.062-.033.124-.05.185a3.414 3.414 0 0 1-.148.411c-.024.057-.046.114-.073.17a3.348 3.348 0 0 1-.753 1.008c-.077.07-.167.126-.25.19a3.462 3.462 0 0 1-.284.21c-.096.06-.203.1-.305.15-.1.047-.195.104-.298.142a3.465 3.465 0 0 1-.356.094c-.097.024-.191.059-.29.074a3.348 3.348 0 0 1-1.258-.038c-.06-.013-.12-.032-.18-.048a3.392 3.392 0 0 1-.412-.14c-.06-.025-.119-.049-.176-.077a3.43 3.43 0 0 1-.534-.311l-.016-.012-.035.016-16.877-11.964a40.598 40.598 0 0 1 4.282-3.647zm-16.047 26.984a40.499 40.499 0 0 1 5.582-15.57l15.41 13.785-.016.084.015.013a3.431 3.431 0 0 1 .423.45c.04.05.077.103.114.156a3.398 3.398 0 0 1 .228.369c.03.055.062.109.088.166a3.32 3.32 0 0 1 .318 1.218c.007.104-.006.208-.008.313a3.467 3.467 0 0 1-.012.354c-.014.11-.048.216-.072.324-.025.11-.042.222-.077.328a3.446 3.446 0 0 1-.141.32c-.044.096-.078.198-.13.29a3.322 3.322 0 0 1-.816.96c-.049.039-.1.073-.15.11a3.401 3.401 0 0 1-.367.234c-.057.03-.113.062-.17.09a3.438 3.438 0 0 1-.577.222l-.02.005-.016.068-19.754 5.701q-.092-.836-.148-1.672-.113-1.673-.087-3.343a40.501 40.501 0 0 1 .383-4.975zm130.393 125.193a3.673 3.673 0 0 0-.757-1.425 3.733 3.733 0 0 0-1.291-1.024 4.069 4.069 0 0 0-1.915-.4 4.24 4.24 0 0 0-1.915.4 3.72 3.72 0 0 0-1.336.98 4.767 4.767 0 0 0-.846 1.47 10.272 10.272 0 0 0-.4 1.647h8.772a6.22 6.22 0 0 0-.312-1.648z" class="cls-1"/><path d="M13.19 386.58h270.79V82.007H13.19zm62.713-36.465a34.685 34.685 0 0 1-4.365.89 34.113 34.113 0 0 1-5.61.446 13.503 13.503 0 0 1-4.988-.802 7.651 7.651 0 0 1-3.118-2.226 8.976 8.976 0 0 1-1.647-3.474 18.561 18.561 0 0 1-.49-4.409v-13.048h6.635v12.247a8.735 8.735 0 0 0-.008 1.049 10.4 10.4 0 0 0 .106 1.04 9.474 9.474 0 0 0 .65 2.29c.036.083.06.17.098.252a3.365 3.365 0 0 0 3.162 1.425q.713 0 1.514-.044.802-.09 1.425-.178v-18.08h6.636zm27.853-8.334a14.455 14.455 0 0 1-.651 2.5 10.472 10.472 0 0 1-1.791 3.231q-.271.333-.57.643a10.71 10.71 0 0 1-3.83 2.494 14.726 14.726 0 0 1-5.165.846q-1.202 0-2.538-.133-1.292-.09-2.583-.267-1.247-.179-2.405-.401-1.158-.268-2.048-.535v-32.73l6.635-1.07v11.668a12.43 12.43 0 0 1 2.316-.757 11.898 11.898 0 0 1 2.582-.267 10.347 10.347 0 0 1 4.41.89 8.427 8.427 0 0 1 .908.463q.329.194.639.416a8.428 8.428 0 0 1 1.152.996q.266.275.506.574.339.431.632.893a11.085 11.085 0 0 1 .984 1.944q.197.51.344 1.038.174.608.303 1.226a17.33 17.33 0 0 1 .365 3.761 14.458 14.458 0 0 1-.195 2.577zm26.135-1.597c-.013.207-.027.402-.04.59l-.007.09-.041.522H114.75a4.41 4.41 0 0 0 1.914 3.251 7.696 7.696 0 0 0 4.543 1.203 20.138 20.138 0 0 0 3.562-.312 14.31 14.31 0 0 0 2.895-.846l.89 5.388a9.17 9.17 0 0 1-1.424.535 15.58 15.58 0 0 1-2.004.445q-1.07.223-2.316.356a23.41 23.41 0 0 1-2.494.134 14.94 14.94 0 0 1-5.522-.935 11.133 11.133 0 0 1-3.874-2.539 10.779 10.779 0 0 1-2.271-3.874 15.701 15.701 0 0 1-.713-4.81 14.454 14.454 0 0 1 .936-5.432 11.925 11.925 0 0 1 2.538-3.92 10.52 10.52 0 0 1 3.562-2.36 11.398 11.398 0 0 1 4.186-.801 10.308 10.308 0 0 1 7.883 3.073q2.894 3.028 2.894 8.95 0 .58-.044 1.292zm19.282-6.813q-.89-.223-2.093-.446a11.897 11.897 0 0 0-2.583-.267 10.47 10.47 0 0 0-1.514.134 7.522 7.522 0 0 0-1.291.222v17.902h-6.635V328.74q1.028-.35 2.076-.64 1.047-.29 2.11-.518a23.646 23.646 0 0 1 5.433-.578 11.339 11.339 0 0 1 1.291.089 13.172 13.172 0 0 1 1.514.178 13.509 13.509 0 0 1 1.514.267 6.177 6.177 0 0 1 1.292.356zm24.888 17.545h-6.635v-12.424a8.945 8.945 0 0 0 .014-1.17q-.024-.437-.09-.87a8.942 8.942 0 0 0-.77-2.502 3.451 3.451 0 0 0-3.162-1.336 13.76 13.76 0 0 0-1.514.089q-.802.044-1.425.133v18.08h-6.635v-22.622a34.68 34.68 0 0 1 4.364-.89q.696-.114 1.395-.199t1.401-.14q1.404-.112 2.815-.107.473-.015.946.005.472.02.941.073a13.149 13.149 0 0 1 1.853.346q.61.16 1.203.378c.195.068.377.162.564.246a7.267 7.267 0 0 1 1.36.773q.293.217.563.462a7.28 7.28 0 0 1 .675.7 8.59 8.59 0 0 1 1.647 3.385 18.011 18.011 0 0 1 .49 4.364zm26.935-12.023v.022q-.001.556-.043 1.236l-.001.033q-.045.668-.09 1.203h-15.051c.006.067.03.129.04.195a4.38 4.38 0 0 0 .698 1.84 4.848 4.848 0 0 0 .526.662 4.029 4.029 0 0 0 .65.553 7.697 7.697 0 0 0 4.543 1.203 20.137 20.137 0 0 0 3.563-.312 14.308 14.308 0 0 0 2.894-.846l.89 5.388a9.167 9.167 0 0 1-1.424.535 15.573 15.573 0 0 1-2.004.445q-1.069.223-2.316.356a23.411 23.411 0 0 1-2.494.134 14.94 14.94 0 0 1-5.522-.935c-.2-.078-.39-.175-.585-.264-.29-.132-.573-.275-.85-.431a10.56 10.56 0 0 1-2.439-1.844 10.16 10.16 0 0 1-.87-1.1 11.47 11.47 0 0 1-.72-1.2q-.237-.456-.43-.932c-.086-.213-.179-.423-.251-.642-.08-.257-.145-.518-.21-.779a16.518 16.518 0 0 1-.291-1.373c-.02-.119-.04-.237-.057-.357q-.082-.588-.12-1.181a15.097 15.097 0 0 1-.035-1.12 14.454 14.454 0 0 1 .936-5.432 11.925 11.925 0 0 1 2.538-3.92 10.52 10.52 0 0 1 3.563-2.36 11.398 11.398 0 0 1 4.186-.801 10.308 10.308 0 0 1 7.882 3.073 8.88 8.88 0 0 1 1.278 1.718 10.02 10.02 0 0 1 .582 1.192 14.408 14.408 0 0 1 .964 4.359c.042.542.07 1.098.07 1.682zm17.768 12.201a15.561 15.561 0 0 1-3.607.357 12.208 12.208 0 0 1-4.498-.713c-.145-.058-.281-.133-.422-.2a7.483 7.483 0 0 1-2.405-1.825l-.023-.023c-.056-.072-.102-.15-.155-.224a7.766 7.766 0 0 1-1.36-2.983 19.802 19.802 0 0 1-.4-4.141v-19.683l6.635-1.07v6.903h7.972v5.522h-7.972v8.239a6.723 6.723 0 0 0 .713 3.34q.757 1.247 2.984 1.247a13.788 13.788 0 0 0 2.182-.178 12.529 12.529 0 0 0 2.093-.58l.935 5.166a18.878 18.878 0 0 1-2.672.846zm41.318-8.06a17.144 17.144 0 0 0-2.984-1.38q-1.559-.58-2.85-1.203a8.768 8.768 0 0 1-2.138-1.47 6.27 6.27 0 0 1-1.38-2.092 7.665 7.665 0 0 1-.49-2.895 6.26 6.26 0 0 1 2.45-5.21 10.655 10.655 0 0 1 5.828-1.928q.447-.012.896.013a20.411 20.411 0 0 1 4.097.4 17.915 17.915 0 0 1 3.117.802l-1.158 5.166a23.795 23.795 0 0 0-2.538-.712 13.379 13.379 0 0 0-3.029-.312 7.547 7.547 0 0 0-1.363.108 3.575 3.575 0 0 0-.768.224 2.054 2.054 0 0 0-.431.248 1.377 1.377 0 0 0-.416.501 1.497 1.497 0 0 0-.139.656 1.793 1.793 0 0 0 .134.712 1.667 1.667 0 0 0 .534.624q.2.133.468.289t.6.334q.357.156.802.334t.98.379a25.182 25.182 0 0 1 3.607 1.603 7.563 7.563 0 0 1 2.227 1.692 4.736 4.736 0 0 1 1.158 2.004 8.488 8.488 0 0 1 .356 2.583 5.939 5.939 0 0 1-2.627 5.255q-2.583 1.78-7.348 1.78a21.464 21.464 0 0 1-5.21-.533 21.16 21.16 0 0 1-2.85-.891l1.113-5.389a23.492 23.492 0 0 0 3.473 1.07 17.904 17.904 0 0 0 3.518.355q.329.02.657.008a6.622 6.622 0 0 0 1.926-.364 1.376 1.376 0 0 0 .757-1.38 1.643 1.643 0 0 0-.98-1.38zm-14.386-6.922a20.196 20.196 0 0 1 .18 2.78q0 .58-.044 1.292-.044.668-.09 1.203h-15.051a4.41 4.41 0 0 0 1.915 3.25 7.697 7.697 0 0 0 4.542 1.203 20.137 20.137 0 0 0 3.563-.312 14.31 14.31 0 0 0 2.894-.846l.891 5.388a9.167 9.167 0 0 1-1.425.535 15.573 15.573 0 0 1-2.004.445q-1.069.223-2.316.356a23.412 23.412 0 0 1-2.493.134 14.94 14.94 0 0 1-5.522-.935 11.131 11.131 0 0 1-3.875-2.539 10.778 10.778 0 0 1-2.27-3.874 15.695 15.695 0 0 1-.713-4.81q-.015-.695.037-1.387a14.45 14.45 0 0 1 .469-2.726q.182-.668.429-1.32a11.925 11.925 0 0 1 2.538-3.918 10.52 10.52 0 0 1 3.563-2.36 11.398 11.398 0 0 1 4.186-.802 10.308 10.308 0 0 1 7.882 3.073 9.874 9.874 0 0 1 2.34 4.322 14.828 14.828 0 0 1 .374 1.848zM54.878 232.432L71.1 161.865a12.49 12.49 0 0 1 6.803-8.46l65.749-31.415a12.671 12.671 0 0 1 10.914 0l65.758 31.399a12.49 12.49 0 0 1 6.803 8.459l16.246 70.567a12.391 12.391 0 0 1-2.43 10.553L195.45 299.56a12.608 12.608 0 0 1-.954 1.054 12.248 12.248 0 0 1-1.965 1.571 12.973 12.973 0 0 1-2.226 1.145c-.3.12-.604.23-.914.327a12.97 12.97 0 0 1-3.77.587h-.017l-72.964.017a12.612 12.612 0 0 1-9.83-4.693L57.3 242.985q-.382-.479-.715-.992a12.385 12.385 0 0 1-1.707-9.561zm-24.28 84.996l6.635-1.069v19.595q.98-1.07 2.003-2.227 1.07-1.158 2.049-2.271.98-1.158 1.826-2.182.89-1.025 1.514-1.782h7.882q-2.36 2.717-4.631 5.21-2.227 2.45-4.899 5.077a29.195 29.195 0 0 1 2.761 2.895q.713.824 1.403 1.681t1.358 1.748c.25.333.48.666.718 1a50.06 50.06 0 0 1 1.731 2.563q1.114 1.78 1.87 3.25h-7.614q-.713-1.157-1.648-2.538-.89-1.425-1.915-2.805a32.358 32.358 0 0 0-2.182-2.717 16.98 16.98 0 0 0-2.226-2.182v10.242h-6.636zm123.46 111.429v21.021h5.606v-27.561h-5.45l-8.992 7.591 3.309 3.815 5.527-4.866z" class="cls-1"/><path d="M204.547 46.056a4.07 4.07 0 0 0-.746-1.403 3.975 3.975 0 0 0-1.27-1.009 4.142 4.142 0 0 0-1.908-.394 4.387 4.387 0 0 0-1.885.372 3.897 3.897 0 0 0-1.315.987 4.405 4.405 0 0 0-.811 1.425 9.36 9.36 0 0 0-.281.983c-.051.22-.1.439-.136.66h8.637a6.792 6.792 0 0 0-.285-1.621zm17.601 7.514a7.999 7.999 0 0 0 .632 1.122 4.692 4.692 0 0 0 4.034 1.841q.876 0 1.622-.065.745-.066 1.227-.154v-11.88a5.693 5.693 0 0 0-1.6-.658 7.713 7.713 0 0 0-1.995-.263q-4.647 0-4.647 6.313a8 8 0 0 0 .727 3.744zM98.222 47.678a6.792 6.792 0 0 0-.285-1.622 4.068 4.068 0 0 0-.745-1.403 3.98 3.98 0 0 0-1.271-1.009 4.143 4.143 0 0 0-1.907-.394 4.386 4.386 0 0 0-1.886.373 3.9 3.9 0 0 0-1.315.986 4.418 4.418 0 0 0-.81 1.425 9.31 9.31 0 0 0-.417 1.644h8.636z" class="cls-2"/><path d="M292.456 78.13V52.324a45.717 45.717 0 0 0-45.583-45.583H51.376A45.717 45.717 0 0 0 5.793 52.324V394h286.708V78.129zM215.46 45.07q.154-.526.36-1.031a11.025 11.025 0 0 1 1.011-1.926q.3-.455.646-.88a8.634 8.634 0 0 1 3.222-2.411 10.81 10.81 0 0 1 4.362-.833 10.275 10.275 0 0 1 2.433.263q.558.139 1.101.325.543.187 1.07.42V28.563l6.532-1.052v33.275q-.878.263-2.017.504-1.14.242-2.39.417-1.25.175-2.542.285-1.294.109-2.477.11a14.503 14.503 0 0 1-5.086-.834 10.203 10.203 0 0 1-3.77-2.39 10.355 10.355 0 0 1-1.521-1.996q-.212-.361-.394-.74a10.36 10.36 0 0 1-.43-1.033 15.278 15.278 0 0 1-.757-3.56c-.04-.47-.062-.943-.055-1.416a17.024 17.024 0 0 1 .702-5.064zm-25.762 2.375q.118-.674.302-1.335.183-.661.431-1.304a11.512 11.512 0 0 1 2.477-3.836 10.307 10.307 0 0 1 3.53-2.324q.44-.176.895-.31.454-.134.918-.231a11.05 11.05 0 0 1 1.284-.2c.333-.03.667-.047 1.002-.048a10.19 10.19 0 0 1 7.76 3.004 9.144 9.144 0 0 1 1.736 2.65 14.036 14.036 0 0 1 1.054 4.63c.037.5.059 1.016.059 1.553q0 .57-.044 1.25-.043.68-.088 1.205h-14.818a4.34 4.34 0 0 0 1.885 3.201 7.578 7.578 0 0 0 4.472 1.183 18.883 18.883 0 0 0 3.53-.328 13.295 13.295 0 0 0 2.827-.811l.877 5.305a9.027 9.027 0 0 1-1.403.525 18.298 18.298 0 0 1-1.95.46q-1.076.198-2.303.33a22.996 22.996 0 0 1-2.454.131q-.693.015-1.382-.036-.689-.05-1.37-.166a14.522 14.522 0 0 1-2.663-.719 10.537 10.537 0 0 1-3.814-2.52 9.997 9.997 0 0 1-2.236-3.793 15.017 15.017 0 0 1-.723-4.734 14.097 14.097 0 0 1 .209-2.732zM179.085 28.98a4.16 4.16 0 0 1 5.48 0 3.589 3.589 0 0 1 1.162 2.827 3.587 3.587 0 0 1-1.161 2.828 4.15 4.15 0 0 1-2.74 1.03 4.151 4.151 0 0 1-2.74-1.03 3.583 3.583 0 0 1-1.163-2.828 3.586 3.586 0 0 1 1.162-2.827zm6.028 9.491v23.06h-6.532v-23.06zm-24.348-5.03a9.834 9.834 0 0 1 1.967-3.3 8.662 8.662 0 0 1 5.097-2.455c.227-.036.467-.058.704-.082a16.137 16.137 0 0 1 1.675-.093 12.656 12.656 0 0 1 3.047.307 14.74 14.74 0 0 1 2.038.657l-1.14 5.13a6.256 6.256 0 0 0-1.556-.438 11.346 11.346 0 0 0-1.732-.132 5.324 5.324 0 0 0-1.995.329 3.079 3.079 0 0 0-1.271.898 3.477 3.477 0 0 0-.658 1.36 7.059 7.059 0 0 0-.197 1.71v1.14h8.067v5.435h-8.067v17.624h-6.532V37.243q-.026-.489-.003-.974a9.836 9.836 0 0 1 .556-2.828zm-13.833-2.425a3.585 3.585 0 0 1 1.115-2.036 4.161 4.161 0 0 1 4.355-.705 4.152 4.152 0 0 1 1.125.705 3.587 3.587 0 0 1 1.161 2.827 3.585 3.585 0 0 1-1.161 2.828l-.003.002a4.15 4.15 0 0 1-2.737 1.028h-.002a4.15 4.15 0 0 1-2.738-1.03 3.582 3.582 0 0 1-1.162-2.828 3.584 3.584 0 0 1 .047-.79zm7.142 7.455v23.06h-6.532v-23.06zm-26.215-5.743l6.532-1.052v6.795h7.847v5.437h-7.847v8.11a6.45 6.45 0 0 0 .723 3.288 2.079 2.079 0 0 0 .453.537 3.73 3.73 0 0 0 2.442.689l.02.001a12.464 12.464 0 0 0 2.17-.197 11.135 11.135 0 0 0 2.04-.548l.92 5.086a18.48 18.48 0 0 1-2.63.833 15.331 15.331 0 0 1-3.551.35h-.02a12.27 12.27 0 0 1-4.408-.723 6.944 6.944 0 0 1-2.806-2.016 7.502 7.502 0 0 1-1.469-3.135 18.48 18.48 0 0 1-.322-2.027q-.053-.52-.076-1.042-.023-.504-.018-1.008zm-18.282 6.97a39.281 39.281 0 0 1 4.143-1.161 23.882 23.882 0 0 1 5.327-.548q.526 0 1.271.066.744.066 1.49.175.745.11 1.491.263a7.1 7.1 0 0 1 1.271.373l-1.096 5.392q-.877-.219-2.06-.46a12.782 12.782 0 0 0-2.543-.241 11.884 11.884 0 0 0-1.468.11 8.64 8.64 0 0 0-1.294.24v17.624h-6.532zM83.82 44.807a11.507 11.507 0 0 1 2.478-3.836 10.303 10.303 0 0 1 3.529-2.324 11.052 11.052 0 0 1 4.099-.789 10.19 10.19 0 0 1 7.76 3.004 8.838 8.838 0 0 1 1.254 1.693 14.228 14.228 0 0 1 1.595 7.14q0 .57-.043 1.25l-.002.019q-.043.657-.085 1.168l-.001.018H89.586a4.338 4.338 0 0 0 1.885 3.201 7.576 7.576 0 0 0 4.471 1.183c.028 0 .055-.003.082-.003q.867-.003 1.731-.084.863-.08 1.717-.241a13.282 13.282 0 0 0 2.343-.643c.16-.059.326-.103.484-.168l.877 5.305c-.095.045-.195.081-.292.123a9.023 9.023 0 0 1-.877.326c-.078.024-.155.054-.234.076-.122.037-.249.055-.372.088-.522.142-1.046.278-1.579.373q-1.074.197-2.301.329a23.006 23.006 0 0 1-2.455.131 14.528 14.528 0 0 1-5.415-.92 10.534 10.534 0 0 1-3.814-2.521 10.001 10.001 0 0 1-2.236-3.793 15.02 15.02 0 0 1-.723-4.734 14.097 14.097 0 0 1 .942-5.37zm-20.955.482q.14-.394.307-.774a10.89 10.89 0 0 1 .535-1.037q.205-.355.435-.692a11.024 11.024 0 0 1 .79-1.036 11.138 11.138 0 0 1 1.806-1.662c.181-.133.369-.257.559-.38a11.007 11.007 0 0 1 1.112-.627c.175-.086.346-.18.528-.258.252-.106.512-.19.77-.278a12.119 12.119 0 0 1 4.227-.687 16.136 16.136 0 0 1 3.376.33 16.472 16.472 0 0 1 2.981.942l-1.359 5.217q-.494-.186-.998-.34-.505-.153-1.018-.274a10.54 10.54 0 0 0-2.456-.263 5.006 5.006 0 0 0-.848.01 5.345 5.345 0 0 0-.826.145 5.277 5.277 0 0 0-2.644 1.643A7.4 7.4 0 0 0 68.717 50a7.662 7.662 0 0 0 1.337 4.823 3.802 3.802 0 0 0 1.284 1.042c.051.026.11.046.164.071.127.06.252.12.388.17l.054.015a6.765 6.765 0 0 0 1.27.308 10.31 10.31 0 0 0 1.51.103c.405-.002.81-.022 1.214-.055l.222-.024c.37-.035.74-.078 1.106-.14.336-.052.667-.132.996-.215a10.745 10.745 0 0 0 1.503-.486l.92 5.348a15.317 15.317 0 0 1-2.849.833 18.823 18.823 0 0 1-3.77.351q-.522.012-1.043-.013a14.185 14.185 0 0 1-2.062-.255q-.51-.101-1.012-.24-.669-.184-1.32-.435a10.23 10.23 0 0 1-3.748-2.564 9.992 9.992 0 0 1-2.148-3.836 16.262 16.262 0 0 1-.68-4.8 13.584 13.584 0 0 1 .812-4.714zM283.979 386.58H13.19V82.007h270.79z" class="cls-2"/><path d="M167.062 226.203l-.02-.004a3.446 3.446 0 0 0-.664-.053c-.024 0-.047.002-.071.003a3.415 3.415 0 0 0-1.566.446c-.046.025-.09.052-.134.08a3.428 3.428 0 0 0-1.042 1.023 3.408 3.408 0 0 0-.149.249 3.39 3.39 0 0 0-.153.314 3.475 3.475 0 0 0-.203.65c-.017.09-.029.18-.038.272-.007.065-.018.13-.021.194a3.449 3.449 0 0 0 .007.492 3.41 3.41 0 0 0 .084.523 3.41 3.41 0 0 0 .178.546l.008.018-.026.034 7.933 19.159a40.533 40.533 0 0 0 9.532-8.49c.12-.147.245-.29.363-.439.16-.2.312-.409.468-.613.18-.237.365-.47.541-.711.16-.22.312-.445.468-.668.161-.231.327-.46.484-.695.159-.236.308-.479.461-.719.146-.227.296-.452.436-.683.152-.249.295-.504.442-.756.132-.227.27-.452.397-.681.143-.257.276-.52.413-.78.122-.231.25-.46.367-.694.136-.27.262-.546.392-.819.109-.229.223-.455.327-.685.143-.316.275-.638.41-.958.082-.193.17-.383.248-.578.177-.44.344-.884.506-1.331.029-.079.061-.155.089-.234l-20.434-3.454zm-58.452-6.21l19.755-5.701.016-.068.02-.005a3.438 3.438 0 0 0 .576-.222c.058-.028.114-.06.171-.09a3.401 3.401 0 0 0 .366-.234c.05-.037.102-.071.15-.11a3.322 3.322 0 0 0 .816-.96c.053-.092.087-.194.13-.29a3.446 3.446 0 0 0 .142-.32c.035-.106.052-.218.077-.328.024-.108.058-.215.072-.324a3.467 3.467 0 0 0 .012-.354c.002-.105.015-.209.008-.313a3.32 3.32 0 0 0-.318-1.218c-.026-.057-.058-.111-.088-.166a3.398 3.398 0 0 0-.228-.369 2.842 2.842 0 0 0-.115-.156 3.431 3.431 0 0 0-.422-.45l-.015-.013.017-.084-15.411-13.785a40.502 40.502 0 0 0-5.965 20.545q-.026 1.668.087 3.343.056.836.148 1.672zm59.862-11.792l-.014.013a3.4 3.4 0 0 0-.36.365c-.064.076-.118.158-.175.239-.042.06-.088.116-.127.178-.051.083-.093.171-.137.258-.034.069-.072.135-.102.206-.034.08-.06.164-.088.248-.027.08-.055.161-.076.244a3.414 3.414 0 0 0-.066.39c-.013.099-.033.197-.038.295a3.39 3.39 0 0 0 .014.422c.006.078.004.158.015.235a3.41 3.41 0 0 0 .108.46c.016.057.026.116.045.172a3.45 3.45 0 0 0 .213.474c.02.038.034.08.055.117a3.458 3.458 0 0 0 .323.458c.02.024.034.051.054.074a3.436 3.436 0 0 0 .429.412c.017.014.03.031.048.045a3.415 3.415 0 0 0 .534.341c.011.006.02.015.032.021a3.452 3.452 0 0 0 .648.25l.02.005.017.085 19.853 5.718a41.24 41.24 0 0 0-5.906-25.485l-15.327 13.718zm-33.318 20.817a3.41 3.41 0 0 0-.186-.635 3.455 3.455 0 0 0-.17-.33c-.047-.087-.084-.18-.137-.261-.051-.08-.118-.148-.176-.223a3.449 3.449 0 0 0-.239-.299 3.411 3.411 0 0 0-.503-.428c-.029-.02-.063-.033-.092-.052a3.434 3.434 0 0 0-.509-.281c-.087-.038-.183-.06-.274-.09a2.776 2.776 0 0 0-1.036-.194h-.043a3.52 3.52 0 0 0-.632.058l-.02.004-.033-.042-20.257 3.438q.315.869.669 1.719.353.85.745 1.68.781 1.66 1.705 3.24.515.883 1.073 1.738a40.698 40.698 0 0 0 2.454 3.371q.904 1.116 1.884 2.168.619.662 1.265 1.3l.078.072q.732.713 1.5 1.39a40.704 40.704 0 0 0 3.213 2.555q.837.6 1.708 1.158l7.848-18.966-.06-.076.009-.018.005-.017a2.738 2.738 0 0 0 .24-1.011c.01-.095.03-.19.03-.284a3.437 3.437 0 0 0-.05-.583c-.005-.033-.002-.068-.009-.101zm16.998 7.365l-.009-.018a3.467 3.467 0 0 0-3.022-1.808c-.042 0-.083 0-.125.002a3.451 3.451 0 0 0-2.906 1.815l-.01.018h-.018l-9.96 18.01a40.766 40.766 0 0 0 13.796 2.146q1.4-.025 2.799-.146 1.398-.121 2.788-.339 1.39-.218 2.769-.532a41.018 41.018 0 0 0 3.961-1.104l-9.985-18.044zm-8.703-16.084l5.671 2.728 2.553-1.228 3.102-1.492 1.406-6.107-1.566-1.957-2.349-2.936h-6.3l-1.624 2.023-2.299 2.862 1.406 6.107zm11.826-24.392v.02a3.437 3.437 0 0 0 .091.611c.014.063.032.124.05.185a3.41 3.41 0 0 0 .15.414c.024.055.045.111.072.166a4.133 4.133 0 0 0 1.29 1.407c.096.058.203.099.305.148.1.047.196.105.3.142a3.39 3.39 0 0 0 1.905.128c.06-.013.118-.032.177-.048a3.413 3.413 0 0 0 .413-.141c.06-.025.12-.05.177-.077a3.438 3.438 0 0 0 .534-.312l.014-.011.06.025 16.77-11.89q-.596-.582-1.213-1.138c-.132-.118-.268-.23-.401-.347-.283-.248-.565-.498-.853-.738-.19-.157-.386-.307-.579-.46-.238-.191-.474-.386-.716-.571-.217-.166-.44-.323-.66-.484-.225-.165-.447-.334-.675-.494-.23-.161-.466-.313-.7-.47-.224-.15-.446-.306-.673-.452-.24-.154-.487-.3-.73-.45-.226-.138-.45-.281-.678-.415-.244-.143-.492-.277-.739-.415-.235-.131-.467-.267-.705-.394-.24-.128-.485-.247-.728-.37-.249-.127-.496-.258-.747-.38-.146-.07-.294-.133-.44-.202a40.838 40.838 0 0 0-12.253-3.546l1.165 20.55zm-17.839 2.707l.016.012a3.43 3.43 0 0 0 .534.311c.057.028.117.052.176.077a3.392 3.392 0 0 0 .413.14c.06.016.118.035.179.048a3.348 3.348 0 0 0 1.258.038c.099-.015.193-.05.29-.074a3.465 3.465 0 0 0 .356-.094c.103-.038.199-.095.298-.142.102-.05.209-.09.305-.15a3.462 3.462 0 0 0 .284-.21c.083-.064.173-.12.25-.19a3.348 3.348 0 0 0 .753-1.008c.027-.056.05-.113.074-.17a3.414 3.414 0 0 0 .147-.41c.017-.062.035-.124.05-.186a3.433 3.433 0 0 0 .088-.612l.001-.02.084-.042 1.165-20.584a41.49 41.49 0 0 0-2.497.388c-.554.102-1.107.206-1.656.33a40.606 40.606 0 0 0-19.48 10.6l16.877 11.964z" class="cls-2"/><path d="M57.3 242.985l45.509 56.583a12.612 12.612 0 0 0 9.83 4.693l72.964-.017h.016a12.97 12.97 0 0 0 3.77-.587c.31-.097.614-.207.915-.327a12.973 12.973 0 0 0 2.226-1.145 12.248 12.248 0 0 0 1.965-1.571 12.608 12.608 0 0 0 .954-1.054l45.492-56.592a12.39 12.39 0 0 0 2.43-10.553l-16.245-70.567a12.49 12.49 0 0 0-6.803-8.46l-65.758-31.398a12.671 12.671 0 0 0-10.914 0l-65.749 31.415a12.49 12.49 0 0 0-6.803 8.46l-16.22 70.567a12.385 12.385 0 0 0 1.706 9.56q.333.514.715.993zm22.541-12.93c.022-.12.033-.241.066-.357.032-.115.084-.221.126-.332a3.988 3.988 0 0 1 .15-.382c.057-.112.132-.212.199-.319.068-.108.127-.223.206-.324a3.983 3.983 0 0 1 .279-.301c.081-.086.155-.18.244-.258.09-.08.195-.142.293-.214a3.927 3.927 0 0 1 .34-.241c.088-.05.187-.085.28-.13a3.897 3.897 0 0 1 .447-.197c.012-.004.023-.011.035-.015a3.987 3.987 0 0 1 .706-.162l.028-.007.031-.01.016-.003.02-.005.309-.074c.26-.064.529-.13.741-.17a16.07 16.07 0 0 1 2.492-.233 28.59 28.59 0 0 0 1.288-.07l.093-.01a36.422 36.422 0 0 0 6.954-1.15 4.636 4.636 0 0 0 1.515-1.486c.055-.073.108-.143.16-.208l.006-.01.01-.002 1.62-.471a50.945 50.945 0 0 1-.335-11.477 50.89 50.89 0 0 1 .316-2.804q.263-1.881.667-3.737a51.199 51.199 0 0 1 1.983-6.827q.819-2.229 1.847-4.383 1.028-2.151 2.262-4.212.617-1.03 1.284-2.033l-1.249-1.115-.002-.012a16.436 16.436 0 0 1-.027-.181 3.923 3.923 0 0 0-.754-2.072 36.987 36.987 0 0 0-5.846-4.106 28.855 28.855 0 0 0-1.122-.618 16.14 16.14 0 0 1-2.143-1.292c-.172-.127-.383-.302-.588-.47a35.004 35.004 0 0 0-.228-.187l-.026-.018-.033-.024a4.635 4.635 0 0 1-1.712-2.85 3.753 3.753 0 0 1 .74-3 3.803 3.803 0 0 1 3.015-1.402c.05 0 .099 0 .149.002a4.735 4.735 0 0 1 2.76 1.042l.238.186c.217.17.463.362.638.512a16.5 16.5 0 0 1 1.749 1.81c.267.306.543.624.844.943l.067.069a36.41 36.41 0 0 0 5.233 4.719 2.715 2.715 0 0 0 2.033.264c.095-.015.188-.03.281-.042l.014-.002.011.008c.233.172.972.702 1.396.992q.649-.689 1.32-1.351a50.65 50.65 0 0 1 3.956-3.51q.688-.549 1.393-1.073 1.41-1.048 2.89-1.995.738-.473 1.493-.92a50.643 50.643 0 0 1 14.66-5.83 51.344 51.344 0 0 1 7.088-1.091l.093-1.65.01-.008a4.267 4.267 0 0 0 1.267-2.018 36.526 36.526 0 0 0-.429-7.06l-.008-.069c-.062-.433-.139-.848-.213-1.25a16.304 16.304 0 0 1-.325-2.494c-.008-.193-.002-.437.003-.672.002-.116.005-.231.005-.34a.806.806 0 0 0-.004-.046c-.002-.02-.004-.04-.004-.062a4.002 4.002 0 0 1 0-.824v-.008c.006-.06.027-.115.036-.174a3.984 3.984 0 0 1 .124-.595c.035-.114.09-.217.134-.325a3.995 3.995 0 0 1 .166-.387 3.92 3.92 0 0 1 .223-.336c.069-.1.13-.207.207-.301.081-.1.177-.183.268-.273.091-.092.176-.189.276-.272.093-.076.198-.136.297-.203a3.918 3.918 0 0 1 .34-.226 3.998 3.998 0 0 1 .38-.163c.111-.046.216-.102.332-.138a3.99 3.99 0 0 1 .588-.122c.062-.01.118-.03.181-.037h.008c.131-.014.267-.002.4-.002a4.078 4.078 0 0 1 .417.002h.008c.057.006.11.026.167.034a3.973 3.973 0 0 1 .602.126c.113.035.215.089.322.133a3.992 3.992 0 0 1 .39.167 3.928 3.928 0 0 1 .334.222c.102.07.208.13.303.208.099.081.182.177.272.268.092.091.19.176.272.276.077.093.136.198.205.298a3.921 3.921 0 0 1 .225.34 4.014 4.014 0 0 1 .165.384c.045.11.1.212.135.327a3.982 3.982 0 0 1 .122.589c.01.061.031.117.038.18v.008a3.998 3.998 0 0 1 0 .824c0 .117.004.248.006.382l.006.388c.001.126 0 .245-.003.35a16.301 16.301 0 0 1-.326 2.496c-.075.4-.151.815-.213 1.25l-.025.209c-.013.076-.02.154-.031.23a36.158 36.158 0 0 0-.408 4.956l-.002.057q-.01.84.02 1.679a2.714 2.714 0 0 0 1.063 1.747c.073.066.144.132.215.199l.01.01v.013c.012.297.057 1.218.09 1.728a51.037 51.037 0 0 1 17.81 4.953 51.58 51.58 0 0 1 14.83 10.817l1.484-1.058.012.001c.06.003.13.009.205.014a3.908 3.908 0 0 0 2.164-.27q1.05-.778 2.042-1.63.99-.85 1.917-1.772.617-.614 1.205-1.257l.135-.138.086-.096c.26-.28.51-.56.746-.832.244-.293.501-.574.764-.85.03-.03.056-.064.086-.095q.442-.456.918-.878c.174-.15.407-.331.631-.507l.246-.192a4 4 0 0 1 .644-.513l.006-.005c.048-.03.1-.047.15-.076a3.971 3.971 0 0 1 .552-.278c.11-.043.223-.064.335-.097a4.007 4.007 0 0 1 .408-.111 3.938 3.938 0 0 1 .4-.035c.123-.01.244-.028.366-.026.129.002.254.025.381.04.129.014.257.02.384.047.118.025.23.07.344.105a3.943 3.943 0 0 1 .389.126 4.01 4.01 0 0 1 .365.196c.105.058.213.105.313.173a3.974 3.974 0 0 1 .464.386c.045.042.097.072.14.117l.005.006c.091.093.165.205.247.308a4.08 4.08 0 0 1 .262.33l.004.006c.03.047.045.097.073.145a3.974 3.974 0 0 1 .281.557c.043.11.064.222.096.334a3.995 3.995 0 0 1 .112.41 3.927 3.927 0 0 1 .035.4c.01.122.028.243.026.366-.002.128-.025.254-.04.381-.014.128-.02.257-.047.383-.025.119-.07.231-.106.347a3.926 3.926 0 0 1-.125.386 4.007 4.007 0 0 1-.198.37c-.058.103-.104.21-.17.308a3.975 3.975 0 0 1-.393.472c-.04.042-.069.091-.11.133l-.006.004a4 4 0 0 1-.645.513l-.274.225c-.206.17-.42.346-.593.474a15.829 15.829 0 0 1-2.14 1.287c-.368.195-.748.397-1.134.624a37.107 37.107 0 0 0-5.846 4.107 2.722 2.722 0 0 0-.708 1.921c-.007.096-.013.191-.021.286v.001l-.001.012-.01.009c-.106.097-.336.303-.603.54l-.408.366c-.134.12-.26.232-.364.327a51.159 51.159 0 0 1 8.193 35.389l1.572.457.007.01.114.165a3.918 3.918 0 0 0 1.569 1.53 36.5 36.5 0 0 0 6.97 1.15l.077.008c.443.037.87.054 1.284.07a16.023 16.023 0 0 1 2.493.234c.205.038.467.103.72.166.152.037.299.074.426.103l.008.001a3.967 3.967 0 0 1 .698.16c.013.004.023.01.035.015a3.887 3.887 0 0 1 .452.2c.09.043.188.077.274.127a3.932 3.932 0 0 1 .348.246c.095.07.198.131.286.209.092.08.167.176.25.264a3.983 3.983 0 0 1 .274.295c.078.101.138.216.206.325.066.106.142.206.198.318a3.987 3.987 0 0 1 .15.382c.042.11.094.217.127.332.032.114.043.236.065.354a3.93 3.93 0 0 1 .07.414c.007.1-.004.204-.004.305a3.901 3.901 0 0 1-.017.492v.037c-.017.123-.058.234-.085.352-.027.118-.039.237-.077.355-.004.012-.011.022-.015.034a3.9 3.9 0 0 1-.199.45c-.044.091-.078.19-.128.277a3.906 3.906 0 0 1-.242.341c-.071.098-.134.203-.213.293-.079.089-.172.162-.258.244a3.983 3.983 0 0 1-.3.279c-.101.077-.214.136-.321.203-.108.068-.21.144-.323.201a4.01 4.01 0 0 1-.377.148c-.113.043-.22.096-.337.129-.113.032-.233.042-.35.064a3.933 3.933 0 0 1-.419.071c-.099.008-.2-.004-.3-.004a3.9 3.9 0 0 1-.496-.016c-.013-.002-.025 0-.038-.002a3.987 3.987 0 0 1-.7-.16h-.006l-.026-.004-.033-.005a.29.29 0 0 1-.045-.015.257.257 0 0 0-.031-.01 20.517 20.517 0 0 0-.376-.078 11.67 11.67 0 0 1-.643-.141 16.175 16.175 0 0 1-2.35-.871 30.32 30.32 0 0 0-1.184-.493l-.11-.038a36.284 36.284 0 0 0-6.745-1.978 2.74 2.74 0 0 0-.225-.009 2.789 2.789 0 0 0-1.712.654c-.082.056-.161.112-.243.166l-.011.007-.014-.002a58.921 58.921 0 0 0-1.651-.29q-.491 1.542-1.076 3.042-.584 1.5-1.258 2.955a51.25 51.25 0 0 1-20.335 22.52c.058.14.127.325.198.52a5.973 5.973 0 0 0 .44 1.032l.014.015-.007.02a10.56 10.56 0 0 1-.11.276 3.776 3.776 0 0 0-.294.992 2.69 2.69 0 0 0 .103 1.03 36.86 36.86 0 0 0 3.486 6.24c.246.367.497.71.74 1.042a16.171 16.171 0 0 1 1.37 2.097c.107.2.232.465.354.722l.16.338a4.25 4.25 0 0 1-.149 4.137 4.163 4.163 0 0 1-.83 1.003l-.02.02a4.233 4.233 0 0 1-.69.477 3.762 3.762 0 0 1-3.088.056 4.628 4.628 0 0 1-2.397-2.3l-.14-.285a16.494 16.494 0 0 1-.348-.725 16.504 16.504 0 0 1-.794-2.397c-.108-.392-.22-.797-.352-1.214l-.029-.089a36.414 36.414 0 0 0-2.667-6.522 2.727 2.727 0 0 0-1.717-1.12c-.092-.028-.183-.055-.273-.084l-.012-.004-.007-.011c-.066-.113-.226-.404-.395-.711-.152-.274-.313-.567-.432-.778a50.965 50.965 0 0 1-36.288-.093l-.396.718-.488.884-.013.004a3.165 3.165 0 0 0-1.679.815 14.866 14.866 0 0 0-2.201 4.722c-.261.766-.53 1.56-.84 2.338-.134.421-.245.832-.353 1.23a16.125 16.125 0 0 1-.783 2.379l-.07.15c-.052.11-.107.226-.168.348l-.087.175-.16.32-.002.015a.055.055 0 0 1-.012.016 4.367 4.367 0 0 1-.283.475 4.444 4.444 0 0 1-.812.998l-.005.005a4.446 4.446 0 0 1-2.803 1.108 3.61 3.61 0 0 1-1.572-.356 4.176 4.176 0 0 1-2.038-2.671 4.229 4.229 0 0 1 .006-2.036 4.184 4.184 0 0 1 .343-.93c.026-.053.056-.119.084-.179l.096-.204.089-.19c.082-.177.164-.35.236-.487a16.465 16.465 0 0 1 1.379-2.113c.24-.33.49-.671.734-1.035a38.247 38.247 0 0 0 3.559-6.396 3.881 3.881 0 0 0-.35-2.2l-.006-.013.006-.012.703-1.689a51.265 51.265 0 0 1-22.676-28.314l-1.698.292-.01-.006a18.98 18.98 0 0 1-.175-.1 3.91 3.91 0 0 0-2.069-.695 36.297 36.297 0 0 0-6.732 1.973l-.12.043c-.406.156-.791.32-1.163.48a16.603 16.603 0 0 1-2.372.875c-.2.054-.46.109-.71.162l-.309.065a.271.271 0 0 0-.032.011.336.336 0 0 1-.044.014l-.033.005-.025.004a3.978 3.978 0 0 1-.707.161c-.013.002-.025 0-.038.001a3.903 3.903 0 0 1-.487.016c-.103 0-.208.013-.31.005a3.907 3.907 0 0 1-.409-.07c-.12-.021-.243-.033-.359-.066-.113-.031-.218-.083-.328-.125a3.997 3.997 0 0 1-.386-.151c-.11-.056-.209-.13-.313-.195-.11-.07-.227-.13-.33-.21-.105-.08-.196-.18-.293-.271-.089-.084-.184-.16-.266-.252-.077-.088-.138-.19-.208-.286a3.932 3.932 0 0 1-.247-.348c-.05-.085-.083-.182-.126-.272a3.91 3.91 0 0 1-.2-.454c-.005-.012-.012-.022-.016-.034-.038-.117-.05-.234-.076-.351-.027-.12-.068-.233-.085-.356-.002-.013 0-.025-.001-.038a3.888 3.888 0 0 1-.016-.487c0-.103-.012-.208-.004-.31a3.908 3.908 0 0 1 .07-.41zM37.233 340.674a16.98 16.98 0 0 1 2.226 2.182 32.358 32.358 0 0 1 2.182 2.716q1.024 1.38 1.915 2.806.935 1.38 1.648 2.538h7.615q-.757-1.47-1.87-3.25a50.111 50.111 0 0 0-1.732-2.564c-.238-.333-.468-.666-.718-1q-.668-.89-1.358-1.747t-1.403-1.681a29.195 29.195 0 0 0-2.76-2.895q2.671-2.627 4.898-5.076 2.27-2.494 4.631-5.21h-7.882q-.624.756-1.514 1.78-.846 1.025-1.826 2.183-.98 1.113-2.049 2.27-1.024 1.159-2.003 2.228v-19.595l-6.636 1.07v33.487h6.636zm32.034 4.898q-.623.09-1.425.179-.801.044-1.514.044a3.365 3.365 0 0 1-3.162-1.425c-.038-.082-.062-.17-.097-.253a9.474 9.474 0 0 1-.65-2.289 10.4 10.4 0 0 1-.107-1.04 8.735 8.735 0 0 1 .008-1.05v-12.246h-6.635v13.048a18.561 18.561 0 0 0 .49 4.41 8.976 8.976 0 0 0 1.647 3.473 7.651 7.651 0 0 0 3.118 2.226 13.503 13.503 0 0 0 4.987.802 34.113 34.113 0 0 0 5.611-.446 34.685 34.685 0 0 0 4.365-.89v-22.623h-6.636zm34.016-11.355q-.147-.528-.344-1.038a11.085 11.085 0 0 0-.984-1.944q-.293-.46-.632-.892-.24-.3-.506-.575a8.428 8.428 0 0 0-1.152-.996q-.31-.222-.64-.416a8.427 8.427 0 0 0-.908-.463 10.347 10.347 0 0 0-4.409-.89 11.898 11.898 0 0 0-2.582.267 12.43 12.43 0 0 0-2.316.757v-11.668l-6.635 1.07v32.73q.89.267 2.048.535 1.158.222 2.405.4 1.291.179 2.583.268 1.336.133 2.538.133a14.726 14.726 0 0 0 5.166-.846 10.71 10.71 0 0 0 3.83-2.494q.298-.31.569-.643a10.472 10.472 0 0 0 1.79-3.231 14.456 14.456 0 0 0 .847-5.077 17.33 17.33 0 0 0-.365-3.761q-.13-.618-.303-1.226zm-6.143 6.117a8.13 8.13 0 0 1-1.339 3.635 4.675 4.675 0 0 1-2.147 1.578c-.106.04-.212.077-.321.109a4.62 4.62 0 0 1-1.629.184q-.89 0-1.647-.045-.757-.089-1.247-.178v-12.068a5.788 5.788 0 0 1 1.603-.668 8.084 8.084 0 0 1 2.049-.267 5.364 5.364 0 0 1 1.406.194 3.992 3.992 0 0 1 .969.398 3.748 3.748 0 0 1 1.021.864 4.226 4.226 0 0 1 .309.425 5.244 5.244 0 0 1 .496 1.015 7.968 7.968 0 0 1 .389 1.583q.065.439.097.922t.033 1.011a8.126 8.126 0 0 1-.042 1.308zm22.02-13.465a11.398 11.398 0 0 0-4.187.802 10.52 10.52 0 0 0-3.562 2.36 11.925 11.925 0 0 0-2.539 3.919 14.454 14.454 0 0 0-.935 5.433 15.701 15.701 0 0 0 .713 4.809 10.779 10.779 0 0 0 2.27 3.874 11.133 11.133 0 0 0 3.875 2.539 14.94 14.94 0 0 0 5.522.935 23.41 23.41 0 0 0 2.494-.134q1.247-.133 2.316-.356a15.58 15.58 0 0 0 2.004-.445 9.17 9.17 0 0 0 1.425-.535l-.891-5.388a14.31 14.31 0 0 1-2.895.846 20.138 20.138 0 0 1-3.562.312 7.696 7.696 0 0 1-4.543-1.203 4.41 4.41 0 0 1-1.914-3.25h15.051c.014-.165.028-.34.041-.524l.007-.089c.014-.188.028-.383.041-.59q.045-.712.045-1.291 0-5.923-2.895-8.951a10.308 10.308 0 0 0-7.882-3.073zm-4.41 9.975a10.266 10.266 0 0 1 .401-1.648 4.763 4.763 0 0 1 .847-1.47 3.721 3.721 0 0 1 1.335-.979 4.24 4.24 0 0 1 1.915-.4 4.069 4.069 0 0 1 1.915.4 3.733 3.733 0 0 1 1.292 1.024 3.673 3.673 0 0 1 .757 1.425 6.223 6.223 0 0 1 .311 1.648zm32.731-9.574a13.172 13.172 0 0 0-1.514-.178 11.339 11.339 0 0 0-1.291-.09 23.646 23.646 0 0 0-5.433.58q-1.063.228-2.11.517-1.047.29-2.076.64v22.177h6.635v-17.902a7.522 7.522 0 0 1 1.291-.222 10.47 10.47 0 0 1 1.515-.134 11.897 11.897 0 0 1 2.582.267q1.203.223 2.093.446l1.114-5.478a6.177 6.177 0 0 0-1.292-.356 13.509 13.509 0 0 0-1.514-.267zm24.443 2.672a7.28 7.28 0 0 0-.675-.701q-.27-.245-.562-.462a7.267 7.267 0 0 0-1.36-.773c-.188-.084-.37-.178-.565-.246q-.593-.218-1.203-.378a13.149 13.149 0 0 0-1.853-.346q-.469-.054-.941-.073-.472-.02-.946-.005-1.41-.005-2.815.107-.702.055-1.401.14-.7.085-1.395.198a34.68 34.68 0 0 0-4.364.891v22.622h6.635v-18.08q.623-.089 1.425-.133a13.76 13.76 0 0 1 1.514-.09 3.451 3.451 0 0 1 3.162 1.337 8.942 8.942 0 0 1 .77 2.502q.066.432.09.87a8.945 8.945 0 0 1-.014 1.17v12.424h6.635V337.69a18.011 18.011 0 0 0-.49-4.364 8.59 8.59 0 0 0-1.647-3.384zm28.038 2.91a10.02 10.02 0 0 0-.582-1.192 8.88 8.88 0 0 0-1.278-1.718 10.308 10.308 0 0 0-7.882-3.073 11.398 11.398 0 0 0-4.186.802 10.52 10.52 0 0 0-3.563 2.36 11.925 11.925 0 0 0-2.538 3.919 14.454 14.454 0 0 0-.936 5.433c-.003.373.01.746.034 1.118q.04.594.121 1.182c.017.12.037.238.057.357.075.462.176.919.29 1.373.066.26.13.522.211.779.072.219.165.429.251.642q.193.477.43.931a11.47 11.47 0 0 0 .72 1.202 10.16 10.16 0 0 0 .87 1.1 10.56 10.56 0 0 0 2.44 1.843c.276.156.56.299.849.431.195.089.385.186.585.264a14.94 14.94 0 0 0 5.522.935 23.411 23.411 0 0 0 2.494-.134q1.247-.133 2.316-.356a15.573 15.573 0 0 0 2.004-.445 9.167 9.167 0 0 0 1.425-.535l-.89-5.388a14.308 14.308 0 0 1-2.895.846 20.137 20.137 0 0 1-3.563.312 7.697 7.697 0 0 1-4.542-1.203 4.029 4.029 0 0 1-.65-.553 4.848 4.848 0 0 1-.527-.662 4.38 4.38 0 0 1-.698-1.84c-.01-.066-.034-.128-.04-.195h15.052q.044-.535.089-1.203l.001-.033q.042-.68.043-1.236v-.022c0-.584-.028-1.14-.07-1.682a14.408 14.408 0 0 0-.964-4.359zm-14.151 3.992a10.26 10.26 0 0 1 .4-1.648 4.764 4.764 0 0 1 .847-1.47 3.72 3.72 0 0 1 1.336-.979 4.238 4.238 0 0 1 1.915-.4 4.069 4.069 0 0 1 1.914.4 3.733 3.733 0 0 1 1.292 1.024 3.674 3.674 0 0 1 .757 1.425 6.22 6.22 0 0 1 .312 1.648zm34.689 8.239a12.529 12.529 0 0 1-2.092.579 13.788 13.788 0 0 1-2.182.178q-2.227 0-2.984-1.247a6.723 6.723 0 0 1-.713-3.34v-8.239h7.972v-5.522h-7.972v-6.902l-6.635 1.069v19.683a19.802 19.802 0 0 0 .4 4.141 7.766 7.766 0 0 0 1.36 2.983c.053.074.099.152.155.224l.023.023a7.483 7.483 0 0 0 2.405 1.825c.14.067.277.142.422.2a12.208 12.208 0 0 0 4.498.713 15.561 15.561 0 0 0 3.607-.357 18.878 18.878 0 0 0 2.672-.846l-.935-5.165zm14.6-18.214a11.398 11.398 0 0 0-4.186.802 10.52 10.52 0 0 0-3.563 2.36 11.925 11.925 0 0 0-2.538 3.919q-.247.65-.43 1.32a14.45 14.45 0 0 0-.469 2.725q-.051.692-.036 1.388a15.695 15.695 0 0 0 .712 4.81 10.778 10.778 0 0 0 2.271 3.873 11.131 11.131 0 0 0 3.875 2.539 14.94 14.94 0 0 0 5.522.935 23.412 23.412 0 0 0 2.493-.134q1.247-.133 2.316-.356a15.573 15.573 0 0 0 2.004-.445 9.167 9.167 0 0 0 1.425-.535l-.89-5.388a14.31 14.31 0 0 1-2.895.846 20.137 20.137 0 0 1-3.563.312 7.697 7.697 0 0 1-4.542-1.203 4.41 4.41 0 0 1-1.915-3.25h15.052q.045-.535.089-1.203.044-.712.045-1.291a20.196 20.196 0 0 0-.181-2.78 14.828 14.828 0 0 0-.374-1.849 9.874 9.874 0 0 0-2.34-4.322 10.308 10.308 0 0 0-7.882-3.073zm-4.409 9.975a10.272 10.272 0 0 1 .4-1.648 4.767 4.767 0 0 1 .847-1.47 3.72 3.72 0 0 1 1.336-.979 4.24 4.24 0 0 1 1.915-.4 4.069 4.069 0 0 1 1.915.4 3.733 3.733 0 0 1 1.291 1.024 3.673 3.673 0 0 1 .757 1.425 6.22 6.22 0 0 1 .312 1.648zm29.613 8.951a6.622 6.622 0 0 1-1.926.364q-.328.012-.657-.008a17.904 17.904 0 0 1-3.518-.356 23.492 23.492 0 0 1-3.473-1.069l-1.113 5.389a21.16 21.16 0 0 0 2.85.89 21.464 21.464 0 0 0 5.21.535q4.765 0 7.348-1.781a5.939 5.939 0 0 0 2.627-5.255 8.488 8.488 0 0 0-.356-2.583 4.736 4.736 0 0 0-1.158-2.004 7.563 7.563 0 0 0-2.227-1.692 25.182 25.182 0 0 0-3.607-1.603q-.534-.2-.98-.379t-.801-.334q-.334-.178-.601-.334t-.468-.29a1.667 1.667 0 0 1-.534-.623 1.793 1.793 0 0 1-.134-.712 1.497 1.497 0 0 1 .139-.656 1.377 1.377 0 0 1 .416-.5 2.054 2.054 0 0 1 .431-.249 3.575 3.575 0 0 1 .768-.224 7.547 7.547 0 0 1 1.363-.108 13.379 13.379 0 0 1 3.029.312 23.795 23.795 0 0 1 2.538.712l1.158-5.166a17.915 17.915 0 0 0-3.117-.801 20.411 20.411 0 0 0-4.097-.401q-.449-.026-.896-.013a10.655 10.655 0 0 0-5.829 1.928 6.26 6.26 0 0 0-2.449 5.21 7.665 7.665 0 0 0 .49 2.895 6.27 6.27 0 0 0 1.38 2.093 8.768 8.768 0 0 0 2.138 1.47q1.291.623 2.85 1.202a17.144 17.144 0 0 1 2.984 1.38 1.643 1.643 0 0 1 .98 1.38 1.376 1.376 0 0 1-.758 1.381zm-82 92.591v-3.672c0-.464.012-1.065.034-1.774.016-.503.036-1.051.062-1.677q.096-2.262.153-2.626h-.153a21.48 21.48 0 0 1-1.706 3.067l-.976 1.474-1.417 2.142-2.745 4.148h6.748z" class="cls-2"/><path d="M5.499 436.003a34.255 34.255 0 0 0 34.255 34.256h218.099a34.255 34.255 0 0 0 34.255-34.256v-32.921H5.498zm160.842 3.945l6.965-10.258 5.273-7.766.051-.074h5.464v17.618h3.373v4.6h-3.373v5.81h-5.79v-5.81h-11.963zm-12.127-17.63h5.45v27.56h-5.606v-21.02l-5.527 4.865-3.309-3.815zm-20.436 22.81a3.444 3.444 0 0 1 1.907-1.907 3.752 3.752 0 0 1 2.803 0 3.447 3.447 0 0 1 1.908 1.908 3.74 3.74 0 0 1 0 2.803 3.44 3.44 0 0 1-1.908 1.907 3.74 3.74 0 0 1-2.803 0 3.439 3.439 0 0 1-1.907-1.907 3.74 3.74 0 0 1 0-2.803zm-14.13-22.81h5.45v27.56h-5.606v-21.02l-5.528 4.865-3.309-3.815z" class="cls-2"/></svg>