<svg xmlns="http://www.w3.org/2000/svg" role="img" viewBox="50.43 21.93 250.64 186.64"><path d="M87.52 194.6h-23L60.4 204h-5.1l18.18-41.22h5.1L96.76 204h-5.1zm-1.92-4.44l-9.54-21.66-9.6 21.66zm17.4-27.42h4.68l25.56 33.54v-33.54h4.68V204h-4.68l-25.56-33.54V204H103zm55 4.44h-13.84v-4.44h32.4v4.44H162.7V204H158zm55.07 15a13.18 13.18 0 0 1-4.59 4.62 16 16 0 0 1-6.6 2.22l10.5 14.98H207l-10.4-14.86h-9.12V204h-4.68v-41.26h16.74a17.43 17.43 0 0 1 7.68 1.68 13.45 13.45 0 0 1 5.49 4.71 12.58 12.58 0 0 1 .36 13.05zm-25.59 2.52h11.22a13.23 13.23 0 0 0 8.19-2.34 8.21 8.21 0 0 0 0-12.84 13.23 13.23 0 0 0-8.19-2.34h-11.22zm39.66-17.52v13.56h22.38v4.44h-22.38v14.34H252V204h-29.6v-41.26H252v4.44zm60.12 27.42h-23l-4.12 9.4H255l18.18-41.22h5.1L296.5 204h-5.1zm-1.92-4.44l-9.54-21.66-9.6 21.66zm-137.62-86.28a10.59 10.59 0 0 0 4.08 3.89c.29.15.57.3.86.43a70.42 70.42 0 0 0 5.32-10.36 57.34 57.34 0 0 0-10.35 6zm52.76-15.64a47 47 0 0 1-3.65 10.2 44.24 44.24 0 0 1 8.94 3.87 62.23 62.23 0 0 0 6.16-14.74l.17-.59-5.41.58zm-6.73 15.14c-5.28 7-13.77 11.55-26.17 12.2q-2.37.12-4.53.09a30.94 30.94 0 0 0 13 2.34c12.05-.63 19.55-4.21 24.86-9.51.48-.48.94-1 1.39-1.5a34.54 34.54 0 0 0-8.55-3.62zm8.92-29.09c-.26 2.74-.58 5.46-1 8.1l4.72-.51 7.3-.8c1-4 1.92-8.2 2.94-12.37-4.46.77-9.05 1.4-13.64 2-.11 1.22-.2 2.41-.32 3.58zm-5.01-8.52c.24-3.74.45-7.54.73-11.32-3.61.46-7.23.86-10.8 1.28-.28 3.79-.58 7.6-1 11.35v.36l.32-.06c3.55-.6 7.15-1.11 10.75-1.61zm-15.38-15.11c.33-4.49.68-8.95 1.14-13.32-3.75 1.13-7.49 2.16-11.13 3.25-.07 1.85-.13 3.72-.2 5.61s-.16 4.08-.25 6.14c2.16-.43 4.36-.81 6.58-1.14 1.28-.2 2.58-.37 3.86-.54zM197 74c.08-.82.14-1.66.21-2.49-3.27.46-6.51.94-9.68 1.47l-1.67.29a110.21 110.21 0 0 1-2.09 11.46c4-.67 8-1.22 12-1.7.57-2.85.96-5.87 1.23-9.03zm-2.54 15c-4.2.54-8.37 1.16-12.45 1.91a50.56 50.56 0 0 1-2.69 6.39 44.78 44.78 0 0 1 11.85-.05 37.29 37.29 0 0 0 3.29-8.25zM181 66.79c.35-3.39.62-6.86.88-10.35-1 .13-1.93.25-2.89.4-2.56.38-5.05.83-7.43 1.35-.26 4.28-.6 8.58-1.13 12.9 3.33-1 6.81-1.86 10.38-2.58.04-.57.11-1.14.19-1.72zm-15.25-7.09a39.5 39.5 0 0 0-9.3 4.08 45.22 45.22 0 0 1 .55 13.15 51.19 51.19 0 0 1 7.36-3.71c.64-4.47 1.09-9 1.39-13.52zm-15.04 22.05a49.1 49.1 0 0 0 .75-13.92c-4.15 4.41-6.62 10.61-6.62 20.39v1.7a30.86 30.86 0 0 1 6-8.16zM148 97a70.84 70.84 0 0 1 12.68-6.26 99.68 99.68 0 0 0 2.67-10.84 38.36 38.36 0 0 0-4.85 2.78A24.39 24.39 0 0 0 148 97zm20.53 12.82c9-.62 14.71-3.27 18.73-7.36a47.91 47.91 0 0 0-12.07 1.25 30.8 30.8 0 0 1-6.66 6.11zm4.73-13.04a35.47 35.47 0 0 0 2.26-4.58 105.52 105.52 0 0 0-10.42 2.93 80.43 80.43 0 0 1-5.93 13.2c6.59-2.04 10.83-6.05 14.09-11.55zM166.1 53.7q.18-3.72.31-7.41c.05-1.31.09-2.6.13-3.89l-1.57.53a60.29 60.29 0 0 0-14.31 6.88 45.2 45.2 0 0 1 4.21 8.41 48.52 48.52 0 0 1 11.23-4.52zm-15.98 7.81a34.81 34.81 0 0 0-3.94-8c-.47.46-.93.94-1.37 1.43-5 5.59-8.14 13.32-8.14 25.54a30.57 30.57 0 0 0 2.6 11.78c-.07-1.19-.1-2.43-.1-3.72-.01-12.54 4.21-21.37 10.95-27.03zM180 74.46a91.54 91.54 0 0 0-10.5 2.86c-.62 3.75-1.4 7.48-2.39 11.18 3.43-1 7-1.88 10.53-2.61A97.22 97.22 0 0 0 180 74.46z"/><path d="M175 26.73a52.5 52.5 0 1 0 52.5 52.5 52.51 52.51 0 0 0-52.5-52.5zM218.33 83v.39c-.14 1.36-.33 2.7-.58 4A43.51 43.51 0 1 1 189 38.05c-.42 3.89-.75 7.91-1.06 12 3.66-.44 7.32-.88 10.9-1.36.19-1.79.41-3.57.67-5.33.91.63 1.8 1.29 2.67 2l.13.1c.85.69 1.67 1.41 2.47 2.16l.15.15a43 43 0 0 1 4.52 5h-.09c-1.74.35-3.51.65-5.28.94-.3 3.73-.54 7.54-.8 11.36 4.14-.59 8.2-1.18 12.13-1.86.25.62.48 1.25.7 1.88.22.62.42 1.25.6 1.88v.11c.18.6.34 1.21.49 1.82l.06.25c.14.57.26 1.14.38 1.72 0 .15.05.31.08.46.09.52.19 1 .26 1.56 0 .24.06.48.1.72.05.45.11.9.16 1.35s.06.74.08 1.11.06.67.08 1c0 .72.05 1.44.05 2.16s0 1.43-.05 2.13-.02 1.11-.07 1.64z"/></svg>