<svg id="Layer_1" data-name="Layer 1" xmlns="http://www.w3.org/2000/svg" viewBox="0 0 350 240"><title>Antrea Open Source Identity</title>
<metadata><?xpacket begin="﻿" id="W5M0MpCehiHzreSzNTczkc9d"?>
<x:xmpmeta xmlns:x="adobe:ns:meta/" x:xmptk="Adobe XMP Core 6.0-c002 79.164488, 2020/07/10-22:06:53        ">
   <rdf:RDF xmlns:rdf="http://www.w3.org/1999/02/22-rdf-syntax-ns#">
      <rdf:Description rdf:about=""
            xmlns:lr="http://ns.adobe.com/lightroom/1.0/"
            xmlns:dc="http://purl.org/dc/elements/1.1/"
            xmlns:xmp="http://ns.adobe.com/xap/1.0/"
            xmlns:xmpMM="http://ns.adobe.com/xap/1.0/mm/"
            xmlns:stEvt="http://ns.adobe.com/xap/1.0/sType/ResourceEvent#">
         <lr:hierarchicalSubject>
            <rdf:Bag>
               <rdf:li>open source identity</rdf:li>
               <rdf:li>open source identity|antrea</rdf:li>
            </rdf:Bag>
         </lr:hierarchicalSubject>
         <dc:subject>
            <rdf:Bag>
               <rdf:li>open source identity</rdf:li>
               <rdf:li>antrea</rdf:li>
            </rdf:Bag>
         </dc:subject>
         <dc:title>
            <rdf:Alt>
               <rdf:li xml:lang="x-default">Antrea Open Source Identity</rdf:li>
            </rdf:Alt>
         </dc:title>
         <xmp:MetadataDate>2021-05-17T14:26:11-07:00</xmp:MetadataDate>
         <xmpMM:InstanceID>xmp.iid:6cb5f65d-bf3a-44d4-a08e-302107d00331</xmpMM:InstanceID>
         <xmpMM:DocumentID>xmp.did:4e5fbfe7-3974-4378-8c2e-6418e7429230</xmpMM:DocumentID>
         <xmpMM:OriginalDocumentID>xmp.did:4e5fbfe7-3974-4378-8c2e-6418e7429230</xmpMM:OriginalDocumentID>
         <xmpMM:History>
            <rdf:Seq>
               <rdf:li>
                  <rdf:Description>
                     <stEvt:action>saved</stEvt:action>
                     <stEvt:instanceID>xmp.iid:4e5fbfe7-3974-4378-8c2e-6418e7429230</stEvt:instanceID>
                     <stEvt:when>2021-05-17T14:25:34-07:00</stEvt:when>
                     <stEvt:softwareAgent>Adobe Bridge 2021 (Macintosh)</stEvt:softwareAgent>
                     <stEvt:changed>/metadata</stEvt:changed>
                  </rdf:Description>
               </rdf:li>
               <rdf:li>
                  <rdf:Description>
                     <stEvt:action>saved</stEvt:action>
                     <stEvt:instanceID>xmp.iid:6cb5f65d-bf3a-44d4-a08e-302107d00331</stEvt:instanceID>
                     <stEvt:when>2021-05-17T14:26:11-07:00</stEvt:when>
                     <stEvt:softwareAgent>Adobe Bridge 2021 (Macintosh)</stEvt:softwareAgent>
                     <stEvt:changed>/metadata</stEvt:changed>
                  </rdf:Description>
               </rdf:li>
            </rdf:Seq>
         </xmpMM:History>
      </rdf:Description>
   </rdf:RDF>
</x:xmpmeta>
                                                                                                    
                                                                                                    
                                                                                                    
                                                                                                    
                                                                                                    
                                                                                                    
                                                                                                    
                                                                                                    
                                                                                                    
                                                                                                    
                                                                                                    
                                                                                                    
                                                            
<?xpacket end="w"?></metadata>
<path d="M87.52,194.6h-23L60.4,204H55.3l18.18-41.22h5.1L96.76,204h-5.1Zm-1.92-4.44L76.06,168.5l-9.6,21.66Z"/><path d="M103,162.74h4.68l25.56,33.54V162.74h4.68V204h-4.68l-25.56-33.54V204H103Z"/><path d="M158,167.18H144.16v-4.44h32.4v4.44H162.7V204H158Z"/><path d="M213.07,182.18a13.18,13.18,0,0,1-4.59,4.62,16,16,0,0,1-6.6,2.22L212.38,204H207L196.6,189.14h-9.12V204H182.8V162.74h16.74a17.43,17.43,0,0,1,7.68,1.68,13.45,13.45,0,0,1,5.49,4.71,12.58,12.58,0,0,1,.36,13.05Zm-25.59,2.52H198.7a13.23,13.23,0,0,0,8.19-2.34,8.21,8.21,0,0,0,0-12.84,13.23,13.23,0,0,0-8.19-2.34H187.48Z"/><path d="M227.14,167.18v13.56h22.38v4.44H227.14v14.34H252V204H222.4V162.74H252v4.44Z"/><path d="M287.26,194.6h-23L260.14,204H255l18.18-41.22h5.1L296.5,204h-5.1Zm-1.92-4.44L275.8,168.5l-9.6,21.66Z"/><path d="M147.72,103.88l0,0a10.59,10.59,0,0,0,4.08,3.89l0,0h0c.29.15.57.3.86.43a70.42,70.42,0,0,0,5.32-10.36,57.34,57.34,0,0,0-10.35,6Z"/><path d="M200.48,88.24a47,47,0,0,1-3.65,10.2,44.24,44.24,0,0,1,8.94,3.87,62.23,62.23,0,0,0,6.16-14.74l.17-.59-5.41.58Z"/><path d="M193.75,103.38c-5.28,7-13.77,11.55-26.17,12.2q-2.37.12-4.53.09a30.94,30.94,0,0,0,13,2.34c12.05-.63,19.55-4.21,24.86-9.51.48-.48.94-1,1.39-1.5h0A34.54,34.54,0,0,0,193.75,103.38Z"/><path d="M202.67,74.29c-.26,2.74-.58,5.46-1,8.1l4.72-.51,7.3-.8c1-4,1.92-8.2,2.94-12.37-4.46.77-9.05,1.4-13.64,2C202.88,71.93,202.79,73.12,202.67,74.29Z"/><path d="M197.66,65.77c.24-3.74.45-7.54.73-11.32-3.61.46-7.23.86-10.8,1.28-.28,3.79-.58,7.6-1,11.35,0,.12,0,.24,0,.36l.32-.06C190.46,66.78,194.06,66.27,197.66,65.77Z"/><path d="M182.28,50.66c.33-4.49.68-8.95,1.14-13.32-3.75,1.13-7.49,2.16-11.13,3.25-.07,1.85-.13,3.72-.2,5.61s-.16,4.08-.25,6.14c2.16-.43,4.36-.81,6.58-1.14C179.7,51,181,50.83,182.28,50.66Z"/><path d="M197,74c.08-.82.14-1.66.21-2.49-3.27.46-6.51.94-9.68,1.47l-1.67.29a110.21,110.21,0,0,1-2.09,11.46c4-.67,8-1.22,12-1.7C196.34,80.18,196.73,77.16,197,74Z"/><path d="M194.46,89c-4.2.54-8.37,1.16-12.45,1.91a50.56,50.56,0,0,1-2.69,6.39,44.78,44.78,0,0,1,11.85-.05A37.29,37.29,0,0,0,194.46,89Z"/><path d="M181,66.79c.35-3.39.62-6.86.88-10.35-1,.13-1.93.25-2.89.4-2.56.38-5.05.83-7.43,1.35-.26,4.28-.6,8.58-1.13,12.9,3.33-1,6.81-1.86,10.38-2.58C180.85,67.94,180.92,67.37,181,66.79Z"/><path d="M165.75,59.7a39.5,39.5,0,0,0-9.3,4.08A45.22,45.22,0,0,1,157,76.93a51.19,51.19,0,0,1,7.36-3.71C165,68.75,165.45,64.22,165.75,59.7Z"/><path d="M150.71,81.75a49.1,49.1,0,0,0,.75-13.92c-4.15,4.41-6.62,10.61-6.62,20.39v1.7a30.86,30.86,0,0,1,6-8.16Z"/><path d="M148,97a70.84,70.84,0,0,1,12.68-6.26,99.68,99.68,0,0,0,2.67-10.84,38.36,38.36,0,0,0-4.85,2.78A24.39,24.39,0,0,0,148,97Z"/><path d="M168.53,109.82c9-.62,14.71-3.27,18.73-7.36a47.91,47.91,0,0,0-12.07,1.25A30.8,30.8,0,0,1,168.53,109.82Z"/><path d="M173.26,96.78a35.47,35.47,0,0,0,2.26-4.58,105.52,105.52,0,0,0-10.42,2.93,80.43,80.43,0,0,1-5.93,13.2C165.76,106.29,170,102.28,173.26,96.78Z"/><path d="M166.1,53.7q.18-3.72.31-7.41c.05-1.31.09-2.6.13-3.89l-1.57.53a60.29,60.29,0,0,0-14.31,6.88,45.2,45.2,0,0,1,4.21,8.41A48.52,48.52,0,0,1,166.1,53.7Z"/><path d="M150.12,61.51a34.81,34.81,0,0,0-3.94-8c-.47.46-.93.94-1.37,1.43-5,5.59-8.14,13.32-8.14,25.54a30.57,30.57,0,0,0,2.6,11.78c-.07-1.19-.1-2.43-.1-3.72C139.16,76,143.38,67.17,150.12,61.51Z"/><path d="M180,74.46a91.54,91.54,0,0,0-10.5,2.86c-.62,3.75-1.4,7.48-2.39,11.18,3.43-1,7-1.88,10.53-2.61A97.22,97.22,0,0,0,180,74.46Z"/><path d="M175,26.73a52.5,52.5,0,1,0,52.5,52.5A52.51,52.51,0,0,0,175,26.73ZM218.33,83l0,.39c-.14,1.36-.33,2.7-.58,4A43.51,43.51,0,1,1,189,38.05c-.42,3.89-.75,7.91-1.06,12,3.66-.44,7.32-.88,10.9-1.36.19-1.79.41-3.57.67-5.33v0c.91.63,1.8,1.29,2.67,2l.13.1c.85.69,1.67,1.41,2.47,2.16l.15.15a43,43,0,0,1,4.52,5l-.09,0c-1.74.35-3.51.65-5.28.94-.3,3.73-.54,7.54-.8,11.36,4.14-.59,8.2-1.18,12.13-1.86.25.62.48,1.25.7,1.88v0c.22.62.42,1.25.6,1.88l0,.11c.18.6.34,1.21.49,1.82l.06.25c.14.57.26,1.14.38,1.72,0,.15.05.31.08.46.09.52.19,1,.26,1.56,0,.24.06.48.1.72.05.45.11.9.16,1.35s.06.74.08,1.11.06.67.08,1c0,.72.05,1.44.05,2.16s0,1.43-.05,2.13S218.38,82.47,218.33,83Z"/></svg>