<svg xmlns="http://www.w3.org/2000/svg" viewBox="0 0 1000 317.42682"><defs><style>.cls-1{fill:#3784c5;}.cls-1,.cls-2{fill-rule:evenodd;}.cls-2{fill:#e87e5b;}</style></defs><g id="Layer_1" data-name="Layer 1"><path class="cls-1" d="M928.2482,205.121a27.98072,27.98072,0,0,0,38.97126,0q7.89912-7.90006,7.89993-19.83711,0-11.93747-7.89993-19.837a27.98334,27.98334,0,0,0-38.97126,0q-7.89994,7.8999-7.8991,19.837,0,11.93776,7.8991,19.83711m19.48608,26.33178a44.98687,44.98687,0,0,1-32.827-13.3417q-13.51771-13.34177-13.51761-32.82719,0-19.4848,13.51761-32.827a44.99034,44.99034,0,0,1,32.827-13.34191q19.485,0,32.91468,13.34191,13.42981,13.3416,13.4295,32.827,0,19.48731-13.4295,32.82719Q967.22039,231.45406,947.73428,231.45276ZM852.23661,139.115q15.09672,0,24.40171,9.65624,9.30327,9.65381,9.30442,26.507v53.89268H866.98229V177.20971q0-9.83179-5.26619-15.09814-5.26572-5.2654-14.39438-5.26608-10.007,0-16.15081,6.23189-6.14384,6.23221-6.14327,19.04669v47.0468h-18.959v-87.773h18.959v11.23417Q833.62927,139.11545,852.23661,139.115Zm-87.24595,17.029q7.19606-16.3271,27.03378-16.32652V160.3569a28.10818,28.10818,0,0,0-18.9596,5.17756q-8.07508,5.88261-8.07418,19.39893v44.23748H746.03178v-87.773h18.95888ZM658.60973,177.91118h51.61066q-1.93188-10.70819-8.86613-16.15009a25.534,25.534,0,0,0-16.23768-5.44179q-10.53254,0-17.55449,5.79227Q660.54031,167.90519,658.60973,177.91118Zm.17507,15.44851q2.10565,10.00574,9.65489,15.36092,7.54782,5.35238,18.43177,5.35378,15.09752,0,22.64611-10.88483l15.6237,9.129q-12.99108,19.13538-38.445,19.13418-21.417,0-34.58277-13.07747-13.16582-13.07866-13.16581-33.09142,0-19.66079,12.99-32.91447,12.99184-13.25432,33.35461-13.25442,19.31056,0,31.68609,13.5171,12.37655,13.51771,12.3762,32.82718a58.70693,58.70693,0,0,1-.7023,7.90043Zm-44.06207-51.96178h20.71469l-34.23232,87.773H579.26181l-34.23126-87.773h20.71521l24.57607,66.91227Zm-91.63559,0h20.18758L509.56963,231.98q-12.63912,34.05676-42.83368,32.29976V246.5509q8.9535.5257,14.39521-3.77472,5.44167-4.3011,8.95236-13.43l.87823-1.75571-37.21569-86.19254h20.7147L500.64614,205.121Zm-62.31887,87.773h-24.0502L388.26729,170.626v58.54489H368.07971V106.288h20.18758v55.151l46.695-55.151h24.0499l-49.67927,59.86169Z"/><path class="cls-2" d="M54.91086,97.67789,39.29537,166.0913H55.36316l13.10033-57.39236c-2.47755-2.51412-5.01733-4.92652-7.64045-7.16892a7.16744,7.16744,0,0,1-1.73244-2.19337c-1.35161-.5188-2.75591-1.07481-4.17974-1.65876m97.98946-61.83737L72.51771,74.55079c1.02515,1.435,2.00592,2.85764,2.92923,4.224a7.16851,7.16851,0,0,1,2.5268,1.19544c2.58551,1.91105,5.29726,3.71788,8.08725,5.44969L153.00692,53.182c.37542-3.23212.64547-6.44854.758-9.631a7.18474,7.18474,0,0,1,.63757-2.72131C153.90021,39.236,153.39055,37.55913,152.90032,35.84052ZM261.55256,74.05911,182.18,35.83553c-.49085,1.72028-1,3.3991-1.5027,4.99417A7.18858,7.18858,0,0,1,181.315,43.551c.11233,3.1811.38258,6.39638.75831,9.62756l66.04,31.801c2.79893-1.769,5.518-3.61377,8.10544-5.56274a7.20037,7.20037,0,0,1,2.51755-1.21779C259.62353,76.859,260.56794,75.46548,261.55256,74.05911Zm34.24053,92.03219L279.95721,96.70449c-1.59715.67841-3.17414,1.31858-4.686,1.91417a7.20377,7.20377,0,0,1-1.71279,2.20749c-2.4602,2.14079-4.84485,4.43245-7.17193,6.81845l13.341,58.4467Z"/><path class="cls-1" d="M206.38173,123.85485l1.90616,2.354c.88487-7.52574,7.12789-14.74672,18.977-21.22051C239.61613,98.241,251.1511,92.254,260.55371,85.17513l1.24667,1.53771q11.02333-17.21721,17.124-21.67563c5.46517-3.32594,10.51565-2.35784,14.44228,2.02348,3.47016,4.75206,3.3674,9.89325-1.02265,14.54806q-5.63,5.04-24.763,12.24226l1.24511,1.538c-8.87788,7.72825-17.13325,17.76469-26.30269,28.44347-8.793,10.24467-17.15549,14.84887-24.70159,14.15093l1.90762,2.35431-7.41571,6.00455-6.55317-15.82184-5.03531-2.0853ZM114.995,140.56842l1.88528-2.36948c-7.5379.76434-15.9402-3.7664-24.82379-13.93418-9.26066-10.599-17.60259-20.56331-26.55-28.21218l1.233-1.54987Q47.54441,87.46737,41.86976,82.4772c-4.42891-4.61595-4.57688-9.75662-1.1491-14.5385,3.88818-4.41561,8.92931-5.42777,14.42492-2.15035q6.13792,4.40711,17.31083,21.52653l1.23337-1.54977c9.46526,6.996,21.05115,12.88327,33.46081,19.523,11.90582,6.36832,18.21128,13.53611,19.1615,21.05354l1.88611-2.37094,5.70031,4.53458-4.86615,2.01517-6.60855,15.95817Zm41.94041-30.31971h3.0296c-5.29144-5.42382-6.97607-14.8206-4.54964-28.10214,2.5297-13.84576,5.13485-26.57721,5.55193-38.34006h1.98108q-6.44418-19.403-6.07084-26.949c.85535-6.33986,4.78624-9.65708,10.66184-9.951,5.87654.29395,9.80764,3.61117,10.66331,9.951q.37094,7.54595-6.07137,26.949h1.98109c.41729,11.76285,3.02274,24.4943,5.55193,38.34006,2.42653,13.28154.74179,22.67832-4.54955,28.10214h3.0295v8.835l-10.7485-4.45135-10.46038,4.33176Z"/><polygon class="cls-2" points="167.396 121.099 184.29 128.097 201.188 135.093 208.183 151.991 214.025 166.091 183.42 166.091 182.061 162.811 179.546 156.734 173.47 154.22 167.396 151.703 161.322 154.22 155.246 156.734 152.731 162.811 151.372 166.091 120.767 166.091 126.609 151.991 133.604 135.093 150.502 128.097 167.396 121.099"/><path class="cls-1" d="M42.9427,226.0173a6.00585,6.00585,0,1,1-12.0117,0V183.54957a6.00682,6.00682,0,0,1,6.00611-6.00559H295.79173a6.00631,6.00631,0,0,1,6.0059,6.00559V226.0173a6.00575,6.00575,0,1,1-12.01149,0V189.55567H172.36938V226.0173a6.00575,6.00575,0,1,1-12.01149,0V189.55567H42.9427Z"/><path class="cls-2" d="M159.96845,289.06664a.796.796,0,0,0,.64443.32959H166.364l5.75091-.00083a.7911.7911,0,0,0,.62209-.30143l3.58623-4.49458,3.5855-4.4976a.80037.80037,0,0,0,.15274-.66936l-2.55683-11.20507a.78458.78458,0,0,0-.43214-.54957L166.71,262.68768a.79428.79428,0,0,0-.69171,0l-10.3625,4.99011a.79973.79973,0,0,0-.42975.54125l-2.5534,11.18471a.7978.7978,0,0,0,.14692.69887Zm-8.12777,16.60655a1.80937,1.80937,0,0,0,1.46466.74615h13.06l13.06-.00239a1.79827,1.79827,0,0,0,1.413-.68235l8.14336-10.20923,8.14191-10.21287a1.82444,1.82444,0,0,0,.3486-1.5213l-5.808-25.44587a1.78593,1.78593,0,0,0-.9813-1.24761l-23.53347-11.33381a1.80524,1.80524,0,0,0-1.56878,0l-23.53358,11.33381a1.8038,1.8038,0,0,0-.97579,1.22869L135.27268,283.726a1.80635,1.80635,0,0,0,.33281,1.58738Z"/><path class="cls-2" d="M29.75644,289.06664a.79379.79379,0,0,0,.64443.32959H36.152l5.75091-.00083a.79306.79306,0,0,0,.62209-.30143l3.58644-4.49458,3.58394-4.4976a.79988.79988,0,0,0,.15389-.66936l-2.558-11.20507a.78613.78613,0,0,0-.43132-.54957l-10.36332-4.99011a.79246.79246,0,0,0-.69088,0l-10.362,4.99011a.79628.79628,0,0,0-.43007.54125l-2.55309,11.18471a.79243.79243,0,0,0,.147.69887Zm-8.12757,16.60655a1.809,1.809,0,0,0,1.464.74615H36.152L49.213,306.417a1.80309,1.80309,0,0,0,1.41354-.68235l8.14274-10.20923,8.141-10.21287a1.81416,1.81416,0,0,0,.3486-1.5213l-5.807-25.44587a1.7838,1.7838,0,0,0-.98088-1.24761L36.93763,245.76391a1.80752,1.80752,0,0,0-1.56982,0l-23.534,11.33381a1.80962,1.80962,0,0,0-.976,1.22869L5.06077,283.726a1.79968,1.79968,0,0,0,.33292,1.58738Z"/><path class="cls-2" d="M288.61117,289.06664a.79364.79364,0,0,0,.64443.32959h5.75092l5.751-.00083a.793.793,0,0,0,.622-.30143l3.58645-4.49458,3.584-4.4976a.79591.79591,0,0,0,.15368-.66936l-2.55683-11.20507a.78473.78473,0,0,0-.43225-.54957l-10.3625-4.99011a.794.794,0,0,0-.69159,0l-10.3625,4.99011a.80159.80159,0,0,0-.42986.54125l-2.55339,11.18471a.79782.79782,0,0,0,.147.69887Zm-8.12788,16.60655a1.80947,1.80947,0,0,0,1.46426.74615h13.059l13.06094-.00239a1.80177,1.80177,0,0,0,1.41364-.68235l8.14285-10.20923,8.14086-10.21287a1.81353,1.81353,0,0,0,.34809-1.5213l-5.8064-25.44587a1.78641,1.78641,0,0,0-.98088-1.24761l-23.53389-11.33381a1.80752,1.80752,0,0,0-1.56982,0l-23.53358,11.33381a1.80812,1.80812,0,0,0-.97589,1.22869L263.91519,283.726a1.80033,1.80033,0,0,0,.333,1.58738Z"/></g></svg>