<svg id="Layer_1" data-name="Layer 1" xmlns="http://www.w3.org/2000/svg" viewBox="0 0 460 127.59609"><defs><style>.cls-1{fill:#009cdc;}.cls-2{fill:#fff;}.cls-3{fill:#717073;}</style></defs><path class="cls-1" d="M78.816,8.55525A58.37408,58.37408,0,0,0,63.96613,5.79141,136.77173,136.77173,0,0,1,26.312,78.03622,145.67628,145.67628,0,0,1,9.29172,92.75605a58.92626,58.92626,0,0,0,4.73,7.24275A160.04638,160.04638,0,0,0,38.27283,81.26052C54.04935,66.2326,72.24706,42.35074,78.816,8.55525Z"/><path class="cls-1" d="M98.57265,45.88559a126.04142,126.04142,0,0,0,7.919-18.23821A59.24213,59.24213,0,0,0,96.12871,17.587C88.06168,49.45028,69.2508,72.4313,52.83038,87.249a168.36358,168.36358,0,0,1-30.32212,21.7387,59.12129,59.12129,0,0,0,4.97967,3.84751A174.97159,174.97159,0,0,0,63.51871,88.91667,149.77457,149.77457,0,0,0,98.57265,45.88559Z"/><path class="cls-1" d="M93.58622,15.75859A58.6131,58.6131,0,0,0,80.63016,9.1704c-6.6987,34.1352-25.09522,58.26621-41.04958,73.46329a157.0295,157.0295,0,0,1-24.29765,18.96913A59.243,59.243,0,0,0,20.2307,106.924,164.16214,164.16214,0,0,0,50.88727,85.0958C67.16816,70.4039,85.84456,47.52717,93.58622,15.75859Z"/><path class="cls-1" d="M113.54162,49.01625c.85166-1.51776,1.65531-3.047,2.437-4.58136a58.61734,58.61734,0,0,0-6.66345-12.99526A130.60813,130.60813,0,0,1,102.01925,47.72a153.65908,153.65908,0,0,1-35.956,44.15819A180.493,180.493,0,0,1,31.342,115.27053q2.389,1.38762,4.914,2.55233A186.10578,186.10578,0,0,0,76.16457,92.72627C91.98807,79.72356,104.56331,65.01733,113.54162,49.01625Z"/><path class="cls-1" d="M63.06515,5.75828c-.77039-.03011-1.54125-.0588-2.31888-.0588A58.71459,58.71459,0,0,0,8.864,91.96264,144.79364,144.79364,0,0,0,25.67751,77.40871,135.89174,135.89174,0,0,0,63.06515,5.75828Z"/><path class="cls-1" d="M79.28123,96.51886a193.29075,193.29075,0,0,1-36.7925,23.75374,58.70542,58.70542,0,0,0,75.4704-69.1108c-.04746.085-.08919.17149-.13686.25645C108.54461,67.95321,95.57755,83.12741,79.28123,96.51886Z"/><path class="cls-2" d="M63.96613,5.79141c-.299-.01626-.60074-.02145-.901-.03313A135.89174,135.89174,0,0,1,25.67751,77.40871,144.79364,144.79364,0,0,1,8.864,91.96264c.14131.26533.28248.53046.42768.79341A145.67628,145.67628,0,0,0,26.312,78.03622,136.77173,136.77173,0,0,0,63.96613,5.79141Z"/><path class="cls-2" d="M80.63016,9.1704c-.59958-.21637-1.20585-.418-1.81417-.61515C72.24706,42.35074,54.04935,66.2326,38.27283,81.26052A160.04638,160.04638,0,0,1,14.02176,99.9988c.41265.541.83042,1.078,1.26117,1.604A157.0295,157.0295,0,0,0,39.58058,82.63369C55.53494,67.43661,73.93146,43.3056,80.63016,9.1704Z"/><path class="cls-2" d="M96.12871,17.587c-.83192-.6297-1.677-1.24273-2.54249-1.82845C85.84456,47.52717,67.16816,70.4039,50.88727,85.0958A164.16214,164.16214,0,0,1,20.2307,106.924q1.11194,1.061,2.27756,2.06365A168.36358,168.36358,0,0,0,52.83038,87.249C69.2508,72.4313,88.06168,49.45028,96.12871,17.587Z"/><path class="cls-2" d="M102.01925,47.72a130.60813,130.60813,0,0,0,7.29589-16.28041c-.88916-1.3042-1.835-2.566-2.82347-3.79225a126.04142,126.04142,0,0,1-7.919,18.23821A149.77457,149.77457,0,0,1,63.51871,88.91667,174.97159,174.97159,0,0,1,27.48793,112.8352q1.87454,1.29255,3.85406,2.43533a180.493,180.493,0,0,0,34.72126-23.3923A153.65908,153.65908,0,0,0,102.01925,47.72Z"/><path class="cls-2" d="M113.54162,49.01625c-8.97831,16.00108-21.55355,30.70731-37.377,43.71A186.10578,186.10578,0,0,1,36.256,117.82286a58.31485,58.31485,0,0,0,6.23278,2.44974,193.29075,193.29075,0,0,0,36.7925-23.75374c16.29632-13.39145,29.26338-28.56565,38.541-45.10061.04767-.085.0894-.17142.13686-.25645a58.247,58.247,0,0,0-1.98054-6.72691C115.19693,45.96925,114.39328,47.49849,113.54162,49.01625Z"/><path class="cls-3" d="M138.33576,65.31886c0-12.95675,10.87615-23.83289,23.63183-23.83289a23.30826,23.30826,0,0,1,16.58249,7.04933l-3.558,3.62465a18.00451,18.00451,0,0,0-13.02449-5.84075c-9.93638,0-18.32871,8.7278-18.32871,18.99966,0,10.3396,8.39233,19.06631,18.32871,19.06631a18.00033,18.00033,0,0,0,13.02449-5.84075l3.558,3.62574a23.589,23.589,0,0,1-16.58249,7.04934C149.21191,89.2195,138.33576,78.27669,138.33576,65.31886Z"/><path class="cls-3" d="M180.96833,65.31886c0-12.95675,10.87615-23.83289,23.63183-23.83289,12.82233,0,23.56407,10.87614,23.56407,23.83289,0,12.95783-10.74174,23.90064-23.56407,23.90064C191.84448,89.2195,180.96833,78.27669,180.96833,65.31886Zm41.89278,0c0-10.27186-8.32457-18.99966-18.261-18.99966s-18.32871,8.7278-18.32871,18.99966c0,10.3396,8.39232,19.06631,18.32871,19.06631S222.86111,75.65846,222.86111,65.31886Z"/><path class="cls-3" d="M235.95335,42.29133h5.23646l28.60056,37.52942V42.29133h5.23646V88.41414h-5.23646L241.18981,50.88472V88.41414h-5.23646Z"/><path class="cls-3" d="M297.85439,47.26006H282.34608V42.29133h36.25309v4.96873H303.09085V88.41414h-5.23646Z"/><path class="cls-3" d="M320.21207,65.31886c0-12.95675,10.87614-23.83289,23.63182-23.83289,12.82233,0,23.56407,10.87614,23.56407,23.83289,0,12.95783-10.74174,23.90064-23.56407,23.90064C331.08821,89.2195,320.21207,78.27669,320.21207,65.31886Zm41.89277,0c0-10.27186-8.32566-18.99966-18.261-18.99966-9.93638,0-18.3287,8.7278-18.3287,18.99966,0,10.3396,8.39232,19.06631,18.3287,19.06631C353.77918,84.38517,362.10484,75.65846,362.10484,65.31886Z"/><path class="cls-3" d="M374.66055,69.28008V42.29133H379.897V69.28008c0,8.8622,5.84075,15.17284,14.03091,15.17284,8.19126,0,14.032-6.31064,14.032-15.17284V42.29133h5.23646V69.28008c0,11.6815-7.98909,19.93942-19.26847,19.93942C382.64965,89.2195,374.66055,80.96158,374.66055,69.28008Z"/><path class="cls-3" d="M445.42161,71.36177l11.95032,17.05237h-5.97516L439.71526,71.83165h-12.218V88.41414h-5.23646V42.29133H440.9916c9.53315,0,16.98462,6.10956,16.98462,14.76961C457.97622,64.31243,452.73976,69.81771,445.42161,71.36177Zm-17.92439-4.49886h12.55461c7.51812,0,12.62127-3.62465,12.62127-9.802,0-6.17622-5.10315-9.80088-12.62127-9.80088H427.49722Z"/></svg>