<?xml version="1.0" encoding="utf-8"?>
<!-- Generator: Adobe Illustrator 21.1.0, SVG Export Plug-In . SVG Version: 6.00 Build 0)  -->
<svg version="1.1" id="Layer_1" xmlns="http://www.w3.org/2000/svg" xmlns:xlink="http://www.w3.org/1999/xlink" x="0px" y="0px"
	 viewBox="0 0 612 792" enable-background="new 0 0 612 792" xml:space="preserve">
<g>
	<path fill="#E75225" d="M306.641,294.44c41.491,0.009,75.547,33.636,75.495,74.545c-0.053,41.53-33.97,74.691-76.362,74.661
		c-41.445-0.029-74.954-33.692-74.925-75.268C230.877,327.723,265.004,294.432,306.641,294.44z M283.706,320.623
		c0.951,4.655,0.027,8.996-1.379,13.266c-0.974,2.957-2.32,5.804-3.124,8.801c-1.325,4.938-2.828,9.906-3.379,14.956
		c-0.793,7.263,2.078,13.66,6.991,20.021c-7.98-1.67-15.217-3.185-22.583-4.727c0.039,0.709-0.003,0.978,0.075,1.206
		c2.14,6.251,5.907,11.518,10.13,16.483c0.447,0.525,1.464,0.795,2.217,0.796c22.517,0.041,45.035,0.039,67.552,0.01
		c0.698-0.001,1.63-0.132,2.059-0.58c4.826-5.044,8.517-10.788,10.824-18.025c-8.271,1.61-16.101,3.134-23.907,4.654
		c1.577-3.072,3.377-5.774,4.412-8.743c3.54-10.155,2.072-19.974-3.008-29.234c-4.077-7.431-7.838-14.83-5.804-23.786
		c-4.306,4.227-5.959,9.608-7.009,15.154c-1.034,5.462-1.643,11.005-2.443,16.547c-0.114-0.167-0.261-0.291-0.284-0.435
		c-0.093-0.582-0.179-1.167-0.21-1.755c-0.486-9.077-2.27-17.824-6.034-26.177c-2.216-4.917-4.659-9.944-2.375-15.81
		c-1.546,0.81-2.943,1.616-3.944,2.766c-2.989,3.432-4.225,7.554-4.543,12.067c-0.272,3.856-0.644,7.73-1.363,11.521
		c-0.756,3.984-1.954,7.89-4.647,11.552C290.842,333.329,290.721,325.592,283.706,320.623z M341.764,398.28
		c-23.753,0-47.151,0-70.625,0c0,4.182,0,8.18,0,12.197c23.647,0,47.119,0,70.625,0C341.764,406.321,341.764,402.382,341.764,398.28
		z M285.143,416.777c-0.058,10.156,10.347,17.723,23.208,17.174c10.658-0.455,20.091-8.791,19.28-17.174
		C313.528,416.777,299.412,416.777,285.143,416.777z"/>
</g>
</svg>
