<?xml version="1.0" encoding="UTF-8"?>
<svg xmlns="http://www.w3.org/2000/svg" viewBox="0 0 1920 1450">
  <defs>
    <style>
      .cls-1 {
        isolation: isolate;
      }

      .cls-2 {
        fill: #fff;
      }

      .cls-3 {
        fill: #696566;
      }

      .cls-4 {
        fill: #239de0;
      }
    </style>
  </defs>
  <rect class="cls-2" width="1920" height="1450"/>
  <g id="Layer_1" data-name="Layer 1">
    <g>
      <g id="path14">
        <path class="cls-4" d="M1272.15,731.25c-27.25,0-40.32,10.37-55.45,22.37-16.42,13.05-35.05,27.82-71.04,27.82s-54.62-14.77-71.04-27.82c-15.12-12.01-28.19-22.37-55.43-22.37s-40.32,10.37-55.44,22.37c-16.43,13.05-35.05,27.82-71.04,27.82s-54.61-14.77-71.04-27.82c-15.13-12.01-28.19-22.37-55.43-22.37s-40.3,10.37-55.43,22.37c-11.7,10.29-25.29,18.21-40.01,23.3,70.55,62.19,159.28,99.96,253.01,107.71,2.62.22,5.26.42,7.89.6,9.44.61,18.93,1.03,28.53,1.03s19.09-.42,28.53-1.03c2.64-.18,5.27-.39,7.9-.6,114.59-9.55,220.84-63.76,295.82-150.93-6.64-1.68-13.47-2.5-20.32-2.45"/>
      </g>
      <g id="path16">
        <path class="cls-4" d="M639.76,403.81c29.63,0,44.23-11.59,59.69-23.86,16.31-12.95,33.17-26.34,66.78-26.34s50.47,13.39,66.78,26.34c15.46,12.28,30.06,23.86,59.69,23.86s44.23-11.59,59.69-23.86c16.31-12.95,33.18-26.34,66.79-26.34s50.47,13.39,66.78,26.34c15.46,12.28,30.06,23.86,59.69,23.86s44.24-11.59,59.7-23.86c16.31-12.95,33.18-26.34,66.8-26.34s50.48,13.39,66.8,26.34c15.16,12.04,29.59,23.35,58.1,23.78-3.91-39.38-13.18-78.04-27.54-114.91-13.33-4.82-25.63-12.12-36.24-21.51-15.79-12.53-30.69-24.36-61.12-24.36s-45.34,11.83-61.12,24.36c-16.01,12.71-32.56,25.84-65.38,25.84s-49.36-13.14-65.37-25.84c-15.78-12.53-30.68-24.36-61.1-24.36s-45.34,11.83-61.11,24.36c-16.01,12.71-32.56,25.84-65.37,25.84s-49.36-13.14-65.36-25.84c-15.78-12.53-30.68-24.36-61.11-24.36s-45.33,11.83-61.1,24.36c-16.01,12.7-32.56,25.84-65.37,25.84s-49.36-13.14-65.37-25.84c-3.55-2.82-7.07-5.58-10.72-8.2-14.59,30.64-25.55,62.88-32.65,96.06,22.28,3.78,35.92,14.36,49.04,24.78,15.46,12.28,30.06,23.86,59.69,23.86"/>
      </g>
      <g id="path18">
        <path class="cls-4" d="M639.76,286.29c30.42,0,45.33-11.83,61.11-24.36,16.01-12.7,32.55-25.84,65.36-25.84s49.36,13.14,65.36,25.84c15.78,12.52,30.68,24.36,61.11,24.36s45.33-11.83,61.11-24.36c16.01-12.7,32.55-25.84,65.37-25.84s49.35,13.14,65.36,25.84c15.78,12.52,30.69,24.36,61.11,24.36s45.33-11.83,61.11-24.36c16.01-12.7,32.56-25.84,65.38-25.84s49.37,13.14,65.37,25.84c8.61,7.45,18.24,13.62,28.61,18.33C1274,56.1,1017.6-50.93,793.43,41.21c-98.81,40.61-179.41,115.87-226.69,211.66,4.14,2.92,8.04,6,11.89,9.06,15.78,12.52,30.69,24.36,61.11,24.36"/>
      </g>
      <g id="path20">
        <path class="cls-4" d="M1272.15,609.17c-28.05,0-41.41,10.61-56.86,22.88-16.14,12.81-34.43,27.33-69.63,27.33s-53.49-14.52-69.62-27.33c-15.47-12.27-28.82-22.88-56.85-22.88s-41.39,10.61-56.86,22.88c-16.14,12.81-34.42,27.33-69.62,27.33s-53.49-14.52-69.62-27.33c-15.46-12.27-28.81-22.88-56.85-22.88s-41.39,10.61-56.85,22.88c-16.14,12.81-34.42,27.33-69.62,27.33s-53.49-14.52-69.62-27.33c-4.09-3.25-8.05-6.36-12.16-9.2,21.72,49.54,52.38,94.65,90.44,133.09,21.51-1.98,33.36-11.31,46.78-21.96,16.43-13.04,35.05-27.82,71.04-27.82s54.61,14.78,71.04,27.82c15.13,12.01,28.19,22.37,55.43,22.37s40.31-10.37,55.44-22.37c16.42-13.04,35.05-27.82,71.04-27.82s54.61,14.78,71.03,27.82c15.13,12.01,28.2,22.37,55.44,22.37s40.31-10.37,55.43-22.37c16.43-13.04,35.06-27.82,71.06-27.82,12.75-.18,25.41,2.1,37.29,6.73,15.68-20.59,29.51-42.52,41.33-65.53-7.64-4.52-14.92-9.64-21.77-15.3-15.45-12.27-28.82-22.88-56.85-22.88"/>
      </g>
      <g id="path22">
        <path class="cls-4" d="M1397.91,415.14c-33.05-.23-49.88-13.42-66.06-26.26-15.45-12.27-30.07-23.86-59.7-23.86s-44.24,11.59-59.7,23.86c-16.31,12.95-33.18,26.34-66.79,26.34s-50.48-13.39-66.79-26.34c-15.46-12.27-30.06-23.86-59.68-23.86s-44.24,11.59-59.69,23.86c-16.32,12.95-33.18,26.34-66.79,26.34s-50.47-13.39-66.78-26.34c-15.46-12.27-30.06-23.86-59.69-23.86s-44.23,11.59-59.69,23.86c-16.31,12.95-33.17,26.34-66.78,26.34s-50.48-13.39-66.78-26.34c-12.46-9.89-24.5-19.23-44.15-22.52-3.96,21.12-6.35,42.5-7.17,63.97-.22,5.63-.43,11.26-.43,16.94s.22,11.31.43,16.95c.09,2.45.14,4.92.27,7.36,28.79,2.2,45.13,14.92,59.56,26.38,15.14,12.01,29.44,23.36,58.27,23.36s43.13-11.35,58.27-23.36c15.85-12.58,33.8-26.83,68.2-26.83s52.36,14.25,68.2,26.83c15.14,12.01,29.44,23.36,58.27,23.36s43.14-11.35,58.27-23.36c15.84-12.58,33.8-26.83,68.21-26.83s52.36,14.25,68.2,26.83c15.14,12.01,29.44,23.36,58.28,23.36s43.14-11.35,58.28-23.36c15.85-12.58,33.81-26.83,68.22-26.83s52.36,14.25,68.21,26.83c14.07,11.17,27.58,21.64,52.54,23.08,2.27-13.36,3.91-26.9,4.94-40.64.41-5.37.74-10.75.94-16.17v-33.92c-.2-5.43-.88-15.17-.88-15.17"/>
      </g>
      <g id="path24">
        <path class="cls-4" d="M1272.15,487.09c-28.85,0-43.15,11.35-58.28,23.37-15.85,12.58-33.81,26.83-68.21,26.83s-52.36-14.25-68.21-26.83c-15.14-12.02-29.44-23.37-58.27-23.37s-43.14,11.35-58.28,23.37c-15.84,12.58-33.8,26.83-68.2,26.83s-52.36-14.25-68.2-26.83c-15.14-12.02-29.44-23.37-58.27-23.37s-43.13,11.35-58.27,23.37c-15.84,12.58-33.8,26.83-68.2,26.83s-52.36-14.25-68.21-26.83c-13.3-10.56-25.97-20.59-48.4-22.87,3.31,36.27,11.15,71.99,23.35,106.3,13.34,5.16,25.66,12.63,36.41,22.06,15.46,12.28,28.81,22.88,56.85,22.88s41.39-10.6,56.85-22.88c16.14-12.81,34.42-27.32,69.62-27.32s53.49,14.52,69.62,27.32c15.46,12.28,28.81,22.88,56.85,22.88s41.39-10.6,56.85-22.88c16.14-12.81,34.43-27.32,69.63-27.32s53.49,14.52,69.62,27.32c15.46,12.28,28.81,22.88,56.86,22.88s41.39-10.6,56.85-22.88c16.14-12.81,34.43-27.32,69.64-27.32s53.49,14.52,69.63,27.32c5.68,4.72,11.67,9.04,17.94,12.93,13.49-29.46,23.64-60.33,30.27-92.05-28.78-2.19-45.13-14.92-59.57-26.38-15.14-12.02-29.43-23.37-58.27-23.37"/>
      </g>
      <g id="path26">
        <path class="cls-2" d="M1201.09,733.97c-15.12,12.01-28.19,22.37-55.43,22.37s-40.31-10.37-55.44-22.37c-16.42-13.04-35.04-27.82-71.03-27.82s-54.62,14.78-71.04,27.82c-15.13,12.01-28.2,22.37-55.44,22.37s-40.31-10.37-55.43-22.37c-16.43-13.04-35.04-27.82-71.04-27.82s-54.61,14.78-71.04,27.82c-13.42,10.65-25.27,19.98-46.78,21.96,7.2,7.27,14.69,14.24,22.37,21,14.73-5.09,28.32-13,40.01-23.3,15.13-12.01,28.19-22.37,55.43-22.37s40.31,10.37,55.43,22.37c16.43,13.05,35.04,27.82,71.04,27.82s54.61-14.77,71.04-27.82c15.12-12.01,28.19-22.37,55.44-22.37s40.31,10.37,55.43,22.37c16.43,13.05,35.05,27.82,71.04,27.82s54.62-14.77,71.04-27.82c15.13-12.01,28.2-22.37,55.45-22.37,6.85-.05,13.68.77,20.32,2.45,5.85-6.77,11.53-13.7,16.97-20.82-11.88-4.63-24.54-6.91-37.29-6.73-36,0-54.63,14.78-71.06,27.82"/>
      </g>
      <g id="path28">
        <path class="cls-2" d="M1272.15,588.63c-35.2,0-53.5,14.52-69.64,27.32-15.46,12.28-28.82,22.88-56.85,22.88s-41.39-10.6-56.86-22.88c-16.13-12.81-34.42-27.32-69.62-27.32s-53.5,14.52-69.63,27.32c-15.46,12.28-28.81,22.88-56.85,22.88s-41.39-10.6-56.85-22.88c-16.14-12.81-34.42-27.32-69.62-27.32s-53.48,14.52-69.62,27.32c-15.46,12.28-28.81,22.88-56.85,22.88s-41.39-10.6-56.85-22.88c-10.75-9.44-23.07-16.91-36.41-22.06,3.49,9.82,7.31,19.47,11.47,28.95,4.11,2.84,8.07,5.95,12.16,9.2,16.14,12.81,34.42,27.33,69.62,27.33s53.48-14.52,69.62-27.33c15.46-12.27,28.81-22.88,56.85-22.88s41.39,10.61,56.85,22.88c16.14,12.81,34.42,27.33,69.62,27.33s53.49-14.52,69.62-27.33c15.47-12.27,28.82-22.88,56.86-22.88s41.38,10.61,56.85,22.88c16.14,12.81,34.42,27.33,69.62,27.33s53.49-14.52,69.63-27.33c15.45-12.27,28.82-22.88,56.86-22.88s41.4,10.61,56.85,22.88c6.84,5.66,14.12,10.78,21.77,15.3,3.13-6.07,6.11-12.22,8.96-18.45-6.27-3.89-12.27-8.21-17.94-12.93-16.14-12.81-34.43-27.32-69.63-27.32"/>
      </g>
      <g id="path30">
        <path class="cls-2" d="M1272.15,471.12c-34.41,0-52.37,14.25-68.22,26.83-15.14,12.01-29.44,23.36-58.28,23.36s-43.13-11.35-58.28-23.36c-15.84-12.58-33.8-26.83-68.2-26.83s-52.37,14.25-68.21,26.83c-15.14,12.01-29.44,23.36-58.27,23.36s-43.13-11.35-58.27-23.36c-15.84-12.58-33.8-26.83-68.2-26.83s-52.36,14.25-68.2,26.83c-15.14,12.01-29.43,23.36-58.27,23.36s-43.14-11.35-58.27-23.36c-14.44-11.46-30.78-24.18-59.56-26.38.29,5.37.74,10.7,1.23,16.02,22.43,2.28,35.1,12.31,48.4,22.87,15.84,12.58,33.8,26.83,68.21,26.83s52.36-14.25,68.2-26.83c15.14-12.02,29.44-23.37,58.27-23.37s43.13,11.35,58.27,23.37c15.84,12.58,33.8,26.83,68.2,26.83s52.36-14.25,68.2-26.83c15.14-12.02,29.45-23.37,58.28-23.37s43.13,11.35,58.27,23.37c15.85,12.58,33.8,26.83,68.21,26.83s52.36-14.25,68.21-26.83c15.14-12.02,29.43-23.37,58.28-23.37s43.14,11.35,58.27,23.37c14.44,11.46,30.79,24.18,59.57,26.38,1.1-5.23,2.01-10.51,2.9-15.81-24.96-1.44-38.46-11.91-52.54-23.08-15.85-12.58-33.8-26.83-68.21-26.83"/>
      </g>
      <g id="path32">
        <path class="cls-2" d="M639.76,415.22c33.61,0,50.48-13.39,66.78-26.34,15.46-12.27,30.06-23.86,59.69-23.86s44.23,11.59,59.69,23.86c16.31,12.95,33.18,26.34,66.78,26.34s50.47-13.39,66.79-26.34c15.46-12.27,30.06-23.86,59.69-23.86s44.22,11.59,59.68,23.86c16.32,12.95,33.18,26.34,66.79,26.34s50.48-13.39,66.79-26.34c15.46-12.27,30.07-23.86,59.7-23.86s44.24,11.59,59.7,23.86c16.18,12.84,33,26.07,66.06,26.29l-.07-1.05c-.26-3.47-.45-6.96-.79-10.4-28.51-.43-42.94-11.75-58.1-23.78-16.31-12.95-33.19-26.34-66.8-26.34s-50.49,13.39-66.8,26.34c-15.46,12.28-30.06,23.86-59.7,23.86s-44.24-11.59-59.69-23.86c-16.31-12.95-33.18-26.34-66.78-26.34s-50.48,13.39-66.79,26.34c-15.46,12.28-30.06,23.86-59.69,23.86s-44.23-11.59-59.69-23.86c-16.31-12.95-33.18-26.34-66.78-26.34s-50.47,13.39-66.78,26.34c-15.46,12.28-30.06,23.86-59.69,23.86s-44.23-11.59-59.69-23.86c-13.12-10.42-26.77-21-49.04-24.78-.79,3.71-1.5,7.45-2.2,11.2,19.65,3.3,31.69,12.63,44.15,22.52,16.31,12.95,33.17,26.34,66.78,26.34"/>
      </g>
      <g id="path34">
        <path class="cls-2" d="M639.76,293.14c32.81,0,49.36-13.14,65.37-25.84,15.78-12.53,30.68-24.36,61.1-24.36s45.33,11.83,61.11,24.36c16.01,12.7,32.55,25.84,65.36,25.84s49.36-13.13,65.37-25.84c15.78-12.53,30.69-24.36,61.11-24.36s45.33,11.83,61.1,24.36c16.01,12.7,32.56,25.84,65.37,25.84s49.36-13.13,65.38-25.84c15.78-12.53,30.69-24.36,61.12-24.36s45.33,11.83,61.12,24.36c10.61,9.39,22.91,16.69,36.24,21.51-1.11-2.86-2.22-5.72-3.38-8.55-10.36-4.71-20-10.88-28.61-18.33-16-12.7-32.56-25.84-65.37-25.84s-49.37,13.14-65.38,25.84c-15.78,12.52-30.69,24.36-61.11,24.36s-45.33-11.83-61.11-24.36c-16.01-12.7-32.55-25.84-65.36-25.84s-49.36,13.14-65.37,25.84c-15.78,12.52-30.69,24.36-61.11,24.36s-45.33-11.83-61.11-24.36c-16.01-12.7-32.55-25.84-65.36-25.84s-49.36,13.14-65.36,25.84c-15.78,12.52-30.68,24.36-61.11,24.36s-45.33-11.83-61.11-24.36c-3.85-3.06-7.75-6.14-11.89-9.06-1.03,2.08-2.08,4.14-3.08,6.23,3.64,2.62,7.17,5.38,10.72,8.2,16.01,12.7,32.55,25.84,65.37,25.84"/>
      </g>
      <g id="g36">
        <g id="text40" class="cls-1">
          <g class="cls-1">
            <path class="cls-3" d="M356.69,1091.15l-152.02,344.69h-42.64L10,1091.15h42.65l130.95,296.53,130.45-296.53h42.65Z"/>
          </g>
          <g class="cls-1">
            <path class="cls-3" d="M436.95,1128.28v113.39h187.14v37.13h-187.14v119.92h207.72v37.13h-247.36v-344.69h247.36v37.13h-207.72Z"/>
          </g>
          <g class="cls-1">
            <path class="cls-3" d="M918.61,1398.71v37.13h-227.29v-344.69h39.14v307.56h188.15Z"/>
          </g>
          <g class="cls-1">
            <path class="cls-3" d="M999.88,1128.28v113.39h187.15v37.13h-187.15v119.92h207.72v37.13h-247.36v-344.69h247.36v37.13h-207.72Z"/>
          </g>
          <g class="cls-1">
            <path class="cls-3" d="M1432.86,1308.4l89.31,127.44h-44.65l-87.3-123.92h-91.32v123.92h-39.14v-344.69h139.98c71.25,0,126.94,45.66,126.94,110.38,0,54.19-39.14,95.33-93.82,106.87ZM1298.9,1274.78h93.82c56.19,0,94.32-27.09,94.32-73.25s-38.13-73.25-94.32-73.25h-93.82v146.5Z"/>
          </g>
          <g class="cls-1">
            <path class="cls-3" d="M1557.28,1263.24c0-96.83,81.28-178.11,176.61-178.11s176.11,81.28,176.11,178.11-80.28,178.61-176.11,178.61-176.61-81.78-176.61-178.61ZM1870.36,1263.24c0-76.76-62.21-141.99-136.47-141.99s-136.97,65.23-136.97,141.99,62.71,142.49,136.97,142.49,136.47-65.22,136.47-142.49h0Z"/>
          </g>
        </g>
      </g>
    </g>
  </g>
</svg>