<?xml version="1.0" encoding="utf-8"?>
<!-- Generator: Adobe Illustrator 21.1.0, SVG Export Plug-In . SVG Version: 6.00 Build 0)  -->
<svg version="1.1" id="Layer_1" xmlns="http://www.w3.org/2000/svg" xmlns:xlink="http://www.w3.org/1999/xlink" x="0px" y="0px"
	 viewBox="0 0 298 403" style="enable-background:new 0 0 298 403;" xml:space="preserve">
<style type="text/css">
	.st0{fill:#FFFFFF;}
	.st1{fill:#326CE5;}
	.st2{fill:#326DE5;}
	.st3{fill:none;}
</style>
<g>
	<g>
		<path class="st0" d="M122.3,334.9c-0.3-0.4-0.8-0.8-1.3-1c-0.5-0.3-1.1-0.4-1.9-0.4c-0.7,0-1.4,0.1-1.9,0.4c-0.5,0.2-1,0.6-1.3,1
			c-0.4,0.4-0.6,0.9-0.8,1.5c-0.2,0.5-0.3,1.1-0.4,1.6h8.8c0-0.6-0.1-1.1-0.3-1.6C122.9,335.8,122.7,335.3,122.3,334.9z"/>
		<path class="st0" d="M92.3,333.7c-0.7,0-1.4,0.1-2,0.3c-0.7,0.2-1.2,0.4-1.6,0.7v12.1c0.3,0.1,0.7,0.1,1.2,0.2c0.5,0,1.1,0,1.6,0
			c1.8,0,3.2-0.6,4.1-1.9s1.4-2.9,1.4-4.9C97,335.9,95.5,333.7,92.3,333.7z"/>
		<path class="st0" d="M193.4,334.9c-0.3-0.4-0.8-0.8-1.3-1c-0.5-0.3-1.1-0.4-1.9-0.4c-0.7,0-1.4,0.1-1.9,0.4c-0.5,0.2-1,0.6-1.3,1
			c-0.4,0.4-0.6,0.9-0.8,1.5c-0.2,0.5-0.3,1.1-0.4,1.6h8.8c0-0.6-0.1-1.1-0.3-1.6C194,335.8,193.7,335.3,193.4,334.9z"/>
		<path class="st0" d="M238.2,334.9c-0.3-0.4-0.8-0.8-1.3-1c-0.5-0.3-1.1-0.4-1.9-0.4c-0.7,0-1.4,0.1-1.9,0.4c-0.5,0.2-1,0.6-1.3,1
			c-0.4,0.4-0.6,0.9-0.8,1.5c-0.2,0.5-0.3,1.1-0.4,1.6h8.8c0-0.6-0.1-1.1-0.3-1.6C238.9,335.8,238.6,335.3,238.2,334.9z"/>
		<path class="st0" d="M13,83.1v304.6h270.8V83.1H13z M102.7,300.7l-45.5-56.6c-0.3-0.3-0.5-0.7-0.7-1c-1.8-2.8-2.5-6.3-1.7-9.6
			L71,163c0.9-3.7,3.4-6.8,6.8-8.5l65.7-31.4c1.5-0.7,3.1-1.1,4.8-1.2c2.1-0.1,4.2,0.3,6.1,1.2l65.8,31.4c3.4,1.6,6,4.8,6.8,8.5
			l16.2,70.6c0.9,3.7,0,7.6-2.4,10.6l-45.5,56.6c-2.4,3-6,4.7-9.8,4.7l-73,0C108.7,305.4,105,303.7,102.7,300.7z M45.1,352
			c-0.5-0.8-1-1.6-1.6-2.5c-0.6-1-1.2-1.9-1.9-2.8c-0.7-1-1.4-1.9-2.2-2.7c-0.7-0.9-1.5-1.6-2.2-2.2V352h-6.6v-33.5l6.6-1.1v19.6
			c0.7-0.7,1.3-1.5,2-2.2c0.7-0.8,1.4-1.5,2-2.3c0.7-0.8,1.3-1.5,1.8-2.2c0.6-0.7,1.1-1.3,1.5-1.8h7.9c-1.6,1.8-3.1,3.5-4.6,5.2
			c-1.5,1.6-3.1,3.3-4.9,5.1c0.9,0.8,1.8,1.8,2.8,2.9c1,1.1,1.9,2.2,2.8,3.4c0.9,1.2,1.7,2.4,2.4,3.6c0.7,1.2,1.4,2.3,1.9,3.3H45.1z
			 M75.8,351.2c-1.1,0.3-2.6,0.6-4.4,0.9c-1.8,0.3-3.7,0.4-5.6,0.4c-2,0-3.7-0.3-5-0.8c-1.3-0.5-2.3-1.3-3.1-2.2
			c-0.8-1-1.3-2.1-1.6-3.5c-0.3-1.3-0.5-2.8-0.5-4.4v-13h6.6v12.2c0,2.1,0.3,3.7,0.8,4.6s1.6,1.4,3.2,1.4c0.5,0,1,0,1.5,0
			c0.5-0.1,1-0.1,1.4-0.2v-18.1h6.6V351.2z M103,345.4c-0.5,1.5-1.3,2.8-2.4,3.9c-1,1.1-2.3,1.9-3.8,2.5c-1.5,0.6-3.2,0.8-5.2,0.8
			c-0.8,0-1.6,0-2.5-0.1c-0.9-0.1-1.7-0.1-2.6-0.3c-0.8-0.1-1.6-0.3-2.4-0.4c-0.8-0.2-1.5-0.4-2-0.5v-32.7l6.6-1.1v11.7
			c0.7-0.3,1.5-0.6,2.3-0.8c0.8-0.2,1.7-0.3,2.6-0.3c1.7,0,3.1,0.3,4.4,0.9c1.3,0.6,2.3,1.4,3.2,2.4c0.9,1.1,1.5,2.4,2,3.9
			c0.4,1.5,0.7,3.1,0.7,5C103.8,342.2,103.5,343.9,103,345.4z M129.7,341.3c0,0.4-0.1,0.8-0.1,1.2h-15.1c0.1,1.4,0.8,2.4,1.9,3.3
			c1.1,0.8,2.6,1.2,4.5,1.2c1.2,0,2.4-0.1,3.6-0.3c1.2-0.2,2.2-0.5,2.9-0.8l0.9,5.4c-0.4,0.2-0.8,0.4-1.4,0.5
			c-0.6,0.2-1.3,0.3-2,0.4c-0.7,0.1-1.5,0.3-2.3,0.4c-0.8,0.1-1.7,0.1-2.5,0.1c-2.1,0-3.9-0.3-5.5-0.9c-1.5-0.6-2.8-1.5-3.9-2.5
			c-1-1.1-1.8-2.4-2.3-3.9c-0.5-1.5-0.7-3.1-0.7-4.8c0-2.1,0.3-3.9,0.9-5.4c0.7-1.6,1.5-2.9,2.5-3.9c1-1,2.2-1.8,3.6-2.4
			c1.4-0.5,2.8-0.8,4.2-0.8c3.3,0,6,1,7.9,3.1c1.9,2,2.9,5,2.9,9C129.8,340.4,129.8,340.8,129.7,341.3z M149,334.5
			c-0.6-0.1-1.3-0.3-2.1-0.4c-0.8-0.2-1.7-0.3-2.6-0.3c-0.4,0-0.9,0-1.5,0.1c-0.6,0.1-1,0.1-1.3,0.2V352h-6.6v-22.2
			c1.2-0.4,2.6-0.8,4.2-1.2c1.6-0.4,3.4-0.6,5.4-0.6c0.4,0,0.8,0,1.3,0.1c0.5,0,1,0.1,1.5,0.2c0.5,0.1,1,0.1,1.5,0.3
			c0.5,0.1,0.9,0.2,1.3,0.4L149,334.5z M173.9,352h-6.6v-12.4c0-2.1-0.3-3.7-0.8-4.5c-0.6-0.9-1.6-1.3-3.2-1.3c-0.5,0-1,0-1.5,0.1
			c-0.5,0-1,0.1-1.4,0.1V352h-6.6v-22.6c1.1-0.3,2.6-0.6,4.4-0.9c1.8-0.3,3.7-0.4,5.6-0.4c2,0,3.6,0.3,4.9,0.8
			c1.3,0.5,2.4,1.2,3.2,2.2c0.8,1,1.3,2.1,1.6,3.4c0.3,1.3,0.5,2.8,0.5,4.4V352z M200.8,341.3c0,0.4-0.1,0.8-0.1,1.2h-15.1
			c0.1,1.4,0.8,2.4,1.9,3.3c1.1,0.8,2.6,1.2,4.5,1.2c1.2,0,2.4-0.1,3.6-0.3c1.2-0.2,2.2-0.5,2.9-0.8l0.9,5.4
			c-0.4,0.2-0.8,0.4-1.4,0.5c-0.6,0.2-1.3,0.3-2,0.4c-0.7,0.1-1.5,0.3-2.3,0.4c-0.8,0.1-1.7,0.1-2.5,0.1c-2.1,0-3.9-0.3-5.5-0.9
			c-1.5-0.6-2.8-1.5-3.9-2.5c-1-1.1-1.8-2.4-2.3-3.9c-0.5-1.5-0.7-3.1-0.7-4.8c0-2.1,0.3-3.9,0.9-5.4c0.7-1.6,1.5-2.9,2.5-3.9
			c1-1,2.2-1.8,3.6-2.4c1.4-0.5,2.8-0.8,4.2-0.8c3.3,0,6,1,7.9,3.1c1.9,2,2.9,5,2.9,9C200.8,340.4,200.8,340.8,200.8,341.3z
			 M218.6,352.2c-1,0.2-2.2,0.4-3.6,0.4c-1.8,0-3.3-0.2-4.5-0.7c-1.2-0.5-2.1-1.2-2.9-2c-0.7-0.9-1.2-2-1.5-3.2
			c-0.3-1.2-0.4-2.6-0.4-4.1v-19.7l6.6-1.1v6.9h8v5.5h-8v8.2c0,1.4,0.2,2.5,0.7,3.3c0.5,0.8,1.5,1.2,3,1.2c0.7,0,1.4-0.1,2.2-0.2
			c0.8-0.1,1.5-0.3,2.1-0.6l0.9,5.2C220.5,351.7,219.6,352,218.6,352.2z M245.7,341.3c0,0.4-0.1,0.8-0.1,1.2h-15.1
			c0.1,1.4,0.8,2.4,1.9,3.3c1.1,0.8,2.6,1.2,4.5,1.2c1.2,0,2.4-0.1,3.6-0.3c1.2-0.2,2.2-0.5,2.9-0.8l0.9,5.4
			c-0.4,0.2-0.8,0.4-1.4,0.5c-0.6,0.2-1.3,0.3-2,0.4c-0.7,0.1-1.5,0.3-2.3,0.4s-1.7,0.1-2.5,0.1c-2.1,0-3.9-0.3-5.5-0.9
			c-1.5-0.6-2.8-1.5-3.9-2.5c-1-1.1-1.8-2.4-2.3-3.9c-0.5-1.5-0.7-3.1-0.7-4.8c0-2.1,0.3-3.9,0.9-5.4c0.7-1.6,1.5-2.9,2.5-3.9
			c1-1,2.2-1.8,3.6-2.4c1.4-0.5,2.8-0.8,4.2-0.8c3.3,0,6,1,7.9,3.1c1.9,2,2.9,5,2.9,9C245.7,340.4,245.7,340.8,245.7,341.3z
			 M264.9,350.9c-1.7,1.2-4.2,1.8-7.3,1.8c-2.1,0-3.8-0.2-5.2-0.5c-1.4-0.4-2.3-0.7-2.9-0.9l1.1-5.4c1.1,0.4,2.3,0.8,3.5,1.1
			c1.2,0.2,2.4,0.4,3.5,0.4c1.2,0,2.1-0.1,2.6-0.4s0.8-0.7,0.8-1.4c0-0.5-0.3-1-1-1.4c-0.7-0.4-1.6-0.9-3-1.4c-1-0.4-2-0.8-2.9-1.2
			c-0.8-0.4-1.5-0.9-2.1-1.5c-0.6-0.6-1.1-1.3-1.4-2.1c-0.3-0.8-0.5-1.8-0.5-2.9c0-2.2,0.8-3.9,2.4-5.2c1.6-1.3,3.9-1.9,6.7-1.9
			c1.4,0,2.8,0.1,4.1,0.4c1.3,0.2,2.3,0.5,3.1,0.8l-1.2,5.2c-0.8-0.3-1.6-0.5-2.5-0.7c-0.9-0.2-1.9-0.3-3-0.3
			c-2.1,0-3.1,0.6-3.1,1.7c0,0.3,0,0.5,0.1,0.7c0.1,0.2,0.3,0.4,0.5,0.6c0.3,0.2,0.6,0.4,1.1,0.6c0.5,0.2,1.1,0.4,1.8,0.7
			c1.5,0.5,2.7,1.1,3.6,1.6c1,0.5,1.7,1.1,2.2,1.7c0.6,0.6,1,1.3,1.2,2c0.2,0.7,0.4,1.6,0.4,2.6
			C267.5,347.9,266.6,349.7,264.9,350.9z"/>
		<path class="st1" d="M227.2,57.7c0.6,0,1.1,0,1.6-0.1c0.5,0,0.9-0.1,1.2-0.2V45.6c-0.4-0.3-0.9-0.5-1.6-0.7
			c-0.7-0.2-1.3-0.3-2-0.3c-3.1,0-4.6,2.1-4.6,6.3c0,2,0.5,3.6,1.4,4.9C224,57,225.4,57.7,227.2,57.7z"/>
		<path class="st1" d="M97.3,47.2c-0.2-0.5-0.4-1-0.7-1.4c-0.3-0.4-0.8-0.7-1.3-1c-0.5-0.3-1.1-0.4-1.9-0.4c-0.7,0-1.4,0.1-1.9,0.4
			c-0.5,0.2-1,0.6-1.3,1c-0.4,0.4-0.6,0.9-0.8,1.4c-0.2,0.5-0.3,1.1-0.4,1.6h8.6C97.5,48.3,97.4,47.7,97.3,47.2z"/>
		<path class="st1" d="M204.6,47.2c-0.2-0.5-0.4-1-0.7-1.4c-0.3-0.4-0.8-0.7-1.3-1c-0.5-0.3-1.1-0.4-1.9-0.4c-0.7,0-1.4,0.1-1.9,0.4
			c-0.5,0.2-1,0.6-1.3,1c-0.4,0.4-0.6,0.9-0.8,1.4c-0.2,0.5-0.3,1.1-0.4,1.6h8.6C204.8,48.3,204.7,47.7,204.6,47.2z"/>
		<path class="st0" d="M64.2,59.8c1,1.1,2.2,1.9,3.7,2.6c1.5,0.6,3.3,0.9,5.4,0.9c1.4,0,2.6-0.1,3.8-0.4c1.1-0.2,2.1-0.5,2.8-0.8
			l-0.9-5.3c-0.8,0.3-1.6,0.6-2.5,0.7c-0.9,0.1-1.8,0.2-2.5,0.2c-2.2,0-3.8-0.6-4.7-1.7c-0.9-1.1-1.3-2.7-1.3-4.8
			c0-2,0.5-3.5,1.4-4.7c0.9-1.2,2.4-1.8,4.3-1.8c0.9,0,1.7,0.1,2.5,0.3c0.7,0.2,1.4,0.4,2,0.6l1.4-5.2c-1-0.4-2-0.7-3-0.9
			c-1-0.2-2.1-0.3-3.4-0.3c-1.9,0-3.5,0.3-5,1c-1.5,0.6-2.7,1.5-3.7,2.6c-1,1.1-1.8,2.4-2.3,3.9c-0.5,1.5-0.8,3-0.8,4.7
			c0,1.7,0.2,3.3,0.7,4.8C62.5,57.4,63.2,58.7,64.2,59.8z"/>
		<path class="st0" d="M85.2,59.8c1,1.1,2.3,1.9,3.8,2.5c1.5,0.6,3.3,0.9,5.4,0.9c0.8,0,1.6,0,2.5-0.1c0.8-0.1,1.6-0.2,2.3-0.3
			c0.7-0.1,1.4-0.3,2-0.5c0.6-0.2,1.1-0.4,1.4-0.5l-0.9-5.3c-0.7,0.3-1.7,0.6-2.8,0.8c-1.2,0.2-2.3,0.3-3.5,0.3
			c-1.9,0-3.4-0.4-4.5-1.2c-1.1-0.8-1.7-1.9-1.9-3.2h14.8c0-0.4,0.1-0.8,0.1-1.2c0-0.5,0-0.9,0-1.2c0-3.9-0.9-6.8-2.8-8.8
			c-1.9-2-4.5-3-7.8-3c-1.4,0-2.8,0.3-4.1,0.8c-1.3,0.5-2.5,1.3-3.5,2.3c-1,1-1.8,2.3-2.5,3.8c-0.6,1.5-0.9,3.3-0.9,5.4
			c0,1.7,0.2,3.3,0.7,4.7C83.4,57.5,84.2,58.8,85.2,59.8z M89.3,47.2c0.2-0.5,0.5-1,0.8-1.4c0.4-0.4,0.8-0.7,1.3-1
			c0.5-0.2,1.2-0.4,1.9-0.4c0.8,0,1.4,0.1,1.9,0.4c0.5,0.3,0.9,0.6,1.3,1c0.3,0.4,0.6,0.9,0.7,1.4c0.2,0.5,0.3,1.1,0.3,1.6h-8.6
			C89,48.3,89.2,47.7,89.3,47.2z"/>
		<path class="st0" d="M115.5,45c0.3-0.1,0.7-0.2,1.3-0.2c0.6-0.1,1.1-0.1,1.5-0.1c0.9,0,1.8,0.1,2.5,0.2c0.8,0.2,1.5,0.3,2.1,0.5
			l1.1-5.4c-0.4-0.1-0.8-0.3-1.3-0.4c-0.5-0.1-1-0.2-1.5-0.3c-0.5-0.1-1-0.1-1.5-0.2c-0.5,0-0.9-0.1-1.3-0.1c-2,0-3.7,0.2-5.3,0.5
			c-1.6,0.4-3,0.8-4.1,1.2v21.8h6.5V45z"/>
		<path class="st0" d="M129.1,60.4c0.7,0.9,1.6,1.5,2.8,2c1.2,0.5,2.6,0.7,4.4,0.7c1.4,0,2.6-0.1,3.6-0.4c1-0.2,1.8-0.5,2.6-0.8
			l-0.9-5.1c-0.6,0.2-1.3,0.4-2,0.5c-0.7,0.1-1.5,0.2-2.2,0.2c-1.5,0-2.4-0.4-2.9-1.2c-0.5-0.8-0.7-1.9-0.7-3.3V45h7.8v-5.4h-7.8
			v-6.8l-6.5,1.1v19.4c0,1.5,0.1,2.8,0.4,4.1C127.9,58.5,128.4,59.6,129.1,60.4z"/>
		<rect x="146.9" y="39.6" class="st0" width="6.5" height="23.1"/>
		<path class="st0" d="M150.1,36.8c1.1,0,2-0.3,2.7-1c0.8-0.7,1.2-1.6,1.2-2.8c0-1.2-0.4-2.1-1.2-2.8c-0.8-0.7-1.7-1-2.7-1
			c-1.1,0-2,0.3-2.7,1c-0.8,0.7-1.2,1.6-1.2,2.8c0,1.2,0.4,2.1,1.2,2.8C148.2,36.5,149.1,36.8,150.1,36.8z"/>
		<path class="st0" d="M181.2,36.8c1.1,0,2-0.3,2.7-1c0.8-0.7,1.2-1.6,1.2-2.8c0-1.2-0.4-2.1-1.2-2.8c-0.8-0.7-1.7-1-2.7-1
			s-2,0.3-2.7,1c-0.8,0.7-1.2,1.6-1.2,2.8c0,1.2,0.4,2.1,1.2,2.8C179.2,36.5,180.1,36.8,181.2,36.8z"/>
		<rect x="177.9" y="39.6" class="st0" width="6.5" height="23.1"/>
		<path class="st0" d="M166.1,45h8.1v-5.4h-8.1v-1.1c0-0.6,0.1-1.2,0.2-1.7c0.1-0.5,0.4-1,0.7-1.4c0.3-0.4,0.7-0.7,1.3-0.9
			c0.5-0.2,1.2-0.3,2-0.3c0.6,0,1.2,0,1.7,0.1c0.6,0.1,1.1,0.2,1.6,0.4l1.1-5.1c-0.6-0.2-1.2-0.5-2-0.7c-0.8-0.2-1.8-0.3-3-0.3
			c-3.3,0-5.8,0.9-7.5,2.6c-1.7,1.8-2.5,4.1-2.5,7.1v24.3h6.5V45z"/>
		<path class="st0" d="M192.5,59.8c1,1.1,2.3,1.9,3.8,2.5c1.5,0.6,3.3,0.9,5.4,0.9c0.8,0,1.6,0,2.5-0.1c0.8-0.1,1.6-0.2,2.3-0.3
			c0.7-0.1,1.4-0.3,2-0.5c0.6-0.2,1.1-0.4,1.4-0.5l-0.9-5.3c-0.7,0.3-1.7,0.6-2.8,0.8c-1.2,0.2-2.3,0.3-3.5,0.3
			c-1.9,0-3.4-0.4-4.5-1.2c-1.1-0.8-1.7-1.9-1.9-3.2H211c0-0.4,0.1-0.8,0.1-1.2c0-0.5,0-0.9,0-1.2c0-3.9-1-6.8-2.8-8.8
			c-1.9-2-4.5-3-7.8-3c-1.4,0-2.8,0.3-4.1,0.8c-1.3,0.5-2.5,1.3-3.5,2.3c-1,1-1.8,2.3-2.5,3.8c-0.6,1.5-0.9,3.3-0.9,5.4
			c0,1.7,0.2,3.3,0.7,4.7C190.7,57.5,191.5,58.8,192.5,59.8z M196.6,47.2c0.2-0.5,0.5-1,0.8-1.4c0.4-0.4,0.8-0.7,1.3-1
			c0.5-0.2,1.2-0.4,1.9-0.4c0.8,0,1.4,0.1,1.9,0.4c0.5,0.3,0.9,0.6,1.3,1c0.3,0.4,0.6,0.9,0.7,1.4c0.2,0.5,0.3,1.1,0.3,1.6h-8.6
			C196.3,48.3,196.4,47.7,196.6,47.2z"/>
		<path class="st0" d="M218.3,60c1,1,2.3,1.8,3.8,2.4c1.5,0.6,3.2,0.8,5.1,0.8c0.8,0,1.6,0,2.5-0.1c0.9-0.1,1.7-0.2,2.5-0.3
			c0.8-0.1,1.6-0.3,2.4-0.4c0.8-0.2,1.4-0.3,2-0.5V28.6l-6.5,1.1v10.4c-0.7-0.3-1.5-0.6-2.2-0.7c-0.7-0.2-1.5-0.3-2.4-0.3
			c-1.6,0-3.1,0.3-4.4,0.8c-1.3,0.6-2.3,1.4-3.2,2.4c-0.9,1.1-1.5,2.3-2,3.8c-0.5,1.5-0.7,3.2-0.7,5.1c0,1.8,0.3,3.5,0.8,5
			C216.5,57.7,217.2,59,218.3,60z M226.4,44.6c0.7,0,1.3,0.1,2,0.3c0.7,0.2,1.2,0.4,1.6,0.7v11.9c-0.3,0.1-0.7,0.1-1.2,0.2
			c-0.5,0-1,0.1-1.6,0.1c-1.8,0-3.1-0.6-4-1.8c-0.9-1.2-1.4-2.8-1.4-4.9C221.8,46.7,223.3,44.6,226.4,44.6z"/>
		<path class="st1" d="M172.4,250.4c0,0,0.1,0,0.1-0.1C172.5,250.4,172.4,250.4,172.4,250.4z"/>
		<path class="st1" d="M177.6,246.1C177.6,246.1,177.6,246.1,177.6,246.1C177.6,246.1,177.6,246.1,177.6,246.1z"/>
		<path class="st1" d="M175.1,248.3C175.1,248.3,175.1,248.3,175.1,248.3C175.1,248.3,175.1,248.3,175.1,248.3z"/>
		<path class="st1" d="M180.9,242.3c2.8-3.5,4.9-7.4,6.4-11.6l-20.4-3.5l0,0l0,0c-0.3-0.1-0.5-0.1-0.8-0.1c-0.5,0-0.9,0.1-1.3,0.3
			c-1.7,0.8-2.4,2.8-1.7,4.5l0,0l0,0l7.9,19.2C174.8,248.9,178.2,245.9,180.9,242.3z"/>
		<path class="st1" d="M127,251.2l7.8-19l-0.1-0.1l0,0c0.3-0.7,0.4-1.4,0.2-2.1c-0.4-1.6-1.7-2.7-3.3-2.7c0,0,0,0,0,0
			c-0.2,0-0.4,0-0.6,0.1l0,0l0,0l-20.3,3.4c1.5,4.2,3.7,8.2,6.6,11.7C120,245.9,123.3,248.8,127,251.2z"/>
		<path class="st1" d="M120.4,187.8l16.9,12l0,0l0,0c0.6,0.4,1.3,0.7,2,0.7c1.8,0,3.4-1.4,3.4-3.3l0,0l0.1,0l1.2-20.6
			c-1.4,0.2-2.8,0.4-4.2,0.7C132.5,178.9,125.7,182.5,120.4,187.8z"/>
		<path class="st1" d="M166.7,180.2c-4-1.9-8.3-3.2-12.7-3.8l1.2,20.6l0,0l0,0c0,0.7,0.3,1.4,0.7,2c1.2,1.4,3.2,1.7,4.7,0.6l0,0
			l0.1,0l16.8-11.9C174.3,184.7,170.6,182.2,166.7,180.2z"/>
		<path class="st1" d="M167.2,211.2c-0.4,1.8,0.7,3.6,2.4,4.1l0,0l0,0.1l19.9,5.7c0.4-4.4,0.1-8.8-0.9-13.1c-1-4.4-2.7-8.5-5-12.3
			l-15.3,13.7l0,0l0,0C167.8,209.8,167.4,210.5,167.2,211.2z"/>
		<path class="st1" d="M158.1,256.7c1.4-0.3,2.7-0.7,4-1.1l-10-18H152l0,0c-0.3-0.6-0.9-1.1-1.5-1.5c-0.5-0.2-1-0.3-1.5-0.3
			c0,0-0.1,0-0.1,0c-1.2,0-2.3,0.7-2.9,1.8l0,0h0l-10,18C143.1,257.9,150.7,258.3,158.1,256.7z"/>
		<path class="st1" d="M179.9,243.7C179.9,243.7,179.9,243.6,179.9,243.7C179.9,243.6,179.9,243.7,179.9,243.7z"/>
		<path class="st1" d="M114.2,195.6c-2.3,3.8-4,7.8-4.9,12.1c-1,4.4-1.3,8.9-0.8,13.4l19.8-5.7l0-0.1l0,0c0.7-0.2,1.3-0.6,1.8-1.2
			c1.1-1.4,1-3.5-0.4-4.7l0,0l0-0.1L114.2,195.6z"/>
		<polygon class="st1" points="145.8,210.4 141.9,215.3 143.3,221.4 149,224.2 154.6,221.4 156,215.3 152.1,210.4 		"/>
		<path class="st1" d="M185.5,305.4c3.8,0,7.4-1.7,9.8-4.7l45.5-56.6c2.4-3,3.3-6.9,2.4-10.6L227,163c-0.9-3.7-3.4-6.8-6.8-8.5
			l-65.8-31.4c-1.9-0.9-4-1.3-6.1-1.2c-1.7,0.1-3.3,0.5-4.8,1.2l-65.7,31.4c-3.4,1.6-6,4.8-6.8,8.5l-16.2,70.6
			c-0.8,3.3-0.1,6.7,1.7,9.6c0.2,0.3,0.5,0.7,0.7,1l45.5,56.6c2.4,3,6,4.7,9.8,4.7L185.5,305.4z M122.3,262.6L122.3,262.6
			L122.3,262.6l0.7-1.7c-10.8-6.4-18.8-16.5-22.7-28.3l-1.7,0.3l0,0c-0.1,0-0.1-0.1-0.2-0.1c-0.5-0.3-1.3-0.8-2.1-0.7
			c-2.1,0.3-4.2,1.1-6.7,2l-0.1,0c-0.4,0.2-0.8,0.3-1.2,0.5c-0.8,0.3-1.5,0.6-2.4,0.9c-0.2,0.1-0.5,0.1-0.7,0.2
			c-0.1,0-0.2,0-0.3,0.1c0,0,0,0,0,0c0,0,0,0,0,0c0,0,0,0,0,0c0,0,0,0,0,0c-2.3,0.5-4.6-0.8-5.1-2.9c-0.5-2.1,1-4.3,3.4-4.8
			c0,0,0,0,0,0c0,0,0,0,0,0l0,0c0,0,0,0,0,0c0.1,0,0.2,0,0.3-0.1c0.3-0.1,0.5-0.1,0.7-0.2c0.9-0.2,1.7-0.2,2.5-0.2
			c0.4,0,0.8,0,1.3-0.1l0.1,0c2.7-0.3,5-0.5,7-1.1c0.6-0.2,1.1-0.9,1.5-1.5c0.1-0.1,0.1-0.1,0.2-0.2l0,0l0,0l1.6-0.5
			c-1.8-12.4,1.1-25,8-35.5l-1.2-1.1l0,0c0-0.1,0-0.1,0-0.2c-0.1-0.6-0.2-1.5-0.8-2.1c-1.5-1.5-3.5-2.7-5.8-4.1
			c-0.4-0.2-0.8-0.4-1.1-0.6c-0.7-0.4-1.4-0.7-2.1-1.3c-0.2-0.1-0.4-0.3-0.6-0.5c-0.1-0.1-0.2-0.1-0.2-0.2c0,0,0,0,0,0c0,0,0,0,0,0
			c-0.9-0.7-1.5-1.7-1.7-2.8c-0.2-1.1,0.1-2.2,0.7-3c0.7-0.9,1.8-1.4,3-1.4c0,0,0.1,0,0.1,0c1,0,2,0.4,2.8,1
			c0.1,0.1,0.2,0.1,0.2,0.2c0.2,0.2,0.5,0.4,0.6,0.5c0.7,0.6,1.2,1.2,1.7,1.8c0.3,0.3,0.5,0.6,0.8,0.9l0.1,0.1
			c1.9,1.9,3.5,3.5,5.2,4.7c0.8,0.5,1.4,0.4,2,0.3c0.1,0,0.2,0,0.3,0l0,0l0,0c0.2,0.2,1,0.7,1.4,1c6.9-7.4,15.8-12.4,25.7-14.7
			c2.3-0.5,4.7-0.9,7.1-1.1l0.1-1.6l0,0c0.5-0.5,1.1-1.2,1.3-2c0.2-2.1-0.1-4.4-0.4-7.1l0-0.1c-0.1-0.4-0.1-0.8-0.2-1.2
			c-0.2-0.8-0.3-1.6-0.3-2.5c0-0.2,0-0.4,0-0.7c0-0.1,0-0.2,0-0.3c0,0,0,0,0,0c0,0,0,0,0-0.1c0-2.4,1.8-4.4,4-4.4c2.2,0,4,2,4,4.4
			c0,0.1,0,0.2,0,0.4c0,0.3,0,0.5,0,0.7c0,0.9-0.2,1.7-0.3,2.5c-0.1,0.4-0.2,0.8-0.2,1.2l0,0.2c-0.3,2.6-0.6,4.9-0.4,6.9
			c0.1,0.9,0.6,1.3,1.1,1.7c0.1,0.1,0.1,0.1,0.2,0.2l0,0v0c0,0.3,0.1,1.2,0.1,1.7c6.2,0.6,12.2,2.2,17.8,5
			c5.6,2.7,10.6,6.3,14.8,10.8l1.5-1.1l0,0c0.1,0,0.1,0,0.2,0c0.6,0,1.5,0.1,2.2-0.3c1.7-1.2,3.3-2.8,5.2-4.7l0.1-0.1
			c0.3-0.3,0.6-0.6,0.8-0.9c0.5-0.6,1.1-1.2,1.8-1.8c0.2-0.1,0.4-0.3,0.6-0.5c0.1-0.1,0.2-0.1,0.2-0.2c1.9-1.5,4.6-1.4,5.9,0.4
			c1.4,1.7,0.9,4.3-1,5.8c-0.1,0.1-0.2,0.1-0.3,0.2c-0.2,0.2-0.4,0.3-0.6,0.5c-0.7,0.5-1.4,0.9-2.1,1.3c-0.4,0.2-0.7,0.4-1.1,0.6
			c-2.3,1.4-4.3,2.7-5.8,4.1c-0.6,0.7-0.7,1.3-0.7,1.9c0,0.1,0,0.2,0,0.3l0,0l0,0c-0.1,0.1-0.3,0.3-0.6,0.5
			c-0.3,0.2-0.6,0.5-0.8,0.7c3.5,5.2,6,10.9,7.4,17c1.4,6.1,1.7,12.2,0.8,18.4l1.6,0.5l0,0c0,0,0.1,0.1,0.1,0.2
			c0.3,0.5,0.8,1.3,1.6,1.5c2,0.6,4.3,0.9,7,1.1l0.1,0c0.4,0,0.9,0.1,1.3,0.1c0.8,0,1.6,0.1,2.5,0.2c0.2,0,0.5,0.1,0.7,0.2
			c0.2,0,0.3,0.1,0.4,0.1c2.3,0.6,3.8,2.7,3.4,4.8c-0.5,2.1-2.8,3.4-5.1,2.9c0,0,0,0,0,0c0,0,0,0,0,0c0,0,0,0,0,0c0,0,0,0,0,0
			c-0.1,0-0.2-0.1-0.4-0.1c-0.2,0-0.5-0.1-0.6-0.1c-0.9-0.2-1.6-0.5-2.3-0.9c-0.4-0.2-0.8-0.3-1.2-0.5l-0.1,0
			c-2.5-0.9-4.7-1.7-6.7-2c-0.1,0-0.2,0-0.2,0c-0.8,0-1.2,0.3-1.7,0.7c-0.1,0.1-0.2,0.1-0.2,0.2l0,0l0,0c-0.3-0.1-1.1-0.2-1.7-0.3
			c-1.9,5.9-4.8,11.4-8.7,16.3c-3.9,4.9-8.6,9-14,12.2c0.1,0.1,0.1,0.3,0.2,0.5c0.2,0.4,0.3,0.9,0.4,1l0,0l0,0
			c0,0.1-0.1,0.2-0.1,0.3c-0.2,0.6-0.5,1.2-0.2,2c0.8,2,2,4,3.5,6.2c0.2,0.4,0.5,0.7,0.7,1c0.5,0.7,0.9,1.3,1.4,2.1
			c0.1,0.2,0.2,0.5,0.4,0.7c0.1,0.1,0.1,0.2,0.2,0.3c1,2.2,0.3,4.7-1.7,5.6c-1,0.5-2.1,0.5-3.1,0.1c-1-0.4-1.9-1.2-2.4-2.3
			c0-0.1-0.1-0.2-0.1-0.3c-0.1-0.3-0.3-0.5-0.3-0.7c-0.4-0.8-0.6-1.6-0.8-2.4c-0.1-0.4-0.2-0.8-0.4-1.2l0-0.1
			c-0.9-2.5-1.6-4.7-2.7-6.5c-0.5-0.8-1.1-0.9-1.7-1.1c-0.1,0-0.2-0.1-0.3-0.1l0,0l0,0c-0.1-0.1-0.2-0.4-0.4-0.7
			c-0.2-0.3-0.3-0.6-0.4-0.8c-2.2,0.8-4.5,1.5-6.7,2c-9.9,2.2-20.1,1.5-29.6-2.1l-0.9,1.6l0,0c-0.6,0.2-1.3,0.3-1.7,0.8
			c-1,1.2-1.6,2.9-2.2,4.7c-0.3,0.8-0.5,1.6-0.8,2.3c-0.1,0.4-0.2,0.8-0.4,1.2c-0.2,0.8-0.4,1.5-0.8,2.4c-0.1,0.2-0.2,0.4-0.3,0.7
			c-0.1,0.1-0.1,0.2-0.2,0.3l0,0c0,0,0,0,0,0c-0.8,1.6-2.3,2.6-3.9,2.6c-0.5,0-1.1-0.1-1.6-0.4c-1.9-0.9-2.7-3.5-1.7-5.6
			c0.1-0.1,0.1-0.2,0.2-0.4c0.1-0.2,0.2-0.5,0.3-0.7c0.4-0.8,0.9-1.4,1.4-2.1c0.2-0.3,0.5-0.7,0.7-1c1.6-2.4,2.8-4.5,3.6-6.4
			C122.8,264.1,122.5,263.2,122.3,262.6z"/>
		<path class="st0" d="M119.1,271.2c-0.2,0.4-0.5,0.7-0.7,1c-0.5,0.7-0.9,1.3-1.4,2.1c-0.1,0.2-0.2,0.4-0.3,0.7
			c-0.1,0.1-0.1,0.3-0.2,0.4c-1,2.2-0.3,4.7,1.7,5.6c0.5,0.2,1,0.4,1.6,0.4c1.6,0,3.1-1,3.9-2.6c0,0,0,0,0,0l0,0
			c0-0.1,0.1-0.2,0.2-0.3c0.1-0.2,0.2-0.5,0.3-0.7c0.4-0.8,0.6-1.6,0.8-2.4c0.1-0.4,0.2-0.8,0.4-1.2c0.3-0.8,0.6-1.6,0.8-2.3
			c0.6-1.8,1.2-3.5,2.2-4.7c0.4-0.5,1-0.6,1.7-0.8l0,0l0.9-1.6c9.5,3.6,19.7,4.4,29.6,2.1c2.3-0.5,4.5-1.2,6.7-2
			c0.1,0.2,0.3,0.5,0.4,0.8c0.2,0.3,0.3,0.6,0.4,0.7l0,0l0,0c0.1,0,0.2,0.1,0.3,0.1c0.6,0.2,1.2,0.4,1.7,1.1c1.1,1.8,1.8,4,2.7,6.5
			l0,0.1c0.1,0.4,0.2,0.8,0.4,1.2c0.2,0.8,0.4,1.5,0.8,2.4c0.1,0.2,0.2,0.5,0.3,0.7c0,0.1,0.1,0.2,0.1,0.3c0.5,1.1,1.4,1.9,2.4,2.3
			c1,0.4,2.1,0.4,3.1-0.1c1.9-0.9,2.7-3.5,1.7-5.6c0-0.1-0.1-0.2-0.2-0.3c-0.1-0.3-0.2-0.5-0.4-0.7c-0.4-0.8-0.9-1.4-1.4-2.1
			c-0.2-0.3-0.5-0.7-0.7-1c-1.5-2.3-2.7-4.3-3.5-6.2c-0.3-0.9,0-1.5,0.2-2c0-0.1,0.1-0.2,0.1-0.3l0,0l0,0c-0.1-0.1-0.3-0.6-0.4-1
			c-0.1-0.2-0.1-0.4-0.2-0.5c5.4-3.2,10.1-7.3,14-12.2c3.9-4.9,6.8-10.4,8.7-16.3c0.5,0.1,1.4,0.2,1.7,0.3l0,0l0,0
			c0.1-0.1,0.2-0.1,0.2-0.2c0.5-0.3,0.9-0.7,1.7-0.7c0.1,0,0.1,0,0.2,0c2.1,0.3,4.2,1.1,6.7,2l0.1,0c0.4,0.2,0.8,0.3,1.2,0.5
			c0.8,0.3,1.5,0.6,2.3,0.9c0.2,0,0.4,0.1,0.6,0.1c0.1,0,0.3,0.1,0.4,0.1c0,0,0,0,0,0c0,0,0,0,0,0c0,0,0,0,0,0c0,0,0,0,0,0
			c2.3,0.5,4.6-0.8,5.1-2.9c0.5-2.1-1-4.3-3.4-4.8c-0.1,0-0.3-0.1-0.4-0.1c-0.3-0.1-0.5-0.1-0.7-0.2c-0.9-0.2-1.7-0.2-2.5-0.2
			c-0.4,0-0.8,0-1.3-0.1l-0.1,0c-2.7-0.3-5-0.5-7-1.1c-0.7-0.3-1.3-1.1-1.6-1.5c0-0.1-0.1-0.1-0.1-0.2l0,0l-1.6-0.5
			c0.8-6.1,0.6-12.3-0.8-18.4c-1.4-6.1-3.9-11.8-7.4-17c0.2-0.2,0.5-0.5,0.8-0.7c0.3-0.2,0.5-0.4,0.6-0.5l0,0l0,0c0-0.1,0-0.2,0-0.3
			c0-0.6,0.1-1.3,0.7-1.9c1.5-1.4,3.5-2.7,5.8-4.1c0.4-0.2,0.8-0.4,1.1-0.6c0.7-0.4,1.4-0.7,2.1-1.3c0.2-0.1,0.4-0.3,0.6-0.5
			c0.1-0.1,0.2-0.2,0.3-0.2c1.9-1.5,2.3-4.1,1-5.8c-1.4-1.7-4-1.9-5.9-0.4c-0.1,0.1-0.2,0.1-0.2,0.2c-0.2,0.2-0.5,0.4-0.6,0.5
			c-0.7,0.6-1.2,1.2-1.8,1.8c-0.3,0.3-0.5,0.6-0.8,0.9l-0.1,0.1c-1.9,1.9-3.4,3.5-5.2,4.7c-0.7,0.4-1.6,0.3-2.2,0.3
			c-0.1,0-0.1,0-0.2,0l0,0l-1.5,1.1c-4.3-4.5-9.3-8.1-14.8-10.8c-5.6-2.7-11.6-4.4-17.8-5c0-0.5-0.1-1.4-0.1-1.7v0l0,0
			c-0.1-0.1-0.1-0.1-0.2-0.2c-0.5-0.4-0.9-0.8-1.1-1.7c-0.2-2.1,0.1-4.3,0.4-6.9l0-0.2c0.1-0.4,0.1-0.8,0.2-1.2
			c0.2-0.8,0.3-1.6,0.3-2.5c0-0.2,0-0.5,0-0.7c0-0.1,0-0.3,0-0.4c0-2.4-1.8-4.4-4-4.4c-2.2,0-4,2-4,4.4c0,0,0,0,0,0.1c0,0,0,0,0,0
			c0,0.1,0,0.2,0,0.3c0,0.2,0,0.5,0,0.7c0,0.9,0.2,1.7,0.3,2.5c0.1,0.4,0.2,0.8,0.2,1.2l0,0.1c0.3,2.7,0.6,5,0.4,7.1
			c-0.2,0.8-0.8,1.5-1.3,2l0,0l-0.1,1.6c-2.4,0.2-4.8,0.6-7.1,1.1c-9.9,2.2-18.8,7.3-25.7,14.7c-0.4-0.3-1.2-0.8-1.4-1l0,0l0,0
			c-0.1,0-0.2,0-0.3,0c-0.6,0.1-1.2,0.2-2-0.3c-1.7-1.2-3.4-2.8-5.2-4.7l-0.1-0.1c-0.3-0.3-0.6-0.6-0.8-0.9c-0.5-0.6-1-1.2-1.7-1.8
			c-0.2-0.2-0.4-0.3-0.6-0.5c-0.1-0.1-0.2-0.1-0.2-0.2c-0.8-0.6-1.8-1-2.8-1c0,0-0.1,0-0.1,0c-1.2,0-2.3,0.5-3,1.4
			c-0.7,0.8-0.9,1.9-0.7,3c0.2,1.1,0.8,2.1,1.7,2.8c0,0,0,0,0,0c0,0,0,0,0,0c0.1,0.1,0.2,0.1,0.2,0.2c0.2,0.2,0.4,0.3,0.6,0.5
			c0.7,0.5,1.4,0.9,2.1,1.3c0.4,0.2,0.7,0.4,1.1,0.6c2.3,1.4,4.3,2.7,5.8,4.1c0.5,0.6,0.7,1.5,0.8,2.1c0,0.1,0,0.1,0,0.2l0,0
			l1.2,1.1c-7,10.5-9.8,23.1-8,35.5l-1.6,0.5l0,0l0,0c-0.1,0.1-0.1,0.1-0.2,0.2c-0.4,0.6-1,1.3-1.5,1.5c-2,0.6-4.3,0.9-7,1.1l-0.1,0
			c-0.4,0-0.9,0.1-1.3,0.1c-0.8,0-1.6,0.1-2.5,0.2c-0.2,0-0.5,0.1-0.7,0.2c-0.1,0-0.2,0.1-0.3,0.1c0,0,0,0,0,0l0,0c0,0,0,0,0,0
			c0,0,0,0,0,0c-2.3,0.6-3.8,2.7-3.4,4.8c0.5,2.1,2.8,3.4,5.1,2.9c0,0,0,0,0,0c0,0,0,0,0,0c0,0,0,0,0,0c0,0,0,0,0,0
			c0.1,0,0.2,0,0.3-0.1c0.3-0.1,0.5-0.1,0.7-0.2c0.9-0.2,1.6-0.5,2.4-0.9c0.4-0.2,0.8-0.3,1.2-0.5l0.1,0c2.5-0.9,4.7-1.7,6.7-2
			c0.8-0.1,1.6,0.4,2.1,0.7c0.1,0,0.1,0.1,0.2,0.1l0,0l1.7-0.3c3.8,11.9,11.9,21.9,22.7,28.3l-0.7,1.7l0,0l0,0
			c0.2,0.6,0.5,1.5,0.4,2.2C121.9,266.7,120.6,268.7,119.1,271.2z M129.6,209.4c1.4,1.2,1.6,3.3,0.4,4.7c-0.5,0.6-1.1,1-1.8,1.2l0,0
			l0,0.1l-19.8,5.7c-0.5-4.5-0.2-9,0.8-13.4c1-4.3,2.6-8.4,4.9-12.1L129.6,209.4L129.6,209.4L129.6,209.4z M131,227.4L131,227.4
			L131,227.4c0.3,0,0.5,0,0.7,0c0,0,0,0,0,0c1.6,0,2.9,1.1,3.3,2.7c0.2,0.7,0.1,1.4-0.2,2.1l0,0l0.1,0.1l-7.8,19
			c-3.7-2.4-7-5.3-9.7-8.7c-2.8-3.5-5-7.4-6.6-11.7L131,227.4z M160.6,199.7L160.6,199.7c-1.5,1.1-3.6,0.8-4.7-0.6
			c-0.5-0.6-0.7-1.3-0.7-2l0,0l0,0l-1.2-20.6c4.4,0.5,8.7,1.8,12.7,3.8c4,1.9,7.6,4.5,10.8,7.6L160.6,199.7L160.6,199.7z
			 M142.8,197.1L142.8,197.1L142.8,197.1c-0.2,1.9-1.7,3.4-3.5,3.4c-0.7,0-1.4-0.2-2-0.7l0,0l0,0l-16.9-12
			c5.4-5.3,12.1-8.9,19.5-10.6c1.3-0.3,2.7-0.5,4.2-0.7L142.8,197.1z M145.9,237.5L145.9,237.5L145.9,237.5c0.6-1.1,1.7-1.8,2.9-1.8
			c0,0,0.1,0,0.1,0c0.5,0,1,0.1,1.5,0.3c0.7,0.3,1.2,0.8,1.5,1.5l0,0h0.1l10,18c-1.3,0.4-2.6,0.8-4,1.1c-7.4,1.7-15,1.3-22.2-1.1
			L145.9,237.5z M154.6,221.4l-5.7,2.7l-5.7-2.7l-1.4-6.1l3.9-4.9h6.3l3.9,4.9L154.6,221.4z M163.1,232.1L163.1,232.1L163.1,232.1
			c-0.7-1.7,0-3.7,1.7-4.5c0.4-0.2,0.9-0.3,1.3-0.3c0.2,0,0.5,0,0.8,0.1l0,0l0,0l20.4,3.5c-1.5,4.2-3.7,8.1-6.4,11.6
			c-2.8,3.5-6.1,6.5-9.9,8.9L163.1,232.1z M179.9,243.6C179.9,243.6,179.9,243.7,179.9,243.6C179.9,243.7,179.9,243.6,179.9,243.6z
			 M168.3,209.3l15.3-13.7c2.3,3.8,4,8,5,12.3c1,4.3,1.3,8.8,0.9,13.1l-19.9-5.7l0-0.1l0,0c-1.8-0.5-2.9-2.3-2.4-4.1
			C167.4,210.5,167.8,209.8,168.3,209.3L168.3,209.3L168.3,209.3z M175.1,248.3C175.1,248.3,175.1,248.3,175.1,248.3
			C175.1,248.3,175.1,248.3,175.1,248.3z M172.5,250.3c0,0-0.1,0-0.1,0.1C172.4,250.4,172.5,250.4,172.5,250.3z M177.6,246.1
			C177.6,246.1,177.6,246.1,177.6,246.1C177.6,246.1,177.6,246.1,177.6,246.1z"/>
		<path class="st2" d="M48.4,345.2c-0.9-1.2-1.8-2.3-2.8-3.4c-1-1.1-1.9-2.1-2.8-2.9c1.8-1.8,3.4-3.4,4.9-5.1
			c1.5-1.7,3.1-3.4,4.6-5.2h-7.9c-0.4,0.5-0.9,1.1-1.5,1.8c-0.6,0.7-1.2,1.4-1.8,2.2c-0.7,0.7-1.3,1.5-2,2.3c-0.7,0.8-1.4,1.5-2,2.2
			v-19.6l-6.6,1.1V352h6.6v-10.2c0.7,0.6,1.5,1.3,2.2,2.2c0.8,0.9,1.5,1.8,2.2,2.7c0.7,0.9,1.3,1.9,1.9,2.8c0.6,0.9,1.2,1.8,1.6,2.5
			h7.6c-0.5-1-1.1-2.1-1.9-3.3C50.1,347.6,49.2,346.4,48.4,345.2z"/>
		<path class="st2" d="M69.1,346.7c-0.4,0.1-0.9,0.1-1.4,0.2c-0.5,0-1,0-1.5,0c-1.5,0-2.6-0.5-3.2-1.4s-0.8-2.5-0.8-4.6v-12.2h-6.6
			v13c0,1.6,0.2,3.1,0.5,4.4c0.3,1.3,0.9,2.5,1.6,3.5c0.8,1,1.8,1.7,3.1,2.2c1.3,0.5,3,0.8,5,0.8c2,0,3.8-0.1,5.6-0.4
			c1.8-0.3,3.2-0.6,4.4-0.9v-22.6h-6.6V346.7z"/>
		<path class="st2" d="M101.2,331.5c-0.9-1.1-1.9-1.9-3.2-2.4c-1.3-0.6-2.7-0.9-4.4-0.9c-0.9,0-1.8,0.1-2.6,0.3
			c-0.8,0.2-1.6,0.4-2.3,0.8v-11.7l-6.6,1.1v32.7c0.6,0.2,1.3,0.4,2,0.5c0.8,0.1,1.6,0.3,2.4,0.4c0.9,0.1,1.7,0.2,2.6,0.3
			c0.9,0.1,1.7,0.1,2.5,0.1c1.9,0,3.7-0.3,5.2-0.8c1.5-0.6,2.8-1.4,3.8-2.5c1-1.1,1.8-2.4,2.4-3.9c0.6-1.5,0.8-3.2,0.8-5.1
			c0-1.8-0.2-3.5-0.7-5C102.7,333.8,102,332.5,101.2,331.5z M95.7,345.1c-0.9,1.2-2.3,1.9-4.1,1.9c-0.6,0-1.1,0-1.6,0
			c-0.5-0.1-0.9-0.1-1.2-0.2v-12.1c0.4-0.3,1-0.5,1.6-0.7c0.7-0.2,1.4-0.3,2-0.3c3.1,0,4.7,2.1,4.7,6.4
			C97,342.2,96.6,343.9,95.7,345.1z"/>
		<path class="st2" d="M119,328c-1.4,0-2.8,0.3-4.2,0.8c-1.3,0.5-2.5,1.3-3.6,2.4c-1,1-1.9,2.3-2.5,3.9c-0.6,1.5-0.9,3.4-0.9,5.4
			c0,1.7,0.2,3.3,0.7,4.8c0.5,1.5,1.3,2.8,2.3,3.9c1,1.1,2.3,1.9,3.9,2.5c1.6,0.6,3.4,0.9,5.5,0.9c0.8,0,1.7,0,2.5-0.1
			c0.8-0.1,1.6-0.2,2.3-0.4c0.7-0.1,1.4-0.3,2-0.4c0.6-0.2,1.1-0.4,1.4-0.5l-0.9-5.4c-0.7,0.3-1.7,0.6-2.9,0.8
			c-1.2,0.2-2.3,0.3-3.6,0.3c-1.9,0-3.4-0.4-4.5-1.2c-1.1-0.8-1.8-1.9-1.9-3.3h15.1c0-0.4,0.1-0.8,0.1-1.2c0-0.5,0-0.9,0-1.3
			c0-3.9-1-6.9-2.9-9C125,329,122.3,328,119,328z M114.6,338c0.1-0.6,0.2-1.1,0.4-1.6c0.2-0.6,0.5-1.1,0.8-1.5
			c0.4-0.4,0.8-0.7,1.3-1c0.5-0.3,1.2-0.4,1.9-0.4c0.8,0,1.4,0.1,1.9,0.4c0.5,0.3,1,0.6,1.3,1c0.4,0.4,0.6,0.9,0.8,1.4
			c0.2,0.5,0.3,1.1,0.3,1.6H114.6z"/>
		<path class="st2" d="M147.3,328.4c-0.5-0.1-1-0.1-1.5-0.2c-0.5-0.1-0.9-0.1-1.3-0.1c-2,0-3.8,0.2-5.4,0.6c-1.6,0.4-3,0.7-4.2,1.2
			V352h6.6v-17.9c0.3-0.1,0.7-0.2,1.3-0.2c0.6-0.1,1.1-0.1,1.5-0.1c0.9,0,1.8,0.1,2.6,0.3c0.8,0.1,1.5,0.3,2.1,0.4l1.1-5.5
			c-0.4-0.1-0.8-0.3-1.3-0.4C148.3,328.5,147.8,328.5,147.3,328.4z"/>
		<path class="st2" d="M171.8,331.1c-0.8-1-1.8-1.7-3.2-2.2c-1.3-0.5-3-0.8-4.9-0.8c-2,0-3.8,0.1-5.6,0.4c-1.8,0.3-3.2,0.6-4.4,0.9
			V352h6.6V334c0.4-0.1,0.9-0.1,1.4-0.1c0.5-0.1,1-0.1,1.5-0.1c1.5,0,2.6,0.4,3.2,1.3c0.6,0.9,0.8,2.4,0.8,4.5V352h6.6v-13.2
			c0-1.6-0.2-3.1-0.5-4.4C173.1,333.1,172.5,332,171.8,331.1z"/>
		<path class="st2" d="M190.1,328c-1.4,0-2.8,0.3-4.2,0.8c-1.3,0.5-2.5,1.3-3.6,2.4c-1,1-1.9,2.3-2.5,3.9c-0.6,1.5-0.9,3.4-0.9,5.4
			c0,1.7,0.2,3.3,0.7,4.8c0.5,1.5,1.3,2.8,2.3,3.9c1,1.1,2.3,1.9,3.9,2.5c1.6,0.6,3.4,0.9,5.5,0.9c0.8,0,1.7,0,2.5-0.1
			c0.8-0.1,1.6-0.2,2.3-0.4c0.7-0.1,1.4-0.3,2-0.4c0.6-0.2,1.1-0.4,1.4-0.5l-0.9-5.4c-0.7,0.3-1.7,0.6-2.9,0.8
			c-1.2,0.2-2.3,0.3-3.6,0.3c-1.9,0-3.4-0.4-4.5-1.2c-1.1-0.8-1.8-1.9-1.9-3.3h15.1c0-0.4,0.1-0.8,0.1-1.2c0-0.5,0-0.9,0-1.3
			c0-3.9-1-6.9-2.9-9C196,329,193.4,328,190.1,328z M185.7,338c0.1-0.6,0.2-1.1,0.4-1.6c0.2-0.6,0.5-1.1,0.8-1.5
			c0.4-0.4,0.8-0.7,1.3-1c0.5-0.3,1.2-0.4,1.9-0.4c0.8,0,1.4,0.1,1.9,0.4c0.5,0.3,1,0.6,1.3,1c0.4,0.4,0.6,0.9,0.8,1.4
			c0.2,0.5,0.3,1.1,0.3,1.6H185.7z"/>
		<path class="st2" d="M218.3,346.8c-0.7,0.1-1.5,0.2-2.2,0.2c-1.5,0-2.5-0.4-3-1.2c-0.5-0.8-0.7-1.9-0.7-3.3v-8.2h8v-5.5h-8v-6.9
			l-6.6,1.1v19.7c0,1.5,0.1,2.9,0.4,4.1c0.3,1.2,0.8,2.3,1.5,3.2c0.7,0.9,1.7,1.5,2.9,2c1.2,0.5,2.7,0.7,4.5,0.7
			c1.4,0,2.6-0.1,3.6-0.4c1-0.2,1.9-0.5,2.7-0.8l-0.9-5.2C219.7,346.5,219,346.6,218.3,346.8z"/>
		<path class="st2" d="M235,328c-1.4,0-2.8,0.3-4.2,0.8c-1.3,0.5-2.5,1.3-3.6,2.4c-1,1-1.9,2.3-2.5,3.9c-0.6,1.5-0.9,3.4-0.9,5.4
			c0,1.7,0.2,3.3,0.7,4.8c0.5,1.5,1.3,2.8,2.3,3.9c1,1.1,2.3,1.9,3.9,2.5c1.6,0.6,3.4,0.9,5.5,0.9c0.8,0,1.7,0,2.5-0.1
			s1.6-0.2,2.3-0.4c0.7-0.1,1.4-0.3,2-0.4c0.6-0.2,1.1-0.4,1.4-0.5l-0.9-5.4c-0.7,0.3-1.7,0.6-2.9,0.8c-1.2,0.2-2.3,0.3-3.6,0.3
			c-1.9,0-3.4-0.4-4.5-1.2c-1.1-0.8-1.8-1.9-1.9-3.3h15.1c0-0.4,0.1-0.8,0.1-1.2c0-0.5,0-0.9,0-1.3c0-3.9-1-6.9-2.9-9
			C240.9,329,238.3,328,235,328z M230.5,338c0.1-0.6,0.2-1.1,0.4-1.6c0.2-0.6,0.5-1.1,0.8-1.5c0.4-0.4,0.8-0.7,1.3-1
			c0.5-0.3,1.2-0.4,1.9-0.4c0.8,0,1.4,0.1,1.9,0.4c0.5,0.3,1,0.6,1.3,1c0.4,0.4,0.6,0.9,0.8,1.4c0.2,0.5,0.3,1.1,0.3,1.6H230.5z"/>
		<path class="st2" d="M266,341c-0.5-0.6-1.3-1.2-2.2-1.7c-1-0.5-2.2-1.1-3.6-1.6c-0.7-0.3-1.3-0.5-1.8-0.7
			c-0.4-0.2-0.8-0.4-1.1-0.6c-0.3-0.2-0.4-0.4-0.5-0.6c-0.1-0.2-0.1-0.4-0.1-0.7c0-1.2,1-1.7,3.1-1.7c1.1,0,2.1,0.1,3,0.3
			c0.9,0.2,1.8,0.4,2.5,0.7l1.2-5.2c-0.8-0.3-1.8-0.6-3.1-0.8c-1.3-0.3-2.7-0.4-4.1-0.4c-2.9,0-5.1,0.6-6.7,1.9
			c-1.6,1.3-2.4,3-2.4,5.2c0,1.1,0.2,2.1,0.5,2.9c0.3,0.8,0.8,1.5,1.4,2.1c0.6,0.6,1.3,1.1,2.1,1.5c0.9,0.4,1.8,0.8,2.9,1.2
			c1.3,0.5,2.3,1,3,1.4c0.7,0.4,1,0.8,1,1.4c0,0.7-0.3,1.1-0.8,1.4s-1.4,0.4-2.6,0.4c-1.2,0-2.3-0.1-3.5-0.4
			c-1.2-0.3-2.3-0.6-3.5-1.1l-1.1,5.4c0.5,0.2,1.5,0.5,2.9,0.9c1.4,0.4,3.1,0.5,5.2,0.5c3.2,0,5.6-0.6,7.3-1.8
			c1.8-1.2,2.6-2.9,2.6-5.3c0-1-0.1-1.8-0.4-2.6C266.9,342.3,266.6,341.6,266,341z"/>
	</g>
	<g>
		<rect x="13" y="83.1" class="st3" width="270.8" height="304.6"/>
		<path class="st1" d="M292.3,79.3V53.5c0-25.1-20.5-45.6-45.6-45.6H51.2C26.2,7.9,5.6,28.4,5.6,53.5v25.8v3.9v312h286.7L292.3,79.3
			L292.3,79.3z M215.3,46.5c0.5-1.5,1.1-2.8,2-3.8c0.9-1.1,2-1.9,3.2-2.4c1.3-0.6,2.7-0.8,4.4-0.8c0.9,0,1.7,0.1,2.4,0.3
			c0.7,0.2,1.4,0.4,2.2,0.7V30l6.5-1.1v33.3c-0.6,0.2-1.3,0.3-2,0.5c-0.8,0.2-1.6,0.3-2.4,0.4c-0.8,0.1-1.7,0.2-2.5,0.3
			c-0.9,0.1-1.7,0.1-2.5,0.1c-1.9,0-3.6-0.3-5.1-0.8c-1.5-0.6-2.7-1.4-3.8-2.4c-1-1-1.8-2.3-2.3-3.8c-0.5-1.5-0.8-3.1-0.8-5
			C214.6,49.7,214.9,48,215.3,46.5z M190.3,46.2c0.6-1.5,1.5-2.8,2.5-3.8c1-1,2.2-1.8,3.5-2.3c1.3-0.5,2.7-0.8,4.1-0.8
			c3.3,0,5.9,1,7.8,3c1.9,2,2.8,4.9,2.8,8.8c0,0.4,0,0.8,0,1.2c0,0.5-0.1,0.9-0.1,1.2h-14.8c0.1,1.3,0.8,2.4,1.9,3.2
			c1.1,0.8,2.6,1.2,4.5,1.2c1.2,0,2.4-0.1,3.5-0.3c1.2-0.2,2.1-0.5,2.8-0.8l0.9,5.3c-0.4,0.2-0.8,0.4-1.4,0.5
			c-0.6,0.2-1.2,0.3-2,0.5c-0.7,0.1-1.5,0.2-2.3,0.3c-0.8,0.1-1.6,0.1-2.5,0.1c-2.1,0-3.9-0.3-5.4-0.9c-1.5-0.6-2.8-1.5-3.8-2.5
			c-1-1.1-1.8-2.3-2.2-3.8c-0.5-1.5-0.7-3-0.7-4.7C189.4,49.5,189.7,47.7,190.3,46.2z M179,30.4c0.8-0.7,1.7-1,2.7-1
			c1.1,0,2,0.3,2.7,1c0.8,0.7,1.2,1.6,1.2,2.8c0,1.2-0.4,2.1-1.2,2.8c-0.8,0.7-1.7,1-2.7,1c-1.1,0-2-0.3-2.7-1
			c-0.8-0.7-1.2-1.6-1.2-2.8C177.8,32,178.2,31.1,179,30.4z M185,39.9v23.1h-6.5V39.9H185z M160.1,38.6c0-3,0.8-5.3,2.5-7.1
			c1.7-1.8,4.2-2.6,7.5-2.6c1.2,0,2.2,0.1,3,0.3c0.8,0.2,1.5,0.4,2,0.7L174,35c-0.5-0.2-1-0.4-1.6-0.4c-0.6-0.1-1.1-0.1-1.7-0.1
			c-0.8,0-1.5,0.1-2,0.3c-0.5,0.2-1,0.5-1.3,0.9c-0.3,0.4-0.5,0.8-0.7,1.4c-0.1,0.5-0.2,1.1-0.2,1.7v1.1h8.1v5.4h-8.1v17.6h-6.5
			V38.6z M147.9,30.4c0.8-0.7,1.7-1,2.7-1c1.1,0,2,0.3,2.7,1c0.8,0.7,1.2,1.6,1.2,2.8c0,1.2-0.4,2.1-1.2,2.8c-0.8,0.7-1.7,1-2.7,1
			c-1.1,0-2-0.3-2.7-1c-0.8-0.7-1.2-1.6-1.2-2.8C146.8,32,147.1,31.1,147.9,30.4z M153.9,39.9v23.1h-6.5V39.9H153.9z M127.7,34.1
			l6.5-1.1v6.8h7.8v5.4h-7.8v8.1c0,1.4,0.2,2.5,0.7,3.3c0.5,0.8,1.5,1.2,2.9,1.2c0.7,0,1.4-0.1,2.2-0.2c0.7-0.1,1.4-0.3,2-0.5
			l0.9,5.1c-0.8,0.3-1.7,0.6-2.6,0.8c-1,0.2-2.1,0.4-3.6,0.4c-1.8,0-3.3-0.2-4.4-0.7c-1.2-0.5-2.1-1.2-2.8-2
			c-0.7-0.9-1.2-1.9-1.5-3.1c-0.3-1.2-0.4-2.6-0.4-4.1V34.1z M109.5,41.1c1.2-0.4,2.5-0.8,4.1-1.2c1.6-0.4,3.4-0.5,5.3-0.5
			c0.4,0,0.8,0,1.3,0.1c0.5,0,1,0.1,1.5,0.2c0.5,0.1,1,0.2,1.5,0.3c0.5,0.1,0.9,0.2,1.3,0.4l-1.1,5.4c-0.6-0.1-1.3-0.3-2.1-0.5
			c-0.8-0.2-1.6-0.2-2.5-0.2c-0.4,0-0.9,0-1.5,0.1c-0.6,0.1-1,0.2-1.3,0.2v17.6h-6.5V41.1z M83.7,46.2c0.6-1.5,1.5-2.8,2.5-3.8
			c1-1,2.2-1.8,3.5-2.3c1.3-0.5,2.7-0.8,4.1-0.8c3.3,0,5.9,1,7.8,3c1.9,2,2.8,4.9,2.8,8.8c0,0.4,0,0.8,0,1.2c0,0.5-0.1,0.9-0.1,1.2
			H89.5c0.1,1.3,0.8,2.4,1.9,3.2c1.1,0.8,2.6,1.2,4.5,1.2c1.2,0,2.4-0.1,3.5-0.3c1.2-0.2,2.1-0.5,2.8-0.8l0.9,5.3
			c-0.4,0.2-0.8,0.4-1.4,0.5c-0.6,0.2-1.2,0.3-2,0.5c-0.7,0.1-1.5,0.2-2.3,0.3c-0.8,0.1-1.6,0.1-2.5,0.1c-2.1,0-3.9-0.3-5.4-0.9
			c-1.5-0.6-2.8-1.5-3.8-2.5c-1-1.1-1.8-2.3-2.2-3.8c-0.5-1.5-0.7-3-0.7-4.7C82.8,49.5,83.1,47.7,83.7,46.2z M62.7,46.7
			c0.5-1.5,1.3-2.8,2.3-3.9c1-1.1,2.3-2,3.7-2.6c1.5-0.6,3.1-1,5-1c1.2,0,2.4,0.1,3.4,0.3c1,0.2,2,0.5,3,0.9l-1.4,5.2
			c-0.6-0.2-1.3-0.4-2-0.6c-0.7-0.2-1.5-0.3-2.5-0.3c-1.9,0-3.4,0.6-4.3,1.8c-1,1.2-1.4,2.8-1.4,4.7c0,2.1,0.4,3.7,1.3,4.8
			c0.9,1.1,2.4,1.7,4.7,1.7c0.8,0,1.6-0.1,2.5-0.2c0.9-0.1,1.7-0.4,2.5-0.7l0.9,5.3c-0.8,0.3-1.7,0.6-2.8,0.8
			c-1.1,0.2-2.4,0.4-3.8,0.4c-2.1,0-3.9-0.3-5.4-0.9C67,62,65.7,61.1,64.8,60c-1-1.1-1.7-2.4-2.1-3.8c-0.5-1.5-0.7-3.1-0.7-4.8
			C61.9,49.7,62.2,48.2,62.7,46.7z M283.8,387.7H13V83.1h270.8V387.7z"/>
		<path class="st1" d="M204.4,47.4c-0.2-0.5-0.4-1-0.7-1.4c-0.3-0.4-0.8-0.7-1.3-1c-0.5-0.3-1.1-0.4-1.9-0.4c-0.7,0-1.4,0.1-1.9,0.4
			c-0.5,0.2-1,0.6-1.3,1c-0.4,0.4-0.6,0.9-0.8,1.4c-0.2,0.5-0.3,1.1-0.4,1.6h8.6C204.7,48.5,204.6,48,204.4,47.4z"/>
		<path class="st1" d="M226.7,57.9c0.6,0,1.1,0,1.6-0.1c0.5,0,0.9-0.1,1.2-0.2V45.8c-0.4-0.3-0.9-0.5-1.6-0.7
			c-0.7-0.2-1.3-0.3-2-0.3c-3.1,0-4.6,2.1-4.6,6.3c0,2,0.5,3.6,1.4,4.9C223.6,57.3,224.9,57.9,226.7,57.9z"/>
		<path class="st1" d="M97.8,47.4c-0.2-0.5-0.4-1-0.7-1.4c-0.3-0.4-0.8-0.7-1.3-1c-0.5-0.3-1.1-0.4-1.9-0.4c-0.7,0-1.4,0.1-1.9,0.4
			c-0.5,0.2-1,0.6-1.3,1c-0.4,0.4-0.6,0.9-0.8,1.4c-0.2,0.5-0.3,1.1-0.4,1.6h8.6C98.1,48.5,98,48,97.8,47.4z"/>
		<path class="st0" d="M64.8,60c1,1.1,2.2,1.9,3.7,2.6c1.5,0.6,3.3,0.9,5.4,0.9c1.4,0,2.6-0.1,3.8-0.4c1.1-0.2,2.1-0.5,2.8-0.8
			L79.6,57c-0.8,0.3-1.6,0.6-2.5,0.7c-0.9,0.1-1.8,0.2-2.5,0.2c-2.2,0-3.8-0.6-4.7-1.7c-0.9-1.1-1.3-2.7-1.3-4.8
			c0-2,0.5-3.5,1.4-4.7c0.9-1.2,2.4-1.8,4.3-1.8c0.9,0,1.7,0.1,2.5,0.3c0.7,0.2,1.4,0.4,2,0.6l1.4-5.2c-1-0.4-2-0.7-3-0.9
			c-1-0.2-2.1-0.3-3.4-0.3c-1.9,0-3.5,0.3-5,1c-1.5,0.6-2.7,1.5-3.7,2.6c-1,1.1-1.8,2.4-2.3,3.9c-0.5,1.5-0.8,3-0.8,4.7
			c0,1.7,0.2,3.3,0.7,4.8C63.1,57.7,63.8,58.9,64.8,60z"/>
		<path class="st0" d="M85.7,60.1c1,1.1,2.3,1.9,3.8,2.5c1.5,0.6,3.3,0.9,5.4,0.9c0.8,0,1.6,0,2.5-0.1c0.8-0.1,1.6-0.2,2.3-0.3
			c0.7-0.1,1.4-0.3,2-0.5c0.6-0.2,1.1-0.4,1.4-0.5l-0.9-5.3c-0.7,0.3-1.7,0.6-2.8,0.8c-1.2,0.2-2.3,0.3-3.5,0.3
			c-1.9,0-3.4-0.4-4.5-1.2c-1.1-0.8-1.7-1.9-1.9-3.2h14.8c0-0.4,0.1-0.8,0.1-1.2c0-0.5,0-0.9,0-1.2c0-3.9-1-6.8-2.8-8.8
			c-1.9-2-4.5-3-7.8-3c-1.4,0-2.8,0.3-4.1,0.8c-1.3,0.5-2.5,1.3-3.5,2.3c-1,1-1.8,2.3-2.5,3.8c-0.6,1.5-0.9,3.3-0.9,5.4
			c0,1.7,0.2,3.3,0.7,4.7C84,57.8,84.7,59,85.7,60.1z M89.9,47.4c0.2-0.5,0.5-1,0.8-1.4c0.4-0.4,0.8-0.7,1.3-1
			c0.5-0.2,1.2-0.4,1.9-0.4c0.8,0,1.4,0.1,1.9,0.4c0.5,0.3,0.9,0.6,1.3,1c0.3,0.4,0.6,0.9,0.7,1.4c0.2,0.5,0.3,1.1,0.3,1.6h-8.6
			C89.5,48.5,89.7,48,89.9,47.4z"/>
		<path class="st0" d="M116,45.3c0.3-0.1,0.7-0.2,1.3-0.2c0.6-0.1,1.1-0.1,1.5-0.1c0.9,0,1.8,0.1,2.5,0.2c0.8,0.2,1.5,0.3,2.1,0.5
			l1.1-5.4c-0.4-0.1-0.8-0.3-1.3-0.4c-0.5-0.1-1-0.2-1.5-0.3c-0.5-0.1-1-0.1-1.5-0.2c-0.5,0-0.9-0.1-1.3-0.1c-2,0-3.7,0.2-5.3,0.5
			c-1.6,0.4-3,0.8-4.1,1.2v21.8h6.5V45.3z"/>
		<path class="st0" d="M129.6,60.7c0.7,0.9,1.6,1.5,2.8,2c1.2,0.5,2.6,0.7,4.4,0.7c1.4,0,2.6-0.1,3.6-0.4c1-0.2,1.8-0.5,2.6-0.8
			l-0.9-5.1c-0.6,0.2-1.3,0.4-2,0.5c-0.7,0.1-1.5,0.2-2.2,0.2c-1.5,0-2.4-0.4-2.9-1.2c-0.5-0.8-0.7-1.9-0.7-3.3v-8.1h7.8v-5.4h-7.8
			v-6.8l-6.5,1.1v19.4c0,1.5,0.1,2.8,0.4,4.1C128.4,58.8,128.9,59.8,129.6,60.7z"/>
		<rect x="147.4" y="39.9" class="st0" width="6.5" height="23.1"/>
		<path class="st0" d="M150.7,37.1c1.1,0,2-0.3,2.7-1c0.8-0.7,1.2-1.6,1.2-2.8c0-1.2-0.4-2.1-1.2-2.8c-0.8-0.7-1.7-1-2.7-1
			c-1.1,0-2,0.3-2.7,1c-0.8,0.7-1.2,1.6-1.2,2.8c0,1.2,0.4,2.1,1.2,2.8C148.7,36.7,149.6,37.1,150.7,37.1z"/>
		<path class="st0" d="M166.6,45.3h8.1v-5.4h-8.1v-1.1c0-0.6,0.1-1.2,0.2-1.7c0.1-0.5,0.4-1,0.7-1.4c0.3-0.4,0.7-0.7,1.3-0.9
			c0.5-0.2,1.2-0.3,2-0.3c0.6,0,1.2,0,1.7,0.1c0.6,0.1,1.1,0.2,1.6,0.4l1.1-5.1c-0.6-0.2-1.2-0.5-2-0.7c-0.8-0.2-1.8-0.3-3-0.3
			c-3.3,0-5.8,0.9-7.5,2.6c-1.7,1.8-2.5,4.1-2.5,7.1v24.3h6.5V45.3z"/>
		<path class="st0" d="M181.7,37.1c1.1,0,2-0.3,2.7-1c0.8-0.7,1.2-1.6,1.2-2.8c0-1.2-0.4-2.1-1.2-2.8c-0.8-0.7-1.7-1-2.7-1
			c-1.1,0-2,0.3-2.7,1c-0.8,0.7-1.2,1.6-1.2,2.8c0,1.2,0.4,2.1,1.2,2.8C179.7,36.7,180.6,37.1,181.7,37.1z"/>
		<rect x="178.5" y="39.9" class="st0" width="6.5" height="23.1"/>
		<path class="st0" d="M192.3,60.1c1,1.1,2.3,1.9,3.8,2.5c1.5,0.6,3.3,0.9,5.4,0.9c0.8,0,1.6,0,2.5-0.1c0.8-0.1,1.6-0.2,2.3-0.3
			c0.7-0.1,1.4-0.3,2-0.5c0.6-0.2,1.1-0.4,1.4-0.5l-0.9-5.3c-0.7,0.3-1.7,0.6-2.8,0.8c-1.2,0.2-2.3,0.3-3.5,0.3
			c-1.9,0-3.4-0.4-4.5-1.2c-1.1-0.8-1.7-1.9-1.9-3.2h14.8c0-0.4,0.1-0.8,0.1-1.2c0-0.5,0-0.9,0-1.2c0-3.9-1-6.8-2.8-8.8
			c-1.9-2-4.5-3-7.8-3c-1.4,0-2.8,0.3-4.1,0.8c-1.3,0.5-2.5,1.3-3.5,2.3c-1,1-1.8,2.3-2.5,3.8c-0.6,1.5-0.9,3.3-0.9,5.4
			c0,1.7,0.2,3.3,0.7,4.7C190.6,57.8,191.3,59,192.3,60.1z M196.5,47.4c0.2-0.5,0.5-1,0.8-1.4c0.4-0.4,0.8-0.7,1.3-1
			c0.5-0.2,1.2-0.4,1.9-0.4c0.8,0,1.4,0.1,1.9,0.4c0.5,0.3,0.9,0.6,1.3,1c0.3,0.4,0.6,0.9,0.7,1.4c0.2,0.5,0.3,1.1,0.3,1.6h-8.6
			C196.2,48.5,196.3,48,196.5,47.4z"/>
		<path class="st0" d="M217.8,60.3c1,1,2.3,1.8,3.8,2.4c1.5,0.6,3.2,0.8,5.1,0.8c0.8,0,1.6,0,2.5-0.1c0.9-0.1,1.7-0.2,2.5-0.3
			c0.8-0.1,1.6-0.3,2.4-0.4c0.8-0.2,1.4-0.3,2-0.5V28.9l-6.5,1.1v10.4c-0.7-0.3-1.5-0.6-2.2-0.7c-0.7-0.2-1.5-0.3-2.4-0.3
			c-1.6,0-3.1,0.3-4.4,0.8c-1.3,0.6-2.3,1.4-3.2,2.4c-0.9,1.1-1.5,2.3-2,3.8c-0.5,1.5-0.7,3.2-0.7,5.1c0,1.8,0.3,3.5,0.8,5
			C216,58,216.8,59.2,217.8,60.3z M225.9,44.9c0.7,0,1.3,0.1,2,0.3c0.7,0.2,1.2,0.4,1.6,0.7v11.9c-0.3,0.1-0.7,0.1-1.2,0.2
			c-0.5,0-1,0.1-1.6,0.1c-1.8,0-3.1-0.6-4-1.8c-0.9-1.2-1.4-2.8-1.4-4.9C221.3,47,222.8,44.9,225.9,44.9z"/>
	</g>
</g>
</svg>
