<svg xmlns="http://www.w3.org/2000/svg" role="img" viewBox="-0.34 -5.84 719.68 240.18"><title>tekton-horizontal-white</title><defs><style>.cls-1,.cls-2{fill:#fff}.cls-1{fill-rule:evenodd}</style></defs><path d="M94.815 102.599v2.08562m55.06577 65.57511l1.81476-.48754.21668 1.40847c1.02927 6.47355.5688 12.08033-2.05852 17.79548 4.06289.5688 7.61115 2.519 9.48009 6.66314 1.32721 2.92528 2.60024 6.33812 2.62734 9.58844a8.09164 8.09164 0 0 1-2.65442 6.39228 6.29773 6.29773 0 0 1-3.98164 1.43555h-21.20837c-1.21887 3.33157-3.62952 6.39228-7.1507 7.31321a16.363 16.363 0 0 1-3.00653.40629c-1.08344.05418-2.1398.08126-3.19614.08126-2.73568.02708-5.47137 0-8.207 0q-6.41937-.08127-12.83874-.24378a6.84073 6.84073 0 0 1-6.04017-3.92747 6.8173 6.8173 0 0 1-6.01309 3.92747c-4.30666.10835-8.58625.1896-12.86583.24378-2.73568.02708-5.47137.05417-8.207 0-1.05635 0-2.11271-.02708-3.19614-.08126a14.34109 14.34109 0 0 1-3.03364-.40629c-3.52117-.92093-5.90473-4.00872-7.15069-7.31321h-21.0188a6.2978 6.2978 0 0 1-3.98163-1.43555 8.09165 8.09165 0 0 1-2.65443-6.39228c0-3.25032 1.30013-6.66314 2.60026-9.58844a10.91051 10.91051 0 0 1 3.142-4.06289 12.79847 12.79847 0 0 1 6.14851-2.60025c-2.62734-5.71513-3.0878-11.32193-2.05853-17.79548l.21669-1.40847 2.03144.54172a28.7418 28.7418 0 0 1 .9751-3.62953 23.57218 23.57218 0 0 1 7.50281-10.91564 19.59584 19.59584 0 0 1 4.09-2.519 72.43407 72.43407 0 0 1 1.5439-11.53862 52.57767 52.57767 0 0 1 4.49623-14.84312 20.54613 20.54613 0 0 1-2.76277-4.36084c-.10834-.24377-.21668-.48755-.298-.73133a63.24455 63.24455 0 0 1-17.958-15.22231c-2.97946-3.65661-7.3403-9.34466-7.7195-14.13888-.1896-1.67933-.24377-3.35866-.27086-5.0109a89.64686 89.64686 0 0 1 .65006-12.05325c.27086-2.3294.65006-4.65879 1.11053-6.9611A64.656 64.656 0 0 1 20.9515 56.7966a58.68311 58.68311 0 0 1-6.71726-20.9916 57.34272 57.34272 0 0 1 1.65224-21.77712 8.208 8.208 0 0 1 7.90908-6.01307c13.868 0 25.84 5.661 36.97235 12.97417a65.22056 65.22056 0 0 1 68.14829 0c11.10523-7.31321 23.07723-12.97417 36.94525-12.97417a8.12189 8.12189 0 0 1 7.882 6.04017 57.96324 57.96324 0 0 1 1.62516 21.77711 58.68323 58.68323 0 0 1-6.71731 20.99162 64.51684 64.51684 0 0 1-8.01744 11.5928c.43337 2.194.7855 4.38792 1.08344 6.63606a88.5037 88.5037 0 0 1 .67715 12.26993c-.02708 1.70642-.08126 3.41284-.27086 5.06508-.43337 4.92965-4.65879 10.45519-7.7195 14.19305a63.68576 63.68576 0 0 1-17.958 15.22231l-.325.73133a37.50414 37.50414 0 0 1-1.9231 3.54826 16.76737 16.76737 0 0 1-2.221 2.8982 42.51531 42.51531 0 0 1 1.51681 4.03581 55.31862 55.31862 0 0 1 2.08562 8.91128c.325 1.5439.623 3.11488.83966 4.65879 6.14852-10.29267 14.32848-19.58315 24.62115-25.29829a39.094 39.094 0 0 1 19.854-5.30885c7.39446.1896 14.6535 3.62952 20.26029 8.34247 6.14852 5.17342 11.15942 12.56789 11.99908 20.72076a11.79841 11.79841 0 0 1-.27086 4.00872 14.90226 14.90226 0 0 1-8.39665 9.6426c-5.09215 2.38356-11.45736 2.30231-15.73693-1.73351-2.41066-2.30231-3.16907-4.8213-4.38793-7.77367a9.2795 9.2795 0 0 0-3.03364-4.22542 10.60865 10.60865 0 0 0-7.1507-2.13978c-3.6566.24377-6.90692 2.32939-9.48008 4.82129a49.08279 49.08279 0 0 0-4.0629 4.49627 76.47427 76.47427 0 0 0-6.58188 9.53426 61.5598 61.5598 0 0 0-4.00872 7.882 3.52735 3.52735 0 0 1-.21669.46046 1.00449 1.00449 0 0 0 .05418.2438zm5.60679-23.07724a2.32151 2.32151 0 0 1 .97509.1896c1.24595-1.46264 2.54609-2.8982 3.90039-4.22541.43337-.40629.86675-.81258 1.273-1.16469a13.11061 13.11061 0 0 1-4.06289-4.46919 14.27827 14.27827 0 0 1-1.76059-4.92965 63.25743 63.25743 0 0 0-7.63825 7.96327c-.13543 1.86893 1.70642 4.03581 2.97946 5.038a6.68923 6.68923 0 0 0 4.33375 1.59807zm-1.92311 3.87328a11.5205 11.5205 0 0 1-4.87547-2.27522 13.25014 13.25014 0 0 1-3.54826-4.22541 87.88938 87.88938 0 0 0-6.50063 10.86147 18.604 18.604 0 0 1 1.97727 1.38138 20.88416 20.88416 0 0 1 5.4172 6.50063 84.48629 84.48629 0 0 1 7.52989-12.24285zm33.099-10.50935a1.58036 1.58036 0 0 1-.16251.70424c4.11707 4.03581 3.92747 8.74877 6.50063 11.18651 4.52336 4.30667 14.57225-.54172 13.94928-6.7444-.5688-5.39011-3.68369-10.75314-8.01744-14.97854-.02708-.02709-.05418-.05417-.08126-.05417a3.25509 3.25509 0 0 0-2.3023-.86676c-5.47139-.24377-9.69679 5.49845-9.8864 10.75312zm-3.84621-1.97727a16.24836 16.24836 0 0 1 1.1647-3.95455 14.83254 14.83254 0 0 1 9.10087-8.45082 25.418 25.418 0 0 0-12.35119-3.95456 23.06771 23.06771 0 0 0-3.60243.16252c-.37921.27086-.73132.54172-.92093.70424a6.4761 6.4761 0 0 0-.623.59589c-2.73568 3.0878-2.41066 9.04671-.05418 12.24286a2.229 2.229 0 0 1 .325.67715 16.83411 16.83411 0 0 1 6.96109 1.97727zm-11.45736-1.65224a15.48557 15.48557 0 0 1-1.76058-6.934 14.63714 14.63714 0 0 1 1.19178-6.25686 39.24071 39.24071 0 0 0-6.71731 2.97945c-1.273.70424-2.54609 1.51682-3.81912 2.38357 0 .02708-.02707.02708-.02707.05417-1.1647 1.70641-.05418 4.74.86675 6.33812a8.61628 8.61628 0 0 0 3.6566 3.57535 1.47424 1.47424 0 0 1 .48755.29794 19.94555 19.94555 0 0 1 6.1214-2.43773zM88.88313 25.59361a1.9231 1.9231 0 1 1-1.9231 1.9231 1.89643 1.89643 0 0 1 1.9231-1.9231zm0 8.4779A1.92311 1.92311 0 1 1 86.96 35.99462a1.93052 1.93052 0 0 1 1.9231-1.92311zm11.89074-8.4779a1.9231 1.9231 0 1 1-1.92311 1.9231 1.93051 1.93051 0 0 1 1.92311-1.9231zm0 8.4779a1.92311 1.92311 0 1 1-1.92311 1.92311 1.93051 1.93051 0 0 1 1.92311-1.92311zm-4.33375-14.78893v22.996c12.297.27086 24.37737 3.68369 31.79892 10.21141 8.55915 7.557 14.2743 20.6395 13.65133 27.51933-.54172 6.1756-10.401 10.34685-23.53771 12.51372a11.94866 11.94866 0 0 1 1.3543 3.792 17.257 17.257 0 0 1-.02708 5.661c4.95673-.5688 9.42591-1.32721 13.40755-2.16687a131.13835 131.13835 0 0 0 20.72076-6.22978 7.42279 7.42279 0 0 0 .46047-1.896s2.844-25.89419-11.83657-47.10249a57.63342 57.63342 0 0 0-45.992-25.29829zm-3.22323 22.996v-22.996a57.642 57.642 0 0 0-46.47952 26.05669c-14.0847 21.07288-11.32193 46.37117-11.32193 46.37117a8.306 8.306 0 0 0 .54172 1.9502 132.9105 132.9105 0 0 0 20.61241 6.17559c4.00872.83967 8.45083 1.59807 13.43464 2.16688a17.25641 17.25641 0 0 1-.02708-5.661 11.94856 11.94856 0 0 1 1.35429-3.792c-13.13669-2.16688-22.996-6.3652-23.5377-12.51372-.623-6.87983 5.09216-19.96235 13.65133-27.51934 7.39447-6.5548 19.47481-9.96763 31.77184-10.23849zm-22.15632 63.08319a145.37062 145.37062 0 0 1-15.141-2.38356 132.89422 132.89422 0 0 1-17.71427-5.06508 45.96966 45.96966 0 0 0 2.8982 3.95455A58.16448 58.16448 0 0 0 67.94569 120.232a84.04667 84.04667 0 0 0 10.48231 2.8169c0-.02709-.02709-.08125-.02709-.10834a5.79838 5.79838 0 0 1-.298-2.95237c.43338-2.49191 2.30231-4.0629 4.713-5.06508-4.55044-1.5439-8.64042-4.11707-11.024-8.207a7.43491 7.43491 0 0 1-.73132-1.3543zm11.53862 15.98072c.51463 1.32721 2.22105 2.35648 4.36084 3.06071 2.60025.298 5.22759.54172 7.85493.70423 2.65442-.16251 5.30885-.3792 7.9091-.70423 2.00436-.65006 3.62952-1.571 4.2525-2.78985 2.70859-5.25468-26.21922-5.11925-24.37737-.27086zm68.82544-23.40227a134.79692 134.79692 0 0 1-17.66005 5.038 146.53609 146.53609 0 0 1-15.14106 2.38356c-.21669.46046-.43337.89383-.67715 1.32721-2.38356 4.06289-6.44646 6.66315-10.9969 8.207 2.35648 1.00219 4.17123 2.54608 4.6317 4.95673a5.73305 5.73305 0 0 1-.298 3.16906 68.85441 68.85441 0 0 0 24.2961-9.48009 62.25379 62.25379 0 0 0 13.62424-12.78457c.7855-.89383 1.51683-1.86893 2.22107-2.81693zM93.65026 106.364c-1.21886 2.13979-3.73786 5.33594-9.04671 4.2525-6.52771-2.1127-11.21358-6.50063-10.04889-13.51589 1.05634-6.33817 11.59279-10.29272 20.23321-10.21146h.08126c8.64042-.08126 19.17687 3.87329 20.20613 10.21141 1.00219 6.06725-2.35648 10.18432-7.52989 12.5408-7.66533 2.844-10.34684-.86676-11.53862-3.22323-.56881-1.13762-.81258-1.7335-1.11053-1.76059H94.815c-.24378.10834-.54173.65006-1.16471 1.70641zM94.815 89.84151c-5.22759 0-11.56571 1.51682-12.18869 4.76714-1.02931 5.3901 6.96106 7.99035 12.18869 7.99035h.10834c5.22759-.02709 13.13669-2.62735 12.10743-7.99036-.623-3.25032-6.9611-4.76714-12.18868-4.76714zM80.24271 79.278a1.95019 1.95019 0 1 1-3.90038 0 8.73844 8.73844 0 0 0-2.05854-5.74222 6.27112 6.27112 0 0 0-4.68587-2.24814 5.88094 5.88094 0 0 0-3.35865 1.05636 7.45788 7.45788 0 0 0-2.54608 3.06071 1.93252 1.93252 0 1 1-3.49409-1.65224 11.79441 11.79441 0 0 1 3.87329-4.6317 9.77 9.77 0 0 1 5.55262-1.7335 9.98921 9.98921 0 0 1 7.58407 3.57534 12.77266 12.77266 0 0 1 3.03363 8.3154zm29.17158 0a1.9502 1.9502 0 0 0 3.90039 0 8.73858 8.73858 0 0 1 2.05852-5.74222 6.22727 6.22727 0 0 1 4.68587-2.24814 5.881 5.881 0 0 1 3.35867 1.05635 7.458 7.458 0 0 1 2.54608 3.06071 1.94486 1.94486 0 0 0 3.52118-1.65224 11.79441 11.79441 0 0 0-3.87329-4.6317 9.77007 9.77007 0 0 0-5.55262-1.7335 9.9892 9.9892 0 0 0-7.58407 3.57534 12.65138 12.65138 0 0 0-3.06073 8.3154zm1.571 51.84253a53.01828 53.01828 0 0 1-12.78458 2.41065 53.93855 53.93855 0 0 1-28.79237-6.3652c-1.70642-.48754-3.35866-1.05635-5.01091-1.65225a33.20585 33.20585 0 0 0 16.17033 11.70114c-6.58189-1.11052-13.245-3.142-18.39137-6.71731-3.33157 7.20487-5.363 17.22666-3.73786 30.90508q.5688 4.67232 1.46264 8.85711c8.66751-3.92746 14.73476-2.35648 22.26466 2.65442a107.09493 107.09493 0 0 1 4.55044-24.48572c.51463-1.5439 1.19178-2.3023 2.1127-2.38356.97509-.08125 2.62734-.02709 2.57316 2.844-.29794 1.16469-.54171 2.54608-.73132 3.54825-.51463 2.65442-.92092 5.363-1.32721 8.04454-.3792 2.65442-.7584 5.30884-1.08344 7.99036-.21668 1.70641-.43338 3.467-.56881 5.2005-.05417.97509-.10834 1.9502-.13543 2.92529a48.96162 48.96162 0 0 0 12.26994-.08126c-.02709-.948-.08125-1.9231-.13543-2.8711-.29794-4.27958-.948-8.77586-1.571-13.02835-.3792-2.54608-.78549-5.11925-1.273-7.63824a33.98885 33.98885 0 0 0-1.13762-4.6317c.08126-2.844 3.792-3.467 4.8213-.325a105.3 105.3 0 0 1 4.713 25.19c6.79858-3.90039 15.79112-6.79857 22.29175-3.16906.5688-2.73568 1.02926-5.6068 1.40847-8.64043 1.51681-12.64915-.10835-22.18341-3.00653-29.22576-5.20051 3.06071-11.80948 4.68587-18.17469 5.49845a33.18809 33.18809 0 0 0 17.57879-12.1616c-1.65223.5959-3.33157 1.1647-5.0109 1.65225a51.01954 51.01954 0 0 1-9.34465 3.95455zM35.36127 17.76576a71.55441 71.55441 0 0 1 19.42063 9.04672 63.6885 63.6885 0 0 0-7.01527 6.5548c-1.16469-1.9231-2.43773-3.792-3.76494-5.63388a66.47369 66.47369 0 0 0-8.64042-9.96764zm-11.40319-1.59807h.65006c7.69241 4.22541 14.57225 12.81166 19.63733 21.34374C43.2162 38.83864 42.214 40.22 41.23892 41.6285a71.12774 71.12774 0 0 0-8.64042 18.14759c-6.20268-8.34247-14.0847-23.67309-8.85711-43.44588.08126-.02709.13543-.10835.21669-.16252zm141.74084 0h-.65007c-7.69242 4.22541-14.57224 12.81166-19.63732 21.34374.83965 1.05635 1.65223 2.16688 2.41065 3.30449a70.81886 70.81886 0 0 1 9.20923 18.98726c6.20269-8.34248 14.0847-23.67313 8.85712-43.44589l-.18961-.1896zm-11.40318 1.59807a71.181 71.181 0 0 0-19.42064 9.04672 63.96779 63.96779 0 0 1 7.01527 6.58188c1.19179-1.9231 2.43773-3.81912 3.76495-5.661a66.47255 66.47255 0 0 1 8.64042-9.96764zM61.25545 176.16448a96.05944 96.05944 0 0 0 7.82784 20.26029 3.44047 3.44047 0 0 0 1.65225 1.62516c2.68151 1.62516 6.44645 3.38575 7.09652 10.076-3.06071-3.90038-5.986-6.69023-10.48227-7.66532a8.56831 8.56831 0 0 0-6.41938 2.194c-3.71078 3.84621-1.02926 10.48227 1.21887 11.07816s25.32538 0 25.32538 0 .948-4.30667-.83967-6.69023c-1.76058-2.41066-4.49627-14.6806-4.68587-27.736-5.41719-4.74-13.78675-7.93618-20.69367-3.142zm64.81671 0a97.82348 97.82348 0 0 1-7.80076 20.26029 3.68878 3.68878 0 0 1-1.65223 1.62516c-2.68152 1.62516-6.44646 3.38575-7.09653 10.076 3.06071-3.90038 5.986-6.69023 10.48227-7.66532 2.194-.02708 4.713.40629 6.41938 2.194 3.71078 3.84621 1.02926 10.48227-1.21887 11.07816s-25.32538 0-25.32538 0-.948-4.30667.83967-6.69023c1.76059-2.41066 4.52336-14.6806 4.713-27.736 5.363-4.74 13.73257-7.93618 20.63949-3.142zM95.763 205.17355c-.67715 0-1.38139.02708-2.08563.02708H92.0251a14.84921 14.84921 0 0 0-.83967-1.40847 16.35 16.35 0 0 1-.86675-2.43774 64.26247 64.26247 0 0 1-1.571-7.04235 90.6 90.6 0 0 1-1.246-13.2992 43.41127 43.41127 0 0 0 12.70331-.10835 86.485 86.485 0 0 1-1.59799 15.41192c-.35211 1.78767-1.24595 6.12142-2.16687 7.7195a12.5539 12.5539 0 0 0-.67714 1.13761zm50.434-27.92563c.1896 12.48662-7.69242 17.41627-12.297 21.1 20.96454-9.53426 23.37519 6.69023 21.20831 8.4779h-21.69586a11.73646 11.73646 0 0 0-9.01962-11.05107 83.09511 83.09511 0 0 0 4.2254-10.78021c6.12144-3.27741 13.32631-6.63606 17.5788-7.74659zm-11.45736-18.33721c5.25468 2.43774 8.55915 7.99036 9.29048 14.22014a83.64 83.64 0 0 0-12.83872 5.41715 118.31235 118.31235 0 0 0 3.22323-16.49536c.13543-1.00217.24378-2.05853.325-3.142zm-82.15173.10835c-5.17342 2.49192-8.39665 8.01744-9.10088 14.19306a86.5623 86.5623 0 0 1 12.62206 5.363 118.31221 118.31221 0 0 1-3.22323-16.49535c-.10834-1.00219-.21669-2.03145-.298-3.06072zm-11.48442 18.22886c-.1896 12.48662 7.69242 17.41627 12.32412 21.1-20.99162-9.53426-23.37519 6.69023-21.2354 8.4779h21.31666a12.28391 12.28391 0 0 1 3.35866-8.04453 12.506 12.506 0 0 1 5.49845-3.2774c-.43338-.89383-.83967-1.78767-1.246-2.70859q-1.747-4.02228-3.16906-8.207c-5.93183-3.11488-12.7304-6.25687-16.84747-7.3403z" class="cls-1"/><path d="M278.648 128.76l-27.528 80.525h-30.848l27.585-80.525h-21.976l8.699-25.411h74.687l-8.699 25.411h-21.92z" class="cls-2"/><path d="M353.507 184.046l-8.642 25.239h-79.781l36.228-105.936h69.708l-8.413 24.438h-37.716l-5.265 15.453H358.2l-8.012 23.522h-38.574l-5.952 17.284h47.845z" class="cls-2"/><path d="M435.978 209.285H400.38l-4.636-39.833-16.254 15.395-8.355 24.438h-30.677l36.228-105.936h30.676l-14.937 43.725 44.068-43.725h29.188l-39.947 38.689 10.244 67.247z" class="cls-2"/><path d="M500.135 128.76l-27.529 80.525h-28.501l-.687-4.75 25.926-75.775h-21.691l26.213-25.411h95.863l-47.674 25.411h-21.92z" class="cls-1"/><path d="M531.84124 210.88759q-22.32036 0-31.363-14.59408-9.014-14.59408-.57231-39.08925a84.67712 84.67712 0 0 1 26.8989-38.63141 65.93082 65.93082 0 0 1 42.69484-15.22362c14.70856 0 25.12474 4.80748 31.13407 14.36515 5.95211 9.5577 6.1238 22.37758.62953 38.34524-5.72317 16.54-15.05193 29.875-27.87185 39.83326-12.93435 10.01558-26.72722 14.99471-41.55021 14.99471zm8.06966-23.63669c5.55148 0 10.30171-2.34648 14.36514-7.09674s8.2986-13.39224 12.6482-25.926c6.29549-18.19968 4.46407-27.24228-5.437-27.24228-10.75956 0-19.68773 10.35892-26.89891 31.07681q-10.12995 29.18817 5.32258 29.18817z" class="cls-2"/><path d="M669.76966 209.28511h-26.49827l-13.16329-46.70106a114.39114 114.39114 0 0 1-3.54838-22.03421 77.47613 77.47613 0 0 1-3.37672 17.39846l-17.5701 51.33685h-26.38381L615.45676 103.292h30.67618l11.44634 38.80309a105.71417 105.71417 0 0 1 4.17791 20.37448 162.50286 162.50286 0 0 1 7.03949-27.8146L679.499 103.292h26.55553z" class="cls-2"/></svg>
