<?xml version="1.0" encoding="UTF-8" standalone="no"?>
<svg
   xmlns:dc="http://purl.org/dc/elements/1.1/"
   xmlns:cc="http://creativecommons.org/ns#"
   xmlns:rdf="http://www.w3.org/1999/02/22-rdf-syntax-ns#"
   xmlns:svg="http://www.w3.org/2000/svg"
   xmlns="http://www.w3.org/2000/svg"
   xmlns:sodipodi="http://sodipodi.sourceforge.net/DTD/sodipodi-0.dtd"
   xmlns:inkscape="http://www.inkscape.org/namespaces/inkscape"
   version="1.1"
   id="Layer_1"
   x="0px"
   y="0px"
   viewBox="0 0 588.56793 118.06933"
   xml:space="preserve"
   sodipodi:docname="kubewarden.logo-hrztl_white.inversed.svg"
   width="588.56793"
   height="118.06933"
   inkscape:version="1.0.1 (3bc2e813f5, 2020-09-07)"
   inkscape:export-filename="/home/flavio/cncf-artwork/projects/kubewarden/horizontal/white/kubewarden.logo-hrztl_white.inversed.png"
   inkscape:export-xdpi="144"
   inkscape:export-ydpi="144"><metadata
   id="metadata41"><rdf:RDF><cc:Work
       rdf:about=""><dc:format>image/svg+xml</dc:format><dc:type
         rdf:resource="http://purl.org/dc/dcmitype/StillImage" /><dc:title></dc:title></cc:Work></rdf:RDF></metadata><defs
   id="defs39">
	
	
</defs><sodipodi:namedview
   pagecolor="#ffffff"
   bordercolor="#666666"
   borderopacity="1"
   objecttolerance="10"
   gridtolerance="10"
   guidetolerance="10"
   inkscape:pageopacity="0"
   inkscape:pageshadow="2"
   inkscape:window-width="1920"
   inkscape:window-height="1043"
   id="namedview37"
   showgrid="false"
   inkscape:pagecheckerboard="true"
   inkscape:zoom="1.7499139"
   inkscape:cx="232.36852"
   inkscape:cy="59.14303"
   inkscape:window-x="0"
   inkscape:window-y="0"
   inkscape:window-maximized="1"
   inkscape:current-layer="Layer_1" />
<style
   type="text/css"
   id="style2">
	.st0{fill:#FFFFFF;}
</style>
<g
   id="g32"
   transform="translate(-111.46651,-23.79637)">
		<path
   class="st0"
   d="m 230.01492,57.177681 h 12.52442 v 14.174805 c 0,1.574218 -0.22559,3.899414 -0.375,5.624023 h 0.2998 c 0.8252,-1.274414 1.875,-3.224609 3.14942,-4.724609 l 12.375,-15.074219 h 13.49902 l -16.49902,19.874023 17.39941,30.749026 h -14.39941 l -11.69922,-21.224612 -3.75,4.575196 v 16.649416 h -12.52442 z"
   id="path12" />
		<path
   class="st0"
   d="m 275.91434,57.177681 h 12.52441 v 32.473633 c 0,6.450195 2.7002,9.149414 7.875,9.149414 5.09961,0 8.17383,-2.625 8.17383,-9.374024 V 57.177681 h 12.15039 v 32.023438 c 0,11.625001 -7.5752,19.500001 -20.69922,19.500001 -12.2998,0 -20.02441,-7.2002 -20.02441,-18.375001 z"
   id="path14" />
		<path
   class="st0"
   d="m 325.33914,57.177681 h 21.67383 c 8.9248,0 15.67383,3 15.67383,12.224609 0,6.97461 -3.82422,9.674805 -10.34961,11.09961 v 0.299804 c 7.4248,0.900391 11.9248,4.799805 11.9248,12.375 0,9.899416 -7.125,14.624026 -16.64941,14.624026 h -22.27344 z m 17.99903,19.423828 c 3.2998,0 6.5996,-0.899414 6.5996,-5.249023 0,-4.424805 -2.9248,-5.09961 -5.8496,-5.09961 h -6.29981 v 10.348633 z m 1.20019,22.125 c 3.82422,0 7.12402,-1.875 7.12402,-6.90039 0,-4.34961 -3.2998,-6.149415 -7.12402,-6.149415 h -6.75 v 13.049805 z"
   id="path16" />
		<path
   class="st0"
   d="m 370.93777,57.177681 h 33.52344 v 9.299805 h -20.99902 v 10.874023 h 17.62402 v 9.299805 h -17.62402 v 11.849609 h 21.74902 v 9.299807 h -34.27344 z"
   id="path18" />
		<path
   class="st0"
   d="m 407.68777,57.177681 h 12.29883 l 7.27539,28.649414 c 0.89942,3.524414 1.125,9.59961 1.125,9.59961 h 0.29981 c 0,0 0.22461,-6.225586 0.97461,-9.450196 l 6.45019,-28.798828 h 11.47461 l 6.52442,28.574219 c 0.82519,3.599609 1.125,10.349609 1.125,10.349609 h 0.2998 c 0,0 0.375,-6.90039 1.2002,-10.200195 l 6.97461,-28.723633 h 10.64941 l -13.19922,50.623049 h -13.27441 l -5.17481,-21.749025 c -0.97558,-3.97461 -1.5,-10.949219 -1.5,-10.949219 h -0.2998 c 0,0 -0.4502,6.974609 -1.42578,10.949219 l -5.17481,21.749025 h -13.42383 z"
   id="path20" />
		<path
   class="st0"
   d="m 489.66238,57.177681 h 12.67383 l 17.09958,50.623049 h -12.67477 l -3.14942,-9.599612 h -16.94922 l -3.07519,9.599612 h -10.94922 z m 0,31.723633 h 10.87403 L 497.08719,78.2519 c -1.2002,-3.59961 -1.72559,-8.699219 -1.72559,-8.699219 h -0.2998 c 0,0 -0.75,5.174805 -1.875,8.624023 z"
   id="path22" />
		<path
   class="st0"
   d="m 524.08716,57.177681 h 20.84863 c 9.89942,0 16.57422,4.799805 16.57422,14.099609 0,7.574219 -5.1748,12.149414 -10.19922,13.72461 1.5,1.274414 2.625,3 3.52442,4.799804 2.10058,4.274415 3.52539,8.999024 7.95019,8.999024 1.125,0 2.02441,-0.375 2.02441,-0.375 l -0.9746,8.924802 c 0,0 -2.7002,0.67481 -5.02442,0.67481 -6,0 -9.45019,-2.32422 -12.97461,-10.349612 -1.5,-3.59961 -3.60058,-9.899414 -6.375,-9.899414 h -2.84961 v 20.024416 h -12.52441 z m 12.52441,9.075195 v 12.449219 h 4.49903 c 3.60058,0 7.7998,-1.125 7.7998,-6.525391 0,-4.424804 -2.84961,-5.923828 -6.2998,-5.923828 z"
   id="path24" />
		<path
   class="st0"
   d="m 570.06177,57.177681 h 19.34863 c 12.59961,0 22.34961,7.349609 22.34961,25.048828 0,17.324219 -9.2998,25.574221 -22.34961,25.574221 h -19.34863 z m 18.14844,41.548828 c 5.5498,0 10.875,-3.375 10.875,-16.5 0,-13.048828 -5.3252,-15.973633 -10.875,-15.973633 h -5.62403 v 32.473633 z"
   id="path26" />
		<path
   class="st0"
   d="m 618.66138,57.177681 h 33.52343 v 9.299805 h -20.99902 v 10.874023 h 17.62402 v 9.299805 h -17.62402 v 11.849609 h 21.74902 v 9.299807 h -34.27343 z"
   id="path28" />
		<path
   class="st0"
   d="m 659.46118,57.177681 h 13.42383 l 13.27441,25.124023 c 1.125,2.174805 2.625,6 3.8252,9 h 0.2998 c -0.14941,-2.850585 -0.52441,-6.90039 -0.52441,-9.825195 V 57.177681 h 10.27441 v 50.623049 h -13.125 L 673.1106,82.7519 c -1.27539,-2.25 -2.625,-5.549805 -3.67481,-8.25 h -0.30078 c 0.22559,2.849609 0.60059,6.224609 0.60059,9 v 24.29883 h -10.27442 z"
   id="path30" />
	</g>
<g
   id="g65"
   transform="translate(-20.84315,119.29746)"><path
     d="m 35.815359,-87.413698 v 38.2771 c 0,17.43066 31.5614,31.561283 31.5614,31.561283 0,0 31.56116,-14.130623 31.56116,-31.561283 v -38.2771 l -31.56116,-15.319822 z m 46.28998,11.99683 3.31464,1.59619 0.8186,3.58667 2.81909,12.35107 0.8186,3.58667 -2.2937,2.87622 -7.89893,9.90503 -2.29382,2.87622 h -20.02649 l -2.2937,-2.87622 -7.8988,-9.90503 -2.2937,-2.87622 0.8186,-3.58667 2.81909,-12.35107 0.8186,-3.58667 3.31458,-1.59619 11.41406,-5.49683 3.31458,-1.59619 3.31458,1.59619 z"
     id="path2"
     style="fill:none" /><polygon
     points="93.66565,96.37646 106.33435,96.37646 114.23328,86.47144 111.41418,74.12036 100,68.62354 88.58594,74.12036 85.76685,86.47144 "
     id="polygon4"
     style="fill:none"
     transform="translate(-32.623361,-142.65441)" /><path
     style="fill:#000000;fill-opacity:1;stroke-width:0.19389"
     d="M 63.789682,-2.8418753 C 54.666708,-7.0175553 47.99335,-10.897375 41.423178,-15.845535 28.840534,-25.321838 22.106811,-35.444068 21.040418,-46.485205 20.931702,-47.610825 20.851054,-58.552006 20.84815,-72.569607 l -0.005,-24.145507 23.269811,-11.291176 23.269808,-11.29117 23.26368,11.28931 23.263681,11.289305 -0.005,24.147372 c -0.003,14.018802 -0.0836,24.960638 -0.19227,26.086268 -1.06582,11.035167 -7.80691,21.168477 -20.382761,30.63967 -6.64657,5.00569 -13.9523,9.2301297 -22.84017,13.2070097 -1.75347,0.78459 -3.193095,1.41923 -3.199175,1.4103 -0.0061,-0.009 -1.581563,-0.73507 -3.50107,-1.61365 z m 6.883077,-16.2617697 c 15.41997,-8.078273 25.30004,-17.270133 27.76439,-25.830444 l 0.44654,-1.551116 v -20.534 -20.533998 l -15.75278,-7.643384 -15.75279,-7.643383 -15.754265,7.646235 -15.754266,7.646234 v 20.531148 20.531148 l 0.447197,1.551116 c 2.492019,8.643651 12.692453,18.077301 28.127383,26.013004 1.970659,1.01319 2.907952,1.39725 3.199181,1.31088 0.22654,-0.0672 1.58978,-0.73924 3.02941,-1.49344 z"
     id="path15" /><path
     style="fill:#000000;fill-opacity:1;stroke-width:0.19389"
     d="m 51.360145,-46.330883 c -3.379151,-4.23401 -6.180682,-7.838812 -6.225624,-8.01067 -0.08912,-0.340804 4.162192,-19.212205 4.372348,-19.408667 0.07088,-0.06626 4.121186,-2.042163 9.000674,-4.390888 l 8.871796,-4.270409 8.8691,4.267277 c 4.878,2.347002 8.92718,4.322901 8.99818,4.390887 0.21193,0.202937 4.46268,19.065567 4.37341,19.406925 -0.0452,0.172909 -2.84461,3.779237 -6.22087,8.014064 l -6.13866,7.699686 h -9.87822 -9.878223 z m 26.229344,-4.662254 c 2.09588,-2.639322 3.87876,-4.889061 3.96196,-4.999423 0.0832,-0.11036 -0.48492,-2.989619 -1.26248,-6.398354 l -1.41376,-6.197699 -5.74303,-2.774806 -5.74303,-2.774806 -5.755386,2.774806 -5.755387,2.774806 -1.413909,6.197699 c -0.77765,3.408735 -1.343675,6.287994 -1.257833,6.398354 0.08584,0.110362 1.869777,2.360101 3.9643,4.999423 l 3.808225,4.798766 h 6.39983 6.39982 z"
     id="path17" /><path
     style="fill:#ffffff;stroke-width:0.19389"
     d="M 64.95302,-2.3949753 C 51.335711,-8.5878153 41.052223,-15.286075 33.444546,-22.918358 c -6.391011,-6.41168 -10.242438,-13.01799 -11.844649,-20.317007 -0.400547,-1.824727 -0.421572,-2.546357 -0.586167,-20.11823 -0.09389,-10.02409 -0.148875,-21.617821 -0.122177,-25.763849 l 0.04854,-7.538231 23.127626,-11.220575 c 12.720193,-6.17132 23.213367,-11.22058 23.31816,-11.22058 0.23581,0 46.166711,22.265846 46.406471,22.496384 0.10147,0.09757 0.0931,10.777362 -0.0202,25.819431 -0.19014,25.244562 -0.19991,25.683173 -0.61373,27.54565 -1.2587,5.665017 -3.9541,11.066297 -8.10228,16.236057 -1.68913,2.10511 -5.628921,6.05976 -8.061221,8.091623 -5.41185,4.52087 -11.18318,8.34949 -18.37272,12.1881997 -3.36538,1.79688 -10.88535,5.32241 -11.313502,5.30403 -0.122608,-0.005 -1.182676,-0.44605 -2.355707,-0.97952 z m 6.360139,-16.9591027 c 7.7526,-4.14748 13.59331,-8.17032 18.3466,-12.63638 4.62776,-4.34812 7.46485,-8.46868 8.81871,-12.808223 l 0.50217,-1.609597 v -20.60304 -20.60304 l -15.65659,-7.59873 c -8.61111,-4.179303 -15.78521,-7.598352 -15.94242,-7.597882 -0.15722,4.7e-4 -7.333557,3.421177 -15.947418,7.601573 l -15.661567,7.600722 v 20.600198 20.600199 l 0.503079,1.609597 c 2.649533,8.477153 11.719281,17.077263 26.447567,25.078073 3.112034,1.690543 4.42878,2.241673 5.041129,2.109973 0.2666,-0.0573 1.86353,-0.84189 3.54874,-1.743443 z"
     id="path11" /><path
     style="fill:#ffffff;stroke-width:0.19389"
     d="m 52.66748,-44.844803 c -2.704755,-3.40814 -5.491347,-6.943427 -6.192427,-7.856191 l -1.274691,-1.659572 0.244639,-1.200394 c 0.545689,-2.677587 2.60541,-11.874621 3.335235,-14.892442 l 0.779208,-3.222016 4.982334,-2.425577 c 2.740284,-1.334067 6.749083,-3.27865 8.908442,-4.321295 l 3.926107,-1.895718 3.732532,1.797338 c 2.05289,0.988536 6.06184,2.933178 8.90878,4.321426 l 5.17626,2.524089 0.77917,3.221884 c 0.7298,3.017717 2.78953,12.214772 3.33521,14.892311 l 0.24464,1.200394 -1.24825,1.62429 c -0.68653,0.89336 -3.47312,4.430915 -6.19242,7.861234 l -4.94419,6.236944 -9.79142,-0.005 -9.791422,-0.005 -4.917737,-6.196621 z m 25.135739,-6.258035 3.89439,-4.908465 -0.37164,-1.926141 c -0.20441,-1.059376 -0.82114,-3.900924 -1.37053,-6.314548 l -0.99889,-4.388408 -5.64454,-2.740935 c -3.10449,-1.507514 -5.76615,-2.739178 -5.91479,-2.737032 -0.148638,0.0021 -2.818899,1.232689 -5.933914,2.73454 l -5.663662,2.730638 -1.000344,4.394803 c -0.550189,2.417141 -1.16727,5.259953 -1.371292,6.317357 l -0.37095,1.922556 3.897722,4.91205 3.897723,4.912052 h 6.528167 6.52816 z"
     id="path13" /></g></svg>
