<?xml version="1.0" encoding="utf-8"?>
<!-- Generator: Adobe Illustrator 26.1.0, SVG Export Plug-In . SVG Version: 6.00 Build 0)  -->
<svg version="1.1" id="Layer_1" xmlns="http://www.w3.org/2000/svg" xmlns:xlink="http://www.w3.org/1999/xlink" x="0px" y="0px"
	 viewBox="0 0 117.1 249.3" style="enable-background:new 0 0 117.1 249.3;" xml:space="preserve">
<style type="text/css">
	.st0{fill:#141419;}
	.st1{fill:none;}
	.st2{fill:#0086FF;}
	.st3{fill:#93EAFF;}
	.st4{fill:#444445;}
	.st5{fill:#FFFFFF;}
</style>
<path class="st0" d="M9,215.8l6.2-7c4.3,3.3,8.8,5.4,14.2,5.4c4.3,0,6.9-1.6,6.9-4.2v-0.1c0-2.5-1.6-3.8-9.6-5.7
	c-9.6-2.3-15.7-4.8-15.7-13.7v-0.1c0-8.1,6.9-13.5,16.6-13.5c6.4-0.1,12.6,1.9,17.6,5.7l-5.4,7.4c-4.2-2.8-8.3-4.4-12.3-4.4
	c-4,0-6.1,1.7-6.1,3.9v0.1c0,2.9,2,3.9,10.2,5.9c9.6,2.4,15.1,5.6,15.1,13.5v0.1c0,8.9-7.2,13.9-17.4,13.9
	C21.8,223,14.7,220.4,9,215.8z M53.3,179h9.9v43.3h-9.9L53.3,179z M70.4,200v-0.1c0-12.8,9.5-23.2,22.4-23.2
	c7.7,0,12.3,2.2,16.8,6.2l-5.9,7.5c-3.3-2.9-6.2-4.6-11.2-4.6c-6.8,0-12.3,6.3-12.3,14v0.1c0,8.2,5.4,14.2,13,14.2
	c3.2,0.1,6.3-0.9,8.9-2.7V205h-9.5v-8.5h18.6v19.5c-5,4.6-11.5,7.1-18.3,7.1C79.6,223.1,70.4,213.3,70.4,200L70.4,200z M9.8,242.3
	l1.8-2.2c1.1,1,2.6,1.6,4.1,1.7c1.3,0,2-0.5,2-1.3v0c0-0.8-0.5-1.2-2.8-1.8c-2.8-0.7-4.6-1.5-4.6-4.2v0c0-2.5,2-4.2,4.9-4.2
	c1.9,0,3.7,0.6,5.2,1.8l-1.6,2.3c-1-0.8-2.3-1.3-3.6-1.4c-1.2,0-1.8,0.5-1.8,1.2v0c0,0.9,0.6,1.2,3,1.8c2.8,0.7,4.4,1.7,4.4,4.2v0
	c0,2.8-2.1,4.3-5.1,4.3C13.5,244.6,11.4,243.8,9.8,242.3L9.8,242.3z M23.3,230.5h10.5v2.7h-7.4v2.8h6.5v2.7h-6.5v2.9h7.5v2.7H23.3
	L23.3,230.5z M35.7,237.5L35.7,237.5c-0.1-3.9,3-7.2,6.9-7.2c0.1,0,0.2,0,0.3,0c2-0.1,4,0.7,5.5,2.1l-1.9,2.2
	c-0.9-1-2.2-1.5-3.6-1.6c-2.3,0-4.1,1.9-4,4.2c0,0,0,0.1,0,0.1v0c-0.1,2.3,1.6,4.2,3.9,4.4c0.1,0,0.1,0,0.2,0c1.4,0,2.7-0.6,3.7-1.6
	l1.9,2c-1.4,1.7-3.5,2.6-5.7,2.5c-3.9,0.1-7.1-3-7.1-6.9C35.7,237.6,35.7,237.5,35.7,237.5z M50.6,238.4v-7.9h3.1v7.9
	c0,2.3,1.1,3.4,3,3.4c1.9,0,3-1.1,3-3.3v-8h3.1v7.8c0,4.2-2.4,6.3-6.1,6.3C52.9,244.6,50.6,242.5,50.6,238.4z M65.6,230.5H72
	c1.5-0.1,2.9,0.4,4,1.4c0.8,0.9,1.2,2,1.2,3.2v0c0.1,1.9-1.1,3.7-3,4.3l3.4,5H74l-3-4.4h-2.4v4.4h-3.1L65.6,230.5z M71.8,237.2
	c1.5,0,2.3-0.8,2.3-2v0c0-1.3-0.9-2-2.4-2h-3v4L71.8,237.2z M79.9,230.5h3.1v13.9h-3.1V230.5z M89.5,233.3h-4.2v-2.8h11.5v2.8h-4.2
	v11.1h-3.1L89.5,233.3z M102.8,238.9l-5.3-8.4h3.6l3.3,5.6l3.4-5.6h3.5l-5.3,8.4v5.5h-3.1L102.8,238.9z"/>
<path class="st1" d="M5,66.8v41.4l53.7,29.6l53.7-29.6V66.8L58.7,37.2L5,66.8z"/>
<path class="st2" d="M58.7,37.2l53.7,29.6V36l0-1.4L58.8,4.8h-0.2L5,34.6v32.2C5,66.8,58.7,37.2,58.7,37.2z"/>
<path class="st3" d="M58.7,138.6L5,109v32.2L58.6,171h0.2l53.6-29.8l0-1.4v-30.8L58.7,138.6L58.7,138.6z"/>
<path class="st4" d="M87.3,58.9l4.5-0.2l1.5,4.8l-1.5-4.8L87.3,58.9z"/>
<path class="st5" d="M18.3,51.5l4.8,5.2l1.4,6.8l1.5-4.8l4.5,0.2l-3-6.2l7.2-2l-16.4-8.5l5,8.5C23.3,50.7,18.3,51.5,18.3,51.5z
	 M86.9,58.9l4.5-0.2l1.5,4.8l1.4-6.8l4.8-5.2l-4.9-0.8l5-8.5l-16.4,8.5l7.2,2L86.9,58.9z"/>
<path class="st0" d="M43.9,104.6c0,0,7.3-4.7,6.9-12.2c0-0.7,0.5-7.5-6.4-10.3c-7-2.9-15,1.5-18.8,3c-1.1,0.4-2,1.1-2.8,2
	c-0.2,0.2-0.5,0.5-0.3,0.9c0.2,0.3,0.5,0.2,0.8,0.2c0.3,0,0.5-0.2,0.8-0.2c0.4-0.1,1-0.4,1.3,0.1c0.3,0.5-0.1,0.9-0.5,1.2
	c-1.6,1.4-3.3,2.5-5.2,3.4c-2.5,1.3-5.3,1.7-8.1,1.1c-2.1-0.6-4-1.7-5.5-3.4c-0.2-0.2-0.3-0.5-0.7-0.4c-0.3,0.1-0.2,0.5-0.2,0.7
	c0,1.1,0.2,2.2,0.8,3.2c2,3.8,5.3,6.1,9,8l32.6,19.4C44.7,117.4,37.1,110.9,43.9,104.6z M33,89.6c-0.3-0.7-0.3-1.4,0.1-2
	c1.2-1.6,3.2-2.4,5.2-2.2c0.8,0,1.7,0.1,2.5,0.3c2.8,0.7,5,2.7,6,5.3c0.2,0.5,0.1,1.2-0.3,1.6c-1.2,1.5-3.2,2.4-5.1,2.2
	c-1.8,0-3.6-0.5-5.2-1.4C34.8,92.5,33.7,91.2,33,89.6z M111.7,89.9c-0.3-0.1-0.5,0.2-0.7,0.4c-1.4,1.7-3.3,2.9-5.5,3.4
	c-2.7,0.6-5.6,0.2-8.1-1.1c-1.9-0.9-3.6-2.1-5.2-3.4c-0.3-0.3-0.8-0.7-0.5-1.2c0.3-0.5,0.8-0.2,1.3-0.1c0.3,0.1,0.5,0.2,0.8,0.2
	c0.3,0,0.6,0.1,0.8-0.2c0.2-0.4,0-0.6-0.3-0.9c-0.8-0.9-1.7-1.5-2.8-2c-3.8-1.4-11.7-5.9-18.8-3c-6.9,2.8-6.3,9.6-6.4,10.3
	c-0.5,7.4,6.9,12.2,6.9,12.2c6.9,6.3-0.8,12.8-3.7,16.7l32.6-19.4c3.7-1.9,7-4.2,9-8c0.5-1,0.8-2.1,0.8-3.2
	C112,90.3,112.1,90,111.7,89.9z M84.3,89.6c-0.7,1.6-1.8,2.9-3.2,3.8c-1.6,0.9-3.3,1.4-5.2,1.4c-2,0.1-3.9-0.7-5.1-2.2
	c-0.4-0.4-0.5-1-0.3-1.6c1-2.7,3.2-4.7,6-5.3c0.8-0.2,1.6-0.3,2.5-0.3c2-0.2,4,0.7,5.2,2.2C84.6,88.2,84.6,89,84.3,89.6z"/>
<path class="st0" d="M10.1,83.6c-0.7,0.9-1.8,1.6-2.3,2.8c1.4,0,2.8-0.4,4-1.2c2-1.3,4-2.8,5.8-4.3c0.6-0.5,1.6-1,1.4-1.6
	c-0.2-0.7-1.3-0.5-2-0.7c-0.3-0.1-0.7,0-0.8-0.5c0-0.4,0.3-0.6,0.6-0.7c5.2-2.9,12.8-6,21.1-3.9l-1.4-3.6c0,0,10.3,6.1,19.8,7.7
	c0.8,0.1,1.5,0.2,2.2,0.3c0.7-0.1,1.5-0.2,2.2-0.3c9.5-1.6,19.8-7.7,19.8-7.7l-1.4,3.6c8.3-2.1,15.9,1,21.1,3.9
	c0.3,0.2,0.6,0.3,0.6,0.7c-0.1,0.4-0.5,0.4-0.8,0.5c-0.7,0.2-1.8,0-2,0.7c-0.2,0.7,0.9,1.1,1.4,1.6c1.8,1.6,3.8,3,5.8,4.3
	c1.2,0.8,2.6,1.2,4,1.2c-0.6-1.2-1.6-1.9-2.3-2.8c-0.7-0.9-1.5-1.8-2.2-2.8c-0.5-0.7-0.2-1.1,0.6-1c0.8,0.1,1.5,0.2,2.3,0.4
	c0.4,0.1,0.9,0.3,1.2-0.2c0.2-0.4-0.1-0.8-0.3-1.1c-0.8-1-1.7-2-2.5-3.1c-0.8-1-1.5-2-2.3-3c-2.6-3.1-2.7-6.7-1.3-10.2
	c2.5-6.7,3.5-13.9,2.8-21.1c-0.1-1.4-0.2-2.8-0.3-4.2c-0.3-2.6-1.8-4.1-4.5-4.4c-2.4-0.3-4.6,0.6-6.8,1.4
	c-5.9,2.1-14.2,8.4-19.2,12.7c-0.3,0.3-0.6,0.5-0.9,0.8l-14.9-0.4l-14.9,0.4c-0.3-0.2-0.6-0.5-0.9-0.8c-5-4.3-13.3-10.6-19.2-12.7
	c-2.2-0.8-4.4-1.7-6.8-1.4c-2.7,0.3-4.2,1.8-4.5,4.4c-0.1,1.4-0.2,2.8-0.3,4.2c-0.7,7.1,0.2,14.4,2.8,21.1c1.4,3.5,1.3,7.1-1.3,10.2
	c-0.8,1-1.6,2-2.3,3c-0.8,1-1.7,2-2.5,3.1c-0.3,0.3-0.5,0.7-0.3,1.1c0.3,0.5,0.7,0.2,1.2,0.2c0.8-0.1,1.5-0.3,2.3-0.4
	c0.8-0.1,1.1,0.3,0.6,1C11.6,81.7,10.8,82.6,10.1,83.6L10.1,83.6z M99.1,42.2l-5,8.5l4.9,0.8l-4.8,5.2l-1.4,6.8l-1.5-4.8l-4.5,0.2
	l3-6.2l-7.2-2L99.1,42.2z M34.6,50.7l-7.2,2l3,6.2L26,58.7l-1.5,4.8l-1.4-6.8l-4.8-5.2l4.9-0.8l-5-8.5L34.6,50.7z M67.1,106.6
	c-2.4-1.8-5.4-2.9-8.4-3c-3.1,0.1-6,1.2-8.4,3c-0.9,0.6-1.4,1.8-1.3,2.9c0,1.1,0.6,2.1,1.6,2.6c0.3,0.2,0.5,0.3,0.8,0.3
	c0.5,0,1.1,0,2,0h0c0.1,0,0.1,0,0.1,0c1.6-0.3,2.9,0.9,4,3.2c0.4,0.8,0.7,1.3,1.1,1.4c0.4-0.1,0.7-0.5,1.1-1.4
	c1.1-2.3,2.5-3.6,4-3.2c0.1,0,0.1,0,0.1,0h0c0.9,0,1.5,0,2,0c0.3,0,0.6-0.2,0.8-0.3c1-0.5,1.6-1.5,1.6-2.6
	C68.5,108.4,68,107.2,67.1,106.6z"/>
</svg>
