<?xml version="1.0" encoding="UTF-8" standalone="no"?>
<svg
   role="img"
   viewBox="6.00 7.88 77.87 74.12"
   version="1.1"
   id="svg1"
   sodipodi:docname="podman-icon-black.svg"
   inkscape:export-filename="podman-icon-black.png"
   inkscape:export-xdpi="300"
   inkscape:export-ydpi="300"
   inkscape:version="1.4 (e7c3feb1, 2024-10-09)"
   xmlns:inkscape="http://www.inkscape.org/namespaces/inkscape"
   xmlns:sodipodi="http://sodipodi.sourceforge.net/DTD/sodipodi-0.dtd"
   xmlns="http://www.w3.org/2000/svg"
   xmlns:svg="http://www.w3.org/2000/svg">
  <defs
     id="defs1" />
  <sodipodi:namedview
     id="namedview1"
     pagecolor="#ffffff"
     bordercolor="#000000"
     borderopacity="0.25"
     inkscape:showpageshadow="2"
     inkscape:pageopacity="0.0"
     inkscape:pagecheckerboard="0"
     inkscape:deskcolor="#d1d1d1"
     inkscape:zoom="0.64759846"
     inkscape:cx="39.376251"
     inkscape:cy="36.287918"
     inkscape:window-width="1280"
     inkscape:window-height="736"
     inkscape:window-x="0"
     inkscape:window-y="38"
     inkscape:window-maximized="0"
     inkscape:current-layer="svg1" />
  <g
     id="layer1"
     transform="translate(436.449 62.07)">
    <g
       id="g3147"
       transform="translate(147.458 158.575) scale(1.1372)">
      <g
         id="g3"
         fill="none"
         fill-opacity="1"
         stroke="#000"
         stroke-dasharray="none"
         stroke-linejoin="round"
         stroke-miterlimit="4"
         stroke-opacity="1"
         stroke-width="1.374">
        <path
           id="path10200"
           d="m -455.9013,-124.32208 c -5.5554,0.61207 -10.15838,0.72756 -15.08432,0.0139" />
        <path
           id="path10198"
           d="m -458.77064,-127.6947 c -12.41384,0.25266 -18.71067,-0.70982 -29.09162,-3.23324" />
        <path
           id="path10340"
           d="m -505.35243,-134.46781 c 4.78315,1.26171 8.33422,1.63659 13.39134,1.65487" />
        <path
           id="path10348"
           d="m -444.08179,-150.6252 c -2.77363,0.65127 -4.83282,0.84476 -7.76516,0.85419" />
      </g>
      <g
         id="g9866"
         stroke-dasharray="none"
         stroke-width="1.073"
         transform="matrix(1.61304 0 0 1.6122 -2404.495 261.954)">
        <path
           id="path10202"
           stroke-linejoin="round"
           stroke-width="0"
           d="m -501.67574,-149.15447 -0.97654,0.96701 c 0.84433,0.85168 2.28942,1.29131 4.24972,1.69543 1.96029,0.40413 4.43045,0.69836 7.20525,0.91565 1.03093,0.0807 2.11395,0.14726 3.21682,0.20722 0.502,-0.61546 1.24741,-1.02165 2.09351,-1.05107 0.99736,-0.0347 1.89284,0.46236 2.4325,1.2342 3.55436,0.10975 7.22851,0.15103 10.7279,0.13723 6.14015,-0.0242 12.48301,0.0866 18.08403,-0.10724 1.25519,-0.0434 2.46505,-0.10387 3.63489,-0.18177 l -0.14451,-0.17768 c -0.34809,-0.43134 -0.91443,-0.70716 -1.46868,-0.71116 -0.52345,-0.004 -1.06336,0.23048 -1.41824,0.61528 l -0.31036,0.33582 -0.67391,-0.61892 0.31037,-0.33809 c 0.10442,-0.11322 0.21807,-0.2167 0.33854,-0.31037 -0.10636,0.004 -0.20796,0.01 -0.31491,0.0136 -3.75771,0.13004 -7.89281,0.12434 -12.0748,0.11315 l 0.3131,0.2931 -0.62892,0.66799 -0.33218,-0.31446 c -0.38102,-0.35894 -0.93682,-0.55429 -1.45868,-0.51349 -0.55259,0.0432 -1.09948,0.35552 -1.41642,0.81023 l -0.26129,0.37717 -0.75206,-0.52349 0.26174,-0.37717 c 0.10756,-0.15432 0.23055,-0.29556 0.36535,-0.42397 -0.68852,-1e-5 -1.37346,-0.005 -2.05897,-0.002 -6.13947,0.0242 -12.87504,-0.0937 -18.35712,-0.52304 -2.08402,-0.16319 -3.98352,-0.37285 -5.59616,-0.63255 l -0.15405,0.15769 -0.2313,-0.22721 c -0.36079,-0.0619 -0.72634,-0.12335 -1.05379,-0.19086 -0.17064,-0.0352 -0.31066,-0.0772 -0.47169,-0.11496 -0.16373,0.0843 -0.31017,0.20223 -0.41897,0.34354 l -0.27947,0.36126 -0.72616,-0.55848 0.27901,-0.36126 c 0.0192,-0.025 0.0393,-0.0491 0.0595,-0.0732 -1.01392,-0.31293 -1.735,-0.65305 -1.99308,-0.91338 z m 60.22858,0.74843 c -2.2751,0.91106 -5.68162,1.42201 -9.69365,1.69543 0.26463,0.16465 0.50307,0.37288 0.70162,0.61892 l 0.28901,0.35717 -0.46259,0.37263 c 3.88472,-0.27643 7.2269,-0.78852 9.67547,-1.76905 z"
           transform="matrix(.61995 0 0 .62027 1490.664 -162.482)" />
        <path
           id="path27"
           stroke-linejoin="round"
           stroke-width="0"
           d="m 1196.4004,-277.71472 c -6.5447,0 -11.8594,5.31344 -11.8594,11.85733 0,2.8087 0.032,5.51327 -0.4181,7.53133 -0.2248,1.00903 -0.5672,1.83923 -1.0623,2.43923 -0.495,0.60001 -1.1345,0.98783 -2.0585,1.13675 a 0.42597908,0.42597908 0 0 0 -0.306,0.56287 l 0.1533,-0.19843 c 0.2358,-0.30641 0.5973,-0.49754 0.9832,-0.51975 0.3737,-0.0215 0.7421,0.11629 1.0099,0.37798 l 0.2034,0.19871 -0.3972,0.40701 -0.2023,-0.19872 c -0.1493,-0.14586 -0.3728,-0.22985 -0.5811,-0.21788 -0.2147,0.0123 -0.4343,0.12858 -0.5654,0.29906 l -0.1733,0.22408 -0.3888,-0.29906 a 0.42597908,0.42597908 0 0 0 0.069,0.12008 c 0.2283,0.17984 0.504,0.27995 0.8632,0.38079 0.3593,0.10083 0.7979,0.18917 1.3108,0.26946 1.0257,0.16059 2.3477,0.28696 3.8691,0.38671 0.4759,0.0312 1.0008,0.0549 1.5122,0.0806 0.2922,-0.25214 0.6652,-0.41072 1.077,-0.42505 0.5059,-0.0176 0.9692,0.18568 1.3044,0.52229 2.1527,0.0693 4.4537,0.1037 6.7507,0.0958 0.3855,-0.001 0.7624,-0.008 1.1455,-0.0115 l -0.1578,-0.10965 0.1623,-0.23394 c 0.087,-0.12552 0.1912,-0.23749 0.3068,-0.33485 -3.3961,0.0359 -6.9226,0.001 -9.9857,-0.13304 a 8.2351559,7.2429689 0 0 1 0.4059,-0.74524 c -0.099,-0.0445 -0.2068,-0.0695 -0.3121,-0.0696 -0.2076,-3.1e-4 -0.4248,0.0941 -0.5665,0.24578 l -0.1939,0.20717 -0.4141,-0.38756 0.1938,-0.20717 c 0.2534,-0.27116 0.6108,-0.42587 0.9818,-0.42533 0.2127,3.1e-4 0.4206,0.0519 0.6068,0.14657 a 8.2351559,7.2429689 0 0 1 6.9939,-3.45364 8.2351559,7.2429689 0 0 1 7.7064,4.70031 c -1.012,0.0399 -2.0971,0.0676 -3.1944,0.091 0.037,0.0297 0.074,0.0602 0.1084,0.093 l 0.2071,0.19392 -0.3634,0.38615 c 2.4407,-0.0513 4.7375,-0.14174 6.5978,-0.27482 0.3498,-0.025 0.6364,-0.0556 0.9547,-0.0834 l 0.088,-0.0958 c 0.3327,-0.36098 0.8096,-0.56688 1.3004,-0.56316 0.3854,0.003 0.7598,0.1359 1.0609,0.36896 0.3859,-0.0691 0.7009,-0.14213 0.9477,-0.23395 0.1293,-0.0481 0.2431,-0.0972 0.3536,-0.18152 0.1106,-0.0844 0.2499,-0.2426 0.2499,-0.46873 a 0.42597908,0.42597908 0 0 0 -0.3829,-0.42195 c -0.9039,-0.0939 -1.5268,-0.41144 -2.0154,-0.93155 -0.4886,-0.52011 -0.8407,-1.26913 -1.0899,-2.23459 -0.4985,-1.93093 -0.5656,-4.68784 -0.6874,-7.90621 -0.2518,-6.64548 -5.557,-11.95683 -12.1017,-11.95683 z m -5.9972,6.38303 c 0.5412,-0.0133 1.0767,0.18958 1.4717,0.56203 l 0.2051,0.19533 -0.3885,0.41208 -0.207,-0.19505 c -0.3004,-0.28313 -0.7351,-0.4347 -1.1466,-0.4025 -0.4359,0.0341 -0.8636,0.27796 -1.1134,0.63673 l -0.162,0.23451 -0.4668,-0.32443 0.164,-0.23422 c 0.3512,-0.50445 0.9223,-0.83085 1.5351,-0.87885 0.036,-0.003 0.072,-0.005 0.1084,-0.006 z m 12.1983,0.0465 c 0.6147,0.005 1.2078,0.29096 1.5937,0.76949 l 0.1797,0.22267 -0.4434,0.35542 -0.1777,-0.22069 c -0.2744,-0.34036 -0.719,-0.55537 -1.1562,-0.55837 -0.4128,-0.003 -0.8356,0.17874 -1.1153,0.48226 l -0.1913,0.20914 -0.4181,-0.38502 0.1916,-0.20886 c 0.3924,-0.42587 0.9578,-0.67004 1.537,-0.66604 z m -12.076,1.92765 c 0.039,-6.9e-4 0.079,-2.7e-4 0.1183,10e-4 1.2709,0.0447 2.2558,1.15446 2.2104,2.44825 -0.045,1.29378 -1.1057,2.33171 -2.3766,2.28702 -1.2709,-0.0447 -2.2558,-1.15446 -2.2103,-2.44825 0.044,-1.25335 1.0405,-2.26668 2.2582,-2.28815 z m 12.3169,0.005 c 1.2177,0.0215 2.2142,1.0348 2.2582,2.28815 0.045,1.29379 -0.9394,2.40355 -2.2103,2.44825 -1.2709,0.0447 -2.3311,-0.99323 -2.3766,-2.28702 -0.045,-1.29379 0.9395,-2.40355 2.2104,-2.44825 0.04,-0.001 0.079,-0.002 0.1183,-0.001 z m -12.5166,0.87857 a 0.76622485,0.80691439 2.0022637 0 1 0.2735,0.15925 0.76622487,0.80691442 2.0022637 0 0 -0.2735,-0.15925 z m 0.2949,0.1801 a 0.76622485,0.80691439 2.0022637 0 1 0.1764,0.25706 0.76622487,0.80691442 2.0022637 0 0 -0.1764,-0.25706 z m 0.1876,0.28243 a 0.76622485,0.80691439 2.0022637 0 1 0.06,0.33344 0.76622487,0.80691442 2.0022637 0 0 -0.06,-0.33344 z m 0.06,0.33344 a 0.76622485,0.80691439 2.0022637 0 1 -0.02,0.15672 0.76622487,0.80691442 2.0022637 0 0 0.02,-0.15672 z m -0.02,0.15672 a 0.76622485,0.80691439 2.0022637 0 1 -0.049,0.14995 0.76622487,0.80691442 2.0022637 0 0 0.049,-0.14995 z m -0.049,0.14995 a 0.76622485,0.80691439 2.0022637 0 1 -0.076,0.13698 0.76622487,0.80691442 2.0022637 0 0 0.076,-0.13698 z m -0.076,0.13698 a 0.76622485,0.80691439 2.0022637 0 1 -0.1,0.11895 0.76622487,0.80691442 2.0022637 0 0 0.1,-0.11895 z m -0.1,0.11895 a 0.76622485,0.80691439 2.0022637 0 1 -0.1197,0.0961 0.76622487,0.80691442 2.0022637 0 0 0.1197,-0.0961 z m -0.1197,0.0961 a 0.76622485,0.80691439 2.0022637 0 1 -0.1349,0.0699 0.76622487,0.80691442 2.0022637 0 0 0.1349,-0.0699 z m -0.1349,0.0699 a 0.76622485,0.80691439 2.0022637 0 1 -0.1454,0.0409 0.76622487,0.80691442 2.0022637 0 0 0.1454,-0.0409 z m -0.1454,0.0409 a 0.76622485,0.80691439 2.0022637 0 1 -0.1499,0.0102 0.76622487,0.80691442 2.0022637 0 0 0.1499,-0.0102 z m -0.1499,0.0102 a 0.76622485,0.80691439 2.0022637 0 1 -0.3642,-0.11669 0.76622487,0.80691442 2.0022637 0 0 0.3642,0.11669 z m 6.6739,-0.98849 c 2.2278,0.0279 4.1089,1.61271 4.1868,3.67829 0.014,0.37593 -0.036,0.73809 -0.1363,1.08235 1.6376,0.2143 2.9503,0.86879 3.982,1.62915 l -0.3391,0.4569 c -1.0015,-0.73808 -2.2605,-1.3611 -3.8556,-1.54122 -0.058,0.12068 -0.1173,0.24086 -0.1882,0.35487 1.7074,0.53661 2.8313,1.6539 3.7113,2.71094 l -0.4363,0.36247 c -0.8881,-1.06669 -1.955,-2.12265 -3.6277,-2.58833 -0.087,0.10059 -0.1791,0.19749 -0.2766,0.28975 1.6077,0.85909 2.3829,2.32555 2.9461,3.66617 l -0.5242,0.21901 c -0.5759,-1.37065 -1.314,-2.7439 -2.9073,-3.49536 -0.6876,0.47939 -1.5386,0.77809 -2.4634,0.80838 -1.0092,0.033 -1.9554,-0.25781 -2.7118,-0.76949 -1.5886,0.84241 -2.2524,2.2768 -2.7506,3.69802 l -0.5384,-0.18687 c 0.4902,-1.39811 1.1925,-2.9409 2.8081,-3.89222 -0.09,-0.0827 -0.1796,-0.16629 -0.2614,-0.25621 -1.6362,0.56701 -2.6351,1.68327 -3.4555,2.79972 l -0.4575,-0.33541 c 0.8157,-1.11005 1.8719,-2.29507 3.5482,-2.93333 -0.073,-0.11111 -0.1425,-0.22446 -0.2031,-0.34274 -1.5881,0.27462 -2.8113,0.97492 -3.7691,1.77459 l -0.3662,-0.43575 c 0.9922,-0.82846 2.2764,-1.56655 3.9181,-1.87494 -0.094,-0.29353 -0.1541,-0.60066 -0.1662,-0.92141 -0.081,-2.1322 1.7961,-3.87934 4.1172,-3.95535 0.073,-0.002 0.1448,-0.003 0.2167,-0.002 z m -4.9636,0.0846 c 0,0.002 0,0.004 0,0.006 0,-0.002 0,-0.004 0,-0.006 z m -2.4475,0.0705 a 0.76622487,0.80691442 2.0022637 0 0 0.085,0.39263 0.76622485,0.80691439 2.0022637 0 1 -0.085,-0.39263 z m 0.096,0.4149 a 0.76622487,0.80691442 2.0022637 0 0 0.2541,0.28778 0.76622485,0.80691439 2.0022637 0 1 -0.2541,-0.28778 z m -1.5129,2.42428 a 1.2784375,1.2185711 88.005466 0 1 1.2627,1.23484 1.2784375,1.2185711 88.005466 0 1 -1.1728,1.32052 1.2784375,1.2185711 88.005466 0 1 -1.2629,-1.23484 1.2784375,1.2185711 88.005466 0 1 1.173,-1.32052 z m 17.6941,0 a 1.2784375,1.2185711 88.005466 0 1 1.2626,1.23484 1.2784375,1.2185711 88.005466 0 1 -1.1728,1.32052 1.2784375,1.2185711 88.005466 0 1 -1.2629,-1.23484 1.2784375,1.2185711 88.005466 0 1 1.1731,-1.32052 z m -5.5645,11.67328 c -0.02,4.5e-4 -0.041,0.002 -0.061,0.003 -0.3426,0.0268 -0.6817,0.22052 -0.8782,0.50256 l -0.01,0.0144 c 0.6665,-0.007 1.3205,-0.017 1.9697,-0.0304 l -0.1774,-0.16798 c -0.2215,-0.20873 -0.5382,-0.32832 -0.8435,-0.32161 z" />
        <path
           id="path9768"
           fill-rule="evenodd"
           stroke="none"
           stroke-width="0"
           d="m 962.71487,-5.8026169 -0.41718,0.021063 -0.41863,-0.021343 -0.0898,1.7714521 c -0.0901,0.073022 -0.29748,0.2561975 -0.64283,0.3731683 -0.20622,0.069851 -0.40857,0.09419 -0.58584,0.048886 -0.14908,-0.038097 -0.2991,-0.1742177 -0.4533,-0.3729216 0.0103,-0.081657 0.0138,-0.1115487 0.0315,-0.2404054 0.0325,-0.2356781 0.0792,-0.5196538 0.0996,-0.6013325 l -0.7968,-0.1994772 c -0.0457,0.1829045 -0.0817,0.4458564 -0.11538,0.6897349 -0.0337,0.2438785 -0.0588,0.4531054 -0.0588,0.4531054 l -0.0177,0.1462868 0.0783,0.1230473 c 0.27624,0.4340912 0.64862,0.6995947 1.02945,0.7969177 0.38083,0.097323 0.74615,0.037304 1.05256,-0.066478 0.38808,-0.1314472 0.70512,-0.3419373 0.88614,-0.4789527 0.18159,0.1370156 0.49934,0.347686 0.88741,0.4791308 0.30641,0.1037823 0.67198,0.1637546 1.05281,0.066431 0.38083,-0.097323 0.75298,-0.3630709 1.02921,-0.7971621 l 0.0781,-0.1227923 -0.0177,-0.1464366 c 0,0 -0.0249,-0.2093166 -0.0586,-0.4531951 -0.0337,-0.2438785 -0.0712,-0.5065919 -0.11693,-0.6894964 l -0.79481,0.1992548 c 0.0204,0.081679 0.0669,0.3656825 0.0994,0.6013606 0.0178,0.1288567 0.0209,0.1586059 0.0311,0.2402628 -0.1542,0.1987039 -0.3041,0.3350599 -0.45318,0.3731567 -0.17727,0.045304 -0.38163,0.020882 -0.58786,-0.048968 -0.34521,-0.1169275 -0.55028,-0.2997853 -0.64053,-0.3728998 z"
           transform="matrix(.69367 -.00293 .0029 .69136 529.167 -257.564)" />
        <path
           id="path31"
           stroke-linecap="square"
           stroke-width="0"
           d="m 1196.6604,-266.32048 -2e-4,2.8e-4 c -0.2092,10e-4 -0.3804,0.0661 -0.5235,0.115 -0.143,0.0489 -0.2588,0.0836 -0.3476,0.084 -0.1565,10e-4 -0.3077,0.087 -0.3908,0.18772 -0.083,0.10072 -0.122,0.20599 -0.1521,0.30469 -0.06,0.19741 -0.091,0.3965 -0.1172,0.46677 v -0.002 c -0.062,0.15805 -2e-4,0.28606 0.045,0.36896 0.049,0.0829 0.1085,0.14792 0.1758,0.21506 0.1345,0.13429 0.3047,0.26736 0.4767,0.39235 0.344,0.24998 0.6952,0.4631 0.6952,0.4631 l 0.1485,0.0896 0.1465,-0.0916 c 0,0 0.3496,-0.21611 0.6913,-0.46901 0.1708,-0.12645 0.3394,-0.261 0.4728,-0.3963 0.067,-0.0677 0.1257,-0.13379 0.1738,-0.21675 0.048,-0.083 0.1067,-0.20928 0.045,-0.36727 -0.027,-0.0695 -0.059,-0.26782 -0.1211,-0.46478 -0.031,-0.0985 -0.07,-0.20258 -0.1544,-0.30272 -0.084,-0.10014 -0.2359,-0.1864 -0.3924,-0.18575 -0.088,5.9e-4 -0.2024,-0.0322 -0.3459,-0.0801 -0.1434,-0.0478 -0.3154,-0.11225 -0.5252,-0.11133 z" />
        <path
           id="path35"
           stroke="none"
           stroke-linecap="square"
           stroke-width=".654"
           d="m -1206.4198,-77.150422 c 0.024,-0.0013 0.049,-0.002 0.074,-0.002 0.7933,0 1.4433,0.663969 1.4433,1.515665 0,0.851696 -0.6499,1.517621 -1.4432,1.517621 -0.7933,0 -1.4434,-0.66594 -1.4434,-1.517636 0,-0.284372 0.073,-0.547661 0.1987,-0.77243 a 0.76622486,0.80691439 0 0 0 -0.01,0.07294 0.76622486,0.80691439 0 0 0 0.7661,0.806754 0.76622486,0.80691439 0 0 0 0.7663,-0.806777 0.76622486,0.80691439 0 0 0 -0.5863,-0.78262 c 0.075,-0.01656 0.1513,-0.02738 0.2295,-0.03148 z"
           transform="matrix(-.99938 .03515 .03513 .99938 -.136 -148.994)" />
        <path
           id="path33"
           stroke-linecap="square"
           stroke-width="0"
           d="m -1206.4198,-77.150335 c -0.078,0.0041 -0.1549,0.01492 -0.2294,0.03148 a 0.76622486,0.80691439 0 0 1 0.5862,0.782338 0.76622486,0.80691439 0 0 1 -0.7663,0.807059 0.76622486,0.80691439 0 0 1 -0.7661,-0.807037 0.76622486,0.80691439 0 0 1 0.01,-0.07266 c -0.1261,0.224769 -0.1987,0.488058 -0.1987,0.772429 0,0.851696 0.6501,1.517637 1.4434,1.517637 0.7933,0 1.4432,-0.665925 1.4432,-1.517621 0,-0.851696 -0.65,-1.515665 -1.4433,-1.515665 -0.025,0 -0.05,7.58e-4 -0.074,0.002 z"
           transform="rotate(2.014 5434.7 68003.874) skewX(.001)" />
      </g>
      <g
         id="g2">
        <path
           id="path25"
           stroke-dasharray="none"
           stroke-linejoin="round"
           stroke-width="0"
           d="m -461.07036,-154.08218 c -9.05336,-2e-5 -16.43948,7.05429 -16.43948,16.80666 0,1.74289 1.6e-4,3.45606 -0.0291,5.08812 a 0.68694367,0.68694367 0 0 0 0.56257,0.68753 c 10.99504,2.01772 21.97869,2.06018 32.31049,0.0309 a 0.68694367,0.68694367 0 0 0 0.55439,-0.70707 c -0.0723,-1.5422 -0.12224,-3.19841 -0.18358,-4.95089 -0.34698,-9.90538 -7.72212,-16.95524 -16.7753,-16.95525 z m -7.72329,6.87717 c 0.73933,-0.0181 1.46829,0.2604 2.00853,0.76933 l 0.334,0.31264 -0.62892,0.66799 -0.33218,-0.31446 c -0.38102,-0.35894 -0.93682,-0.55429 -1.45868,-0.51349 -0.55259,0.0432 -1.09948,0.35552 -1.41642,0.81023 l -0.26129,0.37717 -0.75206,-0.52349 0.26174,-0.37717 c 0.48054,-0.68943 1.25978,-1.13553 2.09759,-1.20103 0.0493,-0.004 0.0984,-0.007 0.14769,-0.008 z m 16.17819,0.0645 c 0.84034,0.007 1.64845,0.39482 2.17621,1.0488 l 0.28901,0.35717 -0.71298,0.57439 -0.28901,-0.35536 c -0.34809,-0.43134 -0.91443,-0.70716 -1.46868,-0.71116 -0.52345,-0.004 -1.06336,0.23048 -1.41824,0.61528 l -0.31037,0.33582 -0.6739,-0.61892 0.31037,-0.33809 c 0.53673,-0.58197 1.30592,-0.91393 2.09759,-0.90793 z m -16.05095,2.57883 c 1.75418,-0.0445 3.20253,1.40142 3.24772,3.18047 0.0452,1.77904 -1.32768,3.29816 -3.08186,3.3427 -1.75419,0.0445 -3.20298,-1.40326 -3.24818,-3.18229 -0.0452,-1.77905 1.32813,-3.29636 3.08232,-3.34088 z m 16.37813,0 c 1.68019,0.0296 3.05445,1.42709 3.11504,3.15002 0.0626,1.77852 -1.29548,3.30924 -3.04914,3.37088 -1.75366,0.0616 -3.21654,-1.37015 -3.27909,-3.14867 -0.0625,-1.77851 1.29595,-3.30923 3.0496,-3.37087 0.0548,-0.002 0.1094,-0.002 0.16359,-0.001 z m -8.09,3.01824 c 2.82494,0.0369 5.23477,1.9734 5.67795,4.57736 1.61923,0.27498 2.94149,0.92951 3.98889,1.68498 l -0.5503,0.72661 c -0.90716,-0.65431 -2.01185,-1.21452 -3.36543,-1.4814 -0.001,0.094 -0.005,0.18756 -0.0109,0.28038 1.41984,0.63967 2.42825,1.64316 3.23273,2.58882 l -0.7148,0.57756 c -0.71685,-0.84264 -1.55654,-1.64233 -2.68152,-2.19075 -0.0384,0.14259 -0.0825,0.28332 -0.13269,0.42125 0.99201,0.89087 1.59933,2.00969 2.04806,3.05505 l -0.85476,0.35081 c -0.39698,-0.92479 -0.86069,-1.83441 -1.5841,-2.57155 -0.9618,1.66129 -2.8188,2.81018 -4.95725,2.88328 -2.20991,0.0755 -4.20281,-1.01508 -5.25762,-2.69879 -0.67135,0.77621 -1.07511,1.70755 -1.41278,2.65017 l -0.87476,-0.29765 c 0.38729,-1.08113 0.9069,-2.26141 1.84994,-3.22137 -0.0492,-0.12562 -0.0933,-0.25352 -0.13269,-0.38352 -1.03095,0.62049 -1.77548,1.46312 -2.42114,2.32298 l -0.74934,-0.53439 c 0.7288,-0.97057 1.64945,-2.00807 2.98008,-2.72924 -0.0107,-0.10128 -0.0189,-0.20326 -0.0236,-0.30628 -1.29706,0.35065 -2.33786,0.9665 -3.18547,1.65908 l -0.59393,-0.69298 c 0.9873,-0.80672 2.24876,-1.53054 3.82211,-1.90493 0.36263,-2.62041 2.72929,-4.66398 5.60525,-4.7623 0.0998,-0.003 0.19924,-0.004 0.2981,-0.003 z m 9.35556,1.53775 c -0.001,10e-4 -0.002,0.002 -0.003,0.004 10e-4,-0.001 0.002,-0.002 0.003,-0.004 z m -22.07018,1.45732 a 2.0611057,1.9655981 87.983815 0 1 2.0367,1.99081 2.0611057,1.9655981 87.983815 0 1 -1.89219,2.12849 2.0611057,1.9655981 87.983815 0 1 -2.03671,-1.9908 2.0611057,1.9655981 87.983815 0 1 1.8922,-2.1285 z m 25.20157,0 a 2.0611057,1.9655981 87.983815 0 1 2.03671,1.99081 2.0611057,1.9655981 87.983815 0 1 -1.89175,2.12849 2.0611057,1.9655981 87.983815 0 1 -2.0367,-1.9908 2.0611057,1.9655981 87.983815 0 1 1.89174,-2.1285 z" />
        <path
           id="path10111"
           stroke-dasharray="none"
           stroke-linejoin="round"
           stroke-width="0"
           d="m -481.09747,-133.66426 -0.25039,1.35189 4.3715,0.8125 a 0.68694367,0.68694367 0 0 0 0.002,0 c 10.99504,2.01768 21.97944,2.06008 32.41773,0.0154 a 0.68694367,0.68694367 0 0 0 0.0568,-0.0154 l 2.87692,-0.8284 -0.3808,-1.32009 -2.83966,0.81841 c -2.70021,0.52812 -5.4391,0.9129 -8.20634,1.15922 0.0565,0.12299 0.11149,0.2458 0.16359,0.36717 l -0.85476,0.35081 c -0.0918,-0.21373 -0.18752,-0.42633 -0.28856,-0.63664 -1.15744,0.089 -2.32036,0.15062 -3.48675,0.19086 -0.81752,0.4512 -1.76068,0.72314 -2.76604,0.75751 -1.15695,0.0395 -2.25352,-0.24197 -3.1882,-0.75933 -1.04507,-0.0354 -2.09203,-0.0875 -3.14139,-0.16177 -0.12374,0.28702 -0.23571,0.57907 -0.34081,0.87248 l -0.87476,-0.29765 c 0.077,-0.21478 0.15996,-0.43372 0.24948,-0.6539 -3.03949,-0.24815 -6.09246,-0.64753 -9.14835,-1.2083 z" />
        <path
           id="path42"
           stroke-linecap="square"
           d="m 447.00013,-158.98981 c 0.0304,-0.002 0.061,-0.002 0.0918,-0.002 0.98349,0 1.7929,0.82363 1.7929,1.88855 0,1.06493 -0.80935,1.88863 -1.79284,1.88864 -0.9835,0 -1.79291,-0.82362 -1.79291,-1.88855 0,-0.27177 0.0531,-0.52751 0.14794,-0.75818 a 0.82929242,0.87288243 0 0 0 0.80332,0.65563 0.82929242,0.87288243 0 0 0 0.82913,-0.87307 0.82929242,0.87288243 0 0 0 -0.54898,-0.81917 c 0.14921,-0.0512 0.30652,-0.083 0.46967,-0.0915 z"
           transform="matrix(-.99938 .03513 .03514 .99938 0 0)" />
        <path
           id="path21"
           stroke-dasharray="none"
           stroke-linecap="square"
           stroke-width="0"
           d="m -464.84369,-155.03309 c -0.17311,0 -0.34039,0.0259 -0.49916,0.0737 a 0.90723586,0.95492255 0 0 1 0.65627,0.91715 0.90723586,0.95492255 0 0 1 -0.90748,0.95473 0.90723586,0.95492255 0 0 1 -0.89626,-0.81051 c -0.0929,0.22867 -0.14455,0.48229 -0.14455,0.75136 0,1.06492 0.80768,1.88873 1.79118,1.88873 0.9835,0 1.79306,-0.82373 1.79306,-1.88865 0,-1.06493 -0.80956,-1.88651 -1.79306,-1.88651 z"
           transform="rotate(-1.454) skewX(.001)" />
        <path
           id="path19"
           stroke-dasharray="none"
           stroke-linecap="square"
           stroke-width="0"
           d="m -460.50188,-139.60169 -1.50412,0.34172 c -0.2269,0.0515 -0.41803,0.19604 -0.53712,0.3499 -0.11909,0.15386 -0.18278,0.31369 -0.23221,0.46487 -0.0983,0.30063 -0.14493,0.58874 -0.19358,0.71844 -0.0994,0.25501 -0.006,0.4603 0.0722,0.59392 0.0786,0.13361 0.17507,0.2394 0.28356,0.34763 0.21697,0.21648 0.49196,0.4315 0.76933,0.63301 0.55474,0.40301 1.12104,0.74615 1.12104,0.74615 l 0.23857,0.14451 0.23812,-0.14678 c 0,0 0.56411,-0.34797 1.11514,-0.7557 0.27552,-0.20387 0.54868,-0.42079 0.76388,-0.63891 0.1076,-0.10907 0.20144,-0.21569 0.27901,-0.34945 0.0776,-0.13376 0.17018,-0.33681 0.0704,-0.59165 -0.05,-0.12779 -0.10004,-0.41918 -0.20131,-0.72071 -0.0507,-0.15077 -0.11584,-0.31014 -0.2363,-0.46305 -0.12045,-0.15292 -0.31339,-0.29626 -0.54076,-0.34581 z" />
        <path
           id="path18"
           stroke-linejoin="round"
           d="m -460.37695,-136.26367 c -0.10767,-0.0342 -0.2618,-0.0218 -0.36133,0.0273 -0.19907,0.0983 -0.21894,0.20107 -0.24805,0.26172 -0.0291,0.0607 -0.0455,0.10801 -0.0625,0.1582 -0.0271,0.0802 -0.0574,0.17398 -0.0918,0.27149 -0.0712,0.10416 -0.17217,0.19671 -0.28907,0.24805 -0.13387,0.0584 -0.30062,0.0777 -0.46289,0.0527 -0.10965,-0.0169 -0.22475,-0.0571 -0.33398,-0.11719 a 0.45774891,0.45774891 0 0 0 -0.67774,0.40039 v 0.0254 c 0,1.32221 1.0802,2.4043 2.40235,2.4043 1.32214,0 2.40429,-1.08214 2.40429,-2.4043 10e-5,-0.0106 2e-4,-0.022 0,-0.0312 a 0.45774891,0.45774891 0 0 0 -0.67578,-0.39257 c -0.11127,0.0601 -0.22128,0.0987 -0.33008,0.11523 -0.16357,0.0249 -0.33034,0.005 -0.46289,-0.0527 -0.11992,-0.0527 -0.22478,-0.14669 -0.29687,-0.25586 -0.0632,-0.15519 -0.11729,-0.28572 -0.16992,-0.38672 -0.0307,-0.0589 -0.0535,-0.11342 -0.13477,-0.19532 -0.0406,-0.0409 -0.10132,-0.0947 -0.20898,-0.1289 z m -0.12305,1.32031 c 0.15998,0.19498 0.33202,0.3822 0.56445,0.48438 0.22362,0.0981 0.45908,0.0868 0.69141,0.0859 -0.23264,0.51606 -0.65095,0.92578 -1.25781,0.92578 -0.60674,0 -1.0231,-0.4099 -1.25586,-0.92578 0.23387,10e-4 0.47138,0.0118 0.69531,-0.0859 0.23127,-0.10157 0.40265,-0.29023 0.5625,-0.48438 z" />
      </g>
      <g
         id="g1"
         stroke-dasharray="none">
        <path
           id="path13"
           stroke-linejoin="round"
           stroke-width="0"
           d="m -492.24617,-153.62503 c -3.11696,0 -6.12541,0.92597 -8.37083,2.89282 -2.24542,1.96685 -3.6817,4.97644 -3.6817,8.93932 0,1.40777 -10e-4,2.79043 -0.0236,4.10748 a 0.68694367,0.68694367 0 0 0 0.54894,0.68526 c 7.95818,1.636 15.91336,1.67052 23.39844,0.0236 a 0.68694367,0.68694367 0 0 0 0.53894,-0.69935 c -0.05,-1.24717 -0.0894,-2.5855 -0.13269,-3.99978 -0.12585,-4.02499 -1.61584,-7.05758 -3.88482,-9.03929 -2.26897,-1.98171 -5.27571,-2.91009 -8.39265,-2.91009 z m -5.79701,4.61552 c 0.56358,-0.003 1.11092,0.21749 1.51594,0.61301 l 0.32809,0.32037 -0.64073,0.65618 -0.32627,-0.32037 c -0.2408,-0.23516 -0.60144,-0.37056 -0.93747,-0.35126 -0.34628,0.0199 -0.70043,0.20729 -0.91202,0.48213 l -0.27946,0.36127 -0.72616,-0.55848 0.27901,-0.36127 c 0.38033,-0.494 0.9635,-0.80214 1.58592,-0.83794 0.0377,-0.002 0.0756,-0.003 0.11315,-0.004 z m 11.54495,0.0309 c 0.6298,9.2e-4 1.2338,0.27898 1.64272,0.75797 l 0.29673,0.34763 -0.69707,0.59574 -0.29674,-0.34763 c -0.2281,-0.26718 -0.59616,-0.43891 -0.94746,-0.43942 -0.33479,-4.9e-4 -0.68523,0.15168 -0.91384,0.39625 l -0.31264,0.334 -0.66799,-0.62482 0.31264,-0.334 c 0.40864,-0.43717 0.98524,-0.68659 1.58365,-0.68572 z m 0.75887,2.55701 c 1.51534,0.0267 2.76114,1.27763 2.81603,2.82194 0.0567,1.59411 -1.17486,2.96417 -2.75604,3.01915 -1.58118,0.055 -2.9066,-1.22646 -2.96326,-2.82057 -0.0567,-1.59412 1.17441,-2.96417 2.75559,-3.01915 0.0494,-0.002 0.0988,-0.002 0.14768,-0.001 z m -12.66599,0.001 c 1.58163,-0.0397 2.89459,1.25279 2.93554,2.84738 0.041,1.5946 -1.20395,2.95308 -2.78558,2.9928 -1.58165,0.0397 -2.89278,-1.2546 -2.93373,-2.8492 -0.041,-1.5946 1.20213,-2.95126 2.78377,-2.99098 z m 6.29233,3.1423 c 2.29232,0.0304 4.23575,1.73218 4.31606,3.94571 v 0.002 c 0.0157,0.45989 -0.045,1.02871 -0.17177,1.60546 -0.12681,0.57675 -0.2935,1.14172 -0.65027,1.60546 l -0.19722,0.25357 -0.32037,0.0141 c -2.01449,0.0806 -4.08418,0.0674 -6.16599,-0.045 l -0.32446,-0.0177 -0.19131,-0.26174 c -0.31761,-0.43233 -0.4525,-0.93471 -0.56848,-1.45096 -0.11601,-0.51626 -0.1812,-1.02241 -0.1954,-1.40233 v -0.002 c 0.10866,-2.47345 1.8856,-4.06201 4.24609,-4.24382 v -4.5e-4 c 0.0746,-0.003 0.14917,-0.003 0.22312,-0.002 z m -7.6674,0.11587 c 10e-4,0.007 0.003,0.0134 0.004,0.02 -0.001,-0.007 -0.003,-0.0133 -0.004,-0.02 z m 0.33309,2.99417 a 1.6968153,1.6181881 87.983815 0 1 1.6768,1.63908 1.6968153,1.6181881 87.983815 0 1 -1.55774,1.75269 1.6968153,1.6181881 87.983815 0 1 -1.67681,-1.63908 1.6968153,1.6181881 87.983815 0 1 1.55775,-1.75269 z m 14.65316,0 a 1.6968153,1.6181881 87.983815 0 1 1.67681,1.63908 1.6968153,1.6181881 87.983815 0 1 -1.55775,1.75269 1.6968153,1.6181881 87.983815 0 1 -1.6768,-1.63908 1.6968153,1.6181881 87.983815 0 1 1.55774,-1.75269 z" />
        <path
           id="path9"
           stroke-linecap="square"
           stroke-width="0"
           d="m 480.30257,-161.84182 c 0.0253,-10e-4 0.0507,-0.002 0.0763,-0.002 0.81909,0 1.48634,0.67384 1.48634,1.54659 0,0.87274 -0.66733,1.54677 -1.48642,1.54677 -0.8191,0 -1.48816,-0.6738 -1.48817,-1.54654 0,-0.0937 0.008,-0.18504 0.023,-0.27362 a 0.78475928,0.8172112 0 0 0 0.7215,0.496 0.78475928,0.8172112 0 0 0 0.78438,-0.81756 0.78475928,0.8172112 0 0 0 -0.67166,-0.80829 c 0.17004,-0.0817 0.35736,-0.13145 0.55469,-0.14161 z"
           transform="matrix(-.9994 .03475 .03552 .99937 0 0)" />
        <path
           id="path11"
           stroke-linecap="square"
           stroke-width="0"
           d="m -494.48265,-157.51362 c -0.15991,0 -0.31379,0.0261 -0.45828,0.0739 a 0.7848292,0.81727343 0 0 1 0.63086,0.79952 0.7848292,0.81727343 0 0 1 -0.78465,0.81716 0.7848292,0.81727343 0 0 1 -0.77703,-0.70091 c -0.0626,0.1719 -0.097,0.35927 -0.097,0.55713 0,0.87274 0.66708,1.54876 1.48619,1.54876 0.81911,0 1.48845,-0.67586 1.48845,-1.5486 0,-0.87273 -0.6694,-1.54701 -1.48851,-1.54701 z"
           transform="rotate(-1.439) skewX(.032)" />
        <path
           id="path4"
           stroke-linecap="square"
           stroke-width="0"
           d="m -492.21072,-140.85543 -1.13514,0.25402 c -0.1949,0.0436 -0.36331,0.16736 -0.46487,0.29674 -0.10155,0.12938 -0.15404,0.25929 -0.19312,0.37716 -0.0781,0.23572 -0.11519,0.44822 -0.14269,0.5194 l 0.002,-0.002 c -0.0953,0.2428 -0.003,0.43249 0.0641,0.5453 0.0674,0.11281 0.14415,0.19598 0.22858,0.27901 0.16886,0.16606 0.37452,0.32386 0.58211,0.4726 0.41518,0.29747 0.83613,0.54894 0.83613,0.54894 l 0.23811,0.14087 0.23448,-0.14269 c 0,0 0.41955,-0.2557 0.83204,-0.55666 0.20625,-0.15048 0.41057,-0.31115 0.57802,-0.47851 0.0837,-0.0837 0.15983,-0.16641 0.2263,-0.27946 0.0665,-0.11305 0.15712,-0.30062 0.0609,-0.54303 -0.0282,-0.0717 -0.0664,-0.2843 -0.14678,-0.5194 -0.0402,-0.11755 -0.0923,-0.24651 -0.19494,-0.3749 -0.10263,-0.12839 -0.27195,-0.25107 -0.46714,-0.2931 z" />
        <path
           id="path10338"
           fill="none"
           fill-opacity="1"
           stroke="#000"
           stroke-linejoin="round"
           stroke-miterlimit="4"
           stroke-opacity="1"
           stroke-width="1.381"
           d="m -506.66289,-138.35461 c 9.56518,2.55164 20.5033,2.36061 28.38075,0.17513" />
      </g>
    </g>
  </g>
</svg>
