<svg xmlns="http://www.w3.org/2000/svg" role="img" viewBox="5.90 13.90 499.20 484.70"><style>svg {fill-rule:evenodd;clip-rule:evenodd;stroke-linejoin:round;stroke-miterlimit:2}</style><g transform="translate(-1684 -577)"><g id="ovn-kubernetes-icon-all-blue" transform="translate(-1125.48 577.628)"><path fill="none" d="M2810 0H3322V512H2810z"/><g id="path3055"><path fill="#326ce5" fill-rule="nonzero" d="M1396.68,658.594C1373.2,659.777 1350.19,665.6 1329.01,675.72L405.501,1116.98C357.113,1140.09 321.905,1183.87 309.95,1235.8L82.115,2226.98C71.49,2273.1 80.145,2321.58 106.091,2361.27C109.207,2366.08 112.557,2370.73 116.131,2375.21L755.343,3169.97C788.838,3211.6 839.713,3235.89 893.414,3235.88L1918.49,3235.64C1972.17,3235.68 2023.05,3211.44 2056.56,3169.85L2695.54,2374.97C2729.05,2333.32 2741.63,2278.7 2729.67,2226.74L2501.49,1235.56C2489.53,1183.63 2454.32,1139.85 2405.93,1116.74L1482.31,675.72C1455.67,662.99 1426.22,657.101 1396.68,658.594Z" transform="translate(2810.96 -95.813) scale(.1807)"/></g><g id="path3059"><path fill="#fff" fill-rule="nonzero" d="M1409.45,750.419C1370.83,750.423 1339.51,785.324 1339.52,828.393C1339.52,829.054 1339.65,829.689 1339.66,830.346C1339.61,836.199 1339.33,843.255 1339.52,848.35C1340.44,873.191 1345.83,892.199 1349.08,915.086C1354.96,964.07 1359.89,1004.68 1356.85,1042.42C1353.89,1056.65 1343.44,1069.67 1334.13,1078.72L1332.49,1108.41C1290.52,1111.9 1248.27,1118.29 1206.07,1127.9C1024.5,1169.28 868.169,1263.16 749.143,1389.92C741.42,1384.63 727.904,1374.89 723.886,1371.91C711.4,1373.61 698.784,1377.49 682.348,1367.88C651.053,1346.73 622.549,1317.54 588.06,1282.38C572.257,1265.56 560.81,1249.55 542.034,1233.34C537.77,1229.66 531.263,1224.68 526.493,1220.89C511.814,1209.14 494.501,1203.03 477.781,1202.45C456.283,1201.71 435.597,1210.14 422.054,1227.19C397.978,1257.5 405.683,1303.83 439.235,1330.67C439.575,1330.95 439.938,1331.15 440.281,1331.42C444.891,1335.17 450.538,1339.98 454.776,1343.12C474.7,1357.89 492.903,1365.44 512.755,1377.16C554.579,1403.09 589.242,1424.58 616.744,1450.5C627.483,1461.99 629.359,1482.24 630.788,1491L653.214,1511.1C533.227,1692.34 477.686,1916.2 510.502,2144.3L481.223,2152.86C473.505,2162.86 462.597,2178.6 451.188,2183.3C415.206,2194.67 374.708,2198.85 325.819,2204C302.866,2205.91 283.052,2204.76 258.718,2209.39C253.363,2210.41 245.901,2212.37 240.041,2213.75C239.837,2213.79 239.65,2213.85 239.446,2213.89C239.127,2213.97 238.707,2214.12 238.4,2214.18C197.182,2224.18 170.706,2262.22 179.231,2299.68C187.757,2337.16 228.016,2359.94 269.481,2350.97C269.78,2350.9 270.215,2350.89 270.527,2350.82C270.995,2350.71 271.413,2350.48 271.878,2350.37C277.658,2349.09 284.904,2347.67 289.96,2346.32C313.884,2339.89 331.209,2330.45 352.717,2322.18C398.988,2305.52 437.308,2291.61 474.644,2286.18C490.237,2284.96 506.674,2295.84 514.846,2300.43L545.316,2295.18C615.462,2513.46 762.481,2689.9 948.627,2800.61L935.918,2831.21C940.496,2843.09 945.538,2859.15 942.128,2870.88C928.554,2906.21 905.314,2943.5 878.84,2985.07C866.021,3004.28 852.908,3019.18 841.34,3041.16C838.572,3046.43 835.035,3054.51 832.363,3060.07C814.39,3098.67 827.584,3143.11 862.109,3159.8C896.851,3176.58 939.971,3158.88 958.633,3120.2C958.66,3120.15 958.752,3120.11 958.778,3120.06C958.797,3120.02 958.76,3119.96 958.778,3119.91C961.437,3114.43 965.207,3107.21 967.45,3102.06C977.358,3079.27 980.656,3059.76 987.623,3037.73C1006.13,2991.08 1016.29,2942.12 1041.76,2911.62C1048.73,2903.27 1060.1,2900.06 1071.89,2896.89L1087.74,2868.1C1250.01,2930.62 1431.66,2947.38 1613.12,2906.03C1654.51,2896.6 1694.47,2884.4 1733.1,2869.75C1737.55,2877.67 1745.83,2892.91 1748.04,2896.75C1760.02,2900.66 1773.1,2902.67 1783.76,2918.48C1802.81,2951.16 1815.84,2989.82 1831.71,3036.51C1838.68,3058.55 1842.14,3078.08 1852.05,3100.86C1854.31,3106.05 1858.04,3113.37 1860.7,3118.86C1879.33,3157.66 1922.59,3175.43 1957.39,3158.6C1991.91,3141.91 2005.1,3097.45 1987.12,3058.86C1984.44,3053.3 1980.78,3045.23 1978.01,3039.97C1966.44,3017.99 1953.32,3003.23 1940.5,2984.02C1914.02,2942.45 1892.07,2907.92 1878.5,2872.59C1872.82,2854.37 1879.45,2843.05 1883.87,2831.21C1881.22,2828.16 1875.56,2810.95 1872.22,2802.85C2065.67,2688.21 2208.35,2505.2 2275.36,2293.84C2284.4,2295.26 2300.14,2298.06 2305.25,2299.09C2315.76,2292.12 2325.44,2283.04 2344.4,2284.54C2381.74,2289.96 2420.06,2303.87 2466.33,2320.53C2487.84,2328.8 2505.16,2338.4 2529.09,2344.83C2534.14,2346.19 2541.39,2347.45 2547.17,2348.72C2547.63,2348.84 2548.03,2349.07 2548.5,2349.17C2548.82,2349.24 2549.25,2349.25 2549.55,2349.32C2591.02,2358.28 2631.3,2335.51 2639.82,2298.04C2648.33,2260.57 2621.85,2222.52 2580.63,2212.54C2574.64,2211.17 2566.14,2208.85 2560.31,2207.74C2535.98,2203.12 2516.18,2204.26 2493.23,2202.35C2444.34,2197.21 2403.84,2193.02 2367.86,2181.65C2353.19,2175.94 2342.75,2158.41 2337.68,2151.2L2309.43,2142.96C2324.07,2036.64 2320.13,1925.98 2294.79,1815.26C2269.22,1703.51 2224.02,1601.29 2163.74,1511.25C2170.99,1504.63 2184.67,1492.48 2188.55,1488.9C2189.68,1476.3 2188.7,1463.11 2201.69,1449.16C2229.19,1423.24 2263.87,1401.75 2305.7,1375.82C2325.55,1364.1 2343.9,1356.53 2363.82,1341.77C2368.33,1338.43 2374.48,1333.14 2379.22,1329.32C2412.76,1302.46 2420.48,1256.15 2396.4,1225.85C2372.31,1195.55 2325.65,1192.68 2292.1,1219.54C2287.33,1223.33 2280.85,1228.28 2276.56,1231.98C2257.79,1248.2 2246.19,1264.22 2230.39,1281.04C2195.9,1316.2 2167.4,1345.52 2136.1,1366.67C2122.54,1374.59 2102.68,1371.85 2093.66,1371.32L2067.06,1390.37C1915.39,1230.74 1708.89,1128.69 1486.54,1108.86C1485.92,1099.51 1485.11,1082.59 1484.9,1077.51C1475.8,1068.76 1464.8,1061.31 1462.04,1042.42C1459,1004.68 1464.07,964.07 1469.96,915.085C1473.2,892.198 1478.61,873.191 1479.53,848.35C1479.74,842.703 1479.4,834.498 1479.38,828.392C1479.38,785.323 1448.07,750.415 1409.45,750.419L1409.45,750.419ZM1321.89,1294.83L1309.87,1507.98L1509.21,1507.98L1497.16,1294.83C1656.26,1314.47 1803.39,1386.78 1916.14,1497.6L1883.5,1520.82C1900.56,1533.12 1911.73,1553.1 1911.73,1575.88L1911.73,1737.48L2025.68,1635.12C2066.49,1701.51 2097.39,1775.66 2115.78,1856.05C2133.96,1935.47 2138.51,2014.74 2131.02,2091.36L1911.73,2027.98L1911.73,2232.2L2092.76,2262.93C2039.47,2413.21 1937.5,2543.41 1801.24,2630.53L1758.34,2526.51L1543.88,2526.51L1642.99,2706.26C1619.89,2714.03 1596.15,2720.69 1571.87,2726.22C1435.76,2757.24 1300.1,2747.84 1177.25,2705.83L1276.04,2526.51L1061.48,2526.51L1019.15,2629.18C888.391,2544.96 784.234,2418.85 728.519,2264.13L896.954,2235.43L896.954,2032.34L689.073,2092.57C671.155,1928.12 709.767,1768.26 791.276,1634.98L896.954,1729.86L896.954,1575.88C896.954,1551.29 909.97,1530.02 929.37,1518.11L900.349,1497.46C992.794,1406.22 1111.05,1338.79 1247.32,1307.73C1272.21,1302.06 1297.1,1297.84 1321.89,1294.83Z" transform="translate(2810.96 -95.813) scale(.1807)"/></g><g id="rect3"><path fill="#fff" fill-rule="nonzero" d="M174.001,183.123C171.785,183.123 170.001,184.907 170.001,187.123L170.001,239.123C170.001,241.339 171.785,243.123 174.001,243.123L226.001,243.123C228.217,243.123 230.001,241.339 230.001,239.123L230.001,187.123C230.001,184.907 228.217,183.123 226.001,183.123L174.001,183.123ZM176.001,186.799C177.646,186.799 179.001,188.153 179.001,189.799C179.001,191.445 177.646,192.799 176.001,192.799C174.355,192.799 173.001,191.445 173.001,189.799C173.001,188.153 174.355,186.799 176.001,186.799ZM185.001,186.799C186.646,186.799 188.001,188.153 188.001,189.799C188.001,191.445 186.646,192.799 185.001,192.799C183.355,192.799 182.001,191.445 182.001,189.799C182.001,188.153 183.355,186.799 185.001,186.799ZM200.001,186.799C201.646,186.799 203.001,188.153 203.001,189.799C203.001,191.445 201.646,192.799 200.001,192.799C198.355,192.799 197.001,191.445 197.001,189.799C197.001,188.153 198.355,186.799 200.001,186.799ZM215.001,186.799C216.646,186.799 218.001,188.153 218.001,189.799C218.001,191.445 216.646,192.799 215.001,192.799C213.355,192.799 212.001,191.445 212.001,189.799C212.001,188.153 213.355,186.799 215.001,186.799ZM224.001,186.799C225.646,186.799 227.001,188.153 227.001,189.799C227.001,191.445 225.646,192.799 224.001,192.799C222.355,192.799 221.001,191.445 221.001,189.799C221.001,188.153 222.355,186.799 224.001,186.799ZM185.471,196.662L214.528,196.662C217.559,196.662 220.001,199.102 220.001,202.133L220.001,231.19C220.001,234.221 217.559,236.662 214.528,236.662L185.471,236.662C182.44,236.662 180.001,234.221 180.001,231.19L180.001,202.133C180.001,199.102 182.44,196.662 185.471,196.662Z" transform="matrix(3.09529 0 0 3.13355 2444.48 -397.905)"/></g><g id="rect5"><path fill="#fff" fill-rule="nonzero" d="M205.01,202.282L205.01,206.732L185.557,206.732L185.557,211.975L205.01,211.975L205.01,216.45L210.284,212.909L215.557,209.364L210.284,205.823L205.01,202.282Z" transform="matrix(3.09529 0 0 3.13355 2444.48 -397.905)"/></g><g id="rect6"><path fill="#fff" fill-rule="nonzero" d="M196.105,218.116L196.105,222.566L215.557,222.566L215.557,227.811L196.105,227.811L196.105,232.282L190.832,228.742L185.557,225.197L190.832,221.657L196.105,218.116Z" transform="matrix(3.09529 0 0 3.13355 2444.48 -397.905)"/></g><g id="path1"><path fill="#fff" fill-rule="nonzero" d="M174.001,183.123C171.785,183.123 170.001,184.907 170.001,187.123L170.001,239.123C170.001,241.339 171.785,243.123 174.001,243.123L226.001,243.123C228.217,243.123 230.001,241.339 230.001,239.123L230.001,187.123C230.001,184.907 228.217,183.123 226.001,183.123L174.001,183.123ZM176.001,186.799C177.646,186.799 179.001,188.153 179.001,189.799C179.001,191.445 177.646,192.799 176.001,192.799C174.355,192.799 173.001,191.445 173.001,189.799C173.001,188.153 174.355,186.799 176.001,186.799ZM185.001,186.799C186.646,186.799 188.001,188.153 188.001,189.799C188.001,191.445 186.646,192.799 185.001,192.799C183.355,192.799 182.001,191.445 182.001,189.799C182.001,188.153 183.355,186.799 185.001,186.799ZM200.001,186.799C201.646,186.799 203.001,188.153 203.001,189.799C203.001,191.445 201.646,192.799 200.001,192.799C198.355,192.799 197.001,191.445 197.001,189.799C197.001,188.153 198.355,186.799 200.001,186.799ZM215.001,186.799C216.646,186.799 218.001,188.153 218.001,189.799C218.001,191.445 216.646,192.799 215.001,192.799C213.355,192.799 212.001,191.445 212.001,189.799C212.001,188.153 213.355,186.799 215.001,186.799ZM224.001,186.799C225.646,186.799 227.001,188.153 227.001,189.799C227.001,191.445 225.646,192.799 224.001,192.799C222.355,192.799 221.001,191.445 221.001,189.799C221.001,188.153 222.355,186.799 224.001,186.799ZM185.471,196.662L214.528,196.662C217.559,196.662 220.001,199.102 220.001,202.133L220.001,231.19C220.001,234.221 217.559,236.662 214.528,236.662L185.471,236.662C182.44,236.662 180.001,234.221 180.001,231.19L180.001,202.133C180.001,199.102 182.44,196.662 185.471,196.662Z" transform="matrix(3.09529 0 0 3.13355 2444.48 -397.905)"/></g><g id="path2"><path fill="#fff" fill-rule="nonzero" d="M205.01,202.282L205.01,206.732L185.557,206.732L185.557,211.975L205.01,211.975L205.01,216.45L210.284,212.909L215.557,209.364L210.284,205.823L205.01,202.282Z" transform="matrix(3.09529 0 0 3.13355 2444.48 -397.905)"/></g><g id="path3"><path fill="#fff" fill-rule="nonzero" d="M196.105,218.116L196.105,222.566L215.557,222.566L215.557,227.811L196.105,227.811L196.105,232.282L190.832,228.742L185.557,225.197L190.832,221.657L196.105,218.116Z" transform="matrix(3.09529 0 0 3.13355 2444.48 -397.905)"/></g></g></g></svg>