<svg xmlns="http://www.w3.org/2000/svg" role="img" viewBox="-29.20 -29.20 1518.40 457.40"><path fill="url(#paint0_linear_7902_236)" d="M159.786 111.243c7.367 7.901 15.535 15.108 22.955 22.956 3.63 3.897 15.748 21.407 19.646 21.407 3.897 0 16.015-17.51 19.645-21.407 8.114-8.649 18.258-19.272 27.066-27.066 3.95-3.47 23.489-16.2293 24.29-17.5106.801-1.388.801-4.5376 0-5.9256-1.762-2.9896-25.144-12.8123-29.575-11.5311-1.869.5339-15.001 11.3709-17.617 13.6131-8.008 6.9933-14.681 16.8692-23.756 22.2082-4.591 0-31.711-33.419-41.426-35.7679-4.965-1.2279-13.72 2.9361-18.525 5.3384-4.057 2.0287-12.065 5.552-11.531 9.9296.32 2.4023 25.571 19.4849 28.881 23.7559h-.053z"/><path fill="url(#paint1_linear_7902_236)" d="M403.752 172.048c-2.615-20.873-22.741-54.772-23.596-68.012-.96-15.2677 19.539-39.4509 22.849-58.4024 2.562-14.7341.747-29.7351 1.121-44.46926-3.577-4.00384-73.67 29.46826-88.992 29.09456-13.666-.3203-55.466-26.26518-81.465-29.14795-17.937-1.97522-47.939-1.17446-66.036 1.28123C143.556 5.64864 101.81 29.992 89.6914 30.2589 74.37 30.6326 4.27615-2.8395.75278 1.16434c-1.388 19.43196 0 36.14136 5.07153 54.93266C9.24091 68.6957 27.712 96.776 27.8721 99.6054c.3203 5.4986-13.5597 25.3576-16.4424 34.6996C-6.82782 193.135 2.728 252.178.91293 313.143 75.0106 324.674 144.197 356.759 204.842 400c58.723-43.135 126.521-75.966 199.124-86.857-3.203-44.843 5.285-97.213-.16-141.095h-.054zM98.4998 67.4145c2.0282-.4271 24.6102-17.4033 35.4472-21.8876 39.772-16.4425 79.009-19.6455 120.436-7.4739 16.869 4.9648 40.412 23.7028 51.676 25.5178 20.606 3.2565 40.092-12.0115 59.63-14.3604 16.016 17.083-92.996 98.8146-105.487 113.0146-13.614 15.429-50.235 88.405-55.467 88.725-12.972.748-36.462-60.484-55.306-83.92-32.191-40.038-92.3022-62.567-110.3995-115.3639 0-9.1288 52.1033 17.2432 59.4169 15.8018l.0534-.0534zM266.074 217.265c-1.869-33.632 23.542-16.069 33.579-21.194 8.114-4.164 6.032-16.976 14.36-17.19 4.484 33.206-18.044 42.655-47.939 38.384zm-126.094 0c-29.896 4.324-52.4774-5.178-47.9397-38.384 8.3277.161 6.246 13.026 14.3607 17.19 10.036 5.178 35.447-12.438 33.579 21.194zm230.087 71.588c-59.257 13.56-114.403 38.224-165.225 70.948-53.171-30.963-109.0114-58.776-170.0299-70.948 1.4414-54.505-9.2355-111.627 13.9867-162.822 44.9498 12.385 8.8619 39.184 9.8228 64.435 1.2812 34.113 40.3053 65.289 73.8304 60.324 8.382-1.228 15.856-8.488 20.447-8.915 16.229-1.548 38.223 65.343 44.789 71.482 1.815 1.655 6.62 1.174 9.876-2.99 9.77-12.438 27.387-60.271 38.17-66.944 7.367-4.591 36.302 17.03 66.784-.107 14.628-8.221 33.526-35.127 34.327-52.477 1.334-28.614-34.433-48.633 6.833-64.755 29.895 49.114 19.805 108.531 16.442 162.823l-.053-.054z"/><path fill="#3AA4DD" d="M503.635 171.781V71.2048h14.414v45.9112h.267l21.033-45.9112h14.414l-19.646 40.2522 23.329 60.324h-15.267l-16.39-44.629-7.794 14.52v30.109h-14.413.053zm102.125-71.642v71.589h-14.414v-6.94h-.267c-1.494 2.242-3.309 4.11-5.445 5.605-2.135 1.442-4.804 2.189-8.114 2.189-1.815 0-3.577-.32-5.392-.908-1.815-.587-3.363-1.601-4.805-3.042-1.388-1.388-2.562-3.204-3.416-5.446-.854-2.188-1.282-4.911-1.282-8.114v-54.933h14.414v49.594c0 2.616.588 4.698 1.815 6.193 1.228 1.495 2.99 2.242 5.232 2.242 2.723 0 4.591-.854 5.659-2.562 1.068-1.709 1.548-4.164 1.548-7.367v-48.153h14.414l.053.053zM619 171.781V71.2048h14.413v35.4472h.267c1.602-2.349 3.524-4.164 5.712-5.445 2.189-1.2813 4.752-1.9219 7.581-1.9219 3.47 0 6.193.5872 8.114 1.8149 1.922 1.228 3.524 2.776 4.752 4.645.961 1.494 1.548 3.47 1.815 5.925.267 2.456.427 6.246.427 11.425v27.279c0 3.951-.214 7.1-.587 9.449-.374 2.349-1.015 4.324-1.815 5.926-2.456 4.537-6.62 6.78-12.546 6.78-3.577 0-6.299-.694-8.168-2.136-1.868-1.388-3.737-3.149-5.498-5.231v6.512h-14.414l-.053.107zm28.667-49.594c0-2.242-.48-4.217-1.495-5.926-1.014-1.708-2.829-2.562-5.605-2.562-2.082 0-3.79.747-5.178 2.189-1.388 1.441-2.029 3.31-2.029 5.605v27.813c0 2.616.641 4.805 1.975 6.407 1.335 1.654 3.043 2.455 5.232 2.455 2.456 0 4.217-.907 5.392-2.669 1.121-1.762 1.708-4.164 1.708-7.047v-26.265zm69.346 19.219h-28.507v9.769c0 2.242.64 4.004 1.921 5.232 1.282 1.227 2.99 1.815 5.179 1.815 2.722 0 4.537-.801 5.445-2.403.908-1.601 1.441-3.203 1.602-4.804h14.413c0 6.299-1.921 11.371-5.765 15.268-1.869 1.975-4.164 3.523-6.78 4.644-2.616 1.121-5.605 1.708-8.915 1.708-4.538 0-8.382-.96-11.531-2.829-3.15-1.868-5.552-4.377-7.261-7.474-1.014-1.868-1.761-4.057-2.135-6.513-.374-2.455-.587-5.125-.587-8.061v-23.596c0-2.936.16-5.605.587-8.061.427-2.455 1.068-4.591 2.135-6.513 1.709-3.096 4.111-5.605 7.261-7.474 3.149-1.868 6.993-2.8289 11.531-2.8289 3.31 0 6.299.5873 8.968 1.7079 2.67 1.122 4.965 2.67 6.834 4.645 3.736 4.217 5.658 9.556 5.658 15.962v19.752l-.053.054zm-28.507-11.318h14.147v-8.168c0-2.722-.641-4.804-1.922-6.139-1.282-1.388-2.99-2.029-5.179-2.029-2.188 0-3.897.694-5.178 2.029-1.281 1.388-1.922 3.417-1.922 6.139v8.168h.054zm40.518 41.693v-71.588h14.414v7.634c2.936-2.616 5.766-4.698 8.595-6.193 2.83-1.495 6.3-2.2422 10.464-2.2422V114.66c-1.388-.587-2.883-.854-4.378-.854s-3.15.267-4.858.8c-1.762.534-3.31 1.388-4.751 2.616-1.495 1.228-2.723 2.83-3.684 4.805-.961 1.975-1.388 4.431-1.388 7.367v42.494h-14.414v-.107zm40.68 0v-71.588h14.414v6.94h.267c1.495-2.243 3.31-4.111 5.445-5.552 2.135-1.442 4.805-2.1892 8.115-2.1892 1.815 0 3.576.3204 5.391.9072 1.815.588 3.364 1.602 4.805 3.043 1.441 1.388 2.562 3.203 3.417 5.446.854 2.188 1.281 4.911 1.281 8.114v54.933h-14.414V122.24c0-2.615-.641-4.697-1.815-6.192-1.228-1.495-2.99-2.242-5.232-2.242-2.722 0-4.591.854-5.659 2.562-1.014 1.708-1.548 4.164-1.548 7.367v48.153h-14.413l-.054-.107zm98.013-30.375H839.21v9.769c0 2.242.64 4.004 1.922 5.232 1.281 1.227 2.989 1.815 5.178 1.815 2.722 0 4.538-.801 5.445-2.403.908-1.601 1.441-3.203 1.602-4.804h14.413c0 6.299-1.921 11.371-5.765 15.268-1.869 1.975-4.164 3.523-6.78 4.644-2.616 1.121-5.605 1.708-8.915 1.708-4.538 0-8.382-.96-11.531-2.829-3.15-1.868-5.552-4.377-7.261-7.474-1.014-1.868-1.761-4.057-2.135-6.513-.374-2.455-.587-5.125-.587-8.061v-23.596c0-2.936.16-5.605.587-8.061.427-2.455 1.068-4.591 2.135-6.513 1.709-3.096 4.111-5.605 7.261-7.474 3.149-1.868 6.993-2.8289 11.531-2.8289 3.31 0 6.299.5873 8.968 1.7079 2.67 1.122 4.965 2.67 6.834 4.645 3.737 4.217 5.658 9.556 5.658 15.962v19.752l-.053.054zm-28.507-11.318h14.147v-8.168c0-2.722-.641-4.804-1.922-6.139-1.281-1.388-2.99-2.029-5.179-2.029-2.188 0-3.897.694-5.178 2.029-1.281 1.388-1.922 3.417-1.922 6.139v8.168h.054zm40.518-29.949V78.4117h14.414v21.7273h8.915v11.318h-8.915v39.664c0 1.709.16 2.99.481 3.951.32.961.854 1.655 1.601 2.135.748.481 1.655.748 2.776.854 1.068.107 2.402.161 4.004.161v13.559h-5.926c-3.31 0-6.032-.534-8.274-1.548-2.189-1.014-3.951-2.349-5.285-3.95-1.335-1.602-2.296-3.417-2.883-5.446-.641-2.028-.908-3.95-.908-5.872v-43.508h-7.207v-11.318h7.207zm71.911 41.267h-28.507v9.769c0 2.242.64 4.004 1.921 5.232 1.282 1.227 2.99 1.815 5.179 1.815 2.722 0 4.537-.801 5.445-2.403.908-1.601 1.441-3.203 1.602-4.804h14.413c0 6.299-1.922 11.371-5.765 15.268-1.869 1.975-4.164 3.523-6.78 4.644-2.616 1.121-5.605 1.708-8.915 1.708-4.538 0-8.382-.96-11.531-2.829-3.15-1.868-5.552-4.377-7.261-7.474-1.014-1.868-1.761-4.057-2.135-6.513-.374-2.455-.587-5.125-.587-8.061v-23.596c0-2.936.16-5.605.587-8.061.427-2.455 1.068-4.591 2.135-6.513 1.709-3.096 4.111-5.605 7.261-7.474 3.149-1.868 6.993-2.8289 11.531-2.8289 3.31 0 6.299.5873 8.968 1.7079 2.67 1.122 4.965 2.67 6.834 4.645 3.736 4.217 5.658 9.556 5.658 15.962v19.752l-.053.054zm-28.561-11.318h14.147v-8.168c0-2.722-.641-4.804-1.922-6.139-1.281-1.388-2.989-2.029-5.178-2.029s-3.897.694-5.178 2.029c-1.282 1.388-1.922 3.417-1.922 6.139v8.168h.053zm66.675-9.876c-.107-2.456-.854-4.271-2.349-5.499-1.441-1.228-3.15-1.815-5.018-1.815-2.242 0-4.004.748-5.232 2.189-1.228 1.441-1.815 3.15-1.815 5.018 0 1.335.321 2.616 1.015 3.897.694 1.281 2.348 2.402 5.071 3.47l8.488 3.363c5.392 2.082 9.076 4.912 11.107 8.489 2.03 3.576 3.04 7.473 3.04 11.744 0 2.99-.53 5.819-1.6 8.381-1.07 2.616-2.564 4.858-4.432 6.834-1.869 1.975-4.164 3.523-6.78 4.644-2.616 1.121-5.499 1.708-8.595 1.708-5.819 0-10.73-1.815-14.681-5.498-1.975-1.762-3.577-4.004-4.804-6.727-1.228-2.722-1.869-5.819-1.976-9.395h13.56c.267 1.975.961 3.79 2.029 5.498 1.067 1.709 2.989 2.563 5.712 2.563 2.082 0 3.95-.694 5.552-2.029 1.655-1.388 2.455-3.256 2.455-5.712 0-1.975-.533-3.684-1.548-5.072-1.014-1.388-2.936-2.615-5.658-3.683l-6.94-2.562c-4.538-1.709-8.061-4.218-10.677-7.581-2.616-3.363-3.897-7.421-3.897-12.225 0-2.99.587-5.819 1.708-8.382 1.121-2.562 2.669-4.804 4.644-6.726 1.869-1.868 4.111-3.31 6.62-4.324 2.509-1.0144 5.285-1.4949 8.168-1.4949 2.883 0 5.605.5339 8.114 1.5479 2.509 1.015 4.645 2.509 6.406 4.378 1.816 1.868 3.2 4.11 4.22 6.726 1.01 2.616 1.55 5.339 1.55 8.275h-13.564.107zm53.547 51.569V71.2048h42.92v13.5597h-28.51v29.5215h24.88v13.56h-24.88v29.521h28.51v14.414h-42.92zm45.32 0l17.67-36.568-16.81-35.02h15.26l8.92 20.339 8.91-20.339h15.27l-17.08 35.02 17.94 36.568h-15.27l-9.72-21.887-9.77 21.887h-15.32z"/><path fill="#3AA4DD" d="M1144.41 100.139V78.4117h14.41v21.7273h8.92v11.318h-8.92v39.664c0 1.709.16 2.99.48 3.951.32.961.86 1.655 1.6 2.135.75.481 1.66.748 2.78.854 1.07.107 2.4.161 4 .161v13.559h-5.92c-3.31 0-6.03-.534-8.28-1.548-2.24-1.014-4-2.349-5.28-3.95-1.34-1.602-2.3-3.417-2.88-5.446-.64-2.028-.91-3.95-.91-5.872v-43.508h-7.21v-11.318h7.21zm71.85 41.267h-28.5v9.769c0 2.242.64 4.004 1.92 5.232 1.28 1.227 2.99 1.815 5.18 1.815 2.72 0 4.53-.801 5.44-2.403.91-1.601 1.44-3.203 1.6-4.804h14.42c0 6.299-1.92 11.371-5.82 15.268-1.87 1.975-4.17 3.523-6.78 4.644-2.62 1.121-5.61 1.708-8.92 1.708-4.53 0-8.38-.96-11.53-2.829-3.15-1.868-5.6-4.377-7.26-7.474-1.01-1.868-1.76-4.057-2.13-6.513-.38-2.455-.59-5.125-.59-8.061v-23.596c0-2.936.21-5.605.59-8.061.37-2.455 1.06-4.591 2.13-6.513 1.71-3.096 4.11-5.605 7.26-7.474 3.15-1.868 7-2.8289 11.53-2.8289 3.31 0 6.3.5873 8.97 1.7079 2.67 1.122 4.97 2.67 6.83 4.645 3.8 4.217 5.66 9.556 5.66 15.962V141.406zm-28.5-11.318h14.14v-8.168c0-2.722-.64-4.804-1.92-6.139-1.28-1.388-2.99-2.029-5.18-2.029-2.19 0-3.89.694-5.18 2.029-1.28 1.388-1.92 3.417-1.92 6.139v8.168h.06zm40.52 41.693v-71.588h14.41v6.94h.27c1.49-2.243 3.31-4.111 5.44-5.552 2.14-1.442 4.81-2.1892 8.12-2.1892 1.81 0 3.57.3204 5.39.9072 1.76.588 3.36 1.602 4.8 3.043 1.39 1.388 2.57 3.203 3.37 5.446.85 2.188 1.28 4.911 1.28 8.114v54.933h-14.42V122.24c0-2.615-.58-4.697-1.81-6.192s-2.99-2.242-5.23-2.242c-2.73 0-4.59.854-5.66 2.562-1.02 1.708-1.55 4.164-1.55 7.367v48.153h-14.41v-.107zm82.48-51.569c-.11-2.456-.86-4.271-2.35-5.499-1.44-1.228-3.15-1.815-5.02-1.815-2.24 0-4 .748-5.23 2.189-1.23 1.441-1.82 3.15-1.82 5.018 0 1.335.32 2.616 1.02 3.897.69 1.281 2.35 2.402 5.07 3.47l8.49 3.363c5.39 2.082 9.07 4.912 11.1 8.489 2.03 3.576 3.04 7.473 3.04 11.744 0 2.99-.53 5.819-1.6 8.381-1.07 2.616-2.56 4.858-4.43 6.834-1.87 1.975-4.16 3.523-6.78 4.644s-5.5 1.708-8.59 1.708c-5.82 0-10.73-1.815-14.68-5.498-1.98-1.762-3.58-4.004-4.81-6.727-1.23-2.722-1.87-5.819-1.97-9.395h13.56c.26 1.975.96 3.79 2.02 5.498 1.07 1.709 2.99 2.563 5.72 2.563 2.08 0 3.95-.694 5.55-2.029 1.65-1.388 2.45-3.256 2.45-5.712 0-1.975-.53-3.684-1.54-5.072-1.02-1.388-2.94-2.615-5.66-3.683l-6.94-2.562c-4.54-1.709-8.06-4.218-10.68-7.581-2.62-3.363-3.9-7.421-3.9-12.225 0-2.99.59-5.819 1.71-8.382 1.12-2.562 2.67-4.804 4.65-6.726 1.86-1.868 4.11-3.31 6.62-4.324 2.5-1.0144 5.28-1.4949 8.16-1.4949 2.89 0 5.61.5339 8.12 1.5479 2.51 1.015 4.64 2.509 6.4 4.378 1.82 1.868 3.21 4.11 4.22 6.726 1.02 2.616 1.55 5.339 1.55 8.275h-13.56.11zm25.03-34.5933V71.2048h14.42v14.4139h-14.42zm0 86.1623v-71.588h14.42v71.588h-14.42zm26.38-47.619c0-2.936.21-5.605.58-8.061.38-2.455 1.07-4.591 2.14-6.513 1.71-3.096 4.11-5.605 7.26-7.474 3.15-1.868 6.99-2.8289 11.53-2.8289 4.54 0 8.33.9609 11.53 2.8289 3.15 1.869 5.55 4.378 7.26 7.474 1.01 1.869 1.76 4.058 2.14 6.513.37 2.456.58 5.125.58 8.061v23.596c0 2.936-.21 5.606-.58 8.061-.38 2.456-1.07 4.591-2.14 6.513-1.71 3.097-4.11 5.606-7.26 7.474-3.15 1.869-6.99 2.829-11.53 2.829-4.54 0-8.38-.96-11.53-2.829-3.15-1.868-5.61-4.377-7.26-7.474-1.02-1.868-1.76-4.057-2.14-6.513-.37-2.455-.58-5.125-.58-8.061v-23.596zM1376.58 150c0 2.723.64 4.805 1.92 6.14 1.28 1.388 2.99 2.028 5.18 2.028 2.19 0 3.9-.694 5.18-2.028 1.28-1.388 1.92-3.417 1.92-6.14v-28.08c0-2.722-.64-4.804-1.92-6.139-1.28-1.388-2.99-2.029-5.18-2.029-2.19 0-3.9.694-5.18 2.029-1.28 1.388-1.92 3.417-1.92 6.139V150zm40.52 21.781v-71.588h14.41v6.94h.27c1.49-2.243 3.31-4.111 5.44-5.552 2.14-1.442 4.81-2.1892 8.12-2.1892 1.81 0 3.58.3204 5.39.9072 1.76.588 3.36 1.602 4.8 3.043 1.39 1.388 2.57 3.203 3.37 5.446.85 2.188 1.28 4.911 1.28 8.114v54.933h-14.41V122.24c0-2.615-.59-4.697-1.82-6.192s-2.99-2.242-5.23-2.242c-2.72 0-4.59.854-5.66 2.562-1.01 1.708-1.55 4.164-1.55 7.367v48.153h-14.41v-.107zM504.597 312.983v-60.324h-7.047v-11.318h7.047v-9.769c0-3.47.533-6.406 1.548-8.809 1.014-2.402 2.455-4.377 4.217-5.979 1.708-1.601 3.63-2.722 5.872-3.363 2.189-.64 4.485-1.014 6.834-1.014h6.619v13.56h-6.513c-2.829 0-4.217 1.654-4.217 4.964v10.464h10.73v11.317h-10.73v60.325h-14.414l.054-.054zm29.681-47.565c0-2.936.16-5.606.587-8.061.427-2.456 1.068-4.591 2.135-6.513 1.709-3.097 4.111-5.606 7.261-7.474 3.149-1.869 6.993-2.83 11.531-2.83 4.537 0 8.328.961 11.531 2.83 3.15 1.868 5.552 4.377 7.26 7.474 1.014 1.868 1.762 4.057 2.136 6.513.373 2.455.587 5.125.587 8.061v23.596c0 2.936-.214 5.605-.587 8.061-.374 2.455-1.068 4.591-2.136 6.513-1.708 3.096-4.11 5.605-7.26 7.473-3.15 1.869-6.994 2.83-11.531 2.83-4.538 0-8.382-.961-11.531-2.83-3.15-1.868-5.552-4.377-7.261-7.473-1.014-1.869-1.761-4.058-2.135-6.513-.374-2.456-.587-5.125-.587-8.061v-23.596zm14.414 25.838c0 2.722.64 4.804 1.921 6.139 1.282 1.388 2.99 2.029 5.179 2.029s3.897-.694 5.178-2.029c1.281-1.388 1.922-3.417 1.922-6.139v-28.08c0-2.723-.641-4.805-1.922-6.14-1.281-1.388-2.989-2.028-5.178-2.028s-3.897.694-5.179 2.028c-1.281 1.388-1.921 3.417-1.921 6.14v28.08zm40.519 21.727v-71.588h14.414v7.634c2.936-2.616 5.765-4.698 8.595-6.193 2.829-1.495 6.299-2.242 10.463-2.242v15.268c-1.388-.587-2.883-.854-4.378-.854-1.494 0-3.149.267-4.857.801-1.762.533-3.31 1.388-4.752 2.615-1.495 1.228-2.722 2.83-3.683 4.805-.961 1.975-1.388 4.431-1.388 7.367v42.494h-14.414v-.107zM707.297 212.46l-20.606 100.577h-12.706L653.486 212.46h15.268l11.424 70.201h.267l11.584-70.201h15.268zm56.64 28.935h-14.414v-3.257c0-3.31-.748-6.139-2.349-8.541-1.548-2.403-4.164-3.577-7.848-3.577-1.975 0-3.576.374-4.804 1.121-1.228.747-2.189 1.708-2.99 2.829-.747 1.228-1.281 2.616-1.548 4.164-.267 1.548-.427 3.203-.427 4.858 0 1.976.053 3.63.214 4.965.16 1.335.48 2.509 1.067 3.523.587 1.015 1.388 1.922 2.456 2.67 1.068.747 2.562 1.494 4.431 2.242l10.997 4.377c3.203 1.228 5.766 2.67 7.741 4.325 1.975 1.654 3.523 3.576 4.644 5.712 1.015 2.242 1.762 4.804 2.136 7.687.373 2.883.587 6.139.587 9.823 0 4.217-.427 8.168-1.281 11.798-.855 3.63-2.189 6.726-4.111 9.235-1.975 2.616-4.591 4.698-7.794 6.193-3.203 1.495-7.1 2.242-11.745 2.242-3.47 0-6.726-.587-9.716-1.815-2.989-1.228-5.605-2.936-7.794-5.072-2.189-2.188-3.897-4.697-5.178-7.58-1.281-2.883-1.922-5.979-1.922-9.396v-5.392h14.414v4.538c0 2.616.801 5.018 2.349 7.154 1.548 2.135 4.164 3.203 7.847 3.203 2.456 0 4.378-.374 5.712-1.068 1.335-.694 2.403-1.708 3.204-3.043.747-1.335 1.174-2.883 1.334-4.751.16-1.815.214-3.897.214-6.139 0-2.616-.107-4.805-.267-6.513-.16-1.709-.587-3.043-1.121-4.111-.641-1.014-1.549-1.868-2.616-2.562-1.068-.641-2.509-1.388-4.324-2.136l-10.303-4.217c-6.193-2.563-10.357-5.926-12.493-10.09-2.135-4.164-3.203-9.449-3.203-15.748 0-3.791.534-7.367 1.549-10.731 1.014-3.363 2.562-6.299 4.644-8.755 1.975-2.455 4.484-4.377 7.581-5.872 3.043-1.441 6.726-2.189 10.943-2.189 3.577 0 6.834.641 9.823 1.976 2.99 1.334 5.552 3.042 7.688 5.231 4.324 4.538 6.513 9.716 6.513 15.535v7.047l.16.107zm85.575 42.921v6.192c0 3.097-.587 6.033-1.761 8.809-1.175 2.776-2.83 5.232-4.858 7.42-2.082 2.189-4.485 3.897-7.261 5.179-2.776 1.281-5.765 1.922-8.968 1.922-2.723 0-5.499-.374-8.328-1.122-2.83-.747-5.392-2.082-7.634-3.95-2.242-1.868-4.111-4.324-5.606-7.26-1.441-2.99-2.188-6.78-2.188-11.371v-55.36c0-3.31.587-6.353 1.708-9.182 1.121-2.829 2.723-5.285 4.805-7.367s4.537-3.684 7.42-4.858c2.883-1.175 6.033-1.762 9.556-1.762 6.78 0 12.278 2.189 16.549 6.62 2.082 2.189 3.684 4.751 4.858 7.687 1.175 2.99 1.762 6.193 1.762 9.663v5.659h-14.414v-4.805c0-2.829-.801-5.285-2.402-7.367-1.602-2.082-3.791-3.096-6.513-3.096-3.577 0-5.979 1.121-7.154 3.309-1.174 2.189-1.761 5.019-1.761 8.382v51.409c0 2.936.64 5.392 1.921 7.367 1.282 1.975 3.577 2.99 6.834 2.99.961 0 1.975-.16 3.043-.481 1.067-.32 2.082-.854 3.042-1.601.855-.748 1.549-1.762 2.136-3.097.587-1.334.854-2.989.854-4.964v-4.965h14.414-.054zm10.998-18.898c0-2.936.16-5.606.587-8.061.427-2.456 1.068-4.591 2.135-6.513 1.709-3.097 4.111-5.606 7.261-7.474 3.149-1.869 6.993-2.83 11.531-2.83 4.537 0 8.328.961 11.531 2.83 3.149 1.868 5.552 4.377 7.26 7.474 1.014 1.868 1.762 4.057 2.135 6.513.374 2.455.588 5.125.588 8.061v23.596c0 2.936-.214 5.605-.588 8.061-.373 2.455-1.067 4.591-2.135 6.513-1.708 3.096-4.111 5.605-7.26 7.473-3.15 1.869-6.994 2.83-11.531 2.83-4.538 0-8.382-.961-11.531-2.83-3.15-1.868-5.552-4.377-7.261-7.473-1.014-1.869-1.761-4.058-2.135-6.513-.374-2.456-.587-5.125-.587-8.061v-23.596zm14.414 25.838c0 2.722.64 4.804 1.921 6.139 1.282 1.388 2.99 2.029 5.179 2.029 2.188 0 3.897-.694 5.178-2.029 1.281-1.388 1.922-3.417 1.922-6.139v-28.08c0-2.723-.641-4.805-1.922-6.14-1.281-1.388-2.99-2.028-5.178-2.028-2.189 0-3.897.694-5.179 2.028-1.281 1.388-1.921 3.417-1.921 6.14v28.08zm69.188 21.727v-6.513c-.961 1.015-1.815 1.976-2.67 2.883-.854.908-1.815 1.655-2.829 2.349-1.014.641-2.242 1.174-3.523 1.548-1.335.374-2.883.587-4.645.587-6.032 0-10.196-2.242-12.545-6.779-.854-1.602-1.442-3.577-1.815-5.926-.374-2.349-.587-5.499-.587-9.449v-27.28c0-5.178.16-8.968.427-11.424.587-4.698 2.776-8.221 6.619-10.57 1.815-1.228 4.485-1.815 8.061-1.815 2.83 0 5.339.64 7.528 1.922 2.188 1.281 4.11 3.096 5.712 5.445h.267v-35.447h14.413V313.09h-14.413v-.107zm-14.254-23.275c0 2.936.587 5.285 1.708 7.046 1.121 1.815 2.936 2.67 5.392 2.67 2.189 0 3.897-.801 5.232-2.456 1.334-1.655 1.975-3.79 1.975-6.406v-27.814c0-2.242-.694-4.11-2.029-5.605-1.388-1.441-3.096-2.189-5.178-2.189-2.723 0-4.591.854-5.605 2.563-1.015 1.708-1.495 3.683-1.495 5.925v26.266zm83.602-7.101h-28.51v9.77c0 2.242.64 4.004 1.922 5.231 1.281 1.228 2.989 1.816 5.178 1.816 2.722 0 4.538-.801 5.445-2.403.908-1.601 1.441-3.203 1.602-4.804h14.413c0 6.299-1.92 11.371-5.82 15.268-1.87 1.975-4.16 3.523-6.78 4.644-2.614 1.121-5.604 1.708-8.914 1.708-4.537 0-8.381-.961-11.531-2.829-3.149-1.868-5.605-4.378-7.26-7.474-1.014-1.868-1.762-4.057-2.135-6.513-.374-2.455-.588-5.125-.588-8.061v-23.596c0-2.936.214-5.605.588-8.061.373-2.455 1.067-4.591 2.135-6.513 1.708-3.096 4.111-5.605 7.26-7.474 3.15-1.868 6.994-2.829 11.531-2.829 3.31 0 6.3.587 8.974 1.708 2.66 1.121 4.96 2.67 6.83 4.645 3.79 4.217 5.66 9.556 5.66 15.962v19.805zm-28.51-11.264h14.147v-8.168c0-2.722-.641-4.804-1.922-6.139-1.282-1.388-2.99-2.028-5.179-2.028-2.188 0-3.897.694-5.178 2.028-1.281 1.388-1.922 3.417-1.922 6.139v8.168h.054z"/><defs><linearGradient id="paint0_linear_7902_236" x1="202.44" x2="202.44" y1="4.474" y2="378.059" gradientUnits="userSpaceOnUse"><stop offset=".28" stop-color="#6BC390"/><stop offset=".67" stop-color="#13BDDA"/><stop offset=".89" stop-color="#3F9ED8"/></linearGradient><linearGradient id="paint1_linear_7902_236" x1="202.813" x2="202.813" y1="21.771" y2="395.356" gradientUnits="userSpaceOnUse"><stop offset=".28" stop-color="#6BC390"/><stop offset=".67" stop-color="#13BDDA"/><stop offset=".89" stop-color="#3F9ED8"/></linearGradient></defs></svg>