<svg id="Layer_1" data-name="Layer 1" xmlns="http://www.w3.org/2000/svg" viewBox="0 0 1304.84998 245.88"><g id="Layer_2" data-name="Layer 2"><g id="Layer_1-2" data-name="Layer 1-2"><path d="M185.6,0C83.1,0,0,83.1,0,185.6a185.23979,185.23979,0,0,0,10,60.28H129.24l-1.45-2.27c-7.35-11.55-18.77-38.57-19.47-41V198.1a1.57,1.57,0,0,1,1.57-1.57l.01,0h69.2V180.4H104.4a129.99962,129.99962,0,0,0,14.87-29.81c.07-.19.14-.38.2-.58s.24-.7.35-1l.45-1.35a1.38533,1.38533,0,0,1,.1-.33c.22-.69.43-1.37.64-2.07h0q1.51-5.06,2.61-10.28h55.44V118.8H144.68a1.2302,1.2302,0,0,1-.39-.06l.06-.14h-.06a116.11007,116.11007,0,0,0,10.28-48.13V68.59h24.51V18.9L239,37.33,192.14,52.16V68.51h24.53v1.88a116.00007,116.00007,0,0,0,10.29,48.13h-.06a.83974.83974,0,0,0,.06.14,1.26994,1.26994,0,0,1-.39.06H192.14v16.13h55.44q1.11,5.22,2.62,10.28h0c.2.7.42,1.38.63,2.07a1.06948,1.06948,0,0,0,.11.33c.14.45.29.9.44,1.35s.23.7.35,1a5.878,5.878,0,0,1,.2.58A130.38945,130.38945,0,0,0,266.8,180.4H192.14v16.13h69.2a1.57,1.57,0,0,1,1.57995,1.56l0,.01v4.49c-.7,2.45-12.12,29.47-19.47,41L242,245.88H361.19a185.49954,185.49954,0,0,0,10-60.28C371.2,83.1,288.11,0,185.6,0Z"/><path d="M469,225.49a146.29044,146.29044,0,0,1-19.16-1.39,174.35664,174.35664,0,0,1-20-3.81,108.711,108.711,0,0,1-16.51-5.43V179.31a118.2188,118.2188,0,0,0,25.05,9.23,102.47975,102.47975,0,0,0,24.8,3.46q12.93,0,19.86-4.39T490,175.38q0-6.69-4.85-10.27t-17.54-7.74l-7.16-2.3q-25.17-8.08-36-19.51T413.6,105.19q0-23.09,16.51-36.36t45.14-13.28a119.99974,119.99974,0,0,1,17.66,1.39,142.36053,142.36053,0,0,1,17.55,3.69,65.001,65.001,0,0,1,13.27,5.08v35.56A68.08914,68.08914,0,0,0,510.28,95a117.90891,117.90891,0,0,0-15.93-4.38A73.86987,73.86987,0,0,0,480,89q-24,0-24,13.39a11.75,11.75,0,0,0,4.62,9.82q4.62,3.57,16.85,7.5l6.7,2.08q25.4,7.84,36.94,19.85t11.55,31.17q0,25.17-16.63,38.91Q499.39992,225.46,469,225.49Z"/><path d="M554.15,222V50.7h35.32q6.24006,0,6.24,6.24v83.35l37.63-39.48H678.6l-43.41,42.71L683.44,222H637.27l-29.79-51.25-11.77,11.54V222Z"/><path d="M749.48,224.79a72.74974,72.74974,0,0,1-33-7.39A57.23,57.23,0,0,1,693,196.16q-8.67-13.84-8.66-33.25,0-20.31,9-34.74a60.75,60.75,0,0,1,24.36-22.28A73.65011,73.65011,0,0,1,751.79,98a72.86011,72.86011,0,0,1,33,7.38,57.35,57.35,0,0,1,23.44,21.25q8.65,13.85,8.66,33.24,0,20.1-9,34.64a60.46014,60.46014,0,0,1-24.36,22.39A73.7,73.7,0,0,1,749.48,224.79Zm1.85-33.25A20.53993,20.53993,0,0,0,768,183.69q6.46-7.84,6.46-21.7,0-15.47-6.81-23.09t-17.66-7.62a20.67008,20.67008,0,0,0-16.51,7.85q-6.58008,7.86-6.58,21.71.0001,15.47,6.81,23.09,6.81,7.62,17.62,7.61Z"/><path d="M852.34,224.79a72.74968,72.74968,0,0,1-33-7.39,57.22982,57.22982,0,0,1-23.43-21.24q-8.66994-13.84-8.66-33.25,0-20.31,9-34.74a60.69015,60.69015,0,0,1,24.36-22.28A73.62008,73.62008,0,0,1,854.65,98a72.86008,72.86008,0,0,1,33,7.38,57.35,57.35,0,0,1,23.44,21.25q8.65,13.85,8.66,33.24,0,20.1-9,34.64a60.46017,60.46017,0,0,1-24.36,22.39A73.76,73.76,0,0,1,852.34,224.79Zm1.84-33.25a20.55011,20.55011,0,0,0,16.63-7.85q6.45-7.84,6.46-21.7,0-15.47-6.81-23.09t-17.66-7.62a20.67005,20.67005,0,0,0-16.51,7.85q-6.59006,7.86-6.58,21.71.00009,15.47,6.81,23.09,6.81,7.62,17.65991,7.61Z"/><path d="M1018.33,222V152.76q0-21.48-16.86-21.48A25.57,25.57,0,0,0,986,136.36q-6.92989,5.08-6.92,17.32V222H937.52V100.81h32.09q6,0,6.23,5.77l.93,13.16a40,40,0,0,1,15.7-15.93A44.94015,44.94015,0,0,1,1015.09,98Q1037,98,1048.46,111T1059.89,147.94V222Z"/><path d="M1078.13,162.22q0-19.62,8.54-34.05a59.27023,59.27023,0,0,1,22.86-22.28,64.12015,64.12015,0,0,1,31.4-7.85q27.46,0,42.48,15.35,15.02,15.35,15,42.83,0,5.09-.35,9.7c-.23,3.08-.5,5.69-.81006,7.85h-76.42q3,10.15,11.66,14.77,8.66,4.62,22.74,4.62a91.559,91.559,0,0,0,19.74-2,93.36092,93.36092,0,0,0,18.13-6.12v32.09q-20.32984,7.62-46.41,7.62-19.4,0-35-7a55.91988,55.91988,0,0,1-24.59-21Q1078.13,182.78,1078.13,162.22Zm41.09-11.08h38.1q-1.15009-12.24-5.43006-17.78-4.28008-5.54-12.12-5.54a18.17,18.17,0,0,0-13.27,5.66Q1120.82984,139.14,1119.22,151.14Z"/><path d="M1260.75,161.76V222h-41.56006V100.81h32.1q6,0,6.23,5.77l1.16,18.7A43.6892,43.6892,0,0,1,1273.11,106.46a35.74,35.74,0,0,1,21.58-6.81,41.81949,41.81949,0,0,1,10.16,1.16v36.25a75.17815,75.17815,0,0,0-7.85-1.16q-3-.22-6.68994-.23-12.46,0-21,6T1260.75,161.76Z"/></g></g></svg>