<?xml version="1.0" encoding="utf-8"?>
<!-- Generator: Adobe Illustrator 21.1.0, SVG Export Plug-In . SVG Version: 6.00 Build 0)  -->
<svg version="1.1" id="Layer_1" xmlns="http://www.w3.org/2000/svg" xmlns:xlink="http://www.w3.org/1999/xlink" x="0px" y="0px"
	 viewBox="0 0 52.7 90" style="enable-background:new 0 0 52.7 90;" xml:space="preserve">
<g id="Artboard" transform="translate(-367.000000, -109.000000)">
	<g id="notary-blk" transform="translate(367.000000, 109.000000)">
		<path id="Combined-Shape" d="M4.7,83.5v-6.2h3.1v6.2h3.1v2.6H1.6v-2.6H4.7z M33.3,81.9v-1.6h-4.7v1.6H33.3z M34.9,82.2v1.3h-7.8
			v-1.3v-3.4h0.8h5.5v-1.6h1.6V82.2z M49.4,84.5v-1h-6.2v-0.8v-7h1.6v6.2h4.7v-6.2H51v10.4h-1.3H12v-1.6H49.4z M22.4,75.7v-2.6h1.6
			v2.6h10.9v1.6H23.9v6.2h-1.6v-6.2h-1.6v-1.6H22.4z M1.6,73.1h9.4v2.6H1.6V73.1z M12,75.7h1.6v7.8H12V75.7z M18.2,75.7h1.6v7.8
			h-1.6V75.7z M13.5,81.9h4.7v1.6h-4.7V81.9z M13.5,75.7h4.7v1.6h-4.7V75.7z M23.9,81.9h1.6v1.6h-1.6V81.9z M35.9,75.7h6.2v1.6h-6.2
			V75.7z M35.9,77.2h1.6v6.2h-1.6V77.2z M1.6,75.7h1.6v7.8H1.6V75.7z M9.4,75.7h1.6v7.8H9.4V75.7z"/>
	</g>
</g>
<polygon points="17.9,56.8 17.9,23.9 34.4,23.9 34.4,56.8 50.8,56.8 50.8,70.5 1.5,70.5 1.5,56.8 "/>
<rect x="1.5" y="2" width="49.3" height="13.7"/>
<rect x="1.5" y="15.7" width="8.2" height="41.1"/>
<rect x="42.6" y="15.7" width="8.2" height="41.1"/>
</svg>
