<?xml version="1.0" encoding="UTF-8"?><svg id="Layer_1" xmlns="http://www.w3.org/2000/svg" xmlns:xlink="http://www.w3.org/1999/xlink" viewBox="0 0 500 500"><defs><style>.cls-1{fill:none;}.cls-2{clip-path:url(#clippath);}.cls-3{fill:#6881fe;}.cls-4{fill:#fff;}.cls-5{fill:#727efe;}.cls-6{fill:#2f58a1;}.cls-7{fill:#b0baff;}.cls-8{opacity:.6;}.cls-9{opacity:.5;}.cls-10{opacity:.9;}.cls-11{opacity:.8;}.cls-12{opacity:.7;}</style><clipPath id="clippath"><rect class="cls-1" x="20.49016" y="19.91666" width="459.01931" height="130.99301"/></clipPath></defs><polygon class="cls-4" points="6.80594 413.22324 6.80594 6.2318 493.19406 6.2318 493.19406 413.22324 249.99933 494.1367 6.80594 413.22324"/><g><g class="cls-2"><g><path class="cls-4" d="m192.70603,34.26771c-6.85928,0-12.41984-5.56059-12.41984-12.41996v80.25043c0,.00034-.00003.00068-.00003.00113v111.35842c5.54116-1.05716,11.1269-1.94896,16.75726-2.67494,2.73235-.34404,5.40743-.6116,8.08246-.85999v-107.82349c0-.21432-.00544-.42729-.01616-.63879.01074.2115.01619.42447.01619.63879V21.84776c0,6.85937-5.56056,12.41996-12.41987,12.41996Zm-12.41942,67.81356c-.00051-4.06057,1.95426-7.66578,4.97533-9.92414-3.01647,2.26209-4.96952,5.86481-4.97533,9.92414Zm5.44424-10.2586c-.01706.01162-.03339.02414-.05039.03576.017-.01162.0333-.02414.05039-.03576Z"/><path class="cls-4" d="m322.21659,89.69087c0-4.06915-1.95708-7.68112-4.98116-9.94648,3.02321,2.25747,4.98077,5.86312,4.98116,9.92617V-20.31102c-4.11449-1.17188-8.26077-2.2419-12.43896-3.21006-.63055-.15284-1.29929-.28651-1.91075-.42029-1.47128-.32486-2.92344-.66879-4.41384-.97448-.84073-.17202-1.68145-.32486-2.52221-.47771-1.14644-.22932-2.29289-.45864-3.45845-.66879v114.23617c-.06066.49756-.09554,1.00313-.09554,1.51705v2.56033c.01052,6.85937,5.57962,12.41138,12.43891,12.40089.0064-.00011.0128-.00011.0192-.00011,6.62737-.01015,12.03393-5.2179,12.3655-11.76301-.33194,6.56293-5.75836,11.78219-12.40374,11.78219-6.85928,0-12.41987-5.56059-12.41987-12.41996l.0478,88.3303,24.83974,24.83969-.0478-113.16999v-2.56033Z"/><path class="cls-4" d="m337.55993,119.44886c-.00008,6.83827,5.54333,12.38183,12.38152,12.38183.01915,0,.0383,0,.05744-.00011,6.36629.00981,11.61527-4.78757,12.3183-10.96766-.70235,6.19317-5.95657,11.0059-12.33742,11.0059-6.85928,0-12.41987-5.56059-12.41987-12.41996v43.77565l24.83974,13.54683v-57.30229c0-.00034.00003-.00068.00003-.00102V-20.03579c-8.1057-3.77688-16.39607-7.14408-24.83974-10.08883V119.44886Zm24.82288.64815c.00505-.09814.00519-.19763.00795-.29633-.00276.0987-.0029.19819-.00795.29633Zm-.0487.63281c.01241-.12081.01943-.2432.02834-.36502-.00888.12182-.01596.24421-.02834.36502Z"/><path class="cls-4" d="m477.65604,2.88946c-.68785-1.08908-1.35662-2.19734-2.06359-3.28643l-1.16556-1.91072-2.31201-3.49669-.9936-1.50949c-1.10823-1.64327-2.25467-3.26748-3.40112-4.89157l-.47768-.64962c-.9936-1.39488-1.91078-2.78966-3.0381-4.16548l-1.20377-1.60503-2.42664-3.17182-1.37574-1.73881-2.44576-3.01898-1.35665-1.6814-.68785-.80257V103.47334c-.02276.30715-.03824.61645-.03824.92947v.85987c.01055,6.85926,5.57965,12.41127,12.43894,12.40078h.00006c6.84439-.0106,12.39023-5.55642,12.40075-12.40078V5.96585l-.68788-1.16556-1.16556-1.91083Z"/><path class="cls-4" d="m467.08961,117.68253c-6.85928,0-12.41987-5.56059-12.41987-12.41984v210.88931c5.19726,6.2419,10.10787,12.73196,14.73188,19.47063l1.71969-2.42678.99357-1.50926c.78342-1.1465,1.5477-2.31217,2.31201-3.4968l1.16556-1.91083c.70697-1.10815,1.39486-2.19734,2.06362-3.30549l1.16556-1.91083c.22929-.38217.43947-.78328.68785-1.16545V105.26268c0,6.85926-5.56056,12.41984-12.41987,12.41984Z"/><path class="cls-4" d="m494.891,183.8888v213.90851c14.68673-33.72607,22.252-70.12122,22.22202-106.90643.04258-36.81724-7.52294-73.24623-22.22202-107.00208Z"/><path class="cls-4" d="m219.60937,218.21564c8.10158-.42052,16.20316-.68808,24.28564-1.16568.15284-.01286.33753-.03181.5541-.0573V-8.64772c-8.36911.13378-16.64265.66879-24.83974,1.54773v225.31564Z"/><path class="cls-4" d="m200.3299-13.55836c-.9936.17191-2.27379.43947-3.42021.66879-1.14644.22921-1.91075.38205-2.99989.59231l-3.38205.74516c-.99357.22932-1.91075.43947-2.96165.66879-1.05093.22932-2.27379.55407-3.40115.8407-1.12732.28662-1.91075.47771-2.8852.72609l-.9363.24839v28.78081c-.03663.38848-.05727.7817-.05727,1.17978v.85987c-.00008,6.83816,5.5433,12.38161,12.38152,12.38172.01912,0,.03827,0,.05742-.00011,6.84132,0,12.39023-5.5404,12.40078-12.38161V-14.37999l-1.79611.28662c-.9936.19108-2.00629.36299-2.99989.53501Z"/><path class="cls-4" d="m165.78357,118.12098v.63055c-.19089,1.51998-.66397,2.991-1.39486,4.33739-.38648.67635-.83418,1.31604-1.3375,1.91072-.28662.34393-.59234.68785-.89806.99354-2.96309,2.92502-7.21401,4.13547-11.27346,3.21006,4.03847.89281,8.25411-.32295,11.19701-3.22913.30572-.30569.61146-.64962.89806-.99354.50331-.59468.95102-1.23437,1.3375-1.91083.73089-1.34638,1.20394-2.81729,1.39486-4.33739v-1.56679c.00014-6.8085-5.49689-12.33964-12.30521-12.38161-6.83261.01049-12.36703,5.54547-12.38098,12.37495,0-.01049-.00068-.02109-.00065-.03158v1.19094c-.03835-.39514-.05846-.79253-.0573-1.19094v-.62108c-.0121.2247-.01915.45064-.01915.67838.00248.41352.03147.82513.07645,1.23482v72.30999c.95536-.30569,1.91075-.57325,2.86611-.87894,7.24173-2.27382,14.54082-4.35656,21.91631-6.13361l-.01912-66.53226v.93635Z"/><path class="cls-4" d="m153.3637,104.76478c6.85928,0,12.41987,5.56059,12.41987,12.41984V-37.586c-.42038.13367-.85985.26745-1.2802.42041l-3.21006,1.08908-3.03807,1.07002c-1.07002.38217-2.12095.7834-3.19094,1.18463-1.07002.40123-1.91078.74527-2.98077,1.12732l-3.17185,1.2611-2.94256,1.2038-3.0954,1.31841c-.63055.26745-1.2611.55419-1.91075.82164V116.50625c.35242-6.54364,5.76913-11.74147,12.40072-11.74147Z"/><path class="cls-4" d="m119.18036-11.52345c-.82161.43947-1.62415.89811-2.42664,1.35665-1.2611.70703-2.50306,1.43312-3.82149,2.17828-.74521.42029-1.47125.85976-2.21646,1.29934-1.39488.85976-2.78969,1.71964-4.18457,2.59857l-1.64321,1.03178c-1.91075,1.22286-3.82149,2.48397-5.73224,3.82155v212.34149c5.63038-2.63681,11.36263-5.13353,17.19676-7.49015,2.48394-1.01272,5.02527-2.00626,7.56654-2.98063V-14.02648l-1.12732.59231c-1.2038.64962-2.40758,1.31841-3.61135,1.91072Z"/><path class="cls-4" d="m84.53853-32.18818l-.36305.28662c-1.91075,1.52855-3.93613,3.09546-5.86602,4.70049l-1.08914.93624c-1.56682,1.29934-3.11452,2.63681-4.66222,3.9744l-1.77699,1.58586c-1.33753,1.18474-2.67502,2.4076-3.99346,3.63047l-1.68145,1.56679c-1.66236,1.58597-3.30563,3.17182-4.92973,4.77685l-.42035.40134v83.65248c-.01055-6.83816,5.5243-12.39018,12.36249-12.40078h.03824c4.2857,0,8.06224,2.17783,10.28491,5.48682-2.23598-3.27729-5.99913-5.4294-10.26576-5.4294-6.85931,0-12.41987,5.56048-12.41987,12.41984v117.56828c8.10155-5.17165,16.38149-9.96769,24.83974-14.38787v-103.18042c0-.3983-.02067-.79174-.05733-1.18056V-32.18818Z"/><path class="cls-4" d="m43.209-16.8449l-1.05087,1.2611c-1.24198,1.50949-2.48397,3.03816-3.68774,4.56671l-.84073,1.10826c-.93624,1.18463-1.91075,2.38843-2.77062,3.59223l-1.28022,1.7387-2.27379,3.09546c-.4395.61149-.87894,1.22286-1.29929,1.91083l-2.25467,3.19089-1.14647,1.6814c-.97451,1.45219-1.91075,2.90437-2.86611,4.37562l-.38219.57325c-.96808,1.51592-1.92344,3.04447-2.86611,4.58588v89.30839c0-6.84876,5.55202-12.40078,12.40081-12.40078s12.40072,5.55202,12.40072,12.40078V-19.30969l-2.08271,2.46479Z"/><path class="cls-4" d="m45.29171,104.1798v-.03598c0,.00598-.00045.01196-.00045.01794-.011-6.8394-5.55825-12.38048-12.40022-12.38048-6.84259,0-12.39023,5.54198-12.40033,12.38217-.00003-.00654-.00054-.01308-.00054-.01963v63.24572c.03153-6.82643,5.57432-12.34348,12.40081-12.34348,6.84126,0,12.39018,5.54051,12.40072,12.38183v-63.24358c0-.00079.00006-.00158.00006-.00226,0-.00079-.00006-.00147-.00006-.00226Z"/><path class="cls-4" d="m-9.79516,360.02171l.30572-.36299c.87894-.84081,1.7006-1.75788,2.61772-2.56033,3.14633-2.84076,6.28632-5.71964,9.41998-8.63664v-162.58564c-23.35688,55.06287-27.7001,116.33876-12.34342,174.14561Z"/><path class="cls-4" d="m281.59407,12.79939c-1.49037-.19108-2.98077-.3631-4.47114-.51595-.82161,0-1.62415-.15284-2.44576-.22921-1.35665-.13378-2.71326-.2485-4.06991-.3631-.87897,0-1.75788-.13378-2.65593-.19108-1.2802,0-2.57954-.17202-3.82149-.24839-.9363,0-1.91075-.09554-2.8088-.13378s-1.47128,0-2.21649,0v42.0365c.06184,6.75537,5.51189,12.22233,12.26703,12.30524,6.80291-.01026,12.32709-5.49923,12.38155-12.30152-.00203,6.85756-5.56175,12.41612-12.41979,12.41612-6.85928,0-12.41987-5.56059-12.41987-12.41984v.85987c0,.00023.00003.00045.00003.00079v171.24067l24.83974,24.83969V53.91872c0,6.85926-5.56059,12.41984-12.41987,12.41984-6.39362,0-11.65667-4.83179-12.34213-11.04278.69708,6.219,5.98669,11.03443,12.38034,11.00454,6.83816,0,12.38163-5.54344,12.38163-12.38161v-.76354c0-.00023.00003-.00045.00003-.00079V13.0286c-.08246-.0106-.16596-.0106-.24841,0-.64964-.09543-1.31841-.15284-1.91075-.22921Zm-22.64649,41.99443c.01148.16051.02332.32103.04083.47974-.01723-.15882-.02964-.31911-.04083-.47974Zm-.02493-.51313c.00344.1128.00522.22616.01165.33829-.00623-.11224-.0084-.22537-.01165-.33829Z"/><path class="cls-4" d="m142.51065,196.78657l-.66876-1.50949c.18355.51956.40715,1.02422.66876,1.50949Z"/><path class="cls-4" d="m436.07815-17.58532l-1.52861-1.49043c-1.81521-1.73881-3.64953-3.47751-5.52207-5.15902l-.80252-.72609c-1.62412-1.45219-3.24825-2.8852-4.91061-4.29915l-1.79611-1.52855c-1.39486-1.16568-2.8088-2.33112-4.22275-3.47762l-1.14644-.91718V241.77505c.01041,6.85914,5.5794,12.41138,12.43871,12.40078h.05758c6.80393-.06294,12.2864-5.59668,12.28612-12.40078V-12.73199l-.91718-.93635c-1.29929-1.31841-2.61772-2.61775-3.93613-3.91698Z"/><path class="cls-4" d="m322.21662,89.67169c0-.00034-.00003-.00068-.00003-.00113v.0203c0-.00643.00003-.01275.00003-.01918Z"/><path class="cls-4" d="m397.00333-22.73464l-2.52221-1.66245c-1.03181-.66868-2.06359-1.29923-3.07631-1.91072-1.01269-.61138-1.70054-1.07002-2.56039-1.58586-.85982-.51595-2.1018-1.28028-3.17185-1.91083l-2.5413-1.49031c-1.10823-.64973-2.23556-1.28028-3.34382-1.91083-.68785-.38217-1.35662-.7834-2.0445-1.14639-1.06007,1.8559-1.6136,3.95793-1.605,6.09526l-.05733,22.96721c0,.21376.00544.42627.0161.63732-.01069-.21105-.0161-.42356-.0161-.63732v140.12953h0v73.43009c8.25445,8.27997,16.53437,16.55994,24.83974,24.83969v-98.25061c.00017-.10378-.00496-.20631-.00733-.30941.00223.09678.00733.19289.00733.29023V-5.28955c0,.21376-.00541.42627-.0161.63732.01066-.21105.0161-.42356.0161-.63732v-14.90381l-.91718-.63055-2.99986-1.91072Zm-8.44525,145.19278c-.03192-.00011-.06387,0-.0958.00023-6.62446,0-12.03387,5.20234-12.36556,11.74429.33177-6.56316,5.75821-11.78252,12.40377-11.78252,6.22309,0,11.37664,4.57697,12.27927,10.54827-.90093-5.9423-6.02628-10.50055-12.22168-10.51025Zm12.32069,11.40825c.00891.11494.01994.22932.02572.34506-.00578-.11573-.01678-.23011-.02572-.34506Zm-.07885-.7394c.02098.15183.04196.30377.05739.4574-.01545-.15363-.03635-.30558-.05739-.4574Z"/></g><g><g class="cls-8"><path class="cls-5" d="m192.72513,89.69852c6.84877,0,12.40077,5.55199,12.40077,12.40076h0V21.84781c0,6.85931-5.56058,12.41987-12.41987,12.41987s-12.41987-5.56056-12.41987-12.41987v80.25149c-.01064-6.8382,5.52419-12.39026,12.36238-12.40089.02554-.00004.05105,0,.07659.00012Z"/></g><g class="cls-11"><path class="cls-5" d="m322.21659,92.25127c0,6.85931-5.56058,12.41987-12.41987,12.41987s-12.41987-5.56056-12.41987-12.41987h0l.04779,88.33017,24.83974,24.83974-.04779-113.16992Z"/></g><g class="cls-8"><path class="cls-5" d="m309.83495,104.65203c6.84127-.01054,12.38165-5.55947,12.38165-12.40076v-2.5604c0-6.85931-5.56058-12.41987-12.41987-12.41987s-12.41987,5.56056-12.41987,12.41987v2.5604c.01053,6.85929,5.57962,12.41133,12.43891,12.4008.00639-.00001.0128-.00003.01918-.00004Z"/></g><g class="cls-11"><path class="cls-5" d="m309.83495,104.65203c6.84127-.01054,12.38165-5.55947,12.38165-12.40076v-2.5604c0-6.85931-5.56058-12.41987-12.41987-12.41987s-12.41987,5.56056-12.41987,12.41987v2.5604c.01053,6.85929,5.57962,12.41133,12.43891,12.4008.00639-.00001.0128-.00003.01918-.00004Z"/></g><g class="cls-10"><path class="cls-5" d="m349.9989,131.83057c6.83818.01055,12.39019-5.52432,12.40077-12.36252V-20.03579c-8.1057-3.77684-16.39607-7.144-24.83974-10.08875V119.44891c-.00009,6.8382,5.54332,12.38172,12.3815,12.38179.01916,0,.03831-.00004.05747-.00013Z"/></g><g class="cls-12"><path class="cls-5" d="m362.39965,119.44891c0,6.85931-5.56058,12.41987-12.41987,12.41987s-12.41987-5.56056-12.41987-12.41987v43.77557l24.83974,13.54691v-57.32248Z"/></g><g class="cls-12"><path class="cls-5" d="m467.10872,92.00205c6.84439.01053,12.39023,5.55637,12.40076,12.40076V5.96583l-.68787-1.16556-1.16556-1.91075c-.68787-1.08913-1.35663-2.19736-2.06361-3.28649l-1.16556-1.91075-2.312-3.49667-.99358-1.50949c-1.10824-1.64325-2.25468-3.26738-3.40113-4.89151l-.47769-.64965c-.99358-1.39485-1.91075-2.78969-3.03808-4.16543l-1.20377-1.60502-2.42665-3.17185-1.37574-1.73879-2.44576-3.01899-1.35663-1.68145-.68787-.80251V104.34549c.04197-6.82199,5.57864-12.33306,12.40074-12.34344Z"/></g><g class="cls-8"><path class="cls-5" d="m471.1213,333.19594l.99358-1.50948c.78341-1.14646,1.5477-2.31202,2.312-3.49667l1.16556-1.91075c.70698-1.10824,1.39485-2.19735,2.06361-3.30559l1.16556-1.91075c.2293-.38214.43948-.78341.68787-1.16556V105.26264c0,6.85929-5.56056,12.41987-12.41987,12.41987s-12.41987-5.56058-12.41987-12.41987v210.88942c5.19724,6.24177,10.10787,12.73195,14.73188,19.47054l1.71968-2.42666Z"/></g><g class="cls-11"><path class="cls-5" d="m467.10872,117.66342c6.84439-.01053,12.39025-5.55638,12.40076-12.40077v-.85983c0-6.85931-5.56056-12.41987-12.41987-12.41987s-12.41987,5.56056-12.41987,12.41987v.85983c.01054,6.85929,5.57965,12.4113,12.43894,12.40077h.00004Z"/></g><path class="cls-5" d="m517.11303,290.89089c.04257-36.81729-7.52293-73.2462-22.22202-107.00196v213.90838c14.68673-33.72608,22.25199-70.12126,22.22202-106.90642Z"/><g class="cls-12"><path class="cls-5" d="m283.75323,53.9187c0,6.85931-5.56058,12.41987-12.41987,12.41987s-12.41987-5.56056-12.41987-12.41987h0v171.3369l24.83974,24.83974V53.9187Z"/></g><path class="cls-3" d="m271.37155,66.30035c6.83818,0,12.38165-5.54346,12.38165-12.38165v-.7643c0,6.85931-5.56058,12.41987-12.41987,12.41987s-12.41987-5.56056-12.41987-12.41987v.85984c.06303,6.82635,5.63151,12.31797,12.45809,12.28612Z"/><g class="cls-10"><path class="cls-5" d="m244.4491,216.99264V-8.64773c-8.36909.13375-16.64264.66876-24.83974,1.54771v225.31557c8.10159-.42037,16.20315-.68787,24.28564-1.16556.15286-.01277.33754-.03187.5541-.05735Z"/></g><g class="cls-11"><path class="cls-5" d="m205.12588,209.92287v-107.82357c0-6.85931-5.56058-12.41987-12.41987-12.41987s-12.41987,5.56056-12.41987,12.41987v111.35847c5.54116-1.05727,11.12693-1.94897,16.75728-2.67504,2.73236-.34395,5.40742-.61145,8.08246-.85986Z"/></g><g class="cls-8"><path class="cls-5" d="m192.72513,8.49168c6.84439.01052,12.39025,5.55637,12.40077,12.40076V-14.37999l-1.79611.28661c-.9936.19108-2.00629.36304-2.99989.53501-.9936.17197-2.2738.43947-3.42023.66876-1.14643.22929-1.91075.38215-2.99989.59233l-3.38203.74519c-.9936.22929-1.91075.43947-2.96167.66876-1.05092.22929-2.2738.55412-3.40113.84073-1.12734.28661-1.91075.47769-2.88522.72609l-.93628.2484v29.96055c0-6.84131,5.54037-12.39023,12.38168-12.40077Z"/></g><g class="cls-10"><path class="cls-5" d="m192.72513,34.13394c6.8413.00001,12.39022-5.54036,12.40077-12.38165v-.85984c0-6.85931-5.56058-12.41987-12.41987-12.41987s-12.41987,5.56056-12.41987,12.41987v.85984c-.00009,6.8382,5.54332,12.38171,12.38153,12.38179.01913,0,.03828-.00004.05744-.00013Z"/></g><g class="cls-12"><path class="cls-5" d="m165.78356,117.18467v1.56681c-.19088,1.52002-.66396,2.99103-1.39484,4.33739-.38649.67646-.8342,1.31606-1.33752,1.91075-.2866.34394-.59233.68787-.89805.99358-2.96307,2.92497-7.214,4.13542-11.27344,3.21007-1.86815-.36936-3.62269-1.17463-5.12079-2.35023-.70332-.56686-1.34387-1.20744-1.91075-1.91075-.50964-.58979-.95779-1.23002-1.33752-1.91075-.26161-.48512-.48521-.98979-.66877-1.50949-.54719-1.40038-.82592-2.89124-.82161-4.39473v73.60207c.95537-.30573,1.91075-.57323,2.86612-.87896,7.24173-2.2738,14.5408-4.35651,21.9163-6.13352l-.01913-66.53226Z"/></g><g class="cls-8"><path class="cls-5" d="m150.87971,129.20329c-1.86815-.36936-3.62269-1.17463-5.12079-2.35023,1.49811,1.1756,3.25264,1.98087,5.12079,2.35023Z"/></g><g class="cls-8"><path class="cls-5" d="m140.94382,117.18467c0-6.85931,5.56058-12.41987,12.41987-12.41987s12.41987,5.56056,12.41987,12.41987V-37.58602c-.42037.13375-.85983.2675-1.2802.42037l-3.21004,1.08913-3.03808,1.07002c-1.07001.38215-2.12093.78341-3.19095,1.18466-1.07001.40126-1.91075.74519-2.98076,1.12734l-3.17185,1.26109-2.94254,1.20377-3.0954,1.31841c-.63055.2675-1.2611.55412-1.91075.82162V117.12735c-.00432,1.50349.27441,2.99435.82161,4.39473-.54673-1.38118-.83184-2.85198-.84076-4.33741Z"/></g><g class="cls-12"><path class="cls-5" d="m123.91903,202.63337V-14.02649l-1.12734.59233c-1.20378.64966-2.40756,1.31841-3.61134,1.91075-.82161.43947-1.62415.89805-2.42663,1.35663-1.2611.70698-2.50308,1.43306-3.8215,2.17825-.74522.42037-1.47126.85984-2.21648,1.29931-1.39487.85984-2.78968,1.71968-4.18455,2.59862l-1.64322,1.03181c-1.91075,1.22288-3.8215,2.48397-5.73225,3.8215h0v212.34156c5.63038-2.63684,11.36263-5.13354,17.19674-7.49013,2.48395-1.01269,5.02528-2.00629,7.56655-2.98076Z"/></g><g class="cls-8"><path class="cls-5" d="m72.15684,60.92265c6.83818-.00001,12.38168,5.54342,12.38168,12.38162v.01914V-32.18816l-.36305.28662c-1.91075,1.5286-3.93614,3.09541-5.86601,4.70044l-1.08914.93627c-1.56683,1.29931-3.11453,2.63684-4.66223,3.97435l-1.77698,1.58593c-1.33755,1.18467-2.67504,2.40755-3.99346,3.63043l-1.68147,1.56681c-1.66234,1.58593-3.30562,3.17185-4.92971,4.77687l-.42037.40126v83.6526c-.01055-6.8382,5.52431-12.3902,12.36249-12.40077.01277-.00001.02548-.00001.03825,0Z"/></g><g class="cls-8"><path class="cls-5" d="m84.59584,176.5803v-103.18046c0-6.85931-5.56058-12.41987-12.41987-12.41987s-12.41987,5.56056-12.41987,12.41987v117.5684c8.10156-5.17179,16.38149-9.96773,24.83974-14.38794Z"/></g><g class="cls-11"><path class="cls-5" d="m84.59584,176.5803v-103.18046c0-6.85931-5.56058-12.41987-12.41987-12.41987s-12.41987,5.56056-12.41987,12.41987v117.5684c8.10156-5.17179,16.38149-9.96773,24.83974-14.38794Z"/></g><g class="cls-8"><path class="cls-5" d="m32.89097,155.04616c6.84127,0,12.39019,5.54037,12.40074,12.38165V-19.30973l-2.08271,2.46487-1.05089,1.2611c-1.24198,1.50949-2.48395,3.03808-3.68773,4.56669l-.84073,1.10824c-.93625,1.18467-1.91075,2.38844-2.77061,3.5922l-1.28023,1.73879-2.2738,3.09542c-.43949.61144-.87893,1.22288-1.2993,1.91075l-2.25467,3.19093-1.14646,1.68145c-.9745,1.45217-1.91075,2.90433-2.86612,4.37562l-.38217.57323c-.96809,1.51586-1.92346,3.04445-2.86612,4.5858v89.30843c0-6.84875,5.55201-12.40076,12.4008-12.40076,6.84874.00001,12.40074,5.55202,12.40074,12.40077s-5.55207,12.40076-12.4008,12.40076h0c-6.84436-.01053-12.39025-5.55638-12.40074-12.40076v63.2458c.03155-6.82637,5.57434-12.34354,12.4008-12.34345Z"/></g><g class="cls-8"><path class="cls-5" d="m32.89097,116.58277c6.84874,0,12.40074-5.55198,12.4008-12.40074,0-6.84875-5.55201-12.40077-12.40074-12.40079-6.8488,0-12.4008,5.55199-12.4008,12.40074v.00003h0c.0105,6.84438,5.55638,12.39023,12.40074,12.40076Z"/></g><g class="cls-11"><path class="cls-5" d="m32.89097,116.58277c6.84874,0,12.40074-5.55198,12.4008-12.40074,0-6.84875-5.55201-12.40077-12.40074-12.40079-6.8488,0-12.4008,5.55199-12.4008,12.40074v.00003h0c.0105,6.84438,5.55638,12.39023,12.40074,12.40076Z"/></g><path class="cls-5" d="m2.54826,348.46174v-162.58565c-23.35688,55.06288-27.70009,116.33879-12.34342,174.14569l.30573-.36305c.87893-.84073,1.70059-1.75789,2.61772-2.5604,3.14631-2.84064,6.28632-5.71951,9.41998-8.6366Z"/><path class="cls-3" d="m271.37155,65.45962c6.80416-.01027,12.32925-5.50125,12.38168-12.30522V13.02866c-.08245-.0106-.16595-.0106-.24841,0-.64965-.09554-1.31842-.15286-1.91075-.22929-1.49038-.19108-2.98076-.36304-4.47115-.5159-.82161,0-1.62415-.15286-2.44576-.22929-1.35664-.13375-2.71326-.2484-4.06991-.36304-.87896,0-1.75789-.13375-2.65594-.19108-1.2802,0-2.57952-.17197-3.8215-.2484-.93628,0-1.91075-.09554-2.8088-.13375-.89805-.03822-1.47129,0-2.21648,0v42.03649c.06184,6.75534,5.51189,12.22236,12.26701,12.30522Z"/><g class="cls-11"><path class="cls-5" d="m271.37155,65.45962c6.80416-.01027,12.32925-5.50125,12.38168-12.30522V13.02866c-.08245-.0106-.16595-.0106-.24841,0-.64965-.09554-1.31842-.15286-1.91075-.22929-1.49038-.19108-2.98076-.36304-4.47115-.5159-.82161,0-1.62415-.15286-2.44576-.22929-1.35664-.13375-2.71326-.2484-4.06991-.36304-.87896,0-1.75789-.13375-2.65594-.19108-1.2802,0-2.57952-.17197-3.8215-.2484-.93628,0-1.91075-.09554-2.8088-.13375-.89805-.03822-1.47129,0-2.21648,0v42.03649c.06184,6.75534,5.51189,12.22236,12.26701,12.30522Z"/></g><g class="cls-8"><path class="cls-5" d="m153.40191,104.78391c-6.84127.01054-12.38165,5.55947-12.38165,12.40076-.00432,1.50349.27441,2.99435.82161,4.39473.18356.5197.40716,1.02437.66877,1.50949.37972.68073.82788,1.32096,1.33752,1.91075.56687.70331,1.20743,1.34389,1.91075,1.91075,1.50362,1.15512,3.25774,1.94055,5.12079,2.29289,4.03845.89273,8.2541-.32305,11.19699-3.22917.30573-.30573.61145-.64965.89805-.99358.50332-.59469.95103-1.23429,1.33752-1.91075.73088-1.34637,1.20393-2.81738,1.39484-4.33739v-1.56681h0c.00015-6.80846-5.49687-12.33962-12.3052-12.38166Z"/></g><g class="cls-11"><path class="cls-5" d="m153.40191,104.78391c-6.84127.01054-12.38165,5.55947-12.38165,12.40076-.00432,1.50349.27441,2.99435.82161,4.39473.18356.5197.40716,1.02437.66877,1.50949.37972.68073.82788,1.32096,1.33752,1.91075.56687.70331,1.20743,1.34389,1.91075,1.91075,1.50362,1.15512,3.25774,1.94055,5.12079,2.29289,4.03845.89273,8.2541-.32305,11.19699-3.22917.30573-.30573.61145-.64965.89805-.99358.50332-.59469.95103-1.23429,1.33752-1.91075.73088-1.34637,1.20393-2.81738,1.39484-4.33739v-1.56681h0c.00015-6.80846-5.49687-12.33962-12.3052-12.38166Z"/></g><g class="cls-12"><path class="cls-5" d="m153.40191,129.56633c-.84837-.00819-1.69363-.10425-2.5222-.28662.82858.18237,1.67383.27842,2.5222.28662Z"/></g><g class="cls-8"><path class="cls-5" d="m153.40191,129.56633c-.84837-.00819-1.69363-.10425-2.5222-.28662.82858.18237,1.67383.27842,2.5222.28662Z"/></g><g class="cls-8"><path class="cls-5" d="m153.40191,129.56633c-.84837-.00819-1.69363-.10425-2.5222-.28662.82858.18237,1.67383.27842,2.5222.28662Z"/></g><g class="cls-11"><path class="cls-5" d="m153.40191,129.56633c-.84837-.00819-1.69363-.10425-2.5222-.28662.82858.18237,1.67383.27842,2.5222.28662Z"/></g><g class="cls-12"><path class="cls-1" d="m142.51065,196.78648c-.26161-.48512-.48521-.98979-.66877-1.50949"/></g><g class="cls-8"><path class="cls-1" d="m142.51065,196.78648c-.26161-.48512-.48521-.98979-.66877-1.50949"/></g><g class="cls-11"><path class="cls-1" d="m142.51065,196.78648c-.26161-.48512-.48521-.98979-.66877-1.50949"/></g><g class="cls-12"><path class="cls-1" d="m142.51065,196.78648c-.26161-.48512-.48521-.98979-.66877-1.50949"/></g><g class="cls-12"><path class="cls-1" d="m142.51065,196.78648c-.26161-.48512-.48521-.98979-.66877-1.50949"/></g><g class="cls-11"><path class="cls-1" d="m142.51065,196.78648c-.26161-.48512-.48521-.98979-.66877-1.50949"/></g><g class="cls-8"><path class="cls-1" d="m142.51065,196.78648c-.26161-.48512-.48521-.98979-.66877-1.50949"/></g><g class="cls-11"><path class="cls-1" d="m142.51065,196.78648c-.26161-.48512-.48521-.98979-.66877-1.50949"/></g><g class="cls-10"><path class="cls-5" d="m428.64534,254.17573c6.80394-.06292,12.28641-5.59653,12.28612-12.40077V-12.73203l-.91717-.93626c-1.29931-1.31842-2.61773-2.61773-3.93614-3.91704l-1.52861-1.49038c-1.81521-1.73879-3.64954-3.47756-5.52206-5.15902l-.80251-.72608c-1.62413-1.45217-3.24827-2.88524-4.91063-4.29919l-1.79611-1.5286c-1.39485-1.16556-2.8088-2.33112-4.22275-3.47756l-1.14645-.91716V241.77495c.01042,6.85929,5.57941,12.41142,12.43872,12.40101.0192-.00003.03838-.00012.05758-.00023Z"/></g><g class="cls-8"><path class="cls-5" d="m309.83495,77.2901c6.83821,0,12.38165,5.54345,12.38168,12.38165,0,.00637-.00003.01274-.00003.01911V-20.31097c-4.11448-1.17192-8.26078-2.24194-12.43897-3.21006-.63055-.15286-1.2993-.28662-1.91075-.42037-1.47129-.32482-2.92344-.66876-4.41383-.97448-.84073-.17197-1.68147-.32482-2.5222-.47769-1.14646-.22929-2.29289-.45858-3.45845-.66876v115.7532c-.00003-6.83387,5.52871-12.37971,12.36255-12.40077Z"/></g><g class="cls-9"><path class="cls-5" d="m388.46228,7.09212c-6.8382,0-12.38166-5.54345-12.38166-12.38165h0s0,140.12953,0,140.12953c0-6.85931,5.56056-12.41987,12.41987-12.41987s12.41987,5.56056,12.41987,12.41987h0V-5.28953c.00013,6.8382-5.54322,12.38176-12.38141,12.38189-.02555,0-.05111-.00007-.07666-.00023Z"/></g><g class="cls-9"><path class="cls-5" d="m376.08062-5.28953h0c0,6.8593,5.56056,12.41988,12.41987,12.41988s12.41987-5.56058,12.41987-12.41988v-14.90384l-.91717-.63055-2.99988-1.91075-2.52219-1.66235c-1.03181-.66876-2.06361-1.29931-3.07631-1.91075-1.01269-.61144-1.70057-1.07002-2.5604-1.58593-.85983-.5159-2.10182-1.2802-3.17185-1.91075l-2.5413-1.49038c-1.10824-.64966-2.23557-1.2802-3.34381-1.91075-.68787-.38215-1.35663-.78341-2.0445-1.14645-1.06009,1.85593-1.61361,3.95795-1.60502,6.09529l-.05732,22.96721Z"/></g><g class="cls-12"><path class="cls-5" d="m376.08062-5.28953h0c0,6.8593,5.56056,12.41988,12.41987,12.41988s12.41987-5.56058,12.41987-12.41988v-14.90384l-.91717-.63055-2.99988-1.91075-2.52219-1.66235c-1.03181-.66876-2.06361-1.29931-3.07631-1.91075-1.01269-.61144-1.70057-1.07002-2.5604-1.58593-.85983-.5159-2.10182-1.2802-3.17185-1.91075l-2.5413-1.49038c-1.10824-.64966-2.23557-1.2802-3.34381-1.91075-.68787-.38215-1.35663-.78341-2.0445-1.14645-1.06009,1.85593-1.61361,3.95795-1.60502,6.09529l-.05732,22.96721Z"/></g><path class="cls-5" d="m388.46228,122.45833c-6.8382,0-12.38166,5.54345-12.38166,12.38165h0v73.43011c8.25445,8.2799,16.53437,16.55984,24.83974,24.83974v-98.25073c.01069-6.8382-5.52409-12.39031-12.36229-12.40099-.03193-.00006-.06387.00001-.09579.00022Z"/></g></g><path class="cls-1" d="m205.12588,250.84157c-2.67504.24841-5.3501.51591-8.02514.85983-5.63032.72609-11.21609,1.61776-16.75728,2.67504,5.54119-1.05727,11.12696-1.94897,16.75728-2.67504,2.67504-.34392,5.3501-.61142,8.02514-.85983Z"/><g><rect class="cls-6" x="20.49022" y="150.90967" width="459.01925" height="252.44483"/><polyline class="cls-6" points="20.49024 403.3545 249.99986 479.71415 479.50949 403.3545"/></g><g><path class="cls-7" d="m131.46392,235.63557c-1.74885,1.16635-3.76256,2.07687-6.03886,2.73247-2.27766.65604-4.56344.98407-6.85892.98407-3.2791,0-6.25747-.51933-8.93556-1.55799-2.67787-1.03821-4.9826-2.47709-6.91351-4.31708-1.93159-1.83954-3.42506-4.02561-4.48132-6.55819-1.05716-2.53213-1.58484-5.27408-1.58484-8.22538,0-2.98694.52768-5.74693,1.58484-8.27952,1.05626-2.53213,2.54973-4.7182,4.48132-6.55819,1.93091-1.83954,4.23564-3.27932,6.91351-4.31753,2.6781-1.03821,5.65647-1.55754,8.93556-1.55754,2.33112,0,4.54471.31945,6.64008.95654,2.09492.63755,4.0529,1.4849,5.87508,2.54116l-2.84166,7.86983c-1.49437-.83788-3.05214-1.49347-4.67285-1.96768-1.62161-.47286-3.2518-.71019-4.89123-.71019-1.85827,0-3.54395.27298-5.05524.81983-1.51242.5464-2.78751,1.33871-3.82572,2.37737-1.03844,1.03821-1.84022,2.30473-2.40467,3.7982-.56535,1.49437-.84713,3.16968-.84713,5.02772s.28177,3.52523.84713,5.00065c.56445,1.47588,1.36623,2.73247,2.40467,3.77113,1.03821,1.03821,2.3133,1.83999,3.82572,2.40444,1.51129.56535,3.19698.84735,5.05524.84735,1.63944,0,3.33369-.25448,5.08254-.76524,1.74885-.50986,3.38829-1.23809,4.91876-2.18606l2.78706,7.86983Z"/><path class="cls-7" d="m140.00062,238.69606v-40.05979h25.35834v8.52588h-16.06768v7.15919h14.64685v8.08866h-14.64685v7.81524h16.06768v8.47083h-25.35834Z"/><path class="cls-7" d="m197.40635,238.69606l-6.83117-13.06179c-.29238.03655-.55588.0546-.79276.0546h-.79231c-.69259,0-1.27554-.00857-1.74885-.02707-.47376-.01805-1.03821-.04557-1.69426-.08212v13.11638h-9.29066v-39.67718c1.7123-.18183,3.51575-.33614,5.41034-.46428,1.89414-.12724,4.02561-.19131,6.39441-.19131,3.13313,0,5.79296.34652,7.97902,1.03821,2.18606.69259,3.98004,1.63966,5.38327,2.84211,1.40233,1.202,2.42249,2.6147,3.06049,4.23541.63709,1.62161.95654,3.34294.95654,5.16444,0,2.4049-.60145,4.61803-1.80345,6.64031-1.20245,2.02183-2.8967,3.67096-5.08277,4.94605l9.39985,15.46623h-10.5477Zm-1.63921-26.72458c0-1.67531-.60145-2.97837-1.8039-3.90784-1.202-.92902-2.80601-1.39331-4.80934-1.39331-.72914,0-1.34819.0185-1.85804.0546-.51076.03655-1.09281.10919-1.74885.21838v11.03996c.61905.07309,1.1289.11867,1.53047.13626.40021.01895.87443.02752,1.42083.02752,2.22171,0,3.98951-.51933,5.30115-1.55754s1.96768-2.57725,1.96768-4.61803Z"/><path class="cls-7" d="m233.66749,207.16214v31.53392h-9.29111v-31.53392h-12.02313v-8.52588h33.33736v8.52588h-12.02313Z"/><path class="cls-7" d="m253.54871,238.69606v-40.05979h9.29111v40.05979h-9.29111Z"/><path class="cls-7" d="m283.70016,207.16214v8.85345h13.77198v8.14326h-13.77198v14.53721h-9.29111v-40.05979h25.35834v8.52588h-16.06723Z"/><path class="cls-7" d="m308.40742,238.69606v-40.05979h9.29111v40.05979h-9.29111Z"/><path class="cls-7" d="m329.26775,238.69606v-40.05979h25.35834v8.52588h-16.06723v7.15919h14.6464v8.08866h-14.6464v7.81524h16.06723v8.47083h-25.35834Z"/><path class="cls-7" d="m401.73047,218.31084c0,2.9513-.47421,5.69324-1.42128,8.22538-.94752,2.53259-2.39587,4.71865-4.3446,6.55819-1.94964,1.83999-4.4362,3.28835-7.46014,4.3446-3.02439,1.05716-6.61279,1.58507-10.76608,1.58507-1.16635,0-2.23209-.00948-3.1972-.02752-.96602-.0185-1.91264-.0546-2.84211-.10919-.92902-.0546-1.88511-.12814-2.86918-.21883-.98362-.09024-2.09537-.19131-3.33347-.3005v-39.34915c2.3309-.25448,4.39018-.42774,6.17557-.51888,1.7845-.09069,3.67954-.13671,5.68377-.13671,4.1533,0,7.76064.51031,10.82113,1.53002,3.06049,1.02061,5.59217,2.4234,7.5964,4.20834,2.00333,1.7854,3.4977,3.8898,4.48132,6.31229.98407,2.4234,1.47588,5.05524,1.47588,7.8969Zm-9.89211,0c0-3.64254-1.12033-6.49412-3.36099-8.55295-2.24066-2.05792-5.52946-3.08756-9.86459-3.08756-.80178,0-1.45783.0185-1.96768.0546-.51031.03655-1.1298.09114-1.85804.16379v23.60949c.43721.037.81036.07355,1.12033.10919.30907.037.62852.06407.95654.08212.32802.01895.67364.02752,1.03821.02752h1.31164c2.18606,0,4.07163-.29148,5.65669-.87443,1.58461-.5825,2.89625-1.42128,3.93492-2.51409,1.03821-1.09326,1.80345-2.4049,2.29525-3.93492.49181-1.53047.73771-3.22428.73771-5.08277Z"/><path class="cls-4" d="m192.31591,288.61367v20.06261c-2.62644,1.89684-5.42974,3.31406-8.40811,4.24985-2.97927.93579-6.24416,1.40459-9.7942,1.40459-4.20744,0-8.00113-.65063-11.38107-1.95189-3.38039-1.30036-6.26852-3.12456-8.66349-5.4717-2.39587-2.34624-4.23767-5.16128-5.5263-8.44421-1.28953-3.28338-1.93339-6.89434-1.93339-10.83421,0-3.98771.62581-7.62393,1.87835-10.90686s3.03342-6.09752,5.34401-8.44421c2.31014-2.34669,5.11886-4.16458,8.42661-5.45365,3.30684-1.28863,7.00353-1.93339,11.08914-1.93339,2.0665,0,3.98816.15205,5.76363.45616,1.77457.30411,3.41604.74177,4.9244,1.31299,1.50746.57167,2.90573,1.26471,4.19481,2.07913,1.28863.81532,2.49243,1.73306,3.6114,2.75412l-2.00649,3.21029c-.31629.48684-.72372.79682-1.22185.92992-.49858.13401-1.0522.0185-1.65996-.34652-.5834-.3402-1.25253-.7535-2.00604-1.2399-.75396-.48639-1.67215-.95429-2.75412-1.40459-1.08243-.44985-2.35887-.83292-3.83024-1.14921-1.47136-.31584-3.21615-.47421-5.23437-.47421-2.94273,0-5.60571.48053-7.9885,1.44113-2.38369.96106-4.41409,2.33451-6.0921,4.12171-1.67801,1.78765-2.96709,3.95206-3.86633,6.49322-.90014,2.54161-1.34999,5.39274-1.34999,8.55385,0,3.28293.46789,6.21979,1.40459,8.80968.93579,2.58989,2.2736,4.79084,4.01252,6.60241,1.73847,1.81157,3.84828,3.19179,6.32898,4.14021,2.48025.94842,5.2646,1.42263,8.35307,1.42263,2.43152,0,4.59006-.27388,6.47517-.82073,1.88421-.54731,3.72601-1.30713,5.5263-2.27991v-11.49071h-8.13468c-.46203,0-.83337-.1331-1.11266-.40112-.27974-.26711-.41916-.59558-.41916-.98497v-4.01252h16.05009Z"/><path class="cls-4" d="m206.7683,265.19504c0,.63258-.12769,1.22185-.38307,1.76916s-.59604,1.03415-1.02152,1.45918c-.42548.42593-.92451.76027-1.49573,1.00302-.57167.24365-1.17357.36502-1.80525.36502-.63303,0-1.2223-.12137-1.76916-.36502-.54731-.24275-1.02783-.57708-1.44113-1.00302-.41375-.42503-.74222-.91188-.98497-1.45918-.2432-.54731-.36457-1.13657-.36457-1.76916,0-.63213.12137-1.23403.36457-1.8057.24275-.57122.57122-1.0698.98497-1.49573.4133-.42503.89383-.75937,1.44113-1.00302.54685-.24275,1.13612-.36457,1.76916-.36457.63168,0,1.23358.12182,1.80525.36457.57122.24365,1.07025.57799,1.49573,1.00302.42548.42593.76614.92451,1.02152,1.49573.25538.57167.38307,1.17357.38307,1.8057Zm-1.38609,11.5999v36.95193h-6.49322v-36.95193h6.49322Z"/><path class="cls-4" d="m223.69326,314.33072c-2.91836,0-5.16173-.81487-6.7301-2.44415-1.56882-1.62883-2.35301-3.97597-2.35301-7.04007v-22.6164h-4.45019c-.38939,0-.71786-.11506-.98497-.34652-.26801-.23101-.40112-.58927-.40112-1.07611v-2.58989l6.0551-.76614,1.49573-11.41762c.07264-.36457.23688-.66191.49226-.89338.25538-.23101.58927-.34652,1.00302-.34652h3.28338v12.73061h10.68757v4.70556h-10.68757v22.17829c0,1.55664.37675,2.71216,1.13071,3.46567.7535.75396,1.72629,1.13071,2.91791,1.13071.68086,0,1.27058-.09114,1.76916-.27343.49858-.18274.93037-.38307,1.2954-.6019.36457-.21883.67454-.41962.92992-.6019s.48008-.27388.675-.27388c.3402,0,.64386.2071.91188.6204l1.89684,3.10065c-1.11898,1.04588-2.46852,1.86661-4.04907,2.4622-1.581.59558-3.20984.89383-4.88785.89383Z"/><path class="cls-4" d="m285.74815,287.6287c0,3.91596-.61995,7.50887-1.8603,10.77917-1.24035,3.2712-2.991,6.08624-5.25287,8.44466-2.26141,2.35932-4.97899,4.18939-8.15273,5.48975-3.17374,1.30126-6.68182,1.95189-10.52379,1.95189-3.84287,0-7.34463-.65063-10.50574-1.95189-3.16156-1.30036-5.87282-3.13043-8.13423-5.48975-2.26187-2.35842-4.01252-5.17346-5.25287-8.44466-1.24035-3.2703-1.8603-6.8632-1.8603-10.77917,0-3.91506.61995-7.50797,1.8603-10.77917,1.24035-3.2703,2.991-6.09165,5.25287-8.46271,2.26141-2.37106,4.97268-4.21331,8.13423-5.5263,3.16111-1.31344,6.66287-1.96994,10.50574-1.96994,3.84197,0,7.35005.6565,10.52379,1.96994,3.17374,1.31299,5.89132,3.15524,8.15273,5.5263,2.26187,2.37106,4.01252,5.19241,5.25287,8.46271,1.24035,3.2712,1.8603,6.86411,1.8603,10.77917Zm-7.25891,0c0-3.20984-.43766-6.09165-1.31344-8.64499-.87533-2.55334-2.11568-4.71143-3.7206-6.47472-1.60492-1.76329-3.55094-3.11915-5.83627-4.06757-2.28623-.94842-4.83957-1.42263-7.66047-1.42263-2.79699,0-5.33815.47421-7.62393,1.42263-2.28623.94842-4.23767,2.30428-5.85477,4.06757-1.61755,1.76329-2.86332,3.92138-3.73864,6.47472-.87578,2.55334-1.31344,5.43516-1.31344,8.64499,0,3.21029.43766,6.08624,1.31344,8.62694.87533,2.54161,2.12109,4.69383,3.73864,6.45667,1.6171,1.76329,3.56854,3.11328,5.85477,4.04907,2.28578.93624,4.82694,1.40459,7.62393,1.40459,2.8209,0,5.37424-.46835,7.66047-1.40459,2.28533-.93579,4.23135-2.28578,5.83627-4.04907,1.60492-1.76284,2.84527-3.91506,3.7206-6.45667.87578-2.54071,1.31344-5.41666,1.31344-8.62694Z"/><path class="cls-4" d="m297.69051,282.52202c1.55574-1.92076,3.35603-3.46567,5.39861-4.63292s4.37754-1.75066,7.00353-1.75066c2.14004,0,4.07298.40743,5.80018,1.22185,1.72629.81532,3.19765,2.01867,4.41364,3.6114,1.21598,1.59319,2.15222,3.56899,2.80872,5.92741.65695,2.35932.98497,5.07059.98497,8.13468,0,2.72389-.36457,5.25919-1.09416,7.60543-.72959,2.34714-1.78179,4.37754-3.15524,6.0921-1.37436,1.71411-3.05237,3.0641-5.03404,4.04907-1.98212.98452-4.21331,1.47723-6.69355,1.47723-2.26187,0-4.20112-.38307-5.81822-1.14921-1.61755-.76614-3.04605-1.82962-4.2864-3.19179v16.34201h-6.52932v-49.4637h3.90333c.92361,0,1.49528.4503,1.71411,1.34954l.58385,4.37754Zm.32802,22.32447c1.19162,1.60492,2.49288,2.73563,3.90333,3.39212,1.41.6565,2.991.98497,4.74211.98497,3.45303,0,6.10383-1.22772,7.95195-3.68405s2.77262-5.9581,2.77262-10.50574c0-2.4076-.21342-4.4741-.63845-6.20129-.42593-1.72629-1.03956-3.14261-1.84225-4.2494-.80223-1.10634-1.7872-1.91534-2.95446-2.4261-1.16725-.51031-2.49333-.76569-3.97643-.76569-2.11568,0-3.97011.48639-5.56284,1.45873-1.59274.97324-3.05823,2.34714-4.39559,4.12216v17.87429Z"/><path class="cls-4" d="m350.27562,282.88659c-.29193.53512-.74222.80268-1.34954.80268-.36502,0-.77877-.13356-1.24035-.40112-.46203-.26756-1.02738-.5658-1.69606-.89383-.66913-.32847-1.4655-.63213-2.38956-.91188-.92451-.27929-2.01867-.41962-3.28293-.41962-1.09416,0-2.07913.14032-2.95446.41962-.87578.27974-1.62342.66281-2.24337,1.14876-.6204.48684-1.09461,1.0522-1.42263,1.69651-.32847.64431-.49271,1.34367-.49271,2.09718,0,.94842.27388,1.73892.82073,2.37106.54731.63303,1.27058,1.17989,2.17072,1.64147.89924.46248,1.92076.86991,3.0641,1.2223,1.14244.35284,2.31601.72959,3.51981,1.13071s2.37692.8451,3.52026,1.33149c1.14289.48684,2.16396,1.09416,3.0641,1.82375.89924.72959,1.62342,1.62342,2.17027,2.68103.54731,1.05806.82073,2.32909.82073,3.81219,0,1.70238-.30411,3.27707-.91188,4.72361-.60822,1.44745-1.50791,2.69953-2.69908,3.75714-1.19207,1.05806-2.65125,1.89143-4.37754,2.49875-1.72674.60777-3.7206.91233-5.98246.91233-2.57771,0-4.91221-.41962-7.00353-1.25885-2.09176-.83878-3.86678-1.91489-5.32596-3.22834l1.53228-2.48025c.19447-.31584.42503-.55904.69304-.72959.26711-.16965.60777-.25538,1.02152-.25538.43766,0,.89924.17055,1.38609.51076.48594.34066,1.07611.71741,1.76916,1.13071.69304.41375,1.53769.7905,2.53529,1.13071.9967.34111,2.23705.51076,3.7206.51076,1.26426,0,2.37106-.16424,3.31948-.49226.94842-.32847,1.73847-.772,2.37106-1.33149.63213-.55904,1.10003-1.2038,1.40459-1.93339.30366-.72959.45571-1.50746.45571-2.33451,0-1.02152-.27343-1.86616-.82073-2.53529-.54731-.66868-1.27103-1.24035-2.17027-1.71456-.90014-.47421-1.92753-.88706-3.0826-1.2399-1.15507-.35239-2.33451-.72327-3.53831-1.11266-1.2038-.38893-2.38369-.83292-3.53831-1.33149-1.15507-.49812-2.18291-1.12439-3.08215-1.8788-.90014-.7535-1.62342-1.68343-2.17072-2.79022-.54685-1.10634-.82073-2.45002-.82073-4.03102,0-1.41.29193-2.76586.87578-4.06712.5834-1.30081,1.43436-2.44415,2.55334-3.42912,1.11807-.98452,2.49243-1.76916,4.12171-2.35256,1.62928-.58385,3.48958-.87533,5.58134-.87533,2.43152,0,4.61442.38262,6.54781,1.14876,1.93339.76614,3.60509,1.81834,5.01554,3.15524l-1.45918,2.37106Z"/><path class="cls-7" d="m113.40712,379.32879l-3.00567-7.26883h-13.82702l-3.00589,7.26883h-9.45467l18.85497-40.38736h1.25682l18.85497,40.38736h-9.6735Zm-9.89188-23.99211l-3.98951,9.61868h7.92443l-3.93492-9.61868Z"/><path class="cls-7" d="m155.67982,367.52404c0,1.60356-.29193,3.15163-.87443,4.64556-.5834,1.49437-1.4673,2.82361-2.6508,3.98951-1.1844,1.16635-2.6693,2.09537-4.4538,2.78706-1.78585.69169-3.88032,1.03866-6.28522,1.03866-1.12958,0-2.30473-.10964-3.52477-.32802-1.2214-.21883-2.42362-.50986-3.60712-.87443-1.1844-.36367-2.32255-.79276-3.41581-1.28457-1.09281-.49181-2.07665-1.02874-2.95107-1.61214l2.56846-8.41623c1.63966,1.16635,3.44311,2.10395,5.41079,2.81459,1.96723.71019,3.89792,1.06573,5.79296,1.06573,1.63966,0,2.80511-.3366,3.4977-1.01114.69169-.67364,1.03821-1.50295,1.03821-2.48656,0-.50986-.08167-.99219-.2459-1.44835-.16379-.45526-.51076-.91955-1.03821-1.39376-.52881-.47286-1.25704-.95609-2.18606-1.44835-.92902-.49181-2.15877-1.04678-3.68901-1.66673-1.74885-.72824-3.23375-1.521-4.45425-2.37737-1.22095-.85548-2.20479-1.77592-2.95107-2.75999-.74719-.98362-1.28434-2.0304-1.61236-3.14216-.3278-1.11131-.49181-2.26818-.49181-3.47063,0-1.45692.3005-2.87775.90195-4.26294.601-1.38383,1.484-2.6138,2.65035-3.68856,1.1659-1.07431,2.63185-1.94016,4.39965-2.5962,1.76667-.65559,3.81625-.98362,6.14805-.98362,1.09326,0,2.17704.09114,3.2518.27298,1.07431.18274,2.1044.41962,3.08801.71064.98362.29193,1.89414.61995,2.73247.98362.83788.36457,1.54807.74719,2.13147,1.14785l-2.34985,8.30704c-.5834-.40067-1.239-.79231-1.96768-1.17492-.72914-.38262-1.4849-.72869-2.26818-1.03866-.78373-.30907-1.56657-.56445-2.34985-.76478-.78373-.19988-1.53949-.30095-2.26818-.30095-1.71276,0-2.93303.32802-3.66149.98407-.72914.65559-1.09303,1.40278-1.09303,2.24066,0,.65559.12724,1.22095.38262,1.69426.25425.47376.67387.91097,1.25682,1.31164.5825.40112,1.32021.80178,2.21359,1.202.89247.40157,1.95821.87443,3.1972,1.42128,1.85804.80178,3.41558,1.63109,4.67263,2.48656,1.25704.85638,2.25871,1.7678,3.00589,2.73247.74628.96602,1.27464,2.00423,1.58461,3.11508.30907,1.11176.46474,2.30473.46474,3.57982Z"/><path class="cls-7" d="m189.82574,367.52404c0,1.60356-.29193,3.15163-.87443,4.64556-.5834,1.49437-1.4673,2.82361-2.6508,3.98951-1.1844,1.16635-2.6693,2.09537-4.4538,2.78706-1.78585.69169-3.88032,1.03866-6.28522,1.03866-1.1298,0-2.30473-.10964-3.52477-.32802-1.2214-.21883-2.4234-.50986-3.60734-.87443-1.1844-.36367-2.32233-.79276-3.41558-1.28457-1.09281-.49181-2.07687-1.02874-2.9513-1.61214l2.56868-8.41623c1.63966,1.16635,3.44311,2.10395,5.41079,2.81459,1.96723.71019,3.89792,1.06573,5.79296,1.06573,1.63966,0,2.80511-.3366,3.4977-1.01114.69169-.67364,1.03821-1.50295,1.03821-2.48656,0-.50986-.08167-.99219-.2459-1.44835-.16379-.45526-.51076-.91955-1.03821-1.39376-.52881-.47286-1.25704-.95609-2.18606-1.44835-.92902-.49181-2.15899-1.04678-3.68901-1.66673-1.74885-.72824-3.23375-1.521-4.45425-2.37737-1.22095-.85548-2.20456-1.77592-2.9513-2.75999-.74719-.98362-1.28412-2.0304-1.61214-3.14216-.32757-1.11131-.49181-2.26818-.49181-3.47063,0-1.45692.3005-2.87775.90195-4.26294.601-1.38383,1.484-2.6138,2.65035-3.68856,1.1659-1.07431,2.63185-1.94016,4.39965-2.5962,1.7669-.65559,3.81625-.98362,6.14805-.98362,1.09326,0,2.17704.09114,3.2518.27298,1.07431.18274,2.1044.41962,3.08801.71064.98362.29193,1.89414.61995,2.73247.98362.83788.36457,1.54807.74719,2.13147,1.14785l-2.34985,8.30704c-.5834-.40067-1.239-.79231-1.96768-1.17492-.72914-.38262-1.4849-.72869-2.26818-1.03866-.78373-.30907-1.56657-.56445-2.34985-.76478-.78373-.19988-1.53949-.30095-2.26818-.30095-1.71276,0-2.93325.32802-3.66149.98407-.72914.65559-1.09281,1.40278-1.09281,2.24066,0,.65559.12724,1.22095.38217,1.69426.25448.47376.67409.91097,1.25704,1.31164.5825.40112,1.32021.80178,2.21359,1.202.89247.40157,1.95821.87443,3.1972,1.42128,1.85804.80178,3.41558,1.63109,4.67263,2.48656,1.25704.85638,2.25871,1.7678,3.00589,2.73247.74628.96602,1.27464,2.00423,1.58461,3.11508.30907,1.11176.46474,2.30473.46474,3.57982Z"/><path class="cls-7" d="m238.01164,359.32619c0,2.9513-.50128,5.68377-1.50295,8.19785-1.00257,2.51409-2.41437,4.69158-4.23587,6.53067-1.82195,1.84044-3.99899,3.2888-6.53067,4.34506-2.53259,1.05626-5.34717,1.58507-8.44376,1.58507-3.09704,0-5.90215-.52881-8.41623-1.58507s-4.65503-2.50461-6.42148-4.34506c-1.7678-1.83909-3.12456-4.01658-4.07163-6.53067-.94797-2.51409-1.42083-5.24655-1.42083-8.19785s.50038-5.69234,1.50295-8.22492c1.00166-2.53213,2.40444-4.7182,4.20789-6.55819,1.80345-1.83954,3.98049-3.28789,6.53112-4.34506,2.54973-1.05626,5.37379-1.58461,8.47083-1.58461,3.09659,0,5.89312.52836,8.38916,1.58461,2.49514,1.05716,4.6266,2.50551,6.39396,4.34506,1.7669,1.83999,3.13313,4.02606,4.09915,6.55819.96467,2.53259,1.44835,5.27363,1.44835,8.22492Zm-9.9467,0c0-1.82149-.25538-3.48823-.76524-5.00065-.51076-1.51152-1.22952-2.81459-2.15854-3.90739-.92947-1.09326-2.04123-1.94873-3.33392-2.56868-1.29359-.61905-2.74194-.92902-4.3446-.92902-1.56702,0-3.00589.30997-4.31753.92902-1.31164.61995-2.43197,1.47542-3.36144,2.56868-.92902,1.09281-1.64868,2.39587-2.15854,3.90739-.51076,1.51242-.76524,3.17916-.76524,5.00065,0,1.78585.25448,3.43453.76524,4.94605.50986,1.51242,1.22952,2.82406,2.15854,3.93492.92947,1.11176,2.0498,1.97671,3.36144,2.59575,1.31164.6204,2.75052.92947,4.31753.92947,1.60266,0,3.05101-.30907,4.3446-.92947,1.29269-.61905,2.40444-1.484,3.33392-2.59575.92902-1.11085,1.64778-2.42249,2.15854-3.93492.50986-1.51152.76524-3.1602.76524-4.94605Z"/><path class="cls-7" d="m280.6884,376.2683c-1.74885,1.16635-3.76211,2.07687-6.03886,2.73247-2.27766.65604-4.56344.98407-6.85869.98407-3.27932,0-6.25769-.51933-8.93556-1.55799-2.67787-1.03821-4.9826-2.47709-6.91329-4.31708-1.93204-1.83954-3.42551-4.02561-4.48177-6.55819-1.05716-2.53213-1.58461-5.27408-1.58461-8.22538,0-2.98694.52745-5.74693,1.58461-8.27952,1.05626-2.53213,2.54973-4.7182,4.48177-6.55819,1.93068-1.83954,4.23541-3.27932,6.91329-4.31753,2.67787-1.03821,5.65624-1.55754,8.93556-1.55754,2.33135,0,4.54449.31945,6.63986.95654,2.09492.63755,4.05313,1.4849,5.87508,2.54116l-2.84166,7.86983c-1.49437-.83788-3.05192-1.49347-4.67263-1.96768-1.62161-.47286-3.2518-.71019-4.89146-.71019-1.85804,0-3.54372.27298-5.05524.81983-1.51242.5464-2.78706,1.33871-3.82572,2.37737-1.03821,1.03821-1.83999,2.30473-2.40444,3.7982-.56535,1.49437-.84735,3.16968-.84735,5.02772s.282,3.52523.84735,5.00065c.56445,1.47588,1.36623,2.73247,2.40444,3.77113,1.03866,1.03821,2.3133,1.83999,3.82572,2.40444,1.51152.56535,3.1972.84735,5.05524.84735,1.63966,0,3.33392-.25448,5.08277-.76524,1.74885-.50986,3.38806-1.23809,4.91853-2.18606l2.78706,7.86983Z"/><path class="cls-7" d="m289.31805,379.32879v-40.05979h9.29066v40.05979h-9.29066Z"/><path class="cls-7" d="m334.90278,379.32879l-3.00589-7.26883h-13.82657l-3.00589,7.26883h-9.4549l18.85475-40.38736h1.25704l18.85475,40.38736h-9.67328Zm-9.89211-23.99211l-3.98951,9.61868h7.92443l-3.93492-9.61868Z"/><path class="cls-7" d="m364.77493,347.79487v31.53392h-9.29066v-31.53392h-12.02358v-8.52588h33.33782v8.52588h-12.02358Z"/><path class="cls-7" d="m384.53614,379.32879v-40.05979h25.35834v8.52588h-16.06723v7.15919h14.6464v8.08866h-14.6464v7.81524h16.06723v8.47083h-25.35834Z"/></g></g></svg>