<?xml version="1.0" encoding="utf-8"?>
<!-- Generator: Adobe Illustrator 21.1.0, SVG Export Plug-In . SVG Version: 6.00 Build 0)  -->
<svg version="1.1" id="Layer_1" xmlns="http://www.w3.org/2000/svg" xmlns:xlink="http://www.w3.org/1999/xlink" x="0px" y="0px"
	 viewBox="0 0 432 165.667" enable-background="new 0 0 432 165.667" xml:space="preserve">
<g id="Page-1">
	<g id="primary">
		<g id="Logo-Symbol-72px">
			<g id="reverse-2" transform="translate(0.000000, 12.500000)">
				<polygon id="Fill-1" fill="#40A0B4" points="164.934,85.272 177.087,92.288 177.087,26.389 164.934,19.37 				"/>
				<polygon id="Fill-2" fill="#40A0B4" points="2.087,26.389 2.087,92.293 14.24,85.273 14.24,19.372 				"/>
				<polygon id="Fill-3" fill="#40A0B4" points="55.567,144.269 67.72,151.285 96.656,134.578 84.503,127.562 				"/>
				<polygon id="shadow" fill="#338090" points="72.579,134.447 84.732,141.464 96.656,134.579 84.503,127.563 				"/>
			</g>
			<g id="reverse-1" transform="translate(24.500000, 37.500000)">
				<polygon id="Fill-5" fill="#45C1A8" points="93.037,98.918 93.037,84.885 40.71,54.673 37.137,56.735 37.143,56.739 
					37.143,66.647 				"/>
				<polygon id="Fill-6" fill="#45C1A8" points="37.143,97.521 86.964,126.286 99.119,119.27 37.143,83.486 				"/>
			</g>
			<g id="top-2">
				<polygon id="Fill-7" fill="#7CE1C0" points="135.193,49.044 147.345,56.06 177.087,38.889 164.932,31.874 				"/>
				<polygon id="Fill-8" fill="#7CE1C0" points="95.734,85.859 83.581,78.843 55.561,95.021 67.714,102.037 				"/>
				<polygon id="Fill-9" fill="#7CE1C0" points="150.356,23.455 138.201,16.439 108.462,33.61 120.615,40.628 				"/>
				<polygon id="Fill-10" fill="#7CE1C0" points="69.004,70.426 56.851,63.41 28.831,79.588 40.984,86.604 				"/>
				<polygon id="Fill-11" fill="#7CE1C0" points="81.732,18.178 93.885,25.194 123.626,8.023 111.47,1.007 				"/>
				<polygon id="Fill-12" fill="#7CE1C0" points="2.1,64.154 14.253,71.17 42.273,54.993 30.12,47.976 				"/>
			</g>
			<g id="gradient" transform="translate(0.000000, 26.000000)">
				
					<linearGradient id="Fill-13_1_" gradientUnits="userSpaceOnUse" x1="-405.9977" y1="278.8221" x2="-405.9977" y2="276.3915" gradientTransform="matrix(5 0 0 -28.291 2200.9988 7926.3062)">
					<stop  offset="0" style="stop-color:#4AD8AC"/>
					<stop  offset="1" style="stop-color:#4076C4"/>
				</linearGradient>
				<polygon id="Fill-13" fill="url(#Fill-13_1_)" points="164.934,45.165 164.934,106.913 177.087,99.896 177.087,38.149 				"/>
				
					<linearGradient id="Fill-14_1_" gradientUnits="userSpaceOnUse" x1="-409.145" y1="278.501" x2="-409.145" y2="276.0704" gradientTransform="matrix(5 0 0 -28.291 2189.9985 7932.6567)">
					<stop  offset="0" style="stop-color:#4AD8AC"/>
					<stop  offset="1" style="stop-color:#4076C4"/>
				</linearGradient>
				<polygon id="Fill-14" fill="url(#Fill-14_1_)" points="150.35,115.333 150.35,53.586 138.197,60.602 138.197,122.35 				"/>
				
					<linearGradient id="Fill-15_1_" gradientUnits="userSpaceOnUse" x1="-412.3044" y1="278.1799" x2="-412.3044" y2="275.7493" gradientTransform="matrix(5.0005 0 0 -28.2915 2179.2649 7939.1475)">
					<stop  offset="0" style="stop-color:#4AD8AC"/>
					<stop  offset="1" style="stop-color:#4076C4"/>
				</linearGradient>
				<polygon id="Fill-15" fill="url(#Fill-15_1_)" points="111.46,76.038 111.46,137.786 123.614,130.769 123.614,69.021 				"/>
				
					<linearGradient id="Fill-16_1_" gradientUnits="userSpaceOnUse" x1="-418.8719" y1="278.1798" x2="-418.8719" y2="275.7492" gradientTransform="matrix(5 0 0 -28.291 2156.0027 7939.0068)">
					<stop  offset="0" style="stop-color:#4AD8AC"/>
					<stop  offset="1" style="stop-color:#4076C4"/>
				</linearGradient>
				<polygon id="Fill-16" fill="url(#Fill-16_1_)" points="55.567,130.769 67.72,137.785 67.72,76.039 55.567,69.021 				"/>
				
					<linearGradient id="Fill-17_1_" gradientUnits="userSpaceOnUse" x1="-422.0192" y1="278.501" x2="-422.0192" y2="276.0704" gradientTransform="matrix(5 0 0 -28.291 2145.0027 7932.6567)">
					<stop  offset="0" style="stop-color:#4AD8AC"/>
					<stop  offset="1" style="stop-color:#4076C4"/>
				</linearGradient>
				<polygon id="Fill-17" fill="url(#Fill-17_1_)" points="40.983,60.602 40.983,122.349 28.83,115.333 28.83,53.585 				"/>
				
					<linearGradient id="Fill-18_1_" gradientUnits="userSpaceOnUse" x1="-425.1665" y1="278.8221" x2="-425.1665" y2="276.3915" gradientTransform="matrix(5 0 0 -28.291 2134.0027 7926.3057)">
					<stop  offset="0" style="stop-color:#4AD8AC"/>
					<stop  offset="1" style="stop-color:#4076C4"/>
				</linearGradient>
				<polygon id="Fill-18" fill="url(#Fill-18_1_)" points="2.094,99.896 14.247,106.912 14.247,45.165 2.094,38.148 				"/>
			</g>
			<g id="shadow_1_" transform="translate(7.000000, 19.000000)">
				<polygon id="Fill-19" fill="#45C1A8" points="65.572,66.199 77.725,73.215 88.735,66.859 76.582,59.843 				"/>
				<polygon id="Fill-20" fill="#45C1A8" points="12.111,35.332 24.264,42.348 35.273,35.992 23.121,28.976 				"/>
				<polygon id="Fill-21" fill="#45C1A8" points="38.842,50.766 50.995,57.782 62.003,51.426 49.851,44.41 				"/>
			</g>
			<g id="top-1">
				<polygon id="Fill-22" fill="#A2EACF" points="67.714,1 55.56,8.016 164.932,71.164 177.086,64.148 				"/>
				<polygon id="Fill-23" fill="#A2EACF" points="40.977,16.437 28.824,23.453 138.195,86.601 150.35,79.585 				"/>
				<polygon id="Fill-24" fill="#A2EACF" points="2.087,38.889 111.458,102.037 123.613,95.022 14.24,31.873 				"/>
			</g>
		</g>
	</g>
</g>
<path id="d" fill="#9A9A9A" d="M429.104,113.982c0.438,0,0.729-0.292,0.729-0.729V65.127c0-0.438-0.292-0.729-0.729-0.729h-6.708
	c-0.438,0-0.729,0.292-0.729,0.729v17.063h-0.073c-1.677-2.406-4.594-4.156-9.333-4.156c-5.979,0-10.354,2.844-12.177,8.458
	c-0.875,2.698-1.24,5.177-1.24,9.917c0,4.74,0.365,7.219,1.24,9.917c1.823,5.615,6.198,8.458,12.177,8.458
	c4.74,0,7.656-1.75,9.333-4.156h0.073v2.625c0,0.438,0.292,0.729,0.729,0.729H429.104z M414.375,107.492
	c-3.281,0-5.542-1.604-6.49-4.521c-0.51-1.604-0.729-3.354-0.729-6.563s0.219-4.958,0.729-6.563c0.948-2.917,3.208-4.521,6.49-4.521
	c3.354,0,5.615,1.604,6.563,4.521c0.51,1.604,0.729,3.354,0.729,6.563s-0.219,4.958-0.729,6.563
	C419.989,105.888,417.729,107.492,414.375,107.492L414.375,107.492z"/>
<path id="linker" fill="#424242" d="M227.121,114.419c0.438,0,0.729-0.292,0.729-0.729v-5.833c0-0.438-0.292-0.729-0.729-0.729
	h-1.604c-2.115,0-3.063-0.802-3.063-3.208V65.127c0-0.438-0.292-0.729-0.729-0.729h-6.708c-0.438,0-0.729,0.292-0.729,0.729v39.23
	c0,6.781,2.771,10.063,9.625,10.063H227.121z M243.09,72.2c0.438,0,0.729-0.292,0.729-0.729v-6.344c0-0.438-0.292-0.729-0.729-0.729
	h-6.708c-0.438,0-0.729,0.292-0.729,0.729v6.344c0,0.438,0.292,0.729,0.729,0.729H243.09z M243.09,113.982
	c0.438,0,0.729-0.292,0.729-0.729V79.564c0-0.437-0.292-0.729-0.729-0.729h-6.708c-0.438,0-0.729,0.292-0.729,0.729v33.688
	c0,0.438,0.292,0.729,0.729,0.729H243.09z M283.414,113.982c0.438,0,0.729-0.292,0.729-0.729V91.085
	c0-7.511-4.667-13.052-12.177-13.052c-4.667,0-7.729,1.896-9.261,4.083h-0.073v-2.552c0-0.437-0.292-0.729-0.729-0.729h-6.708
	c-0.438,0-0.729,0.292-0.729,0.729v33.688c0,0.438,0.292,0.729,0.729,0.729h6.708c0.438,0,0.729-0.292,0.729-0.729V92.981
	c0-4.521,2.479-7.656,6.708-7.656c4.375,0,6.636,3.135,6.636,7.656v20.271c0,0.438,0.292,0.729,0.729,0.729H283.414z
	 M325.05,113.982c0.438,0,0.583-0.438,0.365-0.729l-12.834-20.855l11.156-12.834c0.292-0.292,0.146-0.729-0.292-0.729h-7.438
	c-0.583,0-0.948,0.219-1.385,0.729L302.591,93.71V65.127c0-0.438-0.292-0.729-0.729-0.729h-6.708c-0.438,0-0.729,0.292-0.729,0.729
	v48.126c0,0.438,0.292,0.729,0.729,0.729h6.708c0.438,0,0.729-0.292,0.729-0.729v-9.261l4.74-5.469l8.896,14.729
	c0.292,0.51,0.656,0.729,1.167,0.729H325.05z M345.394,114.784c6.49,0,11.448-2.479,14.438-5.979
	c0.292-0.365,0.292-0.729-0.073-1.021l-4.302-3.792c-0.365-0.292-0.729-0.219-1.094,0.146c-1.75,1.896-4.302,3.354-8.24,3.354
	c-3.938,0-6.708-1.896-7.875-5.323c-0.292-0.802-0.51-1.677-0.51-2.698c0-0.292,0.146-0.438,0.438-0.438h21.657
	c0.51,0,0.802-0.292,0.802-0.729c0-5.688-0.365-8.094-1.167-10.573c-1.969-5.979-7.219-9.698-14.438-9.698
	c-7,0-12.396,3.573-14.365,9.698c-0.729,2.26-1.167,5.031-1.167,8.677s0.51,6.344,1.24,8.604
	C332.707,111.138,337.957,114.784,345.394,114.784L345.394,114.784z M352.394,92.471c0,0.292-0.146,0.438-0.438,0.438h-13.782
	c-0.292,0-0.438-0.146-0.438-0.438c0-1.24,0.146-2.115,0.438-2.99c0.948-2.844,3.573-4.521,6.927-4.521
	c3.281,0,5.906,1.677,6.854,4.521C352.249,90.356,352.394,91.231,352.394,92.471L352.394,92.471z M376.822,113.982
	c0.438,0,0.729-0.292,0.729-0.729V94.221c0-5.615,2.042-8.896,6.636-8.896c1.896,0,3.573,0.656,5.177,1.677
	c0.365,0.292,0.729,0.219,1.021-0.146l3.865-4.885c0.292-0.365,0.219-0.656-0.146-1.021c-1.823-1.823-4.594-2.917-7.365-2.917
	c-4.448,0-7.438,1.823-9.115,4.521h-0.073v-2.99c0-0.437-0.292-0.729-0.729-0.729h-6.708c-0.438,0-0.729,0.292-0.729,0.729v33.688
	c0,0.438,0.292,0.729,0.729,0.729H376.822z"/>
</svg>
