<svg id="Layer_1" data-name="Layer 1" xmlns="http://www.w3.org/2000/svg" xmlns:xlink="http://www.w3.org/1999/xlink" viewBox="0 0 600 170"><defs><style>.cls-1{fill:#fff;}.cls-2{isolation:isolate;}.cls-3{clip-path:url(#clip-path);}.cls-4{clip-path:url(#clip-path-2);}.cls-5{clip-path:url(#clip-path-3);}</style><clipPath id="clip-path"><path class="cls-1" d="M149.47362,113.19964v39.09677a6.15007,6.15007,0,0,0,9.22691,5.32508L192.526,138.07716a6.15009,6.15009,0,0,0,3.07324-5.32509V93.65756a6.15008,6.15008,0,0,0-9.22665-5.32524L152.54713,107.8744A6.15008,6.15008,0,0,0,149.47362,113.19964Z"/></clipPath><clipPath id="clip-path-2"><path class="cls-1" d="M137.17166,8.38206,103.34623,27.9264a6.15008,6.15008,0,0,0-3.07324,5.32509V72.346a6.15007,6.15007,0,0,0,9.22665,5.32524l33.82543-19.54208a6.15008,6.15008,0,0,0,3.07351-5.32524V13.70715a6.15008,6.15008,0,0,0-9.22691-5.32509Z"/></clipPath><clipPath id="clip-path-3"><path class="cls-1" d="M51.07235,113.19964v39.09677a6.15007,6.15007,0,0,0,9.22691,5.32508L94.1247,138.07716a6.15009,6.15009,0,0,0,3.07324-5.32509V93.65756a6.15008,6.15008,0,0,0-9.22665-5.32524L54.14586,107.8744A6.15008,6.15008,0,0,0,51.07235,113.19964Z"/></clipPath></defs><title>buildpacks-horizontal-white</title><g class="cls-2"><g class="cls-2"><path class="cls-1" d="M243.75406,65.84282h12.85421a29.50493,29.50493,0,0,1,5.74993.52252,14.60559,14.60559,0,0,1,4.551,1.66064,8.11641,8.11641,0,0,1,3.01348,3.045,9.385,9.385,0,0,1,1.07656,4.67412,9.24748,9.24748,0,0,1-1.69142,5.34979,8.69907,8.69907,0,0,1-5.19664,3.38284V84.724a11.76579,11.76579,0,0,1,6.6726,3.10582,8.81772,8.81772,0,0,1,2.30628,6.42635,11.063,11.063,0,0,1-1.16815,5.22817A10.56437,10.56437,0,0,1,268.693,103.175a14.27049,14.27049,0,0,1-4.88958,2.18316,25.32265,25.32265,0,0,1-6.15008.7057H243.75406Zm12.2386,16.66647q4.24432,0,6.1193-1.53752a5.32378,5.32378,0,0,0,1.8761-4.36632,4.35377,4.35377,0,0,0-1.96769-3.997,11.32383,11.32383,0,0,0-5.90459-1.22972h-5.22742v11.1305Zm.92266,18.02006a11.90146,11.90146,0,0,0,6.8265-1.66064,5.78314,5.78314,0,0,0,2.39862-5.105,5.139,5.139,0,0,0-2.33706-4.64259q-2.33781-1.50449-6.88806-1.50749h-6.027v12.91577Z"/><path class="cls-1" d="M279.54719,75.86823h7.072V93.88679q0,3.75221,1.10734,5.28823a4.08835,4.08835,0,0,0,3.56678,1.53752,6.22486,6.22486,0,0,0,3.47519-.982,14.24036,14.24036,0,0,0,3.22894-3.19816V75.86823h7.072v30.1956H299.2887l-.5533-4.42638h-.18468a17.74747,17.74747,0,0,1-4.27473,3.75071,10.203,10.203,0,0,1-5.44288,1.4144q-4.85805,0-7.072-3.10507-2.21394-3.10807-2.21394-8.88879Z"/><path class="cls-1" d="M317.61581,70.5785a4.51018,4.51018,0,0,1-3.1366-1.10659,3.70155,3.70155,0,0,1-1.22972-2.89036,3.79913,3.79913,0,0,1,1.22972-2.92189,4.88913,4.88913,0,0,1,6.2717,0,3.80552,3.80552,0,0,1,1.23122,2.92189,3.7077,3.7077,0,0,1-1.23122,2.89036A4.51151,4.51151,0,0,1,317.61581,70.5785Zm-3.56753,5.28973h7.072v30.1956h-7.072Z"/><path class="cls-1" d="M330.16222,62.64466h7.072V98.68553a2.63049,2.63049,0,0,0,.49249,1.81379,1.43206,1.43206,0,0,0,1.045.52252h.461a2.67985,2.67985,0,0,0,.64714-.12312l.92191,5.28823a9.52969,9.52969,0,0,1-3.75221.61561q-3.813,0-5.34979-2.27625a10.9397,10.9397,0,0,1-1.53752-6.21014Z"/><path class="cls-1" d="M344.98336,90.99793a19.28382,19.28382,0,0,1,1.07656-6.64332,15.45775,15.45775,0,0,1,2.85883-4.98192,12.7923,12.7923,0,0,1,4.09-3.1366,10.90239,10.90239,0,0,1,4.76571-1.10659,9.70678,9.70678,0,0,1,4.36632.89188,17.53106,17.53106,0,0,1,3.56753,2.4294l-.24624-4.8588V62.64466h7.07349v43.41917h-5.84227l-.49249-3.25822h-.24624a16.02155,16.02155,0,0,1-3.87383,2.8288,9.90073,9.90073,0,0,1-4.67562,1.16815,11.04761,11.04761,0,0,1-9.07047-4.1501Q344.98111,98.49935,344.98336,90.99793Zm7.31823-.06306q0,4.92337,1.75223,7.47138a5.77288,5.77288,0,0,0,5.075,2.55252q3.38059,0,6.33326-3.38134V83.49427a10.01153,10.01153,0,0,0-3.10507-1.96845,8.77681,8.77681,0,0,0-3.045-.554,6.13162,6.13162,0,0,0-4.98192,2.58405Q352.3031,86.138,352.3016,90.93487Z"/><path class="cls-1" d="M388.588,108.52326v9.47136h-7.07349V75.86823h5.84227l.49249,3.19816h.24624a21.58635,21.58635,0,0,1,4.24319-2.76874,10.75033,10.75033,0,0,1,4.8588-1.16815,11.19341,11.19341,0,0,1,5.012,1.07656,10.39182,10.39182,0,0,1,3.72068,3.10507,14.49231,14.49231,0,0,1,2.33631,4.8588,23.30063,23.30063,0,0,1,.80029,6.33551,20.68465,20.68465,0,0,1-1.07656,6.91884,15.7139,15.7139,0,0,1-2.85883,5.105,12.47754,12.47754,0,0,1-4.12007,3.16513,11.21794,11.21794,0,0,1-4.8588,1.1081,9.76279,9.76279,0,0,1-3.93689-.86185,15.06351,15.06351,0,0,1-3.81377-2.45943Zm0-10.084a10.54317,10.54317,0,0,0,3.19816,1.96694,8.53368,8.53368,0,0,0,2.88886.55255,6.1605,6.1605,0,0,0,5.04349-2.61258q2.02926-2.61258,2.03-7.78069a13.6238,13.6238,0,0,0-1.53752-7.07124,5.38948,5.38948,0,0,0-4.98192-2.52249q-3.19816,0-6.64106,3.38284Z"/><path class="cls-1" d="M414.17175,97.9468a8.36774,8.36774,0,0,1,4.24319-7.50442q4.24545-2.64411,13.52987-3.68764a8.15392,8.15392,0,0,0-.3063-2.24547,5.55627,5.55627,0,0,0-.95494-1.90688,4.302,4.302,0,0,0-1.65914-1.29128,6.17751,6.17751,0,0,0-2.55252-.46246,11.59654,11.59654,0,0,0-4.39785.86185,26.78179,26.78179,0,0,0-4.09,2.09007l-2.58255-4.73418a30.62242,30.62242,0,0,1,5.62756-2.76874,18.99345,18.99345,0,0,1,6.73416-1.16815q5.7184,0,8.48789,3.35131,2.76573,3.35356,2.76724,9.68833v17.89469H433.2361l-.55255-3.32128h-.18468a22.031,22.031,0,0,1-4.33478,2.89186,10.95306,10.95306,0,0,1-5.01346,1.16815,8.88926,8.88926,0,0,1-6.48791-2.4294A8.565,8.565,0,0,1,414.17175,97.9468Zm6.88731-.55255a3.49043,3.49043,0,0,0,1.19969,2.95192,4.96817,4.96817,0,0,0,3.10657.92191,6.8037,6.8037,0,0,0,3.38134-.86185,15.94588,15.94588,0,0,0,3.19816-2.45943V91.18111a32.09431,32.09431,0,0,0-5.16511.985,14.09513,14.09513,0,0,0-3.35131,1.38437,4.97533,4.97533,0,0,0-1.81529,1.75073A4.22238,4.22238,0,0,0,421.05906,97.39426Z"/><path class="cls-1" d="M445.65938,90.99793a17.27756,17.27756,0,0,1,1.22972-6.70488,14.73415,14.73415,0,0,1,3.32128-4.98192,14.45568,14.45568,0,0,1,4.82727-3.10507,15.56839,15.56839,0,0,1,5.75068-1.07656,12.07551,12.07551,0,0,1,5.13508,1.015,13.56657,13.56657,0,0,1,3.72068,2.491l-3.38134,4.48944a11.44077,11.44077,0,0,0-2.46093-1.63061,6.09622,6.09622,0,0,0-2.64411-.58408,7.38686,7.38686,0,0,0-5.9669,2.73721,11.14083,11.14083,0,0,0-2.27475,7.35052,11.1389,11.1389,0,0,0,2.24472,7.2882,7.17171,7.17171,0,0,0,5.81225,2.7357,7.63329,7.63329,0,0,0,3.41287-.76876,13.46972,13.46972,0,0,0,2.79877-1.81379l2.95192,4.48944a15.32355,15.32355,0,0,1-4.73568,2.88886,14.38917,14.38917,0,0,1-5.16511.985,15.66287,15.66287,0,0,1-5.75068-1.045,12.96608,12.96608,0,0,1-4.64409-3.075,14.22681,14.22681,0,0,1-3.075-4.98192A19.003,19.003,0,0,1,445.65938,90.99793Z"/><path class="cls-1" d="M476.04041,62.64466h6.94887V89.76672h.18618l11.19206-13.89849h7.74916L491.785,88.16914l11.37825,17.89469h-7.6876L487.725,92.96488l-4.73568,5.41135v7.6876h-6.94887Z"/><path class="cls-1" d="M508.45144,98.06992a18.99855,18.99855,0,0,0,4.027,2.48946,10.52132,10.52132,0,0,0,4.33629.89188,5.42256,5.42256,0,0,0,3.62759-1.015,3.29958,3.29958,0,0,0,1.16966-2.61258,2.57,2.57,0,0,0-.554-1.63061,5.34306,5.34306,0,0,0-1.476-1.26125,14.284,14.284,0,0,0-2.09157-1.015c-.77777-.3063-1.55854-.62462-2.33631-.95194q-1.47746-.554-3.01348-1.29128a12.118,12.118,0,0,1-2.73721-1.78376,8.97276,8.97276,0,0,1-1.96694-2.4294,6.65745,6.65745,0,0,1-.76876-3.2905,8.178,8.178,0,0,1,2.95192-6.51944q2.95042-2.52024,8.057-2.521a13.949,13.949,0,0,1,5.65759,1.10659,21.15329,21.15329,0,0,1,4.36632,2.52249l-3.25972,4.30475a16.96455,16.96455,0,0,0-3.22969-1.87535,8.48305,8.48305,0,0,0-3.41137-.7072,4.94791,4.94791,0,0,0-3.35281.95344,3.034,3.034,0,0,0-1.07656,2.36634,2.419,2.419,0,0,0,.52252,1.5698,4.88544,4.88544,0,0,0,1.38437,1.13812,14.29591,14.29591,0,0,0,1.99848.92191q1.13737.42792,2.36784.86185c1.024.36636,2.04953.78978,3.075,1.25824a12.67392,12.67392,0,0,1,2.79877,1.75373,8.03836,8.03836,0,0,1,2.03,2.55252,7.86084,7.86084,0,0,1,.76876,3.59756,8.77948,8.77948,0,0,1-.76876,3.66062,8.47181,8.47181,0,0,1-2.24622,2.95192,10.92408,10.92408,0,0,1-3.68915,1.997,15.90689,15.90689,0,0,1-5.04349.73873,16.75035,16.75035,0,0,1-6.18011-1.19818,19.94462,19.94462,0,0,1-5.2582-2.985Z"/></g><g class="cls-2"><path class="cls-1" d="M533.60731,102.00681a4.71863,4.71863,0,0,1,1.32281-3.4444,4.41758,4.41758,0,0,1,3.28975-1.35434,4.31889,4.31889,0,0,1,3.25972,1.35434,5.23551,5.23551,0,0,1,0,6.88581,4.30807,4.30807,0,0,1-3.25972,1.35434,4.40637,4.40637,0,0,1-3.28975-1.35434A4.71158,4.71158,0,0,1,533.60731,102.00681Z"/><path class="cls-1" d="M554.70316,70.5785a4.51018,4.51018,0,0,1-3.1366-1.10659,3.70274,3.70274,0,0,1-1.23122-2.89036,3.80035,3.80035,0,0,1,1.23122-2.92189,4.88913,4.88913,0,0,1,6.2717,0,3.80552,3.80552,0,0,1,1.23122,2.92189,3.7077,3.7077,0,0,1-1.23122,2.89036A4.51151,4.51151,0,0,1,554.70316,70.5785Zm-3.56753,5.28973h7.072v30.1956h-7.072Z"/><path class="cls-1" d="M565.27961,90.99793a18.10137,18.10137,0,0,1,1.16815-6.70488,14.71539,14.71539,0,0,1,3.16813-4.98192,13.93122,13.93122,0,0,1,9.99388-4.18163,14.16578,14.16578,0,0,1,5.44288,1.07656,13.4598,13.4598,0,0,1,4.581,3.10507,15.3847,15.3847,0,0,1,3.16813,4.98192,19.35258,19.35258,0,0,1,0,13.4075,15.40084,15.40084,0,0,1-3.16813,4.98192,13.1082,13.1082,0,0,1-4.581,3.075,14.53809,14.53809,0,0,1-5.44288,1.045,14.295,14.295,0,0,1-5.41285-1.045,13.47426,13.47426,0,0,1-4.581-3.075,14.73011,14.73011,0,0,1-3.16813-4.98192A18.08084,18.08084,0,0,1,565.27961,90.99793Zm7.25667,0a12.66961,12.66961,0,0,0,1.87686,7.2882,5.96024,5.96024,0,0,0,5.19664,2.7357,6.03753,6.03753,0,0,0,5.22667-2.7357,12.533,12.533,0,0,0,1.90688-7.2882,12.65145,12.65145,0,0,0-1.90688-7.35052,6.03545,6.03545,0,0,0-5.22667-2.73721,5.95823,5.95823,0,0,0-5.19664,2.73721A12.78992,12.78992,0,0,0,572.53628,90.99793Z"/></g></g><path class="cls-1" d="M146.39554,107.87259l-33.82079-19.54a6.15008,6.15008,0,0,0-9.22673,5.3252v39.09439a6.15008,6.15008,0,0,0,3.07317,5.325L146.39527,161.175a6.15008,6.15008,0,0,0,6.15367.00009l39.97695-23.09791a6.15008,6.15008,0,0,0,3.07332-5.32513V93.65738a6.15008,6.15008,0,0,0-9.22657-5.32529l-33.824,19.54058A6.15008,6.15008,0,0,1,146.39554,107.87259Z"/><path class="cls-1" d="M149.47362,113.19964v39.09677a6.15007,6.15007,0,0,0,9.22691,5.32508L192.526,138.07716a6.15009,6.15009,0,0,0,3.07324-5.32509V93.65756a6.15008,6.15008,0,0,0-9.22665-5.32524L152.54713,107.8744A6.15008,6.15008,0,0,0,149.47362,113.19964Z"/><g class="cls-3"><rect class="cls-1" x="149.47362" y="87.50748" width="46.12559" height="1.24454"/><rect class="cls-1" x="149.47362" y="88.75203" width="46.12559" height="1.24454"/><rect class="cls-1" x="149.47362" y="89.99657" width="46.12559" height="1.24454"/><rect class="cls-1" x="149.47362" y="91.24112" width="46.12559" height="1.24454"/><rect class="cls-1" x="149.47362" y="92.48566" width="46.12559" height="1.24454"/><rect class="cls-1" x="149.47362" y="93.7302" width="46.12559" height="1.24454"/><rect class="cls-1" x="149.47362" y="94.97475" width="46.12559" height="1.24454"/><rect class="cls-1" x="149.47362" y="96.21929" width="46.12559" height="1.24454"/><rect class="cls-1" x="149.47362" y="97.46384" width="46.12559" height="1.24454"/><rect class="cls-1" x="149.47362" y="98.70838" width="46.12559" height="1.24454"/><rect class="cls-1" x="149.47362" y="99.95292" width="46.12559" height="1.24454"/><rect class="cls-1" x="149.47362" y="101.19747" width="46.12559" height="1.24454"/><rect class="cls-1" x="149.47362" y="102.44201" width="46.12559" height="1.24454"/><rect class="cls-1" x="149.47362" y="103.68655" width="46.12559" height="1.24454"/><rect class="cls-1" x="149.47362" y="104.9311" width="46.12559" height="1.24454"/><rect class="cls-1" x="149.47362" y="106.17564" width="46.12559" height="1.24454"/><rect class="cls-1" x="149.47362" y="107.42019" width="46.12559" height="1.24454"/><rect class="cls-1" x="149.47362" y="108.66473" width="46.12559" height="1.24454"/><rect class="cls-1" x="149.47362" y="109.90927" width="46.12559" height="1.24454"/><rect class="cls-1" x="149.47362" y="111.15382" width="46.12559" height="1.24454"/><rect class="cls-1" x="149.47362" y="112.39836" width="46.12559" height="1.24454"/><rect class="cls-1" x="149.47362" y="113.64291" width="46.12559" height="1.24454"/><rect class="cls-1" x="149.47362" y="114.88745" width="46.12559" height="1.24454"/><rect class="cls-1" x="149.47362" y="116.13199" width="46.12559" height="1.24454"/><rect class="cls-1" x="149.47362" y="117.37654" width="46.12559" height="1.24454"/><rect class="cls-1" x="149.47362" y="118.62108" width="46.12559" height="1.24454"/><rect class="cls-1" x="149.47362" y="119.86563" width="46.12559" height="1.24454"/><rect class="cls-1" x="149.47362" y="121.11017" width="46.12559" height="1.24454"/><rect class="cls-1" x="149.47362" y="122.35471" width="46.12559" height="1.24454"/><rect class="cls-1" x="149.47362" y="123.59926" width="46.12559" height="1.24454"/><rect class="cls-1" x="149.47362" y="124.8438" width="46.12559" height="1.24454"/><rect class="cls-1" x="149.47362" y="126.08835" width="46.12559" height="1.24454"/><rect class="cls-1" x="149.47362" y="127.33289" width="46.12559" height="1.24454"/><rect class="cls-1" x="149.47362" y="128.57743" width="46.12559" height="1.24454"/><rect class="cls-1" x="149.47362" y="129.82198" width="46.12559" height="1.24454"/><rect class="cls-1" x="149.47362" y="131.06652" width="46.12559" height="1.24454"/><rect class="cls-1" x="149.47362" y="132.31107" width="46.12559" height="1.24454"/><rect class="cls-1" x="149.47362" y="133.55561" width="46.12559" height="1.24454"/><rect class="cls-1" x="149.47362" y="134.80015" width="46.12559" height="1.24454"/><rect class="cls-1" x="149.47362" y="136.0447" width="46.12559" height="1.24454"/><rect class="cls-1" x="149.47362" y="137.28924" width="46.12559" height="1.24454"/><rect class="cls-1" x="149.47362" y="138.53378" width="46.12559" height="1.24454"/><rect class="cls-1" x="149.47362" y="139.77833" width="46.12559" height="1.24454"/><rect class="cls-1" x="149.47362" y="141.02287" width="46.12559" height="1.24454"/><rect class="cls-1" x="149.47362" y="142.26742" width="46.12559" height="1.24454"/><rect class="cls-1" x="149.47362" y="143.51196" width="46.12559" height="1.24454"/><rect class="cls-1" x="149.47362" y="144.7565" width="46.12559" height="1.24454"/><rect class="cls-1" x="149.47362" y="146.00105" width="46.12559" height="1.24454"/><rect class="cls-1" x="149.47362" y="147.24559" width="46.12559" height="1.24454"/><rect class="cls-1" x="149.47362" y="148.49014" width="46.12559" height="1.24454"/><rect class="cls-1" x="149.47362" y="149.73468" width="46.12559" height="1.24454"/><rect class="cls-1" x="149.47362" y="150.97922" width="46.12559" height="1.24454"/><rect class="cls-1" x="149.47362" y="152.22377" width="46.12559" height="1.24454"/><rect class="cls-1" x="149.47362" y="153.46831" width="46.12559" height="1.24454"/><rect class="cls-1" x="149.47362" y="154.71286" width="46.12559" height="1.24454"/><rect class="cls-1" x="149.47362" y="155.9574" width="46.12559" height="1.24454"/><rect class="cls-1" x="149.47362" y="157.20194" width="46.12559" height="1.24454"/><rect class="cls-1" x="149.47362" y="158.44649" width="46.12559"/></g><path class="cls-1" d="M137.17151,8.38251,103.35285,27.92424a6.15008,6.15008,0,0,1-6.15367.00018L63.37415,8.38162a6.15008,6.15008,0,0,0-9.22676,5.32518v39.097a6.15008,6.15008,0,0,0,3.07366,5.32533L97.19944,81.22443a6.15009,6.15009,0,0,0,6.15314-.00018l39.97264-23.09507a6.15007,6.15007,0,0,0,3.07336-5.32515V13.70751a6.15008,6.15008,0,0,0-9.22707-5.325Z"/><path class="cls-1" d="M137.17166,8.38206,103.34623,27.9264a6.15008,6.15008,0,0,0-3.07324,5.32509V72.346a6.15007,6.15007,0,0,0,9.22665,5.32524l33.82543-19.54208a6.15008,6.15008,0,0,0,3.07351-5.32524V13.70715a6.15008,6.15008,0,0,0-9.22691-5.32509Z"/><g class="cls-4"><rect class="cls-1" x="100.27299" y="7.55707" width="46.12559" height="1.24454"/><rect class="cls-1" x="100.27299" y="8.80162" width="46.12559" height="1.24454"/><rect class="cls-1" x="100.27299" y="10.04616" width="46.12559" height="1.24454"/><rect class="cls-1" x="100.27299" y="11.2907" width="46.12559" height="1.24454"/><rect class="cls-1" x="100.27299" y="12.53525" width="46.12559" height="1.24454"/><rect class="cls-1" x="100.27299" y="13.77979" width="46.12559" height="1.24454"/><rect class="cls-1" x="100.27299" y="15.02434" width="46.12559" height="1.24454"/><rect class="cls-1" x="100.27299" y="16.26888" width="46.12559" height="1.24454"/><rect class="cls-1" x="100.27299" y="17.51342" width="46.12559" height="1.24454"/><rect class="cls-1" x="100.27299" y="18.75797" width="46.12559" height="1.24454"/><rect class="cls-1" x="100.27299" y="20.00251" width="46.12559" height="1.24454"/><rect class="cls-1" x="100.27299" y="21.24706" width="46.12559" height="1.24454"/><rect class="cls-1" x="100.27299" y="22.4916" width="46.12559" height="1.24454"/><rect class="cls-1" x="100.27299" y="23.73614" width="46.12559" height="1.24454"/><rect class="cls-1" x="100.27299" y="24.98069" width="46.12559" height="1.24454"/><rect class="cls-1" x="100.27299" y="26.22523" width="46.12559" height="1.24454"/><rect class="cls-1" x="100.27299" y="27.46978" width="46.12559" height="1.24454"/><rect class="cls-1" x="100.27299" y="28.71432" width="46.12559" height="1.24454"/><rect class="cls-1" x="100.27299" y="29.95886" width="46.12559" height="1.24454"/><rect class="cls-1" x="100.27299" y="31.20341" width="46.12559" height="1.24454"/><rect class="cls-1" x="100.27299" y="32.44795" width="46.12559" height="1.24454"/><rect class="cls-1" x="100.27299" y="33.6925" width="46.12559" height="1.24454"/><rect class="cls-1" x="100.27299" y="34.93704" width="46.12559" height="1.24454"/><rect class="cls-1" x="100.27299" y="36.18158" width="46.12559" height="1.24454"/><rect class="cls-1" x="100.27299" y="37.42613" width="46.12559" height="1.24454"/><rect class="cls-1" x="100.27299" y="38.67067" width="46.12559" height="1.24454"/><rect class="cls-1" x="100.27299" y="39.91522" width="46.12559" height="1.24454"/><rect class="cls-1" x="100.27299" y="41.15976" width="46.12559" height="1.24454"/><rect class="cls-1" x="100.27299" y="42.4043" width="46.12559" height="1.24454"/><rect class="cls-1" x="100.27299" y="43.64885" width="46.12559" height="1.24454"/><rect class="cls-1" x="100.27299" y="44.89339" width="46.12559" height="1.24454"/><rect class="cls-1" x="100.27299" y="46.13794" width="46.12559" height="1.24454"/><rect class="cls-1" x="100.27299" y="47.38248" width="46.12559" height="1.24454"/><rect class="cls-1" x="100.27299" y="48.62702" width="46.12559" height="1.24454"/><rect class="cls-1" x="100.27299" y="49.87157" width="46.12559" height="1.24454"/><rect class="cls-1" x="100.27299" y="51.11611" width="46.12559" height="1.24454"/><rect class="cls-1" x="100.27299" y="52.36065" width="46.12559" height="1.24454"/><rect class="cls-1" x="100.27299" y="53.6052" width="46.12559" height="1.24454"/><rect class="cls-1" x="100.27299" y="54.84974" width="46.12559" height="1.24454"/><rect class="cls-1" x="100.27299" y="56.09429" width="46.12559" height="1.24454"/><rect class="cls-1" x="100.27299" y="57.33883" width="46.12559" height="1.24454"/><rect class="cls-1" x="100.27299" y="58.58337" width="46.12559" height="1.24454"/><rect class="cls-1" x="100.27299" y="59.82792" width="46.12559" height="1.24454"/><rect class="cls-1" x="100.27299" y="61.07246" width="46.12559" height="1.24454"/><rect class="cls-1" x="100.27299" y="62.31701" width="46.12559" height="1.24454"/><rect class="cls-1" x="100.27299" y="63.56155" width="46.12559" height="1.24454"/><rect class="cls-1" x="100.27299" y="64.80609" width="46.12559" height="1.24454"/><rect class="cls-1" x="100.27299" y="66.05064" width="46.12559" height="1.24454"/><rect class="cls-1" x="100.27299" y="67.29518" width="46.12559" height="1.24454"/><rect class="cls-1" x="100.27299" y="68.53973" width="46.12559" height="1.24454"/><rect class="cls-1" x="100.27299" y="69.78427" width="46.12559" height="1.24454"/><rect class="cls-1" x="100.27299" y="71.02881" width="46.12559" height="1.24454"/><rect class="cls-1" x="100.27299" y="72.27336" width="46.12559" height="1.24454"/><rect class="cls-1" x="100.27299" y="73.5179" width="46.12559" height="1.24454"/><rect class="cls-1" x="100.27299" y="74.76245" width="46.12559" height="1.24454"/><rect class="cls-1" x="100.27299" y="76.00699" width="46.12559" height="1.24454"/><rect class="cls-1" x="100.27299" y="77.25153" width="46.12559" height="1.24454"/><rect class="cls-1" x="100.27299" y="78.49608" width="46.12559"/></g><path class="cls-1" d="M47.99578,107.87263,14.17341,88.33232a6.15008,6.15008,0,0,0-9.22665,5.32524v39.09451A6.15009,6.15009,0,0,0,8.02,138.07716L47.99552,161.175a6.15007,6.15007,0,0,0,6.15367,0L94.1247,138.07716a6.15009,6.15009,0,0,0,3.07324-5.32509V93.65756a6.15008,6.15008,0,0,0-9.22665-5.32524L54.14892,107.87263A6.15008,6.15008,0,0,1,47.99578,107.87263Z"/><path class="cls-1" d="M51.07235,113.19964v39.09677a6.15007,6.15007,0,0,0,9.22691,5.32508L94.1247,138.07716a6.15009,6.15009,0,0,0,3.07324-5.32509V93.65756a6.15008,6.15008,0,0,0-9.22665-5.32524L54.14586,107.8744A6.15008,6.15008,0,0,0,51.07235,113.19964Z"/><g class="cls-5"><rect class="cls-1" x="51.07235" y="87.50748" width="46.12559" height="1.24454"/><rect class="cls-1" x="51.07235" y="88.75203" width="46.12559" height="1.24454"/><rect class="cls-1" x="51.07235" y="89.99657" width="46.12559" height="1.24454"/><rect class="cls-1" x="51.07235" y="91.24112" width="46.12559" height="1.24454"/><rect class="cls-1" x="51.07235" y="92.48566" width="46.12559" height="1.24454"/><rect class="cls-1" x="51.07235" y="93.7302" width="46.12559" height="1.24454"/><rect class="cls-1" x="51.07235" y="94.97475" width="46.12559" height="1.24454"/><rect class="cls-1" x="51.07235" y="96.21929" width="46.12559" height="1.24454"/><rect class="cls-1" x="51.07235" y="97.46384" width="46.12559" height="1.24454"/><rect class="cls-1" x="51.07235" y="98.70838" width="46.12559" height="1.24454"/><rect class="cls-1" x="51.07235" y="99.95292" width="46.12559" height="1.24454"/><rect class="cls-1" x="51.07235" y="101.19747" width="46.12559" height="1.24454"/><rect class="cls-1" x="51.07235" y="102.44201" width="46.12559" height="1.24454"/><rect class="cls-1" x="51.07235" y="103.68655" width="46.12559" height="1.24454"/><rect class="cls-1" x="51.07235" y="104.9311" width="46.12559" height="1.24454"/><rect class="cls-1" x="51.07235" y="106.17564" width="46.12559" height="1.24454"/><rect class="cls-1" x="51.07235" y="107.42019" width="46.12559" height="1.24454"/><rect class="cls-1" x="51.07235" y="108.66473" width="46.12559" height="1.24454"/><rect class="cls-1" x="51.07235" y="109.90927" width="46.12559" height="1.24454"/><rect class="cls-1" x="51.07235" y="111.15382" width="46.12559" height="1.24454"/><rect class="cls-1" x="51.07235" y="112.39836" width="46.12559" height="1.24454"/><rect class="cls-1" x="51.07235" y="113.64291" width="46.12559" height="1.24454"/><rect class="cls-1" x="51.07235" y="114.88745" width="46.12559" height="1.24454"/><rect class="cls-1" x="51.07235" y="116.13199" width="46.12559" height="1.24454"/><rect class="cls-1" x="51.07235" y="117.37654" width="46.12559" height="1.24454"/><rect class="cls-1" x="51.07235" y="118.62108" width="46.12559" height="1.24454"/><rect class="cls-1" x="51.07235" y="119.86563" width="46.12559" height="1.24454"/><rect class="cls-1" x="51.07235" y="121.11017" width="46.12559" height="1.24454"/><rect class="cls-1" x="51.07235" y="122.35471" width="46.12559" height="1.24454"/><rect class="cls-1" x="51.07235" y="123.59926" width="46.12559" height="1.24454"/><rect class="cls-1" x="51.07235" y="124.8438" width="46.12559" height="1.24454"/><rect class="cls-1" x="51.07235" y="126.08835" width="46.12559" height="1.24454"/><rect class="cls-1" x="51.07235" y="127.33289" width="46.12559" height="1.24454"/><rect class="cls-1" x="51.07235" y="128.57743" width="46.12559" height="1.24454"/><rect class="cls-1" x="51.07235" y="129.82198" width="46.12559" height="1.24454"/><rect class="cls-1" x="51.07235" y="131.06652" width="46.12559" height="1.24454"/><rect class="cls-1" x="51.07235" y="132.31107" width="46.12559" height="1.24454"/><rect class="cls-1" x="51.07235" y="133.55561" width="46.12559" height="1.24454"/><rect class="cls-1" x="51.07235" y="134.80015" width="46.12559" height="1.24454"/><rect class="cls-1" x="51.07235" y="136.0447" width="46.12559" height="1.24454"/><rect class="cls-1" x="51.07235" y="137.28924" width="46.12559" height="1.24454"/><rect class="cls-1" x="51.07235" y="138.53378" width="46.12559" height="1.24454"/><rect class="cls-1" x="51.07235" y="139.77833" width="46.12559" height="1.24454"/><rect class="cls-1" x="51.07235" y="141.02287" width="46.12559" height="1.24454"/><rect class="cls-1" x="51.07235" y="142.26742" width="46.12559" height="1.24454"/><rect class="cls-1" x="51.07235" y="143.51196" width="46.12559" height="1.24454"/><rect class="cls-1" x="51.07235" y="144.7565" width="46.12559" height="1.24454"/><rect class="cls-1" x="51.07235" y="146.00105" width="46.12559" height="1.24454"/><rect class="cls-1" x="51.07235" y="147.24559" width="46.12559" height="1.24454"/><rect class="cls-1" x="51.07235" y="148.49014" width="46.12559" height="1.24454"/><rect class="cls-1" x="51.07235" y="149.73468" width="46.12559" height="1.24454"/><rect class="cls-1" x="51.07235" y="150.97922" width="46.12559" height="1.24454"/><rect class="cls-1" x="51.07235" y="152.22377" width="46.12559" height="1.24454"/><rect class="cls-1" x="51.07235" y="153.46831" width="46.12559" height="1.24454"/><rect class="cls-1" x="51.07235" y="154.71286" width="46.12559" height="1.24454"/><rect class="cls-1" x="51.07235" y="155.9574" width="46.12559" height="1.24454"/><rect class="cls-1" x="51.07235" y="157.20194" width="46.12559" height="1.24454"/><rect class="cls-1" x="51.07235" y="158.44649" width="46.12559"/></g></svg>