<?xml version="1.0" encoding="utf-8"?>
<!-- Generator: Adobe Illustrator 21.1.0, SVG Export Plug-In . SVG Version: 6.00 Build 0)  -->
<svg version="1.1" id="Layer_1" xmlns="http://www.w3.org/2000/svg" xmlns:xlink="http://www.w3.org/1999/xlink" x="0px" y="0px"
	 viewBox="0 0 432 434" style="enable-background:new 0 0 432 434;" xml:space="preserve">
<style type="text/css">
	.st0{opacity:0.64;}
	.st1{opacity:0.85;}
	.st2{opacity:0.75;}
	.st3{fill:#FFFFFF;}
	.st4{fill:none;}
	.st5{opacity:0.6;fill:#FFFFFF;}
	.st6{opacity:0.71;fill:#FFFFFF;}
	.st7{opacity:0.85;fill:#FFFFFF;}
	.st8{fill:#BFBFBF;}
	.st9{fill:#566366;}
	.st10{fill:#7D9199;}
</style>
<g>
	<path class="st0" d="M71.1,214.5c7.5-26.7,20.9-50.1,38.4-68.8c-5.9-4.4-29.3-22.6-30.4-36.9C77.5,85.4,100.9,6.7,100.9,6.7
		S30.2,92.8,25.3,127.6c-3.9,27.3,40.8,81.5,45.5,87v-0.1H71.1z"/>
	<path class="st0" d="M358.9,213.1v0.2c0,0.1,0.1,0.2,0.1,0.3c7.8-9.4,48.3-59.9,44.6-86C398.7,92.8,328,6.7,328,6.7
		s23.4,78.7,21.7,102.1c-1,13.7-22.3,30.8-29.4,36.2C337.8,163.5,351.2,186.7,358.9,213.1L358.9,213.1z"/>
	<path class="st1" d="M358.9,213.3v-0.2h0c-7.6-26.4-21.1-49.6-38.6-68.1c-27.5-29-64.9-46.4-105.2-46.4v0.3v92.7c0,0,0.1,0,0.1,0
		c9.9,0.1,17.9,8.2,17.9,18.1c0,1.2-0.1,2.3-0.3,3.4c-1.6,8.3-8.8,14.6-17.6,14.7c0,0-0.1,0-0.1,0c0,0-0.1,0-0.1,0s-0.1,0-0.1,0
		c0,0,0,0,0,0l0,34.5l-0.2,163.4h0.2h3.3c0,0,38-55,58.5-70.7c24-18.4,82.2-41.2,82.2-41.2v-99.4l0.3-0.1c-0.1-0.2-0.1-0.5-0.2-0.7
		C359,213.5,358.9,213.4,358.9,213.3z"/>
	<path class="st2" d="M214.9,262.3l0-34.5c-8.3-0.1-15.2-5.7-17.3-13.3c-0.4-1.5-0.7-3.1-0.7-4.8c0-10,8.1-18.1,18.1-18.1
		c0,0,0.1,0,0.1,0V98.9c-40.5,0-78,17.5-105.5,46.8c-17.5,18.6-30.9,42.1-38.4,68.8h-0.3v0.1v100.6c0,0,58.2,22.8,82.2,41.2
		c19.9,15.3,58.3,69.4,58.3,69.4h3.6v-0.1h-0.2L214.9,262.3z"/>
</g>
</svg>
