<svg id="Layer_1" data-name="Layer 1" xmlns="http://www.w3.org/2000/svg" viewBox="0 0 360 360"><defs><style>.cls-1{fill:#fff;}</style></defs><title>crio-icon-white</title><path class="cls-1" d="M357.22369,128.51837,260.185,7.43689A3.83538,3.83538,0,0,0,257.19135,6h-.01215l-155.086.47864a3.83762,3.83762,0,0,0-2.99554,1.45465L2.76245,129.59467a3.83947,3.83947,0,0,0-.73065,3.2456L36.97858,284.084a3.83408,3.83408,0,0,0,2.08227,2.5965l139.93231,66.943a3.83258,3.83258,0,0,0,3.33271-.0094L321.85919,285.83a3.83413,3.83413,0,0,0,2.06629-2.60962l34.04754-151.461A3.83647,3.83647,0,0,0,357.22369,128.51837Zm-37.041,153.86017L180.649,350.16241,40.71655,283.2196,5.76971,131.97656,102.10565,10.31512l155.0857-.47857L354.23053,130.918Z"/><path class="cls-1" d="M102.10565,10.31512,5.76971,131.97656l34.94684,151.243L180.649,350.16241l139.53369-67.78387L354.23053,130.918,257.19135,9.83655ZM316.84412,279.7359l-136.208,66.16736L44.03937,280.5564l-34.116-147.645L103.9657,14.14636l151.38794-.4674L350.0824,131.87738Z"/><polygon class="cls-1" points="169.549 65.934 162.544 62.8 147.674 96.036 152.145 104.833 169.549 65.934"/><polygon class="cls-1" points="86.425 208.28 85.073 215.833 117.208 221.584 124.67 215.124 86.425 208.28"/><polygon class="cls-1" points="90.577 117.012 83.806 120.622 100.702 152.315 110.396 154.189 90.577 117.012"/><polygon class="cls-1" points="142.883 269.427 147.709 275.392 176.001 252.508 176.001 242.64 142.883 269.427"/><polygon class="cls-1" points="230.431 263.885 238.101 264.14 239.313 227.741 231.85 221.279 230.431 263.885"/><polygon class="cls-1" points="284.49 189.224 289.432 183.353 261.563 159.886 251.87 161.755 284.49 189.224"/><polygon class="cls-1" points="216.815 108.795 258.48 99.705 256.845 92.208 221.243 99.975 216.815 108.795"/><path class="cls-1" d="M228.40143,160.61017l-1.336,5.9284L251.87,161.75519l-1.35535-1.1413,4.942-5.86926,6.106,5.14142,60.62122-11.69031-1.45014-7.54041-60.32318,11.63685L277.30389,120.608l-6.75012-3.60339-19.79352,37.15826-22.5047,4.33966A3.81379,3.81379,0,0,1,228.40143,160.61017Z"/><path class="cls-1" d="M160.0459,125.05829l2.37286-.00733-10.274-20.21777-.736,1.645-7.00452-3.13415,3.26984-7.30848L119.70227,40.99152l-6.84436,3.48016,27.8197,54.75494L105.564,91.72974l-1.5951,7.50415,41.18219,8.77295,10.379,20.42089,1.52307-1.91851A3.83722,3.83722,0,0,1,160.0459,125.05829Z"/><path class="cls-1" d="M141.14514,200.86188,124.6698,215.12433l5.51086.98627-1.3526,7.55346-11.62054-2.07971-47.06891,40.747,5.02454,5.80029L121.85559,227.718l1.23261,36.39691,7.66363-.24652-1.42834-42.596,18.93658-16.39105-5.59717-2.67481A3.81688,3.81688,0,0,1,141.14514,200.86188Z"/><path class="cls-1" d="M180.17059,219.715a3.845,3.845,0,0,1-1.65423-.37464l-2.5149-1.20184v24.50183l1.43024-1.1568,4.82581,5.96484-6.256,5.05994v61.70679h7.65644V252.80432l27.914,22.5777,4.82153-5.95978-32.72827-26.48566v-24.4884l-1.81976.88281A3.83418,3.83418,0,0,1,180.17059,219.715Z"/><path class="cls-1" d="M131.89844,158.3454,110.396,154.189l1.07623,2.0188-6.77039,3.61-3.99969-7.50263L40.38306,140.6554,38.933,148.1958l60.62769,11.69489-27.856,23.46215,4.94477,5.87281,32.60491-27.44275,23.61164,4.5545-1.26166-5.44244A3.83386,3.83386,0,0,1,131.89844,158.3454Z"/><path class="cls-1" d="M213.44446,101.67676l7.799-1.70154,27.70416-55.18457-6.84436-3.43659L214.55182,96.2395l-14.8125-32.69928-6.99658,3.1684,17.37915,38.35449-9.99774,19.91028a3.82142,3.82142,0,0,1,2.65893,1.39813l3.20392,3.99329,10.82849-21.56946-1.73559.37866Z"/><path class="cls-1" d="M217.59674,201.9873l-5.14575,2.49634,19.39941,16.79572.05982-1.7948,7.66961.25482-.26654,8.00122,46.66931,40.40552,5.02448-5.82208-46.42419-40.19611,35.33837-6.3078L278.5799,208.258l-41.45765,7.42437L219.32,200.2923A3.83049,3.83049,0,0,1,217.59674,201.9873Z"/><polygon class="cls-1" points="151.409 106.478 152.145 104.833 147.674 96.036 144.404 103.344 151.409 106.478"/><polygon class="cls-1" points="213.444 101.677 215.08 109.174 216.815 108.795 221.243 99.975 213.444 101.677"/><polygon class="cls-1" points="111.472 156.208 110.396 154.189 100.702 152.315 104.702 159.818 111.472 156.208"/><polygon class="cls-1" points="177.432 241.484 176.001 242.64 176.001 252.508 182.258 247.448 177.432 241.484"/><polygon class="cls-1" points="231.91 219.485 231.85 221.279 239.313 227.741 239.58 219.739 231.91 219.485"/><polygon class="cls-1" points="250.515 160.614 251.87 161.755 261.563 159.886 255.457 154.745 250.515 160.614"/><polygon class="cls-1" points="130.181 216.111 124.67 215.124 117.208 221.584 128.828 223.664 130.181 216.111"/><path class="cls-1" d="M199.78284,128.77191h-1.5661l1.90741-3.79852c-.11194-.00989-.2204-.03778-.33381-.03778h-.01214l-37.35944.11535,1.9314,3.80072-4.3067.02173-2.61017,3.29895-1.9032-3.74463-23.19324,29.215a3.827,3.827,0,0,0-.43841.70264l4.16791.80566-.725.91352,1.65307,7.06915-4.12835-.79633,7.71368,33.27448a3.81247,3.81247,0,0,0,.56543,1.25l3.05615-2.64569.1305.52911,7.1054,3.38593-3.17712,2.75006,27.74139,13.2572V213.877l4.15455,1.97931,3.50915-1.70385v4.29571L212.451,204.48364l-3.17749-2.751,6.65588-3.21917.21747-.9643,3.1731,2.74317a3.81657,3.81657,0,0,0,.345-.91461l7.40045-32.83912-4.13934.79822,1.72552-7.56939-.3988-.49305,4.00274-.77185a3.80442,3.80442,0,0,0-.60443-1.136L205.987,130.36481l-1.90472,3.79413Zm20.72607,31.95441-7.9234,35.16315-32.42712,15.73071-32.52076-15.54151-8.14074-35.11444L161.91553,132.726l36.03894-.11151Z"/><path class="cls-1" d="M215.92938,198.51343l-6.65588,3.21917,3.17749,2.751,5.14575-2.49634a3.83049,3.83049,0,0,0,1.72321-1.695l-3.1731-2.74317Z"/><path class="cls-1" d="M200.12415,124.97339l-1.90741,3.79852h1.5661l4.29944,5.387,1.90472-3.79413-3.20392-3.99329A3.82142,3.82142,0,0,0,200.12415,124.97339Z"/><path class="cls-1" d="M224.65161,159.7674l-1.72552,7.56939,4.13934-.79822,1.336-5.9284a3.81379,3.81379,0,0,0-.14588-2.10767l-4.00274.77185Z"/><path class="cls-1" d="M144.33179,198.7453l-.1305-.52911-3.05615,2.64569a3.81688,3.81688,0,0,0,1.51776,1.3446l5.59717,2.67481,3.17712-2.75006Z"/><path class="cls-1" d="M160.04346,128.87341l4.3067-.02173-1.9314-3.80072-2.37286.00733a3.83722,3.83722,0,0,0-2.99274,1.45093l-1.52307,1.91851,1.9032,3.74463Z"/><path class="cls-1" d="M180.156,215.85632l-4.15455-1.97931v4.26148l2.5149,1.20184a3.842,3.842,0,0,0,3.329-.00934l1.81976-.88281v-4.29571Z"/><path class="cls-1" d="M135.34131,160.06458l.725-.91352-4.16791-.80566a3.83386,3.83386,0,0,0-.29407,2.54956l1.26166,5.44244,4.12835.79633Z"/></svg>