<?xml version="1.0" encoding="utf-8"?>
<!-- Generator: Adobe Illustrator 21.1.0, SVG Export Plug-In . SVG Version: 6.00 Build 0)  -->
<svg version="1.1" id="Layer_1" xmlns="http://www.w3.org/2000/svg" xmlns:xlink="http://www.w3.org/1999/xlink" x="0px" y="0px"
	 viewBox="0 0 432 432" enable-background="new 0 0 432 432" xml:space="preserve">
<g>
	<path fill="#FFFFFF" d="M216.412,11.432C331.049,11.456,425.144,104.367,425,217.395
		c-0.146,114.745-93.856,206.367-210.985,206.285C99.504,423.599,6.92,330.592,7,215.719
		C7.079,103.391,101.369,11.408,216.412,11.432z M153.044,83.773c2.628,12.861,0.075,24.855-3.811,36.653
		c-2.691,8.17-6.411,16.036-8.632,24.317c-3.66,13.644-7.813,27.369-9.336,41.324c-2.19,20.067,5.743,37.741,19.317,55.316
		c-22.048-4.615-42.044-8.8-62.396-13.06c0.109,1.96-0.007,2.702,0.208,3.331c5.914,17.272,16.322,31.824,27.988,45.541
		c1.234,1.451,4.045,2.197,6.126,2.201c62.214,0.114,124.428,0.108,186.642,0.028c1.93-0.002,4.505-0.365,5.689-1.603
		c13.335-13.936,23.531-29.806,29.906-49.802c-22.852,4.449-44.487,8.66-66.055,12.859c4.357-8.489,9.331-15.954,12.19-24.156
		c9.78-28.058,5.726-55.186-8.311-80.771c-11.266-20.532-21.657-40.975-16.037-65.72c-11.896,11.679-16.465,26.548-19.364,41.871
		c-2.856,15.092-4.539,30.406-6.75,45.718c-0.314-0.462-0.722-0.804-0.785-1.201c-0.256-1.607-0.494-3.226-0.581-4.848
		c-1.343-25.081-6.271-49.246-16.671-72.326c-6.122-13.586-12.873-27.476-6.562-43.682c-4.271,2.239-8.13,4.464-10.897,7.641
		c-8.258,9.482-11.673,20.871-12.551,33.341c-0.751,10.653-1.779,21.357-3.766,31.833c-2.088,11.008-5.399,21.799-12.838,31.917
		C172.758,118.879,172.425,97.504,153.044,83.773z M313.455,298.335c-65.629,0-130.276,0-195.132,0c0,11.556,0,22.602,0,33.699
		c65.335,0,130.187,0,195.132,0C313.455,320.552,313.455,309.668,313.455,298.335z M157.014,349.443
		c-0.161,28.061,28.59,48.967,64.123,47.45c29.447-1.257,55.509-24.289,53.268-47.45
		C235.439,349.443,196.439,349.443,157.014,349.443z"/>
</g>
</svg>
