<svg id="Layer_1" data-name="Layer 1" xmlns="http://www.w3.org/2000/svg" viewBox="0 0 1440 1440"><defs><style>.cls-1{fill:none;}</style></defs><path class="cls-1" d="M1182.09436,1269.10474q-35.76855,0-42.46069,45.59887l79.94848-1.53271Q1219.58215,1269.10675,1182.09436,1269.10474Z"/><path d="M720,1086.28918c298.23376,0,540-241.76623,540-540s-241.76624-540-540-540-540,241.76624-540,540S421.76624,1086.28918,720,1086.28918ZM303.20911,495.559c-17.97712,3.883-35.67621-6.94635-39.96991-24.45611-4.3783-17.85566,6.29083-36.08893,24.1098-40.37378,3.69879-.88941,4.56006-2.61707,5.08868-5.73963,3.04883-18.01123,6.82361-35.81506,15.088-52.34717,14.31646-28.63867,35.76733-49.44873,65.47784-62.2312a168.11664,168.11664,0,0,1,63.79431-13.55639c12.10785-.23584,24.28284,2.64428,36.418,4.19372,29.33252,3.74536,52.11884,19.785,73.33289,38.8562,11.908,10.7052,24.01056,21.19458,36.76709,32.4347,1.566-3.50867,2.88519-5.95643,3.78106-8.54981,9.31958-26.97839,22.598-52.03442,37.25013-76.4093,21.48376-35.73963,51.53527-62.95068,87.14148-83.778,20.19036-11.81005,42.69934-18.83886,65.258-25.39758a501.65748,501.65748,0,0,1,95.14777-18.30652c22.2774-2.00293,44.86578-.55932,67.31524-.65112a6.06726,6.06726,0,0,1,1.25177.08911c4.83136,1.00269,7.5011-.49121,9.77582-5.41015,7.32764-15.84534,24.72821-23.94092,42.20874-20.49878,16.47968,3.24487,29.42951,18.09448,30.48615,34.95825a38.51213,38.51213,0,0,1-25.76746,38.94116A38.048,38.048,0,0,1,952.855,192.77673c-2.28131-3.43066-4.11084-4.32275-8.2771-3.52038-29.84668,5.74756-58.80316,14.25952-86.02277,27.85974-21.27655,10.63086-40.90667,24.15332-55.43084,43.03137-10.87635,14.13672-19.845,29.94544-28.1305,45.8075-10.95532,20.97351-20.05084,42.859-24.43206,66.35254a38.00834,38.00834,0,0,0-.71942,5.369c-.11939,2.90052-.03211,5.80957-.03211,9.44165,8.13873-1.36254,15.78534-2.56176,23.40112-3.932,28.07819-5.05188,56.37049-8.77478,84.89753-7.84973,29.85418.968,55.85546,12.29638,76.71649,33.94482,11.39282,11.82294,22.31091,24.13843,32.87042,36.71106,6.15643,7.33014,11.191,15.60059,16.70795,23.46362.87829,1.25171,1.65448,2.57624,2.45031,3.88379,3.01691,4.95679,6.13,7.5622,13.21033,6.749,21.784-2.50165,37.44263,15.63659,37.98389,33.94018a35.51462,35.51462,0,0,1-70.98651,2.4635q-.05769-1.6637.04052-3.32721c.41034-5.814,2.78052-11.49023,4.734-19.10925-4.02173-3.85431-8.90136-9.41461-14.64245-13.86823-17.55078-13.61474-36.19916-25.56622-56.61768-34.52209a23.2874,23.2874,0,0,0-8.51092-1.845c-24.49866-.68006-48.1142,2.77368-69.82471,15.13116-3.51959,2.00336-6.15424,4.221-6.367,8.49542-.20733,4.16657-.61865,8.33088-.63751,12.49744-.06262,13.79987-.08282,27.60175.10236,41.39984.04382,3.26435-1.27771,4.65283-4.25775,4.8255-3.481.20166-6.97028.41992-10.45386.38855q-42.72574-.38433-85.45068-.85406c-6.26362-.05976-7.68366,1.23932-7.88971,7.4339-.75977,22.84515-1.92933,45.69-2.05811,68.53985-.2395,42.5083.03845,85.02063.30475,127.53.17181,27.43286,4.29657,54.29767,13.45557,80.21887,6.2691,17.74244,17.53118,32.04755,34.48071,40.23273,9.68146,4.67536,20.823,6.69165,31.522,8.83746,20.98334,4.20856,41.64148-.36023,62.266-3.69036,6.92591-1.11835,13.73969-2.92914,20.99115-4.50763-.325,3.31585-.7301,7.24261-1.09216,11.17334-2.696,29.27227-5.43823,58.54046-8.001,87.8244-.30389,3.473-1.93762,5.22827-4.897,6.42334A195.81219,195.81219,0,0,1,810.447,967.78107c-21.99561,3.37622-44.05121,5.43133-66.31427,4.51178a251.52677,251.52677,0,0,1-72.95-13.54572c-27.97693-9.76056-49.721-27.37652-67.00507-51.20367-13.84729-19.08942-20.216-41.03083-26.0459-63.2851-5.85644-22.35583-7.29541-45.30316-9.31054-68.20227-3.49024-39.66125-2.39331-79.39441-2.3678-119.1048.02582-40.138.61981-80.27569,1.00659-120.4132.09656-10.02143.17017-10.00208-9.68848-9.99524q-30.16231.02077-60.3247.00207c-6.23865-.00323-7.09473-.56781-7.17792-6.88244-.145-11.00629.37726-22.02454.10846-33.02533-.37756-15.45179-.84222-30.92286-2.08923-46.31958-.39588-4.8877-2.62165-10.07795-5.35566-14.25122-14.2445-21.74384-33.45678-37.78315-58.10675-46.3797a82.67894,82.67894,0,0,0-47.42718-2.327c-29.24091,7.09985-47.742,26.20239-59.7237,52.72241-.79785,1.766-1.56536,3.54566-2.42706,5.50067,6.90241,5.497,11.6864,12.275,13.34711,21.04615C331.9577,474.39026,320.64417,491.79309,303.20911,495.559Z"/><path d="M93.41833,1381.282q-6.88549-11.58948-6.88555-45.6947-.00312-27.97045.38256-53.45422,18.16691,0,47.24225,1.14953l1.53015-38.12683q-31.94118,1.53277-48.00732,1.53272,0-20.88153,2.869-59.01038l-45.32965,5.55615q-1.342,43.3017-1.53009,53.45423-12.62467,0-27.35077-1.14954L15,1283.28259q16.64-1.14953,26.39447-1.14953-.3825,36.59637-.38251,65.52441-.00127,48.09192,15.68366,64.94971,15.68372,16.86017,46.66852,16.86011,20.27278,0,33.66247-5.74781l3.25153-34.10339a86.673,86.673,0,0,1-22.56928,3.2572Q100.30387,1392.87586,93.41833,1381.282Z"/><path d="M217.35767,1264.12329h-3.06025q-.00118-3.63775-3.25146-24.71533l-48.7724,5.36462a377.82116,377.82116,0,0,1,9.56317,86.408q-.00118,36.59657-3.25146,94.26331h50.87628q-1.14762-41.19214-1.14759-117.63745,8.98949-25.29016,37.10529-25.29016a75.67338,75.67338,0,0,1,28.68964,5.7478l11.09332-44.83264q-17.21374-6.32245-30.9848-6.32264Q234.95276,1237.10876,217.35767,1264.12329Z"/><path d="M354.68542,1157.21509q-16.06622.002-24.96,9.57959a32.13482,32.13482,0,0,0-8.8938,22.60791,29.35729,29.35729,0,0,0,7.55494,20.30871q7.55373,8.43018,20.94348,8.43006,15.875,0,24.76873-9.77124a32.80422,32.80422,0,0,0,8.8938-22.79944,29.21731,29.21731,0,0,0-7.3637-20.02136Q368.264,1157.21508,354.68542,1157.21509Z"/><path d="M374.00311,1239.59961l-55.0841,5.55615q6.503,38.32032,6.503,89.28186-.00129,51.3468-2.67774,91.00623H374.1944q-2.67774-41.76471-2.67774-91.00623Q371.51548,1276.77093,374.00311,1239.59961Z"/><path d="M474.99017,1374.8634q-15.87441-18.00768-15.87445-44.06616-.00091-23.94909,13.388-40.33008,13.38657-16.38115,36.5315-16.3811,21.8031.002,39.40045,7.28052l6.503-39.08472q-18.36136-5.36463-41.8869-5.36462-48.20124.002-75.93146,29.98413-27.73325,29.98407-27.73328,70.2185-.0032,38.70172,26.49012,66.2909Q462.36674,1431,511.713,1431q29.83521,0,47.24231-9.19641l3.25147-36.59412q-25.24878,7.66389-42.26947,7.66358Q490.86323,1392.87506,474.99017,1374.8634Z"/><path d="M687.10223,1317.00281v-2.8739q16.06422-10.344,42.07813-37.552,26.01206-27.20415,26.012-33.14538H698.19562q-.00192,6.1333-25.05561,37.073-25.058,30.94225-30.411,30.94214h-2.67767q-.19125-21.07251-.19128-28.3556-.00248-57.28362,2.67767-130.09106l-54.31909,3.06543q5.92923,53.83979,5.9292,127.02551,0,52.8814-2.29517,142.35291h50.685q-2.29513-49.6203-2.29517-88.89868h2.48645q8.03064.002,37.10529,40.9049,29.07211,40.90741,29.0722,47.99378h58.52686q0-7.66187-31.27173-51.82556Q704.8898,1329.45874,687.10223,1317.00281Z"/><path d="M903.80487,1333.86267q-12.62586-10.72668-40.35675-20.88354-20.0853-7.47218-26.58575-12.35767a15.39107,15.39107,0,0,1-6.503-12.9325q-.00194-15.71062,30.60229-15.71057a127.34085,127.34085,0,0,1,46.66852,8.43006l6.503-37.93518q-19.31772-5.9394-53.17151-5.93933-36.14895,0-55.08411,15.519-18.9352,15.52148-18.93518,41.00073-.00247,21.64985,17.59632,36.59412,12.81473,10.73163,40.93054,21.84143,32.13235,12.64764,32.13238,26.63135,0,9.00677-8.8938,12.83667-8.89378,3.83166-31.84552,3.83178a139.615,139.615,0,0,1-47.62481-8.62158l-6.503,37.74365q23.143,6.70551,54.1278,6.70569,84.92139,0,84.92133-57.47766Q921.78115,1349.19262,903.80487,1333.86267Z"/><path d="M1022.5799,1381.282q-6.88551-11.58948-6.8855-45.6947-.00257-27.97045.3825-53.45422,18.16773,0,47.24231,1.14953l1.53016-38.12683q-31.9411,1.53277-48.00739,1.53272,0-20.88153,2.869-59.01038l-45.32965,5.55615q-1.34134,43.3017-1.53009,53.45423-12.62539,0-27.35077-1.14954l-1.33887,37.74365q16.63989-1.14953,26.39447-1.14953-.3825,36.59637-.38251,65.52441-.0021,48.09192,15.68366,64.94971,15.68371,16.86017,46.66852,16.86011,20.272,0,33.66247-5.74781l3.25147-34.10339a86.67292,86.67292,0,0,1-22.56922,3.2572Q1029.4654,1392.87586,1022.5799,1381.282Z"/><path d="M1184.38965,1235.57617q-44.37342.002-69.33338,29.98413-24.95984,29.98407-24.96,70.79322-.00183,39.08715,26.29883,66.8656,26.29889,27.78094,75.645,27.78088,39.01794-.002,65.41235-9.57959l3.82532-37.16882q-32.32361,8.6217-61.0133,8.62158-25.82263,0-41.69568-14.36939a56.34348,56.34348,0,0,1-18.55261-36.01928l123.17419-2.10755q1.14751-15.71045,1.14758-25.48169-.00237-35.25092-19.70007-57.286Q1224.93578,1235.57617,1184.38965,1235.57617Zm-44.756,79.12744q6.69231-45.59893,42.46069-45.59887,37.48791.002,37.48779,44.06616Z"/><path d="M1394.015,1237.10864q-29.26537,0-46.85974,27.01453h-3.06018q-.002-3.63794-3.25146-24.71533l-48.77234,5.36462a377.85189,377.85189,0,0,1,9.56323,86.408q-.002,36.59655-3.25146,94.26331h50.87622q-1.14753-41.19214-1.14759-117.63746,8.98938-25.29015,37.10523-25.29016a75.66869,75.66869,0,0,1,28.6897,5.74781L1425,1243.4314Q1407.78608,1237.10895,1394.015,1237.10864Z"/></svg>