<?xml version="1.0" encoding="utf-8"?>
<!-- Generator: Adobe Illustrator 21.1.0, SVG Export Plug-In . SVG Version: 6.00 Build 0)  -->
<svg version="1.1" id="Layer_1" xmlns="http://www.w3.org/2000/svg" xmlns:xlink="http://www.w3.org/1999/xlink" x="0px" y="0px"
	 viewBox="0 0 219 310.5" style="enable-background:new 0 0 219 310.5;" xml:space="preserve">
<style type="text/css">
	.st0{fill:#00B0AD;}
	.st1{fill:#003B49;}
	.st2{fill:url(#SVGID_1_);}
	.st3{fill:url(#SVGID_2_);}
	.st4{fill:url(#SVGID_3_);}
	.st5{fill:url(#SVGID_4_);}
</style>
<path class="st0" d="M166.5,41l-0.8-0.4L115.5,4L31.2,67.3l16.1,11.8l0,0l69.1,50.4l84.3-63.4L166.5,41z M54.3,55.3l45.4-34.1
	l12.7,9.2L67,64.5L54.3,55.3z M128.7,91.1l-12.5,9.4L70.4,67.1L115.8,33l29.6,21.6l-32.9,24.7L128.7,91.1z M149,57.2l12.6,9.2
	l-29.4,22.1l-12.6-9.2L149,57.2z M167.6,67.3l0.9-0.8l0.3-0.2l-16.2-11.8l12.5-9.4l28.8,21l-45.5,34.2l-12.5-9.2L167.6,67.3z
	 M149,51.9l-45.8-33.4l12.4-9.3l45.8,33.4L149,51.9z M50.8,57.9l12.7,9.2l-12.4,9.3l-12.6-9.2L50.8,57.9z M67,69.7l45.9,33.5
	l-12.4,9.3L54.6,79L67,69.7z M132.4,93.7l12.5,9.2l-28.4,21.4l-12.5-9.2L132.4,93.7z"/>
<g>
	<g>
		<path class="st1" d="M64.4,298.2c0,0-8,9.9-24.8,9.9c-22,0-37.3-17.1-37.3-39.2c0-22.3,15.3-39.3,37.3-39.3
			c16.8,0,24.8,9.8,24.8,9.8l-4,5.5c0,0-7.6-8.5-20.6-8.5c-17.8,0-30,14.8-30,32.5c0,17.6,12.3,32.4,30,32.4c13,0,20.6-8.5,20.6-8.5
			L64.4,298.2z"/>
		<path class="st1" d="M160.5,306.3H155l-49.2-62.9v62.9h-7.1v-75.1h5.8l48.9,62.6v-62.6h7.1L160.5,306.3L160.5,306.3z"/>
		<path class="st1" d="M216.5,306.3h-7.1v-75.1h7.1V306.3z"/>
	</g>
</g>
<g>
	<g>
		
			<linearGradient id="SVGID_1_" gradientUnits="userSpaceOnUse" x1="116.1541" y1="74.5767" x2="116.1541" y2="255.6651" gradientTransform="matrix(1 0 0 -1 0 313.8035)">
			<stop  offset="0" style="stop-color:#D1E1D7"/>
			<stop  offset="1" style="stop-color:#00B0AD"/>
		</linearGradient>
		<path class="st2" d="M116.1,188.6c-0.5,0-0.9-0.1-1.3-0.4l-82.9-59.4c-0.8-0.6-1.3-1.7-1.3-2.9s0.5-2.3,1.3-2.9l41.5-29.7l2.7,5.7
			l-37.6,26.9l77.6,55.6l77.6-55.6L156.2,99l2.7-5.7l41.5,29.7c0.8,0.6,1.3,1.7,1.3,2.9s-0.5,2.3-1.3,2.9l-83,59.4
			C117,188.5,116.5,188.6,116.1,188.6z"/>
	</g>
	<g>
		
			<linearGradient id="SVGID_2_" gradientUnits="userSpaceOnUse" x1="116.1541" y1="74.5767" x2="116.1541" y2="255.6651" gradientTransform="matrix(1 0 0 -1 0 313.8035)">
			<stop  offset="0" style="stop-color:#D1E1D7"/>
			<stop  offset="1" style="stop-color:#00B0AD"/>
		</linearGradient>
		<path class="st3" d="M116.1,129.2c-0.5,0-0.9-0.1-1.3-0.4L31.9,69.4c-0.8-0.6-1.3-1.7-1.3-2.9s0.5-2.3,1.3-2.9l82.9-59.4
			c0.8-0.6,1.8-0.6,2.7,0l82.9,59.4c0.8,0.6,1.3,1.7,1.3,2.9s-0.5,2.3-1.3,2.9l-83,59.4C117,129.1,116.5,129.2,116.1,129.2z
			 M38.5,66.5l77.6,55.6l77.6-55.6l-77.6-55.6L38.5,66.5z"/>
	</g>
	<g>
		
			<linearGradient id="SVGID_3_" gradientUnits="userSpaceOnUse" x1="33.1541" y1="74.5767" x2="33.1541" y2="255.6651" gradientTransform="matrix(1 0 0 -1 0 313.8035)">
			<stop  offset="0" style="stop-color:#D1E1D7"/>
			<stop  offset="1" style="stop-color:#00B0AD"/>
		</linearGradient>
		<rect x="30.5" y="66.5" class="st4" width="5.3" height="59.4"/>
	</g>
</g>
</svg>
