<svg width="501" height="500" viewBox="0 0 501 500" fill="none" xmlns="http://www.w3.org/2000/svg">
<path d="M248.033 46.9785C250.709 47.4716 250.709 47.4716 251.977 48.1055C251.977 48.6634 251.977 49.2212 251.977 49.796C252.721 49.796 253.465 49.796 254.231 49.796C255.209 50.8899 256.15 52.0177 257.049 53.177C257.607 53.4559 257.607 53.4559 258.176 53.7405C258.176 54.1124 258.176 54.4843 258.176 54.8675C258.548 54.8675 258.92 54.8675 259.303 54.8675C259.303 55.2394 259.303 55.6113 259.303 55.9945C259.616 56.1223 259.93 56.2502 260.254 56.3819C261.93 57.3331 263.089 58.5115 264.374 59.939C264.374 60.3109 264.374 60.6828 264.374 61.066C264.746 61.066 265.118 61.066 265.501 61.066C265.501 61.4379 265.501 61.8098 265.501 62.193C265.838 62.3441 266.175 62.4952 266.523 62.6508C267.755 63.32 267.755 63.32 268.6 64.2005C269.388 65.1017 269.388 65.1017 270.537 65.2218C272.297 65.755 272.943 66.9114 273.954 68.3915C273.954 68.7634 273.954 69.1353 273.954 69.5185C274.512 69.5185 275.069 69.5185 275.644 69.5185C275.83 70.4483 276.016 71.378 276.208 72.336C276.766 72.336 277.323 72.336 277.898 72.336C277.898 72.7079 277.898 73.0798 277.898 73.463C278.27 73.463 278.642 73.463 279.025 73.463C279.025 73.8349 279.025 74.2068 279.025 74.59C279.467 74.6713 279.908 74.7527 280.363 74.8365C281.843 75.1535 281.843 75.1535 282.97 75.717C282.97 76.0889 282.97 76.4608 282.97 76.844C283.342 76.844 283.713 76.844 284.097 76.844C284.655 78.2386 284.655 78.2386 285.224 79.6615C285.596 79.6615 285.967 79.6615 286.351 79.6615C286.351 80.0334 286.351 80.4053 286.351 80.7885C287.28 80.7885 288.21 80.7885 289.168 80.7885C289.168 81.1604 289.168 81.5323 289.168 81.9155C289.54 81.9155 289.912 81.9155 290.295 81.9155C290.295 82.2874 290.295 82.6593 290.295 83.0425C290.667 83.0425 291.039 83.0425 291.422 83.0425C291.422 83.4144 291.422 83.7863 291.422 84.1695C292.352 84.5414 293.282 84.9133 294.24 85.2965C294.24 85.8543 294.24 86.4122 294.24 86.987C294.983 86.987 295.727 86.987 296.494 86.987C298.254 88.4961 299.559 89.9005 300.438 92.0585C300.81 92.0585 301.182 92.0585 301.565 92.0585C301.565 92.4304 301.565 92.8023 301.565 93.1855C301.96 93.2087 302.355 93.2319 302.763 93.2559C304.991 93.934 306.351 95.2995 307.764 97.13C307.764 97.5019 307.764 97.8738 307.764 98.257C308.136 98.257 308.507 98.257 308.891 98.257C308.891 98.6289 308.891 99.0008 308.891 99.384C309.82 99.384 310.75 99.384 311.708 99.384C311.708 99.7559 311.708 100.128 311.708 100.511C312.08 100.511 312.452 100.511 312.835 100.511C312.835 100.883 312.835 101.255 312.835 101.638C313.207 101.638 313.579 101.638 313.962 101.638C316.216 104.157 316.216 104.157 316.216 105.582C316.588 105.582 316.96 105.582 317.343 105.582C317.343 105.954 317.343 106.326 317.343 106.709C318.273 106.709 319.203 106.709 320.161 106.709C320.161 107.081 320.161 107.453 320.161 107.836C320.533 107.836 320.904 107.836 321.288 107.836C321.66 108.766 322.031 109.696 322.415 110.654C322.787 110.654 323.158 110.654 323.542 110.654C323.542 111.026 323.542 111.398 323.542 111.781C323.879 111.932 324.216 112.083 324.563 112.239C325.795 112.907 326.592 113.526 327.486 114.598C327.486 114.97 327.486 115.342 327.486 115.725C328.23 115.725 328.974 115.725 329.74 115.725C329.74 116.097 329.74 116.469 329.74 116.852C330.077 117.004 330.414 117.155 330.761 117.31C331.993 117.979 332.791 118.597 333.685 119.67C333.685 120.042 333.685 120.414 333.685 120.797C334.057 120.797 334.428 120.797 334.812 120.797C334.812 121.169 334.812 121.541 334.812 121.924C335.184 121.924 335.555 121.924 335.939 121.924C335.939 122.296 335.939 122.668 335.939 123.051C336.334 122.97 336.729 122.888 337.136 122.804C339.371 123.144 340.077 124.239 341.497 125.912C342.137 126.995 342.137 126.995 342.137 129.249C341.73 129.377 341.324 129.505 340.904 129.637C338.201 130.899 336.541 133.148 334.636 135.377C332.922 137.36 331.078 139.062 329.084 140.757C327.726 141.925 326.483 143.182 325.232 144.464C324.482 145.216 323.73 145.967 322.978 146.718C322.59 147.107 322.201 147.497 321.8 147.898C320.966 148.731 320.124 149.557 319.28 150.381C318.143 151.547 317.094 152.734 316.04 153.973C314.327 155.955 312.482 157.657 310.489 159.353C309.13 160.52 307.887 161.778 306.637 163.059C306.256 163.434 305.875 163.809 305.483 164.195C305.074 164.599 304.664 165.003 304.242 165.419C303.855 165.799 303.469 166.179 303.071 166.57C302.087 167.516 302.087 167.516 301.565 168.694C300.635 168.694 299.706 168.694 298.748 168.694C298.748 169.438 298.748 170.182 298.748 170.948C298.004 170.948 297.26 170.948 296.494 170.948C295.936 173.18 295.936 173.18 295.367 175.456C294.623 175.456 293.879 175.456 293.113 175.456C293.113 175.828 293.113 176.2 293.113 176.583C292.714 176.822 292.315 177.061 291.904 177.307C290.038 178.428 288.606 179.809 287.088 181.345C286.627 181.804 286.627 181.804 286.156 182.273C285.147 183.28 284.142 184.291 283.137 185.302C282.435 186.005 281.733 186.707 281.031 187.409C279.562 188.878 278.096 190.349 276.631 191.822C274.751 193.711 272.868 195.597 270.983 197.482C269.534 198.93 268.087 200.38 266.641 201.831C265.946 202.527 265.252 203.223 264.557 203.918C263.588 204.888 262.621 205.86 261.655 206.832C261.367 207.12 261.078 207.409 260.781 207.706C259.292 209.192 259.292 209.192 258.176 210.957C257.246 210.957 256.316 210.957 255.358 210.957C255.358 211.701 255.358 212.444 255.358 213.211C254.614 213.211 253.871 213.211 253.104 213.211C252.918 214.141 252.732 215.07 252.541 216.028C253.099 216.028 253.656 216.028 254.231 216.028C254.789 216.865 254.789 216.865 255.358 217.719C256.802 218.13 256.802 218.13 258.176 218.282C258.176 218.84 258.176 219.398 258.176 219.973C258.92 219.973 259.663 219.973 260.43 219.973C260.43 220.345 260.43 220.717 260.43 221.1C261.731 221.1 263.033 221.1 264.374 221.1C264.374 221.472 264.374 221.844 264.374 222.227C265.118 222.227 265.862 222.227 266.628 222.227C266.628 222.599 266.628 222.971 266.628 223.354C267.047 223.435 267.465 223.517 267.896 223.6C269.175 223.862 270.436 224.153 271.7 224.481C271.7 225.039 271.7 225.597 271.7 226.171C272.444 226.171 273.187 226.171 273.954 226.171C273.954 226.543 273.954 226.915 273.954 227.298C274.883 227.298 275.813 227.298 276.771 227.298C276.771 227.67 276.771 228.042 276.771 228.425C277.887 228.425 279.003 228.425 280.152 228.425C280.152 228.797 280.152 229.169 280.152 229.552C281.082 229.552 282.012 229.552 282.97 229.552C282.97 229.924 282.97 230.296 282.97 230.679C283.713 230.679 284.457 230.679 285.224 230.679C285.224 231.237 285.224 231.795 285.224 232.37C285.967 232.37 286.711 232.37 287.478 232.37C287.478 233.486 287.478 234.601 287.478 235.751C286.734 235.751 285.99 235.751 285.224 235.751C285.224 236.123 285.224 236.495 285.224 236.878C284.852 236.878 284.48 236.878 284.097 236.878C284.097 237.25 284.097 237.622 284.097 238.005C283.725 238.005 283.353 238.005 282.97 238.005C282.784 238.563 282.598 239.121 282.406 239.695C282.034 239.695 281.662 239.695 281.279 239.695C281.279 240.067 281.279 240.439 281.279 240.822C280.907 240.822 280.535 240.822 280.152 240.822C280.152 241.194 280.152 241.566 280.152 241.949C279.78 241.949 279.408 241.949 279.025 241.949C279.025 242.321 279.025 242.693 279.025 243.076C278.653 243.076 278.281 243.076 277.898 243.076C277.898 243.448 277.898 243.82 277.898 244.203C277.526 244.203 277.154 244.203 276.771 244.203C276.585 244.761 276.399 245.319 276.208 245.894C275.836 245.894 275.464 245.894 275.081 245.894C275.081 246.266 275.081 246.638 275.081 247.021C274.709 247.021 274.337 247.021 273.954 247.021C273.954 247.393 273.954 247.765 273.954 248.148C273.582 248.148 273.21 248.148 272.827 248.148C272.827 248.52 272.827 248.892 272.827 249.275C272.455 249.275 272.083 249.275 271.7 249.275C271.7 249.647 271.7 250.019 271.7 250.402C271.328 250.402 270.956 250.402 270.573 250.402C270.387 250.96 270.201 251.518 270.009 252.092C269.637 252.092 269.265 252.092 268.882 252.092C268.882 252.464 268.882 252.836 268.882 253.219C268.51 253.219 268.138 253.219 267.755 253.219C267.755 253.963 267.755 254.707 267.755 255.473C267.383 255.473 267.011 255.473 266.628 255.473C266.628 255.845 266.628 256.217 266.628 256.6C266.256 256.6 265.884 256.6 265.501 256.6C265.35 256.937 265.199 257.274 265.043 257.622C264.375 258.853 263.757 259.651 262.684 260.545C262.312 260.545 261.94 260.545 261.557 260.545C261.557 260.917 261.557 261.289 261.557 261.672C261.185 261.672 260.813 261.672 260.43 261.672C260.43 262.044 260.43 262.416 260.43 262.799C260.058 262.799 259.686 262.799 259.303 262.799C259.303 263.729 259.303 264.658 259.303 265.616C259.675 265.616 260.047 265.616 260.43 265.616C260.43 266.546 260.43 267.476 260.43 268.434C260.802 268.434 261.174 268.434 261.557 268.434C261.557 269.178 261.557 269.921 261.557 270.688C262.486 270.874 263.416 271.06 264.374 271.251C264.374 272.181 264.374 273.111 264.374 274.069C264.746 274.069 265.118 274.069 265.501 274.069C265.501 274.999 265.501 275.928 265.501 276.886C265.873 276.886 266.245 276.886 266.628 276.886C267.644 279.044 267.866 280.707 267.755 283.085C268.313 283.085 268.871 283.085 269.446 283.085C269.446 289.593 269.446 296.102 269.446 302.807C268.888 302.807 268.33 302.807 267.755 302.807C267.778 303.307 267.802 303.807 267.826 304.322C267.756 306.173 267.409 307.346 266.628 309.006C266.256 309.006 265.884 309.006 265.501 309.006C265.501 309.935 265.501 310.865 265.501 311.823C265.129 311.823 264.757 311.823 264.374 311.823C264.374 312.567 264.374 313.311 264.374 314.077C263.816 314.077 263.258 314.077 262.684 314.077C262.684 314.449 262.684 314.821 262.684 315.204C262.312 315.204 261.94 315.204 261.557 315.204C261.557 315.576 261.557 315.948 261.557 316.331C261.185 316.331 260.813 316.331 260.43 316.331C260.43 316.703 260.43 317.075 260.43 317.458C260.058 317.458 259.686 317.458 259.303 317.458C259.303 317.83 259.303 318.202 259.303 318.585C258.931 318.585 258.559 318.585 258.176 318.585C257.804 319.515 257.432 320.445 257.049 321.403C256.119 321.403 255.189 321.403 254.231 321.403C254.231 321.775 254.231 322.147 254.231 322.53C253.859 322.53 253.487 322.53 253.104 322.53C253.104 322.902 253.104 323.274 253.104 323.657C250.932 323.859 249.961 323.812 248.103 322.6C247.708 322.205 247.313 321.81 246.906 321.403C246.906 321.031 246.906 320.659 246.906 320.276C246.534 320.276 246.162 320.276 245.779 320.276C245.779 319.904 245.779 319.532 245.779 319.149C245.442 318.998 245.105 318.847 244.757 318.691C243.482 317.999 242.671 317.52 241.834 316.331C241.834 314.922 241.834 314.922 242.398 313.514C244.029 312.269 244.839 311.823 246.906 311.823C246.906 310.893 246.906 309.964 246.906 309.006C247.278 309.006 247.65 309.006 248.033 309.006C248.891 307.351 249.611 305.672 250.287 303.934C250.845 303.934 251.402 303.934 251.977 303.934C251.977 302.818 251.977 301.703 251.977 300.553C252.349 300.553 252.721 300.553 253.104 300.553C253.104 299.252 253.104 297.95 253.104 296.609C253.476 296.609 253.848 296.609 254.231 296.609C254.231 294.563 254.231 292.518 254.231 290.41C253.859 290.41 253.487 290.41 253.104 290.41C253.104 288.365 253.104 286.319 253.104 284.212C252.732 284.212 252.36 284.212 251.977 284.212C251.977 282.91 251.977 281.608 251.977 280.267C251.605 280.267 251.233 280.267 250.85 280.267C250.85 279.523 250.85 278.78 250.85 278.013C250.292 278.013 249.734 278.013 249.16 278.013C248.889 277.297 248.619 276.581 248.35 275.865C248.199 275.466 248.049 275.067 247.894 274.656C247.547 273.716 247.223 272.766 246.906 271.815C246.534 271.815 246.162 271.815 245.779 271.815C245.779 270.885 245.779 269.955 245.779 268.997C245.308 268.945 245.308 268.945 244.828 268.892C242.966 268.238 241.993 267.08 240.707 265.616C240.707 265.244 240.707 264.872 240.707 264.489C240.335 264.489 239.963 264.489 239.58 264.489C239.58 264.117 239.58 263.745 239.58 263.362C239.266 263.234 238.953 263.107 238.629 262.975C236.953 262.024 235.793 260.845 234.509 259.418C234.509 259.046 234.509 258.674 234.509 258.291C234.195 258.175 233.881 258.058 233.558 257.939C232.285 257.182 231.691 256.571 230.776 255.438C229.623 253.778 229.623 253.778 228.31 253.219C228.31 252.847 228.31 252.475 228.31 252.092C227.938 252.092 227.566 252.092 227.183 252.092C227.183 251.72 227.183 251.348 227.183 250.965C226.713 250.774 226.713 250.774 226.232 250.578C224.556 249.627 223.396 248.448 222.112 247.021C222.112 246.649 222.112 246.277 222.112 245.894C221.74 245.894 221.368 245.894 220.985 245.894C220.051 244.927 220.051 244.927 219.012 243.675C217.666 241.994 217.666 241.994 215.913 240.822C215.913 240.45 215.913 240.078 215.913 239.695C215.541 239.695 215.169 239.695 214.786 239.695C214.786 239.323 214.786 238.951 214.786 238.568C214.316 238.377 214.316 238.377 213.835 238.181C212.123 237.209 210.978 236.133 209.715 234.624C209.539 233.039 209.539 233.039 209.715 231.806C210.087 231.806 210.459 231.806 210.842 231.806C210.842 231.434 210.842 231.062 210.842 230.679C213.026 230.007 214.739 229.552 217.04 229.552C217.04 229.18 217.04 228.808 217.04 228.425C217.97 228.425 218.9 228.425 219.858 228.425C219.858 228.053 219.858 227.681 219.858 227.298C220.602 227.298 221.345 227.298 222.112 227.298C222.112 226.926 222.112 226.554 222.112 226.171C223.413 226.171 224.715 226.171 226.056 226.171C226.056 225.613 226.056 225.056 226.056 224.481C226.8 224.481 227.544 224.481 228.31 224.481C228.31 224.109 228.31 223.737 228.31 223.354C229.612 223.354 230.914 223.354 232.255 223.354C232.255 222.982 232.255 222.61 232.255 222.227C232.999 222.227 233.742 222.227 234.509 222.227C234.509 221.855 234.509 221.483 234.509 221.1C235.439 221.1 236.368 221.1 237.326 221.1C237.326 220.728 237.326 220.356 237.326 219.973C238.07 219.973 238.814 219.973 239.58 219.973C239.58 219.415 239.58 218.857 239.58 218.282C240.324 218.282 241.068 218.282 241.834 218.282C241.834 217.91 241.834 217.538 241.834 217.155C242.578 217.155 243.322 217.155 244.088 217.155C244.088 216.783 244.088 216.411 244.088 216.028C244.46 216.028 244.832 216.028 245.215 216.028C244.302 214.297 243.579 213.253 242.01 212.049C241.58 211.688 241.15 211.328 240.707 210.957C240.707 210.213 240.707 209.469 240.707 208.703C240.335 208.703 239.963 208.703 239.58 208.703C238.706 207.816 238.706 207.816 237.714 206.625C235.512 204.043 233.217 201.712 230.635 199.511C228.653 197.797 226.95 195.953 225.255 193.959C224.087 192.601 222.83 191.358 221.548 190.107C220.986 189.536 220.986 189.536 220.412 188.954C220.009 188.544 219.605 188.135 219.189 187.712C218.809 187.326 218.429 186.94 218.037 186.541C217.092 185.557 217.092 185.557 215.913 185.036C215.913 184.664 215.913 184.292 215.913 183.909C214.612 183.537 213.31 183.165 211.969 182.782C211.969 181.852 211.969 180.922 211.969 179.964C211.225 179.964 210.481 179.964 209.715 179.964C209.715 179.592 209.715 179.221 209.715 178.837C209.343 178.837 208.971 178.837 208.588 178.837C208.588 177.908 208.588 176.978 208.588 176.02C207.844 175.834 207.1 175.648 206.334 175.456C206.334 174.898 206.334 174.341 206.334 173.766C205.404 173.766 204.474 173.766 203.516 173.766C203.516 173.394 203.516 173.022 203.516 172.639C203.188 172.494 202.86 172.348 202.521 172.199C201.161 171.456 200.238 170.638 199.149 169.54C198.803 169.197 198.458 168.854 198.101 168.501C197.318 167.567 197.318 167.567 197.318 166.44C196.989 166.295 196.661 166.15 196.323 166C194.962 165.258 194.04 164.439 192.951 163.341C192.605 162.998 192.259 162.655 191.903 162.302C191.119 161.369 191.119 161.369 191.119 160.242C190.747 160.242 190.375 160.242 189.992 160.242C189.059 159.276 189.059 159.276 188.02 158.023C186.674 156.342 186.674 156.342 184.921 155.17C184.921 154.798 184.921 154.427 184.921 154.043C184.592 153.898 184.264 153.753 183.926 153.603C182.565 152.861 181.643 152.042 180.554 150.944C180.208 150.601 179.862 150.258 179.506 149.905C178.722 148.972 178.722 148.972 178.722 147.845C178.394 147.7 178.066 147.554 177.727 147.405C176.367 146.662 175.444 145.844 174.355 144.746C174.009 144.403 173.664 144.06 173.307 143.707C172.524 142.773 172.524 142.773 172.524 141.646C172.053 141.455 172.053 141.455 171.573 141.259C169.897 140.308 168.737 139.129 167.452 137.702C167.452 137.33 167.452 136.958 167.452 136.575C167.08 136.575 166.708 136.575 166.325 136.575C166.325 136.203 166.325 135.831 166.325 135.448C165.855 135.256 165.855 135.256 165.374 135.061C163.699 134.109 162.539 132.931 161.254 131.503C161.254 131.132 161.254 130.76 161.254 130.376C160.882 130.376 160.51 130.376 160.127 130.376C160.127 130.005 160.127 129.633 160.127 129.249C159.755 129.249 159.383 129.249 159 129.249C159 127.948 159 126.646 159 125.305C159.744 125.305 160.487 125.305 161.254 125.305C161.254 124.933 161.254 124.561 161.254 124.178C161.626 124.178 161.998 124.178 162.381 124.178C162.532 123.841 162.683 123.504 162.839 123.157C163.507 121.925 164.125 121.128 165.198 120.233C165.57 120.233 165.942 120.233 166.325 120.233C166.325 119.862 166.325 119.49 166.325 119.106C166.697 119.106 167.069 119.106 167.452 119.106C167.452 118.735 167.452 118.363 167.452 117.979C168.382 117.979 169.312 117.979 170.27 117.979C170.642 117.05 171.014 116.12 171.397 115.162C171.769 115.162 172.141 115.162 172.524 115.162C172.524 114.79 172.524 114.418 172.524 114.035C172.896 114.035 173.268 114.035 173.651 114.035C173.651 113.663 173.651 113.291 173.651 112.908C174.023 112.908 174.395 112.908 174.778 112.908C174.778 112.536 174.778 112.164 174.778 111.781C175.15 111.781 175.522 111.781 175.905 111.781C175.905 111.409 175.905 111.037 175.905 110.654C176.835 110.654 177.764 110.654 178.722 110.654C178.815 110.27 178.908 109.887 179.004 109.492C180.254 107.044 182.255 105.611 184.357 103.892C184.543 103.706 184.729 103.52 184.921 103.328C185.86 103.306 186.799 103.304 187.738 103.328C187.801 102.992 187.864 102.655 187.929 102.308C188.541 100.282 190.106 99.0041 191.577 97.5526C191.878 97.2402 192.179 96.9279 192.49 96.6061C194.786 94.3125 194.786 94.3125 197.318 94.3125C197.536 93.82 197.536 93.82 197.758 93.3175C198.5 91.9569 199.319 91.0344 200.417 89.9453C200.76 89.5996 201.103 89.2538 201.456 88.8976C202.389 88.114 202.389 88.114 203.516 88.114C203.516 87.7421 203.516 87.3701 203.516 86.987C203.888 86.987 204.26 86.987 204.643 86.987C204.643 86.6151 204.643 86.2431 204.643 85.86C205.573 85.86 206.503 85.86 207.461 85.86C207.461 85.3021 207.461 84.7442 207.461 84.1695C207.833 84.1695 208.205 84.1695 208.588 84.1695C208.588 83.7976 208.588 83.4257 208.588 83.0425C208.96 83.0425 209.332 83.0425 209.715 83.0425C209.715 82.6706 209.715 82.2987 209.715 81.9155C210.087 81.9155 210.459 81.9155 210.842 81.9155C210.842 81.5436 210.842 81.1717 210.842 80.7885C211.214 80.7885 211.586 80.7885 211.969 80.7885C212.12 80.4282 212.271 80.0679 212.427 79.6967C213.096 78.5345 213.096 78.5345 214.786 77.971C214.786 77.5991 214.786 77.2272 214.786 76.844C215.53 76.844 216.274 76.844 217.04 76.844C217.04 76.4721 217.04 76.1002 217.04 75.717C217.412 75.717 217.784 75.717 218.167 75.717C218.167 75.3451 218.167 74.9732 218.167 74.59C218.539 74.59 218.911 74.59 219.294 74.59C219.294 74.2181 219.294 73.8462 219.294 73.463C220.069 72.5473 220.069 72.5473 220.985 71.7725C221.357 71.7725 221.729 71.7725 222.112 71.7725C222.112 71.4006 222.112 71.0287 222.112 70.6455C222.484 70.6455 222.856 70.6455 223.239 70.6455C223.239 70.2736 223.239 69.9017 223.239 69.5185C223.983 69.5185 224.726 69.5185 225.493 69.5185C225.493 69.1466 225.493 68.7747 225.493 68.3915C226.27 67.7227 227.05 67.0554 227.859 66.4258C229.221 65.2823 230.443 64.0233 231.691 62.7565C237.326 57.1215 237.326 57.1215 238.788 55.6885C240.335 54.1086 241.687 52.4218 243.049 50.6831C244.088 49.796 244.088 49.796 245.62 49.6661C246.044 49.709 246.469 49.7519 246.906 49.796C247.278 48.8662 247.65 47.9365 248.033 46.9785Z" fill="white"/>
<path fill-rule="evenodd" clip-rule="evenodd" d="M276.52 12.0591C271.706 9.77386 266.938 7.41853 262.191 4.99778C261.372 4.578 260.534 4.10935 259.68 3.63189C255.434 1.25707 250.798 -1.33562 246.225 0.78474C243.528 2.18415 240.816 3.54455 238.071 4.84727C232.218 7.61904 226.393 10.4408 220.602 13.3407L219.541 13.8729C216.64 15.3266 213.741 16.7828 210.842 18.24C208.3 19.5174 205.759 20.7943 203.216 22.069L202.143 22.6071C197.782 24.7928 193.414 26.9593 189.009 29.0555C183.928 31.465 178.873 33.9197 173.845 36.4377L172.77 36.9764C169.87 38.43 166.97 39.8863 164.071 41.3435C161.53 42.6209 158.989 43.8978 156.446 45.1725L155.372 45.7106C151.011 47.8963 146.643 50.0628 142.239 52.1589C137.158 54.5684 132.103 57.0232 127.075 59.5412L126 60.0798C123.099 61.5335 120.2 62.9898 117.301 64.447C114.759 65.7245 112.218 67.0015 109.675 68.2764L108.602 68.8141C103.661 71.2903 98.7052 73.7305 93.7131 76.1021C88.178 78.7298 82.6842 81.4342 77.2043 84.1749C75.4831 85.0373 73.7618 85.8995 72.0392 86.7592C69.2191 88.1664 66.402 89.5787 63.5912 91.0043C61.9957 91.8139 60.3984 92.6166 58.79 93.4001C57.7675 93.8962 56.7472 94.3969 55.7296 94.9028L54.3033 95.6133L52.9549 96.249L51.7175 96.8755L50.6432 97.3986C48.5656 99.2516 48.5656 99.2516 47.0837 105.811L46.7875 107.177C46.4372 108.744 46.0882 110.311 45.7438 111.879C45.4903 113.035 45.2353 114.19 44.979 115.344C44.4188 117.861 43.8596 120.378 43.3035 122.895C42.3894 127.04 41.4728 131.184 40.5529 135.328L39.3446 140.77L39.0983 141.88C38.509 144.535 37.9202 147.19 37.3321 149.845C34.8487 161.058 32.3546 172.269 29.8515 183.478L29.3024 185.937L29.0268 187.171L27.9199 192.128L27.3642 194.617C24.9336 205.501 22.5086 216.387 20.0846 227.273L18.6772 233.594L18.395 234.861C16.8536 241.783 15.3098 248.704 13.7642 255.624C12.1369 262.911 10.5118 270.199 8.89052 277.488C7.90387 281.923 6.91619 286.359 5.9238 290.794C5.24804 293.813 4.57461 296.833 3.90375 299.854C3.59386 301.251 3.28362 302.648 2.97302 304.045L2.96625 304.076C2.53218 306.008 2.09811 307.941 1.66994 309.875L1.28168 311.633C0.842382 313.569 0.408672 315.498 0.0929236 317.458C-0.245865 321.855 -0.245866 321.855 10.9623 336.197C12.6515 338.356 14.3366 340.519 16.0192 342.683C16.6737 343.526 17.3284 344.368 17.9832 345.21L18.9702 346.478L101.805 452.98L103.777 455.516L104.112 455.947C105.656 457.931 107.199 459.916 108.744 461.9L110.794 464.534L111.807 465.835C113.82 468.42 115.828 471.009 117.819 473.611C120.028 476.498 122.274 479.347 124.556 482.176C126.028 483.997 127.494 485.819 128.894 487.697L129.781 488.909C130.365 489.705 130.948 490.501 131.529 491.298C132.286 492.364 133.046 493.412 133.864 494.431L134.769 495.524C135.177 496.035 135.386 496.296 135.605 496.549C135.835 496.814 136.076 497.07 136.57 497.594C139.463 500.058 139.463 500.058 146.897 499.977H146.898C147.783 499.967 148.669 499.964 149.555 499.967C152.005 499.986 154.454 499.99 156.904 499.977C159.58 499.961 162.255 499.963 164.931 499.971C170.175 499.988 175.419 499.987 180.663 499.972C186.823 499.954 192.983 499.951 199.143 499.954C210.113 499.96 221.083 499.95 232.053 499.925C242.74 499.901 253.425 499.887 264.112 499.896C275.79 499.906 287.469 499.91 299.148 499.896L302.883 499.892L304.74 499.889C309.048 499.884 313.356 499.882 317.664 499.885C322.965 499.89 328.266 499.888 333.566 499.871L334.503 499.868C336.897 499.859 339.29 499.85 341.684 499.853C344.192 499.86 346.701 499.863 349.209 499.85C350.123 499.843 351.036 499.838 351.949 499.834C352.573 499.838 353.215 499.861 353.867 499.885C357.038 500 360.429 500.122 362.911 498.105L364.113 496.651L365.096 495.561L365.892 494.514L366.814 493.313C367.476 492.436 368.141 491.561 368.809 490.689L369.872 489.301C371.559 487.087 373.259 484.884 374.971 482.688C375.625 481.849 376.279 481.01 376.932 480.17L377.919 478.901L476.532 352.113L478.504 349.578L478.977 348.97C480.472 347.047 481.967 345.125 483.462 343.202L484.48 341.891L486.499 339.294C488.353 336.905 490.21 334.518 492.092 332.151L492.296 331.894C494.443 329.193 496.593 326.489 498.614 323.692C500.218 321.182 500.301 319.303 499.693 316.382L499.425 315.201L499.119 313.842C498.898 312.866 498.679 311.891 498.462 310.915L498.119 309.368L497.753 307.718L496.936 304.039L496.486 302.014C492.925 285.978 489.363 269.941 485.8 253.906L484.231 246.842L483.916 245.422C482.456 238.85 480.996 232.277 479.536 225.704L476.785 213.315L476.481 211.947C474.19 201.634 471.899 191.32 469.604 181.008L469.312 179.692C468.358 175.407 467.404 171.122 466.45 166.837C464.576 158.419 462.703 150.001 460.839 141.581C459.73 136.566 458.619 131.553 457.503 126.54C456.776 123.274 456.049 120.008 455.33 116.74C454.898 114.776 454.464 112.813 454.025 110.85C453.826 109.963 453.628 109.075 453.43 108.186L453.416 108.123C453.157 106.933 452.898 105.743 452.63 104.555L452.386 103.475C451.764 100.665 451.149 98.6004 448.665 96.972L447.4 96.3462L445.954 95.621L444.386 94.8561C442.684 94.0094 440.981 93.1644 439.275 92.3266C438.117 91.758 436.96 91.1872 435.804 90.614C430.268 87.8625 424.718 85.1409 419.134 82.4864C411.058 78.6489 403.066 74.649 395.076 70.6336C392.169 69.1723 389.262 67.7112 386.354 66.2529L385.28 65.7148C380.407 63.2724 375.519 60.866 370.594 58.5302C366.03 56.3662 361.498 54.1456 356.982 51.8843L355.908 51.3456C353.373 50.0754 350.839 48.8033 348.306 47.5301C345.399 46.0689 342.492 44.6077 339.583 43.1495L338.509 42.6114C333.636 40.1689 328.749 37.7625 323.823 35.4267C319.26 33.2628 314.727 31.0421 310.212 28.7808L309.137 28.2421C306.602 26.9719 304.069 25.6999 301.536 24.4267C298.628 22.965 295.72 21.5034 292.81 20.0448L291.739 19.5079C286.689 16.9765 281.622 14.485 276.52 12.0591ZM244.485 15.0715L245.999 14.3116C249.142 12.7113 251.17 12.8851 254.322 14.4701L255.424 15.0461C256.651 15.6679 257.877 16.2908 259.1 16.9208C260.722 17.7582 262.348 18.5881 263.975 19.4166L265.215 20.0472C268.481 21.7124 271.765 23.3297 275.076 24.9039C280.23 27.3494 285.361 29.8368 290.462 32.3919L291.493 32.9086C293.935 34.1329 296.377 35.3589 298.818 36.5861C301.618 37.9938 304.418 39.4015 307.22 40.8061L308.257 41.3259C312.474 43.4401 316.7 45.535 320.961 47.5599C326.458 50.1636 331.917 52.834 337.355 55.5567L338.615 56.1882C341.61 57.6883 344.603 59.1903 347.596 60.6934C351.039 62.4223 354.481 64.151 357.925 65.8769L359.183 66.5072C364.779 69.3138 370.389 72.0787 376.053 74.7484C378.802 76.0243 381.474 77.2951 384.034 78.9251C385.468 79.879 386.826 80.5598 388.45 81.1406L388.597 81.1925C390.858 81.9869 392.868 82.6928 394.155 84.8386L394.542 85.8599H396.796V86.9869C397.972 86.8795 398.541 86.8275 399.045 86.9851C399.519 87.1333 399.934 87.4668 400.741 88.1139V89.2409H402.995V90.9314C404.17 90.824 404.74 90.772 405.243 90.9296C405.717 91.0778 406.133 91.4113 406.939 92.0584V93.1854H409.193V94.3124H412.011V95.4394H414.265V97.1299H415.392V98.2569H418.209V99.3839H420.463L421.59 102.201C423.751 102.201 424.76 102.428 426.662 103.328C427.223 103.889 427.505 104.171 427.828 104.391C428.155 104.612 428.525 104.771 429.268 105.089L430.606 105.582V106.709H432.86V107.836L434.199 107.977C435.004 108.116 435.395 108.183 435.674 108.396C435.936 108.596 436.1 108.925 436.418 109.562L436.805 110.654H439.059V111.781L441.876 112.344C442.42 114.897 442.966 117.449 443.514 120.001L443.813 121.396C444.986 126.867 446.171 132.334 447.455 137.78L447.813 139.293L448.009 140.124C448.516 142.278 449.023 144.432 449.545 146.583C449.766 147.493 449.985 148.403 450.201 149.314L450.505 150.601C451.324 153.893 451.546 156.842 451.456 160.242H449.202V161.369H446.384V162.496H445.257V163.623H443.003V165.313L439.059 166.44V167.567C437.795 167.895 436.535 168.186 435.255 168.448L433.987 168.694V169.821H431.733L431.311 171.195C431.014 172.028 430.881 172.4 430.621 172.628C430.41 172.812 430.117 172.901 429.585 173.061L428.352 173.202L426.803 173.519L425.535 173.766V174.893L424.478 175.034C423.898 175.239 423.599 175.344 423.364 175.531C423.115 175.729 422.939 176.02 422.577 176.619L422.154 177.71H419.336V178.837H416.519V179.964H415.392V181.091H413.138V182.218C411.874 182.546 410.614 182.837 409.334 183.099L408.066 183.345V185.036L404.122 186.163V187.29H401.868V188.417H399.614V190.107H398.487V191.234H395.669V192.361C395.18 192.459 394.917 192.512 394.657 192.575C394.356 192.648 394.058 192.736 393.415 192.925C392.884 193.556 392.622 193.867 392.29 194.051C391.967 194.23 391.577 194.288 390.809 194.404L389.471 194.615V196.306L385.526 197.433V198.56H383.272V199.687C382.523 199.881 381.771 200.067 381.018 200.25C380.258 200.323 379.889 200.358 379.527 200.432C379.186 200.503 378.851 200.608 378.201 200.814L377.461 202.258L377.074 203.631H374.82V204.758L370.875 205.885V207.012H368.621V208.703L364.677 209.83V210.957C363.413 211.284 362.153 211.576 360.873 211.837L359.605 212.084V213.774H357.352V214.901H355.098V216.028H352.28V217.155H349.463C348.959 219.209 348.822 221.18 348.793 223.291L348.783 224.586C348.766 226.035 348.749 227.484 348.735 228.932C348.725 229.966 348.715 231.001 348.703 232.035C348.672 234.746 348.643 237.457 348.616 240.168C348.588 242.977 348.558 245.786 348.527 248.595C348.46 254.644 348.396 260.694 348.336 266.743H349.463V267.87H352.28V266.743C352.82 266.446 353.105 266.288 353.409 266.179C353.75 266.056 354.113 265.994 354.886 265.863L356.225 265.616V264.489H358.479V263.362H361.296V261.672H363.55V260.545H364.677V259.418H367.495V258.291H368.621V257.164H370.875V255.473C371.365 255.375 371.628 255.323 371.888 255.26C372.189 255.186 372.487 255.099 373.129 254.91C373.661 254.279 373.923 253.967 374.255 253.784C374.578 253.605 374.968 253.546 375.736 253.431L377.074 253.219V252.092H379.891V250.965H382.145V249.275H383.272V248.148H385.526V247.021H388.344L388.767 245.647C389.064 244.814 389.197 244.442 389.457 244.214C389.667 244.03 389.961 243.941 390.492 243.781L391.725 243.64L393.275 243.323L394.542 243.076V241.949H395.669V240.822H397.923V239.695H400.741V238.005C402.29 237.367 403.838 236.783 405.425 236.244L406.939 235.751V234.624C408.203 234.296 409.464 234.005 410.743 233.743L412.011 233.497V231.806H413.138V230.679C413.29 230.62 413.442 230.561 413.594 230.501C414.939 229.976 416.278 229.453 417.646 228.989C418.564 228.869 418.962 228.817 419.352 228.731C419.65 228.664 419.944 228.578 420.463 228.425L421.062 227.017L421.59 225.608L422.612 225.185L423.844 225.044L425.394 224.727L426.662 224.481V223.354C427.201 223.056 427.487 222.899 427.79 222.79C428.132 222.667 428.495 222.605 429.268 222.473L430.606 222.227V221.1H432.86L433.424 219.409C434.885 218.354 436.073 217.76 437.826 217.331L439.059 217.155V216.028C439.598 215.731 439.884 215.573 440.187 215.464C440.529 215.341 440.892 215.279 441.665 215.148L443.003 214.901V213.211H445.257V212.084C446.088 211.42 446.487 211.101 446.943 210.958C447.366 210.826 447.836 210.847 448.744 210.886L450.329 210.957V209.83H453.146L453.71 207.576L456.527 207.012V205.885H458.781V204.758H459.908V203.631H462.162C462.883 206.454 463.555 209.282 464.176 212.128L464.489 213.578C464.714 214.619 464.939 215.66 465.164 216.701C465.512 218.321 465.861 219.941 466.214 221.56C466.445 222.624 466.676 223.689 466.905 224.755L467.236 226.292C468.008 229.819 468.577 233.282 468.924 236.878C468.198 237.201 467.804 237.376 467.418 237.565C466.962 237.789 466.516 238.034 465.543 238.568C464.983 239.322 464.421 240.074 463.853 240.822H461.599V241.949H458.781V243.076H456.527V244.203H455.4V245.894C454.137 246.221 452.876 246.513 451.597 246.774L450.329 247.021V248.148C449.789 248.445 449.504 248.603 449.2 248.712C448.859 248.835 448.496 248.897 447.723 249.028L446.384 249.275V250.402H444.13L443.708 251.775C443.411 252.608 443.278 252.981 443.018 253.208C442.807 253.392 442.514 253.481 441.982 253.642L440.749 253.783L439.2 254.1L437.932 254.346V255.473C437.392 255.771 437.107 255.928 436.803 256.037C436.462 256.16 436.099 256.222 435.326 256.354L433.987 256.6V258.291H431.733V259.418H428.916V260.545H427.789V261.672H425.535V262.799C425.083 262.861 424.831 262.896 424.584 262.952C424.272 263.022 423.968 263.126 423.281 263.362C422.729 264.122 422.165 264.874 421.59 265.616H419.336V266.743H416.519V267.87H414.265V268.997H413.138V270.688H410.884V271.815H408.066V272.942C407.577 273.04 407.314 273.092 407.054 273.155C406.753 273.229 406.455 273.316 405.812 273.505C405.281 274.136 405.019 274.447 404.687 274.631C404.364 274.81 403.974 274.869 403.206 274.984L401.868 275.196V276.886H399.614V278.013L395.669 279.14V280.267C394.92 280.462 394.168 280.648 393.415 280.831C392.655 280.903 392.285 280.938 391.924 281.013C391.583 281.083 391.248 281.189 390.598 281.394L390.034 282.768C389.819 283.558 389.713 283.944 389.474 284.209C389.244 284.462 388.892 284.604 388.203 284.881L386.653 285.339L384.787 285.973L383.272 286.466V287.593H381.018V289.283H378.201V290.41H375.947V291.537C375.407 291.835 375.122 291.992 374.818 292.101C374.477 292.224 374.114 292.286 373.341 292.418L372.003 292.664V293.791H369.749L369.326 295.165C369.029 295.998 368.896 296.37 368.636 296.598C368.425 296.782 368.132 296.871 367.6 297.031L366.367 297.172L364.818 297.489L363.55 297.736V298.863C363.01 299.16 362.725 299.318 362.422 299.427C362.08 299.55 361.717 299.612 360.944 299.743L359.605 299.99V301.68H357.352V302.807H354.534V303.934H353.407V305.061H351.153V306.752L346.082 307.315L344.955 310.133H342.137V311.823H339.883V312.95H337.629V314.077H336.502V315.204H333.685V316.331C333.195 316.429 332.932 316.482 332.672 316.545C332.371 316.618 332.073 316.706 331.431 316.895C330.899 317.526 330.637 317.837 330.305 318.021C329.982 318.2 329.592 318.258 328.824 318.374L327.486 318.585V320.276H324.669V321.403H323.542V322.53H321.288V323.657H319.034V325.347L315.089 326.474V327.601H312.835V328.728H310.018V329.855H308.891V330.982H306.637V332.673H303.819V333.8H301.565V334.927C301.026 335.224 300.74 335.382 300.437 335.491C300.095 335.614 299.732 335.676 298.959 335.807L297.621 336.054V337.181H295.367L294.24 339.998H291.422V341.125H289.168V342.252C288.629 342.549 288.343 342.707 288.04 342.816C287.698 342.939 287.335 343.001 286.562 343.133L285.224 343.379V345.07C284.734 345.168 284.471 345.22 284.211 345.283C283.91 345.357 283.612 345.444 282.97 345.633C282.438 346.264 282.176 346.575 281.844 346.759C281.521 346.938 281.132 346.997 280.363 347.112L279.025 347.324V348.451H276.771V349.578C276.319 349.64 276.068 349.675 275.82 349.731C275.509 349.801 275.205 349.905 274.517 350.141C273.965 350.901 273.402 351.652 272.827 352.395H270.573V353.522H267.755V355.213C267.269 355.294 267.007 355.337 266.748 355.399C266.445 355.471 266.148 355.567 265.501 355.776L264.374 357.467L262.895 357.572L261.557 357.467V358.594H259.303V359.721C257.639 360.611 256.142 361.358 254.302 361.799L253.104 361.975V363.665H250.287V364.792H249.16V365.919H248.033V367.046H245.779V368.737H242.961V369.864H240.707V370.991C240.168 371.288 239.882 371.445 239.579 371.555C239.237 371.678 238.874 371.74 238.101 371.871L236.763 372.118V373.245H234.509L234.086 374.618C233.789 375.451 233.656 375.824 233.396 376.051C233.186 376.235 232.892 376.324 232.36 376.485L231.128 376.626L229.578 376.943L228.31 377.189V378.316H227.183V380.007C226.962 380.091 226.742 380.175 226.522 380.259C224.266 381.117 222.044 381.963 219.963 383.211C219.372 383.606 219.064 383.811 218.729 383.952C218.366 384.104 217.97 384.18 217.146 384.339L215.913 384.515V385.642C215.424 385.74 215.161 385.792 214.901 385.855C214.6 385.929 214.302 386.016 213.659 386.205C213.128 386.836 212.866 387.147 212.534 387.331C212.211 387.51 211.821 387.569 211.053 387.684L209.715 387.896V389.586H206.897L206.334 391.277L203.516 391.84V393.531H201.262V394.658H200.135V395.785H197.318V396.912C196.866 396.974 196.614 397.009 196.367 397.065C196.055 397.135 195.751 397.239 195.064 397.475C194.511 398.235 193.948 398.986 193.373 399.729H191.119V400.856H188.302V401.983H187.175V403.11H184.921V404.237C184.469 404.299 184.217 404.334 183.97 404.39C183.658 404.461 183.354 404.565 182.667 404.801C182.114 405.56 181.551 406.312 180.976 407.055H178.722V408.182H175.905V409.309H173.651V410.436H172.524V412.126H170.27V413.253H167.452V414.38C166.963 414.478 166.7 414.531 166.44 414.594C166.139 414.667 165.841 414.755 165.198 414.944C164.667 415.575 164.405 415.886 164.073 416.07C163.75 416.249 163.36 416.307 162.592 416.423L161.254 416.634V418.325H158.436V419.452H157.309V420.579H155.055V421.706C154.566 421.803 154.303 421.856 154.043 421.919C153.742 421.992 153.444 422.08 152.801 422.269C152.27 422.9 152.008 423.211 151.676 423.395C151.353 423.574 150.963 423.633 150.195 423.748L148.857 423.96V425.65H146.603V426.777L142.658 427.904V429.031H140.404V430.722H139.277V431.849H136.46V432.976C135.97 433.073 135.707 433.126 135.447 433.189C135.146 433.262 134.848 433.35 134.206 433.539L133.079 434.666C132.384 434.753 132.032 434.797 131.685 434.866C131.328 434.936 130.976 435.033 130.261 435.23L129.522 436.673L129.134 438.047H126.317V439.174H124.063V440.301H122.936V441.428C121.672 441.756 120.411 442.047 119.132 442.309L117.864 442.555V444.246H115.047V445.373H113.92V446.5H112.229L111.109 445.254C110.43 444.329 109.75 443.405 109.065 442.485L108.283 441.439C106.809 439.453 105.302 437.496 103.781 435.546C103.113 434.691 102.446 433.836 101.78 432.98L100.757 431.666C99.0843 429.518 97.4126 427.369 95.7414 425.221L94.858 424.084C93.1704 421.914 91.4827 419.744 89.7939 417.575C88.1203 415.426 86.4473 413.276 84.7763 411.125C83.87 409.957 82.9632 408.791 82.0535 407.627C81.5114 406.933 80.97 406.239 80.4296 405.544L79.6872 404.589C78.3173 402.834 77.0734 401.204 76.1653 399.166L79.5463 398.039V396.912H81.8003V395.785H84.6178V394.658H86.8718L87.2944 393.284C87.5916 392.451 87.7245 392.079 87.9845 391.851C88.195 391.667 88.4887 391.578 89.0202 391.417L90.2528 391.277L91.8024 390.96L93.0703 390.713V389.586C93.6099 389.289 93.8956 389.131 94.1988 389.022C94.5402 388.899 94.9037 388.837 95.6765 388.706L97.0148 388.459V386.769H99.2688V385.642H100.396V384.515H102.65V383.388H105.467V382.261H108.285V381.134H109.412V379.443H111.666V378.316H113.92V377.189H116.737L117.16 375.816C117.457 374.983 117.59 374.61 117.85 374.383C118.06 374.199 118.354 374.11 118.886 373.949L120.118 373.808L121.668 373.491L122.936 373.245V372.118H124.063V370.991H126.317V369.864H129.134L130.261 367.046H132.515V365.919H135.333V364.792H137.587L137.974 363.7C138.292 363.063 138.456 362.735 138.718 362.535C138.997 362.322 139.387 362.254 140.193 362.115L141.531 361.975V360.848L143.609 360.038C144.412 359.725 145.223 359.432 146.039 359.157L148.857 358.594V312.387H149.984V306.188H147.73L147.166 307.879C145.705 308.934 144.518 309.528 142.764 309.957L141.531 310.133V311.26C140.992 311.557 140.706 311.715 140.403 311.824C140.061 311.947 139.698 312.009 138.925 312.14L137.587 312.387V314.077H136.46V315.204C135.97 315.302 135.707 315.355 135.447 315.418C135.146 315.491 134.848 315.579 134.206 315.768C133.674 316.399 133.413 316.71 133.08 316.894C132.757 317.073 132.368 317.131 131.6 317.247L130.261 317.458V319.149H128.007V320.276H125.19V321.403H122.936V322.53C122.396 322.827 122.11 322.985 121.807 323.094C121.466 323.217 121.102 323.279 120.33 323.41L118.991 323.657V325.347H116.737V326.474H113.92V327.601H112.793V328.728H110.539V329.855C110.087 329.917 109.835 329.952 109.588 330.008C109.276 330.079 108.972 330.183 108.285 330.419C107.732 331.178 107.169 331.93 106.594 332.673H104.34V333.8H101.523V334.927H99.2688V336.054H98.1418V337.744H95.8878V338.871H93.0703V339.998C92.5807 340.096 92.318 340.149 92.0579 340.212C91.7566 340.285 91.4589 340.373 90.8163 340.562C90.285 341.193 90.0231 341.504 89.6908 341.688C89.3678 341.867 88.9783 341.925 88.2101 342.041L86.8718 342.252V343.943H84.6178V345.07H83.4908V346.197H80.6733V347.324C80.1837 347.422 79.921 347.474 79.6609 347.537C79.3597 347.611 79.0619 347.698 78.4193 347.887C77.888 348.518 77.6261 348.829 77.2938 349.013C76.9708 349.192 76.5813 349.251 75.8131 349.366L74.4748 349.578V351.268H72.2208V352.395H69.4033V353.522H67.1493V354.649C66.6098 354.947 66.324 355.104 66.0208 355.213C65.6794 355.336 65.316 355.398 64.5432 355.53L63.2048 355.776V357.467C62.7153 357.565 62.4525 357.617 62.1924 357.68C61.8912 357.754 61.5934 357.841 60.9509 358.03C60.4195 358.661 60.1576 358.972 59.8254 359.156C59.5024 359.335 59.1128 359.394 58.3447 359.509L57.0064 359.721V361.411H54.7524V362.538C54.1247 362.621 53.7914 362.665 53.4618 362.728C53.0887 362.799 52.7203 362.896 51.9349 363.102L50.8079 364.792H48.5539L47.5017 363.67C46.9144 362.826 46.3264 361.984 45.7298 361.147L45.0364 360.183C43.5987 358.169 42.0899 356.217 40.565 354.268C38.1221 351.153 35.6852 348.033 33.291 344.88L32.635 344.013C31.3726 342.347 30.2627 340.775 29.3949 338.871H31.0854C31.2763 338.19 31.3752 337.837 31.5082 337.497C31.6512 337.131 31.8336 336.781 32.2124 336.054L33.3394 335.666L34.4664 335.49C35.5142 334.245 35.5142 334.245 37.0726 334.011L38.4109 333.8V332.673H41.2284V330.982H43.4824V329.855H44.6094V328.728H46.8634V327.601H49.6809V325.911C50.1704 325.813 50.4332 325.76 50.6933 325.697C50.9945 325.624 51.2923 325.536 51.9349 325.347C52.4662 324.716 52.7281 324.405 53.0604 324.221C53.3834 324.042 53.7729 323.984 54.541 323.868L55.8794 323.657V322.53H58.1334V321.403H60.9509L62.0779 319.149H64.8953V317.458H67.1493V316.331H69.4033V315.204H70.5303V314.077H73.3478V312.95H75.6018V311.26L79.5463 310.133V309.006H81.8003V307.879H84.6178V306.188H86.8718V305.061H87.9988V303.934H90.8163V302.807H93.0703L93.4929 301.434C93.7901 300.601 93.923 300.228 94.183 300.001C94.3935 299.817 94.6872 299.728 95.2187 299.567L96.4513 299.426L98.0009 299.109L99.2688 298.863V297.736H101.523V296.609H102.65V295.482H105.467V294.355H108.285L108.848 292.101L111.666 291.537V290.41H114.483V289.283H116.737V288.156H118.991L120.118 285.339H122.936L124.063 282.521L129.134 281.958V280.831H131.952V279.14H134.206V278.013H136.46L136.882 276.64C137.18 275.807 137.312 275.434 137.572 275.207C137.783 275.023 138.077 274.934 138.608 274.773L139.841 274.632L141.39 274.315L142.658 274.069V272.942C143.805 272.309 143.805 272.309 145.264 272.061L146.603 271.815V270.688H148.857V254.346C146.718 254.346 145.685 254.063 143.785 253.219V252.092H140.968L140.404 249.275C138.265 249.275 137.232 248.992 135.333 248.148V247.021H132.515V245.33H130.261V244.203H129.134V243.076C126.995 243.076 125.962 242.793 124.063 241.949V240.822H122.936V239.695H120.118V238.568H117.864V236.878C115.725 236.878 114.692 236.595 112.793 235.751V234.624H110.539V233.497L106.594 232.37V230.679H104.34V229.552H102.086V228.425H99.2688V227.298H98.1418V226.171H95.3243V224.481H93.0703V223.354C90.6327 223.354 89.9114 223.073 87.9988 221.663C87.6411 220.903 87.2671 220.15 86.8718 219.409L85.6744 219.092C84.1157 218.727 83.3338 218.544 82.5701 218.303C81.8016 218.06 81.0514 217.759 79.5463 217.155V216.028L75.6018 214.901V213.774H73.3478V212.084H70.5303L69.4033 209.83H67.1493V208.703H64.3318V207.576H62.0779V205.885C60.8182 205.978 60.3104 206.016 59.8449 205.893C59.5305 205.81 59.2353 205.654 58.7409 205.392L57.7107 204.758L55.8794 203.631V202.504H53.6254V200.814C51.4866 200.814 50.4534 200.531 48.5539 199.687V198.56H45.7364V197.433H44.6094V196.306H42.3554V195.179H40.1014C40.1014 193.254 40.3274 191.658 40.7451 189.794L41.0325 188.547C41.3462 187.158 41.6608 185.769 41.9784 184.38C42.208 183.377 42.4366 182.374 42.6644 181.371C43.812 176.306 44.9712 171.243 46.1467 166.185L47.0862 162.145L47.7086 159.467C49.5185 151.689 51.2295 143.894 52.8858 136.082C54.6891 127.57 56.5823 119.094 58.6969 110.654H60.9509V108.963H62.0779V107.836H64.3318V106.709H67.1493L68.2763 103.892L73.3478 103.328V101.638H74.4748V100.511H76.7288V99.3839H79.5463L79.969 98.0104C80.2661 97.1775 80.399 96.8049 80.659 96.5775C80.8695 96.3935 81.1632 96.3046 81.6947 96.1438L82.9273 96.0029L84.4769 95.686L85.7448 95.4394V94.3124H87.9988V93.1854H89.1258V92.0584H91.9433V90.9314H94.1973C94.7389 89.8464 95.0131 89.2969 95.4274 88.8898C95.8525 88.4721 96.4251 88.2044 97.5851 87.6619L98.7978 87.075C100.116 86.4199 101.436 85.7665 102.758 85.1203C103.651 84.6845 104.543 84.2466 105.433 83.8062C109.615 81.7315 113.81 79.6827 118.027 77.6782C127.051 73.3901 135.986 68.934 144.912 64.447C147.453 63.1696 149.995 61.8927 152.538 60.618L153.611 60.0798C157.972 57.8942 162.34 55.7276 166.745 53.6315C171.826 51.222 176.881 48.7672 181.909 46.2493L182.984 45.7106C185.884 44.2569 188.784 42.8007 191.683 41.3435C194.224 40.066 196.766 38.789 199.309 37.5141L200.382 36.9764C205.311 34.5052 210.257 32.0731 215.24 29.7103C219.129 27.8669 222.993 25.9819 226.834 24.0401L228.632 23.1288C230.99 21.935 233.349 20.7406 235.706 19.5431C237.518 18.6171 239.33 17.6918 241.146 16.7741L242.86 15.909L244.485 15.0715ZM480.875 288.163L480.194 285.339C479.013 285.339 478.451 285.339 477.941 285.501C477.476 285.648 477.055 285.929 476.25 286.466V287.593H473.996V289.283C471.857 289.283 470.824 289.566 468.924 290.41V291.537L464.98 292.664V293.791H462.726L461.599 296.609C459.46 296.609 458.427 296.891 456.527 297.736V298.863H454.273C453.739 299.467 453.471 299.77 453.146 299.99C452.82 300.211 452.436 300.348 451.667 300.624L450.329 301.117V302.807H448.075V303.934H445.257V305.061H444.13V306.188C442.791 306.188 442.247 306.188 441.716 306.27C441.354 306.325 440.997 306.418 440.397 306.576C439.752 306.932 439.418 307.117 439.162 307.378C438.887 307.659 438.703 308.028 438.319 308.794L437.932 310.133H435.114V311.823H432.86V312.95H430.606V314.077C429.426 314.077 428.863 314.077 428.353 314.239C427.888 314.387 427.467 314.668 426.662 315.204V316.331C424.523 316.331 423.49 316.614 421.591 317.458V318.585H419.337C417.805 320.806 416.573 321.39 414.065 322.239L413.138 322.53V323.657H412.011V325.347C409.835 325.347 408.847 325.545 406.94 326.474C406.006 327.46 405.34 328.122 404.098 328.7L402.889 329.116L401.668 329.545L400.741 329.855V331.546L395.67 332.109L394.543 334.927H391.725V336.617H389.471V337.744H387.217V338.871C386.036 338.871 385.474 338.871 384.963 339.033C384.499 339.18 384.077 339.462 383.273 339.998V341.125C381.134 341.125 380.101 341.408 378.201 342.252V343.943H375.947L374.82 346.197H372.003V347.324H369.749V348.451L365.804 349.578V351.268H363.55V352.395H360.733L359.606 355.213H357.352V356.34H355.098V357.467H352.28V358.594H350.026C349.491 359.198 349.223 359.501 348.899 359.721C348.573 359.942 348.189 360.079 347.42 360.355L346.082 360.848V362.538H343.828V363.665H342.701V364.792H339.883V365.919H337.629C337.094 366.523 336.826 366.826 336.502 367.046C336.176 367.267 335.792 367.405 335.023 367.68L333.685 368.173V369.864H331.431V370.991H328.613V372.118H327.486V373.245H325.232V374.935C324.051 374.935 323.489 374.935 322.978 375.097C322.514 375.244 322.092 375.526 321.288 376.062V377.189H318.47V378.316H316.216V379.443H313.962V380.57H312.835V382.261H310.018V383.388H307.764V384.515H306.637V386.205H304.383V387.332H301.565V388.459H298.748V389.586H297.621V390.713H295.367V391.84L291.422 392.967V394.658H289.168V395.785H286.351V396.912H285.224V398.602L280.716 399.166L280.152 400.856H277.898V401.983H276.771V403.11H273.954V404.801H271.7V405.928H269.446V407.055H268.319V408.182H265.501V409.309C264.162 409.309 263.618 409.309 263.087 409.39C262.725 409.445 262.368 409.539 261.768 409.696C261.123 410.052 260.789 410.237 260.533 410.498C260.258 410.779 260.073 411.148 259.69 411.915L259.303 413.253H257.049V414.38H254.231V415.507H251.977V417.198H248.033V418.325H245.779V419.452H242.961V420.579H241.834V421.706C239.397 421.706 238.675 421.987 236.763 423.396C236.405 424.156 236.031 424.909 235.636 425.65L234.438 425.967C233.868 426.054 233.469 426.114 233.076 426.201C232.157 426.404 231.27 426.75 228.31 427.904V429.031L225.493 429.595L224.929 431.849H222.112V432.975H219.294C219.066 433.573 218.944 433.891 218.724 434.11C218.473 434.359 218.095 434.479 217.287 434.736L215.913 435.229V436.92H213.659V438.047H212.532V439.174H209.715V440.301H207.461C206.926 440.905 206.658 441.208 206.334 441.428C206.007 441.649 205.624 441.787 204.855 442.062L203.516 442.555V444.245H200.699V445.372H199.572V446.499H197.318V447.626C195.978 447.626 195.435 447.626 194.904 447.708C194.541 447.763 194.185 447.857 193.585 448.014C192.94 448.37 192.605 448.555 192.349 448.816C192.074 449.097 191.89 449.466 191.507 450.233L191.119 451.571H188.302V452.698H186.048V453.825H184.921V455.515H182.667V456.642H179.849V457.769L177.032 458.333L176.468 460.587H173.651V461.714C172.47 461.714 171.908 461.714 171.397 461.876C170.933 462.023 170.511 462.304 169.706 462.841V463.968H167.452V465.095H165.198L164.071 466.222C162.75 466.576 161.435 466.952 160.127 467.349C159.61 468.297 159.369 468.739 159.008 469.033C158.692 469.291 158.284 469.436 157.521 469.709L156.182 470.166V471.293H153.928V472.42H152.801V474.111C150.663 474.111 149.629 474.394 147.73 475.238V476.365L143.785 477.492V479.182L140.404 479.746L139.841 481.436H141.531V482.563L142.588 482.704C143.226 482.86 143.551 482.939 143.788 483.129C144.034 483.326 144.184 483.643 144.49 484.289L144.912 485.381H147.73V486.508H149.984V487.635H249.16L249.723 455.515L251.977 453.825V452.698H253.104V451.571H255.358V450.444H258.176V449.317H260.993V448.19H263.247V446.499H264.374V445.372H266.628V444.245H269.446V443.118H271.7V441.428H273.954L275.081 439.174H277.898V438.047H280.152V436.92H282.97V435.229H284.097V434.103H286.351V432.975H289.168L290.295 430.158C292.434 430.158 293.467 429.875 295.367 429.031V427.904H297.621V426.777H298.748V425.65H301.565L302.692 422.833H304.946V421.706H307.764V420.579H310.018V419.452H312.835L313.962 416.634H316.216V415.507H318.47V414.38H321.288V413.253H324.105V412.126H325.232V410.436H327.486V409.309H329.74V408.182H330.867V407.055H333.685V405.364H335.939C336.473 404.76 336.741 404.457 337.066 404.237C337.392 404.016 337.776 403.878 338.545 403.603L339.883 403.11V401.983H342.137V400.856H344.955V399.729H347.209C347.725 398.781 347.966 398.339 348.328 398.045C348.643 397.787 349.051 397.642 349.815 397.369L351.153 396.912V395.785H352.28V394.658H355.098V393.531H357.352V392.404H359.606L360.733 389.586H363.55V388.459H365.804V386.769C366.985 386.769 367.547 386.769 368.058 386.606C368.522 386.459 368.944 386.178 369.749 385.642V384.515H372.003V383.388H373.13V382.261H375.947V381.134C378.086 381.134 379.119 380.851 381.019 380.007V378.316H382.146V377.189H384.4V376.062H387.217V374.372H389.471V373.245C390.422 372.927 391.372 372.603 392.313 372.256L393.521 371.801C394.237 371.531 394.954 371.261 395.67 370.991V369.864L399.614 368.737V367.046H401.868V365.919L405.813 364.792V363.665H408.067V361.975H410.321C410.855 361.37 411.123 361.067 411.448 360.848C411.774 360.626 412.158 360.489 412.927 360.214L414.265 359.721V358.594H417.083V357.467H419.337L420.464 354.649H422.717V353.522H425.535V352.395C427.674 352.395 428.707 352.112 430.606 351.268V349.578H431.733V348.451C432.609 348.314 433.188 348.223 433.756 348.091C434.859 347.834 435.925 347.418 439.059 346.197V345.07L443.003 343.943V342.252H445.257V341.125L446.948 340.562C447.188 340.491 447.422 340.425 447.65 340.361C449.659 339.792 451.182 339.362 452.301 337.357L452.583 336.054C454.722 336.054 455.755 335.771 457.654 334.927V333.8H460.472V332.673H462.726L463.853 329.855H466.107V328.728H468.924V327.601H470.051V326.474H472.869V324.784H475.123V323.657H476.25V322.53H479.067V321.403H481.321V320.276H484.139V319.149H485.266C485.28 318.598 485.297 318.047 485.313 317.496C485.471 312.128 485.628 306.775 484.176 301.557C483.667 299.65 483.413 298.696 483.172 297.739C482.931 296.782 482.703 295.821 482.247 293.9C481.937 292.591 481.625 291.283 481.311 289.975L480.875 288.163Z" fill="white"/>
<path d="M212.532 288.156C214.02 288.156 215.508 288.156 217.04 288.156C217.04 288.528 217.04 288.9 217.04 289.283C217.97 289.283 218.9 289.283 219.858 289.283C219.858 289.655 219.858 290.027 219.858 290.41C220.602 290.41 221.345 290.41 222.112 290.41C222.922 291.15 222.922 291.15 223.802 292.101C224.279 292.356 224.755 292.612 225.246 292.876C226.869 293.957 227.2 294.771 227.747 296.609C227.375 296.609 227.003 296.609 226.62 296.609C226.434 298.654 226.248 300.7 226.056 302.807C225.498 302.807 224.94 302.807 224.366 302.807C224.366 303.551 224.366 304.295 224.366 305.061C223.994 305.061 223.622 305.061 223.239 305.061C223.239 305.991 223.239 306.921 223.239 307.879C222.867 307.879 222.495 307.879 222.112 307.879C222.112 308.623 222.112 309.366 222.112 310.133C221.225 311.117 221.225 311.117 220.034 312.07C219.621 312.411 219.209 312.753 218.784 313.104C218.394 313.425 218.005 313.746 217.604 314.077C216.065 315.544 214.682 317.019 213.377 318.691C211.916 320.335 211.174 320.712 209.151 321.403C208.605 321.798 208.059 322.193 207.496 322.6C205.584 323.771 204.586 323.866 202.389 323.657C202.389 324.215 202.389 324.772 202.389 325.347C201.088 325.347 199.786 325.347 198.445 325.347C198.445 325.719 198.445 326.091 198.445 326.474C194.726 326.474 191.007 326.474 187.175 326.474C187.175 326.102 187.175 325.73 187.175 325.347C185.501 325.347 183.828 325.347 182.103 325.347C182.103 324.789 182.103 324.231 182.103 323.657C181.359 323.657 180.616 323.657 179.849 323.657C179.849 323.285 179.849 322.913 179.849 322.53C179.408 322.448 178.966 322.367 178.511 322.283C177.032 321.966 177.032 321.966 175.905 321.403C175.905 318.613 175.905 315.824 175.905 312.95C178.88 312.95 181.855 312.95 184.921 312.95C184.921 312.392 184.921 311.834 184.921 311.26C187.338 311.26 189.756 311.26 192.246 311.26C192.246 310.888 192.246 310.516 192.246 310.133C192.99 310.133 193.734 310.133 194.5 310.133C194.5 309.761 194.5 309.389 194.5 309.006C195.43 309.006 196.36 309.006 197.318 309.006C197.318 308.634 197.318 308.262 197.318 307.879C198.248 307.879 199.177 307.879 200.135 307.879C200.193 307.542 200.251 307.205 200.311 306.857C200.754 305.449 201.245 304.85 202.389 303.934C202.761 303.934 203.133 303.934 203.516 303.934C203.679 303.586 203.842 303.237 204.009 302.878C204.643 301.68 204.643 301.68 205.77 300.553C206.328 300.553 206.886 300.553 207.461 300.553C207.461 299.623 207.461 298.694 207.461 297.736C207.833 297.736 208.205 297.736 208.588 297.736C208.588 296.992 208.588 296.248 208.588 295.482C208.96 295.482 209.332 295.482 209.715 295.482C209.715 294.552 209.715 293.622 209.715 292.664C210.087 292.664 210.459 292.664 210.842 292.664C210.842 291.92 210.842 291.177 210.842 290.41C211.4 290.41 211.957 290.41 212.532 290.41C212.532 289.666 212.532 288.923 212.532 288.156Z" fill="white"/>
<path d="M253.104 451.571C253.848 451.757 254.592 451.943 255.358 452.135C254.8 452.135 254.242 452.135 253.668 452.135C253.528 452.46 253.389 452.785 253.245 453.121C252.541 454.389 252.541 454.389 251.389 455.401C250.013 456.95 249.998 457.697 249.979 459.743C249.968 460.364 249.957 460.984 249.945 461.623C249.945 462.289 249.944 462.956 249.943 463.642C249.934 464.327 249.925 465.012 249.915 465.717C249.888 467.905 249.876 470.092 249.864 472.28C249.848 473.763 249.831 475.245 249.813 476.728C249.772 480.364 249.743 483.999 249.723 487.635C249.537 487.635 249.351 487.635 249.16 487.635C249.12 483.476 249.09 479.318 249.072 475.159C249.063 473.228 249.051 471.297 249.032 469.366C249.01 467.146 249.002 464.927 248.995 462.707C248.986 462.013 248.977 461.319 248.968 460.604C248.968 459.961 248.968 459.318 248.968 458.656C248.962 457.806 248.962 457.806 248.956 456.938C249.16 455.516 249.16 455.516 249.946 454.474C250.85 453.825 250.85 453.825 251.977 453.825C251.977 453.453 251.977 453.081 251.977 452.698C252.349 452.698 252.721 452.698 253.104 452.698C253.104 452.326 253.104 451.954 253.104 451.571Z" fill="white"/>
<path d="M222.112 310.133C221.35 311.829 220.498 313.018 219.189 314.332C218.841 314.681 218.494 315.03 218.136 315.389C217.594 315.925 217.594 315.925 217.04 316.472C216.679 316.838 216.317 317.204 215.944 317.581C215.423 318.1 215.423 318.1 214.892 318.629C214.574 318.945 214.257 319.261 213.93 319.587C213.096 320.276 213.096 320.276 211.969 320.276C212.693 318.66 213.418 317.472 214.786 316.331C215.158 316.331 215.53 316.331 215.913 316.331C216.059 316.003 216.204 315.674 216.353 315.336C217.096 313.975 217.914 313.053 219.012 311.964C219.355 311.618 219.698 311.272 220.051 310.916C220.985 310.133 220.985 310.133 222.112 310.133Z" fill="white"/>
<path d="M204.643 85.8599C205.573 85.8599 206.503 85.8599 207.461 85.8599C207.066 86.1591 206.67 86.4584 206.263 86.7667C205.074 87.7554 204.044 88.7001 202.988 89.8132C202.705 90.111 202.421 90.4088 202.13 90.7156C201.547 91.3337 200.969 91.956 200.395 92.5822C198.234 94.8317 198.234 94.8317 196.261 95.0784C195.866 95.0115 195.471 94.9447 195.064 94.8759C195.587 94.8061 195.587 94.8061 196.12 94.735C197.711 94.1737 197.71 93.5389 198.445 92.0584C199.378 90.9754 199.378 90.9754 200.417 89.9452C200.76 89.5995 201.103 89.2537 201.456 88.8975C202.389 88.1139 202.389 88.1139 203.516 88.1139C203.516 87.742 203.516 87.37 203.516 86.9869C203.888 86.9869 204.26 86.9869 204.643 86.9869C204.643 86.615 204.643 86.243 204.643 85.8599Z" fill="white"/>
<path d="M166.325 119.106C166.697 119.106 167.069 119.106 167.452 119.106C166.636 121.047 165.606 122.128 164.001 123.474C163.389 123.992 163.389 123.992 162.764 124.521C162.451 124.78 162.139 125.039 161.817 125.305C161.631 124.933 161.445 124.561 161.254 124.178C161.626 124.178 161.998 124.178 162.381 124.178C162.532 123.841 162.683 123.504 162.839 123.157C163.507 121.925 164.125 121.128 165.198 120.233C165.57 120.233 165.942 120.233 166.325 120.233C166.325 119.862 166.325 119.49 166.325 119.106Z" fill="white"/>
<path d="M194.5 448.19C194.686 448.748 194.872 449.306 195.064 449.88C192.892 451.329 190.826 452.055 188.302 452.698C188.302 452.326 188.302 451.954 188.302 451.571C189.232 451.571 190.161 451.571 191.119 451.571C191.259 451.118 191.398 450.664 191.542 450.197C192.246 448.753 192.246 448.753 193.444 448.296C193.792 448.261 194.141 448.226 194.5 448.19Z" fill="white"/>
<path d="M397.924 331.546C398.109 332.104 398.295 332.661 398.487 333.236C396.315 334.684 394.249 335.41 391.725 336.054C391.725 335.682 391.725 335.31 391.725 334.927C392.655 334.927 393.585 334.927 394.543 334.927C394.682 334.473 394.821 334.02 394.965 333.553C395.67 332.109 395.67 332.109 396.867 331.651C397.216 331.616 397.564 331.582 397.924 331.546Z" fill="white"/>
<path d="M441.313 306.752C441.499 307.31 441.685 307.867 441.876 308.442C439.704 309.89 437.639 310.616 435.115 311.26C435.115 310.888 435.115 310.516 435.115 310.133C436.044 310.133 436.974 310.133 437.932 310.133C438.071 309.679 438.211 309.226 438.355 308.759C439.059 307.315 439.059 307.315 440.256 306.857C440.605 306.822 440.954 306.788 441.313 306.752Z" fill="white"/>
<path d="M214.786 76.844C215.53 77.0299 216.274 77.2159 217.04 77.4075C215.181 78.8951 213.321 80.3828 211.405 81.9155C211.219 81.5436 211.033 81.1717 210.842 80.7885C211.214 80.7885 211.586 80.7885 211.969 80.7885C212.12 80.4282 212.271 80.0679 212.427 79.6967C213.096 78.5345 213.096 78.5345 214.786 77.971C214.786 77.5991 214.786 77.2272 214.786 76.844Z" fill="white"/>
<path d="M250.287 303.934C250.473 303.934 250.659 303.934 250.85 303.934C251.04 306.021 251.119 306.974 249.794 308.653C248.596 309.569 248.596 309.569 247.469 309.569C247.283 310.127 247.097 310.685 246.906 311.26C246.906 310.516 246.906 309.772 246.906 309.006C247.278 309.006 247.65 309.006 248.033 309.006C248.891 307.35 249.611 305.671 250.287 303.934Z" fill="white"/>
<path d="M253.104 451.571C253.848 451.757 254.592 451.943 255.358 452.135C254.8 452.135 254.242 452.135 253.668 452.135C253.54 452.46 253.412 452.785 253.28 453.121C252.355 454.708 251.191 455.561 249.723 456.643C249.899 455.551 249.899 455.551 250.287 454.389C250.845 454.203 251.402 454.017 251.977 453.825C251.977 453.453 251.977 453.081 251.977 452.698C252.349 452.698 252.721 452.698 253.104 452.698C253.104 452.326 253.104 451.954 253.104 451.571Z" fill="white"/>
<path d="M165.198 465.095C166.396 465.306 166.396 465.306 167.452 465.658C166.205 466.906 165.238 467.837 163.444 468.062C162.337 468.054 161.231 467.987 160.127 467.912C160.127 467.727 160.127 467.541 160.127 467.349C160.754 467.186 161.382 467.024 162.029 466.856C164.073 466.395 164.073 466.395 165.198 465.095Z" fill="white"/>
<path d="M143.785 309.569C143.971 309.941 144.157 310.313 144.349 310.696C142.177 312.144 140.111 312.87 137.587 313.514C137.587 313.142 137.587 312.77 137.587 312.387C138.889 312.015 140.19 311.643 141.531 311.26C141.531 310.888 141.531 310.516 141.531 310.133C142.275 309.947 143.019 309.761 143.785 309.569Z" fill="white"/>
<path d="M365.804 297.172C365.99 297.544 366.176 297.916 366.368 298.299C364.195 299.747 362.13 300.473 359.606 301.117C359.606 300.745 359.606 300.373 359.606 299.99C360.907 299.618 362.209 299.246 363.55 298.863C363.55 298.491 363.55 298.119 363.55 297.736C364.294 297.55 365.038 297.364 365.804 297.172Z" fill="white"/>
<path d="M245.215 311.823C245.401 312.381 245.587 312.939 245.779 313.514C245.116 313.897 245.116 313.897 244.44 314.289C242.94 315.139 242.94 315.139 241.834 316.331C241.94 315.028 241.94 315.028 242.398 313.514C243.842 312.492 243.842 312.492 245.215 311.823Z" fill="white"/>
<path d="M207.461 440.301C208.693 440.477 208.693 440.477 209.715 440.865C208.097 442.388 207.286 443.089 205.031 443.259C204.531 443.213 204.031 443.166 203.516 443.119C203.853 442.967 204.19 442.816 204.538 442.661C205.801 442.065 205.801 442.065 206.615 441.041C207.034 440.675 207.034 440.675 207.461 440.301Z" fill="white"/>
<path d="M295.367 429.594C293.548 430.807 292.953 430.835 290.859 430.721C290.673 431.279 290.487 431.837 290.295 432.412C289.923 432.226 289.551 432.04 289.168 431.848C290.778 429.434 292.565 428.557 295.367 429.594Z" fill="white"/>
<path d="M152.801 421.706C154.034 421.882 154.034 421.882 155.055 422.269C153.437 423.792 152.627 424.494 150.371 424.664C149.871 424.617 149.372 424.571 148.857 424.523C149.194 424.372 149.531 424.221 149.878 424.065C151.142 423.47 151.142 423.47 151.956 422.445C152.374 422.079 152.374 422.079 152.801 421.706Z" fill="white"/>
<path d="M337.629 403.11C338.862 403.286 338.862 403.286 339.883 403.674C338.265 405.197 337.454 405.898 335.199 406.068C334.699 406.022 334.199 405.976 333.685 405.928C334.022 405.777 334.359 405.625 334.706 405.47C335.97 404.874 335.97 404.874 336.784 403.85C337.202 403.484 337.202 403.484 337.629 403.11Z" fill="white"/>
<path d="M213.659 385.642C214.892 385.818 214.892 385.818 215.913 386.205C214.295 387.728 213.485 388.43 211.229 388.6C210.729 388.553 210.23 388.507 209.715 388.459C210.052 388.308 210.389 388.157 210.736 388.001C212 387.406 212 387.406 212.814 386.381C213.232 386.015 213.232 386.015 213.659 385.642Z" fill="white"/>
<path d="M369.749 384.515C370.492 384.701 371.236 384.887 372.003 385.078C369.969 386.933 368.55 387.64 365.804 387.896C365.804 387.524 365.804 387.152 365.804 386.769C367.106 386.397 368.407 386.025 369.749 385.642C369.749 385.27 369.749 384.898 369.749 384.515Z" fill="white"/>
<path d="M337.629 365.919C338.862 366.095 338.862 366.095 339.883 366.482C338.265 368.005 337.454 368.707 335.199 368.877C334.699 368.831 334.199 368.784 333.685 368.736C334.022 368.585 334.359 368.434 334.706 368.279C335.97 367.683 335.97 367.683 336.784 366.659C337.202 366.292 337.202 366.292 337.629 365.919Z" fill="white"/>
<path d="M412.011 359.721C413.244 359.897 413.244 359.897 414.265 360.284C412.647 361.807 411.836 362.509 409.581 362.679C409.081 362.633 408.581 362.586 408.067 362.538C408.404 362.387 408.741 362.236 409.088 362.08C410.352 361.485 410.352 361.485 411.166 360.46C411.584 360.094 411.584 360.094 412.011 359.721Z" fill="white"/>
<path d="M369.749 347.324C370.492 347.51 371.236 347.696 372.003 347.887C369.969 349.742 368.55 350.449 365.804 350.705C365.804 350.333 365.804 349.961 365.804 349.578C367.106 349.206 368.407 348.834 369.749 348.451C369.749 348.079 369.749 347.707 369.749 347.324Z" fill="white"/>
<path d="M78.4194 347.324C79.6521 347.5 79.6521 347.5 80.6734 347.887C79.0552 349.41 78.2448 350.112 75.9893 350.282C75.4896 350.236 74.9898 350.189 74.4749 350.141C74.812 349.99 75.149 349.839 75.4963 349.683C76.76 349.088 76.76 349.088 77.5742 348.063C77.9926 347.697 77.9926 347.697 78.4194 347.324Z" fill="white"/>
<path d="M53.6254 323.657C54.8581 323.833 54.8581 323.833 55.8794 324.22C54.2612 325.743 53.4508 326.445 51.1953 326.615C50.6956 326.569 50.1958 326.522 49.6809 326.474C50.018 326.323 50.355 326.172 50.7023 326.016C51.966 325.421 51.966 325.421 52.7802 324.396C53.1986 324.03 53.1986 324.03 53.6254 323.657Z" fill="white"/>
<path d="M331.431 316.331C332.663 316.507 332.663 316.507 333.685 316.895C332.066 318.418 331.256 319.119 329 319.289C328.501 319.243 328.001 319.196 327.486 319.149C327.823 318.997 328.16 318.846 328.507 318.691C329.771 318.095 329.771 318.095 330.585 317.071C331.004 316.705 331.004 316.705 331.431 316.331Z" fill="white"/>
<path d="M96.4514 299.426C96.6373 299.984 96.8233 300.542 97.0149 301.117C94.3382 302.807 94.3382 302.807 93.0704 302.807C93.493 301.434 93.493 301.434 94.1974 299.99C95.3948 299.532 95.3948 299.532 96.4514 299.426Z" fill="white"/>
<path d="M454.273 298.863C455.506 299.039 455.506 299.039 456.527 299.426C454.909 300.949 454.099 301.651 451.843 301.821C451.344 301.775 450.844 301.728 450.329 301.68C450.666 301.529 451.003 301.378 451.35 301.222C452.614 300.627 452.614 300.627 453.428 299.602C453.847 299.236 453.847 299.236 454.273 298.863Z" fill="white"/>
<path d="M392.852 280.831C393.038 281.388 393.224 281.946 393.416 282.521C390.739 284.212 390.739 284.212 389.471 284.212C389.894 282.838 389.894 282.838 390.598 281.394C391.796 280.936 391.796 280.936 392.852 280.831Z" fill="white"/>
<path d="M139.841 274.632C140.027 275.19 140.213 275.748 140.404 276.323C137.728 278.013 137.728 278.013 136.46 278.013C136.882 276.64 136.882 276.64 137.587 275.196C138.784 274.738 138.784 274.738 139.841 274.632Z" fill="white"/>
<path d="M405.813 272.942C407.045 273.118 407.045 273.118 408.067 273.505C406.448 275.028 405.638 275.73 403.382 275.9C402.883 275.854 402.383 275.807 401.868 275.759C402.205 275.608 402.542 275.457 402.889 275.301C404.153 274.706 404.153 274.706 404.967 273.681C405.386 273.315 405.386 273.315 405.813 272.942Z" fill="white"/>
<path d="M423.844 225.044C424.03 225.602 424.216 226.16 424.408 226.735C421.731 228.425 421.731 228.425 420.464 228.425C420.886 227.052 420.886 227.052 421.59 225.608C422.788 225.15 422.788 225.15 423.844 225.044Z" fill="white"/>
<path d="M79.5464 396.912C80.2902 397.098 81.034 397.284 81.8004 397.475C79.9476 399.116 78.6454 400.009 76.1654 400.293C76.1654 399.921 76.1654 399.549 76.1654 399.166C77.2811 398.794 78.3969 398.422 79.5464 398.039C79.5464 397.667 79.5464 397.295 79.5464 396.912Z" fill="white"/>
<path d="M295.367 390.713C296.11 390.899 296.854 391.085 297.621 391.277C296.002 392.8 295.192 393.501 292.937 393.672C292.437 393.625 291.937 393.579 291.422 393.531C292.736 392.851 293.956 392.31 295.367 391.84C295.367 391.468 295.367 391.096 295.367 390.713Z" fill="white"/>
<path d="M67.1495 353.522C67.8933 353.708 68.6371 353.894 69.4034 354.085C67.7853 355.608 66.9748 356.31 64.7194 356.48C64.2196 356.434 63.7199 356.387 63.205 356.339C64.5191 355.66 65.7387 355.119 67.1495 354.649C67.1495 354.277 67.1495 353.905 67.1495 353.522Z" fill="white"/>
<path d="M289.168 341.125C289.912 341.311 290.656 341.497 291.422 341.688C289.804 343.211 288.993 343.913 286.738 344.083C286.238 344.037 285.739 343.99 285.224 343.942C286.538 343.263 287.757 342.722 289.168 342.252C289.168 341.88 289.168 341.508 289.168 341.125Z" fill="white"/>
<path d="M467.234 237.441C467.42 237.999 467.606 238.557 467.797 239.132C465.121 240.822 465.121 240.822 463.853 240.822C464.444 239.345 464.782 238.684 466.177 237.864C466.526 237.724 466.875 237.585 467.234 237.441Z" fill="white"/>
<path d="M239.017 422.269C239.017 422.827 239.017 423.385 239.017 423.96C237.138 425.65 237.138 425.65 235.636 425.65C236.227 424.173 236.565 423.512 237.96 422.692C238.309 422.552 238.658 422.413 239.017 422.269Z" fill="white"/>
<path d="M139.277 361.975C140.021 361.975 140.765 361.975 141.531 361.975C141.531 362.347 141.531 362.718 141.531 363.102C139.061 364.792 139.061 364.792 137.587 364.792C138.643 362.609 138.643 362.609 139.277 361.975Z" fill="white"/>
<path d="M274.517 349.578C275.261 349.578 276.005 349.578 276.771 349.578C276.771 349.95 276.771 350.321 276.771 350.705C274.3 352.395 274.3 352.395 272.827 352.395C273.883 350.212 273.883 350.212 274.517 349.578Z" fill="white"/>
<path d="M423.281 262.799C424.025 262.799 424.769 262.799 425.535 262.799C425.535 263.171 425.535 263.543 425.535 263.926C423.064 265.616 423.064 265.616 421.59 265.616C422.647 263.433 422.647 263.433 423.281 262.799Z" fill="white"/>
</svg>
