<svg xmlns="http://www.w3.org/2000/svg" role="img" viewBox="-3.33 -7.83 589.16 252.66"><defs><style>.cls-2{fill:#fff}.cls-3{fill:#326ce5}</style></defs><path fill="#5bb8d8" d="M112.565 70.151h462.302v120.468H112.565z"/><circle cx="123.388" cy="121.414" r="74.751" class="cls-2"/><path d="M237.552 139.215a6.677 6.677 0 00-1.21-.243c-.571-.115-1.387-.317-1.946-.405a56.173 56.173 0 00-6.388-.341 62.198 62.198 0 01-11.98-1.636 7.478 7.478 0 01-2.945-2.809l-2.706-.709a86.429 86.429 0 00-15.462-59.47c.67-.642 1.94-1.829 2.298-2.178a5.26 5.26 0 011.147-3.799 62.247 62.247 0 019.702-7.214 55.298 55.298 0 005.438-3.373c.42-.33.993-.85 1.432-1.22a6.686 6.686 0 10-8.561-10.176c-.444.37-1.05.856-1.443 1.216a55.198 55.198 0 00-4.269 4.767 62.31 62.31 0 01-8.746 8.352 7.392 7.392 0 01-4.022.547l-2.481 1.875a87.173 87.173 0 00-55.913-25.18c-.085-.883-.204-2.482-.24-2.965a5.27 5.27 0 01-2.26-3.266 62.305 62.305 0 01.428-12.082 55.332 55.332 0 00.735-6.346c.006-.536-.046-1.313-.062-1.892a6.686 6.686 0 10-13.298.365c.001.063.017.123.02.186.009.551 0 1.22.03 1.702a55.929 55.929 0 001.078 6.301 62.21 62.21 0 011.066 12.04 7.251 7.251 0 01-2.066 3.495l-.081 2.818a86.767 86.767 0 00-11.972 2.173A85.564 85.564 0 0060.101 65.74q-1.236-.804-2.45-1.64a5.253 5.253 0 01-3.96-.277 62.079 62.079 0 01-9.182-7.858 55.566 55.566 0 00-4.5-4.53c-.415-.335-1.047-.791-1.51-1.14a7.928 7.928 0 00-4.683-1.624 6.409 6.409 0 00-5.235 2.489 7.05 7.05 0 001.9 9.759l.104.07c.444.344.992.785 1.403 1.069a55.555 55.555 0 005.6 3.078 62.044 62.044 0 0110.076 6.684 7.392 7.392 0 011.44 3.8l2.18 1.845a86.076 86.076 0 00-11.95 60.35l-2.761.886a9.196 9.196 0 01-2.78 2.955 62.083 62.083 0 01-11.867 2.286 55.583 55.583 0 00-6.365.686c-.508.108-1.212.307-1.765.46l-.058.015-.093.03a6.676 6.676 0 103.303 12.878l.099-.018c.044-.01.08-.034.125-.043.545-.14 1.231-.29 1.71-.434a56.075 56.075 0 005.903-2.447 62.296 62.296 0 0111.5-3.723 7.376 7.376 0 013.86 1.247l2.885-.575a86.563 86.563 0 0039.64 46.842l-1.134 2.932a6.601 6.601 0 01.695 3.745 64.98 64.98 0 01-5.727 10.976 55.448 55.448 0 00-3.422 5.41c-.251.507-.566 1.284-.806 1.815a6.68 6.68 0 1012.161 5.373l.01-.012v-.016c.239-.527.578-1.219.777-1.711a54.992 54.992 0 001.755-6.146 46.522 46.522 0 014.827-12.085 5.406 5.406 0 012.828-1.476l1.434-2.766a86.082 86.082 0 0061.365-1.499c.443.742 1.27 2.161 1.487 2.52a5.256 5.256 0 013.451 1.972 61.954 61.954 0 014.867 11.057 55.59 55.59 0 002.095 6.042c.229.485.599 1.168.868 1.682a6.683 6.683 0 1011.868-6.007c-.268-.518-.638-1.275-.915-1.766a55.258 55.258 0 00-3.708-5.204 62.057 62.057 0 01-6.18-10.397 5.223 5.223 0 01.404-3.937 22.879 22.879 0 01-1.18-2.653 86.56 86.56 0 0037.03-49.253c.864.114 2.37.335 2.859.421a5.26 5.26 0 013.68-1.482 62.22 62.22 0 0111.689 3.099 55.366 55.366 0 006.03 2.142c.484.113 1.173.215 1.727.321.046.011.088.03.132.04l.095.012a6.676 6.676 0 003.82-12.794zM124.31 192.548a70.08 70.08 0 1170.08-70.08 70.08 70.08 0 01-70.08 70.08z" class="cls-3"/><path d="M57.9 98.913c1.527-2.42 2.236-5.21 3.535-7.74A74.668 74.668 0 0176.57 70.678a7.032 7.032 0 01.731-.629.674.674 0 01.889-.004c.407.343.194.67-.053.975a25.858 25.858 0 00-2.442 2.945 9.77 9.77 0 00-1.266 3.84 10.03 10.03 0 003.834-2.263c.673-.63.677-1.987 1.117-2.99a7.456 7.456 0 013.558-3.325c.361-.208.61-.042.616.4.014 1.158.338 2.328-.51 3.398a4.342 4.342 0 00-.872 3.092c1.493-.458 1.904-1.847 2.87-2.632.37-.301.603-.91.997-1.019 1.496-.409 2.69-.835 1.79-2.8-.216-.47 1.271-.718.658-1.35-.64-.66-1.637-.201-2.47-.091a8.17 8.17 0 00-1.037.405 1.696 1.696 0 01-.6-.056c.789-.66-.527-1.565.32-2.29a22.92 22.92 0 014.774-2.863c2.77-1.385 4.759-3.588 7.03-5.481a8.162 8.162 0 013.725-1.672c.523-.113 1.056-.179 1.58-.282.508-.1 1.102-.574 1.503-.09.46.555.072 1.24-.205 1.8-.733 1.48-2.5 2.167-2.972 3.91.584.476 1.45-.203 2.143.568.548.608 1.234.805.915 1.906-.236.815.319 1.35 1.249.797a6.048 6.048 0 011.953-.716c.475-.094.976-.174 1.03-.82a.971.971 0 00-.311-.868c-.477-.429-.882-.135-1.311.106-.262.147-.468.474-.85.334.366-1.418 2.132-1.982 3.676-1.18.518.268.95.731 1.585.734a.764.764 0 00.794-.444c.165-.489-.377-.362-.547-.547-1.684-1.818-3.972-.587-5.886-1.2-.492-.158-1.45.217-1.251-.72.143-.671 1.372-.839 1.627-.59 1.212 1.182 1.735.005 2.329-.586a2.882 2.882 0 014.5.231c.489.648 1.302.702 1.896 1.152.724.549 1.563.969 1.948 1.863.228.527.293 1.354-.142 1.478-1.823.518-1.987 2.793-3.742 3.335-.547.168-1.058.715-1.626.256-.62-.5-.027-.95.214-1.39a.503.503 0 00-.115-.7l-.011-.008c-.484-.399-.407.184-.606.31-.964.604-2.086.27-3.131.425a1.642 1.642 0 00-1.342.537c1.143-.279 1.961-.09 2.379.911a.956.956 0 00.152.26c2.04-.797 2.272 1.81 3.79 2.02.356.05.545.425.696.81a3.125 3.125 0 001.98 2.196c1.232.402-.088 1.479.26 2.337 1.2-.683 2.257-1.697 3.76-1.525.407.046.988-.227 1.147.283.225.717-.536.622-.91.834-.139.079-.283.147-.623.323.894.195.974 1.429 2.228.97.598-.218.19.754.392 1.15.578.054.651-.44.845-.784.168-.298.493-.683.713-.527 1.687 1.2 3.852-.41 5.505.995a1.81 1.81 0 001.709.145c.563-.169.882-.094 1.273.521 1.425 2.24 1.461 2.247-1.256 2.76-.256.048-.511.092-1.11.199 1.816.51 3.37.79 4.548 1.941a1.588 1.588 0 001.062.261c1.14-.04 1.69.414 1.672 1.607-.014.894.343 1.287 1.417 1.13 1.084-.16 2.194.531 3.246-.663.303-.345 1.93.277 2.828.71a3.486 3.486 0 002.72.588c.275-.086.795-.056.908.115.974 1.475 2.391.984 3.73.955.617-.013 1.122.257 1.464-.677.265-.723 1.304-.674 2.035-.532 1.208.235 2.395.584 3.58.921.394.113.682.374 1.168.055.662-.436 1.063-.046 1.254.668.383 1.435.174 1.649-1.328 1.317-.408-.09-.828-.126-1.28-.193.018.67.503 1.232-.137 1.847-.652.626.282.584.509.74.802.555 1.181 1.104.302 1.902a.996.996 0 00-.259.404 5.913 5.913 0 01-3.47 3.44c-1.392.657-1.644 1.942-.978 3.363a4.24 4.24 0 01-.141 4.054 5.827 5.827 0 00-.939 2.536c-.015.424-.237.918-.71.953-.489.036-.458-.519-.573-.847-.735-2.1-1.976-4.187-.491-6.436.714-1.082 1.208-2.272 1.837-3.392a4.548 4.548 0 00.328-2.827c-.703 1.21-1.206 2.137-2.593 1.413-.557-.29-.904.551-1.195 1.072-.678 1.211-1.078 2.121-3.145 1.889-2.152-.242-4.99-.378-6.584 2.197a7.77 7.77 0 01-1.667 1.491c-.442.381-1.437.596-.924 1.355.443.655.718 1.991 2.144 1.283.585-.291 1.043.048.675.69a1.73 1.73 0 00-.028 1.388c.75 3.47-1.127 5.803-3.36 8-.458.45-.921.896-1.383 1.343-.646.626-1.541 1.236-2.29.832-1.653-.895-2.352.313-3.228 1.164-.454.44-.72 1.057-1.43 1.217-1.518.342-1.36 1.324-.753 2.314a3.193 3.193 0 01.401 2.76c-.385 1.252-1.41 1.162-2.372 1.075-.482-.043-.538-.501-.355-.88.255-.526.25-1.164.707-1.602.239-.23.494-.767.348-.815-1.8-.595-.683-3.48-2.926-3.686-.259-.024-.578-.151-.575-.469.017-2.167-1.21-1.147-2.123-.819-.5.18-.952.487-1.438.71-.471.217-1.475-.078-1.224.826.205.734.425 1.718 1.459 1.913.401.075.99-.109 1.044.467.06.65-.622.657-1.04.785-1.394.427-1.727 1.187-1.144 2.56a2.007 2.007 0 01-.557 2.593 1.536 1.536 0 00-.268 2.379 1.28 1.28 0 01-.301 1.972c-1.946 1.575-3.711 3.443-6.303 4.024-.417.093-.851.372-1.243.186-1.607-.763-3.287-.42-4.944-.396a2.195 2.195 0 01-1.438-.575 3.751 3.751 0 00-4.84.14 1.332 1.332 0 00-.416 1.454 13.158 13.158 0 00.887 3.083 5.593 5.593 0 01.507 3.9 2.527 2.527 0 01-1.61 2.033 2.414 2.414 0 01-2.752-.794 1.657 1.657 0 00-1.237-.767c-1.28-.131-1.322-1.434-1.744-2.284-.3-.603-.621-1.215-.88-1.822-.644-1.502-1.169-1.27-1.882-.126a6.02 6.02 0 01-.601.65 23.974 23.974 0 01.347-5.993c.204-1.162-.206-1.573-1.285-1.498-1.045.072-1.515-.457-1.057-1.348.855-1.665.568-3.332.344-5.036a9.886 9.886 0 01-.058-1.76c.023-.467-.003-.977-.476-1.073a14.548 14.548 0 01-2.293-1.1 1.975 1.975 0 00-1.243-.15A21.132 21.132 0 0174.679 123a1.327 1.327 0 00-1.389 1.118c-.208 1.253-1.219 1.985-1.742 3.026a2.372 2.372 0 01-1.922 1.031c-1.082.161-.88-.747-.82-1.317.547-5.18 1.106-10.363 4.126-14.86a2.596 2.596 0 00.19-.519c-.501-.311-1.394.309-1.61-.577-.165-.682-.296-1.402.562-1.79.3-.137.311-.36.211-.66a3.757 3.757 0 01.35-2.587c.625-1.687-.588-2.924-1.279-4.243-.898-1.715-1.577-3.402-.684-5.323a1.024 1.024 0 00.025-.934c-1.069-2.024-.044-3.7.829-5.437.324-.645 1.395-1.536.516-2.03-.833-.467-1.11.86-1.458 1.508a37.427 37.427 0 00-2.415 4.72c-.288.781-.408 1.67.295 2.04.914.479.788.923.472 1.638a4.08 4.08 0 00-.23 1.257c-.253 2.764-.425 2.988-2.993 3.795-.912.286-3.322-.876-4.132-2.006a14.101 14.101 0 01-1.274-2.114 6.192 6.192 0 00-.272 4.86c.72 2.322-2.25 5.816-4.738 5.627zM78.339 83.85c-.225.894-.59 1.642 0 2.081.642.478.972-.394 1.403-.691.69-.477 1.31-1.538 1.939-1.521 1.372.036 1.517-.734 1.868-1.67.44-1.178 1.227-2.43 2.575-2.254a1.68 1.68 0 001.928-.889c.32-.511-.036-.903-.466-1.2-.726-.504-1.46-.975-2.322-.28a10.316 10.316 0 00-2.396 2.114 5.486 5.486 0 01-2.883 2.412 2.494 2.494 0 00-1.646 1.898zm42.569 106.406c-.52-1.108-1.089-2.089-2.617-1.547a1.659 1.659 0 01-1.485-.45 10.802 10.802 0 00-5.106-1.785 67.16 67.16 0 01-12.004-2.163c-1.032-.311-1.766-.617-2.014-1.91-.254-1.327-1.09-2.511-1.515-3.852-.497-1.57.296-1.853 1.424-1.933a13.731 13.731 0 014.612.565 3.436 3.436 0 003.615-.586.638.638 0 01.722-.214c1.146.53 2.05-.189 3.044-.525 1.153-.39 2.264-.907 3.25.564.424.632 1.544.496 2.271-.01a7.017 7.017 0 016.928-.2c.547.372.387.738.085 1.054-.76.796-.314 1.17.43 1.534.722.351 1.407.778 2.127 1.134 1.884.929 2.58.728 3.747-1.002a10.622 10.622 0 011.506-2.271c.486-.432.783-.44 1.006.28a13.726 13.726 0 004.793 7.316c2.177 1.624 2.08 2.916-.398 4.17-3.377 1.71-6.888 2.971-10.796 2.364a8.386 8.386 0 00-1.438.019zm38.56-122.542a4.63 4.63 0 00-1.841-2.743 1.515 1.515 0 00-2.041-.298c-.38.273-.843.39-1.161-.004-.384-.474.255-.578.424-.857a5.11 5.11 0 00.258-.575c.65-1.462.513-1.187 1.788-.551 1.955.974 3.864 2.2 6.324 2.503-.545-1.351-1.776-1.947-2.54-3.074.77-.318 1.21.162 1.677.403 2.27 1.172 3.941 3.122 5.954 4.632a.932.932 0 01.361.838 1.401 1.401 0 001.668 1.5c1.638-.196 2.39.88 3.002 1.95a3.206 3.206 0 001.634 1.592 3.76 3.76 0 011.219 1.026 74.657 74.657 0 0111.214 16.014l-.079.313c-1.242.032-1.914-.938-2.572-1.691a42.176 42.176 0 01-4.605-5.563 1.325 1.325 0 00-1.312-.776c-1.54.355-2.947-.296-4.356-.583a3.633 3.633 0 00-3.789 1.179 6.115 6.115 0 01-.53.603c-.74.625-2.285.82-1.462 2.311.478.868-.248 2.284 1.26 2.68.301.079.335.801.203.785-1.103-.14-1.727 1.566-2.965.746a1.77 1.77 0 00-.447-.178c-2.743-.867-2.915-1.176-2.221-4.091-.714-.114-1.382-.377-1.97.393-.435.573-.984.264-1.402-.105-.543-.479-.14-.814.221-1.179.745-.752.196-.979-.494-1.112a2.93 2.93 0 01-2.717-3.127q.004-.067.012-.134c-.007-.57.056-1.138.586-1.402 1.35-.67 1.898-2.164 3.125-2.95.3-.193.545-.318.162-.837a5.082 5.082 0 01-.694-5.324c.395-.965-.297-1.921-1.626-1.875zm-30.184-11.87c2.64-.912 4.867-1.308 6.998-2.08 1.861-.673 3.397.878 3.872 2.836a6.982 6.982 0 002.652 3.824c.433.327.888.574 1.08 1.117.113.319.205.79-.212.742-1.357-.156-2.464 1.057-3.882.588a4.573 4.573 0 00-2.384.032 1.689 1.689 0 01-1.9-.432.604.604 0 00-.417-.219c-2.54.111-2.286-2.697-3.809-3.647-.11-.069-.224-.338-.176-.417.943-1.565-.255-1.882-1.822-2.344zm-23.154 99.589c-.096.084-.167.198-.257.215-1.736.342-1.54 1.5-1.179 2.743a.975.975 0 01-.43 1.117 7.763 7.763 0 00-.73.627c-3.148 3.04-3.144 2.872-6.865.461-1.845-1.195-1.907-2.769-2.067-4.451-.08-.85.167-1.842 1.357-.751.247.226.614.495.848.282.857-.781 2.082-.25 2.833-.705 1.412-.854 3.09-.376 4.442-1.23a.821.821 0 011.229.376c.234.467.785.737.82 1.316zm28.353 18.037a2.565 2.565 0 00-2.413.467 2.875 2.875 0 01-4.46-1.31c-.594-1.377-1.311-2.41-2.879-2.696a3.653 3.653 0 01-1.286-.645c-.41-.276-1.254-.474-.935-1.07.37-.694.744.174 1.125.312a.95.95 0 00.923-.05c2.398-1.791 4.582-.265 6.79.46a14.194 14.194 0 015.359 3.022c.192.179.579.329.467.568-.539 1.153.57 1.448 1.022 2.076.176.243.59.404.337.775-.204.3-.578.228-.893.183a2.654 2.654 0 01-1.58-1.033 3.093 3.093 0 00-1.577-1.06zm-52.568-29.938c2.074.964 2.221 3.09 3.335 4.514 2.113 2.7 2.756 6.15 4.655 8.96a1.845 1.845 0 01-.426 2.206c-.475.497-1.1-.172-1.523-.685-2.307-2.799-3.157-6.087-3.753-9.604a11.628 11.628 0 00-1.698-3.578 2.548 2.548 0 01-.59-1.813zm57.512-21.315c-.881.71-.867 1.826-1.17 2.83-.458 1.521-1.948 1.762-3.154 2.045-.684.161-1.438-.125-1.87.695a.24.24 0 01-.13.08c-.913-1.077-2.18-.987-3.412-1.13-.358-.043-.147-.57.166-.705a1.854 1.854 0 011.073-.225c1.709.45 2.974-.61 4.364-1.213a4.723 4.723 0 002.596-3.074c.153-.462-.135-1.457.793-1.23.87.211.903 1.066.744 1.927zm-50.266 29.022c.072.224-.014.456-.245.47a.7.7 0 01-.536-.237 6.414 6.414 0 01-1.29-2.555c-.358-2.155-.299-4.377-1.022-6.476-.11-.318-.082-.677.286-.815.296-.111.474.162.645.366.281.335.617.758.485 1.146-.454 1.334.305 2.327.994 3.19 1.235 1.546.807 3.225.683 4.91z" class="cls-3"/><path d="M159.468 67.714l.268.44c1.854 2.68-1.354 1.086-1.688 2.204-.04.272 1.185.463.517.988-.683.537-1.406-.184-2.07-.456a.958.958 0 01-.521-1.46c.525-.755.896-1.283-.097-1.973-.553-.384.02-.565.349-.719 1.374-.644 2.322.118 3.242.976zm-10.178-9.917c1.368.34 1.484.71.744 1.699-.541.723.123 1.167.581 1.546.532.439 1.19.724 1.718 1.167a.792.792 0 01.125 1.113q-.018.022-.038.043c-.297.329-.704.165-1.024-.051a8.7 8.7 0 01-3.522-3.7c-.2-.475-.928-1.046-.56-1.36a1.855 1.855 0 011.977-.457z" class="cls-3"/><circle cx="123.388" cy="122.119" r="2.55" fill="#54ceef"/><path d="M281.713 123.733q-1.03-1.652-2.425-3.57-1.396-1.918-3.009-3.868-1.611-1.948-3.374-3.736a36.076 36.076 0 00-3.523-3.159v14.333h-7.618v-33.84h7.618v12.718q2.937-3.086 5.968-6.455 3.03-3.368 5.598-6.263h9.04q-3.454 4.114-6.95 7.91-3.495 3.798-7.357 7.642a58.048 58.048 0 017.833 8.036 100.268 100.268 0 017.255 10.252zm33.227-.88a40.821 40.821 0 01-4.786 1.002 39.406 39.406 0 01-6.152.462 14.606 14.606 0 01-5.444-.878 8.255 8.255 0 01-3.443-2.466 9.605 9.605 0 01-1.807-3.784 20.32 20.32 0 01-.537-4.834V98.047h7.276v13.429a10.408 10.408 0 00.927 5.078 3.689 3.689 0 003.468 1.563q.78 0 1.66-.074.879-.072 1.562-.17V98.047h7.276zm30.714-11.963a16.236 16.236 0 01-.905 5.566 11.751 11.751 0 01-2.612 4.249 11.479 11.479 0 01-4.199 2.71 15.775 15.775 0 01-5.664.953c-.88 0-1.8-.043-2.759-.123q-1.441-.123-2.832-.318-1.392-.195-2.661-.463-1.271-.269-2.246-.562v-35.89l7.275-1.172v12.794a13.642 13.642 0 012.54-.83 13.053 13.053 0 012.831-.294 11.596 11.596 0 014.834.953 9.46 9.46 0 013.516 2.71 12.182 12.182 0 012.149 4.224 19.271 19.271 0 01.733 5.493zm-7.423-.195q0-7.032-5.176-7.032a8.597 8.597 0 00-2.222.293 6.337 6.337 0 00-1.782.732v13.234q.537.097 1.367.17.83.074 1.807.074a5.228 5.228 0 004.492-2.051 8.917 8.917 0 001.514-5.42zm11.817.39a15.708 15.708 0 011.049-5.981 12.815 12.815 0 012.76-4.273 11.465 11.465 0 013.93-2.588 12.301 12.301 0 014.566-.879 11.35 11.35 0 018.643 3.345q3.172 3.345 3.174 9.839c0 .423-.018.887-.05 1.392q-.048.757-.097 1.343h-16.505a4.832 4.832 0 002.1 3.564 8.44 8.44 0 004.981 1.319 21.043 21.043 0 003.93-.367 14.823 14.823 0 003.15-.903l.977 5.909a9.94 9.94 0 01-1.562.585 20.816 20.816 0 01-2.174.513q-1.197.219-2.564.367a25.58 25.58 0 01-2.734.145 16.18 16.18 0 01-6.03-1.025 11.742 11.742 0 01-4.249-2.807 11.143 11.143 0 01-2.49-4.224 16.739 16.739 0 01-.805-5.274zm17.09-2.783a7.501 7.501 0 00-.318-1.807 4.508 4.508 0 00-.83-1.563 4.433 4.433 0 00-1.416-1.122 4.616 4.616 0 00-2.125-.44 4.889 4.889 0 00-2.098.415 4.332 4.332 0 00-1.466 1.1 4.935 4.935 0 00-.903 1.586 10.42 10.42 0 00-.464 1.83zm28.125-3.809q-.976-.243-2.294-.513a14.26 14.26 0 00-2.833-.268 13.226 13.226 0 00-1.635.122 9.606 9.606 0 00-1.44.269v19.63h-7.276V99.415a43.914 43.914 0 014.613-1.294 26.62 26.62 0 015.934-.61q.585 0 1.416.073.828.073 1.66.195.83.122 1.66.293a7.897 7.897 0 011.416.415zm5.128-5.566a40.636 40.636 0 014.785-1.001 39.33 39.33 0 016.153-.464 14.992 14.992 0 015.444.854 8.192 8.192 0 013.444 2.417 9.447 9.447 0 011.806 3.711 19.775 19.775 0 01.537 4.786v14.503h-7.276v-13.624a9.808 9.808 0 00-.928-4.98q-.928-1.466-3.466-1.466-.783 0-1.661.073-.879.074-1.562.172v19.825h-7.276zm27.539 12.158a15.683 15.683 0 011.05-5.981 12.794 12.794 0 012.759-4.273 11.47 11.47 0 013.93-2.588 12.312 12.312 0 014.566-.879 11.353 11.353 0 018.644 3.345q3.172 3.345 3.173 9.839c0 .423-.017.888-.049 1.392q-.048.757-.097 1.343H435.4a4.835 4.835 0 002.1 3.564 8.438 8.438 0 004.98 1.319 21.054 21.054 0 003.931-.367 14.8 14.8 0 003.15-.903l.976 5.909a9.939 9.939 0 01-1.562.585 20.816 20.816 0 01-2.174.514q-1.196.218-2.562.366a25.622 25.622 0 01-2.735.145 16.18 16.18 0 01-6.03-1.025 11.742 11.742 0 01-4.25-2.807 11.143 11.143 0 01-2.49-4.224 16.739 16.739 0 01-.805-5.274zm17.091-2.783a7.624 7.624 0 00-.317-1.807 4.532 4.532 0 00-.83-1.563 4.433 4.433 0 00-1.417-1.122 4.615 4.615 0 00-2.124-.44 4.89 4.89 0 00-2.1.415 4.345 4.345 0 00-1.465 1.1 4.935 4.935 0 00-.903 1.586 10.42 10.42 0 00-.464 1.83zm12.403-16.652l7.276-1.17v7.567h8.74v6.056h-8.74v9.033a7.185 7.185 0 00.805 3.662q.805 1.368 3.248 1.368a13.938 13.938 0 002.417-.22 12.46 12.46 0 002.27-.61l1.026 5.664a20.542 20.542 0 01-2.93.927 17.125 17.125 0 01-3.955.39 13.024 13.024 0 01-4.932-.805 7.728 7.728 0 01-3.125-2.245 8.351 8.351 0 01-1.636-3.492 20.575 20.575 0 01-.464-4.541zm19.727 19.435a15.683 15.683 0 011.05-5.981 12.793 12.793 0 012.759-4.273 11.47 11.47 0 013.93-2.588 12.312 12.312 0 014.566-.879 11.353 11.353 0 018.643 3.345q3.173 3.345 3.174 9.839c0 .423-.017.887-.049 1.392q-.049.757-.098 1.343h-16.504a4.835 4.835 0 002.1 3.564 8.439 8.439 0 004.98 1.319 21.054 21.054 0 003.931-.367 14.8 14.8 0 003.15-.903l.976 5.909a9.938 9.938 0 01-1.562.585 20.814 20.814 0 01-2.174.513q-1.196.219-2.563.367a25.622 25.622 0 01-2.734.145 16.18 16.18 0 01-6.03-1.025 11.742 11.742 0 01-4.25-2.807 11.143 11.143 0 01-2.49-4.224 16.74 16.74 0 01-.805-5.274zm17.091-2.783a7.624 7.624 0 00-.317-1.807 4.532 4.532 0 00-.83-1.563 4.433 4.433 0 00-1.417-1.122 4.615 4.615 0 00-2.124-.44 4.89 4.89 0 00-2.1.415 4.345 4.345 0 00-1.465 1.1 4.935 4.935 0 00-.903 1.586 10.421 10.421 0 00-.464 1.83zm20.02 10.205a7.252 7.252 0 002.831-.39 1.51 1.51 0 00.83-1.514 1.857 1.857 0 00-1.073-1.538 20.593 20.593 0 00-3.272-1.49 33.159 33.159 0 01-3.1-1.318 9.098 9.098 0 01-2.37-1.636 6.61 6.61 0 01-1.513-2.27 8.39 8.39 0 01-.537-3.174 6.862 6.862 0 012.685-5.713 11.683 11.683 0 017.374-2.1 23.71 23.71 0 014.492.415 21.031 21.031 0 013.419.904l-1.27 5.664a26.774 26.774 0 00-2.76-.781 15.005 15.005 0 00-3.344-.342q-3.419 0-3.418 1.904a1.96 1.96 0 00.146.781 1.66 1.66 0 00.586.66 8.136 8.136 0 001.197.686q.756.37 1.928.812a29.99 29.99 0 013.955 1.748 9.475 9.475 0 012.467 1.86 5.758 5.758 0 011.27 2.217 9.818 9.818 0 01.365 2.825 6.51 6.51 0 01-2.856 5.75q-2.856 1.948-8.081 1.948a22.767 22.767 0 01-8.84-1.562l1.221-5.908a23.816 23.816 0 003.809 1.147 18.487 18.487 0 003.859.415zm-252.491 49.621v-35.363h23.678v6.685h-15.717v7.399h13.982v6.685h-13.982v14.594zm53.377-13.472a17.448 17.448 0 01-.919 5.792 12.575 12.575 0 01-2.653 4.49 11.919 11.919 0 01-4.16 2.884 13.871 13.871 0 01-5.434 1.021 13.733 13.733 0 01-5.384-1.021 11.915 11.915 0 01-4.159-2.884 13.18 13.18 0 01-2.704-4.49 16.61 16.61 0 01-.97-5.792 16.038 16.038 0 01.995-5.766 13.087 13.087 0 012.756-4.44 12.38 12.38 0 014.185-2.857 13.461 13.461 0 015.281-1.02 13.606 13.606 0 015.333 1.02 12.129 12.129 0 014.16 2.858 12.994 12.994 0 012.704 4.439 16.43 16.43 0 01.969 5.766zm-7.756 0a9.564 9.564 0 00-1.404-5.536 4.59 4.59 0 00-4.006-2.016 4.653 4.653 0 00-4.031 2.016 9.426 9.426 0 00-1.43 5.536 9.67 9.67 0 001.43 5.588 4.615 4.615 0 004.031 2.067 4.554 4.554 0 004.006-2.067 9.812 9.812 0 001.404-5.588zm29.801-6.633q-1.021-.255-2.398-.536a14.902 14.902 0 00-2.96-.281 13.858 13.858 0 00-1.71.128 10.041 10.041 0 00-1.505.281v20.513h-7.603v-25.413a45.815 45.815 0 014.821-1.351 27.782 27.782 0 016.2-.638q.613 0 1.48.076c.579.05 1.157.12 1.736.205q.867.126 1.734.305a8.227 8.227 0 011.48.434zm28.27 19.187a42.2 42.2 0 01-5.001 1.045 41.031 41.031 0 01-6.43.486 15.243 15.243 0 01-5.69-.92 8.628 8.628 0 01-3.597-2.576 10.046 10.046 0 01-1.889-3.955 21.224 21.224 0 01-.56-5.051v-14.952h7.602v14.033a10.872 10.872 0 00.97 5.307q.97 1.634 3.623 1.632.816 0 1.735-.075.918-.077 1.633-.179v-20.718h7.604zm21.891-13.319q0-3.674-.944-5.205a3.502 3.502 0 00-3.241-1.53q-.715 0-1.479.075-.766.077-1.48.18v20.717h-7.603v-25.922q.968-.255 2.27-.537 1.3-.279 2.756-.51 1.455-.229 2.985-.357 1.531-.126 3.01-.128a12.662 12.662 0 014.72.74 10.667 10.667 0 012.986 1.76 14.222 14.222 0 017.655-2.5 13.407 13.407 0 015.281.894 7.958 7.958 0 013.291 2.526 9.565 9.565 0 011.684 3.878 25.062 25.062 0 01.46 5.001v15.155h-7.603v-14.237q0-3.674-.945-5.205a3.5 3.5 0 00-3.24-1.53 6.843 6.843 0 00-1.71.305 6.636 6.636 0 00-1.811.766 11.654 11.654 0 01.46 2.475q.1 1.3.101 2.78v14.646h-7.603z" class="cls-2"/><g id="Kv3FGq"><path d="M490.904 151.618a8.478 8.478 0 003.577-5.135 39.616 39.616 0 001.228-10.372c-.037-.737.241-1.059.919-1.158a12.076 12.076 0 013.186-.211c2.97.35 5.683 2.293 5.088 6.332-.534 3.627-1.557 7.137-2.378 10.695a21.22 21.22 0 00-.796 6.086c.062.995.027 2.266 1.245 2.577 1.2.305 1.804-.789 2.354-1.634a27.579 27.579 0 002.827-6.402 72.677 72.677 0 002.968-12.69 7.22 7.22 0 00-.022-2.453c-.142-.72.125-1.045.871-1.14 4.38-.559 9.232 3.714 8.322 8.079-.748 3.588-1.865 7.058-2.721 10.605a13.908 13.908 0 00-.672 5.827c.193 1.057.554 2.037 1.702 2.349a2.418 2.418 0 002.637-1.196 14.233 14.233 0 002.745-7.154c.562-5.696 1.986-11.238 2.911-16.869 1.082-6.582 2.013-13.17 1.364-19.862-.117-1.21.296-1.637 1.473-1.576a11.435 11.435 0 017.72 3.36 4.53 4.53 0 011.083 4.678c-1.401 5.488-2.853 10.964-4.174 16.471a115.705 115.705 0 00-2.939 17.48 10.185 10.185 0 00.124 2.823c.16.81.413 1.64 1.338 1.913a2.248 2.248 0 002.322-.792 9.642 9.642 0 001.962-3.388 37.234 37.234 0 001.967-8.123c.097-.647.235-1.262.97-1.4a1.56 1.56 0 011.68.988 3.551 3.551 0 01.318 2.285 26.455 26.455 0 01-5.741 13.924 8.082 8.082 0 01-5.651 3.17 5.376 5.376 0 01-5.825-3.593c-.264-.627-.451-1.286-.711-2.038-.712.902-1.327 1.76-2.023 2.548a8.283 8.283 0 01-5.213 3.02 5.78 5.78 0 01-6.123-3.626 17.197 17.197 0 01-1.3-7.142c-.672 1.048-1.193 1.894-1.748 2.717a16.81 16.81 0 01-3.884 4.263 5.83 5.83 0 01-8.858-1.571 13.472 13.472 0 01-1.97-7.029c-.023-.49-.003-.984-.003-1.656a22.07 22.07 0 01-3.265 1.844c-.391.159-.407.685-.556 1.062-1.724 4.36-4.344 7.923-8.846 9.747a11.812 11.812 0 01-15.413-5.615c-.113-.214-.232-.424-.414-.754a18.352 18.352 0 01-5.634 5.685c-5.896 3.491-12.297 3-16.418-3.844a17.209 17.209 0 01-2.21-5.974 21.8 21.8 0 011.167-11.99 10.187 10.187 0 016.346-6.294 1.493 1.493 0 001.012-1.1 10.56 10.56 0 012.33-4.019c3.24-3.428 8.026-2.672 10.017 1.608a12.26 12.26 0 01.356 8.798c-1.723 6.01-6.005 9.095-11.961 10.098-.967.163-1.246.395-.986 1.374a15.796 15.796 0 001.175 3.359c1.883 3.576 5.651 4.556 9.248 2.394a11.006 11.006 0 004.276-5.277 3.003 3.003 0 00.106-1.334 21.254 21.254 0 012.134-10.512 12.534 12.534 0 019.278-6.999 2.056 2.056 0 001.114-.698 8.962 8.962 0 017.453-2.509 6.342 6.342 0 014.407 2.675 16.312 16.312 0 013.036 8.595 46.985 46.985 0 01.099 5.7zm-17.943-5.706a19.977 19.977 0 00-1.333 7.618 13.508 13.508 0 001.983 7.642c1.977 2.956 5.318 3.16 7.697.507a12.193 12.193 0 001.844-3.04c.334-.71.067-.884-.586-1.05a12.006 12.006 0 01-8.078-6.674 20.749 20.749 0 01-1.527-5.003zm-19.437-3.076a7.858 7.858 0 00-.072-1.187c-.149-.735-.02-1.794-.924-1.96-.873-.16-1.248.799-1.6 1.47a24.924 24.924 0 00-2.65 10.008c-.058.83.256.932.908.689a5.457 5.457 0 002.853-2.582 14.496 14.496 0 001.485-6.438zm31.107 9.615a38.332 38.332 0 00.089-8.279 9.468 9.468 0 00-.898-3.426c-.558-1.062-1.297-1.08-1.914-.06a4.246 4.246 0 00-.48 1.123 12.305 12.305 0 00.495 7.828 4.674 4.674 0 002.708 2.814z" class="cls-3"/><path d="M432.978 118.744a16.363 16.363 0 015.91.929c4.128 1.591 6.163 5.208 4.998 9.463-1.606 5.866-5.426 9.569-11.43 9.47a5.074 5.074 0 01-.737-.04c-.319-.053-.691-.092-.827-.434-.152-.383.181-.6.419-.812a19.622 19.622 0 003.683-4.287 13.144 13.144 0 002.11-5.723c.328-3.466-1.666-5.203-5.067-4.387a7.783 7.783 0 00-5.866 7.732c-.094 4.279 1.652 7.913 4.127 11.23 2.505 3.36 5.167 6.603 6.836 10.503a20.404 20.404 0 011.886 8.345 12.358 12.358 0 01-6.602 11.35 19.545 19.545 0 01-17.47.988 11.692 11.692 0 01-6.546-15.184q.096-.24.202-.476a9.126 9.126 0 014.853-4.837 18.497 18.497 0 016.874-1.764c.705-.017 1.739-.185 1.956.626.216.808-.806.98-1.393 1.278a9.848 9.848 0 00-4.935 9.74 10.776 10.776 0 00.211 1.585c.838 3.653 3.136 5.779 6.322 5.876a7.774 7.774 0 007.854-5.533c1.112-3.575.258-6.896-1.332-10.11a31.597 31.597 0 00-4.607-6.372 24.554 24.554 0 01-5.971-12.89c-1.208-9.033 4.224-15.673 13.29-16.204.451-.027.903-.045 1.252-.062z" class="cls-3"/></g></svg>