<svg width="1064" height="1065" viewBox="0 0 1064 1065" fill="none" xmlns="http://www.w3.org/2000/svg">
<path fill-rule="evenodd" clip-rule="evenodd" d="M870.996 595.588L816.103 356.313C811.679 337.412 799.414 321.929 781.921 313.484L559.938 206.916C551.694 203.096 542.243 200.683 533.195 200.683C524.147 200.683 514.697 202.895 506.05 206.916L283.062 313.484C265.368 321.728 253.102 337.211 248.88 356.313L193.585 595.588C189.161 614.489 193.585 633.993 205.85 649.274L359.871 840.895C371.735 855.775 389.831 864.22 408.531 864.22H655.447C674.347 864.22 692.243 855.976 704.106 840.895L858.127 649.274C870.392 634.395 874.816 614.489 870.392 595.588H870.795H870.996ZM483.128 384.865H501.225C506.453 384.865 510.876 380.642 510.876 375.213V289.758C510.876 284.53 515.099 280.106 520.528 280.106H543.651C548.879 280.106 553.302 284.329 553.302 289.758V375.213C553.302 380.441 557.525 384.865 562.954 384.865H581.05C588.49 384.865 593.115 392.908 589.495 399.342L540.434 484.194C536.814 490.629 527.364 490.629 523.745 484.194L474.683 399.342C471.064 392.908 475.689 384.865 483.128 384.865ZM386.011 562.813C380.783 562.813 376.359 567.036 376.359 572.465V590.561C376.359 598.001 368.316 602.625 361.882 599.006L277.03 549.945C270.596 546.325 270.596 536.875 277.03 533.256L361.882 484.194C368.316 480.575 376.359 485.2 376.359 492.639V510.736C376.359 515.964 380.582 520.387 386.011 520.387H471.466C476.694 520.387 481.118 524.61 481.118 530.039V553.162C481.118 558.39 476.895 562.813 471.466 562.813H386.011ZM581.05 698.336H563.155C557.927 698.336 553.503 702.558 553.503 707.987V793.442C553.503 798.67 549.281 803.094 543.852 803.094H520.729C515.501 803.094 511.077 798.871 511.077 793.442V707.987C511.077 702.759 506.855 698.336 501.426 698.336H483.329C475.89 698.336 471.265 690.293 474.884 683.858L523.946 599.006C527.565 592.572 537.016 592.572 540.635 599.006L589.696 683.858C593.316 690.293 588.691 698.336 581.251 698.336H581.05ZM787.149 549.945L702.296 599.006C695.862 602.625 687.819 598.001 687.819 590.561V572.465C687.819 567.237 683.597 562.813 678.168 562.813H592.712C587.485 562.813 583.061 558.591 583.061 553.162V530.039C583.061 524.811 587.283 520.387 592.712 520.387H678.168C683.396 520.387 687.819 516.165 687.819 510.736V492.639C687.819 485.2 695.862 480.575 702.296 484.194L787.149 533.256C793.583 536.875 793.583 546.325 787.149 549.945Z" fill="#151927"/>
</svg>
