<svg xmlns="http://www.w3.org/2000/svg" role="img" viewBox="-4.14 -3.89 436.28 119.03"><style>svg {enable-background:new 0 0 429 110}</style><style/><path d="M4.3 84.6h42.2L70.7 107V84.6H103v-80H4.3v80zm15.9-61.3h18.5l35.6 33.2V23.3h11.8v42.9H68.2L32 32.4v33.8H20.2V23.3zm139.6 7.4L147 49h25.6z"/><path d="M111.3 84.6H210v-80h-98.7v80zm41-61.5H168l30.8 43.2h-14.1l-5.8-8.3h-38.1l-5.8 8.3h-13.5l30.8-43.2zm66 61.5H317v-80h-98.7v80zm15.5-61.3h66.7V33h-27.2v33.2h-12.2V33h-27.3v-9.7zm91.5-18.7v80H424v-80h-98.7zm76.5 56.7c-3.2 3.2-10.2 5.7-26.8 5.7-12.3 0-24.1-1.9-30.7-4.7v-10c6.3 2.8 20.1 5.5 30.7 5.5 9.3 0 15.8-.3 17.5-2.1.6-.6.7-1.3.7-2 0-.8-.2-1.3-.7-1.8-1-1-2.6-1.7-17.4-2.1-15.7-.4-23.4-2-27-5.6-1.7-1.7-2.6-4.4-2.6-7.5 0-3.3.6-6.2 3.3-8.9 3.6-3.6 10.7-5.3 25.1-5.3 10.8 0 21.6 1.7 27.3 4v10.1c-6.5-2.8-17.8-4.8-27.2-4.8-10.4 0-14.8.6-16.2 2-.5.5-.8 1.1-.8 1.9 0 .9.2 1.5.7 2 1.3 1.3 6.1 1.7 17.3 1.9 16.4.4 23.5 1.8 27 5.2 1.8 1.8 2.8 4.7 2.8 7.7.1 3.2-.6 6.4-3 8.8z"/></svg>