<svg id="Layer_1" data-name="Layer 1" xmlns="http://www.w3.org/2000/svg" viewBox="0 0 275 435.35001"><defs><style>.cls-1{fill:#fff;}</style></defs><g id="Layer_2" data-name="Layer 2"><g id="Layer_2-2" data-name="Layer 2-2"><path class="cls-1" d="M50.721,427.97636H33.77269V359.79269H8.82919V345.67108H74.75385v14.12164H50.721Z"/><path class="cls-1" d="M101.84989,359.79269H86.04878V345.67108h15.80111Zm0,68.18363H86.04878v-60.969h15.80111Z"/><path class="cls-1" d="M135.71108,427.97636H118.7864V345.67108h16.92468v36.132l32.18175-36.132h20.02339l-32.85588,35.48151L191.41705,428H171.15712l-27.00144-36.36855-8.46826,8.81125Z"/><path class="cls-1" d="M221.95482,427.97636l-27.77021-82.30528H211.2394l18.2848,61.98621L247.466,345.67108h17.05479l-28.21961,82.30528Z"/><polygon class="cls-1" points="136.468 57.833 53.063 105.982 53.063 154.13 94.777 130.038 94.777 226.974 136.468 251.03 136.468 105.97 178.159 81.901 136.468 57.833"/><polygon class="cls-1" points="178.147 226.997 219.838 202.917 219.838 105.97 219.779 105.934 178.147 129.967 178.147 226.997"/><path class="cls-1" d="M10.213,80.08009l-1.18272.67415V228.23908L136.7637,301.99334l126.55074-73.0801,1.18272-.67416V80.75424L136.7637,7ZM20.46712,221.65134V87.342L136.78734,20.17547,253.10758,87.342V221.65134L136.78734,288.81785Z"/></g></g></svg>