<svg xmlns="http://www.w3.org/2000/svg" role="img" viewBox="31.08 10.58 449.34 489.84"><style>svg {fill-rule:evenodd;clip-rule:evenodd;stroke-linejoin:round;stroke-miterlimit:2}</style><g transform="translate(-562)"><path id="ovn-kubernetes-stacked-black" fill="none" d="M562 0H1074V512H562z"/><g id="ovn-kubernetes-stacked-black1"><g><g><path fill-rule="nonzero" d="M0.328,0.008C0.271,0.008 0.22,-0.004 0.176,-0.028C0.131,-0.052 0.096,-0.084 0.071,-0.126C0.045,-0.168 0.032,-0.216 0.032,-0.269C0.032,-0.323 0.045,-0.371 0.071,-0.413C0.096,-0.454 0.131,-0.487 0.176,-0.51C0.22,-0.534 0.27,-0.546 0.328,-0.546C0.385,-0.546 0.436,-0.534 0.48,-0.51C0.525,-0.487 0.559,-0.454 0.585,-0.413C0.61,-0.371 0.623,-0.323 0.623,-0.269C0.623,-0.215 0.61,-0.168 0.585,-0.126C0.56,-0.084 0.525,-0.052 0.48,-0.028C0.435,-0.004 0.385,0.008 0.328,0.008ZM0.328,-0.12C0.354,-0.12 0.377,-0.126 0.398,-0.138C0.418,-0.15 0.435,-0.167 0.447,-0.189C0.459,-0.212 0.465,-0.239 0.465,-0.269C0.465,-0.3 0.459,-0.327 0.447,-0.349C0.435,-0.371 0.418,-0.388 0.398,-0.4C0.377,-0.412 0.354,-0.418 0.328,-0.418C0.302,-0.418 0.278,-0.412 0.258,-0.4C0.237,-0.388 0.221,-0.371 0.209,-0.349C0.196,-0.327 0.19,-0.3 0.19,-0.269C0.19,-0.239 0.196,-0.212 0.209,-0.189C0.221,-0.167 0.237,-0.15 0.258,-0.138C0.278,-0.126 0.302,-0.12 0.328,-0.12Z" transform="translate(604.885 490.843) scale(51.3154)"/></g><g><path fill-rule="nonzero" d="M0.218,-0L-0.008,-0.538L0.153,-0.538L0.341,-0.075L0.261,-0.075L0.456,-0.538L0.606,-0.538L0.379,-0L0.218,-0Z" transform="translate(637.73 490.843) scale(51.3154)"/></g><g><path fill-rule="nonzero" d="M0.072,-0L0.072,-0.538L0.221,-0.538L0.221,-0.389L0.193,-0.434C0.212,-0.47 0.24,-0.498 0.276,-0.517C0.312,-0.536 0.353,-0.546 0.399,-0.546C0.441,-0.546 0.48,-0.537 0.513,-0.52C0.547,-0.504 0.573,-0.478 0.593,-0.443C0.612,-0.408 0.622,-0.363 0.622,-0.308L0.622,-0L0.466,-0L0.466,-0.284C0.466,-0.328 0.456,-0.36 0.437,-0.38C0.418,-0.401 0.392,-0.411 0.357,-0.411C0.332,-0.411 0.31,-0.406 0.29,-0.395C0.271,-0.385 0.256,-0.369 0.245,-0.348C0.234,-0.327 0.228,-0.299 0.228,-0.266L0.228,-0L0.072,-0Z" transform="translate(668.424 490.843) scale(51.3154)"/></g><g><path fill-rule="nonzero" d="M0.052 -0.344H0.33499999999999996V-0.21899999999999997H0.052z" transform="translate(703.86 490.843) scale(51.3154)"/></g><g><path fill-rule="nonzero" d="M0.201,-0.11L0.205,-0.3L0.456,-0.538L0.642,-0.538L0.401,-0.293L0.32,-0.227L0.201,-0.11ZM0.072,-0L0.072,-0.742L0.228,-0.742L0.228,-0L0.072,-0ZM0.473,-0L0.291,-0.226L0.389,-0.347L0.662,-0L0.473,-0Z" transform="translate(723.687 490.843) scale(51.3154)"/></g><g><path fill-rule="nonzero" d="M0.299,0.008C0.254,0.008 0.214,-0.001 0.18,-0.018C0.145,-0.035 0.118,-0.062 0.098,-0.097C0.078,-0.133 0.069,-0.179 0.069,-0.234L0.069,-0.538L0.225,-0.538L0.225,-0.257C0.225,-0.212 0.234,-0.179 0.253,-0.158C0.272,-0.137 0.299,-0.127 0.334,-0.127C0.358,-0.127 0.379,-0.132 0.398,-0.143C0.417,-0.153 0.431,-0.169 0.442,-0.191C0.453,-0.212 0.458,-0.239 0.458,-0.272L0.458,-0.538L0.614,-0.538L0.614,-0L0.466,-0L0.466,-0.148L0.494,-0.105C0.475,-0.068 0.448,-0.04 0.413,-0.021C0.379,-0.002 0.34,0.008 0.299,0.008Z" transform="translate(756.587 490.843) scale(51.3154)"/></g><g><path fill-rule="nonzero" d="M0.39,0.008C0.343,0.008 0.302,-0.002 0.268,-0.022C0.234,-0.042 0.208,-0.072 0.19,-0.113C0.172,-0.154 0.163,-0.206 0.163,-0.269C0.163,-0.332 0.172,-0.384 0.191,-0.425C0.21,-0.465 0.237,-0.496 0.271,-0.516C0.305,-0.536 0.345,-0.546 0.39,-0.546C0.44,-0.546 0.486,-0.534 0.526,-0.512C0.567,-0.489 0.599,-0.457 0.622,-0.416C0.646,-0.374 0.658,-0.325 0.658,-0.269C0.658,-0.213 0.646,-0.164 0.622,-0.123C0.599,-0.081 0.567,-0.049 0.526,-0.027C0.486,-0.004 0.44,0.008 0.39,0.008ZM0.072,-0L0.072,-0.742L0.228,-0.742L0.228,-0.429L0.218,-0.27L0.221,-0.11L0.221,-0L0.072,-0ZM0.363,-0.12C0.389,-0.12 0.412,-0.126 0.433,-0.138C0.453,-0.15 0.47,-0.167 0.482,-0.189C0.494,-0.212 0.5,-0.239 0.5,-0.269C0.5,-0.3 0.494,-0.327 0.482,-0.349C0.47,-0.371 0.453,-0.388 0.433,-0.4C0.412,-0.412 0.389,-0.418 0.363,-0.418C0.337,-0.418 0.314,-0.412 0.293,-0.4C0.272,-0.388 0.256,-0.371 0.244,-0.349C0.232,-0.327 0.226,-0.3 0.226,-0.269C0.226,-0.239 0.232,-0.212 0.244,-0.189C0.256,-0.167 0.272,-0.15 0.293,-0.138C0.314,-0.126 0.337,-0.12 0.363,-0.12Z" transform="translate(791.817 490.843) scale(51.3154)"/></g><g><path fill-rule="nonzero" d="M0.339,0.008C0.277,0.008 0.224,-0.004 0.178,-0.028C0.131,-0.052 0.096,-0.085 0.07,-0.127C0.045,-0.168 0.032,-0.216 0.032,-0.269C0.032,-0.323 0.045,-0.371 0.07,-0.412C0.094,-0.454 0.129,-0.487 0.172,-0.51C0.215,-0.534 0.264,-0.546 0.319,-0.546C0.372,-0.546 0.419,-0.534 0.461,-0.512C0.504,-0.49 0.537,-0.458 0.562,-0.416C0.586,-0.375 0.599,-0.325 0.599,-0.267C0.599,-0.261 0.599,-0.254 0.598,-0.246C0.598,-0.239 0.597,-0.232 0.596,-0.225L0.159,-0.225L0.159,-0.316L0.514,-0.316L0.454,-0.289C0.454,-0.317 0.448,-0.341 0.437,-0.362C0.425,-0.383 0.41,-0.399 0.39,-0.411C0.37,-0.422 0.346,-0.428 0.32,-0.428C0.293,-0.428 0.27,-0.422 0.249,-0.411C0.229,-0.399 0.213,-0.383 0.202,-0.362C0.191,-0.341 0.185,-0.316 0.185,-0.287L0.185,-0.263C0.185,-0.233 0.192,-0.208 0.205,-0.186C0.218,-0.163 0.236,-0.146 0.26,-0.135C0.284,-0.123 0.311,-0.117 0.343,-0.117C0.372,-0.117 0.397,-0.121 0.418,-0.13C0.44,-0.138 0.46,-0.151 0.478,-0.169L0.561,-0.079C0.536,-0.051 0.505,-0.029 0.468,-0.015C0.431,0 0.388,0.008 0.339,0.008Z" transform="translate(827.242 490.843) scale(51.3154)"/></g><g><path fill-rule="nonzero" d="M0.072,-0L0.072,-0.538L0.221,-0.538L0.221,-0.386L0.2,-0.43C0.216,-0.468 0.242,-0.497 0.277,-0.516C0.312,-0.536 0.355,-0.546 0.406,-0.546L0.406,-0.402C0.4,-0.403 0.393,-0.403 0.388,-0.404C0.383,-0.404 0.377,-0.404 0.371,-0.404C0.328,-0.404 0.294,-0.392 0.267,-0.368C0.241,-0.343 0.228,-0.305 0.228,-0.254L0.228,-0L0.072,-0Z" transform="translate(859.637 490.843) scale(51.3154)"/></g><g><path fill-rule="nonzero" d="M0.072,-0L0.072,-0.538L0.221,-0.538L0.221,-0.389L0.193,-0.434C0.212,-0.47 0.24,-0.498 0.276,-0.517C0.312,-0.536 0.353,-0.546 0.399,-0.546C0.441,-0.546 0.48,-0.537 0.513,-0.52C0.547,-0.504 0.573,-0.478 0.593,-0.443C0.612,-0.408 0.622,-0.363 0.622,-0.308L0.622,-0L0.466,-0L0.466,-0.284C0.466,-0.328 0.456,-0.36 0.437,-0.38C0.418,-0.401 0.392,-0.411 0.357,-0.411C0.332,-0.411 0.31,-0.406 0.29,-0.395C0.271,-0.385 0.256,-0.369 0.245,-0.348C0.234,-0.327 0.228,-0.299 0.228,-0.266L0.228,-0L0.072,-0Z" transform="translate(881.562 490.843) scale(51.3154)"/></g><g><path fill-rule="nonzero" d="M0.339,0.008C0.277,0.008 0.224,-0.004 0.178,-0.028C0.131,-0.052 0.096,-0.085 0.07,-0.127C0.045,-0.168 0.032,-0.216 0.032,-0.269C0.032,-0.323 0.045,-0.371 0.07,-0.412C0.094,-0.454 0.129,-0.487 0.172,-0.51C0.215,-0.534 0.264,-0.546 0.319,-0.546C0.372,-0.546 0.419,-0.534 0.461,-0.512C0.504,-0.49 0.537,-0.458 0.562,-0.416C0.586,-0.375 0.599,-0.325 0.599,-0.267C0.599,-0.261 0.599,-0.254 0.598,-0.246C0.598,-0.239 0.597,-0.232 0.596,-0.225L0.159,-0.225L0.159,-0.316L0.514,-0.316L0.454,-0.289C0.454,-0.317 0.448,-0.341 0.437,-0.362C0.425,-0.383 0.41,-0.399 0.39,-0.411C0.37,-0.422 0.346,-0.428 0.32,-0.428C0.293,-0.428 0.27,-0.422 0.249,-0.411C0.229,-0.399 0.213,-0.383 0.202,-0.362C0.191,-0.341 0.185,-0.316 0.185,-0.287L0.185,-0.263C0.185,-0.233 0.192,-0.208 0.205,-0.186C0.218,-0.163 0.236,-0.146 0.26,-0.135C0.284,-0.123 0.311,-0.117 0.343,-0.117C0.372,-0.117 0.397,-0.121 0.418,-0.13C0.44,-0.138 0.46,-0.151 0.478,-0.169L0.561,-0.079C0.536,-0.051 0.505,-0.029 0.468,-0.015C0.431,0 0.388,0.008 0.339,0.008Z" transform="translate(917.202 490.843) scale(51.3154)"/></g><g><path fill-rule="nonzero" d="M0.292,0.008C0.229,0.008 0.179,-0.008 0.144,-0.041C0.109,-0.073 0.091,-0.121 0.091,-0.185L0.091,-0.657L0.247,-0.657L0.247,-0.187C0.247,-0.165 0.253,-0.147 0.265,-0.135C0.277,-0.122 0.293,-0.116 0.314,-0.116C0.339,-0.116 0.36,-0.122 0.377,-0.136L0.419,-0.026C0.403,-0.014 0.384,-0.006 0.362,-0.001C0.339,0.005 0.316,0.008 0.292,0.008ZM0.008,-0.418L0.008,-0.538L0.381,-0.538L0.381,-0.418L0.008,-0.418Z" transform="translate(949.596 490.843) scale(51.3154)"/></g><g><path fill-rule="nonzero" d="M0.339,0.008C0.277,0.008 0.224,-0.004 0.178,-0.028C0.131,-0.052 0.096,-0.085 0.07,-0.127C0.045,-0.168 0.032,-0.216 0.032,-0.269C0.032,-0.323 0.045,-0.371 0.07,-0.412C0.094,-0.454 0.129,-0.487 0.172,-0.51C0.215,-0.534 0.264,-0.546 0.319,-0.546C0.372,-0.546 0.419,-0.534 0.461,-0.512C0.504,-0.49 0.537,-0.458 0.562,-0.416C0.586,-0.375 0.599,-0.325 0.599,-0.267C0.599,-0.261 0.599,-0.254 0.598,-0.246C0.598,-0.239 0.597,-0.232 0.596,-0.225L0.159,-0.225L0.159,-0.316L0.514,-0.316L0.454,-0.289C0.454,-0.317 0.448,-0.341 0.437,-0.362C0.425,-0.383 0.41,-0.399 0.39,-0.411C0.37,-0.422 0.346,-0.428 0.32,-0.428C0.293,-0.428 0.27,-0.422 0.249,-0.411C0.229,-0.399 0.213,-0.383 0.202,-0.362C0.191,-0.341 0.185,-0.316 0.185,-0.287L0.185,-0.263C0.185,-0.233 0.192,-0.208 0.205,-0.186C0.218,-0.163 0.236,-0.146 0.26,-0.135C0.284,-0.123 0.311,-0.117 0.343,-0.117C0.372,-0.117 0.397,-0.121 0.418,-0.13C0.44,-0.138 0.46,-0.151 0.478,-0.169L0.561,-0.079C0.536,-0.051 0.505,-0.029 0.468,-0.015C0.431,0 0.388,0.008 0.339,0.008Z" transform="translate(971.059 490.843) scale(51.3154)"/></g><g><path fill-rule="nonzero" d="M0.253,0.008C0.207,0.008 0.163,0.002 0.121,-0.009C0.079,-0.02 0.045,-0.034 0.02,-0.05L0.072,-0.162C0.096,-0.146 0.125,-0.134 0.159,-0.124C0.193,-0.115 0.226,-0.11 0.259,-0.11C0.295,-0.11 0.321,-0.115 0.336,-0.123C0.351,-0.132 0.358,-0.144 0.358,-0.159C0.358,-0.172 0.352,-0.181 0.341,-0.188C0.329,-0.194 0.313,-0.199 0.294,-0.202C0.275,-0.206 0.254,-0.209 0.231,-0.212C0.207,-0.215 0.184,-0.22 0.161,-0.226C0.138,-0.232 0.116,-0.24 0.097,-0.251C0.078,-0.262 0.062,-0.278 0.051,-0.297C0.039,-0.316 0.033,-0.341 0.033,-0.372C0.033,-0.406 0.043,-0.436 0.063,-0.462C0.083,-0.488 0.111,-0.509 0.148,-0.523C0.185,-0.538 0.23,-0.546 0.282,-0.546C0.319,-0.546 0.356,-0.542 0.394,-0.534C0.432,-0.526 0.464,-0.514 0.489,-0.499L0.437,-0.388C0.411,-0.403 0.385,-0.414 0.358,-0.419C0.332,-0.425 0.307,-0.428 0.282,-0.428C0.247,-0.428 0.222,-0.423 0.206,-0.414C0.19,-0.404 0.182,-0.393 0.182,-0.378C0.182,-0.365 0.188,-0.355 0.199,-0.348C0.211,-0.341 0.227,-0.336 0.246,-0.332C0.265,-0.328 0.286,-0.325 0.309,-0.322C0.333,-0.318 0.356,-0.314 0.379,-0.308C0.402,-0.302 0.423,-0.294 0.442,-0.283C0.462,-0.272 0.477,-0.257 0.489,-0.237C0.501,-0.218 0.507,-0.193 0.507,-0.163C0.507,-0.13 0.497,-0.1 0.477,-0.075C0.457,-0.049 0.428,-0.029 0.39,-0.014C0.353,0 0.307,0.008 0.253,0.008Z" transform="translate(1003.454 490.843) scale(51.3154)"/></g></g><g id="ovn-k8s-black" transform="translate(602.29 -71.803) scale(.1536)"><g id="path3055-3"><path fill="#fff" fill-rule="nonzero" d="M1396.16,599.804C1371.37,601.053 1347.08,607.2 1324.71,617.883L349.785,1083.69C298.703,1108.08 261.534,1154.3 248.913,1209.12L8.391,2255.44C-2.825,2304.12 6.312,2355.3 33.702,2397.2C36.991,2402.27 40.528,2407.18 44.301,2411.91L719.108,3250.89C754.468,3294.84 808.176,3320.47 864.868,3320.46L1947.03,3320.21C2003.7,3320.25 2057.4,3294.67 2092.79,3250.76L2767.35,2411.66C2802.72,2367.69 2816,2310.03 2803.38,2255.19L2562.49,1208.87C2549.86,1154.05 2512.7,1107.83 2461.61,1083.44L1486.56,617.883C1458.43,604.445 1427.34,598.227 1396.16,599.804L1396.16,599.804Z" transform="translate(-1.481 -1.608)"/></g><g id="path3055"><path fill-rule="nonzero" d="M1396.68,658.594C1373.2,659.777 1350.19,665.6 1329.01,675.72L405.501,1116.98C357.113,1140.09 321.905,1183.87 309.95,1235.8L82.115,2226.98C71.49,2273.1 80.145,2321.58 106.091,2361.27C109.207,2366.08 112.557,2370.73 116.131,2375.21L755.343,3169.97C788.838,3211.6 839.713,3235.89 893.414,3235.88L1918.49,3235.64C1972.17,3235.68 2023.05,3211.44 2056.56,3169.85L2695.54,2374.97C2729.05,2333.32 2741.63,2278.7 2729.67,2226.74L2501.49,1235.56C2489.53,1183.63 2454.32,1139.85 2405.93,1116.74L1482.31,675.72C1455.67,662.99 1426.22,657.101 1396.68,658.594Z" transform="translate(3.719 11.282)"/></g><g fill="#fff" transform="translate(-5.122)"><path id="path3059" d="M1409.45,750.419C1448.07,750.415 1479.38,785.323 1479.38,828.392C1479.4,834.498 1479.74,842.703 1479.53,848.35C1478.61,873.191 1473.2,892.198 1469.96,915.085C1464.07,964.07 1459,1004.68 1462.04,1042.42C1464.8,1061.31 1475.8,1068.76 1484.9,1077.51C1485.11,1082.59 1485.92,1099.51 1486.54,1108.86C1708.89,1128.69 1915.39,1230.74 2067.06,1390.37L2093.66,1371.32C2102.68,1371.85 2122.54,1374.59 2136.1,1366.67C2167.4,1345.52 2195.9,1316.2 2230.39,1281.04C2246.19,1264.22 2257.79,1248.2 2276.56,1231.98C2280.85,1228.28 2287.33,1223.33 2292.1,1219.54C2325.65,1192.68 2372.31,1195.55 2396.4,1225.85C2420.48,1256.15 2412.76,1302.46 2379.22,1329.32C2374.48,1333.14 2368.33,1338.43 2363.82,1341.77C2343.9,1356.53 2325.55,1364.1 2305.7,1375.82C2263.87,1401.75 2229.19,1423.24 2201.69,1449.16C2188.7,1463.11 2189.68,1476.3 2188.55,1488.9C2184.67,1492.48 2170.99,1504.63 2163.74,1511.25C2224.02,1601.29 2269.22,1703.51 2294.79,1815.26C2320.13,1925.98 2324.07,2036.64 2309.43,2142.96L2337.68,2151.2C2342.75,2158.41 2353.19,2175.94 2367.86,2181.65C2403.84,2193.02 2444.34,2197.21 2493.23,2202.35C2516.18,2204.26 2535.98,2203.12 2560.31,2207.74C2566.14,2208.85 2574.64,2211.17 2580.63,2212.54C2621.85,2222.52 2648.33,2260.57 2639.82,2298.04C2631.3,2335.51 2591.02,2358.28 2549.55,2349.32C2549.25,2349.25 2548.82,2349.24 2548.5,2349.17C2548.03,2349.07 2547.63,2348.84 2547.17,2348.72C2541.39,2347.45 2534.14,2346.19 2529.09,2344.83C2505.16,2338.4 2487.84,2328.8 2466.33,2320.53C2420.06,2303.87 2381.74,2289.96 2344.4,2284.54C2325.44,2283.04 2315.76,2292.12 2305.25,2299.09C2300.14,2298.06 2284.4,2295.26 2275.36,2293.84C2208.35,2505.2 2065.67,2688.21 1872.22,2802.85C1875.56,2810.95 1881.22,2828.16 1883.87,2831.21C1879.45,2843.05 1872.82,2854.37 1878.5,2872.59C1892.07,2907.92 1914.02,2942.45 1940.5,2984.02C1953.32,3003.23 1966.44,3017.99 1978.01,3039.97C1980.78,3045.23 1984.44,3053.3 1987.12,3058.86C2005.1,3097.45 1991.91,3141.91 1957.39,3158.6C1922.59,3175.43 1879.33,3157.66 1860.7,3118.86C1858.04,3113.37 1854.31,3106.05 1852.05,3100.86C1842.14,3078.08 1838.68,3058.55 1831.71,3036.51C1815.84,2989.82 1802.81,2951.16 1783.76,2918.48C1773.1,2902.67 1760.02,2900.66 1748.04,2896.75C1745.83,2892.91 1737.55,2877.67 1733.1,2869.75C1694.47,2884.4 1654.51,2896.6 1613.12,2906.03C1431.66,2947.38 1250.01,2930.62 1087.74,2868.1L1071.89,2896.89C1060.1,2900.06 1048.73,2903.27 1041.76,2911.62C1016.29,2942.12 1006.13,2991.08 987.623,3037.73C980.656,3059.76 977.358,3079.27 967.45,3102.06C965.207,3107.21 961.437,3114.43 958.778,3119.91C958.76,3119.96 958.797,3120.02 958.778,3120.06C958.752,3120.11 958.66,3120.15 958.633,3120.2C939.971,3158.88 896.851,3176.58 862.109,3159.8C827.584,3143.11 814.39,3098.67 832.363,3060.07C835.035,3054.51 838.572,3046.43 841.34,3041.16C852.908,3019.18 866.021,3004.28 878.84,2985.07C905.314,2943.5 928.554,2906.21 942.128,2870.88C945.538,2859.15 940.496,2843.09 935.918,2831.21L948.627,2800.61C762.481,2689.9 615.462,2513.46 545.316,2295.18L514.846,2300.43C506.674,2295.84 490.237,2284.96 474.644,2286.18C437.308,2291.61 398.988,2305.52 352.717,2322.18C331.209,2330.45 313.884,2339.89 289.96,2346.32C284.904,2347.67 277.658,2349.09 271.878,2350.37C271.413,2350.48 270.995,2350.71 270.527,2350.82C270.215,2350.89 269.78,2350.9 269.481,2350.97C228.016,2359.94 187.757,2337.16 179.231,2299.68C170.706,2262.22 197.182,2224.18 238.4,2214.18C238.707,2214.12 239.127,2213.97 239.446,2213.89C239.65,2213.85 239.837,2213.79 240.041,2213.75C245.901,2212.37 253.363,2210.41 258.718,2209.39C283.052,2204.76 302.866,2205.91 325.819,2204C374.708,2198.85 415.206,2194.67 451.188,2183.3C462.597,2178.6 473.505,2162.86 481.223,2152.86L510.502,2144.3C477.686,1916.2 533.227,1692.34 653.214,1511.1L630.788,1491C629.359,1482.24 627.483,1461.99 616.744,1450.5C589.242,1424.58 554.579,1403.09 512.755,1377.16C492.903,1365.44 474.7,1357.89 454.776,1343.12C450.538,1339.98 444.891,1335.17 440.281,1331.42C439.938,1331.15 439.575,1330.95 439.235,1330.67C405.683,1303.83 397.978,1257.5 422.054,1227.19C435.597,1210.14 456.283,1201.71 477.781,1202.45C494.501,1203.03 511.814,1209.14 526.493,1220.89C531.263,1224.68 537.77,1229.66 542.034,1233.34C560.81,1249.55 572.257,1265.56 588.06,1282.38C622.549,1317.54 651.053,1346.73 682.348,1367.88C698.784,1377.49 711.4,1373.61 723.886,1371.91C727.904,1374.89 741.42,1384.63 749.143,1389.92C868.169,1263.16 1024.5,1169.28 1206.07,1127.9C1248.27,1118.29 1290.52,1111.9 1332.49,1108.41L1334.13,1078.72C1343.44,1069.67 1353.89,1056.65 1356.85,1042.42C1359.89,1004.68 1354.96,964.07 1349.08,915.086C1345.83,892.199 1340.44,873.191 1339.52,848.35C1339.33,843.255 1339.61,836.199 1339.66,830.346C1339.65,829.689 1339.52,829.054 1339.52,828.393C1339.51,785.324 1370.83,750.423 1409.45,750.419ZM895.184,1725.98C895.184,1679.19 791.276,1634.98 791.276,1634.98C709.767,1768.26 671.155,1928.12 689.073,2092.57C689.073,2092.57 895.184,2046.48 895.184,2038.64C895.184,2036.7 895.709,2034.75 895.709,2032.7C895.709,2001.74 895.184,1734.35 895.184,1725.98ZM895.184,2237.06C895.184,2231.95 728.519,2264.13 728.519,2264.13C784.234,2418.85 888.391,2544.96 1019.15,2629.18C1019.15,2629.18 1065.59,2536.55 1057.95,2536.55L979.822,2536.55C940.278,2536.55 895.184,2497.96 895.184,2458.42C895.184,2429.23 895.476,2362.59 895.476,2334.72C895.476,2334.72 895.184,2289.42 895.184,2237.06ZM1266.29,2536.55C1243.7,2536.55 1177.25,2705.83 1177.25,2705.83C1300.1,2747.84 1435.76,2757.24 1571.87,2726.22C1596.15,2720.69 1619.89,2714.03 1642.99,2706.26C1642.99,2706.26 1575,2536.66 1552.76,2536.55C1488.67,2536.23 1288.87,2536.55 1266.29,2536.55ZM1764.35,2536.55C1750.06,2536.55 1801.24,2630.53 1801.24,2630.53C1937.5,2543.41 2039.47,2413.21 2092.76,2262.93C2092.76,2262.93 1923.86,2233.44 1923.86,2237.06L1923.86,2458.09C1923.86,2496.52 1877.65,2536.55 1839.22,2536.55L1764.35,2536.55ZM1923.86,2031.45C1923.86,2041.57 2131.02,2091.36 2131.02,2091.36C2138.51,2014.74 2133.96,1935.47 2115.78,1856.05C2097.39,1775.66 2066.49,1701.51 2025.68,1635.12C2025.68,1635.12 1923.86,1676.94 1923.86,1722.72L1923.86,2031.45ZM1897.82,1507.87C1910.91,1507.87 1916.14,1497.6 1916.14,1497.6C1803.39,1386.78 1656.26,1314.47 1497.16,1294.83C1497.16,1294.83 1492.82,1507.87 1507.18,1507.87L1897.82,1507.87ZM1308.61,1507.87C1320.32,1507.87 1321.89,1294.83 1321.89,1294.83C1297.1,1297.84 1272.21,1302.06 1247.32,1307.73C1111.05,1338.79 992.794,1406.22 900.349,1497.46C900.349,1497.46 914.703,1507.87 921.227,1507.87L1308.61,1507.87ZM998.489,1561.14C970.297,1561.14 947.099,1584.63 947.099,1613.17C947.099,1641.71 970.297,1665.19 998.489,1665.19C1026.68,1665.19 1049.88,1641.71 1049.88,1613.17C1049.88,1584.63 1026.68,1561.14 998.489,1561.14ZM1152.66,1561.14C1124.47,1561.14 1101.27,1584.63 1101.27,1613.17C1101.27,1641.71 1124.47,1665.19 1152.66,1665.19C1180.85,1665.19 1204.05,1641.71 1204.05,1613.17C1204.05,1584.63 1180.85,1561.14 1152.66,1561.14ZM1820.73,1561.14C1792.54,1561.14 1769.34,1584.63 1769.34,1613.17C1769.34,1641.71 1792.54,1665.19 1820.73,1665.19C1848.92,1665.19 1872.12,1641.71 1872.12,1613.17C1872.12,1584.63 1848.92,1561.14 1820.73,1561.14ZM1409.61,1561.14C1381.42,1561.14 1358.22,1584.63 1358.22,1613.17C1358.22,1641.71 1381.42,1665.19 1409.61,1665.19C1437.8,1665.19 1461,1641.71 1461,1613.17C1461,1584.63 1437.8,1561.14 1409.61,1561.14ZM1160.72,1732.19C1108.79,1732.19 1067.01,1774.49 1067.01,1827.06L1067.01,2330.95C1067.01,2383.52 1108.79,2425.86 1160.72,2425.86L1658.46,2425.86C1710.39,2425.86 1752.21,2383.52 1752.21,2330.95L1752.21,1827.06C1752.21,1774.49 1710.39,1732.19 1658.46,1732.19L1160.72,1732.19ZM1666.56,1561.14C1638.37,1561.14 1615.17,1584.63 1615.17,1613.17C1615.17,1641.71 1638.37,1665.19 1666.56,1665.19C1694.75,1665.19 1717.95,1641.71 1717.95,1613.17C1717.95,1584.63 1694.75,1561.14 1666.56,1561.14Z"/><g fill-rule="nonzero" transform="matrix(17.13 0 0 17.3417 -2025.92 -1688.55)"><path id="rect5" d="M206.201,203.082C205.968,202.925 205.666,202.909 205.416,203.039C205.167,203.17 205.01,203.426 205.01,203.705C205.01,204.461 205.01,205.36 205.01,205.981C205.01,206.396 204.67,206.732 204.25,206.732C201.144,206.732 189.431,206.732 186.32,206.732C185.898,206.732 185.557,207.07 185.557,207.486C185.557,208.482 185.557,210.227 185.557,211.222C185.557,211.422 185.637,211.613 185.78,211.755C185.923,211.896 186.116,211.975 186.318,211.975C189.428,211.975 201.144,211.975 204.25,211.975C204.67,211.975 205.01,212.311 205.01,212.726L205.01,215.005C205.01,215.288 205.169,215.548 205.422,215.681C205.676,215.813 205.983,215.797 206.22,215.637C207.777,214.592 210.284,212.909 210.284,212.909C210.284,212.909 213.136,210.991 214.645,209.977C214.851,209.839 214.973,209.609 214.973,209.364C214.973,209.119 214.85,208.89 214.645,208.752C213.136,207.739 210.284,205.823 210.284,205.823C210.284,205.823 207.757,204.126 206.201,203.082Z"/><path id="rect6" d="M194.917,218.914C195.15,218.757 195.451,218.741 195.7,218.871C195.949,219.001 196.105,219.256 196.105,219.535C196.105,220.292 196.105,221.193 196.105,221.815C196.105,222.014 196.185,222.205 196.327,222.346C196.47,222.487 196.663,222.566 196.865,222.566C199.972,222.566 211.689,222.566 214.797,222.566C214.998,222.566 215.191,222.645 215.334,222.786C215.477,222.926 215.557,223.117 215.557,223.317C215.557,224.313 215.557,226.064 215.557,227.061C215.557,227.26 215.477,227.451 215.334,227.592C215.191,227.732 214.998,227.811 214.797,227.811C211.695,227.811 200.012,227.811 196.881,227.811C196.452,227.811 196.105,228.155 196.105,228.578L196.105,230.864C196.105,231.142 195.949,231.397 195.7,231.527C195.451,231.657 195.15,231.641 194.917,231.485C193.362,230.441 190.832,228.742 190.832,228.742C190.832,228.742 187.994,226.835 186.481,225.819C186.273,225.679 186.149,225.446 186.149,225.197C186.149,224.949 186.273,224.716 186.482,224.577C187.995,223.561 190.832,221.657 190.832,221.657C190.832,221.657 193.362,219.958 194.917,218.914Z"/></g></g></g></g></g></svg>