<svg xmlns="http://www.w3.org/2000/svg" role="img" viewBox="11.48 13.48 807.04 311.54"><defs><style>.cls-1{fill:#fff}</style></defs><path d="M456.61075 156.56483c.05267 1.8202-.89258 3.52033-2.45947 4.43158-4.65881 2.69068-10.44647 2.69068-15.11548-.00567-1.58392-.90448-2.53485-2.60114-2.48102-4.50074v-38.55005h-13.86822v38.22254c-.17054 5.97412 2.70373 11.50506 7.6538 14.77148 4.85663 3.34241 10.54737 5.01184 16.23249 5.01075 5.6698 0 11.33447-1.66156 16.15368-4.979 4.95972-3.2483 7.92865-8.94813 7.75068-14.79646v-38.2293h-13.86762l.00116 38.62487zm68.77881-30.65661c-1.9132-2.94507-4.58289-5.33374-7.7116-6.9029-3.44782-1.74658-7.29792-2.62042-11.17927-2.54333-4.19183.08838-8.33154.7027-12.35113 1.82983V92.2289h-13.86817v82.27527h18.45844c.0476.00116.09405.00116.14166.00116 10.70038 0 18.7367-2.59887 23.88568-7.72412 5.1728-5.14898 7.79547-12.677 7.79547-22.36859.00849-3.25458-.41595-6.49835-1.26031-9.63782-.8393-3.1361-2.15174-6.11407-3.91077-8.86657zm-26.50159 35.62768h-4.73816l.02839-30.40216c3.9538-1.26086 8.06066-1.8457 12.22814-1.73694l.1026.00232.10254-.00567c2.9848-.15925 5.77295 1.3374 7.29395 3.92321 1.93188 3.24207 2.9179 6.95056 2.85162 10.74909-.0476 6.29486-1.4162 10.83185-4.0683 13.48285-2.64477 2.64648-7.28826 3.9873-13.80078 3.9873zM419.066 97.403h-17.151l-29.172 33.346V97.403h-14.366v77.101h14.366v-24.356l6.677-7.603 24.449 31.942h17.259l-32.386-42.732 30.324-34.352zm167.83394 51.88772c-.00794-14.99878-4.18506-32.8775-23.93958-32.87579-7.39764-.29297-14.453 2.71277-19.3742 8.23523-4.79029 5.37573-7.22083 12.5943-7.22425 21.458-.05383 3.8116.4936 7.58802 1.63892 11.26478 1.14813 3.4931 2.9298 6.68817 5.30652 9.51141 2.55297 2.99445 5.83984 5.3349 9.50067 6.76636 4.03485 1.5868 8.26867 2.38922 12.55969 2.38922.25616 0 .51288-.00226.7696-.0091 5.75591-.03173 11.39397-1.10162 16.75774-3.17913l1.64289-.63587v-13.69366l-3.58326 1.53467c-4.97277 2.12848-10.4646 3.15417-15.94567 3.00683h-.04877c-4.90363 0-8.39276-1.32715-10.68335-4.07678-1.7732-2.08319-3.00293-4.50867-3.62744-7.12335h36.25158l-.0011-2.57282zm-35.90705-9.14251c.65229-2.67939 1.9585-5.18756 3.8014-7.24921 2.04461-2.27643 4.94555-3.56561 8.03124-3.51746l.08045.0011.0799-.00396c2.73205-.14277 5.24877 1.12152 6.74877 3.29876 1.47742 2.27643 2.50653 4.81916 3.03528 7.47077H550.9929zM788.715 117.94l-9.909 34.067-9.868-34.067h-12.47l-9.993 34.054-9.818-34.054h-14.68l17.818 56.564h14.243l8.901-32.413 9.007 32.413h13.676l17.747-56.564h-14.654zm-76.6681 4.12831c-12.51324-11.86493-32.34423-11.33789-44.208 1.17475-5.74744 6.0614-8.79059 13.99743-8.56903 22.3471.22156 8.33612 3.67108 16.0885 9.71375 21.83258 5.476 5.51392 12.98132 8.62512 20.66003 8.62512.31848 0 .63867-.00567.95776-.01586 8.51575-.02045 16.76062-3.57587 22.62024-9.75513 11.86438-12.51264 11.33734-32.34418-1.17474-44.20856zm-9.65258 36.21362c-6.51642 6.39234-17.0445 6.39234-23.55981.00452-5.888-6.89557-5.888-17.23266 0-24.12823 6.51641-6.38782 17.04455-6.38666 23.55981.00451 5.9441 6.8916 5.9441 17.227 0 24.1192zM637.438 92.229h13.868v82.275h-13.868zm-32.41856 4.56636c-3.01422 3.08563-4.6333 7.32569-4.44403 11.51923v9.62536h-8.03515v12.99488l8.01873.01648v43.55285h13.88404v-43.59594h13.59509v-12.96827h-13.5951v-4.91723c0-4.49335.80646-6.00415 1.15327-6.44507.21649-.27484 1.21612-1.17194 5.00164-1.17194h10.60572V92.35756l-15.14154.00055c-4.08362-.09803-8.11908 1.51367-11.04267 4.43725z" class="cls-1"/><path d="M358.377 192.171H803.37v58.987H358.377z" class="cls-1"/><path d="M454.31218 207.57602h13.32721c6.35078 0 10.90388 4.05212 10.90388 9.85883 0 5.80784-4.5531 9.85996-10.90388 9.85996h-6.18302v8.98266h-7.14419v-28.70145zm12.70041 13.2014c2.46528 0 4.17793-1.33635 4.17793-3.34257 0-2.0051-1.71265-3.34144-4.17793-3.34144h-5.55622v6.684h5.55622zm20.26739-13.2014h7.14419v28.70145h-7.1442v-28.70145zm17.59128 0h13.32722c6.35077 0 10.90388 4.05212 10.90388 9.85883 0 5.80784-4.55311 9.85996-10.90388 9.85996h-6.18302v8.98266h-7.1442v-28.70145zm12.70041 13.2014c2.46528 0 4.17794-1.33635 4.17794-3.34257 0-2.0051-1.71266-3.34144-4.17794-3.34144h-5.55621v6.684h5.55621zm27.41045-6.80982v4.47036h14.03676v6.39271h-14.03676v5.05523h15.45812v6.39157h-22.60231v-28.70145h22.6023v6.39158h-15.45811zm45.87563 15.9183v6.39157h-20.9724v-28.70145h7.1442v22.30988h13.8282zm8.52701-22.30988h7.1442v28.70145h-7.1442v-28.70145zm17.59129 0h7.1442l12.53378 16.96222v-16.96222h7.10226v28.70145h-7.10226l-12.53379-16.96221v16.96221h-7.1442v-28.70145zm44.41347 6.39158v4.47036h14.03675v6.39271h-14.03675v5.05523h15.45811v6.39157h-22.6023v-28.70145h22.6023v6.39158h-15.45811zm22.897 18.00613l4.05326-4.8036c2.7985 2.29752 5.93252 3.63387 9.44171 3.63387 2.67383 0 4.05212-1.08585 4.05212-2.6319 0-1.71265-1.33635-2.08896-5.51428-3.09094-6.14108-1.37942-10.69532-3.05013-10.69532-8.81604 0-5.51428 4.42842-9.19122 10.94581-9.19122 4.84668 0 8.60636 1.42136 11.6565 3.92743l-3.635 5.09717c-2.6319-2.00509-5.51428-3.05014-8.18812-3.05014-2.29865 0-3.59306 1.08699-3.59306 2.50721 0 1.7546 1.37829 2.33946 5.6401 3.2587 6.4335 1.37828 10.5695 3.21676 10.5695 8.60635 0 5.76478-4.38649 9.35784-11.48874 9.35784-5.09717 0-9.73415-1.67072-13.24447-4.80473z" class="cls-1"/><g><path d="M31.55267 216.18619l69.55367 86.48862c3.64724 4.53263 9.17646 7.17193 15.02344 7.17085l111.54404-.02439c5.84504.00404 11.37402-2.63055 15.02355-7.15866l69.52917-86.50075c3.64567-4.53318 5.01228-10.46569 3.7134-16.11926L291.11589 92.17543c-1.30492-5.64977-5.13144-10.40345-10.397-12.91726L180.21725 31.25363c-2.90212-1.3863-6.10883-2.02686-9.32568-1.8628-2.55262.13377-5.0526.7712-7.35363 1.875L63.03635 79.27036c-5.26864 2.51628-9.0954 7.2751-10.39711 12.92945L27.8517 200.05492c-1.16018 5.02278-.22033 10.29745 2.60537 14.62172a19.06274 19.06274 0 0 0 1.09559 1.50955zm115.47437 53.07447c-10.0161 0-18.16507-8.14897-18.16507-18.16502s8.14896-18.16501 18.16507-18.16501 18.16508 8.14896 18.16508 18.16501-8.14897 18.16502-18.16508 18.16502zm89.4875 0c-10.01599 0-18.16495-8.14897-18.16495-18.16502s8.14896-18.16501 18.16495-18.16501c10.0161 0 18.16508 8.14896 18.16508 18.16501s-8.14897 18.16502-18.16508 18.16502zm-11.66787-81.74393c9.25143 6.69495 14.1413 17.0165 14.1413 29.84816v4.97141l7.29954-6.9629 4.095 4.29397-13.86314 13.22523-13.8728-13.2262 4.095-4.29493 7.30148 6.96206v-4.96864c0-11.3395-4.0699-20.03366-12.09572-25.842l-17.06418-12.34853c-3.30921 3.45903-7.95786 5.62653-13.1114 5.62653-5.15328 0-9.8017-2.16726-13.11102-5.6261l-17.06357 12.3481c-7.57384 5.48093-12.09573 14.1524-12.09573 23.1957v7.61868l7.30051-6.96387 4.095 4.29397-13.86314 13.22523-13.8728-13.2262 4.095-4.29493 7.30052 6.96115v-7.61403c0-10.6248 5.2868-20.79375 14.1413-27.20186l17.0515-12.33935c-1.36396-2.54821-2.14264-5.4548-2.14264-8.5415 0-10.01605 8.1491-18.16502 18.16508-18.16502 10.0161 0 18.16507 8.14897 18.16507 18.16502 0 3.08646-.77868 5.99287-2.14239 8.54096l17.05223 12.33989zM92.51226 130.94382l7.3005 6.96115v-7.61404c0-10.62432 5.28682-20.79326 14.1413-27.20137l17.05103-12.33929c-1.3642-2.5484-2.143-5.45522-2.143-8.54217 0-10.01605 8.14897-18.16502 18.16495-18.16502 10.01611 0 18.16508 8.14897 18.16508 18.16502 0 3.0864-.77856 5.9927-2.14227 8.54072l17.05307 12.34074c9.25143 6.69495 14.1413 17.0165 14.1413 29.84816v4.97093l7.29954-6.9629 4.095 4.29396-13.86314 13.22523-13.8728-13.2262 4.095-4.29492 7.30148 6.96205v-4.96815c0-11.3395-4.0699-20.03366-12.09572-25.842l-17.06503-12.34938c-3.30932 3.45915-7.95774 5.62678-13.1115 5.62678-5.15305 0-9.80122-2.16703-13.1103-5.6255l-17.06334 12.3481c-7.57384 5.48093-12.09573 14.15191-12.09573 23.19521v7.61869l7.30051-6.96387 4.095 4.29396-13.86314 13.22523-13.8728-13.2262 4.095-4.29492zm9.7732 17.52668c10.016 0 18.16496 8.14897 18.16496 18.16501s-8.14897 18.16502-18.16495 18.16502c-10.01611 0-18.16508-8.14897-18.16508-18.16502s8.14897-18.16501 18.16508-18.16501z" class="cls-1"/><circle cx="191.772" cy="166.636" r="13.867" class="cls-1"/><path d="M102.28547 180.5021c7.65834 0 13.86652-6.2083 13.86652-13.86665s-6.20818-13.86664-13.86652-13.86664-13.86677 6.2083-13.86677 13.86664 6.20843 13.86665 13.86677 13.86665z" class="cls-1"/><circle cx="147.027" cy="82.208" r="13.891" class="cls-1" transform="rotate(-22.5 147.027 82.208)"/><circle cx="236.515" cy="251.096" r="13.891" class="cls-1"/><circle cx="147.027" cy="251.096" r="13.891" class="cls-1"/></g></svg>