<?xml version="1.0" encoding="UTF-8"?>
<svg id="Layer_1" xmlns="http://www.w3.org/2000/svg" version="1.1" viewBox="0 0 286.708 463.517">
  <!-- Generator: Adobe Illustrator 30.2.1, SVG Export Plug-In . SVG Version: 2.1.1 Build 1)  -->
  <path d="M286.708,71.388h-.045v-25.805c0-25.071-20.512-45.583-45.583-45.583H45.583C20.512,0,0,20.512,0,45.583v341.674h286.708V71.388ZM141.749,54.79v-23.06h6.532v23.06h-6.532ZM172.788,54.79v-23.06h6.532v23.06h-6.532ZM209.666,38.328c.467-1.505,1.14-2.784,2.017-3.836s1.951-1.856,3.222-2.411c1.272-.555,2.725-.833,4.363-.833.905,0,1.716.088,2.433.263.716.175,1.439.424,2.17.745v-10.434l6.532-1.052v33.275c-.585.175-1.257.344-2.017.504-.76.161-1.556.299-2.389.416s-1.681.212-2.543.285c-.863.073-1.688.11-2.477.11-1.901,0-3.595-.278-5.086-.833s-2.748-1.352-3.77-2.389c-1.023-1.037-1.805-2.294-2.345-3.77-.542-1.476-.811-3.135-.811-4.976,0-1.87.233-3.558.701-5.064ZM184.637,38.065c.628-1.535,1.454-2.813,2.477-3.836,1.023-1.023,2.199-1.797,3.529-2.324,1.33-.526,2.696-.789,4.099-.789,3.273,0,5.86,1.002,7.76,3.003,1.899,2.002,2.85,4.947,2.85,8.834,0,.38-.015.797-.044,1.25s-.059.855-.088,1.205h-14.818c.146,1.345.774,2.411,1.885,3.201,1.11.789,2.601,1.183,4.472,1.183,1.198,0,2.374-.109,3.529-.329,1.154-.219,2.097-.489,2.828-.811l.877,5.305c-.351.175-.819.351-1.403.526-.585.176-1.235.329-1.951.46-.717.132-1.484.241-2.302.329-.819.088-1.637.131-2.455.131-2.076,0-3.88-.307-5.414-.921-1.535-.614-2.806-1.453-3.814-2.521-1.008-1.067-1.754-2.33-2.236-3.792-.482-1.461-.723-3.039-.723-4.735,0-2.045.314-3.836.942-5.37h0ZM173.292,22.238c.774-.686,1.688-1.03,2.74-1.03s1.965.344,2.74,1.03c.774.687,1.162,1.63,1.162,2.828s-.388,2.141-1.162,2.828c-.775.687-1.688,1.03-2.74,1.03s-1.966-.343-2.74-1.03c-.775-.686-1.162-1.629-1.162-2.828s.387-2.141,1.162-2.828ZM154.419,30.502c0-2.981.84-5.349,2.521-7.102,1.681-1.754,4.172-2.631,7.475-2.631,1.227,0,2.243.103,3.047.307.803.205,1.483.424,2.039.658l-1.14,5.129c-.467-.204-.986-.351-1.556-.438-.57-.088-1.147-.132-1.731-.132-.79,0-1.455.11-1.995.329-.541.219-.965.519-1.271.899-.307.38-.526.833-.658,1.359-.131.526-.197,1.096-.197,1.71v1.14h8.067v5.436h-8.067v17.624h-6.532v-24.288h-.002ZM142.254,22.238c.774-.686,1.688-1.03,2.74-1.03s1.965.344,2.74,1.03c.774.687,1.162,1.63,1.162,2.828s-.388,2.141-1.162,2.828c-.775.687-1.688,1.03-2.74,1.03s-1.966-.343-2.74-1.03c-.775-.686-1.162-1.629-1.162-2.828s.387-2.141,1.162-2.828ZM122.065,25.987l6.532-1.052v6.795h7.847v5.436h-7.847v8.11c0,1.374.241,2.47.723,3.288.482.819,1.453,1.227,2.915,1.227.701,0,1.425-.066,2.17-.197.745-.131,1.425-.314,2.039-.548l.921,5.086c-.789.322-1.666.599-2.63.833-.965.234-2.148.351-3.551.351-1.783,0-3.259-.241-4.428-.723s-2.104-1.154-2.806-2.017c-.701-.862-1.191-1.907-1.469-3.135-.278-1.228-.416-2.587-.416-4.077v-19.378h0ZM103.784,32.958c1.169-.409,2.55-.796,4.143-1.162,1.593-.365,3.368-.548,5.327-.548.351,0,.774.022,1.272.066.497.044.993.103,1.49.175.497.073.993.161,1.491.263.497.103.921.227,1.271.373l-1.096,5.392c-.585-.146-1.271-.299-2.06-.46-.789-.16-1.637-.241-2.543-.241-.41,0-.899.037-1.469.11s-1.002.153-1.293.241v17.624h-6.532v-21.833h-.001ZM78.027,38.065c.628-1.535,1.454-2.813,2.477-3.836,1.023-1.023,2.199-1.797,3.529-2.324,1.329-.526,2.696-.789,4.099-.789,3.273,0,5.86,1.002,7.76,3.003,1.899,2.002,2.849,4.947,2.849,8.834,0,.38-.015.797-.044,1.25-.03.453-.059.855-.088,1.205h-14.818c.146,1.345.774,2.411,1.885,3.201,1.11.789,2.601,1.183,4.472,1.183,1.198,0,2.374-.109,3.529-.329,1.154-.219,2.097-.489,2.828-.811l.877,5.305c-.351.175-.819.351-1.403.526-.585.176-1.235.329-1.951.46-.716.132-1.484.241-2.302.329-.819.088-1.637.131-2.455.131-2.076,0-3.88-.307-5.414-.921-1.534-.614-2.806-1.453-3.814-2.521-1.008-1.067-1.754-2.33-2.236-3.792-.482-1.461-.723-3.039-.723-4.735,0-2.045.314-3.836.942-5.37h0ZM57.071,38.547c.54-1.476,1.322-2.762,2.346-3.858,1.023-1.096,2.265-1.965,3.726-2.608,1.461-.643,3.127-.965,4.998-.965,1.228,0,2.352.109,3.376.329,1.023.219,2.017.534,2.981.943l-1.359,5.217c-.614-.234-1.287-.438-2.017-.614-.731-.176-1.55-.263-2.455-.263-1.929,0-3.369.599-4.318,1.797-.95,1.199-1.425,2.777-1.425,4.735,0,2.076.445,3.683,1.337,4.822.891,1.14,2.448,1.71,4.669,1.71.789,0,1.636-.072,2.543-.219.906-.146,1.739-.379,2.499-.701l.921,5.349c-.76.322-1.71.599-2.849.833-1.14.233-2.397.351-3.77.351-2.104,0-3.917-.314-5.436-.943-1.52-.628-2.769-1.483-3.748-2.565-.979-1.081-1.695-2.36-2.148-3.836-.454-1.476-.68-3.076-.68-4.8,0-1.666.27-3.237.811-4.713h-.002ZM7.397,379.839V75.266h270.789v304.573H7.397Z" fill="#fff"/>
  <path d="M92.144,39.315c-.161-.526-.41-.993-.745-1.403-.336-.409-.76-.745-1.271-1.008-.512-.263-1.147-.394-1.907-.394-.731,0-1.359.125-1.885.373-.526.249-.965.577-1.315.986-.351.41-.621.884-.811,1.425-.19.541-.329,1.089-.416,1.644h8.637c-.03-.555-.125-1.096-.285-1.622h-.002,0Z" fill="#fff"/>
  <path d="M221.021,49.792c.584,0,1.125-.022,1.622-.066.497-.044.906-.095,1.228-.154v-11.881c-.41-.263-.943-.482-1.6-.658-.658-.175-1.323-.263-1.995-.263-3.098,0-4.647,2.104-4.647,6.313,0,2.017.453,3.639,1.36,4.866.905,1.228,2.25,1.841,4.033,1.841v.002h0Z" fill="#fff"/>
  <path d="M198.754,39.315c-.161-.526-.41-.993-.746-1.403-.336-.409-.76-.745-1.271-1.008s-1.148-.394-1.907-.394c-.731,0-1.359.125-1.885.373-.526.249-.965.577-1.315.986-.351.41-.621.884-.811,1.425s-.329,1.089-.417,1.644h8.637c-.03-.555-.125-1.096-.285-1.622h0Z" fill="#fff"/>
  <path d="M175.303,234.46c2.771-3.493,4.935-7.39,6.433-11.586l-20.434-3.455-.033.043-.02-.004c-.285-.052-.547-.071-.791-.058-.45.023-.894.138-1.316.342-1.665.801-2.396,2.758-1.666,4.455l.008.018-.026.034,7.932,19.159c3.781-2.414,7.116-5.425,9.911-8.948h.002Z" fill="#fff"/>
  <path d="M169.463,240.478c.011-.009.022-.018.032-.027-.011.009-.022.018-.032.027Z" fill="#fff"/>
  <path d="M174.23,235.806c.022-.026.044-.051.066-.077-.022.026-.044.051-.066.077Z" fill="#fff"/>
  <path d="M108.548,187.692c-2.302,3.759-3.967,7.839-4.949,12.128-1.008,4.401-1.271,8.92-.781,13.432l19.754-5.702.017-.068.019-.005c.708-.194,1.324-.6,1.782-1.174,1.15-1.442.96-3.52-.433-4.73l-.015-.013.017-.084-15.411-13.785h0Z" fill="#fff"/>
  <path d="M161.574,203.296c-.411,1.802.66,3.594,2.44,4.081l.02.005.018.084,19.853,5.718c.426-4.382.136-8.804-.86-13.143-1.009-4.389-2.706-8.542-5.046-12.342l-15.327,13.717.008.042-.014.013c-.551.479-.928,1.109-1.091,1.823v.002h0Z" fill="#fff"/>
  <path d="M121.348,243.332l7.848-18.965-.059-.076.008-.018c.288-.67.354-1.402.191-2.115-.354-1.552-1.71-2.651-3.297-2.673h-.043c-.208,0-.42.02-.632.058l-.02.004-.033-.042-20.257,3.438c1.537,4.24,3.749,8.166,6.575,11.668,2.75,3.409,6.02,6.344,9.719,8.723v-.002h0Z" fill="#fff"/>
  <path d="M152.46,248.79c1.356-.308,2.688-.679,3.961-1.104l-9.985-18.043h-.078l-.009-.018c-.341-.638-.873-1.144-1.54-1.465-.475-.228-.972-.343-1.482-.343-.042,0-.083,0-.126.002-1.217.044-2.33.74-2.906,1.815l-.009.018h-.019l-9.96,18.009c7.111,2.415,14.771,2.806,22.151,1.13h.002Z" fill="#fff"/>
  <polygon points="140.173 202.566 136.249 207.451 137.655 213.558 143.327 216.285 148.982 213.566 150.388 207.459 146.474 202.566 140.173 202.566" fill="#fff"/>
  <path d="M166.736,242.55c.035-.024.069-.048.104-.072-.035.024-.069.048-.104.072Z" fill="#fff"/>
  <path d="M161.017,172.366c-4.023-1.947-8.3-3.212-12.717-3.76l1.166,20.55.017.009v.02c.031.726.29,1.414.751,1.99,1.152,1.445,3.221,1.721,4.713.633l.015-.011.06.025,16.77-11.889c-3.164-3.092-6.788-5.638-10.774-7.567h-.001Z" fill="#fff"/>
  <path d="M114.731,179.925l16.877,11.964.034-.017.016.012c.589.43,1.289.657,2.024.657,1.846,0,3.353-1.445,3.431-3.289v-.02l.085-.042,1.165-20.584c-1.426.174-2.822.416-4.153.718-7.388,1.677-14.123,5.342-19.48,10.6h0Z" fill="#fff"/>
  <path d="M171.985,238.199c-.008.007-.015.015-.023.022.008-.007.015-.015.023-.022Z" fill="#fff"/>
  <path d="M179.826,297.502c3.824.003,7.442-1.721,9.83-4.684l45.492-56.592c2.387-2.967,3.282-6.852,2.43-10.553l-16.246-70.567c-.852-3.699-3.356-6.813-6.803-8.459l-65.757-31.399c-1.897-.906-3.993-1.326-6.096-1.219-1.672.084-3.31.499-4.818,1.219l-65.749,31.415c-3.447,1.646-5.951,4.76-6.803,8.459l-16.221,70.567c-.757,3.285-.141,6.734,1.707,9.561.222.342.46.673.715.992l45.509,56.583c2.386,2.966,6.004,4.693,9.83,4.692l72.98-.017v.002h0ZM116.648,254.721l-.005-.013.005-.012.703-1.688c-10.792-6.403-18.844-16.457-22.676-28.314l-1.698.291-.011-.006c-.052-.029-.11-.063-.174-.1-.487-.283-1.298-.752-2.069-.695-2.063.298-4.227,1.074-6.732,1.973l-.121.044c-.406.155-.79.32-1.162.48-.759.326-1.476.634-2.372.874-.201.054-.46.109-.711.162-.106.022-.211.044-.308.066-.011.002-.022.007-.032.011-.014.005-.028.011-.044.014-.009.002-.021.003-.033.005-.009,0-.018.002-.026.004-2.343.503-4.639-.797-5.119-2.902-.48-2.102,1.025-4.27,3.355-4.833.008-.002.018-.005.028-.008.011-.003.022-.007.031-.009l.015-.003c.006-.002.013-.003.02-.005.097-.023.202-.049.31-.075.26-.064.529-.129.742-.169.901-.171,1.674-.201,2.492-.234.414-.016.843-.033,1.287-.07l.094-.01c2.659-.279,4.956-.519,6.954-1.149.556-.229,1.088-.927,1.515-1.487.055-.073.108-.143.159-.208l.006-.009.011-.003,1.62-.471c-1.783-12.394,1.066-24.99,8.024-35.473l-1.249-1.116-.002-.012c-.008-.053-.018-.114-.027-.181-.083-.563-.222-1.505-.754-2.072-1.545-1.451-3.538-2.681-5.845-4.106-.382-.225-.758-.425-1.123-.618-.722-.384-1.404-.747-2.142-1.292-.172-.127-.384-.301-.588-.469-.078-.065-.156-.129-.229-.187-.008-.006-.017-.012-.026-.018-.011-.008-.023-.016-.033-.024-.92-.733-1.528-1.745-1.712-2.849-.184-1.105.078-2.171.739-3,.715-.896,1.807-1.403,3.016-1.403.049,0,.099,0,.148.002.981.034,1.961.404,2.761,1.042.073.058.154.121.237.186.217.17.463.362.638.512.701.603,1.21,1.189,1.749,1.809.267.307.543.625.844.944l.068.069c1.875,1.905,3.495,3.55,5.232,4.719.791.462,1.424.362,2.034.264.094-.015.188-.029.281-.042l.013-.002.011.008c.233.172.972.702,1.396.992,6.945-7.361,15.835-12.436,25.712-14.679,2.313-.525,4.698-.892,7.089-1.091l.093-1.649.009-.009c.485-.469,1.098-1.2,1.268-2.018.17-2.091-.107-4.393-.429-7.06l-.008-.068c-.062-.434-.139-.849-.213-1.249-.15-.808-.291-1.572-.326-2.495-.008-.193-.002-.437.003-.672.002-.116.005-.231.006-.339,0-.015-.003-.031-.005-.047-.002-.021-.004-.041-.004-.062,0-2.43,1.78-4.407,3.969-4.407s3.969,1.977,3.969,4.407c0,.117.004.247.006.381.006.26.011.529.003.738-.034.923-.176,1.687-.326,2.496-.075.401-.151.815-.213,1.249l-.026.209c-.314,2.61-.586,4.864-.42,6.922.132.901.605,1.331,1.063,1.748.073.066.144.131.215.198l.01.01v.013c.012.297.057,1.218.09,1.728,6.188.553,12.18,2.219,17.809,4.953,5.573,2.706,10.563,6.345,14.831,10.817l1.483-1.058h.012c.06.004.129.01.205.015.56.043,1.5.115,2.164-.271,1.715-1.155,3.313-2.779,5.164-4.659l.135-.137c.294-.313.568-.626.832-.928.545-.625,1.062-1.216,1.768-1.823.174-.15.406-.331.631-.507.086-.067.17-.132.245-.192,1.896-1.512,4.55-1.353,5.916.359,1.363,1.71.927,4.334-.973,5.85-.085.069-.179.146-.275.225-.206.17-.419.346-.593.473-.735.543-1.417.905-2.14,1.287-.368.195-.749.397-1.134.623-2.31,1.427-4.301,2.658-5.846,4.107-.623.667-.666,1.304-.707,1.921-.007.096-.013.191-.022.286v.013l-.011.008c-.106.098-.336.303-.602.541-.268.239-.563.503-.772.693,3.482,5.188,5.959,10.918,7.363,17.032,1.392,6.062,1.671,12.238.829,18.357l1.573.458.007.009c.033.048.072.104.114.165.318.468.85,1.251,1.569,1.53,2.001.63,4.303.871,6.97,1.15l.078.008c.442.037.87.053,1.284.07.819.032,1.592.063,2.493.234.205.038.467.103.719.166.152.038.299.074.427.103,2.329.562,3.834,2.73,3.354,4.833-.48,2.104-2.78,3.406-5.118,2.901-.008-.002-.017-.002-.026-.003-.011-.001-.023-.003-.032-.005-.016-.003-.03-.009-.045-.015-.011-.004-.021-.008-.031-.01-.118-.026-.246-.052-.376-.078-.227-.046-.46-.093-.643-.141-.887-.237-1.597-.545-2.35-.871-.379-.164-.771-.334-1.185-.492l-.109-.039c-2.51-.901-4.677-1.678-6.746-1.977-.078-.006-.152-.009-.225-.009-.771,0-1.249.332-1.712.654-.081.056-.161.112-.242.165l-.012.008-.014-.003c-.286-.057-1.143-.209-1.651-.289-1.889,5.924-4.806,11.403-8.673,16.286-3.905,4.934-8.614,9.048-13.996,12.23.058.142.127.326.198.52.161.431.342.92.44,1.033l.013.015-.007.019c-.034.093-.072.184-.109.277-.229.568-.464,1.154-.192,2.023.763,1.981,2.025,3.955,3.486,6.239.246.367.497.711.741,1.042.485.66.941,1.284,1.371,2.097.106.2.232.466.353.723.057.121.112.236.161.337,1.014,2.171.257,4.7-1.689,5.637-.956.46-2.053.48-3.089.056-1.035-.424-1.887-1.241-2.397-2.3-.043-.088-.091-.185-.14-.285-.127-.254-.257-.517-.347-.725-.371-.848-.577-1.6-.795-2.396-.108-.392-.219-.798-.351-1.214l-.029-.089c-.863-2.529-1.608-4.714-2.667-6.522-.511-.757-1.124-.941-1.717-1.12-.092-.028-.183-.055-.274-.085l-.012-.004-.007-.011c-.066-.113-.226-.404-.395-.711-.151-.274-.313-.567-.432-.778-2.198.83-4.462,1.511-6.729,2.026-9.872,2.241-20.092,1.509-29.558-2.119l-.884,1.602-.014.003c-.631.169-1.284.344-1.679.815-1.003,1.196-1.585,2.909-2.201,4.722-.261.767-.53,1.56-.84,2.338-.133.421-.245.832-.352,1.23-.214.79-.416,1.536-.783,2.378-.085.194-.207.438-.325.674-.056.112-.11.221-.159.32l-.003.014c-.004.008-.009.013-.012.016-.786,1.618-2.346,2.586-3.902,2.586-.535,0-1.069-.114-1.572-.356-1.946-.937-2.704-3.465-1.689-5.636.055-.114.116-.247.18-.383.111-.241.227-.49.326-.677.432-.817.891-1.447,1.378-2.113.241-.33.49-.671.734-1.035,1.56-2.441,2.813-4.462,3.559-6.396.193-.662-.107-1.573-.35-2.201l-.003.003h0Z" fill="#fff"/>
  <path d="M42.706,337.362c-.891-1.188-1.811-2.331-2.761-3.429-.95-1.128-1.87-2.093-2.761-2.895,1.781-1.752,3.414-3.444,4.899-5.077,1.514-1.662,3.058-3.399,4.631-5.21h-7.882c-.416.505-.92,1.099-1.514,1.781-.564.683-1.173,1.41-1.826,2.182-.653.742-1.336,1.499-2.049,2.271-.683.772-1.351,1.514-2.004,2.227v-19.594l-6.635,1.069v33.488h6.635v-10.242c.742.594,1.484,1.321,2.227,2.182.772.861,1.499,1.766,2.182,2.716.683.92,1.321,1.856,1.915,2.806.623.92,1.173,1.766,1.648,2.538h7.615c-.505-.98-1.128-2.063-1.87-3.251-.742-1.188-1.559-2.375-2.449-3.563h0Z" fill="#fff"/>
  <path d="M63.474,338.831c-.416.059-.891.119-1.425.178-.534.03-1.039.045-1.514.045-1.544,0-2.598-.475-3.162-1.425s-.846-2.494-.846-4.631v-12.246h-6.635v13.048c0,1.603.163,3.073.49,4.409.327,1.336.876,2.494,1.648,3.474.772.95,1.811,1.692,3.117,2.227,1.336.534,2.998.802,4.988.802,1.959,0,3.83-.148,5.611-.445,1.781-.267,3.236-.564,4.364-.891v-22.622h-6.635v18.08-.003h0Z" fill="#fff"/>
  <path d="M95.53,323.601c-.861-1.069-1.93-1.885-3.206-2.449-1.277-.594-2.746-.891-4.409-.891-.92,0-1.781.089-2.583.267s-1.573.43-2.316.757v-11.667l-6.635,1.069v32.731c.594.178,1.277.356,2.049.534.772.148,1.573.282,2.405.401.861.119,1.722.208,2.583.267.891.089,1.737.134,2.538.134,1.93,0,3.652-.282,5.166-.846,1.514-.594,2.791-1.425,3.83-2.494s1.826-2.36,2.36-3.874c.564-1.514.846-3.206.846-5.077,0-1.841-.223-3.503-.668-4.988-.445-1.514-1.098-2.805-1.959-3.874h-.001ZM90.008,337.228c-.92,1.247-2.286,1.87-4.097,1.87-.594,0-1.143-.015-1.648-.045-.505-.059-.92-.119-1.247-.178v-12.068c.416-.267.95-.49,1.603-.668.683-.178,1.366-.267,2.049-.267,3.147,0,4.72,2.138,4.72,6.413,0,2.048-.46,3.696-1.38,4.943h0Z" fill="#fff"/>
  <path d="M113.366,320.128c-1.425,0-2.82.267-4.186.802-1.336.534-2.523,1.321-3.563,2.36s-1.885,2.345-2.538,3.919c-.623,1.544-.935,3.355-.935,5.433h0c0,1.722.238,3.325.713,4.809.505,1.484,1.262,2.776,2.271,3.874,1.039,1.069,2.331,1.915,3.874,2.538,1.573.623,3.414.935,5.522.935.831,0,1.662-.045,2.494-.134.831-.089,1.603-.208,2.316-.356.742-.119,1.41-.267,2.004-.445.594-.178,1.069-.356,1.425-.534l-.891-5.388c-.742.327-1.707.609-2.895.846-1.158.208-2.345.312-3.563.312-1.9,0-3.414-.401-4.542-1.202-1.128-.802-1.766-1.885-1.915-3.251h15.052c.03-.356.059-.757.089-1.202.03-.475.044-.906.045-1.291,0-3.949-.965-6.932-2.895-8.951-1.93-2.048-4.557-3.073-7.882-3.073h0ZM108.958,330.103c.089-.564.223-1.113.401-1.648.208-.564.49-1.054.846-1.47.356-.416.802-.742,1.336-.98.534-.267,1.173-.401,1.915-.401.772,0,1.41.134,1.915.401.534.267.965.609,1.291,1.024.356.416.609.891.757,1.425.178.534.282,1.084.312,1.648h-8.773Z" fill="#fff"/>
  <path d="M141.688,320.529c-.505-.089-1.009-.148-1.514-.178-.505-.059-.935-.089-1.291-.089-1.989,0-3.8.193-5.433.579-1.603.356-2.998.742-4.186,1.158v22.177h6.635v-17.902c.297-.089.727-.163,1.291-.223.594-.089,1.098-.134,1.514-.134.92,0,1.781.089,2.583.267.802.148,1.499.297,2.093.445l1.113-5.477c-.356-.148-.787-.267-1.291-.356-.505-.119-1.009-.208-1.514-.267h0Z" fill="#fff"/>
  <path d="M166.131,323.2c-.772-.95-1.826-1.677-3.162-2.182-1.306-.534-2.954-.802-4.943-.802-1.959,0-3.83.148-5.611.445-1.781.267-3.236.564-4.364.891v22.622h6.635v-18.08c.416-.059.891-.104,1.425-.134.534-.059,1.039-.089,1.514-.089,1.544,0,2.598.445,3.162,1.336s.846,2.405.846,4.542v12.424h6.635v-13.226c0-1.603-.163-3.058-.49-4.364-.327-1.306-.876-2.434-1.648-3.384h0Z" fill="#fff"/>
  <path d="M184.426,320.128c-1.425,0-2.82.267-4.186.802-1.336.534-2.523,1.321-3.563,2.36s-1.885,2.345-2.538,3.919c-.623,1.544-.935,3.355-.935,5.433,0,1.722.237,3.325.713,4.809.505,1.484,1.262,2.776,2.271,3.874,1.039,1.069,2.331,1.915,3.874,2.538,1.573.623,3.414.935,5.522.935.831,0,1.663-.045,2.494-.134.831-.089,1.603-.208,2.316-.356.742-.119,1.41-.267,2.004-.445s1.069-.356,1.425-.534l-.891-5.388c-.742.327-1.707.609-2.895.846-1.158.208-2.345.312-3.563.312-1.9,0-3.414-.401-4.542-1.202-1.128-.802-1.766-1.885-1.915-3.251h15.052c.03-.356.059-.757.089-1.202.03-.475.044-.906.044-1.291,0-3.949-.965-6.932-2.895-8.951-1.93-2.048-4.557-3.073-7.882-3.073h.001ZM180.018,330.103c.089-.564.223-1.113.401-1.648.208-.564.49-1.054.846-1.47.356-.416.802-.742,1.336-.98.534-.267,1.173-.401,1.915-.401.772,0,1.41.134,1.915.401.534.267.965.609,1.291,1.024.356.416.609.891.757,1.425.178.534.282,1.084.312,1.648h-8.773,0Z" fill="#fff"/>
  <path d="M212.615,338.92c-.742.119-1.47.178-2.182.178-1.484,0-2.479-.416-2.984-1.247-.475-.831-.713-1.945-.713-3.34v-8.238h7.971v-5.522h-7.971v-6.902l-6.635,1.069h0v19.683c0,1.514.134,2.895.401,4.142.297,1.247.802,2.316,1.514,3.206.713.861,1.663,1.544,2.85,2.048,1.188.475,2.687.713,4.498.713,1.425,0,2.627-.119,3.607-.356s1.87-.52,2.672-.846l-.935-5.166c-.623.238-1.321.43-2.093.579h0Z" fill="#fff"/>
  <path d="M229.307,320.128c-1.425,0-2.82.267-4.186.802-1.336.534-2.523,1.321-3.563,2.36-1.039,1.039-1.885,2.345-2.538,3.919-.623,1.544-.935,3.355-.935,5.433,0,1.722.237,3.325.713,4.809.505,1.484,1.262,2.776,2.271,3.874,1.039,1.069,2.331,1.915,3.874,2.538,1.573.623,3.414.935,5.522.935.831,0,1.663-.045,2.494-.134.831-.089,1.603-.208,2.316-.356.742-.119,1.41-.267,2.004-.445s1.069-.356,1.425-.534l-.891-5.388c-.742.327-1.707.609-2.895.846-1.158.208-2.345.312-3.563.312-1.9,0-3.414-.401-4.542-1.202-1.128-.802-1.766-1.885-1.915-3.251h15.052c.03-.356.059-.757.089-1.202.03-.475.044-.906.045-1.291,0-3.949-.965-6.932-2.895-8.951-1.93-2.048-4.557-3.073-7.882-3.073h0ZM224.898,330.103c.089-.564.223-1.113.401-1.648.208-.564.49-1.054.846-1.47.356-.416.802-.742,1.336-.98.534-.267,1.173-.401,1.915-.401.772,0,1.41.134,1.915.401.534.267.965.609,1.291,1.024.356.416.609.891.757,1.425.178.534.282,1.084.312,1.648h-8.773,0Z" fill="#fff"/>
  <path d="M260.345,333.176c-.534-.623-1.277-1.188-2.227-1.692-.95-.534-2.152-1.069-3.607-1.603-.713-.267-1.306-.505-1.781-.713-.445-.237-.802-.445-1.069-.623-.267-.208-.445-.416-.534-.623-.089-.208-.134-.445-.134-.712,0-1.158,1.039-1.737,3.117-1.737,1.128,0,2.137.104,3.028.312.92.208,1.766.445,2.538.713l1.158-5.166c-.772-.297-1.811-.564-3.117-.802-1.306-.267-2.672-.401-4.097-.401-2.85,0-5.092.638-6.724,1.915-1.633,1.277-2.449,3.013-2.449,5.21,0,1.128.163,2.093.49,2.895.327.802.787,1.499,1.38,2.093.594.564,1.306,1.054,2.138,1.47.861.416,1.811.816,2.85,1.202,1.336.505,2.331.965,2.984,1.38.653.386.98.846.98,1.38,0,.683-.252,1.143-.757,1.38-.505.238-1.366.356-2.583.356-1.158,0-2.331-.119-3.518-.356-1.188-.267-2.345-.623-3.474-1.069l-1.113,5.388c.534.237,1.484.534,2.85.891,1.396.356,3.132.534,5.21.534,3.177,0,5.626-.594,7.348-1.781,1.752-1.188,2.627-2.939,2.627-5.255,0-.98-.119-1.841-.356-2.583-.208-.742-.594-1.41-1.158-2.004h0Z" fill="#fff"/>
  <path d="M.049,396.17v32.922c0,18.919,15.337,34.255,34.255,34.255h218.099c18.919,0,34.255-15.337,34.255-34.255v-32.922H.049ZM115.355,446.56h-7.45v-24.95c-1,.667-2.117,1.275-3.351,1.825-1.234.55-2.434,1.025-3.6,1.425l-2.25-5.75h.001c.967-.4,1.975-.857,3.025-1.375,1.05-.516,2.074-1.083,3.074-1.7s1.958-1.267,2.875-1.95c.917-.683,1.742-1.408,2.476-2.175h5.2v34.65ZM132.98,446.035c-.95.782-2.025,1.175-3.225,1.175s-2.275-.392-3.226-1.175c-.951-.783-1.425-1.925-1.425-3.425s.475-2.641,1.425-3.425c.95-.783,2.025-1.175,3.226-1.175s2.274.392,3.225,1.175c.95.784,1.425,1.925,1.425,3.425s-.475,2.643-1.425,3.425ZM160.355,440.677c-.534,1.352-1.367,2.521-2.5,3.505-1.134.984-2.575,1.752-4.325,2.303-1.75.55-3.825.826-6.225.826h0c-.9-.001-1.851-.06-2.851-.176-1-.117-1.967-.275-2.899-.475-.934-.2-1.784-.417-2.551-.65-.767-.233-1.367-.45-1.8-.65l1.45-6.2c.866.367,1.975.758,3.325,1.175s3.024.625,5.024.625c2.301,0,3.983-.433,5.051-1.3,1.066-.867,1.6-2.033,1.6-3.5,0-.9-.192-1.658-.575-2.275-.384-.617-.908-1.117-1.575-1.5-.667-.383-1.458-.65-2.375-.8-.917-.15-1.892-.225-2.925-.225h-2.899v-6h3.3c.732,0,1.441-.066,2.125-.2.683-.133,1.291-.358,1.825-.675.532-.316.957-.75,1.274-1.3.316-.55.476-1.241.476-2.075,0-.633-.134-1.183-.4-1.65-.268-.466-.608-.85-1.025-1.15s-.899-.525-1.449-.675c-.551-.15-1.109-.225-1.676-.225-1.434,0-2.758.217-3.975.65-1.217.434-2.325.967-3.325,1.6l-2.649-5.45c.532-.333,1.157-.683,1.875-1.05.716-.367,1.508-.7,2.375-1,.866-.3,1.791-.55,2.774-.75.983-.2,2.025-.3,3.125-.3,2.033,0,3.792.242,5.275.725,1.482.482,2.708,1.165,3.675,2.047.967.882,1.683,1.914,2.15,3.095.466,1.181.699,2.471.699,3.869,0,1.365-.383,2.688-1.149,3.97-.768,1.281-1.8,2.254-3.101,2.92,1.801.734,3.191,1.828,4.176,3.28.982,1.452,1.475,3.195,1.475,5.231,0,1.602-.268,3.079-.8,4.43ZM188.904,440.56c-.566,1.367-1.417,2.55-2.55,3.55-1.134,1-2.559,1.784-4.274,2.35-1.718.566-3.726.85-6.025.85-.9,0-1.842-.059-2.825-.175-.983-.117-1.934-.268-2.85-.45-.917-.183-1.742-.375-2.476-.575-.733-.2-1.3-.4-1.699-.6l1.35-6.15c.833.367,1.933.725,3.3,1.075,1.366.35,3,.525,4.9.525,2.3,0,3.966-.458,5-1.375,1.032-.917,1.55-1.991,1.55-3.225,0-.966-.217-1.825-.65-2.575-.433-.75-1.184-1.375-2.25-1.875-1.066-.5-2.5-.883-4.3-1.15-1.8-.267-4.067-.4-6.8-.4.366-3.1.666-6.25.9-9.45.232-3.2.416-6.2.55-9h18.75v6.25h-12.5c-.067,1.2-.143,2.358-.226,3.475s-.175,2.092-.274,2.925c4.866.333,8.458,1.475,10.774,3.425,2.316,1.95,3.476,4.659,3.476,8.125,0,1.6-.284,3.084-.851,4.45Z" fill="#fff"/>
  <metadata>
    <sfw xmlns="http://ns.adobe.com/SaveForWeb/1.0/">
      <slices/>
      <sliceSourceBounds x="0" y="-0.42" width="936.85" height="463.93" bottomLeftOrigin="true"/>
    </sfw>
  </metadata>
  <metadata><?xpacket begin="﻿" id="W5M0MpCehiHzreSzNTczkc9d"?>
<x:xmpmeta xmlns:x="adobe:ns:meta/" x:xmptk="Adobe XMP Core 10.0-c000 1.000000, 0000/00/00-00:00:00        ">
   <rdf:RDF xmlns:rdf="http://www.w3.org/1999/02/22-rdf-syntax-ns#">
      <rdf:Description rdf:about=""
            xmlns:xmp="http://ns.adobe.com/xap/1.0/"
            xmlns:xmpGImg="http://ns.adobe.com/xap/1.0/g/img/"
            xmlns:xmpTPg="http://ns.adobe.com/xap/1.0/t/pg/"
            xmlns:stDim="http://ns.adobe.com/xap/1.0/sType/Dimensions#"
            xmlns:xmpG="http://ns.adobe.com/xap/1.0/g/"
            xmlns:illustrator="http://ns.adobe.com/illustrator/1.0/"
            xmlns:dc="http://purl.org/dc/elements/1.1/"
            xmlns:xmpMM="http://ns.adobe.com/xap/1.0/mm/"
            xmlns:stRef="http://ns.adobe.com/xap/1.0/sType/ResourceRef#"
            xmlns:stEvt="http://ns.adobe.com/xap/1.0/sType/ResourceEvent#"
            xmlns:pdf="http://ns.adobe.com/pdf/1.3/">
         <xmp:CreatorTool>Adobe Illustrator 30.2 (Windows)</xmp:CreatorTool>
         <xmp:CreateDate>2026-02-26T07:45:40-05:00</xmp:CreateDate>
         <xmp:ModifyDate>2026-02-26T07:45:40-05:00</xmp:ModifyDate>
         <xmp:MetadataDate>2026-02-26T07:45:40-05:00</xmp:MetadataDate>
         <xmp:Thumbnails>
            <rdf:Alt>
               <rdf:li rdf:parseType="Resource">
                  <xmpGImg:width>256</xmpGImg:width>
                  <xmpGImg:height>128</xmpGImg:height>
                  <xmpGImg:format>JPEG</xmpGImg:format>
                  <xmpGImg:image>/9j/4AAQSkZJRgABAgEAAAAAAAD/7QAsUGhvdG9zaG9wIDMuMAA4QklNA+0AAAAAABAAAAAAAAEA&#xA;AQAAAAAAAQAB/+4ADkFkb2JlAGTAAAAAAf/bAIQABgQEBAUEBgUFBgkGBQYJCwgGBggLDAoKCwoK&#xA;DBAMDAwMDAwQDA4PEA8ODBMTFBQTExwbGxscHx8fHx8fHx8fHwEHBwcNDA0YEBAYGhURFRofHx8f&#xA;Hx8fHx8fHx8fHx8fHx8fHx8fHx8fHx8fHx8fHx8fHx8fHx8fHx8fHx8fHx8f/8AAEQgAgAEAAwER&#xA;AAIRAQMRAf/EAaIAAAAHAQEBAQEAAAAAAAAAAAQFAwIGAQAHCAkKCwEAAgIDAQEBAQEAAAAAAAAA&#xA;AQACAwQFBgcICQoLEAACAQMDAgQCBgcDBAIGAnMBAgMRBAAFIRIxQVEGE2EicYEUMpGhBxWxQiPB&#xA;UtHhMxZi8CRygvElQzRTkqKyY3PCNUQnk6OzNhdUZHTD0uIIJoMJChgZhJRFRqS0VtNVKBry4/PE&#xA;1OT0ZXWFlaW1xdXl9WZ2hpamtsbW5vY3R1dnd4eXp7fH1+f3OEhYaHiImKi4yNjo+Ck5SVlpeYmZ&#xA;qbnJ2en5KjpKWmp6ipqqusra6voRAAICAQIDBQUEBQYECAMDbQEAAhEDBCESMUEFURNhIgZxgZEy&#xA;obHwFMHR4SNCFVJicvEzJDRDghaSUyWiY7LCB3PSNeJEgxdUkwgJChgZJjZFGidkdFU38qOzwygp&#xA;0+PzhJSktMTU5PRldYWVpbXF1eX1RlZmdoaWprbG1ub2R1dnd4eXp7fH1+f3OEhYaHiImKi4yNjo&#xA;+DlJWWl5iZmpucnZ6fkqOkpaanqKmqq6ytrq+v/aAAwDAQACEQMRAD8Ann5qfmpqX6Sn0LQp2toL&#xA;ZjFeXkRpI8g2ZEYbqFOxI3J9s6zsnsmHAMmQWTyDp9ZrDfDHank0kkkjl5GLuxqzMSST7k50gAGw&#xA;dWStxV2KpjbeXdZuL2wsktXS41MK1iJf3YkVzRWVnoOJp1yiepxxjKV7R5+TMYpEgVz5Jja+QPM1&#xA;xbPciCOOMXH1OL1JokMs4kELLEC3xcXNC3T3yifaOKJqzyvkdhV7tg00yL86STULG50++uLG6UJc&#xA;2sjRTICGAdDRhUVB3GZePIJxEhyLTKJiaPMK+k6JqGqm8+pqrfULWW9uSzBaQw05kV6ncbZDNnjj&#xA;ri/ikIj3llDGZXXQWoWV/fWM63FlcSW067rLC7Iw+lSMnPHGYqQBHmxjIg2DT3n8pvzKuPMKvpGr&#xA;MDqsCepFOAF9aMUBqBtzWvbqPkc4/tjssYfXD6D9n7Hd6LVnJ6ZfU9IzROweT/m1+aF7pV22g6HJ&#xA;6V2qg314KFo+Qqscfg3E1J7dt82uh0QkOOXLo4eozkHhDxS6u7u7maa6mkuJm+1LKxdj82Yk5uox&#xA;A2DgEk81LCrsVRcekanILJltpAmouYrGRhwSZ1YIwR2opozAHfbIHJHfflzTwn5psPIHmnjqLtaq&#xA;kelM0d5I80SqJETmUUlvjbjv8OVfmse2/wBTPwZb+SV6zo+o6NqU2m6jF6N5b8fVjDK9Oah1+JCy&#xA;/ZYd8tx5BOPEOTCUTE0V2haFqWualHpumxiW7lDFELKgoiljuxA6DBlyxhHilyTCBkaCFtbu7tJl&#xA;mtZpLeZfsyxMUYfJlIOTlEHYsQSOT2z8pvzQu9VuV0DXJPVvGUmyvDQNJxFTHJ/lUFQ3fvv10uu0&#xA;QiOOPLq5+nzk+kvV81TmOxV2KuxV2KuxV2KuxV2KuxV2KvjmSR5JGkclnclmY9SSak56gBQoPJkq&#xA;2nGzGoWpvgTZCaP60F+16XIc6e/GuQy8XCeH6q296YVYvk9sF1oP+L4pL6+0U+XxDKvl9LdoB6M3&#xA;GPiZfhKrRQ1C1Ry96DOU4MngERjk8Sxx3e435fZ8HcXHxNzHh/h5IHV9b0HS5vMN5p/6Oh1OOwsh&#xA;akNazGWczS+s6qgCFyhXmFXwPhl2HBkyDHGXGYcUr+oUKFfC+TCeSMeIjhuh3K9rr9tew+UrqXU9&#xA;MGkQxQx6pbztAk6XKBgfhcAqoPuB36ZCenMDlAjPjJPCRdUyGQHgNx4evLmgdR82afAPLOnWl5ZP&#xA;p02s3jaklYXEcA1QSxMxNfSRkJYHYFfbLcWjkfEnIS4hjjw89z4dH3m/tYTzAcIBFcRv/TJ9pt55&#xA;Be31Mo+nTs9/dtfwyy2yLNGXb0mDSq3KNU4lfTYCv05h5YakGP1j0xraW3fy633t0JYqP08zfJKt&#xA;P1LQ4vJM40690+305/L1zBcWhaNL06k60PLlR2D7gDuae2ZGTFkOoHFGZl4oIO/Dwfc1xnEY9iK4&#xA;D7+J4vnVOoZT+V08kPn7RmjNC0xjP+q6Mrfgc1/a0QdNO+5ydGayxfT+efvRvkzzbNJN5p1iSRuT&#xA;te3FT/z1bOrwCscfcHT5D6j70qy1g9tkPlhtX0P97o/+CVMZhhBi9f1/QcD6zyHKnqU5V705d80o&#xA;4+GX1eJ9nPo5/pscuBU1i78q2esXF5bpYnULfRb+dLpvqjrLcq8TWx4R/D6go1PhqRgxxyGIBujO&#xA;Pfy3tZGIN7XR7koTWl1byTormbSi0d3M2sW8/pJNGst6JR9XRvsqVPxU6jLfD4Msvq5bfLqw4rgO&#xA;Xn83ecNd0yx8sa9a6WbGVbvXHjSACKQLBJYKplhVT8JDCgcdDjp8UpTiZXtD/fLkmBE1X1foZNYN&#xA;5A/TfmAI2nesbq3pH/o3CS0+qQ1RPV/d8TLz58N69e2Y0vF4Y/VyPfzsto4LPL8BR8l3/li0a1l0&#xA;q502xs0utR/SqTSRLc0Mr/VODk7ose1Q1KfTktRGZviEiajXd5oxGI5V1/Y8FzeuvTbyjNJD5q0e&#xA;WM8XW9t6H/nqoP35VnF45e4s8Z9Q976yzlHcOxV2KuxV2KuxV2KuxV2KuxV2Kvnvyn+Tl95i0C11&#xA;iLUordLr1OMLRsxHpyNHuQR14VztdZ23HBlOMxJrz8rdFh0ByREr5pv/ANC9al/1eYf+RL/81Zjf&#xA;6I4fzD823+Sz/Od/0L1qX/V5h/5Ev/zVj/ojh/MPzX+Sz/Od/wBC9al/1eYf+RL/APNWP+iOH8w/&#xA;Nf5LP853/QvWpf8AV5h/5Ev/AM1Y/wCiOH8w/Nf5LP8AOd/0L1qX/V5h/wCRL/8ANWP+iOH8w/Nf&#xA;5LP853/QvWpf9XmH/kS//NWP+iOH8w/Nf5LP853/AEL1qX/V5h/5Ev8A81Y/6I4fzD81/ks/znf9&#xA;C9al/wBXmH/kS/8AzVj/AKI4fzD81/ks/wA5Rsfy5uvKHnbyzJPepdi8umVQiFOPpqDvUnryyWTt&#xA;ManT5AI1wxRHSnFkjZuy9zzkXcvBbD8qLzzVeaxqcOoR2qLqV1D6bxsxqkla1BH82b2WuGIRjV+k&#xA;OuGnMyTfVG/9C9al/wBXmH/kS/8AzVkP5Vj/ADWX5M97v+hetS/6vMP/ACJf/mrH+VY/zV/Jnvd/&#xA;0L1qX/V5h/5Ev/zVj/Ksf5q/kz3u/wChetS/6vMP/Il/+asf5Vj/ADV/Jnvd/wBC9al/1eYf+RL/&#xA;APNWP8qx/mr+TPe7/oXrUv8Aq8w/8iX/AOasf5Vj/NX8me93/QvWpf8AV5h/5Ev/AM1Y/wAqx/mr&#xA;+TPe7/oXrUv+rzD/AMiX/wCasf5Vj/NX8me9L9S/Ky88p3+h6jNfx3SS6pa24jRGQgsxetST/vvL&#xA;Ia0ZRKIFeksZYDAg31e+5oXYuxV2KuxV2KuxV2KuxV2KuxV2KsN/J/8A8lzpH/Rx/wBRUubTtr/G&#xA;p/D/AHIcTQ/3I+P3syzVuW7FXYqh73ULCxiE19cxWsJPESTusa1ParEDJwxymaiCT5MZSEeZpVhm&#xA;hniWWF1licVSRCGUg9wRscjKJBo80g2vwJdirsVYP58/5S/yV/zGzf8AEFzb9n/3Gb+qHC1P95D3&#xA;s4zUOaw38sP+OdrX/bZvf+JLmZrecf6oaMHI+8syzDb3Yq7FVO5uba2haa5lSCFftSyMEUfNmoMI&#xA;iTsEE063ube5hWa2lSaFvsyRsHU/IioxII2Kg2qYEuxV2KsH/Nf/AHj8u/8Abdsv+IyZnaHnL+oX&#xA;H1HIf1gzjMFyHYq7FXYq7FXYq7FXYq7FXYq7FWG/k/8A+S50j/o4/wCoqXNp21/jU/h/uQ4mh/uR&#xA;8fvZlmrctAaxr+jaLbfWdUvI7SH9kyHdiOyqKsx9gMuwafJlNQBJYZMsYC5GnlHmn8+nPO38t2vE&#xA;dBf3IqfmkQ/Asf8AY50ek9nuuU/Afr/HvdXm7S6QHxebo3mfzhrkNs00mo6ncchCssgAAVS7BeRC&#xA;IAFJoKZvSMOmxk0IwDr/AF5ZVzLfl/zd5l8tXLHTbt4QrES2rfHCxBoeUZ+GvuN/fBqNHizj1i/P&#xA;qnFnnjOxet+Vvz20i8CQa/AdPuDt9ZiDPbk+43dP+G+ec3q+wJx3xHiHd1/UXaYe0Ynaez0y0vLS&#xA;8t0ubSZLi3kFY5omDow9mWozQThKJqQouxjIEWFbIpYP58/5S/yV/wAxs3/EFzb9n/3Gb+qHC1P9&#xA;5D3s4zUOaw38sP8Ajna1/wBtm9/4kuZmt5x/qhowcj7yzLMNvQ2oalp+nWzXV/cx2tuvWWZgi18K&#xA;nv7ZKEDI0BaDIDm8v80/nzYQc7fy7bfW5BsL24BSIHxWPZ2+njmzwdmE7zNeTiZNWP4Xleoa35p8&#xA;26pBBd3Ml9dTyCO2tyQsYdzQBEHFF69c2kcePFEkCg4hlKZ3b07XPNPlHVZ4LS5ksrqCRo7q3qHj&#xA;LoeJDoeSN8/uxnjx5YgkWFjOUDs9T8rfnzYT8LfzFbG0lOxvbcF4j7tHu6/RyzV5+zCN4G/Jy8er&#xA;H8T1HT9S0/UbZbqwuI7q3f7MsTB1+VR39s1koGJoinLEgeSIyKWD/mv/ALx+Xf8Atu2X/EZMztDz&#xA;l/ULj6jkP6wZxmC5DsVdirsVdirsVdirsVdirsVdirDfyf8A/Jc6R/0cf9RUubTtr/Gp/D/chxND&#xA;/cj4/ezLNW5b5b/MLWJNY86anO8vKFJ2t7csSVWKJuC8fAGnLbxz0Ls3CMWCIrerPvLzeqyceQlH&#xA;3H5TebBqttZ2MaX9peKHt9VgPK0KEVLNJ+zT8f2a5THtjDwGUvSY84n6vl+PNmdFPiAG4PXo9C8k&#xA;flx5b8u+ZrVp9bF55igV3Wxh4qqBoirc1HN6BX2LFa+GaTX9p5c+I1DhxHqff+O9z9PpYY5i5XPu&#xA;SLWPyg0jUpL2TyprUd1e2zuLjTZ2QurqxDLyXiU3FBySh8czMPbM8YiM0KieUh+P0/BonoYyvglZ&#xA;7mGS/l9r9pol7q+qKulwWjiKOG75RyzyVpxhSnxfPp4dDm0HaOOWQQh6ye7kPe4h0shEyltXeyj8&#xA;htYkt/M1xpjSH0L6BmWOu3rREMDT/U5Zr/aDAJYhPrE/Yf2uT2bkqZj3ve8453bB/Pn/ACl/kr/m&#xA;Nm/4gubfs/8AuM39UOFqf7yHvZxmoc1hv5Yf8c7Wv+2ze/8AElzM1vOP9UNGDkfeWZZht75v/OTW&#xA;ZdQ873cHqFrbT1S3hSvwghQ0m3jzYj6M6Ls/Hw4gepdXqZXP3IKb8s/M5TTZdPiTVLbU0VobmzJe&#xA;JGP2klYheBXuW2+45YNZDe/SY96DgltW9s88sflPo2ia3pcuta7H+mlljuLbTYCqlnjbmB8VXdfh&#xA;3PFcwM2ulOJ4Y+nvciGnESLO63zP+U+j63rWpy6HrkX6aaaSe60ycqSryNzb7HxovxbVU4cOulCI&#xA;4o+nvXJpxImjuwJPy281Lb6lc30CaZbaWrNPNeMY0dl/YhIDeozfs0+E+O4zO/OY7AG5l3ON4Et7&#xA;2pMvyZ1mWw8721t6hW21BXglSvwluJaMkePJaD55X2hj4sRPUM9NKp+99HZzrs2D/mv/ALx+Xf8A&#xA;tu2X/EZMztDzl/ULj6jkP6wZxmC5DsVdirsVdirsVdirsVdirsVdirDfyf8A/Jc6R/0cf9RUubTt&#xA;r/Gp/D/chxND/cj4/eyTXdRXTNFv9RbpaW8sw9yiFgPpIzB0+LxMkY/ziA5GSfDEnuD5GZmZizGr&#xA;MaknuTnpQDyz3Ly3r9j+X/5e6JPepJcNrE3ryRo+6Ryry5oDt8KBKrtuc5HVaeWs1UxHbgFfL9tu&#xA;5xZRgxRJ/iTjyv5H8t2Gvf4w0bUOWl3kD8YnPJQ0rCrCVzyA2pxYVr37ZjavX5Z4/AyR9cT93k24&#xA;dPCMvEifSUBdeXPK3kTU9Q856tdSXN5c3M0mn20fwcTOWb01UN8Z4sQWY8adq5bDU5tXCOCAqIAs&#xA;+7r5MDihhJySNknZjf5syQ+YvKPl/wA4W/KMS1tprfkWVGbkTToPheJl5U32zP7HBwZ8mA++/wAe&#xA;RcfWnxMccgYH5G1T9F+cNIva8US5RJD4Ryn03/4Rzm41+LxME4+X3buFp58OQHzfVmedPTMH8+f8&#xA;pf5K/wCY2b/iC5t+z/7jN/VDhan+8h72cZqHNYb+WH/HO1r/ALbN7/xJczNbzj/VDRg5H3lmEssc&#xA;UTyyMFjjUs7HoABUnMQC298h6rfyajql5fyfbu5pJ2B8ZGLfxzrYR4YgdzpZGzb1v8vdUtfJf5bP&#xA;5juw9wNSvFSK2ViBxRzEeINVDUSRvegGanVwObNwDoHNwy4MfEerINF8neXNS8yWXn7Rb9hayGWe&#xA;6t5auC7xsjfEzcoypb4gajwoMx8monGBxSG7ZHHEyEwXax5R8saR5kvPP2s359ANHNaW8XwASrGF&#xA;FCrcpWYrUAUHjUY4885wGKIWWOIlxkse/MTUrfzn+XEHmW1V7f8ARt2yTWzPUBXcRfEBQFvijYeF&#xA;SMyNJA4c3Aeoas0uOHEOjybSNQfTdWstQSpe0njnAHf03DU+mmbXJDiiR3uHE0bfXcciSRrJGQyO&#xA;AysOhBFQc5IindMJ/Nf/AHj8u/8Abdsv+IyZnaHnL+oXH1HIf1gzjMFyHYq7FXYq7FXYq7FXYq7F&#xA;XYq7FWG/k/8A+S50j/o4/wCoqXNp21/jU/h/uQ4mh/uR8fvUvzmvZrXyDerED/pMkUDsP2VLhj9/&#xA;Hj9OS7EgJakX0so18qxF4P5Z0vy/fzz/AKb1f9EwQoGQiF53lJNOKhOlPf8A2uw1WXLADw4cZPnV&#xA;OkwwhI+qXC9svb7yMfIel61JYSa9pWkIttbckUugUCEvLG5Resa1qp61ApnKY8eo/MyxiQxznufv&#xA;2PxdxKWLwhKuKMVeyv8Ay15w8gTyalafoTQFl9OP94kShInXi6kAIo9T4aU65CePLptSBA+Jkruv&#xA;n+xlGUMuLccMVvn3zVoHlqHTNJ1PRP0no88VIWbhKFMICgBZQeTBWHxch1w9n6TJnMpwnwzB93P3&#xA;I1OaOOoyjcUH52g8jQ+TdN0a/km8v2l6/wBas4BG0jxPu7iSMeoQAZtwDsemW6GWoOeWSNZJR2O9&#xA;X7uXcw1AxDGIn0g7vDtZtLCy1Sa306+GoWkZHo3qo0XOoBPwNuKHbOtwTlKAM48Mu7m6fJECVA2H&#xA;1Z5fv31DQdOv3BD3drDO4PYyRhj+vPOtRj4Mko90iPtemxS4og94Yt58/wCUv8lf8xs3/EFzY9n/&#xA;ANxm/qhxdT/eQ97OM1DmsN/LD/jna1/22b3/AIkuZmt5x/qhowcj7yj/AMxr2Wy8j6zPECXNs0Qp&#xA;1AmIjJ+gPXK9JG8sR5ssxqBfNvl3TdK1HUfq+qammk2ojZzdPG0tWXcIFUjc/P8AGgzo8s5RFxHE&#xA;XVwiCdzT23Sx5Ek/LZAqS+YtI8vytK6rGY5DKCzM5iYxAqqTk/F+z4kZpZ+KM38yU/x+hz48Hh/z&#xA;gEZ5Z1ryz5t8q6vaxaadH8vQgxSODHCtCnORhw+FCgoWrXrkc2OeLJE3xTZQlGcSKqLvM2ueW/KX&#xA;lbSLSXTjrHl6dRCkhMcycVQPGTz+Fy4qVpttgw455ckjfDNZzjCIFXFBasvkNPy2dWSby7pHmCVJ&#xA;UQxmSUS8ldXEStLRWWBTRTTj4E5ZDxfG/nyh+P0sZcHh/wA0F4n5i03StO1D6vpeprq1qY1cXSRN&#xA;DRm6oVYncex/HbNzinKQuQ4S4E4gHY2+kvy51B9Q8j6NcvXn9XETE7EmAmKv08K5zmrhw5ZDzdph&#xA;NwCVfmv/ALx+Xf8Atu2X/EZMu0POX9QsNRyH9YM4zBch2KuxV2KuxV2KuxV2KuxV2KuxVhv5P/8A&#xA;kudI/wCjj/qKlzadtf41P4f7kOJof7kfH72S6zo9hrOmXGm38fqWtyvGRe47hlPZlO4PjmBgzSxT&#xA;E48w5GTGJxIPJ8wecvKWoeV9ak066+OM/Ha3IFFliJ2YeB7MOxz0DRayOoxiUfiO4vOZ8Bxyop1+&#xA;Wfna70PUP0VJbnUNJ1VxFPYABmLyUj5Ip2JYfCyn7QzF7U0McseMHhnDr+PwG7SagwPDVxl0em+c&#xA;NG8q6ppMPlSx8xWeh2+nSVmsiyOxIFVUhpY2+EsWPXfruM0Giz5sczmljlkMhz/ALsc+OEo8AkI1&#xA;0/BRdpJ5Vg8uQ2l1f2/mi88sQtexiExtLSAMqn01dx8CkLuT2PWmVTGY5TKMTijlPDvy3+HVlEwE&#xA;KJEzDd4Z5w82ah5o1qTUrwCNacLa3U1WKIdFB7nepPc/dnXaLRx0+Pgj8T3l02fMckrLIPys/L5/&#xA;MupfXb1CNFs2HrE7etINxEvt3b2+eYfa3aIwQ4Y/3kvs8/1N+j0viGz9IfRiIkaKiKERAFVVFAAN&#xA;gABnDk3uXfsI8+f8pf5K/wCY2b/iC5tuz/7jN/VDhan+8h72cZqHNYb+WH/HO1r/ALbN7/xJczNb&#xA;zj/VDRg5H3lll7ZWt9aTWd3GJra4QxzRN0ZWFCMxYyMTY5txFii+ZfzB8kXXlTWTBvJp1xV7G4P7&#xA;Sd0b/LTofvzpNLqRljfXq6rNiMD5O8geeL3ypqplRPrFhdcUvbTu6itGX/LWpp49MOq0wyx8xyXD&#xA;lMD5PY/MmmeWJ/L0vlbT9XtPLbXDi5urWQx+pxlPqlDGZIylWp0OwFOmafDOYn4hiZ1s504x4eEH&#xA;hd5d0zyxD5di8r6jq1p5ka1Y3VraxlDLxiPqKixiSQvQ1pU7qaUpjlnMz4xEwvZYRjw8JPE8b8/e&#xA;eb3zXqizOnoWFtySxtf5FNKs3+W1BX7s3Gl0wxR8zzcHNlMz5Lvy98j3XmvWRB8Uem29Hv7gdlPR&#xA;FPTm9NvDr2wavUjFG+p5LhxcZ8n0zZ2drZWkNpaxiG2gQRwxL0VVFAM5qUjI2ebtQKFBhv5r/wC8&#xA;fl3/ALbtl/xGTM3Q85f1C0ajkP6wZxmC5DsVdirsVdirsVdirsVdirsVdirDfyf/APJc6R/0cf8A&#xA;UVLm07a/xqfw/wByHE0P9yPj97Ms1blse88+TbLzVor2U1I7qOr2VyRvHJTv/kt0YfxAzN0Gtlp8&#xA;nEOXUd7RqMAyxrr0fOFtPrPlHzMsrQrFqmmyMDFMvJeXEr0qKghqgg+4zuZxx6nFV+iQ6PPgyxT8&#xA;wll5d3F5dz3dw3O4uZGlmfpyd2LMdvEnMiEBGIiOQ2a5SJNlH+W/Mep+XdUTUtOZROqshWQckZXF&#xA;CrCoqO/zynVaaGeHBPkzxZTjlYRfkzyjqHmrW0sbeqQj95eXNPhijrufmeij+GV67WR0+PiPPoO9&#xA;lgwHLKg+ndH0iw0fTYNOsIhFa268Y17nxZj3YncnOAzZpZZmcjZL0eOAgKHJGZUzYP58/wCUv8lf&#xA;8xs3/EFzb9n/ANxm/qhwtT/eQ97OM1DmsN/LD/jna1/22b3/AIkuZmt5x/qhowcj7yzLMNvSjzV5&#xA;Y07zJo02mXq/C/xQzAfFFKPsuvy/EbZdgzHHLiDDJASFF8z6hpureUvMyw3USi906dJouQLRSBGD&#xA;o46ckan8OudJCccsNuRdUYmEvcg9b1i91nVbnVL5g11dPzk4iijagVQa7KAAMnjxiEREcgiUjI2W&#xA;9D1m+0XVrbVLFgt1avzj5CqmoKsrDbZlJBxyYxOJieRWEjE2EXpmmat5t8ytDbIpvdQmeaZlHGOM&#xA;OxaRzT7KrX+GQnOOKFnkExiZy976Z8reWdO8t6NDpdivwR/FNKRRpZT9qRvc/gNs5rPmOSXEXa44&#xA;CIoJtlTNg/5r/wC8fl3/ALbtl/xGTM7Q85f1C4+o5D+sGcZguQ7FXYq7FXYq7FXYq7FXYq7FXYqw&#xA;D8udUi0n8o7TU5UaSOziu5nRKciEuJTQVzc9p4jk1pgP4jEf7EODpZ8OAS7r+8swstb0+5s7a4aa&#xA;OFriGKcQu6h1EqhlBFf8qmayeCUZEVdEj5OXHICAUJrnmvTdJksUlIk+u3a2RdXXjE7AkmQk7UAy&#xA;zBpJ5BKv4Y8Xv9zDJmEa8zSzWfL/AJN1UJf6ra2lwKBUu5OIqOw9QEVHhvksGpz4/TAyHl+xcmLH&#xA;LeQCAm8hflvCyLNptlE0n92HbiW+VW3y6PaGqPKUms6bCOgdD5C/LeeVoodNspZUrzjRuTChoagN&#xA;XrjLtDVAWZSUabCeQCPt18o+WdKvbiyjgtLK1q96bZQzBl2+MJyYt88pl4+ecRK5SPK2Y8PHEkbA&#xA;c0yh1fTJrSO8S6i+rS0CSl1AqwqFqT9r2yiWGYlw0bbBOJF3sqzXtlA8aT3EcTymkSu6qWP+SCd8&#xA;jHHI8gSyMgOZYb58/wCUv8lf8xs3/EFzadn/ANxm/qhw9T/eQ97OM1DmsI/Lq4W20TzBcOCVh1bU&#xA;JGA6kIQTT7szdWLlEf0YuPhNA+8sk0PzBZatpFpqaH0I7uP1UilZQ4Ukjeh9sx8mIwkY9zbGYItT&#xA;8xeZrHQ7FbycGZDNFAVjK1UzGis1SKDDiwmZoLOYiLW6xoXlTW4ku9UtrW8ihB4XMnEhVruPUB6V&#xA;98ceXJDaJIWUIy3KWzeQfy4hjWWbTLOON/su54qa+BLZYNVmPIlh4MO4OTyD+XDzGBNMs2nAqYga&#xA;uB/qhq4/ms1XZXwYdwTDTtI8peXo7ybT7a3s/RjMl60QrIsaDl8VOT0oK0yE8mTJQJJ7mUYxjyRu&#xA;na5pWoaZHqdtcKbGReazP8AAJoOQahX6crnjlGXCRuyEwRaJmurWFFeaZI0bZWdgoNelCTkRElNs&#xA;M/Nb/eLy5/23bL/iMmZuh5y/qFo1HIf1gzjMFyHYq7FXYq7FXYq7FXYq7FXYq7FXmvlCyur78jxZ&#xA;2kZlubi1vY4YwQCzNcSgDegzfa3IIdocUtgJR+4OuwRMtNQ50fvKSWvkfzZa6Bf6edNFxqAls9Qh&#xA;vy6hp1h4lrVizni0XRf2dj7Vy56/DLJGXFUalGu6/wCL4tMdPkESK32N/o+CrdeV/M13BJe3OgPM&#xA;s2vnUpdMeSEs1uYqEE8uPXbIQ1eKJ4RkqsXDxUedspYZkWY/x3XkhLz8vPN50LTP9DJhivby5k0e&#xA;N4JDBFchBEqiasT8OLfKvzpbDtLB4kt9+GI4t9yLvluwlpcnCNup222tP/LvkS4TWNB/SWnvNp9j&#xA;pkkZN2YpGjnN00saniSKqjbU6DMPU9oAwnwSqUpjle44aLfi0x4o8Q2EevvSry75B8xWd3pFzHZG&#xA;yvS2rpfXYZQVWaDjaM/FjUc2NKdMyNT2jilGYJ4o/u6HuPqasWmmCDVH1X8tkDoP5b+Z0sdTt57K&#xA;W1u206a3Vi1sIJnLqyJWOjsW68n6U65bqO08JlEiQMeMH+Kx8/uDDHpJ0QRR4fJE6z5M8xX2m6K9&#xA;toDWVvZiWG902M2rM0jxoDdKshaM8yKb/EKfTkMGuxQnO8nEZURL1d59Pf8AoZZNPOQjUarpt81a&#xA;XyX5ki1Hy7LY6ZLPcWVvbwzy37Ws0CxiUyFdzzR4q/aj3NNveA12IxyCUgBIk+niB5V8QfNJ08wY&#xA;0OQHOvxsyjz5/wApf5K/5jZv+ILmB2f/AHGb+qHJ1P8AeQ97OM1DmsD8iRSTeWvMsMa8pJNT1JEX&#xA;xZqADM7Umpw/qxcfF9J95YfpX5f+bIdE1TTrrT/XutR06IWd6zqWgaFw5syGeihiuxXbpX2zJ6rG&#xA;ZCQOwluO/wA2iOGVEEcx+Aq3PljzVqFhrlzNokyG6l0jhZO8ZeRLGJop6Ubptt88AzY4mIEuXFv7&#xA;+STjkQdu77Ft75G81z6HeS2emGytZtVjvYtA5RtSBEKk8CfTJJI+A+GMdTjEhZs8NcSnFKth15I/&#xA;RPIN9NJ5Xh1LTpJtMgn1OS+t7oRgQrPEghXgrtQGRKqB0yGTVAcfCfV6aplDCfTY23XHyPrUPmRN&#xA;UttOKTL5jWYXKsgb9GsAHP2vsdduuD8zEw4Sf4P9kvhHiuv4vsSvQfy+81x65Kl/BKk3G+V9RQRe&#xA;lMLmJ1BkkD+o3JiKKR8OW5dVj4dvLb3MIYZXv5tSeS/MjeVNPs7bQXtZ9Oulk1OEmGT64eJAlVGb&#xA;g/AbUPWuI1EPEJMrsbeS+FLhArk6+8keYP0Hokdvpd1dXtqbhore6W3e3VZpTWKaNpP3dVXkGU7V&#xA;p13xjqYcUrIANcrtTilQ2Zl+aAkGm+WRKFEv6bseYT7IbhJXjXtXMPRfVP8AqFvz8o+8M7zBch2K&#xA;uxV2KuxV2KuxV2KuxV2KuxVhv5P/APkudI/6OP8AqKlzadtf41P4f7kOJof7kfH72ZZq3LdirsVd&#xA;irsVdirsVdirB/Pn/KX+Sv8AmNm/4gubfs/+4zf1Q4Wp/vIe9nGahzWG/lh/xzta/wC2ze/8SXMz&#xA;W84/1Q0YOR95ZlmG3uxV2KuxV2KuxV2KuxVg/wCa/wDvH5d/7btl/wARkzO0POX9QuPqOQ/rBnGY&#xA;LkOxV2KuxV2KuxV2KuxV2KuxV2Kvm/8AxL+Vv/Umyf8AcQuP653X5XWf6sP9IHn/ABcH8z7S7/Ev&#xA;5W/9SbJ/3ELj+uP5XWf6sP8ASBfFwfzPtLv8S/lb/wBSbJ/3ELj+uP5XWf6sP9IF8XB/M+0u/wAS&#xA;/lb/ANSbJ/3ELj+uP5XWf6sP9IF8XB/M+0u/xL+Vv/Umyf8AcQuP64/ldZ/qw/0gXxcH8z7S7/Ev&#xA;5W/9SbJ/3ELj+uP5XWf6sP8ASBfFwfzPtLv8S/lb/wBSbJ/3ELj+uP5XWf6sP9IF8XB/M+0u/wAS&#xA;/lb/ANSbJ/3ELj+uP5XWf6sP9IF8XB/M+0u/xL+Vv/Umyf8AcQuP64/ldZ/qw/0gXxcH8z7Snfkr&#xA;Xvy9n816ZDp/ld7O9eYCC6N7NII2ofi4MaNmJrtPqhhkZZeKNcuEN2nyYjMVCj73uucg7p8+655i&#xA;/LWPW9QjufKUk1wlzMs0wvp15uJCGbiDQVO9M3+PFm4RU+ncHWznjs+n7UD/AIl/K3/qTZP+4hcf&#xA;1yzwc/8AP/2IY8eP+b9rv8S/lb/1Jsn/AHELj+uPg5/5/wDsQvHj/m/a7/Ev5W/9SbJ/3ELj+uPg&#xA;5/5/+xC8eP8Am/a7/Ev5W/8AUmyf9xC4/rj4Of8An/7ELx4/5v2u/wAS/lb/ANSbJ/3ELj+uPg5/&#xA;5/8AsQvHj/m/a7/Ev5W/9SbJ/wBxC4/rj4Of+f8A7ELx4/5v2u/xL+Vv/Umyf9xC4/rj4Of+f/sQ&#xA;vHj/AJv2u/xL+Vv/AFJsn/cQuP64+Dn/AJ/+xC8eP+b9qO0PzF+Wsmt6fHbeUpIbh7mFYZjfTtwc&#xA;yAK3Emhod6ZXkxZuE3Pp3BlCeOx6ftfQWaB2TsVdirsVdirsVdirsVdirsVdir43IINDsR1GeoPJ&#xA;uxV2KvQ/yp/w9cLqdjc6Wlzqf1S5nW9mIdUjRFCqkbAgNyJPLrmk7X8WPDISqHEBQ/X+hz9FwGwR&#xA;vR3Yl5V1EafrlvORahSfTaS9h9eGMPt6hQb1TqKZstXi48ZHq/zTRPk4uGfDIHb4vVNS8reXdV8z&#xA;6Lf3cUD6T+ipb+/vLRPQiu2tiOZEaHkKeopPcjbOexavLjwzjEnj4xEA7mN+fwdlPDCU4k/Tw2a6&#xA;0wn8yIEkXStVs1sRo19HMNPNhbta/wB1JxkWVG3LKxpy75tezJVxQlxccaviPFz5U4erHKQrhPKh&#xA;TC82riOxVk35ZqzefNFCip+sA7eAUk5gdqH/AAafucjSf3sfe+os8+ekfJXmgEeZtXBFCL24BB/4&#xA;ytnV4foj7g6bJ9R96WZaxdirPfyeHl6fzRDY6lpovby5LC1lkIMMSpDJI5aIghmPAAV8a9swO0OM&#xA;QuJoByNNw8VEMTs71dP19br0IJ1gnY+hcp6kBFSKOm1QMy5R4oU0g0Xq2reVtG8xXflFUS0ljvZr&#xA;mPUNS0xBbwSCFWlEXAEsG4xkVPvmqx55YxPntVA7uZLGJGP6GL/mLbabPpNlqnl+Ow/w6tw9rDLZ&#xA;wSQTiUIG43DSgNIeIqDmVpDISMZ3x1e5+5pzAVca4WAZnuO7FUz8rgnzNpAAqTe24AH/ABlXKs30&#xA;S9xZY/qHvfWuco7l2KuxV2KuxV2KuxV2KuxV2KuxV4b+Yn5P6wmqT6n5eg+t2VyxlktEIEkTsasF&#xA;U05JXpx3HSmdd2b21AwEMpqQ697ptVoZcXFDcFhH+APO3/Vjvf8AkS/9M238o6f+fH5uH+WyfzS7&#xA;/AHnb/qx3v8AyJf+mP8AKOn/AJ8fmv5bJ/NKZaF5f/MfRLma5sNFullnge2kL27MPTkpy7ddso1G&#xA;p0uUASnHY3zZ48WaBsRPyTHS1/NPTrGysYtBeW1sPW9GOey9SonPJwxIqd8oynRzlKRyUZVyl3Nk&#xA;PHiAOHYeSrcXX5wz6xbaodLuUls42ht4EteMCxOKOnp0oQ3evt4DIxhoRAw4hUtyeLe/eyJ1BkJU&#xA;dvJLfMGj/mVrr2/1vQ7iK3tFZLS0trUwwRKxq3BFG1T1y/TZtJhvhmLPMmVkteXHmnzjy8kp/wAA&#xA;edv+rHe/8iX/AKZk/wAo6f8Anx+bV+WyfzS2v5fed2YKNEvKk0FYmA+87YD2jp/58fmv5XJ/NL1j&#xA;8qfytu9Cuv03rQVdR4FLW1UhvSDijM7Co5kfDsaAV+jnO1+1o5h4eP6ep73Z6LRmB4pc3qGc+7J4&#xA;3+aX5T6nd6pNrugRfWPrJ53lkCFcSU3kjrTkG6kda+NdtxotdER4Z9Org59OSbi81byT5yVip0LU&#xA;KjwtZiPvC0zZfmcf86PzcXwpdxa/wX5x/wCrDqP/AEiT/wDNGP5jH/Oj8wvhS7ij9B0f8wNC1aDV&#xA;bDQ79bu35+mXs5mX40aM1HH+VjleXJhnHhMhXvDKEZxNgH5Jjpcn5k6bZrZxeXbiW3W6a94T6dLJ&#xA;WR4zGQap9nicrmMMjfEOVfUzj4gFV9iJvtV/Nm6utPnj0W7sl0tzJZ29pp8sUSuwoxKcDXkCQa9i&#xA;fE5GMNOARxA8XfJJlkJG3LyQXmGP8xtcgitrjy9c21pC7Spa2mnywRmV/tSMFTdj4nJ4jhgbEgT5&#xA;yYz45dPsSP8AwX5x/wCrDqP/AEiT/wDNGX/mMf8AOj8w1+FLuLa+SfOTMFGhahU+NrMB95WmP5nH&#xA;/Oj818KXcXpX5W/lPqdnqkOu6/ELf6sednZEhnMnaSSlQvHqB1r4U31ut10THhh16uVg05BuT2TN&#xA;O5zsVdirsVdirsVdirsVdirsVdir/9k=</xmpGImg:image>
               </rdf:li>
            </rdf:Alt>
         </xmp:Thumbnails>
         <xmpTPg:NPages>1</xmpTPg:NPages>
         <xmpTPg:HasVisibleTransparency>False</xmpTPg:HasVisibleTransparency>
         <xmpTPg:HasVisibleOverprint>False</xmpTPg:HasVisibleOverprint>
         <xmpTPg:MaxPageSize rdf:parseType="Resource">
            <stDim:w>286.708008</stDim:w>
            <stDim:h>463.516998</stDim:h>
            <stDim:unit>Pixels</stDim:unit>
         </xmpTPg:MaxPageSize>
         <xmpTPg:PlateNames>
            <rdf:Seq>
               <rdf:li>Cyan</rdf:li>
               <rdf:li>Magenta</rdf:li>
               <rdf:li>Black</rdf:li>
            </rdf:Seq>
         </xmpTPg:PlateNames>
         <xmpTPg:SwatchGroups>
            <rdf:Seq>
               <rdf:li rdf:parseType="Resource">
                  <xmpG:groupName>Default Swatch Group</xmpG:groupName>
                  <xmpG:groupType>0</xmpG:groupType>
               </rdf:li>
            </rdf:Seq>
         </xmpTPg:SwatchGroups>
         <illustrator:IsFileSavedViaInstantSave>False</illustrator:IsFileSavedViaInstantSave>
         <illustrator:CreatorSubTool>Adobe Illustrator</illustrator:CreatorSubTool>
         <dc:format>image/svg+xml</dc:format>
         <dc:title>
            <rdf:Alt>
               <rdf:li xml:lang="x-default">kubernetes_cert_1_34</rdf:li>
            </rdf:Alt>
         </dc:title>
         <xmpMM:RenditionClass>default</xmpMM:RenditionClass>
         <xmpMM:DocumentID>xmp.did:ac1a1156-7e22-e840-af1c-423ddfd38ba3</xmpMM:DocumentID>
         <xmpMM:InstanceID>xmp.iid:ac1a1156-7e22-e840-af1c-423ddfd38ba3</xmpMM:InstanceID>
         <xmpMM:OriginalDocumentID>uuid:b6923fc7-797b-417e-a671-c255a6687e9f</xmpMM:OriginalDocumentID>
         <xmpMM:DerivedFrom rdf:parseType="Resource">
            <stRef:instanceID>xmp.iid:dea44a7f-c045-754e-a943-5ce771fd9a49</stRef:instanceID>
            <stRef:documentID>xmp.did:dea44a7f-c045-754e-a943-5ce771fd9a49</stRef:documentID>
            <stRef:originalDocumentID>uuid:b6923fc7-797b-417e-a671-c255a6687e9f</stRef:originalDocumentID>
            <stRef:renditionClass>default</stRef:renditionClass>
         </xmpMM:DerivedFrom>
         <xmpMM:History>
            <rdf:Seq>
               <rdf:li rdf:parseType="Resource">
                  <stEvt:action>saved</stEvt:action>
                  <stEvt:instanceID>xmp.iid:82e245b7-4446-6049-aad7-e606b519c5e6</stEvt:instanceID>
                  <stEvt:when>2026-02-26T07:33:52-05:00</stEvt:when>
                  <stEvt:softwareAgent>Adobe Illustrator 30.2 (Windows)</stEvt:softwareAgent>
                  <stEvt:changed>/</stEvt:changed>
               </rdf:li>
               <rdf:li rdf:parseType="Resource">
                  <stEvt:action>saved</stEvt:action>
                  <stEvt:instanceID>xmp.iid:ac1a1156-7e22-e840-af1c-423ddfd38ba3</stEvt:instanceID>
                  <stEvt:when>2026-02-26T07:45:40-05:00</stEvt:when>
                  <stEvt:softwareAgent>Adobe Illustrator 30.2 (Windows)</stEvt:softwareAgent>
                  <stEvt:changed>/</stEvt:changed>
               </rdf:li>
            </rdf:Seq>
         </xmpMM:History>
         <pdf:Producer>Adobe PDF library 18.00</pdf:Producer>
      </rdf:Description>
   </rdf:RDF>
</x:xmpmeta>
                                                                                                    
                                                                                                    
                                                                                                    
                                                                                                    
                                                                                                    
                                                                                                    
                                                                                                    
                                                                                                    
                                                                                                    
                                                                                                    
                                                                                                    
                                                                                                    
                                                                                                    
                                                                                                    
                                                                                                    
                                                                                                    
                                                                                                    
                                                                                                    
                                                                                                    
                                                                                                    
                           
<?xpacket end="w"?>
  </metadata>
</svg>