<svg xmlns="http://www.w3.org/2000/svg" role="img" viewBox="-0.27 -0.77 305.04 482.04"><defs><style>.cls-1{fill:none}.cls-2{fill:#fff}</style></defs><path d="M68.22 60.47a9.171 9.171 0 0 0 3.7 2.6 14.533 14.533 0 0 0 5.4.9 21.111 21.111 0 0 0 3.8-.4 15.794 15.794 0 0 0 2.8-.8l-.9-5.3a10.272 10.272 0 0 1-2.5.7 22.847 22.847 0 0 1-2.5.2c-2.3 0-3.8-.6-4.7-1.7a7.422 7.422 0 0 1-1.3-4.8 7.116 7.116 0 0 1 1.4-4.7 5.108 5.108 0 0 1 4.3-1.8 9.005 9.005 0 0 1 2.5.3c.7.2 1.4.4 2 .6l1.4-5.2a17.102 17.102 0 0 0-3-.9 17.928 17.928 0 0 0-3.4-.3 13.102 13.102 0 0 0-5 1 10.786 10.786 0 0 0-3.7 2.6 10.896 10.896 0 0 0-2.3 3.9 14.234 14.234 0 0 0-.8 4.5 15.071 15.071 0 0 0 .7 4.8 9.5 9.5 0 0 0 2.1 3.8zm20.9.3a11.428 11.428 0 0 0 3.8 2.5 14.534 14.534 0 0 0 5.4.9 20.089 20.089 0 0 0 2.5-.1c.8-.1 1.6-.2 2.3-.3.8-.2 1.4-.3 2-.5a4.567 4.567 0 0 0 1.4-.5l-.9-5.3a11.986 11.986 0 0 1-2.8.8 19.825 19.825 0 0 1-3.5.3 7.51 7.51 0 0 1-4.5-1.2 4.348 4.348 0 0 1-1.9-3.2h14.9c0-.3.1-.7.1-1.2v-1.2c0-3.9-.9-6.8-2.8-8.8a10.245 10.245 0 0 0-7.8-3 11.503 11.503 0 0 0-4.1.8 10.144 10.144 0 0 0-3.5 2.3 11.428 11.428 0 0 0-2.5 3.8 12.706 12.706 0 0 0-1 5.4 14.456 14.456 0 0 0 .7 4.7 9.065 9.065 0 0 0 2.2 3.8zm4.3-12.7a2.223 2.223 0 0 1 .8-1.3 3.25 3.25 0 0 1 1.3-1 3.806 3.806 0 0 1 1.9-.4 3.576 3.576 0 0 1 1.9.4 4.485 4.485 0 0 1 1.3 1 6.11 6.11 0 0 1 .7 1.4 7.97 7.97 0 0 1 .3 1.5h-8.6a9.36 9.36 0 0 1 .4-1.6zm39.6 13.4a7.463 7.463 0 0 0 2.8 2 10.958 10.958 0 0 0 4.4.7 17.1 17.1 0 0 0 3.6-.4 19.754 19.754 0 0 0 2.6-.8l-.9-5.1a11.693 11.693 0 0 1-2 .5 17.954 17.954 0 0 1-2.2.2 3.192 3.192 0 0 1-2.9-1.2 6.228 6.228 0 0 1-.7-3.3v-8.2h7.8v-5.4h-7.8v-6.8l-6.5 1.1h-.1v19.5a17.282 17.282 0 0 0 .4 4.1 8.144 8.144 0 0 0 1.5 3.1zm-13.6-15.4a10.499 10.499 0 0 0 1.3-.2 8.637 8.637 0 0 1 1.5-.1 10.145 10.145 0 0 1 2.5.2c.8.2 1.5.4 2.1.5l1.1-5.4a4.952 4.952 0 0 0-1.3-.4l-1.5-.3a7.72 7.72 0 0 0-1.5-.2 6.153 6.153 0 0 0-1.3-.1 22.202 22.202 0 0 0-5.3.5c-1.6.4-2.9.8-4.1 1.2v21.9h6.5zm-23.5 288.6c-.017 0-.037.004-.054.004 3.166.023 4.654 2.218 4.654 6.496a8.136 8.136 0 0 1-1.4 4.9 4.654 4.654 0 0 1-4.1 1.9h.1a4.903 4.903 0 0 0 4.1-1.9 9.242 9.242 0 0 0 1.4-5c0-4.3-1.6-6.4-4.7-6.4zm94.6 1.2a3.248 3.248 0 0 1 1.3-1 3.807 3.807 0 0 1 1.9-.4 3.576 3.576 0 0 1 1.9.4 2.714 2.714 0 0 1 .32.159 18.56 18.56 0 0 0-.42-.259 3.576 3.576 0 0 0-1.9-.4 3.807 3.807 0 0 0-1.9.4 6.422 6.422 0 0 0-1.3 1 5.301 5.301 0 0 0-.8 1.5 7.19 7.19 0 0 0-.38 1.5h.12a7.92 7.92 0 0 1 .36-1.4 3.606 3.606 0 0 1 .8-1.5zm-71.1 0a3.248 3.248 0 0 1 1.3-1 3.807 3.807 0 0 1 1.9-.4 3.576 3.576 0 0 1 1.9.4 2.71 2.71 0 0 1 .32.159 18.731 18.731 0 0 0-.42-.259 3.576 3.576 0 0 0-1.9-.4 3.807 3.807 0 0 0-1.9.4 6.422 6.422 0 0 0-1.3 1 5.3 5.3 0 0 0-.8 1.5 7.191 7.191 0 0 0-.38 1.5h.12a7.914 7.914 0 0 1 .36-1.4 3.606 3.606 0 0 1 .8-1.5zm76.3-275.1a11.428 11.428 0 0 0 3.8 2.5 14.533 14.533 0 0 0 5.4.9 20.089 20.089 0 0 0 2.5-.1c.8-.1 1.6-.2 2.3-.3.8-.2 1.4-.3 2-.5a4.567 4.567 0 0 0 1.4-.5l-.9-5.3a11.985 11.985 0 0 1-2.8.8 19.825 19.825 0 0 1-3.5.3 7.51 7.51 0 0 1-4.5-1.2 4.348 4.348 0 0 1-1.9-3.2h14.9c0-.3.1-.7.1-1.2v-1.2c0-3.9-.9-6.8-2.8-8.8a10.245 10.245 0 0 0-7.8-3 11.503 11.503 0 0 0-4.1.8 10.144 10.144 0 0 0-3.5 2.3 11.427 11.427 0 0 0-2.5 3.8 15.548 15.548 0 0 0-.3 10.1 9.064 9.064 0 0 0 2.2 3.8zm4.3-12.6a3.922 3.922 0 0 1 .8-1.4 3.249 3.249 0 0 1 1.3-1 3.806 3.806 0 0 1 1.9-.4 3.576 3.576 0 0 1 1.9.4 4.485 4.485 0 0 1 1.3 1 6.107 6.107 0 0 1 .7 1.4 4.145 4.145 0 0 1 .3 1.6h-8.6a9.36 9.36 0 0 1 .4-1.6zm21.2 12.8a12.3 12.3 0 0 0 3.8 2.4 16.05 16.05 0 0 0 5.1.8 21.757 21.757 0 0 0 2.5-.1c.8-.1 1.7-.2 2.5-.3a20.029 20.029 0 0 0 2.4-.4c.7-.2 1.4-.3 2-.5v-33.3l-6.5 1.1v10.5c-.8-.3-1.5-.5-2.2-.7a8.75 8.75 0 0 0-2.4-.3 10.174 10.174 0 0 0-4.4.8 8.2 8.2 0 0 0-3.2 2.4 10.563 10.563 0 0 0-2 3.8 15.912 15.912 0 0 0-.7 5 15.418 15.418 0 0 0 .8 5 9.7 9.7 0 0 0 2.3 3.8zm8.2-15.5a6.929 6.929 0 0 1 2 .3 4.79 4.79 0 0 1 1.6.7v11.8a3.73 3.73 0 0 1-1.2.2 8.085 8.085 0 0 1-1.6.1 4.365 4.365 0 0 1-4-1.9 8.352 8.352 0 0 1-1.4-4.9c0-4.2 1.5-6.3 4.6-6.3zm-44.3-7.8a3.942 3.942 0 0 0 2.7-1 3.867 3.867 0 0 0 0-5.6 3.62 3.62 0 0 0-2.7-1 3.942 3.942 0 0 0-2.7 1 4.262 4.262 0 0 0-1.2 2.8 3.489 3.489 0 0 0 1.2 2.8 3.62 3.62 0 0 0 2.7 1zm-31 0a3.942 3.942 0 0 0 2.7-1 3.867 3.867 0 0 0 0-5.6 3.62 3.62 0 0 0-2.7-1 3.942 3.942 0 0 0-2.7 1 3.867 3.867 0 0 0 0 5.6 3.62 3.62 0 0 0 2.7 1zm-3.2 25.9v.1h6.5v-23.1h-6.5v23zm19.1-17.6h8.1v-5.4h-8.1v-1.1a8.808 8.808 0 0 1 .2-1.7 4.58 4.58 0 0 1 .7-1.4 3.045 3.045 0 0 1 1.3-.9 5.618 5.618 0 0 1 2-.3 9.699 9.699 0 0 1 1.7.1 4.193 4.193 0 0 1 1.6.4l1.1-5.1a7.712 7.712 0 0 0-2-.7 12.62 12.62 0 0 0-3-.3c-3.3 0-5.8.8-7.5 2.6a9.781 9.781 0 0 0-2.5 7.1h-.1v24.3h6.5zm11.9 17.6v.1h6.5v-23.1h-6.5v23zm53.4 272.3a3.248 3.248 0 0 1 1.3-1 3.807 3.807 0 0 1 1.9-.4 3.576 3.576 0 0 1 1.9.4 2.714 2.714 0 0 1 .32.159 18.582 18.582 0 0 0-.42-.259 3.576 3.576 0 0 0-1.9-.4 3.807 3.807 0 0 0-1.9.4 6.42 6.42 0 0 0-1.3 1 5.3 5.3 0 0 0-.8 1.5 7.194 7.194 0 0 0-.38 1.5h.12a7.92 7.92 0 0 1 .36-1.4 3.606 3.606 0 0 1 .8-1.5z" class="cls-1"/><path d="M16.52 388.67h270.8V84.07H16.52zm62.8-36.4c-1.2.3-2.6.6-4.4.9a33.556 33.556 0 0 1-5.6.4 14.142 14.142 0 0 1-5-.8 7.036 7.036 0 0 1-3.1-2.2 10.192 10.192 0 0 1-1.6-3.5 19.715 19.715 0 0 1-.5-4.4v-13h6.6v12.2c0 2.1.2 3.7.8 4.6a3.623 3.623 0 0 0 3.2 1.4h1.5c.5-.1 1-.1 1.4-.2h.1v-18h6.6zm27.2-5.9a12.8 12.8 0 0 1-2.4 3.9 10.084 10.084 0 0 1-3.8 2.5 16.694 16.694 0 0 1-5.2.8 21.742 21.742 0 0 1-2.5-.1c-.9-.1-1.7-.2-2.6-.3-.8-.1-1.6-.3-2.4-.4a11.7 11.7 0 0 1-2-.5v-32.7l6.6-1.1v11.7a8.956 8.956 0 0 1 2.3-.8 10.902 10.902 0 0 1 2.6-.3 10.17 10.17 0 0 1 4.4.9 7.542 7.542 0 0 1 3.2 2.4 11.82 11.82 0 0 1 1.9 3.9 15.912 15.912 0 0 1 .7 5 13.665 13.665 0 0 1-.8 5.1zm26.8-4.2c0 .4-.1.8-.1 1.2h-15.1a4.364 4.364 0 0 0 1.9 3.3 7.51 7.51 0 0 0 4.5 1.2 20.984 20.984 0 0 0 3.6-.3 13.029 13.029 0 0 0 2.9-.8l.9 5.4c-.3.1-.8.3-1.4.5-.6.1-1.3.3-2 .4a15.723 15.723 0 0 1-2.3.4 20.894 20.894 0 0 1-2.5.1 15.469 15.469 0 0 1-5.5-.9 9.73 9.73 0 0 1-3.9-2.5 10.896 10.896 0 0 1-2.3-3.9 15.071 15.071 0 0 1-.7-4.8 14.904 14.904 0 0 1 .9-5.4 10.93 10.93 0 0 1 2.5-3.9 10.332 10.332 0 0 1 3.6-2.4 12.494 12.494 0 0 1 4.2-.8 10.81 10.81 0 0 1 7.9 2.9c1.9 2.1 2.9 5.1 2.9 9zm19.2-6.7c-.6-.1-1.3-.3-2.1-.4a10.903 10.903 0 0 0-2.6-.3 8.633 8.633 0 0 0-1.5.1 3.917 3.917 0 0 0-1.3.2v18h-6.6v-22.2a30.787 30.787 0 0 1 4.2-1.2 22.305 22.305 0 0 1 5.4-.6 6.15 6.15 0 0 1 1.3.1c.5.1 1 .1 1.5.2a7.72 7.72 0 0 1 1.5.2c.5.1.9.3 1.3.4zm24.8 17.3h-6.6v-12.4c0-2.1-.2-3.6-.8-4.5a3.577 3.577 0 0 0-3.2-1.3 7.566 7.566 0 0 0-1.5.1 6.151 6.151 0 0 0-1.4.1v18.1h-6.6v-22.6c1.2-.3 2.6-.6 4.4-.9a33.557 33.557 0 0 1 5.6-.4 13.952 13.952 0 0 1 4.9.8 6.815 6.815 0 0 1 3.2 2.2 8.495 8.495 0 0 1 1.5 3.2 19.715 19.715 0 0 1 .5 4.4zm27.1-10.6c0 .4-.1.8-.1 1.2h-15.1a4.364 4.364 0 0 0 1.9 3.3 7.51 7.51 0 0 0 4.5 1.2 20.985 20.985 0 0 0 3.6-.3 13.03 13.03 0 0 0 2.9-.8l.9 5.4c-.3.1-.8.3-1.4.5-.6.1-1.3.3-2 .4a15.723 15.723 0 0 1-2.3.4 20.894 20.894 0 0 1-2.5.1 15.469 15.469 0 0 1-5.5-.9 9.73 9.73 0 0 1-3.9-2.5 10.896 10.896 0 0 1-2.3-3.9 15.071 15.071 0 0 1-.7-4.8 14.904 14.904 0 0 1 .9-5.4 10.93 10.93 0 0 1 2.5-3.9 10.332 10.332 0 0 1 3.6-2.4 12.495 12.495 0 0 1 4.2-.8 10.972 10.972 0 0 1 7.9 2.9c1.9 2.1 2.9 5.1 2.9 9zm17.8 10.9a12.768 12.768 0 0 1-3.6.4 11.818 11.818 0 0 1-4.5-.7 6.85 6.85 0 0 1-2.9-2 8.592 8.592 0 0 1-1.5-3.2 17.282 17.282 0 0 1-.4-4.1v-19.7l6.6-1.1v6.9h8v5.5h-8v8.4a6.228 6.228 0 0 0 .7 3.3q.75 1.2 3 1.2a16.346 16.346 0 0 0 2.2-.2c.7-.2 1.4-.4 2.2-.7l.9 5.2a17.308 17.308 0 0 1-2.7.8zm41.3-7.9a22.041 22.041 0 0 0-3-1.4c-1-.4-1.9-.8-2.8-1.2a8.01 8.01 0 0 1-2.1-1.5 5.958 5.958 0 0 1-1.4-2.1 8.361 8.361 0 0 1-.5-2.9 6.316 6.316 0 0 1 2.4-5.2c1.6-1.3 3.8-1.9 6.7-1.9a18.404 18.404 0 0 1 4.1.4 15.268 15.268 0 0 1 3.1.8l-1.2 5.2a14.948 14.948 0 0 0-2.5-.7 13.855 13.855 0 0 0-3-.3c-2.1 0-3.1.5-3.1 1.7a1.482 1.482 0 0 0 .1.7 1.333 1.333 0 0 0 .5.6 10.907 10.907 0 0 0 1.1.6c.5.2 1.1.4 1.8.7a25.322 25.322 0 0 1 3.6 1.6 7.984 7.984 0 0 1 2.2 1.7 3.474 3.474 0 0 1 1 2 7.105 7.105 0 0 1 .4 2.6 5.813 5.813 0 0 1-2.6 5.3c-1.7 1.2-4.1 1.8-7.3 1.8a19.47 19.47 0 0 1-5.2-.5c-1.3-.4-2.3-.7-2.8-.9l1.1-5.4a23.546 23.546 0 0 0 3.5 1.1 13.934 13.934 0 0 0 3.5.4 7.376 7.376 0 0 0 2.6-.4 1.486 1.486 0 0 0 .8-1.4c0-.6-.3-1-1-1.4zm-14.2-3c0 .4-.1.8-.1 1.2h-15.1a4.364 4.364 0 0 0 1.9 3.3 7.51 7.51 0 0 0 4.5 1.2 20.984 20.984 0 0 0 3.6-.3 13.029 13.029 0 0 0 2.9-.8l.9 5.4c-.3.1-.8.3-1.4.5-.6.1-1.3.3-2 .4a15.723 15.723 0 0 1-2.3.4 20.894 20.894 0 0 1-2.5.1 15.469 15.469 0 0 1-5.5-.9 9.73 9.73 0 0 1-3.9-2.5 10.896 10.896 0 0 1-2.3-3.9 15.071 15.071 0 0 1-.7-4.8 14.904 14.904 0 0 1 .9-5.4 10.93 10.93 0 0 1 2.5-3.9 10.332 10.332 0 0 1 3.6-2.4 12.495 12.495 0 0 1 4.2-.8 10.972 10.972 0 0 1 7.9 2.9c1.9 2.1 2.9 5.1 2.9 9zm-191-107.6l16.2-70.6a12.445 12.445 0 0 1 6.8-8.5l65.7-31.4a13.058 13.058 0 0 1 4.8-1.2 12.824 12.824 0 0 1 6.1 1.2l65.8 31.3a12.937 12.937 0 0 1 6.8 8.5l16.2 70.5a12.305 12.305 0 0 1-2.4 10.6l-45.5 56.6a12.515 12.515 0 0 1-9.8 4.7l-73 .2a12.515 12.515 0 0 1-9.8-4.7l-45.5-56.6c-.2-.3-.5-.7-.7-1a12.54 12.54 0 0 1-1.7-9.6zm-24.3 85l6.6-1.1v19.6c.6-.7 1.3-1.4 2-2.2s1.3-1.6 2-2.3c.6-.8 1.2-1.5 1.8-2.2s1.1-1.3 1.5-1.8h7.9c-1.5 1.8-3.1 3.5-4.6 5.2s-3.1 3.3-4.9 5.1a39.61 39.61 0 0 1 2.8 2.9c1 1.1 1.9 2.2 2.8 3.4a36.113 36.113 0 0 1 2.3 3.6 30.07 30.07 0 0 1 1.9 3.3h-7.6c-.4-.7-1-1.6-1.6-2.5s-1.2-1.9-1.9-2.8-1.4-1.8-2.2-2.7a15.208 15.208 0 0 0-2.2-2.2v10.2h-6.6z" class="cls-1"/><path d="M88.42 236.77a.367.367 0 0 1 .3-.1c.2-.1.5-.1.7-.2.9-.3 1.6-.6 2.4-.9.4-.2.8-.3 1.2-.5h.1a35.347 35.347 0 0 1 6.7-2 3.523 3.523 0 0 1 2.1.7c.1 0 .1.1.2.1l1.7-.3a51.718 51.718 0 0 0 22.7 28.3l-.7 1.7a4.351 4.351 0 0 0 1 1.9 39.555 39.555 0 0 1-3.6 6.4c-.2.3-.5.7-.7 1a15.335 15.335 0 0 0-1.4 2.1c-.1.2-.2.5-.3.7s-.1.3-.2.4a4.237 4.237 0 0 0 1.7 5.6 3.167 3.167 0 0 0 1.6.4 4.454 4.454 0 0 0 3.9-2.6c.1-.1.1-.2.2-.3a4.881 4.881 0 0 1 .3-.7 13.493 13.493 0 0 0 .8-2.4 5.639 5.639 0 0 0 .4-1.2c.3-.7.5-1.5.8-2.3a14.632 14.632 0 0 1 2.2-4.7 3.365 3.365 0 0 1 1.7-.8l.9-1.6a51.578 51.578 0 0 0 29.6 2.1 56.744 56.744 0 0 0 6.7-2 5.889 5.889 0 0 0 .4.8c.2.3.3.6.4.7.1 0 .2.1.3.1a2.536 2.536 0 0 1 1.7 1.1 36.386 36.386 0 0 1 2.7 6.5v.1a5.639 5.639 0 0 1 .4 1.2 11.278 11.278 0 0 0 .8 2.4c0 .2.2.4.3.7 0 .1.1.2.1.3a4.483 4.483 0 0 0 2.4 2.3 3.733 3.733 0 0 0 3.1-.1 4.118 4.118 0 0 0 1.7-5.6c-.1-.1-.1-.2-.2-.3a2.507 2.507 0 0 1-.4-.7c-.5-.8-.9-1.4-1.4-2.1a8.652 8.652 0 0 1-.7-1 33.047 33.047 0 0 1-3.5-6.2 2.692 2.692 0 0 1 .2-2c0-.1.1-.2.1-.3-.1-.1-.2-.6-.4-1-.1-.2-.1-.4-.2-.5a51.21 51.21 0 0 0 22.7-28.5c.6.1 1.4.2 1.7.3 0-.1.1-.1.2-.2a2.413 2.413 0 0 1 1.7-.7h.2a37.627 37.627 0 0 1 6.7 2h.1c.4.2.8.3 1.2.5a7.888 7.888 0 0 0 2.3.9c.1 0 .4.1.6.1s.3.1.4.1a4.23 4.23 0 0 0 5.1-2.9 4.327 4.327 0 0 0-3.4-4.8c-.1 0-.2-.1-.4-.1a1.855 1.855 0 0 0-.7-.2 22.862 22.862 0 0 0-2.5-.2c-.4 0-.9-.1-1.3-.1h-.1a33.166 33.166 0 0 1-7-1.1 2.956 2.956 0 0 1-1.6-1.5.349.349 0 0 0-.1-.2l-1.6-.5a49.545 49.545 0 0 0-.8-18.4 50.582 50.582 0 0 0-7.4-17 5.718 5.718 0 0 1 .8-.7 3.806 3.806 0 0 0 .6-.5v-.3a2.655 2.655 0 0 1 .7-1.9 36.328 36.328 0 0 1 5.8-4.1c.4-.2.7-.4 1.1-.6a23.93 23.93 0 0 0 2.1-1.3c.2-.2.4-.3.6-.5.1-.1.2-.1.3-.2a4.125 4.125 0 0 0 1-5.8c-1.3-1.8-4-1.9-5.9-.4 0 .1-.1.1-.2.2a2.654 2.654 0 0 1-.6.5 15.269 15.269 0 0 0-1.8 1.8 6.467 6.467 0 0 1-.8.9l-.1.1a42.406 42.406 0 0 1-5.2 4.7 4.354 4.354 0 0 1-2.2.3h-.2l-1.5 1.1a49.517 49.517 0 0 0-14.8-10.8 50.399 50.399 0 0 0-17.8-5c0-.5-.1-1.4-.1-1.7l-.2-.2a2.353 2.353 0 0 1-1.1-1.7 34.21 34.21 0 0 1 .4-6.9v-.2a5.02 5.02 0 0 1 .2-1.2 19.006 19.006 0 0 0 .3-2.5v-1.1a4.018 4.018 0 1 0-8 0v1.1a10.074 10.074 0 0 0 .3 2.5c.1.4.1.8.2 1.2v.1a36.144 36.144 0 0 1 .4 7.1 4.644 4.644 0 0 1-1.3 2l-.1 1.6a55.249 55.249 0 0 0-7.1 1.1 50.496 50.496 0 0 0-25.7 14.7c-.4-.3-1.2-.8-1.4-1h-.3a2.5 2.5 0 0 1-2-.3 42.402 42.402 0 0 1-5.2-4.7l-.1-.1c-.3-.3-.5-.6-.8-.9a14.06 14.06 0 0 0-1.7-1.8c-.1-.1-.4-.3-.6-.5 0-.1-.1-.1-.2-.2a4.779 4.779 0 0 0-2.8-1h-.1a3.749 3.749 0 0 0-3 1.4 3.89 3.89 0 0 0-.7 3 4.589 4.589 0 0 0 1.7 2.8c0 .1.1.1.2.2a2.652 2.652 0 0 0 .6.5 11.974 11.974 0 0 0 2.1 1.3 10.91 10.91 0 0 0 1.1.6 30.922 30.922 0 0 1 5.8 4.1 3.679 3.679 0 0 1 .8 2.1v.2l1.2 1.1a51.24 51.24 0 0 0-8 35.5l-1.6.5-.2.2a3.606 3.606 0 0 1-1.5 1.5 41.208 41.208 0 0 1-7 1.1h-.1a6.149 6.149 0 0 1-1.3.1 10.98 10.98 0 0 0-2.5.2 6.36 6.36 0 0 1-.7.2.367.367 0 0 1-.3.1 4.116 4.116 0 0 0-3.4 4.8 4.23 4.23 0 0 0 5.1 2.9zm49.9-3.6l-7.8 19a40.339 40.339 0 0 1-9.7-8.7 38.769 38.769 0 0 1-6.6-11.7l20.3-3.4a1.269 1.269 0 0 1 .6-.1 3.407 3.407 0 0 1 3.3 2.7 3.072 3.072 0 0 1-.2 2.1zm23.3 24.4a40.481 40.481 0 0 1-22.1-1.1l10-18a3.338 3.338 0 0 1 2.9-1.8h.1a4.014 4.014 0 0 1 1.5.3 4.307 4.307 0 0 1 1.5 1.5h.1l10 18c-1.3.4-2.6.8-4 1.1zm14.3-6.2l.1-.1a.098.098 0 0 1-.1.1zm8.5-8.1a36.235 36.235 0 0 1-9.9 8.8l-7.9-19.2a3.49 3.49 0 0 1 1.7-4.5 2.768 2.768 0 0 1 1.3-.3 2.202 2.202 0 0 1 .8.1l20.4 3.5a39.905 39.905 0 0 1-6.4 11.6zm7.7-34.4a41.21 41.21 0 0 1 .9 13.1l-19.9-5.7v-.1a3.51 3.51 0 0 1-2.4-4.1 4.185 4.185 0 0 1 1.1-1.8l15.3-13.7a41.354 41.354 0 0 1 5 12.3zm-21.9-27.7a44.48 44.48 0 0 1 10.8 7.5l-16.8 11.9h-.1a3.444 3.444 0 0 1-4.7-.6 3.722 3.722 0 0 1-.7-2l-1.2-20.6a43.325 43.325 0 0 1 12.7 3.8zm-20.9 30.2h6.3l3.9 4.9-1.4 6.1-5.6 2.7-5.7-2.7-1.4-6.1zm-6-33.1c1.4-.3 2.8-.5 4.2-.7l-1.2 20.6h-.1a3.35 3.35 0 0 1-3.4 3.3 3.722 3.722 0 0 1-2-.7l-16.9-12a38.58 38.58 0 0 1 19.4-10.5zm-30.5 30.3a38.524 38.524 0 0 1 4.9-12.1l15.5 13.7v.1a3.427 3.427 0 0 1 .4 4.7 3.597 3.597 0 0 1-1.8 1.2v.1l-19.8 5.7a40.238 40.238 0 0 1 .8-13.4z" class="cls-1"/><path d="M9.22 438.07a34.292 34.292 0 0 0 34.3 34.3h218.1a34.291 34.291 0 0 0 34.3-34.3v-32.9H9.22zm146.3-13h20.8v4.6a29.071 29.071 0 0 0-3 4.2 55.778 55.778 0 0 0-3.1 6 67.379 67.379 0 0 0-2.6 7.2 43.145 43.145 0 0 0-1.4 7.7h-6.478c-.007.066-.016.134-.022.2v-.2h.022a37.844 37.844 0 0 1 1.078-6.3 51.622 51.622 0 0 1 2-6.7c.8-2.2 1.7-4.2 2.6-6.2a43.975 43.975 0 0 1 3-5h-12.9zm-7.9 23.6a4.42 4.42 0 0 1 5.6 0 4.104 4.104 0 0 1 0 5.8 4.42 4.42 0 0 1-5.6 0 3.699 3.699 0 0 1-1.2-2.9 3.43 3.43 0 0 1 1.2-2.9zm-18-18.5a13.498 13.498 0 0 0 2.6-1.5 21.956 21.956 0 0 0 2.5-1.7 12.866 12.866 0 0 0 2.1-1.9h4.5v29.8h-6.4v-21.4a19.874 19.874 0 0 1-2.9 1.6 24.479 24.479 0 0 1-3.1 1.2l-1.9-4.9a19.554 19.554 0 0 0 2.6-1.2z" class="cls-2"/><path d="M159.72 454.97c.006-.066.015-.134.022-.2h-.022zm90.6-446.2H54.72a45.838 45.838 0 0 0-45.6 45.6v341.7h286.7V80.17h.1v-25.8a45.708 45.708 0 0 0-45.6-45.6zm-31.5 38.4a10.563 10.563 0 0 1 2-3.8 8.2 8.2 0 0 1 3.2-2.4 10.174 10.174 0 0 1 4.4-.8 8.75 8.75 0 0 1 2.4.3c.7.2 1.4.4 2.2.7v-10.5l6.5-1.1v33.3c-.6.2-1.3.3-2 .5a20.029 20.029 0 0 1-2.4.4c-.8.1-1.7.2-2.5.3a21.757 21.757 0 0 1-2.5.1 16.05 16.05 0 0 1-5.1-.8 12.3 12.3 0 0 1-3.8-2.4 9.7 9.7 0 0 1-2.3-3.8 15.418 15.418 0 0 1-.8-5 15.912 15.912 0 0 1 .7-5zm-25-.3a11.427 11.427 0 0 1 2.5-3.8 10.144 10.144 0 0 1 3.5-2.3 11.503 11.503 0 0 1 4.1-.8 10.245 10.245 0 0 1 7.8 3c1.9 2 2.8 4.9 2.8 8.8v1.2c0 .5-.1.9-.1 1.2h-14.9a4.348 4.348 0 0 0 1.9 3.2 7.51 7.51 0 0 0 4.5 1.2 19.825 19.825 0 0 0 3.5-.3 11.985 11.985 0 0 0 2.8-.8l.9 5.3a4.567 4.567 0 0 1-1.4.5c-.6.2-1.2.3-2 .5-.7.1-1.5.2-2.3.3a20.089 20.089 0 0 1-2.5.1 14.533 14.533 0 0 1-5.4-.9 11.428 11.428 0 0 1-3.8-2.5 9.064 9.064 0 0 1-2.2-3.8 15.548 15.548 0 0 1 .3-10.1zm-11.4-15.8a3.942 3.942 0 0 1 2.7-1 3.62 3.62 0 0 1 2.7 1 3.867 3.867 0 0 1 0 5.6 3.942 3.942 0 0 1-2.7 1 3.62 3.62 0 0 1-2.7-1 3.489 3.489 0 0 1-1.2-2.8 4.262 4.262 0 0 1 1.2-2.8zm6 9.5v23.1h-6.5v-23.1zm-24.9-1.3h.1a9.781 9.781 0 0 1 2.5-7.1c1.7-1.8 4.2-2.6 7.5-2.6a12.62 12.62 0 0 1 3 .3 7.712 7.712 0 0 1 2 .7l-1.1 5.1a4.193 4.193 0 0 0-1.6-.4 9.699 9.699 0 0 0-1.7-.1 5.618 5.618 0 0 0-2 .3 3.045 3.045 0 0 0-1.3.9 4.58 4.58 0 0 0-.7 1.4 8.808 8.808 0 0 0-.2 1.7v1.1h8.1v5.4h-8.1v17.6h-6.5zm-12.1-8.2a3.942 3.942 0 0 1 2.7-1 3.62 3.62 0 0 1 2.7 1 3.867 3.867 0 0 1 0 5.6 3.942 3.942 0 0 1-2.7 1 3.62 3.62 0 0 1-2.7-1 3.867 3.867 0 0 1 0-5.6zm6 9.5v23.1h-6.5v-23.1zm-26.3-5.8h.1l6.5-1.1v6.8h7.8v5.4h-7.8v8.2a6.228 6.228 0 0 0 .7 3.3 3.192 3.192 0 0 0 2.9 1.2 17.954 17.954 0 0 0 2.2-.2 11.693 11.693 0 0 0 2-.5l.9 5.1a19.754 19.754 0 0 1-2.6.8 17.1 17.1 0 0 1-3.6.4 10.958 10.958 0 0 1-4.4-.7 7.463 7.463 0 0 1-2.8-2 8.144 8.144 0 0 1-1.5-3.1 17.282 17.282 0 0 1-.4-4.1zm-18.2 7c1.2-.4 2.5-.8 4.1-1.2a22.202 22.202 0 0 1 5.3-.5 6.153 6.153 0 0 1 1.3.1 7.72 7.72 0 0 1 1.5.2l1.5.3a4.952 4.952 0 0 1 1.3.4l-1.1 5.4c-.6-.1-1.3-.3-2.1-.5a10.145 10.145 0 0 0-2.5-.2 8.637 8.637 0 0 0-1.5.1 10.499 10.499 0 0 1-1.3.2v17.6h-6.5zm-25.7 5.1a11.428 11.428 0 0 1 2.5-3.8 10.144 10.144 0 0 1 3.5-2.3 11.503 11.503 0 0 1 4.1-.8 10.245 10.245 0 0 1 7.8 3c1.9 2 2.8 4.9 2.8 8.8v1.2c0 .5-.1.9-.1 1.2h-14.9a4.348 4.348 0 0 0 1.9 3.2 7.51 7.51 0 0 0 4.5 1.2 19.825 19.825 0 0 0 3.5-.3 11.986 11.986 0 0 0 2.8-.8l.9 5.3a4.567 4.567 0 0 1-1.4.5c-.6.2-1.2.3-2 .5-.7.1-1.5.2-2.3.3a20.089 20.089 0 0 1-2.5.1 14.534 14.534 0 0 1-5.4-.9 11.428 11.428 0 0 1-3.8-2.5 9.065 9.065 0 0 1-2.2-3.8 14.456 14.456 0 0 1-.7-4.7 12.706 12.706 0 0 1 1-5.4zm-21 .5a10.896 10.896 0 0 1 2.3-3.9 10.786 10.786 0 0 1 3.7-2.6 13.102 13.102 0 0 1 5-1 17.928 17.928 0 0 1 3.4.3 17.102 17.102 0 0 1 3 .9l-1.4 5.2c-.6-.2-1.3-.4-2-.6a9.005 9.005 0 0 0-2.5-.3 5.108 5.108 0 0 0-4.3 1.8 7.116 7.116 0 0 0-1.4 4.7 7.422 7.422 0 0 0 1.3 4.8c.9 1.1 2.4 1.7 4.7 1.7a22.847 22.847 0 0 0 2.5-.2 10.272 10.272 0 0 0 2.5-.7l.9 5.3a15.794 15.794 0 0 1-2.8.8 21.111 21.111 0 0 1-3.8.4 14.533 14.533 0 0 1-5.4-.9 9.171 9.171 0 0 1-3.7-2.6 9.5 9.5 0 0 1-2.1-3.8 15.071 15.071 0 0 1-.7-4.8 14.234 14.234 0 0 1 .8-4.5zm221.1 341.3H16.52V84.07h270.8z" class="cls-2"/><path d="M207.92 48.17a6.107 6.107 0 0 0-.7-1.4 4.485 4.485 0 0 0-1.3-1 3.576 3.576 0 0 0-1.9-.4 3.806 3.806 0 0 0-1.9.4 3.249 3.249 0 0 0-1.3 1 3.922 3.922 0 0 0-.8 1.4 9.36 9.36 0 0 0-.4 1.6h8.6a4.145 4.145 0 0 0-.3-1.6zm-106.6 0a6.11 6.11 0 0 0-.7-1.4 4.485 4.485 0 0 0-1.3-1 3.576 3.576 0 0 0-1.9-.4 3.806 3.806 0 0 0-1.9.4 3.25 3.25 0 0 0-1.3 1 2.223 2.223 0 0 0-.8 1.3 9.36 9.36 0 0 0-.4 1.6h8.6a7.97 7.97 0 0 0-.3-1.5zm128.9 10.4a8.085 8.085 0 0 0 1.6-.1 3.73 3.73 0 0 0 1.2-.2v-11.8a4.79 4.79 0 0 0-1.6-.7 6.929 6.929 0 0 0-2-.3c-3.1 0-4.6 2.1-4.6 6.3a8.352 8.352 0 0 0 1.4 4.9 4.365 4.365 0 0 0 4 1.9zm-98.4 157.7v-.1a3.597 3.597 0 0 0 1.8-1.2 3.427 3.427 0 0 0-.4-4.7v-.1l-15.5-13.7a38.524 38.524 0 0 0-4.9 12.1 40.238 40.238 0 0 0-.8 13.4zm44.2 35l-.1.1a.098.098 0 0 0 .1-.1zm-33.2-49.8a3.35 3.35 0 0 0 3.4-3.3h.1l1.2-20.6c-1.4.2-2.8.4-4.2.7a38.58 38.58 0 0 0-19.4 10.5l16.9 12a3.722 3.722 0 0 0 2 .7zm12.7 37a4.307 4.307 0 0 0-1.5-1.5 4.014 4.014 0 0 0-1.5-.3h-.1a3.338 3.338 0 0 0-2.9 1.8l-10 18a40.481 40.481 0 0 0 22.1 1.1c1.4-.3 2.7-.7 4-1.1l-10-18zm14.1-10.4a2.768 2.768 0 0 0-1.3.3 3.49 3.49 0 0 0-1.7 4.5l7.9 19.2a36.235 36.235 0 0 0 9.9-8.8 39.905 39.905 0 0 0 6.4-11.6l-20.4-3.5a2.202 2.202 0 0 0-.8-.1zm-31.2 2.9a3.407 3.407 0 0 0-3.3-2.7 1.269 1.269 0 0 0-.6.1l-20.3 3.4a38.769 38.769 0 0 0 6.6 11.7 40.339 40.339 0 0 0 9.7 8.7l7.8-19-.1-.1a3.072 3.072 0 0 0 .2-2.1zm32.3-18.9a3.51 3.51 0 0 0 2.4 4.1v.1l19.9 5.7a41.762 41.762 0 0 0-5.9-25.4l-15.3 13.7a4.185 4.185 0 0 0-1.1 1.8zm-23.9 10.3l5.7 2.7 5.6-2.7 1.4-6.1-3.9-4.9h-6.3l-3.9 4.9 1.4 6.1zm12.6-22.4a3.444 3.444 0 0 0 4.7.6h.1l16.8-11.9a44.48 44.48 0 0 0-10.8-7.5 43.325 43.325 0 0 0-12.7-3.8l1.2 20.6a3.722 3.722 0 0 0 .7 2z" class="cls-2"/><path d="M60.72 245.17l45.5 56.6a12.515 12.515 0 0 0 9.8 4.7l73-.2a12.515 12.515 0 0 0 9.8-4.7l45.5-56.6a12.305 12.305 0 0 0 2.4-10.6l-16.2-70.5a12.937 12.937 0 0 0-6.8-8.5l-65.8-31.3a12.824 12.824 0 0 0-6.1-1.2 13.058 13.058 0 0 0-4.8 1.2l-65.7 31.4a12.445 12.445 0 0 0-6.8 8.5l-16.2 70.6a12.54 12.54 0 0 0 1.7 9.6c.2.3.5.7.7 1zm26-16.1a.367.367 0 0 0 .3-.1 6.36 6.36 0 0 0 .7-.2 10.98 10.98 0 0 1 2.5-.2 6.149 6.149 0 0 0 1.3-.1h.1a41.208 41.208 0 0 0 7-1.1 3.606 3.606 0 0 0 1.5-1.5l.2-.2 1.6-.5a51.24 51.24 0 0 1 8-35.5l-1.2-1.1v-.2a3.679 3.679 0 0 0-.8-2.1 30.922 30.922 0 0 0-5.8-4.1 10.91 10.91 0 0 1-1.1-.6 11.974 11.974 0 0 1-2.1-1.3 2.652 2.652 0 0 1-.6-.5c-.1-.1-.2-.1-.2-.2a4.589 4.589 0 0 1-1.7-2.8 3.89 3.89 0 0 1 .7-3 3.749 3.749 0 0 1 3-1.4h.1a4.779 4.779 0 0 1 2.8 1c.1.1.2.1.2.2.2.2.5.4.6.5a14.06 14.06 0 0 1 1.7 1.8c.3.3.5.6.8.9l.1.1a42.402 42.402 0 0 0 5.2 4.7 2.5 2.5 0 0 0 2 .3h.3c.2.2 1 .7 1.4 1a50.496 50.496 0 0 1 25.7-14.7 55.249 55.249 0 0 1 7.1-1.1l.1-1.6a4.644 4.644 0 0 0 1.3-2 36.144 36.144 0 0 0-.4-7.1v-.1c-.1-.4-.1-.8-.2-1.2a10.074 10.074 0 0 1-.3-2.5v-1.1a4.018 4.018 0 1 1 8 0v1.1a19.006 19.006 0 0 1-.3 2.5 5.02 5.02 0 0 0-.2 1.2v.2a34.21 34.21 0 0 0-.4 6.9 2.353 2.353 0 0 0 1.1 1.7l.2.2c0 .3.1 1.2.1 1.7a50.399 50.399 0 0 1 17.8 5 49.517 49.517 0 0 1 14.8 10.8l1.5-1.1h.2a4.354 4.354 0 0 0 2.2-.3 42.406 42.406 0 0 0 5.2-4.7l.1-.1a6.467 6.467 0 0 0 .8-.9 15.269 15.269 0 0 1 1.8-1.8 2.654 2.654 0 0 0 .6-.5c.1-.1.2-.1.2-.2 1.9-1.5 4.6-1.4 5.9.4a4.125 4.125 0 0 1-1 5.8c-.1.1-.2.1-.3.2-.2.2-.4.3-.6.5a23.93 23.93 0 0 1-2.1 1.3c-.4.2-.7.4-1.1.6a36.328 36.328 0 0 0-5.8 4.1 2.655 2.655 0 0 0-.7 1.9v.3a3.806 3.806 0 0 1-.6.5 5.718 5.718 0 0 0-.8.7 50.582 50.582 0 0 1 7.4 17 49.545 49.545 0 0 1 .8 18.4l1.6.5a.349.349 0 0 1 .1.2 2.956 2.956 0 0 0 1.6 1.5 33.166 33.166 0 0 0 7 1.1h.1c.4 0 .9.1 1.3.1a22.862 22.862 0 0 1 2.5.2 1.855 1.855 0 0 1 .7.2c.2 0 .3.1.4.1a4.327 4.327 0 0 1 3.4 4.8 4.23 4.23 0 0 1-5.1 2.9c-.1 0-.2-.1-.4-.1s-.5-.1-.6-.1a7.888 7.888 0 0 1-2.3-.9c-.4-.2-.8-.3-1.2-.5h-.1a37.627 37.627 0 0 0-6.7-2h-.2a2.413 2.413 0 0 0-1.7.7c-.1.1-.2.1-.2.2-.3-.1-1.1-.2-1.7-.3a51.21 51.21 0 0 1-22.7 28.5c.1.1.1.3.2.5.2.4.3.9.4 1 0 .1-.1.2-.1.3a2.692 2.692 0 0 0-.2 2 33.047 33.047 0 0 0 3.5 6.2 8.652 8.652 0 0 0 .7 1c.5.7.9 1.3 1.4 2.1a2.507 2.507 0 0 0 .4.7c.1.1.1.2.2.3a4.118 4.118 0 0 1-1.7 5.6 3.733 3.733 0 0 1-3.1.1 4.483 4.483 0 0 1-2.4-2.3c0-.1-.1-.2-.1-.3-.1-.3-.3-.5-.3-.7a11.278 11.278 0 0 1-.8-2.4 5.639 5.639 0 0 0-.4-1.2v-.1a36.386 36.386 0 0 0-2.7-6.5 2.536 2.536 0 0 0-1.7-1.1c-.1 0-.2-.1-.3-.1-.1-.1-.2-.4-.4-.7a5.889 5.889 0 0 1-.4-.8 56.744 56.744 0 0 1-6.7 2 51.578 51.578 0 0 1-29.6-2.1l-.9 1.6a3.365 3.365 0 0 0-1.7.8 14.632 14.632 0 0 0-2.2 4.7c-.3.8-.5 1.6-.8 2.3a5.639 5.639 0 0 1-.4 1.2 13.493 13.493 0 0 1-.8 2.4 4.881 4.881 0 0 0-.3.7c-.1.1-.1.2-.2.3a4.454 4.454 0 0 1-3.9 2.6 3.167 3.167 0 0 1-1.6-.4 4.237 4.237 0 0 1-1.7-5.6c.1-.1.1-.2.2-.4s.2-.5.3-.7a15.335 15.335 0 0 1 1.4-2.1c.2-.3.5-.7.7-1a39.555 39.555 0 0 0 3.6-6.4 4.351 4.351 0 0 1-1-1.9l.7-1.7a51.718 51.718 0 0 1-22.7-28.3l-1.7.3c-.1 0-.1-.1-.2-.1a3.523 3.523 0 0 0-2.1-.7 35.347 35.347 0 0 0-6.7 2h-.1c-.4.2-.8.3-1.2.5-.8.3-1.5.6-2.4.9-.2.1-.5.1-.7.2a.367.367 0 0 0-.3.1 4.23 4.23 0 0 1-5.1-2.9 4.116 4.116 0 0 1 3.4-4.8zm88.6 102.9a6.815 6.815 0 0 0-3.2-2.2 13.952 13.952 0 0 0-4.9-.8 33.557 33.557 0 0 0-5.6.4c-1.8.3-3.2.6-4.4.9v22.6h6.6v-18.1a6.151 6.151 0 0 1 1.4-.1 7.566 7.566 0 0 1 1.5-.1 3.577 3.577 0 0 1 3.2 1.3c.6.9.8 2.4.8 4.5v12.4h6.6v-13.2a19.715 19.715 0 0 0-.5-4.4 8.495 8.495 0 0 0-1.5-3.2zm46.5 15.8a16.346 16.346 0 0 1-2.2.2q-2.25 0-3-1.2a6.228 6.228 0 0 1-.7-3.3v-8.4h8v-5.5h-8v-6.9l-6.6 1.1v19.7a17.282 17.282 0 0 0 .4 4.1 8.592 8.592 0 0 0 1.5 3.2 6.85 6.85 0 0 0 2.9 2 11.818 11.818 0 0 0 4.5.7 12.768 12.768 0 0 0 3.6-.4 17.308 17.308 0 0 0 2.7-.8l-.9-5.2c-.8.3-1.5.5-2.2.7zm-32.6-8.9c.006-.036.013-.065.02-.1h-.02z" class="cls-2"/><path d="M193.62 328.97a12.495 12.495 0 0 0-4.2.8 10.332 10.332 0 0 0-3.6 2.4 10.93 10.93 0 0 0-2.5 3.9 14.904 14.904 0 0 0-.9 5.4 15.071 15.071 0 0 0 .7 4.8 10.896 10.896 0 0 0 2.3 3.9 9.73 9.73 0 0 0 3.9 2.5 15.469 15.469 0 0 0 5.5.9 20.894 20.894 0 0 0 2.5-.1 15.723 15.723 0 0 0 2.3-.4c.7-.1 1.4-.3 2-.4.6-.2 1.1-.4 1.4-.5l-.9-5.4a13.03 13.03 0 0 1-2.9.8 20.985 20.985 0 0 1-3.6.3 7.51 7.51 0 0 1-4.5-1.2 4.364 4.364 0 0 1-1.9-3.3h15.1c0-.4.1-.8.1-1.2v-1.3c0-3.9-1-6.9-2.9-9a10.972 10.972 0 0 0-7.9-2.9zm-4.3 10l.04-.2h-.12c-.007.035-.014.064-.02.1v-.1h.02a7.19 7.19 0 0 1 .38-1.5 5.301 5.301 0 0 1 .8-1.5 6.422 6.422 0 0 1 1.3-1 3.807 3.807 0 0 1 1.9-.4 3.576 3.576 0 0 1 1.9.4c.142.085.283.171.42.259a3.283 3.283 0 0 1 .98.841c.021.028.042.066.063.095.104.143.208.3.312.467.175.282.35.588.525.938a4.145 4.145 0 0 1 .3 1.6zm74.4 9a7.376 7.376 0 0 1-2.6.4 13.934 13.934 0 0 1-3.5-.4 23.546 23.546 0 0 1-3.5-1.1l-1.1 5.4c.5.2 1.5.5 2.8.9a19.47 19.47 0 0 0 5.2.5c3.2 0 5.6-.6 7.3-1.8a5.813 5.813 0 0 0 2.6-5.3 7.105 7.105 0 0 0-.4-2.6 3.474 3.474 0 0 0-1-2 7.984 7.984 0 0 0-2.2-1.7 25.322 25.322 0 0 0-3.6-1.6c-.7-.3-1.3-.5-1.8-.7a10.907 10.907 0 0 1-1.1-.6 1.333 1.333 0 0 1-.5-.6 1.482 1.482 0 0 1-.1-.7c0-1.2 1-1.7 3.1-1.7a13.855 13.855 0 0 1 3 .3 14.948 14.948 0 0 1 2.5.7l1.2-5.2a15.268 15.268 0 0 0-3.1-.8 18.404 18.404 0 0 0-4.1-.4c-2.9 0-5.1.6-6.7 1.9a6.316 6.316 0 0 0-2.4 5.2 8.361 8.361 0 0 0 .5 2.9 5.958 5.958 0 0 0 1.4 2.1 8.01 8.01 0 0 0 2.1 1.5c.9.4 1.8.8 2.8 1.2a22.041 22.041 0 0 1 3 1.4c.7.4 1 .8 1 1.4a1.486 1.486 0 0 1-.8 1.4zm-29.7-9.1c.006-.036.013-.065.02-.1h-.02zm-193.4 4a15.208 15.208 0 0 1 2.2 2.2c.8.9 1.5 1.8 2.2 2.7s1.3 1.9 1.9 2.8 1.2 1.8 1.6 2.5h7.6a30.07 30.07 0 0 0-1.9-3.3 36.113 36.113 0 0 0-2.3-3.6c-.9-1.2-1.8-2.3-2.8-3.4a39.61 39.61 0 0 0-2.8-2.9c1.8-1.8 3.4-3.4 4.9-5.1s3.1-3.4 4.6-5.2h-7.9q-.6.75-1.5 1.8c-.6.7-1.2 1.4-1.8 2.2-.7.7-1.3 1.5-2 2.3s-1.4 1.5-2 2.2v-19.6l-6.6 1.1v33.5h6.6z" class="cls-2"/><path d="M238.52 328.97a12.495 12.495 0 0 0-4.2.8 10.332 10.332 0 0 0-3.6 2.4 10.93 10.93 0 0 0-2.5 3.9 14.904 14.904 0 0 0-.9 5.4 15.071 15.071 0 0 0 .7 4.8 10.896 10.896 0 0 0 2.3 3.9 9.73 9.73 0 0 0 3.9 2.5 15.469 15.469 0 0 0 5.5.9 20.894 20.894 0 0 0 2.5-.1 15.723 15.723 0 0 0 2.3-.4c.7-.1 1.4-.3 2-.4.6-.2 1.1-.4 1.4-.5l-.9-5.4a13.029 13.029 0 0 1-2.9.8 20.984 20.984 0 0 1-3.6.3 7.51 7.51 0 0 1-4.5-1.2 4.364 4.364 0 0 1-1.9-3.3h15.1c0-.4.1-.8.1-1.2v-1.3c0-3.9-1-6.9-2.9-9a10.972 10.972 0 0 0-7.9-2.9zm-4.4 10l.04-.2h-.12c-.007.035-.014.064-.02.1v-.1h.02a7.194 7.194 0 0 1 .38-1.5 5.3 5.3 0 0 1 .8-1.5 6.42 6.42 0 0 1 1.3-1 3.807 3.807 0 0 1 1.9-.4 3.576 3.576 0 0 1 1.9.4c.142.085.283.171.42.259a3.283 3.283 0 0 1 .98.841 3.765 3.765 0 0 1 .9 1.5 4.145 4.145 0 0 1 .3 1.6zm-111.6-10a12.494 12.494 0 0 0-4.2.8 10.332 10.332 0 0 0-3.6 2.4 10.93 10.93 0 0 0-2.5 3.9 14.904 14.904 0 0 0-.9 5.4 15.071 15.071 0 0 0 .7 4.8 10.896 10.896 0 0 0 2.3 3.9 9.73 9.73 0 0 0 3.9 2.5 15.469 15.469 0 0 0 5.5.9 20.894 20.894 0 0 0 2.5-.1 15.723 15.723 0 0 0 2.3-.4c.7-.1 1.4-.3 2-.4.6-.2 1.1-.4 1.4-.5l-.9-5.4a13.029 13.029 0 0 1-2.9.8 20.984 20.984 0 0 1-3.6.3 7.51 7.51 0 0 1-4.5-1.2 4.364 4.364 0 0 1-1.9-3.3h15.1c0-.4.1-.8.1-1.2v-1.3c0-3.9-1-6.9-2.9-9a10.81 10.81 0 0 0-7.9-2.9zm-4.3 10l.04-.2h-.12c-.007.035-.014.064-.02.1v-.1h.02a7.191 7.191 0 0 1 .38-1.5 5.3 5.3 0 0 1 .8-1.5 6.422 6.422 0 0 1 1.3-1 3.807 3.807 0 0 1 1.9-.4 3.576 3.576 0 0 1 1.9.4c.142.085.282.171.42.259a3.283 3.283 0 0 1 .98.841 5.427 5.427 0 0 1 .9 1.5 4.145 4.145 0 0 1 .3 1.6zm-45.5 8.7h-.1c-.4.1-.9.1-1.4.2h-1.5a3.623 3.623 0 0 1-3.2-1.4c-.6-.9-.8-2.5-.8-4.6v-12.2h-6.6v13a19.715 19.715 0 0 0 .5 4.4 10.192 10.192 0 0 0 1.6 3.5 7.036 7.036 0 0 0 3.1 2.2 14.142 14.142 0 0 0 5 .8 33.556 33.556 0 0 0 5.6-.4c1.8-.3 3.2-.6 4.4-.9v-22.6h-6.6z" class="cls-2"/><path d="M118.12 338.87c.006-.036.013-.065.02-.1h-.02zm-13.4-6.5a7.542 7.542 0 0 0-3.2-2.4 10.17 10.17 0 0 0-4.4-.9 10.902 10.902 0 0 0-2.6.3 8.956 8.956 0 0 0-2.3.8v-11.7l-6.6 1.1v32.7a11.7 11.7 0 0 0 2 .5c.8.1 1.6.3 2.4.4.9.1 1.7.2 2.6.3a21.742 21.742 0 0 0 2.5.1 16.694 16.694 0 0 0 5.2-.8 10.084 10.084 0 0 0 3.8-2.5 12.8 12.8 0 0 0 2.4-3.9 13.665 13.665 0 0 0 .8-5.1 15.912 15.912 0 0 0-.7-5 11.82 11.82 0 0 0-1.9-3.9zm-5.5 13.7a4.903 4.903 0 0 1-4.1 1.9h-1.7c-.5-.1-.9-.1-1.2-.2v-12.1a4.79 4.79 0 0 1 1.6-.7 6.447 6.447 0 0 1 2-.3c.016 0 .03.004.046.004.017 0 .037-.004.054-.004 3.1 0 4.7 2.1 4.7 6.4a9.242 9.242 0 0 1-1.4 5zm51.6-16.7c-.5-.1-1-.1-1.5-.2a6.15 6.15 0 0 0-1.3-.1 22.305 22.305 0 0 0-5.4.6 30.787 30.787 0 0 0-4.2 1.2v22.2h6.6v-18a3.917 3.917 0 0 1 1.3-.2 8.633 8.633 0 0 1 1.5-.1 10.903 10.903 0 0 1 2.6.3c.8.1 1.5.3 2.1.4l1.1-5.5c-.4-.1-.8-.3-1.3-.4a7.72 7.72 0 0 0-1.5-.2z" class="cls-2"/><path d="M92.32 335.67a5.93 5.93 0 0 1 1.6-.7 7.481 7.481 0 0 1 1.946-.296c-.016 0-.03-.004-.046-.004a6.447 6.447 0 0 0-2 .3 4.79 4.79 0 0 0-1.6.7v12.1c.3.1.7.1 1.2.2h.1c-.5-.1-.9-.1-1.2-.2zm104.975.762a7.754 7.754 0 0 1 .325.738 4.529 4.529 0 0 1 .3 1.6h-8.56l-.04.2h8.8a4.145 4.145 0 0 0-.3-1.6c-.175-.35-.35-.656-.525-.938zm-71.475-.562a3.283 3.283 0 0 0-.98-.841 3.288 3.288 0 0 1 .88.741 3.925 3.925 0 0 1 .8 1.4 4.529 4.529 0 0 1 .3 1.6h-8.56l-.04.2h8.8a4.145 4.145 0 0 0-.3-1.6 5.427 5.427 0 0 0-.9-1.5zm115.9 0a3.283 3.283 0 0 0-.98-.841 3.286 3.286 0 0 1 .88.741 3.923 3.923 0 0 1 .8 1.4 4.529 4.529 0 0 1 .3 1.6h-8.56l-.04.2h8.8a4.145 4.145 0 0 0-.3-1.6 3.765 3.765 0 0 0-.9-1.5zm-44.9-.1a2.266 2.266 0 0 1 .163.195c-.02-.03-.042-.067-.063-.095a3.283 3.283 0 0 0-.98-.841 3.286 3.286 0 0 1 .88.741z" class="cls-2"/></svg>