<?xml version="1.0" encoding="UTF-8" standalone="no"?>
<svg
   role="img"
   viewBox="-0.4 -0.4 47.999999 48.000001"
   version="1.1"
   id="svg1"
   sodipodi:docname="podman-favicon-black.svg"
   width="48"
   height="48"
   inkscape:version="1.4 (e7c3feb1, 2024-10-09)"
   inkscape:export-filename="podman-favicon-black.png"
   inkscape:export-xdpi="96"
   inkscape:export-ydpi="96"
   xmlns:inkscape="http://www.inkscape.org/namespaces/inkscape"
   xmlns:sodipodi="http://sodipodi.sourceforge.net/DTD/sodipodi-0.dtd"
   xmlns="http://www.w3.org/2000/svg"
   xmlns:svg="http://www.w3.org/2000/svg">
  <defs
     id="defs1" />
  <sodipodi:namedview
     id="namedview1"
     pagecolor="#ffffff"
     bordercolor="#000000"
     borderopacity="0.25"
     inkscape:showpageshadow="2"
     inkscape:pageopacity="0.0"
     inkscape:pagecheckerboard="false"
     inkscape:deskcolor="#d1d1d1"
     inkscape:zoom="3.2137349"
     inkscape:cx="19.447777"
     inkscape:cy="19.292195"
     inkscape:window-width="1400"
     inkscape:window-height="707"
     inkscape:window-x="63"
     inkscape:window-y="38"
     inkscape:window-maximized="0"
     inkscape:current-layer="g2973" />
  <g
     id="layer1"
     transform="matrix(1.7527924,0,0,1.7527924,-416.48066,-349.61325)">
    <g
       id="g2973"
       fill="#000000"
       transform="matrix(4.31777,0,0,4.31777,2237.124,-106.544)">
      <path
         id="path1"
         style="display:inline;fill:#000000;fill-rule:evenodd;stroke-width:0;stroke-linecap:round"
         transform="matrix(0.13213261,0,0,0.13213261,-463.08956,70.871012)"
         d="m 23.139088,23.615624 c -0.363802,0.002 -0.67093,0.10634 -0.919922,0.191407 -0.248993,0.08491 -0.450322,0.149785 -0.605469,0.15039 -0.272454,0.0018 -0.534379,0.146836 -0.679688,0.322266 -0.144551,0.17543 -0.206788,0.36133 -0.259765,0.533203 -0.104441,0.343851 -0.161623,0.691849 -0.207031,0.814453 h 0.01367 c -0.107467,0.275254 -0.0051,0.492318 0.07813,0.636719 0.08476,0.1444 0.191288,0.265884 0.308594,0.382812 0.234386,0.233856 0.528426,0.46015 0.828125,0.677735 0.442964,0.321722 0.694097,0.473873 0.898438,0.603515 l -0.05469,1.185547 c -0.116095,0.09369 -0.362047,0.307255 -0.771484,0.447266 -0.248993,0.08476 -0.492096,0.110374 -0.707031,0.05664 -0.180123,-0.04541 -0.361895,-0.20693 -0.548829,-0.443359 0.01514,-0.09831 0.0085,-0.137353 0.03125,-0.294922 0.03784,-0.283806 0.09448,-0.628706 0.117188,-0.726562 l -0.962891,-0.236328 c -0.05298,0.220914 -0.09497,0.536358 -0.132812,0.830078 -0.03784,0.293795 -0.07617,0.548828 -0.07617,0.548828 l -0.01367,0.175781 0.0918,0.146484 c 0.336026,0.521363 0.793762,0.843873 1.253906,0.958985 0.460144,0.115111 0.900205,0.04225 1.269531,-0.08398 0.538323,-0.184057 0.87525,-0.438012 1.064454,-0.591796 0.199042,0.152195 0.546962,0.396291 1.082031,0.574218 0.370839,0.123361 0.808191,0.193115 1.267578,0.07422 0.459387,-0.118964 0.898983,-0.43872 1.230469,-0.962891 l 0.105468,-0.146484 -0.0293,-0.175781 c 0,0 -0.03272,-0.255487 -0.07813,-0.548828 -0.04541,-0.293387 -0.07984,-0.604213 -0.132813,-0.824219 l -0.957031,0.25 c 0.0227,0.09808 0.07935,0.4372 0.117187,0.720703 0.02271,0.154163 0.02979,0.185044 0.04492,0.283203 -0.184663,0.238094 -0.366753,0.395241 -0.546875,0.441406 -0.214935,0.05616 -0.459992,0.04028 -0.708984,-0.04297 -0.418973,-0.139557 -0.676932,-0.356629 -0.785156,-0.44336 l -0.06055,-1.160156 c 0.187387,-0.118971 0.464441,-0.288945 0.923828,-0.628906 0.297126,-0.220158 0.598492,-0.444167 0.830078,-0.679688 0.116549,-0.11776 0.210915,-0.240289 0.294922,-0.384765 0.08408,-0.144401 0.184079,-0.361541 0.07813,-0.636719 -0.04541,-0.120947 -0.10076,-0.465605 -0.208985,-0.808594 -0.05298,-0.171494 -0.119559,-0.360786 -0.265625,-0.535156 -0.146822,-0.174446 -0.406477,-0.327307 -0.679687,-0.326172 -0.152877,0.0011 -0.35572,-0.04979 -0.605469,-0.132812 -0.249749,-0.08333 -0.552427,-0.192996 -0.917969,-0.191407 h -0.0059 z M 22.986756,1.8109383 c -11.400441,0 -20.6660571,9.2467637 -20.6660571,20.6406197 0,4.890239 0.060243,9.595815 -0.7245751,13.109376 -1.4185749,3.094807 -1.88091345,5.239637 -1.99610076,8.677737 1.78684126,0.279567 4.09384176,0.502169 6.74413376,0.675783 5.3005082,0.347302 11.9876542,0.495131 18.5488652,0.472654 6.561212,-0.0227 12.993083,-0.216117 17.810517,-0.560543 2.408792,-0.172251 3.436774,-0.386218 4.871091,-0.636724 0.258831,-3.008856 -1.505079,-5.50976 -2.314418,-7.80273 C 44.391994,33.025299 44.277185,28.230851 44.064898,22.627344 43.625945,11.056642 34.387423,1.8109383 22.986756,1.8109383 Z M 12.785564,10.474999 c 1.133407,0.0152 2.248121,0.367041 3.179685,1.021482 1.095112,0.769136 -0.05918,2.409776 -1.152327,1.640624 -0.67735,-0.475734 -1.543677,-0.709416 -2.369135,-0.650384 -0.848693,0.06055 -1.693072,0.439717 -2.300795,1.035157 -0.9567661,0.936029 -2.3614156,-0.501459 -1.4042711,-1.437503 0.9564634,-0.936945 2.2249621,-1.49801 3.5605141,-1.593747 0.162185,-0.01164 0.324447,-0.0178 0.486329,-0.01563 z m 20.976578,0 c 0.161883,-0.0022 0.324069,0.004 0.48633,0.01563 1.335401,0.09574 2.606094,0.656794 3.562482,1.593747 0.956841,0.935757 -0.04458,2.373275 -0.999981,1.437503 -0.607722,-0.595463 -1.86222,-0.974612 -2.710912,-1.035157 -0.825535,-0.05903 -1.685958,0.174574 -2.363308,0.650384 -1.093144,0.769152 -2.249407,-0.871488 -1.154295,-1.640624 0.93164,-0.654396 2.046202,-1.00627 3.179684,-1.021482 z m 0.607421,5.013676 c 2.682759,0.06811 4.775127,2.400482 4.707013,5.130853 -0.06811,2.730332 -2.278166,4.943125 -4.960925,4.875004 -2.682759,-0.06811 -4.786858,-2.38683 -4.718744,-5.117185 0.06811,-2.730341 2.289896,-4.956778 4.972656,-4.888672 z m -22.095681,0.002 c 2.682759,-0.06811 4.904542,2.144671 4.972655,4.874997 0.06811,2.730355 -2.039844,5.049079 -4.722679,5.117185 -2.6827597,0.06811 -4.8869847,-2.144657 -4.9550981,-4.874997 -0.068113,-2.730371 2.0222865,-5.049064 4.7051221,-5.117185 z m 0.320284,1.837889 a 2.0422379,1.9402531 88.533546 0 0 -1.886741,2.091792 2.0422379,1.9402531 88.533546 0 0 1.990273,1.990236 2.0422379,1.9402531 88.533546 0 0 1.888633,-2.091793 2.0422379,1.9402531 88.533546 0 0 -1.992165,-1.990235 z m 21.548806,0 a 1.9402531,2.0422379 1.466454 0 0 -1.990198,1.992188 1.9402531,2.0422379 1.466454 0 0 1.886741,2.091792 1.9402531,2.0422379 1.466454 0 0 1.992166,-1.992188 1.9402531,2.0422379 1.466454 0 0 -1.888709,-2.091792 z m -11.134723,3.556639 h 0.002 0.0019 c 4.042,-0.130854 7.53773,2.690532 7.677741,6.402348 0.0227,0.658884 -0.09006,1.284354 -0.265642,1.888671 2.859703,0.370688 5.152702,1.509718 6.953166,2.835931 l -0.589862,0.796881 c -1.743854,-1.284573 -3.958447,-2.327086 -6.734371,-2.640627 -0.0946,0.192307 -0.204794,0.378377 -0.318316,0.560543 2.981626,0.933312 4.942459,2.882634 6.478491,4.72657 l -0.755831,0.634763 c -1.552759,-1.864165 -3.426482,-3.701531 -6.359445,-4.507812 -0.15439,0.176944 -0.293417,0.359525 -0.466728,0.521484 2.801731,1.49518 4.174821,4.034538 5.156184,6.369139 l -0.914006,0.382813 c -1.005657,-2.392483 -2.295043,-4.783566 -5.085951,-6.089845 -1.198493,0.831847 -2.670424,1.359143 -4.27737,1.412112 -1.767921,0.05752 -3.409151,-0.473358 -4.730475,-1.373045 l 0.02346,0.03515 c -2.77335,1.466459 -3.936045,3.955065 -4.804718,6.431637 L 13.066797,38.9457 c 0.853612,-2.433585 2.099633,-5.109147 4.912111,-6.76562 -0.159688,-0.144778 -0.309311,-0.295635 -0.453106,-0.453128 -2.861897,0.985942 -4.606281,2.932176 -6.039084,4.880862 l -0.798819,-0.591799 c 1.423797,-1.936532 3.273378,-4.002949 6.203162,-5.11328 -0.12109,-0.183755 -0.257998,-0.355749 -0.359411,-0.55078 -2.761847,0.479367 -4.914987,1.657721 -6.5820244,3.048823 L 9.3109491,32.646876 C 11.041105,31.2031 13.289074,29.92113 16.152788,29.385153 c -0.164986,-0.51418 -0.28199,-1.047281 -0.304694,-1.609375 -0.140011,-3.711219 3.119139,-6.755963 7.160155,-6.890623 z m -14.8008125,4.89453 c 1.1713989,-0.04011 2.1566215,0.920166 2.1992295,2.14844 0.04541,1.228099 -0.8717753,2.258632 -2.0429472,2.300779 -1.1713989,0.04011 -2.1546535,-0.922104 -2.1972622,-2.150393 -0.045409,-1.228084 0.869808,-2.256672 2.0409799,-2.298826 z m 30.8222925,0 c 1.172837,-0.04238 2.160406,0.918501 2.20309,2.14844 0.04541,1.229666 -0.874197,2.260834 -2.046883,2.300779 -1.171399,0.04011 -2.154654,-0.922104 -2.197262,-2.150393 -0.04541,-1.228084 0.869883,-2.256672 2.041055,-2.298826 z M 23.437893,36.949607 c 4.878054,0.002 9.241474,2.664202 10.953163,6.679691 -6.723624,0.264961 -15.12927,0.283374 -21.894519,-0.01368 1.716987,-4.003092 6.074654,-6.654663 10.941356,-6.660157 z" />
    </g>
  </g>
</svg>
