<svg xmlns="http://www.w3.org/2000/svg" role="img" viewBox="92.13 68.63 327.99 331.24"><path fill="#fff" fill-opacity="1" d="M226 393.38c-34.85-4.45-64.96-19-88.5-42.79-12.63-12.75-18.34-20.86-26.11-37.02-5.67-11.78-10.63-28.75-12-41.01-.88-7.85-.85-28.38.05-36.06 1.25-10.69 6.25-27.62 11.57-39.15 15.84-34.39 48.33-59.84 85.33-66.83 10-1.89 34.17-1.93 44.75-.07 17.08 2.99 35.85 10.63 48.16 19.6l5.25 3.81 18.74-18.65 18.73-18.66-15.48-15.6C303.53 87.91 301 84.88 301.02 82.43c.03-7.53-.77-7.43 57.24-7.43h51.39l2.18 2.31 2.17 2.32v53.18c0 51.86-.05 53.24-2 55.19-1.28 1.28-3.33 2-5.69 2-3.41 0-4.81-1.12-19.24-15.47l-15.56-15.47-54.5 54.22c-48.02 47.77-55.55 54.86-63.22 59.56-10.6 6.51-21.85 11.46-32.38 14.27-9.21 2.45-34.86 3.61-47.66 2.15-4.26-.48-7.75-.66-7.75-.4 0 1.32 6.81 12.32 10.71 17.29 7.11 9.07 18.53 17.8 29.79 22.77 14.92 6.58 37.42 7.74 53.5 2.75 15.76-4.9 21.89-9.39 48.12-35.32 21.24-20.99 23.96-23.35 26.93-23.35 2.93 0 5.11 1.79 19.09 15.67 10.17 10.1 15.99 16.63 16.37 18.39.34 1.52-.03 4.23-.83 6.09-.83 1.96-11.74 13.53-26.3 27.9-18.74 18.49-27.18 26.09-34.21 30.76-14.85 9.88-29.51 16.21-45.68 19.71-6.99 1.51-30.9 2.7-37.49 1.86zM201.3 233.4c14.41-3.19 20.48-7.05 37.61-23.91 17.57-17.29 17.16-15.3 4.24-20.19-9.78-3.7-27.22-4.38-36.91-1.44-10.22 3.1-15.87 6.62-24.37 15.16-6.09 6.12-8.56 9.57-12.23 17.08-2.53 5.17-4.88 10.64-5.23 12.15l-.63 2.75h15.16c10.22 0 17.51-.52 22.36-1.6z"/></svg>