<svg xmlns="http://www.w3.org/2000/svg" role="img" viewBox="89.53 65.78 333.19 336.44"><path fill="#FDFDFD" d="M0 0 C13.32581427 -0.115857 26.6515087 -0.2046972 39.97772408 -0.25906086 C46.16566891 -0.28515294 52.35326913 -0.32054507 58.54101562 -0.37719727 C64.51270815 -0.43152913 70.48406922 -0.46142346 76.45598984 -0.47438622 C78.73419284 -0.48362384 81.01237773 -0.50166284 83.29043961 -0.52865028 C86.48194814 -0.56495491 89.67208768 -0.56994457 92.86376953 -0.56762695 C93.80532394 -0.58560333 94.74687836 -0.60357971 95.71696472 -0.62210083 C99.84141781 -0.58969884 103.11023621 -0.41725873 106.5710144 1.97297668 C109.81787827 6.01924712 109.95348561 8.93851786 110 14 C110.025532 14.76176167 110.051064 15.52352333 110.07736969 16.30836868 C110.14337793 18.75037421 110.15790098 21.18847721 110.16113281 23.63134766 C110.16609772 24.54800705 110.17106262 25.46466644 110.17617798 26.40910339 C110.1906635 29.41076431 110.19757586 32.41237253 110.203125 35.4140625 C110.20595238 36.44516521 110.20877975 37.47626793 110.21169281 38.53861618 C110.22662399 43.98668418 110.23589393 49.43472608 110.24023438 54.8828125 C110.24573466 60.4993151 110.26981281 66.1155772 110.29820633 71.73200417 C110.31684341 76.06434836 110.32203871 80.39663445 110.32357025 84.72901535 C110.32659085 86.79981182 110.3345993 88.87060741 110.34775543 90.94136429 C110.36485106 93.83691015 110.36292793 96.73186525 110.35644531 99.62744141 C110.3656601 100.47645523 110.37487488 101.32546906 110.3843689 102.20021057 C110.34703244 107.53645472 109.57267236 111.28851841 107 116 C104.10322372 117.95217532 101.84547482 118.8350293 98.4375 119.5 C94.82014419 118.7579783 93.32299576 116.77468938 91 114 C90.67 113.01 90.34 112.02 90 111 C89.34 110.835 88.68 110.67 88 110.5 C87.34 110.335 86.68 110.17 86 110 C85.67 109.01 85.34 108.02 85 107 C84.01 106.67 83.02 106.34 82 106 C82 105.01 82 104.02 82 103 C81.360625 102.896875 80.72125 102.79375 80.0625 102.6875 C79.0415625 102.3471875 79.0415625 102.3471875 78 102 C77.67 101.01 77.34 100.02 77 99 C76.01 99 75.02 99 74 99 C74 97.68 74 96.36 74 95 C72.68 94.67 71.36 94.34 70 94 C70 93.01 70 92.02 70 91 C66.71000718 90.58168596 66.71000718 90.58168596 63 91 C60.01912425 93.45094228 58.13648002 95.79527998 56 99 C55.67 98.67 55.34 98.34 55 98 C54.175 99.010625 53.35 100.02125 52.5 101.0625 C49.53780144 104.53711679 46.27866336 107.43321035 42.8046875 110.3828125 C40.85491383 112.04072435 40.85491383 112.04072435 39 114.5 C36.58864393 117.51419509 33.80869336 119.81045115 30.87890625 122.30859375 C28.62632775 124.33638271 26.8835911 126.63032087 25 129 C23.23289221 130.57476953 21.42705869 132.08294386 19.5859375 133.5703125 C17.75106596 135.10625904 17.75106596 135.10625904 16 138 C14.2337779 139.5663494 12.40327661 141.0273218 10.55859375 142.5 C8.73426023 144.02344759 8.73426023 144.02344759 8 147 C7.01 147.33 6.02 147.66 5 148 C3.63360658 149.6396721 2.3050581 151.31110128 1 153 C-1.3750725 155.49687109 -3.70537719 157.77336707 -6.4375 159.875 C-9.68521971 162.56823098 -12.53794687 165.56497055 -15 169 C-15 169.66 -15 170.32 -15 171 C-15.721875 171.20625 -16.44375 171.4125 -17.1875 171.625 C-19.94750232 172.97433447 -20.84521014 173.80020565 -22.6875 176.125 C-23.450625 177.07375 -24.21375 178.0225 -25 179 C-25.66 179 -26.32 179 -27 179 C-27 179.66 -27 180.32 -27 181 C-28.36328125 182.41015625 -28.36328125 182.41015625 -30.3125 184.0625 C-31.39337891 184.97902344 -31.39337891 184.97902344 -32.49609375 185.9140625 C-33.32238281 186.60242188 -34.14867187 187.29078125 -35 188 C-35.96035156 188.81210937 -36.92070312 189.62421875 -37.91015625 190.4609375 C-45.73846609 197 -45.73846609 197 -48 197 C-48 197.66 -48 198.32 -48 199 C-48.99 199 -49.98 199 -51 199 C-51 199.66 -51 200.32 -51 201 C-53.49747023 202.27601331 -55.99777936 203.54586171 -58.5 204.8125 C-59.19609375 205.16892578 -59.8921875 205.52535156 -60.609375 205.89257812 C-67.17512849 209.20585188 -73.62916121 212.07864515 -81 213 C-81 213.66 -81 214.32 -81 215 C-85.29 215.33 -89.58 215.66 -94 216 C-94 216.66 -94 217.32 -94 218 C-100.75 218.125 -100.75 218.125 -103 217 C-103 217.66 -103 218.32 -103 219 C-106.4374823 219.02901394 -109.87493312 219.04680335 -113.3125 219.0625 C-114.28896484 219.07087891 -115.26542969 219.07925781 -116.27148438 219.08789062 C-117.67817383 219.09272461 -117.67817383 219.09272461 -119.11328125 219.09765625 C-120.40939331 219.10551147 -120.40939331 219.10551147 -121.73168945 219.11352539 C-124 219 -124 219 -127 218 C-128.89212737 217.77820215 -130.78884472 217.59385985 -132.6875 217.4375 C-133.68136719 217.35371094 -134.67523438 217.26992188 -135.69921875 217.18359375 C-136.45847656 217.12300781 -137.21773438 217.06242188 -138 217 C-137.04600922 218.79398267 -136.08665974 220.58511655 -135.125 222.375 C-134.59132813 223.37273437 -134.05765625 224.37046875 -133.5078125 225.3984375 C-132.1179862 228.05348395 -132.1179862 228.05348395 -130 230 C-129.29875 231.051875 -128.5975 232.10375 -127.875 233.1875 C-124.58058427 237.87835463 -120.17137477 242.41431261 -115 245 C-115 245.66 -115 246.32 -115 247 C-114.30519531 247.26039063 -113.61039062 247.52078125 -112.89453125 247.7890625 C-109.69999267 249.12550914 -106.73655742 250.73402667 -103.6875 252.375 C-90.0113783 259.3326137 -77.13145285 260.59804088 -61.92260742 259.94995117 C-60 260 -60 260 -57 261 C-57 260.34 -57 259.68 -57 259 C-55.741875 258.9175 -54.48375 258.835 -53.1875 258.75 C-44.10835267 257.71278912 -36.27272989 253.83692745 -28.41015625 249.3671875 C-26.30194271 248.17128031 -24.17826257 247.06133443 -22 246 C-22 245.34 -22 244.68 -22 244 C-20.57421875 242.59765625 -20.57421875 242.59765625 -18.6875 241.0625 C-16.82257269 239.53380697 -15.05575218 238.05873648 -13.39453125 236.30859375 C-12 235 -12 235 -10 235 C-9.67 234.01 -9.34 233.02 -9 232 C-6.5625 229.3125 -6.5625 229.3125 -4 227 C-3.34 227 -2.68 227 -2 227 C-1.67 226.01 -1.34 225.02 -1 224 C-0.360625 223.690625 0.27875 223.38125 0.9375 223.0625 C3.50543325 221.7396253 3.82786731 220.57869191 5 218 C6.5 216.25 6.5 216.25 8 215 C8.66 215 9.32 215 10 215 C10 214.01 10 213.02 10 212 C11.65848177 210.98648336 13.32665961 209.98879205 15 209 C16.36639342 207.3603279 17.70513179 205.69672386 19 204 C19.66 203.67 20.32 203.34 21 203 C21.33 202.01 21.66 201.02 22 200 C25.79637975 199.10673418 29.12958807 198.38073409 33 199 C35.63033984 201.07044488 37.78377768 203.50085568 40 206 C40.825 206.825 41.65 207.65 42.5 208.5 C47.33333333 213.33333333 52.16666667 218.16666667 57 223 C57.67675781 223.59554687 58.35351562 224.19109375 59.05078125 224.8046875 C65.42410559 230.62331753 65.42410559 230.62331753 66.25 235.0625 C65.89573378 240.64219292 64.15157884 243.91966549 60.23046875 247.7109375 C58.88528228 248.88366416 57.52519926 250.03947603 56.15234375 251.1796875 C51.53123018 255.08792511 47.21680864 259.39468885 43.4375 264.125 C41.03622092 266.95727789 38.52917063 269.14789098 35.68359375 271.50390625 C33.76415659 273.13371097 33.76415659 273.13371097 31.5625 275.9375 C28.00938772 280.18390248 23.9027348 284.64989079 18.81640625 287.015625 C16.64551199 287.92445743 16.64551199 287.92445743 16 291 C13.69645581 292.77660845 11.40504072 294.43625692 9 296.0625 C4.33192557 298.90036838 4.33192557 298.90036838 1 303 C-2.0625 303.625 -2.0625 303.625 -5 304 C-5 304.66 -5 305.32 -5 306 C-6.65 306.33 -8.3 306.66 -10 307 C-10 307.66 -10 308.32 -10 309 C-12.90600261 310.25664978 -14.79604584 311 -18 311 C-18.33 311.66 -18.66 312.32 -19 313 C-19.66 312.67 -20.32 312.34 -21 312 C-21.33 312.66 -21.66 313.32 -22 314 C-24.32809543 314.68473395 -26.66237777 315.34853151 -29 316 C-30.35351562 316.74056641 -30.35351562 316.74056641 -31.734375 317.49609375 C-35.49118595 319.22620405 -38.99788834 319.73789413 -43.0625 320.125 C-47.41988799 320.5862277 -51.70949102 321.08854472 -56 322 C-62.42641078 322.95336863 -68.71787269 323.32848502 -75.1875 322.5625 C-77.62929564 322.27546773 -80.06939701 321.99299564 -82.515625 321.74609375 C-83.31484375 321.66488281 -84.1140625 321.58367187 -84.9375 321.5 C-85.66839844 321.4278125 -86.39929688 321.355625 -87.15234375 321.28125 C-89 321 -89 321 -91 320 C-92.47711351 319.86992151 -93.95698965 319.77040858 -95.4375 319.6875 C-100.48421767 319.23533743 -104.73750265 317.82421771 -109.4375 315.98828125 C-112.58467787 314.77450686 -115.74320392 313.86847895 -119 313 C-119 312.34 -119 311.68 -119 311 C-120.175625 311.0309375 -120.175625 311.0309375 -121.375 311.0625 C-124 311 -124 311 -126 310 C-126 309.34 -126 308.68 -126 308 C-128.64 307.34 -131.28 306.68 -134 306 C-134 305.34 -134 304.68 -134 304 C-136.31 303.34 -138.62 302.68 -141 302 C-141 301.34 -141 300.68 -141 300 C-142.134375 299.731875 -143.26875 299.46375 -144.4375 299.1875 C-145.613125 298.795625 -146.78875 298.40375 -148 298 C-148.495 296.515 -148.495 296.515 -149 295 C-149.804375 294.87625 -150.60875 294.7525 -151.4375 294.625 C-152.7059375 294.315625 -152.7059375 294.315625 -154 294 C-154.33 293.34 -154.66 292.68 -155 292 C-155.99 291.34 -156.98 290.68 -158 290 C-159.66666667 288.33333333 -161.33333333 286.66666667 -163 285 C-165.31965219 283.07638599 -167.62927289 281.25078599 -170.125 279.5625 C-172.42717374 277.64402188 -173.5170451 275.59517108 -175 273 C-177.77358473 269.35967005 -180.68396062 266.19639944 -184.0625 263.125 C-186.14440667 260.84161849 -186.91784282 258.85998684 -188 256 C-188.66 255.67 -189.32 255.34 -190 255 C-191 253.1875 -191 253.1875 -192 251 C-192.92868486 249.07629564 -193.88047103 247.19905621 -194.98046875 245.3671875 C-197.08030167 241.86493909 -198.3213176 239.07209442 -199 235 C-199.66 234.01 -200.32 233.02 -201 232 C-201.55483815 230.07748579 -202.04880793 228.13694401 -202.5 226.1875 C-203.27186305 222.92765197 -204.05603828 219.8436827 -205.1875 216.6875 C-206.18732055 213.38040127 -206.13737669 210.43441727 -206 207 C-206.66 207 -207.32 207 -208 207 C-208.95640358 200.90292718 -209.05322111 195.02485061 -208.9375 188.85546875 C-208.86100067 185.92467731 -208.86100067 185.92467731 -210 183 C-209.68584095 181.66201906 -209.34988718 180.32908534 -209 179 C-208.95644427 177.27138198 -208.9600876 175.54120598 -209 173.8125 C-209.06564299 165.56336411 -208.40873497 156.93465638 -206 149 C-205.34 148.67 -204.68 148.34 -204 148 C-204.33 147.01 -204.66 146.02 -205 145 C-204.35191436 143.65753688 -203.68177416 142.32567199 -203 141 C-202.61709538 139.00889599 -202.27395385 137.00899487 -202 135 C-201.34 135 -200.68 135 -200 135 C-199.9175 134.360625 -199.835 133.72125 -199.75 133.0625 C-198.36160918 127.3932375 -195.76723042 122.20191476 -192.8125 117.1875 C-191.33260212 114.58492097 -190.63010116 112.83545524 -190 110 C-189.01 109.01 -189.01 109.01 -188 108 C-187.505 107.154375 -187.01 106.30875 -186.5 105.4375 C-185 103 -185 103 -183 102 C-182.505 100.515 -182.505 100.515 -182 99 C-181.34 99 -180.68 99 -180 99 C-180 98.34 -180 97.68 -180 97 C-179.34 97 -178.68 97 -178 97 C-177.62875 96.1646875 -177.62875 96.1646875 -177.25 95.3125 C-175.15837296 91.44298998 -172.33694534 87.88190734 -169 85 C-168.34 85 -167.68 85 -167 85 C-167 84.34 -167 83.68 -167 83 C-164.525 82.01 -164.525 82.01 -162 81 C-162 80.34 -162 79.68 -162 79 C-161.01 78.67 -160.02 78.34 -159 78 C-158.67 77.34 -158.34 76.68 -158 76 C-156.02111039 75.27306096 -154.02045442 74.60183749 -152 74 C-152 73.34 -152 72.68 -152 72 C-151.236875 71.731875 -150.47375 71.46375 -149.6875 71.1875 C-147.00787946 70.21736362 -147.00787946 70.21736362 -145.5625 68.4375 C-143.28516033 66.3423475 -141.00290797 66.33365644 -138 66 C-138 65.34 -138 64.68 -138 64 C-135.41877492 63.15960114 -132.83536099 62.32749444 -130.25 61.5 C-129.52039063 61.26152344 -128.79078125 61.02304688 -128.0390625 60.77734375 C-127.33007812 60.55175781 -126.62109375 60.32617188 -125.890625 60.09375 C-125.24125977 59.88427734 -124.59189453 59.67480469 -123.92285156 59.45898438 C-122 59 -122 59 -118 59 C-117.505 58.01 -117.505 58.01 -117 57 C-115.515 57.495 -115.515 57.495 -114 58 C-114 57.34 -114 56.68 -114 56 C-105.21260542 54.94440656 -96.49114822 54.84552211 -87.65600586 54.86962891 C-85.30641298 54.87501395 -82.95700917 54.86964008 -80.60742188 54.86328125 C-79.08854125 54.86394175 -77.56966075 54.86522233 -76.05078125 54.8671875 C-75.01610466 54.86415115 -75.01610466 54.86415115 -73.96052551 54.86105347 C-67.64118369 54.89102496 -61.36027869 55.2742813 -55.375 57.4375 C-54.61832031 57.705625 -53.86164063 57.97375 -53.08203125 58.25 C-52.39496094 58.4975 -51.70789063 58.745 -51 59 C-50.030625 59.309375 -49.06125 59.61875 -48.0625 59.9375 C-38.16302493 63.37201176 -29.05735367 67.77460365 -20 73 C-18.67391178 73.68096422 -17.34313399 74.35330586 -16 75 C-15.34 75.33 -14.68 75.66 -14 76 C-14 76.99 -14 77.98 -14 79 C-13.01 79 -12.02 79 -11 79 C-10.01 77.515 -10.01 77.515 -9 76 C-8.01 75.67 -7.02 75.34 -6 75 C-6 74.01 -6 73.02 -6 72 C-4.68 71.67 -3.36 71.34 -2 71 C-1.67 69.68 -1.34 68.36 -1 67 C-0.01 67 0.98 67 2 67 C2.33 66.01 2.66 65.02 3 64 C4.4375 62.3125 4.4375 62.3125 6 61 C6.66 61 7.32 61 8 61 C8 60.34 8 59.68 8 59 C8.66 59 9.32 59 10 59 C10.66 57.68 11.32 56.36 12 55 C12.66 55 13.32 55 14 55 C14 54.01 14 53.02 14 52 C15.32 51.67 16.64 51.34 18 51 C18 50.01 18 49.02 18 48 C20 46.3125 20 46.3125 22 45 C20.88145414 41.27385847 20.88145414 41.27385847 18 39 C17.67 38.01 17.34 37.02 17 36 C16.01 35.67 15.02 35.34 14 35 C13.67 34.01 13.34 33.02 13 32 C11.36497064 30.41441619 11.36497064 30.41441619 9.4375 28.9375 C7.49609375 27.40234375 7.49609375 27.40234375 6 26 C6 25.34 6 24.68 6 24 C5.360625 23.896875 4.72125 23.79375 4.0625 23.6875 C3.381875 23.460625 2.70125 23.23375 2 23 C1.67 22.01 1.34 21.02 1 20 C-0.97956942 18.30911778 -2.97945196 16.64169528 -5 15 C-6.52846661 11.94306678 -6.23242445 9.37015453 -6 6 C-4.6875 3.5625 -4.6875 3.5625 -3 2 C-2.01 2 -1.02 2 0 2 C0 1.34 0 0.68 0 0 Z M-91 113 C-91 113.66 -91 114.32 -91 115 C-91.56203125 114.81566406 -92.1240625 114.63132812 -92.703125 114.44140625 C-95.38260374 113.92647241 -97.11546311 114.27886578 -99.75 114.9375 C-100.54921875 115.13214844 -101.3484375 115.32679688 -102.171875 115.52734375 C-102.77515625 115.68332031 -103.3784375 115.83929688 -104 116 C-104 116.66 -104 117.32 -104 118 C-104.804375 118.04125 -105.60875 118.0825 -106.4375 118.125 C-111.30075931 119.31948474 -115.1674927 121.78921055 -119 125 C-119 125.66 -119 126.32 -119 127 C-119.57234375 127.24492187 -120.1446875 127.48984375 -120.734375 127.7421875 C-132.15121582 134.08050258 -138.15271515 149.14965155 -142 161 C-137.39184965 161.02478935 -132.78373847 161.0429023 -128.17553711 161.05493164 C-126.60912398 161.05994856 -125.0427155 161.06676362 -123.47631836 161.07543945 C-121.21987761 161.08762094 -118.96349898 161.09325481 -116.70703125 161.09765625 C-116.01100296 161.10281754 -115.31497467 161.10797882 -114.59785461 161.11329651 C-103.64863245 161.11454896 -90.32668152 157.36591057 -82 150 C-82 149.34 -82 148.68 -82 148 C-80.35 147.34 -78.7 146.68 -77 146 C-77 145.34 -77 144.68 -77 144 C-76.4225 143.773125 -75.845 143.54625 -75.25 143.3125 C-72.86791081 142.10375091 -72.86791081 142.10375091 -71.25 139.8125 C-68.70139357 136.62674197 -65.85194196 134.22738098 -62.70703125 131.6484375 C-60.74594204 130.00909559 -60.74594204 130.00909559 -60 127 C-59.34 127 -58.68 127 -58 127 C-58 126.34 -58 125.68 -58 125 C-57.34 125 -56.68 125 -56 125 C-56 124.34 -56 123.68 -56 123 C-55.34 123 -54.68 123 -54 123 C-55.3928213 120.2143574 -57.30426398 119.47623639 -60 118 C-62.78918149 116.89459074 -62.78918149 116.89459074 -65 117 C-66.44633402 116.54819821 -67.88287382 116.06467121 -69.3125 115.5625 C-73.17315361 114.24665022 -76.88395184 113 -81 113 C-84.33333333 113 -87.66666667 113 -91 113 Z" transform="translate(306 73)"/><path fill="#D9DADA" d="M0 0 C0.66 0 1.32 0 2 0 C2.78529342 6.2480574 3.15280685 12.33793282 3.16113281 18.63134766 C3.16609772 19.54800705 3.17106262 20.46466644 3.17617798 21.40910339 C3.1906635 24.41076431 3.19757586 27.41237253 3.203125 30.4140625 C3.20595238 31.44516521 3.20877975 32.47626793 3.21169281 33.53861618 C3.22662399 38.98668418 3.23589393 44.43472608 3.24023438 49.8828125 C3.24573466 55.4993151 3.26981281 61.1155772 3.29820633 66.73200417 C3.31684341 71.06434836 3.32203871 75.39663445 3.32357025 79.72901535 C3.32659085 81.79981182 3.3345993 83.87060741 3.34775543 85.94136429 C3.36485106 88.83691015 3.36292793 91.73186525 3.35644531 94.62744141 C3.3656601 95.47645523 3.37487488 96.32546906 3.3843689 97.20021057 C3.34703244 102.53645472 2.57267236 106.28851841 0 111 C-3.72169785 113.50810073 -6.53073058 114.3943473 -11 114 C-10.505 113.01 -10.505 113.01 -10 112 C-7.98520282 111.44205617 -5.97029439 111.10926982 -3.91015625 110.7578125 C-1.85895922 110.16237864 -1.85895922 110.16237864 -0.89564705 108.23421097 C0.07993615 105.80059754 0.24669909 104.10701611 0.24050903 101.49481201 C0.24325836 100.59741302 0.24600769 99.70001404 0.24884033 98.77542114 C0.24164978 97.79862396 0.23445923 96.82182678 0.22705078 95.81542969 C0.22748886 94.26373581 0.22748886 94.26373581 0.22793579 92.68069458 C0.22654231 89.26100277 0.21098004 85.84152876 0.1953125 82.421875 C0.19158244 80.05104695 0.18873544 77.68021735 0.18673706 75.30938721 C0.17910008 69.06880438 0.15945092 62.82831461 0.1373291 56.58776855 C0.11687214 50.21998351 0.10773566 43.85218343 0.09765625 37.484375 C0.07620518 24.98954244 0.04206836 12.49477896 0 0 Z" transform="translate(413 78)"/><path fill="#D5D5D6" d="M0 0 C0.33 0 0.66 0 1 0 C1 15.84 1 31.68 1 48 C-2.09229923 43.36155115 -2.10068867 39.96908356 -2 34.4375 C-1.90577903 29.63192577 -1.90577903 29.63192577 -3 25 C-2.68584095 23.66201906 -2.34988718 22.32908534 -2 21 C-1.95644427 19.27138198 -1.9600876 17.54120598 -2 15.8125 C-2.04732369 10.77590683 -1.72369192 5.9854332 -1 1 C-0.67 0.67 -0.34 0.34 0 0 Z" transform="translate(99 231)"/><path fill="#D1D2D2" d="M0 0 C1.22009766 0.10828125 1.22009766 0.10828125 2.46484375 0.21875 C17.38146401 1.42684523 32.08901374 1.12384284 47 0 C47 0.33 47 0.66 47 1 C45.35 1 43.7 1 42 1 C42 1.66 42 2.32 42 3 C35.25 3.125 35.25 3.125 33 2 C33 2.66 33 3.32 33 4 C29.5625177 4.02901394 26.12506688 4.04680335 22.6875 4.0625 C21.22280273 4.07506836 21.22280273 4.07506836 19.72851562 4.08789062 C18.79072266 4.09111328 17.85292969 4.09433594 16.88671875 4.09765625 C16.02264404 4.10289307 15.15856934 4.10812988 14.26831055 4.11352539 C12 4 12 4 9 3 C7.62755866 2.83178248 6.25209575 2.68699759 4.875 2.5625 C3.59625 2.376875 2.3175 2.19125 1 2 C0.67 1.34 0.34 0.68 0 0 Z" transform="translate(170 288)"/><path fill="#E5E5E5" d="M0 0 C0.66 0.66 1.32 1.32 2 2 C1.34 2.66 0.68 3.32 0 4 C-1.0209375 3.2884375 -1.0209375 3.2884375 -2.0625 2.5625 C-5.42455187 0.77417454 -8.24941406 0.48618707 -12 0 C-12.99 -0.66 -13.98 -1.32 -15 -2 C-15.33 -1.34 -15.66 -0.68 -16 0 C-16.33 -0.33 -16.66 -0.66 -17 -1 C-19.4001737 -1.12973912 -21.48399205 -1.14376895 -23.80859375 -0.49609375 C-26.50489819 0.11429959 -28.988178 0.09537883 -31.75 0.0625 C-32.73484375 0.05347656 -33.7196875 0.04445312 -34.734375 0.03515625 C-35.48203125 0.02355469 -36.2296875 0.01195312 -37 0 C-27.60961404 -6.26025731 -10.02405735 -3.8405 0 0 Z" transform="translate(242 188)"/><path fill="#C9C9CA" d="M0 0 C1.12138618 0.00212242 1.12138618 0.00212242 2.26542664 0.00428772 C4.6392324 0.00985861 7.01294178 0.02240565 9.38671875 0.03515625 C11.00195176 0.04017502 12.61718625 0.04473726 14.23242188 0.04882812 C18.1797243 0.0598185 22.12695522 0.07706293 26.07421875 0.09765625 C26.07421875 0.42765625 26.07421875 0.75765625 26.07421875 1.09765625 C25.12506592 1.11953003 25.12506592 1.11953003 24.15673828 1.1418457 C11.88147709 1.45599825 -0.07352697 2.07677105 -12.1484375 4.37890625 C-15.73814109 5.06195223 -19.30619248 5.60814099 -22.92578125 6.09765625 C-22.26578125 5.43765625 -21.60578125 4.77765625 -20.92578125 4.09765625 C-19.60578125 4.09765625 -18.28578125 4.09765625 -16.92578125 4.09765625 C-16.59578125 3.43765625 -16.26578125 2.77765625 -15.92578125 2.09765625 C-14.93578125 2.42765625 -13.94578125 2.75765625 -12.92578125 3.09765625 C-12.92578125 2.43765625 -12.92578125 1.77765625 -12.92578125 1.09765625 C-8.60805881 0.03386956 -4.41835869 -0.03176535 0 0 Z" transform="translate(204.926 127.902)"/><path fill="#D2D2D3" d="M0 0 C-7.72226318 4.28651049 -14.7478102 5.82400235 -23.3984375 6.640625 C-26.34485197 6.93462731 -29.11427224 7.36751172 -32 8 C-34.73415204 8.54082128 -37.18788579 8.81857328 -40 9 C-41.7421875 7.515625 -41.7421875 7.515625 -43 6 C-42.44763672 5.96036133 -41.89527344 5.92072266 -41.32617188 5.87988281 C-30.83957709 5.09360541 -8.91824392 -2.97274797 0 0 Z" transform="translate(282 387)"/><path fill="#E0E1E1" d="M0 0 C0.66 0 1.32 0 2 0 C0.56248766 3.2821443 -1.21569349 5.47282391 -3.73828125 8.00390625 C-4.84526367 9.11475586 -4.84526367 9.11475586 -5.97460938 10.24804688 C-6.74611328 11.01181641 -7.51761719 11.77558594 -8.3125 12.5625 C-9.07240234 13.33013672 -9.83230469 14.09777344 -10.61523438 14.88867188 C-11.35708984 15.62794922 -12.09894531 16.36722656 -12.86328125 17.12890625 C-13.53657471 17.79994385 -14.20986816 18.47098145 -14.90356445 19.16235352 C-17.12967851 21.11367068 -19.42300366 22.55361484 -22 24 C-21.34 22.68 -20.68 21.36 -20 20 C-19.34 20 -18.68 20 -18 20 C-17.67 19.01 -17.34 18.02 -17 17 C-16.0409375 16.5359375 -16.0409375 16.5359375 -15.0625 16.0625 C-12.49456675 14.7396253 -12.17213269 13.57869191 -11 11 C-9.5 9.25 -9.5 9.25 -8 8 C-7.34 8 -6.68 8 -6 8 C-6 7.01 -6 6.02 -6 5 C-4.36368108 3.95107762 -2.69514137 2.95093297 -1 2 C-0.67 1.34 -0.34 0.68 0 0 Z" transform="translate(322 280)"/><path fill="#D2D3D3" d="M0 0 C0.99 0.33 1.98 0.66 3 1 C2.38125 1.2475 1.7625 1.495 1.125 1.75 C-1.09775732 2.78209702 -1.09775732 2.78209702 -1.76171875 4.69140625 C-3.58115401 8.0834764 -6.21209177 10.50097988 -8.9375 13.1875 C-9.47568359 13.73341797 -10.01386719 14.27933594 -10.56835938 14.84179688 C-13.01160618 17.27299314 -14.68733927 18.89577976 -18 20 C-18 19.34 -18 18.68 -18 18 C-17.34 18 -16.68 18 -16 18 C-15.7525 17.443125 -15.505 16.88625 -15.25 16.3125 C-13.15837296 12.44298998 -10.33694534 8.88190734 -7 6 C-6.34 6 -5.68 6 -5 6 C-5 5.34 -5 4.68 -5 4 C-3.35 3.34 -1.7 2.68 0 2 C0 1.34 0 0.68 0 0 Z" transform="translate(144 152)"/><path fill="#BDBEBE" d="M0 0 C2.79342311 1.96369347 4.8234697 4.38924919 7 7 C7.928125 7.9075 8.85625 8.815 9.8125 9.75 C12 12 12 12 14 15 C10.11286669 13.44871286 8.0099369 10.9601524 5.25 7.875 C1.93651282 4.35796267 1.93651282 4.35796267 -2.2890625 2.2734375 C-5.8667953 2.23323826 -9.02214794 3.01476529 -12 5 C-11.625 3.0625 -11.625 3.0625 -11 1 C-7.45638257 -0.77180871 -3.84874482 -0.7773327 0 0 Z" transform="translate(339 272)"/><path fill="#D8D8D9" d="M0 0 C1.155 0.350625 2.31 0.70125 3.5 1.0625 C6 2 6 2 7 4 C-3 2 -13 0 -23 -2 C-23 -2.33 -23 -2.66 -23 -3 C-15.07142304 -5.30184492 -7.46741009 -2.71796915 0 0 Z" transform="translate(255 132)"/><path fill="#CBCBCC" d="M0 0 C2.27032597 2.27032597 2.61795635 3.56120106 3.47265625 6.61328125 C3.73240234 7.53173828 3.99214844 8.45019531 4.25976562 9.39648438 C4.52466797 10.35876953 4.78957031 11.32105469 5.0625 12.3125 C5.33126953 13.26318359 5.60003906 14.21386719 5.87695312 15.19335938 C7.0686318 19.44595832 8.17373198 23.65930637 9 28 C4.74261555 23.88942191 3.90996915 19.4479362 2.66015625 13.875 C2.02487807 10.873925 2.02487807 10.873925 0.8125 7.5625 C-0.03236211 4.89793488 -0.16335722 2.77707279 0 0 Z" transform="translate(100 282)"/><path fill="#DDDEDE" d="M0 0 C0.33 0 0.66 0 1 0 C1.33 6.6 1.66 13.2 2 20 C-0.86957093 15.6956436 -1.1388106 12.49873111 -1.125 7.375 C-1.12757812 6.41335938 -1.13015625 5.45171875 -1.1328125 4.4609375 C-1 2 -1 2 0 0 Z" transform="translate(98 259)"/><path fill="#D8D8D9" d="M0 0 C0 0.99 0 1.98 0 3 C-0.61875 3.2475 -1.2375 3.495 -1.875 3.75 C-4.35068687 5.20628639 -4.95125002 6.37812506 -6 9 C-6.66 9 -7.32 9 -8 9 C-8.33 9.99 -8.66 10.98 -9 12 C-9.66 12 -10.32 12 -11 12 C-11 11.01 -11 10.02 -11 9 C-9.68 8.67 -8.36 8.34 -7 8 C-6.67 6.68 -6.34 5.36 -6 4 C-5.01 4 -4.02 4 -3 4 C-2.67 3.01 -2.34 2.02 -2 1 C-1.34 0.67 -0.68 0.34 0 0 Z" transform="translate(311 136)"/><path fill="#C5C6C7" d="M0 0 C3.18419421 1.37154686 4.97112596 2.86169983 7.125 5.5625 C9.20903634 8.21025666 9.20903634 8.21025666 12 10 C11.67 10.66 11.34 11.32 11 12 C10.01 11.67 9.02 11.34 8 11 C7.67 10.01 7.34 9.02 7 8 C5.36497064 6.41441619 5.36497064 6.41441619 3.4375 4.9375 C1.49609375 3.40234375 1.49609375 3.40234375 0 2 C0 1.34 0 0.68 0 0 Z" transform="translate(312 97)"/><path fill="#DEDEDE" d="M0 0 C4.97093824 0.41153737 9.44508386 0.79600832 14 3 C13.01 4.485 13.01 4.485 12 6 C11.319375 5.525625 10.63875 5.05125 9.9375 4.5625 C6.58158044 2.7774364 3.75838519 2.36846914 0 2 C0 1.34 0 0.68 0 0 Z" transform="translate(230 186)"/><path fill="#D6D7D7" d="M0 0 C1.22589844 0.01353516 1.22589844 0.01353516 2.4765625 0.02734375 C3.41628906 0.04474609 3.41628906 0.04474609 4.375 0.0625 C4.705 0.7225 5.035 1.3825 5.375 2.0625 C4.77171875 2.11148437 4.1684375 2.16046875 3.546875 2.2109375 C2.34804688 2.32308594 2.34804688 2.32308594 1.125 2.4375 C-0.05835938 2.54191406 -0.05835938 2.54191406 -1.265625 2.6484375 C-3.710877 3.07757113 -5.47336903 3.84850638 -7.625 5.0625 C-7.25 3.125 -7.25 3.125 -6.625 1.0625 C-4.21954362 -0.14022819 -2.67503047 -0.03821472 0 0 Z" transform="translate(334.625 271.938)"/><path fill="#C6C7C7" d="M0 0 C4.83628305 0.99043705 9.47618873 1.95698846 14 4 C10.62700256 5.15006091 8.65146785 4.85199953 5.3125 3.6875 C4.52488281 3.42324219 3.73726562 3.15898437 2.92578125 2.88671875 C1 2 1 2 0 0 Z" transform="translate(190 385)"/><path fill="#D3D3D5" d="M0 0 C3.68802044 1.22934015 4.72356973 2.93859378 7 6 C6.34 6 5.68 6 5 6 C5 6.66 5 7.32 5 8 C4.01 7.67 3.02 7.34 2 7 C0.8125 3.4375 0.8125 3.4375 0 0 Z" transform="translate(326 111)"/><path fill="#CBCBCC" d="M0 0 C-1.45264038 0.8638129 -2.9123163 1.71580454 -4.375 2.5625 C-5.59316406 3.27599609 -5.59316406 3.27599609 -6.8359375 4.00390625 C-7.55007812 4.33261719 -8.26421875 4.66132813 -9 5 C-9.66 4.67 -10.32 4.34 -11 4 C-8.32997607 0.73663741 -4.08378642 -2.04189321 0 0 Z" transform="translate(170 139)"/><path fill="#DADADB" d="M0 0 C0.66 0.33 1.32 0.66 2 1 C1.67 1.66 1.34 2.32 1 3 C0.34 3 -0.32 3 -1 3 C-1.268125 3.639375 -1.53625 4.27875 -1.8125 4.9375 C-3 7 -3 7 -6 8 C-5.34 6.68 -4.68 5.36 -4 4 C-3.34 4 -2.68 4 -2 4 C-2 3.01 -2 2.02 -2 1 C-1.34 0.67 -0.68 0.34 0 0 Z" transform="translate(322 124)"/></svg>