<?xml version="1.0" encoding="utf-8"?>
<!-- Generator: Adobe Illustrator 21.1.0, SVG Export Plug-In . SVG Version: 6.00 Build 0)  -->
<svg version="1.1" id="Layer_1" xmlns="http://www.w3.org/2000/svg" xmlns:xlink="http://www.w3.org/1999/xlink" x="0px" y="0px"
	 viewBox="0 0 184.5 47" style="enable-background:new 0 0 184.5 47;" xml:space="preserve">
<style type="text/css">
	.st0{opacity:0.66;enable-background:new    ;}
</style>
<title>containerd-dark</title>
<desc>Created with Sketch.</desc>
<g>
	<g>
		<path d="M152.5,2v43h30V2H152.5z M177.5,40h-3h-17v-5V21h3.5h10.5v-7h6V40z"/>
		<rect x="163.5" y="26" width="8" height="9"/>
	</g>
	<g>
		<polygon class="st0" points="66.5,15 62.5,15 62.5,22 59.5,22 59.5,26 62.5,26 62.5,40 65,40 70.5,40 70.5,36 66.5,36 66.5,26 
			70.5,26 70.5,22 66.5,22 		"/>
		<path class="st0" d="M76.5,26h10v3h-14v3v8h2h14h2V24.5V22h-14V26z M86.5,36h-10v-3h10V36z"/>
		<rect x="92.5" y="22" class="st0" width="4" height="18"/>
		<polygon class="st0" points="45.5,22 42.5,22 42.5,40 46.5,40 46.5,26 53.5,26 53.5,40 57.5,40 57.5,22 54.5,22 		"/>
		<polygon class="st0" points="2.5,22 2.5,40 5.5,40 20.5,40 20.5,36 6.5,36 6.5,26 20.5,26 20.5,22 5.5,22 		"/>
		<path class="st0" d="M22.5,25.5V37v3h18v-3V25.5V22h-18V25.5z M26.5,26h10v10h-10V26z"/>
		<rect x="92.5" y="15" class="st0" width="4" height="4"/>
		<polygon class="st0" points="138.5,22 134.5,22 134.5,40 138.5,40 138.5,26 149.5,26 149.5,22 		"/>
		<polygon class="st0" points="102,22 98.5,22 98.5,40 102.5,40 102.5,26 109.5,26 109.5,40 113.5,40 113.5,22 110,22 		"/>
		<path class="st0" d="M115.5,22v18h3h12v-4h-11v-3h11h2v-9v-2h-15H115.5z M119.5,26h9v3h-9V26z"/>
	</g>
</g>
</svg>
