<?xml version="1.0" encoding="utf-8"?>
<!-- Generator: Adobe Illustrator 21.1.0, SVG Export Plug-In . SVG Version: 6.00 Build 0)  -->
<svg version="1.1" id="Layer_1" xmlns="http://www.w3.org/2000/svg" xmlns:xlink="http://www.w3.org/1999/xlink" x="0px" y="0px"
	 viewBox="0 0 432 423.4" style="enable-background:new 0 0 432 423.4;" xml:space="preserve">
<style type="text/css">
	.st0{fill:none;}
	.st1{fill:#427AF4;}
	.st2{fill:#FFFFFF;}
</style>
<g>
	<path class="st0" d="M148.4,326.8l4.5-10.9h-19C138.5,319.8,143.3,323.5,148.4,326.8z"/>
	<path class="st0" d="M295,123.9c-18.1-14.7-40.2-24.3-63.8-27.2l1.5,27.2H295z"/>
	<path class="st0" d="M189.1,315.9L175.8,340c21.3,7.2,44.8,8.9,68.3,3.5c4.2-1,8.3-2.1,12.3-3.4L243,315.9H189.1z"/>
	<path class="st0" d="M200.8,96.6c-4.3,0.5-8.6,1.2-12.9,2.2c-19.6,4.4-36.9,13.2-51.4,25h62.8L200.8,96.6z"/>
	<path class="st0" d="M283.8,327c5.3-3.3,10.2-7.1,14.8-11.1h-19.4L283.8,327z"/>
	<path class="st1" d="M418.7,254.9c-1-0.2-2.5-0.6-3.5-0.8c-4.2-0.8-7.6-0.6-11.6-0.9c-8.5-0.9-15.5-1.6-21.7-3.6
		c-2.5-1-4.3-4-5.2-5.3l-4.9-1.4c2.5-18.3,1.9-37.4-2.5-56.5c-4.4-19.3-12.2-36.9-22.7-52.4c1.3-1.1,3.6-3.2,4.3-3.9
		c0.2-2.2,0-4.4,2.3-6.9c4.8-4.5,10.8-8.2,18-12.7c3.4-2,6.6-3.3,10.1-5.9c0.8-0.6,1.8-1.5,2.7-2.1c5.8-4.6,7.1-12.6,3-17.8
		c-4.2-5.2-12.2-5.7-18.1-1.1c-0.8,0.7-1.9,1.5-2.7,2.1c-3.2,2.8-5.3,5.6-8,8.5c-6,6.1-10.9,11.1-16.3,14.8
		c-2.3,1.4-5.8,0.9-7.3,0.8l-4.6,3.3c-26.3-27.5-62-45.1-100.5-48.6c-0.1-1.6-0.2-4.5-0.3-5.4c-1.6-1.5-3.5-2.8-4-6.1
		c-0.5-6.5,0.4-13.5,1.4-22c0.6-3.9,1.5-7.2,1.7-11.5c0-1,0-2.4,0-3.4c0-7.4-5.4-13.5-12.1-13.5c-6.7,0-12.1,6-12.1,13.5
		c0,0.1,0,0.2,0,0.3c0,1-0.1,2.2,0,3.1c0.2,4.3,1.1,7.6,1.7,11.5c1,8.4,1.9,15.5,1.3,22c-0.5,2.5-2.3,4.7-3.9,6.3l-0.3,5.1
		c-7.3,0.6-14.6,1.7-21.9,3.4c-31.4,7.1-58.5,23.3-79.1,45.2c-1.3-0.9-3.7-2.6-4.4-3.1c-2.2,0.3-4.3,1-7.2-0.7
		c-5.4-3.6-10.4-8.7-16.3-14.7c-2.7-2.9-4.7-5.7-8-8.5c-0.7-0.6-1.9-1.5-2.7-2.1c-2.5-2-5.5-3.1-8.4-3.2C51,80.6,47.4,82,45.1,85
		c-4.2,5.2-2.8,13.2,3,17.8c0.1,0,0.1,0.1,0.2,0.1c0.8,0.6,1.8,1.5,2.5,2c3.5,2.5,6.6,3.9,10,5.9c7.2,4.5,13.2,8.2,18,12.6
		c1.9,2,2.2,5.5,2.4,7l3.9,3.5c-20.8,31.3-30.4,69.9-24.7,109.2l-5.1,1.5c-1.3,1.7-3.2,4.4-5.2,5.3c-6.2,2-13.2,2.7-21.7,3.6
		c-4,0.3-7.4,0.1-11.6,0.9c-0.9,0.2-2.2,0.5-3.2,0.7c0,0-0.1,0-0.1,0c-0.1,0-0.1,0-0.2,0c-7.1,1.7-11.7,8.3-10.2,14.7
		c1.5,6.5,8.4,10.4,15.6,8.8c0.1,0,0.1,0,0.2,0c0.1,0,0.2-0.1,0.2-0.1c1-0.2,2.3-0.5,3.1-0.7c4.1-1.1,7.1-2.7,10.9-4.2
		c8-2.9,14.6-5.3,21.1-6.2c2.7-0.2,5.5,1.7,7,2.5l5.3-0.9c5.4,16.8,13.5,32.2,23.7,45.8v0.9h0.7c12.5,16.4,27.9,30.1,45.4,40.5
		l-2.2,5.3c0.8,2,1.7,4.8,1.1,6.8c-2.4,6.1-6.4,12.5-11,19.7c-2.2,3.3-4.5,5.9-6.5,9.7c-0.5,0.9-1.1,2.3-1.6,3.3
		c-3.1,6.7-0.8,14.3,5.1,17.2c6,2.9,13.5-0.2,16.7-6.8c0,0,0,0,0,0c0,0,0,0,0,0c0.5-0.9,1.1-2.2,1.5-3.1c1.7-3.9,2.3-7.3,3.5-11.1
		c3.2-8,5-16.5,9.4-21.7c1.2-1.4,3.2-2,5.2-2.5l2.7-5c28.1,10.8,59.5,13.7,90.9,6.5c7.2-1.6,14.1-3.7,20.8-6.3
		c0.8,1.4,2.2,4,2.6,4.7c2.1,0.7,4.3,1,6.2,3.8c3.3,5.6,5.6,12.3,8.3,20.4c1.2,3.8,1.8,7.2,3.5,11.1c0.4,0.9,1,2.2,1.5,3.1
		c3.2,6.7,10.7,9.8,16.7,6.9c6-2.9,8.3-10.5,5.1-17.2c-0.5-1-1.1-2.4-1.6-3.3c-2-3.8-4.3-6.3-6.5-9.6c-4.6-7.2-8.4-13.1-10.7-19.2
		c-1-3.1,0.2-5.1,0.9-7.1c-0.5-0.5-1.4-3.5-2-4.9c17.9-10.6,33.3-24.6,45.6-40.8h0.2v-0.3c10.5-14.1,18.6-29.8,24-46.6
		c1.6,0.2,4.3,0.7,5.2,0.9c1.8-1.2,3.5-2.8,6.8-2.5c6.5,0.9,13.1,3.3,21.1,6.2c3.7,1.4,6.7,3.1,10.9,4.2c0.9,0.2,2.1,0.5,3.1,0.7
		c0.1,0,0.2,0.1,0.2,0.1c0.1,0,0.1,0,0.2,0c7.2,1.5,14.1-2.4,15.6-8.8C430.4,263.2,425.8,256.6,418.7,254.9z M328.9,186.1H103.1
		v-49.2h225.8V186.1z M319.3,217.2c-0.6-0.4-1.5-0.8-2.8-1.3c-1-0.4-1.8-0.7-2.6-1.1s-1.5-0.9-2-1.4c-0.6-0.5-1-1.2-1.3-1.9
		c-0.3-0.7-0.5-1.6-0.5-2.7c0-2,0.8-3.7,2.3-4.9c1.5-1.2,3.6-1.8,6.3-1.8c1.3,0,2.6,0.1,3.8,0.4c1.2,0.2,2.2,0.5,2.9,0.8l-1.1,4.8
		c-0.7-0.2-1.5-0.5-2.3-0.7s-1.8-0.3-2.8-0.3c-1.9,0-2.9,0.5-2.9,1.6c0,0.2,0,0.5,0.1,0.7s0.2,0.4,0.5,0.6c0.2,0.2,0.6,0.4,1,0.6
		s1,0.4,1.6,0.7c1.4,0.5,2.5,1,3.4,1.5c0.9,0.5,1.6,1,2.1,1.6c0.5,0.6,0.9,1.2,1.1,1.9c0.2,0.7,0.3,1.5,0.3,2.4
		c0,2.2-0.8,3.8-2.4,4.9c-1.6,1.1-3.9,1.7-6.9,1.7c-1.9,0-3.5-0.2-4.8-0.5s-2.2-0.6-2.7-0.8l1-5c1,0.4,2.1,0.7,3.2,1
		c1.1,0.2,2.2,0.4,3.3,0.4c1.1,0,1.9-0.1,2.4-0.3c0.5-0.2,0.7-0.6,0.7-1.3C320.2,218,319.9,217.6,319.3,217.2z M293.7,218.7
		c1,0.7,2.5,1.1,4.2,1.1c1.1,0,2.2-0.1,3.3-0.3c1.1-0.2,2-0.5,2.7-0.8l0.8,5c-0.3,0.2-0.8,0.3-1.3,0.5s-1.2,0.3-1.8,0.4
		c-0.7,0.1-1.4,0.2-2.2,0.3s-1.5,0.1-2.3,0.1c-2,0-3.7-0.3-5.1-0.9c-1.5-0.6-2.7-1.4-3.6-2.4c-1-1-1.7-2.2-2.1-3.6s-0.7-2.9-0.7-4.5
		c0-1.9,0.3-3.6,0.9-5.1c0.6-1.5,1.4-2.7,2.3-3.6c1-1,2.1-1.7,3.3-2.2c1.3-0.5,2.5-0.7,3.9-0.7c3.1,0,5.5,0.9,7.3,2.8
		s2.7,4.7,2.7,8.4c0,0.4,0,0.8,0,1.2s-0.1,0.8-0.1,1.1h-14C292.1,217,292.6,218,293.7,218.7z M282.4,202.8v5.1H275v7.7
		c0,1.3,0.2,2.3,0.7,3.1s1.4,1.2,2.8,1.2c0.7,0,1.3-0.1,2.1-0.2c0.7-0.1,1.3-0.3,1.9-0.5l0.9,4.8c-0.7,0.3-1.6,0.6-2.5,0.8
		s-2,0.3-3.4,0.3c-1.7,0-3.1-0.2-4.2-0.7c-1.1-0.5-2-1.1-2.7-1.9c-0.7-0.8-1.1-1.8-1.4-3c-0.3-1.2-0.4-2.4-0.4-3.9v-18.3l6.2-1v6.4
		H282.4z M251.9,218.7c1,0.7,2.5,1.1,4.2,1.1c1.1,0,2.2-0.1,3.3-0.3c1.1-0.2,2-0.5,2.7-0.8l0.8,5c-0.3,0.2-0.8,0.3-1.3,0.5
		s-1.2,0.3-1.8,0.4c-0.7,0.1-1.4,0.2-2.2,0.3s-1.5,0.1-2.3,0.1c-2,0-3.7-0.3-5.1-0.9c-1.5-0.6-2.7-1.4-3.6-2.4c-1-1-1.7-2.2-2.1-3.6
		s-0.7-2.9-0.7-4.5c0-1.9,0.3-3.6,0.9-5.1c0.6-1.5,1.4-2.7,2.3-3.6c1-1,2.1-1.7,3.3-2.2c1.3-0.5,2.5-0.7,3.9-0.7
		c3.1,0,5.5,0.9,7.3,2.8s2.7,4.7,2.7,8.4c0,0.4,0,0.8,0,1.2s-0.1,0.8-0.1,1.1h-14C250.3,217,250.9,218,251.9,218.7z M232.3,208.8
		c-0.5-0.8-1.5-1.2-2.9-1.2c-0.4,0-0.9,0-1.4,0.1c-0.5,0-0.9,0.1-1.3,0.1v16.8h-6.2v-21.1c1-0.3,2.4-0.6,4.1-0.8s3.4-0.4,5.2-0.4
		c1.9,0,3.4,0.2,4.6,0.7s2.2,1.2,2.9,2.1s1.2,1.9,1.5,3.2c0.3,1.2,0.5,2.6,0.5,4.1v12.3H233V213C233,211,232.8,209.6,232.3,208.8z
		 M217.1,203.1l-1,5.1c-0.6-0.1-1.2-0.3-1.9-0.4c-0.7-0.2-1.5-0.2-2.4-0.2c-0.4,0-0.8,0-1.4,0.1s-0.9,0.1-1.2,0.2v16.7h-6.2v-20.6
		c1.1-0.4,2.4-0.8,3.9-1.1c1.5-0.3,3.2-0.5,5-0.5c0.3,0,0.7,0,1.2,0.1c0.5,0,0.9,0.1,1.4,0.2c0.5,0.1,0.9,0.2,1.4,0.2
		C216.4,202.9,216.8,203,217.1,203.1z M185.8,218.7c1.1,0.7,2.5,1.1,4.2,1.1c1.1,0,2.2-0.1,3.3-0.3c1.1-0.2,2-0.5,2.7-0.8l0.8,5
		c-0.3,0.2-0.8,0.3-1.3,0.5c-0.6,0.2-1.2,0.3-1.8,0.4c-0.7,0.1-1.4,0.2-2.2,0.3c-0.8,0.1-1.5,0.1-2.3,0.1c-2,0-3.7-0.3-5.1-0.9
		c-1.5-0.6-2.7-1.4-3.6-2.4s-1.7-2.2-2.1-3.6s-0.7-2.9-0.7-4.5c0-1.9,0.3-3.6,0.9-5.1c0.6-1.5,1.4-2.7,2.3-3.6c1-1,2.1-1.7,3.3-2.2
		c1.3-0.5,2.5-0.7,3.9-0.7c3.1,0,5.5,0.9,7.3,2.8c1.8,1.9,2.7,4.7,2.7,8.4c0,0.4,0,0.8,0,1.2c0,0.4-0.1,0.8-0.1,1.1h-14
		C184.1,217,184.7,218,185.8,218.7z M162,202.6c0.7-0.2,1.5-0.2,2.4-0.2c1.5,0,2.9,0.3,4.1,0.8c1.2,0.5,2.2,1.3,3,2.3
		c0.8,1,1.4,2.2,1.8,3.6c0.4,1.4,0.6,3,0.6,4.7c0,1.7-0.3,3.3-0.8,4.7c-0.5,1.4-1.3,2.6-2.2,3.6c-1,1-2.2,1.8-3.6,2.3
		s-3,0.8-4.8,0.8c-0.7,0-1.5,0-2.3-0.1c-0.8-0.1-1.6-0.2-2.4-0.3c-0.8-0.1-1.5-0.2-2.3-0.4c-0.7-0.2-1.4-0.3-1.9-0.5v-30.5l6.2-1
		v10.9C160.5,203,161.2,202.7,162,202.6z M136,218.5c0.5,0.9,1.5,1.3,2.9,1.3c0.4,0,0.9,0,1.4-0.1c0.5,0,0.9-0.1,1.3-0.1v-16.8h6.2
		v21.1c-1.1,0.3-2.4,0.6-4.1,0.8s-3.4,0.4-5.2,0.4c-1.9,0-3.4-0.2-4.6-0.7c-1.2-0.5-2.2-1.2-2.9-2.1c-0.7-0.9-1.2-2-1.5-3.2
		c-0.3-1.2-0.5-2.6-0.5-4.1v-12.1h6.2v11.4C135.2,216.1,135.5,217.6,136,218.5z M113.7,208.5c0.6-0.7,1.3-1.4,1.9-2.1
		c0.6-0.7,1.2-1.4,1.7-2c0.5-0.6,1-1.2,1.4-1.6h7.3c-1.5,1.7-2.9,3.3-4.3,4.8c-1.4,1.5-2.9,3.1-4.6,4.7c0.8,0.7,1.7,1.6,2.6,2.7
		c0.9,1,1.7,2.1,2.6,3.2s1.6,2.2,2.3,3.3c0.7,1.1,1.3,2.1,1.7,3h-7.1c-0.4-0.7-0.9-1.5-1.5-2.4c-0.6-0.9-1.2-1.7-1.8-2.6
		c-0.6-0.9-1.3-1.7-2-2.5c-0.7-0.8-1.4-1.5-2.1-2v9.6h-6.2v-31.2l6.2-1v18.2C112.4,209.9,113.1,209.2,113.7,208.5z M103.1,254.2
		v-19.4h225.8v19.4v48.7H103.1V254.2z M295,123.9h-62.3l-1.5-27.2C254.8,99.5,276.9,109.1,295,123.9z M187.9,98.9
		c4.3-1,8.6-1.7,12.9-2.2l-1.5,27.2h-62.8C151,112.1,168.4,103.3,187.9,98.9z M148.4,326.8c-5.1-3.3-9.9-6.9-14.5-10.9h19
		L148.4,326.8z M244.1,343.5c-23.6,5.4-47,3.7-68.3-3.5l13.3-24.1H243l13.4,24.2C252.4,341.4,248.3,342.5,244.1,343.5z M283.8,327
		l-4.6-11.1h19.4C294,319.9,289,323.6,283.8,327z"/>
	<path class="st2" d="M289,276.4h-4v5.3h4.1c2,0,3.1-1.1,3.1-2.6V279C292.2,277.3,291,276.4,289,276.4z"/>
	<path class="st2" d="M138.9,276.4h-3.2v11.2h3.2c3.3,0,5.6-2.3,5.6-5.5V282C144.5,278.7,142.2,276.4,138.9,276.4z"/>
	<path class="st2" d="M173,254.2c0.4-0.5,0.6-1.1,0.6-1.7v-0.1c0-1.8-1.3-2.8-3.3-2.8h-3.2v4.6v1.1h3.2
		C171.6,255.3,172.5,254.9,173,254.2z"/>
	<path class="st2" d="M155.3,254.2c0.4-0.5,0.6-1.1,0.6-1.7v-0.1c0-1.8-1.3-2.8-3.3-2.8h-3.2v4.6v1.1h3.2
		C153.9,255.3,154.8,254.9,155.3,254.2z"/>
	<path class="st2" d="M232,276.1c-3.3,0-5.6,2.6-5.6,5.8v0.1c0,3.2,2.3,5.8,5.6,5.8c3.3,0,5.6-2.6,5.6-5.8V282
		C237.6,278.8,235.3,276.1,232,276.1z"/>
	<path class="st2" d="M252.7,276.4h-3.1v5.7h3.2c2,0,3.2-1.2,3.2-2.8v-0.1C256,277.3,254.8,276.4,252.7,276.4z"/>
	<path class="st2" d="M328.9,254.2v-19.4H103.1v19.4v48.7h225.8V254.2z M242.8,245.9h15.4v3.8h-5.6v4.5v10.3h-4.1v-10.3v-4.5h-5.6
		V245.9z M197.3,245.9h4.1v8.2v10.3h-4.1v-10.3V245.9z M180.7,245.9h4.1v8.2v6.6h9.2v3.7h-13.3v-10.3V245.9z M127.1,264.5h-4.2
		l4.4-10.3l3.6-8.4h3.8l3.6,8.4l4.4,10.3h-4.3l-1.7-4.2h-7.8L127.1,264.5z M148.7,282c0,5.2-4,9.3-9.8,9.3h-7.2v-18.5h7.2
		C144.7,272.7,148.7,276.7,148.7,282L148.7,282z M149.5,264.5h-4.1v-10.3v-8.2h7.6c4.4,0,7.1,2.6,7.1,6.4v0.1c0,0.6-0.1,1.2-0.2,1.8
		c-0.8,3.1-3.7,4.7-7.3,4.7h-3.1V264.5z M166.5,291.2h-14.1v-18.5h14v3.6h-9.9v3.8h8.7v3.6h-8.7v3.9h10.1V291.2z M167.1,264.5h-4.1
		v-10.3v-8.2h7.6c4.4,0,7.1,2.6,7.1,6.4v0.1c0,0.6-0.1,1.2-0.2,1.8c-0.8,3.1-3.7,4.7-7.3,4.7h-3.1V264.5z M179.6,291.4H176
		l-7.5-18.7h4.5l4.8,13l4.8-13h4.4L179.6,291.4z M204.1,291.2h-14.1v-18.5h14v3.6H194v3.8h8.7v3.6H194v3.9h10.1V291.2z M221,291.2
		h-13.3v-18.5h4.1v14.8h9.2V291.2z M214.7,264.8c-5.5,0-9.5-4.2-9.5-9.5v-0.1c0-0.3,0-0.7,0.1-1c0.5-4.8,4.3-8.6,9.6-8.6
		c3.5,0,5.6,1.2,7.3,2.9l-2.6,3c-1.4-1.3-2.9-2.1-4.7-2.1c-2.8,0-4.9,2.1-5.3,4.8c0,0.3-0.1,0.6-0.1,1v0.1c0,3.2,2.2,5.8,5.4,5.8
		c2.1,0,3.4-0.8,4.9-2.2l2.6,2.6C220.4,263.5,218.3,264.8,214.7,264.8z M241.9,282c0,5.3-4.2,9.6-9.9,9.6c-5.7,0-9.8-4.3-9.8-9.5
		V282c0-5.3,4.2-9.6,9.9-9.6C237.8,272.4,241.9,276.6,241.9,282L241.9,282z M239.3,264.5l-1.7-4.2h-7.8l-1.7,4.2H224l4.4-10.3
		l3.6-8.4h3.8l3.6,8.4l4.4,10.3H239.3z M260.2,279.1c0,4.3-3.3,6.5-7.5,6.5h-3.1v5.6h-4.1v-18.5h7.6
		C257.5,272.7,260.2,275.3,260.2,279.1L260.2,279.1z M261.4,254.2v-8.2h4.1v8.2v10.3h-4.1V254.2z M277.3,291.2h-14.1v-18.5h14v3.6
		h-9.9v3.8h8.7v3.6h-8.7v3.9h10.1V291.2z M269.3,255.3L269.3,255.3c0-0.4,0-0.7,0.1-1.1c0.5-4.8,4.5-8.6,9.8-8.6
		c5.4,0,9.3,3.7,9.8,8.6c0,0.3,0,0.6,0,1v0.1c0,5.3-4.2,9.6-9.9,9.6C273.4,264.8,269.3,260.5,269.3,255.3z M292.2,291.2l-4-5.9h-0.1
		H285v5.9h-4.1v-18.5h8.5c2.4,0,4.2,0.7,5.4,1.9c1,1,1.6,2.5,1.6,4.2v0.1c0,3-1.6,4.9-4,5.7l4.5,6.6H292.2z M309.1,264.5h-3.5
		l-7.8-10.3l-1.1-1.5v1.5v10.3h-4v-10.3v-8.2h3.8l6.3,8.2l2.4,3.2v-3.2v-8.2h4v8.2V264.5z"/>
	<polygon class="st2" points="132.7,250.7 131.2,254.2 130.2,256.7 135.1,256.7 134.1,254.2 	"/>
	<path class="st2" d="M279.1,249.4c-2.9,0-5.1,2.1-5.5,4.8c0,0.3-0.1,0.6-0.1,1v0.1c0,3.2,2.3,5.8,5.6,5.8c3.3,0,5.6-2.6,5.6-5.8
		v-0.1c0-0.3,0-0.7-0.1-1C284.2,251.5,282,249.4,279.1,249.4z"/>
	<polygon class="st2" points="233.7,250.7 232.3,254.2 231.3,256.7 236.2,256.7 235.2,254.2 	"/>
	<path class="st2" d="M184.6,159.2L184.6,159.2c0-2.5-1.7-3.7-4.4-3.7h-5.6v7.3h5.7C183,162.8,184.6,161.3,184.6,159.2z"/>
	<path class="st2" d="M309.8,163.2L309.8,163.2c0-4.6-3.1-7.8-7.7-7.8h-4.4v15.4h4.4C306.7,170.9,309.8,167.8,309.8,163.2z"/>
	<path class="st2" d="M103.1,186.1h225.8v-49.2H103.1V186.1z M292.1,150.4h10c8,0,13.6,5.5,13.6,12.7v0.1c0,7.2-5.6,12.8-13.6,12.8
		h-10V150.4z M267.6,150.4h19.3v5h-13.7v5.2h12.1v5h-12.1v5.4h13.9v5h-19.5V150.4z M255.6,150.4h5.6V176h-5.6V150.4z M231.3,150.4
		h19.5v5.1h-13.9v5.4h12.2v5.1h-12.2v9.9h-5.6V150.4z M219.3,150.4h5.6V176h-5.6V150.4z M193.5,150.4h21.2v5.2h-7.8V176h-5.6v-20.4
		h-7.8V150.4z M168.9,150.4h11.7c3.3,0,5.8,0.9,7.5,2.6c1.4,1.4,2.2,3.4,2.2,5.8v0.1c0,4.1-2.2,6.7-5.5,7.9l6.3,9.1h-6.6l-5.5-8.2
		h-0.1h-4.4v8.2h-5.6V150.4z M144.4,150.4h19.3v5H150v5.2h12.1v5H150v5.4h13.9v5h-19.5V150.4z M116.3,163.2
		c0-7.3,5.5-13.2,13.3-13.2c4.8,0,7.7,1.6,10.1,3.9l-3.6,4.1c-2-1.8-4-2.9-6.5-2.9c-4.3,0-7.4,3.6-7.4,8v0.1c0,4.4,3,8,7.4,8
		c2.9,0,4.7-1.2,6.7-3l3.6,3.6c-2.6,2.8-5.6,4.6-10.5,4.6C121.9,176.4,116.3,170.6,116.3,163.2L116.3,163.2z"/>
	<path class="st1" d="M129.4,176.4c4.9,0,7.9-1.8,10.5-4.6l-3.6-3.6c-2,1.8-3.8,3-6.7,3c-4.4,0-7.4-3.7-7.4-8v-0.1
		c0-4.4,3.1-8,7.4-8c2.6,0,4.6,1.1,6.5,2.9l3.6-4.1c-2.4-2.3-5.3-3.9-10.1-3.9c-7.9,0-13.3,6-13.3,13.2v0.1
		C116.3,170.6,121.9,176.4,129.4,176.4z"/>
	<polygon class="st1" points="163.9,170.9 150,170.9 150,165.6 162.1,165.6 162.1,160.6 150,160.6 150,155.4 163.7,155.4 
		163.7,150.4 144.4,150.4 144.4,176 163.9,176 	"/>
	<path class="st1" d="M174.6,167.8h4.4h0.1l5.5,8.2h6.6l-6.3-9.1c3.3-1.2,5.5-3.8,5.5-7.9v-0.1c0-2.4-0.8-4.4-2.2-5.8
		c-1.7-1.7-4.2-2.6-7.5-2.6h-11.7V176h5.6V167.8z M174.6,155.4h5.6c2.7,0,4.4,1.2,4.4,3.7v0.1c0,2.2-1.6,3.6-4.3,3.6h-5.7V155.4z"/>
	<polygon class="st1" points="201.3,176 206.9,176 206.9,155.6 214.7,155.6 214.7,150.4 193.5,150.4 193.5,155.6 201.3,155.6 	"/>
	<rect x="219.3" y="150.4" class="st1" width="5.6" height="25.6"/>
	<polygon class="st1" points="236.9,166 249.2,166 249.2,160.9 236.9,160.9 236.9,155.5 250.8,155.5 250.8,150.4 231.3,150.4 
		231.3,176 236.9,176 	"/>
	<rect x="255.6" y="150.4" class="st1" width="5.6" height="25.6"/>
	<polygon class="st1" points="287.1,170.9 273.2,170.9 273.2,165.6 285.2,165.6 285.2,160.6 273.2,160.6 273.2,155.4 286.9,155.4 
		286.9,150.4 267.6,150.4 267.6,176 287.1,176 	"/>
	<path class="st1" d="M315.7,163.2L315.7,163.2c0-7.3-5.6-12.8-13.6-12.8h-10V176h10C310.1,176,315.7,170.4,315.7,163.2z
		 M297.7,155.4h4.4c4.6,0,7.7,3.2,7.7,7.7v0.1c0,4.5-3.1,7.6-7.7,7.6h-4.4V155.4z"/>
	<path class="st1" d="M299.1,208.6c-0.3-0.4-0.7-0.7-1.2-1c-0.5-0.2-1.1-0.4-1.8-0.4c-0.7,0-1.3,0.1-1.8,0.4
		c-0.5,0.2-0.9,0.5-1.2,0.9c-0.3,0.4-0.6,0.8-0.8,1.3c-0.2,0.5-0.3,1-0.4,1.6h8.2c0-0.5-0.1-1-0.3-1.5
		C299.7,209.4,299.4,209,299.1,208.6z"/>
	<path class="st1" d="M191.2,208.6c-0.3-0.4-0.7-0.7-1.2-1c-0.5-0.2-1.1-0.4-1.8-0.4c-0.7,0-1.3,0.1-1.8,0.4
		c-0.5,0.2-0.9,0.5-1.2,0.9c-0.3,0.4-0.6,0.8-0.8,1.3c-0.2,0.5-0.3,1-0.4,1.6h8.2c0-0.5-0.1-1-0.3-1.5
		C191.7,209.4,191.5,209,191.2,208.6z"/>
	<path class="st1" d="M257.3,208.6c-0.3-0.4-0.7-0.7-1.2-1c-0.5-0.2-1.1-0.4-1.8-0.4c-0.7,0-1.3,0.1-1.8,0.4
		c-0.5,0.2-0.9,0.5-1.2,0.9c-0.3,0.4-0.6,0.8-0.8,1.3c-0.2,0.5-0.3,1-0.4,1.6h8.2c0-0.5-0.1-1-0.3-1.5
		C257.9,209.4,257.6,209,257.3,208.6z"/>
	<path class="st1" d="M159.8,219.6c0.3,0.1,0.7,0.1,1.2,0.1c0.5,0,1,0.1,1.5,0.1c1.7,0,3-0.6,3.8-1.7c0.9-1.2,1.3-2.7,1.3-4.6
		c0-4-1.5-6-4.4-6c-0.6,0-1.3,0.1-1.9,0.2c-0.6,0.2-1.1,0.4-1.5,0.6V219.6z"/>
	<path class="st2" d="M105.6,193.4v31.2h6.2V215c0.7,0.6,1.4,1.2,2.1,2c0.7,0.8,1.4,1.6,2,2.5c0.6,0.9,1.2,1.7,1.8,2.6
		c0.6,0.9,1.1,1.7,1.5,2.4h7.1c-0.5-0.9-1.1-1.9-1.7-3c-0.7-1.1-1.5-2.2-2.3-3.3s-1.7-2.2-2.6-3.2c-0.9-1-1.7-1.9-2.6-2.7
		c1.7-1.6,3.2-3.2,4.6-4.7c1.4-1.5,2.8-3.1,4.3-4.8h-7.3c-0.4,0.5-0.8,1-1.4,1.6c-0.5,0.6-1.1,1.3-1.7,2c-0.6,0.7-1.2,1.4-1.9,2.1
		c-0.6,0.7-1.3,1.4-1.9,2.1v-18.2L105.6,193.4z"/>
	<path class="st2" d="M129,202.8v12.1c0,1.5,0.2,2.9,0.5,4.1c0.3,1.2,0.8,2.3,1.5,3.2c0.7,0.9,1.7,1.6,2.9,2.1
		c1.2,0.5,2.8,0.7,4.6,0.7c1.8,0,3.6-0.1,5.2-0.4s3-0.5,4.1-0.8v-21.1h-6.2v16.8c-0.4,0.1-0.8,0.1-1.3,0.1c-0.5,0-1,0.1-1.4,0.1
		c-1.4,0-2.4-0.4-2.9-1.3c-0.5-0.9-0.8-2.3-0.8-4.3v-11.4H129z"/>
	<path class="st2" d="M153.7,193.4v30.5c0.6,0.2,1.2,0.3,1.9,0.5c0.7,0.2,1.5,0.3,2.3,0.4c0.8,0.1,1.6,0.2,2.4,0.3
		c0.8,0.1,1.6,0.1,2.3,0.1c1.8,0,3.4-0.3,4.8-0.8s2.6-1.3,3.6-2.3c1-1,1.7-2.2,2.2-3.6c0.5-1.4,0.8-3,0.8-4.7c0-1.7-0.2-3.3-0.6-4.7
		c-0.4-1.4-1-2.6-1.8-3.6c-0.8-1-1.8-1.8-3-2.3c-1.2-0.5-2.6-0.8-4.1-0.8c-0.9,0-1.7,0.1-2.4,0.2c-0.7,0.2-1.5,0.4-2.2,0.7v-10.9
		L153.7,193.4z M161.3,207.8c0.6-0.2,1.3-0.2,1.9-0.2c2.9,0,4.4,2,4.4,6c0,1.9-0.4,3.4-1.3,4.6c-0.9,1.2-2.1,1.7-3.8,1.7
		c-0.6,0-1.1,0-1.5-0.1c-0.5,0-0.9-0.1-1.2-0.1v-11.2C160.2,208.1,160.7,207.9,161.3,207.8z"/>
	<path class="st2" d="M198.1,214.6c0-0.4,0-0.8,0-1.2c0-3.7-0.9-6.5-2.7-8.4c-1.8-1.9-4.2-2.8-7.3-2.8c-1.3,0-2.6,0.2-3.9,0.7
		c-1.3,0.5-2.4,1.2-3.3,2.2c-1,1-1.7,2.2-2.3,3.6c-0.6,1.5-0.9,3.1-0.9,5.1c0,1.6,0.2,3.1,0.7,4.5s1.2,2.6,2.1,3.6s2.2,1.8,3.6,2.4
		c1.5,0.6,3.2,0.9,5.1,0.9c0.8,0,1.5,0,2.3-0.1c0.8-0.1,1.5-0.2,2.2-0.3c0.7-0.1,1.3-0.3,1.8-0.4c0.6-0.2,1-0.3,1.3-0.5l-0.8-5
		c-0.7,0.3-1.6,0.6-2.7,0.8c-1.1,0.2-2.2,0.3-3.3,0.3c-1.8,0-3.2-0.4-4.2-1.1c-1.1-0.7-1.6-1.8-1.8-3h14
		C198,215.4,198.1,215,198.1,214.6z M184,211.5c0.1-0.5,0.2-1,0.4-1.6c0.2-0.5,0.4-1,0.8-1.3c0.3-0.4,0.7-0.7,1.2-0.9
		c0.5-0.2,1.1-0.4,1.8-0.4c0.7,0,1.3,0.1,1.8,0.4c0.5,0.2,0.9,0.6,1.2,1c0.3,0.4,0.6,0.8,0.7,1.3c0.2,0.5,0.2,1,0.3,1.5H184z"/>
	<path class="st2" d="M213.1,202.4c-0.5,0-0.9-0.1-1.2-0.1c-1.9,0-3.5,0.2-5,0.5c-1.5,0.3-2.8,0.7-3.9,1.1v20.6h6.2v-16.7
		c0.3-0.1,0.7-0.2,1.2-0.2s1-0.1,1.4-0.1c0.9,0,1.7,0.1,2.4,0.2c0.7,0.2,1.4,0.3,1.9,0.4l1-5.1c-0.3-0.1-0.7-0.3-1.2-0.4
		c-0.5-0.1-0.9-0.2-1.4-0.2C214,202.5,213.5,202.4,213.1,202.4z"/>
	<path class="st2" d="M239.2,224.6v-12.3c0-1.5-0.2-2.8-0.5-4.1c-0.3-1.2-0.8-2.3-1.5-3.2s-1.7-1.6-2.9-2.1s-2.8-0.7-4.6-0.7
		c-1.8,0-3.6,0.1-5.2,0.4s-3,0.5-4.1,0.8v21.1h6.2v-16.8c0.4-0.1,0.8-0.1,1.3-0.1c0.5,0,1-0.1,1.4-0.1c1.4,0,2.4,0.4,2.9,1.2
		c0.5,0.8,0.8,2.2,0.8,4.2v11.6H239.2z"/>
	<path class="st2" d="M264.2,214.6c0-0.4,0-0.8,0-1.2c0-3.7-0.9-6.5-2.7-8.4s-4.2-2.8-7.3-2.8c-1.3,0-2.6,0.2-3.9,0.7
		c-1.3,0.5-2.4,1.2-3.3,2.2c-1,1-1.7,2.2-2.3,3.6c-0.6,1.5-0.9,3.1-0.9,5.1c0,1.6,0.2,3.1,0.7,4.5s1.2,2.6,2.1,3.6
		c1,1,2.2,1.8,3.6,2.4c1.5,0.6,3.2,0.9,5.1,0.9c0.8,0,1.5,0,2.3-0.1s1.5-0.2,2.2-0.3c0.7-0.1,1.3-0.3,1.8-0.4s1-0.3,1.3-0.5l-0.8-5
		c-0.7,0.3-1.6,0.6-2.7,0.8c-1.1,0.2-2.2,0.3-3.3,0.3c-1.8,0-3.2-0.4-4.2-1.1c-1.1-0.7-1.6-1.8-1.8-3h14
		C264.2,215.4,264.2,215,264.2,214.6z M250.1,211.5c0.1-0.5,0.2-1,0.4-1.6c0.2-0.5,0.4-1,0.8-1.3c0.3-0.4,0.7-0.7,1.2-0.9
		c0.5-0.2,1.1-0.4,1.8-0.4c0.7,0,1.3,0.1,1.8,0.4c0.5,0.2,0.9,0.6,1.2,1c0.3,0.4,0.6,0.8,0.7,1.3c0.2,0.5,0.2,1,0.3,1.5H250.1z"/>
	<path class="st2" d="M268.8,197.3v18.3c0,1.4,0.1,2.7,0.4,3.9c0.3,1.2,0.7,2.1,1.4,3c0.7,0.8,1.5,1.5,2.7,1.9
		c1.1,0.5,2.5,0.7,4.2,0.7c1.3,0,2.4-0.1,3.4-0.3s1.7-0.5,2.5-0.8l-0.9-4.8c-0.6,0.2-1.2,0.4-1.9,0.5c-0.7,0.1-1.4,0.2-2.1,0.2
		c-1.4,0-2.3-0.4-2.8-1.2s-0.7-1.8-0.7-3.1v-7.7h7.4v-5.1H275v-6.4L268.8,197.3z"/>
	<path class="st2" d="M306,214.6c0-0.4,0-0.8,0-1.2c0-3.7-0.9-6.5-2.7-8.4s-4.2-2.8-7.3-2.8c-1.3,0-2.6,0.2-3.9,0.7
		c-1.3,0.5-2.4,1.2-3.3,2.2c-1,1-1.7,2.2-2.3,3.6c-0.6,1.5-0.9,3.1-0.9,5.1c0,1.6,0.2,3.1,0.7,4.5s1.2,2.6,2.1,3.6
		c1,1,2.2,1.8,3.6,2.4c1.5,0.6,3.2,0.9,5.1,0.9c0.8,0,1.5,0,2.3-0.1s1.5-0.2,2.2-0.3c0.7-0.1,1.3-0.3,1.8-0.4s1-0.3,1.3-0.5l-0.8-5
		c-0.7,0.3-1.6,0.6-2.7,0.8c-1.1,0.2-2.2,0.3-3.3,0.3c-1.8,0-3.2-0.4-4.2-1.1c-1.1-0.7-1.6-1.8-1.8-3h14
		C306,215.4,306,215,306,214.6z M291.9,211.5c0.1-0.5,0.2-1,0.4-1.6c0.2-0.5,0.4-1,0.8-1.3c0.3-0.4,0.7-0.7,1.2-0.9
		c0.5-0.2,1.1-0.4,1.8-0.4c0.7,0,1.3,0.1,1.8,0.4c0.5,0.2,0.9,0.6,1.2,1c0.3,0.4,0.6,0.8,0.7,1.3c0.2,0.5,0.2,1,0.3,1.5H291.9z"/>
	<path class="st2" d="M319.5,219.8c-0.5,0.2-1.3,0.3-2.4,0.3c-1.1,0-2.2-0.1-3.3-0.4c-1.1-0.2-2.2-0.6-3.2-1l-1,5
		c0.5,0.2,1.4,0.5,2.7,0.8s2.9,0.5,4.8,0.5c3,0,5.2-0.6,6.9-1.7c1.6-1.1,2.4-2.7,2.4-4.9c0-0.9-0.1-1.7-0.3-2.4
		c-0.2-0.7-0.6-1.3-1.1-1.9c-0.5-0.6-1.2-1.1-2.1-1.6c-0.9-0.5-2-1-3.4-1.5c-0.7-0.2-1.2-0.5-1.6-0.7s-0.8-0.4-1-0.6
		c-0.2-0.2-0.4-0.4-0.5-0.6s-0.1-0.4-0.1-0.7c0-1.1,1-1.6,2.9-1.6c1,0,2,0.1,2.8,0.3s1.6,0.4,2.3,0.7l1.1-4.8
		c-0.7-0.3-1.7-0.5-2.9-0.8c-1.2-0.2-2.5-0.4-3.8-0.4c-2.7,0-4.7,0.6-6.3,1.8c-1.5,1.2-2.3,2.8-2.3,4.9c0,1.1,0.2,1.9,0.5,2.7
		c0.3,0.7,0.7,1.4,1.3,1.9c0.6,0.5,1.2,1,2,1.4s1.7,0.8,2.6,1.1c1.2,0.5,2.2,0.9,2.8,1.3c0.6,0.4,0.9,0.8,0.9,1.3
		C320.2,219.1,320,219.6,319.5,219.8z"/>
	<path class="st1" d="M138.3,264.5h4.3l-4.4-10.3l-3.6-8.4h-3.8l-3.6,8.4l-4.4,10.3h4.2l1.7-4.2h7.8L138.3,264.5z M130.2,256.7
		l1-2.5l1.4-3.5l1.4,3.5l1,2.5H130.2z"/>
	<path class="st1" d="M159.8,254.2c0.1-0.5,0.2-1.1,0.2-1.8v-0.1c0-3.8-2.7-6.4-7.1-6.4h-7.6v8.2v10.3h4.1v-5.6h3.1
		C156.1,258.9,159,257.3,159.8,254.2z M149.5,254.2v-4.6h3.2c2,0,3.3,1,3.3,2.8v0.1c0,0.7-0.2,1.2-0.6,1.7c-0.5,0.7-1.4,1.1-2.6,1.1
		h-3.2V254.2z"/>
	<path class="st1" d="M177.5,254.2c0.1-0.5,0.2-1.1,0.2-1.8v-0.1c0-3.8-2.7-6.4-7.1-6.4h-7.6v8.2v10.3h4.1v-5.6h3.1
		C173.8,258.9,176.7,257.3,177.5,254.2z M167.1,254.2v-4.6h3.2c2,0,3.3,1,3.3,2.8v0.1c0,0.7-0.2,1.2-0.6,1.7
		c-0.5,0.7-1.4,1.1-2.6,1.1h-3.2V254.2z"/>
	<polygon class="st1" points="194.1,264.5 194.1,260.8 184.8,260.8 184.8,254.2 184.8,245.9 180.7,245.9 180.7,254.2 180.7,264.5 	
		"/>
	<polygon class="st1" points="201.4,264.5 201.4,254.2 201.4,245.9 197.3,245.9 197.3,254.2 197.3,264.5 	"/>
	<path class="st1" d="M219.7,258.9c-1.5,1.3-2.8,2.2-4.9,2.2c-3.2,0-5.4-2.6-5.4-5.8v-0.1c0-0.3,0-0.7,0.1-1
		c0.4-2.7,2.5-4.8,5.3-4.8c1.9,0,3.3,0.8,4.7,2.1l2.6-3c-1.7-1.7-3.8-2.9-7.3-2.9c-5.3,0-9.1,3.8-9.6,8.6c0,0.3-0.1,0.7-0.1,1v0.1
		c0,5.3,4,9.5,9.5,9.5c3.6,0,5.7-1.3,7.6-3.3L219.7,258.9z"/>
	<path class="st1" d="M235.7,245.8h-3.8l-3.6,8.4l-4.4,10.3h4.2l1.7-4.2h7.8l1.7,4.2h4.3l-4.4-10.3L235.7,245.8z M231.3,256.7l1-2.5
		l1.4-3.5l1.4,3.5l1,2.5H231.3z"/>
	<polygon class="st1" points="248.4,254.2 248.4,264.5 252.5,264.5 252.5,254.2 252.5,249.7 258.1,249.7 258.1,245.9 242.8,245.9 
		242.8,249.7 248.4,249.7 	"/>
	<polygon class="st1" points="265.5,254.2 265.5,245.9 261.4,245.9 261.4,254.2 261.4,264.5 265.5,264.5 	"/>
	<path class="st1" d="M289,255.2L289,255.2c0-0.4,0-0.7,0-1c-0.5-4.8-4.4-8.6-9.8-8.6c-5.3,0-9.3,3.8-9.8,8.6c0,0.3-0.1,0.7-0.1,1
		v0.1c0,5.3,4.1,9.5,9.8,9.5C284.8,264.8,289,260.5,289,255.2z M284.7,255.3c0,3.2-2.3,5.8-5.6,5.8c-3.3,0-5.6-2.6-5.6-5.8v-0.1
		c0-0.3,0-0.7,0.1-1c0.4-2.7,2.5-4.8,5.5-4.8c2.9,0,5.1,2.1,5.5,4.8C284.7,254.5,284.7,254.9,284.7,255.3L284.7,255.3z"/>
	<polygon class="st1" points="305.1,245.9 305.1,254.2 305.1,257.3 302.6,254.2 296.4,245.9 292.6,245.9 292.6,254.2 292.6,264.5 
		296.6,264.5 296.6,254.2 296.6,252.7 297.8,254.2 305.6,264.5 309.1,264.5 309.1,254.2 309.1,245.9 	"/>
	<path class="st1" d="M138.9,272.7h-7.2v18.5h7.2c5.8,0,9.8-4,9.8-9.3v-0.1C148.7,276.7,144.7,272.7,138.9,272.7z M144.5,282
		c0,3.3-2.2,5.5-5.6,5.5h-3.2v-11.2h3.2C142.2,276.4,144.5,278.7,144.5,282L144.5,282z"/>
	<polygon class="st1" points="156.4,283.7 165.2,283.7 165.2,280.1 156.4,280.1 156.4,276.3 166.3,276.3 166.3,272.7 152.4,272.7 
		152.4,291.2 166.5,291.2 166.5,287.6 156.4,287.6 	"/>
	<polygon class="st1" points="177.9,285.7 173,272.7 168.5,272.7 176,291.4 179.6,291.4 187.1,272.7 182.7,272.7 	"/>
	<polygon class="st1" points="194,283.7 202.7,283.7 202.7,280.1 194,280.1 194,276.3 203.9,276.3 203.9,272.7 189.9,272.7 
		189.9,291.2 204.1,291.2 204.1,287.6 194,287.6 	"/>
	<polygon class="st1" points="211.8,272.7 207.7,272.7 207.7,291.2 221,291.2 221,287.5 211.8,287.5 	"/>
	<path class="st1" d="M232.1,272.4c-5.7,0-9.9,4.3-9.9,9.6v0.1c0,5.3,4.1,9.5,9.8,9.5c5.7,0,9.9-4.3,9.9-9.6v-0.1
		C241.9,276.6,237.8,272.4,232.1,272.4z M237.6,282c0,3.2-2.3,5.8-5.6,5.8c-3.3,0-5.6-2.6-5.6-5.8v-0.1c0-3.2,2.3-5.8,5.6-5.8
		C235.3,276.1,237.6,278.8,237.6,282L237.6,282z"/>
	<path class="st1" d="M253.1,272.7h-7.6v18.5h4.1v-5.6h3.1c4.2,0,7.5-2.2,7.5-6.5v-0.1C260.2,275.3,257.5,272.7,253.1,272.7z
		 M256,279.2c0,1.6-1.2,2.8-3.2,2.8h-3.2v-5.7h3.1C254.8,276.4,256,277.3,256,279.2L256,279.2z"/>
	<polygon class="st1" points="267.2,283.7 276,283.7 276,280.1 267.2,280.1 267.2,276.3 277.2,276.3 277.2,272.7 263.2,272.7 
		263.2,291.2 277.3,291.2 277.3,287.6 267.2,287.6 	"/>
	<path class="st1" d="M296.4,278.9L296.4,278.9c0-1.8-0.6-3.3-1.6-4.3c-1.2-1.2-3-1.9-5.4-1.9h-8.5v18.5h4.1v-5.9h3.1h0.1l4,5.9h4.8
		l-4.5-6.6C294.8,283.7,296.4,281.8,296.4,278.9z M292.2,279.1c0,1.6-1.1,2.6-3.1,2.6H285v-5.3h4C291,276.4,292.2,277.3,292.2,279.1
		L292.2,279.1z"/>
</g>
</svg>
