<svg xmlns="http://www.w3.org/2000/svg" role="img" viewBox="-2.25 -2.38 117.13 35.13"><style>.st2{fill:#fff}</style><style>.st2{fill:#fff}</style><style>.st2{fill:#fff}</style><style>.st2{fill:#fff}</style><style id="style2">.st2{fill:#fff}</style><path id="path2" fill="#fff" d="M101.23828-.02648c-.06406-.0047-.11367.00234-.13867.02734-.1.1-.1.29844 0 .39844.4.1.7.3 1 .5l.09961.10156h-.39844c-.6 0-1.20078-.0004-1.80078.0996-.2 0-.3.09962-.5.09962-.5.1-.9004.19922-1.4004.19922-.19999 0-.3.00156-.5.10156-.1.1-.0992.19922-.1992.19922-.1 0-.7004.20078-.9004.30078-.3.1-.60078.2-.80078.5-.3.2-1.09922.69844-1.19922.89844-.1 0-.20078.00156-.30078.10156-.4.3-.79961.6-1.09961 1-.3.3-.49922.59844-.69922.89844l-.20117.30078c-.4.6-.8 1.20039-1 1.90039 0 .2-.19844 1.20039.10156.90039 0-.2.09883-.3004.29883-.4004 0 .1-.09961.19923-.09961.19923 0 .1.0996.20078.0996.30078s-.0992.30039-.1992.40039l-.3008 1.19922c-.1.5-.1.9996 0 1.5996H91c-.1.1-.19922.3004-.19922.4004 0 .3-.10156.50039-.10156.40039 0-.4-.09922-.69961-.19922-1.09961-.2-.3-.19922-.70156-.19922-1.10156 0-.2.09961-.49922.09961-.69922v-.59961c0-.4.09961-1.3004.09961-1.4004.1-.4.60039-1.1.4004-1.5-.2-.4-.4-.00038-.5.09962-.1.1-.20118.20078-.20118.30078-.2.6-.29844 1.2004-.39844 1.90039-.1.5-.10117 1-.20117 1.5v1.5996c0 .1.20117.7.20117 1 0 .5.69961 1.8004.59961 1.9004-.1.1-.1.29844 0 .39844.4 1.2.99883 2.40039 1.79883 3.40039.2.2.9 1.10117 1 1.20117.1.1.20117.19844.20117.39844l.09961.10156 1.80078-2.30078c.7-.9 1.09922-1.1 1.69922-2 .5-.6 1.0004-1.50078 1.4004-1.30078.19999.1.20038.10078.40038.30078s.09922.6-.30078 1c-.7.9-1.10078 1.40078-1.80078 2.30078l-1.19922 1.5.4004.19922v.19922c0 .1.09882.30078.29882.30078.6.4 1.2004.70039 1.90039.90039l.5996.0996c.4.1.30118.3004.70118.4004.1 0 .19883.19883.29883.29883-.6.2-.99922-.39961-1.19922-.09961-.1.1-.1.3 0 .5-.1 0-.3004-.09961-.4004-.09961-.1-.1-.30038-.20078-.40038-.30078L97.5 21.79969l-.0996-.09961c-.2-.2-.5008-.4-.8008-.5-.1 0-.3-.3004-.5-.4004-.39999-.2-.60038-.4-.90038-.5l-.39844.4004c.2.2.49922.3996.69922.5996.4.3.69961.6004 1.0996.9004.3.2.70001.4 1 .5l.3008.0996c.29999.1.49921.2004.6992.4004.1.1.7008.20078.8008.30078.29999.3 1.59921.29883 1.19921-.20117-.2-.2-.49883-.4-.79883-.5H102.5c.2.1.7-.19883 1-.29883.3-.1.80039-.10117.90039-.20117.1-.1 1.2-.4004 1.5-.4004.1 0 .09922.0004.19922-.0996l.59961-.29883c.5-.1.70117-.3004 1.20117-.4004.1 0 .29883-.10116.29883-.20116v-.19922c0-.1.10117-.09961.20117-.09961.5-.2 1.19883-.49961 1.29883-1.09961 0-.2-.09883-.30117-.29883-.20117-.3.2-.50039.4-.90039.5l.09961-.09961.40039-.4004c.1-.1.4-.3996.5-.5996.1-.2.39961-.39961.59961-.59961.2-.2.30039-.3.40039-.5.3-.6.69922-1.1 1.19922-1.5.2-.2.4-.50078.5-.80078.1-.3.2-.49922.5-.69922 0-.3.00039-.8004-.09961-.9004-.1-.1-.4.1004-.5.4004-.1.4-.29961.7004-.59961.90039-.2.1.2-.7 0-1-.2-.3-.30039-.2004-.40039.0996-.17781.62235-.43949 1.24091-.77539 1.79298.09389-.22588.17578-.44124.17578-.49414.2-.5.30039-1 .40039-1.5 0-.3.09961-.59844.09961-.89844l.19922-.5v1.19922c.1.1.4.10039.5-.09961.1-.2.20117-.40117.20117-.70117.1-1.2.09883-2.4-.20117-3.5-.2-.9-.6-1.7-1-2.5-.7-1.1-1.09922-2.5-1.19922-2.5-.1 0-.09961-.29844-.09961-.39844-.2-.3-.40117-.6004-.70117-.9004-.2-.2-1.29922-.79999-.69922 0 .2.2.30039.39923.40039.69923-.2-.1-.4-.39961-.5-.59961-.2-.2-.39961-.3004-.59961-.4004-.2-.1-.40117-.19882-.70117-.29882-.3-.1-.39961-.20078-.59961-.30078-.2-.1-.4-.2004-.5-.4004-.2-.1-.49922-.1-.69922 0h-.10156l-.09961-.0996v-.09961c-.1-.1-.20039-.20117-.40039-.20117l-.29883-.19922c-.3-.2-.7-.49922-1-.69922-.3-.2-.6-.4004-1-.4004-.15 0-.46992-.11288-.66211-.12694zm-1.9375 1.82617h1.39844c-.1 0-.09922.10117-.19922.20117-.3 0-.6004-.0004-.9004.0996l-.5.09962c-.49999.1-.90038.20078-1.40038.30078H97.5l.5-.30078c.4-.2.90078-.4004 1.30078-.4004zm1.66992 2.17969c.15313-.00958.22852.2207.22852.2207v.0996c-.1 1.3-.1 2.6008 0 3.80079v2.19922c0 .5.60156 0 .60156 0l.09961-.09961c.3-.4.60039-.7.90039-1 .2-.3 1.8-2.60078 2-2.80078.3-.4.49883-.49844.79883-.89844 0-.1.20078-.20117.30078-.20117s.19922.10117.19922.20117v.29883l-.59961.90039c-.2.3-1.89961 2.7-2.09961 3-.1.2-.30039.3996-.40039.5996-.2.2-.70078.40079-.80078.80079-.1.4.2.6.5.5.3-.1.9-.30078 1-.30078 1-.3 3.60156-1.09883 4.60156-1.29883H108.5c.1 0 .19922-.0004.19922.0996v.19923c-.1.2-.39922.4-.69922.5-.6.1-2.59961 1-3.09961 1-.3 0-.60039.10117-.90039.20117-.2.1-.89961.09922-1.09961.19922-.1.1-.40039-.00078-.40039.19922s.30039.40156.40039.60156c.1.2.69883.59922.79883.69922.1.1.30156.29922.60156.69922.1.1.19883.20039.29883.40039.1.2.30039.30039.40039.40039.9.9.99922 1.10078 1.19922 1.30078.2.2.3.3996.5.5996 0 .1.00039.29884-.09961.29884-.1.1-.30039.10156-.40039.10156-.2 0-.4-.10117-.5-.20117-.4-.4-.39883-.19922-.79883-.69922-.2-.2-.2-.30118-1-1.20117-.1-.1-.5-.49961-.5-.59961 0-.1-.30039-.3004-.40039-.4004-.2-.3-.49922-.49882-.69922-.79882-.1-.1-.30039-.20078-.40039-.30078-.4-.1-.80078.50117-.80078.70117-.1.5-.09961.89844-.09961 1.39844.1.8.1 1.60039 0 2.40039v1.30078c0 .1-.09961.19883-.09961.29883l-.09961.10156c-.1.1-.40039-.00156-.40039-.10156-.1-.2-.20117-.3-.20117-.5 0-.6.00156-3.79961.10156-4.59961.1-.2.09961-.49922.09961-.69922 0 0 .2-.50078 0-.80078-.2-.3-.60078-.09961-.80078-.09961-.2 0-.99883.10078-1.79883.30078-1.1.2-3.1004.8-3.90039.5 0-.1-.0996-.10156-.0996-.10156-.1-.2-.1-.4 0-.5.1-.2.29843-.29844.39843-.39844.3-.1.6004-.20156.90039-.10156.4 0 3.9-.59961 4-.59961.3-.1.50117-.2004.70117-.4004.2-.2-.60156-.79882-.60156-.79882s.10117.10039-.79883-.59961c-.1-.2-.3996-.4-.5996-.5-.3-.3-.60079-.50078-.80079-.80078-.3-.2-.7004-.49922-.9004-.69922-.19999-.2-.19999-.50117 0-.70117.1-.1.30001-.19961.5-.09961.3.2.5008.39922.8008.69922.19999.2.70038.70078 1.40038 1.30078.9.7.89922.8996 1.19922 1.0996.1.1.30039.20079.40039.30079.2.1.09961-.4.09961-.5 0-.4-.09961-.69961-.09961-1.09961-.1-.5-.20117-3.20117-.20117-3.70117 0-.3.00117-.7.20117-1 .1-.2.3-.29883.5-.29883.025-.0125.04844-.02012.07031-.02149zm-5.16601.19726a1.0445 1.0445 0 0 1 .14062 0c.05254.00352.1043.01094.1543.02344-.1.1-.19883.09922-.29883.19922-.2.2-.50078.40156-.80078.60156-.1 0-.30078.09922-.30078.19922s-.4.20078-.5.30078c-.3.2-.49922.39922-.69922.69922-.2.3-.3.50078-.5.80078l-.5996 1.19922v-.19922c0-.4.09882-.90117.29882-1.20117.1-.2.3-.49922.5-.69922l.20117-.30078.19922-.19922c.4-.4.80078-.7 1.30078-1 .22969-.22969.57496-.40114.9043-.42383zm12.79492 1.02344c.4.2.70039.6.90039 1v.5l-.19922-.4004c-.3-.4-.50117-.6996-.70117-1.0996zm-5.83203.16015c.03906.00157.08281.01407.13281.03907.2.1.4.20039.5.40039.1.2.1.3996 0 .5996s-.39961.30118-.59961.20118c0 0-.10156.00039-.10156-.09961-.2-.2-.29922-.5004-.19922-.9004.075-.15.15039-.24491.26758-.24023zm-4.4668 1.43946h.59961c.1.1.19922.20078.19922.30078.1.1.1.19883 0 .29883-.2.2-.39961.30117-.59961.20117-.2-.1-.4004-.2004-.4004-.4004-.1-.2.10118-.40038.20118-.40038zm7.89844 1.52539c.075 0 .15117.02422.20117.07422l.29883.30078c.1.2.10039.4996-.09961.5996-.1 0-.19883.09962-.29883.09962-.3-.1-.60117-.2-.70117-.5v-.19922c.1-.2.30039-.30078.40039-.30078.05-.05.12422-.07422.19922-.07422zm-10.17578 1.81054c.07265.0041.13828.02696.17578.06446.2.1.30078.3.30078.5 0 0 .0004.0996-.0996.0996l-.09962.09962-.20117.20117c-.1.1-.19883 0-.29883 0-.1 0-.20078-.10117-.30078-.20117-.1-.2-.00078-.49961.19922-.59961.0625-.125.20312-.1709.32422-.16407zm-4.62305 2.76368c0 .1.09961.20078.09961.30078s.3 1.30039.5 1.90039c.1.2.09922.3.19922.5.2.4.4.4004.5.90039.2.4.40156.7.60156 1 .1.1.19922.19844.19922.39844-.6-.5-1.0004-1.09922-1.4004-1.69922-.1-.3-.1992-.50078-.1992-.80078l-.09962-.39844-.10156-.20117c-.1-.5-.29844-1-.39844-1.5 0-.1-.00039-.3004.09961-.4004zm15.00977.36132c.03437.00157.06484.01407.08984.03907.2 0 .40039.2.40039.5 0 .1-.09961.20117-.09961.20117-.2.2-.60117.09844-.70117-.10156-.1-.1-.1-.29844 0-.39844.075-.15.20742-.24492.31055-.24024zm-3.60938 2.74024c.1 0 .4-.00078.5.19922.2.2.29922.50078.19922.80078 0 .1-.09922.19883-.19922.29883-.2.1-.40156.0996-.60156.0996-.2-.1-.29883-.19843-.29883-.39843-.1-.6.10039-.9.40039-1zM105 20.8993c.1 0 .20039.00156.40039.10156h.5c-.2.1-.4.19922-.5.19922-.3.1-.7.19922-1 .19922-.7.4-1.60039.40156-2.40039.10156 0-.1.09922-.10156.19922-.10156.1-.1.3 0 .5 0 .3 0 .60078.00078.80078-.19922.3-.1 1.4-.30078 1.5-.30078z"/><path id="path5" fill="none" d="M39.4 23.4c1-1.1 1.6-2.5 1-2.8s-1.4.4-2 1.6c-.4.7-.7 1.6-.8 2.4v.5c.6-.5 1.3-1 1.8-1.7zm-7.3-2.3c-.6 0-1.2.2-1.7.5-1 .5-1.7 1.4-1.8 2.5 1.2-.1 2.4-.5 3.4-1.2 1.2-.8.6-1.8.1-1.8zm26.9-.3c-1-1.3-3.7 1.4-3.9 1.6-.1.9-.2 1.4-.2 2.3-.1 1.9.2 3.1.5 3.2.7.4 2.2-.8 3.5-3 .8-1.2.8-2.8.1-4.1zm15.8-9.3c-.6-.4-1.6.4-2 3.7-.1.8-.2 1.6-.3 2.7-.1.8-.1 4.2-.1 5 1.4-1.8 2.4-4 2.8-6.3.6-3.7-.1-4.8-.4-5.1z"/><path id="path6" d="M13.5 19.4c.6-.5.1-1.2-.3-1.5s-.8-.5-1.2.2c-.1.4 0 .8.3 1.1.4.3.8.3 1.2.2z" class="st2"/><path id="path7" d="M87.4 26.2c-.1-.2-.4-.3-.6-.2l-.1.1c-.6.6-1.3 1-2.1 1.4-.9.5-2.1.3-2.8-.4-.6-.7-.9-1.6-.9-2.5 1.3-1.8 2.3-3.8 3.1-5.9.6-1.7.9-3.4.9-5.2 0-1.7-.7-3.4-1.9-3.5-1.2-.3-2.4.4-2.8 1.6v.1c-.6 2.1-.9 4.3-.9 6.5-.1 1.8 0 3.6.1 5.4-.3.9-.7 1.8-1.3 2.6-2.5 3.9-4.8.9-5.3-1.3 1.5-1.9 2.7-4.1 3.5-6.4.4-1.6.6-3.2.7-4.8 0-1.2-.8-3.3-2-3.5-1.2-.3-2.4.3-2.8 1.5v.1c-.7 2-1 4-1 6.1 0 2 0 3.9.2 5.9-.6 1.3-1.4 2.4-2.3 3.4-.5.5-1.2.9-1.9.9-1.2.1-2.2-.6-2.7-1.7 1-.7 1.9-1.4 2.8-2.2 1-.8 1.5-2 1.5-3.2-.2-1.3-1.5-2.1-2.7-1.8-.1 0-.2 0-.3.1-1.2.3-2.2 1.2-2.5 2.4-.5 1.3-.7 2.7-.5 4-1.1 1.1-2.5 1.8-4 2 .9-.8 1.6-1.9 2-3.1.8-2.7.1-3.9.1-4-.5-1.5-2.1-2.3-3.6-1.8-.8.3-1.5.9-2 1.5 0-.2.1-.4.1-.6l.9-4.1c.3-1.2.5-2.4.6-3.6 0-.5-.2-1-.7-1.4-.3-.2-.6-.2-.8.2-.2.5-.5 2.6-.9 4.6l-.8 4.7c0 .3-.1.6-.1.9-.1.5-2.6 7.3-4 6.9-.5-.2-.9-1.3-.7-3.1.1-1.1.3-2.2.4-2.5.1-.5 0-1.1-.3-1.5-.2-.2-.4-.4-.7-.5-.6-.3-1.2-.3-1.2-.5 0-.3.1-.2.1-.7 0-.3-.3-.5-.7-.7-.3-.2-.8-.3-.8-.1-.2.8-.4 1.6-.7 2.3l-.8 2.4c-.3.9-1.7 4.8-4.1 4.9-.8 0-2.1-.2-2.4-1.3 1-.7 1.9-1.5 2.7-2.3.9-.8 1.4-2 1.4-3.2-.3-1.3-1.5-2.2-2.9-1.9-.1 0-.2 0-.2.1-1.2.4-2.1 1.3-2.5 2.5-.5 1.3-.6 2.7-.4 4.1-1 .9-2.3 1.3-3.6 1.3-1.3-.1-2.4-.7-3.2-1.7.5-.1 1.1-.3 1.6-.5s1-.4 1.5-.7c2.4-1.4 2-2.7 2-3.2-.1-1.5-2.1-2.1-3.9-1.3-.5.2-.9.5-1.3.9.4-2.6 1.4-8.2 1.4-8.6 0-.3-.2-.6-.5-.8-.4-.3-.7-.3-.8.2-.1.5-1.5 8.1-1.8 10.4 0 .2 0 .5-.1.7s-.1.5-.3.9c-.6 2.5-1.4 4.5-2.5 4.3-.7-.1-1.1-1.3-1.1-2.7.1-1.2.2-2.4.4-3.5.3-.9-.2-2-1.1-2.3-.3-.1-.7-.1-1 0-.8.2-1.5 1.2-2.3 2.4-.5.7-.9 1.5-1.3 2.2l.2-.8c.2-1 .4-2.4.5-2.9 0-.3-.3-.7-.7-.9-.4-.2-.6-.2-.6 0-.3 1.3-.6 2.7-.8 4-.2.4-.4.9-.6 1.3-.9 1.7-2.2 3.8-2.9 3.5-.5-.2-.7-1.4-.6-2.8 0-1.1.1-2.3.3-3.4.1-.5-.5-1-1-1.2-.3-.1-.6-.1-.6.2v.1c-1.2 3.2-2.5 4.9-3.4 5.5-3.2 2.5-4.4 0-3.2-7.9.5-.5.6-1.6.7-1.9.8-.2 1.7-.5 2.5-.6.9-.2 1.8-.4 2.7-.4.5 0 .5-.1.4-.2-.1-.2-.6-.8-1-.9-.7-.1-1.5-.1-2.2.1-.7.1-1.3.2-2 .4l.4-1.6c.1-.4.1-.7.2-1.1 0-.4-.2-.9-.5-1.2-.2-.2-.4-.4-.6-.5-.3-.1-.4.5-.4.6-.2 1-.9 4.3-.9 4.3-.8.1-1.3.2-1.8.4-.8.2-1.3.3-1.7.4-.4.1-.4.7 0 1.1.4.4.9.7 1.2.5.2-.1.9-.3 1.9-.7-.2 1.7-.4 3.6-.5 5.4 0 2.5.1 4.1 1.3 5.8 1.5 2.2 3.8.7 4.3.3 1.2-.9 2.1-2.1 2.6-3.6 0 .4.1.7.1 1.1.1 1.1.6 2.1 1.4 2.8.5.4 1.2.6 1.8.5.6-.1 1.2-.8 1.8-1.6v.2c0 .5.3.9.7 1.2.4.2.6.2.6 0 .5-2 1.2-3.9 2.2-5.7 1.2-1.9 1.9-3 2.4-2.6.3.2.1.8 0 2.1-.1 1.1-.2 2.1 0 3.2.1.9.5 1.8 1.2 2.5.6.7 1.6.8 2.5.4.5-.4.9-.9 1.2-1.4 0 .4 0 .9.1 1.3s.4.8.8 1c.5.4 1.1.6.9.2-.4-1.2-.5-2.5-.3-3.7.8 1.5 2.4 2.3 4.1 2.2 1.1 0 2.1-.2 3.1-.8.6-.2.9-.5.9-.4.9 1.5 2.2 2 4.2 2 3.8-.2 5.6-6.6 5.8-7.1l.3-1.1s1 .1 1.1.7c0 .9 0 1.9-.2 2.8-.2 1.1-.1 2.2.2 3.2.2.5 1.5 2.3 3.3 1.2.9-.8 1.6-1.9 2.1-3 0-.1.2 1.2.4 1.6.2.5.6.9 1 1.3.1.1.3.2.4.3l.2.1h.4c.6.1 1.2 0 1.8-.1 1.8 0 4.2-1.4 5.4-2 .8 1.5 2.3 2.4 4 2.3 1.5-.1 2.9-1.3 3.9-2.7.2-.3.5-.6.7-.9.2.7.5 1.3 1 1.9 3.5 4.1 6.7-1.1 7.1-1.7.3 1 1 1.9 1.9 2.5 1.1.6 2.4.6 3.5 0 .7-.4 1.4-1 2.1-1.5.5-.7.4-.9.2-1.3zm-58.8-2c.1-1.2.8-2.1 1.8-2.6.5-.3 1.1-.5 1.7-.5.5.1 1.1 1-.1 1.9-1 .7-2.2 1.1-3.4 1.2zm9 .4c.1-.8.4-1.7.8-2.4.6-1.2 1.5-1.9 2-1.6.5.3 0 1.7-1 2.8-.6.6-1.2 1.2-1.9 1.7l.1-.5zm26.6-.2c.1-.9.4-1.7.8-2.5.6-1.2 1.8-1.7 2.2-1.3.7.7-.1 1.5-1.2 2.6-.6.6-1.2 1.2-1.9 1.7l.1-.5zm-8.8 3.5c-.3-.2-.6-1.4-.5-3.3.1-1 .1-1.4.2-2.3.2-.2 2.9-2.9 3.9-1.6.7 1.3.6 2.9-.1 4.1-1.3 2.3-2.9 3.5-3.5 3.1zm17-4.9c0-.8 0-4.3.1-5 .1-1.1.2-1.9.3-2.7.4-3.3 1.5-4.2 2-3.7.3.2 1 1.3.4 5.1-.4 2.3-1.3 4.4-2.8 6.3zm8.2-.2V18c.1-1.1.1-1.9.2-2.7.4-3.3 1.3-4.3 1.9-3.9.3.2 1.1 1.1.4 4.9-.5 2.3-1.3 4.5-2.5 6.5z" class="st2"/></svg>