<svg xmlns="http://www.w3.org/2000/svg" role="img" viewBox="-2.31 2.19 431.62 536.12"><defs><style>.cls-1{fill:#fff}</style></defs><path d="M390.836 189.362c0-97.523-79.34-176.863-176.863-176.863S37.11 91.839 37.11 189.362c0 97.522 79.34 176.862 176.863 176.862s176.863-79.34 176.863-176.862zm-345.93 0c0-93.225 75.843-169.069 169.067-169.069s169.069 75.844 169.069 169.069S307.198 358.43 213.973 358.43 44.905 282.586 44.905 189.362z" class="cls-1"/><circle cx="309.585" cy="193.37" r="29.272" class="cls-1"/><circle cx="213.28" cy="305.094" r="29.272" class="cls-1"/><path d="M209.267 195.458l18.211-45.235 16.515 47.183h14.83a50.949 50.949 0 0 0 21.34 37.349l-47.856 47.855 3.674 3.674 48.68-48.68a50.934 50.934 0 1 0 1.673-89.72l-49.956-47.458a29.277 29.277 0 1 0-3.677 3.676l48.963 46.515a50.937 50.937 0 0 0-23.003 41.593h-10.982l-19.86-56.747-22.062 54.798h-24.636l-20.934 48.448-18.466-46.166-.053.022v-.496H123a29.28 29.28 0 1 0-.233 5.196h15.245l21.99 54.973 24.534-56.78zm100.317-48a45.74 45.74 0 1 1-45.74 45.739 45.792 45.792 0 0 1 45.74-45.74zM59.403 512.47q-5.329 4.954-14.783 4.953a21.115 21.115 0 0 1-10.355-2.401 20.104 20.104 0 0 1-7.052-6.378 28.093 28.093 0 0 1-3.978-9.08 43.094 43.094 0 0 1-1.275-10.504 52.694 52.694 0 0 1 1.2-11.33 28.354 28.354 0 0 1 3.978-9.68 20.613 20.613 0 0 1 7.428-6.754 23.786 23.786 0 0 1 11.555-2.551q8.105 0 12.906 4.052a19.45 19.45 0 0 1 6.303 11.405h13.207a30.747 30.747 0 0 0-3.602-11.93 26.688 26.688 0 0 0-7.278-8.33 30.192 30.192 0 0 0-10.206-4.876 46.905 46.905 0 0 0-12.38-1.576 37.557 37.557 0 0 0-16.058 3.227 32.064 32.064 0 0 0-11.48 8.854 37.655 37.655 0 0 0-6.828 13.205 56.948 56.948 0 0 0-2.252 16.284 52.209 52.209 0 0 0 2.327 15.982 35 35 0 0 0 6.902 12.531 30.37 30.37 0 0 0 11.406 8.104 40.442 40.442 0 0 0 15.683 2.851q14.857 0 23.486-7.803 8.628-7.8 10.73-22.211H65.93q-1.203 9.005-6.527 13.957zm95.367-53.2a34.127 34.127 0 0 0-11.78-8.628 39.242 39.242 0 0 0-16.283-3.152 39.363 39.363 0 0 0-16.207 3.152 33.928 33.928 0 0 0-11.856 8.628 36.193 36.193 0 0 0-7.204 12.906 51.669 51.669 0 0 0-2.401 15.983 50.952 50.952 0 0 0 2.401 15.908 36.255 36.255 0 0 0 7.204 12.831 33.08 33.08 0 0 0 11.856 8.554 40.21 40.21 0 0 0 16.207 3.076 40.086 40.086 0 0 0 16.283-3.076 33.26 33.26 0 0 0 11.78-8.554 36.315 36.315 0 0 0 7.203-12.831 50.99 50.99 0 0 0 2.402-15.908 51.707 51.707 0 0 0-2.402-15.983 36.252 36.252 0 0 0-7.203-12.906zm-5.778 41.42a26.233 26.233 0 0 1-5.177 9.154 22.45 22.45 0 0 1-7.729 5.628 23.518 23.518 0 0 1-18.758 0 22.415 22.415 0 0 1-7.73-5.628 26.172 26.172 0 0 1-5.177-9.154 42.806 42.806 0 0 1 0-25.062 27.037 27.037 0 0 1 5.178-9.23 22.068 22.068 0 0 1 7.729-5.702 23.519 23.519 0 0 1 18.758 0 22.102 22.102 0 0 1 7.729 5.703 27.1 27.1 0 0 1 5.177 9.23 42.78 42.78 0 0 1 0 25.06zm37.745-35.041h-.3v-16.358h-12.005v77.587h12.756V492.36a53.024 53.024 0 0 1 1.5-13.28 25.437 25.437 0 0 1 4.804-9.83 20.567 20.567 0 0 1 8.703-6.153 36.086 36.086 0 0 1 13.057-2.101V447.49q-10.356-.298-17.11 4.202-6.751 4.503-11.405 13.957zm60.325-39.619h-12.756v23.26H221.1v11.256h13.206v49.373a29.476 29.476 0 0 0 1.05 8.705 10.559 10.559 0 0 0 3.226 5.102 12.46 12.46 0 0 0 5.703 2.477 45.784 45.784 0 0 0 8.48.675h9.755v-11.256h-5.854a42.608 42.608 0 0 1-4.877-.225 6.277 6.277 0 0 1-2.927-.975 3.7 3.7 0 0 1-1.426-2.101 13.935 13.935 0 0 1-.374-3.602v-48.173h15.458v-11.255h-15.458zm89.965 36.617a34.003 34.003 0 0 0-10.955-10.88q-6.83-4.278-17.182-4.277a35.291 35.291 0 0 0-14.632 3 34.404 34.404 0 0 0-11.556 8.406 38.736 38.736 0 0 0-7.578 12.755 46.68 46.68 0 0 0-2.703 16.209 62.096 62.096 0 0 0 2.628 16.357 35.657 35.657 0 0 0 6.978 12.906 31.757 31.757 0 0 0 11.48 8.403 39.854 39.854 0 0 0 16.132 3.002q13.205 0 21.912-6.603 8.7-6.602 11.254-19.66h-12.606q-1.653 7.654-6.828 11.406-5.178 3.754-13.281 3.752a26.397 26.397 0 0 1-10.955-2.1 21.456 21.456 0 0 1-7.654-5.628 21.884 21.884 0 0 1-4.352-8.105 30.74 30.74 0 0 1-1.2-9.68h58.077a61.83 61.83 0 0 0-1.276-14.856 43.044 43.044 0 0 0-5.703-14.407zm-51.098 18.01a26.542 26.542 0 0 1 1.95-8.48 22.627 22.627 0 0 1 4.503-6.978 20.604 20.604 0 0 1 6.828-4.728 22.227 22.227 0 0 1 8.928-1.726 21.844 21.844 0 0 1 8.78 1.726 22.105 22.105 0 0 1 6.904 4.653 21.872 21.872 0 0 1 4.652 6.977 26.2 26.2 0 0 1 2.026 8.555zm103.551 4.351l26.713-35.717h-15.308l-19.36 27.163-18.609-27.163h-16.358l27.013 36.767-29.114 40.82h15.458l21.61-32.116 21.611 32.116h16.358l-30.014-41.87z" class="cls-1"/></svg>