<svg xmlns="http://www.w3.org/2000/svg" role="img" viewBox="-0.33 0.17 641.16 285.16"><defs><clipPath id="clip-path"><path d="M433.02 257.52h195.6v1h-195.6z" class="cls-1"/></clipPath><clipPath id="clip-path-2"><path d="M12.32 257.52h191.3v1H12.32z" class="cls-1"/></clipPath><clipPath id="clip-path-3"><path d="M246.42 13.32h1v203.5h-1z" class="cls-1"/></clipPath><style>.cls-1,.cls-4{fill:#221f1f}.cls-4{fill-rule:evenodd}</style></defs><path id="SVGID" d="M433.02 257.52h195.6v1h-195.6z" class="cls-1"/><path d="M433.02 257.52h195.6v1h-195.6z" class="cls-1"/><g clip-path="url(#clip-path)"><path d="M433.02 257.52h195.6v1h-195.6z" class="cls-1"/></g><path id="SVGID-2" d="M12.32 257.52h191.3v1H12.32z" class="cls-1" data-name="SVGID"/><path d="M12.32 257.52h191.3v1H12.32z" class="cls-1"/><g clip-path="url(#clip-path-2)"><path d="M12.32 257.52h191.3v1H12.32z" class="cls-1"/></g><path d="M185.32 187.22c1.1-.3 2.4-.6 4.1-.9a29.607 29.607 0 015.2-.4 12.031 12.031 0 014.6.7 7.03 7.03 0 012.9 2.1 7.913 7.913 0 011.5 3.2 17.044 17.044 0 01.5 4.1v12.4h-6.2v-11.6a8.35 8.35 0 00-.8-4.2q-.75-1.2-3-1.2a7.084 7.084 0 00-1.4.1c-.5 0-.9.1-1.3.1v16.9h-6.1v-21.3zm-11.4 10.2a8.309 8.309 0 00-1.1-4.5 4.203 4.203 0 00-6.6 0 7.51 7.51 0 00-1.2 4.5 8.059 8.059 0 001.2 4.6 4.053 4.053 0 006.6 0 8.94 8.94 0 001.1-4.6m6.3 0a14.055 14.055 0 01-.7 4.7 10.702 10.702 0 01-2.2 3.7 10.007 10.007 0 01-7.8 3.2 12.307 12.307 0 01-4.4-.8 10.037 10.037 0 01-3.4-2.4 10.403 10.403 0 01-2.2-3.7 14.206 14.206 0 010-9.4 10.887 10.887 0 012.2-3.6 9.756 9.756 0 013.4-2.3 10.294 10.294 0 014.3-.8 11.758 11.758 0 014.3.8 11.34 11.34 0 013.4 2.3 10.887 10.887 0 012.2 3.6 10.394 10.394 0 01.9 4.7m-33.7 11.5c-4.7 0-8.3-1.3-10.7-3.9-2.5-2.6-3.7-6.3-3.7-11.1a18.26 18.26 0 011.1-6.4 12.925 12.925 0 017.8-7.6 16.255 16.255 0 015.9-1 16.857 16.857 0 013.3.3c1 .2 1.9.4 2.6.6a19.684 19.684 0 011.9.7 3.58 3.58 0 011.1.6l-1.9 5.2a12.522 12.522 0 00-3.1-1.2 16.2 16.2 0 00-4-.5 9.29 9.29 0 00-2.9.5 5.982 5.982 0 00-2.5 1.6 9.651 9.651 0 00-1.8 2.8 13.172 13.172 0 00-.7 4.2 14.482 14.482 0 00.4 3.7 9.228 9.228 0 001.4 3 7.53 7.53 0 002.6 2 8.897 8.897 0 003.8.7 18.096 18.096 0 002.5-.2 10.084 10.084 0 002-.4 13.08 13.08 0 001.5-.5 6.118 6.118 0 011.2-.5l1.8 5.2a12.193 12.193 0 01-3.9 1.5 19.32 19.32 0 01-5.7.7m-24.6-13.7a4.012 4.012 0 00-.3-1.5 5.388 5.388 0 00-.7-1.3 4.002 4.002 0 00-1.2-1 4.777 4.777 0 00-1.8-.4 3.425 3.425 0 00-1.8.4 2.73 2.73 0 00-1.2.9 4.678 4.678 0 00-.8 1.4 7.491 7.491 0 00-.4 1.6h8.2zm-14.6 2.4a13.638 13.638 0 01.9-5.1 9.478 9.478 0 012.4-3.6 10.044 10.044 0 013.3-2.2 10.723 10.723 0 013.9-.7 9.724 9.724 0 017.4 2.8q2.7 2.85 2.7 8.4v1.2c0 .4-.1.8-.1 1.1h-14.1a3.717 3.717 0 001.8 3 7.698 7.698 0 004.2 1.1 17.61 17.61 0 003.3-.3 12.543 12.543 0 002.7-.8l.8 5a8.93 8.93 0 01-1.3.5 10.62 10.62 0 01-1.9.4c-.7.1-1.4.2-2.2.3a18.484 18.484 0 01-2.3.1 12.929 12.929 0 01-5.1-.9 9.478 9.478 0 01-3.6-2.4 8.178 8.178 0 01-2.1-3.6 11.415 11.415 0 01-.7-4.3m-4.1-.2a14.034 14.034 0 01-.8 4.7 10.887 10.887 0 01-2.2 3.6 9.672 9.672 0 01-3.6 2.3 14.194 14.194 0 01-4.8.8 20.93 20.93 0 01-2.4-.1l-2.4-.3a18.46 18.46 0 01-2.3-.4c-.7-.2-1.4-.3-1.9-.5v-30.6l6.2-1v10.9a14.16 14.16 0 012.2-.7 9.345 9.345 0 012.4-.2 10.33 10.33 0 014.1.8 7.56 7.56 0 013 2.3 10.152 10.152 0 011.8 3.6 15.071 15.071 0 01.7 4.8m-6.3-.1c0-4-1.5-6-4.4-6a12.253 12.253 0 00-1.9.2 11.638 11.638 0 00-1.5.6v11.3a4.12 4.12 0 001.2.1c.5 0 1 .1 1.5.1a4.452 4.452 0 003.8-1.7 7.377 7.377 0 001.3-4.6m-20.2 10.3c-1.1.3-2.4.6-4.1.9a29.608 29.608 0 01-5.2.4 12.031 12.031 0 01-4.6-.7 7.03 7.03 0 01-2.9-2.1 8.593 8.593 0 01-1.5-3.2 17.045 17.045 0 01-.5-4.1v-12.2h6.2v11.4a9.077 9.077 0 00.8 4.3c.5.9 1.5 1.3 3 1.3a7.084 7.084 0 001.4-.1c.5 0 .9-.1 1.3-.1v-16.9h6.2v21.1zm-28.6.8c-.6-.9-1.3-2-2.1-3.1a37.463 37.463 0 00-2.6-3.3c-.9-1.1-1.9-2.1-2.9-3.2a36.532 36.532 0 00-3-2.7v12.2h-6.5v-28.8h6.5v10.9c1.7-1.8 3.4-3.6 5.1-5.6 1.7-1.9 3.3-3.7 4.8-5.3h7.7c-2 2.3-3.9 4.6-5.9 6.7-2 2.2-4.1 4.3-6.3 6.5a54.044 54.044 0 016.7 6.8 88.546 88.546 0 016.2 8.7h-7.7z" class="cls-1"/><path d="M100.12 81.12l-3.6.8c0-.5-.1-1-.1-1.5a20.708 20.708 0 013-10.8l7 6.2a1.38 1.38 0 00.4.3 11.404 11.404 0 00-.8 3.3c-.2.1-.5.1-.7.2zm13.6-21.2v9.8a8.67 8.67 0 00-2.7 1.4c-.3-.2-.6-.5-.9-.7l-7.1-5a20.077 20.077 0 0110.7-5.5m-48.6 22.6c3.4-14.9 6.3-27.5 9.7-42.4 1.5-6.8 2.5-8.5 8.5-12 8.4-4.8 14.7-8.4 23.7-13.6 5.6-3.2 6.7-3 6.7 3.9v34.6a27.304 27.304 0 00-16.4 8.3l-3-2.1a1.445 1.445 0 01-.7-1 4.87 4.87 0 00-1.6-2.4 3.272 3.272 0 00-4.1 5.1 3.465 3.465 0 001.6.8c.4.1.8.1 1.2.2a2.47 2.47 0 01.9.4l2.8 2.5a27.379 27.379 0 00-4.7 15.4c0 1 .1 2 .2 3l-6.1 1.3a6.15 6.15 0 00-1.3.1l-.9.3c-4 .8-8 1.7-12.1 2.6-5.5 1.4-5.6.3-4.4-5m55.7-12.8v-9.8a21.028 21.028 0 0110.7 5.4l-7.7 5.5c-.1.1-.2.2-.3.2a16.938 16.938 0 00-2.7-1.3m17.2 11.6l-9.6-2.2a9.469 9.469 0 00-.8-3c.1-.1.2-.2.3-.2l7.1-6.3a20.894 20.894 0 013.1 10.9 1.95 1.95 0 00-.1.8m-12.5-52.9c5.2 2.5 8.9 4.3 14.1 6.8 7.2 3.5 14.4 7 21.7 10.4 1.8 7.8 3.6 15.6 5.3 23.4 1.1 4.7 1.6 7.2 2.7 11.8 1.7 7.3 1.5 7.9-6 6.2l-18.5-4.2a19.267 19.267 0 00.1-2.4 26.806 26.806 0 00-4.8-15.5l2.6-2.4a2.22 2.22 0 011.1-.5 5.234 5.234 0 002.7-1 3.272 3.272 0 00-4.1-5.1 4.071 4.071 0 00-1.2 1.4c-.2.4-.3.7-.5 1.1a1.555 1.555 0 01-.6.8l-3 2.1a27.304 27.304 0 00-16.4-8.3v-21.1c.1-5 .6-5.6 4.8-3.5m-6.3 63a11.076 11.076 0 01-1.9.2 10.869 10.869 0 01-1.8-.1l-.3.6-4.4 8.1a20.765 20.765 0 006.6 1.1 21.87 21.87 0 006.7-1.1l-4.4-8a4.453 4.453 0 01-.5-.8m7.7-5.4l9.6 2.2a20.743 20.743 0 01-7.8 9.5l-3.8-9.2a9.579 9.579 0 002-2.5m-28.8 2.2l9.6-2.2a13.29 13.29 0 002.1 2.6l-.3.6-3.5 8.5a19.786 19.786 0 01-7.9-9.5m78.5 16.8c-4.6 5.7-6.7 8.4-11.3 14.1-5.2 6.5-9.4 11.8-14.6 18.3-3.7 4.7-6.4 4.8-12.5 4.8h-42c-8 0-8.6 0-13.5-6.2-4.9-6.1-8.7-10.9-13.5-17-3.8-4.8-4.8-6-8.6-10.8-5.9-7.4-6.9-10.1 2.3-12.1l28.4-6.4a28.081 28.081 0 0011.9 14.4l-1.3 3a1.765 1.765 0 01-.8.9 4.535 4.535 0 00-2 2.1 3.287 3.287 0 105.9 2.9 5.34 5.34 0 00.5-1.8 4.869 4.869 0 00-.1-1.2 1.803 1.803 0 01.2-1l1.6-2.9a27.974 27.974 0 009.9 1.8 26.52 26.52 0 0010-1.9l1.6 2.9a1.637 1.637 0 01.2 1.2 4.5 4.5 0 00.4 2.8 3.287 3.287 0 105.9-2.9 4.177 4.177 0 00-1.1-1.5 6.07 6.07 0 00-1-.7 1.242 1.242 0 01-.6-.8l-1.3-3.2a27.427 27.427 0 0011.8-14.4l31.3 7.1c6.3 1.8 5.9 4 2.3 8.5" class="cls-4"/><path d="M120.82 69.72v-9.8a21.028 21.028 0 0110.7 5.4l-7.7 5.5c-.1.1-.2.2-.3.2a16.938 16.938 0 00-2.7-1.3m17.2 11.6l-9.6-2.2a9.469 9.469 0 00-.8-3c.1-.1.2-.2.3-.2l7.1-6.3a20.894 20.894 0 013.1 10.9 1.95 1.95 0 00-.1.8m-12.5-52.9c5.2 2.5 8.9 4.3 14.1 6.8 7.2 3.5 14.4 7 21.7 10.4 1.8 7.8 3.6 15.6 5.3 23.4 1.1 4.7 1.6 7.2 2.7 11.8 1.7 7.3 1.5 7.9-6 6.2l-18.5-4.2a19.267 19.267 0 00.1-2.4 26.806 26.806 0 00-4.8-15.5l2.6-2.4a2.22 2.22 0 011.1-.5 5.234 5.234 0 002.7-1 3.272 3.272 0 00-4.1-5.1 4.071 4.071 0 00-1.2 1.4c-.2.4-.3.7-.5 1.1a1.555 1.555 0 01-.6.8l-3 2.1a27.304 27.304 0 00-16.4-8.3v-21.1c.1-5 .6-5.6 4.8-3.5m1.4 57.6l9.6 2.2a20.743 20.743 0 01-7.8 9.5l-3.8-9.2a9.579 9.579 0 002-2.5m-9.6 15.1v-9.6a12.252 12.252 0 001.9-.2 2.506 2.506 0 00.4.7l4.4 8a19.61 19.61 0 01-6.7 1.1m59.3 3.9c-4.6 5.7-6.7 8.4-11.3 14.1-5.2 6.5-9.4 11.8-14.6 18.3-3.7 4.7-6.4 4.8-12.5 4.8h-20.9v-34.2a26.52 26.52 0 0010-1.9l1.6 2.9a1.637 1.637 0 01.2 1.2 4.5 4.5 0 00.4 2.8 3.287 3.287 0 005.9-2.9 4.177 4.177 0 00-1.1-1.5 6.07 6.07 0 00-1-.7 1.242 1.242 0 01-.6-.8l-1.3-3.2a27.427 27.427 0 0011.8-14.4l31.3 7.1c6.1 1.7 5.7 3.9 2.1 8.4" class="cls-4"/><path d="M408.62 103.82h-16.6v38.8h38.8v-16.6h-22.2zm83.1.2v22h-22l-.1-.1v16.7h38.8v-38.8h-16.8zm-99.7-38.9h16.7l-.1-.2v-22h22.1l.1.1v-16.7h-38.8zm77.6-38.8v16.6h22.1v22.2h16.7v-38.8z" class="cls-1"/><path fill="#221f1f" d="M467.52 65.12l-22.2-22.2h24.3v-16.6h-38.8v16.7l22 22.1zm-20 38.7h-14.7l18.4 18.4 3.8 3.8h-24.2v16.6h38.8v-16.7l-11.1-11zm44.2-38.7v24.2l-3.8-3.8-18.3-18.4v14.7l11 11 11 11h16.8v-38.7zm-60.9 22l-22.1-22h-16.7v38.7h16.6v-24.2l22.2 22.2z" opacity=".8"/><path d="M310.92 184.92l-4.2 5a9.83 9.83 0 00-7.2-3.7 8.03 8.03 0 00-8 8.3c0 4.8 3.4 8.4 8 8.4a10.575 10.575 0 007.2-3.4l4.3 4.5a17.508 17.508 0 01-11.8 5.2c-8.6 0-15-6.3-15-14.7 0-8.3 6.6-14.5 15.3-14.5a17.419 17.419 0 0111.4 4.9zm3.5 24.1v-30.3h7.1v30.3zm35.1-11.1c0 6.8-4.8 11.3-12 11.3s-12.1-4.5-12.1-11.3 4.8-11.2 12.1-11.2c7.2 0 12 4.5 12 11.2zm-16.9.1c0 3.4 2 5.7 4.9 5.7s4.9-2.3 4.9-5.7-2-5.7-4.9-5.7-4.9 2.3-4.9 5.7zm42.2 11h-7.1v-3.7a7.796 7.796 0 01-7.2 3.9c-4.8 0-7.9-3.3-7.9-8.4v-13.9h7.1v11.9c0 2.6 1.4 4.2 3.7 4.2 2.7 0 4.3-2.2 4.3-5.2v-10.9h7.1zm27.8 0h-7.1v-2.9a8.152 8.152 0 01-6.6 3.2c-6.2 0-10.3-4.6-10.3-11.4 0-6.7 4-11.2 10.1-11.2a8.128 8.128 0 016.8 3.2v-11.2h7.1v30.3zm-7-11c0-3.4-2-5.7-4.9-5.7s-4.9 2.3-4.9 5.7 2 5.8 4.9 5.8 4.9-2.4 4.9-5.8zm32.9 11l-13.2-17.6v17.6h-6.8v-28.6h6.4l13.2 17.7v-17.7h6.8v28.6h-6.4zm31.6-14.4v14.4h-6.9v-2.5c-1.4 1.9-3.8 2.9-6.7 2.9-4.7 0-7.6-2.9-7.6-6.9 0-4.2 3-6.6 8.5-6.7h5.8v-.3c0-2.2-1.4-3.5-4.3-3.5a16.837 16.837 0 00-6.6 1.8l-2-4.7a22.921 22.921 0 0110.2-2.5c6.1 0 9.6 3 9.6 8zm-6.9 6.9v-2h-4.5c-2.1 0-3.2.7-3.2 2.4 0 1.6 1.1 2.6 3.1 2.6 2.3 0 4.1-1.2 4.6-3zm26 6.3a12.584 12.584 0 01-5.9 1.5c-4.3 0-7.3-2.4-7.3-7v-9.7h-3.1v-4.6h3.1v-6.1h7v6.1h5.8v4.7h-5.8v8.6c0 1.7.7 2.5 2 2.4a8.283 8.283 0 002.7-.7l1.5 4.8zm10.8-27.2a3.654 3.654 0 01-3.7 3.8 3.75 3.75 0 010-7.5 3.517 3.517 0 013.7 3.7zm-7.2 28.4v-22h7v22zm17.9 0l-8.3-22h7.3l4.7 15.6 4.8-15.6h7l-8.3 22zm38.9-9.1h-15.5a5.145 5.145 0 005.2 4.1 7.857 7.857 0 005.3-2.2l3.7 3.6a12.486 12.486 0 01-9.6 3.9c-7.2 0-11.7-4.5-11.7-11.2 0-6.8 4.7-11.3 11.5-11.3 7.7-.1 11.6 5 11.1 13.1zm-6.8-3.8a4.15 4.15 0 00-4.3-4.5c-2.5 0-4.1 1.8-4.6 4.5h8.9zm35.6-11.2l-4.2 5a9.83 9.83 0 00-7.2-3.7 8.03 8.03 0 00-8 8.3c0 4.8 3.4 8.4 8 8.4a10.575 10.575 0 007.2-3.4l4.3 4.5a17.508 17.508 0 01-11.8 5.2c-8.6 0-15-6.3-15-14.7 0-8.3 6.6-14.5 15.3-14.5a17.21 17.21 0 0111.4 4.9zm24.8 13c0 6.8-4.8 11.3-12 11.3s-12.1-4.5-12.1-11.3 4.8-11.2 12.1-11.2c7.1 0 12 4.5 12 11.2zm-17 .1c0 3.4 2 5.7 4.9 5.7s4.9-2.3 4.9-5.7-2-5.7-4.9-5.7-4.9 2.3-4.9 5.7zm43.3-2.9v13.9h-7v-11.9c0-2.6-1.5-4.2-3.9-4.2-2.6 0-4.2 1.8-4.5 4.5v11.7h-7.1v-22h7.1v3.6a8.117 8.117 0 017.4-3.9c4.8-.2 8 3.1 8 8.3z" class="cls-1"/><path id="SVGID-3" d="M246.42 13.32h1v203.5h-1z" class="cls-1" data-name="SVGID"/><path d="M246.42 13.32h1v203.5h-1z" class="cls-1"/><g clip-path="url(#clip-path-3)"><path d="M246.42 13.32h1v203.5h-1z" class="cls-1"/></g><path d="M242.62 265.52h-12.8v-22.2h12.8v3.9h-8.1v4.9h7.5v3.9h-7.5v5.7h8.1v3.8zm16.3 0l-.6-2.2h-.2a4.626 4.626 0 01-2.1 1.8 7.455 7.455 0 01-3.1.6 5.76 5.76 0 01-4.5-1.6 6.534 6.534 0 01-1.5-4.6v-11.1h4.6v9.9a4.654 4.654 0 00.7 2.8 2.336 2.336 0 002.1.9 3.058 3.058 0 002.8-1.3 7.867 7.867 0 00.9-4.3v-8h4.6v17h-3.7zm17.9-17.3a8.082 8.082 0 011.6.1l-.3 4.3a5.212 5.212 0 00-1.4-.2 5.424 5.424 0 00-3.5 1.1 4.223 4.223 0 00-1.2 3.2v8.6h-4.7v-17h3.5l.7 2.9h.2a5.828 5.828 0 012.1-2.3 5.14 5.14 0 013-.7zm20.1 8.8a8.99 8.99 0 01-2.2 6.5 7.849 7.849 0 01-6.1 2.3 8.583 8.583 0 01-4.3-1.1 7.274 7.274 0 01-2.9-3.1 9.879 9.879 0 01-1-4.7 8.99 8.99 0 012.2-6.5 8.064 8.064 0 016.1-2.3 8.583 8.583 0 014.3 1.1 7.274 7.274 0 012.9 3.1 11.592 11.592 0 011 4.7zm-11.8 0a7.415 7.415 0 00.8 3.8 3.454 3.454 0 005.4 0 6.722 6.722 0 00.8-3.8 7.68 7.68 0 00-.8-3.8 3.454 3.454 0 00-5.4 0 7.68 7.68 0 00-.8 3.8zm24.9 8.9a5.482 5.482 0 01-4.7-2.2h-.2a16.727 16.727 0 01.2 2.5v6.9h-4.6v-24.5h3.8l.7 2.2h.2a5.325 5.325 0 014.8-2.5 5.561 5.561 0 014.7 2.3 11.155 11.155 0 011.7 6.5 13.19 13.19 0 01-.8 4.7 6.678 6.678 0 01-2.3 3.1 6.818 6.818 0 01-3.5 1zm-1.3-13.9a2.97 2.97 0 00-2.5 1.1 6.221 6.221 0 00-.8 3.5v.5a7.576 7.576 0 00.8 3.9 2.857 2.857 0 002.6 1.2c2.1 0 3.1-1.7 3.1-5.1a7.68 7.68 0 00-.8-3.8 2.605 2.605 0 00-2.4-1.3zm19.4 13.9a8.787 8.787 0 01-6.4-2.3 8.627 8.627 0 01-2.3-6.4 9.682 9.682 0 012.1-6.6 7.408 7.408 0 015.9-2.3 7.315 7.315 0 015.6 2.1 8.07 8.07 0 012 5.7v2.2h-11a4.567 4.567 0 001.2 3.1 4.331 4.331 0 003.1 1.1 13.575 13.575 0 002.9-.3 20.045 20.045 0 002.9-1v3.6a11.424 11.424 0 01-2.6.9 32.808 32.808 0 01-3.4.2zm-.7-14.4a2.87 2.87 0 00-2.3.9 4.168 4.168 0 00-1 2.7h6.5a4.002 4.002 0 00-.9-2.7 3.239 3.239 0 00-2.3-.9zm32.912 13.842h-15.42v-3.244l5.537-5.597q2.46-2.52 3.214-3.493a7.664 7.664 0 001.086-1.803 4.578 4.578 0 00.332-1.72 2.509 2.509 0 00-.731-1.977 2.839 2.839 0 00-1.955-.648 5.628 5.628 0 00-2.489.588 12.884 12.884 0 00-2.52 1.675l-2.534-3.002a16.51 16.51 0 012.7-1.962 9.96 9.96 0 012.339-.883 12.001 12.001 0 012.837-.309 8.401 8.401 0 013.65.754 5.825 5.825 0 012.46 2.112 5.615 5.615 0 01.875 3.109 7.624 7.624 0 01-.535 2.86 10.982 10.982 0 01-1.66 2.738 40.486 40.486 0 01-3.96 3.998l-2.837 2.67v.211h9.611zm17.517-11.029q0 5.779-1.894 8.555a6.57 6.57 0 01-5.831 2.776 6.493 6.493 0 01-5.756-2.866q-1.94-2.867-1.94-8.465 0-5.839 1.887-8.607a7.334 7.334 0 0111.58.128q1.954 2.897 1.954 8.479zm-10.788 0a17.156 17.156 0 00.702 5.816 2.43 2.43 0 002.361 1.758 2.455 2.455 0 002.354-1.78 23.552 23.552 0 00-.008-11.625 2.443 2.443 0 00-4.7 0 17.1 17.1 0 00-.71 5.831zm28.546 11.029h-15.42v-3.244l5.538-5.597q2.46-2.52 3.213-3.493a7.664 7.664 0 001.086-1.803 4.578 4.578 0 00.332-1.72 2.509 2.509 0 00-.731-1.977 2.839 2.839 0 00-1.954-.648 5.628 5.628 0 00-2.49.588 12.884 12.884 0 00-2.519 1.675l-2.535-3.002a16.51 16.51 0 012.701-1.962 9.96 9.96 0 012.338-.883 12.001 12.001 0 012.837-.309 8.401 8.401 0 013.651.754 5.825 5.825 0 012.46 2.112 5.615 5.615 0 01.874 3.109 7.624 7.624 0 01-.535 2.86 10.982 10.982 0 01-1.66 2.738 40.485 40.485 0 01-3.96 3.998l-2.837 2.67v.211h9.611zm17.517-11.029q0 5.779-1.894 8.555a6.57 6.57 0 01-5.83 2.776 6.493 6.493 0 01-5.756-2.866q-1.94-2.867-1.94-8.465 0-5.839 1.887-8.607a7.334 7.334 0 0111.579.128q1.954 2.897 1.954 8.479zm-10.788 0a17.156 17.156 0 00.702 5.816 2.43 2.43 0 002.361 1.758 2.455 2.455 0 002.354-1.78 23.552 23.552 0 00-.008-11.625 2.443 2.443 0 00-4.7 0 17.1 17.1 0 00-.71 5.831z" class="cls-1"/></svg>