<svg xmlns="http://www.w3.org/2000/svg" role="img" viewBox="-16.34 -3.34 1733.68 720.68"><defs><style>.cls-1{fill:none}</style></defs><path d="M440.83582 664.12815c-1.10755-3.23047-2.31916-6.42578-3.50538-9.62885q-6.87523-18.54693-13.75286-37.093c-5.57007 1.37841-11.12452 2.82434-16.71351 4.12109a250.451 250.451 0 0 1-34.373 5.664c-10.83063.96692-21.66217 2.0589-32.52673 1.57019-13.93177-.62659-27.83991-1.57867-41.61225-4.138-10.07831-1.87292-20.05414-4.06427-29.88983-6.92993-3.29816-.96082-3.48846-.90222-4.70288 2.42773-4.203 11.52527-8.40027 23.05323-12.48639 34.62012-1.70422 4.82416-3.95807 9.46655-4.94751 14.5343a314.58394 314.58394 0 0 0 71.50934 13.929c5.26062.08014 10.38406.74188 15.74408.90082 10.70486.31738 29.30768-.35047 39.0545-.97229a274.125 274.125 0 0 0 35.961-5.0362 297.04753 297.04753 0 0 0 28.92389-7.14154c5.94094-1.78728 5.31271-1.0078 3.31753-6.82744zm1243.47729-243.80866c-1.06824.092-1.23987 1.25153-2.0647 1.69556-6.67029 3.59088-10.94592 1.78448-12.87-5.49023-.3888-1.46985-.77979-2.93921-1.30579-4.92151-1.82776 1.52584-3.32544 2.81558-4.8645 4.05362-5.697 4.58267-12.01733 7.73645-19.39624 8.52127-13.91443 1.48-24.23169-4.1623-31.30908-15.963-4.40906-7.35141-6.36817-15.51071-7.17505-23.97589-1.01746-10.67456-.31262-21.20639 3.32617-31.34924 4.51489-12.58423 12.69519-21.42123 26.38745-23.76761a37.44849 37.44849 0 0 1 26.93836 5.1098c1.41.8805 2.83386 1.7385 4.28283 2.62629 1.04517-1.728.61353-3.30619.61841-4.79917.041-12.31326.00476-24.62668.03259-36.94.011-4.8551 1.157-6.08228 5.88685-6.49918a19.97025 19.97025 0 0 1 2.8031-.02746c5.28234.28027 6.50488 1.53756 6.50793 6.85916q.022 38.81049.01624 77.62106c.01208 10.90973.03247 21.82114.2406 32.72812.08129 4.26776.17724 8.60587 1.94482 12.64761zm-17.40906-45.836c0-7.00137-.13427-14.00656.06494-21.00225a6.132 6.132 0 0 0-3.32605-6.04993 36.3583 36.3583 0 0 0-10.649-4.61337c-16.52832-3.85755-27.86023 3.41742-31.11927 20.06393a67.11433 67.11433 0 0 0-.77172 19.97971c.66857 6.3764 1.772 12.6293 4.99829 18.30346 3.97973 6.9986 9.86047 10.5738 18.04126 10.025 8.73242-.58579 15.52539-4.968 21.5531-10.90833 1.27429-1.25589 1.20849-2.77286 1.20825-4.32736q-.00221-10.73551.00024-21.47092zm-736.66748-.41381c0-16.42713-.0003-32.4639.00012-48.50068.00025-7.01168-.03582-14.02368.01734-21.03494.0307-4.06152.91321-5.46908 4.80676-6.24136a43.51144 43.51144 0 0 1 16.70123-.02222c4.11109.78995 4.89374 2.251 4.89655 7.12461q.02106 36.46078.00726 72.92163.00018 18.69782-.006 37.39569c-.00812 5.52832-.97217 6.58841-6.56409 7.64959-4.64032.88062-9.28411.59266-13.94751.25736-4.60607-.33118-7.64978-2.68768-10.10046-6.532-8.11951-12.73667-16.46265-25.33042-24.68738-38.00022q-10.42794-16.06389-20.7865-32.17291a1.08619 1.08619 0 0 0-1.28839-.60938c-.80029 3.30472.40863 6.61731.36939 9.95719-.10425 8.88019-.02619 17.76254-.02448 26.644.002 10.59537.02613 21.19086-.01 31.78613-.022 6.45008-1.18847 7.90363-7.62866 8.878a35.80317 35.80317 0 0 1-12.54-.18112c-5.78772-1.17532-6.73742-2.25927-6.74-8.036q-.0151-35.05838-.00476-70.11691 0-19.86654.00824-39.733c.00873-5.42276 1.58807-7.32044 7.09851-7.64249 4.96735-.29034 9.96967-.185 14.94837-.01443 4.04589.13864 6.83587 2.37619 9.019 5.77258 10.77777 16.76755 21.66968 33.4617 32.51263 50.18735 3.89643 6.01043 7.763 12.04025 11.65863 18.05124.47921.73942.70693 1.72672 2.2842 2.21229zm-519.6001 208.01684c-9.03494 2.28082-18.06478 4.59888-27.284 6.02936-7.053 1.09442-14.09372 2.41315-21.26071 2.455-5.6048.03271-11.13276 1.02154-16.76307.90612-21.52676-.4414-42.75-2.89367-63.478-8.92834-3.71573-1.08179-3.79538-1.15845-2.568-4.57953q6.93252-19.32422 13.97229-38.61c.90128-2.48626 1.79325-4.97613 2.7241-7.45129 1.24786-3.31805 1.725-3.64288 5.15615-2.7843a181.40868 181.40868 0 0 0 18.26117 3.64459 165.14525 165.14525 0 0 0 19.47113 1.749 178.886 178.886 0 0 0 47.6409-4.72967c1.50376-.37213 2.96881-.90064 4.45325-1.3573a6.97651 6.97651 0 0 1 1.51746 2.8418q8.74905 24.05364 17.49228 48.10931a25.14761 25.14761 0 0 1 .66505 2.70525zM737.66473 360.6503a83.7442 83.7442 0 0 1 3.8794-29.07055c6.37909-19.6 20.24914-30.45758 40.241-33.74832a91.721 91.721 0 0 1 39.32568 1.85022 34.45277 34.45277 0 0 1 9.85486 4.164c3.978 2.58163 4.63537 4.64666 3.06067 9.09356a29.95783 29.95783 0 0 1-6.61194 10.62482c-2.08038 2.20523-4.23078 2.725-7.10272 1.43671a55.21439 55.21439 0 0 0-24.98633-4.79154 37.9734 37.9734 0 0 0-9.18219 1.47934 23.732 23.732 0 0 0-16.57868 15.78861 69.21791 69.21791 0 0 0 .03626 46.23016c3.13666 8.99643 9.60736 14.83768 19.07336 16.817 7.75647 1.62191 15.48.8731 23.06012-1.26688a73.9203 73.9203 0 0 0 10.93408-4.04849c3.78547-1.74915 5.45771-1.33136 8.16688 1.85342a26.39748 26.39748 0 0 1 5.44445 11.24442c.63575 2.68139-.40539 4.84918-2.20764 6.76953a19.70537 19.70537 0 0 1-8.33868 5.01144 89.52726 89.52726 0 0 1-38.16034 4.30509 72.63648 72.63648 0 0 1-18.19995-3.81586c-15.75641-5.93848-24.77381-17.70044-28.8252-33.64981a92.20492 92.20492 0 0 1-2.88309-26.27687zm245.21127.07703q.00036-26.41672.0047-52.8334a27.9225 27.9225 0 0 1 .12744-4.19962 6.23813 6.23813 0 0 1 5.84-5.739 23.52934 23.52934 0 0 1 3.26789-.08448q27.11809-.00627 54.236.00055c6.09143.00363 7.868 1.50473 8.2207 7.51709.20862 3.55808.46985 7.17475-.26806 10.71625-.87915 4.219-2.01624 5.16052-6.36817 5.17835-10.9093.04458-21.819.003-32.72857.02468-4.42115.00879-4.45716.0427-4.47266 4.28485q-.042 11.4549-.00128 22.91c.01337 4.39123.04236 4.43164 4.303 4.4425 10.13025.02579 20.26062-.00482 30.39087.01554 6.12365.01233 7.44189 1.24817 7.60473 7.3074.092 3.4249.121 6.86377-.07983 10.28119-.25537 4.34726-1.80811 5.69955-6.17737 5.83856-.9342.02976-1.87012.00952-2.80518.00955-9.19519.00049-18.3905-.014-27.58563.00559-6.09686.013-5.64685-.5322-5.65393 5.43677q-.01894 16.13063-.0039 32.26107c0 .93509.03747 1.87241-.01258 2.8049-.19916 3.70984-1.44916 5.36271-5.13617 6.17618a39.74093 39.74093 0 0 1-16.68109.15061c-4.76977-.97834-5.92132-2.45941-6.0177-7.334-.01837-.93472-.00342-1.87015-.00342-2.80523q-.00009-26.18297.00021-52.3659zm445.2241 51.33142c-1.33155 2.29431-1.26551 5.03915-2.23181 7.45532a6.903 6.903 0 0 1-9.9762 3.48218 3.44484 3.44484 0 0 1-1.85535-3.03113c-.03552-1.09027-.03711-2.18194-.03711-3.273q-.00257-60.33215-.00036-120.66427.00018-1.63665.02575-3.27332a3.51708 3.51708 0 0 1 2.63721-3.448 14.5921 14.5921 0 0 1 5.52661-.7344c5.63208.18155 6.822 1.362 6.82727 6.91272.0116 12.16-.01037 24.32.02124 36.47986.00391 1.51358-.30981 3.06832.36084 4.79028 1.66468-.08749 2.72522-1.35214 3.97168-2.13291a38.37289 38.37289 0 0 1 28.68763-5.26528c9.43566 1.83944 16.43957 7.15313 21.42529 15.24771a48.09591 48.09591 0 0 1 6.64868 19.29925c1.51111 11.70349 1.33154 23.318-2.32324 34.68442a48.90881 48.90881 0 0 1-3.8877 8.9924c-9.88061 17.60809-27.64282 19.93964-41.77063 13.86331a44.667 44.667 0 0 1-10.9386-7.10022c-.93652-.78486-1.6263-1.9123-3.1112-2.28492zm.92029-37.778c0 7.16061.08764 14.32287-.04908 21.48086a6.84209 6.84209 0 0 0 2.48133 5.69638 40.2703 40.2703 0 0 0 11.19128 7.504c12.3927 5.15057 24.30237 2.15781 29.49255-12.67484.30787-.87948.62024-1.76077.861-2.65988a73.01784 73.01784 0 0 0 1.23071-30.08206 31.06246 31.06246 0 0 0-3.76843-10.96994c-3.11267-5.40613-7.57129-8.9454-13.82288-10.12625-9.26282-1.7497-17.52942.69528-25.25574 5.70383a4.883 4.883 0 0 0-2.40417 4.64673c.114 7.15878.04358 14.32052.04346 21.4811zm126.67461 8.51335c-8.56568.00122-17.13172-.03155-25.697.01865-3.08923.01807-3.15539.11487-2.88427 3.17621a39.25337 39.25337 0 0 0 2.59948 10.85455c3.33228 8.53278 9.71644 13.01041 18.64087 14.21515a45.85432 45.85432 0 0 0 27.99195-5.19348c1.838-.96021 3.83056-2.78159 5.96667-.86743a11.862 11.862 0 0 1 4.31885 8.0169c.10339 1.60947-1.33814 2.72849-2.60327 3.68457a29.20219 29.20219 0 0 1-8.27466 4.25519 65.75492 65.75492 0 0 1-36.82214 1.72788c-13.28284-3.11081-21.93531-11.45612-25.62073-24.54435a75.72678 75.72678 0 0 1 .23218-42.86013c4.7865-16.01648 16.34826-25.10016 33.06225-26.4679a51.47189 51.47189 0 0 1 15.342.71829c9.3794 2.0593 16.45069 7.18592 21.02942 15.62506 5.05323 9.31345 6.34253 19.46973 6.12866 29.84641-.09741 4.72879-3.76647 7.76971-8.64758 7.78573-8.25407.0272-16.50834.00751-24.76268.0087zm-5.71973-13.011c6.68982 0 13.38.03769 20.06934-.01694 3.046-.02487 3.09826-.10816 3.06665-3.1752a34.22554 34.22554 0 0 0-3.32679-14.89319 17.00835 17.00835 0 0 0-12.91369-9.705 29.20331 29.20331 0 0 0-12.49719.42661 20.40083 20.40083 0 0 0-13.66077 11.09271 36.76473 36.76473 0 0 0-3.517 12.02368c-.53052 4.176-.46338 4.22043 3.64356 4.24066 6.37854.03144 12.75732.0083 19.136.00669zm-328.06194 13.01015c-8.40991.00049-16.82007-.02268-25.22986.01083-3.85327.01535-3.89514.07083-3.44165 3.95535a46.06392 46.06392 0 0 0 .93176 5.04587c2.84107 12.24942 9.86621 18.30106 22.40369 19.4715a44.2098 44.2098 0 0 0 23.57629-4.3327c1.40442-.67069 2.7721-1.42115 4.19275-2.05381a4.31809 4.31809 0 0 1 2.20557-.59335c3.2627.55737 4.06042 3.53262 5.42908 5.89169a4.05807 4.05807 0 0 1-.715 5.491 23.84536 23.84536 0 0 1-7.56836 4.53369 60.07665 60.07665 0 0 1-24.214 4.1912 68.12558 68.12558 0 0 1-12.53-1.22391c-14.46643-3.02756-23.93-11.4632-27.78808-25.78882a76.60033 76.60033 0 0 1 .23645-41.52054c4.63672-16.2641 16.23352-25.58554 33.10156-27.04541a51.499 51.499 0 0 1 15.344.67276c9.575 2.05368 16.72925 7.29495 21.3335 15.92386 4.90723 9.19711 6.15784 19.20254 5.99939 29.41775-.07349 4.73609-3.73084 7.92447-8.50452 7.94342-8.25402.03281-16.5083.00916-24.76257.00962zm-5.89661-13.01c6.68982 0 13.38.03714 20.06934-.01663 3.0603-.02457 3.10437-.106 3.08484-3.15885a34.374 34.374 0 0 0-3.10974-14.4798 16.81654 16.81654 0 0 0-12.21033-9.918 27.70891 27.70891 0 0 0-16.49536 1.23336 19.41536 19.41536 0 0 0-9.18128 7.63047c-3.09155 4.82144-4.43762 10.20446-5.08459 15.8348-.27087 2.35666.66919 2.94422 2.85815 2.911 6.68825-.1013 13.37915-.03673 20.06897-.03636zm-93.79113-3.23545q-.00019-24.54438-.00013-49.08869a27.21836 27.21836 0 0 1 .01331-2.80337c.22583-2.17-.55383-3.14808-2.86511-3.00486-2.48377.15387-4.98462.03107-7.47791.0307-7.32434-.00109-14.64892.03357-21.9729-.015-4.45288-.02948-5.36194-.97293-5.62463-5.49564-.03614-.62146-.026-1.24664-.01477-1.86969.10144-5.58477.91845-6.404 6.57678-6.40615q39.03735-.01429 78.07434-.003a23.71307 23.71307 0 0 1 2.80286.04206c3.03271.36276 3.69812 1.51532 3.74585 6.293.05676 5.67724-.54248 6.96978-3.58008 7.38949a24.09853 24.09853 0 0 1-3.26831.06241q-12.85658.0054-25.71314.004c-5.31457.00372-4.8446-.32172-4.84655 4.7327q-.0141 37.63472-.00452 75.26931c-.00012 8.72687.02649 17.45386-.0138 26.18058-.01916 4.16137-.91162 5.145-5.0299 5.76443a20.02756 20.02756 0 0 1-3.26062.18274c-6.34229-.09335-7.5376-1.32007-7.53931-7.7088q-.00659-24.77807-.00146-49.55622zm177.54699 58.43582a50.33744 50.33744 0 0 1-20.81372-3.96 26.39518 26.39518 0 0 1-3.31384-1.72574c-6.09741-3.69406-6.38049-8.8804-.85327-13.53153 1.54333-1.29873 2.79809-.82565 4.19653.0885a36.31114 36.31114 0 0 0 13.75171 5.596 29.75874 29.75874 0 0 0 13.427-.637c5.0658-1.45362 8.46851-4.60675 9.20593-10.02609.73206-5.379-.85437-9.86329-5.57324-12.92344a50.024 50.024 0 0 0-11.00415-5.07244 99.90051 99.90051 0 0 1-10.87561-4.23493q-16.81219-8.12305-15.09021-26.91669c.941-10.25277 8.68506-19.15521 19.63367-21.89865a47.21517 47.21517 0 0 1 28.48511 1.76972c5.59021 2.09036 6.32971 4.37173 3.629 9.67508a17.95411 17.95411 0 0 1-1.17468 2.01736c-1.82727 2.66422-2.51013 2.99182-5.32788 1.40073a26.73762 26.73762 0 0 0-12.96484-3.39328 21.37337 21.37337 0 0 0-10.44715 1.9971c-3.89184 2.01727-6.252 5.01571-6.39123 9.56659-.14124 4.62329 1.58081 8.1622 5.68982 10.46023a55.7279 55.7279 0 0 0 9.0343 3.78794 97.08878 97.08878 0 0 1 15.25146 7.00979c16.56751 9.20218 16.73584 34.11225.9751 44.84171a34.26678 34.26678 0 0 1-19.44981 6.10904zm56.97388-49.94837c0-9.66519.02612-19.33047-.0144-28.99548-.01392-3.30673-.08985-3.32272-3.38184-3.40588-1.71387-.04331-3.42957-.03562-5.144-.01832-2.24012.02265-3.41321-1.16024-3.89344-3.26a15.736 15.736 0 0 1-.2113-5.11694c.36414-3.6134 1.37769-4.39828 5.07422-4.62332 2.43237-.148 5.54126 1.13086 7.108-.76837 1.27161-1.54144.97119-4.42023 1.264-6.71918.45264-3.55414.73779-7.13083 1.24219-10.67691.42968-3.0202 1.56384-4.06155 4.526-4.38184a21.09325 21.09325 0 0 1 3.7362-.03692c3.58741.25369 4.64466 1.30154 4.71155 4.965q.13623 7.48032.00257 14.96448c-.03626 2.02213.709 2.76468 2.72583 2.7041 3.58215-.1076 7.17065-.06869 10.75512-.01278 3.95923.0617 4.89295.97656 5.17017 4.91961a22.05129 22.05129 0 0 1 .00976 2.80457c-.24487 4.25461-1.16381 5.17413-5.366 5.23761-3.42884.05179-6.86267.11008-10.28723-.02063-2.17566-.083-3.1493.59378-3.01233 2.89715.1477 2.48536.029 4.98646.02929 7.48072q.00312 22.44813.01416 44.89627a24.19564 24.19564 0 0 0 .56885 6.49765c1.28394 4.65964 3.8125 6.86487 8.64221 7.041a38.24944 38.24944 0 0 0 6.50855-.53527c2.01428-.27488 3.33447.41241 3.97986 2.333a25.004 25.004 0 0 1 .94055 3.12494c.84106 4.30649-.17261 6.32044-4.41333 7.2309-8.18811 1.75805-16.11267 1.20828-23.26477-3.80823-5.63355-3.95135-7.68213-9.74387-7.85059-16.19244-.24829-9.5022-.064-19.01572-.064-28.52442z"/><path d="M180.29272 523.17328c-6.44342-7.26593-13.30072-14.16852-19.20849-21.90094q-62.58655-81.91956-46.222-183.7113a226.64812 226.64812 0 0 1 55.3263-115.08674c3.7514-4.256 8.03827-8.0343 11.42883-12.59716a18.44793 18.44793 0 0 0 .59082-20.811 18.75926 18.75926 0 0 0-19.11212-8.3421 22.9149 22.9149 0 0 0-12.49854 7.95044C100.3241 221.47687 75.05829 284.40961 73.96039 357.169a290.141 290.141 0 0 0 3.27673 41.60217 268.27681 268.27681 0 0 0 37.41767 101.17975 290.219 290.219 0 0 0 37.67773 47.90356 18.84158 18.84158 0 0 0 26.37189 1.78369 18.38554 18.38554 0 0 0 2.07293-25.91852q-.23674-.27809-.48462-.54637zm380.52649-254.91034c.5976 1.45172 1.17829 1.74512 2.66755 1.19086 10.381-3.864 20.77661-7.6919 31.21832-11.38733 1.811-.64093 1.82684-1.24732 1.18011-2.83948a273.4562 273.4562 0 0 0-59.20331-89.24768 18.50206 18.50206 0 0 0-20.42083-4.14887 18.69971 18.69971 0 0 0-11.5022 17.15076 19.9316 19.9316 0 0 0 6.47052 14.46375 231.934 231.934 0 0 1 49.58984 74.81799z" class="cls-1"/><path d="M227.347 280.988a163.87517 163.87517 0 0 1 19.05634-23.49976 18.37625 18.37625 0 0 0 2.55219-21.81879 18.70434 18.70434 0 0 0-20.04358-9.05572 22.0633 22.0633 0 0 0-11.74213 7.494c-32.72626 34.55877-49.13416 75.69085-49.84326 119.10559a196.18848 196.18848 0 0 0 3.2633 37.68616 176.11624 176.11624 0 0 0 49.0138 92.10626 18.51082 18.51082 0 0 0 30.39306-6.312c3.216-8.27686.69617-15.19312-5.25952-21.4303-28.784-30.14429-42.14105-66.053-39.61041-107.70069A136.29763 136.29763 0 0 1 227.347 280.988zm294.43413 194.49528a13.93675 13.93675 0 0 0-14.67981 11.307q-5.21805 28.98459-10.23566 58.00513c-.27 1.5545-.56537 1.99292-2.30041 1.67218-10.22486-1.89008-20.45966-3.74988-30.73529-5.33423a13.73523 13.73523 0 0 0-15.75025 11.36841q-.0465.2883-.08081.57837a14 14 0 0 0 11.5108 15.60467q22.92116 4.07968 45.8639 8.03894a13.71978 13.71978 0 0 0 16.1181-10.801q.05731-.28977.10211-.582 5.39649-30.01713 10.65247-60.05963c.93133-5.27033 1.81274-10.54944 2.52978-14.73291h-.00012a14.325 14.325 0 0 0-12.99481-15.06493zM472.76984 300.825c.6983 1.60059 1.49176 1.03839 2.521.66229 10.33319-3.77587 20.65662-7.5805 31.02851-11.24792 1.76922-.62549 2.184-1.04663 1.35931-2.95013a180.15457 180.15457 0 0 0-37.74377-55.52845 18.93382 18.93382 0 0 0-13.76832-5.58746 17.9867 17.9867 0 0 0-16.50927 11.1958 17.428 17.428 0 0 0 3.52929 20.27863 146.347 146.347 0 0 1 29.58325 43.17724zm1.13061 145.69624q.04532-.23154.08283-.46472 5.36644-30.0325 10.6502-60.08c.91755-5.19494 1.78083-10.39941 2.47547-14.46661h-.00012c.04895-8.28137-5.2909-14.42523-12.12934-15.12775a13.78083 13.78083 0 0 0-15.5169 11.28381q-5.20834 28.8773-10.19483 57.79419c-.31079 1.80042-.95306 2.06977-2.5719 1.76838Q434.2185 424.90581 421.71 422.753a26.39042 26.39042 0 0 0-10.15069-.83081 14.02419 14.02419 0 0 0 1.01648 27.68176q22.46585 4.01844 44.95062 7.92975a13.95319 13.95319 0 0 0 16.37404-11.01246z" class="cls-1"/><path d="M671.213 347.99323c-7.563 2.75451-15.04663 5.48327-22.53259 8.20605q-55.61169 20.19983-111.20075 40.46179a14.67844 14.67844 0 0 1-9.78869.52606 14.0017 14.0017 0 0 1 .0423-26.77069q69.33993-25.30434 138.75305-50.40594a3.11636 3.11636 0 0 0 2.39789-4.18317c-.64606-3.57977-1.15619-7.18445-1.70533-10.78149a286.78038 286.78038 0 0 0-15.304-59.07532Q597.55246 103.48022 454.91711 49.749a293.73658 293.73658 0 0 0-57.98535-14.93768c-9.18664-1.43836-18.40448-2.75214-27.69885-3.29218-8.647-.50244-24.1814-.84045-34.63892-.71228-8.62219.10566-24.36523 1.56128-32.915 2.64563a300.51912 300.51912 0 0 0-41.58374 8.2392A322.42554 322.42554 0 0 0 90.63794 152.0625c-45.546 56.25861-69.38763 120.94006-72.442 193.212a310.0649 310.0649 0 0 0 3.04474 58.09387 332.641 332.641 0 0 0 9.24841 43.72058 328.17223 328.17223 0 0 0 183.25706 209.70731c1.53638.68055 2.08606.54944 2.69843-1.14709q13.58726-37.48443 27.22815-74.949 35.02258-96.233 70.098-192.4469a2.80357 2.80357 0 0 0-.59247-3.25384 41.30117 41.30117 0 0 1-9.57379-36.24738 41.98379 41.98379 0 0 1 76.267-14.41967c.805 1.26422.77222 1.64959-.72717 2.181-8.25232 2.92511-16.48926 5.8991-24.67566 9.0036l-.00684.0025a27.8795 27.8795 0 0 0-16.55646 35.7829c1.83295 5.1878 3.70362 10.36407 5.67945 15.49847a6.48715 6.48715 0 0 1 .058 4.90772q-16.18359 44.456-32.4754 88.87268c-.702 1.91394-.48792 2.53924 1.583 3.01184a140.57878 140.57878 0 0 0 63.99237.08435c1.52508-.35565 2.10241.006 2.6358 1.50348q5.58078 15.65872 11.39679 31.23034c.63544 1.70118.47565 2.24152-1.41077 2.71265a177.40007 177.40007 0 0 1-89.89355-.49451c-1.47284-.391-2.08753-.10919-2.62921 1.3963q-8.88108 24.72419-17.98084 49.368c-.6618 1.79193-.1369 2.1333 1.4654 2.59613a234.09052 234.09052 0 0 0 128.56372.24481c1.6582-.47711 2.15606-.05365 2.69738 1.46747 3.66291 10.29455 7.37861 20.57153 11.22541 30.79834.70263 1.86834.569 2.53314-1.45343 3.11694a273.36752 273.36752 0 0 1-69.103 10.74414 268.76585 268.76585 0 0 1-84.63953-11.25409c-2.00189-.60107-2.48816-.01178-3.079 1.63794q-6.58218 18.26193-13.21777 36.50476c-1.66418 4.5752-3.36536 9.1369-5.04742 13.6994 171.16479 52.94458 334.68261-39.54168 394.08844-173.1579-5.56659 2.03046-11.0105 4.02173-16.45838 6.0019-13.18316 4.79168-26.35229 9.62243-39.55847 14.34942l-.05444.02021a13.98552 13.98552 0 1 1-9.68189-26.242c1.36963-.53863 2.7721-.993 4.15564-1.4967q37.12674-13.549 74.28461-27.01276a3.14432 3.14432 0 0 0 2.2395-2.30261c1.32031-4.59607 2.79181-9.14862 4.10748-13.74585a322.23663 322.23663 0 0 0 9.53418-47.22418q1.80726-13.764 2.2367-27.61469c.23089-7.44223.04689-14.89712.04689-22.53115zM178.70441 549.63812a18.84158 18.84158 0 0 1-26.37189-1.78369 290.219 290.219 0 0 1-37.67773-47.90356 268.27681 268.27681 0 0 1-37.41767-101.17975 290.141 290.141 0 0 1-3.27673-41.60212c1.0979-72.75934 26.36371-135.69208 76.63714-188.49445a22.9149 22.9149 0 0 1 12.49854-7.95044 18.75926 18.75926 0 0 1 19.11212 8.3421 18.44793 18.44793 0 0 1-.59082 20.811c-3.39056 4.56286-7.67743 8.34112-11.42883 12.59716a226.64812 226.64812 0 0 0-55.3263 115.08663q-16.36459 101.7918 46.222 183.7113c5.90777 7.73242 12.76507 14.635 19.20849 21.90094q.24775.26833.48462.54632a18.38554 18.38554 0 0 1-2.07294 25.91856zm66.03277-94.37469c5.95569 6.23718 8.47553 13.15344 5.25952 21.4303a18.51082 18.51082 0 0 1-30.39306 6.312 176.11624 176.11624 0 0 1-49.0138-92.10626 196.18848 196.18848 0 0 1-3.2633-37.68616c.7091-43.41474 17.117-84.54682 49.84326-119.10559a22.0633 22.0633 0 0 1 11.74213-7.494 18.70434 18.70434 0 0 1 20.04358 9.05572 18.37625 18.37625 0 0 1-2.55219 21.81879A163.87517 163.87517 0 0 0 227.347 280.988a136.29763 136.29763 0 0 0-22.22021 66.5747c-2.53066 41.64775 10.8264 77.55644 39.61039 107.70073zm271.52387-293.433a18.50206 18.50206 0 0 1 20.42083 4.14887 273.4562 273.4562 0 0 1 59.20331 89.2477c.64673 1.59216.63092 2.19855-1.18011 2.83948-10.44171 3.69543-20.83734 7.52331-31.21832 11.38733-1.48926.55426-2.06995.26086-2.66755-1.19086a231.934 231.934 0 0 0-49.58984-74.818 19.9316 19.9316 0 0 1-6.47052-14.46375 18.69971 18.69971 0 0 1 11.5022-17.15076zm-76.60376 75.5387a17.9867 17.9867 0 0 1 16.50927-11.1958 18.93382 18.93382 0 0 1 13.76832 5.58746 180.15457 180.15457 0 0 1 37.74377 55.52845c.82465 1.9035.40991 2.32464-1.35931 2.95013-10.37189 3.66742-20.69532 7.47205-31.02851 11.24792-1.02923.3761-1.82269.9383-2.521-.66229a146.347 146.347 0 0 0-29.58326-43.17724 17.428 17.428 0 0 1-3.52928-20.27862zm-27.08148 212.2348a14.02419 14.02419 0 0 1-1.01648-27.68176 26.39042 26.39042 0 0 1 10.15067.83083q12.5084 2.15268 24.98584 4.47553c1.61884.30139 2.26111.032 2.5719-1.76838q4.9866-28.91683 10.19483-57.79419a13.78083 13.78083 0 0 1 15.5169-11.28381c6.83844.70252 12.17829 6.84638 12.12934 15.12775h.00012c-.69464 4.0672-1.55792 9.27167-2.47547 14.46661q-5.28378 30.04752-10.6502 60.08-.03736.233-.08283.46472a13.95319 13.95319 0 0 1-16.374 11.01245q-22.4848-3.91139-44.95062-7.92974zm122.20025 40.94422c-.717 4.18347-1.59845 9.46258-2.52978 14.73291q-5.25586 30.04257-10.65247 60.05963-.04486.29205-.10211.582a13.71978 13.71978 0 0 1-16.1181 10.801q-22.94258-3.95919-45.8639-8.03894a14 14 0 0 1-11.5108-15.60467q.03406-.29.08081-.57837A13.73523 13.73523 0 0 1 463.83 541.13336c10.27563 1.58435 20.51043 3.44415 30.73529 5.33423 1.735.32074 2.03039-.11768 2.30041-1.67218q5.01764-29.02066 10.23566-58.00513a13.93675 13.93675 0 0 1 14.67981-11.307 14.325 14.325 0 0 1 12.99481 15.06488z"/></svg>