<?xml version="1.0" encoding="utf-8"?>
<!-- Generator: Adobe Illustrator 21.1.0, SVG Export Plug-In . SVG Version: 6.00 Build 0)  -->
<svg version="1.1" id="Layer_1" xmlns="http://www.w3.org/2000/svg" xmlns:xlink="http://www.w3.org/1999/xlink" x="0px" y="0px"
	 viewBox="0 0 543.6 594" style="enable-background:new 0 0 543.6 594;" xml:space="preserve">
<style type="text/css">
	.st0{fill:#FFFFFF;}
	.st1{fill:#B31AAB;}
	.st2{fill:#D163CE;}
	.st3{fill:#E13EAF;}
</style>
<g>
	<path class="st0" d="M25.3,492.5c0,4.4,1,8.5,2.9,12.1s4.5,6.8,7.6,9.3c3.1,2.6,6.8,4.6,10.9,6c4.1,1.4,8.4,2.1,12.9,2.1
		c6,0,11.2-1.4,15.7-4.2c4.4-2.8,8.5-6.5,12.2-11l14.6,11.2c-10.7,13.9-25.7,20.8-45.1,20.8c-8,0-15.3-1.4-21.8-4.1
		c-6.5-2.7-12-6.5-16.5-11.3c-4.5-4.8-8-10.4-10.4-16.9C5.9,500,4.7,493,4.7,485.4c0-7.6,1.3-14.6,4-21.1
		c2.6-6.5,6.3-12.2,10.9-16.9s10.2-8.5,16.6-11.3c6.4-2.7,13.4-4.1,21-4.1c9,0,16.6,1.6,22.8,4.7c6.2,3.1,11.3,7.3,15.3,12.3
		c4,5.1,6.9,10.8,8.7,17.2c1.8,6.4,2.7,12.8,2.7,19.4v6.9H25.3z M86.2,477c-0.1-4.3-0.8-8.2-2-11.8c-1.2-3.6-3-6.7-5.5-9.3
		c-2.4-2.6-5.5-4.7-9.1-6.2c-3.6-1.5-7.9-2.3-12.8-2.3c-4.7,0-9,0.9-13,2.7c-3.9,1.8-7.3,4.1-10,7c-2.7,2.9-4.8,6-6.3,9.5
		c-1.5,3.5-2.3,7-2.3,10.4H86.2z"/>
	<path class="st0" d="M123.6,434.5h19.3v15.7h0.4c2.4-5.4,6.7-9.8,12.7-13.2c6-3.4,12.9-5,20.8-5c4.9,0,9.5,0.8,14.1,2.3
		c4.5,1.5,8.4,3.8,11.8,7c3.4,3.1,6,7.2,8,12.1c2,4.9,3,10.8,3,17.5v65.4h-19.3v-60.1c0-4.7-0.6-8.8-1.9-12.1
		c-1.3-3.4-3-6.1-5.2-8.2c-2.1-2.1-4.6-3.6-7.4-4.5c-2.8-0.9-5.7-1.4-8.7-1.4c-4,0-7.7,0.6-11.2,1.9c-3.4,1.3-6.4,3.3-9,6.1
		c-2.6,2.8-4.6,6.3-6,10.6c-1.4,4.3-2.1,9.4-2.1,15.2v52.3h-19.3V434.5z"/>
	<path class="st0" d="M219.9,434.5h22.3l30.5,77.9l29.2-77.9h20.6l-39.9,101.7h-21.2L219.9,434.5z"/>
	<path class="st0" d="M323.7,485.4c0-7.4,1.4-14.4,4.2-20.8c2.8-6.4,6.6-12.1,11.5-16.9c4.9-4.9,10.6-8.7,17.2-11.5
		c6.6-2.8,13.7-4.2,21.2-4.2c7.6,0,14.7,1.4,21.2,4.2c6.6,2.8,12.3,6.6,17.2,11.5c4.9,4.9,8.7,10.5,11.5,16.9
		c2.8,6.4,4.2,13.4,4.2,20.8c0,7.4-1.4,14.4-4.2,20.9c-2.8,6.5-6.6,12.2-11.5,16.9c-4.9,4.8-10.6,8.6-17.2,11.4
		c-6.6,2.8-13.7,4.2-21.2,4.2c-7.6,0-14.7-1.4-21.2-4.2c-6.6-2.8-12.3-6.6-17.2-11.4c-4.9-4.8-8.7-10.4-11.5-16.9
		C325.1,499.8,323.7,492.8,323.7,485.4z M344.3,485.4c0,5.2,0.8,9.9,2.4,14.3c1.6,4.4,3.8,8.1,6.7,11.2c2.9,3.1,6.4,5.5,10.5,7.3
		c4.1,1.8,8.8,2.7,13.9,2.7c5.1,0,9.8-0.9,13.9-2.7c4.1-1.8,7.6-4.2,10.5-7.3c2.9-3.1,5.1-6.8,6.7-11.2c1.6-4.4,2.4-9.1,2.4-14.3
		c0-5.1-0.8-9.9-2.4-14.3c-1.6-4.4-3.8-8.1-6.7-11.2c-2.9-3.1-6.4-5.5-10.5-7.3c-4.1-1.8-8.8-2.7-13.9-2.7c-5.1,0-9.8,0.9-13.9,2.7
		c-4.2,1.8-7.7,4.2-10.5,7.3c-2.9,3.1-5.1,6.8-6.7,11.2C345.1,475.5,344.3,480.2,344.3,485.4z"/>
	<path class="st0" d="M433.4,434.5h22.3l30.1,79.4h0.4l28.9-79.4h20.6l-48.3,123.6c-1.7,4.4-3.5,8.5-5.3,12.1
		c-1.8,3.6-4.1,6.8-6.6,9.3c-2.6,2.6-5.7,4.6-9.3,6c-3.6,1.4-8.1,2.1-13.4,2.1c-2.8,0-5.7-0.2-8.7-0.5c-2.9-0.4-5.7-1.1-8.4-2.3
		l2.3-17.6c3.8,1.6,7.7,2.4,11.5,2.4c3,0,5.5-0.4,7.6-1.2c2.1-0.8,3.8-1.9,5.3-3.4c1.5-1.5,2.7-3.3,3.7-5.3c1-2,2-4.3,3-6.9
		l6.3-16.1L433.4,434.5z"/>
</g>
<g>
	<polygon class="st1" points="157.9,171.8 158.5,198.8 186.9,216.4 186.3,189.4 	"/>
	<path class="st1" d="M227.2,283.9l-0.6-26.4L201.7,242c-0.4-0.2-0.7-0.5-1.1-0.7l0.6,26.5L227.2,283.9z"/>
	<path class="st1" d="M138.5,319.4l-64.9-40.2L72,211.7l31.8-13.7l-0.6-27l-50.8,21.9c-3.9,1.7-6.3,5.3-6.2,9.5l1.9,81
		c0.1,4.2,2.6,8.3,6.6,10.8l77.9,48.2c3.6,2.2,8,2.9,11.7,1.7c0.4-0.1,0.7-0.3,1.1-0.4l47.8-20.6L167.3,307L138.5,319.4z"/>
	<path class="st2" d="M348.3,170.2c-0.1-4.9-3.1-9.7-7.8-12.6L246,99.1l-2.9,1.3l0.7,28.3l74.8,46.4l1.8,75.8l28.6,17.7l1.6-0.7
		L348.3,170.2z"/>
	<path class="st2" d="M235.1,303.4L147.3,249l-2.2-91.4l40-17.2l-0.7-31.5l-62.1,26.8c-4.6,2-7.3,6.2-7.2,11l2.5,107.1
		c0.1,4.9,3.1,9.6,7.7,12.5l102.9,63.8c4.2,2.6,9.3,3.3,13.6,2c0.4-0.1,0.9-0.3,1.3-0.5l60.8-26.2l-30.2-18.7L235.1,303.4z"/>
	<path class="st3" d="M482.1,95.2l-132-81.8c-4.9-3-10.7-3.8-15.6-2.2c-0.5,0.2-1,0.3-1.4,0.5L204.3,67.2c-5.2,2.2-8.4,7-8.2,12.6
		l3.2,137.3c0.1,5.6,3.5,11,8.9,14.3l132,81.8c4.9,3,10.7,3.8,15.6,2.3c0.5-0.2,1-0.3,1.5-0.5L486,259.5c5.2-2.2,8.3-7.1,8.2-12.6
		L491,109.6C490.8,104,487.4,98.6,482.1,95.2z M348,282.6l-114.7-71.1l-2.8-119.3l111.9-48.2L457,115.1l2.8,119.3L348,282.6z"/>
</g>
</svg>
