<?xml version="1.0" encoding="utf-8"?>
<!-- Generator: Adobe Illustrator 21.1.0, SVG Export Plug-In . SVG Version: 6.00 Build 0)  -->
<svg version="1.1" id="Layer_1" xmlns="http://www.w3.org/2000/svg" xmlns:xlink="http://www.w3.org/1999/xlink" x="0px" y="0px"
	 viewBox="0 0 504 504" style="enable-background:new 0 0 504 504;" xml:space="preserve">
<style type="text/css">
	.st0{fill:none;}
	.st1{fill:#231F20;}
	.st2{fill:#67CFE3;}
	.st3{fill:#DFCAA3;}
	.st4{fill:#648C1A;}
</style>
<g>
	<path class="st0" d="M274.8534546,195.9853668c-23.2111969,0-42.0273895,18.8163452-42.0273895,42.0273895
		c0,23.2109985,18.8161926,42.0271912,42.0273895,42.0271912c23.2104492,0,42.0270081-18.8161926,42.0270081-42.0271912
		C316.8804626,214.801712,298.0639038,195.9853668,274.8534546,195.9853668z M269.1737976,265.2737122
		c-7.3188477,0-13.2519684-5.9330444-13.2519684-13.2518463c0-7.3187866,5.9331207-13.2518158,13.2519684-13.2518158
		c7.3186646,0,13.25177,5.9330292,13.25177,13.2518158C282.4255676,259.3406677,276.4924622,265.2737122,269.1737976,265.2737122z"
		/>
	<path class="st0" d="M267.3409729,295.6058044c-6.7833862-2.7723694-15.704422-4.2244873-26.5149841-4.3161316
		l-4.7463837-0.0401917c-2.7889404-5.1821594-11.7350006-8.0297241-21.9257965-6.7640381
		c10.1907959-1.2655029,19.136673,1.5819702,21.9255981,6.7640381c0.3913574,0.7272644,0.6628571,1.500061,0.7981567,2.3144226
		c0.0717926,0.4329224,0.1038208,0.8673096,0.0977478,1.3015747c-0.0868835,6.222229-8.0037842,12.438446-18.768158,14.6538086
		c-0.2665405,0.0548096-0.5343628,0.1069946-0.8042297,0.1568298c-0.242981,0.0449219-0.4850311,0.0913086-0.7307739,0.1320801
		c-11.6037598,1.9265137-21.961319-1.4829712-24.0743103-7.6837463l-3.8913574,1.3143921
		c-2.4163666,0.8161621-23.6649323,8.4034424-25.6492767,23.2840576c-0.6599121,4.9489136,0.6748199,9.4876404,3.8596954,13.1254883
		c3.8331909,4.3783875,10.0958099,6.9923096,16.7527161,6.9923096c3.6027222,0,6.9462738-0.7952576,9.6685638-2.2998657
		c1.6984711-0.9385376,3.513092-2.07547,5.4340973-3.2792053c6.5757294-4.1203003,14.7595367-9.2480774,24.6734772-10.5525513
		c0.8872528-0.1167297,2.3650055-0.1759033,4.3924103-0.1759033c2.2085419,0,4.8608856,0.0682373,7.6687775,0.1405334
		c3.2410126,0.083374,6.9142456,0.177948,10.4766541,0.177948c10.4958038,0,16.8000336-0.8158264,21.0796051-2.7278137
		c9.0662537-4.0509949,13.5665283-11.9413452,12.0386963-21.1068726
		C278.3394775,302.4463196,274.1628113,298.3938904,267.3409729,295.6058044z M264.4478455,322.2697754
		c-3.9364624,1.758667-11.0669861,2.170105-18.4642487,2.170105c-6.5072479,0-13.2206726-0.3184814-18.1454315-0.3184814
		c-2.1317749,0-3.9289093,0.0596924-5.2288513,0.2307434c-14.3873291,1.8930664-25.1780243,10.6013184-32.3724365,14.5769348
		c-1.8151703,1.0031128-4.1350708,1.4998779-6.5672607,1.4998779c-7.2072906,0-15.3894501-4.3658752-14.2568359-12.8586426
		c1.5145721-11.3587341,21.3453979-18.0568848,21.3453979-18.0568848c2.5472412,3.1468201,6.87854,6.7693787,17.8888245,6.7693787
		c2.8992004,0,6.2617035-0.2512207,10.1764374-0.8283691c20.6917419-3.0507812,21.9482422-17.7532654,21.9482422-17.7532654
		c22.3383026,0.1893311,31.3758698,6.5935364,32.0057526,10.3701172
		C273.3454895,311.4789124,273.3454895,318.2940674,264.4478455,322.2697754z"/>
	<path class="st0" d="M216.328476,337.5913391c-5.3878937,2.071228-10.1637268,5.0223389-14.2960358,7.6101685
		c-0.0614777,0.0383606-0.1259155,0.0783081-0.1868439,0.1165466c0.9524078,4.4155273,4.1418915,14.5985718,12.9955597,11.9611511
		c4.5797882-1.3641968,4.6709137-6.9635925,3.6813202-12.0776978
		C217.9345398,342.1637878,216.9655609,339.2970886,216.328476,337.5913391z"/>
	<path class="st0" d="M239.4189148,335.2902222c-0.8452759-0.0205078-1.6736145-0.041687-2.4741669-0.0625
		c-2.7915039-0.072052-5.4263611-0.13974-7.6006622-0.13974c-2.3791656,0-3.5106812,0.0831909-4.0424805,0.1531372
		c-1.0803375,0.1421509-2.139328,0.3392639-3.1809998,0.5739441c0.3755035,2.3613281,1.0483093,5.9960938,2.0583191,9.3864441
		c1.190979,3.9981995,2.8511505,7.65625,5.0501251,8.480896c2.3103333,0.8664856,11.1588287,1.6413574,11.0292511-8.480896
		c-0.0047913-0.3774719-0.0186005-0.765686-0.0491486-1.1739502
		C239.9048767,339.9714355,239.6379547,337.1994629,239.4189148,335.2902222z"/>
	<path class="st0" d="M174.3890839,297.9524841c7.5666046-7.6000977,12.2447052-18.078064,12.2447052-29.6497803
		c0-23.2109985-18.8160248-42.0273895-42.0272064-42.0273895s-42.0271988,18.816391-42.0271988,42.0273895
		s18.8160172,42.0271912,42.0271988,42.0271912c7.7635651,0,15.029953-2.1136475,21.2704773-5.7840881
		C168.9925385,302.7134094,171.8549194,300.4980164,174.3890839,297.9524841z M140.820343,296.3208923
		c-7.3188477,0-13.2519684-5.933136-13.2519684-13.2518921c0-7.3187256,5.9331207-13.2518616,13.2519684-13.2518616
		c7.3186493,0,13.25177,5.933136,13.25177,13.2518616C154.072113,290.3877563,148.1389923,296.3208923,140.820343,296.3208923z"/>
	<path class="st1" d="M142.8190308,451.050293c-7.1938629,1.6443176-28.3640137,13.1542358-46.6567001,16.648407
		c-18.2926941,3.4941406-34.1189499,5.3439636-39.6684608,7.3992615s-9.8657112,6.1660767,1.0276947,10.2768555
		c10.8934059,4.1105957,63.7160835,5.549469,68.443512,0c4.7272491-5.549469-3.2603455-7.9546509-14.7987518-7.8104248
		c-8.2213593,0.1028137-7.2129974-2.7619629-7.1936722-3.0830383c0,0,0.5139389-3.5968323,13.1542206-5.3439941
		c12.6200333-1.7441406,68.4435196-6.9881287,67.4158249-12.9487305
		C183.5149994,450.2281799,150.0126953,449.4059448,142.8190308,451.050293z"/>
	
		<ellipse transform="matrix(0.977126 -0.2126611 0.2126611 0.977126 -102.8364792 33.9916611)" class="st1" cx="106.5932465" cy="495.0349426" rx="10.9448042" ry="3.1857724"/>
	
		<ellipse transform="matrix(0.9968467 -0.0793513 0.0793513 0.9968467 -38.9112473 8.0046139)" class="st1" cx="81.2610016" cy="493.5961914" rx="11.5099974" ry="3.0829542"/>
	
		<ellipse transform="matrix(0.9908476 -0.1349852 0.1349852 0.9908476 -65.7298889 12.7307568)" class="st1" cx="61.015686" cy="491.0783691" rx="7.7076182" ry="2.4150622"/>
	
		<ellipse transform="matrix(0.9896252 -0.143673 0.143673 0.9896252 -69.7445755 11.6888466)" class="st1" cx="46.0630035" cy="488.7661133" rx="7.4507141" ry="1.9525671"/>
	
		<ellipse transform="matrix(0.9896252 -0.143673 0.143673 0.9896252 -69.1743927 11.1578856)" class="st1" cx="42.6716423" cy="484.5526123" rx="7.4506197" ry="1.9525671"/>
	
		<ellipse transform="matrix(0.9896235 -0.143685 0.143685 0.9896235 -68.5047607 10.9824476)" class="st1" cx="41.7852707" cy="479.788147" rx="6.4771523" ry="1.6974639"/>
	<path class="st1" d="M252.5749664,456.8052368c-12.5375671,0.6166077-40.9015656-0.8220825-44.8067322,5.7550659
		c-3.9051666,6.5770569,11.5098724,9.0434875,35.7632904,6.9881897c24.2530518-2.0552673,58.5776062-4.727356,60.0163574-12.1266479
		c1.4387207-7.399292-6.371582-5.9604492-7.1936646-10.6878052c-0.8222656-4.7273865,8.6323853-4.7273865,10.4821777-11.7155762
		c1.849762-6.9881287-12.7431946-6.1660767-25.6919861-6.1660767c-12.9486084,0-34.5299835,1.2332153-36.5853729,8.0158997
		c-2.0553894,6.7827148,9.8657074,6.7827148,18.2926788,8.4270325c8.4269714,1.6441956,5.9607544,4.7272339,5.9607544,4.7272339
		C268.4012451,454.3388062,265.1127319,456.1886292,252.5749664,456.8052368z"/>
	<ellipse class="st1" cx="219.0469513" cy="474.8410034" rx="10.8677263" ry="3.5454783"/>
	<ellipse class="st1" cx="247.0256042" cy="474.0702209" rx="7.24512" ry="3.2371979"/>
	<ellipse class="st1" cx="269.6087646" cy="471.7579651" rx="7.9388089" ry="2.6205909"/>
	<ellipse class="st1" cx="287.0278931" cy="468.829071" rx="5.7806153" ry="2.7747312"/>
	<ellipse class="st1" cx="302.0577698" cy="465.6689758" rx="5.8578348" ry="2.6976497"/>
	<path class="st1" d="M46.4705925,389.8785095c0,3.5046997,7.6442871,6.818512,21.2215157,9.7677002
		c-0.9669495-7.0322571-0.3694458-14.1247559,0.5365753-19.6504517
		C54.3162575,382.9737549,46.4705925,386.328186,46.4705925,389.8785095z"/>
	<path class="st1" d="M447.1070862,380.797821c-0.2059937,0.5693665-0.4246826,1.1314697-0.6606445,1.6833496
		c-1.6699524,3.9057312-4.0654907,7.3547363-7.1213379,10.2489929c-6.132843,5.8092957-11.5093079,9.2894592-16.3125916,10.5589294
		c26.5343018-3.7295837,42.2852783-8.3741455,42.2852783-13.4105835
		C465.2977905,386.6435547,458.7828064,383.5710754,447.1070862,380.797821z"/>
	<path class="st2" d="M401.7201233,373.4266052c-1.6872253-12.3681946-6.9630127-17.9165649-11.6173706-22.8128357
		c-4.3336792-4.559082-8.4284363-8.8650818-7.1102905-16.770752c1.2187805-7.3086548,7.0333557-11.8055725,16.533844-12.9754333
		c-5.7700195-39.0014648-14.225708-88.206131-25.0953674-130.1827545
		c-5.4276428-20.9637146-14.0125732-35.5251465-25.5263062-45.2061462
		c-13.1757507,6.7408447-29.0246582,14.1501617-46.7163391,21.8216095
		c-12.7834778,5.5428772-25.9811401,10.9730072-38.5321655,15.9077148
		c-10.1038971,10.8400116-21.1441956,21.5238953-27.91008,24.5687408c-4.8170624,2.1675262-9.0977478,3.030426-12.8184662,3.030426
		c-8.0547638,0-13.4929199-4.0402222-16.1253815-7.6337891c-3.0517883,0.8065186-5.4896851,1.3294373-7.147644,1.5042114
		c-1.9830475,0.2087402-4.9050598,0.4566956-8.5597076,0.7204742c1.404129,3.6769562,0.8450928,7.9819794-1.8479309,11.22612
		c-2.9619598,3.5684052-7.7352142,5.3610229-14.4998016,5.3610229c-9.7337341,0-23.5924072-3.7126617-42.1221924-11.1967621
		c-2.7261505-1.1008606-5.2292175-2.0796356-7.5283203-2.9516144c-1.4188538,0.0070953-2.8373337,0.0121155-4.255455,0.0121155
		c-0.0040512,0-0.0084686,0-0.0130692,0c-17.7032776-0.0003204-31.538208-0.5567017-42.3839417-1.4449463
		c-11.8787613,24.5897217-6.7167282,51.863266-2.3686829,74.3932343
		c4.1663666,21.5909424,18.6227341,60.0082397,32.0311661,93.0160828
		c4.9746399,12.2456055,9.8034897,23.742981,13.9111404,33.3640442
		c36.2989502,3.2107544,82.8389435,5.1395264,133.5847015,5.1395264c60.3889313,0,114.7848969-2.7355042,153.0895233-7.1083374
		c-2.7907715-11.4857178-6.3264771-27.4669189-6.9339294-31.5320435
		C401.7451782,373.594635,401.7297058,373.4986267,401.7201233,373.4266052z M102.5793839,268.3027039
		c0-23.2109985,18.8160172-42.0273895,42.0271988-42.0273895s42.0272064,18.816391,42.0272064,42.0273895
		c0,11.5717163-4.6781006,22.0496826-12.2447052,29.6497803c-2.5341644,2.5455322-5.3965454,4.7609253-8.5120239,6.5933228
		c-6.2405243,3.6704407-13.5069122,5.7840881-21.2704773,5.7840881
		C121.395401,310.329895,102.5793839,291.5137024,102.5793839,268.3027039z M214.841156,357.2792053
		c-8.8536682,2.6374207-12.0431519-7.5456238-12.9955597-11.9611511c0.0609283-0.0382385,0.1253662-0.078186,0.1868439-0.1165466
		c4.132309-2.5878296,8.9081421-5.5389404,14.2960358-7.6101685c0.637085,1.7057495,1.6060638,4.5724487,2.1940002,7.6101685
		C219.5120697,350.3156128,219.4209442,355.9150085,214.841156,357.2792053z M229.2290497,353.6824036
		c-2.1989746-0.824646-3.8591461-4.4826965-5.0501251-8.480896c-1.0100098-3.3903503-1.6828156-7.025116-2.0583191-9.3864441
		c1.0416718-0.2346802,2.1006622-0.4317932,3.1809998-0.5739441c0.5317993-0.0699463,1.6633148-0.1531372,4.0424805-0.1531372
		c2.1743011,0,4.8091583,0.067688,7.6006622,0.13974c0.8005524,0.020813,1.628891,0.0419922,2.4741669,0.0625
		c0.2190399,1.9092407,0.4859619,4.6812134,0.7902374,8.7373352c0.0305481,0.4082642,0.0443573,0.7964783,0.0491486,1.1739502
		C240.3878784,355.323761,231.5393829,354.5488892,229.2290497,353.6824036z M267.0632019,328.1238403
		c-4.2795715,1.9119873-10.5838013,2.7278137-21.0796051,2.7278137c-3.5624084,0-7.2356415-0.094574-10.4766541-0.177948
		c-2.8078918-0.0722961-5.4602356-0.1405334-7.6687775-0.1405334c-2.0274048,0-3.5051575,0.0591736-4.3924103,0.1759033
		c-9.9139404,1.3044739-18.0977478,6.432251-24.6734772,10.5525513c-1.9210052,1.2037354-3.7356262,2.3406677-5.4340973,3.2792053
		c-2.72229,1.5046082-6.0658417,2.2998657-9.6685638,2.2998657c-6.6569061,0-12.9195251-2.6139221-16.7527161-6.9923096
		c-3.1848755-3.6378479-4.5196075-8.1765747-3.8596954-13.1254883
		c1.9843445-14.8806152,23.2329102-22.4678955,25.6492767-23.2840576l3.8913574-1.3143921
		c-0.1284943-0.3768921-0.2302856-0.7628784-0.2961884-1.1598511c-1.1501007-6.9278259,7.8961029-14.200592,20.2054138-16.2442322
		c0.5524139-0.0917358,1.1007843-0.1671143,1.6467438-0.2349243c10.1907959-1.265686,19.1368561,1.5818787,21.9257965,6.7640381
		l4.7463837,0.0401917c10.8105621,0.0916443,19.7315979,1.5437622,26.5149841,4.3161316
		c6.8218384,2.7880859,10.9985046,6.8405151,11.7609253,11.4111633
		C280.6297302,316.1824951,276.1294556,324.0728455,267.0632019,328.1238403z M274.8534546,280.0399475
		c-23.2111969,0-42.0273895-18.8161926-42.0273895-42.0271912c0-23.2110443,18.8161926-42.0273895,42.0273895-42.0273895
		c23.2104492,0,42.0270081,18.8163452,42.0270081,42.0273895
		C316.8804626,261.2237549,298.0639038,280.0399475,274.8534546,280.0399475z"/>
	<path d="M328.6804504,96.4098663l-0.3142395-0.547493l-0.4148865-0.52668
		c-0.3908081-0.6257248-1.9298401-1.5923004-2.0496826-1.6022415l-0.1579285-0.0843506l-0.0791626-0.0422516l-0.300415-0.1305084
		l-0.0265198-0.0095215l-0.053009-0.0189133l-0.4261169-0.1504364l-0.8591003-0.2942963
		c-0.5658264-0.2109909-1.2112122-0.2835617-1.821228-0.4100266c-0.618866-0.1096115-1.2763977-0.1063919-1.915863-0.1467056
		c-0.644989,0.0227814-1.3014221,0.0667725-1.9425354,0.1580734c-2.5820312,0.4553146-4.8599854,1.7051392-6.5948792,3.1929779
		c-1.7617798,1.4832306-3.0827332,3.1833496-4.1549683,4.8688431c-2.1297302,3.3899307-3.3269653,6.7700195-4.1184998,9.6856384
		c-0.776062,2.9237595-1.1057434,5.4079514-1.2424927,7.1546478c-0.0892944,0.8675003-0.0832214,1.5650101-0.1019897,2.0315933
		c-0.0073547,0.4701309,0.0071716,0.7225418,0.0071716,0.7225418s0.4784241-0.8691101,1.3155823-2.389946
		c0.8362732-1.5042191,2.0082703-3.6386185,3.4529114-6.0956116c1.4560242-2.440979,3.1947937-5.2383804,5.3024597-7.7738342
		c1.0558777-1.2574615,2.2153625-2.4290619,3.4383545-3.3350754c1.2329407-0.8950272,2.4933167-1.5089188,3.7494202-1.7108002
		c0.316803-0.0390701,0.6325073-0.0688477,0.9518738-0.09655c0.3252563,0.0347443,0.6444397-0.0016556,0.9763184,0.0577545
		c0.3320923,0.081543,0.6615906,0.0772629,1.0043335,0.187851l0.8060608,0.2180328l0.2542114,0.1167984
		c-0.0115967-0.010582-0.0248413-0.0190048-0.0340576-0.031662c0.0114136,0.0044174,0.0246582,0.0072708,0.043457,0.0078735
		c0.0071716,0.0151825,0.0180359,0.0278854,0.0279541,0.0410461l0.0336914,0.015419l0.0734558,0.03479l-0.03479-0.0039597
		c-0.0173035-0.0032654-0.0333252-0.0096207-0.0493469-0.0162888c0.0393982,0.0250778,0.0758362,0.0857773,0.11026,0.1658478
		c0.1734009,0.3099365,0.3007812,0.923645,0.3630066,1.6024246c0.0787964,1.4022446-0.0898132,3.0204926-0.3534241,4.5522766
		c-0.2542114,1.5417252-0.5805664,3.0357742-0.9058228,4.4217758c-0.6555176,2.7757645-1.2817383,5.1379623-1.6951599,6.8118973
		c-0.4290771,1.668457-0.6567993,2.6520233-0.6567993,2.6520233s0.7193909-0.7102127,1.8035889-2.0808411
		c1.0924988-1.3669434,2.5641785-3.383812,4.026825-6.0297089c0.727478-1.325943,1.4562378-2.806694,2.0990295-4.4765396
		c0.6315613-1.6744843,1.2117615-3.5210419,1.3921509-5.7606888c0.0704956-1.1336288,0.0377502-2.3949127-0.4472961-3.8408279
		C329.0460205,97.1459351,328.900238,96.7833557,328.6804504,96.4098663z"/>
	<path d="M323.4029846,99.4566345l-0.0373535-0.0172577c0.0154724,0.0140839,0.026123,0.0327225,0.0452881,0.042244
		c0.0046082,0.0022583,0.0101318,0.0029449,0.0150757,0.0049744c-0.0027466-0.0018005-0.0053406-0.0069504-0.0082703-0.0083313
		C323.4116516,99.4717712,323.4083252,99.4636307,323.4029846,99.4566345z"/>
	<path class="st1" d="M68.0166321,176.7262878h0.5772552c-0.1923523-0.3421936-0.3847122-0.6887207-0.5772552-1.0393829V176.7262878
		z"/>
	<path class="st1" d="M73.1646729,160.4395142c1.2410355,2.4902649,2.5579071,4.3576202,3.5419769,5.6189117
		c0.473999,0.6387329,0.9117279,1.1029358,1.1882095,1.4278259c0.2858658,0.320343,0.4524536,0.4811249,0.4524536,0.4811249
		s-0.1687927-0.9081879-0.4841156-2.4430084c-0.2983856-1.5389099-0.7539749-3.712204-1.1685104-6.2414398
		c-0.2039566-1.2619781-0.3907928-2.6177826-0.4832001-3.9906158c-0.0756531-1.3487701-0.07547-2.7926178,0.22052-3.85289
		c0.1480026-0.5262756,0.3420181-0.9346008,0.5295868-1.1409912c0.1824188-0.1851807,0.3311539-0.2467499,0.5954895-0.3409119
		l0.1965866-0.0397186l0.3202972-0.0646973c0.0920334-0.0136719-0.0254059,0.0517273-0.0338745,0.0592804
		c-0.03479,0.0189514-0.0721588,0.0279236-0.1078644,0.026825c-0.0180435-0.0005493-0.0355301-0.0034943-0.0520935-0.0089264
		l0.0404968,0.0222626c0.0565109,0.0259094,0.10952,0.0291748,0.1746826,0.0361328
		c0.3097992,0.1161499,0.7836151,0.3672333,1.2811661,0.7441254c1.0354233,0.7510681,2.1072998,1.916687,3.1340714,3.0984955
		c1.0144424,1.2102509,2.0101089,2.483963,2.9514694,3.7563324c1.8783035,2.5546112,3.6154251,5.0514069,5.1412277,7.195282
		c1.5246964,2.1461334,2.845253,3.9446564,3.8076019,5.1948853c0.9501953,1.2559509,1.5425491,1.9651031,1.5425491,1.9651031
		s-0.0257645-0.2282104-0.0739975-0.6560516c-0.0671844-0.4206543-0.1332703-1.0535431-0.2974625-1.8279572
		c-0.2867889-1.5668945-0.7959442-3.7749786-1.6430588-6.3505096c-0.8426971-2.5775604-2.0152588-5.5240631-3.6454315-8.5664673
		c-0.8244781-1.5172424-1.7490845-3.0701904-2.8813324-4.5832825c-1.1296768-1.5236053-2.4137878-3.0216522-4.1967392-4.3936615
		c-0.9251633-0.659317-1.9915161-1.297821-3.3608551-1.709549c-0.362442-0.0868835-0.7423706-0.1565094-1.1151276-0.2147217
		l-0.2820053-0.0381622l-0.3799286-0.0049591c-0.2542114,0.0014648-0.5098877,0.0130157-0.7629929,0.0345154
		c-0.2254944,0.0195465-0.564743,0.0572815-0.6853104,0.088028l-0.3153229,0.0853577l-0.3149567,0.0852356l-0.416748,0.1226349
		l-0.1225891,0.0538483l-0.2446365,0.1100769c-1.2944183,0.5310516-2.5628815,1.5966187-3.2824326,2.8338013
		c-0.7381439,1.2283783-1.0262222,2.4661865-1.1285706,3.5648041c-0.2105789,2.2165833,0.2243881,3.9936981,0.6624908,5.6130066
		C71.94664,157.7896118,72.5489349,159.1911163,73.1646729,160.4395142z"/>
	<path class="st3" d="M92.5454254,418.6141663c9.8530121,0,16.7902679-5.3634644,21.658699-12.3236694
		c-5.5712357-12.9213562-14.7402191-34.6938782-23.4335556-57.6078186c-2.3534012,2.002594-5.0723801,5.0252075-8.0142746,9.5849609
		c-7.3243637,11.3520813-13.3565216,37.7655334-5.7591705,51.7065735
		C80.1641388,415.7888794,85.2510681,418.6141663,92.5454254,418.6141663z"/>
	<path class="st3" d="M440.3918152,353.1673279c-5.7759094-14.9438477-18.0585327-25.5526733-29.8688354-25.7989807
		l-0.4226379-0.0365906c-0.0187683-0.0032959-2.2884216-0.3416443-5.337616-0.3416443
		c-6.4325256,0-14.3282776,1.3732605-15.4187317,7.9111633c-0.7563477,4.5368652,1.2281494,6.8607178,5.4254456,11.2755432
		c4.7964478,5.0437622,11.3631592,11.9521484,13.3309326,26.380188
		c2.2528992,16.5233459,6.2872925,24.9026489,11.9888306,24.9037476h0.0010986
		c2.6622925,0,7.5185852-1.5961914,15.5461121-9.2001343C445.5220032,378.8952332,444.5747375,363.9924622,440.3918152,353.1673279z
		"/>
	<circle class="st1" cx="140.8202972" cy="283.0690002" r="13.2518721"/>
	<circle class="st1" cx="269.1737671" cy="252.0218658" r="13.2518492"/>
	<path class="st4" d="M104.8724136,135.0261383c10.3408127,2.7909088,22.0329208,4.2060394,34.7517929,4.2060394
		c20.4360657,0,63.8259888-3.9704132,124.8120422-30.561554l1.372467-0.5984268
		c-0.1907043-3.0967484,0.0599976-6.4933548,0.841217-10.0478516c1.3529663-6.1510696,4.0316162-11.363121,7.3208618-14.815918
		c-0.6346741-2.3590164-1.1563416-4.0827484-1.5206299-4.9575653c-7.0370178-3.7515106-65.0552368-25.3630295-95.3121033-25.3630295
		c-3.0228882,0-5.6628876,0.2251701-7.8458405,0.671093c-26.8172302,5.4730682-67.5632629,52.0914803-69.0262985,58.7003899
		c-0.4392014,2.859108-0.3062973,11.8358231,0.0147247,21.5274887L104.8724136,135.0261383z"/>
	<path class="st4" d="M104.3490829,201.2275238c-1.4654236-0.3053894-2.2862167-0.3998566-2.6234436-0.427887
		c-5.5907364,0.3449554-10.716507-3.5651245-11.7491684-9.2356262c-0.1049271-0.5764313-0.1492844-1.1486664-0.1649323-1.7169189
		c-3.0420303,1.7259064-6.085907,3.5922394-8.9344711,5.5642853l-5.0664978,3.5076599l-3.7273407-4.9073639
		c-1.1234131-1.4790039-6.3090057-8.475708-11.0881577-17.68013c-8.975708,4.2349701-15.9882469,8.8648834-17.7003365,13.251358
		c-0.3237877,0.8308258-0.1929092,1.2789612,0.1432114,1.7714996
		C44.9033737,193.498703,53.5930252,200.0552826,104.3490829,201.2275238z"/>
	<path class="st4" d="M209.7376556,186.8563843c4.457016-2.8374786,10.1508484-2.1497345,13.8135834,1.3355103
		c0.5645599-0.0887299,1.5241394-0.3294525,2.9461212-0.9694824c5.5563202-2.6411133,25.5980988-24.0374146,40.8237152-42.3600159
		c0.547821-0.6590271,1.1578369-1.2332916,1.8109436-1.7314148
		c-34.7950592,15.0353394-83.4141998,31.4667969-129.7069702,31.4667969c-7.4407043,0-14.5047836-0.4338684-21.0632172-1.2825012
		l1.0164719,2.9927063l-5.7891769,2.2171783c-0.0421524,0.0161591-1.0370865,0.4002838-2.7016754,1.0918884
		c7.4513779,1.7409058,17.5249023,5.1633759,30.1766052,10.2731171c23.1578064,9.3520966,32.0140381,9.709259,34.2303162,9.5772705
		c3.1491547-1.6687317,6.9536285-1.7338562,10.2106628-0.142746c6.0071259-0.384903,10.6796875-0.7577057,13.4752502-1.0519104
		c1.2706757-0.133728,3.1596527-0.5292511,5.5631256-1.1499634
		C204.2783508,193.1443024,206.1362152,189.1477509,209.7376556,186.8563843z"/>
	<path class="st4" d="M344.531189,118.0858612c-1.6863098,10.0497437-4.9269714,21.0823975-7.076416,24.0917969
		l-2.0165405,2.8207703c9.1318054-4.4461517,17.2776794-8.6636047,24.1922913-12.5407867
		c24.0432129-13.4807205,27.0325928-19.3841095,27.3764648-20.8727341c0.2250977-0.9750443-0.0143738-1.2756424-0.1165466-1.4043121
		c-0.2617493-0.3283386-1.9500732-1.9667053-9.5439453-1.9667053c-8.2986755,0-19.9164124,1.897728-32.0407104,4.529129
		C345.0953674,114.4741592,344.8387756,116.2535248,344.531189,118.0858612z"/>
	<path class="st4" d="M335.1567688,145.1351166l-3.4665222-0.2822418
		c-0.0631104-0.0051117-6.4291992-0.5154572-15.0612183-0.5154572c-8.9681702,0-20.7926331,0.5414124-30.4959717,2.8383026
		c1.8526917,3.8513184,1.433197,8.5899811-1.4766541,12.0913696c-2.3784485,2.8622894-6.3951721,7.6324158-11.2067261,13.1042938
		c8.5341187-3.4632874,17.3403015-7.1477509,26.1761169-10.9789581
		C312.5874634,155.7720032,324.5363464,150.299942,335.1567688,145.1351166z"/>
	<path class="st3" d="M267.0099792,114.5735626c-24.3695679,10.6255722-77.7648926,31.098175-127.3857727,31.098175
		c-12.5629654,0-24.8829498-1.312088-36.4298248-4.4284821c1.2045898,1.8230743,2.3979492,3.7683868,3.5789795,5.8426819
		c4.2919083,7.5388184,7.4313126,14.9858246,9.1411896,19.3810425c5.9993896,0.9385071,13.8294067,1.6911926,23.510498,1.6911926
		c28.5026093,0,73.0518341-6.5240021,134.1810913-34.0373535c0.9605103-3.0145569,2.2376404-6.790184,3.8214111-10.9843445
		c-0.1236877,0.0051575-0.2468262,0.0267868-0.3705444,0.0267868c-0.6499634,0-1.3001099-0.0699081-1.9300232-0.2085571
		C271.3331909,122.1208878,268.5254822,119.0265274,267.0099792,114.5735626z"/>
	<path class="st2" d="M68.5938873,176.7262878c4.4025345,7.8377991,8.6176834,13.3905792,8.6176834,13.3905792
		c14.7661667-10.2228241,34.0760574-17.6060028,34.0760574-17.6060028s-0.4960861-1.4572754-1.425293-3.8368225
		c-0.173584-0.4450073-0.3622665-0.9211578-0.5660324-1.4276886c-0.079155-0.1964569-0.160881-0.3979187-0.2444534-0.6029358
		c-0.1601486-0.3930054-0.3274689-0.7993011-0.5038147-1.2214813c-0.1433945-0.3436279-0.2930527-0.6977844-0.4469376-1.0589905
		c-0.1242523-0.2913361-0.2516327-0.5877075-0.3825073-0.8895416c-0.1754227-0.4051056-0.3554535-0.8165131-0.5428391-1.2390594
		c-0.1664047-0.3746338-0.33815-0.7569122-0.5135727-1.1438446c-0.1833344-0.4040985-0.3725662-0.8151245-0.5656662-1.2310944
		c-0.2241974-0.4824677-0.4530029-0.9702606-0.690094-1.4664459c-0.1196518-0.2500153-0.2416916-0.5025635-0.3644714-0.7555389
		c-0.2982025-0.6147614-0.6063461-1.2379456-0.9236908-1.8673401c-0.0826492-0.1641083-0.1652985-0.3280334-0.249054-0.4928741
		c-0.37883-0.7443085-0.7714615-1.4964294-1.1755066-2.2528992c-0.044548-0.0834808-0.0892792-0.1669006-0.1341934-0.250473
		c-1.4889832-2.7715759-3.1438217-5.5937347-4.9455566-8.2951813c-5.9270477-8.8867493-13.4400864-16.4477539-21.8532562-16.4455414
		c-2.6514282,0.0006866-5.3958054,0.7525024-8.2040634,2.4505157c-15.4573746,9.3463745-7.4793549,30.7487488,0.4600067,45.2032776
		C68.2091751,176.0375671,68.401535,176.3840942,68.5938873,176.7262878z M70.8039017,150.575882
		c0.1023483-1.0986176,0.3904266-2.3364258,1.1285706-3.5648041c0.7195511-1.2371826,1.9880142-2.3027496,3.2824326-2.8338013
		l0.2446365-0.1100769l0.1225891-0.0538483l0.416748-0.1226349l0.3149567-0.0852356l0.3153229-0.0853577
		c0.1205673-0.0307465,0.459816-0.0684814,0.6853104-0.088028c0.2531052-0.0214996,0.5087814-0.0330505,0.7629929-0.0345154
		l0.3799286,0.0049591l0.2820053,0.0381622c0.372757,0.0582123,0.7526855,0.1278381,1.1151276,0.2147217
		c1.369339,0.4117279,2.4356918,1.0502319,3.3608551,1.709549c1.7829514,1.3720093,3.0670624,2.8700562,4.1967392,4.3936615
		c1.1322479,1.513092,2.0568542,3.06604,2.8813324,4.5832825c1.6301727,3.0424042,2.8027344,5.9889069,3.6454315,8.5664673
		c0.8471146,2.575531,1.3562698,4.7836151,1.6430588,6.3505096c0.1641922,0.7744141,0.230278,1.4073029,0.2974625,1.8279572
		c0.048233,0.4278412,0.0739975,0.6560516,0.0739975,0.6560516s-0.5923538-0.7091522-1.5425491-1.9651031
		c-0.9623489-1.2502289-2.2829056-3.0487518-3.8076019-5.1948853c-1.5258026-2.1438751-3.2629242-4.6406708-5.1412277-7.195282
		c-0.9413605-1.2723694-1.937027-2.5460815-2.9514694-3.7563324c-1.0267715-1.1818085-2.0986481-2.3474274-3.1340714-3.0984955
		c-0.497551-0.3768921-0.9713669-0.6279755-1.2811661-0.7441254c-0.0651627-0.006958-0.1181717-0.0102234-0.1746826-0.0361328
		l-0.0404968-0.0222626c0.0165634,0.0054321,0.03405,0.0083771,0.0520935,0.0089264
		c0.0357056,0.0010986,0.0730743-0.0078735,0.1078644-0.026825c0.0084686-0.0075531,0.1259079-0.0729523,0.0338745-0.0592804
		l-0.3202972,0.0646973l-0.1965866,0.0397186c-0.2643356,0.094162-0.4130707,0.1557312-0.5954895,0.3409119
		c-0.1875687,0.2063904-0.3815842,0.6147156-0.5295868,1.1409912c-0.29599,1.0602722-0.2961731,2.5041199-0.22052,3.85289
		c0.0924072,1.3728333,0.2792435,2.7286377,0.4832001,3.9906158c0.4145355,2.5292358,0.8701248,4.7025299,1.1685104,6.2414398
		c0.3153229,1.5348206,0.4841156,2.4430084,0.4841156,2.4430084s-0.1665878-0.1607819-0.4524536-0.4811249
		c-0.2764816-0.3248901-0.7142105-0.789093-1.1882095-1.4278259c-0.9840698-1.2612915-2.3009415-3.1286469-3.5419769-5.6189117
		c-0.6157379-1.2483978-1.2180328-2.6499023-1.6982803-4.2506256
		C71.0282898,154.5695801,70.5933228,152.7924652,70.8039017,150.575882z"/>
	<polygon class="st2" points="75.764183,124.8128967 75.7639999,124.8128967 75.764183,128.0331116 	"/>
	<path class="st3" d="M282.8717651,78.7377853c0.6499939,0,1.2999573,0.0699005,1.9300537,0.2085571
		c4.7250366,1.0398407,7.9181824,5.5874252,8.9926453,11.8967056c9.0082703-12.6522446,18.8323975-19.0491409,29.3331604-19.0491409
		c4.4259033,0,8.3113708,1.0430145,11.5698853,3.0579071c5.5401001-6.7378082,9.065155-11.3846588,9.065155-11.3846588
		c-4.1647034,0.7571945-12.8733215,1.8930817-12.8733215,1.8930817
		c32.9403076-12.1158981,30.2900085-45.0562134,30.2900085-45.0562134c0,5.6793747-17.0380249,19.3098431-17.0380249,19.3098431
		c0.7572632-4.9221802-1.893219-11.3587017-1.893219-11.3587017c0.7574463,6.4365215-19.6883545,23.0960026-19.6883545,23.0960026
		c1.5143738-3.0290108,0.3786316-8.3296928,0.3786316-8.3296928c-1.1359253,6.0579681-10.2228088,8.3296928-10.2228088,8.3296928
		c5.6792908-6.8152122,16.2807312-42.7845345,8.3297729-45.0562553
		c-7.9513245-2.2717218-18.9312439,23.4746895-18.9312439,23.4746895c-0.3786316-6.0579262-3.7862549-6.0579262-3.7862549-6.0579262
		c1.5145874,18.9311562-13.6304016,34.0761528-13.6304016,34.0761528c-1.1359253-3.7862968-7.1940613-5.6793747-7.1940613-5.6793747
		c1.9445801,4.2132568-0.2705688,23.3945732-0.9494629,28.8353844
		C278.5631104,79.5248947,280.7114563,78.7377853,282.8717651,78.7377853z"/>
	<path d="M274.7767029,115.5695953c0.0086365,0.0092926,0.0174866,0.0160141,0.0259399,0.0252609
		c0.1625366,0.1773148,0.3305969,0.3358917,0.5036316,0.4731674c0.0629578,0.0498352,0.1295776,0.0833893,0.193634,0.1278381
		c0.1255493,0.0867004,0.2503662,0.1760712,0.3804932,0.2413254c0.2044983,0.1027145,0.4140015,0.1809464,0.6286316,0.2280655
		c0.0005493,0.000145,0.0010986,0.0000992,0.0010986,0.0000992c0.1306763,0.0293579,0.2654419,0.0429764,0.4009094,0.051857
		c0.2127991,0.0139008,0.431488,0.0030365,0.6558533-0.0317535c0.9916382-0.1538391,2.0835571-0.7703094,3.1747742-1.7870941
		c0.9971313-2.3280945,2.0693665-4.7058411,3.2198486-7.0907288c1.057312-2.1916962,2.1289978-4.282196,3.2137756-6.2754517
		c1.6163635-8.5609894-0.559967-15.5928574-3.7568054-16.2963943c-0.1785583-0.0399399-0.3582153-0.0588074-0.5467224-0.0588074
		c-3.2857361,0-8.0610352,5.7182083-9.9323425,14.2294464c-1.3579102,6.1784973-0.7300415,11.6686859,0.8708801,14.7369537
		c0.0020142,0.0037689,0.0038452,0.007637,0.0057068,0.0113144
		C274.1064758,114.7093124,274.4285889,115.1842728,274.7767029,115.5695953z"/>
	<path class="st2" d="M323.3750305,99.4155884c-0.0187988-0.0006027-0.0320435-0.0034561-0.043457-0.0078735
		c0.0092163,0.0126572,0.0224609,0.02108,0.0340576,0.031662l0.0373535,0.0172577
		C323.3930664,99.4434738,323.3822021,99.4307709,323.3750305,99.4155884z"/>
	<path class="st2" d="M323.5101318,99.5068436l-0.0734558-0.03479l-0.0336914-0.015419
		c0.0053406,0.0069962,0.008667,0.0151367,0.01474,0.0216293c0.0029297,0.0013809,0.0055237,0.0065308,0.0082703,0.0083313
		c0.0160217,0.0066681,0.0320435,0.0130234,0.0493469,0.0162888L323.5101318,99.5068436z"/>
	<path class="st2" d="M323.1276245,78.2335129c-18.7519531,0-32.5480652,28.2267838-39.7573853,47.4028015
		c-0.6228943,1.6566772-1.196106,3.2445145-1.7194214,4.7419662c-0.0811768,0.2323456-0.1618042,0.4634094-0.2406006,0.6911621
		c-0.5870056,1.6979065-1.1055603,3.2648468-1.5565491,4.6706848c-0.7106934,2.2166901-1.2524414,4.0295563-1.6137695,5.2821808
		c0.9060059,0.1839447,1.792511,0.4915314,2.6449585,0.9039001c10.926178-3.2701874,25.0657654-4.0283051,35.7441711-4.0283051
		c9.0358887,0,15.5856628,0.5368195,15.5856628,0.5368195C335.0544128,134.4591522,351.5245667,78.2335129,323.1276245,78.2335129z
		 M329.6096497,101.3450623c-0.1803894,2.2396469-0.7605896,4.0862045-1.3921509,5.7606888
		c-0.6427917,1.6698456-1.3715515,3.1505966-2.0990295,4.4765396c-1.4626465,2.6458969-2.9343262,4.6627655-4.026825,6.0297089
		c-1.084198,1.3706284-1.8035889,2.0808411-1.8035889,2.0808411s0.2277222-0.9835663,0.6567993-2.6520233
		c0.4134216-1.6739349,1.0396423-4.0361328,1.6951599-6.8118973c0.3252563-1.3860016,0.6516113-2.8800507,0.9058228-4.4217758
		c0.2636108-1.5317841,0.4322205-3.150032,0.3534241-4.5522766c-0.0622253-0.6787796-0.1896057-1.2924881-0.3630066-1.6024246
		c-0.0344238-0.0800705-0.0708618-0.14077-0.11026-0.1658478c-0.0049438-0.0020294-0.0104675-0.0027161-0.0150757-0.0049744
		c-0.019165-0.0095215-0.0298157-0.0281601-0.0452881-0.042244l-0.2542114-0.1167984l-0.8060608-0.2180328
		c-0.3427429-0.1105881-0.6722412-0.106308-1.0043335-0.187851c-0.3318787-0.0594101-0.651062-0.0230103-0.9763184-0.0577545
		c-0.3193665,0.0277023-0.6350708,0.0574799-0.9518738,0.09655c-1.2561035,0.2018814-2.5164795,0.815773-3.7494202,1.7108002
		c-1.2229919,0.9060135-2.3824768,2.0776138-3.4383545,3.3350754c-2.107666,2.5354538-3.8464355,5.3328552-5.3024597,7.7738342
		c-1.4446411,2.4569931-2.6166382,4.5913925-3.4529114,6.0956116c-0.8371582,1.5208359-1.3155823,2.389946-1.3155823,2.389946
		s-0.0145264-0.2524109-0.0071716-0.7225418c0.0187683-0.4665833,0.0126953-1.164093,0.1019897-2.0315933
		c0.1367493-1.7466965,0.4664307-4.2308884,1.2424927-7.1546478c0.7915344-2.9156189,1.9887695-6.2957077,4.1184998-9.6856384
		c1.0722351-1.6854935,2.3931885-3.3856125,4.1549683-4.8688431c1.7348938-1.4878387,4.0128479-2.7376633,6.5948792-3.1929779
		c0.6411133-0.091301,1.2975464-0.1352921,1.9425354-0.1580734c0.6394653,0.0403137,1.2969971,0.0370941,1.915863,0.1467056
		c0.6100159,0.1264648,1.2554016,0.1990356,1.821228,0.4100266l0.8591003,0.2942963l0.4261169,0.1504364l0.053009,0.0189133
		l0.0265198,0.0095215l0.300415,0.1305084l0.0791626,0.0422516l0.1579285,0.0843506
		c0.1198425,0.0099411,1.6588745,0.9765167,2.0496826,1.6022415l0.4148865,0.52668l0.3142395,0.547493
		c0.2197876,0.3734894,0.3655701,0.7360687,0.4819031,1.094368
		C329.6473999,98.9501495,329.6801453,100.2114334,329.6096497,101.3450623z"/>
	<path d="M222.9277649,203.9920654c3.0659637,0,6.4380493-0.8175354,10.0221863-2.4303589
		c7.4707031-3.3621368,25.7088928-21.673645,46.465271-46.6506195c0.7598572-0.914032,1.1180725-2.0709839,1.0083618-3.2556458
		c-0.1087952-1.1846771-0.6733704-2.2562256-1.5874634-3.016037c-1.0238342-0.8507996-2.1097107-1.0294037-2.8406677-1.0294037
		c-1.3323364,0-2.5834961,0.5856934-3.433197,1.6084137c-9.0358887,10.8739777-34.4011383,40.0061951-43.1386414,44.159256
		l-0.1286774,0.0598602c-1.7015839,0.7653961-3.277832,1.2656708-4.6854553,1.4864197l-3.3210907,0.5224457l-2.4347687-2.3172302
		c-0.8165588-0.776474-1.9368439-1.2212524-3.077179-1.2212524c-0.8395691,0-1.6616516,0.2417908-2.3804779,0.6988068
		c-1.0037537,0.6378174-1.6980896,1.6294708-1.9567108,2.7908478c-0.2573395,1.161438-0.0476837,2.3538666,0.5912476,3.3577271
		C212.3710327,199.2910461,215.5745087,203.9920654,222.9277649,203.9920654z"/>
	<path d="M180.5799103,204.9715271c-0.730957,0-1.455307,0.1797028-2.094223,0.5180359l-1.3078613,0.6932678l-1.4785004,0.0876312
		c-0.2851257,0.0166473-0.6378174,0.029953-1.0648651,0.029953c-4.1586456,0-14.3814545-1.3111267-36.1228027-10.0908356
		c-23.9741745-9.6826477-33.47155-11.1291199-36.9989929-11.1291199c-0.6711349,0-1.065979,0.0543518-1.245636,0.0865173
		c-1.1703491,0.2129822-2.1875534,0.8685608-2.8653183,1.8469238c-0.6766663,0.9772186-0.9328995,2.1608124-0.7197342,3.3288269
		c0.3791962,2.0887451,2.2538147,3.6627808,4.3581696,3.6627808c0.087616,0,0.1763458-0.0022583,0.2661743-0.007782
		l0.4925842-0.0310669l0.4912949,0.0410461c2.6433258,0.2196045,11.1402512,1.6794128,32.8871231,10.4613342
		c17.5804901,7.1003113,30.8937531,10.7009125,39.5701599,10.7009125c4.544632,0,7.6582794-0.9750061,9.2556763-2.8995514
		c0.7598724-0.9151306,1.1169739-2.0709991,1.0070801-3.255661c-0.1097107-1.1846619-0.6744537-2.2562103-1.5883789-3.0149231
		C182.3969269,205.1501312,181.3110657,204.9715271,180.5799103,204.9715271z"/>
	<path class="st3" d="M240.7716827,297.7011719c0,0-1.2565002,14.7024841-21.9482422,17.7532654
		c-3.9147339,0.5771484-7.2772369,0.8283691-10.1764374,0.8283691c-11.0102844,0-15.3415833-3.6225586-17.8888245-6.7693787
		c0,0-19.8308258,6.6981506-21.3453979,18.0568848c-1.1326141,8.4927673,7.0495453,12.8586426,14.2568359,12.8586426
		c2.4321899,0,4.7520905-0.4967651,6.5672607-1.4998779c7.1944122-3.9756165,17.9851074-12.6838684,32.3724365-14.5769348
		c1.299942-0.171051,3.0970764-0.2307434,5.2288513-0.2307434c4.9247589,0,11.6381836,0.3184814,18.1454315,0.3184814
		c7.3972626,0,14.5277863-0.411438,18.4642487-2.170105c8.897644-3.975708,8.897644-10.790863,8.3295898-14.1984863
		C272.1475525,304.2947083,263.1099854,297.8905029,240.7716827,297.7011719z"/>
	<path class="st1" d="M216.6721497,309.808197c0.2457428-0.0407715,0.487793-0.0871582,0.7307739-0.1320801
		c0.2698669-0.0498352,0.5376892-0.1020203,0.8042297-0.1568298c10.7643738-2.2153625,18.6812744-8.4315796,18.768158-14.6538086
		c0.006073-0.4342651-0.0259552-0.8686523-0.0977478-1.3015747c-0.1352997-0.8143616-0.4067993-1.5871582-0.7981567-2.3144226
		c-2.7889252-5.1820679-11.7348022-8.029541-21.9255981-6.7640381c-0.5459595,0.0678101-1.0943298,0.1431885-1.6467438,0.2349243
		c-12.3093109,2.0436401-21.3555145,9.3164062-20.2054138,16.2442322c0.0659027,0.3969727,0.1676941,0.782959,0.2961884,1.1598511
		C194.7108307,308.3252258,205.0683899,311.7347107,216.6721497,309.808197z"/>
</g>
</svg>
