<svg width="137" height="137" viewBox="0 0 137 137" fill="none" xmlns="http://www.w3.org/2000/svg">
<rect width="24.8171" height="24.8171" transform="matrix(-0.86601 0.500028 -3.18907e-05 1 68.502 18.8594)" fill="#EE5007"/>
<rect width="24.8171" height="24.8171" transform="matrix(-0.86601 -0.500028 3.18907e-05 1 47.0088 31.2695)" fill="#FF7442"/>
<rect width="24.8171" height="24.8171" transform="matrix(-0.866041 0.499972 0.866041 0.499972 47.0088 6.45312)" fill="#FB9E70"/>
<rect width="24.8171" height="24.8171" transform="matrix(3.19859e-05 1 0.86601 0.500028 25.5139 43.6797)" fill="#FF7442"/>
<rect width="24.8171" height="24.8171" transform="matrix(-0.866041 0.499973 0.866041 0.499972 25.5139 68.4922)" fill="#FB9E70"/>
<rect width="24.8171" height="24.8171" transform="matrix(-3.17834e-05 1 0.866009 -0.500028 4.02271 56.0898)" fill="#EE5007"/>
<rect width="24.8171" height="24.8171" transform="matrix(-0.86601 0.500028 -3.19781e-05 1 68.5042 93.3125)" fill="#EE5007"/>
<rect width="24.8171" height="24.8171" transform="matrix(-0.866009 -0.500028 3.18033e-05 1 47.011 105.723)" fill="#FF7442"/>
<rect width="24.8171" height="24.8171" transform="matrix(-0.866041 0.499972 0.866041 0.499973 47.011 80.9062)" fill="#FB9E70"/>
<rect width="24.8171" height="24.8171" transform="matrix(0.86601 -0.500028 3.18907e-05 -1 68.4985 118.141)" fill="#EE5007"/>
<rect width="24.8171" height="24.8171" transform="matrix(0.86601 0.500028 -3.18907e-05 -1 89.9917 105.73)" fill="#FF7442"/>
<rect width="24.8171" height="24.8171" transform="matrix(0.866041 -0.499972 -0.866041 -0.499972 89.9917 130.547)" fill="#FB9E70"/>
<rect width="24.8171" height="24.8171" transform="matrix(-0.86601 0.500028 -3.19781e-05 1 132.979 56.0859)" fill="#EE5007"/>
<rect width="24.8171" height="24.8171" transform="matrix(-0.866009 -0.500028 3.18033e-05 1 111.486 68.4961)" fill="#FF7442"/>
<rect width="24.8171" height="24.8171" transform="matrix(-0.866041 0.499972 0.866041 0.499973 111.486 43.6797)" fill="#FB9E70"/>
<rect width="24.8171" height="24.8171" transform="matrix(0.86601 -0.500028 3.18907e-05 -1 68.5002 43.6875)" fill="#EE5007"/>
<rect width="24.8171" height="24.8171" transform="matrix(0.86601 0.500028 -3.18907e-05 -1 89.9934 31.2773)" fill="#FF7442"/>
<rect width="24.8171" height="24.8171" transform="matrix(0.866041 -0.499972 -0.866041 -0.499972 89.9934 56.0938)" fill="#FB9E70"/>
</svg>
