<svg xmlns="http://www.w3.org/2000/svg" role="img" viewBox="-5.51 1.24 442.26 429.76"><style>svg {enable-background:new 0 0 432 432}</style><style>.st0{fill:none}.st1{fill:#fff}</style><path d="M194.2 309.8h-5.1v6.7h5.2c2.5 0 3.9-1.3 3.9-3.3v-.1c.1-2.2-1.5-3.3-4-3.3zm96.6-61.8c1 1.1 2.2 1.9 3.7 2.5 1.5.6 3.2.9 5.3.9h.1c.8 0 1.5 0 2.3-.1.8-.1 1.5-.2 2.2-.3.7-.1 1.3-.3 1.9-.5s1-.4 1.4-.5l-.8-5.2v-.1c-.7.3-1.6.6-2.7.8-1.1.2-2.2.3-3.3.3h-.1c-1.8 0-3.3-.4-4.3-1.2-1.1-.8-1.7-1.9-1.8-3.2h14.4c0-.4.1-.8.1-1.2v-1.3c0-3.9-.9-6.8-2.8-8.9-1.8-2-4.3-3-7.4-3h-.1c-1.4 0-2.7.3-4 .8-1.3.5-2.4 1.3-3.4 2.3-1 1-1.8 2.3-2.4 3.8-.6 1.5-.9 3.3-.9 5.4 0 1.7.2 3.3.7 4.7.2 1.7.9 2.9 1.9 4zm4-12.7c.2-.5.4-1 .8-1.4.3-.4.8-.7 1.3-1 .5-.2 1.1-.4 1.8-.4s1.4.1 1.9.4c.5.3.9.6 1.2 1 .3.4.6.9.7 1.4s.2 1.1.3 1.6h-8.4c.1-.5.2-1.1.4-1.6zm-165.5 13.1c.7 1 1.7 1.7 3 2.2 1.3.5 2.8.8 4.7.8h.1c1.8 0 3.6-.1 5.3-.4 1.7-.3 3.1-.6 4.2-.9v-22.3h-6.4v17.8c-.4.1-.9.1-1.4.2-.5 0-.9.1-1.3.1h-.1c-1.5 0-2.5-.5-3-1.4-.5-.9-.8-2.5-.8-4.6v-12.1h-6.4v12.9c0 1.6.2 3 .5 4.3.3 1.3.8 2.4 1.6 3.4zm68.8-8.2v-1.3c0-3.9-.9-6.8-2.8-8.9-1.8-2-4.3-3-7.4-3h-.1c-1.4 0-2.7.3-4 .8-1.3.5-2.4 1.3-3.4 2.3-1 1-1.8 2.3-2.4 3.8-.6 1.5-.9 3.3-.9 5.4 0 1.7.2 3.3.7 4.7.5 1.5 1.2 2.7 2.2 3.8 1 1.1 2.2 1.9 3.7 2.5 1.5.6 3.2.9 5.3.9h.1c.8 0 1.5 0 2.3-.1.8-.1 1.5-.2 2.2-.3.7-.1 1.3-.3 1.9-.5.6-.2 1-.4 1.4-.5l-.8-5.2v-.1c-.7.3-1.6.6-2.7.8-1.1.2-2.2.3-3.3.3h-.1c-1.8 0-3.3-.4-4.3-1.2-1.1-.8-1.7-1.9-1.8-3.2H198c0-.1.1-.5.1-1zm-14.5-3.2c.1-.6.2-1.1.4-1.6s.4-1 .8-1.4c.3-.4.8-.7 1.3-1 .5-.2 1.1-.4 1.8-.4s1.4.1 1.9.4c.5.3.9.6 1.2 1 .3.4.6.9.7 1.4s.2 1.1.3 1.6h-8.4zm-31.1-19.2v32.3c.6.2 1.2.3 2 .5.7.2 1.5.3 2.3.4.8.1 1.6.2 2.5.3.8.1 1.6.1 2.4.1h.1c1.8 0 3.4-.3 4.8-.9 1.4-.6 2.7-1.4 3.7-2.4 1-1.1 1.8-2.3 2.3-3.8.5-1.5.8-3.2.8-5 0-1.8-.2-3.5-.6-4.9-.4-1.5-1-2.7-1.9-3.8-.8-1.1-1.8-1.9-3.1-2.4-1.2-.6-2.6-.8-4.1-.9h-.1c-.9 0-1.7.1-2.5.3-.7.2-1.4.4-2 .7-.1 0-.1 0-.2.1v-11.5l-6.4.9zm7.9 15.2c.6-.2 1.3-.3 1.9-.3 3 0 4.5 2.1 4.5 6.3 0 2-.4 3.6-1.3 4.9-.9 1.2-2.2 1.8-3.9 1.8-.6 0-1.1 0-1.6-.1-.5 0-.9-.1-1.2-.2v-11.9c.4-.1.9-.3 1.6-.5zm162.3 12.8c-.5.2-1.3.3-2.3.3h-.1c-1.1 0-2.2-.1-3.4-.4-1.1-.2-2.1-.6-3.1-1-.1 0-.1 0-.2-.1l-1.1 5.3c.5.2 1.4.5 2.7.9s3 .5 5 .5h.1c3 0 5.3-.6 7-1.8 1.7-1.2 2.5-2.9 2.5-5.2 0-1-.1-1.8-.3-2.5-.2-.7-.6-1.4-1.1-2-.5-.6-1.2-1.2-2.1-1.7-.9-.5-2.1-1-3.4-1.6-.7-.3-1.2-.5-1.7-.7-.4-.2-.8-.4-1-.6-.3-.2-.4-.4-.5-.6-.1-.2-.1-.4-.1-.7 0-1.1 1-1.7 3-1.7h.1c1 0 2 .1 2.8.3.9.2 1.7.4 2.4.7v-.1l1.1-5c-.7-.3-1.7-.6-3-.8-1.2-.2-2.5-.4-3.8-.4h-.1c-2.7 0-4.9.6-6.4 1.9-1.6 1.3-2.3 3-2.3 5.1 0 1.1.2 2.1.5 2.9.3.8.8 1.5 1.3 2 .6.6 1.3 1.1 2.1 1.5.8.4 1.7.8 2.7 1.2 1.3.5 2.2.9 2.9 1.3.6.4.9.9.9 1.4-.4.9-.6 1.3-1.1 1.6zm-173.1 64.8c-.7-.5-1.7-.8-2.9-.8h-4v7.1h4.1c2.6 0 4.1-1.5 4.1-3.5v-.1c0-1.2-.5-2.1-1.3-2.7zm15.2 8.2h6.2l-3.1-7.6zm-55.2-68v-10.1c.1 0 .1.1.2.2.6.6 1.3 1.2 2 2 .7.9 1.4 1.7 2.1 2.7.7.9 1.3 1.8 1.8 2.8.6.9 1.1 1.8 1.5 2.5h7.3c-.5-1-1.1-2-1.8-3.2-.7-1.2-1.5-2.3-2.3-3.5-.9-1.2-1.7-2.3-2.6-3.4-.9-1.1-1.8-2-2.6-2.8 1.7-1.7 3.3-3.4 4.7-5 1.4-1.6 2.9-3.3 4.4-5.1h-7.6c-.4.5-.9 1.1-1.4 1.7-.6.7-1.1 1.4-1.8 2.1-.6.7-1.3 1.5-1.9 2.3-.6.7-1.2 1.3-1.8 2l-.2.2v-19.3l-6.3 1.1v33h6.3zm75.9 35.8h6.2l-3.1-7.6zm48.6-35.8h6.2v-13c0-1.6-.2-3-.5-4.3-.3-1.3-.8-2.4-1.6-3.3-.7-.9-1.7-1.7-3-2.2-1.2-.5-2.8-.8-4.6-.8h-.1c-1.9 0-3.7.1-5.4.4s-3.1.6-4.2.9v22.3h6.4V233c.4-.1.9-.1 1.4-.2s1-.1 1.4-.1h.1c1.4 0 2.4.4 3 1.3.5.9.8 2.4.8 4.5v12.3h.1z" class="st0"/><path d="M410.5 270.1l-38.6-167.5L215.8 28 59.7 102.6l-8.9 38.5-29.7 129 108 134.3h173.3l108.1-134.3zM132.3 398.4L27.9 268.6l104.4 129.8h-.2L27.8 268.6l29-126.1 8.2-35.7 150.8-72.1h.1l150.8 72L404 268.5 299.6 398.4H132.3z" class="st0"/><path d="M266 240.2v-1.3c0-3.9-.9-6.8-2.8-8.9-1.8-2-4.3-3-7.4-3h-.1c-1.4 0-2.7.3-4 .8-1.3.5-2.4 1.3-3.4 2.3-1 1-1.8 2.3-2.4 3.8-.6 1.5-.9 3.3-.9 5.4 0 1.7.2 3.3.7 4.7.5 1.5 1.2 2.7 2.2 3.8 1 1.1 2.2 1.9 3.7 2.5 1.5.6 3.2.9 5.3.9h.1c.8 0 1.5 0 2.3-.1.8-.1 1.5-.2 2.2-.3.7-.1 1.3-.3 1.9-.5s1-.4 1.4-.5l-.8-5.2v-.1c-.7.3-1.6.6-2.7.8-1.1.2-2.2.3-3.3.3h-.1c-1.8 0-3.3-.4-4.3-1.2-1.1-.8-1.7-1.9-1.8-3.2h14.4c-.3-.1-.3-.5-.2-1zm-14.5-3.2c.1-.6.2-1.1.4-1.6s.4-1 .8-1.4c.3-.4.8-.7 1.3-1 .5-.2 1.1-.4 1.8-.4s1.4.1 1.9.4.9.6 1.2 1c.3.4.6.9.7 1.4s.2 1.1.3 1.6h-8.4zm19.2-15v19.4c0 1.5.1 2.9.4 4.1.3 1.2.7 2.3 1.4 3.1.7.9 1.6 1.5 2.7 2s2.6.7 4.3.7h.1c1.3 0 2.4-.1 3.3-.3.9-.2 1.8-.5 2.6-.8l-.9-5v-.1c-.6.2-1.3.4-2 .5-.7.1-1.3.2-2 .2h-.1c-1.4 0-2.4-.4-2.8-1.2-.5-.8-.7-1.9-.7-3.3v-8.1h7.6v-5.4H277V221l-6.3 1zm-102.2 59.1c0-2.3-1.5-3.4-4-3.4h-5.1v6.7h5.2c2.4 0 3.9-1.4 3.9-3.3zm47.8-53.4c-.5-.1-1-.2-1.4-.3-.5-.1-1-.1-1.4-.2-.4 0-.8-.1-1.2-.1h-.1c-1.9 0-3.6.2-5.2.5-1.5.4-2.9.8-4 1.2v21.9h6.4V233c.3-.1.7-.2 1.3-.2.6-.1 1-.1 1.4-.1h.1c.8 0 1.6.1 2.4.2.8.2 1.4.3 2 .5l1.1-5.4c-.5 0-.9-.1-1.4-.3zm72.5 82.1h-5.1v6.7h5.2c2.5 0 3.9-1.3 3.9-3.3v-.1c0-2.2-1.5-3.3-4-3.3z" class="st0"/><path d="M101.5 260v81.5h229.1V260H101.5zm141.1 13h5.1v23.4h-5.1V273zm-27.7 0h4.7l11 14.4V273h5.1v23.4h-4.4L220 281.5v14.9h-5.1V273zm-60.7 0h10.7c3 0 5.3.8 6.8 2.4.7.7 1.2 1.6 1.6 2.6.3.8.4 1.8.4 2.7v.1c0 1.8-.5 3.2-1.2 4.4-.9 1.3-2.2 2.3-3.8 2.9l5.7 8.4h-6l-5-7.5h-4.1v7.5h-5.1V273zm-23.4 0h19.4v4.7h-7.1v18.6H138v-18.6h-7.1V273zm15.8 48.5h-3.9v7h-5.1v-23.4h9.6c5.6 0 9 3.3 9 8.1v.1c-.1 5.4-4.3 8.2-9.6 8.2zm28.4 7.1l-2.1-5.2H163l-2.1 5.2h-5.2l10-23.6h4.7l10 23.6H175zm6.6-32.2h-5.2l5.3-12.5.7-1.6 4-9.4h4.7l10 23.6h-5.4l-2.1-5.2h-9.9l-2.1 5.1zm16.5 32.2l-5-7.5H189v7.5h-5v-23.4h10.7c3 0 5.3.8 6.8 2.4 1.3 1.3 2 3.1 2 5.3v.1c0 3.8-2 6.1-5 7.3l5.7 8.4h-6.1zm6.8-55.6h5.1v23.4h-5.1V273zm20.9 36.9h-7.1v18.6h-5.1v-18.6h-7.1v-4.7h19.4v4.7zm24.7 18.7h-4.4l-11.3-14.9v14.9h-5.1v-23.3h4.7l7.3 9.6 1.8 2.4 1.8 2.4v-14.4h5.1v23.3zm23.5 0h-17.8v-23.4h17.6v4.6h-12.5v4.7h11v4.6h-11v4.9H274v4.6zm.3-32.2H270l-11.3-14.9v14.9h-5.1V273h4.7l11 14.4V273h5.1v23.4zm18.4 32.2l-5-7.5h-4.1v7.5h-5.1v-23.4h10.7c3 0 5.3.8 6.8 2.4 1.3 1.3 2 3.1 2 5.3v.1c0 3.8-2 6.1-5 7.3l5.7 8.4h-6zm8.5-35.5c-.1.1-.2.1-.3.2-2.4 1.9-5.6 3.5-9.7 3.5-7.3 0-12.3-5.1-12.3-12v-.1c0-6.6 5.2-12.1 12.3-12.1 4.2 0 6.7 1.1 9.2 3.2l-3.2 3.9c-1.8-1.5-3.4-2.4-6.1-2.4-3.7 0-6.7 3.3-6.7 7.3v.1c0 4.3 2.9 7.4 7.1 7.4 1.9 0 3.5-.5 4.8-1.4v-3.3H291V283h10.2v10.1z" class="st0"/><path d="M427.8 261l-36.5-158.7c-1.9-8.2-7.7-15.4-15.3-19L228.1 12.7c-4.2-2-9-3-13.7-2.7-3.7.2-7.5 1.1-10.8 2.7L55.7 83.3c-7.6 3.6-13.4 10.8-15.3 19L3.9 261.1c-1.7 7.3-.3 15.2 3.8 21.5.5.8 1 1.5 1.6 2.2l102.3 127.3c5.3 6.6 13.6 10.6 22.1 10.6h164.1c8.5 0 16.8-4 22.1-10.5l102.3-127.3c5.4-6.7 7.5-15.7 5.6-23.9zm-17.3 9.1l-108 134.4H129.2l-108-134.3 29.7-129 8.9-38.5 156-74.7 156.1 74.5 38.6 167.6z" class="st1"/><path d="M258.9 233.9c-.3-.4-.7-.7-1.2-1s-1.1-.4-1.9-.4c-.7 0-1.3.1-1.8.4-.5.2-.9.6-1.3 1-.3.4-.6.9-.8 1.4-.2.5-.3 1.1-.4 1.6h8.4c0-.6-.1-1.1-.3-1.6s-.4-1-.7-1.4zm-40-83.1c-.3-.6-.9-1.1-1.6-1.5-.5-.3-1.1-.4-1.6-.3-1.2 0-2.3.7-2.9 1.8l-10 18.1c6.9 2.4 14.5 2.9 22.2 1.1 1.4-.3 2.7-.7 4-1.1l-10.1-18.1zm3.1-40.4c0 .7.3 1.4.8 2 1.2 1.5 3.3 1.7 4.8.6h.1l16.8-11.9c-6.3-6.2-14.6-10.3-23.6-11.4l1.1 20.7zm11.8 30.2c-.3 0-.5-.1-.8-.1-.4 0-.9.1-1.3.3-1.7.8-2.4 2.8-1.7 4.5l8 19.2c7.7-4.9 13.4-12.2 16.4-20.6l-20.6-3.3zm-31.9 2.8c-.4-1.6-1.8-2.7-3.3-2.7-.2 0-.5 0-.7.1l-20.3 3.4c3.1 8.7 9 15.7 16.4 20.5l7.9-19-.1-.1c.2-.7.2-1.5.1-2.2zm8.2-8.6l5.7 2.7 5.7-2.7 1.4-6.1-3.9-4.9h-6.3l-4 4.9zm-6-21.7c.6.4 1.3.7 2 .7 1.9 0 3.4-1.5 3.5-3.3h.1l1.2-20.6c-1.4.2-2.8.4-4.2.7-7.7 1.7-14.3 5.5-19.5 10.6l16.9 11.9zm31 9.6c-.5.5-.9 1.1-1.1 1.8-.4 1.8.7 3.6 2.5 4.1v.1l19.9 5.7c.4-4.3.2-8.7-.9-13.2-1-4.5-2.8-8.7-5.1-12.4l-15.3 13.9zm-40 6.1c.7-.3 1.3-.7 1.8-1.3 1.2-1.5 1-3.6-.4-4.8v-.1L181 108.8c-4.6 7.5-6.8 16.4-5.8 25.7l19.9-5.7zm107.4 106.5c-.2-.5-.4-1-.7-1.4-.3-.4-.7-.7-1.2-1-.5-.3-1.1-.4-1.9-.4-.7 0-1.3.1-1.8.4-.5.2-.9.6-1.3 1-.3.4-.6.9-.8 1.4-.2.5-.3 1.1-.4 1.6h8.4c0-.5-.1-1-.3-1.6zM191 233.9c-.3-.4-.7-.7-1.2-1-.5-.3-1.1-.4-1.9-.4-.7 0-1.3.1-1.8.4-.5.2-.9.6-1.3 1-.3.4-.6.9-.8 1.4-.2.5-.3 1.1-.4 1.6h8.4c0-.6-.1-1.1-.3-1.6s-.4-1-.7-1.4zm-32.2 11.7c.3.1.7.1 1.2.2.5 0 1 .1 1.6.1 1.7 0 3-.6 3.9-1.8.9-1.2 1.3-2.9 1.3-4.9 0-4.2-1.5-6.3-4.5-6.3-.7 0-1.3.1-1.9.3-.6.2-1.2.4-1.6.7v11.7z" class="st1"/><path d="M366.7 106.8l-150.8-72-150.7 72-8.2 35.7-29 126.1 104.4 129.8h167.3L404 268.6l-37.3-161.8zM322.5 243c-.6-.4-1.6-.8-2.9-1.3-1-.4-1.9-.8-2.7-1.2-.8-.4-1.5-.9-2.1-1.5-.6-.6-1-1.3-1.3-2-.3-.8-.5-1.7-.5-2.9 0-2.2.8-3.9 2.3-5.1 1.6-1.3 3.7-1.9 6.4-1.9h.2c1.4 0 2.7.1 3.9.4 1.2.2 2.2.5 3 .8l-1.1 5.1c-.1 0-.1 0-.2-.1v.1c-.7-.3-1.5-.5-2.4-.7-.8-.2-1.8-.3-2.8-.3-1.9 0-2.9.6-2.9 1.7 0 .3 0 .5.1.7.1.2.3.4.5.6.3.2.6.4 1 .6.4.2 1 .5 1.7.7 1.4.5 2.5 1.1 3.4 1.6.9.5 1.6 1.1 2.1 1.7.5.6.9 1.3 1.1 2 .2.7.3 1.6.3 2.5 0 2.3-.8 4-2.5 5.2-1.7 1.2-4 1.8-7 1.8h-.2c-2 0-3.6-.2-5-.5s-2.2-.6-2.7-.9l1.1-5.3c.1 0 .1 0 .2.1v-.1c1.1.4 2.2.8 3.3 1 1.1.2 2.2.4 3.3.4 1.1 0 1.9-.1 2.3-.3.5-.2.7-.7.7-1.4.3-.6 0-1.1-.6-1.5zm-33.7-8.9c.6-1.5 1.4-2.8 2.4-3.8s2.1-1.8 3.4-2.3c1.3-.5 2.6-.8 4-.8h.2c3.2 0 5.7 1 7.5 3 1.8 2 2.8 5 2.8 8.9v1.3c0 .5-.1.9-.1 1.2h-14.4c.1 1.3.8 2.4 1.8 3.2 1.1.8 2.5 1.2 4.3 1.2 1.1 0 2.2-.1 3.3-.3 1.1-.2 2-.5 2.7-.8v.1c.1 0 .1 0 .2-.1l.9 5.3c-.3.2-.8.4-1.4.5s-1.2.3-1.9.5c-.7.1-1.4.2-2.2.3-.8.1-1.6.1-2.4.1h-.2c-2 0-3.8-.3-5.3-.9-1.5-.6-2.7-1.5-3.7-2.5-1-1.1-1.7-2.3-2.2-3.8-.5-1.5-.7-3-.7-4.7.1-2.3.4-4.1 1-5.6zm-11.6-13.2v6.8h7.6v5.4h-7.6v8.1c0 1.4.2 2.5.7 3.3.5.8 1.4 1.2 2.8 1.2.6 0 1.3-.1 2-.2s1.4-.3 2-.5v.1c.1 0 .1 0 .2-.1l.9 5.1c-.8.3-1.6.6-2.6.8s-2.1.4-3.4.4h-.2c-1.7 0-3.2-.2-4.3-.7-1.1-.5-2-1.2-2.7-2-.7-.9-1.2-1.9-1.4-3.1-.3-1.2-.4-2.6-.4-4.1V222l6.3-1.1h.1zm-127.3-79.6c.1 0 .1 0 0 0 .1 0 .1 0 0 0 .4-.1.8-.2 1.1-.3 1.4-.3 2.5-.2 3.8-.3 2.8-.3 5-.5 7.1-1.2.6-.3 1.3-1.1 1.7-1.7l1.6-.5c-1.8-12.8 1.3-25.3 8-35.5l-1.3-1.1c-.1-.5-.2-1.6-.8-2.3-1.5-1.5-3.5-2.7-5.9-4.1-1.1-.7-2.1-1.1-3.3-1.9-.2-.2-.6-.4-.8-.7h-.1c-1.9-1.5-2.3-4.1-1-5.8.8-1 1.9-1.4 3.1-1.4h.2c.9 0 1.9.4 2.7 1 .3.2.6.5.9.7 1.1.9 1.7 1.8 2.6 2.7 1.9 2 3.5 3.6 5.3 4.8.4.3.8.3 1.2.3.3 0 .7-.1 1-.1h.1c.2.2.9.6 1.3.9 6.7-7.1 15.5-12.3 25.6-14.6 2.4-.5 4.8-.9 7.1-1.1l.1-1.7c.5-.5 1.1-1.2 1.3-2 .2-2.1-.1-4.4-.4-7.1-.2-1.3-.5-2.3-.5-3.7v-1.1c0-2.4 1.8-4.4 3.9-4.4h.2c2.2 0 3.9 2 3.9 4.4v1.1c-.1 1.4-.4 2.5-.5 3.7-.3 2.7-.6 5-.4 7.1.2 1.1.8 1.5 1.3 2 0 .3.1 1.2.1 1.8 12.5 1.1 24.1 6.8 32.6 15.7l1.4-1h1.1c.4 0 .9-.1 1.3-.3 1.8-1.2 3.4-2.8 5.3-4.8.9-.9 1.5-1.8 2.6-2.7.2-.2.6-.5.9-.7 1-.8 2.1-1.1 3.2-1 1.1 0 2.2.5 2.9 1.4 1.4 1.7.9 4.3-1 5.8-.3.2-.6.5-.9.7-1.1.8-2.2 1.3-3.3 1.9-2.4 1.5-4.3 2.7-5.9 4.1-.7.8-.7 1.5-.7 2.2-.2.2-1 .9-1.4 1.3 3.4 5 5.9 10.8 7.4 17 1.4 6.2 1.6 12.4.8 18.4l1.6.5c.3.4.9 1.4 1.7 1.7 2 .6 4.3.9 7.1 1.2 1.3.1 2.4 0 3.8.3.3.1.8.2 1.1.3 2.3.6 3.8 2.7 3.3 4.8-.4 1.9-2.2 3.1-4.3 3-.3 0-.7 0-1-.1h-.2c-.3-.1-.7-.1-1-.2-1.3-.4-2.3-.9-3.5-1.4-2.6-.9-4.7-1.7-6.8-2-1 0-1.5.4-2.1.8h-.1c-.3-.1-1-.2-1.5-.3-3.8 11.8-11.8 22.1-22.7 28.5.2.5.5 1.4.7 1.6-.2.7-.6 1.3-.3 2.3.8 2 2 3.9 3.5 6.2.7 1.1 1.5 1.9 2.1 3.1.2.3.4.7.5 1.1 1 2.2.3 4.7-1.7 5.6-.5.3-1.1.4-1.6.3-1.6.1-3.2-.9-4-2.6-.1-.3-.4-.7-.5-1-.6-1.3-.8-2.4-1.1-3.6-.9-2.6-1.6-4.8-2.7-6.6-.6-.9-1.3-1-2-1.2-.1-.2-.6-1-.8-1.5-2.1.8-4.3 1.5-6.6 2-3.9.9-7.7 1.3-11.5 1.3-6.3 0-12.4-1.2-18.1-3.3l-.9 1.6c-.7.2-1.3.4-1.7.8-1.4 1.7-2 4.5-3 7.1-.4 1.2-.6 2.3-1.1 3.6-.1.3-.3.7-.5 1-.8 1.7-2.4 2.6-4 2.6-.6 0-1.1-.1-1.6-.3-1.9-.9-2.7-3.4-1.7-5.6.1-.3.3-.8.5-1.1.7-1.2 1.4-2.1 2.1-3.1 1.5-2.3 2.8-4.4 3.6-6.4.2-.7-.1-1.6-.3-2.2l.7-1.7c-10.5-6.2-18.7-16.1-22.7-28.3l-1.5.3h-.1c-.4-.2-1.3-.8-2.1-.8-2.1.3-4.3 1.1-6.8 2-1.2.5-2.2 1-3.5 1.4-.3.1-.7.2-1 .2h-.2c-.3.1-.7.1-1 .1-2 .1-3.8-1.1-4.3-3-.5-2.2 1-4.3 3.3-4.9zm103.6 103.3c1.1.8 2.5 1.2 4.3 1.2 1.1 0 2.2-.1 3.3-.3 1.1-.2 2-.5 2.7-.8v.1c.1 0 .1 0 .2-.1l.9 5.3c-.3.2-.8.4-1.4.5s-1.2.3-1.9.5c-.7.1-1.4.2-2.2.3-.8.1-1.6.1-2.4.1h-.2c-2 0-3.8-.3-5.3-.9-1.5-.6-2.7-1.5-3.7-2.5-1-1.1-1.7-2.3-2.2-3.8-.5-1.5-.7-3-.7-4.7 0-2.1.3-3.8.9-5.4.6-1.5 1.4-2.8 2.4-3.8s2.1-1.8 3.4-2.3c1.3-.5 2.6-.8 4-.8h.2c3.2 0 5.7 1 7.5 3 1.8 2 2.8 5 2.8 8.9v1.3c0 .5-.1.9-.1 1.2h-14.4c.2 1.2.8 2.3 1.9 3zm-20.3-10.5c-.5-.9-1.5-1.3-3-1.3-.4 0-.9 0-1.3.1-.5 0-1 .1-1.4.2v17.8H221v-22.3c1.1-.3 2.5-.6 4.2-.9s3.5-.4 5.4-.4h.2c1.9 0 3.5.3 4.7.8 1.3.5 2.3 1.2 3 2.2.7.9 1.3 2.1 1.6 3.3.3 1.3.5 2.7.5 4.3v13H234v-12.3c0-2.1-.3-3.6-.8-4.5zm-15.4-6l-1.1 5.4h-.2c-.6-.1-1.2-.3-2-.5-.7-.2-1.5-.2-2.4-.2-.4 0-.8 0-1.3.1-.6.1-1 .2-1.3.2v17.7H203V229c1.1-.4 2.5-.8 4-1.2 1.5-.4 3.3-.5 5.2-.5h.2c.3 0 .8 0 1.2.1.5 0 1 .1 1.4.2.5.1 1 .2 1.4.3.6 0 1 .1 1.4.2zm-32.2 16.5c1.1.8 2.5 1.2 4.3 1.2 1.1 0 2.2-.1 3.3-.3 1.1-.2 2-.5 2.7-.8v.1c.1 0 .1 0 .2-.1l.9 5.3c-.3.2-.8.4-1.4.5-.6.2-1.2.3-1.9.5-.7.1-1.4.2-2.2.3-.8.1-1.6.1-2.4.1h-.2c-2 0-3.8-.3-5.3-.9-1.5-.6-2.7-1.5-3.7-2.5-1-1.1-1.7-2.3-2.2-3.8-.5-1.5-.7-3-.7-4.7 0-2.1.3-3.8.9-5.4.6-1.5 1.4-2.8 2.4-3.8s2.1-1.8 3.4-2.3c1.3-.5 2.6-.8 4-.8h.2c3.2 0 5.7 1 7.5 3 1.8 2 2.8 5 2.8 8.9v1.3c0 .5-.1.9-.1 1.2h-14.3c.2 1.2.8 2.3 1.8 3zM159 216.7v11.4c.7-.3 1.3-.5 2-.7.8-.2 1.6-.3 2.5-.3h.2c1.6 0 3 .3 4.2.9 1.2.6 2.2 1.4 3.1 2.4.8 1.1 1.4 2.3 1.9 3.8.4 1.5.6 3.1.6 4.9 0 1.8-.3 3.5-.8 5s-1.3 2.8-2.3 3.8c-1 1.1-2.2 1.9-3.7 2.4-1.4.6-3.1.9-4.9.9h-.2c-.8 0-1.6 0-2.4-.1-.8-.1-1.7-.2-2.5-.3-.8-.1-1.6-.3-2.3-.4-.7-.2-1.4-.3-2-.5v-32.3l6.3-1.1.3.2zm-31.8 11h6.6v12.1c0 2.1.3 3.6.8 4.6.5.9 1.5 1.4 3 1.4.4 0 .9 0 1.3-.1.5 0 1-.1 1.4-.2v-17.8h6.6V250c-1.1.3-2.5.6-4.2.9s-3.5.4-5.4.4h-.2c-1.9 0-3.5-.3-4.7-.8-1.3-.5-2.3-1.3-3-2.2-.7-1-1.3-2.1-1.6-3.4-.3-1.3-.5-2.8-.5-4.3v-12.9zm-24-9.9l6.3-1.1h.2v19.1c.6-.6 1.2-1.3 1.8-2 .7-.8 1.3-1.5 1.9-2.3l1.8-2.1c.6-.7 1-1.3 1.4-1.7h7.8c-1.5 1.8-3 3.5-4.4 5.1-1.4 1.6-3 3.3-4.7 5 .9.8 1.7 1.7 2.6 2.8.9 1.1 1.8 2.2 2.6 3.4.9 1.2 1.6 2.3 2.3 3.5.7 1.2 1.3 2.2 1.8 3.2h-7.5c-.5-.8-1-1.6-1.5-2.5-.6-.9-1.2-1.8-1.8-2.8-.7-.9-1.3-1.8-2.1-2.7-.7-.8-1.3-1.4-2-2v10h-6.6v-32.9zm227.4 123.7H101.5V260h229.1v81.5z" class="st1"/><path d="M138 296.4h5.1v-18.6h7.1V273h-19.4v4.8h7.2zm21.3-7.5h4.1l5 7.5h6l-5.7-8.4c1.6-.6 2.9-1.5 3.8-2.9.8-1.2 1.2-2.6 1.2-4.4v-.1c0-1-.2-1.9-.4-2.7-.3-1-.9-1.9-1.6-2.6-1.5-1.5-3.8-2.4-6.8-2.4h-10.7v23.4h5.1v-7.4zm0-11.2h5.1c2.5 0 4 1.1 4 3.3v.1c0 2-1.4 3.3-3.9 3.3h-5.2v-6.7zm36.4 18.7h5.4l-10-23.6h-4.7l-4 9.4-.7 1.6-5.3 12.5h5.2l2.1-5.2h9.9l2.1 5.3zm-10.2-9.8l3.1-7.6 3.1 7.6h-6.2zm19.4-13.6h5.1v23.4h-5.1zm15 8.5l11.4 14.9h4.3V273h-5v14.4l-11-14.4h-4.7v23.4h5zm22.7-8.5h5.1v23.4h-5.1zm26.7 14.4l-11-14.4h-4.8v23.4h5.1v-14.9l11.4 14.9h4.3V273h-5zm21.7-4.5v4.4h5.2v3.3c-1.3.9-3 1.4-4.8 1.4-4.1 0-7.1-3.1-7.1-7.4v-.1c0-4 3-7.3 6.7-7.3 2.7 0 4.3.9 6.1 2.4l3.2-3.9c-2.4-2.1-5-3.2-9.2-3.2-7.1 0-12.3 5.4-12.3 12.1v.1c0 6.9 5 12 12.3 12 4.1 0 7.3-1.6 9.7-3.5.1-.1.2-.1.3-.2v-10.2H291zm-134.9 30.4c0-4.8-3.4-8.1-9-8.1h-9.6v23.4h5.1v-7h3.9c5.4-.1 9.6-2.9 9.6-8.3zm-5.2.1c0 2-1.5 3.5-4.1 3.5h-4.1v-7.1h4c1.2 0 2.1.3 2.9.8.8.6 1.3 1.5 1.3 2.8zm14.7-8.4l-10 23.6h5.2l2.1-5.2h9.9l2.1 5.2h5.4l-10-23.6h-4.7zm-.8 13.8l3.1-7.6 3.1 7.6h-6.2zm38.7-5.8c0-2.3-.7-4.1-2-5.4-1.5-1.5-3.8-2.4-6.8-2.4H184v23.4h5.1v-7.5h4.1l5 7.5h6l-5.7-8.4c2.9-1.1 5-3.5 5-7.2zm-5.2.2c0 2-1.4 3.3-3.9 3.3h-5.2v-6.7h5.1c2.4 0 4 1.1 4 3.4zm8.1-3.3h7.2v18.7h5.1v-18.7h7.1v-4.7h-19.4zm39.1-.8v10.5l-1.9-2.4-1.8-2.4-7.3-9.6h-4.7v23.4h5v-14.9l11.4 14.9h4.3v-23.4h-5zm15.8 10h11v-4.6h-11v-4.8h12.5v-4.5h-17.7v23.4H274V324h-12.7zM298 313c0-2.3-.7-4.1-2-5.4-1.5-1.5-3.8-2.4-6.8-2.4h-10.7v23.4h5.1v-7.5h4.1l5 7.5h6l-5.7-8.4c3-1.1 5-3.5 5-7.2zm-5.2.2c0 2-1.4 3.3-3.9 3.3h-5.2v-6.7h5.1c2.5 0 4 1.1 4 3.4z" class="st1"/></svg>