<svg id="svg192014" xmlns="http://www.w3.org/2000/svg" viewBox="0 0 592.611 446.79179"><defs><style>.cls-1{fill:none;}.cls-2,.cls-3{fill:#fff;}.cls-3{opacity:0.984;isolation:isolate;}</style></defs><path class="cls-1" d="M298.74584,242.95325a108.84426,108.84426,0,1,0-110.925-106.72278A108.84428,108.84428,0,0,0,298.74584,242.95325ZM255.87425,213.9317c-8.094,6.28449-20.48242-4.49951-26.189-9.72705s-17.73572-17.20526-11.99609-25.43378,32.30346-19.1499,42.11328-21.78625a14.9107,14.9107,0,0,1,3.56457-.51068c8.0127-.114,13.66663,7.01983,11.93079,15.419C273.3142,181.49188,263.968,207.64716,255.87425,213.9317ZM321.504,225.26508q-1.16728.33672-2.4309.639a93.28122,93.28122,0,0,1-16.91346,2.25513h-.26074c-.74609.01965-1.49084.06757-2.23828.07953-.39929.012-.79687.01306-1.197.02392-.39917.012-.79614.01307-1.19458.02393-.7478.01093-1.493.02728-2.24.01093-.0874,0-.17358-.00013-.2605,0a93.35821,93.35821,0,0,1-16.988-1.60059q-1.27221-.25342-2.45385-.54468c-2.73633-.39136-3.17408-1.05224-2.99488-2.82953a12.32324,12.32324,0,0,1,.21131-1.53051c1.8341-7.9314,4.20593-15.749,6.43493-23.58069,3.23743-12.95349,6.52954-28.27765,6.7865-38.09.00428-.64673.02405-1.29047.012-1.93957a26.41654,26.41654,0,0,1-15.541-23.56952c-.012-.44434-.004-.88739.00806-1.33.01281-.43036.03808-.85736.07019-1.28259q.05107-.6438.13232-1.27924h.00147a26.23922,26.23922,0,0,1,3.27172-9.72577c.182-.3175.37281-.63006.56727-.93872.04016-.06372.07739-.12787.11779-.192q.34278-.53374.70874-1.04974c.19458-.27338.39649-.53827.60083-.80487.06739-.08581.13208-.17755.20044-.26337.15222-.19213.3114-.3786.46851-.56579.12073-.145.23852-.29206.36279-.43323.28052-.32111.56787-.63715.86328-.94464q.44074-.45777.90186-.89209l.00757-.00024c.12939-.12226.26379-.23652.39526-.35682.19067-.17279.37988-.348.57544-.51477.08948-.07458.18164-.14831.272-.22253.24414-.20325.48975-.40491.7417-.59973.06006-.04657.12207-.09027.18274-.13629.2865-.21766.57581-.43311.87122-.63758a.85644.85644,0,0,0,.09594-.0653c.31983-.22107.64283-.43555.9729-.64405.04688-.02807.095-.05212.14185-.08417q.48395-.29919.98071-.57995c.02088,0,.03687-.03174.05689-.032.35937-.20026.72388-.39344,1.0935-.57551a26.21579,26.21579,0,0,1,6.0691-2.13861c.41821-.09259.83984-.17273,1.26538-.2445.02807-.00116.054-.00159.08593-.0022.39991-.06824.80127-.12714,1.20728-.17438.42285-.05047.85-.081,1.27881-.12109.44116-.04572.88428-.05414,1.32861-.06177l.00391.00275c.4469-.00836.89013-.01642,1.33227.00763.42993.01568.858.03576,1.28272.07184.40747.03088.81079.07775,1.213.12707.02844-.0011.05408-.00165.08606-.0022.42822.05494.85254.11908,1.27417.19568a26.22052,26.22052,0,0,1,6.147,1.90277q.56453.254,1.11487.5329c.0177,0,.03772.03235.05774.032.33862.17273.67236.35517,1.00232.542.048.026.09741.04644.14514.07849.33765.19427.66895.398.997.60571a.35576.35576,0,0,1,.09827.05817c.30334.19464.60058.39776.89526.60339.06213.04413.12622.08472.188.12909.259.18463.51257.37628.7644.57074.093.0705.18836.13794.28028.21167.2019.15942.39758.327.59472.49219.13611.11426.27515.22613.40869.34118.32056.27973.63672.56678.94458.863.308.29657.60718.60126.89893.91071.12915.13757.25293.2799.37939.419.16431.1817.33069.36048.48975.54731.07227.08337.13965.16949.21057.25537.2146.25732.42652.51641.63147.78106q.38672.501.74878,1.02155c.04285.0625.08252.12512.125.18762.20654.3009.40894.6062.603.91614a26.23477,26.23477,0,0,1,3.64465,9.59216h.0011q.10584.63135.18164,1.27326c.05.42376.0918.8493.11987,1.27893.02881.44043.05323.88281.06092,1.32867a26.417,26.417,0,0,1-14.61963,24.15192c.01233.64911.05774,1.29156.08581,1.93774.63575,9.79505,4.51685,24.98065,8.25183,37.79968,2.52955,7.73975,5.2013,15.46,7.34034,23.3147a12.27775,12.27775,0,0,1,.27014,1.5213C324.63524,224.091,324.22338,224.76825,321.504,225.26508Zm45.22229-24.179c-5.22753,5.70642-17.2008,17.73529-25.42932,11.99585s-19.1499-32.30377-21.78625-42.11359c-2.30689-8.58343,3.48767-15.52514,11.40307-15.79858v-.00024a14.80419,14.80419,0,0,1,3.50513.30389c9.59912,1.98358,35.75415,11.32965,42.0387,19.42346C382.74217,182.99091,371.95384,195.37946,366.7263,201.08612ZM379.83666,106.432a14.29041,14.29041,0,0,1,2.074.08978c10.167,1.27911,11.29883,17.66913,11.63745,25.40082s.37622,24.70288-9.50073,26.463c-9.87683,1.7597-36.38318-9.29816-45.18408-14.37067-8.80078-5.07214-8.60523-16.11481-.415-21.49963,7.67834-5.04828,30.22314-15.809,41.38843-16.08167ZM337.41429,54.31812a8.93415,8.93415,0,0,1,4.93409-1.88471c7.57128-.551,16.61828,7.36884,21.25488,11.61621,5.70654,5.22754,17.73559,17.20081,11.996,25.42932-5.7395,8.22821-32.30359,19.1496-42.1134,21.78632-9.80982,2.63635-17.479-5.30939-15.49536-14.90839S329.3203,60.60291,337.41429,54.31812ZM269.0388,48.86444c1.2793-10.16711,17.66492-11.29822,25.39649-11.63739.96631-.04895,2.07812-.06976,3.2854-.09381v-.00031c8.45239-.09924,21.6377.95282,23.17761,9.5951,1.75989,9.87683-9.29809,36.38318-14.37048,45.1839-5.07227,8.8009-16.115,8.60534-21.49976.415C279.64318,84.13672,267.75951,59.03168,269.0388,48.86444ZM226.56224,67.17273c4.24744-4.63672,12.95093-13.44788,20.47827-13.50873v.00006a8.32755,8.32755,0,0,1,4.951,1.51258c8.22864,5.7395,19.1543,32.30334,21.79078,42.11352,2.63635,9.80975-5.30921,17.47888-14.90833,15.495-9.599-1.98359-35.75854-11.32965-42.04309-19.42365S221.3347,72.87927,226.56224,67.17273Zm-17.321,42.69934a13.05375,13.05375,0,0,1,2.0376-.184v-.0011c11.08276-.21661,34.89575,9.80475,43.14648,14.56,8.8009,5.07245,8.60522,16.11053.415,21.49542-8.19019,5.38507-33.29077,17.273-43.45789,15.99341-10.16711-1.27918-11.30273-17.66461-11.642-25.3963C199.40184,128.60779,199.36424,111.632,209.2412,109.87207Z"/><path class="cls-1" d="M153.13756,348.44257a18.48066,18.48066,0,0,0-12.48975-4.39966l.00013-.00025a19.068,19.068,0,0,0-12.63172,4.25788,18.1256,18.1256,0,0,0-6.24475,11.63812h37.61084A18.01519,18.01519,0,0,0,153.13756,348.44257Z"/><path class="cls-1" d="M561.18114,348.44257a18.48013,18.48013,0,0,0-12.48963-4.39966l-.00012-.00025a19.06769,19.06769,0,0,0-12.63159,4.25788,18.12626,18.12626,0,0,0-6.24487,11.63812H567.426A18.0164,18.0164,0,0,0,561.18114,348.44257Z"/><path class="cls-2" d="M299.0515,258.78229A124.67619,124.67619,0,1,0,171.99181,136.53607,124.676,124.676,0,0,0,299.0515,258.78229Zm-4.50793-233.477A108.84426,108.84426,0,1,1,187.82079,136.23047,108.84427,108.84427,0,0,1,294.54357,25.3053Z"/><path class="cls-2" d="M338.86327,144.01483c8.8009,5.07251,35.30725,16.13037,45.18408,14.37067,9.877-1.76007,9.83948-18.7312,9.50073-26.463s-1.47046-24.12171-11.63745-25.40082a14.29041,14.29041,0,0,0-2.074-.08978v.00158c-11.16529.27265-33.71009,11.03339-41.38843,16.08167C330.258,127.9,330.06249,138.94269,338.86327,144.01483Zm9.33691-22.82342c9.13172-1.01807,26.5835-3.6789,32.18445-4.00122l-.00012.00048c1.0935-.06378,1.73242-.0365,1.7605.1106.23645,1.17657-38.5774,9.70923-38.43116,10.89929s40.27466.63458,40.33838,1.83222c.06336,1.19775-39.7976,4.03772-39.82177,5.24041-.02283,1.20227,39.78039,6.141,39.667,7.33692-.11365,1.1961-40.21509-1.97333-40.42432-.79236s38.01831,11.80408,37.73,12.96789c-.00549.0152-.073.0152-.105.04725-4.18738-.24756-11.65747-1.96283-18.82458-4.5055a153.64448,153.64448,0,0,1-21.58472-9.47571c-3.39771-1.95831-4.73279-4.69647-4.75293-7.4942a9.23926,9.23926,0,0,1,4.51526-7.79254C342.1787,124.42944,344.92064,122.87177,348.20018,121.19141Z"/><path class="cls-2" d="M211.38243,161.73578c10.16712,1.27954,35.2677-10.60834,43.45789-15.99341,8.19018-5.38489,8.38586-16.423-.415-21.49542-8.25073-4.75525-32.06372-14.77661-43.14648-14.56v.0011a13.05375,13.05375,0,0,0-2.0376.184c-9.877,1.76-9.83936,18.73572-9.50073,26.46741C200.0797,144.07117,201.21532,160.4566,211.38243,161.73578Zm37.7843-32.04425c.10914-1.19647-39.00158-9.03107-38.79907-10.217.01258-.07581.176-.11469.47425-.15076v.00055c3.03759-.28455,19.53454,1.60181,30.14587,2.5415a122.27065,122.27065,0,0,1,11.61206,5.546c3.39819,1.9588,4.73279,4.69427,4.75281,7.48992a9.24014,9.24014,0,0,1-4.51526,7.79248,138.92411,138.92411,0,0,1-20.35718,10.16157c-2.14551.87237-4.32153,1.6621-6.44043,2.35992-7.35937,1.572-13.5343,2.80963-13.65979,2.34936-.31579-1.15838,37.46106-12.70373,37.23364-13.88079s-40.10815,2.40765-40.24841,1.21447c-.14038-1.19354,39.212-7.40448,39.15588-8.6029-.05627-1.19818-39.36694-2.89765-39.33483-4.09631C209.217,131.00159,249.05773,130.88782,249.16673,129.69153Z"/><path class="cls-2" d="M333.48583,111.26526c9.80981-2.63672,36.3739-13.55811,42.1134-21.78632,5.73962-8.22851-6.28943-20.20178-11.996-25.42932-4.6366-4.24737-13.6836-12.16717-21.25488-11.61621a8.93415,8.93415,0,0,0-4.93409,1.88471c-8.094,6.28479-17.44018,32.43981-19.42382,42.03875S323.676,113.90161,333.48583,111.26526Zm-4.7107-35.74982c2.756-6.53314,6.2489-12.78943,8.90821-16.18786-2.3711,5.8767-10.447,22.02764-13.92762,29.90185C325.07445,85.06494,326.78368,80.23621,328.77513,75.51544ZM321.5659,97.09662c.19678-.95282.51661-2.20075.886-3.543,3.01965-2.10083,25.59888-30.05963,26.51636-29.3761l-.00025-.00812c.96338.717-22.11694,33.0152-21.21289,33.80664s30.25367-26.09515,31.094-25.23639c.84057.85932-26.88562,29.45673-26.09961,30.36664s33.53076-21.64892,34.2395-20.67993c.56958.77863-19.32092,16.18048-26.91309,22.79187-3.00183,1.107-5.70861,2.02637-7.53735,2.51807a9.62659,9.62659,0,0,1-4.99463.12665C323.22276,106.76727,320.42162,102.63379,321.5659,97.09662Z"/><path class="cls-2" d="M334.41893,155.47345a14.80419,14.80419,0,0,0-3.50513-.30389v.00024c-7.9154.27344-13.71,7.21515-11.40307,15.79858,2.63635,9.80982,13.55774,36.374,21.78625,42.11359s20.20179-6.28943,25.42932-11.99585c5.22754-5.70666,16.01587-18.09521,9.73133-26.18921C370.17308,166.8031,344.01805,157.457,334.41893,155.47345Zm1.58838,5.83624c-.68286.98651,29.14478,26.87433,28.3938,27.81244S332.45555,165.8847,331.637,166.76251c-.8186.8772,25.05347,30.91724,24.17053,31.72876-.88293.81122-28.34949-27.47552-29.28735-26.72595-.93787.74976,20.54358,33.79755,19.54895,34.47339-.64221.43646-10.528-12.57953-17.83386-21.84375a131.83207,131.83207,0,0,1-5.20374-14.37348,8.72209,8.72209,0,0,1,1.25732-7.87109,8.63453,8.63453,0,0,1,6.74854-3.3335v-.00109a11.28261,11.28261,0,0,1,2.64648.23254,137.44919,137.44919,0,0,1,20.55225,6.7962c8.69287,5.8786,17.91675,12.0755,17.5896,12.62317C371.20983,179.49939,336.69042,160.32379,336.00731,161.30969Z"/><path class="cls-2" d="M263.36705,156.47394a14.9107,14.9107,0,0,0-3.56457.51068c-9.80982,2.63635-36.37378,13.55774-42.11328,21.78625s6.28942,20.2063,11.99609,25.43378,18.095,16.01154,26.189,9.72705c8.09375-6.28454,17.44-32.43982,19.42359-42.03876C277.03368,163.49377,271.37975,156.35992,263.36705,156.47394Zm8.36,14.67938a108.92032,108.92032,0,0,1-3.50122,11.798c-7.08081,9.33966-18.45874,25.28888-19.17285,24.82917-1.00989-.64978,19.68115-34.67133,18.72143-35.39325s-28.06177,28.29113-28.96069,27.49707c-.89881-.79425,24.359-31.13532,23.519-31.9914-.84-.85632-31.56885,24.10157-32.34863,23.18854-.77979-.91327,29.08838-27.47082,28.37256-28.43555-.71582-.9649-35.40845,19.11548-36.05213,18.09943-.28235-.44586,5.94275-4.92773,12.92688-9.88147,1.169-.61279,2.35279-1.21362,3.55737-1.78729a153.80734,153.80734,0,0,1,21.96094-8.57123,11.0889,11.0889,0,0,1,2.67456-.38293C269.24291,160.04266,273.06151,164.69623,271.727,171.15332Z"/><path class="cls-2" d="M258.874,112.78516c9.59912,1.98388,17.54468-5.68525,14.90833-15.495-2.63648-9.81018-13.56214-36.374-21.79078-42.11352a8.32755,8.32755,0,0,0-4.951-1.51258V53.664c-7.52734.06085-16.23083,8.872-20.47827,13.50873-5.22754,5.70654-16.01587,18.09491-9.73132,26.18878S249.275,110.80157,258.874,112.78516Zm2.812-36.50885c1.3905,2.91876,2.65283,5.86645,3.82691,8.7315-2.74292-5.62372-5.9043-11.978-8.6095-17.53741C258.53844,70.18262,260.19054,73.13733,261.686,76.27631Zm-2.37207,27.717c.75391-.93354-27.18017-28.67707-26.364-29.557.81616-.87952,30.2063,25.14893,31.0924,24.33649.88611-.81342-23.05065-32.81995-22.10729-33.56263V65.21c.869-.684,22.85034,25.46527,27.09265,29.07.5133,1.52258.942,2.88733,1.22961,3.95733,1.01782,3.78736.02319,6.67127-1.94031,8.66156a9.239,9.239,0,0,1-8.70349,2.31073c-1.70117-.35137-4.23352-1.0628-7.04-1.93164-7.27514-6.28295-28.68652-22.43219-28.12451-23.249C225.13048,83.03857,258.56017,104.92688,259.314,103.99329Z"/><path class="cls-2" d="M306.52782,91.91193c5.07239-8.80072,16.13037-35.30707,14.37048-45.1839-1.53991-8.64228-14.72522-9.69434-23.17761-9.5951v.00031c-1.20728.02405-2.31909.04486-3.2854.09381-7.73157.33917-24.11719,1.47028-25.39649,11.63739s10.60438,35.27228,15.98926,43.46246C290.41283,100.51727,301.45555,100.71283,306.52782,91.91193ZM276.69628,48.68207c1.16784-.28253,10.73461,38.21106,11.92114,38.02264,1.18664-.18878-1.14942-39.53326.04761-39.64111,1.19726-.10761,5.86914,39.03729,7.07141,39.01318,1.20239-.01471,4.57092-39.39087,5.771-39.31427l-.00012.00006c1.20007.07544-.02637,40.00025,1.16406,40.15222,1.19019.15162,10.77625-39.0147,11.94947-38.76611.65808.13873-1.28211,12.436-2.92884,23.367a148.34714,148.34714,0,0,1-8.332,18.57153c-1.95886,3.399-4.6925,4.73242-7.48987,4.74841a9.24736,9.24736,0,0,1-7.79712-4.51514A124.01719,124.01719,0,0,1,280.3391,75.5672C278.53722,63.94666,275.9724,48.85608,276.69628,48.68207Z"/><path class="cls-2" d="M324.1173,220.80078c-2.139-7.85467-4.81079-15.57495-7.34034-23.3147-3.735-12.819-7.61608-28.00463-8.25183-37.79968-.02807-.64618-.07348-1.28863-.08581-1.93774A26.417,26.417,0,0,0,323.059,133.59674c-.00769-.44586-.03211-.88824-.06092-1.32867-.02807-.42963-.06982-.85517-.11987-1.27893q-.07581-.64114-.18164-1.27326h-.0011a26.23477,26.23477,0,0,0-3.64465-9.59216c-.19409-.30994-.39649-.61524-.603-.91614-.04248-.0625-.08215-.12512-.125-.18762q-.36328-.51957-.74878-1.02155c-.20495-.26465-.41687-.52374-.63147-.78106-.07092-.08588-.1383-.172-.21057-.25537-.15906-.18683-.32544-.36561-.48975-.54731-.12646-.1391-.25024-.28143-.37939-.419-.29175-.30945-.59094-.61414-.89893-.91071-.30786-.29626-.624-.58331-.94458-.863-.13354-.115-.27258-.22692-.40869-.34118-.19714-.16516-.39282-.33277-.59472-.49219-.09192-.07373-.18726-.14117-.28028-.21167-.25183-.19446-.50537-.38611-.7644-.57074-.06177-.04437-.12586-.085-.188-.12909-.29468-.20563-.59192-.40875-.89526-.60339a.35576.35576,0,0,0-.09827-.05817c-.328-.2077-.6593-.41144-.997-.60571-.04773-.032-.09717-.05249-.14514-.07849-.33-.18683-.6637-.36927-1.00232-.542-.02.00031-.04-.032-.05774-.032q-.55023-.279-1.11487-.5329a26.22052,26.22052,0,0,0-6.147-1.90277c-.42163-.0766-.846-.14074-1.27417-.19568-.032.00055-.05762.0011-.08606.0022-.40222-.04932-.80554-.09619-1.213-.12707-.42468-.03608-.85279-.05616-1.28272-.07184-.44214-.02405-.88537-.016-1.33227-.00763l-.00391-.00275c-.44433.00763-.88745.016-1.32861.06177-.42883.0401-.856.07062-1.27881.12109-.406.04724-.80737.10614-1.20728.17438-.032.00061-.05786.001-.08593.0022-.42554.07177-.84717.15191-1.26538.2445a26.21579,26.21579,0,0,0-6.0691,2.13861c-.36962.18207-.73413.37525-1.0935.57551-.02.0003-.036.032-.05689.032q-.49731.28078-.98071.57995c-.04687.032-.095.0561-.14185.08417-.33007.2085-.65307.423-.9729.64405a.85644.85644,0,0,1-.09594.0653c-.29541.20447-.58472.41992-.87122.63758-.06067.046-.12268.08972-.18274.13629-.252.19482-.49756.39648-.7417.59973-.09033.07422-.18249.148-.272.22253-.19556.16681-.38477.342-.57544.51477-.13147.1203-.26587.23456-.39526.35682l-.00757.00024q-.46034.43414-.90186.89209c-.29541.30749-.58276.62353-.86328.94464-.12427.14117-.24206.28827-.36279.43323-.15711.18719-.31629.37366-.46851.56579-.06836.08582-.133.17756-.20044.26337-.20434.2666-.40625.53149-.60083.80487q-.3673.51545-.70874,1.04974c-.0404.06415-.07763.1283-.11779.192-.19446.30866-.38526.62122-.56727.93872a26.23922,26.23922,0,0,0-3.27172,9.72577H270.446q-.0813.63519-.13232,1.27924c-.03211.42523-.05738.85223-.07019,1.28259-.01209.44263-.02.88568-.00806,1.33a26.41654,26.41654,0,0,0,15.541,23.56952c.01208.6491-.00769,1.29284-.012,1.93957-.257,9.81232-3.54907,25.13648-6.7865,38.09-2.229,7.83172-4.60083,15.64929-6.43493,23.58069a12.32324,12.32324,0,0,0-.21131,1.53051c-.1792,1.77729.25855,2.43817,2.99488,2.82953q1.17938.28939,2.45385.54468a93.35821,93.35821,0,0,0,16.988,1.60059c.08692-.00013.1731,0,.2605,0,.74695.01635,1.49219,0,2.24-.01093.39844-.01086.79541-.012,1.19458-.02393.40015-.01086.79773-.012,1.197-.02392.74744-.012,1.49219-.05988,2.23828-.07953h.26074a93.28122,93.28122,0,0,0,16.91346-2.25513q1.26141-.3,2.4309-.639c2.71937-.49683,3.13123-1.17408,2.88343-2.943A12.27775,12.27775,0,0,0,324.1173,220.80078Z"/><path class="cls-2" d="M252.57347,107.278c2.80652.86884,5.33887,1.58027,7.04,1.93164a9.239,9.239,0,0,0,8.70349-2.31073c1.9635-1.99029,2.95813-4.8742,1.94031-8.66156-.2876-1.07-.71631-2.43475-1.22961-3.95733-4.24231-3.60468-26.22364-29.75391-27.09265-29.07v.00012c-.94336.74268,22.9934,32.74921,22.10729,33.56263-.8861.81244-30.27624-25.216-31.0924-24.33649-.81616.87994,27.11792,28.62347,26.364,29.557s-34.18347-20.95472-34.865-19.96436C223.887,84.84576,245.29833,100.995,252.57347,107.278Z"/><path class="cls-3" d="M252.57347,107.278c2.80652.86884,5.33887,1.58027,7.04,1.93164a9.239,9.239,0,0,0,8.70349-2.31073c1.9635-1.99029,2.95813-4.8742,1.94031-8.66156-.2876-1.07-.71631-2.43475-1.22961-3.95733-4.24231-3.60468-26.22364-29.75391-27.09265-29.07v.00012c-.94336.74268,22.9934,32.74921,22.10729,33.56263-.8861.81244-30.27624-25.216-31.0924-24.33649-.81616.87994,27.11792,28.62347,26.364,29.557s-34.18347-20.95472-34.865-19.96436C223.887,84.84576,245.29833,100.995,252.57347,107.278Z"/><path class="cls-2" d="M263.4243,160.12238a11.0889,11.0889,0,0,0-2.67456.38293,153.80734,153.80734,0,0,0-21.96094,8.57123c-1.20458.57367-2.38842,1.1745-3.55737,1.78729-6.98413,4.95374-13.20923,9.43561-12.92688,9.88147.64368,1.01605,35.33631-19.06433,36.05213-18.09943.71582.96473-29.15235,27.52228-28.37256,28.43555.77978.913,31.50866-24.04486,32.34863-23.18854.84.85608-24.41785,31.19715-23.519,31.9914.89892.79406,28.001-28.219,28.96069-27.49707s-19.73132,34.74347-18.72143,35.39325c.71411.45971,12.092-15.48951,19.17285-24.82917a108.92032,108.92032,0,0,0,3.50122-11.798C273.06151,164.69623,269.24291,160.04266,263.4243,160.12238Z"/><path class="cls-3" d="M263.4243,160.12238a11.0889,11.0889,0,0,0-2.67456.38293,153.80734,153.80734,0,0,0-21.96094,8.57123c-1.20458.57367-2.38842,1.1745-3.55737,1.78729-6.98413,4.95374-13.20923,9.43561-12.92688,9.88147.64368,1.01605,35.33631-19.06433,36.05213-18.09943.71582.96473-29.15235,27.52228-28.37256,28.43555.77978.913,31.50866-24.04486,32.34863-23.18854.84.85608-24.41785,31.19715-23.519,31.9914.89892.79406,28.001-28.219,28.96069-27.49707s-19.73132,34.74347-18.72143,35.39325c.71411.45971,12.092-15.48951,19.17285-24.82917a108.92032,108.92032,0,0,0,3.50122-11.798C273.06151,164.69623,269.24291,160.04266,263.4243,160.12238Z"/><path class="cls-2" d="M354.23607,165.84454a137.44919,137.44919,0,0,0-20.55225-6.7962,11.28261,11.28261,0,0,0-2.64648-.23254v.00109a8.63453,8.63453,0,0,0-6.74854,3.3335,8.72209,8.72209,0,0,0-1.25732,7.87109,131.83207,131.83207,0,0,0,5.20374,14.37348c7.3059,9.26422,17.19165,22.28021,17.83386,21.84375.99463-.67584-20.48682-33.72363-19.54895-34.47339.93786-.74957,28.40442,27.53717,29.28735,26.72595.88294-.81152-24.98913-30.85156-24.17053-31.72876.8186-.87781,32.01331,23.29767,32.76416,22.35962s-29.07666-26.82593-28.3938-27.81244c.68311-.9859,35.20252,18.1897,35.81836,17.158C372.15282,177.92,362.92894,171.72314,354.23607,165.84454Z"/><path class="cls-3" d="M354.23607,165.84454a137.44919,137.44919,0,0,0-20.55225-6.7962,11.28261,11.28261,0,0,0-2.64648-.23254v.00109a8.63453,8.63453,0,0,0-6.74854,3.3335,8.72209,8.72209,0,0,0-1.25732,7.87109,131.83207,131.83207,0,0,0,5.20374,14.37348c7.3059,9.26422,17.19165,22.28021,17.83386,21.84375.99463-.67584-20.48682-33.72363-19.54895-34.47339.93786-.74957,28.40442,27.53717,29.28735,26.72595.88294-.81152-24.98913-30.85156-24.17053-31.72876.8186-.87781,32.01331,23.29767,32.76416,22.35962s-29.07666-26.82593-28.3938-27.81244c.68311-.9859,35.20252,18.1897,35.81836,17.158C372.15282,177.92,362.92894,171.72314,354.23607,165.84454Z"/><path class="cls-2" d="M335.9359,133.35748c.02014,2.79773,1.35522,5.53589,4.75293,7.4942a153.64448,153.64448,0,0,0,21.58472,9.47571c7.16711,2.54267,14.6372,4.25794,18.82458,4.5055.032-.032.09949-.032.105-.04725.28833-1.16381-37.93933-11.78692-37.73-12.96789s40.31067,1.98846,40.42432.79236c.1134-1.19593-39.68982-6.13465-39.667-7.33692.02417-1.20269,39.88513-4.04266,39.82177-5.24041-.06372-1.19764-40.192-.64215-40.33838-1.83222s38.66761-9.72272,38.43116-10.89929c-.02808-.1471-.667-.17438-1.7605-.1106l.00012-.00048c-5.601.32232-23.05273,2.98315-32.18445,4.00122-3.27954,1.68036-6.02148,3.238-7.749,4.37353A9.23926,9.23926,0,0,0,335.9359,133.35748Z"/><path class="cls-3" d="M335.9359,133.35748c.02014,2.79773,1.35522,5.53589,4.75293,7.4942a153.64448,153.64448,0,0,0,21.58472,9.47571c7.16711,2.54267,14.6372,4.25794,18.82458,4.5055.032-.032.09949-.032.105-.04725.28833-1.16381-37.93933-11.78692-37.73-12.96789s40.31067,1.98846,40.42432.79236c.1134-1.19593-39.68982-6.13465-39.667-7.33692.02417-1.20269,39.88513-4.04266,39.82177-5.24041-.06372-1.19764-40.192-.64215-40.33838-1.83222s38.66761-9.72272,38.43116-10.89929c-.02808-.1471-.667-.17438-1.7605-.1106l.00012-.00048c-5.601.32232-23.05273,2.98315-32.18445,4.00122-3.27954,1.68036-6.02148,3.238-7.749,4.37353A9.23926,9.23926,0,0,0,335.9359,133.35748Z"/><path class="cls-2" d="M327.54393,107.86292a9.62659,9.62659,0,0,0,4.99463-.12665c1.82874-.4917,4.53552-1.41107,7.53735-2.51807,7.59217-6.61139,27.48267-22.01324,26.91309-22.79187-.70874-.969-33.45337,21.58984-34.2395,20.67993s26.94018-29.50732,26.09961-30.36664c-.84033-.85876-30.18982,26.0279-31.094,25.23639s22.17627-33.0896,21.21289-33.80664l.00025.00812c-.91748-.68353-23.49671,27.27527-26.51636,29.3761-.36938,1.34228-.68921,2.59021-.886,3.543C320.42162,102.63379,323.22276,106.76727,327.54393,107.86292Z"/><path class="cls-3" d="M327.54393,107.86292a9.62659,9.62659,0,0,0,4.99463-.12665c1.82874-.4917,4.53552-1.41107,7.53735-2.51807,7.59217-6.61139,27.48267-22.01324,26.91309-22.79187-.70874-.969-33.45337,21.58984-34.2395,20.67993s26.94018-29.50732,26.09961-30.36664c-.84033-.85876-30.18982,26.0279-31.094,25.23639s22.17627-33.0896,21.21289-33.80664l.00025.00812c-.91748-.68353-23.49671,27.27527-26.51636,29.3761-.36938,1.34228-.68921,2.59021-.886,3.543C320.42162,102.63379,323.22276,106.76727,327.54393,107.86292Z"/><path class="cls-2" d="M328.77513,75.51544c-1.99145,4.72077-3.70068,9.5495-5.01941,13.714,3.48059-7.87421,11.55652-24.02515,13.92762-29.90185C335.024,62.726,331.53111,68.9823,328.77513,75.51544Z"/><path class="cls-3" d="M328.77513,75.51544c-1.99145,4.72077-3.70068,9.5495-5.01941,13.714,3.48059-7.87421,11.55652-24.02515,13.92762-29.90185C335.024,62.726,331.53111,68.9823,328.77513,75.51544Z"/><path class="cls-2" d="M295.8701,94.83557c2.79737-.016,5.531-1.34942,7.48987-4.74841a148.34714,148.34714,0,0,0,8.332-18.57153c1.64673-10.931,3.58692-23.22822,2.92884-23.367-1.17322-.24859-10.75928,38.91773-11.94947,38.76611-1.19043-.152.036-40.07678-1.16406-40.15222l.00012-.00006c-1.20007-.0766-4.5686,39.29956-5.771,39.31427-1.20227.02411-5.87415-39.12079-7.07141-39.01318-1.197.10785,1.139,39.45233-.04761,39.64111-1.18653.18842-10.7533-38.30517-11.92114-38.02264-.72388.174,1.84094,15.26459,3.64282,26.88513A124.01719,124.01719,0,0,0,288.073,90.32043,9.24736,9.24736,0,0,0,295.8701,94.83557Z"/><path class="cls-3" d="M295.8701,94.83557c2.79737-.016,5.531-1.34942,7.48987-4.74841a148.34714,148.34714,0,0,0,8.332-18.57153c1.64673-10.931,3.58692-23.22822,2.92884-23.367-1.17322-.24859-10.75928,38.91773-11.94947,38.76611-1.19043-.152.036-40.07678-1.16406-40.15222l.00012-.00006c-1.20007-.0766-4.5686,39.29956-5.771,39.31427-1.20227.02411-5.87415-39.12079-7.07141-39.01318-1.197.10785,1.139,39.45233-.04761,39.64111-1.18653.18842-10.7533-38.30517-11.92114-38.02264-.72388.174,1.84094,15.26459,3.64282,26.88513A124.01719,124.01719,0,0,0,288.073,90.32043,9.24736,9.24736,0,0,0,295.8701,94.83557Z"/><path class="cls-2" d="M248.5211,136.2959c.05616,1.19842-39.29626,7.40936-39.15588,8.6029.14026,1.19318,40.02087-2.39154,40.24841-1.21447S212.0642,156.40674,212.38,157.56512c.12549.46027,6.30042-.77734,13.65979-2.34936,2.1189-.69782,4.29492-1.48755,6.44043-2.35992a138.92411,138.92411,0,0,0,20.35718-10.16157,9.24014,9.24014,0,0,0,4.51526-7.79248c-.02-2.79565-1.35462-5.53112-4.75281-7.48992a122.27065,122.27065,0,0,0-11.61206-5.546c-10.61133-.93969-27.10828-2.82605-30.14587-2.5415v-.00055c-.29822.03607-.46167.075-.47425.15076-.20251,1.18591,38.90821,9.02051,38.79907,10.217-.109,1.19629-39.9497,1.31006-39.98046,2.50806C209.15416,133.39825,248.46483,135.09772,248.5211,136.2959Z"/><path class="cls-3" d="M248.5211,136.2959c.05616,1.19842-39.29626,7.40936-39.15588,8.6029.14026,1.19318,40.02087-2.39154,40.24841-1.21447S212.0642,156.40674,212.38,157.56512c.12549.46027,6.30042-.77734,13.65979-2.34936,2.1189-.69782,4.29492-1.48755,6.44043-2.35992a138.92411,138.92411,0,0,0,20.35718-10.16157,9.24014,9.24014,0,0,0,4.51526-7.79248c-.02-2.79565-1.35462-5.53112-4.75281-7.48992a122.27065,122.27065,0,0,0-11.61206-5.546c-10.61133-.93969-27.10828-2.82605-30.14587-2.5415v-.00055c-.29822.03607-.46167.075-.47425.15076-.20251,1.18591,38.90821,9.02051,38.79907,10.217-.109,1.19629-39.9497,1.31006-39.98046,2.50806C209.15416,133.39825,248.46483,135.09772,248.5211,136.2959Z"/><path class="cls-2" d="M261.686,76.27631c-1.49548-3.139-3.14758-6.09369-4.78259-8.80591,2.7052,5.55939,5.86658,11.91369,8.6095,17.53741C264.33885,82.14276,263.07652,79.19507,261.686,76.27631Z"/><path class="cls-3" d="M261.686,76.27631c-1.49548-3.139-3.14758-6.09369-4.78259-8.80591,2.7052,5.55939,5.86658,11.91369,8.6095,17.53741C264.33885,82.14276,263.07652,79.19507,261.686,76.27631Z"/><polygon class="cls-2" points="97.395 305.438 71.848 305.438 27.85 351.849 27.85 305.438 5 305.438 5 404.788 27.85 404.788 27.85 379.667 41.192 365.758 72.984 404.788 99.808 404.788 56.236 349.72 97.395 305.438"/><path class="cls-2" d="M226.52757,380.23389,205.0963,328.43024H182.246l33.06921,76.92505-.28369.70965q-2.27088,5.10929-5.10937,7.23822a11.45375,11.45375,0,0,1-7.38038,2.271,18.926,18.926,0,0,1-6.67053-1.27728,19.22289,19.22289,0,0,1-5.819-3.54822l-8.09,15.754a26.01,26.01,0,0,0,9.50915,5.10956,38.754,38.754,0,0,0,11.78,1.84516q10.92848.00036,18.59265-5.39338,7.806-5.39346,13.05738-18.59259L269.39,328.43048l-21.28943-.00024Z"/><rect class="cls-2" x="278.42455" y="299.47723" width="22.14087" height="105.31067"/><path class="cls-2" d="M342.11937,296.4964a14.39439,14.39439,0,0,0-9.93506-3.40619,14.04221,14.04221,0,0,0-9.93493,3.54822,12.01929,12.01929,0,0,0,0,17.59912,15.68307,15.68307,0,0,0,19.87,0,12.2793,12.2793,0,0,0,3.832-9.2254A10.92122,10.92122,0,0,0,342.11937,296.4964Z"/><rect class="cls-2" x="321.114" y="328.43048" width="22.14075" height="76.35742"/><path class="cls-2" d="M461.59178,327.29523a37.87059,37.87059,0,0,0-15.754,3.2644,31.45207,31.45207,0,0,0-11.78,9.2254,25.38355,25.38355,0,0,0-10.50269-9.2254,32.23061,32.23061,0,0,0-14.61865-3.2644A35.6463,35.6463,0,0,0,395.31127,329.85a28.06955,28.06955,0,0,0-10.3606,7.38031v-8.79956H363.80333v76.35742h22.14075V366.46753q0-9.93485,4.54175-14.90259,4.54174-5.10965,12.20581-5.10925,14.47668,0,14.47668,18.0249v40.30756h22.14075V366.46753q0-9.93485,4.54175-14.90259,4.54174-5.10965,12.34765-5.10925,6.95472,0,10.64466,4.54162,3.83222,4.39984,3.83215,13.48328v40.30756H492.8159v-43.714q.0002-16.88919-8.51562-25.26319Q475.9265,327.2952,461.59178,327.29523Z"/><path class="cls-2" d="M160.80174,332.12048a45.12231,45.12231,0,0,0-41.15918.28406,37.25849,37.25849,0,0,0-14.61865,14.0509,39.04632,39.04632,0,0,0-5.25134,20.15387,38.52012,38.52012,0,0,0,5.39319,20.29566,37.405,37.405,0,0,0,15.32837,14.0509,50.43633,50.43633,0,0,0,22.85034,4.96753q20.72168,0,31.50806-12.34778l-11.78-12.77362a26.38228,26.38228,0,0,1-8.6576,5.67713,29.81538,29.81538,0,0,1-10.50268,1.70312q-8.65778,0-14.47669-4.11584a17.99009,17.99009,0,0,1-7.38025-11.21228h57.76477q.42591-5.53546.42579-5.961v-.00025a40.43983,40.43983,0,0,0-5.25122-20.86352A34.636,34.636,0,0,0,160.80174,332.12048Zm-39.03027,27.81818a18.1256,18.1256,0,0,1,6.24475-11.63812,19.068,19.068,0,0,1,12.63172-4.25788l-.00013.00025a18.48066,18.48066,0,0,1,12.48975,4.39966,18.01519,18.01519,0,0,1,6.24475,11.49609Z"/><path class="cls-2" d="M583.03807,346.02936a34.63448,34.63448,0,0,0-14.19287-13.90888,45.12231,45.12231,0,0,0-41.15918.28406,37.259,37.259,0,0,0-14.61853,14.0509,39.04632,39.04632,0,0,0-5.25134,20.15387,38.51689,38.51689,0,0,0,5.39331,20.29566,37.40359,37.40359,0,0,0,15.32812,14.0509,50.43728,50.43728,0,0,0,22.85047,4.96753q20.72149,0,31.50805-12.34778l-11.78-12.77362a26.381,26.381,0,0,1-8.6576,5.67713,29.81585,29.81585,0,0,1-10.50268,1.70312q-8.65759,0-14.47669-4.11584a17.99058,17.99058,0,0,1-7.38025-11.21228h57.76477q.42573-5.53546.42579-5.961l.00012-.00025A40.43751,40.43751,0,0,0,583.03807,346.02936Zm-53.22314,13.9093a18.12626,18.12626,0,0,1,6.24487-11.63812,19.06769,19.06769,0,0,1,12.63159-4.25788l.00012.00025a18.48013,18.48013,0,0,1,12.48963,4.39966,18.0164,18.0164,0,0,1,6.24487,11.49609Z"/></svg>