<svg xmlns="http://www.w3.org/2000/svg" role="img" viewBox="-3.30 29.95 366.34 298.84"><path fill="#fff" d="M352.559 97.394s-7.052-20.546-17.351-31.57c-7.454-7.978-15.598-14.914-25.215-19.7l.102-.015a79.19 79.19 0 00-.864-.361 58.572 58.572 0 00-2.416-1.1c-26.835-11.414-52.956-9.763-77.997 5.458a67.836 67.836 0 00-8.099 5.898c-7.586 6.325-43.621 31.893-37.593 44.455 2.944 6.133 19.303 21.195 26.095 21.173 6.947-.024 34.957-25.891 43.06-29.938 16.576-8.274 36.15-8.38 47.575 5.957 11.813 14.823 9.924 36.18-4.445 48.187-19.632 16.408-38.664 33.587-59.08 49.008-7.857 5.934-15.64 8.45-22.987 8.38 15.835-5.282 14.623-35.902 4.967-52.736-12.69-22.126-31.545-35.89-56.582-40.67-25.195-4.812-47.925 1.155-67.812 17.31-17.112 13.898-34.963 26.982-50.99 42.121-10.123 9.562-19.697 19.836-26.183 31.17C5.18 220.64.051 237.56 7.441 261.66c0 0 9.044 22.21 18.272 31.57 8.496 8.616 16.39 16.463 27.472 21.177 26.835 11.413 52.956 9.762 77.997-5.459a67.837 67.837 0 008.099-5.898c7.586-6.325 43.621-31.893 37.593-44.455-2.944-6.133-19.303-21.195-26.095-21.173-6.947.024-34.957 25.891-43.06 29.938-16.576 8.274-36.149 8.38-47.575-5.957-11.813-14.823-9.924-36.18 4.445-48.187 19.632-16.408 38.664-33.587 59.08-49.008 9.907-7.482 19.695-9.533 28.641-7.812a44.744 44.744 0 00-7.34 53.63c12.689 22.126 30.54 34.816 55.577 39.598l1.547.254c23.675 3.527 45.114-2.62 63.99-17.954 17.11-13.898 34.962-26.982 50.988-42.121 10.124-9.562 19.699-19.836 26.184-31.17 11.565-20.219 16.693-37.138 9.303-61.238z"/></svg>