<svg xmlns="http://www.w3.org/2000/svg" role="img" viewBox="-27.98 -29.98 1974.96 948.96"><defs><style>.cls-2{fill:#00203e}</style></defs><path fill="#fff" d="M0 0h1920v890H0z"/><g id="Layer_1"><path d="M19.06 666.76h28.61c5 0 9.06 4.06 9.06 9.06v75.9h13.65l67.37-81.66c1.72-2.09 4.28-3.29 6.99-3.29h32.8c7.63 0 11.85 8.86 7.03 14.78l-72.93 89.6 75.7 93.25c4.81 5.92.59 14.77-7.03 14.77h-35.47c-2.76 0-5.37-1.26-7.09-3.42l-67.37-84.58H56.73v78.93c0 5-4.06 9.06-9.06 9.06H19.06c-5 0-9.06-4.06-9.06-9.06V675.83c0-5 4.06-9.06 9.06-9.06zm409.85 200.26l-69.94-194.27c-1.29-3.59-4.7-5.99-8.53-5.99h-63.13c-3.82 0-7.22 2.39-8.52 5.98l-70.22 194.27c-2.13 5.91 2.24 12.14 8.52 12.14H246c3.85 0 7.28-2.43 8.55-6.07l13.92-39.75h100.34l14.07 39.78c1.28 3.62 4.7 6.04 8.54 6.04h28.95c6.28 0 10.65-6.23 8.53-12.13zM282.19 794.2l30.93-88.3h10.62l31.24 88.3H282.2zm180.77-127.44h28.61c5 0 9.06 4.06 9.06 9.06v194.27c0 5-4.06 9.06-9.06 9.06h-28.61c-5 0-9.06-4.06-9.06-9.06V675.82c0-5 4.06-9.06 9.06-9.06zm138.16 159.52c4.51-1.68 9.43.5 11.47 4.86 1.24 2.65 2.81 5.2 4.7 7.65 3.74 4.86 8.85 8.8 15.32 11.83 6.47 3.03 14.46 4.55 23.97 4.55 14.16 0 24.62-3.29 31.4-9.86 6.78-6.57 10.17-14.31 10.17-23.21 0-7.28-2.08-13.3-6.22-18.05-4.15-4.75-9.81-8.8-16.99-12.14-7.18-3.34-15.43-6.32-24.73-8.95-8.09-2.43-16.03-5.01-23.82-7.74-7.79-2.73-14.82-6.17-21.09-10.32-6.27-4.14-11.23-9.51-14.87-16.08-3.64-6.57-5.46-14.82-5.46-24.73 0-12.33 2.93-22.95 8.8-31.86 5.86-8.9 14.11-15.72 24.73-20.48 10.62-4.75 22.91-7.13 36.87-7.13 11.73 0 22.25 1.67 31.56 5.01 9.3 3.34 17.14 8.09 23.52 14.26 3.87 3.75 7.13 7.97 9.77 12.66 2.75 4.87.43 11.06-4.83 12.97l-10.52 3.82c-3.98 1.44-8.55.02-10.73-3.61-1.26-2.1-2.86-4.14-4.78-6.11-3.85-3.94-8.7-7.13-14.56-9.56-5.87-2.43-12.44-3.64-19.72-3.64-7.49-.2-14.21.96-20.18 3.49-5.97 2.53-10.72 6.12-14.26 10.77-3.54 4.66-5.31 10.22-5.31 16.69 0 7.08 2.02 12.64 6.07 16.69 4.04 4.05 9.45 7.39 16.23 10.01 6.77 2.63 14.21 5.16 22.3 7.59 8.5 2.63 16.79 5.46 24.88 8.5 8.09 3.03 15.42 6.88 22 11.53 6.57 4.66 11.88 10.47 15.93 17.45 4.04 6.98 6.07 15.73 6.07 26.25 0 11.33-2.63 21.65-7.89 30.95-5.26 9.31-13.2 16.79-23.82 22.45-10.62 5.67-23.92 8.5-39.9 8.5-13.15 0-24.98-2.02-35.5-6.07-10.52-4.04-19.17-9.66-25.94-16.84-4.52-4.79-8.03-10.1-10.53-15.93-2.05-4.78.27-10.32 5.14-12.14l10.76-4.02zm219.61 55c-14.56 0-27.41-3.29-38.54-9.86-11.13-6.57-19.77-15.63-25.94-27.16-6.17-11.53-9.25-24.98-9.25-40.36s3.13-29.23 9.4-40.96c6.27-11.73 14.97-20.94 26.1-27.61 11.12-6.68 24.07-10.01 38.84-10.01 15.57 0 29.28 3.64 41.11 10.92 8.49 5.23 15.29 11.76 20.4 19.59 3.16 4.85.79 11.41-4.68 13.34l-8.91 3.14c-3.82 1.35-7.96-.19-10.26-3.53-3-4.36-7.01-8.03-12.03-11-7.18-4.25-15.32-6.37-24.43-6.37s-17.29 2.18-23.97 6.52c-6.67 4.35-11.83 10.42-15.48 18.21-3.64 7.79-5.46 16.94-5.46 27.46 0 15.78 4.05 28.32 12.14 37.62 8.09 9.31 19.01 13.96 32.77 13.96 9.1 0 17.24-2.02 24.43-6.07 5.12-2.89 9.35-6.55 12.67-10.98 2.43-3.24 6.6-4.62 10.41-3.26l8.41 3c5.71 2.04 7.79 8.97 4.26 13.9-5.32 7.46-12.24 13.7-20.73 18.73-12.14 7.18-25.9 10.77-41.26 10.77zm102.82-220.59h10.4c5 0 9.06 4.06 9.06 9.06v74.38c4.85-5.86 11.12-10.47 18.81-13.81 7.68-3.34 16.18-5.01 25.49-5.01 11.33 0 21.29 2.48 29.89 7.43 8.59 4.96 15.32 12.34 20.18 22.15 4.86 9.81 7.28 22 7.28 36.56v78.63c0 5-4.06 9.06-9.06 9.06h-11.92c-5 0-9.06-4.06-9.06-9.06v-74.99c0-14.16-2.93-24.98-8.8-32.47-5.87-7.48-14.47-11.23-25.79-11.23s-20.84 3.85-27.31 11.53c-6.48 7.69-9.71 18.92-9.71 33.68v73.47c0 5-4.06 9.06-9.06 9.06h-10.4c-5 0-9.06-4.06-9.06-9.06V669.73c0-5 4.06-9.06 9.06-9.06zm225.18 220.59c-14.56 0-27.46-3.38-38.69-10.16-11.23-6.78-20.02-16.13-26.4-28.07-6.37-11.93-9.56-25.59-9.56-40.96s3.13-27.92 9.4-39.44c6.27-11.53 14.92-20.63 25.94-27.31 11.02-6.68 23.52-10.01 37.47-10.01s26.7 3.09 37.62 9.25c10.92 6.17 19.42 14.77 25.49 25.79 6.07 11.03 9 23.72 8.8 38.08 0 2.43-.1 4.91-.3 7.44v.08c-.38 4.68-4.33 8.27-9.03 8.27h-104.14c.61 8.09 2.88 15.22 6.83 21.39 3.94 6.17 9 10.98 15.17 14.41 6.17 3.44 13.2 5.16 21.09 5.16 10.11 0 18.91-1.97 26.4-5.92 5.24-2.76 9.39-6.19 12.45-10.29 2.35-3.15 6.36-4.57 10.07-3.26l7.74 2.74c5.75 2.03 7.82 9 4.26 13.95-5.43 7.54-12.23 13.72-20.41 18.56-11.63 6.88-25.03 10.32-40.2 10.32zm38.83-91.64c0-7.28-1.82-13.85-5.46-19.72-3.64-5.86-8.55-10.47-14.71-13.81-6.17-3.34-13.1-5.01-20.79-5.01-6.88 0-13.2 1.67-18.96 5.01-5.76 3.34-10.62 7.89-14.56 13.65-3.94 5.77-6.42 12.39-7.43 19.87h81.92zm171.43-36.41l-3.34.91v-84.39c0-5 4.06-9.06 9.06-9.06h10.7c5 0 9.06 4.06 9.06 9.06v200.34c0 5-4.06 9.06-9.06 9.06h-8.78c-4.68 0-8.59-3.56-9.02-8.22l-1.36-14.54c-5.06 6.88-11.89 12.74-20.48 17.6-8.6 4.85-19.07 7.28-31.4 7.28-13.76 0-25.74-3.23-35.95-9.71-10.22-6.47-18.21-15.57-23.97-27.31-5.76-11.73-8.65-25.38-8.65-40.96s2.88-29.23 8.65-40.96c5.77-11.73 13.75-20.83 23.97-27.31 10.21-6.47 22.2-9.71 35.95-9.71s24.32 2.68 33.53 8.04c9.2 5.36 16.23 11.98 21.09 19.87zm-92.54 50.07c0 15.58 4.05 28.12 12.14 37.62 8.09 9.51 18.91 14.26 32.47 14.26 8.29 0 15.78-2.02 22.45-6.07 6.67-4.05 12.03-9.96 16.08-17.75 4.04-7.79 6.07-17.14 6.07-28.07s-2.02-20.22-6.07-27.91c-4.05-7.69-9.41-13.6-16.08-17.75-6.67-4.14-14.16-6.22-22.45-6.22-13.35 0-24.12 4.76-32.32 14.26-8.19 9.51-12.29 22.05-12.29 37.62zm276.15 75.85h-8.99c-4.59 0-8.46-3.43-9-7.99l-1.18-9.91c-4.85 6.48-10.98 11.43-18.36 14.87-7.39 3.44-15.63 5.16-24.73 5.16-11.73 0-21.95-2.48-30.65-7.43-8.7-4.95-15.43-12.24-20.18-21.85-4.75-9.61-7.13-21.59-7.13-35.96V736.5c0-5 4.06-9.06 9.06-9.06h10.7c5 0 9.06 4.06 9.06 9.06v75.9c0 13.96 2.88 24.58 8.65 31.86 5.76 7.28 14.51 10.92 26.25 10.92s20.58-3.74 27.16-11.23c6.57-7.48 9.86-18.61 9.86-33.38v-74.08c0-5 4.06-9.06 9.06-9.06h10.4c5 0 9.06 4.06 9.06 9.06v133.59c0 5-4.06 9.06-9.06 9.06zm58.48-218.46h10.4c5 0 9.06 4.06 9.06 9.06v200.34c0 5-4.06 9.06-9.06 9.06h-10.4c-5 0-9.06-4.06-9.06-9.06V669.75c0-5 4.06-9.06 9.06-9.06zm125.66 220.59c-14.56 0-27.46-3.38-38.69-10.16-11.23-6.78-20.02-16.13-26.4-28.07-6.37-11.93-9.56-25.59-9.56-40.96s3.13-27.92 9.4-39.44c6.27-11.53 14.92-20.63 25.94-27.31 11.02-6.68 23.52-10.01 37.47-10.01s26.7 3.09 37.62 9.25c10.92 6.17 19.42 14.77 25.49 25.79 6.07 11.03 9 23.72 8.8 38.08 0 2.43-.1 4.91-.3 7.44v.08c-.38 4.68-4.33 8.27-9.03 8.27h-104.14c.61 8.09 2.88 15.22 6.83 21.39 3.94 6.17 9 10.98 15.17 14.41 6.17 3.44 13.2 5.16 21.09 5.16 10.11 0 18.91-1.97 26.4-5.92 5.24-2.76 9.39-6.19 12.45-10.29 2.35-3.15 6.36-4.57 10.07-3.26l7.74 2.74c5.75 2.03 7.82 9 4.26 13.95-5.43 7.54-12.23 13.72-20.41 18.56-11.63 6.88-25.03 10.32-40.2 10.32zm38.83-91.64c0-7.28-1.82-13.85-5.46-19.72-3.64-5.86-8.55-10.47-14.71-13.81-6.17-3.34-13.1-5.01-20.79-5.01-6.88 0-13.2 1.67-18.96 5.01-5.76 3.34-10.62 7.89-14.56 13.65-3.94 5.77-6.42 12.39-7.43 19.87h81.92zm72.17-62.2h8.75c4.69 0 8.61 3.58 9.02 8.25l1.08 12.08c4.25-5.26 9.15-9.66 14.72-13.2 5.56-3.54 11.63-6.02 18.21-7.44 3.85-.83 7.78-1.14 11.8-.92 4.85.25 8.68 4.21 8.68 9.07v8.77c0 5.21-4.38 9.23-9.59 9.04-3.33-.12-6.61.12-9.83.75-6.27 1.21-11.89 3.79-16.84 7.74-4.96 3.94-8.95 9.15-11.98 15.63-3.03 6.48-4.55 14.26-4.55 23.37v69.52c0 5-4.06 9.06-9.06 9.06h-10.4c-5 0-9.06-4.06-9.06-9.06V736.51c0-5 4.06-9.06 9.06-9.06zM1081.23 175.5c-15.52-15.64-38.65-23.58-68.72-23.58-60.66 0-91.45 46.2-124.05 95.11-17.57 26.36-35.73 53.61-58.81 71.93-28.04 22.25-59.34 21.52-87.06 11.47 19.78 16.53 44.46 30.35 71.7 30.35 64.68 0 94.97-59.27 115.02-98.48l2.81-5.47c9.17-17.8 23.58-37.04 38.55-51.46 21.06-20.29 43.73-31.88 65.54-33.52 19.81-1.49 38.65 4.79 56.31 18.71-2.88-5.15-6.56-10.31-11.28-15.07z" class="cls-2"/><path d="M736.27 305.44c31.2 16.1 58.34 15.27 80.68-2.46 20.57-16.33 37.06-41.07 54.52-67.27 32.55-48.84 69.44-104.2 141.03-104.2 35.86 0 63.94 10.04 83.44 29.84 27.41 27.83 27.18 64.56 27.16 66.11v.11c-.15 9.9-12.91 13.77-18.54 5.63-.1-.14-.2-.28-.3-.41-1.84-2.45-12.57-17.52-32.24-18.93-17.96-1.29-30.03 6.82-37.69 16.71-10.26 13.25-11.42 34.42-3.06 53.08 9.69 21.66 34.22 44.8 73.97 44.8 29.44 0 56.19-25.42 73.44-46.75 13.62-16.85 23.63-33.9 28.52-42.83l-26.19-113.72c-2.52-10.47-9.57-19.29-19.29-23.96L975.39 12.23c-9.8-4.67-21.14-4.67-30.93 0l-186.3 89.02c-9.68 4.71-16.77 13.49-19.29 23.96l-36.12 157.13c7.7 6.68 19.53 15.87 33.53 23.1z" class="cls-2"/><path d="M877.68 408.9c47.39-20.61 67.96-51.7 85.78-95.18 21.27-51.89 42.37-103.94 89.4-117.05.74-.21 5.17-1.39 6.29-1.58-6.86-2.28-14.37-3.42-21.43-2.89-37.68 2.83-72.96 45.79-87.48 73.97l-2.78 5.42c-20.96 40.99-56.03 109.6-133.19 109.6-52.86 0-95.3-40.92-118.35-69.24l-3.03 13.2c-1.13 5.05-1.13 10.29 0 15.33.34 1.54.75 3.05 1.28 4.52.9 2.52 2.07 4.94 3.54 7.2.64.98 1.28 1.88 2.03 2.83l48.25 59.99c22.41 3.98 86.16 12.81 129.67-6.12z" class="cls-2"/><path d="M1227.06 325.08l-13.21-57.35c-20.38 31.85-59.8 81.13-108.61 81.13-40.79 0-77.13-22.32-92.6-56.87-3.21-7.18-5.26-14.47-6.26-21.66-9.01 15.99-16.9 33.75-24.03 51.14-19.22 46.87-42.99 82.86-96.52 106.15-23.65 10.29-51.71 13.43-77.16 13.43-15.4 0-29.84-1.15-41.78-2.57l61.84 76.89c.56.72 1.17 1.32 1.81 2 2.03 2.15 4.29 4.03 6.82 5.65 3.16 2 6.59 3.47 10.21 4.45 2.94.79 5.99 1.24 9.08 1.24h206.8c1.24-.04 2.49-.11 3.73-.26 1.77-.19 3.54-.53 5.27-1.02 1.24-.34 2.45-.72 3.65-1.17.94-.34 1.85-.72 2.75-1.13 1.36-.64 2.64-1.36 3.92-2.19 3.24-2.03 6.14-4.6 8.55-7.57l3.92-4.9 124.97-155.48c2.41-3.01 4.3-6.37 5.58-9.98.53-1.47.98-3.01 1.32-4.56 1.13-5.05 1.13-10.29 0-15.33l-.04-.04z" class="cls-2"/></g></svg>