<?xml version="1.0" encoding="UTF-8"?><svg id="Layer_1" xmlns="http://www.w3.org/2000/svg" viewBox="0 0 835.08728 340.97177"><defs><style>.cls-1{fill:none;}</style></defs><path class="cls-1" d="M58.92374,96.72758c1.23315-5.35626,4.85828-9.86414,9.8493-12.24768l95.19342-45.48444c2.18372-1.04321,4.55542-1.64337,6.97607-1.76532,3.04486-.15399,6.0799.45306,8.8266,1.76532l95.20563,45.46008c4.99103,2.38354,8.61615,6.89142,9.8493,12.24768l23.52136,102.16956c.28766,1.24976.43219,2.51373.4494,3.77216.01508-1.4024-.1308-2.8147-.45178-4.20929l-23.52136-102.16956c-1.23322-5.35626-4.85834-9.86414-9.84937-12.24768l-95.20563-45.46008c-2.74677-1.31226-5.7818-1.91925-8.8266-1.76532l.00006.00012c-2.42065.12195-4.79236.72211-6.97607,1.76532l-95.19342,45.48444c-4.99103,2.38354-8.61615,6.89142-9.8493,12.24768l-23.48486,102.16949c-.30023,1.30341-.43726,2.6239-.44318,3.93958.03394-1.17065.17859-2.34369.44556-3.50256l23.48486-102.16949Z"/><path class="cls-1" d="M260.55728,148.11168c-6.46722,0-12.33197,2.62891-16.58234,6.87384l-46.65515-37.16174c2.09204-3.45648,3.29803-7.50647,3.29803-11.83319,0-12.63916-10.28271-22.92188-22.92188-22.92188s-22.92139,10.28271-22.92139,22.92188c0,2.28802.34125,4.49707.96814,6.58362l-40.58356,17.64844c-4.06464-7.01508-11.64978-11.74768-20.32404-11.74768-12.94531,0-23.47754,10.53223-23.47754,23.47754s10.53223,23.47754,23.47754,23.47754c4.87909,0,9.41449-1.49738,13.17328-4.05493l12.36145,14.21094-13.3952,17.34564c-3.54449-2.14996-7.69995-3.38934-12.13953-3.38934-12.94531,0-23.47754,10.53223-23.47754,23.47754s10.53223,23.47705,23.47754,23.47705c9.64899,0,17.95428-5.85284,21.55981-14.19336l38.66571,11.27759c-.18658,1.17529-.28607,2.37921-.28607,3.6062,0,12.63916,10.28271,22.92188,22.92139,22.92188s22.92188-10.28271,22.92188-22.92188c0-4.41681-1.25897-8.54358-3.43213-12.04663l46.69354-37.04718c4.25793,4.30231,10.16132,6.97321,16.67804,6.97321,12.94531,0,23.47754-10.53223,23.47754-23.47754s-10.53223-23.47754-23.47754-23.47754ZM177.69595,87.48179c10.20605,0,18.50879,8.30273,18.50879,18.50879s-8.30273,18.50879-18.50879,18.50879-18.5083-8.30273-18.5083-18.50879,8.30273-18.50879,18.5083-18.50879ZM157.96249,117.63243c1.00085,1.69006,2.20972,3.24255,3.5957,4.61829l-24.61493,31.87421-19.21832-6.97205c.38019-1.67407.58771-3.41296.58771-5.20038,0-2.31219-.34143-4.54517-.96716-6.6571l40.617-17.66296ZM156.06821,179.16881l-17.56885,8.84277-10.9895-12.63379,11.34009-14.68445,16.46277,5.97235c-.34888,1.58704-.53815,3.23322-.53815,4.92352,0,2.65588.45911,5.20538,1.29364,7.57959ZM94.83511,159.90562c-9.89941,0-17.95312-8.05371-17.95312-17.95312s8.05371-17.95312,17.95312-17.95312,17.95312,8.05371,17.95312,17.95312-8.05371,17.95312-17.95312,17.95312ZM112.18149,157.75596c1.46838-1.61041,2.71252-3.42719,3.69141-5.39819l17.52527,6.35779-9.58533,12.41211-11.63135-13.3717ZM94.83511,230.97252c-9.89941,0-17.95312-8.05322-17.95312-17.95264s8.05371-17.95312,17.95312-17.95312,17.95312,8.05371,17.95312,17.95312-8.05371,17.95264-17.95312,17.95264ZM114.43832,200.12199c-.90448-1.37006-1.94666-2.64093-3.10992-3.79071l12.7384-16.49506,9.3407,10.73816-18.96918,9.54761ZM117.96683,217.00816c.22308-1.29724.34583-2.62836.34583-3.98828,0-2.79413-.49286-5.47485-1.39258-7.96252l20.22894-10.18164,23.49658,27.01221c-1.68481,1.87579-3.0675,4.0282-4.06543,6.38251l-38.61334-11.26227ZM177.69595,255.69615c-10.20557,0-18.5083-8.30273-18.5083-18.50879s8.30273-18.50879,18.5083-18.50879,18.50879,8.30273,18.50879,18.50879-8.30273,18.50879-18.50879,18.50879ZM193.73184,220.82963c-4.13708-4.05646-9.79803-6.56415-16.03589-6.56415-4.77832,0-9.21851,1.47168-12.89496,3.98297l-22.56012-25.93555,16.27679-8.19244c4.09814,6.25079,11.16205,10.39062,19.17828,10.39062,11.7038,0,21.38037-8.81909,22.74951-20.15967h36.80225c.401,3.40405,1.52728,6.58929,3.22888,9.39044l-46.74475,37.08777ZM159.18765,171.58922c0-10.20605,8.30273-18.50879,18.5083-18.50879s18.50879,8.30273,18.50879,18.50879-8.30273,18.50879-18.50879,18.50879-18.5083-8.30273-18.5083-18.50879ZM237.24771,168.82701h-36.80225c-1.36914-11.34058-11.04572-20.15967-22.74951-20.15967-9.00134,0-16.80377,5.21802-20.55145,12.78613l-14.74939-5.35077,23.52106-30.45776c3.44489,2.07263,7.47504,3.26752,11.77979,3.26752,6.32849,0,12.0658-2.57837,16.21777-6.73926l46.63672,37.14709c-1.74158,2.82953-2.89606,6.05493-3.30273,9.50671ZM260.55728,189.54234c-9.89941,0-17.95312-8.05371-17.95312-17.95312s8.05371-17.95312,17.95312-17.95312,17.95312,8.05371,17.95312,17.95312-8.05371,17.95312-17.95312,17.95312Z"/><path d="M137.14902,194.87572l-20.22894,10.18164c.89972,2.48767,1.39258,5.1684,1.39258,7.96252,0,1.35992-.12274,2.69104-.34583,3.98828l38.61334,11.26227c.99792-2.35431,2.38062-4.50671,4.06543-6.38251l-23.49658-27.01221Z"/><path d="M200.44547,174.35142c-1.36914,11.34058-11.04572,20.15967-22.74951,20.15967-8.01624,0-15.08014-4.13983-19.17828-10.39062l-16.27679,8.19244,22.56012,25.93555c3.67645-2.51129,8.11664-3.98297,12.89496-3.98297,6.23785,0,11.8988,2.50769,16.03589,6.56415l46.74475-37.08777c-1.7016-2.80115-2.82788-5.98639-3.22888-9.39044h-36.80225Z"/><path d="M124.0668,179.83623l-12.7384,16.49506c1.16327,1.14978,2.20544,2.42065,3.10992,3.79071l18.96918-9.54761-9.3407-10.73816Z"/><path d="M177.69595,128.91246c-4.30475,0-8.3349-1.19489-11.77979-3.26752l-23.52106,30.45776,14.74939,5.35077c3.74768-7.56812,11.55011-12.78613,20.55145-12.78613,11.7038,0,21.38037,8.81909,22.74951,20.15967h36.80225c.40668-3.45178,1.56116-6.67719,3.30273-9.50671l-46.63672-37.14709c-4.15198,4.16089-9.88928,6.73926-16.21777,6.73926Z"/><path d="M133.39816,158.71556l-17.52527-6.35779c-.97888,1.97101-2.22302,3.78778-3.69141,5.39819l11.63135,13.3717,9.58533-12.41211Z"/><path d="M138.84995,160.69334l-11.34009,14.68445,10.9895,12.63379,17.56885-8.84277c-.83453-2.37421-1.29364-4.92371-1.29364-7.57959,0-1.69031.18927-3.33649.53815-4.92352l-16.46277-5.97235Z"/><path d="M117.72495,147.15288l19.21832,6.97205,24.61493-31.87421c-1.38599-1.37573-2.59485-2.92822-3.5957-4.61829l-40.617,17.66296c.62573,2.11194.96716,4.34491.96716,6.6571,0,1.78741-.20752,3.52631-.58771,5.20038Z"/><path d="M31.5527,216.1862l69.55365,86.48859c3.64716,4.53265,9.17651,7.17188,15.0235,7.1709l111.54401-.02441c5.84491.00403,11.3739-2.63055,15.0235-7.15869l69.5293-86.50073c3.64551-4.53314,5.01215-10.4657,3.71326-16.11926l-24.82397-107.86713c-1.30511-5.64978-5.13141-10.4035-10.39709-12.9173l-100.50165-48.00458c-2.90204-1.38629-6.10889-2.02686-9.32574-1.86273-2.55249.13373-5.05243.77112-7.35352,1.87488l-100.50159,48.00458c-5.26862,2.51636-9.0954,7.27515-10.39709,12.9295l-24.7876,107.85504c-1.1601,5.02289-.22021,10.29755,2.60541,14.62177.34021.52057.70587,1.02435,1.09564,1.50958ZM260.55728,195.06676c-6.51672,0-12.4201-2.6709-16.67804-6.97321l-46.69354,37.04718c2.17316,3.50305,3.43213,7.62982,3.43213,12.04663,0,12.63916-10.28271,22.92188-22.92188,22.92188s-22.92139-10.28271-22.92139-22.92188c0-1.22699.09949-2.43091.28607-3.6062l-38.66571-11.27759c-3.60553,8.34052-11.91083,14.19336-21.55981,14.19336-12.94531,0-23.47754-10.53174-23.47754-23.47705s10.53223-23.47754,23.47754-23.47754c4.43958,0,8.59503,1.23938,12.13953,3.38934l13.3952-17.34564-12.36145-14.21094c-3.75879,2.55756-8.29419,4.05493-13.17328,4.05493-12.94531,0-23.47754-10.53223-23.47754-23.47754s10.53223-23.47754,23.47754-23.47754c8.67426,0,16.2594,4.7326,20.32404,11.74768l40.58356-17.64844c-.62689-2.08655-.96814-4.29559-.96814-6.58362,0-12.63916,10.28271-22.92188,22.92139-22.92188s22.92188,10.28271,22.92188,22.92188c0,4.32672-1.20599,8.37671-3.29803,11.83319l46.65515,37.16174c4.25037-4.24493,10.11511-6.87384,16.58234-6.87384,12.94531,0,23.47754,10.53223,23.47754,23.47754s-10.53223,23.47754-23.47754,23.47754Z"/><path d="M94.83511,123.99937c-9.89941,0-17.95312,8.05371-17.95312,17.95312s8.05371,17.95312,17.95312,17.95312,17.95312-8.05371,17.95312-17.95312-8.05371-17.95312-17.95312-17.95312Z"/><path d="M177.69595,124.49937c10.20605,0,18.50879-8.30273,18.50879-18.50879s-8.30273-18.50879-18.50879-18.50879-18.5083,8.30273-18.5083,18.50879,8.30273,18.50879,18.5083,18.50879Z"/><path d="M177.69595,190.09801c10.20605,0,18.50879-8.30273,18.50879-18.50879s-8.30273-18.50879-18.50879-18.50879-18.5083,8.30273-18.5083,18.50879,8.30273,18.50879,18.5083,18.50879Z"/><path d="M177.69595,218.67857c-10.20557,0-18.5083,8.30273-18.5083,18.50879s8.30273,18.50879,18.5083,18.50879,18.50879-8.30273,18.50879-18.50879-8.30273-18.50879-18.50879-18.50879Z"/><path d="M260.55728,153.63609c-9.89941,0-17.95312,8.05371-17.95312,17.95312s8.05371,17.95312,17.95312,17.95312,17.95312-8.05371,17.95312-17.95312-8.05371-17.95312-17.95312-17.95312Z"/><path d="M94.83511,195.06676c-9.89941,0-17.95312,8.05371-17.95312,17.95312s8.05371,17.95264,17.95312,17.95264,17.95312-8.05322,17.95312-17.95264-8.05371-17.95312-17.95312-17.95312Z"/><path d="M361.44997,171.69334v-71.95881h9.22384v37.61849l32.91015-37.61849h10.28442l-27.9447,31.65673,30.53188,40.286h-10.81471l-25.5825-33.42438-9.38453,10.68617v22.75429h-9.22384ZM425.75975,155.96137v-35.69014h8.72569v35.97943c-.08063,2.76938,1.37116,5.35786,3.77631,6.73309,5.46908,3.15758,12.20727,3.15758,17.67635,0,2.38756-1.38871,3.8242-3.97219,3.74417-6.73309v-35.97943h8.72569v35.65802c.15364,5.0747-2.34165,9.86443-6.58846,12.64662-8.88881,6.11817-20.6307,6.11817-29.51951,0-4.2209-2.78542-6.69626-7.55975-6.54024-12.6145ZM483.35251,171.69334v-77.13316h8.72569v27.01267c4.80817-1.73371,9.86663-2.67265,14.97669-2.78,3.45669-.07437,6.87848.7038,9.96303,2.26579,2.73314,1.37106,5.05165,3.44552,6.71701,6.00997,1.60457,2.51048,2.81321,5.25294,3.58348,8.13112.78663,2.92374,1.1811,5.93906,1.17307,8.96673.00001,9.03102-2.34613,15.8819-7.0384,20.55276-4.69226,4.67081-12.09491,6.99555-22.20793,6.97412h-15.89264ZM492.0782,163.86754h7.31159c7.25265,0,12.45915-1.58017,15.61947-4.7405s4.76726-8.25435,4.82082-15.282c.07394-4.24865-1.03908-8.43364-3.21388-12.0842-1.99432-3.39111-5.71331-5.38696-9.64165-5.17435-5.06721-.13064-10.11264.70934-14.8642,2.47468l-.03215,34.80637ZM539.43475,145.88587c.00001-8.25968,2.19079-14.84814,6.57238-19.76538,4.3927-4.92771,10.75862-7.63321,17.35497-7.37585,14.30179,0,21.45802,10.1023,21.46873,30.30691h-36.67039c.30775,4.18576,1.93992,8.16486,4.66013,11.36108,2.77464,3.33172,7.00625,4.99222,12.69482,4.98153,5.81749.17341,11.60285-.92332,16.95323-3.21388v8.0347c-5.05487,1.95664-10.42418,2.97496-15.84444,3.00497-4.22973.09484-8.436-.65356-12.37344-2.2015-3.28292-1.28406-6.19756-3.35968-8.48465-6.04211-2.14475-2.54718-3.78124-5.48193-4.82082-8.64535-1.05241-3.37998-1.56225-6.90546-1.51053-10.44512ZM548.46576,142.47916h27.7358c-.2733-4.07613-1.58431-8.01467-3.80844-11.44141-2.03327-2.95294-5.45008-4.6431-9.03101-4.46729-3.80112-.05071-7.43895,1.54267-9.9791,4.37088-2.85995,3.19961-4.57799,7.25735-4.8851,11.53782h-.03215Z"/><path d="M565.86954,175.80006c-4.29103,0-8.52481-.80244-12.55969-2.38919-3.66086-1.43148-6.9477-3.77193-9.50067-6.76636-2.37672-2.82328-4.15842-6.01832-5.30655-9.51143-1.14529-3.67673-1.69272-7.45319-1.63889-11.26479.0034-8.8637,2.43396-16.08228,7.22425-21.45796,4.92119-5.52246,11.97656-8.52821,19.37422-8.23523,19.75447-.0017,23.93159,17.87701,23.93952,32.87576l.00113,2.5728h-36.25157c.6245,2.61474,1.85423,5.0402,3.62742,7.12337,2.29059,2.74961,5.77974,4.07681,10.68336,4.07681h.04874c5.48109.14734,10.97294-.87838,15.9457-3.00689l3.58322-1.53461v13.69365l-1.64285.63583c-5.36378,2.07751-11.00184,3.14743-16.75778,3.17917-.25671.0068-.51343.00907-.76957.00907ZM562.57193,121.30029c-5.65336,0-10.92251,2.35462-14.64514,6.53118-3.92891,4.4089-5.92084,10.48332-5.92084,18.05495v.0374c-.04817,3.27324.42106,6.51814,1.39407,9.64291.92938,2.82555,2.39146,5.44822,4.33296,7.75354,1.9942,2.33932,4.57551,4.17769,7.45432,5.30315,3.64159,1.43261,7.46283,2.10584,11.37983,2.02651,4.58174-.02607,9.04788-.77751,13.3304-2.23505v-2.52747c-4.65314,1.50855-9.58907,2.22372-14.45869,2.07638-.0204.00113-.0408.00113-.0612.00113-6.3521,0-11.26819-1.98797-14.53236-5.90611-3.07773-3.61666-4.89909-8.05616-5.24931-12.81867l-.20288-2.75868h36.82223c-.86818-25.16586-14.33232-25.16586-18.85342-25.16586-.26408-.0102-.52759-.0153-.78997-.0153ZM447.07466,175.70485c-5.6851.00113-11.37586-1.66835-16.23245-5.01073-4.95009-3.26644-7.82438-8.7974-7.6538-14.77151v-38.22254h13.8682v38.55009c-.05384,1.89957.89708,3.59626,2.481,4.5007,4.66901,2.69634,10.45668,2.69634,15.11549.00567,1.56692-.91125,2.51217-2.61134,2.45946-4.43157l-.00113-38.6249h13.86763v38.22934c.17794,5.84831-2.79098,11.54814-7.75071,14.79644-4.81919,3.31744-10.48388,4.97899-16.15368,4.97899ZM428.33061,122.84227l-.00113,33.19821c-.12921,4.19355,1.88427,8.07769,5.38645,10.38981,7.99892,5.50489,18.68908,5.50262,26.64607.0272,3.52202-2.30759,5.60179-6.30053,5.47599-10.44988l-.00113-33.16534h-3.58322v33.40789c.10597,3.63252-1.81796,7.09277-5.02263,8.95607-6.2535,3.60986-14.01157,3.60986-20.25486.00453-3.2262-1.84403-5.16884-5.30881-5.0606-9.03541l-.00113-33.33308h-3.58379ZM499.38131,174.26544c-.0476,0-.09407,0-.14167-.00113h-18.45844v-82.27526h13.8682v26.06294c4.01958-1.12716,8.1593-1.74146,12.35115-1.82986,3.8813-.07707,7.73144.79678,11.17922,2.54333,3.12873,1.56918,5.79844,3.95781,7.71161,6.90293,1.75903,2.75244,3.07149,5.73043,3.91077,8.86653.84438,3.1395,1.26883,6.38327,1.26033,9.63781,0,9.69164-2.62267,17.21964-7.79548,22.36864-5.149,5.1252-13.18533,7.72407-23.88569,7.72407ZM485.9234,169.12324h13.45394c9.29666,0,16.11118-2.09451,20.26166-6.22686,4.16805-4.14822,6.28126-10.44988,6.28126-18.73045.00737-2.80571-.35759-5.59556-1.08466-8.29814-.70384-2.62947-1.80266-5.12294-3.267-7.41466-1.40541-2.16365-3.38091-3.93117-5.70323-5.0963-2.70654-1.37027-5.7123-2.04861-8.75546-1.99364-4.84185.10201-9.6055.98605-14.15948,2.62834l-3.44325,1.24163v-28.10191h-3.58379v71.99198ZM373.24488,174.26431h-14.36575v-77.10075h14.36575v33.34555l29.1724-33.34555h17.1505l-30.32393,34.352,32.38613,42.73175h-17.25931l-24.44898-31.94241-6.67682,7.6028v24.35661ZM364.02133,169.12324h4.08135v-21.15364l12.09217-13.76846,26.71577,34.9051h4.37036l-28.67767-37.83889,25.56594-28.96159h-3.41831l-36.64826,41.89077v-41.89077h-4.08135v66.81748ZM499.38981,166.43936h-9.88489l.03627-39.16609,1.67402-.62223c5.05097-1.87577,10.34504-2.75811,15.72696-2.63741,4.87076-.21194,9.41623,2.23788,11.89042,6.44391,2.41413,4.05245,3.65066,8.70162,3.56792,13.43297-.0578,7.66854-1.933,13.41484-5.57346,17.05416-3.64386,3.64499-9.51087,5.49469-17.43725,5.49469ZM494.65166,161.29603h4.73815c6.51248,0,11.15599-1.3408,13.80076-3.98728,2.65214-2.65101,4.02071-7.18798,4.06831-13.48284.0663-3.79857-.91975-7.50703-2.85162-10.7491-1.52101-2.58584-4.30916-4.08248-7.29395-3.92324l-.10257.00567-.10257-.00227c-4.16749-.10881-8.27433.47603-12.22818,1.73692l-.02833,30.40213ZM578.95059,145.05111h-30.48487v-2.57394l-2.532-.18191c.34568-4.82259,2.31042-9.46326,5.53209-13.06745,3.02219-3.36504,7.35232-5.24931,11.85132-5.22891,4.47804-.19268,8.65289,1.89107,11.19395,5.58083,2.49573,3.84447,3.95441,8.2256,4.25589,12.728l.18361,2.74338ZM551.49471,139.90834h21.77701c-.52873-2.65157-1.55785-5.19434-3.03523-7.47076-1.50005-2.17725-4.01674-3.44155-6.74879-3.29874l-.0799.00397-.08047-.00113c-3.08566-.04817-5.98658,1.24107-8.03122,3.51748-1.8429,2.06164-3.14913,4.56984-3.8014,7.24918Z"/><path d="M595.61341,128.12917v-7.85794h8.0347v-12.19668c-.16048-3.61459,1.18336-7.13418,3.71203-9.722,2.41907-2.41948,5.72304-3.74339,9.1435-3.66382h12.63056v7.90615h-8.0347c-3.55135,0-5.89747.72312-7.02232,2.15329s-1.70335,4.0977-1.70335,8.0347v7.48835h13.59473v7.82579h-13.59473v43.59631h-8.74176v-43.54811l-8.01864-.01606ZM640.51132,171.69334v-77.13316h8.72568v77.13316h-8.72568ZM671.28423,165.3459c-11.50183-10.90634-11.98455-29.07174-1.07822-40.57357,10.90634-11.5018,29.07174-11.98455,40.57354-1.07822,11.50183,10.90634,11.98458,29.07176,1.07824,40.57354-5.40371,5.69878-12.90663,8.9342-20.75998,8.95224-7.41295.24952-14.59399-2.60427-19.81358-7.874ZM677.45487,132.16258c-6.8537,7.93851-6.8537,19.70091,0,27.6394,7.56157,7.50032,19.75643,7.50032,27.31799,0,6.90225-7.92039,6.90225-19.71901,0-27.63938-7.56157-7.50032-19.75643-7.50032-27.31799,0v-.00002ZM725.98448,120.27123h9.23991l11.73067,40.68775,11.93956-40.68775h8.6132l11.79494,40.71988,11.8432-40.71988h9.22382l-16.1337,51.42211h-9.83447l-10.97541-39.49861-10.84683,39.49861h-10.39691l-16.19799-51.42211Z"/><path d="M690.1455,175.80799c-7.67874,0-15.18406-3.11116-20.66005-8.62512-6.04268-5.74404-9.49217-13.49644-9.71374-21.83255-.22158-8.34971,2.82158-16.28572,8.56902-22.34711,11.86379-12.51266,31.69477-13.03969,44.20799-1.17476,12.51209,11.86436,13.03912,31.6959,1.17476,44.20856-5.85964,6.17926-14.10451,9.73471-22.62026,9.75511-.31905.0102-.63923.01587-.95772.01587ZM691.03861,118.40334c-6.92503,0-13.83703,2.72864-18.96676,8.13833-4.80219,5.064-7.34495,11.69548-7.15964,18.67265.18531,6.97603,3.07659,13.46357,8.14116,18.26576l.0578.05667c4.70018,4.74438,11.24212,7.34439,17.89967,7.11431,7.19591-.01813,14.08467-2.98876,18.9815-8.1525,9.91322-10.45442,9.47233-27.02519-.98208-36.93897-5.04473-4.78348-11.51357-7.15624-17.97164-7.15624ZM786.12404,174.26431h-13.67665l-9.00651-32.41334-8.9011,32.41334h-14.24335l-17.8175-56.56424h14.68027l9.81745,34.05392,9.99313-34.05392h12.47016l9.86789,34.06752,9.90869-34.06752h14.65477l-17.74723,56.56424ZM779.61553,169.12211h2.73204l14.52046-46.27983h-3.79233l-13.46017,46.27983ZM776.35533,169.12211h2.62607l-13.4052-46.27983h-2.08034l12.85948,46.27983ZM747.23903,169.12211h3.38034l12.70873-46.27983h-2.5082l-13.58088,46.27983ZM744.06836,169.12211h2.5643l-13.34287-46.27983h-3.7997l14.57827,46.27983ZM651.80792,174.26431h-13.86763v-82.27526h13.86763v82.27526ZM643.08249,169.12211h3.58322v-71.99085h-3.58322v71.99085ZM614.94488,174.26431h-13.88406v-43.55289l-8.01875-.01643v-12.99492h8.03519v-9.62534c-.18928-4.19355,1.42978-8.43358,4.44403-11.51924,2.92359-2.92359,6.95903-4.53527,11.04265-4.43723l15.14156-.00057v13.04819h-10.60572c-3.78553,0-4.78518.89708-5.00166,1.17193-.34682.44089-1.15323,1.9517-1.15323,6.44504v4.91723h13.59505v12.96828h-13.59505v43.59596ZM606.20302,169.12211h3.59966v-43.59596h13.59505v-2.68387h-13.59505v-10.05943c0-4.54774.73727-7.69574,2.25375-9.62421,1.65872-2.10924,4.61688-3.13496,9.04334-3.13496h5.46352v-2.76378h-10.05943c-2.79495-.07424-5.41308.99739-7.32568,2.91055-2.00327,2.05031-3.0902,4.89739-2.96156,7.78981l.00283,14.88202h-8.03519v2.72071l8.01875.01643v43.54269ZM691.11398,167.97285c-5.60349,0-11.20416-2.11491-15.46968-6.34473l-.13544-.14621c-7.62887-8.83593-7.62887-22.16293,0-30.99943l.13544-.14507c8.52991-8.46078,22.40944-8.46078,30.93936,0l.12751.13601c7.7048,8.8416,7.7048,22.17597,0,31.01756l-.12751.13714c-4.26496,4.22869-9.86845,6.34473-15.46968,6.34473ZM679.33633,158.04659c6.51531,6.3878,17.0434,6.3878,23.55984-.00453,5.94408-6.89216,5.94408-17.22757,0-24.11917-6.51531-6.3912-17.0434-6.39234-23.55984-.00453-5.88798,6.89556-5.88798,17.23267,0,24.12823Z"/><path d="M676.57871,213.45881h-5.65082v6.7973h5.65082c2.50665,0,4.24878-1.35901,4.24878-3.39807,0-2.04022-1.74213-3.39923-4.24878-3.39923Z"/><polygon points="550.37741 226.07759 557.43039 226.07759 553.90421 217.11195 550.37741 226.07759"/><path d="M520.20768,213.45881h-5.65082v6.7973h5.65082c2.50665,0,4.24878-1.35901,4.24878-3.39807,0-2.04022-1.74213-3.39923-4.24878-3.39923Z"/><path d="M358.87912,191.93129v58.98688h444.99213v-58.98688h-444.99213ZM499.25803,213.3307h-8.88007v22.68842h-7.26544v-22.68842h-8.83704v-6.50037h24.98254v6.50037ZM523.86136,236.01912l-6.41534-9.13452h-2.88916v9.13452h-7.26489v-29.18878h13.55328c6.45789,0,11.08862,4.12128,11.08862,10.02771,0,4.46014-2.63416,7.90247-6.75543,9.3465l6.92542,9.81458h-8.24249ZM561.38163,236.01912l-1.78406-4.4613h-11.38672l-1.78461,4.4613h-8.15753l11.55676-29.18878h8.15747l11.55615,29.18878h-8.15747ZM584.45706,236.01912h-7.26489v-29.18878h7.26489v29.18878ZM621.67752,236.01912h-7.22241l-12.74628-17.25006v17.25006h-7.26544v-29.18878h7.26544l12.74628,17.25006v-17.25006h7.22241v29.18878ZM654.69449,213.3307h-15.72046v4.54633h14.27588v6.50037h-14.27588v5.14136h15.72046v6.50037h-22.98535v-29.18878h22.98535v6.50037ZM680.23239,236.01912l-6.41534-9.13452h-2.88916v9.13452h-7.2655v-29.18878h13.55389c6.45789,0,11.08862,4.12128,11.08862,10.02771,0,4.46014-2.63416,7.90247-6.75543,9.3465l6.92542,9.81458h-8.24249Z"/></svg>