<?xml version="1.0"?>
<svg xmlns="http://www.w3.org/2000/svg" width="256" height="256" viewBox="0 0 256 256"><defs><linearGradient id="g_t" gradientUnits="userSpaceOnUse" x1="128" y1="0" x2="128" y2="86"><stop offset="0" stop-color="#5A5A5A"></stop><stop offset="1" stop-color="#343434"></stop></linearGradient><linearGradient id="g_r" gradientUnits="userSpaceOnUse" x1="212" y1="66" x2="150" y2="236"><stop offset="0" stop-color="#4A4A4A"></stop><stop offset="1" stop-color="#2A2A2A"></stop></linearGradient><linearGradient id="g_l" gradientUnits="userSpaceOnUse" x1="44" y1="66" x2="106" y2="236"><stop offset="0" stop-color="#606060"></stop><stop offset="1" stop-color="#3C3C3C"></stop></linearGradient></defs><path fill="url(#g_t)" d="M 60.45 79.77 L 23.97 58.7 A 125 125 0 0 1 232.03 58.7 L 195.55 79.77 A 83 83 0 0 0 60.45 79.77 Z"></path><path fill="url(#g_r)" d="M 203.55 93.62 L 240.03 72.56 A 125 125 0 0 1 136 252.74 L 136 210.61 A 83 83 0 0 0 203.55 93.62 Z"></path><path fill="url(#g_l)" d="M 120 210.61 L 120 252.74 A 125 125 0 0 1 15.97 72.56 L 52.45 93.62 A 83 83 0 0 0 120 210.61 Z"></path><circle cx="128" cy="128" r="70" fill="#6E6E6E"></circle><circle cx="103" cy="128" r="10" fill="#262626"></circle><circle cx="153" cy="128" r="10" fill="#262626"></circle></svg>