<?xml version="1.0" encoding="utf-8"?>
<!-- Generator: Adobe Illustrator 28.1.0, SVG Export Plug-In . SVG Version: 6.00 Build 0)  -->
<svg version="1.1" id="Layer_1" xmlns="http://www.w3.org/2000/svg" xmlns:xlink="http://www.w3.org/1999/xlink" x="0px" y="0px"
	 width="800px" height="800px" viewBox="0 0 800 800" style="enable-background:new 0 0 800 800;" xml:space="preserve">
<style type="text/css">
	.st0{fill:#FFFFFF;}
</style>
<g>
	<g>
		<g>
			<polygon class="st0" points="484.3,615.3 536.6,615.3 536.6,628.3 497.4,628.3 497.4,680.6 484.3,680.6 			"/>
		</g>
		<path class="st0" d="M275.3,615.3v-21.8h-78.4v108.9h78.4v-21.8h0V615.3z M262.2,680.6h-13.1v-52.3H223v52.3H210v-65.3h52.3V680.6
			z"/>
		<path class="st0" d="M284,680.6h52.3h13.1v-65.3H284V680.6z M297.1,628.3h39.2v39.2h-39.2V628.3z"/>
		<path class="st0" d="M597.6,615.3v52.3h-39.2v-52.3h-13.1v65.3h52.3v8.7H284v13.1h326.6v-87.1H597.6z"/>
		<g>
			<g>
				<polygon class="st0" points="340.4,730.7 380,730.7 380,740.6 350.3,740.6 350.3,780.2 340.4,780.2 				"/>
			</g>
			<path class="st0" d="M386.6,780.2h39.6h9.9v-49.5h-49.5V780.2z M396.5,740.6h29.7v29.7h-29.7V740.6z"/>
			<path class="st0" d="M284.5,730.7v49.5v9.9v9.9h9.9v-9.9v-9.9h29.7h9.9v-49.5H284.5z M324.1,770.3h-29.7v-29.7h29.7V770.3z"/>
			<g>
				<polygon class="st0" points="562.1,770.3 535,770.3 535,740.7 562.1,740.7 564.6,740.7 574.5,740.7 574.5,730.8 525.2,730.8 
					525.2,780.1 564.6,780.1 574.5,780.1 574.5,770.3 564.6,770.3 				"/>
			</g>
			<path class="st0" d="M518.6,760.5v-29.7h-49.5v39.6v9.9h49.5v-9.9H479v-9.9H518.6z M479,740.7h29.7v9.9H479V740.7z"/>
			<g>
				<polygon class="st0" points="600.9,770.2 600.9,740.5 610.6,740.5 610.6,730.6 600.9,730.6 600.9,714.1 591,714.1 591,730.6 
					581.1,730.6 581.1,740.5 591,740.5 591,780.1 600.9,780.1 600.9,780.1 610.6,780.1 610.6,770.2 				"/>
			</g>
			<rect x="452.6" y="714.2" class="st0" width="9.9" height="9.9"/>
			<g>
				<polygon class="st0" points="452.6,740.6 452.6,740.6 452.6,770.3 442.7,770.3 442.7,780.2 452.6,780.2 452.6,780.2 
					462.5,780.2 462.5,743 462.5,740.6 462.5,734 452.6,734 				"/>
				<rect x="452.6" y="714.2" class="st0" width="9.9" height="9.9"/>
			</g>
		</g>
		<path class="st0" d="M384.2,615.3v-21.8h-13.1v21.8H358v13.1h13.1v52.3h13.1v0h13.1v-13.1h-13.1v-39.2h78.4v6.2h0v6.9h-52.3v39.2
			h65.3v-46.1v-6.2v0v-6.9v-6.2H384.2z M462.6,667.5h-39.2v-13.1h39.2V667.5z"/>
	</g>
	<path class="st0" d="M610.6,114.9V0H196.9v574.6h413.7V459.7h0V114.9z M541.7,459.7h-69V183.9H334.8v275.8h-69V114.9h275.8V459.7z"
		/>
</g>
</svg>
