<?xml version="1.0" encoding="utf-8"?>
<!-- Generator: Adobe Illustrator 21.1.0, SVG Export Plug-In . SVG Version: 6.00 Build 0)  -->
<svg version="1.1" id="Layer_1" xmlns="http://www.w3.org/2000/svg" xmlns:xlink="http://www.w3.org/1999/xlink" x="0px" y="0px"
	 viewBox="0 0 283 232" style="enable-background:new 0 0 283 232;" xml:space="preserve">
<style type="text/css">
	.st0{fill:#ACAEB1;}
	.st1{fill:url(#SVGID_1_);}
	.st2{fill:url(#SVGID_2_);}
	.st3{fill:url(#SVGID_3_);}
	.st4{fill:url(#SVGID_4_);}
	.st5{fill:#FFFFFF;}
	.st6{fill:url(#SVGID_5_);}
	.st7{fill:url(#SVGID_6_);}
	.st8{fill:url(#SVGID_7_);}
	.st9{fill:url(#SVGID_8_);}
	.st10{fill:url(#SVGID_9_);}
	.st11{fill:#48484A;}
	.st12{fill:#939598;}
	.st13{fill:#6D6E71;}
</style>
<g>
	<path d="M27.4,177.6c7.3,0,12.7,2.4,17.3,6.6c0.4,0.4,0.4,0.9,0.1,1.3l-1.1,1.2c-0.4,0.4-0.8,0.4-1.2-0.1c-4.1-3.6-9.2-5.8-15-5.8
		C15,180.8,5.3,191,5.3,203.3s9.8,22.4,22.2,22.4c6.1,0,10.8-2.4,15-6c0.4-0.4,0.9-0.4,1.1-0.1l1.2,1.2c0.4,0.3,0.4,0.9,0,1.2
		c-4.8,4.7-11,6.9-17.4,6.9c-14.2,0-25.8-11.3-25.8-25.6S13.2,177.6,27.4,177.6z"/>
	<path d="M65.6,198.9c8,0,14.3,6.8,14.3,14.9c0,8.3-6.3,15-14.3,15s-14.3-6.7-14.3-15C51.3,205.7,57.5,198.9,65.6,198.9z
		 M65.6,225.9c6.3,0,11.2-5.3,11.2-12.1c0-6.6-4.9-11.9-11.2-11.9s-11.3,5.3-11.3,11.9C54.3,220.6,59.2,225.9,65.6,225.9z"/>
	<path d="M88.6,200.6c0-0.5,0.4-0.9,0.9-0.9h0.9c0.4,0,0.8,0.3,0.9,0.8l0.3,2.9c0.7-1,3.6-4.4,8.9-4.4c2.3,0,3.8,0.6,4.4,0.9
		c0.6,0.2,1,0.7,0.8,1.3l-0.6,1.4c-0.2,0.5-0.6,0.6-1.1,0.4c-0.4-0.1-1.8-0.9-3.7-0.9c-5.6,0-8.3,4.5-8.5,4.9v20.3
		c0,0.6-0.3,0.9-0.9,0.9h-1.4c-0.5,0-0.8-0.4-0.8-0.9L88.6,200.6L88.6,200.6z"/>
	<path d="M123.4,198.9c7.5,0,12.9,5.5,12.9,13c0,1.1,0,2.8-1.1,2.8h-22.7c0.3,6.1,4.7,11.3,11.1,11.3c3.8,0,6.7-1.5,8.4-2.6
		c0.6-0.4,0.9-0.5,1.3,0l0.7,1c0.2,0.3,0.1,0.7-0.3,1.1c-1.4,1.4-5.9,3.3-10.3,3.3c-8.7,0-14-6.7-14-15
		C109.4,205.7,114.7,198.9,123.4,198.9z M133.2,212.2c0-5.6-3.3-10.4-9.8-10.4c-6.3,0-10.5,4.6-10.8,10.4H133.2z"/>
	<path class="st0" d="M145.7,179.2c0-0.5,0.4-0.9,0.9-0.9h15.1c13.8,0,25.1,11.2,25.1,24.9c0,13.9-11.3,25-25.1,25h-15.1
		c-0.4,0-0.9-0.4-0.9-0.9V179.2z M161.1,225.1c12.5,0,22.1-9.5,22.1-21.9c0-12.3-9.6-21.8-22.1-21.8h-12v43.7L161.1,225.1
		L161.1,225.1z"/>
	<path class="st0" d="M198.3,178.5c0-0.6,0.5-0.9,1.1-0.9h1.2l34.2,44.5c0.1,0,0.1,0,0.1,0v-42.9c0-0.5,0.4-0.9,0.9-0.9h1.4
		c0.5,0,0.9,0.4,0.9,0.9v48.7c0,0.6-0.6,0.9-1.1,0.9h-1c-0.1,0-0.6-0.2-34.5-44.9h-0.1v43.3c0,0.5-0.4,0.9-0.9,0.9h-1.4
		c-0.5,0-0.9-0.4-0.9-0.9L198.3,178.5L198.3,178.5z"/>
	<path class="st0" d="M250.2,221.5l0.6-0.9c0.5-0.6,1-0.8,1.6-0.3c0.7,0.6,6,5.5,13.2,5.5c6.5,0,12-4.3,12-9.5
		c0-6.3-5.2-9.2-13.8-12.1c-8.3-2.9-13.7-5.8-13.7-14c0-5.3,4.3-12.6,15.4-12.6c7.1,0,12.2,3.6,12.2,3.6c0.3,0.2,0.8,0.7,0.3,1.5
		c-0.2,0.3-0.4,0.6-0.6,0.9c-0.4,0.6-0.9,0.8-1.6,0.4c-0.2-0.1-5-3.3-10.5-3.3c-8.8,0-12,5.4-12,9.5c0,6.1,4.6,8.7,11.8,11
		c9.8,3.3,16,6.8,16,15c0,7.1-7.3,12.7-15.5,12.7c-8.5,0-14.2-5-15.1-5.8C250,222.7,249.6,222.3,250.2,221.5z"/>
</g>
<g>
	
		<linearGradient id="SVGID_1_" gradientUnits="userSpaceOnUse" x1="-752.4587" y1="325.6243" x2="-634.0627" y2="325.6243" gradientTransform="matrix(0.7071 -0.7071 -0.7071 -0.7071 845.4947 -200.1544)">
		<stop  offset="0" style="stop-color:#6D6E71"/>
		<stop  offset="0.7382" style="stop-color:#535456"/>
		<stop  offset="1" style="stop-color:#48484A"/>
	</linearGradient>
	<path class="st1" d="M106.2,78.1c-1.2,1.2-2.1,2.5-2.8,3.9C104.1,80.5,105,79.2,106.2,78.1L106.2,78.1z"/>
	
		<linearGradient id="SVGID_2_" gradientUnits="userSpaceOnUse" x1="-752.4587" y1="309.6382" x2="-634.0627" y2="309.6382" gradientTransform="matrix(0.7071 -0.7071 -0.7071 -0.7071 845.4947 -200.1544)">
		<stop  offset="0" style="stop-color:#6D6E71"/>
		<stop  offset="0.7382" style="stop-color:#535456"/>
		<stop  offset="1" style="stop-color:#48484A"/>
	</linearGradient>
	<path class="st2" d="M154.3,44c2.2,0,4.4,0.8,6,2.5l4.9,4.9l0,0l-4.9-4.9C158.6,44.9,156.4,44,154.3,44z"/>
	
		<linearGradient id="SVGID_3_" gradientUnits="userSpaceOnUse" x1="-752.4587" y1="332.1244" x2="-634.0627" y2="332.1244" gradientTransform="matrix(0.7071 -0.7071 -0.7071 -0.7071 845.4947 -200.1544)">
		<stop  offset="0" style="stop-color:#6D6E71"/>
		<stop  offset="0.7382" style="stop-color:#535456"/>
		<stop  offset="1" style="stop-color:#48484A"/>
	</linearGradient>
	<path class="st3" d="M106.2,50c5.5-5.5,14.4-5.5,19.8,0l4.1,4.1l12.8-12.8c6.2-6.2,16.3-6.2,22.6,0l4.9,4.9l12.4-12.4L155.9,7
		c-7.7-7.7-20.4-7.7-28.2,0L72.2,62.5c-6.6,6.6-7.6,16.7-2.9,24.4l0.2-0.2L106.2,50z"/>
	
		<linearGradient id="SVGID_4_" gradientUnits="userSpaceOnUse" x1="-752.4036" y1="275.8735" x2="-634.0076" y2="275.8735" gradientTransform="matrix(0.7071 -0.7071 -0.7071 -0.7071 845.4947 -200.1544)">
		<stop  offset="0" style="stop-color:#6D6E71"/>
		<stop  offset="0.7382" style="stop-color:#535456"/>
		<stop  offset="1" style="stop-color:#48484A"/>
	</linearGradient>
	<path class="st4" d="M178.7,98.3c-5.5,5.5-14.4,5.5-19.8,0l-4.9-4.9l-16.2,16.2c-6.2,6.2-16.3,6.2-22.6,0l-4.2-4.2l-12,12
		l24.7,24.7c7.7,7.7,20.4,7.7,28.2,0l55.5-55.5c5.8-5.8,7.2-14.3,4.4-21.5l-1.8,1.8L178.7,98.3z"/>
	<path class="st5" d="M132.5,104.4L132.5,104.4c-0.8,0.8-1.8,1.5-2.8,1.9s-2.1,0.6-3.2,0.6c-2.2,0-4.4-0.8-6-2.5l-4.2-4.2l-4.8-4.8
		c-1.7-1.7-2.5-3.8-2.5-6c0-1.1,0.2-2.2,0.6-3.2s1-2,1.9-2.8l0,0l23.9-23.9l12.8-12.8l0,0c1.2-1.2,2.8-2,4.4-2.3
		c0.5-0.1,1.1-0.2,1.6-0.2c2.2,0,4.4,0.8,6,2.5l4.9,4.9l5.3-5.3l0,0l-4.9-4.9c-6.2-6.2-16.3-6.2-22.6,0l-12.8,12.8l-23.9,23.9
		c-1.2,1.2-2.1,2.5-2.8,3.9c-0.2,0.5-0.5,0.9-0.7,1.4c-1.8,4.3-1.5,9.3,0.7,13.4c0.7,1.4,1.7,2.7,2.8,3.9l4.8,4.8l4.2,4.2
		c6.2,6.2,16.3,6.2,22.6,0L154,93.5l-5.3-5.3L132.5,104.4z"/>
	<path d="M210,66.9l1.8-1.8c-0.7-1.6-1.6-3.2-2.7-4.7C209.6,62.6,209.8,64.8,210,66.9z"/>
	<path d="M69.4,86.7l-0.2,0.2c0.1,0.2,0.2,0.4,0.3,0.6C69.5,87.2,69.5,86.9,69.4,86.7z"/>
	
		<linearGradient id="SVGID_5_" gradientUnits="userSpaceOnUse" x1="-752.4587" y1="303.6577" x2="-634.0627" y2="303.6577" gradientTransform="matrix(0.7071 -0.7071 -0.7071 -0.7071 845.4947 -200.1544)">
		<stop  offset="0" style="stop-color:#6D6E71"/>
		<stop  offset="0.7382" style="stop-color:#535456"/>
		<stop  offset="1" style="stop-color:#48484A"/>
	</linearGradient>
	<path class="st6" d="M148.5,68.2l16.7-16.7l-4.9-4.9c-1.7-1.7-3.8-2.5-6-2.5c-0.5,0-1.1,0.1-1.6,0.2c-1.6,0.3-3.2,1.1-4.4,2.3
		l-12.8,12.8l0.9,0.9c5.5,5.5,5.5,14.4,0,19.8l-20.1,20.1l4.2,4.2c1.7,1.7,3.8,2.5,6,2.5c1.1,0,2.2-0.2,3.2-0.6s2-1,2.8-1.9
		l16.2-16.2l-0.2-0.2C143,82.5,143,73.6,148.5,68.2z"/>
	
		<linearGradient id="SVGID_6_" gradientUnits="userSpaceOnUse" x1="-763.683" y1="303.6577" x2="-621.4941" y2="303.6577" gradientTransform="matrix(0.7071 -0.7071 -0.7071 -0.7071 845.4947 -200.1544)">
		<stop  offset="0" style="stop-color:#6D6E71"/>
		<stop  offset="0.7382" style="stop-color:#535456"/>
		<stop  offset="1" style="stop-color:#48484A"/>
	</linearGradient>
	<path class="st7" d="M148.5,68.2l16.7-16.7l-4.9-4.9c-1.7-1.7-3.8-2.5-6-2.5c-0.5,0-1.1,0.1-1.6,0.2c-1.6,0.3-3.2,1.1-4.4,2.3
		l-12.8,12.8l0.9,0.9c5.5,5.5,5.5,14.4,0,19.8l-20.1,20.1l4.2,4.2c1.7,1.7,3.8,2.5,6,2.5c1.1,0,2.2-0.2,3.2-0.6s2-1,2.8-1.9
		l16.2-16.2l-0.2-0.2C143,82.5,143,73.6,148.5,68.2z"/>
	<path class="st5" d="M132.5,104.4L132.5,104.4c-0.8,0.8-1.8,1.5-2.8,1.9C130.7,105.8,131.7,105.2,132.5,104.4z"/>
	
		<linearGradient id="SVGID_7_" gradientUnits="userSpaceOnUse" x1="-763.683" y1="289.1319" x2="-621.4941" y2="289.1319" gradientTransform="matrix(0.7071 -0.7071 -0.7071 -0.7071 845.4947 -200.1544)">
		<stop  offset="0" style="stop-color:#6D6E71"/>
		<stop  offset="0.7382" style="stop-color:#535456"/>
		<stop  offset="1" style="stop-color:#48484A"/>
	</linearGradient>
	<path class="st8" d="M132.5,104.4L132.5,104.4c-0.8,0.8-1.8,1.5-2.8,1.9C130.7,105.8,131.7,105.2,132.5,104.4z"/>
	<path class="st5" d="M116.3,100.2L116.3,100.2l4.2,4.2c1.7,1.7,3.8,2.5,6,2.5c-2.2,0-4.4-0.8-6-2.5L116.3,100.2z"/>
	
		<linearGradient id="SVGID_8_" gradientUnits="userSpaceOnUse" x1="-763.683" y1="297.2637" x2="-621.4941" y2="297.2637" gradientTransform="matrix(0.7071 -0.7071 -0.7071 -0.7071 845.4947 -200.1544)">
		<stop  offset="0" style="stop-color:#6D6E71"/>
		<stop  offset="0.7382" style="stop-color:#535456"/>
		<stop  offset="1" style="stop-color:#48484A"/>
	</linearGradient>
	<path class="st9" d="M116.3,100.2L116.3,100.2l4.2,4.2c1.7,1.7,3.8,2.5,6,2.5c-2.2,0-4.4-0.8-6-2.5L116.3,100.2z"/>
	<path class="st5" d="M148.2,46.5L148.2,46.5c1.2-1.2,2.8-2,4.4-2.3C151,44.5,149.5,45.3,148.2,46.5z"/>
	
		<linearGradient id="SVGID_9_" gradientUnits="userSpaceOnUse" x1="-763.683" y1="317.9114" x2="-621.4941" y2="317.9114" gradientTransform="matrix(0.7071 -0.7071 -0.7071 -0.7071 845.4947 -200.1544)">
		<stop  offset="0" style="stop-color:#6D6E71"/>
		<stop  offset="0.7382" style="stop-color:#535456"/>
		<stop  offset="1" style="stop-color:#48484A"/>
	</linearGradient>
	<path class="st10" d="M148.2,46.5L148.2,46.5c1.2-1.2,2.8-2,4.4-2.3C151,44.5,149.5,45.3,148.2,46.5z"/>
	<path class="st11" d="M72.2,90.7c-1-1-1.9-2.1-2.6-3.2c-0.1-0.2-0.2-0.4-0.3-0.6L64,92.2c-5.5,5.5-5.5,14.4,0,19.8l10.3,10.3
		c4.4,4.4,11,5.3,16.3,2.6c1.3-0.7,2.5-1.5,3.5-2.6l3.3-3.3l1.2-1.2l0.4-0.4L72.2,90.7z"/>
	<path d="M106.2,100.6c-1.2-1.2-2.1-2.5-2.8-3.9c-2.2-4.2-2.4-9.1-0.7-13.4c0.2-0.5,0.4-1,0.7-1.4c0.7-1.4,1.7-2.7,2.8-3.9l0,0
		l23.9-23.9L126,50c-5.5-5.5-14.4-5.5-19.8,0L69.5,86.7c0,0.2,0.1,0.5,0.2,0.7c0.7,1.1,1.6,2.2,2.6,3.2l26.8,26.8l12-12L106.2,100.6
		z"/>
	<path d="M102.7,83.3c-1.8,4.3-1.5,9.3,0.7,13.4C101.2,92.6,100.9,87.7,102.7,83.3z"/>
	<path d="M116.3,100.2l20.1-20.1c5.5-5.5,5.5-14.4,0-19.8l-0.9-0.9l-23.9,23.9c-0.8,0.8-1.5,1.8-1.9,2.8s-0.6,2.1-0.6,3.2
		c0,2.2,0.8,4.4,2.5,6L116.3,100.2z"/>
	<path d="M111.4,95.4c-1.7-1.7-2.5-3.8-2.5-6C109,91.5,109.8,93.7,111.4,95.4l4.8,4.8l0,0L111.4,95.4z"/>
	<path d="M111.4,83.3c-0.8,0.8-1.5,1.8-1.9,2.8C110,85.1,110.6,84.1,111.4,83.3L111.4,83.3z"/>
	<path d="M165.2,51.5l-16.7,16.7c-5.5,5.5-5.5,14.4,0,19.8l0.2,0.2l20.6-20.6c1.2-1.2,2-2.8,2.3-4.4c0.1-0.5,0.2-1.1,0.2-1.6
		c0-2.2-0.8-4.4-2.5-6L165.2,51.5z"/>
	<path d="M169.3,67.6c1.2-1.2,2-2.8,2.3-4.4C171.3,64.8,170.5,66.3,169.3,67.6L169.3,67.6z"/>
	<path d="M169.3,55.5c1.7,1.7,2.5,3.8,2.5,6C171.8,59.4,170.9,57.2,169.3,55.5l-4-4l0,0L169.3,55.5z"/>
	<path d="M174.5,72.8c1.6-1.6,2.7-3.4,3.5-5.3C177.3,69.5,176.1,71.3,174.5,72.8L174.5,72.8z"/>
	<path class="st12" d="M178,67.5c0.2-0.5,0.4-1,0.5-1.5c1.6-5.4,0.3-11.6-4-15.8l-4-4l-5.3,5.3l4,4c1.7,1.7,2.5,3.8,2.5,6
		c0,0.5-0.1,1.1-0.2,1.6c-0.3,1.6-1.1,3.2-2.3,4.4l0,0l-20.6,20.6l5.3,5.3l20.6-20.6C176.1,71.3,177.3,69.5,178,67.5z"/>
	<path class="st13" d="M220.8,36.3L210.5,26c-5.2-5.2-13.3-5.5-18.8-0.9c-0.3,0.3-0.7,0.6-1,0.9l-6.7,6.7l-1.2,1.2l0,0l24.6,24.6
		c0.6,0.6,1.2,1.3,1.7,2c1.1,1.5,2,3,2.7,4.7l9-9C226.3,50.7,226.3,41.8,220.8,36.3z"/>
	<path d="M174.5,50.3c4.3,4.3,5.6,10.4,4,15.8c-0.1,0.5-0.3,1-0.5,1.5c-0.8,1.9-1.9,3.7-3.5,5.3l0,0l-20.6,20.6l4.9,4.9
		c5.5,5.5,14.4,5.5,19.8,0L210,67c-0.2-2.2-0.5-4.3-0.9-6.5c-0.5-0.7-1.1-1.4-1.7-2l-24.6-24.6l-12.4,12.4L174.5,50.3z"/>
	<path d="M174.5,50.3c4.3,4.3,5.6,10.4,4,15.8C180.1,60.7,178.8,54.5,174.5,50.3l-4-4l0,0L174.5,50.3z"/>
</g>
</svg>
