<?xml version="1.0" encoding="utf-8"?>
<!-- Generator: Adobe Illustrator 21.1.0, SVG Export Plug-In . SVG Version: 6.00 Build 0)  -->
<svg version="1.1" id="Layer_1" xmlns="http://www.w3.org/2000/svg" xmlns:xlink="http://www.w3.org/1999/xlink" x="0px" y="0px"
	 viewBox="0 0 89 99" enable-background="new 0 0 89 99" xml:space="preserve">
<title>vertical</title>
<desc>Created with Sketch.</desc>
<g id="Logo-Symbol-72px" transform="translate(9.000000, 0.000000)">
	<g id="reverse-2" transform="translate(0.000000, 12.500000)">
		<polygon id="Fill-1" fill="#231F20" points="66.999,43.341 71.999,46.227 71.999,19.115 66.999,16.227 		"/>
		<polygon id="Fill-2" fill="#231F20" points="0,19.115 0,46.229 5,43.341 5,16.228 		"/>
		<polygon id="Fill-3" fill="#231F20" points="22.003,67.613 27.003,70.5 38.908,63.626 33.908,60.74 		"/>
		<polygon id="shadow" fill="#231F20" points="29.002,63.572 34.002,66.459 38.908,63.626 33.908,60.74 		"/>
	</g>
	<g id="reverse-1" transform="translate(24.500000, 37.500000)">
		<polygon id="Fill-5" fill="#231F20" points="22.999,34.241 22.999,28.467 1.47,16.037 0,16.885 0.003,16.887 0.003,20.964 		"/>
		<polygon id="Fill-6" fill="#231F20" points="0.002,33.665 20.5,45.5 25.501,42.613 0.002,27.891 		"/>
	</g>
	<g id="top-2">
		<polygon id="Fill-7" fill="#231F20" points="54.763,35.793 59.762,38.679 71.999,31.615 66.998,28.729 		"/>
		<polygon id="Fill-8" fill="#231F20" points="38.528,50.939 33.528,48.053 22,54.709 27,57.595 		"/>
		<polygon id="Fill-9" fill="#231F20" points="61.001,25.265 56,22.379 43.765,29.443 48.765,32.33 		"/>
		<polygon id="Fill-10" fill="#231F20" points="27.531,44.59 22.531,41.703 11.003,48.359 16.003,51.246 		"/>
		<polygon id="Fill-11" fill="#231F20" points="32.768,23.094 37.768,25.98 50.004,18.916 45.003,16.029 		"/>
		<polygon id="Fill-12" fill="#231F20" points="0.005,42.009 5.005,44.896 16.533,38.241 11.533,35.354 		"/>
	</g>
	<g id="gradient" transform="translate(0.000000, 26.000000)">
		<polygon id="Fill-13" fill="#231F20" points="66.999,18.894 66.999,44.299 71.999,41.411 71.999,16.007 		"/>
		<polygon id="Fill-14" fill="#231F20" points="60.999,47.762 60.999,22.358 55.999,25.245 55.999,50.649 		"/>
		<polygon id="Fill-15" fill="#231F20" points="44.998,31.596 44.998,57 49.999,54.113 49.999,28.709 		"/>
		<polygon id="Fill-16" fill="#231F20" points="22.003,54.113 27.003,57 27.003,31.596 22.003,28.709 		"/>
		<polygon id="Fill-17" fill="#231F20" points="16.003,25.245 16.003,50.649 11.003,47.763 11.003,22.358 		"/>
		<polygon id="Fill-18" fill="#231F20" points="0.003,41.412 5.003,44.298 5.003,18.894 0.003,16.007 		"/>
	</g>
	<g id="shadow_1_" transform="translate(7.000000, 19.000000)">
		<polygon id="Fill-19" fill="#231F20" points="21.999,31.668 26.999,34.554 31.529,31.939 26.529,29.053 		"/>
		<polygon id="Fill-20" fill="#231F20" points="0.004,18.969 5.004,21.855 9.533,19.24 4.534,16.354 		"/>
		<polygon id="Fill-21" fill="#231F20" points="11.002,25.318 16.002,28.205 20.531,25.59 15.531,22.703 		"/>
	</g>
	<g id="top-1">
		<polygon id="Fill-22" fill="#231F20" points="27,16.027 22,18.913 66.998,44.894 71.998,42.007 		"/>
		<polygon id="Fill-23" fill="#231F20" points="16,22.378 11,25.264 55.998,51.245 60.999,48.358 		"/>
		<polygon id="Fill-24" fill="#231F20" points="0,31.615 44.998,57.595 49.999,54.709 5,28.728 		"/>
	</g>
</g>
</svg>
