<?xml version="1.0" encoding="utf-8"?>
<!-- Generator: Adobe Illustrator 21.1.0, SVG Export Plug-In . SVG Version: 6.00 Build 0)  -->
<svg version="1.1" id="Layer_1" xmlns="http://www.w3.org/2000/svg" xmlns:xlink="http://www.w3.org/1999/xlink" x="0px" y="0px"
	 viewBox="0 0 468.5 160.7" style="enable-background:new 0 0 468.5 160.7;" xml:space="preserve">
<style type="text/css">
	.st0{fill:#FEFEFE;}
</style>
<g id="_x35_jYWeV.tif">
	<g>
		<g>
			<path d="M99.9,29.9c0,0.7,0.1,1.4,0.1,2c0,16.8,0,33.5,0,50.3c0,2.4,0,2.5-2.4,2.5c-4.3,0-8.7,0-13,0c-1.2,0-1.8-0.3-1.8-1.7
				c0-17.4,0-34.8,0-52.2c0-0.3,0.1-0.6,0.1-0.9C88.6,29.9,94.2,29.9,99.9,29.9z"/>
		</g>
		<g>
			<path d="M78.9,63.7c0,6.3,0,12.6,0,18.9c0,2.1,0,2.1-2.1,2.1c-4.5,0-8.9,0-13.4,0c-1.4,0-1.8-0.5-1.8-1.8c0-12.8,0-25.6,0-38.3
				c0-1.3,0.4-1.9,1.8-1.9c4.6,0.1,9.1,0.1,13.7,0c1.4,0,1.8,0.5,1.8,1.8C78.9,50.9,78.9,57.3,78.9,63.7z"/>
		</g>
		<g>
			<path d="M57.9,69.4c0,4.5,0,9,0,13.5c0,1.4-0.4,1.8-1.8,1.8c-4.6-0.1-9.1-0.1-13.7,0c-1.4,0-1.8-0.5-1.8-1.9c0-9,0-18,0-27
				c0-1.3,0.4-1.8,1.7-1.8c4.6,0,9.2,0,13.8,0c1.3,0,1.7,0.5,1.7,1.8C57.8,60.4,57.9,64.9,57.9,69.4z"/>
		</g>
	</g>
</g>
<g id="_x39_kwjjj.tif">
	<g>
		<g>
			<path d="M11,150.8c0-0.8,0-1.6,0-2.3c3.5-10.3,7.1-20.5,10.4-30.8c1.1-3.4,2.8-4.6,6.4-4.5c40.6,0.1,81.1,0.1,121.7,0
				c3.6,0,5.3,1.1,6.4,4.6c3.3,10.3,6.9,20.5,10.4,30.8c0,0.8,0,1.6,0,2.3c-1.5,0.1-3.1,0.3-4.6,0.3c-48.7,0-97.3,0-146,0
				C14,151.1,12.5,150.9,11,150.8z"/>
		</g>
		<g>
			<path d="M89,7.6c19,0,38,0,57,0c6.3,0,8.6,2,8.6,8.3c0.1,27.5,0.1,55.1,0,82.6c0,6.2-2.3,8.3-8.6,8.3c-38.3,0-76.6,0-114.8,0
				c-6.3,0-8.6-2.1-8.6-8.3c-0.1-27.5-0.1-55.1,0-82.6c0-6.2,2.3-8.2,8.6-8.2C50.4,7.6,69.7,7.6,89,7.6z M88.5,97
				c17.9,0,35.7,0,53.6,0c5.1,0,5.2-0.2,5.3-5.3c0-23,0-46.1,0-69.1c0-5.1-0.3-5.4-5.2-5.4c-35.7,0-71.4,0-107.1,0
				c-5,0-5.2,0.3-5.3,5.3c0,23,0,46.1,0,69.1c0,5.2,0.1,5.3,5.6,5.3C53.1,97,70.8,97,88.5,97z"/>
		</g>
	</g>
</g>
<g>
	<path d="M171.5,48.3h14.9c5.7,0,10.1,1.6,13.1,4.8c3,3.2,4.5,7.6,4.5,13.3v32.8c0,6.6-1.6,11.4-4.8,14.5c-3.2,3.1-7.8,4.7-13.7,4.7
		h-14V48.3z M181.5,108.9h4.6c2.8,0,4.8-0.7,6-2.1c1.2-1.4,1.8-3.6,1.8-6.6V66.4c0-2.8-0.6-4.9-1.7-6.4c-1.1-1.5-3.1-2.3-6.1-2.3
		h-4.6V108.9z"/>
	<path d="M213.4,48.3h29.9v9.4h-19.9v20.6h17.3v9.4h-17.3v20.6h19.9v10h-29.9V48.3z"/>
	<path d="M269.5,118.3h-8.9l-14.3-70.1H257l8,48.9h0.2l8.1-48.9h10.6L269.5,118.3z"/>
	<path d="M322.3,68.5h-10v-2.3c0-2.3-0.5-4.3-1.6-6c-1.1-1.7-2.9-2.5-5.5-2.5c-1.4,0-2.5,0.3-3.4,0.8c-0.9,0.5-1.6,1.2-2.1,2
		c-0.5,0.8-0.8,1.8-1,2.9c-0.2,1.1-0.3,2.2-0.3,3.4c0,1.4,0,2.5,0.1,3.5c0.1,1,0.3,1.8,0.7,2.5c0.4,0.7,1,1.3,1.7,1.8
		c0.8,0.5,1.8,1,3.1,1.6l7.7,3.1c2.2,0.9,4,1.9,5.4,3c1.4,1.1,2.4,2.5,3.2,4c0.8,1.5,1.3,3.3,1.5,5.3c0.3,2,0.4,4.3,0.4,6.8
		c0,3-0.3,5.7-0.9,8.2c-0.6,2.5-1.6,4.7-2.9,6.5c-1.3,1.8-3.1,3.2-5.4,4.3c-2.2,1-5,1.6-8.2,1.6c-2.4,0-4.7-0.4-6.8-1.3
		c-2.1-0.9-3.9-2-5.4-3.5c-1.5-1.5-2.7-3.2-3.6-5.3c-0.9-2-1.3-4.2-1.3-6.6v-3.7h10v3.1c0,1.8,0.5,3.5,1.6,5
		c1.1,1.5,2.9,2.2,5.5,2.2c1.7,0,3-0.2,4-0.7c1-0.5,1.7-1.2,2.2-2.1c0.5-0.9,0.8-2,0.9-3.3c0.1-1.3,0.2-2.8,0.2-4.3
		c0-1.8-0.1-3.3-0.2-4.5c-0.1-1.2-0.4-2.1-0.8-2.9c-0.4-0.7-1-1.3-1.8-1.8c-0.8-0.5-1.8-1-3-1.5l-7.2-3c-4.3-1.8-7.2-4.1-8.7-7
		c-1.5-2.9-2.2-6.6-2.2-11c0-2.6,0.4-5.1,1.1-7.5c0.7-2.4,1.8-4.4,3.2-6.1c1.4-1.7,3.2-3.1,5.4-4.1c2.2-1,4.7-1.5,7.6-1.5
		c2.5,0,4.8,0.5,6.8,1.4c2.1,0.9,3.8,2.1,5.3,3.6c1.5,1.5,2.6,3.2,3.4,5.1c0.8,1.9,1.2,3.8,1.2,5.8V68.5z"/>
	<path d="M336.4,57.7h-11.6v-9.4H358v9.4h-11.6v60.6h-10V57.7z"/>
	<path d="M368.2,48.3h8.4l15.6,70.1h-10l-3-15.1h-13.7l-3,15.1h-10L368.2,48.3z M372.4,68.5h-0.2l-4.9,25.4h10L372.4,68.5z"/>
	<path d="M398.3,57.7h-11.6v-9.4h33.3v9.4h-11.6v60.6h-10V57.7z"/>
	<path d="M456.8,68.5h-10v-2.3c0-2.3-0.5-4.3-1.6-6c-1.1-1.7-2.9-2.5-5.5-2.5c-1.4,0-2.5,0.3-3.4,0.8c-0.9,0.5-1.6,1.2-2.1,2
		c-0.5,0.8-0.8,1.8-1,2.9c-0.2,1.1-0.3,2.2-0.3,3.4c0,1.4,0,2.5,0.1,3.5c0.1,1,0.3,1.8,0.7,2.5c0.4,0.7,1,1.3,1.7,1.8
		c0.8,0.5,1.8,1,3.1,1.6l7.7,3.1c2.2,0.9,4,1.9,5.4,3c1.4,1.1,2.4,2.5,3.2,4c0.8,1.5,1.3,3.3,1.5,5.3c0.3,2,0.4,4.3,0.4,6.8
		c0,3-0.3,5.7-0.9,8.2c-0.6,2.5-1.6,4.7-2.9,6.5c-1.3,1.8-3.1,3.2-5.4,4.3c-2.2,1-5,1.6-8.2,1.6c-2.4,0-4.7-0.4-6.8-1.3
		c-2.1-0.9-3.9-2-5.4-3.5c-1.5-1.5-2.7-3.2-3.6-5.3c-0.9-2-1.3-4.2-1.3-6.6v-3.7h10v3.1c0,1.8,0.5,3.5,1.6,5
		c1.1,1.5,2.9,2.2,5.5,2.2c1.7,0,3-0.2,4-0.7c1-0.5,1.7-1.2,2.2-2.1c0.5-0.9,0.8-2,0.9-3.3c0.1-1.3,0.2-2.8,0.2-4.3
		c0-1.8-0.1-3.3-0.2-4.5c-0.1-1.2-0.4-2.1-0.8-2.9c-0.4-0.7-1-1.3-1.8-1.8c-0.8-0.5-1.8-1-3-1.5l-7.2-3c-4.3-1.8-7.2-4.1-8.7-7
		c-1.5-2.9-2.2-6.6-2.2-11c0-2.6,0.4-5.1,1.1-7.5c0.7-2.4,1.8-4.4,3.2-6.1c1.4-1.7,3.2-3.1,5.4-4.1c2.2-1,4.7-1.5,7.6-1.5
		c2.5,0,4.8,0.5,6.8,1.4c2.1,0.9,3.8,2.1,5.3,3.6c1.5,1.5,2.6,3.2,3.4,5.1c0.8,1.9,1.2,3.8,1.2,5.8V68.5z"/>
</g>
</svg>
