<svg xmlns="http://www.w3.org/2000/svg" role="img" viewBox="16.42 29.42 1070.16 764.16"><path fill="#fcfcfc" fill-rule="evenodd" d="M559.965 53.225c-.02 1.801-1.032 6.189-2.25 9.75-1.78 5.202-3.045 7.102-6.44 9.671-5.15 3.897-13.401 6.46-22.888 7.111-10.371.712-13.058-.53-22.127-10.223l-7.791-8.327-11.985 4.977c-15.816 6.569-15.653 6.386-14.296 15.939 1.597 11.246.727 14.19-6.19 20.958-6.914 6.766-20.249 13.931-25.864 13.897-4.065-.025-10.251-2.57-17.439-7.177-5.904-3.784-5.786-3.836-18.591 8.102l-9.397 8.761 4.147 8.284c6.586 13.159 5.314 20.552-5.824 33.844-8.612 10.277-14.844 12.395-28.496 9.686-4.748-.942-8.8-1.545-9.005-1.341-.204.205-3.517 6.144-7.362 13.198l-6.99 12.826 6.872 6.75c3.78 3.713 7.34 7.981 7.911 9.485 1.828 4.806 1.206 14.256-1.459 22.196-3.113 9.274-6.405 14.572-10.687 17.199-3.185 1.954-11.504 3.928-18.779 4.457-3.078.224-3.548.642-4.212 3.752-.411 1.925-1.054 8.949-1.43 15.609l-.683 12.11 6.27 2.117c13.856 4.679 17.21 10.182 17.778 29.164.351 11.76.228 12.766-2.085 17-1.98 3.623-3.849 5.25-9.59 8.346-11.144 6.01-11.72 8.329-6.896 27.752l2.184 8.792 6.064-.559c3.426-.315 7.954-.047 10.406.618 10.013 2.715 19.96 17.541 20.938 31.21.681 9.508-1.328 14.355-8.732 21.077l-5.798 5.264 7.852 12.426c4.318 6.835 8.282 12.857 8.808 13.383.61.61 3.348 0 7.535-1.676 7.929-3.174 15.069-3.433 20.346-.738 4.549 2.323 13.02 10.778 17.963 17.928 4.944 7.151 4.941 12.468-.012 23.898l-3.543 8.175 12.429 9.643 12.429 9.644 4.067-4.19c5.765-5.941 13.737-9.418 19.732-8.608 10.101 1.365 27.05 11.777 30.872 18.965 1.563 2.94 2.054 12.413 1.071 20.64-.283 2.366.395 2.718 13.702 7.102 7.7 2.537 14.343 4.425 14.762 4.194.419-.23 2.381-2.976 4.36-6.102 7.714-12.185 12.016-14.693 23.839-13.902 9.524.638 19.291 3.529 23.966 7.095 2.078 1.585 5.032 5.829 7.72 11.091l4.353 8.523 14.731.004c14.475.005 14.739-.034 15.193-2.245 2.825-13.767 4.286-16.921 9.741-21.031 4.316-3.252 11.273-5.547 20.98-6.92 10.901-1.541 14.677.019 23.671 9.779 4.292 4.658 7.613 7.422 8.918 7.422 2.562 0 23.265-8.581 25.089-10.399 1.086-1.082 1.101-2.773.082-9.427-1.553-10.144-.487-14.303 5.155-20.116 4.959-5.11 14.968-11.694 19.834-13.045 8.099-2.25 13.963-.987 23.573 5.078 3.281 2.071 6.501 3.46 7.154 3.087 1.915-1.094 21.342-18.621 21.361-19.272.033-1.103-38.861-38.906-40.029-38.906-.637 0-6.399 4.233-12.806 9.407-16.248 13.123-29.481 21.751-44.647 29.11C649.548 520.049 623.292 526 589.123 526c-24.667 0-46.527-3.486-69.123-11.023-75.329-25.128-124.139-80.922-140.234-160.299-2.043-10.08-2.264-13.977-2.25-39.678.015-25.838.229-29.481 2.286-39 8.508-39.368 22.961-69.068 47.467-97.541 33.669-39.12 75.35-61.551 131.231-70.623 12.324-2.001 49.68-1.706 61.277.483 37.642 7.108 66.497 19.869 97.023 42.908 6.394 4.825 11.937 8.773 12.319 8.773 1.043 0 7.258-7.769 19.999-25 16.183-21.886 15.319-20.22 12.071-23.261-1.479-1.385-6.896-5.713-12.038-9.618l-9.349-7.099-5.651 4.438c-6.95 5.457-11.785 7.548-17.369 7.513-8.441-.053-26.732-9.919-30.903-16.669-1.777-2.875-2.307-5.652-2.787-14.592l-.592-11.041-11.467-3.835c-15.572-5.209-16.057-5.163-20.914 1.988-4.599 6.773-10.073 11.875-13.722 12.791-3.47.871-21.023-.193-25.515-1.546-8.241-2.483-12.732-7.196-16.33-17.139l-2.328-6.43-16.112-.275L560 49.95l-.035 3.275m5.73 74.893c-4.843.467-14.015 2.017-20.383 3.445-78.144 17.527-137.37 82.548-147.34 161.756-1.832 14.55-.802 45.37 1.977 59.181C415.187 428.229 473.058 485.574 551 502.179c14.467 3.082 52.064 3.335 67.5.455 36.923-6.89 72.417-24.652 94.918-47.499l6.919-7.025-15.085-15.805c-8.296-8.693-17.104-17.769-19.572-20.169l-4.488-4.364-7.852 6.39c-14.95 12.169-34.138 22.488-50.745 27.289-16.427 4.748-46.905 5.686-63.595 1.956-39.335-8.791-70.954-33.407-88.932-69.236-4.206-8.381-9.992-25.836-11.659-35.171-1.913-10.713-1.816-39.096.167-48.792 3.237-15.828 11.145-35.017 19.506-47.329 5.774-8.502 19.645-22.768 28.975-29.8 13.951-10.514 37.15-20.769 55.614-24.583 4.272-.882 13.631-1.865 20.798-2.183 29.485-1.312 56.504 6.973 81.292 24.927l9.502 6.882 2.991-2.811c3.981-3.742 23.964-25.376 30.235-32.733l4.99-5.854-5.99-5.391c-8.858-7.973-25.128-18.645-37.808-24.798-32.356-15.704-66.942-21.888-102.986-18.417M112.633 589.493c-23.688 4.912-43.257 16.916-56.736 34.804-7.387 9.804-12.052 18.913-15.576 30.415-2.486 8.114-2.693 10.13-2.693 26.288 0 16.234.199 18.151 2.746 26.5 5 16.384 14.68 31.959 26.508 42.648C79.269 761.342 98.691 770.41 116 773.081c10.701 1.651 31.52.652 41.5-1.991 10.941-2.897 24.412-9.781 34.023-17.387 9.548-7.555 19.302-19.191 17.902-21.354-.509-.786-5.418-4.545-10.909-8.354l-9.985-6.925-7.798 8.413c-12.098 13.05-24.289 19.369-41.233 21.376-22.82 2.701-45.201-6.037-59.214-23.12-19.831-24.175-19.698-61.757.304-85.88 12.11-14.605 31.767-23.795 51-23.842 18.15-.044 39.536 10.332 50.665 24.581 2.32 2.971 4.655 5.402 5.188 5.402 1.49 0 22.557-14.154 22.557-15.155 0-.485-4.838-5.764-10.75-11.731-14.625-14.76-25.544-21.427-42.876-26.181-10.215-2.802-33.478-3.568-43.741-1.44M468 622.604v31.603l-3.442-3.022c-18.126-15.914-50.279-18.858-73.358-6.716-14.393 7.571-24.076 17.709-30.917 32.368-17.961 38.486 4.008 84.624 45.326 95.191 8.74 2.235 23.17 2.628 31.592.859 7.149-1.501 19.013-7.053 25.441-11.907l5.267-3.976.295 6.748.296 6.748h27l.255-89.75.256-89.75H468v31.604m-200.64 15.872c-3.927.713-8.877 1.853-11 2.533-5.168 1.655-18.155 8.475-21.753 11.424l-2.893 2.37 5.893 9.593c3.241 5.277 6.343 9.583 6.893 9.571.55-.013 3.635-1.774 6.855-3.914 8.301-5.516 19.659-8.449 30.193-7.797 16.183 1.001 23.431 8.382 23.446 23.879l.006 5.635-5.25.59c-2.887.325-12.45 1.088-21.25 1.696-8.8.608-19.15 1.741-23 2.517-21.935 4.425-34.585 19.626-33.278 39.99 1.15 17.92 15.221 32.829 34.314 36.359 17.721 3.276 35.792-1.548 46.439-12.396l4.274-4.355 3.168 4.153c6.448 8.455 12.723 10.902 26.829 10.464l9.254-.288.285-10.855c.187-7.147-.111-11.332-.873-12.25-.688-.829-3.054-1.395-5.834-1.395-2.573 0-5.218-.54-5.878-1.2-.883-.883-1.205-9.787-1.217-33.75-.02-36.323-.683-42.005-6.006-51.437-10.035-17.781-33.083-25.952-59.617-21.137m302.64-.789c-12.942 2.144-26.063 9.166-36.175 19.36-21.244 21.415-25.8 55.096-11.087 81.953 5.241 9.568 18.703 22.54 28.262 27.235 11.916 5.854 18.502 7.25 34 7.211 12.126-.03 14.314-.316 21.5-2.813 4.4-1.529 10.475-4.185 13.5-5.902 6.077-3.449 21.449-17.895 20.868-19.609-.202-.597-4.566-4.173-9.696-7.946l-9.328-6.86-5.871 5.871c-3.774 3.774-8.298 7.02-12.671 9.091-6.44 3.051-7.416 3.222-18.35 3.222-11.334 0-11.69-.07-19.158-3.759-11.527-5.694-20.83-17.026-22.518-27.429l-.538-3.312H648v-5.276c0-14.316-3.576-29.229-9.677-40.354-4.024-7.338-17.586-20.256-25.323-24.12-9.59-4.789-20.571-7.276-31.41-7.114-4.999.075-10.215.323-11.59.551m146.251.858c-6.532 1.759-11.615 4.323-17.552 8.855l-4.602 3.513-.298-5.707-.299-5.706h-27l-.257 65.778-.257 65.779 13.757-.279 13.757-.278.5-43.5.5-43.5 2.801-5.704c5.013-10.208 14.766-15.993 27.097-16.073 11.802-.076 21.501 5.566 26.891 15.643 2.162 4.043 2.222 5.112 2.711 48.634l.5 44.5 13.75.278 13.75.278-.008-43.278c-.004-24.77-.447-46.058-1.037-49.778-2.968-18.734-16.405-33.905-34.887-39.388-6.746-2.002-22.501-2.037-29.817-.067m135.979.47c-12.12 3.176-22.605 9.252-31.801 18.43-9.019 9-13.061 15.413-16.863 26.753-9.365 27.934 1.229 59.667 25.645 76.814 14.139 9.93 27.641 13.636 46.208 12.684 14.459-.742 22.99-3.465 33.525-10.701 6.628-4.553 18.444-16.337 17.924-17.875-.202-.599-4.58-4.16-9.727-7.915l-9.36-6.826-5.839 5.839c-3.744 3.744-8.279 6.995-12.64 9.06-6.435 3.048-7.423 3.222-18.302 3.222-11.064 0-11.747-.126-18-3.33-22.287-11.42-30.84-36.818-20.116-59.736 7.776-16.617 26.901-26.761 44.703-23.712 8.981 1.538 16.391 5.39 23.923 12.436l6.333 5.925 9.553-6.792c5.254-3.735 9.564-7.292 9.578-7.904.045-1.913-12.178-13.706-18.738-18.078-6.851-4.567-14.945-7.926-22.589-9.376-8.339-1.581-25.354-1.031-33.417 1.082m131.77-.46c-25.011 5.372-46.738 28.608-50.934 54.471-6.776 41.763 21.91 78.138 63.64 80.698 22.36 1.371 42.373-6.321 56.699-21.794 3.077-3.324 5.582-6.356 5.567-6.737-.015-.381-4.403-3.896-9.75-7.81l-9.722-7.118-7.13 6.751c-8.975 8.497-15.154 11.1-27.87 11.74-18.541.934-32.627-7.126-40.807-23.35-1.413-2.801-2.709-6.401-2.881-8l-.312-2.906 52.869-.259 52.869-.259-.682-10.741c-1.329-20.968-7.011-34.751-19.512-47.335-12.575-12.66-28.299-18.946-47.044-18.809-4.675.034-11.425.69-15 1.458m-569.898 24.028c-11.599 3.119-22.369 12.059-28.024 23.263-11.012 21.814-1.996 47.9 20.444 59.155 6.763 3.391 7.332 3.499 18.478 3.499s11.715-.108 18.478-3.499c17.532-8.793 27.045-26.738 24.382-45.994-3.562-25.745-29.106-43.053-53.758-36.424m156.398-.184c-12.232 3.868-21.549 12.987-25.915 25.361l-1.48 4.194 38.306.273 38.307.273-.817-2.848c-2.426-8.453-8.342-16.795-15.311-21.59-9.181-6.317-23.353-8.742-33.09-5.663m417.786-.007c-6.562 2.142-12.425 5.98-17.622 11.536-4.384 4.687-9.631 13.83-9.654 16.822-.008.978 8.265 1.25 38.057 1.25h38.068l-.687-2.25c-3.469-11.366-10.449-19.656-20.868-24.785-5.689-2.801-8.074-3.383-14.925-3.641-5.034-.189-9.768.22-12.369 1.068M283 715.556c-18.876 1.69-20.344 1.948-25.615 4.5-5.861 2.837-8.8 8.271-8.148 15.063.554 5.763 2.578 9.068 7.58 12.378 11.853 7.844 33.972 3.478 42.563-8.401 4.411-6.1 5.62-10.025 5.62-18.245V714l-3.75.129c-2.062.071-10.275.713-18.25 1.427"/></svg>