<svg xmlns="http://www.w3.org/2000/svg" viewBox="0 0 825.69 272.87"><defs><style>.cls-1{fill:#006eff;}.cls-2{fill:#fff;}.cls-3{fill:#414042;}</style></defs><g id="Layer_2" data-name="Layer 2"><g id="Layer_1-2" data-name="Layer 1"><path class="cls-1" d="M233.92,64.49,124.56,1.36a10.11,10.11,0,0,0-10.12,0L5.08,64.49A10.12,10.12,0,0,0,0,73.27V199.58a10.11,10.11,0,0,0,5.08,8.79L114.44,271.5a10.06,10.06,0,0,0,10.12,0l109.36-63.13a10.11,10.11,0,0,0,5.08-8.79V73.27A10.21,10.21,0,0,0,233.92,64.49Z"/><path class="cls-2" d="M54.06,137.09a5.31,5.31,0,0,0,3.84-9l-18.53-19.5L61,71.39H93.69a5.52,5.52,0,0,0,5.21-7.3,5.46,5.46,0,0,0-5.24-3.7H58.2a5.51,5.51,0,0,0-5.06,3.33,0,0,0,0,1,0,0l-25,43c-.11.2-.21.4-.3.61a4.24,4.24,0,0,0-.18.5c-.05.17-.09.34-.13.51a5.33,5.33,0,0,0,0,2c0,.12.05.24.08.36s0,.11,0,.16l.15.43a3.82,3.82,0,0,0,.21.46,3.3,3.3,0,0,0,.23.41l.06.1a4.77,4.77,0,0,0,.6.76l.13.14,21.15,22.23A5.28,5.28,0,0,0,54.06,137.09Z"/><path class="cls-2" d="M94.7,167.53a5.31,5.31,0,0,0-7.26,1.93L74.31,192.1H34.85a5.5,5.5,0,1,0,0,11H77.13a5.28,5.28,0,0,0,4.6-2.64l14.9-25.67A5.31,5.31,0,0,0,94.7,167.53Z"/><path class="cls-2" d="M200.15,192.1h-70L103.43,146l.09-.08a20.08,20.08,0,0,0,5-8.51h51.37a5.5,5.5,0,1,0,0-11H108.58a20,20,0,0,0-5.06-8.73l-.09-.09,26.8-46.18h70a5.52,5.52,0,0,0,5.21-7.3,5.46,5.46,0,0,0-5.24-3.7H127.62a4.83,4.83,0,0,0-.94.09l-.28.05h-.06a5.3,5.3,0,0,0-3.58,2.55l-28.55,49.2a19.73,19.73,0,0,0-5-.64,20.13,20.13,0,1,0,5,39.61l28.55,49.2a5.3,5.3,0,0,0,4.6,2.64h72.82a5.5,5.5,0,1,0,0-11ZM98.87,133.88c-.05.2-.1.4-.17.6s-.2.58-.32.86-.17.37-.26.55l-.14.27c-.08.15-.17.3-.26.45a10,10,0,0,1-8.53,4.78H89a10,10,0,0,1,0-20h.23a9.94,9.94,0,0,1,7,2.82c.08.08.16.15.23.23a9.41,9.41,0,0,1,1.34,1.73c.09.15.18.3.26.45s.19.36.28.55l.24.55a11.41,11.41,0,0,1,.38,1.17,10.25,10.25,0,0,1,.31,2.5A9.71,9.71,0,0,1,98.87,133.88Z"/><path class="cls-3" d="M289.78,88.27a13,13,0,0,0-6.4,5.66,33.67,33.67,0,0,0-3.27,10.43l-2,10.94a73.48,73.48,0,0,0-1.28,9.82c0,2.92.88,5.1,2.62,6.48s4.44,2,8.39,2h16.44c4,0,6.81.4,8.26,1.2,1.28.7,1.9,2,1.9,4.12a67.07,67.07,0,0,1-1.37,10.76l-1,5.87a22.52,22.52,0,0,1-2.56,8A8.22,8.22,0,0,1,305,167c-2.07.69-5.62,1.05-10.55,1.05h-24.2l1.41,7.51h22.68c6.35,0,11.16-.51,14.28-1.54a14.57,14.57,0,0,0,7.64-5.61c1.8-2.6,3.15-6.35,4-11.15l1.38-7.71A84,84,0,0,0,323.15,137c0-3.86-1.29-6.71-3.83-8.47S312.56,126,306.16,126H290.41c-2.45,0-3.56-.33-4.05-.61s-.82-.6-.82-1.83a67.7,67.7,0,0,1,1.14-8.68l1.72-9.32A31.9,31.9,0,0,1,290,99.39a8.26,8.26,0,0,1,2.3-3.33,8.52,8.52,0,0,1,3.81-1.64,35.69,35.69,0,0,1,6.59-.5h25.85l3.15-7.4H302.37C296.66,86.52,292.54,87.09,289.78,88.27Z"/><path class="cls-3" d="M377.31,168.4H356a33.12,33.12,0,0,1-8.4-.76,5.09,5.09,0,0,1-3.1-2,8.05,8.05,0,0,1-.84-4,82.3,82.3,0,0,1,1.48-11l7.33-42.23h-8.12L337,150.25a88.29,88.29,0,0,0-1.62,12.94,12.8,12.8,0,0,0,1.46,6.61,9.57,9.57,0,0,0,4.23,3.73,20.94,20.94,0,0,0,6.35,1.64,69.61,69.61,0,0,0,7.7.4h29L396,108.37h-8.13Z"/><path class="cls-3" d="M456.59,111.9c-3.27-2.38-8.65-3.53-16.45-3.53H413.19l-15.53,87.56h8.13l3.56-20.36h20.21c6.2,0,11.11-.57,14.57-1.71a15.86,15.86,0,0,0,8.46-6.44c2-3.06,3.6-8,4.86-15.21l2.76-15.53a75.6,75.6,0,0,0,1.39-12.36C461.6,118.49,459.92,114.31,456.59,111.9ZM429.9,168.52H410.62l9.42-53H439c5,0,8.4.44,10.21,1.29a6.23,6.23,0,0,1,3.35,3.15,14,14,0,0,1,.85,5.14,76.88,76.88,0,0,1-1.25,11.22l-2.76,15.52a42.14,42.14,0,0,1-2.57,9.63,12,12,0,0,1-3.07,4.15,11.74,11.74,0,0,1-5,2.15A43.77,43.77,0,0,1,429.9,168.52Z"/><path class="cls-3" d="M517.42,108.51a44.41,44.41,0,0,0-10.12-.94H501c-6.46,0-11.14.54-14.31,1.66a15,15,0,0,0-7.62,5.85c-1.8,2.68-3.15,6.58-4,11.6l-4.83,27.69a41,41,0,0,0-.82,7.9,14.16,14.16,0,0,0,1.52,7.12,9.87,9.87,0,0,0,3.84,3.83,19.34,19.34,0,0,0,5.34,1.76,44.41,44.41,0,0,0,8.13.59h23.44l2.87-7.17H489.13a29.1,29.1,0,0,1-7.54-.71,5.42,5.42,0,0,1-3.13-2.06,8.06,8.06,0,0,1-1-4.4,39.22,39.22,0,0,1,.67-6.72l1.23-7h29.07c5.13,0,8.73-1,11-3s3.84-5.62,4.8-11l1.39-7.39a42,42,0,0,0,.59-6.25c0-3.38-.81-6-2.39-7.74A12.39,12.39,0,0,0,517.42,108.51Zm-17.48,6.11h6.44c4.56,0,7.74.45,9.42,1.33,1.5.78,2.23,2.28,2.23,4.58a24.34,24.34,0,0,1-.56,5.19l-1.16,6.82c-.57,3.28-1.46,5.46-2.65,6.49s-3.33,1.54-6.36,1.54H480.66L483.1,127a23.65,23.65,0,0,1,2.46-7.77,8,8,0,0,1,4.36-3.53C492,115,495.32,114.62,499.94,114.62Z"/><path class="cls-3" d="M563.53,108.37a83.29,83.29,0,0,0-9.61.52,19.36,19.36,0,0,0-7.69,2.44,14.65,14.65,0,0,0-5.38,6.09c-1.41,2.73-2.59,6.92-3.61,12.82l-8,45.33h8.12l8-44.76c.89-5.2,2-8.79,3.18-10.66a8.55,8.55,0,0,1,5-3.61,39.15,39.15,0,0,1,10.18-1h9.52l3-7.17Z"/><polygon class="cls-3" points="633.42 93.92 636.57 86.52 590.75 86.52 575.1 175.57 620.76 175.57 624.05 168.06 584.96 168.06 591.05 133.94 623.06 133.94 626.24 126.66 592.32 126.66 598.06 93.92 633.42 93.92"/><path class="cls-3" d="M687.46,108.37H667.72c-7.5,0-12.8.74-16.22,2.27a15.46,15.46,0,0,0-7.73,7.37c-1.61,3.22-2.94,7.88-3.95,13.84L637.18,147a80.33,80.33,0,0,0-1.51,12.48c0,5.68,1.76,9.84,5.24,12.37s8.81,3.69,16.46,3.69h26.37l16.57-93.76h-8.13Zm-28.94,60c-5.6,0-9.51-.73-11.63-2.18s-3-3.85-3-7.52a66.64,66.64,0,0,1,1.36-11.21l2.65-15.29c1-5.44,2.12-9.27,3.43-11.38a9.3,9.3,0,0,1,5.32-4.11,37.67,37.67,0,0,1,10.73-1.17h18.82l-9.31,52.86Z"/><path class="cls-3" d="M755.36,111.09c-3.27-2.37-8.66-3.52-16.46-3.52h-4.48c-6.21,0-11.12.57-14.58,1.71a15.51,15.51,0,0,0-8.4,6.45c-2,3-3.54,8-4.8,15.2l-1.49,8.14a66,66,0,0,0-1.52,12.39c0,5.84,1.71,10,5.08,12.43s8.67,3.52,16.39,3.52h20.2L744,174.63a29.78,29.78,0,0,1-2.65,8.72,9.25,9.25,0,0,1-4.48,4.17c-2,.9-5.31,1.35-9.82,1.35h-24l1.28,7.17h23.72c5.4,0,9.63-.62,12.58-1.86a15.49,15.49,0,0,0,7.24-6.19,32.82,32.82,0,0,0,3.94-11.52L759,135.88a77,77,0,0,0,1.39-12.36C760.37,117.69,758.69,113.51,755.36,111.09Zm-21.17,3.53h3.56a37.59,37.59,0,0,1,8.16.67,9.32,9.32,0,0,1,4,1.84,6.11,6.11,0,0,1,1.83,3,15.73,15.73,0,0,1,.54,4.22,88.44,88.44,0,0,1-1.37,11.22l-4.34,24.69h-20.2c-5,0-8.43-.43-10.28-1.28a6.13,6.13,0,0,1-3.4-3.15,13.94,13.94,0,0,1-.85-5.15,61.56,61.56,0,0,1,1.36-11.2l1.5-8.17c1-5.44,2.14-9.26,3.48-11.37a9.53,9.53,0,0,1,5.38-4.12A37.22,37.22,0,0,1,734.19,114.62Z"/><path class="cls-3" d="M823.31,112.09a12.43,12.43,0,0,0-6.43-3.58,44.51,44.51,0,0,0-10.13-.94h-6.32c-6.46,0-11.14.54-14.31,1.66a15.06,15.06,0,0,0-7.63,5.85c-1.79,2.68-3.14,6.58-4,11.6l-4.83,27.69a40.17,40.17,0,0,0-.82,7.9,14.27,14.27,0,0,0,1.51,7.12,9.89,9.89,0,0,0,3.85,3.83,19.23,19.23,0,0,0,5.34,1.76,44.36,44.36,0,0,0,8.12.59h23.45L814,168.4h-25.4a29.15,29.15,0,0,1-7.54-.71,5.45,5.45,0,0,1-3.13-2.06,8.06,8.06,0,0,1-1-4.4,39.33,39.33,0,0,1,.68-6.72l1.23-7H807.9c5.13,0,8.73-1,11-3s3.83-5.62,4.8-11l1.38-7.39a42,42,0,0,0,.59-6.25C825.69,116.45,824.89,113.85,823.31,112.09Zm-23.92,2.53h6.44c4.57,0,7.74.45,9.43,1.33,1.49.78,2.22,2.28,2.22,4.58a24.33,24.33,0,0,1-.55,5.19l-1.16,6.82c-.57,3.28-1.46,5.46-2.66,6.49s-3.32,1.54-6.36,1.54H780.12L782.55,127a23.89,23.89,0,0,1,2.46-7.77,8,8,0,0,1,4.37-3.53C791.41,115,794.78,114.62,799.39,114.62Z"/></g></g></svg>