<svg xmlns="http://www.w3.org/2000/svg" role="img" viewBox="-10.82 -10.82 1862.64 501.64"><defs><style>.cls-1{fill:#fff}</style></defs><path d="M581.729 196.023a5.837 5.837 0 011.3 3.965v82.026a5.651 5.651 0 01-1.365 3.965 4.938 4.938 0 01-3.835 1.495 5.416 5.416 0 01-4.29-2.21l-53.947-72.147v68.897a5.649 5.649 0 01-1.365 3.965 4.774 4.774 0 01-3.705 1.495 4.571 4.571 0 01-3.64-1.495 5.824 5.824 0 01-1.3-3.965v-82.026a5.655 5.655 0 011.365-3.965 4.934 4.934 0 013.835-1.495 5.542 5.542 0 014.42 2.21l53.817 72.147v-68.897a5.658 5.658 0 011.365-3.965 4.774 4.774 0 013.705-1.495 4.573 4.573 0 013.64 1.495zm75.136 77.282a4.336 4.336 0 011.04 2.99q0 3.25-4.55 5.98a39.386 39.386 0 01-9.88 4.094 39.879 39.879 0 01-10.139 1.365q-14.691 0-23.204-8.71-8.515-8.708-8.514-24.048a37.734 37.734 0 013.77-17.225 28.141 28.141 0 0110.594-11.634 29.256 29.256 0 0115.535-4.16q12.348 0 19.628 8.06 7.28 8.061 7.28 21.839a5.6 5.6 0 01-1.04 3.77 4.32 4.32 0 01-3.38 1.17h-41.858q1.17 22.36 21.19 22.358a24.834 24.834 0 008.709-1.365 56.816 56.816 0 007.8-3.704q3.378-1.95 4.55-1.95a3.204 3.204 0 012.469 1.17zm-38.543-37.959q-5.006 5.201-5.914 14.69h36.788q-.262-9.62-4.81-14.754-4.552-5.134-12.74-5.135-8.32 0-13.324 5.2zm90.281 47.968a3.742 3.742 0 01-1.625 3.315 7.63 7.63 0 01-4.875.845l-3.51-.26q-10.402-.78-15.34-6.24-4.941-5.459-4.94-16.51v-32.628h-8.709a4.98 4.98 0 01-3.445-1.105 3.725 3.725 0 01-1.234-2.924 4.09 4.09 0 011.234-3.12 4.806 4.806 0 013.445-1.17h8.71v-14.69a5.046 5.046 0 011.43-3.834 5.41 5.41 0 013.9-1.365 5.234 5.234 0 013.77 1.365 5.055 5.055 0 011.43 3.835v14.689h14.429a4.626 4.626 0 013.315 1.17 4.097 4.097 0 011.234 3.12 3.73 3.73 0 01-1.234 2.925 4.788 4.788 0 01-3.315 1.104h-14.43v33.149q0 7.15 2.926 10.335 2.924 3.186 8.774 3.574l3.51.26q4.548.39 4.55 4.16zm103.344-60.837a5.347 5.347 0 013.51 1.3 4.062 4.062 0 011.56 3.25 5.559 5.559 0 01-.39 1.95l-21.58 54.597a6.22 6.22 0 01-2.274 2.665 5.946 5.946 0 01-3.315.975 5.726 5.726 0 01-3.185-.975 6.207 6.207 0 01-2.275-2.665l-17.939-45.628-17.81 45.628a5.328 5.328 0 01-2.209 2.665 6.184 6.184 0 01-8.97-2.665l-21.579-54.467a5.303 5.303 0 01-.39-1.82 4.374 4.374 0 011.755-3.51 5.947 5.947 0 013.836-1.43 4.515 4.515 0 014.42 3.12l17.808 47.968 18.33-47.578a6.111 6.111 0 012.144-2.6 5.186 5.186 0 012.925-.91 5.397 5.397 0 013.055.91 5.325 5.325 0 012.015 2.6l18.329 47.448 17.939-47.708a4.43 4.43 0 014.29-3.12zm29.573 61.227a26.842 26.842 0 01-10.53-11.504 42.498 42.498 0 010-34.709 26.863 26.863 0 0110.53-11.504 30.49 30.49 0 0115.794-4.03 30.844 30.844 0 0115.86 4.03 26.744 26.744 0 0110.593 11.504 42.498 42.498 0 010 34.709 26.724 26.724 0 01-10.594 11.504 30.826 30.826 0 01-15.859 4.03 30.471 30.471 0 01-15.794-4.03zm30.158-10.854q5.003-6.174 5.005-18.004 0-11.569-5.07-17.875-5.07-6.303-14.299-6.304-9.232 0-14.3 6.304-5.07 6.307-5.07 17.875 0 11.699 5.005 17.938 5.003 6.24 14.365 6.24 9.359 0 14.364-6.174zm69.612-46.213a4.62 4.62 0 01-1.17 3.315 6.212 6.212 0 01-4.03 1.495l-3.9.39q-8.71.78-12.935 6.175a19.951 19.951 0 00-4.225 12.673v31.59a5.006 5.006 0 01-1.43 3.899 5.395 5.395 0 01-3.77 1.3 5.467 5.467 0 01-3.834-1.365 4.93 4.93 0 01-1.495-3.835v-54.857a4.827 4.827 0 011.56-3.835 5.524 5.524 0 013.77-1.365 4.79 4.79 0 014.945 4.628q.008.221-.005.442v7.28a19.74 19.74 0 017.734-8.71 26.177 26.177 0 0111.504-3.51l1.82-.13q5.46-.39 5.46 4.42zm63.045 56.027a4.729 4.729 0 01-1.365 3.38 4.414 4.414 0 01-3.314 1.43 5.493 5.493 0 01-3.51-1.56l-33.929-29.249v25.61a4.935 4.935 0 01-1.494 3.834 5.294 5.294 0 01-3.706 1.365 5.467 5.467 0 01-3.834-1.365 4.93 4.93 0 01-1.495-3.835v-82.546a4.932 4.932 0 011.495-3.835 5.467 5.467 0 013.834-1.365 5.294 5.294 0 013.706 1.365 4.938 4.938 0 011.494 3.835v52.778l31.069-28.47a4.785 4.785 0 018.32 3.25 5.183 5.183 0 01-1.82 3.9l-25.61 22.88 28.08 24.438a5.697 5.697 0 012.08 4.16zm61.917 2.194a38.105 38.105 0 01-14.234-7.864 5.966 5.966 0 01-1.95-4.55 5.104 5.104 0 011.04-3.185 3.041 3.041 0 012.47-1.365 6.294 6.294 0 013.64 1.43 43.81 43.81 0 0027.558 9.36q11.179 0 17.16-4.29 5.977-4.29 5.98-12.22a9.817 9.817 0 00-2.86-7.344 20.672 20.672 0 00-7.54-4.485 113.967 113.967 0 00-12.61-3.51 122.69 122.69 0 01-17.484-5.2 27.222 27.222 0 01-11.05-7.799q-4.225-5.07-4.224-13.26a23.568 23.568 0 014.225-13.844 27.344 27.344 0 0111.83-9.36 43.036 43.036 0 0117.354-3.314 50.335 50.335 0 0116.964 2.795 35.752 35.752 0 0113.194 7.994 6.345 6.345 0 012.08 4.55 5.109 5.109 0 01-1.04 3.185 3.045 3.045 0 01-2.47 1.365 7.903 7.903 0 01-3.77-1.43 44.257 44.257 0 00-11.83-7.28 36.973 36.973 0 00-13.128-2.08q-10.792 0-16.77 4.485-5.98 4.485-5.98 12.545 0 6.891 5.265 10.334 5.265 3.446 16.184 6.045 11.828 2.86 18.59 5.264a27.87 27.87 0 0111.244 7.215q4.485 4.811 4.485 12.87a22.498 22.498 0 01-4.225 13.519 27.448 27.448 0 01-11.895 9.1 44.63 44.63 0 01-17.549 3.25 59.392 59.392 0 01-18.654-2.926zm120.828-11.634a4.336 4.336 0 011.04 2.99q0 3.25-4.55 5.98a39.387 39.387 0 01-9.88 4.095 39.877 39.877 0 01-10.139 1.365q-14.691 0-23.204-8.71-8.515-8.708-8.514-24.049a37.735 37.735 0 013.77-17.224 28.14 28.14 0 0110.594-11.635 29.255 29.255 0 0115.534-4.16q12.349 0 19.629 8.06 7.28 8.061 7.28 21.84a5.6 5.6 0 01-1.04 3.77 4.32 4.32 0 01-3.38 1.169h-41.858q1.17 22.36 21.189 22.359a24.834 24.834 0 008.71-1.365 56.817 56.817 0 007.8-3.705q3.378-1.95 4.549-1.95a3.204 3.204 0 012.47 1.17zm-38.543-37.958q-5.006 5.2-5.915 14.69h36.788q-.261-9.62-4.81-14.755-4.55-5.134-12.738-5.135-8.32 0-13.325 5.2zm93.659-8.71a4.62 4.62 0 01-1.17 3.315 6.212 6.212 0 01-4.03 1.495l-3.9.39q-8.71.78-12.934 6.175a19.95 19.95 0 00-4.225 12.674v31.589a5.006 5.006 0 01-1.43 3.9 5.395 5.395 0 01-3.77 1.3 5.467 5.467 0 01-3.834-1.365 4.93 4.93 0 01-1.495-3.835v-54.858a4.827 4.827 0 011.56-3.835 5.524 5.524 0 013.77-1.364 4.79 4.79 0 014.945 4.628q.008.22-.005.441v7.28a19.74 19.74 0 017.734-8.71 26.177 26.177 0 0111.504-3.51l1.82-.13q5.46-.39 5.46 4.42zm64.476-4.289a5.347 5.347 0 013.51 1.3 4.062 4.062 0 011.56 3.25 4.123 4.123 0 01-.52 2.079l-25.348 54.597a6.074 6.074 0 01-2.34 2.666 6.263 6.263 0 01-3.38.974 6.046 6.046 0 01-3.25-.974 6.957 6.957 0 01-2.47-2.666l-25.219-54.597a3.85 3.85 0 01-.52-1.95 4.256 4.256 0 011.755-3.38 5.946 5.946 0 013.835-1.43 4.697 4.697 0 012.535.78 4.986 4.986 0 011.885 2.21l21.709 48.748 21.708-48.487a4.75 4.75 0 014.55-3.12zm18.198-15.6a6.268 6.268 0 01-1.95-4.81 6.12 6.12 0 011.95-4.68 7.973 7.973 0 0110.14 0 6.12 6.12 0 011.95 4.68 6.268 6.268 0 01-1.95 4.81 7.973 7.973 0 01-10.14 0zm1.235 79.361a4.93 4.93 0 01-1.495-3.834v-54.858a4.932 4.932 0 011.495-3.835 5.465 5.465 0 013.835-1.365 5.234 5.234 0 013.77 1.365 5.053 5.053 0 011.43 3.835v54.858a5.006 5.006 0 01-1.43 3.9 5.395 5.395 0 01-3.77 1.3 5.467 5.467 0 01-3.835-1.365zm40.428-2.405a26.925 26.925 0 01-10.53-11.44 41.236 41.236 0 01.13-34.447 28.333 28.333 0 0110.725-11.7 30.088 30.088 0 0115.86-4.16 36.235 36.235 0 019.814 1.365 27.09 27.09 0 018.515 3.965 11.568 11.568 0 013.314 3.055 5.943 5.943 0 01.975 3.315 4.511 4.511 0 01-.975 2.99 3.146 3.146 0 01-2.535 1.17 4.372 4.372 0 01-1.95-.52 12.149 12.149 0 01-1.755-1.04 9.35 9.35 0 00-.975-.65 42.002 42.002 0 00-6.434-3.51 19.127 19.127 0 00-7.475-1.3q-9.49 0-14.754 6.435-5.264 6.434-5.265 17.874 0 11.44 5.265 17.679 5.265 6.24 14.754 6.24a20.078 20.078 0 007.605-1.3 34.93 34.93 0 006.434-3.51 31.08 31.08 0 012.73-1.56 5.167 5.167 0 012.21-.65 3.015 3.015 0 012.405 1.17 4.514 4.514 0 01.975 2.99 5.39 5.39 0 01-.91 3.054 12.717 12.717 0 01-3.38 3.056 30.918 30.918 0 01-8.774 3.964 36.874 36.874 0 01-10.334 1.495 30.213 30.213 0 01-15.665-4.03zm104.578-10.399a4.336 4.336 0 011.04 2.99q0 3.25-4.55 5.98a39.386 39.386 0 01-9.879 4.095 39.877 39.877 0 01-10.14 1.365q-14.691 0-23.203-8.71-8.516-8.708-8.515-24.049a37.734 37.734 0 013.77-17.224 28.14 28.14 0 0110.594-11.635 29.255 29.255 0 0115.535-4.16q12.348 0 19.628 8.06 7.28 8.062 7.28 21.84a5.6 5.6 0 01-1.04 3.77 4.32 4.32 0 01-3.38 1.169h-41.857q1.17 22.36 21.188 22.359a24.834 24.834 0 008.71-1.365 56.817 56.817 0 007.8-3.705q3.378-1.95 4.55-1.95a3.204 3.204 0 012.47 1.17zm-38.543-37.958q-5.006 5.2-5.914 14.69h36.788q-.262-9.62-4.81-14.755-4.552-5.134-12.739-5.135-8.32 0-13.325 5.2zm172.48-39.323a5.658 5.658 0 011.365 3.964v82.287a5.39 5.39 0 01-1.3 3.77 4.672 4.672 0 01-3.64 1.43 4.27 4.27 0 01-3.51-1.43 5.763 5.763 0 01-1.17-3.77v-66.427l-28.208 54.077q-1.822 3.772-5.33 3.77-3.382 0-5.329-3.77l-28.339-53.427v65.777a5.564 5.564 0 01-1.235 3.77 4.47 4.47 0 01-3.574 1.43 4.67 4.67 0 01-3.64-1.43 5.385 5.385 0 01-1.3-3.77v-82.287a5.494 5.494 0 011.43-3.964 5.146 5.146 0 013.9-1.495q3.248 0 5.2 3.77l33.018 63.306 32.628-63.306a7.543 7.543 0 012.275-2.925 5.059 5.059 0 012.925-.845 4.938 4.938 0 013.834 1.495zm75.33 77.281a4.336 4.336 0 011.04 2.99q0 3.25-4.55 5.98a39.386 39.386 0 01-9.88 4.095 39.877 39.877 0 01-10.139 1.365q-14.691 0-23.204-8.71-8.515-8.708-8.514-24.049a37.735 37.735 0 013.77-17.224 28.14 28.14 0 0110.594-11.635 29.255 29.255 0 0115.535-4.16q12.348 0 19.628 8.06 7.28 8.062 7.28 21.84a5.6 5.6 0 01-1.04 3.77 4.32 4.32 0 01-3.38 1.169h-41.858q1.17 22.36 21.19 22.359a24.834 24.834 0 008.709-1.365 56.82 56.82 0 007.8-3.705q3.378-1.95 4.55-1.95a3.204 3.204 0 012.47 1.17zm-38.543-37.958q-5.006 5.2-5.914 14.69h36.788q-.262-9.62-4.81-14.755-4.552-5.134-12.74-5.135-8.32 0-13.324 5.2zm66.815 50.957a34.589 34.589 0 01-9.554-4.03 12.795 12.795 0 01-3.315-2.924 5.55 5.55 0 01-.975-3.315 4.07 4.07 0 01.975-2.795 3.226 3.226 0 012.535-1.105q1.56 0 4.55 1.95a43.287 43.287 0 007.734 3.705 28.765 28.765 0 009.555 1.365q7.02 0 10.92-2.47a7.959 7.959 0 003.9-7.15 7.08 7.08 0 00-1.431-4.614 11.826 11.826 0 00-4.94-3.12 70.359 70.359 0 00-10.27-2.796q-11.44-2.467-16.378-6.629a14.004 14.004 0 01-4.94-11.31 16.363 16.363 0 013.12-9.879 20.992 20.992 0 018.644-6.76 30.453 30.453 0 0112.545-2.47 35.323 35.323 0 019.814 1.365 29.24 29.24 0 018.385 3.835q4.418 3.12 4.42 6.5a4.153 4.153 0 01-1.04 2.86 3.206 3.206 0 01-2.47 1.17q-1.56 0-4.68-2.21a41.33 41.33 0 00-6.89-3.64 21.845 21.845 0 00-8.06-1.3q-6.111 0-9.814 2.73a8.599 8.599 0 00-3.705 7.28 7.31 7.31 0 001.365 4.614 11.277 11.277 0 004.55 3.12 52.946 52.946 0 009.165 2.665 65.493 65.493 0 0113.714 4.29 15.948 15.948 0 016.955 5.72 16.15 16.15 0 012.08 8.579 15.559 15.559 0 01-6.89 13.194q-6.892 5.006-18.2 5.005a44.232 44.232 0 01-11.373-1.43zm102.63-58.042q5.72 6.307 5.72 18.784v35.229a5.053 5.053 0 01-1.43 3.834 5.237 5.237 0 01-3.77 1.365 5.414 5.414 0 01-3.9-1.364 5.044 5.044 0 01-1.43-3.835v-34.969q0-8.448-3.444-12.48-3.446-4.027-10.985-4.029-8.71 0-13.909 5.33-5.2 5.332-5.2 14.429v31.719a4.744 4.744 0 01-5.2 5.2 5.414 5.414 0 01-3.9-1.365 5.044 5.044 0 01-1.43-3.835v-82.677a4.82 4.82 0 011.495-3.639 5.321 5.321 0 013.835-1.43 5.187 5.187 0 013.835 1.365 5.006 5.006 0 011.365 3.704v34.06a21.1 21.1 0 018.71-8.71 26.593 26.593 0 0112.74-2.99q11.178 0 16.898 6.304zM463.264 241.638a13.013 13.013 0 00-4.447-8.527 10.451 10.451 0 00-4.24-2.643c-.158-.36-.347-.712-.47-1.084q-2.913-8.928-5.812-17.86c-.843-2.653-1.678-5.309-2.53-7.959q-7.136-22.18-14.283-44.357c-1.528-4.733-3.108-9.449-4.664-14.172-.177-.54-.36-1.077-.532-1.618q-2.295-7.247-4.593-14.494c-.296-.929-1.035-1.8-.245-2.816a10.1 10.1 0 001.205-4.8 14.178 14.178 0 00-10.749-15.128 12 12 0 00-5.32-.409c-1.787.666-3.1-.148-4.49-1.205-2.991-2.274-6.1-4.393-9.16-6.575-.177-.154-.343-.323-.532-.46q-20.363-14.712-40.732-29.417-9.355-6.749-18.737-13.46c-1.659-1.22-3.258-2.532-4.993-3.631-1.493-.946-2.56-2.011-2.466-3.904a1.96 1.96 0 00-.226-.664 1.136 1.136 0 01-.163-.294c-1.457-7.172-11.198-12.074-18.79-6.94a5.494 5.494 0 00-1.87 1.45 1.82 1.82 0 01-1.872.582c-1.929-.254-3.874-.385-5.812-.566a.746.746 0 00-.343-.102 2.667 2.667 0 00-.88-.083l-.937-.055a.745.745 0 00-.344-.102 2.636 2.636 0 00-.878-.082l-.938-.055a.742.742 0 00-.344-.103 2.612 2.612 0 00-.877-.082l-.725-.036c-2.685-.324-5.37-.666-8.057-.968q-11.342-1.276-22.686-2.524-8.017-.883-16.037-1.738c-3.489-.252-6.972-.647-10.432-1.09-3.66-.467-7.334-.819-10.991-1.304a2.135 2.135 0 01-1.598-.818 9.613 9.613 0 00-3.62-3.523 11.626 11.626 0 00-6.692-2.463.274.274 0 01-.02-.216h-2.398c-.094.331-.377.207-.59.241a13.522 13.522 0 00-9.49 5.749 7.044 7.044 0 00-1.396 2.32 2.494 2.494 0 01-1.38 1.487c-1.168.546-2.303 1.163-3.452 1.75-.183.07-.374.124-.549.21Q165.8 49.55 140.516 62.006c-3.529 1.74-7.046 3.502-10.568 5.254a439.148 439.148 0 00-14.68 7.23 42.924 42.924 0 00-4.469 2.099c-1.428.868-2.703 1.387-4.116.105-.038-.035-.15.011-.227.02a9.278 9.278 0 00-1.437-.741 13.624 13.624 0 00-17.13 18.022c.252.539.525 1.069.752 1.618.362.874 1.26 1.422 1.441 2.4a2.914 2.914 0 00-.32.342q-11.82 17.344-23.632 34.694-5.717 8.402-11.41 16.821c-1.278 1.85-2.566 3.693-3.831 5.551q-4.144 6.084-8.27 12.18c-.981 1.421-1.986 2.828-2.934 4.272a1.73 1.73 0 01-1.413.845 13.64 13.64 0 00-12.05 10.768c-.073.304.076.75-.373.92v3.838c.467.355.35.92.484 1.389a13.311 13.311 0 008.127 9.252c.635.275.46.842.462 1.33q.048 11.285.084 22.57c-.014.159-.039.318-.039.476q.017 25.876.037 51.753c0 .2.008.399.012.598.115 5.188.09 10.376.01 15.564a13.737 13.737 0 00-8.85 10.176c-.105.443.1.969-.327 1.331v3.119c.266.057.226.281.257.467a13.62 13.62 0 0014.095 11.4c.464-.033.63.232.84.52 1.01 1.387 2 2.79 3.042 4.154 1.778 2.33 3.301 4.85 5.237 7.063a4.664 4.664 0 00.284.512q6.032 8.317 12.076 16.626c2.25 3.079 4.552 6.121 6.83 9.18.972 1.36 1.928 2.733 2.917 4.081q4.42 6.019 8.86 12.021c.02.116.004.259.066.343 3.482 4.73 6.952 9.47 10.47 14.174 1.048 1.403 2.217 2.71 1.256 4.63-.458.51-.239 1.144-.284 1.718a14.416 14.416 0 0018.743 15.007c1.531-.924 2.896-.413 4.274.422a26.249 26.249 0 002.86 1.446c1.957.88 3.768 2.067 5.813 2.762.305.177.602.372.918.528q19.64 9.707 39.284 19.405 8.451 4.171 16.913 8.321a130.375 130.375 0 009.352 4.596 3.912 3.912 0 012.066 2.114 5.925 5.925 0 00.734 1.045 15.892 15.892 0 0011.816 6.958.24.24 0 01.017.213h2.879c.12-.402.456-.205.698-.24a14.53 14.53 0 006.738-2.455 3.51 3.51 0 001.456-.934c.83-.724 1.642-1.415 2.851-1.21h.007c.438.014.876.039 1.315.039 17.813.002 35.628-.043 53.441.041a22.605 22.605 0 009.655-1.66c1.11-.5 2.298-.825 3.45-1.232l14.43-5.09c.305-.08.617-.139.914-.243q11.121-3.896 22.237-7.804c.68-.24 1.34-.528 2.025-.035a14.878 14.878 0 0014.313-.166 14.45 14.45 0 007.79-10.658c.07-1.698 1.068-2.664 2.408-3.62 9.864-7.044 19.67-14.167 29.487-21.276 3.87-2.803 7.723-5.63 11.584-8.447a129.546 129.546 0 015.882-4.19c2.407-1.63 4.723-3.394 7.078-5.099.408-.295.792-.705 1.353-.293a12.417 12.417 0 007.652 1.67 13.082 13.082 0 0011.47-8.329c2.116-5.006 1.311-9.764-2.132-13.994-.32-.392-.136-.628-.163-.94a2.666 2.666 0 00.205-.416q2.293-7.726 4.577-15.455c.611-1.93 1.247-3.854 1.828-5.794q4.265-14.236 8.506-28.48c2.031-6.211 3.85-12.487 5.69-18.757.888-2.983 1.766-5.968 2.666-8.948q3.689-12.202 7.392-24.4a1.693 1.693 0 011.244-1.652 7.945 7.945 0 003.198-2.158 12.818 12.818 0 004.275-7.043c.12-.466-.003-1.026.468-1.376v-3.119c-.065-.035-.182-.064-.188-.107zm-64.095 128.504a2.026 2.026 0 01-1.045 2.27c-1.807 1.162-3.534 2.444-5.271 3.705a32.379 32.379 0 00-4.952 3.698c-.056.129-.137.241-.203.363q-7.937 5.353-15.665 11.004l-9.68 6.782q-8.302 5.845-16.6 11.695c-.33.23-.634.779-1.19.195-.625-.658-1.344-1.228-2.022-1.836l4.09-7.891q2.563-4.48 4.79-9.135c1.443-2.34 2.577-4.842 3.814-7.29 1.596-2.495 2.699-5.25 4.127-7.834.904-1.674 1.825-3.34 2.707-5.025 1.422-2.72 2.818-5.452 4.224-8.18q3.991-7.237 7.678-14.634a3.96 3.96 0 00.262-.383c1.568-2.97 3.11-5.951 4.573-8.977 1.47-3.04 3.158-5.973 4.751-8.953l1.493-2.674c1.543-2.753 2.801-5.66 4.509-8.325a2.955 2.955 0 001.44.512 6.482 6.482 0 002.399.677 2.094 2.094 0 012.434 2.226c.006.103.11.199.169.298a62.544 62.544 0 001.917 6.723 30.357 30.357 0 001.258 4.477 33.028 33.028 0 001.393 4.852 62.376 62.376 0 001.918 6.726 36.65 36.65 0 001.431 5.054c.56 2.048 1.133 4.092 1.671 6.146a2.59 2.59 0 01.21.83c-.053.066-.102.136-.156.202a1.386 1.386 0 00-.206.272c-.013.025-.03.047-.044.071a12.218 12.218 0 00-5.173 6.754c-.097.085-.184.18-.287.26a8.998 8.998 0 00-.764 5.345zm-278.623 26.25a.567.567 0 00.024-.067 14.568 14.568 0 00-8.852-15.913c-.365-.15-.916-.115-.965-.716a25.033 25.033 0 00.763-4.278 54.642 54.642 0 001.188-6.504.985.985 0 00.102-.461 34.667 34.667 0 00.857-4.819 21.12 21.12 0 00.736-4.05 35.233 35.233 0 00.958-5.266.758.758 0 00.053-.461c.21-1 1.013-1.433 1.995-1.727a6.263 6.263 0 001.05-.537c.513-.045.885-.78 1.56-.083 3.195 3.3 6.445 6.546 9.69 9.796 2.792 2.796 5.603 5.572 8.405 8.357 2.51 2.74 5.157 5.346 7.852 7.904 2.09 2.169 4.048 4.469 6.31 6.472l7.68 7.67 11.269 11.296c3.152 3.25 6.285 6.52 9.576 9.634l8.915 9.037a3.909 3.909 0 00.943 1.026 39.03 39.03 0 014.076 4.248 15.336 15.336 0 00-3.665 5.445 3.96 3.96 0 01-1.625-.2c-.12-.01-.24-.02-.359-.028a8.96 8.96 0 00-.656-.368q-25.517-12.625-51.04-25.24c-3.828-1.891-7.67-3.757-11.508-5.632-.173-.162-.359-.307-.526-.476a21.14 21.14 0 00-3.648-1.914 1.51 1.51 0 01-1.067-1.81 1.221 1.221 0 00-.09-.335zm293.747-48.927c-.225.186-.45.465-.671.005a1.444 1.444 0 00-.142-.064l-1.913-8.021-1.44-6.001-1.873-7.669c-.228-1.802-.866-3.508-1.236-5.277a12.873 12.873 0 00-.376-1.614 3.113 3.113 0 01.747-3.507 14.412 14.412 0 003.705-11.2 3.975 3.975 0 00-.066-.987.99.99 0 00-.112-.462l-.033-.46c-.224-1.113.938-1.534 1.2-2.405.21-.235.416-.472.629-.705a77.05 77.05 0 005.609-6.732 70.253 70.253 0 005.255-6.248c.397-.474.776-.964 1.193-1.419a101.83 101.83 0 006.243-7.454c1.952-2.063 3.726-4.275 5.5-6.488l3.611-4.314c.535-.43.563-1.394 1.49-1.41a3.995 3.995 0 01-.426 1.685 25.824 25.824 0 00-1.251 4.045c-.02.034-.055.066-.06.103l-.006.038a2.787 2.787 0 00-.181.385q-5.753 17.203-11.498 34.408-4.614 13.83-9.21 27.667c-.849 2.361-1.715 4.718-2.35 7.15q-1.303 3.392-2.292 6.888c-.016.02-.03.043-.046.063zM71.728 315.078a.83.83 0 00-.755.01 12.377 12.377 0 00-5.577-2.7l-.06-.142a1.34 1.34 0 00-.53-.468 274.866 274.866 0 01-6.412-3.094.738.738 0 00-.777-.042l-.01-.028a6.32 6.32 0 00-2.358-1.388 2.481 2.481 0 01-1.753-2.842 12.91 12.91 0 00-5.14-11.292 1.33 1.33 0 01-.507-1.56c.475-1.773.903-3.559 1.345-5.34a3.048 3.048 0 00.109-1.535c.271-.086.348-.359.416-.602.463-1.673.87-3.36 1.269-5.05a.985.985 0 00-.17-.994.545.545 0 00.515-.485 47.97 47.97 0 001.663-7.276.903.903 0 00.318-.573c.461-1.678.873-3.37 1.272-5.064a.986.986 0 00-.173-1.003l-.017-.118c.718.081.623-.628.725-1.017.688-2.613 1.332-5.239 1.98-7.862.112-.448.32-.926-.084-1.352.569-.21.61-.778.733-1.255 1.104-4.334 2.172-8.677 3.26-13.015a3.408 3.408 0 00.132-1.303c-.033-.224-.038-.447-.06-.671.175-.61.351-1.22.517-1.832.986-3.637 1.7-7.345 2.847-10.94l2.938 8.139c.23.715.443 1.436.694 2.144q2.045 5.77 4.105 11.534l4.115 11.755 4.794 13.664c.078.266.144.537.236.799q5.233 14.877 10.474 29.752c1.327 3.76 2.683 7.51 4.027 11.263a3.26 3.26 0 00-.182.29 3.366 3.366 0 00.324 1.259c1.18 3.53 2.538 6.999 3.62 10.563a.505.505 0 00-.509.273 2.442 2.442 0 01-2.773 1.336c-.04-.07-.084-.136-.123-.206a34.769 34.769 0 00-4.795-2.39c-.642-.266-1.206-.81-1.99-.665-.01.012-.01.024-.019.037a5.488 5.488 0 00-3.547-1.736c-.01.024-.005.045-.014.069a3.878 3.878 0 00-2.847-1.457l-.07-.138a30.928 30.928 0 00-4.568-2.287.333.333 0 00-.296.021l-.019-.042a51.165 51.165 0 00-6.293-3.144zM123.08 81.073c.112-.128.229-.254.344-.38.431-.208.862-.415 1.29-.63 2.072-1.044 4.254-1.869 6.227-3.11a34.72 34.72 0 005.272-2.456c.446.113.745-.215 1.091-.38q15.136-7.232 30.265-14.478c5.27-2.527 10.524-5.084 15.785-7.628l5.424-2.666c2.19-1.036 4.4-2.034 6.563-3.124.915-.46 1.549-.554 1.854.614.015.055.12.087.182.129l.678 1.153a44.446 44.446 0 00-2.342 4.83 51.303 51.303 0 00-2.65 5.502 75.234 75.234 0 00-3.36 6.958 67.485 67.485 0 00-3.13 6.443 76.623 76.623 0 00-3.359 6.956 43.263 43.263 0 00-2.376 4.849 46.81 46.81 0 00-2.408 5.016c-.369.7-.769 1.385-1.096 2.104a1.132 1.132 0 01-1.087.753 13.399 13.399 0 00-9.737 4.923 1.134 1.134 0 01-1.418.407c-1.137-.356-2.3-.624-3.453-.929l-6.958-1.928c-2.698-.807-5.392-1.626-8.145-2.229a64.662 64.662 0 00-6.73-1.88c-.55-.122-1.082-.312-1.619-.474a38.135 38.135 0 00-5.573-1.48 42.92 42.92 0 00-5.515-1.604l-6.89-1.909a.672.672 0 00-.034-.137c-.449-.47-1.143-.448-1.686-.786 1.518-.917 3.174-1.449 4.59-2.429zm315.2 154.558a13.302 13.302 0 00-.239 14.671 2.02 2.02 0 00.664 1.503c.547.537.477.956-.03 1.5a3.705 3.705 0 00-1.212 1.854.648.648 0 00-.538.172c-1.441 1.272-2.58 2.826-3.906 4.206a.369.369 0 00-.04.433c-.366-.164-.576.231-.813.464-1.723 1.694-3.233 3.587-4.964 5.274a1.858 1.858 0 00-.663 1.219 4.48 4.48 0 00-1.877 1.617 7.195 7.195 0 00-2.01 2.673v.013a.418.418 0 00-.506.122 54.87 54.87 0 00-4.023 4.395.575.575 0 00-.049.465v.092c-.456-.211-.72.241-.984.497-1.636 1.584-3.127 3.31-4.643 5.005-.599.669-1.417 1.21-1.686 2.146a.873.873 0 00-.762.434c-.854 1.111-1.947 2.006-2.816 3.09a9.01 9.01 0 00-1.768 2.279c-.723.131-1.062.768-1.455 1.282-.293.384-.517.31-.776.142.006-.003.008-.008.014-.011a1.378 1.378 0 00.572-1.126c.203-2.09.314-4.189.52-6.28a1.62 1.62 0 00-.165-1.017 1.787 1.787 0 01.178-.222 23.17 23.17 0 00.479-4.911 4.05 4.05 0 01.119-1.568 5.743 5.743 0 00.1-1.166 4.138 4.138 0 01.137-1.496 5.491 5.491 0 00.098-1.132 3.767 3.767 0 01.133-1.29 1.164 1.164 0 00-.139-.907c-.035-.006-.057-.001-.09-.005.078-.548.18-1.094.232-1.645q1.05-11.242 2.087-22.486.755-8.206 1.487-16.415l.054-1.164a3.108 3.108 0 00.185-1.46l1.429-15.363 1.22-13.439.04-.7.001-.003a3.037 3.037 0 00.184-1.443l.061-1.178v-.001a3.157 3.157 0 00.186-1.461c.16-1.487.322-2.974.51-4.706l1.678 2.336q2.964 4.908 6.228 9.623 2.494 4.17 5.276 8.155c1.963 3.253 4.039 6.433 6.179 9.572 1.614 2.642 3.278 5.25 5.044 7.794l.005.054a2.965 2.965 0 00.563 1.426c.776 1.25 1.541 2.508 2.403 3.699a1.127 1.127 0 01-.19 1.81 4.004 4.004 0 00-1.722 2.578zm-306.158 77.351c.027.025.046.055.073.08.417-.073.577-.42.713-.74.547-1.282 1.199-2.517 1.719-3.81a1.495 1.495 0 00.186-.878h.009a10.514 10.514 0 002.049-4.06 2.317 2.317 0 00.358.618q7.472 9.675 14.894 19.388a3.387 3.387 0 00.917.938 42.6 42.6 0 00-4.307.47.932.932 0 00-.69.42.894.894 0 00-.356-.143 19.32 19.32 0 00-4.759.656.642.642 0 00-.093.237 4.001 4.001 0 00-3.668.468 1.317 1.317 0 00-.357-.184 27.922 27.922 0 00-4.469.443.657.657 0 00-.458.222 1.76 1.76 0 00-.34-.038c-1.668.219-3.383.13-4.986.772a.89.89 0 00.042.256c-.042-.002-.08-.009-.124-.01a1.256 1.256 0 00-1.82.204l-.025-.033c-1.214-.287-1.214-.287-.681-1.513a2.594 2.594 0 00.368-1.248c.307-.107.44-.398.582-.664a16.398 16.398 0 001.55-3.872l-.002-.014a.677.677 0 00.418-.348 16.675 16.675 0 001.743-3.97l-.085-.138a4.77 4.77 0 001.61-3.48c-.002-.01-.008-.019-.011-.029zm28.892 21.725l5.91 7.545c2.45 3.355 4.965 6.662 7.594 9.88 1.436 2.084 2.991 4.076 4.618 6.012q2.065 2.754 4.128 5.509a.934.934 0 00.841.335q3.4.03 6.798.073l4.742.068c4.335.239 8.674.234 13.014.226 4.368.281 8.743.224 13.117.25a15.909 15.909 0 001.693.094c2.262.103 4.526.102 6.79.1l-1.98 4.315-2.29 4.826-1.939 4.078a42.642 42.642 0 00-2.173 4.553l-2.208 4.55-2.595 5.529-1.742 3.58-1.836 3.866-2.161 4.552a43.98 43.98 0 00-2.178 4.555 38.117 38.117 0 00-2.16 4.56 16.329 16.329 0 00-1.403 2.889 29.42 29.42 0 00-1.553 3.24c-.601.238-.908-.214-1.27-.546a5.242 5.242 0 00-1.476-1.199 1.238 1.238 0 00-.326-.59c-1.894-2.357-4.163-4.353-6.268-6.506-.237-.242-.482-.555-.911-.407l-.031-.003c.224-.495-.232-.762-.503-1.038q-3.095-3.15-6.24-6.251a2.318 2.318 0 00-.842-.565.712.712 0 00-.173-.401 37.758 37.758 0 00-4.28-4.163c-.037-.01-.072-.026-.109-.038a5.174 5.174 0 00-2.936-2.896c-.026-.002-.05-.008-.076-.01a5.116 5.116 0 00-2.998-3.067 9.61 9.61 0 00-3.598-3.784c-.033-.002-.062-.012-.094-.016l-2.906-2.957c-1.311-1.72-3.182-2.883-4.538-4.559-2.26-2.51-4.646-4.898-7.102-7.215-.281-.33-.542-.678-.847-.984q-3.576-3.585-7.165-7.156a4.821 4.821 0 00-.412-.554c-6.9-7.003-13.774-14.03-20.734-20.974-1.238-1.235-2.173-2.341-1.389-4.146l.068-.434.45-.048 4.314-.515 2.637-.461 2.172-.27c2.081-.27 4.172-.47 6.227-.917a30.469 30.469 0 004.8-.703 30.54 30.54 0 004.317-.544l5.037-.714 4.175-.554zm173.3 66.207a15.706 15.706 0 00-1.88 3.162 2.304 2.304 0 01-1.593 1.266 2.433 2.433 0 01-3.043-.835 1.125 1.125 0 00-.685-.447h-.006a31.174 31.174 0 00-3.255-4.226 57.45 57.45 0 00-3.777-4.824 23.96 23.96 0 00-2.44-3.1 18.028 18.028 0 00-2.485-3.092 29.295 29.295 0 00-2.92-3.829l-3.047-3.853a44.282 44.282 0 00-3.412-4.317 25.156 25.156 0 00-2.602-3.355 18.99 18.99 0 00-2.095-2.661 21.762 21.762 0 00-2.235-2.856c-.259-.7-1.089-1.058-1.128-1.888.535-.004.688-.48.95-.798q2.927-3.553 5.83-7.125c1.886-2.124 3.709-4.299 5.402-6.58a8.394 8.394 0 001.498-1.668q4.703-5.708 9.389-11.431l5.76-6.858q5.365-6.416 10.72-12.84c-1.286-.58-2.563.047-3.845.033a18.582 18.582 0 00-3.359.227l-4.561.282-3.6.239-5.99.43a20.62 20.62 0 00-3.6.24 15.736 15.736 0 00-3.359.24 13.417 13.417 0 00-3.36.24 45.159 45.159 0 00-5.035.277l-6.239.45-4.567.277-5.75.436a46.876 46.876 0 00-5.05.29c-.22.015-.441.038-.662.058a1.861 1.861 0 00-.39.034 20.593 20.593 0 01-4.044.18c-2.59-.26-3.828.866-4.219 3.266l-.036.234a9.524 9.524 0 01-.843 1.412c-.776.915-.503 1.606.344 2.24a11.413 11.413 0 001.686 2.147 9.568 9.568 0 001.687 2.15 17.102 17.102 0 002.124 2.694l1.965 2.557 1.365 1.704a9.767 9.767 0 001.502 1.918 12.873 12.873 0 001.687 2.148 18.83 18.83 0 002.133 2.705l1.959 2.542a25.237 25.237 0 002.363 2.96 8.511 8.511 0 001.458 1.874 18.056 18.056 0 002.086 2.652 23.16 23.16 0 002.464 3.134 11.562 11.562 0 001.681 2.155l1.967 2.585c-.06.246-.246.27-.456.266-3.263-.06-6.526-.127-9.79-.17a6.558 6.558 0 00-2.798.155l4.838 6.045a19.453 19.453 0 002.176 2.835 16.675 16.675 0 002.134 2.686 24.986 24.986 0 002.63 3.382 46.542 46.542 0 003.33 4.268 48.283 48.283 0 003.4 4.352l2.909 3.763 2.356 2.972a22.448 22.448 0 002.384 3.066q1.83 2.592 3.9 4.997 1.604 2.29 3.426 4.41a.896.896 0 00-.006.277 1.849 1.849 0 00.18.438c.656 1.163.656 1.162-.658 1.35-1.997.288-4.017.403-5.996.809a6.157 6.157 0 00-.781.34c-4.333.464-8.667.913-12.976 1.57-1.863.218-3.726.43-5.588.653q-11.598 1.385-23.196 2.775-12.49 1.496-24.978 2.998c-3.048.37-6.09.784-9.135 1.179-1.617.165-3.238.304-4.852.502-2.754.337-5.506.704-8.258 1.062-.214-.051-.428-.099-.641-.158a28.279 28.279 0 00-4.343.365c-.488.04-1.053.262-1.291-.442-.009-.025-.026-.037-.035-.06.678-1.052.797-2.367 1.54-3.388a17.877 17.877 0 001.408-3.076 47.493 47.493 0 002.37-5.104 31.599 31.599 0 001.904-4.098 46.589 46.589 0 002.202-4.772 28.954 28.954 0 001.892-4.085 22.772 22.772 0 001.674-3.597 58.674 58.674 0 002.657-5.755 36.897 36.897 0 002.131-4.582 45.25 45.25 0 001.96-4.236 35.398 35.398 0 002.134-4.621 41.808 41.808 0 002.221-4.778q1.29-2.653 2.582-5.305l12.7.193 14.403.25 14.87.333c.284-.397-.142-.55-.298-.752-.89-1.152-1.81-2.279-2.72-3.415l-2.035-2.599-1.683-2.156a15.83 15.83 0 00-1.888-2.412 29.557 29.557 0 00-2.226-2.863l-2.43-3.125a17.537 17.537 0 00-2.341-2.878 9.9 9.9 0 00-1.829-2.43 18.114 18.114 0 00-2.268-2.85 21.685 21.685 0 00-2.581-3.367c-.789-1.49-1.724-2.662-3.653-1.69a.224.224 0 01-.117.016c-2.133-.22-2.993 1.075-3.425 2.88l-2.016 4.285-1.565 3.392-1.44 3.12-1.537 3.33-1.914 4.082a25.596 25.596 0 00-1.564 3.384l-1.442 3.118-1.006 2.149c-3.268-.063-6.536-.111-9.803-.207-.517-.015-1.12.226-1.56-.284l.809-1.882a25.39 25.39 0 001.741-3.595l1.374-2.89 1.708-3.6a12.224 12.224 0 00.922-1.928c.483-.456.409-1.154.732-1.68l.73-1.401a1.57 1.57 0 00.47-.98l.706-1.468a7.7 7.7 0 001.003-2.084 16.016 16.016 0 001.403-2.94 21.25 21.25 0 001.47-3.111 9.797 9.797 0 001.165-2.414c1.037-1.724 1.038-1.724-.404-2.928-.179-.149-.368-.285-.552-.428l-2.246-2.633a14.946 14.946 0 01-1.837-3.74c-.25-1.013-.772-1.171-1.709-1.022-2.754.437-5.527.754-8.281 1.194-2.333.372-4.693.562-7.008 1.048a1.51 1.51 0 00-.54.105 57.337 57.337 0 00-6.75.948h-.003a44.754 44.754 0 00-5.225.737 33.462 33.462 0 00-5.05.714 31.559 31.559 0 00-5.06.714h-.002a32.537 32.537 0 00-5.051.709 16.666 16.666 0 00-3.556.501 3.468 3.468 0 00-1.678.24c-.403.053-.857-.18-1.196.219a6.453 6.453 0 00-2.387.276 12.258 12.258 0 00-2.401.27l-3.5.563a1.68 1.68 0 00-.626.1 13.134 13.134 0 00-3.319.468 35.166 35.166 0 00-4.808.657 1.375 1.375 0 00-.478.086 21.004 21.004 0 00-3.823.515 15.689 15.689 0 00-3.118.455l-3.018.32c-2.44-3.176-4.721-6.182-7.05-9.149-.447-.569-.374-.802.269-.978l.681-.085 1.93-.253 3.598-.472a38.356 38.356 0 004.55-.656 30.816 30.816 0 004.32-.532l3.842-.499 3.113-.44a4.352 4.352 0 001.68-.233c.492.007 1.005.141 1.439-.226a10.981 10.981 0 002.646-.281l5.501-.73 3.364-.46a2.476 2.476 0 001.442-.218c.49-.002 1 .135 1.443-.204.645-.05 1.323.14 1.917-.267a11.239 11.239 0 002.63-.285l3.615-.48a40.377 40.377 0 004.792-.674 35.116 35.116 0 004.33-.533c2.083-.251 4.178-.423 6.233-.88 2.175-.106 4.314-.506 6.466-.804l7.2-.938 5.288-.725c1.02-.127 2.048-.207 3.056-.396.773-.144 1.099-.987.605-1.43a10.79 10.79 0 00-1.06-.752 9.423 9.423 0 00-1.893-1.454l-1.61-1.223a14.213 14.213 0 00-2.45-1.902 41.732 41.732 0 00-4.066-3.125c-2.098-1.77-4.287-3.422-6.515-5.023-3.611-2.806-7.213-5.624-10.836-8.413-3.246-2.5-6.517-4.967-9.777-7.448a78.43 78.43 0 00-6.49-4.968 32.697 32.697 0 00-4.084-3.124c-1.05-.627-1.748-1.698-2.853-2.254a3.43 3.43 0 00-1.208-.932 11.194 11.194 0 00-2.16-1.673l-2.65-2.057-1.918-1.473-3.12-2.4a29.259 29.259 0 00-3.32-2.543 17.77 17.77 0 00-3.4-2.52 17.402 17.402 0 00-2.879-2.34c-.311-.262-.532-.65-1.083-.414-.74.317-1.522.54-2.285.804l-2.145.259h-1.44c-.549.006-1.096-.52-1.647-.007a8.207 8.207 0 00-1.031 2.136l-.897 1.937-1.874 3.854-2.934 6.22-1.388 2.882-.815 1.667a4.395 4.395 0 00-.754 1.66 21.682 21.682 0 00-1.6 3.387 31.39 31.39 0 00-1.863 3.844l-2.18 4.563-1.934 4.075-1.921 4.072-1.052 2.138-1.878 3.838c-1.834-2.345-3.657-4.7-5.518-7.022-.211-.264-.27-.954-.926-.59l-1.423 3.32-2.376 5.046-1.915 4.082a48.341 48.341 0 00-2.153 4.56l-2.256 4.771-1.87 4.091c-.371 1.05-.971 1.157-1.953.663a8.752 8.752 0 00-3.338-.852 9.004 9.004 0 00-3.609-.065c-1.098.238-1.655-.316-1.866-1.316a38.817 38.817 0 00-1.75-5.15 2.012 2.012 0 00-.274-1.144q-5.54-15.892-11.108-31.774c-1.539-4.388-3.108-8.765-4.664-13.146-1-3.245-2.11-6.452-3.358-9.61-1.07-3.223-2.072-6.47-3.349-9.62-.737-1.903-1.173-3.911-1.996-5.784.024-.166.041-.333.072-.5a49.8 49.8 0 00-1.725-5.352c-.12-.342-.256-.787-.7-.795l.004-.005a.853.853 0 00.077-.693 48.73 48.73 0 00-1.985-5.752.495.495 0 00-.253-.261 2.423 2.423 0 00-.127-1.05c-.764-2.104-1.477-4.226-2.198-6.344a1.208 1.208 0 00-.538-.775 3.574 3.574 0 00-.241-1.346c-.41-1.205-.76-2.434-1.267-3.604-.341-.785-.17-1.25.674-1.549a2.837 2.837 0 001.676-1.078.471.471 0 00.463-.015 4.994 4.994 0 012.94-.995 23.89 23.89 0 004.132 1.923 33.798 33.798 0 004.565 2.11 36.247 36.247 0 004.585 2.147 38.016 38.016 0 004.743 2.186 21.442 21.442 0 003.622 1.692 14.85 14.85 0 003.094 1.427 16.14 16.14 0 003.09 1.452 31.37 31.37 0 004.135 1.92 29.661 29.661 0 004.081 1.892 27.892 27.892 0 004.107 1.908c.594.305 1.198.593 1.78.919 1.088.608 2.387.82 3.3 1.755l-2.877 11.722-2.417 9.843-1.911 7.677q-1.102 4.35-2.208 8.7a1.064 1.064 0 00.32.97q2.111 2.723 4.218 5.448c1.262 1.606 2.366 3.334 3.762 4.835q2.069 2.96 4.391 5.725l3.865 5.247c.773-.178.675-.927.944-1.436l1.214-2.617a21.408 21.408 0 001.692-3.595 10.944 10.944 0 001.21-2.569 32.6 32.6 0 001.957-4.131 11.417 11.417 0 001.128-2.437 22.806 22.806 0 001.685-3.582 43.768 43.768 0 002.428-5.205 49.819 49.819 0 002.635-5.585 35.56 35.56 0 002.137-4.559c1.083-2.25 2.159-4.503 3.255-6.747a.891.891 0 00-.143-1.076 12.68 12.68 0 01-2.418-4.878.937.937 0 00-.925-.775 17.008 17.008 0 00-2.893-1.37l-3.119-1.444a22.877 22.877 0 00-3.333-1.54 10.795 10.795 0 00-2.422-1.117 4.468 4.468 0 00-1.668-.767 12.024 12.024 0 00-2.626-1.233l-2.187-1.06a8.979 8.979 0 00-2.4-1.004 7.623 7.623 0 00-1.917-.965 2.766 2.766 0 00-1.161-.54 1.361 1.361 0 01-.06-.465q.998-4.153 2.02-8.3a.5.5 0 01.422-.368l1.408.565a15.652 15.652 0 003.08 1.43 6.907 6.907 0 001.99.93 16.319 16.319 0 003.11 1.441 7.616 7.616 0 002.137.998 4.113 4.113 0 001.47.68l3.085 1.49a7.662 7.662 0 002.16.948l1.691.89.936.345a1.912 1.912 0 00.952.428c1.435.827 1.436.828 2.359-.525.109-.16.198-.333.297-.5a27.35 27.35 0 012.902-2.812 15.737 15.737 0 014.315-1.969c.578-.125.6-.57.653-1 .154-1.264.291-2.53.436-3.796l1.506-13.16.714-5.996.503-4.563.301-2.641a16.033 16.033 0 00.383-2.87l.064-.953a2.237 2.237 0 00.19-1.208l.066-.97a46.505 46.505 0 00.64-5.026 46.927 46.927 0 00.545-5.048 18.759 18.759 0 00.444-3.595l.45-3.594.51-4.565.451-3.602a46.06 46.06 0 00.544-5.036 49.858 49.858 0 00.668-5.276l.48-4.078a11.735 11.735 0 00.26-2.88c3.09-1.673 6.36-2.967 9.524-4.484.181-.087.29.02.365.176l-.274 3.095a19.538 19.538 0 00-.48 4.074 19.46 19.46 0 00-.48 4.077 2.123 2.123 0 00-.189 1.21l-.027.485a7.53 7.53 0 00-.263 2.386 19.454 19.454 0 00-.48 4.078 5.408 5.408 0 00-.253 2.131 20.805 20.805 0 00-.482 4.115 37.439 37.439 0 00-.674 5.524 22.767 22.767 0 00-.512 4.558l-.432 2.64-.046 1.429a5.406 5.406 0 00-.252 2.13 20.45 20.45 0 00-.481 4.076 44.233 44.233 0 00-.707 6.024 2.058 2.058 0 00-.189 1.208l-.013.247a10.197 10.197 0 00-.28 2.618 2.049 2.049 0 00-.19 1.215l-.038.727c-.458.67-.171 1.427-.25 2.142-.061.06-.081.112-.068.155a2.298 2.298 0 00-.122 1.053l-.062.928a43.918 43.918 0 00-.707 6.027 79.757 79.757 0 00-.96 8.157c-.496 2.499-.6 5.048-.982 7.56-.134.883.125 1.37.967 1.578l2.41 1.945.953.975c.307.723.78.322 1.216.18l.968-.275a5.723 5.723 0 001.912-.669l1.198-.299c.337-.118.743-.073.984-.415a2.386 2.386 0 001.175-.284l.72-.23 1.678-.51 2.88-.926 3.118-.972 3.838-1.206a12.787 12.787 0 002.666-.857 13.305 13.305 0 002.614-.807 7.085 7.085 0 001.94-.626 8.93 8.93 0 002.38-.786 2.7 2.7 0 001.199-.296 7.442 7.442 0 001.926-.651l2.152-.721a3.576 3.576 0 001.682-.491l1.916-.549 1.922-.651a13.646 13.646 0 002.638-.781l2.884-.932c3.619-1.115 7.243-2.213 10.855-3.35 5.02-1.583 10.031-3.195 15.046-4.795a19.288 19.288 0 003.63-1.173h.001a9.272 9.272 0 002.143-.707 6.265 6.265 0 002.431-.726 3.071 3.071 0 001.42-.441l1.676-.525a6.786 6.786 0 002.19-.698h.001a8.07 8.07 0 002.383-.738l.685-.249 2.406-.72a6.565 6.565 0 002.194-.7 8.234 8.234 0 002.358-.738 11.6 11.6 0 002.944-.927 21.652 21.652 0 003.843-1.204 13.408 13.408 0 003.102-.972 14.288 14.288 0 003.096-.969 3.267 3.267 0 001.46-.465.51.51 0 00.514-.226 4.186 4.186 0 001.845-.517.909.909 0 00.752-.229.9.9 0 00.725-.227 3.509 3.509 0 001.415-.438l1.683-.535a1.619 1.619 0 00.93-.277c.932-.146.54-.908.665-1.43a2.955 2.955 0 01.144-.7c.508-1.07.06-1.676-.842-2.305-2.224-1.55-4.347-3.244-6.55-4.824-2.455-1.76-4.76-3.725-7.34-5.312-2.794-2.273-5.69-4.41-8.64-6.475-1.936-1.54-3.907-3.033-5.963-4.413a33.88 33.88 0 00-4.112-3.017c-.785-.285-1.113-1.18-1.919-1.437l-1.897-1.279a15.729 15.729 0 00-3.622-2.802 52.913 52.913 0 00-4.796-3.604 19.846 19.846 0 00-3.356-2.406 10.269 10.269 0 00-2.155-1.68q-.6-.457-1.202-.913l-2.143-1.55a24.742 24.742 0 00-3.853-2.812c-1.428-1.065-2.661-2.399-4.317-3.152a8.65 8.65 0 00-2.405-1.873l-1.92-1.46a29.497 29.497 0 00-3.342-2.462l-2.412-1.816-3.798-2.801a36.287 36.287 0 00-3.854-2.844l-3.109-2.375c.154-.45.609-.48.948-.638 2.475-1.153 4.964-2.274 7.44-3.424.334-.155.81-.172.877-.685l-3.53-2.442a26.774 26.774 0 00-4.329-3.091 13.69 13.69 0 00-2.85-2.227 19.172 19.172 0 00-3.148-2.292 25.873 25.873 0 00-3.329-2.507 24.915 24.915 0 00-3.144-2.347 32.867 32.867 0 00-3.589-2.656c-.108-.311-.628-.324-.6-.801l4.188-.388c2.965-.11 5.922-.317 8.869-.667a66.988 66.988 0 007.206-.532c2.907-.177 5.816-.327 8.72-.537q16.13-1.165 32.256-2.367c2.661-.198 5.318-.45 7.978-.676a35.937 35.937 0 005.86-.458h-.001l2.297-.092a3.93 3.93 0 001.683-.169l1.43-.05a4.372 4.372 0 001.724-.18l.666-.03c1.352-.076 2.707-.128 4.057-.233 2.817-.22 5.631-.466 8.446-.702 3.44-.116 6.869-.37 10.29-.744a3.996 3.996 0 014.083 1.414c.043.055.14.068.212.101a6.869 6.869 0 002.782 1.684 1.6 1.6 0 011.297 2.017 1.916 1.916 0 00-.095.568 7.115 7.115 0 00-.063 1.415l-.018.25-.242 4.559a32.325 32.325 0 00-.265 4.56 26.345 26.345 0 00-.244 4.558 21.158 21.158 0 00-.262 4.314 19.375 19.375 0 00-.237 4.056.817.817 0 00-.084.514 24.099 24.099 0 00-.161 3.547 19.84 19.84 0 00-.244 4.08c-.435 1.422.035 2.94-.458 4.358a5.358 5.358 0 01-.644-.234q-4.133-2.107-8.261-4.225c-5.096-2.607-10.15-5.297-15.33-7.74a38.963 38.963 0 01-3.762-1.955c-9.52-4.828-19.059-9.617-28.581-14.44a1.998 1.998 0 00-1.982-.063q-13.49 6.256-27.024 12.418a2.452 2.452 0 01-1.224.426c-.068.662.553.676.896.95l2.888 2.185c.145.28.43.352.689.461a6.15 6.15 0 001.645 1.218 42.62 42.62 0 004.147 3.088 40.5 40.5 0 004.264 3.144 18.226 18.226 0 002.886 2.153l4.131 3.098a50.217 50.217 0 004.281 3.135 55.233 55.233 0 004.81 3.593 50.588 50.588 0 004.56 3.36 44.28 44.28 0 004.531 3.368 43.566 43.566 0 004.151 3.091 59.843 59.843 0 004.936 3.65c.75.587 1.485 1.192 2.252 1.755 2.364 1.738 4.74 3.46 7.111 5.188a6.32 6.32 0 00.52.481q9.363 6.952 18.732 13.895c1.744 1.292 1.75 1.286 3.583.043.36-.244.714-.496 1.071-.744a9.861 9.861 0 011.286-.542c1-.27 1.478-.835 1.236-1.894l.223-3.822.064-1.925a6.687 6.687 0 00.185-2.156l.035-1.448a14.769 14.769 0 00.213-3.12l.24-4.084.24-3.832.235-3.835.221-3.831.24-4.08.241-4.082.023-.485.026-.96.056-.446c.204-.52.482-.55.982-.29 2.848 1.486 5.718 2.93 8.581 4.388a4.441 4.441 0 00.167-1.723l.29-4.329.449-5.511.313-4.774-.007-.018a2.767 2.767 0 00.154-1.437l.26-3.365.256-3.853.457-5.745.26-3.847.384-4.852c.003-.025.004-.053.006-.081l.064-.813a2.893 2.893 0 01-.068.334.924.924 0 01.068-.334l.315-3.307c.268.192.429.294.575.413l36.319 29.6c4.148 3.379 8.318 6.73 12.478 10.093l8.911 7.275 4.789 3.919a37.024 37.024 0 003.595 2.892c2.25 1.994 4.595 3.87 6.975 5.705.727.617 1.451 1.238 2.183 1.85.611.512 1.42.902 1.799 1.547.446.76-.679 1.32-.697 2.115a2.11 2.11 0 01-1.878 1.45 3.721 3.721 0 00-1.653.507 40.447 40.447 0 00-5.037 1.249l-5.526 1.439-5.27 1.399-4.798 1.232-3.594.942a16.655 16.655 0 00-3.365.937 18.502 18.502 0 00-3.838.96 23.939 23.939 0 00-4.321 1.164 7.7 7.7 0 00-1.692.344c-.716.318-.96-.022-1.164-.583-1-4.834-2.01-9.666-2.984-14.506-.132-.657-.56-.877-1.066-1.13q-14.3-7.16-28.59-14.337c-.867-.473-1.707-1.006-2.608-1.402-.965-.423-1.793-1.183-2.917-1.224l-.013 2.123a.48.48 0 00-.068.36 17.636 17.636 0 00-.192 3.016 12.437 12.437 0 00-.227 3.08 3.24 3.24 0 00-.101.731c-.192 1.446-.232 2.905-.322 4.359l-.059 1.392a45.94 45.94 0 00-.447 6.043 15.555 15.555 0 00-.27 3.56 11.903 11.903 0 00-.23 3.139 3.974 3.974 0 00-.175 1.688l-.018.252c-.105 1.35-.15 2.71-.336 4.049a1.288 1.288 0 001.01 1.65 14.183 14.183 0 016.294 4.587c1.47 1.812 1.468 1.814 3.732 1.166a1.522 1.522 0 00.31-.173 17.489 17.489 0 003.614-.95 18.116 18.116 0 003.657-.943 19.664 19.664 0 003.766-.985 5.227 5.227 0 001.904-.49 17.814 17.814 0 003.601-.948 18.566 18.566 0 003.61-.932 11.918 11.918 0 002.877-.75 10.58 10.58 0 002.68-.7l3.289-.778c.716.005.627.602.72 1.025.654 2.945 1.288 5.894 1.928 8.841l-4.557 1.02-1.466.321-3.325.826a18.317 18.317 0 00-3.354.753l-2.17.488-3.112.709a7.248 7.248 0 00-2.16.501l-1.924.461-3.118.72a14.112 14.112 0 00-2.875.686c-.523-.104-.956.236-1.446.293l-1.917.46c-.682-.065-1.022.237-1.1.927-.079.71-.23 1.414-.349 2.12v.002c-.287.693-.554 1.394-.867 2.075a.787.787 0 00.156.97q2.773 3.031 5.532 6.075 2.28 2.766 4.778 5.336a40.186 40.186 0 003.618 4.027 25.633 25.633 0 002.62 2.93 48.379 48.379 0 003.611 4.047l4.318 4.797 2.622 2.922a19.03 19.03 0 002.395 2.644 38.315 38.315 0 003.378 3.797 27.978 27.978 0 002.858 3.172 43.024 43.024 0 003.615 4.038 29.132 29.132 0 003.09 3.424l4.354 4.958a.657.657 0 00.481.482 1.322 1.322 0 00-.217-.99q-2.712-13.062-5.43-26.122c-.64-3.055-1.424-6.082-1.987-9.15-.575-3.133-1.19-6.254-1.954-9.346-.683-3.396-1.38-6.79-2.044-10.189-.664-3.392-1.53-6.745-2.034-10.169l4.783-1.242a40.619 40.619 0 004.849-1.147 15.848 15.848 0 003.312-.755 22.197 22.197 0 003.908-.91 13.633 13.633 0 003.064-.7 40.305 40.305 0 005.316-1.235 33.434 33.434 0 004.507-1.011c1.94-.388 3.88-.774 5.776-1.353a28.91 28.91 0 003.004-.633c.716-.227.977.023 1.27.603a7.664 7.664 0 001.69 2.409 12.152 12.152 0 006.486 4.24 7.47 7.47 0 001.268.33c.901.077 1.14.43.985 1.365-.233 1.41-.247 2.857-.354 4.289.003.044.002.09.003.135-.029-.04-.045-.085-.076-.124a.786.786 0 00-.456.776 56.06 56.06 0 00-.505 6.783 1.907 1.907 0 00.175.792 27.963 27.963 0 00-.283 3.217l-.038.695a2.165 2.165 0 00-.168 1.205l-.088 1.378a.895.895 0 00-.086.322 2.953 2.953 0 00-.086.944l-.06 1.162a.877.877 0 00-.075.601q-.488 3.406-.647 6.843a8.773 8.773 0 00-.187.928c-.669 6.987-1.32 13.976-1.995 20.962q-2.03 21.02-4.082 42.037c-.105 1.075-.243 2.147-.373 3.287l-1.74-1.68a53.235 53.235 0 00-3.85-4.313 34.137 34.137 0 00-3.052-3.39 43.39 43.39 0 00-3.228-3.569 44.788 44.788 0 00-3.825-4.308l-3.856-4.315a34.366 34.366 0 00-3.57-3.847c-.956-1.631-2.522-2.754-3.58-4.3-.277.049-.268.265-.227.453q1.06 4.938 2.132 9.874c.049.352.082.708.15 1.056q.663 3.39 1.339 6.779c-.054.196-.056.42-.276.53l-4.383-4.793a10.847 10.847 0 00-1.898-2.168 17.515 17.515 0 00-2.307-2.655 34.16 34.16 0 00-3.146-3.589 36.27 36.27 0 00-3.141-3.59 19.539 19.539 0 00-2.35-2.658 25.012 25.012 0 00-2.698-3.096 14.31 14.31 0 00-1.898-2.168c-.536-.975-1.552-1.51-2.189-2.392a21.435 21.435 0 00-3.137-3.603 24.179 24.179 0 00-3.124-3.59 12.712 12.712 0 00-2.142-2.405 7.25 7.25 0 00-1.628-1.933l-1.508-1.66c-.395-.783-1.167-1.237-1.679-1.92a26.247 26.247 0 00-2.881-3.355l-3.581-4.076-2.398-2.647c-.944-1.583-2.446-2.675-3.592-4.08a21.42 21.42 0 00-2.861-3.361 20.635 20.635 0 00-2.354-2.66c-.767-.916-1.58-1.797-2.286-2.757-.483-.657-.874-.485-1.344-.07l-.725.254-1.439.465-.967.245-1.665.24-.256.01a15.602 15.602 0 01-1.855-.03c-.717-.092-.998.221-1.056.868l-.639 1.271-.08.408a1.894 1.894 0 00-.488 1.19 1.506 1.506 0 00-.433 1.037 5.109 5.109 0 00-.714 1.696.797.797 0 00-.267.654 2.604 2.604 0 00-.52 1.225 5.184 5.184 0 00-.705 1.685 7.913 7.913 0 00-.913 2.18 9.855 9.855 0 00-.998 2.386 3.65 3.65 0 00-.704 1.683 4.944 4.944 0 00-.703 1.672 13.019 13.019 0 00-1.205 2.875 8.553 8.553 0 00-1.007 2.395 1.45 1.45 0 00-.418.991 5.446 5.446 0 00-.759 1.838 17.684 17.684 0 00-1.426 3.38 11.24 11.24 0 00-1.226 2.913 8.132 8.132 0 00-.91 2.179 21.994 21.994 0 00-1.503 3.57 43.167 43.167 0 00-2.332 5.553 5.342 5.342 0 00-.284.513c-1.812 4.295-3.632 8.587-5.424 12.89-1.332 3.196-2.626 6.407-3.937 9.612a51.096 51.096 0 00-2.332 5.53l-1.533 3.588a14.803 14.803 0 00-1.096 2.65 10.678 10.678 0 00-.988 2.4 20.839 20.839 0 00-1.42 3.354 5.818 5.818 0 00-.71 1.684l-.605 1.406a6.35 6.35 0 00-.88 2.188 13.546 13.546 0 00-1.146 2.645c-.682.957-.807 1.816.425 2.44l.711.717a5.066 5.066 0 001.199 1.443l.968 1.424a2.788 2.788 0 00.736 1.408c-.001.192.026.368.249.433a4.293 4.293 0 001.675.007.38.38 0 00.238-.203c0-.017.01-.024.013-.04l.028.04h-.042l-.237.203a5.041 5.041 0 001.943-.185h.001l1.176-.052a11.743 11.743 0 002.872-.213l1.212-.044a1.918 1.918 0 001.188-.138l-.004-.008.004.008c.408.162.8-.03 1.199-.058l1.213-.05a4.75 4.75 0 001.368-.07 1.555 1.555 0 00.308-.093l1.675-.055a.277.277 0 01.134-.06l-.134.06a6.724 6.724 0 001.56-.087 1.215 1.215 0 00.375-.103l.698-.026.971-.04a4.388 4.388 0 001.726-.157l.01-.003 1.612-.062.252-.026a4.082 4.082 0 001.716-.157h.001l.1.027.09-.048a21.61 21.61 0 002.412-.057c.046-.002.091-.006.139-.011a7.964 7.964 0 00.842-.156l.448-.026a17.04 17.04 0 002.236-.059 3.152 3.152 0 00.899-.16l.464-.02a10.238 10.238 0 002.882-.206l1.922-.083a4.729 4.729 0 001.376-.07 1.137 1.137 0 00.328-.095 15.118 15.118 0 003.583-.246l1.423-.047.246-.01a5.41 5.41 0 001.214-.072 1.398 1.398 0 00.475-.094l-.001.005 1.43-.069a4.93 4.93 0 002.187-.181 24.577 24.577 0 002.816-.108 2.364 2.364 0 00.78-.139 21.872 21.872 0 002.813-.107 2.777 2.777 0 00.772-.138 10.716 10.716 0 002.62-.152 29.014 29.014 0 004.35-.322l.69-.025a222.912 222.912 0 016.243-.437 21.465 21.465 0 004.074-.283h1.432c.104.437-.283.612-.489.865q-3.936 4.852-7.894 9.686c.828-.073 1.655-.154 2.484-.216 1.811-.136 3.633-.13 5.43-.445a70.553 70.553 0 007.704-.501 65.37 65.37 0 007.193-.487 16.814 16.814 0 003.812-.26 56.537 56.537 0 006.973-.466 13.912 13.912 0 003.392-.219 42.409 42.409 0 004.996-.307c.247.1.843-.115.461.543-.359.619-.683 1.257-1.02 1.888l-9.602 17.98c-1.557 2.57-2.88 5.263-4.232 7.941-1.184 1.929-2.21 3.943-3.229 5.962a37.101 37.101 0 00-2.343 4.339 13.99 13.99 0 00-1.183 2.216c-.11.085-.21.179-.321.261a15.176 15.176 0 00-2.576 4.98c.027.004.05 0 .077.003-.402.068-.54.41-.714.708q-1.385 2.376-2.63 4.827a5.533 5.533 0 00-1.058 2.616c.009.006.016.008.025.013-.465.107-.667.492-.854.867-1.206 2.42-2.618 4.73-3.817 7.153-.207.418-.524.816-.384 1.338l.02.01c-.522.177-.73.658-.958 1.084-1.277 2.384-2.525 4.784-3.83 7.155-.217.395-.508.805-.296 1.307a.583.583 0 00-.477.3c-1.081 1.657-1.902 3.457-2.845 5.19a.784.784 0 00-.041.756.547.547 0 00-.46.286c-1.043 1.627-1.83 3.395-2.786 5.07a.595.595 0 00-.076.508zM52.533 233.589l-2.64 10.565q-1.44 5.753-2.878 11.507c-.88 2.839-1.469 5.75-2.16 8.637a2.436 2.436 0 00-.307 1.4c-.402-.18-.25-.546-.257-.836a250.423 250.423 0 01-.072-4.399q-.017-7.74-.015-15.479 0-4.967-.004-9.935c0-.024-.003-.049-.004-.073a2.992 2.992 0 00-.09-1.226c.004-3.112.017-6.224.014-9.337l-.028-24.302c0-.415-.266-.994.446-1.15a20.95 20.95 0 002.422-1.189 10.301 10.301 0 002.751-2.246c3.988-4.166 4.81-11.264 1.838-15.76l-1.86-2.579a.908.908 0 00-.367-.739c-.746-.616-.554-1.192-.049-1.837.933-1.188 1.738-2.468 2.557-3.735.216-.334.64-.632.4-1.137.646.114.771-.495 1.014-.856 5.026-7.454 10.137-14.85 15.188-22.288 5.746-8.462 11.53-16.899 17.27-25.365a51.783 51.783 0 013.282-4.67 2.99 2.99 0 01-.241.858c-.698 2.073-1.421 4.137-2.077 6.223-.814 2.586-1.869 5.094-2.523 7.732-.92 2.655-1.86 5.303-2.753 7.967-1.272 3.794-2.51 7.6-3.762 11.4a5.297 5.297 0 00-.242.526c-3.955 11.733-7.935 23.459-11.83 35.212-.56 1.693-1.038 3.255-3.034 3.67a7.483 7.483 0 00-2.848 1.694 13.323 13.323 0 00-3.662 17.062 5.379 5.379 0 001.187 1.91 2.05 2.05 0 01.425 2.135c-1.73 6.872-3.402 13.758-5.091 20.64zm325.3-119.933a1.548 1.548 0 00.413.233c2.614.83 5.278 1.48 7.912 2.24a.705.705 0 00.654-.056c.054.062.111.121.166.183a56.02 56.02 0 005.578 1.67c.59.193 1.023.428.986 1.125.026.768-.027 1.538.049 2.306a1.443 1.443 0 00.114.359c.069.084.132.172.2.256a13.834 13.834 0 008.164 11.321c.038.085.085.165.12.252 1.246.752 2.5 1.471 4.029.996l.015.022a3.207 3.207 0 00.246.245 1.767 1.767 0 01.383.856 1.462 1.462 0 00-.008.13c-.012 2.611-.362 5.211-.265 7.827-.313 2.86-.357 5.735-.437 8.607a.637.637 0 00-.265.293 27.516 27.516 0 00-.304 6.273c.031.075.07.147.1.222-.439.21-.357.69-.371 1.078-.025.694-.285 1.124-1.007 1.224a.771.771 0 00-.548.304 6.244 6.244 0 01-2.674-1.559c-1.612-1.35-3.312-2.589-4.946-3.912-.34-.276-.659-.612-1.15-.558a1.8 1.8 0 00-.764-.978c-1.54-1.245-3.07-2.507-4.647-3.705a22.5 22.5 0 00-3.823-2.652l-.014-.03a2.012 2.012 0 00-.717-.933c-3.333-2.649-6.622-5.354-10.075-7.848-.27-.196-.529-.503-.922-.39-.009-.034-.022-.064-.03-.098-.33-.286-.647-.586-.99-.854q-6.167-4.844-12.342-9.68a.94.94 0 01-.015-.218c-.202-.674-.819-.967-1.304-1.351q-14.126-11.154-28.18-22.4a26.55 26.55 0 00-4.698-3.462c-.053-.005-.101-.02-.152-.03-.636-1.038-1.866-1.441-2.57-2.313.573-.039 1.139.456 1.773.227.03.032.068.055.098.089a34.752 34.752 0 006.6 1.943.422.422 0 00.278-.046c.021.02.045.036.066.057a1.396 1.396 0 00.504.307c2.128.63 4.267 1.216 6.406 1.807a1.042 1.042 0 00.9-.118.538.538 0 00.42.467q2.265.713 4.575 1.267a.494.494 0 00.377-.073c.035.038.076.069.11.107a37.692 37.692 0 005.514 1.685 1.158 1.158 0 00.918-.055c.014-.045.013-.082.022-.124.015.021.034.036.048.057 1.274 1.146 2.905 1.223 4.472 1.493a1.315 1.315 0 00.061-.22c.013.018.03.033.043.052a.983.983 0 00.723.557q2.61.78 5.24 1.498a.988.988 0 00.885-.039c.051.056.11.106.16.162a19.391 19.391 0 004.288 1.324 10.853 10.853 0 003.432.786 1.088 1.088 0 00.128-.185c.005.012.014.02.019.032.773.8 4.508 1.874 5.81 1.713.071.08.148.154.22.234zm59.052 94.632c-.446-.515-.618-1.281-1.336-1.547.007-.004.01-.01.018-.015-.178-.307-.34-.625-.534-.922-1.95-2.986-3.813-6.03-5.911-8.92.01-.438-.321-.712-.53-1.034q-4.179-6.444-8.382-12.872c-.172-.591-.85-.973-.706-1.696a26.633 26.633 0 00.977-3.794 14.357 14.357 0 00-4.888-12.432 1.613 1.613 0 01-.613-1.425c.09-1.793.141-3.588.208-5.382l.363-9.004c.22-.188.2-.543.21-.834a6.454 6.454 0 01.21-1.888 74.26 74.26 0 00.162-3.888 30.873 30.873 0 002.12 6.022 1.876 1.876 0 00.174 1.123c.882 3.2 1.998 6.329 3.022 9.483 3.766 11.598 7.465 23.217 11.247 34.81 1.661 5.091 3.27 10.2 4.947 15.342-.343-.357-.473-.797-.758-1.127zM307.517 310.336h-.002l.001-.002zm-21.355 1.444l.036-.046.015.047-.051-.001zm10.473-.712c.009.01.02.016.029.024h-.038c.002-.01.007-.015.009-.024zm25.059-1.745l.002.005h-.005zm30.44-1.791l-.014.034a1.27 1.27 0 00-.236-.3 26.41 26.41 0 00-5.252.395c1.549-1.625 2.907-3.413 4.343-5.132a7.262 7.262 0 001.803-2.551 2.313 2.313 0 00.997-.836c1.068-1.285 2.16-2.549 3.2-3.857.588-.738 1.38-1.34 1.538-2.354v-.004a18.873 18.873 0 004.193-4.786.255.255 0 00-.017-.258 2.168 2.168 0 001.009-.737c.55-.574 1.02-1.214 1.517-1.831 1.91-2.376 4.033-4.58 5.742-7.118.007-.022.003-.045.008-.067.866 1.247 1.996 2.267 2.968 3.423a.833.833 0 00.684.336 10.092 10.092 0 003.447 4.059.204.204 0 00.182.017 6.754 6.754 0 003.143 3.559l-.014.03c.321 1.443 1.629 2.164 2.405 3.274a.696.696 0 00.567.31c.638.882.436 1.547-.323 2.43a14.134 14.134 0 00-3.202 7.339 4.502 4.502 0 01-.549 2.398c-.05.012-.087.036-.134.05a1.304 1.304 0 00-.763-.115c-1.134.128-2.276.167-3.406.314a1.515 1.515 0 00-1.046.486l-.013.029a1.248 1.248 0 00-.24-.247c-1.544-.338-3.048.146-4.573.229a.934.934 0 00-.313.18.698.698 0 00-.499-.237 29.387 29.387 0 00-4.12.327.842.842 0 00-.56.41l-.003.008a1.089 1.089 0 00-.293-.222 10.868 10.868 0 00-5.203.542.964.964 0 00-.347-.303 23.264 23.264 0 00-4.37.288c-.754.092-1.613-.159-2.256.488zM167.31 149.962a3.351 3.351 0 00-1.931.945 2.023 2.023 0 01-.132.223 30.064 30.064 0 00-3.531 1.578c-6.471 2.97-12.937 5.954-19.426 8.884a2.024 2.024 0 00-1.252 1.547c-.867 3.6-1.774 7.19-2.649 10.79-.59 2.43-1.15 4.868-1.724 7.302.005.011.01.016.015.026a1.282 1.282 0 01-.28.058 1.014 1.014 0 00-.243.403c-.665 2.373-1.225 4.773-1.81 7.165a1.016 1.016 0 00.124.943 1.57 1.57 0 01-.268.16 1.414 1.414 0 00-.264.526c-.806 3.024-1.441 6.089-2.222 9.119a1.043 1.043 0 00.138 1.015 1.411 1.411 0 00.174.095c-.166.25-.303-.235-.403-.009a2.874 2.874 0 00-.553 1.426c-1.656 6.644-3.336 13.283-4.981 19.93a14.03 14.03 0 00-.594 3.156.479.479 0 00.06.105 28.433 28.433 0 00-5.22-2.598.508.508 0 00-.533.07 31.567 31.567 0 00-4.23-1.906 19.45 19.45 0 00-4.318-1.94 10.727 10.727 0 00-3.598-1.68 11.317 11.317 0 00-3.092-1.528 21.065 21.065 0 00-3.386-1.58 18.91 18.91 0 00-3.122-1.449 40.682 40.682 0 00-4.781-2.214 44.884 44.884 0 00-5.049-2.352 20.829 20.829 0 00-4.325-1.912 4.034 4.034 0 00-1.517-.86c-.728-.238-.871-.614-.745-1.4a9.103 9.103 0 00-.173-3.927c.033-.125.061-.252.095-.378a2.51 2.51 0 011.01-3.15.962.962 0 00.348-.58 1.344 1.344 0 00.86-.44c1.202-1.152 2.52-2.175 3.685-3.366a2.172 2.172 0 00.447-.677.66.66 0 00.63-.211c1.03-1.057 2.272-1.88 3.261-2.978a1.069 1.069 0 00.332-.62.993.993 0 00.876-.362c1.007-1.066 2.22-1.904 3.234-2.96.259-.27.57-.514.603-.93.48.194.737-.207 1.014-.462 1.865-1.715 3.8-3.353 5.64-5.097.258-.246.721-.39.552-.901.546.156.8-.31 1.12-.589 3.331-2.898 6.591-5.876 9.899-8.8a2.22 2.22 0 00.726-.903c.336-.015.547-.296.784-.499 3.431-2.944 6.738-6.03 10.151-8.994a1.333 1.333 0 00.595-1.111v-.001c.718.164 1.115-.415 1.531-.79 3.852-3.48 7.757-6.9 11.612-10.376 4.094-3.689 8.216-7.346 12.314-11.03 4.364-3.924 8.773-7.8 13.132-11.73q1.957-1.764 3.952-3.488c.28-.243.569-.483.959-.255.352.205.244.547.207.862-.05.417-.136.844.227 1.172l-.716 6.156a26.191 26.191 0 00-.542 4.793 21.214 21.214 0 00-.476 4.03 41.6 41.6 0 00-.707 6.049 41.91 41.91 0 00-.678 5.567c-.05.042-.103.08-.153.122a6.134 6.134 0 00-.594 2.856c-.032-.009-.055-.036-.09-.04zm10.84-9.935a47.72 47.72 0 00.546-5.042l.64-5.032q.25-2.163.498-4.327a38.541 38.541 0 00.497-4.375c.05-.05.108-.09.154-.145a2.977 2.977 0 012.384-2.552 7.012 7.012 0 001.892-.96 2.193 2.193 0 011.424-.38 4.081 4.081 0 002.763 1.951l.056-.023a5.802 5.802 0 003.586 2.745 4.087 4.087 0 002.824 2.085 3.386 3.386 0 002.62 1.93l.061-.023c-.103.474.28.693.573.944.721.614 1.55 1.086 2.283 1.686.267.219.54.496.943.261l.05-.002c-.129.326.146.532.367.698a38.905 38.905 0 003.744 2.733 34.559 34.559 0 00-5.665 2.4q-8.39 3.808-16.748 7.686a63.273 63.273 0 00-5.86 2.799 18.28 18.28 0 00.582-4.907 1.064 1.064 0 00-.232-.138zm53.036-83.174c2.276 1.182 4.575 2.315 6.947 3.294a93.923 93.923 0 007.5 3.576c3.135 1.636 6.335 3.14 9.571 4.566a104.097 104.097 0 007.613 3.628 44.08 44.08 0 005.548 2.627c2.63 1.413 5.333 2.675 8.073 3.856a68.201 68.201 0 007.516 3.579c3.942 2.04 7.973 3.893 12.002 5.752l-.212 2.143-.267 1.418-6.694.565-17.267 1.427-14.639 1.21a3.1 3.1 0 00-1.477.167h-.001l-1.4.067a3.19 3.19 0 00-1.476.173h-.002l-1.4.067a3.214 3.214 0 00-1.477.174l-1.4.06c-.24.001-.48-.014-.718.005q-10.075.832-20.15 1.674c-3.217.274-6.43.591-9.643.889l-1.399.072a3.44 3.44 0 00-1.5.172l-1.379.067a4.139 4.139 0 00-1.689.19l-1.434.07a2.935 2.935 0 00-1.446.17c-2.784.199-5.568.38-8.35.605-2.023.164-4.04.386-6.061.582l-1.413.069a3.201 3.201 0 00-1.478.172c-.97.209-1.449-.276-1.818-1.126a7.095 7.095 0 00-1.727-2.479c-1.258-.947-1.15-2.014-.3-3.168a2.647 2.647 0 00.252-.649l2.075-4.366c.06-.021.117-.046.177-.067a14.322 14.322 0 001.876-3.358.776.776 0 00.01-.886l-.013-.002c1.119-.914 1.387-2.338 2.073-3.51a.638.638 0 00.088-.644 19.137 19.137 0 002.015-3.863.502.502 0 00-.02-.443 1.56 1.56 0 00.715-.825c.858-1.7 1.563-3.473 2.448-5.16.142-.27.306-.581.094-.89a.63.63 0 00.477-.398c.736-1.633 1.6-3.201 2.366-4.818a.903.903 0 00.095-.895 1.09 1.09 0 00.392-.39c.994-1.798 1.883-3.648 2.763-5.503a.897.897 0 00.048-.783.713.713 0 00.396-.371c.556-1.653 1.855-1.712 3.283-1.621a11.989 11.989 0 007.373-2.055 2.34 2.34 0 012.438-.15c1.205.488 2.26 1.4 3.652 1.39l.1-.011c2.705 1.429 5.479 2.715 8.274 3.955zM74.31 189.351q2.455-7.293 4.899-14.59 3.233-9.678 6.452-19.361l5.156-15.33c.15-.2.286-.408.441-.605a3.835 3.835 0 00.562-1.178c1.52-4.52 3.008-9.052 4.522-13.574a1.782 1.782 0 00.152-1.16 1.209 1.209 0 00-.15-.08c.011 0 .02-.005.031-.006.49-.165.571-.624.727-1.023 1.182-3.035 2.103-6.16 3.15-9.241a1.416 1.416 0 00.098-1.048c.036-.028.066-.062.103-.09a2.859 2.859 0 00.564-1.173c.814-2.418 1.63-4.835 2.415-7.262a2.098 2.098 0 011.423-1.44 13.827 13.827 0 008.715-8.44c.364-1.007.89-1.155 1.81-.85a12.825 12.825 0 003.48.803l.1-.021c.127.278.435.339.7.43 1.154.402 2.356.632 3.526.978a1.069 1.069 0 00.947-.08.676.676 0 00.026.12 26.828 26.828 0 006.635 1.943c.059-.01.122-.017.18-.03.106.296.432.342.694.419 1.61.467 3.231.894 4.847 1.34.364.1.76.245 1.112-.058a1.251 1.251 0 00.051.194 33.138 33.138 0 007.055 2.011c.048-.001.092-.017.14-.022a.8.8 0 00.482.307c1.81.591 3.658 1.056 5.496 1.55a.892.892 0 00.896-.161l.062-.04a.821.821 0 00-.042.213 15.378 15.378 0 005.002 1.513 1.935 1.935 0 00.55-.113 40.406 40.406 0 004.563 1.26 1.628 1.628 0 011.466 1.987 5.466 5.466 0 00.274 1.389c.188.58-.228.86-.578 1.18q-16.703 15.276-33.401 30.556c-4.149 3.8-8.272 7.627-12.406 11.441q-5.732 5.055-11.276 10.316c-2.22 1.916-4.401 3.875-6.481 5.943a65.248 65.248 0 00-5.537 5.08c-2.135 1.665-4.028 3.594-5.985 5.453l-6.685 6.086-6.487 5.799c-.97-.156-.672-.754-.476-1.335zm155.502-147.18a.94.94 0 00.725.284 28.944 28.944 0 003.784.28c.368-.032.736-.056 1.103-.085q11.973 1.304 23.946 2.598 11.713 1.266 23.427 2.523c4.139.441 8.28.857 12.42 1.282.192.073.387.134.575.215 1.535.66 3.2.508 4.796.784a.965.965 0 00-.136.048 1.579 1.579 0 00.178 1.675 1.458 1.458 0 00.21.201 10.248 10.248 0 001.605 4.326c3.232 5.077 9.538 7.353 14.667 5.295a9.94 9.94 0 003.927-2.08 1.664 1.664 0 00.319.129c.213.063.418.146.629.216.689.52 1.374 1.044 2.076 1.544q6.701 4.772 13.413 9.528c.274.225.535.465.822.67q12.933 9.27 25.873 18.53c3.728 2.665 7.474 5.304 11.212 7.955 1.263.935 2.53 1.865 3.784 2.813.158.118.59.127.316.525l-8.585-2.214a.474.474 0 00-.11-.048l-.005.002a2.822 2.822 0 00-.424-.17q-5.149-1.343-10.3-2.676c-2.326-.863-4.807-1.146-7.16-1.908a2.632 2.632 0 00-.424-.194q-5.569-1.453-11.14-2.896c-.68-.209-1.352-.453-2.042-.62-3.007-.73-5.944-1.739-8.997-2.285-2.171-.564-4.347-1.111-6.509-1.707a1.4 1.4 0 01-1.05-.95 11.53 11.53 0 00-3.151-4.578 14.196 14.196 0 00-15.187-2.763 5.374 5.374 0 00-1.909.944 1.61 1.61 0 01-1.943.066c-5.183-2.52-10.392-4.988-15.593-7.471a10.144 10.144 0 01-1.193-.444c-4.588-2.373-9.21-4.68-13.924-6.794a2.277 2.277 0 01-.43-.13c-3.001-1.595-6.032-3.13-9.16-4.467-1.052-.537-2.081-1.127-3.162-1.598a65.028 65.028 0 00-6.44-2.932c-3.15-1.678-6.322-3.312-9.62-4.686a1.15 1.15 0 00-.482-.486c-2.06-1.258-4.263-2.244-6.425-3.307a1.71 1.71 0 00-1.079-.13 1.913 1.913 0 00-.806-.676c-1.952-1.136-4.084-1.904-6.085-2.94a1.15 1.15 0 00-.83-.103 13.924 13.924 0 00-1.93-1.32 4.102 4.102 0 011.889-.088 26.394 26.394 0 004.392.356c.048-.017.096-.027.143-.042zM58.729 326.969c.003-.03-.002-.06.003-.09.143-.501-.201-.82-.442-1.175q-1.408-2.074-2.943-4.056c-1.256-1.624-2.318-3.4-3.724-4.908a7.832 7.832 0 01.94.361c.46.208.91.522 1.445.303a114.359 114.359 0 008.03 4.011c2.79 1.597 5.676 3.006 8.603 4.333a65.384 65.384 0 006.244 3.123c2.454 1.367 4.938 2.677 7.517 3.798a62.106 62.106 0 005.765 2.876 26.44 26.44 0 003.836 1.919c.986.349.554 1.35.914 1.988.253 5.13 4.776 10.966 9.845 12.706 1.464.339 1.584 1.276 1.12 2.488a2.63 2.63 0 00-.084.574l-.978 4.81-1.43 6.947-.948 4.573-1.453 7.157a.706.706 0 00-.101 0 1.113 1.113 0 00-.397.72 1.542 1.542 0 01-1.313 1.372c-.778.186-1.023-.511-1.353-.965-5.804-7.977-11.645-15.928-17.451-23.903q-6.876-9.445-13.765-18.88-3.347-4.603-6.721-9.187c-.277-.376-.449-1.086-1.16-.895zm218.448 112.244a5.25 5.25 0 01-1.782.123q-22.309.007-44.617.003h-6.597c-.482-.001-1 .038-1.3-.433a1.462 1.462 0 00-.186-.208c0-.016-.003-.025-.002-.04a13.86 13.86 0 00-.37-3.443c-.382-1.819-.384-1.819 1.46-2.081l26.138-3.346c1.465-.172 2.931-.333 4.394-.52q12.767-1.629 25.533-3.272c2.845-.368 5.684-.778 8.526-1.169.517-.022 1.039-.005 1.55-.071q6.215-.804 12.427-1.636 5.458-.725 10.915-1.46c1.298-.147 2.6-.265 3.89-.454.683-.1 1.014.02 1.051.796a3.8 3.8 0 00.309 1.85c.178.737-.194 1.005-.86 1.24q-7.988 2.81-15.949 5.697-6.713 2.42-13.415 4.873a3.754 3.754 0 01-.555-.075 4.906 4.906 0 00-1.262.33c-3.107 1.077-6.194 2.214-9.298 3.296zM35.21 260.77c-.005.001-.01-.004-.015 0-.08.05-.044.004.015-.015z" class="cls-1"/><path d="M264.537 282.05a2.872 2.872 0 00.556-1.182l.675-1.44a9.171 9.171 0 001.171-3.128 24.512 24.512 0 001.757-4.082l1.16-2.617c1.882-4.114 3.587-8.302 5.248-12.508.606-1.885 1.64-3.603 2.15-5.525a29.214 29.214 0 002.374-5.271c.43-1.496 1.413-2.766 1.75-4.299a36.31 36.31 0 001.85-4.347c.32-1.344 1.343-2.411 1.506-3.817a12.406 12.406 0 001.418-3.366 19.904 19.904 0 001.17-2.649l1.413-3.363 1.477-3.58a17.311 17.311 0 001.2-2.88 14.824 14.824 0 001.199-2.88 11.973 11.973 0 001.23-3.12c.236-.455.444-.927.712-1.362.559-.909.349-1.472-.398-2.31-1.135-1.276-2.17-1.784-3.686-.853a22.808 22.808 0 00-3.596 1.158 14.808 14.808 0 00-2.906.874l-2.613.844-3.113.97-3.129.97-2.666.841-3.316 1.054-3.123.972-3.838 1.199a20.339 20.339 0 00-3.397 1.1 22.753 22.753 0 00-4.042 1.267 10.3 10.3 0 00-2.406.737l-3.11.968-3.603 1.17a13.688 13.688 0 00-3.116.968l-4.072 1.214-9.379 3.039a39.706 39.706 0 00-4.794 1.491l-2.635.752-3.597 1.183a13.845 13.845 0 00-2.897.938c-.258.004-.522-.012-.704.227a6.61 6.61 0 00-2.172.668l-1.662.557a3.744 3.744 0 00-1.452.44c-.254.029-.527-.005-.72.223a3.614 3.614 0 00-1.693.521.85.85 0 00-.725.24 2.917 2.917 0 00-1.453.457 12.558 12.558 0 00-3.114.966 14.31 14.31 0 00-3.108.975 7.384 7.384 0 00-2.149.674 14.98 14.98 0 00-3.146.987 3.472 3.472 0 00-1.408.442 8.118 8.118 0 00-2.416.769 8.441 8.441 0 00-2.37.738 8.946 8.946 0 00-2.398.74 20.282 20.282 0 00-3.63 1.16 13.048 13.048 0 00-3.096.975c-.685.186-1.37.374-2.056.557a.733.733 0 00-.62.735 8.672 8.672 0 01-1.386 3.88c-.23.367-.376.675.09 1.001 1.168.813 2.312 1.658 3.466 2.49a17.806 17.806 0 002.873 2.155 26.378 26.378 0 003.15 2.386l2.882 2.16a17.14 17.14 0 002.634 1.952 7.604 7.604 0 001.898 1.424 8.678 8.678 0 001.917 1.44 22.866 22.866 0 003.143 2.384 28.481 28.481 0 003.594 2.682l3.39 2.582a69.481 69.481 0 005.224 3.873 22.066 22.066 0 003.837 2.877 13.18 13.18 0 002.902 2.186c2.606 2.222 5.425 4.162 8.164 6.208l2.635 1.921a14.037 14.037 0 002.16 1.676l4.81 3.585 4.548 3.38 3.398 2.544 3.836 2.888c1.037.798 2.089 1.578 3.104 2.402a1.096 1.096 0 001.306.104 8.7 8.7 0 014.576-1.123c2.835.41 3.475-1.373 4.126-3.369a2.473 2.473 0 00.063-.35 25.214 25.214 0 001.695-4.08 12.71 12.71 0 001.194-2.86 23.463 23.463 0 001.424-3.385 32.71 32.71 0 001.485-3.586 1.914 1.914 0 00.467-1.157 2.22 2.22 0 00.418-1.241c.2-.388.566-.71.485-1.21z" class="cls-1"/></svg>