<svg xmlns="http://www.w3.org/2000/svg" role="img" viewBox="90.58 66.08 330.84 333.84"><path d="M0 0 C0.99892273 -0.00671722 1.99784546 -0.01343445 3.02703857 -0.02035522 C6.3246357 -0.03933338 9.62202942 -0.04325885 12.91967773 -0.04541016 C15.21223535 -0.0518364 17.50479214 -0.05856463 19.79734802 -0.06558228 C24.59978132 -0.07755329 29.40214268 -0.08126309 34.20458984 -0.08007812 C40.36415258 -0.07987454 46.52325599 -0.10721904 52.68270969 -0.14162254 C57.41556426 -0.16383219 62.14830706 -0.16791755 66.88120842 -0.16685867 C69.15265428 -0.16922196 71.42410288 -0.17808615 73.69549751 -0.19352341 C76.86764136 -0.21307009 80.03877822 -0.20739039 83.2109375 -0.1953125 C84.62227211 -0.21217102 84.62227211 -0.21217102 86.06211853 -0.22937012 C92.37193417 -0.16817111 92.37193417 -0.16817111 95.62002563 2.05941772 C97.14472861 4.45377945 97.55587018 5.66521937 97.60253906 8.47412109 C97.62542496 9.30339111 97.64831085 10.13266113 97.67189026 10.98706055 C97.67631638 11.89157959 97.68074249 12.79609863 97.68530273 13.72802734 C97.71448036 15.17471802 97.71448036 15.17471802 97.74424744 16.65063477 C97.80185826 19.86399945 97.82883526 23.07675024 97.85327148 26.29052734 C97.88244038 28.53792911 97.91207137 30.78532492 97.94213867 33.03271484 C98.14262075 50.77933249 98.04089471 68.52831173 97.81493759 86.27416992 C97.79075417 88.29197214 97.77128906 90.30977464 97.75283813 92.32763672 C97.71365101 96.10736745 97.65402723 99.88618819 97.58764648 103.66552734 C97.57805405 104.80070801 97.56846161 105.93588867 97.55857849 107.10546875 C97.5356221 108.14364746 97.51266571 109.18182617 97.48901367 110.25146484 C97.47489441 111.15687012 97.46077515 112.06227539 97.44622803 112.99511719 C96.96097662 115.74226981 96.23120617 116.61467856 94.04077148 118.29052734 C91.66577148 119.16552734 91.66577148 119.16552734 89.04077148 119.29052734 C84.34983248 117.01654899 81.03254851 113.5410497 77.42749023 109.87255859 C76.81307571 109.25531418 76.19866119 108.63806976 75.56562805 108.00212097 C73.61507496 106.04042284 71.67161343 104.07186678 69.72827148 102.10302734 C68.40256254 100.76728128 67.07639551 99.43198968 65.74975586 98.09716797 C62.50809959 94.83352665 59.27278301 91.56371906 56.04077148 88.29052734 C53.06244563 89.70473751 51.32194161 90.86737632 49.29077148 93.47802734 C47.23372851 95.99417961 45.14438451 98.14464055 42.64770508 100.22045898 C37.1155555 104.99687586 32.02403381 110.21194173 26.88508987 115.40160942 C25.04682665 117.25744394 23.20488609 119.10955691 21.36190796 120.96070862 C16.12862971 126.21830214 10.90123001 131.48171329 5.67797852 136.74926758 C2.46992918 139.98401612 -0.74290784 143.21394387 -3.95878983 146.44090462 C-5.18154266 147.66987669 -6.40239329 148.90074431 -7.62131882 150.1335125 C-9.31589944 151.84719602 -11.01644663 153.55473531 -12.71850586 155.26098633 C-13.22238831 155.77363037 -13.72627075 156.28627441 -14.24542236 156.81445312 C-17.73132876 160.29052734 -17.73132876 160.29052734 -19.95922852 160.29052734 C-20.18610352 160.86802734 -20.41297852 161.44552734 -20.64672852 162.04052734 C-22.29411126 164.86461206 -24.3937769 166.28822364 -26.95922852 168.29052734 C-27.51610352 169.03302734 -28.07297852 169.77552734 -28.64672852 170.54052734 C-29.07985352 171.11802734 -29.51297852 171.69552734 -29.95922852 172.29052734 C-30.61922852 172.29052734 -31.27922852 172.29052734 -31.95922852 172.29052734 C-32.28922852 173.28052734 -32.61922852 174.27052734 -32.95922852 175.29052734 C-34.49047852 176.79833984 -34.49047852 176.79833984 -36.45922852 178.41552734 C-39.57834055 181.047105 -42.44806987 183.78226454 -45.27172852 186.72802734 C-61.50835854 203.07548761 -82.60780598 212.18959806 -104.95922852 216.29052734 C-105.84481445 216.49548828 -106.73040039 216.70044922 -107.64282227 216.91162109 C-116.38278828 218.84053292 -128.37375257 220.15235266 -136.95922852 217.29052734 C-139.01816472 217.0672692 -141.08156505 216.88346976 -143.14672852 216.72802734 C-144.2334082 216.64423828 -145.32008789 216.56044922 -146.43969727 216.47412109 C-147.27114258 216.41353516 -148.10258789 216.35294922 -148.95922852 216.29052734 C-145.60081352 223.87925354 -141.4152194 230.05208816 -135.95922852 236.29052734 C-135.43844727 236.90669922 -134.91766602 237.52287109 -134.38110352 238.15771484 C-120.877255 252.9573872 -100.43182123 259.85090304 -80.95922852 261.29052734 C-62.16448831 262.03155442 -44.13034327 254.78635178 -29.73657227 242.93896484 C-27.21415984 240.59949662 -25.12640572 237.95782237 -22.95922852 235.29052734 C-21.78896145 234.24998328 -20.59933465 233.23102058 -19.39672852 232.22802734 C-12.19291559 226.09043341 -5.78148742 218.82762286 0.16577148 211.47802734 C4.65693321 206.23614357 10.29153594 200.02655352 17.47827148 199.22802734 C25.94665447 200.03739492 32.76794343 208.80360779 38.36108398 214.61083984 C40.19551838 216.44527424 42.12593577 218.11165739 44.10327148 219.79052734 C54.03180396 228.4635061 54.03180396 228.4635061 55.16577148 234.29052734 C55.31577783 239.72240836 52.65318146 243.49496413 49.13647461 247.41113281 C46.86869678 249.72213062 44.56091322 251.98255174 42.22827148 254.22802734 C37.20812179 259.10746385 32.33485849 263.99786607 27.77246094 269.30981445 C18.62618408 279.77136022 8.64867053 289.1969184 -2.78735352 297.09130859 C-5.88894759 299.15799842 -5.88894759 299.15799842 -8.25610352 301.27880859 C-32.20836192 319.10455003 -64.80617409 322.47050016 -93.51977539 320.45947266 C-95.72302889 320.30688544 -97.92566873 320.17975558 -100.13110352 320.06396484 C-108.5574428 319.55838449 -108.5574428 319.55838449 -111.95922852 317.29052734 C-114.51642393 316.51728705 -117.06861439 315.79785249 -119.64672852 315.10302734 C-146.93463674 307.33434179 -173.05936213 290.43340319 -189.95922852 267.29052734 C-189.95922852 266.63052734 -189.95922852 265.97052734 -189.95922852 265.29052734 C-190.61922852 265.29052734 -191.27922852 265.29052734 -191.95922852 265.29052734 C-193.22436523 263.56567383 -193.22436523 263.56567383 -194.63891602 261.16162109 C-195.15583008 260.29085938 -195.67274414 259.42009766 -196.20532227 258.52294922 C-196.74286133 257.600625 -197.28040039 256.67830078 -197.83422852 255.72802734 C-198.3640332 254.83277344 -198.89383789 253.93751953 -199.43969727 253.01513672 C-200.48343268 251.2475203 -201.52095059 249.47621681 -202.55200195 247.70117188 C-203.38369968 246.27643499 -204.22636048 244.85784719 -205.09301758 243.45410156 C-221.48718621 216.47503715 -223.03123506 180.15901816 -215.95922852 150.29052734 C-208.99167194 122.02382084 -194.71208979 96.72349429 -170.95922852 79.29052734 C-169.71206055 78.35660156 -169.71206055 78.35660156 -168.43969727 77.40380859 C-142.56771896 58.62115978 -110.64988327 51.7168658 -79.16113281 56.47509766 C-58.3311669 59.95041391 -40.11912262 68.07060276 -22.95922852 80.29052734 C-20.36973145 77.70970531 -17.79761944 75.12140156 -15.27172852 72.47802734 C-12.95922852 70.29052734 -12.95922852 70.29052734 -10.95922852 70.29052734 C-10.95922852 69.30052734 -10.95922852 68.31052734 -10.95922852 67.29052734 C-9.42797852 65.75537109 -9.42797852 65.75537109 -7.45922852 64.22802734 C-5.5244288 62.76109276 -5.5244288 62.76109276 -3.95922852 61.29052734 C-3.95922852 60.63052734 -3.95922852 59.97052734 -3.95922852 59.29052734 C-3.40235352 59.08427734 -2.84547852 58.87802734 -2.27172852 58.66552734 C0.29923934 57.13684375 1.76756399 55.28364373 3.60327148 52.95458984 C6.10502693 50.05853598 9.07775413 47.69851263 12.04077148 45.29052734 C11.1801176 40.67399089 8.40839056 38.36329381 5.10717773 35.23974609 C3.88881961 34.05446556 2.67072901 32.86890999 1.45288086 31.68310547 C-0.46953869 29.82887945 -2.39578931 27.97892404 -4.32763672 26.13452148 C-6.193718 24.34727861 -8.04379809 22.5446067 -9.89282227 20.73974609 C-10.46995468 20.19783127 -11.0470871 19.65591644 -11.64170837 19.09757996 C-15.33577804 15.47269553 -17.06793212 12.55157015 -17.95922852 7.29052734 C-16.79003202 4.19559543 -15.85171393 2.7900161 -12.96058655 1.17196655 C-8.63168149 -0.09934684 -4.49002862 -0.00433463 0 0 Z M-141.23754883 132.93017578 C-147.36644644 141.32833216 -153.11755045 150.63424352 -152.95922852 161.29052734 C-148.33276762 161.31528203 -143.70634546 161.33341329 -139.07983398 161.34545898 C-137.50658496 161.35048172 -135.93334059 161.3573011 -134.36010742 161.3659668 C-132.09626109 161.37812264 -129.83247658 161.3837763 -127.56860352 161.38818359 C-126.86741394 161.39334488 -126.16622437 161.39850616 -125.44378662 161.40382385 C-122.12447447 161.4042035 -119.13366932 161.29368761 -115.95922852 160.29052734 C-115.15227539 160.09974609 -114.34532227 159.90896484 -113.51391602 159.71240234 C-103.31700092 157.15574142 -94.1365612 153.24974823 -86.95922852 145.29052734 C-86.95922852 144.63052734 -86.95922852 143.97052734 -86.95922852 143.29052734 C-86.38688477 143.04302734 -85.81454102 142.79552734 -85.22485352 142.54052734 C-82.6091224 141.09736535 -80.81149396 139.40836512 -78.70922852 137.29052734 C-78.00282227 136.58927734 -77.29641602 135.88802734 -76.56860352 135.16552734 C-74.74212452 133.44941967 -74.74212452 133.44941967 -74.95922852 131.29052734 C-73.63922852 130.63052734 -72.31922852 129.97052734 -70.95922852 129.29052734 C-70.95922852 128.63052734 -70.95922852 127.97052734 -70.95922852 127.29052734 C-70.34047852 127.04302734 -69.72172852 126.79552734 -69.08422852 126.54052734 C-66.58442649 125.07005556 -66.12606829 123.87649658 -64.95922852 121.29052734 C-90.83758419 106.93551242 -121.57710004 107.71253368 -141.23754883 132.93017578 Z" transform="translate(316.96 72.71)"/></svg>