<svg xmlns="http://www.w3.org/2000/svg" viewBox="0 0 86.07 86.07"><defs><style>.cls-1{fill:none;}.cls-2{fill:#283778;}.cls-3{fill:#28beeb;}</style></defs><g id="書き出し用"><rect class="cls-1" width="86.07" height="86.07"/><path class="cls-2" d="M32.05,55.44a.3.3,0,0,0,.1.25L48.07,71.62c2,2,11.25-7.22,9.24-9.23L41.4,46.48a.35.35,0,0,0-.25-.1c-.67,0-2.52.49-5.55,3.53S32.11,54.83,32.05,55.44Z"/><path class="cls-2" d="M36.43,31.57c0-.57-.33-2.45-3.53-5.66-2.7-2.69-4.49-3.35-5.28-3.5a.35.35,0,0,0-.34.1h0a20,20,0,0,0,0,28.32l2.27,2.27a.17.17,0,0,0,.28-.05,17.16,17.16,0,0,1,3.77-5.14,17,17,0,0,1,5.14-3.77.17.17,0,0,0,0-.27l-2.28-2.28A7,7,0,0,1,36,32.27C36.27,32,36.43,31.81,36.43,31.57Z"/><path class="cls-3" d="M56.9,42.05h-.11A10.2,10.2,0,0,1,50,38.37a.33.33,0,0,0-.52,0,6.15,6.15,0,0,1-.59.67l-4.42,4.42a1.1,1.1,0,0,0,0,1.54l7.7,7.7a1.1,1.1,0,0,0,1.54,0l3.38-3.39c2.4-2.39,4.76-5.27,5.4-7.6a.32.32,0,0,0-.43-.41A11.52,11.52,0,0,1,56.9,42.05Z"/><path class="cls-2" d="M57.14,39.23A7.44,7.44,0,0,0,63,37.43a3.86,3.86,0,0,0,1-1.79A20,20,0,0,0,29.78,20c-.11.12,0,.15,0,.16a17.22,17.22,0,0,1,5.12,3.75,17.12,17.12,0,0,1,3.82,5.26c.1.21.18.15.47-.09a7.13,7.13,0,0,1,9.35-.21,6.91,6.91,0,0,1,2.37,4.64,4.41,4.41,0,0,0,.3,1.35A8.63,8.63,0,0,0,52,36.23,7.14,7.14,0,0,0,57.14,39.23Z"/></g></svg>