<svg width="652" height="737" viewBox="0 0 652 737" fill="none" xmlns="http://www.w3.org/2000/svg">
<path fill-rule="evenodd" clip-rule="evenodd" d="M526.013 400.891L552.636 479.85L599.093 400.891H526.013ZM521.164 230.153V376.171H599.995L521.164 230.153ZM496.244 312.594V194.652H456.478L496.244 312.594ZM409.52 55.4234L448.134 169.92H488.652L422.888 48.1119L409.52 55.4109V55.4234ZM355.233 691.361H414.343L392.042 650.576L384.65 658.534C375.88 669.14 366.108 680.108 355.233 691.361ZM326.291 654.169L327.293 416.297C320.929 419.966 311.783 425.661 301.021 433.109C302.035 462.479 306.784 562.502 326.291 654.169ZM258.849 465.762C259.751 484.575 265.389 552.119 300.444 625.645C287.803 553.636 283.205 482.312 281.601 447.259C273.836 453.204 266.248 459.374 258.849 465.762ZM237.274 691.361H298.79L294.092 685.89C282.543 673.66 271.556 660.918 261.167 647.703L237.274 691.348V691.361ZM217.604 506.609C219.822 519.877 237.124 569.901 280.123 629.462C251.808 568.508 242.824 512.727 240.005 482.984C232.193 490.533 224.714 498.415 217.591 506.609H217.604ZM248.688 383.955V440.532C258.685 431.963 269.127 423.919 279.972 416.434C307.548 396.166 318.774 392 325.853 391.553H325.815V383.955H248.688ZM52.5247 400.891L102.189 485.284L136.367 400.891H52.5247ZM142.356 266.884L56.3585 376.159H142.344V266.884H142.356ZM167.288 235.214V324.58L227.765 175.23L219.684 168.627L167.276 235.214H167.288ZM569.086 500.964H619.164L631.63 513.336V703.708L619.164 716.093H32.4536L20 703.733V513.349L32.4536 500.976H82.5437L20.0501 394.786L20.9772 380.934L207.907 143.422L224.883 141.557L225.196 141.134L309.177 203.655L294.217 223.451L248.813 189.629L118.1 512.354L215.925 678.541L244.879 625.645C195.829 554.93 192.258 506.236 192.083 503.488L195.002 494.784C204.142 483.997 213.735 473.597 223.756 463.611V371.595L236.234 359.223H415.396L427.862 371.595V460.738C438.06 470.711 448.685 482.001 459.535 494.796L462.441 503.488C462.291 506.273 458.62 556.011 408.029 627.982L435.718 678.541L535.923 508.263L387.344 67.5594L346.588 89.8793L334.56 68.2185L421.873 20.3954L438.887 25.3941L631.793 382.699L631.568 394.786L569.061 500.976L569.086 500.964Z" fill="white"/>
</svg>
