<?xml version="1.0" encoding="UTF-8"?>
<svg id="Layer_1" xmlns="http://www.w3.org/2000/svg" version="1.1" viewBox="0 0 498.096 611.427">
  <!-- Generator: Adobe Illustrator 30.0.0, SVG Export Plug-In . SVG Version: 2.1.1 Build 123)  -->
  <g>
    <polygon points="133.49 216.764 145.948 223.85 133.49 216.658 133.49 216.764"/>
    <path d="M250.355,293.777c-.311,0-.622-.079-.9-.236l-19.462-11.01,19.743,11.399c.233.134.492.201.752.201s.519-.068.752-.201l32.587-18.814-32.571,18.425c-.279.157-.589.236-.9.236Z"/>
    <path d="M377.3,72.983L251.239.201c-.465-.269-1.038-.269-1.503,0l-126.06,72.782c-.459.264-.741.752-.749,1.281-.048.16-.078.326-.078.497v146.142c0,.631.343,1.213.9,1.528l106.243,60.1,19.462,11.01c.279.157.589.236.9.236s.622-.079.9-.236l32.571-18.425,93.135-52.685c.557-.315.9-.898.9-1.528v-.331c.121-.219.19-.466.19-.725V74.285c0-.537-.286-1.034-.752-1.302ZM245.324,280.375l-99.376-56.525-12.458-7.086v-127.228l111.834,63.612v127.227ZM250.355,143.835l-117.084-66.234L250.487,9.926l117.085,67.599-117.217,66.31ZM367.709,216.529v.236l-27.571,15.682-84.264,47.929v-127.227l111.834-63.612v126.992Z"/>
    <path d="M272.515,221.767l22.19,14.904c1.144.768,2.867.668,4.551-.265l32.678-18.093c1.683-.93,3.293-2.673,4.251-4.603l18.556-37.458c.958-1.931,1.242-4.009.75-5.485l-9.536-28.625c-.491-1.476-1.748-2.319-3.317-2.229l-30.45,1.767c-.88.052-1.831.378-2.769.947-.746.453-1.466,1.051-2.119,1.758l-28.433,30.828c-1.466,1.589-2.517,3.71-2.775,5.6l-5.001,36.671c-.231,1.685.165,3.162,1.07,4.001.11.103.227.198.352.282Z"/>
  </g>
  <g>
    <path d="M0,552.33v-232.169h45.53v116.387h30.453l38.594-67.541h50.956l-51.258,88.646,53.971,94.677h-52.464l-41.307-77.188h-28.946v77.188H0Z"/>
    <path d="M351.865,490.519c0,39.198-19.6,64.524-66.335,64.524-22.916,0-39.198-5.426-47.037-12.663v69.046h-45.528v-179.704c0-39.499,24.422-65.731,79.298-65.731,55.178,0,79.602,26.233,79.602,65.731v58.796ZM272.263,406.093c-24.422,0-33.77,12.664-33.77,31.359v47.338c0,18.694,9.348,31.358,33.77,31.358,24.725,0,34.072-12.664,34.072-31.358v-47.338c0-18.694-9.348-31.359-34.072-31.359Z"/>
    <path d="M401.61,480.569v-75.079h-26.233v-36.484h26.233v-37.69h45.528v37.69h49.751v36.484h-49.751v72.063c0,28.645,9.047,35.278,31.961,35.278h18.996v39.8h-29.549c-48.243,0-66.936-20.803-66.936-72.062Z"/>
  </g>
</svg>