<svg xmlns="http://www.w3.org/2000/svg" role="img" viewBox="1.34 0.34 1698.32 666.32"><path fill="#040404" fill-rule="evenodd" d="M306.648 39.093c-.708 6.773-3.596 14.15-6.947 17.742-7.734 8.291-33.889 13.434-43.208 8.496-3.838-2.034-11.156-9.259-16.52-16.309l-2.528-3.321-15.472 6.475c-12.674 5.304-15.446 6.824-15.322 8.4.084 1.058.708 5.524 1.388 9.924 1.781 11.531.562 15.306-7.434 23.026-8.19 7.907-22.592 15.478-29.415 15.464-5.371-.011-13.034-3.237-20.219-8.511-2.606-1.913-5.076-3.479-5.488-3.479-.625 0-5.943 4.7-23.827 21.057-1.784 1.631-1.755 1.826.889 6.014 10.84 17.172 9.908 26.296-4.45 43.547-10.062 12.09-17.821 14.466-34.332 10.515l-7.738-1.852-2.384 4.11c-1.311 2.26-4.961 8.956-8.112 14.88l-5.728 10.77 7.152 6.621c3.933 3.642 8.066 8.416 9.185 10.608 3.775 7.4 1.918 21.109-4.774 35.243-4.852 10.248-11.521 14.143-25.997 15.183l-8.134.585-.554 4.109c-1.758 13.036-2.91 29.764-2.097 30.456.505.429 3.618 1.595 6.918 2.589 15.393 4.638 20.5 13.48 20.5 35.491 0 10.798-.215 12.141-2.75 17.145-2.506 4.947-3.415 5.756-10.239 9.106-14.297 7.02-14.601 8.685-6.945 37.965l.953 3.641 4.24-.98c5.663-1.308 13.59-.431 18.432 2.039 11.101 5.664 21.19 25.592 20.063 39.631-.717 8.93-4.312 14.618-13.642 21.581l-3.387 2.529 5.157 8.229c2.837 4.526 7.15 11.337 9.584 15.135l4.426 6.904 7.161-3.009c17.217-7.233 25.657-4.188 40.894 14.753 3.221 4.003 6.406 8.945 7.078 10.98 1.795 5.439.588 12.322-3.805 21.697l-3.873 8.265 13.876 10.816 13.876 10.816 3.845-4.368c4.27-4.851 11.633-9.219 17.206-10.207 5.07-.899 11.957.832 21.359 5.367 9.38 4.524 16.739 10.645 19.644 16.338 2.711 5.314 3.347 13.819 1.537 20.531-1.035 3.836-1.123 5.442-.314 5.73.618.22 7.591 2.469 15.494 4.998 7.904 2.528 14.95 4.819 15.658 5.091.808.31 2.666-2.13 4.99-6.552 6.067-11.546 13.687-17.089 23.482-17.084 5.606.003 15.983 1.884 22.888 4.148 8.692 2.849 12.716 6.799 18.068 17.734l4.455 9.105h32.498l.627-3.75c3.173-18.971 8.57-24.909 26.559-29.221 9.799-2.349 18.61-2.597 23.26-.654 4.449 1.859 9.85 6.744 15.329 13.865 5.406 7.025 4.035 7.086 23.147-1.028 12.638-5.366 13.305-5.791 12.849-8.186-2.257-11.846-2.613-15.066-2.076-18.754.95-6.519 5.387-12.505 13.577-18.318 18.268-12.968 27.698-13.389 44.286-1.977 2.416 1.663 4.762 3.019 5.213 3.015.789-.007 10.626-8.46 20.603-17.703l4.784-4.432-21.658-21.178c-11.912-11.649-22.303-21.553-23.091-22.011-.984-.571-2.746.302-5.626 2.788-32.284 27.873-58.53 43.139-92.86 54.009-66.611 21.093-145.246 9.338-206.832-30.919-55.757-36.447-91.886-95.43-101.687-166.012-1.887-13.587-2.136-46.385-.453-59.534 5.795-45.257 22.683-85.808 49.927-119.882C193.855 130.004 254.338 99.734 329 95.428c33.139-1.911 74.841 6.59 107.121 21.837 18.314 8.651 41.356 23.32 55.538 35.356 2.838 2.409 5.59 4.379 6.116 4.379 1.564 0 39.486-50.768 38.778-51.914-.358-.579-6.521-5.55-13.697-11.046l-13.047-9.994-5.655 4.63c-13.06 10.693-20.732 11.655-35.699 4.473-12.095-5.803-17.821-10.225-20.631-15.93-1.999-4.059-2.336-6.312-2.406-16.108l-.083-11.389-13.417-4.329c-19.734-6.368-17.855-6.39-21.83.257-4.588 7.671-9.615 13.068-14.485 15.552-3.587 1.831-5.252 1.998-15.068 1.512-22.094-1.093-30.427-6.421-35.715-22.841L342.606 33h-35.321l-.637 6.093M316 121.141c-73.565 6.73-139.203 52.266-172.053 119.359-39.216 80.098-24.475 175.604 37.023 239.865 65.262 68.195 165.174 86.088 249.53 44.69 20.765-10.191 38.242-22.608 51.351-36.485l5.351-5.664-5.322-5.703C467.249 461.525 444.176 438 443.43 438c-.465 0-2.44 1.537-4.388 3.415-12.21 11.772-36.95 26.385-54.359 32.109-17.111 5.626-25.642 6.878-47.183 6.922-22.068.045-30.072-1.075-47.464-6.644-49.893-15.974-86.621-57.519-98.23-111.114-2.968-13.699-3.24-44.5-.512-57.958 3.854-19.012 12.122-38.987 22.86-55.23 6.921-10.469 24.03-27.488 35.357-35.171 17.39-11.794 39.076-21.071 59.33-25.38 14.03-2.984 36.516-3.663 50.924-1.538 25.115 3.706 46.444 12.631 66.666 27.897 3.783 2.855 7.596 5.735 8.474 6.398 1.366 1.032 4.575-2.083 22.345-21.693 11.413-12.594 20.75-23.306 20.75-23.806 0-.499-2.587-3.143-5.75-5.875-41.954-36.247-99.547-54.378-156.25-49.191m492.667 74.526c-.367.366-.667 18.8-.667 40.964v40.298l-4.487-1.924c-9.477-4.062-30.494-10.187-41.362-12.055-26.157-4.494-46.914-1.109-66.139 10.788-9.736 6.025-25.987 22.288-33.254 33.278-26.427 39.966-20.515 93.25 14.206 128.034 12.958 12.982 27.718 21.417 46.666 26.669 8.818 2.444 11.522 2.734 25.37 2.719 12.751-.014 16.923-.402 23.524-2.191 10.078-2.731 20.573-7.036 28.55-11.711 3.397-1.991 6.429-3.366 6.739-3.057.309.31.757 3.254.995 6.542l.432 5.979H857V195h-23.833c-13.109 0-24.134.3-24.5.667m557.958 64.887c-33.049 6.567-60.509 27.114-75.029 56.142-8.028 16.049-11.015 30.86-10.345 51.304.519 15.835 2.712 24.978 8.994 37.5 10.926 21.776 32.8 42.088 55.504 51.539 14.655 6.101 21.114 7.304 39.251 7.308 14.585.003 17.611-.295 26.074-2.569 19.018-5.112 34.228-13.201 46.087-24.513 6.836-6.52 15.338-18.521 14.56-20.55-.299-.778-8.095-6.837-17.325-13.464l-16.782-12.049-6.372 5.406c-32.273 27.38-60.15 30.116-82.495 8.099-24.499-24.141-24.823-59.641-.765-83.737 8.211-8.224 14.5-12.079 23.553-14.437 11.458-2.984 22.624-1.478 35.965 4.851 7.386 3.504 20.993 13.199 25.937 18.479 1.615 1.725 3.42 3.137 4.009 3.137 1.396 0 34.788-24.201 35.232-25.535.59-1.77-12.576-17.28-20.025-23.59-13.57-11.495-29.715-19.363-47.153-22.981-10.705-2.221-28.619-2.378-38.875-.34m-836.97 1.043c-18.349 3.315-39.542 13.21-55.019 25.688l-2.864 2.308 9.137 14.759c5.025 8.118 10.247 16.519 11.605 18.67l2.469 3.911 6.758-5.126c13.459-10.208 26.94-14.757 43.827-14.79 21.164-.04 30.432 7.261 30.432 23.972v7.565l-23.25 2.328c-51.595 5.165-64.165 8.684-77.226 21.618C465.01 372.912 460 386.128 460 403.45c0 28.419 16.666 48.801 47.549 58.153 7.722 2.338 10.805 2.723 22.451 2.802 11.528.078 14.589-.251 20.957-2.249 10.834-3.399 20.302-8.373 31.014-16.293l2.978-2.201 5.522 5.222c6.168 5.833 13.353 9.427 22.065 11.038 6.347 1.173 23.712 1.428 29.714.436l3.75-.62V416l-3.75-.08c-6.744-.145-12.597-2.207-13.962-4.92-.943-1.872-1.267-11.917-1.291-40-.042-49.886-1.221-60.293-8.567-75.667-6.563-13.733-18.59-23.745-35.22-29.316-17.138-5.742-37.114-7.391-53.555-4.42M961 260.651c-15.848 3.137-31.077 9.281-43.123 17.399-8.172 5.508-20.32 17.657-25.829 25.831-19.387 28.767-23.333 66.821-10.177 98.134 6.865 16.338 21.516 34.225 35.999 43.946 9.28 6.23 25.369 13.542 35.13 15.967 34.218 8.502 74.726-2.107 98.889-25.898 5.369-5.286 14.111-17.05 14.111-18.988 0-.357-7.312-5.991-16.25-12.52-8.937-6.529-16.818-12.302-17.512-12.829-.91-.691-2.961.899-7.372 5.712-7.345 8.016-16.502 14.731-25.058 18.375-5.814 2.476-7.365 2.684-19.808 2.665-12.372-.019-14.127-.258-21-2.859-16.152-6.112-25.16-14.975-31.094-30.591L926.008 380h73.027c68.61 0 73.071-.106 73.746-1.75.396-.962.663-8.95.594-17.75-.107-13.704-.492-17.393-2.681-25.706-4.693-17.817-13.256-33.4-25.088-45.653-8.772-9.084-16.715-14.851-27.678-20.091-13.289-6.354-21.951-8.241-39.428-8.592-8.25-.166-16.125-.079-17.5.193m212 .776c-3.575.751-12.118 3.2-18.985 5.442l-12.485 4.078-3.515-3.377-3.515-3.376-13.21-.706c-7.266-.389-17.278-.385-22.25.009l-9.04.715V460h48.786l.469-60.25c.402-51.744.699-61.066 2.102-66.03 3.565-12.616 9.944-20.738 19.896-25.335 5.57-2.572 7.331-2.885 16.247-2.882 9.119.002 10.581.277 16.589 3.121 8.073 3.823 13.342 8.934 16.791 16.29l2.62 5.586.607 64.5c.334 35.475.672 64.613.75 64.75.079.137 11.104.25 24.502.25h24.358l.704-47.25c.818-54.922-.296-87.032-3.447-99.354-3.434-13.425-8.221-21.72-18.435-31.943-7.359-7.366-10.618-9.817-17.539-13.19-4.675-2.278-11.2-4.878-14.5-5.777-8.193-2.233-29.097-2.823-37.5-1.059m378.306-.006c-22.512 4.286-39.517 13.598-55.352 30.312-12.699 13.405-21.374 29.653-26.138 48.96-3.21 13.011-3.018 33.195.441 46.318 4.904 18.608 13.985 34.089 27.902 47.567 14.167 13.721 29.037 22.193 47.635 27.142 8.366 2.226 11.777 2.585 24.706 2.596 16.895.015 24.921-1.351 40.363-6.87 13.601-4.861 24.077-11.44 34.151-21.446 8.114-8.059 14.789-17.892 13.53-19.929-.484-.783-29.73-22.254-33.152-24.339-.629-.383-5.177 3.325-10.5 8.558-14.054 13.816-24.893 18.71-41.442 18.71-16.515 0-31.495-5.961-41.13-16.367-5.047-5.452-12.32-18.058-12.32-21.355 0-1.026 14.525-1.278 73.624-1.278h73.624l-.503-17.75c-.416-14.663-.942-19.415-3.022-27.324-9.829-37.367-34.131-62.964-68.394-72.042-10.148-2.688-33.51-3.465-44.023-1.463M740 306.563c-10.127 2.187-18.505 6.957-27.113 15.437C701.129 333.584 696 345.987 696 362.839c0 14.744 5.921 29.003 16.5 39.738 17.467 17.725 42.048 22.109 64 11.414 10.113-4.927 16.117-10.14 22.263-19.329 7.097-10.611 9.754-19.584 9.67-32.662-.112-17.415-5.881-30.75-18.245-42.176-13.394-12.378-31.782-17.236-50.188-13.261m221.105.02c-13.885 3.733-27.849 16.202-31.545 28.167l-.695 2.25h45.568c25.062 0 45.567-.253 45.567-.562 0-.309-1.157-3.008-2.572-5.998-5.289-11.18-17.018-20.647-29.796-24.05-6.602-1.758-19.627-1.663-26.527.193m593.708-.113c-2.578.71-6.853 2.328-9.5 3.596-6.681 3.2-17.344 14.114-20.639 21.122-1.471 3.129-2.674 5.941-2.674 6.25 0 .309 20.7.562 46 .562s46-.238 46-.529c0-.29-1.393-3.288-3.096-6.661-3.635-7.202-11.57-15.944-17.767-19.576-9.776-5.729-27.033-7.874-38.324-4.764M563 381.082c-23.368 2.562-35.103 4.193-40 5.561-9.921 2.769-15.005 8.557-14.996 17.075.014 13.966 22.051 23.215 41.213 17.297C567.175 415.468 577 403.199 577 386.318V380l-3.25.13c-1.788.071-6.625.5-10.75.952"/></svg>