<svg xmlns="http://www.w3.org/2000/svg" xmlns:xlink="http://www.w3.org/1999/xlink" fill="none" version="1.1" width="832" height="290" viewBox="0 0 832 290"><defs><clipPath id="master_svg0_408_9928"><rect x="0" y="0" width="832" height="290" rx="0"/></clipPath></defs><g clip-path="url(#master_svg0_408_9928)"><g><g><g><path d="M244.75784375,64.46276875000001C249.30584375,66.65276875,252.60884375,70.79446875,253.73184375,75.71546875L275.79884375,172.39696875C276.92184375,177.31796875,275.74284375,182.48196875,272.59584375,186.42896875L210.76584375,263.96096875C207.61884375,267.90696875000003,202.84584375,270.20596875,197.79884375,270.20596875L98.63104375,270.20596875C93.58354375,270.20596875,88.81064375,267.90696875000003,85.66354375,263.96096875L23.83354375,186.42896875C20.68645575,182.48196875,19.50765775,177.31796875,20.63083875,172.39696875L42.69764375,75.71546875C43.82084375,70.79456875,47.12374375,66.65276875,51.67144375,64.46276875000001L141.01884375,21.43549875C145.56584375,19.24545875,150.86384375,19.24545775,155.41084375,21.43549875L244.75784375,64.46276875000001Z" fill="#326CE5" fill-opacity="1"/><path d="M244.75784375,64.46276875000001C249.30584375,66.65276875,252.60884375,70.79446875,253.73184375,75.71546875L275.79884375,172.39696875C276.92184375,177.31796875,275.74284375,182.48196875,272.59584375,186.42896875L210.76584375,263.96096875C207.61884375,267.90696875000003,202.84584375,270.20596875,197.79884375,270.20596875L98.63104375,270.20596875C93.58354375,270.20596875,88.81064375,267.90696875000003,85.66354375,263.96096875L23.83354375,186.42896875C20.68645575,182.48196875,19.50765775,177.31796875,20.63083875,172.39696875L42.69764375,75.71546875C43.82084375,70.79456875,47.12374375,66.65276875,51.67144375,64.46276875000001L141.01884375,21.43549875C145.56584375,19.24545875,150.86384375,19.24545775,155.41084375,21.43549875L244.75784375,64.46276875000001ZM240.41984375,73.47236875L151.07284375,30.44516875Q148.21484375,29.06905875,145.35684375,30.44516875L56.01034375,73.47246874999999Q53.15274375,74.84856875,52.44694375,77.94076874999999L30.380143750000002,174.62196875Q29.674363749999998,177.71396875,31.651843749999998,180.19396875L93.48184375,257.72596875Q95.45934375,260.20596875,98.63104375,260.20596875L197.79884375,260.20596875Q200.96984375,260.20596875,202.94784375,257.72596875L264.77784375,180.19396875Q266.75484374999996,177.71396875,266.04984375000004,174.62196875L243.98284375,77.94066875Q243.27684375,74.84856875,240.41984375,73.47236875Z" fill-rule="evenodd" fill="#FFFFFF" fill-opacity="1"/></g><g><path d="M197.1054375,86.16241795654297L203.7134375,86.16241795654297L203.7134375,85.85791795654296L203.7104375,78.77256795654297L206.2804375,78.77256795654297L206.2804375,72.19371795654297L197.1054375,72.19371795654297L197.1054375,86.16241795654297ZM225.7694375,104.90261795654297L219.1654375,104.90261795654297L219.1654375,78.77256795654297L213.1534375,78.77256795654297L213.1534375,72.19371795654297L225.7694375,72.19371795654297L225.7694375,104.90261795654297ZM183.6434375,103.16591795654297L177.03943750000002,103.16591795654297L177.03943750000002,88.70441795654297L186.2144375,88.70441795654297L186.2144375,95.13671795654297L183.6434375,95.13671795654297L183.6434375,103.16591795654297ZM205.7034375,121.41341795654297L199.0984375,121.41341795654297L199.0984375,95.28331795654297L193.0874375,95.28331795654297L193.0874375,88.70441795654297L205.7034375,88.70441795654297L205.7034375,121.41341795654297ZM156.9453375,105.54961795654296L156.9453375,133.63901795654297L185.0344375,133.63901795654297L185.0344375,105.54961795654296L156.9453375,105.54961795654296ZM138.7695375,117.15851795654297L138.7695375,110.56351795654297L154.24383749999998,110.56351795654297L154.24383749999998,117.15851795654297L138.7695375,117.15851795654297ZM112.7109375,124.55861795654297L119.3192375,124.55861795654297L119.31903750000001,124.25421795654296L119.3154375,117.25401795654297L128.85343749999998,117.25401795654297L128.85343749999998,110.67511795654298L112.7109375,110.67511795654298L112.7109375,124.55861795654297ZM225.7684375,114.32851795654297L219.1644375,114.32851795654297L219.1644375,151.052117956543L225.7684375,151.052117956543L225.7684375,114.32851795654297ZM118.7031375,127.06891795654298L118.7031375,133.67321795654297L151.4140375,133.67321795654297L151.4140375,127.06891795654298L118.7031375,127.06891795654298ZM99.24883750000001,145.70081795654295L92.6445375,145.70081795654295L92.6445375,127.18591795654297L108.7870375,127.18591795654297L108.7870375,133.75421795654296L99.24883750000001,133.75421795654296L99.24883750000001,145.70081795654295ZM199.0974375,130.83921795654297L205.7024375,130.83921795654297L205.7024375,167.56291795654298L199.0974375,167.56291795654298L199.0974375,130.83921795654297ZM71.2734375,147.68431795654297L71.2734375,175.77371795654295L99.3628375,175.77371795654295L99.3628375,147.68431795654297L71.2734375,147.68431795654297ZM114.10933750000001,147.68431795654297L114.10933750000001,175.77371795654295L142.1988375,175.77371795654295L142.1988375,147.68431795654297L114.10933750000001,147.68431795654297ZM156.9453375,175.77371795654295L156.9453375,147.68431795654297L185.0344375,147.68431795654297L185.0344375,175.77371795654295L156.9453375,175.77371795654295ZM225.7694375,160.47721795654297L219.1654375,160.47721795654297L219.1654375,177.62571795654299L208.8594375,177.62571795654299L208.8594375,184.20471795654296L225.7694375,184.20471795654296L225.7694375,160.47721795654297ZM205.7034375,176.98771795654295L199.0984375,176.98771795654295L199.0984375,194.13671795654295L188.7924375,194.13671795654295L188.7924375,200.71471795654296L205.7034375,200.71471795654296L205.7034375,176.98771795654295ZM71.2734375,190.52071795654297L71.2734375,218.60971795654297L99.3628375,218.60971795654297L99.3628375,190.52071795654297L71.2734375,190.52071795654297ZM114.10933750000001,190.52071795654297L114.10933750000001,218.60971795654297L142.1988375,218.60971795654297L142.1988375,190.52071795654297L114.10933750000001,190.52071795654297ZM156.9453375,218.60971795654297L156.9453375,190.52071795654297L185.0344375,190.52071795654297L185.0344375,218.60971795654297L156.9453375,218.60971795654297Z" fill-rule="evenodd" fill="#FFFFFF" fill-opacity="1"/></g></g><g><path d="M383.689375,94.25125L383.689375,163.85125C383.689375,171.53625,382.239375,177.04625,379.629375,180.52625C376.874375,184.00625,372.524375,185.89125,366.434375,185.89125C355.704375,185.89125,350.339375,179.65625,350.339375,167.33125L350.339375,163.99625L334.534375,163.99625L334.534375,167.47625C334.534375,177.62625,337.289375,185.45625,342.799375,191.25625C348.019375,196.91125,355.849375,199.81125,366.14437499999997,199.81125C378.034375,199.81125,386.734375,196.62125,392.244375,190.53125C397.029375,184.73125,399.494375,176.03125,399.494375,164.43125L399.494375,94.25125L383.689375,94.25125ZM452.854375,120.78625C441.544375,120.78625,432.409375,124.55625,425.594375,132.09625C418.779375,139.49124999999998,415.444375,148.91625,415.444375,160.37125C415.444375,171.68125,418.779375,181.10625,425.44937500000003,188.35625C432.409375,195.89625,441.544375,199.81125,452.854375,199.81125C464.164375,199.81125,473.299375,195.89625,480.259375,188.35625C486.929375,181.10625,490.264375,171.68125,490.264375,160.37125C490.264375,148.91625,486.784375,139.49124999999998,480.114375,132.09625C473.299375,124.55625,464.164375,120.78625,452.854375,120.78625ZM452.854375,133.40125C459.959375,133.40125,465.469375,136.15625,469.52937499999996,141.81125C473.009375,146.59625,474.749375,152.83125,474.749375,160.37125C474.749375,167.76625,473.009375,173.85625,469.52937499999996,178.78625C465.469375,184.29625,459.959375,187.19625,452.854375,187.19625C445.749375,187.19625,440.239375,184.29625,436.32437500000003,178.78625C432.844375,174.00125,431.249375,167.91125,431.249375,160.37125C431.249375,152.83125,432.844375,146.59625,436.32437500000003,141.81125C440.239375,136.15625,445.749375,133.40125,452.854375,133.40125ZM504.909375,92.22125L504.909375,197.78125L519.264375,197.78125L519.264375,188.79125C524.484375,196.04125,532.169375,199.81125,542.464375,199.81125C553.484375,199.81125,562.0393750000001,195.89625,568.419375,188.06625C574.219375,180.81625,577.119375,171.39125,577.119375,159.93625C577.119375,148.91625,574.219375,139.78125,568.564375,132.53125C562.329375,124.70125,553.919375,120.78625,543.189375,120.78625C533.909375,120.78625,526.369375,125.13625,520.279375,133.98125L520.279375,92.22125L504.909375,92.22125ZM539.709375,133.25625C547.249375,133.25625,552.904375,135.72125,556.529375,140.94125C559.719375,145.29125,561.314375,151.67125,561.314375,159.93625C561.314375,168.20125000000002,559.719375,174.58125,556.819375,179.22125C553.194375,184.58625,547.684375,187.34125,540.144375,187.34125C533.474375,187.34125,528.254375,184.58625,524.629375,179.36625C521.439375,174.58125,519.844375,168.49124999999998,519.844375,160.95125000000002L519.844375,159.64625C519.844375,151.52625,521.729375,145.00125,525.7893750000001,140.07125000000002C529.269375,135.43125,533.909375,133.25625,539.709375,133.25625ZM629.319375,92.22125C618.299375,92.22125,609.1643750000001,94.68625,601.9143750000001,99.61625000000001C594.229375,104.83625,590.459375,111.94125,590.459375,121.07625C590.459375,130.06625,594.374375,137.02625,602.349375,141.81125C605.5393750000001,143.55124999999998,613.369375,146.30625,626.129375,150.36624999999998C637.584375,153.84625,644.399375,156.16625,646.719375,157.32625000000002C653.244375,160.66125,656.579375,165.15625,656.579375,170.95625C656.579375,175.59625,654.259375,179.22125,649.619375,181.83125C644.979375,184.44125,638.744375,185.89125,630.9143750000001,185.89125C622.214375,185.89125,615.834375,184.29625,611.629375,181.10625C606.989375,177.62625,604.089375,171.68125,602.9293749999999,163.56125L587.269375,163.56125C588.139375,176.61125,592.7793750000001,186.18125,601.334375,192.27125C608.4393749999999,197.20125,618.299375,199.81125,630.9143750000001,199.81125C643.964375,199.81125,654.114375,197.20125,661.364375,191.98125C668.614375,186.61625,672.239375,179.36625,672.239375,170.08625C672.239375,160.51625,667.744375,153.12125,658.899375,147.75625C654.839375,145.29125,645.704375,141.95625,631.784375,137.60625C622.069375,134.70625,616.124375,132.53125,613.8043749999999,131.22625C608.584375,128.47125,606.119375,124.84625,606.119375,120.20625C606.119375,114.98625,608.294375,111.21625,612.7893750000001,108.89625C616.4143750000001,106.86625000000001,621.634375,105.85125,628.4493749999999,105.85125C636.2793750000001,105.85125,642.079375,107.30125000000001,646.139375,110.34625C650.1993749999999,113.24625,652.809375,118.17625,654.259375,124.84625L669.919375,124.84625C668.9043750000001,113.53625,664.844375,105.27125000000001,657.594375,99.90625C650.7793750000001,94.68625,641.354375,92.22125,629.319375,92.22125ZM717.1893749999999,120.78625C706.169375,120.78625,697.3243749999999,124.55625,690.944375,132.24124999999998C684.274375,139.78125,681.084375,149.06125,681.084375,160.22625C681.084375,172.55125,684.5643749999999,182.26625,691.524375,189.51625C697.9043750000001,196.33125,706.749375,199.81125,717.7693750000001,199.81125C727.774375,199.81125,736.0393750000001,196.91125,742.5643749999999,191.25625C747.784375,186.61625,751.119375,180.67125,752.859375,173.71125L737.489375,173.71125C735.459375,178.06125,733.284375,181.39625,730.674375,183.42625C727.339375,185.89125,722.989375,187.19625,717.624375,187.19625C711.534375,187.19625,706.749375,185.16625,703.2693750000001,181.39625C699.7893750000001,177.48125,697.9043750000001,171.82625,697.3243749999999,164.57625000000002L754.1643750000001,164.57625000000002C754.0193750000001,151.23624999999998,750.974375,140.79625,745.174375,133.25625C738.794375,124.84625,729.369375,120.78625,717.1893749999999,120.78625ZM717.624375,133.40125C729.8043749999999,133.40125,736.619375,139.92624999999998,738.069375,152.97625L697.614375,152.97625C698.484375,146.59625,700.659375,141.81125,703.849375,138.47625C707.329375,134.99625,711.8243749999999,133.40125,717.624375,133.40125ZM789.979375,98.60125L774.609375,104.98125L774.609375,122.81625L760.6893749999999,122.81625L760.6893749999999,135.57625000000002L774.609375,135.57625000000002L774.609375,179.07625C774.609375,185.02125,775.9143750000001,189.51625,778.8143749999999,192.70625C781.714375,196.04125,786.499375,197.78125,792.879375,197.78125L805.204375,197.78125L805.204375,185.02125L795.344375,185.02125C793.459375,185.02125,792.1543750000001,184.44125,791.284375,183.57125C790.4143750000001,182.55625,789.979375,181.10625,789.979375,179.07625L789.979375,135.57625000000002L807.089375,135.57625000000002L807.089375,122.81625L789.979375,122.81625L789.979375,98.60125Z" fill="#326CE5" fill-opacity="1"/></g></g></g></svg>