<svg xmlns="http://www.w3.org/2000/svg" role="img" xmlns:xlink="http://www.w3.org/1999/xlink" viewBox="-7.35 -7.85 642.20 279.70"><style>svg {enable-background:new 0 0 627 267}</style><style>.st0{opacity:.8}.st3,.st6{fill:#fff}.st6{fill-rule:evenodd;clip-rule:evenodd}</style><g class="st0"><defs><path id="SVGID_1_" d="M415.5 247.4h206.6v1H415.5z"/></defs><defs><path id="SVGID_2_" d="M622.6 248.9H415v-2h207.6v2zm-206.6-1h205.6H416z"/></defs><use fill="#fff" overflow="visible" xlink:href="#SVGID_1_"/><use fill="#fff" overflow="visible" xlink:href="#SVGID_2_"/><clipPath id="SVGID_3_"><use overflow="visible" xlink:href="#SVGID_1_"/></clipPath><clipPath id="SVGID_4_" clip-path="url(#SVGID_3_)"><use overflow="visible" xlink:href="#SVGID_2_"/></clipPath><g clip-path="url(#SVGID_4_)"><path d="M415.5 247.4h206.6v1H415.5z" class="st3"/><path d="M622.6 248.9H415v-2h207.6v2zm-206.6-1h205.6H416z" class="st3"/></g></g><g class="st0"><defs><path id="SVGID_5_" d="M5.7 247.4H209v1H5.7z"/></defs><defs><path id="SVGID_6_" d="M209.5 248.9H5.2v-2h204.3v2zm-203.3-1h202.3H6.2z"/></defs><use fill="#fff" overflow="visible" xlink:href="#SVGID_5_"/><use fill="#fff" overflow="visible" xlink:href="#SVGID_6_"/><clipPath id="SVGID_7_"><use overflow="visible" xlink:href="#SVGID_5_"/></clipPath><clipPath id="SVGID_8_" clip-path="url(#SVGID_7_)"><use overflow="visible" xlink:href="#SVGID_6_"/></clipPath><g clip-path="url(#SVGID_8_)"><path d="M5.7 247.4H209v1H5.7z" class="st3"/><path d="M209.5 248.9H5.2v-2h204.3v2zm-203.3-1h202.3H6.2z" class="st3"/></g></g><path d="M178.8 179.5c1.1-.3 2.4-.6 4.1-.9 1.7-.3 3.4-.4 5.2-.4 1.9 0 3.4.2 4.6.7 1.2.5 2.2 1.2 2.9 2.1.7.9 1.2 1.9 1.5 3.2.3 1.2.5 2.6.5 4.1v12.4h-6.2V189c0-2-.3-3.4-.8-4.2-.5-.8-1.5-1.2-3-1.2-.4 0-.9 0-1.4.1-.5 0-.9.1-1.3.1v16.9h-6.2v-21.2zm-11.4 10.2c0-1.9-.4-3.4-1.1-4.5-.8-1.1-1.9-1.6-3.3-1.6s-2.5.5-3.3 1.6c-.8 1.1-1.2 2.6-1.2 4.5s.4 3.4 1.2 4.6c.8 1.1 1.9 1.7 3.3 1.7s2.5-.6 3.3-1.7c.7-1.2 1.1-2.7 1.1-4.6m6.3 0c0 1.7-.2 3.3-.7 4.7-.5 1.4-1.2 2.6-2.2 3.7-.9 1-2.1 1.8-3.4 2.4-1.3.6-2.8.8-4.4.8-1.6 0-3.1-.3-4.4-.8-1.3-.6-2.4-1.3-3.4-2.4-.9-1-1.7-2.2-2.2-3.7-.5-1.4-.8-3-.8-4.7 0-1.7.3-3.3.8-4.7.5-1.4 1.3-2.6 2.2-3.6 1-1 2.1-1.8 3.4-2.3 1.3-.6 2.8-.8 4.3-.8 1.6 0 3 .3 4.3.8 1.3.6 2.4 1.3 3.4 2.3.9 1 1.7 2.2 2.2 3.6.6 1.4.9 2.9.9 4.7M140 201.2c-4.7 0-8.3-1.3-10.7-3.9-2.5-2.6-3.7-6.3-3.7-11.1 0-2.4.4-4.5 1.1-6.4.7-1.9 1.8-3.5 3.1-4.7 1.3-1.3 2.9-2.3 4.7-2.9 1.8-.7 3.8-1 5.9-1 1.2 0 2.3.1 3.3.3 1 .2 1.9.4 2.6.6.7.2 1.4.5 1.9.7.5.2.9.4 1.1.6l-1.9 5.2c-.9-.5-1.9-.9-3.1-1.2-1.2-.3-2.5-.5-4-.5-1 0-2 .2-2.9.5-1 .3-1.8.9-2.5 1.6-.7.7-1.3 1.7-1.8 2.8-.4 1.2-.7 2.6-.7 4.2 0 1.3.1 2.6.4 3.7.3 1.2.8 2.1 1.4 3 .7.8 1.5 1.5 2.6 2s2.3.7 3.8.7c.9 0 1.8-.1 2.5-.2.8-.1 1.4-.2 2-.4.6-.2 1.1-.3 1.5-.5.4-.2.8-.4 1.2-.5l1.8 5.2c-.9.6-2.2 1.1-3.9 1.5-1.6.5-3.5.7-5.7.7m-24.7-13.7c0-.5-.1-1-.3-1.5-.2-.5-.4-.9-.7-1.3-.3-.4-.7-.7-1.2-1-.5-.2-1.1-.4-1.8-.4s-1.3.1-1.8.4c-.5.2-.9.5-1.2.9-.3.4-.6.8-.8 1.4-.2.5-.3 1-.4 1.6h8.2zm-14.5 2.4c0-1.9.3-3.6.9-5.1.6-1.5 1.4-2.7 2.4-3.6 1-1 2.1-1.7 3.3-2.2 1.3-.5 2.6-.7 3.9-.7 3.1 0 5.6.9 7.4 2.8 1.8 1.9 2.7 4.7 2.7 8.4v1.2c0 .4-.1.8-.1 1.1h-14.1c.1 1.3.7 2.3 1.8 3 1.1.7 2.5 1.1 4.2 1.1 1.1 0 2.3-.1 3.3-.3s2-.5 2.7-.8l.8 5c-.3.2-.8.3-1.3.5-.6.2-1.2.3-1.9.4-.7.1-1.4.2-2.2.3-.8.1-1.6.1-2.3.1-2 0-3.7-.3-5.1-.9-1.5-.6-2.7-1.4-3.6-2.4-1-1-1.7-2.2-2.1-3.6-.5-1.2-.7-2.7-.7-4.3m-4.1-.2c0 1.7-.3 3.3-.8 4.7-.5 1.4-1.3 2.6-2.2 3.6-1 1-2.2 1.8-3.6 2.3-1.4.5-3 .8-4.8.8-.7 0-1.5 0-2.4-.1l-2.4-.3c-.8-.1-1.5-.2-2.3-.4-.7-.2-1.4-.3-1.9-.5v-30.6l6.2-1v10.9c.7-.3 1.4-.5 2.2-.7.7-.2 1.6-.2 2.4-.2 1.6 0 2.9.3 4.1.8 1.2.5 2.2 1.3 3 2.3.8 1 1.4 2.2 1.8 3.6.5 1.5.7 3.1.7 4.8m-6.3-.2c0-4-1.5-6-4.4-6-.6 0-1.3.1-1.9.2-.6.2-1.1.4-1.5.6v11.3c.3.1.7.1 1.2.1s1 .1 1.5.1c1.7 0 3-.6 3.8-1.7.8-1.1 1.3-2.7 1.3-4.6m-20.2 10.4c-1.1.3-2.4.6-4.1.9-1.7.3-3.4.4-5.2.4-1.9 0-3.4-.2-4.6-.7-1.2-.5-2.2-1.2-2.9-2.1-.7-.9-1.2-2-1.5-3.2-.3-1.2-.5-2.6-.5-4.1v-12.2h6.2v11.4c0 2 .3 3.4.8 4.3.5.9 1.5 1.3 3 1.3.4 0 .9 0 1.4-.1.5 0 .9-.1 1.3-.1v-16.9h6.2v21.1zm-28.6.7c-.6-.9-1.3-2-2.1-3.1s-1.6-2.2-2.6-3.3c-.9-1.1-1.9-2.1-2.9-3.2-1-1-2-1.9-3-2.7v12.2h-6.5v-28.8H31v10.9c1.7-1.8 3.4-3.6 5.1-5.6 1.7-1.9 3.3-3.7 4.8-5.3h7.7c-2 2.3-3.9 4.6-5.9 6.7-2 2.2-4.1 4.3-6.3 6.5 2.3 1.9 4.5 4.2 6.7 6.8 2.1 2.6 4.2 5.5 6.2 8.7h-7.7z" class="st3"/><path d="M93.6 73.4l-3.6.8c0-.5-.1-1-.1-1.5 0-3.8 1-7.5 3-10.8l7 6.2c.1.1.2.2.4.3-.4 1-.7 2.1-.8 3.3-.2.1-.5.1-.7.2l-5.2 1.5zm13.6-21.2V62c-1 .3-1.9.8-2.7 1.4-.3-.2-.6-.5-.9-.7l-7.1-5c2.9-2.9 6.6-4.8 10.7-5.5M58.5 74.8c3.4-14.9 6.3-27.5 9.7-42.4 1.5-6.7 2.5-8.5 8.6-12 8.4-4.8 14.7-8.4 23.7-13.6 5.6-3.2 6.7-3 6.7 3.9v34.6c-6.3.8-12.1 3.7-16.4 8.3l-3-2.1c-.4-.3-.6-.5-.7-1-.4-1.1-.7-1.6-1.6-2.4-1.4-1.1-3.5-.9-4.6.5-1.1 1.4-.9 3.5.5 4.6.5.4 1 .7 1.6.8.4.1.8.1 1.2.2.4.1.6.2.9.4l2.8 2.5c-3.1 4.6-4.7 9.9-4.7 15.4 0 1 .1 2 .2 3l-6.1 1.3c-.4 0-.8 0-1.3.1l-.9.3c-4 .8-8 1.7-12.1 2.6-5.5 1.4-5.7.3-4.5-5M114.3 62v-9.8c4 .7 7.7 2.6 10.7 5.4l-7.7 5.5c-.1.1-.2.2-.3.2-.9-.5-1.8-1-2.7-1.3m17.2 11.5l-9.6-2.2c-.1-1.1-.4-2.1-.8-3 .1-.1.2-.2.3-.2l7.1-6.3c2 3.3 3.1 7 3.1 10.9-.1.3-.1.5-.1.8m-12.6-52.9c5.2 2.5 8.9 4.3 14.1 6.8 7.2 3.5 14.4 7 21.7 10.4 1.8 7.8 3.6 15.6 5.3 23.4 1.1 4.7 1.6 7.2 2.7 11.8 1.7 7.3 1.5 7.9-6 6.2L138.2 75c.1-.8.1-1.6.1-2.4 0-5.6-1.6-10.9-4.8-15.5l2.6-2.4c.4-.3.6-.4 1.1-.5 1.1-.2 1.8-.3 2.7-1 1.4-1.1 1.7-3.2.5-4.6-1.1-1.4-3.2-1.7-4.6-.5-.5.4-.9.8-1.2 1.4-.2.4-.3.7-.5 1.1-.1.3-.3.6-.6.8l-3 2.1c-4.4-4.6-10.1-7.5-16.4-8.3V24.1c.2-4.9.6-5.5 4.8-3.5m-6.3 63.1c-.6.1-1.2.2-1.9.2-.6 0-1.2 0-1.8-.1l-.3.6-4.4 8.1c2.1.7 4.3 1.1 6.6 1.1s4.5-.4 6.7-1.1l-4.4-8c-.2-.4-.4-.6-.5-.8m7.8-5.4l9.6 2.2c-1.6 3.9-4.3 7.2-7.8 9.5l-3.8-9.2c.8-.8 1.4-1.6 2-2.5m-28.9 2.2l9.6-2.2c.6 1 1.3 1.8 2.1 2.6l-.3.6-3.5 8.5c-3.6-2.3-6.3-5.6-7.9-9.5m78.6 16.8c-4.6 5.7-6.7 8.4-11.3 14.1-5.2 6.5-9.4 11.8-14.6 18.3-3.7 4.7-6.4 4.8-12.5 4.8h-42c-8 0-8.6 0-13.5-6.2-4.9-6.1-8.7-10.9-13.5-17-3.8-4.8-4.8-6-8.6-10.8-5.9-7.4-6.9-10.1 2.3-12.1L84.7 82c2.2 6 6.4 11.1 11.9 14.4l-1.3 3c-.2.4-.4.7-.8.9-.9.6-1.5 1-2 2.1-.8 1.6-.1 3.6 1.5 4.4 1.6.8 3.6.1 4.4-1.5.3-.6.4-1.1.5-1.8 0-.4 0-.8-.1-1.2 0-.4 0-.6.2-1l1.6-2.9c3.2 1.2 6.5 1.8 9.9 1.8 3.4 0 6.8-.6 10-1.9l1.6 2.9c.2.4.3.7.2 1.2-.1 1.1-.1 1.8.4 2.8.8 1.6 2.8 2.3 4.4 1.5 1.6-.8 2.3-2.8 1.5-4.4-.3-.6-.6-1.1-1.1-1.5-.3-.3-.7-.5-1-.7-.3-.2-.5-.4-.6-.8l-1.3-3.2c5.5-3.3 9.7-8.4 11.8-14.4l31.3 7.1c6.4 1.7 6 4 2.4 8.5" class="st6"/><path d="M114.3 62v-9.8c4 .7 7.7 2.6 10.7 5.4l-7.7 5.5c-.1.1-.2.2-.3.2-.9-.5-1.8-1-2.7-1.3m17.2 11.5l-9.6-2.2c-.1-1.1-.4-2.1-.8-3 .1-.1.2-.2.3-.2l7.1-6.3c2 3.3 3.1 7 3.1 10.9-.1.3-.1.5-.1.8m-12.6-52.9c5.2 2.5 8.9 4.3 14.1 6.8 7.2 3.5 14.4 7 21.7 10.4 1.8 7.8 3.6 15.6 5.3 23.4 1.1 4.7 1.6 7.2 2.7 11.8 1.7 7.3 1.5 7.9-6 6.2L138.2 75c.1-.8.1-1.6.1-2.4 0-5.6-1.6-10.9-4.8-15.5l2.6-2.4c.4-.3.6-.4 1.1-.5 1.1-.2 1.8-.3 2.7-1 1.4-1.1 1.7-3.2.5-4.6-1.1-1.4-3.2-1.7-4.6-.5-.5.4-.9.8-1.2 1.4-.2.4-.3.7-.5 1.1-.1.3-.3.6-.6.8l-3 2.1c-4.4-4.6-10.1-7.5-16.4-8.3V24.1c.2-4.9.6-5.5 4.8-3.5m1.5 57.7l9.6 2.2c-1.6 3.9-4.3 7.2-7.8 9.5l-3.8-9.2c.8-.8 1.4-1.6 2-2.5m-9.7 15.1v-9.6c.6 0 1.3-.1 1.9-.2.1.2.2.5.4.7l4.4 8c-2.2.7-4.4 1.1-6.7 1.1m59.4 3.9c-4.6 5.7-6.7 8.4-11.3 14.1-5.2 6.5-9.4 11.8-14.6 18.3-3.7 4.7-6.4 4.8-12.5 4.8h-20.9v-34.3c3.4 0 6.8-.6 10-1.9l1.6 2.9c.2.4.3.7.2 1.2-.1 1.1-.1 1.8.4 2.8.8 1.6 2.8 2.3 4.4 1.5 1.6-.8 2.3-2.8 1.5-4.4-.3-.6-.6-1.1-1.1-1.5-.3-.3-.7-.5-1-.7-.3-.2-.5-.4-.6-.8l-1.3-3.2c5.5-3.3 9.7-8.4 11.8-14.4l31.3 7.1c6.1 1.7 5.7 4 2.1 8.5" class="st6"/><path d="M402.1 96.1h-16.7v38.8h38.8v-16.6h-22.1zm83.1.1v22.1h-22l-.2-.1v16.7h38.8V96.1h-16.7zm-99.8-38.9h16.8l-.1-.1v-22h22l.1.1V18.5h-38.8zM463 18.5v16.7h22.2v22.1h16.6V18.5z" class="st3"/><path fill="#fff" d="M461 57.3l-22.2-22.1H463V18.5h-38.8v16.8l22.1 22zm-20 38.8h-14.7l18.4 18.4 3.8 3.8h-24.3v16.6H463v-16.7l-11-11.1zm44.2-38.8v24.2l-3.8-3.8L463 59.4v14.7l11.1 11 11 11h16.7V57.3zm-61 22.1l-22-22.1h-16.8v38.8h16.7V71.9l22.1 22.2z" opacity=".8"/><path d="M304.3 177.2l-4.2 5c-1.9-2.3-4.7-3.7-7.2-3.7-4.5 0-8 3.6-8 8.3 0 4.8 3.4 8.4 8 8.4 2.4 0 5.2-1.3 7.2-3.4l4.3 4.5c-3.1 3.1-7.6 5.2-11.8 5.2-8.6 0-15-6.3-15-14.7 0-8.3 6.6-14.5 15.3-14.5 4.1.1 8.6 2 11.4 4.9zm3.5 24.1V171h7.1v30.3h-7.1zm35.2-11.1c0 6.8-4.8 11.3-12 11.3s-12.1-4.5-12.1-11.3S323.7 179 331 179c7.2 0 12 4.4 12 11.2zm-17 .1c0 3.4 2 5.7 4.9 5.7 2.9 0 4.9-2.3 4.9-5.7 0-3.4-2-5.7-4.9-5.7-2.9 0-4.9 2.3-4.9 5.7zm42.3 11h-7.1v-3.6c-1.5 2.6-4 3.9-7.2 3.9-4.8 0-7.9-3.3-7.9-8.4v-13.9h7.1v11.9c0 2.6 1.4 4.2 3.7 4.2 2.7 0 4.3-2.2 4.3-5.2v-10.9h7.1v22zm27.8 0H389v-2.9c-1.6 2-3.8 3.2-6.6 3.2-6.2 0-10.3-4.6-10.3-11.4 0-6.7 4-11.2 10.1-11.2 2.9 0 5.2 1.1 6.8 3.2V171h7.1v30.3zm-7.1-11c0-3.4-2-5.7-4.9-5.7-2.9 0-4.9 2.3-4.9 5.7 0 3.4 2 5.8 4.9 5.8 3 0 4.9-2.4 4.9-5.8zm33 11l-13.2-17.6v17.6H402v-28.6h6.4l13.2 17.7v-17.7h6.8v28.6H422zm31.6-14.4v14.4h-6.9v-2.5c-1.4 1.9-3.8 2.9-6.7 2.9-4.7 0-7.6-2.9-7.6-6.9 0-4.2 3-6.6 8.5-6.7h5.8v-.3c0-2.2-1.4-3.5-4.3-3.5-1.8 0-4.3.7-6.6 1.8l-2-4.7c3.4-1.6 6.5-2.5 10.2-2.5 6 0 9.6 3 9.6 8zm-6.9 6.9v-2h-4.5c-2.1 0-3.2.7-3.2 2.4 0 1.6 1.1 2.6 3.1 2.6 2.2 0 4.1-1.2 4.6-3zm26 6.3c-1.6.9-3.8 1.5-5.9 1.5-4.3 0-7.3-2.4-7.3-7v-9.7h-3.1v-4.6h3.1v-6.1h7v6.1h5.8v4.7h-5.8v8.6c0 1.7.7 2.5 2 2.4.7 0 1.7-.3 2.7-.7l1.5 4.8zm10.8-27.2c0 2.2-1.6 3.8-3.7 3.8-2.2 0-3.7-1.6-3.7-3.8 0-2.2 1.6-3.7 3.7-3.7s3.7 1.5 3.7 3.7zm-7.3 28.4v-22h7v22h-7zm18 0l-8.3-22h7.3l4.7 15.6 4.8-15.6h7l-8.3 22h-7.2zm38.9-9.2h-15.5c.7 2.6 2.6 4.1 5.2 4.1 1.9 0 3.8-.8 5.3-2.2l3.7 3.6c-2.2 2.5-5.6 3.9-9.6 3.9-7.2 0-11.7-4.5-11.7-11.2 0-6.8 4.7-11.3 11.5-11.3 7.7 0 11.5 5.1 11.1 13.1zm-6.8-3.8c0-2.7-1.7-4.5-4.3-4.5-2.5 0-4.1 1.8-4.6 4.5h8.9zm35.6-11.1l-4.2 5c-1.9-2.3-4.7-3.7-7.2-3.7-4.5 0-8 3.6-8 8.3 0 4.8 3.4 8.4 8 8.4 2.4 0 5.2-1.3 7.2-3.4l4.3 4.5c-3.1 3.1-7.6 5.2-11.8 5.2-8.6 0-15-6.3-15-14.7 0-8.3 6.6-14.5 15.3-14.5 4.1.1 8.5 2 11.4 4.9zm24.7 13c0 6.8-4.8 11.3-12 11.3s-12.1-4.5-12.1-11.3 4.8-11.2 12.1-11.2c7.2 0 12 4.4 12 11.2zm-16.9.1c0 3.4 2 5.7 4.9 5.7 2.9 0 4.9-2.3 4.9-5.7 0-3.4-2-5.7-4.9-5.7-2.9 0-4.9 2.3-4.9 5.7zm43.2-2.9v13.9h-7v-11.9c0-2.6-1.5-4.2-3.9-4.2-2.6 0-4.2 1.8-4.5 4.5v11.7h-7.1v-22h7.1v3.6c1.6-2.6 4.1-3.9 7.4-3.9 4.8-.2 8 3.1 8 8.3z" class="st3"/><g class="st0"><defs><path id="SVGID_9_" d="M239.8 5.6h1v203.5h-1z"/></defs><defs><path id="SVGID_10_" d="M241.3 209.6h-2V5.1h2v204.5zm-1-1V6.1v202.5z"/></defs><use fill="#fff" overflow="visible" xlink:href="#SVGID_9_"/><use fill="#fff" overflow="visible" xlink:href="#SVGID_10_"/><clipPath id="SVGID_11_"><use overflow="visible" xlink:href="#SVGID_9_"/></clipPath><clipPath id="SVGID_12_" clip-path="url(#SVGID_11_)"><use overflow="visible" xlink:href="#SVGID_10_"/></clipPath><g clip-path="url(#SVGID_12_)"><path d="M239.8 5.6h1v203.5h-1z" class="st3"/><path d="M241.3 209.6h-2V5.1h2v204.5zm-1-1V6.1v202.5z" class="st3"/></g></g><g class="st0"><path d="M242.1 240.9c-1.8 0-3.1.7-4.1 2-1 1.3-1.5 3.2-1.5 5.6 0 5 1.9 7.4 5.6 7.4 1.6 0 3.4-.4 5.7-1.2v3.9c-1.8.8-3.9 1.1-6.1 1.1-3.2 0-5.7-1-7.4-2.9-1.7-2-2.6-4.8-2.6-8.4 0-2.3.4-4.3 1.3-6.1.8-1.7 2-3.1 3.6-4 1.6-.9 3.4-1.4 5.5-1.4 2.2 0 4.3.5 6.5 1.6l-1.5 3.8c-.8-.4-1.7-.7-2.5-1s-1.7-.4-2.5-.4zm25.7 18.6h-4.6v-9.9c0-2.5-.9-3.7-2.7-3.7-1.3 0-2.2.4-2.8 1.3s-.9 2.3-.9 4.3v8h-4.6v-23.6h4.6v4.8c0 .4 0 1.3-.1 2.6l-.1 1.4h.2c1-1.7 2.7-2.5 4.9-2.5 2 0 3.5.5 4.5 1.6s1.5 2.6 1.5 4.6v11.1zm4.6-21.4c0-1.5.8-2.3 2.5-2.3s2.5.8 2.5 2.3c0 .7-.2 1.3-.6 1.7-.4.4-1.1.6-1.9.6-1.7 0-2.5-.7-2.5-2.3zm4.8 21.4h-4.6v-17h4.6v17zm20.5 0h-4.6v-9.9c0-1.2-.2-2.1-.7-2.8-.4-.6-1.1-.9-2.1-.9-1.3 0-2.2.4-2.8 1.3s-.9 2.3-.9 4.3v8H282v-17h3.5l.6 2.2h.3c.5-.8 1.2-1.4 2.1-1.9s1.9-.6 3.1-.6c2 0 3.5.5 4.5 1.6s1.5 2.6 1.5 4.6v11.1zm15.6 0l-.9-2.3h-.1c-.8 1-1.6 1.7-2.4 2s-1.9.6-3.2.6c-1.6 0-2.9-.5-3.9-1.4s-1.4-2.3-1.4-4c0-1.8.6-3.1 1.9-4 1.3-.9 3.2-1.3 5.7-1.4l2.9-.1v-.7c0-1.7-.9-2.6-2.6-2.6-1.4 0-3 .4-4.8 1.2l-1.5-3.1c2-1 4.1-1.5 6.5-1.5 2.3 0 4 .5 5.2 1.5 1.2 1 1.8 2.5 1.8 4.5v11.3h-3.2zm-1.4-7.9l-1.8.1c-1.3 0-2.3.3-3 .7-.7.4-1 1.1-1 2 0 1.3.8 2 2.2 2 1.1 0 1.9-.3 2.6-.9.6-.6 1-1.4 1-2.5v-1.4zm31.8 7.9h-15.5v-3.3l5.6-5.6c1.7-1.7 2.7-2.9 3.2-3.5.5-.7.9-1.3 1.1-1.8.2-.6.3-1.1.3-1.7 0-.9-.2-1.6-.7-2s-1.1-.7-2-.7c-.9 0-1.7.2-2.5.6-.8.4-1.7 1-2.5 1.7l-2.6-3c1.1-.9 2-1.6 2.7-2s1.5-.7 2.4-.9c.9-.2 1.8-.3 2.9-.3 1.4 0 2.6.3 3.7.8s1.9 1.2 2.5 2.1c.6.9.9 2 .9 3.1 0 1-.2 2-.5 2.9s-.9 1.8-1.7 2.8c-.8.9-2.1 2.3-4 4l-2.9 2.7v.2h9.7v3.9zm17.6-11.1c0 3.9-.6 6.8-1.9 8.6-1.3 1.9-3.2 2.8-5.9 2.8-2.6 0-4.5-1-5.8-2.9-1.3-1.9-2-4.8-2-8.5 0-3.9.6-6.8 1.9-8.7s3.2-2.8 5.8-2.8c2.6 0 4.5 1 5.8 2.9s2.1 4.9 2.1 8.6zm-10.8 0c0 2.7.2 4.7.7 5.9.5 1.2 1.3 1.8 2.4 1.8 1.1 0 1.9-.6 2.4-1.8.5-1.2.7-3.1.7-5.8 0-2.7-.2-4.7-.7-5.9s-1.3-1.8-2.4-1.8c-1.1 0-1.9.6-2.4 1.8-.5 1.1-.7 3.1-.7 5.8zm24.8 11.1h-4.7v-15l.1-2.3c-.8.8-1.3 1.3-1.6 1.5l-2.6 2.1-2.3-2.8 7.2-5.7h3.9v22.2zm13.8-22.5c2.1 0 3.8.5 5.1 1.5 1.3 1 2 2.3 2 3.9 0 1.1-.3 2.1-.9 3-.6.9-1.6 1.7-3 2.4 1.7.9 2.9 1.8 3.6 2.8.7 1 1.1 2 1.1 3.2 0 1.8-.7 3.3-2.1 4.4-1.4 1.1-3.3 1.7-5.6 1.7-2.4 0-4.3-.5-5.7-1.5-1.4-1-2.1-2.5-2.1-4.4 0-1.3.3-2.4 1-3.4s1.8-1.8 3.2-2.6c-1.3-.8-2.2-1.7-2.7-2.6-.6-.9-.8-1.9-.8-3 0-1.6.7-2.9 2-3.9 1.1-1 2.8-1.5 4.9-1.5zm-3.4 16.6c0 .9.3 1.5.9 2 .6.5 1.4.7 2.5.7 1.2 0 2-.3 2.6-.8s.9-1.2.9-2c0-.7-.3-1.3-.9-1.9-.6-.6-1.5-1.2-2.8-1.9-2.2 1.1-3.2 2.4-3.2 3.9zm3.4-13.1c-.8 0-1.4.2-1.9.6s-.7 1-.7 1.6c0 .6.2 1.2.6 1.6.4.5 1.1 1 2.1 1.5 1-.5 1.7-.9 2.1-1.4.4-.5.6-1 .6-1.7s-.3-1.3-.8-1.7c-.6-.3-1.2-.5-2-.5z" class="st3"/></g></svg>