<?xml version="1.0" encoding="UTF-8"?><svg id="Layer_1" xmlns="http://www.w3.org/2000/svg" viewBox="0 0 2819.75096 1120.27746"><defs><style>.cls-1{fill:none;}</style></defs><path class="cls-1" d="M2297.90714,532.0164c-27.38232,0-47.79529,17.4248-55.76074,44.3103h106.04602c-5.97498-26.38696-23.89807-44.3103-50.28528-44.3103Z"/><path class="cls-1" d="M903.84006,629.87553c-1.17859-.38623-2.38971-.66284-3.6192-.82593h.00116c-1.70612-.39307-4.14087-1.06641-5.81342-1.37402-6.3559-.87915-12.75464-1.39453-19.16956-1.54468-12.11737-.79175-24.12817-2.7627-35.86383-5.88452-3.62152-2.04053-6.60693-5.04443-8.62305-8.6792l-8.07239-2.34985c3.60297-58.2019-.74463-111.04126-48.90216-192.97607l-43.14117,30.76733c31.77063,48.82642,46.151,100.99707,41.03174,147.51099l-112.01691-30.01514s.01624-3.98877-.92877-10.18555c-.77264-1.98096-1.16711-4.09692-1.17865-6.27905-3.96277-17.92383-18.65204-45.96216-48.69128-59.67969-.83978-.26147-1.64478-.60571-2.44061-.99146-14.64233-5.61157-26.82532-10.48462-57.09338-6.91748-8.83856,1.04175-19.48071,5.35034-26.48322,7.86719-.24634,.09839-.49506,.18286-.74719,.26953-3.23871,1.13013-5.60291,1.69556-6.48431,.98071-3.46539-.14624-6.81165-1.31274-9.6189-3.35254l-.16541,.09497-86.00909-60.98413c27.3808-26.9082,61.73865-45.6272,99.19403-54.04297,5.00378-1.12671,10.05725-1.99414,15.13043-2.74365v82.59277l153.97058-114.15137-153.97058-106.125v84.68579c-9.04407,1.06665-18.04065,2.52271-26.92737,4.5354-50.01221,11.30176-95.50537,37.29395-130.63812,74.63843-2.4325-1.67725-4.84186-3.38599-7.22925-5.12646-3.95697,1.18335-8.21814,.76978-11.87323-1.15137-9.75653-7.22217-18.78552-15.38037-26.95862-24.3562-4.1131-4.90771-8.50616-9.57373-13.15594-13.97656-1.21802-1.04224-3.0791-2.46313-4.44397-3.55322-3.96509-3.19775-8.84973-5.04028-13.93793-5.25879-6.13269-.32104-12.05139,2.30054-15.93317,7.05908-6.74805,9.5061-4.55035,22.67725,4.91699,29.47778l.30768,.21875c1.30823,1.07056,2.91949,2.43921,4.13165,3.32544,5.33575,3.5498,10.87042,6.78955,16.57745,9.70312,10.56854,5.98242,20.52747,12.98389,29.73462,20.90234,2.39081,3.39307,3.78461,7.3877,4.02173,11.53198l6.40106,5.72339c-35.35608,53.04736-49.88391,117.28027-40.79706,180.37964l-8.37085,2.43481c-2.18494,3.48975-5.1217,6.44678-8.59406,8.65649-11.72754,3.13013-23.73035,5.1084-35.84186,5.90771-6.4184,.14575-12.82404,.66113-19.18341,1.54468-1.53375,.28418-3.66663,.82422-5.33923,1.24121l-.17462,.03809-.28455,.08447c-10.98956,1.44531-18.72656,11.52515-17.28186,22.51416,1.4447,10.98926,11.52509,18.72681,22.51349,17.28223,1.23993-.16309,2.46375-.44189,3.65161-.83252l.29846-.04761c.133-.02832,.24634-.09473,.37933-.11841,1.64825-.37891,3.72333-.77222,5.17383-1.16553,6.10492-1.94873,12.09302-4.24414,17.93652-6.87427,11.26019-4.54126,22.93567-7.97632,34.86096-10.25732,4.13397,.25293,8.11639,1.65942,11.49268,4.06006l8.7179-1.49243c19.56976,60.45996,60.58771,111.66846,115.31683,143.96582l-3.64349,8.71729c1.69336,3.51221,2.31451,7.4458,1.78589,11.30908-4.98413,11.39111-11.04388,22.28076-18.09845,32.51978-3.87836,5.11426-7.45825,10.44824-10.72125,15.97534-.79578,1.50684-1.80438,3.81396-2.56781,5.3916-5.71045,9.50562-2.63489,21.84106,6.87067,27.55176s21.84027,2.63452,27.55194-6.87085c.67554-1.12524,1.23999-2.31396,1.68414-3.54907l.03235-.03784v-.04736c.75879-1.56372,1.83453-3.61499,2.47302-5.0791,2.27747-5.99121,4.20447-12.11035,5.77063-18.32544,3.4527-12.64014,8.66461-24.73193,15.48322-35.92139,2.38391-2.23755,5.38782-3.70361,8.61841-4.20703l4.53412-8.19653c59.35706,22.8252,125.04218,22.99219,184.51483,.46899,1.27008,2.26489,3.63892,6.59521,4.26465,7.6897,4.08423,.65259,7.74976,2.8811,10.21002,6.2063,5.66077,10.73242,10.25964,21.99194,13.72968,33.6189,1.58112,6.21484,3.51862,12.3335,5.8042,18.32568,.64771,1.47778,1.7049,3.55322,2.47296,5.12622,3.74066,10.44434,15.24036,15.87793,25.68512,12.13647s15.87878-15.24146,12.1369-25.68555c-.44183-1.23193-1.00165-2.41748-1.67365-3.54004-.76343-1.57788-1.81482-3.88501-2.60602-5.38208-3.26294-5.51514-6.8429-10.83643-10.72119-15.93774-6.92847-9.97827-12.86688-20.60986-17.72833-31.74292-1.05603-3.9812-.50427-8.21826,1.53485-11.79688-1.28033-2.61621-2.39191-5.31128-3.33112-8.06836,54.90491-32.55859,95.92639-84.16357,115.26013-144.99829,2.5863,.41187,7.09271,1.19849,8.55591,1.49683,3.04205-2.7915,7.05457-4.28271,11.18158-4.15503,11.92871,2.27905,23.60651,5.71436,34.86908,10.25757,5.84351,2.65283,11.83624,4.96558,17.94696,6.92627,1.44464,.37915,3.5058,.73926,5.16339,1.104,.13873,.03809,.26141,.09473,.39325,.13257l.28455,.04272c10.53149,3.45605,21.87042-2.2793,25.32648-12.81055,3.45618-10.53125-2.27869-21.87012-12.81018-25.32642Zm-354.58051-89.70117h32.16022l19.9931,24.99585-7.16797,31.17456-28.88098,13.90088-28.96771-13.9292-7.18176-31.18872,20.0451-24.95337Zm-160.63763-75.64771v-.00439l78.52313,70.23193-.08447,.42676c7.34259,6.38892,8.11523,17.52148,1.72577,24.8645-2.28442,2.62573-5.29523,4.51611-8.65308,5.43286l-.07983,.34131-100.65369,29.04224c-5.01532-45.48511,5.26746-91.34546,29.22217-130.33521Zm105.1347,186.56738l-39.99084,96.6355c-38.38422-24.57104-67.58789-61.12231-83.08038-103.98364l103.2019-17.53003,.17578,.23242c1.13934-.21851,2.29718-.32153,3.4585-.30762,9.73224,.14453,17.50507,8.15112,17.36047,17.88403-.03357,2.2981-.51703,4.56812-1.42389,6.68066l.29846,.38867Zm118.04547,124.28027v-.00952c-37.41846,8.58179-76.48621,6.57544-112.82892-5.79419l50.75604-91.77954h.08441c4.61975-8.58252,15.32129-11.79565,23.90381-7.17651,3.03394,1.63281,5.52423,4.11768,7.16205,7.14819h.37946l50.88208,91.93091c-6.60345,2.20459-13.38391,4.09814-20.33893,5.68066Zm65.57526-27.25146v-.00488l-40.40375-97.62109,.12372-.17505c-3.72217-8.67554,.04169-18.74414,8.54211-22.84985,2.10974-1.03296,4.40576-1.62915,6.7514-1.75342,1.35681-.0625,2.71704,.03809,4.05072,.29834l.17462-.21753,104.12146,17.59595c-15.36993,43.2063-44.70197,80.05737-83.36029,104.72754Z"/><path class="cls-1" d="M2603.58927,537.99052c-36.84229,0-62.73096,26.88477-62.73096,64.22485,0,37.83862,25.88867,64.72314,62.73096,64.72314,34.35352,0,58.74829-26.88452,58.74829-64.72314,0-37.34009-24.39478-64.22485-58.74829-64.22485Z"/><path d="M477.52158,626.14067c-1.16132-.01392-2.31915,.08911-3.4585,.30762l-.17578-.23242-103.2019,17.53003c15.49249,42.86133,44.69617,79.4126,83.08038,103.98364l39.99084-96.6355-.29846-.38867c.90686-2.11255,1.39032-4.38257,1.42389-6.68066,.14459-9.73291-7.62823-17.7395-17.36047-17.88403Z"/><path d="M460.13328,565.47831c3.35785-.91675,6.36865-2.80713,8.65308-5.43286,6.38947-7.34302,5.61682-18.47559-1.72577-24.8645l.08447-.42676-78.52313-70.23193v.00439c-23.95471,38.98975-34.23749,84.8501-29.22217,130.33521l100.65369-29.04224,.07983-.34131Z"/><polygon points="565.36393 610.24565 594.24491 596.34477 601.41288 565.17021 581.41978 540.17436 549.25956 540.17436 529.21445 565.12773 536.39622 596.31645 565.36393 610.24565"/><path d="M1048.27354,659.45756l-83.49084-362.65503c-4.54633-18.99805-17.37341-34.95581-34.94995-43.47998L591.87723,91.96684c-17.73962-8.46558-38.35388-8.46558-56.09351,0L197.89542,253.40873c-17.58087,8.5188-30.41235,24.47583-34.95959,43.47534l-83.35669,362.64526c-2.05579,9.1665-2.06238,18.67358-.01917,27.84302,.60181,2.79321,1.3877,5.54346,2.35303,8.23291,1.63135,4.5896,3.79114,8.97363,6.43604,13.06396,1.14526,1.74902,2.35303,3.4502,3.66602,5.09888l233.88184,290.78516c1.02075,1.26514,2.14691,2.42017,3.26355,3.59424,3.66974,3.90796,7.8136,7.3418,12.33527,10.22192,5.71881,3.59912,11.95117,6.30908,18.48376,8.03662,5.35699,1.46851,10.88293,2.23071,16.4375,2.2666h3.63733l371.4198-.08618c2.25793-.01001,4.51367-.14282,6.75714-.39771,3.2182-.36377,6.40448-.96948,9.5318-1.81152,2.24152-.59033,4.4505-1.29736,6.61816-2.11816,1.69159-.64697,3.37854-1.29395,5.00781-2.0752,2.44019-1.16821,4.80713-2.48389,7.08783-3.93921,5.88483-3.70044,11.12488-8.33813,15.51251-13.72998l7.13098-8.86572,226.66943-281.97681c4.34448-5.448,7.75793-11.5769,10.10205-18.13892,.97882-2.69849,1.77942-5.45825,2.39618-8.26172,2.04846-9.1687,2.04187-18.67725-.01917-27.84302l.0047,.02905Zm-131.62329-4.25562c-3.45605,10.53125-14.79498,16.2666-25.32648,12.81055l-.28455-.04272c-.13184-.03784-.25452-.09448-.39325-.13257-1.65759-.36475-3.71875-.72485-5.16339-1.104-6.11072-1.96069-12.10345-4.27344-17.94696-6.92627-11.26257-4.54321-22.94037-7.97852-34.86908-10.25757-4.12701-.12769-8.13953,1.36353-11.18158,4.15503-1.4632-.29834-5.9696-1.08496-8.55591-1.49683-19.33374,60.83472-60.35522,112.4397-115.26013,144.99829,.93921,2.75708,2.05078,5.45215,3.33112,8.06836-2.03912,3.57861-2.59088,7.81567-1.53485,11.79688,4.86145,11.13306,10.79987,21.76465,17.72833,31.74292,3.8783,5.10132,7.45825,10.42261,10.72119,15.93774,.7912,1.49707,1.84259,3.8042,2.60602,5.38208,.672,1.12256,1.23181,2.30811,1.67365,3.54004,3.74188,10.44409-1.69214,21.94409-12.1369,25.68555s-21.94446-1.69214-25.68512-12.13647c-.76807-1.573-1.82526-3.64844-2.47296-5.12622-2.28558-5.99219-4.22308-12.11084-5.8042-18.32568-3.47003-11.62695-8.06891-22.88647-13.72968-33.6189-2.46027-3.3252-6.12579-5.55371-10.21002-6.2063-.62573-1.09448-2.99457-5.4248-4.26465-7.6897-59.47266,22.52319-125.15778,22.3562-184.51483-.46899l-4.53412,8.19653c-3.23059,.50342-6.2345,1.96948-8.61841,4.20703-6.8186,11.18945-12.03052,23.28125-15.48322,35.92139-1.56616,6.21509-3.49316,12.33423-5.77063,18.32544-.63849,1.46411-1.71423,3.51538-2.47302,5.0791v.04736l-.03235,.03784c-.44415,1.23511-1.00861,2.42383-1.68414,3.54907-5.71167,9.50537-18.04639,12.58154-27.55194,6.87085s-12.58112-18.04614-6.87067-27.55176c.76343-1.57764,1.77203-3.88477,2.56781-5.3916,3.263-5.5271,6.8429-10.86108,10.72125-15.97534,7.05457-10.23901,13.11432-21.12866,18.09845-32.51978,.52863-3.86328-.09253-7.79688-1.78589-11.30908l3.64349-8.71729c-54.72913-32.29736-95.74707-83.50586-115.31683-143.96582l-8.7179,1.49243c-3.37628-2.40063-7.3587-3.80713-11.49268-4.06006-11.92529,2.28101-23.60077,5.71606-34.86096,10.25732-5.84351,2.63013-11.8316,4.92554-17.93652,6.87427-1.4505,.39331-3.52557,.78662-5.17383,1.16553-.133,.02368-.24634,.09009-.37933,.11841l-.29846,.04761c-1.18787,.39062-2.41168,.66943-3.65161,.83252-10.9884,1.44458-21.06879-6.29297-22.51349-17.28223-1.4447-10.98901,6.2923-21.06885,17.28186-22.51416l.28455-.08447,.17462-.03809c1.67261-.41699,3.80548-.95703,5.33923-1.24121,6.35938-.88354,12.76501-1.39893,19.18341-1.54468,12.11151-.79932,24.11432-2.77759,35.84186-5.90771,3.47235-2.20972,6.40912-5.16675,8.59406-8.65649l8.37085-2.43481c-9.08685-63.09937,5.44098-127.33228,40.79706-180.37964l-6.40106-5.72339c-.23712-4.14429-1.63092-8.13892-4.02173-11.53198-9.20715-7.91846-19.16608-14.91992-29.73462-20.90234-5.70703-2.91357-11.2417-6.15332-16.57745-9.70312-1.21216-.88623-2.82343-2.25488-4.13165-3.32544l-.30768-.21875c-9.46735-6.80054-11.66504-19.97168-4.91699-29.47778,3.88177-4.75854,9.80048-7.38013,15.93317-7.05908,5.0882,.21851,9.97284,2.06104,13.93793,5.25879,1.36487,1.09009,3.22595,2.51099,4.44397,3.55322,4.64978,4.40283,9.04285,9.06885,13.15594,13.97656,8.1731,8.97583,17.20209,17.13403,26.95862,24.3562,3.65509,1.92114,7.91626,2.33472,11.87323,1.15137,2.38739,1.74048,4.79675,3.44922,7.22925,5.12646,35.13275-37.34448,80.62592-63.33667,130.63812-74.63843,8.88672-2.0127,17.8833-3.46875,26.92737-4.5354v-84.68579l153.97058,106.125-153.97058,114.15137v-82.59277c-5.07318,.74951-10.12665,1.61694-15.13043,2.74365-37.45538,8.41577-71.81323,27.13477-99.19403,54.04297l86.00909,60.98413,.16541-.09497c2.80725,2.03979,6.1535,3.2063,9.6189,3.35254,.88141,.71484,3.24561,.14941,6.48431-.98071,.25214-.08667,.50085-.17114,.74719-.26953,7.0025-2.51685,17.64465-6.82544,26.48322-7.86719,30.26807-3.56714,42.45105,1.30591,57.09338,6.91748,.79584,.38574,1.60083,.72998,2.44061,.99146,30.03925,13.71753,44.72852,41.75586,48.69128,59.67969,.01154,2.18213,.40601,4.2981,1.17865,6.27905,.94501,6.19678,.92877,10.18555,.92877,10.18555l112.01691,30.01514c5.11926-46.51392-9.26111-98.68457-41.03174-147.51099l43.14117-30.76733c48.15753,81.93481,52.50513,134.77417,48.90216,192.97607l8.07239,2.34985c2.01611,3.63477,5.00153,6.63867,8.62305,8.6792,11.73566,3.12183,23.74646,5.09277,35.86383,5.88452,6.41492,.15015,12.81366,.66553,19.16956,1.54468,1.67255,.30762,4.1073,.98096,5.81342,1.37402h-.00116c1.22949,.16309,2.44061,.4397,3.6192,.82593,10.53149,3.4563,16.26636,14.79517,12.81018,25.32642Z"/><path d="M580.87949,677.76274c-1.63782-3.03052-4.12811-5.51538-7.16205-7.14819-8.58252-4.61914-19.28406-1.40601-23.90381,7.17651h-.08441l-50.75604,91.77954c36.34271,12.36963,75.41046,14.37598,112.82892,5.79419v.00952c6.95502-1.58252,13.73547-3.47607,20.33893-5.68066l-50.88208-91.93091h-.37946Z"/><path d="M656.44157,626.01689c-1.33368-.26025-2.69391-.36084-4.05072-.29834-2.34564,.12427-4.64166,.72046-6.7514,1.75342-8.50043,4.10571-12.26428,14.17432-8.54211,22.84985l-.12372,.17505,40.40375,97.62109v.00488c38.65833-24.67017,67.99036-61.52124,83.36029-104.72754l-104.12146-17.59595-.17462,.21753Z"/><polygon points="1588.95432 389.12797 1487.38908 389.12797 1360.93052 535.00322 1360.93052 389.12797 1275.79514 389.12797 1275.79514 731.16337 1360.93052 731.16337 1360.93052 638.06157 1399.76432 595.74369 1496.35068 731.16337 1598.9116 731.16337 1459.01066 534.50541 1588.95432 389.12797"/><path d="M1809.00858,622.12968c0,25.39209-19.41687,44.80884-45.30591,44.80884s-43.81219-19.91528-43.81219-48.2937v-144.87891h-81.15265v163.7981c0,58.25073,39.33136,99.57349,95.09259,99.57349,32.36163,0,59.2464-13.44189,75.17816-34.85034v28.87622h84.13971V473.76591h-84.13971v148.36377Z"/><path d="M2042.00712,520.56498v-46.79907h-84.13922v257.39746h84.13922v-116.00391c0-47.29663,32.36206-77.16895,84.63776-77.16895v-70.19971c-37.34003,0-67.70984,20.41309-84.63776,52.77417Z"/><path d="M2297.40958,467.79081c-77.6676,0-135.91821,55.76172-135.91821,133.92676,0,79.16138,60.242,135.41992,139.90088,135.41992,38.83374,0,82.64648-16.42944,105.54834-39.8291l-46.79907-47.29785c-16.92798,13.94043-40.32764,22.9021-62.23438,22.9021-29.37366,0-50.2843-19.91455-56.75684-49.28906h187.69629c0-97.58203-49.78674-155.83276-131.43701-155.83276Zm-55.26318,108.53589c7.96545-26.8855,28.37842-44.3103,55.76074-44.3103,26.38721,0,44.3103,17.92334,50.28528,44.3103h-106.04602Z"/><path d="M2662.8361,383.15312v124.96533c-20.41296-25.39111-50.28516-40.32764-85.13525-40.32764-68.70605,0-117.99512,55.76172-117.99512,134.42456,0,79.16138,49.28906,134.92212,117.99512,134.92212,34.8501,0,64.72229-14.93579,85.13525-40.32666v34.35254h84.13928V383.15312h-84.13928Zm-59.24683,283.7854c-36.84229,0-62.73096-26.88452-62.73096-64.72314,0-37.34009,25.88867-64.22485,62.73096-64.22485,34.35352,0,58.74829,26.88477,58.74829,64.22485,0,37.83862-24.39478,64.72314-58.74829,64.72314Z"/></svg>