<?xml version="1.0" encoding="utf-8"?>
<!-- Generator: Adobe Illustrator 26.3.1, SVG Export Plug-In . SVG Version: 6.00 Build 0)  -->
<svg version="1.1" id="图层_1" xmlns="http://www.w3.org/2000/svg" xmlns:xlink="http://www.w3.org/1999/xlink" x="0px" y="0px"
	 viewBox="0 0 4280 1500" style="enable-background:new 0 0 4280 1500;" xml:space="preserve">
<style type="text/css">
	.st0{opacity:0.9771;}
	.st1{fill:#FFFFFF;}
	.st2{fill:#353535;}
	.st3{fill:#121212;}
	.st4{fill:#CBCBCB;}
	.st5{fill:#787878;}
	.st6{opacity:0.49;}
	.st7{fill:url(#SVGID_1_);}
	.st8{fill:url(#SVGID_00000097499350604329022400000009591796225703042439_);}
	.st9{fill:#5B5B5B;}
	.st10{fill:#E9E9E9;}
	.st11{fill:#757575;}
	.st12{fill:url(#SVGID_00000070079095315115562920000012547969097416572041_);}
</style>
<g>
	<g>
		<g class="st0">
			<g>
				<polygon class="st1" points="10,454.4 10,1054.8 527.4,1354.9 1049.8,1052.2 1049.8,454.4 529.9,154.3 				"/>
			</g>
		</g>
		<polygon class="st2" points="969.2,1007.2 969.2,498.2 871.9,444.6 871.9,956.2 		"/>
		<polygon class="st2" points="800.2,913.7 799.2,399.5 696.1,347.3 696.1,852.4 		"/>
		<g>
			<g>
				<g>
					<polygon class="st2" points="633.8,818.2 633.8,306.2 536.5,252.6 536.5,763.6 					"/>
				</g>
			</g>
		</g>
		<polygon class="st3" points="536.4,763.7 188.3,964.7 188.3,1074.5 632,816.8 		"/>
		<polygon class="st3" points="696,853 357.3,1059.4 357.3,1171.8 801,911.5 		"/>
		<polygon class="st4" points="536.5,248.4 91,505.6 188.3,561.8 633.8,304.6 		"/>
		<g>
			<g>
				<polygon class="st5" points="188.3,1073.3 188.3,562.3 91,506.1 91,1017.1 				"/>
			</g>
		</g>
		<g class="st6">
			
				<linearGradient id="SVGID_1_" gradientUnits="userSpaceOnUse" x1="308.65" y1="180.8" x2="308.65" y2="748" gradientTransform="matrix(1 0 0 1 0 420)">
				<stop  offset="6.355514e-02" style="stop-color:#FFFFFF"/>
				<stop  offset="0.5824" style="stop-color:#FFFFFF;stop-opacity:0.17"/>
			</linearGradient>
			<polygon class="st7" points="357.3,1168 357.3,657 260,600.8 260,1111.8 			"/>
			
				<linearGradient id="SVGID_00000137847327391395887820000014914132359505448849_" gradientUnits="userSpaceOnUse" x1="308.65" y1="780.5" x2="308.65" y2="837.2" gradientTransform="matrix(1 0 0 1 0 420)">
				<stop  offset="6.355514e-02" style="stop-color:#FFFFFF"/>
				<stop  offset="0.5824" style="stop-color:#FFFFFF;stop-opacity:0"/>
			</linearGradient>
			<polygon style="fill:url(#SVGID_00000137847327391395887820000014914132359505448849_);" points="260,1200.5 260,1201 
				357.3,1257.2 357.3,1256.7 			"/>
		</g>
		<polygon class="st3" points="871.8,955.3 526.3,1156.7 523.7,1269.1 967.4,1006.3 		"/>
		<g>
			<g>
				<polygon class="st9" points="969.1,1007 557.3,904.3 521.5,1006.7 837.9,1082.5 				"/>
			</g>
		</g>
		<polygon class="st10" points="874,443.3 428.6,700.5 525.9,756.6 971.3,499.5 		"/>
		<polygon class="st11" points="526.1,1268.4 526.1,756.9 428.8,700.7 428.8,1212.2 		"/>
		<polygon class="st4" points="874.6,443.3 429.1,700.5 526.4,756.7 971.9,499.4 		"/>
		<polygon class="st4" points="707,342.1 259,600.3 356.3,657.5 801.8,398.3 		"/>
		<polygon class="st5" points="357.3,1172.3 357.3,657 260,600.8 260,1116.1 		"/>
		
			<linearGradient id="SVGID_00000145027228563015877410000005835054288446939010_" gradientUnits="userSpaceOnUse" x1="526.3" y1="476.7" x2="526.3" y2="476.7" gradientTransform="matrix(1 0 0 1 0 420)">
			<stop  offset="1.553748e-02" style="stop-color:#FFFFFF"/>
			<stop  offset="0.5451" style="stop-color:#FFFFFF;stop-opacity:0"/>
		</linearGradient>
		<path style="fill:url(#SVGID_00000145027228563015877410000005835054288446939010_);" d="M526.3,896.7"/>
		<polygon class="st11" points="525.2,875.7 525.2,1013.3 968.2,757.6 968.2,627.7 		"/>
	</g>
	<g>
		<g>
			<polygon class="st1" points="3093.1,707.5 2774.6,707.5 2774.6,472 2666.4,472 2666.4,1047 2774.6,1047 2774.6,796 3093.1,796 
							"/>
			<rect x="1353.1" y="472.7" class="st1" width="108.4" height="575"/>
			<polygon class="st1" points="1863.4,473.4 1726.3,473.4 1480.2,733.9 1480.2,868.8 1561.8,785.5 1741.8,1047 1880.3,1047 
				1630,713.8 			"/>
			<rect x="3776.5" y="472.7" class="st1" width="108.7" height="575"/>
			<polygon class="st1" points="4161,472.7 4161,708.9 3904,708.9 3904,802.4 4161,802.4 4161,1047.7 4270,1047.7 4270,472.7 			"/>
			<rect x="2793.3" y="472" class="st1" width="314.7" height="89.3"/>
			<rect x="2793.3" y="957.7" class="st1" width="315.9" height="89.3"/>
			<path class="st1" d="M3551.6,644.9l107.5-21.8c-12.2-53.4-36.3-93-72.4-118.8c-34.7-24.8-82.5-38.3-143.3-40.4v87.2
				c30.3,1.7,54.5,10,72.3,24.9C3534.9,591.9,3546.9,614.9,3551.6,644.9L3551.6,644.9z"/>
			<path class="st1" d="M1980.3,579.3v468.4h98.4V698.3c0-51.1-0.6-90.8-1.8-119H1980.3L1980.3,579.3z"/>
			<path class="st1" d="M2287.5,867c-7.5,35.2-11.5,55.5-12,61.1h-1.4c0-6.1-3.5-26.7-10.5-61.9c-39.8-131.2-79.9-262.4-120.2-393.6
				h-163.1v87.9h99.1c3.3,17.8,12.6,51.5,28.1,101.2c40.8,128.4,81.5,256.8,122.3,385.2h94.9c72.6-239.9,111.8-370.2,117.4-390.8
				c6.7-25.6,13.2-51.2,19.6-76.8H2371C2317.3,763.9,2289.5,859.9,2287.5,867z"/>
			<path class="st1" d="M2376.5,560.6l92.3-0.2c-1.4,42.2-2.8,83.9-4.2,126.1v361.3h106.9v-575h-169.4
				C2393,503.8,2384.5,533.1,2376.5,560.6L2376.5,560.6z"/>
			<path class="st1" d="M3305.6,843.1L3198,866.3c14.1,65.6,41.2,113.9,81.6,144.8c35.4,27.3,83.8,42.7,145.1,46.3v-87.3
				C3356.6,963.4,3316.9,921.1,3305.6,843.1L3305.6,843.1z"/>
			<path class="st1" d="M3557.9,734.2c-38.9-15.9-75.2-27.4-109-34.4c-45-10.3-75.7-21.3-92.1-33c-15.9-11.7-23.9-27.7-23.9-47.8
				c0-18.3,8.2-33.7,24.6-46.4c16.9-13.4,39.3-20.6,67.1-21.6v-87.3c-61.8,0.2-112.1,15.4-150.7,45.7c-37,29.1-55.5,65.4-55.5,109
				s12,76.9,35.8,101.2c24.8,25.3,67.7,45.2,128.6,59.7c26.7,6.1,56.5,14.5,89.3,25.3c32.8,11.2,55.8,23.9,68.9,37.9
				c11.7,12.2,17.6,27.9,17.6,47.1c0,23.4-8.9,42.4-26.7,56.9c-19.7,16.4-47.1,24.6-82.2,24.6c-2.2,0.1-4.2-0.1-6.3-0.1v87.1
				c3.3,0.1,6.5,0.1,9.8,0.1c70.7,0,125.8-16.2,165.2-48.5c37.5-30.9,56.2-72.4,56.2-124.4C3674.6,817.4,3635.7,767,3557.9,734.2
				L3557.9,734.2z"/>
		</g>
	</g>
</g>
</svg>
