<?xml version="1.0" encoding="utf-8"?>
<!-- Generator: Adobe Illustrator 21.1.0, SVG Export Plug-In . SVG Version: 6.00 Build 0)  -->
<svg version="1.1" id="NATS-color" xmlns="http://www.w3.org/2000/svg" xmlns:xlink="http://www.w3.org/1999/xlink" x="0px" y="0px"
	 viewBox="0 0 288 368" style="enable-background:new 0 0 288 368;" xml:space="preserve">
<style type="text/css">
	.st0{fill:#8DC63F;}
	.st1{fill:#FFFFFF;}
	.st2{fill:#375C93;}
	.st3{fill:#27AAE1;}
</style>
<g>
	<path d="M7.1,348.8h27.3l15.6,14.5v-14.5H71V297H7.1V348.8z M17.4,309.1h12l23,21.5v-21.5h7.7v27.8H48.5L25.1,315v21.9h-7.7V309.1z
		"/>
	<polygon points="107.8,313.9 99.5,325.7 116.1,325.7 	"/>
	<path d="M76.4,348.8h63.9V297H76.4V348.8z M102.9,308.9h10.2l20,27.9h-9.1l-3.8-5.4H95.5l-3.8,5.4H83L102.9,308.9z"/>
	<path d="M145.6,348.8h63.9V297h-63.9V348.8z M155.7,309.1h43.1v6.3h-17.6v21.5h-7.9v-21.5h-17.7V309.1z"/>
	<path d="M214.9,348.8h63.9V297h-63.9V348.8z M227.2,327.9c4.1,1.8,13,3.5,19.8,3.5c6,0,10.2-0.2,11.3-1.3c0.4-0.4,0.5-0.8,0.5-1.3
		c0-0.5-0.1-0.9-0.4-1.2c-0.6-0.6-1.7-1.1-11.3-1.3c-10.2-0.3-15.2-1.3-17.5-3.6c-1.1-1.1-1.7-2.8-1.7-4.8c0-2.1,0.4-4,2.1-5.8
		c2.3-2.3,6.9-3.5,16.3-3.5c7,0,14,1.1,17.7,2.6v6.5c-4.2-1.8-11.5-3.1-17.6-3.1c-6.7,0-9.6,0.4-10.5,1.3c-0.3,0.3-0.5,0.7-0.5,1.2
		c0,0.6,0.2,1,0.5,1.3c0.8,0.8,4,1.1,11.2,1.2c10.6,0.2,15.2,1.2,17.5,3.4c1.2,1.2,1.8,3,1.8,5c0,2.1-0.4,4.2-2,5.8
		c-2.1,2.1-6.6,3.7-17.3,3.7c-7.9,0-15.6-1.2-19.8-3V327.9z"/>
	<path d="M143,6H6.7v110.6v110.6h116.8l20.2,18.8l0-0.3l45.9,42.5v-61.1h89.7V116.6V6H143z M232,175.7h-49.4L143,138.7l-23.7-22.1
		l-36.4-34v34v59.2H50.3v-59.2V57.4h51.1L143,96.2l21.8,20.3l34.6,32.3v-32.3V57.4H232v59.2V175.7z"/>
</g>
</svg>
