<?xml version="1.0" encoding="utf-8"?>
<!-- Generator: Adobe Illustrator 21.1.0, SVG Export Plug-In . SVG Version: 6.00 Build 0)  -->
<svg version="1.1" id="Layer_1" xmlns="http://www.w3.org/2000/svg" xmlns:xlink="http://www.w3.org/1999/xlink" x="0px" y="0px"
	 viewBox="0 0 504 183.7" style="enable-background:new 0 0 504 183.7;" xml:space="preserve">
<style type="text/css">
	.st0{fill:#595A5C;}
	.st1{fill:url(#SVGID_1_);}
</style>
<g>
	<g>
		<path class="st0" d="M221,51.1c1.1,0.1,1.6,0.6,1.6,1.5V58c0,1.2-0.5,1.8-1.5,1.8h-26.4c-10.2,0-15.4,3.5-15.4,10.4v2
			c0,6.1,1.9,9.2,8.8,12l25.6,10.6c10.2,4.2,13.5,10.4,13.5,20.4v3.8c0,6.9-2.5,12-6.1,14.9c-1.8,1.5-4,2.7-6.8,3.5
			c-5.6,1.5-10.7,2-18.1,2c-9.9,0-19.4-0.6-28.6-1.6c-0.9-0.2-1.4-0.8-1.4-1.9v-5.3c0-1.1,0.6-1.6,1.6-1.6H200
			c10.4,0,15.3-2.9,15.3-10.3v-2.2c0-6.5-2-9.9-8.9-12.7l-27.8-11.3c-8.5-3.3-11-10-11-20v-2.8c0-6.9,2.5-12,5.9-14.8
			c1.8-1.5,4.1-2.6,6.8-3.4c5.6-1.8,10.6-2.1,18.1-2.1C204,49.4,211.5,49.9,221,51.1z"/>
		<path class="st0" d="M299.8,54.6c6,4.2,7.9,11.1,7.9,23.4c0,12.6-2.2,19-7.6,23.1c-1.6,1.2-3.9,2.1-6.8,2.8
			c-5.8,1.3-11.3,1.6-20.8,1.6h-14.9V137c0,1.4-0.4,1.8-1.8,1.8h-8.3c-1.4,0-1.8-0.4-1.8-1.8V51.9c0-1.4,0.4-1.6,1.8-1.8
			c7.7-0.6,16.1-0.8,25-0.8C286.5,49.4,294,50.4,299.8,54.6z M257.5,59.8v35.7h13.8c3.2,0,5.8,0,7.5-0.1c3.6-0.1,8.2-0.5,10.2-1.4
			c4.9-2.1,6.7-6.2,6.6-15.7c0-7.9-1.5-12.9-4.7-15.1c-3.1-2.2-9.6-3.3-19.6-3.3H257.5z"/>
		<path class="st0" d="M335.9,49.9c1.2,0,1.8,0.6,1.8,1.9V137c0,1.2-0.6,1.8-1.8,1.8h-8.3c-1.2,0-1.8-0.6-1.8-1.8V51.8
			c0-1.3,0.6-1.9,1.8-1.9H335.9z"/>
		<path class="st0" d="M415.2,54.6c6,4.2,7.9,11.1,7.9,23.4c0,9.3-1.4,15.8-4.3,19.7c-2.8,3.9-7.7,6.2-14.9,7.2l19.8,31.6
			c0.9,1.3,0.3,2.3-1.4,2.3h-7.5c-2.5,0-3.4-0.7-4.7-2.6l-19.4-30.6h-17.7V137c0,1.4-0.3,1.8-1.8,1.8h-8.3c-1.4,0-1.8-0.4-1.8-1.8
			V51.9c0-1.4,0.4-1.6,1.8-1.8c7.7-0.6,16.1-0.8,25-0.8C401.9,49.4,409.4,50.4,415.2,54.6z M372.9,59.8v35.7h13.9
			c3.2,0,5.8,0,7.5-0.1c3.6-0.1,8.2-0.5,10.2-1.4c4.9-2.1,6.7-6.2,6.6-15.7c0-7.9-1.5-12.9-4.7-15.1c-3.1-2.2-9.6-3.3-19.6-3.3
			H372.9z"/>
		<path class="st0" d="M499.4,49.9c1.2,0,1.8,0.6,1.8,1.8v6.9c0,1.2-0.6,1.8-1.8,1.8h-44.8v30.2h40.8c1.2,0,1.8,0.6,1.8,1.8v6.8
			c0,1.2-0.6,1.8-1.8,1.8h-40.8v27.5h44.8c1.2,0,1.8,0.6,1.8,1.8v6.9c0,1.2-0.6,1.8-1.8,1.8h-54.9c-1.2,0-1.8-0.6-1.8-1.8V51.7
			c0-1.2,0.6-1.8,1.8-1.8H499.4z"/>
	</g>
	<g>
		<g>
			<linearGradient id="SVGID_1_" gradientUnits="userSpaceOnUse" x1="19.863" y1="149.0914" x2="117.9735" y2="25.883">
				<stop  offset="0" style="stop-color:#0CB0D1"/>
				<stop  offset="1" style="stop-color:#9ACA3E"/>
			</linearGradient>
			<path class="st1" d="M111.7,3.6c-2.9-0.5-5.7,1.4-6.2,4.3l-6.3,34.8H110l6-32.9C116.5,6.9,114.6,4.2,111.7,3.6z M27.9,7.9
				c-0.6-2.9-3.3-4.8-6.2-4.3s-4.8,3.3-4.3,6.2l5.9,32.9h10.9L27.9,7.9z M130.8,151.8l-21.9-92h11.5c2.7,0,4.8-2.2,4.8-4.8
				c0-2.6-2.2-4.8-4.8-4.8H78.2v10.2h8.4L72,71.6V27.8c0-2.9-2.4-5.3-5.4-5.3c-2.9,0-5.3,2.4-5.3,5.3v43.7L46.8,60.4h8.4V50.2H12.8
				C10.2,50.2,8,52.4,8,55c0,2.7,2.1,4.8,4.8,4.8h11.6L2.5,151.9c-0.7,2.9,1.1,5.8,3.9,6.4c0.4,0.1,0.8,0.1,1.2,0.1
				c2.4,0,4.6-1.7,5.2-4.1l11.7-49l36.8,27.1v42.8c0,2.9,2.4,5.3,5.3,5.3c2.9,0,5.4-2.4,5.4-5.3v-42.8l36.8-27.1l11.6,48.9
				c0.6,2.5,2.8,4.1,5.2,4.1c0.4,0,0.8,0,1.2-0.2C129.7,157.5,131.5,154.7,130.8,151.8z M61.3,119.2l-23.9-17.6h17.7V91H27.9
				l6.4-26.7L61.3,85V119.2z M95.9,101.6L72,119.2V85l27.1-20.7l6.3,26.7H78.2v10.7H95.9z"/>
		</g>
	</g>
</g>
</svg>
