<svg id="Layer_5" data-name="Layer 5" xmlns="http://www.w3.org/2000/svg" viewBox="0 0 430.0357 736.46318"><defs><style>.cls-1{fill:#fff;}.cls-2{fill:#cccccb;}.cls-3{fill:#666766;}.cls-4,.cls-5{fill:none;stroke:#666766;stroke-miterlimit:10;stroke-width:2px;}.cls-5{stroke-linecap:round;}</style></defs><title>captainkube-white</title><path class="cls-1" d="M384.504,385.91135c1.53284-14.57111-8.74628-74.53278-11.16278-91.37616-2.3985-16.82532,5.12152-58.30255,5.12152-58.30255.16229-8.36762.28851-13.21863.28851-13.21863,3.01166-10.82013,5.75275-27.05036,5.75275-27.05036l-3.769,4.79694c3.769-4.79694,0-10.82019,0-10.82019s-6.78064,3.01166-3.17389,0c3.60669-2.99353,4.79693-7.80853,0-7.21344-4.815.61316-52.29743,7.21344-52.29743,7.21344l-.10815-.05408C310.2417,226.53055,233.14813,231.1832,221.769,231.67014h-.03607l-14.82361-.57709s-90.36627-2.29029-105.262-42.974c-3.46247-.48694-47.46442-6.60034-52.081-7.19544-4.815-.59509-3.60675,4.21985,0,7.21344,3.60669,3.0116-3.17395,0-3.17395,0s-3.769,6.02326,0,10.82013l-3.769-4.79687s2.72309,16.23022,5.73468,27.05035c0,0,.12622,4.851.28852,13.21863,0,0,7.52,41.47723,5.12152,58.30255C51.36963,309.57523,41.09052,369.5369,42.62335,384.108s-8.0971,60.106-16.50073,94.98291C17.70093,513.9498,24.91437,546.41025,40.5495,550.017a3.18808,3.18808,0,0,0,.36066.07214l-.21643,1.1s-6.31171,37.87054-5.10346,52.29736c1.19019,14.42688,5.10346,7.21344,5.10346,8.42169v1.19025s-4.815,18.03357,10.82019,28.8537c0,0-2.3985,15.63513,33.6687,37.27545,0,0,33.81292,13.12842,53.722,16.2663,70.11457,11.03656,167.11719,6.00518,203.18439-15.63513s33.6687-37.27546,33.6687-37.27546c15.61707-10.82013,10.82013-28.8537,10.82013-28.8537V612.5394c0-1.20825,3.89526,6.00519,5.10352-8.42163s-5.10352-52.29743-5.10352-52.29743c15.61707-3.60669,22.83051-36.06714,14.42688-70.92608C392.58307,446.0173,382.97119,400.48251,384.504,385.91135Z"/><path class="cls-2" d="M125.87,648.87066s3.60521,22.7823,53.3676,30.40115,101.62363-6.38675,101.62363-6.38675,21.07951-11.89866,22.94414-17.78153l1.86463-5.88287s7.67-3.67,6-16c0,0-27.04859,17.21592-76.33667,23.33666-51,6.33334-87.92-8.33333-97.79333-14s-20.5-15.01666-20.5-15.01666-1.12816,5.08929,2.83,5.33c0,0-1.9068,10.1569,3.1116,13.42178S125.87,648.87066,125.87,648.87066Z"/><path class="cls-2" d="M118.1513,499.54742c-.3957-2.39091-7.36874,5.4476-7.36874,5.4476l-5.99311-20.89491-11.66779,5.53632s9.04717,9.34744-5.28063,22.27154c0,0,9.71694,9.31728-13.12564,15.92963,0,0,6.50459,9.01679-13.579,9.61787,0,0-3.30227,4.63069-7.46824,10.5605-6.27643,3.84227-14.05209,3.83632-14.05209,3.83632v16.65157c-3.10315,4.77861-4.068,6.76755,0,2.01326,3.74287-4.37433,41.11061-22.2415,44.71732-31.25829s17.87729-5.41007,16.45257-19.83694.37874-13.22459,6.99109-7.51392,18.70676-.63124,18.70676-.63124S118.54688,501.93832,118.1513,499.54742Z"/><path class="cls-2" d="M198.66,491.93066s12.82282,17.13359,14.85,17.99,1.74,2.19118,8.78468-6.33727L231.92,491.93066s1.18667,10.29333-3.2,16.29333-9.38667,14.33333-16.05333,11S195.65333,502.304,198.66,491.93066Z"/><path class="cls-2" d="M267.82658,571.03647c.21942-1.32581,4.08612,3.02081,4.08612,3.02081l3.3233-11.58667,6.47,3.07s-5.01685,5.18335,2.92822,12.35c0,0-5.38825,5.16662,7.27844,8.83331,0,0-3.60693,5,7.52985,5.33331,0,0,1.83117,2.56781,4.14129,5.856a16.84718,16.84718,0,0,0,7.79218,2.12732v9.23364c1.72076,2.64984,2.2558,3.75275,0,1.1164-2.0755-2.42566-22.79669-12.33338-24.79669-17.33338s-9.91333-3-9.12329-11-.21-7.33331-3.87671-4.16662-10.37329-.35-10.37329-.35S267.60722,572.36227,267.82658,571.03647Z"/><path class="cls-2" d="M329.74036,251.91779c12.47924,12.0284,7.06916,28.85374-12.17267,42.09039,0,0,22.23541,31.2522-1.20825,52.8925S252.64679,363.726,246.6416,320.44541c-.25247-1.78532-5.41007-15.61708,6.60029-25.247C265.27029,285.5865,317.26112,239.90743,329.74036,251.91779Zm-44.038,91.97128c15.04,4.21986,25.247-16.23022,22.25345-28.24059-3.01161-12.0284-7.0872-18.03358-17.07781-18.03358,0,0-14.19243,1.19021-17.186,15.61708C270.68037,327.65885,270.68037,339.68725,285.70234,343.88907Z"/><path class="cls-1" d="M100.56957,188.78222a33.40338,33.40338,0,0,1-1.587-6.07732s.45084-27.59138,33.813-13.16452,4.50839-30.65709-6.31176-51.39571c-8.36758-16.03186-9.7201-48.92511,19.20577-72.13433.018-.018.0541-.03607.07213-.07214,8.49382-6.79866,19.62054-12.76778,33.92118-17.22207a107.40827,107.40827,0,0,1,36.37373-4.95924.86922.86922,0,0,1,.21641,0,126.695,126.695,0,0,1,29.1603,5.59041c2.81324.86562,5.48221,1.80336,8.043,2.79521a.063.063,0,0,1,.03607.018,113.96229,113.96229,0,0,1,32.65882,20.61239c.12623.14427.25247.25247.3246.34264.12624.1082.19837.18033.19837.18033,21.35176,22.48788,19.53037,50.92684,11.93823,65.48-10.82015,20.73862-39.67388,65.82258-6.31175,51.39571s33.813,13.16452,33.813,13.16452a31.65584,31.65584,0,0,1-2.05583,7.21343c-14.91377,36.64424-92.00734,41.29691-103.38654,41.78381h-.03606l-14.82361-.57707S115.46531,229.466,100.56957,188.78222ZM235.91162,146.7279l-7.3036-22.84855s-26.97824,14.1744-32.46045-6.00518c-3.31818-12.17267,15.022-27.50122,24.03876-18.03359,1.31646,1.37056,11.41526-22.23541,11.41526-22.23541s-42.91993-13.23665-55.4172,36.06717C163.68712,162.95813,229.9966,156.3398,235.91162,146.7279Z"/><path class="cls-1" d="M307.95579,315.64848c2.99357,12.01037-7.21344,32.46045-22.25345,28.24059-15.022-4.20182-15.022-16.23022-12.01036-30.65709,2.99357-14.42687,17.186-15.61708,17.186-15.61708C300.86859,297.6149,304.94418,303.62008,307.95579,315.64848Zm-17.43848-.018c0-4.815-3.35425-8.72826-7.502-8.72826-4.12969,0-7.48394,3.91329-7.48394,8.72826s3.35425,8.72825,7.48394,8.72825C287.16306,324.3587,290.51731,320.44541,290.51731,315.63045Z"/><path class="cls-3" d="M283.01534,306.90219c4.14772,0,7.502,3.91329,7.502,8.72826s-3.35425,8.72825-7.502,8.72825c-4.12969,0-7.48394-3.91329-7.48394-8.72825S278.88565,306.90219,283.01534,306.90219Z"/><path class="cls-1" d="M214.32542,323.83573l27.35695,35.76059-26.79791,32.44242a4.04979,4.04979,0,0,1-6.40192,0l-26.77987-32.44242,27.35694-35.76059A3.31868,3.31868,0,0,1,214.32542,323.83573Z"/><path class="cls-1" d="M228.608,123.87935l7.3036,22.84855c-5.915,9.6119-72.2245,16.23023-59.72723-33.05556,12.49727-49.30382,55.4172-36.06717,55.4172-36.06717s-10.0988,23.606-11.41526,22.23541c-9.01679-9.46763-27.35694,5.86092-24.03876,18.03359C201.62978,138.05375,228.608,123.87935,228.608,123.87935Z"/><path class="cls-2" d="M168.24961,294.56722c12.0284,9.62993,6.8708,23.46169,6.61833,25.247-6.00518,43.2806-46.29221,48.09556-69.73587,26.45526s-1.19022-52.8925-1.19022-52.8925C84.7,280.14035,79.29,263.315,91.76918,251.28662,104.23039,239.27625,156.23925,284.95532,168.24961,294.56722ZM135.78916,343.2579c15.04-4.20183,15.04-16.23023,12.0284-30.6571s-17.204-15.61708-17.204-15.61708c-9.97257,0-14.04816,6.00518-17.05977,18.03358C110.54215,327.02767,120.76719,347.47775,135.78916,343.2579Z"/><path class="cls-1" d="M147.81756,312.6008c3.01161,14.42687,3.01161,26.45527-12.0284,30.6571-15.022,4.21985-25.247-16.23023-22.23541-28.2406,3.01161-12.0284,7.0872-18.03358,17.05977-18.03358C130.61352,296.98372,144.806,298.17394,147.81756,312.6008Zm-1.83942,2.39847c0-4.815-3.35425-8.72825-7.502-8.72825-4.12969,0-7.48394,3.91328-7.48394,8.72825s3.35425,8.72825,7.48394,8.72825C142.62389,323.72752,145.97814,319.81424,145.97814,314.99927Z"/><path class="cls-3" d="M138.47617,306.271c4.14772,0,7.502,3.91328,7.502,8.72825s-3.35425,8.72825-7.502,8.72825c-4.12969,0-7.48394-3.91328-7.48394-8.72825S134.34648,306.271,138.47617,306.271Z"/><path class="cls-4" d="M353.63485,430.75684s-5.41007,8.11512,0,22.542c0,0-5.41007,5.41008-9.91847,0,0,0,.90168,11.72183,4.95924,18.03359,0,0-13.07435,3.60671-16.68107,0,0,0,5.41008,7.21343,0,18.93526a.92792.92792,0,0,1-.25247-.12623c-.4869-.23444-1.87549-1.02792-5.75271-3.48049L321.76951,484.01a.9421.9421,0,0,0-1.46072.72134c-.1623,2.54274-1.26235,8.34955-6.34782,19.96318,0,0-.30657-2.39847-6.61833-6.90687,0,0-.5951,9.6119-8.71022,14.1203"/><path class="cls-4" d="M290.878,297.6149s-14.19243,1.19021-17.186,15.61708c-3.01161,14.42687-3.01161,26.45527,12.01036,30.65709,15.04,4.21986,25.247-16.23022,22.25345-28.24059C304.94418,303.62008,300.86859,297.6149,290.878,297.6149Z"/><path class="cls-4" d="M216.05664,23.75689c-43.62324-2.86734-68.85222,20.79273-70.29491,22.18131"/><path class="cls-4" d="M253.47633,32.14251c-2.56077-.99185-5.22974-1.92959-8.043-2.79521a126.695,126.695,0,0,0-29.1603-5.59041"/><path class="cls-4" d="M286.49582,53.11557a1.93105,1.93105,0,0,0-.3246-.34264c-7.68231-7.93478-18.32212-15.11214-32.65882-20.61239"/><path class="cls-4" d="M220.69127,232.33332c11.3792-.4869,88.47277-5.13957,103.38654-41.78381a31.65584,31.65584,0,0,0,2.05583-7.21343s-.45084-27.59139-33.813-13.16452-4.5084-30.65709,6.31175-51.39571c7.59214-14.55311,9.41353-42.99207-11.93823-65.47995"/><path class="cls-4" d="M219.28466,232.38742s.46887-.018,1.37055-.0541"/><path class="cls-4" d="M39.61606,551.85236s-6.31175,37.87052-5.1035,52.29739c1.19021,14.42687,5.1035,7.21344,5.1035,8.42169v1.19021s-4.815,18.03359,10.82015,28.85374c0,0-2.39847,15.63511,33.6687,37.27541,0,0,33.813,13.12845,53.72205,16.2663,70.11457,11.03655,167.11722,6.00518,203.18439-15.63512s33.6687-37.27542,33.6687-37.27542c15.61708-10.82015,10.82015-28.85373,10.82015-28.85373v-1.19022c0-1.20825,3.89525,6.00518,5.1035-8.42168s-5.1035-52.2974-5.1035-52.2974"/><path class="cls-4" d="M71.4814,430.12567s5.41008,8.11511,0,22.542c0,0,5.41008,5.41007,9.91847,0,0,0-.90167,11.72183-4.95923,18.03358,0,0,13.07435,3.60672,16.68106,0,0,0-5.41007,7.21344,0,18.93526a3.26131,3.26131,0,0,0,.61315-.3246c.70331-.3787,2.20009-1.26235,5.392-3.28211l4.20182-2.65094a.93907.93907,0,0,1,1.46072.72134c.18034,2.54274,1.28039,8.34955,6.36586,19.96318,0,0,.28853-2.39846,6.60029-6.90686,0,0,.61314,9.6119,8.72825,14.1203"/><path class="cls-4" d="M130.61352,296.98372s14.19243,1.19022,17.204,15.61708,3.01161,26.45527-12.0284,30.6571c-15.022,4.21985-25.247-16.23023-22.23541-28.2406C116.56536,302.9889,120.641,296.98372,130.61352,296.98372Z"/><path class="cls-4" d="M145.97814,314.99927c0-4.815-3.35425-8.72825-7.502-8.72825-4.12969,0-7.48394,3.91328-7.48394,8.72825s3.35425,8.72825,7.48394,8.72825C142.62389,323.72752,145.97814,319.81424,145.97814,314.99927Z"/><path class="cls-4" d="M286.69419,53.2959s-.07213-.07213-.19837-.18033c-.07213-.09017-.19837-.19837-.3246-.34264A113.96229,113.96229,0,0,0,253.5124,32.16054a.063.063,0,0,0-.03607-.018,107.31427,107.31427,0,0,0-37.20328-8.38562.86922.86922,0,0,0-.21641,0,107.40827,107.40827,0,0,0-36.37373,4.95924c-14.30064,4.45429-25.42736,10.42341-33.92118,17.22207-.018.03607-.0541.0541-.07213.07214-28.92587,23.20922-27.57335,56.10247-19.20577,72.13433,10.82015,20.73862,39.67389,65.82258,6.31176,51.39571s-33.813,13.16452-33.813,13.16452a33.40338,33.40338,0,0,0,1.587,6.07732c14.89574,40.68376,105.262,42.974,105.262,42.974l14.82361.57707h.03606l1.29842.0541"/><path class="cls-5" d="M181.70267,359.59632l27.35694-35.76059a3.31868,3.31868,0,0,1,5.26581,0l27.35695,35.76059"/><path class="cls-5" d="M181.70267,359.59632l26.77987,32.44242a4.04979,4.04979,0,0,0,6.40192,0l26.79791-32.44242"/><path class="cls-5" d="M220.18633,99.84058c1.31646,1.37056,11.41526-22.23541,11.41526-22.23541s-42.91993-13.23665-55.4172,36.06717c-12.49727,49.28579,53.81221,42.66746,59.72723,33.05556l-7.3036-22.84855s-26.97824,14.1744-32.46045-6.00518C192.82939,105.7015,211.16954,90.373,220.18633,99.84058Z"/><path class="cls-4" d="M332.58966,488.77088a11.29726,11.29726,0,0,0-.84758,1.37056c-6.56422,11.63166,5.66255,23.87646,5.66255,23.87646-9.6119,10.82015,13.21862,15.61708,13.21862,15.61708-3.60672,14.42687,13.23665,4.815,13.20058,8.42169-.018,3.60671,6.04125,18.03358,21.67637,14.42686,15.61708-3.60671,22.83051-36.06716,14.42686-70.92608-8.42168-34.877-18.03358-80.41175-16.50073-94.98289s-8.74628-74.5328-11.16278-91.37616c-2.39847-16.82534,5.12153-58.30258,5.12153-58.30258.16231-8.36758.28854-13.21862.28854-13.21862,3.01161-10.82015,5.75271-27.05037,5.75271-27.05037l-3.769,4.79693c3.769-4.79693,0-10.82015,0-10.82015s-6.78063,3.01161-3.17392,0c3.60672-2.99358,4.79694-7.80854,0-7.21343-4.815.61314-52.29739,7.21343-52.29739,7.21343"/><path class="cls-4" d="M92.36429,486.96752a15.80983,15.80983,0,0,1,1.37056,2.34437c5.392,11.32509-6.18552,22.90265-6.18552,22.90265,9.62993,10.82015-13.21862,15.61709-13.21862,15.61709,3.60672,14.42686-13.21862,4.815-13.20058,8.42168.03606,3.57065-5.95109,17.81718-21.29767,14.499a3.18539,3.18539,0,0,1-.36067-.07213c-15.63511-3.60672-22.84855-36.06717-14.42686-70.92609,8.40365-34.877,18.03358-80.41175,16.50072-94.98288S50.29194,310.2384,52.69041,293.395c2.39847-16.82534-5.12154-58.30258-5.12154-58.30258-.1623-8.36758-.28854-13.21862-.28854-13.21862-3.0116-10.82015-5.73468-27.05037-5.73468-27.05037l3.769,4.79693c-3.769-4.79693,0-10.82015,0-10.82015s6.78063,3.01161,3.17391,0c-3.60671-2.99357-4.815-7.80854,0-7.21343,4.6166.59511,48.61855,6.70849,52.081,7.1954a.99249.99249,0,0,1,.21641.018"/></svg>