<?xml version="1.0" encoding="UTF-8"?><svg id="Layer_1" xmlns="http://www.w3.org/2000/svg" xmlns:xlink="http://www.w3.org/1999/xlink" viewBox="0 0 1240 239"><defs><style>.cls-1{fill:none;}.cls-2{clip-path:url(#clippath);}.cls-3{fill:#00b7cd;}.cls-4{fill:#006bcf;}.cls-5{clip-path:url(#clippath-1);}.cls-6{clip-path:url(#clippath-4);}.cls-7{clip-path:url(#clippath-3);}.cls-8{clip-path:url(#clippath-2);}.cls-9{clip-path:url(#clippath-7);}.cls-10{clip-path:url(#clippath-8);}.cls-11{clip-path:url(#clippath-6);}.cls-12{clip-path:url(#clippath-5);}.cls-13{clip-path:url(#clippath-9);}.cls-14{clip-path:url(#clippath-10);}.cls-15{clip-path:url(#clippath-11);}.cls-16{opacity:.61;}</style><clipPath id="clippath"><path class="cls-1" d="m146.9135,62.88992c-15.60458,0-31.21095-.12822-46.81251.08846-3.99441.05549-5.05128-1.1852-5.01033-5.08514.11414-10.86931-.06232-10.87117,10.99777-10.87115,29.14109.00005,58.28302.11051,87.42239-.114,4.58622-.03533,5.60146,1.38573,5.50383,5.67219-.2347,10.30576-.03031,10.31046-10.36359,10.31049-13.91252.00004-27.82503,0-41.73755-.00084Z"/></clipPath><clipPath id="clippath-1"><path class="cls-1" d="m146.42792,190.21353c-15.42142,0-30.8446-.12684-46.26302.08816-3.90993.05452-5.1193-.99746-5.07951-4.99166.10897-10.93918-.08049-10.94109,10.89527-10.94107,29.15021.00003,58.30112.0986,87.44992-.10468,4.44312-.03098,5.71258,1.14928,5.59511,5.59151-.27375,10.35181-.04141,10.35798-10.28294,10.35799-14.10494.00002-28.20989,0-42.31484-.00026Z"/></clipPath><clipPath id="clippath-2"><path class="cls-1" d="m91.57311,63.28527c0,13.13825-.07926,26.27735.05916,39.41415.03214,3.05057-.68798,4.18393-4.00618,4.26229-11.95838.28237-11.95509.42277-11.95507-11.49164.00006-23.27348-.00895-46.54697.00587-69.82045.00435-6.83329,2.48579-10.23213,7.5054-10.41815,5.1993-.19267,8.35374,3.61388,8.37835,10.32834.04609,12.575.01326,25.15029.01247,37.72546Z"/></clipPath><clipPath id="clippath-3"><path class="cls-1" d="m75.67129,173.95663c0-12.77124.15737-25.54553-.09182-38.31191-.07914-4.05433.79156-5.51619,5.19267-5.41674,10.79657.24395,10.80212-.00118,10.80213,10.95579,0,22.9131.0023,45.82618-.00477,68.73928-.00052,1.68847.20884,3.44003-.1582,5.05332-1.03248,4.53819-3.71351,7.48143-8.69799,6.97127-4.6059-.47141-6.98859-3.40273-7.01059-7.98711-.06399-13.33436-.0227-26.66922-.03143-40.0039Z"/></clipPath><clipPath id="clippath-4"><path class="cls-1" d="m218.38188,173.83992c0,12.94607.04796,25.89239-.02075,38.8381-.03313,6.23913-2.86656,9.47897-7.88713,9.37278-4.8349-.10225-7.42667-3.18067-7.4364-9.21839-.04174-25.89207.07291-51.78488-.11139-77.67569-.02927-4.11131,1.36594-4.94604,5.15156-4.89831,10.30561.12989,10.3078-.03966,10.30787,10.37205.00007,11.06982.00002,22.13964-.00375,33.20947Z"/></clipPath><clipPath id="clippath-5"><path class="cls-1" d="m203.0197,62.83283c0-12.78774-.03924-25.57565.01705-38.36314.02702-6.13831,2.49607-9.08884,7.45228-9.2329,4.98036-.14476,7.83799,2.84824,7.8549,8.81221.07413,26.13943-.01787,52.27943.10357,78.41851.01586,3.41574-.98651,4.45804-4.44986,4.49253-10.98149.10935-10.98002.25977-10.98006-10.84146-.00003-11.09525,0-22.19048.00212-33.28573Z"/></clipPath><clipPath id="clippath-6"><path class="cls-1" d="m154.89658,29.76586c.00002,12.56029.00633,12.4652-12.40704,11.64142-2.73371-.18141-3.54348-1.10522-3.47165-3.70593.14523-5.25772-.09277-10.52689.08579-15.78256.18684-5.49913,3.53369-8.88346,8.23296-8.7218,4.62983.15927,7.39246,3.29701,7.54249,8.6767.07331,2.6288.01268,5.26134.01745,7.89218Z"/></clipPath><clipPath id="clippath-7"><path class="cls-1" d="m154.88389,207.739c0,2.80152.05439,5.60432-.01228,8.40426-.1096,4.60266-2.50277,7.38653-7.06165,7.83207-4.98.48667-8.06742-2.41323-8.50447-6.97437-.58531-6.10842-.17519-12.31016-.24516-18.47123-.02189-1.9262.88937-2.66432,2.72486-2.64559,3.36133.03434,6.72744.10321,10.08374-.0337,2.63433-.10747,3.10048,1.31509,3.0404,3.48446-.07753,2.79941-.0189,5.60257-.02545,8.40411Z"/></clipPath><clipPath id="clippath-8"><path class="cls-1" d="m236.18751,62.89078c-.18693,0-.37385,0-.56078,0-12.35717-.00002-12.2879.00568-11.24659-12.63755.19384-2.35345.85459-3.31618,3.287-3.26307,5.60522.12237,11.2245-.15355,16.81959.11597,4.97566.23968,8.39601,3.88453,8.26188,8.16349-.13614,4.34282-3.62462,7.43078-8.71066,7.6001-2.61407.08702-5.23345.01527-7.85044.02106Z"/></clipPath><clipPath id="clippath-9"><path class="cls-1" d="m235.98065,190.21379c-12.28686,0-12.15479.00563-11.63182-12.26897.13405-3.14632,1.3582-3.69092,4.04736-3.61612,5.23388.14559,10.47672-.04627,15.71193.07289,5.01451.11409,8.56053,3.38345,8.63178,7.69455.07136,4.31685-3.42385,7.79819-8.34291,8.08619-2.79643.16374-5.61031.0296-8.41633.03146Z"/></clipPath><clipPath id="clippath-10"><path class="cls-1" d="m58.10048,190.1928c-2.99421,0-6.02677.30315-8.9738-.06974-4.63663-.58663-7.70057-3.27097-7.4566-8.19407.23721-4.78673,3.08737-7.44918,8.01736-7.53536,2.9934-.05235,5.98829-.0235,8.9825-.02393,11.95527-.00177,12.40813.61011,10.92543,12.99774-.25689,2.14628-.96904,2.94345-3.07455,2.86356-2.80308-.10636-5.61323-.02626-8.42034-.03821Z"/></clipPath><clipPath id="clippath-11"><path class="cls-1" d="m57.68485,62.85948c-2.80348,0-5.61038.08823-8.40965-.02037-4.35632-.16902-7.02233-2.54399-7.55221-6.80692-.57308-4.61049,1.83647-8.04867,6.2138-8.52889,6.46166-.70888,13.04115-.34829,19.57061-.43078,1.41849-.01793,1.96587.87687,1.97762,2.13503.03489,3.73728-.00851,7.47542.04127,11.21238.02718,2.04112-1.15284,2.48125-2.87013,2.46119-2.99006-.03494-5.98082-.00973-8.97131-.02164Z"/></clipPath></defs><g><path class="cls-4" d="m392.11182,96.46831l-26.10086,74.6049h-10.98136l36.60489-99.78901h1.27307l36.6054,99.78901h-11.45922l-25.94192-74.6049Zm17.18883,45.95738h-35.96861l2.22827-8.59415h31.19367l2.54667,8.59415Z"/><path class="cls-4" d="m475.34879,172.34681c-5.30681,0-10.13368-.81859-14.48322-2.45265-4.35162-1.63302-8.09189-4.03062-11.22029-7.19383-3.13048-3.16321-5.54522-7.08994-7.24109-11.78229-1.69847-4.69235-2.54667-10.04435-2.54667-16.05496,0-6.11449.87521-11.54336,2.62614-16.28765,1.75041-4.74533,4.13814-8.72401,7.16162-11.94123,3.024-3.21619,6.57781-5.6678,10.66348-7.3538,4.08308-1.686,8.40769-2.5316,12.9707-2.5316,4.13814,0,8.00982.68874,11.61816,2.06206,3.60574,1.37228,6.73674,3.46135,9.39041,6.26097,2.65055,2.80066,4.74689,6.369,6.28642,10.70088,1.53693,4.33188,2.30774,9.45741,2.30774,15.37349,0,.8456-.02753,1.71821-.07947,2.61575-.05506.90066-.13453,1.77015-.23893,2.61575h-51.7249c.2114,4.61548,1.00714,8.62636,2.38773,12.03369,1.37747,3.40733,3.18294,6.18721,5.41121,8.33549,2.22775,2.14828,4.79935,3.74806,7.71843,4.79727,2.91701,1.04921,6.02048,1.57173,9.31042,1.57173,2.54667,0,4.93387-.29087,7.16214-.87572,2.22827-.58174,4.32201-1.48447,6.28642-2.70509,1.96233-1.21854,3.74027-2.73106,5.33174-4.53653l6.36589,6.20695c-2.01635,2.44226-4.32409,4.51159-6.92269,6.20695-2.6012,1.69847-5.43874,2.94505-8.51468,3.74079-3.07906.79574-6.42094,1.1936-10.02669,1.1936Zm-24.03205-44.88116h39.94729c0-3.36993-.45293-6.39913-1.35306-9.08448-.90273-2.68535-2.17581-5.00296-3.81974-6.95282-1.64601-1.94986-3.60834-3.42395-5.88855-4.42433-2.28281-.99934-4.85388-1.50213-7.71895-1.50213-2.54615,0-4.96088.4228-7.24109,1.26632-2.28281.84248-4.37707,2.18568-6.28694,4.02854-1.90987,1.84494-3.52835,4.13554-4.85388,6.87283-1.32813,2.74041-2.2558,6.00645-2.78508,9.79607Z"/><path class="cls-4" d="m530.57504,98.34026h11.93656l-.47786,21.32697-1.43201-2.38721c.63628-3.28786,1.75041-6.20695,3.34188-8.75413,1.59147-2.54615,3.50134-4.69443,5.72961-6.44484,2.22827-1.75145,4.66794-3.07698,7.32108-3.97972,2.65107-.89962,5.41121-1.35254,8.27576-1.35254,3.81974,0,7.34601.66381,10.58401,1.98934,3.23488,1.32761,6.12696,3.31799,8.67362,5.96802l-5.09281,8.91307-.6368,1.43253-1.11413-.6368c-.21348-.84768-.53188-1.64341-.95468-2.38721-.4254-.74172-1.32813-1.64341-2.70561-2.70612-1.69847-1.05856-3.26241-1.77534-4.69495-2.14828-1.43253-.37086-3.05153-.55681-4.8544-.55681-2.65315,0-5.30681.50175-7.95736,1.50421-2.65366,1.00454-5.06788,2.56173-7.24161,4.67261-2.17581,2.11088-3.89921,4.80454-5.17228,8.07682-1.27359,3.27332-1.90987,7.17928-1.90987,11.71788v38.48515h-11.61816v-72.73295Z"/><path class="cls-4" d="m624.79338,172.34681c-8.27628,0-14.64216-1.87507-19.0987-5.6304-4.45602-3.75222-6.68428-8.53702-6.68428-14.35337,0-3.90908.95519-7.42548,2.86506-10.54402,1.90935-3.11854,4.53549-5.76233,7.87789-7.93035,3.34188-2.16802,7.24161-3.83221,11.69763-4.99568,4.45654-1.16452,9.17589-1.74626,14.16482-1.74626,1.80287,0,3.63275.02805,5.49068.07999,1.85481.05506,3.81974.15894,5.88855.31788,2.06881.15998,4.21761.39787,6.44588.71679l.31788,8.75309c-1.90987-.31788-3.84675-.55681-5.80908-.71575-1.96441-.15998-3.89921-.29087-5.80908-.39787-1.90987-.10492-3.76728-.15998-5.57015-.15998-3.81974,0-7.32108.31892-10.50402.95052-3.18294.63368-5.94361,1.5842-8.27576,2.84948-2.33527,1.26632-4.13814,2.89935-5.41121,4.90427-1.27359,2.00388-1.90987,4.4316-1.90987,7.27901,0,2.21788.39787,4.08983,1.1936,5.62001.79574,1.52914,1.88234,2.74248,3.26241,3.63795,1.37799.89754,2.99648,1.55615,4.8544,1.97895,1.85481.4228,3.89921.6316,6.12748.6316,4.13762,0,7.82335-.65653,11.06083-1.97168,3.2354-1.31515,5.99295-3.23488,8.27576-5.76129,2.28073-2.52433,4.00413-5.62832,5.1728-9.31302,1.16607-3.68365,1.75041-7.89295,1.75041-12.62789,0-7.15435-.85027-12.73281-2.54615-16.73123-1.69847-3.99842-4.21761-6.83855-7.56001-8.52248-3.34188-1.68289-7.61455-2.52641-12.81176-2.52641-3.50134,0-6.95022.66381-10.34508,1.98934-3.39694,1.32865-6.47288,3.36993-9.23043,6.128l-5.57067-7.3216c3.39434-3.39382,7.32108-5.94101,11.77762-7.63948,4.45602-1.69535,9.17589-2.54615,14.1643-2.54615,4.77441,0,9.12395.58486,13.05069,1.75041,3.92414,1.16867,7.29355,3.10399,10.10616,5.80908,2.81001,2.70612,4.98581,6.34199,6.52535,10.90241,1.53693,4.56353,2.30774,10.29262,2.30774,17.18831v38.67421h-12.41389v-11.61816c-1.38007,2.65315-3.05153,4.82947-5.01334,6.52483-1.96493,1.69847-4.05867,2.99907-6.28642,3.89973-2.22827.90273-4.51107,1.53641-6.84374,1.90935-2.33527.37086-4.56301.55785-6.68428.55785Z"/><path class="cls-4" d="m702.45968,134.38626l-9.54935,8.97228v27.71467h-11.61816v-105.83702h13.05069v1.10946c-.6368.6368-1.03466,1.32346-1.1936,2.06206-.15946.74068-.23893,2.00908-.23893,3.80416v59.29167l36.44595-33.95901c.6368.107,1.27307.214,1.90987.31892.6368.10596,1.29801.18595,1.98934.23789.68874.05506,1.43253.107,2.22827.15998.79574.05402,1.56394.07895,2.30774.07895h4.13814l-30.5574,28.99865,35.65021,43.7343-14.80162.6368-29.76114-37.32375Z"/><path class="cls-4" d="m766.28008,171.07322v-9.23095h18.62084v-54.27105h-17.66565v-9.23095h29.12486v63.502h17.02937v9.23095h-47.10943Zm23.71365-88.01191c-2.22827,0-4.13762-.79574-5.72961-2.38721-1.59147-1.59147-2.38721-3.50082-2.38721-5.72909,0-2.33215.76873-4.2976,2.30774-5.88907,1.53693-1.59147,3.47433-2.38721,5.80908-2.38721,2.22827,0,4.16307.82378,5.80908,2.4672,1.64393,1.64653,2.4672,3.58081,2.4672,5.80908s-.82326,4.13762-2.4672,5.72909c-1.64601,1.59147-3.58081,2.38721-5.80908,2.38721Z"/><path class="cls-4" d="m916.04254,171.07322v-99.15221h8.75309l24.50991,48.54196,24.98673-48.7009h8.43521v99.31115h-10.50402v-74.80124l-21.48591,39.94677h-4.29708l-20.05285-39.46995v74.32442h-10.34508Z"/><path class="cls-4" d="m1032.38306,172.34681c-5.30681,0-10.13368-.81859-14.48322-2.45265-4.35162-1.63302-8.09189-4.03062-11.22029-7.19383-3.13048-3.16321-5.54522-7.08994-7.24109-11.78229-1.69847-4.69235-2.54667-10.04435-2.54667-16.05496,0-6.11449.87521-11.54336,2.62614-16.28765,1.75041-4.74533,4.13814-8.72401,7.16162-11.94123,3.024-3.21619,6.57781-5.6678,10.66348-7.3538,4.08308-1.686,8.40769-2.5316,12.9707-2.5316,4.13814,0,8.00982.68874,11.61816,2.06206,3.60574,1.37228,6.73674,3.46135,9.39041,6.26097,2.65055,2.80066,4.74689,6.369,6.28642,10.70088,1.53693,4.33188,2.30774,9.45741,2.30774,15.37349,0,.8456-.02753,1.71821-.07947,2.61575-.05506.90066-.13453,1.77015-.23893,2.61575h-51.7249c.2114,4.61548,1.00714,8.62636,2.38773,12.03369,1.37747,3.40733,3.18294,6.18721,5.41121,8.33549,2.22775,2.14828,4.79935,3.74806,7.71843,4.79727,2.91701,1.04921,6.02048,1.57173,9.31042,1.57173,2.54667,0,4.93387-.29087,7.16214-.87572,2.22827-.58174,4.32201-1.48447,6.28642-2.70509,1.96233-1.21854,3.74027-2.73106,5.33174-4.53653l6.36589,6.20695c-2.01635,2.44226-4.32409,4.51159-6.92269,6.20695-2.6012,1.69847-5.43874,2.94505-8.51468,3.74079-3.07906.79574-6.42094,1.1936-10.02669,1.1936Zm-24.03205-44.88116h39.94729c0-3.36993-.45293-6.39913-1.35306-9.08448-.90273-2.68535-2.17581-5.00296-3.81974-6.95282-1.64601-1.94986-3.60834-3.42395-5.88855-4.42433-2.28281-.99934-4.85388-1.50213-7.71895-1.50213-2.54615,0-4.96088.4228-7.24109,1.26632-2.28281.84248-4.37707,2.18568-6.28694,4.02854-1.90987,1.84494-3.52835,4.13554-4.85388,6.87283-1.32813,2.74041-2.2558,6.00645-2.78508,9.79607Z"/><path class="cls-4" d="m1097.07867,171.07322c-3.66028-.84768-7.10968-2.12127-10.34457-3.81974-3.238-1.69639-6.23448-3.81974-8.99254-6.36589l6.36641-10.82242.95468-1.43253.95519.6368c.2114.85079.44981,1.72548.71627,2.62614.26334.90273.97961,1.98934,2.14828,3.26189,2.22827,2.22827,4.90634,4.05867,8.03735,5.4912,3.12841,1.43253,7.13461,2.14828,12.01603,2.14828,3.92414,0,7.24161-.46955,9.94722-1.41487,2.70561-.94429,4.79935-2.28229,6.28642-4.01296,1.48447-1.73171,2.22827-3.75014,2.22827-6.0584,0-1.58108-.3184-2.97622-.95519-4.18956-.6368-1.21438-1.67094-2.34773-3.10347-3.40213-1.43253-1.0544-3.31747-2.10673-5.65014-3.16113-2.33475-1.0544-5.19981-2.1088-8.59415-3.16321-5.51821-1.58108-10.34457-3.42603-14.4827-5.53483s-7.32108-4.55834-9.54935-7.3538c-2.22775-2.79546-3.34188-5.98256-3.34188-9.56857,0-3.69093,1.00714-6.87906,3.02348-9.56961,2.01427-2.68847,5.01334-4.79727,8.99254-6.32641,3.97868-1.52706,8.88502-2.29267,14.72163-2.29267,3.39434,0,6.47029.23893,9.23043.71679,2.75807.47682,5.30473,1.1936,7.63948,2.14828,2.33267.95468,4.48147,2.14828,6.44588,3.58081,1.96181,1.43253,3.84467,3.10295,5.64962,5.01334l-6.52483,7.95736-1.11413,1.27359-.79574-.79574c-.107-.84872-.34593-1.67146-.71627-2.4672-.37294-.79574-1.14166-1.77534-2.30774-2.94401-2.44226-1.91039-5.19981-3.36681-8.27628-4.37655-3.07854-1.00765-6.04749-1.51252-8.91255-1.51252-4.24462,0-7.90542.73341-10.98136,2.20126-3.07854,1.46681-4.61548,3.72001-4.61548,6.75856,0,1.58212.55733,3.13827,1.67146,4.66534,1.11361,1.52914,3.15541,3.05828,6.12696,4.58847,2.96947,1.52914,7.21408,3.08322,12.73229,4.6643,6.04801,1.89792,10.90189,3.82286,14.56269,5.77272,3.66028,1.95194,6.31135,4.19268,7.95736,6.72116,1.64393,2.5316,2.4672,5.53587,2.4672,9.01488,0,4.0088-1.0892,7.75063-3.26293,11.22964-2.17581,3.48212-5.49068,6.24954-9.9467,8.30328-4.45654,2.05479-10.08174,3.08426-16.87043,3.08426-4.03374,0-7.87789-.42592-11.53869-1.27359Z"/><path class="cls-4" d="m1159.8644,65.2362h12.57283v1.11985c-.63628.63887-1.03414,1.32969-1.1936,2.0766-.15894.74587-.23841,2.02154-.23841,3.83117v39.12714c1.90987-2.96895,4.16255-5.54314,6.76375-7.71843,2.59861-2.17425,5.35667-3.87272,8.27628-5.09333,2.91649-1.21854,5.86102-1.8304,8.83256-1.8304,4.34954,0,8.19629,1.00765,11.53869,3.01881,3.3424,2.01219,5.94101,5.23981,7.79842,9.68595,1.85533,4.44615,2.78508,10.32275,2.78508,17.62877v43.99089h-11.1403v-43.66055c0-5.07775-.58434-9.12603-1.75093-12.14276-1.16867-3.01569-2.76014-5.18683-4.77441-6.51028-2.01687-1.32242-4.29708-1.98415-6.84374-1.98415-1.90987,0-3.87428.31788-5.88855.9526-2.01687.6368-3.95375,1.58939-5.80908,2.85675-1.85741,1.27152-3.52887,2.83286-5.01334,4.68508-1.48707,1.85325-2.65315,3.9444-3.50134,6.27239-.85027,2.32696-1.27307,4.92089-1.27307,7.77868v41.75224h-11.14082v-105.83702Z"/></g><g><g class="cls-16"><g class="cls-2"><rect class="cls-3" x="95.02834" y="46.87276" width=".06118" height="16.16111"/><rect class="cls-3" x="95.08952" y="46.87276" width="103.93135" height="16.16111"/><rect class="cls-3" x="199.02087" y="46.87276" width=".0914" height="16.16111"/></g><g class="cls-5"><rect class="cls-3" x="95.0049" y="174.23331" width=".07955" height="16.1229"/><rect class="cls-3" x="95.08445" y="174.23331" width="103.94858" height="16.1229"/><rect class="cls-3" x="199.03303" y="174.23331" width=".11014" height="16.1229"/></g><g class="cls-8"><rect class="cls-3" x="75.66207" y="15.0388" width=".00629" height="92.34567"/><rect class="cls-3" x="75.66836" y="15.0388" width="15.96492" height="92.34567"/><rect class="cls-3" x="91.63328" y="15.0388" width=".03113" height="92.34567"/></g><g class="cls-7"><rect class="cls-3" x="75.50034" y="130.12852" width=".07436" height="92.32927"/><rect class="cls-3" x="75.5747" y="130.12852" width="16.05378" height="92.32927"/><rect class="cls-3" x="91.62848" y="130.12852" width=".14986" height="92.32927"/></g><g class="cls-6"><rect class="cls-3" x="202.89693" y="130.21068" width=".02882" height="91.9463"/><rect class="cls-3" x="202.92575" y="130.21068" width="15.4724" height="91.9463"/><rect class="cls-3" x="218.39816" y="130.21068" width=".03168" height="91.9463"/></g><g class="cls-12"><rect class="cls-3" x="202.98046" y="15.09203" width=".02593" height="92.12777"/><rect class="cls-3" x="203.0064" y="15.09203" width="15.44129" height="92.12777"/><rect class="cls-3" x="218.44769" y="15.09203" width=".01567" height="92.12777"/></g><g class="cls-11"><rect class="cls-3" x="138.92512" y="13.03533" width=".08845" height="29.29082"/><rect class="cls-3" x="139.01356" y="13.03533" width="15.90205" height="29.29082"/><rect class="cls-3" x="154.91562" y="13.03533" width=".03682" height="29.29082"/></g><g class="cls-9"><rect class="cls-3" x="143.01733" y="198.50501" width=".27462" height="29.74984"/><rect class="cls-3" x="138.98529" y="195.74297" width="15.92893" height="28.71902"/><rect class="cls-3" x="154.91422" y="195.74297" width=".05521" height="28.71902"/></g><g class="cls-10"><rect class="cls-3" x="223.26956" y="46.8366" width=".68567" height="16.12013"/><rect class="cls-3" x="223.95523" y="46.8366" width="28.79718" height="16.12013"/><rect class="cls-3" x="252.75242" y="46.8366" width=".13033" height="16.12013"/></g><g class="cls-13"><rect class="cls-3" x="223.69379" y="174.2539" width=".48076" height="16.09217"/><rect class="cls-3" x="224.17455" y="174.2539" width="28.56641" height="16.09217"/><rect class="cls-3" x="252.74097" y="174.2539" width=".07028" height="16.09217"/></g><g class="cls-14"><rect class="cls-3" x="41.42612" y="174.34129" width=".23038" height="16.15466"/><rect class="cls-3" x="41.6565" y="174.34129" width="28.5397" height="16.15466"/><rect class="cls-3" x="70.1962" y="174.34129" width=".88187" height="16.15466"/></g><g class="cls-15"><rect class="cls-3" x="41.14991" y="46.79443" width=".48957" height="16.15329"/><rect class="cls-3" x="41.63948" y="46.79443" width="27.88726" height="16.15329"/><rect class="cls-3" x="69.52675" y="46.79443" width=".02672" height="16.15329"/></g></g><g><path class="cls-4" d="m19,65.66744c4.00481-2.13738,5.75878,1.4698,7.86169,3.38863,9.53713,8.70231,19.54419,16.50407,31.64571,21.56842,23.01144,9.63007,45.92671,6.56226,68.88061.26968,21.06497-5.77474,41.31878-14.22506,62.68323-19.046,18.81264-4.24515,37.4752-5.14768,55.89087,1.88481,1.26098.48154,2.63452.74946,3.79175,1.40582,3.05674,1.73376,4.936,4.44042,3.38937,7.83632-1.51563,3.32782-4.6519,1.98082-7.13132,1.09849-8.78385-3.12587-17.7764-4.81856-27.12204-4.99853-17.17976-.33085-33.47279,3.99535-49.66334,9.00088-19.56634,6.04923-38.6975,13.46578-58.91807,17.4291-34.57374,6.77658-63.09391-3.79704-86.69125-29.19995-1.80563-1.94379-3.09036-4.37147-4.61721-6.57423,0-1.35448,0-2.70897,0-4.06345Z"/><path class="cls-4" d="m217.98276,108.81457c-17.59248-.07634-34.33279,4.39753-50.92518,9.65064-21.03425,6.6594-41.64921,14.83343-63.73774,17.68764-15.25149,1.97075-30.14135.59287-44.55109-4.96821-3.69435-1.42575-6.69108-3.99012-5.26214-8.11783,1.478-4.26941,5.12642-2.34398,8.06521-1.29888,23.06719,8.20319,45.81036,4.6529,68.45926-1.89603,20.77098-6.00592,40.8792-14.14241,62.0516-18.8943,35.11022-7.88004,65.16368.62272,89.94685,26.95845.61863.65738,1.34421,1.23074,1.87721,1.94915,2.27075,3.06064,5.85644,7.21191,2.93912,10.00538-2.77194,2.65427-5.65324-2.24776-7.85285-4.35173-17.11057-16.36646-36.83983-26.52961-61.01026-26.72427Z"/><path class="cls-4" d="m92.26522,168.92457c-22.61061-.13211-40.42823-6.77308-55.99572-19.50936-1.5453-1.26428-2.95252-2.79656-4.08727-4.43723-1.29373-1.87049-2.44087-4.36914-.70348-6.2231,2.0101-2.14496,4.19772-.22832,5.90619,1.12046,25.89325,20.44178,54.73867,21.89179,85.2989,13.72909,22.43343-5.99202,43.91773-15.0502,66.57063-20.28245,23.77964-5.49249,46.97807-5.42269,68.81848,7.32421,1.35905.79318,2.874,1.46818,3.95565,2.55665,2.234,2.24813,4.84004,4.95533,2.55043,8.1973-2.19465,3.10755-4.94233.54197-7.15118-.69132-24.16295-13.49095-49.3385-11.96493-74.87995-5.17151-22.64263,6.02239-44.28109,15.36195-67.24366,20.34183-8.40652,1.82313-16.91271,2.68173-23.03902,3.04544Z"/><path class="cls-4" d="m102.22775,76.11679c-4.41906.05264-6.25215-2.94495-4.26035-6.74769,1.24135-2.37001,3.2699-3.6096,5.88697-4.05131,24.11881-4.07075,46.61624-13.70747,69.97706-20.38056,5.84185-1.66874,11.76662-3.05589,17.67907-4.46424,2.16764-.51634,4.60141-1.18818,5.9319,1.51999,1.28833,2.62239.13953,4.87765-1.64834,6.72985-.89429.92647-2.18816,1.75975-3.42914,2.01598-26.32502,5.43515-50.96546,16.54124-77.03039,22.82306-4.37535,1.05448-8.84127,1.73315-13.10678,2.55493Z"/><path class="cls-4" d="m86.72159,224.38563c-24.02534.26852-43.42147-8.58395-60.18847-23.94586-.33233-.3045-.68539-.5942-.97479-.93646-2.46286-2.91263-6.26349-6.69725-3.30182-9.81753,2.86496-3.01841,5.77918,1.67248,8.14181,3.67347,24.6874,20.90854,52.91509,24.15595,83.31979,17.06014,2.77661-.64804,6.67364-3.27419,7.95844,1.33351,1.19735,4.29406-1.72759,7.3616-5.8627,8.48181-9.81703,2.65943-19.8134,4.26263-29.09227,4.15092Z"/></g></g></svg>