<?xml version="1.0" encoding="UTF-8"?><svg id="Layer_1" xmlns="http://www.w3.org/2000/svg" viewBox="0 0 500 500"><defs><style>.cls-1{fill:none;}.cls-2{fill:#fff;}</style></defs><path class="cls-1" d="m141.30142,452.59535c.41882.49756.862.9718,1.31128,1.44629.68506.72852,1.42908,1.39526,2.18329,2.04932-.75494-.65552-1.49994-1.32385-2.18561-2.05396-.44781-.47095-.88971-.94421-1.30896-1.44165Z"/><path class="cls-1" d="m343.42019,462.38344c-1.43176.3855-2.89062.6626-4.36407.82935-1.02704.11682-2.05994.17749-3.09381.18201l-170.0506.03955h-1.66534c-2.54309-.01648-5.07306-.36536-7.52576-1.03772-2.26788-.59998-4.45544-1.46069-6.52264-2.55908,2.06775,1.10095,4.2558,1.96411,6.5249,2.5658,2.45203.67139,4.98145,1.01965,7.5235,1.03552h1.6676l170.0506-.03967c1.03387-.00366,2.06647-.06372,3.09369-.17981,1.47363-.16748,2.93243-.44531,4.36407-.83154,1.02789-.27222,2.04059-.59814,3.03448-.97632.00793-.00281.01538-.00659.02332-.00952-.01007.00391-.01996.00781-.03003.01172-.99231.37573-2.00372.69958-3.02991.96973Z"/><polygon class="cls-1" points="471.8533 307.13637 471.85372 307.13368 471.8533 307.13515 471.8533 307.13637"/><path class="cls-1" d="m351.98794,458.66005c-1.04413.66638-2.12781,1.26855-3.24493,1.80359-.08636.04138-.17596.07544-.263.11536.08856-.03992.18134-.07019.26953-.11096,1.11346-.53528,2.19342-1.13757,3.23401-1.80359,2.69678-1.6936,5.09808-3.81714,7.10895-6.28601l2.33856-2.91479-2.3407,2.91028c-2.00897,2.46863-4.40802,4.5918-7.10242,6.28613Z"/><path class="cls-1" d="m82.51229,108.48769l22.49567-10.74841-22.49371,10.74622c-4.02521,1.9502-7.50671,4.75232-10.242,8.15405,2.73486-3.40088,6.21564-6.2019,10.24005-8.15186Z"/><path class="cls-1" d="m466.13345,319.21462l-39.23047,48.80261,39.22821-48.7981c1.99078-2.49451,3.55505-5.30151,4.62946-8.30688.33704-.93164.58124-1.89209.82428-2.85193-.2439.95911-.48883,1.91882-.82654,2.84961-1.07318,3.00427-2.63599,5.81042-4.62494,8.30469Z"/><path class="cls-2" d="m433.62356,128.35976c-2.08173-8.69836-7.95428-16.00427-16.00146-19.9071l-154.7251-73.875c-8.12177-3.87585-17.55994-3.87585-25.68182,0l-132.20721,63.16162-22.49567,10.74841c-4.02441,1.94995-7.50519,4.75098-10.24005,8.15186-.3363.41846-.62549.87244-.93896,1.30847-.32318.44958-.66986.88159-.96771,1.34863-.44861.70374-.84033,1.44348-1.22943,2.18445-.12042.22913-.26569.44336-.38025.67578-.96912,1.96851-1.72681,4.05518-2.24738,6.22913l-38.164,166.0376c-.94098,4.19617-.94397,8.54822-.00885,12.74561.27551,1.27942.63544,2.53943,1.07745,3.77161.74683,2.10132,1.7356,4.10852,2.94666,5.98096.52203.80762,1.08173,1.58728,1.67828,2.33911l107.08264,133.13501c.05634.07007.1228.13086.18073.19946.41925.49744.86115.9707,1.30896,1.44165.68567.7301,1.43066,1.39844,2.18561,2.05396.17078.14832.32037.32031.49469.46436.1214.10083.2594.18005.38251.27881.8338.66797,1.68854,1.31079,2.59149,1.88525.63086.39722,1.27667.76855,1.93329,1.11816,2.0672,1.09839,4.25476,1.95911,6.52264,2.55908,2.4527.67236,4.98267,1.02124,7.52576,1.03772h1.66534l170.0506-.03955c1.03387-.00452,2.06677-.06519,3.09381-.18201,1.47345-.16675,2.93231-.44385,4.36407-.82935,1.02618-.27014,2.0376-.59399,3.02991-.96973.01007-.00391.01996-.00781.03003-.01172.67834-.24707,1.34259-.52734,1.99988-.823.08704-.03992.17664-.07397.263-.11536,1.11713-.53503,2.20081-1.13721,3.24493-1.80359,2.6944-1.69434,5.09344-3.8175,7.10242-6.28613l2.3407-2.91028.92175-1.1488,64.55017-80.29761,39.23047-48.80261c1.98895-2.49426,3.55176-5.30042,4.62494-8.30469.33771-.93079.58264-1.8905.82654-2.84961.0791-.3125.1994-.6134.26837-.92834v.00317c.00018-.00049.00031-.00098.00043-.00146.93787-4.19458.93628-8.54468-.00482-12.7384l-38.22534-166.03552Zm-272.38379,181.42822l-34.12726,34.12732c-2.07458,2.07446-4.62421,3.00256-7.1261,3.00256-5.23389,0-10.25525-4.06494-10.25525-10.20215v-166.70178c0-6.10437,4.99902-10.20178,10.24542-10.20178,2.36584,0,4.78302.83411,6.81299,2.69312l34.4502,31.55103,6.12323,5.60815,6.12421,5.60864,40.31451,36.92188c4.27618,3.91626,4.42303,10.60791.32288,14.70825l-40.63739,40.63733-6.12421,6.12415-6.12323,6.12329Zm63.75519.00085l-34.12646,34.12646c-2.07452,2.07446-4.62415,3.00256-7.12604,3.00256-5.23389,0-10.25525-4.06494-10.25525-10.20215v-21.85474l49.29761-49.29761c.80493-.80493,1.54291-1.66797,2.21014-2.57861,2.90118-3.95996,4.46246-8.82471,4.35376-13.77356-.10132-4.61548-1.6532-9.09265-4.35376-12.78113-.8609-1.17578-1.83612-2.27307-2.92145-3.26709l-48.5863-44.49756v-18.65149c0-6.10437,4.99902-10.20178,10.24542-10.20178,2.36578,0,4.78296.83411,6.81293,2.69312l34.4494,31.55042,6.12341,5.60803,6.12402,5.60864,40.31531,36.92261c4.27625,3.91626,4.4231,10.60791.32294,14.70825l-40.63824,40.63818-6.12402,6.12402-6.12341,6.12341Zm63.75513,0l-34.12646,34.12646c-2.07446,2.07446-4.62408,3.00256-7.12604,3.00256-5.23383,0-10.25519-4.06494-10.25519-10.20215v-21.85388l49.29846-49.29846c.80463-.80469,1.54224-1.66724,2.20923-2.57751,2.90173-3.96008,4.46338-8.82532,4.35474-13.77466-.10132-4.61609-1.65356-9.09363-4.35474-12.78235-.86072-1.17529-1.83563-2.27222-2.92053-3.26587l-48.58716-44.49829v-18.65076c0-6.10437,4.99896-10.20178,10.24542-10.20178,2.36578,0,4.78296.83411,6.81293,2.69312l34.44934,31.55029,6.12366,5.6084,6.12378,5.6084,40.31537,36.92261c4.27625,3.91626,4.4231,10.60791.32288,14.70825l-40.63824,40.63818-6.12378,6.12378-6.12366,6.12366Zm116.64081-52.88562l-87.01208,87.01208c-2.07452,2.07446-4.62415,3.00256-7.12604,3.00256-5.23389,0-10.25525-4.06494-10.25525-10.20215v-21.85376l49.29846-49.29858c4.30518-4.30518,6.69763-10.26526,6.56396-16.35217-.13361-6.08679-2.78534-11.93616-7.27521-16.04822l-48.58722-44.49829v-18.65076c0-6.10437,4.99902-10.20178,10.24542-10.20178,2.36578,0,4.78302.83411,6.81293,2.69312l87.01221,79.6897c4.27618,3.91626,4.42303,10.60791.32281,14.70825Z"/></svg>