<svg xmlns="http://www.w3.org/2000/svg" width="551.708" height="349.275" viewBox="0 0 145.973 92.412"><path d="M163.304 218.344a.193.193 0 0 0-.195.195v19.502c0 .106.086.195.195.195h4.049c.105 0 .194-.09.194-.195v-5.368c0-.046.017-.093.05-.13l.182-.204 1.6-1.783a.196.196 0 0 1 .302.017l1.528 2.06 2.735 3.681 1.002 1.346.367.496c.04.05.096.08.159.08h4.699a.2.2 0 0 0 .163-.311l-.973-1.356-1.389-1.954c-.413-.576-.856-1.198-1.333-1.866l-.215-.304-1.76-2.48c-.853-1.195-1.497-2.098-1.934-2.706a.19.19 0 0 1 .016-.241l1.551-1.724 3.725-4.14 2.239-2.487a.218.218 0 0 0 .05-.123.195.195 0 0 0-.196-.201h-4.97a.195.195 0 0 0-.143.062l-1.558 1.694-3.324 3.614-2.235 2.428a.194.194 0 0 1-.338-.132v-7.471a.195.195 0 0 0-.194-.194zm-14.403 0a.198.198 0 0 0-.179.119l-5.212 12.064v.001l-.003.003-.007.013-.003.01-.675 1.565-.04.095-.086.196-.072.165v.003l-2.028 4.693-.297.691a.196.196 0 0 0 .178.275h4.3a.196.196 0 0 0 .175-.113c0-.003.003-.003.003-.006l1.498-3.486.248-.575a.199.199 0 0 1 .182-.12h8.08c.08 0 .149.047.179.12l1.663 3.866 1.865-6.618-1.498-3.47-1.34-3.098-2.711-6.274a.191.191 0 0 0-.18-.12h-2.526zm7.904 19.579v.003l.086.192c.03.072.1.119.179.119h4.299a.197.197 0 0 0 .18-.275l-.04-.089-2.838-6.568zm-5.869-13.363c.073 0 .146.04.18.117l.943 2.2.953 2.225.285.665a.194.194 0 0 1-.18.271h-4.388a.194.194 0 0 1-.178-.271l.515-1.19 1.69-3.9a.195.195 0 0 1 .18-.117zm-20.146-6.673c-.826 0-1.617.076-2.368.235v.004-.004h-.003a9.78 9.78 0 0 0-3.556 1.488v.001c-.526.354-1.025.76-1.497 1.223-1.486 1.453-2.428 3.197-2.815 5.175l-.002.003-.014.077-.005.023-.042.224-.002.012-.001.006-.01.084v.01a11.29 11.29 0 0 0-.126 1.715c0 2.63.816 4.872 2.45 6.727a10.564 10.564 0 0 0 2.173 1.898c1.68 1.098 3.619 1.647 5.818 1.647.245 0 .486-.006.724-.022 2.13-.12 4.002-.784 5.616-1.991.377-.282.74-.593 1.088-.933l.01-.01a9.985 9.985 0 0 0 1.922-2.583c.149-.288.28-.583.397-.887.46-1.174.687-2.457.687-3.846 0-.374-.016-.74-.05-1.098v-.007a9.841 9.841 0 0 0-.783-3.099c-.5-1.15-1.227-2.192-2.183-3.125a10.43 10.43 0 0 0-1.25-1.052c-1.76-1.263-3.817-1.895-6.178-1.895zm.017 3.873c1.66 0 3.059.625 4.197 1.875.062.067.122.136.175.205 1.022 1.214 1.531 2.66 1.531 4.336 0 1.17-.248 2.222-.744 3.162a6.457 6.457 0 0 1-1.138 1.544 5.658 5.658 0 0 1-1.382 1.049c-.79.423-1.67.634-2.64.634-.936 0-1.788-.198-2.56-.591a5.46 5.46 0 0 1-1.12-.77 5.668 5.668 0 0 1-.516-.503c-1.14-1.244-1.71-2.752-1.71-4.524 0-.053 0-.103.003-.156.03-1.707.599-3.169 1.707-4.386.83-.912 1.802-1.495 2.913-1.74a6.03 6.03 0 0 1 1.284-.135zm-23.224-3.416a.193.193 0 0 0-.195.195v19.503c0 .106.086.195.195.195h12.528c.11 0 .195-.09.195-.195v-3.569a.195.195 0 0 0-.195-.195h-8.09a.192.192 0 0 1-.195-.192v-15.548a.19.19 0 0 0-.112-.175.174.174 0 0 0-.083-.02h-2.242zm-10.455-.457c-2.923 0-5.394.99-7.415 2.96-.367.36-.7.738-1.002 1.132v.003c-1.352 1.756-2.027 3.84-2.027 6.25 0 1.376.215 2.64.649 3.793l.006-.002-.005.003a9.22 9.22 0 0 0 .999 1.949v.003c.003 0 .003.003.003.003a9.826 9.826 0 0 0 1.323 1.58c.611.596 1.27 1.098 1.984 1.512h.003c.178.102.36.201.545.294.133.067.269.13.408.189h.007l.003.003h.003c1.37.602 2.907.903 4.617.903.503 0 .996-.036 1.475-.106h.01c.308-.043.612-.102.913-.175 1.683-.403 3.225-1.256 4.63-2.556v-.002l.001.002c.281-.258.559-.54.83-.837a.199.199 0 0 0-.007-.271l-2.566-2.643a.19.19 0 0 0-.172-.056.212.212 0 0 0-.116.07c-.685.81-1.465 1.418-2.338 1.822-.867.4-1.826.599-2.874.599a5.82 5.82 0 0 1-2.011-.34 5.641 5.641 0 0 1-2.057-1.34 5.432 5.432 0 0 1-1.3-2.067l-.007.001.007-.002c-.255-.714-.38-1.508-.38-2.384 0-1.723.512-3.119 1.544-4.184.076-.076.152-.152.235-.228 1.184-1.092 2.612-1.637 4.283-1.637a6.59 6.59 0 0 1 1.75.228c1.27.343 2.384 1.084 3.343 2.215.076.09.215.097.29.007l2.498-2.831a.201.201 0 0 0-.003-.265c-1.955-2.147-4.323-3.334-7.101-3.556v.001c-.32-.026-.645-.04-.976-.04zm-27.205.457a.195.195 0 0 0-.169.29l1.892 3.308 3.423 5.982 1.379 2.412a.2.2 0 0 1 .026.096v7.61c0 .106.087.195.196.195h4.048c.11 0 .195-.09.195-.195v-7.61c0-.033.01-.066.026-.096l.976-1.707 3.704-6.476.758-1.319.502-.88-.007-.001.007-.002.754-1.316a.194.194 0 0 0-.168-.291h-4.363a.196.196 0 0 0-.168.095l-3.952 6.804-.004.003v.003l-.212.156-.158.122a.203.203 0 0 1-.083-.076l-.066-.113-.1-.169-3.905-6.73a.196.196 0 0 0-.169-.095zm15.537 2.04-.004.003zm-31.528-2.04a.193.193 0 0 0-.195.195v19.503c0 .106.086.195.195.195h14.265c.108 0 .195-.09.195-.195v-3.54a.196.196 0 0 0-.196-.194h-9.825a.195.195 0 0 1-.196-.195v-3.737c0-.106.09-.196.196-.196h8.519a.195.195 0 0 0 .195-.195v-3.393c0-.11-.09-.195-.195-.195h-8.52a.196.196 0 0 1-.195-.195v-3.707c0-.11.09-.196.196-.196h9.515a.195.195 0 0 0 .195-.195v-3.565a.195.195 0 0 0-.195-.195h-7.829zm-19.341 0a.193.193 0 0 0-.195.195v19.503c0 .106.086.195.195.195h4.048c.11 0 .195-.09.195-.195v-5.368c0-.046.017-.093.05-.13l.843-.942.94-1.045a.196.196 0 0 1 .3.017l2.808 3.777.002.002 2.016 2.713.81 1.091a.19.19 0 0 0 .155.08h4.703a.197.197 0 0 0 .159-.311 690.139 690.139 0 0 1-2.017-2.828c-.566-.79-1.194-1.673-1.889-2.652l-.069-.1v.002-.002a1566.107 1566.107 0 0 0-3.628-5.086.195.195 0 0 1 .016-.241l1.773-1.968H45.8l.006-.001v-.003l1.459-1.62 1.402-1.558 2.88-3.202a.194.194 0 0 0-.145-.324h-3.268v.001h-1.7a.196.196 0 0 0-.145.062l-3.079 3.345-4.038 4.39a.194.194 0 0 1-.338-.132v-7.474a.193.193 0 0 0-.195-.192h-2.11zm.091 9.822-.002.01zm12.269 8.34v.001z" style="fill:#fff;fill-opacity:1;fill-rule:nonzero;stroke:none;stroke-width:.330729" transform="translate(-34.396 -146.05)"/><path d="M76.56 238.169c-.024-.025-.045-1.789-.045-3.92v-3.875l-3.38-5.905c-1.996-3.486-3.365-5.944-3.342-6.002.032-.084.357-.099 2.278-.099 2.052 0 2.25.01 2.341.116.055.064.987 1.649 2.07 3.522 1.082 1.874 2.002 3.444 2.044 3.49.195.21.46-.182 2.48-3.663l2.011-3.465h2.274c1.895 0 2.28.016 2.31.094.02.05-1.477 2.737-3.325 5.969l-3.362 5.876-.033 3.936-.033 3.936-2.122.018c-1.166.01-2.141-.003-2.166-.028zm-22.768-.039c-.018-.046-.024-4.503-.015-9.906l.017-9.822h14.221v3.836l-4.855.017c-3.453.012-4.881.038-4.944.09-.13.11-.13 3.91 0 4.019.062.052 1.362.078 4.448.09l4.36.017v3.638l-4.36.017c-3.086.012-4.386.039-4.448.091-.071.059-.09.465-.09 1.979 0 1.047.019 1.952.04 2.01.037.093.539.104 5 .104 3.29 0 5 .023 5.085.068.122.065.128.157.128 1.872 0 1.315-.021 1.825-.08 1.883-.117.118-14.463.115-14.508-.003z" style="fill:#fff;fill-opacity:1;stroke-width:.0661458" transform="translate(-34.396 -146.05)"/><path d="m91.571 146.05-37.515.004-9.316 16.08h-.001l-9.445 16.402v.003l3.965 6.883 5.385 9.351v.002l9.424 16.242 37.505-.013 13.277-23.303 1.03-1.783a.596.596 0 0 1 .512-.297h5.482c.215 0 .41.113.512.297l1.984 3.432.42.723a.592.592 0 0 0 1.024 0l2.398-4.155a.596.596 0 0 1 .512-.297h5.483c.21 0 .41.113.512.297l2.403 4.155a.592.592 0 0 0 1.025 0l1.326-2.291 1.078-1.864a.589.589 0 0 1 .512-.297h1.645c.215 0 .409.113.516.297l2.4 4.155a.592.592 0 0 0 1.023 0l2.4-4.155a.596.596 0 0 1 .511-.297h8.749c.21 0 .41.113.512.297l2.399 4.155a.591.591 0 0 0 1.023 0l2.405-4.155a.589.589 0 0 1 .512-.297h1.644a.58.58 0 0 1 .512.297l.054.096 2.35 4.059a.591.591 0 0 0 1.024 0l2.404-4.155a.596.596 0 0 1 .512-.297h5.482c.21 0 .41.113.512.297l1.461 2.527.938 1.622c.208.362.697.375.952.07l-.023.255 6.683-11.801h-.024l-2.253-3.934h-69.824l-.49-.863h69.82l-1.787-3.123h-69.808l-.49-.863h69.804l-1.788-3.123h-69.807l-.49-.863h69.803l-2.022-3.533h-69.47Zm-25.023 10.837-.003.004 3.125 5.402-9.37 16.256 9.358 16.222-3.11 5.431-.003-.004.005.01h-6.254l-9.378-16.245v-.002l-3.136-5.388 3.181-5.52 9.336-16.167zm12.49.004.004.005-.002-.004 6.262.002 9.376 16.24v.003l-3.125 5.409 3.125-5.406 3.133 5.445-12.514 21.62-6.242-.002v.001h-.001v-.001c-1.15-1.688-3.118-5.427-3.118-5.427l9.377-16.231-9.379-16.253z" style="display:inline;fill:#fff;fill-opacity:1;stroke-width:.431224" transform="translate(-34.396 -146.05)"/></svg>