<svg xmlns="http://www.w3.org/2000/svg" role="img" viewBox="-5.11 -4.11 382.72 165.72"><style>svg {enable-background:new 0 0 374.7 157.7}</style><style>.st0{fill:#0082ca}</style><path d="M69 118.8c-.5 0-1.1-.2-1.5-.7-.7-.8-.6-2 .2-2.7l63.2-54c.7-2.1.8-3.9.8-4.1 0-11.8-7.8-21.9-7.9-22l-.1-.1c-10.8-16.9-26-22.3-33.4-24.9-4.2-1.5-19.3-5.9-40-.8-16.7 4.2-31.1 15.5-39.4 31-4 7.4-4.7 12.9-4.6 16.2 0 .7.1 1.3.1 1.8 3.3-3.5 10-8.8 20.1-8.3 1 0 13.5.6 20.8 12.3 2.8-4.4 9.1-11.6 21.2-12.3.4 0 4.4-.3 9.2 1.4 4 1.4 9.4 4.4 13.5 10.8 2.7-4.4 8.9-11.5 20.6-12.2 1-.1 2 .7 2 1.8.1 1.1-.7 2-1.8 2-14.2.8-18.8 12.6-19 13.1-.3.7-.9 1.2-1.7 1.2-.7 0-1.5-.4-1.8-1.1C82.5 53 68.8 54 68.7 54c-14.6.8-19.5 12.8-19.7 13.3-.3.7-1 1.2-1.7 1.2-.8 0-1.5-.4-1.8-1.1-5.9-13-19-13.3-19.1-13.3h-.1c-12.6-.6-19.1 9.5-19.1 9.6-.4.6-1 .9-1.7.9s-1.3-.4-1.6-1c-.2-.4-4.8-9.1 3.7-24.8 8.8-16.5 24.1-28.5 42-32.9 21.7-5.4 37.8-.7 42.2.9 7.1 2.5 23.7 8.4 35.3 26.3.8 1.1 8.7 11.6 8.7 24.3 0 .2-.1 2.9-1.2 5.9-.1.3-.3.6-.5.8l-63.6 54.3c-.6.2-1 .4-1.5.4z"/><path d="M68.7 118.5c-.4 0-.9-.1-1.2-.5L4.3 64.1c-.8-.7-.9-1.9-.2-2.7s1.9-.9 2.7-.2L70 115.1c.8.7.9 1.9.2 2.7-.4.4-1 .7-1.5.7z"/><path d="M68.9 118.5c-.7 0-1.4-.4-1.8-1.1l-21.7-50c-.4-1 0-2.1 1-2.5s2.1 0 2.5 1l21.7 50c.4 1 0 2.1-1 2.5-.2 0-.4.1-.7.1z"/><path d="M69 118.8c-.3 0-.5-.1-.8-.2-1-.4-1.4-1.5-1-2.5l22.1-50.4c.4-1 1.6-1.4 2.5-1 1 .4 1.4 1.5 1 2.5l-22.1 50.4c-.2.7-.9 1.2-1.7 1.2z"/><path d="M91.3 154.3H46.2c-1.1 0-1.9-.9-1.9-1.9v-35.5c0-1.1.9-1.9 1.9-1.9h11.2c1.1 0 1.9.9 1.9 1.9 0 1.1-.9 1.9-1.9 1.9h-9.3v31.7h41.3v-31.7H69.3c-1.1 0-1.9-.9-1.9-1.9 0-1.1.9-1.9 1.9-1.9h22c1.1 0 1.9.9 1.9 1.9v35.5c0 1.1-.8 1.9-1.9 1.9z"/><circle cx="56.4" cy="116.9" r="4.3" class="st0"/><circle cx="112.4" cy="52.1" r="4.3" class="st0"/><path d="M82.2 146.2c-1.1 0-1.9-.9-1.9-1.9v-19.5c0-.8.5-1.5 1.2-1.8s1.5-.1 2.1.4l4.2 4.2c.7.7.7 2 0 2.7s-2 .7-2.7 0l-.9-.9v14.9c0 1.1-.9 1.9-2 1.9z"/><path d="M78.1 130.9c-.5 0-1-.2-1.3-.6-.7-.7-.7-2 0-2.7l4.2-4.2c.7-.7 2-.7 2.7 0s.7 2 0 2.7l-4.2 4.2c-.5.4-.9.6-1.4.6zm63.7-48.2h61.7v10.4h-24.2v58.3H166V93.1h-24.1V82.7zm83.8 0H239v40c0 2.3.1 4.6.4 7 .2 2.4 1 4.5 2.1 6.4 1.2 1.9 3 3.4 5.3 4.7 2.4 1.2 5.8 1.8 10.1 1.8s7.7-.6 10.1-1.8c2.4-1.2 4.2-2.8 5.3-4.7 1.2-1.9 1.9-4 2.1-6.4.2-2.4.4-4.7.4-7v-40h13.4v43.9c0 4.4-.7 8.3-2.2 11.5-1.5 3.3-3.6 6-6.4 8.2-2.7 2.2-6 3.9-9.9 5s-8.1 1.6-12.8 1.6-9-.5-12.8-1.6-7.1-2.7-9.9-5c-2.7-2.2-4.9-5-6.4-8.2-1.5-3.3-2.2-7.1-2.2-11.5V82.7zm92 0h52.7v10.4H331v18h34.5v9.8H331v30.5h-13.4V82.7z"/></svg>