<?xml version="1.0" encoding="utf-8"?>
<!-- Generator: Adobe Illustrator 21.1.0, SVG Export Plug-In . SVG Version: 6.00 Build 0)  -->
<svg version="1.1" id="Layer_1" xmlns="http://www.w3.org/2000/svg" xmlns:xlink="http://www.w3.org/1999/xlink" x="0px" y="0px"
	 viewBox="0 0 216 216" style="enable-background:new 0 0 216 216;" xml:space="preserve">
<style type="text/css">
	.st0{fill:#FFFFFF;}
</style>
<path class="st0" d="M199.3,138.8l-41.1-29.5l41.1-29.5c0.9-0.6,1.5-1.8,1.5-3.1c0-1.3-0.6-2.5-1.5-3.1L108.4,8.5
	c-0.9-0.6-2-0.6-2.9,0L14.6,73.7c-0.9,0.6-1.5,1.8-1.5,3.1V142c0,1.3,0.6,2.5,1.5,3.1l90.9,65.2c0.5,0.3,1,0.5,1.5,0.5
	c0.5,0,1-0.2,1.5-0.5l90.9-65.2c0.9-0.6,1.5-1.8,1.5-3.1C200.8,140.7,200.2,139.5,199.3,138.8z M141.4,113.1l-12.7-9.3l34.7-26.1
	l0.9-0.8l0.3-0.2l-17.8-13l13.1-9.9l31.9,22.8l-7.3,5.5L141.4,113.1z M90.1,27.9l12.8,9.3L53,74.6L39.2,64.5l3.8-2.9L90.1,27.9z
	 M156.1,51L143,60.9L94,25.1l13-9.3L156.1,51z M110.8,90.8L143,66.6l13.9,10.1l-32.2,24.2L110.8,90.8z M120.8,103.8l-13.7,10.3
	L56.9,77.4l49.8-37.4l32.5,23.7l-36,27.1L120.8,103.8z M35.3,67.4l13.9,10.1l-12.9,9.7l-14-10L35.3,67.4z M40.2,90l12.8-9.6
	l50.3,36.7L91,126.4L40.2,90z M124.8,106.7l12.6,9.2L107,137.8l-12-8.6L124.8,106.7z M18.9,83l36.7,26.3l-36.7,26.3V83z M107,203
	l-85.1-61l39.6-28.4l44,31.5c0.5,0.3,1,0.5,1.5,0.5c0,0,0,0,0.1,0l0.4,0.3l2.1-1.6l42.9-30.8l39.6,28.4L107,203z"/>
</svg>
