<svg width="377" height="377" viewBox="0 0 377 377" fill="none" xmlns="http://www.w3.org/2000/svg">
<path d="M77.7271 83.1935L225.22 173.094L364.326 85.0395L215.253 0L77.7271 83.1935Z" fill="url(#paint0_linear_159_472)"/>
<path d="M376.359 236.597V284.531L230.021 376.647V326.497L376.359 236.597Z" fill="url(#paint1_linear_159_472)"/>
<path d="M75.6001 98.5776L77.7271 152.481L216.043 237.09V184.171L75.6001 98.5776Z" fill="url(#paint2_linear_159_472)"/>
<path d="M0 224.475L2.12701 278.378L134.549 361.202V308.283L0 224.475Z" fill="url(#paint3_linear_159_472)"/>
<path d="M370.707 99.7461L368.58 156.911L230.264 243.181V185.401L370.707 99.7461Z" fill="url(#paint4_linear_159_472)"/>
<path d="M76.086 168.541L4.98315 210.753L143.117 298.869L214.099 253.95L76.086 168.541Z" fill="url(#paint5_linear_159_472)"/>
<path d="M369.674 221.03L333.576 198.262L305.317 214.938V261.765L369.674 221.03Z" fill="#60A5D4"/>
<path d="M214.342 372.648L215.132 337.205L185.11 354.557L214.342 372.648Z" fill="url(#paint6_linear_159_472)"/>
<path d="M289.638 223.614V271.364L152.415 357.819L152.112 308.407L289.638 223.614Z" fill="url(#paint7_linear_159_472)"/>
<defs>
<linearGradient id="paint0_linear_159_472" x1="188.21" y1="117.345" x2="332.372" y2="-25.0324" gradientUnits="userSpaceOnUse">
<stop offset="0.47" stop-color="#6B9DCF"/>
<stop offset="1" stop-color="#466AB0"/>
</linearGradient>
<linearGradient id="paint1_linear_159_472" x1="230.021" y1="306.622" x2="376.359" y2="306.622" gradientUnits="userSpaceOnUse">
<stop stop-color="#8FD7F0"/>
<stop offset="1" stop-color="#486AB2"/>
</linearGradient>
<linearGradient id="paint2_linear_159_472" x1="75.6001" y1="167.803" x2="216.044" y2="167.803" gradientUnits="userSpaceOnUse">
<stop stop-color="#8FD7F0"/>
<stop offset="1" stop-color="#486AB2"/>
</linearGradient>
<linearGradient id="paint3_linear_159_472" x1="0" y1="292.839" x2="134.549" y2="292.839" gradientUnits="userSpaceOnUse">
<stop offset="0.09" stop-color="#F2775D"/>
<stop offset="0.88" stop-color="#E34D62"/>
</linearGradient>
<linearGradient id="paint4_linear_159_472" x1="230.264" y1="171.494" x2="370.707" y2="171.494" gradientUnits="userSpaceOnUse">
<stop stop-color="#8FD7F0"/>
<stop offset="1" stop-color="#486AB2"/>
</linearGradient>
<linearGradient id="paint5_linear_159_472" x1="4.98315" y1="233.705" x2="214.099" y2="233.705" gradientUnits="userSpaceOnUse">
<stop stop-color="#F4896D"/>
<stop offset="1" stop-color="#E14C61"/>
</linearGradient>
<linearGradient id="paint6_linear_159_472" x1="185.11" y1="354.926" x2="215.132" y2="354.926" gradientUnits="userSpaceOnUse">
<stop stop-color="#60A5D4"/>
<stop offset="1" stop-color="#486AB2"/>
</linearGradient>
<linearGradient id="paint7_linear_159_472" x1="152.112" y1="290.747" x2="289.638" y2="290.747" gradientUnits="userSpaceOnUse">
<stop stop-color="#F8AD96"/>
<stop offset="1" stop-color="#F2775D"/>
</linearGradient>
</defs>
</svg>
