<svg width="923" height="360" viewBox="0 0 923 360" fill="none" xmlns="http://www.w3.org/2000/svg">
<rect x="26" y="26" width="308" height="308" rx="66" fill="black" stroke="white" stroke-width="52"/>
<path fill-rule="evenodd" clip-rule="evenodd" d="M164 108C159.582 108 156 111.582 156 116V145.287C156 147.496 157.791 149.287 160 149.287H169C171.209 149.287 173 151.078 173 153.287V175.496C173 177.706 171.209 179.496 169 179.496H160C157.791 179.496 156 181.287 156 183.496V215.177C156 216.87 157.065 218.379 158.659 218.946L173 224.047C171.412 228.415 167 252 167 252H184L203.253 225.091C203.739 224.412 204 223.598 204 222.764V116C204 111.582 200.418 108 196 108H164Z" fill="white"/>
<path d="M504.47 236.767C500.49 239.332 495.675 241.512 490.025 243.307C484.376 245.102 478.02 246 470.958 246C457.604 246 447.685 242.602 441.201 235.805C434.717 228.944 431.475 219.647 431.475 207.913V161.555H410V140.588H431.475V118.466L461.906 114.812V140.588H494.84L491.855 161.555H461.906V207.913C461.906 212.978 463.061 216.601 465.373 218.781C467.684 220.961 471.375 222.051 476.447 222.051C480.042 222.051 483.317 221.635 486.27 220.801C489.287 219.903 491.984 218.781 494.359 217.435L504.47 236.767Z" fill="white"/>
<path d="M529.241 200.507C529.947 206.086 531.391 210.606 533.574 214.069C535.821 217.467 538.678 219.968 542.145 221.57C545.612 223.109 549.496 223.879 553.797 223.879C558.484 223.879 563.01 223.109 567.376 221.57C571.741 220.032 575.946 217.98 579.991 215.415L592.221 231.958C587.406 236.061 581.564 239.428 574.694 242.057C567.889 244.686 560.121 246 551.39 246C539.705 246 529.915 243.692 522.018 239.075C514.122 234.394 508.183 227.982 504.203 219.839C500.222 211.696 498.232 202.335 498.232 191.755C498.232 181.688 500.158 172.551 504.01 164.344C507.862 156.072 513.48 149.5 520.863 144.627C528.31 139.69 537.394 137.221 548.115 137.221C557.874 137.221 566.316 139.305 573.442 143.473C580.633 147.641 586.186 153.636 590.102 161.459C594.083 169.281 596.073 178.675 596.073 189.639C596.073 191.37 596.009 193.23 595.88 195.217C595.816 197.205 595.688 198.968 595.495 200.507H529.241ZM548.115 157.611C542.658 157.611 538.261 159.567 534.922 163.478C531.584 167.39 529.562 173.641 528.855 182.233H566.413C566.348 174.795 564.904 168.832 562.079 164.344C559.254 159.856 554.6 157.611 548.115 157.611Z" fill="white"/>
<path d="M633.17 100V210.606C633.17 214.71 634.325 217.659 636.636 219.455C639.012 221.186 642.254 222.051 646.363 222.051C648.995 222.051 651.531 221.763 653.97 221.186C656.41 220.545 658.689 219.807 660.808 218.974L668.127 239.267C664.66 241.063 660.487 242.634 655.608 243.98C650.728 245.327 645.047 246 638.562 246C626.236 246 617.184 242.473 611.406 235.42C605.628 228.303 602.739 218.781 602.739 206.855V120.775H572.597V100H633.17Z" fill="white"/>
<path d="M700.504 100V210.606C700.504 214.71 701.66 217.659 703.971 219.455C706.347 221.186 709.589 222.051 713.698 222.051C716.33 222.051 718.866 221.763 721.305 221.186C723.745 220.545 726.024 219.807 728.143 218.974L735.461 239.267C731.995 241.063 727.822 242.634 722.942 243.98C718.063 245.327 712.381 246 705.897 246C693.571 246 684.519 242.473 678.741 235.42C672.963 228.303 670.074 218.781 670.074 206.855V120.775H639.932V100H700.504Z" fill="white"/>
<path d="M758.209 200.507C758.916 206.086 760.36 210.606 762.543 214.069C764.79 217.467 767.647 219.968 771.114 221.57C774.58 223.109 778.464 223.879 782.766 223.879C787.452 223.879 791.979 223.109 796.344 221.57C800.71 220.032 804.915 217.98 808.96 215.415L821.19 231.958C816.375 236.061 810.532 239.428 803.663 242.057C796.858 244.686 789.09 246 780.358 246C768.674 246 758.883 243.692 750.987 239.075C743.09 234.394 737.152 227.982 733.171 219.839C729.191 211.696 727.201 202.335 727.201 191.755C727.201 181.688 729.127 172.551 732.979 164.344C736.831 156.072 742.448 149.5 749.831 144.627C757.278 139.69 766.363 137.221 777.084 137.221C786.843 137.221 795.285 139.305 802.411 143.473C809.602 147.641 815.155 153.636 819.071 161.459C823.051 169.281 825.042 178.675 825.042 189.639C825.042 191.37 824.977 193.23 824.849 195.217C824.785 197.205 824.656 198.968 824.464 200.507H758.209ZM777.084 157.611C771.627 157.611 767.229 159.567 763.891 163.478C760.553 167.39 758.53 173.641 757.824 182.233H795.381C795.317 174.795 793.872 168.832 791.048 164.344C788.223 159.856 783.568 157.611 777.084 157.611Z" fill="white"/>
<path d="M829.011 242.73V222.34H842.493V160.785H829.011V140.588H865.701L871.287 163.574C874.946 154.79 879.601 148.25 885.25 143.954C890.964 139.658 897.93 137.51 906.147 137.51C909.614 137.51 912.696 137.798 915.392 138.375C918.089 138.888 920.625 139.626 923 140.588L913.755 165.69C911.893 165.177 910.032 164.793 908.17 164.536C906.308 164.28 904.254 164.152 902.007 164.152C895.33 164.152 889.455 166.877 884.384 172.327C879.376 177.777 875.556 184.702 872.924 193.101V222.34H893.147V242.73H829.011ZM898.251 183.291V153.476L902.777 140.588H923L917.318 183.291H898.251Z" fill="white"/>
</svg>
