<?xml version="1.0" encoding="utf-8"?>
<!-- Generator: Adobe Illustrator 22.0.0, SVG Export Plug-In . SVG Version: 6.00 Build 0)  -->
<svg version="1.1" xmlns="http://www.w3.org/2000/svg" xmlns:xlink="http://www.w3.org/1999/xlink" x="0px" y="0px"
	 viewBox="0 0 298 477" style="enable-background:new 0 0 298 477;" xml:space="preserve">
<style type="text/css">
	.st0{fill:#326CE5;}
	.st1{fill:#FFFFFF;}
	.st2{fill:#326DE5;}
</style>
<g id="Layer_1">
</g>
<g id="Layer_2">
	<g>
		<path class="st0" d="M5.7,403.1V436c0,18.9,15.3,34.3,34.3,34.3h218.1c18.9,0,34.3-15.3,34.3-34.3v-32.9H5.7z"/>
		<g>
			<path class="st1" d="M123.5,429.3c0.8-0.3,1.7-0.7,2.6-1.2c0.9-0.4,1.8-0.9,2.6-1.5c0.9-0.5,1.7-1.1,2.5-1.7
				c0.8-0.6,1.5-1.2,2.1-1.9h4.5v29.8h-6.4v-21.4c-0.9,0.6-1.8,1.1-2.9,1.6c-1.1,0.5-2.1,0.9-3.1,1.2L123.5,429.3z"/>
			<path class="st1" d="M150.9,449.5c0,1.3-0.4,2.3-1.2,2.9c-0.8,0.7-1.7,1-2.8,1s-2-0.3-2.8-1c-0.8-0.7-1.2-1.7-1.2-2.9
				c0-1.3,0.4-2.3,1.2-2.9c0.8-0.7,1.7-1,2.8-1s2,0.3,2.8,1C150.5,447.2,150.9,448.2,150.9,449.5z"/>
			<path class="st1" d="M156.2,452.9c0.2-2.1,0.5-4.3,1.1-6.5c0.5-2.3,1.2-4.5,2-6.7c0.8-2.2,1.7-4.2,2.6-6.2c1-1.9,2-3.6,3-5h-12.9
				v-5.5h20.8v4.6c-0.9,1-1.9,2.4-3,4.2c-1.1,1.8-2.1,3.8-3.1,6c-1,2.2-1.8,4.7-2.6,7.2c-0.7,2.6-1.2,5.2-1.4,7.7H156.2z"/>
		</g>
		<path class="st0" d="M292.4,78.1L292.4,78.1l0-25.8c0-25.1-20.5-45.6-45.6-45.6H51.2C26.2,6.7,5.6,27.3,5.6,52.3v25.8V82v312
			h286.7V78.1z M147.4,61.5V38.5h6.5v23.1H147.4z M178.4,61.5V38.5h6.5v23.1H178.4z M215.3,45.1c0.5-1.5,1.1-2.8,2-3.8
			c0.9-1.1,2-1.9,3.2-2.4c1.3-0.6,2.7-0.8,4.4-0.8c0.9,0,1.7,0.1,2.4,0.3c0.7,0.2,1.4,0.4,2.2,0.7V28.6l6.5-1.1v33.3
			c-0.6,0.2-1.3,0.3-2,0.5c-0.8,0.2-1.6,0.3-2.4,0.4c-0.8,0.1-1.7,0.2-2.5,0.3c-0.9,0.1-1.7,0.1-2.5,0.1c-1.9,0-3.6-0.3-5.1-0.8
			c-1.5-0.6-2.7-1.4-3.8-2.4c-1-1-1.8-2.3-2.3-3.8c-0.5-1.5-0.8-3.1-0.8-5C214.6,48.3,214.8,46.6,215.3,45.1z M190.3,44.8
			c0.6-1.5,1.5-2.8,2.5-3.8c1-1,2.2-1.8,3.5-2.3c1.3-0.5,2.7-0.8,4.1-0.8c3.3,0,5.9,1,7.8,3c1.9,2,2.8,4.9,2.8,8.8
			c0,0.4,0,0.8,0,1.2c0,0.5-0.1,0.9-0.1,1.2H196c0.1,1.3,0.8,2.4,1.9,3.2c1.1,0.8,2.6,1.2,4.5,1.2c1.2,0,2.4-0.1,3.5-0.3
			c1.2-0.2,2.1-0.5,2.8-0.8l0.9,5.3c-0.4,0.2-0.8,0.4-1.4,0.5c-0.6,0.2-1.2,0.3-2,0.5c-0.7,0.1-1.5,0.2-2.3,0.3
			c-0.8,0.1-1.6,0.1-2.5,0.1c-2.1,0-3.9-0.3-5.4-0.9c-1.5-0.6-2.8-1.5-3.8-2.5c-1-1.1-1.8-2.3-2.2-3.8c-0.5-1.5-0.7-3-0.7-4.7
			C189.3,48.1,189.7,46.3,190.3,44.8z M178.9,29c0.8-0.7,1.7-1,2.7-1c1.1,0,2,0.3,2.7,1c0.8,0.7,1.2,1.6,1.2,2.8
			c0,1.2-0.4,2.1-1.2,2.8c-0.8,0.7-1.7,1-2.7,1c-1.1,0-2-0.3-2.7-1c-0.8-0.7-1.2-1.6-1.2-2.8C177.8,30.6,178.2,29.7,178.9,29z
			 M160.1,37.2c0-3,0.8-5.3,2.5-7.1c1.7-1.8,4.2-2.6,7.5-2.6c1.2,0,2.2,0.1,3,0.3c0.8,0.2,1.5,0.4,2,0.7l-1.1,5.1
			c-0.5-0.2-1-0.4-1.6-0.4c-0.6-0.1-1.1-0.1-1.7-0.1c-0.8,0-1.5,0.1-2,0.3c-0.5,0.2-1,0.5-1.3,0.9c-0.3,0.4-0.5,0.8-0.7,1.4
			c-0.1,0.5-0.2,1.1-0.2,1.7v1.1h8.1v5.4h-8.1v17.6h-6.5V37.2z M147.9,29c0.8-0.7,1.7-1,2.7-1c1.1,0,2,0.3,2.7,1
			c0.8,0.7,1.2,1.6,1.2,2.8c0,1.2-0.4,2.1-1.2,2.8c-0.8,0.7-1.7,1-2.7,1c-1.1,0-2-0.3-2.7-1c-0.8-0.7-1.2-1.6-1.2-2.8
			C146.7,30.6,147.1,29.7,147.9,29z M127.7,32.7l6.5-1.1v6.8h7.8v5.4h-7.8V52c0,1.4,0.2,2.5,0.7,3.3c0.5,0.8,1.5,1.2,2.9,1.2
			c0.7,0,1.4-0.1,2.2-0.2c0.7-0.1,1.4-0.3,2-0.5l0.9,5.1c-0.8,0.3-1.7,0.6-2.6,0.8c-1,0.2-2.1,0.4-3.6,0.4c-1.8,0-3.3-0.2-4.4-0.7
			c-1.2-0.5-2.1-1.2-2.8-2c-0.7-0.9-1.2-1.9-1.5-3.1c-0.3-1.2-0.4-2.6-0.4-4.1V32.7z M109.4,39.7c1.2-0.4,2.5-0.8,4.1-1.2
			c1.6-0.4,3.4-0.5,5.3-0.5c0.4,0,0.8,0,1.3,0.1c0.5,0,1,0.1,1.5,0.2c0.5,0.1,1,0.2,1.5,0.3c0.5,0.1,0.9,0.2,1.3,0.4l-1.1,5.4
			c-0.6-0.1-1.3-0.3-2.1-0.5c-0.8-0.2-1.6-0.2-2.5-0.2c-0.4,0-0.9,0-1.5,0.1c-0.6,0.1-1,0.2-1.3,0.2v17.6h-6.5V39.7z M83.7,44.8
			c0.6-1.5,1.5-2.8,2.5-3.8c1-1,2.2-1.8,3.5-2.3c1.3-0.5,2.7-0.8,4.1-0.8c3.3,0,5.9,1,7.8,3c1.9,2,2.8,4.9,2.8,8.8
			c0,0.4,0,0.8,0,1.2c0,0.5-0.1,0.9-0.1,1.2H89.4c0.1,1.3,0.8,2.4,1.9,3.2c1.1,0.8,2.6,1.2,4.5,1.2c1.2,0,2.4-0.1,3.5-0.3
			c1.2-0.2,2.1-0.5,2.8-0.8l0.9,5.3c-0.4,0.2-0.8,0.4-1.4,0.5c-0.6,0.2-1.2,0.3-2,0.5c-0.7,0.1-1.5,0.2-2.3,0.3
			c-0.8,0.1-1.6,0.1-2.5,0.1c-2.1,0-3.9-0.3-5.4-0.9c-1.5-0.6-2.8-1.5-3.8-2.5c-1-1.1-1.8-2.3-2.2-3.8c-0.5-1.5-0.7-3-0.7-4.7
			C82.7,48.1,83,46.3,83.7,44.8z M62.7,45.3c0.5-1.5,1.3-2.8,2.3-3.9c1-1.1,2.3-2,3.7-2.6c1.5-0.6,3.1-1,5-1c1.2,0,2.4,0.1,3.4,0.3
			c1,0.2,2,0.5,3,0.9l-1.4,5.2c-0.6-0.2-1.3-0.4-2-0.6c-0.7-0.2-1.5-0.3-2.5-0.3c-1.9,0-3.4,0.6-4.3,1.8c-1,1.2-1.4,2.8-1.4,4.7
			c0,2.1,0.4,3.7,1.3,4.8c0.9,1.1,2.4,1.7,4.7,1.7c0.8,0,1.6-0.1,2.5-0.2c0.9-0.1,1.7-0.4,2.5-0.7l0.9,5.3c-0.8,0.3-1.7,0.6-2.8,0.8
			c-1.1,0.2-2.4,0.4-3.8,0.4c-2.1,0-3.9-0.3-5.4-0.9c-1.5-0.6-2.8-1.5-3.7-2.6c-1-1.1-1.7-2.4-2.1-3.8c-0.5-1.5-0.7-3.1-0.7-4.8
			C61.9,48.3,62.2,46.8,62.7,45.3z M13,386.6V82h270.8v304.6H13z"/>
		<path class="st1" d="M122.3,333.8c-0.3-0.4-0.8-0.8-1.3-1c-0.5-0.3-1.1-0.4-1.9-0.4c-0.7,0-1.4,0.1-1.9,0.4c-0.5,0.2-1,0.6-1.3,1
			c-0.4,0.4-0.6,0.9-0.8,1.5c-0.2,0.5-0.3,1.1-0.4,1.6h8.8c0-0.6-0.1-1.1-0.3-1.6C122.9,334.7,122.7,334.2,122.3,333.8z"/>
		<path class="st1" d="M193.4,333.8c-0.3-0.4-0.8-0.8-1.3-1c-0.5-0.3-1.1-0.4-1.9-0.4c-0.7,0-1.4,0.1-1.9,0.4c-0.5,0.2-1,0.6-1.3,1
			c-0.4,0.4-0.6,0.9-0.8,1.5c-0.2,0.5-0.3,1.1-0.4,1.6h8.8c0-0.6-0.1-1.1-0.3-1.6C194,334.7,193.7,334.2,193.4,333.8z"/>
		<path class="st1" d="M92.3,332.6c-0.7,0-1.4,0.1-2,0.3c-0.7,0.2-1.2,0.4-1.6,0.7v12.1c0.3,0.1,0.7,0.1,1.2,0.2c0.5,0,1.1,0,1.6,0
			c1.8,0,3.2-0.6,4.1-1.9c0.9-1.2,1.4-2.9,1.4-4.9C97,334.8,95.5,332.6,92.3,332.6z"/>
		<path class="st1" d="M238.2,333.8c-0.3-0.4-0.8-0.8-1.3-1c-0.5-0.3-1.1-0.4-1.9-0.4c-0.7,0-1.4,0.1-1.9,0.4c-0.5,0.2-1,0.6-1.3,1
			c-0.4,0.4-0.6,0.9-0.8,1.5c-0.2,0.5-0.3,1.1-0.4,1.6h8.8c0-0.6-0.1-1.1-0.3-1.6C238.9,334.7,238.6,334.2,238.2,333.8z"/>
		<path class="st1" d="M13,82v304.6h270.8V82H13z M102.7,299.6L57.2,243c-0.3-0.3-0.5-0.7-0.7-1c-1.8-2.8-2.5-6.3-1.7-9.6L71,161.9
			c0.9-3.7,3.4-6.8,6.8-8.5l65.7-31.4c1.5-0.7,3.1-1.1,4.8-1.2c2.1-0.1,4.2,0.3,6.1,1.2l65.8,31.4c3.4,1.6,6,4.8,6.8,8.5l16.2,70.6
			c0.9,3.7,0,7.6-2.4,10.6l-45.5,56.6c-2.4,3-6,4.7-9.8,4.7l-73,0C108.7,304.3,105,302.5,102.7,299.6z M45.1,350.9
			c-0.5-0.8-1-1.6-1.6-2.5c-0.6-1-1.2-1.9-1.9-2.8c-0.7-1-1.4-1.9-2.2-2.7c-0.7-0.9-1.5-1.6-2.2-2.2v10.2h-6.6v-33.5l6.6-1.1V336
			c0.7-0.7,1.3-1.5,2-2.2c0.7-0.8,1.4-1.5,2-2.3c0.7-0.8,1.3-1.5,1.8-2.2c0.6-0.7,1.1-1.3,1.5-1.8h7.9c-1.6,1.8-3.1,3.5-4.6,5.2
			c-1.5,1.6-3.1,3.3-4.9,5.1c0.9,0.8,1.8,1.8,2.8,2.9c1,1.1,1.9,2.2,2.8,3.4c0.9,1.2,1.7,2.4,2.4,3.6c0.7,1.2,1.4,2.3,1.9,3.3H45.1z
			 M75.8,350.1c-1.1,0.3-2.6,0.6-4.4,0.9c-1.8,0.3-3.7,0.4-5.6,0.4c-2,0-3.7-0.3-5-0.8c-1.3-0.5-2.3-1.3-3.1-2.2
			c-0.8-1-1.3-2.1-1.6-3.5c-0.3-1.3-0.5-2.8-0.5-4.4v-13h6.6v12.2c0,2.1,0.3,3.7,0.8,4.6s1.6,1.4,3.2,1.4c0.5,0,1,0,1.5,0
			c0.5-0.1,1-0.1,1.4-0.2v-18.1h6.6V350.1z M103,344.3c-0.5,1.5-1.3,2.8-2.4,3.9c-1,1.1-2.3,1.9-3.8,2.5c-1.5,0.6-3.2,0.8-5.2,0.8
			c-0.8,0-1.6,0-2.5-0.1c-0.9-0.1-1.7-0.1-2.6-0.3c-0.8-0.1-1.6-0.3-2.4-0.4c-0.8-0.2-1.5-0.4-2-0.5v-32.7l6.6-1.1V328
			c0.7-0.3,1.5-0.6,2.3-0.8c0.8-0.2,1.7-0.3,2.6-0.3c1.7,0,3.1,0.3,4.4,0.9c1.3,0.6,2.3,1.4,3.2,2.4s1.5,2.4,2,3.9
			c0.4,1.5,0.7,3.1,0.7,5C103.8,341.1,103.5,342.8,103,344.3z M129.7,340.2c0,0.4-0.1,0.8-0.1,1.2h-15.1c0.1,1.4,0.8,2.4,1.9,3.3
			c1.1,0.8,2.6,1.2,4.5,1.2c1.2,0,2.4-0.1,3.6-0.3c1.2-0.2,2.2-0.5,2.9-0.8l0.9,5.4c-0.4,0.2-0.8,0.4-1.4,0.5
			c-0.6,0.2-1.3,0.3-2,0.4c-0.7,0.1-1.5,0.3-2.3,0.4c-0.8,0.1-1.7,0.1-2.5,0.1c-2.1,0-3.9-0.3-5.5-0.9c-1.5-0.6-2.8-1.5-3.9-2.5
			c-1-1.1-1.8-2.4-2.3-3.9c-0.5-1.5-0.7-3.1-0.7-4.8h0c0-2.1,0.3-3.9,0.9-5.4c0.7-1.6,1.5-2.9,2.5-3.9c1-1,2.2-1.8,3.6-2.4
			c1.4-0.5,2.8-0.8,4.2-0.8c3.3,0,6,1,7.9,3.1c1.9,2,2.9,5,2.9,9C129.8,339.3,129.8,339.7,129.7,340.2z M149,333.4
			c-0.6-0.1-1.3-0.3-2.1-0.4c-0.8-0.2-1.7-0.3-2.6-0.3c-0.4,0-0.9,0-1.5,0.1c-0.6,0.1-1,0.1-1.3,0.2v17.9h-6.6v-22.2
			c1.2-0.4,2.6-0.8,4.2-1.2c1.6-0.4,3.4-0.6,5.4-0.6c0.4,0,0.8,0,1.3,0.1c0.5,0,1,0.1,1.5,0.2c0.5,0.1,1,0.1,1.5,0.3
			c0.5,0.1,0.9,0.2,1.3,0.4L149,333.4z M173.9,350.9h-6.6v-12.4c0-2.1-0.3-3.7-0.8-4.5c-0.6-0.9-1.6-1.3-3.2-1.3c-0.5,0-1,0-1.5,0.1
			c-0.5,0-1,0.1-1.4,0.1v18.1h-6.6v-22.6c1.1-0.3,2.6-0.6,4.4-0.9c1.8-0.3,3.7-0.4,5.6-0.4c2,0,3.6,0.3,4.9,0.8
			c1.3,0.5,2.4,1.2,3.2,2.2s1.3,2.1,1.6,3.4c0.3,1.3,0.5,2.8,0.5,4.4V350.9z M200.8,340.2c0,0.4-0.1,0.8-0.1,1.2h-15.1
			c0.1,1.4,0.8,2.4,1.9,3.3c1.1,0.8,2.6,1.2,4.5,1.2c1.2,0,2.4-0.1,3.6-0.3c1.2-0.2,2.2-0.5,2.9-0.8l0.9,5.4
			c-0.4,0.2-0.8,0.4-1.4,0.5c-0.6,0.2-1.3,0.3-2,0.4c-0.7,0.1-1.5,0.3-2.3,0.4c-0.8,0.1-1.7,0.1-2.5,0.1c-2.1,0-3.9-0.3-5.5-0.9
			c-1.5-0.6-2.8-1.5-3.9-2.5c-1-1.1-1.8-2.4-2.3-3.9c-0.5-1.5-0.7-3.1-0.7-4.8c0-2.1,0.3-3.9,0.9-5.4c0.7-1.6,1.5-2.9,2.5-3.9
			c1-1,2.2-1.8,3.6-2.4c1.4-0.5,2.8-0.8,4.2-0.8c3.3,0,6,1,7.9,3.1c1.9,2,2.9,5,2.9,9C200.8,339.3,200.8,339.7,200.8,340.2z
			 M218.6,351.1c-1,0.2-2.2,0.4-3.6,0.4c-1.8,0-3.3-0.2-4.5-0.7c-1.2-0.5-2.1-1.2-2.9-2c-0.7-0.9-1.2-2-1.5-3.2
			c-0.3-1.2-0.4-2.6-0.4-4.1v-19.7h0l6.6-1.1v6.9h8v5.5h-8v8.2c0,1.4,0.2,2.5,0.7,3.3c0.5,0.8,1.5,1.2,3,1.2c0.7,0,1.4-0.1,2.2-0.2
			c0.8-0.1,1.5-0.3,2.1-0.6l0.9,5.2C220.5,350.6,219.6,350.9,218.6,351.1z M245.7,340.2c0,0.4-0.1,0.8-0.1,1.2h-15.1
			c0.1,1.4,0.8,2.4,1.9,3.3c1.1,0.8,2.6,1.2,4.5,1.2c1.2,0,2.4-0.1,3.6-0.3c1.2-0.2,2.2-0.5,2.9-0.8l0.9,5.4
			c-0.4,0.2-0.8,0.4-1.4,0.5c-0.6,0.2-1.3,0.3-2,0.4c-0.7,0.1-1.5,0.3-2.3,0.4c-0.8,0.1-1.7,0.1-2.5,0.1c-2.1,0-3.9-0.3-5.5-0.9
			c-1.5-0.6-2.8-1.5-3.9-2.5c-1-1.1-1.8-2.4-2.3-3.9c-0.5-1.5-0.7-3.1-0.7-4.8c0-2.1,0.3-3.9,0.9-5.4c0.7-1.6,1.5-2.9,2.5-3.9
			c1-1,2.2-1.8,3.6-2.4c1.4-0.5,2.8-0.8,4.2-0.8c3.3,0,6,1,7.9,3.1c1.9,2,2.9,5,2.9,9C245.7,339.3,245.7,339.7,245.7,340.2z
			 M264.9,349.8c-1.7,1.2-4.2,1.8-7.3,1.8c-2.1,0-3.8-0.2-5.2-0.5c-1.4-0.4-2.3-0.7-2.8-0.9l1.1-5.4c1.1,0.4,2.3,0.8,3.5,1.1
			c1.2,0.2,2.4,0.4,3.5,0.4c1.2,0,2.1-0.1,2.6-0.4c0.5-0.2,0.8-0.7,0.8-1.4c0-0.5-0.3-1-1-1.4c-0.7-0.4-1.6-0.9-3-1.4
			c-1-0.4-2-0.8-2.8-1.2c-0.8-0.4-1.5-0.9-2.1-1.5c-0.6-0.6-1.1-1.3-1.4-2.1c-0.3-0.8-0.5-1.8-0.5-2.9c0-2.2,0.8-3.9,2.4-5.2
			c1.6-1.3,3.9-1.9,6.7-1.9c1.4,0,2.8,0.1,4.1,0.4c1.3,0.2,2.3,0.5,3.1,0.8l-1.2,5.2c-0.8-0.3-1.6-0.5-2.5-0.7
			c-0.9-0.2-1.9-0.3-3-0.3c-2.1,0-3.1,0.6-3.1,1.7c0,0.3,0,0.5,0.1,0.7c0.1,0.2,0.3,0.4,0.5,0.6c0.3,0.2,0.6,0.4,1.1,0.6
			c0.5,0.2,1.1,0.4,1.8,0.7c1.5,0.5,2.7,1.1,3.6,1.6c1,0.5,1.7,1.1,2.2,1.7c0.6,0.6,0.9,1.3,1.2,2c0.2,0.7,0.4,1.6,0.4,2.6
			C267.5,346.8,266.6,348.6,264.9,349.8z"/>
		<path class="st0" d="M97.8,46.1c-0.2-0.5-0.4-1-0.7-1.4c-0.3-0.4-0.8-0.7-1.3-1c-0.5-0.3-1.1-0.4-1.9-0.4c-0.7,0-1.4,0.1-1.9,0.4
			c-0.5,0.2-1,0.6-1.3,1C90.3,45,90,45.5,89.9,46c-0.2,0.5-0.3,1.1-0.4,1.6h8.6C98,47.1,98,46.6,97.8,46.1z"/>
		<path class="st0" d="M226.7,56.5c0.6,0,1.1,0,1.6-0.1c0.5,0,0.9-0.1,1.2-0.2V44.4c-0.4-0.3-0.9-0.5-1.6-0.7
			c-0.7-0.2-1.3-0.3-2-0.3c-3.1,0-4.6,2.1-4.6,6.3c0,2,0.5,3.6,1.4,4.9C223.5,55.9,224.9,56.5,226.7,56.5z"/>
		<path class="st0" d="M204.4,46.1c-0.2-0.5-0.4-1-0.7-1.4c-0.3-0.4-0.8-0.7-1.3-1c-0.5-0.3-1.1-0.4-1.9-0.4c-0.7,0-1.4,0.1-1.9,0.4
			c-0.5,0.2-1,0.6-1.3,1c-0.4,0.4-0.6,0.9-0.8,1.4c-0.2,0.5-0.3,1.1-0.4,1.6h8.6C204.7,47.1,204.6,46.6,204.4,46.1z"/>
		<path class="st1" d="M64.7,58.6c1,1.1,2.2,1.9,3.7,2.6c1.5,0.6,3.3,0.9,5.4,0.9c1.4,0,2.6-0.1,3.8-0.4c1.1-0.2,2.1-0.5,2.8-0.8
			l-0.9-5.3c-0.8,0.3-1.6,0.6-2.5,0.7c-0.9,0.1-1.8,0.2-2.5,0.2c-2.2,0-3.8-0.6-4.7-1.7c-0.9-1.1-1.3-2.7-1.3-4.8
			c0-2,0.5-3.5,1.4-4.7c0.9-1.2,2.4-1.8,4.3-1.8c0.9,0,1.7,0.1,2.5,0.3c0.7,0.2,1.4,0.4,2,0.6l1.4-5.2c-1-0.4-2-0.7-3-0.9
			c-1-0.2-2.1-0.3-3.4-0.3c-1.9,0-3.5,0.3-5,1c-1.5,0.6-2.7,1.5-3.7,2.6c-1,1.1-1.8,2.4-2.3,3.9c-0.5,1.5-0.8,3-0.8,4.7
			c0,1.7,0.2,3.3,0.7,4.8C63,56.3,63.8,57.6,64.7,58.6z"/>
		<path class="st1" d="M85.7,58.7c1,1.1,2.3,1.9,3.8,2.5c1.5,0.6,3.3,0.9,5.4,0.9c0.8,0,1.6,0,2.5-0.1c0.8-0.1,1.6-0.2,2.3-0.3
			c0.7-0.1,1.4-0.3,2-0.5c0.6-0.2,1.1-0.4,1.4-0.5l-0.9-5.3c-0.7,0.3-1.7,0.6-2.8,0.8c-1.2,0.2-2.3,0.3-3.5,0.3
			c-1.9,0-3.4-0.4-4.5-1.2c-1.1-0.8-1.7-1.9-1.9-3.2h14.8c0-0.4,0.1-0.8,0.1-1.2c0-0.5,0-0.9,0-1.2c0-3.9-1-6.8-2.8-8.8
			c-1.9-2-4.5-3-7.8-3c-1.4,0-2.8,0.3-4.1,0.8c-1.3,0.5-2.5,1.3-3.5,2.3c-1,1-1.8,2.3-2.5,3.8c-0.6,1.5-0.9,3.3-0.9,5.4
			c0,1.7,0.2,3.3,0.7,4.7C83.9,56.4,84.7,57.6,85.7,58.7z M89.9,46c0.2-0.5,0.5-1,0.8-1.4c0.4-0.4,0.8-0.7,1.3-1
			c0.5-0.2,1.2-0.4,1.9-0.4c0.8,0,1.4,0.1,1.9,0.4c0.5,0.3,0.9,0.6,1.3,1c0.3,0.4,0.6,0.9,0.7,1.4c0.2,0.5,0.3,1.1,0.3,1.6h-8.6
			C89.5,47.1,89.7,46.6,89.9,46z"/>
		<path class="st1" d="M116,43.9c0.3-0.1,0.7-0.2,1.3-0.2c0.6-0.1,1.1-0.1,1.5-0.1c0.9,0,1.8,0.1,2.5,0.2c0.8,0.2,1.5,0.3,2.1,0.5
			l1.1-5.4c-0.4-0.1-0.8-0.3-1.3-0.4c-0.5-0.1-1-0.2-1.5-0.3c-0.5-0.1-1-0.1-1.5-0.2c-0.5,0-0.9-0.1-1.3-0.1c-2,0-3.7,0.2-5.3,0.5
			c-1.6,0.4-3,0.8-4.1,1.2v21.8h6.5V43.9z"/>
		<path class="st1" d="M129.6,59.3c0.7,0.9,1.6,1.5,2.8,2c1.2,0.5,2.6,0.7,4.4,0.7c1.4,0,2.6-0.1,3.6-0.4c1-0.2,1.8-0.5,2.6-0.8
			l-0.9-5.1c-0.6,0.2-1.3,0.4-2,0.5c-0.7,0.1-1.5,0.2-2.2,0.2c-1.5,0-2.4-0.4-2.9-1.2c-0.5-0.8-0.7-1.9-0.7-3.3v-8.1h7.8v-5.4h-7.8
			v-6.8l-6.5,1.1v19.4c0,1.5,0.1,2.8,0.4,4.1C128.4,57.4,128.9,58.5,129.6,59.3z"/>
		<path class="st1" d="M150.6,35.7c1.1,0,2-0.3,2.7-1c0.8-0.7,1.2-1.6,1.2-2.8c0-1.2-0.4-2.1-1.2-2.8c-0.8-0.7-1.7-1-2.7-1
			c-1.1,0-2,0.3-2.7,1c-0.8,0.7-1.2,1.6-1.2,2.8c0,1.2,0.4,2.1,1.2,2.8C148.7,35.3,149.6,35.7,150.6,35.7z"/>
		<rect x="147.4" y="38.5" class="st1" width="6.5" height="23.1"/>
		<path class="st1" d="M166.6,43.9h8.1v-5.4h-8.1v-1.1c0-0.6,0.1-1.2,0.2-1.7c0.1-0.5,0.4-1,0.7-1.4c0.3-0.4,0.7-0.7,1.3-0.9
			c0.5-0.2,1.2-0.3,2-0.3c0.6,0,1.2,0,1.7,0.1c0.6,0.1,1.1,0.2,1.6,0.4l1.1-5.1c-0.6-0.2-1.2-0.5-2-0.7c-0.8-0.2-1.8-0.3-3-0.3
			c-3.3,0-5.8,0.9-7.5,2.6c-1.7,1.8-2.5,4.1-2.5,7.1v24.3h6.5V43.9z"/>
		<path class="st1" d="M181.7,35.7c1.1,0,2-0.3,2.7-1c0.8-0.7,1.2-1.6,1.2-2.8c0-1.2-0.4-2.1-1.2-2.8c-0.8-0.7-1.7-1-2.7-1
			c-1.1,0-2,0.3-2.7,1c-0.8,0.7-1.2,1.6-1.2,2.8c0,1.2,0.4,2.1,1.2,2.8C179.7,35.3,180.6,35.7,181.7,35.7z"/>
		<rect x="178.4" y="38.5" class="st1" width="6.5" height="23.1"/>
		<path class="st1" d="M192.3,58.7c1,1.1,2.3,1.9,3.8,2.5c1.5,0.6,3.3,0.9,5.4,0.9c0.8,0,1.6,0,2.5-0.1c0.8-0.1,1.6-0.2,2.3-0.3
			c0.7-0.1,1.4-0.3,2-0.5c0.6-0.2,1.1-0.4,1.4-0.5l-0.9-5.3c-0.7,0.3-1.7,0.6-2.8,0.8c-1.2,0.2-2.3,0.3-3.5,0.3
			c-1.9,0-3.4-0.4-4.5-1.2c-1.1-0.8-1.7-1.9-1.9-3.2h14.8c0-0.4,0.1-0.8,0.1-1.2c0-0.5,0-0.9,0-1.2c0-3.9-1-6.8-2.8-8.8
			c-1.9-2-4.5-3-7.8-3c-1.4,0-2.8,0.3-4.1,0.8c-1.3,0.5-2.5,1.3-3.5,2.3c-1,1-1.8,2.3-2.5,3.8c-0.6,1.5-0.9,3.3-0.9,5.4
			c0,1.7,0.2,3.3,0.7,4.7C190.5,56.4,191.3,57.6,192.3,58.7z M196.5,46c0.2-0.5,0.5-1,0.8-1.4c0.4-0.4,0.8-0.7,1.3-1
			c0.5-0.2,1.2-0.4,1.9-0.4c0.8,0,1.4,0.1,1.9,0.4c0.5,0.3,0.9,0.6,1.3,1c0.3,0.4,0.6,0.9,0.7,1.4c0.2,0.5,0.3,1.1,0.3,1.6H196
			C196.1,47.1,196.3,46.6,196.5,46z"/>
		<path class="st1" d="M217.8,58.9c1,1,2.3,1.8,3.8,2.4c1.5,0.6,3.2,0.8,5.1,0.8c0.8,0,1.6,0,2.5-0.1c0.9-0.1,1.7-0.2,2.5-0.3
			c0.8-0.1,1.6-0.3,2.4-0.4c0.8-0.2,1.4-0.3,2-0.5V27.5l-6.5,1.1V39c-0.7-0.3-1.5-0.6-2.2-0.7c-0.7-0.2-1.5-0.3-2.4-0.3
			c-1.6,0-3.1,0.3-4.4,0.8c-1.3,0.6-2.3,1.4-3.2,2.4c-0.9,1.1-1.5,2.3-2,3.8c-0.5,1.5-0.7,3.2-0.7,5.1c0,1.8,0.3,3.5,0.8,5
			C216,56.6,216.7,57.8,217.8,58.9z M225.9,43.5c0.7,0,1.3,0.1,2,0.3c0.7,0.2,1.2,0.4,1.6,0.7v11.9c-0.3,0.1-0.7,0.1-1.2,0.2
			c-0.5,0-1,0.1-1.6,0.1c-1.8,0-3.1-0.6-4-1.8c-0.9-1.2-1.4-2.8-1.4-4.9C221.3,45.6,222.8,43.5,225.9,43.5z"/>
		<path class="st0" d="M180.9,241.2c2.8-3.5,4.9-7.4,6.4-11.6l-20.4-3.5l0,0l0,0c-0.3-0.1-0.5-0.1-0.8-0.1c-0.5,0-0.9,0.1-1.3,0.3
			c-1.7,0.8-2.4,2.8-1.7,4.5l0,0l0,0l7.9,19.2C174.8,247.7,178.2,244.7,180.9,241.2z"/>
		<path class="st0" d="M175.1,247.2C175.1,247.2,175.1,247.2,175.1,247.2C175.1,247.2,175.1,247.2,175.1,247.2z"/>
		<path class="st0" d="M179.9,242.5C179.9,242.5,179.9,242.5,179.9,242.5C179.9,242.5,179.9,242.5,179.9,242.5z"/>
		<path class="st0" d="M114.2,194.4c-2.3,3.8-4,7.8-4.9,12.1c-1,4.4-1.3,8.9-0.8,13.4l19.8-5.7l0-0.1l0,0c0.7-0.2,1.3-0.6,1.8-1.2
			c1.1-1.4,1-3.5-0.4-4.7l0,0l0-0.1L114.2,194.4z"/>
		<path class="st0" d="M167.2,210c-0.4,1.8,0.7,3.6,2.4,4.1l0,0l0,0.1l19.9,5.7c0.4-4.4,0.1-8.8-0.9-13.1c-1-4.4-2.7-8.5-5-12.3
			l-15.3,13.7l0,0l0,0C167.8,208.7,167.4,209.3,167.2,210z"/>
		<path class="st0" d="M127,250.1l7.8-19l-0.1-0.1l0,0c0.3-0.7,0.4-1.4,0.2-2.1c-0.4-1.6-1.7-2.7-3.3-2.7c0,0,0,0,0,0
			c-0.2,0-0.4,0-0.6,0.1l0,0l0,0l-20.3,3.4c1.5,4.2,3.7,8.2,6.6,11.7C120,244.8,123.3,247.7,127,250.1z"/>
		<path class="st0" d="M158.1,255.5c1.4-0.3,2.7-0.7,4-1.1l-10-18H152l0,0c-0.3-0.6-0.9-1.1-1.5-1.5c-0.5-0.2-1-0.3-1.5-0.3
			c0,0-0.1,0-0.1,0c-1.2,0-2.3,0.7-2.9,1.8l0,0h0l-10,18C143.1,256.8,150.7,257.2,158.1,255.5z"/>
		<polygon class="st0" points="145.8,209.3 141.9,214.2 143.3,220.3 149,223 154.6,220.3 156,214.2 152.1,209.3 		"/>
		<path class="st0" d="M172.4,249.3c0,0,0.1,0,0.1-0.1C172.5,249.2,172.4,249.3,172.4,249.3z"/>
		<path class="st0" d="M166.7,179.1c-4-1.9-8.3-3.2-12.7-3.8l1.2,20.6l0,0l0,0c0,0.7,0.3,1.4,0.7,2c1.2,1.4,3.2,1.7,4.7,0.6l0,0
			l0.1,0l16.8-11.9C174.3,183.6,170.6,181,166.7,179.1z"/>
		<path class="st0" d="M120.4,186.7l16.9,12l0,0l0,0c0.6,0.4,1.3,0.7,2,0.7c1.8,0,3.4-1.4,3.4-3.3l0,0l0.1,0l1.2-20.6
			c-1.4,0.2-2.8,0.4-4.2,0.7C132.5,177.7,125.7,181.4,120.4,186.7z"/>
		<path class="st0" d="M177.6,244.9C177.6,244.9,177.6,245,177.6,244.9C177.6,245,177.6,244.9,177.6,244.9z"/>
		<path class="st0" d="M185.5,304.2c3.8,0,7.4-1.7,9.8-4.7l45.5-56.6c2.4-3,3.3-6.9,2.4-10.6L227,161.8c-0.9-3.7-3.4-6.8-6.8-8.5
			L154.4,122c-1.9-0.9-4-1.3-6.1-1.2c-1.7,0.1-3.3,0.5-4.8,1.2l-65.7,31.4c-3.4,1.6-6,4.8-6.8,8.5l-16.2,70.6
			c-0.8,3.3-0.1,6.7,1.7,9.6c0.2,0.3,0.5,0.7,0.7,1l45.5,56.6c2.4,3,6,4.7,9.8,4.7L185.5,304.2z M122.3,261.5L122.3,261.5
			L122.3,261.5l0.7-1.7c-10.8-6.4-18.8-16.5-22.7-28.3l-1.7,0.3l0,0c-0.1,0-0.1-0.1-0.2-0.1c-0.5-0.3-1.3-0.8-2.1-0.7
			c-2.1,0.3-4.2,1.1-6.7,2l-0.1,0c-0.4,0.2-0.8,0.3-1.2,0.5c-0.8,0.3-1.5,0.6-2.4,0.9c-0.2,0.1-0.5,0.1-0.7,0.2
			c-0.1,0-0.2,0-0.3,0.1c0,0,0,0,0,0c0,0,0,0,0,0c0,0,0,0,0,0c0,0,0,0,0,0c-2.3,0.5-4.6-0.8-5.1-2.9c-0.5-2.1,1-4.3,3.4-4.8
			c0,0,0,0,0,0c0,0,0,0,0,0l0,0c0,0,0,0,0,0c0.1,0,0.2,0,0.3-0.1c0.3-0.1,0.5-0.1,0.7-0.2c0.9-0.2,1.7-0.2,2.5-0.2
			c0.4,0,0.8,0,1.3-0.1l0.1,0c2.7-0.3,5-0.5,7-1.1c0.6-0.2,1.1-0.9,1.5-1.5c0.1-0.1,0.1-0.1,0.2-0.2l0,0l0,0l1.6-0.5
			c-1.8-12.4,1.1-25,8-35.5l-1.2-1.1l0,0c0-0.1,0-0.1,0-0.2c-0.1-0.6-0.2-1.5-0.8-2.1c-1.5-1.5-3.5-2.7-5.8-4.1
			c-0.4-0.2-0.8-0.4-1.1-0.6c-0.7-0.4-1.4-0.7-2.1-1.3c-0.2-0.1-0.4-0.3-0.6-0.5c-0.1-0.1-0.2-0.1-0.2-0.2c0,0,0,0,0,0c0,0,0,0,0,0
			c-0.9-0.7-1.5-1.7-1.7-2.8c-0.2-1.1,0.1-2.2,0.7-3c0.7-0.9,1.8-1.4,3-1.4c0,0,0.1,0,0.1,0c1,0,2,0.4,2.8,1
			c0.1,0.1,0.2,0.1,0.2,0.2c0.2,0.2,0.5,0.4,0.6,0.5c0.7,0.6,1.2,1.2,1.7,1.8c0.3,0.3,0.5,0.6,0.8,0.9l0.1,0.1
			c1.9,1.9,3.5,3.5,5.2,4.7c0.8,0.5,1.4,0.4,2,0.3c0.1,0,0.2,0,0.3,0l0,0l0,0c0.2,0.2,1,0.7,1.4,1c6.9-7.4,15.8-12.4,25.7-14.7
			c2.3-0.5,4.7-0.9,7.1-1.1l0.1-1.6l0,0c0.5-0.5,1.1-1.2,1.3-2c0.2-2.1-0.1-4.4-0.4-7.1l0-0.1c-0.1-0.4-0.1-0.8-0.2-1.2
			c-0.2-0.8-0.3-1.6-0.3-2.5c0-0.2,0-0.4,0-0.7c0-0.1,0-0.2,0-0.3c0,0,0,0,0,0c0,0,0,0,0-0.1c0-2.4,1.8-4.4,4-4.4s4,2,4,4.4
			c0,0.1,0,0.2,0,0.4c0,0.3,0,0.5,0,0.7c0,0.9-0.2,1.7-0.3,2.5c-0.1,0.4-0.2,0.8-0.2,1.2l0,0.2c-0.3,2.6-0.6,4.9-0.4,6.9
			c0.1,0.9,0.6,1.3,1.1,1.7c0.1,0.1,0.1,0.1,0.2,0.2l0,0v0c0,0.3,0.1,1.2,0.1,1.7c6.2,0.6,12.2,2.2,17.8,5
			c5.6,2.7,10.6,6.3,14.8,10.8l1.5-1.1l0,0c0.1,0,0.1,0,0.2,0c0.6,0,1.5,0.1,2.2-0.3c1.7-1.2,3.3-2.8,5.2-4.7l0.1-0.1
			c0.3-0.3,0.6-0.6,0.8-0.9c0.5-0.6,1.1-1.2,1.8-1.8c0.2-0.1,0.4-0.3,0.6-0.5c0.1-0.1,0.2-0.1,0.2-0.2c1.9-1.5,4.6-1.4,5.9,0.4
			c1.4,1.7,0.9,4.3-1,5.8c-0.1,0.1-0.2,0.1-0.3,0.2c-0.2,0.2-0.4,0.3-0.6,0.5c-0.7,0.5-1.4,0.9-2.1,1.3c-0.4,0.2-0.7,0.4-1.1,0.6
			c-2.3,1.4-4.3,2.7-5.8,4.1c-0.6,0.7-0.7,1.3-0.7,1.9c0,0.1,0,0.2,0,0.3l0,0l0,0c-0.1,0.1-0.3,0.3-0.6,0.5
			c-0.3,0.2-0.6,0.5-0.8,0.7c3.5,5.2,6,10.9,7.4,17c1.4,6.1,1.7,12.2,0.8,18.4l1.6,0.5l0,0c0,0,0.1,0.1,0.1,0.2
			c0.3,0.5,0.8,1.3,1.6,1.5c2,0.6,4.3,0.9,7,1.1l0.1,0c0.4,0,0.9,0.1,1.3,0.1c0.8,0,1.6,0.1,2.5,0.2c0.2,0,0.5,0.1,0.7,0.2
			c0.2,0,0.3,0.1,0.4,0.1c2.3,0.6,3.8,2.7,3.4,4.8c-0.5,2.1-2.8,3.4-5.1,2.9c0,0,0,0,0,0c0,0,0,0,0,0c0,0,0,0,0,0c0,0,0,0,0,0
			c-0.1,0-0.2-0.1-0.4-0.1c-0.2,0-0.5-0.1-0.6-0.1c-0.9-0.2-1.6-0.5-2.3-0.9c-0.4-0.2-0.8-0.3-1.2-0.5l-0.1,0
			c-2.5-0.9-4.7-1.7-6.7-2c-0.1,0-0.2,0-0.2,0c-0.8,0-1.2,0.3-1.7,0.7c-0.1,0.1-0.2,0.1-0.2,0.2l0,0l0,0c-0.3-0.1-1.1-0.2-1.7-0.3
			c-1.9,5.9-4.8,11.4-8.7,16.3c-3.9,4.9-8.6,9-14,12.2c0.1,0.1,0.1,0.3,0.2,0.5c0.2,0.4,0.3,0.9,0.4,1l0,0l0,0
			c0,0.1-0.1,0.2-0.1,0.3c-0.2,0.6-0.5,1.2-0.2,2c0.8,2,2,4,3.5,6.2c0.2,0.4,0.5,0.7,0.7,1c0.5,0.7,0.9,1.3,1.4,2.1
			c0.1,0.2,0.2,0.5,0.4,0.7c0.1,0.1,0.1,0.2,0.2,0.3c1,2.2,0.3,4.7-1.7,5.6c-1,0.5-2.1,0.5-3.1,0.1c-1-0.4-1.9-1.2-2.4-2.3
			c0-0.1-0.1-0.2-0.1-0.3c-0.1-0.3-0.3-0.5-0.3-0.7c-0.4-0.8-0.6-1.6-0.8-2.4c-0.1-0.4-0.2-0.8-0.4-1.2l0-0.1
			c-0.9-2.5-1.6-4.7-2.7-6.5c-0.5-0.8-1.1-0.9-1.7-1.1c-0.1,0-0.2-0.1-0.3-0.1l0,0l0,0c-0.1-0.1-0.2-0.4-0.4-0.7
			c-0.2-0.3-0.3-0.6-0.4-0.8c-2.2,0.8-4.5,1.5-6.7,2c-9.9,2.2-20.1,1.5-29.6-2.1l-0.9,1.6l0,0c-0.6,0.2-1.3,0.3-1.7,0.8
			c-1,1.2-1.6,2.9-2.2,4.7c-0.3,0.8-0.5,1.6-0.8,2.3c-0.1,0.4-0.2,0.8-0.4,1.2c-0.2,0.8-0.4,1.5-0.8,2.4c-0.1,0.2-0.2,0.4-0.3,0.7
			c-0.1,0.1-0.1,0.2-0.2,0.3l0,0c0,0,0,0,0,0c-0.8,1.6-2.3,2.6-3.9,2.6c-0.5,0-1.1-0.1-1.6-0.4c-1.9-0.9-2.7-3.5-1.7-5.6
			c0.1-0.1,0.1-0.2,0.2-0.4c0.1-0.2,0.2-0.5,0.3-0.7c0.4-0.8,0.9-1.4,1.4-2.1c0.2-0.3,0.5-0.7,0.7-1c1.6-2.4,2.8-4.5,3.6-6.4
			C122.8,263,122.5,262.1,122.3,261.5z"/>
		<path class="st1" d="M119.1,270.1c-0.2,0.4-0.5,0.7-0.7,1c-0.5,0.7-0.9,1.3-1.4,2.1c-0.1,0.2-0.2,0.4-0.3,0.7
			c-0.1,0.1-0.1,0.3-0.2,0.4c-1,2.2-0.3,4.7,1.7,5.6c0.5,0.2,1,0.4,1.6,0.4c1.6,0,3.1-1,3.9-2.6c0,0,0,0,0,0l0,0
			c0-0.1,0.1-0.2,0.2-0.3c0.1-0.2,0.2-0.5,0.3-0.7c0.4-0.8,0.6-1.6,0.8-2.4c0.1-0.4,0.2-0.8,0.4-1.2c0.3-0.8,0.6-1.6,0.8-2.3
			c0.6-1.8,1.2-3.5,2.2-4.7c0.4-0.5,1-0.6,1.7-0.8l0,0l0.9-1.6c9.5,3.6,19.7,4.4,29.6,2.1c2.3-0.5,4.5-1.2,6.7-2
			c0.1,0.2,0.3,0.5,0.4,0.8c0.2,0.3,0.3,0.6,0.4,0.7l0,0l0,0c0.1,0,0.2,0.1,0.3,0.1c0.6,0.2,1.2,0.4,1.7,1.1c1.1,1.8,1.8,4,2.7,6.5
			l0,0.1c0.1,0.4,0.2,0.8,0.4,1.2c0.2,0.8,0.4,1.5,0.8,2.4c0.1,0.2,0.2,0.5,0.3,0.7c0,0.1,0.1,0.2,0.1,0.3c0.5,1.1,1.4,1.9,2.4,2.3
			c1,0.4,2.1,0.4,3.1-0.1c1.9-0.9,2.7-3.5,1.7-5.6c0-0.1-0.1-0.2-0.2-0.3c-0.1-0.3-0.2-0.5-0.4-0.7c-0.4-0.8-0.9-1.4-1.4-2.1
			c-0.2-0.3-0.5-0.7-0.7-1c-1.5-2.3-2.7-4.3-3.5-6.2c-0.3-0.9,0-1.5,0.2-2c0-0.1,0.1-0.2,0.1-0.3l0,0l0,0c-0.1-0.1-0.3-0.6-0.4-1
			c-0.1-0.2-0.1-0.4-0.2-0.5c5.4-3.2,10.1-7.3,14-12.2c3.9-4.9,6.8-10.4,8.7-16.3c0.5,0.1,1.4,0.2,1.7,0.3l0,0l0,0
			c0.1-0.1,0.2-0.1,0.2-0.2c0.5-0.3,0.9-0.7,1.7-0.7c0.1,0,0.1,0,0.2,0c2.1,0.3,4.2,1.1,6.7,2l0.1,0c0.4,0.2,0.8,0.3,1.2,0.5
			c0.8,0.3,1.5,0.6,2.3,0.9c0.2,0,0.4,0.1,0.6,0.1c0.1,0,0.3,0.1,0.4,0.1c0,0,0,0,0,0c0,0,0,0,0,0c0,0,0,0,0,0c0,0,0,0,0,0
			c2.3,0.5,4.6-0.8,5.1-2.9c0.5-2.1-1-4.3-3.4-4.8c-0.1,0-0.3-0.1-0.4-0.1c-0.3-0.1-0.5-0.1-0.7-0.2c-0.9-0.2-1.7-0.2-2.5-0.2
			c-0.4,0-0.8,0-1.3-0.1l-0.1,0c-2.7-0.3-5-0.5-7-1.1c-0.7-0.3-1.3-1.1-1.6-1.5c0-0.1-0.1-0.1-0.1-0.2l0,0l-1.6-0.5
			c0.8-6.1,0.6-12.3-0.8-18.4c-1.4-6.1-3.9-11.8-7.4-17c0.2-0.2,0.5-0.5,0.8-0.7c0.3-0.2,0.5-0.4,0.6-0.5l0,0l0,0c0-0.1,0-0.2,0-0.3
			c0-0.6,0.1-1.3,0.7-1.9c1.5-1.4,3.5-2.7,5.8-4.1c0.4-0.2,0.8-0.4,1.1-0.6c0.7-0.4,1.4-0.7,2.1-1.3c0.2-0.1,0.4-0.3,0.6-0.5
			c0.1-0.1,0.2-0.2,0.3-0.2c1.9-1.5,2.3-4.1,1-5.8c-1.4-1.7-4-1.9-5.9-0.4c-0.1,0.1-0.2,0.1-0.2,0.2c-0.2,0.2-0.5,0.4-0.6,0.5
			c-0.7,0.6-1.2,1.2-1.8,1.8c-0.3,0.3-0.5,0.6-0.8,0.9l-0.1,0.1c-1.9,1.9-3.4,3.5-5.2,4.7c-0.7,0.4-1.6,0.3-2.2,0.3
			c-0.1,0-0.1,0-0.2,0l0,0l-1.5,1.1c-4.3-4.5-9.3-8.1-14.8-10.8c-5.6-2.7-11.6-4.4-17.8-5c0-0.5-0.1-1.4-0.1-1.7v0l0,0
			c-0.1-0.1-0.1-0.1-0.2-0.2c-0.5-0.4-0.9-0.8-1.1-1.7c-0.2-2.1,0.1-4.3,0.4-6.9l0-0.2c0.1-0.4,0.1-0.8,0.2-1.2
			c0.2-0.8,0.3-1.6,0.3-2.5c0-0.2,0-0.5,0-0.7c0-0.1,0-0.3,0-0.4c0-2.4-1.8-4.4-4-4.4s-4,2-4,4.4c0,0,0,0,0,0.1c0,0,0,0,0,0
			c0,0.1,0,0.2,0,0.3c0,0.2,0,0.5,0,0.7c0,0.9,0.2,1.7,0.3,2.5c0.1,0.4,0.2,0.8,0.2,1.2l0,0.1c0.3,2.7,0.6,5,0.4,7.1
			c-0.2,0.8-0.8,1.5-1.3,2l0,0l-0.1,1.6c-2.4,0.2-4.8,0.6-7.1,1.1c-9.9,2.2-18.8,7.3-25.7,14.7c-0.4-0.3-1.2-0.8-1.4-1l0,0l0,0
			c-0.1,0-0.2,0-0.3,0c-0.6,0.1-1.2,0.2-2-0.3c-1.7-1.2-3.4-2.8-5.2-4.7l-0.1-0.1c-0.3-0.3-0.6-0.6-0.8-0.9c-0.5-0.6-1-1.2-1.7-1.8
			c-0.2-0.2-0.4-0.3-0.6-0.5c-0.1-0.1-0.2-0.1-0.2-0.2c-0.8-0.6-1.8-1-2.8-1c0,0-0.1,0-0.1,0c-1.2,0-2.3,0.5-3,1.4
			c-0.7,0.8-0.9,1.9-0.7,3c0.2,1.1,0.8,2.1,1.7,2.8c0,0,0,0,0,0c0,0,0,0,0,0c0.1,0.1,0.2,0.1,0.2,0.2c0.2,0.2,0.4,0.3,0.6,0.5
			c0.7,0.5,1.4,0.9,2.1,1.3c0.4,0.2,0.7,0.4,1.1,0.6c2.3,1.4,4.3,2.7,5.8,4.1c0.5,0.6,0.7,1.5,0.8,2.1c0,0.1,0,0.1,0,0.2l0,0
			l1.2,1.1c-7,10.5-9.8,23.1-8,35.5l-1.6,0.5l0,0l0,0c-0.1,0.1-0.1,0.1-0.2,0.2c-0.4,0.6-1,1.3-1.5,1.5c-2,0.6-4.3,0.9-7,1.1l-0.1,0
			c-0.4,0-0.9,0.1-1.3,0.1c-0.8,0-1.6,0.1-2.5,0.2c-0.2,0-0.5,0.1-0.7,0.2c-0.1,0-0.2,0.1-0.3,0.1c0,0,0,0,0,0l0,0c0,0,0,0,0,0
			c0,0,0,0,0,0c-2.3,0.6-3.8,2.7-3.4,4.8c0.5,2.1,2.8,3.4,5.1,2.9c0,0,0,0,0,0c0,0,0,0,0,0c0,0,0,0,0,0c0,0,0,0,0,0
			c0.1,0,0.2,0,0.3-0.1c0.3-0.1,0.5-0.1,0.7-0.2c0.9-0.2,1.6-0.5,2.4-0.9c0.4-0.2,0.8-0.3,1.2-0.5l0.1,0c2.5-0.9,4.7-1.7,6.7-2
			c0.8-0.1,1.6,0.4,2.1,0.7c0.1,0,0.1,0.1,0.2,0.1l0,0l1.7-0.3c3.8,11.9,11.9,21.9,22.7,28.3l-0.7,1.7l0,0l0,0
			c0.2,0.6,0.5,1.5,0.4,2.2C121.9,265.6,120.6,267.6,119.1,270.1z M129.6,208.3c1.4,1.2,1.6,3.3,0.4,4.7c-0.5,0.6-1.1,1-1.8,1.2l0,0
			l0,0.1l-19.8,5.7c-0.5-4.5-0.2-9,0.8-13.4c1-4.3,2.6-8.4,4.9-12.1L129.6,208.3L129.6,208.3L129.6,208.3z M131,226.2L131,226.2
			L131,226.2c0.3,0,0.5,0,0.7,0c0,0,0,0,0,0c1.6,0,2.9,1.1,3.3,2.7c0.2,0.7,0.1,1.4-0.2,2.1l0,0l0.1,0.1l-7.8,19
			c-3.7-2.4-7-5.3-9.7-8.7c-2.8-3.5-5-7.4-6.6-11.7L131,226.2z M160.6,198.5L160.6,198.5c-1.5,1.1-3.6,0.8-4.7-0.6
			c-0.5-0.6-0.7-1.3-0.7-2l0,0l0,0l-1.2-20.6c4.4,0.5,8.7,1.8,12.7,3.8c4,1.9,7.6,4.5,10.8,7.6L160.6,198.5L160.6,198.5z
			 M142.8,195.9L142.8,195.9L142.8,195.9c-0.2,1.9-1.7,3.4-3.5,3.4c-0.7,0-1.4-0.2-2-0.7l0,0l0,0l-16.9-12
			c5.4-5.3,12.1-8.9,19.5-10.6c1.3-0.3,2.7-0.5,4.2-0.7L142.8,195.9z M145.9,236.4L145.9,236.4L145.9,236.4c0.6-1.1,1.7-1.8,2.9-1.8
			c0,0,0.1,0,0.1,0c0.5,0,1,0.1,1.5,0.3c0.7,0.3,1.2,0.8,1.5,1.5l0,0h0.1l10,18c-1.3,0.4-2.6,0.8-4,1.1c-7.4,1.7-15,1.3-22.2-1.1
			L145.9,236.4z M154.6,220.3L149,223l-5.7-2.7l-1.4-6.1l3.9-4.9h6.3l3.9,4.9L154.6,220.3z M163.1,231L163.1,231L163.1,231
			c-0.7-1.7,0-3.7,1.7-4.5c0.4-0.2,0.9-0.3,1.3-0.3c0.2,0,0.5,0,0.8,0.1l0,0l0,0l20.4,3.5c-1.5,4.2-3.7,8.1-6.4,11.6
			c-2.8,3.5-6.1,6.5-9.9,8.9L163.1,231z M179.9,242.5C179.9,242.5,179.9,242.5,179.9,242.5C179.9,242.5,179.9,242.5,179.9,242.5z
			 M168.3,208.2l15.3-13.7c2.3,3.8,4,8,5,12.3c1,4.3,1.3,8.8,0.9,13.1l-19.9-5.7l0-0.1l0,0c-1.8-0.5-2.9-2.3-2.4-4.1
			C167.4,209.3,167.8,208.7,168.3,208.2L168.3,208.2L168.3,208.2z M175.1,247.2C175.1,247.2,175.1,247.2,175.1,247.2
			C175.1,247.2,175.1,247.2,175.1,247.2z M172.5,249.2c0,0-0.1,0-0.1,0.1C172.4,249.3,172.5,249.2,172.5,249.2z M177.6,244.9
			C177.6,244.9,177.6,245,177.6,244.9C177.6,245,177.6,244.9,177.6,244.9z"/>
		<path class="st2" d="M48.4,344.1c-0.9-1.2-1.8-2.3-2.8-3.4c-1-1.1-1.9-2.1-2.8-2.9c1.8-1.8,3.4-3.4,4.9-5.1
			c1.5-1.7,3.1-3.4,4.6-5.2h-7.9c-0.4,0.5-0.9,1.1-1.5,1.8c-0.6,0.7-1.2,1.4-1.8,2.2c-0.7,0.7-1.3,1.5-2,2.3c-0.7,0.8-1.4,1.5-2,2.2
			v-19.6l-6.6,1.1v33.5h6.6v-10.2c0.7,0.6,1.5,1.3,2.2,2.2c0.8,0.9,1.5,1.8,2.2,2.7c0.7,0.9,1.3,1.9,1.9,2.8
			c0.6,0.9,1.2,1.8,1.6,2.5h7.6c-0.5-1-1.1-2.1-1.9-3.3C50.1,346.5,49.2,345.3,48.4,344.1z"/>
		<path class="st2" d="M69.1,345.6c-0.4,0.1-0.9,0.1-1.4,0.2c-0.5,0-1,0-1.5,0c-1.5,0-2.6-0.5-3.2-1.4s-0.8-2.5-0.8-4.6v-12.2h-6.6
			v13c0,1.6,0.2,3.1,0.5,4.4c0.3,1.3,0.9,2.5,1.6,3.5c0.8,1,1.8,1.7,3.1,2.2c1.3,0.5,3,0.8,5,0.8c2,0,3.8-0.1,5.6-0.4
			c1.8-0.3,3.2-0.6,4.4-0.9v-22.6h-6.6V345.6z"/>
		<path class="st2" d="M101.2,330.3c-0.9-1.1-1.9-1.9-3.2-2.4c-1.3-0.6-2.7-0.9-4.4-0.9c-0.9,0-1.8,0.1-2.6,0.3
			c-0.8,0.2-1.6,0.4-2.3,0.8v-11.7l-6.6,1.1v32.7c0.6,0.2,1.3,0.4,2,0.5c0.8,0.1,1.6,0.3,2.4,0.4c0.9,0.1,1.7,0.2,2.6,0.3
			c0.9,0.1,1.7,0.1,2.5,0.1c1.9,0,3.7-0.3,5.2-0.8c1.5-0.6,2.8-1.4,3.8-2.5c1-1.1,1.8-2.4,2.4-3.9c0.6-1.5,0.8-3.2,0.8-5.1
			c0-1.8-0.2-3.5-0.7-5C102.7,332.7,102,331.4,101.2,330.3z M95.7,344c-0.9,1.2-2.3,1.9-4.1,1.9c-0.6,0-1.1,0-1.6,0
			c-0.5-0.1-0.9-0.1-1.2-0.2v-12.1c0.4-0.3,1-0.5,1.6-0.7c0.7-0.2,1.4-0.3,2-0.3c3.1,0,4.7,2.1,4.7,6.4
			C97,341.1,96.6,342.7,95.7,344z"/>
		<path class="st2" d="M119,326.9c-1.4,0-2.8,0.3-4.2,0.8c-1.3,0.5-2.5,1.3-3.6,2.4c-1,1-1.9,2.3-2.5,3.9c-0.6,1.5-0.9,3.4-0.9,5.4
			h0c0,1.7,0.2,3.3,0.7,4.8c0.5,1.5,1.3,2.8,2.3,3.9c1,1.1,2.3,1.9,3.9,2.5c1.6,0.6,3.4,0.9,5.5,0.9c0.8,0,1.7,0,2.5-0.1
			c0.8-0.1,1.6-0.2,2.3-0.4c0.7-0.1,1.4-0.3,2-0.4c0.6-0.2,1.1-0.4,1.4-0.5l-0.9-5.4c-0.7,0.3-1.7,0.6-2.9,0.8
			c-1.2,0.2-2.3,0.3-3.6,0.3c-1.9,0-3.4-0.4-4.5-1.2c-1.1-0.8-1.8-1.9-1.9-3.3h15.1c0-0.4,0.1-0.8,0.1-1.2c0-0.5,0-0.9,0-1.3
			c0-3.9-1-6.9-2.9-9C125,327.9,122.3,326.9,119,326.9z M114.6,336.8c0.1-0.6,0.2-1.1,0.4-1.6c0.2-0.6,0.5-1.1,0.8-1.5
			c0.4-0.4,0.8-0.7,1.3-1c0.5-0.3,1.2-0.4,1.9-0.4c0.8,0,1.4,0.1,1.9,0.4c0.5,0.3,1,0.6,1.3,1c0.4,0.4,0.6,0.9,0.8,1.4
			c0.2,0.5,0.3,1.1,0.3,1.6H114.6z"/>
		<path class="st2" d="M147.3,327.3c-0.5-0.1-1-0.1-1.5-0.2c-0.5-0.1-0.9-0.1-1.3-0.1c-2,0-3.8,0.2-5.4,0.6c-1.6,0.4-3,0.7-4.2,1.2
			v22.2h6.6V333c0.3-0.1,0.7-0.2,1.3-0.2c0.6-0.1,1.1-0.1,1.5-0.1c0.9,0,1.8,0.1,2.6,0.3c0.8,0.1,1.5,0.3,2.1,0.4l1.1-5.5
			c-0.4-0.1-0.8-0.3-1.3-0.4C148.3,327.4,147.8,327.3,147.3,327.3z"/>
		<path class="st2" d="M171.8,329.9c-0.8-1-1.8-1.7-3.2-2.2c-1.3-0.5-3-0.8-4.9-0.8c-2,0-3.8,0.1-5.6,0.4c-1.8,0.3-3.2,0.6-4.4,0.9
			v22.6h6.6v-18.1c0.4-0.1,0.9-0.1,1.4-0.1c0.5-0.1,1-0.1,1.5-0.1c1.5,0,2.6,0.4,3.2,1.3c0.6,0.9,0.8,2.4,0.8,4.5v12.4h6.6v-13.2
			c0-1.6-0.2-3.1-0.5-4.4C173.1,332,172.5,330.9,171.8,329.9z"/>
		<path class="st2" d="M190.1,326.9c-1.4,0-2.8,0.3-4.2,0.8c-1.3,0.5-2.5,1.3-3.6,2.4c-1,1-1.9,2.3-2.5,3.9
			c-0.6,1.5-0.9,3.4-0.9,5.4c0,1.7,0.2,3.3,0.7,4.8c0.5,1.5,1.3,2.8,2.3,3.9c1,1.1,2.3,1.9,3.9,2.5c1.6,0.6,3.4,0.9,5.5,0.9
			c0.8,0,1.7,0,2.5-0.1c0.8-0.1,1.6-0.2,2.3-0.4c0.7-0.1,1.4-0.3,2-0.4c0.6-0.2,1.1-0.4,1.4-0.5l-0.9-5.4c-0.7,0.3-1.7,0.6-2.9,0.8
			c-1.2,0.2-2.3,0.3-3.6,0.3c-1.9,0-3.4-0.4-4.5-1.2c-1.1-0.8-1.8-1.9-1.9-3.3h15.1c0-0.4,0.1-0.8,0.1-1.2c0-0.5,0-0.9,0-1.3
			c0-3.9-1-6.9-2.9-9C196,327.9,193.4,326.9,190.1,326.9z M185.7,336.8c0.1-0.6,0.2-1.1,0.4-1.6c0.2-0.6,0.5-1.1,0.8-1.5
			c0.4-0.4,0.8-0.7,1.3-1c0.5-0.3,1.2-0.4,1.9-0.4c0.8,0,1.4,0.1,1.9,0.4c0.5,0.3,1,0.6,1.3,1c0.4,0.4,0.6,0.9,0.8,1.4
			c0.2,0.5,0.3,1.1,0.3,1.6H185.7z"/>
		<path class="st2" d="M218.3,345.7c-0.7,0.1-1.5,0.2-2.2,0.2c-1.5,0-2.5-0.4-3-1.2c-0.5-0.8-0.7-1.9-0.7-3.3V333h8v-5.5h-8v-6.9
			l-6.6,1.1h0v19.7c0,1.5,0.1,2.9,0.4,4.1c0.3,1.2,0.8,2.3,1.5,3.2c0.7,0.9,1.7,1.5,2.9,2c1.2,0.5,2.7,0.7,4.5,0.7
			c1.4,0,2.6-0.1,3.6-0.4c1-0.2,1.9-0.5,2.7-0.8l-0.9-5.2C219.7,345.3,219,345.5,218.3,345.7z"/>
		<path class="st2" d="M235,326.9c-1.4,0-2.8,0.3-4.2,0.8c-1.3,0.5-2.5,1.3-3.6,2.4c-1,1-1.9,2.3-2.5,3.9c-0.6,1.5-0.9,3.4-0.9,5.4
			c0,1.7,0.2,3.3,0.7,4.8c0.5,1.5,1.3,2.8,2.3,3.9c1,1.1,2.3,1.9,3.9,2.5c1.6,0.6,3.4,0.9,5.5,0.9c0.8,0,1.7,0,2.5-0.1
			c0.8-0.1,1.6-0.2,2.3-0.4c0.7-0.1,1.4-0.3,2-0.4c0.6-0.2,1.1-0.4,1.4-0.5l-0.9-5.4c-0.7,0.3-1.7,0.6-2.9,0.8
			c-1.2,0.2-2.3,0.3-3.6,0.3c-1.9,0-3.4-0.4-4.5-1.2c-1.1-0.8-1.8-1.9-1.9-3.3h15.1c0-0.4,0.1-0.8,0.1-1.2c0-0.5,0-0.9,0-1.3
			c0-3.9-1-6.9-2.9-9C240.9,327.9,238.3,326.9,235,326.9z M230.5,336.8c0.1-0.6,0.2-1.1,0.4-1.6c0.2-0.6,0.5-1.1,0.8-1.5
			c0.4-0.4,0.8-0.7,1.3-1c0.5-0.3,1.2-0.4,1.9-0.4c0.8,0,1.4,0.1,1.9,0.4c0.5,0.3,1,0.6,1.3,1c0.4,0.4,0.6,0.9,0.8,1.4
			c0.2,0.5,0.3,1.1,0.3,1.6H230.5z"/>
		<path class="st2" d="M266,339.9c-0.5-0.6-1.3-1.2-2.2-1.7c-0.9-0.5-2.2-1.1-3.6-1.6c-0.7-0.3-1.3-0.5-1.8-0.7
			c-0.4-0.2-0.8-0.4-1.1-0.6c-0.3-0.2-0.4-0.4-0.5-0.6c-0.1-0.2-0.1-0.4-0.1-0.7c0-1.2,1-1.7,3.1-1.7c1.1,0,2.1,0.1,3,0.3
			c0.9,0.2,1.8,0.4,2.5,0.7l1.2-5.2c-0.8-0.3-1.8-0.6-3.1-0.8c-1.3-0.3-2.7-0.4-4.1-0.4c-2.9,0-5.1,0.6-6.7,1.9
			c-1.6,1.3-2.4,3-2.4,5.2c0,1.1,0.2,2.1,0.5,2.9c0.3,0.8,0.8,1.5,1.4,2.1c0.6,0.6,1.3,1.1,2.1,1.5c0.9,0.4,1.8,0.8,2.8,1.2
			c1.3,0.5,2.3,1,3,1.4c0.7,0.4,1,0.8,1,1.4c0,0.7-0.3,1.1-0.8,1.4c-0.5,0.2-1.4,0.4-2.6,0.4c-1.2,0-2.3-0.1-3.5-0.4
			c-1.2-0.3-2.3-0.6-3.5-1.1l-1.1,5.4c0.5,0.2,1.5,0.5,2.8,0.9c1.4,0.4,3.1,0.5,5.2,0.5c3.2,0,5.6-0.6,7.3-1.8
			c1.8-1.2,2.6-2.9,2.6-5.3c0-1-0.1-1.8-0.4-2.6C266.9,341.2,266.6,340.5,266,339.9z"/>
	</g>
</g>
</svg>
