<svg id="Layer_1" data-name="Layer 1" xmlns="http://www.w3.org/2000/svg" viewBox="0 0 3918.11 465.32"><defs><style>.cls-1{fill:#00aae1;}.cls-2{fill:#383838;}</style></defs><path class="cls-1" d="M933.2,384.83c0,6.3-3.27,9.41-9.9,9.41H870.66a17.93,17.93,0,0,1-12.29-3.51,26.73,26.73,0,0,1-6.14-9.65l-18.75-54.64H717.18L698.35,383a20.07,20.07,0,0,1-4.47,8,12.64,12.64,0,0,1-9.65,3.27h-53.6a6.7,6.7,0,0,1-8-7.49,12.93,12.93,0,0,1,1-5.67L735.28,79.39a27.25,27.25,0,0,1,5.91-8.46,14.11,14.11,0,0,1,10.13-3.35h48.42a16,16,0,0,1,17,10.37L931.52,377.81A25,25,0,0,1,933.2,384.83ZM813.54,270l-29.67-92.69L775.41,150h-1c-1.27,4.38-2.55,8.85-4,13.4s-2.87,9.33-4.46,14.36L736.32,270Z"/><path class="cls-1" d="M1402.89,394.24a31.85,31.85,0,0,1-12.21-2.15,19,19,0,0,1-8.93-8l-65.41-100.27h-29.2v97.48a16,16,0,0,1-2.79,9.41,11.71,11.71,0,0,1-9.81,3.51h-49q-13.17,0-13.17-13.64v-297a19.28,19.28,0,0,1,3-12.69,17.06,17.06,0,0,1,12.44-3.35h71.79q15.08,0,31.11,1a182.68,182.68,0,0,1,31.91,4.71,136.72,136.72,0,0,1,29.44,10.84,87.82,87.82,0,0,1,24.73,18.83,94.31,94.31,0,0,1,19.06,32.47,120.41,120.41,0,0,1-7.34,94.13,96.43,96.43,0,0,1-42.35,39.88v.88l77.21,110.16a15.11,15.11,0,0,1,2.8,8,5,5,0,0,1-2.4,4.71,9.48,9.48,0,0,1-5.1,1.43Zm-36.7-219.76a54.22,54.22,0,0,0-4.46-23.54A39.92,39.92,0,0,0,1349,135.39a51.36,51.36,0,0,0-19.3-8.7,105.29,105.29,0,0,0-23.93-2.63h-18.35v103.7H1311a58.27,58.27,0,0,0,40.68-13.4,50.8,50.8,0,0,0,14.52-39.88Z"/><path class="cls-1" d="M2050.07,394.24c-6.3,0-10.37-1.59-12.21-4.7a32,32,0,0,1-3.35-14.6l-5.18-161.46h-.88l-71.08,170.39a14.27,14.27,0,0,1-7.1,8.7,23.91,23.91,0,0,1-8.93,1.67H1924a26.33,26.33,0,0,1-10.85-1.91,18.69,18.69,0,0,1-8-8.93l-81.44-169.92h-1l-2.79,166.17c0,6.62-1.44,10.69-4.23,12.28a25.14,25.14,0,0,1-11.8,2.31h-38.61c-10.93,0-16-5-16-15.07L1762,82.66a16,16,0,0,1,4.22-11.73,15.23,15.23,0,0,1,10.37-3.35h33.91a19.57,19.57,0,0,1,12,3.11,27.71,27.71,0,0,1,7.26,9.66L1933.52,293h1l94.13-212.67a23.86,23.86,0,0,1,7-9.42,19.48,19.48,0,0,1,12.28-3.35h32.87a14.41,14.41,0,0,1,9.89,2.64,13.21,13.21,0,0,1,3.35,9.17l15.48,300.26q1,14.6-12.69,14.59Z"/><path class="cls-1" d="M2695.73,384.83c0,6.3-3.27,9.41-9.81,9.41h-52.73a17.48,17.48,0,0,1-12.2-3.51,24.82,24.82,0,0,1-6.14-9.65L2596,326.44H2479.71L2461,383a21.18,21.18,0,0,1-4.47,8,12.8,12.8,0,0,1-9.33,3.27h-53.69a6.61,6.61,0,0,1-7.5-7.49,13.07,13.07,0,0,1,.88-5.67L2498.54,79.39a27.22,27.22,0,0,1,5.9-8.46,14.32,14.32,0,0,1,10.13-3.35h48.5A16,16,0,0,1,2580,78l114.47,299.86A22.15,22.15,0,0,1,2695.73,384.83ZM2576.08,270l-30-92.69L2537.63,150h-1c-1.2,4.38-2.55,8.85-4,13.4s-2.87,9.33-4.46,14.36L2498.54,270Z"/><path class="cls-1" d="M3258.68,231.91a181,181,0,0,1-13.4,72.91,139.74,139.74,0,0,1-36.46,50.58,145.59,145.59,0,0,1-54.4,29.43,230.83,230.83,0,0,1-67.09,9.41H2991.6a20.86,20.86,0,0,1-11.08-2.55c-2.64-1.75-4-5.74-4-12v-297a17.5,17.5,0,0,1,3-11.49,16.43,16.43,0,0,1,12.52-3.59h74.35a361.13,361.13,0,0,1,79.29,8,156.19,156.19,0,0,1,60.71,27,124,124,0,0,1,38.85,50.58A198.62,198.62,0,0,1,3258.68,231.91Zm-79.77-.48q0-52.73-25.69-76t-75.86-23.29H3051V330.43h33.43a135.71,135.71,0,0,0,34.38-4.47A79.76,79.76,0,0,0,3149.07,310a77.07,77.07,0,0,0,21.46-30.4,128.14,128.14,0,0,0,8.14-48.18Z"/><path class="cls-1" d="M3817.79,384.83c0,6.3-3.27,9.41-9.89,9.41h-52.49a17.89,17.89,0,0,1-12.28-3.51,26.75,26.75,0,0,1-6.15-9.65l-18.82-54.64H3601.77L3583,383a21.18,21.18,0,0,1-4.47,8,12.64,12.64,0,0,1-9.65,3.27h-53.61a6.7,6.7,0,0,1-7.58-7.49,12.93,12.93,0,0,1,1-5.67L3620.28,79.39a27.22,27.22,0,0,1,5.9-8.46,14.13,14.13,0,0,1,10.13-3.35h48.42a16,16,0,0,1,17,10.37l114.4,299.86A25,25,0,0,1,3817.79,384.83ZM3698.13,270l-29.67-92.69L3659.69,150h-1c-1.28,4.38-2.55,8.85-4,13.4s-2.95,9.33-4.47,14.36L3620.6,270Z"/><polygon points="306.73 117.95 242.55 195.79 202.96 207.34 307.22 46.64 411.49 207.34 371.9 195.79 306.73 117.95"/><polygon points="193.05 293.69 128.87 371.52 89.27 383.08 193.54 222.37 297.81 383.08 258.22 371.52 193.05 293.69"/><polygon points="420.17 293.69 355.98 371.52 316.39 383.08 420.66 222.37 524.93 383.08 485.34 371.52 420.17 293.69"/><path class="cls-2" d="M306.73,159.76l-47,44.74s19.16,37.64,47,50.88c27.79-13.24,47-50.88,47-50.88Z"/><path class="cls-2" d="M193.54,335.27l-47,44.74s19.17,37.64,47,50.88c27.79-13.24,47-50.88,47-50.88Z"/><path class="cls-2" d="M420.66,335.27l-47,44.74s19.17,37.64,47,50.88c27.79-13.24,47-50.88,47-50.88Z"/></svg>