<svg xmlns="http://www.w3.org/2000/svg" role="img" viewBox="-4.20 -4.20 296.40 246.15"><style>svg {enable-background:new 0 0 288 239}</style><style>.st0{fill:#446ca9}.st1{fill:#76c4d5}.st2{fill:#375194}.st3{fill:#5b7db3}.st4{fill:#303f7f}</style><path d="M57.1 219.5h1.8l7.6 16.8h-2l-2-4.4h-9.1l-2 4.4h-1.9l7.6-16.8zm4.7 10.7l-3.8-8.5-3.8 8.5h7.6zm8.9-10.6h1.9l6.1 9.1 6.1-9.1h1.9v16.7h-1.9v-13.5l-6.1 8.9h-.1l-6.1-8.9v13.5h-1.8v-16.7zm21.6 0h7.1c1.9 0 3.4.5 4.4 1.5.7.7 1.1 1.6 1.1 2.7 0 2.2-1.3 3.3-2.6 3.9 2 .6 3.6 1.7 3.6 4 0 2.9-2.4 4.5-6 4.5h-7.4v-16.6zm10.6 4.4c0-1.6-1.3-2.7-3.7-2.7h-5.1v5.7H99c2.4 0 3.9-1 3.9-3zm-3.5 4.7h-5.3v5.9h5.6c2.5 0 4.1-1.1 4.1-3 .1-1.9-1.5-2.9-4.4-2.9zm16.9-9.2h1.8l7.6 16.8h-2l-2-4.4h-9.1l-2 4.4h-1.9l7.6-16.8zm4.7 10.7l-3.8-8.5-3.8 8.5h7.6zm7.5 3.6l1.2-1.4c1.7 1.6 3.4 2.4 5.7 2.4 2.2 0 3.7-1.2 3.7-2.8 0-1.5-.8-2.4-4.3-3.2-3.8-.8-5.6-2.1-5.6-4.8 0-2.6 2.3-4.5 5.5-4.5 2.4 0 4.2.7 5.9 2l-1.1 1.5c-1.5-1.3-3.1-1.8-4.8-1.8-2.2 0-3.5 1.2-3.5 2.7 0 1.6.9 2.5 4.5 3.2 3.7.8 5.4 2.2 5.4 4.7 0 2.9-2.4 4.7-5.7 4.7-2.7 0-4.9-.9-6.9-2.7zm15.9 0l1.2-1.4c1.7 1.6 3.4 2.4 5.7 2.4 2.2 0 3.7-1.2 3.7-2.8 0-1.5-.8-2.4-4.3-3.2-3.8-.8-5.6-2.1-5.6-4.8 0-2.6 2.3-4.5 5.5-4.5 2.4 0 4.2.7 5.9 2l-1.1 1.5c-1.5-1.3-3.1-1.8-4.8-1.8-2.2 0-3.5 1.2-3.5 2.7 0 1.6.9 2.5 4.5 3.2 3.7.8 5.4 2.2 5.4 4.7 0 2.9-2.4 4.7-5.7 4.7-2.7 0-4.9-.9-6.9-2.7zm23.1-14.3h1.8l7.6 16.8h-2l-2-4.4h-9.1l-2 4.4h-1.9l7.6-16.8zm4.6 10.7l-3.8-8.5-3.8 8.5h7.6zm9-10.6h5.8c5.2 0 8.8 3.6 8.8 8.3 0 4.7-3.6 8.3-8.8 8.3h-5.8v-16.6zm1.9 1.7v13.2h3.9c4.2 0 6.9-2.9 6.9-6.5 0-3.7-2.7-6.6-6.9-6.6H183zm16.9 6.7c0-4.6 3.4-8.7 8.5-8.7s8.5 4 8.5 8.6-3.4 8.6-8.5 8.6-8.5-3.9-8.5-8.5zm15 0c0-3.8-2.8-6.9-6.6-6.9s-6.5 3-6.5 6.8 2.8 6.9 6.6 6.9 6.5-3 6.5-6.8zm6.9-8.4h7.2c2 0 3.7.6 4.7 1.7.8.8 1.3 2 1.3 3.3 0 2.8-1.9 4.4-4.5 4.9l5.1 6.8h-2.3l-4.8-6.5h-4.8v6.5h-1.9v-16.7zm7 8.5c2.5 0 4.3-1.3 4.3-3.4 0-2-1.6-3.3-4.3-3.3h-5.1v6.8h5.1z" class="st0"/><g id="XMLID_1284_"><path id="XMLID_552_" d="M94.1 187.6c1.5 0 2.7-.6 3.7-1.8l2 2c-1.6 1.8-3.4 2.6-5.5 2.6s-3.9-.7-5.2-2c-1.4-1.3-2.1-3-2.1-5.1 0-2 .7-3.7 2.1-5.1 1.4-1.4 3.1-2 5.1-2 2.3 0 4.1.9 5.7 2.6L98 181c-1-1.2-2.2-1.8-3.6-1.8-1.2 0-2.1.4-3 1.1-.8.8-1.2 1.8-1.2 3 0 1.3.4 2.3 1.2 3.1.6.8 1.6 1.2 2.7 1.2z"/><path id="XMLID_550_" d="M102.1 190.3v-13.7h3.1v11h5.8v2.7h-8.9z"/><path id="XMLID_547_" d="M124.4 188.4c-1.4 1.4-3.1 2-5.1 2-2 0-3.7-.7-5.1-2-1.4-1.4-2.1-3-2.1-5.1 0-2 .7-3.7 2.1-5.1 1.4-1.4 3.1-2 5.1-2 2 0 3.7.7 5.1 2 1.4 1.4 2.1 3 2.1 5.1 0 2.1-.7 3.7-2.1 5.1zm-1-5.1c0-1.2-.4-2.3-1.2-3.1-.8-.9-1.8-1.3-2.9-1.3-1.1 0-2.1.4-2.9 1.3-.8.9-1.2 1.9-1.2 3.1 0 1.2.4 2.3 1.2 3.1.8.9 1.7 1.3 2.9 1.3 1.1 0 2.1-.4 2.9-1.3.8-.8 1.2-1.8 1.2-3.1z"/><path id="XMLID_545_" d="M132.7 186.7c.5.6 1.2 1 2.1 1 .9 0 1.5-.3 2.1-1 .5-.6.8-1.5.8-2.6v-7.6h3.1v7.7c0 2-.6 3.5-1.6 4.6-1.1 1.1-2.5 1.6-4.2 1.6-1.7 0-3.1-.5-4.2-1.6s-1.7-2.6-1.7-4.6v-7.7h3.1v7.6c-.2 1.1 0 2 .5 2.6z"/><path id="XMLID_542_" d="M154.3 178.4c1.3 1.2 2 2.9 2 5s-.6 3.8-1.9 5.1c-1.3 1.2-3.2 1.9-5.8 1.9h-4.7v-13.7h4.8c2.4-.1 4.3.5 5.6 1.7zm-2.2 8.1c.8-.7 1.1-1.7 1.1-3.1 0-1.3-.4-2.4-1.1-3.1-.8-.7-1.9-1.1-3.5-1.1h-1.7v8.3h1.9c1.5.1 2.5-.3 3.3-1z"/><path id="XMLID_540_" d="M173.7 176.6h3.1v13.7h-3.1l-6.5-8.6v8.6h-3.1v-13.7h2.9l6.7 8.8v-8.8z"/><path id="XMLID_537_" d="M189.9 190.3l-1.3-3h-5.8l-1.3 3h-3.3l5.9-13.7h3l5.9 13.7h-3.1zm-4.1-9.7l-1.7 4h3.4l-1.7-4z"/><path id="XMLID_535_" d="M199.6 179.2v11.1h-3.1v-11.1h-3.9v-2.6h10.8v2.6h-3.8z"/><path id="XMLID_533_" d="M205.7 176.6h3.1v13.7h-3.1v-13.7z"/><path id="XMLID_531_" d="M217.2 185.3l3.5-8.7h3.3l-5.5 13.7h-2.6l-5.5-13.7h3.3l3.5 8.7z"/><path id="XMLID_529_" d="M235.6 176.6v2.7h-6.8v2.8h6.1v2.6h-6.1v2.8h7v2.7h-10.1v-13.7h9.9z"/><path id="XMLID_527_" d="M90.5 202c.8 0 1.5-.3 2.1-1l1.1 1.1c-.9 1-1.9 1.5-3.1 1.5-1.2 0-2.2-.4-2.9-1.1-.8-.7-1.1-1.7-1.1-2.8 0-1.1.4-2.1 1.2-2.9.8-.8 1.7-1.1 2.9-1.1 1.3 0 2.3.5 3.2 1.4l-1.1 1.2c-.5-.7-1.2-1-2-1-.6 0-1.2.2-1.7.6-.5.4-.7 1-.7 1.7s.2 1.3.6 1.7c.4.5.9.7 1.5.7z"/><path id="XMLID_524_" d="M101.4 202.4c-.8.8-1.7 1.1-2.9 1.1-1.1 0-2.1-.4-2.9-1.1-.8-.8-1.2-1.7-1.2-2.8s.4-2.1 1.2-2.8c.8-.8 1.7-1.1 2.9-1.1 1.1 0 2.1.4 2.9 1.1.8.8 1.2 1.7 1.2 2.8s-.5 2.1-1.2 2.8zm-.6-2.8c0-.7-.2-1.3-.7-1.8-.4-.5-1-.7-1.6-.7-.6 0-1.2.2-1.6.7-.4.5-.7 1.1-.7 1.8s.2 1.3.7 1.7c.4.5 1 .7 1.6.7.6 0 1.2-.2 1.6-.7.5-.4.7-1 .7-1.7z"/><path id="XMLID_522_" d="M110.9 198.6l-2.1 4.2h-1l-2.1-4.2v4.8H104v-7.7h2.3l2 4.2 2-4.2h2.3v7.7h-1.7v-4.8z"/><path id="XMLID_519_" d="M119.8 196.5c.5.5.8 1.2.8 2.1 0 .9-.3 1.6-.8 2.1-.6.4-1.4.7-2.5.7h-1v2.1h-1.7v-7.7h2.7c1.1 0 1.9.2 2.5.7zm-1.3 3c.2-.2.3-.6.3-1s-.1-.8-.4-.9c-.3-.2-.7-.3-1.2-.3h-1v2.6h1.2c.5 0 .9-.2 1.1-.4z"/><path id="XMLID_517_" d="M124 201.5c.3.4.7.5 1.2.5s.9-.2 1.1-.5c.3-.4.4-.8.4-1.5v-4.2h1.7v4.3c0 1.1-.3 2-.9 2.6-.6.6-1.4.9-2.4.9s-1.8-.3-2.4-.9c-.6-.6-.9-1.5-.9-2.6v-4.3h1.7v4.2c0 .7.2 1.1.5 1.5z"/><path id="XMLID_515_" d="M133.5 197.3v6.2h-1.7v-6.2h-2.2v-1.5h6.1v1.5h-2.2z"/><path id="XMLID_513_" d="M136.9 195.8h1.7v7.7h-1.7v-7.7z"/><path id="XMLID_511_" d="M145.9 195.8h1.7v7.7h-1.7l-3.7-4.8v4.8h-1.7v-7.7h1.6l3.8 5v-5z"/><path id="XMLID_509_" d="M154.5 199.6h1.7v2.7c-.8.9-1.8 1.3-3.2 1.3-1.1 0-2.1-.4-2.8-1.1-.8-.7-1.1-1.7-1.1-2.8 0-1.1.4-2.1 1.2-2.9.8-.8 1.7-1.1 2.8-1.1 1.1 0 2.1.4 2.9 1.1l-1 1.2c-.3-.3-.7-.5-1-.6-.3-.1-.6-.2-.9-.2-.7 0-1.2.2-1.7.7-.4.4-.7 1-.7 1.8 0 .7.2 1.3.6 1.7.4.4.9.7 1.5.7s1.1-.1 1.5-.3v-2.2z"/><path id="XMLID_507_" d="M165.9 195.8v1.5h-3.6v1.7h3.4v1.5h-3.4v3h-1.7v-7.7h5.3z"/><path id="XMLID_504_" d="M173.8 202.4c-.8.8-1.7 1.1-2.9 1.1-1.1 0-2.1-.4-2.9-1.1-.8-.8-1.2-1.7-1.2-2.8s.4-2.1 1.2-2.8c.8-.8 1.7-1.1 2.9-1.1 1.1 0 2.1.4 2.9 1.1.8.8 1.2 1.7 1.2 2.8s-.4 2.1-1.2 2.8zm-.5-2.8c0-.7-.2-1.3-.7-1.8-.4-.5-1-.7-1.6-.7-.6 0-1.2.2-1.6.7-.4.5-.7 1.1-.7 1.8s.2 1.3.7 1.7c.4.5 1 .7 1.6.7.6 0 1.2-.2 1.6-.7.4-.4.7-1 .7-1.7z"/><path id="XMLID_502_" d="M178.5 201.5c.3.4.7.5 1.2.5s.9-.2 1.1-.5c.3-.4.4-.8.4-1.5v-4.2h1.7v4.3c0 1.1-.3 2-.9 2.6-.6.6-1.4.9-2.4.9s-1.8-.3-2.4-.9c-.6-.6-.9-1.5-.9-2.6v-4.3h1.7v4.2c.1.7.2 1.1.5 1.5z"/><path id="XMLID_500_" d="M190.1 195.8h1.7v7.7h-1.7l-3.7-4.8v4.8h-1.7v-7.7h1.6l3.8 5v-5z"/><path id="XMLID_497_" d="M199.6 196.8c.7.7 1.1 1.6 1.1 2.8 0 1.2-.4 2.1-1.1 2.8-.7.7-1.8 1-3.3 1h-2.6v-7.7h2.7c1.4.1 2.5.4 3.2 1.1zm-1.3 4.6c.4-.4.6-1 .6-1.7 0-.8-.2-1.3-.6-1.7-.4-.4-1.1-.6-1.9-.6h-1v4.7h1.1c.8-.1 1.4-.3 1.8-.7z"/><path id="XMLID_494_" d="M207.4 203.5l-.7-1.7h-3.2l-.7 1.7H201l3.3-7.7h1.7l3.3 7.7h-1.9zm-2.3-5.4l-1 2.2h1.9l-.9-2.2z"/><path id="XMLID_492_" d="M212.9 197.3v6.2h-1.7v-6.2H209v-1.5h6.1v1.5h-2.2z"/><path id="XMLID_490_" d="M216.3 195.8h1.7v7.7h-1.7v-7.7z"/><path id="XMLID_487_" d="M226.4 202.4c-.8.8-1.7 1.1-2.9 1.1-1.1 0-2.1-.4-2.9-1.1-.8-.8-1.2-1.7-1.2-2.8s.4-2.1 1.2-2.8c.8-.8 1.7-1.1 2.9-1.1 1.1 0 2.1.4 2.9 1.1.8.8 1.2 1.7 1.2 2.8s-.5 2.1-1.2 2.8zm-.6-2.8c0-.7-.2-1.3-.7-1.8-.4-.5-1-.7-1.6-.7s-1.2.2-1.6.7c-.4.5-.7 1.1-.7 1.8s.2 1.3.7 1.7c.4.5 1 .7 1.6.7s1.2-.2 1.6-.7c.5-.4.7-1 .7-1.7z"/><path id="XMLID_485_" d="M234.4 195.8h1.7v7.7h-1.7l-3.7-4.8v4.8H229v-7.7h1.6l3.8 5v-5z"/></g><g id="XMLID_1279_"><path id="XMLID_1283_" d="M54 194.4h-4.2v9.8h9.9V200H54z" class="st0"/><path id="XMLID_1282_" d="M75.1 194.4v5.6h-5.6v4.2h9.9v-9.8h-4.3z" class="st0"/><path id="XMLID_1281_" d="M49.8 184.5h4.3-.1v-5.6h5.7v-4.2h-9.9z" class="st0"/><path id="XMLID_1280_" d="M69.5 174.7v4.2h5.6v5.6h4.3v-9.8z" class="st0"/></g><g id="XMLID_1274_"><path id="XMLID_1278_" d="M69 184.5l-5.6-5.6h6.1v-4.2h-9.8v4.2l5.6 5.6z" class="st1"/><path id="XMLID_1277_" d="M63.9 194.4h-3.7l4.6 4.6 1 1h-6.1v4.2h9.8V200l-2.8-2.8z" class="st1"/><path id="XMLID_1276_" d="M75.1 184.5v6.2l-.9-1-4.7-4.7v3.8l2.8 2.8 2.8 2.8h4.3v-9.9z" class="st1"/><path id="XMLID_1275_" d="M59.7 190.1l-5.6-5.6h-4.3v9.9H54v-6.2l5.7 5.7z" class="st1"/></g><path d="M8.8 83.2c-2.2 3.6-3.9 7.4-5.1 11.5l24-7-18.9-4.5z" class="st2"/><path d="M28.1 87.5l.6-.2-.2-22.6C20.5 68.9 13.7 75.3 9 83c0 .1-.1.1-.1.2l18.9 4.5.3-.2z" class="st3"/><path d="M64 77l.5.1-.1-16.5c-4-1-8.3-1.6-12.6-1.6-8.4 0-16.3 2.1-23.2 5.7l.2 22.6L64 77z" class="st0"/><path d="M65.1 77.3l43.3 10.3.6-.2-.2-22.9-.3-35.1-23.3-5.5c-9.2 10.3-15.3 23.5-16.6 38-1.4-.5-2.8-.9-4.2-1.3l.1 16.5.6.2z" class="st3"/><path d="M110 82.7c0-4 3.3-7.3 7.3-7.3s7.3 3.3 7.3 7.3v.2l19.8-5.8.5.1-.5-58.2-28.3 8.3-7.4 2.2.3 35.1.2 22.9 2.2-.6c-1-1.3-1.4-2.7-1.4-4.2z" class="st0"/><path d="M115.9 27.2l28.3-8.3v-.1l25.6-7.5c-10.1-6.2-22.1-9.8-34.8-9.8-6.7 0-13.1 1-19.2 2.8-11.9 3.6-22.5 10.4-30.6 19.5l23.3 5.5 7.4-2.1z" class="st4"/><path d="M145.3 77.3l16.5 3.9c.7-3.3 3.6-5.8 7.1-5.8 4 0 7.3 3.3 7.3 7.3 0 .7-.1 1.3-.3 1.9l12.6 3 .6-.2-.1-22.9-.3-35.1-44.3-10.5h-.2v.1l.5 58.2.6.1z" class="st3"/><path d="M189 64.5l.2 22.9L224.5 77l-.3-38.8c-8.8-.1-19.8 2.9-26.8 6.3-.3-.9-.7-1.7-1-2.6-1.9-4.5-4.4-8.8-7.2-12.8l-.4.1.2 35.3z" class="st0"/><path d="M144.4 18.8l44.3 10.5.4-.1c-5.2-7.2-11.7-13.2-19.2-17.9 0 0-.1 0-.1-.1l-25.6 7.5.2.1z" class="st2"/><path d="M21 113.2l-19.5-4.6v.6c0 15.9 7.4 30.1 19 39.3.3.2.5.4.8.6v-.8l-.3-35.1z" class="st3"/><path d="M28.5 111l-7.4 2.2.3 35.1v.8c8.4 6.4 18.8 10.2 30.1 10.2h5.9l-.5-56.7-28.4 8.4z" class="st0"/><path d="M28.5 111l28.3-8.3v-.1l51.2-15 .4-.1-43.3-10.2-.6-.1-.5-.2-35.3 10.4-.6.2-.4.1-24 7v.1c-1.3 4.4-2 9-2.1 13.8l19.5 4.6 7.4-2.2z" class="st4"/><path d="M101.3 113.2L57 102.7l-.2-.1v.1l.5 56.7h44.4l-.1-11.1z" class="st3"/><path d="M112.1 110l-3.4 1-7.4 2.2.3 35.1.1 11.1h35.9l-.2-27c-12.1-2.2-21.8-10.9-25.3-22.4z" class="st0"/><path d="M144.3 100.5l43.9-12.9.4-.1-12.6-3c0 .1 0 .1-.1.2-.9 3-3.7 5.2-6.9 5.2-4 0-7.3-3.3-7.3-7.3 0-.4.1-.8.1-1.3v-.2l-16.5-3.9-.6-.1-.5-.1-19.8 5.8c0 .2 0 .4-.1.6-.4 3.7-3.4 6.6-7.2 6.6-2.3 0-4.4-1.1-5.7-2.8-.1-.2-.3-.3-.4-.4l-2.2.6-.6.2-.4.1-51.2 15h.2l44.3 10.5 7.4-2.2 3.4-1c-.9-3-1.4-6.2-1.4-9.5h33.8z" class="st2"/><path d="M181.5 113.2l-7.9-1.9c-4.5 12.6-16.4 21.6-30.5 21.6-2 0-3.9-.2-5.8-.5l.2 27h44.4l-.1-11.1-.3-35.1z" class="st3"/><path d="M189 111l-7.4 2.2.3 35.1.1 11.1h35.3l-.5-56.5L189 111z" class="st0"/><path d="M224.5 77.4v-.3l-35.2 10.3-.6.2-.4.1-43.9 12.9h31.2c0 3.8-.7 7.4-1.9 10.8l7.9 1.9 7.4-2.2 27.8-8.1v-.2l51.2-15-43-10.2-.5-.2z" class="st4"/><path d="M224.5 77.4l.4.1 43 10.2.7-.2.4-.1-.2-22.7-.1-10.1c-9.3-8.6-22.8-14.6-42.3-16.2-.7-.1-1.5-.1-2.2-.1l.3 38.8v.3z" class="st3"/><path d="M269 87.4l15.5-4.5c-1.7-7.2-4.5-14.1-8.7-20.2-2-2.9-4.3-5.6-7-8l.1 10.1.1 22.6z" class="st0"/><path d="M261.6 148.4l-.3-35.3-44.1-10.4-.4-.1v.2l.5 56.5c1.5-.1 3.8-.1 7 0h1.4c2.8.1 5.4.1 7.8 0 17-.4 24.6-3.2 27.5-4.7.3-.2.6-.3.8-.4l-.2-5.8z" class="st3"/><path d="M261.3 113.2l.3 35.3.1 5.8c.4-.2.6-.4.7-.5l.1-.1c9.4-6.1 21.3-18 23.6-40.6.2-2.4.4-4.9.5-7.4l-17.2 5-8.1 2.5z" class="st0"/><path d="M284.6 83.3c0-.2-.1-.3-.1-.5L269 87.4l-.4.1-.7.2-51.2 15 .4.1 44.1 10.4 8-2.3 17.2-5c.3-7.5-.2-15.2-1.8-22.6z" class="st2"/><path fill="#fff" d="M169 75.4c-3.5 0-6.5 2.5-7.1 5.8v.2c-.1.4-.1.8-.1 1.3 0 4 3.3 7.3 7.3 7.3 3.3 0 6-2.2 6.9-5.2 0-.1 0-.1.1-.2.2-.6.3-1.2.3-1.9-.1-4.1-3.4-7.3-7.4-7.3zm-51.8 0c-4 0-7.3 3.3-7.3 7.3 0 1.5.5 2.9 1.2 4.1.1.2.2.3.4.4 1.3 1.7 3.4 2.8 5.7 2.8 3.8 0 6.8-2.9 7.2-6.6 0-.2.1-.4.1-.6v-.2c0-4-3.2-7.2-7.3-7.2zm27.4 25.1h-33.9c0 3.3.5 6.5 1.4 9.5 3.5 11.5 13.2 20.2 25.2 22.4 1.9.3 3.8.5 5.8.5 14.1 0 26.1-9 30.5-21.6 1.2-3.4 1.9-7 1.9-10.8h-30.9z"/></svg>