<?xml version="1.0" encoding="UTF-8"?><svg xmlns="http://www.w3.org/2000/svg" xmlns:xlink="http://www.w3.org/1999/xlink" viewBox="0 0 416.62 145.31"><defs><style>.e{fill:url(#d);}.f{fill:#006652;}.g{fill:#fff;}.h{fill:#bcbcbc;}.i{fill:#222;}</style><linearGradient id="d" x1="18.18" y1="18.97" x2="142.28" y2="140.28" gradientTransform="matrix(1, 0, 0, 1, 0, 0)" gradientUnits="userSpaceOnUse"><stop offset="0" stop-color="#00c6a0"/><stop offset="1" stop-color="#009e80"/></linearGradient></defs><g id="a"/><g id="b"><g id="c"><polygon class="e" points="74.53 0 14.76 28.78 0 93.45 41.36 145.31 107.69 145.31 149.05 93.45 134.29 28.78 74.53 0"/><circle class="f" cx="134.3" cy="26.79" r="26.79"/><g><path class="i" d="M196.89,25.42c3.33-.06,6.54,1.27,8.85,3.67,2.36,2.3,3.68,5.47,3.65,8.77v28.54c.03,6.87-5.52,12.46-12.38,12.49-3.35,.01-6.57-1.33-8.92-3.72-2.37-2.33-3.68-5.53-3.63-8.85v-28.46c-.06-3.33,1.27-6.54,3.67-8.85,2.31-2.34,5.48-3.64,8.77-3.59Zm4.29,12.44c.08-2.44-1.83-4.48-4.27-4.56-.08,0-.15,0-.23,0-1.19-.02-2.34,.45-3.19,1.28-.89,.85-1.37,2.04-1.33,3.27v28.5c-.01,1.19,.47,2.34,1.33,3.17,.84,.85,1.99,1.32,3.19,1.31,1.2,.03,2.35-.45,3.19-1.31,.85-.84,1.32-1.98,1.31-3.17v-28.5Z"/><path class="i" d="M228.72,26.04c3.44-.16,6.78,1.17,9.16,3.65,2.16,2.41,3.3,5.57,3.17,8.81v7.65c.06,3.3-1.24,6.49-3.59,8.81-2.27,2.37-5.44,3.69-8.73,3.63h-4.54v19.69h-7.85V26.04h12.37Zm4.7,12.6c.05-1.22-.39-2.42-1.22-3.32-.84-.83-1.99-1.28-3.17-1.24h-4.83v16.68h4.83c1.2,.02,2.35-.46,3.17-1.33,.85-.84,1.32-1.99,1.31-3.19l-.08-7.61Z"/><path class="i" d="M247.35,78.24V26.04h22.4v7.88h-14.51v14.3h14.51v7.88h-14.51v14.28h14.51v7.88h-22.4Z"/><path class="i" d="M284.02,26.04l10.36,35.07V26.04h7.88v52.21h-8.44l-10.78-33.43v33.43h-7.88V26.04h8.85Z"/><path class="i" d="M195.87,141.81h-7.88v-52.14h22.38v7.88h-14.51v14.3h14.51v7.88h-14.51v22.09Z"/><path class="i" d="M228.16,142.47c-6.87,0-12.44-5.57-12.44-12.44v-40.37h7.71v40.33c0,1.22,.53,2.39,1.45,3.19,.83,.87,1.99,1.35,3.19,1.33,2.46,.01,4.47-1.97,4.48-4.43,0-.02,0-.04,0-.06v-40.35h8.29v40.41c.07,3.32-1.26,6.52-3.67,8.81-2.38,2.4-5.64,3.69-9.02,3.59Z"/><path class="i" d="M256.49,89.66l10.36,35.05v-35.05h7.88v52.14h-8.39l-10.82-33.49v33.49h-7.83v-52.14h8.81Z"/><path class="i" d="M294.15,142.47c-6.87,0-12.44-5.57-12.44-12.44v-28.6c0-6.87,5.57-12.44,12.44-12.44,3.33-.07,6.53,1.26,8.83,3.67,2.37,2.31,3.68,5.5,3.63,8.81v5.95h-8.17v-6.13c0-2.51-2.03-4.54-4.54-4.54h0c-1.2-.02-2.35,.46-3.17,1.33-.87,.84-1.35,2-1.33,3.21v28.64c-.01,2.48,1.99,4.51,4.48,4.52h.02c1.2,.02,2.36-.45,3.21-1.31,.87-.84,1.35-2,1.33-3.21v-7.11h8.17v7.25c0,6.87-5.57,12.44-12.44,12.44l-.02-.04Z"/><path class="h" d="M320.37,97.5h-8.29v-7.83h24.54v7.88h-8.29v44.27h-7.88l-.08-44.31Z"/><path class="h" d="M350.75,141.81h-7.85v-52.14h7.85v52.14Z"/><path class="h" d="M378.98,92.65c-2.32-2.39-5.52-3.71-8.85-3.65-6.87,0-12.44,5.57-12.44,12.44h0v28.54c-.06,3.31,1.25,6.5,3.61,8.83,2.3,2.4,5.49,3.73,8.81,3.67,6.87,0,12.44-5.57,12.44-12.44v-28.54c.08-3.32-1.21-6.52-3.56-8.85Zm-4.56,37.31c.02,1.19-.45,2.34-1.31,3.17-.83,.87-1.99,1.35-3.19,1.33-2.48-.01-4.5-2.01-4.52-4.5v-28.6c-.02-1.2,.46-2.36,1.33-3.19,.84-.85,1.99-1.32,3.19-1.31,2.46-.02,4.47,1.95,4.5,4.41,0,.03,0,.06,0,.08v28.6Z"/><path class="h" d="M398.38,89.66l10.36,35.05v-35.05h7.88v52.14h-8.44l-10.78-33.49v33.49h-7.88v-52.14h8.85Z"/></g><polygon class="g" points="80.22 47.25 68.83 47.25 39.93 104.18 55.13 104.18 74.53 65.97 93.92 104.18 109.12 104.18 80.22 47.25"/><g><path class="g" d="M128.16,22.23h3.97v1.15h-3.93v10.27c0,1.93,.58,2.24,3.32,2.3v.88c-1.93-.1-3.66-.17-5.19-.17-.71,0-2.14,.03-4.31,.17v-.88c2.14-.03,2.58-.51,2.58-2.3v-10.31h-2.51v-1.12h2.51v-1.76c0-2.07,0-3.76,.98-5.29,1.08-1.66,2.85-2.51,5.39-2.51,2.95,0,4.71,1.15,4.71,2.51,0,.75-.58,1.29-1.39,1.29s-1.25-.47-1.59-1.42c-.37-1.02-.71-1.42-1.86-1.42-1.86,0-2.68,1.22-2.68,3.76v4.85Z"/><path class="g" d="M144.77,21.48c3.49,0,4.92,1.73,4.92,5.32v7.02c0,1.63,.24,2.03,2.27,2.1v.92c-1.8-.1-3.15-.14-4.1-.14-1.25,0-2.61,.04-4.03,.14v-.92c1.93-.03,2.24-.47,2.24-2.1v-7.43c0-2.24-.92-3.36-2.75-3.36-2.2,0-3.93,1.9-3.93,4.68v6.04c0,1.63,.31,2.14,2.27,2.17v.92c-1.8-.1-3.19-.14-4.14-.14-1.22,0-2.58,.04-4.07,.14v-.92c2.07-.1,2.34-.51,2.34-2.1v-7.97c0-1.9-.37-2.44-2.17-2.44h-.17v-.88c1.56-.07,3.32-.51,5.29-1.32,.14,1.19,.3,2.31,.44,3.36,1.49-2.1,3.25-3.09,5.59-3.09Z"/></g></g></g></svg>