<svg viewBox="0 0 476 82" xmlns="http://www.w3.org/2000/svg"><g fill="#fff"><path d="m72.91317 23.94677-10.16358-10.16358a.5279.5279 0 0 1 0-.74655l10.16454-10.16454a.52649.52649 0 0 1 .74481 0l10.16455 10.16454a.52786.52786 0 0 1 0 .74655l-10.16358 10.16358a.52778.52778 0 0 1 -.74674 0zm-2.69464 1.48092-8.94986-8.94986a.52905.52905 0 0 0 -.74809 0l-8.94986 8.94986a.52894.52894 0 0 0 0 .74828l8.9514 8.95141a.52673.52673 0 0 0 .745 0l8.95141-8.95138a.52928.52928 0 0 0 0-.74831zm24.78383 0-8.94983-8.94986a.52909.52909 0 0 0 -.74812 0l-8.94986 8.94986a.52928.52928 0 0 0 0 .74828l8.94986 8.94986a.52909.52909 0 0 0 .74812 0l8.94983-8.94983a.52928.52928 0 0 0 0-.74831zm-38.38627 12.39356-7.74078-7.74079a.52694.52694 0 0 0 -.74517 0l-7.74062 7.74079a.52673.52673 0 0 0 0 .745l7.74062 7.74075a.52694.52694 0 0 0 .74517 0l7.74078-7.74078a.52708.52708 0 0 0 0-.74497zm24.78363 0-7.74058-7.74079a.527.527 0 0 0 -.7452 0l-7.74059 7.74079a.52673.52673 0 0 0 0 .745l7.74059 7.74075a.527.527 0 0 0 .7452 0l7.74058-7.74078a.52672.52672 0 0 0 0-.74497zm24.78383 0-7.74055-7.74079a.527.527 0 0 0 -.74519 0l-7.74056 7.74079a.52668.52668 0 0 0 0 .745l7.74052 7.74075a.527.527 0 0 0 .74519 0l7.74059-7.74078a.52668.52668 0 0 0 0-.74497zm-63.17165 12.3922-6.5288-6.5288a.52649.52649 0 0 0 -.74481 0l-6.52877 6.5288a.52632.52632 0 0 0 0 .74442l6.529 6.529a.52661.52661 0 0 0 .74461 0l6.5288-6.529a.526.526 0 0 0 -.00003-.74442zm24.784 0-6.52881-6.5288a.52672.52672 0 0 0 -.745 0l-6.5288 6.5288a.52638.52638 0 0 0 0 .74442l6.529 6.529a.52658.52658 0 0 0 .74459 0l6.529-6.529a.52638.52638 0 0 0 .00005-.74442zm24.78383 0-6.529-6.529a.52661.52661 0 0 0 -.74461 0l-6.529 6.529a.52643.52643 0 0 0 0 .74442l6.529 6.529a.52661.52661 0 0 0 .74461 0l6.529-6.529a.52638.52638 0 0 0 .00003-.74442zm24.78382 0-6.529-6.529a.52661.52661 0 0 0 -.74461 0l-6.529 6.529a.52638.52638 0 0 0 0 .74442l6.529 6.529a.52661.52661 0 0 0 .74461 0l6.529-6.529a.52636.52636 0 0 0 .00003-.74442zm-87.9568 12.39085-5.31469-5.3147a.5279.5279 0 0 0 -.74655 0l-5.3147 5.3147a.5279.5279 0 0 0 0 .74655l5.3147 5.3147a.5279.5279 0 0 0 .74655 0l5.31469-5.3147a.52788.52788 0 0 0 -0-.74655zm24.78383 0-5.3145-5.3147a.52813.52813 0 0 0 -.74674 0l-5.3147 5.3147a.5279.5279 0 0 0 0 .74655l5.3147 5.3147a.52813.52813 0 0 0 .74674 0l5.3145-5.3147a.5279.5279 0 0 0 0-.74655zm24.78383 0-5.3145-5.3147a.52813.52813 0 0 0 -.74674 0l-5.31451 5.3147a.52755.52755 0 0 0 0 .74655l5.31451 5.3147a.52813.52813 0 0 0 .74674 0l5.3145-5.3147a.5279.5279 0 0 0 0-.74655zm24.78383 0-5.3145-5.3147a.52809.52809 0 0 0 -.74671 0l-5.31454 5.3147a.5279.5279 0 0 0 0 .74655l5.31454 5.3147a.52809.52809 0 0 0 .74671 0l5.3145-5.3147a.5275.5275 0 0 0 0-.74655zm24.78405 0-5.31472-5.3147a.52813.52813 0 0 0 -.74674 0l-5.31448 5.3147a.52784.52784 0 0 0 0 .74655l5.31448 5.3147a.52813.52813 0 0 0 .74674 0l5.31472-5.3147a.52793.52793 0 0 0 0-.74655zm-112.73875 12.39279-4.10424-4.10409a.52654.52654 0 0 0 -.74484 0l-4.10407 4.10409a.52649.52649 0 0 0 0 .7448l4.1035 4.1035a.52743.52743 0 0 0 .74616 0l4.10349-4.1035a.52684.52684 0 0 0 -0-.7448zm24.78385 0-4.10429-4.10409a.5265.5265 0 0 0 -.74481 0l-4.104 4.10408a.52644.52644 0 0 0 0 .7448l4.10304 4.10312a.528.528 0 0 0 .74693 0l4.10313-4.10311a.52687.52687 0 0 0 0-.7448zm24.78381 0-4.10308-4.10309a.528.528 0 0 0 -.747 0l-4.10214 4.102a.52859.52859 0 0 0 0 .74712l4.10214 4.102a.528.528 0 0 0 .747 0l4.10308-4.10311a.52649.52649 0 0 0 0-.74492zm24.78267-.10665-4.102-4.102a.528.528 0 0 0 -.74693 0l-4.10306 4.10296a.52673.52673 0 0 0 0 .745l4.10312 4.10311a.52836.52836 0 0 0 .74693 0l4.102-4.10214a.528.528 0 0 0 -.00006-.74693zm24.784 0-4.10214-4.102a.528.528 0 0 0 -.74693 0l-4.10311 4.10291a.52673.52673 0 0 0 0 .745l4.10311 4.10311a.52836.52836 0 0 0 .74693 0l4.10214-4.10214a.52836.52836 0 0 0 .00002-.74688zm24.78383 0-4.10214-4.102a.528.528 0 0 0 -.74693 0l-4.10311 4.10291a.52708.52708 0 0 0 0 .745l4.10311 4.10311a.52836.52836 0 0 0 .74693 0l4.10214-4.10214a.5283.5283 0 0 0 .00002-.74688zm-41.2787-50.9429 10.16513-10.16512a.52673.52673 0 0 0 0-.745l-10.16513-10.16532a.52694.52694 0 0 0 -.74519 0l-10.16516 10.16532a.52672.52672 0 0 0 0 .745l10.16512 10.16512a.527.527 0 0 0 .74523 0zm12.39337 11.17829 8.94989-8.94986a.52894.52894 0 0 0 0-.74828l-8.94989-8.94986a.52905.52905 0 0 0 -.74809 0l-8.94986 8.94986a.52928.52928 0 0 0 0 .74828l8.94986 8.94986a.52905.52905 0 0 0 .74805 0zm12.39042 11.18117 7.74059-7.74078a.52672.52672 0 0 0 0-.745l-7.74059-7.74079a.527.527 0 0 0 -.74519 0l-7.7406 7.74082a.52673.52673 0 0 0 0 .745l7.7406 7.74075a.527.527 0 0 0 .74519 0zm12.39163 11.17984 6.52822-6.52823a.52748.52748 0 0 0 0-.746l-6.52822-6.52823a.52662.52662 0 0 0 -.74462 0l-6.5288 6.529a.526.526 0 0 0 0 .74442l6.5288 6.529a.52662.52662 0 0 0 .74462.00007zm12.393 11.17868 5.31469-5.3147a.5279.5279 0 0 0 0-.74655l-5.31469-5.3147a.5279.5279 0 0 0 -.74655 0l-5.3147 5.3147a.528.528 0 0 0 0 .74655l5.3147 5.3147a.5279.5279 0 0 0 .74653.00003zm12.3922 11.074 4.10391-4.10407a.52551.52551 0 0 0 0-.74307l-4.10391-4.10388a.52825.52825 0 0 0 -.74713 0l-4.1031 4.10291a.52708.52708 0 0 0 0 .745l4.1031 4.10311a.5286.5286 0 0 0 .74711-.00001z"/><path d="m239.313 56.81509h-21.63883a12.379 12.379 0 0 1 -12.36515-12.365v-6.18254a12.37909 12.37909 0 0 1 12.36515-12.36516h21.63883a12.37908 12.37908 0 0 1 12.36516 12.36516v6.18258a12.379 12.379 0 0 1 -12.36516 12.36496zm-21.63883-24.73009a6.18967 6.18967 0 0 0 -6.18258 6.18258v6.18258a6.1898 6.1898 0 0 0 6.18258 6.18258h21.63883a6.18967 6.18967 0 0 0 6.18258-6.18258v-6.18261a6.18955 6.18955 0 0 0 -6.18258-6.18255z"/><path d="m288.82949 56.81509h-21.07663a12.36505 12.36505 0 0 1 -12.36516-12.365v-17.98547a.56227.56227 0 0 1 .56223-.56223h5.05812a.56227.56227 0 0 1 .56223.56223v17.98551a6.18261 6.18261 0 0 0 6.18258 6.18258h21.07663a.56212.56212 0 0 1 .56223.562v5.05832a.56212.56212 0 0 1 -.56223.56206z"/><path d="m197.5947 26.142-17.23741 24.62479a.562.562 0 0 1 -.921 0l-17.23723-24.62443a.56242.56242 0 0 0 -.4606-.23977h-6.17427a.56215.56215 0 0 0 -.4606.88449l20.85209 29.78844a.56192.56192 0 0 0 .4606.23976h6.961a.56244.56244 0 0 0 .4606-.23976l20.85306-29.79a.56108.56108 0 0 0 -.45963-.883h-6.17679a.56118.56118 0 0 0 -.45982.23948z"/><path d="m456.93877 56.81509h-21.639a12.37888 12.37888 0 0 1 -12.365-12.365v-6.18254a12.37893 12.37893 0 0 1 12.365-12.36516h21.639a12.37909 12.37909 0 0 1 12.36516 12.36516v6.18258a12.379 12.379 0 0 1 -12.36516 12.36496zm-21.63902-24.73009a6.1895 6.1895 0 0 0 -6.18238 6.18258v6.18258a6.18963 6.18963 0 0 0 6.18238 6.18258h21.639a6.1898 6.1898 0 0 0 6.18258-6.18258v-6.18261a6.18967 6.18967 0 0 0 -6.18258-6.18258z"/><path d="m329.63428 56.81528h-24.16786a12.365 12.365 0 0 1 -12.36515-12.365v-6.18254a12.36519 12.36519 0 0 1 12.36515-12.36515h24.16786a.56226.56226 0 0 1 .56223.56223v5.05812a.56227.56227 0 0 1 -.56223.56223h-24.16786a6.18258 6.18258 0 0 0 -6.18257 6.18257v6.18258a6.18242 6.18242 0 0 0 6.18257 6.18239h24.16786a.56226.56226 0 0 1 .56223.56222v5.05832a.5621.5621 0 0 1 -.56223.56203z"/><path d="m362.34572 25.90259h-15.45625a12.36521 12.36521 0 0 0 -12.36516 12.36515v17.98551a.5621.5621 0 0 0 .56223.562h5.05812a.5621.5621 0 0 0 .56223-.562v-11.24089a.56211.56211 0 0 1 .56223-.562h26.697a.56211.56211 0 0 1 .56223.562v11.24089a.56209.56209 0 0 0 .56223.562h5.05812a.5621.5621 0 0 0 .56223-.562v-17.98551a12.36521 12.36521 0 0 0 -12.36521-12.36515zm-21.04739 12.36515a.55639.55639 0 0 1 -.56342-.59121 6.19119 6.19119 0 0 1 6.15456-5.59136h15.45625a6.19119 6.19119 0 0 1 6.15456 5.59136.55638.55638 0 0 1 -.56338.59121z"/><path d="m413.04267 26.46366v22.09479a.5613.5613 0 0 1 -.93879.41539l-25.21758-22.925a.56171.56171 0 0 0 -.3781-.14625h-6.90729a.56226.56226 0 0 0 -.56223.56223v29.789a.56111.56111 0 0 0 .56126.56126h5.06006a.56123.56123 0 0 0 .56126-.56126v-22.09266a.56218.56218 0 0 1 .94033-.416l25.21641 22.92425a.56117.56117 0 0 0 .37752.14587h6.90848a.56123.56123 0 0 0 .56126-.56126v-29.79017a.56136.56136 0 0 0 -.56126-.56126h-5.06025a.561.561 0 0 0 -.56108.56107z"/><path d="m239.313 56.81509h-21.63883a12.379 12.379 0 0 1 -12.36515-12.365v-6.18254a12.37909 12.37909 0 0 1 12.36515-12.36516h21.63883a12.37908 12.37908 0 0 1 12.36516 12.36516v6.18258a12.379 12.379 0 0 1 -12.36516 12.36496zm-21.63883-24.73009a6.18967 6.18967 0 0 0 -6.18258 6.18258v6.18258a6.1898 6.1898 0 0 0 6.18258 6.18258h21.63883a6.18967 6.18967 0 0 0 6.18258-6.18258v-6.18261a6.18955 6.18955 0 0 0 -6.18258-6.18255z"/><path d="m288.82949 56.81509h-21.07663a12.36505 12.36505 0 0 1 -12.36516-12.365v-17.98547a.56227.56227 0 0 1 .56223-.56223h5.05812a.56227.56227 0 0 1 .56223.56223v17.98551a6.18261 6.18261 0 0 0 6.18258 6.18258h21.07663a.56212.56212 0 0 1 .56223.562v5.05832a.56212.56212 0 0 1 -.56223.56206z"/><path d="m197.5947 26.142-17.23741 24.62479a.562.562 0 0 1 -.921 0l-17.23723-24.62443a.56242.56242 0 0 0 -.4606-.23977h-6.17427a.56215.56215 0 0 0 -.4606.88449l20.85209 29.78844a.56192.56192 0 0 0 .4606.23976h6.961a.56244.56244 0 0 0 .4606-.23976l20.85306-29.79a.56108.56108 0 0 0 -.45963-.883h-6.17679a.56118.56118 0 0 0 -.45982.23948z"/><path d="m456.93877 56.81509h-21.639a12.37888 12.37888 0 0 1 -12.365-12.365v-6.18254a12.37893 12.37893 0 0 1 12.365-12.36516h21.639a12.37909 12.37909 0 0 1 12.36516 12.36516v6.18258a12.379 12.379 0 0 1 -12.36516 12.36496zm-21.63902-24.73009a6.1895 6.1895 0 0 0 -6.18238 6.18258v6.18258a6.18963 6.18963 0 0 0 6.18238 6.18258h21.639a6.1898 6.1898 0 0 0 6.18258-6.18258v-6.18261a6.18967 6.18967 0 0 0 -6.18258-6.18258z"/><path d="m329.63428 56.81528h-24.16786a12.365 12.365 0 0 1 -12.36515-12.365v-6.18254a12.36519 12.36519 0 0 1 12.36515-12.36515h24.16786a.56226.56226 0 0 1 .56223.56223v5.05812a.56227.56227 0 0 1 -.56223.56223h-24.16786a6.18258 6.18258 0 0 0 -6.18257 6.18257v6.18258a6.18242 6.18242 0 0 0 6.18257 6.18239h24.16786a.56226.56226 0 0 1 .56223.56222v5.05832a.5621.5621 0 0 1 -.56223.56203z"/><path d="m362.34572 25.90259h-15.45625a12.36521 12.36521 0 0 0 -12.36516 12.36515v17.98551a.5621.5621 0 0 0 .56223.562h5.05812a.5621.5621 0 0 0 .56223-.562v-11.24089a.56211.56211 0 0 1 .56223-.562h26.697a.56211.56211 0 0 1 .56223.562v11.24089a.56209.56209 0 0 0 .56223.562h5.05812a.5621.5621 0 0 0 .56223-.562v-17.98551a12.36521 12.36521 0 0 0 -12.36521-12.36515zm-21.04739 12.36515a.55639.55639 0 0 1 -.56342-.59121 6.19119 6.19119 0 0 1 6.15456-5.59136h15.45625a6.19119 6.19119 0 0 1 6.15456 5.59136.55638.55638 0 0 1 -.56338.59121z"/><path d="m413.04267 26.46366v22.09479a.5613.5613 0 0 1 -.93879.41539l-25.21758-22.925a.56171.56171 0 0 0 -.3781-.14625h-6.90729a.56226.56226 0 0 0 -.56223.56223v29.789a.56111.56111 0 0 0 .56126.56126h5.06006a.56123.56123 0 0 0 .56126-.56126v-22.09266a.56218.56218 0 0 1 .94033-.416l25.21641 22.92425a.56117.56117 0 0 0 .37752.14587h6.90848a.56123.56123 0 0 0 .56126-.56126v-29.79017a.56136.56136 0 0 0 -.56126-.56126h-5.06025a.561.561 0 0 0 -.56108.56107z"/><path d="m239.313 56.81509h-21.63883a12.379 12.379 0 0 1 -12.36515-12.365v-6.18254a12.37909 12.37909 0 0 1 12.36515-12.36516h21.63883a12.37908 12.37908 0 0 1 12.36516 12.36516v6.18258a12.379 12.379 0 0 1 -12.36516 12.36496zm-21.63883-24.73009a6.18967 6.18967 0 0 0 -6.18258 6.18258v6.18258a6.1898 6.1898 0 0 0 6.18258 6.18258h21.63883a6.18967 6.18967 0 0 0 6.18258-6.18258v-6.18261a6.18955 6.18955 0 0 0 -6.18258-6.18255z"/><path d="m288.82949 56.81509h-21.07663a12.36505 12.36505 0 0 1 -12.36516-12.365v-17.98547a.56227.56227 0 0 1 .56223-.56223h5.05812a.56227.56227 0 0 1 .56223.56223v17.98551a6.18261 6.18261 0 0 0 6.18258 6.18258h21.07663a.56212.56212 0 0 1 .56223.562v5.05832a.56212.56212 0 0 1 -.56223.56206z"/><path d="m197.5947 26.142-17.23741 24.62479a.562.562 0 0 1 -.921 0l-17.23723-24.62443a.56242.56242 0 0 0 -.4606-.23977h-6.17427a.56215.56215 0 0 0 -.4606.88449l20.85209 29.78844a.56192.56192 0 0 0 .4606.23976h6.961a.56244.56244 0 0 0 .4606-.23976l20.85306-29.79a.56108.56108 0 0 0 -.45963-.883h-6.17679a.56118.56118 0 0 0 -.45982.23948z"/><path d="m456.93877 56.81509h-21.639a12.37888 12.37888 0 0 1 -12.365-12.365v-6.18254a12.37893 12.37893 0 0 1 12.365-12.36516h21.639a12.37909 12.37909 0 0 1 12.36516 12.36516v6.18258a12.379 12.379 0 0 1 -12.36516 12.36496zm-21.63902-24.73009a6.1895 6.1895 0 0 0 -6.18238 6.18258v6.18258a6.18963 6.18963 0 0 0 6.18238 6.18258h21.639a6.1898 6.1898 0 0 0 6.18258-6.18258v-6.18261a6.18967 6.18967 0 0 0 -6.18258-6.18258z"/><path d="m329.63428 56.81528h-24.16786a12.365 12.365 0 0 1 -12.36515-12.365v-6.18254a12.36519 12.36519 0 0 1 12.36515-12.36515h24.16786a.56226.56226 0 0 1 .56223.56223v5.05812a.56227.56227 0 0 1 -.56223.56223h-24.16786a6.18258 6.18258 0 0 0 -6.18257 6.18257v6.18258a6.18242 6.18242 0 0 0 6.18257 6.18239h24.16786a.56226.56226 0 0 1 .56223.56222v5.05832a.5621.5621 0 0 1 -.56223.56203z"/><path d="m362.34572 25.90259h-15.45625a12.36521 12.36521 0 0 0 -12.36516 12.36515v17.98551a.5621.5621 0 0 0 .56223.562h5.05812a.5621.5621 0 0 0 .56223-.562v-11.24089a.56211.56211 0 0 1 .56223-.562h26.697a.56211.56211 0 0 1 .56223.562v11.24089a.56209.56209 0 0 0 .56223.562h5.05812a.5621.5621 0 0 0 .56223-.562v-17.98551a12.36521 12.36521 0 0 0 -12.36521-12.36515zm-21.04739 12.36515a.55639.55639 0 0 1 -.56342-.59121 6.19119 6.19119 0 0 1 6.15456-5.59136h15.45625a6.19119 6.19119 0 0 1 6.15456 5.59136.55638.55638 0 0 1 -.56338.59121z"/><path d="m413.04267 26.46366v22.09479a.5613.5613 0 0 1 -.93879.41539l-25.21758-22.925a.56171.56171 0 0 0 -.3781-.14625h-6.90729a.56226.56226 0 0 0 -.56223.56223v29.789a.56111.56111 0 0 0 .56126.56126h5.06006a.56123.56123 0 0 0 .56126-.56126v-22.09266a.56218.56218 0 0 1 .94033-.416l25.21641 22.92425a.56117.56117 0 0 0 .37752.14587h6.90848a.56123.56123 0 0 0 .56126-.56126v-29.79017a.56136.56136 0 0 0 -.56126-.56126h-5.06025a.561.561 0 0 0 -.56108.56107z"/></g></svg>