<svg id="Layer_1" data-name="Layer 1" xmlns="http://www.w3.org/2000/svg" viewBox="0 0 360 360"><path d="M311.05017,77.65907,202.89673,15.9474a46.68482,46.68482,0,0,0-46.52954-.00659L48.10577,77.75294a46.61864,46.61864,0,0,0-23.31585,40.30793v123.63a46.9976,46.9976,0,0,0,23.4115,40.38867l108.16272,61.80683a46.56528,46.56528,0,0,0,46.52026.00177l108.26752-61.81476a46.74709,46.74709,0,0,0,23.3106-40.3053V118.04817A47.00033,47.00033,0,0,0,311.05017,77.65907Zm18.92047,164.109A42.235,42.235,0,0,1,308.913,278.17891L200.65424,339.98927a42.07449,42.07449,0,0,1-42.05909-.00171L50.43555,278.18245a42.48319,42.48319,0,0,1-21.15369-36.50391V118.06087A42.1125,42.1125,0,0,1,50.33948,81.65L158.60083,19.83791a42.18583,42.18583,0,0,1,42.057.0039l108.1596,61.71478a42.48684,42.48684,0,0,1,21.15326,36.50428Z"/><path d="M297.66479,101.0179,189.52185,39.22157a18.77855,18.77855,0,0,0-9.88312-2.55432,19.718,19.718,0,0,0-9.79449,2.63062L61.5697,101.02754a19.76465,19.76465,0,0,0-9.73877,17.03333V241.67854a19.81662,19.81662,0,0,0,9.8454,17.04212l108.05872,61.79895a19.54817,19.54817,0,0,0,9.85894,2.64953,19.90987,19.90987,0,0,0,9.905-2.639L297.77271,258.711a19.76289,19.76289,0,0,0,9.73834-17.03247V118.06087A19.81725,19.81725,0,0,0,297.66479,101.0179Z"/></svg>