<svg id="Layer_1" data-name="Layer 1" xmlns="http://www.w3.org/2000/svg" xmlns:xlink="http://www.w3.org/1999/xlink" viewBox="0 0 360 165"><defs><style>.cls-1,.cls-3,.cls-4{fill:#fff;}.cls-2{clip-path:url(#clip-path);}.cls-3{fill-rule:evenodd;}.cls-4{opacity:0.8;isolation:isolate;}.cls-5{clip-path:url(#clip-path-2);}.cls-6{clip-path:url(#clip-path-3);}</style><clipPath id="clip-path"><rect class="cls-1" x="5" y="146.53976" width="72.72031" height="0.57486"/></clipPath><clipPath id="clip-path-2"><rect class="cls-1" x="139.51821" y="6.99151" width="0.57486" height="116.98486"/></clipPath><clipPath id="clip-path-3"><rect class="cls-1" x="281.27971" y="146.53976" width="72.72029" height="0.57486"/></clipPath></defs><path id="SVGID" class="cls-1" d="M5,146.53976H77.72031v.57487H5Z"/><rect class="cls-1" x="5" y="146.53976" width="72.72031" height="0.57486"/><rect class="cls-1" x="5" y="146.53976" width="72.72031" height="0.57486"/><g class="cls-2"><path class="cls-1" d="M5,146.53976H77.72031v.57487H5Z"/></g><path class="cls-1" d="M104.4515,106.96037c.63235-.17246,1.37967-.34492,2.35694-.51737a17.0206,17.0206,0,0,1,2.98929-.22994,6.91617,6.91617,0,0,1,2.64438.4024,4.04148,4.04148,0,0,1,1.66711,1.20722,4.54929,4.54929,0,0,1,.86229,1.83956,10.17749,10.17749,0,0,1,.28743,2.35695v7.12831h-3.50667v-6.72591a4.79976,4.79976,0,0,0-.45989-2.41443,1.882,1.882,0,0,0-1.7246-.68983,4.07176,4.07176,0,0,0-.8048.05749c-.28743,0-.51738.05749-.74733.05749v9.7152H104.4515V106.96037Zm-6.55345,5.80614a4.77618,4.77618,0,0,0-.63235-2.58689,2.41619,2.41619,0,0,0-3.79411,0,4.3168,4.3168,0,0,0-.68984,2.58689,4.63287,4.63287,0,0,0,.68984,2.64437,2.32992,2.32992,0,0,0,3.79411,0,4.99307,4.99307,0,0,0,.63235-2.64437m3.62164,0a8.07965,8.07965,0,0,1-.4024,2.70186,6.15227,6.15227,0,0,1-1.2647,2.127,5.75277,5.75277,0,0,1-4.48394,1.83956,7.0746,7.0746,0,0,1-2.5294-.45989,5.77013,5.77013,0,0,1-1.95453-1.37967,5.9798,5.9798,0,0,1-1.2647-2.127,8.16651,8.16651,0,0,1,0-5.40372,6.25889,6.25889,0,0,1,1.2647-2.06952,5.60821,5.60821,0,0,1,1.95453-1.32219,5.91764,5.91764,0,0,1,2.47192-.45989,6.75954,6.75954,0,0,1,2.47192.45989,6.51885,6.51885,0,0,1,1.95453,1.32219,6.25856,6.25856,0,0,1,1.2647,2.06952,6.85987,6.85987,0,0,1,.51737,2.70186m-19.37291,6.66842c-2.70186,0-4.77138-.74732-6.15105-2.242-1.43716-1.49465-2.127-3.62165-2.127-6.381a10.49666,10.49666,0,0,1,.63235-3.67913,7.42987,7.42987,0,0,1,4.48394-4.369,9.34454,9.34454,0,0,1,3.3917-.57486,9.69,9.69,0,0,1,1.89705.17246c.57486.115,1.09224.22994,1.49465.34492a11.31356,11.31356,0,0,1,1.09224.40241,2.05821,2.05821,0,0,1,.63235.34492L86.40078,106.443a7.19814,7.19814,0,0,0-1.78208-.68984,9.31187,9.31187,0,0,0-2.29945-.28743,5.341,5.341,0,0,0-1.66711.28743,3.43921,3.43921,0,0,0-1.43716.91979,5.54838,5.54838,0,0,0-1.03475,1.60962,7.57159,7.57159,0,0,0-.40241,2.41443,8.32537,8.32537,0,0,0,.22994,2.127,5.30512,5.30512,0,0,0,.80481,1.7246,4.32859,4.32859,0,0,0,1.49465,1.14972,5.11451,5.11451,0,0,0,2.18449.40241,10.40506,10.40506,0,0,0,1.43716-.115,5.79737,5.79737,0,0,0,1.14972-.23,7.51824,7.51824,0,0,0,.8623-.28743,3.51665,3.51665,0,0,1,.68984-.28743l1.03475,2.98929a7.00934,7.00934,0,0,1-2.242.8623,11.10672,11.10672,0,0,1-3.27673.4024M67.94765,111.5593a2.30667,2.30667,0,0,0-.17246-.86229,3.09766,3.09766,0,0,0-.4024-.74733,2.30022,2.30022,0,0,0-.68984-.57486,2.74577,2.74577,0,0,0-1.03476-.22994,1.96864,1.96864,0,0,0-1.03475.22994,1.56937,1.56937,0,0,0-.68984.51737,2.6889,2.6889,0,0,0-.45989.80481,4.306,4.306,0,0,0-.23.91979h4.71389Zm-8.33553,1.32219a7.84,7.84,0,0,1,.51738-2.93181,5.44882,5.44882,0,0,1,1.37967-2.06951,5.77423,5.77423,0,0,1,1.89706-1.2647,6.16441,6.16441,0,0,1,2.242-.4024,5.59017,5.59017,0,0,1,4.254,1.60962,6.77208,6.77208,0,0,1,1.55214,4.82885v.68984c0,.22994-.05749.45989-.05749.63235H63.29125a2.13687,2.13687,0,0,0,1.03476,1.72459,4.42535,4.42535,0,0,0,2.41443.63236,10.12264,10.12264,0,0,0,1.897-.17246,7.21014,7.21014,0,0,0,1.55213-.4599l.45989,2.87433a5.13372,5.13372,0,0,1-.74732.28743A6.10633,6.10633,0,0,1,68.81,119.09c-.40241.05749-.80481.115-1.2647.17246a10.62512,10.62512,0,0,1-1.32219.05749,7.43224,7.43224,0,0,1-2.93181-.51737,5.44882,5.44882,0,0,1-2.06951-1.37967,4.7014,4.7014,0,0,1-1.20721-2.06952,6.56169,6.56169,0,0,1-.4024-2.47192m-2.35695-.05749a8.06724,8.06724,0,0,1-.45989,2.70186,6.25856,6.25856,0,0,1-1.2647,2.06952,5.56041,5.56041,0,0,1-2.06951,1.32219,8.16,8.16,0,0,1-2.75935.45989,12.03277,12.03277,0,0,1-1.37967-.05749l-1.37968-.17246a10.61067,10.61067,0,0,1-1.32219-.22994c-.4024-.115-.80481-.17246-1.09224-.28743V101.03929l3.56416-.57486v6.266a8.14075,8.14075,0,0,1,1.2647-.4024,5.37232,5.37232,0,0,1,1.37967-.115,5.93852,5.93852,0,0,1,2.35694.45989,4.3463,4.3463,0,0,1,1.72459,1.32219,5.83582,5.83582,0,0,1,1.03476,2.06951,8.42789,8.42789,0,0,1,.4024,2.75935m-3.62164-.115c0-2.29945-.8623-3.44918-2.5294-3.44918a7.04449,7.04449,0,0,0-1.09225.115,6.69139,6.69139,0,0,0-.86229.34492v6.496a2.36872,2.36872,0,0,0,.68983.05749c.28743,0,.57487.05749.8623.05749a2.55929,2.55929,0,0,0,2.18448-.97727,4.5091,4.5091,0,0,0,.74733-2.64438m-11.61225,5.97858c-.63235.17247-1.37968.34493-2.35695.51738a17.02141,17.02141,0,0,1-2.98929.22994,6.91612,6.91612,0,0,1-2.64437-.4024,4.04157,4.04157,0,0,1-1.66711-1.20722,4.93973,4.93973,0,0,1-.8623-1.83956,9.79887,9.79887,0,0,1-.28743-2.35695v-7.01334H34.7205v6.55345a5.218,5.218,0,0,0,.4599,2.47191,1.78271,1.78271,0,0,0,1.72459.74733,4.07267,4.07267,0,0,0,.80481-.05749c.28743,0,.51738-.05749.74732-.05749V106.558h3.56416v12.12964ZM25.58016,119.09c-.34492-.51738-.74732-1.14973-1.20721-1.78209a21.5382,21.5382,0,0,0-1.49465-1.89705c-.51738-.63235-1.09224-1.20722-1.6671-1.83956a21.00166,21.00166,0,0,0-1.7246-1.55213v7.01334H15.75V102.47646h3.73662v6.266c.97727-1.03475,1.95454-2.06951,2.9318-3.21924.97727-1.09224,1.89705-2.127,2.75935-3.04678h4.42645c-1.14972,1.32219-2.242,2.64438-3.39169,3.85159-1.14973,1.2647-2.35695,2.47192-3.62165,3.73661a31.06841,31.06841,0,0,1,3.85159,3.90908,50.90224,50.90224,0,0,1,3.56416,5.00132H25.58014Z"/><path class="cls-3" d="M55.47307,45.96729l-2.06951.45989c0-.28743-.05749-.57486-.05749-.86229a11.90419,11.90419,0,0,1,1.7246-6.20854l4.02405,3.56416a.79368.79368,0,0,0,.22994.17246A6.55582,6.55582,0,0,0,58.86477,44.99c-.115.05749-.28743.05749-.4024.115Zm7.81815-12.18712v5.63367a4.98378,4.98378,0,0,0-1.55213.80481c-.17246-.115-.34492-.28743-.51738-.4024l-4.08153-2.87432a11.34074,11.34074,0,0,1,6.151-3.16176M35.29534,46.7721c1.95454-8.56547,3.62165-15.80876,5.57618-24.37424.8623-3.85159,1.43716-4.88634,4.94383-6.89837,4.82886-2.81683,8.4505-4.82886,13.62428-7.81815,3.21924-1.83956,3.85159-1.72459,3.85159,2.242v19.8903A15.54061,15.54061,0,0,0,53.86345,34.585l-1.72459-1.20721a.83092.83092,0,0,1-.40241-.57487,2.7999,2.7999,0,0,0-.91978-1.37967,1.88087,1.88087,0,0,0-2.35694,2.9318,1.99175,1.99175,0,0,0,.91978.45989c.22995.05749.45989.05749.68984.115a1.42048,1.42048,0,0,1,.51738.22994L52.19635,36.597a15.73887,15.73887,0,0,0-2.70186,8.85291c0,.57487.05748,1.14973.115,1.7246l-3.50667.74732a3.53561,3.53561,0,0,0-.74733.05749l-.51738.17246c-2.29945.45989-4.59891.97726-6.95585,1.49464-3.16175.74733-3.27672.115-2.58689-2.87432m32.07742-7.35826V33.78017a12.08807,12.08807,0,0,1,6.151,3.10427l-4.42645,3.16175c-.05748.05748-.115.115-.17246.115a6.38878,6.38878,0,0,0-1.55213-.74733m9.88766,6.61094-5.5187-1.2647a5.4434,5.4434,0,0,0-.45989-1.72459c.05749-.05748.115-.115.17246-.115l4.08154-3.62165a12.01126,12.01126,0,0,1,1.78208,6.266,1.12073,1.12073,0,0,0-.05749.4599m-7.1858-30.41032c2.98929,1.43716,5.11629,2.47192,8.10559,3.90908,4.139,2.012,8.278,4.024,12.47455,5.97858C91.68951,29.98606,92.72427,34.47,93.70154,38.954c.63235,2.70186.91979,4.139,1.55213,6.78339.97727,4.19651.8623,4.54143-3.44918,3.56416l-10.635-2.41443A11.07625,11.07625,0,0,0,81.227,45.5074a15.41011,15.41011,0,0,0-2.75935-8.9104l1.49465-1.37967a1.276,1.276,0,0,1,.63235-.28743,3.00886,3.00886,0,0,0,1.55214-.57487,1.88087,1.88087,0,1,0-2.357-2.9318h0A2.3405,2.3405,0,0,0,79.1,32.228c-.115.22994-.17246.4024-.28743.63235a.894.894,0,0,1-.34492.45989l-1.72459,1.20721a15.69618,15.69618,0,0,0-9.42778-4.77137V17.62649c.05749-2.81684.28744-3.16175,2.75935-2.012M66.39549,51.8309a6.366,6.366,0,0,1-1.09224.115,6.24808,6.24808,0,0,1-1.03476-.05748l-.17246.34492-2.5294,4.6564a11.937,11.937,0,0,0,3.7941.63234,12.57181,12.57181,0,0,0,3.85159-.63234l-2.5294-4.59892a2.01686,2.01686,0,0,1-.28744-.45989m4.48395-3.04678,5.5187,1.2647A11.92434,11.92434,0,0,1,71.91418,55.51L69.7297,50.22128a9.00656,9.00656,0,0,0,1.14973-1.43716M54.26585,49.99133l5.5187-1.2647a7.64029,7.64029,0,0,0,1.20721,1.49465l-.17246.34492L58.80728,55.51a11.84126,11.84126,0,0,1-4.54143-5.5187m45.18432,9.71521c-2.64438,3.27672-3.85159,4.82886-6.496,8.10558-2.9893,3.73662-5.40372,6.78339-8.393,10.52-2.127,2.70186-3.67913,2.75935-7.18581,2.75935H53.23109c-4.59891,0-4.94383,0-7.76067-3.56416-2.81683-3.50667-5.00131-6.266-7.76066-9.77269-2.18449-2.75935-2.75935-3.44918-4.94383-6.20853-3.3917-4.254-3.96656-5.80613,1.32219-6.95586l16.32614-3.67913a16.1429,16.1429,0,0,0,6.84088,8.27805l-.74733,1.72459a1.01441,1.01441,0,0,1-.45989.51738,2.6071,2.6071,0,0,0-1.14973,1.20721,1.88964,1.88964,0,0,0,3.38942,1.67176l.00228-.00465a3.06966,3.06966,0,0,0,.28743-1.03476,2.79881,2.79881,0,0,0-.05748-.68983,1.03652,1.03652,0,0,1,.115-.57487l.91978-1.6671a16.08083,16.08083,0,0,0,5.69116,1.03475,15.2454,15.2454,0,0,0,5.74864-1.09224l.91978,1.66711a.94075.94075,0,0,1,.115.68983,2.5864,2.5864,0,0,0,.22994,1.60962,1.88963,1.88963,0,1,0,3.395-1.66035l-.00332-.00675a2.4013,2.4013,0,0,0-.63235-.8623,3.48867,3.48867,0,0,0-.57487-.4024.714.714,0,0,1-.34492-.4599l-.74732-1.83956a15.767,15.767,0,0,0,6.7834-8.278L98.128,54.82019c3.62165.97727,3.3917,2.242,1.32219,4.88635"/><path class="cls-3" d="M67.37276,39.41384V33.78017a12.08811,12.08811,0,0,1,6.151,3.10427l-4.42645,3.16175c-.05748.05748-.115.115-.17246.115a6.38878,6.38878,0,0,0-1.55213-.74733m9.88766,6.61094-5.5187-1.2647a5.4434,5.4434,0,0,0-.45989-1.72459c.05749-.05748.115-.115.17246-.115l4.08154-3.62165a12.01126,12.01126,0,0,1,1.78208,6.266,1.12073,1.12073,0,0,0-.05749.4599m-7.1858-30.41032c2.98929,1.43716,5.11629,2.47192,8.10559,3.90908,4.139,2.012,8.278,4.024,12.47455,5.97858C91.68951,29.98606,92.72427,34.47,93.70154,38.954c.63235,2.70186.91979,4.139,1.55213,6.78339.97727,4.19651.8623,4.54143-3.44918,3.56416l-10.635-2.41443A11.07625,11.07625,0,0,0,81.227,45.5074a15.41011,15.41011,0,0,0-2.75935-8.9104l1.49465-1.37967a1.276,1.276,0,0,1,.63235-.28743,3.00886,3.00886,0,0,0,1.55214-.57487,1.88087,1.88087,0,1,0-2.357-2.9318h0A2.3405,2.3405,0,0,0,79.1,32.228c-.115.22994-.17246.4024-.28743.63235a.894.894,0,0,1-.34492.45989l-1.72459,1.20721a15.69618,15.69618,0,0,0-9.42778-4.77137V17.62649c.05749-2.81684.28744-3.16175,2.75935-2.012m.80482,33.16967,5.51869,1.2647A11.92418,11.92418,0,0,1,71.91419,55.51l-2.18448-5.28874a9.007,9.007,0,0,0,1.14973-1.43716m-5.57619,8.68044V51.94588a7.04449,7.04449,0,0,0,1.09225-.115,1.4406,1.4406,0,0,0,.22994.4024l2.52941,4.59891a12.57152,12.57152,0,0,1-3.85159.63235m34.14693,2.242c-2.64438,3.27673-3.85159,4.82886-6.496,8.10559-2.98929,3.73661-5.40372,6.78339-8.393,10.52-2.127,2.70186-3.67912,2.75935-7.1858,2.75935H65.36074V61.37365a15.24541,15.24541,0,0,0,5.74864-1.09225l.91978,1.66711a.94077.94077,0,0,1,.115.68984,2.58642,2.58642,0,0,0,.23,1.60962,1.88963,1.88963,0,0,0,3.39169-1.66711,2.40106,2.40106,0,0,0-.63235-.8623,3.49029,3.49029,0,0,0-.57487-.4024.714.714,0,0,1-.34492-.45989l-.74732-1.83956a15.76709,15.76709,0,0,0,6.78339-8.278L98.24295,54.8202c3.50668.97726,3.27673,2.242,1.20722,4.88634"/><path class="cls-1" d="M232.81865,59.01671H223.2759V81.32143h22.24725V71.77869h-12.7045Zm47.77121.05748v12.7045h-12.647l-.115-.115v9.65771h22.30472V59.0167h-9.60024ZM223.27592,36.712h9.60024l-.05749-.05749V23.95h12.647l.05749.115V14.40725H223.27592Zm44.552-22.30473V23.95h12.762V36.712h9.54275V14.40725Z"/><path class="cls-4" d="M266.67814,36.712l-12.762-12.762h13.91172V14.40725H245.52315V24.065l12.7045,12.647ZM255.18086,59.0167h-8.45051l10.5775,10.5775,2.18447,2.18449H245.52313v9.54274h22.30472V71.66371l-6.3235-6.3235Zm25.409-22.30473V50.62368l-2.18448-2.18448-10.57749-10.52v8.4505l6.381,6.32351,6.32351,6.3235h9.60024V36.712ZM245.52315,49.359l-12.647-12.647h-9.65771V59.0167h9.60024V45.105l12.7045,12.70449Z"/><path class="cls-1" d="M176.59694,105.63819l-2.41443,2.87432a5.6514,5.6514,0,0,0-4.139-2.127,4.61661,4.61661,0,0,0-4.60147,4.63173q.00021.06984.00256.13964a4.59723,4.59723,0,0,0,4.59891,4.82886,6.07908,6.07908,0,0,0,4.139-1.95454l2.47191,2.58689a10.065,10.065,0,0,1-6.78339,2.9893,8.32756,8.32756,0,0,1-8.623-8.45051c0-4.77137,3.7941-8.33553,8.79541-8.33553a9.89357,9.89357,0,0,1,6.55345,2.81684Zm2.012,13.79673V102.01654h4.08154v17.41838Zm20.23522-6.3235c0,3.90908-2.75934,6.496-6.89837,6.496s-6.95586-2.58689-6.95586-6.496,2.75935-6.43848,6.95586-6.43848c4.139,0,6.89836,2.5294,6.89836,6.43848Zm-9.77269.05749c0,1.95453,1.14973,3.27672,2.81683,3.27672s2.81683-1.32219,2.81683-3.27672-1.14972-3.27673-2.81683-3.27673-2.81684,1.32219-2.81684,3.27673Zm24.31675,6.266h-4.08154v-2.06951a4.4819,4.4819,0,0,1-4.139,2.242c-2.75934,0-4.54142-1.89706-4.54142-4.82886v-7.99061h4.08154v6.84088c0,1.49465.8048,2.41443,2.127,2.41443,1.55214,0,2.47191-1.2647,2.47191-2.98929v-6.266h4.08154Zm15.98121,0h-4.08153v-1.6671a4.68623,4.68623,0,0,1-3.79411,1.83957c-3.56417,0-5.92109-2.64438-5.92109-6.55345,0-3.85159,2.29945-6.43848,5.80613-6.43848a4.67226,4.67226,0,0,1,3.90907,1.83956v-6.43847h4.08153v17.41837Zm-4.08153-6.266c0-1.95454-1.14973-3.27673-2.81684-3.27673s-2.81683,1.32219-2.81683,3.27673,1.14973,3.33421,2.81683,3.33421C224.19569,116.44563,225.28793,115.12344,225.28793,113.16891Z"/><path class="cls-1" d="M244.25844,119.43492l-7.58821-10.11761v10.11761h-3.90907V102.99381h3.67913l7.58821,10.17509V102.99381h3.90907v16.44111Zm18.16571-8.278v8.278h-3.96656v-1.43716a4.60191,4.60191,0,0,1-3.85159,1.66711c-2.70187,0-4.369-1.66711-4.369-3.96656,0-2.41443,1.72459-3.79411,4.88634-3.85159h3.33421v-.17246c0-1.2647-.80481-2.012-2.47191-2.012a9.679,9.679,0,0,0-3.79411,1.03476l-1.14973-2.70186a13.17672,13.17672,0,0,1,5.86362-1.43716C260.41213,106.61545,262.42415,108.34,262.42415,111.15688Zm-3.96656,4.02405V114.0312H255.8707c-1.20721,0-1.83957.40241-1.83957,1.37968,0,.91978.63236,1.49465,1.78208,1.49465A2.62786,2.62786,0,0,0,258.45759,115.18093Zm14.94647,3.62165a7.23386,7.23386,0,0,1-3.39169.86229c-2.47191,0-4.19651-1.37967-4.19651-4.024v-5.57618h-1.78208v-2.64438h1.78208v-3.50668h4.024v3.50668h3.33421v2.70186h-3.33421V115.066c0,.97727.40241,1.43716,1.14973,1.37967a4.76134,4.76134,0,0,0,1.55214-.4024Zm6.20853-15.6363a2.10082,2.10082,0,0,1-2.01529,2.183q-.05585.00223-.11172.00149a2.15593,2.15593,0,0,1,0-4.31148,2.02122,2.02122,0,0,1,2.127,2.127Zm-4.19651,16.26865v-12.647h4.024v12.647Zm10.34756,0-4.77137-12.647h4.1965l2.70187,8.96789,2.75934-8.96789h4.02407l-4.77137,12.647Zm22.36221-5.23126h-8.91039a2.95756,2.95756,0,0,0,2.9893,2.35694,4.51667,4.51667,0,0,0,3.04677-1.2647l2.127,2.06952a7.178,7.178,0,0,1-5.51868,2.242c-4.139,0-6.72592-2.58688-6.72592-6.43847a6.21623,6.21623,0,0,1,6.61094-6.496c4.42646,0,6.61094,2.93181,6.381,7.53072Zm-3.90907-2.18449a2.3854,2.3854,0,0,0-2.47191-2.58689c-1.43716,0-2.35693,1.03476-2.64436,2.58689h5.11627Z"/><path class="cls-1" d="M324.68193,105.63819l-2.41444,2.87432a5.6513,5.6513,0,0,0-4.139-2.127,4.61662,4.61662,0,0,0-4.60147,4.63173q.00021.06984.00256.13964a4.59724,4.59724,0,0,0,4.59891,4.82886,6.079,6.079,0,0,0,4.139-1.95454l2.47191,2.58689a10.06491,10.06491,0,0,1-6.78339,2.9893,8.32757,8.32757,0,0,1-8.623-8.45051c0-4.77137,3.79409-8.33553,8.79541-8.33553A10.01366,10.01366,0,0,1,324.68193,105.63819Zm14.19915,7.47323c0,3.90908-2.75934,6.496-6.89837,6.496s-6.95584-2.58689-6.95584-6.496,2.75934-6.43848,6.95584-6.43848C336.12174,106.67294,338.88108,109.20234,338.88108,113.11142Zm-9.71522.05749c0,1.95453,1.14973,3.27672,2.81685,3.27672s2.81685-1.32219,2.81685-3.27672-1.14973-3.27673-2.81685-3.27673-2.81681,1.32219-2.81681,3.27673ZM354,111.44432v7.9906h-4.024V112.594a2.16308,2.16308,0,0,0-2.242-2.41442,2.57441,2.57441,0,0,0-2.58689,2.58689v6.7259h-4.08152v-12.647h4.08152v2.06952a4.666,4.666,0,0,1,4.254-2.242c2.75934-.05749,4.59891,1.83956,4.59891,4.77137Z"/><path id="SVGID-2" class="cls-1" d="M139.51821,6.9915h.57486V123.97635h-.57486Z"/><rect class="cls-1" x="139.51821" y="6.99151" width="0.57486" height="116.98486"/><rect class="cls-1" x="139.51821" y="6.99151" width="0.57486" height="116.98486"/><g class="cls-5"><path class="cls-1" d="M139.51821,6.9915h.57486V123.97635h-.57486Z"/></g><path class="cls-1" d="M103.17435,153.52436H99.72517L94.149,143.86664H94.0915c.115,1.72459.17246,2.9318.17246,3.67914v6.03607H91.84953V140.76238h3.44918l5.57618,9.60023h.05749c-.115-1.66711-.115-2.81683-.115-3.50668v-6.03607h2.41443v12.7045ZM115.074,148.638a5.16855,5.16855,0,0,1-1.2647,3.73662,4.51182,4.51182,0,0,1-3.50668,1.32218,4.93407,4.93407,0,0,1-2.47192-.63235,4.182,4.182,0,0,1-1.6671-1.78208,5.67906,5.67906,0,0,1-.57486-2.70187,5.16848,5.16848,0,0,1,1.2647-3.73662,4.7248,4.7248,0,0,1,3.50667-1.32219,4.934,4.934,0,0,1,2.47192.63236,4.18172,4.18172,0,0,1,1.6671,1.78208,5.67912,5.67912,0,0,1,.57487,2.70186Zm-6.72591,0a4.26243,4.26243,0,0,0,.45989,2.18448,1.78266,1.78266,0,0,0,1.55213.74732,1.71985,1.71985,0,0,0,1.55213-.74732,5.41809,5.41809,0,0,0,0-4.369,1.98548,1.98548,0,0,0-3.10426,0A3.7473,3.7473,0,0,0,108.34813,148.638Zm14.42909-5.0588a4.36188,4.36188,0,0,1,.91979.05749l-.23,2.5294a2.9961,2.9961,0,0,0-.8048-.115,3.11824,3.11824,0,0,0-2.012.63235,2.42736,2.42736,0,0,0-.68983,1.83957v5.00133H117.316v-9.77269h2.012l.40241,1.6671h.115a3.35007,3.35007,0,0,1,1.20722-1.32219,3.04158,3.04158,0,0,1,1.72459-.51737Zm6.7834,7.99062a6.75581,6.75581,0,0,0,1.6671-.28744v2.012a6.32142,6.32142,0,0,1-2.47192.45988,3.15181,3.15181,0,0,1-2.35694-.8048,3.55968,3.55968,0,0,1-.74733-2.41444v-4.71388h-1.2647v-1.14973l1.49465-.91979.74733-2.06951h1.72459v2.06951h2.75935v2.012H128.3534v4.71388a1.0845,1.0845,0,0,0,.34492.8623,1.38545,1.38545,0,0,0,.8623.22994Zm12.7045,1.95453h-2.64438v-5.69115c0-1.43716-.51737-2.127-1.55213-2.127a1.75784,1.75784,0,0,0-1.60962.74733,4.52257,4.52257,0,0,0-.51738,2.47191v4.59891h-2.64437V139.90008h2.64437v2.75935c0,.22994,0,.74733-.05749,1.49465l-.115.8623h.115a3.03335,3.03335,0,0,1,2.81684-1.43716,3.53178,3.53178,0,0,1,2.64437.91978,3.77679,3.77679,0,0,1,.91979,2.64438v6.381Zm15.40636,0-.91979-3.04677h-4.6564l-.91979,3.04677h-2.93181l4.54143-12.81947h3.3342l4.54143,12.81947Zm-1.55214-5.34623c-.8623-2.75935-1.32218-4.31148-1.43716-4.6564s-.17245-.63236-.22994-.8623c-.17245.74733-.74732,2.58689-1.66711,5.5187Zm14.659,5.34623H168.134v-5.69115a3.18753,3.18753,0,0,0-.34493-1.60962,1.26251,1.26251,0,0,0-1.09223-.51738,1.62274,1.62274,0,0,0-1.49465.74733,5.21789,5.21789,0,0,0-.45989,2.47191v4.59891h-2.64438v-9.77269h2.012l.34492,1.2647h.17245a2.51674,2.51674,0,0,1,1.14973-1.03476,4.22505,4.22505,0,0,1,1.72459-.4024,3.086,3.086,0,0,1,2.9893,1.43716h.23a2.51662,2.51662,0,0,1,1.14972-1.03476,4.22478,4.22478,0,0,1,1.7246-.4024,3.45856,3.45856,0,0,1,2.52939.86229,3.77947,3.77947,0,0,1,.8623,2.75935v6.381H174.285V147.8907a3.18773,3.18773,0,0,0-.34492-1.60962,1.26253,1.26253,0,0,0-1.09224-.51738,1.60442,1.60442,0,0,0-1.43716.68984,3.83939,3.83939,0,0,0-.45988,2.242v4.82886Zm13.22187.17245a4.58539,4.58539,0,0,1-5.00132-5.00132,5.36936,5.36936,0,0,1,1.20721-3.79411,4.25863,4.25863,0,0,1,3.3917-1.32219,4.205,4.205,0,0,1,3.21924,1.20722,4.63963,4.63963,0,0,1,1.14973,3.27672v1.32218H181.6433a2.62532,2.62532,0,0,0,.68985,1.78209,2.49,2.49,0,0,0,1.78208.63235,7.8045,7.8045,0,0,0,1.6671-.17245,11.52094,11.52094,0,0,0,1.6671-.57487V153.122a6.56535,6.56535,0,0,1-1.49465.51737C185.43741,153.63932,184.80506,153.69681,184.00025,153.69681Zm-.34492-8.22056a1.6494,1.6494,0,0,0-1.32218.51738,2.396,2.396,0,0,0-.57487,1.55213h3.73662a2.30084,2.30084,0,0,0-.51737-1.55213,1.64942,1.64942,0,0,0-1.32218-.51738ZM195.67,143.5792a4.36188,4.36188,0,0,1,.91979.05749l-.22994,2.5294a2.99623,2.99623,0,0,0-.80481-.115,3.11821,3.11821,0,0,0-2.012.63234,2.42748,2.42748,0,0,0-.68985,1.83957v5.00133h-2.64437v-9.77269h2.012l.40241,1.6671h.115a3.35014,3.35014,0,0,1,1.20722-1.32219,3.04168,3.04168,0,0,1,1.72459-.51737Zm2.5294-2.35695c0-.86229.45989-1.32219,1.43716-1.32219s1.43716.4599,1.43716,1.32219a1.35225,1.35225,0,0,1-.34492.97727,1.55627,1.55627,0,0,1-1.09224.34492c-.9198,0-1.43716-.45987-1.43716-1.32217Zm2.81683,12.30209h-2.64437v-9.77269h2.64437Zm6.72592.17245c-3.04677,0-4.54142-1.6671-4.54142-5.00132a5.13323,5.13323,0,0,1,1.26471-3.79411,4.68334,4.68334,0,0,1,3.56416-1.32219,6.60275,6.60275,0,0,1,3.04677.68984l-.8048,2.06951c-.40241-.17246-.80481-.28743-1.14973-.4024a3.60973,3.60973,0,0,0-1.09224-.17246q-2.06954,0-2.06951,2.93181c0,1.897.68984,2.87432,2.06951,2.87432a3.969,3.969,0,0,0,1.43716-.22994,4.62462,4.62462,0,0,0,1.32218-.63236V153.007a4.40435,4.40435,0,0,1-1.32218.57486,13.584,13.584,0,0,1-1.72459.115Zm11.49728-.17245-.51737-1.32218h-.05749a3.4968,3.4968,0,0,1-1.37967,1.14973,4.2,4.2,0,0,1-1.83957.34492,3.24081,3.24081,0,0,1-2.242-.8048,3.19134,3.19134,0,0,1-.80481-2.29946,2.57245,2.57245,0,0,1,1.09224-2.29946,6.23129,6.23129,0,0,1,3.27674-.8048l1.72459-.05749v-.40242a1.33674,1.33674,0,0,0-1.49465-1.49465,6.9281,6.9281,0,0,0-2.75934.68984l-.8623-1.782a8.12384,8.12384,0,0,1,3.73662-.86229,4.80312,4.80312,0,0,1,3.04677.86229,3.17486,3.17486,0,0,1,1.03475,2.5869v6.496h-1.95454Zm-.8048-4.54142-1.03475.05749a3.308,3.308,0,0,0-1.72459.40241,1.21724,1.21724,0,0,0-.57487,1.14973c0,.74732.45989,1.14973,1.32218,1.14973a2.14917,2.14917,0,0,0,1.49465-.51738,1.94256,1.94256,0,0,0,.57487-1.43716v-.8048Z"/><path class="cls-1" d="M236.80228,153.41859h-8.86436v-1.86494l3.18308-3.21789q1.4139-1.44838,1.84754-2.00753a4.40679,4.40679,0,0,0,.62427-1.03689,2.632,2.632,0,0,0,.19085-.98861,1.4422,1.4422,0,0,0-.42048-1.13626,1.63183,1.63183,0,0,0-1.12334-.37276,3.23522,3.23522,0,0,0-1.431.338,7.40669,7.40669,0,0,0-1.44839.96278l-1.45737-1.72574a9.49123,9.49123,0,0,1,1.55281-1.12783,5.72549,5.72549,0,0,1,1.344-.5075,6.89851,6.89851,0,0,1,1.63084-.1774,4.8294,4.8294,0,0,1,2.099.43339,3.34838,3.34838,0,0,1,1.4136,1.21429,3.22772,3.22772,0,0,1,.503,1.78691,4.3826,4.3826,0,0,1-.30765,1.64375,6.31333,6.31333,0,0,1-.95436,1.57413,23.27258,23.27258,0,0,1-2.27646,2.2983l-1.63084,1.5354v.12126h5.52521Z"/><path class="cls-1" d="M246.87194,147.07826a8.83764,8.83764,0,0,1-1.08853,4.91778,3.77732,3.77732,0,0,1-3.352,1.596,3.73287,3.73287,0,0,1-3.30884-1.64768,8.71177,8.71177,0,0,1-1.11492-4.86614,8.92,8.92,0,0,1,1.08461-4.9481,4.21589,4.21589,0,0,1,6.65641.07354A8.7313,8.7313,0,0,1,246.87194,147.07826Zm-6.20168,0a9.86245,9.86245,0,0,0,.40364,3.34364,1.3968,1.3968,0,0,0,1.35744,1.01051,1.41109,1.41109,0,0,0,1.35295-1.02342,13.53918,13.53918,0,0,0-.00449-6.68279,1.40451,1.40451,0,0,0-2.70141,0A9.82994,9.82994,0,0,0,240.67026,147.07826Z"/><path class="cls-1" d="M257.08083,153.41859h-8.86436v-1.86494l3.18309-3.21789q1.41388-1.44838,1.84754-2.00753a4.40675,4.40675,0,0,0,.62426-1.03689,2.63182,2.63182,0,0,0,.19086-.98861,1.4422,1.4422,0,0,0-.42048-1.13626,1.63184,1.63184,0,0,0-1.12335-.37276,3.23521,3.23521,0,0,0-1.431.338,7.40639,7.40639,0,0,0-1.44839.96278l-1.45737-1.72574a9.4908,9.4908,0,0,1,1.55281-1.12783,5.72549,5.72549,0,0,1,1.344-.5075,6.89851,6.89851,0,0,1,1.63084-.1774,4.82943,4.82943,0,0,1,2.099.43339,3.34857,3.34857,0,0,1,1.4136,1.21429,3.228,3.228,0,0,1,.503,1.78691,4.38259,4.38259,0,0,1-.30764,1.64375,6.31333,6.31333,0,0,1-.95436,1.57413,23.27258,23.27258,0,0,1-2.27646,2.2983l-1.63084,1.5354v.12126h5.52521Z"/><path id="SVGID-3" class="cls-1" d="M281.27971,146.53976H354v.57487H281.27971Z"/><rect class="cls-1" x="281.27971" y="146.53976" width="72.72029" height="0.57486"/><rect class="cls-1" x="281.27971" y="146.53976" width="72.72029" height="0.57486"/><g class="cls-6"><path class="cls-1" d="M281.27971,146.53976H354v.57487H281.27971Z"/></g><path class="cls-1" d="M264.80719,153.899h-2.90212v-7.94527l.0281-1.30556.04695-1.4274q-.72321.72321-1.005.94839l-1.5777,1.268-1.39949-1.74686,4.42363-3.522h2.38559Z"/></svg>