<svg xmlns="http://www.w3.org/2000/svg" xmlns:xlink="http://www.w3.org/1999/xlink" viewBox="0 0 386.86 590.41"><defs><style>.cls-1,.cls-2,.cls-3{fill:#fff;}.cls-1{clip-rule:evenodd;}.cls-3{fill-rule:evenodd;}.cls-4{clip-path:url(#clip-path);}.cls-5{clip-path:url(#clip-path-2);}.cls-6{clip-path:url(#clip-path-3);}.cls-7{clip-path:url(#clip-path-4);}.cls-8{clip-path:url(#clip-path-5);}.cls-9{clip-path:url(#clip-path-6);}.cls-10{clip-path:url(#clip-path-7);}.cls-11{clip-path:url(#clip-path-8);}.cls-12{clip-path:url(#clip-path-9);}.cls-13{clip-path:url(#clip-path-10);}</style><clipPath id="clip-path"><path class="cls-1" d="M81.27,86.65A17.94,17.94,0,1,1,94.75,56.9a3,3,0,0,1-.26,4.18,2.93,2.93,0,0,1-4.18-.25,12,12,0,1,0,0,15.76,2.93,2.93,0,0,1,4.18-.25,3,3,0,0,1,.26,4.18,17.91,17.91,0,0,1-13.48,6.13"/></clipPath><clipPath id="clip-path-2"><path class="cls-1" d="M114.7,62.1a3,3,0,0,1-3,3c-3.27,0-5.72,2.66-5.72,6.28V83.69a3,3,0,1,1-5.92,0V61.49a3,3,0,0,1,5.82-.77,11.41,11.41,0,0,1,5.82-1.58,3,3,0,0,1,3,3"/></clipPath><clipPath id="clip-path-3"><path class="cls-1" d="M129.75,86.8a14.06,14.06,0,1,1,14.08-14,14.05,14.05,0,0,1-14.08,14m0-22.2a8.14,8.14,0,1,0,8.11,8.17,8.15,8.15,0,0,0-8.11-8.17"/></clipPath><clipPath id="clip-path-4"><path class="cls-1" d="M148.73,81.49a3,3,0,1,1,5.36-2.5,3.73,3.73,0,0,0,3.52,1.74c2.76,0,3.73-1.69,3.73-2.81,0-1.53-.41-2-4.39-3A16,16,0,0,1,151.74,73a7.18,7.18,0,0,1-3.31-6.22,8,8,0,0,1,2.5-5.72,9.46,9.46,0,0,1,6.68-2.55c3.78,0,7,1.84,8.37,4.85a3,3,0,1,1-5.36,2.5,3.13,3.13,0,0,0-3-1.43c-2.35,0-3.22,1.48-3.22,2.35,0,1,.21,1.42,4,2.39,3.31.82,8.87,2.2,8.87,8.73a8.57,8.57,0,0,1-2.55,6,9.86,9.86,0,0,1-7.09,2.71c-4,0-7.45-2-8.88-5.16"/></clipPath><clipPath id="clip-path-5"><path class="cls-1" d="M172.15,81.49a3,3,0,0,1,5.36-2.5A3.73,3.73,0,0,0,181,80.73c2.76,0,3.73-1.69,3.73-2.81,0-1.53-.41-2-4.39-3A16,16,0,0,1,175.16,73a7.18,7.18,0,0,1-3.31-6.22,8,8,0,0,1,2.5-5.72A9.46,9.46,0,0,1,181,58.53c3.78,0,7,1.84,8.37,4.85a3,3,0,1,1-5.36,2.5c-.3-.67-1.27-1.43-3-1.43-2.35,0-3.21,1.48-3.21,2.35,0,1,.2,1.42,4,2.39,3.31.82,8.88,2.2,8.88,8.73a8.58,8.58,0,0,1-2.56,6A9.86,9.86,0,0,1,181,86.65c-4,0-7.45-2-8.88-5.16"/></clipPath><clipPath id="clip-path-6"><path class="cls-1" d="M222,72.56a14.34,14.34,0,0,1-3.68,9.85,13,13,0,0,1-9.69,4.24,13.29,13.29,0,0,1-7.4-2.25v12a3,3,0,0,1-3,3,3,3,0,0,1-3-3V61.49a3,3,0,0,1,3-3,3,3,0,0,1,2.91,2.3,13.38,13.38,0,0,1,7.5-2.3,13,13,0,0,1,9.69,4.18A14.47,14.47,0,0,1,222,72.56m-5.92,0c0-4.69-3.12-8.11-7.45-8.11s-7.4,3.42-7.4,8.11,3.11,8.12,7.4,8.12,7.45-3.42,7.45-8.12"/></clipPath><clipPath id="clip-path-7"><path class="cls-1" d="M229.81,86.65a3,3,0,0,1-3-3V53.78a3,3,0,0,1,3-3,3,3,0,0,1,3,3V83.69a3,3,0,0,1-3,3"/></clipPath><clipPath id="clip-path-8"><path class="cls-1" d="M264.41,61.49v22.2a3,3,0,0,1-5.87.66,13.17,13.17,0,0,1-7.5,2.3,12.87,12.87,0,0,1-9.7-4.24,15,15,0,0,1,0-19.64,12.87,12.87,0,0,1,9.7-4.24,13.17,13.17,0,0,1,7.5,2.3,3,3,0,0,1,5.87.66m-5.92,11.12c0-4.74-3.16-8.16-7.45-8.16s-7.45,3.42-7.45,8.16,3.11,8.12,7.45,8.12,7.45-3.42,7.45-8.12"/></clipPath><clipPath id="clip-path-9"><path class="cls-1" d="M292.83,70.73v13a3,3,0,0,1-6,0v-13c0-3-1.68-6.28-5.46-6.28a6,6,0,0,0-6,6.28v13a3,3,0,1,1-5.92,0V61.49a3,3,0,0,1,3-3,2.91,2.91,0,0,1,2.7,1.74,11.6,11.6,0,0,1,6.23-1.74c6.48,0,11.43,5.26,11.43,12.2"/></clipPath><clipPath id="clip-path-10"><path class="cls-1" d="M310.79,86.9a13,13,0,0,1-9.69-4.39,14.21,14.21,0,0,1-3.68-9.79c0-8.07,5.67-14.09,13.12-14.09s13,5.92,13,14.09a3,3,0,0,1-3,3H303.8a7.36,7.36,0,0,0,7,5.3,6.82,6.82,0,0,0,4.91-1.58,5.5,5.5,0,0,0,1-1.28,3,3,0,1,1,5.1,3.07c-2.29,4.13-6.27,5.71-11,5.71m-7-17.19h13.42a6.77,6.77,0,0,0-6.63-5.16,7,7,0,0,0-6.79,5.16"/></clipPath></defs><g id="Layer_2" data-name="Layer 2"><g id="Layer_1-2" data-name="Layer 1"><path class="cls-2" d="M340.21,10a36.65,36.65,0,0,1,36.65,36.65v497.1a36.65,36.65,0,0,1-36.65,36.66H46.65A36.65,36.65,0,0,1,10,543.75V46.65A36.65,36.65,0,0,1,46.65,10H340.21m0-10H46.65A46.71,46.71,0,0,0,0,46.65v497.1a46.71,46.71,0,0,0,46.65,46.66H340.21a46.71,46.71,0,0,0,46.65-46.66V46.65A46.71,46.71,0,0,0,340.21,0Z"/><path class="cls-3" d="M81.27,86.65A17.94,17.94,0,1,1,94.75,56.9a3,3,0,0,1-.26,4.18,2.93,2.93,0,0,1-4.18-.25,12,12,0,1,0,0,15.76,2.93,2.93,0,0,1,4.18-.25,3,3,0,0,1,.26,4.18,17.91,17.91,0,0,1-13.48,6.13"/><g class="cls-4"><rect class="cls-2" x="60.63" y="48.04" width="37.59" height="41.34"/></g><path class="cls-3" d="M114.7,62.1a3,3,0,0,1-3,3c-3.27,0-5.72,2.66-5.72,6.28V83.69a3,3,0,1,1-5.92,0V61.49a3,3,0,0,1,5.82-.77,11.41,11.41,0,0,1,5.82-1.58,3,3,0,0,1,3,3"/><g class="cls-5"><rect class="cls-2" x="97.32" y="55.8" width="20.11" height="33.58"/></g><path class="cls-3" d="M129.75,86.8a14.06,14.06,0,1,1,14.08-14,14.05,14.05,0,0,1-14.08,14m0-22.2a8.14,8.14,0,1,0,8.11,8.17,8.15,8.15,0,0,0-8.11-8.17"/><g class="cls-6"><rect class="cls-2" x="112.98" y="55.95" width="33.58" height="33.58"/></g><path class="cls-3" d="M148.73,81.49a3,3,0,1,1,5.36-2.5,3.73,3.73,0,0,0,3.52,1.74c2.76,0,3.73-1.69,3.73-2.81,0-1.53-.41-2-4.39-3A16,16,0,0,1,151.74,73a7.18,7.18,0,0,1-3.31-6.22,8,8,0,0,1,2.5-5.72,9.46,9.46,0,0,1,6.68-2.55c3.78,0,7,1.84,8.37,4.85a3,3,0,1,1-5.36,2.5,3.13,3.13,0,0,0-3-1.43c-2.35,0-3.22,1.48-3.22,2.35,0,1,.21,1.42,4,2.39,3.31.82,8.87,2.2,8.87,8.73a8.57,8.57,0,0,1-2.55,6,9.86,9.86,0,0,1-7.09,2.71c-4,0-7.45-2-8.88-5.16"/><g class="cls-7"><rect class="cls-2" x="145.69" y="55.8" width="24.3" height="33.58"/></g><path class="cls-3" d="M172.15,81.49a3,3,0,0,1,5.36-2.5A3.73,3.73,0,0,0,181,80.73c2.76,0,3.73-1.69,3.73-2.81,0-1.53-.41-2-4.39-3A16,16,0,0,1,175.16,73a7.18,7.18,0,0,1-3.31-6.22,8,8,0,0,1,2.5-5.72A9.46,9.46,0,0,1,181,58.53c3.78,0,7,1.84,8.37,4.85a3,3,0,1,1-5.36,2.5c-.3-.67-1.27-1.43-3-1.43-2.35,0-3.21,1.48-3.21,2.35,0,1,.2,1.42,4,2.39,3.31.82,8.88,2.2,8.88,8.73a8.58,8.58,0,0,1-2.56,6A9.86,9.86,0,0,1,181,86.65c-4,0-7.45-2-8.88-5.16"/><g class="cls-8"><rect class="cls-2" x="169.11" y="55.8" width="24.3" height="33.58"/></g><path class="cls-3" d="M222,72.56a14.34,14.34,0,0,1-3.68,9.85,13,13,0,0,1-9.69,4.24,13.29,13.29,0,0,1-7.4-2.25v12a3,3,0,0,1-3,3,3,3,0,0,1-3-3V61.49a3,3,0,0,1,3-3,3,3,0,0,1,2.91,2.3,13.38,13.38,0,0,1,7.5-2.3,13,13,0,0,1,9.69,4.18A14.47,14.47,0,0,1,222,72.56m-5.92,0c0-4.69-3.12-8.11-7.45-8.11s-7.4,3.42-7.4,8.11,3.11,8.12,7.4,8.12,7.45-3.42,7.45-8.12"/><g class="cls-9"><rect class="cls-2" x="192.53" y="55.8" width="32.21" height="46.34"/></g><path class="cls-3" d="M229.81,86.65a3,3,0,0,1-3-3V53.78a3,3,0,0,1,3-3,3,3,0,0,1,3,3V83.69a3,3,0,0,1-3,3"/><g class="cls-10"><rect class="cls-2" x="224.12" y="48.09" width="11.44" height="41.29"/></g><path class="cls-3" d="M264.41,61.49v22.2a3,3,0,0,1-5.87.66,13.17,13.17,0,0,1-7.5,2.3,12.87,12.87,0,0,1-9.7-4.24,15,15,0,0,1,0-19.64,12.87,12.87,0,0,1,9.7-4.24,13.17,13.17,0,0,1,7.5,2.3,3,3,0,0,1,5.87.66m-5.92,11.12c0-4.74-3.16-8.16-7.45-8.16s-7.45,3.42-7.45,8.16,3.11,8.12,7.45,8.12,7.45-3.42,7.45-8.12"/><g class="cls-11"><rect class="cls-2" x="234.94" y="55.8" width="32.21" height="33.58"/></g><path class="cls-3" d="M292.83,70.73v13a3,3,0,0,1-6,0v-13c0-3-1.68-6.28-5.46-6.28a6,6,0,0,0-6,6.28v13a3,3,0,1,1-5.92,0V61.49a3,3,0,0,1,3-3,2.91,2.91,0,0,1,2.7,1.74,11.6,11.6,0,0,1,6.23-1.74c6.48,0,11.43,5.26,11.43,12.2"/><g class="cls-12"><rect class="cls-2" x="266.78" y="55.8" width="28.79" height="33.58"/></g><path class="cls-3" d="M310.79,86.9a13,13,0,0,1-9.69-4.39,14.21,14.21,0,0,1-3.68-9.79c0-8.07,5.67-14.09,13.12-14.09s13,5.92,13,14.09a3,3,0,0,1-3,3H303.8a7.36,7.36,0,0,0,7,5.3,6.82,6.82,0,0,0,4.91-1.58,5.5,5.5,0,0,0,1-1.28,3,3,0,1,1,5.1,3.07c-2.29,4.13-6.27,5.71-11,5.71m-7-17.19h13.42a6.77,6.77,0,0,0-6.63-5.16,7,7,0,0,0-6.79,5.16"/><g class="cls-13"><rect class="cls-2" x="294.69" y="55.9" width="31.54" height="33.74"/></g><path class="cls-2" d="M303.65,498.43a7,7,0,0,0,2.14-2.68,9.48,9.48,0,0,0,.78-4.06,8,8,0,0,0-.78-3.62,7.33,7.33,0,0,0-2.1-2.54,9.42,9.42,0,0,0-3.1-1.5,13.9,13.9,0,0,0-3.74-.5h-3.68v16.8h3.24a17.08,17.08,0,0,0,4-.44A8.56,8.56,0,0,0,303.65,498.43Z"/><path class="cls-2" d="M48.77,535.53a9.42,9.42,0,0,0-3.1-1.5,13.84,13.84,0,0,0-3.74-.5H38.25v16.8h3.24a17.08,17.08,0,0,0,4-.44,8.49,8.49,0,0,0,3.22-1.46,7,7,0,0,0,2.14-2.68,9.48,9.48,0,0,0,.78-4.06,8,8,0,0,0-.78-3.62A7.33,7.33,0,0,0,48.77,535.53Z"/><path class="cls-2" d="M150.05,533.63a5.09,5.09,0,0,0-1.56-.46,12.76,12.76,0,0,0-1.72-.12h-4.08v6.44h3.68c.56,0,1.16,0,1.78-.06a5.51,5.51,0,0,0,1.7-.36,2.88,2.88,0,0,0,1.26-.94,2.8,2.8,0,0,0,.5-1.8,3,3,0,0,0-.44-1.72A2.94,2.94,0,0,0,150.05,533.63Z"/><path class="cls-2" d="M150.49,483.63a5.09,5.09,0,0,0-1.56-.46,12.76,12.76,0,0,0-1.72-.12h-4.08v6.44h3.68c.56,0,1.15,0,1.78-.06a5.51,5.51,0,0,0,1.7-.36,2.66,2.66,0,0,0,1.76-2.74,3,3,0,0,0-.44-1.72A2.94,2.94,0,0,0,150.49,483.63Z"/><path class="cls-2" d="M195.81,544.93a6.59,6.59,0,0,0-1.64-.44,12.18,12.18,0,0,0-1.64-.12h-4.72v6.44h5.6a6.66,6.66,0,0,0,1.46-.16,3.71,3.71,0,0,0,1.34-.56,3.06,3.06,0,0,0,1-1,3,3,0,0,0,.38-1.56,2.55,2.55,0,0,0-.5-1.62A3.22,3.22,0,0,0,195.81,544.93Z"/><path class="cls-2" d="M193.75,538.93a3.73,3.73,0,0,0,1.26-.52,2.77,2.77,0,0,0,.9-1,2.84,2.84,0,0,0,.34-1.44,2.58,2.58,0,0,0-.38-1.46,2.73,2.73,0,0,0-1-.9,5,5,0,0,0-1.36-.46,8.5,8.5,0,0,0-1.48-.14h-4.24v6h4.52A6.18,6.18,0,0,0,193.75,538.93Z"/><path class="cls-2" d="M10,444.76v102.8a32.85,32.85,0,0,0,32.85,32.85H344a32.85,32.85,0,0,0,32.85-32.85V444.76Zm247.09,33h19.24v5.76h-13v5.28h12.28v5.76H263.33v5.76h13.72v5.76h-20Zm-45.32,0h19v5.76H218v5.76h11.8v5.76H218v11h-6.24Zm-15.44,0h6.24v28.32h-6.24Zm-88.48,0h19.24v5.76h-13v5.28h12.28v5.76H114.09v5.76h13.72v5.76h-20Zm-51,70.3a12.93,12.93,0,0,1-3.5,4.4,15.29,15.29,0,0,1-5.08,2.7,19.51,19.51,0,0,1-6,.92H32V527.77h9.36a27,27,0,0,1,6.46.76A14.89,14.89,0,0,1,53.17,531a12.1,12.1,0,0,1,3.62,4.42,14.77,14.77,0,0,1,1.34,6.6A13.38,13.38,0,0,1,56.83,548.07Zm15,8H65.57V527.77h6.24Zm26.4-4.48a8.2,8.2,0,0,1-2.38,2.92,10,10,0,0,1-3.48,1.72,15,15,0,0,1-4.18.56,15.19,15.19,0,0,1-5.12-.84,12.76,12.76,0,0,1-4.4-2.72l4.44-4.88a6.38,6.38,0,0,0,2.42,2,6.8,6.8,0,0,0,4.56.52,5,5,0,0,0,1.4-.54,3,3,0,0,0,1-.92,2.3,2.3,0,0,0,.38-1.32,2.42,2.42,0,0,0-1-2,9.12,9.12,0,0,0-2.46-1.26c-1-.34-2-.69-3.2-1a13.92,13.92,0,0,1-3.2-1.4,7.67,7.67,0,0,1-2.46-2.32,6.65,6.65,0,0,1-1-3.8,8.52,8.52,0,0,1,.9-4,8.81,8.81,0,0,1,2.4-2.88,10.53,10.53,0,0,1,3.46-1.74,14.4,14.4,0,0,1,4-.58,16,16,0,0,1,4.64.68,10.91,10.91,0,0,1,4,2.28l-4.28,4.68a4.47,4.47,0,0,0-2.06-1.42,7.59,7.59,0,0,0-2.46-.46,6.91,6.91,0,0,0-1.4.16,5.83,5.83,0,0,0-1.36.5,3,3,0,0,0-1,.9,2.28,2.28,0,0,0-.4,1.36,2.24,2.24,0,0,0,1,2,8.94,8.94,0,0,0,2.42,1.16c1,.32,2,.64,3.14,1a13.14,13.14,0,0,1,3.14,1.36,7.57,7.57,0,0,1,2.42,2.36,7.21,7.21,0,0,1,1,4A9,9,0,0,1,98.21,551.61Zm-3.44-46a14.1,14.1,0,0,1-5.68,1.2,17.32,17.32,0,0,1-6.12-1,13.92,13.92,0,0,1-4.84-3,13.48,13.48,0,0,1-3.18-4.7,17.21,17.21,0,0,1,0-12.32,13.57,13.57,0,0,1,3.18-4.7,14.22,14.22,0,0,1,4.84-3,17.55,17.55,0,0,1,6.12-1,15.76,15.76,0,0,1,2.5.22,13.69,13.69,0,0,1,2.56.7,11.48,11.48,0,0,1,2.42,1.28,9.64,9.64,0,0,1,2.08,2l-4.8,3.92a6.19,6.19,0,0,0-2.26-1.72,7.52,7.52,0,0,0-3.1-.6,7.87,7.87,0,0,0-3.26.68,8,8,0,0,0-2.6,1.9,8.92,8.92,0,0,0-1.72,2.9,10.54,10.54,0,0,0-.62,3.64,10.41,10.41,0,0,0,.62,3.66,9,9,0,0,0,1.7,2.88,7.6,7.6,0,0,0,2.54,1.9,7.27,7.27,0,0,0,3.14.68,6.94,6.94,0,0,0,3.4-.8A6.71,6.71,0,0,0,94.13,498l5.2,3.88A10.83,10.83,0,0,1,94.77,505.61Zm33.64,27.68h-8.08v22.8h-6.24v-22.8H106v-5.52h22.4Zm23.28,22.8-5.92-11.32h-3.08v11.32h-6.24V527.77h11a19.32,19.32,0,0,1,4.1.42,9.79,9.79,0,0,1,3.4,1.4,7.08,7.08,0,0,1,2.32,2.64,9,9,0,0,1,.86,4.14,8.31,8.31,0,0,1-1.56,5.1,7,7,0,0,1-4.56,2.66l7.2,12Zm.44-50-5.92-11.32h-3.08v11.32h-6.24V477.77h11a19.32,19.32,0,0,1,4.1.42,9.79,9.79,0,0,1,3.4,1.4,7.08,7.08,0,0,1,2.32,2.64,9,9,0,0,1,.86,4.14,8.31,8.31,0,0,1-1.56,5.1,7,7,0,0,1-4.56,2.66l7.2,12Zm20.48,50h-6.24V527.77h6.24Zm6.88-50h-6.24v-22.8h-8.08v-5.52h22.4v5.52h-8.08ZM202.85,552a7.55,7.55,0,0,1-2.48,2.42,10.51,10.51,0,0,1-3.42,1.32,18.13,18.13,0,0,1-3.78.4h-11.6V527.77h10.56a27.19,27.19,0,0,1,3.7.26,10.29,10.29,0,0,1,3.34,1,6.37,6.37,0,0,1,2.4,2.18,6.74,6.74,0,0,1,.92,3.72,5.9,5.9,0,0,1-1.34,4,7.27,7.27,0,0,1-3.54,2.26v.08a8.38,8.38,0,0,1,2.54.78,6.89,6.89,0,0,1,2,1.48,6.2,6.2,0,0,1,1.26,2.1,7.48,7.48,0,0,1,.44,2.56A6.79,6.79,0,0,1,202.85,552Zm31.8-6.78a13.56,13.56,0,0,1-.76,4.64,10,10,0,0,1-6,6.12,14,14,0,0,1-5.16.88,14.09,14.09,0,0,1-5.2-.88,10,10,0,0,1-6-6.12,13.56,13.56,0,0,1-.76-4.64v-17.4H217v17.16a6.87,6.87,0,0,0,.42,2.44,5.68,5.68,0,0,0,1.18,1.94,5.22,5.22,0,0,0,1.82,1.28,5.66,5.66,0,0,0,2.3.46,5.5,5.5,0,0,0,2.28-.46,5.24,5.24,0,0,0,1.8-1.28,5.68,5.68,0,0,0,1.18-1.94,6.87,6.87,0,0,0,.42-2.44V527.77h6.24Zm6.2-67.4h6.24v28.32h-6.24Zm24.24,55.52H257v22.8h-6.24v-22.8h-8.08v-5.52h22.4Zm14.2,22.8h-6.24V527.77h6.24Zm7.64-78.32h9.36a27,27,0,0,1,6.46.76,14.89,14.89,0,0,1,5.34,2.46,12.1,12.1,0,0,1,3.62,4.42,14.91,14.91,0,0,1,1.34,6.6,13.38,13.38,0,0,1-1.3,6.06,12.93,12.93,0,0,1-3.5,4.4,15.38,15.38,0,0,1-5.08,2.7,19.51,19.51,0,0,1-6,.92h-10.2Zm30.82,70.32a13.48,13.48,0,0,1-3.18,4.7,13.83,13.83,0,0,1-4.84,3,18.53,18.53,0,0,1-12.24,0,13.83,13.83,0,0,1-4.84-3,13.48,13.48,0,0,1-3.18-4.7,17.21,17.21,0,0,1,0-12.32,13.57,13.57,0,0,1,3.18-4.7,14.13,14.13,0,0,1,4.84-3,18.53,18.53,0,0,1,12.24,0,14.13,14.13,0,0,1,4.84,3,13.57,13.57,0,0,1,3.18,4.7,17.21,17.21,0,0,1,0,12.32Zm37.1,8h-8.16l-12.36-20.16h-.08v20.16H328V527.77h8.48l12,19.68h.08V527.77h6.24Z"/><path class="cls-2" d="M310,535.39a8.23,8.23,0,0,0-2.78-1.9,10,10,0,0,0-7.24,0,8.23,8.23,0,0,0-2.78,1.9,8.41,8.41,0,0,0-1.78,2.9,10.54,10.54,0,0,0-.62,3.64,10.41,10.41,0,0,0,.62,3.66,8.32,8.32,0,0,0,1.78,2.88,8,8,0,0,0,2.78,1.9,10,10,0,0,0,7.24,0,8,8,0,0,0,2.78-1.9,8.32,8.32,0,0,0,1.78-2.88,10.41,10.41,0,0,0,.62-3.66,10.54,10.54,0,0,0-.62-3.64A8.41,8.41,0,0,0,310,535.39Z"/><path class="cls-2" d="M175.11,405.81c0,9.26,7.94,16.77,17.74,16.77h0c9.79,0,17.73-7.51,17.73-16.77V365.32H175.11Z"/><path class="cls-2" d="M150.08,355.73a38.89,38.89,0,0,0,11.69,1.8h63.32A38.9,38.9,0,0,0,264,318.63v-75Z"/><path class="cls-2" d="M193.43,124.32h0a70.57,70.57,0,0,0-70.57,70.57v72.64L245.3,147.06A70.34,70.34,0,0,0,193.43,124.32Z"/><path class="cls-2" d="M264,195a70.19,70.19,0,0,0-13.63-41.65L122.85,278.77v40a38.85,38.85,0,0,0,19.3,33.59L264,232.44Z"/></g></g></svg>