<svg xmlns="http://www.w3.org/2000/svg" xmlns:xlink="http://www.w3.org/1999/xlink" viewBox="0 0 590.98 295.51"><defs><style>.cls-1,.cls-2,.cls-3{fill:#fff;}.cls-1{clip-rule:evenodd;}.cls-3{fill-rule:evenodd;}.cls-4{clip-path:url(#clip-path);}.cls-5{clip-path:url(#clip-path-2);}.cls-6{clip-path:url(#clip-path-3);}.cls-7{clip-path:url(#clip-path-4);}.cls-8{clip-path:url(#clip-path-5);}.cls-9{clip-path:url(#clip-path-6);}.cls-10{clip-path:url(#clip-path-7);}.cls-11{clip-path:url(#clip-path-8);}.cls-12{clip-path:url(#clip-path-9);}.cls-13{clip-path:url(#clip-path-10);}</style><clipPath id="clip-path"><path class="cls-1" d="M185.29,127.25a24.71,24.71,0,1,1,18.56-41A4.1,4.1,0,0,1,203.5,92a4,4,0,0,1-5.77-.35,16.48,16.48,0,1,0,0,21.72,4,4,0,0,1,5.77-.35,4.1,4.1,0,0,1,.35,5.76,24.67,24.67,0,0,1-18.56,8.44"/></clipPath><clipPath id="clip-path-2"><path class="cls-1" d="M231.33,93.44a4.09,4.09,0,0,1-4.15,4.07c-4.5,0-7.87,3.66-7.87,8.65v17a4.08,4.08,0,1,1-8.15,0V92.59a4.07,4.07,0,0,1,8-1,15.8,15.8,0,0,1,8-2.18,4.1,4.1,0,0,1,4.15,4.08"/></clipPath><clipPath id="clip-path-3"><path class="cls-1" d="M252.06,127.46a19.37,19.37,0,1,1,19.4-19.33,19.36,19.36,0,0,1-19.4,19.33m0-30.58a11.21,11.21,0,1,0,11.18,11.25,11.22,11.22,0,0,0-11.18-11.25"/></clipPath><clipPath id="clip-path-4"><path class="cls-1" d="M278.21,120.15a4.07,4.07,0,1,1,7.38-3.45c.56,1.13,2.11,2.39,4.85,2.39,3.79,0,5.13-2.32,5.13-3.86,0-2.11-.56-2.74-6-4.15a21.84,21.84,0,0,1-7.17-2.6,9.88,9.88,0,0,1-4.57-8.57A11.1,11.1,0,0,1,281.23,92a13,13,0,0,1,9.21-3.51c5.2,0,9.63,2.53,11.53,6.68a4.07,4.07,0,0,1-7.38,3.44c-.42-.91-1.76-2-4.15-2-3.23,0-4.43,2-4.43,3.24,0,1.4.28,2,5.48,3.3,4.57,1.12,12.23,3,12.23,12a11.83,11.83,0,0,1-3.51,8.29,13.63,13.63,0,0,1-9.77,3.73c-5.55,0-10.26-2.75-12.23-7.1"/></clipPath><clipPath id="clip-path-5"><path class="cls-1" d="M310.47,120.15a4.07,4.07,0,1,1,7.38-3.45c.56,1.13,2.11,2.39,4.85,2.39,3.8,0,5.13-2.32,5.13-3.86,0-2.11-.56-2.74-6-4.15a21.84,21.84,0,0,1-7.17-2.6,9.9,9.9,0,0,1-4.57-8.57A11.1,11.1,0,0,1,313.49,92a13,13,0,0,1,9.21-3.51c5.2,0,9.63,2.53,11.53,6.68a4.07,4.07,0,0,1-7.38,3.44c-.42-.91-1.76-2-4.15-2-3.23,0-4.43,2-4.43,3.24,0,1.4.28,2,5.49,3.3,4.56,1.12,12.22,3,12.22,12a11.83,11.83,0,0,1-3.51,8.29,13.63,13.63,0,0,1-9.77,3.73c-5.55,0-10.26-2.75-12.23-7.1"/></clipPath><clipPath id="clip-path-6"><path class="cls-1" d="M379.14,107.85a19.77,19.77,0,0,1-5.06,13.56,18,18,0,0,1-13.36,5.84,18.35,18.35,0,0,1-10.19-3.1v16.59a4.14,4.14,0,0,1-4.14,4.08,4.08,4.08,0,0,1-4.08-4.08V92.59a4.08,4.08,0,0,1,4.08-4.07,4.13,4.13,0,0,1,4,3.16,18.47,18.47,0,0,1,10.33-3.16,17.93,17.93,0,0,1,13.36,5.76,19.94,19.94,0,0,1,5.06,13.57m-8.15,0c0-6.47-4.29-11.18-10.27-11.18s-10.19,4.71-10.19,11.18S354.82,119,360.72,119,371,114.31,371,107.85"/></clipPath><clipPath id="clip-path-7"><path class="cls-1" d="M389.89,127.25a4.08,4.08,0,0,1-4.07-4.08V82a4.07,4.07,0,0,1,4.07-4.07A4.14,4.14,0,0,1,394,82v41.19a4.14,4.14,0,0,1-4.15,4.08"/></clipPath><clipPath id="clip-path-8"><path class="cls-1" d="M437.55,92.59v30.58a4.1,4.1,0,0,1-8.09.91,18.1,18.1,0,0,1-10.33,3.17,17.69,17.69,0,0,1-13.35-5.84,20.62,20.62,0,0,1,0-27.06,17.72,17.72,0,0,1,13.35-5.83,18.09,18.09,0,0,1,10.33,3.16,4.1,4.1,0,0,1,8.09.91m-8.16,15.33c0-6.54-4.35-11.25-10.26-11.25s-10.26,4.71-10.26,11.25,4.29,11.17,10.26,11.17,10.26-4.71,10.26-11.17"/></clipPath><clipPath id="clip-path-9"><path class="cls-1" d="M476.7,105.32v17.85a4.12,4.12,0,0,1-8.23,0V105.32c0-4.15-2.32-8.65-7.52-8.65-4.71,0-8.22,3.73-8.22,8.65v17.85a4.08,4.08,0,0,1-8.16,0V92.59a4.09,4.09,0,0,1,7.81-1.68A16,16,0,0,1,461,88.52c8.93,0,15.75,7.24,15.75,16.8"/></clipPath><clipPath id="clip-path-10"><path class="cls-1" d="M501.44,127.6a17.92,17.92,0,0,1-13.36-6A19.59,19.59,0,0,1,483,108.06c0-11.11,7.8-19.4,18.06-19.4s17.86,8.15,17.86,19.4a4.1,4.1,0,0,1-4.15,4.08h-23a10.14,10.14,0,0,0,9.63,7.3c2.75,0,5.08-.57,6.75-2.18a7,7,0,0,0,1.33-1.75,4.1,4.1,0,1,1,7,4.22c-3.17,5.69-8.65,7.87-15.11,7.87m-9.7-23.69h18.48a9.33,9.33,0,0,0-9.14-7.1,9.67,9.67,0,0,0-9.34,7.1"/></clipPath></defs><g id="Layer_2" data-name="Layer 2"><g id="Layer_1-2" data-name="Layer 1"><path class="cls-2" d="M549.2,10A31.78,31.78,0,0,1,581,41.78v212a31.78,31.78,0,0,1-31.78,31.78H41.78A31.78,31.78,0,0,1,10,253.73V41.78A31.78,31.78,0,0,1,41.78,10H549.2m0-10H41.78A41.82,41.82,0,0,0,0,41.78v212a41.83,41.83,0,0,0,41.78,41.78H549.2A41.83,41.83,0,0,0,591,253.73V41.78A41.82,41.82,0,0,0,549.2,0Z"/><path class="cls-3" d="M185.29,127.25a24.71,24.71,0,1,1,18.56-41A4.1,4.1,0,0,1,203.5,92a4,4,0,0,1-5.77-.35,16.48,16.48,0,1,0,0,21.72,4,4,0,0,1,5.77-.35,4.1,4.1,0,0,1,.35,5.76,24.67,24.67,0,0,1-18.56,8.44"/><g class="cls-4"><rect class="cls-2" x="156.85" y="74.07" width="51.78" height="56.95"/></g><path class="cls-3" d="M231.33,93.44a4.09,4.09,0,0,1-4.15,4.07c-4.5,0-7.87,3.66-7.87,8.65v17a4.08,4.08,0,1,1-8.15,0V92.59a4.07,4.07,0,0,1,8-1,15.8,15.8,0,0,1,8-2.18,4.1,4.1,0,0,1,4.15,4.08"/><g class="cls-5"><rect class="cls-2" x="207.39" y="84.75" width="27.71" height="46.26"/></g><path class="cls-3" d="M252.06,127.46a19.37,19.37,0,1,1,19.4-19.33,19.36,19.36,0,0,1-19.4,19.33m0-30.58a11.21,11.21,0,1,0,11.18,11.25,11.22,11.22,0,0,0-11.18-11.25"/><g class="cls-6"><rect class="cls-2" x="228.97" y="84.96" width="46.26" height="46.26"/></g><path class="cls-3" d="M278.21,120.15a4.07,4.07,0,1,1,7.38-3.45c.56,1.13,2.11,2.39,4.85,2.39,3.79,0,5.13-2.32,5.13-3.86,0-2.11-.56-2.74-6-4.15a21.84,21.84,0,0,1-7.17-2.6,9.88,9.88,0,0,1-4.57-8.57A11.1,11.1,0,0,1,281.23,92a13,13,0,0,1,9.21-3.51c5.2,0,9.63,2.53,11.53,6.68a4.07,4.07,0,0,1-7.38,3.44c-.42-.91-1.76-2-4.15-2-3.23,0-4.43,2-4.43,3.24,0,1.4.28,2,5.48,3.3,4.57,1.12,12.23,3,12.23,12a11.83,11.83,0,0,1-3.51,8.29,13.63,13.63,0,0,1-9.77,3.73c-5.55,0-10.26-2.75-12.23-7.1"/><g class="cls-7"><rect class="cls-2" x="274.02" y="84.75" width="33.47" height="46.26"/></g><path class="cls-3" d="M310.47,120.15a4.07,4.07,0,1,1,7.38-3.45c.56,1.13,2.11,2.39,4.85,2.39,3.8,0,5.13-2.32,5.13-3.86,0-2.11-.56-2.74-6-4.15a21.84,21.84,0,0,1-7.17-2.6,9.9,9.9,0,0,1-4.57-8.57A11.1,11.1,0,0,1,313.49,92a13,13,0,0,1,9.21-3.51c5.2,0,9.63,2.53,11.53,6.68a4.07,4.07,0,0,1-7.38,3.44c-.42-.91-1.76-2-4.15-2-3.23,0-4.43,2-4.43,3.24,0,1.4.28,2,5.49,3.3,4.56,1.12,12.22,3,12.22,12a11.83,11.83,0,0,1-3.51,8.29,13.63,13.63,0,0,1-9.77,3.73c-5.55,0-10.26-2.75-12.23-7.1"/><g class="cls-8"><rect class="cls-2" x="306.28" y="84.75" width="33.47" height="46.26"/></g><path class="cls-3" d="M379.14,107.85a19.77,19.77,0,0,1-5.06,13.56,18,18,0,0,1-13.36,5.84,18.35,18.35,0,0,1-10.19-3.1v16.59a4.14,4.14,0,0,1-4.14,4.08,4.08,4.08,0,0,1-4.08-4.08V92.59a4.08,4.08,0,0,1,4.08-4.07,4.13,4.13,0,0,1,4,3.16,18.47,18.47,0,0,1,10.33-3.16,17.93,17.93,0,0,1,13.36,5.76,19.94,19.94,0,0,1,5.06,13.57m-8.15,0c0-6.47-4.29-11.18-10.27-11.18s-10.19,4.71-10.19,11.18S354.82,119,360.72,119,371,114.31,371,107.85"/><g class="cls-9"><rect class="cls-2" x="338.54" y="84.75" width="44.36" height="63.83"/></g><path class="cls-3" d="M389.89,127.25a4.08,4.08,0,0,1-4.07-4.08V82a4.07,4.07,0,0,1,4.07-4.07A4.14,4.14,0,0,1,394,82v41.19a4.14,4.14,0,0,1-4.15,4.08"/><g class="cls-10"><rect class="cls-2" x="382.05" y="74.14" width="15.76" height="56.87"/></g><path class="cls-3" d="M437.55,92.59v30.58a4.1,4.1,0,0,1-8.09.91,18.1,18.1,0,0,1-10.33,3.17,17.69,17.69,0,0,1-13.35-5.84,20.62,20.62,0,0,1,0-27.06,17.72,17.72,0,0,1,13.35-5.83,18.09,18.09,0,0,1,10.33,3.16,4.1,4.1,0,0,1,8.09.91m-8.16,15.33c0-6.54-4.35-11.25-10.26-11.25s-10.26,4.71-10.26,11.25,4.29,11.17,10.26,11.17,10.26-4.71,10.26-11.17"/><g class="cls-11"><rect class="cls-2" x="396.95" y="84.75" width="44.36" height="46.26"/></g><path class="cls-3" d="M476.7,105.32v17.85a4.12,4.12,0,0,1-8.23,0V105.32c0-4.15-2.32-8.65-7.52-8.65-4.71,0-8.22,3.73-8.22,8.65v17.85a4.08,4.08,0,0,1-8.16,0V92.59a4.09,4.09,0,0,1,7.81-1.68A16,16,0,0,1,461,88.52c8.93,0,15.75,7.24,15.75,16.8"/><g class="cls-12"><rect class="cls-2" x="440.81" y="84.75" width="39.65" height="46.26"/></g><path class="cls-3" d="M501.44,127.6a17.92,17.92,0,0,1-13.36-6A19.59,19.59,0,0,1,483,108.06c0-11.11,7.8-19.4,18.06-19.4s17.86,8.15,17.86,19.4a4.1,4.1,0,0,1-4.15,4.08h-23a10.14,10.14,0,0,0,9.63,7.3c2.75,0,5.08-.57,6.75-2.18a7,7,0,0,0,1.33-1.75,4.1,4.1,0,1,1,7,4.22c-3.17,5.69-8.65,7.87-15.11,7.87m-9.7-23.69h18.48a9.33,9.33,0,0,0-9.14-7.1,9.67,9.67,0,0,0-9.34,7.1"/><g class="cls-13"><rect class="cls-2" x="479.26" y="84.89" width="43.45" height="46.47"/></g><path class="cls-2" d="M237.1,240.33a8.45,8.45,0,0,0-2.81-1.36,12.68,12.68,0,0,0-3.4-.45h-3.35v15.26h3a15.64,15.64,0,0,0,3.65-.4,7.87,7.87,0,0,0,2.93-1.33,6.33,6.33,0,0,0,1.94-2.43,8.7,8.7,0,0,0,.71-3.69,7.22,7.22,0,0,0-.71-3.29A6.62,6.62,0,0,0,237.1,240.33Z"/><path class="cls-2" d="M285.77,240.33A8.4,8.4,0,0,0,283,239a12.63,12.63,0,0,0-3.4-.45h-3.34v15.26h2.94a15.73,15.73,0,0,0,3.66-.4,7.83,7.83,0,0,0,2.92-1.33,6.35,6.35,0,0,0,1.95-2.43,8.7,8.7,0,0,0,.71-3.69,7.22,7.22,0,0,0-.71-3.29A6.73,6.73,0,0,0,285.77,240.33Z"/><path class="cls-2" d="M419,243.42a3.39,3.39,0,0,0,1.14-.47,2.53,2.53,0,0,0,.82-.87,2.7,2.7,0,0,0,.31-1.31,2.39,2.39,0,0,0-.35-1.33,2.5,2.5,0,0,0-.89-.82,4.14,4.14,0,0,0-1.23-.41,7,7,0,0,0-1.35-.13h-3.85v5.49h4.1A5.7,5.7,0,0,0,419,243.42Z"/><path class="cls-2" d="M379.25,238.61a4.37,4.37,0,0,0-1.42-.42,11.93,11.93,0,0,0-1.56-.11h-3.71v5.85h3.34c.51,0,1.05,0,1.62-.05a5.26,5.26,0,0,0,1.55-.33,2.68,2.68,0,0,0,1.14-.85,2.64,2.64,0,0,0,.45-1.64,2.75,2.75,0,0,0-.39-1.56A2.64,2.64,0,0,0,379.25,238.61Z"/><path class="cls-2" d="M420.83,248.87a6.4,6.4,0,0,0-1.49-.4,11.52,11.52,0,0,0-1.49-.1h-4.29v5.85h5.09a6.07,6.07,0,0,0,1.32-.15,3.4,3.4,0,0,0,1.22-.51,2.7,2.7,0,0,0,1.24-2.36,2.21,2.21,0,0,0-.46-1.47A2.88,2.88,0,0,0,420.83,248.87Z"/><path class="cls-2" d="M97.9,238.61a4.3,4.3,0,0,0-1.42-.42,11.93,11.93,0,0,0-1.56-.11H91.21v5.85h3.35c.5,0,1,0,1.61-.05a5.26,5.26,0,0,0,1.55-.33,2.68,2.68,0,0,0,1.14-.85,2.58,2.58,0,0,0,.46-1.64,2.75,2.75,0,0,0-.4-1.56A2.64,2.64,0,0,0,97.9,238.61Z"/><path class="cls-2" d="M10.05,198.76v59.87a26.89,26.89,0,0,0,26.88,26.88H554.15A26.88,26.88,0,0,0,581,258.63V198.76Zm37.22,59.82a12.75,12.75,0,0,1-5.16,1.09,15.83,15.83,0,0,1-5.56-.95,12.8,12.8,0,0,1-4.4-2.7,12.41,12.41,0,0,1-2.89-4.27,15.74,15.74,0,0,1,0-11.2,12.41,12.41,0,0,1,2.89-4.27,12.83,12.83,0,0,1,4.4-2.71,15.83,15.83,0,0,1,5.56-.94,12.92,12.92,0,0,1,2.27.2,12.19,12.19,0,0,1,2.33.63,10.38,10.38,0,0,1,2.2,1.17,8.82,8.82,0,0,1,1.89,1.78L46.44,240a5.56,5.56,0,0,0-2.06-1.56,6.73,6.73,0,0,0-2.82-.55,7,7,0,0,0-5.32,2.35,7.85,7.85,0,0,0-1.56,2.63,9.39,9.39,0,0,0-.57,3.31,9.29,9.29,0,0,0,.57,3.32,8.21,8.21,0,0,0,1.54,2.62,7.08,7.08,0,0,0,2.31,1.73,6.7,6.7,0,0,0,2.85.62,6.41,6.41,0,0,0,3.09-.73,6.2,6.2,0,0,0,2.22-2l4.72,3.53A9.91,9.91,0,0,1,47.27,258.58Zm30,.43H59.16V233.28H76.64v5.24H64.83v4.79H76v5.24H64.83v5.23H77.29Zm22.1,0L94,248.73h-2.8V259H85.54V233.28h10a17.93,17.93,0,0,1,3.73.38,8.92,8.92,0,0,1,3.09,1.28,6.34,6.34,0,0,1,2.1,2.39,8,8,0,0,1,.79,3.77,7.58,7.58,0,0,1-1.42,4.63,6.42,6.42,0,0,1-4.14,2.42L106.19,259Zm32.2-20.71h-7.34V259h-5.67V238.3h-7.34v-5h20.35ZM145.22,259h-5.67V233.28h5.67Zm25.63-20.49h-11.6v5.23H170V249H159.25v10h-5.67V233.28h17.27ZM185.67,259H180V233.28h5.67Zm27.23,0H194.76V233.28h17.48v5.24H200.43v4.79h11.16v5.24H200.43v5.23H212.9Zm31.53-7.28a12,12,0,0,1-3.18,4,14.3,14.3,0,0,1-4.62,2.45,17.81,17.81,0,0,1-5.49.83h-9.27V233.28h8.51a24.27,24.27,0,0,1,5.87.69,13.44,13.44,0,0,1,4.85,2.24,11,11,0,0,1,3.29,4,13.51,13.51,0,0,1,1.22,6A12.37,12.37,0,0,1,244.43,251.73Zm48.66,0a11.87,11.87,0,0,1-3.18,4,14.25,14.25,0,0,1-4.61,2.45,17.9,17.9,0,0,1-5.49.83h-9.27V233.28h8.51a24.25,24.25,0,0,1,5.86.69,13.41,13.41,0,0,1,4.86,2.24,11.09,11.09,0,0,1,3.29,4,13.51,13.51,0,0,1,1.21,6A12.24,12.24,0,0,1,293.09,251.73ZM306.7,259H301V233.28h5.67Zm24-4.07a7.6,7.6,0,0,1-2.16,2.66,9.26,9.26,0,0,1-3.16,1.56,14.52,14.52,0,0,1-8.45-.25,11.63,11.63,0,0,1-4-2.48l4-4.43a5.93,5.93,0,0,0,2.2,1.8,6.37,6.37,0,0,0,2.75.64,6.23,6.23,0,0,0,1.4-.17,4.6,4.6,0,0,0,1.27-.49,3,3,0,0,0,.91-.83,2.09,2.09,0,0,0,.34-1.2,2.19,2.19,0,0,0-.89-1.84,8,8,0,0,0-2.23-1.14c-.9-.32-1.87-.63-2.91-1a12.89,12.89,0,0,1-2.91-1.27,6.92,6.92,0,0,1-2.23-2.11,6,6,0,0,1-.9-3.45,7.59,7.59,0,0,1,3-6.25,9.54,9.54,0,0,1,3.15-1.59,12.87,12.87,0,0,1,3.67-.52,14.11,14.11,0,0,1,4.21.62,9.65,9.65,0,0,1,3.67,2.07l-3.89,4.25a4,4,0,0,0-1.87-1.29,6.63,6.63,0,0,0-2.23-.42,5.64,5.64,0,0,0-1.27.15,4.84,4.84,0,0,0-1.24.45,2.67,2.67,0,0,0-.94.82,2,2,0,0,0-.37,1.23,2.07,2.07,0,0,0,.87,1.79,8.5,8.5,0,0,0,2.2,1c.89.29,1.84.58,2.86.87a11.51,11.51,0,0,1,2.85,1.24,6.81,6.81,0,0,1,2.2,2.14,6.57,6.57,0,0,1,.87,3.6A8.28,8.28,0,0,1,330.69,254.94Zm28.17-16.64h-7.34V259h-5.67V238.3h-7.34v-5h20.35ZM380.74,259l-5.38-10.28h-2.8V259h-5.67V233.28h10a17.77,17.77,0,0,1,3.72.38,8.76,8.76,0,0,1,3.09,1.28,6.28,6.28,0,0,1,2.11,2.39,8.16,8.16,0,0,1,.78,3.77,7.58,7.58,0,0,1-1.41,4.63,6.42,6.42,0,0,1-4.15,2.42L387.54,259Zm19,0h-5.67V233.28h5.67Zm27.48-3.76a7,7,0,0,1-2.26,2.2,9.78,9.78,0,0,1-3.11,1.2,16.73,16.73,0,0,1-3.43.36H407.89V233.28h9.59a24,24,0,0,1,3.37.24,9.35,9.35,0,0,1,3,.94,5.93,5.93,0,0,1,2.18,2,6.06,6.06,0,0,1,.84,3.38,5.41,5.41,0,0,1-1.22,3.62,6.62,6.62,0,0,1-3.22,2.05v.08a7.09,7.09,0,0,1,2.31.71,6.13,6.13,0,0,1,1.78,1.34,5.77,5.77,0,0,1,1.15,1.91,6.81,6.81,0,0,1,.4,2.32A6.2,6.2,0,0,1,427.23,255.25Zm28.89-6.16a12.45,12.45,0,0,1-.69,4.22,9.1,9.1,0,0,1-5.45,5.56,14.26,14.26,0,0,1-9.42,0,9.1,9.1,0,0,1-5.45-5.56,12.45,12.45,0,0,1-.69-4.22V233.28h5.67v15.59a6.39,6.39,0,0,0,.38,2.22,5.29,5.29,0,0,0,1.07,1.76A4.9,4.9,0,0,0,443.2,254a5.17,5.17,0,0,0,2.09.42,5,5,0,0,0,2.07-.42,4.88,4.88,0,0,0,1.63-1.17,5.16,5.16,0,0,0,1.08-1.76,6.39,6.39,0,0,0,.38-2.22V233.28h5.67Zm26.93-10.79h-7.34V259H470V238.3H462.7v-5h20.35ZM496,259h-5.67V233.28H496Zm33.5-7.26a12.55,12.55,0,0,1-2.89,4.27,12.9,12.9,0,0,1-4.4,2.7,16.75,16.75,0,0,1-11.12,0,12.71,12.71,0,0,1-4.4-2.7,12.27,12.27,0,0,1-2.89-4.27,15.6,15.6,0,0,1,0-11.2,12.27,12.27,0,0,1,2.89-4.27,12.73,12.73,0,0,1,4.4-2.71,16.91,16.91,0,0,1,11.12,0,12.92,12.92,0,0,1,4.4,2.71,12.55,12.55,0,0,1,2.89,4.27,15.74,15.74,0,0,1,0,11.2ZM561.7,259h-7.41L543.06,240.7H543V259h-5.67V233.28H545L556,251.16H556V233.28h5.67Z"/><path class="cls-2" d="M522.41,240.21a7.31,7.31,0,0,0-2.52-1.73,9,9,0,0,0-6.58,0,7.35,7.35,0,0,0-2.53,1.73,7.66,7.66,0,0,0-1.62,2.63,9.62,9.62,0,0,0-.56,3.31,9.52,9.52,0,0,0,.56,3.32,7.71,7.71,0,0,0,1.62,2.62,7.35,7.35,0,0,0,2.53,1.73,9,9,0,0,0,6.58,0,7.31,7.31,0,0,0,2.52-1.73,7.56,7.56,0,0,0,1.62-2.62,9.52,9.52,0,0,0,.56-3.32,9.62,9.62,0,0,0-.56-3.31A7.51,7.51,0,0,0,522.41,240.21Z"/><path class="cls-2" d="M96.31,163.17a7.16,7.16,0,0,0,7.35,7h0a7.16,7.16,0,0,0,7.35-7V146.39H96.31Z"/><path class="cls-2" d="M85.93,142.41a16.19,16.19,0,0,0,4.85.75H117A16.13,16.13,0,0,0,133.15,127V96Z"/><path class="cls-2" d="M103.9,46.49h0A29.26,29.26,0,0,0,74.65,75.74v30.11L125.4,55.92A29.14,29.14,0,0,0,103.9,46.49Z"/><path class="cls-2" d="M133.14,75.78a29.1,29.1,0,0,0-5.65-17.27l-52.85,52v16.56a16.11,16.11,0,0,0,8,13.92l50.5-49.68Z"/></g></g></svg>