<?xml version="1.0" encoding="utf-8"?>
<!-- Generator: Adobe Illustrator 21.1.0, SVG Export Plug-In . SVG Version: 6.00 Build 0)  -->
<svg version="1.1" id="Layer_1" xmlns="http://www.w3.org/2000/svg" xmlns:xlink="http://www.w3.org/1999/xlink" x="0px" y="0px"
	 viewBox="0 0 612 792" style="enable-background:new 0 0 612 792;" xml:space="preserve">
<style type="text/css">
	.st0{fill:url(#SVGID_1_);}
	.st1{fill:url(#SVGID_2_);}
	.st2{fill:#FFFFFF;}
	.st3{fill:url(#SVGID_3_);}
	.st4{fill:url(#SVGID_4_);}
	.st5{fill:url(#SVGID_5_);}
	.st6{fill:url(#SVGID_6_);}
	.st7{fill:url(#SVGID_7_);}
	.st8{fill:#DEDEDE;}
	.st9{fill:#B3B3B3;}
</style>
<g>
	
		<linearGradient id="SVGID_1_" gradientUnits="userSpaceOnUse" x1="1604.4518" y1="-3310.175" x2="1723.8534" y2="-3310.175" gradientTransform="matrix(0.7071 -0.7071 0.7071 0.7071 1450.4043 3852.0857)">
		<stop  offset="0" style="stop-color:#BCBEC0"/>
		<stop  offset="0.7382" style="stop-color:#D6D7D9"/>
		<stop  offset="1" style="stop-color:#E0E1E2"/>
	</linearGradient>
	<path class="st0" d="M272.1,329.4c5.5-5.5,14.5-5.5,20,0l4.2,4.2l12.9-12.9c6.3-6.3,16.5-6.3,22.8,0l5,5l12.5-12.5L322.2,286
		c-7.8-7.8-20.6-7.8-28.4,0l-56,56c-6.6,6.6-7.6,16.9-3,24.6l0.2-0.2L272.1,329.4z"/>
	
		<linearGradient id="SVGID_2_" gradientUnits="userSpaceOnUse" x1="1604.4517" y1="-3253.4412" x2="1723.8533" y2="-3253.4412" gradientTransform="matrix(0.7071 -0.7071 0.7071 0.7071 1450.4043 3852.0857)">
		<stop  offset="0" style="stop-color:#BCBEC0"/>
		<stop  offset="0.7382" style="stop-color:#D6D7D9"/>
		<stop  offset="1" style="stop-color:#E0E1E2"/>
	</linearGradient>
	<path class="st1" d="M374.2,366.4c5.8-5.8,7.3-14.4,4.4-21.7l-1.8,1.8l-31.6,31.6c-5.5,5.5-14.5,5.5-20,0l-4.9-4.9l-16.3,16.3
		c-6.3,6.3-16.5,6.3-22.8,0l-4.2-4.2l-12.1,12.1l24.9,24.9c7.8,7.8,20.6,7.8,28.4,0L374.2,366.4z"/>
	<path class="st2" d="M376.8,346.5l1.8-1.8c-0.7-1.7-1.6-3.2-2.7-4.7C376.3,342.2,376.6,344.3,376.8,346.5z"/>
	<path class="st2" d="M235,366.5l-0.2,0.2c0.1,0.2,0.2,0.4,0.3,0.6C235.1,366.9,235.1,366.7,235,366.5z"/>
	
		<linearGradient id="SVGID_3_" gradientUnits="userSpaceOnUse" x1="1604.4518" y1="-3281.5818" x2="1723.8534" y2="-3281.5818" gradientTransform="matrix(0.7071 -0.7071 0.7071 0.7071 1450.4043 3852.0857)">
		<stop  offset="0" style="stop-color:#BCBEC0"/>
		<stop  offset="0.7382" style="stop-color:#D6D7D9"/>
		<stop  offset="1" style="stop-color:#E0E1E2"/>
	</linearGradient>
	<path class="st3" d="M320.6,323.4c-0.6,0-1.1,0.1-1.6,0.2c-1.6,0.3-3.2,1.1-4.4,2.4l-12.9,12.9l0.9,0.9c5.5,5.5,5.5,14.5,0,20
		L282.2,380l4.2,4.2c1.7,1.7,3.9,2.5,6.1,2.5c1.1,0,2.2-0.2,3.2-0.6c0.3-0.1,0.5-0.2,0.8-0.4c0,0,0,0,0.1,0c0.7-0.4,1.4-0.9,2-1.5
		l16.3-16.3l-0.2-0.2c-5.5-5.5-5.5-14.5,0-20l16.8-16.8l-5-5C325,324.3,322.8,323.4,320.6,323.4z"/>
	
		<linearGradient id="SVGID_4_" gradientUnits="userSpaceOnUse" x1="1593.1321" y1="-3281.5818" x2="1736.5288" y2="-3281.5818" gradientTransform="matrix(0.7071 -0.7071 0.7071 0.7071 1450.4043 3852.0857)">
		<stop  offset="0" style="stop-color:#BCBEC0"/>
		<stop  offset="0.7382" style="stop-color:#D6D7D9"/>
		<stop  offset="1" style="stop-color:#E0E1E2"/>
	</linearGradient>
	<path class="st4" d="M320.6,323.4c-0.6,0-1.1,0.1-1.6,0.2c-1.6,0.3-3.2,1.1-4.4,2.4l-12.9,12.9l0.9,0.9c5.5,5.5,5.5,14.5,0,20
		L282.2,380l4.2,4.2c1.7,1.7,3.9,2.5,6.1,2.5c1.1,0,2.2-0.2,3.2-0.6c0.3-0.1,0.5-0.2,0.8-0.4c0,0,0,0,0.1,0c0.7-0.4,1.4-0.9,2-1.5
		l16.3-16.3l-0.2-0.2c-5.5-5.5-5.5-14.5,0-20l16.8-16.8l-5-5C325,324.3,322.8,323.4,320.6,323.4z"/>
	<path d="M296.5,385.8c-0.2,0.1-0.5,0.2-0.8,0.4C296,386,296.3,385.9,296.5,385.8z"/>
	
		<linearGradient id="SVGID_5_" gradientUnits="userSpaceOnUse" x1="1593.1321" y1="-3267.1118" x2="1736.5288" y2="-3267.1118" gradientTransform="matrix(0.7071 -0.7071 0.7071 0.7071 1450.4043 3852.0857)">
		<stop  offset="0" style="stop-color:#BCBEC0"/>
		<stop  offset="0.7382" style="stop-color:#D6D7D9"/>
		<stop  offset="1" style="stop-color:#E0E1E2"/>
	</linearGradient>
	<path class="st5" d="M296.5,385.8c-0.2,0.1-0.5,0.2-0.8,0.4C296,386,296.3,385.9,296.5,385.8z"/>
	<path d="M298.6,384.3c-0.6,0.6-1.3,1.1-2,1.5C297.3,385.4,298,384.9,298.6,384.3z"/>
	
		<linearGradient id="SVGID_6_" gradientUnits="userSpaceOnUse" x1="1593.1321" y1="-3266.7632" x2="1736.5288" y2="-3266.7632" gradientTransform="matrix(0.7071 -0.7071 0.7071 0.7071 1450.4043 3852.0857)">
		<stop  offset="0" style="stop-color:#BCBEC0"/>
		<stop  offset="0.7382" style="stop-color:#D6D7D9"/>
		<stop  offset="1" style="stop-color:#E0E1E2"/>
	</linearGradient>
	<path class="st6" d="M298.6,384.3c-0.6,0.6-1.3,1.1-2,1.5C297.3,385.4,298,384.9,298.6,384.3z"/>
	<path d="M296.6,385.7C296.6,385.8,296.5,385.8,296.6,385.7C296.5,385.8,296.6,385.8,296.6,385.7z"/>
	
		<linearGradient id="SVGID_7_" gradientUnits="userSpaceOnUse" x1="1593.1321" y1="-3266.9568" x2="1736.5288" y2="-3266.9568" gradientTransform="matrix(0.7071 -0.7071 0.7071 0.7071 1450.4043 3852.0857)">
		<stop  offset="0" style="stop-color:#BCBEC0"/>
		<stop  offset="0.7382" style="stop-color:#D6D7D9"/>
		<stop  offset="1" style="stop-color:#E0E1E2"/>
	</linearGradient>
	<path class="st7" d="M296.6,385.7C296.6,385.8,296.5,385.8,296.6,385.7C296.5,385.8,296.6,385.8,296.6,385.7z"/>
	<path class="st8" d="M237.8,370.5c-1-1-1.9-2.1-2.6-3.3c-0.1-0.2-0.2-0.4-0.3-0.6l-5.3,5.3c-5.5,5.5-5.5,14.5,0,20l10.4,10.4
		c4.5,4.5,11.1,5.3,16.5,2.6c1.3-0.7,2.5-1.5,3.5-2.6l3.3-3.3l1.2-1.2l0.4-0.4L237.8,370.5z"/>
	<path class="st2" d="M272.1,380.5c-1.2-1.2-2.1-2.5-2.9-3.9c-2.2-4.2-2.4-9.2-0.7-13.5c0.2-0.5,0.4-1,0.7-1.4
		c0.7-1.4,1.7-2.7,2.9-3.9l24.2-24.2l-4.2-4.2c-5.5-5.5-14.5-5.5-20,0l-37,37c0,0.2,0.1,0.5,0.2,0.7c0.8,1.2,1.6,2.3,2.6,3.3l27,27
		l12.1-12.1L272.1,380.5z"/>
	<path class="st2" d="M302.5,339.8l-0.9-0.9L277.4,363c-0.6,0.6-1.1,1.3-1.5,2c0,0,0,0,0,0.1c-0.1,0.2-0.2,0.5-0.4,0.8
		c-0.4,1-0.6,2.1-0.6,3.2c0,2.2,0.8,4.4,2.5,6.1l4.9,4.9l20.2-20.2C308,354.3,308,345.3,302.5,339.8z"/>
	<path class="st2" d="M275.9,365.1c0.4-0.7,0.9-1.4,1.5-2C276.8,363.7,276.3,364.3,275.9,365.1z"/>
	<path class="st2" d="M275.5,365.9c0.1-0.3,0.2-0.5,0.4-0.8C275.7,365.4,275.6,365.6,275.5,365.9z"/>
	<path class="st2" d="M275.8,365.1C275.9,365.1,275.9,365.1,275.8,365.1C275.9,365.1,275.9,365.1,275.8,365.1z"/>
	<path class="st2" d="M314.8,367.8l0.2,0.2l20.8-20.8c1.3-1.3,2-2.8,2.4-4.4c0.1-0.5,0.2-1.1,0.2-1.6c0-2.2-0.8-4.4-2.5-6.1
		l-4.1-4.1l-16.8,16.8C309.2,353.3,309.2,362.2,314.8,367.8z"/>
	<path class="st2" d="M343.8,348.7c-0.5,0.9-1,1.7-1.7,2.5C342.8,350.4,343.3,349.6,343.8,348.7z"/>
	<path class="st2" d="M344.5,347.1c-0.2,0.5-0.4,1-0.7,1.4C344.1,348.1,344.3,347.6,344.5,347.1z"/>
	<path class="st9" d="M342.1,351.2c0.7-0.8,1.2-1.7,1.7-2.5c0,0,0.1-0.1,0.1-0.1c0.2-0.5,0.5-0.9,0.7-1.4c0.2-0.5,0.4-1,0.5-1.5
		c1.6-5.5,0.3-11.7-4-16l-4.1-4.1l-5.3,5.3l4.1,4.1c1.7,1.7,2.5,3.9,2.5,6.1c0,0.6-0.1,1.1-0.2,1.6c-0.3,1.6-1.1,3.2-2.4,4.4
		l-20.8,20.8l5.3,5.3l20.8-20.8C341.4,352.1,341.8,351.7,342.1,351.2z"/>
	<path class="st9" d="M387.7,315.6l-10.4-10.4c-5.2-5.2-13.4-5.5-19-0.9c-0.4,0.3-0.7,0.6-1,0.9l-6.7,6.7l-1.2,1.2l0,0l24.8,24.8
		c0.6,0.6,1.2,1.3,1.7,2c1.1,1.5,2,3.1,2.7,4.7l9.1-9.1C393.2,330.1,393.2,321.1,387.7,315.6z"/>
	<path class="st2" d="M341,329.7c4.3,4.3,5.7,10.5,4,16c-0.1,0.5-0.3,1-0.5,1.5c-0.2,0.5-0.4,1-0.7,1.4c0,0-0.1,0.1-0.1,0.1
		c-0.5,0.9-1,1.7-1.7,2.5c-0.3,0.4-0.7,0.8-1.1,1.2l-20.8,20.8l4.9,4.9c5.5,5.5,14.5,5.5,20,0l31.6-31.6c-0.2-2.2-0.5-4.4-0.9-6.5
		c-0.5-0.7-1.1-1.4-1.7-2l-24.8-24.8l-12.5,12.5L341,329.7z"/>
	<path class="st2" d="M342.1,351.2c-0.3,0.4-0.7,0.8-1.1,1.2C341.4,352.1,341.8,351.7,342.1,351.2z"/>
	<path class="st2" d="M343.9,348.6c0,0-0.1,0.1-0.1,0.1C343.8,348.7,343.8,348.6,343.9,348.6z"/>
</g>
</svg>
