<?xml version="1.0" encoding="utf-8"?>
<!-- Generator: Adobe Illustrator 21.1.0, SVG Export Plug-In . SVG Version: 6.00 Build 0)  -->
<svg version="1.1" id="Layer_1" xmlns="http://www.w3.org/2000/svg" xmlns:xlink="http://www.w3.org/1999/xlink" x="0px" y="0px"
	 viewBox="0 0 432 432" style="enable-background:new 0 0 432 432;" xml:space="preserve">
<style type="text/css">
	.st0{fill:url(#SVGID_1_);}
	.st1{fill:url(#SVGID_2_);}
	.st2{fill:#FFFFFF;}
	.st3{fill:url(#SVGID_3_);}
	.st4{fill:url(#SVGID_4_);}
	.st5{fill:url(#SVGID_5_);}
	.st6{fill:url(#SVGID_6_);}
	.st7{fill:url(#SVGID_7_);}
	.st8{fill:#DEDEDE;}
	.st9{fill:#B3B3B3;}
</style>
<g>
	
		<linearGradient id="SVGID_1_" gradientUnits="userSpaceOnUse" x1="1386.8967" y1="-3504.3145" x2="1686.8093" y2="-3504.3145" gradientTransform="matrix(0.7071 -0.7071 0.7071 0.7071 1551.3231 3735.7253)">
		<stop  offset="0" style="stop-color:#BCBEC0"/>
		<stop  offset="0.7382" style="stop-color:#D6D7D9"/>
		<stop  offset="1" style="stop-color:#E0E1E2"/>
	</linearGradient>
	<path class="st0" d="M123.8,157.8c13.9-13.9,36.4-13.9,50.3,0l10.5,10.5l32.5-32.5c15.8-15.8,41.4-15.8,57.2,0l12.5,12.5l31.3-31.3
		l-68.1-68.1c-19.6-19.6-51.7-19.6-71.4,0L37.9,189.5c-16.7,16.7-19.1,42.4-7.5,61.7l0.4-0.4L123.8,157.8z"/>
	
		<linearGradient id="SVGID_2_" gradientUnits="userSpaceOnUse" x1="1386.8965" y1="-3361.8103" x2="1686.809" y2="-3361.8103" gradientTransform="matrix(0.7071 -0.7071 0.7071 0.7071 1551.3231 3735.7253)">
		<stop  offset="0" style="stop-color:#BCBEC0"/>
		<stop  offset="0.7382" style="stop-color:#D6D7D9"/>
		<stop  offset="1" style="stop-color:#E0E1E2"/>
	</linearGradient>
	<path class="st1" d="M380.4,250.7c14.7-14.7,18.4-36.3,11.1-54.4l-4.6,4.6l-79.4,79.4c-13.9,13.9-36.4,13.9-50.3,0l-12.4-12.4
		l-41,41c-15.8,15.8-41.4,15.8-57.2,0l-10.6-10.6l-30.4,30.4l62.6,62.6c19.6,19.6,51.7,19.6,71.4,0L380.4,250.7z"/>
	<path class="st2" d="M387,200.8l4.6-4.6c-1.7-4.2-3.9-8.2-6.7-11.8C385.8,189.8,386.5,195.3,387,200.8z"/>
	<path class="st2" d="M30.8,250.8l-0.4,0.4c0.3,0.5,0.5,1,0.8,1.4C31.1,252.1,31,251.4,30.8,250.8z"/>
	
		<linearGradient id="SVGID_3_" gradientUnits="userSpaceOnUse" x1="1386.8967" y1="-3432.4939" x2="1686.8093" y2="-3432.4939" gradientTransform="matrix(0.7071 -0.7071 0.7071 0.7071 1551.3231 3735.7253)">
		<stop  offset="0" style="stop-color:#BCBEC0"/>
		<stop  offset="0.7382" style="stop-color:#D6D7D9"/>
		<stop  offset="1" style="stop-color:#E0E1E2"/>
	</linearGradient>
	<path class="st3" d="M245.7,142.7c-1.4,0-2.8,0.1-4.1,0.4c-4.1,0.8-8,2.8-11.1,5.9l-32.5,32.5l2.3,2.3c13.9,13.9,13.9,36.4,0,50.3
		L149.4,285l10.6,10.6c4.2,4.2,9.7,6.3,15.3,6.3c2.8,0,5.5-0.5,8.1-1.6c0.6-0.3,1.3-0.6,1.9-0.9c0.1,0,0.1-0.1,0.2-0.1
		c1.8-1,3.5-2.2,5-3.7l41-41l-0.4-0.4c-13.9-13.9-13.9-36.4,0-50.3l42.3-42.3l-12.5-12.5C256.7,144.8,251.2,142.7,245.7,142.7z"/>
	
		<linearGradient id="SVGID_4_" gradientUnits="userSpaceOnUse" x1="1358.4639" y1="-3432.4939" x2="1718.6472" y2="-3432.4939" gradientTransform="matrix(0.7071 -0.7071 0.7071 0.7071 1551.3231 3735.7253)">
		<stop  offset="0" style="stop-color:#BCBEC0"/>
		<stop  offset="0.7382" style="stop-color:#D6D7D9"/>
		<stop  offset="1" style="stop-color:#E0E1E2"/>
	</linearGradient>
	<path class="st4" d="M245.7,142.7c-1.4,0-2.8,0.1-4.1,0.4c-4.1,0.8-8,2.8-11.1,5.9l-32.5,32.5l2.3,2.3c13.9,13.9,13.9,36.4,0,50.3
		L149.4,285l10.6,10.6c4.2,4.2,9.7,6.3,15.3,6.3c2.8,0,5.5-0.5,8.1-1.6c0.6-0.3,1.3-0.6,1.9-0.9c0.1,0,0.1-0.1,0.2-0.1
		c1.8-1,3.5-2.2,5-3.7l41-41l-0.4-0.4c-13.9-13.9-13.9-36.4,0-50.3l42.3-42.3l-12.5-12.5C256.7,144.8,251.2,142.7,245.7,142.7z"/>
	<path d="M185.3,299.4c-0.6,0.3-1.3,0.6-1.9,0.9C184,300,184.7,299.7,185.3,299.4z"/>
	
		<linearGradient id="SVGID_5_" gradientUnits="userSpaceOnUse" x1="1358.4639" y1="-3396.1482" x2="1718.6472" y2="-3396.1482" gradientTransform="matrix(0.7071 -0.7071 0.7071 0.7071 1551.3231 3735.7253)">
		<stop  offset="0" style="stop-color:#BCBEC0"/>
		<stop  offset="0.7382" style="stop-color:#D6D7D9"/>
		<stop  offset="1" style="stop-color:#E0E1E2"/>
	</linearGradient>
	<path class="st5" d="M185.3,299.4c-0.6,0.3-1.3,0.6-1.9,0.9C184,300,184.7,299.7,185.3,299.4z"/>
	<path d="M190.5,295.5c-1.5,1.5-3.2,2.8-5,3.7C187.3,298.3,189,297.1,190.5,295.5z"/>
	
		<linearGradient id="SVGID_6_" gradientUnits="userSpaceOnUse" x1="1358.4639" y1="-3395.2725" x2="1718.6472" y2="-3395.2725" gradientTransform="matrix(0.7071 -0.7071 0.7071 0.7071 1551.3231 3735.7253)">
		<stop  offset="0" style="stop-color:#BCBEC0"/>
		<stop  offset="0.7382" style="stop-color:#D6D7D9"/>
		<stop  offset="1" style="stop-color:#E0E1E2"/>
	</linearGradient>
	<path class="st6" d="M190.5,295.5c-1.5,1.5-3.2,2.8-5,3.7C187.3,298.3,189,297.1,190.5,295.5z"/>
	<path d="M185.5,299.3c-0.1,0-0.1,0.1-0.2,0.1C185.4,299.4,185.4,299.3,185.5,299.3z"/>
	
		<linearGradient id="SVGID_7_" gradientUnits="userSpaceOnUse" x1="1358.4639" y1="-3395.7585" x2="1718.6472" y2="-3395.7585" gradientTransform="matrix(0.7071 -0.7071 0.7071 0.7071 1551.3231 3735.7253)">
		<stop  offset="0" style="stop-color:#BCBEC0"/>
		<stop  offset="0.7382" style="stop-color:#D6D7D9"/>
		<stop  offset="1" style="stop-color:#E0E1E2"/>
	</linearGradient>
	<path class="st7" d="M185.5,299.3c-0.1,0-0.1,0.1-0.2,0.1C185.4,299.4,185.4,299.3,185.5,299.3z"/>
	<path class="st8" d="M37.9,260.9c-2.5-2.5-4.7-5.3-6.6-8.2c-0.3-0.5-0.6-0.9-0.8-1.4L17,264.6C3.1,278.5,3.1,301,17,314.9L43.1,341
		c11.2,11.2,28,13.3,41.4,6.5c3.2-1.6,6.2-3.8,8.9-6.5l8.3-8.3l3-3l1-1L37.9,260.9z"/>
	<path class="st2" d="M123.9,286.1c-3-3-5.4-6.3-7.2-9.8c-5.5-10.6-6.1-23.1-1.7-34c0.5-1.2,1-2.4,1.7-3.6c1.8-3.5,4.2-6.8,7.2-9.8
		l60.7-60.7l-10.5-10.5c-13.9-13.9-36.4-13.9-50.3,0l-93,93c0.1,0.6,0.3,1.2,0.4,1.9c1.9,2.9,4.1,5.7,6.6,8.2l67.8,67.8l30.4-30.4
		L123.9,286.1z"/>
	<path class="st2" d="M200.2,183.9l-2.3-2.3l-60.7,60.7c-1.5,1.5-2.8,3.3-3.8,5.1c0,0-0.1,0.1-0.1,0.1c-0.3,0.6-0.6,1.3-0.9,1.9
		c-1.1,2.6-1.6,5.4-1.6,8.1c0,5.5,2.1,11.1,6.3,15.3l12.2,12.2l50.8-50.8C214.1,220.3,214.1,197.8,200.2,183.9z"/>
	<path class="st2" d="M133.5,247.3c1-1.8,2.2-3.5,3.8-5.1C135.7,243.8,134.4,245.5,133.5,247.3z"/>
	<path class="st2" d="M132.5,249.4c0.3-0.6,0.6-1.3,0.9-1.9C133.1,248.1,132.8,248.7,132.5,249.4z"/>
	<path class="st2" d="M133.4,247.5c0,0,0.1-0.1,0.1-0.1C133.4,247.4,133.4,247.4,133.4,247.5z"/>
	<path class="st2" d="M231.2,254.1l0.4,0.4l52.2-52.2c3.2-3.2,5.1-7.1,5.9-11.1c0.3-1.4,0.4-2.7,0.4-4.1c0-5.5-2.1-11.1-6.3-15.3
		l-10.3-10.3l-42.3,42.3C217.3,217.8,217.3,240.3,231.2,254.1z"/>
	<path class="st2" d="M304,206.2c-1.2,2.2-2.6,4.4-4.2,6.4C301.4,210.6,302.8,208.5,304,206.2z"/>
	<path class="st2" d="M305.9,202.3c-0.5,1.2-1,2.4-1.7,3.6C304.8,204.7,305.4,203.5,305.9,202.3z"/>
	<path class="st9" d="M299.8,212.6c1.6-2,3-4.1,4.2-6.4c0.1-0.1,0.1-0.2,0.2-0.3c0.6-1.2,1.2-2.4,1.7-3.6c0.5-1.2,0.9-2.5,1.3-3.7
		c4.1-13.8,0.7-29.3-10.2-40.1l-10.3-10.3l-13.3,13.3l10.3,10.3c4.2,4.2,6.3,9.7,6.3,15.3c0,1.4-0.1,2.8-0.4,4.1
		c-0.8,4.1-2.8,8-5.9,11.1l-52.2,52.2l13.3,13.3l52.2-52.2C298,214.7,298.9,213.7,299.8,212.6z"/>
	<path class="st9" d="M414.4,123.1L388.3,97c-13.1-13.1-33.7-13.8-47.7-2.3c-0.9,0.7-1.7,1.5-2.6,2.3l-16.8,16.8l-3,3l-0.1,0.1
		l62.3,62.3c1.6,1.6,3,3.3,4.4,5.1c2.8,3.7,5.1,7.7,6.7,11.8l22.8-22.8C428.2,159.5,428.2,137,414.4,123.1z"/>
	<path class="st2" d="M297,158.5c10.8,10.8,14.2,26.3,10.2,40.1c-0.4,1.3-0.8,2.5-1.3,3.7c-0.5,1.2-1,2.4-1.7,3.6
		c-0.1,0.1-0.1,0.2-0.2,0.3c-1.2,2.2-2.6,4.4-4.2,6.4c-0.9,1.1-1.8,2.1-2.8,3.1l-52.2,52.2l12.4,12.4c13.9,13.9,36.4,13.9,50.3,0
		l79.4-79.4c-0.5-5.5-1.2-11-2.2-16.4c-1.3-1.8-2.8-3.5-4.4-5.1L318.1,117l-31.3,31.3L297,158.5z"/>
	<path class="st2" d="M299.8,212.6c-0.9,1.1-1.8,2.1-2.8,3.1C298,214.7,298.9,213.7,299.8,212.6z"/>
	<path class="st2" d="M304.2,205.9c-0.1,0.1-0.1,0.2-0.2,0.3C304.1,206.1,304.2,206,304.2,205.9z"/>
</g>
</svg>
