<svg xmlns="http://www.w3.org/2000/svg" role="img" viewBox="-3.25 481.75 2249.00 534.00"><title>kubefleet-hor-</title><defs><style>.cls-1{fill:#0068ae}</style></defs><path d="M639.81 890.49V638.4h56.9v118.84L790.7 638.4h68.42l-75.63 91.83 88.59 160.26h-66.62l-60.5-112.36-48.26 60.5v51.86h-56.9zm302.16 1.47c-19.09 0-34.36-6.15-45.83-18.46-11.47-12.3-17.2-28.72-17.2-49.25V703.61h54.02v93.99c0 15.48 2.13 26.38 6.39 32.68 4.26 6.3 11.61 9.45 22.06 9.45 11.04 0 19.02-3.3 23.95-9.9 4.92-6.6 7.38-17.11 7.38-31.51v-94.71h54.02v184.03h-54.02v-16.93c-5.4 6.84-12.51 12.1-21.34 15.76-8.82 3.66-18.64 5.49-29.44 5.49zm216.52 2.85c-7.92 0-14.47-1.44-19.63-4.32-5.16-2.88-9.54-7.56-13.14-14.04v14.04h-54.02V654.61l54.02-24.13v89.31c3.96-5.76 8.97-10.14 15.04-13.14 6.06-3 13.05-4.5 20.98-4.5 14.88 0 28.06 4.11 39.52 12.33 11.46 8.22 20.47 19.57 27.01 34.03 6.54 14.47 9.81 31.06 9.81 49.79 0 30.25-7.05 53.9-21.16 70.94-14.11 17.05-33.58 25.57-58.43 25.57zm-6.12-52.22c10.08 0 17.89-3.84 23.41-11.52s8.28-18.6 8.28-32.77-2.76-24.88-8.28-32.5c-5.52-7.62-13.32-11.43-23.41-11.43-5.76 0-10.96.93-15.58 2.79-4.62 1.86-8.31 4.53-11.07 8.01v66.98c3.12 3.72 6.63 6.39 10.53 8.01 3.9 1.62 9.27 2.43 16.12 2.43zm189.75 52.22c-18.25 0-33.94-3.84-47.09-11.52-13.15-7.68-23.23-18.73-30.25-33.13-7.02-14.4-10.53-31.69-10.53-51.86s3.57-36.55 10.71-50.96c7.14-14.41 17.29-25.54 30.43-33.4 13.14-7.86 28.72-11.79 46.73-11.79 15.6 0 29.68 3.15 42.22 9.45 12.54 6.3 22.51 15.91 29.89 28.81 7.38 12.9 11.07 29.2 11.07 48.89 0 3.36-.06 7.54-.18 12.52-.12 4.98-.54 9.93-1.26 14.86h-117.04c0 6.6 1.44 12.33 4.32 17.19 2.88 4.86 6.96 8.62 12.24 11.25 5.28 2.64 11.52 3.96 18.73 3.96 9.36 0 17.2-1.5 23.5-4.5 6.3-3 12.39-7.98 18.28-14.95l30.97 30.97c-8.64 10.44-18.91 18.76-30.79 24.94-11.88 6.18-25.87 9.27-41.95 9.27zm-34.57-118.48h66.26c-.96-6.36-2.82-11.64-5.58-15.85-2.76-4.2-6.42-7.35-10.98-9.45-4.56-2.1-10.08-3.15-16.57-3.15-8.76 0-16.15 2.52-22.15 7.56-6 5.04-9.66 12.01-10.98 20.89zm149.52 114.16V638.4h167.64v44.3h-121v55.46h77.43v44.3h-77.43V890.5h-46.64zm185.25 0V650.82l45.02-20.35v260.01h-45.02zm166.43 4.32c-17.65 0-32.86-3.96-45.65-11.88-12.78-7.92-22.63-19.12-29.53-33.58-6.9-14.46-10.35-31.48-10.35-51.05s3.51-36.91 10.53-51.32c7.02-14.41 16.93-25.48 29.71-33.22 12.79-7.74 27.88-11.61 45.29-11.61 14.88 0 28.39 3.12 40.51 9.36 12.12 6.24 21.79 15.82 28.99 28.72 7.2 12.9 10.8 29.32 10.8 49.25 0 3.12-.09 6.93-.27 11.43-.18 4.5-.51 9.03-.99 13.59h-120.1c.48 8.4 2.43 15.76 5.85 22.06 3.42 6.3 8.13 11.19 14.13 14.68 6 3.48 13.08 5.22 21.25 5.22 8.76 0 16.39-1.47 22.87-4.41 6.48-2.94 12.6-7.65 18.37-14.14l25.93 26.83c-7.92 9-17.47 16.27-28.63 21.79s-24.07 8.28-38.71 8.28zm-40.87-115.42h77.61c-.6-8.04-2.4-14.97-5.4-20.8-3-5.82-7.2-10.29-12.6-13.42-5.4-3.12-11.95-4.68-19.63-4.68-10.57 0-19.57 3.24-27.01 9.72-7.44 6.48-11.77 16.21-12.96 29.17zm226.29 115.42c-17.65 0-32.86-3.96-45.65-11.88-12.78-7.92-22.63-19.12-29.53-33.58-6.9-14.46-10.35-31.48-10.35-51.05s3.51-36.91 10.53-51.32c7.02-14.41 16.93-25.48 29.71-33.22 12.79-7.74 27.88-11.61 45.29-11.61 14.88 0 28.39 3.12 40.51 9.36 12.12 6.24 21.79 15.82 28.99 28.72 7.2 12.9 10.8 29.32 10.8 49.25 0 3.12-.09 6.93-.27 11.43-.18 4.5-.51 9.03-.99 13.59h-120.1c.48 8.4 2.43 15.76 5.85 22.06 3.42 6.3 8.13 11.19 14.13 14.68 6 3.48 13.08 5.22 21.25 5.22 8.76 0 16.39-1.47 22.87-4.41 6.48-2.94 12.6-7.65 18.37-14.14l25.93 26.83c-7.92 9-17.47 16.27-28.63 21.79s-24.07 8.28-38.71 8.28zm-40.87-115.42h77.61c-.6-8.04-2.4-14.97-5.4-20.8-3-5.82-7.2-10.29-12.6-13.42-5.4-3.12-11.95-4.68-19.63-4.68-10.57 0-19.57 3.24-27.01 9.72-7.44 6.48-11.77 16.21-12.96 29.17zm205.3 115.42c-14.65 0-25.63-4.02-32.95-12.07-7.32-8.04-10.98-20.05-10.98-36.01V745.89h-26.83v-39.43h26.83V651.9l44.66-21.43v75.99h41.78v39.43h-41.78v92.73c0 5.76 1.17 10.02 3.51 12.79 2.34 2.76 6.03 4.14 11.07 4.14 8.88 0 18.61-2.76 29.17-8.28l-5.22 39.25c-5.52 2.76-11.52 4.83-18.01 6.21-6.48 1.38-13.57 2.07-21.25 2.07zM246.2 789.89l-16.51-65.29 67.85-29.17 66.99 29.67-16.36 64.46-101.97.33z" class="cls-1"/><path d="M354.72 665.45v45.45l-56.39-24.59-58.39 25.49c-1.29 1.03-1.22-3.34-1.22-4.08v-42.27h116zm-12.34-33.63c.41.33-.82 1.17-.82 1.36v25.45c0 .28 1.04.7.82 1.36h-90.5c-.22-.67.82-1.09.82-1.36v-25.45c0-.28-1.04-.7-.82-1.36h90.5zm-65.82-23.63h41.96v19.09h-41.96zm196.11 137.3l-11.46 44.07-84.66.3-11.66-43.9 53.92-24.09 53.86 23.62z" class="cls-1"/><path d="M464.47 699.99v33.63l-45.65-19.15-47.31 20.05c-.4-.34.82-1.16.82-1.35v-31.81c0-.28-1.04-.7-.82-1.36h92.96zm-10.7-28.17v22.72h-70.75v-22.27l1.23-1.17c.33-.03.62.71.82.71h68.7zm-15.63-20v15.45h-39.49c1.4-4.26 1.14-9.7.2-14.13l1.03-1.32h38.26zm-207.16 93.63l-12.72 44.59-84.28-.15-11.62-43.93 53.77-23.92 54.85 23.41z" class="cls-1"/><path d="M222.75 699.99c.41.33-.82 1.17-.82 1.36v32.27l-45.64-19.16-45.68 20.07v-34.54h92.14zm-10.7-29.08v23.63H141.3c-.22-.67.82-1.09.82-1.36v-20c0-.23-.97-.72-.48-1.37l2.49-.94 67.91.04zm-54.29-19.09h38.67v15.45h-38.67z" class="cls-1"/><path d="M426.18 527.14H168.84L40.17 750l128.67 222.86h257.34L554.85 750 426.18 527.14zM413 950.02H182.03L66.55 750l115.48-200.02H413L528.48 750 413 950.02z" class="cls-1"/><path d="M91.44 814.01H504.5v22.84H91.44zm32.3 49.94h345.98v22.84H123.74zm27.05 47.79h289.76v22.84H150.79z" class="cls-1"/></svg>