<svg height="180" viewBox="0 0 190 180" width="190" xmlns="http://www.w3.org/2000/svg"><g fill-rule="evenodd" transform="translate(4.963191 2.824896)"><g fill-rule="nonzero"><path d="m150.0514 30.979219-112.34478-25.1158508 1.324509-5.64184921 137.908021 30.83078101c3.44304.769728 2.86998 5.714929-.66226 5.714929h-171.678117v-5.78801z"/><path d="m3.8235217 174.12869c-1.6535813 0-2.99407385-1.33389-2.99407385-2.97932v-136.19766c0-.826375.34492495-1.615628.95234835-2.179151l34.2179868-31.7449663c1.914275-1.77592493 5.0358-.42514153 5.0358 2.179151v167.9426263c0 1.64543-1.340493 2.97932-2.994074 2.97932zm31.2239133-5.95865v-158.112296l-28.2298394 26.189597v131.922699z"/><path d="m61.13865 126.2803 25.380912 40.28721h46.674638l33.48555-40.34566-54.59744-17.6234zm52.65813-22.51495 59.70647 19.24664c1.82356.58783 2.52435 2.20038 1.49468 3.43933l-36.56129 43.99233c-.60064.72272-1.67982 1.16465-2.84407 1.16465h-50.919404c-1.299335 0-2.479254-.54926-3.019463-1.40559l-27.752414-43.99233c-.752975-1.19359-.04694-2.60426 1.58686-3.17056l55.526641-19.24665c.87698-.30398 1.89376-.31415 2.78199-.0278z"/></g><path d="m133.47718 168.1633 35.61997-42.23318-56.92479-17.39461v59.62779z"/><g fill-rule="nonzero"><path d="m80.191257 116.90501c0 1.52927-1.236024 2.76899-2.760736 2.76899-1.524713 0-2.760736-1.23972-2.760736-2.76899v-18.388132c0-1.52927 1.236023-2.768988 2.760736-2.768988h30.196469c1.52472 0 2.76074 1.239718 2.76074 2.768988v7.713782c0 1.52927-1.23602 2.76899-2.76074 2.76899-1.52471 0-2.76073-1.23972-2.76073-2.76899v-4.94479h-24.675003z"/><path d="m120.39739 119.2728c0 1.52927-1.23602 2.76899-2.76073 2.76899-1.52472 0-2.76074-1.23972-2.76074-2.76899v-20.755922c0-1.52927 1.23602-2.768988 2.76074-2.768988h30.19647c1.52471 0 2.76073 1.239718 2.76073 2.768988v11.341772c0 1.52927-1.23602 2.76899-2.76073 2.76899s-2.76074-1.23972-2.76074-2.76899v-8.57278h-24.675z" transform="matrix(-1 0 0 1 265.46978 0)"/><path d="m120.68712 85.417721h24.13742v-22.949367h-24.13742zm-3.31289-28.487341h30.76319c1.21977 0 2.20859.991774 2.20859 2.21519v29.594936c0 1.223416-.98882 2.21519-2.20859 2.21519h-30.76319c-1.21977 0-2.20859-.991774-2.20859-2.21519v-29.594936c0-1.223416.98882-2.21519 2.20859-2.21519z"/><path d="m93.312883 92.484177c-9.75816 0-17.668711-7.934194-17.668711-17.721519 0-9.787324 7.910551-17.721519 17.668711-17.721519 9.758157 0 17.668717 7.934195 17.668717 17.721519 0 9.787325-7.91056 17.721519-17.668717 17.721519zm0-5.537975c6.708737 0 12.147237-5.454758 12.147237-12.183544s-5.4385-12.183544-12.147237-12.183544c-6.708735 0-12.147239 5.454758-12.147239 12.183544s5.438504 12.183544 12.147239 12.183544z"/></g></g></svg>