<svg xmlns="http://www.w3.org/2000/svg" role="img" viewBox="-1.27 -0.27 305.54 482.04"><defs><style>.cls-1,.cls-3{fill:none}.cls-2{fill:#fff}.cls-3{stroke:#fff;stroke-linecap:round;stroke-linejoin:round;stroke-width:0}</style></defs><path d="M151.481 147.254c-.008 0-.016.004-.024.005.009-.001.016-.005.025-.005zm5.854-22.791l3.868 1.847-3.868-1.847a12.671 12.671 0 0 0-10.914 0l-7.207 3.444 7.207-3.444a12.671 12.671 0 0 1 10.914 0zm88.806 110.425l-16.246-70.567c-.01-.047-.029-.091-.04-.138.011.047.03.091.04.138zm-90.282-84.074c0-.009-.004-.016-.005-.024 0 .008.004.016.005.024zm61.948 78.39c-.127-.029-.275-.066-.426-.103a13.382 13.382 0 0 0-.72-.166q.362.074.719.166.213.054.427.103zm-47.718 36.922l.054.097-.054-.097zm-41.906 9.389c-.09.286-.164.561-.24.838.077-.277.15-.552.24-.839.31-.778.58-1.572.84-2.338a14.853 14.853 0 0 1 1.046-2.752 14.854 14.854 0 0 0-1.046 2.751c-.26.768-.53 1.56-.84 2.34zm4.457-7.815c.087-.02.174-.047.264-.06l.012-.004-.013.003c-.09.014-.176.04-.264.061zm-5.95 12.162l.033-.066a17.07 17.07 0 0 0-.001.001zm-7.306-3.121c.056-.114.117-.247.18-.383l.154-.33-.154.33c-.063.136-.124.27-.18.383a4.21 4.21 0 0 0 1.69 5.636 3.61 3.61 0 0 0 1.572.356 3.61 3.61 0 0 1-1.572-.356 4.21 4.21 0 0 1-1.69-5.636zm-20.057-43.337a3.909 3.909 0 0 1 2.029.69l.164.095-.163-.095a3.909 3.909 0 0 0-2.03-.69zm21.941 40.163c.241-.329.491-.67.734-1.034.061-.09.117-.182.178-.272-.061.09-.117.182-.178.271-.244.365-.493.705-.734 1.035a16.46 16.46 0 0 0-1.378 2.113c-.032.061-.068.137-.103.209.035-.072.07-.147.103-.209a16.46 16.46 0 0 1 1.378-2.113zm56.842-10.868a12.968 12.968 0 0 0-.135-.35h-.001c.041.098.087.22.136.35zm.48 1.311l.03-.074.003-.01-.003.01-.03.074zm-86.036-28.638l-.043.016.044-.016a36.304 36.304 0 0 1 6.732-1.973 36.3 36.3 0 0 0-6.733 1.973zm114.63-61.795c-.052-.053-.113-.089-.166-.138.056.051.12.092.173.147zm-34.259 95.257a2.725 2.725 0 0 0-.341-.401 2.728 2.728 0 0 1 .34.401 36.421 36.421 0 0 1 2.668 6.522l.005.016-.005-.016a36.423 36.423 0 0 0-2.667-6.522zm5.481-2.41c-.028-.064-.06-.126-.088-.19l-.005-.024.005.024c.028.064.06.126.088.19zm-7.49 1.19a19.475 19.475 0 0 1 0 .001l.007.011zm5.056 9.046l-.054-.188c.017.063.037.125.054.187a16.498 16.498 0 0 0 .795 2.397v.002-.002a16.498 16.498 0 0 1-.795-2.397zm36.568-40.845c-.38-.163-.772-.333-1.185-.493l-.11-.038.109.038q.598.234 1.185.493a16.176 16.176 0 0 0 2.35.871 6.813 6.813 0 0 0 .001 0 16.171 16.171 0 0 1-2.35-.87zm-10.231-1.691l.011-.007-.012.007h.001zm-.091-.016c-.33-.065-1.092-.2-1.568-.275q.786.126 1.568.275zm-23.592 29.808l-.006-.006.006.007v-.001zm38.127-26.816c.012.002.024 0 .036.001a3.987 3.987 0 0 1-.746-.163 3.977 3.977 0 0 0 .71.162zm4.475-3.42c.002-.013 0-.024.001-.036-.016.13-.055.258-.085.388.027-.118.068-.23.084-.353zm-14.086-54.46c.053-.052.089-.113.138-.167-.051.057-.092.12-.147.174zm-11.375 9.46l-.01.009.01-.009zm-83.103 62.264q-1.646-1.971-3.094-4.097 1.445 2.124 3.094 4.097zm-29.938-16.468l.004.007c-.009-.026-.012-.055-.02-.082.008.025.008.05.016.075zm5.046 2.551l-.026.004h-.001.001l.026-.004.033-.005a.332.332 0 0 0 .044-.014.328.328 0 0 1-.044.014zm13.769-2.827l1.698-.292-1.698.292zm-13.352 2.732l-.057.013.058-.013c.25-.053.51-.108.71-.162.016-.004.032-.01.049-.016-.017.005-.033.012-.049.016-.201.054-.461.11-.711.162zm54.562 31.628q-2.276-.423-4.519-1.054 2.24.631 4.52 1.055zm4.578.638q-2.299-.214-4.578-.637 2.277.423 4.578.637zM132.513 61.791a7.503 7.503 0 0 1-1.468-3.136 18.477 18.477 0 0 1-.417-4.077v.001a18.476 18.476 0 0 0 .417 4.077 7.502 7.502 0 0 0 1.468 3.135zm4.648-15.41h7.847v-5.437 5.437h-7.847zm-24.814-4.21v.001a39.282 39.282 0 0 1 4.143-1.162 39.28 39.28 0 0 0-4.143 1.161zm50.634 21.833h.001V39.716a9.836 9.836 0 0 1 2.52-7.102 9.836 9.836 0 0 0-2.521 7.102zm-17.973-5.743l.92 5.086-.92-5.086zm-23.192-17.799q.526 0 1.272.066-.745-.066-1.272-.066zm28.496.482h6.532v23.059-23.06h-6.532v.001zm23.323-5.437a5.324 5.324 0 0 0-1.995.33 5.323 5.323 0 0 1 1.996-.329 11.354 11.354 0 0 1 1.73.132 6.255 6.255 0 0 1 1.557.438 6.253 6.253 0 0 0-1.557-.439 11.35 11.35 0 0 0-1.731-.132zm-73.344 28.98q1.226-.132 2.302-.33a18.33 18.33 0 0 0 1.95-.46 18.317 18.317 0 0 1-1.951.46q-1.075.198-2.301.33zm.059-5.555a19.06 19.06 0 0 1-1.638.074 7.576 7.576 0 0 1-4.471-1.183 7.576 7.576 0 0 0 4.471 1.184c.547 0 1.093-.028 1.637-.075zm-6.109-1.109a4.338 4.338 0 0 1-1.885-3.2h-.001a4.338 4.338 0 0 0 1.886 3.2zm18.106 6.18h6.532v.001h-6.532zm9.294-17.973a12.778 12.778 0 0 1 2.543.241q1.183.241 2.06.46-.876-.219-2.06-.46a12.774 12.774 0 0 0-2.543-.24zM88.607 61.177a10.534 10.534 0 0 0 3.814 2.521 14.528 14.528 0 0 0 5.414.92 14.53 14.53 0 0 1-5.414-.92 10.534 10.534 0 0 1-3.814-2.52zm30.272-14.797a8.635 8.635 0 0 1 1.293-.24 11.874 11.874 0 0 1 1.469-.11 11.876 11.876 0 0 0-1.47.11 8.635 8.635 0 0 0-1.292.24zm74.321.898a11.515 11.515 0 0 1 1.706-2.959 11.512 11.512 0 0 0-1.706 2.96zm-96.505-6.947a10.19 10.19 0 0 1 7.76 3.003q2.85 3.003 2.85 8.833 0 .57-.044 1.25.044-.68.044-1.25 0-5.83-2.849-8.833a10.19 10.19 0 0 0-7.76-3.004 11.05 11.05 0 0 0-4.099.79 10.3 10.3 0 0 0-3.53 2.323 10.301 10.301 0 0 1 3.53-2.323 11.052 11.052 0 0 1 4.098-.789zm135.738 18.456q-.482.088-1.228.154.745-.065 1.228-.154zm-19.877 4.385l-.876-5.306a13.286 13.286 0 0 1-1.831.585 13.287 13.287 0 0 0 1.83-.584zm-11.706-5.349a7.578 7.578 0 0 0 4.472 1.184 18.874 18.874 0 0 0 3.06-.264 18.868 18.868 0 0 1-3.059.262 7.578 7.578 0 0 1-4.472-1.183 4.34 4.34 0 0 1-1.885-3.199h-.001a4.34 4.34 0 0 0 1.885 3.2zm28.69 6.751a14.5 14.5 0 0 1-2.614-.195 14.506 14.506 0 0 0 2.614.196q1.183 0 2.476-.11t2.543-.285q-1.25.174-2.543.284t-2.476.11zm-6.073-23.279a10.81 10.81 0 0 1 4.363-.833 10.27 10.27 0 0 1 2.433.263 13.186 13.186 0 0 1 2.17.745 13.197 13.197 0 0 0-2.17-.746 10.272 10.272 0 0 0-2.433-.263 10.81 10.81 0 0 0-4.363.833 8.635 8.635 0 0 0-3.222 2.411 11.022 11.022 0 0 0-2.017 3.836v.001a11.022 11.022 0 0 1 2.017-3.836 8.634 8.634 0 0 1 3.222-2.41zm-21.959 4.8a4.384 4.384 0 0 1 .922-.29 4.385 4.385 0 0 0-.922.29 3.898 3.898 0 0 0-1.316.987 4.407 4.407 0 0 0-.81 1.425 4.407 4.407 0 0 1 .81-1.425 3.896 3.896 0 0 1 1.316-.987zm-20.157-5.151h6.532v23.059-23.06h-6.532v.001zm-5.327-10.653a14.754 14.754 0 0 1 2.039.657 14.746 14.746 0 0 0-2.039-.657zm31.293 18.239a4.065 4.065 0 0 0-.695-1.327 4.066 4.066 0 0 1 .694 1.326z" class="cls-1"/><path d="M203.305 40.331a10.19 10.19 0 0 1 7.76 3.003q2.85 3.003 2.85 8.833 0-5.83-2.85-8.834a10.19 10.19 0 0 0-7.76-3.004 11.053 11.053 0 0 0-4.098.79 10.304 10.304 0 0 0-3.53 2.323 10.307 10.307 0 0 1 3.529-2.322 11.054 11.054 0 0 1 4.099-.789z" class="cls-1"/><path d="M203.393 45.723a4.386 4.386 0 0 0-.963.082 4.386 4.386 0 0 1 .963-.082zm-33.879-5.919v.001a7.055 7.055 0 0 1 .197-1.71 3.47 3.47 0 0 1 .589-1.249 3.47 3.47 0 0 0-.589 1.248 7.056 7.056 0 0 0-.197 1.71zM67.651 61.11a9.992 9.992 0 0 1-2.148-3.837 16.26 16.26 0 0 1-.679-4.8 13.582 13.582 0 0 1 .81-4.713 13.583 13.583 0 0 0-.81 4.714 16.263 16.263 0 0 0 .68 4.8 9.992 9.992 0 0 0 2.147 3.836zm17.997-8.46c-.002.18.012.359.017.538-.005-.18-.019-.358-.017-.538zm-8.155 6.357a15.954 15.954 0 0 0 2.542-.22 10.77 10.77 0 0 0 2.5-.7l.16.93-.16-.932a10.77 10.77 0 0 1-2.499.701 15.945 15.945 0 0 1-2.542.22q-3.333 0-4.67-1.71a7.662 7.662 0 0 1-1.337-4.823 7.662 7.662 0 0 0 1.337 4.824q1.337 1.71 4.669 1.71z" class="cls-1"/><path d="M79.685 46.204a10.535 10.535 0 0 0-2.455-.263 5.175 5.175 0 0 0-4.318 1.798 7.4 7.4 0 0 0-1.425 4.734 7.4 7.4 0 0 1 1.425-4.733 5.175 5.175 0 0 1 4.318-1.798 10.536 10.536 0 0 1 2.455.263 16.502 16.502 0 0 1 2.017.614l1.359-5.217-1.359 5.216a16.5 16.5 0 0 0-2.017-.614zm15.213-.109a3.9 3.9 0 0 0-1.316.987 4.416 4.416 0 0 0-.81 1.425 4.417 4.417 0 0 1 .811-1.425 3.9 3.9 0 0 1 1.315-.987zm134.685 12.911q.877.001 1.622-.065-.745.065-1.622.065a4.692 4.692 0 0 1-4.032-1.84 8 8 0 0 1-1.36-4.867q0-4.734 2.613-5.918-2.614 1.184-2.614 5.918a8 8 0 0 0 1.36 4.867 4.692 4.692 0 0 0 4.033 1.84zM147.93 151.74l-.006.34c.002-.117.006-.232.006-.34zm17.84 80.104c.004-.06.014-.12.02-.18-.006.06-.016.12-.02.18zm-16.911 7.003a3.455 3.455 0 0 1 .241-.385 3.455 3.455 0 0 0-.241.385l-.008.018h-.019.019zm-9.987 18.027v.001l3.217-5.818-3.217 5.817zm26.112.026q-1.952.65-3.961 1.103v.001a40.704 40.704 0 0 1-4.341.724 40.725 40.725 0 0 0 4.342-.724q2.006-.453 3.96-1.104l-9.985-18.044zm-16.516-100.337l-.007-.06.006.061a36.532 36.532 0 0 1 .431 6.97 36.534 36.534 0 0 0-.43-6.97zm3.423 80.467c-.042 0-.083 0-.126.002a3.448 3.448 0 0 0-.888.153 3.451 3.451 0 0 1 .888-.153l.126-.002zm3.021 1.808l.01.018-.009-.018a3.467 3.467 0 0 0-3.022-1.808 3.467 3.467 0 0 1 3.021 1.808zm.955-86.087c.008-.209.003-.479-.002-.739-.002-.133-.006-.264-.006-.38l.005.381c.006.26.011.528.003.738zm36.209 58.862a41.23 41.23 0 0 1 .573 7.446 41.235 41.235 0 0 0-.573-7.446zm-36.747-55.117l-.024.198.024-.197c.062-.435.138-.85.213-1.25a16.301 16.301 0 0 0 .325-2.496 16.296 16.296 0 0 1-.325 2.495c-.075.402-.151.816-.213 1.25zm35.961 51.474q.475 1.802.786 3.643-.31-1.839-.786-3.643zm-21.117 4.396c-.005.02-.005.04-.01.06.021-.084.05-.166.077-.248-.021.063-.049.124-.067.188zm20.004-7.955q.637 1.755 1.113 3.56-.476-1.803-1.113-3.56zm-21.103 24.211a3.353 3.353 0 0 0-3.244 2.756 3.43 3.43 0 0 1 3.244-2.756zm.758.054l-.02-.004a3.407 3.407 0 0 0-.663-.053 3.446 3.446 0 0 1 .663.053zm20.467 3.412c-.03.084-.064.165-.094.248.03-.083.064-.164.094-.248l-20.434-3.454zm-42.674-66.442l-.005.004-.093 1.65.093-1.649.005-.005zm-38.335 24.268l-1.177-1.049 1.176 1.05a50.961 50.961 0 0 0-8.024 35.472l-.442.129.443-.129a50.961 50.961 0 0 1 8.024-35.473zm-22.44 39.173c-.15.034-.306.071-.464.11l-.31.074.309-.074c.158-.039.315-.076.466-.11zm4.15-.372a36.416 36.416 0 0 0 6.954-1.15 4.612 4.612 0 0 0 1.18-1.073 4.611 4.611 0 0 1-1.18 1.072 36.422 36.422 0 0 1-6.954 1.15l-.093.01c-.442.037-.87.053-1.283.07.413-.016.84-.033 1.282-.069zm-4.99.575l.026-.009-.026.008-.028.007a3.984 3.984 0 0 0-.7.16c-.013.004-.024.012-.037.016a3.984 3.984 0 0 1 .737-.175zm13.444-56.72a3.64 3.64 0 0 0-.14-.004 3.803 3.803 0 0 0-3.015 1.403 3.803 3.803 0 0 1 3.015-1.402zm8.565 16.087l.019.13.001.009-.001-.01zm-7.731-6.847q.568.297 1.123.618.623.353 1.229.734-.607-.38-1.229-.734a27.637 27.637 0 0 0-1.123-.618zm-3.088-2.057c.025.02.044.046.07.066l.034.024-.034-.024c-.026-.02-.045-.045-.07-.066zm40.754 52.71c.009-.092.03-.182.03-.275v-.014c-.001.096-.021.193-.03.29zm-.255 1.042l.06.076-.059-.076.008-.018a3.436 3.436 0 0 0 .203-.647 3.446 3.446 0 0 1-.203.647zm-7.788 19.041l7.848-18.965-7.848 18.965zm3.996-23.786l-.034-.042.033.042h.001zm-20.881-46.646q.14-.023.28-.042l.013-.002.012.008-.012-.009-.013.002c-.093.013-.187.028-.28.043a2.716 2.716 0 0 1-2.035-.264 2.716 2.716 0 0 0 2.035.264zm42.92-16.739a2.715 2.715 0 0 1-1.063-1.748q-.031-.868-.02-1.735-.011.868.02 1.736a2.715 2.715 0 0 0 1.063 1.747zm-53.485 8.422c.217.17.463.362.637.512q.46.41.89.852-.429-.442-.889-.852c-.175-.15-.421-.342-.638-.512l-.237-.186a4.733 4.733 0 0 0-.621-.423 4.737 4.737 0 0 1 .621.423zm103.375 53.676a36.507 36.507 0 0 0 6.97 1.15l.078.008-.077-.008a36.507 36.507 0 0 1-6.97-1.15 3.912 3.912 0 0 1-1.477-1.39 3.912 3.912 0 0 0 1.476 1.39zm-71.235 1.225l.002.001-.002-.001zm66.065-54.464c.173-.15.405-.33.63-.507-.225.176-.457.357-.631.507a16.875 16.875 0 0 0-1.672 1.717 16.88 16.88 0 0 1 1.673-1.717zm-58.571 27.519h.011a3.437 3.437 0 0 1-.582-.077 3.435 3.435 0 0 0 .571.077zm61.315-19.987l.067-.037q.56-.279 1.095-.6-.535.321-1.095.6c-.022.012-.045.026-.067.037zm-63.205 19.321l.017.012-.016-.013-.001.001zm23.302-.063l.001-.001.015-.011-.015.011-.001.001zm-4.806-.758l.006.007a3.432 3.432 0 0 1-.295-.49 3.439 3.439 0 0 0 .289.483zm35.681-10.344l.182-.163-.182.163zm-23.153 20.765h-.001a3.44 3.44 0 0 0-.36.366 3.392 3.392 0 0 1 .36-.366zm24.538-22.02l.001-.009-.001.009zM60.07 245.458q-.382-.479-.715-.993a12.385 12.385 0 0 1-1.706-9.56l16.22-70.567-16.221 70.567a12.385 12.385 0 0 0 1.707 9.561q.333.514.715.992zm71.065-28.693l.016-.068h.001-.001l-.016.068zm1.719-1.13l.004-.006a3.426 3.426 0 0 1-.421.404 3.43 3.43 0 0 0 .417-.398zm12.823-17.168l.001-.02.084-.042-.085.042v.02zm11.185-20.646c.024.003.047.008.07.01-.023-.002-.046-.007-.07-.01zm17.208-5.543a51.582 51.582 0 0 1 14.831 10.817 51.583 51.583 0 0 0-14.83-10.817 51.036 51.036 0 0 0-17.81-4.953l-.006-.1.005.1a51.036 51.036 0 0 1 17.81 4.953zm16.327 9.76l-.012-.001-1.484 1.058 1.484-1.057h.012zm-34.227-16.455v.014l.005.088-.004-.088v-.014l-.01-.01-.215-.198.214.198zm30.391 31.331a41.247 41.247 0 0 1 2.002 3.668 41.238 41.238 0 0 0-2.002-3.668l-8.088 7.24zm11.369-19.791l.135-.138c.155-.165.293-.326.439-.489-.146.164-.284.324-.44.49l-.134.136a35.99 35.99 0 0 1-5.164 4.66 35.989 35.989 0 0 0 5.164-4.659zm-17.577 12.025h-.001l-15.783 11.19 15.784-11.19z" class="cls-1"/><path d="M295.226 80.603V54.797a45.717 45.717 0 0 0-45.583-45.583H54.146A45.717 45.717 0 0 0 8.563 54.797v341.676h286.708V80.603zm-76.998-33.06v-.002a11.022 11.022 0 0 1 2.017-3.836 8.635 8.635 0 0 1 3.222-2.41 10.81 10.81 0 0 1 4.363-.834 10.272 10.272 0 0 1 2.433.263 13.197 13.197 0 0 1 2.17.745V31.036l6.532-1.052V63.26q-.876.264-2.016.504-1.14.242-2.39.417-1.25.175-2.543.285-1.293.11-2.476.11a14.625 14.625 0 0 1-5.086-.833 10.203 10.203 0 0 1-3.77-2.39 10.355 10.355 0 0 1-2.346-3.77 14.371 14.371 0 0 1-.81-4.976 17.025 17.025 0 0 1 .7-5.064zm-25.028-.264a11.512 11.512 0 0 1 1.706-2.96l.01-.013c.119-.15.253-.288.38-.432.127-.143.246-.293.38-.43v-.001h.001a10.304 10.304 0 0 1 3.53-2.325 11.053 11.053 0 0 1 4.098-.789 10.19 10.19 0 0 1 7.76 3.004q2.85 3.003 2.85 8.833v.001q-.001.57-.044 1.25-.044.68-.088 1.206h-14.817a4.34 4.34 0 0 0 1.885 3.2 7.578 7.578 0 0 0 4.472 1.182 18.868 18.868 0 0 0 3.06-.262c.155-.025.313-.036.468-.066.337-.057.667-.144.998-.226a13.286 13.286 0 0 0 1.831-.585l.877 5.305h-.001v.001a9.03 9.03 0 0 1-1.404.525 18.3 18.3 0 0 1-1.95.46q-1.075.198-2.302.33a23.02 23.02 0 0 1-2.455.131 14.525 14.525 0 0 1-5.414-.92 10.537 10.537 0 0 1-3.815-2.52h.001a9.998 9.998 0 0 1-2.236-3.794 15.018 15.018 0 0 1-.723-4.735 14.096 14.096 0 0 1 .942-5.37zm-12.46-13.79a3.585 3.585 0 0 1 1.115-2.036 4.157 4.157 0 0 1 5.48 0 3.59 3.59 0 0 1 1.162 2.827 3.587 3.587 0 0 1-1.161 2.828 3.997 3.997 0 0 1-2.74 1.03h-.001a3.995 3.995 0 0 1-2.74-1.03 3.584 3.584 0 0 1-1.162-2.828 3.581 3.581 0 0 1 .048-.79zm7.143 7.454v23.061h-6.532v-23.06zm-22.381-8.329q2.52-2.63 7.475-2.63a12.657 12.657 0 0 1 3.047.307 14.746 14.746 0 0 1 2.039.657l-1.14 5.13a6.255 6.255 0 0 0-1.557-.438 11.354 11.354 0 0 0-1.73-.132 5.323 5.323 0 0 0-1.996.33 3.08 3.08 0 0 0-1.271.897c-.027.035-.044.076-.07.111a3.47 3.47 0 0 0-.588 1.25 7.055 7.055 0 0 0-.197 1.71v1.138h8.067v5.436h-8.067v17.624h-6.533V39.716a9.836 9.836 0 0 1 2.521-7.102zm-14.686-1.16a4.158 4.158 0 0 1 5.48 0 3.587 3.587 0 0 1 1.162 2.826 3.585 3.585 0 0 1-1.162 2.828 4.16 4.16 0 0 1-5.48 0 3.583 3.583 0 0 1-1.161-2.828 3.584 3.584 0 0 1 1.161-2.827zm6.028 9.49v23.06h-6.532v-23.06zm-26.216 13.634V35.2l6.533-1.052v6.795h7.847v5.438h-7.847v8.11a6.45 6.45 0 0 0 .723 3.288 2.08 2.08 0 0 0 .453.537 3.743 3.743 0 0 0 2.462.69 12.463 12.463 0 0 0 2.17-.197q.522-.088 1.033-.225.51-.137 1.006-.323l.92 5.086a18.473 18.473 0 0 1-2.63.833 15.332 15.332 0 0 1-3.551.351 11.688 11.688 0 0 1-4.428-.724 6.944 6.944 0 0 1-2.806-2.016 7.502 7.502 0 0 1-1.468-3.135 18.476 18.476 0 0 1-.417-4.077zm-18.281 9.425V42.171a39.28 39.28 0 0 1 4.143-1.16 23.88 23.88 0 0 1 5.326-.549q.527 0 1.272.066.744.066 1.491.175.744.11 1.49.263a7.103 7.103 0 0 1 1.271.373l-1.096 5.392q-.877-.219-2.06-.46a12.778 12.778 0 0 0-2.543-.24 11.874 11.874 0 0 0-1.469.11 8.635 8.635 0 0 0-1.293.24v17.623h-6.532zM85.648 52.65a14.097 14.097 0 0 1 .942-5.37 11.508 11.508 0 0 1 2.477-3.837 10.3 10.3 0 0 1 3.53-2.324 11.05 11.05 0 0 1 4.099-.789 10.19 10.19 0 0 1 7.76 3.004q2.849 3.003 2.849 8.833 0 .57-.044 1.25t-.087 1.206H92.356a4.338 4.338 0 0 0 1.885 3.2 7.576 7.576 0 0 0 4.471 1.183c.547.001 1.093-.028 1.637-.074a18.887 18.887 0 0 0 1.892-.255 13.294 13.294 0 0 0 2.828-.81l.877 5.305a9.033 9.033 0 0 1-1.403.525 18.33 18.33 0 0 1-1.95.46q-1.076.198-2.302.33a23.022 23.022 0 0 1-2.456.131 14.528 14.528 0 0 1-5.414-.92 10.534 10.534 0 0 1-3.814-2.52 10 10 0 0 1-2.236-3.794q-.185-.573-.323-1.159c-.026-.112-.042-.227-.066-.34-.059-.28-.12-.558-.162-.84-.014-.09-.02-.184-.031-.275a14.86 14.86 0 0 1-.103-.917c-.016-.221-.015-.443-.021-.665-.005-.18-.019-.358-.017-.538zm-20.014-4.89a11.03 11.03 0 0 1 6.072-6.466 12.298 12.298 0 0 1 4.998-.965 16.13 16.13 0 0 1 3.376.33 16.468 16.468 0 0 1 2.981.942v.001l-1.359 5.217a16.502 16.502 0 0 0-2.017-.614 10.536 10.536 0 0 0-2.455-.263 5.175 5.175 0 0 0-4.318 1.798 7.4 7.4 0 0 0-1.425 4.733 7.662 7.662 0 0 0 1.337 4.823q1.337 1.71 4.67 1.71a15.945 15.945 0 0 0 2.542-.22 10.77 10.77 0 0 0 2.499-.7l.16.93.76 4.418a15.32 15.32 0 0 1-2.85.834 18.832 18.832 0 0 1-3.77.35 14.195 14.195 0 0 1-5.436-.943 10.231 10.231 0 0 1-3.748-2.564 9.992 9.992 0 0 1-2.148-3.837 16.263 16.263 0 0 1-.68-4.8 13.583 13.583 0 0 1 .811-4.714zm221.114 341.293H15.96V84.48h270.788z" class="cls-2"/><path d="M224.191 52.3a8 8 0 0 0 1.36 4.865 4.692 4.692 0 0 0 4.032 1.841q.877 0 1.622-.065.746-.066 1.228-.154v-11.88a5.693 5.693 0 0 0-1.6-.658 7.714 7.714 0 0 0-1.995-.263 4.89 4.89 0 0 0-2.033.395q-2.615 1.184-2.614 5.918zm-16.874-3.77h-.001a4.066 4.066 0 0 0-.694-1.327c-.019-.024-.031-.053-.051-.077a3.975 3.975 0 0 0-1.271-1.009 4.141 4.141 0 0 0-1.907-.394 4.387 4.387 0 0 0-1.885.372 3.896 3.896 0 0 0-1.315.987 4.407 4.407 0 0 0-.81 1.425 9.345 9.345 0 0 0-.418 1.644h8.637a6.788 6.788 0 0 0-.285-1.622zM92.356 50.151h8.636a6.788 6.788 0 0 0-.285-1.622 4.066 4.066 0 0 0-.745-1.403 3.98 3.98 0 0 0-1.272-1.009 4.141 4.141 0 0 0-1.907-.394 4.384 4.384 0 0 0-1.885.372 3.9 3.9 0 0 0-1.315.987 4.417 4.417 0 0 0-.811 1.425h.001a9.311 9.311 0 0 0-.417 1.644zm45.981 8.165a3.739 3.739 0 0 0 2.462.69 3.743 3.743 0 0 1-2.462-.69zm43.518-21.208a3.995 3.995 0 0 0 2.74 1.03h.001a3.997 3.997 0 0 0 2.74-1.03 3.587 3.587 0 0 0 1.161-2.828 3.587 3.587 0 0 1-1.162 2.828 4.16 4.16 0 0 1-5.48 0z" class="cls-2"/><path d="M181.855 31.453a4.15 4.15 0 0 1 1.297-.772M85.82 55.046c-.014-.092-.02-.184-.031-.276" class="cls-3"/><path d="M80.606 64.266a18.823 18.823 0 0 1-3.77.351 14.195 14.195 0 0 1-5.437-.943 10.231 10.231 0 0 1-3.748-2.564v.001a10.231 10.231 0 0 0 3.748 2.564 14.195 14.195 0 0 0 5.437.943 18.832 18.832 0 0 0 3.77-.35 15.32 15.32 0 0 0 2.85-.834l-.76-4.418.759 4.417a15.316 15.316 0 0 1-2.849.833zm100.745-.263h6.532v.001h-6.532zm13.866-2.826h-.001a10.537 10.537 0 0 0 3.815 2.52 14.525 14.525 0 0 0 5.414.921 23.02 23.02 0 0 0 2.455-.13q1.227-.133 2.302-.33a18.3 18.3 0 0 0 1.95-.46 9.03 9.03 0 0 0 1.404-.526 9.035 9.035 0 0 1-1.402.524 18.297 18.297 0 0 1-1.951.46q-1.075.198-2.302.33a23.02 23.02 0 0 1-2.455.131 14.525 14.525 0 0 1-5.414-.92 10.536 10.536 0 0 1-3.814-2.52 9.998 9.998 0 0 1-2.236-3.794 15.018 15.018 0 0 1-.723-4.734 14.096 14.096 0 0 1 .942-5.37h-.001a14.096 14.096 0 0 0-.942 5.37 15.018 15.018 0 0 0 .723 4.735 9.998 9.998 0 0 0 2.236 3.793zm-51.216-2.593q-.51.137-1.032.225a12.463 12.463 0 0 1-2.17.197 12.464 12.464 0 0 0 2.17-.197q.522-.088 1.032-.225z" class="cls-2"/><path d="M213.783 54.621h-14.817v.002h14.817q.044-.526.088-1.206.043-.68.044-1.25 0 .57-.044 1.25t-.088 1.204zm-33.09-20.341a3.581 3.581 0 0 1 .048-.79 3.581 3.581 0 0 0-.048.79 3.584 3.584 0 0 0 .047.792 3.58 3.58 0 0 1-.047-.792zM92.356 54.622v.001h14.818q.043-.526.087-1.206-.044.68-.087 1.205zm44.805-13.679h7.847v.001h-7.847zM86.59 47.28a14.097 14.097 0 0 0-.942 5.37 14.095 14.095 0 0 1 .942-5.37zm109.086-3.837c-.134.138-.253.288-.38.431.127-.144.247-.294.38-.431zm14.173 15.007c-.331.083-.661.17-.998.227-.155.03-.313.041-.468.066.156-.025.314-.036.47-.066.336-.057.665-.144.996-.226z" class="cls-2"/><path d="M194.905 44.32l.01-.014M85.686 53.853c-.016-.221-.015-.443-.021-.665" class="cls-3"/><path d="M137.161 34.149v-.001l-6.533 1.052v19.378-19.377l6.533-1.052zm-32.092 23.718a13.294 13.294 0 0 1-2.828.81 18.887 18.887 0 0 1-1.892.255 18.886 18.886 0 0 0 1.893-.254 13.294 13.294 0 0 0 2.827-.81zm115.615 3.485a10.203 10.203 0 0 0 3.77 2.39 14.504 14.504 0 0 0 2.472.637 14.506 14.506 0 0 1-2.472-.638 10.204 10.204 0 0 1-3.77-2.39 10.354 10.354 0 0 1-2.346-3.77 14.37 14.37 0 0 1-.81-4.975 14.371 14.371 0 0 0 .81 4.976 10.355 10.355 0 0 0 2.346 3.77z" class="cls-2"/><path d="M86.048 56.225c-.026-.112-.042-.227-.066-.34" class="cls-3"/><path d="M169.514 40.944h8.067v.001h-8.067zm-43.445.022q-.746-.153-1.49-.263-.747-.109-1.491-.175.745.066 1.49.175.746.11 1.491.263z" class="cls-2"/><path d="M144.001 58.584q.51-.137 1.007-.323" class="cls-3"/><path d="M150.312 64.003h6.532v.001h-6.532zm.504-26.895a4.16 4.16 0 0 0 5.48 0 4.16 4.16 0 0 1-5.48 0zm-15.497 26.699a11.688 11.688 0 0 0 4.428.724 15.332 15.332 0 0 0 3.551-.35 15.333 15.333 0 0 1-3.55.35 11.688 11.688 0 0 1-4.429-.724zM71.706 41.295a12.299 12.299 0 0 1 4.998-.965 16.13 16.13 0 0 1 3.376.33 16.483 16.483 0 0 1 2.98.942h.001a16.468 16.468 0 0 0-2.981-.944 16.13 16.13 0 0 0-3.376-.329 12.298 12.298 0 0 0-4.998.965 11.03 11.03 0 0 0-6.072 6.466v.001a11.03 11.03 0 0 1 6.072-6.466zm98.594-4.449c.025-.035.042-.076.069-.11a3.08 3.08 0 0 1 1.271-.899 3.08 3.08 0 0 0-1.271.898c-.027.035-.044.076-.07.111zm68.665 26.414q-.878.262-2.016.503 1.14-.24 2.016-.504zm-32.977-16.704a3.974 3.974 0 0 0-.688-.439 4.138 4.138 0 0 0-.457-.183 4.138 4.138 0 0 1 .457.183 3.972 3.972 0 0 1 .688.44zm.634.647c-.019-.024-.031-.053-.051-.077a3.975 3.975 0 0 0-.583-.57 3.974 3.974 0 0 1 .583.57c.02.024.032.053.051.077zM92.773 48.507h-.001a9.305 9.305 0 0 0-.417 1.644h.001a9.311 9.311 0 0 1 .417-1.644zm110.62-2.784a4.143 4.143 0 0 1 .977.084 4.142 4.142 0 0 0-.977-.084zm27.44.527a5.693 5.693 0 0 1 1.6.657 5.692 5.692 0 0 0-1.6-.658zm-23.231 3.901a6.792 6.792 0 0 0-.285-1.622 6.788 6.788 0 0 1 .285 1.622zm-37.737 178.483l-.033.042-.02-.004a3.446 3.446 0 0 0-.662-.053c-.026 0-.05.002-.076.003a3.43 3.43 0 0 0-3.244 2.756 3.45 3.45 0 0 0-.04.286c-.006.06-.016.12-.02.18a3.444 3.444 0 0 0 .007.493 3.431 3.431 0 0 0 .084.527 3.412 3.412 0 0 0 .179.547l.008.017-.026.035 7.932 19.16a40.531 40.531 0 0 0 9.335-8.252c.19-.23.385-.456.57-.69.193-.243.378-.493.566-.74.143-.19.29-.376.43-.567.19-.26.37-.527.554-.79.133-.192.27-.38.4-.574.178-.266.347-.539.519-.81.126-.197.256-.392.379-.593.17-.279.331-.564.495-.848.114-.197.233-.39.343-.59.156-.28.302-.565.45-.849.11-.209.226-.415.332-.625.149-.297.287-.599.43-.899.095-.202.196-.402.288-.605.148-.326.284-.657.423-.986.078-.185.161-.367.236-.552.176-.435.34-.875.501-1.317.03-.083.064-.164.094-.248zm-31.931 2.958c-.005-.034-.003-.068-.01-.102a3.413 3.413 0 0 0-.186-.634 3.469 3.469 0 0 0-.176-.34c-.044-.084-.08-.172-.13-.251-.053-.082-.122-.153-.182-.23a3.462 3.462 0 0 0-.234-.292 3.413 3.413 0 0 0-.503-.428c-.027-.02-.06-.031-.087-.05a3.436 3.436 0 0 0-.514-.283c-.086-.038-.18-.058-.27-.089a2.778 2.778 0 0 0-1.039-.194h-.043a3.534 3.534 0 0 0-.632.057l-.02.004h-.001l-.033-.042-20.257 3.438q.571 1.575 1.267 3.09c.339.74.706 1.463 1.088 2.179.4.75.815 1.49 1.26 2.211a40.717 40.717 0 0 0 2.855 4.056q1.032 1.292 2.167 2.498 1.135 1.204 2.367 2.316a40.713 40.713 0 0 0 3.902 3.109q.684.479 1.389.931l7.848-18.965-.06-.076.009-.018a2.768 2.768 0 0 0 .246-1.024c.009-.096.029-.193.03-.289a3.436 3.436 0 0 0-.05-.582zm2.271-30.506h.001l.016.013a3.432 3.432 0 0 0 .533.312c.059.028.118.052.178.076a3.395 3.395 0 0 0 .412.14c.06.017.119.036.18.049a3.351 3.351 0 0 0 1.257.038c.1-.016.195-.051.293-.076a3.448 3.448 0 0 0 .353-.093c.105-.038.202-.096.303-.144.1-.049.205-.089.3-.147a3.462 3.462 0 0 0 .294-.22c.08-.06.166-.113.24-.18a3.354 3.354 0 0 0 .753-1.009c.027-.055.05-.113.074-.17a3.408 3.408 0 0 0 .147-.41c.017-.062.035-.123.05-.186a3.435 3.435 0 0 0 .088-.612v-.02l.085-.042 1.165-20.584a41.604 41.604 0 0 0-4.153.718 40.607 40.607 0 0 0-19.48 10.6l16.877 11.964zm17.84-2.706l.001.02c0 .012.004.024.004.036a3.443 3.443 0 0 0 .084.567c.016.07.036.138.056.207a3.41 3.41 0 0 0 .139.383c.027.064.052.129.083.19a3.43 3.43 0 0 0 1.291 1.403c.05.03.105.048.156.076a3.447 3.447 0 0 0 .448.213c.026.01.055.012.081.021a3.324 3.324 0 0 0 1.823.104c.056-.012.11-.03.165-.045a3.402 3.402 0 0 0 .426-.145c.057-.023.115-.047.17-.074a3.44 3.44 0 0 0 .535-.312h.001l.015-.012.06.025.986-.699 15.783-11.19q-1.193-1.167-2.472-2.228c-.112-.093-.228-.18-.342-.272a40.374 40.374 0 0 0-.95-.757c-.195-.149-.396-.29-.593-.434-.247-.181-.49-.366-.74-.541-.25-.176-.507-.342-.76-.512-.204-.136-.404-.276-.609-.408-.297-.19-.6-.372-.902-.555-.168-.102-.334-.21-.503-.309-.331-.194-.669-.378-1.006-.564-.145-.08-.288-.165-.434-.243a44.707 44.707 0 0 0-1.155-.588c-.106-.052-.21-.108-.316-.16-.24-.116-.486-.223-.728-.335a40.84 40.84 0 0 0-11.91-3.41c-.023-.003-.046-.008-.07-.01l1.166 20.55zm20.428 5.773l-7.239 6.48.008.041-.013.013h-.001a3.392 3.392 0 0 0-.36.366c-.062.073-.114.154-.17.231-.044.062-.092.122-.132.186-.05.081-.091.168-.134.253-.036.07-.074.138-.105.21-.034.08-.06.163-.087.245-.027.082-.056.164-.077.248a3.408 3.408 0 0 0-.07.413c-.012.088-.03.177-.034.265a3.396 3.396 0 0 0 .015.455c.005.067.004.136.013.202a3.42 3.42 0 0 0 .116.497c.013.044.02.091.035.136a3.444 3.444 0 0 0 .228.508c.015.027.025.057.04.084a3.458 3.458 0 0 0 .343.487c.012.015.021.032.034.047a3.433 3.433 0 0 0 .45.433c.01.007.017.017.027.025a3.41 3.41 0 0 0 .552.353l.016.01a3.452 3.452 0 0 0 .648.25l.02.005.018.085 19.853 5.718q.08-.835.125-1.67.045-.836.057-1.67a41.23 41.23 0 0 0-.573-7.446q-.31-1.839-.786-3.643-.476-1.802-1.113-3.56a41.232 41.232 0 0 0-3.616-7.496zm-17.45 53.85q2.007-.453 3.961-1.103l-9.985-18.044h-.077l-.01-.018a3.467 3.467 0 0 0-3.021-1.808l-.126.002a3.451 3.451 0 0 0-2.906 1.815l-.008.018h-.019l-6.743 12.192-3.216 5.818a41.75 41.75 0 0 0 22.15 1.13zm-29.888-41.238l.016-.068h.001l.018-.005.012-.004a3.428 3.428 0 0 0 .563-.217c.06-.029.118-.061.177-.093a3.405 3.405 0 0 0 .357-.229c.053-.038.107-.074.158-.116a3.32 3.32 0 0 0 .814-.958c.043-.078.071-.163.109-.243a3.455 3.455 0 0 0 .162-.367c.032-.097.046-.199.07-.298a3.438 3.438 0 0 0 .078-.354c.014-.104.007-.212.011-.318a3.15 3.15 0 0 0-.31-1.567c-.025-.056-.056-.109-.085-.163a3.394 3.394 0 0 0-.23-.371c-.037-.052-.074-.105-.114-.155a3.432 3.432 0 0 0-.423-.45l-.014-.014.016-.084-15.41-13.785a40.5 40.5 0 0 0-5.73 25.56zm15.083 6.007l5.672 2.728 5.655-2.72 1.406-6.107-3.915-4.893h-6.3l-3.924 4.885 1.406 6.107z" class="cls-2"/><path d="M59.355 244.465q.333.514.715.993l45.509 56.583a12.61 12.61 0 0 0 9.83 4.692l72.98-.016a12.61 12.61 0 0 0 9.83-4.684l45.492-56.592a12.392 12.392 0 0 0 2.43-10.553l-16.246-70.567c-.01-.047-.029-.091-.04-.138a12.485 12.485 0 0 0-6.762-8.32l-61.89-29.553-3.868-1.847a12.671 12.671 0 0 0-10.914 0l-7.207 3.444-58.542 27.971a12.49 12.49 0 0 0-6.803 8.46l-16.22 70.567a12.385 12.385 0 0 0 1.706 9.56zm23.2-11.614a3.97 3.97 0 0 1 .816-2.053c.028-.036.064-.066.094-.101a3.985 3.985 0 0 1 .428-.451c.057-.05.125-.089.186-.136a3.946 3.946 0 0 1 .444-.314c.076-.044.162-.073.242-.112a3.904 3.904 0 0 1 .48-.212c.013-.004.024-.012.037-.016a3.984 3.984 0 0 1 .7-.16l.028-.007.026-.008.005-.002.015-.003.02-.005.31-.075a33.045 33.045 0 0 1 .741-.169 16.076 16.076 0 0 1 2.492-.233h.004c.414-.017.842-.033 1.284-.07l.093-.01a36.422 36.422 0 0 0 6.954-1.15 6.9 6.9 0 0 0 1.514-1.486l.16-.208.006-.009.012-.004 1.177-.341.442-.129a50.961 50.961 0 0 1 8.024-35.473l-1.176-1.049-.073-.066v-.003l-.002-.009a15.796 15.796 0 0 1-.02-.13l-.007-.05a4.193 4.193 0 0 0-.754-2.073q-.68-.582-1.386-1.131a36.962 36.962 0 0 0-2.033-1.46q-.593-.4-1.199-.78-.606-.38-1.228-.735-.555-.321-1.123-.618a16.142 16.142 0 0 1-2.142-1.292 9.185 9.185 0 0 1-.238-.185c-.03-.024-.06-.047-.09-.073l-.26-.212c-.08-.065-.156-.129-.23-.187l-.024-.018-.034-.024c-.026-.02-.045-.045-.07-.066a4.63 4.63 0 0 1-1.642-2.783 3.753 3.753 0 0 1 .74-3 3.803 3.803 0 0 1 3.016-1.404c.047 0 .093.001.14.003h.008a4.735 4.735 0 0 1 2.762 1.042l.237.186c.217.17.463.362.638.512q.46.41.888.852l.02.02c.018.017.033.036.05.054.273.285.538.579.79.883.267.307.544.625.844.944l.068.068a36.407 36.407 0 0 0 5.232 4.72 2.716 2.716 0 0 0 2.034.264c.094-.015.188-.03.28-.043l.014-.002.012.01.257.186c.326.235.82.588 1.139.805a50.647 50.647 0 0 1 20.276-13.129q1.776-.615 3.6-1.1.912-.242 1.835-.45a51.353 51.353 0 0 1 7.089-1.09l.093-1.65.005-.005.004-.004a4.267 4.267 0 0 0 1.268-2.019v-.09a36.532 36.532 0 0 0-.43-6.969l-.006-.062-.001-.006c-.062-.434-.14-.85-.213-1.25a16.306 16.306 0 0 1-.326-2.495 6.58 6.58 0 0 1-.003-.32l.006-.352.006-.339a.813.813 0 0 0-.005-.047.601.601 0 0 1-.004-.062 4.003 4.003 0 0 1 0-.817c0-.009.004-.016.005-.024a3.96 3.96 0 0 1 .155-.753c.034-.109.087-.207.13-.311a4.005 4.005 0 0 1 .17-.4 3.924 3.924 0 0 1 .227-.341c.068-.1.127-.204.203-.297.083-.1.18-.184.271-.275.09-.09.174-.187.273-.27.093-.076.199-.135.299-.203a3.935 3.935 0 0 1 .339-.226 4.012 4.012 0 0 1 .402-.172c.104-.042.201-.095.31-.129a3.96 3.96 0 0 1 .752-.155c.008 0 .016-.004.024-.005.134-.013.273 0 .409 0s.275-.013.408 0l.025.005a3.96 3.96 0 0 1 .752.155c.109.034.206.087.31.13a4.011 4.011 0 0 1 .402.171 3.934 3.934 0 0 1 .34.226c.099.068.204.127.298.204.099.082.182.178.272.269.092.091.19.175.272.275.076.093.135.197.202.297a3.922 3.922 0 0 1 .227.34 4.005 4.005 0 0 1 .171.4c.043.105.096.203.13.312a3.96 3.96 0 0 1 .155.752c0 .009.004.016.005.025a4.003 4.003 0 0 1 0 .817c0 .117.004.248.006.381.005.26.01.53.002.74a16.301 16.301 0 0 1-.325 2.495c-.075.4-.151.815-.213 1.25l-.025.197-.001.012c-.026.165-.043.331-.066.496a35.913 35.913 0 0 0-.35 4.027c-.007.22-.022.441-.025.663q-.01.867.021 1.735a2.715 2.715 0 0 0 1.063 1.748l.215.198.01.01v.014l.004.088q.033.77.08 1.54l.006.1a51.036 51.036 0 0 1 17.81 4.953 51.583 51.583 0 0 1 14.83 10.817l1.484-1.058.012.001.205.014a3.907 3.907 0 0 0 2.164-.27 35.99 35.99 0 0 0 5.164-4.66l.135-.137c.155-.165.293-.326.439-.49.13-.146.268-.295.393-.438.03-.036.065-.07.095-.106a16.875 16.875 0 0 1 1.673-1.717c.174-.15.406-.33.63-.507l.246-.192a4 4 0 0 1 .649-.516l.01-.008c.061-.04.129-.061.192-.097a3.973 3.973 0 0 1 .505-.254c.113-.044.229-.066.344-.1a2.306 2.306 0 0 1 .803-.144c.12-.009.241-.027.362-.025.13.002.257.025.385.04.127.014.254.02.38.047.12.025.235.07.354.107a3.928 3.928 0 0 1 .379.124 3.998 3.998 0 0 1 .369.197c.103.057.21.104.309.172a3.98 3.98 0 0 1 .435.361c.054.049.115.085.166.138l.008.01a38.582 38.582 0 0 1 .509.638l.008.01c.04.063.062.131.098.195a3.986 3.986 0 0 1 .253.503c.044.113.066.229.1.344a4.009 4.009 0 0 1 .108.399 3.947 3.947 0 0 1 .036.403c.009.122.027.242.025.363-.002.13-.025.257-.04.385-.014.127-.02.254-.047.38-.026.12-.07.235-.108.353a3.928 3.928 0 0 1-.123.38 3.998 3.998 0 0 1-.197.368c-.058.103-.105.21-.172.31a3.981 3.981 0 0 1-.361.435c-.05.054-.086.115-.138.166l-.01.008a3.998 3.998 0 0 1-.648.516l-.275.225c-.206.171-.42.346-.592.474q-.509.364-1.045.686-.535.322-1.095.601l-.067.037c-.348.184-.705.374-1.067.587a37.097 37.097 0 0 0-5.847 4.107 2.182 2.182 0 0 0-.45.704c-.03.063-.067.122-.09.188-.031.082-.045.168-.068.253-.022.084-.051.165-.065.25-.01.066-.007.133-.013.199a2.697 2.697 0 0 0-.021.327c-.007.093-.012.185-.021.277l-.001.01v.012l-.01.01-.603.54c-.201.18-.407.363-.59.529l-.182.163q1.306 1.95 2.422 3.997 1.114 2.046 2.035 4.175.92 2.127 1.642 4.325.722 2.195 1.243 4.446a51.152 51.152 0 0 1 .85 18.446l1.573.457.007.01.114.165c.027.049.062.092.092.14a3.912 3.912 0 0 0 1.477 1.39 36.507 36.507 0 0 0 6.97 1.15l.077.008c.442.037.87.054 1.284.07a16.015 16.015 0 0 1 2.493.234c.205.038.467.103.72.166.15.037.299.074.426.103a3.982 3.982 0 0 1 .71.162c.011.004.021.01.032.015a3.905 3.905 0 0 1 .457.202c.09.043.185.076.27.125a3.923 3.923 0 0 1 .345.244c.097.07.2.133.29.211s.16.171.242.257a4.008 4.008 0 0 1 .28.302c.077.1.136.213.203.32.068.107.145.21.202.323a3.989 3.989 0 0 1 .15.38c.041.112.094.219.126.334.032.114.043.234.065.351a3.926 3.926 0 0 1 .07.417c.008.098-.004.2-.004.3a3.886 3.886 0 0 1-.016.497l-.001.035c-.017.123-.057.235-.084.353-.027.119-.04.239-.078.358-.004.011-.01.02-.015.032a3.9 3.9 0 0 1-.2.454c-.044.09-.077.187-.127.273a3.939 3.939 0 0 1-.243.343c-.07.097-.133.201-.212.29-.077.088-.169.16-.253.24a3.998 3.998 0 0 1-.306.284c-.098.076-.21.133-.315.2-.109.069-.212.146-.328.204a4.005 4.005 0 0 1-.38.15c-.111.042-.218.094-.333.127-.114.032-.234.042-.351.064a3.927 3.927 0 0 1-.418.07c-.098.008-.2-.004-.3-.004a3.885 3.885 0 0 1-.497-.016h-.035a3.977 3.977 0 0 1-.71-.163l-.026-.003-.033-.005a.29.29 0 0 1-.045-.015.268.268 0 0 0-.031-.01l-.376-.078c-.13-.026-.258-.052-.381-.08a6.776 6.776 0 0 1-.262-.06 16.176 16.176 0 0 1-2.35-.872q-.588-.259-1.185-.493l-.11-.038a36.284 36.284 0 0 0-6.745-1.977 2.465 2.465 0 0 0-.224-.01 2.79 2.79 0 0 0-1.712.654c-.082.056-.161.112-.243.166l-.011.007h-.001l-.014-.002-.076-.014q-.782-.148-1.568-.275h-.006a51.254 51.254 0 0 1-22.669 28.516c.04.098.087.22.135.35l.064.17a5.971 5.971 0 0 0 .44 1.032l.006.009.006.006v.001l-.003.01-.003.01-.03.073-.079.202a2.689 2.689 0 0 0-.198 1.998l.005.024c.028.064.06.126.088.19a36.865 36.865 0 0 0 3.399 6.05q.359.53.74 1.042a16.17 16.17 0 0 1 1.371 2.097c.05.094.104.205.16.32l.135.282.058.12c.057.121.111.237.161.338a4.212 4.212 0 0 1-1.69 5.637 3.762 3.762 0 0 1-3.088.056 4.628 4.628 0 0 1-2.398-2.3c-.042-.088-.09-.185-.14-.285a16.482 16.482 0 0 1-.346-.723l-.001-.002a16.498 16.498 0 0 1-.795-2.397c-.017-.062-.037-.124-.054-.187-.092-.335-.184-.674-.296-1.026l-.025-.074-.005-.016a36.421 36.421 0 0 0-2.667-6.522 2.727 2.727 0 0 0-1.717-1.12c-.092-.028-.184-.055-.274-.084l-.01-.004h-.001l-.007-.01a21.549 21.549 0 0 1-.193-.345l-.203-.367c-.131-.237-.265-.481-.377-.68l-.054-.098a50.955 50.955 0 0 1-18.153 3.293q-2.306-.006-4.607-.22-2.299-.215-4.578-.638-2.276-.424-4.519-1.055-2.24-.632-4.431-1.473l-.884 1.602-.013.004c-.09.014-.177.04-.264.061a3.157 3.157 0 0 0-1.415.754 15.569 15.569 0 0 0-2.201 4.722c-.261.766-.53 1.56-.84 2.338-.091.287-.164.562-.24.839-.036.13-.078.265-.113.392a16.115 16.115 0 0 1-.783 2.378l-.021.046c-.084.186-.194.409-.304.627l-.033.066-.126.255-.003.014a.055.055 0 0 1-.013.016 4.444 4.444 0 0 1-3.902 2.586 3.61 3.61 0 0 1-1.572-.356 4.21 4.21 0 0 1-1.69-5.636c.056-.114.117-.247.18-.384l.154-.329.069-.14c.035-.071.07-.147.103-.208a16.46 16.46 0 0 1 1.378-2.113c.24-.33.49-.67.734-1.035.061-.089.117-.181.178-.27a38.244 38.244 0 0 0 3.381-6.126 3.88 3.88 0 0 0-.35-2.2l-.005-.013.006-.012.703-1.689q-1.513-.894-2.953-1.884-1.44-.99-2.804-2.071a51.229 51.229 0 0 1-2.597-2.22c-.87-.79-1.72-1.599-2.531-2.444a51.244 51.244 0 0 1-2.366-2.66q-1.646-1.97-3.094-4.096a50.316 50.316 0 0 1-2.674-4.394 51.25 51.25 0 0 1-2.885-6.338q-.41-1.092-.772-2.207l-1.698.292h-.001l-.01-.006-.01-.005-.164-.095a3.909 3.909 0 0 0-2.03-.69c-.013 0-.026-.004-.039-.005a36.304 36.304 0 0 0-6.732 1.973l-.044.016-.077.028c-.406.155-.79.32-1.162.48a16.603 16.603 0 0 1-2.323.858c-.017.005-.032.012-.05.016-.2.054-.46.11-.71.162l-.057.013c-.086.018-.172.035-.251.053a.266.266 0 0 0-.032.01.332.332 0 0 1-.044.014l-.033.005-.026.004h-.001a3.975 3.975 0 0 1-.71.162c-.013.002-.027 0-.04.002a3.894 3.894 0 0 1-.403.013c-.134.002-.269.015-.4.005-.078-.006-.153-.028-.23-.04a3.973 3.973 0 0 1-.543-.1l-.02-.007a4.007 4.007 0 0 1-.876-.375c-.115-.067-.21-.16-.318-.237a3.962 3.962 0 0 1-.445-.336 4.013 4.013 0 0 1-.283-.343 3.879 3.879 0 0 1-.326-.4 3.958 3.958 0 0 1-.421-.892l-.004-.007c-.008-.025-.008-.05-.016-.075a3.969 3.969 0 0 1-.15-.629c-.002-.023.001-.045-.001-.068-.008-.06-.002-.12-.006-.18a4.014 4.014 0 0 1-.008-.615c.001-.02.007-.038.01-.058z" class="cls-2"/><path d="M105.579 302.041a12.606 12.606 0 0 0 4.07 3.308 12.606 12.606 0 0 1-4.07-3.308z" class="cls-2"/><path d="M109.648 305.349a12.615 12.615 0 0 0 1.605.685m2.736.621a12.6 12.6 0 0 1-2.736-.62" class="cls-3"/><path d="M80.672 155.878l58.542-27.971-58.543 27.971a12.49 12.49 0 0 0-6.802 8.46 12.49 12.49 0 0 1 6.803-8.46zm165.385 84.904a12.397 12.397 0 0 1-.693 1.967 12.397 12.397 0 0 0 .693-1.967zm-47.838 61.251a12.613 12.613 0 0 1-.955 1.054 12.612 12.612 0 0 0 .955-1.054l45.492-56.592a12.387 12.387 0 0 0 1.653-2.692 12.387 12.387 0 0 1-1.653 2.692z" class="cls-2"/><path d="M196.208 304.018a12.605 12.605 0 0 0 1.056-.93m48.793-62.306a12.397 12.397 0 0 0 .399-3.098m-56.647 68.956a12.606 12.606 0 0 0 2.735-.62" class="cls-3"/><path d="M229.855 164.183a12.485 12.485 0 0 0-6.762-8.322l-61.89-29.55 61.89 29.551a12.485 12.485 0 0 1 6.762 8.321z" class="cls-2"/><path d="M196.208 304.018a12.617 12.617 0 0 1-3.664 2.003m-59.184-91.189a3.455 3.455 0 0 0 .162-.367m8.002-12.789c-.06-.013-.12-.032-.18-.048m28.896 10.55c.028-.082.053-.165.087-.244" class="cls-3"/><path d="M172.614 216.681l-.018-.085-.02-.005.02.005.018.085 19.853 5.718q.08-.835.125-1.67-.045.835-.125 1.67z" class="cls-2"/><path d="M192.592 220.729q.045-.836.057-1.67m-59.399-3.984a3.445 3.445 0 0 1-.392.554m.832-2.483a3.449 3.449 0 0 1-.009.35" class="cls-3"/><path d="M156.932 177.832a40.84 40.84 0 0 1 11.91 3.41 40.596 40.596 0 0 0-11.91-3.41zm14.302 32.8l7.239-6.479-7.239 6.479.007.042-.012.013.013-.013-.008-.042z" class="cls-2"/><path d="M170.868 211.053c-.062.073-.114.154-.17.231m-.132.186c-.05.081-.091.168-.134.253m-36.762 2.09a3.438 3.438 0 0 1-.079.354" class="cls-3"/><path d="M133.577 212.472a3.424 3.424 0 0 0-.205-.544 3.426 3.426 0 0 1 .206.553zm36.002-30.891l-.01-.004c.107.052.21.108.317.16-.103-.05-.204-.106-.307-.156z" class="cls-2"/><path d="M145.392 199.675a3.408 3.408 0 0 0 .147-.41" class="cls-3"/><path d="M158.045 198.38l-.017-.009.017.01v.02c0 .012.005.023.005.035 0-.012-.003-.024-.004-.036z" class="cls-2"/><path d="M145.589 199.079a3.435 3.435 0 0 0 .088-.612m-13.932 18.004c.06-.028.118-.061.177-.093" class="cls-3"/><path d="M145.023 200.34a3.435 3.435 0 0 0 .295-.495 3.436 3.436 0 0 1-.302.504zm18.5.672l.06.025.986-.699-.986.699-.06-.025zm-4.361-.232a3.461 3.461 0 0 1-.455-.507 3.48 3.48 0 0 0 .455.507zm.541.406a3.43 3.43 0 0 1-.54-.406 3.408 3.408 0 0 0 .54.406z" class="cls-2"/><path d="M171.475 182.568c-.145-.08-.288-.165-.434-.243m-14.179-4.504l1.166 20.55m-17.273 3.039c.059.029.118.053.178.077m2.142.151a3.448 3.448 0 0 0 .353-.093" class="cls-3"/><path d="M131.152 216.697l.019-.005.011-.004-.012.004z" class="cls-2"/><path d="M142.106 201.753a3.446 3.446 0 0 0 .676-.04m1.783-.859c-.074.067-.16.12-.24.18m-.595.366c.101-.048.206-.088.3-.146" class="cls-3"/><path d="M170.137 212.51h-.001c-.025.11-.028.22-.043.33a3.408 3.408 0 0 1 .07-.414c-.007.029-.02.056-.026.084zm-29.966-11.407l.034-.016v-.001l-.034.017z" class="cls-2"/><path d="M177.538 186.648a40.374 40.374 0 0 0-.95-.757m-43.303 25.874a3.394 3.394 0 0 0-.229-.371m-.776 4.756c.052-.04.106-.075.157-.117m40.547-32.593c-.168-.101-.334-.208-.503-.308" class="cls-3"/><path d="M180.353 189.147q-1.192-1.165-2.473-2.227 1.277 1.06 2.472 2.228z" class="cls-2"/><path d="M175.994 185.457c-.246-.181-.49-.366-.739-.541m-.761-.512c-.203-.136-.403-.276-.608-.408m-11.084 17.414a3.402 3.402 0 0 1-.426.145m-2.069-.08a3.447 3.447 0 0 1-.448-.213m1.284.39a3.441 3.441 0 0 1-.755-.156m-2.059-1.903c.027.064.052.129.083.19m-.278-.78c.016.07.036.138.056.206m-25.671 11.579a3.432 3.432 0 0 1 .423.45m30.565-10.214a3.44 3.44 0 0 1-.534.312" class="cls-3"/><path d="M161.64 201.68a3.432 3.432 0 0 0 .571-.08 3.437 3.437 0 0 1-.588.078l.018.001zm-22.768 55.195a40.75 40.75 0 0 0 17.81 1.853 40.749 40.749 0 0 1-17.81-1.853zm-2.972-27.9c-.083-.036-.172-.053-.258-.082.09.03.184.051.27.089z" class="cls-2"/><path d="M122.253 246.19q1.135 1.204 2.367 2.316m41.157-16.169c.006.07.014.139.024.208m5.559-16.567a3.41 3.41 0 0 0 .552.353m-.578-.378a3.433 3.433 0 0 1-.45-.433m-32.95 16.072a3.436 3.436 0 0 1 .05.582m31.09-3.552l.075-.003" class="cls-3"/><path d="M173.954 252.622a40.314 40.314 0 0 0 9.335-8.251 40.531 40.531 0 0 1-9.335 8.251zm-44.043-.076q-.705-.452-1.389-.931.684.479 1.389.931zm4.016-23.79a3.534 3.534 0 0 1 .632-.058 3.535 3.535 0 0 0-.633.058l-.02.004h.001z" class="cls-2"/><path d="M137.431 230.265c.052.079.087.167.131.25m.176.341a3.413 3.413 0 0 1 .187.634m50.071 5.83c-.15.284-.295.57-.45.85" class="cls-3"/><path d="M166.04 233.411a3.412 3.412 0 0 1-.179-.548 3.43 3.43 0 0 0 .179.548l.007.017-.025.035.026-.035z" class="cls-2"/><path d="M137.016 229.743a3.462 3.462 0 0 1 .234.292m35.326-13.444a3.452 3.452 0 0 1-.648-.25" class="cls-3"/><path d="M169.865 228.634l-.033.042.033-.042z" class="cls-2"/><path d="M136.426 229.266c.028.018.06.03.087.049m53.692 3.021c-.161.442-.325.882-.501 1.317m-73.733 3.772a40.64 40.64 0 0 1-1.088-2.179m55.966-19.773a3.458 3.458 0 0 1-.343-.487m18.25 20.81c-.142.3-.28.602-.43.899m-18.123-22.437a3.42 3.42 0 0 1-.116-.497m15.323 27.822c-.184.264-.365.531-.554.791m-46.902-9.911a3.45 3.45 0 0 1-.043.377m48.417 7.36c-.172.271-.34.544-.519.81m-15.735-27.45a3.396 3.396 0 0 1-.015-.456m-35.456 15.595a3.448 3.448 0 0 1 .672.078m34.963-14.383a3.444 3.444 0 0 0 .228.508" class="cls-3"/><path d="M148.831 238.865l-6.742 12.192 6.743-12.192h-.001z" class="cls-2"/><path d="M128.522 251.615a40.713 40.713 0 0 1-3.902-3.109" class="cls-3"/><path d="M183.865 243.674c.192-.24.374-.489.56-.734-.188.248-.373.498-.566.742z" class="cls-2"/><path d="M189.468 234.205c-.139.33-.275.66-.423.986m-1.843 3.568c-.164.284-.325.57-.495.848" class="cls-3"/><path d="M221.066 234.39c.039-.12.051-.239.078-.358-.03.13-.05.265-.092.39.004-.011.01-.02.014-.032z" class="cls-2"/><path d="M220.851 234.876c-.043.09-.077.187-.126.273" class="cls-3"/><path d="M178.626 263.917l-.003.01.003-.01z" class="cls-2"/><path d="M218.003 237.051a3.927 3.927 0 0 1-.418.071m-.796-.021a3.885 3.885 0 0 0 .497.016m-2.135-.369c.123.027.251.053.38.08m3.157.032c-.112.042-.219.094-.334.127m2.127-1.495c-.07.097-.133.201-.212.29m-.253.241a3.998 3.998 0 0 1-.305.283m1.534-3.159a3.886 3.886 0 0 1-.016.497m-1.834 2.862c-.109.069-.212.146-.327.204m-10.78-59.883c.015-.128.038-.255.04-.385m-.195 1.118c.037-.118.082-.233.108-.354m-.428 1.102a3.998 3.998 0 0 0 .197-.369m-.369.679a3.981 3.981 0 0 1-.361.435m.987-3.377a3.947 3.947 0 0 1 .036.404m-2.03-3.174a3.998 3.998 0 0 0-.37-.197m.581 7.034a3.998 3.998 0 0 0 .649-.516m.926-4.294c.044.113.066.229.1.344m13.091 57.57a3.926 3.926 0 0 0-.071-.417m-13.731-58.524a4.073 4.073 0 0 0-.257-.32" class="cls-3"/><path d="M207.708 174.235l-.008-.01c.042.066.068.138.106.205-.036-.064-.058-.132-.098-.195z" class="cls-2"/><path d="M206.582 173.078a3.98 3.98 0 0 1 .436.361m12.892 56.724c-.088-.078-.192-.14-.289-.21m.813.769a4.008 4.008 0 0 0-.28-.302m.96 1.659c-.032-.115-.084-.222-.127-.333m-.149-.381c-.057-.114-.134-.216-.201-.323m-1.361-1.334c-.084-.05-.18-.082-.27-.125" class="cls-3"/><path d="M218.517 229.366a3.982 3.982 0 0 0-.71-.162 3.992 3.992 0 0 1 .743.177c-.012-.004-.021-.01-.033-.015z" class="cls-2"/><path d="M205.17 172.478c.122.025.237.07.355.107m-9.57 14.767c.024-.065.061-.125.09-.188m4.437 15.255q.722 2.195 1.243 4.446m-5.544-19.983a2.716 2.716 0 0 1 .315-.422m-.673 1.396c.014-.086.044-.167.066-.251" class="cls-3"/><path d="M178.613 263.901l.007.009-.006-.009a5.971 5.971 0 0 1-.44-1.032l-.064-.17.063.17a5.972 5.972 0 0 0 .44 1.032zm-.638-1.553a51.254 51.254 0 0 0 22.669-28.516l.006.001h-.006a51.255 51.255 0 0 1-22.67 28.515zm.338 3.862a2.689 2.689 0 0 1 .198-1.998 17.9 17.9 0 0 0 .08-.202c-.027.067-.053.135-.081.202a2.689 2.689 0 0 0-.197 1.998z" class="cls-2"/><path d="M114.727 183.07a50.636 50.636 0 0 1 4.098-3.891" class="cls-3"/><path d="M202.945 233.681a2.788 2.788 0 0 1 1.33-.384 2.788 2.788 0 0 0-1.33.384zm-.727.427l.076.014.014.002-.013-.003-.077-.013zm-26.621 41.264l.025.074c.112.352.204.691.296 1.026-.094-.343-.19-.686-.296-1.027zm-4.663-7.742l-.01-.004.01.004c.09.03.182.056.274.084a2.727 2.727 0 0 1 1.376.719 2.727 2.727 0 0 0-1.376-.719c-.092-.028-.183-.055-.274-.085zm-.791-1.407c.112.2.246.444.377.681l.203.367-.203-.368c-.13-.237-.265-.48-.377-.68zm-64.452-89.161c-.3-.319-.577-.637-.843-.944a16.468 16.468 0 0 0 0 .001c.266.306.543.624.843.943zm76.854 96.454a16.177 16.177 0 0 1 1.37 2.097 9.743 9.743 0 0 1 .001 0 16.17 16.17 0 0 0-1.371-2.097q-.381-.513-.74-1.042a36.865 36.865 0 0 1-3.399-6.05 36.859 36.859 0 0 0 3.398 6.05c.246.367.498.71.74 1.042zm-33.648-109.892l.001-.09-.001.09a4.267 4.267 0 0 1-1.268 2.018l-.004.004.005-.004a4.267 4.267 0 0 0 1.267-2.018zm-37.906 18.226a36.407 36.407 0 0 1-5.232-4.72l-.068-.068.068.07a36.407 36.407 0 0 0 5.232 4.718zm85.505 4.61a37.097 37.097 0 0 1 5.847-4.107c.362-.213.72-.403 1.067-.587q-.539.283-1.067.586a37.104 37.104 0 0 0-5.847 4.108zm-41.259-29.257c.023-.166.04-.332.066-.497l.002-.012-.002.012c-.026.165-.043.331-.066.497zm43.756 18.748c-.031.036-.065.07-.096.106-.125.143-.263.293-.393.44.13-.147.268-.297.393-.44.03-.036.065-.07.096-.106zm5.283 57.346c.071 0 .146.003.223.01a36.284 36.284 0 0 1 6.746 1.977 36.288 36.288 0 0 0-6.746-1.978q-.112-.009-.223-.009zm-104.068-60.635a4.725 4.725 0 0 0-.746-.093h-.008.008a4.732 4.732 0 0 1 .746.093z" class="cls-2"/><path d="M100.926 172.87a4.74 4.74 0 0 0-.718-.208m54.654-10.77c.003-.222.018-.442.025-.663" class="cls-3"/><path d="M191.153 182.101a3.907 3.907 0 0 1-.551-.049l-.205-.014c.06.003.13.01.205.014a3.906 3.906 0 0 0 .551.049z" class="cls-2"/><path d="M119.718 276.028l.069-.14" class="cls-3"/><path d="M204.36 226.082c-.03-.047-.065-.09-.092-.139l-.114-.165.114.165c.027.049.063.092.092.14zm-56.113-70.837a16.3 16.3 0 0 1-.326-2.494 16.306 16.306 0 0 0 .326 2.495c.074.4.151.816.213 1.25v.006-.007c-.062-.433-.14-.848-.213-1.25z" class="cls-2"/><path d="M196.804 193.92q1.115 2.045 2.035 4.174" class="cls-3"/><path d="M194.382 189.922q1.306 1.95 2.422 3.997-1.115-2.045-2.422-3.997zm-46.457-38.229a.796.796 0 0 1 .005.047zm46.639 38.066l.59-.529-.59.529zm1.204-1.101c.01-.092.014-.184.021-.277a2.697 2.697 0 0 1 .021-.327 2.706 2.706 0 0 0-.021.326c-.007.094-.013.186-.021.278zm8.804-7.53q.536-.322 1.045-.686c.173-.128.386-.303.592-.474-.206.17-.418.346-.592.474q-.509.364-1.045.686zM99.629 225.87l.005-.009.011-.003 1.178-.342-1.177.341-.012.004-.006.01-.16.207a4.595 4.595 0 0 1-.334.414 4.598 4.598 0 0 0 .335-.415zm-17.069 7.902a3.969 3.969 0 0 0 .15.63 4.01 4.01 0 0 1-.151-.698c.002.023-.001.045.002.068zm7.059-4.978h.005-.005a16.076 16.076 0 0 0-2.492.233 16.078 16.078 0 0 1 2.492-.233zm-6.469 6.581a3.985 3.985 0 0 1-.42-.892 3.958 3.958 0 0 0 .42.892zm1.373 1.315c-.114-.065-.21-.16-.318-.236.108.077.203.17.318.237zm-.763-.572a4.035 4.035 0 0 1-.283-.343 4.013 4.013 0 0 0 .283.343zm1.64.948a3.977 3.977 0 0 1-.877-.375 4.007 4.007 0 0 0 .876.375zm-1.195-.612a3.981 3.981 0 0 1-.445-.336 3.962 3.962 0 0 0 .445.336zm-.728-.679a3.92 3.92 0 0 1-.326-.4 3.879 3.879 0 0 0 .326.4zm4.372 1.233a.266.266 0 0 1 .032-.01c.08-.018.165-.035.251-.053l-.25.052a.268.268 0 0 0-.033.011zm20.19-48.212l.001.003.073.066-.073-.066-.001-.003z" class="cls-2"/><path d="M86.192 237.213c.131.01.266-.003.4-.005m-.631-.034a3.973 3.973 0 0 1-.542-.1" class="cls-3"/><path d="M87.036 237.193a3.975 3.975 0 0 0 .709-.161 3.991 3.991 0 0 1-.75.163c.013-.002.027 0 .04-.002z" class="cls-2"/><path d="M120.158 258.267a51.229 51.229 0 0 1-2.597-2.22m-2.531-2.444a51.244 51.244 0 0 1-2.366-2.66" class="cls-3"/><path d="M86.056 229.276l.02-.005-.02.005-.015.003-.005.002.005-.002.015-.003zm5.216 6.619a16.605 16.605 0 0 1-2.323.86 16.603 16.603 0 0 0 2.323-.859c.372-.16.756-.325 1.162-.48l.077-.028-.076.027c-.407.156-.791.32-1.163.48zm33.94 28.041h-.001a3.88 3.88 0 0 1 .35 2.2 38.244 38.244 0 0 1-3.381 6.125 38.237 38.237 0 0 0 3.382-6.125 3.88 3.88 0 0 0-.35-2.2z" class="cls-2"/><path d="M82.545 232.909a4.014 4.014 0 0 0 .008.615m16.734-.124c.013 0 .026.003.04.004" class="cls-3"/><path d="M127.048 279.123l-.021.046.021-.046a16.115 16.115 0 0 0 .783-2.378c.034-.127.077-.262.112-.392-.035.13-.078.265-.112.391a16.118 16.118 0 0 1-.783 2.38zm5.869-11.488l-.001.001.001-.001.884-1.602-.884 1.602zm-35.588-87.774l-.025-.018.025.018c.073.058.15.122.229.187l-.229-.187zm-1.77-2.891a3.753 3.753 0 0 1 .74-3h-.001a3.753 3.753 0 0 0-.74 3 4.63 4.63 0 0 0 1.642 2.783 4.63 4.63 0 0 1-1.641-2.784zm34.51 93.454a14.851 14.851 0 0 1 1.156-1.97 3.157 3.157 0 0 1 1.414-.754 3.157 3.157 0 0 0-1.415.754 14.859 14.859 0 0 0-1.155 1.97zm-28.549-36.235l.01.005.01.006h.001l-.011-.006-.01-.005zm6.137-46.954a3.915 3.915 0 0 1 .354 1.371l.008.051-.008-.05a3.914 3.914 0 0 0-.354-1.372zm17.555 76.676l.703-1.689q-1.513-.894-2.953-1.884 1.44.99 2.953 1.884l-.703 1.69-.006.011.005.013-.005-.013z" class="cls-2"/><path d="M120.158 258.267q1.363 1.08 2.804 2.07" class="cls-3"/><path d="M163.397 268.144a50.967 50.967 0 0 1-11.46 1.275 50.96 50.96 0 0 0 11.46-1.275zm6.692-2.018a50.96 50.96 0 0 1-6.692 2.018 50.96 50.96 0 0 0 6.692-2.018zm-43.529 14.005a.055.055 0 0 1-.012.016 4.441 4.441 0 0 1-1.583 1.849 4.442 4.442 0 0 0 1.583-1.849.055.055 0 0 0 .013-.016l.003-.014c.038-.08.082-.167.126-.255l-.127.254zm-1.595 1.865a4.449 4.449 0 0 1-1.097.527 4.448 4.448 0 0 0 1.097-.527z" class="cls-2"/><path d="M122.646 282.733a4.441 4.441 0 0 0 1.222-.21" class="cls-3"/><path d="M97.908 180.333c.083.066.165.131.238.185a16.142 16.142 0 0 0 2.142 1.292 16.143 16.143 0 0 1-2.142-1.293 8.526 8.526 0 0 1-.238-.184zm86.521 96.34a4.212 4.212 0 0 1-1.69 5.637 3.762 3.762 0 0 1-3.087.056 4.628 4.628 0 0 1-2.397-2.3l-.14-.285q-.182-.357-.347-.723c.09.208.22.469.346.723.05.1.098.197.14.285a4.628 4.628 0 0 0 2.398 2.3 3.762 3.762 0 0 0 3.088-.056 4.212 4.212 0 0 0 1.69-5.637c-.05-.1-.104-.217-.161-.338l-.058-.12.058.12z" class="cls-2"/><path d="M105.871 185.403a36.962 36.962 0 0 0-2.033-1.46m49.238-36.529c.108.033.205.086.31.129m1.786 1.442c-.068-.1-.127-.204-.203-.297m-70.204 80.996a3.904 3.904 0 0 1 .48-.212m18.742-54.311l.02.02" class="cls-3"/><path d="M156.175 165.685c.014.335.05 1.061.08 1.54q-.046-.77-.08-1.54z" class="cls-2"/><path d="M155.859 151.631a4.003 4.003 0 0 0 0-.817m-.461-1.489a4.005 4.005 0 0 1 .171.4m-1.144-1.581c.099.082.182.178.272.269m-3.215-1.159c.133-.014.272-.001.408-.001m3.964 3.537a3.96 3.96 0 0 0-.155-.753m-72.234 80.66a3.985 3.985 0 0 1 .428-.451" class="cls-3"/><path d="M82.554 232.851a3.996 3.996 0 0 1 .817-2.053 3.97 3.97 0 0 0-.817 2.053z" class="cls-2"/><path d="M153.787 147.714a3.934 3.934 0 0 1 .34.226m-70.048 82.17a3.946 3.946 0 0 1 .444-.314" class="cls-3"/><path d="M152.299 147.254c.008 0 .015.004.024.005-.008-.001-.016-.005-.024-.005z" class="cls-2"/><path d="M148.081 150.037c.034-.109.087-.207.13-.311" class="cls-3"/><path d="M147.921 150.814c0-.008.004-.016.005-.024 0 .008-.004.015-.005.024z" class="cls-2"/><path d="M148.382 149.325a3.924 3.924 0 0 1 .226-.34m2.096-1.571a3.96 3.96 0 0 1 .753-.155m52.183 25.193a3.947 3.947 0 0 1 .404-.036m.363-.025c.13.002.256.025.385.04m-55.981-23.743c.083-.1.18-.184.272-.275m-10.48 20.427q-1.823.485-3.6 1.101" class="cls-3"/><path d="M202.2 173.011l-.01.008c.065-.042.136-.067.202-.105-.063.036-.13.058-.193.097z" class="cls-2"/><path d="M149.993 147.714a4.012 4.012 0 0 1 .402-.171m-1.04.601c.094-.077.199-.136.299-.204m53.243 24.72c.113-.044.229-.066.344-.1m-79.934 3.224a50.654 50.654 0 0 1 5.654-3.298" class="cls-3"/><path d="M128.96 172.486a50.635 50.635 0 0 1 6.044-2.545 50.645 50.645 0 0 0-6.043 2.545z" class="cls-2"/><path d="M147.921 152.751a7.22 7.22 0 0 1-.003-.32m89.938 176.912h.013" class="cls-3"/><path d="M8.269 438.476a34.255 34.255 0 0 0 34.254 34.256h218.1a34.255 34.255 0 0 0 34.255-34.255v-32.922H8.269zm175.127 3.618a2.909 2.909 0 0 0-1.265-.954 5.594 5.594 0 0 0-1.752-.37q-.973-.059-1.946-.059h-1.363v-5.06h1.908a10.704 10.704 0 0 0 1.596-.117 4.53 4.53 0 0 0 1.42-.448 2.643 2.643 0 0 0 1.032-.933 2.87 2.87 0 0 0 .39-1.577 2.561 2.561 0 0 0-.993-2.064 3.701 3.701 0 0 0-2.433-.816 3.424 3.424 0 0 0-2.257.74 3.383 3.383 0 0 0-1.168 1.828l-6.424-1.323a8.849 8.849 0 0 1 1.402-3.056 7.717 7.717 0 0 1 2.219-2.044 9.824 9.824 0 0 1 2.86-1.148 14.564 14.564 0 0 1 3.33-.37 13.757 13.757 0 0 1 3.522.448 8.654 8.654 0 0 1 2.978 1.401 7.012 7.012 0 0 1 2.044 2.395 7.254 7.254 0 0 1 .759 3.426 6.44 6.44 0 0 1-1.207 3.931 5.53 5.53 0 0 1-3.503 2.102v.117a5.445 5.445 0 0 1 2.2.74 5.965 5.965 0 0 1 1.614 1.44 6.308 6.308 0 0 1 1.013 1.946 7.467 7.467 0 0 1 .35 2.296 7.835 7.835 0 0 1-.798 3.62 7.555 7.555 0 0 1-2.141 2.59 9.143 9.143 0 0 1-3.153 1.537 14.204 14.204 0 0 1-3.834.507 11.523 11.523 0 0 1-6.365-1.713 8.32 8.32 0 0 1-3.523-5.412l6.15-1.44a4.194 4.194 0 0 0 1.265 2.336 4.104 4.104 0 0 0 2.823.856 3.66 3.66 0 0 0 2.822-.993 3.616 3.616 0 0 0 .915-2.55 2.943 2.943 0 0 0-.487-1.809zm-26.412-17.303h5.45v27.56h-5.606v-21.02l-5.527 4.865-3.31-3.815zm-20.708 24.212a3.637 3.637 0 0 1 .272-1.4 3.444 3.444 0 0 1 1.907-1.909 3.753 3.753 0 0 1 2.803 0 3.447 3.447 0 0 1 1.908 1.908 3.74 3.74 0 0 1 0 2.803 3.44 3.44 0 0 1-1.908 1.907 3.74 3.74 0 0 1-2.803 0 3.438 3.438 0 0 1-1.907-1.907 3.637 3.637 0 0 1-.273-1.402zm-13.859-24.212h5.45v27.56h-5.606v-21.02l-5.527 4.865-3.31-3.815zm140.434-79.284a1.643 1.643 0 0 1 .98 1.38 1.376 1.376 0 0 1-.757 1.381 6.624 6.624 0 0 1-2.583.356 17.902 17.902 0 0 1-3.518-.355 23.466 23.466 0 0 1-3.268-.997c-.067-.027-.137-.046-.205-.073l-.015.075-1.098 5.314a21.159 21.159 0 0 0 2.85.89 21.464 21.464 0 0 0 5.21.535q4.764 0 7.347-1.782a5.939 5.939 0 0 0 2.628-5.245v-.009c0-.052-.01-.104-.01-.156a8.896 8.896 0 0 0-.085-1.226 8.116 8.116 0 0 0-.261-1.2 4.736 4.736 0 0 0-1.158-2.004 7.563 7.563 0 0 0-2.227-1.693c-.197-.106-.403-.195-.603-.297a25.166 25.166 0 0 0-3.005-1.306 41.361 41.361 0 0 1-1.3-.512c-.164-.068-.338-.138-.48-.2-.08-.043-.142-.08-.217-.12-.165-.092-.323-.18-.46-.26a9.528 9.528 0 0 1-.393-.243 1.666 1.666 0 0 1-.523-.61l-.01-.015a1.79 1.79 0 0 1-.132-.68l-.002-.031q0-1.738 3.117-1.738a13.379 13.379 0 0 1 3.028.312 23.794 23.794 0 0 1 2.539.712l1.158-5.165a17.915 17.915 0 0 0-3.118-.801 20.407 20.407 0 0 0-4.097-.401 10.655 10.655 0 0 0-6.724 1.915c-.138.105-.263.222-.39.338a6.253 6.253 0 0 0-2.06 4.871 7.668 7.668 0 0 0 .49 2.895 6.27 6.27 0 0 0 1.38 2.092 8.767 8.767 0 0 0 2.139 1.47q1.27.613 2.8 1.184c.018.006.033.013.05.02a17.15 17.15 0 0 1 2.983 1.38zm-17.099-13.092a10.308 10.308 0 0 0-7.883-3.073l-.013.001a11.396 11.396 0 0 0-4.173.801 10.52 10.52 0 0 0-3.562 2.36 11.926 11.926 0 0 0-2.538 3.92 14.455 14.455 0 0 0-.936 5.432c-.002.184.012.367.017.55.006.224.005.448.02.67.02.285.058.568.093.85.015.121.021.242.04.362.04.27.097.538.15.805.027.131.045.263.075.394q.136.594.318 1.178a10.779 10.779 0 0 0 2.27 3.874 11.132 11.132 0 0 0 3.875 2.54 14.94 14.94 0 0 0 5.522.934 23.4 23.4 0 0 0 2.494-.134q1.246-.133 2.316-.356.508-.078 1.01-.19.5-.11.994-.255c.02-.005.04-.014.06-.02a9.172 9.172 0 0 0 1.364-.515l-.89-5.387a14.3 14.3 0 0 1-2.895.845 20.125 20.125 0 0 1-3.562.312 7.696 7.696 0 0 1-4.542-1.203 4.409 4.409 0 0 1-1.323-1.41c-.05-.084-.076-.18-.12-.268a4.383 4.383 0 0 1-.276-.614c-.019-.057-.02-.12-.037-.179a4.383 4.383 0 0 1-.159-.779h15.051q.045-.535.09-1.203c.018-.296.029-.57.036-.832.004-.157.008-.314.008-.46q0-5.181-2.216-8.147a8.664 8.664 0 0 0-.678-.803zm-3.518 6.902h-8.773a10.267 10.267 0 0 1 .4-1.648 4.768 4.768 0 0 1 .847-1.47 3.721 3.721 0 0 1 1.336-.979 4.24 4.24 0 0 1 .877-.296c.019-.004.037-.011.057-.015.074-.016.15-.023.225-.034.088-.013.174-.031.262-.039.086-.008.172-.006.259-.008.078-.002.156-.01.234-.008.062-.002.123.004.185.005.103 0 .207-.001.31.007.085.008.17.025.254.038.078.011.156.018.233.034a4.066 4.066 0 0 1 .933.316 3.733 3.733 0 0 1 1.292 1.024 3.673 3.673 0 0 1 .757 1.425 6.22 6.22 0 0 1 .312 1.648zm-21.057 8.818q-.541.088-1.087.133-.546.044-1.095.045a6.186 6.186 0 0 1-1.021-.078 3.798 3.798 0 0 1-.838-.233 2.311 2.311 0 0 1-1.124-.936 6.724 6.724 0 0 1-.713-3.34v-8.239h7.972v-5.522h-7.972v-6.902l-6.635 1.07v19.682c0 .078.01.155.01.233a19.8 19.8 0 0 0 .391 3.908 8.03 8.03 0 0 0 1.514 3.207 7.346 7.346 0 0 0 2.85 2.048 12.208 12.208 0 0 0 4.498.713 15.568 15.568 0 0 0 3.607-.357q.683-.161 1.352-.373.668-.212 1.32-.473l-.936-5.165a12.528 12.528 0 0 1-2.093.58zm-21.117-16.462a10.306 10.306 0 0 0-7.071-2.33h-.013a11.396 11.396 0 0 0-4.173.801 10.52 10.52 0 0 0-3.562 2.36 11.926 11.926 0 0 0-2.539 3.92 14.197 14.197 0 0 0-.697 2.525 14.713 14.713 0 0 0-.23 2.609c0 .1-.01.198-.008.298-.002.184.012.367.017.55.006.224.005.448.02.67.02.285.058.568.093.85.015.121.021.242.04.362.04.27.097.538.15.805.027.131.045.263.075.394q.136.594.318 1.178a10.779 10.779 0 0 0 2.271 3.874 11.132 11.132 0 0 0 3.874 2.54 14.94 14.94 0 0 0 5.522.934 23.4 23.4 0 0 0 2.494-.134q1.246-.133 2.316-.356a15.578 15.578 0 0 0 2.004-.445 9.158 9.158 0 0 0 1.424-.535l-.89-5.388a14.304 14.304 0 0 1-2.895.846 20.13 20.13 0 0 1-3.562.312 7.696 7.696 0 0 1-4.543-1.203 4.407 4.407 0 0 1-.743-.636c-.045-.048-.075-.107-.117-.157a4.396 4.396 0 0 1-1.054-2.457h15.051q.045-.535.089-1.203h.001c.018-.296.029-.57.036-.831.004-.158.008-.315.008-.46q0-5.923-2.895-8.95a10.31 10.31 0 0 0-.811-.743zm-2.707 7.644h-8.772a10.254 10.254 0 0 1 .4-1.648 4.763 4.763 0 0 1 .846-1.47 3.72 3.72 0 0 1 1.336-.979 4.24 4.24 0 0 1 1.915-.4 3.873 3.873 0 0 1 1.644.29c.09.036.183.068.271.11a3.733 3.733 0 0 1 1.292 1.024 3.673 3.673 0 0 1 .757 1.425 6.22 6.22 0 0 1 .311 1.648zm-22.66-6.902a7.28 7.28 0 0 0-3.161-2.182 13.147 13.147 0 0 0-4.943-.802c-.12 0-.24.006-.36.006a34.1 34.1 0 0 0-5.251.44 34.687 34.687 0 0 0-4.365.89v22.622h6.636v-18.08q.623-.089 1.425-.133c.03-.003.06-.002.089-.005a13.762 13.762 0 0 1 1.425-.085 3.446 3.446 0 0 1 3.067 1.228c.03.037.066.07.095.11a8.945 8.945 0 0 1 .846 4.541v12.424h6.635v-13.226a18.01 18.01 0 0 0-.49-4.364 8.59 8.59 0 0 0-1.648-3.384zm-24.442-2.671a13.152 13.152 0 0 0-1.514-.178 11.33 11.33 0 0 0-1.292-.089 23.645 23.645 0 0 0-5.433.578 37.302 37.302 0 0 0-4.186 1.158v22.176h6.636v-17.902a7.524 7.524 0 0 1 1.291-.222 10.476 10.476 0 0 1 1.514-.134 11.897 11.897 0 0 1 2.583.267q1.203.223 2.093.446l1.113-5.477a6.18 6.18 0 0 0-1.29-.356 13.494 13.494 0 0 0-1.515-.267zm-17.679 14.116q.045-.535.089-1.203.045-.712.045-1.292 0-.74-.045-1.435a12.581 12.581 0 0 0-1.97-6.408 8.751 8.751 0 0 0-.88-1.107 10.307 10.307 0 0 0-7.882-3.073 11.398 11.398 0 0 0-4.186.802 10.52 10.52 0 0 0-3.562 2.36 11.926 11.926 0 0 0-2.539 3.92 15.347 15.347 0 0 0-.835 3.534c-.019.17-.05.34-.063.51-.02.273-.017.547-.022.82-.003.19-.019.378-.015.568-.002.193.012.385.018.577.006.215.004.43.02.643.008.128.029.254.04.382a15.692 15.692 0 0 0 .316 2.028q.136.595.318 1.18a10.778 10.778 0 0 0 2.272 3.873 11.13 11.13 0 0 0 3.874 2.54 14.94 14.94 0 0 0 5.522.934 23.397 23.397 0 0 0 2.494-.134q.624-.066 1.202-.155t1.113-.2a15.566 15.566 0 0 0 2.004-.446q.367-.104.724-.238.356-.134.7-.297l-.89-5.388a14.304 14.304 0 0 1-2.894.846 20.124 20.124 0 0 1-3.562.312 7.696 7.696 0 0 1-4.543-1.203c-.102-.07-.183-.16-.278-.237a4.442 4.442 0 0 1-.466-.399l-.002-.003a4.407 4.407 0 0 1-.577-.771c-.023-.04-.034-.086-.057-.127a4.401 4.401 0 0 1-.34-.755c-.013-.042-.014-.088-.026-.13a4.387 4.387 0 0 1-.169-.828zm-14.651-6.19a4.766 4.766 0 0 1 .846-1.47 3.72 3.72 0 0 1 1.336-.98 4.24 4.24 0 0 1 1.915-.4 4.07 4.07 0 0 1 1.915.4 3.733 3.733 0 0 1 1.291 1.024 3.673 3.673 0 0 1 .758 1.425 6.222 6.222 0 0 1 .311 1.648h-8.773a10.27 10.27 0 0 1 .401-1.648zm-13.828-4.854a8.428 8.428 0 0 0-3.206-2.45 10.347 10.347 0 0 0-4.409-.89 11.898 11.898 0 0 0-2.583.267 12.432 12.432 0 0 0-2.315.757v-11.668l-6.636 1.07v32.73q.891.267 2.049.535 1.158.222 2.405.4 1.291.178 2.582.268 1.336.133 2.539.133a14.721 14.721 0 0 0 2.62-.191q.65-.106 1.287-.27.637-.164 1.259-.385a10.709 10.709 0 0 0 3.83-2.494 10.472 10.472 0 0 0 2.36-3.874 14.453 14.453 0 0 0 .846-5.077 17.335 17.335 0 0 0-.668-4.987 11.08 11.08 0 0 0-1.96-3.874zm-5.522 13.627a4.768 4.768 0 0 1-4.097 1.87q-.89 0-1.647-.045-.757-.088-1.247-.178v-12.068a5.787 5.787 0 0 1 1.603-.668 8.087 8.087 0 0 1 2.048-.267 4.408 4.408 0 0 1 2.876.902 3.902 3.902 0 0 1 .807.908 8.467 8.467 0 0 1 1.037 4.602 8.13 8.13 0 0 1-1.38 4.944zm-19.899 6.145v-22.623h-6.635v18.08l-.075.01c-.395.057-.84.112-1.339.168l-.011.001q-.802.044-1.514.044a3.365 3.365 0 0 1-3.162-1.425 9.49 9.49 0 0 1-.846-4.63v-12.248h-6.635v13.048a18.562 18.562 0 0 0 .49 4.41 8.975 8.975 0 0 0 1.647 3.473 7.65 7.65 0 0 0 3.118 2.226 13.5 13.5 0 0 0 4.988.802 33.41 33.41 0 0 0 2.238-.073q.52-.032 1.038-.08c.781-.073 1.56-.166 2.334-.293a34.668 34.668 0 0 0 4.364-.89zm-45.304.802h6.634v-10.243q.606.494 1.164 1.04.558.547 1.064 1.143a32.361 32.361 0 0 1 2.182 2.716c.202.272.391.548.585.822q.353.5.69 1.004c.216.326.434.651.64.98q.935 1.38 1.647 2.537h7.614q-.757-1.47-1.87-3.25-1.114-1.782-2.45-3.563t-2.761-3.429a29.192 29.192 0 0 0-2.761-2.895q2.672-2.627 4.899-5.077 2.27-2.492 4.63-5.209h-7.879q-.624.756-1.514 1.78-.847 1.025-1.826 2.183-.98 1.113-2.049 2.27-1.024 1.16-2.004 2.227l-.001.001v-19.593l-6.634 1.07z" class="cls-2"/></svg>