<svg xmlns="http://www.w3.org/2000/svg" viewBox="0 0 305.54001 482.04001"><defs><style>.cls-1,.cls-3{fill:none;}.cls-2{fill:#fff;}.cls-3{stroke:#fff;stroke-linecap:round;stroke-linejoin:round;stroke-width:0;}</style></defs><title>certified-kubernetes-1.13-white</title><path class="cls-1" d="M151.48122,147.2536c-.00837.00086-.01581.004-.02411.00494.00848-.00091.01623-.00408.02472-.00494Z"/><path class="cls-1" d="M157.335,124.46338l3.8681,1.84692-3.8681-1.847a12.67114,12.67114,0,0,0-10.914,0l-7.20733,3.44366,7.20733-3.4436A12.67121,12.67121,0,0,1,157.335,124.46338Z"/><path class="cls-1" d="M246.141,234.88837l-16.246-70.567c-.01092-.04712-.029-.09137-.04046-.13831.01147.04694.02954.09125.04046.13837Z"/><path class="cls-1" d="M155.859,150.81378c-.00085-.00836-.00409-.01581-.005-.02417.00091.00849.00415.01624.005.02478Z"/><path class="cls-1" d="M217.807,229.20435c-.127-.029-.275-.066-.426-.103-.25306-.063-.515-.128-.72-.166q.36173.07325.719.166Q217.593,229.15493,217.807,229.20435Z"/><path class="cls-1" d="M170.08888,266.12634l.054.0968-.0539-.0968Z"/><path class="cls-1" d="M128.183,275.51532c-.09058.286-.16358.56085-.23969.83752.0763-.27673.1493-.55151.2406-.8385.31-.778.579-1.572.84-2.338a14.85328,14.85328,0,0,1,1.04468-2.75232,14.85435,14.85435,0,0,0-1.04566,2.75134C128.763,273.94336,128.493,274.73535,128.183,275.51532Z"/><path class="cls-1" d="M132.63948,267.70044c.08789-.02136.1745-.0473.2644-.0611l.01221-.00378-.01312.00378C132.81337,267.65314,132.72707,267.67914,132.63948,267.70044Z"/><path class="cls-1" d="M126.6899,279.86237l.033-.066c.10961-.21833.22009-.441.30377-.62751-.08429.18653-.19416.40924-.30469.62854Z"/><path class="cls-1" d="M119.384,276.74139c.056-.114.117-.247.18-.383.05151-.11078.10321-.22247.154-.33-.05078.1073-.10266.21881-.154.32892-.063.137-.124.27-.18.384a4.21,4.21,0,0,0,1.69,5.636,3.61018,3.61018,0,0,0,1.572.356h.00006a3.61018,3.61018,0,0,1-1.572-.356A4.21,4.21,0,0,1,119.384,276.74139Z"/><path class="cls-1" d="M99.32661,233.40381a3.90857,3.90857,0,0,1,2.02936.69055q.08157.04761.16376.09418l-.16278-.09418A3.90868,3.90868,0,0,0,99.32661,233.40381Z"/><path class="cls-1" d="M121.268,273.56738c.241-.329.491-.671.734-1.034v-.001c.06134-.089.11694-.18164.17755-.27118-.06061.08954-.11621.18219-.17761.27118-.244.365-.493.705-.734,1.035a16.46012,16.46012,0,0,0-1.378,2.113c-.03235.0611-.06824.13617-.10333.20819.035-.0719.0708-.14685.10339-.20819A16.46012,16.46012,0,0,1,121.268,273.56738Z"/><path class="cls-1" d="M178.10988,262.69867c-.048-.12872-.09448-.25116-.13483-.35l-.0011.00068C178.015,262.44745,178.06148,262.56976,178.10988,262.69867Z"/><path class="cls-1" d="M178.59071,264.0097c.00959-.02453.01984-.04876.02924-.07336l.00293-.0097-.00293.00872C178.61055,263.96033,178.60036,263.98486,178.59071,264.0097Z"/><path class="cls-1" d="M92.554,235.37238l-.043.0158.044-.0158a36.30355,36.30355,0,0,1,6.73205-1.973h-.00006A36.29947,36.29947,0,0,0,92.554,235.37238Z"/><path class="cls-1" d="M207.18355,173.57672c-.05158-.05231-.11225-.08874-.166-.13763.0564.05139.11988.09222.17365.14721Z"/><path class="cls-1" d="M172.92494,268.83435a2.72479,2.72479,0,0,0-.34118-.40161,2.72762,2.72762,0,0,1,.34112.40155,36.421,36.421,0,0,1,2.667,6.522l.00531.01575-.00524-.01575A36.42305,36.42305,0,0,0,172.92494,268.83435Z"/><path class="cls-1" d="M178.40633,266.42365c-.02826-.06366-.06043-.12549-.08838-.18934l-.00476-.024.00476.02411C178.3459,266.29822,178.37807,266.36,178.40633,266.42365Z"/><path class="cls-1" d="M170.916,267.61432c-.038-.06445-.1087-.19129-.19293-.3432.08417.15216.1549.27923.19287.34424l.007.011.00024.00006-.00018-.00006Z"/><path class="cls-1" d="M175.972,276.65936c-.01654-.06048-.03723-.126-.054-.18713.01709.06262.03724.12439.054.18707a16.49789,16.49789,0,0,0,.795,2.397l.00092.0019-.00086-.00183A16.49842,16.49842,0,0,1,175.972,276.65936Z"/><path class="cls-1" d="M212.53993,235.81537c-.379-.163-.772-.333-1.185-.493l-.11-.038.109.038q.59766.23391,1.185.493a16.17619,16.17619,0,0,0,2.35.871c.07861.02063.16943.041.26209.06128-.09241-.02033-.18293-.04083-.261-.06226A16.17127,16.17127,0,0,1,212.53993,235.81537Z"/><polygon class="cls-1" points="202.309 234.124 202.32 234.117 202.308 234.124 202.309 234.124"/><path class="cls-1" d="M202.21785,234.10785c-.32947-.06452-1.09137-.19928-1.5683-.27454Q201.43563,233.95939,202.21785,234.10785Z"/><polygon class="cls-1" points="178.626 263.916 178.62 263.91 178.626 263.917 178.626 263.916"/><path class="cls-1" d="M216.75325,237.10034c.012.00159.02344-.0003.0354.00116a3.98694,3.98694,0,0,1-.74567-.16315A3.97681,3.97681,0,0,0,216.75325,237.10034Z"/><path class="cls-1" d="M221.2281,233.6792c.00159-.012-.0003-.02344.00116-.03534-.01623.12939-.05536.25848-.08484.38782C221.17128,233.91357,221.21175,233.80157,221.2281,233.6792Z"/><path class="cls-1" d="M207.14223,179.21924c.0523-.05158.08874-.11225.13763-.166-.05127.05628-.0921.11969-.147.1734Z"/><polygon class="cls-1" points="195.767 188.68 195.767 188.68 195.757 188.689 195.767 188.68"/><path class="cls-1" d="M112.66432,250.94366q-1.646-1.97112-3.09472-4.09692Q111.01494,248.971,112.66432,250.94366Z"/><path class="cls-1" d="M82.72633,234.47559l.00324.00738c-.00861-.02624-.01129-.05511-.01935-.0816C82.71773,234.426,82.71834,234.451,82.72633,234.47559Z"/><path class="cls-1" d="M87.77193,237.02734l-.026.004-.00122.00031.00128-.00031.026-.004.033-.005a.33169.33169,0,0,0,.044-.014.32826.32826,0,0,1-.044.014Z"/><polygon class="cls-1" points="101.541 234.2 103.239 233.908 101.541 234.2 101.541 234.2"/><path class="cls-1" d="M88.18892,236.93237l-.05689.01221.05793-.01221c.25-.053.51-.108.71-.162.01654-.0047.03241-.01123.049-.016-.01654.00477-.03247.0113-.049.016C88.69893,236.82434,88.43892,236.87939,88.18892,236.93237Z"/><path class="cls-1" d="M142.75136,268.56061q-2.27655-.42316-4.51892-1.05506Q140.47236,268.13746,142.75136,268.56061Z"/><path class="cls-1" d="M147.32893,269.19843q-2.29871-.2146-4.57757-.63782Q145.02782,268.98385,147.32893,269.19843Z"/><path class="cls-1" d="M132.513,61.79138v-.001a7.50265,7.50265,0,0,1-1.468-3.135,18.47688,18.47688,0,0,1-.41706-4.077v.001a18.47619,18.47619,0,0,0,.41706,4.077A7.50224,7.50224,0,0,0,132.513,61.79138Z"/><polygon class="cls-1" points="137.161 46.381 137.161 46.381 145.008 46.381 145.008 40.944 145.008 40.944 145.008 46.381 137.161 46.381"/><path class="cls-1" d="M112.347,42.17139v.001a39.28212,39.28212,0,0,1,4.143-1.162A39.28062,39.28062,0,0,0,112.347,42.17139Z"/><path class="cls-1" d="M162.981,64.00439h.001v-24.288a9.83614,9.83614,0,0,1,2.52-7.102,9.836,9.836,0,0,0-2.521,7.102Z"/><polygon class="cls-1" points="145.008 58.261 145.008 58.261 145.928 63.347 145.008 58.261"/><path class="cls-1" d="M121.816,40.4624q.526,0,1.272.066Q122.343,40.46238,121.816,40.4624Z"/><polygon class="cls-1" points="150.312 40.944 156.844 40.944 156.844 64.003 156.844 64.003 156.844 40.943 150.312 40.943 150.312 40.944"/><path class="cls-1" d="M173.635,35.50739a5.324,5.324,0,0,0-1.995.33,5.3229,5.3229,0,0,1,1.996-.329,11.35407,11.35407,0,0,1,1.73.132,6.25508,6.25508,0,0,1,1.557.438,6.25312,6.25312,0,0,0-1.557-.439A11.35094,11.35094,0,0,0,173.635,35.50739Z"/><path class="cls-1" d="M100.291,64.48737q1.226-.13194,2.302-.33a18.32925,18.32925,0,0,0,1.95-.46,18.31727,18.31727,0,0,1-1.951.46Q101.517,64.35535,100.291,64.48737Z"/><path class="cls-1" d="M100.3492,58.93158c-.54431.04663-1.09027.07556-1.63721.07483a7.57617,7.57617,0,0,1-4.471-1.18305,7.57619,7.57619,0,0,0,4.471,1.184C99.25893,59.00781,99.805,58.97858,100.3492,58.93158Z"/><path class="cls-1" d="M94.241,57.82336a4.33767,4.33767,0,0,1-1.88482-3.2H92.355A4.33762,4.33762,0,0,0,94.241,57.82336Z"/><rect class="cls-1" x="112.347" y="64.00336" width="6.53198" height="0.00104"/><path class="cls-1" d="M121.641,46.0304a12.77831,12.77831,0,0,1,2.543.241q1.183.24107,2.06.46-.876-.219-2.06-.461A12.77379,12.77379,0,0,0,121.641,46.0304Z"/><path class="cls-1" d="M88.607,61.17737a10.53377,10.53377,0,0,0,3.814,2.521,14.52843,14.52843,0,0,0,5.414.92,14.53025,14.53025,0,0,1-5.414-.921A10.53439,10.53439,0,0,1,88.607,61.17737Z"/><path class="cls-1" d="M118.879,46.38037a8.63468,8.63468,0,0,1,1.293-.24,11.87419,11.87419,0,0,1,1.469-.11,11.876,11.876,0,0,0-1.46906.11A8.63532,8.63532,0,0,0,118.879,46.38037Z"/><path class="cls-1" d="M193.2,47.27838l.0003.00031a11.51515,11.51515,0,0,1,1.7052-2.95929A11.51232,11.51232,0,0,0,193.2,47.27838Z"/><path class="cls-1" d="M96.695,40.33136a10.19,10.19,0,0,1,7.76,3.00305q2.85,3.00292,2.85,8.833-.00092.57-.044,1.25.044-.68.044-1.25,0-5.83-2.849-8.833a10.19015,10.19015,0,0,0-7.76-3.004,11.04936,11.04936,0,0,0-4.099.789,10.3009,10.3009,0,0,0-3.53,2.324,10.30141,10.30141,0,0,1,3.53-2.323A11.0515,11.0515,0,0,1,96.695,40.33136Z"/><path class="cls-1" d="M232.433,58.78741v-.00006q-.482.08808-1.228.15406Q231.95,58.8764,232.433,58.78741Z"/><path class="cls-1" d="M212.55592,63.17181l.001-.00042-.877-5.305a13.28638,13.28638,0,0,1-1.83124.58417,13.28663,13.28663,0,0,0,1.83026-.58319Z"/><path class="cls-1" d="M200.85,57.82336a7.5779,7.5779,0,0,0,4.472,1.184,18.8739,18.8739,0,0,0,3.06085-.26392,18.8678,18.8678,0,0,1-3.05988.2619,7.57792,7.57792,0,0,1-4.472-1.183,4.34,4.34,0,0,1-1.88459-3.199h-.0014A4.33988,4.33988,0,0,0,200.85,57.82336Z"/><path class="cls-1" d="M229.54,64.5744a14.49938,14.49938,0,0,1-2.61352-.19525,14.506,14.506,0,0,0,2.61352.19623q1.183-.001,2.476-.11,1.293-.11,2.543-.285-1.25.174-2.543.284T229.54,64.5744Z"/><path class="cls-1" d="M223.467,41.29541a10.80935,10.80935,0,0,1,4.363-.833,10.2695,10.2695,0,0,1,2.43305.263,13.18618,13.18618,0,0,1,2.17.745v-.001a13.19733,13.19733,0,0,0-2.17-.745,10.27211,10.27211,0,0,0-2.43305-.263,10.81037,10.81037,0,0,0-4.363.833,8.63452,8.63452,0,0,0-3.222,2.411,11.022,11.022,0,0,0-2.017,3.836v.001a11.02244,11.02244,0,0,1,2.017-3.836A8.63373,8.63373,0,0,1,223.467,41.29541Z"/><path class="cls-1" d="M201.508,46.0954a4.38441,4.38441,0,0,1,.92188-.29047,4.38493,4.38493,0,0,0-.92194.29047,3.898,3.898,0,0,0-1.316.987,4.40679,4.40679,0,0,0-.81,1.425,4.40654,4.40654,0,0,1,.811-1.425A3.89584,3.89584,0,0,1,201.508,46.0954Z"/><polygon class="cls-1" points="181.351 40.944 187.883 40.944 187.883 64.003 187.883 64.003 187.883 40.943 181.351 40.943 181.351 40.944"/><path class="cls-1" d="M176.024,30.29138a14.75384,14.75384,0,0,1,2.039.657A14.74575,14.74575,0,0,0,176.024,30.29138Z"/><path class="cls-1" d="M207.317,48.52936a4.06527,4.06527,0,0,0-.695-1.32624,4.06621,4.06621,0,0,1,.694,1.32624Z"/><path class="cls-1" d="M203.305,40.33136a10.18986,10.18986,0,0,1,7.76,3.00305q2.84994,3.00284,2.85,8.83246v-.00049q0-5.83-2.85-8.833a10.1901,10.1901,0,0,0-7.76-3.004,11.053,11.053,0,0,0-4.098.789,10.30394,10.30394,0,0,0-3.53,2.324l-.00019.00019a10.30668,10.30668,0,0,1,3.52918-2.32221A11.05441,11.05441,0,0,1,203.305,40.33136Z"/><path class="cls-1" d="M203.393,45.72339a4.38565,4.38565,0,0,0-.96307.08154,4.38619,4.38619,0,0,1,.96313-.08154Z"/><path class="cls-1" d="M169.514,39.80438v.001a7.05538,7.05538,0,0,1,.197-1.71,3.46966,3.46966,0,0,1,.58856-1.24927,3.47052,3.47052,0,0,0-.58856,1.24823A7.05592,7.05592,0,0,0,169.514,39.80438Z"/><path class="cls-1" d="M67.651,61.11035a9.99242,9.99242,0,0,1-2.14795-3.837,16.26079,16.26079,0,0,1-.679-4.8,13.582,13.582,0,0,1,.81-4.713,13.58344,13.58344,0,0,0-.811,4.714,16.26339,16.26339,0,0,0,.68006,4.8A9.9916,9.9916,0,0,0,67.651,61.11035Z"/><path class="cls-1" d="M85.648,52.64984v.00055c-.00152.17957.01209.35834.017.53766C85.66005,53.00861,85.64644,52.82959,85.648,52.64984Z"/><path class="cls-1" d="M77.493,59.00739a15.95376,15.95376,0,0,0,2.542-.22,10.7693,10.7693,0,0,0,2.5-.701l.16015.93-.16015-.931a10.77009,10.77009,0,0,1-2.499.701,15.9453,15.9453,0,0,1-2.542.22q-3.333.00009-4.67-1.71a7.66239,7.66239,0,0,1-1.337-4.823,7.6619,7.6619,0,0,0,1.337,4.824Q74.16094,59.00739,77.493,59.00739Z"/><path class="cls-1" d="M79.685,46.20441a10.53549,10.53549,0,0,0-2.455-.263,5.17483,5.17483,0,0,0-4.318,1.798,7.40026,7.40026,0,0,0-1.42505,4.734,7.40009,7.40009,0,0,1,1.42505-4.733,5.175,5.175,0,0,1,4.318-1.798,10.536,10.536,0,0,1,2.455.263,16.50213,16.50213,0,0,1,2.017.614l1.359-5.217-.00024-.00007L81.702,46.81836A16.50006,16.50006,0,0,0,79.685,46.20441Z"/><path class="cls-1" d="M94.898,46.0954a3.89948,3.89948,0,0,0-1.316.987,4.416,4.416,0,0,0-.81,1.425,4.41659,4.41659,0,0,1,.811-1.425A3.90037,3.90037,0,0,1,94.898,46.0954Z"/><path class="cls-1" d="M229.583,59.00641q.877.001,1.62195-.065-.745.065-1.622.065a4.69218,4.69218,0,0,1-4.032-1.841,8,8,0,0,1-1.36-4.866q-.00072-4.73475,2.61353-5.91846-2.61447,1.18368-2.6145,5.91846a7.99975,7.99975,0,0,0,1.36,4.867A4.69207,4.69207,0,0,0,229.583,59.00641Z"/><path class="cls-1" d="M147.93,151.74023l-.006.33918c.002-.116.006-.231.006-.339Z"/><path class="cls-1" d="M165.77071,231.844c.00305-.06.01318-.11969.01953-.17962C165.78383,231.72443,165.77394,231.78351,165.77071,231.844Z"/><path class="cls-1" d="M148.859,238.84741a3.45536,3.45536,0,0,1,.241-.38525,3.45456,3.45456,0,0,0-.241.38519l-.008.018h-.019l-.00007.00006h.019Z"/><polygon class="cls-1" points="138.872 256.874 138.872 256.875 142.089 251.057 138.872 256.874"/><path class="cls-1" d="M164.984,256.90039q-1.9519.64929-3.961,1.103v.001a40.70445,40.70445,0,0,1-4.34143.72358,40.72544,40.72544,0,0,0,4.34247-.72358q2.0061-.45354,3.96-1.104l-9.985-18.044Z"/><path class="cls-1" d="M148.468,156.56335l-.00726-.061.00629.06207a36.53243,36.53243,0,0,1,.43109,6.96948A36.53443,36.53443,0,0,0,148.468,156.56335Z"/><path class="cls-1" d="M151.891,237.0304c-.042,0-.083,0-.126.002a3.44835,3.44835,0,0,0-.88806.15228,3.45129,3.45129,0,0,1,.88806-.15222Q151.828,237.02993,151.891,237.0304Z"/><path class="cls-1" d="M154.912,238.83838l.01.018h.00006l-.009-.018a3.4669,3.4669,0,0,0-3.022-1.808A3.467,3.467,0,0,1,154.912,238.83838Z"/><path class="cls-1" d="M155.867,152.7514c.008-.209.003-.479-.002-.739-.002-.133-.006-.264-.006-.381l.005.382C155.87,152.27338,155.875,152.54138,155.867,152.7514Z"/><path class="cls-1" d="M192.07613,211.61285a41.22969,41.22969,0,0,1,.57293,7.446A41.23512,41.23512,0,0,0,192.07613,211.61285Z"/><path class="cls-1" d="M155.329,156.4964l-.02447.19769.02447-.19671c.062-.435.138-.85.213-1.25a16.30148,16.30148,0,0,0,.325-2.496,16.29636,16.29636,0,0,1-.325,2.495C155.467,155.64838,155.391,156.06238,155.329,156.4964Z"/><path class="cls-1" d="M191.28957,207.97009q.47534,1.8024.78656,3.64276Q191.7653,209.77439,191.28957,207.97009Z"/><path class="cls-1" d="M170.17336,212.366c-.0055.02-.00507.04-.0102.06.02124-.08417.04944-.16565.07691-.24756C170.21877,212.24139,170.19106,212.3017,170.17336,212.366Z"/><path class="cls-1" d="M190.17659,204.411q.6372,1.75488,1.113,3.55914Q190.81422,206.16778,190.17659,204.411Z"/><path class="cls-1" d="M169.07423,228.62189a3.35321,3.35321,0,0,0-3.24377,2.75641A3.43093,3.43093,0,0,1,169.07423,228.62189Z"/><path class="cls-1" d="M169.832,228.67639l-.02-.004a3.40669,3.40669,0,0,0-.66254-.05328,3.44577,3.44577,0,0,1,.66248.05334Z"/><path class="cls-1" d="M190.299,232.08838c-.02967.08319-.06385.16449-.09406.24744.03021-.083.06439-.16419.09412-.24744l-20.434-3.454Z"/><polygon class="cls-1" points="147.625 165.646 147.62 165.65 147.527 167.3 147.62 165.651 147.625 165.646"/><path class="cls-1" d="M109.28993,189.91437l-1.17645-1.04938,1.17548,1.04938a50.9612,50.9612,0,0,0-8.024,35.473l-.44232.1286.4433-.1286A50.96124,50.96124,0,0,1,109.28993,189.91437Z"/><path class="cls-1" d="M86.85091,229.08673c-.15.03406-.30664.07129-.465.10968l-.31.075.309-.074C86.54341,229.15839,86.70045,229.12091,86.85091,229.08673Z"/><path class="cls-1" d="M91,228.71539a36.41552,36.41552,0,0,0,6.954-1.15,4.612,4.612,0,0,0,1.18018-1.07324,4.61106,4.61106,0,0,1-1.18012,1.07226,36.42232,36.42232,0,0,1-6.954,1.15l-.093.01c-.44239.03686-.86982.05285-1.28345.06976.4137-.01593.84-.0329,1.28247-.06879Z"/><path class="cls-1" d="M86.01094,229.28937l.02515-.00836-.02613.00836-.028.007a3.98431,3.98431,0,0,0-.69977.1596c-.01312.00428-.02405.012-.03711.01636a3.98408,3.98408,0,0,1,.73688-.175Z"/><path class="cls-1" d="M99.45375,172.56921c-.04626-.00177-.09253-.00286-.13977-.00286a3.80306,3.80306,0,0,0-3.015,1.403l-.00007.00006a3.803,3.803,0,0,1,3.01508-1.402Z"/><path class="cls-1" d="M108.01857,188.65735c.00635.04339.0127.08673.01941.13006l.00146.00861-.00146-.00964Z"/><path class="cls-1" d="M100.288,181.81036q.56826.29655,1.123.61805.623.353,1.22852.734-.60617-.37985-1.22852-.73407C101.029,182.20337,100.653,182.00336,100.288,181.81036Z"/><path class="cls-1" d="M97.19966,179.75317c.02515.02051.04474.04621.07031.06623l.034.024-.034-.024C97.2444,179.79938,97.22475,179.77362,97.19966,179.75317Z"/><path class="cls-1" d="M137.95369,232.46307c.00891-.0921.02978-.18255.03119-.27533.00006-.00463-.00122-.009-.00116-.01361C137.98268,232.2702,137.963,232.36664,137.95369,232.46307Z"/><path class="cls-1" d="M137.699,233.50537l.06.07605-.059-.07605.008-.018a3.43564,3.43564,0,0,0,.20307-.64747,3.44585,3.44585,0,0,1-.20313.64747Z"/><polygon class="cls-1" points="129.911 252.546 137.759 233.581 129.911 252.546 129.911 252.546"/><polygon class="cls-1" points="133.907 228.76 133.873 228.718 133.906 228.76 133.907 228.76"/><path class="cls-1" d="M113.026,182.11438q.1397-.02325.28-.042l.013-.002.012.008c.05829.043.14813.10834.25683.18677-.1087-.07843-.19854-.1438-.25677-.18677l-.012-.009-.013.00195c-.093.013-.187.028-.281.043a2.716,2.716,0,0,1-2.034-.264A2.71565,2.71565,0,0,0,113.026,182.11438Z"/><path class="cls-1" d="M155.946,165.37537a2.71488,2.71488,0,0,1-1.063-1.748q-.03131-.86792-.02063-1.73578-.01071.86811.02063,1.73682A2.71489,2.71489,0,0,0,155.946,165.37537Z"/><path class="cls-1" d="M102.461,173.79736c.217.17.463.362.637.512q.46087.40878.88928.85162-.42828-.44173-.88825-.85162c-.175-.15-.421-.342-.638-.512l-.237-.186a4.73292,4.73292,0,0,0-.62146-.42358,4.737,4.737,0,0,1,.6214.42358Z"/><path class="cls-1" d="M205.836,227.47339a36.50679,36.50679,0,0,0,6.97,1.15l.078.008-.077-.008a36.50679,36.50679,0,0,1-6.97-1.15,3.91228,3.91228,0,0,1-1.47693-1.39111A3.91183,3.91183,0,0,0,205.836,227.47339Z"/><polygon class="cls-1" points="134.601 228.698 134.601 228.698 134.603 228.699 134.601 228.698"/><path class="cls-1" d="M200.666,174.23438c.173-.15.405-.331.63-.507-.225.176-.457.357-.631.507a16.87546,16.87546,0,0,0-1.67242,1.71673A16.87947,16.87947,0,0,1,200.666,174.23438Z"/><path class="cls-1" d="M142.09529,201.75336l.01111-.00061a3.43683,3.43683,0,0,1-.58221-.07691A3.43489,3.43489,0,0,0,142.09529,201.75336Z"/><path class="cls-1" d="M203.41029,181.76605c.02246-.01178.04419-.0249.06672-.03662q.55956-.279,1.09539-.60126-.53548.322-1.09539.6012C203.45534,181.74084,203.432,181.75452,203.41029,181.76605Z"/><polygon class="cls-1" points="140.205 201.087 140.222 201.099 140.206 201.086 140.205 201.087"/><polygon class="cls-1" points="163.507 201.024 163.508 201.023 163.523 201.012 163.508 201.023 163.507 201.024"/><path class="cls-1" d="M158.701,200.26581l.00611.00683a3.43219,3.43219,0,0,1-.29535-.48895A3.43864,3.43864,0,0,0,158.701,200.26581Z"/><path class="cls-1" d="M194.382,189.92242c.05225-.04748.12067-.10876.182-.16388-.06128.05512-.1297.11634-.182.16382Z"/><path class="cls-1" d="M171.22884,210.68658l-.00086.0008a3.43966,3.43966,0,0,0-.36.36578,3.39222,3.39222,0,0,1,.36-.36572Z"/><polygon class="cls-1" points="195.767 188.667 195.768 188.658 195.767 188.667 195.767 188.667"/><path class="cls-1" d="M60.07,245.45837q-.382-.479-.715-.993a12.38492,12.38492,0,0,1-1.706-9.56l16.22-70.567L57.648,234.90533a12.385,12.385,0,0,0,1.707,9.561Q59.688,244.98035,60.07,245.45837Z"/><polygon class="cls-1" points="131.135 216.765 131.151 216.697 131.152 216.697 131.151 216.697 131.135 216.765"/><path class="cls-1" d="M132.85426,215.63464l.00385-.00543a3.4258,3.4258,0,0,1-.42121.404A3.42961,3.42961,0,0,0,132.85426,215.63464Z"/><polygon class="cls-1" points="145.677 198.467 145.678 198.447 145.762 198.405 145.677 198.447 145.677 198.467"/><path class="cls-1" d="M156.862,177.82135v.00006c.02356.00293.04694.0072.0705.01019C156.90889,177.82861,156.88557,177.82428,156.862,177.82135Z"/><path class="cls-1" d="M174.07,172.27838a51.582,51.582,0,0,1,14.831,10.817,51.58275,51.58275,0,0,0-14.83-10.817,51.03606,51.03606,0,0,0-17.81-4.953l-.00622-.101c.002.03363.00317.06738.00525.101A51.03607,51.03607,0,0,1,174.07,172.27838Z"/><polygon class="cls-1" points="190.397 182.038 190.385 182.037 188.901 183.095 190.385 182.038 190.397 182.038"/><path class="cls-1" d="M156.17,165.58337v.014c.00128.02924.00329.05841.00458.08759l-.00361-.08759v-.014l-.00994-.01-.215-.198.21405.198Z"/><path class="cls-1" d="M186.561,196.91443a41.24714,41.24714,0,0,1,2.0025,3.6673,41.23838,41.23838,0,0,0-2.0025-3.66736l-8.088,7.239Z"/><path class="cls-1" d="M197.93,177.12341l.135-.138c.155-.165.29333-.32593.43866-.48932-.14539.16346-.28369.32428-.43872.48932l-.135.137a35.98924,35.98924,0,0,1-5.164,4.66A35.98887,35.98887,0,0,0,197.93,177.12341Z"/><polygon class="cls-1" points="180.353 189.148 180.352 189.148 164.569 200.338 180.353 189.148"/><path class="cls-2" d="M295.226,80.60339v-25.806a45.717,45.717,0,0,0-45.583-45.583H54.146A45.717,45.717,0,0,0,8.563,54.79736v341.676H295.271v-315.87Zm-76.998-33.061v-.001a11.022,11.022,0,0,1,2.017-3.836,8.63452,8.63452,0,0,1,3.222-2.411,10.81037,10.81037,0,0,1,4.363-.833,10.27211,10.27211,0,0,1,2.43305.263,13.19733,13.19733,0,0,1,2.17.745v-10.433l6.532-1.052v33.275q-.876.26394-2.016.504-1.141.24206-2.39.417-1.25.17505-2.543.285-1.293.10895-2.476.11a14.62457,14.62457,0,0,1-5.086-.833,10.20345,10.20345,0,0,1-3.77-2.39,10.35451,10.35451,0,0,1-2.346-3.77,14.371,14.371,0,0,1-.81-4.976A17.02465,17.02465,0,0,1,218.228,47.54236Zm-25.028-.263.0003-.00067-.0003-.00031a11.51232,11.51232,0,0,1,1.7055-2.959l.00977-.01361c.11944-.14978.25378-.28766.38073-.43158.12671-.14368.246-.2934.38-.43085l.00085-.00079.00019-.00019a10.30394,10.30394,0,0,1,3.53-2.324,11.053,11.053,0,0,1,4.098-.789,10.1901,10.1901,0,0,1,7.76,3.004q2.84994,3.003,2.85,8.833v.001q-.001.57-.044,1.25-.044.68005-.088,1.206H198.96638a4.34,4.34,0,0,0,1.88459,3.199,7.57792,7.57792,0,0,0,4.472,1.183,18.8678,18.8678,0,0,0,3.05988-.2619c.15564-.02545.31311-.03674.46814-.0661.33679-.05713.66687-.144.99774-.22681a13.28638,13.28638,0,0,0,1.83124-.58417l.877,5.305-.001.00042.00006.00055a9.02929,9.02929,0,0,1-1.404.525,18.3,18.3,0,0,1-1.95.46q-1.075.19794-2.302.33a23.01965,23.01965,0,0,1-2.455.131,14.52519,14.52519,0,0,1-5.414-.921,10.53658,10.53658,0,0,1-3.815-2.52h.001a9.99781,9.99781,0,0,1-2.236-3.793,15.01769,15.01769,0,0,1-.723-4.735A14.09648,14.09648,0,0,1,193.2,47.27936Zm-12.45923-13.79a3.5846,3.5846,0,0,1,1.11426-2.036,4.15729,4.15729,0,0,1,5.48,0,3.58906,3.58906,0,0,1,1.162,2.827,3.587,3.587,0,0,1-1.161,2.828,3.99688,3.99688,0,0,1-2.74,1.03h-.001a3.99506,3.99506,0,0,1-2.74-1.03,3.58385,3.58385,0,0,1-1.162-2.828A3.58116,3.58116,0,0,1,180.74074,33.48938Zm7.14227,7.454v23.06H187.883v.001h-6.532v-23.061Zm-22.381-8.329q2.52-2.63,7.475-2.63a12.65706,12.65706,0,0,1,3.047.307,14.74575,14.74575,0,0,1,2.039.657l-1.14,5.13a6.25508,6.25508,0,0,0-1.557-.438,11.35407,11.35407,0,0,0-1.73-.132,5.3229,5.3229,0,0,0-1.996.329,3.08044,3.08044,0,0,0-1.271.898c-.02722.03437-.04364.07544-.06946.11072a3.46966,3.46966,0,0,0-.58856,1.24927,7.05538,7.05538,0,0,0-.197,1.71v1.139h8.067v5.436h-8.067v17.624h-6.533v-24.288A9.836,9.836,0,0,1,165.502,32.61438Zm-14.686-1.161a4.158,4.158,0,0,1,5.48,0,3.58682,3.58682,0,0,1,1.162,2.827,3.58506,3.58506,0,0,1-1.162,2.828,4.15953,4.15953,0,0,1-5.48,0,3.583,3.583,0,0,1-1.161-2.828A3.58422,3.58422,0,0,1,150.816,31.45337Zm6.028,9.49v23.06H156.844v.001h-6.532v-23.061Zm-26.21607,13.635v-19.378l6.533-1.052v6.795h7.847v.001h.00006v5.437H137.161v8.11a6.44971,6.44971,0,0,0,.723,3.288,2.07931,2.07931,0,0,0,.45318.537,3.74338,3.74338,0,0,0,2.4618.69006,12.46293,12.46293,0,0,0,2.17-.197q.52167-.08826,1.03253-.22559.51032-.13714,1.00647-.32245h.00006l.92,5.086a18.473,18.473,0,0,1-2.63.833,15.332,15.332,0,0,1-3.551.351,11.68823,11.68823,0,0,1-4.428-.724,6.94377,6.94377,0,0,1-2.806-2.016,7.50224,7.50224,0,0,1-1.468-3.135,18.47619,18.47619,0,0,1-.41706-4.077Zm-18.28094,9.425v-21.832a39.28062,39.28062,0,0,1,4.143-1.161,23.87975,23.87975,0,0,1,5.326-.548q.527,0,1.272.066.744.066,1.491.175.744.11,1.49.263a7.10323,7.10323,0,0,1,1.271.373l-1.096,5.392q-.877-.219-2.06-.46a12.77831,12.77831,0,0,0-2.543-.241,11.87419,11.87419,0,0,0-1.469.11,8.63468,8.63468,0,0,0-1.293.24v17.624h-6.532ZM85.648,52.64984v-.00043a14.09653,14.09653,0,0,1,.942-5.37005,11.50823,11.50823,0,0,1,2.477-3.836,10.3009,10.3009,0,0,1,3.53-2.324,11.04936,11.04936,0,0,1,4.099-.789,10.19015,10.19015,0,0,1,7.76,3.004q2.84893,3.003,2.849,8.833,0,.57-.044,1.25t-.087,1.206H92.35616a4.33767,4.33767,0,0,0,1.88482,3.2,7.57617,7.57617,0,0,0,4.471,1.18305c.54694.00073,1.0929-.0282,1.63721-.07483a18.88711,18.88711,0,0,0,1.89178-.25421,13.29423,13.29423,0,0,0,2.828-.81l.877,5.305a9.03282,9.03282,0,0,1-1.403.525,18.32925,18.32925,0,0,1-1.95.46q-1.076.19794-2.302.33a23.02219,23.02219,0,0,1-2.456.131,14.52843,14.52843,0,0,1-5.414-.92,10.53377,10.53377,0,0,1-3.814-2.521,10.00087,10.00087,0,0,1-2.236-3.793q-.18475-.57348-.32276-1.15894c-.02661-.11291-.04223-.2279-.06622-.34137-.05884-.27856-.11957-.55682-.16248-.83813-.014-.09161-.01867-.18445-.03094-.27631-.04077-.30493-.08069-.61-.10272-.91711-.01581-.22089-.0149-.44287-.02094-.66449-.00488-.17932-.01849-.35809-.017-.53766ZM65.634,47.76038a11.02906,11.02906,0,0,1,6.072-6.466,12.29751,12.29751,0,0,1,4.998-.965,16.12983,16.12983,0,0,1,3.376.329,16.46775,16.46775,0,0,1,2.981.943l-.00024.00091.00024.00007-1.359,5.217a16.50213,16.50213,0,0,0-2.017-.614,10.536,10.536,0,0,0-2.455-.263,5.175,5.175,0,0,0-4.318,1.798,7.40009,7.40009,0,0,0-1.42505,4.733,7.66239,7.66239,0,0,0,1.337,4.823q1.337,1.71,4.67,1.71a15.9453,15.9453,0,0,0,2.542-.22,10.77009,10.77009,0,0,0,2.499-.701l.16015.931.76081,4.418a15.32024,15.32024,0,0,1-2.85.834,18.83244,18.83244,0,0,1-3.77.35,14.19471,14.19471,0,0,1-5.43695-.94306,10.231,10.231,0,0,1-3.748-2.564v-.001a9.9916,9.9916,0,0,1-2.14795-3.836,16.26339,16.26339,0,0,1-.68006-4.8A13.58344,13.58344,0,0,1,65.634,47.76038Zm221.114,341.293H15.96V84.48041H286.748Z"/><path class="cls-2" d="M224.191,52.29938a8,8,0,0,0,1.36,4.866,4.69218,4.69218,0,0,0,4.032,1.841q.87708,0,1.622-.065.74607-.066,1.228-.15406V46.90741a5.6929,5.6929,0,0,0-1.6-.658,7.71432,7.71432,0,0,0-1.995-.263,4.88985,4.88985,0,0,0-2.03345.39453Q224.19014,47.5646,224.191,52.29938Z"/><path class="cls-2" d="M207.317,48.52936h-.001a4.06621,4.06621,0,0,0-.694-1.32624c-.019-.02429-.03149-.05285-.051-.07672a3.97472,3.97472,0,0,0-1.271-1.009,4.141,4.141,0,0,0-1.90692-.394,4.38692,4.38692,0,0,0-1.885.372,3.89584,3.89584,0,0,0-1.315.987,4.40654,4.40654,0,0,0-.811,1.425,9.34536,9.34536,0,0,0-.417,1.644h8.637A6.788,6.788,0,0,0,207.317,48.52936Z"/><path class="cls-2" d="M92.356,50.15137h8.636a6.78848,6.78848,0,0,0-.285-1.622,4.0665,4.0665,0,0,0-.745-1.403,3.97933,3.97933,0,0,0-1.272-1.009,4.14116,4.14116,0,0,0-1.907-.394,4.38434,4.38434,0,0,0-1.885.372,3.90037,3.90037,0,0,0-1.315.987,4.41659,4.41659,0,0,0-.811,1.425h.001A9.31146,9.31146,0,0,0,92.356,50.15137Z"/><path class="cls-2" d="M138.33717,58.31635a3.73887,3.73887,0,0,0,2.4618.69006A3.74338,3.74338,0,0,1,138.33717,58.31635Z"/><path class="cls-2" d="M181.855,37.1084a3.99506,3.99506,0,0,0,2.74,1.03h.001a3.99688,3.99688,0,0,0,2.74-1.03,3.587,3.587,0,0,0,1.161-2.828,3.587,3.587,0,0,1-1.162,2.828A4.16009,4.16009,0,0,1,181.855,37.1084Z"/><path class="cls-3" d="M181.855,31.45337a4.15086,4.15086,0,0,1,1.29742-.7724"/><path class="cls-3" d="M85.81953,55.046c-.014-.09161-.01867-.18445-.03094-.27631"/><path class="cls-2" d="M80.606,64.26636a18.82339,18.82339,0,0,1-3.77.351,14.19484,14.19484,0,0,1-5.43695-.943,10.231,10.231,0,0,1-3.748-2.564v.001a10.231,10.231,0,0,0,3.748,2.564,14.19471,14.19471,0,0,0,5.43695.94306,18.83244,18.83244,0,0,0,3.77-.35,15.32024,15.32024,0,0,0,2.85-.834l-.76081-4.418.75983,4.417A15.31553,15.31553,0,0,1,80.606,64.26636Z"/><rect class="cls-2" x="181.35097" y="64.00336" width="6.53198" height="0.00104"/><path class="cls-2" d="M195.217,61.17737h-.001a10.53658,10.53658,0,0,0,3.815,2.52,14.52519,14.52519,0,0,0,5.414.921,23.01965,23.01965,0,0,0,2.455-.131q1.227-.13194,2.302-.33a18.3,18.3,0,0,0,1.95-.46,9.02929,9.02929,0,0,0,1.404-.525l-.00006-.00055a9.03519,9.03519,0,0,1-1.402.5246,18.29732,18.29732,0,0,1-1.951.46q-1.075.198-2.302.33a23.01959,23.01959,0,0,1-2.455.131,14.52466,14.52466,0,0,1-5.414-.92,10.53565,10.53565,0,0,1-3.814-2.521,9.99794,9.99794,0,0,1-2.236-3.793,15.01766,15.01766,0,0,1-.723-4.73395,14.09633,14.09633,0,0,1,.942-5.37005l-.00067-.00067-.0003.00067a14.09648,14.09648,0,0,0-.942,5.37005,15.01769,15.01769,0,0,0,.723,4.735A9.99781,9.99781,0,0,0,195.217,61.17737Z"/><path class="cls-2" d="M144.00148,58.5838q-.51031.13724-1.03253.22559a12.46293,12.46293,0,0,1-2.17.197,12.46414,12.46414,0,0,0,2.17-.197Q143.49059,58.72113,144.00148,58.5838Z"/><path class="cls-2" d="M213.783,54.6214H198.966l.00042.002H213.783q.044-.52605.088-1.206.043-.68.044-1.25v-.00049q0,.57-.044,1.24951Q213.827,54.09635,213.783,54.6214Z"/><path class="cls-2" d="M180.693,34.2804a3.58115,3.58115,0,0,1,.04773-.791,3.58116,3.58116,0,0,0-.04779.791,3.58415,3.58415,0,0,0,.04754.79126A3.5805,3.5805,0,0,1,180.693,34.2804Z"/><path class="cls-2" d="M92.356,54.62238l.00019.001H107.174q.043-.52605.087-1.206-.044.68005-.087,1.205Z"/><rect class="cls-2" x="137.16096" y="40.94336" width="7.84698" height="0.00104"/><path class="cls-2" d="M86.59,47.27936a14.09653,14.09653,0,0,0-.942,5.37005v.00043a14.09461,14.09461,0,0,1,.942-5.36944Z"/><path class="cls-2" d="M195.676,43.44336c-.134.13745-.2533.28717-.38.43085.127-.14392.24653-.29395.38086-.43164Z"/><path class="cls-2" d="M209.84871,58.45056c-.33087.08277-.661.16968-.99774.22681-.155.02936-.3125.04065-.46814.0661.15631-.02545.31445-.03668.47015-.0661C209.1891,58.62018,209.51845,58.53326,209.84871,58.45056Z"/><path class="cls-3" d="M194.90547,44.3194l.00977-.01361"/><path class="cls-3" d="M85.68587,53.85254c-.01581-.22089-.0149-.44287-.02094-.66449"/><polygon class="cls-2" points="137.161 34.149 137.161 34.148 130.628 35.2 130.628 54.578 130.628 35.201 137.161 34.149"/><path class="cls-2" d="M105.069,57.86737a13.29423,13.29423,0,0,1-2.828.81,18.88711,18.88711,0,0,1-1.89178.25421,18.88568,18.88568,0,0,0,1.89276-.25317A13.29433,13.29433,0,0,0,105.069,57.86737Z"/><path class="cls-2" d="M220.684,61.35236a10.20345,10.20345,0,0,0,3.77,2.39,14.50434,14.50434,0,0,0,2.47248.63678,14.50579,14.50579,0,0,1-2.47248-.63776,10.20408,10.20408,0,0,1-3.77-2.39,10.35424,10.35424,0,0,1-2.346-3.77,14.37078,14.37078,0,0,1-.81-4.975,14.371,14.371,0,0,0,.81,4.976A10.35451,10.35451,0,0,0,220.684,61.35236Z"/><path class="cls-3" d="M86.04823,56.22546c-.02661-.11291-.04223-.2279-.06622-.34137"/><rect class="cls-2" x="169.51399" y="40.9444" width="8.06696" height="0.00098"/><path class="cls-2" d="M126.069,40.96637q-.746-.153-1.49-.263-.74706-.10894-1.491-.175.74505.066,1.49.175Q125.324,40.81341,126.069,40.96637Z"/><path class="cls-3" d="M144.00148,58.5838q.51032-.13714,1.00647-.32245"/><rect class="cls-2" x="150.31197" y="64.00336" width="6.53198" height="0.00104"/><path class="cls-2" d="M150.816,37.1084a4.15953,4.15953,0,0,0,5.48,0A4.16009,4.16009,0,0,1,150.816,37.1084Z"/><path class="cls-2" d="M135.319,63.80737a11.68823,11.68823,0,0,0,4.428.724,15.332,15.332,0,0,0,3.551-.351,15.33332,15.33332,0,0,1-3.55.35A11.68842,11.68842,0,0,1,135.319,63.80737Z"/><path class="cls-2" d="M71.706,41.29535a12.29852,12.29852,0,0,1,4.998-.965,16.13061,16.13061,0,0,1,3.376.33,16.48308,16.48308,0,0,1,2.98078.94189l.00024-.00091a16.46775,16.46775,0,0,0-2.981-.943,16.12983,16.12983,0,0,0-3.376-.329,12.29751,12.29751,0,0,0-4.998.965,11.02906,11.02906,0,0,0-6.072,6.466v.001A11.02924,11.02924,0,0,1,71.706,41.29535Z"/><path class="cls-2" d="M170.29951,36.84613c.02582-.03528.04224-.07635.06946-.11072a3.08044,3.08044,0,0,1,1.271-.898,3.07975,3.07975,0,0,0-1.271.89795C170.34175,36.76971,170.32533,36.81079,170.29951,36.84613Z"/><path class="cls-2" d="M238.965,63.2594q-.878.26294-2.016.504Q238.089,63.5234,238.965,63.2594Z"/><path class="cls-2" d="M205.9875,46.55634a3.97412,3.97412,0,0,0-.6875-.439,4.13845,4.13845,0,0,0-.4566-.18323,4.13753,4.13753,0,0,1,.45654.18323A3.97233,3.97233,0,0,1,205.9875,46.55634Z"/><path class="cls-2" d="M206.622,47.20312c-.01892-.02429-.03143-.05279-.051-.07672a3.9748,3.9748,0,0,0-.5835-.57006,3.97439,3.97439,0,0,1,.58344.57006C206.59047,47.15027,206.603,47.17883,206.622,47.20312Z"/><path class="cls-2" d="M92.773,48.50739h-.001a9.30537,9.30537,0,0,0-.417,1.644h.001A9.31146,9.31146,0,0,1,92.773,48.50739Z"/><path class="cls-2" d="M203.393,45.72339a4.14276,4.14276,0,0,1,.97693.08331A4.14249,4.14249,0,0,0,203.393,45.72339Z"/><path class="cls-2" d="M230.833,46.24939a5.6929,5.6929,0,0,1,1.6.658A5.69186,5.69186,0,0,0,230.833,46.24939Z"/><path class="cls-2" d="M207.602,50.15137a6.79156,6.79156,0,0,0-.285-1.622,6.788,6.788,0,0,1,.285,1.622Z"/><path class="cls-2" d="M169.865,228.6344l-.033.042-.02-.004a3.44577,3.44577,0,0,0-.66248-.05334c-.02509.00012-.05011.00214-.07526.00281a3.43093,3.43093,0,0,0-3.24377,2.75641c-.01813.09442-.03009.19006-.04022.28607-.00635.05993-.01648.11963-.01953.17962a3.44432,3.44432,0,0,0,.0064.4928c.00623.06946.01343.13873.02405.20819.01551.10688.03443.21326.06.31842a3.412,3.412,0,0,0,.17883.548l.008.017-.026.035,7.932,19.159a40.53146,40.53146,0,0,0,9.33527-8.25177c.19025-.22931.38428-.4552.56958-.68891.19342-.24341.37805-.49359.5658-.74145.14325-.18909.29113-.37482.431-.56629.18969-.25976.37-.52649.55352-.79077.13294-.19147.27063-.3797.40021-.57336.178-.26612.34656-.5387.51831-.80909.12586-.19812.25659-.39312.379-.59338.17065-.27924.33148-.56482.49548-.84833.11383-.19677.23273-.39062.3432-.58923.1557-.28.30133-.56592.4505-.84979.10975-.2088.22467-.41486.33069-.62549.14917-.2962.28784-.59821.42981-.89844.09564-.20215.19666-.40161.28894-.60541.1474-.32544.28382-.65637.42273-.98614.0777-.18433.16107-.36621.236-.55176.17566-.43481.34-.87512.50092-1.31695.03021-.083.06439-.16425.09406-.24744Z"/><path class="cls-2" d="M137.934,231.59155c-.00538-.03338-.003-.068-.0094-.10125a3.41328,3.41328,0,0,0-.18628-.63428,3.46873,3.46873,0,0,0-.17585-.34064c-.04473-.083-.07989-.17181-.1311-.25061-.05286-.0816-.1217-.15253-.18158-.22967a3.46207,3.46207,0,0,0-.23352-.29206,3.41344,3.41344,0,0,0-.50336-.42853c-.0271-.01892-.059-.03064-.08661-.04876a3.43644,3.43644,0,0,0-.51391-.28406c-.0863-.03742-.18054-.05811-.27045-.0885a2.77781,2.77781,0,0,0-1.03869-.19458l-.00226-.00025h-.042a3.53437,3.53437,0,0,0-.632.058l-.02.004-.00012-.00019-.00092.00019-.033-.042-20.257,3.438q.57138,1.57507,1.2666,3.09009c.33905.73932.70691,1.46283,1.08838,2.17822.39966.74958.815,1.49,1.25971,2.21143a40.7172,40.7172,0,0,0,2.85492,4.05621q1.03225,1.29173,2.1676,2.49732,1.13452,1.20456,2.367,2.31671a40.713,40.713,0,0,0,3.90174,3.10827q.68381.47937,1.389.93171l7.848-18.96491-.06-.07605.009-.018a2.76813,2.76813,0,0,0,.24573-1.0243c.00928-.09643.029-.19287.03-.28894A3.436,3.436,0,0,0,137.934,231.59155Z"/><path class="cls-2" d="M140.205,201.08643l.00037.0003.00061-.0003.01605.013a3.43237,3.43237,0,0,0,.53345.31128c.0581.02789.11767.05206.17712.07672a3.39505,3.39505,0,0,0,.412.14007c.05987.0163.1189.03528.17963.04834a3.351,3.351,0,0,0,1.25756.038c.09992-.01587.1955-.05115.2937-.07569a3.44758,3.44758,0,0,0,.35248-.093c.10474-.0384.202-.09583.30292-.14441.10022-.04859.20526-.08863.29987-.14643a3.46226,3.46226,0,0,0,.29425-.21966c.07959-.0611.16595-.11347.23993-.18115a3.35424,3.35424,0,0,0,.753-1.00837c.02752-.05548.04931-.11334.07373-.17016a3.40775,3.40775,0,0,0,.14691-.41c.01776-.06183.03583-.12341.05011-.18615a3.43518,3.43518,0,0,0,.08832-.61139v-.02l.085-.042,1.165-20.584a41.60369,41.60369,0,0,0-4.153.718,40.60711,40.60711,0,0,0-19.48,10.6l16.877,11.964Z"/><path class="cls-2" d="M158.045,198.38037l.001.02c.00055.0119.00354.02338.00422.03528a3.44261,3.44261,0,0,0,.08374.567c.01587.06977.036.13825.05615.20685a3.40951,3.40951,0,0,0,.13855.38318c.0274.06391.05188.12885.08313.191a3.43022,3.43022,0,0,0,1.2912,1.40241c.04925.02978.10516.04815.15594.07556a3.44731,3.44731,0,0,0,.44818.21344c.026.00946.05463.0122.08087.02105a3.32428,3.32428,0,0,0,1.82312.10395c.05585-.01215.11005-.03.16517-.0448a3.40229,3.40229,0,0,0,.42541-.14484c.05744-.02392.115-.04748.17114-.07452a3.43909,3.43909,0,0,0,.53424-.31195l.00092-.00061.015-.011.06.025.98645-.69934,15.783-11.19018q-1.19376-1.16721-2.47223-2.22766c-.11212-.093-.22864-.18042-.34173-.27228-.3147-.25549-.62934-.51117-.95093-.75678-.19483-.14874-.39557-.28936-.593-.43457-.24609-.181-.48968-.3656-.7395-.54089-.25018-.17548-.50671-.3418-.7608-.51166-.20288-.13562-.40278-.27594-.60791-.40784-.29706-.19091-.60053-.37207-.90253-.55535-.16809-.102-.33338-.20911-.50293-.30866-.33124-.19446-.66864-.37866-1.00543-.5639-.14545-.08-.28827-.16492-.43463-.24311-.38086-.20343-.76764-.39624-1.15516-.5877-.10583-.05231-.20953-.10889-.31585-.16028-.24054-.11658-.48535-.223-.728-.33472a40.83917,40.83917,0,0,0-11.9093-3.41083c-.02356-.003-.04694-.00726-.0705-.01019l1.166,20.55Z"/><path class="cls-2" d="M178.473,204.15338l-7.239,6.479.008.042-.01318.0122-.00086.00086a3.39222,3.39222,0,0,0-.36.36572c-.06214.07312-.11438.15338-.17005.23126-.04431.06195-.09234.12134-.13238.186-.05.08093-.09058.1673-.13379.25214-.03559.07012-.074.13867-.10474.21124-.03381.07947-.05914.16253-.087.24463-.02747.08191-.05567.16339-.07691.24756a3.408,3.408,0,0,0-.07.41308c-.01165.08832-.02978.17688-.03448.26465a3.39566,3.39566,0,0,0,.01489.45538c.0055.06726.004.13568.01337.20215a3.42,3.42,0,0,0,.11566.49634c.01343.04486.02057.09174.03577.136a3.44391,3.44391,0,0,0,.22809.50866c.01464.02722.02453.05677.03985.08356a3.4575,3.4575,0,0,0,.34265.48755c.01233.01483.02155.03192.03412.04651a3.43341,3.43341,0,0,0,.45044.433c.00952.00763.017.01721.02655.02478a3.40936,3.40936,0,0,0,.55182.35321l.01569.00983a3.452,3.452,0,0,0,.64843.25061l.02.005.018.085,19.853,5.718q.07965-.83541.12506-1.67083.04541-.83524.057-1.66968a41.22969,41.22969,0,0,0-.57293-7.446q-.31083-1.83846-.78656-3.64276-.47535-1.80231-1.113-3.55914a41.23176,41.23176,0,0,0-3.6156-7.49652Z"/><path class="cls-2" d="M161.023,258.00342q2.00665-.45311,3.961-1.103l-9.985-18.044h-.077l-.01-.018a3.467,3.467,0,0,0-3.021-1.808q-.06309-.00046-.126.002a3.45114,3.45114,0,0,0-2.906,1.815l-.008.018h-.019l-6.74267,12.19177-3.2168,5.81732a41.74945,41.74945,0,0,0,22.15051,1.12988Z"/><path class="cls-2" d="M131.135,216.76538l.016-.068.00115-.00031.01789-.0047.01221-.00433a3.4277,3.4277,0,0,0,.56243-.21668c.06031-.02887.11847-.06146.17688-.09381a3.40452,3.40452,0,0,0,.35761-.22833c.05286-.03845.10718-.07458.15777-.116a3.3209,3.3209,0,0,0,.81366-.95862c.04383-.0772.07154-.16247.10926-.24285a3.455,3.455,0,0,0,.16186-.36707c.03217-.09619.046-.19818.06958-.2973a3.43827,3.43827,0,0,0,.079-.35474c.01331-.10412.00708-.2113.01074-.31714a3.15086,3.15086,0,0,0-.30914-1.5675c-.02606-.05573-.05737-.10852-.08636-.16272a3.394,3.394,0,0,0-.2295-.37146c-.03717-.05225-.07385-.10474-.11389-.15491a3.432,3.432,0,0,0-.42309-.4505l-.014-.013.016-.084-15.411-13.785a40.50011,40.50011,0,0,0-5.73,25.56Z"/><polygon class="cls-2" points="146.218 222.772 151.89 225.5 157.545 222.78 158.951 216.673 155.036 211.78 148.736 211.78 144.812 216.665 146.218 222.772"/><path class="cls-2" d="M59.355,244.46539q.333.514.715.993l45.509,56.583v-.00006a12.60972,12.60972,0,0,0,9.83,4.692l72.98-.016a12.60983,12.60983,0,0,0,9.83-4.684l45.492-56.592a12.392,12.392,0,0,0,2.43-10.553l-16.246-70.567c-.01092-.04712-.029-.09143-.04046-.13837a12.48488,12.48488,0,0,0-6.76154-8.32067L161.20308,126.3103l-3.8681-1.84692a12.67121,12.67121,0,0,0-10.914,0l-7.20733,3.4436L80.672,155.87836a12.4901,12.4901,0,0,0-6.803,8.46l-16.22,70.567A12.38492,12.38492,0,0,0,59.355,244.46539Zm23.19934-11.614a3.97,3.97,0,0,1,.81634-2.05322c.0282-.03632.06452-.06586.094-.10126a3.9851,3.9851,0,0,1,.42816-.45136c.05725-.05011.1253-.08837.18567-.13531a3.94646,3.94646,0,0,1,.44488-.31458c.07587-.0437.16193-.07281.24133-.11175a3.9039,3.9039,0,0,1,.48035-.21155c.01306-.00439.024-.01208.03711-.01636a3.98431,3.98431,0,0,1,.69977-.1596l.028-.007.02613-.00836.00488-.00165.01495-.003.02-.005.31-.075c.15833-.03839.315-.07562.465-.10968.09643-.02191.19287-.04376.27606-.05939a16.07632,16.07632,0,0,1,2.49194-.233l.00458-.00024c.41363-.01691.84106-.0329,1.28345-.06976l.093-.01a36.42232,36.42232,0,0,0,6.954-1.15,6.90083,6.90083,0,0,0,1.514-1.486l.16-.208.006-.009.012-.004,1.1767-.34137.44232-.1286a50.9612,50.9612,0,0,1,8.024-35.473l-1.17548-1.04938-.07355-.06561-.00049-.00336-.00146-.00861c-.00671-.04333-.01306-.08667-.01941-.13006l-.00763-.051a4.193,4.193,0,0,0-.754-2.072q-.67932-.58282-1.38568-1.13171c-.65912-.51221-1.34106-.99329-2.03314-1.4596q-.59308-.39972-1.19867-.78064-.60617-.37975-1.22852-.734-.55452-.32145-1.123-.61805a16.142,16.142,0,0,1-2.142-1.292c-.07245-.05389-.15448-.119-.23749-.1853-.03045-.02429-.05957-.04724-.09082-.07257-.08575-.06946-.17309-.14087-.2597-.21216-.079-.065-.156-.129-.229-.18695l-.025-.018-.034-.024c-.02557-.02-.04516-.04572-.07031-.06623a4.63,4.63,0,0,1-1.64172-2.78283,3.75309,3.75309,0,0,1,.74-3l.00091-.00092.00007-.00006a3.80306,3.80306,0,0,1,3.015-1.403c.04724,0,.09351.00109.13977.00286l.00824.00013a4.73525,4.73525,0,0,1,2.762,1.042l.237.186c.217.17005.463.362.638.512q.46042.40878.88825.85162l.02038.01959c.017.01758.032.03693.049.05463.27356.28528.53881.57867.79132.88312.266.307.543.625.843.944l.068.068a36.40721,36.40721,0,0,0,5.232,4.72,2.716,2.716,0,0,0,2.034.264c.094-.015.188-.03.281-.043l.013-.00195.012.009c.05823.043.14807.10834.25677.18677.326.23523.82123.58777,1.13923.80523a50.647,50.647,0,0,1,20.27655-13.12909q1.7752-.61569,3.59991-1.10034.91178-.24205,1.83453-.45056a51.353,51.353,0,0,1,7.089-1.09l.093-1.65.00488-.00391.00409-.00408a4.26713,4.26713,0,0,0,1.268-2.01905c.0011-.02984.00006-.05963.0011-.08948a36.53243,36.53243,0,0,0-.43109-6.96948l-.00629-.06207-.00073-.00592c-.06195-.434-.139-.85-.213-1.25a16.30583,16.30583,0,0,1-.326-2.495c-.00347-.09607-.004-.20532-.00292-.32s.00347-.23444.006-.352l.006-.33918c-.00122-.01562-.00287-.03131-.005-.04687a.60147.60147,0,0,1-.004-.062,4.00339,4.00339,0,0,1,0-.817v-.00061c.00086-.00836.00409-.01581.005-.02417a3.96081,3.96081,0,0,1,.155-.75244c.03381-.10889.08716-.207.12964-.3114a4.00544,4.00544,0,0,1,.171-.40033,3.92448,3.92448,0,0,1,.22686-.34082c.06763-.09912.12659-.204.20282-.29657.08234-.09985.17994-.184.27131-.27515.09045-.09045.17376-.18725.2727-.26886.0932-.07672.19855-.136.29834-.2041a3.93507,3.93507,0,0,1,.33923-.22577,4.01217,4.01217,0,0,1,.40192-.17163c.10388-.04217.20136-.09534.30969-.129a3.95912,3.95912,0,0,1,.75263-.155c.0083-.00091.01574-.00408.02411-.00494h.00061c.1333-.01355.27191-.00091.4082-.00091s.27484-.01264.40814.00091h.00061c.00836.00086.01581.004.02411.00494a3.95912,3.95912,0,0,1,.75263.155c.10833.03363.20581.0868.30969.129a4.011,4.011,0,0,1,.40191.17163,3.93369,3.93369,0,0,1,.33924.22577c.09979.06806.20514.12738.29834.2041.09894.08161.18225.17841.2727.26886.09137.09119.189.1753.2713.27515.07624.09259.1352.19745.20282.29657a3.9223,3.9223,0,0,1,.22687.34082,4.00544,4.00544,0,0,1,.171.40033c.04248.10443.09583.20251.12964.3114a3.96081,3.96081,0,0,1,.155.75244c.00091.00836.00415.01581.005.02417v.00061a4.00267,4.00267,0,0,1,0,.817c0,.117.004.248.006.381.005.26.01.53.002.739a16.30148,16.30148,0,0,1-.325,2.496c-.075.4-.151.815-.213,1.25l-.02447.19671-.00153.01233c-.02612.16486-.04254.33093-.0664.49609a35.9131,35.9131,0,0,0-.35,4.02643c-.00677.221-.02148.44153-.02417.66266q-.01062.86765.02063,1.73578a2.71488,2.71488,0,0,0,1.063,1.748l.215.198.00994.01v.014l.00361.08759q.03378.76986.0802,1.53937l.00622.101a51.03606,51.03606,0,0,1,17.81,4.953,51.58275,51.58275,0,0,1,14.83,10.817l1.48394-1.058.012.001.205.014a3.90746,3.90746,0,0,0,2.164-.27,35.98924,35.98924,0,0,0,5.164-4.66l.135-.137c.155-.165.29333-.32586.43872-.48932.13031-.14654.26849-.296.39331-.43872.03052-.03662.06476-.06988.09558-.1062a16.87546,16.87546,0,0,1,1.67242-1.71673c.174-.15.406-.331.631-.507l.245-.192a3.9991,3.9991,0,0,1,.64893-.51666l.0094-.00751c.06213-.03955.12963-.06146.193-.09717a3.97342,3.97342,0,0,1,.505-.25415c.11261-.04388.2287-.06592.34333-.099a2.30633,2.30633,0,0,1,.80316-.14453c.12115-.00909.24127-.02722.36267-.02527.1297.0022.25659.02509.38507.0398.12683.0144.254.02032.37921.04687.12085.0257.23578.07093.35382.10767a3.92763,3.92763,0,0,1,.37915.12323,3.99781,3.99781,0,0,1,.36884.19751c.10327.05743.21045.10437.30932.17169a3.98011,3.98011,0,0,1,.43567.36121c.05371.04889.11438.08532.166.13763l.00769.00958a38.58249,38.58249,0,0,1,.50873.63886l.00775.00983c.04.06286.06225.13116.09833.19537a3.98628,3.98628,0,0,1,.25293.50262c.04394.1128.06616.229.09924.34394a4.00856,4.00856,0,0,1,.1087.39911,3.94707,3.94707,0,0,1,.03565.4035c.00909.12115.02722.24127.02527.36267-.0022.1297-.02509.25659-.0398.38507-.0144.12689-.02032.254-.04687.37921-.0257.12085-.07093.23578-.10767.35382a3.92763,3.92763,0,0,1-.12323.37915,3.99781,3.99781,0,0,1-.19751.36884c-.05743.10327-.10437.21045-.17169.30932a3.98125,3.98125,0,0,1-.36121.43567c-.04889.05371-.08533.11438-.13763.166l-.0094.00744a3.99821,3.99821,0,0,1-.64887.51673l-.275.225c-.206.171-.419.346-.592.474q-.50875.36346-1.04462.68579-.53548.322-1.09539.60126c-.02253.01172-.04426.02484-.06672.03662-.34771.18439-.70495.37372-1.06732.58734a37.09668,37.09668,0,0,0-5.847,4.107,2.182,2.182,0,0,0-.45056.70373c-.02894.06311-.06623.12238-.09021.18744-.03016.082-.04438.16876-.06659.25336-.022.08374-.05194.16528-.06586.251-.01056.065-.007.13226-.01282.19818a2.69742,2.69742,0,0,0-.02093.32733c-.00678.09277-.01184.18463-.0213.27643l-.00074.00958v.013l-.01.009c-.106.097-.336.303-.603.541-.201.1792-.40638.36279-.59009.52813-.06128.05512-.1297.1164-.182.16388q1.30645,1.94945,2.42182,3.99707,1.11483,2.0453,2.03534,4.17481.91992,2.12714,1.64245,4.32458.722,2.19507,1.24311,4.44648a51.15161,51.15161,0,0,1,.8493,18.446l1.573.457.007.01.114.165c.02747.04858.06262.09167.092.13892a3.91228,3.91228,0,0,0,1.47693,1.39111,36.50679,36.50679,0,0,0,6.97,1.15l.077.008c.442.037.87.054,1.284.07a16.0155,16.0155,0,0,1,2.493.234c.205.038.467.103.72.166.151.037.29895.074.426.103a3.98245,3.98245,0,0,1,.71033.162c.01147.00373.021.0105.03241.01435a3.90541,3.90541,0,0,1,.45666.2019c.08918.043.18518.07593.2699.12494a3.92285,3.92285,0,0,1,.34522.24481c.09637.07056.20013.13239.289.2107s.16143.171.24267.25653a4.00846,4.00846,0,0,1,.2804.30194c.07721.10022.13556.21307.203.32019.06763.10766.14429.20959.20136.32318a3.98854,3.98854,0,0,1,.14941.38074c.0423.1112.09479.21808.12708.33294.032.114.04272.2342.06445.35157a3.92594,3.92594,0,0,1,.07086.41687c.00745.09832-.00452.19976-.00446.29956a3.88584,3.88584,0,0,1-.016.49725c-.00146.0119.00043.02338-.00116.03534-.01635.12237-.05682.23437-.08368.35248-.02716.11938-.03955.23919-.0783.35785-.00379.01159-.01056.02111-.01447.03265a3.90042,3.90042,0,0,1-.2005.45349c-.04352.09033-.07684.18738-.1264.27307a3.939,3.939,0,0,1-.24353.34345c-.07087.09692-.13312.20123-.2118.29052-.07733.08771-.16912.15949-.2536.23987a3.99823,3.99823,0,0,1-.30523.28345c-.09858.076-.20978.13324-.31513.19977-.10913.06878-.21264.14642-.32788.20434a4.00476,4.00476,0,0,1-.37964.149c-.11163.04248-.21887.09515-.33416.1275-.11365.03192-.23359.04261-.35065.06433a3.92726,3.92726,0,0,1-.41773.071c-.09832.00744-.19976-.00452-.29956-.00446a3.88525,3.88525,0,0,1-.49719-.016c-.012-.00146-.02344.00043-.0354-.00116a3.97681,3.97681,0,0,1-.71027-.162l-.026-.003-.033-.005a.29062.29062,0,0,1-.045-.015.26793.26793,0,0,0-.031-.01q-.18768-.04074-.376-.078c-.12958-.02624-.25806-.05273-.38092-.07971-.09266-.02026-.18348-.04065-.26209-.06128a16.17619,16.17619,0,0,1-2.35-.871q-.58722-.259-1.185-.493l-.109-.038a36.28377,36.28377,0,0,0-6.746-1.977c-.07685-.007-.15167-.01-.22345-.01H204.275a2.78912,2.78912,0,0,0-1.712.654c-.082.056-.161.112-.243.166l-.01105.007-.00073-.00018-.00024.00018-.014-.002-.07611-.01453q-.78232-.14732-1.5683-.27454l-.00561-.00091a51.25424,51.25424,0,0,1-22.66889,28.51629c.04035.09882.08685.22126.13483.35l.06409.17071a5.97117,5.97117,0,0,0,.44,1.032l.00622.00836.00574.00659-.00024.00073.00024.00031-.00305.00928-.00293.0097c-.0094.0246-.01965.04883-.02924.07336-.0263.06769-.05267.13538-.07977.2027a2.68894,2.68894,0,0,0-.19775,1.99787l.00476.024c.028.06385.06012.12568.08838.18934a36.86464,36.86464,0,0,0,3.39862,6.05072q.3587.529.74,1.042a16.16928,16.16928,0,0,1,1.371,2.097c.04956.09394.10431.20453.16064.32038.04425.09082.0893.18536.13471.28088l.05768.12073c.05694.121.111.237.16095.338a4.212,4.212,0,0,1-1.69,5.637,3.762,3.762,0,0,1-3.08795.056,4.62755,4.62755,0,0,1-2.398-2.3c-.042-.088-.09-.185-.14-.285-.12665-.25433-.25617-.5155-.34613-.7232l-.00092-.0019a16.49789,16.49789,0,0,1-.795-2.397c-.01672-.06268-.03687-.12445-.054-.18707-.09185-.3349-.18438-.67407-.296-1.02588l-.02472-.07428-.00531-.01575a36.421,36.421,0,0,0-2.667-6.522,2.7266,2.7266,0,0,0-1.71692-1.11993c-.092-.028-.184-.05506-.274-.084l-.01081-.00391-.00024-.00006-.007-.011c-.038-.065-.1087-.19208-.19287-.34424-.06214-.11212-.13086-.23639-.20307-.36676-.131-.23773-.26544-.48133-.37713-.68122l-.054-.0968a50.95526,50.95526,0,0,1-18.15246,3.29261q-2.3064-.006-4.60749-.22052-2.29862-.2146-4.57757-.63782-2.27655-.42316-4.51892-1.05506-2.24-.6318-4.43146-1.47222l-.884,1.602-.00086.00025-.01221.00378c-.0899.0138-.17651.03974-.2644.0611a3.157,3.157,0,0,0-1.41449.75391,15.56852,15.56852,0,0,0-2.201,4.722c-.26105.766-.53,1.56-.84,2.338-.0913.287-.1643.56177-.2406.8385-.0357.1297-.07788.2652-.11236.39252a16.1147,16.1147,0,0,1-.783,2.378l-.0213.04547c-.08368.18653-.19416.40918-.30377.62751l-.033.066c-.04364.08758-.08771.17529-.12592.255l-.003.014a.05506.05506,0,0,1-.013.016,4.44374,4.44374,0,0,1-3.902,2.586H122.646a3.61018,3.61018,0,0,1-1.572-.356,4.21,4.21,0,0,1-1.69-5.636c.056-.114.117-.247.18-.384.05139-.11011.10327-.22162.154-.32892.02368-.05.0456-.09271.06861-.13989.03509-.072.071-.14709.10333-.20819a16.46012,16.46012,0,0,1,1.378-2.113c.241-.33.49-.67.734-1.035.0614-.089.117-.18164.17761-.27118a38.24426,38.24426,0,0,0,3.38141-6.12482,3.88085,3.88085,0,0,0-.35-2.2l-.005-.013.006-.012.703-1.689q-1.51263-.89428-2.95306-1.8847-1.43985-.98968-2.80359-2.071c-.89441-.70892-1.7544-1.45581-2.59692-2.22033-.86963-.78913-1.7201-1.5979-2.5318-2.44312-.82257-.85638-1.6048-1.749-2.36524-2.65955q-1.646-1.97112-3.09472-4.09692a50.31615,50.31615,0,0,1-2.67371-4.394,51.25028,51.25028,0,0,1-2.88513-6.3374q-.41016-1.09233-.77179-2.20691l-1.698.292-.00024-.00012-.0008.00012-.01-.006-.01019-.00586q-.08213-.0466-.16376-.09418a3.90857,3.90857,0,0,0-2.02936-.69055c-.01336-.00067-.02624-.00391-.03961-.00446a36.30355,36.30355,0,0,0-6.73205,1.973l-.044.0158-.077.0282c-.406.155-.79.32-1.16205.48a16.60312,16.60312,0,0,1-2.323.858c-.01654.00477-.03241.0113-.049.016-.2.054-.46.109-.71.162l-.05793.01221c-.08587.01794-.172.03583-.25109.05377a.2664.2664,0,0,0-.032.01.33169.33169,0,0,1-.044.014l-.033.005-.026.004-.00128.00031a3.97523,3.97523,0,0,1-.70905.16168c-.01392.00183-.02728-.00037-.0412.00134a3.8944,3.8944,0,0,1-.4024.01294c-.13373.00281-.26862.01575-.39978.00537-.0785-.00641-.15326-.02826-.2309-.03924a3.97312,3.97312,0,0,1-.54236-.10022l-.01965-.00751a4.00684,4.00684,0,0,1-.87616-.37524c-.115-.06641-.21039-.15967-.31806-.23706a3.962,3.962,0,0,1-.44555-.33564,4.01339,4.01339,0,0,1-.28278-.34332,3.87891,3.87891,0,0,1-.32623-.39984,3.95811,3.95811,0,0,1-.421-.892l-.00324-.00738c-.008-.0246-.0086-.04956-.01611-.07422a3.96884,3.96884,0,0,1-.14941-.62915c-.00312-.02314.00048-.04535-.0022-.06848-.00708-.06037-.00153-.11957-.0058-.17981a4.01353,4.01353,0,0,1-.00824-.61518C82.54622,232.88922,82.55238,232.87085,82.55434,232.85138Z"/><path class="cls-2" d="M105.579,302.04132v.00006a12.60573,12.60573,0,0,0,4.06934,3.30713A12.60592,12.60592,0,0,1,105.579,302.04132Z"/><path class="cls-3" d="M109.64833,305.34851a12.61482,12.61482,0,0,0,1.60474.68567"/><path class="cls-3" d="M113.98872,306.65491a12.6,12.6,0,0,1-2.73565-.62073"/><path class="cls-2" d="M80.672,155.87836,139.21364,127.907,80.671,155.87836a12.48994,12.48994,0,0,0-6.802,8.46A12.4901,12.4901,0,0,1,80.672,155.87836Z"/><path class="cls-2" d="M246.057,240.78168a12.3968,12.3968,0,0,1-.69256,1.967A12.3968,12.3968,0,0,0,246.057,240.78168Z"/><path class="cls-2" d="M198.219,302.03333a12.61264,12.61264,0,0,1-.95465,1.05377,12.61181,12.61181,0,0,0,.95465-1.05371l45.492-56.592a12.38747,12.38747,0,0,0,1.65339-2.69275,12.38708,12.38708,0,0,1-1.65339,2.69269Z"/><path class="cls-3" d="M196.20766,304.01837a12.60488,12.60488,0,0,0,1.0567-.93127"/><path class="cls-3" d="M246.057,240.78168a12.39676,12.39676,0,0,0,.3988-3.09784"/><path class="cls-3" d="M189.80873,306.63971a12.60559,12.60559,0,0,0,2.73517-.6189"/><path class="cls-2" d="M229.85451,164.183a12.485,12.485,0,0,0-6.76154-8.32165L161.20308,126.3103,223.093,155.86237A12.48488,12.48488,0,0,1,229.85451,164.183Z"/><path class="cls-3" d="M196.20766,304.01837a12.61684,12.61684,0,0,1-3.66376,2.00244"/><path class="cls-3" d="M133.35982,214.83173a3.455,3.455,0,0,0,.16186-.36707"/><path class="cls-3" d="M141.52419,201.67584c-.06073-.01306-.11976-.032-.17963-.04834"/><path class="cls-3" d="M170.24007,212.17847c.02783-.0821.05316-.16516.087-.24463"/><path class="cls-2" d="M172.614,216.6814l-.018-.085-.02-.005.02.005.018.085,19.853,5.718q.07965-.83541.12506-1.67089-.04551.83532-.12506,1.67083Z"/><path class="cls-3" d="M192.59206,220.72852q.04541-.83524.057-1.66968"/><path class="cls-3" d="M133.25056,215.07458a3.44513,3.44513,0,0,1-.39245.55463"/><path class="cls-3" d="M133.6902,213.14575a3.44864,3.44864,0,0,1-.00922.34973"/><path class="cls-2" d="M156.93245,177.8316a40.83917,40.83917,0,0,1,11.9093,3.41083A40.59623,40.59623,0,0,0,156.93245,177.8316Z"/><polygon class="cls-2" points="171.234 210.632 178.473 204.153 171.234 210.632 171.241 210.674 171.229 210.687 171.242 210.674 171.234 210.632"/><path class="cls-3" d="M170.868,211.05316c-.06214.07312-.11438.15338-.17005.23126"/><path class="cls-3" d="M170.56557,211.47046c-.05.08093-.09058.1673-.13379.25214"/><path class="cls-3" d="M133.67024,213.81262a3.43827,3.43827,0,0,1-.079.35474"/><path class="cls-2" d="M133.5768,212.47211a3.42437,3.42437,0,0,0-.205-.54413,3.42632,3.42632,0,0,1,.20654.55347Z"/><path class="cls-2" d="M169.579,181.58142l-.00927-.00427c.10632.05139.21.108.31585.16028C169.78273,181.68665,169.68233,181.63135,169.579,181.58142Z"/><path class="cls-3" d="M145.39162,199.675a3.40775,3.40775,0,0,0,.14691-.41"/><path class="cls-2" d="M158.045,198.38037l-.017-.009.017.01v.019c.00055.01215.00451.02319.00519.03528-.00068-.0119-.00367-.02338-.00422-.03528Z"/><path class="cls-3" d="M145.58864,199.0788a3.43518,3.43518,0,0,0,.08832-.61139"/><path class="cls-3" d="M131.74464,216.47137c.06031-.02887.11847-.06146.17688-.09381"/><path class="cls-2" d="M145.023,200.3407a3.43479,3.43479,0,0,0,.29486-.49555,3.43642,3.43642,0,0,1-.30225.50379Z"/><polygon class="cls-2" points="163.523 201.012 163.583 201.037 164.569 200.338 163.583 201.037 163.523 201.012"/><path class="cls-2" d="M159.16206,200.78015a3.46137,3.46137,0,0,1-.45495-.50751A3.48023,3.48023,0,0,0,159.16206,200.78015Z"/><path class="cls-2" d="M159.703,201.1861a3.43046,3.43046,0,0,1-.5409-.406A3.40767,3.40767,0,0,0,159.703,201.1861Z"/><path class="cls-3" d="M171.47536,182.56824c-.14545-.08-.28827-.16492-.43463-.24311"/><line class="cls-3" x1="156.86195" y1="177.82141" x2="158.02797" y2="198.3714"/><path class="cls-3" d="M140.75545,201.41071c.0581.02789.11767.05206.17712.07672"/><path class="cls-3" d="M143.07545,201.63818a3.44758,3.44758,0,0,0,.35248-.093"/><path class="cls-2" d="M131.15211,216.69708l.01886-.0047.01124-.00433-.01221.00433Z"/><path class="cls-3" d="M142.1064,201.75275a3.44622,3.44622,0,0,0,.67535-.03888"/><path class="cls-3" d="M144.5649,200.85352c-.074.06768-.16034.12-.23993.18115"/><path class="cls-3" d="M143.73085,201.40076c.10022-.04859.20526-.08863.29987-.14643"/><path class="cls-2" d="M170.137,212.51044l-.001-.00006c-.02545.10992-.02844.21905-.04285.32873a3.408,3.408,0,0,1,.07-.41308C170.1559,212.45471,170.14351,212.48151,170.137,212.51044Z"/><polygon class="cls-2" points="140.171 201.103 140.205 201.087 140.205 201.086 140.171 201.103"/><path class="cls-3" d="M177.53841,186.64789c-.3147-.25549-.62934-.51117-.95093-.75678"/><path class="cls-3" d="M133.28548,211.76526a3.394,3.394,0,0,0-.2295-.37146"/><path class="cls-3" d="M132.27913,216.14923c.05286-.03845.10718-.07458.15777-.116"/><path class="cls-3" d="M172.98372,183.4408c-.16809-.102-.33338-.20911-.50293-.30866"/><path class="cls-2" d="M180.353,189.1474q-1.19193-1.1651-2.47284-2.22723,1.27725,1.0599,2.47223,2.22766Z"/><path class="cls-3" d="M175.99446,185.45654c-.24609-.181-.48968-.3656-.7395-.54089"/><path class="cls-3" d="M174.49416,184.404c-.20288-.13562-.40278-.27594-.60791-.40784"/><path class="cls-3" d="M162.80165,201.41046a3.40229,3.40229,0,0,1-.42541.14484"/><path class="cls-3" d="M160.30708,201.4751a3.44731,3.44731,0,0,1-.44818-.21344"/><path class="cls-3" d="M161.14253,201.652a3.44143,3.44143,0,0,1-.75458-.15583"/><path class="cls-3" d="M158.32863,199.59265c.0274.06391.05188.12885.08313.191"/><path class="cls-3" d="M158.13393,199.00262c.01587.06977.036.13825.05615.20685"/><path class="cls-3" d="M132.519,210.78839a3.432,3.432,0,0,1,.42309.4505"/><path class="cls-3" d="M163.507,201.024a3.43909,3.43909,0,0,1-.53424.31195"/><path class="cls-2" d="M161.64088,201.67914a3.43235,3.43235,0,0,0,.57019-.079,3.4371,3.4371,0,0,1-.58856.07806C161.6288,201.67792,161.6346,201.67944,161.64088,201.67914Z"/><path class="cls-2" d="M138.87245,256.87451l-.00049.00086a40.74927,40.74927,0,0,0,17.80957,1.8526A40.74885,40.74885,0,0,1,138.87245,256.87451Z"/><path class="cls-2" d="M135.90065,228.97522c-.08356-.03577-.17285-.0531-.25873-.082.08991.03039.18415.05108.27045.0885Z"/><path class="cls-3" d="M122.25319,246.18964q1.13452,1.20456,2.367,2.31671"/><path class="cls-3" d="M165.77711,232.33679c.00623.06946.01343.13873.02405.20819"/><path class="cls-3" d="M171.36006,215.97772a3.40936,3.40936,0,0,0,.55182.35321"/><path class="cls-3" d="M171.33351,215.95294a3.43341,3.43341,0,0,1-.45044-.433"/><path class="cls-3" d="M137.934,231.59155a3.436,3.436,0,0,1,.04974.58258"/><path class="cls-3" d="M169.07423,228.62189c.02515-.00067.05017-.00269.07526-.00281"/><path class="cls-2" d="M173.954,252.62238a40.31416,40.31416,0,0,0,9.33527-8.25177A40.53146,40.53146,0,0,1,173.954,252.62238Z"/><path class="cls-2" d="M129.911,252.54639v-.00006q-.70513-.45228-1.389-.93171Q129.20574,252.094,129.911,252.54639Z"/><path class="cls-2" d="M133.927,228.75641a3.53437,3.53437,0,0,1,.632-.058,3.53534,3.53534,0,0,0-.633.058l-.0191.00378.00012.00019Z"/><path class="cls-3" d="M137.43135,230.26477c.05121.0788.08637.1676.1311.25061"/><path class="cls-3" d="M137.7383,230.856a3.41328,3.41328,0,0,1,.18628.63428"/><path class="cls-3" d="M187.9958,237.32c-.14917.28387-.2948.56976-.4505.84979"/><path class="cls-2" d="M166.04,233.41138a3.412,3.412,0,0,1-.17883-.548,3.43074,3.43074,0,0,0,.17877.548l.007.017-.025.035.026-.035Z"/><path class="cls-3" d="M137.01625,229.743a3.46207,3.46207,0,0,1,.23352.29206"/><path class="cls-3" d="M172.576,216.59137a3.452,3.452,0,0,1-.64843-.25061"/><polygon class="cls-2" points="169.865 228.634 169.832 228.676 169.865 228.634 169.865 228.634"/><path class="cls-3" d="M136.42628,229.26575c.02765.01812.05951.02984.08661.04876"/><path class="cls-3" d="M190.20491,232.33582c-.161.44183-.32526.88214-.50092,1.31695"/><path class="cls-3" d="M115.971,237.42468c-.38147-.71539-.74933-1.4389-1.08838-2.17822"/><path class="cls-3" d="M170.849,215.47339a3.4575,3.4575,0,0,1-.34265-.48755"/><path class="cls-3" d="M188.7563,235.79608c-.142.30023-.28064.60224-.42981.89844"/><path class="cls-3" d="M170.20259,214.25763a3.42,3.42,0,0,1-.11566-.49634"/><path class="cls-3" d="M185.40913,241.58319c-.18353.26428-.36383.531-.55352.79077"/><path class="cls-3" d="M137.95369,232.46307a3.45022,3.45022,0,0,1-.0426.37683"/><path class="cls-3" d="M186.32765,240.20074c-.17175.27039-.34027.543-.51831.80909"/><path class="cls-3" d="M170.07356,213.55914a3.39566,3.39566,0,0,1-.01489-.45538"/><path class="cls-3" d="M134.60323,228.69861a3.4481,3.4481,0,0,1,.67157.07812"/><path class="cls-3" d="M170.23836,214.39362a3.44391,3.44391,0,0,0,.22809.50866"/><polygon class="cls-2" points="148.831 238.865 142.089 251.057 148.832 238.865 148.831 238.865"/><path class="cls-3" d="M128.52193,251.61462a40.713,40.713,0,0,1-3.90174-3.10827"/><path class="cls-2" d="M183.86494,243.67438h.001c.19135-.241.373-.489.55866-.73413-.18775.24786-.37238.498-.5658.74145Z"/><path class="cls-3" d="M189.468,234.20453c-.13891.32977-.27533.6607-.42273.98614"/><path class="cls-3" d="M187.2021,238.759c-.164.28351-.32483.56909-.49548.84833"/><path class="cls-2" d="M221.06612,234.38953c.03875-.11866.05114-.23847.0783-.35785-.02972.1308-.05078.2655-.09277.3905C221.05556,234.41064,221.06233,234.40112,221.06612,234.38953Z"/><path class="cls-3" d="M220.85115,234.87567c-.04352.09033-.07684.18738-.1264.27307"/><polygon class="cls-2" points="178.626 263.917 178.626 263.917 178.623 263.927 178.626 263.917"/><path class="cls-3" d="M218.00313,237.051a3.92726,3.92726,0,0,1-.41773.071"/><path class="cls-3" d="M216.78865,237.1015a3.88525,3.88525,0,0,0,.49719.016"/><path class="cls-3" d="M215.151,236.74762c.12286.027.25134.05347.38092.07971"/><path class="cls-3" d="M218.68794,236.85913c-.11163.04248-.21887.09515-.33416.1275"/><path class="cls-3" d="M220.48122,235.49219c-.07087.09692-.13312.20123-.2118.29052"/><path class="cls-3" d="M220.01582,236.02258a3.99823,3.99823,0,0,1-.30523.28345"/><path class="cls-3" d="M221.24525,233.14661a3.88584,3.88584,0,0,1-.016.49725"/><path class="cls-3" d="M219.39546,236.5058c-.10913.06878-.21264.14642-.32788.20434"/><path class="cls-3" d="M208.288,176.82727c.01471-.12848.0376-.25537.0398-.38507"/><path class="cls-3" d="M208.1335,177.5603c.03674-.118.082-.233.10767-.35382"/><path class="cls-3" d="M207.81276,178.30829a3.99781,3.99781,0,0,0,.19751-.36884"/><path class="cls-3" d="M207.64107,178.61761a3.98125,3.98125,0,0,1-.36121.43567"/><path class="cls-3" d="M208.26692,175.676a3.94707,3.94707,0,0,1,.03565.4035"/><path class="cls-3" d="M206.2726,172.90619a3.99781,3.99781,0,0,0-.36884-.19751"/><path class="cls-3" d="M206.484,179.74341a3.99821,3.99821,0,0,0,.64887-.51673"/><path class="cls-3" d="M208.059,174.933c.04394.1128.06616.229.09924.34394"/><path class="cls-3" d="M221.24971,232.84705a3.92594,3.92594,0,0,0-.07086-.41687"/><path class="cls-3" d="M207.4482,173.90552a4.07336,4.07336,0,0,0-.257-.31922"/><path class="cls-2" d="M207.70772,174.235l-.00775-.00983c.04217.06561.06811.13776.10608.2052C207.77,174.36615,207.74776,174.29785,207.70772,174.235Z"/><path class="cls-3" d="M206.58192,173.07788a3.98011,3.98011,0,0,1,.43567.36121"/><path class="cls-3" d="M219.91048,230.16309c-.08887-.07831-.19263-.14014-.289-.2107"/><path class="cls-3" d="M220.43355,230.72156a4.00846,4.00846,0,0,0-.2804-.30194"/><path class="cls-3" d="M221.1144,232.07861c-.03229-.11486-.08478-.22174-.12708-.33294"/><path class="cls-3" d="M220.83791,231.36493c-.05707-.11359-.13373-.21552-.20136-.32318"/><path class="cls-3" d="M219.27626,229.70758c-.08472-.049-.18072-.08191-.2699-.12494"/><path class="cls-2" d="M218.51729,229.36639a3.98245,3.98245,0,0,0-.71033-.162,3.992,3.992,0,0,1,.74274.17639C218.53828,229.37689,218.52876,229.37012,218.51729,229.36639Z"/><path class="cls-3" d="M205.17079,172.47778c.12085.0257.23578.07093.35382.10767"/><path class="cls-3" d="M195.95522,187.35156c.024-.06506.06127-.12433.09021-.18744"/><path class="cls-3" d="M200.48158,202.41888q.722,2.19507,1.24311,4.44648"/><path class="cls-3" d="M196.18129,186.8819a2.71649,2.71649,0,0,1,.3147-.42151"/><path class="cls-3" d="M195.82277,187.8559c.01392-.0857.04388-.16724.06586-.251"/><path class="cls-2" d="M178.61293,263.90131l.00726.00842-.00622-.00836a5.97117,5.97117,0,0,1-.44-1.032l-.06409-.17071c.02093.05615.0415.11078.06305.16968A5.97166,5.97166,0,0,0,178.61293,263.90131Z"/><path class="cls-2" d="M177.97493,262.34833l.00012.00036a51.25424,51.25424,0,0,0,22.66889-28.51629l.00561.00091-.00561-.001A51.25506,51.25506,0,0,1,177.97493,262.34833Z"/><path class="cls-2" d="M178.31319,266.21027a2.68894,2.68894,0,0,1,.19775-1.99787c.0271-.06732.05347-.135.07977-.2027-.02649.06769-.05291.13544-.08081.20264A2.68869,2.68869,0,0,0,178.31319,266.21027Z"/><path class="cls-3" d="M114.727,183.07037a50.6361,50.6361,0,0,1,4.0979-3.89172"/><path class="cls-2" d="M202.9449,233.68115a2.78843,2.78843,0,0,1,1.33008-.38379h-.00006A2.788,2.788,0,0,0,202.9449,233.68115Z"/><path class="cls-2" d="M202.21785,234.10785l.07611.01453.014.002.00024-.00018-.01324-.00287C202.2693,234.11646,202.24348,234.11267,202.21785,234.10785Z"/><path class="cls-2" d="M175.59724,275.37207l.02472.07428c.11164.35181.20417.691.296,1.02588-.09393-.34369-.19043-.68665-.29608-1.02692Z"/><path class="cls-2" d="M170.93391,267.62933l-.01074-.00293.01081.00391c.09.029.182.056.274.084a2.7271,2.7271,0,0,1,1.3758.71838,2.72747,2.72747,0,0,0-1.37586-.71845C171.11592,267.68628,171.02492,267.6593,170.93391,267.62933Z"/><path class="cls-2" d="M170.14284,266.22314c.11169.19989.24615.44349.37713.68122.07221.13037.14093.25464.20307.36676-.0622-.11237-.13092-.23694-.20313-.3678C170.38979,266.6665,170.25471,266.42346,170.14284,266.22314Z"/><path class="cls-2" d="M105.691,177.06238c-.3-.319-.577-.637-.843-.944-.25251-.30445-.51776-.59784-.79132-.88312.27356.28564.53881.57935.79132.88415C105.114,176.42535,105.391,176.74335,105.691,177.06238Z"/><path class="cls-2" d="M182.54494,273.5163a16.17679,16.17679,0,0,1,1.37,2.097c.05048.09436.10541.20484.16168.32044-.05633-.11585-.11108-.22644-.16064-.32038a16.16928,16.16928,0,0,0-1.371-2.097q-.38122-.51288-.74-1.042a36.86464,36.86464,0,0,1-3.39862-6.05072,36.85873,36.85873,0,0,0,3.39758,6.05065C182.04994,272.84131,182.3019,273.18433,182.54494,273.5163Z"/><path class="cls-2" d="M148.897,163.62439c.0011-.03015.00006-.06036.0011-.09052-.001.02985,0,.05964-.0011.08948a4.26713,4.26713,0,0,1-1.268,2.01905l-.00409.00408.00513-.00408A4.26717,4.26717,0,0,0,148.897,163.62439Z"/><path class="cls-2" d="M110.991,181.85034a36.40721,36.40721,0,0,1-5.232-4.72l-.068-.068.068.069A36.40737,36.40737,0,0,0,110.991,181.85034Z"/><path class="cls-2" d="M196.496,186.46039a37.09668,37.09668,0,0,1,5.847-4.107c.36237-.21362.71961-.403,1.06732-.58734q-.53933.28272-1.06732.58637A37.10363,37.10363,0,0,0,196.496,186.46039Z"/><path class="cls-2" d="M155.23659,157.20251c.02386-.16516.04028-.33123.0664-.49609l.00153-.01233-.00153.01227C155.27687,156.87128,155.26045,157.03729,155.23659,157.20251Z"/><path class="cls-2" d="M198.99257,175.95117c-.03082.03632-.06506.06958-.09558.1062-.12482.14276-.263.29218-.39331.43872.13031-.14648.26849-.296.39331-.43866C198.92751,176.02081,198.96175,175.98755,198.99257,175.95117Z"/><path class="cls-2" d="M204.27553,233.29736c.07178,0,.1466.003.22345.01a36.28377,36.28377,0,0,1,6.746,1.977,36.28847,36.28847,0,0,0-6.746-1.978Q204.3875,233.29727,204.27553,233.29736Z"/><path class="cls-2" d="M100.20833,172.6618a4.72468,4.72468,0,0,0-.74634-.09246l-.00824-.00013.00824.00019A4.73164,4.73164,0,0,1,100.20833,172.6618Z"/><path class="cls-3" d="M100.92628,172.86963a4.73968,4.73968,0,0,0-.718-.20783"/><path class="cls-3" d="M154.86238,161.8916c.00269-.22113.0174-.44171.02417-.66266"/><path class="cls-2" d="M191.15334,182.101a3.90746,3.90746,0,0,1-.55133-.04858l-.205-.014c.06.003.13.009.205.014A3.90645,3.90645,0,0,0,191.15334,182.101Z"/><path class="cls-3" d="M119.718,276.02844c.02368-.05.0456-.09271.06861-.13989"/><path class="cls-2" d="M204.36006,226.08228c-.02942-.04725-.06457-.09034-.092-.13892l-.114-.165.11395.165C204.29543,225.99194,204.33064,226.035,204.36006,226.08228Z"/><path class="cls-2" d="M148.247,155.24536a16.3,16.3,0,0,1-.326-2.494,16.30583,16.30583,0,0,0,.326,2.495c.074.4.151.816.213,1.25l.00073.00592-.00073-.007C148.398,156.06238,148.32,155.6474,148.247,155.24536Z"/><path class="cls-3" d="M196.80379,193.91949q1.11483,2.0453,2.03534,4.17481"/><path class="cls-2" d="M194.382,189.92242q1.30645,1.94945,2.42182,3.99707Q195.68895,191.87421,194.382,189.92242Z"/><path class="cls-2" d="M147.925,151.69336c.00214.01556.00379.03125.005.04687v-.00085Z"/><path class="cls-2" d="M194.56392,189.75854c.18371-.16534.3891-.34893.59009-.52813.267-.238.497-.444.603-.541-.106.097-.336.303-.603.54C194.953,189.40942,194.74763,189.59314,194.56392,189.75854Z"/><path class="cls-2" d="M195.76772,188.65784c.00946-.0918.01452-.18366.0213-.27643a2.69742,2.69742,0,0,1,.02093-.32733,2.70583,2.70583,0,0,0-.021.32635C195.78224,188.47418,195.77614,188.566,195.76772,188.65784Z"/><path class="cls-2" d="M204.5724,181.12817q.53541-.322,1.04462-.68579c.173-.128.386-.303.592-.474-.206.17005-.418.346-.592.474Q205.1083,180.80584,204.5724,181.12817Z"/><path class="cls-2" d="M99.629,225.86938l.005-.008.011-.003,1.17768-.34241-1.1767.34137-.012.004-.006.009-.16.208a4.59476,4.59476,0,0,1-.33386.41376,4.59833,4.59833,0,0,0,.33484-.41474Z"/><path class="cls-2" d="M82.56081,233.77222a3.96884,3.96884,0,0,0,.14941.62915,4.01073,4.01073,0,0,1-.15161-.69763C82.56129,233.72687,82.55769,233.74908,82.56081,233.77222Z"/><path class="cls-2" d="M89.619,228.79437l.00452-.00024-.00458.00024a16.07632,16.07632,0,0,0-2.49194.233c-.08319.01563-.17963.03748-.27606.05939.09637-.02185.19275-.0437.27606-.05933A16.07784,16.07784,0,0,1,89.619,228.79437Z"/><path class="cls-2" d="M83.15059,235.37494a3.98455,3.98455,0,0,1-.421-.892A3.95811,3.95811,0,0,0,83.15059,235.37494Z"/><path class="cls-2" d="M84.52321,236.6908c-.1145-.066-.21045-.15992-.31806-.23706C84.31282,236.53113,84.40822,236.62439,84.52321,236.6908Z"/><path class="cls-2" d="M83.7596,236.1181a4.03516,4.03516,0,0,1-.28278-.34332A4.01339,4.01339,0,0,0,83.7596,236.1181Z"/><path class="cls-2" d="M85.39937,237.066a3.97677,3.97677,0,0,1-.87616-.37524A4.00684,4.00684,0,0,0,85.39937,237.066Z"/><path class="cls-2" d="M84.20515,236.45374a3.981,3.981,0,0,1-.44555-.33564A3.962,3.962,0,0,0,84.20515,236.45374Z"/><path class="cls-2" d="M83.47682,235.77478a3.92012,3.92012,0,0,1-.32623-.39984A3.87891,3.87891,0,0,0,83.47682,235.77478Z"/><path class="cls-2" d="M87.849,237.00836a.2664.2664,0,0,1,.032-.01c.0791-.01794.16522-.03583.25109-.05377l-.251.0528A.26847.26847,0,0,0,87.849,237.00836Z"/><polygon class="cls-2" points="108.039 188.796 108.04 188.799 108.113 188.865 108.04 188.799 108.039 188.796"/><path class="cls-3" d="M86.19228,237.213c.13116.01038.26605-.00256.39978-.00537"/><path class="cls-3" d="M85.96138,237.17377a3.97312,3.97312,0,0,1-.54236-.10022"/><path class="cls-2" d="M87.03566,237.19336a3.97523,3.97523,0,0,0,.70905-.16168,3.99149,3.99149,0,0,1-.75025.163C87.00838,237.193,87.02174,237.19519,87.03566,237.19336Z"/><path class="cls-3" d="M120.15828,258.26666c-.89441-.70892-1.7544-1.45581-2.59692-2.22033"/><path class="cls-3" d="M115.02956,253.60321c-.82257-.85638-1.6048-1.749-2.36524-2.65955"/><polygon class="cls-2" points="86.056 229.276 86.076 229.271 86.056 229.276 86.041 229.279 86.036 229.281 86.041 229.279 86.056 229.276"/><path class="cls-2" d="M91.272,235.89539a16.60486,16.60486,0,0,1-2.32306.859,16.60312,16.60312,0,0,0,2.323-.858c.372-.16.756-.325,1.16205-.48l.077-.0282-.076.02723C92.028,235.57141,91.644,235.73541,91.272,235.89539Z"/><path class="cls-2" d="M125.21193,263.93634h-.001a3.88085,3.88085,0,0,1,.35,2.2,38.24426,38.24426,0,0,1-3.38141,6.12482,38.23666,38.23666,0,0,0,3.38238-6.12482A3.88093,3.88093,0,0,0,125.21193,263.93634Z"/><path class="cls-3" d="M82.54457,232.90875a4.01353,4.01353,0,0,0,.00824.61518"/><path class="cls-3" d="M99.287,233.39935c.01337.00055.02625.00379.03961.00446"/><path class="cls-2" d="M127.04793,279.12335l-.02124.04547.0213-.04547a16.1147,16.1147,0,0,0,.783-2.378c.03448-.12732.07666-.26282.11236-.39252-.03564.12922-.078.26477-.11236.39148A16.11788,16.11788,0,0,1,127.04793,279.12335Z"/><polygon class="cls-2" points="132.917 267.635 132.916 267.636 132.917 267.635 133.801 266.033 133.801 266.033 132.917 267.635"/><path class="cls-2" d="M97.329,179.86139l-.025-.018.025.018c.073.058.15.12195.229.18695.08661.07129.174.1427.2597.21216-.08575-.06946-.17309-.141-.25964-.21314Q97.44384,179.9539,97.329,179.86139Z"/><path class="cls-2" d="M95.559,176.96936a3.753,3.753,0,0,1,.73992-2.99994l-.00091.00092a3.75309,3.75309,0,0,0-.74,3,4.63,4.63,0,0,0,1.64172,2.78283A4.62985,4.62985,0,0,1,95.559,176.96936Z"/><path class="cls-2" d="M130.06862,270.424a14.8513,14.8513,0,0,1,1.15637-1.96966,3.157,3.157,0,0,1,1.41449-.75391,3.15734,3.15734,0,0,0-1.41559.75391A14.8588,14.8588,0,0,0,130.06862,270.424Z"/><polygon class="cls-2" points="101.52 234.189 101.53 234.194 101.54 234.2 101.541 234.2 101.53 234.194 101.52 234.189"/><path class="cls-2" d="M107.65688,187.23492a3.91519,3.91519,0,0,1,.35406,1.37146l.00763.051-.00757-.051A3.914,3.914,0,0,0,107.65688,187.23492Z"/><path class="cls-2" d="M125.212,263.91138l.703-1.689q-1.51263-.89428-2.95312-1.8847,1.43976.98968,2.95306,1.8847l-.703,1.689-.006.012.005.013-.00494-.013Z"/><path class="cls-3" d="M120.15828,258.26666q1.36321,1.08051,2.80359,2.071"/><path class="cls-2" d="M163.39674,268.144a50.96747,50.96747,0,0,1-11.46032,1.275A50.95978,50.95978,0,0,0,163.39674,268.144Z"/><path class="cls-2" d="M170.08888,266.12634a50.96063,50.96063,0,0,1-6.69214,2.01764A50.96063,50.96063,0,0,0,170.08888,266.12634Z"/><path class="cls-2" d="M126.56093,280.13135a.05506.05506,0,0,1-.013.016,4.44143,4.44143,0,0,1-1.58295,1.84827,4.44157,4.44157,0,0,0,1.583-1.84827.05506.05506,0,0,0,.013-.016l.003-.014c.03821-.07971.08228-.16742.12592-.255l-.127.254Z"/><path class="cls-2" d="M124.965,281.99561a4.44883,4.44883,0,0,1-1.09711.52734A4.44763,4.44763,0,0,0,124.965,281.99561Z"/><path class="cls-3" d="M122.646,282.73334a4.44108,4.44108,0,0,0,1.22186-.21039"/><path class="cls-2" d="M97.90846,180.33307c.083.06634.165.13141.23749.1853a16.142,16.142,0,0,0,2.142,1.292,16.14308,16.14308,0,0,1-2.142-1.293C98.0735,180.46393,97.99147,180.39917,97.90846,180.33307Z"/><path class="cls-2" d="M184.42891,276.67328a4.21206,4.21206,0,0,1-1.689,5.637,3.76215,3.76215,0,0,1-3.088.056,4.62813,4.62813,0,0,1-2.397-2.3l-.14-.285q-.18237-.35733-.3471-.72314c.09.2077.21948.46887.34613.7232.05.1.098.197.14.285a4.62755,4.62755,0,0,0,2.398,2.3,3.762,3.762,0,0,0,3.08795-.056,4.212,4.212,0,0,0,1.69-5.637c-.05-.101-.104-.217-.16095-.338l-.05768-.12073.05762.12067Z"/><path class="cls-3" d="M105.87129,185.40265c-.65912-.51221-1.34106-.99329-2.03314-1.4596"/><path class="cls-3" d="M153.07552,147.41357c.10833.03363.20581.0868.30969.129"/><path class="cls-3" d="M155.17152,148.98462c-.06762-.09912-.12658-.204-.20282-.29657"/><path class="cls-3" d="M84.76472,229.6839a3.9039,3.9039,0,0,1,.48035-.21155"/><path class="cls-3" d="M103.98726,175.161l.02038.01959"/><path class="cls-2" d="M156.17458,165.685c.014.33484.05059,1.061.0802,1.53937Q156.20853,166.45486,156.17458,165.685Z"/><path class="cls-3" d="M155.859,151.63141a4.00267,4.00267,0,0,0,0-.817"/><path class="cls-3" d="M155.39839,149.32544a4.00544,4.00544,0,0,1,.171.40033"/><path class="cls-3" d="M154.4247,148.144c.09894.08161.18225.17841.2727.26886"/><path class="cls-3" d="M151.48183,147.2536c.1333-.01355.27191-.00091.4082-.00091"/><path class="cls-3" d="M155.854,150.78961a3.96081,3.96081,0,0,0-.155-.75244"/><path class="cls-3" d="M83.46468,230.6969a3.9851,3.9851,0,0,1,.42816-.45136"/><path class="cls-2" d="M82.55434,232.85138a3.99566,3.99566,0,0,1,.81634-2.05322A3.97,3.97,0,0,0,82.55434,232.85138Z"/><path class="cls-3" d="M153.78712,147.71417a3.93369,3.93369,0,0,1,.33924.22577"/><path class="cls-3" d="M84.07851,230.11023a3.94646,3.94646,0,0,1,.44488-.31458"/><path class="cls-2" d="M152.29878,147.2536h-.00061c.00849.00086.01624.004.02472.00494C152.31459,147.25763,152.30714,147.25446,152.29878,147.2536Z"/><path class="cls-3" d="M148.081,150.03717c.03381-.10889.08716-.207.12964-.3114"/><path class="cls-2" d="M147.921,150.81378v.00061c.00086-.00854.00409-.01629.005-.02478C147.92506,150.798,147.92183,150.80542,147.921,150.81378Z"/><path class="cls-3" d="M148.38161,149.32544a3.92448,3.92448,0,0,1,.22686-.34082"/><path class="cls-3" d="M150.70448,147.41357a3.95912,3.95912,0,0,1,.75263-.155"/><path class="cls-3" d="M203.64034,172.452a3.94707,3.94707,0,0,1,.4035-.03565"/><path class="cls-3" d="M204.40651,172.39111c.1297.0022.25659.02509.38507.0398"/><path class="cls-3" d="M148.81129,148.68805c.08234-.09985.17994-.184.27131-.27515"/><path class="cls-3" d="M138.60347,168.84094q-1.82355.484-3.59991,1.10034"/><path class="cls-2" d="M202.1993,173.01123l-.0094.00751c.06475-.04157.13586-.0672.20245-.10468C202.32893,172.94977,202.26143,172.97168,202.1993,173.01123Z"/><path class="cls-3" d="M149.99287,147.71417a4.01217,4.01217,0,0,1,.40192-.17163"/><path class="cls-3" d="M149.3553,148.144c.0932-.07672.19855-.136.29834-.2041"/><path class="cls-3" d="M202.89735,172.65991c.11261-.04388.2287-.06592.34333-.099"/><path class="cls-3" d="M123.3069,175.78394a50.654,50.654,0,0,1,5.65387-3.29779"/><path class="cls-2" d="M128.96077,172.48615a50.63475,50.63475,0,0,1,6.04279-2.54487A50.64461,50.64461,0,0,0,128.96077,172.48615Z"/><path class="cls-3" d="M147.921,152.7514c-.00347-.09607-.004-.20532-.00292-.32"/><path class="cls-3" d="M237.85609,329.343l.01288-.00061"/><path class="cls-2" d="M8.269,438.47638a34.25491,34.25491,0,0,0,34.254,34.256h218.1a34.255,34.255,0,0,0,34.255-34.255v-32.922H8.269Zm175.127,3.61792a2.90893,2.90893,0,0,0-1.265-.954,5.59355,5.59355,0,0,0-1.752-.37q-.973-.059-1.946-.059H177.07v-5.05993h1.908a10.70356,10.70356,0,0,0,1.596-.117,4.5302,4.5302,0,0,0,1.42-.448,2.64342,2.64342,0,0,0,1.032-.933,2.87,2.87,0,0,0,.39-1.577,2.561,2.561,0,0,0-.993-2.064,3.70108,3.70108,0,0,0-2.433-.816,3.42417,3.42417,0,0,0-2.257.739,3.383,3.383,0,0,0-1.168,1.829l-6.424-1.323a8.84876,8.84876,0,0,1,1.402-3.056,7.71672,7.71672,0,0,1,2.219-2.044,9.82392,9.82392,0,0,1,2.86-1.148,14.5638,14.5638,0,0,1,3.33-.37,13.757,13.757,0,0,1,3.522.448,8.65417,8.65417,0,0,1,2.978,1.401,7.012,7.012,0,0,1,2.044,2.395,7.25428,7.25428,0,0,1,.759,3.426,6.44,6.44,0,0,1-1.207,3.931,5.53033,5.53033,0,0,1-3.503,2.102v.117a5.44537,5.44537,0,0,1,2.2.74,5.96473,5.96473,0,0,1,1.614,1.44,6.308,6.308,0,0,1,1.013,1.946,7.46736,7.46736,0,0,1,.35,2.296,7.83545,7.83545,0,0,1-.798,3.62,7.55531,7.55531,0,0,1-2.141,2.589,9.14286,9.14286,0,0,1-3.153,1.538,14.20378,14.20378,0,0,1-3.834.507,11.52331,11.52331,0,0,1-6.365-1.713,8.32076,8.32076,0,0,1-3.523-5.412l6.15-1.44a4.19425,4.19425,0,0,0,1.265,2.336,4.10417,4.10417,0,0,0,2.823.856,3.66,3.66,0,0,0,2.822-.993,3.61606,3.61606,0,0,0,.915-2.55A2.94305,2.94305,0,0,0,183.396,442.0943Zm-26.412-17.30292h5.45v27.56h-5.606v-21.021l-5.527,4.866-3.31-3.815Zm-20.708,24.212a3.63693,3.63693,0,0,1,.272-1.401,3.444,3.444,0,0,1,1.907-1.908,3.753,3.753,0,0,1,2.803,0,3.4467,3.4467,0,0,1,1.908,1.908,3.73976,3.73976,0,0,1,0,2.803,3.44094,3.44094,0,0,1-1.908,1.907,3.7396,3.7396,0,0,1-2.803,0,3.43826,3.43826,0,0,1-1.907-1.907,3.63688,3.63688,0,0,1-.273-1.402Zm-13.85895-24.212h5.45v27.56h-5.606v-21.021l-5.527,4.866-3.31-3.815Z"/><path class="cls-2" d="M262.851,345.50739a1.64306,1.64306,0,0,1,.98,1.38,1.376,1.376,0,0,1-.757,1.381,6.62352,6.62352,0,0,1-2.583.356,17.90224,17.90224,0,0,1-3.518-.355,23.46573,23.46573,0,0,1-3.26758-.99787c-.06781-.02606-.13788-.04541-.20545-.07208l-.01532.07422-1.09771,5.31476a21.15892,21.15892,0,0,0,2.85.89,21.46412,21.46412,0,0,0,5.21.535q4.76394,0,7.347-1.782v.00007a5.93878,5.93878,0,0,0,2.62787-5.245l.00012-.009c.00092-.05243-.00934-.10413-.0094-.1565a8.89557,8.89557,0,0,0-.0852-1.22607,8.11577,8.11577,0,0,0-.26142-1.20056,4.73605,4.73605,0,0,0-1.158-2.00385v-.00006a7.5628,7.5628,0,0,0-2.227-1.692c-.1972-.10687-.40338-.19543-.60333-.297a25.16641,25.16641,0,0,0-3.0047-1.306c-.49859-.1872-.91766-.35456-1.29986-.5127-.16358-.06763-.33789-.13794-.48011-.20025-.08032-.04279-.14239-.07947-.21691-.12037-.16547-.09069-.323-.17883-.46009-.26-.14355-.08508-.28058-.168-.393-.24261a1.66626,1.66626,0,0,1-.52289-.60877l-.01013-.01532a1.79055,1.79055,0,0,1-.13141-.68127c0-.01031-.00275-.02032-.00257-.03064v-.00006q0-1.737,3.117-1.737a13.37856,13.37856,0,0,1,3.028.312,23.794,23.794,0,0,1,2.539.712l1.158-5.1659a17.91535,17.91535,0,0,0-3.118-.801,20.40687,20.40687,0,0,0-4.097-.401,10.6547,10.6547,0,0,0-6.724,1.915c-.13782.10547-.26318.2229-.39056.33831a6.25267,6.25267,0,0,0-2.05854,4.87159,7.66782,7.66782,0,0,0,.49005,2.895,6.26952,6.26952,0,0,0,1.38,2.092,8.76737,8.76737,0,0,0,2.138,1.47q1.26975.61277,2.80078,1.18353c.01709.00635.03211.01312.04926.01947A17.15021,17.15021,0,0,1,262.851,345.50739Z"/><path class="cls-2" d="M245.752,332.41541a10.308,10.308,0,0,0-7.883-3.073l-.00006-.00006-.01288.00061a11.39642,11.39642,0,0,0-4.17309.80139,10.52039,10.52039,0,0,0-3.562,2.36,11.92558,11.92558,0,0,0-2.538,3.919,14.45512,14.45512,0,0,0-.936,5.43249c-.00153.18378.0119.36683.01684.55036.006.22351.005.44745.02051.67029.01978.28467.05719.56732.09247.85028.015.1203.02155.24164.03931.36151.04.27014.09747.53729.15155.805.02642.13086.04425.26313.074.39331q.13605.59465.3183,1.17871a10.77863,10.77863,0,0,0,2.271,3.874,11.132,11.132,0,0,0,3.874,2.539,14.93923,14.93923,0,0,0,5.522.935,23.39941,23.39941,0,0,0,2.494-.134q1.24595-.133,2.316-.356.50784-.0781,1.00934-.18946.50125-.11122.99463-.25555c.02032-.00574.03985-.01386.06012-.01978a9.17186,9.17186,0,0,0,1.36389-.51526l-.88989-5.38769a14.29986,14.29986,0,0,1-2.89508.8457,20.1247,20.1247,0,0,1-3.562.312,7.69576,7.69576,0,0,1-4.542-1.203,4.40857,4.40857,0,0,1-1.32263-1.41015c-.0498-.0846-.07666-.18073-.12073-.2685a4.38347,4.38347,0,0,1-.27582-.6134c-.01867-.05768-.02032-.12073-.03662-.17926a4.38253,4.38253,0,0,1-.15918-.77869h.00019l-.00019-.001h15.051q.045-.534.09-1.202c.01837-.29669.02886-.56976.03576-.83179.00409-.15729.00824-.31457.00824-.45953q-.00018-5.18244-2.2157-8.14844A8.664,8.664,0,0,0,245.752,332.41541Zm-3.51807,6.902h-8.773a10.26748,10.26748,0,0,1,.4-1.648,4.7683,4.7683,0,0,1,.847-1.47,3.72106,3.72106,0,0,1,1.336-.979,4.23907,4.23907,0,0,1,.87671-.29645c.01923-.00427.03772-.01135.057-.01538.07446-.0155.15051-.0221.2257-.03363.08716-.01337.17359-.031.26148-.03894.08594-.00775.17267-.00574.25909-.00818.07807-.00226.1557-.00946.234-.00739h.001c.0614-.00225.12231.00385.18359.0044.10352.00085.20734-.00122.31012.00751.08551.00726.16956.02459.25434.03723.07776.01153.15637.01812.23327.03418a4.06626,4.06626,0,0,1,.93268.31665,3.73259,3.73259,0,0,1,1.292,1.024,3.67334,3.67334,0,0,1,.757,1.425,6.2204,6.2204,0,0,1,.31195,1.648Z"/><path class="cls-2" d="M221.177,348.13538h.00006q-.54108.0877-1.08747.13232-.54593.04458-1.09454.04565H218.995a6.18628,6.18628,0,0,1-1.02112-.07794,3.798,3.798,0,0,1-.83758-.23382,2.31123,2.31123,0,0,1-1.12427-.93524,6.7244,6.7244,0,0,1-.713-3.34V335.4873h7.972v-5.522h-7.972v-6.902l-6.635,1.069v19.683c-.00067.07764.00988.15472.01013.23236a19.7992,19.7992,0,0,0,.39081,3.90863,8.03085,8.03085,0,0,0,1.514,3.207,7.34557,7.34557,0,0,0,2.85,2.048,12.20824,12.20824,0,0,0,4.49805.713,15.568,15.568,0,0,0,3.607-.357v-.00006q.6828-.1616,1.35169-.37335.66841-.21157,1.32031-.47266l-.936-5.165A12.528,12.528,0,0,1,221.177,348.13538Z"/><path class="cls-2" d="M200.05977,331.67279a10.30636,10.30636,0,0,0-7.0708-2.33038v-.00006l-.01288.00061a11.39647,11.39647,0,0,0-4.1731.80139,10.52059,10.52059,0,0,0-3.562,2.36,11.92645,11.92645,0,0,0-2.539,3.919,14.1974,14.1974,0,0,0-.69727,2.52515,14.71345,14.71345,0,0,0-.22979,2.60937c.00006.09949-.01007.19843-.00794.298-.00152.18378.0119.36683.01685.55036.006.22351.005.44745.02051.67029.01977.28467.05719.56732.09246.85028.015.1203.02155.24164.03931.36151.04.27014.09747.53729.15155.805.02643.13086.04425.26313.074.39331q.13605.59465.3183,1.17871a10.77861,10.77861,0,0,0,2.271,3.874,11.13153,11.13153,0,0,0,3.874,2.539,14.93916,14.93916,0,0,0,5.522.935,23.39941,23.39941,0,0,0,2.494-.134q1.24593-.133,2.316-.356a15.57847,15.57847,0,0,0,2.004-.445,9.15779,9.15779,0,0,0,1.424-.535l-.88995-5.388a14.30425,14.30425,0,0,1-2.895.846,20.13032,20.13032,0,0,1-3.562.312,7.69564,7.69564,0,0,1-4.543-1.203,4.40718,4.40718,0,0,1-.74322-.636c-.0448-.04792-.07471-.10706-.11725-.15687a4.39637,4.39637,0,0,1-1.05353-2.45715h.00018l-.00018-.001h15.051q.045-.534.089-1.202h.001c.01831-.29669.02887-.56976.03577-.83179.00409-.15729.00824-.31457.00824-.45953q-.00019-5.92282-2.895-8.95062A10.3096,10.3096,0,0,0,200.05977,331.67279Zm-2.70679,7.64459h-8.772a10.25365,10.25365,0,0,1,.4-1.648,4.76318,4.76318,0,0,1,.846-1.47,3.72046,3.72046,0,0,1,1.336-.979,4.23973,4.23973,0,0,1,1.915-.4,3.87269,3.87269,0,0,1,1.64428.28937c.09064.03583.18256.06818.2707.1106a3.733,3.733,0,0,1,1.292,1.024,3.67335,3.67335,0,0,1,.757,1.425,6.22,6.22,0,0,1,.311,1.648Z"/><path class="cls-2" d="M174.693,332.41534a7.27929,7.27929,0,0,0-3.161-2.182,13.14727,13.14727,0,0,0-4.943-.802c-.12011-.00043-.24.00531-.36016.00616a34.09978,34.09978,0,0,0-5.25086.43982,34.68672,34.68672,0,0,0-4.365.89v22.622h6.636v-18.08q.623-.089,1.425-.133c.02954-.00336.05944-.00207.08905-.00525a13.76206,13.76206,0,0,1,1.425-.08472,3.44632,3.44632,0,0,1,3.067,1.22791c.03088.03723.06549.07037.095.10907a8.94454,8.94454,0,0,1,.846,4.54205v12.42395h6.635v-13.226a18.00991,18.00991,0,0,0-.49-4.364A8.59,8.59,0,0,0,174.693,332.41534Z"/><path class="cls-2" d="M150.251,329.74438a13.152,13.152,0,0,0-1.514-.178,11.33073,11.33073,0,0,0-1.292-.089,23.64536,23.64536,0,0,0-5.433.578,37.3023,37.3023,0,0,0-4.186,1.158v22.176h6.636v-17.902a7.52411,7.52411,0,0,1,1.291-.222,10.476,10.476,0,0,1,1.514-.134,11.89677,11.89677,0,0,1,2.583.267q1.203.223,2.093.446l1.11285-5.47705a6.17919,6.17919,0,0,0-1.29077-.356A13.49375,13.49375,0,0,0,150.251,329.74438Z"/><path class="cls-2" d="M132.572,343.85931q.045-.534.089-1.202.045-.712.045-1.292,0-.74011-.04523-1.43506a12.5811,12.5811,0,0,0-1.97058-6.40808,8.751,8.751,0,0,0-.87921-1.10688,10.30734,10.30734,0,0,0-7.8819-3.07293l-.00006-.00006a11.39845,11.39845,0,0,0-4.186.802,10.51994,10.51994,0,0,0-3.562,2.36,11.92566,11.92566,0,0,0-2.539,3.919,15.34678,15.34678,0,0,0-.83514,3.5343c-.01892.17066-.05011.33972-.06293.511-.02038.27246-.0169.54657-.02185.82025-.00336.18909-.0191.37744-.01507.56689-.00165.19294.01208.38508.01757.5777.00605.2143.00476.42908.01953.64276.00892.12763.02942.25409.04139.38141a15.69225,15.69225,0,0,0,.31543,2.02887q.13585.59465.318,1.17877a10.77794,10.77794,0,0,0,2.272,3.874,11.13013,11.13013,0,0,0,3.874,2.53894,14.9393,14.9393,0,0,0,5.522.935,23.39738,23.39738,0,0,0,2.494-.134q.62357-.06655,1.20227-.15551t1.11273-.2005a15.5663,15.5663,0,0,0,2.004-.445q.36676-.10392.72363-.23786.3565-.13385.70136-.29712l-.89-5.388a14.30371,14.30371,0,0,1-2.895.846,20.1241,20.1241,0,0,1-3.562.312,7.69576,7.69576,0,0,1-4.543-1.203c-.10205-.06927-.18262-.16064-.27771-.23755a4.44174,4.44174,0,0,1-.46588-.3985l-.00232-.00311a4.40738,4.40738,0,0,1-.57672-.77118c-.0235-.03985-.03467-.08587-.05688-.12646a4.40148,4.40148,0,0,1-.33967-.75537c-.01355-.042-.01434-.088-.02667-.1305a4.38705,4.38705,0,0,1-.16913-.82733h.00019l-.00019-.001Zm-14.651-6.18994a4.766,4.766,0,0,1,.846-1.47,3.72054,3.72054,0,0,1,1.336-.979,4.23944,4.23944,0,0,1,1.915-.4,4.06941,4.06941,0,0,1,1.915.4,3.73271,3.73271,0,0,1,1.29095,1.024,3.67305,3.67305,0,0,1,.75806,1.425,6.22191,6.22191,0,0,1,.311,1.648v.00006H117.52A10.26993,10.26993,0,0,1,117.921,337.66937Z"/><path class="cls-2" d="M104.093,332.81635a8.42792,8.42792,0,0,0-3.206-2.45,10.347,10.347,0,0,0-4.409-.89,11.89813,11.89813,0,0,0-2.583.267,12.43243,12.43243,0,0,0-2.315.757v-11.668l-6.636,1.07v32.73q.891.267,2.049.535,1.158.22193,2.405.4,1.29108.17808,2.582.268,1.336.133,2.539.133a14.72124,14.72124,0,0,0,2.62085-.19159q.64838-.1062,1.28595-.27.63693-.16369,1.25915-.3844a10.709,10.709,0,0,0,3.83-2.494,10.47172,10.47172,0,0,0,2.36-3.874,14.4529,14.4529,0,0,0,.846-5.077,17.33534,17.33534,0,0,0-.668-4.987A11.0806,11.0806,0,0,0,104.093,332.81635Zm-5.522,13.627a4.768,4.768,0,0,1-4.097,1.87q-.89007,0-1.647-.045-.757-.088-1.247-.178v-12.068a5.78659,5.78659,0,0,1,1.603-.668,8.0874,8.0874,0,0,1,2.048-.267,4.40765,4.40765,0,0,1,2.87628.90173,3.90244,3.90244,0,0,1,.80664.908,8.46718,8.46718,0,0,1,1.03711,4.60236A8.1302,8.1302,0,0,1,98.571,346.44336Z"/><path class="cls-2" d="M78.672,352.58832V329.96539H72.037v18.08l-.07531.01007c-.39515.05621-.83875.112-1.33851.16754l-.01117.00135q-.802.044-1.514.044a3.36522,3.36522,0,0,1-3.162-1.425,9.49015,9.49015,0,0,1-.846-4.631V329.96539H58.455v13.048a18.56249,18.56249,0,0,0,.49,4.409,8.97463,8.97463,0,0,0,1.647,3.474,7.64958,7.64958,0,0,0,3.118,2.226,13.50041,13.50041,0,0,0,4.98755.802c.74719.00244,1.49353-.02667,2.23864-.07324q.51984-.0325,1.03827-.0802c.78058-.07276,1.55927-.16608,2.33356-.29261A34.66834,34.66834,0,0,0,78.672,352.58832Z"/><path class="cls-2" d="M33.368,353.38934h6.634v-10.242q.60607.49338,1.16424,1.0404.55757.54621,1.06379,1.14264a32.36107,32.36107,0,0,1,2.182,2.716c.20154.27185.39118.54754.585.822q.35258.499.68909,1.00354c.21662.3258.43494.65112.64087.98047q.93467,1.37942,1.64734,2.537l7.61365-.00006q-.757-1.47-1.87-3.25-1.114-1.782-2.45-3.563t-2.761-3.42895a29.1924,29.1924,0,0,0-2.761-2.895q2.672-2.627,4.899-5.077,2.27052-2.49252,4.63007-5.209H47.396q-.62392.756-1.514,1.78-.84694,1.02494-1.826,2.183-.98,1.113-2.049,2.27-1.024,1.159-2.004,2.227v-.00012l-.001.0011V318.83356l-6.634,1.06982Z"/></svg>
