<svg id="Layer_1" data-name="Layer 1" xmlns="http://www.w3.org/2000/svg" viewBox="0 0 386.10001 78.1"><defs><style>.cls-1{fill:#99a3a8;}.cls-2{fill:#0075a8;}</style></defs><title>longhorn-horizontal-color</title><path class="cls-1" d="M7.42,17.31H18.35v34H37.11v9.2H7.42ZM39.79,38.92C39.79,25.4,49.91,16.39,63,16.39s23.09,9,23.09,22.53S76.02,61.38,63,61.38,39.79,52.37,39.79,38.92Zm35.12,0c0-7.53-5.25-12.22-11.91-12.22S51,31.39,51,38.92s5.31,12.22,12,12.22S74.91,46.57,74.91,38.92ZM92.77,17.31h10.8l15.85,25.68V17.31h10.93V60.46H119.62L103.69,34.71V60.46H92.77Zm45.27,21.61c0-13.89,9.32-22.53,23.52-22.53,6.23,0,10.86,1.11,15,3.77V30.52c-3.7-3-8.27-4.07-14-4.07-7.59,0-13.27,4.75-13.27,12.47s4.88,12.65,12.72,12.65a11.91,11.91,0,0,0,5.49-1.11V43.54h-6.6V35.92h17V57.37c-4.26,2.59-9.51,4-16.3,4C147.36,61.38,138.04,52.8,138.04,38.92Zm47.49-21.61h10.89V33.97h16.91V17.31h10.93V60.46H213.37V43.05H196.42V60.46H185.53Zm113.26,0h19.38c9.94,0,16.17,5.12,16.17,14.81,0,6.48-3,11-8,13.27l7.65,15.06H322.74l-6.86-13.53h-6.17V60.46H298.79V17.31Zm17.47,20.43c4,0,6.85-1.3,6.85-5.62,0-4.57-2.9-5.62-6.85-5.62h-6.54V37.74Zm25.01-20.43h10.8l15.86,25.68V17.31h10.93V60.46H368.12L352.2,34.71V60.46H341.27Z"/><path class="cls-2" d="M280.86,24.92v10h14.25a6.09,6.09,0,0,0,6.31-7.31L299.3,14.92c-.68-4.1-2.57-7.41-3.84-7.41s-2.6,3.43-2.6,7.58v3.34c0,4.15-2.81,6.48-7,6.48h-5Zm-9-7.95v-.05H250.94c-4.15,0-8.08,3.43-8.08,7.59V63.77c0,4.15,3.93,7.15,8.08,7.15h20.39a7.22,7.22,0,0,0,7.52362-6.90306q.00531-.12341.00638-.24694V24.51A7.38,7.38,0,0,0,271.86,16.97Zm-31,17.95v-10h-4.44c-4.15,0-7.52-2.33-7.52-6.48V15.1c0-4.15-1.05-7.55-2.32-7.55s-2.87,3.35-3.55,7.45L220.9,27.62a6.09,6.09,0,0,0,6.3,7.31h13.7Z"/></svg>