<?xml version="1.0" encoding="UTF-8"?><svg id="Layer_1" xmlns="http://www.w3.org/2000/svg" xmlns:xlink="http://www.w3.org/1999/xlink" viewBox="0 0 400 245"><defs><style>.cls-1{fill-rule:evenodd;}.cls-2{opacity:.8;}.cls-3{clip-path:url(#clippath);}</style><clipPath id="clippath"><rect x="147.60001" y="39.07299" width=".7" height="136.60001"/></clipPath></defs><path d="M106.6,155.77299c.7-.2,1.6-.39999,2.8-.60001,1.2-.2,2.3-.3,3.5-.3,1,0,2.1.10001,3.1.5.8.3,1.4.8,1.9,1.39999.5.60001.8,1.39999,1,2.10001.2.89999.3,1.8.3,2.8v8.3h-4.1v-7.89999c.1-1-.1-1.89999-.5-2.8-.3-.5-1-.8-2-.8-.3,0-.6,0-.9.10001-.3,0-.6.10001-.9.10001v11.3h-4.2s0-14.20001,0-14.20001ZM99,162.57299c0-1.10001-.2-2.10001-.7-3-1-1.2-2.7-1.39999-4-.5-.2.10001-.3.3-.5.5-.6.89999-.9,2-.8,3,0,1.10001.2,2.2.8,3.10001.9,1.2,2.6,1.5,3.8.60001.2-.2.5-.39999.6-.60001.49999-.90001.8-2.00002.8-3.10001M103.2,162.57299c0,1.10001-.1,2.10001-.5,3.2-.3.89999-.8,1.8-1.5,2.5-1.3,1.5-3.3,2.2-5.2,2.10001-1,0-2-.2-3-.5-.9-.39999-1.6-.89999-2.3-1.60001-.7-.7-1.2-1.60001-1.5-2.5-.7-2-.7-4.3,0-6.3.3-.89999.8-1.7,1.5-2.39999.6-.7,1.4-1.2,2.3-1.5.9-.39999,1.9-.60001,2.9-.5,1,0,2,.2,2.9.5.8.39999,1.6.89999,2.3,1.5.6.7,1.1,1.5,1.5,2.39999.39999,1,.59999,2,.59999,3.10001M80.6,170.373c-3.2,0-5.6-.89999-7.2-2.60001-1.7-1.7-2.5-4.2-2.5-7.5,0-1.5.2-2.89999.7-4.3.9-2.39999,2.8-4.3,5.2-5.10001,1.3-.5,2.6-.7,4-.7.7,0,1.5.10001,2.2.2.7.10001,1.3.3,1.7.39999.4.10001.9.3,1.3.5.3.10001.5.2.7.39999l-1.3,3.5c-.7-.39999-1.4-.60001-2.1-.8-.9-.2-1.8-.3-2.7-.3-.7,0-1.3.10001-1.9.3s-1.2.60001-1.7,1.10001c-.5.60001-.9,1.2-1.2,1.89999-.3.89999-.5,1.89999-.5,2.8,0,.8.1,1.7.3,2.5.2.7.5,1.39999.9,2,.5.60001,1.1,1,1.7,1.3.8.3,1.7.5,2.6.5.6,0,1.1-.10001,1.7-.10001.5,0,.9-.10001,1.3-.3.3-.10001.7-.2,1-.3s.5-.3.8-.3l1.2,3.5c-.8.5-1.7.8-2.6,1-1.1.30003-2.3.40004-3.6.40004M64,161.17298c0-.3-.1-.7-.2-1-.1-.3-.3-.60001-.5-.89999-.2-.3-.5-.5-.8-.7-.4-.2-.8-.3-1.2-.3s-.8.10001-1.2.3c-.3.10001-.6.3-.8.60001s-.4.60001-.5.89999c-.1.3-.2.7-.3,1.10001l5.5-.00002h0ZM54.2,162.67298c0-1.2.2-2.3.6-3.39999.3-.89999.9-1.7,1.6-2.39999.6-.60001,1.4-1.10001,2.2-1.5.8-.3,1.7-.5,2.6-.5,1.8-.10001,3.7.60001,5,1.89999,1.2,1.3,1.8,3.2,1.8,5.60001v.8c0,.3-.1.5-.1.7h-9.5c0,.8.5,1.60001,1.2,2,.8.5,1.8.8,2.8.7.7,0,1.5-.10001,2.2-.2.6-.10001,1.2-.3,1.8-.5l.5,3.39999c-.3.10001-.6.2-.9.3-.4.10001-.8.2-1.3.3s-.9.10001-1.5.2c-.5.10001-1,.10001-1.5.10001-1.2,0-2.3-.2-3.4-.60001-.9-.3-1.7-.89999-2.4-1.60001-.7-.7-1.2-1.5-1.4-2.39999-.09999-.90001-.29999-1.90001-.29999-2.90001M51.5,162.67298c0,1.10001-.2,2.10001-.5,3.2-.3.89999-.8,1.7-1.5,2.39999s-1.5,1.2-2.4,1.5c-1,.39999-2.1.5-3.2.5-.5,0-1.1,0-1.6-.10001l-1.6-.2c-.5-.10001-1-.10001-1.5-.3-.5-.10001-.9-.2-1.3-.3v-20.5l4.1-.59998v7.3c.5-.2,1-.39999,1.5-.5s1.1-.2,1.6-.10001c.9,0,1.9.2,2.8.5.8.3,1.5.89999,2,1.5.6.7,1,1.5,1.2,2.39999.3,1.10001.4,2.20001.4,3.3M47.3,162.47299c0-2.7-1-4-3-4-.4,0-.9.10001-1.3.10001-.3.10001-.7.2-1,.39999v7.60001c.3.10001.5.10001.8.10001s.7.10001,1,.10001c1,.10001,1.9-.39999,2.6-1.10001.6-1.00002.9-2.10001.9-3.20001M33.7,169.47299c-.7.2-1.6.39999-2.8.60001-1.2.2-2.3.3-3.5.3-1.1,0-2.1-.10001-3.1-.5-.8-.3-1.4-.8-1.9-1.39999-.5-.60001-.8-1.39999-1-2.10001-.2-.89999-.3-1.8-.3-2.8v-8.2h4.1v7.7c-.1,1,.1,2,.5,2.89999.3.60001,1,.89999,2,.89999.3,0,.6,0,.9-.10001.3,0,.6-.10001.9-.10001v-11.3h4.2v14.10002ZM14.5,169.97299c-.4-.60001-.9-1.3-1.4-2.10001s-1.1-1.5-1.7-2.2c-.6-.7-1.3-1.39999-1.9-2.10001-.6-.60001-1.3-1.2-2-1.8v8.2H3v-19.3h4.4v7.3c1.1-1.2,2.3-2.39999,3.4-3.8,1.1-1.3,2.2-2.5,3.2-3.60001h5.2c-1.3,1.5-2.6,3.10001-4,4.5-1.3,1.5-2.8,2.89999-4.2,4.39999,1.6,1.39999,3.1,2.89999,4.5,4.60001,1.5,1.89999,2.9,3.8,4.2,5.8h-5.2v.10002Z"/><path class="cls-1" d="M49.4,84.57299l-2.4.6c0-.3-.1-.7-.1-1,0-2.6.7-5.1,2-7.2l4.7,4.2c.1.1.2.2.3.2-.3.7-.5,1.5-.5,2.2-.1.1-.3.1-.5.1l-3.5.90001ZM58.5,70.37299v6.6c-.7.2-1.3.5-1.8.9-.2-.1-.4-.3-.6-.5l-4.8-3.4c2-1.89999,4.5-3.2,7.2-3.6M25.9,85.57299c2.3-10,4.2-18.5,6.5-28.5,1-4.5,1.7-5.7,5.8-8.1,5.6-3.3,9.9-5.6,15.9-9.1,3.8-2.1,4.5-2,4.5,2.6v23.2c-4.2.5-8.1,2.5-11,5.6l-2-1.4c-.2-.1-.4-.4-.5-.7-.2-.6-.6-1.2-1.1-1.6-.9-.8-2.3-.6-3.1.3s-.6,2.3.3,3.1c.3.3.7.5,1.1.5.3.1.5.1.8.1.2,0,.4.1.6.3l1.9,1.7c-2.1,3.1-3.2,6.7-3.2,10.3,0,.7.1,1.3.1,2l-4.1.9c-.3,0-.6,0-.9.1l-.5.29999c-2.7.5-5.4,1.1-8.1,1.7-3.7.9-3.9.1-3-3.3M63.3,76.97299v-6.6c2.7.5,5.2,1.7,7.2,3.6l-5.2,3.7q-.1.1-.2.1c-.50001-.3-1.10001-.59999-1.80001-.8M74.9,84.67299l-6.4-1.5c-.1-.7-.2-1.4-.5-2q.1-.1.2-.1l4.8-4.2c1.4,2.2,2.1,4.7,2.1,7.3-.2.09999-.3.29999-.2.49999M66.5,49.17299c3.5,1.7,6,2.9,9.5,4.6,4.8,2.3,9.7,4.7,14.6,7,1.2,5.2,2.4,10.5,3.6,15.7.7,3.2,1.1,4.8,1.8,7.9,1.1,4.9,1,5.3-4,4.2l-12.4-2.8c.1-.5.1-1.1.1-1.6,0-3.7-1.1-7.4-3.2-10.4l1.7-1.6c.2-.2.5-.3.7-.3.7,0,1.3-.3,1.8-.7.9-.8,1.1-2.1.3-3.1-.8-.9-2.1-1.1-3.1-.3h0c-.3.2-.6.6-.8.9-.1.3-.2.5-.3.7-.1.2-.2.4-.4.5l-2,1.4c-2.9-3.1-6.8-5-11-5.6v-14.19999c-.09999-3.3.2-3.7,3.10001-2.3M62.2,91.47299c-.4.1-.8.1-1.3.1-.4,0-.8,0-1.2-.1l-.2.4-3,5.4c1.4.5,2.9.7,4.4.7s3-.3,4.5-.7l-3-5.4c0-.1-.1-.2-.2-.4M67.4,87.87299l6.4,1.5c-1.1,2.6-2.9,4.8-5.2,6.4l-2.6-6.2c.59999-.5.99999-1.10001,1.39999-1.7M48,89.27299l6.4-1.5c.4.6.9,1.2,1.4,1.7l-.2.4-2.3,5.8c-2.4-1.5-4.2-3.7-5.3-6.4M100.8,100.67299c-3.1,3.8-4.5,5.6-7.6,9.5-3.5,4.4-6.3,7.9-9.8,12.3-2.5,3.2-4.3,3.2-8.4,3.2h-28.2c-5.4,0-5.8,0-9.1-4.2-3.3-4.1-5.8-7.3-9.1-11.4-2.6-3.2-3.2-4-5.8-7.2-4-5-4.6-6.8,1.5-8.1l19.1-4.3c1.5,4,4.3,7.4,8,9.7l-.9,2c-.1.3-.3.5-.5.6-.6.3-1.1.8-1.3,1.4-.5,1.1-.1,2.4,1,3,1.1.5,2.4.1,3-1h0c.2-.4.3-.8.3-1.2,0-.3,0-.5-.1-.8,0-.2,0-.5.1-.7l1.1-1.9c2.1.8,4.4,1.2,6.6,1.2,2.3,0,4.6-.4,6.7-1.3l1.1,1.9c.1.2.2.5.1.8-.1.6,0,1.3.3,1.9.5,1.1,1.9,1.5,3,1s1.5-1.9,1-3h0c-.2-.4-.4-.7-.7-1-.2-.2-.4-.3-.7-.5-.2-.1-.3-.3-.4-.5l-.9-2.1c3.7-2.2,6.5-5.6,7.9-9.7l21,4.8c4.40001.99999,4.10001,2.49999,1.70001,5.59999"/><path class="cls-1" d="M63.3,76.97299v-6.6c2.7.5,5.2,1.7,7.2,3.6l-5.2,3.7q-.1.1-.2.1c-.50001-.3-1.10001-.59999-1.80001-.8M74.9,84.67299l-6.4-1.5c-.1-.7-.2-1.4-.5-2q.1-.1.2-.1l4.8-4.2c1.4,2.2,2.1,4.7,2.1,7.3-.2.09999-.3.29999-.2.49999M66.5,49.17299c3.5,1.7,6,2.9,9.5,4.6,4.8,2.3,9.7,4.7,14.6,7,1.2,5.2,2.4,10.5,3.6,15.7.7,3.2,1.1,4.8,1.8,7.9,1.1,4.9,1,5.3-4,4.2l-12.4-2.8c.1-.5.1-1.1.1-1.6,0-3.7-1.1-7.4-3.2-10.4l1.7-1.6c.2-.2.5-.3.7-.3.7,0,1.3-.3,1.8-.7.9-.8,1.1-2.1.3-3.1-.8-.9-2.1-1.1-3.1-.3h0c-.3.2-.6.6-.8.9-.1.3-.2.5-.3.7-.1.2-.2.4-.4.5l-2,1.4c-2.9-3.1-6.8-5-11-5.6v-14.19999c-.09999-3.3.2-3.7,3.10001-2.3M67.4,87.87299l6.4,1.5c-1.1,2.6-2.9,4.8-5.2,6.4l-2.6-6.2c.59999-.5.99999-1.10001,1.39999-1.7M60.9,97.97299v-6.4c.4,0,.9-.1,1.3-.1.1.2.2.3.3.5l3,5.4c-1.6.4-3.1.6-4.6.6M100.8,100.67299c-3.1,3.8-4.5,5.6-7.6,9.5-3.5,4.4-6.3,7.9-9.8,12.3-2.5,3.2-4.3,3.2-8.4,3.2h-14v-23c2.3,0,4.6-.4,6.7-1.3l1.1,1.9c.1.2.2.5.1.8-.1.6,0,1.3.3,1.9.5,1.1,1.9,1.5,3,1s1.5-1.9,1-2.9c-.2-.4-.4-.7-.7-1-.2-.2-.4-.3-.7-.5-.2-.1-.3-.3-.4-.5l-.9-2.1c3.7-2.2,6.5-5.6,7.9-9.7l21,4.8c4.1.99999,3.8,2.49999,1.4,5.59999"/><path d="M256.5,99.87299h-11.10001v26h26v-11.1h-14.79999c-.10001,0-.10001-14.9-.10001-14.9ZM312.29999,99.87299v14.8h-14.79999l-.10001-.1v11.3h26v-26h-11.10001ZM245.3,73.77299h11.2l-.10001-.1v-14.8h14.79999l.10001.1v-11.2h-26s.00002,26,.00002,26ZM297.39999,47.77299v11.1h14.89999v14.9h11.10001v-26h-26Z"/><g class="cls-2"><path d="M296,73.77299l-14.89999-14.9h16.20001v-11.1h-26v11.3l14.79999,14.8c.10001-.1,9.89999-.1,9.89999-.1ZM282.60001,99.87299h-9.89999l12.39999,12.4,2.60001,2.6h-16.29999v11.1h26v-11.3l-7.39999-7.4-7.40002-7.39999ZM312.29999,73.77299v16.2l-2.60001-2.6-12.39999-12.3v9.9l7.5,7.4,7.39999,7.4h11.20001v-26h-11.10001ZM271.29999,88.57299l-14.79999-14.8h-11.3v26h11.2v-16.2l14.79999,14.8v-9.8h.10001Z"/></g><path d="M190.8,154.27299l-2.8,3.39999c-1.2-1.5-2.89999-2.39999-4.8-2.5-3,0-5.39999,2.39999-5.39999,5.39999v.2c0,3.2,2.3,5.60001,5.39999,5.60001,1.8-.10001,3.60001-.89999,4.8-2.3l2.89999,3c-2.10001,2.10001-4.89999,3.39999-7.89999,3.5-5.8,0-10.10001-4.2-10.10001-9.89999,0-5.60001,4.39999-9.7,10.3-9.7,2.90001.10001,5.60001,1.3,7.60001,3.3h0ZM193.2,170.373v-20.3h4.8v20.3h-4.8ZM216.8,162.97299c0,4.60001-3.2,7.60001-8.10001,7.60001s-8.10001-3-8.10001-7.60001,3.2-7.5,8.10001-7.5,8.10001,3,8.10001,7.5h0ZM205.39999,163.07299c0,2.3,1.3,3.8,3.3,3.8,1.89999,0,3.3-1.5,3.3-3.8s-1.3-3.8-3.3-3.8c-1.89999,0-3.3,1.5-3.3,3.8h0ZM233.8,170.373h-4.8v-2.39999c-1,1.7-2.89999,2.7-4.8,2.60001-3.2,0-5.3-2.2-5.3-5.60001v-9.3h4.8v8c0,1.7.89999,2.8,2.5,2.8,1.8,0,2.89999-1.5,2.89999-3.5v-7.3h4.8v14.7h-.09999ZM252.5,170.373h-4.8v-1.89999c-1.10001,1.39999-2.7,2.2-4.39999,2.10001-4.2,0-6.89999-3.10001-6.89999-7.7,0-4.5,2.7-7.5,6.8-7.5,1.8-.10001,3.5.7,4.60001,2.10001v-7.5h4.8v20.39998h-.10002ZM247.7,163.07299c0-2.3-1.3-3.8-3.3-3.8-1.89999,0-3.3,1.5-3.3,3.8s1.3,3.89999,3.3,3.89999c2-.09999,3.3-1.59999,3.3-3.89999ZM269.79999,170.373l-8.89999-11.8v11.8h-4.60001v-19.2h4.29999l8.89999,11.89999v-11.89999h4.60001v19.2h-4.29999ZM291.10001,160.67298v9.7h-4.60001v-1.7c-.89999,1.3-2.60001,1.89999-4.5,1.89999-3.20001,0-5.10001-1.89999-5.10001-4.60001,0-2.8,2-4.39999,5.70001-4.5h3.89999v-.19998c0-1.5-.89999-2.3-2.89999-2.3-1.5.10001-3.10001.5-4.39999,1.2l-1.29999-3.2c2.10001-1.10001,4.5-1.7,6.79999-1.7,4,.10001,6.39999,2.10001,6.39999,5.39999ZM286.39999,165.373v-1.3h-3c-1.39999,0-2.10001.5-2.10001,1.60001s.70001,1.7,2.10001,1.7c1.30002.09999,2.60001-.70001,3-2ZM303.89999,169.67298c-1.20001.7-2.60001,1-4,1-2.89999,0-4.89999-1.60001-4.89999-4.7v-6.5h-2.10001v-3.10001h2.10001v-4.09999h4.70001v4.10001h3.89999v3.2h-3.89999v5.8c0,1.10001.5,1.7,1.29999,1.60001.60001-.10001,1.20001-.2,1.79999-.5l1.10001,3.19998ZM311.10001,151.373c.10001,1.39999-1,2.5-2.39999,2.5h-.10001c-1.39999,0-2.5-1.2-2.5-2.60001s1.10001-2.5,2.5-2.5c1.29999-.10001,2.39999.89999,2.5,2.2v.40001h0ZM306.20001,170.373v-14.8h4.70001v14.8h-4.70001ZM318.29999,170.373l-5.60001-14.8h4.89999l3.20001,10.5,3.20001-10.5h4.70001l-5.60001,14.8h-4.80002ZM344.39999,164.27299h-10.39999c.29999,1.60001,1.79999,2.8,3.5,2.8,1.29999,0,2.60001-.60001,3.60001-1.5l2.5,2.39999c-1.70001,1.8-4,2.7-6.39999,2.60001-4.79999,0-7.89999-3-7.89999-7.5,0-4.60001,3.20001-7.60001,7.70001-7.60001,5.09998,0,7.69998,3.40001,7.39996,8.8h0ZM339.89999,161.67298c.10001-1.5-1-2.89999-2.5-3h-.29999c-1.70001,0-2.79999,1.2-3.10001,3h5.89999ZM363.79999,154.27299l-2.79999,3.39999c-1.20001-1.5-2.89999-2.39999-4.79999-2.5-3,0-5.39999,2.39999-5.39999,5.39999v.2c0,3.2,2.29999,5.60001,5.39999,5.60001,1.79999-.10001,3.60001-.89999,4.79999-2.3l2.89999,3c-2.10001,2.10001-4.89999,3.39999-7.89999,3.5-5.79999,0-10.10001-4.2-10.10001-9.89999,0-5.60001,4.39999-9.7,10.29999-9.7,2.80002.10001,5.50003,1.3,7.60001,3.3ZM380.29999,162.97299c0,4.60001-3.20001,7.60001-8.10001,7.60001-4.79999,0-8.10001-3-8.10001-7.60001s3.20001-7.5,8.10001-7.5,8.10001,3,8.10001,7.5ZM369,163.07299c0,2.3,1.29999,3.8,3.29999,3.8,1.89999,0,3.29999-1.5,3.29999-3.8s-1.29999-3.8-3.29999-3.8-3.29999,1.5-3.29999,3.8h0ZM398,161.07299v9.3h-4.70001v-8c0-1.7-1-2.8-2.60001-2.8-1.70001,0-2.79999,1.2-3,3v7.89999h-4.79999v-14.8h4.79999v2.39999c1-1.7,3-2.7,5-2.60001,3.10001-.09998,5.30002,2.10002,5.30002,5.60002h0Z"/><g id="b"><path d="M147.60001,39.07299h.7v136.60001h-.7V39.07299Z"/></g><path d="M147.60001,39.07299h.7v136.60001h-.7V39.07299Z"/><path d="M147.60001,39.07299h.7v136.60001h-.7V39.07299Z"/><rect id="SVGID" x="147.60001" y="39.07299" width=".7" height="136.60001"/><rect x="147.60001" y="39.07299" width=".7" height="136.60001"/><g class="cls-3"><path d="M147.60001,39.07299h.7v136.60001h-.7V39.07299Z"/></g><path d="M262.23334,199.67298h135.76666v.5h-135.76666v-.5Z"/><path d="M2,199.67298h129.23334v.5H2v-.5Z"/><path d="M138.28271,190.55322h3.80957v15.30469h-3.80957v-15.30469Z"/><path d="M156.70605,198.52832v7.32959h-3.63135v-6.48291c0-1.27002-.80176-2.16064-1.96045-2.16064-1.1582,0-2.02734.86865-2.02734,2.00488v6.63867h-3.76465v-11.51758h3.76465v1.29199c.71289-.95801,1.91602-1.55957,3.36426-1.55957,2.49512,0,4.25488,1.84912,4.25488,4.45557Z"/><path d="M171.56494,190.28564v15.57227h-3.76514v-1.53711c-.91357,1.13623-2.25,1.80469-3.80957,1.80469-3.07422,0-5.27979-2.49512-5.27979-6.0376,0-3.52002,2.20557-6.01514,5.27979-6.01514,1.55957,0,2.896.66846,3.80957,1.80469v-5.5918h3.76514ZM167.77734,200.08789c0-1.6709-1.09131-2.87354-2.62842-2.87354-1.64893,0-2.80713,1.20264-2.80713,2.87354,0,1.69336,1.1582,2.896,2.80713,2.896,1.53711,0,2.62842-1.20264,2.62842-2.896Z"/><path d="M174.34814,190.93164c0-1.04688.86914-1.96045,2.00537-1.96045,1.06934,0,1.96045.91357,1.96045,1.96045,0,1.0918-.89111,2.00537-1.96045,2.00537-1.13623,0-2.00537-.91357-2.00537-2.00537ZM174.45996,194.34033h3.76465v11.51758h-3.76465v-11.51758Z"/><path d="M191.4126,199.01855v6.83936h-3.63086v-1.00244c-.80225.82422-2.00537,1.27002-3.18604,1.27002-2.47266,0-4.34424-1.49268-4.34424-3.67627,0-2.25,2.1167-3.83154,4.83447-3.83154.84668,0,1.8042.2002,2.6958.55664v-.15576c0-1.11377-.82471-1.93799-2.51758-1.93799-1.0249,0-1.98291.28955-2.87402.73486l-1.20312-2.42822c1.60449-.80176,3.25293-1.31445,5.03516-1.31445,2.96289,0,5.19043,1.87158,5.19043,4.9458ZM187.78174,202.22656v-.80176c-.62402-.28955-1.38135-.4458-2.16113-.4458-1.00244,0-1.78223.5791-1.78223,1.35889s.71289,1.29248,1.64844,1.29248c1.13623,0,2.13867-.53516,2.29492-1.40381Z"/><path d="M199.5874,202.76123l5.65869-4.23291c1.71533-1.29199,2.20557-2.13867,2.20557-3.07422,0-1.04688-.91357-1.71533-2.02734-1.71533-1.42578,0-2.49512.69043-3.65381,1.91602l-2.38379-2.36133c1.62646-1.96094,3.60889-3.00781,6.12646-3.00781,3.43066,0,5.83691,2.09424,5.83691,5.0127,0,2.02734-.84668,3.60889-3.52002,5.43555l-2.40576,1.71533h6.08154v3.40869h-11.91846v-3.09668Z"/><path d="M213.55518,198.19434c0-4.63379,2.91797-7.90869,7.03955-7.90869,4.14355,0,7.06201,3.2749,7.06201,7.90869,0,4.65625-2.91846,7.93115-7.06201,7.93115-4.12158,0-7.03955-3.2749-7.03955-7.93115ZM223.73584,198.19434c0-2.60645-1.29199-4.45557-3.14111-4.45557-1.82666,0-3.11865,1.84912-3.11865,4.45557s1.29199,4.47803,3.11865,4.47803c1.84912,0,3.14111-1.87158,3.14111-4.47803Z"/><path d="M229.59424,202.76123l5.65869-4.23291c1.71533-1.29199,2.20557-2.13867,2.20557-3.07422,0-1.04688-.91357-1.71533-2.02734-1.71533-1.42578,0-2.49512.69043-3.65381,1.91602l-2.38379-2.36133c1.62646-1.96094,3.60889-3.00781,6.12646-3.00781,3.43066,0,5.83691,2.09424,5.83691,5.0127,0,2.02734-.84668,3.60889-3.52002,5.43555l-2.40576,1.71533h6.08154v3.40869h-11.91846v-3.09668Z"/><path d="M256.34912,200.75635c0,3.23047-2.60645,5.36914-6.01465,5.36914-4.56738,0-6.75049-3.1416-6.75049-7.6416,0-4.85645,2.82959-8.19824,7.32959-8.19824,1.91602,0,3.49756.60156,4.81201,1.604l-1.76025,2.87402c-.93555-.73535-1.8042-1.15869-3.02979-1.15869-1.82666,0-2.98486,1.29199-3.31934,3.47559.91357-.75781,2.22803-1.22559,3.56445-1.22559,2.82959,0,5.16846,1.84912,5.16846,4.90137ZM252.42822,200.91211c0-1.26953-1.11377-2.00488-2.42822-2.00488-1.04688,0-1.93799.5791-2.38379,1.49268.24512,1.6709.93604,2.49512,2.47314,2.49512,1.42578,0,2.33887-.89111,2.33887-1.98291Z"/></svg>