<?xml version="1.0" encoding="UTF-8"?>
<svg width="667px" height="606px" viewBox="0 0 667 606" version="1.1" xmlns="http://www.w3.org/2000/svg" xmlns:xlink="http://www.w3.org/1999/xlink">
    <title>kueueviz-stacked-white</title>
    <g id="K8-Contributions" stroke="none" stroke-width="1" fill="none" fill-rule="evenodd">
        <g id="kueueviz-stacked-white" transform="translate(0, 0.5263)" fill="#FFFFFF" fill-rule="nonzero">
            <path d="M3.65943983,602.558919 C2.60300856,602.558919 1.72899411,602.20903 1.03739647,601.509253 C0.345798822,600.809476 0,599.925125 0,598.856199 L0,498.497568 C0,497.367652 0.345798822,496.452806 1.03739647,495.753029 C1.72899411,495.053252 2.60300856,494.703363 3.65943983,494.703363 L17.1027656,494.703363 C18.2194737,494.703363 19.1236266,495.053252 19.8152242,495.753029 C20.5068219,496.452806 20.8526207,497.367652 20.8526207,498.497568 L20.8526207,534.677328 L55.2389825,497.452717 C55.6863002,496.935909 56.3771048,496.348481 57.3113961,495.690434 C58.2456874,495.032387 59.5249844,494.703363 61.1492871,494.703363 L76.2676751,494.703363 C77.1210685,494.703363 77.8626325,495.021954 78.492367,495.659137 C79.1221016,496.296319 79.4369689,497.046654 79.4369689,497.91014 C79.4369689,498.648437 79.2244136,499.274384 78.7993032,499.787982 L37.0131638,546.319951 L81.7496968,597.382815 C82.2350841,597.915673 82.4777778,598.572115 82.4777778,599.352142 C82.4777778,600.215628 82.1629105,600.965963 81.5331759,601.603145 C80.9034414,602.240328 80.1618774,602.558919 79.308484,602.558919 L63.6666391,602.558919 C61.8773681,602.558919 60.515587,602.177733 59.5812957,601.415361 C58.6470044,600.652989 58.0180629,600.096859 57.6944714,599.74697 L20.8526207,559.021868 L20.8526207,598.856199 C20.8526207,599.925125 20.5068219,600.809476 19.8152242,601.509253 C19.1236266,602.20903 18.2194737,602.558919 17.1027656,602.558919 L3.65943983,602.558919 Z M123.959437,604.673734 C117.62995,604.673734 112.144611,603.277521 107.503421,600.485097 C102.862232,597.692673 99.2933393,593.705667 96.7967443,588.52408 C94.3001493,583.342493 93.0518519,577.192758 93.0518519,570.074877 L93.0518519,526.945124 C93.0518519,525.879362 93.4071115,524.997628 94.1176307,524.299922 C94.8281499,523.602216 95.7260766,523.253363 96.811411,523.253363 L110.529646,523.253363 C111.614981,523.253363 112.512908,523.602216 113.223427,524.299922 C113.933946,524.997628 114.289206,525.879362 114.289206,526.945124 L114.289206,569.181941 C114.289206,581.868669 119.961952,588.212033 131.307444,588.212033 C136.721079,588.212033 141.034713,586.537378 144.248345,583.188069 C147.461978,579.83876 149.068794,575.170051 149.068794,569.181941 L149.068794,526.945124 C149.068794,525.879362 149.424054,524.997628 150.134573,524.299922 C150.845092,523.602216 151.743019,523.253363 152.828354,523.253363 L166.483033,523.253363 C167.568368,523.253363 168.466295,523.602216 169.176814,524.299922 C169.887333,524.997628 170.242593,525.879362 170.242593,526.945124 L170.242593,599.445739 C170.242593,600.511501 169.887333,601.393235 169.176814,602.090941 C168.466295,602.788647 167.568368,603.1375 166.483033,603.1375 L153.781688,603.1375 C152.696354,603.1375 151.798427,602.788647 151.087908,602.090941 C150.377388,601.393235 150.022129,600.511501 150.022129,599.445739 L150.022129,593.099175 C147.290867,596.766932 143.831975,599.612965 139.645452,601.637272 C135.45893,603.66158 130.230258,604.673734 123.959437,604.673734 Z M222.60137,604.673734 C211.044026,604.673734 201.85861,601.420125 195.045122,594.912909 C188.231634,588.405692 184.577186,579.142852 184.081778,567.124389 C184.019852,566.134783 183.988889,564.842885 183.988889,563.248697 C183.988889,561.654508 184.019852,560.383294 184.081778,559.435054 C184.476149,551.766403 186.26141,545.139861 189.437561,539.555428 C192.613712,533.970995 197.01779,529.681641 202.649796,526.687367 C208.281801,523.693093 214.911141,522.195956 222.537815,522.195956 C231.024934,522.195956 238.120348,523.908674 243.824057,527.334111 C249.527767,530.759548 253.846289,535.497566 256.779625,541.548164 C259.712962,547.598761 261.17963,554.572938 261.17963,562.470695 L261.17963,565.692483 C261.17963,566.752093 260.808889,567.628738 260.067406,568.322417 C259.325924,569.016096 258.412516,569.362935 257.327181,569.362935 L205.319132,569.362935 C205.319132,569.404301 205.319132,569.566584 205.319132,569.849783 C205.319132,570.132982 205.319132,570.376406 205.319132,570.580055 C205.442984,574.127999 206.167355,577.405473 207.492245,580.412475 C208.817135,583.419478 210.753952,585.838603 213.302695,587.669851 C215.851438,589.5011 218.908626,590.416724 222.474259,590.416724 C225.391299,590.416724 227.827598,589.982379 229.783155,589.11369 C231.738712,588.245 233.338196,587.24903 234.581604,586.12578 C235.825013,585.002529 236.707458,584.095655 237.22894,583.405158 C238.167608,582.246906 238.918868,581.540499 239.48272,581.285938 C240.046572,581.031377 240.923314,580.904096 242.112945,580.904096 L255.61118,580.904096 C256.592218,580.904096 257.4217,581.194455 258.099627,581.775172 C258.777553,582.35589 259.064368,583.125141 258.960072,584.082927 C258.855776,585.7153 258.005108,587.699285 256.408069,590.034883 C254.811031,592.37048 252.492881,594.659939 249.453618,596.903258 C246.414356,599.146577 242.637686,601.002486 238.123608,602.470985 C233.609529,603.939484 228.43545,604.673734 222.60137,604.673734 Z M205.319132,556.528285 L239.942276,556.528285 L239.942276,556.103487 C239.942276,552.170519 239.258646,548.705306 237.891385,545.70785 C236.524124,542.710394 234.53516,540.366841 231.92449,538.677192 C229.313821,536.987543 226.184929,536.142719 222.537815,536.142719 C218.8907,536.142719 215.77729,536.987543 213.197584,538.677192 C210.617877,540.366841 208.659876,542.710394 207.323578,545.70785 C205.98728,548.705306 205.319132,552.170519 205.319132,556.103487 L205.319132,556.528285 Z M306.890919,604.673734 C300.561431,604.673734 295.076092,603.277521 290.434903,600.485097 C285.793713,597.692673 282.224821,593.705667 279.728226,588.52408 C277.231631,583.342493 275.983333,577.192758 275.983333,570.074877 L275.983333,526.945124 C275.983333,525.879362 276.338593,524.997628 277.049112,524.299922 C277.759631,523.602216 278.657558,523.253363 279.742892,523.253363 L293.461128,523.253363 C294.546462,523.253363 295.444389,523.602216 296.154908,524.299922 C296.865427,524.997628 297.220687,525.879362 297.220687,526.945124 L297.220687,569.181941 C297.220687,581.868669 302.893433,588.212033 314.238926,588.212033 C319.65256,588.212033 323.966194,586.537378 327.179827,583.188069 C330.39346,579.83876 332.000276,575.170051 332.000276,569.181941 L332.000276,526.945124 C332.000276,525.879362 332.355536,524.997628 333.066055,524.299922 C333.776574,523.602216 334.674501,523.253363 335.759835,523.253363 L349.414515,523.253363 C350.499849,523.253363 351.397776,523.602216 352.108295,524.299922 C352.818814,524.997628 353.174074,525.879362 353.174074,526.945124 L353.174074,599.445739 C353.174074,600.511501 352.818814,601.393235 352.108295,602.090941 C351.397776,602.788647 350.499849,603.1375 349.414515,603.1375 L336.713169,603.1375 C335.627835,603.1375 334.729908,602.788647 334.019389,602.090941 C333.30887,601.393235 332.95361,600.511501 332.95361,599.445739 L332.95361,593.099175 C330.222348,596.766932 326.763456,599.612965 322.576934,601.637272 C318.390411,603.66158 313.161739,604.673734 306.890919,604.673734 Z M409.762481,604.673734 C398.205137,604.673734 389.019721,601.420125 382.206233,594.912909 C375.392745,588.405692 371.738297,579.142852 371.242889,567.124389 C371.180963,566.134783 371.15,564.842885 371.15,563.248697 C371.15,561.654508 371.180963,560.383294 371.242889,559.435054 C371.63726,551.766403 373.422521,545.139861 376.598672,539.555428 C379.774823,533.970995 384.178901,529.681641 389.810907,526.687367 C395.442912,523.693093 402.072252,522.195956 409.698926,522.195956 C418.186045,522.195956 425.281459,523.908674 430.985169,527.334111 C436.688878,530.759548 441.0074,535.497566 443.940737,541.548164 C446.874073,547.598761 448.340741,554.572938 448.340741,562.470695 L448.340741,565.692483 C448.340741,566.752093 447.97,567.628738 447.228517,568.322417 C446.487035,569.016096 445.573627,569.362935 444.488293,569.362935 L392.480243,569.362935 C392.480243,569.404301 392.480243,569.566584 392.480243,569.849783 C392.480243,570.132982 392.480243,570.376406 392.480243,570.580055 C392.604095,574.127999 393.328466,577.405473 394.653356,580.412475 C395.978246,583.419478 397.915063,585.838603 400.463806,587.669851 C403.012549,589.5011 406.069737,590.416724 409.63537,590.416724 C412.55241,590.416724 414.988709,589.982379 416.944266,589.11369 C418.899824,588.245 420.499307,587.24903 421.742715,586.12578 C422.986124,585.002529 423.868569,584.095655 424.390051,583.405158 C425.328719,582.246906 426.079979,581.540499 426.643831,581.285938 C427.207683,581.031377 428.084425,580.904096 429.274056,580.904096 L442.772291,580.904096 C443.753329,580.904096 444.582811,581.194455 445.260738,581.775172 C445.938664,582.35589 446.225479,583.125141 446.121183,584.082927 C446.016887,585.7153 445.166219,587.699285 443.569181,590.034883 C441.972142,592.37048 439.653992,594.659939 436.614729,596.903258 C433.575467,599.146577 429.798797,601.002486 425.284719,602.470985 C420.77064,603.939484 415.596561,604.673734 409.762481,604.673734 Z M392.480243,556.528285 L427.103387,556.528285 L427.103387,556.103487 C427.103387,552.170519 426.419757,548.705306 425.052496,545.70785 C423.685236,542.710394 421.696271,540.366841 419.085602,538.677192 C416.474932,536.987543 413.34604,536.142719 409.698926,536.142719 C406.051811,536.142719 402.938401,536.987543 400.358695,538.677192 C397.778989,540.366841 395.820987,542.710394 394.484689,545.70785 C393.148391,548.705306 392.480243,552.170519 392.480243,556.103487 L392.480243,556.528285 Z M490.057186,602.558919 C488.411581,602.558919 487.110027,602.146435 486.152525,601.321469 C485.195023,600.496502 484.498806,599.488566 484.063873,598.297661 L450.703857,499.354634 C450.538323,498.821776 450.455556,498.340278 450.455556,497.91014 C450.455556,497.046654 450.777698,496.296319 451.421983,495.659137 C452.066269,495.021954 452.824967,494.703363 453.698079,494.703363 L467.413077,494.703363 C468.873673,494.703363 470.005635,495.100599 470.808963,495.895071 C471.612291,496.689543 472.108082,497.438272 472.296337,498.141259 L498.567593,577.415092 L524.838849,498.141259 C525.088773,497.438272 525.599981,496.689543 526.372475,495.895071 C527.144968,495.100599 528.261512,494.703363 529.722108,494.703363 L543.437106,494.703363 C544.310218,494.703363 545.068917,495.021954 545.713202,495.659137 C546.357487,496.296319 546.67963,497.046654 546.67963,497.91014 C546.67963,498.340278 546.596863,498.821776 546.431328,499.354634 L513.071312,598.297661 C512.698049,599.488566 512.032666,600.496502 511.075164,601.321469 C510.117662,602.146435 508.785274,602.558919 507.077999,602.558919 L490.057186,602.558919 Z M561.783121,601.501511 C560.681773,601.501511 559.770598,601.15435 559.049595,600.460029 C558.328593,599.765707 557.968092,598.88825 557.968092,597.827658 L557.968092,525.678712 C557.968092,524.618119 558.328593,523.740662 559.049595,523.046341 C559.770598,522.352019 560.681773,522.004858 561.783121,522.004858 L574.929842,522.004858 C576.03119,522.004858 576.942365,522.352019 577.663368,523.046341 C578.38437,523.740662 578.744871,524.618119 578.744871,525.678712 L578.744871,597.827658 C578.744871,598.88825 578.38437,599.765707 577.663368,600.460029 C576.942365,601.15435 576.03119,601.501511 574.929842,601.501511 L561.783121,601.501511 Z M561.068733,508.876444 C559.967385,508.876444 559.05621,508.529284 558.335208,507.834962 C557.614205,507.14064 557.253704,506.263183 557.253704,505.202591 L557.253704,494.238359 C557.253704,493.177766 557.614205,492.285181 558.335208,491.560602 C559.05621,490.836023 559.967385,490.473734 561.068733,490.473734 L575.54997,490.473734 C576.651318,490.473734 577.578203,490.836023 578.330626,491.560602 C579.083048,492.285181 579.459259,493.177766 579.459259,494.238359 L579.459259,505.202591 C579.459259,506.263183 579.083048,507.14064 578.330626,507.834962 C577.578203,508.529284 576.651318,508.876444 575.54997,508.876444 L561.068733,508.876444 Z M599.051421,604.673734 C597.974317,604.673734 597.083199,604.318172 596.378067,603.607048 C595.672936,602.895925 595.32037,601.997235 595.32037,600.910977 L595.32037,592.01541 C595.32037,591.010704 595.553258,590.080209 596.019033,589.223925 C596.484808,588.367641 597.018508,587.595354 597.620134,586.907065 L637.27407,539.586368 L600.414783,539.586368 C599.337679,539.586368 598.446561,539.230806 597.741429,538.519683 C597.036298,537.808559 596.683732,536.909869 596.683732,535.823611 L596.683732,527.016119 C596.683732,525.929862 597.036298,525.031172 597.741429,524.320048 C598.446561,523.608925 599.337679,523.253363 600.414783,523.253363 L659.267377,523.253363 C660.344481,523.253363 661.235599,523.608925 661.94073,524.320048 C662.645862,525.031172 662.998427,525.929862 662.998427,527.016119 L662.998427,536.611393 C662.998427,537.48888 662.786564,538.308466 662.362839,539.070151 C661.939113,539.831836 661.426437,540.587812 660.824811,541.33808 L621.922907,588.340729 L662.435616,588.340729 C663.51272,588.340729 664.403838,588.696291 665.10897,589.407414 C665.814101,590.118538 666.166667,591.017228 666.166667,592.103485 L666.166667,600.910977 C666.166667,601.997235 665.814101,602.895925 665.10897,603.607048 C664.403838,604.318172 663.51272,604.673734 662.435616,604.673734 L599.051421,604.673734 Z" id="kueueviz"></path>
            <path d="M346.781436,3.03685227 L508.425904,80.2156082 C516.832988,84.2930078 522.968165,91.9256445 525.142981,101.012911 L565.077795,274.473729 C566.060974,278.855012 566.062623,283.399678 565.08285,287.781704 C565.01029,288.109086 564.884664,288.423369 564.801994,288.749863 C564.547172,289.751775 564.2913,290.754448 563.938499,291.726919 C562.817338,294.865582 561.184596,297.797145 559.106726,300.402956 L450.684973,435.276679 L449.722014,436.476777 L447.276614,439.517171 C445.177783,442.096223 442.671436,444.314449 439.856586,446.084413 C438.765753,446.780666 437.633595,447.409848 436.466507,447.968716 C435.687168,448.342333 434.880163,448.651725 434.071075,448.961261 C433.034378,449.353775 431.977751,449.692154 430.905652,449.974333 C429.409841,450.377084 427.885767,450.666709 426.346402,450.840799 C425.273415,450.962874 424.194341,451.026195 423.114216,451.03096 L243.71909,451.072286 C241.062278,451.055038 238.419144,450.690497 235.856742,449.988157 C233.487454,449.361348 231.202031,448.462162 229.042397,447.314695 C228.356399,446.949393 227.681724,446.561517 227.022648,446.146411 C226.07931,445.546361 225.186375,444.87464 224.315289,444.176919 L223.915654,443.885664 C223.73352,443.735053 223.577257,443.555455 223.398855,443.400533 C222.610131,442.715749 221.831824,442.017431 221.115515,441.254723 C220.647633,440.762618 220.186001,440.268266 219.748012,439.748658 L219.559192,439.540217 L107.687754,300.451276 C107.064515,299.665831 106.479775,298.851253 105.93444,298.007669 C104.669228,296.051404 103.636245,293.954366 102.856,291.759186 C102.394204,290.471961 102.018214,289.155585 101.730382,287.818863 C100.753454,283.433721 100.75657,278.887098 101.739604,274.503297 L141.610337,101.040414 C142.154186,98.7692673 142.945718,96.5892516 143.958192,94.5327967 C144.077876,94.2898601 144.229682,94.0661099 144.355453,93.8267424 C144.761936,93.0526029 145.171227,92.2797859 145.639852,91.5445988 C145.951037,91.0566421 146.313204,90.6052645 146.650841,90.1356064 L147.294114,89.2161228 C147.403048,89.0642324 147.514686,88.9144012 147.631791,88.7687009 C150.489018,85.215674 154.125439,82.289329 158.329806,80.2521873 L319.951083,3.03685227 C328.436218,-1.01228409 338.296446,-1.01228409 346.781436,3.03685227 Z M460.834324,244.526234 L349.709324,244.526234 C333.927788,244.526234 321.134324,257.319697 321.134324,273.101234 L321.134324,335.278317 C321.134324,351.059854 333.927788,363.853317 349.709324,363.853317 L460.834324,363.853317 C476.615861,363.853317 489.409324,351.059854 489.409324,335.278317 L489.409324,273.101234 C489.409324,272.908833 489.407423,272.716877 489.403638,272.525382 C489.38852,271.760408 489.343327,271.002663 489.269195,270.253425 L489.224624,269.834399 C489.144071,269.126627 489.037662,268.426703 488.906362,267.735594 C488.836482,267.367798 488.75964,267.002879 488.67591,266.640596 C488.583379,266.240244 488.482467,265.843231 488.373345,265.449633 L488.209944,264.883201 L488.067853,264.423426 L487.930232,264.002554 L487.707065,263.363108 L487.469275,262.730669 L487.288696,262.278715 L487.135468,261.911902 L486.94826,261.482285 L486.689551,260.918339 L486.470697,260.465118 C486.34673,260.214089 486.219184,259.965144 486.088126,259.718348 L485.918429,259.403573 L485.648086,258.920735 L485.42856,258.54412 L485.193491,258.154919 L484.857056,257.621068 L484.590814,257.216315 L484.182901,256.623709 L483.811841,256.110982 L483.390337,255.556105 L483.00472,255.071925 L482.688389,254.690187 L482.252926,254.185804 L481.692853,253.570286 C481.488783,253.352434 481.28134,253.137781 481.070606,252.926409 L480.596923,252.462127 L480.018795,251.923438 L480.118349,252.014103 C475.035774,247.36356 468.266396,244.526234 460.834324,244.526234 Z M388.047449,264.121275 L388.615661,264.135749 C392.084011,264.397163 395.181156,266.326396 396.496894,269.107828 L396.768262,269.764453 L422.930116,328.388567 L432.676193,309.013166 C434.242936,304.643706 438.624282,301.721481 443.590124,301.392696 L444.527524,301.36172 L460.569741,301.36172 C464.089605,301.36172 467.184324,303.944272 467.184324,307.494638 C467.184324,311.045004 464.089605,313.627556 460.569741,313.627556 L444.890533,313.624817 L431.797323,339.679051 C430.587381,343.052133 427.27627,345.284045 423.540691,345.566641 L422.734324,345.597067 L422.586158,345.591775 L422.538919,345.685267 L422.496199,345.586484 L421.927988,345.566718 C418.459638,345.305304 415.362493,343.376071 414.046754,340.594639 L413.775387,339.938014 L387.915158,281.996525 L377.867455,305.985825 C376.300712,310.355285 371.919367,313.27751 366.953525,313.606295 L366.016124,313.637271 L349.962714,313.637254 C346.447209,313.62663 343.359324,311.046221 343.359324,307.499496 C343.359324,303.94913 346.454044,301.366578 349.973908,301.366578 L365.610783,301.364025 L378.746326,270.023416 C379.956268,266.650334 383.267379,264.418422 387.002957,264.135826 L387.370116,264.121275 L388.047449,264.121275 Z M264.076737,133.871856 C258.595726,133.871856 253.373124,138.152551 253.373124,144.529885 L253.373124,164.015505 L304.132268,210.503031 C305.266129,211.541467 306.284945,212.687884 307.184348,213.916245 C310.005685,217.769659 311.626995,222.446999 311.732855,227.268934 C311.846379,232.439032 310.215303,237.521424 307.184348,241.658393 C306.48728,242.609812 305.716329,243.511389 304.875354,244.352364 L253.373124,295.854649 L253.373124,318.686666 C253.373124,325.098351 258.619062,329.345076 264.086992,329.345076 C266.700793,329.345076 269.364435,328.375504 271.531751,326.208261 L307.375,290.363 L307.375991,273.101234 C307.375991,249.721179 326.32927,230.7679 349.709324,230.7679 L365.126093,230.767335 C366.219831,227.010339 365.196703,222.777079 362.097746,219.938949 L271.194332,136.685528 C269.073596,134.743286 266.548371,133.871856 264.076737,133.871856 Z M197.469519,133.871874 C191.988507,133.871874 186.765905,138.152569 186.765905,144.529904 L186.765905,318.686666 C186.765905,325.098351 192.011843,329.345076 197.479773,329.345076 C200.093574,329.345076 202.757217,328.375504 204.924532,326.208261 L295.827873,235.304865 C300.111413,231.021271 299.957977,224.030426 295.490509,219.938967 L204.587167,136.685547 C202.466432,134.743304 199.941134,133.871874 197.469519,133.871874 Z M397.289381,133.871874 C391.80837,133.871874 386.585768,138.152569 386.585768,144.529904 L386.585768,164.014726 L437.345836,210.503049 C442.036529,214.798944 444.806828,220.90988 444.946423,227.268952 C444.972204,228.442909 444.908041,229.612349 444.757967,230.76723 L460.834324,230.7679 C471.765466,230.7679 481.728937,234.91099 489.240098,241.71253 L495.647736,235.304865 C499.931276,231.021271 499.77784,224.030426 495.310444,219.938967 L404.40703,136.685547 C402.286295,134.743304 399.760997,133.871874 397.289381,133.871874 Z M330.683105,133.871892 C325.202021,133.871892 319.979492,138.152587 319.979492,144.529922 L319.979492,164.014798 L370.739487,210.503067 C371.872913,211.541141 372.891475,212.687177 373.790643,213.915049 C376.61265,217.768699 378.234268,222.446474 378.340128,227.268971 C378.365904,228.442977 378.301717,229.612459 378.151606,230.767374 L431.732429,230.767374 C432.82619,227.010357 431.80307,222.777098 428.704113,219.938967 L337.800754,136.685565 C335.679964,134.743322 333.15472,133.871892 330.683105,133.871892 Z" id="kueueviz-icon-white"></path>
        </g>
    </g>
</svg>