<?xml version="1.0" encoding="utf-8"?>
<!-- Generator: Adobe Illustrator 21.1.0, SVG Export Plug-In . SVG Version: 6.00 Build 0)  -->
<svg version="1.1" id="Layer_1" xmlns="http://www.w3.org/2000/svg" xmlns:xlink="http://www.w3.org/1999/xlink" x="0px" y="0px"
	 viewBox="0 0 167 153" style="enable-background:new 0 0 167 153;" xml:space="preserve">
<style type="text/css">
	.st0{fill:url(#SVGID_1_);}
	.st1{fill:url(#SVGID_2_);}
	.st2{fill:url(#SVGID_3_);}
	.st3{fill:url(#SVGID_4_);}
	.st4{fill:#FFFFFF;}
	.st5{fill:#2C256C;}
	.st6{fill:#5B2D82;}
	.st7{fill:url(#SVGID_5_);}
	.st8{fill:url(#SVGID_6_);}
	.st9{fill:url(#SVGID_7_);}
	.st10{fill:url(#SVGID_8_);}
	.st11{fill:url(#SVGID_9_);}
	.st12{fill:#623393;}
</style>
<g>
	
		<linearGradient id="SVGID_1_" gradientUnits="userSpaceOnUse" x1="-839.2726" y1="260.0769" x2="-722.0584" y2="260.0769" gradientTransform="matrix(0.7071 -0.7071 -0.7071 -0.7071 801.6367 -306.036)">
		<stop  offset="0" style="stop-color:#623393"/>
		<stop  offset="0.5738" style="stop-color:#452B7C"/>
		<stop  offset="1" style="stop-color:#2C256C"/>
	</linearGradient>
	<path class="st0" d="M47.1,80.2c-1.2,1.2-2.1,2.4-2.8,3.8C45,82.7,46,81.4,47.1,80.2L47.1,80.2z"/>
	
		<linearGradient id="SVGID_2_" gradientUnits="userSpaceOnUse" x1="-839.2726" y1="244.1315" x2="-722.0584" y2="244.1315" gradientTransform="matrix(0.7071 -0.7071 -0.7071 -0.7071 801.6367 -306.036)">
		<stop  offset="0" style="stop-color:#623393"/>
		<stop  offset="0.5738" style="stop-color:#452B7C"/>
		<stop  offset="1" style="stop-color:#2C256C"/>
	</linearGradient>
	<path class="st1" d="M94.7,46.5c2.2,0,4.3,0.8,6,2.5l4.9,4.9l0,0l-4.9-4.9C99,47.4,96.9,46.5,94.7,46.5z"/>
	
		<linearGradient id="SVGID_3_" gradientUnits="userSpaceOnUse" x1="-839.2726" y1="266.4055" x2="-722.0584" y2="266.4055" gradientTransform="matrix(0.7071 -0.7071 -0.7071 -0.7071 801.6367 -306.036)">
		<stop  offset="0" style="stop-color:#754FA0"/>
		<stop  offset="0.1807" style="stop-color:#6E4A99"/>
		<stop  offset="0.4566" style="stop-color:#5C3F8B"/>
		<stop  offset="0.7913" style="stop-color:#413079"/>
		<stop  offset="1" style="stop-color:#2C256C"/>
	</linearGradient>
	<path class="st2" d="M47.1,52.4c5.4-5.4,14.2-5.4,19.6,0l4.1,4.1l12.7-12.7c6.2-6.2,16.2-6.2,22.3,0l4.9,4.9l12.2-12.2L96.3,9.9
		c-7.7-7.7-20.2-7.7-27.9,0l-55,55C6.9,71.4,5.9,81.5,10.5,89l0.2-0.2L47.1,52.4z"/>
	
		<linearGradient id="SVGID_4_" gradientUnits="userSpaceOnUse" x1="-839.2538" y1="210.685" x2="-722.0397" y2="210.685" gradientTransform="matrix(0.7071 -0.7071 -0.7071 -0.7071 801.6367 -306.036)">
		<stop  offset="0" style="stop-color:#754FA0"/>
		<stop  offset="0.1807" style="stop-color:#6E4A99"/>
		<stop  offset="0.4566" style="stop-color:#5C3F8B"/>
		<stop  offset="0.7913" style="stop-color:#413079"/>
		<stop  offset="1" style="stop-color:#2C256C"/>
	</linearGradient>
	<path class="st3" d="M118.9,100.3c-5.4,5.4-14.2,5.4-19.7,0l-4.8-4.8l-16,16c-6.2,6.2-16.2,6.2-22.3,0l-4.1-4.1l-12,11.8l24.5,24.5
		c7.7,7.7,20.2,7.7,27.9,0l55-55c5.7-5.7,7.2-14.2,4.4-21.3l-1.8,1.8L118.9,100.3z"/>
	<path class="st4" d="M73.2,106.2L73.2,106.2c-0.8,0.8-1.8,1.4-2.8,1.9c-1,0.4-2.1,0.6-3.2,0.6c-2.2,0-4.3-0.8-6-2.5l-4.1-4.1
		l-4.8-4.8c-1.6-1.6-2.5-3.8-2.5-6c0-1.1,0.2-2.2,0.6-3.2s1-2,1.9-2.8l0,0L76,61.6l12.7-12.7l0,0c1.2-1.2,2.8-2,4.4-2.3
		c0.5-0.1,1.1-0.2,1.6-0.2c2.2,0,4.3,0.8,6,2.5l4.9,4.9l5.2-5.2l0,0l-4.9-4.9c-6.2-6.2-16.2-6.2-22.3,0L70.9,56.4L47.2,80.1
		c-1.2,1.2-2.1,2.4-2.8,3.8c-0.2,0.5-0.5,0.9-0.6,1.4c-1.7,4.3-1.5,9.2,0.6,13.3c0.7,1.4,1.7,2.7,2.8,3.8l4.8,4.8l4.1,4.1
		c6.2,6.2,16.2,6.2,22.3,0l16-16l-5.2-5.2L73.2,106.2z"/>
	<path class="st5" d="M149.9,69.2l1.8-1.8c-0.6-1.6-1.5-3.2-2.6-4.6C149.5,64.9,149.8,67.1,149.9,69.2z"/>
	<path class="st6" d="M10.8,88.8L10.6,89c0.1,0.2,0.2,0.4,0.3,0.6C10.9,89.3,10.8,89,10.8,88.8z"/>
	
		<linearGradient id="SVGID_5_" gradientUnits="userSpaceOnUse" x1="-839.2726" y1="238.3984" x2="-722.0584" y2="238.3984" gradientTransform="matrix(0.7071 -0.7071 -0.7071 -0.7071 801.6367 -306.036)">
		<stop  offset="0" style="stop-color:#623393"/>
		<stop  offset="0.5738" style="stop-color:#452B7C"/>
		<stop  offset="1" style="stop-color:#2C256C"/>
	</linearGradient>
	<path class="st7" d="M89,70.4l16.5-16.5l-4.9-4.9c-1.6-1.6-3.8-2.5-6-2.5c-0.5,0-1.1,0.1-1.6,0.2c-1.6,0.3-3.1,1.1-4.4,2.3L76,61.7
		l0.9,0.9c5.4,5.4,5.4,14.2,0,19.6L57,102.1l4.1,4.1c1.6,1.6,3.8,2.5,6,2.5c1.1,0,2.2-0.2,3.2-0.6s2-1,2.8-1.9l16-16L89,90.1
		C83.6,84.6,83.6,75.8,89,70.4z"/>
	
		<linearGradient id="SVGID_6_" gradientUnits="userSpaceOnUse" x1="-850.3849" y1="238.3984" x2="-709.6153" y2="238.3984" gradientTransform="matrix(0.7071 -0.7071 -0.7071 -0.7071 801.6367 -306.036)">
		<stop  offset="0" style="stop-color:#754FA0"/>
		<stop  offset="0.1807" style="stop-color:#6E4A99"/>
		<stop  offset="0.4566" style="stop-color:#5C3F8B"/>
		<stop  offset="0.7913" style="stop-color:#413079"/>
		<stop  offset="1" style="stop-color:#2C256C"/>
	</linearGradient>
	<path class="st8" d="M89,70.4l16.5-16.5l-4.9-4.9c-1.6-1.6-3.8-2.5-6-2.5c-0.5,0-1.1,0.1-1.6,0.2c-1.6,0.3-3.1,1.1-4.4,2.3L76,61.7
		l0.9,0.9c5.4,5.4,5.4,14.2,0,19.6L57,102.1l4.1,4.1c1.6,1.6,3.8,2.5,6,2.5c1.1,0,2.2-0.2,3.2-0.6s2-1,2.8-1.9l16-16L89,90.1
		C83.6,84.6,83.6,75.8,89,70.4z"/>
	<path class="st4" d="M73.2,106.2L73.2,106.2c-0.8,0.8-1.8,1.4-2.8,1.9C71.4,107.7,72.3,107.1,73.2,106.2z"/>
	
		<linearGradient id="SVGID_7_" gradientUnits="userSpaceOnUse" x1="-850.3849" y1="223.908" x2="-709.6153" y2="223.908" gradientTransform="matrix(0.7071 -0.7071 -0.7071 -0.7071 801.6367 -306.036)">
		<stop  offset="0" style="stop-color:#623393"/>
		<stop  offset="0.5738" style="stop-color:#452B7C"/>
		<stop  offset="1" style="stop-color:#2C256C"/>
	</linearGradient>
	<path class="st9" d="M73.2,106.2L73.2,106.2c-0.8,0.8-1.8,1.4-2.8,1.9C71.4,107.7,72.3,107.1,73.2,106.2z"/>
	<path class="st4" d="M57.1,102.1L57.1,102.1l4.1,4.1c1.6,1.6,3.8,2.5,6,2.5c-2.2,0-4.3-0.8-6-2.5L57.1,102.1z"/>
	
		<linearGradient id="SVGID_8_" gradientUnits="userSpaceOnUse" x1="-850.3849" y1="231.9691" x2="-709.6153" y2="231.9691" gradientTransform="matrix(0.7071 -0.7071 -0.7071 -0.7071 801.6367 -306.036)">
		<stop  offset="0" style="stop-color:#623393"/>
		<stop  offset="0.5738" style="stop-color:#452B7C"/>
		<stop  offset="1" style="stop-color:#2C256C"/>
	</linearGradient>
	<path class="st10" d="M57.1,102.1L57.1,102.1l4.1,4.1c1.6,1.6,3.8,2.5,6,2.5c-2.2,0-4.3-0.8-6-2.5L57.1,102.1z"/>
	<path class="st4" d="M88.8,49L88.8,49c1.2-1.2,2.8-2,4.4-2.3C91.5,47,90,47.8,88.8,49z"/>
	
		<linearGradient id="SVGID_9_" gradientUnits="userSpaceOnUse" x1="-850.3849" y1="252.2633" x2="-709.6153" y2="252.2633" gradientTransform="matrix(0.7071 -0.7071 -0.7071 -0.7071 801.6367 -306.036)">
		<stop  offset="0" style="stop-color:#623393"/>
		<stop  offset="0.5738" style="stop-color:#452B7C"/>
		<stop  offset="1" style="stop-color:#2C256C"/>
	</linearGradient>
	<path class="st11" d="M88.8,49L88.8,49c1.2-1.2,2.8-2,4.4-2.3C91.5,47,90,47.8,88.8,49z"/>
	<path class="st5" d="M13.5,92.7c-1-1-1.9-2.1-2.6-3.2c-0.1-0.2-0.2-0.4-0.3-0.6l-5.2,5.2c-5.4,5.4-5.4,14.2,0,19.6l10.2,10.2
		c4.4,4.4,10.9,5.2,16.2,2.5c1.3-0.6,2.4-1.5,3.5-2.5l3.3-3.3l1.2-1.2l0.4-0.4L13.5,92.7z"/>
	<path class="st6" d="M47.1,102.6c-1.2-1.2-2.1-2.4-2.8-3.8c-2.2-4.1-2.4-9-0.6-13.3c0.2-0.5,0.4-0.9,0.6-1.4
		c0.7-1.4,1.7-2.7,2.8-3.8l0,0l23.7-23.7l-4.1-4.1c-5.4-5.4-14.2-5.4-19.6,0L10.7,88.9c0,0.2,0.1,0.5,0.2,0.7
		c0.7,1.1,1.6,2.2,2.6,3.2L40,119.3l11.9-11.9L47.1,102.6z"/>
	<path class="st6" d="M43.7,85.4c-1.7,4.3-1.5,9.2,0.6,13.3C42.1,94.6,41.9,89.7,43.7,85.4z"/>
	<path class="st6" d="M57.1,102.1L77,82.2c5.4-5.4,5.4-14.2,0-19.6l-0.9-0.9L52.4,85.4c-0.8,0.8-1.4,1.8-1.9,2.8
		c-0.4,1-0.6,2.1-0.6,3.2c0,2.2,0.8,4.3,2.5,6L57.1,102.1z"/>
	<path class="st6" d="M52.3,97.4c-1.6-1.6-2.5-3.8-2.5-6C49.9,93.5,50.7,95.7,52.3,97.4l4.8,4.8l0,0L52.3,97.4z"/>
	<path class="st6" d="M52.3,85.4c-0.8,0.8-1.4,1.8-1.9,2.8C50.9,87.2,51.5,86.2,52.3,85.4L52.3,85.4z"/>
	<path class="st5" d="M105.6,53.9L89,70.4c-5.4,5.4-5.4,14.2,0,19.6l0.1,0.1l20.4-20.4c1.2-1.2,2-2.8,2.3-4.4
		c0.1-0.5,0.2-1.1,0.2-1.6c0-2.2-0.8-4.3-2.5-6L105.6,53.9z"/>
	<path class="st5" d="M109.6,69.8c1.2-1.2,2-2.8,2.3-4.4C111.6,67.1,110.8,68.6,109.6,69.8L109.6,69.8z"/>
	<path class="st12" d="M109.6,57.9c1.6,1.6,2.5,3.8,2.5,6C112.1,61.7,111.2,59.5,109.6,57.9l-4-4l0,0L109.6,57.9z"/>
	<path class="st12" d="M114.8,75c1.5-1.5,2.7-3.3,3.5-5.2C117.5,71.7,116.3,73.5,114.8,75L114.8,75z"/>
	<path class="st12" d="M118.3,69.8c0.2-0.5,0.4-1,0.5-1.4c1.6-5.4,0.3-11.4-4-15.7l-4-4l-5.2,5.2l4,4c1.6,1.6,2.5,3.8,2.5,6
		c0,0.5-0.1,1.1-0.2,1.6c-0.3,1.6-1.1,3.1-2.3,4.4l0,0L89.2,90.3l5.2,5.2l20.4-20.4C116.3,73.5,117.5,71.7,118.3,69.8z"/>
	<path class="st12" d="M160.6,38.9l-10.2-10.2c-5.1-5.1-13.2-5.4-18.6-0.9c-0.3,0.3-0.7,0.6-1,0.9l-6.6,6.6l-1.2,1.2l0,0l24.4,24.4
		c0.6,0.6,1.2,1.3,1.7,2c1.1,1.4,2,3,2.6,4.6l8.9-8.9C166.1,53.1,166.1,44.3,160.6,38.9z"/>
	<path class="st5" d="M114.8,52.7c4.2,4.2,5.6,10.3,4,15.7c-0.1,0.5-0.3,1-0.5,1.4c-0.8,1.9-1.9,3.7-3.5,5.2l0,0L94.4,95.4l4.8,4.8
		c5.4,5.4,14.2,5.4,19.7,0l31-31c-0.2-2.1-0.5-4.3-0.9-6.4c-0.5-0.7-1.1-1.4-1.7-2L123,36.5l-12.2,12.2L114.8,52.7z"/>
	<path class="st5" d="M114.8,52.7c4.2,4.2,5.6,10.3,4,15.7C120.4,63,119,56.9,114.8,52.7l-4-4l0,0L114.8,52.7z"/>
</g>
</svg>
