<?xml version="1.0" encoding="utf-8"?>
<!-- Generator: Adobe Illustrator 21.1.0, SVG Export Plug-In . SVG Version: 6.00 Build 0)  -->
<svg version="1.1" id="Layer_1" xmlns="http://www.w3.org/2000/svg" xmlns:xlink="http://www.w3.org/1999/xlink" x="0px" y="0px"
	 viewBox="0 0 612 792" style="enable-background:new 0 0 612 792;" xml:space="preserve">
<style type="text/css">
	.st0{fill:url(#SVGID_1_);}
	.st1{fill:url(#SVGID_2_);}
	.st2{fill:url(#SVGID_3_);}
	.st3{fill:url(#SVGID_4_);}
	.st4{fill:#FFFFFF;}
	.st5{fill:#2C256C;}
	.st6{fill:#5B2D82;}
	.st7{fill:url(#SVGID_5_);}
	.st8{fill:url(#SVGID_6_);}
	.st9{fill:url(#SVGID_7_);}
	.st10{fill:url(#SVGID_8_);}
	.st11{fill:url(#SVGID_9_);}
	.st12{fill:#623393;}
</style>
<g>
	
		<linearGradient id="SVGID_1_" gradientUnits="userSpaceOnUse" x1="1574.3564" y1="-3275.7725" x2="1691.5707" y2="-3275.7725" gradientTransform="matrix(0.7071 -0.7071 0.7071 0.7071 1450.4043 3852.0857)">
		<stop  offset="0" style="stop-color:#623393"/>
		<stop  offset="0.5738" style="stop-color:#452B7C"/>
		<stop  offset="1" style="stop-color:#2C256C"/>
	</linearGradient>
	<path class="st0" d="M270.1,399.2c-1.2,1.2-2.1,2.4-2.8,3.8C268,401.7,269,400.4,270.1,399.2L270.1,399.2z"/>
	
		<linearGradient id="SVGID_2_" gradientUnits="userSpaceOnUse" x1="1574.3564" y1="-3259.8528" x2="1691.5707" y2="-3259.8528" gradientTransform="matrix(0.7071 -0.7071 0.7071 0.7071 1450.4043 3852.0857)">
		<stop  offset="0" style="stop-color:#623393"/>
		<stop  offset="0.5738" style="stop-color:#452B7C"/>
		<stop  offset="1" style="stop-color:#2C256C"/>
	</linearGradient>
	<path class="st1" d="M317.7,365.5c2.2,0,4.3,0.8,6,2.5l4.9,4.9l0,0l-4.9-4.9C322,366.4,319.9,365.5,317.7,365.5z"/>
	
		<linearGradient id="SVGID_3_" gradientUnits="userSpaceOnUse" x1="1574.3564" y1="-3282.1069" x2="1691.5707" y2="-3282.1069" gradientTransform="matrix(0.7071 -0.7071 0.7071 0.7071 1450.4043 3852.0857)">
		<stop  offset="0" style="stop-color:#754FA0"/>
		<stop  offset="0.1807" style="stop-color:#6E4A99"/>
		<stop  offset="0.4566" style="stop-color:#5C3F8B"/>
		<stop  offset="0.7913" style="stop-color:#413079"/>
		<stop  offset="1" style="stop-color:#2C256C"/>
	</linearGradient>
	<path class="st2" d="M270.1,371.4c5.4-5.4,14.2-5.4,19.6,0l4.1,4.1l12.7-12.7c6.2-6.2,16.2-6.2,22.3,0l4.9,4.9l12.2-12.2
		l-26.6-26.6c-7.7-7.7-20.2-7.7-27.9,0l-55,55c-6.5,6.5-7.5,16.6-2.9,24.1l0.2-0.2L270.1,371.4z"/>
	
		<linearGradient id="SVGID_4_" gradientUnits="userSpaceOnUse" x1="1574.3563" y1="-3226.4124" x2="1691.5704" y2="-3226.4124" gradientTransform="matrix(0.7071 -0.7071 0.7071 0.7071 1450.4043 3852.0857)">
		<stop  offset="0" style="stop-color:#754FA0"/>
		<stop  offset="0.1807" style="stop-color:#6E4A99"/>
		<stop  offset="0.4566" style="stop-color:#5C3F8B"/>
		<stop  offset="0.7913" style="stop-color:#413079"/>
		<stop  offset="1" style="stop-color:#2C256C"/>
	</linearGradient>
	<path class="st3" d="M341.9,419.3c-5.4,5.4-14.2,5.4-19.7,0l-4.8-4.8l-16,16c-6.2,6.2-16.2,6.2-22.3,0l-4.1-4.1L263,438.2
		l24.5,24.5c7.7,7.7,20.2,7.7,27.9,0l55-55c5.7-5.7,7.2-14.2,4.4-21.3l-1.8,1.8L341.9,419.3z"/>
	<path class="st4" d="M296.2,425.2L296.2,425.2c-0.8,0.8-1.8,1.4-2.8,1.9c-1,0.4-2.1,0.6-3.2,0.6c-2.2,0-4.3-0.8-6-2.5l-4.1-4.1
		l-4.8-4.8c-1.6-1.6-2.5-3.8-2.5-6c0-1.1,0.2-2.2,0.6-3.2c0.4-1,1-2,1.9-2.8l0,0l23.7-23.7l12.7-12.7l0,0c1.2-1.2,2.8-2,4.4-2.3
		c0.5-0.1,1.1-0.2,1.6-0.2c2.2,0,4.3,0.8,6,2.5l4.9,4.9l5.2-5.2l0,0l-4.9-4.9c-6.2-6.2-16.2-6.2-22.3,0l-12.7,12.7l-23.7,23.7
		c-1.2,1.2-2.1,2.4-2.8,3.8c-0.2,0.5-0.5,0.9-0.6,1.4c-1.7,4.3-1.5,9.2,0.6,13.3c0.7,1.4,1.7,2.7,2.8,3.8l4.8,4.8l4.1,4.1
		c6.2,6.2,16.2,6.2,22.3,0l16-16l-5.2-5.2L296.2,425.2z"/>
	<path class="st5" d="M372.9,388.2l1.8-1.8c-0.6-1.6-1.5-3.2-2.6-4.6C372.5,383.9,372.8,386.1,372.9,388.2z"/>
	<path class="st6" d="M233.8,407.8l-0.2,0.2c0.1,0.2,0.2,0.4,0.3,0.6C233.9,408.3,233.8,408,233.8,407.8z"/>
	
		<linearGradient id="SVGID_5_" gradientUnits="userSpaceOnUse" x1="1574.3564" y1="-3254.0376" x2="1691.5707" y2="-3254.0376" gradientTransform="matrix(0.7071 -0.7071 0.7071 0.7071 1450.4043 3852.0857)">
		<stop  offset="0" style="stop-color:#623393"/>
		<stop  offset="0.5738" style="stop-color:#452B7C"/>
		<stop  offset="1" style="stop-color:#2C256C"/>
	</linearGradient>
	<path class="st7" d="M312,389.4l16.5-16.5l-4.9-4.9c-1.6-1.6-3.8-2.5-6-2.5c-0.5,0-1.1,0.1-1.6,0.2c-1.6,0.3-3.1,1.1-4.4,2.3
		L299,380.7l0.9,0.9c5.4,5.4,5.4,14.2,0,19.6l-19.9,19.9l4.1,4.1c1.6,1.6,3.8,2.5,6,2.5c1.1,0,2.2-0.2,3.2-0.6c1-0.4,2-1,2.8-1.9
		l16-16l-0.1-0.1C306.6,403.6,306.6,394.8,312,389.4z"/>
	
		<linearGradient id="SVGID_6_" gradientUnits="userSpaceOnUse" x1="1563.2441" y1="-3254.0376" x2="1704.0138" y2="-3254.0376" gradientTransform="matrix(0.7071 -0.7071 0.7071 0.7071 1450.4043 3852.0857)">
		<stop  offset="0" style="stop-color:#754FA0"/>
		<stop  offset="0.1807" style="stop-color:#6E4A99"/>
		<stop  offset="0.4566" style="stop-color:#5C3F8B"/>
		<stop  offset="0.7913" style="stop-color:#413079"/>
		<stop  offset="1" style="stop-color:#2C256C"/>
	</linearGradient>
	<path class="st8" d="M312,389.4l16.5-16.5l-4.9-4.9c-1.6-1.6-3.8-2.5-6-2.5c-0.5,0-1.1,0.1-1.6,0.2c-1.6,0.3-3.1,1.1-4.4,2.3
		L299,380.7l0.9,0.9c5.4,5.4,5.4,14.2,0,19.6l-19.9,19.9l4.1,4.1c1.6,1.6,3.8,2.5,6,2.5c1.1,0,2.2-0.2,3.2-0.6c1-0.4,2-1,2.8-1.9
		l16-16l-0.1-0.1C306.6,403.6,306.6,394.8,312,389.4z"/>
	<path class="st4" d="M296.2,425.2L296.2,425.2c-0.8,0.8-1.8,1.4-2.8,1.9C294.4,426.7,295.3,426.1,296.2,425.2z"/>
	
		<linearGradient id="SVGID_7_" gradientUnits="userSpaceOnUse" x1="1563.2441" y1="-3239.6428" x2="1704.0138" y2="-3239.6428" gradientTransform="matrix(0.7071 -0.7071 0.7071 0.7071 1450.4043 3852.0857)">
		<stop  offset="0" style="stop-color:#623393"/>
		<stop  offset="0.5738" style="stop-color:#452B7C"/>
		<stop  offset="1" style="stop-color:#2C256C"/>
	</linearGradient>
	<path class="st9" d="M296.2,425.2L296.2,425.2c-0.8,0.8-1.8,1.4-2.8,1.9C294.4,426.7,295.3,426.1,296.2,425.2z"/>
	<path class="st4" d="M280.1,421.1L280.1,421.1l4.1,4.1c1.6,1.6,3.8,2.5,6,2.5c-2.2,0-4.3-0.8-6-2.5L280.1,421.1z"/>
	
		<linearGradient id="SVGID_8_" gradientUnits="userSpaceOnUse" x1="1563.2441" y1="-3247.686" x2="1704.0138" y2="-3247.686" gradientTransform="matrix(0.7071 -0.7071 0.7071 0.7071 1450.4043 3852.0857)">
		<stop  offset="0" style="stop-color:#623393"/>
		<stop  offset="0.5738" style="stop-color:#452B7C"/>
		<stop  offset="1" style="stop-color:#2C256C"/>
	</linearGradient>
	<path class="st10" d="M280.1,421.1L280.1,421.1l4.1,4.1c1.6,1.6,3.8,2.5,6,2.5c-2.2,0-4.3-0.8-6-2.5L280.1,421.1z"/>
	<path class="st4" d="M311.8,368L311.8,368c1.2-1.2,2.8-2,4.4-2.3C314.5,366,313,366.8,311.8,368z"/>
	
		<linearGradient id="SVGID_9_" gradientUnits="userSpaceOnUse" x1="1563.2441" y1="-3268.0432" x2="1704.0138" y2="-3268.0432" gradientTransform="matrix(0.7071 -0.7071 0.7071 0.7071 1450.4043 3852.0857)">
		<stop  offset="0" style="stop-color:#623393"/>
		<stop  offset="0.5738" style="stop-color:#452B7C"/>
		<stop  offset="1" style="stop-color:#2C256C"/>
	</linearGradient>
	<path class="st11" d="M311.8,368L311.8,368c1.2-1.2,2.8-2,4.4-2.3C314.5,366,313,366.8,311.8,368z"/>
	<path class="st5" d="M236.5,411.7c-1-1-1.9-2.1-2.6-3.2c-0.1-0.2-0.2-0.4-0.3-0.6l-5.2,5.2c-5.4,5.4-5.4,14.2,0,19.6l10.2,10.2
		c4.4,4.4,10.9,5.2,16.2,2.5c1.3-0.6,2.4-1.5,3.5-2.5l3.3-3.3l1.2-1.2l0.4-0.4L236.5,411.7z"/>
	<path class="st6" d="M270.1,421.6c-1.2-1.2-2.1-2.4-2.8-3.8c-2.2-4.1-2.4-9-0.6-13.3c0.2-0.5,0.4-0.9,0.6-1.4
		c0.7-1.4,1.7-2.7,2.8-3.8l0,0l23.7-23.7l-4.1-4.1c-5.4-5.4-14.2-5.4-19.6,0l-36.4,36.4c0,0.2,0.1,0.5,0.2,0.7
		c0.7,1.1,1.6,2.2,2.6,3.2l26.5,26.5l11.9-11.9L270.1,421.6z"/>
	<path class="st6" d="M266.7,404.4c-1.7,4.3-1.5,9.2,0.6,13.3C265.1,413.6,264.9,408.7,266.7,404.4z"/>
	<path class="st6" d="M280.1,421.1l19.9-19.9c5.4-5.4,5.4-14.2,0-19.6l-0.9-0.9l-23.7,23.7c-0.8,0.8-1.4,1.8-1.9,2.8
		c-0.4,1-0.6,2.1-0.6,3.2c0,2.2,0.8,4.3,2.5,6L280.1,421.1z"/>
	<path class="st6" d="M275.3,416.4c-1.6-1.6-2.5-3.8-2.5-6C272.9,412.5,273.7,414.7,275.3,416.4l4.8,4.8l0,0L275.3,416.4z"/>
	<path class="st6" d="M275.3,404.4c-0.8,0.8-1.4,1.8-1.9,2.8C273.9,406.2,274.5,405.2,275.3,404.4L275.3,404.4z"/>
	<path class="st5" d="M328.6,372.9L312,389.4c-5.4,5.4-5.4,14.2,0,19.6l0.1,0.1l20.4-20.4c1.2-1.2,2-2.8,2.3-4.4
		c0.1-0.5,0.2-1.1,0.2-1.6c0-2.2-0.8-4.3-2.5-6L328.6,372.9z"/>
	<path class="st5" d="M332.6,388.8c1.2-1.2,2-2.8,2.3-4.4C334.6,386.1,333.8,387.6,332.6,388.8L332.6,388.8z"/>
	<path class="st12" d="M332.6,376.9c1.6,1.6,2.5,3.8,2.5,6C335.1,380.7,334.2,378.5,332.6,376.9l-4-4l0,0L332.6,376.9z"/>
	<path class="st12" d="M337.8,394c1.5-1.5,2.7-3.3,3.5-5.2C340.5,390.7,339.3,392.5,337.8,394L337.8,394z"/>
	<path class="st12" d="M341.3,388.8c0.2-0.5,0.4-1,0.5-1.4c1.6-5.4,0.3-11.4-4-15.7l-4-4l-5.2,5.2l4,4c1.6,1.6,2.5,3.8,2.5,6
		c0,0.5-0.1,1.1-0.2,1.6c-0.3,1.6-1.1,3.1-2.3,4.4l0,0l-20.4,20.4l5.2,5.2l20.4-20.4C339.3,392.5,340.5,390.7,341.3,388.8z"/>
	<path class="st12" d="M383.6,357.9l-10.2-10.2c-5.1-5.1-13.2-5.4-18.6-0.9c-0.3,0.3-0.7,0.6-1,0.9l-6.6,6.6l-1.2,1.2l0,0l24.4,24.4
		c0.6,0.6,1.2,1.3,1.7,2c1.1,1.4,2,3,2.6,4.6l8.9-8.9C389.1,372.1,389.1,363.3,383.6,357.9z"/>
	<path class="st5" d="M337.8,371.7c4.2,4.2,5.6,10.3,4,15.7c-0.1,0.5-0.3,1-0.5,1.4c-0.8,1.9-1.9,3.7-3.5,5.2l0,0l-20.4,20.4
		l4.8,4.8c5.4,5.4,14.2,5.4,19.7,0l31-31c-0.2-2.1-0.5-4.3-0.9-6.4c-0.5-0.7-1.1-1.4-1.7-2L346,355.5l-12.2,12.2L337.8,371.7z"/>
	<path class="st5" d="M337.8,371.7c4.2,4.2,5.6,10.3,4,15.7C343.4,382,342,375.9,337.8,371.7l-4-4l0,0L337.8,371.7z"/>
</g>
</svg>
