<?xml version="1.0" encoding="utf-8"?>
<!-- Generator: Adobe Illustrator 28.0.0, SVG Export Plug-In . SVG Version: 6.00 Build 0)  -->
<svg version="1.1" id="Layer_1" xmlns="http://www.w3.org/2000/svg" xmlns:xlink="http://www.w3.org/1999/xlink" x="0px" y="0px"
	 width="500px" height="500px" viewBox="0 0 500 500" style="enable-background:new 0 0 500 500;" xml:space="preserve">
<style type="text/css">
	.st0{fill:#93EAFF;}
	.st1{fill:#0086FF;}
	.st2{fill:#FFFFFF;}
	.st3{opacity:0.8;}
	.st4{opacity:0.8;fill:#FFFFFF;}
</style>
<g>
	<polygon class="st4" points="166.4,71.8 166.6,72 229.1,72 228.9,71.8 333.6,71.8 333.6,0 166.4,0 166.4,71.8 	"/>
	<path class="st2" d="M177.6,113l6.7-20.6c0.5-1.6-0.3-3.2-1.9-3.7c-1.6-0.5-3.2,0.3-3.7,1.9l-7.3,22.5c0.2,0,0.5,0,0.7,0H177.6z"/>
	<path class="st2" d="M241.4,92.1c0.5-1.6-0.3-3.2-1.9-3.7c-1.6-0.5-3.2,0.3-3.7,1.9l-8.4,26l5.6,2L241.4,92.1z"/>
	<path class="st2" d="M228.3,122.9c0.1,0,0.2,0,0.3,0.1l-0.8-0.3C227.9,122.8,228.1,122.9,228.3,122.9z"/>
	<path class="st2" d="M227.8,122.7c-1.2-0.7-1.9-2.1-1.4-3.5l1-2.9l-8.7-3.1c-0.3-0.1-0.7-0.2-1-0.2h-9.9l5.9,5.9h3.5L227.8,122.7z"
		/>
	<path class="st2" d="M172.6,118.8c1.6,0.5,3.2-0.3,3.7-1.9l1.3-3.9h-5.5c-0.2,0-0.5,0-0.7,0l-0.7,2
		C170.2,116.6,171.1,118.3,172.6,118.8z"/>
	<path class="st2" d="M227.8,122.7l0.8,0.3c1.5,0.3,3-0.5,3.4-2l0.9-2.8l-5.6-2l-1,2.9C225.9,120.6,226.5,122.1,227.8,122.7z"/>
	<g>
		<path class="st2" d="M429,167c2.7,0,71,0,71,0v0L429,167L429,167z"/>
		<path class="st2" d="M71.1,428.2c0,0,0-0.1,0-0.2H71v-95H0v167h166.4v-71.8H71.1z"/>
		<polygon class="st2" points="429,428 428.9,428 428.9,428.2 333.6,428.2 333.6,500 500,500 500,333.1 429,333.1 		"/>
		<polygon class="st2" points="71,167 71,72 71.1,72 71.1,71.8 166.4,71.8 166.4,0 0,0 0,167 		"/>
		<polygon class="st2" points="333.6,0 333.6,71.8 428.9,71.8 428.9,72 429,72 429,167 500,167 500,0 		"/>
		<polygon class="st4" points="270.1,428 270.3,428.2 166.4,428.2 166.4,500 333.6,500 333.6,428 		"/>
		<path class="st4" d="M429,333h71V167c0,0-68.3,0-71,0V333z"/>
		<rect x="429" y="333" class="st2" width="71" height="0.1"/>
		<polygon class="st2" points="233.8,391.1 236.8,394 237.4,393.6 		"/>
		<path class="st2" d="M428.2,333.1h0.8V333L428.2,333.1C428.1,333,428.1,333.1,428.2,333.1z"/>
		<path class="st2" d="M130.4,307.6c-1.9,6,1.3,12.4,7.3,14.3c1.6,0.5,3.2-0.3,3.7-1.9c0.5-1.6-0.3-3.2-1.9-3.7
			c-2.9-0.9-4.4-4-3.5-6.9l3.7-11.5l-4.7-4.7L130.4,307.6z"/>
		<path class="st2" d="M143.8,276c-1.6-0.5-3.2,0.3-3.7,1.9l-5,15.3l4.7,4.7l5.9-18.2C146.2,278.2,145.3,276.5,143.8,276z"/>
		<path class="st2" d="M121.3,281.2l-4.4,13.6c-1.9,6,1.3,12.4,7.3,14.3c1.6,0.5,3.2-0.3,3.7-1.9c0.5-1.6-0.3-3.2-1.9-3.7
			c-2.9-0.9-4.4-4-3.5-6.9l3.9-12.1l-4.5-4.5C121.6,280.4,121.4,280.8,121.3,281.2z"/>
		<path class="st2" d="M125,279.3c-1.1-0.4-2.3,0-3.1,0.8l4.5,4.5l0.5-1.5C127.4,281.5,126.5,279.8,125,279.3z"/>
		<path class="st2" d="M145.9,209.9c0.2-0.3,0.4-0.6,0.5-0.9l7.4-22.7l-6.2,0l-6.6,20.4l-12.7,16.5l4.2,4.2L145.9,209.9z"/>
		<path class="st2" d="M105.6,275l3.3,2.4c1.3,1,1.6,2.8,0.7,4.1c-1,1.3-2.8,1.6-4.1,0.7l-1.7-1.2c-1.5,5.8,1.8,11.8,7.5,13.6
			c1.6,0.5,3.2-0.3,3.7-1.9c0.5-1.6-0.3-3.2-1.9-3.7c-2.9-0.9-4.4-4-3.5-6.9l3.5-10.9l-4.7-4.7L105.6,275z"/>
		<path class="st2" d="M130.8,229.7l1.7-2.2l-4.2-4.2l-0.6,0.8l2.4,1.7C131.2,226.7,131.5,228.4,130.8,229.7z"/>
		<path class="st2" d="M130.3,230.3c-1,1-2.6,1.1-3.8,0.3l-2.5-1.8l-5.6,7.3c-0.2,0.3-0.4,0.6-0.5,0.9l-9.6,29.5l4.7,4.7l10.4-31.9
			L130.3,230.3z"/>
		<path class="st2" d="M209.5,180.4c0.1,0,0.2,0,0.3,0C209.7,180.4,209.6,180.4,209.5,180.4z"/>
		<path class="st2" d="M211.9,181.9c0,0.1,0.1,0.2,0.1,0.2C212,182,211.9,182,211.9,181.9z"/>
		<path class="st2" d="M212.1,182.4c0,0.1,0.1,0.2,0.1,0.3C212.2,182.6,212.1,182.5,212.1,182.4z"/>
		<path class="st2" d="M209.3,186.3l-4.1,0l-16.6,51.1c-0.3,0.9-0.1,1.8,0.4,2.6l10.5,15.1l0.4,20.6l6,4.4l-0.6-26
			c0-0.6-0.2-1.1-0.5-1.6l-10.2-14.7l9-27.7l-1.4,0.5c-0.3,0.1-0.7,0.2-1,0.2c-1.2,0-2.4-0.8-2.8-2c-0.5-1.5,0.3-3.2,1.8-3.8l5.6-2
			l6.1-18.8c0-0.1,0-0.1,0-0.2C211.9,185.4,210.7,186.3,209.3,186.3z"/>
		<path class="st2" d="M212.3,183.5c0,0.1,0,0.2,0,0.3C212.3,183.7,212.3,183.6,212.3,183.5z"/>
		<path class="st2" d="M212.3,182.9c0,0.1,0,0.2,0,0.3C212.3,183.1,212.3,183,212.3,182.9z"/>
		<path class="st2" d="M210.3,180.6c0,0-0.1,0-0.1,0c0.1,0,0.2,0,0.2,0.1C210.3,180.6,210.3,180.6,210.3,180.6z"/>
		<path class="st2" d="M210.7,180.7c0.1,0,0.2,0.1,0.2,0.1C210.8,180.8,210.7,180.8,210.7,180.7z"/>
		<path class="st2" d="M211.1,181c0.1,0.1,0.1,0.1,0.2,0.2C211.3,181.1,211.2,181.1,211.1,181z"/>
		<path class="st2" d="M211.5,181.4c0.1,0.1,0.1,0.1,0.2,0.2C211.7,181.6,211.6,181.5,211.5,181.4z"/>
		<path class="st2" d="M179.8,265c-0.1,0.1-0.1,0.2-0.2,0.3C179.7,265.2,179.7,265.1,179.8,265z"/>
		<path class="st2" d="M180.6,264.1c-0.1,0.1-0.2,0.1-0.2,0.2C180.4,264.3,180.5,264.2,180.6,264.1z"/>
		<path class="st2" d="M179.5,265.5c0,0.1,0,0.1-0.1,0.1l0,0l-13,40.2c0,5.3,0,10,0,13.4l1.5,1.1l15.9-49l-3.3-2.4
			C179.4,268.2,179,266.7,179.5,265.5z"/>
		<path class="st2" d="M179.9,264.8c0.1-0.1,0.1-0.2,0.2-0.2C180.1,264.6,180,264.7,179.9,264.8z"/>
		<path class="st2" d="M161.9,320L161.9,320l-2.1,6.4c-0.9,2.9-4,4.4-6.9,3.5c-2.9-0.9-4.4-4-3.5-6.9l3.8-11.7l-4.7-4.7l-4.7,14.6
			c-1.9,6,1.3,12.4,7.3,14.3s12.4-1.3,14.3-7.3l0.6-2l-3.3-2.4C161.5,323,161.2,321.3,161.9,320z"/>
		<path class="st2" d="M181.9,263.7c0.1,0,0.2,0,0.3,0C182.1,263.6,182,263.6,181.9,263.7z"/>
		<path class="st2" d="M181.1,263.9c-0.1,0-0.2,0.1-0.3,0.1C180.9,264,181,263.9,181.1,263.9z"/>
		<path class="st2" d="M183.1,263.7c0.1,0,0.2,0.1,0.2,0.1c0,0-0.1,0-0.1-0.1C183.1,263.8,183.1,263.8,183.1,263.7z"/>
		<path class="st2" d="M183.9,264.1c-0.1-0.1-0.2-0.1-0.3-0.1C183.7,264,183.8,264.1,183.9,264.1z"/>
		<path class="st2" d="M181.6,263.7c-0.1,0-0.2,0-0.3,0.1C181.4,263.7,181.5,263.7,181.6,263.7z"/>
		<path class="st2" d="M182.8,263.7c-0.1,0-0.2,0-0.3,0C182.6,263.6,182.7,263.7,182.8,263.7z"/>
		<path class="st2" d="M161.9,320c0.1-0.1,0.1-0.2,0.2-0.3c1-1.3,2.8-1.6,4.1-0.7l0.2,0.2c0-3.4,0-8.1,0-13.4L161.9,320L161.9,320z"
			/>
		<path class="st2" d="M164.5,276.4c0.5-1.6-0.3-3.2-1.9-3.7c-1.6-0.5-3.2,0.3-3.7,1.9l-10.4,32l4.7,4.7L164.5,276.4z"/>
		<path class="st2" d="M286.8,381.4c2-0.8,3.8-2.1,5.1-3.9c1-1.3,0.7-3.2-0.7-4.1c-1.3-1-3.2-0.7-4.1,0.7c-1.3,1.8-3.5,2.6-5.6,2.1
			c2.7,2.7,4.4,4.4,4.4,4.4L286.8,381.4z"/>
		<path class="st2" d="M254.2,356.9c-1.3-1-3.2-0.7-4.1,0.7c-1,1.3-0.7,3.2,0.7,4.1L276,380c3.2,2.4,7.3,2.7,10.8,1.4l-0.9-0.8
			c0,0-1.7-1.7-4.4-4.4c-0.7-0.2-1.4-0.5-2-0.9L254.2,356.9z"/>
		<path class="st2" d="M274.9,382.4c-1.3-1-3.2-0.7-4.1,0.7c-1.8,2.4-5.2,3-7.6,1.2l-11.6-8.4c-1.3-1-3.2-0.7-4.1,0.7
			c-1,1.3-0.7,3.2,0.7,4.1l11.6,8.4c5.1,3.7,12.2,2.6,15.9-2.5C276.6,385.2,276.3,383.3,274.9,382.4z"/>
		<polygon class="st2" points="176.9,334.2 175.8,333 185.4,333 167.9,320.3 166,326.3 		"/>
		<path class="st2" d="M201.6,359.9l-2.5,1.8l5.2,7.6c0.2,0.3,0.4,0.5,0.7,0.7l28.9,21l-31.7-31.7
			C202,359.6,201.8,359.8,201.6,359.9z"/>
		<polygon class="st2" points="187.2,344.4 195.7,356.9 198,355.2 		"/>
		<path class="st2" d="M202.1,359.4l31.7,31.7l3.5,2.6l3.3-2.4c1.3-1,3.2-0.7,4.1,0.7c1,1.3,0.7,3.2-0.7,4.1l-1.7,1.2
			c5,3.2,11.7,2,15.3-2.9c1-1.3,0.7-3.2-0.7-4.1c-1.3-1-3.2-0.7-4.1,0.7c-1.8,2.4-5.2,3-7.6,1.2l-36.4-26.5l-6.4-9.3
			C203,357.3,202.8,358.5,202.1,359.4z"/>
		<path class="st2" d="M176.9,334.2l6.4,4.7l3.8,5.6l10.8,10.8l0.1-0.1c1.2-0.9,2.9-0.7,3.9,0.4l-14.1-20.5
			c-0.2-0.3-0.4-0.5-0.7-0.7l-1.8-1.3h-9.6L176.9,334.2z"/>
		<path class="st2" d="M166.4,324.5l-4.5-4.5c-0.7,1.3-0.4,3,0.8,3.8l3.3,2.4l1.9-5.9l-1.5-1.1C166.4,322.5,166.4,324.5,166.4,324.5
			z"/>
		<path class="st2" d="M162.1,319.7c-0.1,0.1-0.1,0.2-0.2,0.3l4.5,4.5c0,0,0-2,0-5.3l-0.2-0.2C164.9,318.1,163,318.4,162.1,319.7z"
			/>
		<path class="st2" d="M105.6,275L88,262.3c-1.3-1-3.2-0.7-4.1,0.7c-1,1.3-0.7,3.2,0.7,4.1l19.1,13.9c0.1-0.2,0.1-0.5,0.2-0.7
			L105.6,275z"/>
		<path class="st2" d="M109.5,281.5c1-1.3,0.7-3.2-0.7-4.1l-3.3-2.4l-1.7,5.2c-0.1,0.2-0.1,0.5-0.2,0.7l1.7,1.2
			C106.7,283.2,108.5,282.9,109.5,281.5z"/>
		<path class="st2" d="M105.4,207.9c-1.3-1-3.2-0.7-4.1,0.7c-1,1.3-0.7,3.2,0.7,4.1l22.1,16l3.6-4.7L105.4,207.9z"/>
		<path class="st2" d="M130.6,229.9c0.1-0.1,0.1-0.2,0.1-0.3l-0.5,0.6C130.4,230.2,130.5,230,130.6,229.9z"/>
		<path class="st2" d="M130.3,230.3l0.5-0.6c0.8-1.3,0.4-3-0.8-3.9l-2.4-1.7l-3.6,4.7l2.5,1.8C127.7,231.4,129.3,231.3,130.3,230.3z
			"/>
		<path class="st2" d="M181.4,263.8c-0.1,0-0.2,0.1-0.3,0.1C181.2,263.8,181.3,263.8,181.4,263.8z"/>
		<path class="st2" d="M180.2,264.5c0.1-0.1,0.1-0.1,0.2-0.2C180.3,264.4,180.2,264.4,180.2,264.5z"/>
		<path class="st2" d="M182.2,263.6c0.1,0,0.2,0,0.3,0C182.4,263.6,182.3,263.6,182.2,263.6z"/>
		<path class="st2" d="M181.9,263.7c-0.1,0-0.2,0-0.3,0C181.7,263.7,181.8,263.7,181.9,263.7z"/>
		<path class="st2" d="M180.8,264c-0.1,0-0.2,0.1-0.2,0.1C180.7,264.1,180.8,264,180.8,264z"/>
		<path class="st2" d="M179.8,265c0-0.1,0.1-0.1,0.1-0.2c0,0-0.1,0.1-0.1,0.1C179.8,264.9,179.8,264.9,179.8,265z"/>
		<path class="st2" d="M183.6,264c-0.1,0-0.2-0.1-0.3-0.1C183.4,263.9,183.5,263.9,183.6,264z"/>
		<path class="st2" d="M179.6,265.2c0,0.1-0.1,0.2-0.1,0.3C179.6,265.4,179.6,265.3,179.6,265.2z"/>
		<path class="st2" d="M183.1,263.7c-0.1,0-0.2-0.1-0.3-0.1C182.9,263.7,183,263.7,183.1,263.7z"/>
		<path class="st2" d="M248.4,292.2c-0.6-0.2-1.1-0.2-1.7,0l-17.1,5.1L206,280.2l0,1.5c0,0.3,0,0.7-0.1,1c-0.4,1.2-1.5,2-2.7,2
			c-1.6,0-3-1.3-3-2.9l-0.1-6l-16-11.6c0,0-0.1-0.1-0.1-0.1c1.1,0.7,1.6,2.1,1.2,3.4l-1.3,3.9l43.5,31.6c0.7,0.5,1.7,0.7,2.6,0.4
			l17.6-5.3l19.8,6l6-4.4L248.4,292.2z"/>
		<path class="st2" d="M200.1,281.8c0,1.6,1.4,2.9,3,2.9c1.3,0,2.4-0.9,2.7-2c0.1-0.3,0.2-0.6,0.1-1l0-1.5l-6-4.4L200.1,281.8z"/>
		<path class="st2" d="M183.9,264.1c-0.1-0.1-0.2-0.1-0.3-0.1c-0.1,0-0.2-0.1-0.3-0.1c-0.1,0-0.2-0.1-0.2-0.1
			c-0.1,0-0.2-0.1-0.3-0.1c-0.1,0-0.2,0-0.3,0c-0.1,0-0.2,0-0.3,0c-0.1,0-0.2,0-0.3,0c-0.1,0-0.2,0-0.3,0c-0.1,0-0.2,0-0.3,0.1
			c-0.1,0-0.2,0.1-0.3,0.1c-0.1,0-0.2,0.1-0.3,0.1c-0.1,0-0.2,0.1-0.2,0.1c-0.1,0.1-0.2,0.1-0.2,0.2c-0.1,0.1-0.1,0.1-0.2,0.2
			c-0.1,0.1-0.2,0.2-0.2,0.2c-0.1,0.1-0.1,0.1-0.1,0.2c-0.1,0.1-0.1,0.2-0.2,0.3c0,0.1-0.1,0.2-0.1,0.3c-0.5,1.2-0.1,2.6,1,3.5
			l3.3,2.4l1.3-3.9C185.5,266.2,185,264.8,183.9,264.1z"/>
		<path class="st2" d="M250.1,318.6c0-0.1,0-0.2,0-0.3C250.1,318.4,250.1,318.5,250.1,318.6z"/>
		<path class="st2" d="M250.1,318c0-0.1,0-0.2,0-0.3C250.1,317.8,250.1,317.9,250.1,318z"/>
		<path class="st2" d="M251,316c0.1-0.1,0.1-0.1,0.2-0.2C251.1,315.8,251,315.9,251,316z"/>
		<path class="st2" d="M250.3,319.2c0-0.1-0.1-0.2-0.1-0.3C250.2,319,250.3,319.1,250.3,319.2z"/>
		<path class="st2" d="M250.6,316.3C250.6,316.3,250.6,316.4,250.6,316.3c0,0,0,0,0.1-0.1C250.7,316.2,250.7,316.3,250.6,316.3z"/>
		<path class="st2" d="M250.1,317.5c0-0.1,0-0.2,0.1-0.3C250.2,317.3,250.2,317.4,250.1,317.5z"/>
		<path class="st2" d="M250.6,319.7c-0.1-0.1-0.1-0.2-0.2-0.3C250.5,319.5,250.5,319.6,250.6,319.7z"/>
		<path class="st2" d="M250.3,316.9c0-0.1,0.1-0.2,0.1-0.2C250.4,316.8,250.3,316.8,250.3,316.9z"/>
		<path class="st2" d="M251,320.1c-0.1-0.1-0.1-0.2-0.2-0.2C250.8,320,250.9,320.1,251,320.1z"/>
		<path class="st2" d="M297.4,353.7c-1-1.3-0.7-3.2,0.7-4.1l1.7-1.3L258.1,318l-3.3,2.4c-1.1,0.8-2.6,0.7-3.6-0.1
			c0,0,0.1,0.1,0.1,0.1l0,0l51.7,37.5c2.4,1.8,3,5.2,1.2,7.6c-1.8,2.4-5.2,3-7.6,1.2L256.9,338c-1.3-1-3.2-0.7-4.1,0.7
			c-1,1.3-0.7,3.2,0.7,4.1l39.6,28.8c5.1,3.7,12.2,2.6,15.9-2.5c3.7-5.1,2.6-12.2-2.5-15.9l-1.7-1.2l-3.3,2.4
			C300.2,355.3,298.3,355,297.4,353.7z"/>
		<path class="st2" d="M145.9,161.1c1.6,0,3-1.3,3-3c0-3,2.5-5.5,5.5-5.5h31.2c1.6,0,3-1.3,3-3c0-1.6-1.3-3-3-3h-31.2
			c-6.3,0-11.4,5.1-11.4,11.4C143,159.8,144.3,161.1,145.9,161.1z"/>
		<path class="st2" d="M153.8,144.2c1.6,0,3-1.3,3-3c0-3,2.5-5.5,5.5-5.5h14.3c1.6,0,3-1.3,3-3c0-1.6-1.3-3-3-3h-14.3
			c-6.3,0-11.4,5.1-11.4,11.4C150.9,142.9,152.2,144.2,153.8,144.2z"/>
		<path class="st2" d="M177.6,113l-1.3,3.9c-0.5,1.6-2.2,2.4-3.7,1.9c-1.6-0.5-2.4-2.2-1.9-3.7l0.7-2c-5.9,0.4-10.7,5.3-10.7,11.3
			c0,1.6,1.3,3,3,3c1.6,0,3-1.3,3-3c0-3,2.5-5.5,5.5-5.5h41.5l-5.9-5.9H177.6z"/>
		<path class="st2" d="M228.5,123l23.4,8.3c0.3,0.1,0.7,0.2,1,0.2h23.9l-1.9-5.9h-21.4l-20.6-7.3L232,121
			C231.5,122.5,230,123.3,228.5,123z"/>
		<path class="st2" d="M353.9,131.5h21.7c1.6,0,3-1.3,3-3c0-1.6-1.3-3-3-3H352c0.1,0.2,0.2,0.4,0.3,0.7L353.9,131.5z"/>
		<path class="st2" d="M360.2,182.7c0,0.1,0,0.2,0,0.3l0-0.8C360.2,182.4,360.2,182.5,360.2,182.7z"/>
		<path class="st2" d="M393.5,185.7c1.6,0,3-1.3,3-3c0-1.6-1.3-3-3-3h-27.3l-0.2,5.9H393.5z"/>
		<path class="st2" d="M298.6,185.7c-0.1,0.1-0.2,0.1-0.2,0.2C298.5,185.9,298.6,185.8,298.6,185.7z"/>
		<path class="st2" d="M299.8,183.4c0,0,0-0.1,0-0.1c0,0.1,0,0.2,0,0.3C299.8,183.5,299.8,183.4,299.8,183.4z"/>
		<path class="st2" d="M299.8,183.8c0,0.1,0,0.2,0,0.3C299.7,184,299.7,183.9,299.8,183.8z"/>
		<path class="st2" d="M294,184.3l-1.3-3.9H239c-0.9,0-1.8,0.4-2.4,1.2l-11.2,14.6l-19.5,6.8l-2.3,7.1l24.6-8.6c0.5-0.2,1-0.5,1.4-1
			l10.8-14.2h29.2l-0.9-1.2c-0.2-0.3-0.4-0.6-0.5-0.9c-0.4-1.2,0-2.5,1-3.3c1.3-1,3.2-0.7,4.1,0.6l3.6,4.7h19.7c0.1,0,0.1,0,0.2,0
			C295.7,186.4,294.5,185.6,294,184.3z"/>
		<path class="st2" d="M297.6,186.2c-0.1,0-0.2,0.1-0.3,0.1C297.4,186.3,297.5,186.3,297.6,186.2z"/>
		<path class="st2" d="M299.4,184.9c0,0.1-0.1,0.2-0.1,0.2C299.3,185.1,299.3,185,299.4,184.9z"/>
		<path class="st2" d="M299.7,182.6c0,0.1,0,0.2,0.1,0.3C299.7,182.8,299.7,182.7,299.7,182.6z"/>
		<path class="st2" d="M299.6,184.4c0,0.1-0.1,0.2-0.1,0.3C299.6,184.6,299.6,184.5,299.6,184.4z"/>
		<path class="st2" d="M298.2,186c-0.1,0-0.2,0.1-0.3,0.1C298,186.1,298.1,186.1,298.2,186z"/>
		<path class="st2" d="M299,185.4c-0.1,0.1-0.1,0.1-0.2,0.2C298.9,185.5,299,185.4,299,185.4z"/>
		<path class="st2" d="M198.6,208.8c0.4,1.2,1.6,2,2.8,2c0.3,0,0.7-0.1,1-0.2l1.4-0.5l2.3-7.1l-5.6,2
			C198.9,205.6,198.1,207.3,198.6,208.8z"/>
		<path class="st2" d="M212.2,183.8c0,0.1,0,0.2-0.1,0.3C212.2,184,212.2,183.9,212.2,183.8z"/>
		<path class="st2" d="M212.2,182.7c0,0.1,0,0.2,0,0.3C212.2,182.8,212.2,182.8,212.2,182.7z"/>
		<path class="st2" d="M211.7,181.6c0.1,0.1,0.1,0.2,0.2,0.3C211.8,181.8,211.8,181.7,211.7,181.6z"/>
		<path class="st2" d="M211.3,181.2c0.1,0.1,0.1,0.1,0.2,0.2C211.5,181.3,211.4,181.3,211.3,181.2z"/>
		<path class="st2" d="M212.3,183.4c0,0,0-0.1,0-0.1c0,0.1,0,0.2,0,0.3C212.3,183.5,212.3,183.4,212.3,183.4z"/>
		<path class="st2" d="M152.5,180.6c1.6,0.5,2.4,2.2,1.9,3.7l-0.7,2l51.5,0l1.3-3.9c0.4-1.3,1.7-2.1,3-2c-0.1,0-0.1,0-0.2,0h0
			l-63.9,0c-3,0-5.5-2.5-5.5-5.5c0-3,2.5-5.5,5.5-5.5h49c1.6,0,3-1.3,3-3c0-1.6-1.3-3-3-3h-49c-6.3,0-11.4,5.1-11.4,11.4
			s5.1,11.4,11.4,11.4l2.1,0l1.3-3.9C149.3,180.9,151,180.1,152.5,180.6z"/>
		<path class="st2" d="M210.9,180.9c0.1,0.1,0.2,0.1,0.2,0.2C211.1,181,211,180.9,210.9,180.9z"/>
		<path class="st2" d="M212,182.1c0,0.1,0.1,0.2,0.1,0.3C212.1,182.3,212.1,182.2,212,182.1z"/>
		<path class="st2" d="M209.8,180.5c0.1,0,0.2,0,0.3,0.1C210,180.5,209.9,180.5,209.8,180.5z"/>
		<path class="st2" d="M210.4,180.6c0.1,0,0.2,0.1,0.3,0.1C210.6,180.7,210.5,180.6,210.4,180.6z"/>
		<path class="st2" d="M154.4,184.3c0.5-1.6-0.3-3.2-1.9-3.7c-1.6-0.5-3.2,0.3-3.7,1.9l-1.3,3.9l6.2,0L154.4,184.3z"/>
		<path class="st2" d="M206.5,182.5l-1.3,3.9l4.1,0c1.4,0,2.5-0.9,2.8-2.2c0-0.1,0-0.2,0.1-0.3c0-0.1,0-0.2,0-0.3c0-0.1,0-0.2,0-0.3
			c0-0.1,0-0.2,0-0.3c0-0.1,0-0.2,0-0.3c0-0.1-0.1-0.2-0.1-0.3c0-0.1-0.1-0.2-0.1-0.3c0-0.1-0.1-0.2-0.1-0.2c0-0.1-0.1-0.2-0.2-0.3
			c-0.1-0.1-0.1-0.1-0.2-0.2c-0.1-0.1-0.1-0.1-0.2-0.2c-0.1-0.1-0.1-0.1-0.2-0.2c-0.1-0.1-0.2-0.1-0.2-0.2c-0.1,0-0.2-0.1-0.2-0.1
			c-0.1,0-0.2-0.1-0.3-0.1c-0.1,0-0.2-0.1-0.2-0.1c-0.1,0-0.2-0.1-0.3-0.1c-0.1,0-0.2,0-0.3,0C208.2,180.4,206.9,181.2,206.5,182.5z
			"/>
		<path class="st2" d="M302.2,118.1c2.9-0.9,6,0.6,6.9,3.5l9.6,29.6c0.5,1.6,2.2,2.4,3.7,1.9c1.6-0.5,2.4-2.2,1.9-3.7l-9.6-29.6
			c-1.9-6-8.4-9.2-14.3-7.3c-1.6,0.5-2.4,2.2-1.9,3.7C299,117.8,300.6,118.6,302.2,118.1z"/>
		<path class="st2" d="M320.6,120.4c2.9-0.9,6,0.6,6.9,3.5l4.4,13.6c0.5,1.6,2.2,2.4,3.7,1.9c1.6-0.5,2.4-2.2,1.9-3.7l-4.4-13.6
			c-1.9-6-8.4-9.2-14.3-7.3c-1.6,0.5-2.4,2.2-1.9,3.7S319.1,120.9,320.6,120.4z"/>
		<path class="st2" d="M366,185.7h-2.9c-1.5,0-2.8-1.2-2.9-2.7l-0.5,18.5l5.8,5.8L366,185.7z"/>
		<path class="st2" d="M363.1,179.8h3.1l0.2-9.2c0-0.3,0-0.7-0.1-1l-12.4-38.1h-4.1c-1.6,0-3-1.3-3-3c0-1.6,1.3-3,3-3h2.1
			c-2.2-5.5-8.3-8.5-14.1-6.6c-1.6,0.5-2.4,2.2-1.9,3.7c0.5,1.6,2.2,2.4,3.7,1.9c2.9-0.9,6,0.6,6.9,3.5l13.9,42.8l-0.3,11.3
			C360.5,180.8,361.7,179.8,363.1,179.8z"/>
		<path class="st2" d="M359.7,208.9l7.4,22.7l5-3.7l-6.6-20.4l0-0.2l-5.8-5.8l-0.2,6.3C359.5,208.2,359.6,208.5,359.7,208.9z"/>
		<path class="st2" d="M346.9,128.5c0,1.6,1.3,3,3,3h4.1l-1.7-5.2c-0.1-0.2-0.2-0.5-0.3-0.7h-2.1
			C348.2,125.6,346.9,126.9,346.9,128.5z"/>
		<path class="st2" d="M363.1,185.7h2.9l0.2-5.9h-3.1c-1.5,0-2.7,1.1-2.9,2.5l0,0.8C360.3,184.5,361.6,185.7,363.1,185.7z"/>
		<path class="st2" d="M390.9,304.9l6.7,20.6c0.5,1.6,2.2,2.4,3.7,1.9c1.6-0.5,2.4-2.2,1.9-3.7l-7.3-22.5c-0.2,0.2-0.4,0.3-0.6,0.5
			L390.9,304.9z"/>
		<path class="st2" d="M344.1,326.7c-0.1,0-0.2,0.1-0.3,0.1l0.8-0.2C344.4,326.6,344.2,326.6,344.1,326.7z"/>
		<path class="st2" d="M351.6,359.3c0.5,1.6,2.2,2.4,3.7,1.9c1.6-0.5,2.4-2.2,1.9-3.7l-8.4-26l-5.7,1.7L351.6,359.3z"/>
		<path class="st2" d="M321.9,268.9c0.1,0.1,0.1,0.1,0.2,0.2C322.1,269,322,269,321.9,268.9z"/>
		<path class="st2" d="M325.2,269.3c0.1,0,0.2-0.1,0.3-0.1C325.4,269.2,325.3,269.2,325.2,269.3z"/>
		<path class="st2" d="M321.7,268.7c-0.1-0.1-0.1-0.2-0.2-0.2C321.6,268.5,321.7,268.6,321.7,268.7z"/>
		<path class="st2" d="M322.4,269.2c0.1,0,0.2,0.1,0.2,0.1C322.6,269.3,322.5,269.3,322.4,269.2z"/>
		<path class="st2" d="M324.9,269.4c-0.1,0-0.2,0.1-0.2,0.1c0,0,0.1,0,0.1,0C324.8,269.4,324.9,269.4,324.9,269.4z"/>
		<path class="st2" d="M323.8,269.6c-0.1,0-0.2,0-0.3,0C323.6,269.6,323.7,269.6,323.8,269.6z"/>
		<path class="st2" d="M324.1,269.6c0.1,0,0.2,0,0.3,0C324.2,269.6,324.2,269.6,324.1,269.6z"/>
		<path class="st2" d="M322.9,269.4c0.1,0,0.2,0,0.3,0.1C323.1,269.5,323,269.5,322.9,269.4z"/>
		<path class="st2" d="M285.4,207.1c0.4,0.5,0.8,0.8,1.4,1l16.8,5.9l9,27.7l0.8-1.2c0.2-0.3,0.4-0.5,0.7-0.7c1-0.7,2.4-0.8,3.4,0
			c1.3,0.9,1.7,2.8,0.7,4.1l-3.4,4.9l6.1,18.8c0,0.1,0,0.1,0.1,0.2c-0.5-1.2-0.1-2.7,1-3.5l3.3-2.4l-16.6-51.1
			c-0.3-0.9-1-1.6-1.8-1.9l-17.4-6.1l-12.5-16.4h-7.4L285.4,207.1z"/>
		<path class="st2" d="M321.2,268c0,0.1,0.1,0.2,0.2,0.3C321.3,268.2,321.3,268.1,321.2,268z"/>
		<path class="st2" d="M269.3,181.1c-1,0.8-1.4,2.1-1,3.3c0.1,0.3,0.3,0.6,0.5,0.9l0.9,1.2h7.4l-3.6-4.7
			C272.5,180.3,270.6,180.1,269.3,181.1z"/>
		<path class="st2" d="M279.9,121.8c-0.9-2.9,0.6-6,3.5-6.9c2.9-0.9,6,0.6,6.9,3.5l7.1,21.8l9.2,9.2l-10.6-32.8
			c-1.9-6-8.4-9.3-14.3-7.3c-3.7,1.2-6.4,4.2-7.4,7.7l6.2,6.2L279.9,121.8z"/>
		<path class="st2" d="M299.2,185.1c-0.1,0.1-0.1,0.2-0.2,0.2C299.1,185.3,299.2,185.2,299.2,185.1z"/>
		<path class="st2" d="M299.5,184.6c0,0.1-0.1,0.2-0.1,0.3C299.4,184.8,299.5,184.7,299.5,184.6z"/>
		<path class="st2" d="M297.8,186.2c0,0,0.1,0,0.1,0c-0.1,0-0.2,0.1-0.2,0.1C297.7,186.2,297.7,186.2,297.8,186.2z"/>
		<path class="st2" d="M297.3,186.3c-0.1,0-0.2,0-0.3,0C297.1,186.3,297.2,186.3,297.3,186.3z"/>
		<path class="st2" d="M308.9,167h-1.3C308,167.1,308.5,167.1,308.9,167z"/>
		<path class="st2" d="M292.8,180.4h4.1c1.4,0,2.5,0.9,2.8,2.2c0-0.1,0-0.1,0-0.2l0,0l-5.1-15.5h-6.2L292.8,180.4z"/>
		<path class="st2" d="M299.8,183.5c0,0.1,0,0.2,0,0.3C299.8,183.7,299.8,183.6,299.8,183.5z"/>
		<path class="st2" d="M298.4,185.9c-0.1,0-0.2,0.1-0.2,0.1C298.2,186,298.3,186,298.4,185.9z"/>
		<path class="st2" d="M298.9,185.6c-0.1,0.1-0.1,0.1-0.2,0.2C298.7,185.7,298.8,185.6,298.9,185.6z"/>
		<path class="st2" d="M299.8,182.9c0,0.1,0,0.2,0,0.3C299.8,183.2,299.8,183,299.8,182.9z"/>
		<path class="st2" d="M299.7,184.1c0,0.1-0.1,0.2-0.1,0.3C299.7,184.3,299.7,184.2,299.7,184.1z"/>
		<path class="st2" d="M274.3,123.6l0.6,2h4.1c1.6,0,3,1.3,3,3c0,1.6-1.3,3-3,3h-2.1l11.5,35.5h6.2l-14.3-43.8l-6.2-6.2
			C273.5,119.1,273.5,121.4,274.3,123.6z"/>
		<path class="st2" d="M305.4,165c0.3,1,1.2,1.7,2.1,2h1.3c0.1,0,0.2,0,0.3-0.1c1.6-0.5,2.4-2.2,1.9-3.7l-4.5-13.8l-9.2-9.2
			L305.4,165z"/>
		<path class="st2" d="M279,131.5c1.6,0,3-1.3,3-3c0-1.6-1.3-3-3-3h-4.1l1.9,5.9H279z"/>
		<path class="st2" d="M296.8,180.4h-4.1l1.3,3.9c0.4,1.3,1.7,2.1,3,2c0.1,0,0.2,0,0.3,0c0.1,0,0.2,0,0.3-0.1c0.1,0,0.2,0,0.2-0.1
			c0.1,0,0.2-0.1,0.3-0.1c0.1,0,0.2-0.1,0.2-0.1c0.1-0.1,0.2-0.1,0.2-0.2c0.1-0.1,0.2-0.1,0.2-0.2c0.1-0.1,0.1-0.1,0.2-0.2
			c0.1-0.1,0.1-0.1,0.2-0.2c0.1-0.1,0.1-0.2,0.1-0.2c0-0.1,0.1-0.2,0.1-0.3c0-0.1,0.1-0.2,0.1-0.3c0-0.1,0.1-0.2,0.1-0.3
			c0-0.1,0-0.2,0-0.3c0-0.1,0-0.2,0-0.3c0-0.1,0-0.2,0-0.3c0-0.1,0-0.2,0-0.3c0-0.1,0-0.2-0.1-0.3
			C299.4,181.4,298.2,180.4,296.8,180.4z"/>
		<path class="st2" d="M360.5,281.6c1,1.3,2.8,1.6,4.1,0.7l7.3-5.3l-4.2-4.2l-6.5,4.7C359.9,278.4,359.6,280.3,360.5,281.6z"/>
		<path class="st2" d="M389.9,264c5.1-3.7,6.2-10.8,2.5-15.9c-1-1.3-2.8-1.6-4.1-0.7c-1.3,1-1.6,2.8-0.7,4.1
			c1.8,2.4,1.2,5.9-1.2,7.6l-18.7,13.6l4.2,4.2L389.9,264z"/>
		<path class="st2" d="M377.7,290c1,1.3,2.8,1.6,4.1,0.7l2.2-1.6l-3.5-3.5l-0.7-0.7l-1.4,1C377,286.8,376.7,288.7,377.7,290z"/>
		<path class="st2" d="M384,289.1l9.4-6.8c5.1-3.7,6.2-10.8,2.5-15.9c-1-1.3-2.8-1.6-4.1-0.7s-1.6,2.8-0.7,4.1
			c1.8,2.4,1.2,5.9-1.2,7.6l-10.2,7.4l0.7,0.7L384,289.1z"/>
		<path class="st2" d="M344.6,326.5c1.4-0.2,2.8,0.6,3.2,2l1,2.9l8.8-2.6c0.3-0.1,0.6-0.2,0.9-0.4l32.4-23.5l-1.3-3.9
			c-0.5-1.6,0.3-3.2,1.9-3.7c0.2-0.1,0.4-0.1,0.6-0.1l-0.3-0.3l-36.4,26.4L344.6,326.5z"/>
		<path class="st2" d="M343.8,326.8l-23.9,7c-0.3,0.1-0.6,0.2-0.9,0.4l-19.3,14l5,3.7l17.3-12.6l21-6.2l-0.9-2.8
			C341.7,328.9,342.4,327.4,343.8,326.8z"/>
		<path class="st2" d="M395.9,301.2c0,0,0.1-0.1,0.1-0.1l-0.3-0.3L395.9,301.2z"/>
		<path class="st2" d="M395.2,299.2l0.5,1.6l0.3,0.3c4.5-3.8,5.3-10.5,1.8-15.3c-1-1.3-2.8-1.6-4.1-0.7c-1.3,1-1.6,2.8-0.7,4.1
			c1.8,2.4,1.2,5.9-1.2,7.6l0,0l0.3,0.3C393.5,297,394.8,297.8,395.2,299.2z"/>
		<path class="st2" d="M298,349.5c-1.3,1-1.6,2.8-0.7,4.1c1,1.3,2.8,1.6,4.1,0.7l3.3-2.4l-5-3.7L298,349.5z"/>
		<path class="st2" d="M392.1,297.2c-0.2,0-0.4,0.1-0.6,0.1c-1.6,0.5-2.4,2.2-1.9,3.7l1.3,3.9l4.5-3.2c0.2-0.1,0.4-0.3,0.6-0.5
			l-0.1-0.4L392.1,297.2z"/>
		<path class="st2" d="M395.2,299.2c-0.4-1.4-1.8-2.2-3.1-2l3.7,3.7L395.2,299.2z"/>
		<path class="st2" d="M344.6,326.5l-0.8,0.2c-1.4,0.6-2.1,2.2-1.6,3.6l0.9,2.8l5.7-1.7l-1-2.9C347.3,327.2,346,326.3,344.6,326.5z"
			/>
		<path class="st2" d="M219.8,406.3c-1.3,1-1.6,2.8-0.7,4.1c1,1.3,2.8,1.6,4.1,0.7l17.7-12.9l-4.2-4.2L219.8,406.3z"/>
		<path class="st2" d="M237.4,393.6l-0.6,0.4l4.2,4.2l1.4-1c-0.2-0.1-0.4-0.3-0.6-0.4L237.4,393.6z"/>
		<path class="st2" d="M244.8,391.9c-1-1.3-2.8-1.6-4.1-0.7l-3.3,2.4l4.5,3.2c0.2,0.1,0.4,0.3,0.6,0.4l1.7-1.2
			C245.5,395,245.7,393.2,244.8,391.9z"/>
		<path class="st2" d="M173.5,373c-1.3,1-1.6,2.8-0.7,4.1c1,1.3,2.8,1.6,4.1,0.7l22.1-16l-3.3-4.9L173.5,373z"/>
		<path class="st2" d="M202.2,355.8c-0.1-0.1-0.1-0.1-0.2-0.2l0.5,0.7C202.4,356.1,202.3,356,202.2,355.8z"/>
		<path class="st2" d="M202.1,359.4l-4.1-4.1l-2.3,1.6l3.3,4.9l2.5-1.8C201.8,359.8,202,359.6,202.1,359.4z"/>
		<path class="st2" d="M198.1,355.2L198.1,355.2l4.1,4.2c0.7-0.9,0.8-2.1,0.3-3.1l-0.5-0.7C201,354.5,199.3,354.3,198.1,355.2z"/>
		<path class="st2" d="M250.7,316.2c0.1-0.1,0.1-0.2,0.2-0.2C250.9,316,250.8,316.1,250.7,316.2z"/>
		<path class="st2" d="M250.4,316.7c0-0.1,0.1-0.2,0.2-0.3C250.5,316.5,250.5,316.6,250.4,316.7z"/>
		<path class="st2" d="M250.1,317.7c0-0.1,0-0.2,0-0.3C250.1,317.6,250.1,317.7,250.1,317.7z"/>
		<path class="st2" d="M254.8,315.6l3.3,2.4l43.5-31.6c0.7-0.5,1.2-1.4,1.2-2.3l0.4-18.4l11.8-17l-2.3-7.1l-14.8,21.4
			c-0.3,0.5-0.5,1-0.5,1.6l-0.4,17.8l-23.6,17.1l1.4,0.4c0.3,0.1,0.6,0.2,0.9,0.4c1,0.7,1.5,2,1.1,3.2c-0.5,1.6-2.1,2.5-3.7,2
			l-5.7-1.7l-16,11.6c0,0-0.1,0.1-0.1,0.1C252.2,314.9,253.7,314.8,254.8,315.6z"/>
		<path class="st2" d="M250.2,317.2c0-0.1,0.1-0.2,0.1-0.3C250.3,317,250.2,317.1,250.2,317.2z"/>
		<path class="st2" d="M250.6,319.8c0,0,0.1,0.1,0.1,0.1C250.7,319.8,250.6,319.8,250.6,319.8C250.6,319.7,250.6,319.7,250.6,319.8z
			"/>
		<path class="st2" d="M250.4,319.4c0-0.1-0.1-0.2-0.1-0.2C250.3,319.2,250.4,319.3,250.4,319.4z"/>
		<path class="st2" d="M251.2,320.3c-0.1-0.1-0.2-0.1-0.2-0.2C251,320.2,251.1,320.3,251.2,320.3z"/>
		<path class="st2" d="M250.1,318.3c0-0.1,0-0.2,0-0.3C250.1,318.1,250.1,318.2,250.1,318.3z"/>
		<path class="st2" d="M250.2,318.9c0-0.1-0.1-0.2-0.1-0.3C250.2,318.7,250.2,318.8,250.2,318.9z"/>
		<path class="st2" d="M276.7,303.8c0.4-1.2-0.1-2.5-1.1-3.2c-0.3-0.2-0.6-0.3-0.9-0.4l-1.4-0.4l-6,4.4l5.7,1.7
			C274.5,306.2,276.2,305.3,276.7,303.8z"/>
		<path class="st2" d="M254.8,320.4l3.3-2.4l-3.3-2.4c-1.1-0.8-2.6-0.7-3.6,0.1c-0.1,0.1-0.1,0.1-0.2,0.2c-0.1,0.1-0.1,0.2-0.2,0.2
			c-0.1,0.1-0.1,0.1-0.2,0.2c-0.1,0.1-0.1,0.2-0.2,0.3c0,0.1-0.1,0.2-0.1,0.2c0,0.1-0.1,0.2-0.1,0.3c0,0.1-0.1,0.2-0.1,0.3
			c0,0.1,0,0.2,0,0.3c0,0.1,0,0.2,0,0.3c0,0.1,0,0.2,0,0.3c0,0.1,0,0.2,0,0.3c0,0.1,0,0.2,0.1,0.3c0,0.1,0.1,0.2,0.1,0.3
			c0,0.1,0.1,0.2,0.1,0.2c0.1,0.1,0.1,0.2,0.2,0.3c0,0.1,0.1,0.1,0.2,0.2c0.1,0.1,0.1,0.2,0.2,0.2c0.1,0.1,0.1,0.1,0.2,0.2
			C252.2,321.2,253.7,321.2,254.8,320.4z"/>
		<path class="st2" d="M318.3,243.9c0.9-1.3,0.6-3.2-0.7-4.1c-1.1-0.7-2.4-0.7-3.4,0c-0.3,0.2-0.5,0.4-0.7,0.7l-0.8,1.2l2.3,7.1
			L318.3,243.9z"/>
		<path class="st2" d="M324.3,269.5c0.1,0,0.2,0,0.3-0.1C324.5,269.5,324.4,269.5,324.3,269.5z"/>
		<path class="st2" d="M321.9,268.9c-0.1-0.1-0.1-0.1-0.2-0.2C321.8,268.8,321.9,268.8,321.9,268.9z"/>
		<path class="st2" d="M324.9,269.4c0.1,0,0.2-0.1,0.3-0.1C325.1,269.3,325,269.3,324.9,269.4z"/>
		<path class="st2" d="M323.2,269.5c0.1,0,0.2,0,0.3,0.1C323.4,269.6,323.3,269.5,323.2,269.5z"/>
		<path class="st2" d="M324.1,269.6c-0.1,0-0.2,0-0.3,0C323.9,269.6,324,269.6,324.1,269.6z"/>
		<path class="st2" d="M321.5,268.5c-0.1-0.1-0.1-0.1-0.2-0.2C321.4,268.3,321.4,268.3,321.5,268.5
			C321.5,268.4,321.5,268.4,321.5,268.5z"/>
		<path class="st2" d="M322.7,269.3c0.1,0,0.2,0.1,0.3,0.1C322.8,269.4,322.8,269.4,322.7,269.3z"/>
		<path class="st2" d="M389.7,229.2c-1.7-2.3-4.1-3.8-6.7-4.4l8.6,8.6C391.2,231.9,390.6,230.5,389.7,229.2z"/>
		<path class="st2" d="M322.2,269.1c0.1,0.1,0.2,0.1,0.2,0.2C322.3,269.2,322.3,269.1,322.2,269.1z"/>
		<path class="st2" d="M325.4,269.1c0,0,0.1,0,0.1-0.1l0,0l22.2-16.2l-4.2-4.2l-18.2,13.2l1.3,3.9
			C327.1,267,326.5,268.4,325.4,269.1z"/>
		<path class="st2" d="M321.1,267.7c0,0.1,0.1,0.2,0.1,0.3C321.2,267.9,321.1,267.8,321.1,267.7z"/>
		<path class="st2" d="M344,269.1c-1.3,1-1.6,2.8-0.7,4.1c1,1.3,2.8,1.6,4.1,0.7l12.4-9l-4.2-4.2L344,269.1z"/>
		<path class="st2" d="M377.2,231.5c2.4-1.8,5.9-1.2,7.6,1.2c1.8,2.4,1.2,5.9-1.2,7.6l-28,20.4l4.2,4.2l27.3-19.8
			c3.8-2.8,5.4-7.4,4.4-11.7l-8.6-8.6c-3.1-0.7-6.5-0.1-9.2,1.9l-1.7,1.2l1.3,3.9c0.5,1.6-0.3,3.2-1.9,3.7c-1.6,0.5-3.2-0.3-3.7-1.9
			l-0.7-2l-23.5,17.1l4.2,4.2L377.2,231.5z"/>
		<path class="st2" d="M367.7,233.6c0.5,1.6,2.2,2.4,3.7,1.9c1.6-0.5,2.4-2.2,1.9-3.7l-1.3-3.9l-5,3.7L367.7,233.6z"/>
		<path class="st2" d="M321.1,267.7c0,0.1,0.1,0.2,0.1,0.3c0,0.1,0.1,0.2,0.2,0.3c0,0.1,0.1,0.1,0.2,0.2c0.1,0.1,0.1,0.2,0.2,0.2
			c0.1,0.1,0.1,0.1,0.2,0.2c0.1,0.1,0.2,0.1,0.2,0.2c0.1,0.1,0.2,0.1,0.2,0.2c0.1,0,0.2,0.1,0.2,0.1c0.1,0,0.2,0.1,0.3,0.1
			c0.1,0,0.2,0,0.3,0.1c0.1,0,0.2,0,0.3,0.1c0.1,0,0.2,0,0.3,0c0.1,0,0.2,0,0.3,0c0.1,0,0.2,0,0.3,0c0.1,0,0.2,0,0.3-0.1
			c0.1,0,0.2-0.1,0.2-0.1c0.1,0,0.2-0.1,0.3-0.1c0.1,0,0.2-0.1,0.3-0.1c1.1-0.7,1.6-2.1,1.2-3.4l-1.3-3.9l-3.3,2.4
			C321,265,320.6,266.5,321.1,267.7z"/>
		<path class="st4" d="M0,333h71V167c0,0-68.3,0-71,0V333z"/>
	</g>
</g>
</svg>
