<?xml version="1.0" encoding="utf-8"?>
<!-- Generator: Adobe Illustrator 21.1.0, SVG Export Plug-In . SVG Version: 6.00 Build 0)  -->
<svg version="1.1" id="Layer_1" xmlns="http://www.w3.org/2000/svg" xmlns:xlink="http://www.w3.org/1999/xlink" x="0px" y="0px"
	 viewBox="0 0 432 432" style="enable-background:new 0 0 432 432;" xml:space="preserve">
<style type="text/css">
	.st0{fill:#B31AAB;}
	.st1{fill:#D163CE;}
	.st2{fill:#E13EAF;}
</style>
<g>
	<g>
		<polygon class="st0" points="109.8,210.6 110.4,236 137.2,252.6 136.6,227.2 		"/>
		<path class="st0" d="M175.2,316.4l-0.6-24.9l-23.5-14.6c-0.3-0.2-0.7-0.5-1-0.7l0.6,25L175.2,316.4z"/>
		<path class="st0" d="M91.5,350l-61.3-38l-1.5-63.7l30.1-13l-0.6-25.5l-48,20.7c-3.7,1.6-5.9,5-5.8,8.9l1.8,76.5
			c0.1,3.9,2.5,7.8,6.3,10.2l73.5,45.6c3.4,2.1,7.6,2.7,11,1.6c0.4-0.1,0.7-0.2,1-0.4l45.1-19.4l-24.5-15.2L91.5,350z"/>
		<path class="st1" d="M289.6,209.1c-0.1-4.6-2.9-9.1-7.3-11.9L193,141.9l-2.8,1.2l0.6,26.8l70.7,43.8l1.7,71.6l27,16.7l1.5-0.6
			L289.6,209.1z"/>
		<path class="st1" d="M182.7,334.8l-82.9-51.4l-2-86.3l37.8-16.3l-0.7-29.7l-58.7,25.3c-4.3,1.9-6.9,5.8-6.8,10.4L71.7,288
			c0.1,4.6,2.9,9.1,7.3,11.8l97.2,60.3c4,2.5,8.8,3.1,12.9,1.9c0.4-0.1,0.8-0.3,1.2-0.5l57.4-24.7l-28.6-17.7L182.7,334.8z"/>
		<path class="st2" d="M415.9,138.3L291.3,61c-4.6-2.8-10.1-3.6-14.8-2.1c-0.5,0.1-0.9,0.3-1.4,0.5l-121.6,52.4
			c-4.9,2.1-7.9,6.6-7.8,11.9l3.1,129.6c0.1,5.3,3.3,10.4,8.4,13.5l124.6,77.2c4.6,2.8,10.1,3.6,14.7,2.1c0.5-0.1,0.9-0.3,1.4-0.5
			l121.6-52.4c4.9-2.1,7.9-6.7,7.8-11.9l-3-129.6C424.2,146.6,421,141.4,415.9,138.3z M289.3,315.2L181,248.1l-2.7-112.7l105.6-45.5
			L392.2,157l2.7,112.7L289.3,315.2z"/>
	</g>
</g>
</svg>
