<svg width="1064" height="1064" viewBox="0 0 1064 1064" fill="none" xmlns="http://www.w3.org/2000/svg">
<path fill-rule="evenodd" clip-rule="evenodd" d="M870.996 595.125L816.103 355.849C811.679 336.948 799.414 321.466 781.921 313.021L559.938 206.453C551.694 202.633 542.243 200.22 533.195 200.22C524.147 200.22 514.697 202.432 506.05 206.453L283.062 313.021C265.368 321.265 253.102 336.747 248.88 355.849L193.585 595.125C189.161 614.025 193.585 633.529 205.85 648.811L359.871 840.432C371.735 855.311 389.831 863.756 408.531 863.756H655.447C674.347 863.756 692.243 855.512 704.106 840.432L858.127 648.811C870.392 633.931 874.816 614.025 870.392 595.125H870.795H870.996ZM483.128 384.401H501.225C506.453 384.401 510.876 380.179 510.876 374.75V289.294C510.876 284.067 515.099 279.643 520.528 279.643H543.651C548.879 279.643 553.302 283.866 553.302 289.294V374.75C553.302 379.978 557.525 384.401 562.954 384.401H581.05C588.49 384.401 593.115 392.444 589.495 398.879L540.434 483.731C536.814 490.165 527.364 490.165 523.745 483.731L474.683 398.879C471.064 392.444 475.689 384.401 483.128 384.401ZM386.011 562.35C380.783 562.35 376.359 566.572 376.359 572.001V590.098C376.359 597.537 368.316 602.162 361.882 598.543L277.03 549.481C270.596 545.862 270.596 536.412 277.03 532.792L361.882 483.731C368.316 480.112 376.359 484.736 376.359 492.176V510.272C376.359 515.5 380.582 519.924 386.011 519.924H471.466C476.694 519.924 481.118 524.146 481.118 529.575V552.698C481.118 557.926 476.895 562.35 471.466 562.35H386.011ZM581.05 697.872H563.155C557.927 697.872 553.503 702.095 553.503 707.524V792.979C553.503 798.207 549.281 802.631 543.852 802.631H520.729C515.501 802.631 511.077 798.408 511.077 792.979V707.524C511.077 702.296 506.855 697.872 501.426 697.872H483.329C475.89 697.872 471.265 689.829 474.884 683.395L523.946 598.543C527.565 592.108 537.016 592.108 540.635 598.543L589.696 683.395C593.316 689.829 588.691 697.872 581.251 697.872H581.05ZM787.149 549.481L702.296 598.543C695.862 602.162 687.819 597.537 687.819 590.098V572.001C687.819 566.773 683.597 562.35 678.168 562.35H592.712C587.485 562.35 583.061 558.127 583.061 552.698V529.575C583.061 524.347 587.283 519.924 592.712 519.924H678.168C683.396 519.924 687.819 515.701 687.819 510.272V492.176C687.819 484.736 695.862 480.112 702.296 483.731L787.149 532.792C793.583 536.412 793.583 545.862 787.149 549.481Z" fill="white"/>
</svg>
