<?xml version="1.0" encoding="UTF-8"?>
<svg id="Layer_1" xmlns="http://www.w3.org/2000/svg" version="1.1" viewBox="0 0 1440 200">
  <!-- Generator: Adobe Illustrator 30.4.0, SVG Export Plug-In . SVG Version: 2.1.4 Build 226)  -->
  <defs>
    <style>
      .st0 {
        isolation: isolate;
      }

      .st1 {
        fill: #fff;
      }
    </style>
  </defs>
  <path class="st1" d="M81.8,112.8h-.2c-9.7-.6-18.1-10.9-18.1-18.4.2-5.8.5-12.8.8-13.9,5.4-30.2,28.1-54.4,57.4-62-10.5-5.4-22.4-8.5-35-8.5C44.4,10,10,44.4,10,86.7v68.3c0,14.8,12,26.7,26.7,26.7s26.7-12,26.7-26.7v-14.3c0-10.4,8-18.8,18.2-19.5h.2c2.3,0,4.2-1.9,4.2-4.2s-1.9-4.2-4.2-4.2h0Z"/>
  <g>
    <path class="st1" d="M146.7,47c4.1,0,8.1.3,12,.9-4.9-8.3-11.2-15.6-18.7-21.5-27.5,2.6-50.8,19.3-62.7,42.7,4.1-3.5,9.4-5.7,15.2-5.7,1.7,0,3.3.2,4.9.5,13.6-10.5,30.7-16.9,49.3-16.9h0Z"/>
    <path class="st1" d="M165.3,62.7c-6.9-1.9-14.1-2.9-21.5-2.9-13.2,0-25.7,3.2-36.7,8.9,5.3,4.3,8.7,10.8,8.7,18.1v7.8c0,7.5-8.4,17.7-18.1,18.4h-.2c-2.3,0-4.2,1.9-4.2,4.2s1.9,4.2,4.2,4.2h.2c9.8.7,17.6,8.5,18.1,18.4v15.2c0,14.8,12,26.7,26.7,26.7s26.7-12,26.7-26.7v-68.3c0-8.4-1.4-16.5-3.9-24h0Z"/>
  </g>
  <g class="st0">
    <path class="st1" d="M278.3,58.4l46.3,99.3h-10.7l-15.6-32.7h-42.8l-15.5,32.7h-11l46.9-99.3s2.4,0,2.4,0ZM277.1,79.5l-17,35.9h33.9l-16.9-35.9Z"/>
  </g>
  <g class="st0">
    <path class="st1" d="M333.7,58.4h19.8c11.3,0,19,.5,22.9,1.5,5.7,1.4,10.3,4.3,13.9,8.6,3.6,4.3,5.4,9.8,5.4,16.4s-1.8,12.1-5.3,16.4-8.3,7.2-14.5,8.7c-4.5,1.1-12.9,1.6-25.2,1.6h-7.1v46.2h-9.9V58.4h0ZM343.6,68.1v33.7l16.8.2c6.8,0,11.8-.6,14.9-1.9,3.1-1.2,5.6-3.2,7.4-6s2.7-5.8,2.7-9.3c0-3.3-.9-6.4-2.7-9.1-1.8-2.8-4.2-4.7-7.1-5.9-2.9-1.2-7.8-1.8-14.5-1.8h-17.5v.1Z"/>
  </g>
  <g class="st0">
    <path class="st1" d="M407.2,58.4h9.9v99.3h-9.9V58.4Z"/>
  </g>
  <g class="st0">
    <path class="st1" d="M526.8,76.8l-7.8,6c-4.3-5.6-9.5-9.9-15.6-12.8s-12.7-4.4-19.9-4.4c-7.9,0-15.2,1.9-22,5.7-6.7,3.8-12,8.9-15.7,15.3s-5.6,13.6-5.6,21.6c0,12.1,4.1,22.2,12.4,30.3s18.8,12.1,31.4,12.1c13.9,0,25.5-5.4,34.9-16.3l7.8,5.9c-4.9,6.3-11.1,11.2-18.5,14.6-7.4,3.4-15.7,5.2-24.8,5.2-17.4,0-31.1-5.8-41.1-17.3-8.4-9.8-12.6-21.5-12.6-35.4s5.1-26.8,15.3-36.7c10.2-9.9,23-14.9,38.3-14.9,9.3,0,17.6,1.8,25.1,5.5,7.5,3.8,13.6,9,18.4,15.6Z"/>
  </g>
  <g class="st0">
    <path class="st1" d="M539.5,58.4h9.9v59.9c0,7.1.1,11.5.4,13.3.5,3.9,1.6,7.2,3.4,9.8,1.8,2.6,4.6,4.8,8.3,6.6s7.5,2.7,11.3,2.7c3.3,0,6.4-.7,9.4-2.1,3-1.4,5.5-3.3,7.6-5.8,2-2.5,3.5-5.5,4.5-9,.7-2.5,1-7.7,1-15.5v-59.9h9.9v59.9c0,8.9-.9,16-2.6,21.5-1.7,5.5-5.2,10.2-10.4,14.3-5.2,4-11.5,6.1-18.9,6.1-8,0-14.9-1.9-20.6-5.7-5.7-3.8-9.5-8.9-11.5-15.2-1.2-3.9-1.8-10.8-1.8-20.9v-60h.1Z"/>
    <path class="st1" d="M623.2,58.4h19.8c11,0,18.5.5,22.4,1.4,5.9,1.4,10.7,4.2,14.4,8.7,3.7,4.4,5.5,9.9,5.5,16.4,0,5.4-1.3,10.2-3.8,14.3-2.5,4.1-6.2,7.2-10.9,9.3-4.7,2.1-11.2,3.2-19.6,3.2l35.7,46.1h-12.3l-35.7-46.1h-5.6v46.1h-9.9V58.4h0ZM633.2,68.1v33.7l17.1.1c6.6,0,11.5-.6,14.7-1.9s5.7-3.3,7.4-6c1.8-2.8,2.7-5.9,2.7-9.3s-.9-6.4-2.7-9.1-4.2-4.7-7.1-5.8c-2.9-1.2-7.8-1.8-14.6-1.8h-17.5v.1Z"/>
  </g>
  <g class="st0">
    <path class="st1" d="M698.2,58.4h9.9v99.3h-9.9V58.4Z"/>
  </g>
  <g class="st0">
    <path class="st1" d="M772.6,55.9c15,0,27.6,5,37.7,15,10.1,10,15.2,22.4,15.2,37s-5.1,26.9-15.2,37-22.4,15.2-37,15.2-27.1-5-37.3-15.1c-10-10.1-15-22.3-15-36.6,0-9.5,2.3-18.4,6.9-26.5,4.6-8.1,10.9-14.5,18.9-19.1,7.9-4.6,16.6-6.9,25.8-6.9ZM773.1,65.5c-7.3,0-14.3,1.9-20.9,5.7-6.6,3.8-11.7,9-15.4,15.5s-5.5,13.7-5.5,21.7c0,11.8,4.1,21.8,12.3,29.9,8.2,8.1,18,12.2,29.6,12.2,7.7,0,14.8-1.9,21.4-5.6s11.7-8.8,15.3-15.3c3.7-6.5,5.5-13.7,5.5-21.6s-1.8-15-5.5-21.4-8.8-11.5-15.5-15.3-13.8-5.8-21.3-5.8Z"/>
  </g>
  <g class="st0">
    <path class="st1" d="M871.8,58.4h20c11,0,18.8,1,23.4,2.9s8.4,5.2,11.2,9.8c2.8,4.5,4.2,9.9,4.2,16.1s-1.6,12-4.7,16.4c-3.1,4.4-7.8,7.7-14.1,10l23.5,44.1h-20.7l-22.3-42h-1.7v42h-18.9V58.4h.1ZM890.7,97.2h5.9c6,0,10.1-.8,12.4-2.4s3.4-4.2,3.4-7.9c0-2.2-.6-4-1.7-5.7s-2.6-2.8-4.5-3.5-5.3-1-10.4-1h-5.2v20.5h.1Z"/>
    <path class="st1" d="M945.4,58.4h54.2v18.5h-35.4v17.9h35.4v18.2h-35.4v26.1h35.4v18.6h-54.2V58.4Z"/>
    <path class="st1" d="M1103.4,74.6l-13.3,13.2c-8.4-8.9-18.2-13.4-29.4-13.4-9.8,0-18,3.2-24.5,9.7-6.6,6.5-9.9,14.4-9.9,23.6s3.4,17.7,10.3,24.4c6.8,6.7,15.3,10,25.3,10,6.5,0,12-1.4,16.5-4.1,4.5-2.7,8.1-7,10.8-12.9h-28.7v-17.7h49.9l.1,4.2c0,8.7-2.2,16.9-6.7,24.7s-10.3,13.7-17.5,17.8-15.5,6.1-25.2,6.1c-10.3,0-19.5-2.2-27.6-6.7s-14.5-10.9-19.2-19.1c-4.7-8.3-7.1-17.2-7.1-26.8,0-13.1,4.3-24.6,13-34.3,10.3-11.6,23.7-17.3,40.2-17.3,8.6,0,16.7,1.6,24.2,4.8,6.6,2.6,12.8,7.2,18.8,13.8Z"/>
    <path class="st1" d="M1121.1,58.4h18.8v99.3h-18.8V58.4Z"/>
    <path class="st1" d="M1207.8,71.9l-14,12.3c-4.9-6.8-9.9-10.3-15-10.3-2.5,0-4.5.7-6.1,2s-2.4,2.8-2.4,4.5.6,3.2,1.7,4.7c1.5,2,6.2,6.2,13.9,12.8,7.2,6,11.6,9.8,13.1,11.4,3.8,3.9,6.5,7.6,8.1,11.1s2.4,7.4,2.4,11.6c0,8.1-2.8,14.9-8.4,20.2s-13,8-22,8c-7.1,0-13.2-1.7-18.5-5.2-5.2-3.5-9.7-8.9-13.5-16.3l15.9-9.6c4.8,8.8,10.3,13.2,16.5,13.2,3.2,0,6-.9,8.2-2.8,2.2-1.9,3.3-4.1,3.3-6.5,0-2.2-.8-4.5-2.5-6.7s-5.3-5.7-11-10.3c-10.8-8.8-17.8-15.6-21-20.4s-4.7-9.6-4.7-14.3c0-6.9,2.6-12.8,7.9-17.7,5.2-4.9,11.7-7.4,19.4-7.4,5,0,9.7,1.1,14.2,3.4,4.5,2,9.3,6.2,14.5,12.3Z"/>
    <path class="st1" d="M1212.4,58.4h54.9v18.6h-18.1v80.6h-19.2v-80.6h-17.6v-18.6Z"/>
    <path class="st1" d="M1276.1,58.4h20c11,0,18.8,1,23.4,2.9s8.4,5.2,11.2,9.8c2.8,4.5,4.2,9.9,4.2,16.1s-1.6,12-4.7,16.4-7.8,7.7-14.1,10l23.5,44.1h-20.7l-22.3-42h-1.7v42h-18.9V58.4h.1ZM1295,97.2h5.9c6,0,10.1-.8,12.4-2.4s3.4-4.2,3.4-7.9c0-2.2-.6-4-1.7-5.7s-2.6-2.8-4.5-3.5-5.3-1-10.4-1h-5.2v20.5h.1Z"/>
    <path class="st1" d="M1342.6,58.4h20.3l18.5,35.7,18.4-35.7h20l-29,56.3v43h-19v-43l-29.2-56.3Z"/>
  </g>
</svg>