<?xml version="1.0" encoding="UTF-8"?><svg id="Layer_1" xmlns="http://www.w3.org/2000/svg" viewBox="0 0 1066.16256 455.71673"><path d="M213.7945,127.76772l180.45602,99.54121v-103.57553l-.05038-4.68935L214.14384,18.93516h-.6987L33.5501,118.95337v108.238l180.2444-99.42365Z"/><path d="M213.7945,330.52525L33.5501,231.10166v108.23803l179.89505,100.01818h.6987l180.05629-100.10552.05038-4.69272v-103.57553l-180.45602,99.54114ZM35.93173,83.44755v.32584l.53746-.31912-.53746-.00671Z"/><path d="M460.35673,233.12446h9.74707l10.45996,35.00586,11.59766-35.00586h9.60547l11.52637,35.00586,10.53027-35.00586h9.67676l-15.43945,48.88086h-8.82324l-12.23828-36.28711-12.30859,36.28711h-8.82324l-15.51074-48.88086Z"/><path d="M542.75712,257.52876c0-13.73242,11.74023-25.25781,25.61426-25.25781,13.94629,0,25.68652,11.52539,25.68652,25.25781s-11.74023,25.33008-25.68652,25.33008c-13.87402,0-25.61426-11.59766-25.61426-25.33008ZM584.95048,257.52876c0-9.32031-7.54297-17.14648-16.5791-17.14648-8.96484,0-16.57812,7.82617-16.57812,17.14648,0,9.39258,7.61328,17.21875,16.57812,17.21875,9.03613,0,16.5791-7.82617,16.5791-17.21875Z"/><path d="M634.26396,264.99946l11.95312,17.00586h-10.10352l-11.52637-16.43555h-7.82715v16.43555h-8.82227v-48.88086h21.27441c10.3877,0,18.28516,6.6875,18.28516,16.22266,0,7.89746-5.40723,13.87402-13.2334,15.65234ZM616.76005,257.38618h11.38477c6.04785,0,10.24512-3.05859,10.24512-8.03906s-4.19727-8.04102-10.24512-8.04102h-11.38477v16.08008Z"/><path d="M661.30595,233.12446h8.82227v23.90625l21.41699-23.90625h10.95703l-19.56641,21.55859,20.91895,27.32227h-10.88672l-16.22266-21.06055-6.61719,7.11523v13.94531h-8.82227v-48.88086Z"/><path d="M749.82353,273.89399v8.11133h-33.93945v-48.88086h8.82227v40.76953h25.11719Z"/><path d="M759.00517,257.52876c0-13.73242,11.74023-25.25781,25.61426-25.25781,13.94629,0,25.68652,11.52539,25.68652,25.25781s-11.74023,25.33008-25.68652,25.33008c-13.87402,0-25.61426-11.59766-25.61426-25.33008ZM801.19853,257.52876c0-9.32031-7.54297-17.14648-16.5791-17.14648-8.96484,0-16.57812,7.82617-16.57812,17.14648,0,9.39258,7.61328,17.21875,16.57812,17.21875,9.03613,0,16.5791-7.82617,16.5791-17.21875Z"/><path d="M856.2747,272.75532h-23.33789l-3.8418,9.25h-9.89062l20.4209-48.88086h9.89062l20.41992,48.88086h-9.81836l-3.84277-9.25ZM853.21513,265.49751l-8.60938-20.5625-8.60938,20.5625h17.21875Z"/><path d="M882.03642,233.12446h17.14746c16.15137,0,27.53516,10.10352,27.53516,24.4043,0,14.30176-11.38379,24.47656-27.53516,24.47656h-17.14746v-48.88086ZM900.10868,273.96528c10.31738,0,17.57422-6.83105,17.57422-16.43652s-7.25684-16.36523-17.57422-16.36523h-9.25v32.80176h9.25Z"/><path d="M936.61454,274.89009l5.19336-6.33203c4.48242,4.05469,9.67676,6.61719,16.08008,6.61719,5.97754,0,9.10742-2.98828,9.10742-6.47461,0-4.05664-3.48633-5.4082-11.3125-7.25781-10.10352-2.34766-17.07617-5.26562-17.07617-14.44434,0-8.53809,7.25684-14.72754,17.50293-14.72754,7.75586,0,13.66113,2.63184,18.49902,6.83008l-4.83789,6.47461c-4.19824-3.62891-9.10742-5.69238-13.94531-5.69238-4.98145,0-8.25391,2.91699-8.25391,6.33301,0,3.98438,3.55762,5.40723,11.31348,7.18555,10.17383,2.27734,17.00488,5.55078,17.00488,14.44434,0,8.75098-6.61719,14.94238-18.35742,14.94238-8.32422,0-15.51074-2.84668-20.91797-7.89844Z"/><path d="M473.94657,321.23579v12.37988h25.1875v8.11133h-25.1875v20.27832h-8.89453v-48.88086h36.78613v8.11133h-27.8916Z"/><path d="M511.73173,337.52876c0-13.73242,11.74023-25.25781,25.61426-25.25781,13.94629,0,25.68652,11.52539,25.68652,25.25781s-11.74023,25.33008-25.68652,25.33008c-13.87402,0-25.61426-11.59766-25.61426-25.33008ZM553.92509,337.52876c0-9.32031-7.54297-17.14648-16.5791-17.14648-8.96484,0-16.57812,7.82617-16.57812,17.14648,0,9.39258,7.61328,17.21875,16.57812,17.21875,9.03613,0,16.5791-7.82617,16.5791-17.21875Z"/><path d="M575.70243,341.15767v-28.0332h8.89355v27.74902c0,8.11035,5.26562,13.94531,12.66504,13.94531,7.47168,0,12.73633-5.83496,12.73633-13.94531v-27.74902h8.82324v28.0332c0,12.73633-8.89453,21.70117-21.55957,21.70117-12.59375,0-21.55859-8.96484-21.55859-21.70117Z"/><path d="M634.69169,313.12446h8.82227l25.82812,34.36523v-34.36523h8.82324v48.88086h-8.82324l-25.82812-34.36621v34.36621h-8.82227v-48.88086Z"/><path d="M695.24735,313.12446h17.14746c16.15137,0,27.53516,10.10352,27.53516,24.4043,0,14.30176-11.38379,24.47656-27.53516,24.47656h-17.14746v-48.88086ZM713.31962,353.96528c10.31738,0,17.57422-6.83105,17.57422-16.43652s-7.25684-16.36523-17.57422-16.36523h-9.25v32.80176h9.25Z"/><path d="M785.89872,352.75532h-23.33789l-3.8418,9.25h-9.89062l20.4209-48.88086h9.89062l20.41992,48.88086h-9.81836l-3.84277-9.25ZM782.83915,345.49751l-8.60938-20.5625-8.60938,20.5625h17.21875Z"/><path d="M822.61747,321.23579h-15.65332v-8.11133h40.12988v8.11133h-15.58301v40.76953h-8.89355v-40.76953Z"/><path d="M859.54911,313.12446h8.82227v48.88086h-8.82227v-48.88086Z"/><path d="M882.24735,337.52876c0-13.73242,11.74023-25.25781,25.61426-25.25781,13.94629,0,25.68652,11.52539,25.68652,25.25781s-11.74023,25.33008-25.68652,25.33008c-13.87402,0-25.61426-11.59766-25.61426-25.33008ZM924.44071,337.52876c0-9.32031-7.54297-17.14648-16.5791-17.14648-8.96484,0-16.57812,7.82617-16.57812,17.14648,0,9.39258,7.61328,17.21875,16.57812,17.21875,9.03613,0,16.5791-7.82617,16.5791-17.21875Z"/><path d="M947.42802,313.12446h8.82227l25.82812,34.36523v-34.36523h8.82324v48.88086h-8.82324l-25.82812-34.36621v34.36621h-8.82227v-48.88086Z"/><path d="M484.26396,107.55415h-31.2207v-22.96484h88.25879v22.96484h-31.37109v80.1543h-25.66699v-80.1543Z"/><path d="M625.50712,171.9477h-40.22754l-6.30371,15.76074h-28.81934l40.82715-103.11914h28.81934l40.82715,103.11914h-28.81934l-6.30371-15.76074ZM617.85185,152.5854l-12.45898-31.67188-12.45801,31.67188h24.91699Z"/><path d="M722.17021,128.5688h46.83105v43.0791c-10.35645,11.25781-26.26758,17.86133-42.02832,17.86133-30.4707,0-56.1377-24.46582-56.1377-53.43555s25.66699-53.28516,56.1377-53.28516c15.76074,0,31.67188,6.60352,42.02832,17.71094l-18.7627,16.66211c-5.55371-6.90527-14.40918-11.10742-23.26562-11.10742-16.06055,0-29.71973,13.80859-29.71973,30.01953,0,16.36133,13.65918,30.16992,29.71973,30.16992,6.00391,0,12.00781-1.95117,17.11133-5.40332v-12.90918h-21.91406v-19.3623Z"/><path d="M285.81359,185.84916v84.14664s-71.91328,41.05972-71.91328,41.05972l-71.91328-41.05972v-84.14664l71.91328-41.05972,71.91328,41.05972ZM215.17934,158.4284v12.79032h-2.55806v-11.93763l-53.728,30.27045,55.50474,31.59915,53.63159-31.59986-52.85027-31.12244ZM208.35784,230.90689l-55.42473-30.69677v61.39355c2.14057.30309,10.0491-5.95238,10.65954-5.95223.47563.00011,1.75494,1.83439,1.27303,2.52605-.50487.72463-9.25503,4.11001-10.22055,5.9732l53.71271,29.85513v-63.09892ZM274.86752,200.21012l-55.42473,30.69677v63.09892l53.71271-29.85513c-.96552-1.8632-9.71567-5.24857-10.22055-5.9732-.48191-.69167.7974-2.52594,1.27303-2.52605.61044-.00015,8.51896,6.25533,10.65954,5.95223v-61.39355Z"/><path d="M201.53214,235.17486c1.38801,1.22495-8.08171,6.49881-8.90922,6.86139-1.56121.68407-1.54776,1.4631-3.00703-.47067.05416-.93084,10.69566-7.46792,11.91625-6.39072Z"/><path d="M182.7727,245.40678c.89224.98184-.18316,2.05003-1.03823,2.81484-.60311.53944-9.62583,6.11697-10.03345,5.70833l-.86161-2.53835c2.07134.12942,11.23268-6.75577,11.93328-5.98482Z"/><path d="M256.96114,251.39171l-1.2647,2.51973c-2.56158-2.07066-7.33967-3.64102-9.63029-5.68982-.85363-.76351-1.93333-1.8401-1.03821-2.81486.95845-1.04372,9.71292,6.22034,11.9332,5.98495Z"/><path d="M226.26848,235.17486c1.22059-1.0772,11.86209,5.45989,11.91625,6.39072-1.45928,1.93377-1.44582,1.15474-3.00703.47067-.8275-.36258-10.29723-5.63644-8.90922-6.86139Z"/><rect x="212.62128" y="179.7456" width="2.55806" height="12.79032"/><rect x="212.62128" y="201.0628" width="2.55806" height="12.79032"/></svg>