<svg id="Layer_1" data-name="Layer 1" xmlns="http://www.w3.org/2000/svg" viewBox="0 0 860 138.2291"><defs><style>.cls-1{fill:none;}</style></defs><path class="cls-1" d="M327.07051,55.47844c-3.25248,1.28527-5.44126,2.86152-4.78482,6.93109.41787,2.59068.07815,5.30332.07889,7.9612,0,3.45534.00854,6.91068-.00465,10.36592a2.95629,2.95629,0,0,0,1.3435,2.99775c5.53675,3.56906,15.05114,3.72018,20.12518.14444,5.23972-3.69253,7.89413-12.03883,6.05094-19.0259C347.32449,55.16739,337.719,51.27063,327.07051,55.47844Z"/><path class="cls-1" d="M397.82665,53.409c-6.2007.04944-11.76808,4.00114-13.5253,9.39541-.62478,1.91787-.3489,2.68939,1.80451,2.63913,3.85865-.09,7.721-.0254,11.58183-.024,3.8608,0,7.72327-.06766,11.58178.02662,2.14511.05241,2.85908-.42789,2.07931-2.74156A14.02158,14.02158,0,0,0,397.82665,53.409Z"/><path class="cls-1" d="M571.39393,53.405c-6.139.048-11.80345,4.06317-13.5149,9.39775-.61306,1.91094-.30895,2.6912,1.833,2.64079,3.85636-.09081,7.71634-.02565,11.57485-.02394,3.85846,0,7.71887-.07351,11.5747.02853,2.19121.058,2.82156-.4928,2.05811-2.76022A14.05169,14.05169,0,0,0,571.39393,53.405Z"/><path class="cls-1" d="M119.45442,21.86372c-13.36851-4.9953-25.14587-.89735-35.46773,8.04374-2.29095,1.9845-3.45592,2.59845-5.93508.249-4.04061-3.82925-8.28754-7.60893-13.61948-9.63831-11.83065-4.50289-22.18138-1.18378-30.83262,7.13248-8.9513,8.60479-11.61573,19.39713-8.60933,31.52657.41861,1.68884,1.4089,1.96321,2.90118,1.94186,4.133-.05915,8.27841-.20286,12.39722.046,2.68865.16242,4.04085-.79027,5.16762-3.19352,2.823-6.02106,5.95379-11.89806,9.10526-18.11738,3.1736,9.41748,6.1839,18.35057,9.70787,28.80778L71.204,58.8588l11.62155.59562,5.365,10.47148,2.39774,5.03764.797,1.67433c1.9442-5.74058,3.90193-13.1572,5.8288-18.9036,1.94234-5.79265,3.854-11.59555,5.95872-17.93508,3.98385,6.651,9.53154,15.898,13.17151,22.06088l17.41718-.73073c1.74091.02857,2.47325-.526,3.037-2.27684C141.38469,44.60965,133.51439,27.11735,119.45442,21.86372Z"/><path class="cls-1" d="M111.85883,65.93487,109.75,62.437l-5.16054-8.5598c-4.44173,13.34169-8.638,25.946-13.036,39.15616-3.76213-8.68768-8.761-19.78839-12.26957-27.804-.03859-.08816-.07952-.18117-.11777-.2686l-.43619-.00884L76.06755,64.898l-2.26-.04567s-.10756.162-.29771.44821C72.098,67.4252,65.97824,76.6303,62.99744,81.03363c-.08909-.25927-.18307-.51268-.27315-.77078-2.91212-8.34249-6.31769-16.07925-9.213-24.50414L51.9341,58.38084l-4.214,7.00569-.85714,1.425c-.51718.08606-1.27233.15332-2.1769.20627-2.21745.12979-5.35788.17106-8.27552.17448q-.68339.00081-1.34433-.001c-1.8003-.00449-3.4336-.02085-4.5993-.03585-1.11095-.01431-1.79865-.02725-1.79865-.02725s.35633.41416.93422,1.08276c2.17705,2.51872,7.54675,8.70409,9.34837,10.53048.105.10643.20222.20339.28155.27856,8.115,7.68708,14.67469,13.85355,21.36058,20.14657,5.66443,5.33155,11.41922,10.7537,18.28994,17.271,1.53883,1.4597,2.40252,1.68805,4.07851.09505,15.06209-14.31645,30.22894-28.52291,45.34436-42.78348a21.60515,21.60515,0,0,0,4.8682-6.48025c-6.30685,0-14.53562.3725-20.198.51894Z"/><path class="cls-1" d="M641.584,73.12509c-.01724-.82378-.11225-1.63653-1.32176-1.36177-6.46169,1.46771-13.15964,2.23176-18.85968,6.02652a5.35864,5.35864,0,0,0-2.539,5.82807c.47312,2.45981,2.20548,3.49519,4.40031,4.04847,4.35014,1.09658,8.42123-.09183,12.46818-1.51759,4.08736-1.44,7.32172-3.43951,5.86055-8.01234C641.5925,76.05319,641.61448,74.5886,641.584,73.12509Z"/><path d="M128.86512,20.32249c-13.09376-9.49183-30.59475-8.74595-44.32886,1.43484-2.86436,2.12327-4.79479,2.582-7.16014-.15191a11.69494,11.69494,0,0,0-1.84519-1.526c-8.37448-6.35662-17.60748-9.384-28.08857-6.74079C26.9039,18.51818,12.28074,36.68626,19.11005,60.82083l-12.154.23714c-2.4624-.1457-2.447,1.24606-2.43573,2.99146.01172,1.82033-.17858,3.4144,2.56522,3.26977,3.855-.20315,7.73353.06492,11.59258-.09535L20.8172,67.135a95.15746,95.15746,0,0,0,9.674,11.93606c13.42365,14.1011,31.81,29.97089,47.58618,45.09061,2.13944,2.05039,3.21292,2.05587,5.34635.03121,15.94658-15.13408,32.14393-30.00542,48.02159-45.21042,7.97912-7.64107,12.69844-17.00677,12.4651-28.41843C143.77055,38.07308,138.93713,27.62383,128.86512,20.32249Zm-.55934,53.42665c-15.11542,14.26057-30.28227,28.467-45.34436,42.78348-1.676,1.593-2.53968,1.36465-4.07851-.09505-6.87072-6.51733-12.62551-11.93948-18.28994-17.271C53.90708,92.87352,47.3474,86.70705,39.23239,79.02c-.07933-.07517-.17658-.17213-.28155-.27856-1.80162-1.82639-7.17132-8.01176-9.34837-10.53048-.57789-.6686-.93422-1.08276-.93422-1.08276s.6877.01294,1.79865.02725c1.1657.015,2.799.03136,4.5993.03585q.66015.0017,1.34433.001c2.91764-.00342,6.05807-.04469,8.27552-.17448.90457-.05295,1.65972-.12021,2.1769-.20627l.85714-1.425,4.214-7.00569,1.57723-2.62213c2.89527,8.42489,6.30084,16.16165,9.213,24.50414.09008.2581.18406.51151.27315.77078C65.97824,76.6303,72.098,67.4252,73.5098,65.30056c.19015-.28619.29771-.44821.29771-.44821l2.26.04567,2.66238.05383.43619.00884c.03825.08743.07918.18044.11777.2686,3.50858,8.01566,8.50744,19.11637,12.26957,27.804,4.398-13.2102,8.59424-25.81447,13.036-39.15616L109.75,62.437l2.10886,3.49789,1.1171,1.853c5.66243-.14644,13.8912-.51894,20.198-.51894A21.60515,21.60515,0,0,1,128.30578,73.74914Zm8.49269-14.89664c-.56377,1.75087-1.29611,2.30541-3.037,2.27684l-17.41718.73073c-3.64-6.1629-9.18766-15.40991-13.17151-22.06088C101.068,46.13872,99.15638,51.94162,97.214,57.73427c-1.92687,5.7464-3.8846,13.163-5.8288,18.9036l-.797-1.67433L88.19054,69.9259l-5.365-10.47148L71.204,58.8588l-6.93466,9.80312c-3.524-10.45721-6.53427-19.3903-9.70787-28.80778C51.41,46.07346,48.27918,51.95046,45.4562,57.97152c-1.12677,2.40325-2.479,3.35594-5.16762,3.19352-4.11881-.24882-8.26424-.10511-12.39722-.046-1.49228.02135-2.48257-.253-2.90118-1.94186-3.0064-12.12944-.342-22.92178,8.60933-31.52657,8.65124-8.31626,19.002-11.63537,30.83262-7.13248,5.33194,2.02938,9.57887,5.80906,13.61948,9.63831,2.47916,2.34943,3.64413,1.73548,5.93508-.249,10.32186-8.94109,22.09922-13.039,35.46773-8.04374C133.51439,27.11735,141.38469,44.60965,136.79847,58.8525Z"/><path d="M338.92641,42.81931c-5.72016-.59752-10.97644,1.22256-16.56589,3.93891,0-10.79419.00235-20.90553-.002-31.01686-.00088-2.04409-.01842-4.4873-2.41327-4.89907a42.83453,42.83453,0,0,0-9.13159-.21561c-1.419.06463-1.34115,1.41365-1.1,2.50754,1.159,5.25638.82012,10.59247.8271,15.904.0276,21.16016.00117,42.32037.03317,63.48049.00224,1.50044-.65493,3.73982,1.39,4.10328,3.1.55093,6.73391,1.11587,8.98481-1.67223,1.62881-2.01742,2.561-1.19584,4.1109-.39248,11.15419,5.78171,24.25258,2.923,31.44905-6.85651,3.49281-4.74642,4.95852-10.22592,5.51966-16.00333C363.45058,57.05376,353.303,44.321,338.92641,42.81931ZM322.28569,62.40953c.15781-4.11915,1.53234-5.64582,4.78482-6.93109,10.64849-4.20781,20.254-.31105,22.809,9.3745,1.84319,6.98707-.81122,15.33337-6.05094,19.0259-5.074,3.57574-14.58843,3.42462-20.12518-.14444a2.95629,2.95629,0,0,1-1.3435-2.99775"/><path d="M534.73065,63.11413c-.15581-9.05461-4.83776-15.7955-13.31018-18.93066-7.75229-2.8686-15.16168-1.89154-22.25944,2.21281-1.10332.638-1.9888,1.78594-3.96216,1.72015,0-10.48432.003-20.73365-.00117-30.983-.0023-5.68631-6.66049-9.36752-11.70444-6.47664-1.21019.69361-.91395,1.76631-.69649,2.81063a50.34232,50.34232,0,0,1,.59128,10.348q-.00242,32.57382.00464,65.14764c.00733,9.26138-.68892,7.62339,7.8724,7.95725,3.31628.12929,4.05-1.15134,3.992-4.18353-.16584-8.65657-.41947-17.93522-.23871-25.96267.14833-6.58756,2.75811-9.49646,7.77651-11.705a24.98752,24.98752,0,0,1,6.11787-1.7157c8.30224-1.31224,14.0645,3.60261,14.12429,12.02276.06155,8.65925.03644,17.31944-.002,25.979-.00933,2.10671.12944,4.26569,2.39387,4.99456a17.361,17.361,0,0,0,9.39556.06795c.70816-.16911.60256-1.323.51473-2.15956C534.25118,83.89525,534.90933,73.49636,534.73065,63.11413Z"/><path d="M790.19766,62.82667c-.23412-8.18774-3.974-14.25261-11.39-17.78473-8.04331-3.83092-15.982-3.16984-23.732,1.07182-1.23208.67431-2.19326,1.94439-3.81416,1.94283-.86236-1.24278-.459-2.59951-.46554-3.866-.04186-8.121-.02135-16.24225-.02135-24.36337,0-9.4737-.799-10.11851-10.33646-9.40707-2.40863.17965-2.59463,1.30593-2.195,3.10985,1.13683,5.132.69239,10.33749.70294,15.51434.041,20.10305-.02149,40.20634.03463,60.30934.024,8.60035-1.26075,7.274,7.72332,7.56335,3.21722.10361,4.1679-1.03811,4.12311-4.13517-.14243-9.84981-.05158-19.703-.05349-29.55492-.00029-1.5886-.10848-3.096,1.42019-4.30349a25.10343,25.10343,0,0,1,8.61739-4.90259c9.46076-2.65974,18.43663,1.11837,17.70663,12.94722-.49109,7.95773-.07463,15.97032-.1056,23.95823-.0086,2.21286.03292,4.61635,2.40574,5.42773a17.19178,17.19178,0,0,0,9.39561.08318c.77054-.17535.74289-1.24644.63855-2.102C789.57351,83.85549,790.498,73.32819,790.19766,62.82667Z"/><path d="M233.18259,91.83c-5.4454-5.29155-10.94517-10.52726-16.38277-15.82667-2.47144-2.40872-6.71622-4.90615-6.73439-7.38838-.01837-2.49557,4.18524-5.05132,6.59211-7.529,4.27-4.39557,8.585-8.74742,12.87121-13.12731,1.41818-1.4492,2.66853-3.11723.03346-4.3963-3.12358-1.51616-10.78756.25752-13.23209,2.82318-6.33395,6.64774-12.64793,13.31453-19.72923,20.7736,0-17.1789.00025-33.25956-.00014-49.34022-.00015-7.238-.10141-7.33749-7.42214-7.33676-5.21628.00059-5.18316-.00308-4.63506,5.00018a44.20321,44.20321,0,0,1,.16173,4.78828q.01406,34.5701.00644,69.14009c0,7.51021.00254,7.36827,7.61611,7.50406,3.25615.05807,4.45951-.85461,4.34638-4.26506-.24027-7.2461-.07337-14.50568-.07337-22.75126,7.74658,7.75234,15.04089,14.54271,21.6941,21.911,3.69375,4.09077,7.6521,5.78879,12.92616,5.05323,1.39909-.19514,3.16031.37806,3.82271-1.38189C235.68452,93.77843,234.20093,92.81954,233.18259,91.83Z"/><path d="M418.645,52.10794a26.21584,26.21584,0,0,0-28.127-8.40374c-11.27933,3.59572-17.53939,11.59566-19.00466,23.25818A26.55549,26.55549,0,0,0,386.7282,94.73585c11.01058,4.98333,24.61775,2.65095,32.1686-5.39387,1.92915-2.05543,2.41448-3.71579.39682-6.1314-1.94171-2.32475-3.40366-1.60633-5.40238-.28662A24.24382,24.24382,0,0,1,396.731,86.63652c-6.70133-.91508-11.5345-5.52-12.55347-11.99145a14.18341,14.18341,0,0,1,1.57317-.17238c10.38995-.01182,20.7801.01993,31.16985-.02564,5.09074-.02228,7.46644-2.20636,7.289-6.85417A25.29459,25.29459,0,0,0,418.645,52.10794Zm-9.37553,13.33823c-3.85851-.09428-7.721-.02662-11.58178-.02662-3.86081-.00142-7.72318-.066-11.58183.024-2.15341.05026-2.42929-.72126-1.80451-2.63913,1.75722-5.39427,7.3246-9.346,13.5253-9.39541a14.02158,14.02158,0,0,1,13.52213,9.29562C412.12855,65.01828,411.41458,65.49858,409.26947,65.44617Z"/><path d="M584.88162,45.99413c-10.16189-5.45884-20.30317-4.71668-29.61212,2.27772-8.71166,6.54566-12.46032,18.51-9.36673,29.37,2.86953,10.07372,9.49881,16.55949,19.68888,18.86467,10.07148,2.2783,19.25358.316,26.87359-7.169,2.06759-2.0309,2.32833-3.74313.39653-6.1545-1.94889-2.4326-3.51552-1.57712-5.39549-.23138a22.25926,22.25926,0,0,1-8.03813,3.38344c-10.71726,2.50178-19.31365-1.97952-21.86808-11.72456,1.16062-.05793,2.08277-.143,3.005-.144,9.98668-.00972,19.97351.02579,29.96-.01934,5.27172-.02379,7.24278-2.04272,7.0961-7.30872C597.35884,57.71811,593.09315,50.40519,584.88162,45.99413Zm-2.02,19.454c-3.85583-.102-7.71624-.02853-11.5747-.02853-3.85851-.00171-7.71849-.06687-11.57485.02394-2.142.05041-2.44609-.72985-1.833-2.64079,1.71145-5.33458,7.37588-9.34979,13.5149-9.39775A14.05169,14.05169,0,0,1,584.91972,62.688C585.68317,64.95537,585.05282,65.5062,582.86161,65.44817Z"/><path d="M653.27886,61.48318c-.05778-10.61865-5.94265-17.256-16.13283-18.5079-8.93713-1.0979-17.45292,1.0134-25.56794,4.7642-1.37427.63519-2.43383,1.44281-1.97439,3.37568,1.55075,6.52426,3.01617,7.32865,9.10268,5.03183,5.75924-2.17329,11.62633-3.94526,17.89468-2.56244,3.28736.72521,5.15942,2.97958,5.10847,6.248-.05148,3.30666-3.26572,2.16538-4.95792,2.5262-7.55325,1.61054-15.16369,2.96747-21.99421,6.80478-6.457,3.62747-9.16871,9.7344-7.71668,16.85946,1.23814,6.07541,6.36327,10.1804,13.54694,11.045,7.99974.96284,15.35438-.51283,22.12331-5.7,2.23307,5.74336,2.42958,5.75826,8.70956,5.53337,2.32881-.08338,3.13809-.96343,2.85273-3.13828C652.86558,83.03406,653.33757,72.2591,653.27886,61.48318ZM635.732,86.14879c-4.047,1.42576-8.118,2.61417-12.46818,1.51759-2.19483-.55328-3.92719-1.58866-4.40031-4.04847a5.35864,5.35864,0,0,1,2.539-5.82807c5.7-3.79476,12.398-4.55881,18.85968-6.02652,1.20951-.27476,1.30452.538,1.32176,1.36177.03053,1.46351.00855,2.9281.00855,5.01136C641.44842,85.26107,639.81931,84.70883,635.732,86.14879Z"/><path d="M848.82544,43.30684c-3.5393-.11332-5.42787.82681-6.91429,4.25895C837.74325,57.1893,833.0826,66.59985,828.25,76.8734c-4.53239-9.20984-9.24174-17.57558-12.79008-26.40711-2.4184-6.01929-5.93-7.87855-12.0041-7.16731-4.30149.50369-4.566.4126-2.59331,4.22412,6.53617,12.62913,13.04129,25.2755,19.74022,37.81832a6.32659,6.32659,0,0,1,.019,6.58347,135.74973,135.74973,0,0,1-18.15113,27.59787c-1.96438,2.26848-2.27391,4.039.22337,5.97914a14.79111,14.79111,0,0,1,2.262,2.25281c2.32452,2.80325,4.22383,2.30028,6.40747-.35379a135.69,135.69,0,0,0,12.69581-18.361c10.92105-18.89417,19.52945-38.95316,29.35636-58.39913C857.06423,43.4208,856.9937,43.56841,848.82544,43.30684Z"/><path d="M297.30008,51.46308c-.0146-9.44171.79379-7.84553-8.07086-8.13152-3.02369-.09755-3.919.9902-3.87741,3.91107.13628,9.58224-.00664,19.16824.0952,28.75131.02291,2.16034-.42706,3.81782-2.18594,5.18833a29.09374,29.09374,0,0,1-7.4218,4.60468c-10.48358,3.98936-18.20178-1.18925-18.2792-12.32615-.049-7.05467-.17047-14.11452.02941-21.16387.282-9.949-1.16868-8.85181-9.97135-8.93074-1.76147-.01583-2.38757.70855-2.25466,2.392.808,10.2335-.04738,20.49752.46271,30.72677.53848,10.7985,5.63718,17.26473,15.16989,19.9824,8.71664,2.485,16.54552.34358,24.14629-5.02484a15.0401,15.0401,0,0,0,.442,1.83737c1.41764,3.5842,3.92508,4.53542,9.38192,3.56031,3.51508-.62815,2.27059-3.46174,2.28583-5.44345C297.35445,78.08619,297.32065,64.77439,297.30008,51.46308Z"/><path d="M720.67238,86.012c-6.22083.58355-8.23552-.96456-8.54281-7.4282-.29073-6.11337-.08113-12.25063-.08577-18.37743-.00415-5.48722,0-5.42533,5.33487-5.488,9.04362-.10619,7.94161,1.53732,8.02357-8.5263.01661-2.04443-.8713-2.88814-2.89605-2.82318-2.39686.077-4.80587-.10462-7.195.05085-2.19385.14278-3.10673-.5184-2.98842-2.86079.17462-3.45421.10091-6.92528.01411-10.38619-.03385-1.35033.50971-3.20705-1.5378-3.59992-1.97552-.379-2.33072,1.40759-2.87017,2.70351a45.24408,45.24408,0,0,1-13.53253,18.47869c-1.936,1.54078-2.68739,3.38065-1.96262,5.57953.75418,2.28822,2.969,1.41985,4.50835,1.32323,2.72109-.17072,3.47351.89,3.33494,3.45421-.18669,3.453-.04636,6.92368-.04133,10.38659a133.96219,133.96219,0,0,0,.46257,15.55908c.81968,7.05238,4.32084,11.57216,10.111,12.81411a23.72431,23.72431,0,0,0,11.47964-.21956c2.163-.60979,5.35607-.55054,4.53029-4.60028C725.49788,85.5731,725.62283,85.54765,720.67238,86.012Z"/><path d="M680.36332,18.12849c.00341-9.51283.07067-7.28122-7.69446-7.71648-3.42017-.19167-4.23281,1.04178-4.18973,4.285.16974,12.766.06955,25.53546.0696,38.30366s-.01548,25.53643.00792,38.30458c.00894,4.9019.88747,5.27044,6.86994,5.64738,4.41608.27823,5.00154-1.74857,4.9864-5.40716C680.31149,67.07346,680.35443,42.60088,680.36332,18.12849Z"/><path d="M470.614,44.96212c-8.32392-3.4758-16.092-2.65124-23.57714,3.24091-.39379-.89759-.60187-1.36314-.803-1.83171-1.99241-4.6441-6.14771-2.9896-9.42379-2.82929-3.34709.16383-1.8172,3.33587-1.83473,5.12088-.135,13.70364-.10805,27.40933-.06116,41.11414.02755,8.05459-1.02341,6.78866,6.91146,7.16238,3.95674.18634,5.05308-1.19018,4.95944-4.97923-.22352-9.0424.0106-18.0953-.11987-27.14136a9.053,9.053,0,0,1,2.96542-7.082c4.44891-4.26744,9.59211-5.00692,15.076-2.57533,2.4795,1.09942,3.97657.71158,5.25349-1.55168a20.36835,20.36835,0,0,1,2.24782-3.29063C474.51256,47.64243,473.37529,46.11517,470.614,44.96212Z"/></svg>