<?xml version="1.0" encoding="UTF-8"?>
<svg id="Layer_1" data-name="Layer 1" xmlns="http://www.w3.org/2000/svg" width="700" height="700" xmlns:xlink="http://www.w3.org/1999/xlink" viewBox="0 0 700 700">
  <defs>
    <style>
      .cls-1 {
        mask: url(#mask);
      }

      .cls-2, .cls-3 {
        stroke: #fff;
      }

      .cls-2, .cls-3, .cls-4, .cls-5, .cls-6, .cls-7, .cls-8, .cls-9, .cls-10 {
        fill: none;
      }

      .cls-2, .cls-3, .cls-9, .cls-10 {
        stroke-miterlimit: 10;
      }

      .cls-2, .cls-4, .cls-5, .cls-6, .cls-7, .cls-8, .cls-9, .cls-10 {
        stroke-width: 31.5px;
      }

      .cls-3 {
        stroke-width: 15.75px;
      }

      .cls-4 {
        stroke: url(#linear-gradient-3);
      }

      .cls-4, .cls-5, .cls-6, .cls-7, .cls-8 {
        stroke-linejoin: round;
      }

      .cls-5 {
        stroke: url(#linear-gradient-2);
      }

      .cls-6 {
        stroke: url(#linear-gradient-6);
      }

      .cls-7 {
        stroke: url(#linear-gradient-5);
      }

      .cls-11 {
        fill: #fff;
      }

      .cls-8 {
        stroke: url(#linear-gradient);
      }

      .cls-9 {
        stroke: url(#linear-gradient-4);
      }

      .cls-9, .cls-10 {
        stroke-linecap: round;
      }

      .cls-10 {
        stroke: url(#linear-gradient-7);
      }
    </style>
    <linearGradient id="linear-gradient" x1="109.4" y1="527" x2="605.5" y2="527" gradientTransform="translate(0 702) scale(1 -1)" gradientUnits="userSpaceOnUse">
      <stop offset="0" stop-color="#fff" stop-opacity="0"/>
      <stop offset="1" stop-color="#fff"/>
    </linearGradient>
    <linearGradient id="linear-gradient-2" x1="65.6" y1="264.5" x2="426.6" y2="264.5" gradientTransform="translate(0 702) scale(1 -1)" gradientUnits="userSpaceOnUse">
      <stop offset="0" stop-color="#fff" stop-opacity="0"/>
      <stop offset="1" stop-color="#fff"/>
    </linearGradient>
    <linearGradient id="linear-gradient-3" x1="43.8" y1="352" x2="601.6" y2="352" gradientTransform="translate(0 702) scale(1 -1)" gradientUnits="userSpaceOnUse">
      <stop offset="0" stop-color="#fff" stop-opacity="0"/>
      <stop offset="1" stop-color="#fff"/>
    </linearGradient>
    <linearGradient id="linear-gradient-4" x1="514.05" y1="8.15" x2="514.05" y2="599.75" gradientTransform="translate(0 702) scale(1 -1)" gradientUnits="userSpaceOnUse">
      <stop offset=".1" stop-color="#6f6f6f"/>
      <stop offset=".294" stop-color="#494949"/>
      <stop offset=".5255" stop-color="#212121"/>
      <stop offset=".7101" stop-color="#090909"/>
      <stop offset=".8232" stop-color="#000"/>
    </linearGradient>
    <linearGradient id="linear-gradient-5" x1="65.6" y1="439.5" x2="426.6" y2="439.5" gradientTransform="translate(0 702) scale(1 -1)" gradientUnits="userSpaceOnUse">
      <stop offset="0" stop-color="#fff" stop-opacity="0"/>
      <stop offset="1" stop-color="#fff"/>
    </linearGradient>
    <linearGradient id="linear-gradient-6" x1="109.5" y1="177" x2="605.5" y2="177" gradientTransform="translate(0 702) scale(1 -1)" gradientUnits="userSpaceOnUse">
      <stop offset="0" stop-color="#fff" stop-opacity="0"/>
      <stop offset="1" stop-color="#fff"/>
    </linearGradient>
    <linearGradient id="linear-gradient-7" x1="428.8878" y1="51.2594" x2="106.9899" y2="608.8029" gradientTransform="translate(0 702) scale(1 -1)" gradientUnits="userSpaceOnUse">
      <stop offset=".05" stop-color="#6f6f6f"/>
      <stop offset=".7" stop-color="#fff"/>
    </linearGradient>
    <mask id="mask" x="0" y="0" width="700" height="700" maskUnits="userSpaceOnUse">
      <g id="hexagon">
        <g>
          <g>
            <line class="cls-8" x1="109.4" y1="175" x2="605.5" y2="175"/>
            <line class="cls-5" x1="65.6" y1="437.5" x2="426.6" y2="437.5"/>
            <line class="cls-4" x1="43.8" y1="350" x2="601.6" y2="350"/>
            <path class="cls-9" d="M350,678.1c181.2,0,328.1-146.9,328.1-328.1,0-90.6-36.7-172.6-96.1-232"/>
            <line class="cls-7" x1="65.6" y1="262.5" x2="426.6" y2="262.5"/>
            <path class="cls-2" d="M627.6,175C569.5,83,466.9,21.9,350,21.9"/>
            <line class="cls-6" x1="109.5" y1="525" x2="605.5" y2="525"/>
            <path class="cls-10" d="M350,21.9C168.8,21.9,21.9,168.8,21.9,350s146.9,328.1,328.1,328.1"/>
          </g>
          <g>
            <path d="M649.2,525c0,12.1-9.8,21.9-21.9,21.9s-21.9-9.8-21.9-21.9,9.8-21.9,21.9-21.9,21.9,9.8,21.9,21.9Z"/>
            <path d="M649.2,175c0,12.1-9.8,21.9-21.9,21.9s-21.9-9.8-21.9-21.9,9.8-21.9,21.9-21.9,21.9,9.8,21.9,21.9Z"/>
          </g>
        </g>
      </g>
    </mask>
  </defs>
  <g class="cls-1">
    <polygon id="hexagon-2" data-name="hexagon" class="cls-11" points="0 0 0 700 700 700 700 0 0 0"/>
  </g>
  <path class="cls-3" d="M470.3,437.5c0,12.1-9.8,21.9-21.9,21.9s-21.9-9.8-21.9-21.9,9.8-21.9,21.9-21.9,21.9,9.8,21.9,21.9ZM623.4,328.1c-12.1,0-21.9,9.8-21.9,21.9s9.8,21.9,21.9,21.9,21.9-9.8,21.9-21.9-9.8-21.9-21.9-21.9ZM448.4,240.6c-12.1,0-21.9,9.8-21.9,21.9s9.8,21.9,21.9,21.9,21.9-9.8,21.9-21.9-9.8-21.9-21.9-21.9ZM627.4,153.1c-12.1,0-21.9,9.8-21.9,21.9s9.8,21.9,21.9,21.9,21.9-9.8,21.9-21.9-9.9-21.9-21.9-21.9ZM627.4,503.1c-12.1,0-21.9,9.8-21.9,21.9s9.8,21.9,21.9,21.9,21.9-9.8,21.9-21.9-9.9-21.9-21.9-21.9Z"/>
</svg>