<?xml version="1.0" encoding="UTF-8"?>
<svg id="Layer_1" data-name="Layer 1" xmlns="http://www.w3.org/2000/svg" viewBox="0 0 454.51001 191.98859">
  <defs>
    <style>
      .cls-1 {
        fill: #fff;
      }

      .cls-2 {
        fill: #0828b2;
      }
    </style>
  </defs>
  <rect class="cls-1" x="162.47099" y="37.15132" width="277.55956" height="130.98676"/>
  <g>
    <path class="cls-2" d="m179.47057,67.63228h20.63148v28.82059l24.56731-28.82059h24.35209l-27.01274,30.52351,29.14073,42.53814h-24.67223l-18.82364-27.65033-7.55152,8.29671v19.35362h-20.63148v-73.06165Z"/>
    <path class="cls-2" d="m265.38319,104.11199c0-20.52656,18.18605-37.75489,39.77526-37.75489,11.69718,0,22.33441,4.99847,29.6707,12.86744l-15.20795,13.29519c-3.40316-4.4685-8.71908-7.4466-14.46275-7.4466-9.99695,0-18.5035,8.72177-18.5035,19.03886,0,10.42201,8.50655,19.14109,18.5035,19.14109,5.84859,0,11.05959-2.9781,14.57036-7.44391l15.10034,13.18758c-7.3363,7.97657-17.97352,12.97505-29.6707,12.97505-21.58921,0-39.77526-17.33593-39.77526-37.85981Z"/>
    <path class="cls-2" d="m356.30807,67.63228h27.22527c25.52235,0,43.60348,15.10303,43.60348,36.47971,0,21.37399-18.08113,36.58194-43.60348,36.58194h-27.22527v-73.06165Zm30.62843,54.34562c11.05959,0,18.92856-7.44391,18.92856-17.86591,0-10.4247-7.86896-17.76099-18.92856-17.76099h-9.99695v35.6269h9.99695Z"/>
  </g>
  <path class="cls-2" d="m14.85799,123.4645c1.8339,7.1878,3.46135,14.38395,6.65215,21.21272,2.77026,5.92875,6.35237,10.75092,11.92321,14.22657,5.17407,3.2281,10.07018,6.90193,15.24646,10.12621,3.86772,2.40919,6.18433,5.5223,6.43589,10.1543.0716,1.31834.63841,2.60978.97813,3.91356h15.85994c.51689-1.17066.7273-2.36652.56062-3.66365-.83258-6.47911-1.52021-12.97858-2.4599-19.44166-.77955-5.36173-3.31252-9.7738-8.09208-12.58553-3.62661-2.13348-7.25766-4.3141-11.08108-6.04427-4.57101-2.06845-8.24548-4.90988-10.82699-9.27166-1.51898-2.5665-3.67256-4.60157-6.62351-5.61462-1.14397-.3927-2.21582-.71856-3.26306.18702-1.14882.99343-1.0405,2.298-.68419,3.50869.69475,2.36067,2.23882,4.27038,3.63549,6.24886,2.19806,3.1137,4.52867,6.14582,6.67565,10.35546-3.71352-2.35381-7.69191-3.05954-9.67092-5.96173-2.99965-4.39896-5.54504-9.16127-6.97911-14.44009-1.12797-4.15207-.29479-8.42929-1.25286-12.55467-.34834-1.49996-.89937-2.96687-2.68329-3.05333-1.82574-.08849-2.09962,1.55189-2.40436,2.83614-.72553,3.05754-1.3067,6.14933-1.94619,9.22728,0,.21146,0,.42293,0,.6344Zm90.71884,59.63336c1.90243-1.23633,1.63604-3.36141,1.80614-5.12187.3446-3.56667,2.04205-6.06283,4.92609-8.01108,6.6274-4.47701,13.18277-9.06074,19.81552-13.5297,3.06371-2.06424,5.22092-4.78142,6.83042-8.0819,3.70086-7.58908,6.9723-15.30259,7.9684-23.79251.04466-.38068.34333-.73156.52367-1.09631v-.6344c-.65721-3.18417-1.2464-6.38472-2.00689-9.54403-.28321-1.17658-.66693-2.60244-2.34462-2.54574-1.68277.05687-2.30885,1.33669-2.61397,2.72155-.27113,1.23065-.51996,2.51874-.45077,3.76324.42165,7.58211-2.52678,14.07522-5.88394,20.64465-2.48873,4.87007-7.09667,5.88588-11.14453,8.15666,2.31226-4.01454,4.88363-7.73888,7.45986-11.45986.95997-1.38653,2.02705-2.75299,2.32996-4.43761.21487-1.19496.54165-2.55498-.67955-3.52019-1.16652-.922-2.37805-.59048-3.58352-.07044-2.81144,1.21287-4.98685,3.20846-6.48996,5.81055-2.36975,4.10235-5.87512,6.73316-10.07686,8.72383-3.61026,1.71046-7.10873,3.66704-10.59971,5.61671-5.33508,2.97956-8.24964,7.58788-9.16428,13.61931-.85338,5.62739-1.6145,11.25949-2.1105,16.93008-.17282,1.97579-.75615,3.94619.26348,5.85906h15.22554ZM79.32543,9.83065c-31.91446,0-57.87862,25.96416-57.87862,57.87862s25.96416,57.87862,57.87862,57.87862,57.87862-25.96416,57.87862-57.87862S111.23989,9.83065,79.32543,9.83065Zm51.89934,39.92138c-.09216.84657-.26911,1.72793-1.01884,1.98943-1.0345.36636-1.87495-.80823-2.7586-1.45477-1.58406-1.14228-3.78248-.60347-5.64663-.02156-2.27384.72201-4.75236,1.59486-5.98072,3.6423-1.08832,1.84268-1.0237,4.41817-2.73718,5.68974-1.0021.75432-2.41389.80818-3.59905.40947-1.19632-.39871-2.20922-1.2069-3.1251-2.069-1.31477-1.22846-2.51091-2.66167-3.07127-4.37506-.56036-1.71339-.36631-3.76083.84063-5.09707,2.41371-2.65087,7.47856-1.50864,9.52595-4.43973,1.09912-1.5625.84045-3.70692.16165-5.47418-.68961-1.77806-1.7457-3.41603-2.17682-5.26952-.58178-2.46771.054-5.18325,1.65966-7.13371.26011-.3156.54758-.60946.85449-.8823,7.74947,6.37039,13.71813,14.82166,17.07183,24.48595Zm-98.20785,22.66864c1.87495-1.2177,2.72638,1.83188,2.0798,3.06038-.47414.92672-1.33619,1.5625-2.17664,2.17673-.61436.45263-1.22855.90521-1.84291,1.35779-.32329.22631-.6572.46338-1.03432.58192-.37729.11853-.82983.07542-1.12072-.1832-.50654-.46338-.30169-1.32543.17245-1.81037.47414-.47414,1.14214-.72201,1.6917-1.09917,1.47641-1.01294,1.0561-3.31901,2.23064-4.08408Zm-.36631-11.88597c-.05382-.66814.30169-1.31468.77583-1.78882.47414-.48494,1.0669-.82979,1.59486-1.25001,1.49784-1.14228,2.57554-2.8018,3.07109-4.62293.30169-1.13148-.26929-3.90092,1.48722-3.93324.86205-.02156,1.58406.72196,1.81033,1.54095.21547.82974.0216,1.70264-.25867,2.51082-1.12072,3.20047-3.60985,5.68974-6.02374,8.07123-.32329.32329-.67899.65734-1.13152.71125-.66818.07542-1.27157-.56036-1.32539-1.23926Zm1.15294,21.45508c.96988-.65734,2.29544-1.32548,3.23292-.62503,1.21757.90521.36631,2.9634,1.10992,4.28888.73263,1.31463,2.56473,1.33619,3.92235,1.96122,2.1554,1.00219,3.08207,3.76083,2.52171,6.0669-.56036,2.30607-2.29526,4.1703-4.26742,5.50654-1.14214.77587-2.42451,1.43321-3.8039,1.55175-.35965.02732-.71463.01364-1.06672-.02183-3.29916-4.37407-5.9566-9.25554-7.84037-14.50377,2.06378-1.41287,4.12773-2.81971,6.19151-4.22467Zm17.45723,13.5239c-.59276,2.92029-2.10122,5.63587-4.26742,7.67251-.40934.37716-.84045.74356-1.36841.92676-.52814.1832-1.15312.16165-1.58406-.1832-.54974-.44183-.63578-1.28237-.38809-1.93966.24805-.66814.75441-1.18539,1.23935-1.69184.50636-.51725,1.0021-1.02374,1.49784-1.53024,1.01308-1.0345,2.123-2.17673,2.61856-3.56683.28027-.78667-.05382-2.93109,1.43321-2.35998.47414.1832.78681.66814.89445,1.16383.09702.49569.0216,1.01294-.07542,1.50864Zm41.76785-24.65556c-.26929.40947-.78663.61423-1.28237.63578s-.9805-.10778-1.45481-.24782c-1.89655-.51725-3.66368-1.4009-5.5388-.66814-1.17454.45258-3.89012,1.59486-4.18101-.64654-.11862-.88365.668-1.68108,1.53024-1.87504.86205-.19396,1.75651.06467,2.58616.37716.82965.30174,1.65948.66809,2.55393.68965.85125.02156,1.67028-.28018,2.50011-.48489.82965-.20476,1.7457-.30174,2.51073.07542.76503.38791,1.24997,1.42241.77583,2.14442Zm13.41626-34.44018c-.61418-2.26295.54956-2.85567,2.38149-1.13148.75423.70041,1.27157,1.61637,1.60566,2.58625.54956,1.5625.6572,3.34056-.0216,4.8492-.67899,1.50864-2.21984,2.68322-3.8795,2.62936-.70023-.02156-1.47623-.34485-1.6701-1.01294-.22645-.79743.45254-1.53019.95908-2.18753,1.33619-1.77806,1.16374-3.72852.62498-5.73285Zm-12.47878-13.47003c.42032-.23707.91605-.30174,1.39019-.3556,1.20694-.12933,2.41389-.25862,3.62083-.39871.47414-.05391.94828-.10778,1.41161,0,.74343.1616,1.39001.73276,1.62708,1.46552s.054,1.5733-.46334,2.14442c-.86205.95908-2.39229.96983-3.61003.5388-.9697-.33405-1.83175-.90516-2.7694-1.32543-.54956-.25862-1.7241-.12933-1.86415-.89441-.07542-.46338.24787-.93752.6572-1.17459Zm6.26099,15.73299c.10764-.65734.52796-2.16598,1.42241-2.11211.29089.02156.56036.1832.78663.37716.51734.43107.88365,1.05605.93747,1.73495.054.66809-.24787,1.36855-.80823,1.7457-.56018.3664-1.37921.34485-1.86415-.11853-.43112-.39871-.56036-1.04525-.47414-1.62717Zm-33.88949-24.33614c2.25188,2.76504,3.73406,6.39397,6.97094,7.80572,3.99795,1.75651,8.89017-.71121,12.90972.96983,2.32749.98063,3.93315,3.22203,4.74138,5.61432.79743,2.39229.90525,4.95698,1.00228,7.47856.14005,3.63154.11844,7.69407-2.42469,10.28032-1.90735,1.93971-4.77378,2.52162-7.09064,3.94404-2.31687,1.43321-4.08417,4.71991-2.31687,6.77815,1.14232,1.33619,3.57763,2.07975,3.25452,3.8039-.23725,1.29312-2.00455,1.67033-3.22212,1.17459-1.21775-.48489-2.16602-1.48708-3.37296-2.01508-3.23274-1.4009-7.15526,1.61637-7.50016,5.12938-.33391,3.51297,2.069,6.83202,5.09707,8.64239,3.02807,1.79957,6.60588,2.40304,10.09729,2.97416,3.48061.57112,7.05824,1.17459,10.08631,2.98496,3.01727,1.82117,5.40956,5.16174,5.04325,8.66395-.47414,4.50435-5.02183,7.54322-6.22859,11.90749-.85143,3.08194.08622,6.33632.16165,9.5368.06462,3.20047-1.33637,6.98286-4.47209,7.60789-3.1251.62498-5.8729-2.32762-6.9506-5.32338-1.06672-3.00652-1.21775-6.34708-2.82322-9.10573-2.12282-3.6531-6.29321-5.47423-9.96787-7.58634-3.67466-2.10131-7.41393-5.33414-7.40313-9.56911,0-2.9634,1.86433-5.54965,3.27594-8.16825,1.40081-2.61856,2.34909-5.99143.63578-8.41608-1.88575-2.66167-5.76525-2.64011-8.99799-2.32762-3.24354.32329-7.10144.39871-9.04119-2.21984-1.86415-2.51082-.79743-6.18543,1.12072-8.65315s4.56911-4.32119,6.28259-6.93975c1.7241-2.6078,2.16584-6.55184-.24805-8.55617-1.96117-1.62722-4.92462-1.23926-7.27371-.24787-2.35989,1.00219-4.53671,2.51082-7.05842,2.93109-3.24426.53736-6.70705-1.01519-8.53232-3.73158,7.44796-12.51762,19.72441-21.83269,34.24519-25.36757Zm-36.51777,29.57415c.33103.30367.641.62993.89103,1.00133,1.13152,1.64873,1.35779,3.86857.59276,5.7113-.51734,1.23921-1.42241,2.28451-1.98295,3.50221-.87267,1.88579-.81885,4.05177-.75423,6.13152.07542,2.28455.14005,4.56906.21565,6.86433.04302,1.55175.09684,3.12505-.22645,4.65524-.31249,1.53024-1.0453,3.01732-2.27366,3.96559-.36451.28032-.76701.50231-1.18354.69397-.45686-2.84622-.70239-5.7621-.70239-8.73514,0-8.51751,1.94875-16.58842,5.42378-23.79036Zm95.80801,53.28548c-1.18048-1.94911-2.09348-4.06343-2.68498-6.25973-.49574-1.87504-.85125-3.94404-2.26286-5.28027-2.34927-2.21984-6.25019-1.22846-9.20284-2.54313-2.069-.92676-3.49141-2.97421-4.11639-5.15094-.62498-2.18753-.53876-4.51515-.23707-6.76735.36631-2.78025,1.25015-5.81908,3.67466-7.24149,2.87723-1.68108,6.78895-.40952,9.6876-2.04744,2.58634-1.45477,3.66386-4.84924,6.33641-6.14237,1.91923-.93009,4.09029-.53156,6.16001.21344.82533,3.78018,1.27247,7.70005,1.27247,11.72415,0,10.85049-3.1755,20.96727-8.627,29.49513Z"/>
</svg>