<?xml version="1.0" encoding="utf-8"?>
<!-- Generator: Adobe Illustrator 21.1.0, SVG Export Plug-In . SVG Version: 6.00 Build 0)  -->
<svg version="1.1"
	 id="svg2" inkscape:export-filename="/home/thockin/src/kubernetes/kubernetes.png" inkscape:export-xdpi="250.55" inkscape:export-ydpi="250.55" inkscape:version="0.48.4 r9939" sodipodi:docname="name_white.svg" xmlns:cc="http://creativecommons.org/ns#" xmlns:dc="http://purl.org/dc/elements/1.1/" xmlns:inkscape="http://www.inkscape.org/namespaces/inkscape" xmlns:rdf="http://www.w3.org/1999/02/22-rdf-syntax-ns#" xmlns:sodipodi="http://sodipodi.sourceforge.net/DTD/sodipodi-0.dtd" xmlns:svg="http://www.w3.org/2000/svg"
	 xmlns="http://www.w3.org/2000/svg" xmlns:xlink="http://www.w3.org/1999/xlink" x="0px" y="0px" viewBox="0 0 319 243"
	 style="enable-background:new 0 0 319 243;" xml:space="preserve">
<style type="text/css">
	.st0{fill:#FFFFFF;}
	.st1{fill:none;stroke:#FFFFFF;stroke-width:25.5638;stroke-linejoin:round;}
	.st2{fill:#326CE5;}
	.st3{fill:none;stroke:#FFFFFF;stroke-width:6.510000e-02;}
</style>
<g id="layer1" transform="translate(-6.1051208,-305.36552)" inkscape:groupmode="layer" inkscape:label="Layer 1">
	<g id="text4373">
		<path id="path2985" d="M17.4,523.4c0.9-0.9,1.8-1.9,2.7-3c0.9-1,1.9-2,2.7-3c0.9-1,1.7-2,2.4-2.9c0.8-0.9,1.5-1.7,2-2.4h10.5
			c-2.1,2.4-4.1,4.7-6.2,6.9c-2,2.2-4.1,4.4-6.5,6.7c1.2,1.1,2.4,2.3,3.7,3.8c1.3,1.5,2.5,3,3.7,4.6c1.2,1.6,2.3,3.2,3.3,4.7
			c1,1.6,1.8,3,2.5,4.3H28c-0.6-1-1.4-2.1-2.2-3.4c-0.8-1.3-1.6-2.5-2.5-3.7c-0.9-1.3-1.9-2.5-2.9-3.6c-1-1.1-2-2.1-3-2.9v13.6H8.5
			v-44.5l8.8-1.4L17.4,523.4"/>
		<path id="path2987" d="M68.8,542.2c-1.5,0.4-3.4,0.8-5.8,1.2c-2.4,0.4-4.9,0.6-7.5,0.6c-2.6,0-4.9-0.4-6.6-1.1
			c-1.7-0.7-3.1-1.7-4.1-3c-1-1.3-1.8-2.8-2.2-4.6c-0.4-1.8-0.7-3.7-0.7-5.9v-17.3h8.8v16.3c0,2.8,0.4,4.9,1.1,6.2
			c0.8,1.3,2.2,1.9,4.2,1.9c0.6,0,1.3,0,2-0.1c0.7-0.1,1.3-0.2,1.9-0.2v-24h8.8L68.8,542.2"/>
		<path id="path2989" d="M97,527.4c0-5.7-2.1-8.5-6.3-8.5c-0.9,0-1.8,0.1-2.7,0.4c-0.9,0.2-1.6,0.5-2.1,0.9v16
			c0.4,0.1,1,0.2,1.7,0.2c0.7,0,1.4,0.1,2.2,0.1c2.4,0,4.2-0.8,5.4-2.5C96.4,532.4,97,530.2,97,527.4 M106,527.7
			c0,2.5-0.4,4.7-1.1,6.7c-0.7,2-1.8,3.7-3.1,5.1c-1.4,1.4-3.1,2.5-5.1,3.3c-2,0.8-4.3,1.1-6.9,1.1c-1.1,0-2.2-0.1-3.4-0.2
			c-1.1-0.1-2.3-0.2-3.4-0.4c-1.1-0.2-2.2-0.3-3.2-0.5c-1-0.2-1.9-0.5-2.7-0.7v-43.5l8.8-1.4v15.5c1-0.4,2-0.8,3.1-1
			c1.1-0.2,2.2-0.4,3.4-0.4c2.2,0,4.2,0.4,5.9,1.2c1.7,0.8,3.1,1.8,4.3,3.3c1.1,1.4,2,3.1,2.6,5.1C105.7,523,106,525.2,106,527.7"/>
		<path id="path2991" d="M111.3,527.9c0-2.8,0.4-5.2,1.2-7.2c0.9-2.1,2-3.8,3.4-5.2c1.4-1.4,3-2.4,4.7-3.1c1.8-0.7,3.7-1.1,5.6-1.1
			c4.4,0,7.9,1.4,10.5,4.1c2.6,2.7,3.8,6.6,3.8,11.9c0,0.5,0,1.1-0.1,1.7c0,0.6-0.1,1.1-0.1,1.6h-20c0.2,1.8,1,3.3,2.5,4.3
			s3.5,1.6,6,1.6c1.6,0,3.2-0.1,4.7-0.4c1.6-0.3,2.9-0.7,3.8-1.1l1.2,7.2c-0.5,0.2-1.1,0.5-1.9,0.7s-1.7,0.4-2.7,0.6
			c-0.9,0.2-2,0.4-3.1,0.5s-2.2,0.2-3.3,0.2c-2.8,0-5.2-0.4-7.3-1.2c-2.1-0.8-3.8-2-5.1-3.4c-1.3-1.5-2.3-3.2-3-5.1
			C111.6,532.3,111.3,530.2,111.3,527.9 M132,524.5c0-0.8-0.2-1.5-0.4-2.2c-0.2-0.7-0.5-1.3-1-1.9c-0.4-0.6-1-1-1.7-1.4
			c-0.7-0.4-1.5-0.5-2.5-0.5c-1,0-1.8,0.2-2.5,0.5c-0.7,0.3-1.3,0.8-1.8,1.3s-0.8,1.2-1.1,2c-0.2,0.7-0.4,1.4-0.5,2.2H132"/>
		<path id="path2993" d="M166.1,519.9c-0.8-0.2-1.7-0.4-2.8-0.6c-1.1-0.2-2.2-0.4-3.4-0.4c-0.6,0-1.2,0.1-2,0.2
			c-0.8,0.1-1.3,0.2-1.7,0.3v23.8h-8.8v-29.5c1.6-0.6,3.4-1.1,5.6-1.5c2.2-0.5,4.6-0.8,7.2-0.8c0.5,0,1,0,1.7,0.1
			c0.7,0,1.3,0.1,2,0.2c0.7,0.1,1.3,0.2,2,0.4c0.7,0.1,1.2,0.3,1.7,0.5L166.1,519.9"/>
		<path id="path2995" d="M172.3,513.2c1.5-0.4,3.4-0.8,5.8-1.2c2.4-0.4,4.9-0.6,7.5-0.6c2.6,0,4.8,0.4,6.6,1.1
			c1.8,0.7,3.2,1.6,4.2,2.9s1.8,2.8,2.2,4.5c0.4,1.7,0.7,3.7,0.7,5.8v17.6h-8.8v-16.5c0-2.8-0.4-4.9-1.1-6c-0.8-1.2-2.1-1.8-4.2-1.8
			c-0.6,0-1.3,0-2,0.1c-0.7,0-1.3,0.1-1.9,0.2v24h-8.8L172.3,513.2"/>
		<path id="path2997" d="M205.8,527.9c0-2.8,0.4-5.2,1.2-7.2c0.9-2.1,2-3.8,3.4-5.2c1.4-1.4,3-2.4,4.7-3.1c1.8-0.7,3.7-1.1,5.6-1.1
			c4.4,0,7.9,1.4,10.5,4.1c2.6,2.7,3.8,6.6,3.8,11.9c0,0.5,0,1.1-0.1,1.7c0,0.6-0.1,1.1-0.1,1.6h-20c0.2,1.8,1,3.3,2.5,4.3
			s3.5,1.6,6,1.6c1.6,0,3.2-0.1,4.7-0.4c1.6-0.3,2.9-0.7,3.8-1.1l1.2,7.2c-0.5,0.2-1.1,0.5-1.9,0.7s-1.7,0.4-2.7,0.6
			c-0.9,0.2-2,0.4-3.1,0.5s-2.2,0.2-3.3,0.2c-2.8,0-5.2-0.4-7.3-1.2c-2.1-0.8-3.8-2-5.1-3.4c-1.3-1.5-2.3-3.2-3-5.1
			C206.1,532.3,205.8,530.2,205.8,527.9 M226.5,524.5c0-0.8-0.2-1.5-0.4-2.2c-0.2-0.7-0.5-1.3-1-1.9c-0.4-0.6-1-1-1.7-1.4
			c-0.7-0.4-1.5-0.5-2.5-0.5c-1,0-1.8,0.2-2.5,0.5c-0.7,0.3-1.3,0.8-1.8,1.3c-0.5,0.6-0.8,1.2-1.1,2c-0.2,0.7-0.4,1.4-0.5,2.2H226.5
			"/>
		<path id="path2999" d="M241.5,504.4l8.8-1.4v9.2h10.6v7.3h-10.6v10.9c0,1.9,0.3,3.3,0.9,4.4c0.7,1.1,2,1.7,4,1.7
			c0.9,0,1.9-0.1,2.9-0.2c1-0.2,2-0.5,2.8-0.8l1.2,6.9c-1.1,0.4-2.2,0.8-3.6,1.1c-1.3,0.3-2.9,0.5-4.8,0.5c-2.4,0-4.4-0.3-6-0.9
			c-1.6-0.7-2.8-1.6-3.8-2.7c-0.9-1.2-1.6-2.6-2-4.3c-0.4-1.7-0.5-3.5-0.5-5.5L241.5,504.4"/>
		<path id="path3001" d="M265.4,527.9c0-2.8,0.4-5.2,1.2-7.2c0.9-2.1,2-3.8,3.4-5.2c1.4-1.4,3-2.4,4.7-3.1c1.8-0.7,3.7-1.1,5.6-1.1
			c4.4,0,7.9,1.4,10.5,4.1c2.6,2.7,3.8,6.6,3.8,11.9c0,0.5,0,1.1-0.1,1.7c0,0.6-0.1,1.1-0.1,1.6h-20c0.2,1.8,1,3.3,2.5,4.3
			s3.5,1.6,6,1.6c1.6,0,3.2-0.1,4.7-0.4c1.6-0.3,2.9-0.7,3.8-1.1l1.2,7.2c-0.5,0.2-1.1,0.5-1.9,0.7s-1.7,0.4-2.7,0.6
			c-0.9,0.2-2,0.4-3.1,0.5c-1.1,0.1-2.2,0.2-3.3,0.2c-2.8,0-5.2-0.4-7.3-1.2c-2.1-0.8-3.8-2-5.1-3.4c-1.3-1.5-2.3-3.2-3-5.1
			C265.7,532.3,265.4,530.2,265.4,527.9 M286.1,524.5c0-0.8-0.2-1.5-0.4-2.2c-0.2-0.7-0.5-1.3-1-1.9c-0.4-0.6-1-1-1.7-1.4
			c-0.7-0.4-1.5-0.5-2.5-0.5c-1,0-1.8,0.2-2.5,0.5c-0.7,0.3-1.3,0.8-1.8,1.3c-0.5,0.6-0.8,1.2-1.1,2c-0.2,0.7-0.4,1.4-0.5,2.2H286.1
			"/>
		<path id="path3003" d="M310.4,536.9c1.6,0,2.8-0.2,3.4-0.5c0.7-0.3,1-0.9,1-1.8c0-0.7-0.4-1.3-1.3-1.8c-0.9-0.6-2.2-1.2-4-1.8
			c-1.4-0.5-2.6-1-3.8-1.6c-1.1-0.6-2.1-1.2-2.8-2c-0.8-0.8-1.4-1.7-1.8-2.8c-0.4-1.1-0.7-2.3-0.7-3.8c0-2.9,1.1-5.2,3.3-6.9
			c2.2-1.7,5.1-2.5,8.9-2.5c1.9,0,3.7,0.2,5.4,0.5c1.7,0.3,3.1,0.7,4.1,1.1l-1.5,6.9c-1-0.4-2.1-0.7-3.4-0.9c-1.2-0.3-2.5-0.4-4-0.4
			c-2.8,0-4.1,0.8-4.1,2.3c0,0.4,0.1,0.7,0.2,0.9c0.1,0.3,0.4,0.6,0.7,0.8c0.4,0.2,0.8,0.5,1.4,0.8c0.6,0.3,1.4,0.6,2.4,0.9
			c1.9,0.7,3.5,1.4,4.8,2.1c1.3,0.7,2.2,1.4,3,2.2c0.8,0.8,1.3,1.7,1.5,2.7c0.3,1,0.5,2.1,0.5,3.4c0,3.1-1.2,5.4-3.5,7
			c-2.3,1.6-5.5,2.4-9.8,2.4c-2.8,0-5.1-0.2-6.9-0.7c-1.8-0.5-3.1-0.9-3.8-1.2l1.5-7.2c1.5,0.6,3,1.1,4.6,1.4
			C307.3,536.8,308.9,536.9,310.4,536.9"/>
	</g>
</g>
<g>
	<polygon class="st0" points="160,12.3 227.1,44.3 243.7,116.4 197.2,174.1 122.7,174.2 76.3,116.4 92.8,44.3 	"/>
	<polygon class="st1" points="160,12.3 227.1,44.3 243.7,116.4 197.2,174.1 122.7,174.2 76.3,116.4 92.8,44.3 	"/>
	<path class="st2" d="M159.3,4.5c-1.6,0.1-3.2,0.5-4.7,1.2L91.1,36.1c-3.3,1.6-5.8,4.7-6.6,8.2l-15.7,68.2c-0.7,3.1-0.1,6.5,1.7,9.2
		c0.2,0.3,0.4,0.7,0.7,1l44,54.7c2.3,2.8,5.9,4.5,9.5,4.5l70.6,0c3.6,0,7.2-1.7,9.5-4.5l44-54.7c2.3-2.8,3.2-6.7,2.4-10.2
		l-15.7-68.2c-0.8-3.5-3.3-6.6-6.6-8.2L165.2,5.7C163.4,4.8,161.4,4.4,159.3,4.5z"/>
	<path class="st0" d="M159.8,114.5c0.5,0,1.1,0.1,1.6,0.3c0.7,0.3,1.2,0.8,1.5,1.4h0.1l9.7,17.5c-1.3,0.4-2.6,0.8-3.9,1.1
		c-7.4,1.7-14.8,1.2-21.5-1.1l9.7-17.5h0C157.6,115.2,158.7,114.5,159.8,114.5z M143.2,106.4c1.5,0,2.9,1.1,3.2,2.6
		c0.2,0.7,0.1,1.4-0.2,2.1l0.1,0.1l-7.6,18.4c-7.1-4.6-12.8-11.4-15.8-19.8l19.6-3.3l0,0C142.8,106.5,143,106.4,143.2,106.4z
		 M176.5,106.4c0.3,0,0.5,0,0.8,0.1l0,0l19.8,3.3c-2.9,8.1-8.5,15.2-15.9,19.9l-7.7-18.6l0,0c-0.7-1.6,0-3.6,1.6-4.4
		C175.7,106.5,176.1,106.4,176.5,106.4z M156.9,90.1h6.1l3.8,4.8l-1.4,5.9l-5.5,2.6l-5.5-2.7l-1.4-5.9L156.9,90.1z M193.5,75.7
		c2.2,3.6,3.9,7.6,4.9,12c1,4.3,1.2,8.6,0.8,12.8L180,94.9l0-0.1c-1.7-0.5-2.8-2.2-2.4-4c0.2-0.7,0.5-1.3,1.1-1.8l0,0L193.5,75.7z
		 M126.3,75.7L141.3,89l0,0.1c1.3,1.2,1.5,3.2,0.4,4.6c-0.5,0.6-1.1,1-1.7,1.1l0,0.1l-19.2,5.5C119.8,91.6,121.9,82.9,126.3,75.7z
		 M164.7,57.2c8.7,1.1,16.7,5,22.8,11l-16.3,11.5l-0.1,0c-1.4,1.1-3.5,0.8-4.6-0.6c-0.5-0.6-0.7-1.3-0.7-1.9l0,0L164.7,57.2z
		 M155.2,57.2l-1.1,20l-0.1,0c-0.1,1.8-1.5,3.2-3.3,3.2c-0.7,0-1.4-0.2-2-0.6l0,0l-16.4-11.6c5-4.9,11.5-8.6,18.9-10.3
		C152.5,57.6,153.8,57.4,155.2,57.2z M160,27.7c-2.1,0-3.8,1.9-3.8,4.2c0,0,0,0.1,0,0.1c0,0.3,0,0.7,0,1c0.1,1.3,0.3,2.4,0.5,3.6
		c0.3,2.7,0.6,4.9,0.4,6.9c-0.2,0.8-0.7,1.5-1.2,2l-0.1,1.6c-2.3,0.2-4.6,0.5-6.9,1.1c-9.9,2.2-18.4,7.3-24.9,14.2
		c-0.4-0.3-1.2-0.8-1.4-1c-0.7,0.1-1.4,0.3-2.3-0.2c-1.7-1.1-3.3-2.7-5.1-4.6c-0.9-0.9-1.5-1.8-2.5-2.7c-0.2-0.2-0.6-0.5-0.8-0.7
		c-0.8-0.6-1.7-1-2.7-1c-1.2,0-2.3,0.4-3,1.3c-1.3,1.6-0.9,4.2,0.9,5.6c0,0,0,0,0.1,0c0.2,0.2,0.6,0.5,0.8,0.6
		c1.1,0.8,2.1,1.2,3.2,1.8c2.3,1.4,4.2,2.6,5.7,4c0.6,0.6,0.7,1.7,0.8,2.2l1.2,1.1c-6.5,9.8-9.6,22-7.8,34.3l-1.6,0.5
		c-0.4,0.5-1,1.4-1.6,1.7c-2,0.6-4.2,0.8-6.8,1.1c-1.2,0.1-2.3,0-3.7,0.3c-0.3,0.1-0.7,0.2-1,0.2c0,0,0,0,0,0c0,0,0,0-0.1,0
		c-2.2,0.5-3.7,2.6-3.2,4.6c0.5,2,2.7,3.3,4.9,2.8c0,0,0,0,0.1,0c0,0,0,0,0.1,0c0.3-0.1,0.7-0.1,1-0.2c1.3-0.3,2.2-0.9,3.4-1.3
		c2.5-0.9,4.6-1.7,6.6-2c0.8-0.1,1.7,0.5,2.2,0.8l1.7-0.3c3.8,11.8,11.8,21.4,21.9,27.4l-0.7,1.7c0.2,0.6,0.5,1.5,0.3,2.2
		c-0.7,1.9-2,3.9-3.4,6.2c-0.7,1-1.4,1.8-2,3c-0.2,0.3-0.3,0.7-0.5,1c-1,2.1-0.3,4.5,1.6,5.4c1.9,0.9,4.2-0.1,5.3-2.1c0,0,0,0,0,0
		c0,0,0,0,0,0c0.1-0.3,0.3-0.7,0.5-1c0.5-1.2,0.7-2.3,1.1-3.5c1-2.5,1.6-5.2,2.9-6.8c0.4-0.5,1-0.6,1.6-0.8l0.9-1.6
		c8.8,3.4,18.7,4.3,28.6,2.1c2.3-0.5,4.4-1.2,6.5-2c0.2,0.4,0.7,1.3,0.8,1.5c0.7,0.2,1.4,0.3,1.9,1.2c1,1.8,1.7,3.9,2.6,6.4
		c0.4,1.2,0.6,2.3,1.1,3.5c0.1,0.3,0.3,0.7,0.5,1c1,2.1,3.4,3.1,5.3,2.2c1.9-0.9,2.6-3.3,1.6-5.4c-0.1-0.3-0.3-0.7-0.5-1
		c-0.6-1.2-1.3-2-2-3c-1.4-2.3-2.6-4.1-3.4-6c-0.3-1,0.1-1.6,0.3-2.2c-0.1-0.2-0.5-1.1-0.6-1.5c10.5-6.2,18.3-16.1,21.9-27.6
		c0.5,0.1,1.4,0.2,1.6,0.3c0.6-0.4,1.1-0.9,2.1-0.8c2,0.3,4.1,1,6.6,2c1.2,0.4,2.1,1,3.4,1.3c0.3,0.1,0.7,0.1,1,0.2c0,0,0,0,0.1,0
		c0,0,0,0,0.1,0c2.3,0.5,4.4-0.8,4.9-2.8c0.5-2-1-4.1-3.2-4.6c-0.3-0.1-0.8-0.2-1.1-0.3c-1.3-0.2-2.4-0.2-3.6-0.3
		c-2.7-0.3-4.9-0.5-6.8-1.1c-0.8-0.3-1.4-1.3-1.6-1.7l-1.5-0.4c0.8-5.8,0.6-11.8-0.8-17.8c-1.4-6.1-3.9-11.6-7.1-16.5
		c0.4-0.4,1.1-1,1.3-1.2c0.1-0.7,0-1.4,0.7-2.2c1.5-1.4,3.4-2.6,5.7-4c1.1-0.6,2.1-1,3.2-1.8c0.2-0.2,0.6-0.5,0.8-0.7
		c1.8-1.5,2.2-4,0.9-5.6c-1.3-1.6-3.9-1.8-5.7-0.3c-0.3,0.2-0.6,0.5-0.8,0.7c-1,0.9-1.7,1.7-2.5,2.7c-1.9,1.9-3.4,3.5-5.1,4.6
		c-0.7,0.4-1.8,0.3-2.3,0.3l-1.4,1c-8.3-8.7-19.5-14.2-31.6-15.3c0-0.5-0.1-1.4-0.1-1.7c-0.5-0.5-1.1-0.9-1.2-1.9
		c-0.2-2,0.1-4.2,0.4-6.9c0.2-1.2,0.5-2.3,0.5-3.6c0-0.3,0-0.8,0-1.1C163.8,29.6,162.1,27.7,160,27.7z"/>
	<path class="st3" d="M159.8,114.5c0.5,0,1.1,0.1,1.6,0.3c0.7,0.3,1.2,0.8,1.5,1.4h0.1l9.7,17.5c-1.3,0.4-2.6,0.8-3.9,1.1
		c-7.4,1.7-14.8,1.2-21.5-1.1l9.7-17.5h0C157.6,115.2,158.7,114.5,159.8,114.5z M143.2,106.4c1.5,0,2.9,1.1,3.2,2.6
		c0.2,0.7,0.1,1.4-0.2,2.1l0.1,0.1l-7.6,18.4c-7.1-4.6-12.8-11.4-15.8-19.8l19.6-3.3l0,0C142.8,106.5,143,106.4,143.2,106.4z
		 M176.5,106.4c0.3,0,0.5,0,0.8,0.1l0,0l19.8,3.3c-2.9,8.1-8.5,15.2-15.9,19.9l-7.7-18.6l0,0c-0.7-1.6,0-3.6,1.6-4.4
		C175.7,106.5,176.1,106.4,176.5,106.4z M156.9,90.1h6.1l3.8,4.8l-1.4,5.9l-5.5,2.6l-5.5-2.7l-1.4-5.9L156.9,90.1z M193.5,75.7
		c2.2,3.6,3.9,7.6,4.9,12c1,4.3,1.2,8.6,0.8,12.8L180,94.9l0-0.1c-1.7-0.5-2.8-2.2-2.4-4c0.2-0.7,0.5-1.3,1.1-1.8l0,0L193.5,75.7z
		 M126.3,75.7L141.3,89l0,0.1c1.3,1.2,1.5,3.2,0.4,4.6c-0.5,0.6-1.1,1-1.7,1.1l0,0.1l-19.2,5.5C119.8,91.6,121.9,82.9,126.3,75.7z
		 M164.7,57.2c8.7,1.1,16.7,5,22.8,11l-16.3,11.5l-0.1,0c-1.4,1.1-3.5,0.8-4.6-0.6c-0.5-0.6-0.7-1.3-0.7-1.9l0,0L164.7,57.2z
		 M155.2,57.2l-1.1,20l-0.1,0c-0.1,1.8-1.5,3.2-3.3,3.2c-0.7,0-1.4-0.2-2-0.6l0,0l-16.4-11.6c5-4.9,11.5-8.6,18.9-10.3
		C152.5,57.6,153.8,57.4,155.2,57.2z M160,27.7c-2.1,0-3.8,1.9-3.8,4.2c0,0,0,0.1,0,0.1c0,0.3,0,0.7,0,1c0.1,1.3,0.3,2.4,0.5,3.6
		c0.3,2.7,0.6,4.9,0.4,6.9c-0.2,0.8-0.7,1.5-1.2,2l-0.1,1.6c-2.3,0.2-4.6,0.5-6.9,1.1c-9.9,2.2-18.4,7.3-24.9,14.2
		c-0.4-0.3-1.2-0.8-1.4-1c-0.7,0.1-1.4,0.3-2.3-0.2c-1.7-1.1-3.3-2.7-5.1-4.6c-0.9-0.9-1.5-1.8-2.5-2.7c-0.2-0.2-0.6-0.5-0.8-0.7
		c-0.8-0.6-1.7-1-2.7-1c-1.2,0-2.3,0.4-3,1.3c-1.3,1.6-0.9,4.2,0.9,5.6c0,0,0,0,0.1,0c0.2,0.2,0.6,0.5,0.8,0.6
		c1.1,0.8,2.1,1.2,3.2,1.8c2.3,1.4,4.2,2.6,5.7,4c0.6,0.6,0.7,1.7,0.8,2.2l1.2,1.1c-6.5,9.8-9.6,22-7.8,34.3l-1.6,0.5
		c-0.4,0.5-1,1.4-1.6,1.7c-2,0.6-4.2,0.8-6.8,1.1c-1.2,0.1-2.3,0-3.7,0.3c-0.3,0.1-0.7,0.2-1,0.2c0,0,0,0,0,0c0,0,0,0-0.1,0
		c-2.2,0.5-3.7,2.6-3.2,4.6c0.5,2,2.7,3.3,4.9,2.8c0,0,0,0,0.1,0c0,0,0,0,0.1,0c0.3-0.1,0.7-0.1,1-0.2c1.3-0.3,2.2-0.9,3.4-1.3
		c2.5-0.9,4.6-1.7,6.6-2c0.8-0.1,1.7,0.5,2.2,0.8l1.7-0.3c3.8,11.8,11.8,21.4,21.9,27.4l-0.7,1.7c0.2,0.6,0.5,1.5,0.3,2.2
		c-0.7,1.9-2,3.9-3.4,6.2c-0.7,1-1.4,1.8-2,3c-0.2,0.3-0.3,0.7-0.5,1c-1,2.1-0.3,4.5,1.6,5.4c1.9,0.9,4.2-0.1,5.3-2.1c0,0,0,0,0,0
		c0,0,0,0,0,0c0.1-0.3,0.3-0.7,0.5-1c0.5-1.2,0.7-2.3,1.1-3.5c1-2.5,1.6-5.2,2.9-6.8c0.4-0.5,1-0.6,1.6-0.8l0.9-1.6
		c8.8,3.4,18.7,4.3,28.6,2.1c2.3-0.5,4.4-1.2,6.5-2c0.2,0.4,0.7,1.3,0.8,1.5c0.7,0.2,1.4,0.3,1.9,1.2c1,1.8,1.7,3.9,2.6,6.4
		c0.4,1.2,0.6,2.3,1.1,3.5c0.1,0.3,0.3,0.7,0.5,1c1,2.1,3.4,3.1,5.3,2.2c1.9-0.9,2.6-3.3,1.6-5.4c-0.1-0.3-0.3-0.7-0.5-1
		c-0.6-1.2-1.3-2-2-3c-1.4-2.3-2.6-4.1-3.4-6c-0.3-1,0.1-1.6,0.3-2.2c-0.1-0.2-0.5-1.1-0.6-1.5c10.5-6.2,18.3-16.1,21.9-27.6
		c0.5,0.1,1.4,0.2,1.6,0.3c0.6-0.4,1.1-0.9,2.1-0.8c2,0.3,4.1,1,6.6,2c1.2,0.4,2.1,1,3.4,1.3c0.3,0.1,0.7,0.1,1,0.2c0,0,0,0,0.1,0
		c0,0,0,0,0.1,0c2.3,0.5,4.4-0.8,4.9-2.8c0.5-2-1-4.1-3.2-4.6c-0.3-0.1-0.8-0.2-1.1-0.3c-1.3-0.2-2.4-0.2-3.6-0.3
		c-2.7-0.3-4.9-0.5-6.8-1.1c-0.8-0.3-1.4-1.3-1.6-1.7l-1.5-0.4c0.8-5.8,0.6-11.8-0.8-17.8c-1.4-6.1-3.9-11.6-7.1-16.5
		c0.4-0.4,1.1-1,1.3-1.2c0.1-0.7,0-1.4,0.7-2.2c1.5-1.4,3.4-2.6,5.7-4c1.1-0.6,2.1-1,3.2-1.8c0.2-0.2,0.6-0.5,0.8-0.7
		c1.8-1.5,2.2-4,0.9-5.6c-1.3-1.6-3.9-1.8-5.7-0.3c-0.3,0.2-0.6,0.5-0.8,0.7c-1,0.9-1.7,1.7-2.5,2.7c-1.9,1.9-3.4,3.5-5.1,4.6
		c-0.7,0.4-1.8,0.3-2.3,0.3l-1.4,1c-8.3-8.7-19.5-14.2-31.6-15.3c0-0.5-0.1-1.4-0.1-1.7c-0.5-0.5-1.1-0.9-1.2-1.9
		c-0.2-2,0.1-4.2,0.4-6.9c0.2-1.2,0.5-2.3,0.5-3.6c0-0.3,0-0.8,0-1.1C163.8,29.6,162.1,27.7,160,27.7z"/>
</g>
</svg>
