<svg id="svg2" xmlns="http://www.w3.org/2000/svg" viewBox="0 0 360 445.14264"><defs><style>.cls-1{fill:none;}</style></defs><title>harbor-stacked-black</title><path class="cls-1" d="M190.54116,413.3266H173.92348v18.57355H191.5942c7.97144,0,12.93347-3.53345,12.93347-9.39886v-.15076C204.52767,416.63526,199.71517,413.3266,190.54116,413.3266Z"/><path class="cls-1" d="M221.14,396.74661v-.16524c0-5.70283-4.5454-9.42243-12.81046-9.42243h-17.606v19.92h17.10877C215.68577,407.07891,221.14,403.52516,221.14,396.74661Z"/><path class="cls-1" d="M208.98974,412.86487H190.7236v20.416h19.42364c8.7622,0,14.21646-3.884,14.21646-10.33123V422.784C224.3637,416.50174,219.07381,412.86487,208.98974,412.86487Z"/><path class="cls-1" d="M128.337,153.79663a10.12793,10.12793,0,1,1,20.25586,0v14.04944h9.149V134.954H119.18758v32.89209H128.337Z"/><polygon class="cls-1" points="75.573 417.907 102.188 417.907 88.881 388.316 75.573 417.907"/><path class="cls-1" d="M151.45661,387.32331H133.60206v23.47513h17.77169c8.67934,0,14.8781-4.46288,14.8781-11.90247v-.165C166.25185,391.623,160.79759,387.32331,151.45661,387.32331Z"/><path class="cls-1" d="M321.15456,168.94172a140.97,140.97,0,0,0-3.25189-22.17358l-141.97974,4.83423,128.14825-41.18164.00006-.00006c-.09589-.17535-.17859-.3573-.27454-.5293A142.70978,142.70978,0,0,0,287.07064,86.023h-.00006L173.6899,144.69989,256.03,59.06806l.84314-.87689a140.88183,140.88183,0,0,0-74.851-21.46313c-78.20337,0-141.82855,63.62262-141.82855,141.82428A141.801,141.801,0,0,0,103.55306,296.6316l2.19379-24.79572,68.6543,30.25311,1.48395,18.14691c2.03583.08716,4.0802.141,6.13709.141,67.6507,0,124.35681-47.62561,138.43628-111.09918l-2.0993-.72833L173.6899,158.35828l147.46466,10.5835,7.18524.51563,13.4574.9657V170.423l-13.4574-.9657Zm-216.45172,15.0224v-16.118h5.55536V134.954h-5.55536v-9.45471l30.85126-30.187v-2.1239a2.91153,2.91153,0,0,1,5.82306,0v2.1239l30.84991,30.187V134.954h-5.55438v32.89209h5.55438v16.118H164.741l3.94366,48.2373-57.20013-25.20654,2.0379-23.03076Zm66.361,77.31805.95874,11.72479L108.135,244.8512l.9613-10.87427ZM109.81,225.92487l.96265-10.87689,58.623,25.83344.95874,11.72083Zm-3.34949,37.85529.96265-10.87292,65.31073,28.781.95605,11.72052Z"/><path class="cls-1" d="M268.25768,386.333c-13.22481,0-22.64724,10.57973-22.64724,23.72141v.16578c0,13.14222,9.58821,23.88793,22.813,23.88793,13.22615,0,22.64858-10.58013,22.64858-23.72289v-.165C291.072,397.07776,281.4839,386.333,268.25768,386.333Z"/><path class="cls-1" d="M333.48125,387.32331H315.6267v23.47513h17.77169c8.67934,0,14.8781-4.46288,14.8781-11.90247v-.165C348.2765,391.623,342.82223,387.32331,333.48125,387.32331Z"/><path d="M47.79474,380.876a3.31633,3.31633,0,0,0-3.30518,3.30652v22.814H11.09534v-22.814A3.31637,3.31637,0,0,0,7.79016,380.876a3.30039,3.30039,0,0,0-3.22367,3.30652H4.56642v52.07444a3.29959,3.29959,0,0,0,3.22373,3.30686,3.31553,3.31553,0,0,0,3.30518-3.30686V413.113H44.48956v23.1439a3.2647,3.2647,0,1,0,6.52884,0V384.1825A3.30039,3.30039,0,0,0,47.79474,380.876Z"/><path d="M93.26183,383.52227a4.16523,4.16523,0,0,0-4.04961-2.89352h-.33149a4.26621,4.26621,0,0,0-4.13246,2.89352L61.27368,434.85261l-.00007-.00007a3.766,3.766,0,0,0-.41435,1.73467,2.964,2.964,0,0,0,2.9751,2.97657,3.27284,3.27284,0,0,0,3.14222-2.232l6.03433-13.47358h31.741l6.033,13.30787a3.56434,3.56434,0,0,0,3.22367,2.39772,3.14,3.14,0,0,0,3.14081-3.14222,4.40322,4.40322,0,0,0-.41435-1.65309ZM75.573,417.90673l13.30773-29.59036,13.30773,29.59036Z"/><path d="M151.95106,381.29032H130.29688a3.29946,3.29946,0,0,0-3.22367,3.30652v51.66009a3.2647,3.2647,0,1,0,6.52884,0V416.66738h16.61432l16.2841,21.16013a3.80476,3.80476,0,0,0,3.05654,1.73628,3.415,3.415,0,0,0,3.30793-3.22367,3.55551,3.55551,0,0,0-1.07458-2.39772l-14.38224-18.51477c9.00949-1.73575,15.45682-7.27388,15.45682-16.77983v-.165a15.97985,15.97985,0,0,0-4.464-11.40668C164.76434,383.43948,159.06137,381.29032,151.95106,381.29032Zm14.3008,17.60564c0,7.43959-6.19876,11.90247-14.8781,11.90247H133.60206V387.32331h17.85454c9.341,0,14.79525,4.29965,14.79525,11.40762Z"/><path d="M218.57935,409.22793c4.54547-1.98324,9.17379-5.86841,9.17379-13.39045v-.16491a12.85307,12.85307,0,0,0-3.71953-9.25806c-3.30652-3.22367-8.51356-5.12419-15.12533-5.12419H187.5a3.29947,3.29947,0,0,0-3.22373,3.30652v51.24742a3.29915,3.29915,0,0,0,3.22367,3.30518h22.48153c12.64616,0,20.99535-5.86855,20.99535-15.787v-.16564C230.97681,415.26185,225.43828,411.29429,218.57935,409.22793Zm-27.85576-22.069h17.606c8.26506,0,12.81046,3.71959,12.81046,9.42243v.16524c0,6.77855-5.45427,10.3323-13.30767,10.3323H190.7236Zm33.6401,35.79073c0,6.44726-5.45427,10.33123-14.21646,10.33123H190.7236v-20.416h18.26614c10.08407,0,15.374,3.63687,15.374,9.91909Z"/><path d="M268.42346,380.2986c-17.60591,0-29.5905,13.96931-29.5905,29.92158v.165c0,15.95261,11.81881,29.75742,29.42472,29.75742s29.59184-13.96944,29.59184-29.92246v-.16578C297.84952,394.1022,286.03077,380.2986,268.42346,380.2986ZM291.072,410.38523c0,13.14276-9.42243,23.72289-22.64858,23.72289-13.22481,0-22.813-10.74571-22.813-23.88793v-.16578c0-13.14169,9.42243-23.72141,22.64724-23.72141,13.22622,0,22.81436,10.74477,22.81436,23.88719Z"/><path d="M333.97577,381.29032H312.32159a3.29951,3.29951,0,0,0-3.22373,3.30652h-.00007v51.66009a3.2647,3.2647,0,1,0,6.52884,0V416.66738h16.6156l16.28283,21.16013a3.80466,3.80466,0,0,0,3.05654,1.73628,3.415,3.415,0,0,0,3.30793-3.22367,3.55573,3.55573,0,0,0-1.07451-2.39772l-14.38224-18.51477c9.00942-1.73575,15.45682-7.27388,15.45682-16.77983v-.165a15.97957,15.97957,0,0,0-4.464-11.40668C346.789,383.43948,341.08608,381.29032,333.97577,381.29032ZM348.2765,398.896c0,7.43959-6.19876,11.90247-14.8781,11.90247H315.6267V387.32331h17.85454c9.341,0,14.79525,4.29965,14.79525,11.40762Z"/><path d="M111.48452,206.99488l57.20013,25.20654-3.94366-48.2373h7.48608v-16.118h-5.55438V134.954h5.55438v-9.45471l-30.84991-30.187v-2.1239a2.91153,2.91153,0,0,0-5.82306,0v2.1239l-30.85126,30.187V134.954h5.55536v32.89209h-5.55536v16.118h8.81958Zm7.70306-72.04089H157.7419v32.89209h-9.149V153.79663a10.12793,10.12793,0,1,0-20.25586,0v14.04944h-9.14941Z"/><polygon points="108.135 244.851 172.023 273.007 171.064 261.282 109.096 233.977 108.135 244.851"/><polygon points="107.423 252.907 106.46 263.78 173.69 293.409 172.734 281.688 107.423 252.907"/><polygon points="110.773 215.048 109.81 225.925 170.354 252.602 169.396 240.881 110.773 215.048"/><path d="M355.99507,178.35944c0-95.82422-77.959-173.7832-173.7832-173.7832A174.20334,174.20334,0,0,0,8.15474,178.55231c0,95.87091,77.99622,173.86975,173.86743,173.86975a162.40948,162.40948,0,0,0,30.6994-2.96332C294.0486,334.99665,355.99507,263.7771,355.99507,178.35944ZM341.7972,170.4231l-13.4574-.9657-7.18524-.51562L173.6899,158.35828l144.66925,50.1911,2.0993.72833C306.379,272.75129,249.67287,320.3769,182.02217,320.3769c-2.05688,0-4.10126-.05383-6.13709-.141L174.40114,302.089l-68.6543-30.25311-2.19379,24.79572A141.801,141.801,0,0,1,40.19368,178.55231c0-78.20166,63.62518-141.82428,141.82855-141.82428a140.88183,140.88183,0,0,1,74.851,21.46313l-.84314.87689L173.6899,144.69989,287.07057,86.023h.00006a142.70978,142.70978,0,0,1,16.72607,23.86835c.09595.172.17865.35394.27454.5293l-.00006.00006L175.92293,151.60236l141.97974-4.83423a140.97,140.97,0,0,1,3.25189,22.17358l7.18524.51563,13.4574.9657Z"/></svg>