<svg xmlns="http://www.w3.org/2000/svg" role="img" viewBox="-7.11 -7.11 499.72 148.72"><defs><linearGradient id="linear-gradient" x1="2.49" x2="81.35" y1="69.37" y2="69.37" gradientTransform="matrix(1 0 0 -1 0 136)" gradientUnits="userSpaceOnUse"><stop offset="0" stop-color="#006934" stop-opacity="0"/><stop offset="1" stop-color="#006934"/></linearGradient><style>.cls-2{fill:#4aba58}</style></defs><path fill="#898989" d="M179.3 41.48a21.29 21.29 0 0 1 10.06 2.29 21.8 21.8 0 0 1 7.24 6.06 27.85 27.85 0 0 1 4.4 8.54 33.64 33.64 0 0 1 1.6 9.8 32.62 32.62 0 0 1-1.3 9.83 26 26 0 0 1-4.3 8.51 21.61 21.61 0 0 1-7.32 6.06 22.28 22.28 0 0 1-10.37 2.29h-20V41.48zm-1.14 46a15 15 0 0 0 9.38-3 17.47 17.47 0 0 0 5.41-7.17 22.77 22.77 0 0 0 1.64-9.26 24.29 24.29 0 0 0-2-9.26 18.28 18.28 0 0 0-5.41-7.09 13.35 13.35 0 0 0-8.58-2.82h-11.27v38.58zm53.14-21.83a10.52 10.52 0 0 0-2.55-1.94 7.59 7.59 0 0 0-8.54 1.68 8.66 8.66 0 0 0-2.21 6.28v23.18h-7.62V56.73h7.55v4.12a10.17 10.17 0 0 1 4.07-3.32 13.85 13.85 0 0 1 5.91-1.26 14.74 14.74 0 0 1 5 .8 11.54 11.54 0 0 1 4.19 2.78zm31.87 29.2v-3.43a12.1 12.1 0 0 1-4.35 3 16.66 16.66 0 0 1-5.87.88 18.72 18.72 0 0 1-6-.84 10.41 10.41 0 0 1-4.19-2.67 9.14 9.14 0 0 1-2.17-3.55 13.78 13.78 0 0 1-.72-4.54 10.49 10.49 0 0 1 3.28-7.93q3.28-3.13 9.76-3.13H263V70q0-3.66-1.94-5.41t-6.44-1.75a12.6 12.6 0 0 0-5 .8 8.51 8.51 0 0 0-3.35 2.86l-5-4.65a14.43 14.43 0 0 1 5.83-4.35 22.76 22.76 0 0 1 7.82-1.14q15.71 0 15.71 13v25.49zM263 78.08h-9a8 8 0 0 0-5.11 1.41 4.84 4.84 0 0 0-1.75 4 5 5 0 0 0 1.72 4.08q1.72 1.41 5.3 1.41a18.13 18.13 0 0 0 3.93-.38 6.63 6.63 0 0 0 3.24-1.91Q263 85.1 263 81.13zm32-21.88a16.38 16.38 0 0 1 6 1.06 16.84 16.84 0 0 1 5 3v-3.53h6.94v35.15a17.1 17.1 0 0 1-1.41 6.9 17.53 17.53 0 0 1-3.89 5.64 18.731 18.731 0 0 1-19.94 3.89 18 18 0 0 1-5.79-3.77l5-4.88a11.1 11.1 0 0 0 3.55 2.14 11.9 11.9 0 0 0 4.23.76 11.7 11.7 0 0 0 4.38-.84A11.08 11.08 0 0 0 305 96a9.63 9.63 0 0 0 .92-4.16v-1.48A15.95 15.95 0 0 1 295 94.47a15.75 15.75 0 0 1-5.49-1 16.08 16.08 0 0 1-4.65-2.63 15.42 15.42 0 0 1-3.47-4 18.39 18.39 0 0 1-2.1-5 22.918 22.918 0 0 1-.61-3.77 37.656 37.656 0 0 1-.11-3.77 29.478 29.478 0 0 1 .27-3.47 27.772 27.772 0 0 1 .53-2.86 15.44 15.44 0 0 1 2.17-4.69 16 16 0 0 1 3.55-3.74 17.3 17.3 0 0 1 4.57-2.48 15.48 15.48 0 0 1 5.34-.86zm1.53 31.41a7.88 7.88 0 0 0 5.8-2.36 11.56 11.56 0 0 0 3.13-5.79 13.772 13.772 0 0 0 .31-2.25 18.616 18.616 0 0 0 0-2.44q-.08-1.18-.15-2.25a8.49 8.49 0 0 0-.34-1.75 10.47 10.47 0 0 0-3-5.49 8.06 8.06 0 0 0-5.72-2.14 7.82 7.82 0 0 0-5.6 2.14 10.59 10.59 0 0 0-3 5.49 21.71 21.71 0 0 0-.53 5.15 18.942 18.942 0 0 0 .38 3.55 12.32 12.32 0 0 0 3.09 5.83 7.57 7.57 0 0 0 5.67 2.31zm39.84-31.41a15.68 15.68 0 0 1 9.76 2.9 17.79 17.79 0 0 1 5.68 7.24 21.79 21.79 0 0 1 1.72 9.38 24.58 24.58 0 0 1-2.1 9.38 18.4 18.4 0 0 1-5.76 7.24 14.92 14.92 0 0 1-9.3 2.9 15.46 15.46 0 0 1-9.57-2.9 17.94 17.94 0 0 1-5.8-7.25 24 24 0 0 1 0-18.76 18.07 18.07 0 0 1 5.72-7.24 15.42 15.42 0 0 1 9.65-2.89zm0 31.95a8.21 8.21 0 0 0 5.49-1.87 12 12 0 0 0 3.35-4.61 16 16 0 0 0 1.18-6 15.51 15.51 0 0 0-1.07-6A11.49 11.49 0 0 0 342 65a8.48 8.48 0 0 0-5.6-1.87 8.07 8.07 0 0 0-5.49 1.87 11.47 11.47 0 0 0-3.24 4.61 16 16 0 0 0-1 6 17 17 0 0 0 1.11 6 11.45 11.45 0 0 0 3.22 4.67 8 8 0 0 0 5.37 1.87zm48.03 6.7V71.6q0-4.42-2.21-6.44a7.73 7.73 0 0 0-5.41-2 8.25 8.25 0 0 0-5.6 2q-2.33 2-2.33 6.44v23.25h-7.62V56.73h7.48v3.89a12.41 12.41 0 0 1 4.61-3.28 14.56 14.56 0 0 1 5.53-1.07 14.23 14.23 0 0 1 5.83 1.11 11.69 11.69 0 0 1 4.15 3.05A12.5 12.5 0 0 1 391.3 65a18.58 18.58 0 0 1 .8 5.49v24.4zm28.67-31.26v31.26h-7.55V63.59h-5.64v-5.87h5.64V52a11.9 11.9 0 0 1 .65-3.93 10.46 10.46 0 0 1 1.91-3.36 9 9 0 0 1 3.2-2.36 11.16 11.16 0 0 1 4.61-.88h5.64V48h-4.35q-4.12 0-4.12 4.35v5.34h8.46v5.87zm25.47 31.26a11.88 11.88 0 0 1-4.65-.84 8.69 8.69 0 0 1-3.24-2.29 9.41 9.41 0 0 1-1.87-3.35 12.86 12.86 0 0 1-.61-4V41.56h7.7V84a5.27 5.27 0 0 0 .88 3.32 3.84 3.84 0 0 0 3.16 1.11h5v6.48zm27.82 7.63a21.25 21.25 0 0 1-1.64 3.32 8.15 8.15 0 0 1-2.13 2.33 9 9 0 0 1-2.9 1.37 14.74 14.74 0 0 1-3.93.46h-3.13V103h2a5.74 5.74 0 0 0 3.55-.88 7.16 7.16 0 0 0 1.93-3.12l2.14-6-13.35-36.27h8.1l9.07 26.84L475 56.73h8.23z"/><g id="_编组_" data-name="编组"><g id="_编组_2" data-name="编组 2"><path id="_路径_" d="M83.19 13.06L65.24 2.69 47.28 13.06l17.96 10.36 17.95-10.36z" class="cls-2" data-name="路径"/><path id="_路径_2" d="M55.45 80.72l2.56 47.3 7.23 4.17 7.22-4.17 2.56-47.3-9.78-5.66-9.79 5.66z" class="cls-2" data-name="路径 2"/><path id="_路径_3" d="M96.63 41.62L128 23.52l-13.14-7.59a10 10 0 0 0-5-1.39 9.44 9.44 0 0 0-4.82 1.3L78.51 31.16z" class="cls-2" data-name="路径 3"/><path id="_路径_4" d="M96.6 57L128 75.07l-13.14 7.59a10 10 0 0 1-5 1.39 9.44 9.44 0 0 1-4.82-1.3L78.47 67.42z" class="cls-2" data-name="路径 4"/><path id="_路径_5" d="M47.12 49.28L2.49 75l13.14 7.59a10 10 0 0 0 5 1.39 9.44 9.44 0 0 0 4.82-1.3l39.8-23z" class="cls-2" data-name="路径 5"/><path id="_路径_6" d="M65.24 59.74L2.49 23.52l13.14-7.59a10 10 0 0 1 5-1.39 9.44 9.44 0 0 1 4.82 1.3l57.91 33.44z" class="cls-2" data-name="路径 6"/><path id="_路径_7" fill="url(#linear-gradient)" d="M47.12 49.28L2.49 75l13.14 7.59a10 10 0 0 0 5 1.39 9.44 9.44 0 0 0 4.82-1.3l28.8-16.6a7.23 7.23 0 0 0 .29-12.52c-4.09-2.3-7.42-4.28-7.42-4.28z" data-name="路径 7"/></g></g></svg>