<svg id="Layer_1" data-name="Layer 1" xmlns="http://www.w3.org/2000/svg" xmlns:xlink="http://www.w3.org/1999/xlink" viewBox="0 0 797.02165 219.27589"><defs><style>.cls-1{fill:none;}.cls-2{fill:#192c47;}.cls-3{clip-path:url(#clip-path);}.cls-4{fill:url(#linear-gradient);}</style><clipPath id="clip-path"><path class="cls-1" d="M104.62292,78.75223c-3.61239,4.631-46.21728,14.96853-80.24886,30.302v43.516l77.91916,44.98658,77.91914-44.98657V143.5311a472.603,472.603,0,0,0-49.35841-6.65563c-68.53868-5.92277-5.07632-19.46181,23.69288-43.73411C183.31663,68.86848,58.93006,61.567,58.93006,61.567S109.69983,72.2434,104.6229,78.75223"/></clipPath><linearGradient id="linear-gradient" x1="-187.65549" y1="261.49862" x2="-187.20236" y2="261.49862" gradientTransform="matrix(251.64277, 538.17754, 538.17754, -251.64277, -93458.72091, 166829.83991)" gradientUnits="userSpaceOnUse"><stop offset="0" stop-color="#fff"/><stop offset="1" stop-color="#54bad8"/></linearGradient></defs><title>strimzi-horizontal-color</title><path class="cls-2" d="M102.29366,6.28274,14.5653,56.9324V158.23354l87.72836,50.6492,87.72883-50.64966V56.9324Z"/><g class="cls-3"><path class="cls-4" d="M104.62292,78.75223c-3.61239,4.631-46.21728,14.96853-80.24886,30.302v43.516l77.91916,44.98658,77.91914-44.98657V143.5311a472.603,472.603,0,0,0-49.35841-6.65563c-68.53868-5.92277-5.07632-19.46181,23.69288-43.73411C183.31663,68.86848,58.93006,61.567,58.93006,61.567S109.69983,72.2434,104.6229,78.75223"/></g><path class="cls-2" d="M291.6255,88.99125a16.83346,16.83346,0,0,0-5.85056-4.32093,19.75877,19.75877,0,0,0-8.37669-1.66269,14.04521,14.04521,0,0,0-6.715,1.59569,5.23284,5.23284,0,0,0-2.99134,4.92014,4.54663,4.54663,0,0,0,2.51575,4.12182,40.17556,40.17556,0,0,0,7.41984,3.0574,69.46336,69.46336,0,0,1,10.86035,4.521,33.38955,33.38955,0,0,1,8.08228,5.85057,23.66564,23.66564,0,0,1,5.10037,7.57932,24.49234,24.49234,0,0,1,1.78915,9.57323,28.62655,28.62655,0,0,1-3.97272,15.42379,32.88067,32.88067,0,0,1-10.13,10.37155,44.85568,44.85568,0,0,1-13.579,5.85057,59.41427,59.41427,0,0,1-14.46789,1.86086,67.9988,67.9988,0,0,1-11.16986-.93043,69.05481,69.05481,0,0,1-10.70277-2.65918,56.9789,56.9789,0,0,1-9.64023-4.25581,38.04667,38.04667,0,0,1-7.84542-5.71657L242.9601,124.759a17.60579,17.60579,0,0,0,3.85666,3.32444,27.85714,27.85714,0,0,0,4.72009,2.46007,34.19851,34.19851,0,0,0,4.98619,1.59569,20.323,20.323,0,0,0,4.65215.59827,15.5177,15.5177,0,0,0,7.44815-1.5287,4.83244,4.83244,0,0,0,2.79223-4.454,5.393,5.393,0,0,0-2.327-4.25582q-2.32842-1.85991-8.70979-3.85571a73.05543,73.05543,0,0,1-9.50718-3.72266,31.06766,31.06766,0,0,1-7.71142-5.12019,21.40626,21.40626,0,0,1-5.11925-7.18015,24.93875,24.93875,0,0,1-1.86086-10.1715,31.00228,31.00228,0,0,1,2.99134-13.562A31.87225,31.87225,0,0,1,247.68114,68.05,40.89342,40.89342,0,0,1,260.844,60.86983a52.14366,52.14366,0,0,1,16.82038-2.59218,57.58827,57.58827,0,0,1,9.97239.86438,59.89878,59.89878,0,0,1,9.30806,2.39307,48.567,48.567,0,0,1,8.10965,3.65661,27.09835,27.09835,0,0,1,6.24973,4.78708Z"/><path class="cls-2" d="M367.41394,86.86429,355.4486,155.07436H324.60006L336.5673,86.86429H312.76681l4.654-25.92839H395.072l-4.655,25.92839Z"/><path class="cls-2" d="M430.0405,101.0906q6.1148,0,9.57323-2.06091a7.09286,7.09286,0,0,0,3.4575-6.58188q0-4.119-2.85922-5.65052a16.62792,16.62792,0,0,0-7.77843-1.5287H426.717l-2.79318,15.822Zm6.781,53.98376-12.89767-34.43814h-3.72266l-5.85057,34.43814h-29.651l16.62034-94.13753h38.693a52.452,52.452,0,0,1,13.96115,1.72687,31.22834,31.22834,0,0,1,10.63671,5.05319,22.20092,22.20092,0,0,1,6.71494,8.17664,25.41546,25.41546,0,0,1,2.327,11.10287q0,11.70161-5.51745,19.27951a27.6386,27.6386,0,0,1-15.09258,10.37155l18.35,38.4269Z"/><path class="cls-2" d="M475.64661,155.07436,492.267,60.93683h30.98064l-16.62034,94.13753Z"/><path class="cls-2" d="M607.41274,155.07436l10.50459-54.51408H617.12l-27.79021,54.51408H567.65623l-8.3767-54.51408h-.66433l-8.11154,54.51408H521.784l16.62033-94.13753h39.22427l8.24364,51.5888h.66525l24.46575-51.5888h42.947l-16.62034,94.13753Z"/><path class="cls-2" d="M649.29431,155.07436l4.521-25.79534,43.87926-42.81295H662.85628l4.521-25.53018h74.859l-3.98876,22.33785L691.97605,128.8808h39.35731l-4.65311,26.19356Z"/><path class="cls-2" d="M738.64761,155.07436l16.62031-94.13753h30.97972l-16.62031,94.13753Z"/></svg>