<?xml version="1.0" encoding="UTF-8"?>
<svg id="Layer_1" xmlns="http://www.w3.org/2000/svg" version="1.1" viewBox="0 0 1133.86 364.12">
  <!-- Generator: Adobe Illustrator 30.4.0, SVG Export Plug-In . SVG Version: 2.1.4 Build 226)  -->
  <defs>
    <style>
      .st0 {
        isolation: isolate;
      }

      .st1 {
        fill: #758ebf;
      }
    </style>
  </defs>
  <g>
    <path d="M557.67,109.25h-.19c-9.03-.56-16.85-10.15-16.85-17.13.19-5.4.47-11.92.74-12.94,5.03-28.12,26.16-50.64,53.44-57.72-9.78-5.03-20.85-7.91-32.58-7.91-39.38,0-71.41,32.03-71.41,71.41v63.59c0,13.78,11.17,24.86,24.86,24.86s24.86-11.17,24.86-24.86v-13.31c0-9.68,7.45-17.5,16.94-18.15h.19c2.14,0,3.91-1.77,3.91-3.91s-1.77-3.91-3.91-3.91h0Z"/>
    <g>
      <path class="st1" d="M618.09,48c3.82,0,7.54.28,11.17.84-4.56-7.73-10.43-14.52-17.41-20.02-25.6,2.42-47.29,17.97-58.37,39.75,3.82-3.26,8.75-5.31,14.15-5.31,1.58,0,3.07.19,4.56.47,12.66-9.78,28.58-15.73,45.9-15.73h0Z"/>
      <path class="st1" d="M635.4,62.61c-6.42-1.77-13.13-2.7-20.02-2.7-12.29,0-23.93,2.98-34.17,8.29,4.93,4,8.1,10.05,8.1,16.85v7.26c0,6.98-7.82,16.48-16.85,17.13h-.19c-2.14,0-3.91,1.77-3.91,3.91s1.77,3.91,3.91,3.91h.19c9.12.65,16.39,7.91,16.85,17.13v14.15c0,13.78,11.17,24.86,24.86,24.86s24.86-11.17,24.86-24.86v-63.59c0-7.82-1.3-15.36-3.63-22.34h0Z"/>
    </g>
  </g>
  <g>
    <g class="st0">
      <path d="M56.53,243.66l43.1,92.45h-9.96l-14.52-30.44h-39.85l-14.43,30.44h-10.24l43.66-92.45s2.23,0,2.23,0ZM55.41,263.31l-15.83,33.42h31.56l-15.73-33.42Z"/>
    </g>
    <g class="st0">
      <path d="M108.1,243.66h18.43c10.52,0,17.69.47,21.32,1.4,5.31,1.3,9.59,4,12.94,8.01,3.35,4,5.03,9.12,5.03,15.27s-1.68,11.26-4.93,15.27-7.73,6.7-13.5,8.1c-4.19,1.02-12.01,1.49-23.46,1.49h-6.61v43.01h-9.22v-92.54h0ZM117.32,252.69v31.37l15.64.19c6.33,0,10.99-.56,13.87-1.77,2.89-1.12,5.21-2.98,6.89-5.59s2.51-5.4,2.51-8.66c0-3.07-.84-5.96-2.51-8.47-1.68-2.61-3.91-4.38-6.61-5.49-2.7-1.12-7.26-1.68-13.5-1.68h-16.29v.09Z"/>
    </g>
    <g class="st0">
      <path d="M176.53,243.66h9.22v92.45h-9.22v-92.45Z"/>
    </g>
    <g class="st0">
      <path d="M287.87,260.79l-7.26,5.59c-4-5.21-8.84-9.22-14.52-11.92s-11.82-4.1-18.53-4.1c-7.35,0-14.15,1.77-20.48,5.31-6.24,3.54-11.17,8.29-14.62,14.24-3.44,5.96-5.21,12.66-5.21,20.11,0,11.26,3.82,20.67,11.54,28.21s17.5,11.26,29.23,11.26c12.94,0,23.74-5.03,32.49-15.17l7.26,5.49c-4.56,5.87-10.33,10.43-17.22,13.59-6.89,3.17-14.62,4.84-23.09,4.84-16.2,0-28.95-5.4-38.26-16.11-7.82-9.12-11.73-20.02-11.73-32.96s4.75-24.95,14.24-34.17c9.5-9.22,21.41-13.87,35.66-13.87,8.66,0,16.39,1.68,23.37,5.12,6.98,3.54,12.66,8.38,17.13,14.52Z"/>
    </g>
    <g class="st0">
      <path d="M299.7,243.66h9.22v55.77c0,6.61.09,10.71.37,12.38.47,3.63,1.49,6.7,3.17,9.12,1.68,2.42,4.28,4.47,7.73,6.14s6.98,2.51,10.52,2.51c3.07,0,5.96-.65,8.75-1.96,2.79-1.3,5.12-3.07,7.08-5.4,1.86-2.33,3.26-5.12,4.19-8.38.65-2.33.93-7.17.93-14.43v-55.77h9.22v55.77c0,8.29-.84,14.9-2.42,20.02-1.58,5.12-4.84,9.5-9.68,13.31-4.84,3.72-10.71,5.68-17.6,5.68-7.45,0-13.87-1.77-19.18-5.31-5.31-3.54-8.84-8.29-10.71-14.15-1.12-3.63-1.68-10.05-1.68-19.46v-55.86h.09Z"/>
      <path d="M377.62,243.66h18.43c10.24,0,17.22.47,20.85,1.3,5.49,1.3,9.96,3.91,13.41,8.1,3.44,4.1,5.12,9.22,5.12,15.27,0,5.03-1.21,9.5-3.54,13.31-2.33,3.82-5.77,6.7-10.15,8.66-4.38,1.96-10.43,2.98-18.25,2.98l33.24,42.92h-11.45l-33.24-42.92h-5.21v42.92h-9.22v-92.54h0ZM386.93,252.69v31.37l15.92.09c6.14,0,10.71-.56,13.69-1.77s5.31-3.07,6.89-5.59c1.68-2.61,2.51-5.49,2.51-8.66s-.84-5.96-2.51-8.47-3.91-4.38-6.61-5.4c-2.7-1.12-7.26-1.68-13.59-1.68h-16.29v.09Z"/>
    </g>
    <g class="st0">
      <path d="M447.44,243.66h9.22v92.45h-9.22v-92.45Z"/>
    </g>
    <g class="st0">
      <path d="M516.7,241.34c13.96,0,25.69,4.65,35.1,13.96,9.4,9.31,14.15,20.85,14.15,34.45s-4.75,25.04-14.15,34.45c-9.4,9.4-20.85,14.15-34.45,14.15s-25.23-4.65-34.73-14.06c-9.31-9.4-13.96-20.76-13.96-34.07,0-8.84,2.14-17.13,6.42-24.67,4.28-7.54,10.15-13.5,17.6-17.78,7.35-4.28,15.45-6.42,24.02-6.42ZM517.17,250.27c-6.8,0-13.31,1.77-19.46,5.31-6.14,3.54-10.89,8.38-14.34,14.43-3.44,6.05-5.12,12.75-5.12,20.2,0,10.99,3.82,20.3,11.45,27.84,7.63,7.54,16.76,11.36,27.56,11.36,7.17,0,13.78-1.77,19.92-5.21,6.14-3.44,10.89-8.19,14.24-14.24,3.44-6.05,5.12-12.75,5.12-20.11s-1.68-13.96-5.12-19.92c-3.44-5.96-8.19-10.71-14.43-14.24-6.24-3.54-12.85-5.4-19.83-5.4Z"/>
    </g>
    <g class="st0">
      <path d="M609.06,243.66h18.62c10.24,0,17.5.93,21.78,2.7s7.82,4.84,10.43,9.12c2.61,4.19,3.91,9.22,3.91,14.99s-1.49,11.17-4.38,15.27c-2.89,4.1-7.26,7.17-13.13,9.31l21.88,41.06h-19.27l-20.76-39.1h-1.58v39.1h-17.6v-92.45h.09ZM626.65,279.78h5.49c5.59,0,9.4-.74,11.54-2.23s3.17-3.91,3.17-7.35c0-2.05-.56-3.72-1.58-5.31s-2.42-2.61-4.19-3.26-4.93-.93-9.68-.93h-4.84v19.08h.09Z"/>
      <path d="M677.58,243.66h50.46v17.22h-32.96v16.66h32.96v16.94h-32.96v24.3h32.96v17.32h-50.46v-92.45Z"/>
      <path d="M824.67,258.74l-12.38,12.29c-7.82-8.29-16.94-12.48-27.37-12.48-9.12,0-16.76,2.98-22.81,9.03-6.14,6.05-9.22,13.41-9.22,21.97s3.17,16.48,9.59,22.72c6.33,6.24,14.24,9.31,23.55,9.31,6.05,0,11.17-1.3,15.36-3.82,4.19-2.51,7.54-6.52,10.05-12.01h-26.72v-16.48h46.46l.09,3.91c0,8.1-2.05,15.73-6.24,22.99s-9.59,12.75-16.29,16.57c-6.7,3.82-14.43,5.68-23.46,5.68-9.59,0-18.15-2.05-25.69-6.24-7.54-4.19-13.5-10.15-17.87-17.78-4.38-7.73-6.61-16.01-6.61-24.95,0-12.2,4-22.9,12.1-31.93,9.59-10.8,22.06-16.11,37.43-16.11,8.01,0,15.55,1.49,22.53,4.47,6.14,2.42,11.92,6.7,17.5,12.85Z"/>
      <path d="M841.15,243.66h17.5v92.45h-17.5v-92.45Z"/>
      <path d="M921.86,256.23l-13.03,11.45c-4.56-6.33-9.22-9.59-13.96-9.59-2.33,0-4.19.65-5.68,1.86s-2.23,2.61-2.23,4.19.56,2.98,1.58,4.38c1.4,1.86,5.77,5.77,12.94,11.92,6.7,5.59,10.8,9.12,12.2,10.61,3.54,3.63,6.05,7.08,7.54,10.33,1.49,3.26,2.23,6.89,2.23,10.8,0,7.54-2.61,13.87-7.82,18.81-5.21,4.93-12.1,7.45-20.48,7.45-6.61,0-12.29-1.58-17.22-4.84-4.84-3.26-9.03-8.29-12.57-15.17l14.8-8.94c4.47,8.19,9.59,12.29,15.36,12.29,2.98,0,5.59-.84,7.63-2.61,2.05-1.77,3.07-3.82,3.07-6.05,0-2.05-.74-4.19-2.33-6.24s-4.93-5.31-10.24-9.59c-10.05-8.19-16.57-14.52-19.55-18.99s-4.38-8.94-4.38-13.31c0-6.42,2.42-11.92,7.35-16.48,4.84-4.56,10.89-6.89,18.06-6.89,4.65,0,9.03,1.02,13.22,3.17,4.19,1.86,8.66,5.77,13.5,11.45Z"/>
      <path d="M926.15,243.66h51.11v17.32h-16.85v75.04h-17.87v-75.04h-16.39v-17.32Z"/>
      <path d="M985.45,243.66h18.62c10.24,0,17.5.93,21.78,2.7s7.82,4.84,10.43,9.12c2.61,4.19,3.91,9.22,3.91,14.99s-1.49,11.17-4.38,15.27-7.26,7.17-13.13,9.31l21.88,41.06h-19.27l-20.76-39.1h-1.58v39.1h-17.6v-92.45h.09ZM1003.04,279.78h5.49c5.59,0,9.4-.74,11.54-2.23s3.17-3.91,3.17-7.35c0-2.05-.56-3.72-1.58-5.31s-2.42-2.61-4.19-3.26-4.93-.93-9.68-.93h-4.84v19.08h.09Z"/>
      <path d="M1047.36,243.66h18.9l17.22,33.24,17.13-33.24h18.62l-27,52.41v40.03h-17.69v-40.03l-27.18-52.41Z"/>
    </g>
  </g>
</svg>