<?xml version="1.0" encoding="utf-8"?>
<!-- Generator: Adobe Illustrator 28.1.0, SVG Export Plug-In . SVG Version: 6.00 Build 0)  -->
<svg version="1.1" id="Layer_1" xmlns="http://www.w3.org/2000/svg" xmlns:xlink="http://www.w3.org/1999/xlink" x="0px" y="0px"
	 width="870.2px" height="280px" viewBox="0 0 870.2 280" style="enable-background:new 0 0 870.2 280;" xml:space="preserve">
<style type="text/css">
	.st0{fill:#0086FF;}
	.st1{fill:#FFFFFF;}
</style>
<g>
	<polygon class="st0" points="439.6,0 375.3,0 311.6,78.2 311.6,0 261.1,0 261.1,208.3 311.6,208.3 311.6,159.2 330.7,135.4 
		386.3,208.3 449.4,208.3 363.4,94.6 	"/>
	<path class="st0" d="M816.7,13.8C800.4,4.6,782.5,0,763.1,0h-88.7v208.3h88.7c19.6,0,37.6-4.5,54-13.5c16.4-9,29.3-21.4,38.8-37
		c9.5-15.7,14.3-33.2,14.3-52.7c0-19.4-4.8-37.2-14.4-53.3C846.1,35.7,833.1,23,816.7,13.8z M812,132.7
		c-5.1,8.5-11.9,15.3-20.5,20.2c-8.6,5-18.1,7.4-28.4,7.4H725V47.9h38.1c10.3,0,19.8,2.5,28.4,7.6c8.6,5.1,15.5,11.9,20.5,20.5
		c5.1,8.6,7.6,18.1,7.6,28.4C819.6,114.7,817,124.2,812,132.7z"/>
	<path class="st0" d="M602,129.2c-4.4,9-11,16.3-19.8,21.6c-8.7,5.4-18.3,8.1-28.7,8.1c-10,0-19.2-2.5-27.5-7.4
		c-8.4-4.9-15-11.5-20-19.9s-7.5-17.5-7.5-27.5c0-10,2.5-19.2,7.5-27.5c5-8.4,11.7-15,20-20c8.4-5,17.5-7.5,27.5-7.5
		c10.2,0,19.6,2.7,28.1,7.9c8.6,5.3,15.2,12.2,20,20.6l43.3-23.1c-8.8-16.5-21.5-29.8-37.8-39.7C590.8,5,572.9,0,553.5,0
		c-18.8,0-36.3,4.7-52.2,14c-16,9.3-28.6,22-37.9,37.9c-9.3,16-14,33.4-14,52.2c0,18.8,4.7,36.3,14,52.2c9.3,16,22,28.6,37.9,37.9
		c15.9,9.3,33.4,14,52.2,14c19.4,0,37.4-5,53.9-15.1c16.5-10.1,29.2-23.5,38.1-40.2L602,129.2z"/>
	<path class="st0" d="M214.6,126.9l-18.5-80.2c-1-4.2-3.8-7.7-7.7-9.6L113.6,1.4c-3.9-1.9-8.5-1.9-12.4,0L26.5,37.1
		c-3.9,1.9-6.7,5.4-7.7,9.6L0.3,126.9c-0.5,2-0.5,4.1,0,6.2c0.1,0.6,0.3,1.2,0.5,1.8c0.4,1,0.8,2,1.4,2.9c0.3,0.4,0.5,0.8,0.8,1.1
		l26.6,33c0.1-0.4,0.1-0.9,0.2-1.3c0.5-3.4-0.6-6.4-1.7-9.5c-1.9-5.2-4.5-10.2-5.3-15.8c-0.8-6.4-0.6-12.8-0.5-19.2
		c0.1-3.6-0.9-6.8-2-10.1c-1.4-4.4-3.4-8.6-4-13.2c-0.3-2.3-0.4-4.6,0.3-6.9c0.5-1.4,1.3-2.6,2.8-2.6c1.5,0,2.5,1.1,2.9,2.5
		c0.8,2.8,1.4,5.7,2,8.6c0.9,4.1,2.2,8.1,3.9,12c1.1,2.5,2,2.6,3.7,0.4c0.8-1.1,1.2-2.4,1.2-3.8c0.4-7.8,0.8-15.5,1.2-23.3
		c0.2-2.5,0.7-5,1.6-7.4c0.6-1.8,1.9-3.3,4-3c2.1,0.3,2.2,2.3,2.1,4c-0.6,7.8-0.8,15.5-0.5,23.3c0,1.7-0.1,3.3,1.2,5.5
		c0.1-10.4,3.1-19.6,4.3-29.2c0.1-1.3,0.5-2.5,1-3.6c0.9-1.6,2.5-2.4,4.2-2.1c1.9,0.4,1.9,2.1,1.8,3.6c-0.6,5.3-1.5,10.6-2,15.9
		c-0.6,5.6-0.8,11.3-1.3,17.4c1.6-1.2,1.6-2.6,1.9-3.8c1.4-5,2.9-10.1,3.4-15.3c0.2-1.4,0.5-2.7,1.1-3.9c0.7-1.9,2.2-3.1,4.1-2.8
		c2,0.3,1.7,2.4,1.8,3.9c0.2,6.8-1.3,13.4-2.2,20c-1.2,7.9-1.3,15.9-0.3,23.9c0.1,0.9,0.4,1.9,0.7,2.7c1.2,3.3,2.7,3.8,5.7,2
		c0.8-0.5,1.6-1,2.3-1.7c4.6-4.4,9.9-3.8,15.3-1.9c1.2,0.4,2.2,1.2,2.9,2.3c1.4,2.4,0.8,4.2-2,4c-7.9-0.7-12.4,3.9-16.7,9.3
		c-2.7,3.4-6.7,4.7-10.5,6c-3.3,1.1-4.3,2.9-4.2,6.3c0.2,12.3,0.2,24.6,0.2,36.9c0,0.1,0,0.3,0,0.4l0.6,0.8c0.2,0.3,0.5,0.5,0.7,0.8
		c0.8,0.9,1.7,1.6,2.7,2.3c1.3,0.8,2.6,1.4,4.1,1.8c1.2,0.3,2.4,0.5,3.6,0.5h0.8l32.1-0.4c0.1-6.1,0.2-12.2,0.3-18.2
		c0.1-9.1,2.9-17.8,3.9-26.7c1.4-12,1.4-24.1-0.1-36c-0.4-3.8-2-6.4-5.9-7.9c-4.1-1.5-6.2-5.7-9.1-8.8c-8.7-9.2-15.1-20.3-24.5-29
		c-1-0.9-1.4-2.1-0.8-3.3c0.8-1.7,2.6-2.8,4.5-2.6c3.9,0.2,7,2,9.6,4.8c3,3.1,5.8,6.2,9.3,8.8c3.7,2.8,4.9,2.4,6.8-1.7
		c3.5-7.5,3.7-15.2,1.6-23.1c-2.1-8.2-5.1-16.3-4.7-25c0.2-5.1,1.4-8.1,4-8c4.4,0.2,3.9,4.2,4.4,6.9c1.6,8.7,3.2,17.5,6.5,25.8
		c0.4,1.1,0.5,3.2,2.3,2.7c1.4-0.4,0.8-2.1,0.7-3.2c-0.7-10.3-1.8-20.6,0.1-30.9c0.3-1.8,0.5-3.6,1.7-5.1c1.1-1.3,2.4-2.2,4.1-1.7
		c1.6,0.5,2.3,1.8,2.3,3.4c0.1,3.9,0.3,7.8,0,11.7c-0.5,7.5,0.9,14.8,1.6,22.2c0.1,1,0,2.6,1.4,2.6c1.1,0,1.7-1.4,1.9-2.4
		c1.8-7.8,4.8-15.4,5.8-23.4c0.3-2,0.5-4.1,1.5-6c0.9-1.6,2-2.3,3.8-2c2,0.3,3,1.4,3.1,3.4c0.1,1,0.1,1.9-0.1,2.9
		c-1.8,9.8-2.7,19.8-5.7,29.4c-0.1,0.5-0.2,0.9-0.3,1.4c-0.2,1.1-0.6,2.5,0.5,3c1.3,0.7,2.2-0.7,2.9-1.6c4-4.8,7.8-9.7,10.4-15.4
		c0.4-1,1-1.9,1.8-2.7c1.1-1.2,2.5-2,4.3-1.3c2,0.9,1.3,2.6,1.1,4.1c-0.3,2.6-1.3,5-2.8,7.1c-8.4,11.4-11.2,24.4-11.1,38.2
		c0,4.1-1,8.2-2.8,11.9c-1.7,3.6-1.8,7.4-1.6,11.4c0.7,13,3.4,25.8,4.9,38.7c1.8,15.3,2.5,30.7,1.3,46l11.1,0c0.5,0,1,0,1.5-0.1
		c0.7-0.1,1.4-0.2,2.1-0.4c0.5-0.1,1-0.3,1.5-0.5c0.4-0.1,0.7-0.3,1.1-0.5c0.5-0.3,1.1-0.5,1.6-0.9c1.3-0.8,2.5-1.8,3.4-3l0.6-1.5
		c1.3-15.9-0.3-31.7-1.1-47.5c-0.4-8.4-8.2-18.3-18.7-18.5c-1.9,0-4.5,0.6-4.6-2.6c0-2.6,1.7-4.2,4.3-4.6c3.3-0.5,6.6-0.2,9.7,1
		c6.4,2.3,10.1-1,8.3-7.8c-1.9-7.4-3.1-14.9-3.7-22.5c-0.2-2-0.5-4,0.1-6c0.6-1.9,1.5-3.6,3.8-3.5c2.5,0.1,2.3,2.3,2.6,4
		c1.1,6.4,2.5,12.6,5.7,19c1.5-2.5,1.6-4.8,1.8-6.8c0.3-4.8,1.9-9.4,2.4-14.2c0.1-0.9,0.4-1.7,0.9-2.5c0.8-1.4,1.9-2.5,3.7-2.1
		c2,0.4,2.6,2,2.5,3.8c-0.3,4.5-0.8,9.1-1.2,13.6c-0.2,2.7-0.4,5.3,0.1,8.2c1.8-5.1,3.6-10.2,5.3-15.3c0.9-2.6,1.1-6.3,5-5.2
		c3.5,1.1,1.6,4.4,1.1,6.6c-1.2,6.1-2.8,12.1-4.2,18.2c-0.3,1.4-1,3.2,0.8,4.1c1.6,0.8,2.5-0.9,3.4-1.9c3.6-4,7-8.1,10.6-12
		c1-1.1,2.1-3.1,4.1-1.8c1.7,1.2,1.3,3.2,0.5,4.9c-1.4,3.1-3.3,6-5.5,8.6c-3.4,3.9-5.9,8.2-6.7,13.4c-0.5,3.4-1.4,6.7-2.8,9.8
		c-4.1,8.6-4.3,17.5-2.9,26.7c0.1,0.6,0.2,1.2,0.3,1.8l25.5-31.7c1-1.2,1.7-2.6,2.2-4c0.2-0.6,0.4-1.2,0.5-1.8
		C215,131,215,128.9,214.6,126.9z"/>
	<g>
		<path d="M19.7,262.2h13.5v12.7c-3,3.2-7.8,5.1-12.4,5.1c-8.9,0-16.5-7.3-16.5-15.9c0-8.6,7.6-15.9,16.5-15.9
			c4.6,0,9.3,1.9,12.4,5.1l-4.8,4.3c-1.8-2.1-4.8-3.4-7.6-3.4c-5.3,0-9.7,4.6-9.7,9.9c0,5.4,4.4,9.9,9.7,9.9c2.1,0,4.2-0.7,5.9-2
			v-4.7h-7.1V262.2z"/>
		<path d="M57.5,269l7.4,10.5h-7.5l-7-10h-4v10h-6.6v-30.7h13.8c6.7,0,11.6,4.3,11.6,10.4C65.2,263.9,62.1,267.6,57.5,269z
			 M46.4,263.5h6.5c3.3,0,5.5-1.7,5.5-4.3c0-2.6-2.2-4.3-5.5-4.3h-6.5V263.5z"/>
		<path d="M69.4,264.1c0-8.6,7.5-15.9,16.4-15.9c8.9,0,16.3,7.2,16.3,15.9c0,8.6-7.4,15.9-16.3,15.9C76.9,280,69.4,272.7,69.4,264.1
			z M95.3,264.1c0-5.3-4.4-9.9-9.5-9.9c-5.2,0-9.6,4.6-9.6,9.9c0,5.4,4.4,9.9,9.6,9.9C90.9,274,95.3,269.4,95.3,264.1z"/>
		<path d="M105.4,248.7h7.2l5.7,20.6l6.8-20.6h7.2l6.8,20.6l5.6-20.6h7.2l-9.3,30.7h-6.7l-7.2-21.1l-7.3,21.1h-6.7L105.4,248.7z"/>
		<path d="M157.1,248.7h6.6v30.7h-6.6V248.7z"/>
		<path d="M171.4,248.7h6.6l14.8,19.9v-19.9h6.6v30.7h-6.6l-14.8-19.9v19.9h-6.6V248.7z"/>
		<path d="M220.7,262.2h13.5v12.7c-3,3.2-7.8,5.1-12.4,5.1c-8.9,0-16.5-7.3-16.5-15.9c0-8.6,7.6-15.9,16.5-15.9
			c4.6,0,9.3,1.9,12.4,5.1l-4.8,4.3c-1.8-2.1-4.8-3.4-7.6-3.4c-5.3,0-9.7,4.6-9.7,9.9c0,5.4,4.4,9.9,9.7,9.9c2.1,0,4.2-0.7,5.9-2
			v-4.7h-7.1V262.2z"/>
		<path d="M251.2,264.1c0-8.6,7.5-15.9,16.4-15.9c4.6,0,8.9,2,11.9,5.1l-4.8,4.3c-1.7-2.1-4.3-3.4-7.1-3.4c-5.2,0-9.6,4.6-9.6,9.9
			c0,5.4,4.4,9.9,9.6,9.9c2.8,0,5.4-1.4,7.1-3.4l4.8,4.3c-3,3.1-7.2,5.1-11.9,5.1C258.7,280,251.2,272.7,251.2,264.1z"/>
		<path d="M306.6,273.5v5.9h-21.9v-30.7h6.6v24.8H306.6z"/>
		<path d="M310.1,264.1c0-8.6,7.5-15.9,16.4-15.9c8.9,0,16.3,7.2,16.3,15.9c0,8.6-7.4,15.9-16.3,15.9
			C317.6,280,310.1,272.7,310.1,264.1z M336,264.1c0-5.3-4.4-9.9-9.5-9.9c-5.2,0-9.6,4.6-9.6,9.9c0,5.4,4.4,9.9,9.6,9.9
			C331.6,274,336,269.4,336,264.1z"/>
		<path d="M348.1,266.2v-17.4h6.6v17.2c0,4.7,3,8.1,7.3,8.1c4.2,0,7.3-3.4,7.3-8.1v-17.2h6.6v17.4c0,8.1-5.8,13.8-13.9,13.8
			C353.8,280,348.1,274.3,348.1,266.2z"/>
		<path d="M383,248.7h11c10.3,0,17.7,6.3,17.7,15.3c0,9-7.3,15.4-17.7,15.4h-11V248.7z M394.9,273.5c5.9,0,10-3.9,10-9.4
			c0-5.5-4.2-9.3-10-9.3h-5.3v18.7H394.9z"/>
		<path d="M429.7,248.7h6.6l14.8,19.9v-19.9h6.6v30.7h-6.6l-14.8-19.9v19.9h-6.6V248.7z"/>
		<path d="M485.6,274.2h-13.3l-2.1,5.3h-7.4l12.5-30.7h7.4l12.5,30.7h-7.4L485.6,274.2z M483.5,269l-4.6-11.2l-4.6,11.2H483.5z"/>
		<path d="M507.3,254.7h-9.6v-5.9h25.8v5.9h-9.6v24.8h-6.6V254.7z"/>
		<path d="M528.7,248.7h6.6v30.7h-6.6V248.7z"/>
		<path d="M572.8,248.7l-12.5,30.7h-7.4l-12.5-30.7h7.4l8.8,21.6l8.8-21.6H572.8z"/>
		<path d="M584.4,254.7v6.1h15.5v5.9h-15.5v6.8h17v5.9h-23.7v-30.7h23.7v5.9H584.4z"/>
		<path d="M627.1,254.7h-9.6v-5.9h25.8v5.9h-9.6v24.8h-6.6V254.7z"/>
		<path d="M646.7,264.1c0-8.6,7.5-15.9,16.4-15.9c8.9,0,16.3,7.2,16.3,15.9c0,8.6-7.4,15.9-16.3,15.9
			C654.3,280,646.7,272.7,646.7,264.1z M672.6,264.1c0-5.3-4.4-9.9-9.5-9.9c-5.2,0-9.6,4.6-9.6,9.9c0,5.4,4.4,9.9,9.6,9.9
			C668.2,274,672.6,269.4,672.6,264.1z"/>
		<path d="M698.9,262.2h13.5v12.7c-3,3.2-7.8,5.1-12.4,5.1c-8.9,0-16.5-7.3-16.5-15.9c0-8.6,7.6-15.9,16.5-15.9
			c4.6,0,9.3,1.9,12.4,5.1l-4.8,4.3c-1.8-2.1-4.8-3.4-7.6-3.4c-5.3,0-9.7,4.6-9.7,9.9c0,5.4,4.4,9.9,9.7,9.9c2.1,0,4.2-0.7,5.9-2
			v-4.7h-7.1V262.2z"/>
		<path d="M725.6,254.7v6.1h15.5v5.9h-15.5v6.8h17v5.9H719v-30.7h23.7v5.9H725.6z"/>
		<path d="M756.1,254.7h-9.6v-5.9h25.8v5.9h-9.6v24.8h-6.6V254.7z"/>
		<path d="M804.7,248.7v30.7h-6.6v-12.7h-14v12.7h-6.6v-30.7h6.6v12.1h14v-12.1H804.7z"/>
		<path d="M819.2,254.7v6.1h15.5v5.9h-15.5v6.8h17v5.9h-23.7v-30.7h23.7v5.9H819.2z"/>
		<path d="M860.3,269l7.4,10.5h-7.5l-7-10h-4v10h-6.6v-30.7h13.8c6.7,0,11.6,4.3,11.6,10.4C868,263.9,864.9,267.6,860.3,269z
			 M849.2,263.5h6.5c3.3,0,5.5-1.7,5.5-4.3c0-2.6-2.2-4.3-5.5-4.3h-6.5V263.5z"/>
	</g>
</g>
</svg>
