<?xml version="1.0" encoding="UTF-8"?><svg id="a" xmlns="http://www.w3.org/2000/svg" viewBox="0 0 766.10221 326.5"><defs><style>.b{fill:#0828b2;}.c{fill:#1c37d3;}</style></defs><path class="b" d="M312.86248,192.62809l-25.27552-109.78814c-1.37633-5.75145-5.25957-10.58246-10.58066-13.16306L174.69491,20.8287c-5.37046-2.5628-11.61113-2.5628-16.98159,0L55.42228,69.70304c-5.32241,2.57892-9.20699,7.4097-10.58359,13.16156l-25.23508,109.78591c-.62242,2.77501-.62439,5.65324-.00577,8.42909,.18214,.84562,.42009,1.67826,.71231,2.49244,.49385,1.38941,1.14773,2.71663,1.94842,3.95489,.34675,.52951,.7123,1.0446,1.10991,1.54363l36.37941,45.23056c.07737-.59763,.14396-1.19619,.22503-1.79349,.63516-4.67915-.82505-8.79907-2.36823-12.98835-2.62614-7.12926-6.18583-13.90535-7.20109-21.62316-1.15289-8.76378-.86963-17.54254-.7321-26.3082,.07699-4.91042-1.26728-9.36286-2.73763-13.86851-1.95987-6.0056-4.58644-11.80894-5.47418-18.13722-.4434-3.16086-.54907-6.29177,.43833-9.40559,.62424-1.9687,1.73039-3.50718,3.82811-3.54824,2.12175-.04157,3.42816,1.56114,3.93588,3.44627,1.04604,3.88381,1.92295,7.81744,2.74209,11.75703,1.17805,5.63738,2.95812,11.13196,5.3096,16.38918,1.53167,3.43901,2.79714,3.49328,5.12959,.52561,1.10991-1.51711,1.69664-3.35388,1.67174-5.23348,.50731-10.63094,1.11704-21.25704,1.61768-31.88831,.247-3.44824,.97335-6.84523,2.15812-10.09294,.81482-2.4265,2.65739-4.52263,5.42193-4.08228,2.87535,.45799,3.04782,3.21631,2.85362,5.5256-.79876,10.62494-1.04018,21.28443-.72328,31.93463,.04712,2.26575-.10154,4.58203,1.6838,7.58364,.09014-14.20527,4.21061-26.86144,5.89928-39.91394,.15182-1.72045,.63622-3.39506,1.42629-4.93088,1.25752-2.23248,3.35468-3.31348,5.81539-2.81876,2.57637,.51805,2.66495,2.85676,2.42711,4.86717-.8608,7.2755-2.06202,14.51395-2.79416,21.80062-.77475,7.71041-1.16091,15.45986-1.76562,23.87034,2.16529-1.64706,2.17304-3.62645,2.62892-5.21865,1.97665-6.90389,4.00745-13.8016,4.70684-21.00795,.26337-1.85038,.75211-3.6616,1.45534-5.39329,.92208-2.57017,3.01934-4.28137,5.58121-3.89314,2.74556,.41609,2.33655,3.22555,2.39853,5.34336,.27134,9.27269-1.71586,18.29124-3.00292,27.40074-1.61099,10.8278-1.76752,21.82237-.46543,32.69166,.19779,1.28096,.53215,2.53706,.99736,3.74685,1.61247,4.53577,3.68045,5.25155,7.83527,2.71914,1.13113-.63735,2.19032-1.39471,3.15921-2.25895,6.34446-6.08917,13.52411-5.20058,20.95329-2.66094,1.66584,.51627,3.07706,1.63929,3.95419,3.14667,1.95316,3.35365,1.06533,5.75584-2.70793,5.41215-10.7489-.97909-16.96953,5.36908-22.86366,12.77972-3.66642,4.60983-9.17518,6.42879-14.42906,8.21613-4.4613,1.51774-5.85376,4.00481-5.77668,8.55648,.28538,16.85013,.21439,33.70607,.32474,50.55953,.00112,.17244,.016,.34472,.02205,.51712l.86648,1.0773c.30902,.38296,.64995,.7327,.98806,1.08808,1.11096,1.18307,2.36543,2.22264,3.73427,3.09455,1.7313,1.08961,3.61805,1.90998,5.5957,2.43299,1.62177,.44464,3.29471,.67535,4.9763,.68627h1.10113l43.88713-.49755c.11937-8.32255,.23818-16.64509,.35646-24.96766,.16629-12.44405,3.95841-24.35334,5.40165-36.59629,1.89469-16.38683,1.85716-32.93957-.11182-49.31766-.60861-5.18829-2.67875-8.73737-8.09314-10.76269-5.60293-2.09581-8.44354-7.87117-12.43968-12.06967-11.95701-12.5628-20.72732-27.82461-33.49089-39.72175-1.33836-1.24757-1.88878-2.83603-1.03596-4.53572,1.08344-2.36401,3.53922-3.78851,6.12919-3.55531,5.28555,.26477,9.52338,2.78023,13.11726,6.50666,4.05394,4.20356,8.00174,8.52552,12.67292,12.06962,5.03153,3.81746,6.64898,3.25652,9.25927-2.3442,4.80322-10.30588,5.03368-20.81853,2.25412-31.66847-2.88487-11.26095-7.01384-22.27574-6.44759-34.23463,.33022-6.97502,1.90986-11.10249,5.51823-10.94843,6.02414,.25722,5.29346,5.80966,5.98186,9.46041,2.25716,11.97066,4.4067,23.93847,8.87375,35.33576,.60668,1.54782,.6522,4.32467,3.12514,3.68359,1.97119-.51096,1.02756-2.83471,.91402-4.41438-1.01471-14.11831-2.4073-28.23625,.15278-42.34081,.44533-2.45343,.63883-4.98761,2.38939-7.00637,1.51126-1.74286,3.30386-2.98593,5.67142-2.27701,2.16581,.64853,3.11933,2.5027,3.16005,4.63734,.10154,5.32563,.34572,10.67247,.00812,15.97745-.65145,10.23582,1.25541,20.25562,2.14449,30.35899,.11476,1.30449,.00221,3.53086,1.84904,3.56686,1.52446,.02975,2.33547-1.88522,2.6688-3.30002,2.5225-10.70423,6.51037-21.04211,7.98063-32.00984,.37551-2.80144,.72309-5.60551,2.08571-8.19923,1.1641-2.21592,2.7266-3.19384,5.24948-2.78324,2.72256,.44312,4.17194,1.94533,4.28079,4.67522,.10886,1.3265,.06927,2.66101-.11805,3.97872-2.52719,13.43393-3.69523,27.13338-7.82256,40.2566-.17937,.64367-.31044,1.29983-.39212,1.96301-.22959,1.47387-.80994,3.41622,.62779,4.1505,1.79922,.9188,2.98363-.92035,4.02504-2.17594,5.43289-6.55081,10.65566-13.24277,14.21112-21.07161,.59805-1.37381,1.42751-2.63476,2.45225-3.72789,1.55354-1.58334,3.48077-2.76486,5.82383-1.73329,2.76419,1.21711,1.80401,3.50724,1.44826,5.63032-.47537,3.49305-1.76928,6.82437-3.77626,9.72255-11.53032,15.58773-15.31253,33.41629-15.22329,52.31056-.01633,5.67952-1.34865,11.278-3.8924,16.35605-2.38249,4.96935-2.51376,10.0838-2.20028,15.55596,1.02273,17.85011,4.64156,35.34284,6.71738,53.04238,2.46169,20.98918,3.42092,41.97226,1.79861,62.99855l15.25028-.00357c.68357-.00299,1.36646-.0432,2.04566-.12045,.97429-.11013,1.9389-.29344,2.88566-.54836,.67854-.1787,1.34729-.39275,2.0035-.64127,.51209-.19588,1.02287-.39174,1.51605-.62817,.73873-.35374,1.45529-.75201,2.14573-1.19259,1.78153-1.12025,3.36787-2.52428,4.69623-4.15652l.88357-1.99136c1.82211-21.72282-.3803-43.41619-1.46575-65.04269-.58008-11.55607-11.2829-25.00436-25.61939-25.33896-2.62018-.06109-6.20604,.75465-6.24435-3.4922-.03243-3.59074,2.35757-5.70891,5.84002-6.25598,4.48587-.68079,9.07097-.22072,13.33216,1.33776,8.80254,3.08085,13.81943-1.30594,11.3933-10.71862-2.59494-10.07855-4.30443-20.36453-5.109-30.74064-.2182-2.77777-.7221-5.52328,.0708-8.27435,.76848-2.66687,2.00352-4.99259,5.23356-4.84629,3.47603,.15737,3.18409,3.16484,3.57906,5.42477,1.52247,8.71033,3.4711,17.27396,7.83304,26.0719,1.99183-3.40258,2.24229-6.52046,2.44006-9.37112,.45959-6.62664,2.65749-12.91412,3.32455-19.48072,.18333-1.20027,.61341-2.34953,1.26309-3.37528,1.09625-1.87874,2.6231-3.38519,5.0352-2.87332,2.71122,.57534,3.5396,2.71056,3.36604,5.15-.44322,6.22781-1.06725,12.44259-1.57706,18.666-.29734,3.62935-.51414,7.26528,.13818,11.17738,2.43444-6.97883,4.86759-13.95817,7.29935-20.93803,1.2113-3.49517,1.55368-8.66315,6.90201-7.05005,4.785,1.44318,2.18829,5.96267,1.56709,9.02342-1.69026,8.32968-3.87291,16.55847-5.77339,24.84717-.44913,1.95889-1.40452,4.40898,1.0591,5.57416,2.22127,1.05061,3.43473-1.2205,4.62872-2.54451,4.88691-5.419,9.55285-11.03887,14.49429-16.40597,1.37539-1.49387,2.9369-4.24472,5.54424-2.40941,2.36423,1.66413,1.73206,4.3205,.71038,6.65705-1.91687,4.2884-4.4775,8.25887-7.5933,11.77408-4.61351,5.31597-8.02624,11.19254-9.15791,18.38738-.64568,4.65041-1.95153,9.1849-3.87807,13.46644-5.63319,11.8155-5.9179,23.94052-4.01625,36.5859,.12059,.80177,.23211,1.60492,.34895,2.40724l34.92754-43.44988c1.31524-1.64928,2.34863-3.50477,3.05834-5.4913,.29629-.81694,.53861-1.65245,.72539-2.50115,.61932-2.77296,.61779-5.64857-.00451-8.42086Z"/><g><g><path class="c" d="M389.21192,199.355c-7.78906,0-13.72298-2.16602-17.80175-6.49805-4.07862-4.33197-6.11801-10.48499-6.11817-18.45898-.06111-3.62384,.57254-7.22589,1.8667-10.61133,1.14087-2.95325,2.88293-5.63727,5.11572-7.88184,2.1991-2.16394,4.84044-3.82629,7.74268-4.87299,3.12475-1.12866,6.42587-1.69049,9.74805-1.65918,1.8531-.01471,3.70383,.13562,5.53027,.44922,1.47198,.25476,2.92662,.6012,4.35547,1.03711,1.06683,.32184,2.10693,.72644,3.11084,1.21002,.82959,.41406,1.42887,.73663,1.79785,.96777l-3.11133,8.71002c-1.64125-.84814-3.36766-1.5202-5.15039-2.00488-2.1752-.58038-4.4198-.85938-6.6709-.8291-1.65975,.00006-3.30758,.2804-4.874,.8291-1.59048,.55396-3.03307,1.46454-4.21729,2.66211-1.30395,1.35229-2.30544,2.96649-2.938,4.73535-.79154,2.26453-1.16626,4.65369-1.106,7.05176-.01529,2.08459,.22844,4.16302,.72559,6.1875,.42695,1.79456,1.22794,3.4787,2.35058,4.94238,1.13165,1.42169,2.59049,2.54846,4.252,3.28418,2.00779,.8576,4.17743,1.27039,6.35987,1.21002,1.41061,.01068,2.82013-.08167,4.21728-.27637,1.11725-.15857,2.22502-.37793,3.31836-.65723,.87375-.22101,1.7289-.51001,2.55762-.86426,.73682-.32129,1.40511-.62079,2.00488-.89844l2.97266,8.6416c-2.01886,1.12024-4.18219,1.95752-6.4292,2.48828-3.1419,.78229-6.37193,1.15411-9.6094,1.1062Z"/><path class="c" d="M444.65626,180.13625c.03074,2.66705-.39008,5.32007-1.24463,7.84668-.76039,2.25671-1.98491,4.32916-3.59473,6.08398-1.57739,1.68945-3.49865,3.02118-5.63427,3.90527-2.33666,.95013-4.84062,1.42041-7.3628,1.38281-2.49934,.03351-4.97983-.43677-7.29345-1.38281-2.13589-.88361-4.05725-2.21539-5.63428-3.90527-1.61613-1.76239-2.86209-3.83124-3.66406-6.08398-.90038-2.51678-1.34515-5.17389-1.31348-7.84668-.03372-2.66449,.42328-5.31244,1.34815-7.81152,.82711-2.23566,2.09692-4.28137,3.73339-6.01465,1.60241-1.6676,3.53229-2.9859,5.66846-3.87207,2.26797-.93695,4.7015-1.40729,7.15527-1.38281,2.47661-.02869,4.93364,.44159,7.22461,1.38281,2.12881,.88135,4.04846,2.20062,5.63428,3.87207,1.61448,1.73724,2.86083,3.7832,3.66406,6.01465,.90181,2.50427,1.34669,5.15009,1.31348,7.81152Zm-10.5083,0c.14531-2.63556-.51791-5.25269-1.90088-7.50098-1.21107-1.79211-3.2664-2.82617-5.42725-2.73047-2.16918-.09094-4.23254,.94061-5.46142,2.73047-1.40594,2.23975-2.08222,4.8606-1.93555,7.50098-.13926,2.6615,.53591,5.30225,1.93554,7.57031,1.20627,1.82336,3.27681,2.88483,5.46142,2.7998,2.17638,.08978,4.23895-.97424,5.42725-2.7998,1.3767-2.27643,2.03886-4.91351,1.90088-7.57031Z"/><path class="c" d="M472.58497,179.09914c0-3.31836-.42627-5.66895-1.27881-7.05176-.97206-1.44403-2.65688-2.23981-4.38965-2.07324-.646,0-1.31429,.03448-2.00488,.10352-.69141,.06934-1.3597,.15009-2.00488,.24219v28.06738h-10.30078v-35.11914c.875-.23047,1.90039-.47266,3.07617-.72656,1.17529-.25195,2.41976-.48212,3.7334-.69043,1.31347-.20801,2.66145-.36945,4.04394-.48438,1.38282-.11426,2.74252-.17188,4.0791-.17285,2.17585-.07465,4.34602,.26575,6.39454,1.00293,1.46928,.56879,2.83549,1.37439,4.0444,2.38477,3.05773-2.10553,6.65907-3.28204,10.37012-3.3877,2.44202-.08167,4.87543,.3299,7.15479,1.21002,1.76276,.7265,3.30148,1.90723,4.45947,3.42188,1.1427,1.55927,1.92215,3.35437,2.28125,5.25391,.43381,2.23193,.6422,4.50177,.62207,6.77539v20.53223h-10.3007v-19.28815c0-3.31836-.42627-5.66895-1.27881-7.05176-.97227-1.44409-2.65724-2.23981-4.39014-2.07324-.78641,.03918-1.56464,.17834-2.31592,.41406-.86478,.22253-1.6918,.57208-2.4541,1.03711,.3278,1.0921,.53638,2.21649,.62207,3.35352,.0918,1.1748,.13785,2.43066,.13818,3.76758v19.84082h-10.30083v-19.28809Z"/><path class="c" d="M532.17725,179.09914c0-3.31836-.42627-5.66895-1.27881-7.05176-.97206-1.44403-2.65689-2.23981-4.38965-2.07324-.646,0-1.31429,.03448-2.00488,.10352-.69141,.06934-1.3597,.15009-2.00488,.24219v28.06738h-10.30078v-35.11914c.875-.23047,1.90039-.47266,3.07617-.72656,1.17534-.25195,2.4198-.48212,3.7334-.69043,1.31348-.20801,2.66145-.36945,4.04395-.48438,1.38281-.11426,2.74251-.17188,4.0791-.17285,2.17586-.07465,4.34601,.26575,6.39453,1.00293,1.46928,.56879,2.83551,1.37439,4.04443,2.38477,3.05774-2.10553,6.65907-3.28204,10.37012-3.3877,2.44202-.08167,4.87543,.3299,7.15479,1.21002,1.76276,.7265,3.30148,1.90723,4.45947,3.42188,1.1427,1.5592,1.92216,3.35431,2.2813,5.25378,.43381,2.23193,.6422,4.50177,.62207,6.77539v20.53223h-10.30083v-19.28802c0-3.31836-.42627-5.66895-1.27881-7.05176-.97227-1.44409-2.65724-2.23981-4.39014-2.07324-.78641,.03918-1.56462,.17834-2.3159,.41406-.86478,.22253-1.6918,.57208-2.45412,1.03711,.3278,1.0921,.53638,2.21649,.62207,3.35352,.0918,1.1748,.13786,2.43066,.13818,3.76758v19.84082h-10.30078v-19.28809Z"/><path class="c" d="M602.83106,197.14308c-2.22763,.60864-4.49007,1.08185-6.7749,1.41699-2.88197,.44672-5.79457,.66644-8.71094,.65723-2.62511,.07855-5.24113-.34406-7.70801-1.24512-1.90053-.72028-3.58043-1.92358-4.87399-3.49121-1.23674-1.57568-2.11024-3.40503-2.55811-5.35742-.52621-2.24261-.78145-4.54028-.76025-6.84375v-20.25586h10.3008v19.01074c0,3.31836,.43782,5.71515,1.31348,7.19043,.875,1.47559,2.51106,2.21289,4.9082,2.21191,.73682,0,1.52034-.03448,2.35059-.10352,.82959-.06934,1.56705-.15009,2.2124-.24219v-28.06738h10.30078l-.00005,35.11914Z"/><path class="c" d="M612.5088,163.26808c2.22769-.60773,4.4899-1.08093,6.77441-1.41699,2.88199-.44666,5.79456-.66644,8.71094-.65723,2.62234-.07623,5.23611,.33405,7.70901,1.21002,1.89447,.69708,3.57416,1.87659,4.87299,3.42188,1.23065,1.54071,2.10446,3.33502,2.55859,5.25391,.52811,2.21912,.78323,4.49445,.75977,6.77539v20.53223h-10.30075v-19.28815c0-3.31836-.4375-5.66895-1.3125-7.05176-.87695-1.38184-2.51303-2.07294-4.9082-2.07324-.73828,0-1.52213,.03448-2.35156,.10352-.83005,.06934-1.56769,.15009-2.21289,.24219v28.06738h-10.2998v-35.11914Z"/><path class="c" d="M664.49513,151.51515c.08551,1.68524-.5864,3.32062-1.832,4.45898-2.47275,2.16669-6.16788,2.16669-8.64062,0-2.44275-2.47089-2.44275-6.44714,0-8.91803,2.47324-2.16534,6.16739-2.16534,8.64062,0,1.24496,1.13885,1.91672,2.77386,1.832,4.45905Zm-.96777,46.87207h-10.30078v-36.36328h10.30078v36.36328Z"/><path class="c" d="M672.85938,152.9673l10.30078-1.65918v10.71582h12.375v8.57227h-12.375v12.78906c-.08514,1.79895,.30844,3.58838,1.14062,5.18555,.76074,1.29004,2.2933,1.93524,4.59766,1.93555,1.14755-.00354,2.29257-.10779,3.42188-.31152,1.09665-.18518,2.17316-.47461,3.21484-.86426l1.45215,8.01953c-1.34808,.54071-2.73477,.9798-4.14844,1.31348-1.83865,.40173-3.7179,.58759-5.59961,.55371-2.37936,.07416-4.75055-.31354-6.98242-1.1416-1.71936-.66956-3.24121-1.76343-4.42383-3.17969-1.14728-1.44446-1.94058-3.13739-2.31641-4.94336-.45679-2.11188-.67722-4.26807-.65723-6.42871v-30.55664Z"/><path class="c" d="M736.94434,162.02394c-2.0791,7.00586-4.25064,13.57324-6.51465,19.70215-2.26367,6.12988-4.73599,12.0752-7.41699,17.83594-.83621,1.83289-1.80798,3.60077-2.90723,5.28906-.87881,1.34875-1.95227,2.56006-3.18555,3.59473-1.15356,.94403-2.4834,1.64911-3.91211,2.07422-1.65482,.46442-3.36841,.68549-5.08691,.65625-1.50079,.01208-2.99847-.13855-4.4668-.44922-1.14639-.23468-2.2699-.56995-3.35742-1.00195l1.79782-8.22656c.92218,.33179,1.87048,.58594,2.83499,.75977,.86905,.14178,1.74835,.21136,2.62891,.20801,1.56067,.10278,3.09601-.43378,4.25293-1.48633,1.11267-1.18518,1.97198-2.58478,2.52539-4.11328-2.35254-4.6084-4.70444-9.78192-7.05566-15.52051-2.552-6.31921-4.76797-12.76898-6.63867-19.32227h10.92285c.46191,1.79688,1.00586,3.74384,1.63184,5.84082,.625,2.09863,1.28482,4.21875,1.97949,6.36035,.69336,2.14355,1.39908,4.22919,2.11719,6.25684,.7168,2.02832,1.39975,3.87177,2.04883,5.53027,.60059-1.65918,1.22525-3.50262,1.87399-5.53027,.64844-2.02734,1.28482-4.11298,1.90918-6.25684,.62402-2.14258,1.22559-4.2627,1.80469-6.36035,.57812-2.09668,1.09863-4.04364,1.56152-5.84082h10.65237Z"/></g><path class="b" d="M365.28796,242.71619l.00201,.01257,.00031,.00101-.00232-.01358Z"/><g><path class="c" d="M407.25183,247.88122c.07968,3.71063-.57822,7.40015-1.93555,10.85449-1.1973,2.95746-3.08121,5.58752-5.49609,7.67285-2.53806,2.11603-5.49503,3.67126-8.67676,4.56348-3.73199,1.05688-7.59714,1.56903-11.47559,1.52051-1.93555,0-4.194-.08075-6.77539-.24219-2.55496-.15771-5.09589-.49255-7.60449-1.00195v-46.66498c2.57095-.4696,5.16827-.78107,7.77734-.93262,2.69629-.16113,5.01236-.24182,6.94824-.24219,3.76688-.04236,7.52228,.42273,11.16501,1.38281,3.14609,.82281,6.08029,2.30768,8.60645,4.35547,2.4404,2.04199,4.34015,4.65381,5.53125,7.60449,1.37265,3.54608,2.03046,7.32855,1.93558,11.12982Zm-31.17871,15.20898c.50684,.04688,1.09439,.08173,1.7627,.10449,.668,.02344,1.46292,.03485,2.38477,.03418,5.39258,0,9.39096-1.35968,11.99512-4.0791,2.60254-2.71875,3.9043-6.47491,3.90527-11.26855,0-5.02246-1.24414-8.82452-3.73242-11.40625-2.48926-2.58105-6.43002-3.87177-11.82227-3.87207-.7373,0-1.49771,.01172-2.28125,.03516-.73978,.01996-1.47803,.07764-2.21191,.17285v30.2793Z"/><path class="c" d="M428.61414,234.53845c2.57419-.06702,5.14227,.2832,7.60449,1.03711,1.84296,.57819,3.51633,1.59882,4.87399,2.97266,1.241,1.32764,2.13202,2.94324,2.59277,4.70117,.52692,2.008,.78244,4.07751,.75977,6.15332v21.43066c-1.47559,.32324-3.52637,.70343-6.15234,1.14062-3.15704,.47614-6.34747,.69592-9.54001,.65723-2.14786,.0199-4.29175-.1886-6.39551-.62207-1.76419-.35297-3.44284-1.04584-4.94238-2.03998-1.36942-.92889-2.46713-2.20526-3.18066-3.69824-.78625-1.75922-1.16418-3.67358-1.10547-5.59961-.05881-1.87897,.38232-3.73993,1.27832-5.39258,.82443-1.44568,2.00211-2.65863,3.42285-3.52539,1.51538-.90961,3.17551-1.55273,4.9082-1.90137,1.8866-.39624,3.80957-.59332,5.7373-.58789,1.18912-.0069,2.37772,.05078,3.56055,.17285,.85184,.08179,1.69571,.23199,2.52344,.44922v-.96777c.07147-1.56427-.50342-3.08911-1.58984-4.2168-1.06055-1.05957-2.90396-1.58948-5.53027-1.58984-1.7355-.0011-3.46872,.12592-5.18555,.37988-1.50723,.20544-2.98956,.56433-4.42383,1.07117l-1.31348-8.2959c.59766-.18359,1.34634-.37927,2.24609-.58691,.89941-.20801,1.87891-.39258,2.93848-.55371s2.17709-.29944,3.35254-.41498c1.17578-.11426,2.36264-.17188,3.56055-.17285Zm.83008,30.14258c1.0127,0,1.98047-.02313,2.90332-.06934,.74063-.02777,1.4791-.09723,2.21191-.20801v-7.81152c-.41504-.0918-1.03711-.1839-1.86621-.27637-.75732-.08783-1.51886-.13409-2.28125-.13867-.9133-.00305-1.82581,.05469-2.73145,.17285-.77966,.09442-1.53851,.31647-2.24609,.65723-.61469,.29517-1.13977,.74847-1.52148,1.31348-.38766,.62048-.58023,1.34308-.55273,2.07422-.13992,1.33533,.48941,2.63458,1.62399,3.35254,1.38168,.68945,2.91779,1.01105,4.45999,.93359Z"/><path class="c" d="M485.23425,235.5072c-2.0791,7.00586-4.25067,13.57324-6.51465,19.70215-2.26367,6.12988-4.73602,12.0752-7.41699,17.83594-.83621,1.83289-1.80798,3.60077-2.90723,5.28906-.87881,1.34875-1.95227,2.56006-3.18555,3.59473-1.15356,.94403-2.4834,1.64911-3.91211,2.07422-1.65482,.46442-3.36841,.68549-5.08691,.65625-1.50079,.01208-2.99847-.13855-4.4668-.44922-1.14639-.23468-2.2699-.57001-3.35742-1.00195l1.79785-8.22656c.92218,.33179,1.87048,.58594,2.83499,.75977,.86905,.14178,1.74835,.21136,2.62891,.20801,1.56067,.10278,3.09601-.43378,4.25293-1.48633,1.11267-1.18518,1.97198-2.58478,2.52539-4.11328-2.35254-4.6084-4.70441-9.78192-7.05566-15.52051-2.552-6.31921-4.76797-12.76898-6.63867-19.32227h10.92285c.46191,1.79688,1.00586,3.74384,1.63184,5.84082,.625,2.09863,1.28485,4.21875,1.97949,6.36035,.69333,2.14355,1.39905,4.22919,2.11719,6.25684,.7168,2.02832,1.39975,3.87177,2.04883,5.53027,.60059-1.65918,1.22522-3.50262,1.87399-5.53027,.64844-2.02734,1.28482-4.11298,1.90918-6.25684,.62396-2.14258,1.22552-4.2627,1.80469-6.36035,.57812-2.09668,1.09863-4.04364,1.56152-5.84082h10.65234Z"/><path class="c" d="M501.13464,264.47302c1.35999,.08331,2.72302-.10455,4.00977-.55273,.80219-.39764,1.27124-1.25342,1.1748-2.14355-.07587-.94739-.65723-1.78009-1.52051-2.17773-1.47919-.83722-3.02905-1.54272-4.63184-2.1084-1.49396-.54712-2.95905-1.16998-4.38965-1.86621-1.2337-.58923-2.36572-1.37115-3.35352-2.31641-.93024-.9104-1.65997-2.00507-2.14258-3.21387-.54108-1.43494-.79944-2.96106-.76074-4.49414-.12164-3.15369,1.29645-6.1698,3.80273-8.08789,2.5332-1.98145,6.0127-2.97266,10.43848-2.97363,2.13397-.00659,4.26373,.19025,6.36035,.58789,1.646,.28986,3.26465,.71783,4.83887,1.2793l-1.79688,8.01953c-1.28143-.43811-2.58539-.8075-3.90625-1.10645-1.55536-.33826-3.14374-.50079-4.73535-.48438-3.22656,0-4.83984,.89874-4.83984,2.69629-.0069,.37915,.06384,.75568,.20801,1.10645,.18713,.38025,.47363,.70282,.8291,.93359,.53656,.37079,1.10333,.6958,1.69434,.97168,.71387,.34863,1.62402,.73175,2.73047,1.14941,1.92395,.68829,3.79541,1.51538,5.59961,2.47461,1.30023,.68066,2.47968,1.57043,3.49121,2.63379,.82703,.89819,1.44147,1.97089,1.79785,3.13867,.36603,1.30109,.54071,2.64856,.51855,4,.17615,3.23584-1.35962,6.32654-4.04492,8.14062-2.69629,1.83887-6.51007,2.75848-11.44141,2.75879-4.27625,.09906-8.52954-.65283-12.5127-2.21191l1.72852-8.36523c1.74878,.69098,3.55225,1.2345,5.3916,1.625,1.79504,.38629,3.62573,.58301,5.46191,.58691Z"/></g></g><g><path class="c" d="M393.53065,125.77785c-.97119-1.55859-2.11556-3.24347-3.43311-5.05469-1.31738-1.80957-2.73697-3.63446-4.25878-5.47461-1.522-1.83887-3.11462-3.60223-4.77784-5.28998-1.56342-1.59778-3.22974-3.09155-4.98828-4.47168v20.29102h-10.78467v-47.90924h10.78467v18.00592c2.77296-2.91211,5.58969-5.95831,8.4502-9.13867,2.86035-3.17868,5.50211-6.13443,7.92529-8.86719h12.79834c-3.26025,3.88382-6.54004,7.61722-9.83936,11.2002-3.29933,3.58398-6.7715,7.19012-10.4165,10.81836,4.05556,3.42517,7.76968,7.23529,11.09029,11.37689,3.72347,4.61871,7.15402,9.46606,10.27148,14.51367h-12.82173Z"/><path class="c" d="M440.57264,124.53371c-2.22763,.60864-4.49007,1.08185-6.7749,1.41699-2.88197,.44672-5.79457,.66644-8.71094,.65723-2.62511,.07855-5.24113-.34406-7.70801-1.24512-1.90053-.72028-3.58043-1.92358-4.87399-3.49121-1.23674-1.57568-2.11024-3.40503-2.55811-5.35742-.5262-2.24261-.78145-4.54028-.76025-6.84375v-20.25586h10.30078v19.01074c0,3.31836,.43782,5.71515,1.31348,7.19043,.875,1.47559,2.51106,2.21289,4.9082,2.21191,.73682,0,1.52034-.03448,2.35059-.10352,.82959-.06934,1.56706-.15009,2.2124-.24219v-28.06738h10.30078l-.00003,35.11914Z"/><path class="c" d="M484.05653,107.59621c.03645,2.6814-.39633,5.34857-1.27881,7.88086-.78885,2.24622-2.05009,4.29718-3.69873,6.01465-1.67596,1.70001-3.70583,3.01007-5.94531,3.83691-2.56824,.93604-5.28642,1.39282-8.01953,1.34766-1.24414,0-2.54607-.05762-3.90578-.17285-1.35986-.11523-2.69646-.26495-4.00977-.44922-1.31348-.18457-2.56934-.40332-3.76758-.65625-1.19922-.25293-2.25928-.51788-3.18018-.79492v-50.81247l10.3008-1.65918v18.1123c1.15685-.50848,2.36087-.90198,3.59473-1.1748,1.31737-.2847,2.66202-.42386,4.00977-.41501,2.35159-.04605,4.68565,.41351,6.84424,1.34766,1.93942,.86707,3.64536,2.18207,4.97754,3.83691,1.39568,1.77509,2.42908,3.80707,3.0415,5.98047,.71893,2.52887,1.06825,5.14844,1.03711,7.77728Zm-10.5083-.27637c0-6.63672-2.44255-9.95508-7.32764-9.95508-1.06209,0-2.1196,.13922-3.14551,.41406-.88918,.21484-1.74019,.56458-2.52344,1.03711v18.73535c.50635,.09277,1.15154,.17352,1.93555,.24219,.7832,.06836,1.63591,.10284,2.55811,.10352,2.47246,.15759,4.85974-.93262,6.35986-2.9043,1.52397-2.25916,2.27579-4.95093,2.14307-7.67285Z"/><path class="c" d="M490.27723,107.87257c-.0605-2.89276,.44438-5.76947,1.48633-8.46875,.88486-2.25702,2.2131-4.31378,3.90625-6.04883,1.58162-1.59308,3.47652-2.84073,5.56494-3.66406,2.05588-.82217,4.24968-1.24475,6.46387-1.24512,5.16113,0,9.24007,1.57877,12.23682,4.73633,2.99512,3.15723,4.493,7.80048,4.49365,13.92969,0,.59961-.02312,1.25653-.06934,1.9707-.04639,.71484-.09245,1.34863-.13818,1.90137h-23.36667c.1841,2.0426,1.27525,3.89478,2.97266,5.0459,2.09814,1.34259,4.56363,1.99548,7.05127,1.86719,1.86729,.00201,3.73065-.17157,5.56543-.51855,1.52905-.26031,3.02452-.68933,4.459-1.2793l1.38232,8.36523c-.71304,.33722-1.4529,.6145-2.21191,.8291-1.01157,.29797-2.03865,.54053-3.07666,.72656-1.12988,.20703-2.33969,.37988-3.62939,.51855-1.28595,.13757-2.57829,.20667-3.87158,.20697-2.91234,.06354-5.81003-.42932-8.5376-1.45215-2.27148-.86896-4.32465-2.22571-6.01463-3.97461-1.6049-1.70685-2.80937-3.74982-3.52588-5.98047-.77711-2.41156-1.16223-4.93219-1.14069-7.46576Zm24.19629-3.94043c-.04509-.86761-.19595-1.72656-.44922-2.55762-.24251-.80774-.64189-1.55969-1.17529-2.21289-.55203-.66199-1.23451-1.20319-2.00488-1.58984-.93872-.44348-1.96968-.65674-3.00732-.62207-1.02217-.02637-2.03746,.17444-2.97266,.58789-.79385,.36499-1.50081,.89502-2.07373,1.55469-.56293,.66254-.99669,1.42474-1.27881,2.24707-.2972,.84253-.51701,1.71039-.65674,2.59277h13.61865Z"/><path class="c" d="M554.29432,98.53957c-.92188-.23047-2.00522-.47235-3.25-.72559-1.32047-.2608-2.66379-.38843-4.00977-.38086-.77432,.00983-1.54727,.06757-2.31445,.17285-.689,.07507-1.37128,.20239-2.04099,.38086v27.79102h-10.29984v-34.42773c2.14233-.72995,4.32321-1.34152,6.53271-1.832,2.7587-.60226,5.57639-.89218,8.3999-.86426,.55273,0,1.2207,.03452,2.00391,.10352,.7832,.06934,1.56705,.16147,2.35156,.27637,.7832,.11621,1.56641,.25452,2.34961,.41501,.68558,.13263,1.35715,.32947,2.00586,.58789l-1.72852,8.50293Z"/><path class="c" d="M561.55213,90.65871c2.228-.60785,4.49054-1.08102,6.77539-1.41699,2.88196-.44672,5.79456-.66647,8.71094-.65723,2.62201-.07617,5.23544,.33408,7.70801,1.20999,1.8949,.69681,3.57498,1.87637,4.87399,3.42191,1.22998,1.54102,2.10342,3.33527,2.55762,5.25391,.52893,2.21899,.78442,4.49438,.76074,6.77539v20.53223h-10.30075v-19.28815c0-3.31836-.43784-5.66895-1.31348-7.05176-.87601-1.38184-2.51205-2.07294-4.9082-2.07324-.73828,0-1.52182,.03448-2.35059,.10352-.83008,.06934-1.56772,.15009-2.21289,.24219v28.06738h-10.30078v-35.11914Z"/><path class="c" d="M600.54334,107.87257c-.06076-2.89276,.44415-5.76953,1.48633-8.46875,.88452-2.25696,2.21243-4.31372,3.90527-6.04883,1.58188-1.59302,3.47693-2.84061,5.56543-3.66406,2.05588-.82217,4.24969-1.24475,6.46387-1.24512,5.16113,0,9.2399,1.57877,12.23633,4.73633,2.99609,3.15723,4.49414,7.80048,4.49414,13.92969,0,.59961-.02441,1.25684-.06934,1.9707-.04688,.71484-.09311,1.34863-.13867,1.90137h-23.36621c.18411,2.0426,1.27524,3.89478,2.97266,5.0459,2.0983,1.34265,4.56396,1.99554,7.05176,1.86719,1.86697,.00201,3.73001-.17163,5.56445-.51855,1.52908-.26019,3.02457-.68921,4.45901-1.2793l1.38281,8.36523c-.71307,.3371-1.45294,.61444-2.21191,.8291-1.01141,.29797-2.03833,.54053-3.07617,.72656-1.12988,.20703-2.33984,.37988-3.62988,.51855-1.2858,.13757-2.57797,.2066-3.87109,.20697-2.91251,.06354-5.81036-.42932-8.53809-1.45215-2.27155-.86884-4.32474-2.22559-6.01465-3.97461-1.6051-1.70667-2.80945-3.74969-3.52539-5.98047-.77734-2.4115-1.16245-4.93219-1.14066-7.46576Zm24.19629-3.94043c-.04581-.86755-.19666-1.72638-.44922-2.55762-.24268-.80774-.64224-1.55969-1.17578-2.21289-.55215-.66187-1.23459-1.20306-2.00488-1.58984-.9386-.44342-1.96936-.65668-3.00684-.62207-1.02219-.02649-2.03751,.17426-2.97266,.58789-.79416,.36475-1.50131,.89478-2.07422,1.55469-.56256,.6629-.9964,1.42499-1.2793,2.24707-.29703,.84253-.51669,1.71039-.65625,2.59277h13.61914Z"/><path class="c" d="M642.29823,80.35793l10.30078-1.65918v10.71582h12.375v8.57227h-12.375v12.78906c-.08514,1.79895,.30844,3.58832,1.14062,5.18555,.76074,1.28998,2.2933,1.93518,4.59766,1.93555,1.14755-.00354,2.29257-.10779,3.42188-.31152,1.09668-.18518,2.17316-.47455,3.21484-.86426l1.45215,8.01953c-1.34811,.54071-2.7348,.9798-4.14844,1.31348-1.83865,.40173-3.7179,.58759-5.59961,.55371-2.37936,.0741-4.75055-.31354-6.98242-1.1416-1.71933-.66956-3.24121-1.76343-4.42383-3.17969-1.14728-1.44446-1.94058-3.13739-2.31641-4.94336-.45679-2.11188-.67722-4.26807-.65723-6.42871v-30.55664Z"/><path class="c" d="M670.22889,107.87257c-.06076-2.89276,.44415-5.76953,1.48633-8.46875,.88452-2.25696,2.21243-4.31372,3.90527-6.04883,1.58188-1.59296,3.47693-2.84061,5.56543-3.66406,2.05588-.82217,4.24969-1.24475,6.46387-1.24512,5.16113,0,9.2399,1.57877,12.23633,4.73633,2.99609,3.15723,4.49414,7.80048,4.49414,13.92969,0,.59961-.02441,1.25684-.06934,1.9707-.04688,.71484-.09311,1.34863-.13867,1.90137h-23.36621c.18408,2.0426,1.27524,3.89478,2.97266,5.0459,2.0983,1.34265,4.56396,1.99554,7.05176,1.86719,1.86697,.00201,3.73001-.17163,5.56445-.51855,1.52908-.26019,3.02457-.68921,4.45901-1.2793l1.38281,8.36523c-.71307,.3371-1.45294,.61444-2.21191,.8291-1.01141,.29797-2.03833,.54053-3.07617,.72656-1.12988,.20703-2.33984,.37988-3.62988,.51855-1.2858,.13751-2.57797,.2066-3.87109,.20697-2.91251,.06354-5.81036-.42932-8.53809-1.45215-2.27155-.86884-4.32474-2.22559-6.01465-3.97461-1.6051-1.7066-2.80945-3.74969-3.52539-5.98047-.77734-2.4115-1.16245-4.93219-1.14066-7.46576Zm24.19629-3.94043c-.04581-.86755-.19666-1.72638-.44922-2.55762-.24268-.80774-.64224-1.55969-1.17578-2.21289-.55215-.66187-1.23459-1.20306-2.00488-1.58984-.9386-.44342-1.96936-.65668-3.00684-.62207-1.02219-.02649-2.03751,.17426-2.97266,.58789-.79416,.36475-1.50131,.89478-2.07422,1.55469-.56256,.6629-.99643,1.42499-1.2793,2.24707-.29703,.84253-.51669,1.71039-.65625,2.59277h13.61914Z"/><path class="c" d="M722.7689,118.38039c1.36002,.08331,2.72302-.10455,4.00977-.55273,.80222-.39764,1.27124-1.25342,1.1748-2.14355-.07587-.94739-.65723-1.78009-1.52051-2.17773-1.47916-.83722-3.02908-1.54272-4.63184-2.1084-1.49396-.54712-2.95908-1.16998-4.38965-1.86621-1.23373-.58923-2.36572-1.37115-3.35352-2.31641-.93021-.9104-1.65997-2.00507-2.14258-3.21387-.54108-1.43494-.79941-2.96106-.76074-4.49414-.12164-3.15363,1.29648-6.1698,3.80273-8.08789,2.5332-1.98145,6.0127-2.97266,10.43848-2.97363,2.13397-.00662,4.26373,.19025,6.36035,.58789,1.646,.28989,3.26468,.71783,4.83887,1.2793l-1.79688,8.01953c-1.28143-.43811-2.58539-.8075-3.90625-1.10645-1.55533-.33826-3.14374-.50073-4.73535-.48438-3.22656,0-4.83984,.89874-4.83984,2.69629-.00693,.37915,.06387,.75568,.20801,1.10645,.18713,.38025,.47363,.70282,.8291,.93359,.53656,.37079,1.10333,.6958,1.69434,.97168,.71387,.34863,1.62402,.73175,2.73047,1.14941,1.92395,.68835,3.79538,1.51538,5.59961,2.47461,1.30023,.68066,2.47971,1.57043,3.49121,2.63379,.827,.89819,1.44144,1.97089,1.79785,3.13867,.36603,1.30109,.54071,2.64856,.51855,4,.17612,3.23584-1.35962,6.32654-4.04492,8.14062-2.69629,1.83887-6.5101,2.75848-11.44141,2.75879-4.27625,.09906-8.52954-.65283-12.51266-2.21191l1.72852-8.36523c1.74878,.69098,3.55228,1.2345,5.3916,1.625,1.79507,.38629,3.62573,.58301,5.46188,.58691Z"/></g></svg>