<svg id="Layer_1" data-name="Layer 1" xmlns="http://www.w3.org/2000/svg" viewBox="0 0 298 109"><defs><style>.cls-1{fill:#231f20;}.cls-2{fill:#449fd8;}.cls-3{fill:#f04d5c;}</style></defs><path class="cls-1" d="M183.537,67.645a37.12755,37.12755,0,0,1,2.332-13.556,31.71373,31.71373,0,0,1,6.179-10.151,26.82938,26.82938,0,0,1,8.764-6.368,24.72474,24.72474,0,0,1,10.214-2.206,25.70947,25.70947,0,0,1,10.404,2.017,20.31855,20.31855,0,0,1,7.692,5.801,26.66771,26.66771,0,0,1,4.728,9.079,40.04743,40.04743,0,0,1,1.64,11.854,35.42539,35.42539,0,0,1-.378,5.673H193.75q.63151,9.963,6.116,15.763,5.487,5.8035,14.313,5.801a24.0931,24.0931,0,0,0,8.133-1.324,36.04318,36.04318,0,0,0,7.125-3.467l3.656,6.808a52.10239,52.10239,0,0,1-8.953,4.414,31.10239,31.10239,0,0,1-11.222,1.891,30.02479,30.02479,0,0,1-11.539-2.206,27.31031,27.31031,0,0,1-9.331-6.305,29.16536,29.16536,0,0,1-6.242-10.025A37.53162,37.53162,0,0,1,183.537,67.645ZM226.41,62.98q0-9.4575-3.971-14.439-3.972-4.9815-11.159-4.981a15.11412,15.11412,0,0,0-6.242,1.324,17.31388,17.31388,0,0,0-5.36,3.784,20.11652,20.11652,0,0,0-3.971,6.052,27.9377,27.9377,0,0,0-2.082,8.261H226.41Z"/><path class="cls-1" d="M255.79,66.132,237.254,36.876h11.222l8.196,13.493q1.386,2.5245,2.9,5.108,1.515,2.586,3.153,5.106h.504q1.386-2.52,2.774-5.106,1.38748-2.5845,2.775-5.108l7.44-13.493h10.844l-18.536,30.39,19.923,30.895H277.227l-8.953-14.25q-1.641-2.7705-3.279-5.549-1.641-2.7705-3.404-5.421h-.504q-1.641,2.6475-3.153,5.358-1.5135,2.7135-3.026,5.612l-8.323,14.25H235.74Z"/><path class="cls-1" d="M181.116,91.189a8.33326,8.33326,0,0,1-2.182.243c-1.253,0-2.412-.908-2.71-3.174V8.378H165.757V31.959l.449,9.298v1.124a41.151,41.151,0,0,0-7.888-5.127,20.93385,20.93385,0,0,0-9.207-1.891,23.28869,23.28869,0,0,0-10.088,2.269,25.99538,25.99538,0,0,0-8.449,6.431,31.85984,31.85984,0,0,0-5.864,10.151,38.62251,38.62251,0,0,0-2.206,13.43q0,15.387,6.873,23.707,6.8715,8.3235,18.473,8.323a20.84592,20.84592,0,0,0,10.152-2.585,38.80614,38.80614,0,0,0,8.386-6.116h.189c1.006,5.65,4.144,8.701,10.175,8.701a13.3823,13.3823,0,0,0,5.697-.969Zm-15.359-8.664a29.00682,29.00682,0,0,1-7.565,6.368,16.50212,16.50212,0,0,1-8.07,2.08q-8.073,0-12.485-6.179-4.416-6.177-4.414-17.275a30.99774,30.99774,0,0,1,1.388-9.583,23.93951,23.93951,0,0,1,3.782-7.377,17.3064,17.3064,0,0,1,5.612-4.792,14.46551,14.46551,0,0,1,6.873-1.702,19.585,19.585,0,0,1,7.377,1.45,26.1332,26.1332,0,0,1,7.502,4.981Z"/><path class="cls-2" d="M93.012,51.878a25.19624,25.19624,0,0,0,14.175-18.53A50.95285,50.95285,0,0,0,74.76,5.155a38.45364,38.45364,0,0,1,6.771,24.17A32.62438,32.62438,0,0,1,93.012,51.878ZM31.937,38.845a25.1843,25.1843,0,0,0-21.858,8.054A50.95535,50.95535,0,0,0,22.766,88.462a38.89777,38.89777,0,0,1,6.831-24.483A32.61292,32.61292,0,0,1,31.937,38.845Zm5.74,38.386a25.21715,25.21715,0,0,0,3.642,24.215,51.06313,51.06313,0,0,0,38.643-.035A38.467,38.467,0,0,1,60.075,86.68,32.48875,32.48875,0,0,1,37.677,77.231ZM67.788,22.506A25.2,25.2,0,0,0,52.559,3.774,51.13542,51.13542,0,0,0,17.426,26.935a38.785,38.785,0,0,1,24.529.639A32.27928,32.27928,0,0,1,67.788,22.506ZM90.557,66.761a32.4035,32.4035,0,0,1-15.678,16.61,25.37068,25.37068,0,0,0,22.852,5.834,51.11352,51.11352,0,0,0,13.9-35.009A38.66315,38.66315,0,0,1,90.557,66.761Z"/><circle class="cls-3" cx="60.702" cy="54.196" r="15.972"/></svg>