<?xml version="1.0" encoding="UTF-8"?>
<svg version="1.1" xmlns="http://www.w3.org/2000/svg" width="500" height="500">
<path d="M0 0 C0.60835693 0.31934509 1.21671387 0.63869019 1.84350586 0.9677124 C2.50998642 1.30117172 3.17646698 1.63463104 3.86314392 1.97819519 C6.05451103 3.07918972 8.2336838 4.20234459 10.41357422 5.3258667 C11.9605559 6.10811424 13.50829598 6.88886354 15.05674744 7.66819763 C19.13703706 9.72641674 23.20755845 11.80324405 27.27606201 13.88464355 C31.33444001 15.95767691 35.40033702 18.01582427 39.46630859 20.07391357 C40.25711004 20.47423231 41.04791149 20.87455105 41.86267662 21.28700066 C43.44659402 22.08879828 45.03053943 22.89054055 46.6145134 23.69222641 C48.97773457 24.88920767 51.33985197 26.08834515 53.70181274 27.28781128 C62.84485474 31.92620741 72.02953972 36.45215383 81.29981995 40.83204651 C89.00321446 44.48071509 96.6339599 48.26780839 104.25341797 52.08758545 C104.88287764 52.40305517 105.5123373 52.71852489 106.16087151 53.04355431 C111.3218859 55.63100823 116.48026214 58.22370518 121.6385498 60.81658936 C126.13396465 63.07599992 130.63039643 65.33336837 135.12841797 67.58758545 C135.75108299 67.89969908 136.37374802 68.21181271 137.01528168 68.53338432 C146.35551203 73.2112571 155.73985063 77.78975902 165.18334961 82.25616455 C170.98561787 85.00184645 176.7301308 87.84381382 182.44091797 90.77508545 C183.13515869 91.1265564 183.82939941 91.47802734 184.54467773 91.84014893 C188.19091578 93.76313978 190.55527416 95.31547936 192.69091797 98.83758545 C193.4448493 101.33715204 194.07039645 103.74767913 194.62057495 106.29086304 C194.79019281 107.03624132 194.95981066 107.7816196 195.13456845 108.5495851 C195.6951163 111.0232953 196.24154272 113.49990686 196.78808594 115.97674561 C197.18372079 117.73514494 197.58029366 119.49333346 197.97775078 121.25132179 C198.80893191 124.93474562 199.6344698 128.61936811 200.45552826 132.30506134 C201.62536457 137.55286321 202.81206511 142.79671149 204.00445557 148.03942871 C208.62244682 168.35909031 213.18143785 188.69212384 217.73681831 209.02589989 C220.01565578 219.19678084 222.3001591 229.36632439 224.59814453 239.53289795 C226.62913298 248.5182526 228.65007659 257.50579524 230.65875423 266.49616492 C231.71496797 271.22203723 232.77597772 275.94670817 233.84909439 280.66877365 C234.85154599 285.08072508 235.84041538 289.49550329 236.81900978 293.91280556 C237.17884818 295.52597029 237.54355823 297.13805762 237.91360664 298.7489109 C241.43526821 314.10275138 241.43526821 314.10275138 239.69091797 321.83758545 C237.82763672 324.7789917 237.82763672 324.7789917 235.37841797 327.40008545 C234.45909266 328.42257985 233.54392086 329.44881967 232.63232422 330.47821045 C232.15037598 331.01768311 231.66842773 331.55715576 231.171875 332.11297607 C228.55165202 335.16428751 226.19799126 338.41183877 223.81591797 341.65008545 C219.35072707 347.67604425 214.75342883 353.57142481 210.04638672 359.40985107 C206.50724797 363.80374265 203.0400556 368.24347024 199.61132812 372.7243042 C196.07699815 377.34216155 192.51308193 381.9364401 188.94091797 386.52508545 C188.34811035 387.28667969 187.75530273 388.04827393 187.14453125 388.83294678 C185.93157116 390.3910435 184.71851711 391.94906708 183.50537109 393.50701904 C180.56578459 397.28275811 177.62844082 401.0602408 174.69091797 404.83758545 C173.52426258 406.33759422 172.3575959 407.83759421 171.19091797 409.33758545 C170.61341797 410.08008545 170.03591797 410.82258545 169.44091797 411.58758545 C158.35758464 425.83758545 147.2742513 440.08758545 136.19091797 454.33758545 C135.61293457 455.08072998 135.03495117 455.82387451 134.43945312 456.58953857 C133.27775949 458.08309833 132.11597625 459.57658841 130.95410156 461.07000732 C127.34429611 465.71017263 123.73809831 470.35311659 120.1340332 474.9977417 C118.3685362 477.26986782 116.59855238 479.53843147 114.82763672 481.80633545 C112.93583444 484.22983552 111.06051829 486.66335916 109.21044922 489.11883545 C108.52337891 490.01602295 107.83630859 490.91321045 107.12841797 491.83758545 C106.57025391 492.58008545 106.01208984 493.32258545 105.43701172 494.08758545 C101.69387159 497.8390995 97.55791117 498.06974879 92.41542912 498.10507226 C91.59295909 498.10061082 90.77048906 498.09614937 89.9230957 498.09155273 C89.0403041 498.09467272 88.15751249 498.0977927 87.24796963 498.10100722 C84.29008239 498.10898409 81.33240048 498.10266475 78.37451172 498.09637451 C76.25383382 498.09908451 74.13315686 498.10264549 72.01248169 498.10699463 C66.25227174 498.11611983 60.49213336 498.1125738 54.73192215 498.10623646 C48.70710302 498.10117717 42.68229007 498.10586771 36.6574707 498.10900879 C26.53937682 498.11264864 16.42131211 498.10784883 6.30322266 498.09832764 C-5.39894099 498.08744307 -17.10103495 498.09096863 -28.80319691 498.10198045 C-38.84576165 498.11105277 -48.8883054 498.11233886 -58.93087292 498.10710311 C-64.93090647 498.10398312 -70.93090726 498.10357489 -76.93093872 498.11017609 C-82.57142529 498.1159481 -88.2118219 498.11195522 -93.85229874 498.10038757 C-95.92394995 498.09774023 -97.99560871 498.09850734 -100.06725693 498.1029129 C-102.89202719 498.10836677 -105.71650801 498.10153603 -108.54125977 498.09155273 C-109.36372979 498.09601418 -110.18619982 498.10047562 -111.03359318 498.10507226 C-116.69361498 498.06619383 -120.5033655 497.64643147 -124.56298828 493.57977295 C-125.70574219 492.16051514 -125.70574219 492.16051514 -126.87158203 490.71258545 C-127.29648926 490.18833984 -127.72139648 489.66409424 -128.15917969 489.1239624 C-132.13283286 484.17307531 -135.91875337 479.07772062 -139.70141602 473.98040771 C-143.18706085 469.29300824 -146.76790864 464.6974599 -150.43408203 460.15008545 C-154.48210436 455.12908089 -158.46911497 450.07314131 -162.38867188 444.9508667 C-165.92300185 440.33300935 -169.48691807 435.7387308 -173.05908203 431.15008545 C-173.65188965 430.38849121 -174.24469727 429.62689697 -174.85546875 428.84222412 C-176.06842884 427.2841274 -177.28148289 425.72610382 -178.49462891 424.16815186 C-181.43421541 420.39241279 -184.37155918 416.6149301 -187.30908203 412.83758545 C-188.47573742 411.33757668 -189.6424041 409.83757669 -190.80908203 408.33758545 C-225.80908203 363.33758545 -225.80908203 363.33758545 -227.56054688 361.08563232 C-228.72224051 359.59207256 -229.88402375 358.09858249 -231.04589844 356.60516357 C-234.03940706 352.75720694 -237.03114702 348.90789458 -240.02001953 345.05633545 C-240.62950439 344.27186035 -241.23898926 343.48738525 -241.86694336 342.67913818 C-243.06436946 341.13614293 -244.25957574 339.59142206 -245.45239258 338.04486084 C-247.88183317 334.90409285 -250.31092486 331.78782297 -252.93017578 328.8024292 C-253.65333984 327.96840576 -254.37650391 327.13438232 -255.12158203 326.27508545 C-255.72615234 325.61379639 -256.33072266 324.95250732 -256.95361328 324.2711792 C-261.6423732 315.85303099 -258.20535682 306.05509333 -256.18481445 297.29168701 C-255.83542778 295.72820041 -255.48730779 294.1644303 -255.14035034 292.60040283 C-254.19583487 288.35955937 -253.23371025 284.12288585 -252.26841521 279.88673115 C-251.2496937 275.40179699 -250.24750817 270.91316957 -249.2434845 266.42492676 C-247.32956077 257.88077513 -245.40112872 249.3399673 -243.46736366 240.80028701 C-241.09562526 230.32330171 -238.74230018 219.842198 -236.38916016 209.36102295 C-233.92140188 198.37189365 -231.45131028 187.38331113 -228.96871948 176.39752197 C-225.60293427 161.5007795 -222.23902152 146.60458049 -218.98339844 131.68328857 C-218.74401834 130.58949261 -218.50463823 129.49569664 -218.25800419 128.36875534 C-217.21236246 123.58897904 -216.17363786 118.80798034 -215.15116882 114.02319336 C-214.80609104 112.43879446 -214.460722 110.85445896 -214.11499023 109.27020264 C-213.9727408 108.58789833 -213.83049137 107.90559402 -213.68393135 107.20261383 C-212.65494991 102.54214416 -211.36129744 97.73158971 -207.76049805 94.40838623 C-207.17969482 94.0782251 -206.5988916 93.74806396 -206.00048828 93.40789795 C-205.2929541 93.00345459 -204.58541992 92.59901123 -203.85644531 92.18231201 C-198.98520419 89.61083453 -194.08786855 87.09982361 -189.15161133 84.65594482 C-187.30017694 83.73912533 -185.45184162 82.81631587 -183.60400391 81.89227295 C-176.94012889 78.57035309 -170.24378544 75.32302851 -163.51820374 72.12789917 C-153.54074692 67.38631966 -143.6222564 62.53694975 -133.74658203 57.58758545 C-133.11902575 57.27309574 -132.49146946 56.95860603 -131.84489632 56.63458633 C-127.33151107 54.37179821 -122.82009107 52.10510613 -118.30908203 49.83758545 C-113.16456503 47.25162328 -108.01916647 44.66743705 -102.87158203 42.08758545 C-102.24320498 41.77256388 -101.61482792 41.4575423 -100.96740913 41.13297462 C-91.97773998 36.62987076 -82.93641231 32.24777109 -73.84922791 27.94456482 C-66.49240979 24.44366736 -59.22491722 20.78125632 -51.96923828 17.0758667 C-49.71079667 15.92673505 -47.45233312 14.77764652 -45.19384766 13.62860107 C-41.74708614 11.87413382 -38.30319856 10.11481027 -34.8659668 8.34173584 C-31.47021947 6.592469 -28.06466176 4.86376445 -24.65673828 3.1383667 C-23.63274429 2.60415604 -22.60875031 2.06994537 -21.5537262 1.51954651 C-20.58748825 1.03451157 -19.62125031 0.54947662 -18.62573242 0.04974365 C-17.37077721 -0.59331978 -17.37077721 -0.59331978 -16.09046936 -1.24937439 C-10.24505442 -3.16823644 -5.46950716 -2.68999041 0 0 Z " fill="#FDFDFD" transform="translate(259.30908203125,2.16241455078125)"/>
<path d="M0 0 C0.60835693 0.31934509 1.21671387 0.63869019 1.84350586 0.9677124 C2.50998642 1.30117172 3.17646698 1.63463104 3.86314392 1.97819519 C6.05451103 3.07918972 8.2336838 4.20234459 10.41357422 5.3258667 C11.9605559 6.10811424 13.50829598 6.88886354 15.05674744 7.66819763 C19.13703706 9.72641674 23.20755845 11.80324405 27.27606201 13.88464355 C31.33444001 15.95767691 35.40033702 18.01582427 39.46630859 20.07391357 C40.25711004 20.47423231 41.04791149 20.87455105 41.86267662 21.28700066 C43.44659402 22.08879828 45.03053943 22.89054055 46.6145134 23.69222641 C48.97773457 24.88920767 51.33985197 26.08834515 53.70181274 27.28781128 C62.84485474 31.92620741 72.02953972 36.45215383 81.29981995 40.83204651 C89.00321446 44.48071509 96.6339599 48.26780839 104.25341797 52.08758545 C104.88287764 52.40305517 105.5123373 52.71852489 106.16087151 53.04355431 C111.3218859 55.63100823 116.48026214 58.22370518 121.6385498 60.81658936 C126.13396465 63.07599992 130.63039643 65.33336837 135.12841797 67.58758545 C135.75108299 67.89969908 136.37374802 68.21181271 137.01528168 68.53338432 C146.35551203 73.2112571 155.73985063 77.78975902 165.18334961 82.25616455 C170.98561787 85.00184645 176.7301308 87.84381382 182.44091797 90.77508545 C183.13515869 91.1265564 183.82939941 91.47802734 184.54467773 91.84014893 C188.19091578 93.76313978 190.55527416 95.31547936 192.69091797 98.83758545 C193.4448493 101.33715204 194.07039645 103.74767913 194.62057495 106.29086304 C194.79019281 107.03624132 194.95981066 107.7816196 195.13456845 108.5495851 C195.6951163 111.0232953 196.24154272 113.49990686 196.78808594 115.97674561 C197.18372079 117.73514494 197.58029366 119.49333346 197.97775078 121.25132179 C198.80893191 124.93474562 199.6344698 128.61936811 200.45552826 132.30506134 C201.62536457 137.55286321 202.81206511 142.79671149 204.00445557 148.03942871 C208.62244682 168.35909031 213.18143785 188.69212384 217.73681831 209.02589989 C220.01565578 219.19678084 222.3001591 229.36632439 224.59814453 239.53289795 C226.62913298 248.5182526 228.65007659 257.50579524 230.65875423 266.49616492 C231.71496797 271.22203723 232.77597772 275.94670817 233.84909439 280.66877365 C234.85154599 285.08072508 235.84041538 289.49550329 236.81900978 293.91280556 C237.17884818 295.52597029 237.54355823 297.13805762 237.91360664 298.7489109 C241.43526821 314.10275138 241.43526821 314.10275138 239.69091797 321.83758545 C237.82763672 324.7789917 237.82763672 324.7789917 235.37841797 327.40008545 C234.45909266 328.42257985 233.54392086 329.44881967 232.63232422 330.47821045 C232.15037598 331.01768311 231.66842773 331.55715576 231.171875 332.11297607 C228.55165202 335.16428751 226.19799126 338.41183877 223.81591797 341.65008545 C219.35072707 347.67604425 214.75342883 353.57142481 210.04638672 359.40985107 C206.50724797 363.80374265 203.0400556 368.24347024 199.61132812 372.7243042 C196.07699815 377.34216155 192.51308193 381.9364401 188.94091797 386.52508545 C188.34811035 387.28667969 187.75530273 388.04827393 187.14453125 388.83294678 C185.93157116 390.3910435 184.71851711 391.94906708 183.50537109 393.50701904 C180.56578459 397.28275811 177.62844082 401.0602408 174.69091797 404.83758545 C173.52426258 406.33759422 172.3575959 407.83759421 171.19091797 409.33758545 C170.61341797 410.08008545 170.03591797 410.82258545 169.44091797 411.58758545 C158.35758464 425.83758545 147.2742513 440.08758545 136.19091797 454.33758545 C135.61293457 455.08072998 135.03495117 455.82387451 134.43945312 456.58953857 C133.27775949 458.08309833 132.11597625 459.57658841 130.95410156 461.07000732 C127.34429611 465.71017263 123.73809831 470.35311659 120.1340332 474.9977417 C118.3685362 477.26986782 116.59855238 479.53843147 114.82763672 481.80633545 C112.93583444 484.22983552 111.06051829 486.66335916 109.21044922 489.11883545 C108.52337891 490.01602295 107.83630859 490.91321045 107.12841797 491.83758545 C106.57025391 492.58008545 106.01208984 493.32258545 105.43701172 494.08758545 C101.69387159 497.8390995 97.55791117 498.06974879 92.41542912 498.10507226 C91.59295909 498.10061082 90.77048906 498.09614937 89.9230957 498.09155273 C89.0403041 498.09467272 88.15751249 498.0977927 87.24796963 498.10100722 C84.29008239 498.10898409 81.33240048 498.10266475 78.37451172 498.09637451 C76.25383382 498.09908451 74.13315686 498.10264549 72.01248169 498.10699463 C66.25227174 498.11611983 60.49213336 498.1125738 54.73192215 498.10623646 C48.70710302 498.10117717 42.68229007 498.10586771 36.6574707 498.10900879 C26.53937682 498.11264864 16.42131211 498.10784883 6.30322266 498.09832764 C-5.39894099 498.08744307 -17.10103495 498.09096863 -28.80319691 498.10198045 C-38.84576165 498.11105277 -48.8883054 498.11233886 -58.93087292 498.10710311 C-64.93090647 498.10398312 -70.93090726 498.10357489 -76.93093872 498.11017609 C-82.57142529 498.1159481 -88.2118219 498.11195522 -93.85229874 498.10038757 C-95.92394995 498.09774023 -97.99560871 498.09850734 -100.06725693 498.1029129 C-102.89202719 498.10836677 -105.71650801 498.10153603 -108.54125977 498.09155273 C-109.36372979 498.09601418 -110.18619982 498.10047562 -111.03359318 498.10507226 C-116.69361498 498.06619383 -120.5033655 497.64643147 -124.56298828 493.57977295 C-125.70574219 492.16051514 -125.70574219 492.16051514 -126.87158203 490.71258545 C-127.29648926 490.18833984 -127.72139648 489.66409424 -128.15917969 489.1239624 C-132.13283286 484.17307531 -135.91875337 479.07772062 -139.70141602 473.98040771 C-143.18706085 469.29300824 -146.76790864 464.6974599 -150.43408203 460.15008545 C-154.48210436 455.12908089 -158.46911497 450.07314131 -162.38867188 444.9508667 C-165.92300185 440.33300935 -169.48691807 435.7387308 -173.05908203 431.15008545 C-173.65188965 430.38849121 -174.24469727 429.62689697 -174.85546875 428.84222412 C-176.06842884 427.2841274 -177.28148289 425.72610382 -178.49462891 424.16815186 C-181.43421541 420.39241279 -184.37155918 416.6149301 -187.30908203 412.83758545 C-188.47573742 411.33757668 -189.6424041 409.83757669 -190.80908203 408.33758545 C-225.80908203 363.33758545 -225.80908203 363.33758545 -227.56054688 361.08563232 C-228.72224051 359.59207256 -229.88402375 358.09858249 -231.04589844 356.60516357 C-234.03940706 352.75720694 -237.03114702 348.90789458 -240.02001953 345.05633545 C-240.62950439 344.27186035 -241.23898926 343.48738525 -241.86694336 342.67913818 C-243.06436946 341.13614293 -244.25957574 339.59142206 -245.45239258 338.04486084 C-247.88183317 334.90409285 -250.31092486 331.78782297 -252.93017578 328.8024292 C-253.65333984 327.96840576 -254.37650391 327.13438232 -255.12158203 326.27508545 C-255.72615234 325.61379639 -256.33072266 324.95250732 -256.95361328 324.2711792 C-261.6423732 315.85303099 -258.20535682 306.05509333 -256.18481445 297.29168701 C-255.83542778 295.72820041 -255.48730779 294.1644303 -255.14035034 292.60040283 C-254.19583487 288.35955937 -253.23371025 284.12288585 -252.26841521 279.88673115 C-251.2496937 275.40179699 -250.24750817 270.91316957 -249.2434845 266.42492676 C-247.32956077 257.88077513 -245.40112872 249.3399673 -243.46736366 240.80028701 C-241.09562526 230.32330171 -238.74230018 219.842198 -236.38916016 209.36102295 C-233.92140188 198.37189365 -231.45131028 187.38331113 -228.96871948 176.39752197 C-225.60293427 161.5007795 -222.23902152 146.60458049 -218.98339844 131.68328857 C-218.74401834 130.58949261 -218.50463823 129.49569664 -218.25800419 128.36875534 C-217.21236246 123.58897904 -216.17363786 118.80798034 -215.15116882 114.02319336 C-214.80609104 112.43879446 -214.460722 110.85445896 -214.11499023 109.27020264 C-213.9727408 108.58789833 -213.83049137 107.90559402 -213.68393135 107.20261383 C-212.65494991 102.54214416 -211.36129744 97.73158971 -207.76049805 94.40838623 C-207.17969482 94.0782251 -206.5988916 93.74806396 -206.00048828 93.40789795 C-205.2929541 93.00345459 -204.58541992 92.59901123 -203.85644531 92.18231201 C-198.98520419 89.61083453 -194.08786855 87.09982361 -189.15161133 84.65594482 C-187.30017694 83.73912533 -185.45184162 82.81631587 -183.60400391 81.89227295 C-176.94012889 78.57035309 -170.24378544 75.32302851 -163.51820374 72.12789917 C-153.54074692 67.38631966 -143.6222564 62.53694975 -133.74658203 57.58758545 C-133.11902575 57.27309574 -132.49146946 56.95860603 -131.84489632 56.63458633 C-127.33151107 54.37179821 -122.82009107 52.10510613 -118.30908203 49.83758545 C-113.16456503 47.25162328 -108.01916647 44.66743705 -102.87158203 42.08758545 C-102.24320498 41.77256388 -101.61482792 41.4575423 -100.96740913 41.13297462 C-91.97773998 36.62987076 -82.93641231 32.24777109 -73.84922791 27.94456482 C-66.49240979 24.44366736 -59.22491722 20.78125632 -51.96923828 17.0758667 C-49.71079667 15.92673505 -47.45233312 14.77764652 -45.19384766 13.62860107 C-41.74708614 11.87413382 -38.30319856 10.11481027 -34.8659668 8.34173584 C-31.47021947 6.592469 -28.06466176 4.86376445 -24.65673828 3.1383667 C-23.63274429 2.60415604 -22.60875031 2.06994537 -21.5537262 1.51954651 C-20.58748825 1.03451157 -19.62125031 0.54947662 -18.62573242 0.04974365 C-17.37077721 -0.59331978 -17.37077721 -0.59331978 -16.09046936 -1.24937439 C-10.24505442 -3.16823644 -5.46950716 -2.68999041 0 0 Z M-16.04614258 16.6005249 C-16.63371841 16.89496994 -17.22129425 17.18941498 -17.82667542 17.49278259 C-19.78490673 18.47516191 -21.74028322 19.46309798 -23.69580078 20.4508667 C-25.07253246 21.14237334 -26.44947401 21.83346229 -27.82661438 22.52415466 C-31.47735701 24.35620155 -35.12586578 26.19265029 -38.77374268 28.03039551 C-45.22441087 31.27972987 -51.67793452 34.52337693 -58.13330078 37.7633667 C-58.83859484 38.11749004 -59.54388889 38.47161339 -60.2705555 38.83646774 C-69.64858548 43.54217174 -79.06474552 48.15039371 -88.54675293 52.64375305 C-101.02541065 58.57467009 -113.37186499 64.77535071 -125.72875977 70.95477295 C-129.31094523 72.74591705 -132.89588438 74.53147649 -136.48149395 76.31575394 C-139.29789389 77.7183535 -142.11243506 79.1246521 -144.92649269 80.53194427 C-146.24726748 81.19175094 -147.56867334 81.85029625 -148.89078331 82.5074234 C-156.34628426 86.21503038 -163.64863788 90.0929439 -170.79841614 94.36755371 C-172.93580504 95.61902629 -175.07865891 96.76362126 -177.30908203 97.83758545 C-177.30908203 98.49758545 -177.30908203 99.15758545 -177.30908203 99.83758545 C-178.01033203 99.94071045 -178.71158203 100.04383545 -179.43408203 100.15008545 C-182.72953342 100.93812817 -185.36758984 102.16628307 -188.30908203 103.83758545 C-188.63908203 104.49758545 -188.96908203 105.15758545 -189.30908203 105.83758545 C-191.30272772 106.84098075 -193.33826254 107.6881886 -195.39892578 108.5446167 C-199.90106 111.59207361 -200.16253757 118.30399523 -201.19189453 123.3180542 C-201.55460408 125.04193158 -201.91731576 126.76580852 -202.2800293 128.48968506 C-202.56246994 129.84487747 -202.56246994 129.84487747 -202.85061646 131.22744751 C-206.29658052 147.75037567 -209.95068638 164.20888595 -213.92089844 180.6137085 C-214.08268082 181.28690125 -214.2444632 181.96009399 -214.41114807 182.65368652 C-214.84349069 184.4506838 -215.28033086 186.24659737 -215.7175293 188.04241943 C-216.41260615 190.85057135 -216.41260615 190.85057135 -216.30908203 193.83758545 C-215.21595703 194.37383545 -214.12283203 194.91008545 -212.99658203 195.46258545 C-206.71621591 198.60276851 -200.59230809 202.0304692 -194.44189453 205.41571045 C-190.26668028 207.70571716 -186.10131366 209.96136165 -181.80908203 212.02508545 C-178.83185246 213.56686505 -177.53916214 214.55902533 -175.30908203 216.83758545 C-173.32927213 217.87698565 -171.32326203 218.86646295 -169.30908203 219.83758545 C-167.57537132 220.7666553 -165.84667008 221.70510141 -164.12158203 222.65008545 C-163.17283203 223.16957764 -162.22408203 223.68906982 -161.24658203 224.2243042 C-159.30864937 225.28862094 -157.37113983 226.35370853 -155.43408203 227.4196167 C-146.76283154 233.01346177 -146.76283154 233.01346177 -137.30908203 235.83758545 C-137.30908203 236.49758545 -137.30908203 237.15758545 -137.30908203 237.83758545 C-133.04535393 240.19668897 -133.04535393 240.19668897 -128.30908203 240.83758545 C-127.97908203 241.82758545 -127.64908203 242.81758545 -127.30908203 243.83758545 C-123.81562233 245.5843153 -121.24062635 246.83758545 -117.30908203 246.83758545 C-116.97908203 247.82758545 -116.64908203 248.81758545 -116.30908203 249.83758545 C-113.99908203 250.49758545 -111.68908203 251.15758545 -109.30908203 251.83758545 C-109.30908203 257.11758545 -109.30908203 262.39758545 -109.30908203 267.83758545 C-110.95908203 268.49758545 -112.60908203 269.15758545 -114.30908203 269.83758545 C-115.92719576 270.68651634 -117.5321416 271.56111177 -119.12158203 272.46258545 C-119.91177734 272.90860107 -120.70197266 273.3546167 -121.51611328 273.81414795 C-122.10779297 274.15188232 -122.69947266 274.4896167 -123.30908203 274.83758545 C-123.30908203 275.49758545 -123.30908203 276.15758545 -123.30908203 276.83758545 C-124.03095703 276.96133545 -124.75283203 277.08508545 -125.49658203 277.21258545 C-128.29108787 277.83358675 -130.72167248 278.61575316 -133.30908203 279.83758545 C-133.63908203 280.49758545 -133.96908203 281.15758545 -134.30908203 281.83758545 C-136.37548828 282.90789795 -136.37548828 282.90789795 -138.87158203 283.96258545 C-140.11101562 284.49239014 -140.11101562 284.49239014 -141.37548828 285.03289795 C-142.01357422 285.29844482 -142.65166016 285.5639917 -143.30908203 285.83758545 C-143.30908203 286.49758545 -143.30908203 287.15758545 -143.30908203 287.83758545 C-144.25783203 288.14696045 -145.20658203 288.45633545 -146.18408203 288.77508545 C-149.16988611 289.71153287 -149.16988611 289.71153287 -151.30908203 290.83758545 C-151.30908203 291.49758545 -151.30908203 292.15758545 -151.30908203 292.83758545 C-152.185 293.03287842 -152.185 293.03287842 -153.07861328 293.2321167 C-158.47741271 294.69764019 -163.17890681 297.6833342 -167.74658203 300.83758545 C-172.04271587 303.78649962 -176.48387521 305.89837704 -181.30908203 307.83758545 C-181.30908203 308.49758545 -181.30908203 309.15758545 -181.30908203 309.83758545 C-182.73220703 310.30164795 -182.73220703 310.30164795 -184.18408203 310.77508545 C-187.16988611 311.71153287 -187.16988611 311.71153287 -189.30908203 312.83758545 C-189.30908203 313.49758545 -189.30908203 314.15758545 -189.30908203 314.83758545 C-190.01033203 314.94071045 -190.71158203 315.04383545 -191.43408203 315.15008545 C-194.70045851 315.93117548 -197.35626723 317.25817288 -200.30908203 318.83758545 C-200.30908203 319.49758545 -200.30908203 320.15758545 -200.30908203 320.83758545 C-200.86595703 320.96133545 -201.42283203 321.08508545 -201.99658203 321.21258545 C-204.53022567 321.897354 -206.88829235 322.82892308 -209.30908203 323.83758545 C-209.30908203 324.49758545 -209.30908203 325.15758545 -209.30908203 325.83758545 C-210.63939453 326.27071045 -210.63939453 326.27071045 -211.99658203 326.71258545 C-218.28511149 328.7602765 -218.28511149 328.7602765 -223.30908203 332.83758545 C-224.63315224 333.84981856 -225.96559797 334.85126484 -227.30908203 335.83758545 C-224.0580993 339.98629214 -224.0580993 339.98629214 -220.79711914 344.12713623 C-218.47997036 347.061919 -216.18413361 350.00390888 -213.93798828 352.99383545 C-213.25607422 353.89102295 -212.57416016 354.78821045 -211.87158203 355.71258545 C-211.27474609 356.51438232 -210.67791016 357.3161792 -210.06298828 358.14227295 C-208.23629164 360.30091512 -208.23629164 360.30091512 -204.30908203 359.83758545 C-201.97771002 358.65467256 -199.78692491 357.43967205 -197.55908203 356.08758545 C-196.31263801 355.35159611 -195.06524601 354.61720979 -193.81689453 353.88446045 C-193.21651367 353.53061279 -192.61613281 353.17676514 -191.99755859 352.81219482 C-188.84422638 350.99205281 -185.58986371 349.41236065 -182.30908203 347.83758545 C-182.30908203 347.17758545 -182.30908203 346.51758545 -182.30908203 345.83758545 C-181.75220703 345.71383545 -181.19533203 345.59008545 -180.62158203 345.46258545 C-175.87607827 344.24915661 -175.87607827 344.24915661 -171.98876953 341.45477295 C-169.86184105 339.40698599 -167.60191538 338.22133096 -164.99658203 336.83758545 C-164.02462891 336.31938232 -163.05267578 335.8011792 -162.05126953 335.26727295 C-159.15245959 333.75592759 -156.24873926 332.26768897 -153.30908203 330.83758545 C-153.30908203 330.17758545 -153.30908203 329.51758545 -153.30908203 328.83758545 C-152.75220703 328.71383545 -152.19533203 328.59008545 -151.62158203 328.46258545 C-149.06697793 327.77215191 -146.71448068 326.94276861 -144.30908203 325.83758545 C-143.97908203 325.17758545 -143.64908203 324.51758545 -143.30908203 323.83758545 C-141.46977304 322.88386967 -139.62529863 321.93901462 -137.75830078 321.04071045 C-133.19150404 318.7973717 -128.76120438 316.29849112 -124.30908203 313.83758545 C-123.20886719 313.24203857 -123.20886719 313.24203857 -122.08642578 312.63446045 C-118.59433357 310.86642208 -118.59433357 310.86642208 -116.30908203 307.83758545 C-114.33385357 306.78950504 -112.33426694 305.78554434 -110.30908203 304.83758545 C-110.30908203 304.17758545 -110.30908203 303.51758545 -110.30908203 302.83758545 C-109.31908203 302.83758545 -108.32908203 302.83758545 -107.30908203 302.83758545 C-107.30908203 305.14758545 -107.30908203 307.45758545 -107.30908203 309.83758545 C-107.96908203 309.83758545 -108.62908203 309.83758545 -109.30908203 309.83758545 C-109.30908203 324.68758545 -109.30908203 339.53758545 -109.30908203 354.83758545 C-111.61908203 355.49758545 -113.92908203 356.15758545 -116.30908203 356.83758545 C-116.30908203 357.49758545 -116.30908203 358.15758545 -116.30908203 358.83758545 C-116.85435547 358.94199951 -117.39962891 359.04641357 -117.96142578 359.1539917 C-120.85549343 359.99669027 -123.23876761 361.31002273 -125.87158203 362.77508545 C-127.29664063 363.56205811 -127.29664063 363.56205811 -128.75048828 364.3649292 C-130.64397364 365.45476734 -132.49127892 366.62571671 -134.30908203 367.83758545 C-134.30908203 368.49758545 -134.30908203 369.15758545 -134.30908203 369.83758545 C-135.01033203 369.94071045 -135.71158203 370.04383545 -136.43408203 370.15008545 C-139.70045851 370.93117548 -142.35626723 372.25817288 -145.30908203 373.83758545 C-145.30908203 374.49758545 -145.30908203 375.15758545 -145.30908203 375.83758545 C-145.86595703 375.96133545 -146.42283203 376.08508545 -146.99658203 376.21258545 C-149.53022567 376.897354 -151.88829235 377.82892308 -154.30908203 378.83758545 C-154.30908203 379.49758545 -154.30908203 380.15758545 -154.30908203 380.83758545 C-155.09283203 381.04383545 -155.87658203 381.25008545 -156.68408203 381.46258545 C-160.84130919 383.03946471 -164.3677645 385.16182959 -168.13720703 387.4977417 C-170.30908203 388.83758545 -170.30908203 388.83758545 -172.30908203 389.83758545 C-172.30908203 390.49758545 -172.30908203 391.15758545 -172.30908203 391.83758545 C-173.07220703 391.96133545 -173.83533203 392.08508545 -174.62158203 392.21258545 C-177.51175339 392.71861337 -177.51175339 392.71861337 -180.30908203 394.83758545 C-178.64613409 398.66236572 -176.15071713 401.73788972 -173.55908203 404.96258545 C-172.56764219 406.20954067 -171.57678608 407.45696016 -170.58642578 408.70477295 C-170.05774902 409.36960693 -169.52907227 410.03444092 -168.984375 410.71942139 C-166.61586086 413.7140627 -164.27578132 416.7304106 -161.9362793 419.7477417 C-160.14759563 422.0540439 -158.35382967 424.35631298 -156.55908203 426.65789795 C-154.60679406 429.16265631 -152.66709083 431.67558677 -150.74658203 434.20477295 C-150.04533203 435.11485107 -149.34408203 436.0249292 -148.62158203 436.96258545 C-148.04021484 437.72828857 -147.45884766 438.4939917 -146.85986328 439.28289795 C-146.09222656 440.05246826 -146.09222656 440.05246826 -145.30908203 440.83758545 C-141.86547572 440.83758545 -140.56112811 440.04167013 -137.62158203 438.33758545 C-136.81333984 437.87352295 -136.00509766 437.40946045 -135.17236328 436.93133545 C-134.55748047 436.57039795 -133.94259766 436.20946045 -133.30908203 435.83758545 C-133.30908203 435.17758545 -133.30908203 434.51758545 -133.30908203 433.83758545 C-132.44283203 433.59008545 -131.57658203 433.34258545 -130.68408203 433.08758545 C-127.08873459 431.75597529 -124.45264233 430.01883137 -121.30908203 427.83758545 C-116.9320518 425.24378976 -112.51993295 422.92064707 -107.91064453 420.76727295 C-106.1248004 419.92654493 -106.1248004 419.92654493 -105.30908203 417.83758545 C-103.24267578 416.76727295 -103.24267578 416.76727295 -100.74658203 415.71258545 C-99.50714844 415.18278076 -99.50714844 415.18278076 -98.24267578 414.64227295 C-97.60458984 414.37672607 -96.96650391 414.1111792 -96.30908203 413.83758545 C-96.30908203 413.17758545 -96.30908203 412.51758545 -96.30908203 411.83758545 C-94.88595703 411.37352295 -94.88595703 411.37352295 -93.43408203 410.90008545 C-90.44827795 409.96363803 -90.44827795 409.96363803 -88.30908203 408.83758545 C-88.30908203 408.17758545 -88.30908203 407.51758545 -88.30908203 406.83758545 C-87.79345703 406.73446045 -87.27783203 406.63133545 -86.74658203 406.52508545 C-83.44119031 405.59279548 -80.41279374 404.30160041 -77.30908203 402.83758545 C-76.97908203 402.17758545 -76.64908203 401.51758545 -76.30908203 400.83758545 C-74.32841505 399.79981944 -72.32454024 398.80605238 -70.30908203 397.83758545 C-68.32041714 396.70831724 -66.34123055 395.56220396 -64.37158203 394.40008545 C-60.03319288 391.84999868 -55.68444785 389.32358876 -51.30908203 386.83758545 C-51.30908203 386.17758545 -51.30908203 385.51758545 -51.30908203 384.83758545 C-49.97876953 384.40446045 -49.97876953 384.40446045 -48.62158203 383.96258545 C-45.80525779 383.00609797 -43.05825048 381.96959598 -40.30908203 380.83758545 C-40.30908203 380.17758545 -40.30908203 379.51758545 -40.30908203 378.83758545 C-39.52533203 378.63133545 -38.74158203 378.42508545 -37.93408203 378.21258545 C-33.77685488 376.63570618 -30.25039956 374.51334131 -26.48095703 372.1774292 C-24.30908203 370.83758545 -24.30908203 370.83758545 -22.30908203 369.83758545 C-22.30908203 369.17758545 -22.30908203 368.51758545 -22.30908203 367.83758545 C-21.75220703 367.71383545 -21.19533203 367.59008545 -20.62158203 367.46258545 C-18.08793839 366.7778169 -15.72987171 365.84624782 -13.30908203 364.83758545 C-13.30908203 364.17758545 -13.30908203 363.51758545 -13.30908203 362.83758545 C-12.24560547 362.43539795 -12.24560547 362.43539795 -11.16064453 362.02508545 C-8.21387022 360.7979356 -5.47917526 359.37758172 -2.68408203 357.83758545 C-1.27255859 357.06414795 -1.27255859 357.06414795 0.16748047 356.27508545 C2.05177206 355.20168095 3.88654789 354.04049884 5.69091797 352.83758545 C5.69091797 352.17758545 5.69091797 351.51758545 5.69091797 350.83758545 C6.45404297 350.69321045 7.21716797 350.54883545 8.00341797 350.40008545 C11.92460448 349.65968321 11.92460448 349.65968321 15.08544922 347.4118042 C17.0240279 345.51095941 18.88334981 344.69873728 21.37841797 343.65008545 C22.18666016 343.30590576 22.99490234 342.96172607 23.82763672 342.6071167 C24.44251953 342.35317139 25.05740234 342.09922607 25.69091797 341.83758545 C25.69091797 341.17758545 25.69091797 340.51758545 25.69091797 339.83758545 C26.56103516 339.58750732 27.43115234 339.3374292 28.32763672 339.07977295 C31.86190403 337.7744338 34.43757827 336.13781308 37.50341797 333.96258545 C42.38492313 330.61074046 47.16788327 327.95753816 52.69091797 325.83758545 C52.69091797 325.17758545 52.69091797 324.51758545 52.69091797 323.83758545 C53.63966797 323.52821045 54.58841797 323.21883545 55.56591797 322.90008545 C58.55172205 321.96363803 58.55172205 321.96363803 60.69091797 320.83758545 C60.69091797 320.17758545 60.69091797 319.51758545 60.69091797 318.83758545 C61.22716797 318.73446045 61.76341797 318.63133545 62.31591797 318.52508545 C65.31593841 317.65665848 67.92887147 316.28138248 70.69091797 314.83758545 C70.69091797 314.17758545 70.69091797 313.51758545 70.69091797 312.83758545 C71.43341797 312.71383545 72.17591797 312.59008545 72.94091797 312.46258545 C75.49233282 311.88271844 77.41767527 311.10049806 79.69091797 309.83758545 C79.69091797 309.17758545 79.69091797 308.51758545 79.69091797 307.83758545 C80.45404297 307.63133545 81.21716797 307.42508545 82.00341797 307.21258545 C89.4495123 304.4360757 96.28225793 300.22764595 102.93701172 295.91571045 C104.8048159 294.76757247 106.71791385 293.79156547 108.69091797 292.83758545 C108.69091797 292.17758545 108.69091797 291.51758545 108.69091797 290.83758545 C109.53783203 290.58750732 110.38474609 290.3374292 111.25732422 290.07977295 C114.96815727 288.73728727 118.24766989 286.96351225 121.62841797 284.96258545 C122.80419922 284.27768962 123.97998047 283.59279378 125.15576172 282.90789795 C125.73052246 282.57048584 126.3052832 282.23307373 126.89746094 281.88543701 C129.81582408 280.18034382 132.75399587 278.51046828 135.69091797 276.83758545 C135.69091797 276.17758545 135.69091797 275.51758545 135.69091797 274.83758545 C137.29966797 274.40446045 137.29966797 274.40446045 138.94091797 273.96258545 C141.7849216 273.10938436 144.1260078 272.27393514 146.69091797 270.83758545 C146.69091797 270.17758545 146.69091797 269.51758545 146.69091797 268.83758545 C147.57779297 268.54883545 148.46466797 268.26008545 149.37841797 267.96258545 C152.19474221 267.00609797 154.94174952 265.96959598 157.69091797 264.83758545 C157.69091797 264.17758545 157.69091797 263.51758545 157.69091797 262.83758545 C158.51591797 262.61071045 159.34091797 262.38383545 160.19091797 262.15008545 C163.75712302 260.81275855 166.59846831 259.13943985 169.76123047 257.05633545 C171.68518454 255.84120656 173.64072843 254.82167643 175.69091797 253.83758545 C175.69091797 253.17758545 175.69091797 252.51758545 175.69091797 251.83758545 C176.43341797 251.71383545 177.17591797 251.59008545 177.94091797 251.46258545 C180.49233282 250.88271844 182.41767527 250.10049806 184.69091797 248.83758545 C184.69091797 248.17758545 184.69091797 247.51758545 184.69091797 246.83758545 C185.51591797 246.61071045 186.34091797 246.38383545 187.19091797 246.15008545 C190.75712302 244.81275855 193.59846831 243.13943985 196.76123047 241.05633545 C198.68518454 239.84120656 200.64072843 238.82167643 202.69091797 237.83758545 C202.69091797 237.17758545 202.69091797 236.51758545 202.69091797 235.83758545 C204.01091797 235.50758545 205.33091797 235.17758545 206.69091797 234.83758545 C205.14098397 223.66418069 202.3818122 212.77953021 199.69091797 201.83758545 C198.70091797 202.16758545 197.71091797 202.49758545 196.69091797 202.83758545 C196.69091797 203.49758545 196.69091797 204.15758545 196.69091797 204.83758545 C195.57716797 205.02321045 195.57716797 205.02321045 194.44091797 205.21258545 C191.88950312 205.79245246 189.96416067 206.57467284 187.69091797 207.83758545 C187.69091797 208.49758545 187.69091797 209.15758545 187.69091797 209.83758545 C187.01673828 209.91879639 186.34255859 210.00000732 185.64794922 210.0836792 C181.79622656 211.06569039 178.77283961 212.87601734 175.37841797 214.90008545 C174.73324219 215.27713623 174.08806641 215.65418701 173.42333984 216.04266357 C171.84213645 216.96796038 170.26600337 217.90191225 168.69091797 218.83758545 C168.69091797 219.49758545 168.69091797 220.15758545 168.69091797 220.83758545 C168.15466797 220.94071045 167.61841797 221.04383545 167.06591797 221.15008545 C164.06589753 222.01851242 161.45296447 223.39378841 158.69091797 224.83758545 C158.69091797 225.49758545 158.69091797 226.15758545 158.69091797 226.83758545 C157.61841797 227.10571045 156.54591797 227.37383545 155.44091797 227.65008545 C151.94438697 228.75732026 150.49818859 229.68097194 147.69091797 231.83758545 C145.9780889 232.82482236 144.24738729 233.78146186 142.50341797 234.71258545 C141.05128906 235.49375732 141.05128906 235.49375732 139.56982422 236.29071045 C138.61978516 236.8011792 137.66974609 237.31164795 136.69091797 237.83758545 C131.32781558 240.78602089 125.99767725 243.78902161 120.69091797 246.83758545 C120.69091797 247.49758545 120.69091797 248.15758545 120.69091797 248.83758545 C119.70091797 249.06446045 118.71091797 249.29133545 117.69091797 249.52508545 C113.16905082 250.80260483 109.54877307 253.22095329 105.69091797 255.83758545 C104.20591797 256.82758545 104.20591797 256.82758545 102.69091797 257.83758545 C102.69091797 258.49758545 102.69091797 259.15758545 102.69091797 259.83758545 C101.63904297 259.99227295 101.63904297 259.99227295 100.56591797 260.15008545 C97.29954149 260.93117548 94.64373277 262.25817288 91.69091797 263.83758545 C91.69091797 264.49758545 91.69091797 265.15758545 91.69091797 265.83758545 C90.70091797 265.83758545 89.71091797 265.83758545 88.69091797 265.83758545 C88.36091797 249.99758545 88.03091797 234.15758545 87.69091797 217.83758545 C88.35091797 217.83758545 89.01091797 217.83758545 89.69091797 217.83758545 C89.69091797 217.17758545 89.69091797 216.51758545 89.69091797 215.83758545 C90.35091797 215.83758545 91.01091797 215.83758545 91.69091797 215.83758545 C91.69091797 215.17758545 91.69091797 214.51758545 91.69091797 213.83758545 C94.99091797 212.84758545 98.29091797 211.85758545 101.69091797 210.83758545 C101.69091797 210.17758545 101.69091797 209.51758545 101.69091797 208.83758545 C102.61904297 208.54883545 103.54716797 208.26008545 104.50341797 207.96258545 C107.78883464 206.95008545 107.78883464 206.95008545 110.69091797 204.83758545 C110.69091797 204.17758545 110.69091797 203.51758545 110.69091797 202.83758545 C111.74279297 202.68289795 111.74279297 202.68289795 112.81591797 202.52508545 C116.08229444 201.74399542 118.73810317 200.41699802 121.69091797 198.83758545 C121.69091797 198.17758545 121.69091797 197.51758545 121.69091797 196.83758545 C122.24779297 196.71383545 122.80466797 196.59008545 123.37841797 196.46258545 C125.93302207 195.77215191 128.28551932 194.94276861 130.69091797 193.83758545 C131.02091797 193.17758545 131.35091797 192.51758545 131.69091797 191.83758545 C133.75732422 190.76727295 133.75732422 190.76727295 136.25341797 189.71258545 C137.49285156 189.18278076 137.49285156 189.18278076 138.75732422 188.64227295 C139.39541016 188.37672607 140.03349609 188.1111792 140.69091797 187.83758545 C140.69091797 187.17758545 140.69091797 186.51758545 140.69091797 185.83758545 C141.63966797 185.52821045 142.58841797 185.21883545 143.56591797 184.90008545 C146.55172205 183.96363803 146.55172205 183.96363803 148.69091797 182.83758545 C148.69091797 182.17758545 148.69091797 181.51758545 148.69091797 180.83758545 C149.74279297 180.68289795 149.74279297 180.68289795 150.81591797 180.52508545 C154.08229444 179.74399542 156.73810317 178.41699802 159.69091797 176.83758545 C159.69091797 176.17758545 159.69091797 175.51758545 159.69091797 174.83758545 C160.61324219 174.56494873 160.61324219 174.56494873 161.55419922 174.2868042 C162.7665625 173.90975342 162.7665625 173.90975342 164.00341797 173.52508545 C164.80392578 173.28145264 165.60443359 173.03781982 166.42919922 172.7868042 C168.82185471 171.78263272 169.94970363 170.71770008 171.69091797 168.83758545 C173.6716975 167.80003427 175.67621699 166.80762666 177.69091797 165.83758545 C180.70568334 164.19719841 183.69920505 162.51959293 186.69091797 160.83758545 C186.69091797 160.17758545 186.69091797 159.51758545 186.69091797 158.83758545 C187.68091797 158.83758545 188.67091797 158.83758545 189.69091797 158.83758545 C189.05146441 152.94400427 187.98620102 147.29131441 186.62451172 141.52508545 C186.42616226 140.67075928 186.22781281 139.81643311 186.02345276 138.93621826 C185.39557599 136.23577144 184.76209456 133.53667652 184.12841797 130.83758545 C183.69900885 128.99522435 183.26996877 127.1527772 182.84130859 125.3102417 C181.79544146 120.81835031 180.7445494 116.32766168 179.69091797 111.83758545 C178.04091797 111.50758545 176.39091797 111.17758545 174.69091797 110.83758545 C174.36091797 109.84758545 174.03091797 108.85758545 173.69091797 107.83758545 C170.79533356 106.38979325 168.94902859 105.83758545 165.69091797 105.83758545 C165.36091797 104.84758545 165.03091797 103.85758545 164.69091797 102.83758545 C163.03185829 101.742089 163.03185829 101.742089 161.00341797 100.90008545 C158.28046332 99.63620506 155.82514375 98.32734273 153.37841797 96.58758545 C150.80642691 94.56474886 150.80642691 94.56474886 147.69091797 94.83758545 C147.69091797 94.17758545 147.69091797 93.51758545 147.69091797 92.83758545 C147.13136917 92.52781265 146.57182037 92.21803986 145.99531555 91.89888 C142.28120257 89.83958992 138.57089104 87.77542199 134.88305664 85.66937256 C121.48259201 78.05833248 107.70283122 71.20887257 93.90899658 64.34881592 C91.38162688 63.09051431 88.85648681 61.8277752 86.331357 60.56498623 C73.65989606 54.22956097 60.95558962 47.97504763 48.15725708 41.89880371 C35.69953563 35.96585297 23.40206347 29.70774578 11.08618164 23.48724365 C7.91837419 21.88836741 4.74817625 20.29431665 1.57763672 18.7008667 C0.61017014 18.21040359 -0.35729645 17.71994049 -1.3540802 17.21461487 C-2.24068832 16.76962143 -3.12729645 16.32462799 -4.04077148 15.8661499 C-4.81967239 15.47297073 -5.5985733 15.07979156 -6.40107727 14.67469788 C-10.25525248 12.98372832 -12.46312098 14.79644749 -16.04614258 16.6005249 Z " fill="#010101" transform="translate(259.30908203125,2.16241455078125)"/>
<path d="M0 0 C3 0 3 0 4.375 1.1875 C4.91125 1.785625 5.4475 2.38375 6 3 C8.41773826 5.48136296 10.7932231 7.83457848 13.5 10 C16.2153888 12.17231104 18.64416636 14.44223777 21 17 C21 17.66 21 18.32 21 19 C21.89755005 19.1697937 21.89755005 19.1697937 22.81323242 19.34301758 C26.37928628 20.41438644 28.69143861 23.15451293 31.3125 25.6875 C32.47195123 26.78199734 33.63210114 27.87575504 34.79296875 28.96875 C35.34645996 29.49339844 35.89995117 30.01804687 36.47021484 30.55859375 C41.66542358 35.67382224 41.66542358 35.67382224 48 39 C49.68997323 40.64302953 51.35216394 42.31471312 53 44 C54.86300275 45.58026013 56.74446136 47.13251782 58.64453125 48.66796875 C59.09183594 49.10753906 59.53914062 49.54710937 60 50 C60 50.66 60 51.32 60 52 C60.59095459 52.10505859 61.18190918 52.21011719 61.79077148 52.31835938 C64.32757254 53.10107001 65.45814084 54.06325516 67.34765625 55.90625 C67.95287109 56.48503906 68.55808594 57.06382813 69.18164062 57.66015625 C69.80232422 58.26730469 70.42300781 58.87445313 71.0625 59.5 C72.29919812 60.70223904 73.53992672 61.90034966 74.78515625 63.09375 C75.33051025 63.62677734 75.87586426 64.15980469 76.43774414 64.70898438 C78.08583061 66.228922 78.08583061 66.228922 81 67 C82.39453125 68.48828125 82.39453125 68.48828125 83.8125 70.3125 C85.83051816 72.78571022 87.64622915 74.59209431 90.375 76.25 C91.24125 76.8275 92.1075 77.405 93 78 C93 78.99 93 79.98 93 81 C92.4225 81.226875 91.845 81.45375 91.25 81.6875 C88.41027692 83.34400513 87.04775464 85.42567988 85 88 C83.85213122 89.02152257 82.68395179 90.02052602 81.5 91 C79.36763827 92.77094449 77.74658945 94.31676319 76 96.5 C73.79578883 99.25526397 71.35965986 101.2860452 68.65625 103.53125 C66.83125121 105.06593328 66.83125121 105.06593328 65 107.5 C62.78363147 110.27046066 60.3314954 112.32481083 57.60546875 114.57421875 C55.84464673 116.03839072 55.84464673 116.03839072 54.25 118.375 C53.63125 119.179375 53.63125 119.179375 53 120 C52.01 120 51.02 120 50 120 C50 120.66 50 121.32 50 122 C48.51737976 123.46138 48.51737976 123.46138 46.4753418 125.15356445 C42.23572335 128.76075331 38.30350452 132.58354645 34.39453125 136.54296875 C33.70743576 137.23385086 33.02034027 137.92473297 32.31242371 138.6365509 C30.14330604 140.81775803 27.97749504 143.00220134 25.8125 145.1875 C22.94693318 148.07974393 20.07801175 150.96859975 17.20703125 153.85546875 C16.23344414 154.84150337 16.23344414 154.84150337 15.2401886 155.84745789 C11.97481242 159.13038798 8.69941417 162.19602473 5 165 C9.265966 168.85313058 13.77399921 170.81198035 19 173 C20.68918184 173.74620438 22.37675617 174.49606103 24.0625 175.25 C24.81660156 175.58515625 25.57070313 175.9203125 26.34765625 176.265625 C27.16556641 176.62914062 27.16556641 176.62914062 28 177 C28 177.66 28 178.32 28 179 C29.3303125 179.185625 29.3303125 179.185625 30.6875 179.375 C33.70387502 179.94412736 36.20326054 180.76614436 39 182 C39 186 39 186 37.6015625 187.5703125 C36.94929688 188.08335937 36.29703125 188.59640625 35.625 189.125 C21.78145016 200.39450017 21.78145016 200.39450017 12 215 C12 215.99 12 216.98 12 218 C12.66 218 13.32 218 14 218 C17 223.75 17 223.75 17 226 C17.66 226 18.32 226 19 226 C21.27131358 231.44037957 21.26751208 236.33886327 21.1875 242.125 C21.1865332 243.46498047 21.1865332 243.46498047 21.18554688 244.83203125 C21.15926695 248.73898027 21.07781783 252.22306829 20 256 C19.34 256 18.68 256 18 256 C17.7215625 257.5159375 17.7215625 257.5159375 17.4375 259.0625 C16.10226144 263.80356445 12.9251842 267.1238628 9 270 C8.01 270 7.02 270 6 270 C5.67 270.99 5.34 271.98 5 273 C1 273 1 273 -0.95703125 271.35546875 C-1.56933594 270.64003906 -2.18164062 269.92460937 -2.8125 269.1875 C-3.43769531 268.47980469 -4.06289062 267.77210938 -4.70703125 267.04296875 C-5.13371094 266.36878906 -5.56039062 265.69460938 -6 265 C-5.67 264.01 -5.34 263.02 -5 262 C-4.01 262 -3.02 262 -2 262 C-1.731875 261.195625 -1.46375 260.39125 -1.1875 259.5625 C-0.795625 258.716875 -0.40375 257.87125 0 257 C0.99 256.67 1.98 256.34 3 256 C5.67894916 245.99268579 5.84937648 236.32572399 1 227 C-2 221.11111111 -2 221.11111111 -2 219 C-2.99 218.67 -3.98 218.34 -5 218 C-6.6484375 216.328125 -6.6484375 216.328125 -8.375 214.25 C-11.12525286 211.01068544 -13.95495656 207.96891736 -17 205 C-18.16801776 203.83468599 -19.33458984 202.66792182 -20.5 201.5 C-21.098125 200.901875 -21.69625 200.30375 -22.3125 199.6875 C-29 193 -29 193 -30.79296875 191.171875 C-31.41816406 190.53765625 -32.04335937 189.9034375 -32.6875 189.25 C-33.26886719 188.65703125 -33.85023438 188.0640625 -34.44921875 187.453125 C-35.95513974 185.90358196 -35.95513974 185.90358196 -38 185 C-38 184.01 -38 183.02 -38 182 C-34.7 181.01 -31.4 180.02 -28 179 C-28 178.34 -28 177.68 -28 177 C-26.06441401 176.32779649 -24.12645628 175.66241923 -22.1875 175 C-21.10855469 174.62875 -20.02960938 174.2575 -18.91796875 173.875 C-16 173 -16 173 -13 173 C-13 172.34 -13 171.68 -13 171 C-8.545 169.02 -8.545 169.02 -4 167 C-4.66 165.68 -5.32 164.36 -6 163 C-6.43892578 161.99259766 -6.43892578 161.99259766 -6.88671875 160.96484375 C-8.21810955 158.61505578 -9.73612358 157.28156499 -11.8125 155.5625 C-15.0323441 152.8366753 -18.05440203 150.02520872 -21 147 C-21.845625 146.175 -22.69125 145.35 -23.5625 144.5 C-26 142 -26 142 -28.125 139.3125 C-29.96561073 136.80846331 -29.96561073 136.80846331 -33 135 C-33 134.34 -33 133.68 -33 133 C-33.66 133 -34.32 133 -35 133 C-35 132.34 -35 131.68 -35 131 C-35.61875 130.9175 -36.2375 130.835 -36.875 130.75 C-39.67505419 129.76174558 -39.74113932 128.59640015 -41 126 C-42.32407669 125.31513275 -43.65909241 124.65129797 -45 124 C-46.70993434 122.3777546 -48.37347684 120.70586575 -50 119 C-50.825 118.175 -51.65 117.35 -52.5 116.5 C-56.66666667 112.33333333 -60.83333333 108.16666667 -65 104 C-65.845625 103.175 -66.69125 102.35 -67.5625 101.5 C-70 99 -70 99 -71.8125 96.625 C-74.84361735 92.98765918 -78.4196597 90.08307082 -82 87 C-85.61671555 83.76804142 -87.57815258 81.92155321 -88 77 C-87.30132812 76.62230469 -86.60265625 76.24460937 -85.8828125 75.85546875 C-81.8882929 73.28447037 -78.67735512 70.06835702 -75.28515625 66.76367188 C-71.31546228 63 -71.31546228 63 -68 63 C-67.73050537 62.40219727 -67.46101074 61.80439453 -67.18334961 61.18847656 C-65.30214351 57.70939022 -62.45741371 55.39497034 -59.5625 52.75 C-58.68368164 51.91855469 -58.68368164 51.91855469 -57.78710938 51.0703125 C-53.37092057 47 -53.37092057 47 -50 47 C-49.67 46.01 -49.34 45.02 -49 44 C-46.5090217 41.22433847 -44.1376663 39.08890948 -41 37.0625 C-37.65089231 34.75998846 -35.58453719 32.11469866 -33 29 C-32.27425781 28.58105469 -31.54851562 28.16210938 -30.80078125 27.73046875 C-27.00567891 25.38565657 -23.9732876 22.44111365 -20.75 19.375 C-20.0890332 18.75415527 -19.42806641 18.13331055 -18.74707031 17.49365234 C-14.27649917 13.27557556 -9.94031607 8.95963922 -5.734375 4.4765625 C-4 3 -4 3 -1 3 C-0.67 2.01 -0.34 1.02 0 0 Z " fill="#010101" transform="translate(248,50)"/>
<path d="M0 0 C0.99 0 1.98 0 3 0 C10.12655379 26.97476425 10.12655379 26.97476425 8 33 C4.28522758 36.55356531 -0.00701854 38.26352448 -4.76953125 40.0234375 C-7.15990489 40.78649922 -7.15990489 40.78649922 -8 43 C-9.99609375 44.0703125 -9.99609375 44.0703125 -12.4375 45.125 C-13.24058594 45.47820312 -14.04367187 45.83140625 -14.87109375 46.1953125 C-17 47 -17 47 -19 47 C-19 47.66 -19 48.32 -19 49 C-24.625 52 -24.625 52 -28 52 C-28 52.66 -28 53.32 -28 54 C-32.44896795 56.51284301 -36.89248677 58.97555977 -41.5 61.1875 C-45.03715643 62.58381846 -45.03715643 62.58381846 -46 65 C-48.54259321 66.13004143 -51.13556758 67.0492973 -53.75 68 C-56.15703483 68.78431361 -56.15703483 68.78431361 -57 71 C-58.87754807 71.97230168 -60.75994249 72.93661668 -62.66796875 73.84765625 C-65.87280634 75.43128622 -68.9384412 77.23639377 -72.01953125 79.046875 C-74 80 -74 80 -77 80 C-77 80.66 -77 81.32 -77 82 C-81.44896795 84.51284301 -85.89248677 86.97555977 -90.5 89.1875 C-94.03715643 90.58381846 -94.03715643 90.58381846 -95 93 C-96.6015625 93.9296875 -96.6015625 93.9296875 -98.625 94.875 C-101.4002686 96.20057552 -104.05562836 97.59680835 -106.6875 99.1875 C-109.61895269 100.79150242 -111.72103557 101.60254977 -115 102 C-115.33 102.99 -115.66 103.98 -116 105 C-118.31808364 106.03485877 -120.65175298 107.0355414 -123 108 C-123.33 108.66 -123.66 109.32 -124 110 C-126.19330186 111.16721292 -128.37971155 112.25530397 -130.625 113.3125 C-134.61914211 115.24079341 -138.49866347 117.14557556 -142.0625 119.8125 C-144.71362106 121.78673909 -146.95078978 122.8341255 -150 124 C-150.33 124.66 -150.66 125.32 -151 126 C-153.54259321 127.13004143 -156.13556758 128.0492973 -158.75 129 C-161.15703483 129.78431361 -161.15703483 129.78431361 -162 132 C-164.55554217 132.84741068 -167.13765919 133.47171926 -169.75 134.12109375 C-170.86375 134.55615234 -170.86375 134.55615234 -172 135 C-172.33 135.99 -172.66 136.98 -173 138 C-176.0625 139.1875 -176.0625 139.1875 -179 140 C-179 140.66 -179 141.32 -179 142 C-179.80824219 142.39832031 -180.61648438 142.79664063 -181.44921875 143.20703125 C-182.51785156 143.73683594 -183.58648437 144.26664063 -184.6875 144.8125 C-185.74324219 145.33457031 -186.79898438 145.85664063 -187.88671875 146.39453125 C-190.9789783 147.93376823 -190.9789783 147.93376823 -193.70703125 149.69921875 C-196 151 -196 151 -199 151 C-199.33 151.99 -199.66 152.98 -200 154 C-203.4934597 155.74672985 -206.06845568 157 -210 157 C-210.33 157.99 -210.66 158.98 -211 160 C-213.14453125 161.31640625 -213.14453125 161.31640625 -215.8125 162.5625 C-216.68519531 162.97628906 -217.55789063 163.39007813 -218.45703125 163.81640625 C-219.29621094 164.20699219 -220.13539063 164.59757813 -221 165 C-222.98 165.99 -222.98 165.99 -225 167 C-225 177.56 -225 188.12 -225 199 C-237.5435985 199.06779008 -250.08707524 199.12282454 -262.63081551 199.15543652 C-268.45544366 199.171089 -274.27993993 199.19231994 -280.10449219 199.22631836 C-285.72603527 199.25892626 -291.34745152 199.27685616 -296.96908188 199.28463173 C-299.11327994 199.29017263 -301.2574711 199.30099263 -303.40161514 199.31719017 C-306.40607934 199.33898315 -309.4100202 199.3419661 -312.41455078 199.34057617 C-313.30000076 199.351362 -314.18545074 199.36214783 -315.09773254 199.3732605 C-321.38825135 199.3417935 -325.6158043 198.19596972 -330.375 193.8125 C-330.91125 193.214375 -331.4475 192.61625 -332 192 C-330.66144904 189.32289809 -329.27941912 189.04870906 -326.5625 187.875 C-325.35787109 187.34519531 -325.35787109 187.34519531 -324.12890625 186.8046875 C-322 186 -322 186 -320 186 C-319.67 185.01 -319.34 184.02 -319 183 C-316.5625 181.625 -316.5625 181.625 -313 180 C-311.22466062 179.15523881 -309.45403518 178.30052077 -307.6875 177.4375 C-306.39392578 176.81681641 -306.39392578 176.81681641 -305.07421875 176.18359375 C-302.85431487 175.17130183 -302.85431487 175.17130183 -302 173 C-296.69230769 170 -296.69230769 170 -293 170 C-293 169.34 -293 168.68 -293 168 C-291.73308493 167.32591692 -290.46129251 166.66099503 -289.1875 166 C-288.47980469 165.62875 -287.77210938 165.2575 -287.04296875 164.875 C-285 164 -285 164 -282 164 C-281.67 163.01 -281.34 162.02 -281 161 C-279.3984375 159.97265625 -279.3984375 159.97265625 -277.375 159.0625 C-274.5354446 157.73975747 -271.8179688 156.35107179 -269.125 154.75 C-266 153 -266 153 -264 153 C-264 152.34 -264 151.68 -264 151 C-258.375 148 -258.375 148 -255 148 C-254.67 147.01 -254.34 146.02 -254 145 C-250.78715662 143.11420063 -248.75366417 142 -245 142 C-245 141.34 -245 140.68 -245 140 C-244.35933594 139.68546875 -243.71867187 139.3709375 -243.05859375 139.046875 C-238.97442564 137.02609435 -234.92612529 135.00333289 -231 132.6875 C-228 131 -228 131 -226 131 C-226 130.34 -226 129.68 -226 129 C-225.21753906 128.73445312 -224.43507813 128.46890625 -223.62890625 128.1953125 C-222.61699219 127.84210938 -221.60507813 127.48890625 -220.5625 127.125 C-219.55316406 126.77695312 -218.54382813 126.42890625 -217.50390625 126.0703125 C-214.86028249 125.25944907 -214.86028249 125.25944907 -214 123 C-211.09740189 121.6250851 -209.23861295 121 -206 121 C-205.505 119.515 -205.505 119.515 -205 118 C-203.16746321 117.01585987 -201.32487158 116.04683158 -199.44140625 115.1640625 C-195.80110228 113.42836557 -192.29316262 111.46502683 -188.76171875 109.51953125 C-186.95772718 108.52695314 -185.14801055 107.54469085 -183.33203125 106.57421875 C-182.52121094 106.13722656 -181.71039063 105.70023437 -180.875 105.25 C-180.15054688 104.86328125 -179.42609375 104.4765625 -178.6796875 104.078125 C-176.8351364 103.09622722 -176.8351364 103.09622722 -176 101 C-173.09740189 99.6250851 -171.23861295 99 -168 99 C-167.67 98.01 -167.34 97.02 -167 96 C-165.2578125 94.83203125 -165.2578125 94.83203125 -163.125 93.8125 C-162.42632812 93.46832031 -161.72765625 93.12414062 -161.0078125 92.76953125 C-159 92 -159 92 -156 92 C-156 91.34 -156 90.68 -156 90 C-155.40832031 89.67386719 -154.81664062 89.34773438 -154.20703125 89.01171875 C-153.41683594 88.57472656 -152.62664062 88.13773437 -151.8125 87.6875 C-150.99136719 87.23375 -150.17023438 86.78 -149.32421875 86.3125 C-147.56352765 85.31822738 -145.83548817 84.26585124 -144.125 83.1875 C-142 82 -142 82 -139 82 C-138.67 81.01 -138.34 80.02 -138 79 C-134.78715662 77.11420063 -132.75366417 76 -129 76 C-129 75.34 -129 74.68 -129 74 C-123.25 71 -123.25 71 -121 71 C-121 70.34 -121 69.68 -121 69 C-119.5437455 68.32880451 -118.08492133 67.66318193 -116.625 67 C-115.81289063 66.62875 -115.00078125 66.2575 -114.1640625 65.875 C-112 65 -112 65 -110 65 C-110 64.34 -110 63.68 -110 63 C-104.375 60 -104.375 60 -101 60 C-100.67 59.01 -100.34 58.02 -100 57 C-98.16489824 56.01448239 -96.31961444 55.04433351 -94.43359375 54.16015625 C-90.82984392 52.44215673 -87.3597868 50.49508319 -83.86328125 48.5703125 C-81.97118312 47.53262703 -80.07278508 46.50633799 -78.16796875 45.4921875 C-72.90965447 42.68285036 -67.92904589 39.68106705 -63.00390625 36.32421875 C-59.37554267 33.9265282 -56.3909231 32 -52 32 C-52 31.34 -52 30.68 -52 30 C-46.25 27 -46.25 27 -44 27 C-44 26.34 -44 25.68 -44 25 C-42.78763672 24.40251953 -42.78763672 24.40251953 -41.55078125 23.79296875 C-40.48214844 23.26316406 -39.41351563 22.73335938 -38.3125 22.1875 C-37.25675781 21.66542969 -36.20101563 21.14335937 -35.11328125 20.60546875 C-32.0210217 19.06623177 -32.0210217 19.06623177 -29.29296875 17.30078125 C-27 16 -27 16 -24 16 C-23.67 15.01 -23.34 14.02 -23 13 C-21.2419858 12.0692866 -19.47410114 11.15441586 -17.671875 10.3125 C-14.21987264 8.61677954 -10.89789008 6.72528828 -7.5625 4.8125 C-6.93512939 4.45518799 -6.30775879 4.09787598 -5.66137695 3.72973633 C-2.65305639 2.11018667 -2.65305639 2.11018667 0 0 Z " fill="#FCFCFC" transform="translate(474,285)"/>
<path d="M0 0 C1.65 0 3.3 0 5 0 C5 0.66 5 1.32 5 2 C5.886875 2.226875 6.77375 2.45375 7.6875 2.6875 C11.43380532 4.17188513 13.33729434 6.02403485 16 9 C15.34 9 14.68 9 14 9 C13.690625 10.258125 13.38125 11.51625 13.0625 12.8125 C12.46021952 15.26177394 11.79911359 17.60265923 11 20 C10.34 20 9.68 20 9 20 C8.731875 20.763125 8.46375 21.52625 8.1875 22.3125 C7.04865495 24.88988618 6.18583329 26.26954864 4 28 C3.34 28 2.68 28 2 28 C1.79375 28.61875 1.5875 29.2375 1.375 29.875 C-0.54775888 32.84653645 -2.66594527 33.13024659 -6 34 C-6 34.66 -6 35.32 -6 36 C-15.47551262 38.86053211 -24.87654515 39.37123771 -34 35 C-36 33 -36 33 -36.1953125 31.0546875 C-36.13020833 29.03645833 -36.06510417 27.01822917 -36 25 C-33.03 25 -30.06 25 -27 25 C-27 24.34 -27 23.68 -27 23 C-26.34773437 22.90203125 -25.69546875 22.8040625 -25.0234375 22.703125 C-16.74515982 21.28678251 -11.67453686 18.37059982 -6.32421875 11.8828125 C-4.34489715 9.06855583 -3.18429975 6.22392709 -2 3 C-1.34 3 -0.68 3 0 3 C0 2.01 0 1.02 0 0 Z " fill="#060606" transform="translate(213,287)"/>
</svg>
