<svg xmlns="http://www.w3.org/2000/svg" role="img" viewBox="-2.02 -2.02 104.78 82.53"><defs><path d="M372.056 636.539L.109 421.64V.442l371.947 217.532z"/><path d="M371.335.049l371.414 217.599-371.414 217.598L.316 217.864z"/></defs><path fill="#15616d" d="M35.74326 78.3892c-2.69584-.2818-5.77953-.96007-8.53432-1.87715-2.64384-.88014-6.92552-2.85481-6.92552-3.19397 0-.29067 7.4743-16.04703 7.60777-16.03774.06098.004.37001.41718.68679.91761 1.61666 2.55398 9.50738 11.53741 15.14922 15.881 2.67174 2.05694 4.54155 3.87825 4.54155 3.87825.02422.01839-2.04924.25898-4.07118.44348-2.87509.26237-5.8734.2583-8.4543-.0115zm-21.19413-8.5271c-3.14811-2.3627-7.12031-6.90858-9.04-10.3456-.53757-.96243-.5433-1.00782-.16332-1.2913.2166-.1616 4.00658-3.4158 8.42218-7.23157 4.41559-3.81577 8.09237-6.96077 8.17063-6.98887.07825-.02813.35396.70886.61266 1.63771.2587.92884 1.00457 3.03707 1.65748 4.68494l1.18712 2.99613-1.32426 2.76755c-2.44293 5.10543-7.41737 15.03215-7.55965 15.08558-.07745.0291-.96072-.56247-1.96284-1.31457zm44.43298-1.85713s-9.24595-3.18428-12.8673-5.26067c-8.51054-4.8797-14.70568-11.48412-18.22461-19.42858-1.66753-3.7647-2.45855-6.52046-2.67587-9.32232l-.1244-1.60374 1.3503-.74372c4.43312-2.44165 5.84446-3.69865 10.75943-9.58277 5.55904-6.6552 8.90331-9.55317 12.94628-11.21854 2.58853-1.06627 2.62712-1.05445 2.74881.84177.12817 1.99717.87293 3.53398 2.42306 5.00003 1.46949 1.38979 2.72391 1.93506 4.72164 2.05238 2.50633.1472 4.40104-.59462 5.07524-1.9871l.3172-.65512 1.87415 1.60286c2.6149 2.23638 6.35308 6.19366 7.81333 8.27127l1.22874 1.74822-.70008-.13011c-4.55263-.84613-8.89425-1.11806-12.43655-.77894-1.45385.13918-2.7236.33126-2.82169.42683-.0981.09557.29893.2394.88225.31964 1.47524.2029 3.44165 1.18374 4.44414 2.21673 2.33548 2.40655 1.92015 6.84593-.94712 10.12365-1.5718 1.79681-4.89627 3.69626-7.26722 4.15215l-.74014.14231.74014-.58934c2.82294-2.2478 4.25108-5.25654 3.61478-7.61544-.1825-.6766-1.21385-2.34276-2.24156-3.62134-.02654-.03301-1.32177-.19632-2.8783-.36288-3.3512-.35862-4.83933-.72331-6.67084-1.63483-2.57244-1.28026-4.51844-3.41824-5.569-6.11839l-.55794-1.43406-.26842 1.04731c-.5263 2.05351-2.65405 4.6563-5.64976 6.91112-1.56016 1.1743-4.51668 2.81483-5.07283 2.81483-.17482 0 .31452.5365 1.08743 1.1922 3.02448 2.56585 7.42925 8.00087 9.23106 11.39016l1.1242 2.11468 4.90665 1.61464c4.27923 1.40818 7.96632 2.58238 8.0629 2.63283.76254 2.02865-.87524 3.64767-.21537 5.69154.9288 2.76363 3.30403 9.93398 3.30403 9.93398zM2.14115 51.94146C.00481 45.46436-.52718 39.0756.52045 32.47798l.36097-2.27329h.61673c.3392 0 3.11071.37588 6.1589.83529 7.2666 1.09518 11.84969 1.70233 12.84997 1.70233.44483 0 .87229.10275.9499.22833.07761.12559.07234 1.55644-.01167 3.17968l-.1528 2.95133-8.98227 7.65808c-4.94025 4.21193-9.05641 7.68564-9.14703 7.71935-.09063.03372-.55052-1.10824-1.02197-2.53762zm16.55627-24.08064c-.69785-.09769-4.59944-.61815-8.6702-1.1566-4.07077-.53843-7.51493-1.0128-7.6537-1.05415-.42658-.1271 1.52447-4.65993 3.27333-7.6048 1.90368-3.20556 5.6746-7.49505 8.60973-9.7937C22.24964 1.99183 32.82611-.95287 42.91053.27374 47.0695.7796 50.85628 1.80047 54.0126 3.2667l1.2688.58942-.74013.20141C50.2558 5.22381 46.35322 7.00808 43.2861 9.20342c-.94437.67594-2.84014 2.34807-4.21283 3.71584-2.12682 2.1192-3.76528 4.06303-9.22251 10.94138-.41525.52339-1.239 1.34426-1.83054 1.82418-2.63521 2.1379-5.24445 2.7469-9.3228 2.176zM59.3671 15.7381c-3.47686-.92488-4.85396-5.09008-2.64264-7.99302 2.27491-2.98643 6.83176-2.60577 8.51255.7111 1.99916 3.94515-1.6051 8.4164-5.8699 7.28192z"/><path fill="#ff7d00" d="M100.85782 23.89896c-.07353 0-2.892 1.2859-6.2634 2.85754-3.37143 1.57164-8.10996 3.77598-10.5299 4.8987-5.83558 2.70742-10.58496 4.95869-10.69643 5.07016-.04955.04955 1.04978.9716 2.44259 2.04893l2.53222 1.9589-.49146.37239c-.70561.53458-5.39989 3.29795-7.61507 4.48293-1.71364.91671-6.04929 3.4949-10.19228 6.06046-.53728.28746-1.21037.82848-1.7032 1.02127.0056.0024.02039.05387.02255.05499.7555 2.00993-.8674 3.61394-.21361 5.63896.91947 2.73587 3.26738 9.82254 3.27125 9.83422.69924.19222 2.70814.53965 4.10646.72472 3.74881.4962 3.39625.48096 5.02146.2173 2.86255-.46443 8.015-3.82342 12.04152-7.84995 1.91624-1.91625 5.66308-6.55891 5.4585-6.76349-.04212-.04212-.86154.27828-1.821.71162-2.29354 1.03589-12.46082 5.30747-13.27285 5.57636-.58713.19443-.80535.09333-2.9889-1.38233-1.29559-.87557-2.50345-1.59183-2.68402-1.59183-.18059 0-.2921-.10832-.24798-.24062.09062-.2719 4.35531-2.80372 13.25892-7.87122 7.72669-4.39767 12.46629-7.22764 12.46629-7.4436 0-.09298-1.31742-1.03757-2.92751-2.09927l-2.9271-1.93067 5.93154-5.9733c6.18925-6.2329 8.2466-8.38314 8.0214-8.38314z"/></svg>