<?xml version="1.0" encoding="utf-8"?>
<!-- Generator: Adobe Illustrator 21.1.0, SVG Export Plug-In . SVG Version: 6.00 Build 0)  -->
<svg version="1.1" id="Layer_1" xmlns="http://www.w3.org/2000/svg" xmlns:xlink="http://www.w3.org/1999/xlink" x="0px" y="0px"
	 viewBox="0 0 374.7 157.7" style="enable-background:new 0 0 374.7 157.7;" xml:space="preserve">
<style type="text/css">
	.st0{fill:none;stroke:#000000;stroke-width:8;stroke-linejoin:round;}
	.st1{fill:none;stroke:#000000;stroke-width:8;stroke-miterlimit:10;}
	.st2{fill:#0082CA;}
	.st3{font-family:'HelveticaNeue-Medium';}
	.st4{font-size:96.1696px;}
	.st5{letter-spacing:12.6;}
</style>
<g>
	<g>
		<path d="M68,118.8c-0.5,0-1.1-0.2-1.5-0.7c-0.7-0.8-0.6-2,0.2-2.7l63.2-54c0.7-2.1,0.8-3.9,0.8-4.1c0-11.8-7.8-21.9-7.9-22
			c0,0-0.1-0.1-0.1-0.1c-10.8-16.9-26-22.3-33.4-24.9c-4.2-1.5-19.3-5.9-40-0.8C32.6,13.7,18.2,25,9.9,40.5
			c-4,7.4-4.7,12.9-4.6,16.2c0,0.7,0.1,1.3,0.1,1.8c3.3-3.5,10-8.8,20.1-8.3c1,0,13.5,0.6,20.8,12.3c2.8-4.4,9.1-11.6,21.2-12.3
			c0.4,0,4.4-0.3,9.2,1.4c4,1.4,9.4,4.4,13.5,10.8c2.7-4.4,8.9-11.5,20.6-12.2c1-0.1,2,0.7,2,1.8c0.1,1.1-0.7,2-1.8,2
			C96.8,54.8,92.2,66.6,92,67.1c-0.3,0.7-0.9,1.2-1.7,1.2c-0.7,0-1.5-0.4-1.8-1.1C81.5,53,67.8,54,67.7,54c0,0,0,0,0,0
			C53.1,54.8,48.2,66.8,48,67.3c-0.3,0.7-1,1.2-1.7,1.2c-0.8,0-1.5-0.4-1.8-1.1c-5.9-13-19-13.3-19.1-13.3c0,0,0,0-0.1,0
			c-12.6-0.6-19.1,9.5-19.1,9.6c-0.4,0.6-1,0.9-1.7,0.9c-0.7,0-1.3-0.4-1.6-1c-0.2-0.4-4.8-9.1,3.7-24.8c8.8-16.5,24.1-28.5,42-32.9
			c21.7-5.4,37.8-0.7,42.2,0.9c7.1,2.5,23.7,8.4,35.3,26.3c0.8,1.1,8.7,11.6,8.7,24.3c0,0.2-0.1,2.9-1.2,5.9
			c-0.1,0.3-0.3,0.6-0.5,0.8l-63.6,54.3C68.9,118.6,68.5,118.8,68,118.8z"/>
	</g>
	<g>
		<path d="M67.7,118.5c-0.4,0-0.9-0.1-1.2-0.5L3.3,64.1c-0.8-0.7-0.9-1.9-0.2-2.7c0.7-0.8,1.9-0.9,2.7-0.2l63.2,53.9
			c0.8,0.7,0.9,1.9,0.2,2.7C68.8,118.2,68.2,118.5,67.7,118.5z"/>
	</g>
	<g>
		<path d="M67.9,118.5c-0.7,0-1.4-0.4-1.8-1.1l-21.7-50c-0.4-1,0-2.1,1-2.5c1-0.4,2.1,0,2.5,1l21.7,50c0.4,1,0,2.1-1,2.5
			C68.4,118.4,68.2,118.5,67.9,118.5z"/>
	</g>
	<g>
		<path d="M68,118.8c-0.3,0-0.5-0.1-0.8-0.2c-1-0.4-1.4-1.5-1-2.5l22.1-50.4c0.4-1,1.6-1.4,2.5-1c1,0.4,1.4,1.5,1,2.5l-22.1,50.4
			C69.5,118.3,68.8,118.8,68,118.8z"/>
	</g>
	<g>
		<path d="M90.3,154.3H45.2c-1.1,0-1.9-0.9-1.9-1.9v-35.5c0-1.1,0.9-1.9,1.9-1.9h11.2c1.1,0,1.9,0.9,1.9,1.9c0,1.1-0.9,1.9-1.9,1.9
			h-9.3v31.7h41.3v-31.7H68.3c-1.1,0-1.9-0.9-1.9-1.9c0-1.1,0.9-1.9,1.9-1.9h22c1.1,0,1.9,0.9,1.9,1.9v35.5
			C92.2,153.5,91.4,154.3,90.3,154.3z"/>
	</g>
	<g>
		<circle class="st2" cx="55.4" cy="116.9" r="4.3"/>
	</g>
	<g>
		<circle class="st2" cx="111.4" cy="52.1" r="4.3"/>
	</g>
	<g>
		<path d="M81.2,146.2c-1.1,0-1.9-0.9-1.9-1.9v-19.5c0-0.8,0.5-1.5,1.2-1.8c0.7-0.3,1.5-0.1,2.1,0.4l4.2,4.2c0.7,0.7,0.7,2,0,2.7
			c-0.7,0.7-2,0.7-2.7,0l-0.9-0.9v14.9C83.2,145.4,82.3,146.2,81.2,146.2z"/>
	</g>
	<g>
		<path d="M77.1,130.9c-0.5,0-1-0.2-1.3-0.6c-0.7-0.7-0.7-2,0-2.7l4.2-4.2c0.7-0.7,2-0.7,2.7,0c0.7,0.7,0.7,2,0,2.7l-4.2,4.2
			C78,130.7,77.6,130.9,77.1,130.9z"/>
	</g>
</g>
<text transform="matrix(1.1108 0 0 1 139.9922 151.3555)" class="st3 st4 st5">TUF</text>
</svg>
