<svg id="图层_1" data-name="图层 1" xmlns="http://www.w3.org/2000/svg" viewBox="0 0 1075.44949 201.85831"><defs><style>.cls-1{fill:#fff;}.cls-2{fill:#ccc;}</style></defs><path id="形状结合备份-24" class="cls-1" d="M715.35553,75.30655l29.06438,53.835,27.11369-53.835h27.13757l-63.688,119.38314H707.553l25.06555-43.149-42.71872-76.2341ZM311.74026,40.81809l39.66407,100.1485,40.22075-100.1485h27.673L364.34,173.466H337.68371L283.99722,40.81809ZM957.84868,72.6536v22.501c-11.31981,0-21.986,11.5722-21.986,22.044h0v53.61453H910.09542V121.73333q0-40.50931,47.75326-49.07973Zm-102.81878,2.653c12.11165,0,28.53594,16.02705,28.53594,32.03532v63.47119H823.61009c-13.0755,0-27.59188-13.39125-27.59188-29.755,0-16.36382,11.41655-31.38,22.51808-31.38h41.52664q-.4913-13.545-11.33174-13.545H813.66632V75.30655Zm-223.2717,0c41.21614,0,47.40831,34.1111,47.52805,41.01565l.00178.20083v18.53763h-70.3038q3.8098,15.4321,21.90423,15.791l.86974.00854h39.29832v19.95289H629.92477c-33.33821,0-46.14324-29.871-46.14324-44.60865S590.1257,75.30655,631.7582,75.30655Zm-95.22286,2.653c8.63808,0,28.67548,8.966,28.67548,30.307v62.54652H540.97677v-57.431h0c0-9.97062-9.77425-12.50727-15.71193-12.50727H509.67877v69.93826H482.96911V77.95951Zm-85.40174-2.653v95.50651H424.604V75.30655Zm604.87454-37.14141v129.995h-53.14345c-10.68316,0-34.40418-11.3736-34.40418-46.73208q0-35.35844,34.40418-40.374h29.09017V38.16514ZM860.07249,127.73645H829.2114c-4.9496,0-9.08667,5.83694-9.08667,10.49278,0,4.51038,3.93284,10.685,8.62984,11.06651l.45683.01858h30.86109Zm172.41234-26.62779h-25.44429q-15.7674,4.05588-15.7674,22.3213c0,18.26541,9.54661,24.40806,15.7674,24.40806h25.44429Zm-400.1431-5.84229q-19.05513,0-22.82645,20.38575H655.1682Q651.39685,95.26637,632.34173,95.26637Z"/><g id="编组备份"><path id="路径" class="cls-2" d="M165.075,90.751l-.17453.07359a75.21359,75.21359,0,0,0-17.03755,10.03c-18.01317,14.21807-28.41593,36.52187-28.45047,68.66947q-.00832,7.83267.66037,14.74806H96.01139q-.60647-7.09346-.59918-14.77371c.04249-39.35281,13.69846-68.63157,37.581-87.48246a99.96229,99.96229,0,0,1,25.76061-14.60677A102.19468,102.19468,0,0,1,165.075,90.751Z"/><path id="路径-2" data-name="路径" class="cls-1" d="M100.11251,82.01592c23.88259,18.85089,37.53856,48.12965,37.581,87.48246q.008,7.67867-.59917,14.77371H113.033q.67029-6.91887.66037-14.74806c-.03454-32.1476-10.43731-54.4514-28.45047-68.66947a74.90548,74.90548,0,0,0-16.11384-9.6287,102.89143,102.89143,0,0,1,7.03789-23.09281A99.54247,99.54247,0,0,1,100.11251,82.01592Z"/><path id="路径-3" data-name="路径" class="cls-1" d="M54.72345,11.28033,73.90972,27.27488C39.69535,59.66433,39.03742,129.60336,52.54247,184.27172H28.53629C13.34534,129.92674,15.46985,51.9928,54.72345,11.28033Z"/><path id="路径-4" data-name="路径" class="cls-2" d="M178.70565,10.80967c39.6941,40.58011,41.894,118.90736,26.64411,173.46312H181.34317c13.56564-54.91057,12.842-125.23016-21.825-157.42764Z"/></g></svg>