<?xml version="1.0" encoding="UTF-8"?><svg id="Layer_1" xmlns="http://www.w3.org/2000/svg" viewBox="0 0 300.9209 358.30516"><defs><style>.cls-1{opacity:.4;}.cls-1,.cls-2,.cls-3,.cls-4{fill:#fff;}.cls-2{opacity:.6;}.cls-3{opacity:.8;}.cls-5{fill:#ededed;}.cls-6{fill:#c8c8c8;}</style></defs><path class="cls-4" d="M80.97066,337.26137h-13.58594l-2.55273,7.58105h-8.05664l13.16113-36.88037h8.70703l13.06055,36.88037h-8.35645l-2.37695-7.58105ZM78.81831,330.9059l-4.60352-14.51172-4.75391,14.51172h9.35742Z"/><path class="cls-4" d="M108.29195,339.76332v5.3291l-3.37695.12549c-3.37012.11621-5.67188-.4668-6.90625-1.75146-.80078-.81738-1.20117-2.07666-1.20117-3.77832v-16.78857h-3.80273v-5.0791h3.80273v-7.60645h7.05664v7.60645h4.42773v5.0791h-4.42773v14.41162c0,1.11768.14062,1.81396.4248,2.08936.2832.27539,1.15137.4126,2.60254.4126.21582,0,.44531-.00391.6875-.01221s.47949-.021.71289-.0376Z"/><path class="cls-4" d="M113.02144,307.96205h7.13086v36.88037h-7.13086v-36.88037Z"/><path class="cls-4" d="M128.13374,320.5226c1.88477-2.40186,5.12109-3.60303,9.70801-3.60303,2.98535,0,5.6377.59229,7.95605,1.77637,2.31836,1.18457,3.47852,3.41992,3.47852,6.70557v12.51025c0,.86768.0166,1.91846.0498,3.15234.0498.93457.19141,1.56836.42578,1.90186.2334.33398.58301.60889,1.05078.82568v1.05078h-7.75684c-.2168-.55029-.36719-1.06738-.4502-1.55127-.08398-.4834-.15039-1.03418-.2002-1.65137-.98438,1.06787-2.11816,1.97656-3.40234,2.72705-1.53516.88428-3.26953,1.32617-5.20508,1.32617-2.46875,0-4.50781-.70459-6.11719-2.11426-1.60938-1.40918-2.41406-3.40674-2.41406-5.99219,0-3.35303,1.29199-5.77979,3.87793-7.28125,1.41699-.81689,3.50293-1.40088,6.25488-1.75098l2.42676-.30029c1.31738-.1665,2.26074-.37549,2.82812-.62549,1.0166-.43359,1.52539-1.10938,1.52539-2.02686,0-1.11719-.3877-1.88916-1.16309-2.31445s-1.91406-.63818-3.41504-.63818c-1.68555,0-2.87793.41748-3.57812,1.25146-.5.61719-.83398,1.45117-1.00098,2.50195h-6.88086c.15039-2.38525.81738-4.34521,2.00195-5.87988ZM133.43843,339.68812c.66699.55029,1.48438.82568,2.45215.82568,1.53418,0,2.94727-.4502,4.24023-1.35107s1.96484-2.54346,2.01465-4.9292v-2.65186c-.4502.28369-.90527.5127-1.36426.68799s-1.08789.33789-1.88867.48779l-1.60156.30029c-1.50098.26709-2.57715.59229-3.22754.97559-1.10059.65088-1.65137,1.66016-1.65137,3.02783,0,1.21777.3418,2.09326,1.02637,2.62695Z"/><path class="cls-4" d="M168.44136,322.84926c-2.41895,0-4.07812,1.02588-4.97852,3.07764-.46777,1.08447-.70117,2.46875-.70117,4.15332v14.76221h-7.10547v-27.22217h6.88086v3.97803c.91699-1.40088,1.78418-2.41016,2.60156-3.02734,1.46777-1.10107,3.32812-1.65137,5.58008-1.65137,2.81836,0,5.125.73828,6.91797,2.21436s2.68945,3.92432,2.68945,7.34326v18.36523h-7.30566v-16.58838c0-1.43457-.19238-2.53564-.57617-3.30273-.7002-1.40137-2.03516-2.10205-4.00293-2.10205Z"/><path class="cls-4" d="M199.39156,339.76332v5.3291l-3.37695.12549c-3.37012.11621-5.67188-.4668-6.90625-1.75146-.80078-.81738-1.20117-2.07666-1.20117-3.77832v-16.78857h-3.80273v-5.0791h3.80273v-7.60645h7.05664v7.60645h4.42773v5.0791h-4.42773v14.41162c0,1.11768.14062,1.81396.4248,2.08936.2832.27539,1.15137.4126,2.60254.4126.21582,0,.44531-.00391.6875-.01221s.47949-.021.71289-.0376Z"/><path class="cls-4" d="M211.30269,307.73695v6.58057h-7.23145v-6.58057h7.23145ZM211.30269,317.56996v27.27246h-7.23145v-27.27246h7.23145Z"/><path class="cls-4" d="M236.998,318.82094c2.13477,1.36816,3.36133,3.72021,3.67773,7.05615h-7.13086c-.09961-.91748-.3584-1.64307-.77539-2.17676-.78418-.96729-2.11816-1.45117-4.00293-1.45117-1.55176,0-2.65723.2417-3.31543.72559-.65918.48389-.98828,1.05078-.98828,1.70117,0,.81738.35059,1.40967,1.05078,1.77637.7002.38379,3.17773,1.04297,7.43066,1.97656,2.83594.66748,4.96289,1.67676,6.38086,3.02783,1.40039,1.36768,2.10156,3.07715,2.10156,5.12891,0,2.70215-1.00488,4.9082-3.01465,6.61816-2.01074,1.70947-5.11719,2.56445-9.32031,2.56445-4.28711,0-7.45215-.90527-9.49512-2.71484-2.04395-1.80957-3.06543-4.11572-3.06543-6.91797h7.23047c.15039,1.26758.47559,2.16846.97656,2.70215.88379.95068,2.51855,1.42627,4.90332,1.42627,1.40137,0,2.51465-.2085,3.34082-.62549.8252-.41699,1.23828-1.04248,1.23828-1.87646,0-.80078-.33398-1.40967-1.00098-1.82666s-3.14453-1.13428-7.43066-2.15186c-3.08594-.76709-5.2627-1.72656-6.53027-2.87744-1.26855-1.13379-1.90234-2.76855-1.90234-4.90381,0-2.51855.98926-4.68262,2.96582-6.49268s4.75781-2.71484,8.34375-2.71484c3.40332,0,6.18066.67529,8.33203,2.02637Z"/><path class="cls-1" d="M158.79316,9.77116l13.18892,1.44399c61.57134,8.98372,110.76162,58.88929,116.98133,121.14845l.70341,8.78057v1.63924c-.3877.24315-.23403.88869-.23819,1.28461-.01694,1.61164-.17544,3.51064.23819,5.03815v1.87341l-1.20384,12.4952c-3.74761,29.25672-19.21536,61.19427-41.04884,81.18157-.27951.25588-1.87863,1.6916-1.99973,1.74592-.50345.22583-1.54324.04644-1.62775.12927-.04572.04481-.03874.81013-.27039,1.25168-.84272,1.60627-3.53865,2.67841-4.8161,3.73132-24.25491,19.99161-53.84223,30.63905-85.5259,31.07224-1.24392.01701-2.50197.01557-3.74594,0-68.44872-.85691-127.23717-51.20456-135.76032-119.57699l-.96636-9.22009c.15327-4.66675-.20616-9.38881,0-14.05059C15.78546,70.00677,74.04073,13.29518,143.34118,9.77116h15.45199ZM36.11375,85.64435c-7.17547,13.33338-12.23667,27.52471-14.5155,42.62012-.65453,4.33571-.60666,8.64288-.93874,12.99454-.18778,2.46069-.80772,5.05695-.94402,7.48609-.2596,4.6266,1.11065,9.11789,1.17922,13.71029,1.36622.0162,2.73899-.02095,4.10754-.01183.49853.00332.9551.24852,1.39521.24447,3.31986-.03055,4.9737-2.70659,7.39385-4.54728,9.94962-7.56736,26.02634-18.68396,37.95986-21.98033,5.32655-1.47134,5.40094-.60595,9.78533-4.49711,7.13689-6.33403,11.37911-8.85782,21.06206-10.54678,3.29918-.57546,6.1329-.45885,9.25401-.81338,3.26534-.37091,9.32032-6.76437,12.05316-9.01987,8.17704-6.74877,19.31751-12.84225,30.29365-11.79409,7.15586.68334,20.63552,9.15847,25.90444,14.1336,1.48585,1.403,5.45086,6.57931,7.00769,7.04124.96443.28616,2.15839.01242,3.16858.10914,11.00392,1.05362,19.87785,4.62642,27.44245,12.8294,17.04007-.37699,29.82453,10.13548,43.07444,18.97212,3.61364,2.41001,9.35823,5.10076,12.25201,8.11844.56871.59306.63203,1.7611,1.98525,1.7611h6.67245c.51229-5.4601,1.0951-10.77766.94614-16.28492-.14006-5.17827-.73173-10.42289-1.41438-15.56308-1.67487-12.61133-4.80233-23.74103-9.83308-35.36065-3.28326-7.58342-7.37814-14.73769-11.98358-21.61791C224.68152,21.728,156.45632,3.64229,99.09982,27.92736c-28.00141,11.85596-48.65011,31.07805-62.98607,57.71699ZM104.00885,131.77712c-1.26781.81013-2.65461,1.51676-4.21415,1.40389-.76605-.76777,2.70455-3.39981,3.27256-4.10201.54336-.67173,1.18241-1.60847,1.40983-2.45376.42605-.21337,1.67712-1.10204,1.17172-1.63815-.46877-.49727-10.8278,2.15869-12.17259,2.69477-3.93496,1.56862-7.0085,5.22441-10.32835,7.70079-7.52547,5.61348-18.15139,6.40409-26.35454,11.10745-4.60831,2.64222-8.54762,6.73114-12.87994,9.83213-2.77933,1.9894-6.09053,3.41598-8.26782,6.12967.85652.00954,1.71873-.00471,2.57527.00234,1.1679.00962,2.34383.00335,3.51182,0,1.3481-.00386,2.95889.20122,4.21418-.23418,1.00816.04005,2.03752-.05786,3.04357,0,1.32951.07646,4.27193.73391,5.2228.18823.40063-.22991,1.01269-1.2282,1.58679-1.6903,4.09155-3.29332,8.37958-4.77447,12.82649-7.07547,4.06855-2.10522,5.13253-4.20043,10.43736-4.54746,4.97643-.32555,12.62601,1.85988,16.88048.49213,2.218-.71305,2.09527-2.03126,3.32213-3.30028,1.92411-1.99024,9.99506-6.96182,12.72124-8.51955,9.52603-5.44315,27.43148-14.31844,38.25037-14.43014,7.65359-.07901,15.91009,3.93647,22.84392,6.67612,10.2198,4.03798,20.77296,7.76533,30.35158,13.19806,4.91317,2.78662,16.31636,11.17171,21.71871,10.32933.85565-.13342,2.13125-.84732,3.12594-1.08789,3.96493-.95897,8.45902-2.02136,12.54408-1.67714,4.09182.34479,8.21968,2.12812,12.32165,2.54444l-.04041-.89733c-10.56365-5.68684-20.90175-13.8077-33.43885-14.0864.8828,2.35677,5.31108,3.5137,6.34171,5.26293,1.23078,2.08893-3.05124.61754-3.71185.41744-6.35064-1.92362-11.44105-5.15872-17.1465-8.37513-.65038-.56045.20622-1.01051.36396-1.50947.72269-2.286-1.16969-3.59704-2.76782-4.75017-2.24875-1.62259-4.89183-3.12291-7.65759-3.57868.92543,1.6758,3.22181,2.36934,4.42194,3.53662.67331.65488,1.11351,1.85472,2.01471,2.4436.36298.60229-.25749,1.83274-.89309,1.82247-8.55926-3.25997-18.14837-5.13638-26.15591-9.6688-.70817-.40084-4.04253-2.47007-4.32437-2.93407-.29426-.48443-.0304-1.379-.13077-1.9768-.09809-.58422-.61538-1.08085-.45492-1.76722.1873-.20496,4.56419,1.64663,5.38214,1.28819l-8.20402-5.61057c-.38545-.25489-1.01908-.00229-1.3454-.17881-.37754-.20423-4.27875-5.76734-5.30766-6.7485-.84965-.81022-1.04879-.44701-1.76433-.69425-16.82147-5.81233-27.82919,6.54393-39.82484,15.78264-4.39361,3.38384-9.90081,7.74604-14.49124,10.6793ZM175.2987,118.66323v.23418c.15203-.07806.15203-.15612,0-.23418ZM156.21783,129.20118c-1.72704-.38979-3.40141-1.03035-5.27073-1.16787-9.50003-.69893-23.98067,6.22663-32.34598,10.72882-6.792,3.65543-13.81636,7.92079-18.8064,13.85436.7077.0318,1.43623.02569,2.10703-.23183l.93544.35021c-1.81906.97697-.53618,1.55551-.23307,2.92826-5.76591,1.54477-12.44199,2.62214-17.09077,6.5546,1.5027-.11119,3.21014.16025,4.68236.00234.8823,1.0188,2.17637,0,2.92651,0h16.85671c.43756,0,1.18658-.40237,1.99003-.23418,1.65469.34638,2.42935.58839,4.34106.47815,4.27397-.24646,8.15922-1.1286,11.45568-3.99723,1.34859-1.17356.58595-1.50966.84528-2.90134.13591-.72936.59666-1.4721.66903-2.15247.11285-1.0609-.56619-2.17533-.36082-2.90694.17229-.61375,1.53243-1.62648,1.97125-2.49602.38681-.7665.57545-1.56858.97881-2.4165l3.74594-.70253c-.36284,1.8106-1.47247,3.43958-1.63934,5.03247-.0714.6816.08275,3.35151.26859,3.94859.25947.83364,1.61851.10014,2.15555-.11685,2.56491-1.03636,5.11492-2.92506,7.88094-4.06033,4.1427-1.70032,8.55601-2.59819,12.76083-4.09686,6.73676-2.40109,13.92499-7.23274,21.47066-5.79488,1.80875.34466,3.88281,1.25176,4.89105,2.8724.22424.36045-.02484.29243-.02758.34205-2.27979-.55959-4.86154-.05347-7.12339.48571-.89629.21366-1.71683.70004-2.47557.91935-7.45185,2.15388-10.64289,2.84065-13.57902,10.53794-.32464.85106-1.0607,1.5915-.93648,2.57594-1.49831.7073-3.44457,3.25015-4.68234,4.447.99193.00173,1.93568.43623,2.92006.48174.79698.03684,1.43149-.24081,1.99641-.2452,12.05418-.09368,24.11845.06691,36.17552.0038.79143-.09225,1.32953-.26816,1.28644-1.17492.62366.34809.96092.83986,1.74294.94733,3.72632.51211,7.96971-.24363,11.71262-.26282,1.19703-.00614,2.39121.43859,3.63151.25121.01248-.70394-.90958-.84822-.70011-1.63684.89904.28264,2.48669-.28581,3.13972-.24177.09186.0062.61402,1.04141,1.24354,1.35839,2.5432,1.28059,8.85488.62932,11.89676.74596.63308.02427,1.19773.27741,1.85711.25364,1.0118-.03648.7124-.61416.11744-1.05781-1.95742-1.45964-8.55091-2.46936-11.2315-3.28477-6.91147-2.10241-14.01499-7.45001-20.44582-10.92899-9.17068-4.96119-18.8877-8.91577-28.47229-12.73602-5.69307-2.26916-9.05863-3.86205-15.23156-5.25527ZM155.98371,151.9163c.18447-.28548,1.10246-.69831.93532-1.40382-9.77521.71205-18.57045,6.06562-26.45271,11.47791l.11601.46503c1.28713.00648,2.57751-.01299,3.86225-.00117,3.95023.03633,7.87525-.36629,11.8301-.22811.53977.08639.72904-.27555,1.04656-.47441,3.69302-2.31301,5.79431-5.07922,7.96011-8.66453.22087-.36564.48908-.8408.70236-1.17088ZM76.85081,154.02388c-.36199-.21811-.97767-.24164-1.40648-.1347-1.23681.30845-4.851,2.46659-6.15584,3.22562-1.59284.92656-5.48725,3.17476-6.6057,4.39895-.50726.55522-.64997.94276.12076.94048.25759-.00076.58823.06396.70236-.23418.65987.04544,1.43839.02424,2.10709,0-.13053.70932.35825.45062.8088.46841,2.82896.11166,8.3537.30085,10.96597-.28259.66632-.14882,3.03619-2.2781,3.92956-2.86063,1.71631-1.11913,5.67603-2.79165,6.89323-4.11135.29209-.31669.42853-.46671.34653-.93934-3.5606-.59738-7.26645-1.05965-10.89749-.93907-.45057.01496-.93951-.23865-.80879.4684ZM241.67201,161.51753c3.73459,1.4185,7.936.47992,11.81196.45719,3.87695-.02274,7.73193.11247,11.59917.24416.47602-.46728-1.22104-1.62282-1.56282-1.83022-3.47917-2.11124-8.56439-1.95671-12.49159-2.72693-2.94693-.57797-5.74953-1.7446-8.65436-2.46698-3.50765-.87229-4.93642-.66126-8.47259.07284-.45974.09544-3.46683.73366-3.46286.98095,1.75568.74788,3.58085,1.35929,5.30481,2.18286,2.00638.95849,3.82897,2.28874,5.92828,3.08611ZM267.42532,166.90359c-15.85006-.41472-31.9968.07177-47.8889.01116-65.456-.24963-130.89674.05474-196.42552-.02112l-1.51727.37167c.5285,1.41203.34872,3.50826.75645,4.86053.12985.43065.63474.58347.65291.63217.5835,1.56402,1.24616,5.60339,1.87297,7.72782.64627,2.1904,1.39854,4.22236,2.10709,6.32277,1.06415,3.15455,1.94583,6.27263,3.27769,9.36706,2.55701,5.94091,5.67314,11.87784,9.13072,17.32906.63769,1.00538,2.65566,4.73082,3.51182,5.15188,1.42548,2.67346,3.29412,5.11446,5.15066,7.49365,7.17954,9.2007,18.74568,20.55254,28.58259,26.79338,54.06036,34.29762,116.81492,29.55811,165.1462-12.04662,2.10399-1.81116,5.46378-4.99449,7.14931-7.13276.34147-.43319.38727-1.08736.52766-1.2311.1303-.1334.68435-.18681,1.12175-.6337,1.65802-1.69401,3.18098-4.09443,4.66959-5.98338,1.81333-2.30101,2.61401-3.42439,4.21418-5.85441,1.7277-2.6237,3.10403-4.76201,4.68242-7.49365,3.0965-5.35896,6.01121-10.86355,8.42836-16.62653,1.24335-2.9644,2.2729-5.84685,3.27769-8.89871.71365-2.16756,1.25712-4.36283,1.87297-6.55694.35645-1.26993.98688-2.4297,1.29571-3.73878.76813-3.25602.96359-6.84458,1.98099-10.07622l-13.57802.23276ZM247.05729,238.79685c-.54763.05991-1.40697-.16467-1.87571.11358-1.84553,1.09557,1.89552,4.27557,1.87571-.11358Z"/><path class="cls-3" d="M289.66681,149.10618c-.41363-1.52752-.25513-3.42651-.23819-5.03815.00416-.39592-.14951-1.04146.23819-1.28461v6.32277Z"/><path class="cls-6" d="M153.17426,282.58678v.23418h-3.74594v-.23418c1.24397.01557,2.50201.01701,3.74594,0Z"/><path class="cls-2" d="M271.40537,95.24558c-1.7482.88774-1.19417,3.05398-2.22414,4.45172l-.1183-.93791c-.18481-.20847-.99888.93121-1.40147-.12166-.17245-.45099.40813-.34339.56883-.58571.06249-.09423.91642-2.02667.8327-2.10266-.46254-.25415-2.2414.3048-2.33488.23389-.10643-.08073-.67097-2.19791-.70913-2.57625-1.15254-.10883-.81852,2.19982-.93627,2.34019-1.48256-.11794-1.53337-.75959-1.40455-2.10545-.90084-.25465-.26887,1.17512-.46875,1.40327-1.16741-.62044-.70321,1.3723-1.87141-.46551l1.4051-.47288c-.50174-.83605-1.40457-.90058-.46849-1.86879-1.58077-.09505-4.24097.97947-4.21642-1.40634l-.69726.93507-.46813-1.1686c.16624,1.38834-1.88603,1.17356-2.09207,1.78392-.33747.99967,1.57024,1.4192-.01574,2.19662.23377-1.25137-.58888-.27439-.82954-.69069-.10937-.1892-.4275-2.48969-.34161-2.58832l.93221.23495c.07483-.3203.39729-1.50166.23832-1.64067-.0672-.05877-.54302.08085-.76114-.006-.2229-.08876-.17593-.44129-.33257-.4709-.3994-.07549-1.13499.32817-1.24651.24428-.07218-.0543-.11406-1.05871-.47461-1.29284-.16763-.10885-1.32271-.50659-1.63415-.58401-.07971-.5811.01291-.36897.32599-.48927.91775-.35265,2.29871-.48382,2.24684-1.84985-.19929-.2161-1.56244,1.10932-1.1714-.93636l-.70027.82102-.47059-2.45999c-.56696.0651-.13786,1.1771-.93264.93408l-.23795-2.10789c-.74752.14868-1.05408.61368-.93623-.46563-.48976.19482-.13771,1.19273-.69993,1.53709-.39024.23903-.78181-.12121-1.16917-.13388.14768,1.38168-.15655.75649-.70387.93732l-.0012-.46712h-.93408s0,.4659,0,.4659l.93528.00123c-.5318.1757-.90648.3817-1.63803.23578.22323.54541.58831,3.25758-.34907,3.04201-1.16773-.26854.028-2.78123-.12236-3.51194-.84754.69178-.75951.87555-1.75115.23138l-.12017.70575-.46987-.70182c-.38634-.06224-.26862.62239-.59218.70166-.21357.05233-1.23856-.67416-1.9808-.70282-.04762.28437.0363.63635-.00108.93683-2.48369-.73204-.94138.8003-1.40503,1.4063-.03704.04841-.77965-.45352-1.0538.23177-.28282-.17815-.48672-1.30955-.5873-1.40307-.60724-.56464-.24818,1.09735-.93169.70169l-.00216-.93822c-.90744-.32564-1.06855.86234-1.17413.937-.21852.15453-1.13127-.74437-1.39917-.46835-.12305.12678.25733.99082-.23277.93666l-.00238-1.87224c1.357-.02743,2.73792.07208,4.09337-.00385.87918-.04925,1.78644-.49963,2.69614-.4645.11554-.68998.45963-.40922.60249-.9115.21808-.76674.16998-1.4107-.38546-1.99855-1.91276-2.02436-10.115-.62832-12.93157-1.11602-.64078-.19277-1.70338-2.98038-2.30946-3.77858-1.80054-2.37133-4.80855-2.1789-7.45162-1.56241.00263-2.47084.13093-4.95922-.47774-7.3743-.11323-.44928-.4131-.68339-.45874-.82188-4.6879-14.2227-24.09072-5.63175-19.84836,6.38792.35035.99264,1.10556,1.74497,1.35169,2.74368-2.96705-.39478-5.98196-1.25478-8.43607,1.04625-1.15683,1.08467-1.38501,3.06411-2.97355,3.34851-3.6099.64629-11.32305-.84767-14.24113.5086-.81091.3769-1.18846,1.08943-1.03676,1.98965.25912,1.53769,1.35339,1.69328,2.68229,1.78239,2.63975.177,5.63219-.02407,8.32023-.00958-.15169,1.73647-.36207.88789-1.01488.99954-.33215.05681-.68236.5845-1.01382.61812-.58344.05917-.54839-1.06693-1.24754-.91396-.15635,1.29119-.30213,2.55337-1.87278,1.87298l-.00288,2.10568c-1.48727-.35316-.34093-2.90042-.46945-3.97871-.38353-.04742-.26491.55122-.58312.70116-.58045.27351-.57172-.43038-.74138-.46492-2.01294-.40982-.96645.82368-1.25003,1.16696l-.93287-.2346-.23891,1.17188c-1.96372-.21051-.71187-1.72154-.93491-3.04293-.74688-.22444-.50509,1.21906-1.28997.47051.22353-2.66369-.00443-1.11193-1.28927-1.75499-.63943-.32003-.39313-1.70134-1.8614-2.11821-.90134-.25591-.71851-.03359-.9459.82383-.39192.10443-.13389-.30762-.27122-.43042-1.1234.13179-3.01065-1.43613-.66243-1.44379-1.21136-1.9372,1.10993-.68919,2.3413-.93652-2.5962-2.21866-.19354-1.50676.21549-2.12648.32003-.48487-.25365-.66137-.27311-.70081-.22491-.45602-.33425-1.26303-.64142-.32874-.40303,1.22586-.4242.496-1.15946.94806-.06345.03901-1.02536.97872-1.06458,1.04205-.303.48925.0262,1.40401-.15416,1.60563-.05273.05895-.53305.08004-.78755.2545-.41535.28473-.79082,1.12263-1.52821.60412-.5926-.4167.06787-1.19827.23907-1.05994.06172.04988-.15916.55708.32565.44932.22142-.04922,1.21755-.62101,1.31451-.80566.27162-.51727-.5997-.27408-.67623-.36043-.30642-.34575.65796-1.50129-1.06547-1.17428-.28026.05318.2915,1.07325-1.13337.70872-.16774-.04291-.16583-.38039-.34805-.43812-.39355-.12467-1.47977-.16444-1.64155-.30604-.07244-.06341-.67401-1.93054-1.17888-.24868-.4864,1.62034,1.12072,1.30177,1.33219,1.5014.06763.06385.3298,1.77598.26385,1.84157-.3408-.09663-2.02931-.15966-2.10475-.23411-.08883-.08766.23198-2.08131-.61647-2.32659-.65723-.19-.98216.93472-1.7247.68743l.00011-1.40296c.15846-.16984,2.75032,1.02723,1.2531-.91429-1.26215.25287-2.20334-.43622-3.24732.67597-1.19711,1.27533.4878.8412.59034.9385.09354.08875-.09437,1.00696-.01765,1.27969.07957.28287.64557.05446.71794.12742.5869.59166-1.58094,1.6178-2.10606,1.403.88211-3.85101-.90447-1.55321-3.04353-1.63672l.93422,1.63678c-1.65287.42153-1.2299-1.04047-2.33881-1.40266-.05775.86911.83842,2.28364-.56879,1.8852-.27829-.0788-.16209-.96526-.41608-1.14092-.2147-.14849-.90847.07116-1.12186-.39594-.32759-.71708.71088-.5648.71495-1.16629.00163-.24134-.43099-.78166-.60576-.8198-.41045-.08956-.94636,1.47826-1.98269.93525.56774,1.19894.68526,1.19158-.70191,1.63716-.08623-.29934-.17441-1.51256-.26897-1.60479-.04534-.04422-1.18113-.25547-1.24307-.24233-.35356.07498-.2437.90771-.71022.67497-.40366-.20139-.25963-.9333-.47506-.93824-.44521-.01022-.54855.58291-1.04837.47172-.46739-2.70534-.76826-.21266-1.2927-.00132-.40674.24115-.30474-.45784-.48284-.47159-.19562-.0151-.49783.32251-.80192.14076-.20627-.12329-.35766-.78189-.58882-.83948-.4802-.11964-.89596,1.08534-1.51551.93684-.02555-.49642-.32696-1.67294-.93449-1.16995-.19467.16117.17747,1.62821-1.1742,1.16934l.23405-1.16828c-.52432.29855-2.13414-.68292-2.34077-.46817-.53537.55642.8413.74225.60842,1.41696-.34938,1.01224-1.07782,2.02904-2.24765,1.62485l.46627-2.80762c-.48637-.10695-.60302.46051-1.0502.47552-.12585.00422-.09814-.35118-.2985-.45792-1.41407-.75333-.85837.29264-.99208.44994-.42312.49774-.4793-.91626-.93335-.46907-.04248.04184-.13243,1.08459-.245,1.16724-.17469.12825-1.05382-.29636-1.49969-.23766-.44682.05882-.5951.55684-1.06628.47425l.23249-.93352-1.63698-.00282c-.19848-.67028.49486-.88642.65322-1.33694.47733-1.35798-.7848-1.25263-1.82564-1.23656-.39274,1.41939,1.09525.49796.71427,1.7528-.0497.16369-.41949.08066-.6176.20738-.43182.2762-.16744.58467-1.26543.14522-.1449,1.57459-.2995.55425-.60631.03241-.5094-.86643-.42403-1.11761-.74306-1.8443-.88843-2.02372-.99734,1.45239-1.09504,1.59363-.11265.16286-1.4797.50997-1.53533.45242l.70194-2.10571c-2.06168.05033-3.04192-2.07757-2.81175,1.40297-.95889-.03197-1.12676-.69897-1.28875.47223l-1.04997-.46997c.07988.56302-.2997,2.11105-.75859,1.10753-.55027-1.20333.086-2.88886-1.81698-2.51251-.27544,1.42269,1.38647,1.0804.93393,2.57395-1.96144-.94226-.82218,1.32496-2.3384,1.6389-.05075-.25843.06997-1.10128.00092-1.17114-.13936-.14099-1.08247.32827-.93634-.34635.19294-.46647,1.08926-.28811,1.16039-.36159.12315-.12722-.13374-.94003.04073-1.13467.4226-.47146,1.11852.29725.66876-1.90438-1.8409-.25316-.91071,1.30024-1.15407,2.20814-.02663.09937-1.60523.90123-1.88898.6019-.26999-1.5179.57213-.67506.91341-.95637.06164-.05081.42167-1.31715.46865-1.52759.11589-.51913-.56663-.37385-.79762-.33209-.24997.04519.28884,1.19574-1.28472.47438l-1.174,3.51343c-.74752.19795-.63514-.87198-.70357-.93612-.35923-.33666-2.0073,1.73102-1.63734-1.40377-1.01382.33291-1.79251.04272-2.80773-.002-.23996,2.32849.45427.91685.94489,1.26478.06289.94936,2.52628,2.97932,1.40123,3.78615-.32797.2352-1.3459-.661-.9406.65308.06139.19905.6231.07501.46497.49854-.0292.07822-.73437.78556-.82059.82161-.47213.19742-.33779-.32343-.35334-.5853-.07809-1.31497.56982-2.15032.7093-3.39238l-1.63876-.46903c-.0851.70219-.33449,2.27612-1.28471,2.11413-.10695-.01823-.07355-.405-.29677-.47009-.23078-.06729-.69943.05001-.76053-.00538-.0841-.07623.06798-.79435.01663-1.04161-.05006-.24108-.52635-.03902-.66881-.18017-.16427-.16276-.00366-1.08915-1.23072-.7894-.18861.14546-.64191,2.65984-.6713,3.09105-.02793.40969.27085.84628.23148,1.11124-.02953.19874-.46919.2038-.58871.39021-.2967.46277-.11978,1.76564-1.20122.94556-.22022-.167-1.36626-1.73418-1.26615-1.87783.17185-.24659,1.12409-.25661.69427-1.64797-1.37302-.04541-.76966,1.56146-2.10637,1.17117l.23386.93364c-.16372.14556-2.56063-.7177-2.70098-.92572-.32224-.47758.00823-1.9454-.11007-2.58413l-.69737.93413c.02697-1.26155-1.09719-1.93356-2.10733-2.34033-.01558,1.27593-.12916,2.18208,1.40321,1.87439.12385.11579-.40452,2.9283-.82144,3.27629l-.11713-1.1685-.815.69931-1.05437-.93466c-.01843,1.24745.44454,2.27045-.005,3.51118l-.23263-.93574-.93302.70296c-.04928-.23523.06746-.84741-.0035-.9365-.40028-.50253-.36355.5338-.80007.45903-.80995-.13874-.50084-.87731-.73561-.94313-.18928-.05307-3.26276-.10734-3.38102.01349-.12266.12533.26026.99077-.23045.9377.27654-1.2896-.44458-.77323-.65233-.98688-.11217-.11536.00712-.48383-.10425-.60061-.13627-.14289-.61589.06077-.66736-.18007-.08786-.4111.09445-1.04826.0145-1.50863-.39623-.10768-.11479.45546-.35347.48054-.53351.05607-.90539-.57523-1.38282-.50029-.22801.03579-.16246,1.11209-1.30125.6018-1.28351-.57514-.27119-2.65168-1.05608-3.62642-.7148.83661-.49417,2.35877-1.99261,2.10763-.02869.74997,1.01914.52973.70584,1.63893.07638.12317.79745-.64449.70116.11464-.15949,1.25751-.66294.67323-1.52016.82083-1.41976.24447.0727,1.27443.09952,1.74002.09729,1.68938-1.29051,2.72694-1.39081.36817-1.15042.0842-.20153,1.34618-1.51813,1.42487-1.38548.08281-.88585-.7792-1.05827-.95827-.10452-.10854-.95038.3845-1.15967.23202-.0788-.05741-.17384-.86391-.24627-.93234-.39805-.37606-.52132.45733-.58073.47362-.67918.18616-.69743-.85524-1.5217-.70837-.19323.20996.59777,1.44235-1.18236.82986-.9732-.33485-.75298-1.04263-.99-1.24942-.13613-.11877-.52951.00218-.60258-.06968-.26112-.25676.33265-1.26562-.35654-1.12338-.74401.15355-1.23179.41454-1.09325,1.25607.19065,1.15804,1.96293.15064,1.36297,2.06282-.25182.8026-1.133.73051-1.30663.93103-.1444.16677-.00285.59197-.04801.6406-.16219.17466-2.28095-.53718-1.63873-1.40554-.64195-.21923-.40252.39021-.48455.44365-.59528.3878-.42548-.83883-1.15215-.6757-.35441,1.39339.73391,1.7366.4658,3.04191-.60171.27488-.38533-.46004-.61235-.48279-1.59664-.15996-3.01353.59245-4.07552,1.76647-.62295.68866-.07023,1.28111-1.50042,1.06386-.61663-1.43327.29146-.99683.81909-1.50964.55145-.53596.29447-1.4542,1.62332-1.42097-.17139-.41049-1.33998-.50572-1.40127-.59383-.12883-.18518.2902-.74708.12285-1.15801-.08347-.20496-1.07539-1.1422-1.29387-.94249l-.47381,1.51904.71152.23905-.47663,2.2213-.23224-.9363-.46951,1.17215-.93187-1.17081-.23398,2.57479c.41557-.00387.14142-.91393.69743-.4635.16266.13177-.32911.72826,1.17181.2316.20743.78013-.59279.34835-.70196.46839-.05377.05912.26757.80382.19962,1.22696-.17432,1.08553-.99209.95056-1.72539.41449-1.44315-1.055-.31669-2.33727-.3475-3.74901-.4893-.19738-.9911.52829-1.28048.46923-.3972-.08106-.53128-1.3653-.5942-1.40869-.08825-.06086-1.63781.27881-2.1041.00048-.21862-.76362.80648-.32846.92562-.83454.07029-.29861-.58855-1.25102-.45965-1.74062-.77247-.20331-.30389.76225-.83935.92893-.47741.14861-.99028-.50262-1.3489-.42843-.52522.10866-.82597,1.3237-2.02373-.03185,14.33596-26.63893,34.98466-45.86103,62.98607-57.71699,57.3565-24.28507,125.5817-6.19936,160.32197,45.70032,4.60544,6.88022,8.70032,14.03449,11.98358,21.61791ZM178.63615,33.95276c-8.6108,1.12382-7.66681,15.48529,1.55367,15.36827,10.58545-.13435,8.47684-16.67738-1.55367-15.36827ZM124.37737,50.04952c-5.21784-16.97694-30.0323-11.50079-29.27426,5.04484.11017,2.40477.95376,4.85518,1.64693,7.13098-3.92682-1.04728-7.93366-1.47223-10.65711,2.10329-.58664.77018-.75828,1.66216-1.43655,2.30993-4.65974.49193-9.34706.10459-14.01943.26201-1.50791.0508-4.26684.05043-5.59497.25812-.63521.09933-2.72877,1.22244-2.66864,1.93218.04406.52007,1.5019,2.55488,2.17168,2.51734,15.85471.24929,31.71909.35222,47.52986-.25978,15.58427-.80389,32.3112,1.42868,47.76893.24242,2.04666-.15707,5.17687-.84068,2.46788-3.16516-2.59747-2.2288-9.96813-1.3036-13.22488-1.27162-3.03447.0298-6.0747-.01408-9.10838-.04166-.98367-1.90012-1.54414-3.91377-3.07318-5.59062-3.63171-3.98277-8.19273-3.1908-12.29373-.46597-.6813.13361-.49993-.36366-.46405-.80702.37803-4.67092,1.86306-4.88567.22993-10.19928ZM79.07496,81.66335v.23418c.15203-.07806.15203-.15612,0-.23418ZM74.86078,81.89752v.23418c.15203-.07806.15203-.15612,0-.23418ZM255.02118,84.00349c-.07452-.06496-.07686-.71163-.47023-.70087.33265,1.49659-1.02461,1.02874-1.1745,1.17156-.0829.07898.07691,1.0833.21419,1.26671.19118.25542.66951.01079.73948.26898.07613.28094-.11113,1.18023-.01678,1.27487.04968.04984,1.3583.05101,1.40723.00045.10849-.11211-.27089-2.40236,1.63792-2.11155.24476-.27648-.74938-1.74837-1.05503-1.87005-.15611-.06215-.43144,1.37407-.70124.23023-.14374-.03298-.09724.89142-.58104.46969ZM258.05935,87.98545c-.48333-.62495-.83501,1.64886-.6988,1.87295.44974-.12025.41451-1.13769,1.17485-.5915.63545.45648-.28379,2.10647-.00519,2.46735.04009.05193.76349-.40253,1.16675.23284l-.22957-1.87318c1.96785.61452-.60476-1.24202-.47279-2.10819-.80925-.17384-.43605.82967-.93174.93595-.05022-.23586.0696-.84172-.0035-.93623Z"/><path class="cls-2" d="M36.11375,85.64435c1.19776,1.35555,1.49851.14051,2.02373.03185.35862-.07419.87149.57704,1.3489.42843.53546-.16668.06689-1.13223.83935-.92893-.12889.4896.52995,1.44202.45965,1.74062-.11914.50608-1.14424.07092-.92562.83454.46629.27833,2.01585-.06134,2.1041-.00048.06292.0434.197,1.32763.5942,1.40869.28938.05906.79118-.66661,1.28048-.46923.03081,1.41174-1.09565,2.69401.3475,3.74901.73331.53607,1.55108.67105,1.72539-.41449.06795-.42314-.2534-1.16784-.19962-1.22696.10918-.12003.9094.31174.70196-.46839-1.50091.49667-1.00915-.09983-1.17181-.2316-.55601-.45043-.28186.45963-.69743.4635l.23398-2.57479.93187,1.17081.46951-1.17215.23224.9363.47663-2.2213-.71152-.23905.47381-1.51904c.21848-.19972,1.2104.73753,1.29387.94249.16735.41093-.25167.97283-.12285,1.15801.06129.0881,1.22988.18334,1.40127.59383-1.32885-.03323-1.07187.88501-1.62332,1.42097-.52763.51281-1.43572.07637-.81909,1.50964,1.43019.21725.87747-.3752,1.50042-1.06386,1.062-1.17402,2.47888-1.92643,4.07552-1.76647.22702.02274.01064.75766.61235.48279.26812-1.30532-.82021-1.64853-.4658-3.04191.72667-.16313.55688,1.06351,1.15215.6757.08203-.05344-.1574-.66288.48455-.44365-.64222.86836,1.47654,1.5802,1.63873,1.40554.04516-.04863-.0964-.47384.04801-.6406.17363-.20052,1.05481-.12843,1.30663-.93103.59996-1.91218-1.17232-.90478-1.36297-2.06282-.13854-.84152.34924-1.10252,1.09325-1.25607.6892-.14224.09543.86662.35654,1.12338.07307.07185.46645-.04909.60258.06968.23702.20678.0168.91457.99,1.24942,1.78012.61249.98912-.61991,1.18236-.82986.82427-.14687.84252.89453,1.5217.70837.05941-.01628.18268-.84968.58073-.47362.07243.06843.16747.87493.24627.93234.20929.15249,1.05515-.34056,1.15967-.23202.17242.17907-.32721,1.04108,1.05827.95827,1.31661-.07869.36771-1.34068,1.51813-1.42487.10029,2.35877,1.4881,1.32121,1.39081-.36817-.02681-.46559-1.51927-1.49555-.09952-1.74002.85722-.14761,1.36067.43668,1.52016-.82083.09628-.75914-.62478.00853-.70116-.11464.3133-1.1092-.73453-.88896-.70584-1.63893,1.49844.25114,1.27781-1.27102,1.99261-2.10763.78489.97473-.22743,3.05128,1.05608,3.62642,1.13879.51029,1.07324-.56601,1.30125-.6018.47743-.07494.84931.55635,1.38282.50029.23868-.02508-.04276-.58822.35347-.48054.07996.46036-.10236,1.09753-.0145,1.50863.05147.24084.53109.03718.66736.18007.11137.11678-.00793.48525.10425.60061.20774.21365.92887-.30272.65233.98688.49072.05307.1078-.81237.23045-.9377.11826-.12083,3.19174-.06656,3.38102-.01349.23476.06582-.07435.80439.73561.94313.43652.07477.39979-.96156.80007-.45903.07097.08909-.04578.70127.0035.9365l.93302-.70296.23263.93574c.44954-1.24073-.01343-2.26373.005-3.51118l1.05437.93466.815-.69931.11713,1.1685c.41693-.34799.9453-3.16049.82144-3.27629-1.53237.3077-1.4188-.59846-1.40321-1.87439,1.01014.40677,2.13429,1.07878,2.10733,2.34033l.69737-.93413c.1183.63874-.21217,2.10655.11007,2.58413.14035.20801,2.53726,1.07127,2.70098.92572l-.23386-.93364c1.33671.39029.73334-1.21659,2.10637-1.17117.42981,1.39136-.52242,1.40138-.69427,1.64797-.10011.14365,1.04593,1.71083,1.26615,1.87783,1.08144.82009.90452-.48279,1.20122-.94556.11952-.18641.55918-.19147.58871-.39021.03937-.26496-.25941-.70155-.23148-1.11124.0294-.43121.4827-2.94559.6713-3.09105,1.22706-.29975,1.06645.62663,1.23072.7894.14246.14115.61875-.06091.66881.18017.05134.24726-.10073.96538-.01663,1.04161.0611.05539.52975-.06191.76053.00538.22322.06509.18982.45186.29677.47009.95022.16199,1.19961-1.41194,1.28471-2.11413l1.63876.46903c-.13948,1.24206-.78739,2.0774-.7093,3.39238.01555.26187-.11879.78272.35334.5853.08622-.03605.79138-.7434.82059-.82161.15813-.42352-.40358-.29948-.46497-.49854-.4053-1.31408.61263-.41788.9406-.65308,1.12505-.80683-1.33834-2.83679-1.40123-3.78615-.49062-.34793-1.18485,1.06371-.94489-1.26478,1.01522.04472,1.79392.33491,2.80773.002-.36995,3.13478,1.27812,1.06711,1.63734,1.40377.06843.06414-.04394,1.13407.70357.93612l1.174-3.51343c1.57356.72136,1.03475-.42919,1.28472-.47438.231-.04176.91351-.18705.79762.33209-.04698.21044-.40701,1.47678-.46865,1.52759-.34128.28131-1.1834-.56153-.91341.95637.28376.29934,1.86235-.50253,1.88898-.6019.24336-.9079-.68683-2.4613,1.15407-2.20814.44975,2.20163-.24616,1.43291-.66876,1.90438-.17447.19464.08242,1.00745-.04073,1.13467-.07113.07348-.96745-.10488-1.16039.36159-.14613.67462.79698.20536.93634.34635.06905.06986-.05167.91271-.00092,1.17114,1.51622-.31394.37696-2.58116,2.3384-1.6389.45255-1.49355-1.20936-1.15126-.93393-2.57395,1.90299-.37635,1.26672,1.30919,1.81698,2.51251.4589,1.00351.83848-.54451.75859-1.10753l1.04997.46997c.16199-1.1712.32986-.5042,1.28875-.47223-.23017-3.48053.75007-1.35264,2.81175-1.40297l-.70194,2.10571c.05563.05755,1.42268-.28956,1.53533-.45242.0977-.14124.20661-3.61735,1.09504-1.59363.31902.72669.23366.97787.74306,1.8443.30681.52184.46141,1.54218.60631-.03241,1.09799.43945.83361.13098,1.26543-.14522.19811-.12672.5679-.04369.6176-.20738.38098-1.25483-1.10702-.3334-.71427-1.7528,1.04084-.01607,2.30296-.12141,1.82564,1.23656-.15836.45053-.8517.66666-.65322,1.33694l1.63698.00282-.23249.93352c.47119.08259.61946-.41542,1.06628-.47425.44587-.0587,1.325.36591,1.49969.23766.11257-.08265.20252-1.1254.245-1.16724.45405-.44719.51023.96681.93335.46907.13371-.1573-.42199-1.20327.99208-.44994.20036.10674.17265.46214.2985.45792.44718-.01501.56383-.58247,1.0502-.47552l-.46627,2.80762c1.16983.40419,1.89827-.61261,2.24765-1.62485.23288-.67471-1.14379-.86054-.60842-1.41696.20663-.21475,1.81644.76672,2.34077.46817l-.23405,1.16828c1.35168.45887.97953-1.00817,1.1742-1.16934.60754-.50298.90894.67353.93449,1.16995.61955.1485,1.03531-1.05648,1.51551-.93684.23115.05759.38254.71619.58882.83948.30409.18175.60631-.15585.80192-.14076.17811.01375.07611.71274.48284.47159.52445-.21135.82531-2.70402,1.2927.00132.49983.11119.60316-.48194,1.04837-.47172.21543.00495.0714.73685.47506.93824.46652.23275.35666-.59999.71022-.67497.06195-.01314,1.19773.19812,1.24307.24233.09456.09222.18274,1.30544.26897,1.60479,1.38717-.44558,1.26965-.43822.70191-1.63716,1.03633.54301,1.57224-1.0248,1.98269-.93525.17477.03813.60739.57846.60576.8198-.00407.60149-1.04254.44921-.71495,1.16629.21339.4671.90715.24745,1.12186.39594.25399.17566.13778,1.06212.41608,1.14092,1.4072.39844.51104-1.01609.56879-1.8852,1.1089.36218.68593,1.82419,2.33881,1.40266l-.93422-1.63678c2.13906.08351,3.92564-2.2143,3.04353,1.63672.52512.2148,2.69296-.81135,2.10606-1.403-.07237-.07296-.63837.15545-.71794-.12742-.07672-.27273.11118-1.19094.01765-1.27969-.10254-.09729-1.78745.33683-.59034-.9385,1.04398-1.11219,1.98517-.4231,3.24732-.67597,1.49722,1.94152-1.09464.74445-1.2531.91429l-.00011,1.40296c.74254.24729,1.06747-.87743,1.7247-.68743.84844.24528.52763,2.23892.61647,2.32659.07544.07445,1.76395.13748,2.10475.23411.06594-.06559-.19622-1.77772-.26385-1.84157-.21147-.19963-1.81859.11894-1.33219-1.5014.50487-1.68186,1.10644.18527,1.17888.24868.16178.14161,1.248.18137,1.64155.30604.18222.05772.18031.39521.34805.43812,1.42487.36453.8531-.65554,1.13337-.70872,1.72343-.32701.75905.82853,1.06547,1.17428.07653.08635.94785-.15684.67623.36043-.09696.18465-1.09309.75644-1.31451.80566-.48481.10777-.26393-.39944-.32565-.44932-.1712-.13833-.83167.64324-.23907,1.05994.7374.51852,1.11286-.31938,1.52821-.60412.2545-.17447.73482-.19555.78755-.2545.18035-.20162-.14885-1.11639.15416-1.60563.03922-.06333,1.00113-1.00304,1.06458-1.04205.73526-.45206.75643.2778,1.15946-.94806.30717-.93428.41651-.12727.64142.32874.01945.03944.59314.21594.27311.70081-.40904.61972-2.8117-.09219-.21549,2.12648-1.23137.24734-3.55265-1.00068-2.3413.93652-2.34822.00766-.46097,1.57559.66243,1.44379.13733.1228-.1207.53485.27122.43042.22739-.85741.04455-1.07974.9459-.82383,1.46826.41688,1.22197,1.79818,1.8614,2.11821,1.28484.64306,1.5128-.9087,1.28927,1.75499.78488.74855.54308-.69495,1.28997-.47051.22304,1.32139-1.02881,2.83241.93491,3.04293l.23891-1.17188.93287.2346c.28359-.34328-.7629-1.57678,1.25003-1.16696.16966.03454.16093.73843.74138.46492.3182-.14994.19959-.74858.58312-.70116.12851,1.07829-1.01783,3.62555.46945,3.97871l.00288-2.10568c1.57064.6804,1.71642-.58179,1.87278-1.87298.69915-.15297.66411.97313,1.24754.91396.33146-.03362.68167-.56132,1.01382-.61812.65281-.11165.86318.73693,1.01488-.99954,2.87311.01549,5.86914.00785,8.66248,0-.27134,1.66336.76701.54127,1.75994.46254,1.14818-.09105,2.07711.15011,2.22295,1.41032,1.6754-1.87579,3.56542-1.31864,5.73363-1.21661.29739.01399,1.12773-.3341,1.28393-.18489.04217.04028-.05949,1.306.47062.70159.10687-.12185-.22675-.77859.23235-.70316l.3538,1.64017.11586-1.64281c1.35496.0399,1.86561-.45118,1.64239,1.17204.40331-.00167.38416-.59615.46891-.70073.20501-.25299.29529.98804.6982.4666.07235-.09364-.04658-.70018.00351-.93668l.46728,1.17235.46921-.93828c.78033.5676,1.10051-.09238.93518,1.17245.89837.25745.27496-1.21588.46599-1.40775.14668-.14732,2.71453-.23791,2.46184.93954l.3512-.9372c.43253-.0206.08387,1.26867.69924.70157.12026-.11083-.31245-.9081.46776-.70149l.11829,1.4062.11938-.93901.93293.70129.00228-1.17031c.70934-.08296,1.2852.17402,1.75668.70311.69658-1.62456.72239,1.17736.93696,1.17324.66097-.22375,1.75403-1.75659,2.34361-1.87192.84139-.16458,2.02764.10694,2.92099-.00221l-.23203,1.40229c.59759.27256.39451-.44949.60662-.48362.37758-.06075.69614.13733,1.0288.25176-.34631-1.34399.86393-.76779.93864-1.64038.15588.0043.31234-.00398.46824,0-.13013.7159.3597.44354.80898.46829,1.10875.06109,3.8007.03921,4.64964.23931.19295.04548.07901.46861.50383.49062.81758.04235,1.2104-.47029,1.76354-.96405.38993-.00105.78088.00788,1.17061,0l.00238,1.87224c.4901.05416.10972-.80988.23277-.93666.26789-.27602,1.18065.62289,1.39917.46835.10558-.07466.26669-1.26264,1.17413-.937l.00216.93822c.68351.39566.32446-1.26633.93169-.70169.10058.09352.30448,1.22492.5873,1.40307.27415-.68529,1.01677-.18336,1.0538-.23177.46365-.606-1.07867-2.13834,1.40503-1.4063.03738-.30048-.04654-.65246.00108-.93683.74224.02867,1.76722.75515,1.9808.70282.32356-.07927.20583-.76391.59218-.70166l.46987.70182.12017-.70575c.99164.64416.90361.4604,1.75115-.23138.15036.73072-1.04537,3.2434.12236,3.51194.93738.21557.5723-2.4966.34907-3.04201.73156.14592,1.10623-.06008,1.63803-.23578l-.93528-.00123v-.4659h.93408s.0012.46713.0012.46713c.54732-.18083.85155.44437.70387-.93732.38736.01267.77893.3729,1.16917.13388.56222-.34436.21017-1.34227.69993-1.53709-.11786,1.07931.18871.6143.93623.46563l.23795,2.10789c.79478.24302.36568-.86898.93264-.93408l.47059,2.45999.70027-.82102c-.39104,2.04569.97211.72026,1.1714.93636.05188,1.36603-1.32908,1.4972-2.24684,1.84985-.31308.1203-.4057-.09183-.32599.48927.31144.07741,1.46652.47515,1.63415.58401.36055.23413.40243,1.23855.47461,1.29284.11152.08389.84711-.31977,1.24651-.24428.15665.02961.10968.38215.33257.4709.21812.08685.69394-.05277.76114.006.15896.13901-.16349,1.32037-.23832,1.64067l-.93221-.23495c-.08589.09864.23224,2.39913.34161,2.58832.24065.4163,1.0633-.56068.82954.69069,1.58598-.77741-.32173-1.19695.01574-2.19662.20605-.61036,2.25831-.39558,2.09207-1.78392l.46813,1.1686.69726-.93507c-.02455,2.38582,2.63565,1.3113,4.21642,1.40634-.93608.96821-.03325,1.03273.46849,1.86879l-1.4051.47288c1.1682,1.83781.704-.15494,1.87141.46551.19988-.22815-.43208-1.65791.46875-1.40327-.12881,1.34586-.07801,1.9875,1.40455,2.10545.11775-.14037-.21626-2.44902.93627-2.34019.03816.37834.60269,2.49552.70913,2.57625.09349.07091,1.87234-.48803,2.33488-.23389.08372.07599-.77021,2.00843-.8327,2.10266-.1607.24232-.74127.13472-.56883.58571.40259,1.05287,1.21666-.0868,1.40147.12166l.1183.93791c1.02997-1.39774.47594-3.56398,2.22414-4.45172,5.03075,11.61962,8.15822,22.74932,9.83308,35.36065-1.05925.25414-.63514-.82401-.98591-1.47369-.43512-.80592-2.07773-1.44676-2.99411-1.33869.31946-1.11095.26579-1.60632,1.63769-1.40397.17767-.93184-1.54214-.64055-1.64817-1.08937-.05029-.21286-.06956-2.113.0091-2.1891.07417-.07175.91154.05308,1.17259.00012.29401-2.07525-1.46885-1.52882-2.11743-1.97974-.34563-.2403-.2507-1.43947-.67565-1.90013-.36354-.39409-1.21165-.3503-1.65366-.80433l-.00309.7061-1.17696-.36203c-.45648.65179-.49685,1.46833-.4633,2.23359-1.24546-1.18372-1.02056.40638-1.29074.48061-1.43189.39339-.89773-1.23941-1.0964-1.95447-.22286-.80212-1.71698-1.2556-2.18165-.62873-.07386.09964-.21936,1.27852-.8128.69956-.12459-.12155.25718-.99128-.23262-.93753l-.00403,2.80817c-1.45496-.54889-.57295.0635-1.28718.9363-.3208-2.27922-.76663.00996-.93532.00355.08917-1.30528-.7226-.60731-.82383-1.40446l-.4668.932c-.38389.10108-.16214-.33265-.2698-.40903-.90726-.64364-1.01751,1.547-.62745,1.78102,1.24753.74845.54998-1.17856,1.60138-1.13486-.05382.45996-.52114,2.62677-.70451,2.8083-.57757.57178-.42051-.82877-.48777-.91244-.11454-.14247-1.54711-.21031-1.60319-.26916-.72544-.76133,1.91334-3.26211.2143-4.08119-1.28394-.61897-1.30279,1.24776-1.63433,2.21887l-.93108-.70171c-.21739.87364-.06191,1.0714-.93768.70249.42682,1.22393-.79385,1.30011-.93962,1.98867-.3212,1.51723.65966.90445.71493,1.17445.15416.75306-.67628,1.95728-1.30198,2.22039-.47637.20032-.33082-.3234-.34838-.57868-.02685-.39056.10035-1.58129-.03402-1.72929-.07047-.07763-.54891-.05797-.79375-.24916-.50733-.39615-.47824-1.48912-1.27777-1.42077.64729,1.13156-2.63238,2.91704-.77225,3.46363,1.66269.48858,2.12518-.71786,2.64307,2.15407-.48758.2411-2.68274-.30901-2.79615-.22645-.08987.06542-.17687.87277-.25726.92503-.80241.52168-.63636-.5405-.7289-.64455-.08596-.09665-1.92491-.45578-2.30039-.75483-.10429.88631-.4871,1.30145-1.40816,1.17288.62748.875,1.89581.60019,1.27901,2.09655-.07251.17591-1.65478,2.15875-1.86527,2.34957-4.38584,3.97597-8.24992-.25408-12.39958-1.64621-2.14853-.72079-4.50594-.9771-6.67861-1.63428l8.27149-4.01613c4.34889-2.98206,6.01613-8.04677,5.77192-13.19055-.04629-.97501-1.12565-6.40048-.93201-6.67633,1.65936,1.07686,3.3554.50549,5.14765.2325-.82071-2.06343-2.94451-3.31906-4.57075-4.67469-.39349-.32802-.74997-1.0501-.97693-1.19094-.92415-.57349-3.71543-.84129-4.99461-1.50223-.51207-.26458-.71471-.78839-.86071-.82907-.73748-.20547-2.44406.28514-3.4721.24549-.79091-.0305-1.94369-.49119-2.54859-.4797-.14619.00278-.1136.47767-.57705.60537-.60896.16779-1.21188.01154-1.75757.1239-2.55828.5268-4.24822,1.28214-6.44393,2.68739-4.47281,2.8626-7.79847,6.69067-9.15006,11.92365l-.46996,8.31274c-.43468.08519-.07577-.40681-.35117-.46886-.62155-.14004-.09627.48614-.58057.46882l-.12398-.70473c-.98992.66616-.4286-1.05198-1.51493.00344.22017-1.21521-.27664-.78082-.50785-.95662-.29437-.22382-.18294-.42748-.20201-.44259-.65349-.51777-.21265,1.06825-.93007.69545l-.00361-1.63684c-.46666-.03677-.2818.91308-.60105.94254-.71065.06557-3.14447-1.24332-2.67663-2.34761-.4743-.08187-.03489.65657-.35662.71586-1.38621.25548-1.10343-1.27777-2.68297-.48367l-.00395-1.87253c-.85673.09781.07225,1.62152-.35221,1.64277-1.81677-.25249-3.56516-.95022-5.38525-1.17066-1.0028-.12145-2.67973-.20818-3.7308-.24747-.48674-.0182-.97746.31709-1.62718.24001-1.07734-.12781-4.18618-2.65518-4.9227-3.52583-.62348-.73703-.99022-2.11691-1.65435-2.79461-1.90589-1.94481-7.42233-5.75042-9.8778-7.44892-7.66521-5.30217-18.16629-9.06256-27.52368-7.24369-5.41676,1.0529-10.77073,4.32092-15.56897,6.93397l-.9932-.43602c.04005.49016-.16473.7278-.45487,1.06977-.65958.77741-3.1369,2.57247-4.1188,3.37361-2.94473,2.40261-6.09301,4.51407-9.11797,6.80387-.93104.70477-1.82257,1.97215-3.07649,2.31234-.46099.12507-.26157-.06088-.34781-.30009-.17366-.48167-.36576-2.17337-.44712-2.25452-.1434-.14304-1.24628.37581-1.40211.23596-.06257-.05615-.12837-1.36373-.34628-1.64561-.33334-.43119-1.15931-.11596-1.28392-.2389-.08589-.08474.10815-.82121-.22715-1.06043-.34997-.24969-3.18966-.12124-3.48918.18929-.18745.19434.24526.83277-.50649.6462.23644-1.26147-.35202-2.27521-1.72046-1.83701-1.0142.32477.30505.97299.31126,1.48005.00143.11682-.42814,1.24174-.48369,1.28181-.22572.16281-.75975-.2335-1.01795-.22914-.15208.00256-.01739.43394-.46828.4961-.72313.09969-2.57055-.30176-2.67879-.22208-.08788.06469-.08852.47967-.55512.72966-.28196.15107-1.91046.5307-2.04541.40263-.12965-.12304.27606-.94126-.47087-.69617-.10621,1.36556-1.87076.99022-2.4758,2.56174-.64283,1.66968,1.7638.03313,2.23505-.10655.84848-.25149,5.94764-.56992,5.62264.70409-.82195.28801-1.32979,1.41187-1.8108,1.76636-1.90654,1.40508-7.99803,2.94193-10.75406,4.40213-3.81288,2.02014-6.99485,5.58886-10.60292,7.42616-3.99121,2.0324-13.03708,4.01853-17.4479,3.61576-.62954-.05749-2.48258-.23232-1.96412-1.13793,3.95826-2.37291,8.09897-4.46095,11.67943-7.40213,1.12192-.9216,2.24508-2.22967,3.39842-3.15771,6.2371-5.0187,13.16362-6.58108,13.91945-16.05184.19543-2.4488-.28045-4.54331-.46332-6.90377.67207-.18903,1.09916.51471,1.57665.64624,1.30078.35833,2.36628-.6112,3.57232-.88462-8.09415-15.09092-31.66099-8.78018-34.35647,7.2047-.34006,2.01663-.57485,6.41556-.30378,8.38243.17527,1.27175,2.63128,3.69325-.81268,3.40798-.48552-.04022-.9974-.52236-1.04281-.48701-.02096.01632.06396.40754-.15863.46571-1.24532.32539-3.55674.25715-4.75971,1.06061-.33187.22165-.37919.64826-.5357.74808-.23535.15011-.63555.06717-1.12387.39759-1.05729.71543-4.19827,5.35244-4.19827,6.57334v4.33227c-1.31634.02677-.91484-1.67147-2.57399-.93775-.16002-1.27273.05529-1.35704.78071-2.0871.62185-.62583-.84574-.47104-1.13434-1.18969-.15529.78921-.62682.03877-1.28442.46756-.13264-.16497.77622-2.25257-.22983-3.41055-.2319-.26692-.68077-.31031-.70714-.34054-.45154-.5174.58389-.35329.46548-.69568-.54736-.05587-1.62705.01789-1.83401.6217-.59343,1.73132,1.35708,1.48593,1.36823,2.29281.00755.54632-.90734,1.78614-.94077,2.46736-.40694.05592-.22073-.53295-.23113-.81538-.02439-.66279.01933-1.33202-.00238-1.99292-.89749,1.11275-1.85201.63679-2.39633-.5288-.25965-.55601-.13604-1.96222-.76099-.64286l-.47179-.70334c-.57099-.17567-.37305.79854-.2994,1.00605.25509.71866,1.54842,1.06844,1.35427,2.03863l-.93271-.46696c-.1172.40055-.6077,2.70486-.70716,2.81021-.48542.5142-.80994-1.51697-.93794-1.63857-.67898-.64505-.39604,1.32395-.46575,1.40288l-.93305-.46836c.28332,1.40063-1.58398.51218-.93783-.46538l-1.40399.23158c-.43911-1.60443,1.12133-.65726,1.40433-.93477.27579-.27044-.71867-2.8044,1.16825-2.34525-.07349-.41477-.77955-.37735-1.15119-.60156-.28633-.17274-.48261-.45817-.71964-.68516l.70133-.58202c-1.16553-.15861-1.34289.01656-1.40705,1.16876l-.58179-.70169c-1.26897.35949-.76777,3.92329-1.05348,4.21554-.08324.08515-1.08921-.09052-1.17216-.00115-.06605.07117.10462.61254-.0501.88204-.03166.05514-.96145.67657-1.05514.70954-1.01117.3558-.55784-.54385-1.11752-.42437-.10168.02171-.36044,1.3684-.70342-.23313-.10655,1.52685-.32911.68122-1.52179.7049,2.27884-15.09541,7.34003-29.28674,14.5155-42.62012ZM69.47599,80.25829v.23418c.15203-.07806.15203-.15612,0-.23418ZM181.71401,86.13654c-.16587-.1404-1.05362.03794-1.38116-.02264-.08444.70526.79409,1.93239.41824,2.52932-.43955.69809-.47633-.32782-.46508,1.33514.00166.24533-.25552.75502-.18715.81624.8153.73,1.12694-1.63006.937-2.10476l1.16814.70019c.1382-.15798-.36444-3.14722-.48999-3.25349ZM93.70521,93.37201l-.46891-.7006c-.3037-.06097-.25576.09191-.23696.35073.07098.97717,1.04629,1.55454.71052,2.69066l.58182-.93442.81824,1.40384.00105-2.57477-.93297.23289-.00345-1.16949-.46932.70116ZM26.51474,125.92505l-.93523-.00111-.00002.4659c.43667.06051.81.0008.93524-.46478Z"/><path class="cls-3" d="M272.57598,195.94148c-2.41714,5.76298-5.33186,11.26757-8.42836,16.62653l-42.73016.93364c-.43258.90319-1.07643,1.89648-1.07112,2.93232.00774,1.5099,1.5597,2.25703,1.19008,3.8634,8.84437-.21969,17.7412.28471,26.58357.00813,3.26149-.10201,6.55908-.51023,9.81322-.72174.36369-.02364,1.74054-.26625,1.53199.4779-1.60017,2.43003-2.40085,3.5534-4.21418,5.85441-1.15563-.12239-2.47605-.4168-3.61911-.47812-12.69188-.68091-26.09133.28337-38.85496-.20549l-1.88885.45028-.00689.47137c1.63109.82581,8.55714,3.45599,8.99055,5.07412.30005,1.12025-2.58624,1.2075-3.35646,1.2561-3.88868.24538-7.86016-.22733-11.7077-.25515-22.04129-.15933-44.0188-.48346-66.04144-.23418-14.26083.16142-28.5868-.13657-42.82484.25349-1.67696.04594-3.36711-.05246-5.04209-.0109-.85388-.78145,5.76415-4.92382,6.09802-5.48873.34919-.59081.4088-1.17021-.36364-1.30073-15.04664-.68244-30.13037.13242-45.19337-.00886l-3.38632.71097c-1.85654-2.37919-3.72519-4.82019-5.15066-7.49365,1.98808.97774,5.81626,1.31258,8.06753,1.41471,7.36885.3343,15.05749-1.27899,22.47561-.23417,5.01265-.74061,11.87175.96798,16.61827.21054.96043-.15326,2.77102-1.06561,3.86758-1.28339,1.23705-.95488,1.78113-2.44718,2.58548-3.73667l1.87107-1.52055c-1.31281.12646-2.57013-.39977-3.85282-.47973-13.96322-.87047-29.3995.169-43.56669.02019-3.35442-.03523-6.91907-.59215-10.29503-.24609-.596.0611-.97679.15525-1.28281.70328-3.45758-5.45122-6.57371-11.38815-9.13072-17.32906l242.31526-.23418ZM162.94187,202.56542c-.3248-.27272-2.5018-.5105-3.08537-.54516-4.86356-.28886-12.02681-.33078-16.8641.01221-1.36306.09665-3.68438.20527-4.04909,1.8025-.80116,3.50864,2.87752,4.33298,5.4392,3.10059l17.55803-.00105c1.32033-.20902,1.80725-1.60326,1.96026-2.75228.09741-.73144-.24588-.41278-.41863-.68731-.16258-.25837-.37652-.79199-.5403-.92951ZM53.90812,202.96778c-.04052,1.29074-.8002,2.92927.82285,3.50646l8.64427-.24262c1.20245-.08876,1.76285-1.51041,1.08447-2.46348-.98589-1.3851-8.73901-1.00541-10.55158-.80036ZM249.86665,203.43622c-1.59394.06391-3.21556-.08713-4.80953-.01073-.67299.03226-3.43106.2344-3.80395.39948-.47517.21036-.78141,2.27562-.98501,2.88708,1.39079.18121,2.74567-.40571,4.08629-.47487,2.79295-.14407,5.37244,1.52389,5.51221-2.80097ZM223.32847,204.68873c-1.15535-1.10298-3.17963-.8252-4.71501-.78285-4.55781.12571-9.24672.39544-13.80587.47562-4.21353.0741-9.85556-.50541-13.83211-.01978-1.32251.16151-2.3476,1.7452-1.80344,2.99443,1.18468,2.71967,6.10739,1.48036,8.35849,1.45539,2.82833-.03137,5.64671.01358,8.4283.0001,5.46922-.0265,10.93916.03129,16.40854.01992,2.17095-.46318,2.46946-2.70282.9611-4.14282ZM114.94343,208.05206c.68206-.82748.50921-4.14881-1.2147-3.91827l-33.48712.00382c-2.67394.56738-1.97486,4.60548.7011,4.92296,9.89106-.59269,20.66293.77108,30.44928.00312.78096-.06128,3.09528-.45821,3.55144-1.01163ZM234.38103,204.4054c-1.06698-.42263-3.36119-.59309-3.19679.95464.4521,4.25614,3.99829,2.58446,3.19679-.95464ZM71.46675,204.60529c-4.4997-.87697-2.72334,4.77331-.45794,2.46939.62659-.63725.44845-1.65144.45794-2.46939ZM146.57094,219.89887c-3.82297.25445-7.45726,2.41222-2.39525,4.83122l22.22126.00996c2.30531-1.1236,2.30145-3.30613.10323-4.54233-1.97319-1.10965-11.52491.24874-14.62324.10776-1.77514-.08077-3.47772-.52831-5.306-.40662ZM109.9427,224.19626c.71281.70706,2.82149.68933,3.79358.56048,2.18439-.28956,1.35806-4.25173.223-4.46134-.83321-.15386-3.32254-.08284-3.9884.46086-1.04421.85262-.94508,2.53049-.02818,3.44Z"/><path class="cls-4" d="M48.05392,226.15025l3.38632-.71097c15.06301.14127,30.14673-.67359,45.19337.00886.77244.13052.71282.70992.36364,1.30073-.33388.56491-6.9519,4.70728-6.09802,5.48873,1.67498-.04156,3.36513.05684,5.04209.0109,14.23804-.39007,28.56401-.09207,42.82484-.25349,22.02264-.24928,44.00015.07485,66.04144.23418,3.84755.02781,7.81902.50052,11.7077.25515.77022-.0486,3.65651-.13585,3.35646-1.2561-.43341-1.61813-7.35946-4.2483-8.99055-5.07412l.00689-.47137,1.88885-.45028c12.76363.48887,26.16308-.47542,38.85496.20549,1.14307.06133,2.46349.35573,3.61911.47812-1.48861,1.88896-3.01157,4.28937-4.66959,5.98338-.4374.44689-.99145.5003-1.12175.6337-.14039.14373-.18619.79791-.52766,1.2311-1.68553,2.13827-5.04533,5.3216-7.14931,7.13276-48.33129,41.60473-111.08584,46.34424-165.1462,12.04662-9.8369-6.24084-21.40304-17.59268-28.58259-26.79338ZM126.29501,238.60829c-.08462.05014-.91984,1.4961-.99251,1.69869-.81726,2.27837,1.95997,3.39407,3.28947,1.41786,1.27419-1.89401-1.31494-3.69841-2.29695-3.11655ZM115.63988,239.1176c-1.26563-.03688-2.74484.53435-4.01383.62316-9.32129.65235-19.20258-.71141-28.58346-.25487-2.37796.31738-2.13999,4.08445,1.18242,4.46257,2.46782.28086,6.37852-.26736,9.14098-.24463,3.42606.02819,7.18652-.13687,10.53963.00304,1.39285.05812,2.93509.49803,4.19919.49546,1.19857-.00243,2.1824-.53509,3.52059-.50221,2.21321.05438,3.44456,1.27684,5.61099-.45527,2.12143-1.69614,1.06271-4.04975-1.59651-4.12725ZM206.59386,240.23978c-.19281.31488-.05007,2.23855.13806,2.7101.81983,2.05497,6.01414.99351,7.91126.98758,2.2305-.00697,5.14308.8747,7.21354-.49022,1.2372-.8156.83542-3.66156-.91835-3.935-.88903-.13861-2.98359-.24343-3.95508-.25939-2.23822-.03678-5.78845.02662-7.96837.24828-.41634.04234-2.27859.50597-2.42106.73864ZM160.61797,240.26975c-.65493.04742-3.33847.26413-3.70184.51246-.07908.05404-.84899,1.58714-.87978,1.70186-.76891,2.86447,3.05633,2.99843,4.9712,3.1126,3.02392.1803,5.83763-.48957,8.66124-.48685,3.11144.003,6.32232.80298,9.6073.47441,3.02789-.30286,3.92534-3.00565,1.30471-4.34397-2.2375-1.14266-4.31227-.27582-6.4527-.33697-4.509-.12882-8.96758-.9624-13.51012-.63353ZM147.02266,240.49005c-.85738.1773-1.88029,1.11592-1.99723,1.98859-.22541,1.68208,3.08573,4.08482,4.53169,1.48089,1.1791-2.12336-.1558-3.96137-2.53445-3.46948ZM149.02289,257.83901c5.15681-.78748,12.62383.84112,17.50927-.17902,2.82513-.58992,2.28414-4.03553-.35864-4.35081-6.42695-.76672-14.0572,1.14289-20.59853-.00412-8.89226.75142-18.66903-.6858-27.41026.00121-2.66967.20982-4.9048,1.52989-3.33679,4.406l14.83288.03335c.92477,1.00704,2.23793.27113,3.48496.24146,5.24148-.12474,10.97114.39356,15.87712-.14806ZM177.94278,253.38349c-1.70735.11328-5.69519.01144-5.58731,2.38554.05637,1.24058,1.37591,2.24447,2.48463,2.45375,2.31886.43771,8.7855.10984,11.47131.01867,2.65714-.09019,5.06557-.62204,7.96161-.48791,1.0264.04754,2.1391.51754,3.02594.4889,2.46333-.07956,5.37614-2.48803,2.30875-4.41881-1.29458-.81488-1.49442-.26892-2.75899-.2628-6.28156.03039-12.60517-.59539-18.90594-.17734Z"/><path class="cls-5" d="M21.59825,128.26447c1.19268-.02368,1.41523.82195,1.52179-.7049.34298,1.60153.60173.25483.70342.23313.55967-.11948.10635.78017,1.11752.42437.09369-.03297,1.02348-.6544,1.05514-.70954.15472-.26951-.01595-.81087.0501-.88204.08294-.08937,1.08891.0863,1.17216.00115.28571-.29225-.21549-3.85605,1.05348-4.21554l.58179.70169c.06416-1.1522.24151-1.32737,1.40705-1.16876l-.70133.58202c.23703.22699.43332.51242.71964.68516.37164.22421,1.07771.18679,1.15119.60156-1.88692-.45915-.89246,2.07482-1.16825,2.34525-.28301.27752-1.84344-.66965-1.40433.93477l1.40399-.23158c-.64615.97756,1.22115,1.86602.93783.46538l.93305.46836c.06971-.07893-.21323-2.04793.46575-1.40288.128.1216.45252,2.15277.93794,1.63857.09945-.10535.58995-2.40966.70716-2.81021l.93271.46696c.19415-.97019-1.09918-1.31997-1.35427-2.03863-.07365-.20751-.27159-1.18172.2994-1.00605l.47179.70334c.62494-1.31936.50133.08685.76099.64286.54432,1.1656,1.49884,1.64156,2.39633.5288.02171.6609-.02201,1.33013.00238,1.99292.01039.28242-.17582.87129.23113.81538.03344-.68122.94832-1.92104.94077-2.46736-.01115-.80688-1.96166-.56149-1.36823-2.29281.20696-.60381,1.28666-.67757,1.83401-.6217.11841.34239-.91702.17829-.46548.69568.02638.03023.47525.07362.70714.34054,1.00606,1.15798.09719,3.24558.22983,3.41055.6576-.42879,1.12913.32165,1.28442-.46756.2886.71865,1.75619.56386,1.13434,1.18969-.72542.73006-.94073.81436-.78071,2.0871,1.65915-.73371,1.25765.96452,2.57399.93775v-4.33227c0-1.2209,3.14097-5.85791,4.19827-6.57334.48831-.33042.88852-.24748,1.12387-.39759.15651-.09983.20383-.52643.5357-.74808,1.20297-.80345,3.51439-.73522,4.75971-1.06061.22259-.05816.13767-.44939.15863-.46571.04541-.03535.55729.44679,1.04281.48701,3.44396.28527.98794-2.13623.81268-3.40798-.27106-1.96687-.03628-6.36581.30378-8.38243,2.69549-15.98488,26.26232-22.29562,34.35647-7.2047-1.20603.27341-2.27154,1.24295-3.57232.88462-.47748-.13153-.90458-.83527-1.57665-.64624.18287,2.36046.65875,4.45497.46332,6.90377-.75583,9.47076-7.68235,11.03314-13.91945,16.05184-1.15334.92804-2.2765,2.23611-3.39842,3.15771-3.58046,2.94117-7.72117,5.02921-11.67943,7.40213-.51846.90561,1.33458,1.08045,1.96412,1.13793,4.41082.40277,13.45669-1.58336,17.4479-3.61576,3.60807-1.8373,6.79004-5.40602,10.60292-7.42616,2.75603-1.4602,8.84751-2.99705,10.75406-4.40213.481-.35449.98885-1.47835,1.8108-1.76636.325-1.27401-4.77416-.95558-5.62264-.70409-.47125.13968-2.87789,1.77624-2.23505.10655.60504-1.57153,2.36959-1.19618,2.4758-2.56174.74693-.24509.34123.57313.47087.69617.13495.12807,1.76344-.25156,2.04541-.40263.4666-.24999.46724-.66497.55512-.72966.10824-.07968,1.95566.32176,2.67879.22208.45089-.06216.31619-.49353.46828-.4961.2582-.00435.79223.39195,1.01795.22914.05555-.04007.48512-1.16499.48369-1.28181-.00621-.50706-1.32546-1.15528-.31126-1.48005,1.36844-.4382,1.95689.57553,1.72046,1.83701.75175.18657.31905-.45186.50649-.6462.29952-.31053,3.13921-.43898,3.48918-.18929.3353.23922.14125.97569.22715,1.06043.12462.12295.95059-.19229,1.28392.2389.21791.28188.28371,1.58946.34628,1.64561.15583.13984,1.25871-.379,1.40211-.23596.08136.08115.27345,1.77285.44712,2.25452.08624.23921-.11318.42516.34781.30009,1.25392-.34019,2.14544-1.60757,3.07649-2.31234,3.02496-2.2898,6.17324-4.40126,9.11797-6.80387.9819-.80113,3.45922-2.5962,4.1188-3.37361.29015-.34198.49492-.57961.45487-1.06977l.9932.43602c4.79824-2.61306,10.15221-5.88107,15.56897-6.93397,9.35738-1.81888,19.85847,1.94152,27.52368,7.24369,2.45547,1.6985,7.97191,5.5041,9.8778,7.44892.66413.67769,1.03087,2.05757,1.65435,2.79461.73651.87065,3.84536,3.39802,4.9227,3.52583.64971.07708,1.14044-.2582,1.62718-.24001,1.05107.03929,2.728.12602,3.7308.24747,1.82008.22044,3.56848.91816,5.38525,1.17066.42445-.02125-.50452-1.54496.35221-1.64277l.00395,1.87253c1.57955-.7941,1.29676.73915,2.68297.48367.32174-.0593-.11768-.79773.35662-.71586-.46784,1.10429,1.96598,2.41318,2.67663,2.34761.31925-.02946.13439-.97931.60105-.94254l.00361,1.63684c.71742.3728.27658-1.21321.93007-.69545.01906.0151-.09236.21876.20201.44259.23121.1758.72802-.2586.50785.95662,1.08633-1.05542.52501.66272,1.51493-.00344l.12398.70473c.4843.01732-.04098-.60886.58057-.46882.2754.06205-.08351.55405.35117.46886l.46996-8.31274c1.35159-5.23298,4.67725-9.06105,9.15006-11.92365,2.1957-1.40525,3.88564-2.16059,6.44393-2.68739.54569-.11237,1.14861.04388,1.75757-.1239.46345-.1277.43086-.60259.57705-.60537.60489-.01149,1.75767.44919,2.54859.4797,1.02804.03965,2.73462-.45096,3.4721-.24549.146.04068.34864.56449.86071.82907,1.27918.66094,4.07046.92874,4.99461,1.50223.22696.14084.58344.86293.97693,1.19094,1.62624,1.35563,3.75004,2.61126,4.57075,4.67469-1.79225.27299-3.48829.84436-5.14765-.2325-.19364.27585.88572,5.70132.93201,6.67633.2442,5.14378-1.42304,10.20849-5.77192,13.19055l-8.27149,4.01613c2.17267.65718,4.53008.91349,6.67861,1.63428,4.14966,1.39213,8.01374,5.62218,12.39958,1.64621.21049-.19082,1.79276-2.17366,1.86527-2.34957.6168-1.49637-.65154-1.22155-1.27901-2.09655.92107.12856,1.30388-.28657,1.40816-1.17288.37548.29906,2.21443.65818,2.30039.75483.09254.10405-.07352,1.16622.7289.64455.08039-.05226.16739-.85961.25726-.92503.11341-.08256,2.30857.46756,2.79615.22645-.5179-2.87193-.98038-1.6655-2.64307-2.15407-1.86013-.54659,1.41955-2.33206.77225-3.46363.79953-.06835.77045,1.02462,1.27777,1.42077.24484.19118.72328.17153.79375.24916.13437.14801.00716,1.33873.03402,1.72929.01755.25528-.12799.779.34838.57868.6257-.26311,1.45614-1.46733,1.30198-2.22039-.05527-.27001-1.03613.34278-.71493-1.17445.14577-.68856,1.36644-.76474.93962-1.98867.87577.36891.72029.17115.93768-.70249l.93108.70171c.33154-.97111.35038-2.83784,1.63433-2.21887,1.69905.81908-.93974,3.31986-.2143,4.08119.05608.05885,1.48865.12669,1.60319.26916.06727.08367-.08979,1.48422.48777.91244.18337-.18153.65069-2.34834.70451-2.8083-1.0514-.0437-.35385,1.88331-1.60138,1.13486-.39006-.23401-.27982-2.42466.62745-1.78102.10766.07638-.11408.51011.2698.40903l.4668-.932c.10123.79715.913.09917.82383,1.40446.16868.00641.61452-2.28277.93532-.00355.71423-.8728-.16778-1.48519,1.28718-.9363l.00403-2.80817c.4898-.05375.10804.81598.23262.93753.59344.57896.73894-.59992.8128-.69956.46467-.62687,1.95879-.17339,2.18165.62873.19867.71506-.33549,2.34786,1.0964,1.95447.27018-.07423.04529-1.66433,1.29074-.48061-.03355-.76525.00682-1.5818.4633-2.23359l1.17696.36203.00309-.7061c.44201.45403,1.29012.41024,1.65366.80433.42495.46066.33002,1.65983.67565,1.90013.64858.45092,2.41144-.0955,2.11743,1.97974-.26105.05296-1.09843-.07187-1.17259-.00012-.07866.07609-.05939,1.97624-.0091,2.1891.10603.44882,1.82584.15753,1.64817,1.08937-1.3719-.20235-1.31823.29302-1.63769,1.40397.91638-.10807,2.55898.53278,2.99411,1.33869.35077.64969-.07334,1.72783.98591,1.47369.68265,5.14019,1.27432,10.38481,1.41438,15.56308.14896,5.50727-.43385,10.82483-.94614,16.28492h-6.67245c-1.35322,0-1.41654-1.16804-1.98525-1.7611-2.89378-3.01769-8.63837-5.70843-12.25201-8.11844-13.24992-8.83664-26.03437-19.34911-43.07444-18.97212-7.5646-8.20298-16.43854-11.77578-27.44245-12.8294-1.01019-.09672-2.20414.17702-3.16858-.10914-1.55683-.46193-5.52184-5.63824-7.00769-7.04124-5.26892-4.97513-18.74858-13.45026-25.90444-14.1336-10.97614-1.04816-22.11662,5.04531-30.29365,11.79409-2.73284,2.2555-8.78781,8.64896-12.05316,9.01987-3.12111.35453-5.95484.23792-9.25401.81338-9.68295,1.68895-13.92517,4.21275-21.06206,10.54678-4.38439,3.89117-4.45878,3.02578-9.78533,4.49711-11.93352,3.29637-28.01024,14.41296-37.95986,21.98033-2.42015,1.84069-4.07399,4.51673-7.39385,4.54728-.44011.00405-.89668-.24114-1.39521-.24447-1.36855-.00912-2.74132.02803-4.10754.01183-.06857-4.5924-1.43882-9.08369-1.17922-13.71029.1363-2.42914.75624-5.0254.94402-7.48609.33208-4.35166.28421-8.65883.93874-12.99454ZM269.99829,128.96692c-.1377-.83673,1.18455-3.18404-.11399-3.2861-2.10153-.16517-1.45965,1.86957-1.52017,3.28611l.58535-.93823,1.0488.93821Z"/><path class="cls-6" d="M267.42532,166.90359l13.57802-.23276c-1.0174,3.23164-1.21285,6.8202-1.98099,10.07622-.30883,1.30908-.93926,2.46885-1.29571,3.73878l-5.73596-.48781c-4.32621,1.23513-10.03174-.36747-14.0226.04418-4.79484.49459-10.23953.17232-15.23287.21911-17.67612.16563-35.28609-.0548-52.90985-.25499-13.7044-.15567-27.40012.27293-41.09833.24661.9454,2.83572-1.10022,1.96654-2.89838,2.83804-1.08294.52486-2.47203,1.92126-.91385,2.72896,1.27621.66154,6.11415.18041,7.91793.27649,3.42536.18245,6.68319.62026,10.17462.71217-.01576,1.29532-1.47035,1.06777-1.65233,2.44779-.5657,4.28997,4.09022,2.89793,6.46149,2.92872,5.37609.0698,10.96302.96296,16.37489.47401,2.38284-.21528,3.46369-.97834,2.88025-3.57578-.49604-2.20837-4.14593-1.65839-5.68209-1.81004-.68845-.06796-1.66513-.43368-2.22786-.46469.24307-.38826.88799-.23333,1.28431-.23825,29.16367-.3619,58.54973-.12629,87.55557.22703,2.61389.03184,5.27741-.16624,7.8521.24539-1.0048,3.05186-2.03435,5.93431-3.27769,8.89871l-242.31526.23418c-1.33187-3.09443-2.21354-6.21251-3.27769-9.36706,2.53608.01797,5.07952-.02007,7.6186-.00963,11.33701.04662,22.73944-.85113,34.18166-.70256,12.96238.16831,25.59661.74236,38.61065-.00001,2.46649-.1407,2.52787.05503,4.9109-.70766,2.4254-.77625,4.81161,1.02204,7.28012.72249,1.84865-.22433,2.60217-2.32611,3.97092-3.28572,1.01185-.70939,2.71547-.79585,3.16266-2.10317l-101.84259-.23652c-.6268-2.12443-1.28947-6.1638-1.87297-7.72782,1.20261-.7854,2.7061-.39085,4.09471-.47077,8.74529-.5033,17.67677-.12143,26.46774-.00725,30.71797.399,61.73381.10542,92.4778-.44904,10.1312-.18271,20.3735-.38202,30.41495.46982l99.97993-.00999c-.32559-1.03836-1.97962-.74634-2.68643-1.06002-2.49502-1.10728.65569-3.94751.46309-4.09065-2.06702-.06062-4.15211.06995-6.22092.00734-.50987-.01543-.53761-.24305-.56853-.24386ZM143.29301,172.59274c-3.00169.05778-7.34061-.17308-10.1415.15986-1.32583.1576-3.04447,1.752-2.64671,3.11474.19123.65517,2.20518,1.91876,2.90124,2.02754l36.04032.0157c3.31893-.10606,3.72085-3.97164.92409-5.14086-9.05538.07939-18.02267-.35128-27.07744-.17697ZM118.24343,187.11306c-.94989.2208-1.76583.0805-2.60983.66802-1.5127,1.053-1.67898,4.30166.44629,4.63394l26.19439.00047c2.50296-.39846,2.6117-4.77518.70941-5.13224l-24.74027-.17019ZM222.42591,188.98509c-1.33983.10007-4.35588.21926-4.60551,1.97635-.13136.92459,2.08804,2.92116,3.15203,3.0865,5.51265.85663,11.30258-.20005,16.82692-.45787,1.42619-.06656,6.33918.3412,7.14253-.34941.80581-.69273.68627-3.07589-.23185-3.73366-1.08464-.77706-2.05961-.1343-3.14535-.11291-6.33401.12476-12.87481-.87684-19.13877-.40898ZM83.32502,193.04997c1.54586-1.60942.04519-3.67069-1.90351-3.90496-5.25173-.63137-11.72042.49007-17.10583-.00431-2.09494.69306-8.56659-1.05385-6.24218,3.21878.83293,1.53106,2.29676,1.80332,3.91426,1.93913,3.71714.31209,8.85836.01255,12.63674-.2327.86515-.05616,1.61694-.48496,2.57807-.48621,2.00241-.00262,4.3035,1.364,6.12245-.52973Z"/><path class="cls-3" d="M158.32492,105.31517c.71554.24724.91467-.11597,1.76433.69425,1.02891.98116,4.93012,6.54426,5.30766,6.7485.32632.17652.95995-.07607,1.3454.17881l8.20402,5.61057c-.81794.35843-5.19484-1.49316-5.38214-1.28819-.16046.68637.35683,1.183.45492,1.76722.10037.59781-.16349,1.49237.13077,1.9768.28184.464,3.6162,2.53324,4.32437,2.93407,8.00754,4.53241,17.59665,6.40882,26.15591,9.6688.63559.01026,1.25607-1.22019.89309-1.82247-.9012-.58888-1.3414-1.78871-2.01471-2.4436-1.20013-1.16729-3.49651-1.86082-4.42194-3.53662,2.76576.45577,5.40884,1.95608,7.65759,3.57868,1.59813,1.15313,3.49051,2.46417,2.76782,4.75017-.15774.49896-1.01435.94902-.36396,1.50947,5.70545,3.21641,10.79586,6.4515,17.1465,8.37513.66061.2001,4.94262,1.67149,3.71185-.41744-1.03063-1.74922-5.45891-2.90616-6.34171-5.26293,12.5371.27871,22.8752,8.39956,33.43885,14.0864l.04041.89733c-4.10198-.41631-8.22983-2.19965-12.32165-2.54444-4.08506-.34422-8.57914.71817-12.54408,1.67714-.9947.24058-2.2703.95447-3.12594,1.08789-5.40235.84238-16.80554-7.54271-21.71871-10.32933-9.57862-5.43273-20.13178-9.16007-30.35158-13.19806-6.93382-2.73965-15.19033-6.75513-22.84392-6.67612-10.81889.11169-28.72433,8.98699-38.25037,14.43014-2.72618,1.55773-10.79714,6.52931-12.72124,8.51955-1.22686,1.26902-1.10413,2.58723-3.32213,3.30028-4.25447,1.36775-11.90405-.81768-16.88048-.49213-5.30483.34703-6.36881,2.44224-10.43736,4.54746-4.44692,2.301-8.73494,3.78215-12.82649,7.07547-.5741.4621-1.18616,1.46038-1.58679,1.6903-.95087.54568-3.89329-.11177-5.2228-.18823-.16703-1.15523.0925-1.39318.82772-2.0992,3.77798-3.62792,9.25325-4.71769,12.71181-9.53204.65156-.90698,2.25659-2.84932,1.2101-3.82441,6.8683-3.37209,14.82079-5.8041,21.19449-9.82888,3.64729-2.30314,6.82927-5.4073,10.79656-7.23247,2.71841-1.25062,6.22149-1.81349,8.74601-3.07783-.22743.84529-.86647,1.78202-1.40983,2.45376-.56801.7022-4.03861,3.33425-3.27256,4.10201,1.55954.11287,2.94633-.59376,4.21415-1.40389.20775.45132.74917.1002,1.05776.00627,17.76307-5.4068,29.24335-24.41502,48.69538-25.99744,1.16232-.09455,2.36139.08918,3.52212.01116.43542-.02927.87629.0564,1.04082-.48193ZM92.30169,137.16448c-1.84706.37647-4.88808-.20449-4.4482,2.57544,1.88316.07867,4.12206-.41111,4.4482-2.57544Z"/><path class="cls-5" d="M267.42532,166.90359c.03092.00081.05865.22843.56853.24386,2.06881.06261,4.15389-.06796,6.22092-.00734.1926.14314-2.9581,2.98337-.46309,4.09065.70681.31368,2.36084.02166,2.68643,1.06002l-99.97993.00999c-10.04146-.85185-20.28376-.65254-30.41495-.46982-30.74399.55446-61.75983.84804-92.4778.44904-8.79097-.11419-17.72245-.49606-26.46774.00725-1.3886.07992-2.8921-.31464-4.09471.47077-.01817-.0487-.52306-.20151-.65291-.63217-.40773-1.35227-.22795-3.4485-.75645-4.86053l1.51727-.37167c65.52879.07585,130.96952-.22851,196.42552.02112,15.8921.06061,32.03885-.42588,47.8889-.01116Z"/><path class="cls-3" d="M156.21783,129.20118c6.17293,1.39322,9.53849,2.98611,15.23156,5.25527,9.5846,3.82025,19.30161,7.77483,28.47229,12.73602,6.43083,3.47898,13.53435,8.82657,20.44582,10.92899,2.68059.81541,9.27408,1.82513,11.2315,3.28477.59495.44365.89435,1.02134-.11744,1.05781-.65939.02377-1.22403-.22937-1.85711-.25364-3.04188-.11663-9.35357.53463-11.89676-.74596-.62951-.31698-1.15167-1.35219-1.24354-1.35839-.65303-.04404-2.24068.5244-3.13972.24177-.20947.78862.71259.93289.70011,1.63684-1.2403.18738-2.43448-.25735-3.63151-.25121-3.7429.0192-7.9863.77494-11.71262.26282-.78202-.10747-1.11927-.59924-1.74294-.94733.04309.90677-.495,1.08267-1.28644,1.17492-12.05706.06311-24.12134-.09748-36.17552-.0038.23487-1.28943.9937-1.11174,1.63885-1.63924,3.00038.71592,5.95643-.90425,8.79837-1.6204,1.34483-.33889,6.85684-1.28441,7.48733-1.64388.42626-.24303.85816-1.12195,1.52235-1.31517.01351-.2103-.78038-1.52528-.95401-1.63357-.41501-.25884-5.41431.56054-6.32286.01163-.89759-.54228-.67093-2.53355-.34321-3.3965.54267-1.42897,4.48652-5.28458,5.83044-5.87472,1.22864-.53951,1.77108.13944,2.80575.01368.49398-.06004.98268-.46699,1.48991-.63543,1.23814-.41116,1.83721.1614,1.92744-1.46888.00275-.04962.25183.0184.02758-.34205-1.00824-1.62064-3.08231-2.52774-4.89105-2.8724-7.54567-1.43785-14.7339,3.39379-21.47066,5.79488-4.20482,1.49866-8.61813,2.39654-12.76083,4.09686-2.76601,1.13527-5.31603,3.02397-7.88094,4.06033-.53703.21699-1.89608.95049-2.15555.11685-.18584-.59707-.33999-3.26699-.26859-3.94859.16687-1.59289,1.2765-3.22187,1.63934-5.03247.20993-1.04756.40325-4.01292,1.40676-4.56441.65497-.35994,3.25064-.09912,4.0333.17592.68913.24217,1.45579,1.4449,2.05068-.29386-.37238.12422-2.70628-.37156-2.79862-.48063-.13455-.15894-.00922-.82314.21943-1.04807.72429-.71248,4.24382-.95221,5.36016-1.07752.33479-.95175.4759-2.0277.92429-2.93992.7999-1.62732,2.27422-2.12996,1.68064-4.52463,2.29865-.27603,4.76922.01617,6.91824-.22169.53006-.05867.81144-.08049.80776-.71502Z"/><path class="cls-2" d="M277.72664,180.48583c-.61585,2.19411-1.15932,4.38938-1.87297,6.55694-2.57469-.41164-5.23821-.21355-7.8521-.24539-29.00584-.35332-58.3919-.58893-87.55557-.22703-.39632.00492-1.04124-.15001-1.28431.23825-5.34352-.29453-10.82202.14038-16.15435,0-3.49143-.09192-6.74926-.52972-10.17462-.71217-1.80378-.09608-6.64171.38505-7.91793-.27649-1.55818-.8077-.16908-2.2041.91385-2.72896,1.79816-.8715,3.84378-.00232,2.89838-2.83804,13.69821.02631,27.39393-.40228,41.09833-.24661,17.62376.20019,35.23373.42063,52.90985.25499,4.99334-.04679,10.43803.27548,15.23287-.21911,3.99086-.41166,9.69638,1.19094,14.0226-.04418l5.73596.48781Z"/><path class="cls-2" d="M24.87594,180.48583l101.84259.23652c-.44719,1.30732-2.15081,1.39378-3.16266,2.10317-1.36875.9596-2.12227,3.06139-3.97092,3.28572-2.46851.29954-4.85472-1.49875-7.28012-.72249-2.38303.76269-2.44441.56696-4.9109.70766-13.01404.74237-25.64826.16832-38.61065.00001-11.44221-.14857-22.84465.74918-34.18166.70256-2.53909-.01044-5.08252.0276-7.6186.00963-.70855-2.1004-1.46082-4.13236-2.10709-6.32277Z"/><path class="cls-3" d="M39.39144,213.50472c.30602-.54803.68681-.64219,1.28281-.70328,3.37596-.34607,6.9406.21085,10.29503.24609,14.1672.14881,29.60347-.89066,43.56669-.02019,1.28269.07996,2.54002.6062,3.85282.47973l-1.87107,1.52055c-.80435,1.2895-1.34843,2.78179-2.58548,3.73667-1.09656.21777-2.90715,1.13012-3.86758,1.28339-4.74652.75744-11.60563-.95115-16.61827-.21054-7.41812-1.04482-15.10676.56847-22.47561.23417-2.25127-.10213-6.07945-.43697-8.06753-1.41471-.85615-.42106-2.87412-4.1465-3.51182-5.15188Z"/><path class="cls-3" d="M118.75847,141.84671c-.15074,1.01862.99685.08023,1.40702.33346.44043.27191.53977,1.72579.83951,1.79047.86809.18513,1.32863-.83842,1.97816-1.05962.75245-.25624,8.70672-.2812,9.65339-.07534.63595.13829,1.0365.50291.83807,1.18962-.21788.75405-1.20732.49862-1.50162.86107-.17491.21541-.0459.58554-.10375.70717-.40336.84792-.59199,1.65-.97881,2.4165-.43881.86954-1.79896,1.88227-1.97125,2.49602-.20537.73161.47368,1.84604.36082,2.90694-.07238.68037-.53312,1.42311-.66903,2.15247-.25933,1.39168.50331,1.72778-.84528,2.90134-3.29646,2.86862-7.18171,3.75076-11.45568,3.99723-1.91171.11024-2.68637-.13177-4.34106-.47815,1.83985-2.96707,5.10668-5.398,7.9864-7.35027,1.27547-.86469,2.85819-1.86655,4.21842-2.57177.49002-.25405,1.95913-.62685,2.09363-.76759,1.82302-1.9077-2.12889.3175-2.29674.35104-.89024.1779-1.40695-.66564-2.27893-.67431-1.12132-.01115-2.8185.92992-4.10387,1.17747-2.75743.53107-7.08574.08613-9.34844,1.30346-.54038.29073-.96688.90781-1.18701,1.0383-.97888.58028-3.27417.85632-4.4483,1.17088-.30311-1.37275-1.58599-1.95129.23307-2.92826l-.93544-.35021c3.37262-1.29472,9.01897-5.92516,12.42823-8.05927,1.44108-.90208,2.96888-1.63244,4.42848-2.47867Z"/><path class="cls-3" d="M264.14762,212.56801c-1.57839,2.73164-2.95472,4.86994-4.68242,7.49365.20855-.74416-1.1683-.50154-1.53199-.4779-3.25414.21151-6.55173.61972-9.81322.72174-8.84237.27657-17.7392-.22782-26.58357-.00813.36962-1.60637-1.18234-2.3535-1.19008-3.8634-.00531-1.03583.63854-2.02913,1.07112-2.93232l42.73016-.93364Z"/><path class="cls-5" d="M38.22084,162.45424c-.85654-.00705-1.71875.0072-2.57527-.00234,2.17729-2.71369,5.48849-4.14028,8.26782-6.12967,4.33231-3.10099,8.27163-7.18992,12.87994-9.83213,8.20315-4.70336,18.82907-5.49397,26.35454-11.10745,3.31985-2.47638,6.3934-6.13216,10.32835-7.70079,1.34479-.53609,11.70382-3.19204,12.17259-2.69477.50539.53611-.74567,1.42478-1.17172,1.63815-2.52453,1.26434-6.0276,1.82721-8.74601,3.07783-3.96729,1.82517-7.14927,4.92933-10.79656,7.23247-6.3737,4.02478-14.32618,6.45678-21.19449,9.82888-6.95922,3.41673-11.26147,7.50914-17.57738,11.33926-2.37512,1.44033-4.89212,2.39732-7.32575,3.69077-.32861.17465-.74029.09307-.61607.6598Z"/><path class="cls-2" d="M148.49184,130.13788c.59358,2.39467-.88074,2.89731-1.68064,4.52463-.4484.91221-.5895,1.98817-.92429,2.93992-1.11634.12532-4.63588.36504-5.36016,1.07752-.22866.22493-.35399.88913-.21943,1.04807.09233.10907,2.42624.60486,2.79862.48063-.59489,1.73876-1.36154.53603-2.05068.29386-.78266-.27504-3.37833-.53587-4.0333-.17592-1.00352.55149-1.19684,3.51685-1.40676,4.56441l-3.74594.70253c.05786-.12163-.07116-.49176.10375-.70717.29431-.36245,1.28374-.10702,1.50162-.86107.19842-.68671-.20212-1.05133-.83807-1.18962-.94666-.20585-8.90094-.1809-9.65339.07534-.64953.22119-1.11007,1.24475-1.97816,1.05962-.29975-.06468-.39909-1.51856-.83951-1.79047-.41017-.25323-1.55777.68516-1.40702-.33346,8.13891-4.71871,20.3368-10.58047,29.73337-11.70883Z"/><path class="cls-5" d="M158.32492,105.31517c-.16452.53833-.6054.45266-1.04082.48193-1.16074.07802-2.3598-.10571-3.52212-.01116-19.45203,1.58242-30.93231,20.59064-48.69538,25.99744-.30859.09393-.85001.44505-1.05776-.00627,4.59043-2.93326,10.09763-7.29546,14.49124-10.6793,11.99565-9.23872,23.00337-21.59498,39.82484-15.78264Z"/><path class="cls-5" d="M156.21783,129.20118c.00369.63453-.2777.65635-.80776.71502-2.14902.23785-4.61958-.05434-6.91824.22169-9.39657,1.12835-21.59446,6.99012-29.73337,11.70883-1.45961.84624-2.9874,1.5766-4.42848,2.47867-3.40926,2.1341-9.05561,6.76455-12.42823,8.05927-.6708.25752-1.39934.26362-2.10703.23183,4.99004-5.93357,12.0144-10.19892,18.8064-13.85436,8.36532-4.50219,22.84595-11.42775,32.34598-10.72882,1.86932.13753,3.54369.77809,5.27073,1.16787Z"/><path class="cls-2" d="M183.37587,143.01759c-.09023,1.63029-.68929,1.05773-1.92744,1.46888-.50722.16844-.99593.57539-1.48991.63543-1.03467.12575-1.57711-.5532-2.80575-.01368-1.34393.59014-5.28777,4.44575-5.83044,5.87472-.32772.86295-.55438,2.85422.34321,3.3965.90856.54891,5.90785-.27046,6.32286-.01163.17363.10829.96753,1.42327.95401,1.63357-.66419.19322-1.09609,1.07213-1.52235,1.31517-.63049.35947-6.1425,1.30499-7.48733,1.64388-2.84194.71615-5.79799,2.33632-8.79837,1.6204,1.53227-1.25284,2.99307-2.58115,4.70111-3.61104.86613-.52225,2.3841-.98209,3.02102-1.42961.32981-.23174.05222-.6786-.1153-.82488-.31706-.27686-1.38735-.02464-1.83794.04558-1.95919.30536-5.82077,1.91598-7.64186,2.77566-.12421-.98445.61185-1.72488.93648-2.57594l4.46871-4.78021c2.07063-1.2561,4.0166-2.7593,6.14043-3.9277.9353-.51454,2.64307-.71192,2.96988-1.83004.75875-.21931,1.57928-.70569,2.47557-.91935,2.26185-.53918,4.8436-1.0453,7.12339-.48571Z"/><path class="cls-2" d="M117.58786,152.15047c1.28537-.24756,2.98255-1.18862,4.10387-1.17747.87198.00867,1.38869.8522,2.27893.67431.16785-.03354,4.11976-2.25875,2.29674-.35104-.13449.14074-1.60361.51354-2.09363.76759-1.36023.70522-2.94295,1.70708-4.21842,2.57177-2.87972,1.95227-6.14655,4.3832-7.9864,7.35027-.80345-.16819-1.55247.23418-1.99003.23418h-16.85671c-.75014,0-2.04421,1.0188-2.92651,0,2.2409-.24035,8.10645-2.39967,10.29787-3.39901,2.17166-.99033,4.7361-3.03847,7.02708-3.62628,2.70954-.6952,7.15781-.77586,9.61931-2.21171.45107-.26312.55847-.15792.44789-.83258Z"/><path class="cls-2" d="M63.74003,146.76441c1.04649.97509-.55854,2.91743-1.2101,3.82441-3.45855,4.81435-8.93383,5.90412-12.71181,9.53204-.73522.70602-.99475.94397-.82772,2.0992-1.00605-.05786-2.03541.04005-3.04357,0-1.0597-.0421-2.20932-.27383-3.40537-.23424-.45015.0149-.93953-.23866-.8088.46842-1.16798.00335-2.34392.00962-3.51182,0-.12422-.56673.28746-.48514.61607-.6598,2.43363-1.29345,4.95063-2.25044,7.32575-3.69077,6.31591-3.83012,10.61815-7.92252,17.57738-11.33926Z"/><path class="cls-3" d="M76.85081,154.02388c-.13072-.70705.35822-.45344.80879-.4684,3.63103-.12058,7.33689.3417,10.89749.93907.082.47263-.05444.62265-.34653.93934-1.2172,1.3197-5.17693,2.99222-6.89323,4.11135-.89337.58253-3.26323,2.71181-3.92956,2.86063-2.61227.58343-8.137.39425-10.96597.28259-.45055-.01778-.93933.24091-.8088-.46841,2.74608-.09955,4.94696-1.88736,7.09794-3.5554,1.5921-1.23464,2.94985-2.66892,4.50724-3.9381.1108-.14595-.32909-.67961-.36737-.70268Z"/><path class="cls-3" d="M242.37437,155.19477c2.90483.72238,5.70742,1.88901,8.65436,2.46698,3.9272.77022,9.01242.61568,12.49159,2.72693.34179.2074,2.03884,1.36294,1.56282,1.83022-3.86725-.1317-7.72223-.2669-11.59917-.24416-3.87596.02273-8.07736.9613-11.81196-.45719l1.62907-.83005c.23574-.14814,1.58009-1.49602,1.61274-1.66253.13231-.67488-2.36089-2.94163-2.53945-3.83018Z"/><path class="cls-2" d="M155.98371,151.9163c-.21329.33008-.48149.80524-.70236,1.17088-2.88517,1.83328-5.31658,4.3058-8.05946,6.34115-.50952.75484-.2236,1.55772.09934,2.32338-.31751.19887-.50678.56081-1.04656.47441-3.95485-.13818-7.87987.26444-11.8301.22811-.03038-.53139.34901-.60733.67378-.84828,2.64362-1.96135,5.98644-3.12726,8.84828-4.73178,1.21568-.68158,2.27802-1.75788,3.50068-2.35291,2.52156-1.22716,5.87235-1.54883,8.51639-2.60497Z"/><path class="cls-5" d="M134.44458,162.45424c-1.28473-.01181-2.57511.00766-3.86225.00117l-.11601-.46503c7.88226-5.41229,16.6775-10.76586,26.45271-11.47791.16715.70551-.75085,1.11834-.93532,1.40382-2.64404,1.05614-5.99484,1.37781-8.51639,2.60497-1.22265.59503-2.285,1.67132-3.50068,2.35291-2.86184,1.60452-6.20466,2.77043-8.84828,4.73178-.32477.24095-.70416.31689-.67378.84828Z"/><path class="cls-2" d="M242.37437,155.19477c.17856.88855,2.67176,3.1553,2.53945,3.83018-.03265.16652-1.377,1.5144-1.61274,1.66253l-1.62907.83005c-2.09931-.79737-3.9219-2.12762-5.92828-3.08611-1.72396-.82357-3.54913-1.43498-5.30481-2.18286-.00397-.24729,3.00312-.88551,3.46286-.98095,3.53618-.7341,4.96495-.94513,8.47259-.07284Z"/><path class="cls-5" d="M107.05242,154.49224c.62597-.10937.47794.14852.46824.70253-2.29099.58781-4.85542,2.63595-7.02708,3.62628-2.19142.99934-8.05698,3.15866-10.29787,3.39901-1.47222.15791-3.17966-.11353-4.68236-.00234,4.64878-3.93247,11.32486-5.00983,17.09077-6.5546,1.17413-.31456,3.46942-.59061,4.4483-1.17088Z"/><path class="cls-6" d="M76.85081,154.02388c.03829.02307.47818.55673.36737.70268-1.55739,1.26917-2.91514,2.70345-4.50724,3.9381-2.15098,1.66805-4.35187,3.45585-7.09794,3.5554-.6687.02424-1.44722.04544-2.10709,0-.19731-.01359-.82024-.71911-.70236.23418-.77072.00227-.62802-.38526-.12076-.94048,1.11845-1.22419,5.01286-3.47239,6.6057-4.39895,1.30485-.75904,4.91903-2.91717,6.15584-3.22562.4288-.10694,1.04448-.08341,1.40648.1347Z"/><path class="cls-5" d="M161.13437,160.58083c-.64515.5275-1.40398.34981-1.63885,1.63924-.56491.00439-1.19943.28205-1.99641.2452-.98438-.04551-1.92812-.48-2.92006-.48174,1.23777-1.19685,3.18404-3.7397,4.68234-4.447,1.8211-.85968,5.68268-2.4703,7.64186-2.77566.45059-.07023,1.52088-.32244,1.83794-.04558.16753.14628.44511.59315.1153.82488-.63692.44752-2.15489.90737-3.02102,1.42961-1.70804,1.02988-3.16884,2.3582-4.70111,3.61104Z"/><path class="cls-6" d="M173.77691,144.42265c-.3268,1.11812-2.03457,1.31549-2.96988,1.83004-2.12384,1.1684-4.0698,2.6716-6.14043,3.9277l-4.46871,4.78021c2.93613-7.69729,6.12717-8.38406,13.57902-10.53794Z"/><path class="cls-3" d="M155.28135,153.08718c-2.1658,3.58531-4.2671,6.35152-7.96011,8.66453-.32294-.76566-.60887-1.56854-.09934-2.32338,2.74288-2.03535,5.17429-4.50787,8.05946-6.34115Z"/><path class="cls-3" d="M247.05729,238.79685c.01982,4.38915-3.72124,1.20915-1.87571.11358.46873-.27826,1.32808-.05367,1.87571-.11358Z"/><path class="cls-3" d="M45.94683,162.22006c-1.25529.43539-2.86607.23031-4.21418.23418-.13073-.70708.35866-.45352.8088-.46842,1.19606-.03959,2.34568.19214,3.40537.23424Z"/><path class="cls-3" d="M63.50591,162.22006c-.11413.29814-.44477.23342-.70236.23418-.11787-.95328.50505-.24776.70236-.23418Z"/><path class="cls-3" d="M175.2987,118.66323c.15203.07806.15203.15612,0,.23418v-.23418Z"/><path class="cls-5" d="M124.37737,50.04952c-1.00309-.16314-1.95431.242-2.92551.25481-.59506.00784-1.74471-.57849-2.12253-.03382-.1292.18625-.25823,3.70604-.40016,4.5162-.61345,3.50169-2.32802,5.6531-4.60212,8.2275.52699.84054,2.85756,2.60558,3.79405,2.45548.68209-.10932,3.94698-2.40459,4.78645-2.95694.61226-.40285,1.25975-1.16179,1.70395-1.45693,4.10101-2.72483,8.66202-3.51679,12.29373.46597,1.52904,1.67685,2.08951,3.6905,3.07318,5.59062,3.03369.02758,6.07391.07146,9.10838.04166,3.25675-.03198,10.62741-.95718,13.22488,1.27162,2.70898,2.32448-.42122,3.0081-2.46788,3.16516-15.45773,1.18626-32.18466-1.04631-47.76893-.24242-15.81077.61201-31.67515.50907-47.52986.25978-.66978.03754-2.12762-1.99727-2.17168-2.51734-.06013-.70975,2.03344-1.83286,2.66864-1.93218,1.32813-.20769,4.08706-.20731,5.59497-.25812,4.67237-.15742,9.3597.22992,14.01943-.26201.67827-.64777.84991-1.53975,1.43655-2.30993,2.72346-3.57552,6.73029-3.15057,10.65711-2.10329-.69317-2.27579-1.53676-4.72621-1.64693-7.13098-.75803-16.54563,24.05642-22.02178,29.27426-5.04484Z"/><path class="cls-5" d="M215.45045,66.2077c-.55609.17102-2.96043.38287-3.17676.6864-.15935.22358-.44749,4.59065-.63358,5.45485-.61407,2.85178-2.47339,3.56169-3.91559,5.7994,3.76759.56888,6.22234-1.17811,8.66241-3.74448,2.64307-.61649,5.65108-.80892,7.45162,1.56241.60608.79821,1.66868,3.58581,2.30946,3.77858,2.81656.4877,11.01881-.90835,12.93157,1.11602.55544.58785.60354,1.23181.38546,1.99855-.14286.50228-.48695.22152-.60249.9115-.9097-.03513-1.81696.41525-2.69614.4645-1.35545.07593-2.73637-.02357-4.09337.00385-.38973.00788-.78068-.00105-1.17061,0-2.60145.00702-5.14816-.1684-7.72599-.23418-.1559-.00398-.31236.0043-.46824,0-.99782-.02749-2.05516-.02906-3.04357,0-.30607-.47469-.79242-.44963-1.27795-.47926-4.05102-.24715-8.77731-.04416-12.88972.00683-.39622.00491-1.04111-.15004-1.28431.23825-4.78228-.03581-9.52798.22081-14.28138.23418-2.79333.00785-5.78937.01549-8.66248,0-2.68804-.01449-5.68048.18658-8.32023.00958-1.32891-.08911-2.42318-.2447-2.68229-1.78239-.15169-.90021.22585-1.61275,1.03676-1.98965,2.91807-1.35627,10.63123.13769,14.24113-.5086,1.58853-.2844,1.81672-2.26385,2.97355-3.34851,2.45411-2.30102,5.46903-1.44103,8.43607-1.04625-.24613-.99871-1.00133-1.75104-1.35169-2.74368-4.24236-12.01967,15.16046-20.61062,19.84836-6.38792Z"/><path class="cls-5" d="M178.63615,33.95276c10.03051-1.30911,12.13912,15.23392,1.55367,15.36827-9.22049.11702-10.16447-14.24445-1.55367-15.36827Z"/><path class="cls-6" d="M124.37737,50.04952c1.63313,5.3136.1481,5.52835-.22993,10.19928-.03588.44336-.21724.94063.46405.80702-.4442.29514-1.09169,1.05409-1.70395,1.45693-.83947.55235-4.10436,2.84761-4.78645,2.95694-.93649.1501-3.26706-1.61494-3.79405-2.45548,2.27411-2.57441,3.98867-4.72581,4.60212-8.2275.14193-.81016.27096-4.32994.40016-4.5162.37782-.54467,1.52748.04166,2.12253.03382.9712-.0128,1.92243-.41794,2.92551-.25481Z"/><path class="cls-6" d="M215.45045,66.2077c.04565.13849.34551.3726.45874.82188.60867,2.41507.48037,4.90346.47774,7.3743-2.44007,2.56637-4.89482,4.31337-8.66241,3.74448,1.4422-2.23771,3.30152-2.94762,3.91559-5.7994.18609-.86421.47423-5.23127.63358-5.45485.21633-.30353,2.62067-.51538,3.17676-.6864Z"/><path class="cls-6" d="M255.02118,84.00349c.4838.42173.4373-.50267.58104-.46969.2698,1.14385.54513-.29238.70124-.23023.30566.12169,1.29979,1.59357,1.05503,1.87005-1.90882-.29081-1.52943,1.99945-1.63792,2.11155-.04894.05057-1.35755.04939-1.40723-.00045-.09435-.09464.09291-.99393.01678-1.27487-.06997-.25819-.5483-.01356-.73948-.26898-.13728-.18341-.29709-1.18773-.21419-1.26671.1499-.14282,1.50715.32503,1.1745-1.17156.39336-.01075.39571.63591.47023.70087Z"/><path class="cls-6" d="M258.05935,87.98545c.0731.09451-.04672.70037.0035.93623.49569-.10628.12249-1.10979.93174-.93595-.13197.86616,2.44064,2.72271.47279,2.10819l.22957,1.87318c-.40326-.63538-1.12666-.18091-1.16675-.23284-.27859-.36088.64064-2.01087.00519-2.46735-.76034-.54619-.72511.47125-1.17485.5915-.13621-.22409.21547-2.4979.6988-1.87295Z"/><path class="cls-6" d="M74.86078,81.89752c.15203.07806.15203.15612,0,.23418v-.23418Z"/><path class="cls-6" d="M79.07496,81.66335c.15203.07806.15203.15612,0,.23418v-.23418Z"/><path class="cls-2" d="M204.21264,83.77093c3.7573.02813,9.61694.82227,13.11078.23418.28242-.04754.63716.03247.93648,0,1.01327.26928.78022.01836,1.40473,0,.98842-.02906,2.04576-.02749,3.04357,0-.07471.8726-1.28495.2964-.93864,1.64038-.33265-.11443-.65122-.31251-1.0288-.25176-.21211.03413-.00903.75618-.60662.48362l.23203-1.40229c-.89335.10916-2.0796-.16237-2.92099.00221-.58959.11533-1.68264,1.64817-2.34361,1.87192-.21457.00413-.24038-2.79779-.93696-1.17324-.47148-.52909-1.04733-.78607-1.75668-.70311l-.00228,1.17031-.93293-.70129-.11938.93901-.11829-1.4062c-.78021-.20661-.3475.59067-.46776.70149-.61537.5671-.26672-.72217-.69924-.70157l-.3512.9372c.25269-1.17745-2.31516-1.08686-2.46184-.93954-.19103.19187.43238,1.6652-.46599,1.40775.16532-1.26483-.15485-.60485-.93518-1.17245l-.46921.93828-.46728-1.17235c-.05009.2365.06884.84304-.00351.93668-.40291.52143-.49318-.71959-.6982-.4666-.08474.10458-.0656.69906-.46891.70073.22322-1.62321-.28743-1.13214-1.64239-1.17204l-.11586,1.64281-.3538-1.64017c-.4591-.07543-.12548.58131-.23235.70316-.53011.60441-.42845-.66131-.47062-.70159-.1562-.14922-.98654.19888-1.28393.18489-2.1682-.10203-4.05822-.65918-5.73363,1.21661-.14584-1.26021-1.07477-1.50137-2.22295-1.41032-.99293.07874-2.03128,1.20083-1.75994-.46254,4.75341-.01337,9.4991-.26998,14.28138-.23418Z"/><path class="cls-2" d="M181.71401,86.13654c.12555.10627.62819,3.09551.48999,3.25349l-1.16814-.70019c.18994.4747-.12169,2.83476-.937,2.10476-.06838-.06122.18881-.57091.18715-.81624-.01126-1.66296.02553-.63705.46508-1.33514.37585-.59692-.50268-1.82405-.41824-2.52932.32753.06058,1.21528-.11776,1.38116.02264Z"/><path class="cls-2" d="M230.90244,84.23929c-.55314.49376-.94596,1.0064-1.76354.96405-.42482-.02201-.31088-.44514-.50383-.49062-.84894-.2001-3.54089-.17822-4.64964-.23931-.44928-.02476-.93912.24761-.80898-.46829,2.57783.06578,5.12454.24119,7.72599.23418Z"/><path class="cls-2" d="M93.70521,93.37201l.46932-.70116.00345,1.16949.93297-.23289-.00105,2.57477-.81824-1.40384-.58182.93442c.33577-1.13613-.63954-1.71349-.71052-2.69066-.0188-.25882-.06674-.4117.23696-.35073l.46891.7006Z"/><path class="cls-5" d="M26.51474,125.92505c-.12524.46559-.49858.52529-.93524.46478l.00002-.4659.93523.00111Z"/><path class="cls-2" d="M69.47599,80.25829c.15203.07806.15203.15612,0,.23418v-.23418Z"/><path class="cls-4" d="M114.94343,208.05206c-.45616.55342-2.77049.95035-3.55144,1.01163-9.78635.76796-20.55821-.59581-30.44928-.00312-2.67596-.31748-3.37504-4.35558-.7011-4.92296l33.48712-.00382c1.72391-.23055,1.89676,3.09078,1.2147,3.91827Z"/><path class="cls-4" d="M223.32847,204.68873c1.50836,1.43999,1.20985,3.67964-.9611,4.14282-5.46939.01137-10.93932-.04642-16.40854-.01992-2.78159.01348-5.59997-.03147-8.4283-.0001-2.2511.02497-7.17381,1.26428-8.35849-1.45539-.54416-1.24923.48094-2.83292,1.80344-2.99443,3.97655-.48563,9.61857.09388,13.83211.01978,4.55914-.08018,9.24806-.34991,13.80587-.47562,1.53538-.04235,3.55966-.32013,4.71501.78285Z"/><path class="cls-4" d="M162.94187,202.56542c.16378.13752.37773.67114.5403.92951.17275.27453.51603-.04414.41863.68731-.15302,1.14902-.63994,2.54326-1.96026,2.75228l-17.55803.00105c-2.56168,1.23239-6.24036.40806-5.4392-3.10059.36471-1.59723,2.68603-1.70585,4.04909-1.8025,4.83729-.34299,12.00054-.30107,16.8641-.01221.58357.03466,2.76057.27244,3.08537.54516Z"/><path class="cls-4" d="M146.57094,219.89887c1.82828-.12169,3.53087.32585,5.306.40662,3.09833.14097,12.65005-1.21741,14.62324-.10776,2.19822,1.2362,2.20209,3.41873-.10323,4.54233l-22.22126-.00996c-5.06201-2.419-1.42772-4.57678,2.39525-4.83122Z"/><path class="cls-6" d="M53.90812,202.96778c1.81257-.20505,9.56569-.58474,10.55158.80036.67839.95308.11798,2.37473-1.08447,2.46348l-8.64427.24262c-1.62304-.5772-.86336-2.21573-.82285-3.50646Z"/><path class="cls-6" d="M249.86665,203.43622c-.13976,4.32485-2.71925,2.6569-5.51221,2.80097-1.34061.06915-2.6955.65607-4.08629.47487.2036-.61146.50984-2.67673.98501-2.88708.3729-.16508,3.13096-.36722,3.80395-.39948,1.59397-.0764,3.21559.07464,4.80953.01073Z"/><path class="cls-6" d="M109.9427,224.19626c-.9169-.90951-1.01603-2.58739.02818-3.44.66587-.54369,3.1552-.61472,3.9884-.46086,1.13506.20961,1.96138,4.17178-.223,4.46134-.97208.12886-3.08076.14659-3.79358-.56048Z"/><path class="cls-5" d="M234.38103,204.4054c.8015,3.53909-2.74468,5.21078-3.19679.95464-.16441-1.54773,2.12981-1.37727,3.19679-.95464Z"/><path class="cls-5" d="M71.46675,204.60529c-.00948.81794.16866,1.83214-.45794,2.46939-2.2654,2.30393-4.04176-3.34635.45794-2.46939Z"/><path class="cls-2" d="M149.02289,257.83901c-4.90598.54162-10.63564.02333-15.87712.14806-1.24702.02968-2.56019.76558-3.48496-.24146l-14.83288-.03335c-1.56801-2.87611.66712-4.19618,3.33679-4.406,8.74124-.68701,18.51801.75022,27.41026-.00121,6.54134,1.14701,14.17159-.76261,20.59853.00412,2.64279.31528,3.18378,3.76089.35864,4.35081-4.88544,1.02014-12.35246-.60845-17.50927.17902Z"/><path class="cls-5" d="M115.63988,239.1176c2.65922.0775,3.71794,2.43111,1.59651,4.12725-2.16643,1.73211-3.39778.50965-5.61099.45527-1.33818-.03288-2.32202.49977-3.52059.50221-1.2641.00257-2.80634-.43734-4.19919-.49546-3.35311-.13991-7.11358.02515-10.53963-.00304-2.76246-.02273-6.67316.52549-9.14098.24463-3.32241-.37812-3.56038-4.14519-1.18242-4.46257,9.38088-.45653,19.26217.90723,28.58346.25487,1.26899-.08881,2.7482-.66004,4.01383-.62316Z"/><path class="cls-2" d="M177.94278,253.38349c6.30076-.41805,12.62437.20773,18.90594.17734,1.26457-.00612,1.46441-.55208,2.75899.2628,3.06738,1.93078.15457,4.33925-2.30875,4.41881-.88684.02864-1.99954-.44136-3.02594-.4889-2.89604-.13413-5.30447.39772-7.96161.48791-2.68581.09117-9.15246.41904-11.47131-.01867-1.10872-.20928-2.42826-1.21317-2.48463-2.45375-.10787-2.37409,3.87997-2.27226,5.58731-2.38554Z"/><path class="cls-5" d="M160.61797,240.26975c4.54254-.32887,9.00112.50471,13.51012.63353,2.14044.06115,4.21521-.80569,6.4527.33697,2.62062,1.33832,1.72318,4.04112-1.30471,4.34397-3.28498.32857-6.49585-.47141-9.6073-.47441-2.82361-.00272-5.63733.66715-8.66124.48685-1.91487-.11417-5.74011-.24813-4.9712-3.1126.03079-.11471.8007-1.64781.87978-1.70186.36337-.24833,3.04691-.46504,3.70184-.51246Z"/><path class="cls-2" d="M206.59386,240.23978c.14247-.23267,2.00471-.6963,2.42106-.73864,2.17992-.22166,5.73015-.28506,7.96837-.24828.97148.01596,3.06605.12078,3.95508.25939,1.75378.27344,2.15555,3.1194.91835,3.935-2.07046,1.36491-4.98304.48325-7.21354.49022-1.89711.00592-7.09142,1.06738-7.91126-.98758-.18813-.47156-.33087-2.39522-.13806-2.7101Z"/><path class="cls-5" d="M147.02266,240.49005c2.37865-.49189,3.71355,1.34612,2.53445,3.46948-1.44596,2.60393-4.7571.20119-4.53169-1.48089.11694-.87267,1.13985-1.81128,1.99723-1.98859Z"/><path class="cls-2" d="M126.29501,238.60829c.98202-.58186,3.57114,1.22254,2.29695,3.11655-1.32949,1.97621-4.10673.86051-3.28947-1.41786.07267-.20259.90789-1.64855.99251-1.69869Z"/><path class="cls-6" d="M269.99829,128.96692l-1.0488-.93821-.58535.93823c.06052-1.41653-.58136-3.45127,1.52017-3.28611,1.29854.10206-.02372,2.44937.11399,3.2861Z"/><path class="cls-5" d="M143.29301,172.59274c9.05476-.17431,18.02206.25636,27.07744.17697,2.79676,1.16922,2.39484,5.0348-.92409,5.14086l-36.04032-.0157c-.69606-.10878-2.71001-1.37237-2.90124-2.02754-.39776-1.36274,1.32087-2.95714,2.64671-3.11474,2.80089-.33293,7.13981-.10207,10.1415-.15986Z"/><path class="cls-5" d="M118.24343,187.11306l24.74027.17019c1.90228.35705,1.79354,4.73378-.70941,5.13224l-26.19439-.00047c-2.12527-.33228-1.95899-3.58094-.44629-4.63394.844-.58752,1.65994-.44723,2.60983-.66802Z"/><path class="cls-5" d="M179.16169,186.80859c.56274.03102,1.53942.39673,2.22786.46469,1.53616.15165,5.18605-.39833,5.68209,1.81004.58343,2.59744-.49741,3.36049-2.88025,3.57578-5.41187.48895-10.9988-.40421-16.37489-.47401-2.37127-.03079-7.02719,1.36126-6.46149-2.92872.18198-1.38002,1.63657-1.15247,1.65233-2.44779,5.33233.14038,10.81084-.29453,16.15435,0Z"/><path class="cls-5" d="M222.42591,188.98509c6.26396-.46785,12.80476.53375,19.13877.40898,1.08575-.02139,2.06071-.66415,3.14535.11291.91813.65777,1.03766,3.04094.23185,3.73366-.80335.69061-5.71635.28285-7.14253.34941-5.52435.25782-11.31428,1.3145-16.82692.45787-1.064-.16534-3.28339-2.16191-3.15203-3.0865.24963-1.75709,3.26568-1.87627,4.60551-1.97635Z"/><path class="cls-5" d="M83.32502,193.04997c-1.81894,1.89373-4.12003.52711-6.12245.52973-.96113.00126-1.71292.43006-2.57807.48621-3.77838.24525-8.9196.54479-12.63674.2327-1.61749-.1358-3.08132-.40807-3.91426-1.93913-2.32441-4.27263,4.14724-2.52572,6.24218-3.21878,5.38542.49439,11.85411-.62706,17.10583.00431,1.94869.23427,3.44936,2.29554,1.90351,3.90496Z"/><path class="cls-1" d="M92.30169,137.16448c-.32614,2.16434-2.56504,2.65412-4.4482,2.57544-.43988-2.77994,2.60114-2.19897,4.4482-2.57544Z"/><path class="cls-6" d="M117.58786,152.15047c.11058.67466.00317.56946-.44789.83258-2.4615,1.43585-6.90976,1.51651-9.61931,2.21171.00969-.55401.15773-.8119-.46824-.70253.22013-.13049.64662-.74758,1.18701-1.0383,2.2627-1.21734,6.59101-.77239,9.34844-1.30346Z"/><path class="cls-6" d="M219.66463,84.00511c-.6245.01836-.39145.26928-1.40473,0-.29222-.07766-.6499-.42886-1.17059-.23177l.2341.23177c-3.49383.58809-9.35348-.20605-13.11078-.23418.2432-.38829.88809-.23334,1.28431-.23825,4.11242-.05099,8.8387-.25398,12.88972-.00683.48554.02962.97189.00457,1.27795.47926Z"/><path class="cls-5" d="M218.2599,84.00511c-.29932.03247-.65406-.04754-.93648,0l-.2341-.23177c.52069-.1971.87837.15411,1.17059.23177Z"/></svg>