<svg id="Layer_6" data-name="Layer 6" xmlns="http://www.w3.org/2000/svg" xmlns:xlink="http://www.w3.org/1999/xlink" viewBox="0 0 424.3515 760.32506"><defs><style>.cls-1,.cls-17,.cls-18,.cls-19,.cls-2{stroke:#231f20;}.cls-1,.cls-16,.cls-17,.cls-18,.cls-19,.cls-2{stroke-miterlimit:10;}.cls-1,.cls-16,.cls-17,.cls-18,.cls-2{stroke-width:2px;}.cls-1{fill:url(#linear-gradient);}.cls-2{fill:url(#linear-gradient-2);}.cls-3{fill:#fff;}.cls-4{fill:#eec43b;}.cls-5{fill:#825f3a;}.cls-19,.cls-6{fill:#231f20;}.cls-7{fill:#c5c8ba;}.cls-8{fill:#727565;}.cls-9{fill:#99a08e;}.cls-10,.cls-11,.cls-12,.cls-13,.cls-14,.cls-15{opacity:0.61;}.cls-10{fill:url(#linear-gradient-3);}.cls-11{fill:url(#linear-gradient-4);}.cls-12{fill:url(#linear-gradient-5);}.cls-13{fill:url(#linear-gradient-6);}.cls-14{fill:url(#linear-gradient-7);}.cls-15{fill:url(#linear-gradient-8);}.cls-16,.cls-17,.cls-18{fill:none;}.cls-16{stroke:#fff;}.cls-16,.cls-18{stroke-linecap:round;}</style><linearGradient id="linear-gradient" x1="260.61826" y1="719.10132" x2="298.48495" y2="719.10132" gradientUnits="userSpaceOnUse"><stop offset="0.15707" stop-color="#eec43b"/><stop offset="1" stop-color="#cca933"/></linearGradient><linearGradient id="linear-gradient-2" x1="262.22528" y1="697.52008" x2="300.09197" y2="697.52008" xlink:href="#linear-gradient"/><linearGradient id="linear-gradient-3" x1="50.80494" y1="584.43892" x2="164.99893" y2="584.43892" xlink:href="#linear-gradient"/><linearGradient id="linear-gradient-4" x1="98.52403" y1="676.43428" x2="164.99893" y2="676.43428" gradientUnits="userSpaceOnUse"><stop offset="0.15707" stop-color="#eec43b"/><stop offset="1" stop-color="#b89a2e"/></linearGradient><linearGradient id="linear-gradient-5" x1="307.32097" y1="617.55456" x2="307.32097" y2="681.98342" xlink:href="#linear-gradient-4"/><linearGradient id="linear-gradient-6" x1="221.86499" y1="621.11375" x2="221.86499" y2="750.13644" gradientUnits="userSpaceOnUse"><stop offset="0.31414" stop-color="#eec43b"/><stop offset="1" stop-color="#cca933"/></linearGradient><linearGradient id="linear-gradient-7" x1="291.51916" y1="698.24414" x2="336.72713" y2="698.24414" xlink:href="#linear-gradient"/><linearGradient id="linear-gradient-8" x1="256.05339" y1="595.72319" x2="390.95586" y2="595.72319" xlink:href="#linear-gradient"/></defs><title>phippy-color</title><path class="cls-1" d="M298.485,717.59763c-23.393,6.29651-37.86669.75108-37.86669.75108"/><polyline class="cls-2" points="262.225 718.349 269.273 676.691 299.25 676.691 300.092 717.598"/><ellipse class="cls-3" cx="119.37081" cy="111.37701" rx="66.1633" ry="38.5936"/><path class="cls-4" d="M411.32794,585.10958c2.43954,21.14272-5.42121,17.34787-5.42121,17.34787-3.25273,12.46879-8.40288,7.86076-8.40288,7.86076-.54212,1.08424-6.55967,2.71061-6.55967,2.71061a163.37585,163.37585,0,0,0-1.30109-18.16106c-3.12262-23.70154-10.00755-47.21876-21.47884-67.57.46623.11926,12.42542,3.372,20.3946,19.32119C396.69067,562.88261,411.14362,583.49405,411.32794,585.10958Z"/><path class="cls-4" d="M91.87763,132.22157a55.90619,55.90619,0,0,0,3.32862-9.7365h-.01084s5.85491-29.9793-11.493-30.70574a21.23932,21.23932,0,0,0-15.53719,11.66645,2.917,2.917,0,0,0-.206.412,5.0788,5.0788,0,0,0-.23853.54212.15411.15411,0,0,0-.02168.065c-1.77816,4.12013-2.73229,9.57386-2.06006,16.77323a35.91649,35.91649,0,0,0,.97581,5.779.09771.09771,0,0,1,.01085.05422,11.7165,11.7165,0,0,0,2.3528,5.62721,10.80593,10.80593,0,0,0,9.21606,5.35616H78.227a5.39864,5.39864,0,0,0,1.377-.02168,19.49052,19.49052,0,0,0,6.09344-1.5071c2.548-.824,4.69477-1.64805,4.69477-1.64805.05421-.39033.09758-.78065.141-1.171A4.5407,4.5407,0,0,0,91.87763,132.22157Zm46.655-1.56131c.32527.68307,1.95163,1.83237,4.32612,2.9383a15.55261,15.55261,0,0,0,5.83323,2.06006h.01084c4.30444,1.10592,9.27027,1.47456,13.43376-.16264.206-.01084.31443-.02169.31443-.02169,0-.03252.01084-.07589.01084-.10842,4.02254-1.70226,7.25358-5.35616,8.34867-12.14351,3.18767-19.87417-8.67394-26.95427-15.09265-29.29623a12.76912,12.76912,0,0,0-9.41123.10842c-4.131,1.77816-6.41871,5.37785-7.62222,9.47628-.09758.32527-.19516.68307-.2819,1.06256q-.16264.63427-.29275,1.36614c-.08674.46623-.17348.95414-.23853,1.46373-.03253.19516-.06506.412-.08674.618a66.72874,66.72874,0,0,0-.52044,8.00171,64.58971,64.58971,0,0,0,.53128,9.563c.03253.24938.0759.48791.11927.72645C138.09888,127.81954,138.30488,129.27243,138.53258,130.66026Zm100.0864,329.176,1.05172-.32527c15.72151-4.79235,62.69089,4.70561,95.21816,29.10106,13.81324,10.36536,24.79662,23.65817,33.26455,38.68577h.01084c11.47129,20.35122,18.35622,43.86844,21.47884,67.57a163.37585,163.37585,0,0,1,1.30109,18.16106c.759,37.6991-8.89078,79.97371-12.14351,96.45419-3.79485,19.20193-13.553,22.5414-30.90091,26.87837s-33.06939,2.7106-43.45643-8.67394c-10.27862-11.25444-11.2978-46.48147-11.31949-47.28381a151.34206,151.34206,0,0,1-22.021,1.583,160.90619,160.90619,0,0,1-20.2428,58.16959c-8.13182,14.09515-56.92272,13.01091-69.39151,0-6.603-6.88493-12.43626-31.07438-16.46964-52.32553,0,0-2.5046,31.72493-7.92581,43.4998-5.33447,11.59055-61.25969,18.6056-74.81272-7.03673-13.4446-25.44717-22.56308-110.05059-23.051-112.64193,0-.02169-.01084-.03253-.01084-.04337-14.13852-57.05283-4.98752-119.2016-4.98752-119.2016.1518-3.25273,10.70147-76.9812,15.03844-103.003S74.63818,267.6109,74.63818,267.6109a90.345,90.345,0,0,0,29.30707-.18432s39.03272-3.97917,47.70666-36.86424-11.92667-56.0228-11.92667-56.0228-20.9584-28.5481-70.47575-14.81075c-49.32218,13.6723-38.40386,67.1905-37.95932,69.00118-.47707-.76981-15.90584-25.71822-16.25279-31.42134-.3578-5.779,2.89492-18.43212,11.20022-44.08529,3.39368-10.48462,7.82823-24.18945,12.02425-36.951,6.06091-18.4538,11.63392-34.94513,12.91332-36.97266a32.81465,32.81465,0,0,0,2.02754-4.20686c1.57215-3.58884,3.56715-7.9475,7.47043-10.41957a45.60744,45.60744,0,0,1,7.55716-3.05756q2.22813-.74813,4.99836-1.583a205.97978,205.97978,0,0,1,38.66408-7.362,179.38212,179.38212,0,0,1,48.1512,1.74563,135.13649,135.13649,0,0,1,37.75332,12.57721c1.583.80234,3.15514,1.65889,4.71645,2.548,0,0,24.37377-23.8208,45.343-10.60389,13.91083,8.77152,11.07011,29.31791,6.4404,41.66743,0,0-7.08011,24.74241-32.93929,35.20535,1.81069,30.65153,3.90328,64.94611,3.75148,72.796-.27106,14.36621,0,16.80575-7.58969,23.31121a65.65643,65.65643,0,0,1-5.97418,4.39118s-19.77658,68.30726,27.06269,223.52739ZM159.35,81.83683c1.56131-4.39118-1.96248-6.744-5.46458-7.98a18.49042,18.49042,0,0,0-11.23275-.37948c-2.24439.6397-4.45624,1.72394-5.11763,3.578-1.45288,4.12012,3.70811,6.31029,3.70811,6.31029S156.50931,89.806,159.35,81.83683ZM76.29707,85.816s16.53469-1.08425,15.49382-9.48712C91.22708,71.71,87.00938,71.18957,83.3338,71.645a18.67506,18.67506,0,0,0-10.21356,4.69477c-1.71311,1.583-3.20936,3.54547-2.97083,5.49711C70.69153,86.1738,76.29707,85.816,76.29707,85.816Z"/><path class="cls-5" d="M197.22261,27.16933c4.30444,10.0943,3.372,17.2503.57465,39.82422a135.13649,135.13649,0,0,0-37.75332-12.57721s-2.43954-21.27283,11.66645-35.33546c8.82573-8.7932,16.06847-4.72729,20.26449-.44454A26.87124,26.87124,0,0,1,197.22261,27.16933Z"/><path class="cls-3" d="M160.75954,103.359c3.8599,0,6.98252,3.578,6.98252,7.99086a7.99,7.99,0,0,1-4.5755,7.503c-.54212-7.39453-2.48291-12.04593-5.03088-14.89749A6.00488,6.00488,0,0,1,160.75954,103.359Z"/><path class="cls-6" d="M137.78445,108.02128c.02168-.206.05421-.412.08674-.618.065-.50959.15179-.9975.23853-1.46373q.13011-.68307.29275-1.36614c.08674-.37949.18432-.73729.2819-1.06256a7.0909,7.0909,0,0,1,.65054-1.55047s11.75319-5.89827,18.80077,1.995a8.03264,8.03264,0,0,0-4.34782,7.39453c0,4.42371,3.12262,8.00171,6.97168,8.00171a6.01669,6.01669,0,0,0,2.407-.49875,83.08728,83.08728,0,0,1-.70476,16.513l-.32527.13011c-1.81068.09758-10.85327.553-13.43376.16264h-.01084a34.34646,34.34646,0,0,1-5.83323-2.06006,10.74436,10.74436,0,0,1-4.94414-7.28611A91.98479,91.98479,0,0,1,137.264,116.023,66.72874,66.72874,0,0,1,137.78445,108.02128Z"/><path class="cls-6" d="M162.4618,135.36587c0,.03253-.01084.0759-.01084.10842,0,0-.10842.01085-.31443.02169Z"/><path class="cls-3" d="M163.16656,118.85286a6.01669,6.01669,0,0,1-2.407.49875c-3.84906,0-6.97168-3.578-6.97168-8.00171a8.03264,8.03264,0,0,1,4.34782-7.39453C160.68365,106.80693,162.62444,111.45833,163.16656,118.85286Z"/><path class="cls-5" d="M153.88545,73.8568c3.5021,1.236,7.02589,3.58885,5.46458,7.98-2.84072,7.96918-18.10685,1.52878-18.10685,1.52878s-5.161-2.19017-3.70811-6.31029c.66139-1.85406,2.87324-2.9383,5.11763-3.578A18.49042,18.49042,0,0,1,153.88545,73.8568Z"/><path class="cls-7" d="M127.083,219.8934a42.99732,42.99732,0,0,1-9.04258-.19516v.02168A63.66882,63.66882,0,0,1,72.05768,235.2788l-.01084.13011s2.342,3.28525,6.40787,15.11433c.50959,1.51794,1.06256,3.166,1.63721,4.97668,3.19851,10.06177,16.101,7.96918,26.05434,3.88158a30.51162,30.51162,0,0,0,16.925-17.08765c.30359-.78066.60718-1.59384.88908-2.43955A55.49047,55.49047,0,0,0,127.083,219.8934Zm12.64226-45.35386s20.60061,23.13773,11.92667,56.0228-47.70666,36.86424-47.70666,36.86424a90.345,90.345,0,0,1-29.30707.18432c-16.97924-2.8624-36.35465-12.23025-43.33717-38.85924a.0336.0336,0,0,0-.01084-.02169c-.44454-1.81068-11.36286-55.32888,37.95932-69.00118C118.76684,145.99144,139.72524,174.53954,139.72524,174.53954Zm-17.42377,16.84913c3.79485-2.98167-2.71061-9.48712-5.56216-10.3003-2.84072-.81318-7.99087.27106-5.55133,6.50545S122.30147,191.38867,122.30147,191.38867Zm-62.268-3.925c2.43955-6.23439-2.7106-7.31863-5.55132-6.50545-2.85156.81318-9.357,7.31863-5.56216,10.3003C48.92,191.25856,57.59389,193.69811,60.03343,187.46371Z"/><path class="cls-6" d="M142.8587,133.59856a34.34646,34.34646,0,0,0,5.83323,2.06006A15.55261,15.55261,0,0,1,142.8587,133.59856Z"/><path class="cls-6" d="M138.40247,104.57339q-.16264.68307-.29275,1.36614Q138.23983,105.20767,138.40247,104.57339Z"/><path class="cls-6" d="M137.91456,126.31245c-.04337-.23854-.08674-.47707-.11927-.72645a64.58971,64.58971,0,0,1-.53128-9.563A91.98479,91.98479,0,0,0,137.91456,126.31245Z"/><path class="cls-6" d="M137.87119,107.40326c-.03253.206-.06506.412-.08674.618C137.80613,107.81527,137.83866,107.59842,137.87119,107.40326Z"/><path class="cls-8" d="M127.083,219.8934a55.49047,55.49047,0,0,1-3.12262,19.9609c-27.865-11.95919-45.06111,10.0943-45.50565,10.66894-4.06591-11.82908-6.40787-15.11433-6.40787-15.11433l.01084-.13011a63.66882,63.66882,0,0,0,45.98272-15.55888v-.02168A42.99732,42.99732,0,0,0,127.083,219.8934Z"/><path class="cls-9" d="M123.96036,239.8543c-.2819.84571-.58549,1.65889-.88908,2.43955a30.51162,30.51162,0,0,1-16.925,17.08765c-9.95335,4.0876-22.85583,6.18019-26.05434-3.88158-.57465-1.81069-1.12762-3.45874-1.63721-4.97668C78.89925,249.9486,96.09533,227.89511,123.96036,239.8543Z"/><path class="cls-8" d="M116.73931,181.08837c2.85155.81318,9.357,7.31863,5.56216,10.3003,0,0-8.67394,2.43954-11.11349-3.79485S113.89859,180.27519,116.73931,181.08837Z"/><path class="cls-5" d="M111.806,51.81416l.08674.85655a205.97978,205.97978,0,0,0-38.66408,7.362s-6.96083-21.65232,4.15265-38.187c6.95-10.33283,14.84328-7.75233,19.78742-4.35865a23.60575,23.60575,0,0,1,6.809,7.35116C107.20882,30.16184,110.60249,39.58391,111.806,51.81416Z"/><path class="cls-5" d="M91.79089,76.32888C92.83176,84.73175,76.29707,85.816,76.29707,85.816s-5.60554.3578-6.14766-3.97917c-.23853-1.95164,1.25772-3.91412,2.97083-5.49711A18.67506,18.67506,0,0,1,83.3338,71.645C87.00938,71.18957,91.22708,71.71,91.79089,76.32888Z"/><path class="cls-3" d="M87.04191,103.359c3.33946,0,6.05007,3.578,6.05007,7.99086a9.22438,9.22438,0,0,1-2.02753,5.96334c-.62886-7.10179-2.62387-11.36286-5.19352-13.80241A4.68657,4.68657,0,0,1,87.04191,103.359Z"/><path class="cls-6" d="M91.06445,117.31324a79.62433,79.62433,0,0,1-.53128,16.39374,20.24818,20.24818,0,0,1-4.83572,2.819,37.06486,37.06486,0,0,1-6.09344,1.5071c-.46623.02168-.92161.03252-1.377.02168h-.03253a15.25676,15.25676,0,0,1-9.21606-5.35616,19.65083,19.65083,0,0,1-2.36365-5.68143c-1.03-7.24273-.52043-18.22611,1.08425-22.55224a.15411.15411,0,0,1,.02168-.065c.0759-.18432.16264-.36864.23853-.54212a2.917,2.917,0,0,1,.206-.412s10.87495-6.42956,17.70568.065c-2.78651.7156-4.88994,3.95749-4.88994,7.83907,0,4.42371,2.71061,8.00171,6.06092,8.00171A5.26448,5.26448,0,0,0,91.06445,117.31324Z"/><path class="cls-6" d="M90.53317,133.707c-.04337.39033-.08674.78065-.141,1.171,0,0-2.1468.824-4.69477,1.64805A20.24818,20.24818,0,0,0,90.53317,133.707Z"/><path class="cls-3" d="M91.06445,117.31324a5.26448,5.26448,0,0,1-4.02254,2.03837c-3.35031,0-6.06092-3.578-6.06092-8.00171,0-3.88158,2.10343-7.12347,4.88994-7.83907C88.44058,105.95038,90.43559,110.21145,91.06445,117.31324Z"/><path class="cls-6" d="M78.227,138.05479c.45538.01084.91076,0,1.377-.02168A5.39864,5.39864,0,0,1,78.227,138.05479Z"/><path class="cls-6" d="M67.95924,103.85779c-.07589.17348-.16263.3578-.23853.54212A5.0788,5.0788,0,0,1,67.95924,103.85779Z"/><path class="cls-6" d="M66.61478,127.0172a19.65083,19.65083,0,0,0,2.36365,5.68143,11.7165,11.7165,0,0,1-2.3528-5.62721A.09771.09771,0,0,0,66.61478,127.0172Z"/><path class="cls-4" d="M53.20271,75.09284a32.81465,32.81465,0,0,1-2.02754,4.20686c-1.2794,2.02753-6.85241,18.51886-12.91332,36.97266-2.03838-1.6372-4.10928-3.54547-5.97418-5.37784A49.829,49.829,0,0,1,20.4369,92.75515c-4.64055-12.33868-9.19437-32.16947,4.71646-40.941C46.1226,38.59724,68.2303,61.61571,68.2303,61.61571a45.60744,45.60744,0,0,0-7.55716,3.05756C56.76986,67.14534,54.77486,71.504,53.20271,75.09284Z"/><path class="cls-8" d="M54.48211,180.95826c2.84072-.81318,7.99087.27106,5.55132,6.50545S48.92,191.25856,48.92,191.25856C45.1251,188.27689,51.63055,181.77144,54.48211,180.95826Z"/><path class="cls-5" d="M396.18454,599.92717a38.45746,38.45746,0,0,0-.80218,7.18688c-.04035,2.71776,3.2626,3.082,4.65868,1.2618a11.87376,11.87376,0,0,0,2.03162-9.80616c-.51-2.39211-4.29967-2.37655-4.8214,0a24.23305,24.23305,0,0,0-.16747,9.59053c.37309,2.10316,3.63057,2.43643,4.56938.5972a13.15147,13.15147,0,0,0,1.50426-7.109c-.25155-3.1651-4.99088-3.26258-5,0a12.577,12.577,0,0,1-.53644,3.63017c-.6957,2.36093,2.4691,4.26472,4.17847,2.43237a13.36071,13.36071,0,0,0,3.534-6.99348l-4.8214-1.32919c-.12649.93112-.10746.09138.73207-.12983h1.3292q.98905.70406.43405.0907a1.24733,1.24733,0,0,0-.33965-.37647,3.42893,3.42893,0,0,0-1.24736-.76641,4.16688,4.16688,0,0,0-2.44511-.11257,4.9404,4.9404,0,0,0-1.92925,1.02151c-.30909.25757-1.22339,1.61776-1.44938,1.70114h1.3292l-.3176-.12846,1.7461,3.07529.03892-.18194-1.7461,1.74609.20028-.06731-2.82328-1.1489.06551.11928c1.54937,2.82115,5.86873.30121,4.31736-2.52359l-.06551-.11928a2.52576,2.52576,0,0,0-2.82328-1.1489,2.70082,2.70082,0,0,0-1.9853,1.99535,2.58886,2.58886,0,0,0,1.7461,3.0753c1.44474.5844,2.82-.23633,3.8175-1.25947a4.93729,4.93729,0,0,0,1.04888-1.26q.79677-.30667-1.00029-.47174a4.18332,4.18332,0,0,0,.54754.67027c2.20881,2.23682,5.277.207,5.6408-2.47085a2.59074,2.59074,0,0,0-1.7461-3.07529,2.51774,2.51774,0,0,0-3.0753,1.7461,8.79159,8.79159,0,0,1-2.24818,4.78714l4.17847,2.43236a17.63235,17.63235,0,0,0,.715-4.95937h-5a8.2979,8.2979,0,0,1-.82161,4.58541l4.56937.5972a17.76221,17.76221,0,0,1,.16747-6.93215h-4.8214a7.10481,7.10481,0,0,1-1.52758,5.95337l4.65868,1.2618a31.14013,31.14013,0,0,1,.62357-5.85769c.64609-3.14063-4.17243-4.48379-4.82139-1.32919Z"/><path class="cls-5" d="M393.22477,602.52626a18.321,18.321,0,0,0-1.49548,4.7347c-.49634,3.1159,3.84814,4.47233,4.8214,1.3292l.485-1.56615-4.82139-1.3292-.48285,1.98284,4.9107.6646.0296-1.05085c.06824-2.42265-3.52187-3.48073-4.65868-1.2618a2.81565,2.81565,0,0,0,.89969,3.77669c1.397.89687,2.93339.24418,3.95191-.85056a27.08575,27.08575,0,0,0,4.92974-8.1755,2.51752,2.51752,0,0,0-1.7461-3.07529,2.56056,2.56056,0,0,0-3.0753,1.7461,23.26011,23.26011,0,0,1-1.82783,3.48c-.305.48365-.62447.96227-.96347,1.42288q-.31535.43829-.66631.84868-.83079.81426.18586.13017l1.9264.252.61854.60923v2.52359l.08422-.16439-4.65867-1.2618-.0296,1.05085c-.079,2.803,4.24059,3.4164,4.91069.6646l.48285-1.98284a2.50216,2.50216,0,0,0-4.82139-1.3292l-.485,1.56615,4.8214,1.3292a13.72407,13.72407,0,0,1,.99143-3.5403,2.57922,2.57922,0,0,0-.89688-3.42048,2.51758,2.51758,0,0,0-3.42047.89688Z"/><path class="cls-5" d="M399.54753,599.03414a4.189,4.189,0,0,0-2.59986-1.86771c-1.20937-.25615-2.84979.34885-3.07529,1.74609a9.03232,9.03232,0,0,1-1.24656,3.42934l4.65867,1.2618-.57514-4.3013a2.58334,2.58334,0,0,0-2.5-2.5,2.526,2.526,0,0,0-2.5,2.5,28.76341,28.76341,0,0,1-.344,5.91894l4.82139,1.3292a12.155,12.155,0,0,0-1.43684-8.17c-1.614-2.78231-5.93663-.26785-4.31735,2.52359a6.66353,6.66353,0,0,1,.9328,4.3172,2.58072,2.58072,0,0,0,1.7461,3.0753,2.5206,2.5206,0,0,0,3.07529-1.7461,35.16308,35.16308,0,0,0,.52265-7.24814h-5l.57514,4.3013c.3119,2.33253,3.2416,3.5598,4.65868,1.26179a12.65686,12.65686,0,0,0,1.7506-4.62373l-3.07529,1.7461-.3883-.43008a2.57257,2.57257,0,0,0,3.42048.89688,2.51949,2.51949,0,0,0,.89687-3.42048Z"/><path class="cls-5" d="M391.30548,608.58884l-.03684.252a1.54271,1.54271,0,0,0,.68934,1.694c2.11969.898,3.60972-.67034,3.96441-2.76181.192-1.1319-1.03237-2.54936-2.2035-1.694a5.15657,5.15657,0,0,0-2.31315,3.43639,1.513,1.513,0,0,0,2.50708,1.45942q3.62454-3.20619,7.43387-6.1849l-2.50708-.6619.8244,3.29712a1.50946,1.50946,0,0,0,2.50708.66191l2.69268-3.42814-2.50707-.6619-.10478,1.77255,2.94642.39876a66.21435,66.21435,0,0,1,1.52035-11.28471c.41991-1.88077-2.47166-2.684-2.89283-.79752a70.90308,70.90308,0,0,0-1.62752,12.08223,1.50678,1.50678,0,0,0,2.94642.39876,7.87948,7.87948,0,0,0,.10477-3.36759,1.50665,1.50665,0,0,0-2.50708-.6619l-2.69268,3.42814,2.50708.6619-.8244-3.29713a1.52118,1.52118,0,0,0-2.50708-.6619q-3.812,2.98091-7.43387,6.1849l2.50708,1.45942.93447-1.6435-2.2035-1.694.44259.96892.68934,1.694.03684-.252c.276-1.88852-2.61421-2.70378-2.89284-.79752Z"/><path class="cls-5" d="M403.28342,594.8159a10.04114,10.04114,0,0,0,.45475,5.98313c1.27633,3.0552,5.64321,2.76158,5.89284-.79751l.23119-3.29624c.225-3.20751-4.04245-3.75249-5.59041-1.51415a4.547,4.547,0,0,0-.06732,5.06666,3.03581,3.03581,0,0,0,5.48325-.71664,24.314,24.314,0,0,0,.81368-8.912l-5.59041,1.51416.03861.01421,5.89284.79752a11.15159,11.15159,0,0,0-.5331-5.12581c-1.23793-3.63477-7.03539-2.07431-5.78568,1.595a7.16876,7.16876,0,0,1,.31878,3.53078c-.44292,3.3341,5.24193,4.10066,5.89284.79752a6.40365,6.40365,0,0,0-.64347-4.63756c-1.33421-2.52723-5.88183-1.482-5.59041,1.51415a19.62045,19.62045,0,0,1-.59936,7.317l5.48325-.71664.06732.99-5.59041-1.51416-.23119,3.29624,5.89283-.79752a4.56948,4.56948,0,0,1-.45475-2.79307c.72247-3.77305-5.05915-5.38927-5.78567-1.595Z"/><path class="cls-5" d="M406.13015,589.05614a5.07041,5.07041,0,0,0-2.44143-.75382,3.00437,3.00437,0,0,0-2.89284,2.20248l-1.53782,5.82015h5.78567l-1.29949-5.88131c-.794-3.59353-5.49854-2.28592-5.89284.79751l-.94722,7.40723,5.89283-.79752-1.51455-5.92278c-.89146-3.48608-5.5618-2.39453-5.89284.79752a56.45992,56.45992,0,0,0-.26662,7.84457l5.89284-.79752a33.35293,33.35293,0,0,0-1.58622-5.33827c-.98957-2.5382-5.05132-3.14538-5.78567,0a29.39732,29.39732,0,0,0-.78976,6.78962l5.59041-1.51415a4.4658,4.4658,0,0,1-.56329-3.19551c.3239-2.51376-3.55354-4.05512-5.12132-2.12132a7.23064,7.23064,0,0,0-1.86559,5.393l5.89284-.79752q-.19939-1.74564-1.56935.0545c3.86246.09592,3.86058-5.90413,0-6-4.24109-.10531-5.44672,4.16109-4.21633,7.54053,1.07054,2.9404,6.23757,2.80873,5.89284-.79751-.03187-.33338-.13968-.84457.10823-1.15036l-5.12132-2.12132a9.63552,9.63552,0,0,0,1.38247,6.22382,3.02366,3.02366,0,0,0,5.59041-1.51416,22.17455,22.17455,0,0,1,.57543-5.19458H393.644a33.3529,33.3529,0,0,1,1.58621,5.33827c.69141,3.31008,6.01211,2.57135,5.89284-.79752a56.45976,56.45976,0,0,1,.26662-7.84457l-5.89284.79752,1.51456,5.92278c.90547,3.54091,5.49213,2.336,5.89284-.79752l.94722-7.40723-5.89284.79752,1.2995,5.88131c.64794,2.93246,5.05037,2.78289,5.78567,0l1.53782-5.82015-2.89283,2.20249-.58688-.06535c3.22051,2.14976,6.22788-3.045,3.02831-5.18083Z"/><path class="cls-5" d="M403.91166,592.72444l.05656-.36781-.77152,1.3238.26243-.27322-1.3238.77152.36523-.07132-3.69035-2.09532a3.8065,3.8065,0,0,0,5.25333,2.49214,4.07012,4.07012,0,0,0,2.18636-2.368,6.48806,6.48806,0,0,0,.36959-1.72022c.06411-.6337.25971-.64251-.19068-.18205h-4.24264a5.13275,5.13275,0,0,0,3.47057,1.47591,3.075,3.075,0,0,0,2.89283-2.20248,8.27034,8.27034,0,0,0,.589-3.30335l-4.51415,2.59041,1.851.87424a3.08385,3.08385,0,0,0,4.10457-1.07625,3.02573,3.02573,0,0,0-1.07626-4.10457l-1.851-.87424c-1.97966-.935-4.54863.15719-4.51416,2.59041a4.0023,4.0023,0,0,1-.37464,1.70832l2.89284-2.20249.77207.28145a3.04767,3.04767,0,0,0-4.24264,0,4.95381,4.95381,0,0,0-1.3173,2.2769,8.30557,8.30557,0,0,0-.1698,1.18278q-.02613.28917-.0436.579-.19938,1.7283,2.7542-.97275l1.07625,1.07626.11.28361c-.324-1.67491-2.20249-2.38586-3.69035-2.09532a3.48538,3.48538,0,0,0-2.77955,2.80766,3.09593,3.09593,0,0,0,2.09532,3.69036c1.42085.3904,3.44263-.48432,3.69036-2.09532Z"/><path class="cls-5" d="M408.15472,584.90506l.07953.01191-.6619-.38575-.27715-.45442v-.79752l.09695-.20458.53812-.53812-.07064.0432.75708-.2048-.09773.0033.75708.20479.33917.32943.20479.75708-.03016.2026a1.48976,1.48976,0,0,0-.53755-1.57669,1.534,1.534,0,0,0-1.666-.11728,2.35139,2.35139,0,0,0-1.14809,2.68529,1.51151,1.51151,0,0,0,2.89283,0,3.72919,3.72919,0,0,0-.841-3.25289,1.5123,1.5123,0,0,0-2.50708.6619l-.62822,2.07413a1.51485,1.51485,0,0,0,1.04766,1.84517,1.5311,1.5311,0,0,0,1.84518-1.04765l.62822-2.07413-2.50708.6619c-.10331-.12447-.0048-.0145.021.05763-.07019-.196.01275.04332.03639.12249.06471.2167.007-.18644.00849.03945.00044.06586-.04521.36078.00358.11448h2.89283a.73391.73391,0,0,1-.081.51294q-.48051.37776-.14958.18971l-2.2035-1.694a1.76314,1.76314,0,0,0,2.51209,2.07393c1.19913-.70453,1.06267-2.90866-.45687-3.13637a1.54064,1.54064,0,0,0-1.84518,1.04766,1.517,1.517,0,0,0,1.04766,1.84518Z"/><path class="cls-5" d="M389.9924,594.01516a4.85944,4.85944,0,0,0-.2273,2.10865,1.50105,1.50105,0,0,0,3,0,4.74994,4.74994,0,0,0-.50179-2.68274c-.70564-1.5237-3.36549-.43141-2.74162,1.15584a2.06579,2.06579,0,0,0,3.57514.66812c.49844-.532.75534-1.11165,1.40457-1.49491a3.3313,3.3313,0,0,1,2.1032-.393c1.921.18213,1.90849-2.81906,0-3a6.01983,6.01983,0,0,0-4.59039,1.51947,5.31959,5.31959,0,0,0-.57258.59281l-.23455.30358q-.592.5794.59672.31l.68934.89645-.07862-.2-2.74162,1.15584a2.02148,2.02148,0,0,1,.0922,1.16858h3a2.77784,2.77784,0,0,1,.12014-1.31113c.60529-1.838-2.29074-2.62581-2.89284-.79752Z"/><ellipse class="cls-3" cx="119.37081" cy="111.37701" rx="66.1633" ry="38.5936"/><path class="cls-4" d="M411.32794,585.10958c2.43954,21.14272-5.42121,17.34787-5.42121,17.34787-3.25273,12.46879-8.40288,7.86076-8.40288,7.86076-.54212,1.08424-6.55967,2.71061-6.55967,2.71061a163.37585,163.37585,0,0,0-1.30109-18.16106c-3.12262-23.70154-10.00755-47.21876-21.47884-67.57.46623.11926,12.42542,3.372,20.3946,19.32119C396.69067,562.88261,411.14362,583.49405,411.32794,585.10958Z"/><path class="cls-4" d="M95.20625,122.48507h-.01084s5.85491-29.9793-11.493-30.70574a21.23932,21.23932,0,0,0-15.53719,11.66645,2.917,2.917,0,0,0-.206.412,5.0788,5.0788,0,0,0-.23853.54212.15411.15411,0,0,0-.02168.065c-1.77816,4.12013-2.73229,9.57386-2.06006,16.77323a35.91649,35.91649,0,0,0,.97581,5.779.09771.09771,0,0,1,.01085.05422,11.7165,11.7165,0,0,0,2.3528,5.62721,10.80593,10.80593,0,0,0,9.21606,5.35616H78.227a5.39864,5.39864,0,0,0,1.377-.02168,19.49052,19.49052,0,0,0,6.09344-1.5071c2.548-.824,4.69477-1.64805,4.69477-1.64805.05421-.39033.09758-.78065.141-1.171a4.5407,4.5407,0,0,0,1.34446-1.48541A55.90619,55.90619,0,0,0,95.20625,122.48507Zm43.32633,8.17519c.32527.68307,1.95163,1.83237,4.32612,2.9383a15.55261,15.55261,0,0,0,5.83323,2.06006h.01084c4.30444,1.10592,9.27027,1.47456,13.43376-.16264.206-.01084.31443-.02169.31443-.02169,0-.03252.01084-.07589.01084-.10842,4.02254-1.70226,7.25358-5.35616,8.34867-12.14351,3.18767-19.87417-8.67394-26.95427-15.09265-29.29623a12.76912,12.76912,0,0,0-9.41123.10842c-4.131,1.77816-6.41871,5.37785-7.62222,9.47628-.09758.32527-.19516.68307-.2819,1.06256q-.16264.63427-.29275,1.36614c-.08674.46623-.17348.95414-.23853,1.46373-.03253.19516-.06506.412-.08674.618a66.72874,66.72874,0,0,0-.52044,8.00171,64.58971,64.58971,0,0,0,.53128,9.563c.03253.24938.0759.48791.11927.72645C138.09888,127.81954,138.30488,129.27243,138.53258,130.66026Zm100.0864,329.176,1.05172-.32527c15.72151-4.79235,62.69089,4.70561,95.21816,29.10106,13.81324,10.36536,24.79662,23.65817,33.26455,38.68577h.01084c11.47129,20.35122,18.35622,43.86844,21.47884,67.57a163.37585,163.37585,0,0,1,1.30109,18.16106c.759,37.6991-8.89078,79.97371-12.14351,96.45419-3.79485,19.20193-13.553,22.5414-30.90091,26.87837s-33.06939,2.7106-43.45643-8.67394c-10.27862-11.25444-11.2978-46.48147-11.31949-47.28381a151.34206,151.34206,0,0,1-22.021,1.583,160.90619,160.90619,0,0,1-20.2428,58.16959c-8.13182,14.09515-56.92272,13.01091-69.39151,0-6.603-6.88493-12.43626-31.07438-16.46964-52.32553,0,0-2.5046,31.72493-7.92581,43.4998-5.33447,11.59055-61.25969,18.6056-74.81272-7.03673-13.4446-25.44717-22.56308-110.05059-23.051-112.64193,0-.02169-.01084-.03253-.01084-.04337-14.13852-57.05283-4.98752-119.2016-4.98752-119.2016.1518-3.25273,10.70147-76.9812,15.03844-103.003S74.63818,267.6109,74.63818,267.6109a90.345,90.345,0,0,0,29.30707-.18432s39.03272-3.97917,47.70666-36.86424-11.92667-56.0228-11.92667-56.0228-20.9584-28.5481-70.47575-14.81075c-49.32218,13.6723-38.40386,67.1905-37.95932,69.00118-.47707-.76981-15.90584-25.71822-16.25279-31.42134-.3578-5.779,2.89492-18.43212,11.20022-44.08529,3.39368-10.48462,7.82823-24.18945,12.02425-36.951,6.06091-18.4538,11.63392-34.94513,12.91332-36.97266a32.81465,32.81465,0,0,0,2.02754-4.20686c1.57215-3.58884,3.56715-7.9475,7.47043-10.41957a45.60744,45.60744,0,0,1,7.55716-3.05756q2.22813-.74813,4.99836-1.583a205.97978,205.97978,0,0,1,38.66408-7.362,179.38212,179.38212,0,0,1,48.1512,1.74563,135.13649,135.13649,0,0,1,37.75332,12.57721c1.583.80234,3.15514,1.65889,4.71645,2.548,0,0,24.37377-23.8208,45.343-10.60389,13.91083,8.77152,11.07011,29.31791,6.4404,41.66743,0,0-7.08011,24.74241-32.93929,35.20535,1.81069,30.65153,3.90328,64.94611,3.75148,72.796-.27106,14.36621,0,16.80575-7.58969,23.31121a65.65643,65.65643,0,0,1-5.97418,4.39118s-19.77658,68.30726,27.06269,223.52739ZM159.35,81.83683c1.56131-4.39118-1.96248-6.744-5.46458-7.98a18.49042,18.49042,0,0,0-11.23275-.37948c-2.24439.6397-4.45624,1.72394-5.11763,3.578-1.45288,4.12012,3.70811,6.31029,3.70811,6.31029S156.50931,89.806,159.35,81.83683ZM76.29707,85.816s16.53469-1.08425,15.49382-9.48712C91.22708,71.71,87.00938,71.18957,83.3338,71.645a18.67506,18.67506,0,0,0-10.21356,4.69477c-1.71311,1.583-3.20936,3.54547-2.97083,5.49711C70.69153,86.1738,76.29707,85.816,76.29707,85.816Z"/><path class="cls-5" d="M197.22261,27.16933c4.30444,10.0943,3.372,17.2503.57465,39.82422a135.13649,135.13649,0,0,0-37.75332-12.57721s-2.43954-21.27283,11.66645-35.33546c8.82573-8.7932,16.06847-4.72729,20.26449-.44454A26.87124,26.87124,0,0,1,197.22261,27.16933Z"/><path class="cls-3" d="M160.75954,103.359c3.8599,0,6.98252,3.578,6.98252,7.99086a7.99,7.99,0,0,1-4.5755,7.503c-.54212-7.39453-2.48291-12.04593-5.03088-14.89749A6.00488,6.00488,0,0,1,160.75954,103.359Z"/><path class="cls-6" d="M137.78445,108.02128c.02168-.206.05421-.412.08674-.618.065-.50959.15179-.9975.23853-1.46373q.13011-.68307.29275-1.36614c.08674-.37949.18432-.73729.2819-1.06256a7.0909,7.0909,0,0,1,.65054-1.55047s11.75319-5.89827,18.80077,1.995a8.03264,8.03264,0,0,0-4.34782,7.39453c0,4.42371,3.12262,8.00171,6.97168,8.00171a6.01669,6.01669,0,0,0,2.407-.49875,83.08728,83.08728,0,0,1-.70476,16.513l-.32527.13011c-1.81068.09758-10.85327.553-13.43376.16264h-.01084a34.34646,34.34646,0,0,1-5.83323-2.06006,10.74436,10.74436,0,0,1-4.94414-7.28611A91.98479,91.98479,0,0,1,137.264,116.023,66.72874,66.72874,0,0,1,137.78445,108.02128Z"/><path class="cls-6" d="M162.4618,135.36587c0,.03253-.01084.0759-.01084.10842,0,0-.10842.01085-.31443.02169Z"/><path class="cls-3" d="M163.16656,118.85286a6.01669,6.01669,0,0,1-2.407.49875c-3.84906,0-6.97168-3.578-6.97168-8.00171a8.03264,8.03264,0,0,1,4.34782-7.39453C160.68365,106.80693,162.62444,111.45833,163.16656,118.85286Z"/><path class="cls-5" d="M153.88545,73.8568c3.5021,1.236,7.02589,3.58885,5.46458,7.98-2.84072,7.96918-18.10685,1.52878-18.10685,1.52878s-5.161-2.19017-3.70811-6.31029c.66139-1.85406,2.87324-2.9383,5.11763-3.578A18.49042,18.49042,0,0,1,153.88545,73.8568Z"/><path class="cls-7" d="M127.083,219.8934a42.99732,42.99732,0,0,1-9.04258-.19516v.02168A63.66882,63.66882,0,0,1,72.05768,235.2788l-.01084.13011s2.342,3.28525,6.40787,15.11433c.50959,1.51794,1.06256,3.166,1.63721,4.97668,3.19851,10.06177,16.101,7.96918,26.05434,3.88158a30.51162,30.51162,0,0,0,16.925-17.08765c.30359-.78066.60718-1.59384.88908-2.43955A55.49047,55.49047,0,0,0,127.083,219.8934Zm12.64226-45.35386s20.60061,23.13773,11.92667,56.0228-47.70666,36.86424-47.70666,36.86424a90.345,90.345,0,0,1-29.30707.18432c-16.97924-2.8624-36.35465-12.23025-43.33717-38.85924a.0336.0336,0,0,0-.01084-.02169c-.44454-1.81068-11.36286-55.32888,37.95932-69.00118C118.76684,145.99144,139.72524,174.53954,139.72524,174.53954Zm-17.42377,16.84913c3.79485-2.98167-2.71061-9.48712-5.56216-10.3003-2.84072-.81318-7.99087.27106-5.55133,6.50545S122.30147,191.38867,122.30147,191.38867Zm-62.268-3.925c2.43955-6.23439-2.7106-7.31863-5.55132-6.50545-2.85156.81318-9.357,7.31863-5.56216,10.3003C48.92,191.25856,57.59389,193.69811,60.03343,187.46371Z"/><path class="cls-6" d="M142.8587,133.59856a34.34646,34.34646,0,0,0,5.83323,2.06006A15.55261,15.55261,0,0,1,142.8587,133.59856Z"/><path class="cls-6" d="M138.40247,104.57339q-.16264.68307-.29275,1.36614Q138.23983,105.20767,138.40247,104.57339Z"/><path class="cls-6" d="M137.91456,126.31245c-.04337-.23854-.08674-.47707-.11927-.72645a64.58971,64.58971,0,0,1-.53128-9.563A91.98479,91.98479,0,0,0,137.91456,126.31245Z"/><path class="cls-6" d="M137.87119,107.40326c-.03253.206-.06506.412-.08674.618C137.80613,107.81527,137.83866,107.59842,137.87119,107.40326Z"/><path class="cls-8" d="M127.083,219.8934a55.49047,55.49047,0,0,1-3.12262,19.9609c-27.865-11.95919-45.06111,10.0943-45.50565,10.66894-4.06591-11.82908-6.40787-15.11433-6.40787-15.11433l.01084-.13011a63.66882,63.66882,0,0,0,45.98272-15.55888v-.02168A42.99732,42.99732,0,0,0,127.083,219.8934Z"/><path class="cls-9" d="M123.96036,239.8543c-.2819.84571-.58549,1.65889-.88908,2.43955a30.51162,30.51162,0,0,1-16.925,17.08765c-9.95335,4.0876-22.85583,6.18019-26.05434-3.88158-.57465-1.81069-1.12762-3.45874-1.63721-4.97668C78.89925,249.9486,96.09533,227.89511,123.96036,239.8543Z"/><path class="cls-8" d="M116.73931,181.08837c2.85155.81318,9.357,7.31863,5.56216,10.3003,0,0-8.67394,2.43954-11.11349-3.79485S113.89859,180.27519,116.73931,181.08837Z"/><path class="cls-5" d="M111.806,51.81416l.08674.85655a205.97978,205.97978,0,0,0-38.66408,7.362s-6.96083-21.65232,4.15265-38.187c6.95-10.33283,14.84328-7.75233,19.78742-4.35865a23.60575,23.60575,0,0,1,6.809,7.35116C107.20882,30.16184,110.60249,39.58391,111.806,51.81416Z"/><path class="cls-5" d="M91.79089,76.32888C92.83176,84.73175,76.29707,85.816,76.29707,85.816s-5.60554.3578-6.14766-3.97917c-.23853-1.95164,1.25772-3.91412,2.97083-5.49711A18.67506,18.67506,0,0,1,83.3338,71.645C87.00938,71.18957,91.22708,71.71,91.79089,76.32888Z"/><path class="cls-3" d="M87.04191,103.359c3.33946,0,6.05007,3.578,6.05007,7.99086a9.22438,9.22438,0,0,1-2.02753,5.96334c-.62886-7.10179-2.62387-11.36286-5.19352-13.80241A4.68657,4.68657,0,0,1,87.04191,103.359Z"/><path class="cls-6" d="M91.06445,117.31324a79.62433,79.62433,0,0,1-.53128,16.39374,20.24818,20.24818,0,0,1-4.83572,2.819,37.06486,37.06486,0,0,1-6.09344,1.5071c-.46623.02168-.92161.03252-1.377.02168h-.03253a15.25676,15.25676,0,0,1-9.21606-5.35616,19.65083,19.65083,0,0,1-2.36365-5.68143c-1.03-7.24273-.52043-18.22611,1.08425-22.55224a.15411.15411,0,0,1,.02168-.065c.0759-.18432.16264-.36864.23853-.54212a2.917,2.917,0,0,1,.206-.412s10.87495-6.42956,17.70568.065c-2.78651.7156-4.88994,3.95749-4.88994,7.83907,0,4.42371,2.71061,8.00171,6.06092,8.00171A5.26448,5.26448,0,0,0,91.06445,117.31324Z"/><path class="cls-6" d="M90.53317,133.707c-.04337.39033-.08674.78065-.141,1.171,0,0-2.1468.824-4.69477,1.64805A20.24818,20.24818,0,0,0,90.53317,133.707Z"/><path class="cls-3" d="M91.06445,117.31324a5.26448,5.26448,0,0,1-4.02254,2.03837c-3.35031,0-6.06092-3.578-6.06092-8.00171,0-3.88158,2.10343-7.12347,4.88994-7.83907C88.44058,105.95038,90.43559,110.21145,91.06445,117.31324Z"/><path class="cls-6" d="M78.227,138.05479c.45538.01084.91076,0,1.377-.02168A5.39864,5.39864,0,0,1,78.227,138.05479Z"/><path class="cls-6" d="M67.95924,103.85779c-.07589.17348-.16263.3578-.23853.54212A5.0788,5.0788,0,0,1,67.95924,103.85779Z"/><path class="cls-6" d="M66.61478,127.0172a19.65083,19.65083,0,0,0,2.36365,5.68143,11.7165,11.7165,0,0,1-2.3528-5.62721A.09771.09771,0,0,0,66.61478,127.0172Z"/><path class="cls-4" d="M53.20271,75.09284a32.81465,32.81465,0,0,1-2.02754,4.20686c-1.2794,2.02753-6.85241,18.51886-12.91332,36.97266-2.03838-1.6372-4.10928-3.54547-5.97418-5.37784A49.829,49.829,0,0,1,20.4369,92.75515c-4.64055-12.33868-9.19437-32.16947,4.71646-40.941C46.1226,38.59724,68.2303,61.61571,68.2303,61.61571a45.60744,45.60744,0,0,0-7.55716,3.05756C56.76986,67.14534,54.77486,71.504,53.20271,75.09284Z"/><path class="cls-8" d="M54.48211,180.95826c2.84072-.81318,7.99087.27106,5.55132,6.50545S48.92,191.25856,48.92,191.25856C45.1251,188.27689,51.63055,181.77144,54.48211,180.95826Z"/><path class="cls-5" d="M396.18454,599.92717a38.45746,38.45746,0,0,0-.80218,7.18688c-.04035,2.71776,3.2626,3.082,4.65868,1.2618a11.87376,11.87376,0,0,0,2.03162-9.80616c-.51-2.39211-4.29967-2.37655-4.8214,0a24.23305,24.23305,0,0,0-.16747,9.59053c.37309,2.10316,3.63057,2.43643,4.56938.5972a13.15147,13.15147,0,0,0,1.50426-7.109c-.25155-3.1651-4.99088-3.26258-5,0a12.577,12.577,0,0,1-.53644,3.63017c-.6957,2.36093,2.4691,4.26472,4.17847,2.43237a13.36071,13.36071,0,0,0,3.534-6.99348l-4.8214-1.32919c-.12649.93112-.10746.09138.73207-.12983h1.3292q.98905.70406.43405.0907a1.24733,1.24733,0,0,0-.33965-.37647,3.42893,3.42893,0,0,0-1.24736-.76641,4.16688,4.16688,0,0,0-2.44511-.11257,4.9404,4.9404,0,0,0-1.92925,1.02151c-.30909.25757-1.22339,1.61776-1.44938,1.70114h1.3292l-.3176-.12846,1.7461,3.07529.03892-.18194-1.7461,1.74609.20028-.06731-2.82328-1.1489.06551.11928c1.54937,2.82115,5.86873.30121,4.31736-2.52359l-.06551-.11928a2.52576,2.52576,0,0,0-2.82328-1.1489,2.70082,2.70082,0,0,0-1.9853,1.99535,2.58886,2.58886,0,0,0,1.7461,3.0753c1.44474.5844,2.82-.23633,3.8175-1.25947a4.93729,4.93729,0,0,0,1.04888-1.26q.79677-.30667-1.00029-.47174a4.18332,4.18332,0,0,0,.54754.67027c2.20881,2.23682,5.277.207,5.6408-2.47085a2.59074,2.59074,0,0,0-1.7461-3.07529,2.51774,2.51774,0,0,0-3.0753,1.7461,8.79159,8.79159,0,0,1-2.24818,4.78714l4.17847,2.43236a17.63235,17.63235,0,0,0,.715-4.95937h-5a8.2979,8.2979,0,0,1-.82161,4.58541l4.56937.5972a17.76221,17.76221,0,0,1,.16747-6.93215h-4.8214a7.10481,7.10481,0,0,1-1.52758,5.95337l4.65868,1.2618a31.14013,31.14013,0,0,1,.62357-5.85769c.64609-3.14063-4.17243-4.48379-4.82139-1.32919Z"/><path class="cls-5" d="M393.22477,602.52626a18.321,18.321,0,0,0-1.49548,4.7347c-.49634,3.1159,3.84814,4.47233,4.8214,1.3292l.485-1.56615-4.82139-1.3292-.48285,1.98284,4.9107.6646.0296-1.05085c.06824-2.42265-3.52187-3.48073-4.65868-1.2618a2.81565,2.81565,0,0,0,.89969,3.77669c1.397.89687,2.93339.24418,3.95191-.85056a27.08575,27.08575,0,0,0,4.92974-8.1755,2.51752,2.51752,0,0,0-1.7461-3.07529,2.56056,2.56056,0,0,0-3.0753,1.7461,23.26011,23.26011,0,0,1-1.82783,3.48c-.305.48365-.62447.96227-.96347,1.42288q-.31535.43829-.66631.84868-.83079.81426.18586.13017l1.9264.252.61854.60923v2.52359l.08422-.16439-4.65867-1.2618-.0296,1.05085c-.079,2.803,4.24059,3.4164,4.91069.6646l.48285-1.98284a2.50216,2.50216,0,0,0-4.82139-1.3292l-.485,1.56615,4.8214,1.3292a13.72407,13.72407,0,0,1,.99143-3.5403,2.57922,2.57922,0,0,0-.89688-3.42048,2.51758,2.51758,0,0,0-3.42047.89688Z"/><path class="cls-5" d="M399.54753,599.03414a4.189,4.189,0,0,0-2.59986-1.86771c-1.20937-.25615-2.84979.34885-3.07529,1.74609a9.03232,9.03232,0,0,1-1.24656,3.42934l4.65867,1.2618-.57514-4.3013a2.58334,2.58334,0,0,0-2.5-2.5,2.526,2.526,0,0,0-2.5,2.5,28.76341,28.76341,0,0,1-.344,5.91894l4.82139,1.3292a12.155,12.155,0,0,0-1.43684-8.17c-1.614-2.78231-5.93663-.26785-4.31735,2.52359a6.66353,6.66353,0,0,1,.9328,4.3172,2.58072,2.58072,0,0,0,1.7461,3.0753,2.5206,2.5206,0,0,0,3.07529-1.7461,35.16308,35.16308,0,0,0,.52265-7.24814h-5l.57514,4.3013c.3119,2.33253,3.2416,3.5598,4.65868,1.26179a12.65686,12.65686,0,0,0,1.7506-4.62373l-3.07529,1.7461-.3883-.43008a2.57257,2.57257,0,0,0,3.42048.89688,2.51949,2.51949,0,0,0,.89687-3.42048Z"/><path class="cls-5" d="M391.30548,608.58884l-.03684.252a1.54271,1.54271,0,0,0,.68934,1.694c2.11969.898,3.60972-.67034,3.96441-2.76181.192-1.1319-1.03237-2.54936-2.2035-1.694a5.15657,5.15657,0,0,0-2.31315,3.43639,1.513,1.513,0,0,0,2.50708,1.45942q3.62454-3.20619,7.43387-6.1849l-2.50708-.6619.8244,3.29712a1.50946,1.50946,0,0,0,2.50708.66191l2.69268-3.42814-2.50707-.6619-.10478,1.77255,2.94642.39876a66.21435,66.21435,0,0,1,1.52035-11.28471c.41991-1.88077-2.47166-2.684-2.89283-.79752a70.90308,70.90308,0,0,0-1.62752,12.08223,1.50678,1.50678,0,0,0,2.94642.39876,7.87948,7.87948,0,0,0,.10477-3.36759,1.50665,1.50665,0,0,0-2.50708-.6619l-2.69268,3.42814,2.50708.6619-.8244-3.29713a1.52118,1.52118,0,0,0-2.50708-.6619q-3.812,2.98091-7.43387,6.1849l2.50708,1.45942.93447-1.6435-2.2035-1.694.44259.96892.68934,1.694.03684-.252c.276-1.88852-2.61421-2.70378-2.89284-.79752Z"/><path class="cls-5" d="M403.28342,594.8159a10.04114,10.04114,0,0,0,.45475,5.98313c1.27633,3.0552,5.64321,2.76158,5.89284-.79751l.23119-3.29624c.225-3.20751-4.04245-3.75249-5.59041-1.51415a4.547,4.547,0,0,0-.06732,5.06666,3.03581,3.03581,0,0,0,5.48325-.71664,24.314,24.314,0,0,0,.81368-8.912l-5.59041,1.51416.03861.01421,5.89284.79752a11.15159,11.15159,0,0,0-.5331-5.12581c-1.23793-3.63477-7.03539-2.07431-5.78568,1.595a7.16876,7.16876,0,0,1,.31878,3.53078c-.44292,3.3341,5.24193,4.10066,5.89284.79752a6.40365,6.40365,0,0,0-.64347-4.63756c-1.33421-2.52723-5.88183-1.482-5.59041,1.51415a19.62045,19.62045,0,0,1-.59936,7.317l5.48325-.71664.06732.99-5.59041-1.51416-.23119,3.29624,5.89283-.79752a4.56948,4.56948,0,0,1-.45475-2.79307c.72247-3.77305-5.05915-5.38927-5.78567-1.595Z"/><path class="cls-5" d="M406.13015,589.05614a5.07041,5.07041,0,0,0-2.44143-.75382,3.00437,3.00437,0,0,0-2.89284,2.20248l-1.53782,5.82015h5.78567l-1.29949-5.88131c-.794-3.59353-5.49854-2.28592-5.89284.79751l-.94722,7.40723,5.89283-.79752-1.51455-5.92278c-.89146-3.48608-5.5618-2.39453-5.89284.79752a56.45992,56.45992,0,0,0-.26662,7.84457l5.89284-.79752a33.35293,33.35293,0,0,0-1.58622-5.33827c-.98957-2.5382-5.05132-3.14538-5.78567,0a29.39732,29.39732,0,0,0-.78976,6.78962l5.59041-1.51415a4.4658,4.4658,0,0,1-.56329-3.19551c.3239-2.51376-3.55354-4.05512-5.12132-2.12132a7.23064,7.23064,0,0,0-1.86559,5.393l5.89284-.79752q-.19939-1.74564-1.56935.0545c3.86246.09592,3.86058-5.90413,0-6-4.24109-.10531-5.44672,4.16109-4.21633,7.54053,1.07054,2.9404,6.23757,2.80873,5.89284-.79751-.03187-.33338-.13968-.84457.10823-1.15036l-5.12132-2.12132a9.63552,9.63552,0,0,0,1.38247,6.22382,3.02366,3.02366,0,0,0,5.59041-1.51416,22.17455,22.17455,0,0,1,.57543-5.19458H393.644a33.3529,33.3529,0,0,1,1.58621,5.33827c.69141,3.31008,6.01211,2.57135,5.89284-.79752a56.45976,56.45976,0,0,1,.26662-7.84457l-5.89284.79752,1.51456,5.92278c.90547,3.54091,5.49213,2.336,5.89284-.79752l.94722-7.40723-5.89284.79752,1.2995,5.88131c.64794,2.93246,5.05037,2.78289,5.78567,0l1.53782-5.82015-2.89283,2.20249-.58688-.06535c3.22051,2.14976,6.22788-3.045,3.02831-5.18083Z"/><path class="cls-5" d="M403.91166,592.72444l.05656-.36781-.77152,1.3238.26243-.27322-1.3238.77152.36523-.07132-3.69035-2.09532a3.8065,3.8065,0,0,0,5.25333,2.49214,4.07012,4.07012,0,0,0,2.18636-2.368,6.48806,6.48806,0,0,0,.36959-1.72022c.06411-.6337.25971-.64251-.19068-.18205h-4.24264a5.13275,5.13275,0,0,0,3.47057,1.47591,3.075,3.075,0,0,0,2.89283-2.20248,8.27034,8.27034,0,0,0,.589-3.30335l-4.51415,2.59041,1.851.87424a3.08385,3.08385,0,0,0,4.10457-1.07625,3.02573,3.02573,0,0,0-1.07626-4.10457l-1.851-.87424c-1.97966-.935-4.54863.15719-4.51416,2.59041a4.0023,4.0023,0,0,1-.37464,1.70832l2.89284-2.20249.77207.28145a3.04767,3.04767,0,0,0-4.24264,0,4.95381,4.95381,0,0,0-1.3173,2.2769,8.30557,8.30557,0,0,0-.1698,1.18278q-.02613.28917-.0436.579-.19938,1.7283,2.7542-.97275l1.07625,1.07626.11.28361c-.324-1.67491-2.20249-2.38586-3.69035-2.09532a3.48538,3.48538,0,0,0-2.77955,2.80766,3.09593,3.09593,0,0,0,2.09532,3.69036c1.42085.3904,3.44263-.48432,3.69036-2.09532Z"/><path class="cls-5" d="M408.15472,584.90506l.07953.01191-.6619-.38575-.27715-.45442v-.79752l.09695-.20458.53812-.53812-.07064.0432.75708-.2048-.09773.0033.75708.20479.33917.32943.20479.75708-.03016.2026a1.48976,1.48976,0,0,0-.53755-1.57669,1.534,1.534,0,0,0-1.666-.11728,2.35139,2.35139,0,0,0-1.14809,2.68529,1.51151,1.51151,0,0,0,2.89283,0,3.72919,3.72919,0,0,0-.841-3.25289,1.5123,1.5123,0,0,0-2.50708.6619l-.62822,2.07413a1.51485,1.51485,0,0,0,1.04766,1.84517,1.5311,1.5311,0,0,0,1.84518-1.04765l.62822-2.07413-2.50708.6619c-.10331-.12447-.0048-.0145.021.05763-.07019-.196.01275.04332.03639.12249.06471.2167.007-.18644.00849.03945.00044.06586-.04521.36078.00358.11448h2.89283a.73391.73391,0,0,1-.081.51294q-.48051.37776-.14958.18971l-2.2035-1.694a1.76314,1.76314,0,0,0,2.51209,2.07393c1.19913-.70453,1.06267-2.90866-.45687-3.13637a1.54064,1.54064,0,0,0-1.84518,1.04766,1.517,1.517,0,0,0,1.04766,1.84518Z"/><path class="cls-5" d="M389.9924,594.01516a4.85944,4.85944,0,0,0-.2273,2.10865,1.50105,1.50105,0,0,0,3,0,4.74994,4.74994,0,0,0-.50179-2.68274c-.70564-1.5237-3.36549-.43141-2.74162,1.15584a2.06579,2.06579,0,0,0,3.57514.66812c.49844-.532.75534-1.11165,1.40457-1.49491a3.3313,3.3313,0,0,1,2.1032-.393c1.921.18213,1.90849-2.81906,0-3a6.01983,6.01983,0,0,0-4.59039,1.51947,5.31959,5.31959,0,0,0-.57258.59281l-.23455.30358q-.592.5794.59672.31l.68934.89645-.07862-.2-2.74162,1.15584a2.02148,2.02148,0,0,1,.0922,1.16858h3a2.77784,2.77784,0,0,1,.12014-1.31113c.60529-1.838-2.29074-2.62581-2.89284-.79752Z"/><path class="cls-10" d="M54.35543,586.204s10.8975,71.86,13.93854,87.19,8.657,48.01465,16.47939,54.71067,21.9682,13.66557,35.14667,13.62147,34.53878-2.51144,37.15309-10.39566,7.92581-43.4998,7.92581-43.4998-8.64864,39.676-40.45308,35.33907S79.66545,650.88694,74.63818,621.251,62.50848,489.4654,62.9679,458.30844l.45942-31.157S42.71409,559.10817,54.35543,586.204Z"/><path class="cls-11" d="M98.524,664.80138s40.42779,26.00014,66.4749,23.02931l-.87824-5.84727S106.47514,672.9332,98.524,664.80138Z"/><path class="cls-12" d="M271.09885,681.98342s50.74615-2.54476,60.88222-17.182,9.97549-14.32555,11.53611-22.48-67.90024-26.13024-71.51438-24.68459C272.0028,617.63684,277.42318,669.71021,271.09885,681.98342Z"/><path class="cls-13" d="M171.79727,717.72388s14.61032,28.77792,62.46772,19.6418c0,0,21.83559-8.41329,22.55842-40.94056s12.77593-78.13568,14.27947-75.17413.88651,58.03577-.95668,66.81619-15.85221,46.05832-17.71129,49.2985l-1.85909,3.24019s-14.69718,9.49539-25.95378,9.52991-30.57322-1.29367-36.86335-5.63661S171.342,730.34869,171.79727,717.72388Z"/><path class="cls-14" d="M336.72713,657.91445s-2.08951,11.84848-21.39744,30.15273,6.43367,51.09642,15.40722,50.4986c0,0-24.09514-2.59621-28.63558-14.09064s-10.58217-43.95224-10.58217-43.95224S329.93707,673.50746,336.72713,657.91445Z"/><path class="cls-15" d="M256.10058,458.30844c-2.26852.16883,77.87524,11.51,105.70887,74.03468s17.44126,185.692-2.9326,200.90879c0,0,11.01334-3.98288,14.06595-9.2231s11.27253-42.04539,11.27253-42.04539,6.96814-46.49543,6.7348-60.86967-8.90187-62.56141-12.04893-70.47584-30.50008-50.2918-33.68894-53.23767S289.35068,455.83375,256.10058,458.30844Z"/><path class="cls-5" d="M217.02935,372.89865s-3.937-2.83046-11.16533,9.28754-27.10606,16.79512-33.2501,15.34947-16.625-6.50546-18.43211-21.68485,14.09515-20.23919,15.17939-29.99737-1.08424-23.1305,10.84242-33.61151S207.4,309.35062,207.4,309.35062,216.32753,369.212,217.02935,372.89865Z"/><path class="cls-6" d="M217.08313,372.983c-.22675-.01307-.18045-.05927-.25708-.07319-.05063-.0227-.10735-.03619-.16034-.05484a2.28935,2.28935,0,0,0-.3331-.07318,2.75953,2.75953,0,0,0-.68533-.00253,4.37974,4.37974,0,0,0-1.32547.37637,9.55778,9.55778,0,0,0-2.30411,1.58173,23.90731,23.90731,0,0,0-3.61218,4.364c-1.09577,1.56766-1.94007,3.23209-3.09084,4.86869a25.61742,25.61742,0,0,1-3.88933,4.41806,37.0965,37.0965,0,0,1-9.855,6.314,48.04854,48.04854,0,0,1-11.18053,3.46677,25.81489,25.81489,0,0,1-5.9268.48007,17.75426,17.75426,0,0,1-5.84537-1.47638,23.33417,23.33417,0,0,1-9.44067-7.07083,25.09646,25.09646,0,0,1-4.85564-10.64349,28.74376,28.74376,0,0,1-.666-5.81006,17.52164,17.52164,0,0,1,.95567-5.77472c1.24292-3.74179,3.70771-6.87262,6.255-9.73752,1.28116-1.44128,2.6048-2.8331,3.8506-4.2792a21.48143,21.48143,0,0,0,3.2039-4.65149,11.38269,11.38269,0,0,0,.8644-2.62238c.1555-.88519.1849-1.86954.25984-2.80972.10039-1.90549.14136-3.824.197-5.749a53.82246,53.82246,0,0,1,1.332-11.57559,29.556,29.556,0,0,1,5.0331-10.65594c.634-.7601,1.27293-1.51975,1.92814-2.26215.71074-.68747,1.40734-1.38931,2.13353-2.06357.78847-.61371,1.56379-1.24829,2.36931-1.84082.86588-.50351,1.70256-1.06637,2.59867-1.51559a24.77946,24.77946,0,0,1,11.65283-2.44895,31.4026,31.4026,0,0,1,11.587,2.73029l.5.22693.08256.574,2.3239,16.15641,2.15447,16.1047,2.06518,15.906Zm-.10756-.16861-2.734-16.15088-2.7495-15.868-2.66023-15.66925-2.4908-15.61759.58232.80069c-6.64873-2.96274-14.783-3.65146-21.42061-.44165a24.861,24.861,0,0,0-8.46812,7.035,28.04642,28.04642,0,0,0-4.96076,9.94114,55.58728,55.58728,0,0,0-1.653,11.23736c-.12529,1.91281-.22443,3.83447-.38318,5.76273-.10819.97082-.15715,1.91235-.3618,2.91684a12.24367,12.24367,0,0,1-1.01813,2.80728c-1.8701,3.51733-4.76215,6.16128-7.31039,9.00094a26.28823,26.28823,0,0,0-6.10976,9.51123,16.79378,16.79378,0,0,0-.79153,5.562,27.32534,27.32534,0,0,0,.8511,5.59014,22.35718,22.35718,0,0,0,.82463,2.70337c.1662.44.31326.88739.494,1.32019l.60179,1.27173.2999.635.357.60407.71205,1.20633a25.02027,25.02027,0,0,0,1.69155,2.22143,20.34955,20.34955,0,0,0,4.11851,3.71912,23.51451,23.51451,0,0,0,4.88135,2.63385,16.63269,16.63269,0,0,0,5.27545,1.3125,26.34909,26.34909,0,0,0,5.53795-.432,44.28978,44.28978,0,0,0,20.46825-9.02484,24.41659,24.41659,0,0,0,3.85171-4.0784c1.12871-1.4621,2.072-3.21991,3.274-4.73788a24.59149,24.59149,0,0,1,3.96249-4.28376,9.71785,9.71785,0,0,1,2.52046-1.52456,4.7241,4.7241,0,0,1,1.46021-.30228,3.0333,3.0333,0,0,1,.749.05777,2.51216,2.51216,0,0,1,.363.10779c.05863.02527.11835.04452.17536.07492C216.94543,372.75873,217.10316,372.75907,216.97557,372.81434Z"/><path class="cls-5" d="M66.13768,409.12242s13.59282,13.35081,33.10918,4.31546,4.69839-23.1305,5.42121-33.2501,14.09515-26.74464,10.1196-39.03272-10.32605-23.1305-23.95656-18.43212-2.87406,15.92669-10.37778,15.17939-7.34257-5.07694-7.34257-5.07694S71.6998,386.37485,66.13768,409.12242Z"/><path class="cls-6" d="M66.23386,409.095a30.31339,30.31339,0,0,0,20.57856,6.81588,32.53279,32.53279,0,0,0,10.65786-2.55407c3.36312-1.42688,6.67123-3.28464,8.83732-6.06961A10.158,10.158,0,0,0,108.34,402.5723a15.22555,15.22555,0,0,0-.21161-5.28259c-.69415-3.571-2.231-7.01105-3.26319-10.68994a16.10068,16.10068,0,0,1,.2957-11.43845c1.23928-3.61041,2.93068-6.97613,4.47573-10.39542a92.98282,92.98282,0,0,0,4.16736-10.41348,24.4839,24.4839,0,0,0,1.15254-10.95611,29.6186,29.6186,0,0,0-1.65214-5.30048,51.63973,51.63973,0,0,0-2.27665-5.09711,22.48076,22.48076,0,0,0-6.84952-8.4356,12.905,12.905,0,0,0-10.20108-1.83982,20.26081,20.26081,0,0,0-5.07832,1.76132,8.6552,8.6552,0,0,0-3.71224,3.38187,9.23427,9.23427,0,0,0-.87012,4.98364c.03106.91355.13873,1.83826.09543,2.90454a4.06316,4.06316,0,0,1-.44834,1.78882,2.66653,2.66653,0,0,1-1.73286,1.265,8.71182,8.71182,0,0,1-3.20645-.08069,13.04975,13.04975,0,0,1-2.938-.8375,7.46593,7.46593,0,0,1-2.66549-1.83767,5.57052,5.57052,0,0,1-.95048-1.4383,4.37092,4.37092,0,0,1-.4201-1.82821l2.12167.06732c-.203,6.40622-.4973,12.79333-.84242,19.1853-.31731,6.39191-.83647,12.77323-1.38989,19.15021-.27275,3.18875-.59212,6.37448-.92347,9.55829-.38381,3.17947-.73345,6.36114-1.19761,9.53116-.41707,3.17422-.93172,6.33816-1.50127,9.48932l-.94632,4.71081Zm-.19236.05474a190.6717,190.6717,0,0,0,2.65883-19.00524c.62753-6.35114,1.115-12.71665,1.54013-19.08664.42549-6.37021.725-12.74863,1.06208-19.12485.31326-6.37579.57625-12.76227.74721-19.13553l2.12167.06732a2.81077,2.81077,0,0,0,.23024.89264,3.46758,3.46758,0,0,0,.58733.90585,5.41653,5.41653,0,0,0,1.92421,1.34079,11.03723,11.03723,0,0,0,2.45662.72953,7.31634,7.31634,0,0,0,2.38576.14419.66764.66764,0,0,0,.49754-.31268,2.23849,2.23849,0,0,0,.20942-.92395c.04777-.81128-.03715-1.76129-.0619-2.72342a11.07626,11.07626,0,0,1,1.17109-5.94516,10.2399,10.2399,0,0,1,4.52775-4.05069,21.88651,21.88651,0,0,1,5.57123-1.80014,15.6599,15.6599,0,0,1,5.887-.0289,13.36455,13.36455,0,0,1,5.38286,2.38968,23.87879,23.87879,0,0,1,6.94893,9.08517,52.513,52.513,0,0,1,2.16382,5.24964,34.51187,34.51187,0,0,1,1.60049,5.466c.59174,3.82254-.19324,7.646-1.25706,11.24866a93.61512,93.61512,0,0,1-4.04554,10.55041,106.97538,106.97538,0,0,0-4.08146,10.43445,18.9934,18.9934,0,0,0-.94272,5.33627,18.481,18.481,0,0,0,1.03366,5.29734c1.13673,3.50613,2.65873,6.98651,3.47763,10.79236a16.3583,16.3583,0,0,1,.26994,5.91146,11.92625,11.92625,0,0,1-2.44979,5.48624,17.44961,17.44961,0,0,1-4.44037,3.865,31.85262,31.85262,0,0,1-5.15445,2.59149,33.931,33.931,0,0,1-5.48945,1.7121,31.75088,31.75088,0,0,1-5.7123.66855,28.93974,28.93974,0,0,1-11.22767-1.965,31.26448,31.26448,0,0,1-5.08828-2.54715A24.27794,24.27794,0,0,1,66.0415,409.14978Z"/><path class="cls-5" d="M112.9806,484.99787s-11.56525-29.99737,0-53.48929,24.57616-9.75818,29.63595-9.03535,30.35879,4.69838,36.14141,25.6604,1.80708,26.74465-16.98646,30.35879-12.64949,8.31252-21.68484,11.20383S115.69184,494.23973,112.9806,484.99787Z"/><path class="cls-6" d="M112.88589,485.02994c-.852-2.30877-1.56173-4.67492-2.20119-7.05365-.33743-1.18561-.60923-2.38824-.91724-3.58252l-.79508-3.6145a83.947,83.947,0,0,1-1.72771-14.7287l-.05671-1.8623.05337-1.864a36.12348,36.12348,0,0,1,.20986-3.7276c.14219-1.23812.26134-2.481.42433-3.7185l.74875-3.675.19211-.91815.271-.89945.54945-1.79733.56028-1.79394c.22268-.58539.48681-1.15628.72851-1.73493.51034-1.145.94963-2.32718,1.53269-3.43405l.88349-1.65488.961-1.61715a30.02451,30.02451,0,0,1,4.72386-5.90076,15.04479,15.04479,0,0,1,6.6205-3.76553,13.79722,13.79722,0,0,1,7.54019.41763,45.59519,45.59519,0,0,1,6.78628,3.04044c.549.26733,1.10031.52307,1.65787.73379a7.72019,7.72019,0,0,0,1.73521.39288c1.22113.19217,2.43691.41764,3.649.66022a63.461,63.461,0,0,1,7.1721,1.892,49.74324,49.74324,0,0,1,13.34537,6.51273A31.09317,31.09317,0,0,1,177.451,442.516c.27014.57131.55849,1.13555.81282,1.71453l.70337,1.76328.58693,1.80539.50638,1.79147a71.773,71.773,0,0,1,1.62223,7.29465,30.84229,30.84229,0,0,1,.40882,7.59619,15.80885,15.80885,0,0,1-.80367,3.84915,12.21031,12.21031,0,0,1-1.946,3.50882,16.13986,16.13986,0,0,1-6.33226,4.5672,41.59968,41.59968,0,0,1-7.20346,2.31049c-1.21669.28564-2.43678.53241-3.65741.76611l-3.56936.74518a39.69772,39.69772,0,0,0-6.81871,2.19232,13.8456,13.8456,0,0,0-2.95337,1.77911,21.84843,21.84843,0,0,0-2.50429,2.52106,11.52309,11.52309,0,0,1-3.07045,2.46112,19.68007,19.68007,0,0,1-3.60078,1.34351,46.31649,46.31649,0,0,1-14.76188,1.68768,19.42132,19.42132,0,0,1-7.21415-1.7196,9.87687,9.87687,0,0,1-2.98541-2.217A8.26364,8.26364,0,0,1,112.88589,485.02994Zm.18942-.06415a8.43836,8.43836,0,0,0,4.709,5.26075,17.87378,17.87378,0,0,0,7.11133,1.43164,44.43861,44.43861,0,0,0,14.35389-2.39221,18.332,18.332,0,0,0,3.23694-1.40485,10.52572,10.52572,0,0,0,2.55736-2.25952,23.2233,23.2233,0,0,1,2.58882-2.80927,15.69338,15.69338,0,0,1,3.29768-2.10925,37.454,37.454,0,0,1,7.17086-2.448l3.64891-.805c1.19386-.24256,2.38372-.49726,3.55989-.78748a41.23049,41.23049,0,0,0,6.83963-2.18713,14.62784,14.62784,0,0,0,5.56883-3.92325,11.322,11.322,0,0,0,2.39984-6.24506,28.988,28.988,0,0,0-.29465-7.114c-.34988-2.38992-.89053-4.76749-1.4707-7.138l-.45526-1.77255-.51317-1.71851-.62431-1.68115c-.22722-.55267-.48755-1.09146-.72925-1.63889a30.677,30.677,0,0,0-9.14787-11.00619,45.26656,45.26656,0,0,0-12.91828-6.72678,62.8023,62.8023,0,0,0-7.07556-1.95492c-1.19626-.264-2.40365-.47431-3.61546-.65317a8.38109,8.38109,0,0,1-1.85863-.40884c-.59579-.21949-1.16365-.47831-1.72308-.74485a41.57222,41.57222,0,0,0-6.73862-2.83651,12.8239,12.8239,0,0,0-7.02349-.12879,13.85281,13.85281,0,0,0-5.93073,3.69388,29.6922,29.6922,0,0,0-4.27271,5.75812l-.89255,1.57538-.82141,1.61944c-.53409,1.08533-.94964,2.21915-1.43818,3.32218-.23013.55728-.48285,1.1058-.695,1.66992l-.53109,1.73269-.54194,1.72928-.27474.86386-.19732.88578a66.91707,66.91707,0,0,0-1.83423,14.433A82.032,82.032,0,0,0,113.07531,484.96579Z"/><path class="cls-5" d="M93.63129,507.28673a12.56357,12.56357,0,0,0-6.88041,8.05914c-2.655,9.03416-7.2036,29.6943,1.47285,43.74189,11.38455,18.43212,50.95939,3.25273,46.0803-10.3003s-10.6086-16.80576-25.36278-23.85333C96.33872,518.91432,101.62042,503.79729,93.63129,507.28673Z"/><path class="cls-6" d="M93.67131,507.37839a12.0413,12.0413,0,0,0-6.69258,8.12219,94.144,94.144,0,0,0-2.10185,10.76685,72.7787,72.7787,0,0,0,.00989,21.65814,32.03355,32.03355,0,0,0,3.4373,10.18347A18.92491,18.92491,0,0,0,89.73,560.38865a17.51779,17.51779,0,0,0,1.80294,1.977,16.0585,16.0585,0,0,0,4.47952,2.96154,21.18685,21.18685,0,0,0,5.18878,1.563,31.01187,31.01187,0,0,0,5.4307.36743c.90806-.01812,1.81706-.08136,2.722-.1593.90221-.11993,1.80614-.21637,2.6971-.40374a41.82732,41.82732,0,0,0,5.279-1.32746,38.68907,38.68907,0,0,0,9.69163-4.732,21.46555,21.46555,0,0,0,4.00093-3.46576,11.02438,11.02438,0,0,0,2.50164-4.354,6.14572,6.14572,0,0,0,.16738-2.36895,7.0281,7.0281,0,0,0-.26548-1.15235c-.10425-.38629-.31414-.83209-.46584-1.24511-.32017-.84711-.665-1.68073-1.04426-2.49512-.34919-.83167-.76612-1.62232-1.175-2.41687a26.50873,26.50873,0,0,0-6.5392-8.2558,36.80183,36.80183,0,0,0-4.33626-3.13336q-2.31418-1.4015-4.72647-2.69092c-1.60666-.86-3.23442-1.69812-4.86135-2.54535a23.93822,23.93822,0,0,1-4.8211-2.955,16.31246,16.31246,0,0,1-3.62017-4.3814,23.83349,23.83349,0,0,1-2.11009-5.176,45.75956,45.75956,0,0,0-1.64019-5.23614,2.91769,2.91769,0,0,0-1.81333-1.79163A4.21074,4.21074,0,0,0,93.67131,507.37839Zm-.08-.18329a4.41505,4.41505,0,0,1,2.74041-.45831,3.24618,3.24618,0,0,1,2.02046,1.89545c.82692,1.68237,1.24021,3.48871,1.90175,5.19238a23.10173,23.10173,0,0,0,2.36775,4.86761,14.92764,14.92764,0,0,0,3.6466,3.828,25.21334,25.21334,0,0,0,4.7417,2.47394c1.68212.74939,3.35722,1.522,5.0133,2.35174a48.85068,48.85068,0,0,1,9.54974,5.90119,25.55223,25.55223,0,0,1,3.98045,4.1098c.61815.73376,1.10983,1.552,1.65315,2.33557.47449.82025.97577,1.63306,1.38367,2.48279.41693.84655.84007,1.69043,1.18752,2.56036.38043.85925.7216,1.72943,1.03535,2.6073.15639.45136.33919.8429.4736,1.34314a8.92,8.92,0,0,1,.32335,1.53174,8.05473,8.05473,0,0,1-.26817,3.08252,12.49266,12.49266,0,0,1-3.0155,5.05792,23.1103,23.1103,0,0,1-4.42359,3.59656,37.44094,37.44094,0,0,1-10.25731,4.46094A43.21977,43.21977,0,0,1,106.6403,567.961a27.46733,27.46733,0,0,1-10.89008-2.04065,17.71423,17.71423,0,0,1-4.76476-2.9414,18.37819,18.37819,0,0,1-2.01279-1.9878,19.967,19.967,0,0,1-1.61173-2.32336A32.65071,32.65071,0,0,1,83.254,548.25a54.86893,54.86893,0,0,1,.385-22.19122,98.42641,98.42641,0,0,1,2.83806-10.70508A13.19127,13.19127,0,0,1,93.59126,507.1951Z"/><path class="cls-5" d="M80.00581,610.148a16.08513,16.08513,0,0,1,8.84684-12.41827c5.33692-2.52959,13.01446-2.55079,21.59805,8.70325,16.26363,21.32343,23.59814,16.98646,24.26786,24.93757s-.77594,18.43212-17.401,20.962-11.56525-9.75818-14.09515-14.45657-1.80707-8.31252-15.17939-9.39676C79.06212,627.75109,79.04713,617.0789,80.00581,610.148Z"/><path class="cls-6" d="M79.90675,610.13431a17.64489,17.64489,0,0,1,4.68642-9.74762,15.10905,15.10905,0,0,1,9.943-4.652,13.96956,13.96956,0,0,1,5.61557.94513,19.77394,19.77394,0,0,1,4.89349,2.84473,28.90141,28.90141,0,0,1,4.04292,3.86517c1.23372,1.39484,2.31962,2.89423,3.4214,4.29645a91.48178,91.48178,0,0,0,6.95253,8.27039,49.90685,49.90685,0,0,0,8.18246,7.04229c1.48384,1.03254,3.04068,1.95173,4.53076,3.05567.35939.29474.72187.59631,1.05692.92676a6.06306,6.06306,0,0,1,.8667,1.13769l.35449.62934.22891.67834a6.17906,6.17906,0,0,1,.30707,1.3811,23.98513,23.98513,0,0,1-.882,10.97748,14.31608,14.31608,0,0,1-2.85466,4.86151l-.46381.54279-.52391.48144c-.35429.31488-.69173.65552-1.06367.949a19.631,19.631,0,0,1-2.37641,1.54736,30.49651,30.49651,0,0,1-10.66562,3.26428,19.69721,19.69721,0,0,1-5.70825-.008,7.99959,7.99959,0,0,1-5.27667-2.97461,11.3232,11.3232,0,0,1-1.87877-5.61524c-.21764-1.85778-.23934-3.69873-.594-5.27771a5.06319,5.06319,0,0,0-.35689-1.06378l-.60233-1.23987c-.39885-.85571-.73389-1.68676-1.1167-2.44744a7.18523,7.18523,0,0,0-1.35337-1.98291,8.2523,8.2523,0,0,0-.88145-.77784,10.45931,10.45931,0,0,0-1.04671-.62225,20.43554,20.43554,0,0,0-4.92123-1.56366c-.875-.15356-1.74951-.32141-2.63794-.44409-.8956-.12988-1.75084-.21442-2.72953-.42462a8.398,8.398,0,0,1-4.92932-2.85065,11.362,11.362,0,0,1-2.25213-5.09686,25.75683,25.75683,0,0,1-.42322-5.46839A42.43886,42.43886,0,0,1,79.90675,610.13431Zm.19812.02741a28.42063,28.42063,0,0,0,.31023,10.75348,10.63337,10.63337,0,0,0,2.40029,4.61151,7.20527,7.20527,0,0,0,4.46069,2.16516c3.49891.31335,7.33822.366,10.92337,2.00439a8.67719,8.67719,0,0,1,4.25034,4.1731c.44528.85492.80165,1.70471,1.183,2.48779l.606,1.19965a7.12713,7.12713,0,0,1,.53719,1.50122,49.82628,49.82628,0,0,1,.63836,5.534,9.827,9.827,0,0,0,1.43974,4.62261,5.96055,5.96055,0,0,0,3.95143,2.258,17.84706,17.84706,0,0,0,5.142.08966,30.564,30.564,0,0,0,10.12135-2.79,18.08459,18.08459,0,0,0,2.22777-1.34613c.35019-.25342.66867-.54571,1.00667-.81659l.50162-.41382.44287-.47247a13.084,13.084,0,0,0,2.8386-4.33356,21.62246,21.62246,0,0,0,1.2064-10.48516,5.55581,5.55581,0,0,0-.26072-1.273l-.19386-.61529-.30717-.56049a5.412,5.412,0,0,0-.7602-1.03277c-.3043-.30866-.63894-.59619-.97436-.88123-1.40616-1.09027-3.01438-1.97143-4.51488-3.00555a72.01344,72.01344,0,0,1-16.07556-14.8147c-1.174-1.42462-2.28541-2.82123-3.4502-4.14984-.59865-.653-1.1854-1.319-1.8391-1.90924-.62273-.62775-1.28693-1.19806-1.96191-1.75806a21.3419,21.3419,0,0,0-4.40521-2.75555,13.65684,13.65684,0,0,0-4.998-1.15888,14.15247,14.15247,0,0,0-9.59338,3.771A15.80434,15.80434,0,0,0,80.10487,610.16172Z"/><path class="cls-5" d="M161.7715,627.75644s-20.6006-22.40767,0-43.73111,11.56525-10.76186,15.17939-16.40406,22.04626-9.97917,26.74465-2.02806-2.16849,14.09515-7.22828,18.79354-1.44566,24.93757-3.25273,31.443S185.26342,640.76735,161.7715,627.75644Z"/><path class="cls-6" d="M161.70967,627.83506a34.24829,34.24829,0,0,1-3.83278-4.84674,37.678,37.678,0,0,1-3.0162-5.40509A32.58468,32.58468,0,0,1,151.85054,605.52a28.59309,28.59309,0,0,1,.49907-6.27978,27.90166,27.90166,0,0,1,1.93777-6.00275,34.14966,34.14966,0,0,1,7.24933-10.16571q4.35189-4.32174,8.7713-8.57825c1.4786-1.41424,2.958-2.827,4.47066-4.21087l.5661-.51825.26892-.25134.0326-.03064a.10055.10055,0,0,0-.01975.0271.09171.09171,0,0,0-.00795.04235c-.00567-.02179-.05012.2417.04735.3089a.56871.56871,0,0,1-.09627-.29333,1.6334,1.6334,0,0,1,.01883-.18494,3.19694,3.19694,0,0,1,.3597-.80755c.12538-.23981.26739-.45435.406-.67389a8.38727,8.38727,0,0,1,2.11845-2.34967,20.36046,20.36046,0,0,1,5.49368-2.8844,30.11054,30.11054,0,0,1,5.99741-1.51715,26.27751,26.27751,0,0,1,6.21266-.17444,12.33837,12.33837,0,0,1,5.95975,2.09155,7.93077,7.93077,0,0,1,2.19725,2.42505c.24782.47394.52017.93707.7458,1.42535.18219.50922.39705,1.01.548,1.53272a10.1893,10.1893,0,0,1-.39688,6.4646,18.64965,18.64965,0,0,1-3.39987,5.39685,59.34637,59.34637,0,0,1-4.362,4.429,6.28149,6.28149,0,0,0-.50227.501,2.59819,2.59819,0,0,0-.38444.48608,5.76389,5.76389,0,0,0-.61687,1.17524,14.18687,14.18687,0,0,0-.7585,2.74749,40.03131,40.03131,0,0,0-.50452,5.94385c-.0839,4.03052.08559,8.1012.13156,12.21167a52.816,52.816,0,0,1-.25811,6.25189,16.25,16.25,0,0,1-.71595,3.15522c-.30531.99755-.66272,1.98388-1.05371,2.95819-1.5713,3.85785-3.88134,7.65631-7.4617,10.12585a14.47538,14.47538,0,0,1-5.93188,2.37207,18.36852,18.36852,0,0,1-6.29758-.13409A35.51918,35.51918,0,0,1,161.70967,627.83506Zm.12366-.15723a38.34559,38.34559,0,0,0,11.44038,3.858,17.21009,17.21009,0,0,0,5.89914-.15289,13.85709,13.85709,0,0,0,5.2655-2.361c3.14338-2.30213,5.194-5.85266,6.57045-9.548.3463-.93072.64467-1.88055.92725-2.83923a14.09811,14.09811,0,0,0,.6035-2.81787,51.0706,51.0706,0,0,0,.16083-5.98963c-.04324-4.059-.24265-8.15838-.0819-12.298a41.93481,41.93481,0,0,1,.63956-6.24719,16.0781,16.0781,0,0,1,.92725-3.13147,7.64018,7.64018,0,0,1,.83334-1.51477,7.01592,7.01592,0,0,1,1.16863-1.27277c1.50811-1.3739,2.98031-2.74792,4.318-4.21649a17.02294,17.02294,0,0,0,3.25223-4.82227,9.05058,9.05058,0,0,0,.54692-5.53808c-.112-.46137-.28575-.91113-.42316-1.37085-.18324-.44513-.41406-.87525-.61763-1.31659a6.75146,6.75146,0,0,0-1.79068-2.16052,11.383,11.383,0,0,0-5.405-2.10907,22.46912,22.46912,0,0,0-2.996-.20472,28.6441,28.6441,0,0,0-3.01237.22217,29.45494,29.45494,0,0,0-5.88371,1.401,18.4067,18.4067,0,0,0-5.29876,2.81073,7.29816,7.29816,0,0,0-1.90335,2.21857c-.128.216-.2617.43182-.36624.64862a3.07785,3.07785,0,0,0-.26121.58649l-.00673.00482c-.00182.041-.01393-.11218-.04843-.11292a.47248.47248,0,0,1,.0623.39631.92414.92414,0,0,1-.06622.11834.89271.89271,0,0,1-.0788.10236l-.036.03613-.2826.28034-.54262.53906c-1.4356,1.44452-2.84336,2.923-4.24933,4.40192l-8.36434,8.95056a36.75265,36.75265,0,0,0-6.83477,9.74383,26.939,26.939,0,0,0-2.49857,11.5102,32.63166,32.63166,0,0,0,2.4251,11.68811A43.3974,43.3974,0,0,0,161.83333,627.67783Z"/><path class="cls-5" d="M243.92139,608.414c-9.6057,1.00543-18.73336-5.07291-20.895-14.48608-1.54317-6.72008-.52983-16.2574,7.05234-29.4189,19.15494-33.25009,33.25009-16.26363,37.58706-11.92666s10.481,5.78262,12.28808,10.11959,3.61414,11.92667-10.84242,17.34788-.72283,9.75818-9.75818,19.87777C254.11546,605.794,248.87761,607.89519,243.92139,608.414Z"/><path class="cls-6" d="M243.93181,608.5134a21.1659,21.1659,0,0,1-11.61878-2.14862,19.30361,19.30361,0,0,1-8.52513-8.39715,22.68654,22.68654,0,0,1-2.16-11.93659,38.69406,38.69406,0,0,1,2.83153-11.75275,68.8918,68.8918,0,0,1,5.50087-10.65466,81.0359,81.0359,0,0,1,6.94329-9.71741,45.52088,45.52088,0,0,1,4.13729-4.32147,24.47908,24.47908,0,0,1,4.8416-3.55267,17.04505,17.04505,0,0,1,5.72305-1.97168,13.59539,13.59539,0,0,1,6.08038.55615c3.94409,1.25208,7.19907,3.97772,9.95957,6.81275,2.6419,2.83428,6.202,4.37567,9.58828,6.74572a12.34332,12.34332,0,0,1,2.37314,2.14484,9.35378,9.35378,0,0,1,1.60044,2.85944,16.517,16.517,0,0,1,.837,3.06243,10.70208,10.70208,0,0,1,.01538,3.27021,9.58841,9.58841,0,0,1-.37771,1.61639,15.66956,15.66956,0,0,1-.64276,1.52728c-.29142.46149-.566.94049-.8808,1.38251-.34452.41431-.68155.83948-1.03861,1.24a20.92807,20.92807,0,0,1-5.04019,3.70069c-3.59485,1.97949-7.81161,2.7102-10.22125,5.18518a3.41849,3.41849,0,0,0-.89679,2.12567,12.28071,12.28071,0,0,0,.2362,2.74994,12.139,12.139,0,0,1-.2846,6.21765,14.23869,14.23869,0,0,1-3.36664,5.13922,30.81682,30.81682,0,0,1-4.54434,3.92773A22.86877,22.86877,0,0,1,243.93181,608.5134Zm-.02083-.19891a21.41992,21.41992,0,0,0,5.7121-1.43689,21.16554,21.16554,0,0,0,5.04754-2.99921,30.07766,30.07766,0,0,0,4.19217-4.1,12.97236,12.97236,0,0,0,2.79325-4.91108,11.15451,11.15451,0,0,0-.11686-5.5318,13.68582,13.68582,0,0,1-.40835-3.14276,5.34039,5.34039,0,0,1,1.26675-3.28375,9.56306,9.56306,0,0,1,2.56076-2.05762,22.54312,22.54312,0,0,1,2.79093-1.364,51.63492,51.63492,0,0,0,5.31469-2.3844,19.49088,19.49088,0,0,0,4.51-3.29352,8.67665,8.67665,0,0,0,2.42713-4.62384,10.44124,10.44124,0,0,0-.65286-5.31707,7.29206,7.29206,0,0,0-1.23441-2.32264,10.47384,10.47384,0,0,0-1.99619-1.85656c-1.51113-1.13648-3.25116-2.09674-4.92041-3.22986a24.8827,24.8827,0,0,1-4.68737-3.92206,41.31927,41.31927,0,0,0-4.2222-4.01941,17.94093,17.94093,0,0,0-4.9542-2.86475,12.61377,12.61377,0,0,0-5.62846-.738,14.58708,14.58708,0,0,0-5.48791,1.73547,30.238,30.238,0,0,0-8.8143,7.6695,64.59092,64.59092,0,0,0-6.48166,9.86615,70.61219,70.61219,0,0,0-4.9054,10.68286,43.951,43.951,0,0,0-2.63383,11.29162,23.73322,23.73322,0,0,0,1.53944,11.267,18.30578,18.30578,0,0,0,7.64032,8.477A18.996,18.996,0,0,0,243.911,608.31449Z"/><path class="cls-5" d="M167.91554,513.54958s-6.50545,15.54081,5.0598,19.87778,24.21474,1.08424,29.27454,0,11.20384-6.144,3.61414-16.26363-10.84242-3.61415-16.62505-5.0598S173.69817,502.70716,167.91554,513.54958Z"/><path class="cls-6" d="M168.00587,513.59244a23.2619,23.2619,0,0,0-1.54643,7.059,14.61328,14.61328,0,0,0,1.12859,6.9253,9.48264,9.48264,0,0,0,1.9557,2.7362,10.54141,10.54141,0,0,0,2.76116,1.87287c1.017.44683,2.18344.79882,3.29917,1.16467l1.717.46142c.57367.15058,1.16022.25257,1.74058.382a44.742,44.742,0,0,0,14.3606.57593,63.35614,63.35614,0,0,0,7.15292-1.32385,18.291,18.291,0,0,0,3.43065-1.01172,9.30825,9.30825,0,0,0,2.83055-1.96362,6.30092,6.30092,0,0,0,1.62955-2.86725,5.35178,5.35178,0,0,0,.138-.80933l.05651-.40521-.01223-.41486c-.01194-.27594.01087-.54974-.02487-.82531l-.1405-.82587a15.81574,15.81574,0,0,0-3.06-6.14154,18.92739,18.92739,0,0,0-4.86146-4.83289,6.295,6.295,0,0,0-2.93351-.91082,13.34611,13.34611,0,0,0-3.32939.49688,12.40433,12.40433,0,0,1-3.93368.38013,13.00262,13.00262,0,0,1-3.78106-1.09845c-2.28645-.98041-4.39151-2.12988-6.618-2.95563a10.5324,10.5324,0,0,0-6.86979-.493C170.82806,509.5228,169.17285,511.51322,168.00587,513.59244Zm-.18066-.08575a11.47,11.47,0,0,1,5.06555-5.25556,11.67121,11.67121,0,0,1,7.45561-.25067,59.53775,59.53775,0,0,1,6.95318,2.42768,13.11262,13.11262,0,0,0,3.22894.843,10.40808,10.40808,0,0,0,3.29486-.41632,14.43191,14.43191,0,0,1,3.8757-.54846,7.93439,7.93439,0,0,1,3.94428,1.26044,20.67968,20.67968,0,0,1,5.30859,5.51861,16.39852,16.39852,0,0,1,3.094,6.96418,8.34809,8.34809,0,0,1-.272,3.94366,7.5348,7.5348,0,0,1-2.17527,3.26349,10.2879,10.2879,0,0,1-3.26573,1.97351,24.537,24.537,0,0,1-3.61283.87927c-2.38942.48474-4.79011.9516-7.21118,1.30292a70.63824,70.63824,0,0,1-7.32121.75946,41.87572,41.87572,0,0,1-7.41336-.33838,26.9282,26.9282,0,0,1-7.23241-2.06317,9.96807,9.96807,0,0,1-5.11713-5.7218,15.67094,15.67094,0,0,1-.4855-7.44861A33.02213,33.02213,0,0,1,167.82521,513.50669Z"/><path class="cls-5" d="M283.20664,652.672s-1.08424,16.28561,11.20384,19.17692,10.481-7.97308,11.92666-9.58846,7.22828-4.14528,5.42121-9.9279-4.37646-13.37232-14.11489-11.56525S285.01371,647.59028,283.20664,652.672Z"/><path class="cls-6" d="M283.30457,652.6923a29.425,29.425,0,0,0,2.74319,11.229A14.30628,14.30628,0,0,0,299.8183,671.632c.44079-.10473.89758-.18988,1.33481-.32562l.62082-.28705.31482-.14288.275-.20484.55106-.41821.46261-.52118a2.52953,2.52953,0,0,0,.41965-.56256c.12363-.20105.25674-.39752.36813-.60693a12.40846,12.40846,0,0,0,.91727-2.73956c.20862-.96131.32953-1.92359.59341-2.94257a3.86206,3.86206,0,0,1,.12445-.3869l.22977-.40509a4.021,4.021,0,0,1,.56217-.57556c.38226-.34888.76693-.65711,1.14523-.976a16.06215,16.06215,0,0,0,2.07742-1.99695,6.63431,6.63431,0,0,0,1.30683-2.36584,5.73631,5.73631,0,0,0,.11395-2.58234,13.11286,13.11286,0,0,0-.3718-1.30853l-.49527-1.38415c-.33389-.918-.68445-1.81312-1.06961-2.68805a13.87493,13.87493,0,0,0-3.09912-4.52875,8.21816,8.21816,0,0,0-4.73648-2.04627,17.09821,17.09821,0,0,0-5.52631.50153,20.44,20.44,0,0,0-5.33261,1.93524,14.19638,14.19638,0,0,0-4.34842,3.59515,19.8559,19.8559,0,0,0-1.62918,2.39869C284.14526,650.91922,283.72244,651.80808,283.30457,652.6923Zm-.19587-.04053A19.15827,19.15827,0,0,1,285.435,647.077a14.702,14.702,0,0,1,4.36236-4.35663,20.01667,20.01667,0,0,1,5.66074-2.46087A17.9433,17.9433,0,0,1,301.68,639.514a9.86927,9.86927,0,0,1,5.93653,2.63935,15.804,15.804,0,0,1,3.40945,5.31146c.37494.95361.73383,1.90838,1.01547,2.873a22.63526,22.63526,0,0,1,.76264,3.01282,6.58815,6.58815,0,0,1-.39319,3.272,7.87354,7.87354,0,0,1-1.7862,2.65454,17.01208,17.01208,0,0,1-2.36077,1.94067c-.40278.28925-.81665.56812-1.18766.86212a3.35864,3.35864,0,0,0-.49481.45966c-.04459.08069-.09244.15832-.145.236-.046.09009-.07529.21063-.11447.31451-.28683.88324-.41507,1.8957-.64493,2.86438a15.07753,15.07753,0,0,1-.92926,2.89313,6.88482,6.88482,0,0,1-4.72336,3.87848,15.21935,15.21935,0,0,1-6.19732-.17554,12.48216,12.48216,0,0,1-5.587-2.87085,15.30332,15.30332,0,0,1-2.08807-2.36944,16.71817,16.71817,0,0,1-1.50684-2.72919A23.22284,23.22284,0,0,1,283.1087,652.65177Z"/><path class="cls-5" d="M308.50563,617.63684s-13.81935-26.74464,6.82406-35.41858c0,0,11.24664,1.12418,19.55917-5.76266s15.90222-20.25915,23.49191-18.8135a30.94266,30.94266,0,0,1,24.57616,29.94318c.72283,20.6548-2.5299,31.49722-7.5897,33.66571s-6.144.36141-8.67393-3.61415-13.46355-2.48163-23.17612,4.54181S318.26381,632.09341,308.50563,617.63684Z"/><path class="cls-6" d="M308.41962,617.68784a51.36752,51.36752,0,0,1-3.53077-9.61621,34.60054,34.60054,0,0,1-1.21362-10.20252,21.77044,21.77044,0,0,1,.84937-5.13995,17.72328,17.72328,0,0,1,2.27575-4.74786,19.01539,19.01539,0,0,1,8.20731-6.52918l.16211-.07214.24268.01129a31.73715,31.73715,0,0,0,12.23309-1.83484,25.28655,25.28655,0,0,0,5.48642-2.83533,37.63245,37.63245,0,0,0,4.75574-4.09295c3.02121-2.9784,5.80709-6.24726,8.87274-9.28528a34.46862,34.46862,0,0,1,4.96866-4.19574,9.3569,9.3569,0,0,1,6.25329-1.88446,31.47412,31.47412,0,0,1,25.33826,26.518l.32944,3.25617c.107,1.08667.09509,2.15326.1484,3.23126.06186,2.15106.098,4.30548.05014,6.46246a76.99113,76.99113,0,0,1-1.1752,12.93409,34.19444,34.19444,0,0,1-1.80377,6.35894,12.39244,12.39244,0,0,1-4.056,5.61823,12.02437,12.02437,0,0,1-3.28861,1.36328,6.99442,6.99442,0,0,1-1.87237.23108,4.68382,4.68382,0,0,1-2.006-.5177,7.95882,7.95882,0,0,1-2.6088-2.60168c-.31894-.461-.61606-.92011-.90719-1.374a5.266,5.266,0,0,0-.42215-.6214c-.13257-.13232-.22208-.293-.36948-.41949a5.1459,5.1459,0,0,0-2.38809-1.00549,9.34615,9.34615,0,0,0-1.44751-.14618,10.23881,10.23881,0,0,0-1.49542.022,24.30445,24.30445,0,0,0-6.00928,1.2591,35.98088,35.98088,0,0,0-5.73273,2.47467c-.93167.47418-1.81817,1.03491-2.71261,1.57775l-2.69089,1.74891c-.90625.62323-1.89948,1.10284-2.85626,1.63531-1.0094.43256-1.97721.952-3.02311,1.2901a29.40059,29.40059,0,0,1-6.34433,1.62225A21.92416,21.92416,0,0,1,317.916,626.243,24.334,24.334,0,0,1,308.41962,617.68784Zm.172-.102,1.94431,2.53424c.75073.75574,1.44656,1.56952,2.24023,2.27667l1.2396,1.00562.62137.49908.67767.41974,1.35272.83881c.46015.26159.95847.45264,1.43482.68237a21.02391,21.02391,0,0,0,12.37249,1.30121,28.18548,28.18548,0,0,0,5.99042-1.86957c.97919-.3714,1.88031-.92151,2.81708-1.379.8829-.562,1.81555-1.03808,2.65011-1.6687a41.787,41.787,0,0,1,11.4173-6.31073,26.31949,26.31949,0,0,1,6.5156-1.43054,12.17209,12.17209,0,0,1,1.7131-.04291,11.43175,11.43175,0,0,1,1.74582.16053,6.953,6.953,0,0,1,3.43842,1.50085,7.09472,7.09472,0,0,1,.691.78076,6.933,6.933,0,0,1,.47782.7063c.28622.44794.57065.88812.86032,1.30823a6.06763,6.06763,0,0,0,1.851,1.93664,3.27532,3.27532,0,0,0,2.38074.10456,10.36254,10.36254,0,0,0,2.64346-1.03778,10.51951,10.51951,0,0,0,3.35892-4.65033,32.30285,32.30285,0,0,0,1.77-5.95948,81.62859,81.62859,0,0,0,1.35025-12.61016c.09631-2.12378.10974-4.25476.09765-6.38538-.025-1.06158.00074-2.14081-.06585-3.18854l-.20648-3.1463a30.98262,30.98262,0,0,0-3.89109-11.9126,29.56547,29.56547,0,0,0-8.59485-9.19506,29.20923,29.20923,0,0,0-11.57858-4.9466,8.5757,8.5757,0,0,0-5.73486,1.88934,32.63221,32.63221,0,0,0-4.68015,4.25916c-2.90551,3.10712-5.56454,6.47-8.53311,9.61932a34.44088,34.44088,0,0,1-4.84277,4.42365,24.79723,24.79723,0,0,1-5.84949,3.12713,28.98174,28.98174,0,0,1-6.40442,1.60389,30.4069,30.4069,0,0,1-6.615.215l.40442-.06073a18.506,18.506,0,0,0-7.8382,5.72711,16.59278,16.59278,0,0,0-2.339,4.32947,20.754,20.754,0,0,0-1.04235,4.88281,31.414,31.414,0,0,0,.7883,10.0672A45.56553,45.56553,0,0,0,308.59164,617.58585Z"/><path class="cls-5" d="M359.12268,642.32143a5.61891,5.61891,0,0,0-5.12625,3.71888c-2.09763,5.48361-5.92126,17.73248-.67546,23.10841,6.86687,7.03721,17.7093,4.86872,18.43212-1.63673s3.63554-14.818-3.60344-19.87777C363.08236,644.09236,361.56218,642.32143,359.12268,642.32143Z"/><path class="cls-6" d="M359.12268,642.42142a5.04735,5.04735,0,0,0-4.27747,2.54328,5.87241,5.87241,0,0,0-.51745,1.16156l-.3696,1.2788q-.35454,1.28449-.66647,2.57416a69.73314,69.73314,0,0,0-1.75824,10.31861,16.76946,16.76946,0,0,0,.28271,5.10473l.37525,1.21588.55127,1.14423c.224.3573.502.67883.75073,1.025.277.32593.60959.61853.9223.92023a12.48149,12.48149,0,0,0,4.4639,2.65436,12.24094,12.24094,0,0,0,5.10211.55768,9.49133,9.49133,0,0,0,4.6011-1.72345,5.38613,5.38613,0,0,0,2.24408-3.85663c.36069-3.6341,1.12665-7.10486,1.03135-10.4765a11.88755,11.88755,0,0,0-1.01316-4.77039,11.30736,11.30736,0,0,0-3.01446-3.87292c-1.38852-1.13123-2.73517-2.33374-4.10227-3.47083C362.37192,643.64927,360.92188,642.42026,359.12268,642.42142Zm0-.2a5.41163,5.41163,0,0,1,2.61585.69244c.81311.40528,1.55151.92133,2.3124,1.39515,1.49884.98577,3.01236,1.9154,4.54047,2.83685a10.72827,10.72827,0,0,1,3.97452,4.08221,12.90682,12.90682,0,0,1,1.424,5.55658c.14972,3.79132-.82977,7.32752-1.29364,10.76593-.10175.4812-.20764,1.00849-.35791,1.493a7.65981,7.65981,0,0,1-.70212,1.37189,6.3182,6.3182,0,0,1-.97931,1.15936l-.5538.50763c-.194.15424-.40906.27729-.61279.41565a10.11434,10.11434,0,0,1-5.44321,1.51483,15.412,15.412,0,0,1-10.05881-3.81732,9.69636,9.69636,0,0,1-3.23687-4.467,17.2179,17.2179,0,0,1-.882-5.48205,29.23562,29.23562,0,0,1,2.22406-10.642c.33432-.83924.67453-1.67353,1.04056-2.49591l.56246-1.22852a6.64785,6.64785,0,0,1,.72312-1.202A5.98414,5.98414,0,0,1,359.12268,642.22141Z"/><path class="cls-5" d="M334.88886,488.612l7.13454,5.84236c8.5957,6.90528,13.82747,19.09521,15.63454,24.87784s3.97556,13.37232-12.64949,19.87778-29.27454-12.6495-34.69575-20.962-20.23919-7.5897-27.13046-11.47768-12.98651-15.267-7.5653-24.66373,25.299-.72283,32.16586,2.89131,27.10606,3.61414,28.359,4.5855"/><path class="cls-6" d="M334.95221,488.53464c1.93909,1.453,3.85623,2.93231,5.77341,4.4112.96133.73144,1.91732,1.47692,2.86761,2.26355a31.49327,31.49327,0,0,1,2.65561,2.54657,52.57011,52.57011,0,0,1,8.33575,12.05566,67.99517,67.99517,0,0,1,3.00452,6.70563c.42551,1.148.83331,2.32318,1.18466,3.49023a23.57074,23.57074,0,0,1,.86222,3.667,11.71,11.71,0,0,1-.06122,3.90046,10.54932,10.54932,0,0,1-1.46213,3.65637,16.92845,16.92845,0,0,1-5.54727,5.16821,39.32772,39.32772,0,0,1-6.66766,3.19989,19.61359,19.61359,0,0,1-7.296,1.47241,18.89186,18.89186,0,0,1-7.255-1.46777,27.09422,27.09422,0,0,1-6.34708-3.6861,44.16958,44.16958,0,0,1-5.416-4.90625,64.71545,64.71545,0,0,1-4.71933-5.5636c-1.47113-1.93548-2.86487-3.92779-4.23612-5.92907a15.96655,15.96655,0,0,0-2.1748-2.78156,14.17985,14.17985,0,0,0-2.7919-2.10107c-4.10806-2.35156-8.92072-3.162-13.63-4.20478a52.16713,52.16713,0,0,1-7.1351-1.89483,16.60306,16.60306,0,0,1-6.30734-4.23468,21.6627,21.6627,0,0,1-6.07754-13.6308,16.42878,16.42878,0,0,1,1.39956-7.54926,16.63739,16.63739,0,0,1,.894-1.73254,8.691,8.691,0,0,1,1.26951-1.62775,9.09241,9.09241,0,0,1,3.45446-2.14575,17.6425,17.6425,0,0,1,7.64148-.635,39.08893,39.08893,0,0,1,7.27362,1.54389,77.55993,77.55993,0,0,1,13.53061,5.69146,25.58215,25.58215,0,0,0,6.67874,2.16877c2.34409.49011,4.72937.84851,7.1222,1.15759q3.59188.45,7.20477.83685l3.6131.40387c.60251.07123,1.20431.15283,1.80566.24848a5.95068,5.95068,0,0,1,1.80386.47235.09727.09727,0,0,1-.0852.17474l-.03735-.01666a6.23362,6.23362,0,0,0-1.72174-.30768l-1.80573-.13068-3.62448-.20147c-2.41882-.128-4.84161-.25543-7.2612-.47449-2.42017-.21289-4.84091-.4754-7.25644-.8783a25,25,0,0,1-7.15976-2.06775,75.87213,75.87213,0,0,0-13.34366-5.22711,41.63006,41.63006,0,0,0-6.93966-1.35455,15.64368,15.64368,0,0,0-6.713.60083,7.22983,7.22983,0,0,0-2.66665,1.65137,6.551,6.551,0,0,0-.95923,1.22766,14.62915,14.62915,0,0,0-.77091,1.49158,14.89874,14.89874,0,0,0-1.263,6.594,19.70331,19.70331,0,0,0,5.35855,12.41956,15.05307,15.05307,0,0,0,5.5824,3.88452,50.77653,50.77653,0,0,0,6.84748,1.992c2.34991.56,4.72641,1.113,7.0689,1.847a28.88244,28.88244,0,0,1,6.78,2.9682,15.25867,15.25867,0,0,1,2.91992,2.35119,16.89127,16.89127,0,0,1,2.19819,2.99585c1.28677,2.04517,2.62738,4.05249,4.07653,5.97962a48.9443,48.9443,0,0,0,9.95978,10.37549c3.8169,2.85974,8.47156,4.79583,13.1918,4.56555a18.45571,18.45571,0,0,0,6.79612-1.656,39.53128,39.53128,0,0,0,6.29449-3.308,16.01526,16.01526,0,0,0,4.93445-4.71442,9.348,9.348,0,0,0,1.27481-6.378,36.27436,36.27436,0,0,0-1.884-6.7995,69.69573,69.69573,0,0,0-2.8-6.602,54.0586,54.0586,0,0,0-7.72781-12.04016,46.4788,46.4788,0,0,0-5.17624-4.98565c-1.82895-1.58881-3.658-3.17713-5.465-4.79181a.10009.10009,0,0,1,.12671-.15473Z"/><path class="cls-6" d="M103.94524,729.31382a34.12816,34.12816,0,0,0,8.96969,1.365c.75361.04187,1.50813.06158,2.265.06988.75581.01221,1.50914.04163,2.26715.00879l2.2688-.02228,2.27077-.10186c1.515-.02564,3.029-.18024,4.54621-.24732l4.55524-.35113c1.51622-.16071,3.04448-.2547,4.571-.39075,1.52719-.13519,3.05621-.27679,4.60792-.33038-1.46664.48956-2.956.89117-4.44712,1.29913-1.49865.36523-3.01172.6734-4.528.9693-1.51788.29138-3.05534.45966-4.58571.68964-1.543.12695-3.08216.29864-4.63324.35846a50.16343,50.16343,0,0,1-9.309-.40412A21.39825,21.39825,0,0,1,103.94524,729.31382Z"/><path class="cls-6" d="M197.94319,737.3657a34.128,34.128,0,0,0,8.9697,1.365c.7536.04187,1.50812.06158,2.265.06988.75582.01221,1.50914.04163,2.26714.00879l2.26881-.02228,2.27077-.10186c1.515-.02564,3.029-.18024,4.54622-.24732l4.55523-.35113c1.51621-.16071,3.04448-.2547,4.571-.39075,1.52719-.13519,3.05623-.27679,4.60794-.33038-1.46664.48956-2.956.89117-4.44713,1.29913-1.49866.36523-3.01173.6734-4.528.9693-1.51788.29138-3.05533.45966-4.58571.68964-1.543.127-3.08215.29864-4.63324.35846a50.16325,50.16325,0,0,1-9.30894-.40412A21.39825,21.39825,0,0,1,197.94319,737.3657Z"/><path class="cls-6" d="M319.62289,724.47513a34.12511,34.12511,0,0,0,8.96967,1.365c.75363.04187,1.50815.06159,2.265.06989.7558.01227,1.50913.04163,2.26712.00879l2.2688-.02228,2.27079-.10187c1.515-.02557,3.029-.18017,4.5462-.24725l4.55524-.3512c1.51623-.1607,3.04449-.25464,4.571-.39068,1.52719-.13526,3.05621-.2768,4.60791-.33045-1.46664.48963-2.956.89118-4.44711,1.2992-1.49866.36517-3.01172.6734-4.528.9693-1.51788.29132-3.05532.45965-4.58572.68963-1.543.127-3.08215.29859-4.63324.3584a50.16947,50.16947,0,0,1-9.309-.404A21.3972,21.3972,0,0,1,319.62289,724.47513Z"/><path class="cls-16" d="M142.03468,53.373c-16.92092-2.12936-69.89026,7.744-80.14885,11.28279S24.43414,164.81931,24.43414,164.81931s-12.03974,29.19177-7.46568,38.20141"/><path class="cls-16" d="M202.51589,69.54089s19.46986-14.90144,39.32824-13.40832"/><path class="cls-16" d="M15.93148,72.7834s4.237-22.72191,18.4772-24.63208S65.545,62.56328,65.545,62.56328"/><path class="cls-16" d="M74.641,58.89065s-7.25934-29.91513,6.14338-41.06974"/><path class="cls-16" d="M160.04394,54.41634s3.90664-35.8836,19.98427-39.91939"/><path class="cls-16" d="M199.52219,243.41931s23.78471-16.87359,24.42456-19.84518"/><path class="cls-16" d="M91.285,147.85245s20.05768-2.10677,26.11384.00389"/><path class="cls-16" d="M32.87544,193.8887s12.19793-30.50793,51.38663-37.213"/><path class="cls-16" d="M123.96219,261.59247s27.03283-18.62811,28.40619-34.02772"/><path class="cls-16" d="M239.6707,463.30378s9.21118-12.92387,70.37573,10.52915"/><path class="cls-16" d="M75.72522,267.60663s2.95777,79.58268-8.5033,150.22329c0,0-17.43843,90.662-15.92274,88.94037"/><path class="cls-17" d="M31.301,228.75528c-.36691-1.39831-11.56525-55.29636,37.94848-69.0301s70.47575,14.818,70.47575,14.818,20.60061,23.1305,11.92667,56.01918-47.70666,36.86424-47.70666,36.86424C103.79619,267.34062,44.71962,279.89434,31.301,228.75528Z"/><path class="cls-18" d="M65.545,234.44755s27.91924,6.5958,52.4954-14.72763"/><path class="cls-6" d="M128.16,219.71991a1.67843,1.67843,0,0,1-.86493.91629,8.03554,8.03554,0,0,1-.99956.2277,13.88024,13.88024,0,0,1-2.0125.25433,21.66969,21.66969,0,0,1-3.98719-.20816,30.54821,30.54821,0,0,1-7.67662-1.972c2.66391-.1391,5.25279-.05224,7.82348-.02484,1.28263.02954,2.55892.02127,3.81931.07266l1.88981.0918C126.79889,219.138,127.34607,218.89093,128.16,219.71991Z"/><path class="cls-6" d="M72.59988,235.01456a25.9203,25.9203,0,0,1,1.55156,2.81262c.4623.94059.89191,1.89136,1.307,2.84708.82891,1.91183,1.59057,3.846,2.31181,5.79294.72987,1.94427,1.40557,3.90539,2.07331,5.86886l.9718,2.95255.55189,1.34036a8.813,8.813,0,0,0,5.20424,4.58154,16.21968,16.21968,0,0,0,5.8192.73948,39.86218,39.86218,0,0,0,11.78517-2.6998,30.97612,30.97612,0,0,0,10.32145-6.12644,29.3456,29.3456,0,0,0,7.06114-9.63781,55.19859,55.19859,0,0,0,4.518-23.72684l1.99846-.07837a57.06681,57.06681,0,0,1-4.84277,24.5726,31.14845,31.14845,0,0,1-7.55825,10.18186,32.72484,32.72484,0,0,1-10.90845,6.39083,41.43387,41.43387,0,0,1-12.314,2.726,17.776,17.776,0,0,1-6.39931-.86673,10.3472,10.3472,0,0,1-6.05254-5.407L79.383,255.747l-.9479-2.94323c-.65072-1.9542-1.30927-3.9061-2.02-5.83658-.70224-1.93375-1.44371-3.852-2.24721-5.73807a41.61092,41.61092,0,0,0-2.67919-5.42157Z"/><path class="cls-6" d="M78.38758,250.48856a20.281,20.281,0,0,1,1.86112-2.58844c.67529-.82254,1.38267-1.62323,2.12647-2.39218a42.25028,42.25028,0,0,1,4.91969-4.13559,34.50745,34.50745,0,0,1,11.75527-5.379,32.81168,32.81168,0,0,1,12.93292-.484c1.06.20887,2.12153.38355,3.15573.67926a31.20414,31.20414,0,0,1,3.07655.91428,38.90746,38.90746,0,0,1,5.77645,2.68362l-.05918.13782a44.22394,44.22394,0,0,0-12.08179-3.25888,35.74933,35.74933,0,0,0-12.44786.78476A38.02348,38.02348,0,0,0,87.924,242.35688a40.47713,40.47713,0,0,0-9.41688,8.22229Z"/><path class="cls-6" d="M48.95392,191.1917a25.54209,25.54209,0,0,0,4.61485-.07777,9.75718,9.75718,0,0,0,4.074-1.42725,6.16175,6.16175,0,0,0,2.55433-3.52867,4.9465,4.9465,0,0,0,.16257-2.24406,2.88278,2.88278,0,0,0-1.09185-1.78129,5.38226,5.38226,0,0,0-4.06975-.61453l-.50237.13228-.44793.18825a7.54386,7.54386,0,0,0-.907.55595,15.98938,15.98938,0,0,0-1.72977,1.39249,14.16,14.16,0,0,0-2.83248,3.41246,4.92337,4.92337,0,0,0-.62131,2.01794A3.16788,3.16788,0,0,0,48.95392,191.1917Zm-.06794.13373a3.1632,3.1632,0,0,1-1.48359-2.03085,5.36856,5.36856,0,0,1,.29616-2.57352,11.79659,11.79659,0,0,1,2.81849-4.1013,11.96748,11.96748,0,0,1,1.97462-1.53769,8.9726,8.9726,0,0,1,1.15165-.60213c.21977-.07718.44068-.158.65992-.2244.21735-.04327.43421-.09268.65108-.12712a5.62279,5.62279,0,0,1,4.86283,1.39374,3.90475,3.90475,0,0,1,1.04626,2.31593,7.56294,7.56294,0,0,1-.1949,2.43975c-.0824.39669-.20974.77871-.30661,1.17494-.11308.39178-.28672.7737-.434,1.16838a11.654,11.654,0,0,1-.647,1.0995,10.08738,10.08738,0,0,1-.87715.95586,7.67535,7.67535,0,0,1-4.75043,1.59686A11.41278,11.41278,0,0,1,48.886,191.32543Z"/><path class="cls-6" d="M122.3309,191.4506a11.41239,11.41239,0,0,1-4.76729.94795,7.6753,7.6753,0,0,1-4.75044-1.59686,10.0885,10.0885,0,0,1-.87715-.95584,11.65613,11.65613,0,0,1-.647-1.09951c-.14733-.39468-.321-.77661-.434-1.16838-.09688-.39624-.22422-.77824-.30661-1.175a7.56281,7.56281,0,0,1-.1949-2.43974,3.90473,3.90473,0,0,1,1.04625-2.31593,5.62282,5.62282,0,0,1,4.86283-1.39374c.21688.03445.43373.08386.65109.12714.21924.06642.44014.14721.65992.22439a8.97386,8.97386,0,0,1,1.15165.60213,11.96783,11.96783,0,0,1,1.97461,1.53767,11.79681,11.79681,0,0,1,2.81849,4.10132,5.36843,5.36843,0,0,1,.29616,2.57352A3.16318,3.16318,0,0,1,122.3309,191.4506Zm-.06794-.13373a3.16778,3.16778,0,0,0,.79666-1.9742,4.92346,4.92346,0,0,0-.62131-2.01794,14.16034,14.16034,0,0,0-2.83248-3.41246,15.98883,15.98883,0,0,0-1.72976-1.39247,7.53953,7.53953,0,0,0-.907-.556l-.44793-.18825-.50237-.13226a5.38221,5.38221,0,0,0-4.06975.61451,2.88286,2.88286,0,0,0-1.09185,1.7813,4.94653,4.94653,0,0,0,.16257,2.24406,6.16179,6.16179,0,0,0,2.55433,3.52867,9.75706,9.75706,0,0,0,4.074,1.42723A25.54014,25.54014,0,0,0,122.263,191.31687Z"/><path class="cls-6" d="M80.81474,149.967c2.00689-2.82594,3.82676-5.7522,5.57038-8.70779a99.44473,99.44473,0,0,0,4.70179-9.127A70.71544,70.71544,0,0,0,94.58,122.5147l.61916-2.48755c.2327-.82666.3139-1.67873.48414-2.52013.41209-1.68086.41442-3.40025.67223-5.12709a36.282,36.282,0,0,1-.63735,10.408,50.856,50.856,0,0,1-3.26216,9.95493,63.82813,63.82813,0,0,1-5.0826,9.13511A53.556,53.556,0,0,1,80.81474,149.967Z"/><path class="cls-6" d="M88.58818,148.15993a26.47954,26.47954,0,0,1,8.56376-2.84338,39.71775,39.71775,0,0,1,9.07175-.45947,42.10731,42.10731,0,0,1,8.92523,1.61558,40.9818,40.9818,0,0,1,4.2655,1.498c1.38322.594,2.72561,1.2842,4.04054,1.99631-1.48252-.30074-2.89921-.73752-4.34495-1.06267l-2.16451-.47716-1.075-.24705-1.08693-.19014c-.72462-.12329-1.44579-.25331-2.16254-.40044l-2.17579-.29091-1.08379-.16009-1.0904-.10056c-.72721-.06042-1.45254-.14567-2.18027-.18652a64.71961,64.71961,0,0,0-8.75044.00836A53.56931,53.56931,0,0,0,88.58818,148.15993Z"/><path class="cls-6" d="M95.099,122.46325a83.16733,83.16733,0,0,0,.40173-9.21881,47.3836,47.3836,0,0,0-.86525-9.056,18.97657,18.97657,0,0,0-3.42765-8.041A9.79973,9.79973,0,0,0,87.916,93.42968,12.36,12.36,0,0,0,83.6855,92.275l.07668-.00276a18.57292,18.57292,0,0,0-8.66345,3.43756,19.52237,19.52237,0,0,0-6.02508,7.13281c-2.64262,5.71-3.13073,12.13689-2.4317,18.37233a30.70191,30.70191,0,0,0,2.20622,8.95941,11.20236,11.20236,0,0,0,5.88469,6.26959,14.0326,14.0326,0,0,0,8.91457.17151,24.3167,24.3167,0,0,0,4.37933-1.68879,17.0494,17.0494,0,0,0,2.04364-1.18288,6.12877,6.12877,0,0,0,1.71166-1.55595l.185.07589a5.79051,5.79051,0,0,1-1.58356,1.88687,17.68244,17.68244,0,0,1-1.96547,1.45885,21.929,21.929,0,0,1-4.40367,2.16808,14.62636,14.62636,0,0,1-9.9412.38961,11.32456,11.32456,0,0,1-4.35009-2.84047,15.21792,15.21792,0,0,1-2.82644-4.27182,29.03105,29.03105,0,0,1-2.24965-9.65013l-.15584-4.90112c.12581-1.63568.19149-3.278.448-4.897a27.97561,27.97561,0,0,1,1.19827-4.77739l.41494-1.16076a6.52738,6.52738,0,0,1,.47354-1.13494l1.1236-2.1914A23.90257,23.90257,0,0,1,83.64974,91.28646l.01905-.00406.058.00128a13.39838,13.39838,0,0,1,4.75579.90234,10.48261,10.48261,0,0,1,4.01593,2.865,17.88112,17.88112,0,0,1,3.81982,8.81247,39.80008,39.80008,0,0,1,.432,9.41431,50.72716,50.72716,0,0,1-1.45507,9.2238Z"/><path class="cls-17" d="M76.29707,85.816s16.53469-1.08425,15.49563-9.48712c-.57075-4.6156-4.78087-5.142-8.46-4.67893a18.53723,18.53723,0,0,0-10.21194,4.69237c-1.71744,1.57655-3.21166,3.54649-2.9677,5.49812C70.69515,86.17741,76.29707,85.816,76.29707,85.816Z"/><path class="cls-17" d="M141.24771,83.36536s15.26623,6.44313,18.10434-1.53391c1.55894-4.38169-1.96845-6.7396-5.46481-7.975a18.53713,18.53713,0,0,0-11.23187-.38345c-2.242.63935-4.46072,1.73041-5.11755,3.58432C136.0782,81.17714,141.24771,83.36536,141.24771,83.36536Z"/><path class="cls-19" d="M68.16885,103.44259S96.62661,86.62918,90.39222,134.878c0,0-9.34612,3.61435-12.19773,3.182S67.76528,134.98079,66.626,127.06771,66.2007,106.73292,68.16885,103.44259Z"/><ellipse class="cls-3" cx="87.03669" cy="111.3549" rx="6.05344" ry="7.99629"/><path class="cls-6" d="M143.11748,147.85245a47.83381,47.83381,0,0,1-3.24709-8.19734,68.299,68.299,0,0,1-2.01831-8.59712,67.48414,67.48414,0,0,1-.90411-8.78465,55.81953,55.81953,0,0,1,.3244-8.80916c.27145,2.92943.49776,5.83169.84277,8.72058.31861,2.8894.72933,5.76375,1.21517,8.62387.45317,2.86673,1.04834,5.70857,1.66757,8.54913C141.64578,142.19216,142.30829,145.02988,143.11748,147.85245Z"/><path class="cls-6" d="M138.51018,123.58863a44.47217,44.47217,0,0,1-1.56845-14.95706,25.26567,25.26567,0,0,1,1.64766-7.5048,13.93079,13.93079,0,0,1,4.68325-6.26924,12.35017,12.35017,0,0,1,7.41794-2.32582,16.85851,16.85851,0,0,1,7.33624,2.012,24.52889,24.52889,0,0,1,11.06612,10.04161,23.83957,23.83957,0,0,1,1.62006,3.47476,23.42992,23.42992,0,0,1,.98352,3.711,31.46163,31.46163,0,0,1,.48521,7.63665c-.08067,1.27057-.25175,2.53162-.37533,3.79987a26.50968,26.50968,0,0,1-.84316,3.80073,14.96315,14.96315,0,0,1-4.115,6.75676,14.15746,14.15746,0,0,1-7.14128,3.43573,22.50113,22.50113,0,0,1-7.73221-.08778,32.84033,32.84033,0,0,1-7.27909-2.19969,26.77012,26.77012,0,0,1-3.36917-1.7328,16.212,16.212,0,0,1-1.56923-1.06919,4.47238,4.47238,0,0,1-1.30987-1.41023l.1808-.0855a4.48381,4.48381,0,0,0,1.3824,1.1328,15.696,15.696,0,0,0,1.62262.86424,36.49021,36.49021,0,0,0,3.42493,1.35611,34.31109,34.31109,0,0,0,7.13845,1.58493,22.45165,22.45165,0,0,0,7.13262-.254,12.51763,12.51763,0,0,0,6.06741-3.09764,12.8018,12.8018,0,0,0,2.151-2.65583c.25854-.519.56552-1.0101.79092-1.54864.20163-.5499.48258-1.0649.64308-1.63581a24.49625,24.49625,0,0,0,.86576-3.46077c.14811-1.20553.34695-2.41088.45733-3.6202a34.00586,34.00586,0,0,0-.17323-7.24765,29.27989,29.27989,0,0,0-.71683-3.552,22.6279,22.6279,0,0,0-1.29255-3.38927,19.89046,19.89046,0,0,0-4.2528-5.90568,21.88136,21.88136,0,0,0-6.11676-4.0548c-.55769-.2599-1.13006-.48453-1.71028-.68727a12.27045,12.27045,0,0,0-1.74409-.52554,12.85467,12.85467,0,0,0-3.57993-.2737,11.16508,11.16508,0,0,0-6.43731,2.53726,13.99088,13.99088,0,0,0-4.05336,5.61782,26.80288,26.80288,0,0,0-1.7437,6.98741,51.42483,51.42483,0,0,0-.32726,7.34684,68.83926,68.83926,0,0,0,.54863,7.41056Z"/><path class="cls-19" d="M139.33946,101.95564s29.3506-14.73433,23.11621,33.51445c0,0-10.91264.61943-13.76425.18707s-9.75553-2.16332-10.89484-10.0764S137.37131,105.246,139.33946,101.95564Z"/><ellipse class="cls-3" cx="160.76173" cy="111.3549" rx="6.97823" ry="7.99629"/><path class="cls-18" d="M31.301,228.75528s-15.90222-25.66041-16.26363-31.443,2.89131-18.43212,11.20383-44.09252S49.0103,82.72742,51.17879,79.30227s3.80477-11.01486,9.49208-14.629S144.42363,33.901,205.864,71.51412"/><path class="cls-17" d="M68.23184,61.61448S46.119,38.59787,25.157,51.81628c-13.90959,8.77123-9.35944,28.59678-4.72331,40.9441a49.95727,49.95727,0,0,0,11.85,18.138c1.87087,1.83133,3.93761,3.73193,5.97641,5.3686"/><path class="cls-6" d="M25.41892,72.77081A28.5411,28.5411,0,0,1,26.479,67.24466a18.191,18.191,0,0,1,2.38051-5.17978A8.87771,8.87771,0,0,1,33.531,58.52313a8.75577,8.75577,0,0,1,2.97529-.31819,10.14957,10.14957,0,0,1,1.45476.09072,12.02159,12.02159,0,0,1,1.44727.21043,17.35526,17.35526,0,0,1,5.51017,2.02427,15.854,15.854,0,0,1,4.4231,3.87461,19.004,19.004,0,0,1,3.964,10.66828l-.19618.0389a40.739,40.739,0,0,0-2.22989-5.0482A23.01436,23.01436,0,0,0,47.807,65.6876a17.34942,17.34942,0,0,0-8.73885-5.61808,10.611,10.611,0,0,0-1.30505-.26176,8.94655,8.94655,0,0,0-1.32668-.1545,7.39931,7.39931,0,0,0-2.56661.12494,7.72586,7.72586,0,0,0-4.21029,2.88669,17.40879,17.40879,0,0,0-2.612,4.77151,28.16055,28.16055,0,0,0-1.4297,5.35512Z"/><path class="cls-17" d="M202.51589,69.54089s24.37673-23.82161,45.33875-10.6032c13.9096,8.77123,11.075,29.3215,6.43887,41.66882,0,0-7.07212,24.73719-32.93887,35.204"/><path class="cls-6" d="M248.86383,87.20688a28.16044,28.16044,0,0,0,.752-5.49143,17.40854,17.40854,0,0,0-.564-5.41032,7.72594,7.72594,0,0,0-2.76675-4.29006,7.3996,7.3996,0,0,0-2.31871-1.10758,8.949,8.949,0,0,0-1.28323-.37046,10.60824,10.60824,0,0,0-1.30477-.26318A17.34942,17.34942,0,0,0,231.147,72.07623a23.01473,23.01473,0,0,0-4.52565,2.84805,40.73951,40.73951,0,0,0-4.00832,3.79344l-.16588-.11172a19.00385,19.00385,0,0,1,7.78054-8.306,15.85381,15.85381,0,0,1,5.57719-1.86315,17.35534,17.35534,0,0,1,5.86432.2636,12.02265,12.02265,0,0,1,1.41608.36551,10.14916,10.14916,0,0,1,1.37669.4788,8.75582,8.75582,0,0,1,2.62088,1.44381,8.87755,8.87755,0,0,1,2.93878,5.07248,18.191,18.191,0,0,1,.19267,5.69735,28.54027,28.54027,0,0,1-1.159,5.50626Z"/><path class="cls-18" d="M228.1,72.78116s-8.5022,4.18019-9.225,11.40847,6.50545,110.0506,6.23439,124.41681,0,16.80575-7.58969,23.31121-31.096,19.78742-46.17784,22.76909"/><path class="cls-18" d="M73.22579,60.03564s-6.958-21.65524,4.15552-38.18994c6.94593-10.33418,14.8448-7.75064,19.79219-4.35973a23.70149,23.70149,0,0,1,6.80448,7.34837c3.22633,5.33237,6.62373,14.74478,7.828,26.98194"/><path class="cls-18" d="M160.03984,54.41809s-2.434-21.27553,11.6742-35.3419c8.81766-8.79149,16.06579-4.72558,20.2619-.43985a27.00088,27.00088,0,0,1,5.25073,8.52815c4.30038,10.10181,3.37035,17.258.57534,39.82718"/><path class="cls-18" d="M74.641,267.60663s-1.05451,95.7754-5.39148,121.79721-14.8868,99.75029-15.0331,103.003c0,0-14.3009,97.03969,20.42458,159.92574"/><path class="cls-18" d="M59.20074,611.61021c.3534,1.29764,9.50663,87.04,23.05966,112.68186s69.47856,18.62526,74.81272,7.039c5.42121-11.7754,7.92252-43.50538,7.92252-43.50538"/><path class="cls-6" d="M98.5593,664.7078c2.78519.63153,5.50759,1.41675,8.22108,2.22613,2.70879.82257,5.40722,1.66718,8.05972,2.65455,2.64083,1.02252,5.25511,2.14135,7.93655,3.05542a77.84617,77.84617,0,0,0,8.20878,2.17834l4.15622.8808c1.38453.29071,2.75561.63177,4.13283.94287l8.26957,1.79272c5.50092,1.23175,10.976,2.478,16.582,3.445a.10053.10053,0,0,1,.08345.11511.1021.1021,0,0,1-.09416.0846,70.87085,70.87085,0,0,1-17.01439-1.558c-1.38928-.31134-2.79349-.568-4.165-.949l-4.12235-1.10645c-2.73846-.765-5.45419-1.614-8.12568-2.59381-2.68767-.926-5.36315-1.87066-8.10138-2.61212-1.36315-.39008-2.74417-.72375-4.129-1.04907-1.384-.32837-2.75955-.68518-4.13524-1.04425-2.73473-.76935-5.40528-1.73786-8.05-2.77228a75.58863,75.58863,0,0,1-7.78344-3.5033.10087.10087,0,0,1,.07052-.18719Z"/><path class="cls-18" d="M159.2416,652.3326s9.75818,74.81272,22.227,87.82362,61.25969,14.09515,69.39151,0S269.83432,702.584,272.0028,673.3924a404.72956,404.72956,0,0,0,0-55.75556"/><path class="cls-6" d="M271.10077,681.88346l9.31741-.95874c3.09726-.30573,6.18222-.65113,9.28052-.91028,3.10068-.22839,6.22446-.41687,9.3-.93475a55.44256,55.44256,0,0,0,9.03637-2.34424c2.93262-1.04334,5.825-2.152,8.65458-3.37232a71.71531,71.71531,0,0,0,8.1344-4.28021,35.27514,35.27514,0,0,0,12.86389-12.81341.10048.10048,0,0,1,.13617-.04065.10169.10169,0,0,1,.04831.11792,23.91759,23.91759,0,0,1-4.65747,8.27649,32.58854,32.58854,0,0,1-7.25489,6.26513,50.16941,50.16941,0,0,1-8.55264,4.21362,58.98135,58.98135,0,0,1-9.0751,2.68732c-3.06846.70233-6.15241,1.25427-9.21164,1.92725l-4.593,1.03564c-1.53671.32544-3.07718.64844-4.62738.91468a72.35037,72.35037,0,0,1-9.38568.8048,63.45108,63.45108,0,0,1-9.4177-.3883.10054.10054,0,0,1-.08752-.11206A.10269.10269,0,0,1,271.10077,681.88346Z"/><path class="cls-18" d="M293.12673,680.39413s.92191,35.90876,11.31278,47.29331,26.11238,13.01091,43.46025,8.67394,27.10606-7.67793,30.90091-26.87912,16.26363-73.4133,10.84242-114.6145-22.227-81.8603-54.75423-106.25575-79.496-33.89132-95.21747-29.10226"/><path class="cls-18" d="M390.9426,613.02447s6.01913-1.622,6.56125-2.70626c0,0,5.15015,4.608,8.40288-7.86076,0,0,7.86075,3.79485,5.42121-17.34787-.18642-1.61565-14.63727-22.227-22.76909-38.49061s-20.4092-19.31741-20.4092-19.31741"/><path class="cls-18" d="M211.54045,236.30476s-20.65571,71.38645,30.30368,234.02279"/></svg>