<svg xmlns="http://www.w3.org/2000/svg" role="img" xmlns:xlink="http://www.w3.org/1999/xlink" viewBox="-0.77 -2.27 428.04 768.04"><defs><linearGradient id="linear-gradient" x1="260.618" x2="298.485" y1="719.101" y2="719.101" gradientUnits="userSpaceOnUse"><stop offset=".157" stop-color="#eec43b"/><stop offset="1" stop-color="#cca933"/></linearGradient><linearGradient id="linear-gradient-2" x1="262.225" x2="300.092" y1="697.52" y2="697.52" xlink:href="#linear-gradient"/><linearGradient id="linear-gradient-3" x1="50.805" x2="164.999" y1="584.439" y2="584.439" xlink:href="#linear-gradient"/><linearGradient id="linear-gradient-4" x1="98.524" x2="164.999" y1="676.434" y2="676.434" gradientUnits="userSpaceOnUse"><stop offset=".157" stop-color="#eec43b"/><stop offset="1" stop-color="#b89a2e"/></linearGradient><linearGradient id="linear-gradient-5" x1="307.321" x2="307.321" y1="617.555" y2="681.983" xlink:href="#linear-gradient-4"/><linearGradient id="linear-gradient-6" x1="221.865" x2="221.865" y1="621.114" y2="750.136" gradientUnits="userSpaceOnUse"><stop offset=".314" stop-color="#eec43b"/><stop offset="1" stop-color="#cca933"/></linearGradient><linearGradient id="linear-gradient-7" x1="291.519" x2="336.727" y1="698.244" y2="698.244" xlink:href="#linear-gradient"/><linearGradient id="linear-gradient-8" x1="256.053" x2="390.956" y1="595.723" y2="595.723" xlink:href="#linear-gradient"/><style>.cls-17,.cls-18,.cls-19{stroke:#231f20;stroke-miterlimit:10}.cls-17,.cls-18{stroke-width:2px}.cls-3{fill:#fff}.cls-4{fill:#eec43b}.cls-5{fill:#825f3a}.cls-19,.cls-6{fill:#231f20}.cls-7{fill:#c5c8ba}.cls-8{fill:#727565}.cls-9{fill:#99a08e}.cls-17,.cls-18{fill:none}.cls-18{stroke-linecap:round}</style></defs><path fill="url(#linear-gradient)" stroke="#231f20" stroke-miterlimit="10" stroke-width="2" d="M298.485 717.598c-23.393 6.296-37.867.75-37.867.75"/><path fill="url(#linear-gradient-2)" stroke="#231f20" stroke-miterlimit="10" stroke-width="2" d="M262.225 718.349l7.048-41.658h29.977l.842 40.907"/><ellipse cx="119.371" cy="111.377" class="cls-3" rx="66.163" ry="38.594"/><path d="M411.328 585.11c2.44 21.142-5.421 17.347-5.421 17.347-3.253 12.47-8.403 7.861-8.403 7.861-.542 1.084-6.56 2.71-6.56 2.71a163.376 163.376 0 0 0-1.3-18.16c-3.124-23.702-10.008-47.219-21.48-67.57.466.119 12.426 3.372 20.395 19.321 8.132 16.264 22.585 36.875 22.769 38.49z" class="cls-4"/><path d="M91.878 132.222a55.906 55.906 0 0 0 3.328-9.737h-.01s5.854-29.98-11.494-30.706a21.24 21.24 0 0 0-15.537 11.667 2.917 2.917 0 0 0-.206.412 5.079 5.079 0 0 0-.238.542.154.154 0 0 0-.022.065c-1.778 4.12-2.732 9.574-2.06 16.773a35.916 35.916 0 0 0 .976 5.78.098.098 0 0 1 .01.053 11.716 11.716 0 0 0 2.353 5.628 10.806 10.806 0 0 0 9.216 5.356h.033a5.399 5.399 0 0 0 1.377-.022 19.49 19.49 0 0 0 6.093-1.507c2.548-.824 4.695-1.648 4.695-1.648.054-.39.098-.78.141-1.171a4.54 4.54 0 0 0 1.345-1.485zm46.655-1.562c.325.683 1.951 1.833 4.326 2.939a15.553 15.553 0 0 0 5.833 2.06h.01c4.305 1.106 9.271 1.474 13.435-.163.206-.01.314-.022.314-.022 0-.032.01-.076.01-.108 4.023-1.702 7.254-5.356 8.35-12.144 3.187-19.874-8.674-26.954-15.093-29.296a12.77 12.77 0 0 0-9.411.109c-4.131 1.778-6.42 5.377-7.623 9.476a16.44 16.44 0 0 0-.281 1.062q-.163.635-.293 1.367c-.087.466-.174.954-.239 1.463-.032.195-.065.412-.087.618a66.729 66.729 0 0 0-.52 8.002 64.59 64.59 0 0 0 .531 9.563c.033.25.076.488.12.726.184 1.508.39 2.96.618 4.348zm100.086 329.176l1.052-.325c15.721-4.792 62.69 4.706 95.218 29.101 13.813 10.365 24.797 23.658 33.264 38.686h.011c11.472 20.351 18.357 43.868 21.48 67.57a163.376 163.376 0 0 1 1.3 18.16c.76 37.7-8.89 79.975-12.143 96.455-3.795 19.202-13.553 22.541-30.901 26.878s-33.07 2.711-43.457-8.673c-10.278-11.255-11.297-46.482-11.32-47.284a151.342 151.342 0 0 1-22.02 1.583 160.906 160.906 0 0 1-20.243 58.17c-8.132 14.094-56.923 13.01-69.391 0-6.603-6.886-12.437-31.075-16.47-52.326 0 0-2.505 31.725-7.926 43.5-5.334 11.59-61.26 18.605-74.813-7.037-13.444-25.447-22.563-110.05-23.05-112.642 0-.022-.011-.033-.011-.043-14.139-57.053-4.988-119.202-4.988-119.202.152-3.253 10.702-76.981 15.038-103.003s5.39-121.793 5.39-121.793a90.345 90.345 0 0 0 29.306-.184s39.033-3.98 47.707-36.865-11.927-56.022-11.927-56.022-20.958-28.549-70.476-14.811C19.927 173.4 30.846 226.919 31.29 228.73c-.477-.77-15.906-25.718-16.253-31.421-.357-5.78 2.895-18.432 11.2-44.086 3.394-10.484 7.829-24.19 12.025-36.95 6.06-18.454 11.634-34.946 12.913-36.973a32.815 32.815 0 0 0 2.028-4.207c1.572-3.589 3.567-7.948 7.47-10.42a45.607 45.607 0 0 1 7.557-3.057q2.228-.748 4.999-1.583a205.98 205.98 0 0 1 38.664-7.362 179.382 179.382 0 0 1 48.15 1.745 135.136 135.136 0 0 1 37.754 12.578c1.583.802 3.155 1.658 4.717 2.548 0 0 24.373-23.821 45.343-10.604 13.91 8.771 11.07 29.318 6.44 41.667 0 0-7.08 24.742-32.94 35.205 1.812 30.652 3.904 64.947 3.752 72.796-.27 14.367 0 16.806-7.59 23.312a65.656 65.656 0 0 1-5.974 4.39s-19.776 68.308 27.063 223.528zm-79.269-378c1.561-4.39-1.962-6.743-5.465-7.98a18.49 18.49 0 0 0-11.232-.379c-2.245.64-4.457 1.724-5.118 3.578-1.453 4.12 3.708 6.31 3.708 6.31s15.266 6.441 18.107-1.528zm-83.053 3.98s16.535-1.084 15.494-9.487c-.564-4.619-4.782-5.14-8.457-4.684A18.675 18.675 0 0 0 73.12 76.34c-1.713 1.583-3.21 3.545-2.97 5.497.542 4.337 6.147 3.979 6.147 3.979z" class="cls-4"/><path d="M197.223 27.17c4.304 10.094 3.372 17.25.574 39.824a135.136 135.136 0 0 0-37.753-12.578s-2.44-21.272 11.666-35.335c8.826-8.793 16.069-4.727 20.265-.445a26.871 26.871 0 0 1 5.248 8.533z" class="cls-5"/><path d="M160.76 103.359c3.86 0 6.982 3.578 6.982 7.99a7.99 7.99 0 0 1-4.575 7.504c-.543-7.395-2.483-12.046-5.031-14.898a6.005 6.005 0 0 1 2.624-.596z" class="cls-3"/><path d="M137.784 108.021c.022-.206.055-.412.087-.618.065-.51.152-.997.239-1.463q.13-.684.292-1.367c.087-.38.185-.737.282-1.062a7.09 7.09 0 0 1 .65-1.55s11.754-5.899 18.802 1.994a8.033 8.033 0 0 0-4.348 7.395c0 4.424 3.122 8.002 6.972 8.002a6.017 6.017 0 0 0 2.407-.5 83.087 83.087 0 0 1-.705 16.514l-.325.13c-1.811.098-10.854.553-13.434.163h-.011a34.346 34.346 0 0 1-5.833-2.06 10.744 10.744 0 0 1-4.944-7.287 91.985 91.985 0 0 1-.651-10.289 66.729 66.729 0 0 1 .52-8.002z" class="cls-6"/><path d="M162.462 135.366c0 .032-.011.076-.011.108 0 0-.108.011-.314.022z" class="cls-6"/><path d="M163.167 118.853a6.017 6.017 0 0 1-2.407.499c-3.85 0-6.972-3.578-6.972-8.002a8.033 8.033 0 0 1 4.348-7.395c2.548 2.852 4.488 7.503 5.03 14.898z" class="cls-3"/><path d="M153.885 73.857c3.503 1.236 7.026 3.589 5.465 7.98-2.84 7.969-18.107 1.529-18.107 1.529s-5.16-2.19-3.708-6.31c.661-1.855 2.873-2.939 5.118-3.579a18.49 18.49 0 0 1 11.232.38z" class="cls-5"/><path d="M127.083 219.893a42.997 42.997 0 0 1-9.043-.195v.022a63.669 63.669 0 0 1-45.982 15.559l-.011.13s2.342 3.285 6.408 15.114a307.71 307.71 0 0 1 1.637 4.977c3.198 10.062 16.1 7.97 26.054 3.881a30.512 30.512 0 0 0 16.925-17.087c.304-.78.607-1.594.89-2.44a55.49 55.49 0 0 0 3.122-19.96zm12.642-45.353s20.6 23.137 11.927 56.022-47.707 36.865-47.707 36.865a90.345 90.345 0 0 1-29.307.184c-16.979-2.862-36.354-12.23-43.337-38.86a.034.034 0 0 0-.01-.021c-.445-1.81-11.364-55.329 37.959-69.001 49.517-13.738 70.475 14.81 70.475 14.81zm-17.424 16.849c3.795-2.982-2.71-9.487-5.562-10.3-2.84-.814-7.99.27-5.551 6.505s11.113 3.795 11.113 3.795zm-62.268-3.925c2.44-6.235-2.71-7.319-5.55-6.506-2.852.813-9.358 7.319-5.563 10.3 0 0 8.674 2.44 11.113-3.794z" class="cls-7"/><path d="M142.859 133.599a34.346 34.346 0 0 0 5.833 2.06 15.553 15.553 0 0 1-5.833-2.06zm-4.457-29.026q-.162.683-.292 1.367.13-.732.292-1.367zm-.487 21.739a14.273 14.273 0 0 1-.12-.726 64.59 64.59 0 0 1-.531-9.563 91.985 91.985 0 0 0 .65 10.29zm-.044-18.909c-.032.206-.065.412-.087.618.022-.206.055-.423.087-.618z" class="cls-6"/><path d="M127.083 219.893a55.49 55.49 0 0 1-3.123 19.961c-27.865-11.959-45.06 10.095-45.505 10.67-4.066-11.83-6.408-15.115-6.408-15.115l.01-.13a63.669 63.669 0 0 0 45.983-15.56v-.02a42.997 42.997 0 0 0 9.043.194z" class="cls-8"/><path d="M123.96 239.854a52.683 52.683 0 0 1-.889 2.44 30.512 30.512 0 0 1-16.925 17.087c-9.953 4.088-22.856 6.18-26.054-3.881a307.677 307.677 0 0 0-1.637-4.977c.444-.574 17.64-22.628 45.505-10.669z" class="cls-9"/><path d="M116.74 181.088c2.85.814 9.356 7.319 5.561 10.3 0 0-8.673 2.44-11.113-3.794s2.71-7.319 5.551-6.506z" class="cls-8"/><path d="M111.806 51.814l.087.857a205.98 205.98 0 0 0-38.664 7.362S66.268 38.38 77.38 21.846c6.95-10.333 14.844-7.753 19.788-4.359a23.606 23.606 0 0 1 6.809 7.351c3.23 5.324 6.624 14.746 7.828 26.976zM91.79 76.329c1.042 8.403-15.493 9.487-15.493 9.487s-5.605.358-6.148-3.98c-.238-1.95 1.258-3.913 2.971-5.496a18.675 18.675 0 0 1 10.214-4.695c3.675-.455 7.893.065 8.457 4.684z" class="cls-5"/><path d="M87.042 103.359c3.34 0 6.05 3.578 6.05 7.99a9.224 9.224 0 0 1-2.028 5.964c-.628-7.102-2.623-11.363-5.193-13.802a4.687 4.687 0 0 1 1.17-.152z" class="cls-3"/><path d="M91.064 117.313a79.624 79.624 0 0 1-.53 16.394 20.248 20.248 0 0 1-4.837 2.819 37.065 37.065 0 0 1-6.093 1.507 19.55 19.55 0 0 1-1.377.022h-.033a15.257 15.257 0 0 1-9.216-5.356 19.65 19.65 0 0 1-2.363-5.682c-1.03-7.243-.52-18.226 1.084-22.552a.154.154 0 0 1 .022-.065c.076-.184.162-.369.238-.542a2.917 2.917 0 0 1 .206-.412s10.875-6.43 17.706.065c-2.787.715-4.89 3.957-4.89 7.839 0 4.424 2.71 8.002 6.06 8.002a5.264 5.264 0 0 0 4.023-2.039z" class="cls-6"/><path d="M90.533 133.707a42.9 42.9 0 0 1-.14 1.171s-2.148.824-4.696 1.648a20.248 20.248 0 0 0 4.836-2.819z" class="cls-6"/><path d="M91.064 117.313a5.264 5.264 0 0 1-4.022 2.039c-3.35 0-6.061-3.578-6.061-8.002 0-3.882 2.103-7.124 4.89-7.84 2.57 2.44 4.565 6.701 5.193 13.803z" class="cls-3"/><path d="M78.227 138.055c.455.01.91 0 1.377-.022a5.399 5.399 0 0 1-1.377.022zM67.96 103.858c-.077.173-.163.358-.24.542a5.079 5.079 0 0 1 .24-.542zm-1.345 23.159a19.65 19.65 0 0 0 2.363 5.682 11.716 11.716 0 0 1-2.352-5.628.098.098 0 0 0-.011-.054z" class="cls-6"/><path d="M53.203 75.093a32.815 32.815 0 0 1-2.028 4.207c-1.28 2.027-6.852 18.519-12.913 36.972-2.039-1.637-4.11-3.545-5.974-5.377a49.829 49.829 0 0 1-11.851-18.14c-4.64-12.339-9.194-32.17 4.716-40.94 20.97-13.218 43.077 9.8 43.077 9.8a45.607 45.607 0 0 0-7.557 3.058c-3.903 2.472-5.898 6.831-7.47 10.42z" class="cls-4"/><path d="M54.482 180.958c2.84-.813 7.991.271 5.551 6.506s-11.113 3.795-11.113 3.795c-3.795-2.982 2.71-9.488 5.562-10.3z" class="cls-8"/><path d="M396.185 599.927a38.457 38.457 0 0 0-.803 7.187c-.04 2.718 3.263 3.082 4.659 1.262a11.874 11.874 0 0 0 2.032-9.806c-.51-2.392-4.3-2.377-4.822 0a24.233 24.233 0 0 0-.167 9.59c.373 2.103 3.63 2.437 4.57.597a13.151 13.151 0 0 0 1.503-7.109c-.251-3.165-4.99-3.262-5 0a12.577 12.577 0 0 1-.536 3.63c-.696 2.362 2.47 4.265 4.178 2.433a13.36 13.36 0 0 0 3.534-6.994l-4.82-1.329c-.127.931-.108.092.731-.13h1.33q.988.705.433.091a1.247 1.247 0 0 0-.34-.376 3.429 3.429 0 0 0-1.247-.767 4.167 4.167 0 0 0-2.445-.112 4.94 4.94 0 0 0-1.929 1.021c-.31.258-1.223 1.618-1.45 1.701h1.33l-.318-.128 1.746 3.075.04-.182-1.747 1.746.2-.067-2.823-1.149.066.12c1.549 2.82 5.868.3 4.317-2.524l-.065-.12a2.526 2.526 0 0 0-2.824-1.148 2.7 2.7 0 0 0-1.985 1.995 2.589 2.589 0 0 0 1.746 3.075c1.445.585 2.82-.236 3.818-1.26a4.937 4.937 0 0 0 1.048-1.26q.797-.306-1-.47a4.183 4.183 0 0 0 .548.67c2.208 2.236 5.277.206 5.64-2.472a2.59 2.59 0 0 0-1.746-3.075 2.518 2.518 0 0 0-3.075 1.746 8.792 8.792 0 0 1-2.248 4.787l4.178 2.433a17.632 17.632 0 0 0 .715-4.96h-5a8.298 8.298 0 0 1-.821 4.586l4.57.597a17.762 17.762 0 0 1 .167-6.932h-4.822a7.105 7.105 0 0 1-1.527 5.953l4.658 1.262a31.14 31.14 0 0 1 .624-5.858c.646-3.14-4.173-4.483-4.822-1.329z" class="cls-5"/><path d="M393.225 602.526a18.321 18.321 0 0 0-1.496 4.735c-.496 3.116 3.848 4.472 4.822 1.33l.485-1.567-4.822-1.33-.483 1.984 4.911.664.03-1.05c.068-2.423-3.522-3.481-4.659-1.262a2.816 2.816 0 0 0 .9 3.776c1.397.897 2.933.244 3.952-.85a27.086 27.086 0 0 0 4.93-8.176 2.518 2.518 0 0 0-1.747-3.075 2.56 2.56 0 0 0-3.075 1.746 23.26 23.26 0 0 1-1.828 3.48c-.305.484-.624.962-.963 1.423q-.316.438-.667.849-.83.814.186.13l1.927.252.618.609v2.524l.084-.165-4.658-1.262-.03 1.051c-.079 2.803 4.24 3.417 4.91.665l.484-1.983a2.502 2.502 0 0 0-4.822-1.33l-.485 1.567 4.822 1.33a13.724 13.724 0 0 1 .991-3.541 2.58 2.58 0 0 0-.897-3.42 2.518 2.518 0 0 0-3.42.896z" class="cls-5"/><path d="M399.548 599.034a4.189 4.189 0 0 0-2.6-1.868c-1.21-.256-2.85.35-3.076 1.747a9.032 9.032 0 0 1-1.246 3.429l4.658 1.262-.575-4.302a2.583 2.583 0 0 0-2.5-2.5 2.526 2.526 0 0 0-2.5 2.5 28.763 28.763 0 0 1-.344 5.92l4.822 1.329a12.155 12.155 0 0 0-1.437-8.17c-1.614-2.783-5.937-.268-4.317 2.523a6.664 6.664 0 0 1 .932 4.317 2.58 2.58 0 0 0 1.746 3.076 2.52 2.52 0 0 0 3.076-1.747 35.163 35.163 0 0 0 .522-7.248h-5l.576 4.302c.311 2.332 3.241 3.56 4.658 1.261a12.657 12.657 0 0 0 1.75-4.623l-3.074 1.746-.389-.43a2.573 2.573 0 0 0 3.42.897 2.52 2.52 0 0 0 .898-3.42z" class="cls-5"/><path d="M391.305 608.589l-.036.252a1.543 1.543 0 0 0 .689 1.694c2.12.898 3.61-.67 3.964-2.762.192-1.132-1.032-2.55-2.203-1.694a5.157 5.157 0 0 0-2.313 3.436 1.513 1.513 0 0 0 2.507 1.46q3.624-3.206 7.434-6.185l-2.507-.662.824 3.297a1.51 1.51 0 0 0 2.507.662l2.693-3.428-2.507-.662-.105 1.773 2.946.398a66.214 66.214 0 0 1 1.52-11.284c.42-1.881-2.471-2.684-2.892-.798a70.903 70.903 0 0 0-1.628 12.082 1.507 1.507 0 0 0 2.947.4 7.88 7.88 0 0 0 .105-3.368 1.507 1.507 0 0 0-2.508-.662l-2.692 3.428 2.507.662-.825-3.297a1.521 1.521 0 0 0-2.507-.662q-3.812 2.98-7.434 6.185l2.508 1.459.934-1.644-2.203-1.694.442.97.69 1.693.036-.252c.276-1.888-2.614-2.703-2.893-.797z" class="cls-5"/><path d="M403.283 594.816a10.041 10.041 0 0 0 .455 5.983c1.276 3.055 5.643 2.762 5.893-.797l.231-3.297c.225-3.207-4.042-3.752-5.59-1.514a4.547 4.547 0 0 0-.068 5.067 3.036 3.036 0 0 0 5.484-.717 24.314 24.314 0 0 0 .813-8.912l-5.59 1.514.039.015 5.892.797a11.152 11.152 0 0 0-.533-5.126c-1.238-3.635-7.035-2.074-5.785 1.595a7.169 7.169 0 0 1 .318 3.531c-.442 3.334 5.242 4.1 5.893.798a6.404 6.404 0 0 0-.643-4.638c-1.334-2.527-5.882-1.482-5.59 1.514a19.62 19.62 0 0 1-.6 7.317l5.483-.717.068.99-5.59-1.514-.232 3.297 5.893-.798a4.57 4.57 0 0 1-.455-2.793c.723-3.773-5.06-5.39-5.786-1.595z" class="cls-5"/><path d="M406.13 589.056a5.07 5.07 0 0 0-2.441-.754 3.004 3.004 0 0 0-2.893 2.203l-1.538 5.82h5.786l-1.3-5.881c-.794-3.594-5.498-2.286-5.893.797l-.947 7.407 5.893-.797-1.515-5.923c-.891-3.486-5.561-2.394-5.892.798a56.46 56.46 0 0 0-.267 7.844l5.893-.797a33.353 33.353 0 0 0-1.586-5.339c-.99-2.538-5.052-3.145-5.786 0a29.397 29.397 0 0 0-.79 6.79l5.59-1.514a4.466 4.466 0 0 1-.563-3.196c.324-2.513-3.553-4.055-5.121-2.121a7.23 7.23 0 0 0-1.866 5.393l5.893-.797q-.2-1.746-1.57.054c3.863.096 3.861-5.904 0-6-4.24-.105-5.446 4.161-4.215 7.54 1.07 2.94 6.237 2.81 5.892-.797-.031-.333-.14-.845.109-1.15l-5.122-2.122a9.636 9.636 0 0 0 1.383 6.224 3.024 3.024 0 0 0 5.59-1.514 22.175 22.175 0 0 1 .576-5.195h-5.786a33.353 33.353 0 0 1 1.586 5.339c.692 3.31 6.012 2.571 5.893-.798a56.46 56.46 0 0 1 .267-7.844l-5.893.797 1.514 5.923c.906 3.54 5.493 2.336 5.893-.798l.947-7.407-5.892.798 1.3 5.881c.647 2.932 5.05 2.783 5.785 0l1.538-5.82-2.893 2.202-.587-.065c3.22 2.15 6.228-3.045 3.028-5.18z" class="cls-5"/><path d="M403.912 592.724l.056-.367-.771 1.323.262-.273-1.324.772.366-.072-3.69-2.095a3.807 3.807 0 0 0 5.253 2.492 4.07 4.07 0 0 0 2.186-2.368 6.488 6.488 0 0 0 .37-1.72c.064-.634.26-.643-.191-.182h-4.243a5.133 5.133 0 0 0 3.47 1.476 3.075 3.075 0 0 0 2.894-2.203 8.27 8.27 0 0 0 .589-3.303l-4.515 2.59 1.851.875a3.084 3.084 0 0 0 4.105-1.077 3.026 3.026 0 0 0-1.076-4.104l-1.851-.874c-1.98-.935-4.549.157-4.514 2.59a4.002 4.002 0 0 1-.375 1.708l2.893-2.202.772.281a3.048 3.048 0 0 0-4.243 0 4.954 4.954 0 0 0-1.317 2.277 8.306 8.306 0 0 0-.17 1.183q-.026.29-.044.579-.199 1.728 2.755-.973l1.076 1.077.11.283c-.324-1.675-2.203-2.386-3.69-2.095a3.485 3.485 0 0 0-2.78 2.807 3.096 3.096 0 0 0 2.095 3.69c1.421.391 3.443-.484 3.69-2.095z" class="cls-5"/><path d="M408.155 584.905l.08.012-.663-.386-.277-.454v-.798l.097-.204.538-.538-.07.043.757-.205-.098.003.757.205.34.33.204.757-.03.202a1.49 1.49 0 0 0-.538-1.577 1.534 1.534 0 0 0-1.666-.117 2.351 2.351 0 0 0-1.148 2.685 1.512 1.512 0 0 0 2.893 0 3.73 3.73 0 0 0-.841-3.252 1.512 1.512 0 0 0-2.507.662l-.628 2.074a1.515 1.515 0 0 0 1.047 1.845 1.531 1.531 0 0 0 1.846-1.048l.628-2.074-2.507.662c-.104-.125-.005-.015.02.058-.07-.196.013.043.037.122.065.217.007-.186.009.04 0 .065-.046.36.003.114h2.893a.734.734 0 0 1-.081.513q-.48.378-.15.19l-2.203-1.694a1.763 1.763 0 0 0 2.512 2.074c1.2-.705 1.063-2.91-.457-3.137a1.54 1.54 0 0 0-1.845 1.048 1.517 1.517 0 0 0 1.048 1.845zm-18.163 9.11a4.86 4.86 0 0 0-.227 2.109 1.501 1.501 0 0 0 3 0 4.75 4.75 0 0 0-.502-2.683c-.705-1.524-3.365-.431-2.741 1.156a2.066 2.066 0 0 0 3.575.668c.498-.532.755-1.112 1.404-1.495a3.331 3.331 0 0 1 2.104-.393c1.92.182 1.908-2.819 0-3a6.02 6.02 0 0 0-4.59 1.52 5.32 5.32 0 0 0-.573.592l-.235.304q-.592.58.597.31l.69.896-.08-.2-2.741 1.156a2.021 2.021 0 0 1 .092 1.169h3a2.778 2.778 0 0 1 .12-1.311c.606-1.838-2.29-2.626-2.893-.798z" class="cls-5"/><ellipse cx="119.371" cy="111.377" class="cls-3" rx="66.163" ry="38.594"/><path d="M411.328 585.11c2.44 21.142-5.421 17.347-5.421 17.347-3.253 12.47-8.403 7.861-8.403 7.861-.542 1.084-6.56 2.71-6.56 2.71a163.376 163.376 0 0 0-1.3-18.16c-3.124-23.702-10.008-47.219-21.48-67.57.466.119 12.426 3.372 20.395 19.321 8.132 16.264 22.585 36.875 22.769 38.49z" class="cls-4"/><path d="M95.206 122.485h-.01s5.854-29.98-11.494-30.706a21.24 21.24 0 0 0-15.537 11.667 2.917 2.917 0 0 0-.206.412 5.079 5.079 0 0 0-.238.542.154.154 0 0 0-.022.065c-1.778 4.12-2.732 9.574-2.06 16.773a35.916 35.916 0 0 0 .976 5.78.098.098 0 0 1 .01.053 11.716 11.716 0 0 0 2.353 5.628 10.806 10.806 0 0 0 9.216 5.356h.033a5.399 5.399 0 0 0 1.377-.022 19.49 19.49 0 0 0 6.093-1.507c2.548-.824 4.695-1.648 4.695-1.648.054-.39.098-.78.141-1.171a4.54 4.54 0 0 0 1.345-1.486 55.906 55.906 0 0 0 3.328-9.736zm43.327 8.175c.325.683 1.951 1.833 4.326 2.939a15.553 15.553 0 0 0 5.833 2.06h.01c4.305 1.106 9.271 1.474 13.435-.163.206-.01.314-.022.314-.022 0-.032.01-.076.01-.108 4.023-1.702 7.254-5.356 8.35-12.144 3.187-19.874-8.674-26.954-15.093-29.296a12.77 12.77 0 0 0-9.411.109c-4.131 1.778-6.42 5.377-7.623 9.476-.097.325-.195.683-.282 1.062q-.162.635-.292 1.367c-.087.466-.174.954-.239 1.463-.032.195-.065.412-.087.618a66.729 66.729 0 0 0-.52 8.002 64.59 64.59 0 0 0 .531 9.563c.033.25.076.488.12.726.184 1.508.39 2.96.618 4.348zm100.086 329.176l1.052-.325c15.721-4.792 62.69 4.706 95.218 29.101 13.813 10.365 24.796 23.658 33.264 38.686h.011c11.472 20.351 18.356 43.868 21.48 67.57a163.376 163.376 0 0 1 1.3 18.16c.76 37.7-8.89 79.975-12.143 96.455-3.795 19.202-13.553 22.541-30.901 26.878s-33.07 2.711-43.457-8.673c-10.278-11.255-11.297-46.482-11.32-47.284a151.342 151.342 0 0 1-22.02 1.583 160.906 160.906 0 0 1-20.243 58.17c-8.132 14.094-56.923 13.01-69.391 0-6.603-6.886-12.437-31.075-16.47-52.326 0 0-2.505 31.725-7.926 43.5-5.334 11.59-61.26 18.605-74.813-7.037-13.444-25.447-22.563-110.05-23.05-112.642 0-.022-.011-.033-.011-.043-14.139-57.053-4.988-119.202-4.988-119.202.152-3.253 10.701-76.981 15.038-103.003s5.39-121.793 5.39-121.793a90.345 90.345 0 0 0 29.306-.184s39.033-3.98 47.707-36.865-11.927-56.022-11.927-56.022-20.958-28.549-70.476-14.811C19.927 173.4 30.846 226.919 31.29 228.73c-.477-.77-15.906-25.718-16.253-31.421-.357-5.78 2.895-18.432 11.2-44.086 3.394-10.484 7.829-24.19 12.025-36.95 6.06-18.454 11.634-34.946 12.913-36.973a32.815 32.815 0 0 0 2.028-4.207c1.572-3.589 3.567-7.948 7.47-10.42a45.607 45.607 0 0 1 7.557-3.057q2.228-.748 4.999-1.583a205.98 205.98 0 0 1 38.664-7.362 179.382 179.382 0 0 1 48.15 1.745 135.136 135.136 0 0 1 37.754 12.578c1.583.802 3.155 1.658 4.717 2.548 0 0 24.373-23.821 45.343-10.604 13.91 8.771 11.07 29.318 6.44 41.667 0 0-7.08 24.742-32.94 35.205 1.812 30.652 3.904 64.947 3.752 72.796-.27 14.367 0 16.806-7.59 23.312a65.656 65.656 0 0 1-5.974 4.39s-19.776 68.308 27.063 223.528zm-79.269-378c1.561-4.39-1.962-6.743-5.465-7.98a18.49 18.49 0 0 0-11.232-.379c-2.245.64-4.457 1.724-5.118 3.578-1.453 4.12 3.708 6.31 3.708 6.31s15.266 6.441 18.107-1.528zm-83.053 3.98s16.535-1.084 15.494-9.487c-.564-4.619-4.782-5.14-8.457-4.684A18.675 18.675 0 0 0 73.12 76.34c-1.713 1.583-3.21 3.545-2.97 5.497.542 4.337 6.147 3.979 6.147 3.979z" class="cls-4"/><path d="M197.223 27.17c4.304 10.094 3.372 17.25.574 39.824a135.136 135.136 0 0 0-37.753-12.578s-2.44-21.272 11.666-35.335c8.826-8.793 16.069-4.727 20.265-.445a26.871 26.871 0 0 1 5.248 8.533z" class="cls-5"/><path d="M160.76 103.359c3.86 0 6.982 3.578 6.982 7.99a7.99 7.99 0 0 1-4.575 7.504c-.543-7.395-2.483-12.046-5.031-14.898a6.005 6.005 0 0 1 2.624-.596z" class="cls-3"/><path d="M137.784 108.021c.022-.206.055-.412.087-.618.065-.51.152-.997.239-1.463q.13-.684.292-1.367c.087-.38.185-.737.282-1.062a7.09 7.09 0 0 1 .65-1.55s11.754-5.899 18.802 1.994a8.033 8.033 0 0 0-4.348 7.395c0 4.424 3.122 8.002 6.972 8.002a6.017 6.017 0 0 0 2.407-.5 83.087 83.087 0 0 1-.705 16.514l-.325.13c-1.811.098-10.854.553-13.434.163h-.011a34.346 34.346 0 0 1-5.833-2.06 10.744 10.744 0 0 1-4.944-7.287 91.985 91.985 0 0 1-.651-10.289 66.729 66.729 0 0 1 .52-8.002z" class="cls-6"/><path d="M162.462 135.366c0 .032-.011.076-.011.108 0 0-.108.011-.314.022z" class="cls-6"/><path d="M163.167 118.853a6.017 6.017 0 0 1-2.407.499c-3.85 0-6.972-3.578-6.972-8.002a8.033 8.033 0 0 1 4.348-7.395c2.548 2.852 4.488 7.503 5.03 14.898z" class="cls-3"/><path d="M153.885 73.857c3.503 1.236 7.026 3.589 5.465 7.98-2.84 7.969-18.107 1.529-18.107 1.529s-5.16-2.19-3.708-6.31c.661-1.855 2.873-2.939 5.118-3.579a18.49 18.49 0 0 1 11.232.38z" class="cls-5"/><path d="M127.083 219.893a42.997 42.997 0 0 1-9.043-.195v.022a63.669 63.669 0 0 1-45.982 15.559l-.011.13s2.342 3.285 6.408 15.114a307.71 307.71 0 0 1 1.637 4.977c3.198 10.062 16.1 7.97 26.054 3.881a30.512 30.512 0 0 0 16.925-17.087c.304-.78.607-1.594.89-2.44a55.49 55.49 0 0 0 3.122-19.96zm12.642-45.353s20.6 23.137 11.927 56.022-47.707 36.865-47.707 36.865a90.345 90.345 0 0 1-29.307.184c-16.979-2.862-36.354-12.23-43.337-38.86a.034.034 0 0 0-.01-.021c-.445-1.81-11.364-55.329 37.959-69.001 49.517-13.738 70.475 14.81 70.475 14.81zm-17.424 16.849c3.795-2.982-2.71-9.487-5.562-10.3-2.84-.814-7.99.27-5.551 6.505s11.113 3.795 11.113 3.795zm-62.268-3.925c2.44-6.235-2.71-7.319-5.55-6.506-2.852.813-9.358 7.319-5.563 10.3 0 0 8.674 2.44 11.113-3.794z" class="cls-7"/><path d="M142.859 133.599a34.346 34.346 0 0 0 5.833 2.06 15.553 15.553 0 0 1-5.833-2.06zm-4.457-29.026q-.162.683-.292 1.367.13-.732.292-1.367zm-.487 21.739a14.273 14.273 0 0 1-.12-.726 64.59 64.59 0 0 1-.531-9.563 91.985 91.985 0 0 0 .65 10.29zm-.044-18.909c-.032.206-.065.412-.087.618.022-.206.055-.423.087-.618z" class="cls-6"/><path d="M127.083 219.893a55.49 55.49 0 0 1-3.123 19.961c-27.865-11.959-45.06 10.095-45.505 10.67-4.066-11.83-6.408-15.115-6.408-15.115l.01-.13a63.669 63.669 0 0 0 45.983-15.56v-.02a42.997 42.997 0 0 0 9.043.194z" class="cls-8"/><path d="M123.96 239.854a52.683 52.683 0 0 1-.889 2.44 30.512 30.512 0 0 1-16.925 17.087c-9.953 4.088-22.856 6.18-26.054-3.881a307.677 307.677 0 0 0-1.637-4.977c.444-.574 17.64-22.628 45.505-10.669z" class="cls-9"/><path d="M116.74 181.088c2.85.814 9.356 7.319 5.561 10.3 0 0-8.673 2.44-11.113-3.794s2.71-7.319 5.551-6.506z" class="cls-8"/><path d="M111.806 51.814l.087.857a205.98 205.98 0 0 0-38.664 7.362S66.268 38.38 77.38 21.846c6.95-10.333 14.844-7.753 19.788-4.359a23.606 23.606 0 0 1 6.809 7.351c3.23 5.324 6.624 14.746 7.828 26.976zM91.79 76.329c1.042 8.403-15.493 9.487-15.493 9.487s-5.605.358-6.148-3.98c-.238-1.95 1.258-3.913 2.971-5.496a18.675 18.675 0 0 1 10.214-4.695c3.675-.455 7.893.065 8.457 4.684z" class="cls-5"/><path d="M87.042 103.359c3.34 0 6.05 3.578 6.05 7.99a9.224 9.224 0 0 1-2.028 5.964c-.628-7.102-2.623-11.363-5.193-13.802a4.687 4.687 0 0 1 1.17-.152z" class="cls-3"/><path d="M91.064 117.313a79.624 79.624 0 0 1-.53 16.394 20.248 20.248 0 0 1-4.837 2.819 37.065 37.065 0 0 1-6.093 1.507 19.55 19.55 0 0 1-1.377.022h-.033a15.257 15.257 0 0 1-9.216-5.356 19.65 19.65 0 0 1-2.363-5.682c-1.03-7.243-.52-18.226 1.084-22.552a.154.154 0 0 1 .022-.065c.076-.184.162-.369.238-.542a2.917 2.917 0 0 1 .206-.412s10.875-6.43 17.706.065c-2.787.715-4.89 3.957-4.89 7.839 0 4.424 2.71 8.002 6.06 8.002a5.264 5.264 0 0 0 4.023-2.039z" class="cls-6"/><path d="M90.533 133.707a42.9 42.9 0 0 1-.14 1.171s-2.148.824-4.696 1.648a20.248 20.248 0 0 0 4.836-2.819z" class="cls-6"/><path d="M91.064 117.313a5.264 5.264 0 0 1-4.022 2.039c-3.35 0-6.061-3.578-6.061-8.002 0-3.882 2.103-7.124 4.89-7.84 2.57 2.44 4.565 6.701 5.193 13.803z" class="cls-3"/><path d="M78.227 138.055c.455.01.91 0 1.377-.022a5.399 5.399 0 0 1-1.377.022zM67.96 103.858c-.077.173-.163.358-.24.542a5.079 5.079 0 0 1 .24-.542zm-1.345 23.159a19.65 19.65 0 0 0 2.363 5.682 11.716 11.716 0 0 1-2.352-5.628.098.098 0 0 0-.011-.054z" class="cls-6"/><path d="M53.203 75.093a32.815 32.815 0 0 1-2.028 4.207c-1.28 2.027-6.852 18.519-12.913 36.972-2.039-1.637-4.11-3.545-5.974-5.377a49.829 49.829 0 0 1-11.851-18.14c-4.64-12.339-9.194-32.17 4.716-40.94 20.97-13.218 43.077 9.8 43.077 9.8a45.607 45.607 0 0 0-7.557 3.058c-3.903 2.472-5.898 6.831-7.47 10.42z" class="cls-4"/><path d="M54.482 180.958c2.84-.813 7.991.271 5.551 6.506s-11.113 3.795-11.113 3.795c-3.795-2.982 2.71-9.488 5.562-10.3z" class="cls-8"/><path d="M396.185 599.927a38.457 38.457 0 0 0-.803 7.187c-.04 2.718 3.263 3.082 4.659 1.262a11.874 11.874 0 0 0 2.032-9.806c-.51-2.392-4.3-2.377-4.822 0a24.233 24.233 0 0 0-.167 9.59c.373 2.103 3.63 2.437 4.57.597a13.151 13.151 0 0 0 1.503-7.109c-.251-3.165-4.99-3.262-5 0a12.577 12.577 0 0 1-.536 3.63c-.696 2.362 2.47 4.265 4.178 2.433a13.36 13.36 0 0 0 3.534-6.994l-4.82-1.329c-.127.931-.108.092.731-.13h1.33q.988.705.433.091a1.247 1.247 0 0 0-.34-.376 3.429 3.429 0 0 0-1.247-.767 4.167 4.167 0 0 0-2.445-.112 4.94 4.94 0 0 0-1.929 1.021c-.31.258-1.223 1.618-1.45 1.701h1.33l-.318-.128 1.746 3.075.04-.182-1.747 1.746.2-.067-2.823-1.149.066.12c1.549 2.82 5.868.3 4.317-2.524l-.065-.12a2.526 2.526 0 0 0-2.824-1.148 2.7 2.7 0 0 0-1.985 1.995 2.589 2.589 0 0 0 1.746 3.075c1.445.585 2.82-.236 3.818-1.26a4.937 4.937 0 0 0 1.048-1.26q.797-.306-1-.47a4.183 4.183 0 0 0 .548.67c2.208 2.236 5.277.206 5.64-2.472a2.59 2.59 0 0 0-1.746-3.075 2.518 2.518 0 0 0-3.075 1.746 8.792 8.792 0 0 1-2.248 4.787l4.178 2.433a17.632 17.632 0 0 0 .715-4.96h-5a8.298 8.298 0 0 1-.821 4.586l4.57.597a17.762 17.762 0 0 1 .167-6.932h-4.822a7.105 7.105 0 0 1-1.527 5.953l4.658 1.262a31.14 31.14 0 0 1 .624-5.858c.646-3.14-4.173-4.483-4.822-1.329z" class="cls-5"/><path d="M393.225 602.526a18.321 18.321 0 0 0-1.496 4.735c-.496 3.116 3.848 4.472 4.822 1.33l.485-1.567-4.822-1.33-.483 1.984 4.911.664.03-1.05c.068-2.423-3.522-3.481-4.659-1.262a2.816 2.816 0 0 0 .9 3.776c1.397.897 2.933.244 3.952-.85a27.086 27.086 0 0 0 4.93-8.176 2.518 2.518 0 0 0-1.747-3.075 2.56 2.56 0 0 0-3.075 1.746 23.26 23.26 0 0 1-1.828 3.48c-.305.484-.624.962-.963 1.423q-.316.438-.667.849-.83.814.186.13l1.927.252.618.609v2.524l.084-.165-4.658-1.262-.03 1.051c-.079 2.803 4.24 3.417 4.91.665l.484-1.983a2.502 2.502 0 0 0-4.822-1.33l-.485 1.567 4.822 1.33a13.724 13.724 0 0 1 .991-3.541 2.58 2.58 0 0 0-.897-3.42 2.518 2.518 0 0 0-3.42.896z" class="cls-5"/><path d="M399.548 599.034a4.189 4.189 0 0 0-2.6-1.868c-1.21-.256-2.85.35-3.076 1.747a9.032 9.032 0 0 1-1.246 3.429l4.658 1.262-.575-4.302a2.583 2.583 0 0 0-2.5-2.5 2.526 2.526 0 0 0-2.5 2.5 28.763 28.763 0 0 1-.344 5.92l4.822 1.329a12.155 12.155 0 0 0-1.437-8.17c-1.614-2.783-5.937-.268-4.317 2.523a6.664 6.664 0 0 1 .932 4.317 2.58 2.58 0 0 0 1.746 3.076 2.52 2.52 0 0 0 3.076-1.747 35.163 35.163 0 0 0 .522-7.248h-5l.576 4.302c.311 2.332 3.241 3.56 4.658 1.261a12.657 12.657 0 0 0 1.75-4.623l-3.074 1.746-.389-.43a2.573 2.573 0 0 0 3.42.897 2.52 2.52 0 0 0 .898-3.42z" class="cls-5"/><path d="M391.305 608.589l-.036.252a1.543 1.543 0 0 0 .689 1.694c2.12.898 3.61-.67 3.964-2.762.192-1.132-1.032-2.55-2.203-1.694a5.157 5.157 0 0 0-2.313 3.436 1.513 1.513 0 0 0 2.507 1.46q3.624-3.206 7.434-6.185l-2.507-.662.824 3.297a1.51 1.51 0 0 0 2.507.662l2.693-3.428-2.507-.662-.105 1.773 2.946.398a66.214 66.214 0 0 1 1.52-11.284c.42-1.881-2.471-2.684-2.892-.798a70.903 70.903 0 0 0-1.628 12.082 1.507 1.507 0 0 0 2.947.4 7.88 7.88 0 0 0 .105-3.368 1.507 1.507 0 0 0-2.508-.662l-2.692 3.428 2.507.662-.825-3.297a1.521 1.521 0 0 0-2.507-.662q-3.812 2.98-7.434 6.185l2.508 1.459.934-1.644-2.203-1.694.442.97.69 1.693.036-.252c.276-1.888-2.614-2.703-2.893-.797z" class="cls-5"/><path d="M403.283 594.816a10.041 10.041 0 0 0 .455 5.983c1.276 3.055 5.643 2.762 5.893-.797l.231-3.297c.225-3.207-4.042-3.752-5.59-1.514a4.547 4.547 0 0 0-.068 5.067 3.036 3.036 0 0 0 5.484-.717 24.314 24.314 0 0 0 .813-8.912l-5.59 1.514.039.015 5.892.797a11.152 11.152 0 0 0-.533-5.126c-1.238-3.635-7.035-2.074-5.785 1.595a7.169 7.169 0 0 1 .318 3.531c-.442 3.334 5.242 4.1 5.893.798a6.404 6.404 0 0 0-.643-4.638c-1.334-2.527-5.882-1.482-5.59 1.514a19.62 19.62 0 0 1-.6 7.317l5.483-.717.068.99-5.59-1.514-.232 3.297 5.893-.798a4.57 4.57 0 0 1-.455-2.793c.723-3.773-5.06-5.39-5.786-1.595z" class="cls-5"/><path d="M406.13 589.056a5.07 5.07 0 0 0-2.441-.754 3.004 3.004 0 0 0-2.893 2.203l-1.538 5.82h5.786l-1.3-5.881c-.794-3.594-5.498-2.286-5.893.797l-.947 7.407 5.893-.797-1.515-5.923c-.891-3.486-5.561-2.394-5.892.798a56.46 56.46 0 0 0-.267 7.844l5.893-.797a33.353 33.353 0 0 0-1.586-5.339c-.99-2.538-5.052-3.145-5.786 0a29.397 29.397 0 0 0-.79 6.79l5.59-1.514a4.466 4.466 0 0 1-.563-3.196c.324-2.513-3.553-4.055-5.121-2.121a7.23 7.23 0 0 0-1.866 5.393l5.893-.797q-.2-1.746-1.57.054c3.863.096 3.861-5.904 0-6-4.24-.105-5.446 4.161-4.215 7.54 1.07 2.94 6.237 2.81 5.892-.797-.031-.333-.14-.845.109-1.15l-5.122-2.122a9.636 9.636 0 0 0 1.383 6.224 3.024 3.024 0 0 0 5.59-1.514 22.175 22.175 0 0 1 .576-5.195h-5.786a33.353 33.353 0 0 1 1.586 5.339c.692 3.31 6.012 2.571 5.893-.798a56.46 56.46 0 0 1 .267-7.844l-5.893.797 1.514 5.923c.906 3.54 5.493 2.336 5.893-.798l.947-7.407-5.892.798 1.3 5.881c.647 2.932 5.05 2.783 5.785 0l1.538-5.82-2.893 2.202-.587-.065c3.22 2.15 6.228-3.045 3.028-5.18z" class="cls-5"/><path d="M403.912 592.724l.056-.367-.771 1.323.262-.273-1.324.772.366-.072-3.69-2.095a3.807 3.807 0 0 0 5.253 2.492 4.07 4.07 0 0 0 2.186-2.368 6.488 6.488 0 0 0 .37-1.72c.064-.634.26-.643-.191-.182h-4.243a5.133 5.133 0 0 0 3.47 1.476 3.075 3.075 0 0 0 2.894-2.203 8.27 8.27 0 0 0 .589-3.303l-4.515 2.59 1.851.875a3.084 3.084 0 0 0 4.105-1.077 3.026 3.026 0 0 0-1.076-4.104l-1.851-.874c-1.98-.935-4.549.157-4.514 2.59a4.002 4.002 0 0 1-.375 1.708l2.893-2.202.772.281a3.048 3.048 0 0 0-4.243 0 4.954 4.954 0 0 0-1.317 2.277 8.306 8.306 0 0 0-.17 1.183q-.026.29-.044.579-.199 1.728 2.755-.973l1.076 1.077.11.283c-.324-1.675-2.203-2.386-3.69-2.095a3.485 3.485 0 0 0-2.78 2.807 3.096 3.096 0 0 0 2.095 3.69c1.421.391 3.443-.484 3.69-2.095z" class="cls-5"/><path d="M408.155 584.905l.08.012-.663-.386-.277-.454v-.798l.097-.204.538-.538-.07.043.757-.205-.098.003.757.205.34.33.204.757-.03.202a1.49 1.49 0 0 0-.538-1.577 1.534 1.534 0 0 0-1.666-.117 2.351 2.351 0 0 0-1.148 2.685 1.512 1.512 0 0 0 2.893 0 3.73 3.73 0 0 0-.841-3.252 1.512 1.512 0 0 0-2.507.662l-.628 2.074a1.515 1.515 0 0 0 1.047 1.845 1.531 1.531 0 0 0 1.846-1.048l.628-2.074-2.507.662c-.104-.125-.005-.015.02.058-.07-.196.013.043.037.122.065.217.007-.186.009.04 0 .065-.046.36.003.114h2.893a.734.734 0 0 1-.081.513q-.48.378-.15.19l-2.203-1.694a1.763 1.763 0 0 0 2.512 2.074c1.2-.705 1.063-2.91-.457-3.137a1.54 1.54 0 0 0-1.845 1.048 1.517 1.517 0 0 0 1.048 1.845zm-18.163 9.11a4.86 4.86 0 0 0-.227 2.109 1.501 1.501 0 0 0 3 0 4.75 4.75 0 0 0-.502-2.683c-.705-1.524-3.365-.431-2.741 1.156a2.066 2.066 0 0 0 3.575.668c.498-.532.755-1.112 1.404-1.495a3.331 3.331 0 0 1 2.104-.393c1.92.182 1.908-2.819 0-3a6.02 6.02 0 0 0-4.59 1.52 5.32 5.32 0 0 0-.573.592l-.235.304q-.592.58.597.31l.69.896-.08-.2-2.741 1.156a2.021 2.021 0 0 1 .092 1.169h3a2.778 2.778 0 0 1 .12-1.311c.606-1.838-2.29-2.626-2.893-.798z" class="cls-5"/><path fill="url(#linear-gradient-3)" d="M54.355 586.204s10.898 71.86 13.939 87.19 8.657 48.015 16.48 54.71 21.968 13.666 35.146 13.622 34.539-2.511 37.153-10.396 7.926-43.5 7.926-43.5-8.649 39.677-40.453 35.34-44.88-72.283-49.908-101.919-12.13-131.786-11.67-162.943l.46-31.157s-20.714 131.957-9.073 159.053z" opacity=".61"/><path fill="url(#linear-gradient-4)" d="M98.524 664.801s40.428 26 66.475 23.03l-.878-5.848s-57.646-9.05-65.597-17.182z" opacity=".61"/><path fill="url(#linear-gradient-5)" d="M271.099 681.983s50.746-2.544 60.882-17.182 9.976-14.325 11.536-22.48-67.9-26.13-71.514-24.684c0 0 5.42 52.073-.904 64.346z" opacity=".61"/><path fill="url(#linear-gradient-6)" d="M171.797 717.724s14.61 28.778 62.468 19.642c0 0 21.836-8.414 22.558-40.94s12.776-78.137 14.28-75.175.886 58.036-.957 66.816-15.852 46.059-17.711 49.299l-1.86 3.24s-14.696 9.495-25.953 9.53-30.573-1.294-36.863-5.637-16.417-14.15-15.962-26.775z" opacity=".61"/><path fill="url(#linear-gradient-7)" d="M336.727 657.914s-2.09 11.849-21.397 30.153 6.433 51.097 15.407 50.499c0 0-24.095-2.596-28.636-14.09s-10.582-43.953-10.582-43.953 38.418-7.016 45.208-22.609z" opacity=".61"/><path fill="url(#linear-gradient-8)" d="M256.1 458.308c-2.268.17 77.876 11.51 105.71 74.035s17.44 185.692-2.933 200.909c0 0 11.013-3.983 14.066-9.223s11.272-42.046 11.272-42.046 6.968-46.495 6.735-60.87-8.902-62.56-12.049-70.475-30.5-50.292-33.689-53.238-55.861-41.566-89.111-39.092z" opacity=".61"/><path d="M217.03 372.899s-3.938-2.83-11.166 9.287-27.106 16.795-33.25 15.35-16.625-6.506-18.432-21.685 14.095-20.24 15.18-29.998-1.085-23.13 10.842-33.611 27.196-2.891 27.196-2.891 8.928 59.861 9.63 63.548z" class="cls-5"/><path d="M217.083 372.983c-.227-.013-.18-.06-.257-.073-.05-.023-.107-.036-.16-.055a2.29 2.29 0 0 0-.333-.073 2.76 2.76 0 0 0-.686-.003 4.38 4.38 0 0 0-1.325.377 9.558 9.558 0 0 0-2.304 1.581 23.907 23.907 0 0 0-3.612 4.364c-1.096 1.568-1.94 3.232-3.091 4.87a25.617 25.617 0 0 1-3.89 4.417 37.096 37.096 0 0 1-9.855 6.314 48.049 48.049 0 0 1-11.18 3.467 25.815 25.815 0 0 1-5.927.48 17.754 17.754 0 0 1-5.845-1.476 23.334 23.334 0 0 1-9.441-7.071 25.096 25.096 0 0 1-4.856-10.644 28.744 28.744 0 0 1-.666-5.81 17.522 17.522 0 0 1 .956-5.775c1.243-3.741 3.708-6.872 6.255-9.737 1.281-1.441 2.605-2.833 3.85-4.28a21.481 21.481 0 0 0 3.205-4.65 11.383 11.383 0 0 0 .864-2.623c.155-.885.185-1.87.26-2.81.1-1.905.141-3.824.197-5.749a53.822 53.822 0 0 1 1.332-11.575 29.556 29.556 0 0 1 5.033-10.656c.634-.76 1.273-1.52 1.928-2.263.71-.687 1.407-1.389 2.134-2.063.788-.614 1.563-1.248 2.369-1.84.866-.504 1.702-1.067 2.599-1.517a24.78 24.78 0 0 1 11.652-2.448 31.403 31.403 0 0 1 11.587 2.73l.5.227.083.574 2.324 16.156 2.154 16.105 2.065 15.906zm-.107-.169l-2.734-16.15-2.75-15.868-2.66-15.67-2.491-15.617.582.8c-6.648-2.962-14.783-3.651-21.42-.441a24.861 24.861 0 0 0-8.468 7.035 28.046 28.046 0 0 0-4.961 9.94 55.587 55.587 0 0 0-1.653 11.238c-.125 1.913-.225 3.835-.383 5.763-.109.97-.157 1.912-.362 2.917a12.244 12.244 0 0 1-1.018 2.807c-1.87 3.517-4.762 6.161-7.31 9.001a26.288 26.288 0 0 0-6.11 9.511 16.794 16.794 0 0 0-.792 5.562 27.325 27.325 0 0 0 .851 5.59 22.357 22.357 0 0 0 .825 2.704c.166.44.313.887.494 1.32l.602 1.272.3.635.356.604.713 1.206a25.02 25.02 0 0 0 1.691 2.221 20.35 20.35 0 0 0 4.119 3.72 23.515 23.515 0 0 0 4.881 2.633 16.633 16.633 0 0 0 5.275 1.313 26.35 26.35 0 0 0 5.538-.432 44.29 44.29 0 0 0 20.469-9.025 24.417 24.417 0 0 0 3.851-4.078c1.129-1.462 2.072-3.22 3.274-4.738a24.591 24.591 0 0 1 3.963-4.284 9.718 9.718 0 0 1 2.52-1.524 4.724 4.724 0 0 1 1.46-.303 3.033 3.033 0 0 1 .75.058 2.512 2.512 0 0 1 .362.108c.06.025.119.044.176.075.03.042.187.042.06.097z" class="cls-6"/><path d="M66.138 409.122s13.592 13.351 33.109 4.316 4.698-23.13 5.421-33.25 14.095-26.745 10.12-39.033-10.326-23.13-23.957-18.432-2.874 15.927-10.378 15.18-7.342-5.078-7.342-5.078-1.411 53.55-6.973 76.297z" class="cls-5"/><path d="M66.234 409.095a30.313 30.313 0 0 0 20.578 6.816 32.533 32.533 0 0 0 10.658-2.554c3.363-1.427 6.672-3.285 8.838-6.07a10.158 10.158 0 0 0 2.032-4.715 15.226 15.226 0 0 0-.212-5.282c-.694-3.571-2.23-7.011-3.263-10.69a16.1 16.1 0 0 1 .296-11.439c1.24-3.61 2.93-6.976 4.476-10.395a92.983 92.983 0 0 0 4.167-10.414 24.484 24.484 0 0 0 1.153-10.956 29.619 29.619 0 0 0-1.653-5.3 51.64 51.64 0 0 0-2.276-5.097 22.48 22.48 0 0 0-6.85-8.436 12.905 12.905 0 0 0-10.2-1.84 20.26 20.26 0 0 0-5.08 1.762 8.655 8.655 0 0 0-3.711 3.381 9.234 9.234 0 0 0-.87 4.984c.03.914.138 1.838.095 2.905a4.063 4.063 0 0 1-.448 1.788 2.667 2.667 0 0 1-1.733 1.265 8.712 8.712 0 0 1-3.207-.08 13.05 13.05 0 0 1-2.938-.838 7.466 7.466 0 0 1-2.665-1.837 5.57 5.57 0 0 1-.95-1.439 4.37 4.37 0 0 1-.42-1.828l2.12.067a862.027 862.027 0 0 1-.842 19.186c-.317 6.392-.836 12.773-1.39 19.15a522.734 522.734 0 0 1-.923 9.558c-.384 3.18-.733 6.361-1.198 9.531a199.542 199.542 0 0 1-1.5 9.49l-.947 4.71zm-.192.055a190.672 190.672 0 0 0 2.658-19.005c.628-6.352 1.115-12.717 1.54-19.087.426-6.37.725-12.749 1.063-19.125.313-6.376.576-12.762.747-19.136l2.121.068a2.81 2.81 0 0 0 .23.892 3.468 3.468 0 0 0 .588.906 5.417 5.417 0 0 0 1.924 1.341 11.037 11.037 0 0 0 2.457.73 7.316 7.316 0 0 0 2.386.144.668.668 0 0 0 .497-.313 2.238 2.238 0 0 0 .21-.924c.047-.811-.038-1.761-.062-2.723a11.076 11.076 0 0 1 1.17-5.945 10.24 10.24 0 0 1 4.528-4.051 21.887 21.887 0 0 1 5.572-1.8 15.66 15.66 0 0 1 5.887-.03 13.365 13.365 0 0 1 5.383 2.39 23.879 23.879 0 0 1 6.948 9.086 52.513 52.513 0 0 1 2.164 5.25 34.512 34.512 0 0 1 1.6 5.465c.593 3.823-.192 7.646-1.256 11.249a93.615 93.615 0 0 1-4.046 10.55 106.975 106.975 0 0 0-4.081 10.435 18.993 18.993 0 0 0-.943 5.336 18.481 18.481 0 0 0 1.034 5.297c1.136 3.507 2.658 6.987 3.477 10.793a16.358 16.358 0 0 1 .27 5.911 11.926 11.926 0 0 1-2.45 5.487 17.45 17.45 0 0 1-4.44 3.865 31.853 31.853 0 0 1-5.154 2.591 33.931 33.931 0 0 1-5.49 1.712 31.75 31.75 0 0 1-5.712.669 28.94 28.94 0 0 1-11.228-1.965 31.264 31.264 0 0 1-5.088-2.547 24.278 24.278 0 0 1-4.505-3.516z" class="cls-6"/><path d="M112.98 484.998s-11.565-29.998 0-53.49 24.577-9.758 29.637-9.035 30.358 4.699 36.141 25.66 1.807 26.745-16.987 30.36-12.649 8.312-21.684 11.203-24.395 4.544-27.106-4.698z" class="cls-5"/><path d="M112.886 485.03c-.852-2.309-1.562-4.675-2.201-7.054-.338-1.185-.61-2.388-.918-3.582l-.795-3.615a83.947 83.947 0 0 1-1.727-14.728l-.057-1.863.053-1.864a36.123 36.123 0 0 1 .21-3.727c.142-1.238.262-2.481.425-3.719l.748-3.675.192-.918.271-.9.55-1.797.56-1.794c.223-.585.487-1.156.729-1.735.51-1.145.95-2.327 1.532-3.434l.884-1.655.96-1.617a30.025 30.025 0 0 1 4.725-5.9 15.045 15.045 0 0 1 6.62-3.766 13.797 13.797 0 0 1 7.54.418 45.595 45.595 0 0 1 6.787 3.04c.549.267 1.1.523 1.658.734a7.72 7.72 0 0 0 1.735.393 89.51 89.51 0 0 1 3.649.66 63.461 63.461 0 0 1 7.172 1.892 49.743 49.743 0 0 1 13.345 6.513 31.093 31.093 0 0 1 9.918 11.179c.27.571.558 1.136.813 1.715l.703 1.763.587 1.805.506 1.792a71.773 71.773 0 0 1 1.623 7.294 30.842 30.842 0 0 1 .409 7.597 15.809 15.809 0 0 1-.804 3.849 12.21 12.21 0 0 1-1.946 3.508 16.14 16.14 0 0 1-6.332 4.568 41.6 41.6 0 0 1-7.204 2.31 90.136 90.136 0 0 1-3.657.766l-3.57.745a39.698 39.698 0 0 0-6.818 2.193 13.846 13.846 0 0 0-2.954 1.779 21.848 21.848 0 0 0-2.504 2.521 11.523 11.523 0 0 1-3.07 2.461 19.68 19.68 0 0 1-3.601 1.344 46.316 46.316 0 0 1-14.762 1.687 19.421 19.421 0 0 1-7.214-1.72 9.877 9.877 0 0 1-2.986-2.216 8.264 8.264 0 0 1-1.784-3.247zm.19-.064a8.438 8.438 0 0 0 4.708 5.26 17.874 17.874 0 0 0 7.112 1.432 44.439 44.439 0 0 0 14.354-2.392 18.332 18.332 0 0 0 3.236-1.405 10.526 10.526 0 0 0 2.558-2.26 23.223 23.223 0 0 1 2.589-2.809 15.693 15.693 0 0 1 3.297-2.109 37.454 37.454 0 0 1 7.171-2.448l3.65-.805a88.003 88.003 0 0 0 3.559-.787 41.23 41.23 0 0 0 6.84-2.188 14.628 14.628 0 0 0 5.568-3.923 11.322 11.322 0 0 0 2.4-6.245 28.988 28.988 0 0 0-.294-7.114c-.35-2.39-.89-4.767-1.471-7.138l-.455-1.772-.513-1.719-.625-1.681c-.227-.553-.487-1.092-.729-1.639a30.677 30.677 0 0 0-9.148-11.006 45.267 45.267 0 0 0-12.918-6.727 62.802 62.802 0 0 0-7.076-1.955 52.003 52.003 0 0 0-3.615-.653 8.381 8.381 0 0 1-1.859-.409 20.397 20.397 0 0 1-1.723-.745 41.572 41.572 0 0 0-6.739-2.836 12.824 12.824 0 0 0-7.023-.129 13.853 13.853 0 0 0-5.93 3.694 29.692 29.692 0 0 0-4.273 5.758l-.893 1.575-.821 1.62c-.535 1.085-.95 2.219-1.439 3.322-.23.557-.482 1.106-.695 1.67l-.53 1.733-.543 1.729-.274.864-.198.886a66.917 66.917 0 0 0-1.834 14.433 82.032 82.032 0 0 0 4.575 28.918z" class="cls-6"/><path d="M93.631 507.287a12.564 12.564 0 0 0-6.88 8.059c-2.655 9.034-7.204 29.694 1.473 43.742 11.384 18.432 50.96 3.252 46.08-10.3s-10.609-16.806-25.363-23.854c-12.602-6.02-7.32-21.137-15.31-17.647z" class="cls-5"/><path d="M93.671 507.378a12.041 12.041 0 0 0-6.692 8.123 94.144 94.144 0 0 0-2.102 10.766 72.779 72.779 0 0 0 .01 21.659 32.034 32.034 0 0 0 3.437 10.183 18.925 18.925 0 0 0 1.406 2.28 17.518 17.518 0 0 0 1.803 1.977 16.058 16.058 0 0 0 4.48 2.961 21.187 21.187 0 0 0 5.188 1.563 31.012 31.012 0 0 0 5.43.368 41.384 41.384 0 0 0 2.723-.16c.902-.12 1.806-.216 2.697-.403a41.827 41.827 0 0 0 5.279-1.328 38.69 38.69 0 0 0 9.692-4.732 21.466 21.466 0 0 0 4-3.466 11.024 11.024 0 0 0 2.502-4.354 6.146 6.146 0 0 0 .168-2.369 7.028 7.028 0 0 0-.266-1.152c-.104-.386-.314-.832-.466-1.245-.32-.847-.665-1.68-1.044-2.495-.35-.832-.766-1.622-1.175-2.417a26.509 26.509 0 0 0-6.54-8.256 36.802 36.802 0 0 0-4.335-3.133q-2.315-1.402-4.727-2.691c-1.607-.86-3.234-1.698-4.861-2.545a23.938 23.938 0 0 1-4.821-2.955 16.312 16.312 0 0 1-3.62-4.382 23.833 23.833 0 0 1-2.11-5.176 45.76 45.76 0 0 0-1.64-5.236 2.918 2.918 0 0 0-1.814-1.792 4.21 4.21 0 0 0-2.602.407zm-.08-.183a4.415 4.415 0 0 1 2.74-.458 3.246 3.246 0 0 1 2.021 1.895c.827 1.683 1.24 3.489 1.902 5.193a23.102 23.102 0 0 0 2.368 4.867 14.928 14.928 0 0 0 3.646 3.828 25.213 25.213 0 0 0 4.742 2.474c1.682.75 3.357 1.522 5.013 2.352a48.85 48.85 0 0 1 9.55 5.901 25.552 25.552 0 0 1 3.98 4.11c.619.734 1.11 1.552 1.654 2.335.474.82.975 1.634 1.383 2.483.417.847.84 1.69 1.188 2.56.38.86.721 1.73 1.035 2.608.157.451.34.843.474 1.343a8.92 8.92 0 0 1 .323 1.532 8.055 8.055 0 0 1-.268 3.082 12.493 12.493 0 0 1-3.016 5.058 23.11 23.11 0 0 1-4.423 3.597 37.44 37.44 0 0 1-10.257 4.46 43.22 43.22 0 0 1-11.006 1.546 27.467 27.467 0 0 1-10.89-2.04 17.714 17.714 0 0 1-4.765-2.942 18.378 18.378 0 0 1-2.012-1.988 19.967 19.967 0 0 1-1.612-2.323 32.65 32.65 0 0 1-4.107-10.418 54.869 54.869 0 0 1 .385-22.191 98.426 98.426 0 0 1 2.838-10.705 13.191 13.191 0 0 1 7.114-8.159z" class="cls-6"/><path d="M80.006 610.148a16.085 16.085 0 0 1 8.847-12.418c5.337-2.53 13.014-2.551 21.598 8.703 16.263 21.323 23.598 16.986 24.268 24.938s-.776 18.432-17.401 20.962-11.566-9.759-14.096-14.457-1.807-8.313-15.179-9.397c-8.98-.728-8.996-11.4-8.037-18.331z" class="cls-5"/><path d="M79.907 610.134a17.645 17.645 0 0 1 4.686-9.747 15.11 15.11 0 0 1 9.943-4.652 13.97 13.97 0 0 1 5.616.945 19.774 19.774 0 0 1 4.893 2.845 28.901 28.901 0 0 1 4.043 3.865c1.234 1.395 2.32 2.894 3.422 4.296a91.482 91.482 0 0 0 6.952 8.27 49.907 49.907 0 0 0 8.183 7.043c1.483 1.032 3.04 1.952 4.53 3.056.36.294.722.596 1.057.926a6.063 6.063 0 0 1 .867 1.138l.354.63.23.678a6.18 6.18 0 0 1 .306 1.38 23.985 23.985 0 0 1-.882 10.978 14.316 14.316 0 0 1-2.854 4.862l-.464.543-.524.481c-.354.315-.692.655-1.064.949a19.631 19.631 0 0 1-2.376 1.547 30.497 30.497 0 0 1-10.666 3.265 19.697 19.697 0 0 1-5.708-.008 8 8 0 0 1-5.277-2.975 11.323 11.323 0 0 1-1.878-5.615c-.218-1.858-.24-3.699-.594-5.278a5.063 5.063 0 0 0-.357-1.064l-.603-1.24c-.398-.855-.733-1.686-1.116-2.447a7.185 7.185 0 0 0-1.354-1.983 8.252 8.252 0 0 0-.881-.778 10.46 10.46 0 0 0-1.047-.622 20.436 20.436 0 0 0-4.921-1.564c-.875-.153-1.75-.321-2.638-.444-.896-.13-1.75-.214-2.73-.424a8.398 8.398 0 0 1-4.929-2.851 11.362 11.362 0 0 1-2.252-5.097 25.757 25.757 0 0 1-.423-5.468 42.439 42.439 0 0 1 .456-5.44zm.198.028a28.42 28.42 0 0 0 .31 10.753 10.633 10.633 0 0 0 2.4 4.612 7.205 7.205 0 0 0 4.461 2.165c3.499.313 7.338.366 10.923 2.004a8.677 8.677 0 0 1 4.25 4.173c.446.855.802 1.705 1.184 2.488l.606 1.2a7.127 7.127 0 0 1 .537 1.501 49.826 49.826 0 0 1 .638 5.534 9.827 9.827 0 0 0 1.44 4.623 5.96 5.96 0 0 0 3.952 2.258 17.847 17.847 0 0 0 5.142.09 30.564 30.564 0 0 0 10.12-2.79 18.085 18.085 0 0 0 2.229-1.347c.35-.253.668-.546 1.006-.816l.502-.414.443-.473a13.084 13.084 0 0 0 2.838-4.333 21.622 21.622 0 0 0 1.207-10.485 5.556 5.556 0 0 0-.26-1.273l-.195-.616-.307-.56a5.412 5.412 0 0 0-.76-1.033 14.992 14.992 0 0 0-.975-.881c-1.406-1.09-3.014-1.972-4.514-3.006a72.013 72.013 0 0 1-16.076-14.814c-1.174-1.425-2.285-2.822-3.45-4.15-.599-.653-1.186-1.32-1.84-1.91-.622-.627-1.286-1.198-1.961-1.758a21.342 21.342 0 0 0-4.405-2.755 13.657 13.657 0 0 0-4.998-1.159 14.152 14.152 0 0 0-9.594 3.771 15.804 15.804 0 0 0-4.853 9.4z" class="cls-6"/><path d="M161.772 627.756s-20.601-22.407 0-43.73 11.565-10.763 15.179-16.405 22.046-9.979 26.745-2.028-2.169 14.095-7.229 18.794-1.445 24.937-3.252 31.443-7.952 24.937-31.444 11.926z" class="cls-5"/><path d="M161.71 627.835a34.248 34.248 0 0 1-3.833-4.847 37.678 37.678 0 0 1-3.016-5.405 32.585 32.585 0 0 1-3.01-12.063 28.593 28.593 0 0 1 .499-6.28 27.902 27.902 0 0 1 1.937-6.003 34.15 34.15 0 0 1 7.25-10.165q4.352-4.322 8.771-8.578a276.573 276.573 0 0 1 4.47-4.211l.567-.519.269-.25.032-.032a.1.1 0 0 0-.02.028.092.092 0 0 0-.007.042c-.006-.022-.05.242.047.309a.569.569 0 0 1-.096-.294 1.633 1.633 0 0 1 .019-.185 3.197 3.197 0 0 1 .36-.807c.125-.24.267-.454.405-.674a8.387 8.387 0 0 1 2.119-2.35 20.36 20.36 0 0 1 5.493-2.884 30.11 30.11 0 0 1 5.998-1.517 26.278 26.278 0 0 1 6.212-.175 12.338 12.338 0 0 1 5.96 2.092 7.93 7.93 0 0 1 2.197 2.425c.248.474.52.937.746 1.425.182.51.397 1.01.548 1.533a10.19 10.19 0 0 1-.397 6.465 18.65 18.65 0 0 1-3.4 5.397 59.346 59.346 0 0 1-4.362 4.429 6.281 6.281 0 0 0-.502.5 2.598 2.598 0 0 0-.384.487 5.764 5.764 0 0 0-.617 1.175 14.187 14.187 0 0 0-.759 2.747 40.031 40.031 0 0 0-.504 5.944c-.084 4.03.085 8.101.131 12.212a52.816 52.816 0 0 1-.258 6.252 16.25 16.25 0 0 1-.716 3.155 37.154 37.154 0 0 1-1.053 2.958c-1.572 3.858-3.882 7.656-7.462 10.126a14.475 14.475 0 0 1-5.932 2.372 18.369 18.369 0 0 1-6.298-.134 35.52 35.52 0 0 1-11.404-4.7zm.123-.157a38.346 38.346 0 0 0 11.44 3.858 17.21 17.21 0 0 0 5.9-.153 13.857 13.857 0 0 0 5.265-2.361c3.144-2.302 5.194-5.853 6.57-9.548.347-.93.645-1.88.928-2.84a14.098 14.098 0 0 0 .604-2.817 51.07 51.07 0 0 0 .16-5.99c-.043-4.059-.242-8.158-.082-12.298a41.935 41.935 0 0 1 .64-6.247 16.078 16.078 0 0 1 .927-3.131 7.64 7.64 0 0 1 .834-1.515 7.016 7.016 0 0 1 1.168-1.273c1.508-1.374 2.98-2.748 4.318-4.216a17.023 17.023 0 0 0 3.252-4.823 9.05 9.05 0 0 0 .547-5.538c-.112-.461-.285-.911-.423-1.37-.183-.446-.414-.876-.617-1.317a6.751 6.751 0 0 0-1.791-2.16 11.383 11.383 0 0 0-5.405-2.11 22.47 22.47 0 0 0-2.996-.205 28.644 28.644 0 0 0-3.012.223 29.455 29.455 0 0 0-5.884 1.4 18.407 18.407 0 0 0-5.299 2.811 7.298 7.298 0 0 0-1.903 2.219c-.128.216-.262.432-.366.649a3.078 3.078 0 0 0-.262.586l-.006.005c-.002.04-.014-.112-.049-.113a.472.472 0 0 1 .062.396.924.924 0 0 1-.066.119.893.893 0 0 1-.079.102l-.036.036-.282.28-.543.54a276.01 276.01 0 0 0-4.25 4.401l-8.363 8.95a36.753 36.753 0 0 0-6.835 9.745 26.939 26.939 0 0 0-2.499 11.51 32.632 32.632 0 0 0 2.425 11.688 43.397 43.397 0 0 0 6.008 10.507z" class="cls-6"/><path d="M243.921 608.414c-9.605 1.005-18.733-5.073-20.895-14.486-1.543-6.72-.53-16.257 7.053-29.419 19.155-33.25 33.25-16.264 37.587-11.927s10.48 5.783 12.288 10.12 3.614 11.927-10.843 17.348-.722 9.758-9.758 19.878c-5.238 5.866-10.475 7.967-15.432 8.486z" class="cls-5"/><path d="M243.932 608.513a21.166 21.166 0 0 1-11.619-2.148 19.304 19.304 0 0 1-8.525-8.397 22.687 22.687 0 0 1-2.16-11.937 38.694 38.694 0 0 1 2.831-11.753 68.892 68.892 0 0 1 5.501-10.654 81.036 81.036 0 0 1 6.944-9.718 45.52 45.52 0 0 1 4.137-4.321 24.48 24.48 0 0 1 4.841-3.553 17.045 17.045 0 0 1 5.724-1.972 13.595 13.595 0 0 1 6.08.557c3.944 1.252 7.199 3.977 9.96 6.812 2.641 2.835 6.201 4.376 9.588 6.746a12.343 12.343 0 0 1 2.373 2.145 9.354 9.354 0 0 1 1.6 2.86 16.517 16.517 0 0 1 .837 3.062 10.702 10.702 0 0 1 .016 3.27 9.588 9.588 0 0 1-.378 1.616 15.67 15.67 0 0 1-.643 1.528c-.291.461-.566.94-.88 1.382-.345.414-.682.84-1.04 1.24a20.928 20.928 0 0 1-5.04 3.7c-3.594 1.98-7.811 2.711-10.22 5.186a3.418 3.418 0 0 0-.897 2.126 12.28 12.28 0 0 0 .236 2.75 12.139 12.139 0 0 1-.285 6.217 14.239 14.239 0 0 1-3.366 5.14 30.817 30.817 0 0 1-4.545 3.927 22.869 22.869 0 0 1-11.07 4.19zm-.021-.199a21.42 21.42 0 0 0 5.712-1.436 21.166 21.166 0 0 0 5.048-3 30.078 30.078 0 0 0 4.192-4.1 12.972 12.972 0 0 0 2.793-4.91 11.155 11.155 0 0 0-.117-5.532 13.686 13.686 0 0 1-.408-3.143 5.34 5.34 0 0 1 1.267-3.284 9.563 9.563 0 0 1 2.56-2.058 22.543 22.543 0 0 1 2.791-1.364 51.635 51.635 0 0 0 5.315-2.384 19.49 19.49 0 0 0 4.51-3.294 8.677 8.677 0 0 0 2.427-4.623 10.441 10.441 0 0 0-.653-5.317 7.292 7.292 0 0 0-1.234-2.323 10.474 10.474 0 0 0-1.996-1.857c-1.511-1.136-3.252-2.096-4.92-3.23a24.883 24.883 0 0 1-4.688-3.922 41.32 41.32 0 0 0-4.222-4.019 17.94 17.94 0 0 0-4.955-2.865 12.614 12.614 0 0 0-5.628-.738 14.587 14.587 0 0 0-5.488 1.736 30.238 30.238 0 0 0-8.814 7.67 64.59 64.59 0 0 0-6.482 9.865 70.612 70.612 0 0 0-4.905 10.683 43.951 43.951 0 0 0-2.634 11.292 23.733 23.733 0 0 0 1.54 11.267 18.306 18.306 0 0 0 7.64 8.477 18.996 18.996 0 0 0 11.349 2.41z" class="cls-6"/><path d="M167.916 513.55s-6.506 15.54 5.06 19.877 24.214 1.085 29.274 0 11.204-6.144 3.614-16.263-10.842-3.614-16.625-5.06-15.54-9.397-21.323 1.446z" class="cls-5"/><path d="M168.006 513.592a23.262 23.262 0 0 0-1.547 7.06 14.613 14.613 0 0 0 1.129 6.925 9.483 9.483 0 0 0 1.956 2.736 10.541 10.541 0 0 0 2.76 1.873c1.018.447 2.184.799 3.3 1.164l1.717.462c.574.15 1.16.252 1.74.382a44.742 44.742 0 0 0 14.361.576 63.356 63.356 0 0 0 7.153-1.324 18.291 18.291 0 0 0 3.43-1.012 9.308 9.308 0 0 0 2.831-1.963 6.3 6.3 0 0 0 1.63-2.868 5.352 5.352 0 0 0 .138-.809l.056-.405-.012-.415c-.012-.276.011-.55-.025-.825l-.14-.826a15.816 15.816 0 0 0-3.06-6.142 18.927 18.927 0 0 0-4.862-4.833 6.295 6.295 0 0 0-2.933-.91 13.346 13.346 0 0 0-3.33.496 12.404 12.404 0 0 1-3.933.38 13.003 13.003 0 0 1-3.781-1.098c-2.287-.98-4.392-2.13-6.618-2.956a10.532 10.532 0 0 0-6.87-.493c-2.268.756-3.923 2.746-5.09 4.825zm-.18-.085a11.47 11.47 0 0 1 5.065-5.256 11.671 11.671 0 0 1 7.455-.25 59.538 59.538 0 0 1 6.954 2.427 13.113 13.113 0 0 0 3.228.843 10.408 10.408 0 0 0 3.295-.416 14.432 14.432 0 0 1 3.876-.549 7.934 7.934 0 0 1 3.944 1.26 20.68 20.68 0 0 1 5.309 5.52 16.399 16.399 0 0 1 3.094 6.964 8.348 8.348 0 0 1-.272 3.943 7.535 7.535 0 0 1-2.175 3.264 10.288 10.288 0 0 1-3.266 1.973 24.537 24.537 0 0 1-3.613.88c-2.39.484-4.79.951-7.211 1.302a70.638 70.638 0 0 1-7.321.76 41.876 41.876 0 0 1-7.414-.338 26.928 26.928 0 0 1-7.232-2.064 9.968 9.968 0 0 1-5.117-5.721 15.67 15.67 0 0 1-.486-7.45 33.022 33.022 0 0 1 1.886-7.092z" class="cls-6"/><path d="M283.207 652.672s-1.085 16.286 11.203 19.177 10.481-7.973 11.927-9.589 7.228-4.145 5.421-9.927-4.376-13.373-14.115-11.566-12.63 6.823-14.436 11.905z" class="cls-5"/><path d="M283.305 652.692a29.425 29.425 0 0 0 2.743 11.23 14.306 14.306 0 0 0 13.77 7.71c.441-.105.898-.19 1.335-.326l.62-.287.316-.143.275-.204.55-.419.463-.52a2.53 2.53 0 0 0 .42-.563c.124-.201.257-.398.368-.607a12.408 12.408 0 0 0 .917-2.74c.21-.961.33-1.923.594-2.942a3.862 3.862 0 0 1 .124-.387l.23-.405a4.021 4.021 0 0 1 .562-.576c.383-.349.767-.657 1.145-.976a16.062 16.062 0 0 0 2.078-1.997 6.634 6.634 0 0 0 1.307-2.366 5.736 5.736 0 0 0 .114-2.582 13.113 13.113 0 0 0-.372-1.309l-.495-1.384a43.904 43.904 0 0 0-1.07-2.688 13.875 13.875 0 0 0-3.1-4.529 8.218 8.218 0 0 0-4.736-2.046 17.098 17.098 0 0 0-5.526.502 20.44 20.44 0 0 0-5.333 1.935 14.196 14.196 0 0 0-4.348 3.595 19.856 19.856 0 0 0-1.63 2.399c-.48.852-.904 1.741-1.321 2.625zm-.196-.04a19.158 19.158 0 0 1 2.326-5.575 14.702 14.702 0 0 1 4.362-4.357 20.017 20.017 0 0 1 5.661-2.46 17.943 17.943 0 0 1 6.222-.746 9.87 9.87 0 0 1 5.937 2.64 15.804 15.804 0 0 1 3.409 5.31c.375.954.734 1.91 1.015 2.874a22.635 22.635 0 0 1 .763 3.013 6.588 6.588 0 0 1-.393 3.272 7.874 7.874 0 0 1-1.786 2.654 17.012 17.012 0 0 1-2.361 1.94c-.403.29-.817.569-1.188.863a3.359 3.359 0 0 0-.495.46c-.044.08-.092.158-.145.236-.046.09-.075.21-.114.314-.287.883-.415 1.896-.645 2.865a15.078 15.078 0 0 1-.93 2.893 6.885 6.885 0 0 1-4.723 3.878 15.22 15.22 0 0 1-6.197-.175 12.482 12.482 0 0 1-5.587-2.871 15.303 15.303 0 0 1-2.088-2.37 16.718 16.718 0 0 1-1.507-2.729 23.223 23.223 0 0 1-1.536-11.93z" class="cls-6"/><path d="M308.506 617.637s-13.82-26.745 6.824-35.419c0 0 11.246 1.124 19.559-5.762s15.902-20.26 23.492-18.814a30.943 30.943 0 0 1 24.576 29.943c.723 20.655-2.53 31.497-7.59 33.666s-6.144.361-8.674-3.614-13.463-2.482-23.176 4.542-25.253 9.914-35.011-4.542z" class="cls-5"/><path d="M308.42 617.688a51.368 51.368 0 0 1-3.531-9.616 34.6 34.6 0 0 1-1.214-10.203 21.77 21.77 0 0 1 .85-5.14 17.723 17.723 0 0 1 2.275-4.748 19.015 19.015 0 0 1 8.208-6.529l.162-.072.242.011a31.737 31.737 0 0 0 12.234-1.835 25.287 25.287 0 0 0 5.486-2.835 37.632 37.632 0 0 0 4.756-4.093c3.02-2.978 5.807-6.247 8.872-9.285a34.469 34.469 0 0 1 4.97-4.196 9.357 9.357 0 0 1 6.252-1.884 31.474 31.474 0 0 1 25.339 26.518l.33 3.256c.106 1.087.094 2.153.147 3.231.062 2.151.098 4.306.05 6.463a76.991 76.991 0 0 1-1.175 12.934 34.194 34.194 0 0 1-1.803 6.359 12.392 12.392 0 0 1-4.056 5.618 12.024 12.024 0 0 1-3.289 1.363 6.994 6.994 0 0 1-1.872.231 4.684 4.684 0 0 1-2.006-.518 7.959 7.959 0 0 1-2.61-2.601c-.318-.461-.615-.92-.906-1.374a5.266 5.266 0 0 0-.422-.622c-.133-.132-.223-.293-.37-.42a5.146 5.146 0 0 0-2.388-1.005 9.346 9.346 0 0 0-1.448-.146 10.239 10.239 0 0 0-1.495.022 24.304 24.304 0 0 0-6.01 1.26 35.98 35.98 0 0 0-5.732 2.474c-.932.474-1.818 1.035-2.713 1.578l-2.69 1.749c-.907.623-1.9 1.103-2.857 1.635-1.01.433-1.977.952-3.023 1.29a29.4 29.4 0 0 1-6.344 1.622 21.924 21.924 0 0 1-12.723-1.937 24.334 24.334 0 0 1-9.496-8.555zm.172-.102l1.944 2.534c.75.756 1.446 1.57 2.24 2.277l1.24 1.005.621.5.678.42 1.353.838c.46.262.958.453 1.434.682a21.024 21.024 0 0 0 12.373 1.302 28.185 28.185 0 0 0 5.99-1.87c.98-.371 1.88-.921 2.817-1.379.883-.562 1.816-1.038 2.65-1.669a41.787 41.787 0 0 1 11.418-6.31 26.32 26.32 0 0 1 6.515-1.431 12.172 12.172 0 0 1 1.713-.043 11.432 11.432 0 0 1 1.746.16 6.953 6.953 0 0 1 3.439 1.502 7.095 7.095 0 0 1 .69.78 6.933 6.933 0 0 1 .478.707c.287.448.571.888.86 1.308a6.068 6.068 0 0 0 1.852 1.936 3.275 3.275 0 0 0 2.38.105 10.363 10.363 0 0 0 2.644-1.038 10.52 10.52 0 0 0 3.359-4.65 32.303 32.303 0 0 0 1.77-5.96 81.629 81.629 0 0 0 1.35-12.61c.096-2.124.11-4.255.098-6.385-.025-1.062 0-2.14-.066-3.189l-.206-3.146a30.983 30.983 0 0 0-3.892-11.913 29.565 29.565 0 0 0-8.594-9.195 29.21 29.21 0 0 0-11.579-4.946 8.576 8.576 0 0 0-5.735 1.89 32.632 32.632 0 0 0-4.68 4.258c-2.906 3.107-5.565 6.47-8.533 9.62a34.44 34.44 0 0 1-4.843 4.423 24.797 24.797 0 0 1-5.85 3.127 28.982 28.982 0 0 1-6.404 1.604 30.407 30.407 0 0 1-6.615.215l.405-.06a18.506 18.506 0 0 0-7.839 5.727 16.593 16.593 0 0 0-2.339 4.33 20.754 20.754 0 0 0-1.042 4.882 31.414 31.414 0 0 0 .788 10.067 45.566 45.566 0 0 0 3.372 9.595z" class="cls-6"/><path d="M359.123 642.321a5.619 5.619 0 0 0-5.127 3.72c-2.097 5.483-5.92 17.732-.675 23.108 6.867 7.037 17.71 4.868 18.432-1.637s3.636-14.818-3.603-19.878c-5.068-3.542-6.588-5.313-9.027-5.313z" class="cls-5"/><path d="M359.123 642.421a5.047 5.047 0 0 0-4.278 2.544 5.872 5.872 0 0 0-.517 1.161l-.37 1.28q-.354 1.284-.666 2.573a69.733 69.733 0 0 0-1.759 10.319 16.77 16.77 0 0 0 .283 5.105l.375 1.215.552 1.145c.224.357.502.679.75 1.025.277.326.61.618.923.92a12.481 12.481 0 0 0 4.464 2.654 12.24 12.24 0 0 0 5.102.558 9.491 9.491 0 0 0 4.6-1.724 5.386 5.386 0 0 0 2.245-3.856c.36-3.634 1.127-7.105 1.031-10.477a11.888 11.888 0 0 0-1.013-4.77 11.307 11.307 0 0 0-3.014-3.873c-1.389-1.131-2.736-2.334-4.103-3.47-1.356-1.1-2.806-2.33-4.605-2.329zm0-.2a5.412 5.412 0 0 1 2.616.693c.813.405 1.551.921 2.312 1.395a137.19 137.19 0 0 0 4.54 2.837 10.728 10.728 0 0 1 3.975 4.082 12.907 12.907 0 0 1 1.424 5.557c.15 3.791-.83 7.327-1.294 10.766-.101.48-.207 1.008-.358 1.493a7.66 7.66 0 0 1-.702 1.371 6.318 6.318 0 0 1-.98 1.16l-.553.507c-.194.155-.409.278-.613.416a10.114 10.114 0 0 1-5.443 1.515 15.412 15.412 0 0 1-10.059-3.817 9.696 9.696 0 0 1-3.237-4.467 17.218 17.218 0 0 1-.882-5.482 29.236 29.236 0 0 1 2.225-10.642 66.85 66.85 0 0 1 1.04-2.496l.563-1.229a6.648 6.648 0 0 1 .723-1.202 5.984 5.984 0 0 1 4.703-2.457z" class="cls-6"/><path d="M334.889 488.612l7.134 5.842c8.596 6.906 13.828 19.096 15.635 24.878s3.976 13.373-12.65 19.878-29.274-12.65-34.695-20.962-20.24-7.59-27.13-11.478-12.987-15.267-7.566-24.663 25.299-.723 32.166 2.89 27.106 3.615 28.359 4.586" class="cls-5"/><path d="M334.952 488.535c1.94 1.453 3.856 2.932 5.774 4.41a88.701 88.701 0 0 1 2.867 2.264 31.493 31.493 0 0 1 2.656 2.547 52.57 52.57 0 0 1 8.336 12.056 67.995 67.995 0 0 1 3.004 6.705 59.327 59.327 0 0 1 1.185 3.49 23.57 23.57 0 0 1 .862 3.667 11.71 11.71 0 0 1-.061 3.9 10.55 10.55 0 0 1-1.462 3.657 16.928 16.928 0 0 1-5.548 5.169 39.328 39.328 0 0 1-6.667 3.2 19.614 19.614 0 0 1-7.296 1.472 18.892 18.892 0 0 1-7.255-1.468 27.094 27.094 0 0 1-6.347-3.686 44.17 44.17 0 0 1-5.416-4.906 64.715 64.715 0 0 1-4.72-5.564c-1.47-1.935-2.865-3.928-4.236-5.929a15.967 15.967 0 0 0-2.175-2.782 14.18 14.18 0 0 0-2.792-2.1c-4.108-2.352-8.92-3.163-13.63-4.205a52.167 52.167 0 0 1-7.135-1.895 16.603 16.603 0 0 1-6.307-4.235 21.663 21.663 0 0 1-6.077-13.63 16.429 16.429 0 0 1 1.4-7.55 16.637 16.637 0 0 1 .893-1.732 8.691 8.691 0 0 1 1.27-1.628 9.092 9.092 0 0 1 3.454-2.146 17.642 17.642 0 0 1 7.642-.635 39.089 39.089 0 0 1 7.273 1.544 77.56 77.56 0 0 1 13.53 5.691 25.582 25.582 0 0 0 6.68 2.17c2.344.49 4.729.848 7.122 1.157q3.592.45 7.204.837l3.614.403c.602.072 1.204.153 1.805.249a5.95 5.95 0 0 1 1.804.472.097.097 0 0 1-.085.175l-.037-.017a6.234 6.234 0 0 0-1.722-.307l-1.806-.131-3.624-.201c-2.42-.128-4.842-.256-7.262-.475-2.42-.213-4.84-.475-7.256-.878a25 25 0 0 1-7.16-2.068 75.872 75.872 0 0 0-13.343-5.227 41.63 41.63 0 0 0-6.94-1.355 15.644 15.644 0 0 0-6.713.601 7.23 7.23 0 0 0-2.667 1.652 6.551 6.551 0 0 0-.959 1.227 14.63 14.63 0 0 0-.77 1.492 14.899 14.899 0 0 0-1.264 6.594 19.703 19.703 0 0 0 5.359 12.42 15.053 15.053 0 0 0 5.582 3.884 50.777 50.777 0 0 0 6.847 1.992c2.35.56 4.727 1.113 7.07 1.847a28.882 28.882 0 0 1 6.78 2.968 15.259 15.259 0 0 1 2.92 2.351 16.891 16.891 0 0 1 2.197 2.996c1.287 2.045 2.628 4.053 4.077 5.98a48.944 48.944 0 0 0 9.96 10.375c3.817 2.86 8.471 4.796 13.192 4.566a18.456 18.456 0 0 0 6.796-1.656 39.531 39.531 0 0 0 6.294-3.308 16.015 16.015 0 0 0 4.935-4.715 9.348 9.348 0 0 0 1.274-6.378 36.274 36.274 0 0 0-1.884-6.8 69.696 69.696 0 0 0-2.8-6.601 54.059 54.059 0 0 0-7.727-12.04 46.479 46.479 0 0 0-5.177-4.986c-1.829-1.589-3.658-3.177-5.465-4.792a.1.1 0 0 1 .127-.155zM103.945 729.314a34.128 34.128 0 0 0 8.97 1.365c.754.042 1.508.061 2.265.07.756.012 1.51.041 2.267.008l2.269-.022 2.27-.102c1.516-.025 3.03-.18 4.547-.247l4.555-.351c1.516-.16 3.045-.255 4.571-.39 1.527-.136 3.056-.278 4.608-.331-1.467.49-2.956.89-4.447 1.299a100 100 0 0 1-4.528.97c-1.518.29-3.055.459-4.586.689-1.543.127-3.082.298-4.633.358a50.163 50.163 0 0 1-9.31-.404 21.398 21.398 0 0 1-8.818-2.912zm93.998 8.052a34.128 34.128 0 0 0 8.97 1.365c.753.042 1.508.061 2.265.07.756.012 1.509.041 2.267.008l2.269-.022 2.27-.102c1.516-.025 3.03-.18 4.547-.247l4.555-.351c1.516-.16 3.045-.255 4.571-.391 1.527-.135 3.056-.277 4.608-.33-1.467.49-2.956.89-4.447 1.299a102.05 102.05 0 0 1-4.528.97c-1.518.29-3.055.459-4.586.689-1.543.127-3.082.298-4.633.358a50.163 50.163 0 0 1-9.309-.404 21.398 21.398 0 0 1-8.819-2.912zm121.68-12.891a34.125 34.125 0 0 0 8.97 1.365 50.87 50.87 0 0 0 2.265.07c.755.012 1.509.042 2.267.009l2.268-.022 2.271-.102c1.515-.026 3.03-.18 4.546-.248l4.556-.35c1.516-.161 3.044-.255 4.57-.391 1.528-.136 3.057-.277 4.609-.33-1.467.489-2.956.89-4.447 1.298-1.5.365-3.012.674-4.528.97-1.518.29-3.056.46-4.586.69-1.543.126-3.082.298-4.633.358a50.17 50.17 0 0 1-9.31-.404 21.397 21.397 0 0 1-8.818-2.913z" class="cls-6"/><path fill="none" stroke="#fff" stroke-linecap="round" stroke-miterlimit="10" stroke-width="2" d="M142.035 53.373c-16.921-2.13-69.89 7.744-80.15 11.283s-37.45 100.163-37.45 100.163-12.04 29.192-7.467 38.202M202.516 69.54s19.47-14.9 39.328-13.407M15.931 72.783s4.237-22.722 18.478-24.632 31.136 14.412 31.136 14.412m9.096-3.673s-7.26-29.914 6.143-41.07m79.26 36.596s3.907-35.883 19.984-39.919m19.494 228.923s23.785-16.874 24.425-19.846M91.285 147.852s20.058-2.106 26.114.004m-84.524 46.033s12.198-30.508 51.387-37.213m39.7 104.916s27.033-18.628 28.406-34.027m87.302 235.739s9.212-12.924 70.376 10.529M75.725 267.607s2.958 79.582-8.503 150.223c0 0-17.439 90.662-15.923 88.94"/><path d="M31.301 228.755c-.367-1.398-11.565-55.296 37.948-69.03s70.476 14.818 70.476 14.818 20.6 23.13 11.927 56.02-47.707 36.864-47.707 36.864c-.149-.086-59.225 12.467-72.644-38.672z" class="cls-17"/><path d="M65.545 234.448s27.92 6.595 52.495-14.728" class="cls-18"/><path d="M128.16 219.72a1.678 1.678 0 0 1-.865.916 8.036 8.036 0 0 1-1 .228 13.88 13.88 0 0 1-2.012.254 21.67 21.67 0 0 1-3.987-.208 30.548 30.548 0 0 1-7.677-1.972c2.664-.139 5.253-.052 7.824-.025 1.282.03 2.559.021 3.819.073l1.89.092c.647.06 1.194-.187 2.008.642z" class="cls-6"/><path d="M72.6 235.015a25.92 25.92 0 0 1 1.551 2.812c.463.94.892 1.892 1.307 2.847.83 1.912 1.591 3.846 2.312 5.793.73 1.944 1.406 3.906 2.074 5.87l.971 2.952.552 1.34a8.813 8.813 0 0 0 5.204 4.582 16.22 16.22 0 0 0 5.82.739 39.862 39.862 0 0 0 11.785-2.7 30.976 30.976 0 0 0 10.321-6.126 29.346 29.346 0 0 0 7.061-9.638 55.199 55.199 0 0 0 4.518-23.727l1.999-.078a57.067 57.067 0 0 1-4.843 24.572 31.148 31.148 0 0 1-7.558 10.182 32.725 32.725 0 0 1-10.909 6.391 41.434 41.434 0 0 1-12.314 2.726 17.776 17.776 0 0 1-6.399-.867A10.347 10.347 0 0 1 80 257.278l-.617-1.531-.948-2.943c-.65-1.954-1.31-3.906-2.02-5.837a113.372 113.372 0 0 0-2.247-5.738 41.61 41.61 0 0 0-2.68-5.421z" class="cls-6"/><path d="M78.388 250.489a20.281 20.281 0 0 1 1.86-2.589 39.354 39.354 0 0 1 2.127-2.392 42.25 42.25 0 0 1 4.92-4.136 34.507 34.507 0 0 1 11.755-5.379 32.812 32.812 0 0 1 12.933-.484c1.06.21 2.122.384 3.156.68a31.204 31.204 0 0 1 3.076.914 38.907 38.907 0 0 1 5.777 2.684l-.06.137a44.224 44.224 0 0 0-12.081-3.259 35.75 35.75 0 0 0-12.448.785 38.023 38.023 0 0 0-11.479 4.907 40.477 40.477 0 0 0-9.417 8.222zm-29.434-59.297a25.542 25.542 0 0 0 4.615-.078 9.757 9.757 0 0 0 4.074-1.427 6.162 6.162 0 0 0 2.554-3.529 4.947 4.947 0 0 0 .163-2.244 2.883 2.883 0 0 0-1.092-1.781 5.382 5.382 0 0 0-4.07-.615l-.502.132-.448.189a7.544 7.544 0 0 0-.907.556 15.99 15.99 0 0 0-1.73 1.392 14.16 14.16 0 0 0-2.832 3.413 4.923 4.923 0 0 0-.622 2.018 3.168 3.168 0 0 0 .797 1.974zm-.068.133a3.163 3.163 0 0 1-1.484-2.03 5.369 5.369 0 0 1 .297-2.574 11.797 11.797 0 0 1 2.818-4.101 11.967 11.967 0 0 1 1.975-1.538 8.973 8.973 0 0 1 1.151-.602c.22-.077.441-.158.66-.224.218-.044.434-.093.651-.128a5.623 5.623 0 0 1 4.863 1.394 3.905 3.905 0 0 1 1.046 2.316 7.563 7.563 0 0 1-.195 2.44c-.082.397-.21.779-.306 1.175-.113.392-.287.773-.434 1.168a11.654 11.654 0 0 1-.647 1.1 10.087 10.087 0 0 1-.877.956 7.675 7.675 0 0 1-4.75 1.596 11.413 11.413 0 0 1-4.768-.948zm73.444.125a11.412 11.412 0 0 1-4.766.949 7.675 7.675 0 0 1-4.75-1.597 10.088 10.088 0 0 1-.878-.956 11.656 11.656 0 0 1-.647-1.1c-.147-.394-.321-.776-.434-1.168-.097-.396-.224-.778-.307-1.175a7.563 7.563 0 0 1-.194-2.44 3.905 3.905 0 0 1 1.046-2.316 5.623 5.623 0 0 1 4.863-1.393c.216.034.433.083.65.127.22.066.44.147.66.224a8.974 8.974 0 0 1 1.152.602 11.968 11.968 0 0 1 1.975 1.538 11.797 11.797 0 0 1 2.818 4.101 5.368 5.368 0 0 1 .297 2.574 3.163 3.163 0 0 1-1.484 2.03zm-.067-.133a3.168 3.168 0 0 0 .797-1.974 4.923 4.923 0 0 0-.622-2.018 14.16 14.16 0 0 0-2.832-3.413 15.989 15.989 0 0 0-1.73-1.392 7.54 7.54 0 0 0-.907-.556l-.448-.188-.502-.133a5.382 5.382 0 0 0-4.07.615 2.883 2.883 0 0 0-1.092 1.781 4.947 4.947 0 0 0 .163 2.244 6.162 6.162 0 0 0 2.554 3.529 9.757 9.757 0 0 0 4.074 1.427 25.54 25.54 0 0 0 4.615.078zm-41.448-41.35c2.007-2.826 3.827-5.752 5.57-8.708a99.445 99.445 0 0 0 4.702-9.127 70.715 70.715 0 0 0 3.493-9.617l.62-2.488c.232-.827.313-1.679.483-2.52.412-1.68.415-3.4.673-5.127a36.282 36.282 0 0 1-.638 10.408 50.856 50.856 0 0 1-3.262 9.955 63.828 63.828 0 0 1-5.083 9.135 53.556 53.556 0 0 1-6.558 8.089zm7.773-1.807a26.48 26.48 0 0 1 8.564-2.843 39.718 39.718 0 0 1 9.072-.46 42.107 42.107 0 0 1 8.925 1.616 40.982 40.982 0 0 1 4.265 1.498c1.384.594 2.726 1.284 4.041 1.996-1.483-.3-2.9-.738-4.345-1.063l-2.164-.477-1.075-.247-1.087-.19a64.823 64.823 0 0 1-2.163-.4l-2.176-.291-1.084-.16-1.09-.101c-.727-.06-1.452-.146-2.18-.187a64.72 64.72 0 0 0-8.75.009 53.57 53.57 0 0 0-8.753 1.3z" class="cls-6"/><path d="M95.099 122.463a83.167 83.167 0 0 0 .402-9.219 47.384 47.384 0 0 0-.866-9.056 18.977 18.977 0 0 0-3.427-8.04 9.8 9.8 0 0 0-3.292-2.718 12.36 12.36 0 0 0-4.23-1.155l.076-.003A18.573 18.573 0 0 0 75.1 95.71a19.522 19.522 0 0 0-6.025 7.133c-2.643 5.71-3.131 12.137-2.432 18.372a30.702 30.702 0 0 0 2.206 8.96 11.202 11.202 0 0 0 5.885 6.269 14.033 14.033 0 0 0 8.914.171 24.317 24.317 0 0 0 4.38-1.688 17.05 17.05 0 0 0 2.043-1.183 6.129 6.129 0 0 0 1.712-1.556l.185.076a5.79 5.79 0 0 1-1.584 1.887 17.682 17.682 0 0 1-1.965 1.458 21.929 21.929 0 0 1-4.404 2.169 14.626 14.626 0 0 1-9.94.39 11.325 11.325 0 0 1-4.35-2.841 15.218 15.218 0 0 1-2.827-4.272 29.031 29.031 0 0 1-2.25-9.65l-.156-4.901c.126-1.636.192-3.278.448-4.897a27.976 27.976 0 0 1 1.198-4.778l.415-1.16a6.527 6.527 0 0 1 .474-1.135l1.123-2.192a23.903 23.903 0 0 1 15.5-11.056l.02-.004.058.002a13.398 13.398 0 0 1 4.756.902 10.483 10.483 0 0 1 4.016 2.865 17.881 17.881 0 0 1 3.82 8.812 39.8 39.8 0 0 1 .431 9.415 50.727 50.727 0 0 1-1.455 9.224z" class="cls-6"/><path d="M76.297 85.816s16.535-1.084 15.496-9.487c-.571-4.616-4.781-5.142-8.46-4.679a18.537 18.537 0 0 0-10.212 4.692c-1.718 1.577-3.212 3.547-2.968 5.498.542 4.337 6.144 3.976 6.144 3.976zm64.951-2.451s15.266 6.443 18.104-1.534c1.559-4.381-1.968-6.74-5.465-7.975a18.537 18.537 0 0 0-11.232-.383c-2.242.64-4.46 1.73-5.117 3.584-1.46 4.12 3.71 6.308 3.71 6.308z" class="cls-17"/><path d="M68.169 103.443s28.458-16.814 22.223 31.435c0 0-9.346 3.614-12.198 3.182s-10.429-3.08-11.568-10.992-.425-20.335 1.543-23.625z" class="cls-19"/><ellipse cx="87.037" cy="111.355" class="cls-3" rx="6.053" ry="7.996"/><path d="M143.117 147.852a47.834 47.834 0 0 1-3.247-8.197 68.299 68.299 0 0 1-2.018-8.597 67.484 67.484 0 0 1-.904-8.785 55.82 55.82 0 0 1 .324-8.809c.272 2.93.498 5.832.843 8.72.319 2.89.73 5.765 1.215 8.625.453 2.866 1.049 5.708 1.668 8.549.648 2.834 1.31 5.672 2.12 8.494z" class="cls-6"/><path d="M138.51 123.589a44.472 44.472 0 0 1-1.568-14.957 25.266 25.266 0 0 1 1.647-7.505 13.93 13.93 0 0 1 4.684-6.27 12.35 12.35 0 0 1 7.418-2.325 16.859 16.859 0 0 1 7.336 2.012 24.529 24.529 0 0 1 11.066 10.041 23.84 23.84 0 0 1 1.62 3.475 23.43 23.43 0 0 1 .984 3.711 31.462 31.462 0 0 1 .485 7.637c-.08 1.27-.252 2.531-.376 3.8a26.51 26.51 0 0 1-.843 3.8 14.963 14.963 0 0 1-4.115 6.757 14.157 14.157 0 0 1-7.141 3.436 22.501 22.501 0 0 1-7.732-.088 32.84 32.84 0 0 1-7.28-2.2 26.77 26.77 0 0 1-3.369-1.732 16.212 16.212 0 0 1-1.569-1.07 4.472 4.472 0 0 1-1.31-1.41l.181-.085a4.484 4.484 0 0 0 1.383 1.132 15.696 15.696 0 0 0 1.622.865 36.49 36.49 0 0 0 3.425 1.356 34.311 34.311 0 0 0 7.139 1.585 22.452 22.452 0 0 0 7.132-.254 12.518 12.518 0 0 0 6.068-3.098 12.802 12.802 0 0 0 2.15-2.656c.26-.519.566-1.01.792-1.548.201-.55.482-1.065.643-1.636a24.496 24.496 0 0 0 .865-3.461c.148-1.206.347-2.41.458-3.62a34.006 34.006 0 0 0-.174-7.248 29.28 29.28 0 0 0-.716-3.552 22.628 22.628 0 0 0-1.293-3.39 19.89 19.89 0 0 0-4.253-5.905 21.881 21.881 0 0 0-6.116-4.055c-.558-.26-1.13-.484-1.71-.687a12.27 12.27 0 0 0-1.745-.525 12.855 12.855 0 0 0-3.58-.274 11.165 11.165 0 0 0-6.437 2.537 13.99 13.99 0 0 0-4.053 5.618 26.803 26.803 0 0 0-1.744 6.987 51.425 51.425 0 0 0-.327 7.347 68.84 68.84 0 0 0 .548 7.41z" class="cls-6"/><path d="M139.34 101.956s29.35-14.735 23.116 33.514c0 0-10.913.62-13.765.187s-9.755-2.163-10.894-10.076-.426-20.335 1.542-23.625z" class="cls-19"/><ellipse cx="160.762" cy="111.355" class="cls-3" rx="6.978" ry="7.996"/><path d="M31.301 228.755s-15.902-25.66-16.264-31.443 2.892-18.432 11.204-44.092 22.77-70.493 24.938-73.918 3.805-11.015 9.492-14.629 83.753-30.772 145.193 6.841" class="cls-18"/><path d="M68.232 61.614s-22.113-23.016-43.075-9.798c-13.91 8.772-9.36 28.597-4.723 40.944a49.957 49.957 0 0 0 11.85 18.138c1.87 1.832 3.937 3.732 5.976 5.369" class="cls-17"/><path d="M25.419 72.77a28.541 28.541 0 0 1 1.06-5.525 18.191 18.191 0 0 1 2.38-5.18 8.878 8.878 0 0 1 4.672-3.542 8.756 8.756 0 0 1 2.975-.318 10.15 10.15 0 0 1 1.455.09 12.022 12.022 0 0 1 1.447.211 17.355 17.355 0 0 1 5.51 2.024 15.854 15.854 0 0 1 4.424 3.875 19.004 19.004 0 0 1 3.964 10.668l-.197.04a40.739 40.739 0 0 0-2.23-5.049 23.014 23.014 0 0 0-3.072-4.376 17.35 17.35 0 0 0-8.739-5.618 10.611 10.611 0 0 0-1.305-.262 8.947 8.947 0 0 0-1.327-.155 7.4 7.4 0 0 0-2.566.125 7.726 7.726 0 0 0-4.21 2.887 17.409 17.409 0 0 0-2.612 4.771 28.16 28.16 0 0 0-1.43 5.356z" class="cls-6"/><path d="M202.516 69.54s24.377-23.82 45.339-10.602c13.91 8.77 11.075 29.321 6.439 41.669 0 0-7.073 24.737-32.94 35.204" class="cls-17"/><path d="M248.864 87.207a28.16 28.16 0 0 0 .752-5.492 17.409 17.409 0 0 0-.564-5.41 7.726 7.726 0 0 0-2.767-4.29 7.4 7.4 0 0 0-2.319-1.108 8.949 8.949 0 0 0-1.283-.37 10.608 10.608 0 0 0-1.305-.263 17.35 17.35 0 0 0-10.231 1.802 23.015 23.015 0 0 0-4.526 2.848 40.74 40.74 0 0 0-4.008 3.794l-.166-.112a19.004 19.004 0 0 1 7.78-8.306 15.854 15.854 0 0 1 5.578-1.863 17.355 17.355 0 0 1 5.864.263 12.023 12.023 0 0 1 1.416.366 10.15 10.15 0 0 1 1.377.479 8.756 8.756 0 0 1 2.62 1.444 8.878 8.878 0 0 1 2.94 5.072 18.191 18.191 0 0 1 .192 5.697 28.54 28.54 0 0 1-1.159 5.507z" class="cls-6"/><path d="M228.1 72.781s-8.502 4.18-9.225 11.409 6.505 110.05 6.234 124.416 0 16.806-7.59 23.312-31.095 19.787-46.177 22.769M73.226 60.036s-6.958-21.656 4.155-38.19c6.946-10.334 14.845-7.75 19.793-4.36a23.701 23.701 0 0 1 6.804 7.348c3.226 5.333 6.624 14.745 7.828 26.982m48.234 2.602s-2.434-21.275 11.674-35.342c8.818-8.791 16.066-4.725 20.262-.44a27 27 0 0 1 5.25 8.528c4.301 10.102 3.371 17.258.576 39.828M74.641 267.607s-1.055 95.775-5.391 121.797-14.887 99.75-15.034 103.003c0 0-14.3 97.04 20.425 159.926" class="cls-18"/><path d="M59.2 611.61c.354 1.298 9.507 87.04 23.06 112.682s69.479 18.625 74.813 7.04c5.421-11.776 7.923-43.506 7.923-43.506" class="cls-18"/><path d="M98.56 664.708c2.784.631 5.507 1.417 8.22 2.226 2.71.823 5.408 1.667 8.06 2.654 2.64 1.023 5.255 2.142 7.937 3.056a77.846 77.846 0 0 0 8.208 2.178l4.157.881c1.384.29 2.755.632 4.132.943l8.27 1.793c5.501 1.231 10.976 2.478 16.582 3.445a.1.1 0 0 1 .083.115.102.102 0 0 1-.094.084 70.87 70.87 0 0 1-17.014-1.558c-1.39-.311-2.794-.568-4.165-.949l-4.122-1.106a107.826 107.826 0 0 1-8.126-2.594c-2.688-.926-5.363-1.87-8.101-2.612a88.843 88.843 0 0 0-4.13-1.05 185.162 185.162 0 0 1-4.135-1.043c-2.734-.77-5.405-1.738-8.05-2.773a75.589 75.589 0 0 1-7.783-3.503.1.1 0 0 1 .07-.187z" class="cls-6"/><path d="M159.242 652.333s9.758 74.812 22.227 87.823 61.26 14.095 69.391 0 18.974-37.572 21.143-66.764a404.73 404.73 0 0 0 0-55.755" class="cls-18"/><path d="M271.1 681.883l9.318-.958c3.097-.306 6.182-.651 9.28-.91 3.101-.229 6.225-.417 9.3-.935a55.443 55.443 0 0 0 9.037-2.345 142.19 142.19 0 0 0 8.655-3.372 71.715 71.715 0 0 0 8.134-4.28 35.275 35.275 0 0 0 12.864-12.813.1.1 0 0 1 .136-.041.102.102 0 0 1 .048.118 23.918 23.918 0 0 1-4.657 8.276 32.589 32.589 0 0 1-7.255 6.265 50.17 50.17 0 0 1-8.553 4.214 58.981 58.981 0 0 1-9.075 2.687c-3.068.703-6.152 1.255-9.211 1.928l-4.593 1.035c-1.537.326-3.077.649-4.628.915a72.35 72.35 0 0 1-9.385.805 63.451 63.451 0 0 1-9.418-.389.1.1 0 0 1-.088-.112.103.103 0 0 1 .092-.088z" class="cls-6"/><path d="M293.127 680.394s.922 35.909 11.313 47.293 26.112 13.011 43.46 8.674 27.106-7.678 30.9-26.879 16.264-73.413 10.843-114.614-22.227-81.86-54.754-106.256-79.496-33.891-95.218-29.102" class="cls-18"/><path d="M390.943 613.024s6.019-1.622 6.56-2.706c0 0 5.151 4.608 8.404-7.86 0 0 7.86 3.794 5.42-17.348-.185-1.616-14.636-22.227-22.768-38.491s-20.41-19.317-20.41-19.317M211.54 236.305s-20.655 71.386 30.304 234.023" class="cls-18"/></svg>