<svg xmlns="http://www.w3.org/2000/svg" role="img" viewBox="34.94 20.69 380.12 119.37"><defs><style>.cls-1{fill:#fff}</style></defs><path d="M199.06 92.57h-23l-4.14 9.36h-5.1L185 60.71h5.1l18.18 41.22h-5.1zm-1.92-4.44l-9.54-21.66-9.6 21.66zm17.4-27.42h4.68l25.56 33.54V60.71h4.68v41.22h-4.68l-25.56-33.54v33.54h-4.68zm55.02 4.44H255.7v-4.44h32.4v4.44h-13.86v36.78h-4.68zm55.05 15a13.18 13.18 0 0 1-4.61 4.62 16 16 0 0 1-6.6 2.22l10.5 14.94h-5.34l-10.42-14.82H299v14.82h-4.68V60.71h16.74a17.43 17.43 0 0 1 7.68 1.68 13.45 13.45 0 0 1 5.49 4.71 12.58 12.58 0 0 1 .36 13.05zM299 82.67h11.22a13.23 13.23 0 0 0 8.19-2.34 8.21 8.21 0 0 0 0-12.84 13.23 13.23 0 0 0-8.19-2.34H299zm39.68-17.52v13.56h22.38v4.44h-22.38v14.34h24.84v4.44h-29.58V60.71h29.58v4.44zm60.12 27.42h-23l-4.14 9.36h-5.1l18.18-41.22h5.1L408 101.93h-5.1zm-1.92-4.44l-9.54-21.66-9.6 21.66zM67.59 105.15a10.59 10.59 0 0 0 4.08 3.89c.29.16.57.3.86.43a69.92 69.92 0 0 0 5.32-10.36 57.34 57.34 0 0 0-10.35 6zm52.75-15.64a46.89 46.89 0 0 1-3.65 10.19 44.82 44.82 0 0 1 8.94 3.88 62.74 62.74 0 0 0 6.17-14.75c0-.19.1-.39.16-.58l-5.41.57q-3.1.33-6.21.69zm-6.73 15.13c-5.28 7-13.77 11.56-26.16 12.21-1.59.08-3.1.11-4.54.08a31 31 0 0 0 13 2.35c12.05-.63 19.56-4.22 24.86-9.52.49-.48.94-1 1.39-1.49a34.56 34.56 0 0 0-8.55-3.63zm8.93-29.08c-.27 2.74-.59 5.45-1 8.1l4.72-.51c2.46-.27 4.89-.53 7.3-.81 1-4 1.92-8.19 3-12.36-4.47.76-9.06 1.4-13.65 2-.16 1.22-.26 2.4-.37 3.58zM117.52 67c.24-3.73.45-7.53.73-11.32-3.61.46-7.23.87-10.8 1.28-.28 3.8-.58 7.6-1 11.36v.35h.32c3.55-.62 7.15-1.13 10.75-1.67zm-15.37-15.08c.32-4.48.67-9 1.13-13.32-3.75 1.13-7.49 2.17-11.13 3.25-.07 1.85-.13 3.73-.2 5.62s-.15 4.08-.25 6.14c2.16-.44 4.36-.82 6.58-1.15q1.92-.28 3.87-.54zm14.74 23.38c.08-.83.14-1.66.21-2.5-3.27.46-6.51.94-9.68 1.48l-1.67.29A110 110 0 0 1 103.66 86c4-.66 8-1.21 12-1.69.54-2.86.93-5.89 1.23-9.01zm-2.56 14.93c-4.21.54-8.38 1.16-12.46 1.91a51.19 51.19 0 0 1-2.69 6.39 44.81 44.81 0 0 1 11.82-.06 37.51 37.51 0 0 0 3.33-8.24zm-13.49-22.18c.35-3.39.62-6.85.89-10.34-1 .13-1.94.25-2.89.39-2.56.39-5 .84-7.44 1.36-.26 4.27-.6 8.58-1.13 12.9 3.33-1 6.81-1.86 10.38-2.58.07-.58.13-1.15.19-1.73zM85.61 61a39.83 39.83 0 0 0-9.29 4 45.29 45.29 0 0 1 .58 13.15 50.14 50.14 0 0 1 7.36-3.7c.63-4.45 1.05-8.96 1.35-13.45zM70.57 83a49.1 49.1 0 0 0 .75-13.92c-4.15 4.41-6.62 10.61-6.62 20.39v1.7a31.14 31.14 0 0 1 6-8.16zm-2.74 15.21A70.46 70.46 0 0 1 80.51 92a99.68 99.68 0 0 0 2.67-10.84 37.18 37.18 0 0 0-4.85 2.78c-5.09 3.44-8.77 7.84-10.5 14.27zm20.56 12.88c9-.62 14.72-3.27 18.74-7.37A48 48 0 0 0 95.05 105a30.8 30.8 0 0 1-6.66 6.09zm4.73-13.04a36.12 36.12 0 0 0 2.26-4.58c-3.58.82-7.07 1.79-10.42 2.92a80 80 0 0 1-5.96 13.2c6.62-2.03 10.9-6.04 14.12-11.54zM86 55c.12-2.48.22-5 .31-7.42 0-1.3.09-2.59.13-3.89l-1.57.53a60.43 60.43 0 0 0-14.3 6.89 45.5 45.5 0 0 1 4.2 8.41A48.52 48.52 0 0 1 86 55zm-16 7.78a34.81 34.81 0 0 0-3.94-8c-.47.46-.93.93-1.37 1.43-5 5.58-8.14 13.31-8.13 25.53a30.41 30.41 0 0 0 2.59 11.79c-.07-1.19-.1-2.43-.1-3.73C59 77.22 63.24 68.43 70 62.78zm29.89 12.94a95.82 95.82 0 0 0-10.5 2.86C88.77 82.33 88 86.07 87 89.76c3.44-1 7-1.88 10.53-2.61a94.82 94.82 0 0 0 2.36-11.43z" class="cls-1"/><path d="M94.86 28a52.5 52.5 0 1 0 52.5 52.5A52.5 52.5 0 0 0 94.86 28zm43.33 56.28v.4c-.13 1.36-.33 2.69-.58 4a43.5 43.5 0 1 1-28.71-49.37c-.42 3.89-.75 7.91-1.06 12 3.66-.44 7.32-.87 10.9-1.35.19-1.79.41-3.58.67-5.34.92.63 1.81 1.3 2.67 2l.13.1c.85.69 1.67 1.41 2.47 2.16l.16.15a43.7 43.7 0 0 1 4.51 5h-.09c-1.74.35-3.51.66-5.28.94-.3 3.74-.54 7.55-.8 11.36 4.14-.58 8.2-1.18 12.13-1.85.25.62.48 1.24.7 1.87.22.62.42 1.24.6 1.87v.11c.18.6.34 1.21.49 1.83l.06.25c.14.57.27 1.14.38 1.72 0 .15 0 .3.08.45.1.52.19 1 .27 1.57l.09.72c.06.44.12.89.16 1.35s.06.73.08 1.1.06.67.08 1c0 .72.05 1.44.05 2.17s0 1.42-.05 2.13q-.04.84-.11 1.66z" class="cls-1"/></svg>