<svg id="图层_1" data-name="图层 1" xmlns="http://www.w3.org/2000/svg" viewBox="0 0 1075.44949 201.85831"><defs><style>.cls-1{fill:#333;}</style></defs><path id="形状结合备份-24" d="M716.12471,74.486,745.18909,128.321,772.30277,74.486h27.13757l-63.688,119.38313H708.32221l25.06555-43.149L690.669,74.486ZM312.50943,39.99757l39.66408,100.14849L392.39426,39.99757h27.673L365.10917,172.64549H338.45289L284.76639,39.99757Zm646.10842,31.8355V94.334c-11.3198,0-21.986,11.57221-21.986,22.044h0v53.61452H910.8646V120.9128q0-40.50932,47.75325-49.07973ZM855.79907,74.486c12.11166,0,28.53594,16.02705,28.53594,32.03531v63.47119H824.37927c-13.0755,0-27.59189-13.39125-27.59189-29.755s11.41656-31.38,22.51809-31.38h41.52664q-.49129-13.545-11.33175-13.545H814.43549V74.486Zm-223.2717,0c41.21615,0,47.40832,34.11109,47.52806,41.01564l.00178.20083v18.53764h-70.3038q3.8098,15.43209,21.90423,15.791l.86973.00854H671.8257v19.95289H630.694c-33.33822,0-46.14325-29.871-46.14325-44.60865S590.89488,74.486,632.52737,74.486Zm-95.22285,2.653c8.63808,0,28.67548,8.966,28.67548,30.307v62.54652H541.74594v-57.431h0c0-9.97061-9.77424-12.50727-15.71192-12.50727H510.448v69.93826H483.73828V77.139Zm-85.40174-2.653v95.5065H425.37319V74.486Zm604.87454-37.14142v129.995h-53.14345c-10.68317,0-34.40418-11.37361-34.40418-46.73209q0-35.35843,34.40418-40.374H1032.724V37.34461ZM860.84166,126.91592H829.98058c-4.94961,0-9.08668,5.837-9.08668,10.49278,0,4.51039,3.93285,10.685,8.62985,11.06652l.45683.01858h30.86108ZM1033.254,100.28813h-25.44429q-15.76742,4.05588-15.76741,22.32131c0,18.2654,9.54662,24.40806,15.76741,24.40806H1033.254ZM633.1109,94.44584q-19.05513,0-22.82645,20.38575h45.65292Q652.166,94.44584,633.1109,94.44584Z"/><g id="编组备份"><path id="路径" d="M165.84414,89.93047l-.17453.07358a75.21363,75.21363,0,0,0-17.03755,10.03c-18.01317,14.21806-28.41593,36.52186-28.45047,68.66946q-.00832,7.83268.66037,14.74806H96.78056q-.60646-7.09346-.59917-14.77371c.04249-39.3528,13.69845-68.63157,37.58105-87.48246a99.962,99.962,0,0,1,25.76061-14.60676A102.195,102.195,0,0,1,165.84414,89.93047Z"/><path id="路径-2" data-name="路径" class="cls-1" d="M100.88168,81.19539c23.88259,18.85089,37.53856,48.12966,37.581,87.48246q.008,7.67866-.59917,14.77371h-24.0614q.67029-6.91887.66037-14.74806c-.03454-32.1476-10.4373-54.4514-28.45047-68.66946a74.90528,74.90528,0,0,0-16.11384-9.62871,102.89108,102.89108,0,0,1,7.0379-23.09281A99.54255,99.54255,0,0,1,100.88168,81.19539Z"/><path id="路径-3" data-name="路径" class="cls-1" d="M55.49262,10.45981,74.67889,26.45435C40.46453,58.84381,39.80659,128.78283,53.31164,183.4512H29.30547C14.11451,129.10621,16.239,51.17227,55.49262,10.45981Z"/><path id="路径-4" data-name="路径" d="M179.47483,9.98915c39.69409,40.58011,41.89395,118.90735,26.6441,173.46312H182.11234c13.56565-54.91058,12.842-125.23016-21.825-157.42765Z"/></g></svg>