<svg xmlns="http://www.w3.org/2000/svg" role="img" viewBox="-0.26 0.24 305.52 481.52"><defs><style>.cls-1{fill:#fff}.cls-2{fill:#476bb3}</style></defs><path d="M104.123 413.146h110.986v47.442H104.123z" class="cls-1"/><path d="M296.465 80.9h-.045V55.094a45.717 45.717 0 0 0-45.583-45.583H55.34A45.717 45.717 0 0 0 9.757 55.094V396.77h286.708zM151.506 64.3V41.24h6.532V64.3zm31.039 0V41.24h6.532V64.3zm36.877-16.462a11.022 11.022 0 0 1 2.017-3.836 8.634 8.634 0 0 1 3.222-2.411 10.81007 10.81007 0 0 1 4.363-.833 10.27042 10.27042 0 0 1 2.433.263 13.196 13.196 0 0 1 2.17.745V31.333l6.532-1.052v33.275q-.878.263-2.016.504-1.141.242-2.39.417-1.25.175-2.543.285-1.293.109-2.476.11a14.50438 14.50438 0 0 1-5.086-.834 10.20427 10.20427 0 0 1-3.77-2.39 10.35427 10.35427 0 0 1-2.346-3.77 14.36909 14.36909 0 0 1-.81-4.975 17.024 17.024 0 0 1 .7-5.064zm-25.028-.263a11.51113 11.51113 0 0 1 2.477-3.836 10.30515 10.30515 0 0 1 3.53-2.324 11.05405 11.05405 0 0 1 4.098-.789 10.19 10.19 0 0 1 7.76 3.004q2.85 3.003 2.85 8.833 0 .57-.044 1.25t-.088 1.205H200.16a4.34 4.34 0 0 0 1.885 3.201 7.578 7.578 0 0 0 4.472 1.183 18.88757 18.88757 0 0 0 3.53-.328 13.29823 13.29823 0 0 0 2.827-.811l.877 5.305a9.02765 9.02765 0 0 1-1.403.525 18.29471 18.29471 0 0 1-1.951.46q-1.075.198-2.302.33a23.01442 23.01442 0 0 1-2.455.131 14.52507 14.52507 0 0 1-5.414-.92 10.53619 10.53619 0 0 1-3.814-2.521 9.99813 9.99813 0 0 1-2.236-3.793 15.01708 15.01708 0 0 1-.723-4.734 14.09591 14.09591 0 0 1 .942-5.37zM183.049 31.75a4.16 4.16 0 0 1 5.48 0 3.589 3.589 0 0 1 1.162 2.827 3.587 3.587 0 0 1-1.162 2.828 4.16 4.16 0 0 1-5.48 0 3.58306 3.58306 0 0 1-1.162-2.828 3.585 3.585 0 0 1 1.162-2.827zm-18.874 8.263a9.836 9.836 0 0 1 2.521-7.102q2.521-2.63 7.475-2.63a12.65911 12.65911 0 0 1 3.047.307 14.74718 14.74718 0 0 1 2.039.657l-1.14 5.13a6.2537 6.2537 0 0 0-1.557-.438 11.34879 11.34879 0 0 0-1.73-.132 5.32371 5.32371 0 0 0-1.996.329 3.08 3.08 0 0 0-1.271.898 3.47723 3.47723 0 0 0-.658 1.36 7.05618 7.05618 0 0 0-.197 1.71v1.14h8.067v5.435h-8.067v17.624h-6.533zM152.01 31.75a4.158 4.158 0 0 1 5.48 0 3.587 3.587 0 0 1 1.162 2.827 3.585 3.585 0 0 1-1.162 2.828 4.16 4.16 0 0 1-5.48 0 3.583 3.583 0 0 1-1.161-2.828 3.584 3.584 0 0 1 1.161-2.827zm-20.188 3.748l6.533-1.052v6.795h7.847v5.437h-7.847v8.11a6.45009 6.45009 0 0 0 .723 3.288q.723 1.228 2.915 1.227a12.46358 12.46358 0 0 0 2.17-.197 11.13575 11.13575 0 0 0 2.039-.548l.92 5.086a18.47717 18.47717 0 0 1-2.63.833 15.3319 15.3319 0 0 1-3.55.35 11.688 11.688 0 0 1-4.429-.723 6.944 6.944 0 0 1-2.806-2.016 7.502 7.502 0 0 1-1.468-3.135 18.47722 18.47722 0 0 1-.417-4.077zm-18.281 6.97a39.29136 39.29136 0 0 1 4.143-1.161 23.8834 23.8834 0 0 1 5.326-.548q.527 0 1.272.066t1.49.175q.746.11 1.491.263a7.09657 7.09657 0 0 1 1.271.373l-1.096 5.392q-.877-.219-2.06-.46a12.77642 12.77642 0 0 0-2.543-.241 11.87344 11.87344 0 0 0-1.469.11 8.63045 8.63045 0 0 0-1.293.24v17.624h-6.532zm-25.757 5.108a11.507 11.507 0 0 1 2.477-3.836 10.30017 10.30017 0 0 1 3.53-2.324 11.04987 11.04987 0 0 1 4.099-.789 10.19 10.19 0 0 1 7.76 3.004q2.849 3.003 2.849 8.833 0 .57-.044 1.25t-.087 1.205H93.55a4.338 4.338 0 0 0 1.885 3.201 7.577 7.577 0 0 0 4.471 1.183 18.88321 18.88321 0 0 0 3.53-.328 13.29247 13.29247 0 0 0 2.827-.811l.877 5.305a9.02727 9.02727 0 0 1-1.403.525 18.30932 18.30932 0 0 1-1.95.46q-1.076.198-2.302.33a23.01476 23.01476 0 0 1-2.456.131 14.52886 14.52886 0 0 1-5.414-.92 10.5341 10.5341 0 0 1-3.814-2.521 10.00008 10.00008 0 0 1-2.236-3.793 15.01883 15.01883 0 0 1-.723-4.734 14.0961 14.0961 0 0 1 .942-5.37zm-20.956.482a11.029 11.029 0 0 1 6.072-6.466 12.298 12.298 0 0 1 4.998-.965 16.13158 16.13158 0 0 1 3.376.33 16.47035 16.47035 0 0 1 2.981.942l-1.359 5.217a16.50157 16.50157 0 0 0-2.017-.614 10.53625 10.53625 0 0 0-2.455-.263 5.175 5.175 0 0 0-4.318 1.798 7.4 7.4 0 0 0-1.425 4.733 7.662 7.662 0 0 0 1.337 4.823q1.337 1.71 4.67 1.71a15.95177 15.95177 0 0 0 2.542-.22 10.77149 10.77149 0 0 0 2.499-.701l.92 5.348a15.32115 15.32115 0 0 1-2.849.833 18.82852 18.82852 0 0 1-3.77.351 14.19515 14.19515 0 0 1-5.437-.943 10.231 10.231 0 0 1-3.748-2.564 9.993 9.993 0 0 1-2.148-3.836 16.26375 16.26375 0 0 1-.68-4.8 13.58279 13.58279 0 0 1 .811-4.714zM17.154 389.35V84.777h270.788V389.35z" class="cls-2"/><path d="M126.418 336.541a3.73188 3.73188 0 0 0-1.291-1.024 4.069 4.069 0 0 0-1.915-.4 4.239 4.239 0 0 0-1.915.4 3.72026 3.72026 0 0 0-1.336.98 4.76421 4.76421 0 0 0-.846 1.47 10.26668 10.26668 0 0 0-.4 1.647h8.772a6.2202 6.2202 0 0 0-.311-1.647 3.67314 3.67314 0 0 0-.758-1.426zm71.061 0a3.733 3.733 0 0 0-1.292-1.024 4.06817 4.06817 0 0 0-1.915-.4 4.239 4.239 0 0 0-1.915.4 3.72 3.72 0 0 0-1.336.98 4.76306 4.76306 0 0 0-.846 1.47 10.26056 10.26056 0 0 0-.4 1.647h8.772a6.22124 6.22124 0 0 0-.311-1.647 3.67288 3.67288 0 0 0-.757-1.426zm-101.054-1.157a8.0848 8.0848 0 0 0-2.048.267 5.78816 5.78816 0 0 0-1.603.668v12.068q.49.09 1.247.178.757.045 1.647.045a4.768 4.768 0 0 0 4.097-1.87 8.12993 8.12993 0 0 0 1.38-4.944q0-6.412-4.72-6.412zm145.934 1.157a3.732 3.732 0 0 0-1.292-1.024 4.07 4.07 0 0 0-1.914-.4 4.23908 4.23908 0 0 0-1.915.4 3.72018 3.72018 0 0 0-1.336.98 4.76715 4.76715 0 0 0-.847 1.47 10.2741 10.2741 0 0 0-.4 1.647h8.773a6.22129 6.22129 0 0 0-.312-1.647 3.674 3.674 0 0 0-.757-1.426z" class="cls-1"/><path d="M17.154 84.777V389.35h270.788V84.777zm89.619 217.561l-45.509-56.583q-.382-.478-.715-.992a12.385 12.385 0 0 1-1.707-9.561l16.221-70.567a12.49 12.49 0 0 1 6.803-8.46l65.749-31.415a12.671 12.671 0 0 1 10.914 0l65.758 31.399a12.49007 12.49007 0 0 1 6.802 8.459l16.246 70.567a12.393 12.393 0 0 1-2.43 10.553l-45.492 56.592a12.612 12.612 0 0 1-9.83 4.684l-72.98.016a12.612 12.612 0 0 1-9.83-4.692zm-57.605 51.348q-.713-1.157-1.648-2.538-.89-1.425-1.915-2.806a32.36577 32.36577 0 0 0-2.182-2.716 16.98038 16.98038 0 0 0-2.227-2.182v10.242h-6.635v-33.488l6.635-1.069v19.595q.98-1.07 2.004-2.227 1.069-1.158 2.049-2.271.98-1.158 1.826-2.182.89-1.024 1.514-1.782h7.881q-2.36 2.717-4.631 5.21-2.227 2.45-4.899 5.077a29.19114 29.19114 0 0 1 2.761 2.895q1.425 1.648 2.761 3.429t2.45 3.563q1.112 1.78 1.87 3.25zm30.698-.801a34.67623 34.67623 0 0 1-4.364.89 34.11124 34.11124 0 0 1-5.61.446 13.5029 13.5029 0 0 1-4.988-.802 7.65108 7.65108 0 0 1-3.118-2.226 8.97507 8.97507 0 0 1-1.647-3.474 18.56143 18.56143 0 0 1-.49-4.409v-13.048h6.635v12.247a9.491 9.491 0 0 0 .846 4.631 3.366 3.366 0 0 0 3.162 1.425q.712 0 1.514-.044.802-.09 1.425-.179v-18.08h6.635zm27.203-5.834a10.4731 10.4731 0 0 1-2.36 3.874 10.71008 10.71008 0 0 1-3.83 2.494 14.72816 14.72816 0 0 1-5.166.846q-1.203 0-2.539-.133-1.291-.09-2.582-.268-1.247-.178-2.405-.4-1.158-.268-2.049-.535v-32.73l6.636-1.07v11.668a12.43083 12.43083 0 0 1 2.315-.757 11.89844 11.89844 0 0 1 2.583-.267 10.34687 10.34687 0 0 1 4.409.89 8.42809 8.42809 0 0 1 3.206 2.45 11.0798 11.0798 0 0 1 1.96 3.874 17.33381 17.33381 0 0 1 .668 4.987 14.45505 14.45505 0 0 1-.846 5.077zm26.786-4.097q-.044.668-.089 1.202h-15.052a4.41 4.41 0 0 0 1.915 3.251 7.69594 7.69594 0 0 0 4.543 1.203 20.131 20.131 0 0 0 3.562-.312 14.30818 14.30818 0 0 0 2.895-.846l.89 5.388a9.1664 9.1664 0 0 1-1.425.535 15.57127 15.57127 0 0 1-2.004.445q-1.068.223-2.315.356a23.40658 23.40658 0 0 1-2.494.134 14.9393 14.9393 0 0 1-5.522-.935 11.13029 11.13029 0 0 1-3.874-2.539 10.77791 10.77791 0 0 1-2.272-3.874 15.698 15.698 0 0 1-.712-4.81 14.45385 14.45385 0 0 1 .935-5.432 11.9252 11.9252 0 0 1 2.539-3.92 10.51979 10.51979 0 0 1 3.562-2.36 11.397 11.397 0 0 1 4.186-.801 10.30794 10.30794 0 0 1 7.882 3.073q2.895 3.028 2.895 8.95 0 .58-.045 1.292zm19.282-6.813q-.89-.223-2.093-.446a11.89593 11.89593 0 0 0-2.583-.267 10.47281 10.47281 0 0 0-1.514.134 7.5236 7.5236 0 0 0-1.291.222v17.902h-6.636V331.51a37.29612 37.29612 0 0 1 4.186-1.158 23.64358 23.64358 0 0 1 5.433-.578 11.325 11.325 0 0 1 1.292.089 13.16208 13.16208 0 0 1 1.514.178 13.50652 13.50652 0 0 1 1.514.267 6.18181 6.18181 0 0 1 1.291.356zm24.888 17.545h-6.635v-12.424a8.945 8.945 0 0 0-.846-4.542 3.451 3.451 0 0 0-3.162-1.336 13.75416 13.75416 0 0 0-1.514.089q-.802.044-1.425.133v18.08h-6.636v-22.622a34.68347 34.68347 0 0 1 4.365-.89 34.10914 34.10914 0 0 1 5.61-.446 13.14642 13.14642 0 0 1 4.944.802 7.27909 7.27909 0 0 1 3.162 2.182 8.589 8.589 0 0 1 1.647 3.384 18.01169 18.01169 0 0 1 .49 4.364zm26.89-10.732q-.044.668-.089 1.202h-15.051a4.41 4.41 0 0 0 1.914 3.251 7.6969 7.6969 0 0 0 4.543 1.203 20.1319 20.1319 0 0 0 3.562-.312 14.30665 14.30665 0 0 0 2.895-.846l.89 5.388a9.16465 9.16465 0 0 1-1.424.535 15.57164 15.57164 0 0 1-2.004.445q-1.07.223-2.316.356a23.40691 23.40691 0 0 1-2.494.134 14.93806 14.93806 0 0 1-5.522-.935 11.131 11.131 0 0 1-3.874-2.539 10.77789 10.77789 0 0 1-2.271-3.874 15.696 15.696 0 0 1-.713-4.81 14.45424 14.45424 0 0 1 .935-5.432 11.92546 11.92546 0 0 1 2.539-3.92 10.52013 10.52013 0 0 1 3.562-2.36 11.397 11.397 0 0 1 4.186-.801 10.308 10.308 0 0 1 7.882 3.073q2.895 3.028 2.895 8.95 0 .58-.044 1.292zm17.813 10.91a15.56465 15.56465 0 0 1-3.607.357 12.208 12.208 0 0 1-4.498-.713 7.34522 7.34522 0 0 1-2.85-2.048 8.02994 8.02994 0 0 1-1.514-3.207 19.79993 19.79993 0 0 1-.401-4.141v-19.683l6.635-1.069v6.902h7.972v5.522h-7.972v8.239a6.723 6.723 0 0 0 .713 3.34q.757 1.247 2.983 1.247a13.7974 13.7974 0 0 0 2.182-.178 12.53106 12.53106 0 0 0 2.093-.58l.936 5.166a18.88061 18.88061 0 0 1-2.672.846zm27.068-10.91q-.045.668-.09 1.202h-15.051a4.40993 4.40993 0 0 0 1.915 3.251 7.69608 7.69608 0 0 0 4.542 1.203 20.13193 20.13193 0 0 0 3.562-.312 14.3083 14.3083 0 0 0 2.895-.846l.89 5.388a9.16123 9.16123 0 0 1-1.424.535 15.57112 15.57112 0 0 1-2.004.445q-1.07.223-2.316.356a23.39084 23.39084 0 0 1-2.494.134 14.938 14.938 0 0 1-5.522-.935 11.131 11.131 0 0 1-3.874-2.539 10.77787 10.77787 0 0 1-2.271-3.874 15.69569 15.69569 0 0 1-.713-4.81 14.45393 14.45393 0 0 1 .936-5.432 11.92617 11.92617 0 0 1 2.538-3.92 10.52 10.52 0 0 1 3.562-2.36 11.397 11.397 0 0 1 4.186-.801 10.308 10.308 0 0 1 7.883 3.073q2.894 3.028 2.894 8.95 0 .58-.044 1.292zm19.192 9.574q-2.583 1.782-7.347 1.782a21.46407 21.46407 0 0 1-5.21-.535 21.16089 21.16089 0 0 1-2.85-.89l1.113-5.389a23.48844 23.48844 0 0 0 3.473 1.07 17.90231 17.90231 0 0 0 3.518.355 6.62354 6.62354 0 0 0 2.583-.356 1.376 1.376 0 0 0 .757-1.38 1.643 1.643 0 0 0-.98-1.38 17.15141 17.15141 0 0 0-2.983-1.381q-1.559-.58-2.85-1.203a8.76738 8.76738 0 0 1-2.138-1.47 6.27106 6.27106 0 0 1-1.38-2.092 7.66733 7.66733 0 0 1-.49-2.895 6.26 6.26 0 0 1 2.449-5.21 10.65491 10.65491 0 0 1 6.724-1.915 20.40665 20.40665 0 0 1 4.097.4 17.91163 17.91163 0 0 1 3.118.802l-1.158 5.166a23.792 23.792 0 0 0-2.539-.712 13.37881 13.37881 0 0 0-3.028-.312q-3.117 0-3.117 1.737a1.79211 1.79211 0 0 0 .134.712 1.66712 1.66712 0 0 0 .534.624q.4.267 1.069.623.712.312 1.78.713a25.17471 25.17471 0 0 1 3.608 1.603 7.56365 7.56365 0 0 1 2.227 1.692 4.73687 4.73687 0 0 1 1.158 2.004 8.48853 8.48853 0 0 1 .356 2.583 5.939 5.939 0 0 1-2.628 5.255z" class="cls-1"/><path d="M101.901 48.826a4.06705 4.06705 0 0 0-.745-1.403 3.979 3.979 0 0 0-1.272-1.009 4.142 4.142 0 0 0-1.907-.394 4.38514 4.38514 0 0 0-1.885.372 3.9 3.9 0 0 0-1.315.987 4.41819 4.41819 0 0 0-.811 1.425 9.30994 9.30994 0 0 0-.417 1.644h8.637a6.79041 6.79041 0 0 0-.285-1.622zm128.876 10.477q.877 0 1.622-.065.746-.066 1.228-.154v-11.88a5.69309 5.69309 0 0 0-1.6-.658 7.71727 7.71727 0 0 0-1.995-.263q-4.648 0-4.647 6.313a8 8 0 0 0 1.36 4.866 4.692 4.692 0 0 0 4.032 1.841zM208.51 48.826a4.07011 4.07011 0 0 0-.745-1.403 3.97531 3.97531 0 0 0-1.271-1.009 4.142 4.142 0 0 0-1.907-.394 4.387 4.387 0 0 0-1.885.372 3.8961 3.8961 0 0 0-1.315.987 4.4058 4.4058 0 0 0-.811 1.425 9.34165 9.34165 0 0 0-.417 1.644h8.637a6.79142 6.79142 0 0 0-.285-1.622z" class="cls-2"/><path d="M68.845 61.408a10.231 10.231 0 0 0 3.748 2.564 14.195 14.195 0 0 0 5.437.943 18.82654 18.82654 0 0 0 3.77-.35 15.319 15.319 0 0 0 2.85-.834l-.921-5.348a10.76983 10.76983 0 0 1-2.5.701 15.94924 15.94924 0 0 1-2.542.22q-3.332 0-4.669-1.71a7.662 7.662 0 0 1-1.337-4.824 7.4 7.4 0 0 1 1.425-4.734 5.175 5.175 0 0 1 4.318-1.798 10.53733 10.53733 0 0 1 2.455.263 16.49982 16.49982 0 0 1 2.017.614l1.359-5.217a16.4702 16.4702 0 0 0-2.981-.943 16.13179 16.13179 0 0 0-3.376-.329 12.298 12.298 0 0 0-4.998.965 11.029 11.029 0 0 0-6.072 6.466 13.58314 13.58314 0 0 0-.81 4.713 16.26324 16.26324 0 0 0 .679 4.8 9.993 9.993 0 0 0 2.148 3.837zm20.956.066a10.534 10.534 0 0 0 3.814 2.52 14.52887 14.52887 0 0 0 5.414.921 23.01476 23.01476 0 0 0 2.456-.131q1.226-.132 2.301-.33a18.30707 18.30707 0 0 0 1.951-.46 9.02727 9.02727 0 0 0 1.403-.525l-.877-5.305a13.29173 13.29173 0 0 1-2.828.81 18.88292 18.88292 0 0 1-3.529.33 7.576 7.576 0 0 1-4.471-1.184 4.338 4.338 0 0 1-1.886-3.2h14.819q.043-.526.087-1.206.043-.68.044-1.25 0-5.83-2.85-8.833a10.19 10.19 0 0 0-7.76-3.003 11.04978 11.04978 0 0 0-4.098.789 10.3 10.3 0 0 0-3.53 2.323 11.50687 11.50687 0 0 0-2.477 3.836 14.0961 14.0961 0 0 0-.942 5.37 15.01979 15.01979 0 0 0 .723 4.735 10 10 0 0 0 2.236 3.793zm4.165-12.67a4.41687 4.41687 0 0 1 .81-1.425 3.89988 3.89988 0 0 1 1.316-.987 4.386 4.386 0 0 1 1.885-.372 4.14191 4.14191 0 0 1 1.907.394 3.97891 3.97891 0 0 1 1.272 1.009 4.06712 4.06712 0 0 1 .745 1.403 6.78953 6.78953 0 0 1 .285 1.622H93.55a9.31027 9.31027 0 0 1 .417-1.644zm26.107-2.127a8.63045 8.63045 0 0 1 1.293-.24 11.87358 11.87358 0 0 1 1.469-.11 12.77591 12.77591 0 0 1 2.543.24q1.184.242 2.06.461l1.096-5.392a7.09671 7.09671 0 0 0-1.271-.373q-.746-.153-1.49-.263-.747-.109-1.491-.175-.746-.066-1.272-.066a23.8839 23.8839 0 0 0-5.326.548 39.29118 39.29118 0 0 0-4.143 1.162V64.3h6.532zm13.634 15.411a6.944 6.944 0 0 0 2.806 2.016 11.68786 11.68786 0 0 0 4.428.724 15.33191 15.33191 0 0 0 3.551-.351 18.47689 18.47689 0 0 0 2.63-.833l-.92-5.086a11.13532 11.13532 0 0 1-2.039.548 12.46349 12.46349 0 0 1-2.17.197q-2.193 0-2.915-1.227a6.45 6.45 0 0 1-.723-3.288v-8.11h7.847V41.24h-7.847v-6.795l-6.533 1.052v19.378a18.47722 18.47722 0 0 0 .417 4.077 7.502 7.502 0 0 0 1.468 3.135zm21.043-23.653a3.995 3.995 0 0 0 2.74-1.03 3.585 3.585 0 0 0 1.162-2.828 3.587 3.587 0 0 0-1.162-2.827 4.158 4.158 0 0 0-5.48 0 3.584 3.584 0 0 0-1.161 2.827 3.583 3.583 0 0 0 1.161 2.828 3.994 3.994 0 0 0 2.74 1.03zm-3.244 2.806h6.532v23.06h-6.532zm19.202 5.436h8.067v-5.436h-8.067v-1.14a7.05606 7.05606 0 0 1 .197-1.71 3.47705 3.47705 0 0 1 .658-1.359 3.07993 3.07993 0 0 1 1.271-.898 5.324 5.324 0 0 1 1.995-.33 11.35165 11.35165 0 0 1 1.731.132 6.25416 6.25416 0 0 1 1.557.439l1.14-5.13a14.74853 14.74853 0 0 0-2.039-.657 12.65911 12.65911 0 0 0-3.047-.307q-4.955 0-7.475 2.63a9.836 9.836 0 0 0-2.52 7.102v24.288h6.532zm15.082-8.242a3.997 3.997 0 0 0 2.74-1.03 3.587 3.587 0 0 0 1.161-2.828 3.589 3.589 0 0 0-1.162-2.827 4.16 4.16 0 0 0-5.48 0 3.585 3.585 0 0 0-1.162 2.827 3.583 3.583 0 0 0 1.162 2.828 3.995 3.995 0 0 0 2.74 1.03zm-3.245 2.806h6.532v23.06h-6.532zm13.865 20.233a10.53593 10.53593 0 0 0 3.815 2.52 14.52477 14.52477 0 0 0 5.414.921 23.012 23.012 0 0 0 2.455-.131q1.227-.132 2.302-.33a18.29416 18.29416 0 0 0 1.95-.46 9.02774 9.02774 0 0 0 1.404-.525l-.877-5.305a13.29732 13.29732 0 0 1-2.828.81 18.88731 18.88731 0 0 1-3.529.33 7.578 7.578 0 0 1-4.472-1.184 4.34 4.34 0 0 1-1.885-3.2h14.818q.044-.526.088-1.206.043-.68.044-1.25 0-5.83-2.85-8.833a10.19 10.19 0 0 0-7.76-3.003 11.05393 11.05393 0 0 0-4.099.789 10.30484 10.30484 0 0 0-3.53 2.323 11.51091 11.51091 0 0 0-2.476 3.836 14.09572 14.09572 0 0 0-.942 5.37 15.01713 15.01713 0 0 0 .723 4.735 9.99828 9.99828 0 0 0 2.236 3.793zm4.166-12.67a4.40623 4.40623 0 0 1 .81-1.425 3.896 3.896 0 0 1 1.316-.987 4.38713 4.38713 0 0 1 1.885-.372 4.14187 4.14187 0 0 1 1.907.394 3.97514 3.97514 0 0 1 1.271 1.009 4.0703 4.0703 0 0 1 .746 1.403 6.7916 6.7916 0 0 1 .285 1.622h-8.637a9.34376 9.34376 0 0 1 .417-1.644zm21.302 12.845a10.20427 10.20427 0 0 0 3.77 2.39 14.504 14.504 0 0 0 5.086.832q1.183 0 2.476-.11t2.543-.284q1.25-.176 2.39-.417 1.14-.24 2.017-.504V30.281l-6.533 1.052v10.434a13.195 13.195 0 0 0-2.17-.745 10.27048 10.27048 0 0 0-2.433-.263 10.81015 10.81015 0 0 0-4.363.833 8.634 8.634 0 0 0-3.222 2.411 11.02226 11.02226 0 0 0-2.016 3.836 17.02459 17.02459 0 0 0-.702 5.064 14.36888 14.36888 0 0 0 .812 4.976 10.3538 10.3538 0 0 0 2.345 3.77zm8.154-15.366a7.71672 7.71672 0 0 1 1.995.263 5.69274 5.69274 0 0 1 1.6.658v11.88q-.483.089-1.228.154-.745.066-1.622.065a4.692 4.692 0 0 1-4.033-1.84 8.00013 8.00013 0 0 1-1.36-4.867q0-6.313 4.648-6.313z" class="cls-1"/><path d="M185.06 243.971a40.53993 40.53993 0 0 0 6.433-11.586l-20.434-3.454-.033.042-.02-.004a3.435 3.435 0 0 0-3.772 4.739l.007.017-.025.035 7.932 19.159a40.32517 40.32517 0 0 0 9.911-8.948zm-5.84 6.018l.032-.027zm4.767-4.672l.066-.077zm-65.683-48.114a40.5 40.5 0 0 0-5.73 25.56l19.755-5.701.016-.068.02-.005a3.435 3.435 0 0 0 1.348-5.904l-.014-.013.016-.084zm53.026 15.604a3.428 3.428 0 0 0 2.44 4.081l.02.005.018.085 19.853 5.718a41.241 41.241 0 0 0-5.906-25.485l-15.327 13.718.007.042-.013.013a3.39793 3.39793 0 0 0-1.091 1.823zm-40.225 40.036l7.848-18.965-.06-.076.009-.018a3.437 3.437 0 0 0-3.107-4.789h-.042a3.53018 3.53018 0 0 0-.633.058l-.02.004-.033-.042-20.257 3.438a40.722 40.722 0 0 0 16.295 20.39zm31.112 5.457q2.00661-.453 3.961-1.103l-9.985-18.044h-.077l-.01-.018a3.467 3.467 0 0 0-3.021-1.808q-.063-.00048-.126.002a3.452 3.452 0 0 0-2.906 1.815l-.008.018h-.02l-9.959 18.01a40.768 40.768 0 0 0 22.151 1.129zm-12.287-46.223l-3.924 4.885 1.406 6.107 5.672 2.728 5.655-2.72 1.406-6.107-3.915-4.893h-6.3zm26.563 39.984l.104-.072zm-5.72-70.183a40.60352 40.60352 0 0 0-12.717-3.76l1.166 20.55.017.01v.019a3.441 3.441 0 0 0 5.463 2.623l.015-.011.06.025 16.77-11.89a40.85815 40.85815 0 0 0-10.774-7.566zm-46.285 7.558l16.877 11.964.035-.016.016.012a3.437 3.437 0 0 0 5.455-2.632v-.02l.085-.042 1.165-20.584a41.6181 41.6181 0 0 0-4.153.718 40.606 40.606 0 0 0-19.48 10.6zm57.254 58.274l-.023.023z" class="cls-2"/><path d="M189.583 307.014a12.612 12.612 0 0 0 9.83-4.684l45.492-56.592a12.39294 12.39294 0 0 0 2.43-10.553l-16.246-70.567a12.49 12.49 0 0 0-6.802-8.46l-65.758-31.398a12.671 12.671 0 0 0-10.914 0l-65.75 31.415a12.49 12.49 0 0 0-6.802 8.46l-16.22 70.567a12.385 12.385 0 0 0 1.706 9.56q.333.514.715.993l45.509 56.583a12.612 12.612 0 0 0 9.83 4.692zm-63.178-42.781l-.005-.013.006-.012.703-1.689a51.265 51.265 0 0 1-22.676-28.314l-1.698.292-.011-.006q-.08726-.04956-.174-.1a3.90987 3.90987 0 0 0-2.069-.695 36.30081 36.30081 0 0 0-6.732 1.973l-.12.043c-.407.156-.791.32-1.163.48a16.59943 16.59943 0 0 1-2.372.875c-.2.054-.46.109-.71.162l-.309.065a.27394.27394 0 0 0-.032.011.33371.33371 0 0 1-.044.014l-.033.005-.026.004a3.983 3.983 0 1 1-1.764-7.735l.028-.007.031-.01.015-.003.02-.005.31-.075c.26-.063.528-.129.741-.169a16.07266 16.07266 0 0 1 2.492-.233c.415-.017.844-.033 1.287-.07l.094-.01a36.41948 36.41948 0 0 0 6.954-1.15 4.636 4.636 0 0 0 1.515-1.487l.16-.208.005-.008.011-.003 1.62-.471a50.961 50.961 0 0 1 8.024-35.473l-1.249-1.115-.002-.012q-.014-.09044-.027-.181a3.923 3.923 0 0 0-.754-2.072 36.987 36.987 0 0 0-5.846-4.106q-.55456-.32143-1.123-.618a16.14344 16.14344 0 0 1-2.142-1.293c-.172-.127-.384-.3-.588-.469q-.11411-.094-.229-.187l-.025-.018-.034-.024a4.635 4.635 0 0 1-1.711-2.85 3.753 3.753 0 0 1 .74-3 3.803 3.803 0 0 1 3.015-1.402c.05 0 .099 0 .148.002a4.73492 4.73492 0 0 1 2.762 1.042l.237.186c.217.17.463.362.638.512a16.49191 16.49191 0 0 1 1.749 1.81c.266.306.543.624.843.943l.068.069a36.415 36.415 0 0 0 5.232 4.719 2.716 2.716 0 0 0 2.034.264c.094-.015.188-.03.281-.042l.013-.002.012.008c.233.172.972.702 1.396.992a50.647 50.647 0 0 1 25.711-14.68 51.34966 51.34966 0 0 1 7.089-1.09l.093-1.65.01-.008a4.267 4.267 0 0 0 1.267-2.018 36.53038 36.53038 0 0 0-.43-7.06l-.007-.069c-.062-.433-.14-.848-.213-1.25a16.29914 16.29914 0 0 1-.326-2.494c-.007-.193-.002-.437.003-.672l.006-.34-.005-.046a.60842.60842 0 0 1-.004-.062 3.99 3.99 0 1 1 7.938 0c0 .117.004.248.005.382.006.26.011.528.003.738a16.29611 16.29611 0 0 1-.325 2.496c-.075.4-.151.815-.213 1.25l-.026.209a35.92713 35.92713 0 0 0-.42 6.921 2.715 2.715 0 0 0 1.063 1.748c.073.066.144.132.215.199l.01.01v.013c.011.297.057 1.218.09 1.728a51.03594 51.03594 0 0 1 17.81 4.953 51.58135 51.58135 0 0 1 14.83 10.817l1.484-1.058.012.001c.06.003.13.009.205.014a3.90691 3.90691 0 0 0 2.164-.27 35.9853 35.9853 0 0 0 5.164-4.66l.135-.137c.294-.313.568-.626.832-.928a16.8744 16.8744 0 0 1 1.768-1.823c.174-.15.406-.331.631-.507l.245-.192a3.99 3.99 0 1 1 4.943 6.208l-.275.225c-.206.17-.418.346-.592.474a15.83048 15.83048 0 0 1-2.14 1.287q-.5738.299-1.134.623a37.10247 37.10247 0 0 0-5.847 4.108 2.722 2.722 0 0 0-.707 1.92c-.007.097-.013.192-.022.287v.013l-.01.009c-.106.097-.336.303-.603.54-.268.24-.563.503-.772.693a51.159 51.159 0 0 1 8.192 35.389l1.573.457.007.01.114.165a3.918 3.918 0 0 0 1.569 1.53 36.50715 36.50715 0 0 0 6.97 1.15l.077.008c.442.037.87.054 1.284.07a16.01839 16.01839 0 0 1 2.493.234c.205.038.467.103.72.166.151.037.299.074.426.103a3.983 3.983 0 1 1-1.764 7.734l-.026-.003-.033-.005a.29221.29221 0 0 1-.045-.015.25729.25729 0 0 0-.031-.01q-.18765-.04077-.376-.078-.32343-.0614-.643-.141a16.177 16.177 0 0 1-2.35-.871q-.58722-.259-1.185-.493l-.109-.038a36.28638 36.28638 0 0 0-6.746-1.978q-.11176-.00909-.224-.009a2.789 2.789 0 0 0-1.712.654c-.082.056-.161.112-.243.166l-.011.007-.014-.002q-.82339-.15673-1.651-.29a51.255 51.255 0 0 1-22.669 28.516c.058.142.127.326.198.52a5.97244 5.97244 0 0 0 .44 1.033l.013.015-.006.02q-.05306.13875-.11.276a2.69 2.69 0 0 0-.192 2.022 36.85974 36.85974 0 0 0 3.486 6.24c.247.367.498.71.741 1.042a16.16789 16.16789 0 0 1 1.37 2.097c.107.2.232.465.354.722l.16.338a4.212 4.212 0 0 1-1.689 5.637 3.76209 3.76209 0 0 1-3.088.056 4.628 4.628 0 0 1-2.397-2.3l-.14-.285q-.18279-.35825-.348-.725a16.4996 16.4996 0 0 1-.794-2.397c-.108-.392-.22-.797-.352-1.214l-.03-.089a36.41873 36.41873 0 0 0-2.666-6.522 2.727 2.727 0 0 0-1.717-1.12c-.092-.028-.183-.055-.274-.084l-.011-.004-.007-.011c-.066-.113-.226-.404-.396-.712-.15-.273-.313-.566-.431-.777a50.965 50.965 0 0 1-36.288-.093l-.884 1.602-.013.004a3.16479 3.16479 0 0 0-1.68.815 14.86815 14.86815 0 0 0-2.2 4.722c-.261.766-.53 1.56-.84 2.338-.134.421-.245.832-.353 1.23a16.11882 16.11882 0 0 1-.783 2.379c-.085.194-.207.438-.325.673l-.16.32-.002.015a.05492.05492 0 0 1-.013.016 4.445 4.445 0 0 1-3.902 2.586 3.61009 3.61009 0 0 1-1.572-.356 4.21 4.21 0 0 1-1.69-5.636c.056-.114.117-.247.18-.384.112-.24.227-.49.326-.677a16.45489 16.45489 0 0 1 1.379-2.113c.24-.33.49-.67.733-1.035a38.249 38.249 0 0 0 3.56-6.396 3.881 3.881 0 0 0-.35-2.2z" class="cls-2"/><path d="M123.196 272.83c-.243.363-.493.705-.734 1.034a16.45593 16.45593 0 0 0-1.378 2.113c-.1.188-.214.437-.326.678-.063.136-.124.269-.18.383a4.21 4.21 0 0 0 1.69 5.636 3.61009 3.61009 0 0 0 1.572.356 4.445 4.445 0 0 0 3.902-2.586.05492.05492 0 0 0 .013-.016l.003-.014c.048-.1.103-.209.158-.32.119-.236.24-.48.326-.674a16.12074 16.12074 0 0 0 .783-2.378c.108-.399.219-.81.352-1.23.31-.78.58-1.572.84-2.34a14.86907 14.86907 0 0 1 2.202-4.721 3.16494 3.16494 0 0 1 1.678-.815l.014-.004.884-1.602a50.965 50.965 0 0 0 36.288.093c.118.21.28.504.431.778.17.307.33.598.396.71l.007.012.011.004c.09.029.182.056.274.084a2.727 2.727 0 0 1 1.717 1.12 36.41982 36.41982 0 0 1 2.667 6.522l.03.09c.132.416.243.821.35 1.213a16.49884 16.49884 0 0 0 .795 2.397c.09.208.22.47.347.725.05.1.098.197.14.285a4.628 4.628 0 0 0 2.398 2.3 3.76209 3.76209 0 0 0 3.088-.056 4.212 4.212 0 0 0 1.69-5.637q-.08146-.16854-.161-.338c-.122-.257-.247-.523-.353-.722a16.16884 16.16884 0 0 0-1.371-2.097q-.38119-.51292-.74-1.042a36.8617 36.8617 0 0 1-3.487-6.24 2.69011 2.69011 0 0 1 .193-2.022c.037-.092.074-.184.109-.277l.006-.018-.012-.016a5.97191 5.97191 0 0 1-.44-1.032c-.073-.195-.141-.38-.2-.52a51.25505 51.25505 0 0 0 22.67-28.517c.508.08 1.365.232 1.65.29l.014.002.012-.007c.082-.054.161-.11.243-.166a2.789 2.789 0 0 1 1.712-.654c.072 0 .147.003.224.01a36.28637 36.28637 0 0 1 6.746 1.977l.11.038c.413.16.806.33 1.185.493a16.17242 16.17242 0 0 0 2.35.87c.182.05.415.096.642.142.13.026.258.052.376.078a.25729.25729 0 0 1 .031.01.29221.29221 0 0 0 .045.015l.033.005.026.003a3.983 3.983 0 1 0 1.764-7.734q-.214-.04942-.427-.103-.35717-.09274-.719-.166a16.01839 16.01839 0 0 0-2.493-.234q-.64271-.02045-1.284-.07l-.078-.008a36.50793 36.50793 0 0 1-6.97-1.15 3.91786 3.91786 0 0 1-1.568-1.53l-.114-.165-.007-.01-1.573-.457a51.16 51.16 0 0 0-8.192-35.389c.209-.19.504-.453.772-.692.267-.238.497-.444.603-.541l.01-.009v-.013c.01-.095.015-.19.022-.286a2.72205 2.72205 0 0 1 .707-1.921 37.10212 37.10212 0 0 1 5.847-4.107c.385-.227.766-.429 1.134-.624a15.83048 15.83048 0 0 0 2.14-1.287c.174-.128.386-.303.592-.474l.275-.225a3.99 3.99 0 1 0-4.943-6.208l-.245.192c-.225.176-.457.357-.63.507a16.8752 16.8752 0 0 0-1.769 1.823c-.264.302-.538.615-.832.928l-.135.138a35.98775 35.98775 0 0 1-5.164 4.659 3.90691 3.90691 0 0 1-2.164.27l-.205-.014h-.012l-1.483 1.057a51.582 51.582 0 0 0-14.832-10.817 51.03567 51.03567 0 0 0-17.81-4.953q-.05285-.86358-.09-1.728v-.014l-.01-.01-.214-.198a2.715 2.715 0 0 1-1.063-1.747 35.92852 35.92852 0 0 1 .42-6.922l.026-.21c.062-.434.138-.848.213-1.25a16.29606 16.29606 0 0 0 .325-2.495c.008-.21.003-.478-.003-.738l-.005-.382a3.99 3.99 0 1 0-7.938 0 .6053.6053 0 0 0 .004.062q.00321.02341.005.047c0 .108-.004.223-.006.339-.005.235-.01.48-.003.672a16.29955 16.29955 0 0 0 .326 2.495c.074.4.151.816.213 1.25l.008.068a36.52926 36.52926 0 0 1 .429 7.06 4.26689 4.26689 0 0 1-1.268 2.018l-.009.009-.093 1.649a51.34966 51.34966 0 0 0-7.089 1.09 50.6469 50.6469 0 0 0-25.711 14.68c-.424-.29-1.163-.82-1.396-.992l-.012-.008-.013.002q-.14031.0188-.28.042a2.716 2.716 0 0 1-2.035-.264 36.41305 36.41305 0 0 1-5.232-4.72l-.068-.068c-.3-.319-.577-.637-.844-.944a16.48948 16.48948 0 0 0-1.748-1.808c-.175-.15-.421-.343-.638-.513l-.237-.186a4.73492 4.73492 0 0 0-2.762-1.042l-.148-.002a3.803 3.803 0 0 0-3.016 1.403 3.753 3.753 0 0 0-.74 3 4.635 4.635 0 0 0 1.712 2.849l.034.024.025.018c.073.058.15.122.229.187.204.168.416.342.588.47a16.14241 16.14241 0 0 0 2.142 1.292c.365.193.741.393 1.123.618a36.98646 36.98646 0 0 1 5.846 4.106 3.92308 3.92308 0 0 1 .754 2.072l.027.18.002.013 1.25 1.115a50.961 50.961 0 0 0-8.024 35.473l-1.62.47-.012.004-.006.009-.16.208a4.63608 4.63608 0 0 1-1.514 1.487 36.41711 36.41711 0 0 1-6.954 1.15l-.094.01c-.444.036-.872.053-1.287.069a16.07391 16.07391 0 0 0-2.492.233c-.213.04-.481.106-.742.17-.107.026-.212.052-.309.074l-.02.005-.015.003-.03.01-.029.008a3.983 3.983 0 1 0 1.764 7.734l.026-.004.033-.005a.33433.33433 0 0 0 .044-.014.27112.27112 0 0 1 .032-.01c.097-.022.202-.044.308-.066.25-.053.51-.108.711-.162a16.59994 16.59994 0 0 0 2.372-.874c.372-.16.756-.325 1.162-.48l.12-.044a36.3021 36.3021 0 0 1 6.733-1.973 3.91012 3.91012 0 0 1 2.07.695q.08624.05046.173.1l.01.006 1.699-.292a51.26491 51.26491 0 0 0 22.676 28.314l-.703 1.689-.006.012.005.013a3.88107 3.88107 0 0 1 .35 2.2 38.2497 38.2497 0 0 1-3.559 6.396zm10.517-61.745a3.435 3.435 0 0 1-1.349 5.904l-.019.005-.016.068-19.755 5.701a40.5 40.5 0 0 1 5.73-25.56l15.411 13.785-.016.084zm1.354 17.93l.034.042.02-.004a3.53036 3.53036 0 0 1 .632-.058h.042a3.437 3.437 0 0 1 3.107 4.789l-.008.018.059.076-7.848 18.965a40.722 40.722 0 0 1-16.295-20.39zm29.65-27.706l-.015.011a3.441 3.441 0 0 1-5.462-2.623l-.001-.02-.017-.009-1.166-20.55a40.85 40.85 0 0 1 23.491 11.327l-16.77 11.889zm-17.761-2.607l-.084.042-.001.02a3.437 3.437 0 0 1-5.455 2.632l-.017-.012-.034.016-16.877-11.964a40.607 40.607 0 0 1 19.48-10.6 41.61526 41.61526 0 0 1 4.153-.718zm3.07 40.46h.019l.008-.018a3.452 3.452 0 0 1 2.906-1.815c.043-.002.084-.002.126-.002a3.467 3.467 0 0 1 3.022 1.808l.009.018h.077l9.985 18.044q-1.95144.64976-3.96 1.104a40.76818 40.76818 0 0 1-22.152-1.13zm8.713-16.085l-5.655 2.72-5.672-2.728-1.406-6.107 3.924-4.885h6.3l3.915 4.893zm8.477 10.683l.026-.035-.008-.017a3.419 3.419 0 0 1 3.772-4.739l.02.004.033-.042 20.434 3.454a40.546 40.546 0 0 1-16.345 20.534zm16.837 11.48l-.066.077zm-11.625-34.311l15.327-13.718a41.241 41.241 0 0 1 5.906 25.485l-19.853-5.718-.017-.085-.02-.005a3.437 3.437 0 0 1-1.35-5.904l.015-.013zm6.824 39.033l-.032.027zm-2.655 2.027l-.104.072zm5.145-4.278l-.023.022z" class="cls-1"/><path fill="#476cb4" d="M52.463 346.873q-1.336-1.781-2.761-3.43a29.19216 29.19216 0 0 0-2.761-2.894q2.672-2.627 4.899-5.076 2.27-2.494 4.63-5.21h-7.88q-.624.756-1.514 1.78-.847 1.025-1.826 2.183-.98 1.113-2.049 2.27-1.024 1.159-2.004 2.227V319.13l-6.635 1.07v33.487h6.635v-10.242a16.97976 16.97976 0 0 1 2.227 2.182 32.36416 32.36416 0 0 1 2.182 2.716q1.024 1.381 1.915 2.806.935 1.38 1.648 2.538h7.615q-.757-1.47-1.87-3.25t-2.45-3.563zm20.768 1.469q-.623.09-1.425.179-.802.044-1.514.044a3.366 3.366 0 0 1-3.162-1.425 9.491 9.491 0 0 1-.846-4.631v-12.247h-6.635v13.048a18.56094 18.56094 0 0 0 .49 4.41 8.9748 8.9748 0 0 0 1.647 3.473 7.65092 7.65092 0 0 0 3.117 2.226 13.5029 13.5029 0 0 0 4.988.802 34.1091 34.1091 0 0 0 5.611-.446 34.67443 34.67443 0 0 0 4.364-.89v-22.623h-6.635zm32.056-15.23a8.428 8.428 0 0 0-3.206-2.449 10.34694 10.34694 0 0 0-4.409-.89 11.8985 11.8985 0 0 0-2.583.267 12.43083 12.43083 0 0 0-2.315.757v-11.668l-6.636 1.07v32.73q.891.267 2.049.535 1.158.222 2.405.4 1.291.179 2.582.268 1.336.133 2.539.133a14.72813 14.72813 0 0 0 5.166-.846 10.71 10.71 0 0 0 3.83-2.494 10.4731 10.4731 0 0 0 2.36-3.874 14.45484 14.45484 0 0 0 .846-5.077 17.33381 17.33381 0 0 0-.668-4.987 11.08 11.08 0 0 0-1.96-3.875zm-5.522 13.627a4.768 4.768 0 0 1-4.097 1.87q-.89 0-1.647-.044-.757-.08893-1.247-.178v-12.068a5.78835 5.78835 0 0 1 1.603-.668 8.08473 8.08473 0 0 1 2.048-.267q4.72 0 4.72 6.412a8.12993 8.12993 0 0 1-1.38 4.943zm23.358-17.1a11.39754 11.39754 0 0 0-4.186.802 10.51989 10.51989 0 0 0-3.562 2.36 11.925 11.925 0 0 0-2.539 3.919 14.45427 14.45427 0 0 0-.935 5.433 15.69822 15.69822 0 0 0 .713 4.809 10.778 10.778 0 0 0 2.27 3.874 11.1297 11.1297 0 0 0 3.875 2.539 14.9399 14.9399 0 0 0 5.522.935 23.40658 23.40658 0 0 0 2.494-.134q1.247-.133 2.315-.356a15.57164 15.57164 0 0 0 2.004-.445 9.1664 9.1664 0 0 0 1.425-.535l-.89-5.388a14.30656 14.30656 0 0 1-2.895.846 20.1319 20.1319 0 0 1-3.562.312 7.69592 7.69592 0 0 1-4.543-1.203 4.40993 4.40993 0 0 1-1.915-3.25h15.052q.045-.535.09-1.203.044-.712.044-1.291 0-5.923-2.895-8.951a10.30793 10.30793 0 0 0-7.882-3.073zm-4.409 9.975a10.26459 10.26459 0 0 1 .401-1.648 4.76421 4.76421 0 0 1 .846-1.47 3.72048 3.72048 0 0 1 1.336-.979 4.239 4.239 0 0 1 1.915-.4 4.069 4.069 0 0 1 1.915.4 3.73188 3.73188 0 0 1 1.291 1.024 3.67284 3.67284 0 0 1 .758 1.425 6.21993 6.21993 0 0 1 .311 1.648zm32.731-9.574a13.16191 13.16191 0 0 0-1.514-.178 11.32558 11.32558 0 0 0-1.292-.09 23.645 23.645 0 0 0-5.433.58 37.30207 37.30207 0 0 0-4.186 1.157v22.177h6.636v-17.902a7.52326 7.52326 0 0 1 1.291-.222 10.4728 10.4728 0 0 1 1.514-.134 11.89782 11.89782 0 0 1 2.583.267q1.202.223 2.093.446l1.113-5.478a6.1812 6.1812 0 0 0-1.291-.356 13.50508 13.50508 0 0 0-1.514-.267zm24.442 2.672a7.27892 7.27892 0 0 0-3.161-2.182 13.14752 13.14752 0 0 0-4.943-.802 34.10777 34.10777 0 0 0-5.611.445 34.68431 34.68431 0 0 0-4.365.891v22.622h6.636v-18.08q.623-.089 1.425-.133a13.75219 13.75219 0 0 1 1.514-.09 3.451 3.451 0 0 1 3.162 1.337 8.945 8.945 0 0 1 .846 4.542v12.424h6.635V340.46a18.01025 18.01025 0 0 0-.49-4.364 8.58914 8.58914 0 0 0-1.648-3.384zm18.296-3.073a11.397 11.397 0 0 0-4.186.802 10.51994 10.51994 0 0 0-3.562 2.36 11.925 11.925 0 0 0-2.539 3.919 14.45408 14.45408 0 0 0-.935 5.433 15.69579 15.69579 0 0 0 .713 4.809 10.778 10.778 0 0 0 2.27 3.874 11.131 11.131 0 0 0 3.875 2.539 14.93929 14.93929 0 0 0 5.522.935 23.40691 23.40691 0 0 0 2.494-.134q1.247-.133 2.316-.356a15.57164 15.57164 0 0 0 2.004-.445 9.16678 9.16678 0 0 0 1.425-.535l-.891-5.388a14.30858 14.30858 0 0 1-2.895.846 20.1319 20.1319 0 0 1-3.562.312 7.6969 7.6969 0 0 1-4.543-1.203 4.41 4.41 0 0 1-1.914-3.25h15.051q.045-.535.09-1.203.044-.712.044-1.291 0-5.923-2.895-8.951a10.308 10.308 0 0 0-7.882-3.073zm-4.408 9.975a10.25826 10.25826 0 0 1 .4-1.648 4.76323 4.76323 0 0 1 .846-1.47 3.72048 3.72048 0 0 1 1.336-.979 4.23906 4.23906 0 0 1 1.915-.4 4.06821 4.06821 0 0 1 1.915.4 3.73283 3.73283 0 0 1 1.292 1.024 3.67294 3.67294 0 0 1 .757 1.425 6.22115 6.22115 0 0 1 .311 1.648zm32.596 8.818a13.79728 13.79728 0 0 1-2.182.178q-2.226 0-2.983-1.247a6.72312 6.72312 0 0 1-.713-3.34v-8.239h7.972v-5.522h-7.972v-6.902l-6.635 1.069v19.683a19.80094 19.80094 0 0 0 .4 4.141 8.02981 8.02981 0 0 0 1.515 3.207 7.34522 7.34522 0 0 0 2.85 2.048 12.208 12.208 0 0 0 4.498.713 15.56465 15.56465 0 0 0 3.607-.357 18.88061 18.88061 0 0 0 2.672-.846l-.936-5.165a12.53251 12.53251 0 0 1-2.093.579zm16.692-18.793a11.39692 11.39692 0 0 0-4.186.802 10.52 10.52 0 0 0-3.562 2.36 11.926 11.926 0 0 0-2.538 3.919 14.45433 14.45433 0 0 0-.936 5.433 15.69609 15.69609 0 0 0 .713 4.809 10.77789 10.77789 0 0 0 2.271 3.874 11.131 11.131 0 0 0 3.874 2.539 14.93929 14.93929 0 0 0 5.522.935 23.399 23.399 0 0 0 2.494-.134q1.247-.133 2.316-.356a15.57164 15.57164 0 0 0 2.004-.445 9.16678 9.16678 0 0 0 1.425-.535l-.89-5.388a14.3083 14.3083 0 0 1-2.895.846 20.13174 20.13174 0 0 1-3.563.312 7.69608 7.69608 0 0 1-4.542-1.203 4.41 4.41 0 0 1-1.915-3.25h15.052q.044-.535.089-1.203.044-.712.044-1.291 0-5.923-2.894-8.951a10.308 10.308 0 0 0-7.883-3.073zm-4.408 9.975a10.2736 10.2736 0 0 1 .4-1.648 4.76715 4.76715 0 0 1 .847-1.47 3.72048 3.72048 0 0 1 1.336-.979 4.23908 4.23908 0 0 1 1.915-.4 4.07 4.07 0 0 1 1.914.4 3.732 3.732 0 0 1 1.292 1.024 3.67373 3.67373 0 0 1 .757 1.425 6.22062 6.22062 0 0 1 .312 1.648zm35.447 3.073a7.56352 7.56352 0 0 0-2.227-1.692 25.17825 25.17825 0 0 0-3.607-1.603q-1.069-.401-1.781-.713-.668-.356-1.07-.623a1.66691 1.66691 0 0 1-.533-.624 1.79211 1.79211 0 0 1-.134-.712q0-1.737 3.117-1.737a13.37878 13.37878 0 0 1 3.028.312 23.792 23.792 0 0 1 2.539.712l1.158-5.166a17.912 17.912 0 0 0-3.118-.801 20.40792 20.40792 0 0 0-4.097-.401 10.65488 10.65488 0 0 0-6.724 1.915 6.26 6.26 0 0 0-2.45 5.21 7.66713 7.66713 0 0 0 .49 2.895 6.27115 6.27115 0 0 0 1.381 2.093 8.76776 8.76776 0 0 0 2.138 1.47q1.291.623 2.85 1.202a17.14834 17.14834 0 0 1 2.983 1.38 1.643 1.643 0 0 1 .98 1.38 1.376 1.376 0 0 1-.757 1.381 6.62354 6.62354 0 0 1-2.583.356 17.90284 17.90284 0 0 1-3.518-.356 23.4892 23.4892 0 0 1-3.473-1.069l-1.114 5.389a21.159 21.159 0 0 0 2.85.89 21.464 21.464 0 0 0 5.21.535q4.766 0 7.348-1.782a5.939 5.939 0 0 0 2.628-5.254 8.48857 8.48857 0 0 0-.356-2.583 4.736 4.736 0 0 0-1.158-2.004z"/><path d="M114.619 432.678l3.309 3.815 5.527-4.866v21.021h5.606v-27.561h-5.45zm27.833 13.312a3.75191 3.75191 0 0 0-2.803 0 3.444 3.444 0 0 0-1.907 1.909 3.73987 3.73987 0 0 0 0 2.803 3.439 3.439 0 0 0 1.907 1.907 3.73994 3.73994 0 0 0 2.803 0 3.44011 3.44011 0 0 0 1.908-1.907 3.74 3.74 0 0 0 0-2.803 3.44706 3.44706 0 0 0-1.908-1.908zm6.734-13.312l3.309 3.815 5.527-4.866v21.021h5.606v-27.561h-5.45z" class="cls-1"/><path d="M9.463 405.852v32.921a34.255 34.255 0 0 0 34.254 34.256h218.1a34.255 34.255 0 0 0 34.255-34.255v-32.922zm119.598 46.796h-5.606v-21.02l-5.527 4.865-3.31-3.815 8.993-7.59h5.45zm15.299-1.94605a3.44015 3.44015 0 0 1-1.908 1.907 3.74018 3.74018 0 0 1-2.803 0 3.43907 3.43907 0 0 1-1.907-1.907 3.73958 3.73958 0 0 1 0-2.803 3.4441 3.4441 0 0 1 1.907-1.908 3.75176 3.75176 0 0 1 2.803 0 3.44705 3.44705 0 0 1 1.908 1.908 3.73958 3.73958 0 0 1 0 2.80298zm19.268 1.94605h-5.606v-21.02l-5.527 4.865-3.31-3.815 8.993-7.59h5.45zm23.05933-1.83771q-2.832 2.476-8.10248 2.476a15.86551 15.86551 0 0 1-7.3888-1.48188V446.797a16.65465 16.65465 0 0 0 7.18244 1.782q5.30805 0 5.30756-4.35095 0-4.1445-5.49512-4.14545a13.63352 13.63352 0 0 0-2.19373.197 16.02546 16.02546 0 0 0-1.95086.422l-2.30628-1.23706 1.03076-13.97278H187.644v4.91363h-9.79071l-.50647 5.38257.6565-.13128a12.94874 12.94874 0 0 1 2.83245-.26264 8.82338 8.82338 0 0 1 6.3299 2.23224 8.02443 8.02443 0 0 1 2.35315 6.11414 8.886 8.886 0 0 1-2.8315 7.06985z" class="cls-2"/></svg>