<svg xmlns="http://www.w3.org/2000/svg" role="img" viewBox="0.41 -2.59 174.42 212.42"><style>svg {enable-background:new 0 0 175.8 208.7}</style><style>.st1{fill:#059bbe}</style><path id="_x35_jYWeV.tif" fill="#f9bb3d" d="M99.9 25.5c0 .7.1 1.5.1 2.1v53.9c0 2.6 0 2.7-2.6 2.7H83.5c-1.3 0-1.9-.3-1.9-1.8V26.5c0-.3.1-.6.1-1h18.2zM77.4 61.7v20.2c0 2.2 0 2.2-2.2 2.2H60.8c-1.5 0-1.9-.5-1.9-1.9v-41c0-1.4.4-2 1.9-2 4.9.1 9.7.1 14.7 0 1.5 0 1.9.5 1.9 1.9v20.6zm-22.5 6.2v14.5c0 1.5-.4 1.9-1.9 1.9-4.9-.1-9.7-.1-14.7 0-1.5 0-1.9-.5-1.9-2V53.4c0-1.4.4-1.9 1.8-1.9H53c1.4 0 1.8.5 1.8 1.9 0 4.8.1 9.6.1 14.5z"/><path id="_x39_kwjjj.tif" d="M4.7 155v-2.5c3.7-11 7.6-22 11.1-33 1.2-3.6 3-4.9 6.9-4.8 43.5.1 86.9.1 130.3 0 3.9 0 5.7 1.2 6.9 4.9 3.5 11 7.4 22 11.1 33v2.5c-1.6.1-3.3.3-4.9.3H9.7c-1.8-.1-3.4-.3-5-.4zM88.2 1.7h61c6.7 0 9.2 2.1 9.2 8.9.1 29.5.1 59 0 88.5 0 6.6-2.5 8.9-9.2 8.9H26.3c-6.7 0-9.2-2.2-9.2-8.9-.1-29.5-.1-59 0-88.5 0-6.6 2.5-8.8 9.2-8.8 20.6-.1 41.2-.1 61.9-.1zm-.5 95.7h57.4c5.5 0 5.6-.2 5.7-5.7v-74c0-5.5-.3-5.8-5.6-5.8H30.5c-5.4 0-5.6.3-5.7 5.7v74c0 5.6.1 5.7 6 5.7 19 .1 37.9.1 56.9.1z" class="st1"/><path d="M6.5 165.9H15c3.2 0 5.7.9 7.4 2.7 1.7 1.8 2.6 4.3 2.6 7.6v18.6c0 3.7-.9 6.5-2.7 8.2-1.8 1.8-4.4 2.7-7.8 2.7h-8v-39.8zm5.8 34.5H15c1.6 0 2.8-.4 3.4-1.2.6-.7 1-2 1-3.7v-19.2c0-1.6-.3-2.8-1-3.6-.6-.9-1.8-1.3-3.4-1.3h-2.7v29zm18.1-34.5h17v5.4H36.1V183H46v5.4h-9.9V200h11.4v5.7h-17v-39.8zm31.9 39.9h-5L49.2 166h6l4.5 27.8h.1l4.6-27.8h6l-8.1 39.8zm30-28.4h-5.7v-1.3c0-1.3-.3-2.5-1-3.4s-1.6-1.4-3.1-1.4c-.7 0-1.4.1-1.9.4-.5.3-.9.6-1.2 1.2-.3.4-.4 1-.5 1.6-.1.6-.2 1.3-.2 1.9 0 .7 0 1.4.1 2 .1.5.2 1 .4 1.4.2.4.5.7 1 1.1.4.3 1 .6 1.7.9l4.4 1.7c1.3.5 2.2 1.1 3.1 1.7.7.6 1.4 1.4 1.8 2.2.4.9.7 1.9.9 3 .1 1.2.2 2.5.2 3.9 0 1.7-.2 3.2-.5 4.7-.3 1.4-.9 2.7-1.6 3.6-.7 1.1-1.8 1.8-3 2.5-1.3.6-2.8.9-4.6.9-1.4 0-2.7-.2-3.9-.7-1.2-.5-2.2-1.2-3.1-2-.9-.9-1.5-1.8-2-3s-.7-2.4-.7-3.7v-2.1h5.7v1.8c0 1.1.3 2 1 2.8.6.9 1.6 1.3 3.1 1.3 1 0 1.7-.1 2.2-.4.5-.3 1-.6 1.2-1.2.3-.5.4-1.2.5-1.9s.1-1.6.1-2.5c0-1.1 0-1.9-.1-2.6-.1-.6-.2-1.2-.4-1.6-.2-.4-.5-.7-1-1s-1-.5-1.7-.9l-4.1-1.7c-2.5-1-4.1-2.4-4.9-4-.9-1.6-1.3-3.7-1.3-6.2 0-1.5.2-2.9.6-4.3.4-1.4 1-2.5 1.8-3.4.7-1 1.8-1.7 3-2.4 1.2-.5 2.7-.9 4.3-.9 1.4 0 2.7.2 3.9.7 1.2.5 2.1 1.2 3 2 .9.9 1.5 1.8 1.9 2.9.4 1.1.6 2.1.6 3.3v3.1zm8-6.1h-6.6v-5.4h19v5.4H106v34.5h-5.7v-34.5zm18-5.4h4.7l8.9 39.8h-5.7l-1.7-8.6h-7.8l-1.7 8.6h-5.7l9-39.8zm2.5 11.5h-.1l-2.8 14.5h5.7l-2.8-14.5zm14.6-6.1h-6.5v-5.4h19v5.4h-6.6v34.5h-5.7v-34.5h-.2zm33.4 6.1h-5.7v-1.3c0-1.3-.3-2.5-1-3.4-.6-1-1.6-1.4-3.1-1.4-.7 0-1.4.1-1.9.4-.5.3-.9.6-1.2 1.2-.3.4-.4 1-.5 1.6s-.2 1.3-.2 1.9c0 .7 0 1.4.1 2 .1.5.2 1 .4 1.4.2.4.5.7 1 1.1.4.3 1 .6 1.7.9l4.4 1.7c1.3.5 2.2 1.1 3.1 1.7.7.6 1.4 1.4 1.8 2.2.4.9.7 1.9.9 3 .1 1.2.2 2.5.2 3.9 0 1.7-.2 3.2-.5 4.7-.3 1.4-.9 2.7-1.6 3.6-.7 1.1-1.8 1.8-3 2.5-1.3.6-2.8.9-4.6.9-1.4 0-2.7-.2-3.9-.7-1.2-.5-2.2-1.2-3.1-2-.9-.9-1.5-1.8-2-3s-.7-2.4-.7-3.7v-2.1h5.7v1.8c0 1.1.3 2 1 2.8.6.9 1.6 1.3 3.1 1.3 1 0 1.7-.1 2.2-.4.5-.3 1-.6 1.2-1.2.3-.5.4-1.2.5-1.9s.1-1.6.1-2.5c0-1.1 0-1.9-.1-2.6-.1-.6-.2-1.2-.4-1.6-.2-.4-.5-.7-1-1s-1-.5-1.7-.9l-4.1-1.7c-2.5-1-4.1-2.4-4.9-4-.9-1.6-1.3-3.7-1.3-6.2 0-1.5.2-2.9.6-4.3.4-1.4 1-2.5 1.8-3.4.7-1 1.8-1.7 3-2.4 1.2-.5 2.7-.9 4.3-.9 1.4 0 2.7.2 3.9.7 1.2.5 2.1 1.2 3 2s1.5 1.8 1.9 2.9c.4 1.1.6 2.1.6 3.3v3.1z" class="st1"/></svg>