<svg xmlns="http://www.w3.org/2000/svg" viewBox="0 0 302.23999 402.73999"><defs><style>.cls-1{fill:#fff;}</style></defs><title>certified-kubernetes-white</title><path class="cls-1" d="M173.07,329.78979a7.35543,7.35543,0,0,0-3.2-2.2,13.55319,13.55319,0,0,0-4.9-.8c-.02411,0-.04822.001-.07233.001a13.93793,13.93793,0,0,1,4.87232.79889,6.81517,6.81517,0,0,1,3.2,2.2,7.1652,7.1652,0,0,1,1.5,3.3,19.71152,19.71152,0,0,1,.5,4.4v13.2h.2v-13.1a19.71487,19.71487,0,0,0-.5-4.4A8.22167,8.22167,0,0,0,173.07,329.78979Z"/><path class="cls-1" d="M206.97,341.38977v-19.7l6.5-1.08338v-.11669l-6.6,1.1v19.7a17.28178,17.28178,0,0,0,.4,4.1,8.5923,8.5923,0,0,0,1.5,3.2c.028.028.0589.05347.08716.08124a8.60333,8.60333,0,0,1-1.48712-3.18121A17.28165,17.28165,0,0,1,206.97,341.38977Z"/><rect class="cls-1" x="213.57004" y="327.38971" width="7.89996" height="0.10004"/><path class="cls-1" d="M219.47,345.48975v.00006c.651-.186,1.30933-.291,2.04071-.465l-.04071-.23517a6.46252,6.46252,0,0,1-2.1.6,17.96459,17.96459,0,0,1-2.2.2,4.01846,4.01846,0,0,1-2.50933-.66247,3.81554,3.81554,0,0,0,2.60937.76251A16.35645,16.35645,0,0,0,219.47,345.48975Z"/><path class="cls-1" d="M162.87,332.58972a6.14759,6.14759,0,0,0-1.4.1v18h-6.5v.00006h6.6v-18c.4,0,.9-.1,1.4-.1a7.19064,7.19064,0,0,1,1.41931-.09863l-.01928-.0014A7.57091,7.57091,0,0,0,162.87,332.58972Z"/><path class="cls-1" d="M145.47,332.48975a8.639,8.639,0,0,0-1.5.1,3.9186,3.9186,0,0,0-1.3.2v.00006a12.30471,12.30471,0,0,1,1.3-.2,8.63828,8.63828,0,0,1,1.5-.1,10.89887,10.89887,0,0,1,2.6.3c.80005.1,1.5.3,2.1.4l-.00006-.00006c-.6-.1-1.29992-.3-2.09991-.4A10.89938,10.89938,0,0,0,145.47,332.48975Z"/><path class="cls-1" d="M112.27,329.98981c-.1709.1709-.32837.36273-.4881.55114.1767-.20819.35571-.41131.54083-.59881C112.30588,329.95874,112.28671,329.97308,112.27,329.98981Z"/><path class="cls-1" d="M115.78854,341.18976H130.77c0-.03339.00708-.06671.00836-.1001H115.77C115.77249,341.12494,115.78525,341.15491,115.78854,341.18976Z"/><path class="cls-1" d="M126.17,350.78967a15.7216,15.7216,0,0,1-2.3.4,20.90887,20.90887,0,0,1-2.5.1,15.47011,15.47011,0,0,1-5.5-.9,9.73173,9.73173,0,0,1-3.9-2.5,10.89711,10.89711,0,0,1-2.3-3.9,15.07132,15.07132,0,0,1-.7-4.8,14.90394,14.90394,0,0,1,.9-5.4,11.05376,11.05376,0,0,1,1.06286-2.1109,15.97482,15.97482,0,0,0-1.1629,2.211,14.53314,14.53314,0,0,0-.9,5.4,15.07128,15.07128,0,0,0,.7,4.8,10.89713,10.89713,0,0,0,2.3,3.9,13.04461,13.04461,0,0,0,3.9,2.5,15.47056,15.47056,0,0,0,5.5.9,20.90621,20.90621,0,0,0,2.5-.1c.8-.1,1.6-.3,2.3-.4a11.79322,11.79322,0,0,0,2-.4,4.56672,4.56672,0,0,0,1.4-.5l-.01019-.06116c-.30512.1073-.75318.28217-1.2898.46106C127.57,350.48969,126.87,350.6897,126.17,350.78967Z"/><path class="cls-1" d="M140.27,327.38971a22.3089,22.3089,0,0,1,5.4-.6,6.1519,6.1519,0,0,1,1.3.1c.5.1,1,.1,1.5.2h.00006c.49994.1.99994.1,1.49988.2a7.96829,7.96829,0,0,0-1.49994-.3,7.71611,7.71611,0,0,0-1.5-.2,6.14943,6.14943,0,0,0-1.3-.1,22.30488,22.30488,0,0,0-5.4.6q-2.4.6-4.2,1.2v22.2H136.07v-22.1A30.79121,30.79121,0,0,1,140.27,327.38971Z"/><path class="cls-1" d="M117.07,333.58972a3.24972,3.24972,0,0,1,1.3-1,3.752,3.752,0,0,1,1.85192-.39807c-.01818-.00012-.0335-.00189-.05194-.00189a3.80707,3.80707,0,0,0-1.9.4,6.42179,6.42179,0,0,0-1.3,1,5.30156,5.30156,0,0,0-.8,1.5,7.19434,7.19434,0,0,0-.38061,1.5h.10089a8.5836,8.5836,0,0,1,.3797-1.5A3.60713,3.60713,0,0,1,117.07,333.58972Z"/><path class="cls-1" d="M149.97031,327.28979c.49957.1.89953.29987,1.29937.39979A4.95648,4.95648,0,0,0,149.97031,327.28979Z"/><path class="cls-1" d="M196.47,299.38971a12.51549,12.51549,0,0,1-9.8,4.7v.00006l-73,.1h73a12.5154,12.5154,0,0,0,9.8-4.7l45.5-56.6a12.39818,12.39818,0,0,0,2.73932-7.85016,12.402,12.402,0,0,1-2.73932,7.75012Z"/><path class="cls-1" d="M228.17,161.68976a12.44443,12.44443,0,0,0-6.8-8.5A12.93712,12.93712,0,0,1,228.17,161.68976Z"/><path class="cls-1" d="M221.37,153.18976l-65.8-31.4a12.444,12.444,0,0,0-1.45941-.58123,12.44312,12.44312,0,0,1,1.45935.58123Z"/><path class="cls-1" d="M149.47,120.58978a13.07557,13.07557,0,0,1,3.125.225A13.07534,13.07534,0,0,0,149.47,120.58978Z"/><path class="cls-1" d="M201.27005,231.48969c0-.1.1-.1.2-.2.10083-.08062.19684-.15344.29358-.2243a4.44008,4.44008,0,0,0-.67206.3808C201.154,231.46069,201.22659,231.47516,201.27005,231.48969Z"/><path class="cls-1" d="M127.37,270.58978c-.2.7-.5,1.5-.8,2.3a5.63929,5.63929,0,0,0-.4,1.2,11.27778,11.27778,0,0,1-.8,2.4c-.1.2-.2.5-.3.7-.1.1-.2.2-.2.3a4.85521,4.85521,0,0,1-1.81727,1.99554,4.72525,4.72525,0,0,0,2.41724-2.29565c.1-.1.1-.2.2-.3a4.88442,4.88442,0,0,1,.3-.7,13.49054,13.49054,0,0,0,.8-2.4,5.63643,5.63643,0,0,0,.4-1.2c.3-.7.5-1.5.8-2.3a14.63037,14.63037,0,0,1,2.19995-4.7,1.3566,1.3566,0,0,1,.30231-.26581,1.82341,1.82341,0,0,0-.90228.56592A14.62955,14.62955,0,0,0,127.37,270.58978Z"/><path class="cls-1" d="M258.77,351.38977l.0401-.001c-.07251-.00006-.1366-.00274-.20813-.003C258.66006,351.38605,258.71127,351.38977,258.77,351.38977Z"/><path class="cls-1" d="M72.17,161.68976l-16.2,70.5a11.71555,11.71555,0,0,0-.32318,2.56042,11.65047,11.65047,0,0,1,.32318-2.46045Z"/><path class="cls-1" d="M250.77,349.98969l1.0935-5.36786c-.03015-.01093-.06341-.02112-.09344-.032l-1.1,5.4c.6.2,1.5.5,2.9.9.18591.03986.39172.07269.58844.10877-.16175-.03711-.33417-.06482-.48847-.10889C252.27,350.48969,251.27,350.1897,250.77,349.98969Z"/><path class="cls-1" d="M260.97,332.08966c-.02179,0-.03955.00183-.06109.002a13.82987,13.82987,0,0,1,2.96112.29816,18.2446,18.2446,0,0,1,2.5.7l.00793-.0343a15.75939,15.75939,0,0,0-2.408-.66583A13.85857,13.85857,0,0,0,260.97,332.08966Z"/><path class="cls-1" d="M255.69681,345.75952a13.93867,13.93867,0,0,0,2.93744.32471A20.34321,20.34321,0,0,1,255.69681,345.75952Z"/><path class="cls-1" d="M261.37,345.68976a5.52163,5.52163,0,0,1-2.54865.3988l.04865.0011a5.611,5.611,0,0,0,2.6-.4,1.48622,1.48622,0,0,0,.8-1.4c0-.6-.3-1-1-1.4a22.03293,22.03293,0,0,0-3-1.4c-1.1-.4-2-.8-2.9-1.2a8.00623,8.00623,0,0,1-2.1-1.5,5.95627,5.95627,0,0,1-1.4-2.1,8.36019,8.36019,0,0,1-.5-2.9,6.316,6.316,0,0,1,2.4-5.2c1.5918-1.29333,3.77875-1.8927,6.6568-1.8988-.01892-.00006-.03784-.0011-.05676-.0011a10.469,10.469,0,0,0-6.7,1.9,6.316,6.316,0,0,0-2.4,5.2,8.36149,8.36149,0,0,0,.5,2.9,5.95677,5.95677,0,0,0,1.4,2.1,8.01,8.01,0,0,0,2.1,1.5c.9.4,1.9.8,2.9,1.2a17.4115,17.4115,0,0,1,3,1.4,1.66234,1.66234,0,0,1,1,1.4A1.48618,1.48618,0,0,1,261.37,345.68976Z"/><path class="cls-1" d="M102.37,330.08978a9.62765,9.62765,0,0,0-3.2-2.4,10.17039,10.17039,0,0,0-4.4-.9,10.89929,10.89929,0,0,0-2.6.3,15.53964,15.53964,0,0,0-2.3.8v.1a8.95425,8.95425,0,0,1,2.3-.8,10.89929,10.89929,0,0,1,2.6-.3,10.17054,10.17054,0,0,1,4.4.9,7.54205,7.54205,0,0,1,3.2,2.4,10.157,10.157,0,0,1,1.9,3.9,15.91218,15.91218,0,0,1,.7,5c0,.59882-.02966,1.17047-.07568,1.72955.07812-.59027.14227-1.19451.17566-1.82952a18.85358,18.85358,0,0,0-.7-5A11.98316,11.98316,0,0,0,102.37,330.08978Z"/><path class="cls-1" d="M132.26193,60.71033c-.16522-.087-.314-.18445-.46625-.27936a7.638,7.638,0,0,0,1.67432.9588,10.9577,10.9577,0,0,0,4.4.7c.01758,0,.03193-.00152.04938-.00158a11.22112,11.22112,0,0,1-4.3493-.69843A8.67241,8.67241,0,0,1,132.26193,60.71033Z"/><path class="cls-1" d="M185.57,29.18976a3.47808,3.47808,0,0,1,1.19549,2.75c.00019-.01758.00446-.03223.00446-.05a3.489,3.489,0,0,0-1.2-2.8,3.25866,3.25866,0,0,0-1.5271-.845,3.91068,3.91068,0,0,1,.65484.37335A4.0411,4.0411,0,0,1,185.57,29.18976Z"/><path class="cls-1" d="M175.17,33.68976l.00629-.02918c-.14984-.05639-.3031-.10009-.45679-.14227C174.87112,33.57257,175.02109,33.63019,175.17,33.68976Z"/><path class="cls-1" d="M212.07047,52.18469c.0003-.08453.01666-.19458.02813-.29492h-.0036C212.08585,51.988,212.07065,52.08643,212.07047,52.18469Z"/><polygon class="cls-1" points="161.37 61.29 161.17 61.29 161.17 61.59 167.67 61.59 167.67 61.59 161.37 61.59 161.37 61.29"/><path class="cls-1" d="M154.54831,29.17389c-.02869-.02667-.04846-.058-.07831-.08411a3.25821,3.25821,0,0,0-1.52692-.845,3.79445,3.79445,0,0,1,.4693.238A3.98013,3.98013,0,0,1,154.54831,29.17389Z"/><path class="cls-1" d="M197.26785,61.28876l.00214.001a14.532,14.532,0,0,0,5.4.9,14.53192,14.53192,0,0,1-5.4-.9Z"/><path class="cls-1" d="M171.97,33.18976l-.03131.001a9.37591,9.37591,0,0,1,1.63129.09893c.05865,0,.11242.00977.16925.01343-.02448-.00415-.04444-.00928-.06922-.01343A9.15224,9.15224,0,0,0,171.97,33.18976Z"/><path class="cls-1" d="M176.00894,28.45776c-.05359-.02588-.10132-.0545-.15814-.07891l-.00385.01794C175.90115,28.418,175.95554,28.43744,176.00894,28.45776Z"/><path class="cls-1" d="M210.86978,60.78979c-.3.10016-.79986.3-1.39978.49994A4.563,4.563,0,0,0,210.86978,60.78979Z"/><path class="cls-1" d="M230.77005,28.68976l.49994-.0846v-.017l-.6.10156v9.8565c.03357.01288.06671.02515.1001.03827Z"/><path class="cls-1" d="M227.77,62.18976l.074-.0008c-.12439-.00012-.241-.00872-.36364-.01062C227.5784,62.18,227.67081,62.18976,227.77,62.18976Z"/><path class="cls-1" d="M205.17,62.08978a21.75447,21.75447,0,0,1-2.5.1A20.0877,20.0877,0,0,0,205.17,62.08978Z"/><path class="cls-1" d="M191.2684,54.98419l.00159.00556a9.0644,9.0644,0,0,0,2.2,3.8,10.26631,10.26631,0,0,1-2.2-3.8Z"/><path class="cls-1" d="M218.87,58.98975a12.30213,12.30213,0,0,0,3.8,2.4c.28949.0965.593.17847.8974.25934-.269-.08038-.5401-.15643-.7973-.25934a11.227,11.227,0,0,1-3.8-2.4h.00006a10.47586,10.47586,0,0,1-2.3-3.8,15.87983,15.87983,0,0,1-.8-5,16.1345,16.1345,0,0,1,.7-5.1,11.47,11.47,0,0,1,2-3.8,10.07373,10.07373,0,0,1,2.05139-1.75842A8.28257,8.28257,0,0,0,218.47,41.38977a10.56331,10.56331,0,0,0-2,3.8h-.00006a19.46983,19.46983,0,0,0-.7,5,15.41786,15.41786,0,0,0,.8,5A9.699,9.699,0,0,0,218.87,58.98975Z"/><path class="cls-1" d="M131.35025,264.94708c.17554-.05151.3512-.10119.51978-.15741l.65875-1.17114c-.11926-.04425-.23969-.08368-.35877-.12878Z"/><path class="cls-1" d="M122.47,43.88977a18.0883,18.0883,0,0,0-2.5-.2,8.63828,8.63828,0,0,0-1.5.1,3.91829,3.91829,0,0,0-1.3.2v.1a10.50756,10.50756,0,0,0,1.3-.2,8.633,8.633,0,0,1,1.5-.1,10.14377,10.14377,0,0,1,2.5.2c.8.2,1.5.4,2.1.5l1.1-5.4-.01886-.00732L124.57,44.38977C123.97,44.18976,123.27,44.08978,122.47,43.88977Z"/><path class="cls-1" d="M96.07,62.18976H96.07q-.78754,0-1.5188-.05628Q95.28248,62.18979,96.07,62.18976Z"/><path class="cls-1" d="M79.77017,38.73981c.48639.1427.97284.31073,1.45923.50073l.04059-.15076a17.10184,17.10184,0,0,0-3-.9,17.92261,17.92261,0,0,0-3.4-.3c-.04773,0-.09052.00671-.13788.0072a14.8982,14.8982,0,0,1,5.038.84284Z"/><path class="cls-1" d="M72.79886,56.09473a8.86351,8.86351,0,0,0,2.37115.295c.082,0,.17487-.00549.262-.00806-2.16181-.04156-3.59443-.63165-4.462-1.69195a4.65063,4.65063,0,0,1-.51935-.81873A4.7377,4.7377,0,0,0,71.07,54.88977,4.163,4.163,0,0,0,72.79886,56.09473Z"/><path class="cls-1" d="M143.175,55.81812l-.005-.02839c-.10272.03424-.22155.0647-.32965.09845l.005.02845C142.95486,55.88324,143.07059,55.85229,143.175,55.81812Z"/><rect class="cls-1" x="56.76999" y="327.28973" width="6.60004" height="0.10004"/><path class="cls-1" d="M64.17,344.18976a3.62334,3.62334,0,0,0,3.2,1.4h1.5c.5-.1,1-.1,1.4-.2h.1v-18h6.5v-.2h-6.6v18.1c-.4.1-.9.1-1.4.2h-1.5c-1.6,0-2.7-.5-3.2-1.4a10.22392,10.22392,0,0,1-.8-4.6v.1C63.37,341.68976,63.57,343.28979,64.17,344.18976Z"/><polygon class="cls-1" points="89.87 316.19 83.27 317.29 83.27 317.39 89.87 316.29 89.87 316.19"/><path class="cls-1" d="M103.8262,344.95679a13.1821,13.1821,0,0,1-.87726,1.58459A9.79646,9.79646,0,0,0,103.8262,344.95679Z"/><path class="cls-1" d="M80.70786,55.71265l-.03785-.2229q-.23465.088-.47052.17352l.03785.223Q80.47344,55.80109,80.70786,55.71265Z"/><polygon class="cls-1" points="110.67 61.69 117.17 61.69 117.17 61.49 110.67 61.49 110.67 61.69"/><path class="cls-1" d="M93.57,332.38971c-.017,0-.0373.00409-.05445.00427,3.16657.02222,4.65448,2.21765,4.65448,6.49579a8.352,8.352,0,0,1-1.4,4.9,4.65349,4.65349,0,0,1-4.1,1.9h.1a4.90341,4.90341,0,0,0,4.1-1.9,8.98608,8.98608,0,0,0,1.4-5C98.27,334.48975,96.67,332.38971,93.57,332.38971Z"/><polygon class="cls-1" points="135.37 31.707 135.37 31.69 134.97 31.757 134.97 31.774 135.37 31.707"/><path class="cls-1" d="M98.569,62.08984a21.7725,21.7725,0,0,1-2.498.09992A20.10263,20.10263,0,0,0,98.569,62.08984Z"/><path class="cls-1" d="M102.77,40.98975c1.8,2,2.8,4.9,2.8,8.8C105.57,45.88977,104.67,42.98975,102.77,40.98975Z"/><path class="cls-1" d="M104.27,60.78973c-.3.1-.8.3-1.4.5A4.56422,4.56422,0,0,0,104.27,60.78973Z"/><path class="cls-1" d="M105.57,50.98975c0,.4-.1.8-.1,1.2C105.47,51.88977,105.57,51.48975,105.57,50.98975Z"/><path class="cls-1" d="M190.57,50.28973q0-.78753.05621-1.51873-.05631.73122-.05627,1.51873c0,.05933.00494.11438.00543.17328C190.57492,50.40454,190.57,50.34845,190.57,50.28973Z"/><path class="cls-1" d="M172.17,249.78973l-7.9-19.2a3.55518,3.55518,0,0,1-.25971-1.22394,3.55016,3.55016,0,0,0,.25971,1.42395h.00006l7.9,19.3a40.01661,40.01661,0,0,0,9.9-8.9,42.3876,42.3876,0,0,0,6.4-11.6l-.0711-.01221A39.8447,39.8447,0,0,1,182.07,240.98975,33.24082,33.24082,0,0,1,172.17,249.78973Zm1.4-.7a.098.098,0,0,1,.1-.1A.09795.09795,0,0,1,173.57,249.08972Z"/><path class="cls-1" d="M168.37,209.78973a3.23515,3.23515,0,0,0,.56134,2.84369,3.47836,3.47836,0,0,1-.56134-2.74371H168.37a3.67021,3.67021,0,0,1,1.1-1.8l15.3-13.7a41.821,41.821,0,0,1,6.06836,22.05762,41.575,41.575,0,0,0-1.06836-9.85761,42.45674,42.45674,0,0,0-5-12.3l-15.3,13.7A4.869,4.869,0,0,0,168.37,209.78973Z"/><path class="cls-1" d="M46.77,340.48975c1,1.1,1.9,2.2,2.8,3.4.8,1.2,1.7,2.4,2.3,3.5a30.07762,30.07762,0,0,1,1.9,3.3h.2c-.5-1-1.2-2.1-1.9-3.3a37.51261,37.51261,0,0,0-2.4-3.6c-.9-1.2-1.8-2.3-2.8-3.4a39.59864,39.59864,0,0,0-2.8-2.9l.01648-.01667-.11646.1167A39.60933,39.60933,0,0,1,46.77,340.48975Z"/><path class="cls-1" d="M97.27,170.38983a4.77833,4.77833,0,0,1,2.8,1c0,.1.1.1.2.2.2.2.4.3.6.5a14.0549,14.0549,0,0,1,1.7,1.8,6.467,6.467,0,0,0,.8.9l.1.1a36.17586,36.17586,0,0,0,5.2,4.7,2.49928,2.49928,0,0,0,2,.3h.3c.2.2,1,.7,1.4,1,.13635-.14624.2785-.2857.41644-.43017-.42377-.29914-1.042-.69544-1.21643-.86994h-.3a2.49932,2.49932,0,0,1-2-.3,42.40544,42.40544,0,0,1-5.2-4.7l-.1-.1c-.3-.3-.5-.6-.8-.9a14.052,14.052,0,0,0-1.7-1.8c-.1-.1-.4-.3-.6-.5,0-.1-.1-.1-.2-.2a4.77834,4.77834,0,0,0-2.8-1h-.1a3.90481,3.90481,0,0,0-2.04645.58222,4.019,4.019,0,0,1,1.44641-.28211Z"/><path class="cls-1" d="M145.17,165.08984l.015-.23962a56.357,56.357,0,0,0-6.515,1.03949,52.70136,52.70136,0,0,0-9.19568,3.0459,50.098,50.098,0,0,1,8.59565-2.74579A55.239,55.239,0,0,1,145.17,165.08984Z"/><path class="cls-1" d="M153.67,149.48981v1.1a10.07381,10.07381,0,0,1-.3,2.5c-.1.4-.1.8-.2,1.2v.2a33.84082,33.84082,0,0,0-.4,6.9,2.68679,2.68679,0,0,0,1.1,1.7l.2.2c0,.3.1,1.2.1,1.7a51.8935,51.8935,0,0,1,32.6,15.8l.52026-.38153A49.53429,49.53429,0,0,0,172.57,169.6897a50.396,50.396,0,0,0-17.8-5c0-.5-.1-1.4-.1-1.7l-.2-.2a2.35229,2.35229,0,0,1-1.1-1.7,34.21282,34.21282,0,0,1,.4-6.9v-.2a5.01855,5.01855,0,0,1,.2-1.2,19.01482,19.01482,0,0,0,.3-2.5v-1.1a4.23962,4.23962,0,0,0-4-4.4,3.653,3.653,0,0,0-1.91345.56714,3.5955,3.5955,0,0,1,1.31341-.267A4.23961,4.23961,0,0,1,153.67,149.48981Z"/><path class="cls-1" d="M156.37,195.78973a3.05676,3.05676,0,0,0,.7,2,3.43128,3.43128,0,0,0,4.7.6h.00006l16.9-11.8c-.04-.03869-.08166-.07519-.12176-.11377L161.87,198.28973h-.1a3.44424,3.44424,0,0,1-4.7-.6,3.72206,3.72206,0,0,1-.69995-2l-1.19416-20.49921-.00586-.00079Z"/><path class="cls-1" d="M136.17,228.78973a3.71546,3.71546,0,0,0-.892-1.64911,3.75368,3.75368,0,0,1,.79193,1.54908,3.07237,3.07237,0,0,1-.2,2.1l.1.1-7.8,19H128.17a41.623,41.623,0,0,1-7.48285-6.16351,41.57509,41.57509,0,0,0,7.58289,6.26355l7.8-19-.1-.1A3.07268,3.07268,0,0,0,136.17,228.78973Z"/><path class="cls-1" d="M38.27,335.78973c.03119-.03637.0683-.074.1-.11041v-19.5896l-6.6,1.1v.08331l6.5-1.08331Z"/><path class="cls-1" d="M150.07,234.48975h.1a4.01234,4.01234,0,0,1,1.5.3,5.27774,5.27774,0,0,1,1.21912,1.064,2.73958,2.73958,0,0,0-1.31909-1.164,4.01235,4.01235,0,0,0-1.5-.3h-.1a3.33786,3.33786,0,0,0-2.9,1.8l-10.1,18c.07263.02423.14667.04126.21942.06506L147.17,236.28973A3.33789,3.33789,0,0,1,150.07,234.48975Z"/><path class="cls-1" d="M48.696,332.6814c.09046-.09644.18433-.19593.274-.29163.205-.2323.41315-.46777.61835-.70032-.23834.26587-.48407.53485-.71832.8003C48.813,332.55432,48.75327,332.61707,48.696,332.6814Z"/><path class="cls-1" d="M98.95676,223.08136l-.98676.30835-.16376.16376,1.16376-.36365C98.96475,223.15369,98.96194,223.11749,98.95676,223.08136Z"/><path class="cls-1" d="M153.22556,236.28973l-.05555-.1h-.06414c.01934.03412.04675.06518.06414.1Z"/><path class="cls-1" d="M52.772,328.09021c.26776-.30194.52484-.5932.798-.90045h-7.9c-.02423.03027-.05682.069-.08178.1H53.47C53.2424,327.56287,53.00351,327.82129,52.772,328.09021Z"/><polygon class="cls-1" points="144.37 220.09 147.17 221.416 144.47 220.09 143.07 213.99 146.97 209.09 146.87 209.09 142.97 213.99 144.37 220.09"/><path class="cls-1" d="M109.66751,219.76166a40.24208,40.24208,0,0,1,.80249-13.37195,38.48774,38.48774,0,0,1,4.86591-12.04126l-.06592-.05872a40.899,40.899,0,0,0-5.7,25.5Z"/><path class="cls-1" d="M140.47,199.18976a3.72188,3.72188,0,0,1-2-.7A3.05691,3.05691,0,0,0,140.47,199.18976Z"/><path class="cls-1" d="M190.67,179.38977c.06452-.043.12329-.09558.18708-.13959a5.94813,5.94813,0,0,1-1.787.13947h-.2l-.40924.30011h.00921A4.35291,4.35291,0,0,0,190.67,179.38977Z"/><path class="cls-1" d="M145.17,175.28973l-1.12426,19.3,1.22424-19.4c-1.5.2-2.9.4-4.2.7a41.82659,41.82659,0,0,0-8.03888,2.72382,40.40977,40.40977,0,0,1,7.9389-2.62384C142.37,175.6897,143.77,175.48975,145.17,175.28973Z"/><path class="cls-1" d="M84.07,226.98987a1.85329,1.85329,0,0,1,.7-.2,22.862,22.862,0,0,1,2.5-.2c.4,0,.9-.1,1.3-.1h.1a33.16526,33.16526,0,0,0,7-1.1,1.71671,1.71671,0,0,0,.40973-.25336,43.18085,43.18085,0,0,1-6.80969,1.05329h-.1a6.15246,6.15246,0,0,1-1.3.1,10.977,10.977,0,0,0-2.5.2,6.39074,6.39074,0,0,1-.7.2.3674.3674,0,0,1-.3.1,4.60883,4.60883,0,0,0-1.76239.78443,4.95271,4.95271,0,0,1,1.16235-.48432C83.87,227.08984,83.97,226.98987,84.07,226.98987Z"/><path class="cls-1" d="M190.27005,247.78979a51.1284,51.1284,0,0,1-14,12.2c.1.1.1.3.2.5a3.36177,3.36177,0,0,0,.4,1c0,.1-.1.2-.1.3a2.56806,2.56806,0,0,0-.2,2,40.77592,40.77592,0,0,0,3.5,6.2c.2.3.5.7.7,1a15.34,15.34,0,0,1,1.4,2.1,1.61153,1.61153,0,0,1,.4.7c.1.1.2.2.2.3a4.276,4.276,0,0,1-1.39429,5.40857c.09778-.03888.19824-.06067.29431-.1087a4.11807,4.11807,0,0,0,1.7-5.6c-.1-.1-.1-.2-.2-.3a2.50566,2.50566,0,0,1-.4-.7c-.5-.8-.9-1.4-1.4-2.1a8.6471,8.6471,0,0,1-.7-1,33.05066,33.05066,0,0,1-3.5-6.2,2.69222,2.69222,0,0,1,.2-2c0-.1.1-.2.1-.3-.1-.1-.2-.6-.4-1-.1-.2-.1-.4-.2-.5A51.14385,51.14385,0,0,0,199.43839,231.57c-.17176-.02674-.33472-.05347-.46839-.0802A51.32685,51.32685,0,0,1,190.27005,247.78979Z"/><path class="cls-1" d="M143.78622,196.61212a4.03507,4.03507,0,0,0,.16443-.72241H143.87A3.25136,3.25136,0,0,1,143.78622,196.61212Z"/><path class="cls-1" d="M205.27005,171.58978a4.21515,4.21515,0,0,1-1,5.8c-.1,0-.2.1-.3.2a2.65195,2.65195,0,0,1-.6.5,11.978,11.978,0,0,1-2.1,1.3,10.91264,10.91264,0,0,1-1.1.6,36.33117,36.33117,0,0,0-5.8,4.1,2.52,2.52,0,0,0-.7,1.9v.3a3.80731,3.80731,0,0,1-.6.5,5.71469,5.71469,0,0,0-.8.7,50.58205,50.58205,0,0,1,7.4,17,51.85314,51.85314,0,0,1,.8,18.4l1.6.5c0,.1.1.1.1.2a4.6657,4.6657,0,0,0,1.6,1.5,41.20716,41.20716,0,0,0,7,1.1h.1a6.14913,6.14913,0,0,0,1.3.1,10.97644,10.97644,0,0,1,2.5.2,6.37882,6.37882,0,0,0,.7.2c.1,0,.3.1.4.1a4.11584,4.11584,0,0,1,3.4,4.8,3.79593,3.79593,0,0,1-1.75738,2.34284,3.886,3.886,0,0,0,2.35742-2.64295,4.327,4.327,0,0,0-3.4-4.8c-.1,0-.2-.1-.4-.1a1.85425,1.85425,0,0,0-.7-.2,22.84582,22.84582,0,0,0-2.5-.2c-.4,0-.9-.1-1.3-.1h-.1a33.17,33.17,0,0,1-7-1.1,2.95609,2.95609,0,0,1-1.6-1.5.34926.34926,0,0,0-.1-.2l-1.6-.5a49.54612,49.54612,0,0,0-.8-18.4,50.58205,50.58205,0,0,0-7.4-17,5.71782,5.71782,0,0,1,.8-.7,3.81038,3.81038,0,0,0,.6-.5v-.3a2.65545,2.65545,0,0,1,.7-1.9,36.327,36.327,0,0,1,5.8-4.1c.4-.2.7-.4,1.1-.6a23.929,23.929,0,0,0,2.1-1.3c.2-.2.4-.3.6-.5.1-.1.2-.1.3-.2a4.12479,4.12479,0,0,0,1-5.8,4.00936,4.00936,0,0,0-5.37769-.74133A4.07906,4.07906,0,0,1,205.27005,171.58978Z"/><path class="cls-1" d="M38.27,350.68976h.1v-10.113c-.03278-.0282-.06763-.05926-.1-.087Z"/><path class="cls-1" d="M203.57065,43.69012l-.00061-.00036a2.359,2.359,0,0,0-.39533-.18909,2.35836,2.35836,0,0,1,.39527.18909Z"/><path class="cls-1" d="M204.87,44.68976a6.10869,6.10869,0,0,1,.69995,1.4H205.57a5.18589,5.18589,0,0,1,.28033,1.4h.00092a4.44527,4.44527,0,0,0-.28125-1.4A3.6946,3.6946,0,0,0,204.87,44.68976Z"/><polygon class="cls-1" points="100.567 56.29 100.57 56.29 100.571 56.289 100.57 56.29 100.567 56.29"/><path class="cls-1" d="M84.87,44.88977a13.20647,13.20647,0,0,1,2.49719-3.79687A11.427,11.427,0,0,0,84.87,44.88977Z"/><path class="cls-1" d="M66.17,41.48975a10.897,10.897,0,0,0-2.3,3.9,12.19567,12.19567,0,0,0-.7,4.7c0,.03968.00342.0777.00367.11725A14.52038,14.52038,0,0,1,63.97,45.58972a10.89625,10.89625,0,0,1,2.3-3.9,9.91292,9.91292,0,0,1,3.7-2.6,11.45986,11.45986,0,0,1,5-1,17.19,17.19,0,0,1,3.4.3c.46673.09332.93341.21314,1.40014.35a14.8982,14.8982,0,0,0-5.038-.84284,13.147,13.147,0,0,0-4.86212.9928A10.78559,10.78559,0,0,0,66.17,41.48975Z"/><path class="cls-1" d="M72.79886,56.09473a8.08286,8.08286,0,0,0,2.97113.495,24.96468,24.96468,0,0,0,2.5-.2,8.52494,8.52494,0,0,0,1.96735-.50354l-.03785-.223a8.69147,8.69147,0,0,1-2.02948.52649,22.86435,22.86435,0,0,1-2.5.2c-.08288,0-.15722-.00653-.238-.00806-.0871.00257-.18.00806-.262.00806A8.86351,8.86351,0,0,1,72.79886,56.09473Z"/><path class="cls-1" d="M227.87,56.58978H227.87a4.47493,4.47493,0,0,1-4-1.9,8.31463,8.31463,0,0,1-1.3919-4.77521c-.00061.06152-.008.11273-.008.17517a7.92829,7.92829,0,0,0,1.4,4.9,4.644,4.644,0,0,0,4,1.8c.6,0,1.1-.1,1.6-.1.5-.1.9-.1,1.2-.2v-.2a3.7285,3.7285,0,0,1-1.2.2A8.08042,8.08042,0,0,1,227.87,56.58978Z"/><path class="cls-1" d="M86.87,58.78973a10.26645,10.26645,0,0,1-2.2-3.8A9.06389,9.06389,0,0,0,86.87,58.78973Z"/><path class="cls-1" d="M65.97,58.68976a7.55555,7.55555,0,0,0,2.43927,1.93432A10.14288,10.14288,0,0,1,65.97,58.68976Z"/><path class="cls-1" d="M212.17,49.78973c0-3.9-.9-6.8-2.8-8.8C211.17,42.98975,212.17,45.88977,212.17,49.78973Z"/><path class="cls-1" d="M161.37,37.28973a9.781,9.781,0,0,1,2.5-7.1c1.693-1.69306,4.18072-2.59125,7.46063-2.59863-.021-.00007-.03955-.00135-.06067-.00135-3.3,0-5.8.8-7.5,2.6a9.78134,9.78134,0,0,0-2.5,7.1h-.1v24h.2Z"/><path class="cls-1" d="M193.96719,41.0929A11.42714,11.42714,0,0,0,191.47,44.88977,13.20792,13.20792,0,0,1,193.96719,41.0929Z"/><path class="cls-1" d="M200.52158,38.04443a10.21826,10.21826,0,0,1,1.04846-.05468H201.57A10.21709,10.21709,0,0,0,200.52158,38.04443Z"/><path class="cls-1" d="M205.87,47.68976c0-.0625-.01563-.13477-.01874-.2h-.00092C205.85379,47.55554,205.87,47.62421,205.87,47.68976Z"/><polygon class="cls-1" points="197.67 46.089 197.67 46.09 197.67 46.091 197.67 46.09 197.67 46.089"/><path class="cls-1" d="M180.17,29.08972a3.48924,3.48924,0,0,0-1.2,2.8c0,.01776.00427.03241.00446.05a3.47812,3.47812,0,0,1,1.19555-2.75,3.6197,3.6197,0,0,1,2.7-1,4.023,4.023,0,0,1,1.82769.42828,3.91068,3.91068,0,0,0-.65484-.37335,4.60317,4.60317,0,0,0-1.17285-.155A3.94247,3.94247,0,0,0,180.17,29.08972Z"/><path class="cls-1" d="M212.095,51.88977h.0036a7.26828,7.26828,0,0,0,.07141-.9C212.17,51.28979,212.12314,51.58972,212.095,51.88977Z"/><path class="cls-1" d="M128.77,32.78973v19.4a17.27809,17.27809,0,0,0,.4,4.1,8.14446,8.14446,0,0,0,1.5,3.1,7.4504,7.4504,0,0,0,1.12567,1.0412c.15223.09491.301.19238.46625.27936A5.68364,5.68364,0,0,1,130.77,59.38977h.00006a6.76639,6.76639,0,0,1-1.4-3.1,17.83106,17.83106,0,0,1-.4-4.1v-19.4l6-1.01538v-.0169l-6.1,1.03228Z"/><path class="cls-1" d="M230.77005,39.08978v-.50525c-.03339-.01312-.06653-.02539-.1001-.03827v.50245C230.70279,39.06256,230.73764,39.07587,230.77005,39.08978Z"/><path class="cls-1" d="M175.847,28.39679l.00385-.01794a6.96128,6.96128,0,0,0-.71619-.25147C175.38492,28.217,175.6218,28.30878,175.847,28.39679Z"/><path class="cls-1" d="M139.02567,56.48645c.01623.00012.028.0033.04437.0033a16.34593,16.34593,0,0,0,2.2-.2,10.531,10.531,0,0,0,1.57532-.3731l-.005-.02845a10.76381,10.76381,0,0,1-1.67035.40155A18.59684,18.59684,0,0,1,139.02567,56.48645Z"/><polygon class="cls-1" points="237.17 27.607 237.17 27.59 231.27 28.588 231.27 28.605 237.17 27.607"/><path class="cls-1" d="M149.07,29.08978a3.83118,3.83118,0,0,0-1.2,2.8,3.48891,3.48891,0,0,0,1.2,2.8c.00854.00854.0188.01355.0274.022a3.85824,3.85824,0,0,1,.07257-5.522,3.6197,3.6197,0,0,1,2.7-1,4.107,4.107,0,0,1,1.54235.29309,3.79445,3.79445,0,0,0-.4693-.238,4.60193,4.60193,0,0,0-1.17309-.155A3.942,3.942,0,0,0,149.07,29.08978Z"/><polygon class="cls-1" points="144.47 220.09 147.17 221.416 150.07 222.79 155.77 220.09 157.07 213.99 153.17 209.09 146.97 209.09 143.07 213.99 144.47 220.09"/><path class="cls-1" d="M128.17,249.88971l7.8-19-.1-.1a3.07237,3.07237,0,0,0,.2-2.1,3.75368,3.75368,0,0,0-.79193-1.54908,3.26645,3.26645,0,0,0-2.408-1.05084h-.7l-20.2,3.5a42.09046,42.09046,0,0,0,6.6,11.7q1.00432,1.26471,2.11706,2.43641a41.623,41.623,0,0,0,7.48285,6.16351Z"/><path class="cls-1" d="M157.07,197.68976a3.44424,3.44424,0,0,0,4.7.6h.1L178.54825,186.476A40.52482,40.52482,0,0,0,167.87,178.98975a38.0416,38.0416,0,0,0-12.69416-3.7992L156.37,195.68976A3.72206,3.72206,0,0,0,157.07,197.68976Z"/><path class="cls-1" d="M184.77,194.38971l-15.3,13.7a3.67021,3.67021,0,0,0-1.1,1.8H168.37a3.352,3.352,0,0,0,2.4,4.00006v.1l19.9,5.7c.09961-1.07044.15552-2.15332.16834-3.24243A41.821,41.821,0,0,0,184.77,194.38971Z"/><path class="cls-1" d="M167.27,225.98975a3.07929,3.07929,0,0,0-1.3.3,3.43814,3.43814,0,0,0-1.95972,3.07605,3.55518,3.55518,0,0,0,.25971,1.22394l7.9,19.2a33.24082,33.24082,0,0,0,9.9-8.8,39.8447,39.8447,0,0,0,6.32892-11.41224L168.07,226.08972A2.48629,2.48629,0,0,0,167.27,225.98975Z"/><path class="cls-1" d="M109.66751,219.76166,129.37,214.08978v-.1a3.59745,3.59745,0,0,0,1.8-1.2,3.33306,3.33306,0,0,0-.4-4.7l-15.43408-13.74133A38.48774,38.48774,0,0,0,110.47,206.38971,40.24208,40.24208,0,0,0,109.66751,219.76166Z"/><path class="cls-1" d="M140.47,199.18976a3.5735,3.5735,0,0,0,3.31622-2.57764,3.25136,3.25136,0,0,0,.08374-.72241h.08069c.00446-.03406.01575-.06561.01935-.1l.07575-1.2,1.12426-19.3c-1.4.2-2.8.4-4.2.7a39.51457,39.51457,0,0,0-19.4,10.5l16.9,12A3.72188,3.72188,0,0,0,140.47,199.18976Z"/><path class="cls-1" d="M159.17,255.28973c1.4-.3,2.7-.7,4-1.1l-9.94445-17.9H153.17c-.01739-.03479-.0448-.06585-.06414-.1H153.07a3.01326,3.01326,0,0,0-.18091-.336,5.27774,5.27774,0,0,0-1.21912-1.064,4.01234,4.01234,0,0,0-1.5-.3h-.1a3.33789,3.33789,0,0,0-2.9,1.8l-9.98059,17.96509A40.87335,40.87335,0,0,0,159.17,255.28973Z"/><path class="cls-1" d="M58.37,242.78973l45.5,56.6a12.77192,12.77192,0,0,0,9.8,4.8l73-.1v-.00006a12.51549,12.51549,0,0,0,9.8-4.7l45.5-56.6a12.402,12.402,0,0,0,2.73932-7.75012,12.07576,12.07576,0,0,0-.33929-2.74988l-16.2-70.6a12.93712,12.93712,0,0,0-6.8-8.5l-65.80005-31.4a12.44312,12.44312,0,0,0-1.45935-.58123,12.70166,12.70166,0,0,0-1.51563-.39374,12.81394,12.81394,0,0,0-7.925.975l-65.7,31.4a12.93682,12.93682,0,0,0-6.8,8.5l-16.2,70.6a11.65047,11.65047,0,0,0-.32318,2.46045A12.69156,12.69156,0,0,0,57.67,241.78973,6.06587,6.06587,0,0,0,58.37,242.78973Zm24.23761-15.21557a4.60883,4.60883,0,0,1,1.76239-.78443.3674.3674,0,0,0,.3-.1,6.39074,6.39074,0,0,0,.7-.2,10.977,10.977,0,0,1,2.5-.2,6.15246,6.15246,0,0,0,1.3-.1h.1a43.18085,43.18085,0,0,0,6.80969-1.05329A5.75081,5.75081,0,0,0,97.17,223.88983l.2-.2.43621-.13635.16376-.16376.98676-.30835A50.71851,50.71851,0,0,1,106.97,187.68982l-1.2-1.1v-.2a4.56324,4.56324,0,0,0-.8-2.1,36.33021,36.33021,0,0,0-5.8-4.1c-.4-.2-.7-.4-1.1-.6a23.9381,23.9381,0,0,1-2.1-1.3c-.2-.2-.4-.3-.6-.5,0-.1-.1-.1-.2-.2a4.58888,4.58888,0,0,1-1.7-2.8,3.56828,3.56828,0,0,1,2.2536-4.11785,3.90481,3.90481,0,0,1,2.04645-.58222h.1a4.77834,4.77834,0,0,1,2.8,1c.1.1.2.1.2.2.2.2.5.4.6.5a14.052,14.052,0,0,1,1.7,1.8c.3.3.5.6.8.9l.1.1a42.40544,42.40544,0,0,0,5.2,4.7,2.49932,2.49932,0,0,0,2,.3h.3c.17444.1745.79266.5708,1.21643.86994a49.787,49.787,0,0,1,16.68786-11.52405,52.70136,52.70136,0,0,1,9.19568-3.0459,56.357,56.357,0,0,1,6.515-1.03949l.085-1.36041a4.64469,4.64469,0,0,0,1.3-2,36.14464,36.14464,0,0,0-.4-7.1v-.1a5.01805,5.01805,0,0,0-.2-1.2,19.01672,19.01672,0,0,1-.3-2.5v-1.1a4.40808,4.40808,0,0,1,2.68659-4.133,3.653,3.653,0,0,1,1.91345-.56714,4.23962,4.23962,0,0,1,4,4.4v1.1a19.01482,19.01482,0,0,1-.3,2.5,5.01855,5.01855,0,0,0-.2,1.2v.2a34.21282,34.21282,0,0,0-.4,6.9,2.35229,2.35229,0,0,0,1.1,1.7l.2.2c0,.3.1,1.2.1,1.7a50.396,50.396,0,0,1,17.8,5,49.53429,49.53429,0,0,1,14.72027,10.71856l.97974-.7185h.1908l.40924-.30011h.2a5.94813,5.94813,0,0,0,1.787-.13947,38.16038,38.16038,0,0,0,5.01294-4.56042l.1-.1c.3-.3.5-.6.8-.9.6-.6,1.1-1.2,1.8-1.8.1-.1.4-.3.6-.5,0-.1.1-.1.2-.2a4.72306,4.72306,0,0,1,1.12237-.64142,4.00936,4.00936,0,0,1,5.37769.74133,4.12479,4.12479,0,0,1-1,5.8c-.1.1-.2.1-.3.2-.2.2-.4.3-.6.5a23.929,23.929,0,0,1-2.1,1.3c-.4.2-.7.4-1.1.6a36.327,36.327,0,0,0-5.8,4.1,2.65545,2.65545,0,0,0-.7,1.9v.3a3.81038,3.81038,0,0,1-.6.5,5.71782,5.71782,0,0,0-.8.7,50.58205,50.58205,0,0,1,7.4,17,49.54612,49.54612,0,0,1,.8,18.4l1.6.5a.34926.34926,0,0,1,.1.2,2.95609,2.95609,0,0,0,1.6,1.5,33.17,33.17,0,0,0,7,1.1h.1c.4,0,.9.1,1.3.1a22.84582,22.84582,0,0,1,2.5.2,1.85425,1.85425,0,0,1,.7.2c.2,0,.3.1.4.1a4.327,4.327,0,0,1,3.4,4.8,3.886,3.886,0,0,1-2.35742,2.64295,4.55266,4.55266,0,0,1-3.34259.55719c-.1,0-.3-.1-.4-.1-.2,0-.4-.1-.6-.1-.8-.3-1.5-.6-2.3-.9-.4-.2-.8-.3-1.2-.5h-.1a35.35076,35.35076,0,0,0-6.7-2h-.2a1.92768,1.92768,0,0,0-.8064.1756c-.09674.07086-.19275.14368-.29358.2243-.1.1-.2.1-.2.2-.04346-.01453-.11609-.029-.17847-.04352-.07318.04852-.1455.098-.22155.14361,0,.1-.1.1-.2.2a11.58516,11.58516,0,0,0-1.23162-.21984A51.14385,51.14385,0,0,1,176.87,259.68964c.1.1.1.3.2.5.2.4.3.9.4,1,0,.1-.1.2-.1.3a2.69222,2.69222,0,0,0-.2,2,33.05066,33.05066,0,0,0,3.5,6.2,8.6471,8.6471,0,0,0,.7,1c.5.7.9,1.3,1.4,2.1a2.50566,2.50566,0,0,0,.4.7c.1.1.1.2.2.3a4.11807,4.11807,0,0,1-1.7,5.6c-.09607.048-.19653.06982-.29431.1087a3.25873,3.25873,0,0,1-.30572.19141,3.73339,3.73339,0,0,1-3.1.1,4.48318,4.48318,0,0,1-2.4-2.3c0-.1-.1-.2-.1-.3-.1-.2-.2-.5-.3-.7a13.49425,13.49425,0,0,1-.8-2.4,5.63924,5.63924,0,0,1-.4-1.2v-.1a36.3848,36.3848,0,0,0-2.7-6.5,2.95839,2.95839,0,0,0-1.7-1.1c-.1,0-.19995-.1-.3-.1-.1-.1-.2-.4-.4-.7a5.93863,5.93863,0,0,0-.4-.8,51.61947,51.61947,0,0,1-6.7,2,50.71029,50.71029,0,0,1-29.24121-1.97125l-.65875,1.17114c-.16858.05622-.34424.1059-.51978.15741l-.08026.1427c-.287.082-.55115.15119-.79767.23407a1.3566,1.3566,0,0,0-.30231.26581,14.63037,14.63037,0,0,0-2.19995,4.7c-.3.8-.5,1.6-.8,2.3a5.63643,5.63643,0,0,1-.4,1.2,13.49054,13.49054,0,0,1-.8,2.4,4.88442,4.88442,0,0,0-.3.7c-.1.1-.1.2-.2.3a4.72525,4.72525,0,0,1-2.41724,2.29565,4.02092,4.02092,0,0,1-2.08276.60449,4.19241,4.19241,0,0,1-1.6-.4,4.11808,4.11808,0,0,1-1.7-5.6c.1-.1.1-.3.2-.4a4.8698,4.8698,0,0,1,.3-.7c.5-.8.9-1.4,1.4-2.1a8.65231,8.65231,0,0,0,.7-1v.00012c1.5-2.5,2.8-4.5,3-6.1a5.38183,5.38183,0,0,0-.4-2.2l.7-1.7a50.95414,50.95414,0,0,1-22.7-28.3l-1.7.3c-.1,0-.1-.1-.2-.1a3.52321,3.52321,0,0,0-2.1-.7,37.63135,37.63135,0,0,0-6.7,2h-.1c-.4.2-.8.3-1.2.5a9.8891,9.8891,0,0,1-2.4.9,6.37792,6.37792,0,0,1-.7.2.36725.36725,0,0,1-.3.1,4.22966,4.22966,0,0,1-5.1-2.9A4.14756,4.14756,0,0,1,82.60764,227.57416Z"/><path class="cls-1" d="M58.37,242.88977l45.5,56.6a12.51554,12.51554,0,0,0,9.8,4.7,12.77192,12.77192,0,0,1-9.8-4.8l-45.5-56.6a6.06587,6.06587,0,0,1-.7-1,12.69156,12.69156,0,0,1-2.02319-7.03955A12.9564,12.9564,0,0,0,57.67,241.88977C57.87,242.18976,58.17,242.58978,58.37,242.88977Z"/><path class="cls-1" d="M244.70932,235.03961a12.07451,12.07451,0,0,0-.33929-2.84991l-16.2-70.49994,16.2,70.6A12.07576,12.07576,0,0,1,244.70932,235.03961Z"/><path class="cls-1" d="M78.97,153.18976a12.44431,12.44431,0,0,0-6.8,8.5A12.93682,12.93682,0,0,1,78.97,153.18976Z"/><path class="cls-1" d="M173.57,249.08972a.098.098,0,0,0,.1-.1A.09795.09795,0,0,0,173.57,249.08972Z"/><path class="cls-1" d="M111.97,229.58978l20.2-3.5h.7a3.26645,3.26645,0,0,1,2.408,1.05084,3.27641,3.27641,0,0,0-2.50806-1.15087,1.26884,1.26884,0,0,0-.6.1l-20.3,3.4a38.77,38.77,0,0,0,6.6,11.7c.69885.88006,1.44135,1.72339,2.21716,2.5365q-1.11044-1.17243-2.11706-2.43641A42.09046,42.09046,0,0,1,111.97,229.58978Z"/><path class="cls-1" d="M121.57,186.48975a40.17748,40.17748,0,0,1,11.46112-7.87616A38.61954,38.61954,0,0,0,121.57,186.48975Z"/><path class="cls-1" d="M131.17,212.78973a3.59745,3.59745,0,0,1-1.8,1.2v.1l-19.70252,5.67188.0025.02807,19.8-5.7v-.1a3.59761,3.59761,0,0,0,1.8-1.2,3.4275,3.4275,0,0,0-.4-4.7v-.1l-15.5-13.7c-.01178.01941-.0224.03925-.03412.05872L130.77,208.08978A3.33306,3.33306,0,0,1,131.17,212.78973Z"/><path class="cls-1" d="M153.10587,236.18976a2.63047,2.63047,0,0,0-.21674-.336,3.01326,3.01326,0,0,1,.18091.336Z"/><path class="cls-1" d="M168.93137,212.63342a3.4292,3.4292,0,0,0,1.83862,1.35633v-.1A3.46313,3.46313,0,0,1,168.93137,212.63342Z"/><path class="cls-1" d="M170.77,213.98975v.1l19.9,5.7q.152-1.672.16834-3.3424c-.01282,1.08911-.06873,2.172-.16834,3.24243Z"/><path class="cls-1" d="M153.22556,236.28973l9.94445,17.9c-1.3.4-2.6.8-4,1.1a40.87335,40.87335,0,0,1-21.98059-1.03491l-.01941.03491a42.47206,42.47206,0,0,0,22.1,1.1c1.4-.3,2.7-.7,4-1.1l-10-18Z"/><path class="cls-1" d="M143.95065,195.88971H143.97l.07575-1.3-.07575,1.2C143.9664,195.8241,143.95511,195.85565,143.95065,195.88971Z"/><path class="cls-1" d="M168.07,225.88971a2.20221,2.20221,0,0,0-.8-.1,2.768,2.768,0,0,0-1.3.3,3.44683,3.44683,0,0,0-1.95972,3.27606,3.43814,3.43814,0,0,1,1.95972-3.07605,3.07929,3.07929,0,0,1,1.3-.3,2.48629,2.48629,0,0,1,.8.1l20.32886,3.48779c.02282-.063.04852-.12463.0711-.1878Z"/><polygon class="cls-1" points="155.77 220.09 157.17 213.99 153.27 209.09 153.17 209.09 157.07 213.99 155.77 220.09"/><path class="cls-1" d="M178.54825,186.476l.12176-.08624a47.44251,47.44251,0,0,0-10.8-7.5v-.00006a43.32551,43.32551,0,0,0-12.7-3.8l.00586.10083a38.0416,38.0416,0,0,1,12.69416,3.7992A40.52482,40.52482,0,0,1,178.54825,186.476Z"/><polygon class="cls-1" points="147.17 221.416 150.17 222.89 155.77 220.09 150.07 222.79 147.17 221.416"/><path class="cls-1" d="M140.47,199.18976a3.38414,3.38414,0,0,0,3.31622-2.57764A3.5735,3.5735,0,0,1,140.47,199.18976Z"/><path class="cls-1" d="M145.87,163.1897a4.644,4.644,0,0,0,1.3-2,36.14358,36.14358,0,0,0-.4-7.1v-.1c-.1-.4-.1-.8-.2-1.2a10.07375,10.07375,0,0,1-.3-2.5v-1.1a4.48792,4.48792,0,0,1,2.08655-3.83289,4.40808,4.40808,0,0,0-2.68659,4.133v1.1a19.01672,19.01672,0,0,0,.3,2.5,5.01805,5.01805,0,0,1,.2,1.2v.1a36.14464,36.14464,0,0,1,.4,7.1,4.64469,4.64469,0,0,1-1.3,2l-.085,1.36041c.19513-.01886.38989-.04419.58508-.06049Z"/><path class="cls-1" d="M129.47433,168.93561a49.787,49.787,0,0,0-16.68786,11.52405c.062.04376.13244.09173.18353.13006A49.71324,49.71324,0,0,1,129.47433,168.93561Z"/><path class="cls-1" d="M188.46085,179.68976h-.1908l-.97974.7185c.02607.02778.05378.05359.07978.08143Z"/><path class="cls-1" d="M131.27,265.08978l.08026-.1427a3.0644,3.0644,0,0,0-.87793.37677C130.71884,265.241,130.983,265.17175,131.27,265.08978Z"/><path class="cls-1" d="M178.57,279.48969a4.48325,4.48325,0,0,1-2.4-2.3c0-.1-.1-.2-.1-.3-.1-.3-.3-.5-.3-.7a11.2783,11.2783,0,0,1-.8-2.4,5.64,5.64,0,0,0-.4-1.2v-.1a36.39038,36.39038,0,0,0-2.7-6.5,2.53573,2.53573,0,0,0-1.7-1.1c-.1,0-.2-.1-.3-.1-.1-.1-.2-.4-.4-.7a5.89968,5.89968,0,0,1-.4-.8,56.742,56.742,0,0,1-6.7,2,51.57726,51.57726,0,0,1-29.6-2.1l-.24127.42889A50.71029,50.71029,0,0,0,161.77,265.58978a51.61947,51.61947,0,0,0,6.7-2,5.93863,5.93863,0,0,1,.4.8c.19995.3.3.6.4.7.1,0,.2.1.3.1a2.95839,2.95839,0,0,1,1.7,1.1,36.3848,36.3848,0,0,1,2.7,6.5v.1a5.63924,5.63924,0,0,0,.4,1.2,13.49425,13.49425,0,0,0,.8,2.4c.1.2.2.5.3.7,0,.1.1.2.1.3a4.48318,4.48318,0,0,0,2.4,2.3,3.73339,3.73339,0,0,0,3.1-.1,3.25873,3.25873,0,0,0,.30572-.19141A3.74331,3.74331,0,0,1,178.57,279.48969Z"/><path class="cls-1" d="M214.67,234.1897c-.1,0-.2-.1-.4-.1s-.5-.1-.6-.1a7.8864,7.8864,0,0,1-2.3-.9c-.4-.2-.8-.3-1.2-.5h-.1a37.63184,37.63184,0,0,0-6.7-2h-.2a2.16608,2.16608,0,0,0-1.40637.47571,1.92768,1.92768,0,0,1,.8064-.1756h.2a35.35076,35.35076,0,0,1,6.7,2h.1c.4.2.8.3,1.2.5.8.3,1.5.6,2.3.9.2,0,.4.1.6.1.1,0,.3.1.4.1a4.55266,4.55266,0,0,0,3.34259-.55719A4.58079,4.58079,0,0,1,214.67,234.1897Z"/><path class="cls-1" d="M107.57,187.38971l-1.2-1.1v-.2a3.67816,3.67816,0,0,0-.8-2.1,30.92463,30.92463,0,0,0-5.8-4.1,10.90871,10.90871,0,0,1-1.1-.6,11.97409,11.97409,0,0,1-2.1-1.3,2.65066,2.65066,0,0,1-.6-.5c-.1-.1-.2-.1-.2-.2a4.58889,4.58889,0,0,1-1.7-2.8,3.88993,3.88993,0,0,1,.7-3,3.48174,3.48174,0,0,1,.95355-.81775,3.56828,3.56828,0,0,0-2.2536,4.11785,4.58888,4.58888,0,0,0,1.7,2.8c.1.1.2.1.2.2.2.2.4.3.6.5a23.9381,23.9381,0,0,0,2.1,1.3c.4.2.7.4,1.1.6a36.33021,36.33021,0,0,1,5.8,4.1,4.56324,4.56324,0,0,1,.8,2.1v.2l1.2,1.1a50.71851,50.71851,0,0,0-8.01324,35.39154l.61328-.19165A51.23954,51.23954,0,0,1,107.57,187.38971Z"/><path class="cls-1" d="M97.77005,223.58972l.03619-.03625-.43621.13635-.2.2a5.75081,5.75081,0,0,1-1.09027,1.24664c.06165-.01757.12921-.02844.19031-.04675A3.60669,3.60669,0,0,0,97.77005,223.58972Z"/><path class="cls-1" d="M85.47,234.78986a.36725.36725,0,0,0,.3-.1,6.37792,6.37792,0,0,0,.7-.2,9.8891,9.8891,0,0,0,2.4-.9c.4-.2.8-.3,1.2-.5h.1a37.63135,37.63135,0,0,1,6.7-2,3.52321,3.52321,0,0,1,2.1.7c.1,0,.1.1.2.1l1.7-.3a50.95414,50.95414,0,0,0,22.7,28.3l-.7,1.7a5.38183,5.38183,0,0,1,.4,2.2c-.2,1.6-1.5,3.6-3,6.1v-.00012a8.65231,8.65231,0,0,1-.7,1c-.5.7-.9,1.3-1.4,2.1a4.8698,4.8698,0,0,0-.3.7c-.1.1-.1.3-.2.4a4.11808,4.11808,0,0,0,1.7,5.6,4.19241,4.19241,0,0,0,1.6.4,4.02092,4.02092,0,0,0,2.08276-.60449,3.93344,3.93344,0,0,1-1.48272.30438,3.16678,3.16678,0,0,1-1.6-.4,4.23664,4.23664,0,0,1-1.7-5.6c.1-.1.1-.2.2-.4s.2-.5.3-.7a15.33365,15.33365,0,0,1,1.4-2.1c.2-.3.5-.7.7-1a39.55548,39.55548,0,0,0,3.6-6.4,4.35115,4.35115,0,0,1-1-1.89991l.7-1.7a51.7186,51.7186,0,0,1-22.7-28.3l-1.7.3c-.1,0-.1-.1-.2-.1a3.52335,3.52335,0,0,0-2.1-.7,35.35226,35.35226,0,0,0-6.7,2h-.1c-.4.2-.8.3-1.2.5-.8.3-1.5.6-2.4.9-.2.1-.5.1-.7.2a.36724.36724,0,0,0-.3.1,4.2297,4.2297,0,0,1-5.1-2.9,3.88907,3.88907,0,0,1,1.63764-4.01556A4.14756,4.14756,0,0,0,80.37,231.88983,4.22966,4.22966,0,0,0,85.47,234.78986Z"/><path class="cls-1" d="M199.43839,231.57a11.58516,11.58516,0,0,1,1.23162.21984c.1-.1.2-.1.2-.2.076-.04565.14837-.09509.22155-.14361-.36786-.08551-1.00854-.171-1.52154-.25653C199.52884,231.3175,199.4805,231.44244,199.43839,231.57Z"/><path class="cls-1" d="M196.47006,174.38965l.1-.1a6.46789,6.46789,0,0,0,.8-.9,15.27709,15.27709,0,0,1,1.8-1.8,2.65,2.65,0,0,0,.6-.5c.1-.1.2-.1.2-.2a4.90189,4.90189,0,0,1,.52234-.34131,4.72306,4.72306,0,0,0-1.12237.64142c-.1.1-.2.1-.2.2-.2.2-.5.4-.6.5-.7.6-1.2,1.2-1.8,1.8-.3.3-.5.6-.8.9l-.1.1a38.16038,38.16038,0,0,1-5.01294,4.56042,2.01834,2.01834,0,0,0,.413-.16052A42.4015,42.4015,0,0,0,196.47006,174.38965Z"/><path class="cls-1" d="M216.17,351.28973a17.93789,17.93789,0,0,0,3.6-.4v-.00006a8.81146,8.81146,0,0,0,2.6-.9l-.85932-4.96485c-.73138.17395-1.38971.27893-2.04071.465v-.00006a16.35645,16.35645,0,0,1-2.2.2,3.81554,3.81554,0,0,1-2.60937-.76251,2.08535,2.08535,0,0,1-.49067-.53754,6.22825,6.22825,0,0,1-.7-3.3v-8.2h8v-5.4h-7.9v-.1h-.1v-6.78333l-6.5,1.08338v19.7a17.28165,17.28165,0,0,0,.4,4.1,8.60333,8.60333,0,0,0,1.48712,3.18121,8.71919,8.71919,0,0,0,2.81286,1.91876A11.81782,11.81782,0,0,0,216.17,351.28973Z"/><path class="cls-1" d="M115.77,336.68976c.006-.03583.01343-.06488.01941-.1h-.01935Z"/><path class="cls-1" d="M251.37,333.78967a8.36019,8.36019,0,0,0,.5,2.9,5.95627,5.95627,0,0,0,1.4,2.1,8.00623,8.00623,0,0,0,2.1,1.5c.9.4,1.8.8,2.9,1.2a22.03293,22.03293,0,0,1,3,1.4c.7.4,1,.8,1,1.4a1.48622,1.48622,0,0,1-.8,1.4,5.611,5.611,0,0,1-2.6.4l-.04865-.0011c-.01813.00006-.033.00122-.05133.00122-.04431,0-.09113-.00494-.1358-.00555a13.93867,13.93867,0,0,1-2.93744-.32471c-.14234-.02344-.28424-.046-.42676-.06976-.787-.19678-1.5625-.441-2.32135-.69562-.08826-.0296-.17395-.05969-.26135-.08966-.27582-.09448-.558-.18646-.82386-.28265l-1.0935,5.36786c.5.2,1.5.5,2.9.9.1543.04407.32672.07178.48847.10889a25.26947,25.26947,0,0,0,4.44348.3872c.07153.00031.13562.003.20813.003,3.08105-.00531,5.56738-.60431,7.25989-1.799l.00006.00006a6.14974,6.14974,0,0,0,2.6-5.3,9.47259,9.47259,0,0,0-.4-2.6,4.66448,4.66448,0,0,0-1.2-2,6.71436,6.71436,0,0,0-2.2-1.7,21.04391,21.04391,0,0,0-3.6-1.6c-.7-.3-1.3-.5-1.8-.7a5.42214,5.42214,0,0,1-1.1-.6,2.65148,2.65148,0,0,1-.5-.6,1.48318,1.48318,0,0,1-.1-.7c0-.71185.42615-1.21038,1.29077-1.47637.01325-.004.02875-.0069.04218-.01087a4.05055,4.05055,0,0,1,.48553-.1134c.02637-.00452.057-.00678.08392-.011.17371-.027.35566-.0498.55524-.064.02863-.002.0614-.00177.09058-.00348.17749-.01044.355-.02094.55176-.02094.01361,0,.02533.00183.03888.00183.02154-.00012.0393-.002.06109-.002a13.85857,13.85857,0,0,1,3,.3,15.75939,15.75939,0,0,1,2.408.66583l1.19208-5.16571a15.272,15.272,0,0,0-3.1-.8,18.30077,18.30077,0,0,0-4.04327-.39892c-2.878.0061-5.065.60547-6.6568,1.8988A6.316,6.316,0,0,0,251.37,333.78967Z"/><path class="cls-1" d="M76.87,327.38977h-6.5v18h-.1c-.4.1-.9.1-1.4.2h-1.5a3.62334,3.62334,0,0,1-3.2-1.4c-.6-.9-.8-2.5-.8-4.6v-12.2h-6.6v12.9a19.715,19.715,0,0,0,.5,4.4,9.57317,9.57317,0,0,0,.41919,1.39905,7.76445,7.76445,0,0,0,.47,1.01922c.10608.20032.22937.37921.3432.57056.11389.17419.2348.34521.36762.51117a7.93051,7.93051,0,0,0,3.1,2.2,14.14163,14.14163,0,0,0,5,.8,34.34913,34.34913,0,0,0,5.6-.4c1.8-.3,3.3-.6,4.4-.9h-.1Z"/><path class="cls-1" d="M174.47,333.08972a7.1652,7.1652,0,0,0-1.5-3.3,6.81517,6.81517,0,0,0-3.2-2.2,13.93793,13.93793,0,0,0-4.87232-.79889,34.17527,34.17527,0,0,0-5.52771.399c-1.8.3-3.3.6-4.4.9v22.6h6.5v-18a6.14759,6.14759,0,0,1,1.4-.1,7.57091,7.57091,0,0,1,1.5-.1l.01928.0014c.02692,0,.05377-.00134.08069-.00134,1.6,0,2.6.4,3.2,1.3a9.44875,9.44875,0,0,1,.8,4.5v12.4h6.5v-13.2A19.71152,19.71152,0,0,0,174.47,333.08972Z"/><path class="cls-1" d="M104.27,334.08972a10.157,10.157,0,0,0-1.9-3.9,7.54205,7.54205,0,0,0-3.2-2.4,10.17054,10.17054,0,0,0-4.4-.9,10.89929,10.89929,0,0,0-2.6.3,8.95425,8.95425,0,0,0-2.3.8v-11.7l-6.6,1.1v32.6c.5.1,1.2.3,2,.5.8.1,1.6.3,2.4.4a23.02378,23.02378,0,0,0,2.6.3,21.75715,21.75715,0,0,0,2.5.1,13.8709,13.8709,0,0,0,5.2-.8,10.08267,10.08267,0,0,0,3.8-2.5,9.83137,9.83137,0,0,0,1.17895-1.44837,13.1821,13.1821,0,0,0,.87726-1.58459c.12348-.28308.24414-.56806.34381-.867a17.712,17.712,0,0,0,.72431-3.27051c.046-.55908.07568-1.13073.07568-1.72955A15.91218,15.91218,0,0,0,104.27,334.08972Zm-7.4,9.7a4.90341,4.90341,0,0,1-4.1,1.9h-1.7c-.5-.1-.9-.1-1.2-.2v-12.1a4.79024,4.79024,0,0,1,1.6-.7,6.44906,6.44906,0,0,1,2-.3v.00006c.01624,0,.02936.00409.04553.00421.01715-.00018.03748-.00427.05445-.00427,3.1,0,4.7,2.1,4.7,6.4A8.98608,8.98608,0,0,1,96.87,343.78973Z"/><path class="cls-1" d="M38.27,350.68976v-10.2c.03241.02777.06726.05883.1.087v-.087a15.20775,15.20775,0,0,1,2.2,2.2,19.86108,19.86108,0,0,1,2.2,2.7,27.50219,27.50219,0,0,1,1.9,2.8c.6.9,1.1,1.7,1.6,2.5h7.5a30.07762,30.07762,0,0,0-1.9-3.3c-.6-1.1-1.5-2.3-2.3-3.5-.9-1.2-1.8-2.3-2.8-3.4a39.60933,39.60933,0,0,0-2.8-2.9l.11646-.1167c1.6856-1.68615,3.19238-3.28125,4.60949-4.79168.05732-.06433.11707-.12708.17408-.19165.23425-.26545.48-.53443.71832-.8003,1.05639-1.17822,2.12768-2.37286,3.18365-3.59924.23151-.26892.4704-.52734.698-.80048H45.58823c-.38715.48121-.85462,1.04242-1.41822,1.7-.5.7-1.1,1.4-1.8,2.2-.6.8-1.3,1.5-2,2.3-.7.7-1.3,1.5-2,2.2v-.01044c-.03174.03638-.06885.074-.1.11041v-19.6l-6.5,1.08331v33.41669Z"/><path class="cls-1" d="M130.87,339.98987a1.9724,1.9724,0,0,0,0-1.1c0-4-1-7-2.9-9a10.1767,10.1767,0,0,0-7.9-3.1,12.49493,12.49493,0,0,0-4.2.8,11.36316,11.36316,0,0,0-3.54724,2.3523c-.18512.1875-.36413.39062-.54083.59881-.05029.05927-.10339.11164-.15289.17261-.14771.18311-.28644.38281-.42536.58161-.09057.12786-.18426.24945-.27075.38366a11.05376,11.05376,0,0,0-1.06286,2.1109,14.90394,14.90394,0,0,0-.9,5.4,15.07132,15.07132,0,0,0,.7,4.8,10.89711,10.89711,0,0,0,2.3,3.9,9.73173,9.73173,0,0,0,3.9,2.5,15.47011,15.47011,0,0,0,5.5.9,20.90887,20.90887,0,0,0,2.5-.1,15.7216,15.7216,0,0,0,2.3-.4c.7-.1,1.4-.3,2-.4.53662-.17889.98468-.35376,1.2898-.46106l-.88983-5.33887a13.02883,13.02883,0,0,1-2.9.8,21.86176,21.86176,0,0,1-3.6.3,7.50952,7.50952,0,0,1-4.5-1.2,4.539,4.539,0,0,1-1.9-3.3h.11853c-.00329-.03485-.016-.06482-.01855-.1001h15.00836c.014-.36664.09168-.73328.09168-1.09991Zm-15-3.30011c.00623-.03125.014-.06806.02033-.1h-.10089c-.006.03516-.01343.06421-.01941.1l.00006-.1h.01935a7.19434,7.19434,0,0,1,.38061-1.5,5.30156,5.30156,0,0,1,.8-1.5,6.42179,6.42179,0,0,1,1.3-1,3.80707,3.80707,0,0,1,1.9-.4c.01844,0,.03376.00177.05194.00189.01612-.00012.03193-.00189.048-.00189a3.57579,3.57579,0,0,1,1.9.4,3.24911,3.24911,0,0,1,1.3,1,5.42943,5.42943,0,0,1,.9,1.5,4.14525,4.14525,0,0,1,.3,1.6Z"/><path class="cls-1" d="M151.26968,327.68958c-.39984-.09992-.7998-.29975-1.29937-.39979l-.00031-.00006h-.00006c-.49994-.1-.99994-.1-1.49988-.2H148.47c-.5-.1-1-.1-1.5-.2a6.1519,6.1519,0,0,0-1.3-.1,22.3089,22.3089,0,0,0-5.4.6,30.79121,30.79121,0,0,0-4.2,1.2v22.1h6.6v-17.9a3.9186,3.9186,0,0,1,1.3-.2,8.639,8.639,0,0,1,1.5-.1,10.89938,10.89938,0,0,1,2.6.3c.8.1,1.49994.3,2.09991.4l1.1-5.5Z"/><path class="cls-1" d="M89.97,333.38971a5.9297,5.9297,0,0,1,1.6-.7,7.48344,7.48344,0,0,1,1.94555-.29572c-.01617-.00012-.02929-.00421-.04553-.00421v-.00006a6.44906,6.44906,0,0,0-2,.3,4.79024,4.79024,0,0,0-1.6.7v12.1c.3.1.7.1,1.2.2h.1c-.5-.1-.9-.1-1.2-.2Z"/><path class="cls-1" d="M123.47,333.58972a3.24911,3.24911,0,0,0-1.3-1,3.57579,3.57579,0,0,0-1.9-.4c-.01611,0-.03192.00177-.048.00189a3.52331,3.52331,0,0,1,1.84809.39807,4.48583,4.48583,0,0,1,1.3,1,3.92464,3.92464,0,0,1,.8,1.4,4.52859,4.52859,0,0,1,.3,1.6h-8.57971c-.00629.032-.0141.06879-.02033.1h8.8a4.14525,4.14525,0,0,0-.3-1.6A5.42943,5.42943,0,0,0,123.47,333.58972Z"/><path class="cls-1" d="M259.103,332.30255a4.05055,4.05055,0,0,1,.48553-.1134"/><path class="cls-1" d="M259.67245,332.17816c.17371-.027.35566-.0498.55524-.064"/><path class="cls-1" d="M260.31827,332.11072c.18628-.01135.38232-.01807.59064-.01911-.01355,0-.02527-.00183-.03888-.00183C260.67331,332.08978,260.49576,332.10028,260.31827,332.11072Z"/><polygon class="cls-1" points="31.77 317.273 31.67 317.29 31.67 350.69 31.77 350.69 31.77 317.273"/><path class="cls-1" d="M40.37,333.48975c.7-.8,1.4-1.5,2-2.3.7-.8,1.3-1.5,1.8-2.2.5636-.6576,1.03107-1.21881,1.41822-1.7H45.57q-.6.75-1.5,1.8c-.6.7-1.2,1.4-1.8,2.2-.7.7-1.3,1.5-2,2.3-.66364.75842-1.32153,1.42572-1.9,2.0896v.01044C39.07,334.98975,39.67,334.18976,40.37,333.48975Z"/><path class="cls-1" d="M257.77005,333.78979a1.48318,1.48318,0,0,0,.1.7,2.65148,2.65148,0,0,0,.5.6,5.42214,5.42214,0,0,0,1.1.6c.5.2,1.1.4,1.8.7a21.04391,21.04391,0,0,1,3.6,1.6,6.71436,6.71436,0,0,1,2.2,1.7,4.66448,4.66448,0,0,1,1.2,2,9.47259,9.47259,0,0,1,.4,2.6,6.14974,6.14974,0,0,1-2.6,5.3l-.00006-.00006c-1.69251,1.1947-4.17884,1.7937-7.25989,1.799l.05994.00086c3.2,0,5.6-.6,7.3-1.8a5.81285,5.81285,0,0,0,2.6-5.3,7.10419,7.10419,0,0,0-.4-2.6,5.92906,5.92906,0,0,0-1.2-2v.00006a7.98222,7.98222,0,0,0-2.2-1.7,31.71928,31.71928,0,0,0-3.6-1.6c-.7-.3-1.3-.5-1.8-.7a10.90961,10.90961,0,0,1-1.1-.6,1.33306,1.33306,0,0,1-.5-.6,1.48225,1.48225,0,0,1-.1-.7,1.45562,1.45562,0,0,1,1.19086-1.47625C258.1962,332.57941,257.77005,333.07794,257.77005,333.78979Z"/><path class="cls-1" d="M251.87,344.58966l-.00654.03217c.26587.09619.548.18817.82386.28265C252.4183,344.80786,252.14731,344.7052,251.87,344.58966Z"/><path class="cls-1" d="M258.82138,346.08856c-.06329-.00012-.12427-.0036-.18713-.00433.04467.00061.09149.00555.1358.00555C258.78836,346.08978,258.80325,346.08862,258.82138,346.08856Z"/><path class="cls-1" d="M52.772,328.09021c-1.056,1.22638-2.12726,2.421-3.18365,3.59924"/><path class="cls-1" d="M48.696,332.6814c-1.41711,1.51043-2.92389,3.10553-4.60949,4.79168C45.76993,335.78955,47.2789,334.27246,48.696,332.6814Z"/><path class="cls-1" d="M258.602,351.38574a25.26947,25.26947,0,0,1-4.44348-.3872A20.70554,20.70554,0,0,0,258.602,351.38574Z"/><path class="cls-1" d="M42.77,345.38977a19.86108,19.86108,0,0,0-2.2-2.7,15.20775,15.20775,0,0,0-2.2-2.2v.087a14.69909,14.69909,0,0,1,2.1,2.113c.8.9,1.5,1.8,2.2,2.7s1.3,1.9,1.9,2.8,1.2,1.8,1.6,2.5h.1c-.5-.8-1-1.6-1.6-2.5A27.50219,27.50219,0,0,0,42.77,345.38977Z"/><path class="cls-1" d="M255.69681,345.75952c-.10932-.02435-.21594-.04211-.32678-.06982-.83271-.20819-1.61811-.4206-2.42133-.69556.75885.25458,1.5343.49884,2.32135.69562C255.41257,345.7135,255.55447,345.73608,255.69681,345.75952Z"/><path class="cls-1" d="M110.93289,331.67883c.08649-.13421.18018-.2558.27075-.38366"/><path class="cls-1" d="M159.37,327.18982a34.17527,34.17527,0,0,1,5.52771-.399l-.02764-.0011a33.55721,33.55721,0,0,0-5.6.4c-1.8.3-3.2.6-4.4.9v22.6h.1v-22.6C156.07,327.78979,157.57,327.48981,159.37,327.18982Z"/><path class="cls-1" d="M111.629,330.71356c.0495-.061.1026-.11334.15289-.17261"/><path class="cls-1" d="M221.51071,345.02484l.85932,4.96485a8.81146,8.81146,0,0,1-2.6.9v.00006a17.93789,17.93789,0,0,1-3.6.4,11.81782,11.81782,0,0,1-4.5-.7,8.71919,8.71919,0,0,1-2.81286-1.91876l.01288.0188a6.85153,6.85153,0,0,0,2.9,2,11.81822,11.81822,0,0,0,4.5.7,12.76815,12.76815,0,0,0,3.6-.4,17.31193,17.31193,0,0,0,2.7-.8l-.9-5.2C221.614,345.00378,221.56577,345.01172,221.51071,345.02484Z"/><path class="cls-1" d="M167.67,333.78979c-.6-.9-1.6-1.3-3.2-1.3-.02692,0-.05377.00134-.08069.00134a3.56666,3.56666,0,0,1,3.18073,1.29858c.6.9.8,2.4.8,4.5v12.4h.1v-12.4A9.44875,9.44875,0,0,0,167.67,333.78979Z"/><polygon class="cls-1" points="149.97 327.29 149.97 327.29 149.97 327.29 149.97 327.29"/><path class="cls-1" d="M120.17,326.6897v.00006a12.49466,12.49466,0,0,0-4.2.8,10.3326,10.3326,0,0,0-3.6,2.4c-.01624.01623-.03113.036-.04731.05243a11.36316,11.36316,0,0,1,3.54724-2.3523,12.49493,12.49493,0,0,1,4.2-.8,10.1767,10.1767,0,0,1,7.9,3.1c1.9,2,2.9,5,2.9,9a1.9724,1.9724,0,0,1,0,1.1l.00007-.00012c0,.36663-.07764.73327-.09168,1.09991H130.87c0-.4.1-.8.1-1.2v-1.3c0-3.9-1-6.9-2.9-9A10.80947,10.80947,0,0,0,120.17,326.6897Z"/><path class="cls-1" d="M267.57,327.88977l-1.19208,5.16571c.02948.012.06323.02185.092.03418l1.2-5.2a15.27138,15.27138,0,0,0-3.1-.8,18.40378,18.40378,0,0,0-4.1-.4l-.04321.00116a18.30077,18.30077,0,0,1,4.04327.39892A15.272,15.272,0,0,1,267.57,327.88977Z"/><polygon class="cls-1" points="151.27 327.69 150.17 333.19 150.17 333.19 151.27 327.69 151.27 327.69 151.27 327.69"/><rect class="cls-1" x="76.87003" y="327.38977" width="0.09998" height="22.5"/><path class="cls-1" d="M56.77,340.28973v.1a19.71473,19.71473,0,0,0,.5,4.4,9.0543,9.0543,0,0,0,.41919,1.29908,9.57317,9.57317,0,0,1-.41919-1.39905A19.715,19.715,0,0,1,56.77,340.28973Z"/><polygon class="cls-1" points="213.57 327.39 213.57 320.59 213.47 320.606 213.47 327.39 213.57 327.39"/><path class="cls-1" d="M213.47,332.88971v8.2a6.22825,6.22825,0,0,0,.7,3.3,2.08535,2.08535,0,0,0,.49067.53754,2.078,2.078,0,0,1-.39063-.4375,6.22827,6.22827,0,0,1-.7-3.3v-8.2h8v-5.5h-.1v5.4Z"/><path class="cls-1" d="M66.97,351.18976a14.14163,14.14163,0,0,1-5-.8,7.93051,7.93051,0,0,1-3.1-2.2c-.13282-.166-.25373-.337-.36762-.51117.122.205.23505.42175.36762.61114a7.03628,7.03628,0,0,0,3.1,2.2,14.14164,14.14164,0,0,0,5,.8,33.55619,33.55619,0,0,0,5.6-.4c1.8-.3,3.2-.6,4.4-.9v-.1c-1.1.3-2.6.6-4.4.9A34.34913,34.34913,0,0,1,66.97,351.18976Z"/><path class="cls-1" d="M58.50241,347.67859c-.11383-.19135-.23712-.37024-.3432-.57056C58.26675,347.302,58.38052,347.49219,58.50241,347.67859Z"/><path class="cls-1" d="M117.57,344.48975a7.50952,7.50952,0,0,0,4.5,1.2,21.86176,21.86176,0,0,0,3.6-.3,13.02883,13.02883,0,0,0,2.9-.8l.88983,5.33887c.036-.0127.07855-.02838.11023-.03894l-.9-5.4a13.02562,13.02562,0,0,1-2.9.8,20.98253,20.98253,0,0,1-3.6.3,7.50882,7.50882,0,0,1-4.5-1.2,4.36728,4.36728,0,0,1-1.88147-3.19989H115.67A4.539,4.539,0,0,0,117.57,344.48975Z"/><path class="cls-1" d="M103.8262,344.95679c.11823-.25208.238-.50257.34381-.767a11.592,11.592,0,0,0,.72431-3.37049,17.712,17.712,0,0,1-.72431,3.27051C104.07034,344.38873,103.94968,344.67371,103.8262,344.95679Z"/><path class="cls-1" d="M97.97,350.48975a13.8709,13.8709,0,0,1-5.2.8,21.75715,21.75715,0,0,1-2.5-.1,23.02378,23.02378,0,0,1-2.6-.3c-.8-.1-1.6-.3-2.4-.4-.8-.2-1.5-.4-2-.5v.1a11.69511,11.69511,0,0,0,2,.5c.8.1,1.6.3,2.4.4.9.1,1.7.2,2.6.3a21.755,21.755,0,0,0,2.5.1,16.69439,16.69439,0,0,0,5.2-.8,10.08244,10.08244,0,0,0,3.8-2.5,12.03215,12.03215,0,0,0,1.17895-1.54834,9.83137,9.83137,0,0,1-1.17895,1.44837A10.08267,10.08267,0,0,1,97.97,350.48975Z"/><path class="cls-1" d="M247.87,6.58978H52.37a45.77292,45.77292,0,0,0-45.6,45.6v341.7h286.7v-341.7A45.70819,45.70819,0,0,0,247.87,6.58978Zm-31.4,38.6H216.47a10.56331,10.56331,0,0,1,2-3.8,8.28257,8.28257,0,0,1,2.15143-1.85846c.158-.10174.32239-.19946.49011-.29333a9.31944,9.31944,0,0,1,1.15851-.64826,12.30681,12.30681,0,0,1,4.4-.8,8.753,8.753,0,0,1,2.4.3,7.67245,7.67245,0,0,1,1.59991.45654v-9.8565l.6-.10156v-.19843l6.5-1.1V60.58978c-.16486.05493-.33093.10181-.49994.14582v.15417c-.6.2-1.2.3-2,.5-.21106.02637-.42206.06885-.63312.10547q-.667.13375-1.33392.22235c-.14435.02338-.28864.05408-.433.07214-.8.1-1.6.2-2.5.3a21.74168,21.74168,0,0,1-2.5.1l-.02607-.0008-.074.0008c-.09918,0-.19159-.00977-.28967-.01142a14.43882,14.43882,0,0,1-3.913-.52923c-.30438-.08087-.60791-.16284-.8974-.25934a12.30213,12.30213,0,0,1-3.8-2.4,9.699,9.699,0,0,1-2.3-3.8,15.41786,15.41786,0,0,1-.8-5A19.46983,19.46983,0,0,1,216.46994,45.18976ZM190.62625,48.771q.05622-.73123.16876-1.40625a12.61335,12.61335,0,0,1,.38117-1.59345,10.89611,10.89611,0,0,1,.3938-1.18158,13.20187,13.20187,0,0,1,2.5-3.8,10.14447,10.14447,0,0,1,3.5-2.3,11.50343,11.50343,0,0,1,4.1-.8,10.245,10.245,0,0,1,7.8,3c1.8,2,2.8,4.9,2.8,8.8v1.2c0,.4-.1.8-.1,1.2h-.07141c-.01147.10034-.02783.21039-.02813.29492l-.00043.00507H197.54263a4.61886,4.61886,0,0,0,1.8274,2.9,7.5092,7.5092,0,0,0,4.5,1.2,20.67872,20.67872,0,0,0,3.5-.3,13.64465,13.64465,0,0,0,2.8-.8l.9,5.3c-.06806.0227-.14923.05188-.2367.08368l.03675.2163-.00025.00006a4.563,4.563,0,0,1-1.39978.49994,11.69112,11.69112,0,0,1-2,.5c-.7.1-1.5.2-2.3.3a20.0877,20.0877,0,0,1-2.5.1,14.532,14.532,0,0,1-5.4-.9l-.00214-.001a10.08093,10.08093,0,0,1-3.79785-2.499,9.0644,9.0644,0,0,1-2.2-3.8l-.00159-.00556a13.8796,13.8796,0,0,1-.693-4.52118c-.00049-.0589-.00543-.11395-.00543-.17328Q190.57,49.5022,190.62625,48.771ZM179.67,28.88977a3.77533,3.77533,0,0,1,2.7-1,4.06387,4.06387,0,0,1,1.67285.35492,3.25866,3.25866,0,0,1,1.5271.845,3.489,3.489,0,0,1,1.2,2.8c0,.01776-.00427.03241-.00446.05.00019.01758.00446.03222.00446.05a3.489,3.489,0,0,1-1.2,2.8,3.61973,3.61973,0,0,1-2.7,1,4.03523,4.03523,0,0,1-2.1955-.63281,3.20175,3.20175,0,0,1-1.00452-.66717,3.48913,3.48913,0,0,1-1.2-2.8A3.489,3.489,0,0,1,179.67,28.88977Zm-.6,32.5v-23.1h6.5v.3h.6v23.1h-6.5v-.3Zm-18.2-24.4a9.78107,9.78107,0,0,1,2.5-7.1c1.7-1.7,4.2-2.6,7.5-2.6a12.62384,12.62384,0,0,1,3,.3c.8.2,1.4.5,2,.7l-.01923.08912c.05682.02441.10455.053.15814.07891.1211.04621.24158.09211.36109.132l-1.1,5.1c-.0307-.01227-.06293-.01764-.09369-.02918l-.00629.02918c-.14892-.05957-.29889-.11719-.4505-.17145a9.90547,9.90547,0,0,0-.98028-.21515c-.05683-.00366-.1106-.01343-.16925-.01343a9.37591,9.37591,0,0,0-1.63129-.09893,5.57917,5.57917,0,0,0-1.96869.29895,2.53956,2.53956,0,0,0-1.3.9,3.69374,3.69374,0,0,0-.7,1.4,8.80949,8.80949,0,0,0-.2,1.7v.8h7.6v.3h.5v5.4h-8v17.6h-.2v.00006h-6.5v-.3h-.3Zm-12.3-8.1a3.61952,3.61952,0,0,1,2.7-1,4.06313,4.06313,0,0,1,1.67309.355,3.25821,3.25821,0,0,1,1.52692.845c.02985.02613.04962.05744.07831.08411.007.0061.01471.0097.02173.01587a3.489,3.489,0,0,1,1.2,2.8,3.489,3.489,0,0,1-1.2,2.8,3.61973,3.61973,0,0,1-2.7,1,4.04655,4.04655,0,0,1-2.13807-.59106,3.97987,3.97987,0,0,1-1.16192-.70892,3.48892,3.48892,0,0,1-1.2-2.8A3.48882,3.48882,0,0,1,148.57,28.88977Zm-.5,32.5v-23.1h6.5v.3h.5v23.1h-6.5v-.3Zm-19.6-28.8,6.5-1.1v.2677l.4-.06769v.01691l.1-.01691v6.6h7.3v.2h.5v5.4h-7.8v8.1a6.22811,6.22811,0,0,0,.7,3.3,2.20721,2.20721,0,0,0,.57965.60132,4.71822,4.71822,0,0,0,1.82038.29871,16.35733,16.35733,0,0,0,2.2-.2,11.696,11.696,0,0,0,2-.5l.07031.39843c.1081-.03375.22693-.06421.32965-.09845l.005.02839c.03009-.00989.06543-.0185.095-.02839l.9,5.1a15.97461,15.97461,0,0,1-2.6.8,12.76773,12.76773,0,0,1-3.6.4c-.01782,0-.0329-.00146-.05066-.00152-.01745.00006-.0318.00158-.04938.00158a10.9577,10.9577,0,0,1-4.4-.7,7.638,7.638,0,0,1-1.67432-.9588A5.69626,5.69626,0,0,1,130.27,59.08972h.00006a6.40672,6.40672,0,0,1-1.4-3,17.83112,17.83112,0,0,1-.4-4.1Zm-18.3,6.8c1.1-.4,2.5-.8,4.1-1.2a28.08284,28.08284,0,0,1,5.3-.5c.4,0,.8.1,1.3.1.5.1,1,.1,1.5.2l1.5.3c.5.1.9.3,1.3.4l-.02612.12817c.17975.064.35431.12885.52612.17182l-.01886.09271.01886.00732-1.1,5.4c-.6-.1-1.3-.3-2.1-.5a10.14377,10.14377,0,0,0-2.5-.2,8.633,8.633,0,0,0-1.5.1,10.50756,10.50756,0,0,1-1.3.2v17.6h-6.5v-.5h-.5Zm-25.8,5.2a13.20064,13.20064,0,0,1,2.5-3.8,10.14391,10.14391,0,0,1,3.5-2.3,11.50281,11.50281,0,0,1,4.1-.8,10.98277,10.98277,0,0,1,6.27979,1.71454,9.06761,9.06761,0,0,1,2.0202,1.58545c1.9,2,2.8,4.9,2.8,8.8v1.2c0,.5-.1.9-.1,1.2H90.67a4.67962,4.67962,0,0,0,1.87323,3.17608,7.95209,7.95209,0,0,0,4.02674.92389,20.67758,20.67758,0,0,0,3.5-.3,13.6445,13.6445,0,0,0,2.8-.8l.07861.46289c.1463-.05408.29382-.10822.42139-.1629l.9,5.3a4.56422,4.56422,0,0,1-1.4.5,11.69277,11.69277,0,0,1-2,.5c-.35.05-.725.1-1.11249.15s-.78748.1-1.1875.15l-.001.00006a20.10263,20.10263,0,0,1-2.498.09992H96.07q-.78745,0-1.51874-.05628A13.14074,13.14074,0,0,1,90.67,61.28973c-.26849-.10742-.52765-.22729-.78-.35534a11.47193,11.47193,0,0,1-1.3919-.76923A8.90387,8.90387,0,0,1,86.37,58.48975a8.48808,8.48808,0,0,1-2.2-3.8,14.055,14.055,0,0,1-.7-4.7A14.53227,14.53227,0,0,1,84.37,44.58972Zm-21,.8a10.89648,10.89648,0,0,1,2.3-3.9,9.91283,9.91283,0,0,1,3.7-2.6,11.4588,11.4588,0,0,1,5-1c.1253,0,.24041.00537.36212.0072.04736-.00049.09015-.0072.13788-.0072a17.92261,17.92261,0,0,1,3.4.3,17.10184,17.10184,0,0,1,3,.9l-.04059.15076c.04688.01831.09375.03046.14063.04919l-1.4,5.2c-.6-.2-1.3-.4-2-.6a10.07381,10.07381,0,0,0-2.5-.3,5.10773,5.10773,0,0,0-4.3,1.8,7.51073,7.51073,0,0,0-1.4,4.7,9.01351,9.01351,0,0,0,.68066,3.78125,4.65063,4.65063,0,0,0,.51935.81873c.86755,1.0603,2.30017,1.65039,4.462,1.69195.657-.01953,1.44342-.10369,2.238-.19195a10.27525,10.27525,0,0,0,2.5-.7l.02948.17352q.23576-.08579.47052-.17352l.03785.2229.06213-.02289.9,5.3a13.6447,13.6447,0,0,1-2.8.8,17.40167,17.40167,0,0,1-8.6186-.30615A10.912,10.912,0,0,1,69.07,61.08972a11.19363,11.19363,0,0,1-3.7-2.6,10.27412,10.27412,0,0,1-2.1-3.6,15.07168,15.07168,0,0,1-.7-4.8A14.48557,14.48557,0,0,1,63.37,45.38977Zm221.6,341H14.17v-304.6h270.8Z"/><path class="cls-1" d="M161.17,37.28973h.1a9.78134,9.78134,0,0,1,2.5-7.1c1.7-1.8,4.2-2.6,7.5-2.6.02112,0,.03967.00128.06067.00135l.03937-.00141a12.62037,12.62037,0,0,1,3,.3,7.92319,7.92319,0,0,1,.76458.23761,6.96128,6.96128,0,0,1,.71619.25147l.01923-.08912c-.6-.2-1.2-.5-2-.7a12.62384,12.62384,0,0,0-3-.3c-3.3,0-5.8.9-7.5,2.6a9.78107,9.78107,0,0,0-2.5,7.1v24.3h.3Z"/><path class="cls-1" d="M93.47,55.91479a7.41682,7.41682,0,0,0,2.25.6,11.56879,11.56879,0,0,0,1.35.075l.00287-.00012a20.68642,20.68642,0,0,0,3.49426-.29956l.00281-.00037.00122-.00024a14.49034,14.49034,0,0,0,2.37744-.63684l-.07861-.46289a13.6445,13.6445,0,0,1-2.8.8,20.67758,20.67758,0,0,1-3.5.3,7.95209,7.95209,0,0,1-4.02674-.92389c.01.00739.01673.01661.0268.02393A5.30062,5.30062,0,0,0,93.47,55.91479Z"/><path class="cls-1" d="M141.17,56.28973a10.76381,10.76381,0,0,0,1.67035-.40155l-.07031-.39843a11.696,11.696,0,0,1-2,.5,16.35733,16.35733,0,0,1-2.2.2,4.71822,4.71822,0,0,1-1.82038-.29871,3.77666,3.77666,0,0,0,2.276.5954A18.59684,18.59684,0,0,0,141.17,56.28973Z"/><path class="cls-1" d="M78.17,56.18976a8.69147,8.69147,0,0,0,2.02948-.52649L80.17,55.48975a10.27525,10.27525,0,0,1-2.5.7c-.79461.08826-1.58105.17242-2.238.19195.08081.00153.15515.00806.238.00806A22.86435,22.86435,0,0,0,78.17,56.18976Z"/><path class="cls-1" d="M193.96719,41.0929l.00281-.00318a10.33814,10.33814,0,0,1,2.54529-1.8703,9.48017,9.48017,0,0,1,.95471-.42969,11.95789,11.95789,0,0,1,3.05158-.7453,10.21709,10.21709,0,0,1,1.0484-.05468H201.57a13.0718,13.0718,0,0,1,3.41717.42187,9.853,9.853,0,0,1,1.95.75,9.01621,9.01621,0,0,1,1.6875,1.125,9.275,9.275,0,0,1,.7453.70313c1.9,2,2.8,4.9,2.8,8.8v1.2a7.26828,7.26828,0,0,1-.07141.9H212.17c0-.4.1-.8.1-1.2v-1.2c0-3.9-1-6.8-2.8-8.8a10.245,10.245,0,0,0-7.8-3,11.50343,11.50343,0,0,0-4.1.8,10.14447,10.14447,0,0,0-3.5,2.3,13.20187,13.20187,0,0,0-2.5,3.8,10.89611,10.89611,0,0,0-.3938,1.18158c.09106-.30072.18188-.60168.29382-.88153A11.42714,11.42714,0,0,1,193.96719,41.0929Z"/><rect class="cls-1" x="135.47006" y="38.28973" width="7.29999" height="0.20001"/><path class="cls-1" d="M65.37,58.48975a11.19363,11.19363,0,0,0,3.7,2.6,10.912,10.912,0,0,0,1.18145.39386c-.19366-.06476-.39685-.12-.58142-.19385-.44885-.20947-.863-.43292-1.26074-.66565A7.55555,7.55555,0,0,1,65.97,58.68976a9.46375,9.46375,0,0,1-2.1-3.6,15.07128,15.07128,0,0,1-.7-4.8c0-.02832.00348-.0545.00367-.0827-.00025-.03955-.00367-.07757-.00367-.11725a12.19567,12.19567,0,0,1,.7-4.7,10.897,10.897,0,0,1,2.3-3.9,10.78559,10.78559,0,0,1,3.7-2.6,13.147,13.147,0,0,1,4.86212-.9928c-.12171-.00183-.23682-.0072-.36212-.0072a11.4588,11.4588,0,0,0-5,1,9.91283,9.91283,0,0,0-3.7,2.6,10.89648,10.89648,0,0,0-2.3,3.9,14.48557,14.48557,0,0,0-.8,4.7,15.07168,15.07168,0,0,0,.7,4.8A10.27412,10.27412,0,0,0,65.37,58.48975Z"/><path class="cls-1" d="M180.67453,35.15692a4.34911,4.34911,0,0,1-.50452-.36719,3.4891,3.4891,0,0,1-1.2-2.8c0-.01777.00427-.03241.00446-.05-.00019-.01758-.00446-.03223-.00446-.05a3.48924,3.48924,0,0,1,1.2-2.8,3.94247,3.94247,0,0,1,2.7-1,4.60317,4.60317,0,0,1,1.17285.155,4.06387,4.06387,0,0,0-1.67285-.35492,3.77533,3.77533,0,0,0-2.7,1,3.489,3.489,0,0,0-1.2,2.8,3.48913,3.48913,0,0,0,1.2,2.8A3.20175,3.20175,0,0,0,180.67453,35.15692Z"/><polygon class="cls-1" points="179.67 38.59 185.57 38.59 185.57 38.29 179.07 38.29 179.07 61.39 179.67 61.39 179.67 38.59 179.67 38.59"/><polygon class="cls-1" points="148.57 38.59 154.57 38.59 154.57 38.29 148.07 38.29 148.07 61.39 148.57 61.39 148.57 38.59 148.57 38.59"/><path class="cls-1" d="M86.37,58.48975a8.90387,8.90387,0,0,0,2.12805,1.67541A8.5922,8.5922,0,0,1,86.87,58.78973a9.06389,9.06389,0,0,1-2.2-3.8,14.055,14.055,0,0,1-.7-4.7,14.53192,14.53192,0,0,1,.9-5.4,11.427,11.427,0,0,1,2.49719-3.79687l.00281-.00318a10.337,10.337,0,0,1,2.54528-1.8703,9.48034,9.48034,0,0,1,.95472-.42969q.48752-.1875.99218-.33593A11.08779,11.08779,0,0,1,94.97,37.98975a11.26223,11.26223,0,0,1,5.77979,1.41455A10.98277,10.98277,0,0,0,94.47,37.68976a11.50281,11.50281,0,0,0-4.1.8,10.14391,10.14391,0,0,0-3.5,2.3,13.20064,13.20064,0,0,0-2.5,3.8,14.53227,14.53227,0,0,0-.9,5.4,14.055,14.055,0,0,0,.7,4.7A8.48808,8.48808,0,0,0,86.37,58.48975Z"/><path class="cls-1" d="M149.732,35.19867c-.01318-.00806-.024-.0188-.03711-.027-.09228-.05768-.17486-.12646-.26178-.19055-.08728-.06433-.18121-.12128-.26306-.19141-.02765-.02417-.0459-.05334-.07257-.078-.0086-.00842-.01886-.01343-.0274-.022a3.48891,3.48891,0,0,1-1.2-2.8,3.83118,3.83118,0,0,1,1.2-2.8,3.942,3.942,0,0,1,2.7-1,4.60193,4.60193,0,0,1,1.17309.155,4.06313,4.06313,0,0,0-1.67309-.355,3.61952,3.61952,0,0,0-2.7,1,3.48882,3.48882,0,0,0-1.2,2.8,3.48892,3.48892,0,0,0,1.2,2.8A3.97987,3.97987,0,0,0,149.732,35.19867Z"/><path class="cls-1" d="M199.17,55.38977a5.83776,5.83776,0,0,0,1.95.9,9.91388,9.91388,0,0,0,2.55.3,20.6771,20.6771,0,0,0,3.5-.3,13.6386,13.6386,0,0,0,2.8-.8l.86328,5.08368c.08747-.0318.16864-.061.2367-.08368l-.9-5.3a13.64465,13.64465,0,0,1-2.8.8,20.67872,20.67872,0,0,1-3.5.3,7.5092,7.5092,0,0,1-4.5-1.2,4.61886,4.61886,0,0,1-1.8274-2.9h-.27258A4.67867,4.67867,0,0,0,199.17,55.38977Z"/><path class="cls-1" d="M130.27005,59.08972H130.27a5.69626,5.69626,0,0,0,1.52569,1.34125,7.4504,7.4504,0,0,1-1.12567-1.0412,8.14446,8.14446,0,0,1-1.5-3.1,17.27809,17.27809,0,0,1-.4-4.1v-19.4h.1l6.1-1.03228v-.2677l-6.5,1.1v19.4a17.83112,17.83112,0,0,0,.4,4.1A6.40672,6.40672,0,0,0,130.27005,59.08972Z"/><path class="cls-1" d="M110.67,39.78973v-.1c1.1-.4,2.5-.8,4.1-1.2a28.08284,28.08284,0,0,1,5.3-.5c.4,0,.8.1,1.3.1.5.1,1,.1,1.5.2l1.5.3a5.42861,5.42861,0,0,1,.77386.22821l.02612-.12817c-.4-.1-.8-.3-1.3-.4l-1.5-.3c-.5-.1-1-.1-1.5-.2-.5,0-.9-.1-1.3-.1a28.08284,28.08284,0,0,0-5.3.5c-1.6.4-3,.8-4.1,1.2v21.8h.5Z"/><path class="cls-1" d="M237.17,27.60669l.1001-.017V60.7356c.169-.044.33508-.09089.49994-.14582v-33.3l-6.5,1.1v.19843l5.9-.99848Z"/><rect class="cls-1" x="167.76999" y="38.28973" width="7.60004" height="0.29999"/><path class="cls-1" d="M226.17,38.08978a8.75065,8.75065,0,0,1,2.4.3,9.04062,9.04062,0,0,1,2.09991.65894v-.50245a7.67245,7.67245,0,0,0-1.59991-.45654,8.753,8.753,0,0,0-2.4-.3,12.30681,12.30681,0,0,0-4.4.8,9.31944,9.31944,0,0,0-1.15851.64826c.21417-.11994.42633-.24109.65851-.34821A12.30681,12.30681,0,0,1,226.17,38.08978Z"/><path class="cls-1" d="M229.97,56.28973a8.07962,8.07962,0,0,1-1.6.1H228.37a4.58774,4.58774,0,0,1-4-1.9,8.32727,8.32727,0,0,1-1.39459-4.81714c-.00024.04138-.00537.07538-.00537.11712a7.92789,7.92789,0,0,0,1.4,4.9,4.644,4.644,0,0,0,4,1.8c.6,0,1.1-.1,1.6-.1.2619-.05243.493-.07855.7-.1048V56.2207A3.60549,3.60549,0,0,1,229.97,56.28973Z"/><path class="cls-1" d="M198.59268,44.58215c-.04016.03815-.08264.06757-.12268.10761a6.77821,6.77821,0,0,0-.43085.6524,5.56062,5.56062,0,0,0-.26916.54761,9.35866,9.35866,0,0,0-.4,1.6h.1a9.36454,9.36454,0,0,1,.4-1.6A4.2104,4.2104,0,0,1,198.59268,44.58215Z"/><path class="cls-1" d="M205.57,46.08978a6.10869,6.10869,0,0,0-.69995-1.4,6.41627,6.41627,0,0,0-1.29938-.99964l-.00067-.00036a2.35836,2.35836,0,0,0-.39527-.18909,2.90891,2.90891,0,0,0-.4422-.12341,5.448,5.448,0,0,0-1.0625-.08753,5.32969,5.32969,0,0,0-1.9.4,6.52337,6.52337,0,0,0-1.17737.89239,4.2104,4.2104,0,0,0-.72265,1.30762,9.36454,9.36454,0,0,0-.4,1.6h8.38037a5.18589,5.18589,0,0,0-.28033-1.4Z"/><path class="cls-1" d="M227.07,43.58972a4.81942,4.81942,0,0,0-1.9765.381c-1.39435.91657-2.09906,2.78565-2.11817,5.70191A8.32727,8.32727,0,0,0,224.37,54.48975a4.58774,4.58774,0,0,0,4,1.9H228.37a8.07962,8.07962,0,0,0,1.6-.1,3.60549,3.60549,0,0,0,.7-.069v-11.631a4.78906,4.78906,0,0,0-1.6-.7A6.92892,6.92892,0,0,0,227.07,43.58972Z"/><path class="cls-1" d="M205.85037,47.48975H197.37a9.35866,9.35866,0,0,1,.4-1.6,5.56062,5.56062,0,0,1,.26916-.54761,5.75772,5.75772,0,0,0-.369.74726l-.00013.00036-.00036.00128a12.47369,12.47369,0,0,0-.39966,1.5987h8.6C205.87,47.62421,205.85379,47.55554,205.85037,47.48975Z"/><path class="cls-1" d="M228.37,56.48975a4.644,4.644,0,0,1-4-1.8,7.92789,7.92789,0,0,1-1.4-4.9c0-.04174.00513-.07574.00537-.11712-.00018-.02887-.00537-.05384-.00537-.08289,0-2.83545.7013-4.69018,2.09943-5.61139-1.71289.77448-2.55988,2.73181-2.59137,5.93622a8.31463,8.31463,0,0,0,1.3919,4.77521,4.47493,4.47493,0,0,0,4,1.9H227.87a8.08042,8.08042,0,0,0,1.6-.1,3.7285,3.7285,0,0,0,1.2-.2V56.285c-.207.02625-.43811.05237-.7.1048C229.47,56.38977,228.97,56.48975,228.37,56.48975Z"/><path class="cls-1" d="M225.09354,43.9707c-.00751.0033-.01667.00428-.02411.00763-1.39813.92121-2.09943,2.77594-2.09943,5.61139,0,.029.00519.054.00537.08289C222.99448,46.75635,223.69919,44.88727,225.09354,43.9707Z"/><polygon class="cls-1" points="175.37 38.59 175.37 43.69 167.37 43.69 167.37 61.29 161.37 61.29 161.37 61.59 167.67 61.59 167.67 43.99 167.77 43.99 167.87 43.99 175.77 43.99 175.77 38.59 175.37 38.59"/><path class="cls-1" d="M81.07,60.78973a13.63791,13.63791,0,0,1-2.8.8,14.78272,14.78272,0,0,1-3.47534.39356c.06012.00048.11474.00647.17535.00647a21.11613,21.11613,0,0,0,3.8-.4,15.78911,15.78911,0,0,0,2.8-.8l-.86218-5.07708q-.23475.088-.47052.17358Z"/><path class="cls-1" d="M174.77,33.38977a7.48889,7.48889,0,0,0-1.6-.4,9.15134,9.15134,0,0,0-1.7-.1,5.61786,5.61786,0,0,0-2,.3,2.53983,2.53983,0,0,0-1.3.9,3.69453,3.69453,0,0,0-.7,1.4,8.80939,8.80939,0,0,0-.2,1.7v1.1h.4v-.8a8.804,8.804,0,0,1,.2-1.7,4.579,4.579,0,0,1,.69995-1.4,3.04551,3.04551,0,0,1,1.30005-.9,5.61741,5.61741,0,0,1,2-.3c.02423,0,.04473.001.06866.001l.03131-.001a9.15224,9.15224,0,0,1,1.7.1c.02478.00415.04474.00928.06922.01343a3.5479,3.5479,0,0,1,.98028.21515c.15369.04218.30695.08588.45679.14227l1.09369-5.0708c-.07941-.04767-.17194-.08905-.26105-.132-.0534-.02032-.10779-.03979-.162-.061Z"/><polygon class="cls-1" points="186.17 61.69 186.17 38.59 185.57 38.59 185.57 61.39 179.67 61.39 179.67 61.69 186.17 61.69"/><path class="cls-1" d="M198.83914,44.29614a3.44469,3.44469,0,0,1,.51892-.462,6.10526,6.10526,0,0,0-.788.65564c-.08631.115-.16779.252-.25171.38116a2.262,2.262,0,0,1,.15167-.18115A2.96589,2.96589,0,0,1,198.83914,44.29614Z"/><path class="cls-1" d="M200.30081,43.33691c-.15454.04871-.3.10053-.43078.15284-.18342.11-.343.2243-.5044.33929a2.87991,2.87991,0,0,1,.60437-.33929A2.19033,2.19033,0,0,1,200.30081,43.33691Z"/><path class="cls-1" d="M216.57,45.08978a16.1345,16.1345,0,0,0-.7,5.1,15.87983,15.87983,0,0,0,.8,5,10.47586,10.47586,0,0,0,2.3,3.8H218.97a11.227,11.227,0,0,0,3.8,2.4c.2572.10291.52832.179.7973.25934a16.23981,16.23981,0,0,0,3.913.52923c.12268.0019.23925.0105.36364.01062a21.16685,21.16685,0,0,0,2.426-.09924c.8-.1,1.7-.2,2.5-.3.17767-.02221.35535-.04882.533-.07214q.667-.08743,1.33392-.22235c.17768-.03565.35535-.061.533-.10547.7-.2,1.4-.3,2-.5v-.12964c-.41772.1048-.86218.19519-1.4.32965-.8.1-1.6.3-2.4.4s-1.6.2-2.5.3a21.7422,21.7422,0,0,1-2.5.1,13.66536,13.66536,0,0,1-5.1-.8,11.22659,11.22659,0,0,1-3.8-2.4h.00006a8.65812,8.65812,0,0,1-2.3-3.8,15.87984,15.87984,0,0,1-.8-5,16.13493,16.13493,0,0,1,.7-5.1,11.46788,11.46788,0,0,1,2-3.8,10.17272,10.17272,0,0,1,1.90631-1.65992q-.17972.096-.35492.20148A10.07373,10.07373,0,0,0,218.57,41.28973,11.47,11.47,0,0,0,216.57,45.08978Z"/><path class="cls-1" d="M230.67,56.285a2.70478,2.70478,0,0,0,.5-.09521v-.1a4.04417,4.04417,0,0,1-.5.13092Z"/><path class="cls-1" d="M197.47,51.88977c.01605.10419.05139.19843.07263.3H212.07l.00049-.00507c.00018-.09826.01538-.19665.02453-.29492Z"/><path class="cls-1" d="M231.27,28.60516l-.49994.0846v9.89477c.17.0669.33813.13587.49994.2052Z"/><path class="cls-1" d="M201.77,43.08972c-.04852,0-.09631.00769-.14478.00952.06574-.00238.13074-.0072.19672-.00763C201.80374,43.09149,201.78842,43.08972,201.77,43.08972Z"/><path class="cls-1" d="M80.77,39.08972l-1.36127,5.05622c.15387.04791.31751.09588.46131.14379l1.35937-5.04919c-.48639-.19-.97284-.358-1.45923-.50073C80.10342,38.85089,80.43674,38.95642,80.77,39.08972Z"/><path class="cls-1" d="M71.07,45.18976a5.02254,5.02254,0,0,1,4.09454-1.78284c-.10046-.00262-.19159-.01715-.29455-.01715a5.10775,5.10775,0,0,0-4.3,1.8,7.511,7.511,0,0,0-1.4,4.7,7.42261,7.42261,0,0,0,1.3,4.8,4.46231,4.46231,0,0,0,2.32886,1.405,4.163,4.163,0,0,1-1.72882-1.205,4.7377,4.7377,0,0,1-.61939-1.01874A8.67,8.67,0,0,1,69.67,49.88977,7.11616,7.11616,0,0,1,71.07,45.18976Z"/><path class="cls-1" d="M184.69772,28.618a4.166,4.166,0,0,1,.37232.27173,3.489,3.489,0,0,1,1.2,2.8,3.48906,3.48906,0,0,1-1.2,2.8,3.61977,3.61977,0,0,1-2.7,1,4.49822,4.49822,0,0,1-1.31373-.19049,4.0869,4.0869,0,0,0,1.81373.3905,3.942,3.942,0,0,0,2.69995-1,3.76061,3.76061,0,0,0,.00006-5.5A4.0411,4.0411,0,0,0,184.69772,28.618Z"/><path class="cls-1" d="M190.57541,50.463a14.33542,14.33542,0,0,0,.693,4.52118l.00165.00556a10.26631,10.26631,0,0,0,2.2,3.8,11.42664,11.42664,0,0,0,3.79785,2.499l.0022.001a14.53192,14.53192,0,0,0,5.4.9,21.75447,21.75447,0,0,0,2.5-.1c.8-.1,1.6-.2,2.3-.3.8-.2,1.4-.3,2-.5s1.09973-.39978,1.39978-.49994l.00018-.00006-.03674-.2163c-.29816.10839-.69934.26165-1.16321.41632a11.69416,11.69416,0,0,1-2,.5c-.7.1-1.5.2-2.3.3a21.7422,21.7422,0,0,1-2.5.1,14.53348,14.53348,0,0,1-5.4-.9,10.08338,10.08338,0,0,1-3.8-2.5,9.699,9.699,0,0,1-2.3-3.8,14.055,14.055,0,0,1-.7-4.7,16.06221,16.06221,0,0,1,.50617-4.21845,12.61335,12.61335,0,0,0-.38117,1.59345q-.11251.675-.16876,1.40625T190.57,50.28973C190.57,50.34845,190.57492,50.40454,190.57541,50.463Z"/><path class="cls-1" d="M230.05905,43.74127c-.15155-.05157-.314-.10156-.489-.15155a8.10328,8.10328,0,0,0-1-.225,8.10488,8.10488,0,0,1,.99994.225C229.745,43.63971,229.9075,43.6897,230.05905,43.74127Z"/><path class="cls-1" d="M153.97,28.88977a3.489,3.489,0,0,1,1.2,2.8,3.4891,3.4891,0,0,1-1.2,2.8,3.61966,3.61966,0,0,1-2.7,1,4.16781,4.16781,0,0,1-1.393-.22919,4.03329,4.03329,0,0,0,1.893.4292,3.94216,3.94216,0,0,0,2.7-1,3.85784,3.85784,0,0,0,.07831-5.51587,3.98013,3.98013,0,0,0-1.13593-.691A4.20027,4.20027,0,0,1,153.97,28.88977Z"/><path class="cls-1" d="M124.07,44.08972c-.6-.2-1.3-.3-2.1-.5a18.09983,18.09983,0,0,0-2.5-.2,8.63743,8.63743,0,0,0-1.5.1,3.91676,3.91676,0,0,0-1.3.2v17.5h-6v.3h6.5v-17.5a3.91829,3.91829,0,0,1,1.3-.2,8.63828,8.63828,0,0,1,1.5-.1,18.0883,18.0883,0,0,1,2.5.2c.8.2,1.5.3,2.1.5l1.08117-5.30731a3.59668,3.59668,0,0,0-.52008-.20166Z"/><polygon class="cls-1" points="155.07 61.69 155.07 38.59 154.57 38.59 154.57 61.39 148.57 61.39 148.57 61.69 155.07 61.69"/><path class="cls-1" d="M103.77,60.48975c-.3.1-.8.3-1.4.5a11.696,11.696,0,0,1-2,.5c-.7.1-1.5.2-2.3.3a21.74107,21.74107,0,0,1-2.5.1,14.53337,14.53337,0,0,1-5.4-.9c-.34649-.13861-.67938-.29065-1.00329-.45185.23572.13794.47625.27112.72326.39649.25611.12231.50971.24719.78.35534a13.14074,13.14074,0,0,0,3.88123.84375q.73123.05631,1.5188.05628h.001a21.7725,21.7725,0,0,0,2.498-.09992l.001-.00006c.4-.05.8-.1,1.18756-.15s.76251-.1,1.11249-.15c.8-.2,1.4-.3,2-.5s1.1-.4,1.4-.5l-.9-5.3c-.13056.056-.2757.11139-.42078.16668Z"/><polygon class="cls-1" points="134.97 38.29 135.37 38.29 135.37 31.707 134.97 31.774 134.97 38.29"/><path class="cls-1" d="M143.67,60.58972a15.96856,15.96856,0,0,1-2.6.8,12.76773,12.76773,0,0,1-3.6.4,11.279,11.279,0,0,1-4.4-.7c-.28681-.11951-.5542-.24573-.80811-.37939a8.67241,8.67241,0,0,0,1.30811.67944,11.22112,11.22112,0,0,0,4.3493.69843,17.18466,17.18466,0,0,0,3.55066-.39844,19.75319,19.75319,0,0,0,2.6-.8l-.895-5.07165c-.10443.03417-.22016.06512-.32965.09851Z"/><path class="cls-1" d="M105.07,49.48975v1.2c0,.4-.1.8-.1,1.2H90.17a4.679,4.679,0,0,0,1.9,3.2,5.30184,5.30184,0,0,0,.47155.275,4.33836,4.33836,0,0,1-1.87152-3.175h14.8c0-.4.1-.8.1-1.2v-1.2c0-3.9-1-6.8-2.8-8.8a9.06761,9.06761,0,0,0-2.0202-1.58545,9.12059,9.12059,0,0,1,1.5202,1.28546C104.17,42.68976,105.07,45.58972,105.07,49.48975Z"/><path class="cls-1" d="M134.97006,43.68976v8a6.22831,6.22831,0,0,0,.7,3.3,2.22086,2.22086,0,0,0,.77063.71649,2.09554,2.09554,0,0,1-.3706-.41651,6.22807,6.22807,0,0,1-.7-3.3v-8.1h7.8v-5.4h-.4v5.2Z"/><path class="cls-1" d="M199.77,43.68976a3.80708,3.80708,0,0,1,1.9-.4,5.448,5.448,0,0,1,1.0625.08753,2.90891,2.90891,0,0,1,.4422.12341,2.359,2.359,0,0,1,.39533.18909l.00061.00036a4.48447,4.48447,0,0,1,1.29938.99964,3.6946,3.6946,0,0,1,.7,1.4,4.44527,4.44527,0,0,1,.28125,1.4H205.97a4.52865,4.52865,0,0,0-.3-1.6,3.69413,3.69413,0,0,0-.7-1.4,6.41864,6.41864,0,0,0-1.3-1,3.523,3.523,0,0,0-1.84808-.39814c-.066.00043-.131.00525-.19672.00763a5.13635,5.13635,0,0,0-1.3244.23767,2.19033,2.19033,0,0,0-.33081.15284,2.87991,2.87991,0,0,0-.60437.33929l-.00757.00507a3.44469,3.44469,0,0,0-.51892.462A3.18045,3.18045,0,0,1,199.77,43.68976Z"/><path class="cls-1" d="M229.57,43.58972a8.10488,8.10488,0,0,0-.99994-.225,6.48967,6.48967,0,0,0-1-.075l-.006.00031a5.73719,5.73719,0,0,0-.60065.03094c-.06116.00647-.11676.02027-.17639.02875-.12958.01837-.26032.03528-.38294.06287a4.16417,4.16417,0,0,0-.98565.353,5.02825,5.02825,0,0,1,1.65161-.27581,6.92851,6.92851,0,0,1,2,.3,4.79137,4.79137,0,0,1,1.6.7v11.731a4.04417,4.04417,0,0,0,.5-.13092v-11.8a3.90009,3.90009,0,0,0-1.111-.54846C229.9075,43.6897,229.745,43.63971,229.57,43.58972Z"/><path class="cls-1" d="M204.97,44.48975a3.69413,3.69413,0,0,1,.7,1.4,4.52865,4.52865,0,0,1,.3,1.6h.1c-.1-.5-.2-1.1-.3-1.6H205.77a6.10828,6.10828,0,0,0-.7-1.4,4.48557,4.48557,0,0,0-1.3-1,3.57556,3.57556,0,0,0-1.9-.4c-.01612,0-.032.00177-.0481.00189a3.523,3.523,0,0,1,1.84808.39814A6.41864,6.41864,0,0,1,204.97,44.48975Z"/><polygon class="cls-1" points="227.57 43.29 227.564 43.29 227.57 43.29 227.57 43.29"/><path class="cls-1" d="M226.787,43.34973c.05963-.00848.11523-.02228.17639-.02875C226.90219,43.32745,226.84659,43.34125,226.787,43.34973Z"/><path class="cls-1" d="M226.404,43.4126a4.22171,4.22171,0,0,0-.99957.35736l.01392-.0044A4.16417,4.16417,0,0,1,226.404,43.4126Z"/><path class="cls-1" d="M226.96335,43.321A5.73719,5.73719,0,0,1,227.564,43.29,5.75442,5.75442,0,0,0,226.96335,43.321Z"/><path class="cls-1" d="M226.404,43.4126c.12262-.02759.25336-.0445.38294-.06287C226.65738,43.3681,226.5267,43.385,226.404,43.4126Z"/><path class="cls-1" d="M200.30081,43.33691a5.13635,5.13635,0,0,1,1.3244-.23767A4.10158,4.10158,0,0,0,200.30081,43.33691Z"/><path class="cls-1" d="M191.2684,54.98419a14.33542,14.33542,0,0,1-.693-4.52118A13.8796,13.8796,0,0,0,191.2684,54.98419Z"/><path class="cls-1" d="M102.87,61.28973c-.6.2-1.2.3-2,.5A11.69277,11.69277,0,0,0,102.87,61.28973Z"/><path class="cls-1" d="M125.65115,39.08246l.01886-.09271c-.17181-.043-.34637-.10779-.52612-.17182l-.01282.06287A3.59668,3.59668,0,0,1,125.65115,39.08246Z"/><path class="cls-1" d="M221.11154,39.238c-.16772.09387-.33215.19159-.49011.29333q.17559-.10564.35492-.20148C221.02158,39.29944,221.06546,39.2677,221.11154,39.238Z"/><path class="cls-1" d="M209.47,61.28973c-.6.2-1.2.3-2,.5A11.69112,11.69112,0,0,0,209.47,61.28973Z"/><polygon class="cls-1" points="212.07 52.19 212.07 52.185 212.07 52.19 212.07 52.19"/><polygon class="cls-1" points="135.47 38.29 135.47 31.69 135.37 31.707 135.37 38.29 135.47 38.29"/><path class="cls-1" d="M88.49808,60.16516a11.47193,11.47193,0,0,0,1.3919.76923c-.247-.12537-.48754-.25855-.72326-.39649C88.935,60.42261,88.71725,60.29315,88.49808,60.16516Z"/><path class="cls-1" d="M90.67,61.28973c-.27032-.10815-.52392-.233-.78-.35534C90.14236,61.06244,90.40152,61.18231,90.67,61.28973Z"/><polygon class="cls-1" points="210.87 60.79 210.87 60.79 210.87 60.79 210.833 60.573 210.833 60.573 210.87 60.79"/><path class="cls-1" d="M197.26785,61.28876a11.42664,11.42664,0,0,1-3.79785-2.499A10.08093,10.08093,0,0,0,197.26785,61.28876Z"/><path class="cls-1" d="M98.569,62.08984l.001-.00006c.4-.05.8-.1,1.1875-.15-.38751.05-.78754.1-1.18756.15Z"/><path class="cls-1" d="M78.77,61.58978a21.11613,21.11613,0,0,1-3.8.4c-.06061,0-.11523-.006-.17535-.00647-.10944.00134-.21277.00647-.32465.00647a16.06325,16.06325,0,0,1-4.21857-.50617,17.40167,17.40167,0,0,0,8.6186.30615,13.6447,13.6447,0,0,0,2.8-.8l-.9-5.3-.06213.02289L81.57,60.78973A15.78911,15.78911,0,0,1,78.77,61.58978Z"/><polygon class="cls-1" points="167.67 43.99 167.67 61.59 167.87 61.59 167.87 43.99 167.77 43.99 167.67 43.99"/><path class="cls-1" d="M154.47,34.68976a3.94216,3.94216,0,0,1-2.7,1,4.03329,4.03329,0,0,1-1.893-.4292c-.04925-.01727-.09637-.04248-.145-.06189a4.04655,4.04655,0,0,0,2.13807.59106,3.61973,3.61973,0,0,0,2.7-1,3.489,3.489,0,0,0,1.2-2.8,3.489,3.489,0,0,0-1.2-2.8c-.007-.00617-.01471-.00977-.02173-.01587a3.85784,3.85784,0,0,1-.07831,5.51587Z"/><rect class="cls-1" x="154.57004" y="38.58972" width="0.5" height="0.00006"/><path class="cls-1" d="M174.71951,33.51831a3.5479,3.5479,0,0,0-.98028-.21515A9.90547,9.90547,0,0,1,174.71951,33.51831Z"/><path class="cls-1" d="M237.17,60.88977c-.6.2-1.3.3-2,.5-.17767.04443-.35534.06982-.533.10547.21106-.03662.42206-.0791.63312-.10547.8-.2,1.4-.3,2-.5V60.7356c-.03265.00848-.06714.01629-.1001.02453Z"/><path class="cls-1" d="M230.27,62.08972a21.16685,21.16685,0,0,1-2.426.09924l.02607.0008a21.74168,21.74168,0,0,0,2.5-.1c.9-.1,1.7-.2,2.5-.3.14434-.01806.28863-.04876.433-.07214-.17767.02332-.35535.04993-.533.07214C231.97,61.88977,231.07,61.98975,230.27,62.08972Z"/><path class="cls-1" d="M175.1763,33.66058c.03076.01154.063.01691.09369.02918l1.1-5.1c-.11951-.03985-.24-.08575-.36109-.132.08911.043.18164.08435.26105.132Z"/><polygon class="cls-1" points="175.77 38.59 175.77 43.99 175.87 43.99 175.87 38.59 175.37 38.59 175.37 38.59 175.77 38.59"/><path class="cls-1" d="M227.48032,62.17834a16.23981,16.23981,0,0,1-3.913-.52923A14.43882,14.43882,0,0,0,227.48032,62.17834Z"/><path class="cls-1" d="M169.87,33.48975a3.04551,3.04551,0,0,0-1.30005.9,4.579,4.579,0,0,0-.69995,1.4,8.804,8.804,0,0,0-.2,1.7v.8h.1v-.8a8.80949,8.80949,0,0,1,.2-1.7,3.69374,3.69374,0,0,1,.7-1.4,2.53956,2.53956,0,0,1,1.3-.9,5.57917,5.57917,0,0,1,1.96869-.29895c-.02393,0-.04443-.001-.06866-.001A5.61741,5.61741,0,0,0,169.87,33.48975Z"/><path class="cls-1" d="M103.37,55.48975c-.12757.05468-.27509.10882-.42139.1629l.00061.00378C103.09433,55.60114,103.23947,55.54572,103.37,55.48975Z"/><path class="cls-1" d="M182.87,35.68976a4.0869,4.0869,0,0,1-1.81373-.3905,3.45756,3.45756,0,0,1-.38177-.14234,4.03523,4.03523,0,0,0,2.1955.63281,3.61973,3.61973,0,0,0,2.7-1,3.489,3.489,0,0,0,1.2-2.8c0-.01777-.00427-.03241-.00446-.05a3.478,3.478,0,0,1-1.19555,2.75A3.942,3.942,0,0,1,182.87,35.68976Z"/><path class="cls-1" d="M79.40872,44.14594l-.03869.14379c-.6-.2-1.3-.4-2-.6a10.05218,10.05218,0,0,0-2.20545-.28284A5.02254,5.02254,0,0,0,71.07,45.18976a7.11616,7.11616,0,0,0-1.4,4.7,8.67,8.67,0,0,0,.78064,3.98126A9.01351,9.01351,0,0,1,69.77,50.08978a7.51073,7.51073,0,0,1,1.4-4.7,5.10773,5.10773,0,0,1,4.3-1.8,10.07381,10.07381,0,0,1,2.5.3c.7.2,1.4.4,2,.6l1.4-5.2c-.04688-.01873-.09375-.03088-.14063-.04919L79.87,44.28973C79.72623,44.24182,79.56259,44.19385,79.40872,44.14594Z"/><rect class="cls-1" x="143.17001" y="38.48975" width="0.10004" height="5.40002"/><path class="cls-1" d="M135.37,51.98975a6.22807,6.22807,0,0,0,.7,3.3,2.09554,2.09554,0,0,0,.3706.41651,2.37877,2.37877,0,0,0,.309.18481,2.20721,2.20721,0,0,1-.57965-.60132,6.22811,6.22811,0,0,1-.7-3.3v-8.1h-.1Z"/><path class="cls-1" d="M141.47,61.68976a17.18466,17.18466,0,0,1-3.55066.39844c.01776.00006.03284.00152.05066.00152a12.76773,12.76773,0,0,0,3.6-.4,15.97461,15.97461,0,0,0,2.6-.8l-.9-5.1c-.0296.00989-.06494.0185-.095.02839l.895,5.07165A19.75319,19.75319,0,0,1,141.47,61.68976Z"/><rect class="cls-1" x="185.57004" y="38.58972" width="0.59998" height="0.00006"/><path class="cls-1" d="M92.54153,55.36481l.00171.001A4.67962,4.67962,0,0,1,90.67,52.18976,4.33836,4.33836,0,0,0,92.54153,55.36481Z"/><path class="cls-1" d="M100.56717,56.2901a20.68642,20.68642,0,0,1-3.49426.29956A19.8316,19.8316,0,0,0,100.56717,56.2901Z"/><path class="cls-1" d="M102.94925,55.65643l-.00061-.00378a14.49034,14.49034,0,0,1-2.37744.63684A12.23368,12.23368,0,0,0,102.94925,55.65643Z"/><path class="cls-1" d="M95.72,56.51477a7.41682,7.41682,0,0,1-2.25-.6A7.41571,7.41571,0,0,0,95.72,56.51477Z"/><path class="cls-1" d="M86.87,58.78973a8.5922,8.5922,0,0,0,1.62805,1.37543c.21917.128.43689.25745.66864.37274A11.39673,11.39673,0,0,1,86.87,58.78973Z"/><path class="cls-1" d="M94.97,37.98975a11.08779,11.08779,0,0,0-3.10779.46405"/><path class="cls-1" d="M92.57,55.38977a5.30119,5.30119,0,0,0,.9.525,5.30062,5.30062,0,0,1-.9-.525c-.01007-.00732-.01685-.01654-.0268-.02393l-.00171-.001C92.552,55.3725,92.55948,55.38214,92.57,55.38977Z"/><path class="cls-1" d="M237.17,27.60669V60.76013c.033-.00824.06745-.016.1001-.02453V27.58972Z"/><path class="cls-1" d="M221.67,38.98975a10.17391,10.17391,0,0,1,4.4-.8,8.75024,8.75024,0,0,1,2.4.3c.7.2,1.4.4,2.2.7v-.141a9.04062,9.04062,0,0,0-2.09991-.65894,8.75065,8.75065,0,0,0-2.4-.3,12.30681,12.30681,0,0,0-4.4.8c-.23218.10712-.44434.22827-.65851.34821-.04608.02972-.09.06146-.13519.09185C221.20438,39.20795,221.43344,39.08832,221.67,38.98975Z"/><path class="cls-1" d="M89.91531,39.21942A10.337,10.337,0,0,0,87.37,41.08972l-.00281.00318.00281-.00312A10.33985,10.33985,0,0,1,89.91531,39.21942Z"/><path class="cls-1" d="M84.67,54.98975a14.45652,14.45652,0,0,1-.7-4.7A14.055,14.055,0,0,0,84.67,54.98975Z"/><path class="cls-1" d="M97.07,56.58978H97.07a11.56879,11.56879,0,0,1-1.35-.075A11.56774,11.56774,0,0,0,97.07,56.58978Z"/><path class="cls-1" d="M203.67,56.58978a9.91388,9.91388,0,0,1-2.55-.3"/><path class="cls-1" d="M208.62473,40.28662a9.01621,9.01621,0,0,0-1.6875-1.125"/><path class="cls-1" d="M175.13461,28.12738a7.92319,7.92319,0,0,0-.76458-.23761,12.62037,12.62037,0,0,0-3-.3l-.03937.00141a12.52731,12.52731,0,0,1,2.93933.29864C174.57693,27.96649,174.86276,28.045,175.13461,28.12738Z"/><path class="cls-1" d="M193.96719,41.0929l.00281-.00312a10.3399,10.3399,0,0,1,2.54529-1.87036,10.33814,10.33814,0,0,0-2.54529,1.8703Z"/><rect class="cls-1" x="135.37003" y="38.28973" width="0.10004" height="0.20001"/><path class="cls-1" d="M201.57,37.98975a13.0718,13.0718,0,0,1,3.41717.42187"/><path class="cls-1" d="M149.69485,35.17169c.01307.00818.02393.01892.03711.027.04865.01941.09577.04462.145.06189C149.81717,35.22949,149.75272,35.20654,149.69485,35.17169Z"/><rect class="cls-1" x="179.67001" y="38.58972" width="5.90002" height="0.00006"/><path class="cls-1" d="M180.17,34.68976a3.47814,3.47814,0,0,1-1.19555-2.75c-.00019.01758-.00446.03222-.00446.05a3.4891,3.4891,0,0,0,1.2,2.8,4.34911,4.34911,0,0,0,.50452.36719,3.45756,3.45756,0,0,0,.38177.14234A3.19835,3.19835,0,0,1,180.17,34.68976Z"/><path class="cls-1" d="M138.97,56.48975c.01837,0,.03729-.00318.05567-.0033a3.77666,3.77666,0,0,1-2.276-.5954,2.37877,2.37877,0,0,1-.309-.18481A3.63236,3.63236,0,0,0,138.97,56.48975Z"/><path class="cls-1" d="M75.37,43.38977c-.07245,0-.13416.01538-.20545.01715a10.05218,10.05218,0,0,1,2.20545.28284c.7.2,1.4.4,2,.6l.03869-.14379c-.48828-.152-1.00641-.30408-1.53869-.45618A9.00323,9.00323,0,0,0,75.37,43.38977Z"/><rect class="cls-1" x="148.57004" y="38.58972" width="6" height="0.00006"/><path class="cls-1" d="M207.17,56.28973a20.6771,20.6771,0,0,1-3.5.3A19.82532,19.82532,0,0,0,207.17,56.28973Z"/><path class="cls-1" d="M209.97,55.48975a13.6386,13.6386,0,0,1-2.8.8A11.98439,11.98439,0,0,0,209.97,55.48975Z"/><path class="cls-1" d="M74.79465,61.98328a14.40237,14.40237,0,0,1-5.22467-.8935,6.73438,6.73438,0,0,1-1.16071-.4657c.39777.23273.81189.45618,1.26074.66565.18457.07386.38776.12909.58142.19385a16.06325,16.06325,0,0,0,4.21857.50617C74.58188,61.98975,74.68521,61.98462,74.79465,61.98328Z"/><path class="cls-1" d="M63.17368,50.207c-.00019.0282-.00367.05438-.00367.0827a15.07128,15.07128,0,0,0,.7,4.8,9.46375,9.46375,0,0,0,2.1,3.6,9.49986,9.49986,0,0,1-2.1-3.8A14.96843,14.96843,0,0,1,63.17368,50.207Z"/><polygon class="cls-1" points="210.833 60.573 210.833 60.573 209.97 55.49 210.833 60.573"/><path class="cls-1" d="M201.12,56.28979a5.83776,5.83776,0,0,1-1.95-.9"/><path class="cls-1" d="M149.17,34.78973c.08185.07013.17578.12708.26306.19141a3.22292,3.22292,0,0,1-.33563-.26941C149.12411,34.73639,149.14236,34.76556,149.17,34.78973Z"/><polygon class="cls-1" points="167.67 38.59 175.37 38.59 175.37 38.59 167.77 38.59 167.77 38.29 167.67 38.29 167.67 38.59"/><path class="cls-1" d="M197.27005,52.18976H197.27a4.34822,4.34822,0,0,0,1.9,3.2A4.67867,4.67867,0,0,1,197.27005,52.18976Z"/><path class="cls-1" d="M122.87,38.28973c-.5-.1-1-.1-1.5-.2-.5,0-.9-.1-1.3-.1a28.08284,28.08284,0,0,0-5.3.5c-1.6.4-3,.8-4.1,1.2v.1c1.2-.4,2.5-.8,4.1-1.2a22.20366,22.20366,0,0,1,5.3-.5,6.15222,6.15222,0,0,1,1.3.1,7.71609,7.71609,0,0,1,1.5.2l1.5.3a7.29716,7.29716,0,0,1,.761.191l.01282-.06287a5.42861,5.42861,0,0,0-.77386-.22821Z"/><path class="cls-1" d="M198.47,44.68976a2.262,2.262,0,0,0-.15167.18115c-.09949.15326-.19031.30542-.27918.47125A6.77821,6.77821,0,0,1,198.47,44.68976Z"/><path class="cls-1" d="M198.67,44.48975c.04889-.06525.11048-.12928.16913-.19361a2.96589,2.96589,0,0,0-.36914.39362c.04-.04.08252-.06946.12268-.10761C198.61978,44.552,198.6409,44.51886,198.67,44.48975Z"/><path class="cls-1" d="M227.07,43.58972a6.92892,6.92892,0,0,1,2,.3,4.78906,4.78906,0,0,1,1.6.7v-.1a4.79137,4.79137,0,0,0-1.6-.7,6.92851,6.92851,0,0,0-2-.3,5.02825,5.02825,0,0,0-1.65161.27581,3.50838,3.50838,0,0,0-.32483.20514A4.81942,4.81942,0,0,1,227.07,43.58972Z"/><path class="cls-1" d="M203.57065,43.69012a6.41627,6.41627,0,0,1,1.29938.99964A4.48447,4.48447,0,0,0,203.57065,43.69012Z"/><path class="cls-1" d="M198.59268,44.58215a6.52337,6.52337,0,0,1,1.17737-.89239,5.32969,5.32969,0,0,1,1.9-.4,3.80708,3.80708,0,0,0-1.9.4,3.18045,3.18045,0,0,0-.93085.60638c-.05865.06433-.12024.12836-.16913.19361C198.6409,44.51886,198.61978,44.552,198.59268,44.58215Z"/><path class="cls-1" d="M225.06943,43.97833a3.55016,3.55016,0,0,1,.335-.20837c-1.96161.67688-2.93445,2.66791-2.93445,6.01977,0,.04377.00757.08142.00806.12482C222.50955,46.71014,223.35654,44.75281,225.06943,43.97833Z"/><path class="cls-1" d="M198.31833,44.87091a4.53855,4.53855,0,0,0-.64819,1.21851,5.75772,5.75772,0,0,1,.369-.74726C198.128,45.17633,198.21884,45.02417,198.31833,44.87091Z"/><path class="cls-1" d="M197.27,47.68976a12.47369,12.47369,0,0,1,.39966-1.5987A9.38609,9.38609,0,0,0,197.27,47.68976Z"/><path class="cls-1" d="M225.09354,43.9707a3.50838,3.50838,0,0,1,.32483-.20514l-.01392.0044a3.55016,3.55016,0,0,0-.335.20837C225.07687,43.975,225.086,43.974,225.09354,43.9707Z"/><path class="cls-1" d="M95.07,43.28973a5.33009,5.33009,0,0,0-1.9.4,6.41727,6.41727,0,0,0-1.3,1,6.37192,6.37192,0,0,0-.79993,1.39966l-.00012.0003H91.07l-.00037.001a7.92263,7.92263,0,0,0-.359,1.399H98.67a4.53019,4.53019,0,0,0-.3-1.6,3.69516,3.69516,0,0,0-.7-1.4,6.41858,6.41858,0,0,0-1.3-1,2.33135,2.33135,0,0,0-.23194-.111,4.26591,4.26591,0,0,0-.504-.06872C95.45749,43.296,95.27005,43.28973,95.07,43.28973Z"/><path class="cls-1" d="M201.96994,339.98987v-1.1c0-4-1-7-2.9-9a10.17663,10.17663,0,0,0-7.9-3.1,12.49426,12.49426,0,0,0-4.2.8,11.36263,11.36263,0,0,0-3.5473,2.3523c-.18512.1875-.36414.39062-.54083.59881-.05024.05927-.10334.11164-.15284.17261-.14813.1836-.28723.38385-.42651.58319-.09.12726-.18329.24817-.26935.38166a11.05633,11.05633,0,0,0-1.06317,2.11132,14.90548,14.90548,0,0,0-.9,5.4,15.07131,15.07131,0,0,0,.7,4.8,10.89724,10.89724,0,0,0,2.3,3.9,9.73194,9.73194,0,0,0,3.9,2.5,15.47065,15.47065,0,0,0,5.5.9,20.90829,20.90829,0,0,0,2.5-.1,15.72009,15.72009,0,0,0,2.3-.4c.7-.1,1.4-.3,2-.4.53668-.17889.98474-.35376,1.28979-.46106l-.88983-5.33887a13.02668,13.02668,0,0,1-2.9.8,21.86188,21.86188,0,0,1-3.6.3,7.50956,7.50956,0,0,1-4.5-1.2,4.539,4.539,0,0,1-1.9-3.3h.11859c-.0033-.03485-.016-.06482-.01855-.1001h15.0083c.014-.36664.09167-.73328.09167-1.09991ZM186.97,336.68976c.00623-.03125.014-.06806.02033-.1h-.1009c-.006.03516-.01342.06421-.0194.1v-.1h.0194a7.195,7.195,0,0,1,.38056-1.5,5.29986,5.29986,0,0,1,.8-1.5,6.41985,6.41985,0,0,1,1.3-1,3.807,3.807,0,0,1,1.9-.4c.01843,0,.03375.00177.05194.00189.01611-.00012.032-.00189.0481-.00189a3.57559,3.57559,0,0,1,1.9.4,3.24911,3.24911,0,0,1,1.3,1H194.57a9.8816,9.8816,0,0,1,.9,1.5,4.14542,4.14542,0,0,1,.3,1.6Z"/><path class="cls-1" d="M246.87,339.98987v-1.1c0-4-1-7-2.9-9a10.1767,10.1767,0,0,0-7.9-3.1,12.49493,12.49493,0,0,0-4.2.8,11.36316,11.36316,0,0,0-3.54724,2.3523c-.18512.1875-.36413.39062-.54083.59881-.05029.05927-.10339.11164-.15289.17261-.14771.18311-.28644.38281-.42536.58161-.09057.12786-.18426.24945-.27075.38366a11.05376,11.05376,0,0,0-1.06286,2.1109,14.90394,14.90394,0,0,0-.9,5.4,15.07132,15.07132,0,0,0,.7,4.8,10.89711,10.89711,0,0,0,2.3,3.9,9.73173,9.73173,0,0,0,3.9,2.5,15.47011,15.47011,0,0,0,5.5.9,20.90887,20.90887,0,0,0,2.5-.1,15.7216,15.7216,0,0,0,2.3-.4c.7-.1,1.4-.3,2-.4.53662-.17889.98468-.35376,1.2898-.46106l-.88983-5.33887a13.02883,13.02883,0,0,1-2.9.8,21.86176,21.86176,0,0,1-3.6.3,7.50952,7.50952,0,0,1-4.5-1.2,4.539,4.539,0,0,1-1.9-3.3h.11853c-.00329-.03485-.01605-.06482-.01855-.1001h15.00836c.014-.36664.09168-.73328.09168-1.09991Zm-15.1-3.30011c.00622-.03125.014-.06806.02032-.1h-.10089c-.006.03516-.01343.06421-.01941.1v-.1h.01941a7.19434,7.19434,0,0,1,.38056-1.5,5.29986,5.29986,0,0,1,.80005-1.5,6.41979,6.41979,0,0,1,1.3-1,3.807,3.807,0,0,1,1.9-.4c.01843,0,.03375.00177.05194.00189.01611-.00012.032-.00189.04809-.00189a3.5756,3.5756,0,0,1,1.9.4,3.24972,3.24972,0,0,1,1.30005,1,3.76579,3.76579,0,0,1,.9,1.5,4.14544,4.14544,0,0,1,.3,1.6Z"/></svg>
