<?xml version="1.0" encoding="UTF-8" standalone="no"?>
<svg
   xmlns:dc="http://purl.org/dc/elements/1.1/"
   xmlns:cc="http://creativecommons.org/ns#"
   xmlns:rdf="http://www.w3.org/1999/02/22-rdf-syntax-ns#"
   xmlns:svg="http://www.w3.org/2000/svg"
   xmlns="http://www.w3.org/2000/svg"
   viewBox="0 0 4700.6865 1300.2736"
   height="1300.2736"
   width="4700.6865"
   xml:space="preserve"
   id="svg2"
   version="1.1"><metadata
     id="metadata8"><rdf:RDF><cc:Work
         rdf:about=""><dc:format>image/svg+xml</dc:format><dc:type
           rdf:resource="http://purl.org/dc/dcmitype/StillImage" /><dc:title></dc:title></cc:Work></rdf:RDF></metadata><defs
     id="defs6"><clipPath
       id="clipPath20"
       clipPathUnits="userSpaceOnUse"><path
         id="path18"
         d="M 0,17.704 H 73.585 V 0 H 0 Z" /></clipPath></defs><g
     transform="matrix(1.3333333,0,0,-1.3333333,0,1300.2729)"
     id="g10"><g
       id="g14"><g
         transform="matrix(45.125786,0,0,45.125786,102.46024,88.121569)"
         id="g888"><path
           d="M 3.685,10.479 H 1.778 v 5.314 h 1.907 z"
           style="fill:#808080;fill-opacity:1;fill-rule:nonzero;stroke:none"
           id="path12" /><path
           id="path22"
           style="fill:#000000;fill-opacity:1;fill-rule:nonzero;stroke:none"
           d="M 11.078,2.162 H 5.41 V 4.07 h 5.668 z m -7.392,0 H 1.778 V 15.794 H 3.686 Z M 0,17.705 V 1.74 C 0,0.922 0.663,0.259 1.48,0.259 h 9.913 c 0.808,0 1.463,0.655 1.463,1.463 v 15.983 z" /><g
           transform="translate(27.3554,13.3432)"
           id="g24"
           style="fill:#000000"><path
             id="path26"
             style="fill:#000000;fill-opacity:1;fill-rule:nonzero;stroke:none"
             d="m 0,0 c -0.354,0 -0.661,-0.132 -0.913,-0.39 -0.25,-0.256 -0.377,-0.562 -0.377,-0.909 0,-0.347 0.127,-0.653 0.376,-0.909 0.252,-0.259 0.562,-0.39 0.923,-0.39 0.359,0 0.669,0.128 0.92,0.379 0.251,0.251 0.378,0.561 0.378,0.92 0,0.36 -0.127,0.669 -0.378,0.92 C 0.678,-0.128 0.365,0 0,0" /></g><g
           transform="translate(62.8788,6.2856)"
           id="g28"
           style="fill:#000000"><path
             id="path30"
             style="fill:#000000;fill-opacity:1;fill-rule:nonzero;stroke:none"
             d="m 0,0 c 0,-1.181 -0.051,-1.973 -0.151,-2.354 -0.098,-0.37 -0.279,-0.724 -0.536,-1.055 -0.257,-0.33 -0.57,-0.59 -0.929,-0.776 -0.717,-0.368 -1.532,-0.328 -2.038,-0.109 -0.249,0.107 -0.448,0.266 -0.609,0.484 -0.166,0.227 -0.294,0.511 -0.381,0.844 -0.089,0.342 -0.134,1.013 -0.134,1.994 V 3.62 h -1.843 v -4.928 c 0,-1.286 0.138,-2.218 0.423,-2.853 0.286,-0.638 0.721,-1.146 1.295,-1.51 0.571,-0.363 1.217,-0.548 1.919,-0.548 1.122,0 2.124,0.42 2.984,1.25 V -5.983 H 1.859 V 3.62 H 0 Z" /></g><g
           transform="translate(49.6181,10.141)"
           id="g32"
           style="fill:#000000"><path
             id="path34"
             style="fill:#000000;fill-opacity:1;fill-rule:nonzero;stroke:none"
             d="M 0,0 C -0.676,0 -1.325,-0.181 -1.93,-0.535 -2.414,-0.82 -2.837,-1.213 -3.192,-1.704 -3.437,-1.226 -3.781,-0.839 -4.222,-0.55 -4.778,-0.185 -5.405,0 -6.085,0 c -1.043,0 -1.948,-0.382 -2.7,-1.137 v 0.902 h -1.843 v -9.604 h 1.843 v 4.123 c 0,1.113 0.101,1.915 0.3,2.381 0.194,0.454 0.497,0.826 0.899,1.106 0.399,0.279 0.825,0.419 1.266,0.419 0.442,0 0.795,-0.109 1.079,-0.335 0.283,-0.225 0.463,-0.506 0.546,-0.859 0.09,-0.383 0.135,-1.03 0.135,-1.924 v -4.911 h 1.827 v 3.838 c 0,1.1 0.087,1.937 0.257,2.487 0.165,0.531 0.451,0.939 0.871,1.247 0.416,0.303 0.862,0.457 1.329,0.457 0.463,0 0.837,-0.11 1.112,-0.327 0.279,-0.22 0.456,-0.483 0.538,-0.804 0.09,-0.348 0.136,-0.915 0.136,-1.685 v -5.213 h 1.876 v 5.213 c 0,1.779 -0.324,2.969 -0.99,3.635 C 1.738,-0.333 0.932,0 0,0" /></g><g
           transform="translate(71.2353,5.9477)"
           id="g36"
           style="fill:#000000"><path
             id="path38"
             style="fill:#000000;fill-opacity:1;fill-rule:nonzero;stroke:none"
             d="m 0,0 c -0.65,0.342 -1.104,0.629 -1.351,0.854 -0.213,0.196 -0.318,0.414 -0.318,0.666 0,0.252 0.091,0.459 0.277,0.633 0.514,0.477 1.389,0.315 2.364,-0.594 L 1.141,1.401 2.35,2.656 2.184,2.819 C 1.248,3.731 0.339,4.193 -0.52,4.193 -1.378,4.193 -2.081,3.935 -2.61,3.423 -3.142,2.91 -3.411,2.281 -3.411,1.554 c 0,-0.719 0.19,-1.311 0.566,-1.76 0.36,-0.431 0.893,-0.825 1.582,-1.174 0.644,-0.324 1.1,-0.608 1.356,-0.843 0.225,-0.208 0.335,-0.458 0.335,-0.766 0,-0.31 -0.123,-0.574 -0.377,-0.809 -0.26,-0.241 -0.565,-0.357 -0.931,-0.357 -0.552,0 -1.112,0.328 -1.667,0.974 l -0.174,0.203 -1.18,-1.318 0.121,-0.154 c 0.781,-0.993 1.773,-1.497 2.95,-1.497 0.854,0 1.584,0.293 2.168,0.872 0.586,0.579 0.883,1.301 0.883,2.144 0,0.669 -0.202,1.245 -0.602,1.711 C 1.238,-0.774 0.693,-0.363 0,0" /></g><g
           transform="translate(19.2919,13.3432)"
           id="g40"
           style="fill:#000000"><path
             id="path42"
             style="fill:#000000;fill-opacity:1;fill-rule:nonzero;stroke:none"
             d="m 0,0 h -1.927 v -13.041 h 6.553 v 1.859 H 0 Z" /></g><path
           id="path44"
           style="fill:#000000;fill-opacity:1;fill-rule:nonzero;stroke:none"
           d="m 26.434,0.302 h 1.859 v 9.604 h -1.859 z" /><g
           transform="translate(34.496,13.3432)"
           id="g46"
           style="fill:#000000"><path
             id="path48"
             style="fill:#000000;fill-opacity:1;fill-rule:nonzero;stroke:none"
             d="m 0,0 h -1.859 v -3.438 h -1.576 v -1.674 h 1.576 v -6.354 c 0,-0.631 0.152,-1.106 0.453,-1.413 0.301,-0.309 0.758,-0.464 1.357,-0.464 0.292,0 0.717,0.046 1.262,0.137 l 0.195,0.032 v 1.623 H 0.37 c -0.235,0 -0.329,0.024 -0.344,0.015 C 0.018,-11.512 0,-11.442 0,-11.282 v 6.17 h 1.811 v 1.674 H 0 Z" /></g><path
           id="path890"
           style="fill:#ffffff;fill-opacity:1;fill-rule:nonzero;stroke:none;stroke-width:1.25104392"
           d="M 3.685,2.162 H 1.778 v 8.317 h 1.907 z" /><path
           d="M 11.078,2.162 H 5.41 V 4.07 h 5.668 z"
           style="fill:#ffffff;fill-opacity:1;fill-rule:nonzero;stroke:none;stroke-width:1.03304195"
           id="path892" /></g></g></g></svg>