<svg width="811" height="946" viewBox="0 0 811 946" fill="none" xmlns="http://www.w3.org/2000/svg">
<path d="M473.766 76.3343C254.339 76.3343 76.4579 253.928 76.4579 473C76.4579 692.072 254.339 869.666 473.766 869.666V946C212.112 946 0 734.231 0 473C0 211.769 212.112 0 473.766 0C605.731 0 725.095 53.8678 811 140.781L756.935 194.759C684.867 121.659 584.618 76.3343 473.766 76.3343Z" fill="white"/>
<path d="M465.73 248.04C342.585 248.04 242.757 347.936 242.757 471.165C242.757 533.77 268.523 590.353 310.022 630.874L260.694 680.236C206.572 627.08 173 553.046 173 471.165C173 309.385 304.059 178.236 465.73 178.236C547.73 178.236 621.856 211.976 675 266.339L625.671 315.702C585.154 273.969 528.468 248.04 465.73 248.04Z" fill="white"/>
<path d="M472.05 163.94C301.208 163.94 162.714 302.417 162.714 473.236C162.714 644.055 301.208 782.531 472.05 782.531C558.028 782.531 635.813 747.459 691.876 690.843L744 742.96C674.597 812.914 578.383 856.236 472.05 856.236C260.497 856.236 89 684.761 89 473.236C89 261.711 260.497 90.2357 472.05 90.2357V163.94Z" fill="white"/>
<path d="M469.139 616.652C388.252 616.652 322.68 551.176 322.68 470.406C322.68 429.676 339.355 392.835 366.259 366.318L319.108 319.236C280.137 357.803 256 411.29 256 470.406C256 587.949 351.426 683.236 469.139 683.236C528.582 683.236 582.342 658.937 621 619.743L573.848 572.659C547.259 599.805 510.169 616.652 469.139 616.652Z" fill="white"/>
</svg>
