<?xml version="1.0" encoding="utf-8"?>
<!-- Generator: Adobe Illustrator 21.1.0, SVG Export Plug-In . SVG Version: 6.00 Build 0)  -->
<svg version="1.1" id="Layer_1" xmlns="http://www.w3.org/2000/svg" xmlns:xlink="http://www.w3.org/1999/xlink" x="0px" y="0px"
	 viewBox="0 0 622.5 267.4" style="enable-background:new 0 0 622.5 267.4;" xml:space="preserve">
<style type="text/css">
	.st0{opacity:0.8;}
	.st1{clip-path:url(#SVGID_2_);fill:#939498;}
	.st2{clip-path:url(#SVGID_4_);fill:#939498;}
	.st3{fill:#4D595A;}
	.st4{fill-rule:evenodd;clip-rule:evenodd;fill:#0D717D;}
	.st5{fill-rule:evenodd;clip-rule:evenodd;fill:#009FAD;}
	.st6{fill:#446CA9;}
	.st7{fill:#76C4D5;}
	.st8{fill:#221F1F;}
	.st9{clip-path:url(#SVGID_6_);fill:#939498;}
	.st10{fill:#939498;}
</style>
<g class="st0">
	<g>
		<defs>
			<rect id="SVGID_1_" x="422.7" y="248.2" width="195.6" height="1"/>
		</defs>
		<use xlink:href="#SVGID_1_"  style="overflow:visible;fill:#939498;"/>
		<clipPath id="SVGID_2_">
			<use xlink:href="#SVGID_1_"  style="overflow:visible;"/>
		</clipPath>
		<rect x="422.7" y="248.2" class="st1" width="195.6" height="1"/>
	</g>
</g>
<g class="st0">
	<g>
		<defs>
			<rect id="SVGID_3_" x="2" y="248.2" width="191.3" height="1"/>
		</defs>
		<use xlink:href="#SVGID_3_"  style="overflow:visible;fill:#939498;"/>
		<clipPath id="SVGID_4_">
			<use xlink:href="#SVGID_3_"  style="overflow:visible;"/>
		</clipPath>
		<rect x="2" y="248.2" class="st2" width="191.3" height="1"/>
	</g>
</g>
<path class="st3" d="M175,177.9c1.1-0.3,2.4-0.6,4.1-0.9c1.7-0.3,3.4-0.4,5.2-0.4c1.9,0,3.4,0.2,4.6,0.7c1.2,0.5,2.2,1.2,2.9,2.1
	c0.7,0.9,1.2,1.9,1.5,3.2c0.3,1.2,0.5,2.6,0.5,4.1v12.4h-6.2v-11.6c0-2-0.3-3.4-0.8-4.2c-0.5-0.8-1.5-1.2-3-1.2
	c-0.4,0-0.9,0-1.4,0.1c-0.5,0-0.9,0.1-1.3,0.1v16.9H175V177.9z M163.6,188.1c0-1.9-0.4-3.4-1.1-4.5c-0.8-1.1-1.9-1.6-3.3-1.6
	s-2.5,0.5-3.3,1.6c-0.8,1.1-1.2,2.6-1.2,4.5c0,1.9,0.4,3.4,1.2,4.6c0.8,1.1,1.9,1.7,3.3,1.7s2.5-0.6,3.3-1.7
	C163.2,191.5,163.6,190,163.6,188.1 M169.9,188.1c0,1.7-0.2,3.3-0.7,4.7c-0.5,1.4-1.2,2.6-2.2,3.7c-0.9,1-2.1,1.8-3.4,2.4
	c-1.3,0.6-2.8,0.8-4.4,0.8c-1.6,0-3.1-0.3-4.4-0.8c-1.3-0.6-2.4-1.3-3.4-2.4c-0.9-1-1.7-2.2-2.2-3.7c-0.5-1.4-0.8-3-0.8-4.7
	c0-1.7,0.3-3.3,0.8-4.7c0.5-1.4,1.3-2.6,2.2-3.6c1-1,2.1-1.8,3.4-2.3c1.3-0.6,2.8-0.8,4.3-0.8c1.6,0,3,0.3,4.3,0.8
	c1.3,0.6,2.4,1.3,3.4,2.3c0.9,1,1.7,2.2,2.2,3.6C169.7,184.8,169.9,186.4,169.9,188.1 M136.2,199.6c-4.7,0-8.3-1.3-10.7-3.9
	c-2.5-2.6-3.7-6.3-3.7-11.1c0-2.4,0.4-4.5,1.1-6.4c0.7-1.9,1.8-3.5,3.1-4.7c1.3-1.3,2.9-2.3,4.7-2.9c1.8-0.7,3.8-1,5.9-1
	c1.2,0,2.3,0.1,3.3,0.3c1,0.2,1.9,0.4,2.6,0.6c0.7,0.2,1.4,0.5,1.9,0.7c0.5,0.2,0.9,0.4,1.1,0.6l-1.9,5.2c-0.9-0.5-1.9-0.9-3.1-1.2
	c-1.2-0.3-2.5-0.5-4-0.5c-1,0-2,0.2-2.9,0.5c-1,0.3-1.8,0.9-2.5,1.6c-0.7,0.7-1.3,1.7-1.8,2.8c-0.4,1.2-0.7,2.6-0.7,4.2
	c0,1.3,0.1,2.6,0.4,3.7c0.3,1.2,0.8,2.1,1.4,3c0.7,0.8,1.5,1.5,2.6,2c1.1,0.5,2.3,0.7,3.8,0.7c0.9,0,1.8-0.1,2.5-0.2
	c0.8-0.1,1.4-0.2,2-0.4c0.6-0.2,1.1-0.3,1.5-0.5c0.4-0.2,0.8-0.4,1.2-0.5l1.8,5.2c-0.9,0.6-2.2,1.1-3.9,1.5
	C140.3,199.4,138.4,199.6,136.2,199.6 M111.6,185.9c0-0.5-0.1-1-0.3-1.5c-0.2-0.5-0.4-0.9-0.7-1.3c-0.3-0.4-0.7-0.7-1.2-1
	c-0.5-0.2-1.1-0.4-1.8-0.4c-0.7,0-1.3,0.1-1.8,0.4c-0.5,0.2-0.9,0.5-1.2,0.9c-0.3,0.4-0.6,0.8-0.8,1.4c-0.2,0.5-0.3,1-0.4,1.6H111.6
	z M97,188.3c0-1.9,0.3-3.6,0.9-5.1c0.6-1.5,1.4-2.7,2.4-3.6c1-1,2.1-1.7,3.3-2.2c1.3-0.5,2.6-0.7,3.9-0.7c3.1,0,5.6,0.9,7.4,2.8
	c1.8,1.9,2.7,4.7,2.7,8.4c0,0.4,0,0.8,0,1.2c0,0.4-0.1,0.8-0.1,1.1h-14.1c0.1,1.3,0.7,2.3,1.8,3c1.1,0.7,2.5,1.1,4.2,1.1
	c1.1,0,2.3-0.1,3.3-0.3c1.1-0.2,2-0.5,2.7-0.8l0.8,5c-0.3,0.2-0.8,0.3-1.3,0.5c-0.6,0.2-1.2,0.3-1.9,0.4c-0.7,0.1-1.4,0.2-2.2,0.3
	c-0.8,0.1-1.6,0.1-2.3,0.1c-2,0-3.7-0.3-5.1-0.9c-1.5-0.6-2.7-1.4-3.6-2.4c-1-1-1.7-2.2-2.1-3.6C97.2,191.4,97,189.9,97,188.3
	 M92.9,188.1c0,1.7-0.3,3.3-0.8,4.7c-0.5,1.4-1.3,2.6-2.2,3.6c-1,1-2.2,1.8-3.6,2.3c-1.4,0.5-3,0.8-4.8,0.8c-0.7,0-1.5,0-2.4-0.1
	c-0.8-0.1-1.6-0.2-2.4-0.3c-0.8-0.1-1.5-0.2-2.3-0.4c-0.7-0.2-1.4-0.3-1.9-0.5v-30.6l6.2-1v10.9c0.7-0.3,1.4-0.5,2.2-0.7
	c0.7-0.2,1.6-0.2,2.4-0.2c1.6,0,2.9,0.3,4.1,0.8c1.2,0.5,2.2,1.3,3,2.3c0.8,1,1.4,2.2,1.8,3.6C92.7,184.8,92.9,186.4,92.9,188.1
	 M86.6,188c0-4-1.5-6-4.4-6c-0.6,0-1.3,0.1-1.9,0.2c-0.6,0.2-1.1,0.4-1.5,0.6v11.3c0.3,0.1,0.7,0.1,1.2,0.1c0.5,0,1,0.1,1.5,0.1
	c1.7,0,3-0.6,3.8-1.7C86.2,191.4,86.6,189.9,86.6,188 M66.4,198.3c-1.1,0.3-2.4,0.6-4.1,0.9c-1.7,0.3-3.4,0.4-5.2,0.4
	c-1.9,0-3.4-0.2-4.6-0.7c-1.2-0.5-2.2-1.2-2.9-2.1c-0.7-0.9-1.2-2-1.5-3.2c-0.3-1.2-0.5-2.6-0.5-4.1v-12.2h6.2v11.4
	c0,2,0.3,3.4,0.8,4.3c0.5,0.9,1.5,1.3,3,1.3c0.4,0,0.9,0,1.4-0.1c0.5,0,0.9-0.1,1.3-0.1v-16.9h6.2V198.3z M37.8,199.1
	c-0.6-0.9-1.3-2-2.1-3.1s-1.6-2.2-2.6-3.3c-0.9-1.1-1.9-2.1-2.9-3.2c-1-1-2-1.9-3-2.7v12.2h-6.5v-28.8h6.5v10.9
	c1.7-1.8,3.4-3.6,5.1-5.6c1.7-1.9,3.3-3.7,4.8-5.3h7.7c-2,2.3-3.9,4.6-5.9,6.7c-2,2.2-4.1,4.3-6.3,6.5c2.3,1.9,4.5,4.2,6.7,6.8
	c2.1,2.6,4.2,5.5,6.2,8.7H37.8z"/>
<path class="st4" d="M89.8,71.8l-3.6,0.8c0-0.5-0.1-1-0.1-1.5c0-3.8,1-7.5,3-10.8l7,6.2c0.1,0.1,0.2,0.2,0.4,0.3
	c-0.4,1-0.7,2.1-0.8,3.3c-0.2,0.1-0.5,0.1-0.7,0.2L89.8,71.8z M103.4,50.6v9.8c-1,0.3-1.9,0.8-2.7,1.4c-0.3-0.2-0.6-0.5-0.9-0.7
	l-7.1-5C95.6,53.2,99.4,51.3,103.4,50.6 M54.8,73.2c3.4-14.9,6.3-27.5,9.7-42.4C66,24,67,22.3,73,18.8c8.4-4.8,14.7-8.4,23.7-13.6
	c5.6-3.2,6.7-3,6.7,3.9v34.6C97.1,44.5,91.4,47.4,87,52l-3-2.1c-0.4-0.3-0.6-0.5-0.7-1c-0.4-1.1-0.7-1.6-1.6-2.4
	c-1.4-1.1-3.5-0.9-4.6,0.5c-1.1,1.4-0.9,3.5,0.5,4.6c0.5,0.4,1,0.7,1.6,0.8c0.4,0.1,0.8,0.1,1.2,0.2c0.4,0.1,0.6,0.2,0.9,0.4
	l2.8,2.5c-3.1,4.6-4.7,9.9-4.7,15.4c0,1,0.1,2,0.2,3l-6.1,1.3c-0.4,0-0.8,0-1.3,0.1c-0.3,0.1-0.6,0.2-0.9,0.3c-4,0.8-8,1.7-12.1,2.6
	C53.7,79.6,53.6,78.5,54.8,73.2 M110.5,60.4v-9.8c4,0.7,7.7,2.6,10.7,5.4l-7.7,5.5c-0.1,0.1-0.2,0.2-0.3,0.2
	C112.4,61.2,111.5,60.8,110.5,60.4 M127.7,72l-9.6-2.2c-0.1-1.1-0.4-2.1-0.8-3c0.1-0.1,0.2-0.2,0.3-0.2l7.1-6.3
	c2,3.3,3.1,7,3.1,10.9C127.7,71.4,127.7,71.7,127.7,72 M115.2,19.1c5.2,2.5,8.9,4.3,14.1,6.8c7.2,3.5,14.4,7,21.7,10.4
	c1.8,7.8,3.6,15.6,5.3,23.4c1.1,4.7,1.6,7.2,2.7,11.8c1.7,7.3,1.5,7.9-6,6.2l-18.5-4.2c0.1-0.8,0.1-1.6,0.1-2.4
	c0-5.6-1.6-10.9-4.8-15.5l2.6-2.4c0.4-0.3,0.6-0.4,1.1-0.5c1.1-0.2,1.8-0.3,2.7-1c1.4-1.1,1.7-3.2,0.5-4.6c-1.1-1.4-3.2-1.7-4.6-0.5
	c-0.5,0.4-0.9,0.8-1.2,1.4c-0.2,0.4-0.3,0.7-0.5,1.1c-0.1,0.3-0.3,0.6-0.6,0.8l-3,2.1c-4.4-4.6-10.1-7.5-16.4-8.3V22.6
	C110.5,17.6,111,17,115.2,19.1 M108.9,82.1c-0.6,0.1-1.2,0.2-1.9,0.2c-0.6,0-1.2,0-1.8-0.1c-0.1,0.2-0.2,0.4-0.3,0.6l-4.4,8.1
	c2.1,0.7,4.3,1.1,6.6,1.1c2.3,0,4.5-0.4,6.7-1.1l-4.4-8C109.1,82.5,109,82.3,108.9,82.1 M116.6,76.7l9.6,2.2
	c-1.6,3.9-4.3,7.2-7.8,9.5l-3.8-9.2C115.4,78.5,116.1,77.6,116.6,76.7 M87.8,78.9l9.6-2.2c0.6,1,1.3,1.8,2.1,2.6
	c-0.1,0.2-0.2,0.4-0.3,0.6l-3.5,8.5C92.1,86.1,89.3,82.8,87.8,78.9 M166.3,95.7c-4.6,5.7-6.7,8.4-11.3,14.1
	c-5.2,6.5-9.4,11.8-14.6,18.3c-3.7,4.7-6.4,4.8-12.5,4.8H107H85.9c-8,0-8.6,0-13.5-6.2c-4.9-6.1-8.7-10.9-13.5-17
	c-3.8-4.8-4.8-6-8.6-10.8c-5.9-7.4-6.9-10.1,2.3-12.1L81,80.4c2.2,6,6.4,11.1,11.9,14.4l-1.3,3c-0.2,0.4-0.4,0.7-0.8,0.9
	c-0.9,0.6-1.5,1-2,2.1c-0.8,1.6-0.1,3.6,1.5,4.4c1.6,0.8,3.6,0.1,4.4-1.5c0.3-0.6,0.4-1.1,0.5-1.8c0-0.4,0-0.8-0.1-1.2
	c0-0.4,0-0.6,0.2-1l1.6-2.9c3.2,1.2,6.5,1.8,9.9,1.8c3.4,0,6.8-0.6,10-1.9l1.6,2.9c0.2,0.4,0.3,0.7,0.2,1.2
	c-0.1,1.1-0.1,1.8,0.4,2.8c0.8,1.6,2.8,2.3,4.4,1.5c1.6-0.8,2.3-2.8,1.5-4.4c-0.3-0.6-0.6-1.1-1.1-1.5c-0.3-0.3-0.7-0.5-1-0.7
	c-0.3-0.2-0.5-0.4-0.6-0.8l-1.3-3.2c5.5-3.3,9.7-8.4,11.8-14.4l31.3,7.1C170.3,89,169.9,91.2,166.3,95.7"/>
<path class="st5" d="M110.5,60.4v-9.8c4,0.7,7.7,2.6,10.7,5.4l-7.7,5.5c-0.1,0.1-0.2,0.2-0.3,0.2C112.4,61.2,111.5,60.8,110.5,60.4
	 M127.7,72l-9.6-2.2c-0.1-1.1-0.4-2.1-0.8-3c0.1-0.1,0.2-0.2,0.3-0.2l7.1-6.3c2,3.3,3.1,7,3.1,10.9C127.7,71.4,127.7,71.7,127.7,72
	 M115.2,19.1c5.2,2.5,8.9,4.3,14.1,6.8c7.2,3.5,14.4,7,21.7,10.4c1.8,7.8,3.6,15.6,5.3,23.4c1.1,4.7,1.6,7.2,2.7,11.8
	c1.7,7.3,1.5,7.9-6,6.2l-18.5-4.2c0.1-0.8,0.1-1.6,0.1-2.4c0-5.6-1.6-10.9-4.8-15.5l2.6-2.4c0.4-0.3,0.6-0.4,1.1-0.5
	c1.1-0.2,1.8-0.3,2.7-1c1.4-1.1,1.7-3.2,0.5-4.6c-1.1-1.4-3.2-1.7-4.6-0.5c-0.5,0.4-0.9,0.8-1.2,1.4c-0.2,0.4-0.3,0.7-0.5,1.1
	c-0.1,0.3-0.3,0.6-0.6,0.8l-3,2.1c-4.4-4.6-10.1-7.5-16.4-8.3V22.6C110.5,17.6,111,17,115.2,19.1 M116.6,76.7l9.6,2.2
	c-1.6,3.9-4.3,7.2-7.8,9.5l-3.8-9.2C115.4,78.5,116.1,77.6,116.6,76.7 M107,91.8v-9.6c0.6,0,1.3-0.1,1.9-0.2
	c0.1,0.2,0.2,0.5,0.4,0.7l4.4,8C111.5,91.5,109.2,91.8,107,91.8 M166.3,95.7c-4.6,5.7-6.7,8.4-11.3,14.1
	c-5.2,6.5-9.4,11.8-14.6,18.3c-3.7,4.7-6.4,4.8-12.5,4.8H107V98.7c3.4,0,6.8-0.6,10-1.9l1.6,2.9c0.2,0.4,0.3,0.7,0.2,1.2
	c-0.1,1.1-0.1,1.8,0.4,2.8c0.8,1.6,2.8,2.3,4.4,1.5c1.6-0.8,2.3-2.8,1.5-4.4c-0.3-0.6-0.6-1.1-1.1-1.5c-0.3-0.3-0.7-0.5-1-0.7
	c-0.3-0.2-0.5-0.4-0.6-0.8l-1.3-3.2c5.5-3.3,9.7-8.4,11.8-14.4l31.3,7.1C170.3,89,169.9,91.2,166.3,95.7"/>
<polygon class="st6" points="398.3,94.5 381.7,94.5 381.7,133.3 420.5,133.3 420.5,116.7 398.3,116.7 "/>
<polygon class="st6" points="481.4,94.7 481.4,116.7 459.4,116.7 459.3,116.6 459.3,133.3 498.1,133.3 498.1,94.5 481.3,94.5 "/>
<polygon class="st6" points="381.7,55.8 398.4,55.8 398.3,55.6 398.3,33.6 398.3,33.6 420.4,33.6 420.5,33.7 420.5,17 381.7,17 "/>
<polygon class="st6" points="459.3,17 459.3,33.6 481.4,33.6 481.4,55.8 498.1,55.8 498.1,17 "/>
<polygon class="st7" points="457.2,55.8 435,33.6 459.3,33.6 459.3,17 420.5,17 420.5,33.7 442.5,55.8 "/>
<polygon class="st7" points="437.2,94.5 422.5,94.5 440.9,112.9 444.7,116.7 437.1,116.7 420.5,116.7 420.5,133.3 459.3,133.3 
	459.3,116.6 448.2,105.6 "/>
<polygon class="st7" points="481.4,55.8 481.4,72.4 481.4,80 477.6,76.2 459.3,57.8 459.3,72.5 470.3,83.5 481.3,94.5 498.1,94.5 
	498.1,55.8 "/>
<polygon class="st7" points="420.5,77.8 398.4,55.8 381.7,55.8 381.7,94.5 398.3,94.5 398.3,70.3 420.5,92.5 "/>
<path class="st8" d="M300.6,175.6l-4.2,5c-1.9-2.3-4.7-3.7-7.2-3.7c-4.5,0-8,3.6-8,8.3c0,4.8,3.4,8.4,8,8.4c2.4,0,5.2-1.3,7.2-3.4
	l4.3,4.5c-3.1,3.1-7.6,5.2-11.8,5.2c-8.6,0-15-6.3-15-14.7c0-8.3,6.6-14.5,15.3-14.5C293.3,170.8,297.7,172.7,300.6,175.6z"/>
<path class="st8" d="M304.1,199.7v-30.3h7.1v30.3H304.1z"/>
<path class="st8" d="M339.2,188.6c0,6.8-4.8,11.3-12,11.3c-7.2,0-12.1-4.5-12.1-11.3s4.8-11.2,12.1-11.2
	C334.4,177.4,339.2,181.9,339.2,188.6z M322.3,188.7c0,3.4,2,5.7,4.9,5.7c2.9,0,4.9-2.3,4.9-5.7c0-3.4-2-5.7-4.9-5.7
	C324.3,183,322.3,185.3,322.3,188.7z"/>
<path class="st8" d="M364.5,199.7h-7.1V196c-1.5,2.6-4,3.9-7.2,3.9c-4.8,0-7.9-3.3-7.9-8.4v-13.9h7.1v11.9c0,2.6,1.4,4.2,3.7,4.2
	c2.7,0,4.3-2.2,4.3-5.2v-10.9h7.1V199.7z"/>
<path class="st8" d="M392.3,199.7h-7.1v-2.9c-1.6,2-3.8,3.2-6.6,3.2c-6.2,0-10.3-4.6-10.3-11.4c0-6.7,4-11.2,10.1-11.2
	c2.9,0,5.2,1.1,6.8,3.2v-11.2h7.1V199.7z M385.3,188.7c0-3.4-2-5.7-4.9-5.7c-2.9,0-4.9,2.3-4.9,5.7c0,3.4,2,5.8,4.9,5.8
	C383.3,194.5,385.3,192.1,385.3,188.7z"/>
<path class="st6" d="M418.2,199.7l-13.2-17.6v17.6h-6.8v-28.6h6.4l13.2,17.7v-17.7h6.8v28.6H418.2z"/>
<path class="st6" d="M449.8,185.3v14.4h-6.9v-2.5c-1.4,1.9-3.8,2.9-6.7,2.9c-4.7,0-7.6-2.9-7.6-6.9c0-4.2,3-6.6,8.5-6.7h5.8v-0.3
	c0-2.2-1.4-3.5-4.3-3.5c-1.8,0-4.3,0.7-6.6,1.8l-2-4.7c3.4-1.6,6.5-2.5,10.2-2.5C446.3,177.3,449.8,180.3,449.8,185.3z M442.9,192.2
	v-2h-4.5c-2.1,0-3.2,0.7-3.2,2.4c0,1.6,1.1,2.6,3.1,2.6C440.6,195.2,442.4,194,442.9,192.2z"/>
<path class="st6" d="M468.9,198.5c-1.6,0.9-3.8,1.5-5.9,1.5c-4.3,0-7.3-2.4-7.3-7v-9.7h-3.1v-4.6h3.1v-6.1h7v6.1h5.8v4.7h-5.8v8.6
	c0,1.7,0.7,2.5,2,2.4c0.7,0,1.7-0.3,2.7-0.7L468.9,198.5z"/>
<path class="st6" d="M479.7,171.3c0,2.2-1.6,3.8-3.7,3.8c-2.2,0-3.7-1.6-3.7-3.8c0-2.2,1.6-3.7,3.7-3.7
	C478.2,167.6,479.7,169.1,479.7,171.3z M472.5,199.7v-22h7v22H472.5z"/>
<path class="st6" d="M490.4,199.7l-8.3-22h7.3l4.7,15.6l4.8-15.6h7l-8.3,22H490.4z"/>
<path class="st6" d="M529.3,190.6h-15.5c0.7,2.6,2.6,4.1,5.2,4.1c1.9,0,3.8-0.8,5.3-2.2l3.7,3.6c-2.2,2.5-5.6,3.9-9.6,3.9
	c-7.2,0-11.7-4.5-11.7-11.2c0-6.8,4.7-11.3,11.5-11.3C525.9,177.4,529.8,182.5,529.3,190.6z M522.5,186.8c0-2.7-1.7-4.5-4.3-4.5
	c-2.5,0-4.1,1.8-4.6,4.5H522.5z"/>
<path class="st8" d="M558.1,175.6l-4.2,5c-1.9-2.3-4.7-3.7-7.2-3.7c-4.5,0-8,3.6-8,8.3c0,4.8,3.4,8.4,8,8.4c2.4,0,5.2-1.3,7.2-3.4
	l4.3,4.5c-3.1,3.1-7.6,5.2-11.8,5.2c-8.6,0-15-6.3-15-14.7c0-8.3,6.6-14.5,15.3-14.5C550.8,170.8,555.3,172.7,558.1,175.6z"/>
<path class="st8" d="M582.9,188.6c0,6.8-4.8,11.3-12,11.3c-7.2,0-12.1-4.5-12.1-11.3s4.8-11.2,12.1-11.2
	C578,177.4,582.9,181.9,582.9,188.6z M565.9,188.7c0,3.4,2,5.7,4.9,5.7c2.9,0,4.9-2.3,4.9-5.7c0-3.4-2-5.7-4.9-5.7
	C567.9,183,565.9,185.3,565.9,188.7z"/>
<path class="st8" d="M609.2,185.8v13.9h-7v-11.9c0-2.6-1.5-4.2-3.9-4.2c-2.6,0-4.2,1.8-4.5,4.5v11.7h-7.1v-22h7.1v3.6
	c1.6-2.6,4.1-3.9,7.4-3.9C606,177.3,609.2,180.6,609.2,185.8z"/>
<g class="st0">
	<g>
		<defs>
			<rect id="SVGID_5_" x="236.1" y="4" width="1" height="203.5"/>
		</defs>
		<use xlink:href="#SVGID_5_"  style="overflow:visible;fill:#939498;"/>
		<clipPath id="SVGID_6_">
			<use xlink:href="#SVGID_5_"  style="overflow:visible;"/>
		</clipPath>
		<rect x="236.1" y="4" class="st9" width="1" height="203.5"/>
	</g>
</g>
<g>
	<path class="st10" d="M232.3,256.2h-12.8V234h12.8v3.9h-8.1v4.9h7.5v3.9h-7.5v5.7h8.1V256.2z"/>
	<path class="st10" d="M248.6,256.2l-0.6-2.2h-0.2c-0.5,0.8-1.2,1.4-2.1,1.8c-0.9,0.4-1.9,0.6-3.1,0.6c-2,0-3.5-0.5-4.5-1.6
		c-1-1.1-1.5-2.6-1.5-4.6v-11.1h4.6v9.9c0,1.2,0.2,2.1,0.7,2.8c0.4,0.6,1.1,0.9,2.1,0.9c1.3,0,2.2-0.4,2.8-1.3
		c0.6-0.9,0.9-2.3,0.9-4.3v-8h4.6v17H248.6z"/>
	<path class="st10" d="M266.5,238.9c0.6,0,1.1,0,1.6,0.1l-0.3,4.3c-0.4-0.1-0.8-0.2-1.4-0.2c-1.5,0-2.6,0.4-3.5,1.1
		c-0.8,0.8-1.2,1.8-1.2,3.2v8.6H257v-17h3.5l0.7,2.9h0.2c0.5-1,1.2-1.7,2.1-2.3S265.4,238.9,266.5,238.9z"/>
	<path class="st10" d="M286.6,247.7c0,2.8-0.7,4.9-2.2,6.5c-1.5,1.6-3.5,2.3-6.1,2.3c-1.6,0-3.1-0.4-4.3-1.1
		c-1.2-0.7-2.2-1.7-2.9-3.1c-0.7-1.3-1-2.9-1-4.7c0-2.8,0.7-4.9,2.2-6.5c1.4-1.5,3.5-2.3,6.1-2.3c1.6,0,3.1,0.4,4.3,1.1
		c1.2,0.7,2.2,1.7,2.9,3.1C286.2,244.4,286.6,245.9,286.6,247.7z M274.8,247.7c0,1.7,0.3,3,0.8,3.8c0.6,0.9,1.5,1.3,2.7,1.3
		c1.2,0,2.1-0.4,2.7-1.3s0.8-2.1,0.8-3.8c0-1.7-0.3-2.9-0.8-3.8c-0.5-0.8-1.4-1.3-2.7-1.3c-1.2,0-2.1,0.4-2.7,1.3
		C275.1,244.8,274.8,246,274.8,247.7z"/>
	<path class="st10" d="M299.7,256.6c-2,0-3.6-0.7-4.7-2.2h-0.2c0.2,1.4,0.2,2.2,0.2,2.5v6.9h-4.6v-24.5h3.8l0.7,2.2h0.2
		c1.1-1.7,2.7-2.5,4.8-2.5c2,0,3.6,0.8,4.7,2.3c1.1,1.6,1.7,3.7,1.7,6.5c0,1.8-0.3,3.4-0.8,4.7c-0.5,1.3-1.3,2.4-2.3,3.1
		C302.2,256.2,301,256.6,299.7,256.6z M298.4,242.7c-1.1,0-2,0.4-2.5,1.1c-0.5,0.7-0.8,1.9-0.8,3.5v0.5c0,1.8,0.3,3.1,0.8,3.9
		c0.5,0.8,1.4,1.2,2.6,1.2c2.1,0,3.1-1.7,3.1-5.1c0-1.7-0.3-2.9-0.8-3.8C300.3,243.1,299.4,242.7,298.4,242.7z"/>
	<path class="st10" d="M317.8,256.6c-2.7,0-4.9-0.8-6.4-2.3c-1.5-1.5-2.3-3.6-2.3-6.4c0-2.8,0.7-5,2.1-6.6c1.4-1.6,3.4-2.3,5.9-2.3
		c2.4,0,4.3,0.7,5.6,2.1c1.3,1.4,2,3.3,2,5.7v2.2h-11c0.1,1.3,0.4,2.3,1.2,3.1c0.7,0.7,1.8,1.1,3.1,1.1c1,0,2-0.1,2.9-0.3
		c0.9-0.2,1.9-0.6,2.9-1v3.6c-0.8,0.4-1.7,0.7-2.6,0.9C320.2,256.5,319.1,256.6,317.8,256.6z M317.1,242.2c-1,0-1.8,0.3-2.3,0.9
		c-0.6,0.6-0.9,1.5-1,2.7h6.5c0-1.1-0.3-2-0.9-2.7C318.9,242.6,318.1,242.2,317.1,242.2z"/>
	<path class="st10" d="M350.9,256.2h-15.5V253l5.6-5.6c1.7-1.7,2.7-2.9,3.2-3.5c0.5-0.7,0.9-1.3,1.1-1.8c0.2-0.6,0.3-1.1,0.3-1.7
		c0-0.9-0.2-1.6-0.7-2c-0.5-0.4-1.1-0.7-2-0.7c-0.9,0-1.7,0.2-2.5,0.6c-0.8,0.4-1.7,1-2.5,1.7l-2.6-3c1.1-0.9,2-1.6,2.7-2
		c0.7-0.4,1.5-0.7,2.4-0.9c0.9-0.2,1.8-0.3,2.9-0.3c1.4,0,2.6,0.3,3.7,0.8c1.1,0.5,1.9,1.2,2.5,2.1c0.6,0.9,0.9,2,0.9,3.1
		c0,1-0.2,2-0.5,2.9c-0.4,0.9-0.9,1.8-1.7,2.8s-2.1,2.3-4,4l-2.9,2.7v0.2h9.7V256.2z"/>
	<path class="st10" d="M368.5,245.1c0,3.9-0.6,6.8-1.9,8.6c-1.3,1.9-3.2,2.8-5.9,2.8c-2.6,0-4.5-1-5.8-2.9c-1.3-1.9-2-4.8-2-8.5
		c0-3.9,0.6-6.8,1.9-8.7s3.2-2.8,5.8-2.8c2.6,0,4.5,1,5.8,2.9C367.9,238.5,368.5,241.4,368.5,245.1z M357.7,245.1
		c0,2.7,0.2,4.7,0.7,5.9c0.5,1.2,1.3,1.8,2.4,1.8c1.1,0,1.9-0.6,2.4-1.8c0.5-1.2,0.7-3.1,0.7-5.8c0-2.7-0.2-4.7-0.7-5.9
		c-0.5-1.2-1.3-1.8-2.4-1.8c-1.1,0-1.9,0.6-2.4,1.8C357.9,240.5,357.7,242.4,357.7,245.1z"/>
	<path class="st10" d="M382.5,256.2h-4.7v-12.9l0-2.1l0.1-2.3c-0.8,0.8-1.3,1.3-1.6,1.5l-2.6,2.1l-2.3-2.8l7.2-5.7h3.9V256.2z"/>
	<path class="st10" d="M404.1,243.5c0,4.4-0.9,7.6-2.8,9.8c-1.8,2.2-4.6,3.2-8.4,3.2c-1.3,0-2.3-0.1-3-0.2v-3.8
		c0.9,0.2,1.7,0.3,2.7,0.3c1.6,0,2.9-0.2,3.9-0.7c1-0.5,1.8-1.2,2.3-2.2c0.5-1,0.8-2.3,0.9-4.1h-0.2c-0.6,1-1.3,1.6-2,2
		c-0.8,0.4-1.7,0.6-2.9,0.6c-1.9,0-3.5-0.6-4.6-1.9s-1.7-3-1.7-5.2c0-2.4,0.7-4.3,2-5.6c1.4-1.4,3.2-2.1,5.5-2.1
		c1.6,0,3.1,0.4,4.3,1.2c1.2,0.8,2.2,1.9,2.8,3.4S404.1,241.5,404.1,243.5z M396,237.5c-1,0-1.7,0.3-2.3,1c-0.5,0.7-0.8,1.6-0.8,2.9
		c0,1.1,0.2,1.9,0.7,2.6s1.3,0.9,2.3,0.9c1,0,1.8-0.3,2.4-0.9c0.7-0.6,1-1.3,1-2.2c0-1.2-0.3-2.2-0.9-3.1
		C397.8,238,397,237.5,396,237.5z"/>
</g>
</svg>
