<?xml version="1.0" encoding="utf-8"?>
<!-- Generator: Adobe Illustrator 26.1.0, SVG Export Plug-In . SVG Version: 6.00 Build 0)  -->
<svg version="1.1" id="Layer_1" xmlns="http://www.w3.org/2000/svg" xmlns:xlink="http://www.w3.org/1999/xlink" x="0px" y="0px"
	 viewBox="0 0 925.1 237.1" style="enable-background:new 0 0 925.1 237.1;" xml:space="preserve">
<style type="text/css">
	.st0{fill:#D2E4F4;}
	.st1{fill:#43AF5A;}
	.st2{fill:#FED147;}
	.st3{fill:#0086FF;}
	.st4{fill:#00CEFF;}
	.st5{fill:#333333;}
</style>
<path class="st0" d="M29,26.2h160.6v160.6H29V26.2z"/>
<g id="gPSyY2_9_">
	<path class="st1" d="M24,108V32.9c0-9.5,3.8-13.3,13.3-13.3h150.5c9,0,12.7,3.6,12.8,12.6c0.1,50.3,0.1,100.6,0,150.9
		c0,9.1-4.1,13.1-13.3,13.1c-50.2,0.1-100.3,0-150.5,0c-8.6,0-12.8-4.3-12.8-12.8C24,183.4,24,108,24,108z M112.4,32
		c-23.7,0-47.4,0.1-71-0.1c-3.6,0-5.2,0.8-5.2,4.8c0.1,34.1,0.1,68.1,0.1,102.2c0,1.5-0.7,3.5,1.2,4.2c1.6,0.7,2.6-1,3.7-1.8
		c14.7-11.9,29.4-23.7,44-35.7c2.7-2.2,4.5-2.2,7,0.4c9.9,10.2,20.2,20.1,30.2,30.2c2.1,2.2,3.8,2.2,6.1,0.4
		c5.5-4.4,11.2-8.5,16.6-13c2.9-2.4,5.1-2.3,8-0.1c10,7.5,20.1,14.8,30.3,22.1c1.2,0.9,2.4,2.7,4.1,1.9c1.7-0.8,1.1-2.8,1.1-4.4
		c0-35.4,0-70.8,0.1-106.1c0-4.1-1.2-5.2-5.2-5.2C159.8,32,136.1,32,112.4,32L112.4,32z"/>
	<path class="st2" d="M142.9,56.4c11.3-0.1,20.2,8.9,20.2,20.3c0,10.9-9.2,20.1-20.1,20.1c-11.2,0-20.2-8.9-20.4-20.2
		C122.4,65.5,131.5,56.4,142.9,56.4L142.9,56.4z"/>
</g>
<g id="XMLID_148_">
	<g id="XMLID_154_">
		<path id="XMLID_158_" class="st3" d="M44.6,140.9H18.2v61.5h61.5v-26.3H44.6V140.9z"/>
		<path id="XMLID_157_" class="st3" d="M176.4,141.1v35h-34.9l-0.2-0.2v26.5h61.5v-61.5h-26.6L176.4,141.1z"/>
		<path id="XMLID_156_" class="st3" d="M18.2,79.4h26.6l-0.2-0.3V44.2h34.9l0.2,0.2V17.8H18.2V79.4z"/>
		<path id="XMLID_155_" class="st3" d="M141.3,17.8v26.4h35.1v35.2h26.4V17.8H141.3z"/>
	</g>
	<g id="XMLID_149_">
		<path id="XMLID_153_" class="st4" d="M102.8,44.2h38.5V17.8H79.7v26.6"/>
		<path id="XMLID_152_" class="st4" d="M118.1,176.1H79.7v26.3h61.6v-26.5"/>
		<path id="XMLID_151_" class="st4" d="M176.2,140.9h26.6V79.4h-26.4v38.4"/>
		<path id="XMLID_150_" class="st4" d="M44.8,79.4H18.2v61.5h26.4v-38.4"/>
	</g>
</g>
<path class="st5" d="M232.8,108.4H243v80.9h50.8v9.4h-61C232.8,198.7,232.8,108.4,232.8,108.4z M305.9,179.3V179
	c0-14.3,11.6-21.8,28.5-21.8c8.5,0,14.4,1.2,20.4,2.8v-2.1c0-11.9-7.2-18.1-19.7-18.1c-7.9,0-14.1,1.9-20.2,4.8l-3-8.1
	c7.4-3.4,14.4-5.7,24.2-5.7c9.4,0,16.8,2.6,21.5,7.4c4.6,4.6,7,11.1,7,19.6v40.7h-9.8v-9.9c-4.6,5.9-12.3,11.3-24,11.3
	C318.3,200.1,305.9,193,305.9,179.3L305.9,179.3z M354.9,174.2V168c-4.9-1.4-11.3-2.8-19.5-2.8c-12.4,0-19.5,5.4-19.5,13.4v0.3
	c0,8.4,7.7,13.3,16.8,13.3C345,192.1,354.9,184.7,354.9,174.2z M385.6,132h9.9v11.6c4.4-7.2,11.3-13,22.8-13
	c16.1,0,25.5,10.8,25.5,26.7v41.4h-9.9v-38.9c0-12.4-6.7-20.1-18.4-20.1c-11.5,0-20,8.4-20,20.9v38.2h-9.9V132z M461.1,165.5v-0.3
	c0-21.8,15.9-34.7,31.9-34.7c12.4,0,20.4,6.7,25.5,14.2v-40.2h9.9v94.1h-9.9v-13.4c-5.4,8-13.3,14.8-25.5,14.8
	C477,200.1,461.1,187.4,461.1,165.5z M518.9,165.4v-0.3c0-15.3-11.7-25.7-24.1-25.7c-12.9,0-23.5,9.5-23.5,25.7v0.3
	c0,15.7,10.8,25.8,23.5,25.8C507.2,191.2,518.9,180.7,518.9,165.4z M545.1,190.1l5-7.1c7.2,5.4,15.2,8.5,23.1,8.5
	c8,0,13.8-4.1,13.8-10.6v-0.3c0-6.7-7.9-9.3-16.6-11.7c-10.4-3-22.1-6.6-22.1-18.8v-0.3c0-11.5,9.5-19.1,22.7-19.1
	c8.1,0,17.2,2.8,24,7.4l-4.5,7.5c-6.2-4-13.3-6.4-19.7-6.4c-7.9,0-12.9,4.1-12.9,9.7v0.3c0,6.3,8.3,8.8,17.2,11.5
	c10.3,3.1,21.4,7.1,21.4,19.1v0.3c0,12.6-10.4,20-23.7,20C563.1,199.9,552.6,196.2,545.1,190.1L545.1,190.1z M610.7,165.6v-0.3
	c0-18.8,14.7-34.8,34.2-34.8c12.6,0,20.5,5.3,26.7,11.9l-6.6,7c-5.3-5.5-11.2-10.1-20.2-10.1c-13.5,0-23.9,11.5-23.9,25.8v0.3
	c0,14.4,10.6,25.9,24.5,25.9c8.5,0,15.1-4.3,20.4-9.9l6.3,5.9c-6.7,7.5-14.7,12.9-27.2,12.9C625.4,200.2,610.7,184.3,610.7,165.6
	L610.7,165.6z M683.5,179.3V179c0-14.3,11.6-21.8,28.5-21.8c8.5,0,14.4,1.2,20.4,2.8v-2.1c0-11.9-7.2-18.1-19.7-18.1
	c-7.9,0-14.1,1.9-20.2,4.8l-3-8.1c7.4-3.4,14.4-5.7,24.2-5.7c9.4,0,16.8,2.6,21.5,7.4c4.6,4.6,7,11.1,7,19.6v40.7h-9.9v-9.9
	c-4.6,5.9-12.2,11.3-24,11.3C695.8,200.1,683.5,193,683.5,179.3L683.5,179.3z M732.5,174.2V168c-4.9-1.4-11.3-2.8-19.5-2.8
	c-12.4,0-19.5,5.4-19.5,13.4v0.3c0,8.4,7.7,13.3,16.8,13.3C722.5,192.1,732.5,184.7,732.5,174.2z M763.1,132h9.9v13.4
	c5.4-8,13.3-14.8,25.5-14.8c16,0,31.9,12.6,31.9,34.6v0.3c0,21.8-15.7,34.7-31.9,34.7c-12.4,0-20.4-6.7-25.5-14.2v33.4h-9.9V132z
	 M820.3,165.5v-0.3c0-15.7-10.8-25.8-23.5-25.8c-12.4,0-24.1,10.4-24.1,25.7v0.3c0,15.5,11.7,25.8,24.1,25.8
	C809.7,191.2,820.3,181.6,820.3,165.5z M878.2,191.6c9.2,0,15.6-3.7,21-9.4l6.2,5.5c-6.7,7.5-14.8,12.5-27.5,12.5
	c-18.3,0-33.3-14.1-33.3-34.8c0-19.3,13.5-34.8,32-34.8c19.7,0,31.1,15.7,31.1,35.3c0,0.9,0,1.9-0.1,3.5h-52.9
	C856.1,183.4,866.4,191.6,878.2,191.6z M897.6,161.4c-1.2-12.1-8.1-22.4-21.3-22.4c-11.5,0-20.2,9.5-21.7,22.4H897.6z"/>
<path id="XMLID_193_" class="st5" d="M259.4,75.5c6.9,0,12.5-2.7,16.9-8.2l9,9.3c-7.1,8-15.5,12-25.2,12c-9.7,0-17.6-3.1-23.9-9.2
	c-6.3-6.1-9.4-13.8-9.4-23.1s3.2-17.1,9.6-23.3c6.4-6.2,14.2-9.3,23.4-9.3c10.3,0,18.9,3.9,25.9,11.8l-8.7,9.9
	c-4.4-5.5-9.9-8.3-16.5-8.3c-5.3,0-9.8,1.7-13.5,5.2c-3.7,3.4-5.6,8.1-5.6,13.9s1.8,10.5,5.3,14.1C250.1,73.7,254.4,75.5,259.4,75.5
	L259.4,75.5z"/>
<path id="XMLID_180_" class="st5" d="M296.3,87.9V25.1h14v50.3h26.8v12.5H296.3z"/>
<path id="XMLID_177_" class="st5" d="M398.5,79.2c-6.3,6.2-14.2,9.3-23.4,9.3c-9.3,0-17.1-3.1-23.4-9.3c-6.3-6.2-9.5-13.9-9.5-23.1
	s3.2-16.9,9.5-23.1s14.2-9.3,23.4-9.3c9.3,0,17.1,3.1,23.4,9.3c6.3,6.2,9.5,13.9,9.5,23.1S404.8,73,398.5,79.2z M393.7,56.1
	c0-5.6-1.8-10.4-5.4-14.3c-3.6-4-8-5.9-13.2-5.9s-9.7,2-13.2,5.9c-3.6,4-5.4,8.7-5.4,14.3s1.8,10.4,5.4,14.3s8,5.9,13.2,5.9
	s9.7-2,13.2-5.9C391.9,66.5,393.7,61.7,393.7,56.1z"/>
<path id="XMLID_175_" class="st5" d="M436.5,71.7c2.3,2.9,5.5,4.4,9.4,4.4c4,0,7.1-1.5,9.4-4.4s3.5-6.9,3.5-11.9V25.1h14v35.1
	c0,9.1-2.5,16.1-7.5,21c-5,4.9-11.5,7.3-19.3,7.3s-14.3-2.5-19.4-7.4S419,69.2,419,60.2V25.1h14v34.7
	C432.9,64.8,434.1,68.8,436.5,71.7z"/>
<path id="XMLID_172_" class="st5" d="M535.2,33.3c6,5.5,9,13.1,9,22.9s-2.9,17.5-8.8,23.2c-5.8,5.7-14.7,8.5-26.7,8.5h-21.4V25.1
	h22.2C520.7,25.1,529.3,27.9,535.2,33.3z M525,70.6c3.4-3.2,5.2-7.9,5.2-14.1s-1.7-10.9-5.2-14.2c-3.4-3.3-8.7-5-15.9-5h-7.8v38.2
	h8.9C516.6,75.5,521.5,73.9,525,70.6z"/>
<path id="XMLID_170_" class="st5" d="M624,25.1h14v62.8h-14l-29.9-39.3v39.3h-14V25.1h13.1L624,65.5L624,25.1L624,25.1z"/>
<path id="XMLID_167_" class="st5" d="M698.2,87.9l-5.9-13.6H666l-5.8,13.6h-14.9l27.1-62.8H686l27.1,62.8H698.2L698.2,87.9z
	 M679.2,43.8L671.3,62H687L679.2,43.8z"/>
<path id="XMLID_165_" class="st5" d="M742.4,37.2v50.7h-14V37.2h-17.8V25.1h49.6v12.1H742.4z"/>
<path id="XMLID_163_" class="st5" d="M770.4,25.1h14v62.8h-14V25.1z"/>
<path id="XMLID_161_" class="st5" d="M823,65.1l16-40h15.2L829,87.9h-11.9l-25.2-62.8h15.2L823,65.1z"/>
<path id="XMLID_159_" class="st5" d="M906.9,25.1v12.5h-31.3v12.9h28.1v11.9h-28.1v13h32.2v12.4h-46.3V25.1H906.9L906.9,25.1z"/>
</svg>
