<svg xmlns="http://www.w3.org/2000/svg" role="img" viewBox="0.15 -0.98 52.71 70.46"><style>svg {enable-background:new 0 0 52.6666679 72.75}</style><style>.st0{fill:#fff}</style><path d="M10.45 65.814c0 .333-.074.653-.215.926-.327.636-.903.959-1.711.959-.539 0-.958-.153-1.247-.453-.472-.49-.45-1.229-.449-1.236l-.345-.015c-.001.036-.031.888.543 1.488.356.372.86.56 1.498.56 1.181 0 1.75-.622 2.019-1.145a2.38 2.38 0 00.252-1.084v-6.66h-.345v6.66zm4.65-6.647a.21.21 0 00-.199.143l-2.856 8.635h.363l.832-2.455h3.735l.84 2.455h.364l-2.881-8.635a.208.208 0 00-.198-.143zm-1.747 5.978l1.747-5.332 1.761 5.332h-3.508zm6.465 2.779h4.175v-.345h-3.829v-3.9h3.604v-.346h-3.604v-3.9h3.829v-.346h-4.175zm11.322-6.438c.002-.04.034-.996-.637-1.696-.446-.466-1.092-.703-1.917-.703-.83 0-1.478.237-1.925.703-.664.693-.631 1.633-.63 1.666v4.264c0 .512.142.993.41 1.39.32.475.951 1.04 2.14 1.04.39 0 .747-.04 1.06-.117a1.984 1.984 0 001.5-1.94V63.95h-2.21v.346h1.864v1.795a1.64 1.64 0 01-1.236 1.606 4.15 4.15 0 01-.978.106c-.832 0-1.456-.298-1.853-.887a2.127 2.127 0 01-.352-1.197v-4.272c0-.008-.028-.831.535-1.419.379-.396.943-.596 1.675-.596.726 0 1.287.2 1.666.593.57.592.544 1.438.544 1.446l.344.014zm2.3 6.438h4.222v-.345h-3.877v-3.9h3.549v-.346h-3.549v-3.9h3.877v-.346H33.44zm11.336.014l-1.867-3.805c.363-.106.689-.268.945-.52.385-.376.58-.92.58-1.619 0-1.72-.879-2.509-1.403-2.744a1.884 1.884 0 00-.778-.163h-2.517v8.837h.345v-3.626c.145.001.294.004.45.008.672.014 1.394.03 2.034-.09l1.829 3.722h.382zm-4.238-3.977a39.445 39.445 0 00-.457-.009v-4.52h2.172c.227 0 .442.045.636.133.548.246 1.2.98 1.2 2.43 0 .61-.156 1.058-.476 1.372-.66.646-1.943.618-3.075.594z" class="st0"/><path d="M44.014 42.944c-.195-1.432-.807-2.075-1.345-2.642-.502-.528-.976-1.027-.824-1.942.141-.847.815-1.367 1.915-1.503-.668-4.517-1.647-10.215-2.906-15.077-.629-2.427-1.623-4.114-2.957-5.235a54.225 54.225 0 001.607-.858c2.948-1.652 3.428-2.446 3.533-2.9.088-.383-.037-.643-.157-.794-.276-.348-.813-.51-1.689-.51-.967 0-2.276.204-3.643.492-.012.249-.034.508-.067.779 1.404-.305 2.75-.525 3.71-.525.88 0 1.075.19 1.106.228.011.015.04.05.013.163-.04.172-.386.856-3.17 2.417-.801.449-1.745.937-2.802 1.452l-.013.018-.02-.002c-1.23.598-2.613 1.232-4.115 1.883-.89.386-1.777.759-2.643 1.113.415-.478.778-.91 1.053-1.24a1.492 1.492 0 00-.327-2.198c1.225-.32 2.731-.396 3.886-.396 1.047 0 1.805.062 1.805.062.33-.46 2.237-6.972-1.052-6.972-2.825 0-4.68 5.533-5.146 7.093a1.49 1.49 0 00-1.46.504c-1.73 2.081-4.018 4.53-4.661 4.855-.09.041-.16.065-.212.08a1.493 1.493 0 00-2.437 1.282 3.916 3.916 0 01-.462.088c-.247.026-.621.058-1.093.09-.028-.026-.055-.052-.085-.077a1.491 1.491 0 00-1.612-.191c-.279.004-1.301-.069-3.847-1.097-2.503-1.011-3.737-1.292-4.37-1.351.513-.228.852-.357.852-.357s-1.752-5.152-4.115-5.151c-.307 0-.625.087-.95.283-2.828 1.71 1.118 6.907 1.118 6.907.458-.317.953-.61 1.433-.87a1.487 1.487 0 001.06 2.138c-5.304-.174-6.241-.886-6.404-1.125-.04-.057-.054-.109-.017-.205.198-.508 1.01-1.044 2.05-1.535a12.158 12.158 0 01-.326-.675c-1.147.548-2.133 1.208-2.419 1.939a.929.929 0 00.096.897c.178.26.614.897 3.883 1.248.246.026.508.051.787.074-1.376 2.848-.778 6.006-.274 8.615.545 2.825 2.294 7.442 3.713 10.924a182.928 182.928 0 001.613 3.834c4.218.372 9.633.595 15.54.595 6.983 0 13.28-.312 17.722-.813-.284-1.073-.722-2.95-.847-3.645a3.973 3.973 0 01-.028-.167zM32.478 13.541c.002-.054.001-.135.011-.236a4.77 4.77 0 01.144-.828c.092-.338.23-.73.477-1.122a2.41 2.41 0 01.482-.564 1.725 1.725 0 01.443-.275c.101-.042.208-.075.32-.094.074-.011.15-.016.225-.019.074.005.15.004.222.017.07.015.145.023.211.048l.034.011.065.023.033.011.017.006.006.002.003.001.035.016.005.002.004.002.009.005.01.005a.803.803 0 01.237.186l.048.06.036.064c.021.035.035.07.047.104.003.007.007.015.009.023l.007.026c.048.156.053.294.045.419-.01.13-.033.248-.061.358-.029.11-.064.212-.1.309a4.25 4.25 0 01-.243.518c-.17.307-.34.54-.467.699a2.99 2.99 0 01-.209.24l.076-.307c.048-.193.12-.467.197-.788a7.82 7.82 0 00.105-.512c.03-.178.05-.365.04-.528a1.024 1.024 0 00-.008-.066.397.397 0 00-.034-.12c-.004-.009-.008-.016-.012-.018l-.002-.001-.005-.005-.03-.013-.02-.006-.073-.02c-.037-.011-.072-.013-.107-.02h-.006c-.042-.008-.079-.004-.117-.008a2.939 2.939 0 00-.11.011.928.928 0 00-.326.127 1.448 1.448 0 00-.213.155 2.434 2.434 0 00-.293.302 4.71 4.71 0 00-.176.225 8.461 8.461 0 00-.438.676 19.65 19.65 0 00-.32.562l-.08.144-.153.276v-.083zm-10.233 8.527a.43.43 0 01.385-.043.436.436 0 01.131.074l.425.352.53-.149c.114-.032.235-.077.36-.133l.022-.01.022-.01c.163-.083.372-.235.613-.436 1.298-1.089 3.509-3.636 4.382-4.686a.439.439 0 11.675.561 69.103 69.103 0 01-1.727 2.004 38.775 38.775 0 01-2.188 2.267 17.081 17.081 0 01-.578.513 6.202 6.202 0 01-.587.445 2.103 2.103 0 01-.421.216 3.184 3.184 0 01-.433.14 2.307 2.307 0 01-.54.068 1.8 1.8 0 01-.311-.027 1.548 1.548 0 01-.425-.14 1.44 1.44 0 01-.119-.067 1.162 1.162 0 01-.35-.333.445.445 0 01-.07-.248.44.44 0 01.204-.358zm6.478 15.822c-.478.214-1.18.305-2.352.305h-.058c.023.23.047.507.071.827.005.057.007.114.008.176.008.663-.242 1.058-.454 1.272-.287.29-.695.45-1.15.45-.21 0-.427-.035-.593-.097a1.12 1.12 0 01-.362-.227 1.3 1.3 0 01-.787.644 1.798 1.798 0 01-.513.077c-.85 0-1.495-.63-1.79-1.737-.083.05-.165.098-.244.142a2.234 2.234 0 01-1.079.256c-.742 0-1.441-.291-1.869-.78a1.8 1.8 0 01-.43-1.464c.221-1.66 2.591-2.506 2.861-2.597l.434-.147a.814.814 0 01-.042-.212v-.026a.825.825 0 01.008-.147l.003-.025a.916.916 0 01.019-.083v-.002a.746.746 0 01.026-.08l.01-.025a1.1 1.1 0 01.07-.145l.012-.022a.992.992 0 01.052-.08v-.002l.058-.078.018-.021a1.706 1.706 0 01.127-.14l.017-.016c.052-.05.108-.1.169-.148l.022-.017a2.562 2.562 0 01.18-.127l.018-.012.109-.067c.042-.024.085-.047.13-.07l.026-.014a3.63 3.63 0 01.463-.198 4.142 4.142 0 01.351-.106h.002a4.443 4.443 0 01.753-.124l.063-.004a4.273 4.273 0 01.502-.002l.077.005c.036.002.071.006.107.01.049.005.097.012.144.019l.08.012.099.02.059.013a2.86 2.86 0 01.251.07l.03.01c.21.073.394.169.541.284.002 0 .003.002.004.003a1.137 1.137 0 01.18.173l.03.036c.01.012.019.025.027.037.013.018.023.037.035.055l.02.033.53.004c1.206.01 2.201.173 2.958.482.76.311 1.227.763 1.312 1.273.17 1.022-.332 1.903-1.343 2.354zm-20.3-18.508a20.602 20.602 0 01-.44-.601c-.177-.249-.378-.538-.595-.834a8.924 8.924 0 00-.342-.435 4.798 4.798 0 00-.137-.151 2.221 2.221 0 00-.136-.134 1.23 1.23 0 00-.172-.128.498.498 0 00-.066-.032c-.008 0-.014 0-.02-.004l-.005-.002h.003c.007 0 .011 0 .015-.003l.006-.004c.002 0 .002-.002.002-.002h-.004l-.037.007-.023.005a.156.156 0 00-.069.04.353.353 0 00-.061.131c-.034.123-.035.29-.026.446.01.16.033.316.056.463.048.293.1.544.136.722a20.253 20.253 0 01.056.283s-.02-.018-.053-.055c-.032-.038-.082-.092-.137-.166a3.822 3.822 0 01-.479-.798 2.997 2.997 0 01-.128-.345 1.755 1.755 0 01-.077-.65.99.99 0 01.13-.413.817.817 0 01.381-.328l.028-.013.015-.006.048-.014.036-.01.036-.01a1.104 1.104 0 01.168-.014h.045l.032.005c.043.007.087.015.13.025a1.226 1.226 0 01.388.198c.044.033.083.068.122.102a2.776 2.776 0 01.364.406 4.2 4.2 0 01.334.532 6.084 6.084 0 01.489 1.207 5.412 5.412 0 01.151.685l.002.012.005.035.009.076s-.07-.082-.18-.228zm.34 2.214a.437.437 0 01.353-.51.652.652 0 01.144-.014c.04 0 .09.002.155.007a5.635 5.635 0 01.567.093 9.017 9.017 0 01.605.153 14.587 14.587 0 01.666.203 17.254 17.254 0 01.354.118 30.337 30.337 0 01.989.358c.28.107.581.224.907.356l.263.104a37.993 37.993 0 00.827.314l.264.093a16.249 16.249 0 001.725.509 7.692 7.692 0 00.585.109 4 4 0 00.555.044l.274-.003.212-.105a.445.445 0 01.475.056.427.427 0 01.133.19l.007.02a.462.462 0 01.019.15.44.44 0 01-.132.295.606.606 0 01-.081.071.769.769 0 01-.137.08 1.28 1.28 0 01-.296.089 2.105 2.105 0 01-.21.028c-.076.007-.161.01-.255.01-.246 0-.527-.026-.841-.078-.315-.052-.663-.13-1.043-.233a19.197 19.197 0 01-1.24-.388 31.015 31.015 0 01-1.433-.54 39.037 39.037 0 00-1.759-.666c-1.23-.426-1.814-.526-2.043-.549h-.007l-.072-.008-.079.004h-.022a.437.437 0 01-.43-.36zm-.41 9.173c0-3.244 2.64-5.884 5.884-5.884s5.884 2.64 5.884 5.884c0 3.245-2.64 5.884-5.884 5.884s-5.884-2.64-5.884-5.884zm20.968 2.377a5.89 5.89 0 01-5.884-5.885 5.89 5.89 0 015.884-5.884 5.89 5.89 0 015.884 5.884 5.89 5.89 0 01-5.884 5.885zM8.208 48.177c1.079 0 1.855-.555 2.413-1.297a3.92 3.92 0 00.095-.13c-.38-.88-.903-2.117-1.475-3.525-.4-.985-.824-2.054-1.238-3.147-.273.232-.588.582-.929 1.11-.373.579-.717 1.495-.91 2.478-.175.884-.226 1.821-.067 2.615.065.328.166.631.31.896.367.673.956 1 1.8 1zM2.8 44.98c0 .407.89.793 2.47 1.136-.113-.818-.044-1.644.062-2.287-1.619.347-2.532.737-2.532 1.15zm46.615-1.057a3.561 3.561 0 01-.905 1.388c-.714.676-1.34 1.08-1.898 1.229 3.087-.434 4.92-.975 4.92-1.56 0-.377-.758-.735-2.117-1.057z" class="st0"/><path d="M48.58 43.743c.428-1.001.276-2.206-.087-3.145-.67-1.73-2.092-2.96-3.46-2.988l-.048-.004s-.266-.04-.619-.04c-.745 0-1.659.16-1.785.916-.088.526.142.795.628 1.306.556.584 1.316 1.384 1.544 3.055.016.12.034.237.052.35.268 1.682.717 2.534 1.337 2.534.308 0 .87-.184 1.8-1.065.287-.272.495-.584.638-.92zM9.118 15.597c-.047-1.27-.073-2.528-.016-2.9.17-.765 4.888-6.164 7.994-6.797a4.63 4.63 0 01.909-.078c3.504 0 10.223 2.503 11.038 2.937.042.102.103.301.176.574-.38.4-.691 1.004-.848 1.716-.16.727-.134 1.4.042 1.917-3.537 1.542-12.352 4.875-18.972 3.088.14.212.278.437.415.677.497.873.86 1.736 1.058 2.245 2.74.428 8.779.522 18.263-3.746.18-.567.458-1.367.827-2.228-.173.162-.347.237-.49.206-.385-.084-.643-.957-.414-1.999.217-.985.77-1.648 1.15-1.648.022 0 .043.003.064.007.37.082.621.896.434 1.887 1.245-2.286 2.643-3.444 4.164-3.444.513 0 .963.121 1.34.355.642-.78 1.05-1.319 1.05-1.319-.483.088-1.49.22-1.49.22 3.814-1.404 3.507-5.219 3.507-5.219 0 .658-1.973 2.237-1.973 2.237.087-.57-.22-1.316-.22-1.316.088.746-2.28 2.675-2.28 2.675.176-.35.044-.965.044-.965-.131.702-1.184.965-1.184.965.658-.79 1.886-4.955.965-5.218-.92-.263-2.193 2.718-2.193 2.718-.043-.701-.438-.701-.438-.701.175 2.192-1.579 3.946-1.579 3.946-.131-.438-.833-.657-.833-.657.163.353.074 1.616-.018 2.526a.346.346 0 00-.025-.028c-.372-.372-7.876-3.154-11.58-3.154-.4 0-.756.031-1.058.093-1.95.398-4.274 2.41-5.487 3.574-1.444 1.387-2.997 3.202-3.094 3.838-.052.337-.049 1.19-.023 2.137.262.245.52.54.775.88zm4.892 36.5c-.836.191-3.3 1.53-5.428 1.937-2.128.406-3.97.622-4.615.86-.646.24-1.148.718.12 1.196 1.267.479 7.413.646 7.963 0 .55-.645-.38-.925-1.722-.908-.957.012-.84-.322-.837-.359 0 0 .06-.419 1.53-.622 1.469-.203 7.964-.813 7.844-1.506-.12-.694-4.017-.79-4.854-.598z" class="st0"/><ellipse cx="9.796" cy="57.214" class="st0" rx="1.273" ry=".371" transform="rotate(-12.279 9.796 57.214)"/><ellipse cx="6.848" cy="57.047" class="st0" rx="1.339" ry=".359" transform="rotate(-4.542 6.848 57.047)"/><ellipse cx="4.493" cy="56.754" class="st0" rx=".897" ry=".281" transform="rotate(-7.766 4.493 56.754)"/><ellipse cx="2.753" cy="56.485" class="st0" rx=".867" ry=".227" transform="rotate(-8.264 2.753 56.485)"/><ellipse cx="2.358" cy="55.995" class="st0" rx=".867" ry=".227" transform="rotate(-8.264 2.358 55.995)"/><ellipse cx="2.255" cy="55.44" class="st0" rx=".754" ry=".198" transform="rotate(-8.268 2.255 55.44)"/><path d="M26.781 52.766c-1.459.072-4.759-.095-5.213.67-.455.765 1.339 1.052 4.16.813 2.823-.24 6.816-.55 6.984-1.411.167-.86-.741-.693-.837-1.244-.096-.55 1.004-.55 1.22-1.363.215-.813-1.483-.717-2.99-.717s-4.018.143-4.257.933c-.239.789 1.148.789 2.129.98.98.191.693.55.693.55-.047.502-.43.718-1.889.79z" class="st0"/><ellipse cx="22.88" cy="54.865" class="st0" rx="1.265" ry=".413"/><ellipse cx="26.135" cy="54.775" class="st0" rx=".843" ry=".377"/><ellipse cx="28.763" cy="54.506" class="st0" rx=".924" ry=".305"/><ellipse cx="30.79" cy="54.165" class="st0" rx=".673" ry=".323"/><ellipse cx="32.539" cy="53.798" class="st0" rx=".682" ry=".314"/><path d="M14.237 25.902a4.85 4.85 0 00-3.441 1.426 4.851 4.851 0 00-1.426 3.441 4.867 4.867 0 00.967 2.913 4.868 4.868 0 103.9-7.78zm-.438 8.112a1.53 1.53 0 01-1.476-1.116 1.535 1.535 0 111.476 1.116zM30.995 22.69a4.834 4.834 0 00-1.674-.296c-1.092 0-2.1.36-2.912.967a4.896 4.896 0 00-1.736 2.453 4.866 4.866 0 00.077 3.121 4.843 4.843 0 001.476 2.082 4.867 4.867 0 104.77-8.328zm-1.734 7.608a1.529 1.529 0 01-1.544-.208 1.554 1.554 0 01-.238-.23 1.564 1.564 0 01-.319-1.285 1.537 1.537 0 012.48-.875 1.535 1.535 0 01-.379 2.598zm-5.953 9.446a5.108 5.108 0 01-.11-.333 8.929 8.929 0 01-.231-1.018c-.13.045-.257.094-.38.147a11.59 11.59 0 00-1.175.667l-.02.013c.094.437.385 1.382 1.14 1.382.096 0 .199-.015.31-.048.35-.104.465-.431.466-.81zm1.039-1.584c-.226 0-.39.006-.49.019a4.22 4.22 0 00-.195.03c.043.264.115.642.221.998.133.446.318.854.563.946.071.026.197.052.342.052.383 0 .9-.18.889-.998 0-.042-.002-.086-.006-.131-.03-.397-.056-.684-.079-.892l-.39-.01c-.313-.007-.608-.015-.855-.015z" class="st0"/><path d="M25.79 34.497s-.14 1.64-2.448 1.98a7.828 7.828 0 01-1.136.093c-1.228 0-1.711-.405-1.995-.756 0 0-2.212.748-2.381 2.015-.127.947.786 1.434 1.59 1.434.271 0 .53-.055.733-.167.802-.444 2.006-1.415 3.61-1.626.146-.02.346-.026.584-.026.55 0 1.299.035 2.024.035.826 0 1.621-.045 2.06-.242.993-.443.993-1.203.93-1.583-.07-.422-1.08-1.136-3.571-1.157z" class="st0"/></svg>