<?xml version="1.0" encoding="utf-8"?>
<!-- Generator: Adobe Illustrator 21.1.0, SVG Export Plug-In . SVG Version: 6.00 Build 0)  -->
<svg version="1.1" id="Layer_1" xmlns="http://www.w3.org/2000/svg" xmlns:xlink="http://www.w3.org/1999/xlink" x="0px" y="0px"
	 viewBox="0 0 408 402" style="enable-background:new 0 0 408 402;" xml:space="preserve">
<style type="text/css">
	.st0{fill:#FFFFFF;}
</style>
<g>
	<path class="st0" d="M394.8,244c-1-0.2-2.4-0.6-3.3-0.8c-4-0.7-7.2-0.6-10.9-0.9c-8-0.8-14.5-1.5-20.4-3.4
		c-2.4-0.9-4.1-3.8-4.9-4.9l-4.6-1.3c2.4-17.2,1.7-35.2-2.4-53.1c-4.2-18.1-11.5-34.7-21.3-49.3c1.2-1.1,3.4-3,4-3.6
		c0.2-2,0-4.2,2.1-6.4c4.5-4.2,10.1-7.7,16.9-11.9c3.2-1.9,6.2-3.1,9.5-5.5c0.7-0.5,1.7-1.4,2.5-2c5.5-4.4,6.7-11.9,2.8-16.8
		c-3.9-4.9-11.5-5.4-17-1c-0.8,0.6-1.8,1.4-2.5,2c-3.1,2.6-4.9,5.2-7.5,8c-5.6,5.7-10.3,10.5-15.3,13.9c-2.2,1.3-5.4,0.8-6.9,0.8
		l-4.3,3.1C286.6,85,253,68.5,216.8,65.2c-0.1-1.5-0.2-4.3-0.3-5.1c-1.5-1.4-3.3-2.6-3.7-5.7c-0.5-6.1,0.3-12.7,1.3-20.6
		c0.5-3.7,1.4-6.8,1.6-10.8c0-0.9,0-2.2,0-3.2c0-7-5.1-12.6-11.4-12.6c-6.3,0-11.4,5.7-11.4,12.6c0,0.1,0,0.2,0,0.3
		c0,0.9-0.1,2.1,0,2.9c0.1,4,1,7.1,1.6,10.8c1,7.9,1.8,14.5,1.3,20.6c-0.5,2.3-2.2,4.4-3.7,5.9l-0.3,4.8c-6.8,0.6-13.7,1.6-20.6,3.2
		c-29.6,6.7-55,21.9-74.4,42.5c-1.3-0.9-3.5-2.4-4.1-2.9c-2,0.3-4.1,0.9-6.8-0.7c-5.1-3.4-9.7-8.2-15.3-13.9c-2.6-2.7-4.4-5.3-7.5-8
		c-0.7-0.6-1.8-1.4-2.5-2c-2.4-1.9-5.2-2.9-7.9-3c-3.5-0.1-6.9,1.2-9.1,4c-3.9,4.9-2.7,12.4,2.8,16.8c0.1,0,0.1,0.1,0.2,0.1
		c0.8,0.6,1.7,1.4,2.4,1.9c3.2,2.4,6.2,3.6,9.4,5.5c6.8,4.2,12.5,7.7,16.9,11.9c1.7,1.9,2.1,5.1,2.3,6.6l3.6,3.3
		C61.7,159.8,52.6,196.1,58,233.1l-4.8,1.4c-1.3,1.6-3,4.2-4.9,4.9c-5.9,1.8-12.5,2.5-20.4,3.4c-3.7,0.3-7,0.1-10.9,0.9
		c-0.9,0.2-2.1,0.5-3,0.7h-0.1c-0.1,0-0.1,0-0.2,0c-6.7,1.6-11,7.8-9.6,13.9s7.9,9.8,14.7,8.3c0,0,0.1,0,0.2,0s0.1-0.1,0.2-0.1
		c0.9-0.2,2.1-0.4,2.9-0.7c3.9-1,6.7-2.6,10.2-3.9c7.5-2.7,13.8-5,19.8-5.8c2.5-0.2,5.2,1.6,6.5,2.3l5-0.9
		c11.4,35.4,35.3,64,65.6,82l-2.1,5c0.7,1.9,1.6,4.5,1,6.4c-2.2,5.7-6,11.8-10.3,18.5c-2.1,3.1-4.2,5.5-6.1,9.1
		c-0.5,0.9-1,2.2-1.5,3.1c-2.9,6.3-0.8,13.5,4.8,16.2c5.7,2.7,12.7-0.1,15.7-6.4l0,0l0,0c0.4-0.9,1-2.1,1.4-2.9
		c1.6-3.7,2.1-6.9,3.3-10.4c3-7.6,4.7-15.5,8.8-20.5c1.1-1.4,3-1.9,4.9-2.4l2.6-4.7c26.4,10.1,56,12.9,85.5,6.2
		c6.7-1.5,13.2-3.5,19.5-5.9c0.7,1.3,2.1,3.8,2.4,4.4c1.9,0.6,4.1,1,5.8,3.5c3.1,5.3,5.2,11.6,7.8,19.1c1.1,3.6,1.7,6.7,3.3,10.4
		c0.4,0.8,1,2,1.4,2.9c3,6.3,10.1,9.2,15.7,6.4c5.6-2.7,7.8-9.9,4.8-16.2c-0.4-0.9-1-2.2-1.5-3.1c-1.9-3.6-4-6-6.1-9.1
		c-4.3-6.7-7.9-12.3-10.1-18.1c-0.9-3,0.2-4.8,0.9-6.7c-0.4-0.5-1.4-3.3-1.9-4.6c31.5-18.6,54.7-48.3,65.6-82.6
		c1.5,0.2,4,0.7,4.9,0.9c1.7-1.1,3.3-2.6,6.4-2.4c6.1,0.9,12.3,3.1,19.8,5.8c3.5,1.3,6.3,2.9,10.2,3.9c0.8,0.2,2,0.4,2.9,0.6
		c0.1,0,0.1,0.1,0.2,0.1c0,0,0.1,0,0.2,0c6.7,1.5,13.3-2.2,14.7-8.3C405.8,251.8,401.5,245.6,394.8,244z M276.9,119.6h-57.2
		l-1.4-24.4C240,97.8,260.2,106.4,276.9,119.6z M177.7,97.2c4.1-0.9,8.1-1.6,12.1-2.1l-1.4,24.4h-57.7
		C144.1,109.1,160,101.3,177.7,97.2z M140.6,311.5c-6.7-4.3-12.9-9.2-18.6-14.8h24.7L140.6,311.5z M230.6,327.3
		c-22.2,5-44.2,3.5-64.2-3.3l15-27.2H227l15.1,27.3C238.4,325.3,234.5,326.4,230.6,327.3z M267.9,311.8l-6.2-15h25.1
		C281,302.4,274.7,307.4,267.9,311.8z M311,278.8H97.2v-46.7H311V278.8z M106.8,206.9c0.6-0.7,1.2-1.4,1.8-2.1
		c0.6-0.7,1.1-1.4,1.6-2s1-1.2,1.3-1.6h7c-1.4,1.7-2.8,3.3-4.1,4.8c-1.3,1.5-2.8,3.1-4.4,4.7c0.8,0.7,1.6,1.6,2.5,2.6
		c0.8,1,1.7,2.1,2.5,3.2s1.5,2.2,2.2,3.3s1.2,2.1,1.7,3h-6.8c-0.4-0.7-0.9-1.5-1.4-2.4s-1.1-1.7-1.7-2.6c-0.6-0.9-1.2-1.7-1.9-2.5
		c-0.7-0.8-1.3-1.5-2-2v9.5H99V192l5.9-1v18C105.5,208.3,106.1,207.6,106.8,206.9z M128.1,216.7c0.5,0.9,1.4,1.3,2.8,1.3
		c0.4,0,0.9,0,1.3-0.1c0.5,0,0.9-0.1,1.3-0.1v-16.6h5.9V222c-1,0.3-2.3,0.6-3.9,0.8s-3.3,0.4-5,0.4c-1.8,0-3.2-0.2-4.4-0.7
		s-2.1-1.2-2.8-2.1c-0.7-0.9-1.2-1.9-1.5-3.2c-0.3-1.2-0.4-2.6-0.4-4.1v-12h5.9v11.3C127.4,214.4,127.6,215.9,128.1,216.7z M153,201
		c0.7-0.2,1.5-0.2,2.3-0.2c1.5,0,2.8,0.3,3.9,0.8c1.1,0.5,2.1,1.3,2.9,2.3c0.8,1,1.3,2.2,1.7,3.5s0.6,2.9,0.6,4.6
		c0,1.7-0.2,3.3-0.7,4.7s-1.2,2.6-2.1,3.6c-0.9,1-2.1,1.7-3.4,2.3c-1.4,0.5-2.9,0.8-4.6,0.8c-0.7,0-1.5,0-2.2-0.1
		c-0.8-0.1-1.5-0.2-2.3-0.3s-1.5-0.2-2.2-0.4c-0.7-0.1-1.3-0.3-1.8-0.5V192l5.9-1v10.7C151.6,201.4,152.3,201.2,153,201z M175.8,217
		c1,0.7,2.4,1.1,4,1.1c1.1,0,2.1-0.1,3.2-0.3c1-0.2,1.9-0.5,2.6-0.8l0.8,5c-0.3,0.2-0.7,0.3-1.3,0.5c-0.5,0.2-1.1,0.3-1.8,0.4
		s-1.3,0.2-2.1,0.3c-0.7,0.1-1.5,0.1-2.2,0.1c-1.9,0-3.5-0.3-4.9-0.9s-2.5-1.4-3.5-2.4c-0.9-1-1.6-2.2-2-3.5
		c-0.4-1.4-0.7-2.8-0.7-4.4c0-1.9,0.3-3.6,0.9-5c0.6-1.4,1.3-2.6,2.2-3.6s2-1.7,3.2-2.2s2.4-0.7,3.7-0.7c3,0,5.3,0.9,7,2.8
		s2.6,4.6,2.6,8.3c0,0.4,0,0.7,0,1.2c0,0.4-0.1,0.8-0.1,1.1H174C174.2,215.3,174.8,216.3,175.8,217z M192.2,222.8v-20.4
		c1.1-0.4,2.3-0.7,3.8-1.1c1.4-0.3,3-0.5,4.8-0.5c0.3,0,0.7,0,1.2,0.1c0.4,0,0.9,0.1,1.3,0.2c0.4,0.1,0.9,0.2,1.3,0.2
		c0.4,0.1,0.8,0.2,1.2,0.3l-1,5c-0.5-0.1-1.2-0.3-1.9-0.4c-0.7-0.1-1.5-0.2-2.3-0.2c-0.4,0-0.8,0-1.3,0.1s-0.9,0.1-1.2,0.2v16.5
		L192.2,222.8L192.2,222.8z M220.3,207.2c-0.5-0.8-1.4-1.2-2.8-1.2c-0.4,0-0.9,0-1.3,0.1c-0.5,0-0.9,0.1-1.3,0.1v16.6H209V202
		c1-0.3,2.3-0.6,3.9-0.8s3.3-0.4,5-0.4c1.8,0,3.2,0.2,4.4,0.7s2.1,1.2,2.8,2c0.7,0.9,1.2,1.9,1.5,3.1c0.3,1.2,0.4,2.5,0.4,4v12.2h-6
		v-11.4C221,209.4,220.8,208,220.3,207.2z M239.1,217c1,0.7,2.4,1.1,4,1.1c1.1,0,2.1-0.1,3.2-0.3c1-0.2,1.9-0.5,2.6-0.8l0.8,5
		c-0.3,0.2-0.7,0.3-1.3,0.5c-0.5,0.2-1.1,0.3-1.8,0.4s-1.3,0.2-2.1,0.3c-0.7,0.1-1.5,0.1-2.2,0.1c-1.9,0-3.5-0.3-4.9-0.9
		s-2.5-1.4-3.5-2.4c-0.9-1-1.6-2.2-2-3.5c-0.4-1.4-0.7-2.8-0.7-4.4c0-1.9,0.3-3.6,0.9-5c0.6-1.4,1.3-2.6,2.2-3.6s2-1.7,3.2-2.2
		s2.4-0.7,3.7-0.7c3,0,5.3,0.9,7,2.8s2.6,4.6,2.6,8.3c0,0.4,0,0.7,0,1.2c0,0.4-0.1,0.8-0.1,1.1h-13.4
		C237.5,215.3,238.1,216.3,239.1,217z M268.3,201.2v5.1h-7.1v7.6c0,1.3,0.2,2.3,0.7,3.1c0.4,0.8,1.3,1.1,2.6,1.1
		c0.6,0,1.3-0.1,2-0.2s1.3-0.3,1.8-0.5l0.8,4.8c-0.7,0.3-1.5,0.6-2.4,0.8s-1.9,0.3-3.2,0.3c-1.6,0-3-0.2-4-0.7
		c-1.1-0.5-1.9-1.1-2.5-1.9c-0.6-0.8-1.1-1.8-1.3-2.9c-0.3-1.1-0.4-2.4-0.4-3.8v-18.1l5.9-1v6.4h7.1V201.2z M279.1,217
		c1,0.7,2.4,1.1,4,1.1c1.1,0,2.1-0.1,3.2-0.3c1-0.2,1.9-0.5,2.6-0.8l0.8,5c-0.3,0.2-0.7,0.3-1.3,0.5c-0.5,0.2-1.1,0.3-1.8,0.4
		s-1.3,0.2-2.1,0.3c-0.7,0.1-1.5,0.1-2.2,0.1c-1.9,0-3.5-0.3-4.9-0.9s-2.5-1.4-3.5-2.4c-0.9-1-1.6-2.2-2-3.5
		c-0.4-1.4-0.7-2.8-0.7-4.4c0-1.9,0.3-3.6,0.9-5s1.3-2.6,2.2-3.6c0.9-1,2-1.7,3.2-2.2s2.4-0.7,3.7-0.7c3,0,5.3,0.9,7,2.8
		s2.6,4.6,2.6,8.3c0,0.4,0,0.7,0,1.2c0,0.4-0.1,0.8-0.1,1.1h-13.4C277.5,215.3,278.1,216.3,279.1,217z M303.6,215.5
		c-0.6-0.4-1.5-0.8-2.7-1.2c-0.9-0.4-1.8-0.7-2.5-1.1c-0.8-0.4-1.4-0.8-1.9-1.4s-0.9-1.2-1.2-1.9c-0.3-0.7-0.4-1.6-0.4-2.7
		c0-2,0.7-3.6,2.2-4.8s3.5-1.8,6-1.8c1.3,0,2.5,0.1,3.7,0.3s2.1,0.5,2.8,0.8l-1,4.8c-0.7-0.2-1.4-0.5-2.2-0.7
		c-0.8-0.2-1.7-0.3-2.7-0.3c-1.9,0-2.8,0.5-2.8,1.6c0,0.2,0,0.5,0.1,0.7s0.2,0.4,0.5,0.6s0.6,0.4,1,0.6c0.4,0.2,0.9,0.4,1.6,0.7
		c1.3,0.5,2.4,1,3.2,1.5c0.8,0.5,1.5,1,2,1.6s0.8,1.2,1,1.9s0.3,1.5,0.3,2.4c0,2.1-0.8,3.7-2.3,4.8s-3.7,1.6-6.6,1.6
		c-1.9,0-3.4-0.2-4.6-0.5s-2.1-0.6-2.6-0.8l1-5c1,0.4,2,0.7,3.1,1c1.1,0.2,2.1,0.3,3.1,0.3c1.1,0,1.9-0.1,2.3-0.3s0.7-0.6,0.7-1.3
		C304.5,216.3,304.2,215.9,303.6,215.5z M311,184.6H97.2V138H311V184.6z"/>
	<path class="st0" d="M285,208.3c-0.1-0.5-0.4-0.9-0.7-1.3s-0.7-0.7-1.2-0.9s-1-0.4-1.7-0.4s-1.2,0.1-1.7,0.3s-0.9,0.5-1.2,0.9
		c-0.3,0.4-0.6,0.8-0.7,1.3c-0.2,0.5-0.3,1-0.4,1.5h7.8C285.2,209.3,285.1,208.8,285,208.3z"/>
	<path class="st0" d="M244.3,207c-0.3-0.4-0.7-0.7-1.2-0.9s-1-0.4-1.7-0.4s-1.2,0.1-1.7,0.3s-0.9,0.5-1.2,0.9s-0.6,0.8-0.7,1.3
		c-0.2,0.5-0.3,1-0.4,1.5h7.8c0-0.5-0.1-1-0.3-1.5S244.6,207.4,244.3,207z"/>
	<path class="st0" d="M150.9,217.9c0.3,0.1,0.7,0.1,1.1,0.1c0.4,0,0.9,0.1,1.5,0.1c1.6,0,2.8-0.6,3.7-1.7c0.8-1.1,1.2-2.7,1.2-4.6
		c0-3.9-1.4-5.9-4.2-5.9c-0.6,0-1.2,0.1-1.8,0.2c-0.6,0.2-1.1,0.4-1.4,0.6v11.2H150.9z"/>
	<path class="st0" d="M181,207c-0.3-0.4-0.7-0.7-1.2-0.9s-1-0.4-1.7-0.4s-1.2,0.1-1.7,0.3s-0.9,0.5-1.2,0.9s-0.6,0.8-0.7,1.3
		c-0.2,0.5-0.3,1-0.4,1.5h7.8c0-0.5-0.1-1-0.3-1.5S181.3,207.4,181,207z"/>
	<path class="st0" d="M129.9,169.9l-3.3-3.4c-1.9,1.7-3.5,2.8-6.2,2.8c-4.1,0-6.9-3.4-6.9-7.4v-0.1c0-4.1,2.9-7.4,6.9-7.4
		c2.4,0,4.2,1,6.1,2.7l3.3-3.8c-2.2-2.2-4.9-3.7-9.3-3.7c-7.3,0-12.4,5.5-12.4,12.3v0.1c0,6.8,5.2,12.2,12.2,12.2
		C124.7,174.2,127.4,172.5,129.9,169.9z"/>
	<polygon class="st0" points="140.1,164.1 151.2,164.1 151.2,159.5 140.1,159.5 140.1,154.7 152.8,154.7 152.8,150.1 134.9,150.1 
		134.9,173.8 152.9,173.8 152.9,169.1 140.1,169.1 	"/>
	<path class="st0" d="M178.2,158L178.2,158c0-2.3-0.7-4.2-2-5.5c-1.6-1.6-3.9-2.4-6.9-2.4h-10.8v23.7h5.2v-7.6h4h0.1l5.1,7.6h6.1
		l-5.8-8.5C176.1,164.2,178.2,161.8,178.2,158z M163.6,161.6v-6.8h5.2c2.5,0,4.1,1.2,4.1,3.4v0.1c0,2-1.5,3.4-4,3.4L163.6,161.6
		L163.6,161.6z"/>
	<polygon class="st0" points="182,150.1 182,154.9 189.3,154.9 189.3,173.8 194.5,173.8 194.5,154.9 201.7,154.9 201.7,150.1 	"/>
	<rect x="206.8" y="150.1" class="st0" width="5.2" height="23.7"/>
	<polygon class="st0" points="218.8,150.1 218.8,173.8 224,173.8 224,164.6 235.3,164.6 235.3,159.8 224,159.8 224,154.8 
		236.8,154.8 236.8,150.1 	"/>
	<rect x="242" y="150.1" class="st0" width="5.2" height="23.7"/>
	<polygon class="st0" points="254,173.8 272.1,173.8 272.1,169.1 259.2,169.1 259.2,164.1 270.4,164.1 270.4,159.5 259.2,159.5 
		259.2,154.7 271.9,154.7 271.9,150.1 254,150.1 	"/>
	<path class="st0" d="M286.8,173.8c7.4,0,12.6-5.2,12.6-11.9v-0.1c0-6.7-5.1-11.8-12.6-11.8h-9.2v23.7h9.2V173.8z M282.8,154.8h4
		c4.3,0,7.1,2.9,7.1,7.1v0.1c0,4.2-2.9,7.1-7.1,7.1h-4V154.8z"/>
	<path class="st0" d="M111.4,263.1l1.4-3.5h6.5l1.4,3.5h3.5l-6.6-15.5h-3.1l-6.6,15.5H111.4z M116.1,251.7l2,5H114L116.1,251.7z"/>
	<path class="st0" d="M132.7,247.7h-6v15.4h6c4.8,0,8.2-3.4,8.2-7.7l0,0C140.9,251,137.5,247.7,132.7,247.7z M137.3,255.5
		c0,2.7-1.9,4.6-4.6,4.6h-2.6v-9.3h2.6C135.5,250.8,137.3,252.7,137.3,255.5L137.3,255.5z"/>
	<polygon class="st0" points="155.9,263.1 159.3,263.1 159.3,247.7 155.6,247.7 151.6,254.2 147.5,247.7 143.9,247.7 143.9,263.1 
		147.2,263.1 147.2,253.1 151.5,259.6 151.6,259.6 155.9,253.1 	"/>
	<rect x="163.1" y="247.7" class="st0" width="3.4" height="15.4"/>
	<polygon class="st0" points="173.7,253.3 181.2,263.1 184.1,263.1 184.1,247.7 180.7,247.7 180.7,257.2 173.5,247.7 170.4,247.7 
		170.4,263.1 173.7,263.1 	"/>
	<rect x="187.9" y="247.7" class="st0" width="3.4" height="15.4"/>
	<path class="st0" d="M200.7,260.3c-1.8,0-3.2-0.7-4.6-1.9l-2,2.4c1.8,1.7,4.2,2.5,6.5,2.5c3.3,0,5.7-1.7,5.7-4.8l0,0
		c0-2.7-1.8-3.8-4.9-4.6c-2.7-0.7-3.3-1-3.3-2l0,0c0-0.7,0.7-1.3,2-1.3s2.6,0.6,4,1.5l1.8-2.6c-1.6-1.3-3.5-2-5.7-2
		c-3.1,0-5.4,1.8-5.4,4.6l0,0c0,3.1,2,3.9,5.1,4.7c2.6,0.7,3.1,1.1,3.1,2l0,0C202.9,259.8,202.1,260.3,200.7,260.3z"/>
	<polygon class="st0" points="212.5,263.1 215.9,263.1 215.9,250.8 220.5,250.8 220.5,247.7 207.8,247.7 207.8,250.8 212.5,250.8 	
		"/>
	<path class="st0" d="M226.5,258.2h2.6l0,0l3.3,4.9h4l-3.8-5.5c2-0.7,3.3-2.3,3.3-4.8l0,0c0-1.5-0.5-2.7-1.3-3.5
		c-1-1-2.5-1.6-4.5-1.6h-7v15.4h3.4V258.2z M226.5,250.8h3.4c1.7,0,2.7,0.7,2.7,2.2l0,0c0,1.3-0.9,2.2-2.6,2.2h-3.4L226.5,250.8
		L226.5,250.8z"/>
	<path class="st0" d="M242.6,259.7h6.5l1.4,3.5h3.5l-6.6-15.5h-3.1l-6.6,15.5h3.5L242.6,259.7z M245.8,251.7l2,5h-4.1L245.8,251.7z"
		/>
	<polygon class="st0" points="253.3,250.8 258,250.8 258,263.1 261.4,263.1 261.4,250.8 266.1,250.8 266.1,247.7 253.3,247.7 	"/>
	<path class="st0" d="M275.6,247.5c-4.8,0-8.2,3.6-8.2,8l0,0c0,4.4,3.4,7.9,8.2,7.9c4.8,0,8.2-3.6,8.2-8l0,0
		C283.7,251,280.3,247.5,275.6,247.5z M280.2,255.5c0,2.6-1.9,4.8-4.6,4.8s-4.7-2.2-4.7-4.8l0,0c0-2.6,1.9-4.8,4.6-4.8
		C278.3,250.6,280.2,252.8,280.2,255.5L280.2,255.5z"/>
	<path class="st0" d="M286.7,247.7v15.4h3.4v-4.9h2.6l0,0l3.3,4.9h4l-3.8-5.5c2-0.7,3.3-2.3,3.3-4.8l0,0c0-1.5-0.5-2.7-1.3-3.5
		c-1-1-2.5-1.6-4.5-1.6H286.7z M296.2,253c0,1.3-0.9,2.2-2.6,2.2h-3.4v-4.4h3.4C295.1,250.8,296.2,251.5,296.2,253L296.2,253z"/>
</g>
</svg>
