<svg xmlns="http://www.w3.org/2000/svg" role="img" viewBox="-9.93 -9.43 594.36 152.36"><style>svg {enable-background:new 0 0 576 133.9}</style><style>.st0{fill:#fff}</style><g id="Layer_2"><g id="Layer_1-2"><path d="M109.3 42.9H81.1v-9.4h18.7v-22H85.5V24H62.3V11.5H48.2V24H24.4V11.5H10.9v22h18.2v9.4H1.5V2.1h32.3v12.5h5V2.1h32.9v12.5h4.4V2.1h33.2zm-9.7 17.7v51.9c0 5.5-4.5 10-10 10H21.2c-5.5 0-10-4.5-10-10V60.6h88.4m9.4-9.5H1.7v61.5c.1 10.7 8.8 19.3 19.5 19.3h68.4c10.7 0 19.4-8.7 19.5-19.5V51l-.1.1z" class="st0"/><path d="M55.4 79.5c5.6 0 10.2 4.6 10.2 10.2v10.8H45.2V89.7c0-5.6 4.5-10.1 10.2-10.2m0-9.4c-10.8 0-19.6 8.8-19.6 19.6v20.1H75V89.7c0-10.8-8.8-19.6-19.6-19.6zm114.3 47.2h-11.4V16.6h48.1c20.6 0 33.9 12.3 33.9 31.5S227.3 74 216 76.6l26.4 40.6h-13.5l-24.3-38.5h-34.9v38.6zm0-49.4h34.8c10.8 0 24.4-4.1 24.4-19.7 0-12.8-9.6-20.6-23.9-20.6h-35.4v40.3zm186.4-.9c0 28.6-20.5 51.5-51 51.5S254 95.6 254 67s20.5-51.5 51.2-51.5 50.9 22.9 50.9 51.5zm-11.4 0c0-22.6-15.2-40.4-39.8-40.4S265.4 44.4 265.4 67s15.2 40.4 39.8 40.4 39.5-17.8 39.5-40.4zM471 67c0 28.6-20.5 51.5-51 51.5S369 95.6 369 67s20.5-51.5 51-51.5 51 22.9 51 51.5zm-11.4 0c0-22.6-15.2-40.4-39.8-40.4S380 44.4 380 67s15.2 40.4 39.8 40.4 39.8-17.8 39.8-40.4zm68.6-9.9l45.3 60.1h-14.3l-39.3-52.4-20.8 19.5v33h-11.4V16.6h11.4v52.6L555 16.6h16.1l-42.9 40.5z" class="st0"/></g></g></svg>