<svg xmlns="http://www.w3.org/2000/svg" role="img" viewBox="-5.27 -5.52 442.78 151.78"><style>svg {enable-background:new 0 0 432 140.75}</style><style>.st0{fill:none}.st1{fill:#221f1f}.st2{fill:#67cfe3}.st3{fill:#dfcaa3}</style><path d="M66.807 82.24c-1.857-.759-4.3-1.156-7.259-1.181l-1.3-.011a2.037 2.037 0 0 1 .246.99c-.024 1.703-2.19 3.405-5.138 4.011-.073.015-.146.03-.22.043a6.416 6.416 0 0 1-.2.036c-3.177.528-6.012-.406-6.59-2.103l-1.066.36c-.661.223-6.478 2.3-7.022 6.374-.18 1.355.185 2.597 1.057 3.593 1.05 1.199 2.764 1.914 4.586 1.914.987 0 1.902-.217 2.647-.63a32.72 32.72 0 0 0 1.488-.897c1.8-1.128 4.04-2.532 6.754-2.889.243-.032.648-.048 1.203-.048.604 0 1.33.019 2.1.039.886.022 1.892.048 2.867.048 2.874 0 4.6-.223 5.771-.746 2.482-1.11 3.714-3.27 3.296-5.779-.209-1.251-1.352-2.36-3.22-3.124zm-.792 7.3c-1.078.481-3.03.594-5.055.594-1.781 0-3.619-.087-4.967-.087-.584 0-1.076.016-1.432.063-3.938.518-6.892 2.902-8.862 3.99-.497.275-1.132.411-1.798.411-1.973 0-4.213-1.195-3.903-3.52.415-3.11 5.844-4.943 5.844-4.943.697.861 1.883 1.853 4.897 1.853.794 0 1.714-.069 2.786-.227 5.664-.835 6.008-4.86 6.008-4.86 6.116.052 8.59 1.805 8.762 2.839.156.933.156 2.799-2.28 3.887zm2.849-34.572c-6.355 0-11.506 5.152-11.506 11.506s5.151 11.505 11.506 11.505c6.354 0 11.505-5.151 11.505-11.505s-5.151-11.506-11.505-11.506zm-1.555 18.969a3.628 3.628 0 1 1 0-7.256 3.628 3.628 0 0 1 0 7.256z" class="st0"/><path d="M59.163 93.104l-.677-.017a86.313 86.313 0 0 0-2.08-.038c-.652 0-.962.023-1.108.042a9.72 9.72 0 0 0-.87.157c.102.646.287 1.642.563 2.57.326 1.094.78 2.096 1.383 2.321.632.238 3.054.45 3.019-2.321a5.13 5.13 0 0 0-.014-.322 62.496 62.496 0 0 0-.216-2.392zm-6.321.63c-1.475.567-2.783 1.375-3.914 2.084l-.05.032c.26 1.208 1.133 3.996 3.557 3.274 1.254-.373 1.278-1.906 1.008-3.306a13.574 13.574 0 0 0-.601-2.084zm132.943-2.881h27.168l-13.64-41.3zM41.36 82.883a11.468 11.468 0 0 0 3.353-8.117c0-6.354-5.151-11.506-11.506-11.506-6.354 0-11.505 5.152-11.505 11.506S26.853 86.27 33.207 86.27c2.126 0 4.115-.578 5.823-1.583a11.55 11.55 0 0 0 2.33-1.805zm-9.19-.447a3.628 3.628 0 1 1 0-7.256 3.628 3.628 0 0 1 0 7.256zM82.16 28.55v.001zm341.685 37.9c0-11.228-5.056-16.91-9.297-18.818-1.507-.678-3.165-1.021-4.93-1.021h-16.817v35.005c1.144.012 2.316.038 3.536.064 8.766.191 18.705.406 23.817-4.597 2.483-2.43 3.69-5.909 3.69-10.634z" class="st0"/><path d="M32.718 124.795c-1.97.45-7.765 3.6-12.773 4.557-5.007.957-9.34 1.463-10.86 2.026-1.518.563-2.7 1.688.282 2.813 2.982 1.126 17.443 1.52 18.737 0 1.294-1.519-.892-2.177-4.051-2.138-2.25.028-1.975-.756-1.97-.844 0 0 .141-.984 3.602-1.463 3.454-.477 18.737-1.913 18.455-3.545-.281-1.631-9.453-1.856-11.422-1.406z" class="st1"/><ellipse cx="22.801" cy="136.836" class="st1" rx="2.996" ry=".872" transform="rotate(-12.279 22.8 136.836)"/><ellipse cx="15.866" cy="136.442" class="st1" rx="3.151" ry=".844" transform="rotate(-4.552 15.866 136.442)"/><ellipse cx="10.324" cy="135.753" class="st1" rx="2.11" ry=".661" transform="rotate(-7.759 10.324 135.753)"/><ellipse cx="6.23" cy="135.12" class="st1" rx="2.04" ry=".535" transform="rotate(-8.262 6.23 135.12)"/><ellipse cx="5.302" cy="133.966" class="st1" rx="2.04" ry=".535" transform="rotate(-8.262 5.302 133.966)"/><ellipse cx="5.059" cy="132.662" class="st1" rx="1.773" ry=".465" transform="rotate(-8.262 5.06 132.662)"/><path d="M62.765 126.37c-3.433.169-11.197-.225-12.267 1.576-1.069 1.8 3.151 2.475 9.791 1.913 6.64-.563 16.036-1.294 16.43-3.32.394-2.026-1.744-1.632-1.97-2.926-.224-1.294 2.364-1.294 2.87-3.207s-3.488-1.688-7.033-1.688c-3.545 0-9.453.337-10.016 2.194s2.701 1.857 5.008 2.307c2.307.45 1.632 1.294 1.632 1.294-.113 1.182-1.013 1.688-4.445 1.857z" class="st1"/><ellipse cx="53.586" cy="131.308" class="st1" rx="2.975" ry=".971"/><ellipse cx="61.246" cy="131.097" class="st1" rx="1.983" ry=".886"/><ellipse cx="67.428" cy="130.464" class="st1" rx="2.173" ry=".717"/><ellipse cx="72.197" cy="129.662" class="st1" rx="1.582" ry=".76"/><ellipse cx="76.311" cy="128.797" class="st1" rx="1.604" ry=".739"/><path d="M6.342 108.048c0 .96 2.092 1.867 5.81 2.674-.265-1.925-.102-3.866.146-5.38-3.808.816-5.956 1.734-5.956 2.706zm109.678-2.485a8.375 8.375 0 0 1-2.13 3.267c-1.68 1.59-3.151 2.542-4.466 2.89 7.264-1.021 11.576-2.293 11.576-3.672 0-.885-1.784-1.726-4.98-2.486z" class="st1"/><path d="M103.595 103.545c-.462-3.386-1.907-4.905-3.18-6.246-1.187-1.248-2.308-2.427-1.947-4.59.333-2.002 1.925-3.233 4.526-3.553-1.58-10.677-3.894-24.147-6.87-35.639-1.486-5.739-3.836-9.725-6.988-12.375-3.607 1.845-7.946 3.873-12.79 5.974a335.005 335.005 0 0 1-10.548 4.354c-2.766 2.968-5.788 5.893-7.64 6.726-1.319.594-2.49.83-3.51.83-2.205 0-3.693-1.106-4.414-2.09-.835.221-1.503.364-1.957.412-.543.057-1.343.125-2.343.197a3.082 3.082 0 0 1-.506 3.073c-.81.977-2.117 1.468-3.97 1.468-2.664 0-6.458-1.016-11.53-3.065a96.538 96.538 0 0 0-2.062-.808c-.388.002-.776.003-1.165.003h-.003c-4.847 0-8.634-.152-11.603-.395-3.252 6.731-1.839 14.198-.649 20.365 1.141 5.911 5.099 16.428 8.77 25.464 1.361 3.353 2.683 6.5 3.807 9.134 9.938.88 22.678 1.407 36.57 1.407 16.533 0 31.424-.749 41.91-1.946-.764-3.144-1.732-7.52-1.898-8.632l-.01-.068zm-81.893-28.78c0-6.353 5.151-11.505 11.505-11.505 6.355 0 11.506 5.152 11.506 11.506a11.47 11.47 0 0 1-3.352 8.117 11.55 11.55 0 0 1-2.33 1.805 11.448 11.448 0 0 1-5.824 1.583c-6.354 0-11.505-5.15-11.505-11.505zm30.733 24.359c-2.424.722-3.297-2.066-3.558-3.274l.051-.032c1.131-.709 2.439-1.517 3.914-2.084.174.467.44 1.252.6 2.084.271 1.4.247 2.933-1.007 3.306zm3.939-.985c-.602-.225-1.057-1.227-1.383-2.321a20.954 20.954 0 0 1-.563-2.57 9.72 9.72 0 0 1 .87-.157c.146-.02.456-.042 1.107-.042.595 0 1.317.019 2.08.038l.678.017c.06.523.133 1.282.216 2.392.009.112.013.218.014.322.035 2.77-2.387 2.559-3.02 2.321zm10.357-6.996c-1.172.523-2.897.746-5.77.746-.976 0-1.982-.026-2.869-.048a87.06 87.06 0 0 0-2.1-.039c-.554 0-.959.016-1.202.048-2.714.357-4.954 1.761-6.754 2.89-.526.329-1.023.64-1.488.897-.745.412-1.66.63-2.647.63-1.822 0-3.537-.716-4.586-1.915-.872-.996-1.237-2.238-1.057-3.593.544-4.074 6.36-6.15 7.022-6.374l1.065-.36a1.993 1.993 0 0 1-.08-.318c-.315-1.896 2.161-3.887 5.53-4.447.152-.025.302-.045.452-.064a10.259 10.259 0 0 1 2.007-.056c1.902.14 3.422.844 3.995 1.908l1.3.01c2.959.026 5.401.423 7.258 1.182 1.868.764 3.011 1.873 3.22 3.124.418 2.51-.814 4.67-3.296 5.779zm2.133-13.164c-6.355 0-11.506-5.151-11.506-11.505s5.151-11.506 11.506-11.506c6.354 0 11.505 5.152 11.505 11.506s-5.151 11.505-11.505 11.505z" class="st2"/><path d="M83.6 27.709l-.087-.15-.113-.144c-.107-.172-.529-.436-.561-.439l-.044-.023-.021-.012-.083-.035-.007-.003-.014-.005-.117-.041-.235-.08c-.155-.059-.332-.079-.499-.113-.17-.03-.35-.03-.524-.04a5.045 5.045 0 0 0-.532.043 3.836 3.836 0 0 0-1.805.874 5.728 5.728 0 0 0-1.138 1.333c-.583.928-.91 1.853-1.127 2.651-.213.8-.303 1.48-.34 1.96-.025.237-.023.428-.028.555-.002.129.002.198.002.198l.36-.654c.229-.412.55-.996.945-1.669.399-.668.875-1.434 1.452-2.128a5.7 5.7 0 0 1 .94-.913c.338-.245.683-.413 1.027-.468.087-.011.173-.02.26-.027.09.01.177 0 .268.016.091.022.181.021.275.051l.22.06.07.032-.009-.009a.035.035 0 0 0 .012.002c.002.005.005.008.008.012l.009.004.02.01-.01-.002a.069.069 0 0 1-.013-.004c.01.007.02.023.03.045.048.085.082.253.1.439.021.384-.025.827-.097 1.246-.07.422-.16.831-.248 1.21-.18.76-.351 1.407-.464 1.866-.118.456-.18.726-.18.726s.197-.195.494-.57c.299-.374.702-.926 1.102-1.65.2-.364.399-.77.575-1.226.172-.459.331-.964.38-1.577.02-.31.011-.656-.122-1.052a1.476 1.476 0 0 0-.132-.3z"/><path d="M82.16 28.55l-.001-.001-.004-.006-.01-.005c.004.004.006.009.012.012l.004.001z"/><path d="M12.24 49.696h.158a32.917 32.917 0 0 1-.158-.285v.285zm1.41-4.459c.34.682.7 1.193.97 1.539.129.174.249.302.324.39.079.088.124.132.124.132s-.046-.248-.132-.669c-.082-.42-.207-1.016-.32-1.708a11.871 11.871 0 0 1-.132-1.093c-.021-.369-.021-.764.06-1.055a.833.833 0 0 1 .145-.312.37.37 0 0 1 .163-.093l.054-.011.087-.018c.026-.003-.007.014-.009.016a.058.058 0 0 1-.03.008.035.035 0 0 1-.014-.003l.012.006c.015.008.03.008.047.01.085.032.215.1.351.204.284.206.577.525.858.848.278.332.55.68.808 1.029.514.699.99 1.382 1.408 1.97.417.587.778 1.08 1.042 1.422.26.343.422.538.422.538l-.02-.18c-.019-.115-.037-.288-.082-.5a13.343 13.343 0 0 0-.45-1.739 14.554 14.554 0 0 0-.997-2.345 10.32 10.32 0 0 0-.79-1.255 5.856 5.856 0 0 0-1.148-1.203 3.088 3.088 0 0 0-.92-.468 3.901 3.901 0 0 0-.305-.058l-.078-.01-.104-.002a2.68 2.68 0 0 0-.396.033l-.086.024-.087.023-.114.034-.033.014-.067.03a1.932 1.932 0 0 0-.899.776 2.27 2.27 0 0 0-.309.976c-.057.607.062 1.093.182 1.537.131.438.296.822.465 1.163z" class="st1"/><path d="M18.955 115.915c2.698 0 4.597-1.468 5.93-3.374-1.526-3.537-4.036-9.497-6.416-15.77-.644.548-1.388 1.375-2.194 2.624-2.005 3.107-3.656 10.338-1.576 14.155.867 1.592 2.26 2.365 4.256 2.365zm95.226-17.917c-1.58-4.09-4.943-6.995-8.177-7.062l-.115-.01a10.824 10.824 0 0 0-1.461-.094c-1.761 0-3.923.376-4.221 2.166-.208 1.242.336 1.878 1.485 3.087 1.313 1.38 3.11 3.272 3.65 7.222.616 4.523 1.72 6.817 3.281 6.817.73 0 2.059-.437 4.256-2.518 2.707-2.564 2.447-6.644 1.302-9.608z" class="st3"/><circle cx="32.171" cy="78.808" r="3.628" class="st1"/><circle cx="67.309" cy="70.309" r="3.628" class="st1"/><path fill="#648c1a" d="M22.33 38.28c2.83.764 6.031 1.152 9.513 1.152 5.595 0 17.473-1.087 34.169-8.367l.376-.164a9.965 9.965 0 0 1 .23-2.75c.37-1.684 1.104-3.111 2.004-4.056-.174-.646-.317-1.118-.416-1.358-1.927-1.027-17.81-6.943-26.093-6.943-.827 0-1.55.062-2.148.184-7.341 1.498-18.496 14.26-18.896 16.07-.12.782-.084 3.24.004 5.893l1.257.34zm-.143 18.123a6.27 6.27 0 0 0-.719-.117 3.088 3.088 0 0 1-3.216-2.528 3.09 3.09 0 0 1-.045-.47c-.833.472-1.666.983-2.446 1.523l-1.387.96-1.02-1.343a35.838 35.838 0 0 1-3.036-4.84c-2.457 1.16-4.377 2.427-4.846 3.628-.088.227-.052.35.04.485.4.587 2.78 2.382 16.675 2.702zm25.906-.808c.348-.037.865-.145 1.523-.315a3.086 3.086 0 0 1 5.204-2.445c.154-.024.416-.09.806-.266 1.52-.723 7.007-6.58 11.176-11.596.15-.18.317-.338.495-.474-9.525 4.116-22.835 8.614-35.508 8.614a45.19 45.19 0 0 1-5.766-.35l.278.818-1.585.607c-.011.005-.284.11-.74.3 2.04.476 4.798 1.413 8.262 2.812 6.34 2.56 8.764 2.658 9.37 2.622a3.085 3.085 0 0 1 2.796-.04c1.644-.105 2.923-.207 3.689-.287zm39.846-21.952c-.462 2.75-1.35 5.771-1.938 6.595l-.552.772c2.5-1.217 4.73-2.372 6.623-3.433 6.582-3.69 7.4-5.306 7.495-5.714.061-.267-.004-.35-.032-.384-.072-.09-.534-.539-2.613-.539-2.272 0-5.452.52-8.771 1.24a33.54 33.54 0 0 1-.212 1.463zm-2.567 7.405l-.949-.078a56.892 56.892 0 0 0-4.123-.14c-2.455 0-5.692.147-8.348.776a3.083 3.083 0 0 1-.405 3.31c-.65.784-1.75 2.09-3.068 3.588a330.326 330.326 0 0 0 7.166-3.006 248.411 248.411 0 0 0 9.727-4.45z"/><path d="M66.716 32.681c-6.67 2.909-21.288 8.514-34.873 8.514-3.439 0-6.812-.36-9.973-1.213.33.5.657 1.032.98 1.6 1.175 2.064 2.035 4.102 2.503 5.305 1.642.257 3.786.463 6.436.463 7.803 0 19.999-1.786 36.733-9.318.263-.825.613-1.858 1.046-3.007-.034.002-.067.008-.101.008-.178 0-.356-.02-.528-.057-1.04-.229-1.808-1.076-2.223-2.295z" class="st3"/><path d="M12.398 49.696a35.268 35.268 0 0 0 2.36 3.666c4.042-2.799 9.328-4.82 9.328-4.82s-.136-.399-.39-1.05a39.964 39.964 0 0 0-.736-1.763 46.102 46.102 0 0 0-.584-1.259 37.146 37.146 0 0 0-.253-.511l-.068-.135c-.104-.204-.211-.41-.322-.617l-.036-.068a27.963 27.963 0 0 0-1.354-2.271c-1.623-2.433-3.68-4.503-5.983-4.502-.726 0-1.477.206-2.246.67-4.231 2.56-2.047 8.418.126 12.375l.158.285zm.605-7.159c.028-.3.107-.64.31-.976a1.93 1.93 0 0 1 .898-.776l.067-.03.033-.014.114-.034.087-.023.086-.024a2.68 2.68 0 0 1 .396-.034l.104.002.078.01c.102.016.206.036.305.06.375.112.667.287.92.467.488.376.84.786 1.149 1.203.31.414.563.84.789 1.255a14.634 14.634 0 0 1 1.448 4.083c.044.213.062.386.08.5l.021.18s-.162-.194-.422-.537a48.917 48.917 0 0 1-1.042-1.423c-.418-.587-.894-1.27-1.408-1.97-.258-.348-.53-.696-.808-1.028-.281-.323-.574-.642-.858-.848a1.498 1.498 0 0 0-.35-.204c-.019-.002-.033-.002-.048-.01l-.012-.006.015.003c.01 0 .02-.002.03-.008.001-.002.034-.02.008-.016l-.087.018-.054.01a.365.365 0 0 0-.163.094.833.833 0 0 0-.145.312c-.081.29-.081.686-.06 1.055.025.376.076.747.132 1.093.113.692.238 1.287.32 1.708.086.42.132.67.132.67s-.045-.045-.124-.132c-.075-.09-.195-.217-.325-.391a9.049 9.049 0 0 1-.97-1.539 7.447 7.447 0 0 1-.464-1.163c-.12-.444-.24-.93-.182-1.537z" class="st2"/><path d="M71.059 22.87c.178 0 .356.02.528.058 1.294.285 2.168 1.53 2.462 3.257 2.466-3.464 5.156-5.215 8.03-5.215 1.212 0 2.275.285 3.168.837 1.516-1.845 2.481-3.117 2.481-3.117-1.14.208-3.524.519-3.524.519 9.018-3.317 8.292-12.335 8.292-12.335 0 1.555-4.664 5.286-4.664 5.286.207-1.347-.518-3.11-.518-3.11.207 1.763-5.39 6.323-5.39 6.323.414-.829.103-2.28.103-2.28-.31 1.659-2.798 2.28-2.798 2.28 1.555-1.865 4.457-11.712 2.28-12.334-2.177-.622-5.182 6.426-5.182 6.426-.104-1.658-1.037-1.658-1.037-1.658.415 5.182-3.731 9.328-3.731 9.328-.311-1.036-1.97-1.554-1.97-1.554.532 1.153-.074 6.404-.26 7.894.55-.389 1.138-.604 1.73-.604z" class="st3"/><path d="M68.843 32.954l.007.007c.044.048.09.092.138.13.017.013.035.022.053.034a.74.74 0 0 0 .276.129.822.822 0 0 0 .29.005c.271-.042.57-.21.869-.489a47.88 47.88 0 0 1 .881-1.941c.29-.6.583-1.172.88-1.718.442-2.344-.153-4.269-1.029-4.461a.679.679 0 0 0-.15-.016c-.899 0-2.206 1.565-2.718 3.895-.372 1.691-.2 3.194.238 4.034a1.874 1.874 0 0 0 .265.39z"/><ellipse cx="82.145" cy="28.535" class="st2" rx=".004" ry=".012" transform="rotate(-68.569 82.145 28.535)"/><path d="M82.16 28.55a.03.03 0 0 0 .014.005l.01.001-.02-.01-.01-.003.005.006.001.001z" class="st2"/><path d="M82.08 22.733c-5.134 0-8.911 7.727-10.885 12.977a58.958 58.958 0 0 0-1.404 4.212c.248.05.49.134.724.247 2.991-.895 6.862-1.103 9.785-1.103 2.474 0 4.267.147 4.267.147.777-1.088 5.286-16.48-2.488-16.48zm1.393 7.904a10.04 10.04 0 0 1-.575 1.225c-.4.725-.803 1.277-1.102 1.65-.297.376-.494.57-.494.57s.062-.269.18-.725c.113-.459.284-1.105.464-1.865.089-.38.178-.789.248-1.21.072-.42.118-.863.096-1.247-.017-.186-.051-.354-.099-.439a.115.115 0 0 0-.03-.045l-.004-.001c-.006-.003-.008-.008-.013-.012l-.07-.032-.22-.06c-.094-.03-.184-.029-.275-.051-.09-.016-.178-.006-.267-.016a7.215 7.215 0 0 0-.26.027c-.345.055-.69.223-1.027.468a5.7 5.7 0 0 0-.941.913c-.577.694-1.053 1.46-1.452 2.128-.396.673-.716 1.257-.945 1.669l-.36.654s-.004-.07-.002-.198c.005-.127.003-.318.027-.556.038-.478.128-1.158.34-1.959.217-.798.545-1.723 1.128-2.651a5.728 5.728 0 0 1 1.138-1.333 3.836 3.836 0 0 1 1.805-.874c.176-.025.355-.037.532-.043.175.01.355.01.524.04.167.034.344.054.499.112l.235.08.117.042.014.005.007.003.083.035.021.012.044.023c.032.003.454.267.56.439l.114.144.086.15c.06.102.1.201.132.3.133.395.142.74.123 1.05-.05.614-.209 1.12-.381 1.578z" class="st2"/><path d="M54.649 57.16c.839 0 1.762-.224 2.743-.665 2.045-.92 7.038-5.933 12.72-12.771a1.21 1.21 0 0 0 .277-.891 1.211 1.211 0 0 0-.435-.826 1.218 1.218 0 0 0-1.718.159c-2.473 2.976-9.417 10.952-11.81 12.089l-.034.016c-.466.21-.898.346-1.283.407l-.91.143-.666-.635a1.232 1.232 0 0 0-.842-.334c-.23 0-.455.066-.652.191a1.21 1.21 0 0 0-.536.764c-.07.318-.013.645.162.92.094.146.97 1.433 2.984 1.433zm-12.167.41l-.358.19-.405.024a4.95 4.95 0 0 1-.291.008c-1.139 0-3.937-.359-9.89-2.762-6.562-2.651-9.162-3.047-10.128-3.047-.184 0-.292.015-.341.024-.32.058-.599.238-.784.505a1.21 1.21 0 0 0-.197.912 1.23 1.23 0 0 0 1.266 1l.134-.008.135.011c.724.06 3.05.46 9.003 2.864 4.813 1.944 8.457 2.93 10.833 2.93 1.244 0 2.096-.268 2.534-.794.208-.251.305-.567.275-.892a1.212 1.212 0 0 0-.435-.825 1.206 1.206 0 0 0-.778-.282c-.2 0-.398.05-.573.142z"/><path d="M59.533 82.814s-.344 4.025-6.008 4.86a19.208 19.208 0 0 1-2.786.227c-3.014 0-4.2-.992-4.897-1.853 0 0-5.43 1.833-5.844 4.943-.31 2.325 1.93 3.52 3.903 3.52.666 0 1.301-.136 1.798-.41 1.97-1.089 4.924-3.473 8.862-3.991.356-.047.848-.063 1.432-.063 1.348 0 3.186.087 4.967.087 2.025 0 3.977-.113 5.055-.594 2.436-1.088 2.436-2.954 2.28-3.887-.172-1.034-2.646-2.787-8.762-2.839z" class="st3"/><path d="M52.936 86.128a11.32 11.32 0 0 0 .42-.08c2.947-.605 5.114-2.307 5.138-4.01a2.005 2.005 0 0 0-.245-.99c-.573-1.064-2.093-1.769-3.995-1.908a10.26 10.26 0 0 0-2.007.056c-.15.019-.3.04-.451.064-3.37.56-5.846 2.55-5.532 4.447.018.11.046.215.081.318.579 1.697 3.414 2.63 6.591 2.103zm110.358 9.91c0 2.58-.573 5.058-1.658 7.168-2.535 4.927-6.995 7.426-13.257 7.426-4.172 0-7.421-1.179-9.657-3.504-3.659-3.804-3.48-9.517-3.478-9.571l-2.671-.116c-.012.278-.245 6.877 4.202 11.52 2.76 2.884 6.664 4.345 11.604 4.345 9.148 0 13.551-4.827 15.635-8.877 1.278-2.486 1.955-5.387 1.955-8.39V44.452h-2.675v51.585zm36.015-51.488c-.7 0-1.318.448-1.536 1.113l-22.12 66.877 2.81-.002 6.446-19.01h28.927l6.5 19.012h2.824l-22.316-66.879a1.613 1.613 0 0 0-1.535-1.11zm-13.524 46.303l13.528-41.3 13.64 41.3h-27.168zm50.073 21.528h32.336v-2.675h-29.662v-30.21h27.918v-2.675h-27.918v-30.21h29.662v-2.675h-32.336zm87.693-49.864c.014-.312.264-7.719-4.934-13.14-3.461-3.61-8.458-5.44-14.852-5.44-6.43 0-11.445 1.83-14.907 5.444-5.141 5.365-4.892 12.648-4.88 12.9V95.31c0 3.962 1.099 7.685 3.18 10.767 2.478 3.672 7.364 8.05 16.567 8.05 3.025 0 5.791-.304 8.22-.903 6.834-1.685 11.608-7.867 11.608-15.031V81.609h-17.11v2.674h14.435v13.91c0 5.93-3.937 11.045-9.574 12.435-2.22.547-4.77.824-7.58.824-6.444 0-11.273-2.312-14.35-6.872-1.78-2.638-2.722-5.844-2.722-9.27l-.001-33.087c-.003-.064-.222-6.442 4.138-10.992 2.938-3.065 7.304-4.62 12.976-4.62 5.625 0 9.966 1.547 12.902 4.597 4.41 4.581 4.215 11.133 4.212 11.197l2.672.112zm17.811 49.864h32.699v-2.675h-30.024v-30.21h27.486v-2.675h-27.486v-30.21h30.024v-2.675h-32.699zm73.342-29.369c2.812-.815 5.331-2.07 7.32-4.017 2.983-2.919 4.495-7.14 4.495-12.546 0-13.323-6.813-19.43-10.874-21.256-1.854-.834-3.881-1.257-6.026-1.257h-19.493v68.445h2.675V84.29c1.122.012 2.276.037 3.478.063 5.208.111 10.804.232 15.76-.701l14.162 28.834h2.966l-14.463-29.475zm-18.367-1.332c-1.22-.026-2.392-.052-3.536-.064V46.611h16.818c1.764 0 3.422.343 4.93 1.021 4.24 1.907 9.296 7.59 9.296 18.817 0 4.725-1.208 8.204-3.69 10.634-5.113 5.003-15.052 4.788-23.818 4.597z" class="st1"/></svg>