<svg id="Layer_1" data-name="Layer 1" xmlns="http://www.w3.org/2000/svg" xmlns:xlink="http://www.w3.org/1999/xlink" viewBox="0 0 360 165"><defs><style>.cls-1{fill:url(#linear-gradient);}.cls-2{fill:url(#linear-gradient-2);}.cls-3{fill:url(#linear-gradient-3);}.cls-4{fill:url(#linear-gradient-4);}.cls-5{fill:url(#linear-gradient-5);}.cls-6{clip-path:url(#clip-path);}.cls-7{fill:url(#linear-gradient-9);}.cls-8,.cls-9{fill-rule:evenodd;}.cls-8{fill:url(#linear-gradient-10);}.cls-9{fill:url(#linear-gradient-11);}.cls-10{fill:url(#linear-gradient-12);}.cls-11{opacity:0.8;isolation:isolate;fill:url(#linear-gradient-13);}.cls-12{fill:url(#linear-gradient-14);}.cls-13{fill:url(#linear-gradient-15);}.cls-14{fill:url(#linear-gradient-16);}.cls-15{fill:url(#linear-gradient-17);}.cls-16{fill:url(#linear-gradient-18);}.cls-17{clip-path:url(#clip-path-2);}.cls-18{fill:url(#linear-gradient-22);}.cls-19{fill:url(#linear-gradient-23);}.cls-20{fill:url(#linear-gradient-24);}.cls-21{fill:url(#linear-gradient-25);}.cls-22{fill:url(#linear-gradient-26);}.cls-23{clip-path:url(#clip-path-3);}.cls-24{fill:url(#linear-gradient-31);}</style><linearGradient id="linear-gradient" x1="5.3629" y1="150.5881" x2="77.35741" y2="143.06629" gradientUnits="userSpaceOnUse"><stop offset="0" stop-color="#92efdf"/><stop offset="1" stop-color="#03846f"/></linearGradient><linearGradient id="linear-gradient-2" x1="133.47614" y1="66.14523" x2="146.13512" y2="64.82265" xlink:href="#linear-gradient"/><linearGradient id="linear-gradient-3" x1="281.64262" y1="150.5881" x2="353.6371" y2="143.06629" xlink:href="#linear-gradient"/><linearGradient id="linear-gradient-4" x1="-180.31275" y1="-3.98705" x2="373.78509" y2="53.90376" gradientTransform="matrix(1, 0, 0, -1, 0, 166)" xlink:href="#linear-gradient"/><linearGradient id="linear-gradient-5" x1="-180.31274" y1="-3.98705" x2="373.78509" y2="53.90377" gradientTransform="matrix(1, 0, 0, -1, 0, 166)" xlink:href="#linear-gradient"/><clipPath id="clip-path"><rect class="cls-1" x="5" y="146.53976" width="72.72031" height="0.57486"/></clipPath><linearGradient id="linear-gradient-9" x1="-174.50323" y1="30.11259" x2="374.35062" y2="87.45552" gradientTransform="matrix(1, 0, 0, -1, 0, 166)" xlink:href="#linear-gradient"/><linearGradient id="linear-gradient-10" x1="-172.19026" y1="96.8137" x2="382.19556" y2="154.7346" gradientTransform="matrix(1, 0, 0, -1, 0, 166)" xlink:href="#linear-gradient"/><linearGradient id="linear-gradient-11" x1="-173.82791" y1="92.09234" x2="384.87144" y2="150.46391" gradientTransform="matrix(1, 0, 0, -1, 0, 166)" xlink:href="#linear-gradient"/><linearGradient id="linear-gradient-12" x1="-167.76045" y1="73.78862" x2="386.33831" y2="131.67953" gradientTransform="matrix(1, 0, 0, -1, 0, 166)" xlink:href="#linear-gradient"/><linearGradient id="linear-gradient-13" x1="-167.76008" y1="73.79165" x2="386.33774" y2="131.68246" gradientTransform="matrix(1, 0, 0, -1, 0, 166)" xlink:href="#linear-gradient"/><linearGradient id="linear-gradient-14" x1="-175.43124" y1="15.70651" x2="379.48513" y2="73.68284" gradientTransform="matrix(1, 0, 0, -1, 0, 166)" xlink:href="#linear-gradient"/><linearGradient id="linear-gradient-15" x1="-171.63926" y1="8.80049" x2="378.99572" y2="66.32951" gradientTransform="matrix(1, 0, 0, -1, 0, 166)" xlink:href="#linear-gradient"/><linearGradient id="linear-gradient-16" x1="-164.49174" y1="2.6031" x2="379.31605" y2="59.41883" gradientTransform="matrix(1, 0, 0, -1, 0, 166)" xlink:href="#linear-gradient"/><linearGradient id="linear-gradient-17" x1="-170.84296" y1="68.06025" x2="383.25483" y2="125.95106" gradientTransform="matrix(1, 0, 0, -1, 0, 166)" xlink:href="#linear-gradient"/><linearGradient id="linear-gradient-18" x1="-170.84296" y1="68.06024" x2="383.25482" y2="125.95105" gradientTransform="matrix(1, 0, 0, -1, 0, 166)" xlink:href="#linear-gradient"/><clipPath id="clip-path-2"><rect class="cls-2" x="139.5182" y="6.99151" width="0.57486" height="116.98486"/></clipPath><linearGradient id="linear-gradient-22" x1="-177.86717" y1="-16.07959" x2="373.69377" y2="41.54617" gradientTransform="matrix(1, 0, 0, -1, 0, 166)" xlink:href="#linear-gradient"/><linearGradient id="linear-gradient-23" x1="-156.75107" y1="-21.85357" x2="367.78496" y2="32.9487" gradientTransform="matrix(1, 0, 0, -1, 0, 166)" xlink:href="#linear-gradient"/><linearGradient id="linear-gradient-24" x1="-176.98424" y1="-24.89976" x2="375.5557" y2="32.82829" gradientTransform="matrix(1, 0, 0, -1, 0, 166)" xlink:href="#linear-gradient"/><linearGradient id="linear-gradient-25" x1="-155.4606" y1="-23.8374" x2="369.07377" y2="30.9647" gradientTransform="matrix(1, 0, 0, -1, 0, 166)" xlink:href="#linear-gradient"/><linearGradient id="linear-gradient-26" x1="-177.32956" y1="-32.54042" x2="376.76827" y2="25.35039" gradientTransform="matrix(1, 0, 0, -1, 0, 166)" xlink:href="#linear-gradient"/><clipPath id="clip-path-3"><rect class="cls-3" x="281.27972" y="146.53976" width="72.72028" height="0.57486"/></clipPath><linearGradient id="linear-gradient-31" x1="-138.59844" y1="-23.05589" x2="366.34731" y2="29.69963" gradientTransform="matrix(1, 0, 0, -1, 0, 166)" xlink:href="#linear-gradient"/></defs><path id="SVGID" class="cls-4" d="M5,146.53976H77.72031v.57488H5Z"/><rect class="cls-5" x="5" y="146.53976" width="72.72031" height="0.57486"/><rect class="cls-5" x="5" y="146.53976" width="72.72031" height="0.57486"/><rect class="cls-1" x="5" y="146.53976" width="72.72031" height="0.57486"/><g class="cls-6"><path class="cls-4" d="M5,146.53976H77.72031v.57488H5Z"/></g><path class="cls-7" d="M104.4515,106.96037c.63235-.17246,1.37967-.34491,2.35694-.51737a17.0206,17.0206,0,0,1,2.98929-.22994,6.916,6.916,0,0,1,2.64438.4024,4.04129,4.04129,0,0,1,1.6671,1.20722,4.5491,4.5491,0,0,1,.86229,1.83956,10.17743,10.17743,0,0,1,.28743,2.35695v7.12831h-3.50666v-6.72591a4.79973,4.79973,0,0,0-.4599-2.41443,1.882,1.882,0,0,0-1.7246-.68983,4.07176,4.07176,0,0,0-.8048.05749c-.28743,0-.51738.05748-.74733.05748v9.71521H104.4515Zm-6.55345,5.80614a4.77621,4.77621,0,0,0-.63235-2.58689,2.41619,2.41619,0,0,0-3.79411,0,4.31682,4.31682,0,0,0-.68984,2.58689,4.63285,4.63285,0,0,0,.68984,2.64437,2.32992,2.32992,0,0,0,3.79411,0,4.99307,4.99307,0,0,0,.63235-2.64437m3.62164,0a8.07965,8.07965,0,0,1-.4024,2.70186,6.15216,6.15216,0,0,1-1.2647,2.127,5.75277,5.75277,0,0,1-4.48394,1.83956,7.07486,7.07486,0,0,1-2.5294-.45989,5.77017,5.77017,0,0,1-1.95453-1.37967,5.97976,5.97976,0,0,1-1.2647-2.127,8.16651,8.16651,0,0,1,0-5.40372,6.25883,6.25883,0,0,1,1.2647-2.06952,5.60835,5.60835,0,0,1,1.95453-1.32219,5.91779,5.91779,0,0,1,2.47192-.45989,6.75963,6.75963,0,0,1,2.47193.45989,6.5191,6.5191,0,0,1,1.95453,1.32219,6.25873,6.25873,0,0,1,1.2647,2.06952,6.8599,6.8599,0,0,1,.51737,2.70186m-19.37291,6.66842c-2.70186,0-4.77138-.74732-6.151-2.242-1.43715-1.49465-2.127-3.62165-2.127-6.381a10.49664,10.49664,0,0,1,.63235-3.67914,7.42989,7.42989,0,0,1,4.48394-4.369,9.34454,9.34454,0,0,1,3.3917-.57486,9.69,9.69,0,0,1,1.89705.17246c.57486.115,1.09224.23,1.49465.34492a11.31091,11.31091,0,0,1,1.09224.40241,2.05863,2.05863,0,0,1,.63235.34492L86.40078,106.443a7.19814,7.19814,0,0,0-1.78208-.68984,9.31154,9.31154,0,0,0-2.29946-.28743,5.341,5.341,0,0,0-1.6671.28743,3.43919,3.43919,0,0,0-1.43716.91979,5.54852,5.54852,0,0,0-1.03475,1.60962,7.57132,7.57132,0,0,0-.40241,2.41443,8.32549,8.32549,0,0,0,.22994,2.127,5.30512,5.30512,0,0,0,.80481,1.7246,4.32859,4.32859,0,0,0,1.49465,1.14972,5.11454,5.11454,0,0,0,2.18449.40241,10.4047,10.4047,0,0,0,1.43715-.115,5.79647,5.79647,0,0,0,1.14972-.23,7.51824,7.51824,0,0,0,.8623-.28743,3.51716,3.51716,0,0,1,.68984-.28743l1.03475,2.98929a7.0095,7.0095,0,0,1-2.242.8623,11.10674,11.10674,0,0,1-3.27674.40239M67.94765,111.5593a2.30672,2.30672,0,0,0-.17247-.86229,3.09781,3.09781,0,0,0-.40239-.74733,2.30037,2.30037,0,0,0-.68984-.57486,2.746,2.746,0,0,0-1.03476-.22994,1.96875,1.96875,0,0,0-1.03476.22994,1.56929,1.56929,0,0,0-.68983.51738,2.68856,2.68856,0,0,0-.45989.80481,4.30549,4.30549,0,0,0-.23.91979H67.9476Zm-8.33553,1.32219a7.84,7.84,0,0,1,.51738-2.93181,5.4487,5.4487,0,0,1,1.37967-2.06951,5.77413,5.77413,0,0,1,1.89706-1.2647,6.16451,6.16451,0,0,1,2.242-.4024,5.5902,5.5902,0,0,1,4.254,1.60962,6.77211,6.77211,0,0,1,1.55214,4.82885v.68984c0,.23-.05749.4599-.05749.63235H63.29125a2.13687,2.13687,0,0,0,1.03476,1.72459,4.42541,4.42541,0,0,0,2.41443.63236,10.12211,10.12211,0,0,0,1.897-.17246,7.21022,7.21022,0,0,0,1.55214-.4599l.45989,2.87433a5.13372,5.13372,0,0,1-.74732.28743A6.10707,6.10707,0,0,1,68.81,119.09c-.40241.05748-.80481.115-1.2647.17246a10.627,10.627,0,0,1-1.32219.05749,7.43239,7.43239,0,0,1-2.93181-.51738,5.44882,5.44882,0,0,1-2.06951-1.37967,4.70127,4.70127,0,0,1-1.20721-2.06951,6.56173,6.56173,0,0,1-.40241-2.47192m-2.35694-.05749a8.06728,8.06728,0,0,1-.45989,2.70186,6.25873,6.25873,0,0,1-1.2647,2.06952,5.56053,5.56053,0,0,1-2.06952,1.32219,8.16,8.16,0,0,1-2.75935.45989,12.0326,12.0326,0,0,1-1.37966-.05749l-1.37969-.17246a10.61019,10.61019,0,0,1-1.32218-.22994c-.40241-.115-.80481-.17246-1.09224-.28743V101.03929l3.56416-.57486v6.266a8.14075,8.14075,0,0,1,1.2647-.4024,5.37185,5.37185,0,0,1,1.37967-.115,5.93852,5.93852,0,0,1,2.35694.45989,4.3463,4.3463,0,0,1,1.72459,1.32219,5.83573,5.83573,0,0,1,1.03476,2.06951,8.42819,8.42819,0,0,1,.4024,2.75935m-3.62164-.115c0-2.29945-.8623-3.44918-2.5294-3.44918a7.04562,7.04562,0,0,0-1.09225.115,6.69283,6.69283,0,0,0-.86229.34492v6.496a2.36872,2.36872,0,0,0,.68983.05749c.28743,0,.57487.05749.8623.05749a2.5593,2.5593,0,0,0,2.18448-.97728,4.509,4.509,0,0,0,.74733-2.64437m-11.61225,5.97857c-.63235.17247-1.37968.34493-2.35695.51738a17.02149,17.02149,0,0,1-2.98929.22994,6.916,6.916,0,0,1-2.64437-.40239,4.04157,4.04157,0,0,1-1.66711-1.20722,4.9397,4.9397,0,0,1-.8623-1.83957,9.79824,9.79824,0,0,1-.28743-2.35695v-7.01333H34.7205v6.55345a5.218,5.218,0,0,0,.4599,2.47191,1.78273,1.78273,0,0,0,1.72459.74733,4.07337,4.07337,0,0,0,.80481-.05749c.28743,0,.51738-.05749.74732-.05749V106.558h3.56416v12.12964ZM25.58016,119.09c-.34492-.51738-.74732-1.14973-1.20721-1.78209a21.53673,21.53673,0,0,0-1.49465-1.89705c-.51738-.63235-1.09224-1.20722-1.6671-1.83956a21.00166,21.00166,0,0,0-1.7246-1.55213v7.01333H15.75v-16.556h3.73662v6.266c.97727-1.03475,1.95454-2.06951,2.9318-3.21924.97727-1.09224,1.89705-2.127,2.75935-3.04678h4.42645c-1.14972,1.32219-2.242,2.64438-3.39169,3.85159-1.14973,1.26471-2.357,2.47193-3.62165,3.73661a31.06978,31.06978,0,0,1,3.85159,3.90908,50.90224,50.90224,0,0,1,3.56416,5.00132H25.58014Z"/><path class="cls-8" d="M55.47307,45.96729l-2.06951.45989c0-.28743-.05749-.57486-.05749-.86229a11.90416,11.90416,0,0,1,1.7246-6.20854l4.02405,3.56416a.79365.79365,0,0,0,.22994.17245,6.55575,6.55575,0,0,0-.45989,1.897c-.115.05749-.28743.05749-.4024.115Zm7.81815-12.18712v5.63367a4.98356,4.98356,0,0,0-1.55213.80481c-.17246-.115-.34492-.28743-.51738-.4024l-4.08154-2.87432a11.34072,11.34072,0,0,1,6.151-3.16176M35.29534,46.7721c1.95454-8.56547,3.62165-15.80876,5.57618-24.37424.8623-3.85159,1.43716-4.88634,4.94383-6.89837,4.82886-2.81683,8.4505-4.82886,13.62428-7.81815,3.21924-1.83956,3.85159-1.72459,3.85159,2.242v19.8903A15.5406,15.5406,0,0,0,53.86345,34.585l-1.72459-1.20721a.83092.83092,0,0,1-.40241-.57487,2.7999,2.7999,0,0,0-.91978-1.37967,1.88087,1.88087,0,0,0-2.35694,2.9318,1.99165,1.99165,0,0,0,.91978.45989c.22995.05749.45989.05749.68984.115a1.42048,1.42048,0,0,1,.51738.22994L52.19635,36.597a15.73882,15.73882,0,0,0-2.70186,8.85291c0,.57487.05748,1.14973.115,1.7246l-3.50667.74732a3.53561,3.53561,0,0,0-.74733.05749l-.51738.17246c-2.29945.45989-4.59891.97726-6.95585,1.49464-3.16175.74733-3.27671.115-2.58689-2.87432m32.07742-7.35826V33.78017a12.08806,12.08806,0,0,1,6.151,3.10427l-4.42645,3.16175c-.05748.05748-.115.115-.17247.115a6.38878,6.38878,0,0,0-1.55213-.74733M77.2604,46.0248l-5.5187-1.2647a5.44359,5.44359,0,0,0-.45989-1.72459c.05748-.05748.115-.115.17246-.115l4.08154-3.62165a12.01126,12.01126,0,0,1,1.78208,6.266,1.12073,1.12073,0,0,0-.05748.4599m-7.1858-30.41032c2.98929,1.43716,5.11629,2.47192,8.10559,3.90908,4.139,2.012,8.278,4.024,12.47455,5.97858,1.03476,4.484,2.06952,8.9679,3.04679,13.4519.63235,2.70186.91979,4.139,1.55213,6.78339.97727,4.19651.8623,4.54143-3.44918,3.56416l-10.635-2.41443A11.077,11.077,0,0,0,81.227,45.5074a15.41012,15.41012,0,0,0-2.75936-8.9104l1.49466-1.37967a1.276,1.276,0,0,1,.63234-.28743,3.00883,3.00883,0,0,0,1.55214-.57487,1.88088,1.88088,0,1,0-2.357-2.9318h0A2.34049,2.34049,0,0,0,79.1,32.228c-.115.22994-.17246.4024-.28743.63235a.89394.89394,0,0,1-.34492.45989l-1.72459,1.20721a15.69615,15.69615,0,0,0-9.42778-4.77137V17.62649c.05749-2.81684.28744-3.16175,2.75936-2.012M66.39549,51.8309a6.36677,6.36677,0,0,1-1.09224.115,6.24814,6.24814,0,0,1-1.03476-.05748l-.17246.34492-2.5294,4.6564a11.93705,11.93705,0,0,0,3.7941.63234,12.57187,12.57187,0,0,0,3.8516-.63234l-2.52941-4.59892a2.01664,2.01664,0,0,1-.28744-.45989m4.48395-3.04678,5.5187,1.2647A11.92431,11.92431,0,0,1,71.91418,55.51L69.7297,50.22128a9.00757,9.00757,0,0,0,1.14973-1.43716M54.26585,49.99133l5.5187-1.2647a7.64058,7.64058,0,0,0,1.20721,1.49465l-.17246.34492-2.012,4.9438a11.84132,11.84132,0,0,1-4.54143-5.5187m45.18431,9.71521c-2.64437,3.27672-3.85159,4.82886-6.496,8.10558-2.9893,3.73662-5.40371,6.78338-8.393,10.52-2.127,2.70186-3.67913,2.75936-7.18581,2.75936H53.23109c-4.59891,0-4.94383,0-7.76067-3.56417-2.81683-3.50667-5.00131-6.266-7.76066-9.77269-2.18449-2.75935-2.75935-3.44918-4.94383-6.20853-3.3917-4.254-3.96656-5.80613,1.32219-6.95586l16.32614-3.67913a16.14291,16.14291,0,0,0,6.84088,8.27805l-.74733,1.72459a1.01437,1.01437,0,0,1-.45989.51738,2.60715,2.60715,0,0,0-1.14973,1.20721,1.88964,1.88964,0,0,0,3.38942,1.67176l.00228-.00465a3.06966,3.06966,0,0,0,.28743-1.03476,2.79885,2.79885,0,0,0-.05748-.68983,1.03654,1.03654,0,0,1,.115-.57487l.91978-1.6671a16.08061,16.08061,0,0,0,5.69116,1.03475,15.24521,15.24521,0,0,0,5.74864-1.09224l.91978,1.66711a.94083.94083,0,0,1,.115.68984,2.58631,2.58631,0,0,0,.22994,1.60961,1.88963,1.88963,0,0,0,3.39772-1.65478l-.00273-.00557-.00331-.00674a2.40153,2.40153,0,0,0-.63235-.86231,3.48927,3.48927,0,0,0-.57487-.4024.714.714,0,0,1-.34492-.4599l-.74732-1.83956a15.767,15.767,0,0,0,6.7834-8.278L98.128,54.82019c3.62165.97727,3.3917,2.242,1.32219,4.88635"/><path class="cls-9" d="M67.37276,39.41384V33.78017a12.08806,12.08806,0,0,1,6.151,3.10427l-4.42645,3.16175c-.05748.05748-.115.115-.17247.115a6.38878,6.38878,0,0,0-1.55213-.74733m9.88766,6.61094-5.5187-1.2647a5.44359,5.44359,0,0,0-.45989-1.72459c.05748-.05748.115-.115.17246-.115l4.08154-3.62165a12.01126,12.01126,0,0,1,1.78208,6.266,1.12073,1.12073,0,0,0-.05748.4599m-7.1858-30.41032c2.98929,1.43716,5.11628,2.47192,8.10559,3.90908,4.139,2.012,8.278,4.024,12.47455,5.97858,1.03479,4.484,2.06955,8.9679,3.04682,13.4519.63235,2.70186.91979,4.139,1.55213,6.78339.97727,4.19651.8623,4.54143-3.44918,3.56416l-10.635-2.41443A11.077,11.077,0,0,0,81.227,45.5074a15.41012,15.41012,0,0,0-2.75936-8.9104l1.49466-1.37967a1.276,1.276,0,0,1,.63234-.28743,3.00883,3.00883,0,0,0,1.55214-.57487,1.88088,1.88088,0,1,0-2.357-2.9318h0A2.34049,2.34049,0,0,0,79.1,32.228c-.115.22994-.17246.4024-.28743.63235a.89394.89394,0,0,1-.34492.45989l-1.72459,1.20721a15.69615,15.69615,0,0,0-9.42778-4.77137V17.62649c.05749-2.81684.28744-3.16175,2.75936-2.012m.80482,33.16967,5.51869,1.2647a11.92414,11.92414,0,0,1-4.484,5.46114l-2.18448-5.28874a9.00656,9.00656,0,0,0,1.14973-1.43716m-5.57619,8.68044V51.94588a7.04427,7.04427,0,0,0,1.09225-.115,1.44088,1.44088,0,0,0,.22994.4024l2.52941,4.59891a12.57152,12.57152,0,0,1-3.85159.63235m34.14694,2.242c-2.64438,3.27673-3.8516,4.82886-6.496,8.10559-2.98929,3.73661-5.40371,6.78339-8.393,10.52-2.127,2.70186-3.67913,2.75935-7.1858,2.75935H65.36074V61.37365a15.24537,15.24537,0,0,0,5.74864-1.09225l.91978,1.66711a.94078.94078,0,0,1,.115.68984,2.58642,2.58642,0,0,0,.23,1.60962,1.88963,1.88963,0,0,0,3.39169-1.66711,2.401,2.401,0,0,0-.63234-.8623,3.49072,3.49072,0,0,0-.57487-.4024.714.714,0,0,1-.34492-.45989l-.74732-1.83956a15.76711,15.76711,0,0,0,6.78339-8.278L98.24295,54.8202c3.50668.97726,3.27673,2.242,1.20722,4.88634"/><path class="cls-10" d="M232.81865,59.01671h-9.54276V81.32143h22.24726V71.77869h-12.7045Zm47.77119.05748v12.7045h-12.647l-.115-.115V81.3214h22.30472V59.0167h-9.60025ZM223.27592,36.712h9.60024l-.0575-.05749V23.95h12.647l.05749.115V14.40725H223.27592Zm44.552-22.30473V23.95h12.762V36.712h9.54276V14.40725Z"/><path class="cls-11" d="M266.67813,36.712l-12.762-12.762h13.91171V14.40725h-22.3047V24.065l12.70451,12.647ZM255.18086,59.0167h-8.45051l10.57751,10.5775,2.18448,2.18449H245.52313v9.54274h22.30472V71.66371l-6.32349-6.3235Zm25.409-22.30473V50.62368L278.4054,48.4392l-10.57749-10.52v8.4505l6.381,6.32351,6.32352,6.3235h9.60025V36.712ZM245.52315,49.359l-12.647-12.647h-9.65771V59.0167h9.60023V45.105l12.7045,12.70449Z"/><path class="cls-12" d="M176.59694,105.63819l-2.41443,2.87432a5.65144,5.65144,0,0,0-4.139-2.127,4.61661,4.61661,0,0,0-4.60147,4.6317v0q.0002.06984.00256.13964a4.59723,4.59723,0,0,0,4.35976,4.823q.11947.006.23915.00584a6.079,6.079,0,0,0,4.139-1.95454l2.4719,2.5869a10.065,10.065,0,0,1-6.78338,2.9893,8.32758,8.32758,0,0,1-8.61872-8.02586q-.00755-.21222-.00428-.42465c0-4.77137,3.79409-8.33553,8.79541-8.33553a9.89352,9.89352,0,0,1,6.55345,2.81684Zm2.012,13.79673V102.01654h4.08155v17.41838Zm20.23522-6.3235c0,3.90908-2.75934,6.496-6.89838,6.496s-6.95586-2.58689-6.95586-6.496,2.75936-6.43848,6.95586-6.43848c4.139,0,6.89836,2.52941,6.89836,6.43848Zm-9.77269.05749c0,1.95453,1.14973,3.27672,2.81683,3.27672s2.81683-1.32219,2.81683-3.27672-1.14972-3.27674-2.81683-3.27674S189.07146,111.21436,189.07146,113.16891Zm24.31675,6.266h-4.08154v-2.06952a4.48191,4.48191,0,0,1-4.139,2.242c-2.75933,0-4.54141-1.89706-4.54141-4.82886v-7.9906h4.08154v6.84088c0,1.49465.8048,2.41443,2.127,2.41443,1.55214,0,2.47191-1.26471,2.47191-2.98929v-6.266h4.08154Zm15.98122,0H225.2879v-1.6671a4.68622,4.68622,0,0,1-3.79411,1.83957c-3.56416,0-5.9211-2.64438-5.9211-6.55346,0-3.85159,2.29946-6.43847,5.80614-6.43847a4.67225,4.67225,0,0,1,3.90907,1.83956v-6.43847h4.08153Zm-4.08153-6.266c0-1.95454-1.14973-3.27674-2.81683-3.27674s-2.81683,1.32219-2.81683,3.27674,1.14973,3.33421,2.81683,3.33421c1.72462-.05749,2.81686-1.37968,2.81686-3.33421Z"/><path class="cls-13" d="M244.25844,119.43492l-7.58821-10.11761v10.11761h-3.90908V102.99381h3.67913l7.58821,10.17509V102.99381h3.90907v16.44111Zm18.16569-8.278v8.278h-3.96655v-1.43716a4.60193,4.60193,0,0,1-3.85159,1.66711c-2.70188,0-4.369-1.66711-4.369-3.96656,0-2.41443,1.7246-3.79411,4.88634-3.85159h3.3342v-.17246c0-1.26471-.80481-2.012-2.47191-2.012a9.67913,9.67913,0,0,0-3.79411,1.03476l-1.14974-2.70185a13.17681,13.17681,0,0,1,5.86364-1.43716c3.50674.05745,5.51876,1.782,5.51876,4.59888Zm-3.96655,4.02405V114.0312H255.8707c-1.20722,0-1.83957.40241-1.83957,1.37967,0,.91978.63235,1.49466,1.78207,1.49466a2.62788,2.62788,0,0,0,2.64438-1.7246Zm14.94647,3.62165a7.23374,7.23374,0,0,1-3.39169.86229c-2.47192,0-4.1965-1.37967-4.1965-4.024v-5.57618h-1.78208v-2.64438h1.78208v-3.50668h4.024v3.50668h3.3342v2.70186h-3.3342V115.066c0,.97727.40241,1.43716,1.14972,1.37967a4.76114,4.76114,0,0,0,1.55216-.4024Zm6.20853-15.6363a2.1008,2.1008,0,0,1-2.01529,2.183q-.05584.00223-.11172.00149a2.15593,2.15593,0,0,1,0-4.31148,2.02121,2.02121,0,0,1,2.127,2.127Zm-4.1965,16.26865V106.788h4.024v12.647Zm10.34756,0-4.77136-12.647h4.1965l2.70188,8.96789L290.65,106.788h4.02408l-4.77136,12.647Zm22.36221-5.23127h-8.9104a2.95759,2.95759,0,0,0,2.98929,2.35695,4.51671,4.51671,0,0,0,3.04679-1.26471l2.127,2.06952a7.178,7.178,0,0,1-5.51868,2.242c-4.139,0-6.72592-2.58688-6.72592-6.43847a6.21622,6.21622,0,0,1,6.61093-6.496c4.42646,0,6.61093,2.93181,6.381,7.53072Zm-3.90905-2.18448a2.38535,2.38535,0,0,0-2.47193-2.58689c-1.43716,0-2.35693,1.03476-2.64435,2.58689Z"/><path class="cls-14" d="M324.68192,105.63819l-2.41443,2.87432a5.65136,5.65136,0,0,0-4.139-2.127,4.61662,4.61662,0,0,0-4.60147,4.63172v0q.00018.06984.00256.13964a4.59723,4.59723,0,0,0,4.35977,4.823q.11948.006.23914.00583a6.079,6.079,0,0,0,4.139-1.95454l2.47192,2.5869a10.065,10.065,0,0,1-6.78339,2.9893,8.32755,8.32755,0,0,1-8.61868-8.02589q-.00759-.21222-.0043-.42462c0-4.77137,3.7941-8.33553,8.79541-8.33553A10.0136,10.0136,0,0,1,324.68192,105.63819Zm14.19915,7.47323c0,3.90908-2.75934,6.496-6.89837,6.496s-6.95584-2.58689-6.95584-6.496,2.75933-6.43848,6.95584-6.43848C336.12173,106.67294,338.88107,109.20234,338.88107,113.11142Zm-9.71521.05749c0,1.95453,1.14972,3.27672,2.81687,3.27672s2.81686-1.32219,2.81686-3.27672-1.14972-3.27674-2.81686-3.27674-2.81681,1.32219-2.81681,3.27674ZM354,111.44432v7.9906h-4.024V112.594a2.16309,2.16309,0,0,0-2.242-2.41442,2.5744,2.5744,0,0,0-2.58688,2.56188q-.00006.0125,0,.025v6.7259h-4.08152v-12.647h4.08152v2.06952a4.66594,4.66594,0,0,1,4.254-2.242C352.16046,106.6154,354,108.51245,354,111.44426Z"/><path id="SVGID-2" class="cls-15" d="M139.5182,6.9915h.57486V123.97635h-.57486Z"/><rect class="cls-16" x="139.5182" y="6.99151" width="0.57486" height="116.98486"/><rect class="cls-16" x="139.5182" y="6.99151" width="0.57486" height="116.98486"/><rect class="cls-2" x="139.5182" y="6.99151" width="0.57486" height="116.98486"/><g class="cls-17"><path class="cls-15" d="M139.5182,6.9915h.57486V123.97635h-.57486Z"/></g><path class="cls-18" d="M103.17435,153.52435H99.72517L94.149,143.86664h-.0575c.115,1.72459.17246,2.93179.17246,3.67914v6.03607H91.84953V140.76237h3.44918l5.57618,9.60024h.05749c-.115-1.66711-.115-2.81683-.115-3.50668v-6.03608h2.41443v12.7045ZM115.074,148.638a5.16861,5.16861,0,0,1-1.2647,3.73662,4.51181,4.51181,0,0,1-3.50669,1.32217,4.934,4.934,0,0,1-2.47192-.63235,4.182,4.182,0,0,1-1.6671-1.78208,5.67906,5.67906,0,0,1-.57486-2.70187,5.16848,5.16848,0,0,1,1.2647-3.73662,4.72484,4.72484,0,0,1,3.50667-1.32219,4.93392,4.93392,0,0,1,2.47192.63236,4.18161,4.18161,0,0,1,1.66709,1.78207,5.67905,5.67905,0,0,1,.57487,2.70186Zm-6.72592,0a4.26246,4.26246,0,0,0,.4599,2.18448,1.78267,1.78267,0,0,0,1.55213.74731,1.71985,1.71985,0,0,0,1.55213-.74731,5.41808,5.41808,0,0,0,0-4.369,1.98548,1.98548,0,0,0-3.10426,0,3.74733,3.74733,0,0,0-.45985,2.18452Zm14.4291-5.05881a4.36255,4.36255,0,0,1,.91979.0575l-.23,2.5294a2.99567,2.99567,0,0,0-.8048-.115,3.11823,3.11823,0,0,0-2.012.63235,2.4274,2.4274,0,0,0-.68983,1.83957v5.00133H117.316v-9.77269h2.012l.40242,1.6671h.115a3.35,3.35,0,0,1,1.20723-1.32219,3.04155,3.04155,0,0,1,1.72458-.51737Zm6.7834,7.99062a6.75582,6.75582,0,0,0,1.6671-.28745v2.012a6.32132,6.32132,0,0,1-2.47193.45988,3.15183,3.15183,0,0,1-2.35694-.80479,3.55972,3.55972,0,0,1-.74733-2.41445v-4.71388h-1.2647v-1.14973l1.49465-.91979.74733-2.0695h1.72459v2.0695h2.75935v2.012h-2.75931v4.71388a1.08447,1.08447,0,0,0,.34493.8623,1.38531,1.38531,0,0,0,.8623.22994Zm12.7045,1.95453H139.6207v-5.69115c0-1.43716-.51737-2.127-1.55213-2.127a1.75783,1.75783,0,0,0-1.60962.74733,4.52268,4.52268,0,0,0-.51738,2.47191v4.59891h-2.64436V139.90009h2.64436v2.75935c0,.22993,0,.74733-.05749,1.49464l-.115.86231h.115a3.03335,3.03335,0,0,1,2.81683-1.43717,3.53177,3.53177,0,0,1,2.64437.91979,3.7768,3.7768,0,0,1,.91978,2.64438v6.381Zm15.40635,0-.91978-3.04677h-4.6564l-.91979,3.04677h-2.93181l4.54143-12.81948h3.3342l4.54143,12.81948Zm-1.55214-5.34624c-.8623-2.75935-1.32217-4.31148-1.43716-4.6564s-.17246-.63236-.22994-.86231c-.17245.74733-.74731,2.58689-1.66711,5.51871Zm14.659,5.34624H168.134v-5.69115a3.18765,3.18765,0,0,0-.34492-1.60962,1.26254,1.26254,0,0,0-1.09223-.51738,1.62273,1.62273,0,0,0-1.49464.74733,5.21789,5.21789,0,0,0-.45989,2.47191v4.59891H162.098v-9.77269h2.012l.34492,1.26469h.17246a2.51674,2.51674,0,0,1,1.14973-1.03476,4.22522,4.22522,0,0,1,1.7246-.4024,3.086,3.086,0,0,1,2.9893,1.43716h.23a2.51662,2.51662,0,0,1,1.14972-1.03476,4.22466,4.22466,0,0,1,1.72459-.4024,3.45856,3.45856,0,0,1,2.52939.86229,3.77947,3.77947,0,0,1,.8623,2.75935v6.381h-2.702V147.8907a3.18765,3.18765,0,0,0-.34492-1.60962,1.26255,1.26255,0,0,0-1.09224-.51738,1.6044,1.6044,0,0,0-1.43716.68984,3.8393,3.8393,0,0,0-.45989,2.242v4.82886Zm13.22186.17245a4.58539,4.58539,0,0,1-5.00131-5.00132,5.36946,5.36946,0,0,1,1.20721-3.79412,4.25866,4.25866,0,0,1,3.3917-1.32219,4.205,4.205,0,0,1,3.21924,1.20722,4.63965,4.63965,0,0,1,1.14973,3.27672v1.32217H181.6433a2.62522,2.62522,0,0,0,.68985,1.78209,2.49,2.49,0,0,0,1.78207.63235,7.80464,7.80464,0,0,0,1.6671-.17245,11.5214,11.5214,0,0,0,1.6671-.57488V153.122a6.56487,6.56487,0,0,1-1.49465.51737c-.51736-.00005-1.14972.05745-1.95453.05745Zm-.34492-8.22056a1.64944,1.64944,0,0,0-1.32218.51738,2.39594,2.39594,0,0,0-.57487,1.55212h3.73662a2.30078,2.30078,0,0,0-.51737-1.55212,1.64942,1.64942,0,0,0-1.32217-.51738Zm12.01477-1.897a4.36246,4.36246,0,0,1,.91978.0575l-.22993,2.5294a2.9958,2.9958,0,0,0-.80481-.115,3.11809,3.11809,0,0,0-2.012.63234,2.42746,2.42746,0,0,0-.68985,1.83956v5.00133h-2.64437v-9.77269h2.012l.4024,1.6671h.115a3.35011,3.35011,0,0,1,1.20721-1.32219,3.04175,3.04175,0,0,1,1.72459-.51736Zm2.5294-2.357c0-.86229.45989-1.32219,1.43717-1.32219s1.43716.4599,1.43716,1.32219a1.35237,1.35237,0,0,1-.34492.97727,1.55627,1.55627,0,0,1-1.09224.34492c-.9198,0-1.43717-.45987-1.43717-1.32217Zm2.81684,12.3021h-2.64437v-9.77269h2.64437Zm6.72592.17245c-3.04677,0-4.54142-1.6671-4.54142-5.00132a5.13327,5.13327,0,0,1,1.26471-3.79412,4.68339,4.68339,0,0,1,3.56417-1.32219,6.60278,6.60278,0,0,1,3.04677.68984l-.8048,2.0695c-.4024-.17245-.80481-.28743-1.14973-.4024a3.60978,3.60978,0,0,0-1.09224-.17246q-2.06955,0-2.06951,2.93181c0,1.897.68984,2.87431,2.06951,2.87431a3.96858,3.96858,0,0,0,1.43716-.22993,4.62448,4.62448,0,0,0,1.32218-.63236V153.007a4.40424,4.40424,0,0,1-1.32218.57486,13.58394,13.58394,0,0,1-1.72459.115Zm11.49728-.17245-.51736-1.32218h-.0575a3.49674,3.49674,0,0,1-1.37967,1.14974,4.19984,4.19984,0,0,1-1.83957.34492,3.24078,3.24078,0,0,1-2.242-.80479,3.19136,3.19136,0,0,1-.80481-2.29945,2.57243,2.57243,0,0,1,1.09224-2.29946,6.23129,6.23129,0,0,1,3.27673-.80479l1.7246-.0575v-.40242a1.33674,1.33674,0,0,0-1.49465-1.49464,6.92809,6.92809,0,0,0-2.75934.68983l-.8623-1.782a8.12386,8.12386,0,0,1,3.73662-.86228,4.8031,4.8031,0,0,1,3.04676.86228,3.17488,3.17488,0,0,1,1.03475,2.5869v6.496H219.2394Zm-.80479-4.54143-1.03475.0575a3.308,3.308,0,0,0-1.72459.4024,1.21722,1.21722,0,0,0-.57488,1.14973c0,.74732.45989,1.14974,1.32218,1.14974a2.14915,2.14915,0,0,0,1.49464-.51738,1.94263,1.94263,0,0,0,.57488-1.43717v-.80479Z"/><path class="cls-19" d="M236.80228,153.41859h-8.86437v-1.86494l3.18308-3.2179q1.41388-1.44839,1.84753-2.00752a4.407,4.407,0,0,0,.62427-1.03689,2.63211,2.63211,0,0,0,.19086-.98862,1.44221,1.44221,0,0,0-.42049-1.13626,1.63183,1.63183,0,0,0-1.12334-.37276,3.2352,3.2352,0,0,0-1.431.338,7.40714,7.40714,0,0,0-1.44839.96278l-1.45737-1.72574a9.49133,9.49133,0,0,1,1.55281-1.12782,5.72574,5.72574,0,0,1,1.344-.50751,6.89746,6.89746,0,0,1,1.63084-.17739,4.82937,4.82937,0,0,1,2.099.43339,3.34837,3.34837,0,0,1,1.4136,1.21429,3.22773,3.22773,0,0,1,.503,1.78692,4.38237,4.38237,0,0,1-.30765,1.64375,6.31321,6.31321,0,0,1-.95436,1.57413,23.27247,23.27247,0,0,1-2.27646,2.29829l-1.63084,1.5354v.12126h5.52521Z"/><path class="cls-20" d="M246.87193,147.07826a8.83756,8.83756,0,0,1-1.08853,4.91779,3.77734,3.77734,0,0,1-3.352,1.596,3.73286,3.73286,0,0,1-3.30884-1.64767,8.71182,8.71182,0,0,1-1.11492-4.86614,8.92008,8.92008,0,0,1,1.08461-4.9481,4.21589,4.21589,0,0,1,6.65641.07354A8.73138,8.73138,0,0,1,246.87193,147.07826Zm-6.20167,0a9.86278,9.86278,0,0,0,.40364,3.34365,1.39681,1.39681,0,0,0,1.35744,1.01051,1.41109,1.41109,0,0,0,1.35295-1.02342,13.53941,13.53941,0,0,0-.00449-6.68279,1.40451,1.40451,0,0,0-2.70142,0A9.82968,9.82968,0,0,0,240.67026,147.07826Z"/><path class="cls-21" d="M257.08084,153.41859h-8.86436v-1.86494l3.18309-3.2179q1.41388-1.44839,1.84753-2.00752a4.407,4.407,0,0,0,.62427-1.03689,2.632,2.632,0,0,0,.19086-.98862,1.44221,1.44221,0,0,0-.42049-1.13626,1.63187,1.63187,0,0,0-1.12335-.37276,3.23514,3.23514,0,0,0-1.431.338,7.40631,7.40631,0,0,0-1.4484.96278l-1.45736-1.72574a9.49047,9.49047,0,0,1,1.55281-1.12782,5.72567,5.72567,0,0,1,1.344-.50751,6.89752,6.89752,0,0,1,1.63084-.17739,4.82937,4.82937,0,0,1,2.099.43339,3.34861,3.34861,0,0,1,1.41359,1.21429,3.22784,3.22784,0,0,1,.503,1.78692,4.38275,4.38275,0,0,1-.30764,1.64375,6.31354,6.31354,0,0,1-.95437,1.57413,23.27237,23.27237,0,0,1-2.27645,2.29829l-1.63085,1.5354v.12126h5.52521Z"/><path id="SVGID-3" class="cls-22" d="M281.27972,146.53976H354v.57488H281.27972Z"/><rect class="cls-22" x="281.27972" y="146.53976" width="72.72028" height="0.57486"/><rect class="cls-22" x="281.27972" y="146.53976" width="72.72028" height="0.57486"/><rect class="cls-3" x="281.27972" y="146.53976" width="72.72028" height="0.57486"/><g class="cls-23"><path class="cls-22" d="M281.27972,146.53976H354v.57488H281.27972Z"/></g><path class="cls-24" d="M264.80719,153.899h-2.90213v-7.94526l.02811-1.30556.04693-1.4274q-.72321.72323-1.005.94839l-1.5777,1.268-1.39948-1.74686,4.42365-3.522h2.38559Z"/></svg>