<svg id="Layer_1" data-name="Layer 1" xmlns="http://www.w3.org/2000/svg" viewBox="0 0 1000 203.8963"><defs><style>.cls-1{fill:#fff;}</style></defs><path class="cls-1" d="M275.7501,103.18325H241.69029v53.49824H231.02412V36.6117h44.55306c22.879,0,39.39289,8.77365,39.39289,33.19931C314.97007,94.58253,299.14513,103.18325,275.7501,103.18325Zm-.516-56.24985h-33.5438V93.206h33.5438c15.6534,0,29.0712-4.29967,29.0712-23.395C304.30529,50.89,290.716,46.9334,275.23409,46.9334Z"/><path class="cls-1" d="M407.85163,121.11023l-40.75427-.03659-13.4178,35.60785H342.15429L388.25539,36.6117h12.38576l46.10111,120.06979H435.38852l-40.94094-107.684-23.73811,62.615,33.54505.0366Z"/><path class="cls-1" d="M543.59276,101.29073c3.78365,2.58008,6.87975,6.88114,9.46121,11.18219l26.83421,44.20857H567.33087L541.87178,113.848c-3.61211-6.02065-7.74024-11.69682-16.51389-11.69682h-18.7495v54.53027H495.94222V36.6117h41.28542c22.53453,0,38.704,9.63275,38.704,33.02777C575.93159,87.7014,564.75079,98.71066,543.59276,101.29073Zm-6.36512-54.18579H506.60839V92.51847h30.61925c15.48186,0,27.86762-5.16154,27.86762-22.879C565.09526,51.74908,552.365,47.10494,537.22764,47.10494Z"/><path class="cls-1" d="M673.64258,158.22953c-24.084,0-40.94094-8.94519-46.274-31.13525l10.3217-1.89251c4.29967,17.54591,20.126,22.879,35.95233,22.879,14.62137,0,31.65128-7.56869,31.65128-24.94306,0-35.78077-73.79718-14.79429-73.79718-57.11034,0-21.158,19.09535-30.61923,38.53241-30.61923,19.26689,0,32.85623,6.7082,41.457,23.39363l-9.46122,4.301c-6.87975-13.07332-17.373-17.54592-31.99574-17.54592-11.86837,0-27.6947,4.64414-27.6947,20.47047,0,31.13525,73.7958,11.69682,73.7958,57.11034C716.13019,146.0167,695.31663,158.22953,673.64258,158.22953Z"/><path class="cls-1" d="M847.38359,156.68149H770.49031V36.6117h76.89328V47.10494h-66.2271v42.489h57.79792v9.97722H781.15649v46.61711h66.2271Z"/><path class="cls-1" d="M980.53228,139.48c-10.83772,12.55731-19.95446,18.74949-37.32884,18.74949-35.60786,0-48.68118-29.75874-48.68118-61.58294,0-31.99573,12.90178-61.58294,48.68118-61.58294,16.68682,0,26.664,6.02065,37.15729,18.23348l-7.74162,7.2256c-8.08471-9.28966-15.82495-14.79429-29.41567-14.79429-30.27477,0-37.84347,27.18005-37.84347,50.91815s7.5687,50.91816,37.84347,50.91816c13.59072,0,21.50251-5.67756,29.5886-15.13738Z"/><path class="cls-1" d="M159.53235,21.21529H63.41754a6.61459,6.61459,0,1,0,0,3.83808h93.23625V129.58858l-18.90636,15.6052a6.59542,6.59542,0,0,0-10.03832,4.27845,6.61678,6.61678,0,0,0,12.87922,3.00876,6.55187,6.55187,0,0,0-.3368-4.376l19.89162-16.41826a.95956.95956,0,0,0,.34872-.74V22.17481A.95952.95952,0,0,0,159.53235,21.21529Zm-102.411,4.69546a2.776,2.776,0,1,1,2.77549-2.77642A2.77932,2.77932,0,0,1,57.12139,25.91075Zm77.08113,127.62272A2.77549,2.77549,0,1,1,136.978,150.758,2.77932,2.77932,0,0,1,134.20252,153.53347Z"/><path class="cls-1" d="M92.32753,161.34269,69.43609,142.44992a6.366,6.366,0,0,0,.31823-5.14763,6.60686,6.60686,0,1,0-8.27137,8.49057,6.40806,6.40806,0,0,0,5.30521-.55047l24.92859,20.57373a.95952.95952,0,0,0,1.22154,0l52.2236-43.10422a.95952.95952,0,0,0,.34873-.74V44.73407a6.61365,6.61365,0,1,0-3.83808,0v75.87962ZM60.76269,139.51736a2.776,2.776,0,1,1,2.77643,2.77549A2.77854,2.77854,0,0,1,60.76269,139.51736ZM140.81609,38.437a2.77643,2.77643,0,1,1,2.77549,2.77642A2.77833,2.77833,0,0,1,140.81609,38.437Z"/><path class="cls-1" d="M54.12383,52.78012V112.997a.95951.95951,0,0,0,.34873.74l31.75349,26.2086a6.6977,6.6977,0,0,0-.11788,4.84194,6.43494,6.43494,0,0,0,4.10695,3.99008A6.62706,6.62706,0,1,0,88.673,136.98726L57.96191,111.6388V55.65868h68.73124v50.43548a6.61365,6.61365,0,1,0,3.83808,0v-53.314a.95952.95952,0,0,0-.95952-.95952H55.08335A.95952.95952,0,0,0,54.12383,52.78012ZM92.32753,139.716a2.77643,2.77643,0,1,1-2.77642,2.77736A2.77994,2.77994,0,0,1,92.32753,139.716Zm39.06015-27.32571a2.77549,2.77549,0,1,1-2.77549-2.77548A2.77773,2.77773,0,0,1,131.38768,112.3903Z"/><path class="cls-1" d="M42.64358,127.94805a6.5968,6.5968,0,0,0,.338-12.72533V40.356h59.65867a6.61365,6.61365,0,1,0,0-3.83808H40.103a.95952.95952,0,0,0-.95952.95952v77.74525a6.60092,6.60092,0,0,0,3.50007,12.72533ZM108.93641,35.6615a2.776,2.776,0,1,1-2.77549,2.77549A2.77833,2.77833,0,0,1,108.93641,35.6615ZM41.06255,118.74338a2.77549,2.77549,0,1,1-2.77643,2.77548A2.77832,2.77832,0,0,1,41.06255,118.74338Z"/><path class="cls-1" d="M116.18217,157.52622a6.463,6.463,0,0,0-4.14174,3.93914,6.63767,6.63767,0,0,0,.07556,4.88307L92.32753,182.68264,28.00127,129.58858V29.43141a6.61459,6.61459,0,1,0-3.83808,0V130.94674a.95954.95954,0,0,0,.34873.74L91.71673,187.156a.95952.95952,0,0,0,1.22159,0L114.545,169.32163a6.61984,6.61984,0,1,0,1.63716-11.79541ZM23.3058,23.13433a2.77643,2.77643,0,1,1,2.77643,2.77642A2.77914,2.77914,0,0,1,23.3058,23.13433Zm94.92034,143.4726a2.77549,2.77549,0,1,1,2.77736-2.77548A2.77773,2.77773,0,0,1,118.22614,166.60693Z"/></svg>