<svg width="728" height="149" viewBox="0 0 728 149" fill="none" xmlns="http://www.w3.org/2000/svg">
<path d="M191.924 125.258C185.394 125.258 180.103 123.233 176.052 119.182C172.084 115.049 170.1 109.676 170.1 103.062V99.8383C170.1 99.0116 170.514 98.5983 171.34 98.5983H180.516C181.343 98.5983 181.756 99.0116 181.756 99.8383V102.442C181.756 106.245 182.707 109.304 184.608 111.618C186.51 113.85 188.948 114.966 191.924 114.966C194.9 114.966 197.339 113.892 199.24 111.742C201.224 109.51 202.216 106.617 202.216 103.062C202.216 100.665 201.679 98.557 200.604 96.7383C199.612 94.9196 198.248 93.3076 196.512 91.9023C194.859 90.4143 192.131 88.265 188.328 85.4543C184.112 82.313 180.806 79.6263 178.408 77.3943C176.011 75.1623 173.986 72.4756 172.332 69.3343C170.679 66.193 169.852 62.5143 169.852 58.2983C169.852 51.6023 171.836 46.3116 175.804 42.4263C179.772 38.4583 184.939 36.4743 191.304 36.4743C197.918 36.4743 203.208 38.5823 207.176 42.7983C211.227 47.0143 213.252 52.553 213.252 59.4143V62.5143C213.252 63.341 212.839 63.7543 212.012 63.7543H202.836C202.01 63.7543 201.596 63.341 201.596 62.5143V59.1663C201.596 55.4463 200.646 52.4703 198.744 50.2383C196.843 47.9236 194.363 46.7663 191.304 46.7663C188.411 46.7663 186.055 47.7996 184.236 49.8663C182.418 51.8503 181.508 54.661 181.508 58.2983C181.508 61.605 182.418 64.4156 184.236 66.7303C186.055 68.9623 189.568 71.9796 194.776 75.7823C199.736 79.5023 203.456 82.5196 205.936 84.8343C208.499 87.149 210.442 89.7116 211.764 92.5223C213.17 95.2503 213.872 98.5156 213.872 102.318C213.872 109.262 211.847 114.842 207.796 119.058C203.746 123.192 198.455 125.258 191.924 125.258ZM245.837 125.258C239.141 125.258 233.726 123.233 229.593 119.182C225.542 115.049 223.517 109.593 223.517 102.814V58.7943C223.517 52.0156 225.542 46.601 229.593 42.5503C233.726 38.4996 239.141 36.4743 245.837 36.4743C252.616 36.4743 258.03 38.4996 262.081 42.5503C266.214 46.601 268.281 52.0156 268.281 58.7943V60.7783C268.281 61.605 267.868 62.0183 267.041 62.0183L257.617 62.5143C256.79 62.5143 256.377 62.101 256.377 61.2743V58.0503C256.377 54.661 255.385 51.933 253.401 49.8663C251.5 47.7996 248.978 46.7663 245.837 46.7663C242.696 46.7663 240.174 47.7996 238.273 49.8663C236.372 51.933 235.421 54.661 235.421 58.0503V103.682C235.421 107.072 236.372 109.8 238.273 111.866C240.174 113.933 242.696 114.966 245.837 114.966C248.978 114.966 251.5 113.933 253.401 111.866C255.385 109.8 256.377 107.072 256.377 103.682V100.458C256.377 99.6316 256.79 99.2183 257.617 99.2183L267.041 99.7143C267.868 99.7143 268.281 100.128 268.281 100.954V102.814C268.281 109.593 266.214 115.049 262.081 119.182C258.03 123.233 252.616 125.258 245.837 125.258ZM312.32 38.7063C312.32 37.8796 312.733 37.4663 313.56 37.4663H322.984C323.81 37.4663 324.224 37.8796 324.224 38.7063V123.026C324.224 123.853 323.81 124.266 322.984 124.266H313.56C312.733 124.266 312.32 123.853 312.32 123.026V86.4463C312.32 86.1156 312.154 85.9503 311.824 85.9503H293.1C292.769 85.9503 292.604 86.1156 292.604 86.4463V123.026C292.604 123.853 292.19 124.266 291.364 124.266H281.94C281.113 124.266 280.7 123.853 280.7 123.026V38.7063C280.7 37.8796 281.113 37.4663 281.94 37.4663H291.364C292.19 37.4663 292.604 37.8796 292.604 38.7063V75.1623C292.604 75.493 292.769 75.6583 293.1 75.6583H311.824C312.154 75.6583 312.32 75.493 312.32 75.1623V38.7063ZM379.745 46.5183C379.745 47.345 379.331 47.7583 378.505 47.7583H350.605C350.274 47.7583 350.109 47.9236 350.109 48.2543V75.1623C350.109 75.493 350.274 75.6583 350.605 75.6583H367.717C368.543 75.6583 368.957 76.0716 368.957 76.8983V84.7103C368.957 85.537 368.543 85.9503 367.717 85.9503H350.605C350.274 85.9503 350.109 86.1156 350.109 86.4463V113.478C350.109 113.809 350.274 113.974 350.605 113.974H378.505C379.331 113.974 379.745 114.388 379.745 115.214V123.026C379.745 123.853 379.331 124.266 378.505 124.266H339.445C338.618 124.266 338.205 123.853 338.205 123.026V38.7063C338.205 37.8796 338.618 37.4663 339.445 37.4663H378.505C379.331 37.4663 379.745 37.8796 379.745 38.7063V46.5183ZM429.672 38.3343C430.003 37.7556 430.499 37.4663 431.16 37.4663H440.584C441.411 37.4663 441.824 37.8796 441.824 38.7063V123.026C441.824 123.853 441.411 124.266 440.584 124.266H431.16C430.333 124.266 429.92 123.853 429.92 123.026V61.5223C429.92 61.2743 429.837 61.1503 429.672 61.1503C429.589 61.1503 429.465 61.233 429.3 61.3983L417.396 83.5943C417.148 84.173 416.776 84.4623 416.28 84.4623C415.784 84.4623 415.412 84.173 415.164 83.5943L403.384 61.5223C403.219 61.357 403.053 61.2743 402.888 61.2743C402.805 61.2743 402.764 61.3983 402.764 61.6463V123.026C402.764 123.853 402.351 124.266 401.524 124.266H392.1C391.273 124.266 390.86 123.853 390.86 123.026V38.7063C390.86 37.8796 391.273 37.4663 392.1 37.4663H401.524C402.103 37.4663 402.599 37.7556 403.012 38.3343L416.032 61.6463C416.115 61.729 416.239 61.7703 416.404 61.7703C416.569 61.7703 416.693 61.729 416.776 61.6463L429.672 38.3343ZM490.218 124.266C489.474 124.266 489.019 123.894 488.854 123.15L486.126 108.89C486.126 108.725 486.043 108.601 485.878 108.518C485.795 108.436 485.671 108.394 485.506 108.394H465.294C465.129 108.394 464.963 108.436 464.798 108.518C464.715 108.601 464.674 108.725 464.674 108.89L462.07 123.15C461.987 123.894 461.533 124.266 460.706 124.266H451.282C450.869 124.266 450.538 124.142 450.29 123.894C450.125 123.646 450.083 123.316 450.166 122.902L468.642 38.5823C468.807 37.8383 469.262 37.4663 470.006 37.4663H481.042C481.869 37.4663 482.323 37.8383 482.406 38.5823L501.006 122.902V123.15C501.006 123.894 500.634 124.266 499.89 124.266H490.218ZM466.782 98.4743C466.782 98.805 466.906 98.9703 467.154 98.9703H483.646C483.894 98.9703 484.018 98.805 484.018 98.4743L475.586 54.4543C475.503 54.289 475.421 54.2063 475.338 54.2063C475.255 54.2063 475.173 54.289 475.09 54.4543L466.782 98.4743ZM541.25 38.7063C541.25 37.8796 541.663 37.4663 542.49 37.4663H551.914C552.74 37.4663 553.154 37.8796 553.154 38.7063V123.026C553.154 123.853 552.74 124.266 551.914 124.266H542.49C541.663 124.266 541.25 123.853 541.25 123.026V86.4463C541.25 86.1156 541.084 85.9503 540.754 85.9503H522.03C521.699 85.9503 521.534 86.1156 521.534 86.4463V123.026C521.534 123.853 521.12 124.266 520.294 124.266H510.87C510.043 124.266 509.63 123.853 509.63 123.026V38.7063C509.63 37.8796 510.043 37.4663 510.87 37.4663H520.294C521.12 37.4663 521.534 37.8796 521.534 38.7063V75.1623C521.534 75.493 521.699 75.6583 522.03 75.6583H540.754C541.084 75.6583 541.25 75.493 541.25 75.1623V38.7063ZM608.675 46.5183C608.675 47.345 608.261 47.7583 607.435 47.7583H579.535C579.204 47.7583 579.039 47.9236 579.039 48.2543V75.1623C579.039 75.493 579.204 75.6583 579.535 75.6583H596.647C597.473 75.6583 597.887 76.0716 597.887 76.8983V84.7103C597.887 85.537 597.473 85.9503 596.647 85.9503H579.535C579.204 85.9503 579.039 86.1156 579.039 86.4463V113.478C579.039 113.809 579.204 113.974 579.535 113.974H607.435C608.261 113.974 608.675 114.388 608.675 115.214V123.026C608.675 123.853 608.261 124.266 607.435 124.266H568.375C567.548 124.266 567.135 123.853 567.135 123.026V38.7063C567.135 37.8796 567.548 37.4663 568.375 37.4663H607.435C608.261 37.4663 608.675 37.8796 608.675 38.7063V46.5183ZM654.51 124.266C653.766 124.266 653.27 123.936 653.022 123.274L641.614 86.3223C641.531 86.0743 641.366 85.9503 641.118 85.9503H632.438C632.107 85.9503 631.942 86.1156 631.942 86.4463V123.026C631.942 123.853 631.529 124.266 630.702 124.266H621.278C620.451 124.266 620.038 123.853 620.038 123.026V38.7063C620.038 37.8796 620.451 37.4663 621.278 37.4663H643.474C647.69 37.4663 651.41 38.4996 654.634 40.5663C657.858 42.633 660.338 45.5676 662.074 49.3703C663.893 53.0903 664.802 57.3476 664.802 62.1423C664.802 67.3503 663.727 71.897 661.578 75.7823C659.429 79.585 656.494 82.3543 652.774 84.0903C652.526 84.3383 652.443 84.5863 652.526 84.8343L665.174 122.902L665.298 123.398C665.298 123.977 664.926 124.266 664.182 124.266H654.51ZM632.438 47.7583C632.107 47.7583 631.942 47.9236 631.942 48.2543V76.0303C631.942 76.361 632.107 76.5263 632.438 76.5263H641.614C645.003 76.5263 647.731 75.245 649.798 72.6823C651.865 70.037 652.898 66.565 652.898 62.2663C652.898 57.8023 651.865 54.289 649.798 51.7263C647.731 49.081 645.003 47.7583 641.614 47.7583H632.438ZM696.438 125.258C689.659 125.258 684.203 123.192 680.07 119.058C675.936 114.925 673.87 109.428 673.87 102.566V59.2903C673.87 52.429 675.936 46.9316 680.07 42.7983C684.203 38.5823 689.659 36.4743 696.438 36.4743C703.299 36.4743 708.796 38.5823 712.93 42.7983C717.146 46.9316 719.254 52.429 719.254 59.2903V102.566C719.254 109.428 717.146 114.925 712.93 119.058C708.796 123.192 703.299 125.258 696.438 125.258ZM696.438 114.966C699.744 114.966 702.39 113.892 704.374 111.742C706.358 109.51 707.35 106.617 707.35 103.062V58.6703C707.35 55.1156 706.358 52.2636 704.374 50.1143C702.39 47.8823 699.744 46.7663 696.438 46.7663C693.214 46.7663 690.61 47.8823 688.626 50.1143C686.724 52.2636 685.774 55.1156 685.774 58.6703V103.062C685.774 106.617 686.724 109.51 688.626 111.742C690.61 113.892 693.214 114.966 696.438 114.966Z" fill="black"/>
<path fill-rule="evenodd" clip-rule="evenodd" d="M63.435 19.1766C62.7644 18.8396 61.974 18.8396 61.3034 19.1766L17.3337 41.2803C16.7002 41.5988 16.2423 42.1838 16.0855 42.8752L5.39108 90.0224C5.23191 90.7241 5.39983 91.4601 5.8476 92.0234L35.9601 129.902C36.4103 130.469 37.0941 130.799 37.8175 130.799H86.9209C87.6443 130.799 88.3281 130.469 88.7783 129.902L118.891 92.0234C119.339 91.4601 119.506 90.7241 119.347 90.0224L108.653 42.8752C108.496 42.1838 108.038 41.5988 107.405 41.2803L63.435 19.1766ZM59.1719 14.9375C61.1835 13.9262 63.5549 13.9262 65.5665 14.9375L109.536 37.0412C111.437 37.9965 112.81 39.7516 113.281 41.8257L123.975 88.973C124.453 91.078 123.949 93.286 122.606 94.9758L92.493 132.855C91.1427 134.554 89.091 135.543 86.9209 135.543H37.8175C35.6474 135.543 33.5957 134.554 32.2454 132.855L2.13284 94.9758C0.789545 93.286 0.285783 91.078 0.763279 88.973L11.4577 41.8257C11.9282 39.7516 13.3017 37.9965 15.2021 37.0412L59.1719 14.9375Z" fill="black"/>
<path fill-rule="evenodd" clip-rule="evenodd" d="M64.997 16.7646L80.0533 87.6611L12.6995 43.7597L15.2909 39.7848L73.0267 77.4172L60.3552 17.7502L64.997 16.7646Z" fill="black"/>
<path fill-rule="evenodd" clip-rule="evenodd" d="M119.036 93.1083L75.9681 84.2246L76.8718 79.5729L119.94 88.4566L119.036 93.1083Z" fill="black"/>
<path fill-rule="evenodd" clip-rule="evenodd" d="M78.1648 83.3982L38.0165 132.606L34.3395 129.607L74.4878 80.3989L78.1648 83.3982Z" fill="black"/>
<path fill-rule="evenodd" clip-rule="evenodd" d="M33.8755 131.482L11.6926 42.3451L16.2975 41.1993L38.4804 130.336L33.8755 131.482Z" fill="black"/>
<path fill-rule="evenodd" clip-rule="evenodd" d="M117.02 95.3351L42.6763 131.482L40.9169 127.567L115.261 91.4202L117.02 95.3351Z" fill="black"/>
<path d="M85.0723 80.3991C85.0723 85.4949 80.9408 89.6259 75.8444 89.6259C70.748 89.6259 66.6166 85.4949 66.6166 80.3991C66.6166 75.3033 70.748 71.1724 75.8444 71.1724C80.9408 71.1724 85.0723 75.3033 85.0723 80.3991Z" fill="black"/>
<path d="M126.356 91.42C126.356 94.8948 123.539 97.7116 120.064 97.7116C116.588 97.7116 113.771 94.8948 113.771 91.42C113.771 87.9452 116.588 85.1283 120.064 85.1283C123.539 85.1283 126.356 87.9452 126.356 91.42Z" fill="black"/>
<path d="M44.4227 130.134C44.4227 134.393 40.969 137.847 36.7087 137.847C32.4483 137.847 28.9946 134.393 28.9946 130.134C28.9946 125.874 32.4483 122.42 36.7087 122.42C40.969 122.42 44.4227 125.874 44.4227 130.134Z" fill="black"/>
<path d="M19.9727 41.7722C19.9727 45.0731 17.2964 47.7491 13.9951 47.7491C10.6937 47.7491 8.01746 45.0731 8.01746 41.7722C8.01746 38.4712 10.6937 35.7952 13.9951 35.7952C17.2964 35.7952 19.9727 38.4712 19.9727 41.7722Z" fill="black"/>
<path d="M67.9811 16.7645C67.9811 19.8636 65.4686 22.3759 62.3692 22.3759C59.2698 22.3759 56.7572 19.8636 56.7572 16.7645C56.7572 13.6655 59.2698 11.1532 62.3692 11.1532C65.4686 11.1532 67.9811 13.6655 67.9811 16.7645Z" fill="black"/>
</svg>
