<svg width="720" height="127" viewBox="0 0 720 127" fill="none" xmlns="http://www.w3.org/2000/svg">
<path d="M191.924 114.258C185.394 114.258 180.103 112.233 176.052 108.182C172.084 104.049 170.1 98.6756 170.1 92.0623V88.8383C170.1 88.0116 170.514 87.5983 171.34 87.5983H180.516C181.343 87.5983 181.756 88.0116 181.756 88.8383V91.4423C181.756 95.245 182.707 98.3036 184.608 100.618C186.51 102.85 188.948 103.966 191.924 103.966C194.9 103.966 197.339 102.892 199.24 100.742C201.224 98.5103 202.216 95.617 202.216 92.0623C202.216 89.665 201.679 87.557 200.604 85.7383C199.612 83.9196 198.248 82.3076 196.512 80.9023C194.859 79.4143 192.131 77.265 188.328 74.4543C184.112 71.313 180.806 68.6263 178.408 66.3943C176.011 64.1623 173.986 61.4756 172.332 58.3343C170.679 55.193 169.852 51.5143 169.852 47.2983C169.852 40.6023 171.836 35.3116 175.804 31.4263C179.772 27.4583 184.939 25.4743 191.304 25.4743C197.918 25.4743 203.208 27.5823 207.176 31.7983C211.227 36.0143 213.252 41.553 213.252 48.4143V51.5143C213.252 52.341 212.839 52.7543 212.012 52.7543H202.836C202.01 52.7543 201.596 52.341 201.596 51.5143V48.1663C201.596 44.4463 200.646 41.4703 198.744 39.2383C196.843 36.9236 194.363 35.7663 191.304 35.7663C188.411 35.7663 186.055 36.7996 184.236 38.8663C182.418 40.8503 181.508 43.661 181.508 47.2983C181.508 50.605 182.418 53.4156 184.236 55.7303C186.055 57.9623 189.568 60.9796 194.776 64.7823C199.736 68.5023 203.456 71.5196 205.936 73.8343C208.499 76.149 210.442 78.7116 211.764 81.5223C213.17 84.2503 213.872 87.5156 213.872 91.3183C213.872 98.2623 211.847 103.842 207.796 108.058C203.746 112.192 198.455 114.258 191.924 114.258Z" fill="black"/>
<path d="M245.837 114.258C239.141 114.258 233.727 112.233 229.593 108.182C225.543 104.049 223.517 98.593 223.517 91.8143V47.7943C223.517 41.0156 225.543 35.601 229.593 31.5503C233.727 27.4996 239.141 25.4743 245.837 25.4743C252.616 25.4743 258.031 27.4996 262.081 31.5503C266.215 35.601 268.281 41.0156 268.281 47.7943V49.7783C268.281 50.605 267.868 51.0183 267.041 51.0183L257.617 51.5143C256.791 51.5143 256.377 51.101 256.377 50.2743V47.0503C256.377 43.661 255.385 40.933 253.401 38.8663C251.5 36.7996 248.979 35.7663 245.837 35.7663C242.696 35.7663 240.175 36.7996 238.273 38.8663C236.372 40.933 235.421 43.661 235.421 47.0503V92.6823C235.421 96.0716 236.372 98.7996 238.273 100.866C240.175 102.933 242.696 103.966 245.837 103.966C248.979 103.966 251.5 102.933 253.401 100.866C255.385 98.7996 256.377 96.0716 256.377 92.6823V89.4583C256.377 88.6316 256.791 88.2183 257.617 88.2183L267.041 88.7143C267.868 88.7143 268.281 89.1276 268.281 89.9543V91.8143C268.281 98.593 266.215 104.049 262.081 108.182C258.031 112.233 252.616 114.258 245.837 114.258Z" fill="black"/>
<path d="M312.32 27.7063C312.32 26.8796 312.733 26.4663 313.56 26.4663H322.984C323.81 26.4663 324.224 26.8796 324.224 27.7063V112.026C324.224 112.853 323.81 113.266 322.984 113.266H313.56C312.733 113.266 312.32 112.853 312.32 112.026V75.4463C312.32 75.1156 312.154 74.9503 311.824 74.9503H293.1C292.769 74.9503 292.604 75.1156 292.604 75.4463V112.026C292.604 112.853 292.19 113.266 291.364 113.266H281.94C281.113 113.266 280.7 112.853 280.7 112.026V27.7063C280.7 26.8796 281.113 26.4663 281.94 26.4663H291.364C292.19 26.4663 292.604 26.8796 292.604 27.7063V64.1623C292.604 64.493 292.769 64.6583 293.1 64.6583H311.824C312.154 64.6583 312.32 64.493 312.32 64.1623V27.7063Z" fill="black"/>
<path d="M379.745 35.5183C379.745 36.345 379.331 36.7583 378.505 36.7583H350.605C350.274 36.7583 350.109 36.9236 350.109 37.2543V64.1623C350.109 64.493 350.274 64.6583 350.605 64.6583H367.717C368.543 64.6583 368.957 65.0716 368.957 65.8983V73.7103C368.957 74.537 368.543 74.9503 367.717 74.9503H350.605C350.274 74.9503 350.109 75.1156 350.109 75.4463V102.478C350.109 102.809 350.274 102.974 350.605 102.974H378.505C379.331 102.974 379.745 103.388 379.745 104.214V112.026C379.745 112.853 379.331 113.266 378.505 113.266H339.445C338.618 113.266 338.205 112.853 338.205 112.026V27.7063C338.205 26.8796 338.618 26.4663 339.445 26.4663H378.505C379.331 26.4663 379.745 26.8796 379.745 27.7063V35.5183Z" fill="black"/>
<path d="M429.672 27.3343C430.003 26.7556 430.499 26.4663 431.16 26.4663H440.584C441.411 26.4663 441.824 26.8796 441.824 27.7063V112.026C441.824 112.853 441.411 113.266 440.584 113.266H431.16C430.333 113.266 429.92 112.853 429.92 112.026V50.5223C429.92 50.2743 429.837 50.1503 429.672 50.1503C429.589 50.1503 429.465 50.233 429.3 50.3983L417.396 72.5943C417.148 73.173 416.776 73.4623 416.28 73.4623C415.784 73.4623 415.412 73.173 415.164 72.5943L403.384 50.5223C403.219 50.357 403.053 50.2743 402.888 50.2743C402.805 50.2743 402.764 50.3983 402.764 50.6463V112.026C402.764 112.853 402.351 113.266 401.524 113.266H392.1C391.273 113.266 390.86 112.853 390.86 112.026V27.7063C390.86 26.8796 391.273 26.4663 392.1 26.4663H401.524C402.103 26.4663 402.599 26.7556 403.012 27.3343L416.032 50.6463C416.115 50.729 416.239 50.7703 416.404 50.7703C416.569 50.7703 416.693 50.729 416.776 50.6463L429.672 27.3343Z" fill="black"/>
<path d="M490.218 113.266C489.474 113.266 489.019 112.894 488.854 112.15L486.126 97.8903C486.126 97.725 486.043 97.601 485.878 97.5183C485.795 97.4356 485.671 97.3943 485.506 97.3943H465.294C465.129 97.3943 464.963 97.4356 464.798 97.5183C464.715 97.601 464.674 97.725 464.674 97.8903L462.07 112.15C461.987 112.894 461.533 113.266 460.706 113.266H451.282C450.869 113.266 450.538 113.142 450.29 112.894C450.125 112.646 450.083 112.316 450.166 111.902L468.642 27.5823C468.807 26.8383 469.262 26.4663 470.006 26.4663H481.042C481.869 26.4663 482.323 26.8383 482.406 27.5823L501.006 111.902V112.15C501.006 112.894 500.634 113.266 499.89 113.266H490.218ZM466.782 87.4743C466.782 87.805 466.906 87.9703 467.154 87.9703H483.646C483.894 87.9703 484.018 87.805 484.018 87.4743L475.586 43.4543C475.503 43.289 475.421 43.2063 475.338 43.2063C475.255 43.2063 475.173 43.289 475.09 43.4543L466.782 87.4743Z" fill="black"/>
<path d="M541.25 27.7063C541.25 26.8796 541.663 26.4663 542.49 26.4663H551.914C552.74 26.4663 553.154 26.8796 553.154 27.7063V112.026C553.154 112.853 552.74 113.266 551.914 113.266H542.49C541.663 113.266 541.25 112.853 541.25 112.026V75.4463C541.25 75.1156 541.084 74.9503 540.754 74.9503H522.03C521.699 74.9503 521.534 75.1156 521.534 75.4463V112.026C521.534 112.853 521.12 113.266 520.294 113.266H510.87C510.043 113.266 509.63 112.853 509.63 112.026V27.7063C509.63 26.8796 510.043 26.4663 510.87 26.4663H520.294C521.12 26.4663 521.534 26.8796 521.534 27.7063V64.1623C521.534 64.493 521.699 64.6583 522.03 64.6583H540.754C541.084 64.6583 541.25 64.493 541.25 64.1623V27.7063Z" fill="black"/>
<path d="M608.675 35.5183C608.675 36.345 608.261 36.7583 607.435 36.7583H579.535C579.204 36.7583 579.039 36.9236 579.039 37.2543V64.1623C579.039 64.493 579.204 64.6583 579.535 64.6583H596.647C597.473 64.6583 597.887 65.0716 597.887 65.8983V73.7103C597.887 74.537 597.473 74.9503 596.647 74.9503H579.535C579.204 74.9503 579.039 75.1156 579.039 75.4463V102.478C579.039 102.809 579.204 102.974 579.535 102.974H607.435C608.261 102.974 608.675 103.388 608.675 104.214V112.026C608.675 112.853 608.261 113.266 607.435 113.266H568.375C567.548 113.266 567.135 112.853 567.135 112.026V27.7063C567.135 26.8796 567.548 26.4663 568.375 26.4663H607.435C608.261 26.4663 608.675 26.8796 608.675 27.7063V35.5183Z" fill="black"/>
<path d="M654.51 113.266C653.766 113.266 653.27 112.936 653.022 112.274L641.614 75.3223C641.532 75.0743 641.366 74.9503 641.118 74.9503H632.438C632.108 74.9503 631.942 75.1156 631.942 75.4463V112.026C631.942 112.853 631.529 113.266 630.702 113.266H621.278C620.452 113.266 620.038 112.853 620.038 112.026V27.7063C620.038 26.8796 620.452 26.4663 621.278 26.4663H643.474C647.69 26.4663 651.41 27.4996 654.634 29.5663C657.858 31.633 660.338 34.5676 662.074 38.3703C663.893 42.0903 664.802 46.3476 664.802 51.1423C664.802 56.3503 663.728 60.897 661.578 64.7823C659.429 68.585 656.494 71.3543 652.774 73.0903C652.526 73.3383 652.444 73.5863 652.526 73.8343L665.174 111.902L665.298 112.398C665.298 112.977 664.926 113.266 664.182 113.266H654.51ZM632.438 36.7583C632.108 36.7583 631.942 36.9236 631.942 37.2543V65.0303C631.942 65.361 632.108 65.5263 632.438 65.5263H641.614C645.004 65.5263 647.732 64.245 649.798 61.6823C651.865 59.037 652.898 55.565 652.898 51.2663C652.898 46.8023 651.865 43.289 649.798 40.7263C647.732 38.081 645.004 36.7583 641.614 36.7583H632.438Z" fill="black"/>
<path d="M696.438 114.258C689.659 114.258 684.203 112.192 680.07 108.058C675.936 103.925 673.87 98.4276 673.87 91.5663V48.2903C673.87 41.429 675.936 35.9316 680.07 31.7983C684.203 27.5823 689.659 25.4743 696.438 25.4743C703.299 25.4743 708.796 27.5823 712.93 31.7983C717.146 35.9316 719.254 41.429 719.254 48.2903V91.5663C719.254 98.4276 717.146 103.925 712.93 108.058C708.796 112.192 703.299 114.258 696.438 114.258ZM696.438 103.966C699.744 103.966 702.39 102.892 704.374 100.742C706.358 98.5103 707.35 95.617 707.35 92.0623V47.6703C707.35 44.1156 706.358 41.2636 704.374 39.1143C702.39 36.8823 699.744 35.7663 696.438 35.7663C693.214 35.7663 690.61 36.8823 688.626 39.1143C686.724 41.2636 685.774 44.1156 685.774 47.6703V92.0623C685.774 95.617 686.724 98.5103 688.626 100.742C690.61 102.892 693.214 103.966 696.438 103.966Z" fill="black"/>
<path fill-rule="evenodd" clip-rule="evenodd" d="M63.435 8.17663C62.7644 7.83955 61.974 7.83955 61.3034 8.17663L17.3337 30.2803C16.7002 30.5988 16.2423 31.1838 16.0855 31.8752L5.39108 79.0224C5.23191 79.7241 5.39983 80.4601 5.8476 81.0234L35.9601 118.902C36.4103 119.469 37.0941 119.799 37.8175 119.799H86.9209C87.6443 119.799 88.3281 119.469 88.7783 118.902L118.891 81.0234C119.339 80.4601 119.506 79.7241 119.347 79.0224L108.653 31.8752C108.496 31.1838 108.038 30.5988 107.405 30.2803L63.435 8.17663ZM59.1719 3.93746C61.1835 2.92624 63.5549 2.92624 65.5665 3.93746L109.536 26.0412C111.437 26.9965 112.81 28.7516 113.281 30.8257L123.975 77.973C124.453 80.078 123.949 82.286 122.606 83.9758L92.493 121.855C91.1427 123.554 89.091 124.543 86.9209 124.543H37.8175C35.6474 124.543 33.5957 123.554 32.2454 121.855L2.13284 83.9758C0.789545 82.286 0.285783 80.078 0.763279 77.973L11.4577 30.8257C11.9282 28.7516 13.3017 26.9965 15.2021 26.0412L59.1719 3.93746Z" fill="black"/>
<path fill-rule="evenodd" clip-rule="evenodd" d="M64.997 5.76462L80.0533 76.6611L12.6995 32.7597L15.2909 28.7848L73.0267 66.4172L60.3552 6.75017L64.997 5.76462Z" fill="black"/>
<path fill-rule="evenodd" clip-rule="evenodd" d="M119.036 82.1083L75.9681 73.2246L76.8718 68.5729L119.94 77.4566L119.036 82.1083Z" fill="black"/>
<path fill-rule="evenodd" clip-rule="evenodd" d="M78.1648 72.3982L38.0165 121.606L34.3395 118.607L74.4878 69.3989L78.1648 72.3982Z" fill="black"/>
<path fill-rule="evenodd" clip-rule="evenodd" d="M33.8755 120.482L11.6926 31.3451L16.2975 30.1993L38.4804 119.336L33.8755 120.482Z" fill="black"/>
<path fill-rule="evenodd" clip-rule="evenodd" d="M117.02 84.3351L42.6763 120.482L40.9169 116.567L115.261 80.4202L117.02 84.3351Z" fill="black"/>
<path d="M85.0723 69.3991C85.0723 74.4949 80.9408 78.6259 75.8444 78.6259C70.748 78.6259 66.6166 74.4949 66.6166 69.3991C66.6166 64.3033 70.748 60.1724 75.8444 60.1724C80.9408 60.1724 85.0723 64.3033 85.0723 69.3991Z" fill="black"/>
<path d="M126.356 80.42C126.356 83.8948 123.539 86.7116 120.064 86.7116C116.588 86.7116 113.771 83.8948 113.771 80.42C113.771 76.9452 116.588 74.1283 120.064 74.1283C123.539 74.1283 126.356 76.9452 126.356 80.42Z" fill="black"/>
<path d="M44.4227 119.134C44.4227 123.393 40.969 126.847 36.7087 126.847C32.4483 126.847 28.9946 123.393 28.9946 119.134C28.9946 114.874 32.4483 111.42 36.7087 111.42C40.969 111.42 44.4227 114.874 44.4227 119.134Z" fill="black"/>
<path d="M19.9727 30.7722C19.9727 34.0731 17.2964 36.7491 13.9951 36.7491C10.6937 36.7491 8.01746 34.0731 8.01746 30.7722C8.01746 27.4712 10.6937 24.7952 13.9951 24.7952C17.2964 24.7952 19.9727 27.4712 19.9727 30.7722Z" fill="black"/>
<path d="M67.9811 5.76454C67.9811 8.86358 65.4686 11.3759 62.3692 11.3759C59.2698 11.3759 56.7572 8.86358 56.7572 5.76454C56.7572 2.6655 59.2698 0.153229 62.3692 0.153229C65.4686 0.153229 67.9811 2.6655 67.9811 5.76454Z" fill="black"/>
</svg>
