<svg xmlns="http://www.w3.org/2000/svg" role="img" viewBox="12.86 83.86 1463.28 579.28"><path fill="#1c1c2c" fill-rule="evenodd" d="M277 114.951c0 10.098-4.438 18.191-12.125 22.113-9.569 4.881-26.524 6.72-32.669 3.542-4.394-2.272-10.153-8.236-11.831-12.251-.771-1.845-2.118-3.355-2.993-3.355s-7.437 2.303-14.583 5.117l-12.992 5.116.577 3.134c.318 1.723.85 6.283 1.184 10.133.569 6.563.422 7.286-2.346 11.573-5.331 8.254-18.58 17.108-27.632 18.466-5.875.881-13.041-1.521-18.512-6.204-5.249-4.494-5.292-4.476-18.87 7.63l-10.291 9.176 3.044 3.467c4.266 4.859 6.193 9.971 6.218 16.498.025 6.614-1.515 10.002-8.459 18.61-10.246 12.702-19.294 15.916-31.618 11.231-2.969-1.128-5.735-1.69-6.147-1.249C75.593 239.155 64 261.642 64 262.826c0 .639 3.107 4.214 6.905 7.944 6.065 5.958 6.993 7.364 7.621 11.554 1.819 12.13-6.687 33.152-15.012 37.102-1.824.866-5.723 1.581-8.665 1.589-10.703.029-12.93 3.648-13.189 21.431l-.16 10.945 3.168.662c5.47 1.141 12.332 5.877 15.301 10.559 5.133 8.094 6.496 25.553 2.703 34.629-1.78 4.261-9.273 10.18-15.84 12.512-3.327 1.182-4.832 2.272-4.832 3.499 0 1.736 4.509 23.506 5.592 26.998.463 1.492 1.832 1.75 9.275 1.75 7.713 0 9.202.304 12.748 2.604 7.216 4.678 14.357 18.167 15.941 30.108.857 6.457-.933 10.54-7.981 18.206-5.55 6.037-5.587 6.118-4.238 9.336 1.038 2.475 12.678 21.06 14.098 22.509.142.145 2.914-.923 6.161-2.372 11.998-5.356 19.828-3.106 31.089 8.932 11.403 12.189 13.521 21.335 7.437 32.116-1.717 3.042-3.122 5.984-3.122 6.538 0 1.026 19.284 16.811 21.642 17.716.711.273 4.722-1.798 8.914-4.602 4.191-2.803 8.733-5.376 10.092-5.718 6.761-1.696 18.601 2.559 28.796 10.349 7.215 5.514 8.348 8.042 9.149 20.42l.686 10.618 11.611 3.622c6.385 1.992 12.51 3.617 13.61 3.611 1.343-.007 3.271-1.983 5.865-6.01 7.537-11.698 12.636-13.931 27.635-12.104 16.332 1.99 24.278 7.591 27.834 19.621l1.773 6 15.197.276 15.196.276v-3.083c0-15.244 12.052-25.433 31.588-26.704 12.86-.837 17.551 1.391 24.036 11.419 1.844 2.851 3.763 5.437 4.264 5.747.501.309 6.752-1.781 13.893-4.646l12.982-5.208-.523-10.241c-.633-12.408.132-14.647 7.216-21.122 9.98-9.121 23.5-14.38 31.46-12.237 2 .539 6.149 3.219 9.22 5.957l5.585 4.977 10.888-10.311 10.889-10.311-19.682-19.89-19.682-19.89-2.509 1.996c-1.38 1.097-6.697 5.406-11.817 9.575-57.353 46.705-129.865 60.517-198.308 37.773-8.456-2.81-34.399-15.506-44.461-21.759-68.21-42.387-105.221-123.415-93.452-204.594 8.45-58.281 43.661-112.171 93.39-142.932 18.755-11.601 42.419-22.107 59.523-26.425 22.057-5.569 57.18-7.702 77.464-4.705 38.77 5.729 71.23 19.665 103.265 44.337 8.248 6.352 9.972 7.303 11.277 6.22 1.589-1.319 22.97-30.189 27.972-37.77 2.313-3.505 2.634-4.683 1.787-6.544-.836-1.833-11.813-11.734-19.32-17.424-1.277-.967-2.53-.363-7 3.376-10.278 8.597-17.386 9.689-28.677 4.405-10.091-4.722-17.109-10.423-19.509-15.85-1.715-3.876-1.943-5.921-1.472-13.192l.558-8.605-12.93-4.267c-7.112-2.347-13.668-4.123-14.57-3.946-.901.177-3.26 3.001-5.242 6.276-2.08 3.438-5.444 7.242-7.957 9-4.233 2.961-4.645 3.041-14.774 2.86-19.987-.357-28.18-5.237-32.36-19.275L307.915 112H277v2.951m4.068 75.135c-23.144 2.996-57.58 15.22-76.568 27.181-35.408 22.304-62.815 56.957-76.903 97.233-8.191 23.418-10.132 37.222-9.277 65.975.872 29.311 5.247 48.253 16.686 72.243 25.31 53.079 73.413 91.027 130.147 102.669 19.063 3.912 44.103 4.748 62.759 2.097 35.805-5.089 72.385-22.347 98.198-46.327l8.05-7.479-19.321-19.339C404.213 473.703 395.18 465 394.766 465c-.415 0-6.079 3.972-12.588 8.826-13.57 10.122-29.258 18.486-43.678 23.287l-10 3.33-26 .029c-25.969.028-26.01.025-34.5-2.823-24.227-8.128-40.12-17.647-55.721-33.375-17.726-17.871-29.096-39.137-34.902-65.274-2.464-11.092-2.449-38.58.028-50.5 5.032-24.217 15.229-43.585 32.52-61.769 20.908-21.988 47.654-35.904 74.575-38.803 17.041-1.834 39.806-.707 51 2.526 11.969 3.457 35.105 14.899 45.077 22.292l8.028 5.953 9.553-10.6c5.254-5.829 13.75-15.255 18.88-20.945l9.328-10.347-3.933-3.422c-14.185-12.34-42.762-27.845-64.933-35.231-15.399-5.129-25.213-6.906-45-8.145-17.968-1.125-22.224-1.115-31.432.077M716 296.444v38.444l-9.989-6.333c-5.494-3.484-12.86-7.483-16.368-8.887-20.146-8.065-45.062-7.231-64.442 2.157-22.912 11.098-40.933 32.334-46.824 55.175-2.154 8.352-2.484 34.005-.54 42 .735 3.025 3.739 10.481 6.676 16.569 8.502 17.627 21.971 30.669 40.643 39.354 12.666 5.89 21.238 7.422 38.195 6.824 19.578-.689 30.2-4.229 45.649-15.211l6.5-4.62.289 8.542.289 8.542H749V258h-33v38.444m126.729 18.534c-20.444 3.696-40.89 16.052-52.519 31.739-7.172 9.674-13.784 23.999-15.807 34.246-2.013 10.199-1.443 31.173 1.099 40.39 7.282 26.408 28.532 48.15 55.741 57.031 19.024 6.211 39.151 5.535 58.959-1.98 11.559-4.385 30.491-17.934 34.8-24.907 2.172-3.514 2.18-3.64.359-5.699-1.023-1.158-6.043-5.222-11.154-9.032l-9.292-6.928-6.708 5.741c-7.875 6.741-15.308 11.661-21.363 14.141-3.457 1.417-7.22 1.78-18.436 1.78h-14.092l-7.823-3.971c-9.907-5.028-18.493-13.497-24.299-23.966-4.948-8.922-5.103-11.75-.694-12.688 1.65-.351 30.407-.692 63.904-.757l60.905-.118-.622-12.25c-1.06-20.864-3.896-31.752-11.685-44.864-10.49-17.657-27.922-30.623-48.114-35.787-8.824-2.256-26.246-3.371-33.159-2.121m181.564.53c-7.832 1.702-17.01 6.081-25.043 11.949l-6.25 4.566V318h-34v161h34l.053-41.25c.069-53.435.772-65.57 4.185-72.25 4.282-8.379 12.554-15.648 20.943-18.401 5.254-1.725 21.076-1.507 26.722.369 6.071 2.016 11.052 6.209 16.583 13.96l4.478 6.276 1.008 37.398c.555 20.569 1.013 45.61 1.018 55.648L1068 479h33.32l-.644-56.75c-.707-62.308-.871-64.109-6.914-75.657-4.781-9.136-17.395-21.367-26.762-25.95-12.883-6.303-28.625-8.196-42.707-5.135m171.436-.541c-28.946 5.297-53.609 24.943-65.363 52.066-4.319 9.968-5.588 18.84-5.174 36.198.323 13.58.512 14.712 3.907 23.445 5.055 13.002 9.186 19.425 18.901 29.386 9.461 9.701 17.435 15.267 28.426 19.843 12.163 5.063 17.697 6.095 32.696 6.095 16.466 0 26.192-1.692 36.062-6.275 12.857-5.97 32.816-22.779 32.816-27.637 0-1.825-6.921-7.712-18.833-16.018l-3.332-2.324-4.168 3.988c-6.309 6.037-14.555 11.86-21.199 14.971-5.613 2.629-6.774 2.795-19.52 2.795h-13.552l-7.873-3.891c-5.781-2.857-9.911-5.914-15.538-11.5-8.621-8.559-12.197-14.892-14.471-25.626-1.864-8.802-1.865-14.153-.003-22.983 5.285-25.061 26.865-42.5 52.594-42.5 13.964 0 24.554 4.705 36.578 16.251 5.097 4.894 6.663 5.884 8.154 5.154 3.677-1.803 23.088-15.929 23.125-16.828.021-.508-4.35-5.234-9.712-10.501-8.083-7.94-11.487-10.478-19.907-14.844-5.587-2.897-13.687-6.181-18-7.298-8.843-2.291-28.944-3.371-36.614-1.967m160.318.171c-15.021 2.49-31.447 10.631-42.727 21.175-11.343 10.603-18.249 21.434-23.404 36.708-3.063 9.076-3.2 10.16-3.228 25.479-.027 14.785.175 16.592 2.649 23.793 8.773 25.532 22.074 40.853 44.904 51.723 30.342 14.447 67.092 9.885 93.082-11.553 5.663-4.67 13.647-13.736 13.619-15.463-.007-.432-8.449-6.853-19.558-14.876l-3.29-2.377-6.294 5.696c-7.934 7.18-13.579 10.926-20.695 13.733-4.773 1.883-7.608 2.219-19.105 2.262-12.692.047-13.889-.12-20-2.788-3.575-1.561-8.525-4.392-11-6.293-8.395-6.445-18.509-20.971-20.532-29.486l-.624-2.629 64.578-.745 64.578-.745-.017-5.126c-.027-7.921-1.847-23.426-3.595-30.626-3.657-15.066-13.733-30.537-26.495-40.683-13.745-10.927-24.875-15.527-41.749-17.256-11.688-1.197-13.449-1.191-21.097.077m-885.315.843c-3.722.472-9.797 1.817-13.5 2.99-9.605 3.042-24.364 10.514-27.749 14.047l-2.885 3.011 2.782 5.736c2.881 5.941 10.509 18.235 11.313 18.235.251 0 3.536-1.829 7.299-4.064 12.28-7.296 15.762-8.235 32.324-8.722 17.951-.527 21.384.434 28.055 7.854 4.752 5.286 6.041 9.055 7.195 21.038l.636 6.605-9.851.683c-20.55 1.423-43.177 3.727-51.746 5.268-16.808 3.022-29.487 11.571-36.271 24.455-2.747 5.217-2.834 5.844-2.834 20.383 0 13.844.187 15.385 2.429 20 3.441 7.083 16.454 19.901 23.202 22.855 25.46 11.144 51.783 6.96 72.861-11.582 4.053-3.565 4.591-3.779 5.5-2.192 2.682 4.685 8.335 9.701 14.173 12.575 5.998 2.953 7.354 3.207 19.392 3.642l12.943.467v-28.986l-4.797-.569c-5.782-.684-9.84-2.41-10.808-4.595-.393-.888-1.083-19.961-1.532-42.383-.896-44.685-1.307-48.069-7.197-59.232-6.009-11.388-19.032-21.88-32.369-26.077-5.766-1.815-28.817-2.676-38.565-1.442M653 345.035c-18.826 3.344-35.836 19.095-42.045 38.933-5.456 17.431-.09 38.031 13.601 52.217 26.416 27.372 69.33 20.087 86.564-14.696l4.38-8.84-.008-14.211-.009-14.211-4.364-8.606c-11.303-22.292-34.901-34.711-58.119-30.586m705.999.062c-8.635.936-16.516 5.226-24.499 13.335-6.989 7.1-14.236 19.209-13.165 21.999.271.706 1.938 1.574 3.704 1.927 1.766.353 22.766.642 46.665.642h43.455l-.703-3.25c-2.006-9.279-11.244-21.491-21.189-28.01-3.722-2.439-7.667-4.797-8.767-5.239-2.971-1.195-19.195-2.089-25.501-1.404m-521.186 1.781c-2.577 1.034-6.28 2.865-8.227 4.069-5.8 3.584-14.417 13.964-18.704 22.529l-4.015 8.021 2.317.652c2.603.732 92.816 1.11 92.816.389 0-.255-.96-3.067-2.133-6.25-4.298-11.662-13.734-22.224-25.036-28.026-4.925-2.528-6.36-2.757-18.831-3.001-11.306-.221-14.262.042-18.187 1.617M488 410.589c-18.054 1.677-26.436 3.079-30.41 5.085-10.138 5.118-14.232 16.025-9.694 25.826 8.379 18.098 39.978 19.097 57.485 1.817 7.038-6.947 9.655-13.227 10.347-24.834l.566-9.483-6.897.121c-3.793.067-13.422.727-21.397 1.468"/></svg>