<svg version="1.1" viewBox="0.0 0.0 480.0 480.0" fill="none" stroke="none" stroke-linecap="square" stroke-miterlimit="10" xmlns:xlink="http://www.w3.org/1999/xlink" xmlns="http://www.w3.org/2000/svg"><clipPath id="p.0"><path d="m0 0l480.0 0l0 480.0l-480.0 0l0 -480.0z" clip-rule="nonzero"/></clipPath><g clip-path="url(#p.0)"><path fill="#000000" fill-opacity="0.0" d="m0 0l480.0 0l0 480.0l-480.0 0z" fill-rule="evenodd"/><path fill="#FFFFFF" d="m201.00525 41.879265l0 162.99213l-44.44095 0l0 -162.99213z" fill-rule="evenodd"/><path fill="#FFFFFF" d="m279.3071 173.91864l0 145.00787l-78.61418 0l0 -145.00787z" fill-rule="evenodd"/><path fill="#000000" fill-opacity="0.0" d="m249.3412 248.0l187.46458 0l0 116.346466l-187.46458 0z" fill-rule="evenodd"/><path fill="#FFFFFF" d="m320.2109 338.28436q-1.203125 -0.484375 -2.453125 -1.046875q-1.234375 -0.5625 -2.3125 -1.640625q-1.078125 -1.078125 -1.875 -3.0q-0.796875 -2.3125 -1.078125 -4.546875q-0.28125 -2.25 -0.203125 -5.203125q0 -4.171875 0.59375 -7.25q0.609375 -3.078125 1.890625 -6.28125q0.15625 -0.234375 0.59375 -1.390625q0.4375 -1.171875 1.03125 -2.53125q0.609375 -1.359375 0.921875 -2.078125q0.640625 -1.359375 1.953125 -3.640625q1.328125 -2.28125 2.859375 -4.4375q2.3125 -3.4375 3.828125 -5.4375q1.53125 -2.0 2.890625 -3.359375q1.359375 -1.359375 3.078125 -2.59375q1.71875 -1.25 4.4375 -3.09375q1.765625 -1.265625 3.875 -1.34375q2.125 -0.09375 3.953125 0.90625q1.84375 1.0 2.734375 2.921875q0.875 1.6875 0.875 4.046875q0 2.359375 -0.71875 4.96875q-0.71875 2.59375 -2.0 4.921875q-1.28125 2.3125 -2.953125 3.828125q-1.046875 0.953125 -1.890625 0.71875q-0.84375 -0.234375 -1.953125 -1.28125q-0.71875 -1.359375 -0.765625 -1.59375q-0.03125 -0.25 0.28125 -0.328125q0.484375 -0.5625 1.28125 -1.921875q0.796875 -1.359375 1.59375 -2.921875q0.8125 -1.5625 1.125 -2.515625q0.640625 -3.359375 0.875 -4.75q0.25 -1.40625 -0.46875 -2.125q-0.328125 -0.328125 -0.9375 -0.25q-0.59375 0.078125 -1.953125 0.8125q-1.828125 0.796875 -4.796875 3.5625q-2.953125 2.75 -5.4375 6.109375q-3.203125 4.234375 -5.359375 7.515625q-2.15625 3.28125 -3.28125 6.71875q-0.15625 0.328125 -0.515625 1.21875q-0.359375 0.875 -0.359375 0.875q0.078125 0.3125 -0.25 1.5625q-0.3125 1.234375 -0.71875 2.109375q-0.875 3.6875 -1.046875 7.640625q-0.15625 3.953125 0.4375 7.0q0.609375 3.046875 1.8125 4.234375q1.046875 0.71875 2.84375 0.484375q1.796875 -0.234375 4.109375 -1.109375q2.328125 -0.890625 4.734375 -1.921875q1.90625 -0.8125 3.5 -1.765625q1.609375 -0.96875 2.40625 -1.6875q0.640625 -0.46875 1.640625 -0.984375q1.0 -0.53125 1.734375 -0.53125q1.109375 -0.390625 1.265625 -0.3125q0.171875 0.078125 0.171875 0.71875q0 1.109375 -1.25 2.46875q-1.234375 1.359375 -3.15625 2.484375q-0.640625 0.640625 -1.6875 1.359375q-1.03125 0.71875 -2.15625 1.125q-1.671875 1.28125 -4.15625 2.46875q-2.484375 1.203125 -5.0 1.84375q-2.515625 0.640625 -4.59375 0.25zm34.150574 -5.6875q-1.03125 0 -1.640625 -0.390625q-0.59375 -0.40625 -1.46875 -1.125q-1.53125 -1.59375 -2.171875 -3.078125q-0.640625 -1.484375 -0.390625 -2.84375q0.234375 -0.640625 0.1875 -1.234375q-0.03125 -0.609375 -0.03125 -0.609375q-0.40625 -0.390625 -0.25 -0.515625q0.171875 -0.125 0.328125 -0.4375q0.484375 0 0.328125 -0.875q-0.171875 -0.640625 0.625 -2.796875q0.8125 -2.171875 2.015625 -4.09375q0.46875 -0.796875 1.421875 -2.109375q0.96875 -1.328125 2.125 -2.640625q1.171875 -1.328125 2.125 -2.125q2.0 -1.6875 3.515625 -2.484375q1.53125 -0.796875 3.28125 -1.203125q1.765625 -0.390625 2.4375 -0.390625q0.6875 0 1.890625 1.28125q1.84375 0.796875 2.671875 1.921875q0.84375 1.109375 1.078125 3.265625q0.25 2.40625 -0.359375 5.484375q-0.59375 3.078125 -3.796875 7.640625q-2.0 2.875 -3.6875 4.28125q-1.671875 1.40625 -3.984375 2.765625q-1.6875 1.109375 -3.046875 1.640625q-1.359375 0.515625 -3.203125 0.671875zm7.6875 -8.484375q1.921875 -2.15625 3.078125 -4.078125q1.15625 -1.921875 2.203125 -4.875q0.3125 -0.875 0.390625 -2.1875q0.078125 -1.328125 -0.046875 -2.484375q-0.109375 -1.171875 -0.59375 -1.328125q-0.953125 -0.5625 -2.3125 -0.359375q-1.359375 0.203125 -2.96875 1.5625q-2.46875 2.078125 -4.3125 5.15625q-1.84375 3.078125 -3.59375 7.0q-1.203125 2.875 -0.53125 4.609375q0.6875 1.71875 2.96875 1.203125q2.28125 -0.53125 5.71875 -4.21875zm35.98999 11.203125q-1.03125 0.25 -1.71875 -0.28125q-0.671875 -0.515625 -1.0 -1.46875q-0.640625 -1.84375 -0.921875 -4.046875q-0.265625 -2.203125 -0.109375 -3.875l0.15625 -1.6875l-3.125 2.484375q-2.71875 2.40625 -5.234375 3.453125q-2.515625 1.03125 -4.4375 1.03125q-0.875 -0.171875 -1.765625 -0.640625q-0.875 -0.484375 -1.5625 -1.203125q-0.671875 -0.71875 -1.078125 -1.515625q-0.46875 -1.125 -0.28125 -3.046875q0.203125 -1.921875 0.953125 -4.203125q0.765625 -2.28125 1.921875 -4.46875q1.171875 -2.203125 2.6875 -3.890625q2.640625 -4.0 5.671875 -4.875q3.046875 -0.875 6.015625 0.875q2.078125 0.890625 2.59375 0.8125q0.515625 -0.09375 0.921875 -1.84375q0.3125 -1.28125 0.625 -2.59375q0.328125 -1.328125 1.046875 -3.578125q2.0 -6.078125 3.484375 -9.515625q1.484375 -3.4375 2.6875 -6.0q0.875 -1.84375 1.46875 -2.28125q0.609375 -0.4375 1.25 -0.359375q0.875 0 1.59375 0.640625q0.71875 0.640625 1.125 1.765625q0.3125 0.71875 0.265625 1.234375q-0.03125 0.515625 -0.5 1.40625q-1.046875 1.921875 -2.453125 5.078125q-1.390625 3.15625 -2.796875 6.921875q-1.390625 3.75 -2.59375 7.4375q-1.203125 3.671875 -2.0 6.484375q-0.484375 1.75 -0.84375 4.46875q-0.359375 2.71875 -0.609375 5.5625q-0.234375 2.84375 -0.28125 5.046875q-0.03125 2.203125 0.125 2.84375q0.484375 1.59375 0.4375 2.390625q-0.03125 0.796875 -0.4375 1.078125q-0.390625 0.28125 -1.28125 0.359375zm-13.515625 -8.875q1.125 -0.234375 2.203125 -0.875q1.078125 -0.640625 2.28125 -1.53125q2.390625 -1.828125 4.15625 -3.34375q1.765625 -1.53125 2.328125 -4.65625q0.15625 -1.515625 -0.28125 -2.4375q-0.4375 -0.921875 -1.40625 -1.71875q-0.953125 -0.640625 -2.59375 -0.515625q-1.640625 0.125 -3.40625 1.71875q-1.921875 1.765625 -3.71875 4.71875q-1.796875 2.953125 -2.6875 7.28125q-0.15625 0.796875 0.484375 1.28125q0.640625 0.484375 2.640625 0.078125zm22.721222 26.640625q-1.765625 0.3125 -2.40625 0.078125q-0.625 -0.234375 -1.75 -0.796875q-0.875 -0.640625 -1.359375 -0.96875q-0.484375 -0.3125 -0.484375 -0.640625q0 -0.234375 0.15625 -0.515625q0.171875 -0.28125 0.609375 -0.484375q0.4375 -0.1875 1.234375 -0.1875q0.5625 0.3125 1.875 0.3125q1.328125 0 1.640625 -0.3125q0 0 0.765625 -0.453125q0.765625 -0.4375 2.046875 -0.671875q2.46875 -1.203125 4.390625 -3.046875q1.921875 -1.828125 3.6875 -4.796875q0.71875 -1.109375 1.515625 -2.59375q0.796875 -1.484375 1.125 -2.921875q0.640625 -1.59375 1.46875 -4.3125q0.84375 -2.734375 1.484375 -5.40625q0.640625 -2.6875 0.71875 -4.046875q0.484375 -4.46875 1.5625 -8.265625q1.078125 -3.8125 1.875 -8.53125q0.484375 -1.125 0.71875 -1.3125q0.25 -0.203125 1.046875 -0.203125q0.875 0 1.3125 0.125q0.453125 0.109375 1.0 0.984375q0.8125 1.53125 0.609375 3.578125q-0.203125 2.03125 -1.25 3.546875q-0.796875 1.125 -1.40625 3.484375q-0.59375 2.359375 -1.140625 5.875q-0.40625 1.765625 -0.84375 4.125q-0.4375 2.359375 -0.921875 5.234375q-0.3125 0.796875 -0.875 2.4375q-0.5625 1.640625 -0.71875 2.609375q-0.09375 0.3125 -0.5 1.265625q-0.390625 0.96875 -0.796875 1.890625q-0.390625 0.921875 -0.546875 1.234375q-3.125 6.484375 -7.125 9.921875q-4.0 3.4375 -8.71875 3.765625zm6.078125 -23.203125q-0.875 0 -1.796875 -0.953125q-0.921875 -0.96875 -1.234375 -1.53125q-0.328125 -0.796875 -0.8125 -1.515625q-0.46875 -0.71875 -0.671875 -1.75q-0.203125 -1.046875 0.125 -2.5625q0.3125 -1.046875 0.90625 -3.0q0.609375 -1.96875 1.359375 -4.28125q0.765625 -2.328125 1.609375 -4.609375q0.84375 -2.28125 1.5625 -4.078125q0.71875 -1.796875 1.28125 -2.59375q0.46875 -0.640625 1.0625 -0.796875q0.609375 -0.171875 1.25 0.109375q0.640625 0.28125 1.125 1.078125q0.875 1.125 0.71875 1.921875q-0.15625 0.796875 -1.4375 3.125q-0.328125 0.875 -0.8125 1.875q-0.46875 1.0 -0.46875 1.328125q-0.078125 0.15625 -0.28125 1.078125q-0.203125 0.921875 -0.453125 1.71875q-0.234375 0.796875 -0.46875 0.796875q-0.3125 0.328125 -0.71875 1.8125q-0.40625 1.46875 -0.734375 3.265625q-0.3125 1.796875 -0.390625 3.125q-0.078125 1.3125 0.25 1.3125q2.46875 0 5.140625 -1.90625q2.6875 -1.921875 5.40625 -5.609375l1.375 5.6875q-1.125 0.5625 -2.09375 1.15625q-0.953125 0.59375 -1.75 1.40625q-0.25 0.3125 -1.125 0.875q-0.875 0.5625 -1.71875 1.0q-0.84375 0.4375 -1.078125 0.4375q0 0 -0.203125 0.046875q-0.203125 0.03125 -0.203125 0.359375q0 0.15625 -1.046875 0.59375q-1.03125 0.4375 -2.15625 0.765625q-1.109375 0.3125 -1.515625 0.3125z" fill-rule="nonzero"/><path fill="#FFFFFF" d="m40.59055 362.6509l78.61418 0l0 81.82678l-78.61418 0z" fill-rule="evenodd"/><path fill="#FFFFFF" d="m363.24933 362.6509l78.6142 0l0 81.82678l-78.6142 0z" fill-rule="evenodd"/><path fill="#FFFFFF" d="m148.14348 362.6509l78.61418 0l0 81.82678l-78.61418 0z" fill-rule="evenodd"/><path fill="#FFFFFF" d="m255.69641 362.6509l78.61417 0l0 81.82678l-78.61417 0z" fill-rule="evenodd"/><path fill="#FFFFFF" d="m38.013123 41.879265l162.99213 0l0 78.614174l-162.99213 0z" fill-rule="evenodd"/><path fill="#FFFFFF" d="m323.31235 41.879265l0 162.99213l-44.44095 0l0 -162.99213z" fill-rule="evenodd"/><path fill="#000000" fill-opacity="0.0" d="m13.530184 151.71916l441.98425 0l0 156.7559l-441.98425 0z" fill-rule="evenodd"/><path fill="#FFFFFF" d="m99.75357 271.12854q-15.4375 0 -26.84375 -5.984375q-11.40625 -5.984375 -17.625 -17.09375q-6.203125 -11.109375 -6.203125 -26.28125q0 -10.890625 3.25 -19.34375q3.25 -8.46875 9.0 -14.3125q5.765625 -5.859375 13.234375 -8.84375q7.46875 -2.984375 15.84375 -2.984375q8.765625 0 15.28125 2.828125q6.515625 2.8125 8.734375 5.625l2.203125 -6.84375l18.265625 0l0 40.15625l-23.65625 0q-0.484375 -11.671875 -3.734375 -15.1875q-3.25 -3.515625 -8.515625 -3.515625q-3.921875 0 -7.328125 2.21875q-3.40625 2.203125 -5.578125 6.953125q-2.15625 4.734375 -2.15625 12.359375q0 11.125 5.65625 16.890625q5.65625 5.75 16.09375 5.75q6.296875 0 12.296875 -2.109375q6.015625 -2.109375 12.03125 -7.203125l3.5625 1.5625l0 25.40625q-7.421875 5.4375 -16.421875 7.703125q-8.984375 2.25 -17.390625 2.25zm78.57132 -0.609375q-10.8125 0 -18.796875 -3.90625q-7.96875 -3.921875 -12.296875 -11.21875q-4.3125 -7.296875 -4.3125 -17.25q0 -10.0 4.3125 -17.28125q4.328125 -7.296875 12.296875 -11.234375q7.984375 -3.953125 18.796875 -3.953125q10.8125 0 18.78125 3.953125q7.984375 3.9375 12.296875 11.234375q4.328125 7.28125 4.328125 17.28125q0 9.953125 -4.328125 17.25q-4.3125 7.296875 -12.296875 11.21875q-7.96875 3.90625 -18.78125 3.90625zm0 -19.640625q5.703125 0 5.703125 -12.78125q0 -12.796875 -5.703125 -12.796875q-5.703125 0 -5.703125 12.796875q0 12.78125 5.703125 12.78125z" fill-rule="nonzero"/><path fill="#FFFFFF" d="m220.16658 269.51917l0 -22.375l8.75 0l0 -45.828125l-8.75 0l0 -22.359375l47.42189 0l0 22.359375l-7.390625 0l0 11.8125l19.46875 0l0 -11.8125l-7.375 0l0 -22.359375l47.40625 0l0 22.359375l-8.75 0l0 45.828125l8.75 0l0 22.375l-47.40625 0l0 -22.375l7.375 0l0 -12.578125l-19.46875 0l0 12.578125l7.390625 0l0 22.375l-47.42189 0z" fill-rule="nonzero"/><path fill="#FFFFFF" d="m326.18222 269.51917l0 -22.625l8.859375 0l0 -46.375l-8.859375 0l0 -22.625l41.9375 0q25.1875 0 38.515625 11.75q13.328125 11.734375 13.328125 34.171875q0 22.375 -13.28125 34.046875q-13.265625 11.65625 -38.609375 11.65625l-41.890625 0zm41.15625 -22.0625l1.28125 0q8.84375 0 12.609375 -5.296875q3.78125 -5.296875 3.78125 -18.515625q0 -13.15625 -3.78125 -18.421875q-3.765625 -5.265625 -12.609375 -5.265625l-1.28125 0l0 47.5z" fill-rule="nonzero"/><path fill="#FFFFFF" d="m208.95844 405.51917l0 -22.625l9.40625 0l0 -46.375l-9.40625 0l0 -22.625l51.125 0l0 22.625l-9.40625 0l0 46.375l9.40625 0l0 22.625l-51.125 0z" fill-rule="nonzero"/><path fill="#FFFFFF" d="m278.8714 41.879265l162.99213 0l0 78.614174l-162.99213 0z" fill-rule="evenodd"/></g></svg>