<svg width="389" height="422" viewBox="0 0 389 422" fill="none" xmlns="http://www.w3.org/2000/svg">
<path d="M194.722 4.55959L93.3894 62.4643C91.7277 63.4139 90.7021 65.1811 90.7021 67.095V188.756C90.7021 190.668 91.7256 192.433 93.3846 193.384L194.718 251.427C198.273 253.463 202.702 250.896 202.702 246.799V221.929L110.537 184.13C107.409 182.847 105.366 179.801 105.366 176.42V77.9162C105.366 74.5285 107.417 71.4779 110.554 70.1992L202.702 32.6402V9.19021C202.702 5.09515 198.278 2.52787 194.722 4.55959Z" fill="white" style="fill:white;fill-opacity:1;"/>
<path d="M202.702 35.8798L111.686 72.9773C109.679 73.7957 108.366 75.748 108.366 77.9162V176.42C108.366 178.584 109.674 180.534 111.676 181.355L202.702 218.687V197.751L136.614 177.686C133.103 176.62 130.702 173.382 130.702 169.712V84.6301C130.702 80.9535 133.112 77.7113 136.632 76.6509L202.702 56.7503V35.8798Z" fill="white" style="fill:white;fill-opacity:1;"/>
<path d="M202.702 72.3045V59.8835L137.497 79.5234C135.244 80.2021 133.702 82.2771 133.702 84.6301V169.712C133.702 172.061 135.239 174.133 137.486 174.815L202.702 194.616V182.129L169.126 174.224C165.362 173.338 162.702 169.979 162.702 166.112V88.2363C162.702 84.3622 165.372 80.9991 169.145 80.1202L202.702 72.3045Z" fill="white" style="fill:white;fill-opacity:1;"/>
<path d="M202.702 75.3848L169.826 83.042C167.411 83.6045 165.702 85.7569 165.702 88.2363V166.112C165.702 168.587 167.404 170.737 169.813 171.304L202.702 179.047V75.3848Z" fill="white" style="fill:white;fill-opacity:1;"/>
<path d="M279.702 197.177L290.813 199.792C294.161 200.581 297.368 198.041 297.368 194.601V60.0542C297.368 56.6199 294.17 54.0809 290.825 54.8599L279.702 57.4506V197.177Z" fill="white" style="fill:white;fill-opacity:1;"/>
<path d="M247.702 208.279L265.152 213.577C268.578 214.617 272.035 212.054 272.035 208.474V198.453L247.702 192.724V208.279Z" fill="white" style="fill:white;fill-opacity:1;"/>
<path d="M247.702 189.642V64.9038L272.035 59.2364V195.371L247.702 189.642Z" fill="white" style="fill:white;fill-opacity:1;"/>
<path d="M247.702 61.8235V46.3292L265.164 41.0697C268.587 40.0387 272.035 42.6014 272.035 46.1765V56.1561L247.702 61.8235Z" fill="white" style="fill:white;fill-opacity:1;"/>
<path d="M210.702 221.968L232.675 230.98C236.185 232.419 240.033 229.839 240.033 226.046V209.085L210.702 200.18V221.968Z" fill="white" style="fill:white;fill-opacity:1;"/>
<path d="M210.702 197.045L240.033 205.95V190.919L210.702 184.013V197.045Z" fill="white" style="fill:white;fill-opacity:1;"/>
<path d="M210.702 70.4412V57.4738L240.033 48.6394V63.6098L210.702 70.4412Z" fill="white" style="fill:white;fill-opacity:1;"/>
<path d="M210.702 180.931V73.5215L240.033 66.6901V187.837L210.702 180.931Z" fill="white" style="fill:white;fill-opacity:1;"/>
<path d="M210.702 54.3407V32.619L232.686 23.6584C236.194 22.2287 240.033 24.8092 240.033 28.5973V45.5062L210.702 54.3407Z" fill="white" style="fill:white;fill-opacity:1;"/>
<path d="M0 308.854H16.7361C18.5356 308.854 20.001 309.291 21.1322 310.165C22.2633 311.039 23.1117 312.17 23.6773 313.558L49.8997 381.582C50.7737 383.793 51.5964 386.235 52.3677 388.909C53.1903 391.531 53.9616 394.308 54.6814 397.238C55.864 391.326 57.3293 386.107 59.0775 381.582L85.2228 313.558C85.6855 312.376 86.5082 311.296 87.6908 310.319C88.8733 309.342 90.3387 308.854 92.0869 308.854H108.823L63.7821 420.376H45.0408L0 308.854Z" fill="white" style="fill:white;fill-opacity:1;"/>
<path d="M132.726 341.246V420.376H113.676V341.246H132.726ZM135.579 318.186C135.579 319.831 135.245 321.374 134.577 322.813C133.908 324.253 133.008 325.513 131.877 326.592C130.797 327.672 129.512 328.546 128.021 329.215C126.53 329.832 124.936 330.14 123.239 330.14C121.594 330.14 120.026 329.832 118.535 329.215C117.095 328.546 115.835 327.672 114.755 326.592C113.676 325.513 112.802 324.253 112.133 322.813C111.516 321.374 111.208 319.831 111.208 318.186C111.208 316.489 111.516 314.895 112.133 313.404C112.802 311.913 113.676 310.627 114.755 309.548C115.835 308.468 117.095 307.62 118.535 307.003C120.026 306.334 121.594 306 123.239 306C124.936 306 126.53 306.334 128.021 307.003C129.512 307.62 130.797 308.468 131.877 309.548C133.008 310.627 133.908 311.913 134.577 313.404C135.245 314.895 135.579 316.489 135.579 318.186Z" fill="white" style="fill:white;fill-opacity:1;"/>
<path d="M173.368 421.61C166.529 421.61 161.259 419.682 157.557 415.826C153.855 411.918 152.004 406.545 152.004 399.706V355.514H143.983C142.955 355.514 142.055 355.18 141.284 354.511C140.564 353.843 140.204 352.84 140.204 351.504V343.945L152.93 341.863L156.94 320.268C157.146 319.24 157.609 318.443 158.329 317.877C159.1 317.312 160.051 317.029 161.182 317.029H171.054V341.94H191.878V355.514H171.054V398.395C171.054 400.863 171.671 402.791 172.905 404.18C174.139 405.568 175.784 406.262 177.841 406.262C179.024 406.262 180.001 406.134 180.772 405.876C181.594 405.568 182.289 405.259 182.854 404.951C183.471 404.642 184.011 404.36 184.474 404.103C184.937 403.794 185.399 403.64 185.862 403.64C186.428 403.64 186.89 403.794 187.25 404.103C187.61 404.36 187.996 404.771 188.407 405.337L194.114 414.592C191.338 416.905 188.15 418.653 184.551 419.836C180.952 421.019 177.224 421.61 173.368 421.61Z" fill="white" style="fill:white;fill-opacity:1;"/>
<path d="M232.788 340.012C237.775 340.012 242.351 340.809 246.516 342.403C250.732 343.997 254.357 346.336 257.39 349.421C260.424 352.455 262.789 356.208 264.486 360.681C266.183 365.103 267.031 370.168 267.031 375.875C267.031 377.315 266.954 378.523 266.8 379.5C266.697 380.425 266.465 381.171 266.105 381.736C265.797 382.251 265.36 382.636 264.794 382.893C264.229 383.099 263.509 383.202 262.635 383.202H213.738C214.303 391.326 216.489 397.29 220.293 401.095C224.098 404.9 229.137 406.802 235.41 406.802C238.495 406.802 241.143 406.442 243.354 405.722C245.616 405.002 247.57 404.205 249.215 403.331C250.912 402.457 252.377 401.66 253.611 400.94C254.897 400.221 256.131 399.861 257.313 399.861C258.084 399.861 258.753 400.015 259.318 400.323C259.884 400.632 260.372 401.069 260.784 401.635L266.337 408.576C264.229 411.044 261.864 413.126 259.241 414.823C256.619 416.468 253.868 417.805 250.989 418.833C248.161 419.81 245.256 420.504 242.274 420.916C239.343 421.327 236.49 421.533 233.713 421.533C228.212 421.533 223.096 420.633 218.365 418.833C213.635 416.982 209.522 414.283 206.025 410.735C202.529 407.136 199.778 402.714 197.773 397.47C195.768 392.174 194.765 386.055 194.765 379.114C194.765 373.715 195.639 368.651 197.387 363.921C199.135 359.139 201.629 355 204.868 351.504C208.159 347.956 212.144 345.154 216.823 343.097C221.553 341.04 226.875 340.012 232.788 340.012ZM233.173 353.663C227.62 353.663 223.276 355.231 220.139 358.368C217.003 361.504 214.997 365.952 214.123 371.71H249.909C249.909 369.242 249.575 366.928 248.907 364.769C248.238 362.558 247.21 360.63 245.822 358.985C244.433 357.339 242.685 356.054 240.577 355.128C238.469 354.152 236.001 353.663 233.173 353.663Z" fill="white" style="fill:white;fill-opacity:1;"/>
<path d="M322.511 356.671C321.997 357.494 321.457 358.085 320.892 358.445C320.326 358.753 319.606 358.908 318.732 358.908C317.807 358.908 316.804 358.65 315.724 358.136C314.696 357.622 313.488 357.057 312.099 356.44C310.711 355.771 309.117 355.18 307.318 354.666C305.57 354.152 303.487 353.894 301.071 353.894C297.317 353.894 294.361 354.691 292.201 356.285C290.042 357.879 288.962 359.962 288.962 362.532C288.962 364.229 289.502 365.669 290.582 366.851C291.713 367.983 293.178 368.985 294.978 369.859C296.829 370.733 298.911 371.53 301.225 372.25C303.539 372.919 305.904 373.664 308.32 374.487C310.737 375.309 313.102 376.261 315.416 377.34C317.73 378.369 319.786 379.705 321.586 381.351C323.437 382.945 324.902 384.873 325.982 387.135C327.113 389.397 327.679 392.123 327.679 395.31C327.679 399.115 326.984 402.637 325.596 405.876C324.208 409.064 322.177 411.841 319.503 414.206C316.83 416.52 313.513 418.345 309.554 419.682C305.647 420.967 301.148 421.61 296.058 421.61C293.332 421.61 290.659 421.353 288.037 420.839C285.466 420.376 282.972 419.707 280.555 418.833C278.19 417.959 275.979 416.931 273.923 415.748C271.918 414.566 270.144 413.28 268.601 411.892L272.997 404.642C273.563 403.768 274.231 403.1 275.002 402.637C275.774 402.174 276.751 401.943 277.933 401.943C279.116 401.943 280.221 402.277 281.25 402.946C282.329 403.614 283.563 404.334 284.952 405.105C286.34 405.876 287.959 406.596 289.81 407.265C291.713 407.933 294.104 408.267 296.983 408.267C299.245 408.267 301.173 408.01 302.767 407.496C304.413 406.93 305.75 406.211 306.778 405.337C307.858 404.463 308.629 403.46 309.092 402.329C309.606 401.146 309.863 399.938 309.863 398.704C309.863 396.853 309.297 395.336 308.166 394.154C307.086 392.971 305.621 391.943 303.77 391.069C301.97 390.194 299.888 389.423 297.523 388.755C295.209 388.035 292.818 387.264 290.35 386.441C287.934 385.618 285.543 384.667 283.178 383.587C280.864 382.456 278.782 381.042 276.931 379.346C275.131 377.649 273.666 375.566 272.534 373.098C271.455 370.63 270.915 367.648 270.915 364.152C270.915 360.913 271.558 357.828 272.843 354.897C274.128 351.966 276.005 349.421 278.473 347.262C280.992 345.051 284.103 343.303 287.805 342.017C291.559 340.68 295.878 340.012 300.762 340.012C306.212 340.012 311.174 340.912 315.647 342.711C320.12 344.511 323.848 346.876 326.83 349.807L322.511 356.671Z" fill="white" style="fill:white;fill-opacity:1;"/>
<path d="M382.904 356.671C382.389 357.494 381.849 358.085 381.284 358.445C380.718 358.753 379.999 358.908 379.124 358.908C378.199 358.908 377.196 358.65 376.117 358.136C375.088 357.622 373.88 357.057 372.492 356.44C371.103 355.771 369.51 355.18 367.71 354.666C365.962 354.152 363.879 353.894 361.463 353.894C357.709 353.894 354.753 354.691 352.594 356.285C350.434 357.879 349.354 359.962 349.354 362.532C349.354 364.229 349.894 365.669 350.974 366.851C352.105 367.983 353.57 368.985 355.37 369.859C357.221 370.733 359.303 371.53 361.617 372.25C363.931 372.919 366.296 373.664 368.713 374.487C371.129 375.309 373.494 376.261 375.808 377.34C378.122 378.369 380.178 379.705 381.978 381.351C383.829 382.945 385.294 384.873 386.374 387.135C387.505 389.397 388.071 392.123 388.071 395.31C388.071 399.115 387.377 402.637 385.988 405.876C384.6 409.064 382.569 411.841 379.896 414.206C377.222 416.52 373.906 418.345 369.947 419.682C366.039 420.967 361.54 421.61 356.45 421.61C353.725 421.61 351.051 421.353 348.429 420.839C345.858 420.376 343.364 419.707 340.948 418.833C338.583 417.959 336.372 416.931 334.315 415.748C332.31 414.566 330.536 413.28 328.993 411.892L333.389 404.642C333.955 403.768 334.623 403.1 335.395 402.637C336.166 402.174 337.143 401.943 338.325 401.943C339.508 401.943 340.613 402.277 341.642 402.946C342.722 403.614 343.956 404.334 345.344 405.105C346.732 405.876 348.352 406.596 350.203 407.265C352.105 407.933 354.496 408.267 357.375 408.267C359.638 408.267 361.566 408.01 363.16 407.496C364.805 406.93 366.142 406.211 367.17 405.337C368.25 404.463 369.021 403.46 369.484 402.329C369.998 401.146 370.255 399.938 370.255 398.704C370.255 396.853 369.689 395.336 368.558 394.154C367.479 392.971 366.013 391.943 364.162 391.069C362.363 390.194 360.28 389.423 357.915 388.755C355.601 388.035 353.211 387.264 350.743 386.441C348.326 385.618 345.935 384.667 343.57 383.587C341.256 382.456 339.174 381.042 337.323 379.346C335.523 377.649 334.058 375.566 332.927 373.098C331.847 370.63 331.307 367.648 331.307 364.152C331.307 360.913 331.95 357.828 333.235 354.897C334.521 351.966 336.397 349.421 338.865 347.262C341.385 345.051 344.495 343.303 348.197 342.017C351.951 340.68 356.27 340.012 361.154 340.012C366.604 340.012 371.566 340.912 376.039 342.711C380.513 344.511 384.24 346.876 387.222 349.807L382.904 356.671Z" fill="white" style="fill:white;fill-opacity:1;"/>
</svg>
