<svg xmlns="http://www.w3.org/2000/svg" role="img" viewBox="-1.13 -2.63 359.00 409.50"><path fill="#fff" d="M281.506 5.244l-.005.009h-.005l-11.459 20.94-23.41 42.762-12.253 22.197-22.524 40.775-25.053 46.136-8.547 15.728 10.384 19.091.159.293-22.215-40.838-15.486-28.567-26.899-49.656L110.3 68.517 75.696 5.253h-.007l-.005-.009H6.839l59.686 110.267 6.083 11.089 3.234 5.91 34.385 63.119 5.583 10.294 28.761 53.057 32.52 59.576.008-.014.003.005 67.493-122.262 35.698-64.504 38.998-70.738 30.77-55.799h-68.555zM82.7 380.8l-.8 3.4h-.3l-.8-3.5-13.9-46.9H53.3l21.9 64.3h13.2l21.9-64.3H96.7l-14 47zm33.5-51.6h12.9v9.7h-12.9zm0 21.1h12.9v47.8h-12.9zm45 38.5a9.722 9.722 0 0 1-1.8.1 4.143 4.143 0 0 1-3.1-1.2c-.8-.8-1.2-2.1-1.2-4v-24.3h8.1v-9.1h-8.1v-11.7h-12.9v11.7h-7v9.1h7v24.4c0 5.3 1.2 9.2 3.6 11.6s5.8 3.7 10.3 3.7a25.029 25.029 0 0 0 4-.3 30.65 30.65 0 0 0 3.8-1l-1.1-9.3c-.6.1-1.1.2-1.6.3zm29.9-39.4c-6.8 0-12.1 2.2-16 6.8s-5.8 10.4-5.8 17.6v1.8c0 6.9 2 12.5 6 16.9s9.6 6.6 16.7 6.6a33.35 33.35 0 0 0 10.7-1.6 25.734 25.734 0 0 0 7.8-3.9l-3.5-8a30.637 30.637 0 0 1-6.3 2.7 26.256 26.256 0 0 1-7.4.9c-3.5 0-6.1-1-7.9-3a12.777 12.777 0 0 1-3-8l.1-.3H211v-6.7c0-6.7-1.7-11.9-5.1-15.9-3.5-3.9-8.4-5.9-14.8-5.9zm7.3 19.9h-15.7l-.1-.2a13.668 13.668 0 0 1 2.5-7.1 7.153 7.153 0 0 1 6-2.7c2.6 0 4.4.8 5.6 2.4a11.5 11.5 0 0 1 1.7 6.6zm54.2 5.6c-2.9-2.3-7.2-4-13.1-5.2-3.8-.7-6.4-1.6-7.6-2.5a4.13 4.13 0 0 1-1.9-3.6 4.781 4.781 0 0 1 1.8-3.8 7.36 7.36 0 0 1 4.9-1.5 7.238 7.238 0 0 1 5.3 1.8 6.484 6.484 0 0 1 1.9 4.7h12.5l.1-.3a12.886 12.886 0 0 0-5.2-10.8c-3.6-2.9-8.5-4.3-14.5-4.3-5.8 0-10.4 1.4-13.9 4.3a13.15 13.15 0 0 0-5.2 10.5 10.973 10.973 0 0 0 4.4 9.2c2.9 2.3 7.1 4 12.7 5.1 3.7.8 6.3 1.7 7.6 2.7a4.353 4.353 0 0 1 2.1 3.6 4.529 4.529 0 0 1-1.9 3.9c-1.3 1-3.1 1.4-5.5 1.4a10.583 10.583 0 0 1-6.2-1.7c-1.6-1.1-2.4-3-2.5-5.6h-11.8l-.1.3c-.2 4.1 1.6 7.8 5.3 11s8.7 4.8 15.1 4.8c6 0 10.9-1.4 14.6-4.1a12.572 12.572 0 0 0 5.5-10.6 12.024 12.024 0 0 0-4.4-9.3zm46.6 0c-2.9-2.3-7.2-4-13.1-5.2-3.8-.7-6.4-1.6-7.6-2.5a4.13 4.13 0 0 1-1.9-3.6 4.781 4.781 0 0 1 1.8-3.8 7.36 7.36 0 0 1 4.9-1.5 7.238 7.238 0 0 1 5.3 1.8 6.484 6.484 0 0 1 1.9 4.7H303l.1-.3a12.886 12.886 0 0 0-5.2-10.8c-3.6-2.9-8.5-4.3-14.5-4.3-5.8 0-10.4 1.4-13.9 4.3a13.15 13.15 0 0 0-5.2 10.5 10.973 10.973 0 0 0 4.4 9.2c2.9 2.3 7.1 4 12.7 5.1 3.7.8 6.3 1.7 7.6 2.7a4.353 4.353 0 0 1 2.1 3.6 4.529 4.529 0 0 1-1.9 3.9c-1.3 1-3.1 1.4-5.5 1.4a10.583 10.583 0 0 1-6.2-1.7c-1.6-1.1-2.4-3-2.5-5.6h-11.8l-.1.3c-.2 4.1 1.6 7.8 5.3 11s8.7 4.8 15.1 4.8c6 0 10.9-1.4 14.6-4.1a12.572 12.572 0 0 0 5.5-10.6 11.715 11.715 0 0 0-4.4-9.3z"/></svg>