<svg xmlns="http://www.w3.org/2000/svg" role="img" viewBox="-4.21 -4.21 368.67 452.92"><defs><style>.cls-1{fill:none}</style></defs><path d="M190.541 413.327h-16.618V431.9h17.671c7.972 0 12.934-3.533 12.934-9.399v-.15c0-5.716-4.813-9.024-13.987-9.024zm30.599-16.58v-.166c0-5.702-4.545-9.422-12.81-9.422h-17.606v19.92h17.108c7.854 0 13.308-3.554 13.308-10.332z" class="cls-1"/><path d="M208.99 412.865h-18.266v20.416h19.423c8.762 0 14.217-3.884 14.217-10.331v-.166c0-6.282-5.29-9.92-15.374-9.92zm-80.653-259.068a10.128 10.128 0 1 1 20.256 0v14.05h9.149v-32.893h-38.554v32.892h9.149zm-52.764 264.11h26.615l-13.307-29.591-13.308 29.591zm75.884-30.584h-17.855v23.475h17.772c8.68 0 14.878-4.462 14.878-11.902v-.165c0-7.108-5.454-11.408-14.795-11.408z" class="cls-1"/><path d="M321.155 168.942a140.97 140.97 0 0 0-3.252-22.174l-141.98 4.834 128.148-41.181c-.096-.176-.178-.358-.274-.53a142.71 142.71 0 0 0-16.726-23.868L173.69 144.7l82.34-85.632.843-.877a140.882 140.882 0 0 0-74.85-21.463c-78.204 0-141.83 63.623-141.83 141.824a141.801 141.801 0 0 0 63.36 118.08l2.194-24.796 68.654 30.253 1.484 18.147c2.036.087 4.08.14 6.137.14 67.65 0 124.357-47.625 138.436-111.098l-2.099-.729-144.67-50.19 147.466 10.583 7.185.515 13.457.966-13.457-.966zm-216.452 15.022v-16.118h5.555v-32.892h-5.555v-9.455l30.851-30.187v-2.124a2.912 2.912 0 0 1 5.823 0v2.124l30.85 30.187v9.455h-5.554v32.892h5.554v16.118h-7.486l3.944 48.237-57.2-25.206 2.037-23.03zm66.36 77.318l.96 11.725-63.888-28.156.961-10.874zm-61.253-35.357l.963-10.877 58.623 25.833.958 11.721zm-3.35 37.855l.963-10.873 65.31 28.781.957 11.72zm161.798 122.553c-13.225 0-22.648 10.58-22.648 23.721v.166c0 13.142 9.589 23.888 22.813 23.888 13.227 0 22.649-10.58 22.649-23.723v-.165c0-13.142-9.588-23.887-22.814-23.887zm65.223.99h-17.854v23.475h17.771c8.68 0 14.878-4.462 14.878-11.902v-.165c0-7.108-5.454-11.408-14.795-11.408z" class="cls-1"/><path d="M47.795 380.876a3.316 3.316 0 0 0-3.305 3.307v22.814H11.095v-22.814a3.316 3.316 0 0 0-3.305-3.307 3.3 3.3 0 0 0-3.224 3.307v52.074a3.3 3.3 0 0 0 3.224 3.307 3.316 3.316 0 0 0 3.305-3.307v-23.144H44.49v23.144a3.265 3.265 0 1 0 6.528 0v-52.075a3.3 3.3 0 0 0-3.223-3.306zm45.467 2.646a4.165 4.165 0 0 0-4.05-2.893h-.331a4.266 4.266 0 0 0-4.133 2.893l-23.474 51.33a3.766 3.766 0 0 0-.415 1.735 2.964 2.964 0 0 0 2.975 2.977 3.273 3.273 0 0 0 3.143-2.232l6.034-13.474h31.74l6.034 13.308a3.564 3.564 0 0 0 3.224 2.398 3.14 3.14 0 0 0 3.14-3.142 4.403 4.403 0 0 0-.414-1.654zm-17.689 34.385l13.308-29.59 13.307 29.59zm76.378-36.617h-21.654a3.3 3.3 0 0 0-3.224 3.307v51.66a3.265 3.265 0 1 0 6.529 0v-19.59h16.614l16.284 21.16a3.805 3.805 0 0 0 3.057 1.737 3.415 3.415 0 0 0 3.308-3.224 3.556 3.556 0 0 0-1.075-2.398l-14.382-18.514c9.01-1.736 15.457-7.274 15.457-16.78v-.165a15.98 15.98 0 0 0-4.464-11.407c-3.637-3.637-9.34-5.786-16.45-5.786zm14.3 17.606c0 7.44-6.198 11.902-14.877 11.902h-17.772v-23.475h17.855c9.34 0 14.795 4.3 14.795 11.408zm52.329 10.332c4.545-1.983 9.173-5.868 9.173-13.39v-.165a12.853 12.853 0 0 0-3.72-9.258c-3.306-3.224-8.513-5.125-15.125-5.125H187.5a3.3 3.3 0 0 0-3.224 3.307v51.247a3.3 3.3 0 0 0 3.224 3.305h22.481c12.647 0 20.996-5.868 20.996-15.787v-.165c0-7.935-5.539-11.903-12.398-13.97zm-27.856-22.07h17.606c8.265 0 12.81 3.72 12.81 9.423v.166c0 6.778-5.454 10.332-13.308 10.332h-17.108zm33.64 35.792c0 6.447-5.455 10.33-14.217 10.33h-19.423v-20.415h18.266c10.084 0 15.374 3.637 15.374 9.919zm44.059-42.651c-17.605 0-29.59 13.969-29.59 29.921v.165c0 15.953 11.819 29.758 29.425 29.758s29.592-13.97 29.592-29.923v-.166c0-15.952-11.82-29.755-29.427-29.755zm22.649 30.086c0 13.143-9.422 23.723-22.649 23.723-13.224 0-22.813-10.746-22.813-23.888v-.166c0-13.141 9.423-23.721 22.648-23.721 13.226 0 22.814 10.745 22.814 23.887zm42.904-29.095h-21.654a3.3 3.3 0 0 0-3.224 3.307v51.66a3.265 3.265 0 1 0 6.529 0v-19.59h16.615l16.283 21.16a3.805 3.805 0 0 0 3.057 1.737 3.415 3.415 0 0 0 3.308-3.224 3.556 3.556 0 0 0-1.075-2.398l-14.382-18.514c9.01-1.736 15.457-7.274 15.457-16.78v-.165a15.98 15.98 0 0 0-4.464-11.407c-3.637-3.637-9.34-5.786-16.45-5.786zm14.3 17.606c0 7.44-6.198 11.902-14.878 11.902h-17.771v-23.475h17.854c9.341 0 14.795 4.3 14.795 11.408zM111.485 206.995l57.2 25.206-3.944-48.237h7.486v-16.118h-5.554v-32.892h5.554v-9.455l-30.85-30.187v-2.124a2.912 2.912 0 0 0-5.823 0v2.124L104.703 125.5v9.455h5.555v32.892h-5.555v16.118h8.82zm7.703-72.041h38.554v32.892h-9.15v-14.05a10.128 10.128 0 1 0-20.255 0v14.05h-9.15zm-11.053 109.897l63.888 28.156-.959-11.725-61.968-27.305-.961 10.874zm-.712 8.056l-.963 10.873 67.23 29.629-.956-11.721-65.311-28.781zm3.35-37.859l-.963 10.877 60.544 26.677-.958-11.721-58.623-25.833z"/><path d="M355.995 178.36c0-95.825-77.959-173.784-173.783-173.784A174.203 174.203 0 0 0 8.155 178.552c0 95.871 77.996 173.87 173.867 173.87a162.41 162.41 0 0 0 30.7-2.963c81.327-14.462 143.273-85.682 143.273-171.1zm-14.198-7.937l-13.457-.966-7.185-.515-147.465-10.584 144.67 50.191 2.098.729c-14.079 63.473-70.785 111.099-138.436 111.099-2.057 0-4.101-.054-6.137-.141l-1.484-18.147-68.654-30.253-2.194 24.796a141.801 141.801 0 0 1-63.36-118.08c0-78.201 63.626-141.824 141.83-141.824a140.882 140.882 0 0 1 74.85 21.463l-.843.877-82.34 85.632 113.38-58.677a142.71 142.71 0 0 1 16.727 23.868c.096.172.178.354.274.53l-128.148 41.181 141.98-4.834a140.97 140.97 0 0 1 3.252 22.174l7.185.515 13.457.966z"/></svg>