<svg xmlns="http://www.w3.org/2000/svg" role="img" viewBox="1.12 0.62 357.76 357.76"><defs><style>.cls-1{fill:none}</style></defs><path d="M118.33755 139.3187a86.28666 86.28666 0 0110.03386-12.37346 9.67583 9.67583 0 001.34382-11.48839 9.84858 9.84858 0 00-10.55373-4.76815 11.61737 11.61737 0 00-6.18267 3.94583c-17.23154 18.19647-25.8709 39.854-26.24428 62.71341a103.30093 103.30093 0 001.71837 19.8432 92.73147 92.73147 0 0025.80754 48.49727 9.74656 9.74656 0 0016.00305-3.3235c1.69334-4.35808.3665-7.99974-2.76933-11.28383-15.15582-15.87207-22.18879-34.7793-20.85633-56.7083a71.76587 71.76587 0 0111.6997-35.05408zm175.58519-6.7002c.31465.76439.6204.91888 1.40455.62706 5.466-2.03457 10.93964-4.0501 16.43759-5.99585.95358-.33746.96188-.65676.62132-1.49508a143.98489 143.98489 0 00-31.17268-46.99215 9.742 9.742 0 00-10.75228-2.1845 9.84592 9.84592 0 00-6.05631 9.03047 10.49467 10.49467 0 003.40695 7.61571 122.12232 122.12232 0 0126.11086 39.39434zm-46.36118 17.1451c.36769.84277.78546.54674 1.32739.34874 5.44081-1.98816 10.87646-3.99141 16.33763-5.92245.93156-.32928 1.14993-.55119.71573-1.55333a94.85786 94.85786 0 00-19.87345-29.23777 9.96929 9.96929 0 00-7.24949-2.942 9.47067 9.47067 0 00-8.69275 5.895 9.17648 9.17648 0 001.85827 10.67742 77.05669 77.05669 0 0115.57667 22.73439z" class="cls-1"/><path d="M93.56179 266.838c-3.39271-3.82577-7.00335-7.46025-10.114-11.53164q-32.95405-43.13363-24.33753-96.73067a119.33829 119.33829 0 0129.1313-60.59729c1.97523-2.24095 4.23244-4.23032 6.0177-6.63285a9.71352 9.71352 0 00.31108-10.95774 9.87738 9.87738 0 00-10.06323-4.39242 12.06544 12.06544 0 00-6.58094 4.1862C51.45541 107.984 38.15205 141.1203 37.574 179.43073a152.77557 152.77557 0 001.72531 21.905A141.25761 141.25761 0 0059.001 254.61051a152.80928 152.80928 0 0019.8387 25.223 9.92076 9.92076 0 0013.88575.93916 9.68061 9.68061 0 001.09159-13.64687l-.00013-.00015q-.1246-.14637-.25512-.28765zm200.36095-134.2195c.31465.76439.6204.91888 1.40455.62706 5.466-2.03457 10.93964-4.0501 16.43759-5.99585.95358-.33746.96188-.65676.62132-1.49508a143.98489 143.98489 0 00-31.17268-46.99215 9.742 9.742 0 00-10.75228-2.1845 9.84592 9.84592 0 00-6.05631 9.03047 10.49467 10.49467 0 003.40695 7.61571 122.12232 122.12232 0 0126.11086 39.39434zm-46.36118 17.1451c.36769.84277.78546.54674 1.32739.34874 5.44081-1.98816 10.87646-3.99141 16.33763-5.92245.93156-.32928 1.14993-.55119.71573-1.55333a94.85786 94.85786 0 00-19.87345-29.23777 9.96929 9.96929 0 00-7.24949-2.942 9.47067 9.47067 0 00-8.69275 5.895 9.17648 9.17648 0 001.85827 10.67742 77.05669 77.05669 0 0115.57667 22.73439z" class="cls-1"/><path d="M93.56179 266.838c-3.39271-3.82577-7.00335-7.46025-10.114-11.53164q-32.95405-43.13363-24.33753-96.73067a119.33829 119.33829 0 0129.1313-60.59729c1.97523-2.24095 4.23244-4.23032 6.0177-6.63285a9.71352 9.71352 0 00.31108-10.95774 9.87738 9.87738 0 00-10.06323-4.39242 12.06544 12.06544 0 00-6.58094 4.1862C51.45541 107.984 38.15205 141.1203 37.574 179.43073a152.77557 152.77557 0 001.72531 21.905A141.25761 141.25761 0 0059.001 254.61051a152.80928 152.80928 0 0019.8387 25.223 9.92076 9.92076 0 0013.88575.93916 9.68061 9.68061 0 001.09159-13.64687l-.00013-.00015q-.1246-.14637-.25512-.28765z" class="cls-1"/><path d="M118.33755 139.3187a86.28666 86.28666 0 0110.03386-12.37346 9.67583 9.67583 0 001.34382-11.48839 9.84858 9.84858 0 00-10.55373-4.76815 11.61737 11.61737 0 00-6.18267 3.94583c-17.23154 18.19647-25.8709 39.854-26.24428 62.71341a103.30093 103.30093 0 001.71837 19.8432 92.73147 92.73147 0 0025.80754 48.49727 9.74656 9.74656 0 0016.00305-3.3235c1.69334-4.35808.3665-7.99974-2.76933-11.28383-15.15582-15.87207-22.18879-34.7793-20.85633-56.7083a71.76587 71.76587 0 0111.6997-35.05408zm129.81933 87.15924q.02388-.1219.0436-.24467 2.82558-15.81321 5.60773-31.63431c.48312-2.73534.93772-5.47565 1.30345-7.61718h-.00009c.02578-4.36045-2.78585-7.59543-6.38653-7.96532a7.25607 7.25607 0 00-8.17021 5.94129q-2.74239 15.20492-5.368 30.43073c-.16364.948-.50182 1.08981-1.35422.93113q-6.56979-1.223-13.15595-2.35656a13.89539 13.89539 0 00-5.34469-.43742 7.38423 7.38423 0 00.53521 14.57548q11.8291 2.11587 23.66812 4.17529a7.34687 7.34687 0 008.62158-5.79846zm25.21091 15.24958a7.3382 7.3382 0 00-7.72947 5.95355q-2.74746 15.26142-5.38943 30.5418c-.14217.81849-.29771 1.04939-1.21127.88046-5.38373-.99517-10.77274-1.97444-16.18321-2.80865a7.23207 7.23207 0 00-8.29307 5.98588q-.02451.15176-.04256.30452a7.3715 7.3715 0 006.06086 8.21644q12.06882 2.14808 24.149 4.23278a7.224 7.224 0 008.48672-5.68713q.03015-.15257.05374-.30638 2.84148-15.80513 5.60893-31.62356c.49038-2.775.95446-5.55476 1.332-7.75743h-.0001a7.54259 7.54259 0 00-6.84214-7.93228z" class="cls-1"/><path fill="#fff" d="M352.049 174.5994c-3.98217 1.45034-7.92258 2.88713-11.86421 4.32076q-29.2816 10.63594-58.55128 21.30462a7.72863 7.72863 0 01-5.15411.277 7.37239 7.37239 0 01.02228-14.09572q36.51-13.32366 73.05852-26.54057a1.64091 1.64091 0 001.26255-2.20259c-.34017-1.88488-.60878-3.78288-.89792-5.67683a151.00074 151.00074 0 00-8.0581-31.10541Q313.26411 45.85434 238.16142 17.56293A154.66344 154.66344 0 00207.63 9.69768c-4.8371-.75734-9.69063-1.44912-14.58444-1.73346-4.55294-.26458-12.73242-.44249-18.23867-.37509-4.53984.05567-12.82915.82208-17.33089 1.393a158.23485 158.23485 0 00-21.89536 4.33824 169.76871 169.76871 0 00-89.22535 58.11445C22.37365 101.057 9.82019 135.11412 8.212 173.1679a163.26036 163.26036 0 001.60316 30.58854 175.14835 175.14835 0 004.86961 23.02047 172.79463 172.79463 0 0096.49149 110.4185c.809.35834 1.09837.28931 1.4208-.604q7.15421-19.7369 14.33663-39.46339 18.44067-50.67012 36.9091-101.33027a1.47619 1.47619 0 00-.31194-1.71326 21.74649 21.74649 0 01-5.04094-19.08556 22.106 22.106 0 0140.15739-7.59245c.4239.66571.40658.86856-.3829 1.14834-4.34515 1.54017-8.68218 3.1061-12.99264 4.74072l-.00358.00132a14.67951 14.67951 0 00-8.71756 18.841c.96511 2.73157 1.95008 5.45706 2.99041 8.16051a3.41566 3.41566 0 01.03058 2.5841q-8.52128 23.40765-17.09946 46.79467c-.36962 1.00776-.2569 1.337.83352 1.58586a74.02 74.02 0 0033.6943.04439c.803-.18725 1.107.00315 1.38785.79169q2.9385 8.24477 6.00083 16.44389c.33458.89573.25043 1.18024-.74281 1.42831a93.40736 93.40736 0 01-47.33224-.26039c-.7755-.20587-1.09916-.0575-1.38439.73522q-4.67619 13.01819-9.46752 25.994c-.34847.94353-.07209 1.12327.77156 1.367a123.25692 123.25692 0 0067.69347.12884c.8731-.25121 1.13528-.02822 1.42027.77271 1.92866 5.42045 3.8851 10.83164 5.91057 16.21644.37.98372.29963 1.33377-.76528 1.64117a143.93634 143.93634 0 01-36.38525 5.65716 141.51529 141.51529 0 01-44.56578-5.92568c-1.05407-.31649-1.31009-.0062-1.62117.86244q-3.46575 9.61557-6.95963 19.22114c-.87627 2.409-1.772 4.81088-2.65766 7.21323 90.12446 27.87725 176.22256-20.82015 207.50185-91.1739-2.931 1.06909-5.79741 2.11757-8.66593 3.16019-6.94139 2.523-13.87539 5.06656-20.829 7.55549l-.02862.01066a7.36388 7.36388 0 01-5.09784-13.81731c.72115-.28363 1.4596-.52288 2.18808-.78808q19.5486-7.134 39.11353-14.22321a1.65561 1.65561 0 001.17919-1.2124c.6952-2.42 1.47-4.81709 2.16275-7.23769a169.67494 169.67494 0 005.02007-24.86524q.95157-7.24726 1.17771-14.54014c.12132-3.91867.02442-7.84393.02442-11.86353zM92.72548 280.77271a9.92076 9.92076 0 01-13.88575-.93916 152.8097 152.8097 0 01-19.8387-25.223 141.25776 141.25776 0 01-19.70177-53.27485 152.77407 152.77407 0 01-1.72525-21.905c.57809-38.31042 13.88145-71.44679 40.35221-99.24914a12.06546 12.06546 0 016.581-4.1862 9.87738 9.87738 0 0110.06318 4.39245 9.71354 9.71354 0 01-.31109 10.95774c-1.78525 2.40253-4.04246 4.3919-6.01769 6.63285a119.33822 119.33822 0 00-29.1313 60.59732q-8.61654 53.59708 24.33754 96.73067c3.11064 4.07139 6.72129 7.70587 10.114 11.53164q.13043.14128.25515.28765a9.68063 9.68063 0 01-1.09138 13.6469zm34.7687-49.69167c3.13589 3.28409 4.46267 6.92574 2.76933 11.28383a9.74659 9.74659 0 01-16.00305 3.3235 92.73157 92.73157 0 01-25.80754-48.49723 103.30119 103.30119 0 01-1.71826-19.84314c.37338-22.85943 9.01274-44.517 26.24428-62.71341a11.61738 11.61738 0 016.18267-3.94584 9.84862 9.84862 0 0110.55368 4.76816 9.67581 9.67581 0 01-1.34382 11.48839 86.28857 86.28857 0 00-10.03386 12.37346 71.766 71.766 0 00-11.69976 35.054c-1.33252 21.929 5.70049 40.83617 20.85626 56.70824zM270.46135 76.578a9.742 9.742 0 0110.75228 2.1845 143.98428 143.98428 0 0131.17261 46.99214c.34052.83832.33222 1.15762-.62131 1.49508-5.498 1.94578-10.97163 3.96133-16.4376 5.99585-.78415.29184-1.08989.13735-1.40455-.62706a122.12218 122.12218 0 00-26.11084-39.39432 10.49471 10.49471 0 01-3.40695-7.61571 9.846 9.846 0 016.05627-9.0305zm-40.33466 39.77385a9.47062 9.47062 0 018.69275-5.895 9.96921 9.96921 0 017.24949 2.942 94.85809 94.85809 0 0119.87347 29.23773c.43419 1.00225.21583 1.22406-.71573 1.55333-5.46117 1.931-10.89682 3.93429-16.33764 5.92245-.54193.198-.95969.494-1.32739-.34874a77.05627 77.05627 0 00-15.57664-22.73439 9.17647 9.17647 0 01-1.8584-10.67742zM215.8673 228.10111a7.38423 7.38423 0 01-.5352-14.57548 13.89539 13.89539 0 015.34469.43742q6.58611 1.13353 13.15595 2.35656c.85239.15868 1.19056.01686 1.35422-.93113q2.62563-15.22576 5.368-30.43073a7.25607 7.25607 0 018.17021-5.94129c3.60067.36989 6.4123 3.60485 6.38653 7.96532h.00008c-.36577 2.14151-.82032 4.88188-1.30344 7.61718q-2.78211 15.82109-5.60773 31.63431-.01964.12268-.04361.24467a7.34686 7.34686 0 01-8.62153 5.79846q-11.83911-2.05952-23.66821-4.17529zm63.01085 29.316q-2.76738 15.81846-5.60893 31.62356-.02355.15375-.05374.30638a7.224 7.224 0 01-8.48672 5.68714q-12.08016-2.08469-24.149-4.23278a7.3715 7.3715 0 01-6.06086-8.21644q.018-.1527.04255-.30452a7.23207 7.23207 0 018.29307-5.98589c5.41049.83422 10.79949 1.81349 16.18321 2.80866.91356.16892 1.0691-.062 1.21127-.88047q2.642-15.28043 5.38943-30.54179a7.33822 7.33822 0 017.72947-5.95356 7.54261 7.54261 0 016.84221 7.93219h.00011c-.37768 2.20283-.84178 4.9825-1.33217 7.75759z"/></svg>