<svg xmlns="http://www.w3.org/2000/svg" role="img" viewBox="-32.95 -0.45 3273.40 675.90"><path fill="#190764" d="M0 0 C0.71295154 -0.00367669 1.42590309 -0.00735338 2.16045922 -0.01114148 C4.55556304 -0.02217709 6.95062347 -0.02602192 9.3457489 -0.02983093 C11.06057371 -0.03609561 12.77539716 -0.04274242 14.49021912 -0.04974365 C19.15351403 -0.06715128 23.81679869 -0.0777045 28.48011804 -0.08594918 C31.39300925 -0.09109926 34.30589728 -0.09717495 37.21878624 -0.10346031 C46.33093705 -0.1225107 55.44307976 -0.13674285 64.55524665 -0.14507228 C75.07693575 -0.1548488 85.59841471 -0.1811798 96.12002975 -0.22157317 C104.25090411 -0.25171832 112.38171817 -0.26653958 120.51264733 -0.26985329 C125.3698475 -0.27220535 130.22682312 -0.2811862 135.08396339 -0.30631447 C139.65339054 -0.3295726 144.22244493 -0.33383757 148.79191589 -0.32355309 C150.46808295 -0.32305708 152.14426822 -0.32939647 153.82037926 -0.34310913 C156.11100584 -0.36079938 158.40029042 -0.35373733 160.69091797 -0.34057617 C161.97200093 -0.34296453 163.2530839 -0.34535288 164.57298756 -0.34781361 C169.46553565 0.3515145 172.52862199 2.553347 175.88391113 6.10121155 C177.25643882 8.53878029 177.43080478 10.09327302 177.4683075 12.88252258 C177.48808655 13.84629822 177.5078656 14.81007385 177.52824402 15.80305481 C177.53464905 16.87051941 177.54105408 17.93798401 177.5476532 19.03779602 C177.57478394 20.77144409 177.57478394 20.77144409 177.60246277 22.54011536 C177.6488754 25.79993864 177.68106546 29.05953237 177.70609665 32.31958008 C177.72346003 34.40023701 177.7460499 36.48077012 177.77046204 38.56135559 C177.90912633 50.42305199 177.97918241 62.28483254 178.03593445 74.14717102 C178.0413324 75.24402222 178.04673035 76.34087341 178.05229187 77.47096252 C178.13749791 95.00087071 178.18835403 112.53070279 178.21626663 130.06079102 C178.22344311 133.90180894 178.23376064 137.74280783 178.24476624 141.58381653 C178.26143603 147.69919629 178.26741181 153.8144999 178.26531982 159.92990112 C178.26603661 162.21358602 178.27013426 164.49727259 178.277771 166.78094482 C178.28755532 169.9314227 178.28480565 173.08165 178.27885437 176.23213196 C178.28447734 177.15428623 178.29010031 178.07644051 178.29589367 179.02653885 C178.26008122 186.32151806 177.20798677 191.66166098 172.03593445 197.14717102 C169.35061884 198.04227622 167.50792182 198.36829751 164.72343445 198.45967102 C163.98480164 198.49705383 163.24616882 198.53443665 162.4851532 198.57295227 C156.92005615 197.60549521 152.82652861 193.17548069 149.01200867 189.27095032 C148.3180751 188.56540764 148.3180751 188.56540764 147.61012268 187.84561157 C146.61602333 186.8339875 145.62417712 185.82014517 144.63441086 184.80428123 C143.06770009 183.19788732 141.49335622 181.59935011 139.9165802 180.00283813 C135.43808606 175.46650977 130.96980834 170.92030559 126.51591492 166.3598175 C123.78342101 163.56302462 121.03898193 160.77844151 118.28654861 158.00127602 C117.24125041 156.94169856 116.20065123 155.87746428 115.1648674 154.80858421 C113.72146417 153.31965917 112.26343555 151.84669046 110.80107117 150.37641907 C109.975336 149.53354843 109.14960083 148.6906778 108.29884338 147.82226562 C106.24033806 145.90073683 106.24033806 145.90073683 104.09330082 146.36622715 C101.77110661 147.2476955 100.60138481 148.2116844 98.85516357 149.96717834 C98.25107162 150.5671463 97.64697968 151.16711426 97.02458191 151.78526306 C96.37356506 152.44706573 95.72254822 153.10886841 95.05180359 153.79072571 C94.009589 154.83228317 94.009589 154.83228317 92.94631958 155.8948822 C90.64739594 158.19589834 88.35928979 160.50736882 86.0710907 162.81904602 C84.47518378 164.4205502 82.87861168 166.02139178 81.28140259 167.62159729 C77.07302997 171.84143285 72.87373552 176.07019186 68.67625427 180.30085754 C64.41415865 184.59353006 60.14366964 188.87783362 55.87382507 193.16279602 C48.9711305 200.09187387 42.07364792 207.02608953 35.18281555 213.96696472 C26.25419414 222.95936782 26.25419414 222.95936782 22.53593445 226.58467102 C19.96340426 229.15466852 19.96340426 229.15466852 17.53593445 232.14717102 C15.16479177 234.99254223 12.68614072 237.5632199 10.03593445 240.14717102 C6.01216139 244.16204873 2.000303 248.18885871 -2.01411438 252.21308899 C-9.0482557 259.26360226 -16.08497008 266.31154187 -23.12312794 273.35804558 C-27.37457865 277.61471684 -31.62508873 281.87231872 -35.87348938 286.1320343 C-39.99432773 290.26377377 -44.1176365 294.3930332 -48.24263573 298.52061844 C-49.80829555 300.08811726 -51.37307916 301.6564918 -52.93694496 303.22578049 C-55.13089185 305.42703562 -57.32799879 307.62509117 -59.52583313 309.82246399 C-60.16246887 310.46269501 -60.79910461 311.10292603 -61.45503235 311.76255798 C-81.90679694 332.16820259 -108.41747964 350.94403571 -135.96406555 360.14717102 C-137.34565933 360.64303256 -138.72716405 361.1391423 -140.1085968 361.63545227 C-153.11883454 366.15971287 -166.33622883 368.34995966 -179.96406555 370.14717102 C-180.71566956 370.25174622 -181.46727356 370.35632141 -182.24165344 370.46406555 C-199.55775197 372.67227796 -233.64990017 375.30425371 -249.96406555 367.14717102 C-240.78987448 392.9032851 -221.06951088 414.91158859 -197.96406555 429.14717102 C-196.97277649 429.7736554 -195.98148743 430.40013977 -194.9601593 431.04560852 C-181.09751423 439.43066151 -166.02392428 444.8574803 -149.96406555 447.14717102 C-149.22108215 447.25400208 -148.47809875 447.36083313 -147.71260071 447.47090149 C-118.61565112 451.47954982 -90.26382033 447.45124488 -64.08906555 433.83467102 C-63.47297424 433.51675598 -62.85688293 433.19884094 -62.22212219 432.87129211 C-49.21065812 425.75996206 -38.65320289 416.403539 -28.40156555 405.83467102 C-27.25605004 404.66900457 -26.10956789 403.50428725 -24.96211243 402.3405304 C-22.86749558 400.21371985 -20.77852694 398.08170968 -18.69624329 395.94282532 C-16.13754868 393.32468467 -13.55479828 390.73356174 -10.96406555 388.14717102 C-9.77501031 386.948851 -8.5866793 385.74981214 -7.39888 384.55024719 C-3.80319321 380.91906071 -0.20148963 377.29390751 3.40238953 373.67085266 C4.95689771 372.10620673 6.50961782 370.53978239 8.06059265 368.97163391 C10.30163426 366.7064671 12.54895554 364.44770305 14.7976532 362.19013977 C15.49348007 361.48399033 16.18930695 360.77784088 16.90621948 360.05029297 C17.55061478 359.40574661 18.19501007 358.76120026 18.8589325 358.09712219 C19.4256517 357.52596176 19.99237091 356.95480133 20.57626343 356.36633301 C22.03593445 355.14717102 22.03593445 355.14717102 24.03593445 355.14717102 C24.27312195 354.57482727 24.51030945 354.00248352 24.75468445 353.41279602 C27.34379222 348.83449569 31.56828516 345.79281808 36.03593445 343.14717102 C40.8651095 341.96105785 44.39367986 342.25203655 48.7664032 344.63545227 C53.35535143 347.89490579 57.17475893 352.07730759 61.09843445 356.08467102 C61.88798523 356.88324524 62.67753601 357.68181946 63.49101257 358.5045929 C65.01528463 360.04675247 66.53766232 361.59078735 68.0579071 363.13691711 C70.37053498 365.48722296 72.70051488 367.81952323 75.03593445 370.14717102 C76.08818724 371.19908487 77.14025769 372.25118114 78.19218445 373.30342102 C78.74003601 373.85127258 79.28788757 374.39912415 79.8523407 374.96357727 C81.52812195 376.63935852 83.2039032 378.31513977 84.87968445 379.99092102 C85.41416199 380.52499573 85.94863953 381.05907043 86.49931335 381.60932922 C87.90765295 383.01878761 89.31184793 384.43238416 90.71562195 385.84638977 C92.10072963 387.2198383 93.50599499 388.57406274 94.94999695 389.88545227 C99.1529222 393.75252733 102.17664937 397.3684789 103.03593445 403.14717102 C102.79107726 411.87020838 97.5380359 417.6272021 91.78593445 423.64717102 C89.03593445 426.14717102 89.03593445 426.14717102 87.03593445 426.14717102 C87.03593445 426.80717102 87.03593445 427.46717102 87.03593445 428.14717102 C86.37593445 428.14717102 85.71593445 428.14717102 85.03593445 428.14717102 C84.822509 428.68525894 84.60908356 429.22334686 84.38919067 429.77774048 C82.53867702 433.01782428 80.01117253 435.45020584 77.38383484 438.05805969 C76.51744888 438.92970261 76.51744888 438.92970261 75.63356018 439.81895447 C73.72190509 441.73941195 71.80302397 443.65245855 69.8835907 445.56513977 C68.54487362 446.9052052 67.20645347 448.24556731 65.86831665 449.58621216 C63.05788526 452.39959386 60.24386592 455.20932413 57.42729187 458.01655579 C53.84331638 461.58921388 50.26829209 465.17067187 46.69599247 468.75500011 C43.9292787 471.52900101 41.15774429 474.29814648 38.38480949 477.06592751 C37.0666475 478.38276784 35.7499347 479.70106066 34.43478584 481.02091026 C26.949131 488.52741758 19.4149095 495.63026762 11.03593445 502.14717102 C10.47199982 502.59686249 9.90806519 503.04655396 9.32704163 503.50987244 C-12.33589138 520.70566762 -38.32804465 534.70609334 -64.96406555 542.14717102 C-65.76860168 542.3798468 -66.57313782 542.61252258 -67.40205383 542.85224915 C-74.03879016 544.7318884 -80.66502361 546.12523412 -87.46406555 547.27217102 C-88.41926086 547.44103821 -89.37445618 547.6099054 -90.3585968 547.78388977 C-114.4759074 551.92854261 -138.86570485 550.83040401 -162.96406555 547.14717102 C-164.07515686 546.98692444 -164.07515686 546.98692444 -165.20869446 546.82344055 C-184.05246199 544.05617399 -202.4751817 538.02045742 -219.76875305 530.14570618 C-221.90906197 529.17218933 -224.06010899 528.22674437 -226.21406555 527.28388977 C-267.00204989 509.10581066 -301.73353603 478.72260151 -326.96406555 442.14717102 C-327.5467218 441.31314758 -328.12937805 440.47912415 -328.72969055 439.61982727 C-338.27765331 425.32105781 -346.18375674 409.32464873 -351.96406555 393.14717102 C-352.37785461 392.05920227 -352.79164368 390.97123352 -353.2179718 389.85029602 C-356.15929033 381.69943214 -358.2129428 373.39740833 -360.15156555 364.95967102 C-360.52668274 363.36783997 -360.52668274 363.36783997 -360.90937805 361.74385071 C-364.49077176 345.56466265 -365.30378997 329.20529171 -365.22480774 312.68281555 C-365.21403965 310.01575666 -365.22481448 307.34936673 -365.23750305 304.68232727 C-365.25226617 288.91876306 -363.9600652 273.63273169 -360.27656555 258.27217102 C-359.88573792 256.61991516 -359.88573792 256.61991516 -359.48701477 254.9342804 C-352.99589774 228.35417579 -341.77894046 199.94950882 -324.96406555 178.14717102 C-324.16129737 177.0799775 -323.35926614 176.01222939 -322.55781555 174.94404602 C-310.2585749 158.64872128 -296.46717537 144.21569125 -279.96406555 132.14717102 C-279.41895325 131.74659485 -278.87384094 131.34601868 -278.31221008 130.93330383 C-250.46038169 110.63635709 -219.79086509 99.41232923 -185.96406555 94.14717102 C-185.24404358 94.03228333 -184.52402161 93.91739563 -183.78218079 93.79902649 C-175.64395541 92.69577246 -167.34960643 92.90407806 -159.15156555 92.89717102 C-158.323927 92.89616394 -157.49628845 92.89515686 -156.64356995 92.89411926 C-144.95447749 92.90374201 -133.6172847 93.28345047 -122.13838196 95.69404602 C-119.86128833 96.16858967 -117.57808715 96.58241603 -115.2882843 96.99092102 C-83.50263417 102.88935635 -54.7643552 116.93418937 -28.96406555 136.14717102 C-26.06185227 134.83446188 -23.99694264 133.4281812 -21.7570343 131.17060852 C-21.17365295 130.58593811 -20.59027161 130.0012677 -19.98921204 129.39888 C-19.3827887 128.77956604 -18.77636536 128.16025208 -18.15156555 127.52217102 C-17.52645081 126.89061096 -16.90133606 126.2590509 -16.25727844 125.60835266 C-12.48315472 121.77120378 -8.83343132 117.86203419 -5.3507843 113.75654602 C-3.34411539 111.42767956 -1.16702174 109.28893398 1.03593445 107.14717102 C1.87124695 106.24998352 1.87124695 106.24998352 2.72343445 105.33467102 C4.03593445 104.14717102 4.03593445 104.14717102 6.03593445 104.14717102 C6.43812195 103.24998352 6.43812195 103.24998352 6.84843445 102.33467102 C8.03510851 100.14869248 9.13192557 98.73384508 11.03593445 97.14717102 C11.69593445 97.14717102 12.35593445 97.14717102 13.03593445 97.14717102 C13.29116882 96.56580383 13.5464032 95.98443665 13.80937195 95.38545227 C15.16096169 92.91901622 16.65286139 91.29874248 18.66093445 89.33467102 C19.36991882 88.6411554 20.0789032 87.94763977 20.80937195 87.23310852 C22.92481966 85.25126803 25.08585059 83.34663433 27.28593445 81.45967102 C30.25107783 78.91313612 32.69652794 76.29637208 35.03593445 73.14717102 C35.69593445 72.48717102 36.35593445 71.82717102 37.03593445 71.14717102 C36.42596619 70.53720276 35.81599792 69.9272345 35.18754578 69.29878235 C16.03593445 50.14717102 16.03593445 50.14717102 13.61576843 47.72480774 C11.20694214 45.31803306 8.79357028 42.91593979 6.37852478 40.51541138 C3.97653291 38.12683569 1.57723024 35.7355661 -0.82197571 33.3441925 C-2.08964985 32.08158906 -3.35821383 30.81987843 -4.62763977 29.55903625 C-6.46608055 27.7326749 -8.30131653 25.90314659 -10.13594055 24.07295227 C-10.70568604 23.50836807 -11.27543152 22.94378387 -11.86244202 22.36209106 C-16.87312528 17.35212958 -16.87312528 17.35212958 -17.21406555 12.83467102 C-16.88661729 8.00480923 -15.58301708 5.56375361 -11.96406555 2.39717102 C-7.99050757 -0.08630272 -4.58388861 0.01530461 0 0 Z M-182.96406555 194.14717102 C-184.69656555 194.72531555 -184.69656555 194.72531555 -186.46406555 195.31513977 C-207.19352966 202.72880228 -226.44654831 219.38828792 -237.96406555 238.14717102 C-238.47066711 238.93221008 -238.97726868 239.71724915 -239.4992218 240.52607727 C-245.77094311 250.51912683 -253.96406555 264.09478503 -253.96406555 276.14717102 C-244.29831658 276.513202 -234.63213509 276.84874858 -224.96406555 277.14717102 C-224.13664856 277.17343567 -223.30923157 277.19970032 -222.45674133 277.22676086 C-192.70663279 278.06813449 -165.76012965 272.01957634 -142.96406555 252.14717102 C-142.01660461 251.3795343 -142.01660461 251.3795343 -141.05000305 250.59638977 C-137.13151564 247.39427781 -133.86283265 243.87909207 -130.6398468 239.97920227 C-128.96406555 238.14717102 -128.96406555 238.14717102 -126.7570343 236.53388977 C-125.86951477 235.84746399 -125.86951477 235.84746399 -124.96406555 235.14717102 C-124.96406555 234.48717102 -124.96406555 233.82717102 -124.96406555 233.14717102 C-124.39816711 232.90869446 -123.83226868 232.6702179 -123.2492218 232.42451477 C-120.47696683 230.87489532 -118.61140262 228.98681277 -116.40156555 226.70967102 C-115.63715149 225.92721008 -114.87273743 225.14474915 -114.0851593 224.33857727 C-113.38519836 223.61541321 -112.68523743 222.89224915 -111.96406555 222.14717102 C-111.0842804 221.32539368 -111.0842804 221.32539368 -110.1867218 220.48701477 C-108.73937719 219.20325618 -108.73937719 219.20325618 -108.96406555 217.14717102 C-108.40719055 216.92029602 -107.85031555 216.69342102 -107.27656555 216.45967102 C-104.30246968 214.77167066 -102.2439769 212.68040585 -99.96406555 210.14717102 C-99.96406555 209.48717102 -99.96406555 208.82717102 -99.96406555 208.14717102 C-98.97406555 207.81717102 -97.98406555 207.48717102 -96.96406555 207.14717102 C-96.96406555 206.48717102 -96.96406555 205.82717102 -96.96406555 205.14717102 C-123.98199591 191.82008909 -153.32011458 183.80547449 -182.96406555 194.14717102 Z" transform="translate(396.964 62.853)"/><path fill="#190764" d="M0 0 C29.7 0 59.4 0 90 0 C90.33 52.14 90.66 104.28 91 158 C98.59 146.45 106.18 134.9 114 123 C129.73995597 99.2226197 129.73995597 99.2226197 137.3828125 88.671875 C142.82354356 81.10403813 147.97912002 73.33023534 153.21630859 65.62109375 C155.71604114 61.94779391 158.23052277 58.28477566 160.75 54.625 C161.18820068 53.98836426 161.62640137 53.35172852 162.07788086 52.69580078 C162.94828299 51.43155665 163.81880575 50.16739556 164.68945312 48.90332031 C167.4201174 44.93754931 170.14693094 40.96912788 172.8737793 37.00073242 C175.17435856 33.65320747 177.47731818 30.3073693 179.78515625 26.96484375 C180.25050781 26.29001953 180.71585938 25.61519531 181.1953125 24.91992188 C182.05244241 23.6770835 182.9103883 22.43480704 183.76953125 21.19335938 C184.176875 20.60232422 184.58421875 20.01128906 185.00390625 19.40234375 C185.44957443 18.79749146 185.89524261 18.19263916 186.35441589 17.56945801 C188.15641362 14.90697222 188.15641362 14.90697222 189.58442688 11.34033203 C191.69000915 6.86041249 193.95628145 2.973685 198 0 C206.04078671 -2.75781788 215.11699497 -1.74015386 223.4765625 -1.46484375 C225.97327281 -1.4368408 228.47006597 -1.41550115 230.96688843 -1.40052795 C236.84765255 -1.34927321 242.72405682 -1.23131995 248.60304105 -1.08028561 C255.95986387 -0.89543337 263.31722701 -0.81545834 270.67578125 -0.73242188 C283.78599975 -0.57190547 296.89273046 -0.31907185 310 0 C309.06209124 1.42329932 308.12195535 2.84513116 307.1809082 4.26635742 C306.65761429 5.05830002 306.13432037 5.85024261 305.59516907 6.66618347 C303.29774264 10.02743958 300.7688338 13.16744626 298.1875 16.3125 C293.80413911 21.7233061 289.54808107 27.20251521 285.39453125 32.79296875 C282.54876894 36.61843961 279.64900978 40.40231321 276.75 44.1875 C276.19836182 44.9079248 275.64672363 45.62834961 275.07836914 46.37060547 C273.94888018 47.84532952 272.81924035 49.31993803 271.68945312 50.79443359 C268.95733178 54.36119432 266.22880728 57.93070359 263.5 61.5 C262.4166848 62.91668053 261.33335145 64.33334718 260.25 65.75 C259.71375 66.45125 259.1775 67.1525 258.625 67.875 C240.75 91.25 240.75 91.25 239.12573242 93.37402344 C238.03993353 94.79392684 236.95415888 96.21384878 235.8684082 97.63378906 C233.19799415 101.12608433 230.52719105 104.61808046 227.85546875 108.109375 C221.21696551 116.78543864 214.59040142 125.47050248 207.97290039 134.16259766 C204.7089914 138.44873078 201.441535 142.73203914 198.1640625 147.0078125 C197.5659375 147.78833984 196.9678125 148.56886719 196.3515625 149.37304688 C195.22998724 150.83591596 194.10763531 152.29819001 192.984375 153.75976562 C192.48679687 154.40880859 191.98921875 155.05785156 191.4765625 155.7265625 C190.8280835 156.57081787 190.8280835 156.57081787 190.16650391 157.43212891 C187.76842616 160.27559894 187.76842616 160.27559894 187.125 163.75 C188.40366794 167.03800328 190.18597238 169.98748958 192 173 C192.43368896 173.72856201 192.86737793 174.45712402 193.31420898 175.20776367 C201.16364006 188.35171297 209.15502263 201.41186696 217.12353516 214.48388672 C219.20890238 217.90498473 221.29267359 221.32705028 223.375 224.75 C223.71944153 225.31606964 224.06388306 225.88213928 224.41876221 226.46536255 C230.75105999 236.87906013 236.97124452 247.35770869 243.1781311 257.84649658 C247.75222796 265.57308082 252.35101894 273.27500675 257.16162109 280.85742188 C261.41050296 287.58496838 265.47725842 294.42245507 269.5625 301.25 C275.63329083 311.39555301 281.73074507 321.52375406 287.875 331.625 C292.91083046 339.90765768 297.94124129 348.19339332 302.9375 356.5 C303.42782715 357.31291504 303.9181543 358.12583008 304.42333984 358.96337891 C304.87016113 359.70765137 305.31698242 360.45192383 305.77734375 361.21875 C306.16140381 361.85748047 306.54546387 362.49621094 306.94116211 363.15429688 C308.0355081 365.0618956 309.01648325 367.03296649 310 369 C274.69 369 239.38 369 203 369 C195.08 355.14 195.08 355.14 187 341 C181.7163101 331.9620329 181.7163101 331.9620329 176.4296875 322.92578125 C172.27566199 315.78479101 168.26377578 308.56585216 164.24511719 301.34814453 C159.73305346 293.26287825 155.09936617 285.25503289 150.41259766 277.27001953 C147.14258976 271.69220241 143.90308683 266.0986759 140.703125 260.48046875 C140.34181488 259.84628525 139.98050476 259.21210175 139.60824585 258.55870056 C137.84496025 255.46187187 136.08496546 252.36321689 134.32861328 249.26245117 C133.69165527 248.14201416 133.05469727 247.02157715 132.3984375 245.8671875 C131.83817871 244.87831543 131.27791992 243.88944336 130.70068359 242.87060547 C128.90054601 239.83213034 126.98317072 236.92139844 125 234 C121.51449046 237.39016126 118.10835104 240.81145899 114.9375 244.5 C110.81743908 249.28488893 106.48238044 253.86501712 102.15014648 258.45703125 C101.57337158 259.070625 100.99659668 259.68421875 100.40234375 260.31640625 C99.63651978 261.12766968 99.63651978 261.12766968 98.85522461 261.95532227 C98.24300049 262.63006592 97.63077637 263.30480957 97 264 C96.51605491 264.45761719 96.03210981 264.91523438 95.53349972 265.38671875 C91.52548387 269.46484603 90.3037281 272.39710305 90.1900177 278.09014893 C90.20223862 278.98135437 90.21445953 279.87255981 90.22705078 280.79077148 C90.21642105 281.74764359 90.20579132 282.70451569 90.19483948 283.69038391 C90.16686753 286.8344944 90.18082733 289.9769166 90.1953125 293.12109375 C90.18405851 295.30828818 90.1701762 297.49547053 90.15377808 299.68263245 C90.11776228 305.42514652 90.11736389 311.16712793 90.12445068 316.909729 C90.12552473 323.80736697 90.08224174 330.70485279 90.04641724 337.60237885 C89.99701239 348.06852857 90.0038587 358.5332881 90 369 C60.3 369 30.6 369 0 369 C0 247.23 0 125.46 0 0 Z" transform="translate(741 149)"/><path fill="#190764" d="M0 0 C84.15 0 168.3 0 255 0 C255 22.77 255 45.54 255 69 C200.55 69 146.1 69 90 69 C90 94.41 90 119.82 90 146 C135.87 146 181.74 146 229 146 C229 168.11 229 190.22 229 213 C183.13 213 137.26 213 90 213 C90 241.71 90 270.42 90 300 C144.45 300 198.9 300 255 300 C255 322.77 255 345.54 255 369 C170.85 369 86.7 369 0 369 C0 247.23 0 125.46 0 0 Z" transform="translate(1935 149)"/><path fill="#190764" d="M0 0 C28.71 0 57.42 0 87 0 C87.33 43.89 87.66 87.78 88 133 C91.96 129.7 95.92 126.4 100 123 C108.79156886 116.92482402 117.5921514 113.35273206 128 111 C128.75120117 110.8256543 129.50240234 110.65130859 130.27636719 110.47167969 C146.67962311 107.63095806 166.22405105 108.96160793 182 114 C183.73830078 114.54333984 183.73830078 114.54333984 185.51171875 115.09765625 C210.9083374 123.9639314 228.56689505 143.35326082 240 167 C262.11987714 214.37779241 261.10664591 280.10732422 243.75 328.8125 C238.67501263 342.32343057 231.73699818 354.29807407 222 365 C221.37738281 365.70382812 220.75476562 366.40765625 220.11328125 367.1328125 C204.8206541 383.48342014 182.63787394 392.81548843 160.49658203 394.22265625 C156.76580576 394.33897665 153.04507706 394.38047508 149.3125 394.375 C148.65491699 394.37412384 147.99733398 394.37324768 147.31982422 394.37234497 C126.80763016 394.28239559 109.80569145 389.62885969 94 376 C93.36449219 375.484375 92.72898437 374.96875 92.07421875 374.4375 C88.09715543 371.16728091 85.42802365 368.11362837 82 364 C80.68 372.25 79.36 380.5 78 389 C52.26 389 26.52 389 0 389 C0 260.63 0 132.26 0 0 Z M94.5625 186.375 C87.97448401 193.12369931 86.25692651 198.61889115 86.3371582 207.97070312 C86.32679031 209.04166733 86.31642242 210.11263153 86.30574036 211.21604919 C86.27874905 214.73817831 86.28831557 218.25905546 86.30078125 221.78125 C86.29486964 224.23930202 86.28762179 226.69735116 86.27909851 229.15539551 C86.26723189 234.29987624 86.27390444 239.44392394 86.29321289 244.58837891 C86.3161041 251.17260429 86.28930839 257.75553956 86.24815083 264.33963776 C86.22254655 269.41327647 86.22515997 274.48660755 86.23604393 279.56028748 C86.23752829 281.98751497 86.22986767 284.41476631 86.21279335 286.8419342 C86.19277592 290.23851248 86.21125216 293.63282224 86.23950195 297.02929688 C86.22578552 298.02589828 86.21206909 299.02249969 86.19793701 300.04930115 C86.33099227 308.07543842 89.21417284 312.18624708 94.74214649 317.75499725 C104.21167807 326.77014935 117.13377524 328.5001196 129.73046875 328.24609375 C139.91314655 327.47965564 148.41314369 324.58685631 155.7109375 317.2890625 C167.71345863 302.84948124 168.53637922 280.97689583 169 263 C169.03287109 261.80383057 169.03287109 261.80383057 169.06640625 260.58349609 C170.0098851 220.38813869 170.0098851 220.38813869 152.6328125 185.4609375 C136.4365781 170.96956988 111.05241225 173.96549971 94.5625 186.375 Z" transform="translate(1356 129)"/><path fill="#190764" d="M0 0 C2.44799446 0.01611486 4.89433912 0.0000091 7.34228516 -0.01904297 C21.93328371 -0.0393339 36.73288682 1.40194601 50.63525391 6.07861328 C51.79541016 6.45880615 51.79541016 6.45880615 52.97900391 6.84667969 C76.28646537 14.79543956 96.3147382 29.39917406 107.94775391 51.39111328 C108.42728516 52.27025391 108.90681641 53.14939453 109.40087891 54.05517578 C116.89766754 69.00359168 118.08774198 85.83967912 118.12133789 102.27001953 C118.12765613 103.65261538 118.1344233 105.03520925 118.14160156 106.4178009 C118.15618952 109.38056008 118.16794745 112.34331184 118.17754936 115.30609131 C118.19312516 120.00780808 118.21707649 124.70946003 118.2424469 129.41113281 C118.31331421 142.77632524 118.3732099 156.14155472 118.42456055 169.50683594 C118.45303927 176.89991136 118.48851352 184.29292207 118.5312143 191.6859293 C118.55339766 195.58587914 118.57199791 199.48577014 118.58166313 203.38577271 C118.29374328 238.72498146 118.29374328 238.72498146 128.99462891 272.02392578 C129.94775391 274.39111328 129.94775391 274.39111328 129.94775391 279.39111328 C101.23775391 279.39111328 72.52775391 279.39111328 42.94775391 279.39111328 C40.16483458 273.82527463 38.26025532 269.69468995 36.69775391 263.89111328 C36.36259766 262.66392578 36.02744141 261.43673828 35.68212891 260.17236328 C35.43978516 259.25455078 35.19744141 258.33673828 34.94775391 257.39111328 C34.38830078 258.00857422 33.82884766 258.62603516 33.25244141 259.26220703 C18.38217151 274.96922845 -0.75345605 284.0726808 -22.56787109 284.82470703 C-25.14588898 284.84824381 -27.7242018 284.84905479 -30.30224609 284.82861328 C-30.97756378 284.82523956 -31.65288147 284.82186584 -32.34866333 284.81838989 C-49.91856072 284.69166708 -64.4023503 281.26511373 -80.05224609 273.39111328 C-81.11056641 272.86775391 -82.16888672 272.34439453 -83.25927734 271.80517578 C-101.1056412 262.21538655 -114.91395003 245.35182778 -121.11865234 226.07861328 C-126.79016505 204.15972361 -125.16142857 179.65301407 -114.48974609 159.43017578 C-100.10796511 135.66028777 -77.58148222 124.33586948 -51.61474609 117.26611328 C-32.20682421 112.74538761 -12.97274707 111.97774432 6.88525391 112.20361328 C9.2374587 112.21871546 11.58967308 112.2323939 13.94189453 112.24462891 C19.61072948 112.27713121 25.27919413 112.32687494 30.94775391 112.39111328 C30.81329159 108.70069787 30.66852775 105.01075418 30.52197266 101.32080078 C30.46535461 99.76171997 30.46535461 99.76171997 30.40759277 98.17114258 C29.95573247 87.05758326 28.73970234 76.97456889 20.94775391 68.39111328 C12.80932458 61.51641522 3.23359368 60.58489069 -7.05224609 61.39111328 C-14.86187137 62.53499981 -21.13828142 65.00527712 -26.05224609 71.39111328 C-29.2817043 77.69043438 -30.16716775 83.31048653 -31.05224609 90.39111328 C-59.43224609 90.39111328 -87.81224609 90.39111328 -117.05224609 90.39111328 C-117.05224609 66.84605665 -109.43965949 49.06418722 -93.17724609 32.14111328 C-88.49066396 27.61218376 -83.53863074 23.89030349 -78.05224609 20.39111328 C-77.28525391 19.87935547 -76.51826172 19.36759766 -75.72802734 18.84033203 C-53.64097356 4.71191912 -25.79535057 -0.20076206 0 0 Z M-29.05224609 171.39111328 C-36.60833585 179.71262512 -37.78829983 189.78319827 -37.40380859 200.66845703 C-36.70885162 208.02727919 -33.70498696 212.65858605 -28.05224609 217.39111328 C-18.45615501 223.72815456 -9.40586356 224.32399098 1.76025391 222.26611328 C13.04250456 219.71186984 22.73837483 214.09539898 29.64898682 204.74145508 C31.9336638 200.60694024 31.68908029 196.60701299 31.53369141 191.98486328 C31.52095688 190.53690369 31.52095688 190.53690369 31.50796509 189.05969238 C31.47460622 186.00232265 31.39936065 182.94767411 31.32275391 179.89111328 C31.29263164 177.80781827 31.26525981 175.72448156 31.24072266 173.64111328 C31.17487233 168.55674512 31.07147318 163.47438915 30.94775391 158.39111328 C26.43116677 158.34117653 21.91473165 158.30514326 17.39794922 158.28125 C15.86569413 158.27127522 14.33345765 158.25769052 12.80126953 158.24023438 C-3.37778938 158.06070174 -17.25894906 159.21072772 -29.05224609 171.39111328 Z" transform="translate(2475.052 238.609)"/><path fill="#190764" d="M0 0 C0.78015472 -0.00794586 1.56030945 -0.01589172 2.36410522 -0.02407837 C34.99559004 -0.27902189 66.17559127 10.10918012 89.6875 33.1875 C100.10842875 43.79029737 107.25313987 55.91459938 113.375 69.375 C113.84808594 70.40882813 114.32117187 71.44265625 114.80859375 72.5078125 C127.62823429 103.09922888 125.375 137.02184513 125.375 169.375 C69.605 169.705 13.835 170.035 -43.625 170.375 C-37.59411787 188.46764639 -31.72000353 200.97966983 -15.13671875 210.6484375 C2.81577478 219.47491374 23.48328229 218.88301121 42.33203125 213.2734375 C55.87972367 208.64302443 69.22292329 201.60311506 77.375 189.375 C81.07516395 190.60838798 81.92203034 192.01320444 84.3125 195.0625 C87.91578532 199.5797894 91.59600916 204.00377926 95.375 208.375 C99.77963771 213.48312724 104.09609482 218.65008131 108.32421875 223.90625 C110.82652319 226.91854791 113.5015182 229.74264281 116.2578125 232.5234375 C117.375 234.375 117.375 234.375 117.33984375 236.75390625 C111.78287734 251.84995669 89.15670928 264.9097521 75.375 271.375 C57.64904202 279.22553789 39.20715741 284.46808058 19.73046875 284.578125 C18.92120438 284.58382507 18.11194 284.58952515 17.27815247 284.59539795 C15.56964398 284.60479274 13.86111782 284.61135979 12.15258789 284.61523438 C9.60723797 284.62483132 7.06273551 284.65586164 4.51757812 284.6875 C-10.38050428 284.7843592 -25.21803997 283.27188022 -39.5 278.8125 C-40.71345093 278.43895386 -40.71345093 278.43895386 -41.95141602 278.05786133 C-61.63237985 271.68888013 -78.7059583 261.66824297 -93.625 247.375 C-94.37265625 246.69050781 -95.1203125 246.00601563 -95.890625 245.30078125 C-102.51280429 239.03749629 -107.56471213 231.90283265 -112.625 224.375 C-113.18058594 223.57707031 -113.73617188 222.77914062 -114.30859375 221.95703125 C-128.92866619 199.57128348 -133.05592487 172.03002411 -132.9375 145.875 C-132.93567719 145.03939545 -132.93385437 144.20379089 -132.93197632 143.34286499 C-132.88367498 130.17044542 -132.34449809 117.30599929 -129.625 104.375 C-129.45871094 103.57723145 -129.29242187 102.77946289 -129.12109375 101.95751953 C-124.0807824 78.80475602 -114.64184498 57.0236552 -98.625 39.375 C-97.92165527 38.59793701 -97.92165527 38.59793701 -97.20410156 37.80517578 C-81.1740298 20.32772861 -60.59634139 9.06681856 -37.625 3.375 C-36.98095215 3.21128906 -36.3369043 3.04757813 -35.67333984 2.87890625 C-23.94026129 0.0697002 -11.99600916 0.06412101 0 0 Z M-29.625 77.375 C-39.11720566 88.79219841 -41.70402604 100.77013019 -44.625 115.375 C-16.575 115.375 11.475 115.375 40.375 115.375 C40.375 98.68155673 40.09276403 88.72348687 29.25 76.6875 C21.18229479 69.05541603 10.17382118 66.59638589 -0.65234375 66.2890625 C-11.2126207 66.59435303 -21.99338976 69.74338976 -29.625 77.375 Z" transform="translate(1771.625 238.625)"/><path fill="#190764" d="M0 0 C28.38 0 56.76 0 86 0 C86.04898437 12.77074219 86.09796875 25.54148437 86.1484375 38.69921875 C86.18382963 46.79753275 86.21971324 54.89583966 86.2578125 62.99414062 C86.31817235 75.8434893 86.37654576 88.69282466 86.421875 101.54223633 C86.45490125 110.90151527 86.49479063 120.26073603 86.54279006 129.61995059 C86.56794968 134.57177731 86.58976162 139.52356594 86.60334396 144.47543907 C86.61626052 149.14494135 86.6384164 153.81431233 86.66738319 158.48374176 C86.67638453 160.18919001 86.68213159 161.89465935 86.68421364 163.60013008 C86.3978075 185.06280537 86.3978075 185.06280537 95.56640625 203.84375 C102.40639139 210.31872433 111.65467347 212.02179542 120.83203125 211.984375 C134.89236959 211.15648462 147.18375423 208.64083868 157.2421875 197.95767212 C162.99379846 190.4950838 162.10289768 182.23645708 162 173.23974609 C162.00761517 171.34665269 162.01874164 169.45357066 162.03309631 167.56051636 C162.06201077 162.44514121 162.0420607 157.33100562 162.0130806 152.21567488 C161.99113967 146.86112981 162.01449108 141.50678289 162.03295898 136.1522522 C162.06105222 126.02345591 162.04863937 115.89513394 162.02153492 105.76635134 C161.98724217 92.07182432 162.01580151 78.37743604 162.04076958 64.68291283 C162.07842931 43.12169594 162.03235639 21.56148876 162 0 C190.38 0 218.76 0 248 0 C248 90.42 248 180.84 248 274 C221.27 274 194.54 274 167 274 C166.01 263.605 166.01 263.605 165 253 C164.67 251.35 164.34 249.7 164 248 C163.30777344 248.75023437 162.61554688 249.50046875 161.90234375 250.2734375 C144.97455739 268.16860994 124.22807639 278.66574132 99.31640625 279.3984375 C96.7317899 279.41107019 94.14699626 279.40293439 91.5625 279.375 C90.88745422 279.37067963 90.21240845 279.36635925 89.51690674 279.36190796 C64.62332394 279.17541024 42.30699315 272.62988518 24 255 C14.01340336 244.05254785 7.9511884 230.62555403 4.125 216.4375 C3.83834473 215.37873657 3.83834473 215.37873657 3.54589844 214.29858398 C0.06821102 200.22531082 -0.2884717 186.05174956 -0.22705078 171.65039062 C-0.22648515 169.76628119 -0.22680618 167.88217132 -0.22793579 165.99806213 C-0.2285044 160.93508185 -0.21683072 155.87219834 -0.20278788 150.80924034 C-0.19019755 145.49884927 -0.18910352 140.18845545 -0.18673706 134.87805176 C-0.18054651 124.84521992 -0.16416884 114.8124322 -0.14403808 104.77961969 C-0.11739973 91.20590604 -0.10668682 77.63218013 -0.09503365 64.05844688 C-0.07628625 42.70559827 -0.03642449 21.35284273 0 0 Z" transform="translate(1061 244)"/><path fill="#190764" d="M0 0 C0.82283478 -0.00701431 1.64566956 -0.01402863 2.49343872 -0.02125549 C5.13630696 -0.03867823 7.77895143 -0.04510806 10.421875 -0.046875 C11.77312469 -0.04788712 11.77312469 -0.04788712 13.15167236 -0.04891968 C26.04199116 -0.03354361 38.57237388 0.21500802 51.171875 3.203125 C52.2846582 3.45255859 52.2846582 3.45255859 53.41992188 3.70703125 C79.01645198 9.57879262 102.86987181 22.23947387 118.171875 44.203125 C120.38472008 47.77850896 122.33803157 51.4204808 124.171875 55.203125 C124.74228516 56.36908203 124.74228516 56.36908203 125.32421875 57.55859375 C129.92487458 67.9230901 131.171875 78.96974068 131.171875 90.203125 C102.461875 90.203125 73.751875 90.203125 44.171875 90.203125 C43.841875 86.573125 43.511875 82.943125 43.171875 79.203125 C41.06571372 71.0469122 37.02984414 66.01260985 30.171875 61.203125 C20.45804576 56.54738436 7.15107321 56.46216602 -2.953125 59.890625 C-4.60065738 60.61204448 -6.2293538 61.37926841 -7.828125 62.203125 C-8.50359375 62.54214844 -9.1790625 62.88117188 -9.875 63.23046875 C-15.25169929 66.45878606 -17.90136022 71.3461011 -19.828125 77.203125 C-20.81612623 82.94913214 -20.27595093 88.24037531 -17.33203125 93.328125 C-7.55232914 105.52100036 10.43445943 108.16806083 24.81744385 111.2817688 C84.58978835 124.31674732 84.58978835 124.31674732 107.171875 144.203125 C108.203125 144.986875 109.234375 145.770625 110.296875 146.578125 C124.16547838 159.24076287 129.90850944 175.78952981 130.984375 194.140625 C131.86634302 214.68876557 125.90276062 233.17665096 112.2265625 248.62109375 C91.04694307 271.36528604 59.49626726 282.75213908 28.85092163 284.32202148 C23.73789013 284.49951487 18.62770616 284.53154217 13.51196289 284.51879883 C10.87278771 284.51564105 8.23474078 284.53919331 5.59570312 284.56445312 C-9.18616547 284.62016617 -23.57270023 282.97473764 -37.765625 278.640625 C-38.58353516 278.39159424 -39.40144531 278.14256348 -40.24414062 277.88598633 C-54.44552467 273.29774223 -67.40902784 265.75857129 -78.828125 256.203125 C-79.69695313 255.49671875 -80.56578125 254.7903125 -81.4609375 254.0625 C-97.23144699 240.65515554 -106.80967041 222.29539794 -110.828125 202.203125 C-110.828125 198.573125 -110.828125 194.943125 -110.828125 191.203125 C-84.428125 191.203125 -58.028125 191.203125 -30.828125 191.203125 C-29.508125 196.153125 -28.188125 201.103125 -26.828125 206.203125 C-22.14724042 215.43838376 -15.60935676 220.8347538 -5.828125 224.203125 C6.79206357 228.08625995 22.9181475 227.92043872 34.76953125 221.87890625 C40.52749285 218.31177882 44.00107594 214.71552219 46.171875 208.203125 C46.73815716 202.37320379 47.04177204 196.72088877 43.59765625 191.75 C31.74404784 178.88964677 9.35551557 176.012466 -6.82666016 172.10131836 C-40.03170964 164.03233155 -75.50569814 152.20537981 -94.515625 121.515625 C-103.87709138 104.91742956 -105.40455568 84.75883739 -100.80273438 66.42211914 C-97.21255887 53.70592028 -90.76816877 42.89498232 -81.828125 33.203125 C-81.27769531 32.57277344 -80.72726563 31.94242187 -80.16015625 31.29296875 C-60.75266713 10.25620894 -27.73800716 0.15830912 0 0 Z" transform="translate(2735.828 238.797)"/><path fill="#190764" d="M0 0 C28.38 0 56.76 0 86 0 C86 22.44 86 44.88 86 68 C100.85 68 115.7 68 131 68 C131 87.8 131 107.6 131 128 C116.15 128 101.3 128 86 128 C86.06295822 145.16846255 86.13820851 162.33672329 86.23571491 179.50501823 C86.28060196 187.47729034 86.32003281 195.44951848 86.34643555 203.421875 C86.36947325 210.37391103 86.40293527 217.32580711 86.44870156 224.27773201 C86.47255634 227.95572273 86.49133565 231.6335755 86.49761391 235.31164169 C86.50483377 239.42654764 86.53533548 243.54097606 86.56762695 247.65576172 C86.56619186 248.86345718 86.56475677 250.07115265 86.5632782 251.31544495 C86.64152054 258.38468738 87.56229733 264.36266386 90 271 C90.495 272.485 90.495 272.485 91 274 C93.29534258 275.13545562 93.29534258 275.13545562 96 276 C96.763125 276.350625 97.52625 276.70125 98.3125 277.0625 C109.66419382 281.02239319 123.55428673 278.76304755 135 278 C135 298.46 135 318.92 135 340 C129.72862624 341.97676516 125.37890269 343.51254513 120 344.625 C118.865625 344.86476563 117.73125 345.10453125 116.5625 345.3515625 C110.04196613 346.53841406 103.67112933 347.16475171 97.046875 347.23828125 C96.31286972 347.2480751 95.57886444 347.25786896 94.82261658 347.26795959 C63.65637188 347.59848917 63.65637188 347.59848917 49 343 C47.96842773 342.67854004 47.96842773 342.67854004 46.91601562 342.35058594 C37.88978634 339.40613223 30.2575095 335.13376609 23 329 C21.92492188 328.11054687 21.92492188 328.11054687 20.828125 327.203125 C7.58458428 315.19154156 0.73464825 295.013304 -0.18054581 277.5561161 C-0.24479241 273.60532583 -0.24798545 269.65729528 -0.22705078 265.70629883 C-0.22648545 264.19730639 -0.22680561 262.68831341 -0.22793579 261.17932129 C-0.22850554 257.11600347 -0.216813 253.05280567 -0.20278788 248.98951554 C-0.19021697 244.73078422 -0.18910503 240.47204962 -0.18673706 236.21330261 C-0.18054088 228.16359327 -0.16415546 220.11393878 -0.14403808 212.06425351 C-0.12162088 202.89368486 -0.11067106 193.72311348 -0.10064721 184.55252421 C-0.07978742 165.70164547 -0.04313466 146.85084184 0 128 C-11.55 128 -23.1 128 -35 128 C-35 108.2 -35 88.4 -35 68 C-23.45 68 -11.9 68 0 68 C0 45.56 0 23.12 0 0 Z" transform="translate(2920 176)"/><path fill="#190764" d="M0 0 C28.71 0 57.42 0 87 0 C87 128.37 87 256.74 87 389 C58.29 389 29.58 389 0 389 C0 260.63 0 132.26 0 0 Z" transform="translate(2225 129)"/><path fill="#190764" d="M0 0 C28.71 0 57.42 0 87 0 C87 90.42 87 180.84 87 274 C58.29 274 29.58 274 0 274 C0 183.58 0 93.16 0 0 Z" transform="translate(3088 244)"/><path fill="#190764" d="M0 0 C9.32203945 8.05831227 14.38568579 17.21350141 15.44140625 29.51171875 C15.83068939 41.291765 12.96308527 50.96066531 5.21875 59.91796875 C-3.25111621 68.91500506 -14.03517257 73.76421347 -26.35546875 74.25390625 C-43.7346602 74.51243267 -56.81421018 73.14373551 -70.03515625 60.81640625 C-78.64770736 51.83905095 -81.18284007 41.65869477 -81.05859375 29.46875 C-80.13825161 17.68577811 -75.46968117 9.1755239 -67.03125 1.23046875 C-48.86515032 -13.75997817 -18.73075589 -14.26091642 0 0 Z" transform="translate(3163.781 141.082)"/></svg>