<svg xmlns="http://www.w3.org/2000/svg" role="img" viewBox="-5.79 12.46 444.08 406.83"><style>svg {enable-background:new 0 0 432 432}</style><style>.st1{fill:#274d64}.st2{opacity:.9}.st3{opacity:.85}.st4{opacity:.8}.st5{opacity:.7}</style><path d="M244.2 259.2v-.2l13.7-80.1zm98.8-80.5l-44.4 80.2-84 152.1 84-152.1 44.4-80.2 48.5-88-48.5 88zm1.5-157.5l-14.2 26.1 14.2-26.1zM77.1 158.4l54.4-58.4-54.4 58.4zm11.6 21.2l60.1-47.8zm0 0l-4.1-7.4 4.1 7.4 42.7 78.5 7 12.8-7-12.8zm15-27.9l27.8-51.7 17.3 31.8 33.5 61.8-33.5-61.8-17.3-31.8-43-78.8 43 78.8zM229 279.6l.2.3 8.1 14.8z" class="st1"/><path d="M285.9 128.1l-28 50.7-31.2 57.4 31.2-57.3z" class="st1"/><path d="M174.2 336.9l40.4 74.1 22.3-114.4z" class="st2"/><path d="M237.3 294.7l-8.1-14.8-27.6-50.8-27.4 107.8 62.7-40.3z" class="st3"/><path d="M131.4 258.1l7 12.8 35.8 66 27.4-107.8z" class="st4"/><path d="M131.4 258.1l70.2-29-19.3-35.5-33.5-61.8z" class="st2"/><path d="M244.2 259.2l13.7-80.3-31.2 57.3-10.6 19.6 12.9 23.8 8.3 15.1z" class="st5"/><path d="M88.7 179.6l42.7 78.5 17.4-126.3z" class="st3"/><path d="M298.6 258.9l44.4-80.2-98.8 80.3z" class="st2"/><path d="M131.5 100l-27.8 51.7-15 27.9 60.1-47.8z" class="st5"/><path d="M244.2 259l56.9-158.5-15.2 27.6-28 50.8z" opacity=".6"/><path d="M88.7 179.6l15-27.9 27.8-51.7-54.4 58.4 7.5 13.8 4.1 7.4z" class="st2"/><path d="M343 178.7l-41.9-78.2L244.2 259zM77.1 158.4l54.4-58.4-43-78.8-11.4 137.2z" class="st3"/><path d="M343 178.7l1.5-157.5-14.2 26.1-29.2 53.2 41.9 78.2z" class="st4"/><path d="M88.5 21.2H2.8l74.3 137.2z" class="st5"/><path d="M344.5 21.2L343 178.7l48.5-88 38.3-69.5z" class="st2"/><path d="M244.2 259v.2l-6.9 35.5-.4 1.9L214.6 411l84-152.1z"/></svg>