<?xml version="1.0" encoding="UTF-8"?>
<svg xmlns="http://www.w3.org/2000/svg" viewBox="0 0 1920 600">
  <defs>
    <style>
      .cls-1 {
        isolation: isolate;
      }

      .cls-2 {
        fill: #fff;
      }
    </style>
  </defs>
  <rect class="cls-2" width="1920" height="600"/>
  <g id="Layer_1" data-name="Layer 1">
    <g>
      <g id="path14">
        <path d="M500.51,485.54c-17.8,0-26.34,6.77-36.22,14.62-10.73,8.52-22.9,18.17-46.41,18.17s-35.68-9.65-46.41-18.17c-9.88-7.84-18.41-14.62-36.21-14.62s-26.33,6.77-36.21,14.62c-10.73,8.52-22.89,18.17-46.41,18.17s-35.67-9.65-46.4-18.17c-9.88-7.84-18.42-14.62-36.21-14.62s-26.33,6.77-36.21,14.62c-7.64,6.72-16.52,11.89-26.14,15.22,46.08,40.62,104.04,65.3,165.27,70.36,1.71.14,3.43.28,5.16.39,6.17.4,12.37.67,18.63.67s12.47-.27,18.64-.67c1.72-.12,3.44-.25,5.16-.39,74.85-6.24,144.25-41.65,193.23-98.59-4.34-1.1-8.8-1.64-13.27-1.6"/>
      </g>
      <g id="path16">
        <path d="M87.43,271.65c19.35,0,28.89-7.57,38.99-15.59,10.65-8.46,21.67-17.2,43.62-17.2s32.97,8.75,43.62,17.2c10.1,8.02,19.64,15.59,38.99,15.59s28.89-7.57,38.99-15.59c10.65-8.46,21.67-17.2,43.63-17.2s32.97,8.75,43.62,17.2c10.1,8.02,19.63,15.59,38.99,15.59s28.89-7.57,38.99-15.59c10.65-8.46,21.67-17.2,43.63-17.2s32.97,8.75,43.63,17.2c9.9,7.86,19.33,15.26,37.95,15.53-2.56-25.72-8.61-50.97-17.99-75.06-8.71-3.15-16.74-7.92-23.67-14.05-10.31-8.18-20.05-15.91-39.92-15.91s-29.61,7.73-39.92,15.91c-10.46,8.3-21.27,16.88-42.7,16.88s-32.24-8.58-42.7-16.88c-10.31-8.18-20.04-15.91-39.91-15.91s-29.61,7.73-39.92,15.91c-10.46,8.3-21.27,16.88-42.7,16.88s-32.24-8.58-42.7-16.88c-10.31-8.18-20.04-15.91-39.92-15.91s-29.61,7.73-39.91,15.91c-10.46,8.3-21.27,16.88-42.7,16.88s-32.24-8.58-42.7-16.88c-2.32-1.84-4.62-3.64-7-5.35-9.53,20.01-16.69,41.07-21.33,62.75,14.55,2.47,23.46,9.38,32.04,16.19,10.1,8.02,19.64,15.59,38.99,15.59"/>
      </g>
      <g id="path18">
        <path d="M87.43,194.89c19.87,0,29.61-7.73,39.91-15.91,10.45-8.3,21.26-16.88,42.7-16.88s32.24,8.58,42.7,16.88c10.31,8.18,20.04,15.91,39.92,15.91s29.61-7.73,39.92-15.91c10.45-8.3,21.26-16.88,42.7-16.88s32.24,8.58,42.69,16.88c10.31,8.18,20.04,15.91,39.92,15.91s29.61-7.73,39.92-15.91c10.46-8.3,21.27-16.88,42.71-16.88s32.25,8.58,42.7,16.88c5.62,4.87,11.92,8.9,18.69,11.97C501.71,44.54,334.23-25.38,187.81,34.8,123.27,61.33,70.62,110.49,39.74,173.06c2.7,1.91,5.25,3.92,7.77,5.92,10.31,8.18,20.04,15.91,39.92,15.91"/>
      </g>
      <g id="path20">
        <path d="M500.51,405.79c-18.32,0-27.05,6.93-37.14,14.94-10.54,8.37-22.49,17.85-45.48,17.85s-34.94-9.48-45.48-17.85c-10.1-8.02-18.82-14.94-37.13-14.94s-27.04,6.93-37.14,14.94c-10.54,8.37-22.49,17.85-45.48,17.85s-34.94-9.48-45.48-17.85c-10.1-8.02-18.82-14.94-37.13-14.94s-27.03,6.93-37.13,14.94c-10.54,8.37-22.48,17.85-45.48,17.85s-34.94-9.48-45.48-17.85c-2.67-2.12-5.26-4.15-7.95-6.01,14.19,32.36,34.22,61.82,59.07,86.93,14.05-1.29,21.79-7.38,30.55-14.34,10.73-8.52,22.89-18.17,46.4-18.17s35.67,9.66,46.4,18.17c9.88,7.84,18.41,14.62,36.21,14.62s26.33-6.77,36.21-14.62c10.73-8.52,22.89-18.17,46.41-18.17s35.67,9.66,46.4,18.17c9.89,7.84,18.42,14.62,36.21,14.62s26.33-6.77,36.21-14.62c10.73-8.52,22.9-18.17,46.42-18.17,8.33-.12,16.6,1.37,24.35,4.39,10.24-13.45,19.28-27.77,27-42.81-4.99-2.95-9.75-6.3-14.22-9.99-10.09-8.02-18.82-14.94-37.14-14.94"/>
      </g>
      <g id="path22">
        <path d="M582.65,279.05c-21.59-.15-32.58-8.77-43.15-17.15-10.09-8.02-19.64-15.59-38.99-15.59s-28.9,7.57-39,15.59c-10.65,8.46-21.67,17.2-43.63,17.2s-32.97-8.75-43.63-17.2c-10.1-8.02-19.64-15.59-38.98-15.59s-28.9,7.57-38.99,15.59c-10.66,8.46-21.67,17.2-43.63,17.2s-32.97-8.75-43.62-17.2c-10.1-8.02-19.64-15.59-38.99-15.59s-28.89,7.57-38.99,15.59c-10.65,8.46-21.67,17.2-43.62,17.2s-32.97-8.75-43.62-17.2c-8.14-6.46-16-12.56-28.84-14.71-2.58,13.79-4.15,27.76-4.68,41.78-.14,3.68-.28,7.35-.28,11.06s.14,7.39.28,11.07c.06,1.6.09,3.21.18,4.81,18.8,1.44,29.48,9.75,38.91,17.23,9.89,7.85,19.23,15.26,38.06,15.26s28.17-7.41,38.06-15.26c10.35-8.22,22.08-17.53,44.55-17.53s34.2,9.31,44.55,17.53c9.89,7.85,19.23,15.26,38.06,15.26s28.18-7.41,38.06-15.26c10.35-8.22,22.08-17.53,44.56-17.53s34.2,9.31,44.55,17.53c9.89,7.85,19.23,15.26,38.07,15.26s28.18-7.41,38.07-15.26c10.35-8.22,22.08-17.53,44.56-17.53s34.2,9.31,44.55,17.53c9.19,7.29,18.01,14.14,34.32,15.08,1.48-8.72,2.56-17.57,3.23-26.54.27-3.51.49-7.02.62-10.56v-22.16c-.13-3.54-.57-9.91-.57-9.91"/>
      </g>
      <g id="path24">
        <path d="M500.51,326.05c-18.84,0-28.18,7.41-38.07,15.27-10.35,8.21-22.08,17.52-44.55,17.52s-34.2-9.31-44.55-17.52c-9.89-7.85-19.23-15.27-38.06-15.27s-28.18,7.41-38.07,15.27c-10.35,8.21-22.08,17.52-44.55,17.52s-34.2-9.31-44.55-17.52c-9.89-7.85-19.23-15.27-38.06-15.27s-28.17,7.41-38.06,15.27c-10.35,8.21-22.08,17.52-44.55,17.52s-34.2-9.31-44.55-17.52c-8.69-6.9-16.96-13.45-31.62-14.94,2.16,23.69,7.28,47.02,15.25,69.44,8.71,3.37,16.76,8.25,23.78,14.41,10.1,8.02,18.82,14.94,37.14,14.94s27.04-6.93,37.13-14.94c10.54-8.37,22.48-17.85,45.48-17.85s34.94,9.48,45.48,17.85c10.1,8.02,18.82,14.94,37.13,14.94s27.04-6.93,37.13-14.94c10.54-8.37,22.49-17.85,45.48-17.85s34.94,9.48,45.47,17.85c10.1,8.02,18.82,14.94,37.14,14.94s27.04-6.93,37.14-14.94c10.54-8.37,22.49-17.85,45.49-17.85s34.94,9.48,45.48,17.85c3.71,3.08,7.62,5.9,11.72,8.45,8.81-19.24,15.44-39.41,19.77-60.13-18.8-1.43-29.48-9.75-38.91-17.23-9.89-7.85-19.23-15.27-38.06-15.27"/>
      </g>
      <g id="g36">
        <g id="text40" class="cls-1">
          <g class="cls-1">
            <path d="M895.39,191.97l-99.3,225.15h-27.86l-99.3-225.15h27.86l85.54,193.69,85.21-193.69h27.86Z"/>
          </g>
          <g class="cls-1">
            <path d="M947.82,216.22v74.06h122.24v24.25h-122.24v78.33h135.68v24.25h-161.57v-225.15h161.57v24.25h-135.68Z"/>
          </g>
          <g class="cls-1">
            <path d="M1262.43,392.86v24.25h-148.46v-225.15h25.56v200.9h122.9Z"/>
          </g>
          <g class="cls-1">
            <path d="M1315.52,216.22v74.06h122.24v24.25h-122.24v78.33h135.68v24.25h-161.57v-225.15h161.57v24.25h-135.68Z"/>
          </g>
          <g class="cls-1">
            <path d="M1598.34,333.87l58.33,83.24h-29.17l-57.02-80.95h-59.65v80.95h-25.56v-225.15h91.43c46.54,0,82.91,29.82,82.91,72.1,0,35.39-25.56,62.27-61.28,69.81ZM1510.83,311.91h61.28c36.7,0,61.61-17.7,61.61-47.85s-24.91-47.85-61.61-47.85h-61.28v95.7Z"/>
          </g>
          <g class="cls-1">
            <path d="M1679.61,304.38c0-63.25,53.09-116.34,115.36-116.34s115.03,53.09,115.03,116.34-52.44,116.67-115.03,116.67-115.36-53.42-115.36-116.67ZM1884.11,304.38c0-50.14-40.64-92.75-89.14-92.75s-89.47,42.6-89.47,92.75,40.96,93.07,89.47,93.07,89.14-42.6,89.14-93.07h0Z"/>
          </g>
        </g>
      </g>
    </g>
  </g>
</svg>