<svg xmlns="http://www.w3.org/2000/svg" role="img" viewBox="2.20 2.95 353.34 353.34"><title>oauth2-proxy-icon-white</title><defs id="defs1"><style id="style1">.cls-1{fill:#fff}</style></defs><path id="path1" fill="#fff" fill-opacity="1" d="M179.00205,349.728c-93.69483,0-169.921-76.22687-169.921-169.9217S85.30722,9.88462,179.00205,9.88462c93.69408,0,169.92021,76.22687,169.92021,169.9217S272.69613,349.728,179.00205,349.728Zm0-327.81581c-87.06238,0-157.89338,70.831-157.89338,157.89411s70.831,157.89411,157.89338,157.89411,157.89411-70.831,157.89411-157.89411S266.06442,21.91221,179.00205,21.91221Z" class="cls-1"/><path id="polygon1" fill="#fff" fill-opacity="1" d="M208.628 90.373L203.724 108.705 243.153 141.064 280.21 136.494 208.628 90.373z"/><path id="polygon2" fill="#fff" fill-opacity="1" d="M304.604 167.593L304.604 133.558 250.778 87.759 208.628 90.373 260.02 131.65 53.401 131.65 53.401 169.893 304.604 167.593z" class="cls-1"/><path id="polygon3" fill="#fff" fill-opacity="1" d="M149.376 261.504L154.28 243.172 113.684 209.179 77.795 215.382 149.376 261.504z"/><path id="polygon4" fill="#fff" fill-opacity="1" d="M53.401 184.283L53.401 218.319 107.226 264.118 149.376 261.504 97.984 220.226 304.604 220.226 304.604 181.984 53.401 184.283z"/></svg>
