<?xml version="1.0" encoding="utf-8"?>
<!-- Generator: Adobe Illustrator 26.0.3, SVG Export Plug-In . SVG Version: 6.00 Build 0)  -->
<svg version="1.1" id="Layer_1" xmlns="http://www.w3.org/2000/svg" xmlns:xlink="http://www.w3.org/1999/xlink" x="0px" y="0px"
	 viewBox="0 0 472 412" style="enable-background:new 0 0 472 412;" xml:space="preserve">
<polygon points="235.6,85.7 171.4,163.5 131.9,175.1 236.1,14.4 340.4,175.1 300.8,163.5 "/>
<polygon points="121.9,261.4 57.8,339.2 18.2,350.8 122.4,190.1 226.7,350.8 187.1,339.2 "/>
<polygon points="349.1,261.4 284.9,339.2 245.3,350.8 349.6,190.1 453.8,350.8 414.2,339.2 "/>
<path d="M235.6,127.5l-46.9,44.7c0,0,19.2,37.6,46.9,50.9c27.8-13.2,47-50.9,47-50.9L235.6,127.5z"/>
<path d="M122.4,303l-47,44.7c0,0,19.2,37.6,47,50.9c27.8-13.2,47-50.9,47-50.9L122.4,303z"/>
<path d="M349.6,303l-47,44.7c0,0,19.2,37.6,47,50.9c27.8-13.2,47-50.9,47-50.9L349.6,303z"/>
</svg>
