<svg xmlns="http://www.w3.org/2000/svg" viewBox="0 0 600 150"><defs><style>.cls-1{fill:#fff;}.cls-2{fill:none;stroke:#fff;stroke-miterlimit:10;stroke-width:2px;}</style></defs><g id="Layer_2" data-name="Layer 2"><g id="Layer_1-2" data-name="Layer 1"><path class="cls-1" d="M598,2V148H2V2H598m2-2H0V150H600V0Z"/><path class="cls-1" d="M26.2,133.57H21V14.92H26.2Zm10.32,0H31.36V14.92h5.16Zm10.32,0H41.68V14.92h5.16Zm10.31,0H52V14.92h5.15Zm3-59.32L90.54,14.92h5.74L65.9,74.25l30.38,59.32H90.54Zm11.61,0,30.31-59.33h5.73L77.5,74.25l30.31,59.32h-5.73Zm11.54,0,30.3-59.33h5.74L89,74.25l30.31,59.32h-5.74Zm11.53,0,30.31-59.33h5.73L100.57,74.25l30.31,59.32h-5.73Z"/><path class="cls-1" d="M279,81.41V14.92h5.16V81.41a54,54,0,0,1-8.09,28.7,58.71,58.71,0,0,1-22,20.92,62.8,62.8,0,0,1-60.26,0,58.71,58.71,0,0,1-22-20.92,53.92,53.92,0,0,1-8.1-28.7V14.92h5.16V81.41a48.63,48.63,0,0,0,4.37,20.21,52.3,52.3,0,0,0,11.75,16.66,57.23,57.23,0,0,0,77.81,0,52.3,52.3,0,0,0,11.75-16.66A48.47,48.47,0,0,0,279,81.41Zm-10.31,0V14.92h5.16V81.41a43.47,43.47,0,0,1-4,18.24,47.85,47.85,0,0,1-10.64,15,50.3,50.3,0,0,1-15.91,10,52.16,52.16,0,0,1-38.69,0,50.25,50.25,0,0,1-15.9-10,47.88,47.88,0,0,1-10.65-15,43.61,43.61,0,0,1-4-18.24V14.92h5.16V81.41a38.75,38.75,0,0,0,6,21,43.37,43.37,0,0,0,16.3,15.26,47.34,47.34,0,0,0,44.78,0,43.45,43.45,0,0,0,16.3-15.26A38.83,38.83,0,0,0,268.67,81.41Zm-10.32,0V14.92h5.16V81.41a33.29,33.29,0,0,1-3.15,14.22,37.52,37.52,0,0,1-8.46,11.72,39.81,39.81,0,0,1-12.61,7.85,42,42,0,0,1-30.67,0A39.93,39.93,0,0,1,196,107.35a37.49,37.49,0,0,1-8.45-11.72,33.29,33.29,0,0,1-3.15-14.22V14.92h5.16V81.41a28.9,28.9,0,0,0,4.62,15.8,33,33,0,0,0,12.53,11.5,37.23,37.23,0,0,0,34.47,0,32.9,32.9,0,0,0,12.54-11.5A28.9,28.9,0,0,0,258.35,81.41Zm-10.32,0V14.92h5.16V81.41q0,10.89-8.6,18.63a31.38,31.38,0,0,1-41.27,0q-8.59-7.74-8.6-18.63V14.92h5.16V81.41q0,8.75,7.06,15a26.35,26.35,0,0,0,34,0Q248,90.15,248,81.41Z"/><path class="cls-1" d="M382,133.57H315.88V14.92H382a46.64,46.64,0,0,1,26.08,8,57.26,57.26,0,0,1,19.31,21.64,64.68,64.68,0,0,1,2.93,52.77,61.38,61.38,0,0,1-11.35,19,53.4,53.4,0,0,1-16.8,12.65A45.83,45.83,0,0,1,382,133.57Zm-61-5.16h61a40.64,40.64,0,0,0,18.12-4.29,48.54,48.54,0,0,0,15.12-11.54,55.89,55.89,0,0,0,10.21-17.3,59.42,59.42,0,0,0,0-42A56.59,56.59,0,0,0,415.26,36a48,48,0,0,0-15.12-11.57A40.52,40.52,0,0,0,382,20.08H321Zm5.16-5.15v-98H382a36.4,36.4,0,0,1,20.85,6.56,46.27,46.27,0,0,1,15.4,17.87A53.66,53.66,0,0,1,424,74.25a53.61,53.61,0,0,1-5.73,24.57,46.37,46.37,0,0,1-15.4,17.88A36.47,36.47,0,0,1,382,123.26Zm5.16-5.16H382a31.2,31.2,0,0,0,18.23-5.88,41.64,41.64,0,0,0,13.44-16,48.78,48.78,0,0,0,5-22,48.89,48.89,0,0,0-5-22,41.52,41.52,0,0,0-13.47-16A31.35,31.35,0,0,0,382,30.4H331.36Zm5.16-5.16V35.56H382a26.44,26.44,0,0,1,15.62,5.15,36,36,0,0,1,11.5,14.08,44.6,44.6,0,0,1,4.26,19.46,44.6,44.6,0,0,1-4.26,19.41,35.93,35.93,0,0,1-11.5,14.12A26.39,26.39,0,0,1,382,112.94Zm5.16-5.16H382q10.67,0,18.37-9.85t7.71-23.68a39.84,39.84,0,0,0-3.55-16.84A31,31,0,0,0,395,45.19a21.28,21.28,0,0,0-13-4.48H341.68Zm5.16-5.16V45.87H382q8.52,0,14.65,8.35t6.13,20q0,11.75-6.13,20.06T382,102.62ZM352,97.46h30q6.38,0,10.92-6.81t4.55-16.4q0-9.68-4.55-16.45T382,51H352Z"/><path class="cls-1" d="M464.51,99.29a63.7,63.7,0,0,1,0-50.09,63.5,63.5,0,0,1,34.32-34.31,63.68,63.68,0,0,1,50.08,0A63.58,63.58,0,0,1,583.23,49.2a63.82,63.82,0,0,1,0,50.09,63.64,63.64,0,0,1-34.32,34.32,63.79,63.79,0,0,1-50.08,0,63.56,63.56,0,0,1-34.32-34.32Zm4.73-48.08a58.8,58.8,0,0,0,0,46.07,58.21,58.21,0,0,0,31.59,31.6,58.91,58.91,0,0,0,46.07,0,58.18,58.18,0,0,0,31.6-31.6,58.91,58.91,0,0,0,0-46.07,58.18,58.18,0,0,0-31.6-31.6,58.91,58.91,0,0,0-46.07,0,58.21,58.21,0,0,0-31.59,31.6ZM477,101.4a52.91,52.91,0,0,1-7.27-27.15A52.92,52.92,0,0,1,477,47.09a54,54,0,0,1,19.74-19.74,54.35,54.35,0,0,1,54.31,0,54,54,0,0,1,19.74,19.74,54.29,54.29,0,0,1,0,54.31A54,54,0,0,1,551,121.14a54.35,54.35,0,0,1-54.31,0A54,54,0,0,1,477,101.4Zm1.76-46.21a48.87,48.87,0,0,0,0,38.12,47.83,47.83,0,0,0,26.08,26.08,48.87,48.87,0,0,0,38.12,0A47.91,47.91,0,0,0,569,93.31a48.87,48.87,0,0,0,0-38.12,47.83,47.83,0,0,0-26.08-26.08,48.87,48.87,0,0,0-38.12,0,47.74,47.74,0,0,0-26.08,26.08Zm7.16,41.05a44.14,44.14,0,0,1,0-44,43.58,43.58,0,0,1,16-16,43.84,43.84,0,0,1,65.85,38,42.92,42.92,0,0,1-5.88,22,43.36,43.36,0,0,1-16,16,44.08,44.08,0,0,1-44,0A43.51,43.51,0,0,1,485.89,96.24Zm4.48-41.41a38.91,38.91,0,0,0,0,38.83,38.57,38.57,0,0,0,14.08,14.08,38.86,38.86,0,0,0,38.84,0,38.64,38.64,0,0,0,14.08-14.08,38.91,38.91,0,0,0,0-38.83,38.72,38.72,0,0,0-14.08-14.08,38.93,38.93,0,0,0-38.84,0A38.64,38.64,0,0,0,490.37,54.83ZM493,87.25a33.24,33.24,0,0,1,0-26,33.06,33.06,0,0,1,17.87-17.87,33.12,33.12,0,0,1,26,0,33.12,33.12,0,0,1,17.88,17.87,33.24,33.24,0,0,1,0,26,33.18,33.18,0,0,1-17.88,17.88,33.24,33.24,0,0,1-26,0A33.12,33.12,0,0,1,493,87.25Zm10.82-33.07a27.37,27.37,0,0,0-8.32,20.07,28.38,28.38,0,0,0,56.75,0,28.37,28.37,0,0,0-48.43-20.07Z"/><line class="cls-2" x1="149.5" y1="1.5" x2="149.5" y2="149.5"/><line class="cls-2" x1="299.97" y1="0.49" x2="299.97" y2="148.49"/><line class="cls-2" x1="449.5" y1="1.5" x2="449.5" y2="149.5"/></g></g></svg>