<svg width="800" height="984" viewBox="0 0 800 984" fill="none" xmlns="http://www.w3.org/2000/svg">
<path d="M426.124 62.2133C247.289 62.2133 102.314 206.954 102.314 385.5C102.314 564.046 247.289 708.787 426.124 708.787V771C212.874 771 40 598.406 40 385.5C40 172.594 212.874 0 426.124 0C533.677 0 630.96 43.9028 700.974 114.738L656.91 158.73C598.174 99.1533 516.47 62.2133 426.124 62.2133Z" fill="black"/>
<path d="M419.575 202.155C319.211 202.155 237.85 283.572 237.85 384.004C237.85 435.028 258.849 481.144 292.672 514.169L252.469 554.399C208.359 511.077 180.997 450.738 180.997 384.004C180.997 252.152 287.812 145.264 419.575 145.264C486.406 145.264 546.82 172.762 590.132 217.069L549.928 257.301C516.907 223.288 470.707 202.155 419.575 202.155Z" fill="black"/>
<path d="M424.726 133.613C285.488 133.613 172.614 246.473 172.614 385.692C172.614 524.912 285.488 637.771 424.726 637.771C494.799 637.771 558.194 609.187 603.886 563.044L646.368 605.521C589.804 662.534 511.389 697.841 424.726 697.841C252.308 697.841 112.536 558.087 112.536 385.692C112.536 213.297 252.308 73.5432 424.726 73.5432V133.613Z" fill="black"/>
<path d="M422.353 502.578C356.429 502.578 302.987 449.214 302.987 383.386C302.987 350.191 316.577 320.165 338.504 298.553L300.076 260.181C268.315 291.613 248.642 335.206 248.642 383.386C248.642 479.184 326.415 556.844 422.353 556.844C470.8 556.844 514.615 537.04 546.121 505.097L507.692 466.724C486.021 488.847 455.793 502.578 422.353 502.578Z" fill="black"/>
<path d="M799.03 880.042H773.69V954.876C773.69 959.548 774.121 962.963 774.984 965.119C775.846 967.204 777.392 968.534 779.62 969.109C781.921 969.684 785.155 969.972 789.325 969.972H800V979.892C798.634 980.395 796.621 980.755 793.962 980.97C791.374 981.186 788.426 981.294 785.12 981.294C778.578 981.294 773.51 980.359 769.916 978.49C766.321 976.621 763.805 973.782 762.368 969.972C760.93 966.09 760.211 961.166 760.211 955.199V880.042H742.096V869.583H760.427L763.446 837.773H773.69V869.583H799.03V880.042Z" fill="black"/>
<path d="M678.644 867.426C685.905 867.426 692.59 868.756 698.7 871.415C704.883 874.075 710.058 877.957 714.228 883.061C718.397 888.165 721.093 894.455 722.315 901.931H709.483C708.693 897.402 706.931 893.448 704.2 890.07C701.468 886.619 697.91 883.924 693.525 881.983C689.211 880.042 684.287 879.071 678.752 879.071C667.969 879.071 659.163 882.881 652.334 890.501C645.577 898.121 642.198 909.838 642.198 925.653C642.198 939.599 645.253 950.85 651.363 959.404C657.474 967.887 666.639 972.128 678.86 972.128C684.395 972.128 689.319 971.157 693.632 969.216C697.946 967.204 701.468 964.472 704.2 961.021C706.931 957.571 708.693 953.653 709.483 949.268H722.207C720.985 956.6 718.289 962.819 714.12 967.922C709.951 972.955 704.811 976.764 698.7 979.352C692.59 981.94 685.905 983.234 678.644 983.234C668.796 983.234 660.134 981.114 652.657 976.872C645.181 972.631 639.322 966.269 635.081 957.787C630.912 949.232 628.827 938.521 628.827 925.653C628.827 914.08 630.696 903.908 634.434 895.138C638.172 886.368 643.744 879.574 651.148 874.758C658.552 869.87 667.718 867.426 678.644 867.426Z" fill="black"/>
<path d="M523.247 928.565C523.247 936.329 524.541 943.517 527.129 950.131C529.717 956.672 533.707 961.956 539.098 965.982C544.562 969.935 551.534 971.912 560.017 971.912C568.068 971.912 574.969 970.007 580.72 966.197C586.543 962.315 590.137 956.96 591.503 950.131H604.874C603.436 957.463 600.489 963.609 596.032 968.569C591.575 973.458 586.22 977.124 579.965 979.568C573.711 982.012 567.098 983.234 560.125 983.234C550.133 983.234 541.291 981.006 533.599 976.549C525.979 972.092 520.012 965.622 515.699 957.14C511.386 948.657 509.229 938.413 509.229 926.408C509.229 914.331 511.17 903.872 515.052 895.03C518.934 886.188 524.577 879.395 531.981 874.65C539.386 869.834 548.336 867.426 558.831 867.426C568.823 867.426 577.306 869.618 584.279 874.003C591.323 878.316 596.679 884.535 600.345 892.658C604.011 900.781 605.844 910.521 605.844 921.879V928.565H523.247ZM523.355 917.998H592.474C592.474 910.593 591.252 903.908 588.807 897.941C586.363 891.975 582.625 887.266 577.593 883.816C572.633 880.365 566.307 878.64 558.615 878.64C550.42 878.64 543.699 880.617 538.451 884.571C533.275 888.452 529.43 893.412 526.913 899.451C524.469 905.489 523.283 911.672 523.355 917.998Z" fill="black"/>
<path d="M392.805 981.078V869.582H405.636V885.972C407.505 882.666 410.129 879.61 413.508 876.807C416.958 874.003 421.056 871.775 425.8 870.121C430.617 868.468 436.008 867.641 441.975 867.641C449.163 867.641 455.705 869.115 461.6 872.062C467.566 874.938 472.275 879.395 475.725 885.433C479.248 891.4 481.009 899.092 481.009 908.509V981.078H467.638V909.371C467.638 899.163 465.086 891.651 459.982 886.835C454.878 881.947 448.049 879.503 439.495 879.503C433.672 879.503 428.209 880.437 423.105 882.306C418.001 884.103 413.903 886.871 410.812 890.609C407.793 894.347 406.283 899.092 406.283 904.842V981.078H392.805Z" fill="black"/>
<path d="M270.235 981.078V869.582H283.067V885.972C284.936 882.666 287.56 879.61 290.939 876.807C294.389 874.003 298.487 871.775 303.231 870.121C308.047 868.468 313.439 867.641 319.405 867.641C326.594 867.641 333.136 869.115 339.03 872.062C344.997 874.938 349.705 879.395 353.156 885.433C356.678 891.4 358.44 899.092 358.44 908.509V981.078H345.069V909.371C345.069 899.163 342.517 891.651 337.413 886.835C332.309 881.947 325.48 879.503 316.925 879.503C311.103 879.503 305.639 880.437 300.535 882.306C295.431 884.103 291.334 886.871 288.243 890.609C285.224 894.347 283.714 899.092 283.714 904.842V981.078H270.235Z" fill="black"/>
<path d="M192.248 983.234C182.327 983.234 173.665 981.114 166.261 976.872C158.856 972.559 153.07 966.161 148.9 957.679C144.803 949.124 142.754 938.485 142.754 925.761C142.754 914.044 144.587 903.836 148.253 895.138C151.991 886.368 157.527 879.574 164.859 874.758C172.191 869.87 181.357 867.426 192.355 867.426C202.204 867.426 210.794 869.618 218.127 874.003C225.459 878.316 231.138 884.786 235.164 893.412C239.261 902.039 241.31 912.822 241.31 925.761C241.31 937.191 239.477 947.219 235.811 955.846C232.216 964.472 226.789 971.193 219.528 976.01C212.34 980.826 203.246 983.234 192.248 983.234ZM192.355 971.912C199.688 971.912 205.978 970.151 211.225 966.629C216.545 963.106 220.607 957.894 223.41 950.993C226.286 944.092 227.723 935.574 227.723 925.438C227.723 916.38 226.465 908.365 223.949 901.392C221.505 894.347 217.659 888.848 212.412 884.894C207.236 880.868 200.55 878.856 192.355 878.856C184.951 878.856 178.553 880.617 173.162 884.139C167.77 887.59 163.601 892.801 160.654 899.774C157.778 906.675 156.34 915.23 156.34 925.438C156.34 934.495 157.598 942.511 160.114 949.484C162.702 956.457 166.656 961.956 171.976 965.982C177.295 969.935 184.088 971.912 192.355 971.912Z" fill="black"/>
<path d="M63.7271 823C74.3662 823 83.7474 825.264 91.8705 829.793C99.9936 834.25 106.499 840.145 111.388 847.477C116.276 854.81 119.187 862.717 120.122 871.2H105.457C104.235 864.73 101.827 858.799 98.2324 853.408C94.71 848.016 90.0733 843.703 84.3224 840.468C78.5716 837.233 71.6705 835.616 63.6192 835.616C52.9082 835.616 43.9224 838.06 36.6619 842.948C29.4733 847.837 24.0459 855.277 20.3797 865.269C16.7854 875.261 14.9883 887.913 14.9883 903.225C14.9883 926.157 19.0498 943.122 27.173 954.12C35.368 965.119 47.5167 970.618 63.6192 970.618C71.6705 970.618 78.5716 969.001 84.3224 965.766C90.0733 962.459 94.71 958.074 98.2324 952.611C101.827 947.147 104.235 941.181 105.457 934.711H120.122C119.403 940.893 117.642 946.896 114.838 952.719C112.035 958.541 108.225 963.753 103.408 968.354C98.6637 972.883 92.9488 976.513 86.2634 979.245C79.6498 981.904 72.1377 983.234 63.7271 983.234C50.0687 983.234 38.495 980.143 29.0061 973.961C19.5171 967.779 12.2925 958.757 7.33239 946.896C2.44413 934.963 0 920.37 0 903.117C0 885.793 2.44413 871.2 7.33239 859.338C12.2925 847.405 19.5171 838.384 29.0061 832.273C38.495 826.091 50.0687 823 63.7271 823Z" fill="black"/>
</svg>
