<svg xmlns="http://www.w3.org/2000/svg" role="img" viewBox="-19.78 -19.78 814.56 1028.56"><title>tekton-triggers-color</title><style>svg {enable-background:new 0 0 776 990}</style><style>.st0{fill:none}</style><g><path d="M648.5,109.5c3.6-4.7,6.2-10.3,7.8-16.2c3.1-11.9,1.5-24.9-5.6-33.5c-9.6-9-19.5-17.2-29.6-24.1 c1.7,8.1,1.3,16.9-0.8,25.1c-1.9,7.4-5.2,14.5-9.9,20.5c-4.7,6.1-10.8,11-18.1,14c-3,1.2-6.3,2.1-9.7,2.5 c10.2,6.9,19.7,14.1,28.6,21.4c9.4,3.5,17.5,3.2,24.1,0.6C640.5,117.6,645,114,648.5,109.5z" class="st0"/><path d="M679.2,163.1c5.2-2.1,9.7-5.7,13.2-10.2c3.6-4.7,6.3-10.3,7.8-16.2c1.5-6,1.9-12.3,1-18.1 c-9.6-13.6-20.3-27.1-31.8-39.7c0.3,5.7-0.3,11.6-1.8,17.2c-1.9,7.4-5.2,14.5-9.9,20.5c-4.7,6.1-10.8,11-18.1,14 c-3.8,1.5-8,2.5-12.4,2.8c9.7,9.2,18.4,18.7,26.2,28.5C663.5,166.1,672.2,166,679.2,163.1z" class="st0"/><path d="M702.3 210.7c5.6-.8 10.8-3.3 15.2-6.9 4.6-3.7 8.5-8.5 11.3-13.9 2.6-4.9 4.4-10.3 5-15.7-5.6-12.1-12.9-25.3-21.4-38.7-.2 1.4-.5 2.8-.9 4.1-1.9 7.4-5.2 14.5-9.9 20.5-4.7 6.1-10.8 11-18.1 14-5.8 2.3-12.2 3.4-19.3 2.7 6.5 9.6 12.2 19.3 17 29.2C688.8 210.4 695.9 211.6 702.3 210.7zM601 74c3.6-4.7 6.3-10.3 7.8-16.2 2.9-11.5 1.6-24.1-5-32.7-5.1-2.7-10.2-5-15.3-6.9-62.7-23.3-75.1 31.2-38 59.2l.3-.5c14.9 10 27.5 11.2 37.1 7.3C593.1 82.2 597.5 78.5 601 74zM716.3 275.9c-5.3-.3-10.6-1.6-15.8-4.2 1.2 11.5 1.3 23 .3 34.5 4.3 4.8 9.2 7.8 14.3 9.2 5.4 1.5 11.2 1.4 16.7 0 5.7-1.5 11.2-4.3 16.1-8.1 1.1-.9 2.2-1.8 3.2-2.7 1.7-14.5 2.3-29.3 1.7-44.1-4.2 4.2-8.9 7.8-14.1 10.5C731.7 274.5 724.1 276.4 716.3 275.9zM662 462c5.2 1.6 10.8 2.1 16.4 1.6 9.4-10.1 18-20.9 25.7-32.3-7.2.7-14.6 0-21.5-2.1-7.4-2.2-14.2-6.2-19.5-11.9-1.6-1.7-3.1-3.6-4.4-5.6-5.7 7.6-12 15-18.9 22.2.7 8.3 3.6 14.7 7.9 19.4C651.6 457.5 656.5 460.3 662 462zM699.2 370.7c4.9 2.9 10.4 4.2 16.1 4.2 5.9 0 12-1.3 17.6-3.8.9-.4 1.7-.8 2.5-1.2 5.8-15.9 10.2-32.3 13.1-49-4.4 2.6-9.1 4.6-14 5.8-7.5 1.9-15.3 2.1-22.8 0-4.5-1.3-8.8-3.3-12.9-6.3-2.1 13.1-5.7 26.1-10.7 38.9C691.2 364.5 695 368.2 699.2 370.7zM638.8 461c-4.1-4.6-7.3-10.2-9.2-16.9-4.7 4.5-9.6 8.8-14.8 13.1-2.3 1.9-4.5 3.6-6.8 5.3-.7.5-.7 6.5 2.2 11.5C618.5 466.7 628.1 462.2 638.8 461zM607.3 402.3c-3.5-24.8-42.9-90.1-55.6-82.1-16.4 10.5-16 28.1-11.5 42.4 4 11.1 12 20.9 22.2 26.1l9.2 4.1-5.4.6c-5.9-.2-14.2-2.9-20.4-6.4-12.6 2.1-37 7.6-53.7 20.1 41.2 16.2 83.2 49.1 83.2 49.1C597.3 437.7 595.7 426.9 607.3 402.3zM666.6 475.5c.2-.2.4-.3.5-.5-.2 0-.4 0-.6-.1C666.5 475.1 666.6 475.3 666.6 475.5zM686 418c5.6 1.7 11.8 2.2 17.9 1.5 3-.4 6-1 8.9-1.9 6.3-10.6 11.9-21.5 16.8-32.8-4.7 1.3-9.5 1.9-14.3 1.9-7.7 0-15.4-1.8-22.1-5.8-3.8-2.2-7.3-5.2-10.4-8.8-4.6 9.8-10.1 19.5-16.5 29 1.4 3.2 3.2 6 5.3 8.4C675.5 413.5 680.5 416.4 686 418zM596.7 490.4c2.1-3.3 4.4-6.6 6.9-9.6.2-.3.4-.5.7-.8-.9-1.5-1.9-3.1-2.6-4.8-1.6-3.6-1.6-7.5-2.2-7.1-5.9 3.6-11.8 6.6-17.5 9C587.3 480.7 592.2 485.1 596.7 490.4zM364.9 442.8c-3.3-15.2-61.3 32.7-49.5 39.6 6.9 4.1 22.6-3.9 31.7-11.4l0 0 0 0C356 463.7 366.6 450.5 364.9 442.8zM418.2 195.5c5.6 32.4 36.4 54.2 68.8 48.6 32.4-5.6 54.2-36.4 48.6-68.8-5.6-32.4-36.3-54.2-68.8-48.6C434.4 132.3 412.6 163.1 418.2 195.5zM459.2 151.2l35.7-5.8-13.1 33.8 22.2-3.6-38.5 60.9 5.9-35.6-17.4 5.2C454.1 206.2 454.1 206.2 459.2 151.2z" class="st0"/><path d="M422 372.2c-.2-22.4-5.6-30.2-5.6-30.2s-.3-.4-.8-1.3c-12.3 4.8-34.1 14.3-54.3 25.4-4.2 2.3-6 3.7-8.9 5.7 1.9 3.6 3.2 7.4 3.8 11.5 3.8 23.2-13.3 45.4-30.1 59-.5.4-.9.8-1.4 1.1l0 0c-16.5 12.9-40.4 23.8-61.4 15.9-4.6-1.7-8.6-4.3-12.2-7.4-18.2 17.2-28.7 30.1-39.8 44.9-13.9 18.7-22.6 34.2-28.2 44.7 4.4 2.3 11.5 5.2 22.4 7.5 55.1 11.7 102.8-9.1 147-40.9C392.6 471.2 422.5 428.6 422 372.2zM309.5 492.6c-2.3-1.4-4.2-3.2-5.5-5.6-8.5-14.9 12.4-33.3 22.3-41.5l0 0c10-8.3 31.8-24.8 44.9-13.8 2.7 2.3 4.5 5.4 5.2 8.8 3.2 14.5-11.3 31.3-21.7 39.8C344 489.1 323.2 500.7 309.5 492.6zM555.7 715.1c-16.3 0-30 15.8-40.9 47.4-10.3 29.6-7.5 44.4 8.1 44.4 8.4 0 15.7-3.6 21.9-10.8 6.2-7.2 12.6-20.4 19.2-39.5C573.6 728.9 570.8 715.1 555.7 715.1zM652.2 473.5c-2.5-.4-4.9-.6-7.2-.5-.5.2-1.1.4-1.7.4-10.7 1.3-19.3 5.2-26.1 11-7 6.6-11.7 14.9-14.7 21-3.1 7.9-4.9 16.6-5.3 25.6-3.5-7.8-4.9-15.7-3.6-24-26.9-42.6-67.4-25.9-94.2-12.6 6.4 5 60.3 98.8 66.4 93.4 15.9-14.2 30.5-13.2 37-11.5C645.9 587.7 662.1 474.9 652.2 473.5zM298.5 315.9c2.5-2 5.4-3.1 8.6-3.4 3.4-.3 6.9.4 10.2 2.1 2.5 1.2 5.5.2 6.7-2.3 1.2-2.5.1-5.6-2.4-6.8-5-2.4-10.3-3.5-15.5-3.1-5.1.4-10 2.2-14.1 5.6-6 4.9-9.1 12.1-9.3 19.8-.2 7.5 2.4 15.4 7.8 22 1.8 2.2 5 2.5 7.1.8 2.2-1.8 2.5-5 .7-7.2-3.8-4.6-5.6-10.1-5.4-15.1C292.9 323.3 294.8 318.9 298.5 315.9zM338.6 599.6c-1.3-6.2-1.2-7.4-.1-13.4 2.9 7.1.6 1.1 3 8.2 8.5 25.8 25.6 32.3 51.2 27.9.6-.1 1.3-.1 1.9 0 2.3-1.3 4.5-3 6.6-5.2 28.9-31.2-25.7-79-61.3-70.8-6.5 1.5-12.9 4.5-19.1 9.3-8.8 6.9-17 18.5-18.4 30.2-.1.7-.2 1.5-.2 2.2-2.8 17.5 6.4 38.6 17 52.5 22.1 1.1 32.2-7.4 36.6-13.9.1-.1.2-.3.3-.4C347.5 621 341.2 612.4 338.6 599.6z" class="st0"/><path d="M276.7 380.9L276.7 380.9c-17.6 14.1-32.2 39.6-23.7 54.2 10.6 18.3 30.5 17.7 49.2 8.3.3-.2.6-.3 1-.5 5.3-3.5 9-7.9 11.2-12.1l0 0c2.4-4.7 2.9-9.2 1.7-11.8-.7-1.4-2-2.7-3.1-4-1.8.8-4.2 1.3-8.1 2.1-12.4 2.5-28.7 2.1-32.6-5.1-6.3-11.6 18.5-34.5 36.1-39.3 23.2-6.3 19.5 18 11.7 32.7-1 1.9-1.8 3.4-2.5 4.7.5.4 1.1.7 1.7 1.1 2.5 1.6 5.3 3.2 7.1 3.5 4.4.9 8.8-.8 12.7-6 7.5-14 8.1-28.9-4.7-40.2C321.9 357.2 294.1 366.5 276.7 380.9L276.7 380.9zM520.4 548.5c-6.3-9.9-12.5-19.8-18.9-29.6-2.3-3.6-4.6-7.2-7-10.7-.3-.5-.7-1.1-1.1-1.7-2.1.9-4.2 1.9-6.1 3-6.2 4.2-12.4 10.2-17.5 17.8-5.3 9.3-7.9 20.5-8.2 32.9-.1 5.7 1 11.5 2 17.2.5 3-1.5 5.8-4.5 6.3-3 .5-5.8-1.5-6.3-4.5l-.8-4.8c-1.4-8.9-1.6-18.1-.3-27.1-13.6 6.7-38.3 6.8-54.4 5.5 13.9 11.7 25.1 28.4 24.2 46.8-.5 9.9-4.6 18.8-11.4 26-10.1 10.9-24 14.3-38.3 11.8-2.3-.4-4.8-1-7.2-1.8-.1.1-.2.2-.3.3 16.8 10.1 35.3 14.7 64.3 16.4 49.9 3 99.4-17.2 121.4-60.9-2.5-2.9-4.9-6-7.1-9C535 571.4 527.6 559.9 520.4 548.5zM337.7 534.2c6.3-1.4 12.8-1.4 19.2-.5-2.6-2.5-5-5-7.1-7.5C345.8 529 341.8 531.6 337.7 534.2zM289.9 586.9c.1-.8.1-1.6.2-2.4 1.5-12.6 8.6-24.8 17.7-33.8-15.2 4.8-28.3 14.9-30.4 32.2-.2 3-2.7 5.3-5.8 5.2-3-.2-5.3-2.7-5.2-5.8.5-4.4.4-5.4 1.8-9.6 1.5-4.6 3.6-8.7 6.3-12.4-6.1 1.4-12.2 2.4-18.4 3.2-.2 27.4 12.2 54.6 41.8 66.2C291.6 616.1 287.9 600.8 289.9 586.9zM716.9 264.2c5.6.3 11.2-1.1 16.3-3.7 5.3-2.7 10-6.7 13.9-11.4 1.6-2 3.1-4 4.3-6.2-1.3-13.3-3.6-26.6-6.9-39.8-.9-3.6-2.1-7.4-3.5-11.4-.6 1.3-1.1 2.5-1.8 3.7-3.6 6.8-8.5 12.9-14.4 17.6-6.1 4.8-13.1 8.2-20.8 9.3-5.1.7-10.4.5-15.8-.8 4.4 11.4 7.7 22.9 10 34.5C704.3 261.3 710.7 263.8 716.9 264.2zM110.5 400c.3-9.5 1.3-18.8 3-27.7-20.7 2-41.3 5.8-59.9 14 11.6.9 23.2 3.2 34 6.2C95.4 394.6 103 397.2 110.5 400zM121.4 477.7c-5.2-16.8-8.1-34.5-9.9-52.6-.4-3.6-.6-7.1-.8-10.6-25.7-10.4-56.8-18.2-81.3-13.8-.4.3-.9.7-1.3 1 0 .2-.1.5-.1.7C51.4 453.6 95.2 471.5 121.4 477.7zM176.3 536.7c5.7-10.7 14.5-26.2 28.3-44.9 11.3-15.1 22.1-28.4 40.8-46.1-1.1-1.4-2.1-3-3-4.5-4.3-7.4-5-15.6-3.5-23.7-28.7 35.2-47.1 69.4-61.1 55.1-12.8-13.1-35-61.9-30.5-91.5 4.2-27.2 25-55.8 51.6-77.1-7.6-5.4-15.1-10-21.8-13.5-37.6 30-60.3 78.3-54.6 133.7C128.9 484.9 169.5 529.6 176.3 536.7zM180.4 304.9c1.9-1.7 5-2.1 6.8-.9 1.8 1.2 1.8 3.6-.2 5.3-1.9 1.7-5 2.1-6.8.9C178.4 309 178.5 306.6 180.4 304.9zM640 889.9c1.6-4.2 1.7-7.5.4-9.7-1.3-2.3-5-3.4-11.1-3.4h-14.6l-10.1 26.6h14c1.5 0 4.7-.6 9.5-1.8 2.4-.5 4.7-1.9 6.9-4.1C637.2 895.3 638.9 892.8 640 889.9zM538 468c8.6-1.1 16.6-.9 24 .7 2.2-.6 4.4-1.3 6.5-2.1-.3-.2-.6-.4-.9-.7-6.3-5-13.2-9.7-19.8-14.3-14.4-9.8-29.7-19-45.4-26.6-4.5-2.2-9-4.2-13.6-6-3.3 5.3-5.5 11.8-6.1 19.8C503.2 442.4 522 451 538 468z" class="st0"/><path d="M197 398.9c3.7-3 8.4-4 13.2-3.1 5 .9 10 3.7 13.7 8.4 1.8 2.2 5 2.5 7.2.8 2.1-1.8 2.5-5 .7-7.2-5.4-6.6-12.6-10.7-20-12-7.6-1.3-15.3.3-21.3 5.2-4.1 3.4-6.8 7.8-8.2 12.7-1.4 5-1.4 10.4-.1 15.8.7 2.7 3.5 4.4 6.2 3.7 2.7-.7 4.3-3.4 3.6-6.1-.9-3.6-.9-7.2 0-10.4C192.9 403.6 194.6 400.9 197 398.9zM282.7 243.4c-.9-5.8-1.5-11.5-1.9-17.3-.6-9.6-.6-19.8.6-29.7-9.9 13.9-16.5 30.1-21.6 46.8C267.3 242.7 274.9 242.7 282.7 243.4zM430.2 332.8c6.9 10.1 7.5 28.3 7.6 39.9.1 10.9-1 21.6-3.1 31.9 14.9-2.5 27.4-8.4 32.6-8.6-.1-19.6-17.4-86-38.4-98.6-5.4-3.2-16.7-2.5-21.5 5.2-.3.5-.6 1-.9 1.6 5.6 5.7 10.9 11.8 15.9 18.1C425.2 325.7 427.9 329.2 430.2 332.8zM461.2 410.3c-4.7 1.5-9.4 3-14.2 4.2-5.1 1.3-10.3 2.3-15.4 2.9-2.3 8-5.2 15.7-8.7 23.2 12.4-2 24.6-3.3 36.6-3.4 1.4-8.8 2-17.9 2-27.1L461.2 410.3zM319.2 250.3c9.3 2.8 18.3 6.2 26.9 10.3-2.3-23.6-12.1-57.9-46.7-83.2-.2 0-.4 0-.6 0-.4.3-.7.6-1.1.9-7.4 18.6-6.8 44.1-3.1 66.5C302.8 246 311 247.9 319.2 250.3zM281.9 271.1c29.8 1.4 75.2 31.4 85.4 46.5 8.4 12.3-14 20.6-42.5 33.9 6.5.8 12.6 3.2 17.7 7.8 1.9 1.7 3.6 3.5 5.2 5.4 3.1-2.1 5.1-3.6 9.4-6 19.5-10.8 40.3-20 53.1-25.1-13.1-16.7-46.7-53.9-96.4-68.7-47.5-14.1-93.7-4.9-128.9 19.5 6.3 3.3 13.6 8.1 21.3 13.8C230.3 281 257.9 270 281.9 271.1zM202 290.8c-1.9-1.2-1.8-3.6.1-5.3 1.9-1.7 5-2.1 6.8-.9 1.8 1.2 1.8 3.6-.2 5.3C206.9 291.6 203.8 292 202 290.8zM415.8 454.4c-13.7 24.1-33 45.6-55.4 63.6-.3.2-.6.4-.8.7.7.8 1.3 1.5 2 2.3 8.2 8.8 19.2 17.4 31.5 18.8 9.3 1.1 19.1 1.4 28.4 1 6.6-.3 22.1-1.7 27.2-6.3 1.4-1.2 3.7-2.6 4.9-3.8 5.7-12 14.6-22.7 25.5-30.5 2.4-1.7 5.1-3.4 7.9-4.9 0-.7 0-1.5 0-2.3.4-4.3 2.9-7.9 6.8-9.8 9.6-4.7 19.4-9.1 29.7-12.1C495.3 445.7 457.9 446.5 415.8 454.4z" class="st0"/><linearGradient id="SVGID_1_" x1="166.114" x2="860.4" y1="-70.709" y2="538.72" gradientUnits="userSpaceOnUse"><stop offset="0" stop-color="#a477b1"/><stop offset=".511" stop-color="#ee515a"/><stop offset="1" stop-color="#2b3389"/></linearGradient><path fill="url(#SVGID_1_)" d="M425,113.7c-1.4-1.8-4-2.1-5.8-0.7c-8,6.4-14.8,13.9-20.2,22.4c-5.5,8.5-9.5,18-11.9,27.8 c-0.5,2.2,0.8,4.4,3,5c2.2,0.5,4.4-0.8,5-3c2.2-9,5.8-17.6,10.8-25.3c4.9-7.7,11.1-14.6,18.4-20.4 C426.1,118.1,426.4,115.5,425,113.7z"/><linearGradient id="SVGID_2_" x1="188.358" x2="882.644" y1="-96.05" y2="513.378" gradientUnits="userSpaceOnUse"><stop offset="0" stop-color="#a477b1"/><stop offset=".511" stop-color="#ee515a"/><stop offset="1" stop-color="#2b3389"/></linearGradient><path fill="url(#SVGID_2_)" d="M384.7,135.9c2,1.2,4.5,0.5,5.7-1.5c7.1-12,16.6-22.3,27.7-30.3c11.1-8,23.9-13.7,37.5-16.5 c2.2-0.5,3.6-2.6,3.2-4.9c-0.5-2.2-2.6-3.6-4.9-3.2c-14.8,3.1-28.6,9.3-40.7,17.9c-12.1,8.7-22.4,19.8-30,32.8 C382.1,132.2,382.7,134.8,384.7,135.9z"/><linearGradient id="SVGID_3_" x1="-22.301" x2="671.985" y1="143.941" y2="753.37" gradientUnits="userSpaceOnUse"><stop offset="0" stop-color="#a477b1"/><stop offset=".511" stop-color="#ee515a"/><stop offset="1" stop-color="#2b3389"/></linearGradient><path fill="url(#SVGID_3_)" d="M376.5,440.4c-0.8-3.4-2.5-6.5-5.2-8.8c-13-11-34.9,5.6-44.9,13.8l0,0c-9.9,8.2-30.8,26.7-22.3,41.5 c1.3,2.3,3.2,4.2,5.5,5.6c13.7,8.1,34.5-3.5,45.2-12.4C365.2,471.7,379.6,454.9,376.5,440.4z M347.2,470.9L347.2,470.9L347.2,470.9 c-9.2,7.5-24.9,15.6-31.8,11.5c-11.7-6.9,46.2-54.8,49.5-39.6C366.6,450.5,356,463.7,347.2,470.9z"/><linearGradient id="SVGID_4_" x1="196.17" x2="890.455" y1="-104.949" y2="504.479" gradientUnits="userSpaceOnUse"><stop offset="0" stop-color="#a477b1"/><stop offset=".511" stop-color="#ee515a"/><stop offset="1" stop-color="#2b3389"/></linearGradient><path fill="url(#SVGID_4_)" d="M433.7,113c1.7-1,3.5-2,5.3-2.8c1.8-0.9,3.6-1.7,5.5-2.5c2.1-0.9,3.1-3.3,2.2-5.4c-0.9-2.1-3.3-3.1-5.4-2.2 c-2,0.8-4,1.7-6,2.7c-2,1-3.9,2-5.8,3.1c-2,1.1-2.6,3.7-1.5,5.6C429.2,113.5,431.8,114.2,433.7,113z"/><linearGradient id="SVGID_5_" x1="5.562" x2="699.848" y1="112.199" y2="721.627" gradientUnits="userSpaceOnUse"><stop offset="0" stop-color="#a477b1"/><stop offset=".511" stop-color="#ee515a"/><stop offset="1" stop-color="#2b3389"/></linearGradient><path fill="url(#SVGID_5_)" d="M209,284.5c-1.9-1.2-4.9-0.8-6.8,0.9c-1.9,1.7-2,4.1-0.1,5.3c1.8,1.2,4.9,0.8,6.8-0.9 C210.7,288.1,210.8,285.8,209,284.5z"/><linearGradient id="SVGID_6_" x1="87.883" x2="782.169" y1="18.415" y2="627.844" gradientUnits="userSpaceOnUse"><stop offset="0" stop-color="#a477b1"/><stop offset=".511" stop-color="#ee515a"/><stop offset="1" stop-color="#2b3389"/></linearGradient><path fill="url(#SVGID_6_)" d="M46.4,454.3c13.3,12.9,28.8,22.9,45.8,30c10.9,4.6,22.3,7.9,33.9,10c0.5,0.1,1,0.2,1.4,0.3 c3,6.9,6.5,13.5,10.6,20c5.6,8.8,11.8,17.3,18.6,25.3c2.8,3.3,5.6,6.6,8.7,9.6c8.2,8.6,25.2,9.3,36.2,11.6c14,3,28.3,4,42.4,3.3 c0.1,13.1,2.7,26.2,8.2,38.1c11.2,24,31.4,37.3,54.9,42.6c0.7,1,1.4,2,2.1,2.9c2.3,3,5.4,4.6,9.2,4.8c12.8,0.6,26.1-1.5,36.5-8.5 c19.1,12.3,40,18.1,73,20.1c36.8,2.2,75.3-7.3,104-31.1c12-9.9,21.2-21.5,28-34.2c3.4,1.4,7.1,1.6,11-0.3c1.1-0.5,2.1-1.2,3.1-2 c6.6-5.9,16.6-11.2,25.7-8.8c5.9,1.6,12,1.7,17.9,0.1c22.6-5.9,34.9-33.4,41.2-53.6c4-12.9,7-27.1,8.2-40.7 c6.6-5.9,13-12.3,19.2-19c51.1-55.9,75.4-123.9,76.3-207.6c1-92.2-42-168.3-119.5-234.2C568.5-30.1,490.2,5.8,524.3,68.5 c6.6,12.1,17.1,20.7,27.7,26.9c38.9,22.4,78.3,53.3,105.4,94.6c19.7,30,32.6,65.8,31.7,104.6c-1.5,64.3-39.4,115.7-81.1,150.3 c-4.1,3.4-8.4,6.5-12.9,9.3c4.3-4.9,7.9-10.3,10.9-16.7c4.6-9.7,7.8-20.1,12.4-30c1-2.3,1.4-4.5,1-6.9 c-2.1-14.8-12.1-34.4-19.5-47.3c-6.3-11-13.9-22.7-22.5-32.1c-7.8-8.6-20.3-19-32.4-11.3c-16.1,10.2-21.9,26.8-19.3,45 c1.1,7.6,3.6,15.2,6.9,22.2c-6.4,1.5-12.9,3.3-19.2,5.5c-9.8,2.2-18.4,6.3-25.3,12.3c-1.2,0.8-2.4,1.7-3.6,2.5 c-2.2,1.7-3.7,3.8-4.4,6.3c-2.6,3.7-4.9,7.8-6.6,12.4c0.1-3.2,0.1-6.3,0-9.5c3.6-2.2,6.1-6.1,6-10.6c0-7.8-1.7-16.8-3.4-24.5 c-2.3-10.6-5.2-21.2-8.7-31.4c-5.7-16.9-16.4-43.7-32.4-53.3c-12.1-7.2-29.9-3.2-37.8,8.5c-11.5-10.6-24.1-19.9-37.6-27.6 c-0.3-7.5-1.1-14.9-2.6-22.2c-3.1-15.6-8.9-30.4-17.5-43.9c-8.5-13.3-19.5-24.7-32.2-34c-5.5-4-12.9-3.9-18.1,0.4 c-24.1,19.7-36.1,47.5-44.5,76.5c-60.8,9-109.9,52-127.6,111.7c-35.1,2.8-69.5,10-97.6,32.9c-6.1,4.9-7.9,13.3-4.7,20.5 C22.8,426.4,33.2,441.5,46.4,454.3z M205.7,549.1c-10.9-2.3-18.1-5.2-22.4-7.5c5.6-10.5,14.2-26,28.2-44.7 c11-14.8,21.5-27.7,39.8-44.9c3.5,3.2,7.6,5.7,12.2,7.4c21,7.9,44.9-3,61.4-15.9l0,0c0.5-0.4,0.9-0.7,1.4-1.1 c16.8-13.5,33.9-35.8,30.1-59c-0.7-4.1-2-8-3.8-11.5c2.9-2,4.7-3.4,8.9-5.7c20.2-11.1,41.9-20.6,54.3-25.4c0.6,0.8,0.8,1.3,0.8,1.3 s5.4,7.8,5.6,30.2c0.5,56.3-29.4,99-69.3,136.1C308.5,540,260.8,560.8,205.7,549.1z M298.3,343.3c1.8,2.2,1.5,5.4-0.7,7.2 c-2.2,1.8-5.4,1.4-7.1-0.8c-5.4-6.6-8-14.5-7.8-22c0.2-7.7,3.3-14.9,9.3-19.8c4.1-3.3,9-5.2,14.1-5.6c5.1-0.4,10.5,0.7,15.5,3.1 c2.5,1.2,3.6,4.3,2.4,6.8c-1.2,2.5-4.2,3.6-6.7,2.3c-3.3-1.6-6.9-2.3-10.2-2.1c-3.1,0.2-6.1,1.3-8.6,3.4c-3.7,3-5.6,7.5-5.7,12.3 C292.7,333.2,294.5,338.7,298.3,343.3z M334.6,368.5c12.8,11.4,12.2,26.2,4.7,40.2c-4,5.2-8.3,6.8-12.7,6c-1.8-0.4-4.6-1.9-7.1-3.5 c-0.6-0.4-1.2-0.8-1.7-1.1c0.7-1.2,1.5-2.8,2.5-4.7c7.7-14.7,11.4-39-11.7-32.7c-17.6,4.8-42.4,27.7-36.1,39.3 c3.9,7.3,20.3,7.7,32.6,5.1c3.9-0.8,6.3-1.3,8.1-2.1c1,1.3,2.4,2.6,3.1,4c1.2,2.6,0.7,7.1-1.7,11.8l0,0c-2.2,4.2-5.9,8.6-11.2,12.1 c-0.3,0.2-0.6,0.3-1,0.5c-18.7,9.4-38.6,10-49.2-8.3c-8.5-14.7,6.1-40.1,23.6-54.2l0.1-0.1l0.1-0.1 C294.1,366.5,321.9,357.2,334.6,368.5z M356.8,533.7c-6.4-0.9-12.9-0.9-19.2,0.5c4.1-2.5,8.1-5.2,12-8 C351.8,528.6,354.2,531.2,356.8,533.7z M256.3,563.4c6.2-0.7,12.3-1.8,18.4-3.2c-2.7,3.7-4.9,7.8-6.3,12.4 c-1.3,4.2-1.3,5.3-1.8,9.6c-0.2,3,2.1,5.6,5.2,5.8c3,0.2,5.6-2.1,5.8-5.2c2.1-17.3,15.1-27.4,30.4-32.2c-9.2,9-16.2,21.3-17.7,33.8 c-0.1,0.8-0.2,1.6-0.2,2.4c-2,14,1.7,29.3,8.2,42.7C268.5,618,256.2,590.8,256.3,563.4z M355.7,626.7c-4.5,6.5-14.6,15-36.6,13.9 c-10.6-13.9-19.7-35-17-52.5c0-0.7,0.1-1.5,0.2-2.2c1.4-11.8,9.5-23.3,18.4-30.2c6.2-4.8,12.6-7.8,19.1-9.3 c35.6-8.3,90.2,39.6,61.3,70.8c-2.1,2.2-4.3,3.9-6.6,5.2c-0.6-0.1-1.2-0.1-1.9,0c-25.6,4.5-42.7-2.1-51.2-27.9 c-2.4-7.1,0-1.1-3-8.2c-1.1,6-1.1,7.3,0.1,13.4c2.6,12.8,8.9,21.4,17.4,26.7C355.9,626.4,355.8,626.6,355.7,626.7z M428.6,652.2 c-29-1.7-47.5-6.4-64.3-16.4c0.1-0.1,0.2-0.2,0.3-0.3c2.5,0.8,4.9,1.3,7.2,1.8c14.3,2.5,28.2-0.9,38.3-11.8 c6.7-7.3,10.9-16.1,11.4-26c1-18.3-10.3-35.1-24.2-46.8c16.1,1.3,40.8,1.2,54.4-5.5c-1.3,9-1.1,18.2,0.3,27.1l0.8,4.8 c0.5,3,3.3,5,6.3,4.5c3-0.5,5-3.3,4.5-6.3c-0.9-5.6-2.1-11.5-2-17.2c0.3-12.4,2.9-23.6,8.2-32.9c5.1-7.5,11.3-13.5,17.5-17.8 c1.9-1.1,3.9-2.1,6.1-3c0.4,0.6,0.8,1.2,1.1,1.7c2.4,3.5,4.7,7.1,7,10.7c6.3,9.8,12.5,19.8,18.9,29.6c7.3,11.4,14.7,22.9,22.6,33.8 c2.2,3,4.6,6.2,7.1,9C528,635,478.5,655.2,428.6,652.2z M602.8,576.1c-6.5-1.7-21.1-2.7-37,11.5c-6.1,5.4-60-88.4-66.4-93.4 c26.9-13.3,67.3-30,94.2,12.6c-1.3,8.3,0.1,16.2,3.6,24c0.4-9,2.2-17.8,5.3-25.6c3-6.2,7.7-14.4,14.7-21c6.8-5.7,15.4-9.7,26.1-11 c0.6,0,1.2-0.2,1.7-0.4c2.3,0,4.7,0.2,7.2,0.5C662.1,474.9,645.9,587.7,602.8,576.1z M666.6,475.5c0-0.2-0.1-0.4-0.1-0.6 c0.2,0,0.4,0.1,0.6,0.1C666.9,475.2,666.8,475.4,666.6,475.5z M751,304.6c-1,0.9-2.1,1.9-3.2,2.7c-4.8,3.8-10.3,6.6-16.1,8.1 c-5.5,1.4-11.3,1.6-16.7,0c-5.1-1.4-10-4.4-14.3-9.2c1-11.5,0.9-23-0.3-34.5c5.2,2.6,10.6,3.9,15.8,4.2c7.8,0.4,15.4-1.4,22.3-5 c5.2-2.7,10-6.2,14.1-10.5C753.2,275.3,752.7,290.1,751,304.6z M550.8,76.9l-0.3,0.5c-37.1-28-24.7-82.5,38-59.2 c5.1,1.9,10.2,4.2,15.3,6.9c6.6,8.6,7.9,21.1,5,32.7c-1.5,5.9-4.1,11.6-7.8,16.2c-3.5,4.5-7.9,8.1-13.2,10.2 C578.3,88.1,565.7,86.9,550.8,76.9z M611.2,119.1c-8.9-7.4-18.4-14.5-28.6-21.4c3.4-0.4,6.6-1.3,9.7-2.5c7.3-2.9,13.3-7.9,18.1-14 c4.6-6,8-13.1,9.9-20.5c2.1-8.3,2.4-17,0.8-25.1c10.1,6.9,20,15.1,29.6,24.1c7.2,8.6,8.7,21.6,5.6,33.5c-1.5,5.9-4.2,11.5-7.8,16.2 c-3.5,4.5-7.9,8.1-13.2,10.2C628.6,122.4,620.5,122.6,611.2,119.1z M653.4,161.9c-7.8-9.7-16.5-19.3-26.2-28.5 c4.4-0.3,8.6-1.3,12.4-2.8c7.3-2.9,13.4-7.8,18.1-14c4.6-6,8-13.1,9.9-20.5c1.4-5.6,2.1-11.5,1.8-17.2 c11.4,12.6,22.2,26.1,31.8,39.7c0.9,5.8,0.5,12.1-1,18.1c-1.5,5.9-4.1,11.5-7.8,16.2c-3.5,4.5-7.9,8.1-13.2,10.2 C672.2,166,663.5,166.1,653.4,161.9z M664.4,176.8c7,0.7,13.5-0.4,19.3-2.7c7.3-2.9,13.3-7.8,18.1-14c4.6-6,8-13.1,9.9-20.5 c0.4-1.4,0.6-2.7,0.9-4.1c8.5,13.4,15.8,26.6,21.4,38.7c-0.7,5.3-2.4,10.7-5,15.7c-2.9,5.4-6.7,10.3-11.3,13.9 c-4.4,3.6-9.6,6-15.2,6.9c-6.4,0.9-13.5-0.3-20.9-4.7C676.6,196.1,670.9,186.4,664.4,176.8z M688.2,221.5 c5.5,1.4,10.8,1.6,15.8,0.8c7.7-1.1,14.8-4.5,20.8-9.3c5.9-4.7,10.8-10.9,14.4-17.6c0.6-1.2,1.2-2.4,1.8-3.7 c1.4,4,2.6,7.8,3.5,11.4c3.3,13.2,5.6,26.5,6.9,39.8c-1.3,2.1-2.7,4.2-4.3,6.2c-3.9,4.7-8.6,8.7-13.9,11.4 c-5.1,2.6-10.7,4-16.3,3.7c-6.2-0.4-12.6-2.8-18.8-8.1C695.9,244.5,692.6,232.9,688.2,221.5z M699,320.4c4.1,3,8.4,5,12.9,6.3 c7.5,2.1,15.3,1.9,22.8,0c4.9-1.3,9.6-3.2,14-5.8c-2.9,16.7-7.3,33.2-13.1,49c-0.8,0.4-1.7,0.8-2.5,1.2c-5.6,2.4-11.7,3.8-17.6,3.8 c-5.7,0-11.3-1.3-16.1-4.2c-4.2-2.5-8-6.2-10.9-11.4C693.3,346.5,696.8,333.6,699,320.4z M682.9,372.1c3.1,3.6,6.6,6.6,10.4,8.8 c6.7,4,14.4,5.8,22.1,5.8c4.8,0,9.6-0.6,14.3-1.9c-4.9,11.3-10.5,22.3-16.8,32.8c-2.9,0.9-5.9,1.5-8.9,1.9 c-6.1,0.7-12.3,0.2-17.9-1.5c-5.5-1.7-10.5-4.5-14.3-8.6c-2.2-2.3-4-5.1-5.3-8.4C672.7,391.6,678.2,381.9,682.9,372.1z M658.7,411.7c1.3,2,2.8,3.9,4.4,5.6c5.3,5.7,12.1,9.7,19.5,11.9c6.9,2.1,14.3,2.7,21.5,2.1c-7.7,11.4-16.3,22.2-25.7,32.3 c-5.6,0.5-11.2,0-16.4-1.6c-5.5-1.7-10.5-4.5-14.3-8.6c-4.3-4.7-7.2-11.1-7.9-19.4C646.7,426.7,653,419.3,658.7,411.7z M608.1,462.4c2.3-1.7,4.6-3.4,6.8-5.3c5.2-4.3,10.1-8.6,14.8-13.1c1.8,6.7,5,12.4,9.2,16.9c-10.7,1.3-20.3,5.7-28.6,13 C607.4,469,607.4,462.9,608.1,462.4z M599.5,468.1c0.6-0.4,0.6,3.5,2.2,7.1c0.7,1.7,1.6,3.3,2.6,4.8c-0.2,0.3-0.4,0.5-0.7,0.8 c-2.5,3-4.8,6.2-6.9,9.6c-4.5-5.3-9.4-9.7-14.7-13.2C587.7,474.7,593.6,471.8,599.5,468.1z M545.8,387.1c6.2,3.6,14.5,6.2,20.4,6.4 l5.4-0.6l-9.2-4.1c-10.2-5.3-18.2-15-22.2-26.1c-4.6-14.4-5-32,11.5-42.4c12.7-8.1,52.1,57.3,55.6,82.1c-11.5,24.6-10,35.4-32,54 c0,0-41.9-32.9-83.2-49.1C508.8,394.7,533.2,389.2,545.8,387.1z M488.9,419.2c4.6,1.9,9.1,3.9,13.6,6c15.7,7.6,30.9,16.8,45.4,26.6 c6.7,4.5,13.5,9.3,19.8,14.3c0.3,0.2,0.6,0.5,0.9,0.7c-2.2,0.7-4.3,1.4-6.5,2.1c-7.5-1.6-15.5-1.9-24-0.7c-16-17-34.8-25.6-55.3-29 C483.4,431,485.6,424.5,488.9,419.2z M523.6,471.1c-10.3,3-20.1,7.4-29.7,12.1c-3.9,1.9-6.3,5.4-6.8,9.8c-0.1,0.8-0.1,1.5,0,2.3 c-2.8,1.5-5.5,3.2-7.9,4.9c-10.9,7.8-19.7,18.4-25.5,30.5c-1.2,1.2-3.6,2.6-4.9,3.8c-5.1,4.6-20.6,6-27.2,6.3 c-9.3,0.4-19.1,0.1-28.4-1c-12.3-1.4-23.3-10-31.5-18.8c-0.7-0.7-1.4-1.5-2-2.3c0.3-0.2,0.5-0.4,0.8-0.7 c22.4-18.1,41.7-39.6,55.4-63.6C457.9,446.5,495.3,445.7,523.6,471.1z M422.8,440.7c3.5-7.5,6.4-15.3,8.7-23.2 c5.2-0.6,10.3-1.6,15.4-2.9c4.8-1.2,9.5-2.7,14.2-4.2l0.2-0.1c0,9.1-0.6,18.2-2,27.1C447.5,437.4,435.2,438.7,422.8,440.7z M407.4,302.6c4.8-7.7,16.1-8.4,21.5-5.2c21,12.6,38.3,79,38.4,98.6c-5.2,0.2-17.7,6.1-32.6,8.6c2.1-10.3,3.2-21,3.1-31.9 c-0.1-11.6-0.7-29.8-7.6-39.9c-2.4-3.6-5.1-7.1-7.8-10.6c-5-6.3-10.3-12.4-15.9-18.1C406.8,303.6,407.1,303.1,407.4,302.6z M297.7,178.3c0.4-0.3,0.7-0.6,1.1-0.9c0.2,0,0.4,0,0.6,0c34.5,25.3,44.4,59.6,46.7,83.2c-8.6-4.1-17.6-7.5-26.9-10.3 c-8.3-2.5-16.5-4.3-24.6-5.5C291,222.4,290.4,196.9,297.7,178.3z M281.4,196.3c-1.3,9.9-1.3,20.1-0.6,29.7c0.4,5.8,1,11.6,1.9,17.3 c-7.8-0.6-15.4-0.7-22.9-0.3C264.9,226.4,271.5,210.2,281.4,196.3z M313.9,265.1c49.7,14.8,83.4,51.9,96.4,68.7 c-12.8,5.1-33.7,14.3-53.1,25.1c-4.4,2.4-6.4,3.9-9.4,6c-1.6-1.9-3.3-3.8-5.2-5.4c-5.1-4.6-11.3-6.9-17.7-7.8 c28.5-13.3,50.9-21.6,42.5-33.9c-10.3-15.1-55.6-45.1-85.4-46.5c-24-1.1-51.6,10-75.6,27.3c-7.6-5.7-15-10.5-21.3-13.8 C220.2,260.2,266.4,251,313.9,265.1z M192,417c0.7,2.7-0.9,5.5-3.6,6.1c-2.7,0.7-5.5-1-6.2-3.7c-1.4-5.4-1.4-10.8,0.1-15.8 c1.4-4.9,4.2-9.4,8.2-12.7c6-4.9,13.7-6.5,21.3-5.2c7.3,1.3,14.6,5.4,20,12c1.8,2.2,1.5,5.4-0.7,7.2c-2.2,1.8-5.4,1.4-7.2-0.8 c-3.8-4.6-8.8-7.5-13.7-8.4c-4.7-0.8-9.5,0.1-13.2,3.1c-2.5,2-4.1,4.7-5,7.7C191.1,409.8,191.1,413.4,192,417z M177.2,290.4 c6.7,3.5,14.2,8.1,21.8,13.5c-26.5,21.3-47.4,49.9-51.6,77.1c-4.6,29.5,17.7,78.4,30.5,91.5c14,14.3,32.5-19.9,61.1-55.1 c-1.5,8.1-0.8,16.3,3.5,23.7c0.9,1.6,1.9,3.1,3,4.5c-18.7,17.7-29.5,31-40.8,46.1c-13.9,18.6-22.6,34.2-28.3,44.9 c-6.8-7.1-47.5-51.8-53.7-112.6C116.9,368.8,139.7,320.4,177.2,290.4z M113.5,372.3c-1.7,8.9-2.7,18.2-3,27.7 c-7.5-2.9-15.1-5.4-22.8-7.5c-10.8-3-22.4-5.3-34-6.2C72.3,378.1,92.8,374.3,113.5,372.3z M28,401.9c0.4-0.4,0.9-0.7,1.3-1 c24.4-4.4,55.5,3.4,81.3,13.8c0.2,3.5,0.4,7,0.8,10.6c1.9,18,4.7,35.7,9.9,52.6c-26.2-6.3-70-24.2-93.4-75.2 C28,402.3,28,402.1,28,401.9z"/><linearGradient id="SVGID_7_" x1="-340.493" x2="353.793" y1="506.438" y2="1115.867" gradientUnits="userSpaceOnUse"><stop offset="0" stop-color="#a477b1"/><stop offset=".511" stop-color="#ee515a"/><stop offset="1" stop-color="#2b3389"/></linearGradient><path fill="url(#SVGID_7_)" d="M222.4,850.4l-46.5,122.3l-1.2-26c0-2-0.6-4.8-1.6-8.4c-1-3.6-1.9-6-2.8-7.1c-1.2-1.7-3.6-3.3-7-5 c5.6-1.4,10.4-3.2,14.1-5.4c5.9-3.4,11.2-7.8,15.9-13.3c4.7-5.4,8.5-11.9,11.3-19.4c3.3-8.6,4.4-16,3.2-22 c-1.2-6-4.1-10.1-8.9-12.3c-4.7-2.2-12.4-3.3-23-3.3h-55.1h-2.1H16.4L6.2,877.6h35.1L0,985.7h34.3l41.3-108h32.8l0,0h40.8v0.1h8.6 c6.3,0,10.1,1.2,11.5,3.5c1.4,2.3,1.2,5.7-0.4,10.1c-1.1,3-2.8,5.6-5.2,7.9c-2.3,2.3-4.7,3.7-7.2,4.2c-5,1.2-8.3,1.9-9.8,1.9h-14.5 l6.6-17.4h-34.4l-37.2,97.7h34.4l20.8-54.8h3c3.1,0,5.5,1,7.2,3.1c1.2,1.6,1.9,5.1,2.2,10.4l2.6,41.3h33.2h5.6h28.9l51.5-135.3 H222.4z"/><linearGradient id="SVGID_8_" x1="-13.514" x2="680.772" y1="133.93" y2="743.359" gradientUnits="userSpaceOnUse"><stop offset="0" stop-color="#a477b1"/><stop offset=".511" stop-color="#ee515a"/><stop offset="1" stop-color="#2b3389"/></linearGradient><path fill="url(#SVGID_8_)" d="M180.3,310.2c1.8,1.2,4.9,0.8,6.8-0.9c1.9-1.7,2-4.1,0.2-5.3c-1.9-1.2-4.9-0.8-6.8,0.9 C178.5,306.6,178.4,309,180.3,310.2z"/><linearGradient id="SVGID_9_" x1="155.197" x2="849.483" y1="-58.271" y2="551.157" gradientUnits="userSpaceOnUse"><stop offset="0" stop-color="#a477b1"/><stop offset=".511" stop-color="#ee515a"/><stop offset="1" stop-color="#2b3389"/></linearGradient><path fill="url(#SVGID_9_)" d="M525.1,252c-2.6,1.9-5.4,3.7-8.4,5.4c-3,1.7-6,3.1-9.1,4.4c-2.1,0.9-3.1,3.3-2.2,5.4c0.9,2.1,3.3,3.1,5.4,2.2 c3.5-1.4,6.8-3,10-4.8c3.2-1.8,6.3-3.8,9.3-5.9c1.8-1.3,2.2-3.9,0.9-5.8C529.5,251.1,526.9,250.7,525.1,252z"/><linearGradient id="SVGID_10_" x1="-155.502" x2="538.784" y1="295.689" y2="905.118" gradientUnits="userSpaceOnUse"><stop offset="0" stop-color="#a477b1"/><stop offset=".511" stop-color="#ee515a"/><stop offset="1" stop-color="#2b3389"/></linearGradient><path fill="url(#SVGID_10_)" d="M644,935.1c-1-3.5-1.9-5.8-2.7-6.9c-1.2-1.6-3.5-3.2-6.8-4.8c5.4-1.4,10-3.1,13.6-5.2 c5.7-3.3,10.8-7.5,15.4-12.8c4.6-5.3,8.2-11.5,11-18.8c3.2-8.3,4.2-15.4,3.1-21.2c-1.1-5.8-4-9.8-8.6-11.9 c-4.6-2.2-12-3.2-22.2-3.2h-55.2L552,955.1h-65.3l10.1-26.6h53.9l10.5-27.6h-53.9l8.2-21.6h52.8l11-28.9h-87.3l-51.5,135.3h130.8 l0,0h2.3l21.4-57.6h2.9c3,0,5.4,1,7,3c1.2,1.5,1.9,4.9,2.2,10.1l2.5,39.9h37.5l-1.7-37.8C645.5,941.3,644.9,938.6,644,935.1z M618.6,903.4h-14l10.1-26.6h14.6c6.1,0,9.8,1.1,11.1,3.4c1.3,2.3,1.2,5.5-0.4,9.7c-1.1,2.9-2.7,5.4-5,7.6 c-2.2,2.2-4.5,3.6-6.9,4.1C623.2,902.8,620.1,903.4,618.6,903.4z"/><linearGradient id="SVGID_11_" x1="-67.043" x2="627.243" y1="194.913" y2="804.341" gradientUnits="userSpaceOnUse"><stop offset="0" stop-color="#a477b1"/><stop offset=".511" stop-color="#ee515a"/><stop offset="1" stop-color="#2b3389"/></linearGradient><path fill="url(#SVGID_11_)" d="M623,840.5l26.8-78.2c2.5-7.3,4.2-16.1,5.2-26.5c1,13.2,2.8,24.4,5.4,33.5l20,71.2h40.4L776,679.1h-40.4 l-16.3,47.8c-4.9,14.4-8.5,28.6-10.7,42.4c-0.8-8.9-2.9-19.3-6.4-31l-17.4-59.1H638l-15.6,45.8c-0.4-9-2.7-17-7-23.8 c-9-14.5-24.8-21.8-47-21.9l0,0h-146l-40,38.7h33.1l-39.5,115.4l1.1,7.3h43.4l42-122.7h24.5c-10.9,12.5-19.2,26.9-24.9,43.4 c-8.6,24.9-8.4,44.7,0.8,59.5c9.2,14.8,25.1,22.3,47.8,22.3c22.6,0,43.6-7.6,63.2-22.8c9.6-7.4,17.8-16.1,24.8-25.9l-15.8,46.3H623 z M564,756.6c-6.6,19.1-13,32.3-19.2,39.5c-6.2,7.2-13.5,10.8-21.9,10.8c-15.7,0-18.4-14.8-8.1-44.4c11-31.6,24.6-47.4,40.9-47.4 C570.8,715.1,573.6,728.9,564,756.6z"/><linearGradient id="SVGID_12_" x1="173.083" x2="867.369" y1="-78.648" y2="530.781" gradientUnits="userSpaceOnUse"><stop offset="0" stop-color="#a477b1"/><stop offset=".511" stop-color="#ee515a"/><stop offset="1" stop-color="#2b3389"/></linearGradient><path fill="url(#SVGID_12_)" d="M465.5,236.5l38.5-60.9l-22.2,3.6l13.1-33.8l-35.7,5.8c-5.1,54.9-5.1,54.9-5.1,54.9l17.4-5.2L465.5,236.5z"/><linearGradient id="SVGID_13_" x1="-87.109" x2="607.177" y1="217.774" y2="827.202" gradientUnits="userSpaceOnUse"><stop offset="0" stop-color="#a477b1"/><stop offset=".511" stop-color="#ee515a"/><stop offset="1" stop-color="#2b3389"/></linearGradient><path fill="url(#SVGID_13_)" d="M735,848.1c-11.2,0-20.6,1.7-28.3,5.1c-7.7,3.4-14.3,8.1-19.8,14.1c-5.5,6-9.5,12.3-12,19 c-3.9,10.2-4,18.6-0.2,25.2c3.7,6.6,12,11.9,25,15.9c8,2.4,12.6,4.9,14,7.6c1.4,2.7,1.4,5.7,0.2,9.1c-1.4,3.6-3.8,6.7-7.4,9.4 c-3.6,2.7-7.7,4-12.4,4c-6.3,0-10.2-2.7-11.6-7.9c-0.9-3.2-0.5-8,1.2-14.2l-32.4,2.4c-4.1,13.2-4.2,24-0.5,32.6 c3.8,8.6,14.8,12.8,33,12.8c10.4,0,19.7-1.8,27.9-5.5c8.2-3.6,15.6-9,22.1-16.1c6.5-7.1,11.3-14.8,14.5-23.2 c2.7-7.1,3.8-13.6,3.1-19.3c-0.6-5.8-3.4-10.6-8.2-14.5c-4.8-3.9-13.6-7.8-26.7-11.6c-5.3-1.5-8.4-3.1-9.2-4.8 c-0.9-1.7-1-3.5-0.2-5.6c1.1-2.9,3-5.3,5.7-7.3c2.7-2,6-3,9.8-3c4.7,0,7.8,1.3,9.5,4c1.6,2.7,1.7,7,0.3,12.9l32-2.3 c3.8-13.6,3.3-23.5-1.5-29.7C758,851.2,748.7,848.1,735,848.1z"/><linearGradient id="SVGID_14_" x1="-220.915" x2="473.371" y1="370.211" y2="979.639" gradientUnits="userSpaceOnUse"><stop offset="0" stop-color="#a477b1"/><stop offset=".511" stop-color="#ee515a"/><stop offset="1" stop-color="#2b3389"/></linearGradient><path fill="url(#SVGID_14_)" d="M365.4 679.1L298.2 745.7 321 679.1 274.3 679.1 232.2 802 166.1 802 175.1 775.6 233.9 775.6 246.2 739.8 187.3 739.8 195.4 716.3 252.8 716.3 265.6 679.1 171.5 679.1 159.5 679.1 57.8 679.1 44.5 717.8 77.9 717.8 36 840.5 82.9 840.5 124.9 717.8 146.2 717.8 104.3 840.5 219.1 840.5 225.8 840.5 265.8 840.5 278.6 803.2 303.3 779.8 310.4 840.5 364.6 840.5 349 738 409.8 679.1z"/><linearGradient id="SVGID_15_" x1="204.08" x2="898.366" y1="-113.961" y2="495.467" gradientUnits="userSpaceOnUse"><stop offset="0" stop-color="#a477b1"/><stop offset=".511" stop-color="#ee515a"/><stop offset="1" stop-color="#2b3389"/></linearGradient><path fill="url(#SVGID_15_)" d="M545.5,230.6c-1.3,1.9-0.7,4.5,1.2,5.7c1.9,1.2,4.5,0.7,5.7-1.2c8.2-12.4,13.3-26.7,14.7-41.6 c1.4-14.3-0.6-29.2-6.4-43.5c-0.9-2.1-3.3-3.1-5.4-2.2c-2.1,0.9-3.1,3.3-2.2,5.4c5.3,13,7.1,26.5,5.8,39.5 C557.6,206.3,553,219.3,545.5,230.6z"/><linearGradient id="SVGID_16_" x1="192.558" x2="886.843" y1="-100.834" y2="508.594" gradientUnits="userSpaceOnUse"><stop offset="0" stop-color="#a477b1"/><stop offset=".511" stop-color="#ee515a"/><stop offset="1" stop-color="#2b3389"/></linearGradient><path fill="url(#SVGID_16_)" d="M548.9,252.4c-1.5,1.7-1.5,4.3,0.2,5.8c1.7,1.5,4.3,1.5,5.8-0.2c7.5-8.1,13.8-17.5,18.6-27.7 c4.6-9.9,7.8-20.7,9.2-32.2c0.3-2.3-1.3-4.3-3.6-4.6c-2.3-0.3-4.3,1.3-4.6,3.6c-1.3,10.6-4.2,20.5-8.5,29.7 C561.7,236.2,555.9,244.9,548.9,252.4z"/><linearGradient id="SVGID_17_" x1="174.355" x2="868.641" y1="-80.098" y2="529.331" gradientUnits="userSpaceOnUse"><stop offset="0" stop-color="#a477b1"/><stop offset=".511" stop-color="#ee515a"/><stop offset="1" stop-color="#2b3389"/></linearGradient><path fill="url(#SVGID_17_)" d="M407.4,197.4c6.6,38.4,43,64.1,81.4,57.6c38.4-6.6,64.1-43,57.6-81.4c-6.6-38.4-43-64.1-81.4-57.6 C426.6,122.6,400.8,159,407.4,197.4z M466.8,126.8c32.4-5.6,63.2,16.2,68.8,48.6c5.6,32.4-16.2,63.2-48.6,68.8 c-32.4,5.6-63.2-16.2-68.8-48.6C412.6,163.1,434.4,132.3,466.8,126.8z"/><g><linearGradient id="SVGID_18_" x1="-268.509" x2="425.777" y1="424.431" y2="1033.86" gradientUnits="userSpaceOnUse"><stop offset="0" stop-color="#a477b1"/><stop offset=".511" stop-color="#ee515a"/><stop offset="1" stop-color="#2b3389"/></linearGradient><path fill="url(#SVGID_18_)" d="M357,886.4c1.3-8.7,1-15.9-0.8-21.6c-1.8-5.7-5.3-9.9-10.3-12.6c-5-2.7-13.7-4.1-26-4.1 c-12.7,0-23.7,2.2-32.9,6.5c-11.8,5.7-22.3,14-31.4,24.9c-9.2,10.9-16.5,23.7-22.2,38.5c-5.3,14-7.8,26.5-7.3,37.3 c0.4,10.8,3.8,19,10,24.4c20.7,18.3,77.4,12.4,94.4-19.7l19.6-51.5l-38.8,28h-1.8l-0.2,0.2c-8.4,22-40.3,30.3-46.4,12.1 c-2.1-6.3-0.4-16.7,5.1-31.3c5.2-13.8,11.3-23.9,18.2-30.2c6.9-6.4,14.1-9.5,21.6-9.5c5.1,0,8.7,1.4,10.9,4.1 c2.2,2.7,3,6.7,2.4,11.8L357,886.4z"/><linearGradient id="SVGID_19_" x1="-257.632" x2="436.654" y1="412.04" y2="1021.468" gradientUnits="userSpaceOnUse"><stop offset="0" stop-color="#a477b1"/><stop offset=".511" stop-color="#ee515a"/><stop offset="1" stop-color="#2b3389"/></linearGradient><path fill="url(#SVGID_19_)" d="M350.1 908.6L350.1 908.6 307.5 908.6 297.8 936.6 309.6 936.6 350.1 908.6z"/></g><linearGradient id="SVGID_20_" x1="-255.081" x2="439.205" y1="409.134" y2="1018.562" gradientUnits="userSpaceOnUse"><stop offset="0" stop-color="#a477b1"/><stop offset=".511" stop-color="#ee515a"/><stop offset="1" stop-color="#2b3389"/></linearGradient><path fill="url(#SVGID_20_)" d="M350.1 908.6L350.1 908.6 309.6 936.6 311.4 936.6z"/><linearGradient id="SVGID_21_" x1="-255.081" x2="439.205" y1="409.134" y2="1018.562" gradientUnits="userSpaceOnUse"><stop offset="0" stop-color="#a477b1"/><stop offset=".511" stop-color="#ee515a"/><stop offset="1" stop-color="#2b3389"/></linearGradient><path fill="url(#SVGID_21_)" d="M350.1 908.6L350.1 908.6 309.6 936.6 311.4 936.6z"/><g><linearGradient id="SVGID_22_" x1="-217.381" x2="476.905" y1="366.184" y2="975.613" gradientUnits="userSpaceOnUse"><stop offset="0" stop-color="#a477b1"/><stop offset=".511" stop-color="#ee515a"/><stop offset="1" stop-color="#2b3389"/></linearGradient><path fill="url(#SVGID_22_)" d="M474.5,886.4c1.3-8.7,1-15.9-0.8-21.6c-1.8-5.7-5.3-9.9-10.4-12.6c-5-2.7-13.7-4.1-26-4.1 c-12.7,0-23.7,2.2-32.9,6.5c-11.8,5.7-22.3,14-31.4,24.9c-9.2,10.9-16.5,23.7-22.2,38.5c-5.3,14-7.8,26.5-7.3,37.3 c0.4,10.8,3.8,19,10,24.4c20.7,18.3,77.4,12.4,94.4-19.7l19.6-51.5l-0.6,0.4l-38.2,27.6H427l-0.2,0.2c-8.4,22-40.3,30.3-46.4,12.1 c-2.1-6.3-0.4-16.7,5.1-31.3c5.2-13.8,11.3-23.9,18.2-30.2c6.9-6.4,14.1-9.5,21.6-9.5c5.1,0,8.7,1.4,10.9,4.1 c2.2,2.7,3,6.7,2.4,11.8L474.5,886.4z"/><linearGradient id="SVGID_23_" x1="-206.519" x2="487.767" y1="353.81" y2="963.238" gradientUnits="userSpaceOnUse"><stop offset="0" stop-color="#a477b1"/><stop offset=".511" stop-color="#ee515a"/><stop offset="1" stop-color="#2b3389"/></linearGradient><path fill="url(#SVGID_23_)" d="M467.6 908.6L425 908.6 415.3 936.6 427 936.6 467.1 909z"/></g><linearGradient id="SVGID_24_" x1="-204.17" x2="490.116" y1="351.134" y2="960.562" gradientUnits="userSpaceOnUse"><stop offset="0" stop-color="#a477b1"/><stop offset=".511" stop-color="#ee515a"/><stop offset="1" stop-color="#2b3389"/></linearGradient><path fill="url(#SVGID_24_)" d="M467.1 909L427 936.6 428.8 936.6z"/><linearGradient id="SVGID_25_" x1="-204.17" x2="490.116" y1="351.134" y2="960.562" gradientUnits="userSpaceOnUse"><stop offset="0" stop-color="#a477b1"/><stop offset=".511" stop-color="#ee515a"/><stop offset="1" stop-color="#2b3389"/></linearGradient><path fill="url(#SVGID_25_)" d="M467.1 909L427 936.6 428.8 936.6z"/></g></svg>
