<svg height="200" viewBox="0 0 720 200.00001" width="720" xmlns="http://www.w3.org/2000/svg"><g><g fill-rule="evenodd" transform="translate(13.088134 12.824896)"><g fill-rule="nonzero"><path d="m150.0514 30.979219-112.34478-25.1158508 1.324509-5.64184921 137.908021 30.83078101c3.44304.769728 2.86998 5.714929-.66226 5.714929h-171.678117v-5.78801z"/><path d="m3.8235217 174.12869c-1.6535813 0-2.99407385-1.33389-2.99407385-2.97932v-136.19766c0-.826375.34492495-1.615628.95234835-2.179151l34.2179868-31.7449663c1.914275-1.77592493 5.0358-.42514153 5.0358 2.179151v167.9426263c0 1.64543-1.340493 2.97932-2.994074 2.97932zm31.2239133-5.95865v-158.112296l-28.2298394 26.189597v131.922699z"/><path d="m61.13865 126.2803 25.380912 40.28721h46.674638l33.48555-40.34566-54.59744-17.6234zm52.65813-22.51495 59.70647 19.24664c1.82356.58783 2.52435 2.20038 1.49468 3.43933l-36.56129 43.99233c-.60064.72272-1.67982 1.16465-2.84407 1.16465h-50.919404c-1.299335 0-2.479254-.54926-3.019463-1.40559l-27.752414-43.99233c-.752975-1.19359-.04694-2.60426 1.58686-3.17056l55.526641-19.24665c.87698-.30398 1.89376-.31415 2.78199-.0278z"/></g><path d="m112.17236 108.53551v59.62779h21.30482l35.61997-42.23318z"/><g fill-rule="nonzero"><path d="m80.191257 116.90501c0 1.52927-1.236024 2.76899-2.760736 2.76899-1.524713 0-2.760736-1.23972-2.760736-2.76899v-18.388132c0-1.52927 1.236023-2.768988 2.760736-2.768988h30.196469c1.52472 0 2.76074 1.239718 2.76074 2.768988v7.713782c0 1.52927-1.23602 2.76899-2.76074 2.76899-1.52471 0-2.76073-1.23972-2.76073-2.76899v-4.94479h-24.675003z"/><path d="m120.39739 119.2728c0 1.52927-1.23602 2.76899-2.76073 2.76899-1.52472 0-2.76074-1.23972-2.76074-2.76899v-20.755922c0-1.52927 1.23602-2.768988 2.76074-2.768988h30.19647c1.52471 0 2.76073 1.239718 2.76073 2.768988v11.341772c0 1.52927-1.23602 2.76899-2.76073 2.76899s-2.76074-1.23972-2.76074-2.76899v-8.57278h-24.675z" transform="matrix(-1 0 0 1 265.46978 0)"/><path d="m120.68712 85.417721h24.13742v-22.949367h-24.13742zm-3.31289-28.487341h30.76319c1.21977 0 2.20859.991774 2.20859 2.21519v29.594936c0 1.223416-.98882 2.21519-2.20859 2.21519h-30.76319c-1.21977 0-2.20859-.991774-2.20859-2.21519v-29.594936c0-1.223416.98882-2.21519 2.20859-2.21519z"/><path d="m93.312883 92.484177c-9.75816 0-17.668711-7.934194-17.668711-17.721519 0-9.787324 7.910551-17.721519 17.668711-17.721519 9.758157 0 17.668717 7.934195 17.668717 17.721519 0 9.787325-7.91056 17.721519-17.668717 17.721519zm0-5.537975c6.708737 0 12.147237-5.454758 12.147237-12.183544s-5.4385-12.183544-12.147237-12.183544c-6.708735 0-12.147239 5.454758-12.147239 12.183544s5.438504 12.183544 12.147239 12.183544z"/></g></g><g transform="matrix(1.2644077 0 0 1.2644077 -67.917056 -42.023834)"><path d="m245.16877 135.55578q5.312 0 9.344-1.408 4.096-1.408 6.848-3.904 2.816-2.56 4.224-6.08 1.408-3.52 1.408-7.744 0-8.768-5.44-13.696-5.376-4.927999-16.384-4.927999h-14.72v37.759999zm0-47.551999q8.704 0 15.104 2.048 6.464 1.984 10.688 5.696 4.224 3.712 6.272 8.959999 2.112 5.248 2.112 11.712 0 6.4-2.24 11.712-2.24 5.312-6.592 9.152-4.288 3.84-10.688 6.016-6.336 2.112-14.656 2.112h-14.72v34.304h-12.352v-91.711999z"/><path d="m303.9205 114.88378v64.832h-11.392v-64.832zm2.432-20.351999q0 1.664-.704 3.136-.64 1.408-1.792 2.559999-1.088 1.088-2.624 1.728-1.472.64-3.136.64-1.664 0-3.136-.64-1.408-.64-2.496-1.728-1.088-1.151999-1.728-2.559999-.64-1.472-.64-3.136 0-1.664.64-3.136.64-1.536 1.728-2.624 1.088-1.152 2.496-1.792 1.472-.64 3.136-.64 1.664 0 3.136.64 1.536.64 2.624 1.792 1.152 1.088 1.792 2.624.704 1.472.704 3.136z"/><path d="m333.42447 127.87578q3.072-6.656 7.552-10.368 4.48-3.776 10.944-3.776 2.048 0 3.904.448 1.92.448 3.392 1.408l-.832 8.512q-.384 1.6-1.92 1.6-.896 0-2.624-.384-1.728-.384-3.904-.384-3.072 0-5.504.896-2.368.896-4.288 2.688-1.856 1.728-3.392 4.352-1.472 2.56-2.688 5.888v40.96h-11.456v-64.832h6.528q1.856 0 2.56.704.704.704.96 2.432z"/><path d="m403.3121 150.53178q-7.872.256-13.44 1.28-5.504.96-9.024 2.56-3.456 1.6-5.056 3.776-1.536 2.176-1.536 4.864 0 2.56.832 4.416.832 1.856 2.24 3.072 1.472 1.152 3.392 1.728 1.984.512 4.224.512 3.008 0 5.504-.576 2.496-.64 4.672-1.792 2.24-1.152 4.224-2.752 2.048-1.6 3.968-3.648zm-36.8-26.496q5.376-5.184 11.584-7.744 6.208-2.56 13.76-2.56 5.44 0 9.664 1.792 4.224 1.792 7.104 4.992 2.88 3.2 4.352 7.744 1.472 4.544 1.472 9.984v41.472h-5.056q-1.664 0-2.56-.512-.896-.576-1.408-2.176l-1.28-6.144q-2.56 2.368-4.992 4.224-2.432 1.792-5.12 3.072-2.688 1.216-5.76 1.856-3.008.704-6.72.704-3.776 0-7.104-1.024-3.328-1.088-5.824-3.2-2.432-2.112-3.904-5.312-1.408-3.264-1.408-7.68 0-3.84 2.112-7.36 2.112-3.584 6.848-6.336 4.736-2.752 12.352-4.48 7.616-1.792 18.688-2.048v-5.056q0-7.552-3.264-11.392-3.264-3.904-9.536-3.904-4.224 0-7.104 1.088-2.816 1.024-4.928 2.368-2.048 1.28-3.584 2.368-1.472 1.024-2.944 1.024-1.152 0-1.984-.576-.832-.64-1.408-1.536z"/><path d="m475.18407 140.22778q0-3.968-1.152-7.232-1.088-3.328-3.264-5.696-2.112-2.432-5.184-3.712-3.072-1.344-6.976-1.344-8.192 0-12.992 4.8-4.736 4.736-5.888 13.184zm9.216 30.4q-2.112 2.56-5.056 4.48-2.944 1.856-6.336 3.072-3.328 1.216-6.912 1.792-3.584.64-7.104.64-6.72 0-12.416-2.24-5.632-2.304-9.792-6.656-4.096-4.416-6.4-10.88-2.304-6.464-2.304-14.848 0-6.784 2.048-12.672 2.112-5.888 6.016-10.176 3.904-4.352 9.536-6.784 5.632-2.496 12.672-2.496 5.824 0 10.752 1.984 4.992 1.92 8.576 5.632 3.648 3.648 5.696 9.088 2.048 5.376 2.048 12.288 0 2.688-.576 3.584-.576.896-2.176.896h-43.328q.192 6.144 1.664 10.688 1.536 4.544 4.224 7.616 2.688 3.008 6.4 4.544 3.712 1.472 8.32 1.472 4.288 0 7.36-.96 3.136-1.024 5.376-2.176 2.24-1.152 3.712-2.112 1.536-1.024 2.624-1.024 1.408 0 2.176 1.088z"/><path d="m552.68805 114.88378v64.832h-6.784q-2.432 0-3.072-2.368l-.896-6.976q-4.224 4.672-9.472 7.552-5.248 2.816-12.032 2.816-5.312 0-9.408-1.728-4.032-1.792-6.784-4.992-2.752-3.2-4.16-7.744-1.344-4.544-1.344-10.048v-41.344h11.392v41.344q0 7.36 3.328 11.392 3.392 4.032 10.304 4.032 5.056 0 9.408-2.368 4.416-2.432 8.128-6.656v-47.744z"/><path d="m608.49591 125.57178q-.768 1.408-2.368 1.408-.96 0-2.176-.704-1.216-.704-3.008-1.536-1.728-.896-4.16-1.6-2.432-.768-5.76-.768-2.88 0-5.184.768-2.304.704-3.968 1.984-1.6 1.28-2.496 3.008-.832 1.664-.832 3.648 0 2.496 1.408 4.16 1.472 1.664 3.84 2.88 2.368 1.216 5.376 2.176 3.008.896 6.144 1.984 3.2 1.024 6.208 2.304 3.008 1.28 5.376 3.2 2.368 1.92 3.776 4.736 1.472 2.752 1.472 6.656 0 4.48-1.6 8.32-1.6 3.776-4.736 6.592-3.136 2.752-7.68 4.352-4.544 1.6-10.496 1.6-6.784 0-12.288-2.176-5.504-2.24-9.344-5.696l2.688-4.352q.512-.832 1.216-1.28.704-.448 1.792-.448 1.152 0 2.432.896 1.28.896 3.072 1.984 1.856 1.088 4.48 1.984 2.624.896 6.528.896 3.328 0 5.824-.832 2.496-.896 4.16-2.368 1.664-1.472 2.432-3.392.832-1.92.832-4.096 0-2.688-1.472-4.416-1.408-1.792-3.776-3.008-2.368-1.28-5.44-2.176-3.008-.96-6.208-1.984-3.136-1.024-6.208-2.304-3.008-1.344-5.376-3.328-2.368-1.984-3.84-4.864-1.408-2.944-1.408-7.104 0-3.712 1.536-7.104 1.536-3.456 4.48-6.016 2.944-2.624 7.232-4.16 4.288-1.536 9.792-1.536 6.4 0 11.456 2.048 5.12 1.984 8.832 5.504z"/></g></g></svg>