<?xml version="1.0" encoding="utf-8"?>
<!-- Generator: Adobe Illustrator 21.1.0, SVG Export Plug-In . SVG Version: 6.00 Build 0)  -->
<svg version="1.1" id="Layer_1" xmlns="http://www.w3.org/2000/svg" xmlns:xlink="http://www.w3.org/1999/xlink" x="0px" y="0px"
	 viewBox="0 0 792 334.5" style="enable-background:new 0 0 792 334.5;" xml:space="preserve">
<style type="text/css">
	.st0{opacity:0.8;}
	.st1{clip-path:url(#SVGID_2_);fill:#231F20;}
	.st2{clip-path:url(#SVGID_4_);fill:#231F20;}
	.st3{fill:#231F20;}
	.st4{fill-rule:evenodd;clip-rule:evenodd;fill:#231F20;}
	.st5{opacity:0.8;fill:#231F20;}
	.st6{clip-path:url(#SVGID_6_);fill:#231F20;}
</style>
<g class="st0">
	<g>
		<defs>
			<rect id="SVGID_1_" x="626.1" y="310.8" width="160" height="1.3"/>
		</defs>
		<use xlink:href="#SVGID_1_"  style="overflow:visible;fill:#231F20;"/>
		<clipPath id="SVGID_2_">
			<use xlink:href="#SVGID_1_"  style="overflow:visible;"/>
		</clipPath>
		<rect x="626.1" y="310.8" class="st1" width="160" height="1.3"/>
	</g>
</g>
<g class="st0">
	<g>
		<defs>
			<rect id="SVGID_3_" x="6.1" y="310.8" width="160" height="1.3"/>
		</defs>
		<use xlink:href="#SVGID_3_"  style="overflow:visible;fill:#231F20;"/>
		<clipPath id="SVGID_4_">
			<use xlink:href="#SVGID_3_"  style="overflow:visible;"/>
		</clipPath>
		<rect x="6.1" y="310.8" class="st2" width="160" height="1.3"/>
	</g>
</g>
<path class="st3" d="M225.1,224.9c1.3-0.4,3.1-0.7,5.2-1.1c2.1-0.3,4.3-0.5,6.6-0.5c2.4,0,4.3,0.3,5.9,0.9c1.6,0.6,2.8,1.5,3.7,2.6
	c0.9,1.1,1.6,2.5,1.9,4c0.4,1.5,0.6,3.3,0.6,5.2v15.6h-7.8v-14.7c0-2.5-0.3-4.3-1-5.4c-0.7-1.1-1.9-1.6-3.7-1.6
	c-0.6,0-1.2,0-1.8,0.1c-0.6,0.1-1.2,0.1-1.7,0.2v21.4h-7.8V224.9z M210.6,237.7c0-2.4-0.5-4.3-1.4-5.7c-1-1.4-2.3-2.1-4.1-2.1
	s-3.2,0.7-4.2,2.1c-1,1.4-1.5,3.3-1.5,5.7c0,2.4,0.5,4.3,1.5,5.8c1,1.4,2.4,2.1,4.2,2.1s3.2-0.7,4.1-2.1
	C210.1,242,210.6,240.1,210.6,237.7 M218.6,237.7c0,2.2-0.3,4.2-0.9,6c-0.6,1.8-1.5,3.4-2.7,4.6c-1.2,1.3-2.6,2.3-4.3,3
	c-1.7,0.7-3.5,1.1-5.6,1.1c-2,0-3.9-0.4-5.6-1.1c-1.7-0.7-3.1-1.7-4.3-3c-1.2-1.3-2.1-2.8-2.8-4.6c-0.7-1.8-1-3.8-1-6s0.3-4.2,1-5.9
	c0.7-1.8,1.6-3.3,2.8-4.6c1.2-1.3,2.7-2.2,4.3-2.9c1.7-0.7,3.5-1.1,5.4-1.1c2,0,3.8,0.4,5.5,1.1c1.7,0.7,3.1,1.7,4.3,2.9
	c1.2,1.3,2.1,2.8,2.8,4.6C218.3,233.5,218.6,235.5,218.6,237.7 M176,252.3c-5.9,0-10.4-1.6-13.6-4.9c-3.1-3.3-4.7-8-4.7-14.1
	c0-3,0.5-5.7,1.4-8.1c0.9-2.4,2.2-4.4,3.9-6c1.6-1.6,3.6-2.9,5.9-3.7c2.3-0.8,4.8-1.3,7.4-1.3c1.5,0,2.9,0.1,4.2,0.3
	c1.3,0.2,2.4,0.5,3.3,0.8c0.9,0.3,1.7,0.6,2.4,0.9c0.6,0.3,1.1,0.6,1.4,0.7l-2.4,6.6c-1.1-0.6-2.4-1.1-3.9-1.5
	c-1.5-0.4-3.2-0.6-5.1-0.6c-1.3,0-2.5,0.2-3.7,0.6c-1.2,0.4-2.3,1.1-3.2,2c-0.9,0.9-1.7,2.1-2.2,3.6c-0.6,1.5-0.8,3.3-0.8,5.4
	c0,1.7,0.2,3.3,0.6,4.7c0.4,1.5,1,2.7,1.8,3.8c0.8,1.1,1.9,1.9,3.2,2.5c1.3,0.6,2.9,0.9,4.8,0.9c1.2,0,2.3-0.1,3.2-0.2
	c0.9-0.1,1.8-0.3,2.5-0.5c0.7-0.2,1.4-0.4,1.9-0.7c0.6-0.2,1.1-0.5,1.5-0.7l2.3,6.6c-1.2,0.7-2.8,1.3-4.9,1.9
	C181.2,252.1,178.8,252.3,176,252.3 M144.8,235c0-0.7-0.1-1.3-0.3-1.9c-0.2-0.6-0.5-1.2-0.9-1.7c-0.4-0.5-0.9-0.9-1.5-1.2
	c-0.6-0.3-1.4-0.5-2.3-0.5c-0.9,0-1.6,0.1-2.3,0.4c-0.6,0.3-1.2,0.7-1.6,1.2c-0.4,0.5-0.7,1.1-1,1.7c-0.2,0.6-0.4,1.3-0.5,2H144.8z
	 M126.4,238c0-2.5,0.4-4.6,1.1-6.4c0.8-1.8,1.7-3.4,3-4.6c1.2-1.2,2.6-2.2,4.2-2.8c1.6-0.6,3.2-0.9,4.9-0.9c3.9,0,7,1.2,9.3,3.6
	c2.3,2.4,3.4,5.9,3.4,10.6c0,0.5,0,1-0.1,1.5c0,0.5-0.1,1-0.1,1.4h-17.8c0.2,1.6,0.9,2.9,2.3,3.8c1.3,0.9,3.1,1.4,5.4,1.4
	c1.4,0,2.9-0.1,4.2-0.4s2.5-0.6,3.4-1l1.1,6.4c-0.4,0.2-1,0.4-1.7,0.6c-0.7,0.2-1.5,0.4-2.3,0.6c-0.9,0.2-1.8,0.3-2.8,0.4
	c-1,0.1-2,0.2-2.9,0.2c-2.5,0-4.7-0.4-6.5-1.1c-1.8-0.7-3.4-1.7-4.6-3c-1.2-1.3-2.1-2.8-2.7-4.6C126.6,241.9,126.4,240,126.4,238
	 M121.2,237.8c0,2.2-0.3,4.2-1,6c-0.6,1.8-1.6,3.3-2.8,4.6c-1.2,1.3-2.7,2.2-4.5,2.9c-1.8,0.7-3.8,1-6.1,1c-0.9,0-1.9,0-3-0.1
	c-1-0.1-2.1-0.2-3.1-0.3c-1-0.1-2-0.3-2.9-0.5c-0.9-0.2-1.7-0.4-2.4-0.6V212l7.8-1.3v13.8c0.9-0.4,1.8-0.7,2.7-0.9
	c0.9-0.2,2-0.3,3.1-0.3c2,0,3.7,0.3,5.2,1c1.5,0.7,2.8,1.7,3.8,2.9c1,1.3,1.8,2.8,2.3,4.6C120.9,233.6,121.2,235.6,121.2,237.8
	 M113.2,237.5c0-5.1-1.9-7.6-5.6-7.6c-0.8,0-1.6,0.1-2.4,0.3c-0.8,0.2-1.4,0.5-1.9,0.8v14.3c0.4,0.1,0.9,0.1,1.5,0.2
	c0.6,0.1,1.2,0.1,1.9,0.1c2.1,0,3.8-0.7,4.8-2.2C112.7,241.9,113.2,240,113.2,237.5 M87.7,250.7c-1.3,0.4-3.1,0.7-5.2,1.1
	c-2.1,0.3-4.3,0.5-6.6,0.5c-2.4,0-4.3-0.3-5.9-0.9c-1.6-0.6-2.8-1.5-3.7-2.7c-0.9-1.1-1.6-2.5-1.9-4.1c-0.4-1.6-0.6-3.3-0.6-5.2
	v-15.4h7.8v14.5c0,2.5,0.3,4.4,1,5.5c0.7,1.1,1.9,1.7,3.7,1.7c0.6,0,1.2,0,1.8-0.1c0.6-0.1,1.2-0.1,1.7-0.2v-21.4h7.8V250.7z
	 M51.5,251.6c-0.7-1.2-1.6-2.5-2.6-3.9c-1-1.4-2.1-2.8-3.3-4.2c-1.2-1.4-2.4-2.7-3.7-4c-1.3-1.3-2.5-2.4-3.8-3.4v15.4h-8.2v-36.5
	h8.2v13.8c2.1-2.2,4.3-4.6,6.5-7c2.2-2.4,4.2-4.7,6-6.8h9.7c-2.5,2.9-5,5.8-7.5,8.5c-2.5,2.7-5.2,5.5-7.9,8.3
	c2.9,2.4,5.7,5.3,8.4,8.6c2.7,3.3,5.3,7,7.8,11.1H51.5z"/>
<path class="st4" d="M117.3,90.6l-4.5,1c0-0.6-0.1-1.3-0.1-1.9c0-4.8,1.3-9.5,3.8-13.7l8.8,7.9c0.2,0.1,0.3,0.3,0.5,0.4
	c-0.5,1.3-0.9,2.7-1,4.2c-0.3,0.1-0.6,0.2-0.9,0.2L117.3,90.6z M134.5,63.8v12.4c-1.2,0.4-2.4,1-3.5,1.7c-0.4-0.3-0.8-0.6-1.2-0.9
	l-9-6.4C124.6,67.1,129.3,64.7,134.5,63.8 M72.9,92.4c4.3-18.9,7.9-34.8,12.3-53.7C87.1,30.1,88.3,28,96,23.5
	c10.7-6.1,18.6-10.7,30-17.2c7.1-4.1,8.5-3.8,8.5,4.9V55c-7.9,1-15.3,4.7-20.8,10.6l-3.8-2.7c-0.5-0.3-0.7-0.7-0.9-1.2
	c-0.5-1.3-0.8-2.1-2-3c-1.8-1.4-4.4-1.1-5.9,0.7c-1.4,1.8-1.1,4.4,0.7,5.9c0.6,0.5,1.3,0.9,2.1,1.1c0.5,0.1,1,0.2,1.5,0.2
	c0.5,0.1,0.8,0.2,1.1,0.5l3.6,3.2c-3.9,5.8-6,12.5-6,19.5c0,1.3,0.1,2.5,0.2,3.8l-7.7,1.6c-0.5,0-1,0-1.6,0.2
	c-0.4,0.1-0.8,0.2-1.1,0.4c-5,1.1-10.1,2.2-15.3,3.3C71.6,100.4,71.4,99,72.9,92.4 M143.5,76.2V63.8c5.1,0.9,9.8,3.2,13.5,6.8
	l-9.8,7c-0.1,0.1-0.3,0.2-0.4,0.3C145.8,77.2,144.7,76.6,143.5,76.2 M165.2,90.8L153,88c-0.2-1.3-0.5-2.6-1-3.8
	c0.1-0.1,0.2-0.2,0.3-0.3l9-8c2.6,4.1,3.9,8.9,3.9,13.8C165.2,90,165.2,90.4,165.2,90.8 M149.4,23.8c6.5,3.1,11.3,5.4,17.9,8.6
	c9.1,4.4,18.3,8.8,27.4,13.2c2.3,9.9,4.5,19.8,6.8,29.7c1.3,5.9,2.1,9.1,3.4,15c2.1,9.2,1.9,10-7.6,7.8l-23.4-5.3
	c0.1-1,0.1-2,0.1-3.1c0-7-2.1-13.8-6-19.6l3.3-3c0.4-0.4,0.8-0.5,1.4-0.6c1.4-0.2,2.2-0.4,3.4-1.3c1.8-1.4,2.1-4.1,0.7-5.9
	c-1.4-1.8-4.1-2.1-5.9-0.7c-0.6,0.5-1.1,1.1-1.5,1.8c-0.2,0.5-0.4,0.9-0.6,1.4c-0.2,0.4-0.4,0.7-0.8,1l-3.8,2.7
	c-5.5-5.8-12.8-9.5-20.7-10.5V28.3C143.5,22,144,21.3,149.4,23.8 M141.4,103.6c-0.8,0.1-1.6,0.2-2.4,0.2c-0.8,0-1.5-0.1-2.3-0.2
	c-0.1,0.3-0.3,0.5-0.4,0.8l-5.6,10.2c2.7,0.9,5.5,1.3,8.3,1.3c2.9,0,5.7-0.5,8.4-1.4l-5.6-10.1C141.7,104.2,141.5,103.9,141.4,103.6
	 M151.2,96.8l12.1,2.8c-2,4.9-5.4,9.1-9.8,12l-4.8-11.6C149.6,99,150.5,97.9,151.2,96.8 M114.6,99.5l12.1-2.8
	c0.7,1.2,1.6,2.3,2.6,3.3c-0.1,0.3-0.2,0.5-0.3,0.8l-4.5,10.8C120.1,108.7,116.6,104.5,114.6,99.5 M214,120.8
	c-5.8,7.3-8.4,10.6-14.2,17.9c-6.6,8.3-11.9,14.9-18.5,23.2c-4.7,5.9-8,6.1-15.9,6.1H139h-26.6c-10.2,0-10.9,0-17.1-7.8
	c-6.2-7.7-11-13.8-17.1-21.5c-4.8-6-6-7.6-10.9-13.6c-7.5-9.4-8.7-12.7,2.9-15.4l35.9-8.2c2.7,7.6,8.1,14.1,15.1,18.2l-1.6,3.8
	c-0.2,0.6-0.5,0.8-1,1.2c-1.2,0.8-1.8,1.3-2.5,2.6c-1,2.1-0.1,4.6,1.9,5.6c2.1,1,4.6,0.1,5.6-1.9c0.3-0.7,0.5-1.4,0.6-2.2
	c0-0.5-0.1-1-0.1-1.5c0-0.5,0-0.8,0.3-1.2l2.1-3.7c4,1.5,8.3,2.3,12.5,2.3c4.3,0,8.6-0.8,12.7-2.4l2,3.6c0.3,0.5,0.3,0.9,0.3,1.5
	c-0.1,1.4-0.2,2.2,0.5,3.6c1,2.1,3.5,2.9,5.6,1.9c2.1-1,2.9-3.5,1.9-5.6c-0.3-0.7-0.8-1.3-1.4-1.8c-0.4-0.3-0.8-0.6-1.2-0.9
	c-0.4-0.3-0.6-0.5-0.8-1l-1.7-4c6.9-4.1,12.3-10.6,15-18.2l39.6,9C219.2,112.3,218.6,115.1,214,120.8"/>
<path class="st4" d="M143.5,76.2V63.8c5.1,0.9,9.8,3.2,13.5,6.8l-9.8,7c-0.1,0.1-0.3,0.2-0.4,0.3C145.8,77.2,144.7,76.6,143.5,76.2
	 M165.2,90.8L153,88c-0.2-1.3-0.5-2.6-1-3.8c0.1-0.1,0.2-0.2,0.3-0.3l9-8c2.6,4.1,3.9,8.9,3.9,13.8C165.2,90,165.2,90.4,165.2,90.8
	 M149.4,23.8c6.5,3.1,11.3,5.4,17.9,8.6c9.1,4.4,18.3,8.8,27.4,13.2c2.3,9.9,4.5,19.8,6.8,29.7c1.3,5.9,2.1,9.1,3.4,15
	c2.1,9.2,1.9,10-7.6,7.8l-23.4-5.3c0.1-1,0.1-2,0.1-3.1c0-7-2.1-13.8-6-19.6l3.3-3c0.4-0.4,0.8-0.5,1.4-0.6c1.4-0.2,2.2-0.4,3.4-1.3
	c1.8-1.4,2.1-4.1,0.7-5.9c-1.4-1.8-4.1-2.1-5.9-0.7c-0.6,0.5-1.1,1.1-1.5,1.8c-0.2,0.5-0.4,0.9-0.6,1.4c-0.2,0.4-0.4,0.7-0.8,1
	l-3.8,2.7c-5.5-5.8-12.8-9.5-20.7-10.5V28.3C143.5,22,144,21.3,149.4,23.8 M151.2,96.8l12.1,2.8c-2,4.9-5.4,9.1-9.8,12l-4.8-11.6
	C149.6,99,150.5,97.9,151.2,96.8 M139,115.9v-12.1c0.8,0,1.6-0.1,2.4-0.2c0.2,0.3,0.3,0.6,0.5,0.9l5.6,10.1
	C144.7,115.4,141.8,115.9,139,115.9 M214,120.8c-5.8,7.3-8.4,10.6-14.2,17.9c-6.6,8.3-11.9,14.9-18.5,23.2c-4.7,5.9-8,6.1-15.9,6.1
	H139v-43.4c4.3,0,8.6-0.8,12.7-2.4l2,3.6c0.3,0.5,0.3,0.9,0.3,1.5c-0.1,1.4-0.2,2.2,0.5,3.6c1,2.1,3.5,2.9,5.6,1.9
	c2.1-1,2.9-3.5,1.9-5.6c-0.3-0.7-0.8-1.3-1.4-1.8c-0.4-0.3-0.8-0.6-1.2-0.9c-0.4-0.3-0.6-0.5-0.8-1l-1.7-4
	c6.9-4.1,12.3-10.6,15-18.2l39.6,9C219.2,112.3,218.6,115.1,214,120.8"/>
<polygon class="st3" points="507.6,119.3 486.6,119.3 486.6,168.4 535.7,168.4 535.7,147.4 507.6,147.4 "/>
<polygon class="st3" points="612.8,119.5 612.8,147.4 584.9,147.4 584.8,147.2 584.8,168.4 633.9,168.4 633.9,119.3 612.7,119.3 "/>
<polygon class="st3" points="486.6,70.3 507.8,70.3 507.6,70.1 507.6,42.2 507.6,42.2 535.5,42.2 535.7,42.4 535.7,21.2 486.6,21.2 
	"/>
<polygon class="st3" points="584.8,21.2 584.8,42.2 612.8,42.2 612.8,70.3 633.9,70.3 633.9,21.2 "/>
<polygon class="st5" points="582.2,70.3 554.1,42.2 584.8,42.2 584.8,21.2 535.7,21.2 535.7,42.4 563.6,70.3 "/>
<polygon class="st5" points="556.9,119.3 538.3,119.3 561.5,142.6 566.3,147.4 556.7,147.4 535.7,147.4 535.7,168.4 584.8,168.4 
	584.8,147.2 570.8,133.3 "/>
<polygon class="st5" points="612.8,70.3 612.8,91.3 612.8,100.9 608,96.1 584.8,72.9 584.8,91.5 598.7,105.4 612.7,119.3 
	633.9,119.3 633.9,70.3 "/>
<polygon class="st5" points="535.7,98.1 507.8,70.3 486.6,70.3 486.6,119.3 507.6,119.3 507.6,88.7 535.7,116.7 "/>
<path class="st3" d="M383.9,222l-5.3,6.3c-2.4-2.9-5.9-4.7-9.1-4.7c-5.7,0-10.1,4.6-10.1,10.5c0,6.1,4.3,10.7,10.1,10.7
	c3.1,0,6.6-1.7,9.1-4.2l5.4,5.7c-3.9,4-9.6,6.6-15,6.6c-10.9,0-19-8-19-18.6c0-10.5,8.3-18.3,19.3-18.3
	C374.7,215.9,380.3,218.3,383.9,222z"/>
<path class="st3" d="M388.4,252.4V214h9v38.4H388.4z"/>
<path class="st3" d="M432.9,238.4c0,8.6-6.1,14.3-15.2,14.3c-9.2,0-15.3-5.7-15.3-14.3s6.1-14.2,15.3-14.2
	C426.8,224.2,432.9,229.8,432.9,238.4z M411.4,238.5c0,4.3,2.5,7.2,6.3,7.2c3.7,0,6.2-2.9,6.2-7.2c0-4.3-2.5-7.2-6.2-7.2
	C413.9,231.3,411.4,234.2,411.4,238.5z"/>
<path class="st3" d="M464.8,252.4h-9v-4.6c-1.9,3.3-5,5-9.1,5c-6.1,0-10-4.1-10-10.7v-17.6h9v15.1c0,3.3,1.8,5.3,4.7,5.3
	c3.4-0.1,5.4-2.8,5.4-6.6v-13.8h9V252.4z"/>
<path class="st3" d="M500.1,252.4h-9v-3.7c-2,2.6-4.8,4-8.4,4c-7.9,0-13-5.8-13-14.4c0-8.5,5.1-14.2,12.8-14.2c3.7,0,6.6,1.4,8.6,4
	V214h9V252.4z M491.1,238.5c0-4.3-2.5-7.2-6.2-7.2c-3.7,0-6.2,2.9-6.3,7.2c0.1,4.3,2.5,7.3,6.3,7.3
	C488.7,245.8,491.1,242.8,491.1,238.5z"/>
<path class="st3" d="M532.8,252.4l-16.7-22.3v22.3h-8.6v-36.2h8.1l16.7,22.4v-22.4h8.6v36.2H532.8z"/>
<path class="st3" d="M572.8,234.2v18.2h-8.7v-3.2c-1.8,2.4-4.8,3.6-8.5,3.6c-5.9,0-9.6-3.6-9.6-8.7c0-5.3,3.8-8.4,10.7-8.4h7.3v-0.4
	c0-2.7-1.8-4.4-5.4-4.4c-2.3,0-5.4,0.8-8.3,2.3l-2.5-5.9c4.3-2,8.3-3.2,12.9-3.2C568.3,224.1,572.8,227.9,572.8,234.2z M564,242.9
	v-2.5h-5.6c-2.7,0-4,0.9-4,3c0,2,1.4,3.3,3.9,3.3C561.1,246.8,563.5,245.2,564,242.9z"/>
<path class="st3" d="M597,250.9c-2,1.2-4.8,1.9-7.5,1.9c-5.4,0-9.3-3.1-9.3-8.8v-12.3h-3.9v-5.8h3.9V218h8.9v7.7h7.3v5.9h-7.3v10.9
	c0,2.2,0.9,3.1,2.6,3.1c0.9,0,2.1-0.4,3.5-0.9L597,250.9z"/>
<path class="st3" d="M610.7,216.5c0,2.8-2,4.8-4.7,4.8c-2.7,0-4.7-2-4.7-4.8c0-2.7,2-4.7,4.7-4.7
	C608.7,211.8,610.7,213.8,610.7,216.5z M601.5,252.4v-27.9h8.9v27.9H601.5z"/>
<path class="st3" d="M624.2,252.4l-10.5-27.9h9.2l6,19.7l6.1-19.7h8.9l-10.5,27.9H624.2z"/>
<path class="st3" d="M673.4,240.9h-19.6c0.9,3.3,3.3,5.2,6.6,5.2c2.4,0,4.8-1,6.7-2.8l4.7,4.6c-2.8,3.1-7,4.9-12.2,4.9
	c-9.1,0-14.8-5.7-14.8-14.2c0-8.6,5.9-14.3,14.5-14.3C669.1,224.2,674,230.7,673.4,240.9z M664.8,236.1c0-3.4-2.2-5.6-5.4-5.6
	c-3.1,0-5.2,2.3-5.8,5.6H664.8z"/>
<path class="st3" d="M709.9,222l-5.3,6.3c-2.4-2.9-5.9-4.7-9.1-4.7c-5.7,0-10.1,4.6-10.1,10.5c0,6.1,4.3,10.7,10.1,10.7
	c3.1,0,6.6-1.7,9.1-4.2l5.4,5.7c-3.9,4-9.6,6.6-15,6.6c-10.9,0-19-8-19-18.6c0-10.5,8.3-18.3,19.3-18.3
	C700.6,215.9,706.2,218.3,709.9,222z"/>
<path class="st3" d="M741.2,238.4c0,8.6-6.1,14.3-15.2,14.3c-9.2,0-15.3-5.7-15.3-14.3s6.1-14.2,15.3-14.2
	C735.1,224.2,741.2,229.8,741.2,238.4z M719.7,238.5c0,4.3,2.5,7.2,6.3,7.2c3.7,0,6.2-2.9,6.2-7.2c0-4.3-2.5-7.2-6.2-7.2
	C722.2,231.3,719.7,234.2,719.7,238.5z"/>
<path class="st3" d="M774.4,234.8v17.6h-8.9v-15.1c0-3.3-1.9-5.3-4.9-5.3c-3.3,0-5.3,2.3-5.7,5.6v14.7h-9v-27.9h9v4.6
	c2-3.3,5.2-4.9,9.3-5C770.4,224.1,774.4,228.3,774.4,234.8z"/>
<g class="st0">
	<g>
		<defs>
			<rect id="SVGID_5_" x="302.3" y="4.8" width="1.3" height="257.5"/>
		</defs>
		<use xlink:href="#SVGID_5_"  style="overflow:visible;fill:#231F20;"/>
		<clipPath id="SVGID_6_">
			<use xlink:href="#SVGID_5_"  style="overflow:visible;"/>
		</clipPath>
		<rect x="302.3" y="4.8" class="st6" width="1.3" height="257.5"/>
	</g>
</g>
<g class="st0">
	<path class="st3" d="M228.1,326.1h-7.6l-12.2-21.3h-0.2c0.2,3.8,0.4,6.4,0.4,8v13.2h-5.3V298h7.5l12.2,21h0.1
		c-0.2-3.7-0.3-6.2-0.3-7.7V298h5.4V326.1z"/>
	<path class="st3" d="M254.2,315.3c0,3.5-0.9,6.2-2.8,8.2c-1.8,2-4.4,3-7.7,3c-2.1,0-3.9-0.5-5.5-1.4c-1.6-0.9-2.8-2.2-3.6-3.9
		c-0.8-1.7-1.3-3.7-1.3-5.9c0-3.5,0.9-6.2,2.7-8.2c1.8-1.9,4.4-2.9,7.7-2.9c2.1,0,3.9,0.4,5.5,1.3c1.6,0.9,2.8,2.2,3.6,3.9
		C253.8,311.1,254.2,313.1,254.2,315.3z M239.4,315.3c0,2.1,0.3,3.7,1,4.8c0.7,1.1,1.8,1.6,3.4,1.6c1.6,0,2.7-0.5,3.4-1.6
		c0.7-1.1,1-2.7,1-4.8c0-2.1-0.3-3.7-1-4.8c-0.7-1.1-1.8-1.6-3.4-1.6c-1.6,0-2.7,0.5-3.4,1.6C239.7,311.6,239.4,313.2,239.4,315.3z"
		/>
	<path class="st3" d="M271.1,304.2c0.8,0,1.5,0.1,2,0.2l-0.4,5.5c-0.5-0.1-1.1-0.2-1.7-0.2c-1.9,0-3.3,0.5-4.4,1.4
		c-1,1-1.6,2.3-1.6,4v10.9h-5.9v-21.5h4.4l0.9,3.6h0.3c0.7-1.2,1.6-2.2,2.7-2.9C268.5,304.6,269.8,304.2,271.1,304.2z"/>
	<path class="st3" d="M286,321.8c1,0,2.3-0.2,3.7-0.7v4.4c-1.5,0.7-3.3,1-5.4,1c-2.3,0-4.1-0.6-5.1-1.8c-1.1-1.2-1.6-3-1.6-5.3V309
		h-2.8v-2.5l3.2-2l1.7-4.5h3.7v4.6h6v4.4h-6v10.4c0,0.8,0.2,1.4,0.7,1.8C284.6,321.6,285.3,321.8,286,321.8z"/>
	<path class="st3" d="M313.9,326.1H308v-12.6c0-3.1-1.2-4.7-3.5-4.7c-1.6,0-2.8,0.6-3.6,1.7c-0.7,1.1-1.1,2.9-1.1,5.4v10.1h-5.9
		v-29.9h5.9v6.1c0,0.5,0,1.6-0.1,3.3l-0.1,1.7h0.3c1.3-2.1,3.4-3.2,6.2-3.2c2.5,0,4.4,0.7,5.7,2c1.3,1.4,2,3.3,2,5.8V326.1z"/>
	<path class="st3" d="M347.8,326.1l-2-6.7h-10.2l-2,6.7h-6.4l9.9-28.2h7.3l10,28.2H347.8z M344.4,314.4c-1.9-6.1-2.9-9.5-3.2-10.3
		c-0.2-0.8-0.4-1.4-0.5-1.9c-0.4,1.6-1.6,5.7-3.6,12.2H344.4z"/>
	<path class="st3" d="M376.6,326.1h-5.9v-12.6c0-1.5-0.3-2.7-0.8-3.5c-0.5-0.8-1.3-1.2-2.5-1.2c-1.5,0-2.6,0.6-3.3,1.7s-1,2.9-1,5.4
		v10.1h-5.9v-21.5h4.5l0.8,2.7h0.3c0.6-1,1.4-1.8,2.5-2.3c1.1-0.6,2.3-0.8,3.7-0.8c3.2,0,5.4,1.1,6.5,3.2h0.5c0.6-1,1.4-1.8,2.5-2.3
		c1.1-0.5,2.4-0.8,3.8-0.8c2.4,0,4.3,0.6,5.5,1.9c1.2,1.2,1.9,3.3,1.9,6v14h-5.9v-12.6c0-1.5-0.3-2.7-0.8-3.5
		c-0.5-0.8-1.3-1.2-2.5-1.2c-1.4,0-2.5,0.5-3.2,1.5c-0.7,1-1.1,2.7-1.1,4.9V326.1z"/>
	<path class="st3" d="M405.7,326.5c-3.5,0-6.2-1-8.1-2.9c-1.9-1.9-2.9-4.6-2.9-8.1c0-3.6,0.9-6.4,2.7-8.4c1.8-2,4.3-3,7.5-3
		c3,0,5.4,0.9,7.1,2.6c1.7,1.7,2.5,4.1,2.5,7.2v2.8h-13.9c0.1,1.7,0.6,3,1.5,3.9c0.9,0.9,2.2,1.4,3.9,1.4c1.3,0,2.5-0.1,3.7-0.4
		c1.2-0.3,2.4-0.7,3.6-1.3v4.5c-1,0.5-2.1,0.9-3.3,1.1C408.8,326.4,407.4,326.5,405.7,326.5z M404.9,308.4c-1.2,0-2.2,0.4-2.9,1.2
		c-0.7,0.8-1.1,1.9-1.2,3.4h8.2c0-1.4-0.4-2.6-1.1-3.4C407.1,308.8,406.1,308.4,404.9,308.4z"/>
	<path class="st3" d="M431.2,304.2c0.8,0,1.5,0.1,2,0.2l-0.4,5.5c-0.5-0.1-1.1-0.2-1.7-0.2c-1.9,0-3.3,0.5-4.4,1.4
		c-1,1-1.6,2.3-1.6,4v10.9h-5.9v-21.5h4.4l0.9,3.6h0.3c0.7-1.2,1.6-2.2,2.7-2.9S429.9,304.2,431.2,304.2z"/>
	<path class="st3" d="M436.9,299.1c0-1.9,1.1-2.9,3.2-2.9c2.1,0,3.2,1,3.2,2.9c0,0.9-0.3,1.6-0.8,2.1c-0.5,0.5-1.3,0.8-2.4,0.8
		C437.9,302,436.9,301,436.9,299.1z M443,326.1h-5.9v-21.5h5.9V326.1z"/>
	<path class="st3" d="M457.9,326.5c-6.7,0-10-3.7-10-11c0-3.7,0.9-6.4,2.7-8.4c1.8-1.9,4.4-2.9,7.8-2.9c2.5,0,4.7,0.5,6.7,1.5
		l-1.7,4.5c-0.9-0.4-1.8-0.7-2.6-0.9s-1.6-0.4-2.4-0.4c-3,0-4.6,2.2-4.6,6.5c0,4.2,1.5,6.3,4.6,6.3c1.1,0,2.2-0.2,3.1-0.5
		c1-0.3,1.9-0.8,2.9-1.4v5c-0.9,0.6-1.9,1-2.9,1.2C460.5,326.4,459.3,326.5,457.9,326.5z"/>
	<path class="st3" d="M483,326.1l-1.1-2.9h-0.2c-1,1.2-2,2.1-3,2.6c-1,0.5-2.4,0.7-4.1,0.7c-2.1,0-3.7-0.6-4.9-1.8
		c-1.2-1.2-1.8-2.9-1.8-5c0-2.3,0.8-4,2.4-5c1.6-1.1,4-1.7,7.2-1.8l3.7-0.1v-0.9c0-2.2-1.1-3.3-3.3-3.3c-1.7,0-3.7,0.5-6.1,1.6
		l-1.9-4c2.5-1.3,5.2-1.9,8.2-1.9c2.9,0,5.1,0.6,6.6,1.9c1.5,1.3,2.3,3.2,2.3,5.7v14.3H483z M481.3,316.2l-2.3,0.1
		c-1.7,0.1-3,0.4-3.8,0.9c-0.8,0.6-1.2,1.4-1.2,2.6c0,1.7,0.9,2.5,2.8,2.5c1.4,0,2.4-0.4,3.3-1.2c0.8-0.8,1.2-1.8,1.2-3.1V316.2z"/>
	<path class="st3" d="M521.5,326.1h-19.6V322l7.1-7.1c2.1-2.1,3.5-3.6,4.1-4.5c0.6-0.8,1.1-1.6,1.4-2.3c0.3-0.7,0.4-1.4,0.4-2.2
		c0-1.1-0.3-2-0.9-2.5s-1.5-0.8-2.5-0.8c-1.1,0-2.1,0.2-3.2,0.7c-1,0.5-2.1,1.2-3.2,2.1l-3.2-3.8c1.4-1.2,2.5-2,3.4-2.5
		c0.9-0.5,1.9-0.9,3-1.1c1.1-0.3,2.3-0.4,3.6-0.4c1.8,0,3.3,0.3,4.7,1c1.3,0.6,2.4,1.5,3.1,2.7c0.7,1.2,1.1,2.5,1.1,4
		c0,1.3-0.2,2.5-0.7,3.6s-1.2,2.3-2.1,3.5c-1,1.2-2.6,2.9-5,5.1l-3.6,3.4v0.3h12.2V326.1z"/>
	<path class="st3" d="M543.8,312.1c0,4.9-0.8,8.5-2.4,10.9c-1.6,2.4-4.1,3.5-7.4,3.5c-3.2,0-5.7-1.2-7.3-3.7
		c-1.6-2.4-2.5-6-2.5-10.8c0-5,0.8-8.6,2.4-11c1.6-2.4,4.1-3.5,7.4-3.5c3.2,0,5.7,1.2,7.4,3.7C543,303.7,543.8,307.3,543.8,312.1z
		 M530.1,312.1c0,3.4,0.3,5.9,0.9,7.4s1.6,2.2,3,2.2c1.4,0,2.4-0.8,3-2.3c0.6-1.5,0.9-4,0.9-7.4c0-3.4-0.3-5.9-0.9-7.4
		s-1.6-2.3-3-2.3c-1.4,0-2.4,0.8-3,2.3C530.4,306.1,530.1,308.6,530.1,312.1z"/>
	<path class="st3" d="M561.5,326.1h-5.9v-16.3l0.1-2.7l0.1-2.9c-1,1-1.7,1.6-2.1,1.9l-3.2,2.6l-2.9-3.6l9.1-7.2h4.9V326.1z"/>
	<path class="st3" d="M579,297.6c2.7,0,4.9,0.6,6.5,1.8c1.6,1.2,2.5,2.9,2.5,5c0,1.4-0.4,2.7-1.2,3.8c-0.8,1.1-2.1,2.1-3.8,3
		c2.1,1.1,3.6,2.3,4.5,3.5c0.9,1.2,1.4,2.6,1.4,4c0,2.3-0.9,4.2-2.7,5.6c-1.8,1.4-4.2,2.1-7.1,2.1c-3.1,0-5.5-0.7-7.2-2
		c-1.8-1.3-2.6-3.2-2.6-5.6c0-1.6,0.4-3,1.3-4.3c0.9-1.2,2.2-2.3,4.1-3.3c-1.6-1-2.8-2.1-3.5-3.2c-0.7-1.2-1.1-2.4-1.1-3.8
		c0-2,0.8-3.6,2.5-4.9C574.1,298.3,576.3,297.6,579,297.6z M574.6,318.6c0,1.1,0.4,2,1.2,2.6c0.8,0.6,1.8,0.9,3.2,0.9
		c1.5,0,2.6-0.3,3.3-1s1.1-1.5,1.1-2.5c0-0.9-0.4-1.7-1.1-2.4c-0.7-0.8-1.9-1.5-3.5-2.4C576,315.1,574.6,316.7,574.6,318.6z
		 M578.9,302c-1,0-1.8,0.3-2.5,0.8s-0.9,1.2-0.9,2.1c0,0.8,0.2,1.5,0.7,2.1c0.5,0.6,1.4,1.2,2.7,1.9c1.3-0.6,2.1-1.2,2.6-1.8
		c0.5-0.6,0.7-1.3,0.7-2.1c0-0.9-0.3-1.6-1-2.1C580.8,302.2,579.9,302,578.9,302z"/>
</g>
</svg>
